<?xml version="1.0" encoding="UTF-8"?>
<!DOCTYPE svg PUBLIC "-//W3C//DTD SVG 1.1//EN" "http://www.w3.org/Graphics/SVG/1.1/DTD/svg11.dtd">
<!-- Creator: CorelDRAW -->
<svg xmlns="http://www.w3.org/2000/svg" xml:space="preserve" width="35.218mm" height="35.218mm" version="1.1" style="shape-rendering:geometricPrecision; text-rendering:geometricPrecision; image-rendering:optimizeQuality; fill-rule:evenodd; clip-rule:evenodd"
viewBox="0 0 3507.6 3507.6"
 xmlns:xlink="http://www.w3.org/1999/xlink"
 xmlns:xodm="http://www.corel.com/coreldraw/odm/2003">
 <defs>
  <style type="text/css">
   <![CDATA[
    .fil1 {fill:black}
    .fil0 {fill:red}
   ]]>
  </style>
 </defs>
 <g id="Camada_x0020_1">
  <metadata id="CorelCorpID_0Corel-Layer"/>
  <g id="_2051539968384">
   <polygon class="fil0" points="1753.8,166.78 2128.42,1381.4 3347.93,1378.95 2359.94,2127.16 2739.03,3340.26 1753.8,2588.06 768.57,3340.26 1147.65,2127.16 159.66,1378.95 1379.18,1381.4 "/>
   <path class="fil1" d="M2244.37 1214.37l1103.25 -2.21c70.34,-0.14 130.14,45.25 151.88,115.24 21.73,70.01 -1.16,143.51 -58.14,186.66l-893.8 676.88 342.94 1097.46c21.86,69.97 -0.91,143.53 -57.8,186.79 -56.9,43.25 -130.78,43.19 -187.59,-0.19l-891.31 -680.48 -891.31 680.48c-56.81,43.37 -130.69,43.44 -187.59,0.19 -56.89,-43.26 -79.66,-116.83 -57.8,-186.79l342.94 -1097.46 -893.8 -676.88c-56.99,-43.16 -79.88,-116.66 -58.14,-186.66 21.73,-70 81.54,-115.38 151.88,-115.24l1103.25 2.21 338.92 -1098.81c21.59,-70.05 81.32,-115.56 151.66,-115.56 70.34,0 130.06,45.52 151.66,115.56l338.92 1098.81zm-490.57 -1047.59l374.62 1214.61 1219.51 -2.45 -987.99 748.21 379.09 1213.1 -985.23 -752.19 -985.23 752.19 379.09 -1213.1 -987.99 -748.21 1219.51 2.45 374.62 -1214.61z"/>
  </g>
 </g>
</svg>
