<?xml version="1.0" encoding="UTF-8"?>
<!DOCTYPE svg PUBLIC "-//W3C//DTD SVG 1.1//EN" "http://www.w3.org/Graphics/SVG/1.1/DTD/svg11.dtd">
<!-- Creator: CorelDRAW -->
<svg xmlns="http://www.w3.org/2000/svg" xml:space="preserve" width="25.6445mm" height="35.218mm" version="1.1" style="shape-rendering:geometricPrecision; text-rendering:geometricPrecision; image-rendering:optimizeQuality; fill-rule:evenodd; clip-rule:evenodd"
viewBox="0 0 2550.28 3502.34"
 xmlns:xlink="http://www.w3.org/1999/xlink"
 xmlns:xodm="http://www.corel.com/coreldraw/odm/2003">
 <defs>
  <style type="text/css">
   <![CDATA[
    .fil1 {fill:#0A0A0A}
    .fil0 {fill:red}
   ]]>
  </style>
 </defs>
 <g id="Camada_x0020_1">
  <metadata id="CorelCorpID_0Corel-Layer"/>
  <g id="_2015380805808">
   <path class="fil0" d="M1275.57 3393.8c35.58,-19.61 84.49,-55.4 109.55,-73.16 43.41,-30.77 89.13,-63.55 130.29,-97.38l198 -176.15 176.98 -207.26c75.77,-94.55 140.01,-195.08 201.75,-299.16 173.59,-292.66 279.43,-579.16 324.35,-916.24 44.74,-335.92 31.76,-691.5 31.76,-1030.29l0 -283.91 -555.32 -97.06 -476.89 -85.63c-36.53,-6.13 -73.19,-13.17 -109.99,-20.97 -7.11,-1.52 -21.15,-5.23 -28.27,-5.39 -6.82,-0.14 -21.24,3.21 -28.02,4.52 -38.17,7.35 -76.17,14.87 -114.44,21.66 -200.07,35.48 -399.87,73.72 -599.79,110.17 -113.66,20.71 -227.38,41.33 -341.24,60.86 -30.44,5.22 -60.92,10.4 -91.43,15.29l0 280.22c0,185.77 -3.16,371.73 -0.96,557.46 1.84,154.67 7.91,309.7 28.02,463.19 44.52,339.6 157.56,626.3 325.46,923.67 144.77,256.38 345.2,493.61 573.44,679.38 43.04,35.03 89.72,68.92 134.91,101.1 25.48,18.15 75.65,55.07 111.86,75.09z"/>
   <path class="fil1" d="M1.65 298.48l0 295.43c0,829.53 -47.43,1262.59 365.6,1994.07 151.4,268.13 361.22,515.64 597.67,708.12 44.95,36.58 269.55,206.24 310.62,206.23 40.53,0 261.73,-165.93 305.69,-202.18l204.63 -182.06 182.49 -213.72c80.28,-100.01 145.01,-201.1 210.82,-312.07 406.61,-685.54 370.26,-1193.71 370.26,-1998.15l0 -368.95 -638.87 -111.66 -477.22 -85.69c-208.45,-34.96 -95.36,-39.2 -315.73,-0.13 -173.13,30.72 -1055.55,197.48 -1115.97,197.48l0 73.27zm1273.92 3095.31c35.59,-19.59 84.48,-55.38 109.54,-73.14 43.41,-30.77 89.14,-63.56 130.3,-97.38l198 -176.16 176.98 -207.27c75.76,-94.54 140.01,-195.06 201.75,-299.15 173.59,-292.66 279.44,-579.16 324.35,-916.24 44.74,-335.92 31.76,-691.5 31.76,-1030.29l0 -283.91 -555.32 -97.05 -476.89 -85.65c-36.53,-6.12 -73.19,-13.16 -109.99,-20.97 -7.11,-1.51 -21.15,-5.21 -28.26,-5.37 -6.84,-0.15 -21.25,3.21 -28.04,4.52 -38.16,7.34 -76.16,14.87 -114.43,21.65 -200.07,35.48 -399.86,73.73 -599.8,110.17 -113.64,20.71 -227.37,41.33 -341.23,60.86 -30.44,5.23 -60.92,10.4 -91.42,15.28l0 280.23c0,185.77 -3.17,371.73 -0.97,557.47 1.85,154.66 7.91,309.68 28.02,463.18 44.51,339.6 157.56,626.3 325.46,923.67 144.77,256.38 345.2,493.61 573.43,679.38 43.04,35.02 89.73,68.91 134.91,101.1 25.49,18.15 75.66,55.07 111.87,75.08z"/>
  </g>
 </g>
</svg>
