<?xml version="1.0" encoding="UTF-8"?>
<!DOCTYPE svg PUBLIC "-//W3C//DTD SVG 1.1//EN" "http://www.w3.org/Graphics/SVG/1.1/DTD/svg11.dtd">
<!-- Creator: CorelDRAW -->
<svg xmlns="http://www.w3.org/2000/svg" xml:space="preserve" width="35.2182mm" height="35.218mm" version="1.1" style="shape-rendering:geometricPrecision; text-rendering:geometricPrecision; image-rendering:optimizeQuality; fill-rule:evenodd; clip-rule:evenodd"
viewBox="0 0 3507.62 3507.6"
 xmlns:xlink="http://www.w3.org/1999/xlink"
 xmlns:xodm="http://www.corel.com/coreldraw/odm/2003">
 <defs>
  <style type="text/css">
   <![CDATA[
    .fil1 {fill:black}
    .fil0 {fill:red}
   ]]>
  </style>
 </defs>
 <g id="Camada_x0020_1">
  <metadata id="CorelCorpID_0Corel-Layer"/>
  <g id="_2086960656112">
   <path class="fil0" d="M1890.96 170.08l1446.57 1446.57c75.71,75.71 75.71,198.52 0,274.26l-1446.57 1446.57c-75.75,75.71 -198.52,75.71 -274.26,-0.03l-1446.57 -1446.53c-75.71,-75.75 -75.71,-198.55 0.03,-274.26l1446.53 -1446.57c75.75,-75.71 198.55,-75.71 274.26,0l0.01 -0.01z"/>
   <path class="fil1" d="M1971.24 89.81l1446.57 1446.57c119.74,119.74 119.74,315.07 0,434.81l-1446.6 1446.6c-119.74,119.74 -315.07,119.74 -434.81,0l-1446.6 -1446.6c-119.74,-119.74 -119.71,-315.07 0,-434.81l1446.57 -1446.57c119.74,-119.74 315.07,-119.74 434.81,0l0.03 0 0.03 0zm-80.27 80.27l1446.57 1446.57c75.71,75.71 75.71,198.52 0,274.26l-1446.57 1446.57c-75.75,75.71 -198.52,75.71 -274.26,-0.03l-1446.57 -1446.53c-75.71,-75.75 -75.71,-198.55 0.03,-274.26l1446.53 -1446.57c75.75,-75.71 198.55,-75.71 274.26,0l0.01 -0.01z"/>
  </g>
 </g>
</svg>
