<?xml version="1.0" encoding="UTF-8"?>
<!DOCTYPE svg PUBLIC "-//W3C//DTD SVG 1.1//EN" "http://www.w3.org/Graphics/SVG/1.1/DTD/svg11.dtd">
<!-- Creator: CorelDRAW -->
<svg xmlns="http://www.w3.org/2000/svg" xml:space="preserve" width="28.815mm" height="35.218mm" version="1.1" style="shape-rendering:geometricPrecision; text-rendering:geometricPrecision; image-rendering:optimizeQuality; fill-rule:evenodd; clip-rule:evenodd"
viewBox="0 0 2867.31 3504.46"
 xmlns:xlink="http://www.w3.org/1999/xlink"
 xmlns:xodm="http://www.corel.com/coreldraw/odm/2003">
 <defs>
  <style type="text/css">
   <![CDATA[
    .fil1 {fill:black}
    .fil0 {fill:red}
   ]]>
  </style>
 </defs>
 <g id="Camada_x0020_1">
  <metadata id="CorelCorpID_0Corel-Layer"/>
  <g id="_2015364206912">
   <path class="fil0" d="M2714.73 145.68c-205.19,-7.99 -425.48,-0.71 -632.33,-0.71 -201.68,0 -1862.81,-9.22 -1909.59,4.11 -8.54,369.25 -8.33,741.31 -12.36,1110.86 -3.6,330.98 -33.27,779.33 24,1093.01 36.8,201.63 135.67,423.61 272.97,566.45l142.21 139.9c787.95,644.71 1910.51,186.17 2081.48,-697.71 48.79,-252.24 34.02,-804.83 34.02,-1087.9 0,-373.7 7.56,-755.28 -0.4,-1128.02z"/>
   <path class="fil1" d="M2714.73 145.68c7.96,372.74 0.39,754.31 0.39,1128.03 0,283.06 14.78,835.64 -34.01,1087.88 -170.96,883.9 -1293.53,1342.43 -2081.49,697.72l-142.2 -139.89c-137.29,-142.83 -236.17,-364.82 -272.97,-566.46 -57.27,-313.68 -27.6,-762.03 -24,-1093.01 4.03,-369.54 3.81,-741.62 12.36,-1110.86 46.78,-13.33 1707.91,-4.11 1909.58,-4.11 206.87,0 427.15,-7.27 632.34,0.71zm-1286.44 3358.78c256.96,0 541.06,-78.07 754.48,-209.45 58.24,-35.85 171.96,-114.76 221.65,-163.93 178.98,-177.1 297.4,-325.78 382.88,-581.03 65.14,-194.52 80.02,-441.53 80.02,-697.99l0 -1831.41c0,-15.87 -4.8,-20.65 -20.66,-20.65l-2822.95 0c0,406.26 -13.77,813.31 -13.77,1218.63 0,872.42 -135.01,1486.38 591.08,2025.24 220.22,163.44 537.95,260.59 827.27,260.59z"/>
  </g>
 </g>
</svg>
