<?xml version="1.0" encoding="UTF-8"?>
<!DOCTYPE svg PUBLIC "-//W3C//DTD SVG 1.1//EN" "http://www.w3.org/Graphics/SVG/1.1/DTD/svg11.dtd">
<!-- Creator: CorelDRAW -->
<svg xmlns="http://www.w3.org/2000/svg" xml:space="preserve" width="30.254mm" height="6.3702mm" version="1.1" style="shape-rendering:geometricPrecision; text-rendering:geometricPrecision; image-rendering:optimizeQuality; fill-rule:evenodd; clip-rule:evenodd"
viewBox="0 0 3024.34 636.8"
 xmlns:xlink="http://www.w3.org/1999/xlink"
 xmlns:xodm="http://www.corel.com/coreldraw/odm/2003">
 <defs>
  <style type="text/css">
   <![CDATA[
    .fil0 {fill:black}
    .fil3 {fill:#B0B0B0}
    .fil1 {fill:#F2BA0F}
    .fil2 {fill:white}
   ]]>
  </style>
 </defs>
 <g id="Camada_x0020_1">
  <metadata id="CorelCorpID_0Corel-Layer"/>
  <path class="fil0" d="M2712.27 606.07c-34.34,20.17 -88.54,24.17 -129.96,24.17 -29.57,0 -58.21,-6.78 -79.45,-20.79 -14.17,10.17 -32.49,16.47 -52.82,19.86 -8.32,1.39 -16.47,1.23 -24.02,-0.77 -9.86,1.85 -19.24,0.92 -30.03,-0.46l-104.86 6.16c-24.94,3.39 -50.66,5.55 -71.6,-8.01 -8.47,-5.55 -13.56,-12.01 -16.32,-19.09 -14.17,2.16 -28.49,4.31 -42.66,6.47 -16.32,2.62 -33.26,5.39 -48.96,9.24 -9.4,2.31 -17.55,4.78 -27.56,6.32 -20.48,3.23 -40.04,1.23 -54.97,-5.39 -5.7,2.16 -11.86,3.85 -18.17,5.08 -20.17,4 -40.66,-2.62 -50.5,-16.01 -1.85,-2.62 -5.85,-8.47 -10.01,-13.86 -1.23,1.69 -2.77,3.54 -4.62,5.55 -15.55,16.63 -39.89,23.71 -66.52,25.25 -12.79,0.77 -24.17,-2 -33.57,-8.32 -9.4,-6.32 -14.32,-14.32 -14.32,-23.71 0,-10.32 1.23,-19.71 2.46,-29.26 -9.7,-6.93 -15.7,-14.47 -18.63,-24.94l-29.72 0c2,5.7 2.93,11.86 2.31,18.32 -3.08,31.72 -40.5,54.05 -78.53,64.68 -40.81,11.4 -87.93,12.17 -128.88,0.62 -6.32,-1.85 -12.48,-4 -18.17,-6.47 -29.72,9.86 -52.81,4.31 -82.68,6.01 -6.62,0.31 -12.94,1.39 -19.4,2.31 -16.63,2.62 -31.11,4.31 -48.35,4.31 -23.87,0 -42.5,-10.63 -51.43,-24.79 -14.47,14.17 -34.03,24.17 -60.98,23.4 -5.85,-0.15 -11.55,-1.08 -16.78,-2.77 -8.63,-2.77 -15.09,-6.62 -19.86,-11.24 -0.62,0.62 -1.39,1.23 -2,1.69 -8.63,6.93 -19.71,10.32 -32.49,10.32 -26.95,0 -56.2,-1.23 -82.84,1.54 -30.34,3.23 -60.98,5.08 -91.62,5.08 -20.79,0 -38.35,-10.17 -42.96,-24.94 -4.16,-12.94 -9.7,-23.1 -1.08,-36.5 3.39,-5.39 6.93,-7.7 10.47,-10.17 -0.92,-3.39 -1.39,-6.78 -1.39,-10.78 0,-0.31 0,-0.77 0,-1.08 -15.39,5.85 -32.34,10.01 -48.5,13.09 -1.85,7.09 -4.47,13.86 -8.47,20.48 -13.56,22.17 -39.12,36.03 -70.99,42.2 -13.71,2.62 -27.1,0.77 -38.35,-5.55 -11.24,-6.32 -17.24,-15.24 -17.24,-25.56 0,-18.17 1.69,-36.19 3.7,-54.2l-29.1 0c1.08,26.02 -0.15,53.12 -22.94,71.75 -10.32,8.47 -23.56,14.02 -38.5,16.93 -20.17,4 -40.66,-2.62 -50.5,-16.01 -2.93,-4 -5.7,-8.01 -8.32,-12.17 -14.47,11.55 -32.95,19.24 -58.36,19.24 -11.09,0 -21.86,-2 -31.41,-6.32 -6.47,-2.77 -11.4,-6.01 -15.55,-9.55 -5.7,4.16 -12.32,7.86 -19.55,11.24 -19.55,9.4 -28.33,10.78 -51.74,11.24 -12.94,0.15 -24.17,-3.23 -33.11,-10.17 -3.08,-2.46 -5.7,-5.08 -7.55,-7.86l-133.35 23.71c-20.48,3.7 -41.27,-3.85 -50.04,-17.09 -12.63,9.4 -30.95,12.32 -47.89,7.39 -17.09,-4.93 -27.87,-16.47 -27.72,-30.03 0.15,-26.18 4,-53.59 7.09,-79.76 1.85,-15.39 3.7,-30.8 5.24,-46.19 -2.16,0.62 -4.31,1.23 -6.01,1.85 -7.24,22.63 -15.24,49.73 -31.72,68.06 -5.39,6.01 -8.63,10.01 -17.24,13.86 -14.32,8.63 -33.42,9.7 -49.58,3.08 -16.16,-6.62 -24.64,-19.24 -21.86,-32.65 1.85,-9.09 2.93,-18.17 4,-27.41 -22.79,4.62 -33.11,5.55 -59.13,5.55 -24.33,0 -44.03,-14.47 -44.03,-32.18 0,-30.03 21.09,-68.53 38.65,-95.78 5.24,-8.16 13.86,-13.86 25.71,-16.78 13.86,-3.39 28.18,-5.24 42.5,-7.24 3.23,-0.46 9.09,-1.23 14.93,-2.16 1.23,-5.85 2.46,-12.32 3.39,-18.01 -4.47,0.15 -8.93,0.31 -13.56,0.31 -26.02,0.31 -52.97,-1.69 -67.91,-19.86 -16.16,-19.71 -2.16,-38.81 7.24,-57.74 8.47,-17.09 16.16,-36.19 27.56,-52.35 7.09,-10.01 19.55,-16.16 34.96,-17.24l28.18 -2c0.46,-2.93 0.92,-5.7 1.39,-8.01 2.93,-15.24 6.01,-30.49 10.47,-45.58 6.32,-22.02 15.86,-46.19 33.42,-64.83 11.09,-11.86 30.64,-16.78 49.43,-12.48 18.01,4 30.03,15.39 30.95,28.95 0.77,-2.31 1.54,-4.47 2.46,-6.62 10.32,-23.87 17.86,-52.51 48.66,-67.29 13.86,-6.62 30.49,-7.09 45.11,-1.39 14.62,5.7 23.1,16.16 23.1,28.18 0.15,38.5 -3.23,76.22 -10.32,114.41 -2,10.78 -4.31,21.56 -6.16,32.34 13.4,-0.62 29.41,-2 36.65,-2.62 2.62,-0.15 5.24,-0.31 7.86,-0.15 7.55,-15.39 14.93,-30.64 21.86,-46.19 7.86,-17.55 17.4,-34.65 25.41,-52.2 4.47,-9.7 7.39,-18.94 9.55,-29.1 2.93,-13.25 6.16,-24.64 21.25,-34.03 10.78,-6.78 23.87,-9.55 37.88,-9.55l224.97 0c41.58,0 88.23,16.47 89.93,50.35l62.21 0 5.7 -6.93 0 -11.24c0,-17.7 19.86,-32.18 44.19,-32.18l128.57 0c13.25,0 24.64,3.85 33.42,11.09 8.63,7.24 12.17,16.01 10.32,25.71l-2.62 13.56 50.66 0c26.64,-29.1 61.9,-50.35 110.25,-50.35l183.55 0c14.32,0 28.02,2.62 38.5,8.93 18.16,-9.4 45.57,-10.01 66.67,-10.78 27.87,-0.92 55.9,-0.77 83.77,-0.31 39.42,0.46 79.3,2.16 118.57,2.16 14.17,0 26.48,4.47 35.11,12.63 8.63,8.16 11.24,18.01 7.55,28.02l-3.7 9.7 47.73 0c4.16,-7.24 6.78,-13.56 6.78,-18.17 0,-17.7 19.86,-32.18 44.19,-32.18 31.26,0 62.37,-0.92 93.63,-1.08 25.71,-0.15 52.2,0.92 68.22,18.32 9.55,10.47 9.86,21.71 7.7,32.95l38.96 0c0.77,-2.62 1.54,-5.24 2.31,-8.01 4,-13.86 9.7,-26.02 26.33,-34.8 9.86,-5.08 21.56,-7.55 33.57,-7.55l211.12 0c42.04,0 75.14,14.17 88.39,39.42 27.1,-23.56 60.98,-39.42 104.4,-39.42 44.19,0 88.85,-2 132.73,-1.39 30.18,0.46 63.14,2.46 86.85,16.78 56.51,-28.95 166.15,-24.02 200.18,21.4 19.86,26.33 13.71,53.28 3.23,80.84 -16.32,42.81 -28.95,87.16 -43.57,130.27 -12.48,36.81 -42.66,130.88 -77.14,157.83 -4,3.08 -8.63,6.01 -13.86,8.78 13.56,5.39 24.94,12.94 32.49,23.4 5.24,7.39 7.86,15.39 7.86,23.56 0,27.1 -25.41,79.61 -45.11,102.86 -28.64,33.72 -100.08,47.89 -151.37,39.12 -4.16,-0.77 -8.01,-1.69 -11.55,-3.23l-0.02 0.94z"/>
  <path class="fil1" d="M193.1 346.45c0,-29.57 1.08,-46.35 21.25,-48.81 18.17,-2.16 70.68,-5.55 70.68,8.63 0,35.88 2.77,39.12 -33.72,47.42 -21.56,4.93 -35.88,11.09 -58.05,11.24l0 -18.47 -0.16 0zm18.32 -135.81c0,-45.73 11.55,-81.3 11.55,-129.19 -34.19,36.34 -35.57,118.42 -45.88,129.96l-59.75 4.16c-8.32,11.71 -18.01,33.88 -25.25,48.5 -14.47,29.26 -23.25,34.96 18.47,34.49 59.28,-0.62 69.91,-17.55 50.35,72.83 -20.63,10.17 -57.44,10.47 -82.69,16.78 -13.09,20.32 -34.49,57.59 -34.49,82.07 28.64,0 28.33,-0.46 51.43,-5.24 20.94,-4.31 39.58,-4 47.27,-9.86l9.24 8.32c-4.47,21.56 -4.78,42.81 -9.24,65.45 7.39,-4.47 2.31,0 8.16,-6.47 15.24,-17.09 27.72,-65.14 28.8,-67.45 7.39,-14.47 80.84,-26.64 91.47,-26.64 4.31,20.32 -13.56,125.96 -13.71,167.69 15.39,-12.01 31.57,-50.66 34.65,-62.52 14.93,-57.74 -1.69,-88.85 10.78,-108.71 11.71,-18.78 23.25,-25.25 38.5,-59.28 6.16,-13.71 8.01,-22.48 14.78,-32.8l-43.42 2.77c0.62,-82.84 46.5,-6.93 72.68,-61.75 9.24,-19.24 26.95,-43.26 25.87,-64.98 -139.97,10.47 -68.37,0 -68.84,-176.01 -15.09,7.24 -20.32,25.71 -30.8,49.89 -10.17,23.4 -9.09,117.03 -20.48,125.66 -13.71,10.17 -70.53,4 -79.61,2.16l0.16 0.15z"/>
  <path class="fil2" d="M2825.61 68.05c0,23.4 -22.79,124.27 -30.34,148.91 -7.24,23.87 -12.79,50.2 -16.01,75.45 -6.16,47.42 -8.78,56.97 -8.78,107.63 0,23.1 72.21,3.85 91.01,-10.63 36.34,-28.33 87,-213.12 110.56,-274.7 7.24,-19.09 13.86,-39.27 0.62,-56.67 -21.56,-28.64 -111.48,-29.26 -142.74,-6.47 -17.4,12.63 -4.31,11.55 -4.31,16.63l-0.01 -0.16zm-1487.18 375.72l247.9 0c10.94,-16.63 40.96,-63.14 41.27,-77.14 -42.04,16.16 -68.99,10.01 -137.65,10.01 0.46,-17.4 17.4,-46.35 25.56,-61.75 6.01,-11.4 8.32,-18.32 13.7,-30.18 10.01,-22.17 14.17,-18.63 61.75,-18.63 40.35,0 45.27,6.01 68.84,10.01l41.27 -83.77c-27.25,1.69 -6.62,7.09 -59.59,6.78 -22.94,-0.15 -46.04,-0.15 -68.99,-0.15 2.62,-8.01 6.62,-15.24 11.4,-25.25l24.02 -49.58c11.4,-25.41 3.7,-19.09 107.02,-19.09 19.86,0 14.17,5.39 36.81,6.78l27.56 -73.75c-36.19,0 -229.28,-7.09 -243.6,3.08l-197.09 402.67 -0.16 -0.01zm564.65 -301.96c0,21.86 -1.54,26.95 -6.01,45.88 -21.4,92.39 12.17,78.07 -95.01,78.07l101.01 -124.11 0 0.15zm-302.88 301.81l68.84 0c17.86,-27.1 -5.08,-12.63 42.2,-69.76 6.47,-7.7 19.09,-25.71 25.87,-31.57 7.86,-6.78 8.63,-6.62 18.78,-7.7 8.32,-0.92 0.46,0.31 12.79,-0.31 123.19,-6.01 99.63,-5.7 89,52.66 -6.62,36.65 -20.94,36.5 -23.25,56.82l133.04 0c3.85,-33.72 7.39,-73.14 15.7,-105.94 8.63,-34.49 12.94,-68.22 20.94,-102.09l31.26 -154.91c8.93,-54.97 38.81,-42.96 -118.57,-42.96 0,31.26 -47.12,78.07 -70.38,106.25 -28.49,34.65 -52.66,66.68 -83,100.24 -8.47,9.4 -10.47,13.86 -18.32,23.4l-126.73 148.91c-8.01,8.63 -16.93,14.32 -18.32,26.79l0.15 0.16zm-752.98 -177.71c1.39,-11.55 86.54,-117.03 101.01,-124.11 -0.62,22.79 -22.94,105.01 -22.94,124.11l-78.07 0zm110.1 -207.88l-296.58 360.17c-11.86,12.17 -18.47,10.78 -20.17,25.41 111.48,0 41.73,12.17 119.34,-77.14 4.47,-5.24 4.78,-5.55 8.32,-10.63 14.47,-20.63 12.94,-21.25 34.8,-21.09 28.64,0.15 45.11,-3.7 89.16,-0.77 18.17,1.23 16.78,-3.39 10.17,42.5 -5.7,38.65 -22.33,45.58 -23.1,66.99l133.19 0c0,-55.59 0.92,-32.34 8.47,-77.61l64.98 -328.15 -128.57 0 0 20.17 0.01 0.15zm293.81 258.24c-0.46,14.62 -7.86,26.18 -13.56,37.11 -16.78,31.72 -31.72,23.4 -128.73,23.4 -31.88,0 -20.79,-8.01 -45.88,-10.01 -13.56,42.5 -39.58,77.14 -13.71,77.14l179.09 0c69.45,0 102.4,-62.21 121.03,-102.7 16.16,-35.26 62.52,-115.18 62.52,-145.52 0,-52.35 -90.24,-16.93 -137.66,-33.57 -4.78,-8.32 1.39,-19.4 7.7,-31.26 18.32,-34.65 17.7,-25.71 139.2,-25.71 16.78,0 22.17,5.24 32.18,10.01 10.47,-14.47 19.24,-43.11 26.48,-61.9 3.85,-9.7 8.93,-15.24 -8.16,-15.24l-183.55 0c-80.38,0 -118.88,107.48 -139.35,153.06 -9.7,21.4 -40.81,76.06 -39.12,98.4 2.93,38.65 75.6,15.55 141.82,26.95l-0.3 -0.15zm1216.46 56.97c0,-17.4 52.51,-121.03 64.21,-144.28 5.85,-11.55 12.48,-22.33 17.86,-33.88 5.85,-12.79 9.7,-21.86 16.01,-35.26 12.63,-27.25 22.33,-54.82 53.43,-54.82 82.23,0 64.37,-9.7 6.32,115.18 -6.32,13.56 -9.86,21.86 -16.78,34.65 -54.05,99.63 -34.49,136.43 -140.9,118.42l-0.15 -0.01zm-78.07 70.38l165.22 0c80.69,0 130.11,-115.64 150.91,-161.37 16.01,-34.96 32.34,-66.37 48.81,-101.78 78.68,-168.77 51.43,-142.59 -163.07,-142.59 -95.17,0 -138.89,133.04 -164.76,184.79l-41.12 83.92c-17.7,32.03 -70.53,137.04 3.85,137.04l0.16 0zm-211.12 -66.99l-45.88 0c0.46,-14.17 97.17,-211.73 113.33,-242.53 17.7,-33.42 1.23,-29.26 70.22,-29.26 30.34,0 -1.08,44.96 -17.7,77.61l-67.91 138.28c-9.86,21.25 -16.63,55.74 -52.2,55.74l0.15 0.15zm-183.55 67.14l197.41 0c99.02,0 136.12,-91.31 165.84,-157.21 23.4,-51.89 91.16,-171.23 91.16,-215.11 0,-22.79 -18.78,-33.57 -50.5,-33.57l-211.12 0c-18.47,0 -12.94,15.24 -28.02,49.89 -7.39,17.09 -15.39,34.03 -24.02,52.82 -16.63,35.73 -35.57,66.99 -51.74,103.17l-76.37 155.37c-5.7,10.47 -8.93,16.01 -15.86,25.71 -6.47,8.93 -17.24,18.94 3.39,18.94l-0.16 -0.01zm-1519.36 -67.14c0.62,-18.01 27.25,-62.52 35.73,-81.15 6.93,-15.24 9.55,-27.25 33.57,-29.41 24.02,-2.16 43.26,2.16 54.66,6.62 -1.85,16.78 -17.7,42.2 -25.41,58.67 -24.48,52.82 -17.09,45.27 -98.55,45.27zm87.16 -177.7c0.46,-14.17 23.71,-58.67 32.34,-76.99 10.01,-21.09 -3.7,-16.93 82.38,-16.93 0,15.24 -20.32,60.21 -30.64,78.22 -12.48,21.56 -32.8,15.7 -84.07,15.7l-0.01 0zm-224.97 244.83l220.35 0c56.51,0 87.46,-40.04 104.24,-71.3 8.32,-15.39 51.74,-98.55 51.74,-109.79 0,-6.93 -6.62,-13.56 -12.48,-17.7 -5.24,-3.7 -6.47,-3.7 -10.63,-5.7 -1.08,-0.62 -4.62,-2 -5.7,-2.62 -8.32,-4 -2.16,-0.46 -8.01,-4.16 53.28,-9.09 65.45,-27.1 84.69,-62.21 21.09,-38.65 39.27,-70.22 39.27,-112.1 0,-13.71 -25.25,-20.17 -45.88,-20.17l-224.97 0c-20.01,0 -9.24,12.17 -26.95,50.81 -8.78,19.09 -16.63,32.49 -25.25,51.89 -15.86,35.26 -32.03,66.68 -50.97,103.47 -18.01,35.11 -71.15,151.83 -93.16,180.63 -5.7,7.39 -18.01,18.94 3.54,18.94l0.16 0zm2386.9 83.77c0,18.32 -1.23,34.34 9.24,50.35 36.34,6.16 87,-4.93 103.78,-24.79 12.48,-14.78 38.5,-62.83 38.5,-85.92 0,-32.95 -104.09,-32.03 -135.81,-8.63 -9.86,7.24 -9.24,20.48 -11.4,31.88 -2.62,14.32 -4.31,19.09 -4.31,37.11z"/>
  <path class="fil3" d="M2325.32 537.54c2.31,-20.01 7.24,-5.7 13.71,-23.4 18.01,6.93 7.09,0.46 14.93,9.4l6.62 11.09c-1.39,11.55 -17.09,3.23 -35.26,2.93l0 -0.01zm-913.43 63.75c29.26,0 40.35,-5.24 64.52,-6.62 25.1,-1.39 50.34,2.93 68.67,-3.54 -2.93,-26.18 -44.02,-20.17 -91.77,-20.17 -73.91,0 -56.2,30.18 -41.27,30.18l-0.15 0.15zm-348.93 -23.4c-15.7,17.09 -16.63,3.7 -9.24,26.79 28.64,0 57.28,-1.85 85.31,-4.78 28.02,-2.93 58.98,-1.85 89.16,-1.85 -2,-17.55 -8.63,-18.94 -32.18,-20.01 -101.16,-4.93 -59.28,0 -133.04,0l-0.01 -0.15zm1184.29 3.39c-8.47,26.33 5.7,25.71 38.04,21.25l112.72 -6.62c8.78,0.77 24.33,6.01 22.94,-7.09 -2.46,-21.56 -150.14,-15.7 -173.54,-7.39l-0.16 -0.16zm192.78 16.78c44.34,-7.55 44.5,-27.56 49.58,-44.19 10.32,-33.42 19.4,-54.05 10.01,-83.3 -61.13,-21.4 -50.97,8.01 -50.5,23.4 0.77,29.87 -9.09,57.74 -9.09,104.09zm-1574.48 -117.34c5.08,13.86 8.78,9.24 22.94,20.17 -3.39,30.03 -9.24,65.14 -9.24,97.32 55.74,-10.94 44.96,-46.65 52.97,-55.28 8.16,-8.78 4.47,-3.7 22.79,-6.78 24.02,-4.16 54.2,-11.71 66.52,-25.1 -31.72,0 -52.2,-1.08 -78.07,3.39 -13.86,-47.58 114.72,3.54 114.72,-36.96l0 -10.01c-44.96,0 -66.83,6.78 -110.1,6.78 -10.94,0 -18.17,-10.01 -41.27,-10.01 -40.19,0 -1.69,14.32 -41.27,16.78l0 -0.31zm302.89 60.36c-15.7,0 -40.04,3.08 -38.96,-5.55 0.46,-3.39 17.24,-16.01 20.63,-17.86 10.94,5.85 14.78,12.17 18.32,23.4l0 0.01zm-105.63 13.4c0,7.7 1.54,3.85 4.62,13.4 74.52,-3.23 58.05,-5.08 125.19,-0.92 16.16,0.92 18.63,-2.16 35.42,-2.46 -1.39,-12.17 -5.08,-15.86 -10.63,-25.87 -5.55,-9.86 -8.78,-19.4 -11.24,-28.64 -11.09,-40.04 -2,-39.42 -79.15,-39.42 -22.33,0 -15.09,25.41 -48.66,61.75 -5.85,6.32 -15.55,14.32 -15.55,22.17l0.01 -0.01zm1606.51 -3.39l0 10.01c-29.26,4.93 -70.84,19.09 -114.26,2.93 -16.63,-6.16 -18.94,-11.4 -18.94,-29.72 -39.58,7.7 -27.1,63.75 45.88,63.75 48.81,0 138.74,-6.78 113.18,-55.59 -14.17,-26.95 -95.78,-34.19 -102.09,-36.34 -10.47,-3.54 -7.24,-0.92 -11.09,-8.63 12.63,-4.47 86.54,-8.16 95.32,-11.24 1.85,-0.62 17.86,-2.77 6.16,-15.39 -13.56,-14.47 -103.32,-1.23 -123.96,3.39 -52.2,11.4 -54.51,40.81 -9.09,53.12 19.09,5.08 35.26,7.7 57.44,11.71 22.79,4.16 41.58,8.63 61.44,12.01l0.01 0zm-1216.46 -36.96c0,-9.24 17.24,-27.56 26.95,-31.11 23.56,-8.47 32.65,16.47 32.65,17.7 0,44.5 -59.75,47.73 -59.75,13.4l0.15 0.01zm-234.06 -30.18c0,20.63 38.81,16.78 55.13,16.78 17.09,0 27.25,-7.7 29.87,6.32 4.62,23.56 -19.24,92.39 -2.77,93.01 40.81,1.23 57.9,-83.77 60.05,-102.55 22.63,0 34.96,-3.7 45.88,0 6.01,4.62 -14.78,42.5 32.18,60.36 45.73,17.24 93.62,-0.31 107.62,-25.25 7.7,-13.86 0.46,-13.09 16.32,-21.71 8.63,23.71 74.06,29.1 104.55,34.34 16.32,2.77 24.79,8.16 42.35,9.24 -1.69,15.39 -4,13.09 -23.71,16.16 -30.34,4.93 -64.83,7.55 -92.39,-5.24 -15.55,-7.24 -17.09,-10.47 -17.09,-27.72 -22.33,4.31 -36.5,43.88 19.24,59.75 94.7,26.79 219.27,-40.19 95.63,-76.53 -62.52,-18.32 -51.58,-1.08 -68.99,-20.01 17.86,-1.08 37.11,-5.55 55.43,-6.47 20.63,-1.08 50.04,1.23 50.04,-13.71 0,-24.64 -76.84,-10.78 -105.32,-6.47 -32.03,4.78 -56.82,6.47 -59.9,33.42l-9.24 0c-7.86,-24.48 -19.55,-29.41 -59.58,-30.18 -40.5,-0.77 -10.32,-7.09 -96.4,-6.62 -38.04,0.15 -58.98,-4.93 -96.4,-3.39 -34.03,1.39 -82.69,0.92 -82.69,16.78l0.17 -0.31zm-684 -13.4c0,27.25 -6.62,61.29 -13.71,83.92 -57.13,0 -90.39,10.47 -137.66,13.4 0.77,-27.25 19.55,-24.33 46.96,-29.41 15.39,-2.93 19.24,-4.47 34.03,-8.78 17.24,-5.08 20.48,-4 24.64,-15.55l-78.07 3.39c-17.55,0 -1.69,1.08 -13.71,-3.39 4.16,-36.96 101.63,-7.86 119.34,-43.57 -223.28,0 -164.3,-4.47 -175.08,69.91 -8.47,58.98 -13.09,25.71 -22.33,50.81 7.39,8.01 5.55,3.54 9.24,13.4l188.16 -33.57c0,16.01 -3.08,13.86 -4.62,26.79 17.24,-0.31 17.24,-0.46 28.64,-5.85 38.19,-18.17 18.78,-30.95 40.19,-54.51 14.93,8.01 6.47,3.85 22.17,27.41 9.7,14.62 12.94,26.18 28.33,26.18 42.66,0 46.04,-54.05 78.07,-60.36 10.94,16.63 -3.7,27.25 27.56,70.38 39.42,-7.7 26.64,-45.73 27.41,-90.7 0.31,-17.4 4.31,-18.94 4.78,-33.42 -10.47,-5.08 -37.58,-21.86 -65.14,-0.62l-43.11 42.35c-8.78,9.24 -9.4,15.7 -24.94,18.63 -4.78,-7.39 -5.85,-11.71 -9.24,-20.01 -20.01,-48.81 -16.16,-50.35 -68.84,-50.35 -7.24,0 -17.4,1.85 -22.94,3.39l-0.14 0.15zm1505.65 40.2c-14.32,15.55 -49.12,20.79 -82.23,24.48 -20.79,2.31 -30.18,6.16 -26.79,-16.01 2.31,-14.32 -0.15,-28.49 17.09,-28.49 36.03,0 75.29,2 91.78,20.17l0.15 -0.15zm-197.41 -30.19c11.09,34.49 41.27,0.77 40.5,28.95 -0.15,4 -3.85,9.86 -3.85,21.4 -10.47,-1.85 -10.63,-2.62 -22.94,-3.39 0.46,17.09 7.86,19.55 22.94,26.79 -1.69,15.24 -4.62,23.25 -4.62,43.57 59.9,-3.7 23.87,-40.19 68.84,-40.19 28.33,0 41.89,21.86 55.13,40.19 34.96,-6.78 19.4,-29.1 13.71,-46.96 13.86,-4.93 18.01,-3.23 30.95,-10.94 10.47,-6.32 12.17,-10.01 24.17,-15.86l-5.55 46.81c-9.24,4 -17.4,2.93 -17.4,13.56 0,24.33 42.04,10.47 52.2,8.01 45.11,-11.09 118.11,-18.01 140.74,-25.1 28.8,-8.93 5.7,-4.78 29.41,-1.54l154.14 -1.54 -32.18 -90.54c-7.39,-5.39 -51.89,-6.78 -68.84,-6.78 -14.62,0 -15.86,8.93 -20.17,18.78 -5.24,11.86 -6.32,13.56 -13.4,23.71 -34.49,50.5 -24.02,37.42 -127.35,47.89 -53.43,5.39 -49.27,15.39 -45.58,-16.63 24.79,-4.16 93.47,-9.7 101.01,-30.18 -16.01,0 -35.11,-0.77 -50.66,0.15 -19.55,1.08 -36.5,8.93 -36.5,-6.78 0,-26.18 85.31,0.31 119.34,-36.96 -264.86,0 -138.28,9.24 -183.55,33.57 -4.93,-13.71 -14.17,-18.47 -31.26,-24.02 -43.11,-13.86 -149.83,-15.24 -189.09,4l-0.14 0.02z"/>
 </g>
</svg>
