<?xml version="1.0" encoding="UTF-8"?>
<!DOCTYPE svg PUBLIC "-//W3C//DTD SVG 1.1//EN" "http://www.w3.org/Graphics/SVG/1.1/DTD/svg11.dtd">
<!-- Creator: CorelDRAW -->
<svg xmlns="http://www.w3.org/2000/svg" xml:space="preserve" width="9.8981mm" height="14.683mm" version="1.1" style="shape-rendering:geometricPrecision; text-rendering:geometricPrecision; image-rendering:optimizeQuality; fill-rule:evenodd; clip-rule:evenodd"
viewBox="0 0 16.09 23.87"
 xmlns:xlink="http://www.w3.org/1999/xlink"
 xmlns:xodm="http://www.corel.com/coreldraw/odm/2003">
 <defs>
  <style type="text/css">
   <![CDATA[
    .fil0 {fill:black}
    .fil5 {fill:#148AD4}
    .fil1 {fill:#DD1762}
    .fil6 {fill:#E60607}
    .fil4 {fill:#F9FAFB}
    .fil3 {fill:#FAFCFD}
    .fil2 {fill:#FBFCFE}
   ]]>
  </style>
 </defs>
 <g id="Camada_x0020_1">
  <metadata id="CorelCorpID_0Corel-Layer"/>
  <g id="Figs_Desenho_VarCor_003">
   <path class="fil0" d="M10.1 9.73l-0.25 -0.09 0.07 -0.13c0.03,-0.19 0.92,-1.73 1.07,-1.98 0.31,-0.51 1.01,-1.7 1.48,-1.85 0.05,0.08 0.04,0.12 0.04,0.23 -0.02,0.42 0.2,1.43 0.3,1.87 0.12,0.6 0.3,1.2 0.59,1.64 0.18,0.28 0.87,1.08 1.33,0.75 0.48,-0.34 0.16,-1.06 0.08,-1.82 -0.2,-2.07 1.19,-3.9 0.69,-4.92 -0.11,-0.23 -0.36,-0.44 -0.67,-0.46 -0.59,-0.03 -1.03,0.61 -1.58,0.79 -0.26,-0.22 -0.7,-1.34 -1.62,-1.18 -0.68,0.11 -1.34,0.78 -1.7,1.25 -0.63,0.82 -1.3,2.61 -1.55,3.71 -0.04,0.2 -0.07,0.47 -0.12,0.64l-0.11 0.05c-0.58,0.08 -0.95,0.44 -1.32,0.86 -0.08,0.09 -0.58,0.44 -0.7,0.49 -0.21,-0.61 -0.4,-0.92 -0.62,-1.68 -0.4,-1.35 -0.47,-2.77 -0.1,-4.19 0.28,-1.07 0.46,-1.06 0.74,-1.76 0.58,-0.03 1.58,-0.2 2.02,-0.42 0.74,-0.37 0.84,-1.21 0.31,-1.45 -0.13,-0.06 -0.48,0.02 -0.67,0.06 -0.84,0.17 -1.9,-0.37 -3.7,-0.01 -0.76,0.16 -1.07,0.31 -1.52,0.81 -0.79,0.87 -1.12,2.22 -1.04,3.37 0.14,2.02 1.46,4.32 2.89,5.67l0.74 0.69c-0.18,0.14 -0.78,0.36 -0.6,1.09 0.08,0.32 0.12,0.17 -0.18,0.63 -0.07,0.11 -0.3,0.5 -0.35,0.54 -0.04,0.05 0.05,0.04 -0.08,0.05 -0.85,0.03 -1.28,-0.24 -1.49,0.16 -0.06,0.11 -0.04,0.27 -0.09,0.37 -0.04,0.08 -0.13,0.11 -0.17,0.28 -0.09,0.34 0.11,0.35 0.14,0.49 0.03,0.2 -0.03,0.52 0.44,0.5 0.11,0.37 0.81,1.28 1.01,1.42 0.38,0.26 0.39,0.18 0.47,0.43 0.12,0.42 0.53,0.22 0.61,0.21 -0.01,0.05 -0.2,0.68 -0.24,0.72 -0.05,0.05 -1.46,0.42 -1.5,0.41 -0.09,-0.3 -0.6,-0.46 -1.02,-0.25 -0.27,0.13 -0.49,0.41 -0.55,0.71 -0.07,0.3 0.1,0.34 -0,0.62 -0.08,0.21 -0.32,0.11 -0.45,1.1 -0.39,0.17 -1.24,0.21 -1.11,0.85 0.1,0.49 1.79,0.7 2.22,0.73 0,0.33 -0.61,0.55 -0.6,1.08 0.01,0.36 0.31,0.4 0.61,0.39 0.61,-0.02 0.89,-0.07 1.42,-0.26 0.58,-0.21 0.87,-0.28 0.95,-0.78 0.26,-0.05 0.52,-0.15 0.79,-0.2 1.73,-0.3 3.49,-0.2 5.13,0.44 0.21,0.08 0.52,0.17 0.71,0.26 0.05,0.34 0.08,0.33 0.33,0.48 0.89,0.52 1.12,0.51 1.77,0.69 0.19,0.01 0.45,0.08 0.61,0 0.15,-0.08 0.27,-0.26 0.25,-0.48 -0.03,-0.38 -0.57,-0.44 -0.6,-0.79l2.01 -0.3c0.29,-0.07 0.48,-0.23 0.47,-0.52 -0.04,-0.36 -0.31,-0.37 -0.62,-0.48 -0.26,-0.09 -0.5,-0.22 -0.76,-0.31 -0.04,-0.21 -0.04,-0.36 -0.1,-0.54 -0.03,-0.11 -0.18,-0.41 -0.18,-0.47 -0.01,-0.27 0.14,-0.24 -0.06,-0.54 -0.05,-0.08 -0.09,-0.77 -0.8,-1.17 -0.16,-0.09 -0.34,-0.14 -0.57,-0.11 -0.23,0.03 -0.28,0.13 -0.43,0.26 -0.1,-0.01 -0.24,-0.09 -0.33,-0.13 -1.45,-0.63 -1.11,-0.18 -1.35,-0.87 -0.04,-0.11 -0.24,-0.56 -0.24,-0.63 0.47,-0.19 1.56,-0.68 1.52,-1.27 -0.01,-0.2 -0.03,-0.12 0.08,-0.26 0.23,-0.01 0.32,0.11 0.51,-0.07 0.27,-0.24 0.21,-0.63 0.08,-0.91 -0.07,-0.16 0.07,-0.26 -0,-0.47 -0.06,-0.21 -0.22,-0.23 -0.26,-0.34 -0.06,-0.15 -0.01,-0.27 -0.2,-0.37 -0.15,-0.08 -0.35,0 -0.53,-0 -0.64,-0.02 -0.55,-0.12 -0.64,-0.27 -0.32,-0.53 -0.42,-0.6 -0.68,-1.28 -0.09,-0.24 -0.07,-0.22 -0.07,-0.51 -0,-0.33 -0.06,-1.13 -0.4,-1.26z"/>
   <path class="fil1" d="M11.63 4.05c-0.27,0.09 -0.71,0.54 -0.85,0.73 -0.59,0.8 -0.87,1.66 -1.15,2.66 -0.06,0.21 -0.37,1.25 -0.26,1.45l0.15 -0.15c0.58,-0.95 1.03,-2.75 1.76,-3.53 0.17,-0.18 0.37,-0.36 0.5,-0.44 0.18,-0.12 0.18,-0.1 0.38,-0.18 0,-0.17 -0.39,-0.7 -0.54,-0.54zm-7.56 -1.98c-0.44,0.13 -0.75,0.81 -0.91,1.19 -0.52,1.22 -0.16,3.02 0.37,4.18 0.35,0.76 0.67,1.23 1.2,1.88 0.08,0.1 0.16,0.18 0.24,0.21l-0.37 -1.06c-0.28,-0.99 -0.47,-2.44 -0.52,-3.46 -0.08,-1.59 0.49,-2.55 0.37,-3.02 -0.21,-0.03 -0.22,0.06 -0.38,0.09z"/>
   <path class="fil2" d="M11.17 15.8c0.05,-0 0.1,-0.06 0.17,-0.11 0.07,-0.05 0.15,-0.08 0.14,-0.18 -0.41,-0.18 -1.12,-0.16 -1.59,-0.24l-0.49 -0 0.04 0.14c0.12,0.12 0.26,0.37 0.28,0.53 0.11,0.15 0.11,0.5 -0.01,0.66 -0.14,0.01 -0.3,-0.09 -0.42,-0.14 -0.16,-0.06 -0.26,-0.08 -0.42,-0.13l-0.3 -0.03 -0.09 0.12c-0.03,0.08 -0.08,0.18 -0.07,0.28 -0.31,0.19 -1.1,0.11 -1.31,-0.08 -0.1,-0.49 0.2,-0.51 -0.43,-0.54 -0.32,-0.01 -0.64,0 -0.95,0.03 -0.21,0.02 -0.42,0.09 -0.59,0.1 -0.11,0.01 -0.2,-0.03 -0.23,-0.1 -0.05,-0.1 0.02,-0.17 0.04,-0.29 0.06,-0.09 0.11,-0.21 0.17,-0.32 0.26,-0.44 0.67,-0.77 0.71,-0.88 -0.08,-0.06 -0.09,-0.04 -0.16,-0.08 -0.62,-0.08 -0.4,-0.1 -1.16,-0.11l-1.19 0.05c-0.12,0 -0.15,0.01 -0.25,0.06 -0.01,0.08 -0.03,0.03 0.02,0.13 0.02,0.03 0.01,0.03 0.03,0.05l0.03 0.03c0.06,0.14 0.26,0.45 0.36,0.52 0.09,0.23 0.7,0.84 0.96,0.87 0.11,-0.13 0.07,-0.13 0.2,-0.18 -0.02,0.13 -0.27,0.57 0.01,0.55l0.48 -0.13c0.14,-0.02 0.14,-0.02 0.19,0.01 -0.57,0.26 0.25,0.38 0.41,0.46 0.81,0.14 0.93,0.17 1.84,0.14 0.28,-0.01 0.64,-0.03 0.91,-0.07 0.15,-0.02 0.28,-0.05 0.41,-0.08 0.25,-0.06 0.18,-0.1 0.33,-0.18 0.19,0.03 0.55,0.29 0.74,0.15 0.19,-0.14 0.11,-0.6 0.23,-0.77 0.07,0.06 0.05,0.08 0.06,0.19 0.01,0.06 0.02,0.14 0.03,0.21 0.16,0.02 0.67,-0.25 0.83,-0.33 0.16,-0.09 0.64,-0.34 0.67,-0.54 -0.16,-0.09 -0.24,0.03 -0.33,0.1l-0.22 0.15c-0.14,0.02 -0.05,0.04 -0.08,-0.04zm2.78 3.61c-0.02,-0.42 -0.78,-1.15 -1.14,-0.82 -0.22,0.21 0.28,0.4 0.44,0.49 0.13,0.07 0.6,0.32 0.7,0.33zm-12.09 -0.85c0.15,0.06 0.88,-0.23 0.96,-0.31 -0.16,-0.4 -1,-0.17 -0.96,0.31zm0.06 0.91c-0.11,0.1 -0.19,0.2 -0.19,0.26 -0.15,-0.05 0.04,-0.06 -0.04,-0.25 -0.2,0.01 -0.33,0.59 -0.22,0.85 0.2,0.47 1.35,-0.3 1.69,-0.71 0.43,-0.51 0.25,-0.74 -0.01,-0.75 -0.32,-0.02 -0.99,0.39 -1.22,0.61zm0.1 1.02l-0.21 0.07c0.06,0.32 1.23,0.09 1.73,-0.5 0.35,-0.41 0.02,-0.67 -0.19,-0.53 -0.13,0.09 -0.73,0.85 -1.33,0.96zm0.1 0.34c0.01,0.14 0.06,0.14 0.18,0.17 1.12,0.27 1.89,-0.75 1.41,-0.86 -0.12,-0.03 -0.13,0.04 -0.2,0.1 -0.44,0.4 -0.96,0.46 -1.4,0.59zm11.77 0.57c0.79,0.24 0.31,-1.14 0.14,-1.2 -0.06,0.28 -0.06,0.18 0,0.43 -0.23,-0.36 -0.12,-0.27 -0.51,-0.66 -0.24,-0.23 -0.59,-0.57 -0.9,-0.69 -0.91,-0.35 -1,0.42 0.5,1.63 0.17,0.14 0.56,0.42 0.77,0.48zm-0.35 0.29c-0.01,-0.01 -0.56,-0.23 -0.61,-0.26 -0.19,-0.09 -0.38,-0.19 -0.54,-0.3 -0.23,-0.17 -0.6,-0.59 -0.7,-0.6 -0.23,-0.01 -0.54,0.68 1.34,1.32 0.51,0.17 0.62,-0.07 0.52,-0.16zm0.36 -0.2c-0.25,-0.12 -0.41,-0.17 -0.65,-0.34 -0.69,-0.51 -1.14,-1.17 -1.23,-1.25 -0.24,-0.21 -0.79,0.3 0.52,1.21 0.14,0.09 1.25,0.81 1.36,0.38zm-4.03 -0.76l0.26 0.07 0.26 -0.5 0.19 0.04 0.24 -0.5 -0.16 -0.07c0.09,-0.15 0.23,-0.33 0.28,-0.53 -0.13,-0.03 -0.21,-0.09 -0.37,-0.09l-0.25 0.48c-0.1,-0.01 -0.15,-0.02 -0.22,-0.06 0.06,-0.18 0.45,-0.54 0.5,-0.73 -0.08,-0.05 -0.24,-0.1 -0.36,-0.11 -0.12,0.24 -0.88,1.06 -0.91,1.22 0.13,0.04 0.6,0.17 0.68,0.24l-0.2 0.4c-0.03,0.05 -0.06,0.01 -0.05,0.13l0.1 0.02zm-4.09 -1.35l-0.12 0.29 -0.28 0.06 0.1 -0.28 0.3 -0.07zm-1.18 1.06c-0.04,0.03 -0.03,-0.04 -0.03,0.05l0.1 0.01 -0.05 0.25c0.84,-0.11 0.13,-0.36 0.77,-0.44l-0.06 0.27 0.4 -0.1c0.22,-0.68 0.16,0.13 0.5,-0.93 -0.01,-0 -0.07,-0 -0.12,-0.06 0.05,-0.06 0.05,-0.16 0.11,-0.21 0.1,-0.09 0.1,0.03 0.18,-0.14 0.05,-0.11 0.16,-0.38 0.19,-0.5l-0.11 -0.05 0.09 -0.23c-0.48,0.03 -0.43,0.17 -0.52,0.4l-0.28 0.06 0.09 -0.29c-0.07,0.01 -0.13,0.03 -0.2,0.05 -0.32,0.07 -0.16,0.07 -0.23,0.2 -0.16,0.27 -0.22,0.1 -0.29,0.32 -0.06,0.17 -0.13,0.31 -0.17,0.46l0.11 0.05 -0.09 0.25c-0.19,0.01 -0.17,0.07 -0.24,0.23 -0.04,0.1 -0.11,0.26 -0.13,0.36zm2.06 -1.02c-0.19,0.31 -0.34,0.83 -0.36,0.98l1.14 -0.06c0.06,-0.02 0.21,-0.49 0.21,-0.58 -0.29,0.02 -0.57,0.07 -0.77,0.01 0.11,-0.24 0.7,0.11 1.02,-0.77 0.29,-0.8 -0.39,-0.64 -0.92,-0.6 -0.05,0.09 -0.18,0.46 -0.18,0.58 0.17,0 0.58,-0.08 0.7,-0.02 -0.02,0.15 -0.19,0.11 -0.36,0.14 -0.18,0.03 -0.39,0.17 -0.49,0.32zm1.42 0.34l0.47 0.06c-0.01,0.16 -0.14,0.35 -0.18,0.56l0.37 0 0.22 -0.51 0.2 -0 0.13 -0.38c0.04,-0.04 0.05,-0.03 0.07,-0.16l-0.16 -0.04c0.04,-0.18 0.18,-0.4 0.19,-0.55l-0.29 -0.01c-0.18,0.02 0.14,-0.03 -0.05,0.01l-0.26 0.52 -0.22 -0.01c0.02,-0.19 0.39,-0.61 0.44,-0.82l-0.36 -0.03c-0.08,0.1 -0.81,1.28 -0.83,1.38l0.26 -0zm-5.11 -5.48c-0.02,0.07 -0.02,0.14 0,0.19 0.13,0.02 0.48,-0.05 0.64,-0.06 0.39,-0.03 0.74,-0.06 1.15,-0.04 0.14,0 0.86,0.06 0.97,0.18 0.15,-0.01 0.64,0.18 0.75,0.24l0.19 0.06c0.12,-0.02 0.04,0.05 0.08,-0.07 -0.37,-0.2 -0.5,-0.31 -0.98,-0.55 -0.21,-0.1 -0.86,-0.39 -1.1,-0.42l-0.06 -0.09 0.14 0.02c0.16,-0 1.26,0.4 1.54,0.59 0.12,0.08 0.34,0.27 0.45,0.27 0.01,-0.2 -0.93,-1 -1.18,-1.09l-0.05 0 0.04 0.22 0.03 0.14 -0.6 -0.26c-0.68,-0.26 -0.77,-0.21 -1.46,-0.22 -0.28,-0 -0.52,-0.07 -0.79,-0.07 0.04,0.12 0.01,0.05 0.1,0.12 0.04,0.03 0.02,0.01 0.06,0.05 0.04,0.05 0,-0.02 0.03,0.05 -0.1,0.06 -0.32,0.12 -0.41,0.34 0.15,-0.01 0.13,-0.06 0.32,-0.06 -0.04,0.16 -0.28,0.37 -0.14,0.59 0.13,-0.09 0.08,-0.25 0.32,-0.31l-0.02 0.17zm2.75 -1.92c-0.16,0.13 -0.23,0.45 -0.25,0.7 -0.01,0.2 -0.04,0.26 0.1,0.35 0.41,0.27 0.39,0.22 0.76,0.59 0.1,0.1 0.38,0.4 0.48,0.43 0.23,-0.21 0.46,-0.93 0.44,-1.08 -0.01,-0.1 -0.15,-0.19 -0.26,-0.21 -0.1,0.13 -0.04,0.29 -0.25,0.27 -0.09,-0.14 -0.05,-0.34 -0.11,-0.48 -0.02,-0.05 -0.1,-0.11 -0.18,-0.16 -0.13,-0.08 -0.65,-0.39 -0.72,-0.4zm2.89 0.85c-0.08,-0.13 -0.05,-0.22 -0.11,-0.38 -0.01,0 -0.07,-0.03 -0.14,0.15 -0.1,0.27 0.14,1.31 0.52,1.51 0.1,-0.04 0.39,-0.36 0.47,-0.43 0.09,-0.08 0.15,-0.14 0.24,-0.21 0.06,-0.05 0.23,-0.12 0.27,-0.19 0.12,-0.24 -0.03,-1.19 -0.09,-1.43 -0.08,-0.31 -0.31,-0.96 -0.5,-1.11 -0.13,0.09 -0.15,0.36 -0.2,0.51 -0.08,0.19 -0.14,0.33 -0.23,0.5 -0.14,0.29 0.07,0.51 -0.03,0.92 -0.03,0.13 -0.05,0.19 -0.2,0.18zm0.07 1.55c0.13,0.19 0.36,0.02 0.84,-0.15 0.52,-0.18 1.35,-0.36 1.91,-0.45 0.34,-0.05 0.72,-0.06 1.05,-0.13 0.04,-0.17 -0.3,-0.33 -0.41,-0.4 0.1,-0.12 0.13,-0.03 0.14,-0.18 -0.12,-0.03 -0.42,0.02 -0.59,-0 -0.61,-0.06 -0.87,-0.18 -1.52,0.24 -0.5,0.32 -0.68,0.55 -1.06,0.83 -0.11,0.08 -0.26,0.17 -0.36,0.25zm0.26 0.22c0.17,0.05 0.08,0.07 0.3,0.03 0.1,-0.02 0.2,-0.04 0.31,-0.06 0.21,-0.04 0.47,-0.07 0.7,-0.08 0.22,0.02 0.71,-0.03 0.98,-0.04 0.37,-0.01 0.72,0.01 1.08,0.02l0.04 -0.2c0.12,0.04 0.07,0.17 0.2,0.22 0.13,-0.17 -0.06,-0.4 -0.09,-0.51 -0.02,-0.09 0,-0.14 -0.03,-0.22 -0.49,-0.03 -2.63,0.45 -3.34,0.68 -0.11,0.04 -0.12,0.03 -0.15,0.15zm0.32 0.08l-0.05 0.02c-0,0.07 -0.01,0.05 0.02,0.1l0.04 0.03c0.42,0.02 0.82,0.01 1.23,0.06 0.18,0.02 0.36,0.05 0.54,0.08 0.14,0.03 0.42,0.09 0.55,0.09 0.09,-0.06 0.35,-0.34 0.4,-0.47 -0.26,-0 -0.53,-0.04 -0.82,-0.04 -0.2,-0 -0.71,0.03 -0.86,0.01l-0.54 0.07c-0.18,0.02 -0.33,0.05 -0.51,0.07z"/>
   <path class="fil3" d="M7.81 15.99c-0.08,-0.2 -0.03,-0.38 -0.07,-0.61 -0.11,-0.01 -0.5,0.02 -0.57,0.06 -0.05,0.08 -0.02,1.05 0.02,1.13 0.01,0.03 -0.03,0.07 0.19,0.1 0.22,0.03 0.64,0.04 0.82,-0.02 0.08,-0.19 0.32,-1.11 0.27,-1.24l-0.57 -0.1c-0.07,0.24 -0.03,0.43 -0.11,0.67z"/>
   <path class="fil4" d="M6.81 14.97c-0.05,0.46 0.43,0.37 0.78,0.3 0.27,-0.05 0.23,-0.07 0.48,-0.01 0.18,0.04 0.34,0.05 0.56,0.04l0.07 -0.04c0.21,-0.08 0.18,-0.45 -0.37,-0.49 -0.12,0.22 -0.26,0.36 -0.5,0.31 -0.27,-0.06 -0.27,-0.23 -0.41,-0.38 -0.3,-0.02 -0.48,0.07 -0.61,0.28z"/>
   <path class="fil5" d="M9.54 16.91c0.03,0.13 0.07,0.1 0.11,0.39 0.07,0.43 0.05,0.32 0.59,0.46 0.15,0.04 0.3,0.1 0.43,0.13 -0,-0.19 -0.2,-0.66 -0.29,-0.83 -0.11,-0.2 -0.12,-0.18 -0.34,-0.11 -0.18,0.06 -0.33,-0.04 -0.5,-0.04zm-1.93 -4.15l-0.01 -0.17c0.01,0.01 0.01,0.01 0.01,0.02 0,0 0.09,0.12 0.08,0.43 -0.01,0.3 -0.1,0.2 -0.32,0.24 -0.21,1.06 -0.42,0.97 -0.45,1.18 -0.02,0.14 0.34,0.04 0.38,0.03 0.23,-0.05 0.2,-0.09 0.36,-0.14 0.48,-0.17 0.78,0.2 0.78,0.2 0.15,-0.02 0.15,-0.01 0.22,-0.12 -0.06,-0.11 -0.41,-0.65 -0.44,-1.36 -0.07,0.03 -0.17,0.14 -0.28,0.09 -0.12,-0.1 -0.16,-0.31 -0.16,-0.53 0.06,0.05 0.05,0.06 0.09,0.15 0.05,0.13 0.06,0.12 0.12,0.15 0.02,0.02 -0.02,0.02 0.04,0.01 0.18,-0.01 0.57,-0.81 0.78,-1.3 0.11,-0.25 0.22,-0.57 0.34,-0.8 0.06,-0.12 0.19,-0.27 0.34,-0.3 -0.06,0.14 -0.13,0.17 -0.13,0.41 0.16,0.14 0.23,0.21 0.33,0.44 0.29,0.67 0.39,1.25 0.37,2.03 0.09,-0.02 0.25,-0.16 0.38,-0.22 0.15,-0.06 0.43,-0.08 0.51,-0.12 -0.02,-0.11 -0.21,-0.37 -0.29,-0.49 -0.1,-0.17 -0.19,-0.32 -0.29,-0.52l-0.22 -0.55c-0.05,-0.13 0.06,-1.02 -0.18,-1.39 -0.06,-0.09 -0.17,-0.12 -0.29,-0.13 -0.17,-0 -0.22,0.04 -0.31,0.13 -0.2,0.21 -0.37,0.5 -0.55,0.74 -0.07,0.1 -0.13,0.16 -0.19,0.24 -0.05,-0.04 -0.01,0.01 -0.02,-0.08 0.03,-0.03 0.26,-0.48 0.32,-0.57 0.11,-0.16 0.37,-0.48 0.39,-0.55 -0.24,-0.15 -0.66,-0.35 -1.02,-0.36 0.01,0.23 0.14,0.66 -0.02,0.91 -0.08,-0.07 -0.21,-0.29 -0.31,-0.39 -0.15,-0.15 -0.3,-0.17 -0.45,-0.28 0.39,-0.03 0.55,0.11 0.74,0.27 0.02,-0.32 -0.34,-0.81 -0.64,-0.84 0.12,-0.25 0.6,-0.58 0.62,-0.63 -0.34,0.04 -0.59,0.19 -0.85,0.39 -0.1,0.08 -0.18,0.16 -0.27,0.26 -0.37,0.46 -1.48,0.96 -1.62,1.54l0.11 -0.04c0.12,-0.02 0.12,-0.04 0.19,0.04l-0.18 0.11c-0.18,0.04 -0.63,0.28 -0.7,0.4 -0.14,0.23 0.09,0.63 0.15,0.82 -0.11,0.05 -0.17,0.06 -0.2,0.19 -0.07,0.05 -0.03,0.02 -0.09,0.1l-0.44 0.72 0.15 0.06c0.06,0.02 0.09,0.03 0.14,0.04 0.2,0.07 0.67,0.34 0.73,0.34l0.11 0.03 -0.04 -0.14c0.02,-0.08 -0.07,-0.46 -0.03,-0.7 0.04,-0.24 0.24,-0.43 0.25,-0.58l-0.1 -0.04c-0.06,-0.06 -0.19,-0.11 -0.27,-0.17 0,-0 -0.01,-0.05 0.14,0l0.48 0.21c0.21,0.11 0.38,0.2 0.58,0.32 0.17,0.11 1.04,0.65 1.15,0.66l-0.02 -0.41zm4.67 -8.64c0.01,0.07 0.13,0.2 0.18,0.3 0.21,0.37 0.3,0.69 0.35,1.15 0.12,1.05 0.36,3.21 1.12,3.92 0.12,0.11 0.43,0.42 0.65,0.38 0.17,-0.1 -0.02,-0.72 -0.06,-1.01 -0.39,-2.64 1.32,-4.65 0.56,-5.33 -0.42,-0.38 -0.81,0.07 -1.26,0.35 -0.13,0.08 -0.26,0.15 -0.41,0.24 -0.01,0.11 0.11,0.25 0.19,0.32 0.16,0.14 0.26,0.12 0.32,0.23 -0.61,0.23 -1.2,-1.13 -1.41,-1.2 -0.09,-0.22 -0.41,-0.47 -0.72,-0.49 -0.32,-0.02 -0.66,0.2 -0.87,0.36 -0.47,0.36 -0.84,0.79 -1.15,1.39 -0.3,0.56 -0.53,1.16 -0.74,1.81 -0.23,0.73 -0.42,1.29 -0.43,2.13 0.03,0.23 -0.07,0.67 0.15,0.8 0.12,0.07 0.57,0.31 0.7,0.29 0.01,-0.15 1.15,-2.18 1.31,-2.44 0.3,-0.48 0.91,-1.56 1.41,-1.86 0.12,-0.08 0.23,-0.11 0.3,-0.18l-0.15 -0.42c-0.47,0.05 -0.93,0.58 -1.16,0.93 -0.04,0.06 -0.24,0.4 -0.27,0.43 -0.1,0.25 -0.25,0.52 -0.38,0.81 -0.12,0.27 -0.23,0.52 -0.35,0.81 -0.12,0.28 -0.24,0.53 -0.38,0.78 -0.15,0.27 -0.24,0.52 -0.6,0.57 0.01,-0.92 0.77,-3.35 1.41,-4.3 0.28,-0.42 0.58,-0.72 0.92,-0.97l0.07 -0.07c-0.03,-0.1 -0.06,-0.07 -0.09,-0.15 0.4,0.03 0.74,0.38 0.81,0.42zm-9.32 2.24c-0.25,-1.18 -0.41,-2.09 0.18,-3.32 0.23,-0.48 0.56,-0.89 0.87,-1.17 0.2,-0.18 1.11,-0.8 1.45,-0.86 -0.07,0.29 -0.29,0.74 -0.4,1.03 -0.46,1.22 -0.7,2.2 -0.67,3.53 0.02,0.8 0.1,1.61 0.24,2.35 0.16,0.86 0.61,1.69 0.63,1.82 0.07,0.4 -0.55,-0.25 -0.59,-0.31 -0.06,-0.05 -0.1,-0.08 -0.13,-0.14 -0.16,-0.16 -0.34,-0.44 -0.48,-0.65 -0.14,-0.21 -0.28,-0.45 -0.42,-0.71 -0.29,-0.54 -0.47,-0.99 -0.66,-1.57zm0.95 -5.8c-1.03,0.22 -1.62,1.09 -1.88,2.13 -0.36,1.42 -0.04,2.69 0.52,3.93 0.02,0.04 0.03,0.08 0.05,0.11l0.06 0.1c0.06,0.24 0.42,0.85 0.56,1.06 0.22,0.35 0.43,0.63 0.66,0.93 0.2,0.24 1.32,1.47 1.63,1.58 0.05,-0.04 0.3,-0.31 0.35,-0.37 0.07,-0.1 -0.08,-0.34 -0.13,-0.45 -0.13,-0.31 -0.25,-0.62 -0.37,-0.96 -0.51,-1.41 -0.7,-3.12 -0.34,-4.67 0.33,-1.41 0.73,-1.8 0.8,-2.05l-0.19 -0.23c0.06,-0.04 0.14,-0.05 0.22,-0.06 0.53,-0.07 0.96,-0.11 1.5,-0.2 0.35,-0.06 1.34,-0.33 1.11,-0.83 -0.11,-0.24 -0.52,-0.07 -0.76,-0.03 -0.31,0.04 -0.98,-0.04 -1.57,-0.11 -0.89,-0.1 -1.33,-0.06 -2.2,0.13zm-1.51 21.6c-0.04,0.03 -0.2,0.24 -0.26,0.29 -0.07,0.07 -0.2,0.18 -0.18,0.32 0.67,0.19 2.21,-0.31 2.29,-0.53 -0.07,-0.05 -0.27,-0.08 -0.4,-0.16 -0.4,-0.26 -0.55,-0.7 -0.71,-0.94 -0.11,-0.01 -0.14,0.01 -0.24,0.03 -0.38,0.04 -0.75,0.08 -0.92,-0.19 -0.13,-0.2 -0.11,-0.02 -0.34,-0.22 -0.44,-0.37 -0.05,-0.34 -0.83,-0.13 -0.16,0.04 -0.42,0.1 -0.49,0.19 0.1,0.19 0.81,0.33 1.1,0.39 0.44,0.09 0.88,0.15 1.37,0.13 -0.1,0.2 -0.11,-0.09 -0.23,0.37 -0.05,0.18 -0.13,0.29 -0.17,0.43zm10.69 0.02c0.55,-0.01 0.89,-0.02 1.42,-0.09 0.23,-0.03 1.11,-0.14 1.23,-0.26 -0.04,-0.1 -0.5,-0.21 -0.63,-0.26 -0.15,-0.06 -0.48,-0.24 -0.64,-0.23 -0.19,0.25 -0.06,0.21 -0.43,0.28 -0.18,0.04 -0.14,0.24 -0.35,0.34 -0.09,0.05 -0.22,0.06 -0.35,0.05 -0.09,0 -0.19,-0.02 -0.28,-0.04 -0.21,-0.04 -0.42,-0.1 -0.55,-0.09 -0.11,0.12 -0.18,0.37 -0.33,0.54 -0.26,0.31 -0.39,0.18 -0.59,0.25 0.07,0.24 1.63,0.87 2.26,0.82 0,-0.23 -0.53,-0.22 -0.62,-0.93 -0.03,-0.27 -0.06,-0.19 -0.15,-0.37zm-7.01 -1.81c-0.14,0.08 -0.08,0.2 -0.21,0.31 -0.09,0.07 -0.26,0.09 -0.38,0.12 -0.3,0.08 -0.11,-0.07 -0.36,0.08 -0.1,0.06 -0.27,0.08 -0.39,0.11 -0.37,0.1 -0.3,-0.24 -0.32,-0.34 -0.02,-0.11 -0.04,-0.09 -0.01,-0.21 0.03,-0.13 0.22,-0.59 0.29,-0.71l0.27 -0.75c0.1,-0.26 0.09,-0.15 0.23,-0.28 0.09,-0.09 0.06,-0.23 0.2,-0.31 0.2,-0.11 0.61,-0.13 0.63,-0.13 0.04,-0.01 0.07,-0.05 0.16,-0.08 0.61,-0.2 0.51,-0.06 0.64,0.09 0.16,-0.16 0.12,-0.13 0.39,-0.15 0.68,-0.05 0.91,-0.08 1.01,0.55 0.14,-0.13 0.25,-0.52 0.45,-0.55 0.08,-0.01 0.4,0.01 0.47,0.03 0.13,0.04 0.13,0.15 0.15,0.3 0.49,0.08 0.4,0.15 0.27,0.53 -0.02,0.07 -0.04,0.08 0.07,0.18 0.18,-0.16 0.44,-0.61 0.57,-0.69 0.13,-0.08 0.32,0.01 0.45,0.06 0.21,0.07 0.23,0.11 0.21,0.37 0.56,0.14 0.26,0.44 0.2,0.61 -0.09,0.25 0.24,-0.04 -0.18,0.74 -0.11,0.2 -0.11,0.32 -0.39,0.33 -0.24,0.52 -0.29,0.49 -0.61,0.4 -0.55,-0.17 -0.28,-0.3 -0.18,-0.67 -0.16,-0.04 -0.5,-0.19 -0.6,-0.19 -0.18,0.33 -0.08,0.57 -0.56,0.51 -0.19,-0.02 -0.34,0.01 -0.38,-0.17 -0.04,-0.17 0.08,-0.27 0.09,-0.43l-0.41 -0.02c-0.09,0.13 -0.08,0.29 -0.17,0.42 -0.1,0.16 -0.22,0.14 -0.44,0.15 -0.27,0.01 -0.83,0.09 -1.07,0.04 -0.05,-0.04 -0.08,-0.22 -0.12,-0.26zm-2.12 -2.2c-0.39,0.11 -0.78,0.2 -1.13,0.36 -0.2,0.07 -0.84,0.31 -0.9,0.46 0.19,-0 0.97,-0.43 1.25,-0.45 -0.1,0.09 -0.6,0.26 -0.79,0.36 -0.21,0.11 -0.55,0.29 -0.63,0.52l0 0.01c0.04,-0.01 0.08,-0.04 0.13,-0.07 0.28,-0.24 0.91,-0.61 1.24,-0.6 0.21,-0.05 0.39,-0.05 0.46,0.26 0.05,0.22 -0.04,0.31 0.13,0.42 0.12,0.08 0.21,0.14 0.19,0.35 -0.03,0.35 -0.07,0.15 0.08,0.41 0.08,0.14 0.09,0.27 0,0.43 -0.22,0.4 -0.57,0.32 -0.63,0.51 0.11,0.14 0.2,0.04 0.37,0.01 -0.09,0.18 -0.34,0.14 -0.27,0.35 0.12,0.11 0.52,0.02 0.72,0.03 -0.12,0.07 -0.35,0.07 -0.44,0.21 0.12,0.09 0.33,-0.03 0.56,-0.03 -0.1,0.08 -0.35,0.12 -0.39,0.24 0.1,0.06 0.76,-0.17 0.91,-0.21 2.11,-0.57 4.01,-0.32 5.97,0.36l0.85 0.3c-0.01,-0.1 0,-0.09 -0.12,-0.16l-0.48 -0.23c-0.2,-0.09 -0.49,-0.18 -0.65,-0.29 0.48,-0 1.29,0.61 1.54,0.56 0.03,-0.11 -0.03,-0.12 -0.1,-0.17 -0.03,-0.02 -0.07,-0.04 -0.09,-0.06l-0.09 -0.08c0.17,0.01 0.23,0.09 0.36,0.11 0.09,-0.09 0.15,-0.25 0.14,-0.41 -0.01,-0.03 -0.07,-0.07 -0.14,-0.13 -0.21,-0.13 -0.39,-0.27 -0.5,-0.44 -0.07,-0.09 -0.13,-0.18 -0.15,-0.27 -0.03,-0.15 0,-0.26 0.08,-0.36 0.13,-0.17 0.07,-0.07 0.06,-0.3 -0,-0.31 0.18,-0.4 0.38,-0.48l0 -0.03c-0.05,-0.15 -0.05,-0.3 0.04,-0.41 0.08,-0.09 0.2,-0.12 0.32,-0.12 0.02,-0 0.03,-0 0.05,-0 0.07,0 0.16,0.02 0.25,0.06 0.04,0.01 0.07,0.02 0.1,0.04 0.18,0.07 0.36,0.2 0.53,0.34 0.11,0.08 0.21,0.15 0.28,0.2 0.13,0.09 0.36,0.29 0.48,0.35l0 -0.01 0.05 0.02c0.14,-0.19 -0.16,-0.23 -0.46,-0.48 -0.11,-0.05 -0.24,-0.12 -0.3,-0.22 0.1,0.02 0.26,0.1 0.31,0.18l0.56 0.32 0.02 -0.15c-0.83,-0.53 -1.93,-1.09 -2.87,-1.41 -1.43,-0.5 -1.91,-0.62 -3.61,-0.66 -0.48,-0.01 -0.94,0 -1.39,0.06 -0.75,0.09 -1.58,0.25 -2.31,0.46zm1.04 -0.5c0.23,-0.01 0.55,-0.09 0.79,-0.14 0.11,-0.02 0.3,-0.03 0.37,-0.1 0.05,-0.07 0.11,-0.27 0.1,-0.37 -0.15,-0.04 -0.48,-0.09 -0.57,-0.17 -0.15,0.03 -0.22,-0.07 -0.41,-0.05 -0.12,0.22 -0.23,0.55 -0.28,0.83zm1.31 -0.19c0.56,0 1.14,-0.03 1.68,0.03 0.27,0.03 0.54,0.04 0.78,0.07 0.25,0.03 0.55,0.08 0.8,0.08 0.01,-0.15 -0.07,-0.32 -0.12,-0.44 -0.17,-0.44 -0.17,-0.3 -0.74,-0.2 -0.52,0.09 -1.11,0.1 -1.64,0.09 -0.43,-0.01 -0.73,-0.16 -0.76,0.37z"/>
   <path class="fil6" d="M5.89 14.84c-0.06,0.04 -0.13,0.13 -0.09,0.18 0.21,0.06 0.71,0.28 0.92,0.25 0.04,-0.42 -0.09,-0.36 -0.67,-0.52 -0.07,0.05 -0.06,0.06 -0.15,0.09zm2.94 1.26c-0.01,-0.11 -0.13,-0.24 -0.29,-0.23l0.01 0.11c-0.12,0.2 0.03,0.21 0.03,0.21l0.3 0.03c0.1,-0.05 0.07,-0.07 -0.05,-0.12zm-0.14 -0.63c0.03,0.24 0.16,0.16 0.3,0.31 0.08,0.08 0.15,0.26 0.25,0.38 0.09,0.1 0.13,0.12 0.31,0.11 0.09,-0.12 0.11,-0.1 0.1,-0.28 -0,-0.09 -0.03,-0.16 -0.08,-0.26 -0.08,-0.15 -0.15,-0.34 -0.34,-0.38 0.01,-0.19 -0.05,-0.15 -0.16,-0.27l-0.11 0.01c-0.06,0.19 -0.3,0.16 -0.27,0.37zm-1.86 0.52c0.08,0.01 0.13,0.03 0.21,0.02l0.03 -0.11 -0.08 -0.22c-0.2,-0.01 -0.48,0.07 -0.53,0.25 0.16,0.02 0.22,0.04 0.37,0.06zm-1.62 -0.47c-0.09,0.12 -0.15,0.25 -0.13,0.45 0.23,0.09 0.3,0.07 0.58,0.05 0.26,-0.02 0.22,-0.11 0.36,-0.24 0.3,-0.3 0.71,-0.24 0.86,-0.35 -0.12,-0.07 -0.48,-0.13 -0.66,-0.16 -0.6,-0.11 -0.56,-0.34 -0.83,0.02 -0.07,0.09 -0.09,0.16 -0.18,0.22z"/>
   <path class="fil4" d="M7.68 14.48c-0.22,0.1 -0.16,0.19 -0.03,0.35 0.11,0.13 0.24,0.22 0.42,0.07 0.45,-0.38 -0.13,-0.53 -0.39,-0.42z"/>
  </g>
 </g>
</svg>
