<?xml version="1.0" encoding="UTF-8"?>
<!DOCTYPE svg PUBLIC "-//W3C//DTD SVG 1.1//EN" "http://www.w3.org/Graphics/SVG/1.1/DTD/svg11.dtd">
<!-- Creator: CorelDRAW -->
<svg xmlns="http://www.w3.org/2000/svg" xml:space="preserve" width="33.8667mm" height="10.16mm" version="1.1" style="shape-rendering:geometricPrecision; text-rendering:geometricPrecision; image-rendering:optimizeQuality; fill-rule:evenodd; clip-rule:evenodd"
viewBox="0 0 118.39 35.52"
 xmlns:xlink="http://www.w3.org/1999/xlink"
 xmlns:xodm="http://www.corel.com/coreldraw/odm/2003">
 <defs>
  <style type="text/css">
   <![CDATA[
    .fil0 {fill:black}
    .fil4 {fill:blue}
    .fil1 {fill:aqua}
    .fil3 {fill:yellow}
    .fil2 {fill:white}
   ]]>
  </style>
 </defs>
 <g id="Camada_x0020_1">
  <metadata id="CorelCorpID_0Corel-Layer"/>
  <g id="_2486918345152">
   <path class="fil0" d="M98.45 33.09c-0.13,0.17 -0.3,0.42 -0.56,0.27 -0.35,-0.2 0.29,-0.24 0.56,-0.27zm-12.43 -6.04c0.23,-0.11 0.13,-0.14 0.86,-0.19 0.48,-0.03 0.72,-0.04 1.32,-0.31 0.46,-0.21 0.1,-0.16 0.74,-0.23l-1.28 0.88c-0.54,0.37 -0.45,0.32 -0.95,0.33 -0.06,-0.37 -0.26,-0.36 -0.69,-0.48zm9.74 6.38l-0.81 0.04 -0.08 -0.21c0.04,-0.57 0.26,-1.26 0.4,-1.85 0.17,-0.72 0.21,-1.19 0.21,-1.89 -0.55,0.17 -3.57,2.14 -4.35,2.58 -0.53,0.3 -0.93,0.6 -1.52,0.81 -0.35,0.21 -0.41,0.27 -0.9,0.49l-0.13 -0.35c0.01,-0.14 0.08,-0.27 0.13,-0.4 0,-0.84 0.46,-1.81 0.46,-2.69 -0.96,0.14 -4.5,2.81 -6.18,3.39l-0.13 0.07c-0.25,0.23 -0.1,0.18 -0.62,0.32 0.07,-0.36 0.23,-0.58 0.31,-0.92 0.4,-1.81 -0.34,-1.37 1.82,-2.7l3.49 -2.02c0.36,-0.18 0.56,-0.35 0.86,-0.56l1.71 -1.03c0.84,-0.48 2.65,-1.7 3.5,-2.02 0,0.74 -0.14,1.29 -0.32,1.99 -0.08,0.3 -0.05,0.49 -0.15,0.87 -0.07,0.24 -0.59,0.98 0.19,0.72l1.23 -0.61c0.82,-0.46 3.17,-2.24 4.3,-2.62l0.28 -0.16c0.27,-0.25 0.23,-0.23 0.69,-0.36 -0.04,0.91 -0.32,1.87 -0.5,2.71 -0.28,1.35 0.12,1.26 -1.21,2.19 -1.87,1.31 -1.78,0.95 -2.18,3.1 -0.1,0.51 0.12,0.88 -0.52,1.12zm17.43 -9.38l0.13 -0.07 0.31 -0.19c0,1.44 -1.23,5.38 -1.23,6.77 1.56,0.15 3.5,-0.23 5,-0.04 -0.08,0.72 -0.38,1.38 -0.38,2.13 -1.55,0.01 -7.83,0.38 -8.84,0.3l1.38 -6.52c0.11,-0.31 3.11,-2.2 3.64,-2.38zm-12.63 7.99l-0.26 -0.06c0.22,-0.11 0.28,-0.13 0.48,-0.26 0.11,-0.07 0.11,-0.08 0.29,-0.18l1.06 -0.7c1.83,-1.04 1.45,-1.17 4.27,-1.15 0.4,-0.57 0.62,-1.69 0.62,-2.43 -0.22,0.07 -0.25,0.08 -0.47,0.17 -0.03,0.01 -0.06,0.03 -0.08,0.04l-3.08 1.82c-1.11,0.57 -2.9,1.88 -3.94,2.46 -0.78,0.43 -1.64,1.18 -2.58,1.41 0.01,-0.31 0.09,-0.6 0.17,-0.87 0.28,-1 -0.13,-1.44 0.92,-2.16l3.19 -1.92c1.44,-0.76 2.24,-1.44 3.13,-1.97 1.08,-0.65 2.13,-1.22 3.22,-1.91 0.96,-0.61 0.56,-0.5 2.03,-0.59 0.91,-0.06 2.21,-0.32 2,0.32 -0.34,1.06 -2.18,1.33 -2.6,2.28 -0.23,0.51 -0.27,1.19 -0.36,1.71 -0.1,0.57 -0.33,1 -0.45,1.57l-0.65 3.36c-0.4,0 -0.69,0.01 -1.08,0.03 -0.52,0.02 -0.45,0.17 -0.57,-0.12 -0.01,-0.03 0.12,-0.75 0.1,-0.99 -1.85,0 -3.61,0.13 -5.38,0.13zm-71.65 -8.51c-0.09,-0.43 -0.25,-0.82 0.41,-0.98 0.27,-0.07 1.8,-0.15 2.13,-0.02 0.71,0.28 -0.14,0.79 -0.46,0.87 -0.54,0.14 -1.4,0.13 -2.08,0.13zm48.54 0.17c-0.08,-0.35 0.15,-0.21 0.21,-0.6 0.06,-0.39 -0.14,-0.47 0.15,-0.78 0.65,0.36 0.43,1.13 -0.36,1.39zm-52.53 -1.91c0.33,-0.28 0.63,-0.49 1.11,-0.76l2.32 -1.47c0.77,-0.33 5.48,-0.35 6.43,-0.13 0.93,0.21 2.01,0.83 2.28,1.39 0.33,0.67 0.29,1.83 0.01,2.44 -0.25,0.56 -1.04,1.37 -1.67,1.75 -1.91,1.18 -3.68,1.45 -7.11,1.45 -0.05,-0.19 0.33,-1.89 0.46,-2.13 0.91,-0.15 1.7,-0.04 2.67,-0.35 1.08,-0.35 1.76,-1.25 0.98,-1.92 -0.73,-0.62 -4.01,-0.25 -4.03,-0.25 -0.39,0.15 -1.28,4.61 -1.45,5.44 -0.07,0.35 -0.17,0.59 -0.26,0.9 -0.31,1.07 0.11,0.81 -3.98,0.88l0.75 -3.83c0.16,-0.65 0.33,-1.28 0.48,-1.9 0.19,-0.79 0.03,-1.16 1,-1.52zm23.22 -2.27c-0.49,0.46 -1.03,0.67 -1.4,1.3 -0.63,1.08 -0.64,1.62 -0.01,2.63 0.28,0.45 0.31,0.31 0.74,0.63 0.56,0.43 0.22,1.14 -0.1,1.53l-2 0c-0.27,0.32 -0.75,2.17 -0.77,2.61 -0.62,0 -1.21,0.17 -1.69,0 -0.26,-0.25 0.12,-0.27 0,-1.13 -0.78,-0.02 -5.76,0.18 -5.77,0.17 -0.22,-0.13 -0.41,0.11 0.03,-0.27l3.15 -1.68 0.44 -0.22c0.42,-0.22 0.45,-0.18 1.22,-0.18 0.29,0 1.29,0.04 1.49,-0.03 0.34,-0.11 0.09,0.16 0.24,-0.29l0.27 -1.07c0.06,-0.44 0.74,-1.27 -0.13,-1.06 -0.57,0.14 -1,0.6 -1.59,0.8l-1.05 0.59c-0.48,0.44 -2.31,1.45 -2.96,1.82 -0.29,0.17 -0.5,0.26 -0.75,0.44 -0.3,0.21 -0.34,0.26 -0.71,0.47 -3.93,2.21 -3.54,2.27 -3.16,0.65 0.16,-0.67 0.04,-0.96 0.84,-1.27 0.67,-0.25 0.99,-0.45 1.49,-0.8 2.73,-1.93 -0.58,-0.39 5.37,-3.74 4.82,-2.72 2.63,-2.58 7.11,-2.58l0.56 0.03c-0.29,0.25 -0.51,0.45 -0.87,0.65zm8.61 -0.35c-0.32,0.31 -0.71,0.57 -1.02,0.91 -0.42,0.46 -0.35,0.61 -0.83,1.01 -0.95,0 -3.3,0.02 -4,0.17 -0.42,1.01 -0.19,1.02 1.65,1.09 1.05,0.04 2.24,0.26 2.64,0.67 0.39,0.4 1.18,1.08 1.25,1.46 0.26,1.47 -0.82,0.59 -2.16,0.93 -1.37,0.7 0.38,2.39 -2.27,2.64 -0.65,0.06 -5.91,0.25 -6.47,0.14 -0.47,-0.09 -0.25,-0.31 -0.13,-0.74 0.51,-1.76 0.14,-1.51 2.41,-1.5 1.85,0 3.56,0.2 4.32,-0.43 0.27,-0.22 0.34,-0.44 0.13,-0.75 -0.93,-0.15 -1.93,-0.09 -2.83,-0.27 -0.58,-0.12 -1.52,-0.61 -1.8,-0.9 -0.85,-0.88 -0.74,-2.21 0.05,-3.1 0.62,-0.69 2.35,-1.57 3.72,-1.71 0.94,-0.1 2.12,-0.14 3.17,-0.14 1.22,-0 2.12,-0.09 3.27,-0.06l-0.37 0.15c-0.31,0.18 -0.38,0.27 -0.74,0.42zm-21.83 -0.51c1.14,-0.23 7.92,-0.17 9.33,-0.06 -0.06,0.25 -0.26,0.28 -0.6,0.47l-3.72 2.24c-0.49,0.3 -0.82,0.59 -1.43,0.79 -0.26,-1.08 -0.04,-1.44 -1.03,-2.2 -1.46,-1.13 -1.77,-0.58 -2.56,-1.24zm32.75 7.81c-0.67,0 -1.08,0.09 -1.63,-0.02l1.17 -0.66 2.15 -1.23c0.18,-0.27 0.06,-0.17 0.38,-0.28l0.69 -0.07c0.24,-0.01 0.53,-0 0.78,-0.01 0.55,-0.01 0.86,-0.03 1.3,-0.12 0.21,-0.54 0.38,-1.83 0.38,-2.39 -0.59,0.09 -0.78,0.34 -1.23,0.54l-0.61 0.32c-0.43,0.4 -1.25,0.85 -1.88,1.21 -1.06,0.59 -4.79,3.02 -5.68,3.32 -0.27,0.27 -0.24,0.27 -0.74,0.48 -0.26,-0.13 -0.19,0.23 -0.22,-0.22 0.19,-3.17 0.73,-2.44 3.95,-4.5l4.69 -2.9c3.05,-1.71 1.58,-1.96 6.19,-1.98 0.16,0.89 -0.38,2.2 -0.45,3.13 -0.04,0.51 -0.16,1.09 -0.27,1.5l-0.61 3.04c-0.41,1.67 0.1,1.81 -1.11,1.9 -0.83,0.06 -2.44,0.11 -3.09,0.03 0,-1.65 1.04,-1.09 -4.15,-1.09zm-2.15 -4.95c0.57,0 1.39,-0.59 1.74,-0.83 3.66,-2.47 3.34,-1.57 4.03,-1.98 0.42,-0.25 0.25,-0.28 0.89,-0.4 -0.21,0.28 -0.47,0.41 -0.85,0.59 -0.81,0.39 -0.33,0.16 -0.87,0.55 -0.49,0.36 -1.2,0.65 -1.75,1.01l-1.75 1.1c-0.34,0.19 -0.58,0.32 -0.92,0.52 -0.33,0.2 -0.46,0.35 -0.84,0.49 -0.66,-0.13 -0.21,-0.15 -1.19,-0.55 -0.52,-0.21 -0.71,-0.2 -1.22,-0.38 0.65,-0.22 1.86,-0.12 2.72,-0.12zm3.23 -2.78l-3.03 1.94c-0.58,0.16 -4.84,0.12 -5.97,0.28 -1.21,0.35 -0,1.17 0,1.17 1.36,0.07 1.97,-0.09 3.14,0.26 0.35,0.1 1.74,0.75 1.54,0.91 -0.54,0.72 -0.6,0.36 -1.73,1.23 -0.35,0.27 -0.22,0.13 -0.33,0.53l-0.55 2.54c-1.24,0.38 -3.95,0.28 -5.65,0.36 -0.46,0.02 -1.51,0.19 -1.66,-0.08l-0.39 -0.03 0.01 -0.26c0.15,-0.59 0.14,-1.4 0.54,-1.78 0.94,-0.12 2.31,-0.03 3.31,-0.04 1.67,-0.02 1.67,-0.01 2.79,-0.3l-0.03 -0.91c-1.12,-0.15 -2.17,-0.13 -3.11,-0.42 -1.78,-0.54 -2.39,-2.04 -1.8,-3.13 0.34,-0.62 0.65,-0.94 1.32,-1.34 1.57,-0.93 1.7,-1.14 5.42,-1.27l6.93 -0.19c-0.19,0.25 -0.32,0.43 -0.77,0.52zm-20.45 -0.69c0.26,-0.28 0.22,-0.13 0.74,-0.28 0.96,-0.27 1.99,-1.18 2.54,-1.61 0.89,-0.7 0.22,-0.54 0.93,-0.72 0.38,0.39 0.27,0.49 1.12,1.33 0.21,0.21 0.39,0.43 0.65,0.59 0.26,0.16 0.28,0.12 0.49,0.24l0.33 0.24c0.02,-0.02 0.05,0.05 0.08,0.08 -1.02,0.01 -2.81,0.01 -3.7,0.17 -0.31,0.06 -0.39,0.15 -0.85,0.13 -0.84,-0.02 -0.15,-0.04 -0.72,-0.14 -0.47,-0.08 -0.55,0 -1.6,-0.05zm25.68 -0.61c0.1,-0.22 0.27,-0.52 0.77,-0.52l0.36 0c0.12,0.25 -0.04,0.19 0.21,0.41l-1.33 0.11zm-65.19 -0.61c0,-0.3 0.19,-0.29 0.62,-0.35 0,0.99 -0.31,0.45 -0.46,1.59l-0.31 -0.03c0,-0.43 0.04,-0.29 0.18,-0.6 0.16,-0.35 -0.02,-0.06 -0.02,-0.62zm52.33 0.93c0.02,-0.05 1.47,-1.29 1.85,-1.45 0.1,0.33 -0.05,0.88 -0.05,1.38l-1.79 0.07zm-22.86 -13.49l0.98 4.92c-0.01,0.75 0.13,0.96 0.31,1.56l0.62 4.25c0.01,1.57 0.27,0.61 0.31,1.57 0.01,0.27 0.08,0.62 0.04,0.72 -0.69,0.2 -0.9,0.15 -1.9,0.14 -3.06,-0.02 -2.23,0.57 -2.77,-0.87 -1.17,0.18 -1.38,1.01 -2.21,1.13l-0.25 -1.31c-0.9,0.21 -0.64,0.73 -0.92,1.22 -1.05,0.14 -0.89,0.09 -2.15,0.09 0,-0.54 0.39,-1.08 0.54,-1.61l1.91 -6.56c0.22,-1.62 0.92,-3.76 0.93,-5.12l0.92 -0.03 3.64 -0.12zm35.9 9.03c-0.01,-0.02 -0.03,-0.05 -0.03,-0.06l0.02 -0.12c0.01,-0.01 0.04,-0.04 0.06,-0.05 0.2,-0.11 0.26,-0.07 0.67,-0.08 1.35,-0.05 0.82,-0.25 1.58,-0.33 1.07,-0.11 0.68,0.22 1.51,0.66 -0.25,0.58 -1.13,1.14 -1.46,1.69 -0.03,-0.02 -0.07,-0.04 -0.09,-0.05 -0.02,-0.01 -0.07,-0.03 -0.09,-0.05l-0.25 -0.14c-0.14,-0.08 -0.25,-0.13 -0.38,-0.22l-1.55 -1.25zm3.87 -0.78c-0.37,-0.04 -0.92,-0.27 -0.92,-0.64 0,-0.13 0.32,-0.15 0.54,-0.17l0.38 0.81zm-67.09 -0.9c-0.09,0.45 -0.74,0.41 -1.23,0.26 -0.03,-0.52 0.59,-0.34 1.23,-0.26zm42.13 -3.13c0,-1.57 0.89,-3.71 2.64,-4.85 0.52,-0.33 1.33,-0.8 2.28,-0.8 1.73,0 0.79,-0.04 1.57,0.15 0.3,0.08 0.36,0.08 0.61,0.18 2.35,0.96 3.35,3.68 3.35,5.14l0 3.13c0,0.68 -1.02,2.96 -1.49,3.59 -0.66,0.89 -1.89,2.06 -3.67,2.28 -2.31,0.27 -3.46,-0.98 -4.09,-1.94 -1.57,-2.4 -1.21,-4.28 -1.21,-6.87zm33.44 1.78c0.76,-0.25 2.34,-0.29 3.61,-0.3 -0.31,0.6 -0.91,-0.13 -1.15,0.56 0.57,0.02 0.83,0.05 1.27,0.24 2.79,1.24 1.22,1.79 2.16,3.47 0.13,0.24 0.08,0.77 0.4,1.06 0.18,0.16 -0.02,-0 0.22,0.13l0.26 0.78c0.56,0.72 2.82,0.58 2.82,1.06 0,0.38 0.07,0.08 -0.21,0.2l0.24 0.22c0.33,0.28 0.78,1.21 1.3,1.34l0 -0.52c-0.44,0.06 -0.13,0.08 -0.28,-0.27 -0.23,-0.55 0.09,-0.87 0.58,-1.29 0.74,0.02 1.48,0.17 2.15,0.26 -0.07,-0.4 -1.05,-0.55 -1.23,-1.13 0.61,0.06 0.47,0.08 0.92,0.16 0.86,0.15 1.46,0.12 2.31,0.02 -0.17,-0.3 -0.23,-0.09 0.08,-0.35 -1.09,-0.05 -1.42,-0.3 -2,-0.61 0,-0.43 0.16,-0.13 0.27,-0.56 -0.57,-0.26 -1.26,-0.52 -1.72,-0.84 -0.95,-0.67 -1.29,-1.12 -1.17,-2.2 0.64,0.1 0.54,0.31 0.6,0.7 0.12,0.74 0.53,0.58 1.06,0.62 0.2,0.02 0.27,0.05 0.57,0.11 -0.22,-0.26 -0.61,-0.28 -0.82,-0.57 -0.11,-0.16 -0.25,-0.51 -0.1,-0.65 0.73,0.17 0.29,-0.13 1.03,0.28 0.33,0.19 0.53,0.18 0.99,0.33l-0.14 0.48c-0.16,0.04 -0.39,0.06 -0.43,0.07 -0.41,0.11 -0.04,-0.04 -0.38,0.15 0.58,0.13 0.67,0.2 1.38,0.17 0.1,-0.23 0.23,-0.49 0.23,-0.82 0.67,0.11 1.48,0.26 1.92,0.56 0.56,0.56 0.06,2.84 -0.58,3.32 -0.55,0.41 -0.56,0.3 -0.57,0.98 -0.02,0.86 -0.69,1.22 -1.34,1.85l-0.78 0.87c-0.35,0.34 -0.6,0.41 -1.19,0.58 -0.02,-0.09 -0.14,-1.5 -0.62,-1.09 -0.24,0.13 -0.08,-0.07 -0.03,0.3 0.1,0.69 0.57,1.1 0.57,1.22 0,0.29 -2,2.47 -2.46,2.78l-0.74 0.46c-0.2,0.09 -0.05,0.04 -0.33,0.1 -0.06,-0.78 0.38,-1.51 0.38,-2.26 -0.64,0.68 -3.46,0.04 -4.96,0.58 -0.38,0.14 -0.31,0.12 -0.81,0.18 -1.1,0.13 -1.1,0.27 -2.47,0.24 -1.02,-0.02 -0.79,-0.12 -1.21,-0.45 -0.22,-0.17 -0.24,-0.09 -0.43,-0.37 -0.09,-0.13 -0.14,-0.29 -0.21,-0.39 -0.17,-0.24 -0.48,-0.48 -0.83,-0.58 0,0.84 -0.56,1.9 0.59,2.61 0.6,0.37 2.4,0.36 3.3,0.1 0.3,-0.09 -0.07,-0.03 0.57,-0.13 0.24,-0.03 0.23,-0.03 0.61,-0.07 0.92,1.07 0.72,0.78 2.41,0.15 0.35,-0.13 0.03,-0.06 0.59,-0.15 -0.34,0.34 -0.83,0.59 -1.26,0.9 -0.7,0.5 -0.73,0.34 -1.28,0.84 -0.14,0.13 -0.2,0.15 -0.43,0.27 -0.42,0.21 -0.07,0.12 -0.64,0.21 0.03,-0.73 0.57,-0.54 0.77,-1 -0.62,-0.04 -4.71,1.73 -6.89,0.41 -1.17,-0.71 -2.27,-1.71 -2.69,-2.65l-1.1 -2.18c-0.13,-0.23 -0.18,-0.22 -0.31,-0.53 -0.88,-2.21 -0.24,-1.93 -0.24,-2.57 0,-0.44 -0.26,-0.51 -0.7,-0.78 -0.78,-0.48 -0.57,-0.99 -0.7,-1.63 -0.2,-0.99 0.74,-1.23 1.83,-1.81 0.21,-0.11 0.2,-0.11 0.4,-0.21l0.96 -0.5c0.8,-0.32 0.29,0.16 1.43,-0.68 0.34,-0.25 0.95,-0.49 1.27,-0.75 0.58,-0.45 0.22,-0.5 1.5,-0.67 -0.06,0.51 -1.04,1.28 -1.46,1.82 -3.65,0.14 -0.71,2.3 -2.43,3.24 -0.43,0.23 -0.33,0.11 -0.47,0.5 -0.37,1.02 -0.4,1.35 1.09,2.06 0.18,0.09 0.36,0.15 0.5,0.24 0,-0.24 -0.08,-0.33 -0.12,-0.48 -0.4,-1.63 -0.06,-3.66 1.34,-5.08 0.29,-0.3 0.42,-0.4 0.7,-0.65l2.15 -1.21c0.28,-0.1 0.3,-0.22 0.61,-0.22 0.47,0 0.74,0.17 1.31,0.17 -0.07,-0.4 0.08,0.04 -0.06,-0.19 -0.25,-0.41 -0.69,-0.43 -1.17,-0.33 -0.05,-0.28 0.05,-0.13 -0.15,-0.26zm-7.26 1.38c-0.39,-0.79 1.79,-2.34 -1.27,-2.34l0 -0.35c0.21,-0.09 1.24,-0.11 1.66,-0.03 0.66,0.12 0.92,0.8 1.4,1.29 1.35,1.39 0.55,0.24 -0.1,1.4 -0.2,0.36 -0.13,0.76 -0.65,0.81 -0.58,0.05 -0.89,-0.49 -1.03,-0.79zm-6.12 0.66c0,-0.73 0.33,-0.3 0.3,-1 -0.02,-0.36 0.08,-0.58 0.09,-0.99 0.02,-1.05 0.37,-2.29 2.53,-1.44 -0.02,0.44 -0.68,0.71 -0.08,1.04 0.61,-0.17 0.26,0.17 0.23,-0.43 0.22,-0.34 1,-0.1 1.54,0 -0.05,0.49 -0.12,0.6 -1.08,0.61 0.22,0.32 0.11,0.23 0.54,0.39 1.47,-0.19 -0.22,-0.61 1.85,-0.61 0,0.61 -0.51,0.87 -0.92,1.22 -1.62,0 -1.46,0.11 -2.43,-0.37 -1.52,-0.76 -0.66,-0.66 -1.49,-0.89 -0.61,1.62 0.97,2.14 1.15,2.43 -0.87,0.07 -0.98,0.17 -2.08,0.18l-0.15 -0.13zm8.53 -4.52c0.48,-0.12 1.16,-0.12 1.52,-0.2 0.57,-0.13 0.31,-0.21 1.09,-0.32 0.28,0.3 0.62,0.77 0.83,1.09 0.31,0.49 0.37,0.81 0.48,1.38 -0.68,0.19 -1.59,0.57 -2.61,0.61 -0.37,-0.43 -1.44,-2.06 -1.31,-2.56zm-70.75 9.54c0.14,-0.44 0.35,-0.65 0.44,-0.97 0.11,-0.35 0.12,-0.63 0.25,-0.99 0.36,-0.98 1.32,-3.16 1.48,-3.94 0.09,-0.46 0.16,-0.6 0.33,-1.03 0.14,-0.35 0.08,-0.73 0.23,-1.09 0.09,-0.22 0.18,-0.26 0.27,-0.45l0.7 -2.39c0.41,-1.35 -0.8,-1.38 5.25,-1.38 0,1.05 0.12,0.99 0.16,1.56 0.02,0.26 -0.02,0.53 -0,0.79l1.23 10.5 -2.92 0c-0.37,0 -0.5,0.09 -0.92,0.09 -1.14,0 -0.67,-0.61 -0.92,-0.96 -1.14,0.17 -1.4,0.99 -2.31,1.13 -0.05,-0.43 -0.27,-1.05 -0.31,-1.48 -0.24,0.15 -0.28,0.16 -0.61,0.26 0,0.47 -0.08,0.75 -0.31,1.13 -2.5,0 -2.39,0.36 -2.02,-0.79zm77.21 -11.56c0.41,-0.28 0.31,-0.12 0.54,-0.54 0.35,0.21 0.15,-0.13 0.32,0.37 0.03,0.07 0.05,0.28 0.06,0.37l0.26 0.38c0.07,0.19 0.05,0.29 0.05,0.49l-0.31 0c0.05,0.36 -0.05,0.17 0.35,0.43 0.29,0.14 0.44,0.26 0.74,0.34 0.4,0.12 0.54,0.07 0.99,0.22 0.38,0.64 -0.24,1.14 -0.13,1.57 0.09,0.38 0.61,1.02 0.67,1.43 -0.37,-0.11 -0.32,-0.02 -0.54,-0.22 -0.07,-0.06 -0.09,-0.11 -0.13,-0.19 -0.09,-0.2 -0.01,-0.03 -0.03,-0.2 -0.03,-0.24 0.13,-0.35 -0.49,-0.53 -0.95,-0.28 -2.27,-0.12 -2.34,-0.26 -0.23,-0.47 -0.26,-0.54 -0.22,-1.21 0.02,-0.39 0.2,-0.63 0.38,-0.95l0 -0.43c-0.44,-0.07 -0.23,0.02 -0.46,-0.17l0.31 -0.89zm-85.71 4.5c0.16,-0.58 0.1,-3.14 0.18,-4.21 0.11,-1.56 0.46,-1.1 1.32,-1.01l6.56 0.14c1.54,0 1.45,-0.06 1.19,1.11 -0.11,0.51 -0.12,1.06 -0.22,1.44l-0.39 2.12c-0.04,0.15 -0.19,0.44 -0.27,0.63 -0.71,0 -0.84,-0.09 -1.38,-0.09 -1.86,0 -1.38,-0.01 -1.38,0.87 0,0.69 -0.56,1.49 -0.31,1.91 0.65,0 1.02,0.03 1.61,-0.06 1.57,-0.22 0.94,0.19 0.75,0.7l-0.36 1.54 -2.46 -0c0,0.63 0,0.83 -0.2,1.37 -0.54,1.47 1.66,1.58 -5.07,1.5l0.19 -2.08 0.24 -5.86zm20.52 -5.34c0.55,-0.05 4.6,-0.34 5.12,-0.2 0.63,0.16 0.38,0.38 0.28,0.73 -0.34,1.22 -0.02,2.09 -0.28,3.06 -0.05,0.18 -0.05,0.3 -0.08,0.49l-0.52 4.64c-0.78,3 0.29,1.7 2.55,1.7 0.72,0 -0.06,1.11 -0.21,1.7 -0.22,0.92 -0.06,0.72 -1.8,0.72 -0.93,0 -1.8,0.09 -2.92,0.09 -1.78,-0 -1.99,0.08 -2.77,0.09 0,-0.63 0.16,-0.96 0.15,-1.65 -0,-0.52 -0.05,-1.14 -0,-1.65 0.04,-0.41 0.21,-1.1 0.29,-1.49l0.18 -4.94c-0,-1.1 0,-2.2 0,-3.3zm50.25 9.05l1.21 1.69c-0.41,0.25 -2.72,1.44 -3.18,1.5 -0.17,-0.41 -0.26,-0.5 -0.5,-0.84 -0.39,-0.56 -0.95,-2.03 -1.03,-2.63l-0.31 0.81c-0.02,-0.02 -0.03,-0.05 -0.04,-0.07l-0.1 -0.22c-0.01,-0.03 -0.02,-0.05 -0.03,-0.08 -0.01,-0.02 -0.02,-0.05 -0.03,-0.07 -0.01,-0.02 -0.03,-0.05 -0.04,-0.07l-0.08 -0.13c0,0.54 0.2,0.94 0.16,1.39 -0.04,0.44 -0.16,0.73 -0.16,1.31 -1.32,0.04 -2.67,0.12 -4.31,0.09l-0 -2.34c0.03,-0.94 -0.15,-1.53 -0.15,-2.43 0,-0.77 0.16,-1.18 0.15,-1.91l-0.46 -6.6c0,-0.4 1.26,-0.41 1.98,-0.44 0.9,-0.05 1.14,-0.17 2.32,-0.17 5.45,0.01 6.46,2.67 6.46,5.3 -2.09,0 -2.67,0.79 -2.51,1.88 0.09,0.61 0.19,0.82 -0.27,1.32 -1.6,1.73 -0.41,1.47 0.91,2.72zm-21.03 -4.97c0.03,1.55 0.12,3.38 -0.6,4.7 -0.64,1.16 -1.58,2.48 -3.37,3.14 -1.74,0.64 -2.49,0.61 -4.46,0.66 -0.43,0.01 -1.04,-0 -1.32,-0.04 -0.72,-0.08 -0.47,-0.09 -1.03,-0.21 0.34,-0.82 0.14,-0.79 0.15,-1.56 0,-0.56 0.16,-1 0.16,-1.65 -0,-1.16 0,-2.31 0,-3.47 0,-0.57 0.04,-1.18 0,-1.74 -0.04,-0.65 -0.22,-0.82 -0.05,-1.57 0.25,-1.13 -0.45,-2.15 -0.11,-3.2 0.44,-0.06 0.81,-0.13 1.25,-0.16 2.45,-0.18 1.45,-0.46 3.75,-0.15 1.54,0.21 2.61,0.53 3.55,1.38 1.29,1.17 2.03,2.53 2.06,3.88zm30.17 -4.08l0.12 0.17 0.31 0.09c-0.11,0.17 -0.12,0.14 -0.15,0.17 -0.05,0.06 -0.07,0.05 -0.12,0.17 0.65,0.3 0.55,0.23 1.19,0.3 0,0.49 0.24,1.02 -0.49,1.16 -1.24,0.25 -2.12,0.02 -2.96,-0.39l-0.99 -0.48c-0.92,-0.47 -0.18,-0.32 -1.02,-0.47 0,0.92 0.7,1.39 0.65,2.21 -0.55,0.25 -1,0.35 -1.58,0.56 0.23,0.41 0.35,0.27 0.46,0.52 -2.55,-0.09 -0.71,-2.25 -0.02,-3.23 0.31,-0.45 0.39,-1.25 1.12,-1.71 0.33,-0.21 1.16,-0.31 1.75,-0.27 0.66,0.04 0.76,0.22 1.39,0.37 0.39,0.27 0.45,0.15 0.46,0.54 -0.35,-0.05 -0.35,-0.07 -0.77,-0.09 0.19,0.16 0.35,0.22 0.65,0.35zm8.26 -2.19c0.19,-0.04 0.28,-0.05 0.62,-0.07 0.27,0 0.32,-0 0.58,0.03l0.99 0.13c0.21,0.07 0.67,0.62 0.27,0.8 -0.29,0.04 -0.25,0.02 -0.46,0.09 0.25,0.21 0.19,0.09 0.31,0.35l0.46 0.26 -0.23 0.22c-0.25,0.23 -0.02,0.13 -0.39,0.21 0.14,0.11 0.18,0.17 0.31,0.28 0.44,0.27 0.46,0.01 0.54,0.42 0.04,0.2 -0.54,1.18 -1.87,0.82 -1.21,-0.32 -1.53,-1 -1.59,-1.96 -0.1,-0.09 -0.08,-0.01 -0.14,-0.18 -0.02,-0.05 -0.02,-0.19 -0.02,-0.25 -0.01,-0.2 0,-0.32 -0.03,-0.53 -0.18,-0.22 -0.31,-0.25 -0.2,-0.58l0.85 -0.05zm-4.88 -0.67c0.59,0.21 1.06,0.37 0.81,0.82 -0.13,0.03 0.03,0.03 -0.38,0.06 -0.04,0 -0.26,-0.01 -0.31,-0.02 -1.76,-0.08 -1.07,-0.09 -1.06,-0.2l-0.21 -0.38c-0.08,-0.2 -0.05,-0.12 0.04,-0.37 0.8,0 0.67,-0.05 1.11,0.09zm-1.11 -0.54c-0.16,0.38 -0.42,0.29 -0.3,0.88l0.37 0.68c0.01,-0.01 0.05,0.03 0.08,0.05 3.86,0.21 2.44,1.38 1.07,1.3 -0.88,-0.06 -0.73,-0.09 -1.17,-0.48 -0.02,-0.02 -0.04,-0.04 -0.06,-0.05 -0.02,-0.02 -0.05,-0.04 -0.06,-0.05 -0.05,-0.04 -0.19,-0.1 -0.35,-0.22 -0.58,-0.19 -0.94,-0.36 -0.96,-0.87 -0.73,0.11 -0.61,0.21 -0.61,0.69l-0.46 0c0.08,0.22 0.1,0.29 0.23,0.48 -0.38,-0.1 -0.55,-0.27 -0.81,-0.48 0.15,-0.29 0.13,-0.3 0.42,-0.5 0.26,-0.7 0.3,-0.05 0.64,-1.05l0.08 -0.13c0.01,-0.03 0.03,-0.04 0.05,-0.06 0.43,-1.86 3.26,-1.03 3.33,-0.39 0.06,0.61 -0.65,-0.14 -1.48,0.19zm-6.15 32.15c-0.02,-0.02 -0.05,-0.04 -0.07,-0.06 -0.01,-0.01 -0.05,-0.04 -0.06,-0.05 -0.25,-0.24 -0.23,-0.4 -0.51,-0.57 -0.2,-0.13 0.07,-0.02 -0.28,-0.1 -0.79,-0.04 -0.66,-0.06 -0.97,-0.32 -0.16,-0.13 -0.45,-0.31 -0.57,-0.46 -0.24,-0.32 0.35,-0.59 -1.15,-0.74 0.55,-0.43 0.49,-0.21 0.08,-0.74 -0.85,0.06 -1.3,0.4 -2.15,0.17 0.39,-0.35 2.75,-0.42 3.61,-1.43 -0.43,0.26 -3.12,0.99 -3.77,0.91 -0.02,-0.02 -0.03,-0.05 -0.04,-0.06 -0.2,-0.43 -0.04,-0.63 -0.55,-1 -0.53,-0.38 -1.26,-0.37 -1.03,-0.83l5.38 -0.24c0.49,-0.65 0.39,-1.56 0.68,-2.41 0.04,-0.13 0.14,-0.42 0.27,-0.52 0.2,-0.17 0.05,-0.06 0.33,-0.17 0.44,-0.17 1.4,-0.52 1.87,-0.55 1.43,0.78 1.02,1.24 3.61,2.08 -0.13,0.2 -0.11,0.08 -0.15,0.39 0.29,0.08 0.46,0.13 0.73,0.25 0.19,0.08 0.3,0.16 0.5,0.23 -0.42,0.15 -0.28,0.17 -0.75,0.28 -1.27,0.3 -0.93,-0.09 -1.27,0.49 -0.1,0.17 -0.18,0.32 -0.28,0.5 1.16,0.07 1.7,-0.08 2.62,-0.39 0.51,-0.17 0.14,-0.04 0.54,-0.3 0.02,-0.01 0.05,-0.03 0.07,-0.05 0.33,-0.2 0.57,-0.29 1.07,-0.35 -0.16,0.11 -0.32,0.28 -0.5,0.42 -0.24,0.18 -0.24,0.15 -0.44,0.13l-0.14 -0.03c-0.07,0.15 0.2,0.18 -0.35,0.49 -0.81,0.45 -1.13,0.31 -2,0.62 -0.45,0.16 -0.34,0.16 -0.95,0.24 0.04,0.24 0.07,0.24 0.15,0.46 0.45,0.03 0.29,0.04 0.85,0.02 -1.26,0.69 -4.23,0.03 -4.77,1.13 0.45,-0.06 0.58,-0.08 0.91,-0.19 0.2,-0.07 0.05,-0.12 0.61,-0.17 1.73,-0.14 -0.5,0.72 -1.44,1.71 0,0.45 -0.04,0.15 0.19,0.26 0.63,-0.76 1.83,-0.76 2.44,-1.38 0.86,-0.88 1.36,-0.37 0.78,0.44 -0.18,0.26 -0.42,0.36 -0.76,0.53 -0.76,0.38 -1.16,0.58 -2.03,0.85l0 0.26 0.46 0c2.53,-0.51 1.25,-0.4 2.31,-0.61 0,1.01 -0.61,1.48 -0.46,2.52 0.91,-0.19 1.54,-0.78 2.2,-1.19 0.16,-0.1 0.21,-0.13 0.37,-0.22 0.69,-0.39 3.73,-2.25 4.19,-2.32 0,0.5 -0.19,1.29 -0.38,1.78 -0.14,0.34 -0.02,0.63 -0.11,0.99 -0.07,0.31 -0.26,0.41 -0.28,0.79 0.65,-0.07 1.39,-0.64 1.89,-0.93 1.4,-0.83 3.06,-1.63 4.33,-2.51 0.78,-0.54 0.78,-0.35 0.91,-0.32 0.05,0.14 -0.18,1.05 -0.26,1.39 -0.08,0.34 -0.25,1.06 -0.25,1.42 0.82,-0.01 0.85,-0.13 1.82,-0.06l0.02 0.75c0.47,-0.07 0.18,0.02 0.56,-0.2l0.43 -0.28c0.32,-0.18 0.68,-0.33 1.04,-0.36 1.4,-0.13 1.61,0.36 1.85,-0.78 0.12,-0.55 0.04,-0.49 0.84,-0.57 0.44,-0.04 0.95,-0.07 1.58,-0.07 1.35,0.01 1.93,-0.15 3.11,0l-0.18 1.13c3.3,0 6.45,-0.36 9.69,-0.35 2.74,0.01 3.34,0.03 3.55,-0.95 0.2,-0.94 0.45,-1.65 0.45,-2.7 -0.79,-0.03 -4.55,0.3 -4.82,-0.01 -0.06,-0.07 0.45,-2.29 0.52,-2.59l0.46 -2.52c0.1,-0.74 0.74,-1.9 0.55,-2.55 -0.64,-0.03 -1.01,0.42 -1.4,0.69l-0.7 0.39c-0.41,-0.05 -0.4,-0.19 -0.88,-0.21 -0.01,-0 -0.96,0.04 -1.11,0.04 -0.72,0 -1.88,0.02 -2.48,0.08 -1.19,0.11 -2.02,0.92 -2.71,1.33 -0.53,0.32 -4.41,2.81 -5.06,2.9 -0.16,-0.66 0.68,-3.68 0.77,-4.78 -1.18,0.29 -3.94,2.29 -5.02,2.95 -0.43,0.26 -1.15,0.83 -1.8,0.9 0,-1.06 2.03,-0.78 4.14,-3.91 0.57,-0.85 2.96,-1.5 3.73,-4.15 0.3,-1.05 0.49,-1.53 1.11,-2.49 0.5,-0.77 1.17,-1.57 0.67,-2.45 -0.35,-0.61 -2.03,-1.14 -3.05,-1.4 -0.53,-0.14 -0.88,-0.14 -1.37,-0.26 -0.62,-0.16 -1.79,-0.74 -2.33,-0.77 -1.71,-0.1 -1.98,1.59 -0.92,2.78 1.45,1.62 1.34,0.18 0.17,1.98 -0.15,0.23 -0.37,0.51 -0.46,0.7 -0.63,-0.24 -0.87,-0.5 -1.44,-0.83 -0.76,-0.44 -0.71,-0.23 -1.11,-0.94 -1.1,-1.9 -0.3,0.05 -0.79,-2.51 -0.25,-1.29 -1.07,-2 -1.12,-2.49 -0.13,-1.36 0.78,-1.65 0.78,-2.7 2.18,-0.82 1.28,-2.19 1.08,-3.47 -0.09,-0.58 -0.65,-1.29 -1.37,-1.57 -1.02,-0.39 -2.15,-0.33 -2.81,0.16 -0.66,0.5 -0.68,1.07 -0.97,1.8 -0.26,0.66 -0.67,1.02 -1.09,1.64 -1.11,1.65 -0.62,3.51 -1.14,3.93 -0.3,-0.21 -1.69,-2.42 -1.68,-2.83 0.01,-0.34 0.39,-0.52 0.54,-0.9 0.48,-1.17 1.52,-0.39 2.33,-1.21 0.31,-0.31 0.47,-0.54 0.39,-0.96l-1.73 -2.75c-0.39,-0.4 -1.47,-1.06 -2.85,-0.66 -1.09,0.31 -1.25,1.08 -1.52,1.67 -0.32,0.7 -0.82,1.08 -1.62,1.5 -0.77,0.07 -1.24,-0.06 -1.89,0.16 -1.52,0.52 -0.85,1.95 -1.95,2.43 -0.2,-0.14 -0.58,-1.4 -1.76,-2.45 -0.79,-0.7 -1.83,-1.22 -3.37,-1.58 -0.75,-0.17 -1.6,-0.31 -2.56,-0.3 -1.9,0.02 -3.57,0.3 -5.25,0.51 -1.33,0.17 -0.93,0.34 -0.9,0.97 -1.47,-0.44 -2.45,-1.95 -6.53,-0.99 -1.01,0.24 -1.83,0.84 -2.34,1.37 -0.56,0.58 -1.17,1.16 -1.43,1.8l-0.31 0c-0.26,-0.58 -1.85,-1.62 -2.74,-1.93 -2.06,-0.72 -4.7,-1.04 -7.35,-0.47 -0.72,0.15 -1.46,0.41 -2.21,0.31 -1.02,-0.14 -3.96,0.18 -5.55,0.18 -2.4,0 -2.09,0.23 -2.14,1.39 -0.02,0.42 -0.12,0.4 -0.16,0.78 -0.06,0.67 -0.07,0.98 -0.22,1.61 -0.13,0.52 -0.31,1.05 -0.38,1.52 -0.23,1.56 -0.84,3.02 -1.2,4.53 -0.17,0.72 0.09,1.14 -0.86,1.19 -0.28,-0.44 -0.1,-1.34 0.03,-1.75 0.13,-0.4 0.11,-0.4 0.11,-0.79 -0.01,-1.07 0.28,-2.37 0.38,-3.45l0.15 -2.7c0,-0.38 0.14,-0.61 0.12,-0.85 -0.11,-1.51 0.23,-1.32 -2.42,-1.22 -0.58,0.02 -0.9,0.06 -1.54,0.08 -0.83,0.03 -0.58,0.08 -1.29,0.15l-9.32 0.37c-2.68,-0.02 -1.37,0.23 -4.5,-0.07 -1.5,-0.14 -2.81,0.17 -4.47,-0.08l-5.64 -0.29c-0.05,0.47 -0.29,0.88 -0.22,1.35 0.06,0.46 0.07,0.93 0.07,1.43l-0.36 10.3c-0.38,1.62 -0.06,1.28 -0.12,2.03 -0.03,0.38 -0.32,0.35 0.1,0.48 0.21,0.07 1.82,-0.05 2.38,-0.05 1.83,0 3.33,0.09 5.23,0.09 1.51,-0 3.43,-0.17 4.91,-0.18 0.55,0.59 0.28,0.97 0.77,1.39 0.74,-0.31 1.04,-1.17 1.95,-1.42l4.04 -0.15c1.73,-0.05 6.82,-0.16 8.25,-0.09 -0.25,0.46 -1.43,0.98 -1.97,1.29l-2 1.22c-0.53,0.27 -0.65,0.31 -0.79,0.77l-0.69 2.99c-0.14,0.68 -1.09,4.18 -0.78,4.57 0.17,0.22 -0.06,0.2 1.64,0.07 0.52,-0.04 0.16,-0.03 0.69,-0.11 1.03,-0.14 2.82,-0.08 3.49,-0.29l0.25 -1.16c0.48,-1.51 -0.2,-1.08 2.98,-1.19 0.39,-0.01 1.71,-0.28 2.02,-0.08 0.24,0.35 -0.72,2.71 -0.79,3.21 0.64,-0.14 1.47,-0.67 1.86,-0.95 1.3,-0.94 1.71,-1.3 3.06,-1.31 1.71,-0.01 3.13,-0.16 5.13,-0.11l-0.31 1.12c1.14,0.21 8.53,-0.24 10.56,-0.23 1.03,0 1.65,-0.09 2.76,-0.09 0.92,0 1.81,-0.01 2.71,0.03 0.38,0.02 -0.07,0.03 0.57,-0 3.98,-0.2 2.95,-0.05 2.87,0.66 0.88,-0.04 1.2,-0.48 1.74,-0.84 1.71,-1.13 1.6,-1.26 3.95,-1.33 0.98,-0.03 2.13,0 3.13,0 0.02,0.04 0.37,0.71 0.38,0.72 0.15,0.39 -0.11,0.45 -0.12,0.84 0.28,0.06 0.4,-0.01 0.44,0.26 0.02,0.19 -0.05,0.16 -0.23,0.28 -0.19,0.13 -0.59,0.28 -0.73,0.47 -0.27,0.37 0.11,0.26 -0.37,0.66 -0.36,0.3 -0.41,0.16 -0.34,0.68 1.21,-0.04 2.49,-0.79 2.92,-0.96 0.65,0.74 -0.79,0.31 -0.92,1.22 0.86,-0.01 0.86,-0.23 1.54,-0.43 -0.01,0.35 -0.4,0.84 -0.7,0.99 -0.38,0.19 -0.42,0.12 -0.98,0.15 -2.18,0.13 -2.51,1.31 -3.55,1.47l0 0.26c1.01,-0.01 0.84,-0.25 1.36,-0.62 0.36,-0.26 0.72,-0.54 1.29,-0.66 0.54,-0.11 1.37,-0.41 1.93,-0.25 0.55,0.17 -0.19,0.5 -0.27,1.01 0.7,-0.16 0.59,-0.26 1.69,-0.26 -0.6,0.5 -1.66,0.51 -1.69,1.22 0.82,-0.11 1.11,-0.42 1.65,-0.72 0.56,-0.3 0.98,-0.51 1.37,-0.88l1.23 0.03c-0.34,0.82 -1.36,0.88 -2.29,1.37 -0.59,0.31 -1.76,1.01 -1.96,1.5 0.38,-0.09 0.12,-0.06 0.61,0 0.07,-0.48 0.76,-0.78 1.24,-1.07l0.77 -0.31c0.47,-0.19 0.32,-0.27 0.91,-0.36 0.01,0.33 0.11,0.77 0.46,0.96l0 -1.13c0.25,-0.09 0.41,-0.17 0.7,-0.3l0.35 -0.15c0.22,-0.07 -0.27,-0.02 0.34,-0.08l-0.46 0.49c-0.09,0.15 -0.13,0.25 0.4,0.17 0.4,-0.06 0.47,-0.27 0.89,-0.4 0.22,0.2 0.17,0.29 0.72,0.35z"/>
   <path class="fil1" d="M92.71 21.26c-0.45,0.2 -0.14,0.16 -0.73,0.19l0.05 0.35c-1.01,0.02 -1.13,0.11 -1.87,0.3 -0.67,0.18 -1.73,0.51 -2.51,0.49 -0.34,-0.01 -0.76,-0.07 -0.95,-0.17 -0.38,-0.19 -0.9,-1.62 -1.44,-2.4l-0.94 -1.47c-0.19,-0.32 -0.46,-0.58 -0.68,-0.92 -0.5,-0.76 -0.57,-1.41 -0.24,-2.22l0.69 -1.53c0.06,-0.07 0.39,-0.29 0.49,-0.4 0.64,-0.68 0.6,-0.89 2.13,-1.39 1.17,-0.39 2.12,-0.35 3.35,-0.45 0.08,-0.01 0.23,-0.03 0.42,-0.04 0.39,0.3 1.01,0.81 1.12,1.19 0.2,0.69 -0.04,1.13 -0.03,1.19 0.02,0.43 0.14,0.21 0.37,0.27 -0,0.44 -0.27,0.56 -0.04,0.88 1.31,1.83 1.04,0.42 1.04,2.46 0.93,0.13 1.6,0.7 1.61,0.74 -0.09,0.65 -0.74,0.71 -0.76,1.18 -0.01,0.38 0.69,0.65 0.83,1.03l0.15 0c-0.55,0.1 -0.36,0.03 -0.46,0.43 0.54,0.1 0.22,-0.04 0.61,0.09l0.03 0.52c-1.47,0.42 -0.27,0.22 -2.95,0.22 0.24,-0.32 -0.35,0.18 0.15,-0.13 0.31,-0.19 0.34,-0.11 0.54,-0.41zm-6.23 -10.97c0.21,0.13 0.11,-0.02 0.15,0.26 0.48,-0.1 0.91,-0.08 1.17,0.33 0.14,0.23 -0.01,-0.21 0.06,0.19 -0.57,-0.01 -0.84,-0.17 -1.31,-0.17 -0.31,0 -0.34,0.13 -0.61,0.22l-2.15 1.21c-0.29,0.24 -0.41,0.35 -0.7,0.65 -1.4,1.42 -1.75,3.45 -1.34,5.08 0.04,0.15 0.12,0.24 0.12,0.48 -0.14,-0.09 -0.31,-0.15 -0.5,-0.24 -1.49,-0.72 -1.46,-1.05 -1.09,-2.06 0.14,-0.38 0.04,-0.26 0.47,-0.5 1.72,-0.94 -1.22,-3.1 2.43,-3.24 0.42,-0.54 1.4,-1.31 1.46,-1.82 -1.28,0.17 -0.92,0.22 -1.5,0.67 -0.33,0.25 -0.93,0.5 -1.27,0.75 -1.14,0.84 -0.63,0.36 -1.43,0.68l-0.96 0.5c-0.2,0.1 -0.19,0.09 -0.4,0.21 -1.09,0.58 -2.03,0.82 -1.83,1.81 0.13,0.65 -0.08,1.15 0.7,1.63 0.44,0.27 0.7,0.34 0.7,0.78 0,0.64 -0.63,0.36 0.24,2.57 0.12,0.31 0.17,0.3 0.31,0.53l1.1 2.18c0.42,0.93 1.52,1.94 2.69,2.65 2.18,1.32 6.26,-0.45 6.89,-0.41 -0.2,0.46 -0.74,0.27 -0.77,1 0.57,-0.09 0.22,0.01 0.64,-0.21 0.23,-0.12 0.29,-0.14 0.43,-0.27 0.55,-0.5 0.58,-0.34 1.28,-0.84 0.43,-0.31 0.93,-0.56 1.26,-0.9 -0.55,0.09 -0.24,0.02 -0.59,0.15 -1.69,0.63 -1.49,0.92 -2.41,-0.15 -0.38,0.04 -0.37,0.03 -0.61,0.07 -0.64,0.09 -0.26,0.04 -0.57,0.13 -0.9,0.26 -2.7,0.27 -3.3,-0.1 -1.15,-0.71 -0.59,-1.78 -0.59,-2.61 0.35,0.09 0.66,0.34 0.83,0.58 0.07,0.1 0.13,0.27 0.21,0.39 0.19,0.28 0.21,0.2 0.43,0.37 0.42,0.33 0.19,0.43 1.21,0.45 1.37,0.03 1.37,-0.11 2.47,-0.24 0.51,-0.06 0.43,-0.05 0.81,-0.18 1.5,-0.54 4.32,0.1 4.96,-0.58 0,0.74 -0.44,1.48 -0.38,2.26 0.29,-0.06 0.13,-0.01 0.33,-0.1l0.74 -0.46c0.46,-0.31 2.46,-2.5 2.46,-2.78 0,-0.13 -0.47,-0.53 -0.57,-1.22 -0.05,-0.37 -0.22,-0.17 0.03,-0.3 0.47,-0.42 0.59,0.99 0.62,1.09 0.6,-0.17 0.84,-0.23 1.19,-0.58l0.78 -0.87c0.65,-0.63 1.32,-0.99 1.34,-1.85 0.01,-0.68 0.03,-0.57 0.57,-0.98 0.64,-0.48 1.14,-2.75 0.58,-3.32 -0.45,-0.3 -1.26,-0.45 -1.92,-0.56 -0,0.34 -0.13,0.59 -0.23,0.82 -0.71,0.03 -0.8,-0.04 -1.38,-0.17 0.34,-0.18 -0.03,-0.04 0.38,-0.15 0.03,-0.01 0.26,-0.03 0.43,-0.07l0.14 -0.48c-0.47,-0.15 -0.66,-0.15 -0.99,-0.33 -0.73,-0.41 -0.3,-0.1 -1.03,-0.28 -0.14,0.14 -0.01,0.49 0.1,0.65 0.21,0.29 0.6,0.31 0.82,0.57 -0.29,-0.06 -0.36,-0.09 -0.57,-0.11 -0.53,-0.04 -0.94,0.12 -1.06,-0.62 -0.07,-0.39 0.03,-0.59 -0.6,-0.7 -0.13,1.07 0.22,1.53 1.17,2.2 0.45,0.32 1.15,0.58 1.72,0.84 -0.11,0.43 -0.27,0.13 -0.27,0.56 0.58,0.31 0.91,0.56 2,0.61 -0.3,0.25 -0.25,0.05 -0.08,0.35 -0.85,0.1 -1.45,0.13 -2.31,-0.02 -0.45,-0.07 -0.31,-0.1 -0.92,-0.16 0.18,0.58 1.16,0.73 1.23,1.13 -0.68,-0.09 -1.42,-0.24 -2.15,-0.26 -0.5,0.42 -0.81,0.74 -0.58,1.29 0.14,0.35 -0.16,0.33 0.28,0.27l0 0.52c-0.52,-0.13 -0.97,-1.06 -1.3,-1.34l-0.24 -0.22c0.28,-0.12 0.21,0.17 0.21,-0.2 -0,-0.48 -2.26,-0.34 -2.82,-1.06l-0.26 -0.78c-0.24,-0.14 -0.04,0.03 -0.22,-0.13 -0.32,-0.3 -0.27,-0.82 -0.4,-1.06 -0.94,-1.68 0.63,-2.23 -2.16,-3.47 -0.43,-0.19 -0.69,-0.22 -1.27,-0.24 0.25,-0.69 0.85,0.04 1.15,-0.56 -1.28,0.02 -2.85,0.05 -3.61,0.3z"/>
   <path class="fil2" d="M46.43 11.12c0,-0.25 0.05,-1.1 0.11,-1.35 0.21,-0.93 1.82,0.13 2.13,0.6 1.07,1.61 0.26,1.09 0.24,1.09 -0.1,1 0.1,1.31 -0.37,2.15 -0.06,0.11 -0.18,0.31 -0.29,0.45 -0.34,0.42 -1.06,0.79 -1.99,0.79l0.15 -3.73zm-4.92 -7.03c-0.34,1.05 0.36,2.07 0.11,3.2 -0.17,0.75 0,0.92 0.05,1.57 0.04,0.56 -0,1.17 -0,1.74 0,1.16 -0,2.31 0,3.47 0,0.65 -0.16,1.09 -0.16,1.65 -0,0.78 0.19,0.74 -0.15,1.56 0.56,0.12 0.31,0.13 1.03,0.21 0.28,0.03 0.88,0.05 1.32,0.04 1.97,-0.04 2.72,-0.02 4.46,-0.66 1.79,-0.66 2.73,-1.98 3.37,-3.14 0.72,-1.32 0.63,-3.15 0.6,-4.7 -0.03,-1.35 -0.77,-2.71 -2.06,-3.88 -0.94,-0.85 -2.01,-1.17 -3.55,-1.38 -2.3,-0.31 -1.3,-0.03 -3.75,0.15 -0.44,0.03 -0.82,0.1 -1.25,0.16z"/>
   <path class="fil2" d="M69.8 11.64c-0.7,-0.21 -0.31,-0.58 -0.3,-1.13 0.01,-1.09 -0.38,-1.95 0.54,-1.89 0.28,0.02 0.64,0.14 0.82,0.25 1.07,0.69 0.97,2.59 -1.06,2.77zm-5.54 -8.25l0.46 6.6c0,0.73 -0.15,1.14 -0.15,1.91 0,0.9 0.18,1.49 0.15,2.43l0 2.34c1.63,0.03 2.99,-0.05 4.31,-0.09 0,-0.57 0.12,-0.87 0.16,-1.31 0.04,-0.45 -0.16,-0.84 -0.16,-1.39l0.08 0.13c0.01,0.02 0.03,0.05 0.04,0.07 0.01,0.02 0.02,0.05 0.03,0.07 0.01,0.02 0.02,0.05 0.03,0.08l0.1 0.22c0.01,0.02 0.02,0.05 0.04,0.07l0.31 -0.81c0.09,0.6 0.65,2.07 1.03,2.63 0.24,0.35 0.34,0.44 0.5,0.84 0.46,-0.07 2.76,-1.25 3.18,-1.5l-1.21 -1.69c-1.32,-1.25 -2.51,-1 -0.91,-2.72 0.46,-0.5 0.36,-0.71 0.27,-1.32 -0.16,-1.09 0.42,-1.88 2.51,-1.88 0,-2.62 -1.01,-5.29 -6.46,-5.3 -1.19,-0 -1.42,0.12 -2.32,0.17 -0.72,0.04 -1.98,0.04 -1.98,0.44z"/>
   <path class="fil2" d="M56.73 11.2c0,-0.5 0.25,-2.17 1.54,-2.17 2.52,0 1.56,5.3 -0.15,5.3 -0.65,0 -0.66,-0.38 -0.88,-0.72 -0.53,-0.82 -0.5,-1.47 -0.5,-2.41zm-3.69 -2.69c0,2.59 -0.36,4.48 1.21,6.87 0.63,0.96 1.78,2.21 4.09,1.94 1.78,-0.21 3.01,-1.38 3.67,-2.28 0.47,-0.63 1.49,-2.91 1.49,-3.59l0 -3.13c0,-1.46 -1.01,-4.18 -3.35,-5.14 -0.25,-0.1 -0.31,-0.1 -0.61,-0.18 -0.78,-0.2 0.16,-0.15 -1.57,-0.15 -0.94,0 -1.76,0.47 -2.28,0.8 -1.75,1.13 -2.64,3.27 -2.64,4.85z"/>
   <path class="fil2" d="M2.15 16.15l-0.19 2.08c6.73,0.08 4.53,-0.03 5.07,-1.5 0.2,-0.54 0.2,-0.73 0.2,-1.37l2.46 0 0.36 -1.54c0.19,-0.5 0.82,-0.92 -0.75,-0.7 -0.59,0.08 -0.96,0.06 -1.61,0.06 -0.25,-0.42 0.31,-1.22 0.31,-1.91 0,-0.88 -0.47,-0.87 1.38,-0.87 0.55,0 0.68,0.09 1.38,0.09 0.08,-0.19 0.23,-0.47 0.27,-0.63l0.39 -2.12c0.1,-0.38 0.1,-0.93 0.22,-1.44 0.26,-1.17 0.35,-1.11 -1.19,-1.11l-6.56 -0.14c-0.86,-0.09 -1.21,-0.55 -1.32,1.01 -0.08,1.08 -0.02,3.64 -0.18,4.21l-0.24 5.86z"/>
   <path class="fil2" d="M13.99 15.72c0.01,-0.37 0.2,-0.52 0.34,-0.84l1.04 -2.37 0.27 0.28c0.47,0.55 0.27,0.5 0.39,1.08 0.11,0.53 0.26,0.89 0.26,1.59 -1.16,0.1 -0.59,0.26 -2.31,0.26zm-1.08 2.43c0.23,-0.38 0.31,-0.65 0.31,-1.13 0.34,-0.1 0.37,-0.11 0.61,-0.26 0.04,0.42 0.26,1.04 0.31,1.48 0.91,-0.14 1.17,-0.96 2.31,-1.13 0.25,0.34 -0.21,0.96 0.92,0.96 0.43,0 0.56,-0.09 0.92,-0.09l2.92 0 -1.23 -10.5c-0.02,-0.26 0.02,-0.53 0,-0.79 -0.04,-0.57 -0.16,-0.51 -0.16,-1.56 -6.05,0 -4.84,0.03 -5.25,1.38l-0.7 2.39c-0.09,0.19 -0.18,0.23 -0.27,0.45 -0.15,0.36 -0.09,0.74 -0.23,1.09 -0.17,0.43 -0.24,0.57 -0.33,1.03 -0.15,0.78 -1.12,2.96 -1.48,3.94 -0.13,0.36 -0.14,0.64 -0.25,0.99 -0.1,0.32 -0.3,0.53 -0.44,0.97 -0.37,1.15 -0.48,0.79 2.02,0.79z"/>
   <path class="fil2" d="M35.67 14.76c-0.32,0.37 -1.84,0.51 -1.88,0.51 -0.82,-0.03 -0.23,-0.65 -0.08,-1 0.3,-0.69 0.5,-1.84 1.19,-2.28l0.77 2.78zm-1.08 -10.36l-0.92 0.03c-0.01,1.36 -0.71,3.5 -0.93,5.12l-1.91 6.56c-0.15,0.53 -0.54,1.06 -0.54,1.61 1.26,0 1.1,0.05 2.15,-0.09 0.29,-0.48 0.03,-1 0.92,-1.22l0.25 1.31c0.83,-0.12 1.04,-0.96 2.21,-1.13 0.53,1.44 -0.3,0.85 2.77,0.87 1,0.01 1.21,0.06 1.9,-0.14 0.04,-0.11 -0.03,-0.46 -0.04,-0.72 -0.04,-0.95 -0.3,0.01 -0.31,-1.57l-0.62 -4.25c-0.18,-0.6 -0.32,-0.82 -0.31,-1.56l-0.98 -4.92 -3.64 0.12z"/>
   <path class="fil3" d="M24.9 21.8l0.46 0c-0.07,0.48 -0.38,0.23 -0.46,0.78l-0.31 0c0,-0.68 0.1,-0.35 0.31,-0.78zm0 0c-0.98,0.37 -0.81,0.74 -1,1.52 -0.15,0.62 -0.32,1.25 -0.48,1.9l-0.75 3.83c4.09,-0.07 3.67,0.2 3.98,-0.88 0.09,-0.31 0.18,-0.54 0.26,-0.9 0.17,-0.83 1.06,-5.29 1.45,-5.44 0.02,-0.01 3.3,-0.38 4.03,0.25 0.79,0.67 0.1,1.57 -0.98,1.92 -0.97,0.31 -1.76,0.21 -2.67,0.35 -0.13,0.24 -0.51,1.94 -0.46,2.13 3.42,0 5.2,-0.28 7.11,-1.45 0.62,-0.38 1.41,-1.2 1.67,-1.75 0.28,-0.61 0.32,-1.77 -0.01,-2.44 -0.28,-0.56 -1.35,-1.18 -2.28,-1.39 -0.95,-0.21 -5.66,-0.2 -6.43,0.13l-2.32 1.47c-0.48,0.27 -0.78,0.48 -1.11,0.76z"/>
   <path class="fil0" d="M87.48 21.1c0.88,0.16 0.38,0.89 0.26,1.01l-0.51 -0.09c-0.12,-0.53 0.19,-0.48 0.26,-0.92zm1.64 0.93l-0.56 -0.07c0.12,-0.72 0.12,-0.9 0.66,-1.03 0.7,1.01 -0.1,1.02 -0.1,1.1zm0.97 -0.75c0,-0.35 0.53,-0.96 0.91,-0.51 0.15,0.18 0.1,0.49 -0.02,0.66 -0.15,0.21 -0.23,0.25 -0.69,0.25 -0.22,-0.2 -0.2,-0.03 -0.2,-0.41zm3.27 -1.63c0.33,0.1 0.54,0.39 0.57,0.63 -1.34,-0.35 -1.26,-0.74 -0.68,-0.66 0.03,0 0.08,0.02 0.11,0.03zm-2.66 -5.06c0,-0.17 0.16,-0.46 0.23,-0.61 0.54,0.29 0.02,0.5 0.37,1.5 0.04,0.1 0.12,0.27 0.16,0.33l0.54 1.47c-0.62,-0.18 -0.74,-0.17 -0.93,-0.64 -0.51,-1.25 -0.37,-0.75 -0.37,-2.05zm-4.31 -1.22c0,0.43 -0.97,0.66 -0.97,-0.35 0.7,-0.01 0.97,-0.14 0.97,0.26l0 0.09zm0.35 -0.2c-0.22,-0.35 -0.3,-0.47 0.11,-0.74 0.85,0.19 1.16,0.71 0.72,1.26 -0.52,-0.08 -0.64,-0.22 -0.83,-0.52zm1.14 -0.91l1.28 -0.03c0.05,0.43 0.37,0.97 0.05,1.39 -0.92,0.12 -1.49,-0.87 -1.34,-1.36zm2.05 -0.11c0.68,0 0.88,0.31 1.12,0.76 0.15,0.29 0.08,0.23 -0.5,0.72 -0.74,-0.2 -0.66,-0.26 -0.85,-0.74 -0.11,-0.27 -0.47,-0.74 0.24,-0.74zm2.04 9.29c-0.22,-0.26 -0.34,-0.61 -0.05,-0.87 0.12,-0.11 0.31,-0.15 0.32,-0.15 0.39,0.15 0.29,0.11 0.61,0.32l0.61 0.01 0.31 -0.26c0.63,0.17 0.67,0.48 0.31,0.88 -0.16,0.32 -0.02,0.23 -0.62,0.25 -0.09,-0.46 0.11,-0.09 -0.27,-0.28l-0.34 -0.15 -0.17 0.07c-0.21,0.29 -0.23,0.22 -0.54,0.41 -0.49,0.3 0.09,-0.19 -0.15,0.13 2.67,0 1.48,0.2 2.95,-0.22l-0.03 -0.52c-0.39,-0.13 -0.07,0.01 -0.61,-0.09 0.1,-0.4 -0.09,-0.34 0.46,-0.43l-0.15 0c-0.15,-0.39 -0.85,-0.66 -0.83,-1.03 0.01,-0.47 0.66,-0.53 0.76,-1.18 -0.02,-0.04 -0.69,-0.61 -1.61,-0.74 0,-2.04 0.27,-0.63 -1.04,-2.46 -0.23,-0.33 0.03,-0.44 0.04,-0.88 -0.23,-0.05 -0.34,0.16 -0.37,-0.27 -0,-0.06 0.24,-0.51 0.03,-1.19 -0.11,-0.38 -0.73,-0.89 -1.12,-1.19 -0.19,0.01 -0.34,0.04 -0.42,0.04 -1.24,0.1 -2.18,0.06 -3.35,0.45 -1.53,0.5 -1.49,0.72 -2.13,1.39 -0.1,0.11 -0.43,0.33 -0.49,0.4l-0.69 1.53c-0.34,0.81 -0.27,1.46 0.24,2.22 0.22,0.33 0.49,0.6 0.68,0.92l0.94 1.47c0.54,0.79 1.06,2.21 1.44,2.4 0.19,0.09 0.61,0.16 0.95,0.17 0.79,0.02 1.84,-0.31 2.51,-0.49 0.75,-0.19 0.86,-0.28 1.87,-0.3l-0.05 -0.35z"/>
   <path class="fil3" d="M62.51 27.35c0.3,-0.19 0.2,-0.29 0.37,-0.69 0.54,0.08 0.5,0.1 0.59,0.43 0.89,-0.3 4.62,-2.73 5.68,-3.32 0.63,-0.35 1.46,-0.81 1.88,-1.21 -0.18,-0.12 -0.15,0.19 -0.15,-0.16l0.38 -0.22c0.01,-0.03 0.06,-0.03 0.09,-0.04 0.56,0 0.15,-0.02 0.31,0.1 0.45,-0.2 0.64,-0.45 1.23,-0.54 0,0.55 -0.17,1.85 -0.38,2.39 -0.45,0.09 -0.75,0.11 -1.3,0.12 -0.25,0.01 -0.54,-0 -0.78,0.01l-0.69 0.07 0.85 0.01c-0.44,0.22 -0.9,0.49 -1.23,0.26l-2.15 1.23 0.92 -0.01c-0.22,0.3 0.18,0.11 -0.23,0.3 -0.4,0.19 -0.1,-0.16 -0.53,0.29l0.3 0.1c5.19,0 4.15,-0.56 4.15,1.09 0.65,0.08 2.26,0.03 3.09,-0.03 1.22,-0.09 0.71,-0.23 1.11,-1.9l0.61 -3.04c0.11,-0.42 0.23,-0.99 0.27,-1.5 0.07,-0.92 0.61,-2.24 0.45,-3.13 -4.6,0.01 -3.14,0.27 -6.19,1.98l-4.69 2.9c-3.21,2.06 -3.76,1.33 -3.95,4.5z"/>
   <path class="fil2" d="M22.9 4.95c0,1.1 -0,2.2 0,3.3l-0.18 4.94c-0.08,0.39 -0.25,1.08 -0.29,1.49 -0.05,0.51 -0,1.13 0,1.65 0,0.69 -0.15,1.02 -0.15,1.65 0.77,-0.01 0.99,-0.09 2.77,-0.09 1.12,0 1.99,-0.08 2.92,-0.09 1.73,-0.01 1.58,0.19 1.8,-0.72 0.14,-0.6 0.92,-1.7 0.21,-1.7 -2.26,0 -3.33,1.3 -2.55,-1.7l0.52 -4.64c0.03,-0.18 0.03,-0.31 0.08,-0.49 0.25,-0.97 -0.07,-1.85 0.28,-3.06 0.1,-0.35 0.34,-0.57 -0.28,-0.73 -0.52,-0.13 -4.57,0.15 -5.12,0.2z"/>
   <path class="fil3" d="M93.17 25.36c0.04,-0.27 0,-0.19 0.23,-0.39 0.22,-0.18 0.1,-0.1 0.38,-0.22 0,0.51 0.17,0.5 -0.62,0.61zm6.3 -0.68l0.31 0.16c-0.24,0.18 -0.01,0.11 -0.46,0.17 -0.18,-0.09 -0.18,0.14 -0.13,-0.17 -1.13,0.39 -3.47,2.16 -4.3,2.62l-1.23 0.61c-0.78,0.26 -0.26,-0.47 -0.19,-0.72 0.1,-0.38 0.07,-0.57 0.15,-0.87 0.18,-0.7 0.32,-1.25 0.32,-1.99 -0.85,0.32 -2.65,1.54 -3.5,2.02l-1.71 1.03c-0.3,0.21 -0.5,0.38 -0.86,0.56l-3.49 2.02c-2.16,1.33 -1.43,0.89 -1.82,2.7 -0.07,0.34 -0.24,0.56 -0.31,0.92 0.51,-0.14 0.37,-0.09 0.62,-0.32 -0.56,0.03 -0.15,0.03 -0.31,-0.07 0.17,-0.41 0.06,-0.48 0.61,-0.69 0,0.43 0,0.36 -0.18,0.69 1.68,-0.57 5.22,-3.24 6.18,-3.39 0,0.89 -0.46,1.85 -0.46,2.69 0.16,-0.12 0.15,0.18 0.15,-0.26 0.27,0.07 0.5,0.1 0.77,0.17l-0.03 0.35c0.59,-0.2 0.99,-0.51 1.52,-0.81 0.78,-0.44 3.8,-2.41 4.35,-2.58 0,0.7 -0.05,1.17 -0.21,1.89 -0.14,0.59 -0.36,1.28 -0.4,1.85 0.26,-0.15 0.46,-0.14 1.08,-0.17l-0.18 0.35c0.63,-0.24 0.42,-0.6 0.52,-1.12 0.4,-2.15 0.31,-1.79 2.18,-3.1 1.33,-0.93 0.92,-0.83 1.21,-2.19 0.18,-0.85 0.46,-1.8 0.5,-2.71 -0.46,0.13 -0.42,0.11 -0.69,0.36z"/>
   <path class="fil3" d="M68.72 18.76l-0.92 0c0.07,-0.44 0.26,-0.43 1.08,-0.43 -0.01,0.34 0.04,0.2 -0.15,0.43zm-14.61 8.86c0.37,-0.14 0.16,-0.1 0.61,-0.17 0.2,0.23 0.14,0.09 0.15,0.43 -0.28,0.06 -0.06,0.04 -0.38,0.03 0.15,0.27 1.2,0.1 1.66,0.08 1.7,-0.08 4.41,0.01 5.65,-0.36l0.55 -2.54c0.11,-0.4 -0.02,-0.26 0.33,-0.53 1.13,-0.87 1.2,-0.52 1.73,-1.23 0.2,-0.17 -1.2,-0.81 -1.54,-0.91 -1.18,-0.35 -1.78,-0.19 -3.14,-0.26 -0,-0 -1.21,-0.83 0,-1.17 1.13,-0.16 5.38,-0.12 5.97,-0.28l3.03 -1.94c0.45,-0.09 0.57,-0.27 0.77,-0.52l-6.93 0.19c-3.72,0.12 -3.85,0.33 -5.42,1.27 -0.67,0.4 -0.98,0.72 -1.32,1.34 -0.6,1.09 0.02,2.59 1.8,3.13 0.94,0.28 1.99,0.27 3.11,0.42l0.03 0.91c-1.13,0.29 -1.12,0.28 -2.79,0.3 -1.01,0.01 -2.38,-0.07 -3.31,0.04 -0.4,0.38 -0.38,1.19 -0.54,1.78z"/>
   <path class="fil3" d="M56.73 19.18l-0.46 0.01c0.02,-0.39 -0.15,-0.34 0.45,-0.45 0.64,-0.12 0.68,-0.05 0.75,0.01l0.37 -0.15c-1.15,-0.03 -2.06,0.06 -3.27,0.06 -1.04,0 -2.23,0.04 -3.17,0.14 -1.37,0.15 -3.1,1.02 -3.72,1.71 -0.8,0.89 -0.91,2.22 -0.05,3.1 0.29,0.3 1.22,0.79 1.8,0.9 0.9,0.18 1.9,0.11 2.83,0.27 0.2,0.31 0.14,0.52 -0.13,0.75 -0.76,0.62 -2.48,0.43 -4.32,0.43 -2.27,-0.01 -1.9,-0.26 -2.41,1.5 -0.12,0.43 -0.35,0.65 0.13,0.74 0.56,0.11 5.82,-0.08 6.47,-0.14 2.66,-0.25 0.9,-1.95 2.27,-2.64 1.34,-0.34 2.41,0.53 2.16,-0.93 -0.07,-0.38 -0.86,-1.06 -1.25,-1.46 -0.4,-0.41 -1.59,-0.63 -2.64,-0.67 -1.84,-0.07 -2.07,-0.08 -1.65,-1.09 0.7,-0.16 3.05,-0.17 4,-0.17 0.48,-0.41 0.41,-0.55 0.83,-1.01 0.31,-0.34 0.7,-0.6 1.02,-0.91z"/>
   <path class="fil3" d="M42.89 28.22c0.05,-0.32 -0.17,-0.22 0.25,-0.31l0.67 -0.04c-0.21,0.44 -0.19,0.15 -0.92,0.35zm-1.69 -4.36c-0.34,-0.11 -0.2,0.01 -0.31,-0.25 0.78,-0.12 0.17,-0.21 1.23,-0.61 0.12,0.12 0.08,0.09 0.13,0.26 0.58,-0.2 1.01,-0.66 1.59,-0.8 0.88,-0.21 0.19,0.62 0.13,1.06l-0.27 1.07c-0.15,0.45 0.09,0.18 -0.24,0.29 -0.2,0.07 -1.2,0.03 -1.49,0.03 -0.78,-0 -0.8,-0.04 -1.22,0.18l0.31 0 -0.17 0.34c-0.79,-0.01 -0.44,0.05 -0.57,-0.13l-3.15 1.68c-0.43,0.38 -0.25,0.14 -0.03,0.27 0.01,0 4.98,-0.2 5.77,-0.17 0.12,0.86 -0.26,0.88 0,1.13 0.49,0.17 1.07,0 1.69,0 0.02,-0.44 0.49,-2.29 0.77,-2.61l2 0c0.32,-0.38 0.67,-1.1 0.1,-1.53 -0.43,-0.32 -0.46,-0.18 -0.74,-0.63 -0.62,-1.01 -0.62,-1.56 0.01,-2.63 0.37,-0.63 0.9,-0.85 1.4,-1.3l-0.46 -0.59c0.13,0 0.32,0.01 0.45,-0.01 0.32,-0.03 0.16,-0.02 0.32,-0.08 -4.49,0 -2.29,-0.13 -7.11,2.58 -5.95,3.36 -2.64,1.82 -5.37,3.74 -0.5,0.35 -0.82,0.55 -1.49,0.8 -0.8,0.31 -0.68,0.6 -0.84,1.27 -0.38,1.62 -0.77,1.56 3.16,-0.65 0.37,-0.21 0.4,-0.26 0.71,-0.47 0.25,-0.18 0.47,-0.28 0.75,-0.44 0.64,-0.37 2.48,-1.37 2.96,-1.82z"/>
   <path class="fil3" d="M106.86 32.74c-0.5,-0.1 -0.11,0.11 -0.46,-0.26 0.14,-0.09 0.36,-0.07 0.62,-0.09 -0.04,0.24 -0.01,0.19 -0.15,0.35zm-5.79 -1.19c0.32,0.14 0.08,-0.03 0.29,0.22 0.1,0.11 0.02,0.08 0.12,0.19 -0.59,0 -0.59,-0.03 -0.92,0.09 1.77,0 3.53,-0.13 5.38,-0.13 0.01,0.24 -0.12,0.96 -0.1,0.99 0.12,0.29 0.05,0.14 0.57,0.12 0.39,-0.01 0.67,-0.03 1.08,-0.03l0.65 -3.36c0.12,-0.57 0.35,-1 0.45,-1.57 0.09,-0.53 0.13,-1.2 0.36,-1.71 0.42,-0.95 2.26,-1.22 2.6,-2.28 0.21,-0.64 -1.09,-0.38 -2,-0.32 -1.47,0.09 -1.07,-0.02 -2.03,0.59 -1.1,0.69 -2.15,1.26 -3.22,1.91 -0.89,0.54 -1.69,1.21 -3.13,1.97l-3.19 1.92c-1.05,0.72 -0.64,1.16 -0.92,2.16 -0.07,0.26 -0.15,0.55 -0.17,0.87 0.94,-0.23 1.8,-0.98 2.58,-1.41 1.04,-0.58 2.83,-1.89 3.94,-2.46l3.08 -1.82c0.02,-0.01 0.06,-0.03 0.08,-0.04 0.22,-0.1 0.25,-0.11 0.47,-0.17 0,0.74 -0.21,1.86 -0.62,2.43 -2.82,-0.02 -2.44,0.11 -4.27,1.15l-1.06 0.7z"/>
   <path class="fil1" d="M77.8 29.61c0.16,-0.33 1.33,-0.73 1.68,-0.79 0.26,-0.05 0.46,-0.07 0.78,-0.08 -0.21,0.44 -1.16,0.55 -2.13,0.79 -0.07,0.02 -0.22,0.05 -0.33,0.07zm-0.31 3.3l0.61 -0.43c0.94,-0.98 3.17,-1.85 1.44,-1.71 -0.56,0.05 -0.41,0.1 -0.61,0.17 -0.33,0.11 -0.46,0.13 -0.91,0.19 0.54,-1.1 3.51,-0.44 4.77,-1.13 -0.55,0.02 -0.4,0 -0.85,-0.02 -0.81,-0.26 0.11,0.1 -0.59,-0.05 -0.39,-0.08 -0.27,-0.18 -0.33,-0.32 0.6,-0.01 0.36,0.02 0.77,-0.09 0.61,-0.07 0.5,-0.07 0.95,-0.24 0.86,-0.31 1.18,-0.17 2,-0.62 0.55,-0.3 0.28,-0.34 0.35,-0.49l0.14 0.03c0.2,0.01 0.19,0.05 0.44,-0.13 0.18,-0.14 0.34,-0.31 0.5,-0.42 -0.5,0.05 -0.74,0.15 -1.07,0.35 -0.02,0.01 -0.05,0.03 -0.07,0.05 -0.4,0.26 -0.03,0.13 -0.54,0.3 -0.92,0.31 -1.47,0.46 -2.62,0.39 0.1,-0.18 0.18,-0.33 0.28,-0.5 0.34,-0.57 0,-0.19 1.27,-0.49 0.47,-0.11 0.34,-0.12 0.75,-0.28 -0.2,-0.06 -0.31,-0.15 -0.5,-0.23 -0.27,-0.12 -0.44,-0.17 -0.73,-0.25 0.04,-0.31 0.02,-0.19 0.15,-0.39 -2.6,-0.85 -2.19,-1.3 -3.61,-2.08 -0.48,0.02 -1.44,0.38 -1.87,0.55 -0.27,0.11 -0.13,0 -0.33,0.17 -0.13,0.11 -0.23,0.39 -0.27,0.52 -0.29,0.86 -0.19,1.76 -0.68,2.41l-5.38 0.24c-0.24,0.46 0.5,0.45 1.03,0.83 0.51,0.37 0.35,0.57 0.55,1 0.01,0.01 0.02,0.04 0.04,0.06 0.65,0.08 3.34,-0.65 3.77,-0.91 -0.87,1.01 -3.23,1.08 -3.61,1.43 0.85,0.23 1.3,-0.11 2.15,-0.17 0.41,0.52 0.47,0.31 -0.08,0.74 1.5,0.14 0.91,0.42 1.15,0.74 0.11,0.15 0.41,0.33 0.57,0.46 0.31,0.26 0.19,0.28 0.97,0.32z"/>
   <path class="fil3" d="M113.31 23.98c0.32,0.21 0.17,0.19 0,0.59 -0.32,-0.09 -0.14,-0.06 -0.61,-0.09 0.28,-0.24 0.3,-0.13 0.49,-0.43 -0.53,0.18 -3.53,2.06 -3.64,2.38l-1.38 6.52c1.01,0.08 7.29,-0.29 8.84,-0.3 0,-0.75 0.31,-1.41 0.38,-2.13 -1.5,-0.19 -3.44,0.2 -5,0.04 0,-1.39 1.23,-5.33 1.23,-6.77l-0.31 0.19z"/>
   <path class="fil1" d="M82.45 5.56c-0.92,-0.11 -0.34,-0 -1.27,0.01 -0.7,0.01 -0.78,-0.06 -0.92,-0.36l-0.08 -0.52 0.54 -0.3 0.77 -0.03 0.46 -0.22c-0.63,-0.15 -0.72,-0.32 -1.39,-0.37 -0.59,-0.04 -1.42,0.06 -1.75,0.27 -0.73,0.46 -0.81,1.26 -1.12,1.71 -0.68,0.98 -2.52,3.15 0.02,3.23 -0.11,-0.25 -0.23,-0.11 -0.46,-0.52 0.57,-0.22 1.02,-0.31 1.58,-0.56 0.04,-0.83 -0.65,-1.29 -0.65,-2.21 0.84,0.15 0.1,0 1.02,0.47l0.99 0.48c0.84,0.4 1.71,0.63 2.96,0.39 0.73,-0.15 0.49,-0.68 0.49,-1.16 -0.64,-0.08 -0.54,-0 -1.19,-0.3z"/>
   <path class="fil0" d="M56.73 11.2c0,0.94 -0.03,1.59 0.5,2.41 0.22,0.34 0.24,0.72 0.88,0.72 1.71,0 2.67,-5.3 0.15,-5.3 -1.28,0 -1.54,1.67 -1.54,2.17z"/>
   <path class="fil0" d="M46.43 11.12l-0.15 3.73c0.93,0 1.65,-0.37 1.99,-0.79 0.11,-0.13 0.23,-0.34 0.29,-0.45 0.47,-0.84 0.27,-1.15 0.37,-2.15 0.02,-0.01 0.83,0.52 -0.24,-1.09 -0.31,-0.47 -1.92,-1.53 -2.13,-0.6 -0.06,0.24 -0.11,1.1 -0.11,1.35z"/>
   <path class="fil1" d="M73.11 12.33l0.15 0.13c1.1,-0 1.22,-0.11 2.08,-0.18 -0.19,-0.29 -1.76,-0.81 -1.15,-2.43 0.83,0.23 -0.03,0.14 1.49,0.89 0.97,0.48 0.81,0.37 2.43,0.37 0.41,-0.35 0.92,-0.61 0.92,-1.22 -2.07,0 -0.38,0.41 -1.85,0.61 -0.43,-0.16 -0.31,-0.07 -0.54,-0.39 0.95,-0.01 1.02,-0.12 1.08,-0.61 -0.53,-0.1 -1.31,-0.34 -1.54,-0 0.03,0.6 0.38,0.27 -0.23,0.43 -0.61,-0.33 0.05,-0.6 0.08,-1.04 -2.17,-0.85 -2.51,0.39 -2.53,1.44 -0.01,0.4 -0.11,0.63 -0.09,0.99 0.03,0.7 -0.3,0.27 -0.3,1z"/>
   <path class="fil1" d="M81.64 7.82c-0.13,0.5 0.94,2.13 1.31,2.56 1.02,-0.04 1.94,-0.42 2.61,-0.61 -0.11,-0.57 -0.17,-0.89 -0.48,-1.38 -0.21,-0.33 -0.55,-0.79 -0.83,-1.09 -0.78,0.11 -0.52,0.19 -1.09,0.32 -0.36,0.08 -1.05,0.09 -1.52,0.2z"/>
   <path class="fil1" d="M88.25 7.3c-0.17,0.32 -0.36,0.56 -0.38,0.95 -0.04,0.67 -0.01,0.74 0.22,1.21 0.07,0.14 1.39,-0.02 2.34,0.26 0.62,0.18 0.46,0.29 0.49,0.53 0.02,0.17 -0.05,-0 0.03,0.2 0.04,0.08 0.06,0.13 0.13,0.19 0.22,0.2 0.17,0.11 0.54,0.22 -0.06,-0.41 -0.58,-1.04 -0.67,-1.43 -0.1,-0.43 0.51,-0.93 0.13,-1.57 -0.45,-0.15 -0.59,-0.1 -0.99,-0.22 -0.3,-0.09 -0.45,-0.21 -0.74,-0.34 -0.54,-0.07 -0.45,-0.01 -0.5,-0.35l-0.61 0.35z"/>
   <path class="fil1" d="M77.95 8.99l0 0.35c3.06,0 0.88,1.54 1.27,2.34 0.15,0.3 0.46,0.84 1.03,0.79 0.51,-0.05 0.45,-0.44 0.65,-0.81 0.65,-1.17 1.45,-0.01 0.1,-1.4 -0.48,-0.49 -0.74,-1.17 -1.4,-1.29 -0.42,-0.08 -1.46,-0.06 -1.66,0.03z"/>
   <path class="fil0" d="M69.8 11.64c2.02,-0.18 2.12,-2.08 1.06,-2.77 -0.18,-0.11 -0.54,-0.23 -0.82,-0.25 -0.92,-0.06 -0.54,0.81 -0.54,1.89 -0,0.54 -0.39,0.92 0.3,1.13z"/>
   <path class="fil1" d="M76.49 15.02c0.33,-0.56 1.21,-1.11 1.46,-1.69 -0.83,-0.44 -0.44,-0.77 -1.51,-0.66 -0.77,0.08 -0.23,0.28 -1.58,0.33 -0.41,0.02 -0.47,-0.03 -0.67,0.08 -0.02,0.01 -0.05,0.04 -0.06,0.05l-0.02 0.12c0,0.02 0.02,0.05 0.03,0.06l1.55 1.25c0.13,0.09 0.24,0.14 0.38,0.22l0.25 0.14c0.02,0.01 0.07,0.04 0.09,0.05 0.02,0.01 0.06,0.03 0.09,0.05z"/>
   <path class="fil1" d="M90.1 4.34c0.07,0.96 0.39,1.64 1.59,1.96 1.34,0.36 1.91,-0.62 1.87,-0.82 -0.08,-0.41 -0.1,-0.15 -0.54,-0.42l-1.38 -0.46c-0.83,-0.07 -0.39,-0.08 -0.94,0.12l-0.29 -0.56 -0.31 -0.17 0 0.35z"/>
   <path class="fil0" d="M13.99 15.72c1.72,0 1.15,-0.16 2.31,-0.26 0,-0.7 -0.15,-1.05 -0.26,-1.59 -0.12,-0.58 0.08,-0.53 -0.39,-1.08l-0.27 -0.28 -1.04 2.37c-0.14,0.33 -0.33,0.48 -0.34,0.84z"/>
   <path class="fil0" d="M35.67 14.76l-0.77 -2.78c-0.68,0.44 -0.89,1.59 -1.19,2.28 -0.15,0.35 -0.74,0.97 0.08,1 0.04,0 1.56,-0.13 1.88,-0.51z"/>
   <path class="fil1" d="M82.72 1.74l0.3 0.09c-0.15,0.18 -0.29,0.49 -0.3,0.77l1.38 0.17c0,-0.44 -0.15,-0.53 -0.15,-1.04 0.45,-0.07 0.25,-0.02 0.61,-0.2 0.83,-0.34 1.54,0.42 1.48,-0.19 -0.07,-0.64 -2.9,-1.47 -3.33,0.39z"/>
   <path class="fil1" d="M78.3 32.74c-0.25,0.22 -0.13,-0.04 -0.19,0.35 0.42,0.02 0.33,0.01 0.61,0.09 0.87,-0.26 1.27,-0.47 2.03,-0.85 0.34,-0.17 0.58,-0.27 0.76,-0.53 0.58,-0.81 0.08,-1.32 -0.78,-0.44 -0.61,0.62 -1.81,0.62 -2.44,1.38z"/>
   <path class="fil1" d="M84.14 3.65c0.16,0.12 0.29,0.18 0.35,0.22 0.02,0.01 0.05,0.03 0.06,0.05 0.02,0.01 0.04,0.04 0.06,0.05 0.44,0.39 0.29,0.42 1.17,0.48 1.37,0.09 2.79,-1.09 -1.07,-1.3 -0.76,-0.01 -0.65,0.07 -0.58,0.5z"/>
   <path class="fil4" d="M82.72 1.74c-0.02,0.02 -0.05,0.03 -0.05,0.06l-0.08 0.13c-0.34,1 -0.38,0.35 -0.64,1.05 0.56,-0.04 0.16,-0.04 0.31,0.07 -0.2,0.23 -0.14,0.09 -0.15,0.43l0.46 0c0,-0.49 -0.12,-0.58 0.61,-0.69 0.02,0.51 0.38,0.68 0.96,0.87 -0.07,-0.43 -0.18,-0.51 0.58,-0.5 -0.03,-0.02 -0.07,-0.06 -0.08,-0.05l-0.37 -0.68c-0.12,-0.6 0.14,-0.5 0.3,-0.88 -0.37,0.17 -0.16,0.13 -0.61,0.2 0,0.51 0.15,0.61 0.15,1.04l-1.38 -0.17c0.01,-0.28 0.15,-0.59 0.3,-0.77l-0.3 -0.09z"/>
   <path class="fil1" d="M90.71 14.59c0,1.3 -0.14,0.8 0.37,2.05 0.19,0.47 0.31,0.47 0.93,0.64l-0.54 -1.47c-0.04,-0.06 -0.12,-0.22 -0.16,-0.33 -0.35,-1 0.16,-1.21 -0.37,-1.5 -0.08,0.15 -0.23,0.43 -0.23,0.61z"/>
   <path class="fil2" d="M89.23 13.64c0.32,-0.42 -0,-0.96 -0.05,-1.39l-1.28 0.03c-0.15,0.5 0.42,1.48 1.34,1.36z"/>
   <path class="fil2" d="M90.56 13.64c0.58,-0.49 0.65,-0.43 0.5,-0.72 -0.24,-0.44 -0.44,-0.76 -1.12,-0.76 -0.71,0 -0.35,0.47 -0.24,0.74 0.19,0.48 0.11,0.54 0.85,0.74z"/>
   <path class="fil0" d="M91.02 3.22c-0.24,0.34 -0.61,0.06 -0.61,0.96l0.29 0.56c0.55,-0.2 0.12,-0.19 0.94,-0.12l0.18 -0.17c-0.55,-0.08 -0.5,-0.05 -0.64,-0.35 -0.17,-0.08 -0.19,0.07 -0.19,-0.26l0.19 -0.17c0.18,-0 0.59,-0.03 0.64,-0.03 0.17,-0 0.21,0.02 0.61,0.02l-0.33 -0.25c-0.24,-0.2 0.13,-0.09 -0.58,-0.16 -0.45,-0.05 -0.07,-0.05 -0.49,-0.01z"/>
   <path class="fil1" d="M91.02 3.22c0.43,-0.03 0.04,-0.03 0.49,0.01 0.71,0.07 0.34,-0.04 0.58,0.16 0.48,0.02 0.15,-0.04 0.5,0.07 0.53,0.15 -0.26,-0.11 0.18,0.07 0.24,0.1 0.15,0.08 0.24,0.12 0.4,-0.19 -0.07,-0.73 -0.27,-0.8l-0.99 -0.13c-0.26,-0.03 -0.31,-0.03 -0.58,-0.03 -0.24,0.12 -0.44,-0.04 -0.46,0.52l0.31 0z"/>
   <path class="fil1" d="M85.79 2.95c0.05,0 0.28,0.02 0.31,0.02 0.41,-0.03 0.25,-0.03 0.38,-0.06 0.25,-0.46 -0.21,-0.61 -0.81,-0.82 -0.65,0 -1.33,-0.01 -0.86,0.45 0.33,0.32 0.58,0.11 0.97,0.42z"/>
   <path class="fil1" d="M86.02 27.05c0.43,0.12 0.63,0.1 0.69,0.48 0.5,-0.01 0.41,0.03 0.95,-0.33l1.28 -0.88c-0.64,0.08 -0.29,0.02 -0.74,0.23 -0.6,0.28 -0.84,0.28 -1.32,0.31 -0.73,0.05 -0.63,0.09 -0.86,0.19z"/>
   <path class="fil2" d="M87.59 13.69c0.45,-0.55 0.13,-1.07 -0.72,-1.26 -0.42,0.27 -0.34,0.4 -0.11,0.74 0.19,0.29 0.31,0.44 0.83,0.52z"/>
   <path class="fil4" d="M88.25 7.3l0.61 -0.35c0.05,0.34 -0.05,0.27 0.5,0.35 -0.39,-0.27 -0.29,-0.07 -0.35,-0.43l0.31 0c0,-0.2 0.02,-0.3 -0.05,-0.49l-0.26 -0.38 0 0.61c-0.46,-0.07 -0.34,0 -0.46,-0.26 -0.45,0.07 -0.25,0.04 -0.61,0.17 0.13,-0.28 0.19,-0.17 0.21,-0.33 0,-0 -0.06,-0.34 -0.06,-0.39l-0.31 0.89c0.24,0.19 0.03,0.11 0.46,0.17l0 0.43z"/>
   <path class="fil2" d="M91.98 21.45c0.59,-0.03 0.29,0.01 0.73,-0.19l0.17 -0.07c0.23,-0.13 0.04,0.01 0.23,-0.18l-0.25 -0.27c-0.32,-0.21 -0.22,-0.17 -0.61,-0.32 -0.01,0 -0.19,0.04 -0.32,0.15 -0.3,0.27 -0.17,0.62 0.05,0.87z"/>
   <path class="fil1" d="M88.1 5.8c0,0.05 0.06,0.38 0.06,0.39 -0.02,0.16 -0.08,0.05 -0.21,0.33 0.37,-0.14 0.16,-0.11 0.61,-0.17 0.12,0.26 -0,0.19 0.46,0.26l0 -0.61c-0.02,-0.09 -0.04,-0.3 -0.06,-0.37 -0.17,-0.5 0.03,-0.16 -0.32,-0.37 -0.22,0.42 -0.13,0.26 -0.54,0.54z"/>
   <path class="fil4" d="M91.63 4.6l1.38 0.46c-0.12,-0.12 -0.17,-0.17 -0.31,-0.28 0.37,-0.08 0.14,0.02 0.39,-0.21l0.23 -0.22 -0.46 -0.26c-0.07,0.16 -0.04,0.14 -0.15,0.26 -0.82,0 -1.01,-0.1 -1.54,-0.26 0.14,0.3 0.08,0.27 0.64,0.35l-0.18 0.17z"/>
   <path class="fil2" d="M90.1 21.28c0,0.38 -0.01,0.2 0.2,0.41 0.46,-0.01 0.54,-0.04 0.69,-0.25 0.12,-0.18 0.17,-0.48 0.02,-0.66 -0.38,-0.45 -0.91,0.16 -0.91,0.51z"/>
   <path class="fil2" d="M67.65 26.49l-0.3 -0.1c0.43,-0.45 0.13,-0.1 0.53,-0.29 0.41,-0.2 0.01,-0 0.23,-0.3l-0.92 0.01 -1.17 0.66c0.55,0.12 0.96,0.02 1.63,0.02z"/>
   <path class="fil1" d="M80.72 4.78l0 0.43c0.73,0.11 0.2,0.23 1.27,0.13 0.13,-0.01 0.15,-0.01 0.42,-0.04l0 -0.17 -0.12 -0.17 -0.81 0c-0.1,-0.13 -0.18,0.16 0,-0.26 -0.42,0.02 -0.42,0.04 -0.77,0.09z"/>
   <path class="fil2" d="M89.12 22.03c0,-0.08 0.8,-0.09 0.1,-1.1 -0.55,0.14 -0.55,0.31 -0.66,1.03l0.56 0.07z"/>
   <path class="fil1" d="M90.98 3.82c0.01,0.33 0.02,0.18 0.19,0.26 0.53,0.16 0.71,0.26 1.54,0.26 0.12,-0.12 0.08,-0.1 0.15,-0.26 -0.56,-0.21 -1.04,-0.46 -1.88,-0.26z"/>
   <path class="fil4" d="M77.8 29.61c0.11,-0.03 0.27,-0.06 0.33,-0.07 0.96,-0.24 1.92,-0.36 2.13,-0.79 -0.32,0.02 -0.52,0.03 -0.78,0.08 -0.35,0.06 -1.53,0.46 -1.68,0.79z"/>
   <path class="fil2" d="M88.71 32.65c-0.05,0.13 -0.12,0.26 -0.13,0.4l0.13 0.35c0.48,-0.22 0.55,-0.28 0.9,-0.49l0.03 -0.35c-0.27,-0.07 -0.5,-0.1 -0.77,-0.17 0,0.44 0,0.14 -0.15,0.26z"/>
   <path class="fil4" d="M90.56 2.76l-0 0.45 -0.65 0.18c0.04,0.21 0.02,0.32 0.03,0.53 0,0.06 0,0.2 0.02,0.25 0.06,0.17 0.04,0.09 0.14,0.18l0 -0.35 0.31 0.17c0,-0.89 0.37,-0.61 0.61,-0.96l-0.31 0c0.02,-0.56 0.22,-0.4 0.46,-0.52 -0.34,0.02 -0.42,0.03 -0.62,0.07z"/>
   <path class="fil4" d="M80.26 5.21c0.14,0.3 0.21,0.36 0.92,0.36 0.93,-0.01 0.35,-0.12 1.27,-0.01 0.05,-0.13 0.07,-0.12 0.12,-0.17 0.03,-0.03 0.04,-0 0.15,-0.17l-0.31 -0.09 0 0.17c-0.27,0.03 -0.29,0.03 -0.42,0.04 -1.07,0.1 -0.54,-0.02 -1.27,-0.13l0 -0.43 -0.11 0.11c-0.01,0.01 -0.04,0.04 -0.05,0.06 -0.02,0.02 -0.03,0.04 -0.05,0.06 -0.02,0.02 -0.09,0.1 -0.11,0.11l-0.14 0.1z"/>
   <path class="fil2" d="M93.48 20.76c0,0.15 0.01,0.39 0.04,0.47 0.19,0.54 -0.03,0.14 0.33,0.35l0.25 -0.2c0.36,-0.39 0.33,-0.71 -0.31,-0.88l-0.31 0.26z"/>
   <path class="fil2" d="M8.76 16.85c0,0.56 0.19,0.27 0.02,0.62 -0.14,0.31 -0.18,0.17 -0.18,0.6l0.31 0.03c0.15,-1.14 0.46,-0.6 0.46,-1.59 -0.42,0.06 -0.62,0.05 -0.62,0.35z"/>
   <path class="fil2" d="M86.41 13.37l0 -0.09c0,-0.4 -0.27,-0.27 -0.97,-0.26 0.01,1.01 0.97,0.78 0.97,0.35z"/>
   <path class="fil4" d="M77.49 32.91c0.35,0.08 0.08,-0.02 0.28,0.1 0.28,0.17 0.26,0.33 0.51,0.57 0.01,0.01 0.05,0.04 0.06,0.05 0.01,0.01 0.05,0.04 0.07,0.06l0.77 -0.26 -0.46 0 0 -0.26c-0.28,-0.08 -0.19,-0.07 -0.61,-0.09 0.06,-0.38 -0.05,-0.12 0.19,-0.35 -0.23,-0.11 -0.19,0.19 -0.19,-0.26l-0.61 0.43z"/>
   <path class="fil2" d="M87.48 21.1c-0.07,0.44 -0.37,0.4 -0.26,0.92l0.51 0.09c0.13,-0.12 0.63,-0.86 -0.26,-1.01z"/>
   <path class="fil4" d="M81.49 4.37l0.34 0.13c-0.62,0.05 -0.84,0.08 -1.11,0.28 0.35,-0.05 0.35,-0.07 0.77,-0.09 -0.18,0.42 -0.1,0.13 0,0.26l0.81 0c-0.3,-0.13 -0.46,-0.18 -0.65,-0.35 0.42,0.02 0.42,0.04 0.77,0.09 -0.02,-0.39 -0.07,-0.27 -0.46,-0.54l-0.46 0.22z"/>
   <path class="fil2" d="M62.51 27.35c0.03,0.45 -0.04,0.08 0.22,0.22 0.5,-0.21 0.47,-0.21 0.74,-0.48 -0.09,-0.34 -0.05,-0.35 -0.59,-0.43 -0.17,0.41 -0.07,0.51 -0.37,0.69z"/>
   <path class="fil0" d="M80.26 5.21l0.14 -0.1c0.02,-0.02 0.09,-0.09 0.11,-0.11 0.02,-0.02 0.03,-0.04 0.05,-0.06 0.02,-0.02 0.04,-0.04 0.05,-0.06l0.11 -0.11c0.27,-0.2 0.48,-0.23 1.11,-0.28l-0.34 -0.13 -0.77 0.03 -0.54 0.3 0.08 0.52z"/>
   <path class="fil2" d="M9.68 11.9c0.49,0.15 1.14,0.19 1.23,-0.26 -0.64,-0.08 -1.26,-0.26 -1.23,0.26z"/>
   <path class="fil2" d="M48.12 19.53c0.36,-0.2 0.58,-0.4 0.87,-0.65l-0.56 -0.03c-0.16,0.06 -0,0.05 -0.32,0.08 -0.13,0.01 -0.32,0.01 -0.45,0.01l0.46 0.59z"/>
   <path class="fil1" d="M89.91 3.39l0.65 -0.18 0 -0.45 -0.85 0.05c-0.11,0.33 0.01,0.36 0.2,0.58z"/>
   <path class="fil4" d="M90.98 3.82c0.84,-0.2 1.32,0.05 1.88,0.26 -0.12,-0.26 -0.06,-0.14 -0.31,-0.35 0.21,-0.07 0.17,-0.05 0.46,-0.09 -0.09,-0.04 -0,-0.03 -0.24,-0.12 -0.44,-0.18 0.34,0.08 -0.18,-0.07 -0.35,-0.1 -0.02,-0.04 -0.5,-0.07l0.33 0.25c-0.4,-0.01 -0.43,-0.03 -0.61,-0.02 -0.05,0 -0.46,0.03 -0.64,0.03l-0.19 0.17z"/>
   <path class="fil2" d="M41.2 23.87l1.05 -0.59c-0.05,-0.17 -0,-0.14 -0.13,-0.26 -1.06,0.4 -0.45,0.49 -1.23,0.61 0.11,0.25 -0.03,0.13 0.31,0.25z"/>
   <path class="fil2" d="M77.08 11.9c0,0.36 0.55,0.59 0.92,0.64l-0.38 -0.81c-0.22,0.02 -0.54,0.04 -0.54,0.17z"/>
   <path class="fil4" d="M85.79 2.95c-0.4,-0.31 -0.64,-0.09 -0.97,-0.42 -0.47,-0.46 0.21,-0.45 0.86,-0.45 -0.45,-0.14 -0.31,-0.09 -1.11,-0.09 -0.09,0.25 -0.12,0.17 -0.04,0.37l0.21 0.38c-0,0.11 -0.7,0.12 1.06,0.2z"/>
   <path class="fil2" d="M68.72 18.76c0.2,-0.23 0.14,-0.09 0.15,-0.43 -0.82,0 -1.01,-0.01 -1.08,0.43l0.92 0z"/>
   <path class="fil1" d="M82.1 3.48c0.01,-0.34 -0.04,-0.2 0.15,-0.43 -0.15,-0.1 0.25,-0.11 -0.31,-0.07 -0.29,0.2 -0.27,0.21 -0.42,0.5 0.25,0.21 0.42,0.37 0.81,0.48 -0.13,-0.19 -0.15,-0.26 -0.23,-0.48z"/>
   <path class="fil2" d="M56.73 19.18c0.36,-0.15 0.43,-0.24 0.74,-0.42 -0.07,-0.06 -0.11,-0.13 -0.75,-0.01 -0.6,0.11 -0.43,0.06 -0.45,0.45l0.46 -0.01z"/>
   <path class="fil4" d="M92.88 21.19l0.34 0.15c0.37,0.19 0.18,-0.18 0.27,0.28 0.6,-0.03 0.46,0.06 0.62,-0.25l-0.25 0.2c-0.36,-0.21 -0.14,0.19 -0.33,-0.35 -0.03,-0.09 -0.03,-0.32 -0.04,-0.47l-0.61 -0.01 0.25 0.27c-0.2,0.19 -0.01,0.05 -0.23,0.18z"/>
   <path class="fil1" d="M93.94 20.28c-0.03,-0.24 -0.24,-0.53 -0.57,-0.63 -0.03,-0.01 -0.08,-0.02 -0.11,-0.03 -0.58,-0.08 -0.66,0.31 0.68,0.66z"/>
   <path class="fil2" d="M24.9 21.8c-0.2,0.43 -0.31,0.1 -0.31,0.78l0.31 0c0.08,-0.55 0.39,-0.3 0.46,-0.78l-0.46 0z"/>
   <path class="fil2" d="M94.86 33.26l0.08 0.21 0.81 -0.04 0.18 -0.35c-0.62,0.03 -0.82,0.02 -1.08,0.17z"/>
   <path class="fil2" d="M82.87 33.42l0.13 -0.07c0.18,-0.33 0.18,-0.26 0.18,-0.69 -0.56,0.21 -0.45,0.29 -0.61,0.69 0.15,0.1 -0.25,0.1 0.31,0.07z"/>
   <path class="fil2" d="M54.12 27.61l-0.01 0.26 0.39 0.03c0.32,0.01 0.11,0.03 0.38,-0.03 -0.01,-0.34 0.04,-0.2 -0.15,-0.43 -0.46,0.07 -0.25,0.04 -0.61,0.17z"/>
   <path class="fil2" d="M100.55 32.04c0.33,-0.12 0.33,-0.09 0.92,-0.09 -0.1,-0.11 -0.02,-0.08 -0.12,-0.19 -0.22,-0.24 0.03,-0.07 -0.29,-0.22 -0.18,0.09 -0.17,0.1 -0.29,0.18 -0.21,0.13 -0.26,0.15 -0.48,0.26l0.26 0.06z"/>
   <path class="fil2" d="M69.34 24.58c0.33,0.23 0.79,-0.04 1.23,-0.26l-0.85 -0.01c-0.32,0.1 -0.21,0 -0.38,0.28z"/>
   <path class="fil4" d="M81.95 29.98c-0.08,-0.21 -0.12,-0.21 -0.15,-0.46 -0.41,0.11 -0.16,0.08 -0.77,0.09 0.06,0.14 -0.06,0.24 0.33,0.32 0.7,0.15 -0.21,-0.21 0.59,0.05z"/>
   <path class="fil2" d="M93.17 25.36c0.79,-0.1 0.62,-0.1 0.62,-0.61 -0.28,0.12 -0.16,0.03 -0.38,0.22 -0.23,0.2 -0.19,0.12 -0.23,0.39z"/>
   <path class="fil2" d="M113.31 23.98l-0.13 0.07c-0.19,0.3 -0.2,0.2 -0.49,0.43 0.48,0.02 0.29,-0 0.61,0.09 0.17,-0.4 0.32,-0.38 0,-0.59z"/>
   <path class="fil2" d="M42.89 28.22c0.74,-0.2 0.71,0.1 0.92,-0.35l-0.67 0.04c-0.42,0.09 -0.2,-0 -0.25,0.31z"/>
   <path class="fil2" d="M40.3 25.31c0.14,0.18 -0.22,0.12 0.57,0.13l0.17 -0.34 -0.31 0 -0.44 0.22z"/>
   <path class="fil2" d="M71.03 22.56l0.61 -0.32c-0.16,-0.12 0.25,-0.1 -0.31,-0.1 -0.03,0.01 -0.07,0.01 -0.09,0.04l-0.38 0.22c0,0.35 -0.03,0.04 0.15,0.16z"/>
   <path class="fil2" d="M106.4 32.48c0.35,0.37 -0.04,0.16 0.46,0.26 0.14,-0.16 0.12,-0.11 0.15,-0.35 -0.25,0.01 -0.48,-0 -0.62,0.09z"/>
   <path class="fil2" d="M99.19 24.84c-0.05,0.32 -0.06,0.09 0.13,0.17 0.45,-0.06 0.22,0.01 0.46,-0.17l-0.31 -0.16 -0.28 0.16z"/>
   <path class="fil2" d="M98.45 33.09c-0.27,0.03 -0.92,0.07 -0.56,0.27 0.26,0.15 0.44,-0.1 0.56,-0.27z"/>
  </g>
 </g>
</svg>
