<?xml version="1.0" encoding="UTF-8"?>
<!DOCTYPE svg PUBLIC "-//W3C//DTD SVG 1.1//EN" "http://www.w3.org/Graphics/SVG/1.1/DTD/svg11.dtd">
<!-- Creator: CorelDRAW -->
<svg xmlns="http://www.w3.org/2000/svg" xml:space="preserve" width="32.2234mm" height="5.5809mm" version="1.1" style="shape-rendering:geometricPrecision; text-rendering:geometricPrecision; image-rendering:optimizeQuality; fill-rule:evenodd; clip-rule:evenodd"
viewBox="0 0 901.86 156.2"
 xmlns:xlink="http://www.w3.org/1999/xlink"
 xmlns:xodm="http://www.corel.com/coreldraw/odm/2003">
 <defs>
  <style type="text/css">
   <![CDATA[
    .fil0 {fill:black;fill-rule:nonzero}
   ]]>
  </style>
 </defs>
 <g id="Camada_x0020_1">
  <metadata id="CorelCorpID_0Corel-Layer"/>
  <path class="fil0" d="M68.02 26.74l-68.02 -0 0 -26.73 103.21 0 0 26.73 -66.74 102.7 66.73 0 0 26.73 -103.21 -0 0 -26.73 68.02 -102.7zm159.43 -26.73l-0.01 156.16 -103.21 -0 0.01 -156.16 103.21 0zm-27.04 26.73l-47.21 0 -0 102.7 47.21 0 0 -102.7zm77.03 129.44l-28.97 -0 0.01 -156.16 28.97 0 47.2 87.55 0 -87.55 27.04 0 -0.01 156.16 -27.04 -0 -47.2 -90.22 -0 90.22zm171.45 -65.49l-47.21 -0 0 65.49 -28.97 0 0.01 -156.16 103.21 0 -0.01 156.16 -27.04 0 0 -65.49zm-47.2 -63.94l0 38.54 47.21 0 0 -38.54 -47.21 -0zm148.48 63.94l0.01 -90.67 103.21 0.01 -0 26.73 -74.24 -0 0 38.54 74.24 0 -0 90.89 -103.21 -0.01 0 -26.73 76.17 0 0 -38.76 -76.17 -0zm200.42 -90.66l27.04 0 -0.01 156.16 -103.21 -0 0.01 -156.16 28.97 0 -0 129.43 47.2 0 0.01 -129.43zm77.03 129.43l74.24 0 0 26.73 -103.21 -0 0.01 -156.16 28.97 0 -0.01 129.43z"/>
 </g>
</svg>
