<?xml version="1.0" encoding="UTF-8"?>
<!DOCTYPE svg PUBLIC "-//W3C//DTD SVG 1.1//EN" "http://www.w3.org/Graphics/SVG/1.1/DTD/svg11.dtd">
<!-- Creator: CorelDRAW -->
<svg xmlns="http://www.w3.org/2000/svg" xml:space="preserve" width="37.7775mm" height="3.7016mm" version="1.1" style="shape-rendering:geometricPrecision; text-rendering:geometricPrecision; image-rendering:optimizeQuality; fill-rule:evenodd; clip-rule:evenodd"
viewBox="0 0 794.17 77.82"
 xmlns:xlink="http://www.w3.org/1999/xlink"
 xmlns:xodm="http://www.corel.com/coreldraw/odm/2003">
 <defs>
  <style type="text/css">
   <![CDATA[
    .fil0 {fill:black}
   ]]>
  </style>
 </defs>
 <g id="Camada_x0020_1">
  <metadata id="CorelCorpID_0Corel-Layer"/>
  <path class="fil0" d="M2.15 2.86c0,5.55 13.76,-3.7 11.08,12.75 -1.2,7.36 0.07,14.29 -0.97,22.08 -0.66,5 -1.04,29.69 -2.36,32.36 -1.16,2.37 -6.56,2.57 -9.8,3.21 -0.5,5.04 0.71,2.86 5.45,2.86l16.34 0c4.24,0 5.45,2.26 5.45,-2.86 -2.33,-0.46 -4.96,-0.69 -7.37,-1.24 -5.46,-1.24 -3.2,-8.75 -3.02,-13.53l1.55 -39.56c0.23,-2.74 0.67,-3.57 0.67,-6.9 0.1,0.11 0.22,0.16 0.25,0.36 0.04,0.2 0.2,0.29 0.24,0.37l24.03 54.78c1.44,3.05 1.02,6.04 4.76,6.87 2.11,-1.68 2.23,-3.72 3.65,-7.23l23.58 -53.45c0.56,-0.93 0.67,-1.03 1.37,-1.71 0,11.44 -0.82,24.52 0.58,35 0.66,4.94 0.04,12.42 0.11,17.67 0.06,4.85 0.91,7.75 -10.91,8.58l0 2.86c3.95,0.7 15.76,-0.74 18.33,-0.56 16.63,1.14 15.72,2.13 15.72,-2.3 -8.52,-1.67 -5.24,-0.07 -10.22,-2.86 0,-6.55 -0.7,-11.4 -0.66,-18.33 0.02,-3.9 -0.73,-5.23 -0.71,-9.13 0.04,-8.73 0.21,-20.1 -0.63,-28.09 -0.29,-2.79 -0.05,-7 1.51,-8.4 1.23,-1.1 7.07,-1.7 9.36,-1.86l0 -3.44c-28.93,0 -23.07,-1.55 -26.58,5.71 -1.04,2.14 -2.43,4.85 -3.23,7.02l-12.33 27.99c-0.56,1.39 -0.98,2.11 -1.55,3.27 -1.72,3.47 -2.28,7.42 -5.35,10.39l-20.95 -48.79c-1.08,-2.51 -1.97,-3.19 -2.2,-5.59l-20.49 -0.05c-2.54,-0.02 -4.71,-0.44 -4.71,1.77zm506.68 41.78l0 4.58 29.28 0c2.58,0 2.04,-1.33 2.04,-4.58 0,-2.82 -2.86,-1.72 -4.09,-1.72l-23.16 0c-1.23,0 -4.08,-1.11 -4.08,1.72zm-345.28 -19.46c3.94,4.52 10.21,-2.51 10.21,8.01l0 33.2c0,6.29 -2.12,6.87 -9.53,6.87 -1.32,4.76 1.28,2.86 5.45,2.86l20.43 0c3.11,0 4.66,1.67 4.77,-2.29 -2.18,-0.88 -9.54,-0.11 -9.54,-4 0,-10.46 -1.55,-29.33 2.49,-37.4 2.84,-5.68 11.13,-6.38 11.13,-3.24 0,4.56 -2.17,7.44 7.49,7.44 4.31,0 6.89,-7.6 1.55,-12.18 -4.53,-3.9 -13.29,-3.48 -18.98,-0.17 -3.76,2.18 -2.84,4.04 -5.73,4.92 0,-3.51 -0.61,-5.42 -0.68,-8.01 -3.08,0.6 -6.76,1.08 -9.71,1.57 -8.01,1.34 -7.27,-0.18 -9.36,2.44zm91.26 0.57c-7.31,-4.12 -4.1,-4.01 -15.66,-4.01 -16.18,0 -24.52,15.1 -24.52,29.19 0,12.22 9.6,26.33 23.16,26.33 8.01,0 14.06,0.22 20.16,-6.52 1.19,-1.31 8.06,-12.37 2.99,-12.37 -8.62,0 -2.89,2.07 -7.93,9.36 -5.8,8.4 -25.44,8.09 -25.44,-14.52 0,-11.5 0.34,-27.47 16.34,-27.47 7.39,0 10.78,5.64 12.6,10.58 1.13,3.08 0.25,3.65 4.42,3.72 1.43,-5.14 0.68,-12.28 0.68,-17.74 0,-1.34 -1.89,-3.69 -4.85,0.51 -0.67,0.95 -1.29,1.86 -1.96,2.93zm238.36 -0.57c-21.99,-12.38 -44.42,9.86 -29.47,21.34 4.39,3.38 15.19,6.61 20.63,8.98 7.89,3.44 7.48,4.95 7.48,10.32 0,4.84 -15.3,12.25 -24.65,2.4 -1.71,-1.8 -2.06,-3.06 -3.07,-5.43 -0.88,-2.05 -1.02,-4.99 -3.6,-4.99 -1.57,0 -2.04,0.4 -2.04,1.72l0 16.6c0,2.15 2.26,2.01 3.68,0.91 0.7,-0.54 1.98,-3.03 2.44,-3.77 2.34,0.52 17.35,9.18 31.14,-0.16 5.81,-3.93 6.32,-8.07 6.32,-14.15 0,-13.49 -32.69,-15.07 -32.69,-22.32 0,-3.08 -0.33,-5.42 2.89,-7.87 4.91,-3.73 18.58,-5.09 21.3,6.43 0.61,2.59 -0.52,3.73 3.05,3.73 1.57,0 2.04,-0.4 2.04,-1.72 0,-5.3 0.73,-11.52 -0.68,-16.6 -2.86,0.2 -3.64,0.5 -4.77,4.58zm251.98 13.16c4.99,0 2.78,0.52 6.34,-5.54 6.67,-11.36 18.05,-2.86 27.03,-6.48 -0.72,2.59 -23.7,33.82 -26.16,36.97 -1.97,2.51 -8.34,10.45 -8.58,12.82l46.31 0 1.74 -8.26c0.6,-3.22 1.66,-5.29 1.66,-8.34l-4.08 0c-0.33,1.19 -0.58,2.4 -1.18,3.59 -6.01,11.91 -12.58,9 -28.78,9 5.57,-6.99 11.96,-17.33 17.43,-24.27 3.12,-3.96 17.03,-22.12 17.3,-24.95l-45.63 0c-1.26,2.2 -3.4,12.1 -3.4,15.46zm-448.79 -12.59c6.35,0 9.04,1.04 11.58,6.29 1.3,2.68 2.72,8.29 2.72,12.03l-27.24 0c0,-6.73 3.33,-18.31 12.94,-18.31zm-25.2 24.04c0,13.28 7.08,27.47 24.52,27.47l5.44 0c11.75,0 21.11,-8.97 21.11,-18.89l-6.13 0c-0.31,3.13 -2.57,7.95 -4.59,9.88 -6.99,6.7 -20.43,6.45 -25.39,-3 -2.22,-4.24 -3.4,-10.52 -3.4,-16.61l39.5 0c0,-13.47 -6.1,-26.9 -21.79,-26.9 -9.93,0 -16.81,0.73 -23.44,8.92 -3.87,4.77 -5.84,11.32 -5.84,19.13zm-139.61 -24.04c5.91,0 8.11,0.65 10.88,5.17 2.49,4.05 2.74,8.34 2.74,13.15l-26.56 0c0,-6.71 3.32,-18.31 12.94,-18.31zm-25.2 20.03c0,7.76 -0.53,13.19 4.13,20.57 0.48,0.77 1.88,2.79 2.56,3.57 7.29,8.23 34.11,13.52 42.76,-4.9 3.32,-7.07 1.15,-6.64 -3.14,-6.64 -3.68,0 -0.71,3.95 -5.71,9.51 -5.64,6.27 -19.68,7.49 -25.29,-1.77 -2.69,-4.44 -3.73,-11.82 -3.73,-17.47l37.46 0c1.11,0 2.04,-0.34 2.04,-1.14 0,-12.74 -7.21,-25.76 -21.79,-25.76 -6.03,0 -10.15,-0.3 -15.54,2.39 -8.22,4.1 -13.74,14.07 -13.74,21.65zm315.31 -20.03c6.69,0 9.19,0.46 12.27,6.28 1.31,2.48 2.71,8.4 2.71,12.03l-27.24 0c0,-5.88 3.63,-18.31 12.26,-18.31zm-24.52 24.61c0,13.32 8.06,26.9 24.52,26.9 8.63,0 13.16,0.05 19.85,-5.06 3.78,-2.89 6.71,-8.32 6.71,-13.82 -8.29,0 -5.68,0.05 -7.23,4.79 -3.59,11 -21.68,12.85 -27.75,4 -4.01,-5.85 -3.84,-11.87 -3.84,-18.52l38.82 0c0,-5.46 0.16,-7.05 -1.78,-12.81 -2.48,-7.33 -9.94,-14.09 -20.01,-14.09 -9.86,0 -17.17,0.81 -23.3,9.04 -4.65,6.24 -5.98,12.07 -5.98,19.58zm243.12 -24.61c6.15,0 9.22,0.44 12.41,6.17 1.27,2.28 2.57,8.8 2.57,12.15l-27.24 0c0,-3.54 1.7,-9.06 3.15,-11.66 1.68,-3 4.29,-6.66 9.1,-6.66zm-24.52 23.47c0,10.7 3.26,19.77 13.05,25.09 8.41,4.57 24.68,4.14 31.39,-2.04 4.26,-3.93 6.63,-7.95 6.63,-13.89 -11.31,0 -3.03,0.99 -9.99,9.34 -5.93,7.11 -20.58,6.61 -25.12,-1.01 -3.9,-6.55 -3.71,-10.69 -3.71,-18.06l38.82 0c0,-6.16 0.3,-7.06 -1.88,-13.3 -2.48,-7.08 -10.04,-13.6 -19.91,-13.6 -9.66,0 -16.92,0.75 -23.04,8.68 -1.81,2.34 -3.55,5.1 -4.56,8.19 -0.77,2.33 -1.69,8.01 -1.69,10.6zm57.2 -22.32c2.82,0.55 6.03,0.59 8.85,1.14l0.23 41.44c-0.37,2.59 0.2,1.51 -1.53,2.68 -1.71,1.15 -4.31,1.1 -7.55,1.1 -1.28,4.63 0.78,2.86 4.08,2.86l21.11 0c3.37,0 4.09,2.1 4.09,-2.86 -2.97,0 -8.17,-0.21 -8.17,-3.43l0 -30.91c0,-12.48 17.69,-13.31 21.98,-7.59 4.22,5.61 2.54,28.5 2.54,37.36 0,5.09 -5.98,4.58 -8.85,4.58 -1.28,4.63 0.78,2.86 4.08,2.86l21.11 0c3.3,0 5.37,1.77 4.09,-2.86 -4.19,0 -6.78,0.16 -8.22,-2.25 -1.34,-2.23 -0.64,-24.55 -0.63,-28.08 0.01,-6.99 -0.65,-11.12 -4.34,-15.23 -5.65,-6.3 -20.16,-9.2 -30.65,-0.44l-2.46 1.94c0,-10.4 -2.72,-7.94 -6.94,-6.99 -11.11,2.49 -12.69,0.18 -12.81,4.7zm-315.99 -0.57c20.77,0 15.12,33.91 12.53,39.72 -1.12,2.53 -2.76,4.53 -5.23,5.91 -3.52,1.97 -8.36,1.97 -11.89,0 -4.76,-2.65 -7.48,-10.94 -7.68,-14.72 -0.16,-3.09 -0.83,-5.52 -0.71,-7.99 0.22,-4.5 0.82,-11.4 3.07,-15.78l0.88 -1.55c0.68,-1.18 0.11,-0.43 0.92,-1.51 1.57,-2.11 5.16,-4.07 8.09,-4.07zm5.45 -21.18c6.16,2.48 9.66,-1.8 9.55,8 -0.06,5.34 -0.02,10.7 -0.02,16.04 -6.22,-3.83 -2.09,-6.87 -18.39,-6.87 -5.68,0 -11.57,4.34 -14.9,8.08 -9,10.09 -9.09,31.81 3.03,41.96 7.94,6.64 22.54,8.09 30.13,-0.92l1.49 -1.61c0,11.9 3.61,5.71 19.75,4.58l0 -2.86c-5.25,0 -9.53,0.3 -9.53,-5.72l0 -65.82c-3.41,0.06 -2.67,0.56 -5.53,1.08l-11.66 1.65c-3.5,0.39 -3.17,-0.27 -3.92,2.43zm200.9 63.53l0 -29.19c15.92,0 29.97,-2.68 29.97,15.45 0,7.92 -2.59,12.51 -9.06,15.28 -4.21,1.8 -6.18,1.18 -11.83,1.44 -2.29,0.11 -9.08,0.53 -9.08,-2.99zm5.45 -33.77l-5.45 0 0 -29.19c14.66,0 25.88,-2.01 25.88,14.88 0,13.34 -9.01,14.31 -20.43,14.31zm-28.6 -32.05c0,5.2 10.89,-0.53 10.89,7.44l0 56.09c0,9.53 -10.89,2.84 -10.89,8.01 0,1.32 0.47,1.72 2.04,1.72l38.82 0c13.32,0 25.2,-9.17 25.2,-21.18 0,-16.5 -14.04,-16.82 -16.34,-19.46 3.24,-0.63 6.33,-3.07 8.36,-5 7.22,-6.88 7.06,-29.34 -21.3,-29.34l-34.73 0c-1.57,0 -2.04,0.4 -2.04,1.72z"/>
 </g>
</svg>
