<?xml version="1.0" encoding="UTF-8"?>
<!DOCTYPE svg PUBLIC "-//W3C//DTD SVG 1.1//EN" "http://www.w3.org/Graphics/SVG/1.1/DTD/svg11.dtd">
<!-- Creator: CorelDRAW -->
<svg xmlns="http://www.w3.org/2000/svg" xml:space="preserve" width="30.5741mm" height="9.6496mm" version="1.1" style="shape-rendering:geometricPrecision; text-rendering:geometricPrecision; image-rendering:optimizeQuality; fill-rule:evenodd; clip-rule:evenodd"
viewBox="0 0 247.55 78.13"
 xmlns:xlink="http://www.w3.org/1999/xlink"
 xmlns:xodm="http://www.corel.com/coreldraw/odm/2003">
 <defs>
  <style type="text/css">
   <![CDATA[
    .fil0 {fill:#FEFEFE}
    .fil1 {fill:black}
    .fil2 {fill:red}
    .fil3 {fill:white}
   ]]>
  </style>
 </defs>
 <g id="Camada_x0020_1">
  <metadata id="CorelCorpID_0Corel-Layer"/>
  <g id="Figs_Frase_005">
   <path class="fil0" d="M199.52 12.33c4.91,0.12 8.02,1.15 11.15,5.02 0.09,-0.02 0.19,-0.05 0.29,-0.08 1.4,-0.39 2.51,-0.52 3.98,-0.53 0.19,-0 0.36,0.01 0.52,0.02 0.3,-1.12 0.57,-3.01 0.72,-3.85 0.27,-1.49 0.57,-3.24 1.12,-4.65 1.97,-5.07 6.46,-8.23 11.92,-8.27 0.81,-0.01 3.02,0.58 3.88,0.76 1,0.21 2.78,0.48 3.71,0.82 3.84,1.41 6.78,3.74 8.2,7.65 0.47,1.28 0.72,2.59 0.93,3.93 0.13,0.8 0.25,1.82 0.54,2.57 0.86,2.26 1.41,4.71 0.83,7.11 -0.36,1.47 -1.01,2.33 -1.53,3.63 -0.12,0.29 -0.19,0.57 -0.19,0.89 0.04,4.72 1.43,8.92 -1.08,13.44 -0.19,0.33 -0.48,0.82 -0.68,1.23 0.22,0.79 0.29,1.44 0.3,2.36l0.06 7.19c0.01,1.53 -0.39,2.99 -0.37,4.53 0.07,6.12 0.05,13.08 -4.42,17.83 -5.22,5.55 -18.99,4.05 -26.06,3.83 -2.29,-0.07 -4.48,-0.72 -6.73,-0.7 -5.24,0.04 -9.87,-0.61 -11.17,-6.78 -0.15,-0.71 -0.2,-1.35 -0.12,-2.01l-6.44 6.4c-0.71,0.71 -1.79,0.83 -2.65,0.3 -1.78,-1.11 -3.4,-2.43 -5.11,-3.62 -0.95,-0.66 -3.48,-2.73 -4.47,-3.1 -0.67,-0.25 -1.94,-0.19 -2.63,-0.17 -2.77,0.06 -5.53,0.17 -8.31,0.19 -0.94,0.01 -1.47,0.17 -2.35,0.4 -1.85,0.49 -3.39,0.27 -5.23,-0.19 -1.64,-0.41 -2.77,-1.08 -4.02,-2.19 -0.12,-0.11 -0.25,-0.22 -0.37,-0.33 -2.11,1.77 -3.95,2.82 -7.12,3.36 -0.14,0.02 -0.26,0.03 -0.39,0.03l-8.53 -0.13c-0.17,0 -0.27,0.01 -0.43,0.05 -0.98,0.27 -1.74,0.34 -2.77,0.35 -1.5,0.01 -2.27,-0.33 -3.8,-0.13 -1.94,0.25 -4.54,0.6 -6.49,0.37 -1.03,-0.12 -1.58,-0.34 -2.35,-0.91 -0.05,-0 -0.08,-0 -0.08,-0.01 -0.33,0.05 -0.84,0.25 -1.17,0.35 -0.81,0.26 -1.63,0.49 -2.47,0.64 -2.5,0.46 -4.92,0.24 -7.27,-0.77 -0.36,-0.15 -0.74,-0.39 -1.13,-0.63 -0,0 -0,0 -0,0.01 -0.24,0.97 -1.07,1.63 -2.07,1.64 -3.16,0.02 -7.52,-0.27 -10.54,0.31 -3.13,0.6 -5.36,0.71 -8.17,-0.75 -0.01,0.01 -0.01,0.02 -0.02,0.02 -0.86,0.94 -2.02,0.98 -3.19,1.02 -1.6,0.06 -3.15,0.13 -4.74,0.29 -3.07,0.3 -6.27,0.09 -9.36,0.11 -0.62,0 -1.16,-0.23 -1.59,-0.68 -0.42,-0.46 -0.62,-1.01 -0.57,-1.63 0.15,-1.86 1,-3.69 1.52,-5.42 -6.31,0.09 -10.81,-3.2 -10.86,-10.6 -0,-0.23 0.02,-0.44 0.04,-0.63 -0.09,0 -0.17,0.01 -0.26,0.02 -1.51,0.14 -2.82,0.58 -4.42,0.61 -2.3,0.04 -4.38,-0.67 -6.34,-1.76 -0.17,0.06 -0.34,0.13 -0.51,0.19 -1.77,0.71 -3.08,1.3 -5.03,1.51 -1.21,0.13 -2.48,-0.01 -3.66,0.2 -3.89,0.67 -6.09,1.34 -10.04,-0.33 -0.8,-0.34 -1.54,-0.85 -2.28,-1.27 -0.21,0.16 -0.42,0.32 -0.63,0.49 -1.46,1.18 -2.77,2.02 -4.45,2.9 -11.84,6.15 -22.07,0.4 -22.17,-13.23 -0.01,-1.19 0.2,-1.61 0.65,-2.56 -0.03,-0.18 -0.11,-0.44 -0.15,-0.58 -1.94,-6.12 -0.53,-11.34 2.55,-16.76 4.1,-7.21 11.75,-11.74 20.07,-11.73 5.11,0.01 7.21,0.92 11.09,3.29 0.77,-0.36 1.71,-0.93 2.36,-1.19 2.3,-0.92 4.57,-0.93 6.95,-0.29 2.93,0.78 5.77,2.9 6.91,5.75 0.08,-0.03 0.16,-0.07 0.25,-0.1 2.36,-0.98 3.95,-1.16 6.51,-0.64 2.15,0.43 3.38,1.16 4.57,2.46 3.59,-5.76 15.15,-5.61 17.61,1.49 1.83,-0.02 3.66,-0.04 5.5,-0.05 1.55,-0.01 3,0.21 4.45,0.8 0.34,0.14 1.29,0.64 1.46,0.7 0.44,-0.09 1.6,-0.71 2.08,-0.91 1.56,-0.66 3.11,-1.02 4.81,-1.03l6.01 -0.04c2.1,-0.01 3.16,0.2 4.68,1.36 0.5,-0.13 1.27,-0.46 1.6,-0.6 1.1,-0.46 2,-0.7 3.17,-0.93 0.41,-0.08 0.86,-0.1 1.26,-0.16 0.3,-0.46 0.7,-1.5 0.85,-1.87 0.74,-1.85 1.1,-3.6 2.27,-5.28 2.19,-3.17 6.64,-4.15 10.26,-3.6 4.33,0.65 7.91,3.43 8.67,7.9 0.07,0.44 0.1,0.81 0.11,1.18 0.79,0.14 1.6,0.19 2.42,0.39 1.68,0.41 3.12,1.22 4.44,2.33 1.08,0.91 2.1,2.4 2.8,3.97 0.26,-0.26 0.48,-0.5 0.65,-0.63 1,-0.84 2.64,-1.55 3.37,-2.2 0.32,-0.43 0.84,-1.93 1.09,-2.49 0.89,-1.95 2.04,-3.63 3.49,-5.2 0.46,-0.49 0.87,-1.01 1.36,-1.49 4.71,-4.65 10.72,-7.86 17.46,-7.91 2.93,-0.02 6.14,1.38 7.87,3.82 0.12,-0.08 0.24,-0.17 0.37,-0.27 2.4,-1.78 4.4,-2.13 7.38,-2.15 2.13,-0.01 5,0.88 6.68,2.19 0.72,0.56 1.6,1.38 2.15,2.09 0.34,0.43 0.72,1.07 1.06,1.72z"/>
   <path class="fil1" d="M243.44 27.39c-0.02,-3.21 3.63,-4.11 1.04,-10.89 -1.28,-3.36 0.12,-9.76 -8.41,-12.9 -0.08,-0.03 -6.74,-1.45 -6.83,-1.45 -5.2,0.04 -8.53,3.28 -9.94,6.91 -0.9,2.3 -1.46,8.05 -2.13,9.3 -0.74,1.36 -0.86,0.53 -2.21,0.54 -3.05,0.02 -3.19,0.62 -5.2,0.79 -3.11,-4.32 -5.71,-5.26 -11.65,-5.21 -0.2,-0.67 -0.9,-1.97 -1.33,-2.54 -0.39,-0.5 -1.22,-1.28 -1.78,-1.72 -1.11,-0.87 -3.46,-1.75 -5.34,-1.74 -6.14,0.04 -5.38,2.2 -8.78,3.09 -0.63,-2.48 -3.61,-4.51 -6.84,-4.49 -6.4,0.04 -11.88,3.26 -15.97,7.29 -0.49,0.48 -0.8,0.89 -1.29,1.42 -3.3,3.56 -3.53,6.3 -4.44,7.51 -0.47,0.62 -2.76,1.76 -3.71,2.56 -1.34,1.12 -1.8,2.22 -3.26,2.6 -0.07,-2.09 -1.7,-4.88 -2.95,-5.93 -2.7,-2.27 -4.73,-1.99 -6.3,-2.34 -1.87,-0.42 -1.03,-0.64 -1.41,-2.84 -1.24,-7.32 -11.97,-7.88 -15.05,-3.43 -1,1.45 -1.33,3.07 -2.04,4.85 -1.51,3.78 -1.74,2.95 -3.68,3.34 -1.22,0.24 -1.77,0.39 -2.76,0.81 -5.1,2.15 -1.9,-0.63 -7.09,-0.6l-6.01 0.04c-3.57,0.03 -5.49,1.93 -6.79,1.94 -1.38,0.01 -2.31,-1.51 -6,-1.49 -2.41,0.01 -4.82,0.05 -7.22,0.07 -0.75,-7.84 -14.7,-7.16 -14.81,0.1 -2.21,0 -0.35,0.68 -1.66,-1.07 -1.14,-1.53 -1.93,-2.54 -4.42,-3.04 -4.46,-0.9 -4.96,1.1 -7.95,1.18 -0.1,-3.12 -3.08,-5.49 -5.84,-6.22 -4.98,-1.32 -6.97,1.29 -9.01,1.79 -3.87,-2.41 -5.56,-3.51 -10.86,-3.52 -8.05,-0.01 -14.75,4.56 -18.2,10.64 -2.81,4.94 -4.11,9.56 -2.37,15.05 0.77,2.42 -0.41,1.81 -0.4,3.77 0.1,13.19 9.73,16.18 19.04,11.34 3.49,-1.81 3.77,-2.62 5.84,-3.95 1.38,0.5 1.86,1.14 3.33,1.76 3.58,1.51 5.82,0.72 8.84,0.2 1.39,-0.24 2.43,-0.08 3.8,-0.22 2.6,-0.27 4.03,-1.4 6.04,-1.89 6.78,4.22 9.08,-0.05 13.23,1.8 -0.07,1.29 -0.39,1.36 -0.38,2.27 0.05,6.84 4.43,9.31 11.27,8.24 0.02,2.88 -1.72,5.19 -1.94,7.96 2.76,-0.02 6.52,0.16 9.17,-0.1 6.9,-0.68 6.66,0.37 6.83,-2.02 2.9,0.55 2.86,2.66 9.1,1.47 2.63,-0.5 7.56,-0.32 10.93,-0.35 0.31,-1.26 0.33,-1.5 1.18,-2.28 1.31,0.32 1.77,0.96 2.88,1.43 4.8,2.06 8.65,-0.38 9.94,-0.39 2.78,-0.02 -0.56,1.76 8.75,0.55 2.33,-0.3 2.13,0.13 4.06,0.11 2.26,-0.02 1.91,-0.39 3.2,-0.4l8.58 0.13c3.52,-0.6 5.11,-1.94 7.4,-4.03 1.83,1.14 2.35,2.56 4.99,3.22 4.15,1.04 3.89,-0.26 7.05,-0.28 13.85,-0.1 9.85,-1.27 16.65,3.48 1.8,1.25 3.31,2.49 5.02,3.56l7.04 -6.99c1.56,-1.2 1.28,-0.29 3.72,-0.27 -0.15,1.89 -0.99,1.97 -0.58,3.95 1.1,5.25 5.53,5.1 9.05,5.07 2.61,-0.02 4.23,0.62 6.82,0.7 6.13,0.2 19.94,1.62 24.43,-3.15 3.94,-4.2 3.9,-10.75 3.83,-16.34 -0.02,-1.85 0.38,-3.12 0.37,-4.53l-0.06 -7.19c-0.03,-3.32 -1.19,-1.33 0.66,-4.65 2.15,-3.87 0.84,-8.32 0.81,-12.38z"/>
   <path class="fil2" d="M131.04 40.28c-0.46,0.23 -0.33,0.14 -0.77,0.41l-0.43 0.35c-0.9,-0.44 -1.21,-0.62 -2.07,-1.13l0.44 -2.26 1.2 -0.01c0.34,1.15 0.99,1.76 1.62,2.64zm-94.9 -2.36c2.78,-5.05 7.37,-8.22 4.13,-0.66 -1.01,2.37 -2.39,2.87 -4.13,0.66zm95.65 -5.21c-0.01,-1.83 1.24,-3.03 3.18,-3.05 4.21,-0.03 1.07,6.53 -1.14,7.95 -1.79,-1.11 -2.02,-2.69 -2.04,-4.9zm-56.78 8.72c-0.03,-3.2 3.05,-8.38 4.44,-9.41 0.93,-0.69 2.68,-1.28 2.69,0.28 0.01,1.51 -3.2,6.3 -4.49,7.84 -0.76,0.9 -1.18,1.17 -2.65,1.29zm18.01 -0.5c-0.05,-5.98 5.2,-11.39 6.77,-9.93 0.78,0.73 -0.36,2.25 -0.75,3.14 -0.9,2.03 -3.57,6.58 -6.02,6.79zm17.61 -1.26c-0.02,-2.44 2.66,-7.03 4,-8.29 1.12,-1.06 1.11,-0.82 3.14,-0.83 -0.3,3.75 -7.1,13.09 -7.13,9.13zm9.12 -11.79c-2.9,-0.04 -7.19,-2.26 -11.7,5.25 -0.81,1.35 -1.24,3.01 -2,4.15 -0.84,1.28 -2.18,2.45 -3.82,2.83 -0.03,-4.21 3.56,-5.77 3.52,-10.62 -0.02,-2.56 -4.18,-1.18 -5.11,-1.21l-3.31 -0.24c-5.06,0.03 -8.83,9.36 -9.51,10.3 -0.81,1.14 -2.39,2.29 -4.01,2.65l4.32 -10.62c-0.01,-1.07 -1.69,-2.26 -2.82,-2.25 -0.96,0.01 -1.04,0.53 -2.04,0.62 -2.1,0.19 -5.74,-2.28 -10.81,5.44 -1.09,1.65 -2.26,6.62 -5.86,6.93 -0.02,-2.32 0.8,-3.08 1.7,-4.8 2.06,-3.92 3.53,-7.34 -1.4,-7.31 -1.48,0.01 -0.67,0.39 -1.97,3.04 -1.6,3.26 -3.27,8.79 -7.14,9.13 -0.02,-2.4 0.83,-3.05 1.7,-4.8 2.05,-4.1 3.61,-7.23 -2.6,-7.68l-0.3 -4.17c-3.4,-0.64 -4.93,1.35 -4.91,3.45 0.03,3.47 3.96,1.13 -2.61,9.59 -1.4,1.8 -3.1,4.39 -6.09,4.47 0.28,-1.17 0.33,-0.96 0.86,-1.83 1.53,-2.53 4.19,-8.1 0.52,-10.16 -1.29,-0.72 -2.06,-0.49 -3.88,-0.48 0.19,-2.32 3.16,-5.62 3.14,-8.34 -0,-0.56 -2.75,-4.73 -4.71,-0.25 -2.99,6.86 -8.79,14.93 -8.74,20.77 0.03,3.97 3.95,4.13 6.44,4.12 1.6,-0.01 1.26,-0.51 2.84,-0.73 6.59,-0.94 4.31,2 11.42,-6.26 1,-1.16 2.15,-3 3.27,-3.72 -0.52,2.16 -1.96,4.81 -1.95,7.2 0.01,1.32 1.83,3.01 3.23,3 2.62,-0.02 4.01,-1.29 5.59,-2.31 1.38,1.92 2.07,1.88 4.42,1.86 1.88,-0.01 2.86,-1.19 3.99,-1.92 1.62,0.4 1.7,1.37 4.02,1.86 -0.48,1.76 -2.18,2.38 -3.25,3.74 -6.25,7.94 3.8,11.12 9.15,0.63 1.13,-2.21 0.89,-2.67 3.04,-3.93 3.66,-2.15 -0.74,-3.68 10.44,-2.2 2.41,0.32 1.85,-0.42 3.41,-1.42 2.04,1.27 0.9,2.26 4.42,2.24 2.19,-0.02 3.01,-1.46 4.79,-1.93 2.99,1.86 3.94,2.97 7.17,0.29 0.94,-0.78 0.83,-0.84 2.03,-1.11 1.5,5.16 6.4,-0.25 9.05,0.17 2.04,0.32 1.25,1.65 5.78,1.62 1.61,-0.01 2.72,-1.15 3.19,-1.16 2.78,-0.02 4.77,1.79 8.64,-3.64 0.65,-0.92 1.49,-2.11 -0.28,-2.09 -1.52,0.01 -1.75,2.08 -4.38,2.68 0.56,-2.33 5.43,-8.26 1.76,-11.98 -2.05,-2.08 -6.3,-1.42 -8.55,1.15 -1.19,1.36 -0.97,1.96 -2.33,3.09 -2.92,2.42 -1.95,1.82 -3.7,5.57 -0.5,1.06 -3.05,3.92 -3.8,2.5 -0.88,-1.67 8.89,-16.82 8.86,-19.94 -0.01,-1.02 -0.2,-1.04 -0.42,-1.89 -4.01,-1.78 -3.55,0.15 -5.37,3.64 -0.86,1.65 -3.01,5.57 -3.36,7.01z"/>
   <path class="fil2" d="M163.38 28.71c-0.05,-1.75 -0.41,-1.35 -0.43,-3.78 -0.03,-4.01 3.96,-8.32 7.54,-9.13 -0.05,3.17 -5.55,13.31 -7.16,15.86 -1.57,2.5 -2.76,4.76 -4.61,6.97 -8.67,10.39 -6.25,0.09 -3.93,-3.66 2.05,-3.31 2.11,-2.86 3.4,-4.72 -2.4,-3.33 -5.82,-0.66 -7.72,1.83 -4.23,5.54 -4.43,15.4 4.47,12.81 1.96,-0.57 4.01,-1.82 5.24,-3.01l3.06 -2.79c3.64,-3.84 7.25,-10.2 8.14,-10.82 0.04,5.69 -2.9,9.11 -3.11,11.75 0.95,0.47 1.64,0.87 2.81,1.11 2.22,-1.43 10.12,-15.72 12.28,-17.11 -0.12,1.52 -0.18,0.86 -0.83,2.24 -0.36,0.76 -0.61,1.51 -1.02,2.43l-4.55 9.28c-0.53,1.07 -3.68,8.07 -0.63,8.05 4.3,-0.03 2.74,-1.29 5.08,-6.16l7.57 -15.11c2.33,-4.48 6.65,-10.64 -0.48,-10.59 -4.26,0.03 -8.47,12.15 -12.3,14.84 -0.01,-1.79 -0.06,-3.04 0.19,-4.71 0.4,-2.7 1.3,-11.57 -2.31,-11.54 -12.98,0.09 -22.58,18.67 -10.69,15.96z"/>
   <path class="fil2" d="M11.66 30.52c0.04,-2.46 1.89,-5.38 3.24,-6.75 2.94,-2.99 8.73,-5.03 11.17,-2.49 3.43,3.57 -4.28,17.74 -7.6,21.59 -1.35,1.56 -2.5,3.68 -5.08,3.9 -1.75,-2.42 -1.13,-2.41 -0.44,-5.29 2.91,-0.08 5.37,-2.05 5.57,-4.58 -1.36,-0.1 -3.2,-0.16 -3.21,-1.49 -0.01,-0.87 3.02,-5.89 3.66,-6.73 3.03,-4.01 4.22,-4.06 4.25,-6.18 -7.56,-1.61 -8.17,7.15 -11.55,8.02zm-3.58 2.67c0.02,2.11 0.66,3.06 0.94,4.72 0.22,1.29 -2.6,11.56 4.39,11.51 14.91,-0.1 29.05,-31.98 9.76,-31.84 -8.17,0.06 -15.15,7.84 -15.09,15.61z"/>
   <path class="fil2" d="M191.48 38.34c-1.76,-2.44 1.55,-7.58 3.61,-9.42 1.23,-1.1 1.56,-1.14 3.12,-0.84 -0.26,3.24 -4.44,8.79 -6.73,10.26zm19.57 -6.57c0.19,-2.31 2.23,-3.68 3.97,-4.57 -0.18,2.3 -1.82,4.08 -3.97,4.57zm-14.87 -6.7c-7.77,0.05 -14.33,16.37 -6.68,16.31 2.61,-0.02 2.74,-1.37 4.78,-2.68 1.27,0.87 1.36,2.26 3.62,2.24 0.05,-0 5.7,-2.57 6.59,-2.45 0.58,0.08 1.88,0.63 5.01,0.86l0.01 1.14c3.68,-0.03 4.36,-0.26 6.46,-1.87 1.65,-1.27 3.12,-2.23 3.09,-5 -1.72,0.15 -1.4,0.4 -2.5,1.43 -2,1.88 -7.47,4.45 -7.49,0.91 -0.02,-2.2 2.26,0.07 6.72,-4.64 7.29,-7.7 -4.3,-9.69 -9.66,-1.48 -1.7,2.61 -2.19,7.2 -6.26,7.32l3.93 -9.48c-0.02,-1.95 -1.05,-3.03 -2.75,-2.87 -0.98,0.09 -0.79,0.47 -2.05,0.53 -0.84,0.05 -1.3,-0.27 -2.82,-0.26z"/>
   <path class="fil3" d="M221.87 49.98c1.13,7.47 3.47,5.03 3.8,8.55 -0.15,0.08 -8.71,3.17 -9.3,1.77 -0.41,-0.97 5.2,-2.27 4.74,-6.62 -0.17,-1.58 -5.85,-5.18 0.76,-3.7zm3.23 -13.01c-0.02,-1.98 -1.98,-3.39 -2.02,-3.43l-1.12 -1.25c-0.03,-0.03 -0.13,-0.08 -0.16,-0.11 -1.47,-1.29 -1.35,-3.96 -0.78,-5.76l3.13 -12.5c1.78,-8.87 5.57,-5.69 7.21,-5.44 1.23,0.19 3.49,-0.01 5.37,2.09 2.16,2.4 1.24,3.14 -0.17,7.02 1.29,0.8 0.29,0.62 2.01,0.74 0.03,3.9 0.26,1.12 1.09,2.89 -2.23,2.53 -2.37,7.03 -1.9,10.08 0.25,1.61 0.51,5.22 -0.82,6.54 -1.59,1.56 -1.82,0.23 -1.8,1.7 0.01,1.19 0.56,1.84 0.77,3.08 1.03,6.13 0.1,3.43 0.1,7.49 0,4.6 0.13,11.97 -1.18,16.18 -0.8,2.55 -2.4,3.91 -5.86,3.93 -6.76,0.05 -12.38,0.49 -18.89,-0.57 -3.11,-0.51 -2.29,-0.03 -5.14,-0.02 -5.27,0.04 4.93,-6.93 5.84,-7.7 1.07,-0.91 1.6,-1.95 2.48,-2.57 4.11,1.01 -1.14,3.63 8.85,1.48 10.17,-2.19 1.13,-5.33 1.11,-8.73 -0.08,-10.56 0.94,-5.74 1.48,-9.51 0.27,-1.89 0.42,-3.67 0.41,-5.63zm13.06 -20.14c0.69,-2.9 1.64,-4.59 -0.64,-7.02 -0.77,-0.82 -1.37,-1.09 -2.28,-1.61 -1.68,-0.96 -0.9,-0.58 -3.13,-0.81 -1.87,-0.2 -3.79,-1.69 -6.3,0.2 -1.49,1.13 -2.34,3.57 -2.68,5.39 -0.3,1.62 -0.38,2.97 -0.73,4.57 -0.96,4.28 -3.89,10.18 -2.87,14.86 0.42,1.94 0.34,-0.22 0.7,1.98 0.34,2.04 -0.69,3.35 0.88,4.12 0.13,-1.62 0.64,-1.8 0.77,-3.41 2.66,0.67 2.05,3.22 1.77,5.4 -0.69,5.32 -0.01,1.37 -1.68,5.95 -2.3,0.02 -3.46,0.2 -4.7,1.25 -4.14,3.52 0.16,7.09 0.22,7.29 0.62,2.14 -1.6,1.37 -3.05,1.35l-1.42 1.68c-2.96,2.79 -1.87,2.45 -6.05,5.27 -1.63,1.1 -2.73,1.94 -3.74,3.64 -3.23,5.44 4.11,3.46 4.11,3.46 1.35,-0.01 5.96,1.09 10.82,1.06 12.88,-0.09 16.83,1.4 18.6,-8.22 0.57,-3.1 0.92,-16.58 0.39,-19.9 -0.23,-1.44 -0.61,-2 -0.75,-3.41 5.86,-4.81 0.39,-7.63 2.87,-15.3 1.17,-3.64 2.41,-3.13 0.49,-6.27 -0.65,-1.06 -0.72,-1.22 -1.6,-1.52z"/>
   <path class="fil3" d="M161.58 54.82c-0.01,-1.65 0.73,-3.32 1.33,-4.77 0.04,-0.09 0.08,-0.19 0.11,-0.27 0.62,-1.5 1.1,-3.08 2.66,-3.98 5.07,-2.93 0.44,12.01 -2.88,12.03 -1.52,0.01 -1.21,-0.87 -1.22,-3.02zm-3.99 1.92c0.06,7.01 9.49,6.26 12.83,-4.95 0.2,-0.66 1.11,-4.29 1.1,-4.98 -0.05,-6.54 -7.23,-5.95 -11.07,0.96 -1,1.79 -2.88,6.61 -2.86,8.98z"/>
   <path class="fil3" d="M86.3 52.32c1.43,-2.88 0.38,-4.04 1.8,-4.7 0.79,-0.37 2.58,0.63 1.09,3.25 -0.65,1.13 -1.16,1.4 -2.89,1.45zm-6.72 11.02l3.2 -0.02 2.34 -7.58c2.13,-0.06 4.59,-1 5.71,-2.2 2.14,-2.27 5,-9.23 -0.59,-9.19 -7.16,0.05 -3.76,-1.74 -9.99,16.23 -0.34,0.98 -0.58,1.66 -0.67,2.75z"/>
   <path class="fil3" d="M116.7 49.46c0.04,4.88 0.63,3.23 2.32,5.81 0.44,0.68 1.46,4.58 -4.65,3.28 -0.32,1.32 -0.79,1.28 -0.78,2.65 0.02,2.86 7.34,1.36 9.08,-4.32 2.12,-6.92 -6.01,-5.01 -0.79,-10.49 1.92,0.14 0.95,0.47 2.81,0.74 0.73,-3.05 1.56,-3.79 -2.03,-3.77 -2.68,0.02 -5.98,3.78 -5.96,6.09z"/>
   <path class="fil3" d="M123.58 58.87c0.02,3.01 0.44,3.4 3.63,3.38 4.15,-0.03 6.7,-9.55 7.51,-12.91 -1.71,0.01 -2.94,-0.34 -3.68,0.71 -0.57,0.8 -0.17,0.4 -0.45,1.46 -0.19,0.7 -0.33,1.06 -0.55,1.74 -0.42,1.3 -0.59,1.9 -1.01,3.19 -0.52,1.57 -0.35,2.02 -1.85,2.41 0.05,-3.11 2.35,-6.37 2.33,-9.47 -3.29,0.02 -3.01,-0.17 -4.24,3.94 -0.37,1.24 -1.7,4.57 -1.7,5.56z"/>
   <path class="fil3" d="M197.63 56.84c0.17,-2.15 0.81,-6.22 3.55,-6.46 -0.02,1.29 -0.51,2.77 -0.94,4.01 -1.07,3.12 -1.57,2.42 -2.62,2.45zm-3.2 0.78c0.02,2.7 3.73,3.94 6.75,0.66 1.14,-1.25 1.45,-1.94 2.16,-3.63 0.55,-1.33 1.21,-2.53 1.29,-4.37 0.36,-7.31 -10.28,-2.98 -10.2,7.34z"/>
   <path class="fil3" d="M94.76 59.82c-0.02,-2.84 0.94,-5.67 2.75,-6.83 0.53,0.99 0.4,-0.31 0.41,1.13 0.02,2.01 -0.83,5.5 -3.16,5.7zm-3.19 2.29c1.43,0.89 0.64,1.13 2.81,1.11 2.32,-0.02 4.11,-2.02 5.02,-3.59 2.14,-3.7 3.04,-6.7 0.88,-9.69 -4.26,-0.13 -5.52,0.83 -6.99,3.63 -1.39,2.65 -1.77,4.76 -1.73,8.53z"/>
   <path class="fil3" d="M136.78 57.26c-0.02,-2.13 0.8,-4.74 3.16,-4.94 0.32,1.39 0.36,0.49 -0.01,1.84 -0.11,0.4 -0.42,1.53 -0.63,2.07 -1.28,3.28 -1.64,2.47 -2.51,2.54l-0.01 -1.51zm-3.59 1.92c0.03,4.48 2.72,1.83 4.17,2.14 0.36,0.08 0.9,1.15 2.52,0.08 1.09,-0.74 1.9,-4.47 2.33,-5.84 0.6,-1.91 1.68,-4.47 1.71,-6.29 -4.52,0.03 -1.23,1.07 -3.99,0.03 -4.23,-1.6 -6.76,8.36 -6.74,9.88z"/>
   <path class="fil3" d="M180.82 57.33c-0.02,-2.41 0.57,-5.81 3.15,-6.45 0.43,0.71 0.4,0.07 0.41,0.75 0.02,2.08 -1.19,5.5 -3.56,5.7zm-3.21 -0.36c0.02,3.09 -0.32,3.53 1.94,3.38 5.11,-0.35 4.51,1.1 6.79,-6.14 0.43,-1.36 0.82,-2.08 1.2,-3.4 0.73,-2.54 1.35,-3 -0.8,-2.98 -2.22,0.02 -0.13,1.36 -3.61,-0.35 -1.74,0.88 -2.8,1.9 -3.69,3.7 -0.64,1.29 -1.85,4.18 -1.84,5.8z"/>
   <path class="fil3" d="M208.8 51.84c0.16,-1.96 0.55,-1.93 1.9,-2.59l0.89 0.67c-0.24,1 -0.36,1.11 -0.79,1.9l-0.8 0.01 -1.2 0.01zm-4.38 3.44c0.01,1.4 -0.55,6.32 4.22,4.34 1.61,-0.67 3.24,-2.18 3.39,-4.02 -5.07,0.04 -1.42,1.22 -4.39,1.54 -0.85,-0.95 -0.12,-1.83 -0.02,-3.03l5.2 -0.04c0.96,-1.93 2.89,-8.23 -1.91,-7.46 -3.85,0.61 -6.5,7.07 -6.49,8.66z"/>
   <path class="fil3" d="M144.76 53.8c0.02,2.14 2.2,1.72 2.43,4.14 -2.84,1.83 -1.6,-0.75 -3.74,1.03 -4.02,3.33 6.99,5.29 6.93,-3.7 -0.01,-1.68 -1.79,-0.94 -2.03,-3.39 1.59,-0.73 3.85,0.51 3.98,-2.68 -5.44,-2.42 -7.58,3.31 -7.57,4.59z"/>
   <path class="fil3" d="M192.83 57.25c-1.15,-0.44 -3.39,0.36 -0.92,-4.98 0.75,-1.62 0.98,-1.83 3.27,-1.84 0.29,-1.23 0.67,-1.66 0.78,-3.03 -6.07,-2.27 -11.28,11.08 -7.11,12.95 0.81,0.37 1.99,0.2 2.78,-0.44 0.95,-0.77 0.75,-1.4 1.21,-2.65z"/>
   <path class="fil3" d="M176.75 48.66c-4.01,-2.49 -3.93,1.02 -5.43,5.82 -0.45,1.44 -0.83,2.56 -1.23,3.78 -0.71,2.16 -1.48,3.25 2.48,2.16 0.91,-2.16 1.4,-4.6 2.32,-7.09 1.67,-4.48 3.95,-0.54 4.25,-5.82 -1.8,0.15 -1.13,0.31 -2.39,1.15z"/>
   <path class="fil3" d="M105.89 49.91c-1.08,0.01 -1.1,0.19 -2,0.39l-3.59 11.64c-0.02,0.73 -0.84,0.87 1.28,0.86 2.47,-0.02 2.25,-2.74 3.78,-6.99 1.82,-5.05 4.08,-0.77 4.52,-6.3 -1.22,0.28 -1.42,0.67 -1.92,0.83 -2.01,0.63 -0.11,-0.44 -2.08,-0.42z"/>
   <path class="fil2" d="M195.77 23.56c4.12,-2.1 2.68,-0.02 5.61,-0.04 1.35,-0.01 2.65,-0.72 2.98,-1.81 0.58,-1.9 -1.37,-0.85 -2.6,-0.84 -0,0 -7.23,-2.66 -5.98,2.69z"/>
   <path class="fil3" d="M201.53 43.95c1.33,-0.01 0.84,0.75 1.61,0.75 2.23,-0.02 3.62,-1.63 3.57,-3.81 -2.27,0.19 -1.51,1.14 -2.39,1.15 -1.96,0.01 -2.14,-2.19 -4.53,0.29 -0.55,0.57 -1.4,1.51 -0.75,2.12 0.93,0.87 1.2,-0.49 2.5,-0.49z"/>
   <path class="fil2" d="M68.86 24.45c0.02,2.06 1.2,1.88 2.82,1.87 1.02,-1.85 1.06,-1.5 -0.03,-3.4 -1.05,0.01 -2.8,-0.18 -2.79,1.53z"/>
   <path class="fil3" d="M185.69 65.24c0.59,0.25 0.63,0.48 1.39,0.18l2.72 -3.23c-2.21,-1.29 -3.86,2.13 -4.11,3.05z"/>
   <path class="fil3" d="M234.23 26.7c-0.24,-2.54 -2.23,-3.09 -2.44,-5.28 -3.19,1.28 1.56,4.73 2.44,5.28z"/>
  </g>
 </g>
</svg>
