<?xml version="1.0" encoding="UTF-8"?>
<!DOCTYPE svg PUBLIC "-//W3C//DTD SVG 1.1//EN" "http://www.w3.org/Graphics/SVG/1.1/DTD/svg11.dtd">
<!-- Creator: CorelDRAW -->
<svg xmlns="http://www.w3.org/2000/svg" xml:space="preserve" width="30.1809mm" height="3.0755mm" version="1.1" style="shape-rendering:geometricPrecision; text-rendering:geometricPrecision; image-rendering:optimizeQuality; fill-rule:evenodd; clip-rule:evenodd"
viewBox="0 0 195.47 19.92"
 xmlns:xlink="http://www.w3.org/1999/xlink"
 xmlns:xodm="http://www.corel.com/coreldraw/odm/2003">
 <defs>
  <style type="text/css">
   <![CDATA[
    .fil0 {fill:black}
    .fil1 {fill:red}
   ]]>
  </style>
 </defs>
 <g id="Camada_x0020_1">
  <metadata id="CorelCorpID_0Corel-Layer"/>
  <g id="Figs_Frase_041">
   <path class="fil0" d="M82.47 7.77c0,-4.3 3.43,-3.67 7.34,-3.67 7.22,0 14.45,0 21.67,0 4.22,0 7.88,0.49 11.78,-0.29 1.71,-0.34 3.4,-0.77 4.67,-2.25 1.03,-1.2 0.69,-1.35 0.16,-1.48 -0.84,-0.2 -49.27,-0.02 -54.01,-0.02 -7.36,0 -7.11,0.18 -10.78,5.75 -1.9,2.88 -4.25,5.83 -0.06,5.99 6.07,0.22 35.14,-0.42 37.58,0.18 0.07,0.86 0.54,1.09 -0.74,2.52 -0.77,0.87 -0.66,1.17 -2.22,1.15l-20.11 -0.01c-4.37,0 -9.14,-0.19 -13.46,-0 -2.84,0.12 -5.58,0.83 -7.69,2.38 -1.55,1.14 -1.41,0.98 -1.22,1.83 0.78,-0.02 0.83,-0.21 1.75,-0.19 0.84,0.01 0.84,0.16 1.62,0.08 1.17,-0.12 2.42,-0.07 3.62,-0.07l41.25 -0.01c1.21,0 2.08,0.2 3.49,0.2 1.21,-0 2.07,-0.19 3.49,-0.19 6.69,0.01 6.57,-0.03 11.06,-8.02 1.41,-2.51 0.79,-3.51 -2.32,-3.71 -6.17,-0.39 -34.35,0.7 -36.88,-0.19z"/>
   <path class="fil1" d="M148.87 11.43c4.35,0.03 37.36,0.28 39.49,-0.2 1.84,-0.41 2.37,-1.52 3.31,-2.75 2.33,-3.06 6.04,-7.06 2.01,-7.91 -2,-0.42 -33.25,-0.22 -36.94,-0.22 -4.54,0 -9.12,0.09 -13.63,0.09 -2.52,0 -4.48,-0.23 -7.36,-0.01 -1.13,0.09 -0.75,0.27 -0.76,0.29 0.12,0.34 -0.02,0.22 0.54,0.7 2.45,2.08 4.05,2.14 7.41,2.14l27.09 0c1.9,0 3.2,-0.33 4.54,0.73 -0.09,1.42 -0.93,1.87 -1.7,2.62 -1.05,1.01 -1.08,1.07 -3.02,1.05l-24.47 -0c-3.63,0 -13.72,-0.56 -15.69,0.78 -1.46,0.99 -4.33,5.5 -5.32,7.25 -1.05,1.86 -1.33,3.13 0.98,3.65 2.33,0.53 11.28,0.15 14.1,0.24l47.53 0.01c1.52,-0.2 0.5,-1.16 -0.34,-1.84 -1.76,-1.43 -4.81,-1.85 -7.17,-1.84l-32.34 0.01c-3.15,0.03 -2.57,-1.59 -0.92,-3.36 1.08,-1.15 1.22,-1.43 2.66,-1.42z"/>
   <path class="fil0" d="M24.27 16.21c-0.19,-0.94 0.49,-1.34 1.19,-2.6l3.29 -5.53c0.42,-0.76 0.8,-1.23 1.23,-2.01l2.47 -4.01c0.56,-0.91 1.29,-1.8 0.43,-1.8l-19.09 0c-3.6,0 -5.65,4.84 -7.83,8.1 -0.31,0.47 -0.57,0.8 -0.86,1.3 -0.31,0.54 -0.45,0.76 -0.77,1.2 -0.83,1.17 -4.51,6.61 -4.31,7.54 0.27,0.42 0.47,0.77 0.96,0.98 0.21,0.09 1.33,0.31 1.63,0.31l43.52 0c2.93,0 7.42,-0.52 9.09,-3.11 -0.69,-0.38 -0.53,-0.37 -1.4,-0.35l-29.54 -0.01z"/>
  </g>
 </g>
</svg>
