<?xml version="1.0" encoding="UTF-8"?>
<!DOCTYPE svg PUBLIC "-//W3C//DTD SVG 1.1//EN" "http://www.w3.org/Graphics/SVG/1.1/DTD/svg11.dtd">
<!-- Creator: CorelDRAW -->
<svg xmlns="http://www.w3.org/2000/svg" xml:space="preserve" width="35.2179mm" height="35.218mm" version="1.1" style="shape-rendering:geometricPrecision; text-rendering:geometricPrecision; image-rendering:optimizeQuality; fill-rule:evenodd; clip-rule:evenodd"
viewBox="0 0 3507.58 3507.59"
 xmlns:xlink="http://www.w3.org/1999/xlink"
 xmlns:xodm="http://www.corel.com/coreldraw/odm/2003">
 <defs>
  <style type="text/css">
   <![CDATA[
    .fil1 {fill:black}
    .fil0 {fill:red}
   ]]>
  </style>
 </defs>
 <g id="Camada_x0020_1">
  <metadata id="CorelCorpID_0Corel-Layer"/>
  <rect class="fil0" x="27.05" y="27.06" width="3453.46" height="3453.46" rx="1726.73" ry="1726.73"/>
  <path class="fil1" d="M1753.78 0l0 0c964.58,0 1753.79,789.21 1753.79,1753.79l0 0c0,964.58 -789.21,1753.79 -1753.79,1753.79l0 0c-964.58,0 -1753.79,-789.21 -1753.79,-1753.79l0 0c0,-964.58 789.21,-1753.79 1753.79,-1753.79zm-372.24 2254.42l744.48 0 0 -305.72 296.34 -349.79 0 -409.24c-445.18,251.84 -891.82,250.57 -1337.16,-0.11l0 409.35 296.34 349.79 0 305.72zm-37.55 -292.05l-296.35 -349.79 0 -488.13c492.56,289.01 920,290.18 1412.28,-0.11l0 488.24 -296.35 349.79 0 460.5 -819.58 0 0 -460.5zm759.14 1066.95c-229.59,58.68 -472.8,53.14 -698.7,-15.44l0 -53.2c-524.04,-151.33 -907.28,-634.47 -907.28,-1207.16 0,-693.91 562.61,-1256.42 1256.63,-1256.42 694.02,0 1256.63,562.51 1256.63,1256.42 0,572.68 -383.25,1055.83 -907.27,1207.16l0 68.64zm-349.35 -2961.41c931.09,0 1685.89,754.67 1685.89,1685.61 0,799.66 -556.93,1469.25 -1304.14,1642.2l0 -403.86c529.29,-162.93 913.99,-655.7 913.99,-1238.33 0,-715.49 -580.13,-1295.52 -1295.74,-1295.52 -715.61,0 -1295.74,580.03 -1295.74,1295.52 0,582.63 384.7,1075.41 913.99,1238.33l0 403.86c-747.2,-172.95 -1304.14,-842.54 -1304.14,-1642.2 0,-930.94 754.8,-1685.61 1685.89,-1685.61zm-1394.62 1020.71c79.93,0 144.7,64.78 144.7,144.68 0,79.9 -64.78,144.68 -144.7,144.68 -79.92,0 -144.7,-64.79 -144.7,-144.68 0,-79.91 64.79,-144.68 144.7,-144.68zm2789.24 0c79.92,0 144.7,64.78 144.7,144.68 0,79.9 -64.79,144.68 -144.7,144.68 -79.93,0 -144.7,-64.79 -144.7,-144.68 0,-79.91 64.78,-144.68 144.7,-144.68zm-331.67 1554.04c79.91,0 144.7,64.79 144.7,144.68 0,79.91 -64.8,144.68 -144.7,144.68 -79.93,0 -144.71,-64.78 -144.71,-144.68 0,-79.9 64.79,-144.68 144.71,-144.68zm-2125.9 0c79.92,0 144.7,64.79 144.7,144.68 0,79.91 -64.79,144.68 -144.7,144.68 -79.92,0 -144.71,-64.78 -144.71,-144.68 0,-79.9 64.8,-144.68 144.71,-144.68zm1062.94 -2522.69c79.93,0 144.71,64.78 144.71,144.68 0,79.9 -64.79,144.68 -144.71,144.68 -79.93,0 -144.71,-64.79 -144.71,-144.68 0,-79.91 64.79,-144.68 144.71,-144.68zm349.35 2958.7c-229.59,58.67 -472.8,53.14 -698.7,-15.44l0 96.97c211.01,103.75 457.19,101.24 698.7,15.9l0 -97.43z"/>
 </g>
</svg>
