<?xml version="1.0" encoding="UTF-8"?>
<!DOCTYPE svg PUBLIC "-//W3C//DTD SVG 1.1//EN" "http://www.w3.org/Graphics/SVG/1.1/DTD/svg11.dtd">
<!-- Creator: CorelDRAW 2020 (64 Bit) -->
<svg xmlns="http://www.w3.org/2000/svg" xml:space="preserve" width="135.189mm" height="135.189mm" version="1.1" style="shape-rendering:geometricPrecision; text-rendering:geometricPrecision; image-rendering:optimizeQuality; fill-rule:evenodd; clip-rule:evenodd"
viewBox="0 0 13504.66 13504.66"
 xmlns:xlink="http://www.w3.org/1999/xlink"
 xmlns:xodm="http://www.corel.com/coreldraw/odm/2003">
 <defs>
  <style type="text/css">
   <![CDATA[
    .fil0 {fill:#FFA725}
   ]]>
  </style>
 </defs>
 <g id="Camada_x0020_1">
  <metadata id="CorelCorpID_0Corel-Layer"/>
  <path class="fil0" d="M335.23 335.23c446.95,-446.96 1178.33,-446.96 1625.29,0l4791.82 4791.82 4791.82 -4791.82c446.96,-446.96 1178.34,-446.96 1625.29,0 446.96,446.95 446.96,1178.33 0,1625.29l-4791.82 4791.82 4791.82 4791.82c446.96,446.96 446.96,1178.34 0,1625.29 -446.95,446.96 -1178.33,446.96 -1625.29,0l-4791.82 -4791.82 -4791.82 4791.82c-446.96,446.96 -1178.34,446.96 -1625.29,0 -446.96,-446.95 -446.96,-1178.33 0,-1625.29l4791.82 -4791.82 -4791.82 -4791.82c-446.96,-446.96 -446.96,-1178.34 0,-1625.29z"/>
 </g>
</svg>
