<?xml version="1.0" encoding="UTF-8"?>
<!DOCTYPE svg PUBLIC "-//W3C//DTD SVG 1.1//EN" "http://www.w3.org/Graphics/SVG/1.1/DTD/svg11.dtd">
<!-- Creator: CorelDRAW -->
<svg xmlns="http://www.w3.org/2000/svg" xml:space="preserve" width="17.9435mm" height="20.6532mm" version="1.1" style="shape-rendering:geometricPrecision; text-rendering:geometricPrecision; image-rendering:optimizeQuality; fill-rule:evenodd; clip-rule:evenodd"
viewBox="0 0 1780.21 2049.05"
 xmlns:xlink="http://www.w3.org/1999/xlink"
 xmlns:xodm="http://www.corel.com/coreldraw/odm/2003">
 <defs>
  <style type="text/css">
   <![CDATA[
    .fil0 {fill:white}
   ]]>
  </style>
 </defs>
 <g id="Camada_x0020_1">
  <metadata id="CorelCorpID_0Corel-Layer"/>
  <path class="fil0" d="M561.02 1808.88c-0.02,287.54 -45.34,236.69 545.38,236.69 61.36,0 102.91,-20.99 102.9,-82.34 0,-331.99 4.94,-651.8 4.94,-985.02l473.34 0c62.84,-0.01 92.6,-63.68 92.61,-72.03 -0.01,-68.13 -48.44,-94.8 -84.89,-131.22l-565.98 -565.96c-249.54,-249.54 -218.16,-260.33 -365.31,-113.18l-668.85 668.85c-32.45,32.46 -95.18,75.33 -95.18,131.2 0,49.77 32.54,82.34 82.34,82.34l483.62 -0.01c0,277.51 -2.75,553.42 -4.93,830.67z"/>
 </g>
</svg>
