<?xml version="1.0" encoding="UTF-8"?>
<!DOCTYPE svg PUBLIC "-//W3C//DTD SVG 1.1//EN" "http://www.w3.org/Graphics/SVG/1.1/DTD/svg11.dtd">
<!-- Creator: CorelDRAW 2020 (64 Bit) -->
<svg xmlns="http://www.w3.org/2000/svg" xml:space="preserve" width="14.6455cm" height="12.2378cm" version="1.1" style="shape-rendering:geometricPrecision; text-rendering:geometricPrecision; image-rendering:optimizeQuality; fill-rule:evenodd; clip-rule:evenodd"
viewBox="0 0 66 55"
 xmlns:xlink="http://www.w3.org/1999/xlink"
 xmlns:xodm="http://www.corel.com/coreldraw/odm/2003">
 <defs>
  <style type="text/css">
   <![CDATA[
    .fil0 {fill:black}
   ]]>
  </style>
 </defs>
 <g id="Camada_x0020_1">
  <metadata id="CorelCorpID_0Corel-Layer"/>
  <path class="fil0" d="M49 34l-6 0 4 -16 6 0 -4 16zm15 -17c-1,1 -2,0 -4,0 0,2 -1,4 -2,6l-3 12c-1,2 -1,4 -2,5 -1,1 -2,1 -3,1l-26 0 1 3 23 1c2,0 5,0 7,2 4,4 0,10 -5,7 -2,-1 -3,-2 -3,-4l-22 0c0,4 -4,6 -8,3 -2,-2 -2,-6 1,-7l-10 -36 -1 -2c0,-1 0,0 0,-1 0,0 -1,0 -2,0 -3,-1 -6,-1 -6,-4 0,-1 2,-3 3,-3 1,0 2,0 2,1 2,1 3,1 4,1 2,1 3,1 4,5l1 4 47 0c4,0 5,5 2,6zm-47 1l6 0 4 16 -6 0 -4 -16zm13 0l10 0 -3 16 -4 0 -3 -16z"/>
 </g>
</svg>
