<?xml version="1.0" encoding="UTF-8"?>
<!DOCTYPE svg PUBLIC "-//W3C//DTD SVG 1.1//EN" "http://www.w3.org/Graphics/SVG/1.1/DTD/svg11.dtd">
<!-- Creator: CorelDRAW 2020 (64 Bit) -->
<svg xmlns="http://www.w3.org/2000/svg" xml:space="preserve" width="109.437mm" height="143.014mm" version="1.1" style="shape-rendering:geometricPrecision; text-rendering:geometricPrecision; image-rendering:optimizeQuality; fill-rule:evenodd; clip-rule:evenodd"
viewBox="0 0 9209.8 12035.48"
 xmlns:xlink="http://www.w3.org/1999/xlink"
 xmlns:xodm="http://www.corel.com/coreldraw/odm/2003">
 <defs>
  <style type="text/css">
   <![CDATA[
    .fil0 {fill:black}
   ]]>
  </style>
 </defs>
 <g id="Camada_x0020_1">
  <metadata id="CorelCorpID_0Corel-Layer"/>
  <path class="fil0" d="M4641.06 5401.8l4558.84 1008.37c64.07,-787.69 -188.48,-1202.64 -591.23,-1451.2 -460.1,-283.93 -2455.62,-745.19 -2958.48,-628.93 -519.23,120.07 -994,636.58 -1009.12,1071.76zm-3171.57 4383.88c1171.54,-474.93 2522.19,-1290.21 3249.68,-2322.39 140.6,-199.49 461.31,-817.56 522.15,-1100.14 -180.33,-61.12 -668,-227.79 -873.1,-243.89 -128.09,581.16 -768.85,1378.55 -1341.98,1792.17 -1521.96,1098.36 -2720.7,1094.34 -2940.45,1345.19 -120.71,137.82 -117.92,411.27 33.06,590.07 755.29,894.56 2974.74,1714.18 4212.39,1949.7 1368.42,260.4 3174.7,418.29 3500.57,-124.46 413.11,-687.99 1218.57,-3434.41 1214.46,-4477.1l-839.01 -192.12c-147.15,1708.37 -502.61,2795.33 -1074.19,4055.95 -324.3,68.49 -1042.27,68.81 -1350.39,28.59 175.94,-482.83 522.11,-1100.22 578.48,-1684.01 -244.06,219.91 -357.97,397.05 -582.87,649.05 -1184.53,1327.34 -1648.11,731.71 -2408.77,628.21 216.15,-299.33 380.02,-621.48 452.68,-1056.52 -1308.38,1137.94 -1116.93,712.26 -2352.71,161.7zm5185.5 -6046.21l1416.95 355.21c98.47,-231.13 451.12,-2677.29 537.58,-3252.23 69.95,-465.08 119.78,-769.96 -387.27,-834.42 -559.29,-71.1 -529.73,344.06 -655.47,709.8l-911.8 3021.64z"/>
 </g>
</svg>
