<?xml version="1.0" encoding="UTF-8"?>
<!DOCTYPE svg PUBLIC "-//W3C//DTD SVG 1.1//EN" "http://www.w3.org/Graphics/SVG/1.1/DTD/svg11.dtd">
<!-- Creator: CorelDRAW 2020 (64 Bit) -->
<svg xmlns="http://www.w3.org/2000/svg" xml:space="preserve" width="90.1628mm" height="90.1628mm" version="1.1" style="shape-rendering:geometricPrecision; text-rendering:geometricPrecision; image-rendering:optimizeQuality; fill-rule:evenodd; clip-rule:evenodd"
viewBox="0 0 9002.04 9002.04"
 xmlns:xlink="http://www.w3.org/1999/xlink"
 xmlns:xodm="http://www.corel.com/coreldraw/odm/2003">
 <defs>
  <style type="text/css">
   <![CDATA[
    .fil0 {fill:#FFA725}
   ]]>
  </style>
 </defs>
 <g id="Camada_x0020_1">
  <metadata id="CorelCorpID_0Corel-Layer"/>
  <path class="fil0" d="M223.46 223.46c297.93,-297.94 785.46,-297.94 1083.4,0l3194.17 3194.17 3194.17 -3194.17c297.94,-297.94 785.47,-297.94 1083.4,0 297.94,297.93 297.94,785.46 0,1083.4l-3194.17 3194.17 3194.17 3194.17c297.94,297.94 297.94,785.47 0,1083.4 -297.93,297.94 -785.46,297.94 -1083.4,0l-3194.17 -3194.17 -3194.17 3194.17c-297.94,297.94 -785.47,297.94 -1083.4,0 -297.94,-297.93 -297.94,-785.46 0,-1083.4l3194.17 -3194.17 -3194.17 -3194.17c-297.94,-297.94 -297.94,-785.47 0,-1083.4z"/>
 </g>
</svg>
