<?xml version="1.0" encoding="UTF-8"?>
<!DOCTYPE svg PUBLIC "-//W3C//DTD SVG 1.1//EN" "http://www.w3.org/Graphics/SVG/1.1/DTD/svg11.dtd">
<!-- Creator: CorelDRAW 2020 (64 Bit) -->
<svg xmlns="http://www.w3.org/2000/svg" xml:space="preserve" width="130.628mm" height="160.742mm" version="1.1" style="shape-rendering:geometricPrecision; text-rendering:geometricPrecision; image-rendering:optimizeQuality; fill-rule:evenodd; clip-rule:evenodd"
viewBox="0 0 13061.74 16072.9"
 xmlns:xlink="http://www.w3.org/1999/xlink"
 xmlns:xodm="http://www.corel.com/coreldraw/odm/2003">
 <defs>
  <style type="text/css">
   <![CDATA[
    .fil0 {fill:#FFA725}
   ]]>
  </style>
 </defs>
 <g id="Camada_x0020_1">
  <metadata id="CorelCorpID_0Corel-Layer"/>
  <path class="fil0" d="M2026.21 13939.32l0 -8918.15 9015.01 0 0 8918.15c0,615.13 -385.14,1086.79 -991.01,1086.79l-7032.99 0c-605.86,0 -991,-471.66 -991,-1086.79zm10101.93 -11922.84c-84.94,-53.89 -218.43,-32.14 -351.64,-31.96l-2717.3 0 0 -95.9c0,-657.58 149.95,-1342.37 -472.14,-1733.47 -299.24,-188.12 -509.12,-152.45 -966.42,-152.45l-2237.77 0c-461.16,0 -649.8,-22.17 -941.17,177.71 -545.15,373.97 -433.46,941.42 -433.46,1804.11 -660.68,0 -1321.35,0 -1982.02,0 -716.25,0 -1348.63,-77.19 -1719.39,294.58 -53.59,53.72 -164.39,218.21 -197.68,281.81 -159.1,303.82 -96.99,1006.01 -98.11,1438.58 -1.48,569.5 430.84,1021.68 992.2,1021.68 0,2759.62 0,5519.24 0,8278.85 0,903.93 -41.85,1718.89 753.03,2315.66 813.13,610.5 1572.37,433.31 2699.53,433.31 1105.62,0 5694.2,69.56 6134.91,-66.9 518.71,-160.64 935.97,-460.16 1184.88,-892.95 333.91,-580.58 288.62,-914.35 288.62,-1789.12 0,-2759.62 0,-5519.24 0,-8278.85 367.14,0 643.57,-195.43 804.94,-409.83 214.44,-284.91 186.09,-581.72 186.09,-1060.55 0,-468.75 53.55,-765.46 -146.05,-1068.62 -162.23,-246.41 -389.96,-465.68 -781.03,-465.68zm-3612.4 5593.83l0 5849.54c0,818.41 1022.98,716.79 1022.98,159.82l0 -6169.18c0,-532.77 -1022.98,-696.34 -1022.98,159.83zm-4987.03 -159.83l0 6169.18c0,528.1 1022.98,696.86 1022.98,-159.82l0 -5849.54c0,-847.3 -1022.98,-695.22 -1022.98,-159.83zm2493.51 63.93l0 6041.32c0,664.52 1022.99,664.52 1022.99,0l0 -6041.32c0,-673.83 -1022.99,-673.83 -1022.99,0zm-4987.03 -3995.59c0,-339.48 265.86,-511.44 607.39,-511.44l9782.25 0c844.44,0 745.86,990.9 95.9,990.9l-9974.06 0c-278.76,0 -511.49,-206.62 -511.49,-479.46zm3996.02 -1917.89c0,-336.46 180.78,-575.36 511.5,-575.36l1982.01 0c576.1,0 511.5,587.92 511.5,958.94l-3005.01 0 0 -383.58z"/>
 </g>
</svg>
