<?xml version="1.0" encoding="UTF-8"?>
<!DOCTYPE svg PUBLIC "-//W3C//DTD SVG 1.1//EN" "http://www.w3.org/Graphics/SVG/1.1/DTD/svg11.dtd">
<!-- Creator: CorelDRAW 2020 (64 Bit) -->
<svg xmlns="http://www.w3.org/2000/svg" xml:space="preserve" width="12.8233cm" height="14.4652cm" version="1.1" style="shape-rendering:geometricPrecision; text-rendering:geometricPrecision; image-rendering:optimizeQuality; fill-rule:evenodd; clip-rule:evenodd"
viewBox="0 0 51 58"
 xmlns:xlink="http://www.w3.org/1999/xlink"
 xmlns:xodm="http://www.corel.com/coreldraw/odm/2003">
 <defs>
  <style type="text/css">
   <![CDATA[
    .fil0 {fill:black}
   ]]>
  </style>
 </defs>
 <g id="Camada_x0020_1">
  <metadata id="CorelCorpID_0Corel-Layer"/>
  <path class="fil0" d="M28 48c-2,-5 0,-10 6,-12 4,-1 7,1 9,5 2,5 1,9 -4,12 -4,2 -10,0 -11,-4l0 0 0 0zm9 2c0,-1 -1,-1 -1,-1 -2,0 -2,3 0,3 1,0 1,-1 1,-1zm-1 -3c1,0 1,-2 1,-2 0,-1 1,-4 0,-5 0,-1 -1,-1 -2,-1 -1,0 -1,1 -1,2 0,1 0,3 0,4 0,1 0,3 1,3l0 0 0 0zm-13 -33l0 11 -7 0c-1,0 -2,1 -2,2 0,1 1,2 2,2l9 0c1,0 2,-1 2,-2l0 -13c0,-1 -1,-2 -2,-2 -1,0 -2,1 -2,2zm0 -10c0,3 -1,6 2,6 3,0 2,-4 2,-6 12,1 19,9 19,21l-5 0c-2,0 -3,2 -1,4 1,1 3,1 5,1 0,2 -1,5 -1,5 0,0 -2,-1 -2,-1 -4,-2 -11,-2 -15,1 -3,2 -4,5 -4,8 0,1 0,3 0,4 -9,-1 -16,-6 -18,-15 0,-1 0,-1 0,-2l4 0c3,0 3,-4 0,-4l-4 0c0,-11 6,-19 17,-21 1,0 1,0 1,0zm2 47c0,1 1,2 2,2 4,4 8,5 13,4 7,-2 10,-8 9,-15 0,-1 0,-2 -1,-3 0,-1 0,-1 0,-2 5,-10 4,-22 -4,-30 -5,-5 -11,-7 -17,-8 -9,0 -16,3 -22,10 -3,5 -5,10 -5,16 1,16 9,25 25,26z"/>
 </g>
</svg>
