<?xml version="1.0" encoding="UTF-8"?>
<!DOCTYPE svg PUBLIC "-//W3C//DTD SVG 1.1//EN" "http://www.w3.org/Graphics/SVG/1.1/DTD/svg11.dtd">
<!-- Creator: CorelDRAW -->
<svg xmlns="http://www.w3.org/2000/svg" xml:space="preserve" width="28.8288mm" height="25.6604mm" version="1.1" style="shape-rendering:geometricPrecision; text-rendering:geometricPrecision; image-rendering:optimizeQuality; fill-rule:evenodd; clip-rule:evenodd"
viewBox="0 0 2868.69 2553.41"
 xmlns:xlink="http://www.w3.org/1999/xlink"
 xmlns:xodm="http://www.corel.com/coreldraw/odm/2003">
 <defs>
  <style type="text/css">
   <![CDATA[
    .fil0 {fill:black}
   ]]>
  </style>
 </defs>
 <g id="Camada_x0020_1">
  <metadata id="CorelCorpID_0Corel-Layer"/>
  <path class="fil0" d="M2249.46 52.11l0 306.15 -449.45 0c-409.6,17.39 -625.82,322.27 -780.91,663.25 -82.08,180.48 -229.69,556.21 -365.15,676.43 -129.08,114.56 -338.61,88.12 -501.94,86.84 -182.01,-0.01 -149.82,-28.7 -149.82,345.23 0,38.85 13.28,65.14 52.11,65.14l403.85 0c225.59,-6.07 402.26,-109.55 544.7,-276.36 216.47,-259.28 315.34,-589.51 469.3,-885.26 72.63,-136.26 183.74,-264.9 353.91,-264.9l423.4 0 0 299.64c0,39.77 40.31,58.62 45.59,58.62 43.13,0 60,-30.66 83.06,-53.73l358.26 -358.27c157.96,-157.96 164.79,-138.1 71.65,-231.24l-423.4 -423.4c-20.54,-20.55 -47.68,-60.25 -83.05,-60.25 -31.5,0 -52.11,20.6 -52.11,52.11zm-1061.75 1784.78c67.07,84.28 85.17,111.01 170.87,187.37 255.91,221.22 578.08,171.82 890.87,170.88l0 306.15c0,44.21 31.24,52.11 65.14,52.11 21.7,0 262.82,-253.04 281.73,-271.94 333.06,-333.07 328.83,-254.15 146.56,-436.43l-286.6 -286.6c-27.38,-27.38 -117.04,-131.91 -154.7,-131.91 -30.55,0 -52.11,27.05 -52.11,58.62l0 299.64c-130.43,0 -267.7,3.07 -397.19,0.28 -241.55,-5.21 -319.98,-153.55 -419.57,-340.38 -8.35,-15.66 -16.65,-32.22 -30.03,-44.21 -18.35,78.76 -175.82,377.98 -214.96,436.42zm-1185.52 -1413.5l0 286.6c0,127.2 353.54,6.37 557.56,87.31 180.04,71.43 258.48,328.34 295.75,355.63 2.53,-30.36 35.12,-86.46 47.48,-115.36 36.1,-84.45 122.35,-253.69 167.48,-321.06 -14.58,-21.76 -92,-114.93 -108.98,-132.03 -149.9,-147.66 -322.93,-226.45 -534.38,-226.27 -124.27,0.11 -248.53,0.04 -372.8,0.04 -38.83,0 -52.11,26.29 -52.11,65.14z"/>
 </g>
</svg>
