<?xml version="1.0" encoding="UTF-8"?>
<!DOCTYPE svg PUBLIC "-//W3C//DTD SVG 1.1//EN" "http://www.w3.org/Graphics/SVG/1.1/DTD/svg11.dtd">
<!-- Creator: CorelDRAW 2020 (64 Bit) -->
<svg xmlns="http://www.w3.org/2000/svg" xml:space="preserve" width="140.139mm" height="157.72mm" version="1.1" style="shape-rendering:geometricPrecision; text-rendering:geometricPrecision; image-rendering:optimizeQuality; fill-rule:evenodd; clip-rule:evenodd"
viewBox="0 0 13999.65 15755.97"
 xmlns:xlink="http://www.w3.org/1999/xlink"
 xmlns:xodm="http://www.corel.com/coreldraw/odm/2003">
 <defs>
  <style type="text/css">
   <![CDATA[
    .fil0 {fill:#FF6600}
   ]]>
  </style>
 </defs>
 <g id="Camada_x0020_1">
  <metadata id="CorelCorpID_0Corel-Layer"/>
  <g id="_1912841770544">
   <path class="fil0" d="M7583.15 12110.21c0,-1790.26 2436.6,-3037.88 4001.55,-1485.98 863.29,856.1 929.98,2382.64 -36.07,3336.91 -1190.12,1175.6 -3965.47,769.56 -3965.47,-1850.95l0 0.01zm1968.7 1567.68c0,468.74 729.15,468.74 729.15,0 0,-453.1 -729.15,-453.1 -729.15,0zm0 -2770.76c0,415.59 54.5,759.66 72.99,1130.11 14.57,291.97 -17.35,911.5 255.14,911.5 323.04,0 270.57,-448.97 318.05,-812.11 21.83,-166.93 35.51,-394.36 45.24,-538.09 18.03,-266.29 82.89,-615.85 -32.32,-876.6 -109.76,-248.45 -418.1,-162.42 -521.5,-78.47 -49.89,40.53 -137.6,189.02 -137.6,263.66zm-3135.34 -6890.47l0 2989.51 -1822.88 0c-264.4,0 -510.41,252.89 -510.41,656.23 0,227.67 282.75,510.41 510.41,510.41l2406.18 0c329.49,0 583.33,-253.82 583.33,-583.33l0 -3572.82c0,-264.4 -252.9,-510.4 -656.23,-510.4 -227.66,0 -510.41,282.74 -510.41,510.4l0.01 0zm-5176.95 2770.77c0,-821.84 234.09,-1647.46 468.22,-2229.62 231.74,-576.25 647.53,-1240.08 1053.83,-1644.03 723.31,-719.09 1075.45,-985.41 2035.17,-1355.36 415.16,-160.04 1186.9,-348.97 1619.72,-348.97 0,774.38 -178.35,1742.32 583.32,1742.32 761.67,0 583.33,-967.93 583.33,-1742.32 321.01,7.13 854.22,121.87 1181.66,203.7 726.45,181.6 1296.95,470.73 1880.95,889.84 270.29,193.98 480.59,428.31 720.19,665.19 969.51,958.52 1467.1,2656.2 1467.1,4037.97l-1239.56 0c-445.47,0 -701.8,659.45 -344.92,1001.15 274.54,262.88 839.14,165.48 1438.65,165.48 -9.45,424.52 -389.38,1245.48 -401.02,1385.38 -112.44,-30.03 -418.6,-338.77 -916.08,-542.23 -1273.63,-520.95 -2952.97,-304.44 -3978.54,715.19 -536.48,533.4 -975.04,1497.24 -975.04,2306.14l36.47 765.61c-1573.26,0 -3074.21,-900.36 -4035.84,-2089.04 -479.46,-592.67 -1068.2,-1839.52 -1068.2,-2541.07l984.35 0c809.95,0 713.44,-1166.63 72.92,-1166.63l-1166.63 0 0 -218.74 -0.02 0.03zm-1239.56 -182.28c0,1247.93 92.06,2405.31 619.37,3463.85 419.79,842.66 641.96,1279.17 1376.68,2013.88 1287.67,1287.67 2923.13,1923.12 4857.96,1923.12 42.53,182.54 304.26,538.37 427.61,666.1 578.26,598.79 1391.5,1083.87 2270.23,1083.87 1217.19,0 2006.42,-92.35 2871.05,-957 544.63,-544.63 993.45,-1450.24 993.45,-2287.72 0,-604.69 -10.83,-1147.32 -257.68,-1676.52 -114.1,-244.62 -37.36,-249.98 87.53,-498.78 623.41,-1241.9 753.45,-2213.53 753.45,-3657.89 0,-2234.58 -1367.82,-4738.55 -3329.45,-5784.9 -192.3,-102.59 -361.98,-184.87 -558.84,-279.69 -1716.26,-826.53 -4439.62,-801.55 -6173.56,-23.42 -667.05,299.37 -990.85,529.37 -1531.92,947.18 -158.9,122.7 -281.02,263.44 -428.05,410.47 -301.08,301.08 -504.91,533.1 -745.54,895.05 -362.78,545.66 -347.19,550.11 -600.31,1076.73 -292.56,608.64 -631.97,1805.96 -631.97,2685.67l-0.01 0z"/>
  </g>
 </g>
</svg>
