<?xml version="1.0" encoding="UTF-8"?>
<!DOCTYPE svg PUBLIC "-//W3C//DTD SVG 1.1//EN" "http://www.w3.org/Graphics/SVG/1.1/DTD/svg11.dtd">
<!-- Creator: CorelDRAW -->
<svg xmlns="http://www.w3.org/2000/svg" xml:space="preserve" width="30.2676mm" height="24.4196mm" version="1.1" style="shape-rendering:geometricPrecision; text-rendering:geometricPrecision; image-rendering:optimizeQuality; fill-rule:evenodd; clip-rule:evenodd"
viewBox="0 0 3012.57 2430.51"
 xmlns:xlink="http://www.w3.org/1999/xlink"
 xmlns:xodm="http://www.corel.com/coreldraw/odm/2003">
 <defs>
  <style type="text/css">
   <![CDATA[
    .fil0 {fill:black}
   ]]>
  </style>
 </defs>
 <g id="Camada_x0020_1">
  <metadata id="CorelCorpID_0Corel-Layer"/>
  <path class="fil0" d="M843.24 1182.34c107.28,6.43 313.77,101.46 313.77,-53.19 0,-65.71 -327.49,-366.94 -414.15,-453.6 -114,-113.99 -150.81,-179.21 -258.59,-70.14 -62.27,63 -484.27,464.03 -484.27,497.45 0,197.31 155.12,91.14 379.66,65.72l0 859.57c0,221.29 197.82,402.76 439.6,402.35l1181.31 -1.54c33.83,0 61.51,-27.67 61.51,-61.5 0,-380.94 70.01,-319.84 -374.36,-319.9 -1030.35,-0.14 -927.21,89.84 -927.21,-873.8 26.71,2.6 54.21,5.49 82.72,8.59zm1326.09 65.83c-107.28,-6.43 -313.77,-101.46 -313.77,53.19 0,65.71 327.49,366.94 414.15,453.6 114,113.99 150.81,179.21 258.59,70.14 62.27,-63 484.27,-464.03 484.27,-497.45 0,-197.31 -155.12,-91.14 -379.66,-65.72l0 -859.57c0,-221.29 -197.82,-402.76 -439.6,-402.35l-1181.31 1.54c-33.83,0 -61.51,27.67 -61.51,61.5 0,380.94 -70.01,319.84 374.36,319.9 1030.35,0.14 927.21,-89.84 927.21,873.8 -26.71,-2.6 -54.21,-5.49 -82.72,-8.59z"/>
 </g>
</svg>
