<?xml version="1.0" encoding="UTF-8"?>
<!DOCTYPE svg PUBLIC "-//W3C//DTD SVG 1.1//EN" "http://www.w3.org/Graphics/SVG/1.1/DTD/svg11.dtd">
<!-- Creator: CorelDRAW 2020 (64 Bit) -->
<svg xmlns="http://www.w3.org/2000/svg" xml:space="preserve" width="65.073mm" height="65.073mm" version="1.1" style="shape-rendering:geometricPrecision; text-rendering:geometricPrecision; image-rendering:optimizeQuality; fill-rule:evenodd; clip-rule:evenodd"
viewBox="0 0 6493.07 6493.07"
 xmlns:xlink="http://www.w3.org/1999/xlink"
 xmlns:xodm="http://www.corel.com/coreldraw/odm/2003">
 <defs>
  <style type="text/css">
   <![CDATA[
    .fil0 {fill:black}
    .fil1 {fill:#FF6600}
   ]]>
  </style>
 </defs>
 <g id="Camada_x0020_1">
  <metadata id="CorelCorpID_0Corel-Layer"/>
  <path class="fil0" d="M3246.54 63.89c1757.73,0 3182.65,1424.92 3182.65,3182.65 0,1757.73 -1424.92,3182.65 -3182.65,3182.65 -1757.73,0 -3182.65,-1424.92 -3182.65,-3182.65 0,-1757.73 1424.92,-3182.65 3182.65,-3182.65z"/>
  <path class="fil1" d="M3246.54 0c1793.01,0 3246.54,1453.52 3246.54,3246.54 0,1793.01 -1453.52,3246.54 -3246.54,3246.54 -1793.01,0 -3246.54,-1453.52 -3246.54,-3246.54 0,-1793.01 1453.52,-3246.54 3246.54,-3246.54zm-1657.73 2746.62l1418.78 -1418.77 0 -0.01c2.06,-2.06 4.12,-4.07 6.22,-6.06l0.01 -0.01c2.1,-1.99 4.2,-3.93 6.34,-5.86l0 -0.01c2.14,-1.93 4.28,-3.8 6.46,-5.67l0 -0.01c2.17,-1.86 4.36,-3.68 6.57,-5.48l0 -0.01c2.21,-1.8 4.42,-3.55 6.67,-5.29l0.01 -0.01c2.24,-1.73 4.49,-3.42 6.77,-5.09l0.01 -0.01c2.28,-1.67 4.57,-3.29 6.87,-4.9l0 -0.01c2.31,-1.61 4.62,-3.17 6.96,-4.71l0.01 -0.01c2.33,-1.54 4.69,-3.03 7.05,-4.51l0 -0.01c2.37,-1.48 4.76,-2.91 7.15,-4.33 2.4,-1.41 4.81,-2.78 7.23,-4.13l0 -0.01c2.42,-1.35 4.86,-2.66 7.31,-3.94l0.01 -0.01c2.44,-1.29 4.91,-2.52 7.38,-3.74l0 -0.01c2.48,-1.22 4.96,-2.4 7.46,-3.55l0.01 -0.01c2.5,-1.16 5,-2.28 7.52,-3.36l0.01 0c2.52,-1.09 5.05,-2.15 7.59,-3.17l0 -0.01c2.54,-1.03 5.09,-2.01 7.65,-2.97l0.01 -0.01c2.56,-0.96 5.13,-1.89 7.71,-2.78 2.58,-0.91 5.18,-1.77 7.77,-2.6 2.6,-0.84 5.2,-1.64 7.81,-2.4l0.01 0c2.62,-0.77 5.23,-1.51 7.86,-2.22l0.01 0c2.62,-0.7 5.26,-1.38 7.9,-2.02l0 -0.01c2.64,-0.65 5.29,-1.25 7.94,-1.83l0.01 0c2.65,-0.58 5.31,-1.13 7.97,-1.64l0.01 0c2.66,-0.51 5.33,-0.99 8,-1.44l0.01 -0.01c2.67,-0.45 5.35,-0.86 8.03,-1.25 2.68,-0.38 5.37,-0.74 8.06,-1.06 2.69,-0.32 5.37,-0.61 8.07,-0.87l0.01 0c2.69,-0.26 5.39,-0.47 8.09,-0.67l0.01 0c2.7,-0.19 5.4,-0.36 8.1,-0.49 2.7,-0.13 5.41,-0.22 8.11,-0.28l0.01 0c2.7,-0.06 5.41,-0.1 8.11,-0.1 2.7,0 5.41,0.04 8.11,0.1l0.01 0c2.7,0.07 5.41,0.15 8.11,0.28 2.71,0.13 5.4,0.3 8.1,0.49l0.01 0c2.69,0.19 5.4,0.41 8.09,0.67l0.01 0 8.07 0.87c2.69,0.32 5.38,0.67 8.06,1.06 2.69,0.38 5.35,0.8 8.03,1.25l0.01 0.01c2.67,0.45 5.34,0.93 8,1.44l0.01 0c2.66,0.52 5.32,1.06 7.97,1.64l0.01 0c2.65,0.58 5.3,1.19 7.94,1.83l0 0.01c2.64,0.65 5.27,1.31 7.9,2.02l0.01 0c2.62,0.71 5.25,1.45 7.86,2.22l0.01 0c2.61,0.77 5.21,1.57 7.81,2.4 2.6,0.83 5.19,1.71 7.77,2.6 2.59,0.9 5.15,1.82 7.71,2.78l0.01 0.01c2.56,0.97 5.11,1.95 7.65,2.97l0 0.01c2.54,1.03 5.07,2.09 7.59,3.17l0.01 0 7.52 3.36 0.01 0.01c2.49,1.16 4.99,2.33 7.46,3.55l0 0.01 7.38 3.74 0.01 0.01c2.44,1.28 4.89,2.59 7.31,3.94l0 0.01c2.42,1.35 4.84,2.71 7.23,4.13 2.39,1.41 4.78,2.85 7.15,4.33l0 0.01c2.37,1.48 4.71,2.97 7.05,4.51l0.01 0.01c2.33,1.54 4.66,3.1 6.96,4.71l0 0.01c2.31,1.61 4.6,3.23 6.87,4.9l0.01 0.01c2.28,1.67 4.52,3.35 6.77,5.09l0.01 0.01c2.24,1.73 4.46,3.49 6.67,5.29l0 0.01c2.21,1.8 4.4,3.61 6.57,5.48l0 0.01c2.18,1.86 4.33,3.74 6.46,5.67l0 0.01c2.14,1.93 4.24,3.86 6.34,5.86l0.01 0.01c2.09,1.99 4.17,4.01 6.22,6.06l0 0.01 1418.78 1418.77c131.42,131.42 131.42,346.47 0,477.89l-0.01 0.01c-131.42,131.42 -346.47,131.42 -477.89,-0.01l-1179.82 -1179.82 -1179.82 1179.82c-131.42,131.43 -346.47,131.43 -477.89,0.01l-0.01 -0.01c-131.42,-131.42 -131.42,-346.47 0,-477.89zm0 1699.37l1418.78 -1418.77 0 -0.01c2.06,-2.06 4.12,-4.07 6.22,-6.06l0.01 -0.01c2.1,-1.99 4.2,-3.93 6.34,-5.86l0 -0.01c2.14,-1.93 4.28,-3.8 6.46,-5.67l0 -0.01c2.17,-1.86 4.36,-3.68 6.57,-5.48l0 -0.01c2.21,-1.8 4.42,-3.55 6.67,-5.29l0.01 -0.01c2.24,-1.73 4.49,-3.42 6.77,-5.09l0.01 -0.01c2.28,-1.67 4.57,-3.29 6.87,-4.9l0 -0.01c2.31,-1.61 4.62,-3.17 6.96,-4.71l0.01 -0.01c2.33,-1.54 4.69,-3.03 7.05,-4.51l0 -0.01c2.37,-1.48 4.76,-2.91 7.15,-4.33 2.4,-1.41 4.81,-2.78 7.23,-4.13l0 -0.01c2.42,-1.35 4.86,-2.66 7.31,-3.94l0.01 -0.01c2.44,-1.29 4.91,-2.52 7.38,-3.74l0 -0.01c2.48,-1.22 4.96,-2.4 7.46,-3.55l0.01 -0.01c2.5,-1.16 5,-2.28 7.52,-3.36l0.01 0c2.52,-1.09 5.05,-2.15 7.59,-3.17l0 -0.01c2.54,-1.03 5.09,-2.01 7.65,-2.97l0.01 -0.01c2.56,-0.96 5.13,-1.89 7.71,-2.78 2.58,-0.91 5.18,-1.77 7.77,-2.6 2.6,-0.84 5.2,-1.64 7.81,-2.4l0.01 0c2.62,-0.77 5.23,-1.51 7.86,-2.22l0.01 0c2.62,-0.7 5.26,-1.38 7.9,-2.02l0 -0.01c2.64,-0.65 5.29,-1.25 7.94,-1.83l0.01 0c2.65,-0.58 5.31,-1.13 7.97,-1.64l0.01 0c2.66,-0.51 5.33,-0.99 8,-1.44l0.01 -0.01c2.67,-0.45 5.35,-0.86 8.03,-1.25 2.68,-0.38 5.37,-0.74 8.06,-1.06 2.69,-0.32 5.37,-0.61 8.07,-0.87l0.01 0c2.69,-0.26 5.39,-0.47 8.09,-0.67l0.01 0c2.7,-0.19 5.4,-0.36 8.1,-0.49 2.7,-0.13 5.41,-0.22 8.11,-0.28l0.01 0c2.7,-0.06 5.41,-0.1 8.11,-0.1 2.7,0 5.41,0.04 8.11,0.1l0.01 0c2.7,0.07 5.41,0.15 8.11,0.28 2.71,0.13 5.4,0.3 8.1,0.49l0.01 0c2.69,0.19 5.4,0.41 8.09,0.67l0.01 0 8.07 0.87c2.69,0.32 5.38,0.67 8.06,1.06 2.69,0.38 5.35,0.8 8.03,1.25l0.01 0.01c2.67,0.45 5.34,0.93 8,1.44l0.01 0c2.66,0.52 5.32,1.06 7.97,1.64l0.01 0c2.65,0.58 5.3,1.19 7.94,1.83l0 0.01c2.64,0.65 5.27,1.31 7.9,2.02l0.01 0c2.62,0.71 5.25,1.45 7.86,2.22l0.01 0c2.61,0.77 5.21,1.57 7.81,2.4 2.6,0.83 5.19,1.71 7.77,2.6 2.59,0.9 5.15,1.82 7.71,2.78l0.01 0.01c2.56,0.97 5.11,1.95 7.65,2.97l0 0.01c2.54,1.03 5.07,2.09 7.59,3.17l0.01 0 7.52 3.36 0.01 0.01c2.49,1.16 4.99,2.33 7.46,3.55l0 0.01 7.38 3.74 0.01 0.01c2.44,1.28 4.89,2.59 7.31,3.94l0 0.01c2.42,1.35 4.84,2.71 7.23,4.13 2.39,1.41 4.78,2.85 7.15,4.33l0 0.01c2.37,1.48 4.71,2.97 7.05,4.51l0.01 0.01c2.33,1.54 4.66,3.1 6.96,4.71l0 0.01c2.31,1.61 4.6,3.23 6.87,4.9l0.01 0.01c2.28,1.67 4.52,3.35 6.77,5.09l0.01 0.01c2.24,1.73 4.46,3.49 6.67,5.29l0 0.01c2.21,1.8 4.4,3.61 6.57,5.48l0 0.01c2.18,1.86 4.33,3.74 6.46,5.67l0 0.01c2.14,1.93 4.24,3.86 6.34,5.86l0.01 0.01c2.09,1.99 4.17,4.01 6.22,6.06l0 0.01 1418.78 1418.77c131.42,131.42 131.42,346.47 0,477.89l-0.01 0.01c-131.42,131.42 -346.47,131.42 -477.89,-0.01l-1179.82 -1179.82 -1179.82 1179.82c-131.42,131.43 -346.47,131.43 -477.89,0.01l-0.01 -0.01c-131.42,-131.42 -131.42,-346.47 0,-477.89zm1657.73 -4244.86c1681.93,0 3045.41,1363.47 3045.41,3045.41 0,1681.93 -1363.47,3045.41 -3045.41,3045.41 -1681.93,0 -3045.41,-1363.47 -3045.41,-3045.41 0,-1681.93 1363.47,-3045.41 3045.41,-3045.41z"/>
 </g>
</svg>
