<?xml version="1.0" encoding="UTF-8"?>
<!DOCTYPE svg PUBLIC "-//W3C//DTD SVG 1.1//EN" "http://www.w3.org/Graphics/SVG/1.1/DTD/svg11.dtd">
<!-- Creator: CorelDRAW 2020 (64 Bit) -->
<svg xmlns="http://www.w3.org/2000/svg" xml:space="preserve" width="157.02mm" height="130.592mm" version="1.1" style="shape-rendering:geometricPrecision; text-rendering:geometricPrecision; image-rendering:optimizeQuality; fill-rule:evenodd; clip-rule:evenodd"
viewBox="0 0 15687.77 13047.33"
 xmlns:xlink="http://www.w3.org/1999/xlink"
 xmlns:xodm="http://www.corel.com/coreldraw/odm/2003">
 <defs>
  <style type="text/css">
   <![CDATA[
    .fil0 {fill:#FFA725}
   ]]>
  </style>
 </defs>
 <g id="Camada_x0020_1">
  <metadata id="CorelCorpID_0Corel-Layer"/>
  <path class="fil0" d="M2137.02 1409.41l2744.52 0c341.59,0 620.61,279.2 620.61,620.58 0,341.37 -279.02,620.58 -620.61,620.58l-2744.51 0c-492.74,0 -895.89,403.12 -895.89,895.89l0 7363.86c0,492.74 403.13,895.88 895.89,895.88l11413.73 0c492.74,0 895.89,-403.12 895.89,-895.88l0 -7363.86c0,-492.75 -403.13,-895.89 -895.89,-895.89l-2744.52 0c-341.59,0 -620.61,-279.21 -620.61,-620.58 0,-341.38 279.02,-620.58 620.61,-620.58l2744.51 0c1175.36,0 2137.02,961.65 2137.02,2137.03l0 7363.87c0,1175.38 -961.66,2137.02 -2137.02,2137.02l-11413.73 0c-1175.37,0 -2137.02,-961.64 -2137.02,-2137.02l0 -7363.87c0,-1175.38 961.65,-2137.03 2137.02,-2137.03zm8601.44 5320.05c247.07,-235.9 256.04,-630.51 20.29,-877.39 -235.76,-246.9 -630.37,-256.13 -877.4,-20.23l-1413.45 1349.65 0 -6560.88c0,-341.59 -279.2,-620.61 -620.57,-620.61 -341.37,0 -620.58,279.02 -620.58,620.61l0 6560.87 -1413.45 -1349.64c-247.05,-235.89 -641.66,-226.65 -877.4,20.23 -235.75,246.9 -226.54,641.31 20.28,877.39l2312.6 2212.1c381.56,364.97 687.73,451.88 1094.81,62.05l2374.86 -2274.16 0 0.01z"/>
 </g>
</svg>
