<?xml version="1.0" encoding="UTF-8"?>
<!DOCTYPE svg PUBLIC "-//W3C//DTD SVG 1.1//EN" "http://www.w3.org/Graphics/SVG/1.1/DTD/svg11.dtd">
<!-- Creator: CorelDRAW -->
<svg xmlns="http://www.w3.org/2000/svg" xml:space="preserve" width="24.736mm" height="23.0724mm" version="1.1" style="shape-rendering:geometricPrecision; text-rendering:geometricPrecision; image-rendering:optimizeQuality; fill-rule:evenodd; clip-rule:evenodd"
viewBox="0 0 2459.43 2294.03"
 xmlns:xlink="http://www.w3.org/1999/xlink"
 xmlns:xodm="http://www.corel.com/coreldraw/odm/2003">
 <defs>
  <style type="text/css">
   <![CDATA[
    .fil0 {fill:white}
   ]]>
  </style>
 </defs>
 <g id="Camada_x0020_1">
  <metadata id="CorelCorpID_0Corel-Layer"/>
  <path class="fil0" d="M2385.98 331.96c113.69,-113.67 111.5,-75.64 -122.05,-309.19 -24.26,-24.26 -48.99,-32.39 -73.23,-8.13 -131.26,131.25 -259.66,255.74 -391.4,387.48l-187.14 -187.14c-24.85,-24.84 -61.79,-11.43 -65.1,-8.13 -26.93,26.93 -18.32,56.62 -18.31,85.44l0.01 447.52c0,197.31 -16.67,189.17 99.68,189.17l528.88 0c25.66,0 67.41,7.84 89.5,-14.24 19.68,-19.68 19.69,-45.42 0,-65.11l-191.21 -191.2c109.71,-109.72 219.88,-217.71 330.37,-326.47zm-2312.54 0c-113.69,-113.67 -111.5,-75.64 122.05,-309.19 24.26,-24.26 48.98,-32.39 73.23,-8.13 131.26,131.25 259.66,255.74 391.4,387.48l187.14 -187.14c24.85,-24.84 61.78,-11.43 65.1,-8.13 26.92,26.93 18.32,56.62 18.31,85.44l-0.01 447.52c0,197.31 16.67,189.17 -99.68,189.17l-528.88 0c-25.67,0 -67.41,7.84 -89.5,-14.24 -19.68,-19.68 -19.69,-45.42 0,-65.11l191.21 -191.2c-109.72,-109.72 -219.88,-217.71 -330.37,-326.47zm2312.54 1630.12c113.69,113.67 111.5,75.64 -122.05,309.19 -24.26,24.26 -48.99,32.39 -73.23,8.13 -131.26,-131.25 -259.66,-255.74 -391.4,-387.48l-187.14 187.14c-24.85,24.84 -61.79,11.43 -65.1,8.13 -26.93,-26.93 -18.32,-56.62 -18.31,-85.44l0.01 -447.52c0,-197.31 -16.67,-189.17 99.68,-189.17l528.88 0c25.66,0 67.41,-7.84 89.5,14.24 19.68,19.68 19.69,45.42 0,65.11l-191.21 191.2c109.71,109.72 219.88,217.71 330.37,326.47zm-2312.54 0c-113.69,113.67 -111.5,75.64 122.05,309.19 24.26,24.26 48.98,32.39 73.23,8.13 131.26,-131.25 259.66,-255.74 391.4,-387.48l187.14 187.14c24.85,24.84 61.78,11.43 65.1,8.13 26.92,-26.93 18.32,-56.62 18.31,-85.44l-0.01 -447.52c0,-197.31 16.67,-189.17 -99.68,-189.17l-528.88 0c-25.67,0 -67.41,-7.84 -89.5,14.24 -19.68,19.68 -19.69,45.42 0,65.11l191.21 191.2c-109.72,109.72 -219.88,217.71 -330.37,326.47z"/>
 </g>
</svg>
