<?xml version="1.0" encoding="UTF-8"?>
<!DOCTYPE svg PUBLIC "-//W3C//DTD SVG 1.1//EN" "http://www.w3.org/Graphics/SVG/1.1/DTD/svg11.dtd">
<!-- Creator: CorelDRAW -->
<svg xmlns="http://www.w3.org/2000/svg" xml:space="preserve" width="11.8003mm" height="14.683mm" version="1.1" style="shape-rendering:geometricPrecision; text-rendering:geometricPrecision; image-rendering:optimizeQuality; fill-rule:evenodd; clip-rule:evenodd"
viewBox="0 0 31.43 39.1"
 xmlns:xlink="http://www.w3.org/1999/xlink"
 xmlns:xodm="http://www.corel.com/coreldraw/odm/2003">
 <defs>
  <style type="text/css">
   <![CDATA[
    .fil0 {fill:#201E1E}
    .fil2 {fill:#E6B569}
    .fil1 {fill:#FCFCFC}
    .fil3 {fill:#FECB00}
    .fil4 {fill:red}
   ]]>
  </style>
 </defs>
 <g id="Camada_x0020_1">
  <metadata id="CorelCorpID_0Corel-Layer"/>
  <g id="Figs_Desenho_VarCor_010">
   <path class="fil0" d="M30.56 38.85l0.04 0c-0.02,-0.28 -0.23,-0.38 -0.12,-0.7 0.85,-2.3 1.56,-5.29 0.08,-7.52 -0.71,-1.07 -1.53,-1.52 -2.59,-2.07 0,-0.62 0,-0.64 -0.4,-1.05 -0.6,-0.6 -1.25,-0.92 -2.05,-1.2 -0.16,-0.06 -0.14,-0.04 -0.19,-0.2 -0.15,-0.53 -0.61,-2.63 -0.79,-2.89 -0.42,-0.62 -1.66,-0.39 -2.26,-0.68 0.04,-0.13 0.13,-0.16 0.25,-0.22 1.39,-0.8 0.32,-1.48 0.16,-2.06 -0.07,-0.26 0.02,-0.65 0.13,-0.78 0.12,-0.12 0.54,-0.15 0.74,-0.2 1.16,-0.33 3.16,-1.04 1.99,-2.49 -0.16,-0.2 -0.24,-0.87 -0.75,-1.6 -0.35,-0.49 -0.78,-0.81 -0.9,-0.98 0.52,-0.97 0.16,-0.63 0.25,-1.05 0.02,-0.08 1.31,-1.74 0.31,-3.34 -0.2,-0.31 0.22,-1.15 -0.55,-1.8 -0.28,-0.24 -0.24,-0.47 -0.38,-0.99 -0.65,-2.25 -1.7,-4.2 -3.83,-5.15 -0.43,-0.19 -0.9,-1.96 -3.18,-1.88 -0.48,0.03 -0.95,0.19 -1.35,0.5 -0.32,0.25 -2.05,0.06 -3.13,1.69 -0.62,0.94 -0.45,1.35 -0.51,1.92 -0.03,0.25 -1.91,2.02 -1.14,4.42l1.34 3.83c0.04,0.15 0.03,0.12 -0.05,0.24 -0.27,-0.18 -0.47,-0.48 -0.76,-0.69 -0.96,-0.68 -0.04,1.58 0.04,1.84 0.19,0.58 0.22,0.94 0.49,1 0.18,-0.37 -0.66,-2.02 -0.67,-2.54 0.16,0.04 0.99,0.85 1.19,1.05 0.22,0.21 0.35,0.69 0.42,0.99 -0.18,0.27 -0.94,0.78 -0.61,1.9 0.2,0.68 0.65,1.23 1.44,1.23l0 0.27c-2.07,0 -4.22,1.12 -5.4,2.88 -0.57,0.85 -0.17,0.45 -1.16,0.76 -3.26,1.04 -5.48,2.86 -6.46,6.28 -0.36,1.27 -0.15,3.35 0.16,4.57 0.63,2.49 2.67,5.71 5.58,5.13 0.26,-0.05 1.09,0.24 1.67,0.25 -0.2,0.37 -0.35,0.88 -0.39,1.33l0.02 0 0 0.25 23.35 0 0 -0.25z"/>
   <path class="fil1" d="M7.47 38.85l22.85 0c-0.44,-1.48 -2.02,-4.03 -3.11,-5.22 -0.18,-0.2 -0.38,-0.47 -0.57,-0.64 -0.22,-0.2 -0.37,-0.4 -0.57,-0.6 -0.28,-0.29 -0.34,-0.23 -0.5,-0.71 -0.42,-1.29 -1.22,-2.87 -1.97,-3.98 -0.15,-0.22 -0.37,-0.52 -0.48,-0.73l-0.59 0.95c-0.55,-0.18 -2.11,-1.35 -2.7,-1.82 -0.1,-0.08 -0.26,-0.22 -0.37,-0.29l-0.5 0.99c-0.11,0.2 0.11,0.83 0.19,1.23 0.7,3.3 0.36,5.93 -2.89,7.19 -0.42,0.16 -0.73,0.22 -1.09,0.44 -0.65,0.39 -1.26,0.72 -2.02,1.04 -2,0.84 -3.2,0.81 -5.24,0.89 -0.18,0.21 -0.38,0.96 -0.44,1.29zm15.88 -12.49c0.62,0.08 1.15,0.11 1.79,0.1 -0.1,-0.92 -0.45,-2.05 -0.72,-2.88 -0.11,0.1 -0.24,0.48 -0.31,0.65 -0.1,0.24 -0.18,0.45 -0.28,0.7 -0.13,0.33 -0.44,1.11 -0.48,1.43zm-0.4 0.12c0.01,-0.01 1.28,-3.21 1.29,-3.28 -0.26,-0.13 -1.85,-0.4 -2.19,-0.4 -0.05,0.81 -0.05,1.32 0.17,2.08 0.12,0.42 0.51,1.37 0.74,1.61zm2.4 0.23l-2.09 -0.06c0.1,0.19 0.27,0.41 0.38,0.6 0.65,1.05 1.24,2.1 1.73,3.25 0.09,0.22 0.51,1.31 0.61,1.39 0.17,-0.2 0.36,-0.4 0.53,-0.64 0.17,-0.22 0.31,-0.45 0.46,-0.71 0.38,-0.66 0.6,-1.43 0.71,-2.22 0.04,-0.27 0.03,-0.3 -0.1,-0.45 -0.18,-0.21 -0.37,-0.38 -0.61,-0.56 -0.42,-0.32 -0.94,-0.6 -1.55,-0.79 -0.03,0.04 -0.03,0.14 -0.08,0.21z"/>
   <path class="fil2" d="M20.98 15.07c-0.76,-0 -1.32,-0.08 -2.04,0.11 -1.33,0.36 -3.09,1.64 -3.34,2.9 0.5,0.16 1.12,0.5 1.5,0.77 0.54,0.38 0.55,0.56 0.85,0.57l0.91 -0.02c1.41,-0.02 2.92,-0.04 4.27,-0.31 0.97,-0.19 3.07,-0.8 2.39,-1.93 -0.09,-0.16 -0.18,-0.18 -0.25,-0.3 -0.09,-0.14 -0.64,-2.03 -1.6,-2.44 -0.4,0.25 -0.51,0.39 -1.12,0.52 -0.5,0.11 -1.03,0.13 -1.56,0.13zm0.55 4.46c-0.22,0.33 -0.28,0.77 -0.21,1.21 0.21,0.13 0.33,-0.05 0.33,0.23 -0.13,0.08 -0.42,0.1 -0.56,0.14 -0.19,0.06 -0.34,0.12 -0.51,0.19 -0.38,0.16 -0.79,0.21 -1.24,0.22 0.03,0.34 0.39,0.84 0.42,2.07 1.58,0.18 2.1,-1.09 2.52,-1.41 0.25,-0.19 0.98,-0.3 0.59,-1.14 -0.11,-0.24 -0.24,-0.35 -0.32,-0.66 -0.11,-0.4 -0.01,-0.58 0.01,-0.94l-1.03 0.07z"/>
   <path class="fil3" d="M26.19 32.04l1.17 1.27c0.76,0.89 1.42,1.88 2.02,2.91 0.14,0.24 0.76,1.5 0.87,1.6 0.66,-1.52 1.2,-3.64 0.75,-5.48 -0.23,-0.96 -0.69,-1.6 -1.16,-2.17 -0.32,-0.38 -1.29,-1.13 -1.95,-1.4 -0.07,0.09 -0.35,1.11 -0.71,1.77 -0.38,0.7 -0.59,0.9 -0.99,1.49zm-6.42 -8.17c-0.02,0.3 -0.03,0.57 -0.08,0.86 -0.04,0.27 -0.13,0.53 -0.16,0.78 0.16,0.09 0.51,0.4 0.68,0.53l1.44 1.03c0.21,0.13 0.56,0.39 0.78,0.48 0.11,-0.13 0.17,-0.3 0.26,-0.45 0.23,-0.42 -0.09,-0.43 -0.47,-1.5 -0.33,-0.93 -0.37,-1.39 -0.47,-2.42 -0.71,0.3 -0.58,0.6 -1.98,0.7zm-10.42 11.56c-0.57,-0 -0.95,-0.11 -1.47,-0.2 0.02,1.37 -0.92,1.52 -1.27,1.81 0.31,0.16 1.76,0.25 2.19,0.24 1.44,-0.01 2.75,-0.33 4.06,-0.85 0.37,-0.15 1.45,-0.6 1.66,-0.79 -0.99,-0 -2.1,-0 -2.91,-0.47 -0.55,-0.32 -0.02,-0.29 -0.96,0.04 -0.41,0.15 -0.84,0.21 -1.31,0.21zm-1.76 -0.35c-0.65,-0.21 -1.29,-0.91 -1.63,-1.39 -0.41,-0.57 -0.71,-1.3 -0.95,-2.07 -0.32,-1.06 -0.46,-2.07 -0.57,-3.19 -0.03,-0.28 -0.1,-0.36 -0.21,-0.58 -0.14,-0.27 -0.55,-0.93 -0.38,-1.05 0.18,-0.12 0.27,0.19 0.34,0.31 0.06,0.11 0.16,0.35 0.27,0.42l0.1 -1.14c0.43,-0.06 0.28,0.23 0.23,0.57 -0.28,2 0.16,3.98 1,5.76 0.43,0.92 1.04,1.7 1.85,2.11 0.49,0.25 0.99,0.36 1.61,0.33 0.41,-0.02 1.32,-0.19 1.61,-0.38 -0.11,-0.27 -0.86,-1.01 -0.97,-2.19 -0.06,-0.71 0.13,-1.29 0.49,-1.85 0.12,-0.19 0.25,-0.32 0.35,-0.5 -0.06,-0.18 -0.18,-0.41 -0.26,-0.58 -0.16,-0.33 -0.1,-0.25 -0.41,-0.41 -0.39,-0.2 -0.68,-0.4 -1,-0.65 -2.1,-1.66 -2.83,-4.59 -1.74,-7.19 -0.56,-0.02 -2.38,0.85 -2.83,1.11 -2.79,1.59 -4.45,4.42 -4.16,7.72 0.18,2.02 1.27,4.64 2.35,5.54 0.65,0.54 1.56,1.15 2.77,1.19 1.28,0.04 2.13,-0.63 2.13,-1.89zm7.62 -5.41c0.33,0.02 0.64,0.03 0.96,0.07 0.26,0.03 0.71,0.02 0.7,0.29 -0.18,0.1 -1.48,-0.07 -1.79,-0.08 -0.71,-0.03 -1.33,-0.03 -2.04,-0.02 -0.81,0.01 -1,-0.18 -1.7,0.22 -1.52,0.88 -1.62,3.5 0.11,4.6 0.84,0.54 1.6,0.51 2.57,0.51 3.19,-0.01 5.13,-1.71 5.13,-4.91 0,-1.22 -0.27,-2.02 -0.49,-3.1l-0.18 0.19c-0.06,0.08 -0.09,0.11 -0.16,0.19 -0.13,0.15 -0.2,0.26 -0.35,0.4 -0.46,0.46 -1.1,0.91 -1.73,1.21 -0.3,0.15 -0.79,0.29 -1.03,0.42zm-2.62 -11.64c-3.16,0.34 -5.9,2.97 -5.49,6.54 0.21,1.81 1.2,3.14 2.16,3.88 1.25,0.96 2.77,1.41 4.75,1.19 3.1,-0.34 5.91,-2.98 5.46,-6.52 -0.38,-3.03 -3.35,-5.48 -6.89,-5.1zm1.65 -15.39c-0.04,0.44 0.15,0.97 0.07,1.25 -0.25,0.04 -0.26,-0.14 -0.3,-0.39 -0.04,-0.26 -0.04,-0.48 -0.05,-0.74 -0.48,0.11 -1.92,1.13 -2.1,1.43 -0.15,0.27 0.24,0.71 0.07,0.97 -0.28,0.01 -0.29,-0.41 -0.35,-0.62 -0.39,0.34 -0.83,1.35 -0.96,2.04 -0.2,1.04 -0.05,1.68 0.26,2.57l1.36 3.93c0.06,0.1 0.28,0.32 0.43,0.32 0.16,-0.63 -0.36,-2.48 0.06,-2.86 0.32,-0.14 0.77,0.81 0.98,1.15 0.11,0.18 0.87,1.28 0.72,1.43 -0.23,0.09 -0.29,-0.25 -0.42,-0.47 -0.12,-0.21 -0.22,-0.39 -0.34,-0.6 -0.18,-0.29 -0.56,-0.99 -0.8,-1.12 -0,0.6 0.19,2.46 0.09,2.87 -0.19,0.03 -0.29,-0.07 -0.46,-0.1l0.13 0.49c0.28,0.02 0.4,-0.04 0.65,0.09 0.13,0.06 0.41,0.22 0.26,0.38 -0.15,0.15 -0.68,-0.55 -1.22,-0.04 -0.74,0.69 -0.32,3.19 1.44,2.3 0.13,-0.07 0.17,-0.1 0.26,-0.09 0.16,0.02 0.04,-0 0.1,0.03 0.06,0.28 -0.37,0.39 -0.65,0.47l0.01 0.35c0.32,0.04 0.61,0.04 0.93,0.1 0.25,0.04 0.64,0.16 0.85,0.18 0.8,-1.57 2,-2.57 3.69,-2.97 1.47,-0.35 2.92,0.07 4.05,-0.42 1.31,-0.57 1.11,-2.3 -0.58,-2.14 -0.8,0.07 -0.58,0.3 -1.91,0.33 -0.32,0.78 -0.47,1.04 -1.03,1.44 -1.83,1.29 -4.23,0.55 -4.68,-1.42 -0.36,-1.59 0.54,-2.81 1.49,-3.28 1.38,-0.68 3.02,-0.28 3.64,0.66 0.11,-0.08 0.09,-0.08 0.17,-0.2 0.14,-0.2 0.36,-0.47 0.55,-0.62 0.68,-0.57 1.57,-0.76 2.45,-0.48 0.55,0.18 0.88,0.48 1.04,0.52 0.03,-1.13 -0.61,-1.11 -0.8,-1.41 0.09,-0.15 0.06,-0.02 0.14,-0.16 -0.81,-2.95 -2.48,-6.18 -6.05,-6 -1.04,0.05 -2.36,0.45 -3.2,0.85zm-1.53 12.9l-0.01 0.15c-0.01,0.05 -0.03,0.08 -0.05,0.14 -0.06,0.23 0.01,0.48 0.13,0.67 0.18,0.28 0.27,0.07 0.27,0.06 0.08,-0.12 -0.14,-0.19 -0.21,-0.4 -0.14,-0.4 0.22,-0.81 0.62,-0.46 0.15,0.13 0.17,0.31 0.37,0.31 0.2,-0.43 -0.81,-0.96 -1.43,-0.72 -0.1,0.04 -0.18,0.12 -0.07,0.2 0.1,0.06 0.28,0.02 0.39,0.04z"/>
   <path class="fil1" d="M20.59 12.48c0.74,0.14 1.18,-0.23 1.86,-0.33 0.8,-0.12 1.11,0.21 1.51,0.61l0.06 0.06c0,0 0.01,0.01 0.02,0.02 0.8,-0.92 0.95,-3.5 -1.41,-3.79 -1.09,-0.13 -1.83,0.41 -2.24,0.94 -0.41,0.53 -0.17,0.45 0.03,1.06 0.19,0.56 0.1,0.88 0.16,1.44zm-3.14 -3.02c-1.44,0.13 -2.49,1.27 -2.41,2.84 0.1,2.22 2.9,3.08 4.64,1.43 1.36,-1.29 0.61,-4.53 -2.22,-4.26zm4.85 1.35c-0.57,0.2 -0.27,1.03 0.23,0.83 0.45,-0.18 0.23,-0.99 -0.23,-0.83zm-5.58 0.93c-0.62,0.19 -0.32,1.13 0.22,0.95 0.54,-0.19 0.3,-1.11 -0.22,-0.95z"/>
   <path class="fil4" d="M19.21 21.34l0.65 -0.05c-0.12,-0.52 -0.71,-0.99 -1.3,-1.09 0.18,0.36 0.53,0.68 0.65,1.14z"/>
  </g>
 </g>
</svg>
