<?xml version="1.0" encoding="UTF-8"?>
<!DOCTYPE svg PUBLIC "-//W3C//DTD SVG 1.1//EN" "http://www.w3.org/Graphics/SVG/1.1/DTD/svg11.dtd">
<!-- Creator: CorelDRAW -->
<svg xmlns="http://www.w3.org/2000/svg" xml:space="preserve" width="42.2106mm" height="49.2924mm" version="1.1" style="shape-rendering:geometricPrecision; text-rendering:geometricPrecision; image-rendering:optimizeQuality; fill-rule:evenodd; clip-rule:evenodd"
viewBox="0 0 76.72 89.6"
 xmlns:xlink="http://www.w3.org/1999/xlink"
 xmlns:xodm="http://www.corel.com/coreldraw/odm/2003">
 <defs>
  <style type="text/css">
   <![CDATA[
    .fil0 {fill:#030203}
    .fil1 {fill:#E6B830}
    .fil2 {fill:#FEFEFE}
   ]]>
  </style>
 </defs>
 <g id="Camada_x0020_1">
  <metadata id="CorelCorpID_0Corel-Layer"/>
  <g id="_2086988245856">
   <path class="fil0" d="M19.66 12.75c-0,0.48 0.06,0.23 -0.28,0.61l-1.52 1.6c-0.85,0.73 -0.21,0.33 -1.65,1.48 -0.44,0.35 -0.28,0.51 -1.03,1.01l-1.75 1.39c-1.59,1.39 -1.79,3.67 -2.29,5.94 -0.28,1.25 -0.33,2.37 -0.55,3.62 -0.21,1.2 -0.43,2.3 -0.66,3.48l-1.28 7c-0.29,1.37 -1.04,5.94 -1.04,7.19 -0.01,2.65 -0.28,7.46 0.44,9.67 0.18,0.55 0.3,1.18 0.47,1.73 0.28,0.87 0.96,1.98 1.3,2.89 0.58,1.52 1.31,1.76 1.36,2.88l-4.91 0.24c-0.32,0.64 0.09,0.59 -0.67,0.8 -0.69,0.19 -0.51,-0 -0.75,0.71l-2.08 6.84c-0.48,1.42 -2.76,8.59 -2.77,9.13 0.72,0.14 7.16,-0.14 8.57,-0.54 2.2,-0.62 0.97,-0.69 2.15,-1.03 -0.11,0.61 -1.93,4.67 -2.41,5.97 -0.25,0.69 -1.7,3.28 -1.28,3.91 0.59,0.86 1.92,-0.17 2.45,-0.76 0.51,-0.57 1.01,-1.69 1.35,-2.46 0.19,-0.45 0.3,-0.95 0.49,-1.4 0.2,-0.48 0.38,-0.8 0.59,-1.3 0.4,-0.94 0.63,-1.84 1.16,-2.61 2.26,-0.26 1.32,-0.33 3.72,-0.36 0.78,1.23 0.34,0.99 1.44,2.46 1.11,1.47 0.99,1.8 3.07,3.59 1.15,0.99 1.87,1.43 3.43,1.9 1.63,0.48 3.1,0.51 4.46,-0.27 0.93,-0.54 0.8,-0.18 1.53,-1.07 1.45,-1.76 0.76,0.46 6.45,-0.83 0.97,-0.22 3.44,-0.82 4.2,-1.16 0.62,-0.27 0.97,-0.66 1.55,-1.05 0.65,-0.44 0.73,-0.89 0.89,-1.81 1.08,-0.05 2.27,0.09 3.41,0.08 1.03,-0.01 2.46,-0.19 3.4,-0.08 -0.11,1.6 -1.99,4.3 -1.59,5.03 0.57,0.61 1.25,0.32 1.7,-0.07 2.45,-2.13 1.97,-4.54 2.99,-5.15 0.37,-0.17 1.12,-0.12 1.64,-0.14 0.04,0.94 0.04,1.34 0.58,1.99 0.47,0.58 0.69,0.96 1.3,1.29 1.96,1.05 3.42,0.08 4.65,-0.83 1.11,-0.82 0.17,0.1 1.42,-1.17 0.25,-0.26 0.47,-0.34 0.75,-0.61 1.74,-1.68 1.4,-1.79 1.57,-3.56 3.65,-0.21 2.93,-0.01 5.69,-1.32 1.05,-0.5 2.84,-2.27 3.28,-3.67 0.26,-0.83 0.59,-1.58 0.92,-2.46 0.3,-0.81 0.47,-1.89 0.72,-2.77 0.58,-1.99 0.8,-2.44 -0.37,-3.94 -0.42,-0.54 -0.61,-0.46 -0.93,-0.77 -1.6,-0.12 -3.91,-0.48 -5.54,0.51 -0.39,0.23 -0.78,0.67 -1.27,0.79l0.28 -1.37c-2.74,0.06 -1.28,0.72 -2.55,0.36 -1.13,-0.32 -1.57,0.13 -2.68,-0.09 0.01,-0.29 0.39,-0.92 0.57,-1.28 0.34,-0.67 0.35,-0.85 0.57,-1.6 1.07,-3.55 0.94,-3.15 1.76,-6.72 0.31,-1.36 0.48,-2.23 0.65,-3.65 0.25,-2.18 1.09,-5.17 1.13,-7.25 0.03,-1.32 0.43,-2.06 0.93,-3.2 0.27,-0.61 0.3,-0.93 0.65,-1.51 0.26,-0.43 0.52,-0.91 0.75,-1.42 1.85,-4.2 2.12,-5.78 0.55,-10.4 -1.41,-4.13 -2.72,-8.46 -4.9,-12.25 -0.31,-0.55 -0.5,-0.92 -0.75,-1.42 -0.29,-0.6 -0.53,-0.8 -0.87,-1.3 -0.27,-0.41 -0.52,-0.89 -0.78,-1.25 -0.35,-0.48 -0.62,-0.67 -0.95,-1.22 -0.53,-0.87 -3.6,-3.82 -4.36,-4.35 -1.24,-0.85 -0.5,-0.4 -1.19,-0.98l-3.68 -2.73c-2.65,-1.81 -8.54,-1.76 -11.49,-1.51 -2.68,0.22 -5.74,1.6 -8.16,2.67l-3.38 2.08c-0.32,0.21 -0.37,0.18 -0.73,0.36l-7.66 5.29c-0.74,0.68 -1.43,1.82 -2.19,2.22z"/>
   <path class="fil1" d="M56.11 57.13c-3.93,-2.14 -0.72,-1.85 -5.72,-1.85 -1.57,0 -6.02,-0.21 -7.19,0.29 -1.5,0.63 -3.92,1.54 -5.54,1.98 -0.59,0.16 -0.96,0.16 -1.58,0.35l-2.81 0.9c-1.01,0.34 -1.48,0.1 -2.73,0.97l-3.82 1.77c-1.14,0.27 -1.71,0.63 -2.7,1.01 -2.28,0.86 -2.47,-1.56 -2.99,-2.37l-1.33 -2.32c-0.28,-0.36 -0.54,-0.66 -0.81,-1.09 -0.57,-0.93 -0.9,-0.98 -1.48,-2.18 -0.45,-0.93 -0.86,-1.57 -0.66,-2.87 0.15,-0.97 0.74,-1.76 1.73,-1.96 2.37,-0.49 23.44,2.04 27.23,2.56 4.14,0.56 8.71,0.55 12.69,2.31 1.33,0.59 3.38,1.45 2.16,2.61 -1.04,0.98 -3.47,0.42 -4.45,-0.12zm-22.39 25.6c1.34,-2.44 0.4,-2.24 2.99,-2.34 0.97,-0.04 4.58,-0.24 5.2,0.08 -0.17,0.1 -5.05,0.68 -6.5,1.42 -0.58,0.3 -1.14,0.78 -1.69,0.84zm27.56 -4.2c0.84,-0.26 1.47,0.05 2.05,0.4 1.76,1.07 -0.86,3.4 -2.55,3.84 -2.82,0.73 -4.3,-2.78 0.5,-4.24zm-7.38 0.85c0.07,-0.84 0.82,-2.51 1.08,-3.43 0.17,-0.61 0.22,-1.2 0.44,-1.86 0.68,-2.1 0.88,-3.18 1.6,-5.27 0.26,-0.74 1.14,-2.78 0.92,-3.42 -1.23,-0.29 -1.55,1.55 -2.04,2.87 -0.22,0.6 -0.42,1.12 -0.62,1.8 -0.19,0.63 -0.26,1.25 -0.47,1.95 -0.41,1.36 -0.86,2.47 -1.12,3.88 -0.19,1.03 -0.89,2.59 -1.26,3.6 -2.08,0.29 -6.57,0.34 -8.61,-0.04 -4.56,-0.85 -4.43,-0.19 -8.23,-0.19 0.07,-1.14 0.52,-1.86 0.92,-2.87 0.4,-1 0.47,-1.83 0.75,-2.89 0.69,-2.6 0.67,-3.98 -0.22,-6.2 -2.32,0.32 -0.49,1.68 -0.74,3.78l-0.85 4.4 -1.4 3.87c-0.73,1.65 -0.98,2.17 -1.9,3.52 -0.73,1.07 -1.92,4.07 -5.42,3 -2.05,-0.62 -2.33,-1.12 -3.49,-1.98 -0.46,-0.34 -0.47,-0.56 -0.82,-0.94 -0.38,-0.4 -0.54,-0.41 -0.84,-0.92 -1.48,-2.5 -3.57,-5.48 -4.03,-8.39 -0.15,-0.96 -0.46,-1.88 -0.62,-2.88 -0.24,-1.44 0.52,-1.78 0.3,-3 -1.31,-0.32 -1.78,0.4 -1.91,1.6 -0.25,2.21 -1,3.67 -1.76,5.67 -0.31,0.82 -0.81,1.67 -1.11,2.53l-1.62 4.08c-0.19,0.41 -0.41,0.87 -0.56,1.19 -0.43,0.91 -0.66,1.75 -1.11,2.68 -0.37,0.77 -0.98,1.78 -0.76,2.84 1.37,-0.06 1.35,-1.09 2.39,-3.27 0.34,-0.71 0.46,-1.33 0.78,-2.07l3.32 -8.04c0.16,-0.52 0.4,-1.68 0.96,-1.83 0.45,1.42 0.04,1.33 0.96,3.33 1.3,2.8 1.03,2.93 2.82,5.57 1.01,1.49 2.6,3.45 4.26,4.31 0.84,0.44 2.08,0.95 3.18,1.04 3.16,0.26 4.07,-1.47 5.51,-2.9 0.25,0.29 0.12,0.71 1.11,0.83 1.2,0.14 3.77,-0.24 4.86,-0.52 0.99,-0.26 2,-0.56 2.91,-0.79 0.76,-0.19 2.02,-0.66 1.86,-1.6 -1.21,0.06 -6.38,2.35 -9.12,1.72 -0.31,-1.91 6.1,-2.34 7.93,-2.55 3.16,-0.35 1.12,-0.71 4.83,-0.59 1.74,0.05 3.54,-0.04 5.16,-0.19 -0.08,0.66 -0.66,2.07 -0.9,2.85 -0.25,0.83 -1.02,1.74 -0.96,2.58 1.1,0.13 1.04,-0.21 1.44,-0.9 1.07,-1.84 0.95,-2.79 1.89,-4.59l3.32 -0.16c-0.37,1.94 -0.14,1.5 0.84,2.83 0.67,0.9 1.77,1.07 3.04,0.7 0.91,-0.27 1.32,-0.6 2.07,-1.22 1.61,-1.33 4.2,-3.7 1,-5.41 -2.63,-1.4 -4.58,1.39 -6.14,1.66 -0.57,0.1 -3.33,0.3 -3.8,0.23zm-22.67 -34.56c-0.38,-0.23 -0.77,-0.55 -1.18,-0.73 -0.53,-0.23 -0.71,-0.35 -1.16,-0.61l-4.91 -2.61c-1.4,-0.92 -3.23,-1.74 -5.04,-2.47 -2.01,-0.82 -4.38,-0.94 -4,-3.22 0.75,-0.07 0.88,0.17 1.54,0.29 -0.17,-2.18 -0.93,-2.82 0.13,-4.98 1.09,-2.2 2.42,-2.52 2.54,-3.15 -2.21,-0.91 -1.86,-2.16 -0.82,-2.8 0.59,-0.37 1.25,-0.28 1.95,-0.03 1.17,0.43 2,1.27 3,1.9 1.08,0.69 8.53,7.72 9.07,8.22 0.88,0.81 4.48,4.3 5.22,4.64 -0.05,-0.79 -0.58,-1.3 -0.86,-1.89 -0.83,-1.72 -2.56,-4.16 -2.35,-5.36 0.88,0.06 2.03,2.36 2.42,3.01 0.31,0.52 0.76,1.17 1.03,1.68 0.31,0.6 0.38,1.27 0.98,1.61 0.58,-0.68 0.41,-1.73 0.57,-2.69 0.16,-0.91 0.32,-1.8 0.49,-2.75 0.16,-0.84 0.33,-1.76 0.52,-2.69 0.16,-0.74 0.35,-2.16 1.28,-1.63 0.26,0.21 0.21,0.51 0.15,1.17 -0.25,2.56 -1.37,5.79 -1.36,7.92 0.96,-0.23 1.15,-0.84 1.91,-1.35 0.53,-0.36 0.42,-0.3 0.87,-0.77 0.37,-0.39 0.5,-0.3 0.88,-0.62 0.35,-0.29 0.46,-0.53 0.82,-0.81 0.38,-0.3 0.49,-0.26 0.9,-0.6 0.46,-0.39 1.24,-1.11 2.07,-0.8 -0.09,0.79 -1.43,1.7 -2.27,2.35l-1.45 1.14c-1.29,0.95 -3.52,2.21 -3.56,3.59 0.6,0.01 1.42,-0.64 2.15,-0.92 0.55,-0.21 1.44,-0.8 1.96,-1.05 0.42,-0.21 0.76,-0.28 1.17,-0.47 0.37,-0.18 0.66,-0.29 1.01,-0.49l2.09 -0.92c3.59,-1.62 7.32,-2.89 11.09,-4.25 0.72,-0.26 1.58,-0.36 2.46,-0.58 1.79,-0.46 3.99,-0.57 4.93,0.59 0.75,0.93 0.42,4.31 -0.24,5.16 -1,1.31 -2.46,-1.58 -3.38,-1.68 -0.12,1.01 -0.06,2.13 -0.11,3.15 -0.06,1.33 -0.37,1.33 -1.04,2.16 -0.98,1.22 -0.66,0.59 -1.49,1.77 -0.52,0.73 -1.26,0.76 -1.13,1.95 0.91,0.9 2.11,0.62 1.93,2.27 -2.27,-0.01 -5.02,-0.47 -7.35,-0.67 -6.76,-0.58 -7.61,-0.53 -14.24,-0.53 -0.79,0 -0.94,0.06 -1.3,0.54 -0.25,0.93 2.69,2.15 2.41,3.6 -0.24,1.27 -1.77,0.32 -2.43,0.08 -2.44,-0.92 -5.36,0.58 -7.35,-0.58 -0.08,-1.07 -0.09,-1.15 0.52,-1.74 0.27,-0.26 0.34,-0.36 0.68,-0.54 0.49,-0.27 0.37,-0.05 0.7,-0.4 -0.3,-0.29 -1.97,-1.1 -2.44,-1.39zm-9.04 -23.96c-1.73,0.18 -1.35,-2.2 -0.61,-2.44 1.08,-0.36 1.72,1.45 0.61,2.44zm6.36 -0.67c-0.81,0 -0.87,-0.19 -1.04,-0.8 -0.98,-3.4 3.6,-5.11 2.79,-0.96 -0.19,0.95 -0.8,1.76 -1.75,1.76zm-3.94 -4.85c1.87,-0.78 2.27,2.78 0.66,3.33 -1.79,0.61 -2.18,-2.69 -0.66,-3.33zm36.87 49.06c1.38,-0.82 2.99,-7.52 3.46,-9.6 0.38,-1.68 1.68,-9.6 1.78,-11.27 0.09,-1.6 1.9,-5.65 2.75,-7.1 2.29,-3.92 0.25,-9.6 -1.16,-13.18 -1.48,-3.75 -2.66,-6.61 -4.75,-10.13l-1.3 -1.96 -3.96 -4.2c-2.14,-1.78 -5.43,-4.64 -7.95,-5.28 -3.58,-0.92 -8.5,-0.83 -11.83,0.38 -2.78,1.01 -2.01,0.65 -4.77,1.94l-7.96 5.28c-1.31,0.97 -2.69,3.18 -3.94,4.35l-2.53 2.37c-0.91,0.74 -2.93,2.18 -3.35,3.16 -0.68,1.58 -1.03,3.7 -1.26,5.37 -0.27,1.98 -0.52,3.57 -0.93,5.52 -0.38,1.84 -0.61,3.71 -1.02,5.55 -0.66,3 -0.51,2.97 -0.93,5.51 -0.45,2.72 -0.89,9.77 -0.09,12.31 0.24,0.76 0.46,1.77 0.77,2.56l2.67 5.46c0.94,1.43 1.1,1.58 2.14,2.75 0.48,0.54 0.92,1.47 1.83,1.49 1.12,0.02 1.64,-0.41 3.11,-0.09 1.01,0.22 1.61,0.94 2.32,1.01 0.12,-0.33 0.4,-1.38 0.68,-1.62 0.39,-0.34 0.31,-0.01 0.73,-0.36 0.45,-0.38 -0.01,-0.27 0.5,-0.63 0.53,-0.16 4.06,-0.32 4.65,-0.19 -0.05,0.68 -0.51,1.32 -0.45,1.9l0.96 0.07 0.22 0.52c1.5,-0.72 1.75,-1.04 3.86,-1.2 1.5,-0.11 2.86,0.22 3.88,1.06 0.36,-0.45 0.56,-1.17 0.74,-1.82 1.1,-0.28 0.74,-0.06 1.19,-0.96l4.77 -0.18c-0.06,0.95 -0.35,0.93 -0.29,2.06 0.32,0.14 0.39,0.01 0.6,0.15 0.4,0.26 0.18,0.73 0.29,0.44 0.01,-0.02 0.01,0.08 0.03,0.11 0.63,-0.27 0.21,-0.28 0.87,-0.56 0.36,-0.15 0.56,-0.19 0.97,-0.37 0.59,-0.26 1.48,-0.45 2.16,-0.5 2.36,-0.16 2.78,0.6 4.02,1.26 0.33,-1.06 0.48,-2.87 1.13,-3.07 0.03,-0.01 0.08,-0.02 0.11,-0.03 0.28,-0.09 0.01,0.02 0.21,-0.07 0.44,-0.18 0.46,-0.42 0.72,-1.02l4.89 0c-0.15,0.81 -0.65,2.07 -0.54,2.83z"/>
   <path class="fil2" d="M68.94 75.11c-0.15,-0.77 0.88,-3.63 1.16,-4.49l1.19 -3.8c0.26,-0.43 0.27,-0.37 0.94,-0.29 0.23,0.84 -0.83,3.61 -1.18,4.61 -0.81,2.35 -0.65,4.23 -2.11,3.96zm-19.89 -36.15c-1.77,0.49 -1.91,2.18 -0.11,1.68 1.58,-0.44 1.84,-2.16 0.11,-1.68zm-18.78 -1.86l0 0.67c0,1.58 2.14,1.03 2,-0.1 -0.13,-0.98 -2,-2.25 -2,-0.57zm31.32 24.71l-4.12 0.21c-0.24,0.44 -0.62,1.51 -0.69,2.15l4.21 -0.24 0.61 -2.12zm-47.89 17.54c1.42,0.29 2.42,-0.2 3.39,-0.62 0.08,-0.77 -0.46,-1.51 -0.75,-2.21 -0.19,-0.47 -0.13,-0.67 -0.29,-1.2l-0.48 -1c-0.14,0.21 -1.89,4.47 -1.87,5.03zm42.58 -13.26c0.38,-1.19 2.92,-1.53 2.02,0.32 -0.49,1.01 -0.86,2.44 -1.24,3.62 -0.51,1.57 -2,6.42 -2.16,7.86l1.68 -0.16c0.37,-0.5 4.09,-12.49 3.99,-13.01l-3.98 0.19c-0.27,0.38 -0.32,0.66 -0.31,1.18zm-22.8 4.67c0.89,-1.27 0.59,-2.77 1.35,-2.95 0.85,-0.2 0.29,0.25 1.02,-0.38 1.69,-1.48 2.27,0.7 2.3,2.33 0.04,1.75 -0.3,3.24 -0.77,4.78 -0.23,0.76 -0.34,1.6 -0.58,2.23 -0.24,0.64 -0.51,1.3 -0.69,1.93 0.83,-0.28 0.81,-1.6 1.09,-2.47 0.3,-0.93 0.63,-1.8 0.92,-2.73 0.29,-0.93 0.46,-1.91 0.75,-2.89 0.26,-0.85 0.67,-1.93 0.67,-2.86 0,-4.27 -7.91,-2.42 -9,0.81 -0.24,0.71 -0.65,1.31 -0.67,2.28l3.62 -0.09zm-16.08 0.48c1.19,0.25 1.27,-0.49 1.41,-1.47 0.1,-0.72 0.43,-1.61 1.3,-1.43 0.23,0.82 -0.13,1.96 -0.52,2.48 -0.45,0.59 -1.31,0.6 -2,0.98 -0.01,0.73 0.16,1.3 0.42,1.86l0.78 -0.39c0.15,1.28 -0.8,1.02 0.3,3.57 1.09,2.51 1.05,2.19 2.23,2.07l1.4 -4.69c0.29,-1.57 1.11,-3.04 1.38,-4.7 0.35,-2.14 0.38,-3.16 -2.1,-3.56 -1.64,-0.26 -4.03,0.25 -4.88,1.13 0.03,0.04 0.08,0.14 0.1,0.17 0.01,0.02 0.04,0.06 0.05,0.08 0.95,1.44 -0.31,1.87 0.14,3.9zm19.79 -16.04c0.55,-0.1 1.03,-0.24 1.57,-0.36 0.86,-0.19 2.23,-0.41 2.85,-1.04 -1.77,-0.35 -14.02,-0.95 -16.9,-1.17 -1.41,-0.11 -4.21,-0.73 -5.2,0.12 -0.02,0.73 0.97,3.12 3.1,3.03 0.45,-0.68 0.46,-0.49 0.35,-1.52 0.97,0.47 0.66,1.16 2.19,1.25 1.41,0.08 1.28,-0.53 1.46,-1.57 0.95,-0.03 0.66,0.32 1.24,0.86 0.44,0.42 0.97,0.31 1.72,0.38 -0.6,0.35 -0.95,0.69 -1.25,1.18 -0.8,0.02 -1.68,-0.09 -2.41,0.09 -0.96,0.24 -0.44,0.65 -1.34,0.98 -0.56,-0.38 -0.49,-0.86 -1.03,-1 -1.49,-0.4 -1.41,3.06 0.47,3.02 1.19,-0.02 3.01,-1.65 5.25,-2.41 1.17,-0.4 2.09,-0.44 3.24,-0.76 2.67,-0.74 2.24,-0.62 4.69,-1.07zm8.81 8.36l-4.19 0.27c-0.7,1.53 0.14,1.34 -1.06,1.92 -0.53,0.25 -0.88,1.3 -1,2.04l0.78 0.22c-0.07,0.93 -0.79,2.23 -1,3.35 -0.24,1.21 -0.71,2.09 -1.07,3.26 -1.27,4.17 0.16,3.86 4.15,3.6 0.23,-0.29 0.46,-0.9 0.57,-1.35 0.26,-1.13 -0.42,-0.43 -0.89,-0.85 -0.28,-0.25 0.53,-2.19 0.69,-2.66 0.6,-1.82 1.02,-3.92 1.78,-5.63 0.95,-0.13 1.13,0.22 1.28,-0.66 0.1,-0.57 0.33,-1.01 0.31,-1.46l-0.93 -0.05 0.59 -2.01zm-1.2 -22.88c-1.33,-0.07 -2.83,0.85 -3.64,1.77 -0.49,0.55 -0.32,0.79 -0.22,1.56 2.12,0.57 3.71,-0.64 8.1,-0.55 3.02,0.06 5.48,0.76 8.6,0.58 0.57,-0.76 1.37,-1.92 2.02,-2.68 0.48,-0.57 1.56,-2.23 1.86,-3.03 1.73,-4.52 -2.54,-2.65 -4.72,-1.74 -0.49,0.21 -3.25,1.23 -3.39,1.39 -1.14,1.35 1.26,4.79 -5.17,4.2 -2.19,-0.2 -2.55,0.05 -3.43,-1.5zm-24.19 -11.6c-0.95,0.39 -1.54,1.27 -1.96,2.28 -0.29,0.72 -0.76,2.65 -0.66,3.58 0.14,1.2 1.11,1.65 2.14,2.04 2.11,0.81 3.59,1.01 5.9,2.72l1.33 0.85c0.89,0.69 2.9,2.26 3.74,2.67 0.47,0.23 1.1,0.39 1.61,0.03 0.06,-0.04 1.18,-0.93 1.22,-0.97 1.18,-1.24 1.29,-1.64 0.23,-2.43 -1.01,-0.77 -1.36,-0.49 -2.88,0.55 -2.11,1.45 -2.98,-0.38 -4.53,-2.88 -1.75,-2.83 1.29,-3.18 0.51,-4.62 -0.03,-0.05 -0.88,-1.02 -1.01,-1.18l-2.4 -1.84c-0.86,-0.55 -1.98,-1.32 -3.25,-0.8zm28.78 40.62c-0.05,-0.57 0.27,-1.01 0.42,-1.61 0.18,-0.71 0.13,-0.97 1.09,-0.8 0.12,0.32 -0,2.93 -1.51,2.41zm-0.73 2.23c4.35,-0.75 4.84,0.82 5.48,-1.38 0.53,-1.8 1.35,-3.76 -0.2,-5.01 -1.45,-1.17 -5.39,-0.9 -7.46,1.49 -0.97,1.11 -2.13,5.48 -2.72,7.27 -1.84,5.61 6.96,5.16 8.89,0.72 0.32,-0.73 0.68,-1.6 0.82,-2.55l-3.76 0.3c-0.92,1.07 -0.36,3.32 -2.23,3.2 -0.05,-0.85 0.78,-3.3 1.16,-4.02zm-16.83 4.55c0.05,-0.84 0.79,-3.4 2.35,-3.83 0.04,0.55 -0.4,1.38 -0.6,1.93 -0.81,2.31 -0.41,1.93 -1.75,1.89zm-1.19 -12.52l-3.95 0.24c-0.4,0.64 -0.14,1.69 -1,2.08 -0.8,0.36 -0.44,0 -0.74,0.9 -0.19,0.56 -0.37,0.51 -0.38,1.14l0.7 0.23c0.05,0.76 -0.8,2.56 -1.07,3.4 -2.31,7.23 -2.26,7.18 3.28,6.91l0.32 -1.05c0.82,0.96 0.77,1.18 2.58,1.09 1.63,-0.09 1.49,-0.88 2.32,-1.2l-0.13 1.02c1.63,-0 1.6,-0.36 1.91,-1.66 0.55,-2.34 0.86,-1.66 1.32,-5.33 0.07,-0.59 0.16,-1.82 0,-2.4l-0.31 -0.53c-0.81,1.05 -0.17,1.51 -1.8,2.15 -0.86,0.33 -1.97,0.64 -2.78,1.07 -1.54,0.83 -1.47,0.88 -1.99,1.82 -0.5,0.9 -0.65,1.84 -0.96,2.81 -1.06,-0.03 -1.06,-0.17 -0.73,-1.1 0.38,-1.07 2.08,-7.1 2.32,-7.24 0.7,-0.39 0.84,0.4 1.25,-0.7 0.16,-0.43 0.38,-1.02 0.39,-1.47l-1 0.05 0.47 -2.22zm-23.64 12.76c0.04,-1.13 0.8,-3.22 1.31,-4.24 0.39,-0.02 0.72,0.06 0.98,0.16 0.07,0.57 -0.28,1.18 -0.49,1.79 -0.5,1.44 -0.12,2.23 -1.79,2.28zm2.21 -6.82c-0.07,-0.69 0.21,-1.12 0.42,-1.78 0.21,-0.64 0.19,-1.13 0.47,-1.69l0.91 0.11c0.13,0.72 -0.27,3.4 -1.81,3.36zm2.96 1.06c0.24,-0.64 1.04,-0.48 1.55,-1.01 1.56,-1.6 1.72,-4.81 0.98,-5.63 -0.68,-0.76 -3.08,-0.68 -4.38,-0.62 -3.03,0.15 -3.65,-0.21 -4,0.96 -0.78,2.59 -1.46,4.98 -2.25,7.48 -0.18,0.56 -0.44,1.25 -0.62,1.8l-0.5 1.9c-0.43,1.32 -0.93,2.43 -1.1,3.86 1.56,0.04 3.84,-0.07 5.44,-0.17 1.55,-0.1 3.23,-0.26 4.13,-1.36 0.82,-1.01 1.3,-2.33 1.68,-3.75 0.87,-3.25 0.27,-2.67 -0.93,-3.46zm54.65 -2.88c-0.06,-0.78 1.01,-2.68 1.15,-3.71 -0.77,-0.08 -1.18,0.23 -1.67,0.54 -1.06,0.67 -0.59,0.68 -1.22,0.88 0.15,-0.56 0.31,-0.48 0.34,-0.88 0.05,-0.82 -3.79,-0.15 -3.79,-0.15 -0.27,0.17 -0.57,1.28 -0.66,1.53l-1 3.32c-0.6,1.78 -2.11,6.56 -2.41,8.11 0.63,0.02 1.75,0.05 2.31,-0.16 0.41,-0.15 0.33,-0.21 0.71,-0.39 1.16,-0.55 0.93,0.13 1.58,-1.7 0.18,-0.51 0.41,-1.07 0.58,-1.57 0.39,-1.18 0.26,-1.69 1.06,-3.39 0.67,-1.44 1.08,-1.37 2.85,-1.63 -0.15,0.71 -0.55,1.71 -0.81,2.39 -0.31,0.81 -0.36,1.51 -0.63,2.33 -0.66,2.02 -0.41,3.46 1.61,3.93 3.94,0.92 6.89,-1.71 7.72,-4.4 0.46,-1.51 1.12,-3.16 1.38,-4.69 0.17,-1 0.62,-1.47 0.22,-2.58 -0.26,-0.73 -0.79,-1.23 -1.5,-1.52 -2.05,-0.82 -4.51,0.06 -6.04,1.16 -0.34,0.25 -1.66,2.22 -1.77,2.56z"/>
  </g>
 </g>
</svg>
