<?xml version="1.0" encoding="UTF-8"?>
<!DOCTYPE svg PUBLIC "-//W3C//DTD SVG 1.1//EN" "http://www.w3.org/Graphics/SVG/1.1/DTD/svg11.dtd">
<!-- Creator: CorelDRAW -->
<svg xmlns="http://www.w3.org/2000/svg" xml:space="preserve" width="42.2106mm" height="42.1561mm" version="1.1" style="shape-rendering:geometricPrecision; text-rendering:geometricPrecision; image-rendering:optimizeQuality; fill-rule:evenodd; clip-rule:evenodd"
viewBox="0 0 76.72 76.62"
 xmlns:xlink="http://www.w3.org/1999/xlink"
 xmlns:xodm="http://www.corel.com/coreldraw/odm/2003">
 <defs>
  <style type="text/css">
   <![CDATA[
    .fil0 {fill:#100E0F}
    .fil2 {fill:#1F8ADD}
    .fil20 {fill:#525152}
    .fil18 {fill:#553C49}
    .fil17 {fill:#67664B}
    .fil8 {fill:#A2A1A2}
    .fil16 {fill:#A3999D}
    .fil14 {fill:#A6A5A6}
    .fil9 {fill:#ABA8AA}
    .fil21 {fill:#AEADBE}
    .fil15 {fill:#B2B07E}
    .fil11 {fill:#B2B1B2}
    .fil22 {fill:#C3BCB9}
    .fil19 {fill:#EFEFEF}
    .fil10 {fill:#EFF1A8}
    .fil7 {fill:#F1F0F1}
    .fil13 {fill:#F3F2F3}
    .fil6 {fill:whitesmoke}
    .fil5 {fill:#F9F9F9}
    .fil12 {fill:#FBFBFB}
    .fil3 {fill:#FD6D7C}
    .fil1 {fill:#FDFDFD}
    .fil4 {fill:#FFB9E4}
   ]]>
  </style>
 </defs>
 <g id="Camada_x0020_1">
  <metadata id="CorelCorpID_0Corel-Layer"/>
  <g id="_2087079525440">
   <path class="fil0" d="M44.02 12.7c0.15,-0.61 1.48,-1.77 2,-2.18 0.51,-0.4 0.76,-0.74 1.38,-0.33 2.2,1.44 5.17,3.3 7.48,1.07 5.45,-5.28 -8.49,-16.99 -15.76,-5.31 -3.19,5.13 0.29,4.22 -6.14,6.36 -2.1,0.7 -1.71,0.82 -2.78,1.29 -1.75,-3.03 0.2,-8.83 -1.66,-11.34 -1.14,-1.53 -1.94,-2.83 -4,-2 -1.51,0.61 -2.3,1.72 -4.17,2.27 -3.64,1.08 -7.69,-0.62 -8.13,4.91 -0.2,2.49 0.27,3.68 1.95,4.52 2.21,1.11 3.35,0.13 5.29,-0.15 0.49,0.74 0.89,1.98 1.3,2.83 0.38,0.78 1.37,2.11 1.5,2.6 -0.35,0.39 -7.47,3.5 -8.48,3.73 -1.11,0.26 -1.73,-0.01 -2.84,-0.02 -6.05,-0.07 -4.39,0.65 -5.2,3.86 -1.56,0.78 -3.04,1.14 -4.45,2.12 -0.85,0.59 -0.79,1.14 -0.85,2.32 -0.26,4.71 0.38,19.65 -0.12,22.49 -0.86,4.94 0.29,3.27 0.12,5.56 -0.12,1.62 -1.1,4.44 0.14,5.5 1.08,0.93 2.58,-0 5.15,1.28 0.04,1.17 -1.07,2.63 0.21,3.79 0.91,0.83 2.81,0.56 4.2,0.52 1.52,-0.04 3.12,-0.07 4.66,-0.09 2.1,-0.03 2.44,-0.25 4.28,0.48l16.81 6.91c1.09,0.44 2.36,1.23 3.6,0.78 2.32,-0.85 4.35,-1.92 6.51,-2.9 0.96,-0.44 9.23,-4.52 9.88,-4.36 1.27,0.31 0.36,1.03 3.53,-0.44 0.02,0.02 0.05,0.06 0.07,0.07l0.31 0.48c0.37,0.63 0.94,0.96 1.74,0.69 0.84,-0.29 1.46,-1.11 1.84,-1.63 1.28,-0.05 2.5,-0.04 3.79,-0.08 1.42,-0.04 1.76,-0.51 2.21,-1.55 0.13,-0.29 0.4,-1.22 0.51,-1.42 0.22,-0.37 0.76,-0.43 1.15,-0.78 0.82,-0.73 0.67,-1.6 0.84,-2.91 0.64,-0.54 2.69,-1.3 3.58,-1.82 1.64,-0.95 1.21,-2.07 1.12,-4.05 -0.16,-3.44 -0.28,-6.9 -0.46,-10.31 -0.26,-5.01 -0.59,-10.62 -0.7,-15.6 -0.03,-1.57 0.08,-3.67 -0.88,-4.54 -0.92,-0.83 -20.09,-8.29 -23,-9.5l-7.54 -3.14z"/>
   <path class="fil1" d="M38.48 45.76l4.71 0.01c0.09,0.59 -0.38,3.37 -0.63,3.89l-4.8 0.04 0.72 -3.94zm1.42 -7.31c-0.78,-0.58 -2.33,-0.42 -3.26,-0.7l-0.23 -0.1c-0.02,-0.05 -0.08,-0.03 -0.11,-0.06l8.5 -0 -0.86 4.02 -4.57 0.02 0.52 -3.17zm-5.72 -5.06c-0.21,0.35 -4.15,19.86 -4.17,21.01 5.21,0.08 10.71,-0.21 15.9,-0.34 3.01,-0.08 3.15,-1.95 3.59,-4.59 0.19,-1.13 0.48,-2.45 0.6,-3.48 0.09,-0.73 0.02,-1.23 -0.32,-1.65 -0.46,-0.56 -0.81,-0.43 -1.29,-0.77 1.63,-1.2 2.12,0.25 2.99,-5.03 0.39,-2.34 1.57,-5.51 -1.57,-5.58l-15.73 0.44z"/>
   <path class="fil2" d="M54.29 32.46c-0.26,0.5 -1.39,6.29 -1.26,6.91l7.17 -0.19c0.23,-0.92 0.22,-1.44 0.04,-1.61 -1.01,-0.51 -3.66,-0.21 -4.48,-0.73l8.78 -0.11c0.2,0.67 -0.25,2.13 -0.42,3.1 -0.35,1.96 -1.19,0.87 -3.26,1.12l-0.5 4.1c0.89,0.26 1.89,0 2.77,0.09 0.07,0.64 -0.41,3.48 -0.6,3.94l-4.02 0.1 0.36 -2.82 -7.3 0.09c-0.32,0.83 -1.48,7.07 -1.33,7.45l7.91 -0.04c9.82,-0.24 10.3,0.76 11.2,-5.05 0.8,-5.23 1.17,-4.72 -1.19,-5.91 0.39,-0.29 1.54,-0.24 2.31,-1.6 0.57,-1 1.11,-5.49 1.26,-6.85 0.16,-1.49 -0.16,-2.17 -1.6,-2.33 -1.11,-0.12 -14.62,0.18 -15.86,0.34z"/>
   <path class="fil1" d="M52.34 68.43c0.25,-0.63 0.66,-0.18 0.78,-1.17 0.01,-0.06 -0.06,-0.27 0.14,-0.57 0.09,0.1 0.13,0.05 0.22,0.27 0.18,0.46 -0.09,0.51 -0.1,0.53 -0.48,0.77 -0.33,0.96 -1.04,0.94zm-29.75 -1.26c1.75,-0.18 2.86,0.5 4.2,1.05l11.48 4.75c1.23,0.54 1.37,0.2 3.66,-0.91 1.21,-0.58 2.43,-1.18 3.68,-1.74 1.26,-0.56 2.48,-1.08 3.74,-1.67 0.65,-0.3 1.12,-0.63 1.78,-0.93 0.79,-0.36 1.47,-0.21 1.33,-1.32 -1.03,-0.05 -0.88,1.39 -1.64,0.87 0.25,-0.61 0.16,0.27 0.7,-0.58l1.31 -1.92c0.3,-0.43 0.3,-0.65 0.9,-0.66 -0.16,0.45 -0.33,0.47 -0.49,0.82 -0.26,0.56 -0.19,2.26 -1.33,3.18l-12.37 5.82c-0.88,0.38 -2.96,-0.73 -4.28,-1.29 -1.45,-0.61 -2.84,-1.18 -4.28,-1.78l-7.48 -3.09c-0.48,-0.2 -0.71,-0.21 -0.91,-0.6zm41.08 -6.61c0.15,-0.45 1.15,-1.66 1.56,-1.94 -0.05,0.39 -0.21,1.12 -0.32,1.47 -0.2,0.63 -0.5,0.47 -1.24,0.47zm-6.96 -3.19c0.29,1.71 -1.93,2.24 -0.71,-0.17l0.71 0.17zm-51.62 -24.57c-0.09,-0.31 0,0.13 -0.05,-0.22 -0.01,-0.05 -0.01,-0.33 -0.01,-0.39 -0.01,-0.97 -0.14,-2.18 0.4,-2.37 0.14,0.16 0.28,-0.17 0.19,0.82 -0.06,0.63 -0.17,1.9 -0.45,2.34l-0.09 -0.17zm-2.2 2.87c0,-1.88 -0.01,-3.79 -0.05,-5.68 -0.03,-1.41 0.03,-1.14 1.2,-1.66 0.64,-0.28 1.38,-0.73 2.1,-0.82 -0.22,1.78 -0.89,1.07 -1.78,1.92 -0.39,0.97 0.04,5.49 -0.18,7.04 -0.16,1.09 -0.88,5.13 -1.32,5.77l0.04 -6.58zm3.69 -11.2c-0.07,1.35 -0.08,1.7 -1.13,2.18 -3.63,1.65 -3.54,-0.1 -3.48,3.09l0.09 16.25c0.01,2.51 -1.46,7.41 -1.39,8.5 0.09,1.36 0.98,0.75 0.71,2.42 -0.85,5.34 -1.62,5.75 3.02,5.57 1.11,-0.04 1.41,-0.44 2.45,0.27 0.05,1.11 -0.92,3.14 -0.62,4.08 0.38,1.18 2.74,0.71 3.97,0.69 3.02,-0.06 6.15,-0.23 9.16,-0.18 1.23,0.02 5.57,2.04 6.89,2.58l11.6 4.78c0.68,0.29 0.97,0.58 1.69,0.26 2.16,-0.96 4.2,-1.98 6.35,-2.94 2.22,-0.99 4.17,-1.99 6.42,-2.99l4.75 -2.22c0.53,-0.24 0.49,-0.35 0.83,-0.3 0.35,0.05 0.5,0.32 0.58,0.65 -0.65,-0.43 0.23,-0.38 -0.68,-0.43 -0.21,0.5 -0,0.23 0.1,0.75 -0.94,-0.28 -1.94,-0.04 -1.32,1.04 0.65,-0.43 0.7,-0.06 1.31,-0.38 0.81,-0.42 -0.01,-0.54 1.19,-0.75 -0.2,0.56 -0.04,0.66 -0.78,0.81l0.25 0.04c0.53,-0.12 0.59,-0.42 0.92,-0.94l0.9 0.29 0.58 0.1 0.05 0.86c0.89,-0.02 1.42,-1.01 1.43,-1.94 0.92,0.14 0.27,0.28 0.87,0.2 0.46,-0.05 -0.1,-0.03 0.34,-0.14 0.88,-0.21 0.53,0.48 1.68,-0.16 0.44,-1.1 0.74,0.02 0.83,-1.12l-1.1 -0.02 -0.42 0.85c-0.23,-0.24 -0.03,0.01 -0.16,-0.38 -0.13,-0.37 0.19,0.1 -0.1,-0.34 -0.66,0.08 -0.33,0.26 -0.9,0.73l-0.04 -0.26c-0.04,-0.69 0.25,-0.18 -0.09,-0.61 -0.23,0.13 -0.31,0.28 -0.52,0.53l-0.22 -0.16c-0.48,-0.15 -1.1,-0.34 -1.36,-0.85l0.78 -0.53 0.53 -0.04c0.04,0.51 0.08,0.3 -0.13,0.64l-0.04 0.33 0.3 0.04 0.22 -1.41 -1.95 0.05 0.34 -0.95 2.79 -0.06 -0.46 2.16 4.37 -0.06 0.4 -1.66c0.13,-0.37 -0.03,0.02 0.13,-0.27l1.53 -0.28 -0.01 -2.31 -0.94 -0.06c-0.02,-1.52 1.12,-4.1 1.12,-5.73l-6 0.01c-0.73,0.85 -4.16,5.4 -4.23,6.3 -0.03,0.42 -0.12,1.42 0.02,1.77l0.71 1c-0.39,0.53 -0.53,0.47 -0.58,1.23 0.83,0.06 0.84,-0 1.17,0.67l-0.72 0.79c0.08,-0.41 0.09,-0.1 0.29,-0.45 0.51,-0.91 -0.75,-1.17 -0.99,-0.07 -0.17,0.78 0.05,0.92 0.47,1.23 -0.71,0.01 -0.45,-0.36 -0.7,-0.79 -0.19,-0.32 0.03,-0.14 -0.31,-0.3 -0.04,0.03 -0.57,-0.01 -0.06,0.81 -0.22,-0.08 -0.17,-0.16 -0.38,-0.39 -0.18,-0.2 -0.19,-0.21 -0.42,-0.36 -0.32,-0.21 -0.74,-0.48 -1.05,-0.63 0,-0.27 0.01,-0.36 0.04,-0.5 0.06,-0.35 -0.06,-0.51 -0,-0.9 0.02,-0.15 0.12,-0.35 0.16,-0.4 0.31,-0.35 0.02,-0.13 0.38,-0.19 0.36,-0.08 1.03,-0.37 1.53,-0.62 0.37,-1.5 -0.25,-2.42 -0.29,-3.42 1.01,-0.69 1.24,-0.57 1.62,-2.09 0.33,-1.29 0.22,-2.23 -1.03,-2.43 -0.78,-0.13 -6.79,-0.03 -7.34,0.15 -0.37,0.82 -0.84,3.44 -1.08,4.41 -0.46,1.91 -0.8,2.72 -0.62,4.86 0.68,-0.04 0.32,-0.21 0.78,-0.2 0.25,0 0.24,0.12 0.68,0.18 0.38,-0.46 0.76,-0.98 1.4,-1.25 0.24,0.1 0.06,0.03 0.31,0.18 0.32,0.19 -0.03,0.04 0.34,0.2 0.43,-0.64 0.41,-1.88 0.8,-2.42 1.09,0.11 0.71,0.9 0.51,1.78 -0.15,0.66 -0.49,1.69 -0.4,2.28 1.14,0.5 1.09,0.19 1.8,-0.36 -0.01,0.99 0.04,0.79 0.39,1.43 -0.95,0.02 -1.29,-0.17 -1.78,0.38 -1.35,1.51 -1.48,0.38 -2.01,-0.1 -0.07,-0.06 -0.11,0.04 -0.16,-0.12 -0.01,-0.05 -0.06,-0.04 -0.08,-0.06 0.13,-1.06 1.01,-2 0.57,-2.84 -0.91,-0.43 -1.6,1.12 -2.12,1.63l0.03 -0.71c-1.32,0.01 -0.6,0.62 -1.45,1.02 0.12,-0.78 0.54,-1.43 0.04,-2.2 -0.47,-0.37 -1.84,1.01 -1.89,1.59 -0.04,0.36 -0.05,0.18 0.09,0.42 0.63,-0.35 0.57,-1.28 1.57,-1.48 0.06,0.83 -0.37,1.5 -0.38,2.28 -0.1,0.66 -0.48,1.24 -0.66,1.77l0.37 0.12c0.67,-0.74 0.85,-2.12 1.77,-2.54 -0.16,1.41 -0.36,0.85 -0.9,1.55 -0.56,0.74 -0.25,0.93 -1.12,1.36l-0.2 -0.18c-0.2,-0.13 -0.13,0.08 -0.27,-0.39 -0.99,0.63 -6.14,2.98 -7.87,3.8 -1.48,0.7 -1.26,1.01 -2.84,0.33 -1.45,-0.62 -10.45,-4.13 -10.94,-4.75 0.37,-0.27 1.47,0.02 2.09,-0.07 0.85,-0.12 1.12,-0.4 1.74,-0.74l0.73 0.42c-0.12,-0.34 -0.17,-0.26 0.2,-0.21 -0.4,-0.18 -0.5,-0.35 -0.8,-0.59 -0.97,0.3 -0.86,0.81 -2.57,0.86 -1.04,0.03 -2.08,0.08 -3.09,0.1 -0.8,0.02 -2.59,0.1 -3.24,-0.13 -1.28,-0.44 -0.11,0.24 -2.43,0.27 -1.67,0.02 -12.27,0.4 -12.88,-0.02 -0.94,-0.64 0.31,-2.8 0.45,-4.76 -2.37,-0.77 -1.3,-0.13 -2.91,-0.08 -1.1,0.03 -2.46,0.14 -3.26,-0.27 -0.35,-1.12 0.26,-3.74 0.48,-4.98 0.34,-1.91 -0.12,-1.03 -0.43,-2.06 -0.29,-0.95 2.46,-13.76 2.96,-16.31 0.16,-0.81 0.24,-1.6 0.64,-2.2 0.46,-0.7 0.42,-1.28 0.56,-2.13 0.23,-1.48 1.49,-8.81 1.43,-9.64l-0.02 -0.33 -0.19 0.23z"/>
   <path class="fil1" d="M72.08 41.58c0.24,0.49 0.75,13.28 0.73,14.84 -0.35,0.31 -1.39,0.93 -1.96,0.88 -0.06,-1.56 1.7,-3.7 -1.2,-3.72 -0.02,-0.58 0.25,-0.73 0.47,-1.3 0.32,-0.84 1.41,-7.09 1.25,-8.04 -0.12,-0.74 -0.5,-1.31 0.58,-2.53l0.14 -0.14zm-28.85 -11.86c-0.74,-0.56 -1.38,-0.12 -1.86,-0.74 0.27,-0.66 0.61,-0.31 1.65,-0.94 0.04,-0.62 -0.28,-1.4 0.05,-1.88 0.66,0.06 0.4,0.29 1.29,1.23 0.84,0 1.19,-0.7 1.84,-0.51 0.29,0.59 -0.44,0.86 -0.68,1.72 0.27,0.47 0.84,0.91 0.94,1.14l0.03 0.47c-0.72,0.24 -0.75,-0.26 -1.91,-0.23 -0.12,0.25 -0.26,0.52 -0.42,0.85 -0.22,0.44 -0.2,0.55 -0.7,0.59 -0.27,-0.46 -0.18,-1.15 -0.23,-1.7zm-30.33 -7.37c0.09,0.48 -0.01,0.15 0.11,0.23 0.01,0.01 0.07,-0.01 0.08,-0.04 0.01,-0.04 0.06,-0.05 0.09,-0.08 0.4,-0.57 1.3,-0.37 2.05,-0.37 0.75,0 1.78,-0.08 2.49,0.03 0.61,1.38 -0.47,4.28 -0.47,6.11 0.28,-0.12 1.26,-0.61 1.53,-0.79 -0.02,-0.67 -0.09,-0.85 -0.01,-1.59 0.21,-2.05 0.38,-1.56 4.33,-1.56 1.37,-0 2.54,-0.18 3.1,0.96 0.7,1.43 -0.66,5.29 -0.45,6.89 1.11,0.23 4.83,-0.12 6.12,0.02 0.97,0.11 0.76,0.4 1.15,1.04 1.17,-1.33 0.07,-1.03 4.64,-1.06 2.21,-0.01 12.21,-0.53 13.58,-0.12 1.07,0.32 1.04,0.78 1.64,1.39 0.28,-0.35 0.24,-0.84 0.36,-1.23 0.14,-0.46 0.34,-0.7 0.72,-0.82l15.04 -0.44c2.11,-0.05 3.61,0.48 3.78,2.57 0.09,1.17 -0.69,6.91 -1.25,8.07 -0.74,1.53 -1.13,0.94 -0.76,2.02 0.48,1.39 -0.44,6.27 -0.88,8.07 -0.25,1.01 -0.88,1.7 -0.98,2.19 1.91,0.11 2.45,-0.22 1.97,2.02 -0.22,1.01 -0.69,2.7 -0.72,3.71 0.94,0.54 0.69,1.33 0.69,2.68 -0,1.69 -0.35,1.37 -1.69,1.72 -0.2,0.38 -0.38,1.07 -0.4,1.57 0.12,0.23 -0.06,0.18 0.27,0.18l0.32 -1.44c0.92,-0.48 1.58,0.18 1.74,-1.38 0.08,-0.77 -0.21,-2.22 0.26,-2.68 0.57,-0.55 3.42,-1.32 4.03,-2.05 0.26,-0.85 -0.62,-16.76 -0.73,-19.13 -0.15,-3.16 -0.24,-6.37 -0.43,-9.53 -0.18,-3.1 0.31,-2.81 -1.47,-3.51l-17.6 -7.15c-2.38,-0.96 -4.71,-1.91 -7.06,-2.86 -1.06,-0.43 -6.39,-2.83 -7.11,-2.63l-0.16 0.77c1.21,0.34 2.88,1.12 4.15,1.64 1.37,0.56 2.67,1.08 4.04,1.64 1.92,0.78 23.52,9.42 24.25,9.91l1.28 30.29c-0.62,0.32 -3.57,1.88 -3.97,1.68 -0.75,-0.71 2.29,-1.56 3.09,-2.15 0.12,-1.41 -0.08,-3.35 -0.14,-4.82 -0.05,-1.48 -0.13,-3.02 -0.2,-4.5 -0.14,-3.11 -0.25,-6.19 -0.4,-9.29 -0.09,-1.77 0.34,-2.94 0.32,-4.51 -0.03,-1.9 -0.55,-1.15 -0.71,-4.05 -0.14,-2.56 0.26,-2.06 -1.92,-2.97 -9.51,-3.94 -19.6,-7.95 -29.02,-11.96 -0.79,-0.34 -1.19,-0.74 -1.4,0.29 0.27,0.42 0.53,0.41 1.01,0.61l28.05 11.53c2.19,0.92 2.66,0.49 2.43,3.29 -0.5,0.04 -0.84,-0.18 -1.34,-0.26 -1.69,-0.29 -8.57,0.28 -10.75,0.22 0.34,-0.71 0.95,-0.58 1.21,-1.47 -0.43,-0.27 -1.15,-0.41 -1.7,-0.38 -0.45,0.45 -0.5,1.3 -1.15,1.52 -0.38,-1 0.09,-1.82 -0.62,-2.1 -0.61,-0.24 -0.89,-0.05 -1.35,-0.46 0.34,-0.7 0.93,-0.52 1.57,-1.03l-0.09 -2.05c0.61,0.13 0.91,0.94 1.38,1.36 0.45,-0.04 1.24,-0.5 1.54,-0.73 -0.29,-0.78 -1.36,-1.19 -2.44,-1 -1.05,0.18 -1.56,0.75 -1.97,1.49 -0.49,0.88 -0.59,1.96 -0.22,2.99 0.41,1.15 1.21,1.32 1.56,1.81 -0.73,0.37 -2.09,0.11 -3,0.18 -1.15,0.09 -1.15,0.66 -1.54,1.46 -0.9,-0.13 -0.5,-0.91 -2.96,-0.93 -1.02,-0.01 -2.92,0.15 -3.8,-0.01 0.08,-0.66 1.58,-1.61 0.83,-3.78 -0.99,-2.88 -4.7,-2.81 -5.51,0.36 -0.5,1.97 0.96,2.87 1.07,3.59l-0.89 -0.06c-0.33,-1.04 -0.4,-2.55 -1.37,-3 -0.87,0.79 -0.92,2.42 -1.8,3.13 -0.36,-0.58 0.69,-1.37 0.96,-2.71 -3.03,0.52 -2.49,0.49 -5.28,0 0.47,1.14 2.91,1.88 3.12,2.75 -1.01,0.07 -5.34,-3.99 -6.45,-4.45 -0.51,-0.21 -0.94,-0.11 -1.37,-0.41 -0.55,-0.39 -0.29,-0.76 -0.78,-1.03 -0.81,1.18 0.57,2.43 0.42,3.02 -0.06,0.24 -0.48,0.83 -0.62,1.31 -0.16,0.55 -0.16,1.14 -0.34,1.59l-1.89 -0.02c-0.12,-2.62 2.18,-7.46 -1.57,-7.71 -0.83,-0.06 -4.7,-0.12 -5.23,0.05 -1.41,0.46 -0.19,3.27 -1.6,3.54 -0.09,-0.64 0.14,-1.5 0.24,-2.15 0.15,-0.95 0.01,-1.18 0.78,-1.57l6.48 -2.93c1.32,-0.59 2.28,-0.65 2.59,-2.15 -0.89,0.13 -3.85,1.65 -4.84,2.1 -0.74,0.33 -4.08,2.06 -4.67,1.89 -0.28,-1.05 1.05,-1.22 1.78,-1.56 0.77,-0.36 1.51,-0.67 2.32,-1.04 0.85,-0.39 4.02,-1.67 4.54,-2.1 -0.88,-1.02 -2.37,0.02 -3.33,0.47l-6.74 3.06c-1.46,0.57 -3.69,-0.43 -3.93,0.8z"/>
   <path class="fil2" d="M9.75 37.16l-4.24 0.14 -3.37 16.97c1.22,-0.12 1.93,-0.23 3.18,-0.17 0.68,0.03 1.04,0.24 1.43,0.27 0.5,0.04 0.61,-0.26 1.4,-0.26l2.84 0c1.42,0 0.9,0.94 2.93,0.36 1.1,-0.32 1.69,-0.82 2.2,-1.54 0.81,-1.14 3.63,-8.54 4.39,-10.43 0.46,-1.13 1.95,-4.42 2.1,-5.43 -1.47,-0.09 -3.38,0.06 -4.92,-0.03 -0.61,-0.03 -0.84,-0.21 -1.45,-0.23 -0.46,1.07 -0.94,2.36 -1.42,3.47l-4.11 9.55c-0.21,0.45 -0.17,0.54 -0.62,0.72l-0.15 -0.69c0.04,-0.89 2.38,-9.23 2.34,-10.71 -0.78,-0.13 -3.38,-0.5 -3.82,-0.77 0.52,-0.28 1.7,-0.17 2.4,-0.18 1.03,-0.02 2.07,0.31 1.86,-0.9 -0.57,-0.07 -1.1,-0.05 -1.59,-0.21 -0.22,-0.54 -0.28,-1.84 -0.65,-2.16 -0.48,0.33 -0.4,1.61 -0.71,2.22z"/>
   <path class="fil1" d="M12.52 29.59l-0.92 -6.7 -3.72 -0.01c-0.28,0.62 -2.16,12.48 -2.18,13.61l3.6 0.01 1.17 -7.27c0.62,1.12 0.59,5.71 1.11,7.13 0.22,0.13 -0.2,0.01 0.32,0.12 0.17,0.03 0.32,0.04 0.5,0.04 0.29,0 0.61,-0.01 0.91,-0.01 0.61,-0 1.43,0.07 1.88,-0.1 0.08,-0.07 2.27,-12.89 2.04,-13.53l-3.47 -0.04c-0.56,1.38 -0.77,6.15 -1.23,6.76z"/>
   <path class="fil3" d="M22.08 47.89l5.77 0.06c0.92,0.13 1.2,0.78 1.6,-1.41 0.23,-1.29 1.42,-7.08 1.39,-7.89 -0.57,-0.49 -3.76,-0.56 -3.97,-0.9 0.91,-0.42 3.25,0.11 4.18,-0.26l0.11 -0.18c0.28,-0.64 0.72,-3.59 0.64,-4.01l-6.18 0.04c-0.55,1.2 -0.11,2.53 -1.04,3.46 -0.83,0.84 -0.85,2.07 -1.11,3.41 -0.23,1.15 -1.55,6.96 -1.39,7.69z"/>
   <path class="fil1" d="M17.68 63.74c-0.33,-0.49 0.38,-2.39 0.55,-3 0.34,-1.26 0.45,-2.63 1.11,-2.72 0.11,0.66 -0.46,2.35 -0.65,3.04 -0.28,1.02 -0.48,2.53 -1.01,2.68zm-4.18 0.04c-0.41,1.39 -0.29,1.22 0.13,2.35l1.97 -0c1.11,0.08 3.5,0.06 4.61,-0.07 1.54,-0.18 1.74,-1.14 2.06,-2.54 0.26,-1.14 1.85,-6.66 1.16,-7.39 -0.56,-0.6 -3.29,-0.34 -4.33,-0.35 -1.47,-0 -3.13,-0.24 -3.76,0.79 -0.32,0.52 -1.76,6.33 -1.84,7.23z"/>
   <path class="fil1" d="M35.04 20.8c-0.74,0.04 -1.34,-0.38 -2.4,-0.34 -0.92,0.03 -1.8,0.55 -2.13,0.57 -0.69,0.04 -0.37,-3.28 0.33,-4.28 0.94,-1.33 2.63,-1.28 3.58,-0.13 0.75,0.91 1.29,3 0.61,4.18zm-0.35 6.89c-0.22,-0.01 -0.16,0.02 -0.4,-0.05 -0.53,-0.15 -0.21,-0.09 -0.37,-0.19 -1.74,-0.45 -2.93,-1.21 -3.7,-2.25 -0.79,-1.08 -1.54,-2.85 -1.62,-4.48 0.27,0.18 0.1,0.01 0.35,0.34 1.89,2.47 2.51,1.68 4.46,1.83 1.07,0.08 1.75,2.09 5.35,0.74 1.41,-0.53 0.89,-1.95 0.55,-3.53l-1.14 -0.24c0.21,-0.5 0.44,-0.48 0.94,-0.62 -0.13,-0.98 -1.34,-3.16 -1.9,-3.61 0.45,0.17 1.08,1.38 1.39,1.94 0.23,0.42 0.36,0.82 0.58,1.22 0.4,0.71 0.52,0.31 0.98,0.77 -0.21,0.44 -0.15,0.27 -0.54,0.49l0.23 3.37c0.32,0.13 0.58,0.27 1.1,0.2 1.27,-1.75 -1.08,-4.81 -1.1,-5.6 -0.04,-1.09 -0.04,-0.94 -0.72,-1.6 -0.87,-0.85 -1.26,-1.54 -2.78,-1.99 -2.59,-0.77 -5.26,0.76 -6.24,2.76 -0.99,2.03 -1.83,0.4 -2.32,2.45 -0.69,2.87 1.41,4.34 1.43,5.6 0.02,1 -0.04,1.35 1.05,1.45l-0.3 -0.89c0.47,0.22 0.26,0.08 0.58,0.48 2.19,2.69 5.12,3.16 8.48,2.13 1.23,-0.37 0.95,-0.3 0.94,-0.73 -0.58,-0.32 -1.86,0.06 -2.58,0.07 -0.65,0.02 -2.33,-0.19 -2.72,-0.08z"/>
   <path class="fil2" d="M29.43 55.67c-0.47,0.41 -1.07,3.37 -1.23,3.96 -0.28,1.05 -0.74,3.75 -1.39,3.74 -0.68,-0.01 -0.13,-1.26 -0,-1.79 0.18,-0.69 0.36,-1.36 0.53,-2.04 0.21,-0.81 1.03,-3.33 0.95,-3.92 -0.73,-0.09 -3.32,-0.19 -3.76,0.09 -0.32,0.27 -2.37,9.29 -2.19,10.11 0.93,0.41 3.89,0.09 5.12,0.07 2.02,-0.03 2.99,-0.12 3.61,-1.69 0.31,-0.8 1.9,-7.82 1.87,-8.58 -0.73,-0.05 -3.04,-0.16 -3.53,0.05z"/>
   <path class="fil2" d="M45.11 64.88l-0.07 0.19c1.05,0.2 0.63,0.1 0.29,0.44 0.5,-0.12 0.15,-0.13 0.48,0.05 0.01,-0.35 -0.21,-0.03 0.1,-0.23 2.35,0.5 2.04,-0.06 2.7,-1.04 1.03,-1.54 0.91,0.04 1.72,-3.44 0.32,-1.36 1.24,-4.39 1.22,-5.65 -0.81,-0.12 -2.98,-0.21 -3.6,0.05 -0.47,0.67 -1,3.21 -1.27,4.17 -0.2,0.72 -0.39,1.37 -0.59,2.11 -0.25,0.88 -0.16,1.55 -1.09,1.49 -0.32,-0.97 1.87,-6.29 1.92,-7.86l-3.84 0.02c-0.46,1.08 -0.93,3.75 -1.25,5.07 -1.57,6.58 -1.45,4.88 0.47,5.01 1.83,0.13 1.34,-0.51 2.44,-0.98 0.58,-0.25 0.88,0.51 0.37,0.6z"/>
   <path class="fil1" d="M21.88 30.04c0.07,0.73 -0.24,2.01 -0.37,2.79 -0.29,1.74 -0.09,2.14 -1,2.15 -0.83,0.01 -0.69,-0.32 -0.57,-1 0.08,-0.47 0.15,-0.87 0.22,-1.33 0.13,-0.8 0.2,-1.94 0.51,-2.59 0.51,-0.13 0.69,-0.17 1.2,-0.01zm-2.4 -4.88c-0.12,0.5 -0.2,1.07 -0.08,1.57l3.12 0.07c0.06,0.53 -0.07,1 -0.26,1.33 -1.66,0.22 -3.37,-0.42 -4.48,0.69 -0.82,0.82 -0.9,2.67 -1.09,4.06 -0.24,1.71 -0.96,3.32 1.12,3.45 1.6,0.1 3.5,-0.02 5.17,0.01 1.83,0.03 1.52,-0.3 1.93,-3.2 0.21,-1.5 0.39,-3.01 0.62,-4.58 0.23,-1.56 0.93,-3.44 -1,-3.57 -0.8,-0.05 -4.55,-0.11 -5.03,0.17z"/>
   <path class="fil1" d="M25.13 4.1c0.17,0.15 0.05,-0.11 0.24,0.32 0.9,1.99 -0.05,6.73 2.12,10.5 0.51,0.88 1.26,2.37 1.97,2.62 1.1,-0.82 -0.88,-1.36 -1.73,-4.65 -0.59,-2.3 -0.17,-4.33 -0.35,-6.71 -0.14,-1.78 -0.61,-5.19 -2.82,-3.43 -1.48,1.17 -2.56,1.71 -4.82,2.26 -4.01,0.97 -4.24,-0.49 -5.39,1.71 -1.5,2.89 0.96,5.79 7.22,1.02 2.09,-1.6 3.1,-3.42 3.57,-3.63z"/>
   <path class="fil1" d="M38.95 15.59c1.08,-1.31 0.26,-4.77 5.54,-9.56 0.62,-0.56 0.54,-0.5 0.65,-0.9 0.01,-0.04 0.01,-0.07 0.02,-0.11l0.11 -0.38c1.33,1.67 3.87,5.25 6.96,5.36 3.28,0.11 1.86,-4.98 -2.58,-6.29 -4.24,-1.24 -6.9,0.48 -8.55,3.06 -0.75,1.18 -1.49,2.78 -1.97,4.23 -0.27,0.81 -0.49,1.54 -0.71,2.38 -0.31,1.18 -0.46,1.69 0.54,2.22z"/>
   <path class="fil4" d="M29.46 17.53c-0.71,-0.26 -1.46,-1.74 -1.97,-2.62 -2.17,-3.77 -1.22,-8.51 -2.12,-10.5 -0.19,-0.43 -0.07,-0.17 -0.24,-0.32 -0.26,1.15 -2.3,3.08 -3,3.69 -1.09,0.95 -1.8,0.53 -0.23,4.46 0.6,1.51 1.74,3.26 2.68,4.02 1.13,0.91 3.79,2.25 4.87,1.26z"/>
   <path class="fil3" d="M33.37 65.61c0.24,-0.56 0.28,-0.54 0.32,-1.23 -0.28,0.17 -0.45,0.29 -0.6,0.51 -0.42,0.62 0.08,0.57 -0.72,0.48 -0.35,-0.95 0.76,-2.34 1.87,-2.2l0.4 0.75c0.22,0.28 -0.01,0.05 0.31,0.19 1.97,-1.34 1.61,-5.75 2.71,-6.39 0.02,0.03 0.04,0.04 0.05,0.09l0.08 0.81 3.84 -0.01c0.32,-0.59 0.63,-1.81 0.41,-2.53 -0.26,-0.87 -1.36,-0.68 -2.31,-0.68 -1.41,0 -4.5,-0.3 -5.52,0.42 -0.97,0.69 -1.07,2.64 -1.51,4.43 -0.29,1.18 -1.09,3.99 -0.95,5.08 0.38,0.32 1.05,0.8 1.62,0.27z"/>
   <path class="fil3" d="M20.64 54.33c0.69,0.22 6.86,0.15 7.37,-0.04 0.35,-0.36 0.85,-3.55 0.72,-4.11l-7.22 -0.08 -0.87 4.24z"/>
   <path class="fil3" d="M15.6 66.12l-1.97 0c-0.43,-1.13 -0.54,-0.96 -0.13,-2.35l-1.49 -0.01c-0.15,-1.56 1.63,-5.92 1.61,-7.68 -0.44,-0.12 -1.07,-0.1 -1.4,0.05 -0.44,0.78 -0.6,3.19 -0.77,4.26 -0.35,2.25 -0.83,1.71 -3.2,1.69l-0.95 4.25 8.29 -0.21z"/>
   <path class="fil1" d="M4.87 55.73c0.25,0.63 -0.17,2.14 -0.29,2.82 -0.07,0.44 -0.23,2.7 -0.94,2.01 -0.33,-0.32 0.14,-2.16 0.23,-2.69 0.33,-1.94 0.14,-2.34 0.99,-2.14zm-2.53 5.75c3.51,0 3.39,0.42 3.97,-3.25 0.47,-2.99 0.63,-3.36 -1.39,-3.35 -3.02,0 -2.17,-0.71 -3.13,4.89 -0.17,0.97 -0.61,1.71 0.55,1.71z"/>
   <path class="fil1" d="M8.52 58.39c-0.01,-0.64 0.12,-1.23 0.21,-1.88 0.1,-0.72 0.11,-1.24 0.97,-0.86 0.15,0.44 -0.11,2.31 -0.4,2.77l-0.78 -0.02zm-0.52 3.06c0.19,-0.6 0.18,-1.68 0.53,-2.2 1.43,-0 0.33,0.7 0.56,2.17l1.48 0.02c0.29,-0.52 1.11,-5.71 1.01,-6.52l-4.08 -0.07 -1.04 5.88c-0.05,0.48 -0.33,0.91 1.54,0.72z"/>
   <path class="fil1" d="M50.31 25.25c0.77,0.1 0.59,0.79 1.41,1.35 0.59,-0.24 0.99,-0.6 1.72,-0.65 -0.08,0.74 -0.53,1.22 -0.8,1.86 0.31,0.69 1.1,1.02 0.99,1.78 -0.77,0.03 -1.06,-0.28 -1.74,-0.31l-1.13 1.89c4.21,0.42 4.56,-5.24 1.55,-6.27 -1.94,-0.66 -3.3,0.79 -3.65,2.2 -0.44,1.79 0.47,3.63 2.03,3.91l-0.3 -2.12c-0.57,-0.19 -1.24,-0.24 -1.6,-0.56 0.17,-0.53 1.07,-0.81 1.54,-1.01l-0.01 -2.07z"/>
   <path class="fil3" d="M37.41 64.32c0.58,0.29 0.11,0.65 1.19,0.98 0.83,0.25 1.33,0.15 1.65,-0.48 0.29,-0.57 0.77,-2.73 0.77,-3.5 -0.76,-0.07 -3.31,-0.12 -3.97,0.06 -0.39,0.83 -0.49,1.13 -0.21,1.91 0.38,1.06 -0.37,1.87 0.43,1.77 0.52,-0.24 0.37,-0.31 0.14,-0.74z"/>
   <path class="fil4" d="M39.47 15.99l0.35 -0.6c1.13,-2.95 4.29,-6.78 6.89,-8.03 -0.15,-0.52 -0.28,-0.51 -0.6,-0.88 -0.33,-0.38 -0.32,-0.57 -0.71,-0.82 -0.5,0.3 -1.7,1.5 -2.1,2 -1.78,2.23 -2.73,3.87 -3.62,6.7 -0.11,0.33 -0.4,0.97 -0.34,1.31l0.13 0.31z"/>
   <path class="fil5" d="M36.74 66.03l-0.08 0.94c0.41,-0.04 0.97,-0.14 1.25,-0.38 0.45,-0.37 0.01,-0.42 0.89,-0.36 -0.08,0.7 0.11,0.48 -0.52,0.78 -0.3,0.14 -0.37,0.2 -0.73,0.26 0.15,0.11 -0.39,0.24 0.34,0.07l0.54 -0.04 0.26 -0.25c0.43,0.21 0.21,-0.32 0.39,0.57 0.03,-0.03 0.29,-0.03 0.09,-0.43 -0.14,-0.28 -0.2,-0.12 -0.34,-0.53 1.91,0.26 0.35,-0.09 1.67,-0.38 -0.1,0.65 -0.29,0.88 -0.71,1.18 -0.03,0.02 -0.85,0.23 -0.38,1.14l0.6 -0.14c0.58,-0.48 0.53,-1.39 1.01,-1.84 0.86,0.26 0.05,0.03 0.64,0.41 0.15,-0.15 0.29,-0.29 0.52,-0.41 0.24,0.1 0.24,0.12 0.32,0.18l0.2 0.22c0.18,-0.24 0.12,-0.18 0.39,-0.4 1.07,0.87 0.19,0.2 1.65,0.19 0.19,-0.26 0.17,-0.34 0.43,-0.42 0.2,0.2 0.03,0.03 0.2,0.25 0.02,0.03 0.01,0.41 0.14,0.18 0.01,-0.02 0.05,0.06 0.07,0.09 0.16,-0.45 0.16,-0.36 0.38,-0.55l0.48 0.59c0.16,-0.07 0.33,-0.11 0.47,-0.18 0.3,-0.32 0.18,-0.11 0.33,-0.53l-0.38 -0.09c-0.11,0 -0.21,0.05 -0.33,0.08 0.05,-0.95 -0.1,-0.25 -0.71,-0.68 -0.34,-0.18 0.01,-0.17 -0.48,-0.05l-0.58 -0.09c-0.37,0.36 -0.29,0.55 -0.61,0.82 0.12,-0.42 0.34,-1.32 -0.46,-0.97 -0.33,0.14 -0.44,0.62 -0.74,0.96l-0.26 -0.73c-0.84,0.06 -0.26,0.36 -0.97,0.75l0.07 -0.86c-0.66,0.16 -0.16,0.12 -0.64,0.51 -0.53,-0.32 -0.52,-0.5 -1.34,-0.45 -0.26,0.32 -0.21,0.46 -0.64,0.7l-0.19 -0.67c-1.13,0.18 -0.31,0.11 -1.18,-0.18l-0.2 0.63c-0.13,0.35 -0.02,0.23 -0.32,0.45 -0.02,-0.03 -0.02,-0.08 -0.02,-0.1l-0.19 -0.74c-0.01,-0.06 -0.02,-0.07 -0.1,-0.12l-0.22 0.61z"/>
   <path class="fil3" d="M34.84 20.1c0.11,-1.19 -0.14,-2.47 -0.79,-3.23 -2.04,-2.37 -4.42,1.17 -2.53,2.52 0.52,0.38 2.51,0.77 3.31,0.71z"/>
   <path class="fil6" d="M16.91 54.54c0.18,-0.54 0.77,-1.38 1.09,-2.03 0.6,-1.2 1.25,-3.07 1.8,-4.4 0.27,-0.66 0.61,-1.81 1.02,-2.15 -0.04,1.05 -0.23,1.28 -0.19,2.49 0.02,0.53 -0.44,0.98 -0.63,1.91 -0.27,1.36 -0.63,2.9 -0.85,4.19l-2.23 -0.01zm-1.22 0.42l3.77 -0.13c0.3,-0.57 0.52,-2.33 0.68,-3.12 0.4,-1.99 0.17,-1.94 1.1,-2.75 -0.1,-0.76 -0.41,-0.59 -0.19,-1.76 0.29,-1.53 0.95,-4.24 1.06,-5.52l-1.57 3.44c-0.87,2.1 -3.26,9.15 -4.85,9.83z"/>
   <path class="fil7" d="M36.04 64.66l-0.34 1.31 -0.36 1c-0.23,-0.16 -0.5,-0.29 -0.89,-0.22 -0.28,0.05 -0.13,0.02 -0.36,0.16l-0.34 0.24c0.3,-0.98 1.26,-1.99 1.85,-2.73 0.58,-0.73 0.28,-0.58 0.76,-0.64 -0.03,0.35 -0.17,0.6 -0.33,0.86zm-1.7 0.29l0.1 -1.3c-0.27,-0.21 -0.19,-0.13 -0.51,-0.29 -0.3,-0.04 -1.49,0.9 -1.57,1.69 0.98,-0.14 0.3,-0.9 1.67,-1.18 -0.02,0.52 -0.09,0.66 -0.2,1.12 -0.04,0.16 -0.06,0.37 -0.12,0.51 -0.23,0.6 -0.02,0.12 -0.23,0.34 -0.01,0.48 -0.1,0.72 -0.33,1.07l-1.26 -0.37c-0.37,-0.04 -0.32,-0.13 -0.2,0.21 0.34,0.16 0.69,0.21 0.92,0.42 0.35,0.31 0.17,0.44 0.66,0.75 1.03,-0.16 0.42,-1.16 1.67,-0.76 -0.08,0.39 -0.43,0.81 -0.18,1.33 0.21,0.45 0.88,0.57 1.04,-0.06 -0.01,-0.43 -0.01,-0.87 0.04,-1.29 0.01,-0.09 0.07,-0.51 0.09,-0.57 0.12,-0.46 0.12,-0.28 0.19,-0.4 0.15,-0.43 0.3,-0.94 0.45,-1.38 0.06,-0.18 0.19,-0.55 0.22,-0.75 0.03,-0.23 0.04,-0.63 -0.15,-0.78 -0.86,-0.37 -1.79,1.51 -2.34,1.94 -0.03,-0.06 -0.21,0.08 0.02,-0.25z"/>
   <path class="fil8" d="M46.9 66.77c-0.14,0.07 -0.31,0.12 -0.47,0.18l-0.48 -0.59c-0.22,0.19 -0.22,0.1 -0.38,0.55 -0.03,-0.03 -0.06,-0.12 -0.07,-0.09 -0.13,0.23 -0.12,-0.15 -0.14,-0.18 -0.17,-0.21 0.01,-0.05 -0.2,-0.25l0.02 0.47 -0.45 -0.04c-1.46,0.01 -0.58,0.68 -1.65,-0.19 -0.27,0.22 -0.21,0.17 -0.39,0.4l-0.2 -0.22c-0.08,-0.06 -0.08,-0.09 -0.32,-0.18 -0.23,0.12 -0.36,0.27 -0.52,0.41 -0.59,-0.38 0.22,-0.15 -0.64,-0.41 -0.48,0.45 -0.43,1.35 -1.01,1.84l-0.6 0.14c-0.47,-0.92 0.36,-1.12 0.38,-1.14 0.42,-0.3 0.61,-0.53 0.71,-1.18 -1.32,0.3 0.23,0.64 -1.67,0.38 0.15,0.41 0.2,0.26 0.34,0.53 0.2,0.4 -0.06,0.4 -0.09,0.43 -0.17,-0.89 0.04,-0.36 -0.39,-0.57l-0.26 0.25c0.73,-0.15 0.19,-0.06 0.41,0.1 -0.04,0.59 -0.35,1.13 0.02,1.64 0.48,0.67 1,0.32 1.39,-0.08 1.11,-1.12 0.47,-1.68 2.57,-1.44 0.84,0.1 1,0.13 1.84,-0.08 1.11,-0.29 0.93,0.01 1.67,0.07 0.57,0.05 0.84,-0.42 1.21,-0.67 0.42,-0.28 1.06,-0.46 1.64,-0.52l-0.39 1.44c0.15,0.47 0.07,0.26 0.27,0.39 -0.14,-0.44 -0.07,-0.25 0.09,-0.31 0.19,-0.53 0.57,-1.1 0.66,-1.77 -0.21,0.25 -0.11,-0.32 -0.19,0.31 -0.52,-0.82 -0.52,-0.48 -1.39,-0.14l-1.34 0.52z"/>
   <path class="fil9" d="M68.16 65.85c0.45,0.23 0.13,-0.12 0.12,0.23 -0.01,0.3 -0.42,0.66 -0.7,0.8 -0.54,-0.22 -0.04,-0.09 -0.52,-0.33 -0.28,0.17 -0.31,0.23 -0.75,0.17l-0.06 -0.45 -0.72 -0.14 -0.22 0.38c-1.15,0.64 -0.8,-0.05 -1.68,0.16 -0.45,0.11 0.12,0.08 -0.34,0.14 -0.6,0.07 0.06,-0.07 -0.87,-0.2 -0.01,0.94 -0.55,1.93 -1.43,1.94l-0.05 -0.86 -0.58 -0.1c0.1,0.97 -0.08,1.03 0.4,1.69 1.5,0.27 1.51,-0.96 2.05,-1.51 0.32,-0.32 1.02,-0.25 1.54,-0.23 1.08,0.04 0.67,0 1.28,-0.48 0.6,0.4 0.07,0.43 1.03,0.47 0.34,0.01 0.92,0.08 1.17,-0.01 0.65,-0.25 1.06,-0.86 1.18,-1.82 -0.33,0 -0.15,0.05 -0.27,-0.18 -0.2,0.14 -0.16,0.09 -0.3,0.17 -0.07,0.04 -0.18,0.13 -0.2,0.1 -0.02,-0.03 -0.07,0.03 -0.1,0.05z"/>
   <path class="fil10" d="M31.51 26.01l0.48 0.02c0.24,-0.61 0.52,-1.65 0.81,-2.04 0.26,-0.35 0.11,-0.14 0.28,-0.29 -0.21,-0.43 0.03,-0.26 -0.57,-0.33 -0.14,-0.02 -0.75,0.05 -0.92,0.07 -0.08,0.67 0.29,1.76 0,2.27 -0.22,-0.53 0.22,-2.44 -0.8,-2.53 -0.77,-0.07 0.01,-0.23 -0.63,0.56 -0.24,-0.86 -0.05,-1.3 -1.16,-1.45 0.22,0.77 0.9,2.1 1.43,2.6l0.4 -0.56c0.14,-0.29 0.15,-0.35 0.31,-0.58 -0.29,1.24 -1.19,1.32 0.35,2.26z"/>
   <path class="fil10" d="M36.6 25.22c-0.31,0.19 -0.22,-0.06 -0.35,0.54 -0.03,0.15 -0.04,0.47 -0.06,0.64 -0.08,0.6 -0.23,0.53 -0.08,1.01 0.32,0.19 2.58,0.04 2.99,-0.23 -0.19,-0.46 -0.3,-0.36 -0.53,-0.89 -0.19,-0.46 -0.16,-0.73 -0.57,-0.71 -0.01,0.03 -0.03,0.08 -0.03,0.11 -0.01,0.03 -0.02,0.07 -0.03,0.11 -0.01,0.04 0.07,0.83 -0.19,1.33 -0.2,-0.66 0.21,-1.88 0.22,-2.73l-1.27 0.25c0.07,0.68 0.7,1.86 0.46,2.37 -0.38,-0.55 -0.25,-1.29 -0.54,-1.8z"/>
   <path class="fil11" d="M6.58 24.48l0.19 -0.23 0.02 0.33c0.41,-0.51 0.15,-1.86 0.72,-2.31 0.44,-0.31 3.62,-0.21 4.24,-0.04 0.66,0.27 0.5,1.3 0.59,2.09 0.01,0.06 0.08,0.39 0.1,0.43 0.16,0.35 0.08,0.22 0.3,0.44l0.43 -2.73c-0.03,0.03 -0.08,0.04 -0.09,0.08 -0.01,0.03 -0.07,0.04 -0.08,0.04 -0.12,-0.08 -0.02,0.25 -0.11,-0.23l-0.21 0.4c-0.37,-0.65 -0.36,-1.02 -1.32,-1.07 -0.82,-0.04 -1.74,0 -2.57,0 -2.25,-0.01 -1.96,0.68 -2.21,2.8z"/>
   <path class="fil12" d="M52.78 28.92c-0.19,-0.45 -0.12,-0.26 -0.39,-0.63 -0.5,-0.69 0.04,-0.62 0.23,-1.54l-1.03 0.38c-0.24,-0.19 -0.2,-0.19 -0.43,-0.42 -0.42,-0.43 0.05,-0.16 -0.51,-0.36 0.22,1.99 -0.01,0.96 -0.83,1.84l1 0.37 0.11 1.16c0.38,-0.15 0.49,-0.57 0.63,-0.94l1.21 0.14z"/>
   <path class="fil12" d="M59.87 28.49c-0.13,-0.79 -0.4,-0.55 -0.45,-1.07 -0.04,-0.38 0.22,-0.63 0.35,-1.11 -0.48,0.1 -0.62,0.29 -1.09,0.3 -0.45,-0.43 -0.13,-0.47 -0.82,-0.68l0.05 1.13c-0.39,0.26 -0.63,0.21 -0.86,0.65l0.98 0.37 0.09 1.05c0.37,-0.08 0.51,-0.51 0.65,-0.89l1.1 0.24z"/>
   <path class="fil12" d="M42.67 28.85c0.02,0.03 0.06,0.03 0.07,0.07l0.34 0.2c1.11,0.47 0.32,0.5 0.77,1.21 0.4,-0.31 0.26,-0.39 0.58,-0.78l1.1 0.19c-0.14,-0.58 -0.46,-0.56 -0.52,-1.04 -0.05,-0.42 0.25,-0.73 0.38,-1.14 -0.69,0.05 -0.52,0.44 -1.1,0.25 -0.46,-0.15 -0.3,-0.54 -0.75,-0.69 -0.08,0.48 0.08,0.81 -0.09,1.17 -0.2,0.43 -0.37,0.19 -0.77,0.56z"/>
   <path class="fil13" d="M58 63.58c-0.36,0.07 -0.07,-0.16 -0.38,0.19 -0.05,0.05 -0.14,0.25 -0.16,0.4 -0.06,0.39 0.06,0.55 0,0.9 0.37,0.12 0.79,0.42 1.35,0.12 0.39,-0.21 0.48,-0.63 0.44,-1.18 -0.81,0.18 -0.83,0.54 -1.52,0.85 0.23,-0.58 -0.17,0 0.78,-0.73 0.43,-0.33 0.41,-0.33 1.09,-0.35 0.12,1.21 -0.73,0.98 -0.43,1.92 0.56,-0.2 1,-1.18 1,-1.67 -0,-0.89 -0.63,-0.93 -1.34,-0.62 -0.08,0.04 -0.42,0.22 -0.43,0.23 -0.47,0.14 -0.17,0.26 -0.4,-0.07z"/>
   <path class="fil12" d="M33.99 13.9c1.24,0.5 2.84,-0.25 3.93,-0.78 0.56,-0.27 0.48,-0.41 0.57,-1.19 -0.67,0.15 -4.21,1.62 -4.5,1.97z"/>
   <path class="fil14" d="M37.66 60.31c0.55,0.26 2.84,0.17 3.3,-0.05l0.12 -0.59c-0.54,-0.27 -1.38,-0.15 -2,-0.17 -0.96,-0.02 -1.53,-0.26 -1.42,0.81z"/>
   <path class="fil1" d="M61 28.92c0.55,-0.71 0.23,-2.64 -0.26,-3.25 -0.28,0.22 -0.76,1.22 -0.98,1.66l1.24 1.59z"/>
   <path class="fil15" d="M34.22 24.97c0.22,0 0.15,-0.05 0.21,0.18l0.39 -0.37c0.14,0.48 0.14,0.77 0.24,1.24 0.1,0.46 0.32,0.79 0.38,1.16l-0.93 0.05c-0.19,0.33 0.35,0.29 -0.59,0.23 0.16,0.1 -0.16,0.04 0.37,0.19 0.24,0.07 0.17,0.03 0.4,0.05 0.19,-0.32 -0.41,-0.23 0.63,-0.32 0.19,-0.02 0.59,0.02 0.79,0.03 -0.14,-0.48 0.01,-0.41 0.08,-1.01 0.02,-0.17 0.03,-0.49 0.06,-0.64 0.12,-0.61 0.04,-0.35 0.35,-0.54 -0.09,-0.17 -0.07,-0.19 -0.2,-0.37 -0.2,-0.26 0.07,-0.01 -0.26,-0.25 0.33,0.79 -0.04,0.36 -0.17,1.16 -0.09,0.57 0.15,0.71 -0.25,1.08 -0.13,-0.11 -0.19,-0.04 -0.27,-0.56 -0.03,-0.16 -0.03,-0.44 -0.05,-0.62 -0.04,-0.35 -0.1,-0.69 -0.18,-1.05l0.21 -0.07c-0.15,-0.12 -0,-0.02 -0.25,-0.14 -0.08,-0.04 -0.18,-0.08 -0.28,-0.12 -0.31,-0.15 -0.27,-0.16 -0.6,-0.31 0.31,0.54 0.07,0.36 -0.09,1.01z"/>
   <path class="fil10" d="M32.23 26.53c0.47,0.1 0.68,0.52 1.35,0.38 0.03,-0.53 -0.23,-0.75 -0.26,-1.42 -0.03,-0.51 0.11,-1.08 -0.17,-1.48 -0.63,0.37 -0.32,1.63 -1.06,2.1l0.15 0.42z"/>
   <path class="fil16" d="M36.12 66.16c-0.08,0.12 -0.07,-0.06 -0.19,0.4 -0.02,0.06 -0.08,0.49 -0.09,0.57 -0.05,0.43 -0.05,0.87 -0.04,1.29 0.38,-0.44 0.11,-0.58 0.44,-1.1 0.5,0.07 1.12,0.7 1.65,0.02 -0.73,0.17 -0.19,0.04 -0.34,-0.07 0.35,-0.06 0.42,-0.11 0.73,-0.26 0.63,-0.3 0.44,-0.07 0.52,-0.78 -0.88,-0.07 -0.44,-0.01 -0.89,0.36 -0.29,0.24 -0.84,0.34 -1.25,0.38l0.08 -0.94c-0.02,0.04 -0.04,0.08 -0.05,0.11l-0.08 0.23c-0.19,0.5 -0.01,0.35 -0.57,0.42l0.09 -0.63z"/>
   <path class="fil10" d="M38.26 24.47c0,0.86 0.28,2.06 1.11,2.39l-0.04 -2.8c-0.53,0.02 -0.71,0.09 -1.07,0.4z"/>
   <path class="fil17" d="M33.08 23.69c-0.18,0.15 -0.02,-0.06 -0.28,0.29 -0.29,0.39 -0.57,1.43 -0.81,2.04l-0.48 -0.02 0.73 0.52 -0.15 -0.42c0.74,-0.47 0.43,-1.73 1.06,-2.1 0.28,0.4 0.15,0.96 0.17,1.48 0.03,0.67 0.3,0.89 0.26,1.42l0.35 -0.1c0.01,0.56 -0.03,0.11 0.14,0.29l0.36 -1.95c-0.06,-0.23 0.01,-0.18 -0.21,-0.18l-0.38 1.63c-0.22,-0.52 -0.41,-2.5 -0.34,-3.15 -0.19,0.21 -0.21,-0.32 -0.17,0.44l-0.25 -0.2z"/>
   <path class="fil10" d="M39.68 26.39c0.68,-0.34 1.24,-1 1.23,-2.05 -0.35,-0.24 -0.8,-0.28 -1.28,-0.32l0.05 2.37z"/>
   <path class="fil12" d="M66.25 66.28l0.06 0.45c0.43,0.05 0.46,-0.01 0.75,-0.17 0.48,0.23 -0.03,0.11 0.52,0.33 0.29,-0.14 0.7,-0.5 0.7,-0.8 0.01,-0.35 0.33,0 -0.12,-0.23 -0.33,0.32 -0.06,0.28 -0.54,0.37 0.14,-0.45 0.22,-0.33 -0.01,-0.79 -0.86,-0.14 -1.26,0.05 -1.36,0.85z"/>
   <path class="fil18" d="M33.37 65.61l0.1 0.22c0.21,-0.22 0,0.25 0.23,-0.34 0.06,-0.14 0.08,-0.36 0.12,-0.51 0.1,-0.45 0.18,-0.6 0.2,-1.12 -1.37,0.29 -0.69,1.04 -1.67,1.18 0.08,-0.79 1.28,-1.73 1.57,-1.69 0.32,0.17 0.24,0.09 0.51,0.29l-0.1 1.3 0.18 -0.18c0.16,-0.28 0.03,0.1 0.15,-0.34 0.05,-0.19 0.08,-0.4 -0.02,-0.51l-0.4 -0.75c-1.11,-0.15 -2.21,1.24 -1.87,2.2 0.8,0.09 0.3,0.14 0.72,-0.48 0.15,-0.23 0.32,-0.34 0.6,-0.51 -0.04,0.7 -0.08,0.67 -0.32,1.23z"/>
   <path class="fil10" d="M34.43 25.15l-0.36 1.95 0.44 0.12 0.93 -0.05c-0.06,-0.36 -0.28,-0.7 -0.38,-1.16 -0.1,-0.47 -0.1,-0.76 -0.24,-1.24l-0.39 0.37z"/>
   <path class="fil5" d="M54.55 66.64c-0.02,-0.04 -0.23,0.06 -0.07,-0.24 0.19,-0.33 0.07,-0.12 0.38,-0.25 -0.17,0.94 -0.2,0.21 -0.31,0.49zm-0.13 0.48c0.55,-0.08 0.98,-0.48 1.23,-0.88 -0.15,-0.25 -0.09,-0.09 -0.31,-0.27 -0.54,-0.44 -0.12,-0.27 -0.53,-0.7 -0.38,0.06 -1.65,1.1 -0.39,1.84z"/>
   <path class="fil19" d="M12.9 41.86c0.37,-0.38 1.74,-3.97 1.56,-4.51 -0.4,0.07 -0.19,-0.34 -0.57,0.87 -0.31,0.97 -0.96,2.76 -0.99,3.64z"/>
   <path class="fil10" d="M34.22 24.97c0.16,-0.65 0.4,-0.46 0.09,-1.01 -0.18,-0.28 -0.41,-0.5 -0.81,-0.51 -0.07,0.65 0.12,2.64 0.34,3.15l0.38 -1.63z"/>
   <path class="fil10" d="M36.14 24.6l-0.71 -0.07 -0.21 0.07c0.08,0.37 0.15,0.7 0.18,1.05 0.02,0.18 0.03,0.46 0.05,0.62 0.09,0.52 0.14,0.45 0.27,0.56 0.4,-0.37 0.16,-0.51 0.25,-1.08 0.12,-0.81 0.5,-0.37 0.17,-1.16z"/>
   <path class="fil14" d="M56.55 68.53c0.31,0.3 0.59,0.36 1.14,0.21 0.08,-0.02 0.41,-0.15 0.46,-0.18 0.4,-0.2 0.18,-0.07 0.38,-0.31l-0.25 -0.04c0.75,-0.15 0.58,-0.26 0.78,-0.81 -1.2,0.21 -0.38,0.33 -1.19,0.75 -0.61,0.31 -0.66,-0.05 -1.31,0.38z"/>
   <path class="fil12" d="M29.55 15.82c0.14,0.36 0.14,0.45 0.51,0.69 0.41,-0.25 1.21,-1 1.49,-1.5 -0.65,0.13 -1.49,0.52 -2,0.81z"/>
   <path class="fil5" d="M61.93 56.27c0.29,-0.32 0.81,-0.89 0.83,-1.31l-1.12 -0.07c-0.04,0.55 0.2,0.69 0.3,1.38z"/>
   <path class="fil10" d="M39.85 27.19c0.54,0.01 0.61,0.05 0.76,-0.43 0.11,-0.33 0.15,-0.7 0.16,-1.02 -0.59,0.13 -0.91,0.86 -0.92,1.45z"/>
   <path class="fil3" d="M35.7 65.97l0.34 -1.31c-0.65,0.07 -1.09,0.42 -1.03,1.01 0.49,0.11 0.32,0.06 0.75,-0.08l-0.06 0.38z"/>
   <path class="fil20" d="M52.34 68.43c0.71,0.02 0.56,-0.17 1.04,-0.94 0.01,-0.02 0.28,-0.07 0.1,-0.53 -0.09,-0.22 -0.13,-0.17 -0.22,-0.27 -0.2,0.3 -0.13,0.51 -0.14,0.57 -0.12,0.99 -0.53,0.54 -0.78,1.17z"/>
   <path class="fil21" d="M45.03 65.07l0.07 -0.19 -0.1 -0.48c-0.47,0.07 -0.5,0.11 -0.68,0.55 0.41,0.19 0.24,0.07 0.7,0.12z"/>
   <path class="fil6" d="M37.27 14.41c0.7,0.54 0.61,0.05 0.69,-0.13 -0.08,-0.05 0.2,-0.3 -0.41,-0.15 -0.23,0.06 -0.25,0.07 -0.27,0.28z"/>
   <path class="fil22" d="M14.47 55.92c0.49,-0.06 0.46,-0.1 0.62,-0.56 -0.47,0.06 -0.59,0.09 -0.62,0.56z"/>
  </g>
 </g>
</svg>
