<?xml version="1.0" encoding="UTF-8"?>
<!DOCTYPE svg PUBLIC "-//W3C//DTD SVG 1.1//EN" "http://www.w3.org/Graphics/SVG/1.1/DTD/svg11.dtd">
<!-- Creator: CorelDRAW -->
<svg xmlns="http://www.w3.org/2000/svg" xml:space="preserve" width="39.4384mm" height="82.5167mm" version="1.1" style="shape-rendering:geometricPrecision; text-rendering:geometricPrecision; image-rendering:optimizeQuality; fill-rule:evenodd; clip-rule:evenodd"
viewBox="0 0 3929.63 8221.94"
 xmlns:xlink="http://www.w3.org/1999/xlink"
 xmlns:xodm="http://www.corel.com/coreldraw/odm/2003">
 <defs>
  <style type="text/css">
   <![CDATA[
    .fil0 {fill:#000000}
   ]]>
  </style>
 </defs>
 <g id="Camada_x0020_1">
  <metadata id="CorelCorpID_0Corel-Layer"/>
  <path class="fil0" d="M1476.89 6148.05c-36.66,153.59 -23.92,467.72 -78.05,588.27 -141.97,315.88 -289.06,-26.58 -337.43,-155.52 -253.32,-674.81 -37.89,-1151.82 63.72,-1687.07 55.1,-290.24 -530.87,-1096.47 -587.99,-1472.81 818.83,171.38 752.42,658.84 945.14,-457.67l299.91 -1393.67c82.45,144.98 336.18,2251.16 369.32,2469.83 215.47,0.3 872.1,301.2 1124.39,448.97 260.51,152.42 76.56,228.52 -402.78,636.35 -116.03,98.68 -218.05,195.07 -357.52,315.56 -176.51,152.4 -230.98,149.88 -216.22,399.35l78.46 827.39c28.47,292.36 67.25,556.06 41.23,876.17 -33.07,404.56 -270.4,611.38 -601.28,233.9 -430.06,-490.73 -217.91,-1413 -340.91,-1629.05 134.51,-261.52 135.98,-419.17 -56.29,-573.84 -95.15,232.54 -48.5,407.06 56.29,573.84zm603.81 875.47c76.95,-149.62 -127.83,-524.91 -198.96,-638.08 -69.03,168.99 -47.46,289.9 -42.24,457.94 3.78,122.92 85.83,482.22 241.2,180.14zm475.49 -1266.11l1373.44 -1190.19 -1496.44 -620.09 -604.98 -3947.14 -748.78 3391.31c-318.64,-143.73 -452.5,-155.56 -738.54,-279.76 -533.63,-231.6 -374.25,-132.65 22.91,662.11 93.51,187.14 161.36,345.58 265.57,542.38 367.8,694.66 155.83,302.12 35.81,1172.55 -156.77,1136.41 461.52,1614.38 676.31,1638.41 33.64,498.42 565.52,1426.33 1142.79,974.29 205.76,-161.17 240.01,-336.01 225.44,-660.51 -33.98,-759.45 -106.36,-1372.53 -153.53,-1683.35z"/>
 </g>
</svg>
