<?xml version="1.0" encoding="UTF-8"?>
<!DOCTYPE svg PUBLIC "-//W3C//DTD SVG 1.1//EN" "http://www.w3.org/Graphics/SVG/1.1/DTD/svg11.dtd">
<!-- Creator: CorelDRAW -->
<svg xmlns="http://www.w3.org/2000/svg" xml:space="preserve" width="11.2356mm" height="14.6828mm" version="1.1" style="shape-rendering:geometricPrecision; text-rendering:geometricPrecision; image-rendering:optimizeQuality; fill-rule:evenodd; clip-rule:evenodd"
viewBox="0 0 28.85 37.7"
 xmlns:xlink="http://www.w3.org/1999/xlink"
 xmlns:xodm="http://www.corel.com/coreldraw/odm/2003">
 <defs>
  <style type="text/css">
   <![CDATA[
    .fil0 {fill:#282829}
    .fil1 {fill:#FECB00}
    .fil2 {fill:white}
   ]]>
  </style>
 </defs>
 <g id="Camada_x0020_1">
  <metadata id="CorelCorpID_0Corel-Layer"/>
  <g id="Figs_Desenho_SemVar_023">
   <path class="fil0" d="M27.9 5.87c0.24,0.25 0.38,0.61 0.37,1.01 -0.05,1.28 -1.44,1.52 -2.2,1.49 -0.26,-0.01 -0.53,-0.06 -0.78,-0.16 0.46,1.3 0.94,2.58 1.44,3.86 0.24,0.62 0.48,1.23 0.72,1.85 0.15,0.41 0.32,0.82 0.36,1.28 0.03,0.32 0.02,0.68 0.03,1.01 0.02,0.37 0.02,0.74 0.02,1.12 0.01,2.82 -0.02,5.63 0.03,8.45 0.02,0.9 0.05,1.81 0.06,2.71 0,0.51 0.01,1.02 0.02,1.52 0,0.12 -0,0.22 -0.01,0.31 0.23,0.1 0.45,0.24 0.61,0.46 0.01,0.01 0.02,0.02 0.02,0.04l0.02 0.03c0.01,0.02 0.02,0.04 0.04,0.06 0.35,0.61 0.18,1.37 -0.22,1.79 0.1,0.22 0.16,0.47 0.16,0.71 -0,0.2 -0.04,0.39 -0.11,0.56 0.04,0.08 0.08,0.16 0.12,0.25 0.01,0.01 0.01,0.02 0.01,0.04 0.19,0.53 0.16,1.17 -0.11,1.63 0.05,0.13 0.09,0.29 0.1,0.47 0.05,1 -0.74,1.42 -1.39,1.3 -1.04,-0.19 -2.65,-1.07 -2.59,-2.69 0,-0.12 0.02,-0.23 0.04,-0.34 -0.07,-0.07 -0.13,-0.15 -0.19,-0.24 -0.34,-0.59 -0.14,-1.45 0.19,-1.97 0,-0.01 0.01,-0.01 0.01,-0.02 0.03,-0.04 0.06,-0.08 0.09,-0.12 -0.13,-0.36 -0.09,-0.75 0.04,-1.09 -0.36,0.05 -0.69,0.17 -1.04,0.31 -0.84,0.34 -1.51,0.71 -2.41,0.86 -0.35,0.06 -0.7,0.09 -1.05,0.11 -0.24,0.01 -0.45,-0 -0.69,-0.11 -0.24,-0.11 -0.42,-0.36 -0.49,-0.66 -0.05,0.03 -0.1,0.06 -0.16,0.09 -0.62,0.37 -1.15,0.36 -1.8,0.47 -1.46,0.26 -3.82,0.68 -5.21,0.16 -0.45,-0.17 -0.83,-0.48 -1.07,-1 -0.24,-0.52 -0.24,-1.01 -0.37,-1.55 -0.05,-0.23 -0.11,-0.47 -0.17,-0.7 -0.22,-0.8 -0.97,-2.02 -1.37,-2.72 -0.13,-0.22 -0.2,-0.32 -0.28,-0.6 -0.03,-0.1 -0.05,-0.21 -0.05,-0.31 -0.36,-0.05 -0.73,-0.14 -1.12,-0.25 -0.93,-0.27 -2.34,-1.15 -2.89,-2.17 -0,-0 -0,-0.01 -0.01,-0.01 -0.69,-1.34 -0.8,-2.67 -0.09,-4.12l0.18 -0.33 -0.28 -0.77c-0.08,-0.32 -0.36,-0.91 -0.48,-1.17 -0.33,-0.73 -0.69,-1.45 -1.05,-2.16 -0.6,-1.18 -1.22,-2.36 -1.86,-3.51 -0.18,-0.33 -0.35,-0.74 -0.5,-1.09 -0.17,-0.38 -0.54,-1.12 -0.54,-1.55 -0,-0.36 0.13,-0.67 0.36,-0.86 0.38,-0.31 0.84,-0.14 1.25,-0.04 0.05,0.01 0.12,0.03 0.2,0.05 0,-0.03 0.01,-0.05 0.01,-0.07 0.05,-0.46 0.08,-1.15 0.31,-1.52 0.38,-0.6 0.91,-0.41 1.39,-0.25 0.34,0.11 0.68,0.21 1.03,0.33 0.05,-0.17 0.09,-0.34 0.12,-0.45 0.11,-0.41 0.23,-0.92 0.4,-1.28 0.01,-0.02 0.02,-0.05 0.04,-0.07l0.02 -0.04c0.03,-0.05 0.06,-0.09 0.09,-0.14 0.38,-0.47 0.89,-0.38 1.33,-0.12 0.14,0.08 0.26,0.18 0.4,0.27 0.06,0.04 0.16,0.12 0.28,0.19 0.18,-0.63 0.43,-1.29 0.75,-1.55 0.04,-0.03 0.07,-0.05 0.1,-0.07 0.43,-0.23 0.78,0.01 1.16,0.21 0.33,0.16 0.65,0.32 0.98,0.48 0.14,-0.24 0.29,-0.47 0.42,-0.72 0.28,-0.53 0.65,-1.14 1.22,-1.09 0.45,0.04 1.01,0.67 1.49,1.14 0.12,-0.38 0.24,-0.76 0.36,-1.15 0.13,-0.44 0.29,-0.81 0.68,-0.94 0.43,-0.15 0.72,0.12 1.01,0.45 0.19,0.21 0.37,0.46 0.55,0.68 0,0 0.01,0.01 0.01,0.01 0.08,-0.12 0.16,-0.24 0.23,-0.33 0.35,-0.49 0.68,-1.14 1.23,-1.26 0.4,-0.09 0.78,0.22 1.1,0.48 0.15,0.12 0.3,0.27 0.45,0.38 0.01,0.01 0.02,0.01 0.02,0.02 0.24,-0.32 0.51,-0.62 0.76,-0.84 0.26,-0.22 0.47,-0.39 0.8,-0.31 0.4,0.08 0.57,0.42 0.75,0.82 0.08,0.18 0.16,0.37 0.23,0.55 0.13,-0.1 0.26,-0.21 0.39,-0.3 0.33,-0.24 0.69,-0.34 1.04,-0.09 0.35,0.24 0.45,0.64 0.55,1.09 0.09,0.47 0.19,0.94 0.31,1.4 0.09,0.32 0.17,0.64 0.26,0.96 0.02,-0.12 0.06,-0.22 0.12,-0.32 0.06,-0.1 0.13,-0.2 0.21,-0.27 0.05,-0.05 0.1,-0.08 0.15,-0.11 -0.04,-0.45 0.05,-0.77 0.19,-1.18 0,-0.01 0.01,-0.02 0.01,-0.04 0.42,-1.17 1.78,-1.82 2.72,-1.88 0.96,-0.06 1.34,1.18 0.75,2.08 -0,0 -0,0 -0,0 0.2,0.65 0.13,1.39 -0.2,1.93 0.1,0.32 0.05,0.63 -0.05,0.96 -0.03,0.08 -0.05,0.17 -0.09,0.24z"/>
   <path class="fil1" d="M27.89 34.7c0.07,0.21 0.08,0.52 -0.07,0.65 -0.29,0.23 -1.07,-0.05 -1.11,0.38 -0.04,0.49 1.08,0.31 1.1,0.71 0.01,0.24 -0.36,0.25 -0.49,0.23 -0.58,-0.1 -1.95,-0.68 -1.91,-1.64 0.03,-0.77 0.98,-1.04 1.45,-1.02 0.41,0.02 0.83,0.18 1.03,0.69zm-16.81 -5.84c-0.24,-0.89 -1.01,-2.17 -1.49,-2.99 -0.07,-0.13 -0.13,-0.18 -0.17,-0.34 0.4,-0.15 1.03,0 1.91,-0.33 0.52,-0.2 0.23,0.34 1.47,0.59 1.17,0.24 2.16,-0.15 3.17,-0.62 0.02,-0.01 0.37,-0.09 0.1,-0.38 -0.25,-0.25 -0.39,-0.08 -0.54,-0.01 -1.02,0.48 -2.56,0.92 -3.46,0.01 -0.22,-0.22 -0.45,-0.47 -0.55,-0.78 -0.13,-0.42 0.01,-0.84 0.32,-1.12 0.69,-0.63 2.06,-0.91 2.97,-0.91 0.54,-0 0.78,0.19 1.22,0.36 0.52,0.2 0.71,0.24 1.21,0.36 5.58,0.77 9.36,-4.43 5.95,-8.28 -1.65,-1.32 -3.92,-1.65 -5.82,-1.29 -0.99,0.19 -1.92,0.59 -2.79,1.25 -0.64,0.49 -1.02,0.83 -1.42,1.68 -0.16,0.33 -0.27,0.66 -0.43,1 -0.09,0.18 -0.01,0.11 -0.19,-0.03 -0.64,-0.52 -3.46,-0.72 -4.27,-0.6 -0.88,0.15 -1.81,0.51 -2.57,1.1 -0.13,0.1 -0.26,0.21 -0.39,0.31l-0.09 0.07c0.14,-0.66 -3.01,-6.48 -3.53,-7.42 -0.11,-0.2 -0.9,-1.98 -0.9,-2.07 0.08,-0.07 0.55,0.07 0.67,0.1 0.24,0.06 0.67,0.19 0.9,0.14 0.23,-0.15 0.28,-1.87 0.38,-2.02 0.08,-0.12 0.48,0.06 0.59,0.09 0.38,0.12 0.75,0.23 1.13,0.36 0.13,0.04 0.46,0.16 0.56,0.02 0.22,-0.31 0.5,-1.78 0.72,-2.25l0.02 -0.04c0.16,-0.19 0.65,0.21 0.8,0.31 0.33,0.23 0.72,0.54 1.09,0.55l0.06 0c0.09,-0.36 0.45,-1.78 0.66,-1.94 0.11,-0.06 0.44,0.16 0.56,0.22 0.5,0.25 1.02,0.49 1.53,0.74 0.14,-0.14 0,0.02 0.09,-0.14 0.25,-0.41 0.49,-0.79 0.72,-1.22 0.08,-0.15 0.35,-0.66 0.51,-0.65 0.19,0.02 1.3,1.2 1.56,1.37 0.1,0.06 0.22,0.1 0.32,0.16 0.19,-0.19 0.28,-0.66 0.37,-0.96 0.13,-0.41 0.26,-0.82 0.38,-1.23 0.12,-0.42 0.14,-0.41 0.44,-0.08 0.27,0.3 0.87,1.15 1.13,1.3 0.21,-0.21 0.55,-0.74 0.75,-1.02 0.17,-0.23 0.56,-0.9 0.79,-0.95 0.16,-0.03 0.85,0.61 1.02,0.74 0.21,0.15 0.4,0.27 0.62,0.37 0.24,-0.38 0.68,-0.95 1,-1.22 0.26,-0.22 0.24,-0.25 0.44,0.18 0.21,0.47 0.38,0.96 0.56,1.44 0.13,-0.03 0.25,-0.15 0.36,-0.22 0.27,-0.19 0.52,-0.41 0.77,-0.6 0.32,-0.23 0.35,-0.04 0.44,0.38 0.11,0.53 0.18,0.94 0.32,1.47 0.82,3.1 1.83,5.81 2.96,8.72 0.24,0.62 0.48,1.23 0.72,1.85 0.39,1.04 0.26,0.86 0.31,1.91 0.02,0.34 0.02,0.69 0.02,1.05 0.01,2.81 -0.02,5.65 0.03,8.47 0.02,0.9 0.05,1.79 0.06,2.7 0,0.51 0.01,1.02 0.02,1.53 0,0.19 -0.01,0.22 -0.04,0.4 -0.7,0.01 -1.38,-0.29 -2.13,-0.27 -0.53,0.02 -0.99,0.18 -1.5,0.38 -0.83,0.34 -1.38,0.67 -2.28,0.83 -0.32,0.06 -0.64,0.08 -0.97,0.1 -0.14,0.01 -0.26,0.01 -0.39,-0.05 0.32,-0.18 1.56,-0.13 1.32,-0.83 -0.13,-0.4 -0.52,-0.28 -0.81,-0.26 -0.79,0.06 -1.04,0.12 -1.76,0.55 -0.5,0.3 -1.04,0.3 -1.58,0.39 -1.29,0.23 -3.67,0.64 -4.89,0.19 -0.79,-0.29 -0.7,-1 -0.9,-1.87 -0.06,-0.25 -0.12,-0.5 -0.18,-0.74zm16.71 3.14c-0.19,0.02 -0.62,-0.1 -0.86,-0.12 -0.42,-0.04 -0.77,-0.07 -1.19,0.06 -0.5,0.16 -0.27,-0.52 0.1,-0.67 0.41,-0.17 1.84,-0.22 2.15,0.2l0.02 0.03c0.12,0.21 -0.05,0.45 -0.22,0.49zm-2.96 -27.29c0.14,-0.25 0.65,0.14 0.84,0.2 0.52,0.18 0.99,0.06 1.51,0.05 0.17,-0 0.12,0.13 0.07,0.3 -0.28,0.93 -1.36,1.01 -1.95,0.67 -0.36,-0.21 -0.5,-0.6 -0.47,-1.1l0.02 -0.12zm1.84 28.72c-0.5,0 -1.26,0.42 -1.45,0.42 -0.32,0 -0.03,-0.67 0.05,-0.79 0.45,-0.68 1.23,-0.83 1.85,-0.53 0.23,0.11 0.68,0.55 0.68,0.88 -0,0.27 -0.36,0.07 -0.49,0.05 -0.2,-0.03 -0.44,-0.02 -0.64,-0.03zm0.65 -29.28c-0.15,0.15 -0.18,0.2 -0.42,0.25 -0.49,0.09 -1.47,0.09 -1.56,-0.77 -0.03,-0.25 0.06,-0.46 0.13,-0.69 0.28,-0.79 1.42,-1.25 2.05,-1.29 0.29,-0.02 0.24,0.22 0.11,0.42 -0.22,0.34 -0.81,0.02 -0.99,0.51 -0.15,0.41 0.49,0.28 0.67,0.3 0.11,0.01 0.1,-0.01 0.16,0.16 0.14,0.37 0.1,0.83 -0.15,1.12zm0.07 2.48c0.53,0.54 -1.49,1.11 -2.3,0.34 -0.11,-0.1 -0.28,-0.4 0,-0.46 0.19,-0.04 0.54,0.09 0.74,0.14 0.27,0.06 0.51,-0.04 0.77,-0.09 0.38,-0.07 0.5,-0.16 0.79,0.07z"/>
   <path class="fil2" d="M14.63 19.31c0.51,0 0.64,-0.19 0.8,-0.58 0.12,-0.41 -0.79,-0.91 -1.3,-0.37 -0.34,0.36 -0.14,0.96 0.49,0.96zm-3.78 4.45c0.05,0.38 0.14,0.46 0.21,0.75 0.08,0.34 -0.2,0.31 -0.4,0.35 -1.11,0.23 -1.95,0.15 -3.04,-0.16 -0.8,-0.23 -2.12,-1.03 -2.59,-1.91 -0.12,-0.24 -0.32,-0.6 -0.35,-0.89 0.1,0.09 0.08,0.22 0.59,0.22 0.92,0 0.96,-1.18 -0.09,-1.18 -0.29,0 -0.71,0.61 -0.7,0.25 0.02,-0.59 0.2,-1.29 0.46,-1.83 0.14,-0.28 0.3,-0.5 0.49,-0.76 0.71,-0.93 2.12,-1.6 3.34,-1.69 0.98,-0.07 2.76,0.1 3.59,0.76 0.42,0.33 0.34,0.99 0.49,1.55 0.23,0.92 0.7,1.29 1.22,1.89 0.05,0.06 0.21,0.29 0.06,0.32 -0.25,0.06 -0.52,0.06 -0.78,0.13 -0.67,0.16 -1.69,0.54 -2.19,1.15 -0.23,0.3 -0.33,0.62 -0.31,1.04zm2.37 -5.46c0,-0.5 0.03,-0.95 0.21,-1.42 0.12,-0.31 0.22,-0.53 0.37,-0.78 0.77,-1.23 2,-2 3.45,-2.37 1,-0.26 2.43,-0.24 3.38,0.04l1 0.36c0.17,0.06 0.16,0.07 0.3,0.15 1.63,0.87 2.33,2.16 2.11,4.02l-0.06 0.32c-0.32,1.01 -0.75,1.73 -1.69,2.37 -0.67,0.46 -1.65,1.02 -2.49,1.11 -1.1,0.12 -1.97,0.24 -3.15,-0.11 -0.67,-0.2 -0.5,-0.19 -0.96,-0.39 -0.14,-0.06 -0.18,-0.08 -0.3,-0.15 -0.67,-0.41 -1.19,-0.85 -1.62,-1.5 -0.24,-0.36 -0.56,-1.19 -0.56,-1.65z"/>
  </g>
 </g>
</svg>
