<?xml version="1.0" encoding="UTF-8"?>
<!DOCTYPE svg PUBLIC "-//W3C//DTD SVG 1.1//EN" "http://www.w3.org/Graphics/SVG/1.1/DTD/svg11.dtd">
<!-- Creator: CorelDRAW -->
<svg xmlns="http://www.w3.org/2000/svg" xml:space="preserve" width="21.5322mm" height="23.9277mm" version="1.1" style="shape-rendering:geometricPrecision; text-rendering:geometricPrecision; image-rendering:optimizeQuality; fill-rule:evenodd; clip-rule:evenodd"
viewBox="0 0 1240.14 1378.11"
 xmlns:xlink="http://www.w3.org/1999/xlink"
 xmlns:xodm="http://www.corel.com/coreldraw/odm/2003">
 <defs>
  <style type="text/css">
   <![CDATA[
    .fil0 {fill:black}
   ]]>
  </style>
 </defs>
 <g id="Camada_x0020_1">
  <metadata id="CorelCorpID_0Corel-Layer"/>
  <path class="fil0" d="M678.37 1177.45c4.74,-5.52 73.34,-47.75 97.13,-69.61 12.42,-10.77 34.78,-27.45 45.55,-37.91l81.91 -84.16c20.92,-22.89 54.31,-68.94 70.8,-94.13 10.67,-16.31 25.81,-34.04 24.13,-57.63l-161.56 0.27c-4.52,9.14 -63.48,93.27 -69.04,97.87l-0.01 -339.68c18.38,5.56 58.44,28.8 76.54,39.01 66.31,37.38 136.11,95.14 195.55,142.13l6.34 -13.91c2.62,-4.49 0.24,-1.33 2.95,-3.86 0.22,-9.99 37.05,-82.62 37.45,-107.44l-107.92 -88.46c-41.83,-33.03 -166.67,-107.5 -211.8,-116.62l0.42 -79.03c13.8,1.28 85.61,34.98 99.66,42.34 112.89,59.16 156.65,98.07 243.36,174.95 14.61,-10.89 26.4,-78.56 29.19,-101.57 6.59,-54.06 8.32,-29.18 -43.46,-81 -6.15,-2.75 -22.65,-16.58 -31.64,-23.2 -49.81,-36.71 -109.98,-72.88 -167.92,-99.56l-75.28 -33.58c-5.39,-0.08 -76.39,-25.73 -91.33,-30.02 -24.14,-6.93 -60.04,-17.05 -85.55,-22.08 -11.74,-3.08 -4.84,-3.35 -19.18,-4.31l1.22 1018.21c10.47,-1.13 41.55,-25.1 52.47,-27.01zm-576.06 -346.36c1.92,9.13 -19.17,10.36 -17.25,25.55 -33.77,22.63 -21.06,32.16 3.41,66.76 44.52,62.95 93.69,119.04 144.59,177.54 -57.4,64.79 -95,131.08 -122.15,211.71 -4.83,14.32 -11.64,23.73 -1.49,34.27 11.28,1.62 26,-10.13 33.43,-14.8 40.46,-25.47 71.23,-51.92 105.2,-83.33 25.72,-23.78 55.72,-60.58 67.1,-71.08 7.4,12.04 120.66,95.81 137.53,106.55l153.28 93.86 3.28 0 89.68 -52.84c98.03,-58.31 215.46,-153.79 291.03,-236.35 57.09,-64.55 87.44,-95.46 139.53,-171.62 7.24,-10.57 27.26,-31.22 17.05,-46.11 -10,-14.58 -29.37,-16.16 -44.4,-25.75 2.19,-6.21 9.13,-15.99 12.53,-21.95 45.38,-79.6 75.94,-166.78 97.49,-256.01 5.33,-22.05 0.51,-31.44 -10.44,-47.91 -4.45,-6.68 -24.72,-29.05 -31.51,-32.85 -7.74,25.55 -13.77,54.29 -20.79,79.96 -18.46,67.43 -39.97,123.65 -67.44,187.12 -11.3,26.1 -52.66,107.21 -65.01,121.07 -6.53,14.65 -22.66,37.09 -32.01,50.03 -27.48,38.1 -58.44,77.89 -91.55,111.09 -21.51,21.57 -60.71,59.6 -84.21,77.47 -12.81,9.55 -105.42,77.88 -112.07,81.58 -4.27,2.38 -2.78,1.86 -7.68,3.62 -1.95,3.28 -28.19,18.18 -33.47,21.28 -51.56,30.27 -46.13,28.57 -73.26,13.77 -7.63,-4.16 -29.52,-15.03 -33.13,-19.96 -8.31,-2.93 -17.43,-9.46 -26.25,-14.77 -118.34,-71.33 -225.94,-175.13 -300.71,-283.37 -80.17,-116.06 -138.34,-263.03 -171.59,-399.85l-5.5 -22.77c-2.29,-4.9 -0.36,-2.64 -4.61,-5.09 -0.9,4.22 -10.51,10.11 -15.46,15.34 -40.01,42.25 -24.2,61.1 -10.8,112 14.22,54.01 41.54,126.22 66.94,176.49 3.43,6.77 20.33,35.74 20.69,39.34zm730.58 -658.74c-3.28,9.4 -15.37,15.25 -17.05,27.56 -1.95,14.31 11.05,15.4 17.33,23.25 10.63,3.76 28.19,13.95 38.09,19.69 28.26,16.38 240.8,129.65 249.24,138.57 7.07,1 7.51,4.35 15.12,6.38 58.92,-40.03 24.74,-43.84 -45.9,-83.18 -14.56,-8.11 -28.54,-17.34 -40.65,-23.94 3.39,-11.94 93.63,-125.31 112.98,-151.61 11.78,-16.02 11.93,-24.15 39,-26.58 33.89,-3.04 54.5,-44.23 24.77,-78.47 -16.67,-19.2 -32.11,-18.74 -43.68,-24.02l-17.09 0c-7.56,3.54 -12.94,2.96 -21.75,8.44 -32.33,20.1 -15.13,55.48 -15.77,58.14 -2.42,6.99 -154.14,151.68 -163.73,165.94 -16.89,-4.83 -72.64,-39.1 -93.02,-49.64 -6.77,-3.5 -24.9,-11.31 -30.55,-15.31 -4.26,2.25 -2.76,2.91 -7.34,4.77zm-761.65 289.47c10.07,11.85 28.83,273.73 230.53,512.54 23.52,27.85 82.53,89 113.92,114.06l41.94 33.48c12.8,11.39 87.42,59.54 90.04,63.33l8.91 3.83c7.54,4.55 19.84,13.18 27.37,14.53l-0.66 -167.38c-59.61,-38.73 -78.26,-54.47 -126.45,-104.07 -47.15,-48.52 -90.49,-123 -121.85,-182.94 -6.97,-13.33 -20.47,-38.74 -24.43,-52.39 18.51,-17.41 99.7,-59.31 127,-71.52 44.23,-19.78 96.85,-42.35 146.12,-55.56l0.82 -149.82c-38.88,4.42 -138.57,42.87 -174.31,59.9 -64.88,30.91 -90.23,47.84 -149.31,83.71 -6.95,-8.16 -26.75,-59.81 -28.64,-70.98 38.61,-27.68 119.29,-68.95 162.82,-89.8 39.28,-18.82 96.43,-39.25 140.45,-51.51 14.14,-3.94 40.79,-9.23 51.43,-13.66l0.15 -149.37c-149.25,24.33 -309.2,94.92 -421.61,176.47 -28.28,20.51 -57.35,44.37 -81.46,65.91 -18.59,16.59 -9.92,8.6 -12.79,31.24z"/>
 </g>
</svg>
