<?xml version="1.0" encoding="UTF-8"?>
<!DOCTYPE svg PUBLIC "-//W3C//DTD SVG 1.1//EN" "http://www.w3.org/Graphics/SVG/1.1/DTD/svg11.dtd">
<!-- Creator: CorelDRAW -->
<svg xmlns="http://www.w3.org/2000/svg" xml:space="preserve" width="19.8273mm" height="14.6457mm" version="1.1" style="shape-rendering:geometricPrecision; text-rendering:geometricPrecision; image-rendering:optimizeQuality; fill-rule:evenodd; clip-rule:evenodd"
viewBox="0 0 1982.74 1464.58"
 xmlns:xlink="http://www.w3.org/1999/xlink"
 xmlns:xodm="http://www.corel.com/coreldraw/odm/2003">
 <defs>
  <style type="text/css">
   <![CDATA[
    .fil0 {fill:black}
    .fil2 {fill:red}
    .fil3 {fill:yellow}
    .fil1 {fill:white}
   ]]>
  </style>
 </defs>
 <g id="Camada_x0020_1">
  <metadata id="CorelCorpID_0Corel-Layer"/>
  <path class="fil0" d="M420.48 1199.16c42.71,60.33 111.54,150.41 156.28,182.8 73.14,104.31 347.17,100.1 443.54,41.3 74.38,46.16 196.91,-2.75 268.84,-6.68 198.59,-10.93 383.82,-195.96 386.05,-196.77 24.29,-2.63 38.06,-15.59 51.22,-35.63 33.6,-49.6 38.67,-99.2 104.86,-161.95l73.69 -111.14c90.69,-102.84 121.26,-221.27 -14.58,-300.82 -75.91,-44.54 -76.72,-154.26 -192.92,-284.43 -93.93,-105.07 -210.94,-207.7 -341.72,-262.77 -75.51,-31.78 -159.52,-43.73 -241.31,-53.65 -184.83,-22.47 -330.38,-7.49 -498.2,75.71l-24.5 15.59c-37.65,16.2 -99.8,31.38 -143.53,69.44l-287.46 263.58c-32.8,21.05 -103.65,83.4 -122.68,108.51 -43.93,57.9 -47.57,140.7 -22.47,205.48 38.67,99.4 155.47,154.26 158.71,158.51l7.09 23.28c11.54,37.45 139.28,194.14 173.29,219.85l65.8 49.79z"/>
  <path class="fil1" d="M861.8 1222.44c0.61,17.61 6.68,7.09 -11.13,12.15 -9.92,2.83 -49.4,-6.68 -58.71,-8.5 -111.14,-18.83 -104.26,-27.94 -97.17,-105.27 3.74,-40.55 9.74,-131.61 45.15,-153.85 14.37,3.85 10.73,1.82 19.23,9.92l130.57 37.65c7.69,28.75 -11.13,69.44 -14.58,104.66 -2.43,24.9 -1.42,85.02 -13.16,103.24l-0.2 0zm681.41 -253.65l47.57 -11.13 -60.73 92.71c-10.53,8.5 -23.89,14.98 -40.49,14.37 4.66,-28.54 24.9,-81.99 53.65,-95.75l0 -0.2zm-361.76 79.96l37.86 -0.81 11.74 35.63c-80.17,34.31 -154.5,94.31 -169.85,96.36 -11.13,-28.14 5.47,-104.66 14.58,-127.13l105.67 -3.85 0 -0.2zm0.81 -74.7c29.15,-1.62 -4.25,2.43 34.62,3.85l4.86 62.55 -143.33 -2.23c-4.05,-24.09 -0.2,-47.57 12.96,-66.4l90.89 2.23zm48.18 73.28c39.48,-4.05 103.45,-18.22 120.25,-10.12l2.23 9.51c-14.98,11.74 -54.05,9.72 -77.94,16.2 -33.81,9.11 -35.63,23.48 -44.54,-15.59zm214.79 22.07c-67.41,-24.7 -79.15,-8.3 -87.05,-39.48l44.33 -16.2 32.19 -1.42c12.35,-10.12 50,-20.24 68.22,-16.6 -2.63,20.65 -23.28,63.16 -31.78,77.13 -21.05,1.01 -16.6,2.83 -25.91,-3.64l0 0.21zm-937.5 -137.25c-19.84,-29.56 -13.36,-88.67 -6.28,-120.65 63.09,19.67 35.1,52.21 6.27,120.65l0.01 0zm114.18 -66.81c-50.54,-17.09 -55.3,-36.01 -44.74,-66 -16.6,14.98 -11.34,29.15 -48.99,4.45 -22.27,-15.18 -25.91,-25.3 -24.29,-61.34 3.04,-66.6 -34.62,-97.37 -23.89,-136.85 47.1,-17.17 145.04,43.83 155.27,73.28 -20.45,34.21 -46.56,63.77 -58.1,120.65 0.81,-0.81 1.82,-3.44 2.43,-2.63 49.66,-70.13 45.65,-86.67 61.54,-110.13 30.57,0 22.47,5.47 60.73,45.35l57.29 52.63c34.62,34.62 -36.44,139.48 -40.29,142.31l-96.96 -61.72zm1.01 30.98c18.22,4.66 11.94,3.04 28.54,12.35 105.67,59.72 61.34,28.75 39.27,152.84 -8.34,47.02 -7.04,115.51 -18.02,133 -82.56,-43.83 -181.66,-143.41 -155.47,-247.99 7.49,-29.96 17.61,-72.68 36.24,-92.11 15.07,-6.85 69.44,29.8 69.44,41.91zm811.17 101.62c-41.5,15.99 -28.34,11.74 -72.88,20.24 2.1,-96.71 17.08,-60.02 66.4,-86.04 13.77,-10.12 85.83,-52.63 91.7,-53.04 4.45,20.04 0.2,66 -6.07,80.98 -11.64,28 -76.03,34.58 -79.15,37.86zm-75.1 -9.52c-6.68,10.93 -5.06,20.45 -7.69,33 -29.15,6.68 -92.72,20.85 -117.82,12.96 -2.83,-33.4 -4.05,-30.37 2.63,-61.95l119.64 -12.96 3.24 28.95zm246.17 -70.44c-0.61,22.88 -4.66,22.27 -29.35,30.57 -16.6,5.47 -31.58,10.73 -48.99,11.74 -3.85,-11.54 3.85,-82.19 9.72,-95.35 6.48,-14.37 42.11,-56.89 52.03,-58.3 7.9,7.49 17,96.97 16.6,111.54l-0.01 -0.2zm-657.12 97.98l-38.87 -7.69 5.26 -48.59 -26.11 36.44c-28.66,1.63 -130.8,-44.06 -152.84,-56.48 -1.44,-32.11 27.05,-63.27 48.99,-129.97 16.8,10.12 15.39,7.49 20.65,21.46 36.64,13.56 59.52,51.22 94.54,64.38 26.92,10.12 14.98,20.45 28.34,32.39 4.66,-20.45 27.73,-6.28 43.73,1.21 28.14,13.36 92.72,32.19 99.6,43.52 2.83,4.66 6.28,37.86 -9.72,51.82 -19.43,14.37 -93.12,1.21 -113.97,-8.5l0.4 0.01zm22.27 194.34c-28.14,9.11 -58.91,17.21 -88.47,13.77 -14.17,-31.58 12.75,-174.91 27.94,-200.62 33,1.21 39.27,11.54 46.76,12.75 23.28,-2.23 69.44,8.1 105.27,6.48 -1.42,23.69 -8.91,84.62 -13.36,109.52 -6.81,37.69 -20.25,40.87 -78.14,58.1z"/>
  <path class="fil2" d="M973.95 713.7c13.16,72.07 58.71,34.41 69.84,29.96 17.61,7.29 49.6,34.01 51.42,52.84 -32.9,8.02 -100.78,7.7 -131.22,-7.31 -35.12,-17.32 -48.47,-39.57 -67.08,-73.29 -7.39,-13.39 -42.91,-80.94 -5.95,-83.35 28.12,-1.84 62.53,33.41 74.49,56.71 4.26,8.29 6.63,15.33 8.5,24.44zm338.48 98.99c0.81,-21.86 33.2,-41.7 44.94,-44.94 48.38,-13.97 92.31,22.67 82.8,-46.36 -2.02,-14.58 -3.44,-22.88 -3.85,-37.86 17,-11.54 10.53,-17.41 33.81,-25.71 15.11,68.34 7.31,131.97 -68.5,155.7 -25.17,7.88 -64.36,8.47 -89.2,-0.83z"/>
  <path class="fil3" d="M274.32 922.42c-22.88,2.63 -24.5,-6.28 -47.37,-4.86 9.72,25.3 127.13,179.36 159.93,195.15 -21.86,-56.28 -74.9,-227.95 -19.84,-277.14 14.17,100 -50,145.55 81.58,322.08 55.41,74.42 116.57,160.25 190.9,221.87 81.29,56.06 276.88,54.08 360.95,3.64 85.43,-50.81 227.14,-226.33 324.11,-240.09 24.9,-3.44 61.14,-9.92 78.95,8.3 -80.93,11.63 -350.95,210.22 -346.57,243.53l195.35 -20.24c45.95,-7.29 87.45,0 145.55,-26.72 96.56,-44.54 158.71,-83.4 242.72,-158.11 53.2,-47.29 -1.19,56.37 100.82,-128.55 24.7,-43.73 57.9,-62.76 96.56,-131.79 31.27,-53.18 145.3,-152.16 76.93,-240.9 -50,-65.19 -68.22,-11.13 -134.01,-143.53 -63.33,-127.56 -77.61,-142.05 -161.35,-234.02 -87.66,-96.36 -232.6,-201.22 -357.51,-231.39 -189.89,-45.95 -435.24,-58.1 -617.64,41.5 -111.1,60.6 -114.98,32.67 -225.52,137.05l-181.39 166.81c-81.97,78.14 -222.45,145.5 -187.57,278.92 36.16,138.32 203.04,173.8 224.42,218.49zm39.67 -307.71c32.8,-12.15 111.75,8.3 137.66,62.55 39.88,83.12 -42.05,318.49 102.44,461.96 70.06,69.57 174.81,121.94 269.85,135.23 85.43,11.74 244.55,-36.84 321.88,-82.39 64.98,-38.12 135.39,-106.49 237.26,-95.14 72.47,8.1 97.98,30.16 177.34,4.66 19.03,-6.28 39.07,-16.8 59.31,-20.24 3.24,57.7 -105.67,98.18 -152.64,103.65 -18.62,2.02 -18.22,-1.21 -34.82,0.81 28.95,29.76 123.69,21.46 185.84,-34.21 -3.24,-14.58 -4.86,-9.51 -7.69,-26.11 47.37,-34.41 49.19,-91.5 68.83,-145.96 -54.25,21.05 -18.42,9.31 -57.29,89.88l-83.81 11.94c2.63,-22.67 33,-57.09 48.59,-72.47 36.44,-35.63 22.27,-38.67 38.06,-83.81 12.96,-37.05 30.77,-27.73 32.8,-84.42 1.82,-53.24 -10.32,-61.74 6.28,-107.7 64.58,-9.11 35.43,2.23 112.76,26.72 -15.79,-68.83 -163.77,-107.7 -205.27,-21.46 14.58,16.4 33,14.17 -27.73,74.5 -120.25,119.44 -280.38,170.86 -444.15,118.22 -149.32,-47.81 -269.53,-125.63 -383.02,-233.62l-83 -84.42c-203.86,-212.56 -357.31,-34.82 -362.97,29.76 -0.12,0.06 30.28,-23.04 43.49,-27.93zm860.38 220.46c19.23,4.45 36.24,20.45 58.5,17.21 25.3,-3.64 35.43,-12.75 56.08,-15.79 45.35,-6.48 131.79,36.24 197.38,-69.64 61.8,-99.66 -4.62,-124.39 37.25,-172.89 18.62,-21.66 34.21,-56.28 72.07,-61.54 62.55,-8.91 57.49,43.73 87.66,42.11 -1.01,-15.79 2.63,-9.11 0.61,-23.48 -4.45,-30.97 -53.24,-54.66 -84.82,-50.2 -76.15,10.83 -136.54,156 -236.05,227.95 2.02,-22.88 31.99,-81.99 41.7,-108.3 29.56,-79.76 12.96,-101.62 76.12,-228.96 21.86,-44.13 45.55,-51.42 109.72,-60.53 -4.47,-31.27 -82.51,-10.18 -100.61,2.83 -76.12,54.66 -100,232.81 -112.96,245.56 -5.06,-35.83 -15.99,-110.94 -58.1,-108.51 7.49,52.47 69.28,135.15 14.17,252.44 -19.23,40.89 -29.56,64.78 -69.44,70.45 4.2,-47.13 46.92,-24.28 23.08,-193.93 -10.32,-73.28 -64.17,-95.75 -59.92,-65.39 5.26,37.25 28.14,6.68 42.31,106.69 1.42,10.53 -4.25,221.47 -100.61,147.38 -27.13,-20.85 -58.5,-18.83 -82.8,-34.82 -50.88,-33.38 -224.44,-248.36 -380.59,-313.99 -97.52,-40.99 -128.66,-13.62 -197.78,13.76 20.85,21.26 97.98,-7.69 192.92,37.86 138.87,66.6 112.56,274.91 248.19,331.6 43.73,18.22 103.85,27.73 154.87,20.45 0,0.06 63.81,-9.97 71.05,-8.32zm68.22 -105.27c-22.27,-23.89 -83.81,-22.67 -133.21,-98.39 -57.76,-90.78 -161.51,-276.98 -211.95,-338.88 -69.11,-84.81 -149.47,-100.35 -184.01,-4.25 68.56,-11.37 99.15,-69.86 232.2,148.79 53.85,88.47 126.32,259.53 220.86,295.36 8.7,3.24 34.82,9.92 46.36,6.28l29.75 -8.91z"/>
 </g>
</svg>
