<?xml version="1.0" encoding="UTF-8"?>
<!DOCTYPE svg PUBLIC "-//W3C//DTD SVG 1.1//EN" "http://www.w3.org/Graphics/SVG/1.1/DTD/svg11.dtd">
<!-- Creator: CorelDRAW -->
<svg xmlns="http://www.w3.org/2000/svg" xml:space="preserve" width="16.2095mm" height="14.683mm" version="1.1" style="shape-rendering:geometricPrecision; text-rendering:geometricPrecision; image-rendering:optimizeQuality; fill-rule:evenodd; clip-rule:evenodd"
viewBox="0 0 44.7 40.49"
 xmlns:xlink="http://www.w3.org/1999/xlink"
 xmlns:xodm="http://www.corel.com/coreldraw/odm/2003">
 <defs>
  <style type="text/css">
   <![CDATA[
    .fil0 {fill:#010000}
    .fil2 {fill:#FB6703}
    .fil1 {fill:#FDFDFD}
    .fil3 {fill:yellow}
   ]]>
  </style>
 </defs>
 <g id="Camada_x0020_1">
  <metadata id="CorelCorpID_0Corel-Layer"/>
  <g id="Figs_Desenho_VarCor_014_x0020_a">
   <path class="fil0" d="M37.79 28.73c-1.53,-0.09 -2.33,-0.52 -3.34,-1.21 0.25,-0.28 0.66,-0.36 1.1,-0.47 0.82,-0.7 2.89,-0.48 3.13,-1.78 0.42,-2.27 -2.3,-4.67 -4.6,-5.47 -2.34,-0.82 -3.45,0.3 -4.02,0.43 -0.37,-0.58 -0.61,-2.89 -1.35,-4.68 -0.19,-0.46 -0.39,-1.08 -0.7,-1.37 -0.02,-0.61 -3.72,-7.72 -5.24,-8.8 -0.42,-0.3 -0.95,-0.61 -1.46,-0.89 -0.51,-0.28 -1.17,-0.45 -1.52,-0.81 1.3,-1.63 2.47,-0.76 3.57,-1.54 -0.74,-0.07 -2.17,-0.37 -2.82,-0.15 -0.82,0.27 -1.28,0.7 -2.27,0.86 0.35,-1.32 2.53,-1.92 2.46,-2.82 -0.46,-0.09 -0.55,0.02 -0.95,0.15 -0.16,0.18 -1.18,0.83 -2.07,1.76 -0.29,0.3 -0.37,0.46 -0.92,0.56l0.04 -0.93c-0.7,0.31 -1.06,1.48 -1.19,2.35 -0.08,0.52 0.01,1.19 -0.17,1.61 -0.13,0.29 -0.6,0.68 -0.82,0.96 -0.81,1 -0.8,0.81 -1.25,2.32 -0.76,2.57 -1.57,7.91 -3.25,11.09l-1.29 2.37c-1.58,0.93 -1.91,0.44 -4.59,2.49 -1.5,1.15 -4.88,4.21 -4.19,6.32 0.21,0.65 0.27,0.74 0.77,1.01 2.38,1.28 5.17,0.3 7.83,0.26 -0.1,0.65 -4.62,7.23 1.13,8.11 1.17,0.18 2.59,-0.45 3.46,-0.87 2.27,-1.1 3.58,-2.05 6.38,-2.8 0.55,-0.15 2.53,-0.11 3.09,-0.19 2.6,-0.37 3.97,-0.41 7.19,-1.84 3.58,-1.59 1.74,-1.55 4.62,-0.78 2.65,0.71 6.63,1.33 9.1,-0.04 1.29,-0.72 1.23,-2.3 0.61,-3.07 -1.22,-1.51 -4.12,-1.85 -6.48,-2.15z"/>
   <path class="fil1" d="M23.18 14.23c-0.15,-1.24 -0.83,-1.48 -0.43,-3.22 0.1,-0.44 0.49,-1.17 0.52,-1.43 0.06,-0.58 -0.63,-0.88 -1.11,-0.73 -0.9,0.27 -1.15,4.87 1.01,5.38z"/>
   <path class="fil1" d="M16.72 11.72c0.61,0.5 0.59,1.79 0.91,2.65 0.92,0.11 1.31,0.03 1.01,-1.05 -0.43,-1.59 -1.81,-3.87 -3.73,-3.98 0.07,0.55 0.08,0.44 0.41,0.7 0.21,0.16 0.36,0.3 0.53,0.47 0.34,0.32 0.79,0.69 0.86,1.22z"/>
   <path class="fil2" d="M20.44 36.12c1.5,0.91 10.13,-1.28 11.09,-3.06 -2.26,-0.12 -7.56,1.54 -9.98,2.49 -0.49,0.19 -0.83,0.26 -1.1,0.57zm1.33 -9.25c0.04,-0.08 0.05,-0.27 0.11,-0.22 0.5,0.47 -0.28,2.4 -0.97,1.77 -0.42,-0.32 0.62,-1.41 0.86,-1.55zm2.93 -0.33c-0.07,-0.05 -0.23,-0.05 -0.19,-0.13 0.37,-0.6 2.04,0.28 1.55,1.12 -0.25,0.5 -1.23,-0.7 -1.36,-0.99zm5.44 -0.96c-0.05,-0.02 -0.42,0.12 0.11,-0.69 0.74,-1.12 1,-1.03 2.23,-1.46 1.21,-0.43 3.22,-0.5 3.76,0.48 -2.64,0.12 -2.88,-0.6 -5.04,0.88 0.2,0.61 1.16,1.73 1.91,1.79 1.01,0.08 3.58,-1.18 4.65,-1.68 0,-1.34 -1.23,-2.64 -2,-3.09 -0.53,-0.31 -3.27,-1.4 -3.89,-1.36 -1.46,0.1 -2.64,1.07 -2.91,2.35 -0.33,1.58 -0.9,2.52 -3.03,2.35 -0.84,-0.29 -1.67,-0.94 -2.46,-0.85 -0.38,0.34 -1.74,0.37 -2.27,0.45 -0.3,0.74 -1.08,1.62 -1.71,2.03 -0.69,0.44 -2.1,0.57 -3.07,0.44 -3.18,-0.43 -2.05,-3.07 -4.74,-3.79 -1.67,-0.45 -1.7,-0.25 -2.45,-0.41l-2.08 0.82c-3.1,1.5 -8.88,6.66 -5.78,7.65 0.84,0.27 1.56,0.57 2.52,0.52 0.17,-0.01 5.04,-0.34 5.26,-0.47 0.79,-0.85 1.58,-3.79 0.97,-5.09 -1.73,-0.16 -3.19,1.13 -4.53,1.5 1.73,-2.04 5.78,-3.15 6.9,-1.21 -0.42,0.11 -0.93,-0.06 -1.36,-0.14 0.2,4.81 -2.13,5.2 -3.08,8.55 -0.26,0.9 -0.84,2.29 -0.46,3.21 0.3,0.73 1.78,1.32 2.68,1.35 1.67,0.05 6.53,-2.86 8.19,-3.66 0.9,-0.43 1.82,-0.87 2.74,-1.3 0.78,-0.37 2.1,-0.74 2.72,-1.08 3.8,-0.79 6.1,-1.92 10.74,-1.83 0.65,0.01 3.29,-0.03 3.88,0.49 -0.83,0.53 -4.08,-0.55 -5.44,0.22 0.5,0.99 6.46,1.45 7.93,1.33 1.15,-0.1 2.92,-0.52 2.57,-1.97 -0.23,-0.91 -1.72,-1.61 -2.82,-1.89 -4.83,-1.23 -12.26,-0.38 -17.19,0.26l-0.8 0.06c0.62,-0.73 4.67,-1.21 5.45,-1.3 1.36,-0.15 5.61,-0.07 6.39,-0.3 -0.26,-0.46 -1.8,-1.03 -2.26,-1.51 -0.57,-0.59 -1.22,-1.31 -1.85,-1.84l-0.38 0.19z"/>
   <path class="fil3" d="M14.18 15.76c-0.75,0.74 -1.89,8.78 0.86,10.22 1.52,0.79 2.98,0.62 4.27,-0.39 0.47,-0.37 0.36,-0.46 0.95,-1.02 -0.36,-0.56 -0.56,-0.1 -0.91,-0.76 -0.8,-1.47 0.62,-1.03 0,-2.47 -0.19,-0.44 -0.37,-0.82 -0.56,-1.23 -0.73,-1.56 -1.15,-3.25 -1.85,-4.91 -0.26,-0.74 0.05,-0.16 -0.4,-0.8l-0.61 -1.06c-0.31,-0.46 -0.58,-0.89 -0.99,-1.09 -0.19,-0.42 -0.17,-0.27 -0.41,-0.57l-0.32 0.08c0.2,0.48 0.38,0.47 0.54,0.69 0.31,0.61 0.73,0.81 0.28,1.59 -0.34,0.59 -0.68,1.05 -0.86,1.72zm12.3 8.28c0.18,-0.11 1.3,-1.76 1.45,-2.03 1,-1.83 -2.1,-7.38 -2.36,-8.49 -0.21,0.06 -0.1,-1.02 -0.13,-1.28 -1.38,1.08 -1.93,6.59 -1.63,8.89l1.1 0.78c0.33,1.66 -0.3,1.01 -0.72,1.88 0.77,0.24 1.18,0.84 2.02,0.75l0.26 -0.51z"/>
  </g>
 </g>
</svg>
