<?xml version="1.0" encoding="UTF-8"?>
<!DOCTYPE svg PUBLIC "-//W3C//DTD SVG 1.1//EN" "http://www.w3.org/Graphics/SVG/1.1/DTD/svg11.dtd">
<!-- Creator: CorelDRAW -->
<svg xmlns="http://www.w3.org/2000/svg" xml:space="preserve" width="41.8059mm" height="41.8422mm" version="1.1" style="shape-rendering:geometricPrecision; text-rendering:geometricPrecision; image-rendering:optimizeQuality; fill-rule:evenodd; clip-rule:evenodd"
viewBox="0 0 75.28 75.34"
 xmlns:xlink="http://www.w3.org/1999/xlink"
 xmlns:xodm="http://www.corel.com/coreldraw/odm/2003">
 <defs>
  <style type="text/css">
   <![CDATA[
    .fil0 {fill:black}
    .fil20 {fill:#033131}
    .fil31 {fill:#252525}
    .fil32 {fill:#39484A}
    .fil7 {fill:#3DA0D5}
    .fil16 {fill:#623207}
    .fil14 {fill:#653407}
    .fil28 {fill:#666869}
    .fil26 {fill:#684623}
    .fil21 {fill:#748387}
    .fil6 {fill:#7A898D}
    .fil24 {fill:#8A9295}
    .fil15 {fill:#90612F}
    .fil12 {fill:#966532}
    .fil29 {fill:#979798}
    .fil5 {fill:#996532}
    .fil10 {fill:#B1783C}
    .fil9 {fill:#D06D1A}
    .fil23 {fill:#D47718}
    .fil30 {fill:#D7D7D8}
    .fil22 {fill:#DFDFDF}
    .fil19 {fill:#DFE2E4}
    .fil2 {fill:#E1E1E2}
    .fil17 {fill:#E9D0D1}
    .fil27 {fill:#E9E9E9}
    .fil18 {fill:#F1F1F2}
    .fil8 {fill:#F3C302}
    .fil25 {fill:#F6F6F6}
    .fil11 {fill:#F9F9F9}
    .fil13 {fill:#FA6665}
    .fil4 {fill:#FC6766}
    .fil3 {fill:#FCFCFC}
    .fil1 {fill:#FECC01}
   ]]>
  </style>
 </defs>
 <g id="Camada_x0020_1">
  <metadata id="CorelCorpID_0Corel-Layer"/>
  <g id="_2050966733264">
   <path class="fil0" d="M37.11 64.58l0.77 0.48c0.56,0.26 0.46,-0.04 0.64,0.61l-1.56 0c0,-0.62 0.05,-0.63 0.16,-1.09zm17.45 -62.85c-0.28,-0.38 -0.21,-0.34 -0.78,-0.47 0.17,0.63 0.04,0.45 0.78,0.47zm-46.13 7.95c0.23,-0.34 0.27,-0.33 0.62,-0.62 -0.89,0.02 -1.35,0.39 -1.71,0.94 0.58,-0.13 0.44,-0.26 1.09,-0.31 0.55,-0.05 0.73,-0.21 1.13,-0.28l3.55 -0.19c0.29,-0.54 0.18,-0.72 0.93,-0.78 -0.17,0.32 -0.22,0.37 -0.31,0.78 1.23,-0.03 0.11,0.1 0.76,-0.63 0.36,-0.4 0.58,-0.17 0.64,-0.93 0.48,0.13 0.22,-0.02 0.54,0.39 1.07,1.41 1.39,2.38 1.8,4.13 1.1,-0.02 3.04,-0.51 3.74,-1.56 -0.79,0.18 -0.61,0.44 -1.4,0.62 0.16,-0.62 0.31,-0.52 0.84,-0.87 0.61,-0.4 1.42,-1.32 2.9,-1.78l2.24 -0.88 2.13 -0.99c-0.16,0.61 -0.23,0.41 -0.83,0.73 -0.74,0.39 -2.28,1.27 -3.07,1.45 0.44,0.61 1.43,0.53 2.1,0.39 0.89,-0.2 1.31,-0.37 1.49,-1.01 -0.58,0.13 -0.44,0.26 -1.09,0.31 0.27,-1.02 4.37,-2.63 5.14,-2.81 -0.14,0.54 -0.27,0.57 -0.93,0.62l0 0.31c1.6,0 2.46,-0.47 3.52,-1.47 2.61,-2.47 0.9,-1.19 3.8,-1.33 1.19,-0.06 5.66,-1.69 7.26,-1.96 1.08,-0.19 0.9,0.38 1.66,0.53 1.17,0.23 1.92,-0.82 2.27,-1.09l0.65 -0.44c-0.89,0 -1.18,0.16 -2.18,0.16 0.61,-0.53 1.93,-0.71 2.68,-0.91 0.72,-0.19 2.4,-0.44 2.93,0.28l-0.78 0c0.42,0.57 0.26,0.14 0.93,0.47 0.13,0.63 -0.04,0.38 0.15,0.93 0.72,2.07 -0.1,1.77 -0.19,3.47l1.13 1.06c0,-1.36 -0.23,-2.37 0.16,-2.65 0,1.55 0.72,3.05 0.96,4.5 0.31,1.82 -0.5,3.55 0.75,4.39 0,-2.3 -0.62,-3.99 -0.62,-6.24 0.12,0.14 0.06,-0.02 0.25,0.37 0.79,1.63 0.22,4.96 0.91,6.41l0.55 0.55c1.01,-0.34 -0.54,0.02 0.47,-0.31 0.55,0.75 1.24,0.5 1.72,1.39 0.69,1.28 0.74,2.29 1.08,3.75 1.49,0 2.39,0.37 3.45,0.76 1.93,0.72 1.7,-0.14 3.41,-0.14 -0.06,-0.71 -0.28,-0.6 -0.29,-1.1 -0.02,-1.24 1.82,-1.06 2.69,-0.83 3.02,0.77 1.33,2 1.18,2.56 0.39,0.09 0.78,0.25 1.05,0.51 0.95,0.92 0.14,1.4 -0.15,2.33l0.97 1.06c-0.21,0.79 -0.97,1.38 -1.4,2.03 0.24,1.05 0.63,0.92 1.54,1.26 0.7,0.26 0.92,0.69 1.47,1.2l0.25 0.22c0.42,0.46 0.34,1.27 0.2,1.71 -0.14,0.41 -0.26,0.56 -0.43,0.97 -0.45,1.09 -0.91,2.81 -1.88,3.42 -0.64,0.4 -1.8,1.35 -2.49,1.29 -0.89,-0.07 -1.12,-0.4 -1.62,-1.04 -0.24,0.36 -0.42,0.51 -0.47,1.09l0.47 0 0 2.03c1.59,-0.37 3.91,-1.99 5.49,0.12 0.49,0.65 2.37,8.95 -2.94,10.7 -2.82,0.93 -2.33,-0.38 -3.6,2.64l-2.18 4.07c-0.49,0.91 0.44,2.22 -2.08,2.43 -0.02,0.92 -0.37,0.94 -0.47,2.03 -0.11,1.29 -0.56,2.68 -1.57,3.42 -2.37,1.71 -7.53,0.72 -8.24,-2.32 -1.31,0.11 -2.73,0.42 -3.42,1.57 -0.31,0.51 -0.13,0.6 -0.79,0.77 0,-0.83 -0.01,-0.92 -0.16,-1.56 -3.08,0 -1.46,0.6 -3.12,1.72 0,-0.87 0.1,-1.08 0.16,-1.72 -1.14,0.3 -0.61,1.45 -3.03,2.27 -1.11,0.38 -1.93,0.03 -2.7,0.57l-1.13 0.75c0.12,0.46 0.06,0.25 0.31,0.62 -0.84,0.22 -0.44,1.11 -0.78,1.72 -0.63,1.28 0.01,-0.76 -1.04,1.76 -0.28,0.68 -0.66,1.1 -0.83,1.82 0.57,-0.15 0.33,-0.16 0.78,-0.47l0 0.47c1.05,0 2.6,-0.64 2.34,0.62 0.54,-0.29 1.12,-0.78 1.71,-0.94 0,0.9 0.22,1.06 -0.47,1.25l0.94 0.31c-0.38,0.57 -0.77,0.59 -1.62,0.72 -1.76,0.28 -3.57,0.04 -5.24,1.15 -0.12,-0.47 0.02,-0.62 -1.37,-0.28 -0.56,0.14 -0.92,0.36 -1.6,0.43l-3.42 0.47 0 -0.62c-0.92,0.02 -1.71,0.39 -2.34,0.94 -0.77,-0.21 -0.12,-0.31 -1.25,-0.31 1,-1.5 2.59,-2.28 2.81,-4.83 -0.66,0.15 -1.36,0.65 -2.05,0.92 -0.43,0.16 -0.7,0.23 -1.17,0.39 -0.43,0.15 -0.7,0.28 -1.02,0.38 -1.36,0.43 -3.83,0.51 -4.95,-0.13 -0.61,-0.34 -1.2,-0.83 -1.46,-1.51 -1.12,-2.94 0.73,-3.81 -2.01,-2.89 -0.82,0.27 -1.39,0.6 -1.99,0.19 -0.38,0.71 0.03,0.27 -0.77,0.63 -1.12,0.5 -1.89,0.62 -3.13,0.93 0,-1 -0.15,-1.28 -0.16,-2.18l0.01 -6.87c0.02,-1.07 0.06,-1.41 -0.92,-1.08 -1.75,0.59 -3.61,1.24 -5.48,1.24 -0.23,-0.34 -0.63,-0.6 -0.72,-0.99 -0.37,-1.62 1.61,-1.77 2.13,-2.59 0.3,-0.48 1.24,-4.38 1.41,-5.14l2.06 -7.77c0.39,-0.73 0.87,-1.24 1.67,-1.45 -0.11,-0.41 -0.24,-0.51 -0.53,-0.87l-1.78 -2.43c-0.81,-1.39 -1.28,-2.45 -1.28,-4.18l0.47 0.78c0,-0.78 -0.22,-2.3 0.47,-2.81l0.16 2.81c0,-1.71 0.19,-2.54 0.87,-3.65 0.36,-0.59 0.32,-1.11 0.89,-1.45l2.24 -1.19c2.76,-1.49 3.1,-0.15 4.24,-0.58 0.67,-0.25 0.61,-0.54 1.58,-0.62 -0.19,-0.37 -0.24,-0.54 -0.51,-0.89 -0.23,-0.31 -0.45,-0.53 -0.54,-0.86l-0.36 -2.45c-0.08,-1.05 -0.55,-3.42 -0.22,-4.43 0.23,-0.69 0.02,-0.11 0.22,-0.4l0.31 -2.65c-0.74,-0.17 -1.59,-0.85 -2.18,-1.25 -2.69,-1.79 0.25,-4.39 -2.47,-4.05 -0.2,0.03 -1.14,0.3 -1.33,0.4 -0.47,0.25 -0.45,0.49 -0.56,1l-0.41 -0.21c-1.06,-0.23 -0.38,0.28 -0.38,0.29 0.05,0.81 0.03,0.58 -0.62,1.48 -0.32,0.45 -0.4,0.8 -0.81,1.22 -0.5,0.52 -0.72,0.4 -0.74,1.28 1.19,0 0.97,-0.23 1.87,-0.47 0.63,0.42 0.77,0.76 1.87,0.78 0,0.98 -0.33,1.68 -1.09,2.18l0 -0.31 -0.94 0.94c0.22,0.81 0.55,0.52 0.31,1.56 1.03,-0.69 0.7,-1.15 1.4,-1.4 -0.46,0.95 -0.13,0.88 0,1.25 -0.89,0.6 -1.21,1.19 -2.71,1.81 -1.66,0.68 -1.68,1 -3.3,0.63 -0.73,-0.17 -0.99,-0.37 -1.3,-0.88 -0.6,-1.01 -0.22,-0.38 -1.36,-0.83 -1.25,-0.5 -0.86,-2.24 -0.46,-3.16 0.26,-0.6 0.65,-0.85 1.07,-1.27 0.88,-0.91 0.61,-0.2 1.51,-0.67 0.87,-0.45 0.5,-1.73 0.6,-2.37 0.24,-1.51 1.56,-2.99 2.75,-3.8 0.88,-0.59 1,0.14 2.12,-0.84zm14.03 57.86c0,2.28 1.66,1.12 2.96,1.09 -0.17,0.65 -0.37,0.64 -1.68,0.97 -1.19,0.3 -4.24,1.25 -4.24,-1.13 0,-0.98 0.29,-2.32 0.84,-2.75 0.37,-0.29 2.13,-0.79 2.74,-0.84 -0.21,0.9 -0.62,1.54 -0.62,2.65zm0.47 -15.28l0 -0.94c4.25,0 1.87,-0.79 3.58,-0.94 0.38,1.41 1.77,0.97 1.87,2.18 -1.77,-0.41 -2.54,-1.05 -4.58,0.56 -0.34,0.27 -1.47,1.39 -1.82,1.04 -0.36,-0.36 -0.21,0.28 0.53,-1.07 0.17,-0.31 0.41,-0.57 0.41,-0.84zm21.19 -8.58c-0.05,0.64 -0.16,0.85 -0.16,1.72 -0.86,-0.07 -0.28,-0.12 -1.07,-0.49 -0.49,-0.23 -0.63,-0.16 -0.96,-0.6 0.73,-0.17 1.43,-0.56 2.18,-0.62zm0 0l0 0zm12.16 -0.62c0.63,-0.15 1.24,-0.32 1.87,-0.47 0,3.84 -0.09,2.25 -0.62,4.52l-0.31 0c0,-3.62 -0.73,-2.48 -0.93,-4.05zm-36.31 -0.47c-0.8,0 -0.26,0 -0.47,-0.16 0.82,0 0.23,0 0.47,0.16zm0 0l0 0zm0 0c2.02,0 1.09,0.17 3.12,0 0.11,0.21 0.19,0.43 0.31,0.62 0.36,0.57 0.99,0.61 0.31,2.03 -0.49,0 -1.17,0.08 -1.41,0.08 -1.42,0.01 -2.2,-1.14 -3.8,0.17l-0.96 1.06c-1.22,1.83 -1.14,0.64 -3.15,1.06 -0.6,0.13 -0.32,0.27 -1.28,0.28 -1.01,0.01 -1.56,0.04 -2.32,0.95 -0.88,1.05 -1.67,3.71 -1.58,4.96 0.05,0.66 0.26,0.74 0.32,1.41 -0.62,0.05 -0.94,0.26 -1.56,0.31 0.1,-1.16 3.38,-10.6 3.41,-11.4 0.02,-0.64 -0.33,-1.18 -0.45,-1.7l3.36 -1.48c0.86,-0.38 0.57,-0.08 1.16,-1.18 -0.98,0.02 -1.15,0.43 -1.87,0.62 0.43,-0.65 0.91,-1.19 1.37,-1.9 0.5,-0.77 0.53,-1.5 1.28,-2 0,0.62 -0.05,1.43 0.01,2.02 0.05,0.58 0.28,0.72 0.03,1.16 -0.13,0.23 0.05,-0.5 -0.2,0.25 0.09,1.45 1.34,2.15 2.6,2.7 0.55,0.24 0.95,0.45 1.3,-0.05zm-3.27 -16.84l-0.31 0c-0.2,-0.86 -0.45,-0.67 -0.36,-1.6 0.08,-0.75 0.05,-1.54 0.05,-2.3 2.05,1.38 0.72,2.72 0.62,3.9zm44.41 -1.56c-0.54,-0.2 -0.03,-0.23 -0.78,-0.31 0.19,0.8 0.58,1.99 1.08,2.66l0.63 0.77c2.45,0 1.93,-1.13 3.43,-0.78l-0.38 1.78c-0.19,0.57 -0.79,1.76 -1.02,2.75 -0.94,0 -2.63,-0.82 -3.72,0.33l-1.58 2.01c-1.62,0 -2.61,0.16 -4.21,0.16 1.16,-1.74 0.68,-0.89 0.97,-2.3 0.15,-0.73 2.12,-1.62 1.14,-2.38 -0.32,-0.25 -0.64,0.25 -0.48,-0.82 0.19,-1.3 0.68,-2.08 0.15,-3.3 -0.26,-0.6 -1,-0.62 -0.2,-1.63 0.26,-0.33 0.41,-0.3 0.45,-0.8 0.68,0.06 0.76,0.04 0.78,0.78 1.74,0 1.8,0.34 2.81,-1.56 0.79,0 1.01,-0.07 1.4,0.47 0.04,-0.01 0.09,-0.1 0.11,-0.06 0.29,0.58 0.02,-0.63 0.54,-0.11 0.29,0.29 -0.61,1.4 -1.12,2.36zm-39.89 -13.57l0 0zm6.39 -2.34l0 0zm22.28 -7.33l0 0zm0 0l0 0z"/>
   <path class="fil1" d="M65.49 22.76c-4.88,0.44 -2.55,3.31 -1.98,3.58 0.24,-0.21 0.4,-0.62 0.43,-0.98 -0.38,-0.34 -0.29,-0.02 -0.43,-0.42 1.97,0.01 4.07,1.26 5.48,2.51l1.61 1.1c0.85,-1.21 1.29,-1.12 0.52,-2.11 -0.39,-0.51 -1.74,-1.31 -1.86,-1.68 0.76,-0.07 0.82,0.73 1.85,0.34 0.4,-0.15 1.08,-0.73 1.21,-1.17 -0.37,-0.78 -2.32,-0.87 -2.57,-1.65 0.44,0.13 1.41,0.63 2.12,-0.81 -0.28,-0.35 -1.89,-1.22 -2.43,-1.36 -1.19,-0.29 -2.31,-0.05 -3.3,0.3 -0.01,0.33 0.02,0.35 0.24,0.56 -0.93,0.07 -1.43,-0.52 -2.14,-0.77 -0.5,-0.18 -7.49,-2.14 -7.18,-0.82 0.11,0.49 1.65,0.5 2.24,0.65 1,0.25 5.67,1.78 6.17,2.72zm-1.88 20.63c-0.61,-1.19 -0.12,-4.03 -0.89,-4.35 -0.76,-0.31 -1.71,0.08 -2.4,0.32 0.01,2 0.07,2.09 -1.29,2.98l-0.02 9.63c1.83,0.08 1.74,-1.49 2.4,-2.74 0.49,-0.93 0.2,-3.73 0.24,-5 0.44,0.63 0.39,3.77 0.78,4.11 0.18,0.14 1.08,0.26 1.42,0.25 0.49,-0.84 0.75,-0.55 0.97,-0.98 0.23,-0.45 0.37,-4.11 0.72,-5.29l0.02 5.33c0.3,0.13 0.4,0.2 0.76,0.23 0.72,-1.2 1.46,-0.74 1.79,-1.06 0.24,-0.23 0.06,-7.73 0.08,-9.2 0.01,-1.13 0.17,-0.9 -2.39,-0.08 -0.77,0.25 -1.47,0.22 -1.59,1.06 -0.14,0.98 -0.26,4.17 -0.58,4.77zm6.9 -1.79c-0.12,-0.91 -0.22,-2.11 0.77,-1.87l0.04 1.75c-0.34,0.11 -0.39,0.25 -0.81,0.13zm-1.27 6.91c1.69,0.07 2.91,-0.65 3.74,-1.5 1.11,-1.14 1.22,-2.24 1.24,-4.19l-2.42 0.76c-0.42,0.23 -0.13,-0 -0.29,0.28 -0.34,0.71 0.46,2.78 -0.9,2.55 -0.14,-0.42 -0.15,-2.34 -0.11,-2.92 0.44,-0.33 2.95,-1.11 3.66,-1.3 0.52,-5.01 -2.03,-5.62 -5.11,-3.29 -0.32,0.24 -0.46,0.28 -0.5,0.8 -0.03,0.39 -0,0.92 -0,1.33l-0.01 5.43c-0,0.69 0.02,0.57 0.31,1 0.31,0.47 0.15,0.68 0.39,1.06zm-16.31 -1c-0.1,-1.28 -0.1,-2.02 0.73,-1.96 0.15,0.42 0.16,1.22 0.13,1.75 -0.31,0.14 -0.43,0.21 -0.87,0.21zm-1.95 -0.68c-0.24,0.22 -0.47,0.23 -0.75,0.44l-0.03 4.63c0.5,-0.14 0.71,-0.57 1.44,-0.59 0.76,-0.02 0.93,0.47 1.31,0.76l0.02 -2.77c0.82,-0.46 2.47,-0.72 3.33,-1.14 0.75,-0.37 0.21,-3.32 -0.07,-3.83 -0.85,-1.56 -4.19,-0.07 -4.85,0.53 -0.56,0.52 -0.35,1.08 -0.4,1.98zm-4.64 -0.28l-0.02 1.44c0.5,0.03 0.38,-0.04 0.62,0.09 0.1,1.44 -0.01,3.22 0.01,4.71 0.02,1.56 -0.28,3.37 1.83,2.68 1.77,-0.58 0.67,-7.67 1.05,-8.41 0.26,-0.5 0.92,0.4 0.76,-1.83 -1.08,-0.2 -1.46,-0.06 -2.41,0.23 -1.62,0.49 -0.97,0.31 -1.36,0.78 -0.17,0.21 -0.24,0.16 -0.48,0.31zm-3.17 1.44l-0.23 -0.58c-0.5,0.09 -2.49,0.77 -2.84,0.99 0.04,1.18 0.99,-0.1 0.98,4.59 -0,0.81 0.03,1.91 -0.08,2.68 -0.12,0.82 -0.48,1.56 -0.38,2.42 0.55,0.08 1.89,-0.59 2.32,-0.8 0.25,-1.52 -0.13,-7.43 0.15,-8.06 0.04,-0.1 0.18,-0.29 0.27,-0.34 0.41,-0.23 0.32,-0.01 0.38,0.04 0.25,0.37 0.1,7.02 0.11,8.09 0.3,-0.01 2.6,-0.61 2.81,-0.94l-0.11 -7.54 -0.59 -0.02 -0.02 -1.99c-1.49,-0.3 -2.32,0.7 -2.76,1.46zm-6.18 4.81c-0.07,-0.61 -0.27,-2.1 0.7,-1.93 0.12,0.36 0.18,1.31 0.07,1.76 -0.33,0.17 -0.35,0.22 -0.78,0.17zm-1.93 -2.03c-0.24,0.4 -0.16,7.35 -0.1,8.37 0.25,-0.09 0.11,0.16 0.5,-0.73 0.19,-0.44 0.94,-2.29 1.17,-2.4l0.02 2.31c0.25,0.22 0.4,0.26 0.63,0.43 0.24,0.18 0.3,0.3 0.54,0.49 1.76,-0.28 3.25,-2.91 2.85,-5.2 -0.29,-0 -2.43,0.57 -2.64,0.93 -0.4,0.94 0.53,2.68 -0.96,2.66l-0.09 -3.02c0.97,-0.5 2.69,-0.83 3.7,-1.3 0.13,-1.38 0.16,-4.08 -1.54,-4.41 -0.69,-0.13 -2.21,0.02 -2.39,0.56 -0.21,0.67 0.2,0.57 -0.62,0.82 -0.54,0.17 -0.82,0.18 -1.07,0.49zm-5.25 1.13c0.71,0.03 1.08,-0.32 1.72,-0.4 0.23,1.77 -0.19,7.74 0.1,8.8 0.85,0.04 0.49,-0.28 1.49,0.16 0.42,0.18 1.06,-0.02 1.42,-0.3l0.02 -9.62c0.41,-0.35 1.31,-0.5 1.73,-0.69l0.01 -1.86c-0.97,-0.44 -1.25,-0.23 -2.16,0.09 -4.67,1.63 -4.52,0.72 -4.33,3.82zm-6.87 6.56c0.27,0.07 2.06,-0.68 2.11,-0.71 0.19,-1.73 -0.39,-3.08 0.72,-2.84 0.31,0.79 -0,1.91 0.19,2.8 0.77,0.3 1.07,0.13 1.74,0.7 0.64,0.55 0.51,1.08 0.9,1.54 0.28,-0.62 0.16,-3.71 0.13,-4.6 -0.14,-4.11 -4.16,-2.37 -5.42,-0.98 -0.91,1 -0.46,1.52 -0.37,4.1zm-0 3.95l0.04 1.11c0.84,0.32 0.74,0.29 1.48,-0.13 0.7,-0.4 1.09,-0.19 1.78,-0.38 0.9,-0.24 1.89,-1.2 2.08,-2.13 -1.1,0.51 -0.45,0.6 -2.2,0.65l-0.04 -0.73c-0.63,0.2 0.09,0.81 -0.88,0.8l-0.15 -0.85c-0.43,0.06 -2.11,0.76 -2.11,1.66zm-2.3 2.34c0.47,0.05 1.45,-0.34 1.88,-0.53l-0.01 -1.73c-0.47,0.17 -1.79,1.98 -1.87,2.25zm-3.5 -8.29l-0.03 3.33c3.15,0.1 0.71,-2.92 2.34,-2.85 0.37,0.49 0.29,1.84 -0.12,2.23 -2.18,2.08 -2.21,0.61 -2.21,3.75 0,0.98 -0.03,2.01 0.02,2.99 0.02,-0.02 0.05,-0.07 0.05,-0.06l1.26 -2.55c0.56,-1.05 0.24,-2.01 1.16,-2.69 0.14,0.23 0.02,0.43 0.2,0.65 0.5,-0.4 0.81,-0.8 1.28,-1.25 0.44,-0.42 0.99,-0.78 1.46,-1.18 0.08,-1.66 0.2,-3.9 -1.51,-4.03 -0.73,-0.05 -1.7,0.23 -2.3,0.51 -0.64,0.29 -1.06,0.81 -1.59,1.15zm1.12 -3.08c0.06,0.49 0.2,0.71 0.71,0.78 1.34,0.18 2.71,-0.18 3.12,-1.59 -0.59,0.26 -1.13,0.79 -1.99,0.44 -0.62,-0.25 -0.34,-0.58 -1.84,0.37zm-4.08 3.91l0.03 2.5c-0.4,-0.34 -0.62,-1.54 -0.86,-2.18 -0.5,-0 -2.82,0.68 -3.27,0.88 -0.07,1.61 -0.1,7.49 -0,9.86 0.5,-0.07 1.1,-0.32 1.58,-0.47 0.82,-0.26 0.94,-0.21 0.93,-1.17 -0.01,-1.34 -0.07,-2.9 0.03,-4.22 0.27,0.4 1.18,3.76 1.46,4.51 0.43,-0 2.29,-0.65 2.59,-0.85l0.02 -9.54 -2.5 0.68zm4.13 -23.15c-1.25,0.52 -1.49,4.22 -1.02,5.7 0.33,1.03 0.74,1.41 1.73,1.74 4.76,1.58 11.6,-4.32 12.33,-4.53 -0.11,0.48 -1.95,1.82 -2.12,2.11 2.25,-0.06 3.81,-1.75 5.17,-2.26 1.32,-0.5 2.32,0.57 3.12,0.06 0.26,-0.16 0.46,-0.68 0.9,-0.95 0.58,-0.36 1.1,-0.06 1.66,-0.28 0.45,-0.18 0.6,-0.46 1.24,-0.6 1.06,-0.23 3.27,0.42 5.02,-0.62 0.42,-0.25 0.66,-0.48 1.13,-0.72 0.32,-0.16 1.1,-0.35 1.27,-0.67 0.15,-0.28 0.73,-2.71 0.74,-3.03 -0.44,-0.03 -1.05,0.06 -1.41,-0.11 0.2,-0.52 1.09,-0.2 1.56,-0.48l1.02 -1.18c-2.28,-0.33 -3.52,-0.93 -6.13,-0.65 -3.86,0.42 -6.07,2.86 -9.06,4.75 -1.57,0.99 -3.88,3.1 -5.82,4.52 -0.71,0.52 -1.21,0.96 -2,1.49 -1.3,0.86 -2.76,1.96 -4.4,2.55 -2.06,0.75 -4,0.04 -4.96,-1.31 -1.28,-1.79 -0.35,-3.36 0.03,-5.53zm34.2 -1.16c0.54,0.02 2.78,-0.4 1.98,-2.28 -0.19,-0.44 -0.54,-0.57 -1.11,-0.53 -0.18,0.32 -0.87,2.49 -0.87,2.81zm-47.97 -15.9c-0.85,-0.19 -0.9,0.01 -1.52,0.39 -0.98,0.6 -1.77,1.17 -2.01,2.39 -0.17,0.86 -0.34,1.54 0.63,1.45 0.34,-0.45 0.04,-0.72 0.55,-0.99 0.16,0.55 0.01,1.17 0.35,1.82 0.82,1.56 2.31,0.3 1.44,-0.62 -0.38,-0.4 -0.65,-0.86 -0.36,-1.57 0.34,0.32 0.32,1.41 1.58,1.78 1.22,0.36 3.59,-0.67 1.91,-1.81l-0.83 -0.41c-1,-0.19 -0.1,1.33 -0.06,1.49 -2.03,0.04 -0.65,-2.83 0.9,-3.15 -0.16,0.66 -0.75,0.67 -0.71,1.32 1.53,0.1 4.29,-2.61 0.7,-2.11 -0.7,0.1 -1.13,0.31 -1.78,0.47 0.3,-1.71 0.59,-4.07 2.19,-5.48 2.34,-2.04 4.57,-1.32 4.97,-1.58 0.72,-0.48 -0.8,-1.17 -3.39,-0.22 -2.8,1.03 -4.27,3.6 -4.57,6.82zm36.36 -9.92l0.18 0.02c-0.3,0.22 -1.04,0.91 -1.17,1.22 0.35,-0.13 1.68,-1.11 1.88,-1.42 0.74,-0.22 1.56,-1.31 2.4,-1.01 0.65,0.23 2.12,0.65 2.42,1.16 -0.27,0.1 -0.32,-0.01 -0.62,-0.1 0.19,0.55 0.91,0.8 0.92,1.52 -0.68,-0.03 -2.26,-2.04 -3.6,-1.45 -0.4,0.18 -2.47,2.11 -2.62,2.48 0.8,-0.07 1.08,-0.2 2.04,-0.16 0.39,0.01 1.89,0.03 2.13,0.08 0.78,0.17 2.22,1.67 2.6,1.84 -0.11,-1.16 -0.95,-1.32 -1.12,-1.83 0.82,-0.02 1.74,1.67 2.16,2.5 1.17,2.32 -0.09,1.93 0.11,3.67 0.13,-0.17 0.35,-0.82 0.58,-0.94 0.4,0.64 -2,3.94 -2.34,4.38 -0.91,1.18 -1.48,1.72 -2.59,2.63 -0.33,0.27 -0.68,0.43 -0.85,0.83 0.76,-0.08 1.07,-0.39 1.73,-0.56 -0.34,0.81 -1.62,0.63 -2.15,1.21 0.57,-0.05 1.56,-0.39 1.98,-0.14 -1.26,0.78 -4.1,0.67 -5.74,0.46 -0.58,-0.08 -1.35,-0.35 -1.82,-0.35 -0.42,0.59 -0.91,1.54 -1.73,1.51 0.15,-0.59 0.65,-0.64 0.8,-1.17 -0.32,0.15 -0.43,0.36 -0.92,0.45 0.16,-0.48 1.08,-0.78 1.78,-1.97 0.17,-0.28 0.32,-0.6 0.16,-0.83 -0.61,1.02 -1.02,1.87 -1.88,2.22 0.13,-0.42 1.69,-2.1 1.96,-3.25 -0.41,0.21 -0.78,1.89 -1.62,2 0.14,-0.67 1.52,-2.12 1.44,-2.72 -0.15,-1.12 -2.05,-0.82 -2.78,-0.13 -0.58,0.54 -1.52,1.57 -0.83,2.69 0.43,0.69 1.21,2.06 0.94,2.94 -0.45,-0.16 -0.21,-0.36 -0.61,-0.83 -0.35,0.17 -0.58,0.35 -0.75,0.64 0.55,0.37 0.48,0.27 0.56,0.61 -0.49,-0.07 -1.22,-0.44 -1.65,-0.43 -0.43,0 -0.33,0.14 -0.88,0.09 -1.49,-0.12 -2.76,-0.46 -4.65,-0.5 -3.84,-0.09 -5.74,1.68 -6.28,1.71 -0.07,-0.67 1.27,-0.7 1.57,-1.24 -1.02,0.19 -1.68,0.84 -2.5,1.14 0.32,-0.75 1.86,-1.1 2.42,-1.47 -0.11,-1.07 -0.65,-2.07 -0.5,-3.47 0.05,-0.47 0.12,-0.39 0.33,-0.69 0.37,-0.54 0.24,-1.82 1.11,-1.9l-0.21 0.61c0.69,-0.9 0.73,-1.08 1.69,-1.76 0.43,-0.3 1.83,-1.1 2.05,-1.37 -0.66,-0.36 -1.74,-0.28 -2.38,-0.73 0.15,-0.2 0.25,-0.15 0.47,-0.29 -0.33,-0.14 -1.62,-0.79 -1.85,-1.15 0.39,-0.2 0.71,0.3 1.13,0.33 0.37,0.02 0.19,-0.17 0.73,0.06 0.15,0.06 0.34,0.2 0.53,0.3 2.24,1.15 6.88,0.66 8.47,-0.56 -0.02,-0.54 -0.49,-1.27 -0.74,-1.64 -0.93,-1.37 -0.85,-0.78 -1.1,-1.25 0.78,-0.1 0.88,0.29 1.19,0.75 0.28,0.42 0.48,0.74 0.77,1.13 0.25,-0.01 0.12,-0.03 0.16,-0.44 0.04,-0.44 0.14,-1.23 0.54,-1.43 0.31,0.46 -0.15,0.66 -0.14,1.22 0.01,0.52 -0.02,0.31 0.19,0.42 -0.06,-1.11 0.5,-3.12 1.43,-3.51 -0.03,0.55 -0.8,4 -0.35,5.02 0.23,-0.15 1.29,-2.64 2.32,-4.01 0.59,-0.8 2.32,-2.76 3.12,-3.11zm-20.12 16.94c-1.19,-0.18 -0.74,-2.82 -0.29,-3.68 0.27,-0.52 0.27,-0.17 0.6,-0.63l1.37 -2.14c0.02,0.04 0.15,0.08 0.01,0.44 -0,0.01 -0.18,0.33 -0.19,0.34l-0.96 2.32c-0.19,0.63 -0.29,1.31 -0.22,2.05 0.08,0.86 0.39,1.08 0.59,1.68 -0.66,-0.07 -0.84,-0.67 -0.98,-1.59 -0.14,-0.95 0.06,-1.49 0.12,-2.35 -0.22,0.2 -0.28,0.44 -0.35,0.77 -0.33,1.45 -0.04,1.86 0.3,2.78zm28.78 -9.88c-0.45,-0.2 -0.25,0.02 -0.36,-0.23 0,-1.08 -0.24,-1.54 -0.67,-2.34 -0.16,-0.31 -0.91,-1.58 -0.8,-1.85 0.37,0.12 0.11,-0.08 0.38,0.33l0.74 1.31c0.59,1.11 0.64,1.74 0.84,1.98 0.06,-0.73 -0.39,-1.79 -0.22,-2.07 0.63,0.53 1,3.82 0.1,4.15 -0.13,-0.27 0.12,-0.8 0.15,-1.21l-0.18 -0.08zm-28.95 -1.38c-1.87,0.26 -3.35,-0.09 -4.34,1.25 0.26,0.99 1.34,1.72 1.61,2.11 1.02,1.5 -2.58,3.41 -0.9,5.21 0.48,0.52 1.59,1.29 1.26,2.29 -0.5,1.51 -0.94,2.77 0.47,4.07 0.42,0.38 1.81,0.21 3.2,0.48 2.27,0.44 1.19,0.86 4.09,-0.79 4.27,-2.41 5.32,-1.66 8.94,-2.1 3.99,-0.48 6.32,-0.65 10.5,-0.1 1.12,0.15 2.14,0.27 3.2,0.5 0.99,0.22 2.08,0.65 2.97,0.79 -0.42,-0.63 -2.21,-1.58 -2.42,-2.1 0.99,-0.05 2.67,1.53 3.25,2.02 0.53,0.45 2.64,2.18 2.39,2.88l-1.47 0.18c0.31,0.25 2.19,0.4 2.43,0.17 0.08,-0.08 0.19,0.16 0.1,-0.33 -0.04,-0.23 -1.49,-2.2 -1.63,-2.37 -0.82,-1.07 -2.15,-2.24 -2.25,-2.41 1.62,0.34 2.63,2.09 3.1,2.46 0.28,-0.3 0.41,-1.08 0.38,-1.6 -0.07,-1.32 -1.38,-1.02 -0.21,-3.02 0.55,-0.94 -0.26,-2.16 -0.79,-2.93 -0.6,-0.86 0.41,-2.6 0.63,-3.28 0.08,-0.25 0.11,-0.58 0.16,-0.86 0.24,-1.43 0.79,-0.14 -0.55,-2.04 -1.48,-2.1 0.64,-3.28 -0.37,-4.74 -0.46,-0.67 -1.37,-1.44 -1.71,-2.18 -0.72,-1.59 1.68,-3.98 -0.24,-4.48 -2.22,-0.58 -3.32,0.82 -4.22,1.44 -1.33,0.92 -2.08,-0.32 -3.1,-0.25 -0.71,0.05 -2.18,0.92 -2.75,1.26 -1.09,0.65 -1.74,0.74 -3.3,0.58 -1.35,-0.13 -2.07,-1.02 -3,0.18 -1.75,2.26 -2.69,2.88 -5.08,2.37 -2.8,-0.6 -2.19,2.6 -5.02,2.69 -1.75,0.06 -1.93,-0.25 -3.34,0.65 -0.88,0.56 -1.47,1.09 -1.99,1.98z"/>
   <path class="fil2" d="M39.35 61.93c-0.13,-0.3 -0.1,-0.6 0.29,-0.7 0.06,0.37 0.05,0.53 -0.29,0.7zm2.97 -0.94c-0.01,-0.02 -0.21,0.14 -0.03,-0.33 0.13,-0.36 0.1,-0.2 0.3,-0.33 -0.03,0.49 0.02,0.4 -0.27,0.67zm5.53 -0.63c-0.17,-0.48 0.88,-2.18 1.21,-2.42 -0.03,0.79 -0.74,2.04 -1.21,2.42zm4.5 -2.36c-0,-0 -0.36,-0.2 0.2,-0.69 0.16,0.28 0.03,0.49 -0.2,0.69zm-23.07 5.03c-0.12,0.52 0.08,0.99 -0.19,1.3 -0.1,0.12 -0.33,0.23 -0.52,0.3 -0.5,0.2 -0.3,-0.11 -0.53,0.34 0.32,0.17 0.08,-0.06 0.17,0.32 0.11,0.5 -0.12,1.01 -0.16,1.49 0.59,-0.32 0.8,-1.25 1.63,-1.64l0.02 0.85c0.61,0.04 0.38,-0.17 0.81,-0.37 -0.03,0.23 -0.43,1.56 -0.54,1.76 -0.14,0.25 -0.71,0.44 -1.44,0.91 -2.22,1.42 -8.93,4.7 -9.9,0.82 -0.78,-3.1 2.84,-7.51 5.29,-8.81 2.48,-1.31 3.76,1.25 3.69,-0.33 -0.08,-1.8 -2.84,-2.07 -5.88,0.6 -5.66,4.98 -6.36,14.42 4.59,9.41 0.72,-0.33 2.79,-1.56 3.27,-1.68 -0.01,0.99 -1.49,4.06 -1.5,4.78 -0.01,0.46 -0.04,0.19 0.12,0.38 0.98,0.79 1.3,-1.15 1.5,-1.87 0.4,-1.46 1.75,-7.21 2.84,-7.92 -0.11,0.5 -0.54,1.25 -0.3,1.74 0.02,0.01 0.07,-0 0.08,0.03 0.01,0.03 0.06,0.02 0.08,0.02 0.24,0.01 -0.09,0.07 0.23,-0.01 1.02,-0.23 1.42,-1.57 2.07,-2.18 -0.03,0.74 -0.39,1.18 -0.16,1.99 0.48,-0.05 0.84,-0.93 1.1,-1.32 0.35,-0.52 0.7,-0.92 1.05,-1.39 0.4,0.14 0.08,0.33 0.68,0.29 0.26,-0.02 0.48,-0.22 0.75,-0.32 0.08,0.87 -0.17,1.3 0.31,1.91 1.42,0.22 2,-1.79 2.62,-2.1 0.01,0.68 0.01,0.76 0.3,1.21 1.26,0.09 1.38,-0.89 2.02,-1.3 -0.01,0.04 -0.07,0.27 -0.07,0.29 0,0.07 -0.09,0.15 0.12,0.4 0.46,-0.09 0.51,-0.41 0.78,-0.77 0.31,-0.41 1.78,-2.63 2.12,-2.67l0.17 1.43c0.38,0.03 0.3,-0.05 0.59,-0.02 0.85,0.07 0.83,0.24 1.68,-1.13 0.29,-0.47 0.47,-1.12 0.78,-1.46 0.01,0.94 -0.49,2.32 0,3.13 0.51,-0.09 0.86,-0.89 1.09,-1.32l0.46 -0.18c0.12,0.36 0.3,0.73 0.83,0.56 0.41,-0.13 0.86,-0.59 1.09,-0.87 0.38,-0.46 1.27,-2.09 1.67,-2.39 -0.15,0.78 -0.41,1.14 -0.23,2 0.43,-0.06 0.44,-0.23 0.66,-0.59 0.47,-0.77 0.98,-1.53 1.6,-2.19l0.31 0.37c1.11,-0.07 2.67,-2.17 2.33,-2.5 -0.55,-0.35 -0.85,1.58 -1.8,1.79 0.03,-0.33 0.26,-0.65 0.44,-0.95 0.2,-0.34 0.54,-0.72 0.22,-1.03 -0.73,-0.58 -1.74,1.38 -2.21,1.69 0.1,-0.7 1.04,-2 0.7,-2.54 -0.83,-0.34 -1.09,0.66 -1.36,1.27 -0.54,1.21 -2.39,4.97 -3.4,5.25 -0.22,-0.5 -0.12,-0.85 0.35,-1.12 0.47,-0.27 0.6,-0.44 0.88,-0.86 0.47,-0.69 0.91,-1.83 0.5,-2.71 -2.5,-0.29 -2.12,3.85 -3.62,4.83 0.09,-1.11 0.6,-2.88 0.91,-3.94l0.89 -2.8c0.12,-0.33 0.31,-0.73 0.08,-0.97 -0.92,-0.61 -1.19,0.88 -1.36,1.52 -1.3,4.6 -1.32,2.22 -2.26,3.9 -0.21,0.38 -0.35,0.71 -0.51,1.03 -0.09,0.18 -0.16,0.32 -0.24,0.47 -0.01,0.02 -0.15,0.25 -0.15,0.26 -0.24,0.31 -0.02,0.07 -0.23,0.23 0.04,-0.6 0.39,-1.71 -0.47,-1.67 -0.5,0.02 -0.62,0.52 -1.06,0.78 0.1,-0.36 0.23,-0.43 0.24,-0.77l-0.05 -0.25c-0.1,-0.44 -0.9,-0.35 -1.24,0.9 -0.26,0.93 -1.86,4.23 -2.73,4.2 -0.31,-1.08 0.69,-1.17 1.25,-1.98 0.37,-0.54 1.06,-1.9 0.51,-2.65 -1.35,-0.54 -2.01,1.59 -2.45,2.56 -0.38,0.84 -1.6,2.86 -2.24,2.94 -0.26,-1.16 0.78,-1.14 1.31,-2.03 0.49,-0.81 0.88,-1.85 0.43,-2.66 -2.22,-0.26 -1.81,2.99 -3.05,3.05 0.09,-0.34 0.27,-0.62 0.45,-0.93 0.23,-0.41 0.48,-0.64 0.23,-0.99 -0.87,-0.57 -1.63,1.4 -2.22,1.62 0.15,-0.61 0.83,-1.75 0.73,-2.39 -1.09,-0.46 -1.41,1.2 -1.98,2.32 -0.35,0.68 -1.23,2.45 -1.72,2.73 0.27,-0.78 1.32,-1.89 0.99,-2.84 -1,-0.43 -1.48,0.79 -1.94,1.31 0.05,-0.7 0.42,-1.3 0.36,-1.88 -0.88,-0.12 -0.94,2.06 -1.58,2.93 -0.75,-0.41 -0.21,-0.8 -1.56,-0.08 0.04,-0.47 0.12,-0.56 -0.12,-0.86z"/>
   <path class="fil3" d="M39.05 14.58c0.54,-0.09 1.19,-0.02 1.64,0.22 0.63,0.34 0.62,0.64 0.37,1.41 -0.35,1.09 -0.94,1.88 -2.23,1.87 -1.29,-0.01 -2.31,-0.54 -2.22,-1.83 0.08,-1.17 1.38,-1.5 2.44,-1.68zm-1.35 8.12c1.06,0.77 3.51,-0.03 4.59,-0.43 1.23,-0.45 2.38,-1.64 3.15,-2.38 1.47,-1.41 2.84,-3.36 2.56,-5.76 -0.15,-1.28 -0.11,-1.12 -0.75,-2.01 -0.83,-1.15 -1.65,-1.77 -3.55,-2.08 -1.53,-0.25 -3.53,-0.16 -4.36,0.89 -0.83,1.05 -1.61,2.06 -2.46,3.17 -0.24,0.31 -0.35,0.48 -0.5,0.95 -0.29,0.92 -1.24,1.37 -1.13,2.92 0.71,-0.1 0.91,-0.51 1.77,-0.02 0.53,0.3 0.42,0.46 1,0.67l0.3 0.1c0.09,-0.16 0.5,0.79 0.34,2.33 -0.14,1.33 -0.78,0.48 -0.97,1.65z"/>
   <path class="fil4" d="M12.12 37.52c-0.62,-1.92 0.33,-5.9 1.67,-7.22 0.54,-0.53 0.55,-0.26 0.74,-0.77 -2.12,-0.3 -3.18,0.18 -4.38,1.21 -0.81,0.7 -2.14,1.87 -2.32,3.51 -0.19,1.76 0.12,3.49 0.92,4.72 0.87,1.34 2.5,2.26 3.79,1.42 0.88,-0.57 1.87,-2.24 2.5,-3.34 0.48,-0.83 1.8,-2.86 2.37,-3.47 1.26,-1.32 3.79,-2.62 5.76,-2.94 0.76,-0.12 1.85,-0.11 2.43,-0.49 -0.78,-0.51 -8.16,-2.44 -9.66,-0.7l-1.35 1.62c-2.47,3.27 -2.01,5.94 -2.45,6.44z"/>
   <path class="fil2" d="M53.09 39.56c-0.12,-0.49 0,-1.01 0.15,-1.44 0.18,-0.52 0.28,-0.85 0.65,-1 0.23,0.41 0.03,1.02 -0.11,1.43 -0.15,0.43 -0.28,0.89 -0.68,1.01zm14.93 -7.85c-0.23,0.25 -0.19,0.17 -0.25,0.68 -0.47,0.22 -0.8,0.49 -1.33,0.55l0.08 -0.39c-0.23,0.22 -0.19,0.28 -0.32,0.63 -0.19,0.52 -0.58,1.44 -0.94,1.78 -0.04,-0.64 0.31,-1.74 0.21,-2.22 -0.07,-0.31 -0.79,-1.02 -1.2,0.46 -0.19,0.67 -0.3,1.25 -0.52,1.93 -0.1,0.32 -0.21,0.58 -0.34,0.88 -0.06,0.14 -0.12,0.29 -0.19,0.42 -0.18,0.33 -0.09,0.23 -0.34,0.41 0.03,-1.2 1.21,-3.66 1.03,-4.39 -0.74,-0.33 -1.06,0.14 -1.24,0.76 -0.2,0.7 -0.38,1.06 -0.68,1.59 -0.33,0.57 -1.48,2.47 -2,2.5 -0.13,-1.15 0.86,-3.48 1.85,-3.97 0.32,-0.16 0.45,-0.17 0.59,-0.45 0.53,-1.06 -0.88,-2.01 -2.34,1.04 -0.44,0.92 -0.81,2.57 -1.27,3.21 -0.2,-0.29 -0.01,-0.81 0.05,-1.16 0.09,-0.5 0.2,-0.85 0.05,-1.29 -1.21,-0.51 -1.17,0.88 -1.44,1.85 -0.21,0.78 -0.65,2 -1.01,2.56 -0.14,-0.18 -0.05,0.08 -0.08,-0.22 -0.04,-0.35 0.37,-1.7 0.47,-2.04 0.21,-0.67 0.73,-1.65 0.51,-2.23 -1.62,-0.56 -0.95,1.93 -2.24,2.8 -0.14,-0.23 0.29,-1.57 -0.11,-2.5 -1.9,-0.35 -3.18,4.3 -2.45,5.4 0.89,0.17 1.33,-0.53 1.65,-1.09 0.68,-1.21 0.16,-0.53 1.07,-1.08 0.29,-0.17 0.1,-0.14 0.49,-0.31 -0.06,0.79 -0.25,1.62 0.05,2.3 1.13,0.11 1.53,-1.53 2.06,-2.25 0.02,0.02 0.04,0.02 0.05,0.06 0.04,0.2 0.27,0.37 0.55,0.33 0.32,-0.04 0.41,-0.28 0.64,-0.5 0.27,0.11 0.79,1.31 2.51,-1.28 0.28,-0.43 0.33,-0.71 0.68,-0.99 -0.03,0.75 -0.32,1.75 0,2.35 0.96,0.3 1.78,-1.35 2,-2.16 0.55,0.21 0.53,1.02 1.35,-0.18 0.32,-0.46 0.5,-1.05 0.8,-1.49 0.09,0.72 -0.29,1.45 -0.18,2.2 0.57,-0.02 0.58,-0.21 0.81,-0.71 0.18,-0.38 0.33,-0.63 0.54,-1 0.41,-0.7 0.79,-1.22 1.23,-1.83 0.2,0.33 -0.01,0.25 0.29,0.57 0.5,-0.01 0.59,-0.21 1.07,-0.36 -0.06,0.66 -0.3,1.45 0.06,1.91 0.63,0.27 1.24,-0.81 1.4,-1.37 0.95,0.25 0.64,0.51 1.58,-1.58 0.19,-0.43 0.37,-0.81 0.57,-1.27 0.11,-0.24 0.19,-0.42 0.29,-0.64 0.1,-0.21 0.27,-0.52 0.06,-0.7 -0.47,-0.42 -0.74,0.73 -1.26,1.55 -0.17,-0.24 -0.13,-0.25 -0.32,-0.46 -0.87,0.04 -0.88,0.8 -1.06,1.54 -0.14,0.56 -0.42,1.68 -0.77,1.99 -0.01,-1.28 0.98,-3.4 1.88,-4.25 0.41,-0.39 0.78,-0.67 0.49,-1.46 -0.96,-0.33 -1.59,1.08 -1.92,1.76 -0.41,0.85 -0.65,2.2 -1.55,2.45 0.17,-1.09 1.01,-1.7 0.91,-2.36 -0.04,-0.28 -0.24,-0.55 -0.55,-0.46 -0.26,0.08 -0.85,0.97 -1.03,1.21 -1.13,1.49 -0.85,1.21 -0.96,0.97z"/>
   <path class="fil2" d="M11.19 53.72c-0.18,-0.56 0.09,-1.44 0.35,-2.01 0.19,-0.41 0.14,-0.4 0.47,-0.44 0.15,0.44 -0.02,0.97 -0.14,1.39 -0.16,0.53 -0.31,0.9 -0.68,1.06zm14.88 -7.84c-0.24,0.23 -0.18,0.31 -0.25,0.57 -0.05,0.19 0.09,0.11 -0.21,0.38 -0.23,0.21 -0.58,0.3 -1.04,0.36l-0.03 -0.26 -0.29 0.5c-0.21,0.48 -0.52,1.36 -0.91,1.64 0.01,-0.61 0.46,-2.01 0.15,-2.42 -1.26,-1.32 -1.39,3.53 -2.49,4.32 0.04,-1.75 1.33,-3.86 0.99,-4.34 -0.6,-0.63 -1.1,0.23 -1.22,0.67 -0.38,1.41 -1.97,3.94 -2.66,4.12 -0.22,-0.97 0.65,-2.57 1.04,-3.17 0.49,-0.74 0.46,-0.54 1.15,-1 1.19,-0.8 -0.54,-2.83 -2.22,0.96 -0.39,0.88 -0.63,2.52 -1.25,3.07 0,-0.69 0.5,-1.9 0.11,-2.47 -0.47,-0.36 -0.9,0.1 -1.04,0.51 -0.14,0.41 -0.22,0.96 -0.35,1.39 -0.28,0.97 -0.62,1.69 -0.95,2.51 -0.05,-0.06 -0.17,-0.02 -0.12,-0.49l0.46 -1.72c0.2,-0.61 0.65,-1.61 0.57,-2.23 -1.57,-0.7 -1.05,1.95 -2.35,2.76 -0.05,-0.91 0.33,-1.4 0.02,-2.48 -1.83,-0.65 -3.21,3.93 -2.52,5.39 0.98,0.1 1.33,-0.57 1.69,-1.22 0.55,-1 0.45,-0.65 1.1,-1.06 0.18,-0.12 0.2,-0.16 0.38,-0.27 0.05,0.75 -0.27,1.63 0.06,2.3 1.1,0.22 1.56,-1.58 2.12,-2.22 0.02,0.01 0.04,0.02 0.05,0.05l0.36 0.42c0.47,-0.09 0.52,-0.3 0.82,-0.57 0.34,0.18 0.36,0.63 1.13,0.21 0.85,-0.46 1.39,-1.86 2.01,-2.54 0.04,0.76 -0.34,1.73 -0.04,2.39 1.1,0.32 1.65,-1.26 2.12,-2.12l0.45 0.3c0.17,0.05 -0.02,0.07 0.25,0.02 0.56,-0.11 1.19,-1.56 1.35,-2.1 0.07,0.12 0.05,0.02 0.07,0.25l-0.11 0.88c-0.07,0.42 -0.19,0.79 -0.05,1.13 0.52,0.01 0.5,-0.2 0.74,-0.65 0.21,-0.39 0.32,-0.61 0.54,-1 0.4,-0.7 0.84,-1.22 1.13,-1.83 0.44,0.26 0.09,0.51 0.62,0.49 0.21,-0.01 0.61,-0.31 0.89,-0.4 -0.08,0.67 -0.35,1.4 -0.03,1.98 0.79,0.34 1.17,-0.87 1.53,-1.39 0.58,0.28 0.6,0.49 0.94,-0.3 0.29,-0.68 2.34,-4.62 1.11,-3.83 -0.22,0.14 -0.5,0.88 -0.84,1.34l-0.19 -0.14c-0.83,-0.54 -1.04,0.61 -1.17,1.23 -0.16,0.74 -0.45,1.69 -0.86,2.13 0.06,-1.22 0.92,-3.23 1.82,-4.17 0.3,-0.32 0.91,-0.68 0.69,-1.29 -0.43,-1.2 -1.68,0.78 -1.99,1.43 -0.48,0.99 -0.67,2.26 -1.6,2.58 0.14,-0.74 1.72,-3.27 0.28,-2.79 -0.23,0.07 -1.75,2.19 -1.93,2.5l-0.03 -0.33z"/>
   <path class="fil3" d="M31.08 17.65c4.08,-0.75 2.02,4.2 -0.55,4.93 -1.05,0.3 -1.32,-0.05 -1.78,-0.64 -0.47,-0.6 -0.83,-0.91 -0.4,-1.83 0.63,-1.34 1.17,-2.17 2.73,-2.46zm2.46 5.67c-0.49,-1.29 -1.11,-1.31 -0.44,-2.89 1.06,-2.5 1.02,-1.76 1.63,-2.23 0.07,-0.81 0.01,-1.12 -0.42,-1.51 -1.18,-1.08 -1.79,-0.75 -2.89,-0.5 -2.22,0.5 -3.24,-0.54 -5.44,0.82 -0.91,0.57 -1.62,1.1 -2.29,1.8 -0.5,0.52 -1.24,1.87 -1.49,2.72 -0.27,0.94 -0.09,2.91 0.79,2.98 -0.15,-0.88 -0.69,-0.24 -0.65,-2.57l0.15 0.45c0.01,0.05 0.01,0.28 0.02,0.38 0.06,0.63 0.4,1.59 1.09,1.66 0.48,0.05 1.09,-0.19 1.56,-0.28 0.58,-0.11 1.12,-0.09 1.71,-0.08 1.24,0.02 2.34,0.05 3.58,0.19 1.92,0.21 1.33,-0.53 2.61,-0.9 -0.15,0.32 0.01,0.14 -0.49,0.53 -0.22,0.17 -0.26,0.18 -0.39,0.5 0.48,-0.15 1.15,-0.67 1.37,-1.07z"/>
   <path class="fil2" d="M45.21 45.08c0.61,0.09 6.46,-1.73 7.53,-2.05 1.19,-0.35 2.49,-0.72 3.7,-1.07 0.99,-0.29 3.3,-0.64 2.7,-1.99 -0.39,-0.46 -0.77,-0.2 -1.31,-0l-7.02 2.49c-0.7,0.24 -2.19,0.87 -2.89,0.96 0.2,-1.12 0.86,-2.84 1.22,-3.95 0.43,-1.34 0.82,-2.55 1.24,-3.89 0.41,-1.32 0.81,-2.58 1.23,-3.88 0.13,-0.4 0.59,-1.61 0.49,-2 -0.25,-0.96 -1.16,-0.16 -1.37,0.39 -0.55,1.41 -2.64,10.8 -3.36,13.22 -0.15,0.51 -0.22,0.45 -0.71,0.62 -0.58,0.21 -1.68,0.33 -1.45,1.16z"/>
   <path class="fil5" d="M53.8 60.16c-0.51,0.33 0.05,1.23 0.26,1.57 1.46,2.42 6.83,2.91 8.02,0.07 0.21,-0.5 0.8,-3.41 0.8,-4 -0.26,0.18 -0.55,0.6 -1.04,0.7 -0.76,0.16 -0.84,-0.21 -1.4,-0.26 -0.43,0.66 -0.66,1.13 -1.83,1.01 -0.85,0.03 -0.45,0.63 -0.89,1.26 -0.29,0.41 -0.87,0.61 -1.46,0.55 0.13,-0.48 0.28,-1.06 0.43,-1.57 0.15,-0.52 0.43,-1.04 0.47,-1.63l-0.27 -0.03c-0.07,0.85 -0.43,2.69 -0.96,3.05 -0.51,-0.13 -0.4,-0.47 -0.72,-0.86 -0.44,0.03 -1.08,-0.03 -1.41,0.13z"/>
   <path class="fil2" d="M17.16 54c-0.54,-0.36 -1.9,0.33 -2.85,0.66l-5.46 1.93c-0.84,0.29 -1.98,0.79 -2.82,0.95 0.17,-0.94 2.87,-9.14 3.39,-10.73 0.19,-0.6 0.36,-1.17 0.56,-1.79 0.29,-0.9 0.49,-0.97 -0.09,-1.65 -1.2,0.03 -1.3,1.75 -1.75,3.49 -0.75,2.89 -1.87,7.9 -2.63,10.46 -0.23,0.77 -0.87,0.74 -1.63,1.02 -0.79,0.29 -1.09,1.17 0.21,0.76 0.7,-0.22 1.36,-0.4 2.07,-0.61l8.16 -2.37c0.87,-0.25 4.02,-0.94 2.84,-2.13z"/>
   <path class="fil3" d="M23.38 37.85c-0.35,-0.25 -1.31,-2.81 -1.74,-3.37 -0.61,0.12 -1.99,1.32 -2.42,1.77 -0.85,0.89 -1.12,1.49 -0.4,2.88 1.24,2.41 3.77,1.55 5.9,0.58 -0.04,-0.6 -2.55,-5.41 -2.77,-5.63 -0.04,1.2 1.67,3.28 1.42,3.76z"/>
   <path class="fil3" d="M22.43 33.76c0.08,0.86 1.47,3.29 2,4.17 0.3,0.49 0.43,0.99 0.69,1.42 0.63,-0.17 2.03,-1.52 2.79,-1.88 -0.04,-0.81 -1.2,-2.31 -1.42,-3.35 0.33,0.15 0.33,0.23 0.51,0.63 0.11,0.25 0.22,0.51 0.34,0.77 0.18,0.39 0.45,1.14 0.75,1.38 0.21,-0.3 -0.6,-1.62 -0.93,-2.43 -0.34,-0.84 -0.6,-1.89 -0.93,-2.64 -1.08,-0.02 -3.26,1.36 -3.81,1.92z"/>
   <path class="fil6" d="M36.81 66.92l-4.55 1.31c-1.04,0.3 -1.09,0.59 -1.17,1.76 -0.11,1.45 0.38,3.84 2.47,2.61 1.61,-0.95 3.23,-4.63 3.25,-5.67z"/>
   <path class="fil3" d="M31.9 34.16l-0.29 -0.23c-0.32,-0.28 -0.18,-1.49 -0.14,-1.92 0.08,-0.87 0.57,-0.57 0.43,-1.27 -0.48,0.09 -0.99,0.03 -1.48,0.11 -0.88,0.16 -3.22,0.54 -3.77,0.86 0.02,0.62 1.6,4.43 1.96,5 0.4,-0.1 1.33,-0.93 1.71,-1.25 0.35,-0.28 1.42,-1.06 1.58,-1.3z"/>
   <path class="fil3" d="M35.04 27.9l-0.23 -0.69c-0.07,-0.1 -0.22,-0.15 -0.39,-0.31l0.08 -1.04 -3.36 0.4c-0.14,0.45 -0.98,3.86 -0.98,4.09l5.05 -0.28 -0.18 -2.17z"/>
   <path class="fil2" d="M37.2 43.65c-0.07,-0.11 -0.19,0.18 -0.11,-0.46 0.01,-0.1 0.16,-0.6 0.45,-0.67 0.09,0.45 -0,0.83 -0.34,1.13zm-0.95 3.22c1.47,0.13 2.87,-2.98 3.55,-4.38 0.23,-0.47 0.8,-1.36 0.66,-1.95 -0.81,-0.07 -0.95,1.2 -1.72,2.73 -0.36,0.72 -1.35,2.59 -1.95,2.68 -0.46,-0.92 0.2,-1.3 0.54,-1.52 0.45,-0.29 0.76,-0.8 0.99,-1.36 0.29,-0.69 1.21,-3.73 -0.45,-3.13 -1.25,0.46 -2.84,5.32 -1.62,6.93z"/>
   <path class="fil3" d="M38.09 29.9c0.28,-0.01 2.22,-1.45 3.26,-1.93 0.43,-0.2 0.96,-0.33 1.17,-0.66 -0.26,-0.49 -0.33,0.08 -0.66,-0.85 -0.55,-1.54 -0.22,-0.99 -3.43,-0.99 -0.73,-0 -1.02,-0.15 -0.89,0.54 0.09,0.46 0.3,0.8 0.23,1.26 -0.1,0.75 0.02,1.81 0.32,2.63z"/>
   <path class="fil3" d="M24.53 42.13c0.97,0.24 1.4,-1.16 2.94,-0.29 0.93,0.53 2.05,-0.38 2.74,-0.63 0.6,-0.21 1.11,-0.04 1.71,-0.14 0.44,-0.08 0.98,-0.27 1.44,-0.41 0.53,-0.16 2.51,-0.63 2.89,-0.87l-0.04 -0.79c-0.38,-0.02 -0.67,0.39 -1.47,0.43 -0.56,0.03 -1.28,-0.07 -1.81,-0.19 -1.05,-0.23 -0.58,-0.2 -1.87,0.25 -0.03,0.01 -0.05,0.02 -0.08,0.03l-0.25 0.17c-0.39,0.35 0.04,0.15 -0.65,0.34 -0.54,0.15 -0.94,0.38 -1.55,0.32 -1.77,-0.17 -0.63,-0.16 -2.86,0.9 -0.5,0.24 -1.14,0.29 -1.13,0.87z"/>
   <path class="fil3" d="M23.99 67.57c-0.32,-0.6 0.25,-1.77 0.8,-1.87 0.05,0.45 -0.01,0.73 -0.18,1.14 -0.16,0.38 -0.22,0.61 -0.62,0.73zm4.04 -2.6c0.24,-0.45 0.04,-0.14 0.53,-0.34 0.19,-0.07 0.42,-0.19 0.52,-0.3 0.27,-0.31 0.07,-0.78 0.19,-1.3 -0.04,-0.23 0.12,-0.09 -0.19,-0.18 -0.13,-0.04 -0.19,-0.02 -0.33,0.02 -0.24,0.06 -0.4,0.2 -0.51,0.32 -0.62,0.6 -0.59,0.24 -1.05,0.59 -0.63,0.47 -0.35,1.58 -1.38,2.04 0.02,-0.65 0.21,-1.23 0.01,-1.84 -0.86,-0.27 -1.59,0.66 -1.9,1.34 -1.48,3.15 -0.02,3.46 0.98,2.11 0.39,-0.53 0.43,-0.84 1.25,-0.99 -0.04,0.53 -0.25,0.98 -0.27,1.16 -0,0.01 -0.06,0.16 0.06,0.39 0.48,-0.11 0.66,-0.73 1.12,-1.47 0.29,-0.47 0.82,-1.12 0.97,-1.53z"/>
   <path class="fil3" d="M42.17 37.51c0.26,-0.57 0.73,-0.62 0.89,-1.19l-1.32 1.06c-0.49,0.37 -1.17,0.53 -1.22,1.14 0.35,0.02 7.12,-1.64 7.34,-1.99 0.11,-0.17 0.59,-2.24 0.63,-2.6 -1.1,0.2 -1.27,0.95 -3.26,1.61 -2.09,0.69 -2.21,1.66 -3.06,1.96z"/>
   <path class="fil7" d="M30.23 20.77c-0.06,-0.16 0.01,-0.23 0.13,-0.39 0.25,-0.34 0.68,-1.07 1.1,-1.14 0.36,0.79 -0.51,1.9 -1.23,1.54zm-0.68 -0.55c-0.09,-0.5 0.29,-0.73 0.55,-1.04 0.12,-0.14 0.63,-0.82 0.9,-0.32 0.13,0.25 -0.85,1.58 -1.45,1.36zm1.62 -2.26c-1.22,0.23 -2.09,0.93 -2.3,2.13 -0.12,0.71 -0.01,1.19 0.3,1.74 0.87,1.5 2.86,-0.16 3.62,-1.9 0.66,-1.52 0.15,-2.3 -1.63,-1.97z"/>
   <path class="fil3" d="M13.54 13.76c0.4,0.12 0.14,0 0.36,0.2l0.27 0.3c0.27,-0.02 0.51,-0.07 0.7,-0.17l0.56 -0.33c0.17,-0.6 1.06,-1.74 0.97,-2.4 -0.11,-0.83 -0.68,-2 -1.11,-2.49 -0.63,0.15 -1.33,1.2 -1.59,1.9 -0.15,0.4 -0.3,0.95 -0.35,1.4 -0.09,0.71 0.19,0.84 0.19,1.59z"/>
   <path class="fil8" d="M52.98 52.39l-0.49 1.89c0.59,0.08 0.69,-0.57 0.98,-0.99 0.02,0.02 0.03,0.04 0.04,0.08l0.12 0.61c1.23,-0 1.67,-1.37 1.99,-2.09 0.36,-0.81 1.17,-2.18 0.96,-3.12 -0.21,-0.02 -2.5,0.56 -2.65,0.9 -0.13,0.27 0,1.38 -0.05,1.79 -0.12,0.95 -0.38,0.68 -0.9,0.93z"/>
   <path class="fil9" d="M33.37 35.19c0.45,0.21 1.92,-0.35 2.28,-0.52 2.2,-1.06 2.06,-0.94 3.64,-2.29 0.45,-0.38 1.45,-0.85 1.79,-1.18l-0.14 -0.05c-0.35,-0.04 -0.34,0.05 -0.66,0.1 0.52,-1.13 2.49,0.3 3.92,-0.31 0.58,-0.25 1.11,-0.56 1.56,-0.89 0.3,-0.22 1.07,-0.96 1.09,-1.35 -0.38,-0.07 -0.47,0.17 -0.71,0.4 -0.22,0.21 -0.41,0.41 -0.71,0.62 -0.41,0.28 -1.14,0.71 -1.8,0.76 -2.37,0.17 -1.79,-1.05 -4.06,0.55 -2.08,1.47 -1.21,1.74 -4.49,3.19 -0.33,0.14 -0.61,0.27 -0.91,0.42 -0.7,0.35 -0.66,0.2 -0.82,0.56z"/>
   <path class="fil10" d="M42.07 40.96l0.05 0.32 2.97 -0.86c0.51,-0.19 0.72,-0.12 0.7,-0.65 -0.3,-0.11 -0.18,-0.87 -0.14,-1.16 0.84,-0.5 2.02,0.09 2.02,-1.28 -0.68,-0.03 -6.63,1.46 -7,1.76 0.4,1.35 2.61,-0.01 3.76,-0.16l-0.04 1.18c-0.41,0.16 -0.84,0.23 -1.23,0.32 -0.21,0.05 -0.45,0.09 -0.66,0.15 -0.5,0.15 -0.36,0.07 -0.42,0.38z"/>
   <path class="fil5" d="M45.78 39.76c0.02,0.53 -0.19,0.46 -0.7,0.65l-2.97 0.86 -0.05 -0.32c-0.4,0.44 -1.12,1.78 -1.22,2.18l5.59 -1.57c0.37,-0.24 0.58,-1.44 0.62,-1.91l-1.28 0.11z"/>
   <path class="fil3" d="M32.37 30.73c-0.05,0.54 -0.03,1.05 -0.01,1.59 0.01,0.28 0.01,0.56 0.02,0.83 0.02,0.45 -0.08,0.52 0.22,0.58 0.82,-0.73 3.88,-2.46 4.36,-3.05 -0.8,-0.48 -3.55,0.18 -4.58,0.05z"/>
   <path class="fil6" d="M30.84 62.2l0.04 -6.55c-0.77,0.41 -1.36,2.07 -1.39,3.28 -0.03,1.08 0.61,3.08 1.36,3.27z"/>
   <path class="fil11" d="M58.28 22.12c0.35,-0.23 0.63,-0.61 0.79,-0.93 -0.59,-0.12 -0.66,0.07 -0.88,0.39 -1.95,-0.31 -2.16,-3.34 -1.77,-4.2 0.12,0.16 0.04,0.39 0.11,0.61 0.53,-0.2 0.12,-0.54 0.45,-1.41 0.23,-0.6 0.59,-0.6 0.99,-0.92 -0,-0.58 -0.33,-1.05 -0.83,-0.35 -0.1,0.14 -0.21,0.33 -0.32,0.5 -0.34,0.52 -1.65,2.7 -1.68,3.12 -0.02,0.38 0.42,0.6 0.62,0.86 0.2,0.25 0.82,2.14 2.51,2.34z"/>
   <path class="fil3" d="M59.82 56.45c0.58,-0.21 1.54,-2.76 1.86,-3.43 0.32,-0.68 1.82,-3.37 1.37,-3.68 -0.94,-0.63 -1.63,2.08 -2.01,3.13 -0.23,0.64 -0.47,1.3 -0.7,1.96 -0.11,0.32 -0.22,0.64 -0.35,0.98l-0.23 0.69c-0.03,0.46 -0.03,0.15 0.06,0.34z"/>
   <path class="fil3" d="M64.66 54.99c0.58,-0.09 0.5,-0.18 0.73,-0.72l1.27 -2.72c0.24,-0.5 1.77,-3.32 1.45,-3.68 -0.86,-0.94 -1.73,2.24 -2.04,3.08 -0.38,1.04 -1.21,2.99 -1.41,4.04z"/>
   <path class="fil3" d="M62.28 55.69c0.51,-0.1 0.67,-0.78 1.07,-1.63l1.71 -3.62c0.17,-0.36 0.95,-1.59 0.44,-1.89 -0.88,-0.52 -1.58,2.15 -1.96,3.23 -0.23,0.64 -0.47,1.32 -0.71,1.95 -0.12,0.32 -0.61,1.47 -0.58,1.81l0.04 0.15z"/>
   <path class="fil12" d="M68.52 19.27c1.39,0.29 1.98,0.4 2.97,-0.32 0.04,-0.96 -1.43,-1.38 -2.25,-1.41 -1.65,-0.07 -1.42,0.75 -0.72,1.73z"/>
   <path class="fil3" d="M24.53 46.93l0.03 0.26c0.46,-0.06 0.81,-0.15 1.04,-0.36 0.3,-0.28 0.16,-0.19 0.21,-0.38 0.07,-0.26 0.01,-0.34 0.25,-0.57 0.26,-0.48 0.98,-2.57 0.8,-3.13 -1.01,-0.37 -1.23,0.99 -1.51,1.7 -0.23,0.59 -0.85,1.94 -0.83,2.49z"/>
   <path class="fil3" d="M66.52 32.55l-0.08 0.39c0.53,-0.06 0.86,-0.33 1.33,-0.55 0.06,-0.51 0.01,-0.43 0.25,-0.68 0.25,-0.47 0.98,-2.6 0.71,-3.07 -0.88,-0.5 -1.18,0.93 -1.41,1.55 -0.21,0.55 -0.78,1.81 -0.8,2.35z"/>
   <path class="fil7" d="M38.75 15.89c0.49,-0.04 0.75,-0.02 1.02,0.26 -0.05,0.38 -0.28,0.51 -0.7,0.62 -0.44,0.12 -0.67,0.07 -0.93,-0.14 -0.27,0.16 -0.49,0.3 -0.96,0.33 1.93,1.96 4.16,-0.42 3.53,-1.64 -0.18,-0.29 -0.39,-0.34 -0.85,-0.39 -0.39,-0.05 -0.88,-0.05 -1.17,0.05 0.28,0.24 0.17,-0.33 0.19,0.45 0,0.11 -0.1,0.38 -0.12,0.46z"/>
   <path class="fil10" d="M33.52 43.38c0.23,0.25 0.19,-0.31 0.19,0.29 1.11,0.02 0.93,0.03 1.06,-0.79l-0.11 -0.08c-0.42,-0.24 -0.67,-0.48 -0.85,-1.07 0.81,-0.43 1.73,-0.04 1.89,-1.17 -0.63,0.04 -3.23,0.65 -3.59,0.97 0.1,0.43 0.49,0.47 0.82,0.79 0.27,0.26 0.44,0.61 0.59,1.06z"/>
   <path class="fil12" d="M57.31 52.81l0.35 -0c0.1,-0.22 0.44,-0.95 0.57,-1.08l0.08 -4.56c-0.43,0.47 -0.78,1.74 -0.92,2.48 -0.09,0.49 -0.14,0.95 -0.24,1.41 -0.11,0.51 -0.35,0.88 -0.4,1.35l0.55 0.41z"/>
   <path class="fil13" d="M67.4 27.61c-0.22,-0.24 -0.77,-0.52 -1.13,-0.58 -0.6,0.52 -0.56,1.85 -1.21,3.26 -0.16,0.35 -0.55,0.83 -0.1,0.99 0.99,0.36 1.09,-1.08 1.3,-1.74 0.11,-0.33 0.25,-0.91 0.37,-1.16 0.25,-0.52 0.55,-0.31 0.76,-0.77z"/>
   <path class="fil14" d="M56.89 57.84l0.27 0.03c-0.03,0.6 -0.32,1.11 -0.47,1.63 -0.14,0.51 -0.3,1.09 -0.43,1.57 0.59,0.06 1.17,-0.15 1.46,-0.55 0.45,-0.63 0.04,-1.22 0.89,-1.26 -0.7,-0.57 -0.64,-0.5 -0.79,-1.6 -0.34,-0.11 -0.69,-0.13 -0.94,0.18z"/>
   <path class="fil3" d="M33.2 38.58c1.65,0.28 2.87,0.69 3.16,-0.78 -0.65,0 -1.02,0.11 -1.42,-0.16l1.05 -0.14c-0.17,-0.45 -1.2,-0.22 -1.66,0.04 -0.44,0.25 -0.96,0.62 -1.13,1.05z"/>
   <path class="fil15" d="M50.16 40.33c0.55,0.02 0.55,-0.03 0.94,-0.26 0.19,-0.85 0.04,-1.49 0.33,-2.43 0.21,-0.68 1.06,-2.15 0.19,-1.68 -0.37,0.2 -0.59,1.65 -0.74,2.13 -0.19,0.6 -0.72,1.71 -0.72,2.23z"/>
   <path class="fil12" d="M33.52 43.38c0.08,0.8 -0.58,1.28 -0.46,1.99 0.44,0.13 1.22,-0.08 1.56,-0.26l0.3 -1.92c-0.07,-0.41 0.05,-0.14 -0.14,-0.3 -0.13,0.81 0.05,0.8 -1.06,0.79 -0,-0.61 0.04,-0.04 -0.19,-0.29z"/>
   <path class="fil14" d="M53.8 60.16c0.33,-0.16 0.97,-0.1 1.41,-0.13 0.32,0.4 0.21,0.74 0.72,0.86 0.53,-0.36 0.89,-2.2 0.96,-3.05 -0.51,0.16 -0.84,1 -1.19,1.48 -0.21,0.29 -0.31,0.56 -0.7,0.63 -0.64,0.13 -0.92,-0.26 -1.2,0.21z"/>
   <path class="fil16" d="M33.58 47.57c0.02,-0.39 -0.26,-0.69 -0.56,-1.35 -0.18,-0.39 -0.17,-0.32 -0.39,-0.45 -0.52,1.39 -2.03,3.24 0.96,1.8z"/>
   <path class="fil2" d="M37.18 16.96c0.47,-0.02 0.69,-0.17 0.96,-0.33 0.11,-0.22 0.43,-0.56 0.61,-0.74 0.03,-0.09 0.13,-0.36 0.12,-0.46 -0.02,-0.77 0.09,-0.21 -0.19,-0.45 -1.19,0.2 -1.88,0.67 -1.5,1.98z"/>
   <path class="fil17" d="M40.31 17.79c0.24,0.58 1.46,0.94 1.7,1.22 0.5,0.57 0.75,1.57 1.33,1.63 0.02,-0.7 -0.77,-1.03 -0.87,-1.56 -0.14,-0.73 0.76,-0.99 0.86,-1.58 -1.41,0.35 -0.68,1.48 -2.13,0.48 -0.27,-0.19 -0.57,-0.34 -0.89,-0.18z"/>
   <path class="fil3" d="M37.43 39.35c0.35,-0.04 1.13,-0.68 1.47,-0.92 0.52,-0.36 0.95,-0.85 0.46,-1.61 -0.53,0.09 -1.92,2.02 -1.93,2.52z"/>
   <path class="fil3" d="M41.57 36.16c-0.34,0.05 -0.63,0.15 -0.89,0.26 -0.04,0.49 0.07,0.61 0.32,0.88 0.5,-0.02 1.71,-1.05 1.87,-1.54l-1.08 -0.19c-0.21,0.34 -0.08,0.32 -0.22,0.6z"/>
   <path class="fil16" d="M57.31 52.81c0.17,0.15 2.91,1.62 2.74,-0.35 -0.52,0.06 -0.8,0.35 -1.37,0.37 -0.75,0.02 -0.49,-0.45 -0.45,-1.1 -0.13,0.13 -0.47,0.86 -0.57,1.08l-0.35 0z"/>
   <path class="fil18" d="M38.96 47.57l-0.13 -0.1c-0.27,-0.25 -0.19,-0.15 -0.3,-0.49 -0.46,0.06 -0.33,0.2 -0.86,0.56 -0.24,0.17 -0.89,0.38 -0.72,0.7 0.26,0.47 1.46,-0.15 2,-0.66z"/>
   <path class="fil6" d="M15.43 13.76l-0.56 0.33c-0.2,0.1 -0.43,0.15 -0.7,0.17l-0.27 -0.3c-0.22,-0.2 0.04,-0.07 -0.36,-0.2 0.06,0.61 0.16,0.64 0.61,0.86 0.64,0.32 0.28,0.51 0.84,0.6 0.14,-0.41 0.43,-1.03 0.45,-1.46z"/>
   <path class="fil19" d="M29.55 20.22c0.6,0.23 1.58,-1.11 1.45,-1.36 -0.27,-0.5 -0.78,0.18 -0.9,0.32 -0.26,0.31 -0.65,0.54 -0.55,1.04z"/>
   <path class="fil11" d="M29.51 54.24c0.37,-0.07 0.56,-0.22 0.85,-0.4 0.34,-0.21 0.55,-0.31 0.48,-0.83 -0.76,-0.05 -1.27,0.5 -1.33,1.23z"/>
   <path class="fil11" d="M52.02 34.35l-0.35 1.05c0.61,-0 0.59,0.03 0.85,-0.34 0.19,-0.26 0.39,-0.44 0.4,-0.75l-0.91 0.04z"/>
   <path class="fil6" d="M35.04 27.9l-0 -1.96 -0.53 -0.07 -0.08 1.04c0.17,0.16 0.32,0.21 0.39,0.31l0.23 0.69z"/>
   <path class="fil20" d="M46.69 56.99c0,0 0.07,0.18 0.55,0.17 0.5,-0 0.94,-0.4 0.86,-0.93 -0.44,-0.03 -1.1,0.45 -1.41,0.75z"/>
   <path class="fil21" d="M32.38 66.73c0.45,-0.07 1.64,-0.39 1.88,-0.75 -0.74,-0.18 -1.7,0.18 -1.88,0.75z"/>
   <path class="fil2" d="M63.94 56.29c-0.1,0.08 -0.39,0.21 -0.18,0.55 0.14,0.22 0.45,0.16 0.64,0.03 0.48,-0.36 0.19,-1.1 -0.45,-0.57z"/>
   <path class="fil9" d="M23.59 25.34c-0.69,0.33 -0.61,0.98 0.01,0.76 0.54,-0.19 0.72,-1.11 -0.01,-0.76z"/>
   <path class="fil2" d="M61.27 57.69c0.3,0.05 0.49,0.06 0.66,-0.12 0.75,-0.78 -1.08,-1.02 -0.66,0.12z"/>
   <path class="fil22" d="M59.51 57.71c-0.55,-0.23 -1,0.31 -0.78,0.67 0.22,0.36 0.95,0.04 0.78,-0.67z"/>
   <path class="fil9" d="M21.43 27.21c0.36,0 0.5,-0.05 0.66,-0.27 0.62,-0.87 -0.75,-0.9 -0.66,0.27z"/>
   <path class="fil23" d="M23.48 26.8c-0.57,-0.31 -0.97,0.24 -0.72,0.51 0.3,0.33 0.92,0.02 0.72,-0.51z"/>
   <path class="fil5" d="M49.5 20.32c0.52,-0 0.8,-0.23 0.89,-0.68 -0.58,-0.12 -0.93,0.14 -0.89,0.68z"/>
   <path class="fil24" d="M37.2 43.65c0.34,-0.29 0.43,-0.67 0.34,-1.13 -0.29,0.07 -0.44,0.57 -0.45,0.67 -0.08,0.64 0.04,0.35 0.11,0.46z"/>
   <path class="fil5" d="M48.11 21.62c0.5,0.1 0.72,-0.19 0.59,-0.57 -0.18,-0.08 0.24,-0.13 -0.23,-0.07 -0.34,0.05 -0.42,0.32 -0.36,0.64z"/>
   <path class="fil5" d="M49.58 21.59c0.37,0.02 0.74,-0.11 0.85,-0.4 0.22,-0.58 -0.73,-0.13 -0.85,0.4z"/>
   <path class="fil25" d="M16.28 12.8l0.53 -0.21 -0.04 -0.56c-0.47,0.09 -0.58,0.3 -0.49,0.77z"/>
   <path class="fil26" d="M29.53 52.9c0.29,0.16 -0.35,0.26 0.36,0.09 0.02,-0.01 0.63,-0.32 0.71,-0.54 -0.45,0.05 -0.77,0.1 -1.07,0.45z"/>
   <path class="fil27" d="M52.16 33.96c0.19,0.07 0.18,0.1 0.44,0.03 0.34,-0.08 0.3,-0.13 0.39,-0.36 -0.45,-0.02 -0.68,-0.08 -0.82,0.32z"/>
   <path class="fil28" d="M28.22 42.56c0.13,0.06 0.06,0.11 0.34,0.06 0.27,-0.05 0.33,-0.19 0.39,-0.26 -0.02,-0.01 0.14,-0.24 -0.4,-0.08 -0.24,0.07 -0.25,0.19 -0.32,0.29z"/>
   <path class="fil29" d="M39.35 61.93c0.34,-0.17 0.34,-0.33 0.29,-0.7 -0.38,0.1 -0.42,0.4 -0.29,0.7z"/>
   <path class="fil30" d="M57.61 20.72c0.41,0.05 0.5,-0.08 0.51,-0.42 -0.38,-0.07 -0.49,0.06 -0.51,0.42z"/>
   <path class="fil31" d="M54.5 1.78c0.08,-0.09 -0.04,-0.2 -0.21,-0.29 -0.75,-0.41 -0.41,0.03 -0.45,0.12l0.65 0.17z"/>
   <path class="fil32" d="M52.35 58c0.24,-0.2 0.37,-0.41 0.2,-0.69 -0.56,0.5 -0.21,0.69 -0.2,0.69z"/>
   <path class="fil32" d="M42.32 60.99c0.28,-0.27 0.23,-0.18 0.27,-0.67 -0.2,0.14 -0.16,-0.02 -0.3,0.33 -0.18,0.48 0.02,0.31 0.03,0.33z"/>
  </g>
 </g>
</svg>
