<?xml version="1.0" encoding="UTF-8"?>
<!DOCTYPE svg PUBLIC "-//W3C//DTD SVG 1.1//EN" "http://www.w3.org/Graphics/SVG/1.1/DTD/svg11.dtd">
<!-- Creator: CorelDRAW -->
<svg xmlns="http://www.w3.org/2000/svg" xml:space="preserve" width="23.9869mm" height="36.9265mm" version="1.1" style="shape-rendering:geometricPrecision; text-rendering:geometricPrecision; image-rendering:optimizeQuality; fill-rule:evenodd; clip-rule:evenodd"
viewBox="0 0 57.9 89.13"
 xmlns:xlink="http://www.w3.org/1999/xlink"
 xmlns:xodm="http://www.corel.com/coreldraw/odm/2003">
 <defs>
  <style type="text/css">
   <![CDATA[
    .fil2 {fill:#04FF03} 
    .fil0 {fill:#0A0A0A}
    .fil4 {fill:#59B036}
    .fil5 {fill:#EBBA2E}
    .fil1 {fill:#F7C205}
    .fil3 {fill:white}
   ]]>
  </style>
 </defs>
 <g id="Camada_x0020_1">
  <metadata id="CorelCorpID_0Corel-Layer"/>
  <g id="_2029836731744">
   <path class="fil0" d="M37.2 52.12c-0.09,0.2 -0.45,-0.14 0.04,0.75 0.08,0.14 0.36,0.39 0.49,0.48 2.24,1.81 0.9,1 0.93,4.13 0.01,1.51 0.62,1.2 1.89,1.27l-0.02 2.46c2.24,0.08 1.85,-0.75 3.49,-1.21 0.4,0.58 0.9,1.7 0.94,2.57 -0.72,0.83 -3.03,3.13 -4.06,3.4 -0.88,-1.6 -1.86,-5.44 -2.67,-7.49 -0.74,-1.87 -1.18,-2.08 -1.87,-3.24 -0.5,-0.85 -0.04,-2.6 -0.7,-4.18 -3.18,-4.2 2.01,-1.62 1.64,-6.03 3.88,-0.21 6.74,-0.16 9.96,-1.78 4.16,-2.1 0.76,-6.26 1.39,-9.05 0.65,-0.6 0.91,-0.31 1.29,-1.38 0.26,-0.73 0.19,-1.63 0.49,-2.42 0.47,-1.23 1.51,-1.23 2.27,-3.28 0.71,-1.91 0.24,-3.1 -0.76,-4.42 -1.78,-2.37 -1.04,-0.9 -0.87,-4.13 -0.06,-0.05 -0.17,-0.16 -0.21,-0.09l-0.62 -0.22c-0.82,-0.28 -0.88,0.43 -0.73,-2.11 0.22,-3.79 -1.52,-5.24 -5.04,-5.82l-1.17 -0.28c-1.36,-0.61 -0.88,-3.62 -3.69,-7.23 -1.23,-1.58 -4.56,-2.94 -7.64,-2.78 -2.88,0.15 -5.81,1.15 -7.58,2.58 -1.8,1.45 -3.9,3.26 -5.27,5.13 -1.98,2.7 -3.76,0.75 -5.05,5.11 -0.38,1.27 -0.38,3.6 -0.71,4.38 -0.38,0.89 -1.72,1.67 -1.99,3.35 -0.62,3.83 2.17,5.01 2.11,8.19 -0.04,2.08 -0.26,2.7 0.57,4.53 1.13,2.5 0.84,2.12 -0.9,3.26 0.5,1.27 1.49,1.77 3.02,2.13 0.23,2.14 0.24,3.77 1.91,4.41 2.06,0.79 2.88,0.87 2.79,3.65 -3.47,1.51 -1.25,4.79 -7.3,5.94 -3.89,0.74 -4.42,3.71 -5.71,7.61 -0.44,1.33 -0.52,1.31 -0.21,2.51l-1.52 14.66c-0.38,3.02 0.49,3.74 0.55,6.02 -0.67,0.44 -2.47,0.73 -3.41,1.09 -1.99,0.77 -2.74,0.58 -3.28,1.58 0.17,0.58 0.06,0.4 0.5,0.75 1.42,1.1 5.86,-0.39 7.57,-0.61 1.61,-0.2 1.56,1.13 4.13,0.27 2.22,-0.74 1.62,-1.04 1.57,-3.28 1.57,0.47 2.08,0.61 2.73,-0.93 6.88,0.6 2.48,1.52 12.86,0.91 2.03,-0.12 4.3,-0.41 6.29,-0.7 1.84,-0.28 4.04,-1.29 5.68,-1.24 0.34,4.77 -0.68,5.72 -0.81,6.89 0,2.22 1.05,-0.25 1.34,-0.67 0.02,0 1.81,0.23 7.02,0.8 0.56,-1.26 -0.05,-0.44 1.49,-0.88 0.87,-5.44 1.76,-2.77 3.43,-5.79 1.48,-2.68 -0.39,-1.57 1.34,-2.75 1.21,-0.82 1.87,-1.05 2.75,-2.05 -0.36,-0.59 -0.49,-0.61 -1.21,-0.89 0.21,-1.28 0.26,-0.47 0.55,-1.51l-1.12 -0.68c0.59,-0.57 0.46,-0.36 0.72,-1.3 -2.71,-0.71 -6.57,-2.37 -9.55,-2.44l-0.85 2.29 -0.85 -4.33c-0.42,-1.8 -1.05,-2.12 -0.85,-4.28 0.47,-0.28 1.03,-0.66 1.41,-0.92 -0.23,-3.69 -7.12,-10.12 -8.95,-10.7zm-34.07 33.79c0.29,-0.64 -0.32,-0.1 0.59,-0.64 0.96,-0.57 5.79,-1.61 6.61,-1.58 -0.02,1.99 -1.41,1.57 -3.19,2.12 -1.33,0.41 -3.08,1.21 -4.01,0.1zm39.2 -0.69c-0.04,-3.18 -0.1,-4.34 2.2,-5.4 0.4,0.55 0.64,0.9 0.67,1.95 -0.92,0.45 -1.74,0.24 -1.37,1.87 0.22,0.96 1.01,1.23 1.96,1.45 -0.23,0.8 -0.27,0.99 -0.8,1.46 -0.96,-0.47 -1.4,-0.96 -2.66,-1.34zm8.86 -2.03c-1.27,0.48 -1.83,0.5 -3.12,-0.13 -1.04,-0.51 -1.73,-0.75 -1.87,-2.04 0.92,-0.87 1.88,-0.01 2.62,0.54 0.65,0.48 1.94,1.19 2.37,1.63zm1.69 -1.9c-1.68,2.55 -5.47,-1.3 -3.32,-3.15 1.24,0.25 1,0.88 1.65,1.73 0.78,1.02 1.03,0.44 1.67,1.42zm-7.47 -1.46c-0.82,-2.06 1.14,-1.99 2.52,-1.51 -0.23,1.34 -0.07,1.32 -0.78,1.58 -0.6,0.22 -1.23,0.2 -1.74,-0.07zm3.66 -7.52c1.03,0.11 2.65,0.62 3.35,1.19 -0.16,1.2 -1.15,2.78 -1.65,3.66 -0.04,-0.05 -0.08,-0.12 -0.11,-0.15l-0.49 -0.75c-0.78,-1.1 -1.15,-0.79 -2.12,-1.59l1.01 -2.37zm-5.96 5c-0.48,-0.79 -2.47,-9.16 -1.59,-10.21 0.5,-0.6 1.73,-1.63 2.32,-1.87 0.24,1.25 0.72,2.12 0.87,3.44 0.66,5.52 0.12,4.62 3.76,7.14 0.8,0.55 0.65,0.17 0.83,1.16 -1.79,1.65 -2.99,-0.64 -5.12,-1.25l-1.08 1.6zm-35.62 5.51c-1.12,-6.27 0.02,-13.35 1.23,-19.46 0.99,0.27 2.01,0.71 3.07,0.92 1.17,0.24 2.34,0.15 3.6,0.28 0.05,1.7 -0.44,3.18 -0.73,4.8 -1.87,10.42 2.62,11.67 0.21,13.55 -1.6,-0.43 -0.19,-1.29 -2.17,-1.46 -0.18,1.94 0.82,3.01 -0.42,4.19 -1.83,-0.65 -0.12,-2.54 -0.97,-3.86 -0.77,-0.28 -0.32,0.95 -2.43,1.24 -0.13,-1.04 -0.02,-1.72 -0.68,-2.12 -0.71,0.53 -0.22,0.01 -0.43,0.89l-0.28 1.04zm7.8 -8.28c1.24,0.15 1.22,1.36 2.99,1.36l0.29 -6.03c2.71,-0.12 5.09,1.41 7.99,1.49 -0.22,-1.73 -2.23,-3.55 -3.11,-5.32l2.61 -0.01c-0.37,-1.96 -2.54,-1.73 -4.31,-3.4 0.79,-0.5 1.25,-0.41 2.05,-0.77 -0.01,-1.84 -1.46,-2.65 -2.57,-3.41 0.32,-0.97 1.77,-2.71 2.52,-3.13 0.19,2.51 -0.52,3 1.01,4.6 0.8,0.83 1.78,2.33 2.91,2.62 0.86,-0.88 1.69,-2.1 2.54,-2.99 1.52,-1.58 1.34,-0.89 1.64,-3.69 1.56,0.8 1.22,2.77 3.03,3.06 1,-0.97 0.45,-1.83 1.19,-2.9 1.4,2.85 2.58,3.41 -0.04,6.02 -1.1,1.1 -2.46,2.12 -3.93,2.83 -0.94,0.46 -0.87,0.24 -1.16,1.23l2.88 0.43c-1.21,1.65 -4.28,1.81 -5.16,3.09 0.62,0.87 1.79,1.36 2.88,1.92 1.7,0.87 1.68,0.72 3.85,0.76 -0.25,1.79 -1.4,2.1 -1.46,3.85 3.02,0.29 5.03,-1.7 7.35,-1.62 0.32,1.7 0.62,2.93 0.51,4.81 -1.54,1.38 -4.26,2.54 -7.14,2.45 0.18,-0.78 0.41,-1.19 0.78,-1.88 0.38,-0.7 0.74,-1.19 0.48,-1.88 -1.04,-0.38 -2.13,0.08 -3.47,0.17 -0.02,-1.48 0.22,-3.52 -0.2,-4.7 -1.55,0.12 -1.13,1.92 -3.15,2.96 -0.64,-0.69 -1.19,-1.84 -1.73,-2.66 -0.59,-0.91 -0.99,-1.86 -2.13,-2 -0.56,1.22 -0.49,2.72 -0.74,4.15 -1.83,-0.31 -1.95,-2 -5.47,-1.7 0.12,1.31 1.09,1.81 1.14,3.88 -0.05,0.03 -4.05,1.41 -4.05,1.41 -0.93,-1.86 -1.03,-2.23 -0.85,-5zm3.49 -21.46c0.71,-0.25 3,-0.76 3.84,-0.94 0.71,0.5 0.85,0.71 1.34,1.43 -0.1,0.21 -3.61,4.15 -3.99,4.28 -0.56,-0.8 -1.2,-3.5 -1.2,-4.77zm-10.36 9.26c0.03,-3.19 2.55,-8.63 5.26,-8.75 -0.46,0.77 -1.03,1.21 -1.69,1.86 -1.01,1.01 -1.56,1.22 -1.15,2.15l3.51 0.21c-0.37,1.88 -2.07,1.11 -2.04,3.05 0.7,0.47 0.75,0.19 1.37,0.49 -1.34,2.87 -2.58,2.35 -5.26,0.99zm21.36 -40.25c3.59,-0.98 6.94,0.96 7.46,4.05 0.6,3.64 -1.85,6.33 -4.31,7.21 -2.06,0.73 -6.83,-0.09 -7.41,-3.88 -0.61,-3.97 1.28,-6.56 4.27,-7.38zm7.28 1.25c1.07,-1.09 1.42,-1.82 3.42,-2.3 5.8,-1.4 8.5,7.75 4.25,9.21 -2.82,-2.63 -2.25,-1.5 -6.53,-1.4 0.03,-1.1 0.1,-2.31 -0.19,-3.28 -0.33,-1.1 -0.74,-1.19 -0.96,-2.24zm0.93 -2.35c1.44,-1.09 0.96,-2.16 2.74,-2.05 1.24,0.08 1.16,0.08 2,-0.47 0.13,-0.08 0.71,-0.48 0.71,-0.48 0.5,-0.41 0.33,-0.08 0.54,-0.7 -1.16,-0.64 -1.14,0.12 -2.13,0.55 -1.23,0.53 -1.26,-0.17 -2.26,0.16 -0.73,0.24 -0.88,0.95 -1.42,1.46 -0.71,0.68 -1.08,0.41 -1.56,1.28 0.63,0.44 1.17,0.36 1.28,0.37 -0.79,0.45 -1.03,0.93 -1.58,1.52 -1.59,-0.51 -1.95,-1.49 -4.1,-1.63 -6.18,-0.39 -8.59,4.16 -7.43,8.72 0.91,3.56 6.15,6.46 10.83,3.2 1.72,-1.2 1.09,-1.52 2.38,-3.13 2.4,-0.02 5.5,-1.22 6.09,1.32 0.56,2.39 -3.01,2.41 -4.34,3.24 0.45,1.02 0.02,0.12 1.08,0.73 0.44,3.79 2.69,2.66 4.28,3.03 1.1,0.25 0.65,0.51 2.01,0.33 1.23,-2.38 -1.82,-3.08 -3.64,-4 0.61,-1.83 1.45,-0.2 1.62,-3.39l1.58 -0.47c0.58,3.29 3.48,9.91 0.42,11.75 -0.83,0.49 -2.52,1.16 -3.53,1.3 -1.96,0.27 -14.53,0.7 -15.72,3.35 1.35,0.78 4.74,-2.23 8.42,-1.67 0.32,2.06 -1.41,1.56 -2.34,2.9 -0.76,1.09 -0.9,2.65 -1.62,3.72 -0.66,0.98 -1.8,1.9 -2.59,2.72 -1.72,1.79 -1.33,2.02 -2.06,2.94 -0.45,-0.56 -0.97,-1.9 -1.43,-2.6 -2.25,-3.42 -4.37,-3.68 -4.38,-7.77l0.08 -3.86c0.24,-1.11 0.67,-0.82 1.73,-1.13 -0.59,-0.64 0.01,-0.25 -1.74,-0.41 -2.84,-0.26 -2.53,-5.58 -0.22,-6.03 1.92,-0.38 1.12,0.91 2.59,1.18 0.54,-1.16 -0.6,-3.89 -0.75,-5.31 -0.21,-1.97 -1.18,-3.59 -0.56,-5.2 0.65,-1.72 2.06,-1.98 2.23,-4.29 0.19,-2.43 -0.45,-3.7 1.04,-5.27 2.1,-0.34 2.57,0.88 4.62,-0.45 1.03,-0.67 1.94,-1.7 3.39,-2.17 1.55,-0.51 2.84,-0.31 4.45,-1.09 1.53,-0.74 1.93,-1.97 3.44,-2.28 0.61,1.28 1.45,4.02 1.96,5.56 0.94,2.85 3.08,1.96 1.49,4.66 -3.23,-0.13 -3.45,-2.27 -7.65,-0.16z"/>
   <path class="fil1" d="M22.09 40.85c-1.99,0.14 -2.34,-2.66 -1.27,-3.47 1.08,-0.83 3.65,0.48 2.78,1.95 -1.34,-0.63 -0.07,-1.06 -1.25,-1.31 -0.52,-0.11 -0.51,0.02 -0.69,0.19 -0.97,0.94 0.3,2.05 0.43,2.64zm18.09 -3.58c-1.07,1.65 -3.1,2.32 -5.46,2.99 -1,0.29 -2.44,0.72 -3.58,0.52 -1.11,-0.19 -2.11,-1.2 -1.35,-2.57 0.77,-1.39 4,-1.91 5.66,-2.82 3.81,-2.08 5.66,0.44 4.73,1.87zm-2.18 -16.28c4.2,-2.11 4.42,0.03 7.65,0.16 1.59,-2.7 -0.55,-1.81 -1.49,-4.66 -0.51,-1.54 -1.35,-4.28 -1.96,-5.56 -1.51,0.3 -1.91,1.54 -3.44,2.28 -1.61,0.78 -2.91,0.58 -4.45,1.09 -1.45,0.47 -2.37,1.5 -3.39,2.17 -2.06,1.34 -2.52,0.12 -4.62,0.45 -1.49,1.57 -0.85,2.84 -1.04,5.27 -0.18,2.3 -1.58,2.57 -2.24,4.29 -0.61,1.61 0.36,3.23 0.56,5.2 0.15,1.42 1.29,4.15 0.75,5.31 -1.47,-0.27 -0.67,-1.55 -2.59,-1.18 -2.31,0.45 -2.62,5.77 0.22,6.03 1.76,0.16 1.15,-0.22 1.74,0.41 -1.07,0.31 -1.49,0.03 -1.73,1.13l-0.08 3.86c0.01,4.09 2.14,4.35 4.38,7.77 0.46,0.7 0.99,2.04 1.43,2.6 0.73,-0.92 0.33,-1.15 2.06,-2.94 0.79,-0.82 1.93,-1.75 2.59,-2.72 0.72,-1.07 0.87,-2.63 1.62,-3.72 0.93,-1.34 2.66,-0.85 2.34,-2.9 -3.68,-0.56 -7.07,2.45 -8.42,1.67 1.19,-2.65 13.76,-3.08 15.72,-3.35 1.01,-0.14 2.71,-0.8 3.53,-1.3 3.06,-1.84 0.16,-8.46 -0.42,-11.75l-1.58 0.47c-0.17,3.19 -1.01,1.55 -1.62,3.39 1.82,0.91 4.87,1.62 3.64,4 -1.36,0.17 -0.91,-0.08 -2.01,-0.33 -1.59,-0.37 -3.84,0.75 -4.28,-3.03 -1.06,-0.61 -0.63,0.29 -1.08,-0.73 1.34,-0.83 4.9,-0.86 4.34,-3.24 -0.59,-2.54 -3.69,-1.34 -6.09,-1.32 -1.29,1.61 -0.66,1.93 -2.38,3.13 -4.68,3.26 -9.92,0.37 -10.83,-3.2 -1.16,-4.56 1.24,-9.11 7.43,-8.72 2.15,0.14 2.51,1.12 4.1,1.63 0.55,-0.59 0.79,-1.07 1.58,-1.52 -0.11,-0.02 -0.65,0.07 -1.28,-0.37 0.48,-0.87 0.85,-0.6 1.56,-1.28 0.54,-0.52 0.69,-1.23 1.42,-1.46 1,-0.33 1.03,0.37 2.26,-0.16 1,-0.43 0.97,-1.19 2.13,-0.55 -0.21,0.63 -0.05,0.29 -0.54,0.7 -0,0 -0.59,0.4 -0.71,0.48 -0.85,0.56 -0.76,0.55 -2,0.47 -1.78,-0.11 -1.31,0.96 -2.74,2.05z"/>
   <path class="fil2" d="M21.23 58.44c1.1,0.77 2.56,1.57 2.57,3.41 -0.8,0.36 -1.26,0.27 -2.05,0.77 1.77,1.68 3.95,1.45 4.31,3.4l-2.61 0.01c0.88,1.78 2.89,3.59 3.11,5.32 -2.89,-0.08 -5.28,-1.61 -7.99,-1.49l-0.29 6.03c-1.76,-0.01 -1.74,-1.21 -2.99,-1.36 -0.18,2.76 -0.08,3.14 0.85,5 0,-0 4,-1.39 4.05,-1.41 -0.06,-2.06 -1.03,-2.56 -1.14,-3.88 3.53,-0.3 3.64,1.39 5.47,1.7 0.25,-1.43 0.17,-2.93 0.74,-4.15 1.13,0.14 1.53,1.1 2.13,2 0.53,0.82 1.09,1.97 1.73,2.66 2.02,-1.04 1.6,-2.84 3.15,-2.96 0.42,1.18 0.18,3.22 0.2,4.7 1.34,-0.09 2.43,-0.55 3.47,-0.17 0.25,0.69 -0.1,1.18 -0.48,1.88 -0.37,0.69 -0.61,1.1 -0.78,1.88 2.87,0.08 5.6,-1.07 7.14,-2.45 0.11,-1.88 -0.19,-3.11 -0.51,-4.81 -2.33,-0.08 -4.34,1.91 -7.35,1.62 0.07,-1.76 1.22,-2.06 1.46,-3.86 -2.17,-0.04 -2.15,0.11 -3.85,-0.76 -1.09,-0.56 -2.26,-1.05 -2.88,-1.92 0.88,-1.28 3.95,-1.44 5.16,-3.09l-2.88 -0.43c0.29,-0.99 0.22,-0.78 1.16,-1.23 1.47,-0.71 2.83,-1.73 3.93,-2.83 2.62,-2.62 1.44,-3.17 0.04,-6.02 -0.74,1.07 -0.19,1.93 -1.19,2.9 -1.81,-0.29 -1.47,-2.26 -3.03,-3.06 -0.3,2.8 -0.12,2.11 -1.64,3.69 -0.85,0.89 -1.68,2.11 -2.54,2.99 -1.13,-0.29 -2.11,-1.79 -2.91,-2.62 -1.53,-1.6 -0.82,-2.1 -1.01,-4.6 -0.75,0.42 -2.21,2.16 -2.52,3.13z"/>
   <path class="fil1" d="M7.5 82.82l0.28 -1.04c0.21,-0.87 -0.28,-0.36 0.43,-0.89 0.67,0.4 0.55,1.09 0.68,2.12 2.11,-0.3 1.66,-1.52 2.43,-1.24 0.86,1.32 -0.85,3.22 0.97,3.86 1.23,-1.18 0.24,-2.24 0.42,-4.19 1.98,0.17 0.57,1.03 2.17,1.46 2.41,-1.87 -2.08,-3.13 -0.21,-13.55 0.29,-1.62 0.78,-3.1 0.73,-4.8 -1.26,-0.12 -2.43,-0.04 -3.6,-0.28 -1.06,-0.21 -2.08,-0.64 -3.07,-0.92 -1.21,6.11 -2.35,13.19 -1.23,19.46z"/>
   <path class="fil3" d="M29.36 28.23c1.55,-0.74 1.49,1.63 0.67,1.97 -1.45,0.59 -1.96,-1.35 -0.67,-1.97zm0.43 -6.14c-2.99,0.82 -4.88,3.42 -4.27,7.38 0.59,3.78 5.36,4.61 7.41,3.88 2.47,-0.88 4.92,-3.57 4.31,-7.21 -0.51,-3.09 -3.87,-5.04 -7.46,-4.05z"/>
   <path class="fil3" d="M40.22 26.37c0.63,-2.82 3.16,-0.03 0.68,0.82l-0.68 -0.82zm-3.15 -3.03c0.23,1.04 0.64,1.13 0.96,2.24 0.29,0.97 0.22,2.18 0.19,3.28 4.27,-0.1 3.71,-1.23 6.53,1.4 4.25,-1.46 1.54,-10.61 -4.25,-9.21 -2,0.48 -2.36,1.21 -3.42,2.3z"/>
   <path class="fil0" d="M40.18 37.27c0.93,-1.43 -0.92,-3.95 -4.73,-1.87 -1.66,0.91 -4.89,1.43 -5.66,2.82 -0.75,1.37 0.25,2.38 1.35,2.57 1.14,0.19 2.58,-0.24 3.58,-0.52 2.36,-0.68 4.39,-1.34 5.46,-2.99z"/>
   <path class="fil1" d="M43.11 77.31l1.08 -1.6c2.13,0.61 3.32,2.9 5.12,1.25 -0.18,-0.99 -0.03,-0.6 -0.83,-1.16 -3.64,-2.52 -3.1,-1.62 -3.76,-7.14 -0.16,-1.31 -0.63,-2.19 -0.87,-3.44 -0.59,0.24 -1.82,1.27 -2.32,1.87 -0.88,1.06 1.11,9.43 1.59,10.21z"/>
   <path class="fil2" d="M37.2 52.12c-0.48,-0.36 -0.98,-0.73 -1.53,-1.07 0.66,1.58 0.19,3.33 0.7,4.18 0.69,1.16 1.13,1.37 1.87,3.24 0.81,2.06 1.79,5.89 2.67,7.49 1.04,-0.27 3.34,-2.57 4.06,-3.4 -0.04,-0.87 -0.54,-1.99 -0.94,-2.57 -1.64,0.46 -1.24,1.29 -3.49,1.21l0.02 -2.46c-1.27,-0.07 -1.88,0.24 -1.89,-1.27 -0.03,-3.13 1.31,-2.31 -0.93,-4.13 -0.12,-0.1 -0.41,-0.35 -0.49,-0.48 -0.49,-0.89 -0.13,-0.55 -0.04,-0.75z"/>
   <path class="fil2" d="M8.43 62.34c2.67,1.35 3.92,1.87 5.26,-1 -0.62,-0.3 -0.67,-0.01 -1.37,-0.49 -0.03,-1.94 1.67,-1.16 2.04,-3.05l-3.51 -0.21c-0.41,-0.93 0.14,-1.14 1.15,-2.15 0.66,-0.66 1.23,-1.1 1.69,-1.86 -2.71,0.12 -5.23,5.56 -5.26,8.75z"/>
   <path class="fil2" d="M18.79 53.08c-0.01,1.26 0.64,3.97 1.2,4.77 0.38,-0.14 3.88,-4.07 3.99,-4.28 -0.49,-0.72 -0.63,-0.93 -1.34,-1.43 -0.84,0.19 -3.13,0.69 -3.84,0.94z"/>
   <path class="fil4" d="M42.33 85.21c1.26,0.39 1.7,0.87 2.66,1.34 0.53,-0.48 0.57,-0.66 0.8,-1.46 -0.94,-0.23 -1.74,-0.49 -1.96,-1.45 -0.37,-1.63 0.45,-1.42 1.37,-1.87 -0.03,-1.05 -0.27,-1.4 -0.67,-1.95 -2.3,1.06 -2.24,2.22 -2.2,5.4z"/>
   <path class="fil4" d="M48.06 74.68c0.97,0.8 1.34,0.49 2.12,1.59l0.49 0.75c0.02,0.03 0.07,0.1 0.11,0.15 0.5,-0.88 1.49,-2.46 1.65,-3.66 -0.7,-0.57 -2.32,-1.08 -3.35,-1.19l-1.01 2.37z"/>
   <path class="fil3" d="M3.13 85.9c0.93,1.11 2.69,0.31 4.01,-0.1 1.79,-0.55 3.18,-0.12 3.19,-2.12 -0.83,-0.03 -5.65,1.01 -6.61,1.58 -0.92,0.54 -0.31,-0 -0.59,0.64z"/>
   <path class="fil1" d="M52.88 81.28c-0.64,-0.98 -0.89,-0.4 -1.67,-1.42 -0.65,-0.85 -0.41,-1.48 -1.65,-1.73 -2.14,1.85 1.64,5.7 3.32,3.15z"/>
   <path class="fil5" d="M46.2 81.01c0.14,1.29 0.83,1.53 1.87,2.04 1.3,0.63 1.85,0.61 3.12,0.13 -0.44,-0.45 -1.73,-1.15 -2.37,-1.63 -0.74,-0.55 -1.7,-1.41 -2.62,-0.54z"/>
   <path class="fil0" d="M22.09 40.85c-0.14,-0.59 -1.4,-1.7 -0.43,-2.64 0.17,-0.17 0.17,-0.3 0.69,-0.19 1.18,0.25 -0.09,0.67 1.25,1.31 0.87,-1.47 -1.69,-2.77 -2.78,-1.95 -1.07,0.81 -0.71,3.62 1.27,3.47z"/>
   <path class="fil5" d="M45.41 79.83c0.51,0.27 1.14,0.29 1.74,0.07 0.7,-0.26 0.55,-0.24 0.78,-1.58 -1.37,-0.48 -3.33,-0.55 -2.52,1.51z"/>
   <path class="fil0" d="M29.36 28.23c-1.29,0.62 -0.79,2.57 0.67,1.97 0.83,-0.34 0.88,-2.71 -0.67,-1.97z"/>
   <path class="fil0" d="M40.9 27.19c2.48,-0.85 -0.04,-3.64 -0.68,-0.82l0.68 0.82z"/>
  </g>
 </g>
</svg>
