<?xml version="1.0" encoding="UTF-8"?>
<!DOCTYPE svg PUBLIC "-//W3C//DTD SVG 1.1//EN" "http://www.w3.org/Graphics/SVG/1.1/DTD/svg11.dtd">
<!-- Creator: CorelDRAW -->
<svg xmlns="http://www.w3.org/2000/svg" xml:space="preserve" width="9.2568mm" height="14.683mm" version="1.1" style="shape-rendering:geometricPrecision; text-rendering:geometricPrecision; image-rendering:optimizeQuality; fill-rule:evenodd; clip-rule:evenodd"
viewBox="0 0 17.5 27.75"
 xmlns:xlink="http://www.w3.org/1999/xlink"
 xmlns:xodm="http://www.corel.com/coreldraw/odm/2003">
 <defs>
  <style type="text/css">
   <![CDATA[
    .fil0 {fill:black}
    .fil3 {fill:#CC0000}
    .fil4 {fill:#FECB00}
    .fil2 {fill:#FF6600}
    .fil1 {fill:white}
   ]]>
  </style>
 </defs>
 <g id="Camada_x0020_1">
  <metadata id="CorelCorpID_0Corel-Layer"/>
  <g id="Figs_Desenho_VarCor_008_x0020_a">
   <path class="fil0" d="M15.9 26.48c-0.1,-0.46 -0.84,-1.11 -1.24,-1.35 -1.17,-0.68 -3.23,-0.74 -4.06,0.41 -0.47,0.65 -0.45,1.46 -0.45,2.2l-0.26 0c0,-0.56 -0.03,-1.3 0.19,-1.82 0.15,-0.36 0.42,-0.65 0.73,-0.9 0.12,-0.1 0.23,-0.2 0.37,-0.28 0.12,-0.08 0.25,-0.1 0.37,-0.17l-0 -0.49c-0.96,-0.49 -1.4,-0.85 -2.54,-1.11 -0.81,-0.18 -2.56,-0.33 -3.3,0.05 -0.44,0.23 -0.66,0.66 -0.82,1.08 -0.15,0.41 -0.26,0.83 -0.4,1.24 -0.16,0.45 -0.29,0.89 -0.38,1.35 -0.09,0.43 -0.06,0.33 -0.32,0.59 -0.17,0.17 -0.31,0.28 -0.46,0.47l-0.34 0c0.4,-0.63 0.53,-0.38 0.72,-0.72 0.1,-0.18 0.16,-0.43 0.21,-0.63 0.1,-0.42 0.4,-1.2 0.45,-1.55 -1.04,0.04 -2.52,0.49 -3.27,1.11 -0.03,0.92 0.22,1.03 0.55,1.79l-0.28 0 -0.23 -0.42c-0.23,0.06 -0.59,0.27 -0.74,0.42l-0.39 0 0.06 -0.07c0.16,-0.2 0.69,-0.44 0.96,-0.59 -0.13,-0.42 -0.23,-0.77 -0.16,-1.22l0.01 -0.02c0.3,-0.34 1.13,-0.68 1.58,-0.84 0.73,-0.25 1.25,-0.29 2,-0.42 0.24,-0.78 0.39,-1.36 1.21,-1.8l-0.02 -1.23c-0.57,-0.27 -0.83,-0.9 -0.45,-1.4 0.32,-0.42 0.01,-0.37 0.25,-0.8 0.17,-0.29 0.43,-0.36 0.76,-0.43 0.22,-0.74 0.35,-1.52 -0.19,-2.18 -0.52,-0.64 -0.63,-0.13 -1.47,-0.54 -0.48,-0.23 -0.79,0.3 -1.64,-0.15 -0.76,-0.4 -1.04,0.17 -2.34,-0.74 -0.18,-0.12 -0.4,-0.28 -0.48,-0.48 -0.1,-0.26 0.05,-0.58 0.17,-0.81 0.4,-0.75 0.83,-2.08 1.05,-2.87 -0.31,-0.26 -0.43,-0.43 -0.54,-0.82 -0.32,-1.15 0.21,-2.23 1.19,-2.96 -0.16,-0.51 0,-1.03 0.51,-1.32 0.29,-0.16 0.34,-0.27 0.42,-0.58 0.07,-0.27 0.13,-0.54 0.21,-0.82 0.31,-1.09 0.49,-2.52 0.49,-3.64 0.58,0.05 0.79,0.3 1,0.76 0.23,-0.5 0.14,-1.05 0.73,-1.36 0.39,0.32 0.45,0.75 0.72,1.08 0.08,-0.18 0.12,-0.5 0.18,-0.71 0.08,-0.25 0.22,-0.5 0.31,-0.76l0.04 0.01c0.48,0.13 0.79,0.86 1.02,1.27 0.4,-0.47 0.32,-1.19 1.12,-1.31 0.15,0.46 0.4,0.88 0.64,1.3 0.14,-0.2 0.23,-0.43 0.38,-0.62 0.18,-0.24 0.38,-0.48 0.68,-0.59 0.24,0.18 0.66,1.07 0.79,1.44 0.5,-0.39 0.67,-0.79 1.43,-0.88 0.09,0.61 -0.03,0.85 0.13,1.49 0.46,-0.37 0.72,-0.81 1.35,-1.01 0.21,0.36 0.33,1.18 0.41,1.59 0.27,-0.2 0.83,-0.71 1.2,-0.59 0.2,0.06 0.26,0.27 0.28,0.44 0.02,0.17 0.04,0.34 0.05,0.51 0.02,0.33 -0,0.67 0.02,1.01 0.51,-0.11 0.87,-0.19 1.42,-0.16 -0.01,0.39 -0.22,0.67 -0.44,1.01 -0.3,0.48 -0.52,0.88 -0.71,1.42 -0.19,0.53 -0.37,1.07 -0.54,1.6 -0.52,1.6 -1.06,3.29 -1.52,4.91 -0.12,0.41 -0.34,1.18 -0.4,1.59 0.31,0.16 0.47,0.23 0.64,0.55 0.2,0.36 0.26,0.88 0.13,1.27 -0.2,0.61 -0.79,0.83 -1.44,0.84 0.22,1.1 0.57,2.22 0.24,3.34 -0.29,1 -0.7,1.95 -1.95,2.11l-0.14 1.11c0.15,0.13 0.24,0.18 0.43,0.27l0.01 0.56c1.86,-0.14 3.27,0.07 4.23,1.7 0.35,0.6 0.14,0.99 -0.14,1.56l-0.3 0c0.23,-0.39 0.38,-0.57 0.37,-1.02 -0.35,-0.03 -0.85,0.07 -1.17,0.21l0.65 0.81 -0.33 0c-0.16,-0.28 -0.39,-0.47 -0.57,-0.74l-1.63 0.74 -0.42 0c0.27,-0.22 0.43,-0.3 0.76,-0.46 0.64,-0.3 1.92,-0.79 2.64,-0.81z"/>
   <path class="fil1" d="M1.76 9.59c-0.16,-0.78 0.63,-0.68 0.75,-0.33 0.15,0.43 -0.36,0.62 -0.75,0.33zm8.19 0.41c-0.79,0.02 -0.64,-0.64 -0.27,-0.72 0.55,-0.12 0.68,0.36 0.27,0.72zm-3.83 -0.12c0.04,0.55 0.27,1.08 0.65,1.51 0.65,0.74 1.65,1.1 2.69,1.04 2.28,-0.14 3.48,-2.51 2.42,-4.15 -1.69,-2.63 -6,-1.39 -5.76,1.61zm-0.21 0.34c-0.04,-1.24 -0.09,-1.12 0.44,-2.21 -0.92,-0.68 -1.24,-0.88 -2.48,-0.94 -0.87,-0.05 -1.87,0.36 -2.34,1.02 -0.6,0.84 -0.95,1.89 -0.22,2.76 0.41,0.49 1.18,0.87 1.85,0.88 -0.51,-0.64 -0.46,-1.62 0.36,-2.02 0.97,-0.47 1.68,0.24 2.39,0.51z"/>
   <path class="fil1" d="M2.49 15.11c0.18,0.82 0.83,1.01 1.67,0.81 -0.03,-0.19 -0.16,-0.07 -0.01,-0.35 0.49,0.28 0.32,0.55 1.16,0.59 0.57,0.03 0.82,-0.04 1.18,-0.4 -0.08,-0.16 -0.15,-0.16 -0.07,-0.37 0.39,0.14 0.32,0.49 1.37,0.38 0.66,-0.07 0.72,-0.25 1.12,-0.56 0.39,0.14 0.41,0.37 0.9,0.42 0.31,0.03 0.67,-0.04 0.92,-0.21 -0.31,-0.31 -0.66,-0.55 -1.1,-0.68 -1.5,-0.46 -3.4,0.54 -5.11,0.5 -0.28,-0.01 -0.55,-0.03 -0.83,-0.06 -0.4,-0.03 -0.79,-0.06 -1.19,-0.08z"/>
   <path class="fil2" d="M1.62 27.71l1.39 0c0.38,-0.57 0.51,-0.35 0.69,-0.68 0.1,-0.18 0.16,-0.43 0.21,-0.63 0.1,-0.42 0.4,-1.2 0.45,-1.55 -1.04,0.04 -2.52,0.49 -3.27,1.11 -0.03,0.9 0.21,1.03 0.53,1.74zm1.73 0l6.54 0c-0,-0.56 -0.02,-1.27 0.19,-1.78 0.15,-0.36 0.42,-0.65 0.73,-0.9 0.12,-0.1 0.23,-0.2 0.37,-0.28 0.12,-0.08 0.25,-0.1 0.37,-0.17l-0 -0.49c-0.96,-0.49 -1.4,-0.85 -2.54,-1.11 -0.81,-0.18 -2.56,-0.33 -3.3,0.05 -0.44,0.23 -0.66,0.66 -0.82,1.08 -0.15,0.41 -0.26,0.83 -0.4,1.24 -0.16,0.45 -0.29,0.89 -0.38,1.35 -0.09,0.43 -0.06,0.33 -0.32,0.59 -0.16,0.16 -0.28,0.26 -0.42,0.42zm6.79 0l2.4 0c0.24,-0.19 0.4,-0.27 0.7,-0.41 0.64,-0.3 1.92,-0.79 2.64,-0.81 -0.1,-0.46 -0.84,-1.11 -1.24,-1.35 -1.17,-0.68 -3.23,-0.74 -4.06,0.41 -0.46,0.64 -0.45,1.42 -0.45,2.16z"/>
   <path class="fil3" d="M9.73 18.2c0.3,0.56 0.39,0.71 0.29,1.39 0.32,0.03 0.34,0.11 0.55,0.17 0.23,-0.28 0.37,-0.66 0.41,-1.01 0.12,-0.96 -0.36,-1.92 -1.59,-1.65 -0.59,0.13 -0.64,0.61 -0.96,0.62l-0.07 0c0.14,-0.46 0.22,-0.41 0.49,-0.66 -1.53,-0.24 -2.23,0.78 -1.19,1.23 0.41,0.18 1.19,0.25 1.59,0.04 0.22,-0.12 0.69,-0.74 1.17,-0.55l0.05 0.02 -0.03 0.04c-0.09,0.14 -0.5,0.28 -0.71,0.36z"/>
   <path class="fil1" d="M8.83 19.71c-0.16,-0.37 -0.41,-0.51 -0.85,-0.54 -0.69,-0.05 -0.6,0.2 -0.99,0.46 -0.25,-0.18 -0.04,-0.24 -0.02,-0.3 0.01,-0.04 -0.17,-0.12 -0.19,-0.13 -0.32,-0.14 -1.26,-0.07 -1.18,0.67 0.9,-0.11 2.08,-0.04 3,0.2 0.11,-0.3 0.14,-0.21 0.24,-0.36zm-0.2 0.37c0.48,0.13 1.18,0.41 1.5,0.74 0.32,0.32 0.43,0.7 1.08,0.68 0.24,-0.27 0.53,-0.45 0.66,-0.79 -0.58,-0.32 -0.39,-0.11 -1.04,0.04 -0.13,-0.42 -0.28,-0.82 -0.79,-0.93 -0.78,-0.18 -1.03,0.17 -1.42,0.26z"/>
   <path class="fil4" d="M6 16.36c0.79,0.79 0.66,1.52 0.48,2.53 0.19,0.07 0.47,0.14 0.64,0.25l0.43 -0.19 -0.01 -0.44c-0.6,-0.36 -0.81,-0.63 -0.44,-1.25 0.22,-0.37 -0.24,-0.93 -0.46,-1.26 -0.1,0.08 -0.18,0.15 -0.3,0.21 -0.11,0.06 -0.24,0.09 -0.35,0.15zm7.01 11.34l2.08 0c-0.16,-0.26 -0.37,-0.44 -0.54,-0.7l-1.54 0.7zm-12.57 0l0.9 0 -0.21 -0.38c-0.21,0.06 -0.53,0.23 -0.69,0.38zm12.74 -10.85c0.95,0.16 1.4,-0.56 1.27,-1.34 -0.05,-0.32 -0.25,-0.62 -0.55,-0.79 -0.51,-0.3 -0.67,-0.02 -1.14,0.05l-0.09 0.01 0.03 -0.07c0.17,-0.36 0.58,-0.35 0.95,-0.35 0.1,-0.76 0.5,-2.01 0.73,-2.74 0.27,-0.85 0.53,-1.7 0.8,-2.55 0.29,-0.91 0.58,-1.83 0.91,-2.73 0.15,-0.41 0.31,-0.85 0.53,-1.24 0.17,-0.28 0.53,-0.68 0.6,-0.96 -0.55,-0.05 -1.02,0.22 -1.38,0.17 -0.08,-0.68 0.01,-1.28 -0.13,-1.96 -0.7,-0.05 -1.13,0.71 -1.22,0.77l-0.06 0.06c-0.09,-0.12 -0.11,-0.17 -0.14,-0.31l-0.11 -0.62c-0.06,-0.27 -0.14,-0.54 -0.19,-0.82 -0.87,0.33 -0.78,0.91 -1.36,1.07 -0.45,-1.45 -0.15,-0.74 -0.26,-1.58 -0.21,0.09 -0.48,0.25 -0.64,0.39 -0.2,0.18 -0.27,0.37 -0.52,0.59 -0.37,-0.21 -0.54,-1.19 -0.88,-1.54 -0.2,0.13 -0.36,0.37 -0.5,0.56 -0.18,0.25 -0.19,0.49 -0.43,0.76 -0.5,-0.27 -0.57,-1.07 -0.89,-1.41 -0.38,0.24 -0.48,0.97 -0.85,1.4 -0.47,-0.15 -0.44,-0.88 -1.01,-1.31 -0.22,0.49 -0.26,0.7 -0.35,1.18l-0.08 0.24c-0.36,-0.02 -0.42,-0.07 -0.55,-0.36 -0.07,-0.17 -0.15,-0.32 -0.24,-0.48l-0.2 -0.22c-0.09,0.22 -0.52,1.47 -0.56,1.52l-0.03 0.03c-0.45,-0.29 -0.15,-0.69 -0.8,-0.98 -0.05,0.62 -0.06,1.04 -0.18,1.66 -0.11,0.54 -0.43,2.81 -0.77,3.12 -0.21,0.18 -0.94,0.42 -0.72,1.08 0.32,0.08 0.69,-0.52 2.39,-0.25 0.48,0.08 0.91,0.18 1.31,0.43 0.22,0.14 0.43,0.3 0.64,0.45 0.45,-0.37 0.79,-0.74 1.37,-0.97 0.4,-0.16 0.82,-0.22 1.25,-0.22 1.14,-0.01 1.94,0.38 2.68,1.14 0.72,0.74 0.88,1.92 0.55,2.85 -0.81,2.33 -4.46,2.92 -6.03,0.6 -0.55,-0.82 0.12,-0.43 -0.9,-0.92 -0.52,-0.25 -0.74,-0.53 -1.44,-0.44 -0.55,0.07 -0.86,0.4 -0.88,0.91 -0.06,1.46 1.66,1.15 1.98,1.77l0.04 0.07c-0.53,-0.07 -0.71,-0.2 -1.19,-0.41 -0.88,-0.37 -1.02,-0.05 -1.95,-0.58 -0.16,-0.09 -0.3,-0.17 -0.48,-0.24 -0.39,0.91 -0.54,1.9 -1.03,2.78 -0.59,1.05 1.05,1.52 1.95,1.54l-0.23 -0.57c-0.32,-0.11 -0.47,0.02 -0.81,-0.21l0.13 -0.06c0.3,-0.07 0.54,-0.01 0.85,0.03 0.77,0.09 1.7,0.18 2.48,0.15 0.98,-0.03 1.35,-0.23 2.2,-0.41 0.44,-0.1 0.88,-0.15 1.33,-0.19 2.34,-0.2 3.48,1.63 4.14,3.42 0.57,1.54 -0.68,4.87 -2.13,3.63 -0.3,-0.26 -0.27,-0.32 -0.42,-0.48 -0.56,-0.59 -2.09,-0.85 -2.91,-0.89 -0.46,-0.02 -1.42,-0.14 -1.68,0.23 -0.33,0.47 0.02,0.87 0.49,1.08l0.03 0.01 0.01 1.28c1.2,-0.16 2.46,-0.18 3.61,0.19 0.34,0.11 0.65,0.25 0.97,0.4 0.2,0.1 0.43,0.21 0.65,0.27l0.11 -0.97c-0.42,-0.01 -1.08,-0.1 -1.32,-0.43l-0.04 -0.05c0.12,-0.02 0.13,-0.02 0.28,0.02 0.39,0.11 0.71,0.23 1.15,0.23 0.94,0.01 1.44,-0.62 1.72,-1.36 0.53,-1.4 0.33,-2.46 -0.08,-3.85 -0.23,-0.79 -1.09,-1.81 -0.98,-2.03l0.02 -0.04c0.16,0.05 0.25,0.19 0.34,0.33 0.12,0.19 0.23,0.39 0.33,0.59 0.06,0.11 0.42,0.83 0.51,0.9zm0.22 -1.03c-0.33,-0.01 -0.43,0.1 -0.7,-0l0.03 -0.04c0.21,-0.33 1.15,-0.26 1.33,0.07l0.02 0.04c-0.23,0.08 -0.21,0.04 -0.4,-0.03 0.05,0.25 0.05,0.51 -0.29,0.58l-0.07 0.01c0.05,-0.39 0.15,-0.28 0.08,-0.63z"/>
   <path class="fil2" d="M15.41 27.71l0.21 0c0.21,-0.36 0.35,-0.55 0.35,-0.98 -0.35,-0.03 -0.85,0.07 -1.17,0.21l0.62 0.77z"/>
  </g>
 </g>
</svg>
