<?xml version="1.0" encoding="UTF-8"?>
<!DOCTYPE svg PUBLIC "-//W3C//DTD SVG 1.1//EN" "http://www.w3.org/Graphics/SVG/1.1/DTD/svg11.dtd">
<!-- Creator: CorelDRAW -->
<svg xmlns="http://www.w3.org/2000/svg" xml:space="preserve" width="10.7113mm" height="14.683mm" version="1.1" style="shape-rendering:geometricPrecision; text-rendering:geometricPrecision; image-rendering:optimizeQuality; fill-rule:evenodd; clip-rule:evenodd"
viewBox="0 0 19.57 26.82"
 xmlns:xlink="http://www.w3.org/1999/xlink"
 xmlns:xodm="http://www.corel.com/coreldraw/odm/2003">
 <defs>
  <style type="text/css">
   <![CDATA[
    .fil0 {fill:black}
    .fil3 {fill:aqua}
    .fil1 {fill:#148AD4}
    .fil2 {fill:#DD1762}
    .fil5 {fill:#F9FAFB}
    .fil4 {fill:white}
   ]]>
  </style>
 </defs>
 <g id="Camada_x0020_1">
  <metadata id="CorelCorpID_0Corel-Layer"/>
  <g id="Figs_Desenho_VarCor_004">
   <path class="fil0" d="M7.23 0.46c0.07,-0.43 -0.33,-0.7 -0.88,-0.14 -1.01,1.01 -1.39,2.34 -1.69,3.69 -0.08,0.36 -0.23,1.48 -0.24,1.88 -0.01,0.8 0.08,1.62 0.33,2.38 0.26,0.77 0.42,1.1 0.8,1.62 0.36,0.5 0.7,0.88 1.1,1.33 0.39,0.44 0.48,0.53 0.81,1.04 0.33,0.49 0.12,0.52 -0.1,1.04 -0.1,0.22 -0.15,0.41 -0.24,0.63 -0.12,0.31 -0.15,1.3 -0.31,1.49 -0.3,0.34 -1.12,1.98 -1.21,2.31 -0.2,0.06 -0.51,0.1 -0.68,0.17 -0.15,0.06 -0.1,0.11 -0.29,0.13 -0.31,0.03 -1.4,-0.26 -1.78,-0.31 -0.14,-0.02 -0.26,-0 -0.39,-0.03 -0.56,-0.1 -1.72,-0.31 -2.25,-0.23 -0.18,0.03 -0.18,0.08 -0.18,0.22 0.22,0.09 0.77,0.01 1.11,0.03l1.07 0.13c0.44,0.05 1.71,0.2 1.97,0.43 -0.06,0.14 -0.15,0.18 -0.25,0.3 -0.34,0.42 -0.3,0.29 -1.01,0.28 -0.17,-0 -0.34,-0.08 -0.53,-0.09 -0.2,-0.01 -0.42,0 -0.62,-0.01 -0.51,-0.04 -1.02,-0.28 -1.51,-0.15l-0.19 0.1c0.09,0.07 0.29,0.11 0.46,0.11 0.46,0.01 1.74,0.24 2.24,0.33 0.25,0.05 0.72,0.01 0.92,0.07 0.02,0.2 -0.21,0.74 -0.25,1.03 -0.05,0.43 -0.35,0.4 -0.77,0.51 -0.16,0.04 -2,0.53 -1.63,0.79 0.13,0.09 0.34,-0.07 0.49,-0.12 0.17,-0.05 0.33,-0.1 0.46,-0.15 0.37,-0.13 0.67,-0.2 0.98,-0.28 0.72,-0.19 0.52,-0.25 0.65,0.34 0.22,0.98 0.24,0.86 0.67,0.8 0.15,0.16 0.27,0.44 0.38,0.65 0.07,0.12 0.13,0.22 0.2,0.33 0.08,0.11 0.11,0.2 0.19,0.3 0.09,0.12 0.47,0.43 0.5,0.53 0.13,0.38 -0.08,0.38 0.24,0.77 0.16,0.19 0.35,0.32 0.55,0.48 0.31,0.25 0.01,0.4 0.15,0.79 0.08,0.22 0.3,0.5 0.59,0.36 0.22,-0.1 0.22,-0.51 0.25,-0.76 0.18,-0.11 0.37,-0.08 0.6,-0.02 0.2,0.05 0.57,0.06 0.69,0.1 0.22,0.16 0.29,1.09 0.97,1.1 0.38,0.01 0.05,-0.38 1.61,-0.27 0.97,0.07 0.57,0.12 1.68,-0.11 0.17,-0.04 0.38,-0.09 0.55,-0.15 0.77,-0.23 0.05,-0.92 0.25,-1.38 0.9,-0.08 1.46,-0.1 1.73,-1.1 0.12,-0.42 -0.01,-0.39 0.37,-0.59 0.21,-0.11 0.32,-0.31 0.45,-0.5 0.08,-0.12 0.28,-0.53 0.36,-0.6 0.22,-0.19 0.32,0.07 0.49,-0.45 0.07,-0.22 0.08,-0.63 0.14,-0.77 0.1,-0.2 0.37,-0.09 0.34,-0.52 -0.01,-0.2 -0.1,-0.43 -0.17,-0.64 -0.18,-0.49 -0.48,-0.63 -0.66,-0.99 0.11,-0.22 0.35,-0.26 0.61,-0.35 0.28,-0.1 1.94,-0.63 1.74,-0.92 -0.13,-0.19 -0.96,0.3 -1.34,0.46 -0.59,0.24 -0.78,0.51 -1.31,0.07 0.07,-0.19 0.65,-0.36 0.86,-0.45 0.69,-0.31 1.52,-0.72 2.13,-1.16 0.21,-0.15 0.18,-0.13 0.11,-0.36 -0.24,0.05 -3.01,1.71 -3.53,1.7l-0.65 -0.28c0.11,-0.14 0.36,-0.22 0.54,-0.32 0.91,-0.48 1.77,-0.97 2.63,-1.52 0.19,-0.12 0.88,-0.51 0.75,-0.79 -0.16,-0.05 -0.2,0.03 -0.31,0.11 -0.79,0.61 -1.96,1.26 -2.84,1.72 -0.22,0.12 -0.9,0.52 -1.09,0.55 -0.17,-0.16 -0.46,-0.7 -0.59,-0.98 -0.98,-2.01 -0.54,-0.27 -0.92,-2.16 -0.07,-0.34 -0.36,-0.93 -0.36,-1.15 0.08,-0.09 0.11,-0.1 0.19,-0.2 0.06,-0.07 0.08,-0.14 0.15,-0.23 0.27,-0.4 0.64,-0.79 0.95,-1.15 0.55,-0.63 0.41,-0.36 0.76,-0.68l1.24 -1.61c0.2,-0.26 0.38,-0.59 0.51,-0.89 0.39,-0.87 0.55,-1.82 0.57,-2.79 0.03,-1.73 -2.05,-4.57 -2.8,-4.67 -0.19,0.15 -0.24,0.16 -0.19,0.49 0.03,0.18 0.08,0.43 0.08,0.58 -0.03,1.51 -1.16,3.23 -1.81,4.48 -0.37,0.69 -0.59,1.47 -0.87,2.2 -0.14,0.37 -0.24,0.82 -0.33,1.2 -0.1,0.39 -0.23,0.83 -0.29,1.22l-0.5 -0.08c-0.1,-0.24 -0.04,-0.31 -0.32,-0.37 -0.37,0.02 -0.29,0.53 -0.48,0.71 -0.2,-0.39 -0.13,-0.16 -0.45,-0.2 -0.07,-0.14 -0.12,-1.07 -0.14,-1.31 -0.09,-0.83 -0.18,-1.69 -0.4,-2.5 -0.36,-1.39 -0.74,-1.94 -1.24,-3.11 -0.52,-1.2 -0.64,-1.63 -0.62,-2.95l0.1 -0.62z"/>
   <path class="fil1" d="M12.99 11.67c-0.04,-0.06 -0.07,-0.03 -0.04,-0.26l0.28 -1.58c0.47,-2.42 1.6,-3.92 1.89,-5.42 0.06,-0.3 0.14,-0.58 0.17,-0.87 0.2,-1.61 -0,-1.89 0.59,-0.82 0.06,0.1 0.11,0.21 0.17,0.33 0.48,1.02 0.67,1.77 0.65,2.88 -0.02,1.06 -0.74,2.51 -1.42,3.29 -0.48,0.55 -1.61,1.54 -2,2.13 -0.11,0.17 -0.09,0.23 -0.29,0.32zm-7.89 -7c0.01,-0.39 0.21,-1.51 0.32,-1.84 0.09,-0.25 0.45,-1.32 0.73,-1.35 0.1,0.15 0.12,1.16 0.13,1.39 0.03,0.73 0.57,2.85 0.79,3.6 0.32,1.08 1.12,3.81 0.96,4.9 -0.21,-0.06 -0.21,-0.14 -0.31,-0.31l-0.73 -0.87c-1.08,-1.17 -1.46,-1.73 -1.79,-3.57 -0.16,-0.92 -0.12,-1.07 -0.1,-1.96zm-0.48 1.39c-0.03,1.63 0.51,3.14 1.6,4.35 0.19,0.21 0.33,0.41 0.53,0.62 0.82,0.85 0.67,0.91 0.99,1.32 0.47,-0.13 1,-0.82 1.69,0.21 0.1,0.14 0.09,0.17 0.13,0.37 -0.42,-0.1 -0.81,-1.1 -1.59,-0.27 -0.32,0.33 -0.64,1.18 -0.76,1.68 -0.08,0.34 -0.03,0.9 -0.1,1.12 -0.09,0.3 -0.1,-0.14 -0.52,0.72 -0.13,0.26 -0.28,0.53 -0.44,0.81 -0.1,0.18 -0.42,0.66 -0.33,0.85 0.01,0.01 0.03,0 0.03,0.01 0.02,0.05 -0.01,0.01 0.17,0.05l0.75 0.12c0.33,0.03 0.71,0.24 0.9,0.24 -0.01,-0.26 -0.45,-0.87 -0.44,-1.94l0.02 -0.91c0.01,-0.85 0.74,-2.65 1.49,-2.48 0.75,0.17 1.03,2.31 1.01,2.97 -0.01,0.71 0.03,1.31 -0.25,1.99 -0.14,0.34 -0.42,0.75 -0.43,0.8 0.12,0.1 0.46,0.29 0.69,0.26 0.25,-0.18 0.22,-0.56 0.67,-0.58 0.21,0.08 0.35,0.31 0.47,0.46 0.19,0.25 0.4,0.16 0.55,-0.05 -0.1,-0.16 -0.22,-0.15 -0.46,-0.53 -0.13,-0.22 -0.2,-0.44 -0.28,-0.7 -0.35,-1.22 -0.17,-2.97 0.76,-3.94 1.03,-1.06 1.5,0.43 1.61,1.26 0.03,0.24 0.13,0.5 0.12,0.73 -0.01,0.83 0.03,0.91 -0.21,1.79 -0.09,0.34 -0.25,0.58 -0.33,0.86 0.25,-0 0.53,-0.22 0.95,-0.39 0.38,-0.15 0.65,-0.21 1.04,-0.31 -0,-0.32 -0.68,-1.41 -0.87,-1.75 -0.03,-0.06 -0.11,-0.24 -0.14,-0.27 -0.15,-0.19 -0.13,-0.02 -0.3,-0.16 -0.04,-0.05 -0.22,-2.96 -1.39,-2.8 -0.42,0.06 -0.58,0.55 -0.83,0.63 -0.07,-0.21 0.36,-0.97 1.05,-0.96 0.45,0.01 0.51,0.31 0.79,0.37l1.23 -1.49c1.05,-1.23 2.28,-2.08 2.77,-4.04 0.18,-0.73 0.17,-1.14 0.18,-1.86 0,-0.29 -0.24,-1.01 -0.34,-1.28 -0.17,-0.45 -0.29,-0.73 -0.53,-1.11 -0.23,-0.36 -0.45,-0.64 -0.69,-0.95 -0.39,-0.49 -0.38,-0.38 -0.61,-0.62 -0.08,-0.09 -0.12,-0.16 -0.23,-0.2 -0.08,0.15 0.04,0.51 0.04,0.94 -0.02,0.97 -0.92,2.8 -1.45,3.68 -0.19,0.31 -0.45,0.77 -0.6,1.16l-0.88 2.54c-0.06,0.25 -0.12,0.45 -0.17,0.7l-0.32 1.43c-0.11,0.38 -0.01,0.57 -0.24,0.66 -0.1,-0.14 -0.04,-0.04 -0.06,-0.22 -0.01,-0.1 -0.01,-0.16 -0.02,-0.26 -0.02,-0.23 -0,-0.26 -0.11,-0.45 -0.24,0.13 -0.04,0.36 -0.34,0.46 -0.23,-0.26 -0.1,-0.59 -0.19,-0.87 -0.22,0.14 -0.22,1.01 -0.69,0.94l-0.07 -0.3c-0.3,0 -0.15,0.36 -0.47,0.33 -0.04,-0.49 0.01,-1.01 -0.05,-1.48 -0.03,-0.27 -0.03,-0.44 -0.05,-0.72 -0.02,-0.22 -0.09,-0.47 -0.1,-0.71 -0.05,-0.8 -0.35,-1.86 -0.58,-2.59 -0.23,-0.72 -0.63,-1.51 -0.96,-2.19 -0.47,-0.97 -0.66,-1.94 -0.64,-3.01 0,-0.19 0.16,-0.47 0.07,-0.81 -0.29,-0.03 -0.86,0.77 -0.98,0.96 -0.16,0.26 -0.14,0.18 -0.28,0.47 -0.03,0.07 -0.05,0.09 -0.08,0.17 -0.16,0.35 -0.46,1.14 -0.53,1.5l-0.38 2.66z"/>
   <path class="fil0" d="M5.56 4.31c0,-0.04 0.07,-0.37 0.07,-0.42 0.04,-0.2 0.02,-0.26 0.19,-0.35 0.01,0.41 0.23,1.4 0.32,1.77l1.08 3.57c0.17,0.65 0.25,0.65 0.21,1.24 -0.19,-0.11 -0.31,-0.28 -0.46,-0.47 -0.25,-0.32 -0,-0.13 -0.37,-0.49 -0.18,-0.18 -0.21,-0.47 -0.3,-0.59 -0.17,-0.22 -0.09,-0.01 -0.31,-0.56 -0.1,-0.27 -0.13,-0.47 -0.18,-0.7 -0.03,-0.13 -0.07,-0.22 -0.11,-0.35 -0.21,-0.68 -0.03,-0.26 -0.07,-0.7 -0.1,-1.01 -0.09,-0.92 -0.08,-1.95zm-0.46 0.36c-0.02,0.9 -0.06,1.04 0.1,1.96 0.33,1.85 0.7,2.4 1.79,3.57l0.73 0.87c0.1,0.17 0.1,0.25 0.31,0.31 0.17,-1.09 -0.64,-3.83 -0.96,-4.9 -0.22,-0.75 -0.76,-2.87 -0.79,-3.6 -0.01,-0.23 -0.03,-1.24 -0.13,-1.39 -0.28,0.03 -0.64,1.1 -0.73,1.35 -0.12,0.32 -0.32,1.45 -0.32,1.84z"/>
   <path class="fil0" d="M13.84 10.08c-0.16,-0.13 -0.19,-0.19 -0.15,-0.41 0.05,-0.25 0.28,-0.63 0.43,-1.24 0.04,-0.17 0.56,-1.07 0.7,-1.55 0.06,-0.19 0.13,-0.24 0.2,-0.39l0.42 -1.23c0.22,-0.55 0.29,-1.57 0.53,-1.67 0.16,0.49 0.33,1.51 0.33,1.98 -0,0.29 -0.02,0.26 -0.08,0.5 -0.15,0.62 -0.05,0.83 -0.34,1.41 -0.37,0.75 -0.24,0.44 -0.55,0.9 -0.05,0.07 -0.05,0.11 -0.1,0.19 -0.08,0.12 -0.17,0.17 -0.27,0.31 -0.15,0.21 -0.38,0.42 -0.57,0.58 -0.23,0.2 -0.35,0.54 -0.55,0.63zm-0.85 1.59c0.2,-0.09 0.17,-0.15 0.29,-0.32 0.39,-0.58 1.51,-1.58 2,-2.13 0.69,-0.78 1.41,-2.23 1.42,-3.29 0.02,-1.11 -0.17,-1.86 -0.65,-2.88 -0.06,-0.12 -0.11,-0.22 -0.17,-0.33 -0.6,-1.07 -0.39,-0.79 -0.59,0.82 -0.04,0.29 -0.12,0.57 -0.17,0.87 -0.29,1.5 -1.42,2.99 -1.89,5.42l-0.28 1.58c-0.03,0.22 0,0.2 0.04,0.26z"/>
   <path class="fil2" d="M5.56 4.31c-0.02,1.03 -0.02,0.94 0.08,1.95 0.04,0.44 -0.14,0.01 0.07,0.7 0.04,0.12 0.08,0.22 0.11,0.35 0.05,0.23 0.08,0.44 0.18,0.7 0.21,0.55 0.14,0.35 0.31,0.56 0.09,0.12 0.12,0.4 0.3,0.59 0.37,0.37 0.12,0.17 0.37,0.49 0.15,0.18 0.26,0.36 0.46,0.47 0.05,-0.59 -0.03,-0.59 -0.21,-1.24l-1.08 -3.57c-0.1,-0.38 -0.32,-1.36 -0.32,-1.77 -0.16,0.09 -0.15,0.14 -0.19,0.35 -0.01,0.05 -0.07,0.38 -0.07,0.42zm1.56 18.38c0.19,-0.01 0.26,-0.13 0.41,-0.22l0.91 -0.35c0.29,-0.05 0.28,0.07 0.51,-0.07 0.03,-0.17 -0.01,-0.17 -0.04,-0.35 -0.02,-0.13 -0.01,-0.26 -0,-0.39 0,-0.33 -0.12,-0.39 -0.11,-0.67 0,-0.18 -0.1,-0.41 -0.35,-0.43 -0.17,-0.01 -0.47,0.15 -0.57,0.22 -0.23,0.16 -0.21,0.24 -0.38,0.44 -0.44,0.53 -0.65,1.11 -0.36,1.81zm4.55 -2.07c-0.01,0.58 -0.09,0.97 0.12,1.36 0.35,0.05 0.48,-0.12 0.98,-0 0.41,0.1 0.26,0.02 0.96,0.21 0.2,0.05 0.38,0.15 0.56,0.09 0.28,-0.09 0.08,-0.55 0.02,-0.74 -0.12,-0.36 -0.95,-1.22 -1.5,-1.1 -0.05,0.29 0.09,0.38 -0.01,0.58 -0.05,0.11 -0.37,0.56 -0.56,0.09 -0.18,-0.44 -0.01,-0.5 0.09,-0.72 -0.1,-0.15 -0.13,-0.29 -0.4,-0.19 -0.16,0.06 -0.25,0.26 -0.25,0.43zm2.18 -10.53c0.2,-0.08 0.32,-0.43 0.55,-0.63 0.19,-0.17 0.42,-0.37 0.57,-0.58 0.1,-0.14 0.2,-0.19 0.27,-0.31 0.05,-0.08 0.05,-0.11 0.1,-0.19 0.31,-0.46 0.18,-0.15 0.55,-0.9 0.28,-0.58 0.18,-0.79 0.34,-1.41 0.06,-0.24 0.07,-0.21 0.08,-0.5 0.01,-0.47 -0.17,-1.49 -0.33,-1.98 -0.24,0.1 -0.31,1.12 -0.53,1.67l-0.42 1.23c-0.08,0.16 -0.15,0.2 -0.2,0.39 -0.14,0.47 -0.65,1.38 -0.7,1.55 -0.15,0.61 -0.37,0.99 -0.43,1.24 -0.05,0.22 -0.02,0.28 0.15,0.41z"/>
   <path class="fil3" d="M6.88 24.53c0.18,-0.01 0.09,-0.07 0.27,-0.04 0.12,0.02 0.57,0.24 0.95,-0.01 -0.29,-0.15 -0.52,-0.02 -0.83,-0.32 -0.19,-0.18 -0.35,-0.41 -0.43,-0.72 -0.06,0.06 -0.1,0.06 -0.09,0.27l0.13 0.82zm0.08 1.55c0.03,-0.15 0.03,-0.32 0.02,-0.47 -0.03,-0.37 -0.12,-0.31 -0.17,-0.34 -0.09,0.16 -0.21,0.84 0.15,0.81zm4.8 -11.98c-0.27,0.11 -0.44,0.53 -0.55,0.86 -0.13,0.39 -0.18,0.79 -0.22,1.23 -0.04,0.58 0.11,2.26 0.83,1.97 0.22,-0.09 0.46,-0.54 0.56,-0.85 0.21,-0.72 0.21,-1.15 0.2,-1.95 -0,-0.28 -0.09,-0.64 -0.21,-0.84 -0.09,-0.16 -0.23,-0.57 -0.62,-0.41zm-3.97 1.91c-0.01,0.66 -0.03,0.89 0.18,1.59 0.07,0.25 0.29,0.65 0.66,0.48 0.27,-0.13 0.38,-0.45 0.48,-0.77 0.26,-0.84 0.24,-0.94 0.25,-1.73 0.01,-0.4 -0.25,-1.93 -0.92,-1.48 -0.31,0.21 -0.64,1.3 -0.65,1.9zm4.68 4.56c-0.04,0.05 -0.03,-0.03 -0.06,0.13 -0.03,0.13 0.01,0.47 0.19,0.34 0.05,-0.03 0.19,-0.43 -0.12,-0.48zm-0.6 3.2c0.01,0.26 0.19,0.26 0.12,0.7l-0.1 0.92c-0.01,0.66 0.67,0.47 0.39,-0.13 -0.09,-0.19 -0.14,-0.34 -0.18,-0.56 -0.06,-0.31 -0.1,-0.36 0.08,-0.61 0.28,-0.4 0.68,-0.1 0.78,0.27 0.08,0.27 0.11,0.3 0.13,0.6l0.01 1.12c0.14,0.01 0.41,-0.07 0.42,-0.28 0.01,-0.39 -0.56,-1.22 -0.29,-1.75 0.15,-0.31 0.38,-0.21 0.71,-0.35 0.5,-0.21 0.49,-0.59 0.49,-1.02 0,-0.1 -0.01,-0.13 -0.04,-0.19 -0.17,0.05 -0.31,0.94 -1.2,1.16 -1.06,0.26 -0.36,0.1 -1.33,0.12zm-2.77 -2.86c0.02,-0.21 0.14,-0.47 -0.09,-0.61 -0.05,0.07 -0.08,-0.12 -0.02,0.3 0.01,0.05 0.01,0.1 0.02,0.14 0,0.01 0.01,0.05 0.02,0.07 0.04,0.09 0.02,0.04 0.07,0.1z"/>
   <path class="fil4" d="M4.92 18.24c0.14,0.05 0.14,0.04 0.29,0.06l3.94 1.28c0.03,0.25 -0.12,0.64 0.43,0.74 0.14,0.02 0.32,0.01 0.47,-0.05 0.31,-0.12 0.31,-0.07 0.74,-0.06 0.29,0 0.58,-0.14 0.68,-0.34 -0.05,-0.3 -0.18,-0.1 -0.14,-0.42 0.19,-0.16 0.27,-0.08 0.58,-0.09 0.23,-0 1.28,-0.46 1.57,-0.56 0.42,-0.14 1.86,-0.73 2.14,-0.73 -0.03,-0.19 -0.04,-0.19 -0.21,-0.25 -0.36,-0.14 -0.74,-0.06 -1.12,0.06 -0.19,0.06 -0.43,0.15 -0.63,0.22l-1.19 0.53c-0.4,0.18 -0.78,0.37 -1.16,0.56 -0.33,0.16 -0.6,0.7 -1.16,0.46 -0.24,-0.1 -0.23,-0.24 -1.13,-0.61 -0.87,-0.35 -2.84,-1.16 -3.78,-0.94 -0.34,0.08 -0.24,0.02 -0.31,0.15zm7.65 7.26c-0.01,0.78 -0.79,0.51 -0.89,0.35 -0.18,-0.25 0.15,-0.87 -0.05,-1.04 -0.07,-0.08 -0.17,-0.04 -0.33,-0.01 -0.42,0.07 -0.64,0.16 -1.04,0.34 -0.19,0.09 -0.39,0.19 -0.63,0.27 -0.61,0.19 -1.05,0.04 -0.45,0.91 0.29,0.42 0.43,0.13 0.7,0.02 0.53,-0.21 1.74,0.08 2.67,0 0.54,-0.05 0.25,-0.07 0.26,-0.97 0,-0.25 0.1,-0.85 -0.35,-0.68 -0.28,0.11 0.11,0.38 0.11,0.79zm-2.13 -4.96c-0.04,0.3 -0.03,0.77 -0.03,1.08l0.04 0.76c0.05,0.23 0.22,0.21 0.47,0.09 0.47,-0.22 0.4,-1.73 0.28,-1.96 -0.28,-0.04 -0.51,-0 -0.77,0.03zm-0.23 2.07l-0.08 -2.02c-0.06,-0.06 -0.5,0.05 -0.57,0.08 -0.23,0.12 -0.19,1.06 -0.17,1.31 0.04,0.4 0.39,0.7 0.83,0.63zm2.77 -3.37c0.04,0.03 0.04,0.06 0.2,0.05 0.08,-0.01 0.17,-0.05 0.23,-0.06l2.17 -0.51c0.17,-0.04 0.28,-0.07 0.43,-0.1 0.22,-0.05 0.3,-0.01 0.44,-0.17l-0.19 -0.13c-0.42,-0.13 -1.18,0.15 -1.62,0.31 -0.25,0.09 -1.55,0.54 -1.67,0.63zm-3.69 -3.65c0,-0.26 -0.11,-0.64 -0.23,-0.81 -0.53,-0.75 -1.12,0.48 -1.14,1.45 -0.01,0.46 0.1,1.5 0.68,1.32 0.36,-0.11 0.39,-0.32 0.48,-0.55 0.22,-0.52 0.19,-0.83 0.2,-1.41zm2.5 -0.88c-0.46,0.16 -0.98,1.57 -0.61,2.45 0.05,0.11 0.19,0.62 0.6,0.5 0.17,-0.05 0.45,-0.49 0.5,-0.58 0.18,-0.36 0.24,-1.35 0.08,-1.87 -0.06,-0.19 -0.29,-0.58 -0.56,-0.49zm-3.66 5.07c-0.19,-0.14 -2.11,-0.35 -2.54,-0.41l-1.32 -0.16c-0.44,0.01 -0.64,0.99 -0.66,1.17 -0.02,0.17 0.01,0.14 0.14,0.12 0.2,-0.03 0.41,-0.09 0.61,-0.12 0.9,-0.15 1.51,-0.29 2.46,-0.43l1.21 -0.13c0.09,-0.03 0.04,0 0.09,-0.04zm4.22 4.56l0.35 0.04c-0.04,-0.11 -0.06,-0.19 -0.2,-0.2 -0.15,-0.01 -0.14,0.04 -0.15,0.16zm-5.23 0.61c-0.04,0.19 -0.01,0.27 0.06,0.38 0.46,0.08 0.27,-0.01 0.53,-0.01 0.35,0.01 0.5,0.27 1.22,0.04 0.32,-0.1 0.73,-0.28 1.07,-0.41 0.4,-0.16 0.59,-0.3 1.03,-0.39 0.07,-0.02 0.61,-0.11 0.62,-0.12 0.16,-0.12 -0.01,-0.45 -0.07,-0.53 -0.25,-0.31 -0.77,-0.07 -1.09,0.03 -0.42,0.13 -0.71,0.17 -1.14,0.33 -0.33,0.12 -0.66,0.3 -0.95,0.48 -0.44,0.29 -0.75,0.13 -1.27,0.2zm5.66 -5.25c0.01,0.01 0.02,0 0.03,0.02l0.31 0.11c0.54,0.2 1.23,0.7 1.75,0.98 0.16,0.09 0.21,0.06 0.21,0.25 -0.14,0.05 -0.35,0.01 -0.52,0.01 0.03,0.48 0.68,2.34 -0.51,2.84 -0.37,0.15 -0.61,0.14 -0.73,0.5 0.02,0.33 1.4,0.5 1.74,-0.45 0.18,-0.52 0.1,-0.73 0.32,-0.85 0.1,-0.06 0.23,-0.05 0.39,-0.22 0.4,-0.42 0.73,-1.35 0.77,-1.39 0.08,-0.06 0.06,-0.03 0.11,0 0.07,0.04 -0,0 0.06,0.06 0.08,0.07 -0.06,0.02 0.07,0.06 0.13,-0.38 0.12,-0.91 0.13,-1.38 0.26,0.02 0.12,0.03 0.33,0.13 -0,-0.47 -0.37,-0.94 -0.55,-1.17 -0.38,-0.48 -0.63,-0.34 -1.21,-0.18l-2.56 0.57c-0.15,0.06 -0.07,0.01 -0.14,0.11zm-8.74 2.18c0,-0.17 -0.01,-0.34 0.07,-0.48 0.1,0.04 0.07,0.02 0.12,0.1l0.37 0.78c0.03,0.06 0.11,0.18 0.17,0.28 0.17,0.29 0.5,0.99 0.79,1.02 0.2,-0.24 0.1,-0.46 0.32,-0.64 -0.02,1.13 -0.36,1.23 0.29,1.87 0.12,0.12 0.29,0.32 0.48,0.31 0.08,-0.15 0.02,-0.43 -0.07,-0.59 -0.17,-0.31 -0.1,-0.48 -0.09,-0.99 0,-0.17 -0.06,-0.34 -0.07,-0.5 -0.03,-0.4 0.16,-1.07 0.29,-1.44 0.09,-0.26 0.27,-0.59 0.38,-0.78 0.09,-0.16 0.47,-0.54 0.48,-0.61 -0.45,-0.08 -3.45,0.39 -3.67,0.55 -0.15,0.1 -0.12,0.96 0.14,1.11zm-0.01 -2.93c0.94,0.07 1.01,0.06 1.98,0.2 0.18,0.03 0.31,0.05 0.49,0.06l0.92 0.16c0.16,0.04 0.32,0.13 0.39,-0.01l-3.02 -0.9c-0.37,-0.11 -0.7,0.29 -0.76,0.49z"/>
   <path class="fil5" d="M10.2 18.92c-0.24,0.1 -0.17,0.21 -0.03,0.38 0.12,0.14 0.26,0.24 0.46,0.07 0.49,-0.41 -0.14,-0.58 -0.42,-0.45z"/>
  </g>
 </g>
</svg>
