<?xml version="1.0" encoding="UTF-8"?>
<!DOCTYPE svg PUBLIC "-//W3C//DTD SVG 1.1//EN" "http://www.w3.org/Graphics/SVG/1.1/DTD/svg11.dtd">
<!-- Creator: CorelDRAW -->
<svg xmlns="http://www.w3.org/2000/svg" xml:space="preserve" width="59.6857mm" height="59.9762mm" version="1.1" style="shape-rendering:geometricPrecision; text-rendering:geometricPrecision; image-rendering:optimizeQuality; fill-rule:evenodd; clip-rule:evenodd"
viewBox="0 0 153.01 153.75"
 xmlns:xlink="http://www.w3.org/1999/xlink"
 xmlns:xodm="http://www.corel.com/coreldraw/odm/2003">
 <defs>
  <style type="text/css">
   <![CDATA[
    .fil0 {fill:#060909}
    .fil15 {fill:#199C02}
    .fil17 {fill:#1C9C02}
    .fil23 {fill:#424E3D}
    .fil24 {fill:#638C5C}
    .fil10 {fill:#66905E}
    .fil14 {fill:#70A676}
    .fil13 {fill:#72A876}
    .fil1 {fill:#73AA78}
    .fil7 {fill:#83AB82}
    .fil5 {fill:#990000}
    .fil12 {fill:#990201}
    .fil19 {fill:#C2CFCA}
    .fil22 {fill:#CDC7B2}
    .fil27 {fill:#D6AB00}
    .fil20 {fill:#DAB100}
    .fil25 {fill:#DB3100}
    .fil26 {fill:#DC0A09}
    .fil11 {fill:#DEB200}
    .fil9 {fill:#F1E700}
    .fil18 {fill:#F6F5E6}
    .fil6 {fill:#F7EBD3}
    .fil8 {fill:#F9D900}
    .fil2 {fill:#FBFAE2}
    .fil21 {fill:#FCFAF4}
    .fil3 {fill:#FD9C92}
    .fil16 {fill:#FEFCFA}
    .fil4 {fill:#FEFEFE}
   ]]>
  </style>
 </defs>
 <g id="Camada_x0020_1">
  <metadata id="CorelCorpID_0Corel-Layer"/>
  <g id="_2015451603776">
   <path class="fil0" d="M23.92 36.03c1.4,2.88 3.01,21.69 3.47,26.98 0.2,2.36 0.2,1.88 -1.19,3.29 -0.88,0.9 -1.33,1.93 -2,2.53 -1.1,-0.08 -4.2,-1.31 -5.63,-1.71 -1.87,-0.53 -3.84,-0.94 -5.78,-1.26 -1.28,-0.21 -11.62,-1.52 -12.8,-0.08 0.64,0.64 2.04,0.39 3.09,0.44l9.26 0.92c2.8,0.38 7.17,1.53 9.96,2.41 2,0.68 1.13,0.83 1.48,5.11 -2.74,0.77 -10.23,-0.22 -20.14,4.54 -2.32,1.11 -1.72,0.92 -1.89,1.49 3.48,-1.07 7.53,-2.43 11.03,-3.21 14.47,-3.2 10.96,-0.85 14.28,5.33 1.47,2.74 1.57,3.59 1.67,6.78 0.08,2.51 0.64,12.12 0.16,13.65 -3.42,0.85 -4.71,-0.36 -6.13,3.59 -0.78,2.18 -1.46,4.15 -2.21,6.36 -0.56,1.64 -4.54,11.89 -3.84,12.87 1.7,1.33 4.21,0.18 6.27,0.8 0.03,1.08 -4.08,11.97 -4.97,14.41 -0.51,1.4 -1.64,3.5 -0.94,5.08 1.85,0.52 8.39,0.26 11.07,0.47 1.58,0.13 1.52,0.89 2.31,2.03 2.68,3.89 7.48,2.94 12.88,3.3 0.56,1.14 0,1.47 1.16,1.61l16.33 -1.18c5.76,-0.06 11.76,0.34 17.48,0.51 5.89,0.17 11.67,0.21 17.61,0.26 5.55,0.05 8.68,0.81 11.6,-3.32 0.8,-1.13 1.06,-2.24 1.75,-3.22l4.19 -0.42 0.86 -0.6c5.34,-2.78 4.91,-5.89 5.4,-13.75 0.07,-1.09 0.36,-3.48 0.09,-4.58 -0.53,-2.16 -2.07,-1.31 -1.08,-3.93 2.17,-5.75 0.31,-6.23 -0.3,-8.3 0.63,-0.47 2.59,-1.49 2.98,-2.08 0.27,-0.4 0.85,-3.07 0.88,-3.73 0.16,-3.85 -3.23,-3.5 -5.3,-4.23 -0.29,-1.47 1.02,-9.24 1.34,-11.74 0.26,-2.01 0.12,-2.3 1.93,-3.16 0.37,-0.64 1.25,-1.26 1.87,-1.9 5.47,-5.64 10.82,-17.74 21.15,-20.03 4.37,-0.97 3.76,-0.5 7.47,2.64 0.32,0.27 1.9,1.84 2.06,0.76 0.26,-1.8 0.25,0.96 0.05,-0.55 -0.17,-1.28 -3.94,-6.39 -4.81,-7.44 -4.66,-5.66 -11.17,-10.41 -17.76,-13.38 -0.97,-0.44 -3.26,-1.24 -3.81,-1.84 -0.94,-0.14 -1.26,-0.31 -1.97,-0.84 -0.56,-2.72 1.71,-19.82 2.1,-23.79 1.11,-11.27 -8.99,-9.91 -17.34,-10.25l-18.48 -0.84c-3.43,-0.26 -2.64,-0 -4.8,-2.05 -3.69,-3.5 -8.53,-6.31 -12.84,-8.76 -0.96,-0.55 -4.06,-2.55 -4.54,-1.88 -0.6,0.83 4.32,3.9 5.58,8.11 0.3,1.01 0.77,2.85 0.02,3.6 -1.04,1.04 -42.83,-1.62 -45.64,-0.65 -3.82,1.32 -3.99,4.73 -4.68,6.1 -1.58,3.13 -2.7,3.2 -1.71,8.21 0.42,2.15 2.18,9.01 1.73,10.52z"/>
   <path class="fil1" d="M76.85 57.71c-1.46,0.28 -1.34,-0.3 -1.38,-1.65 -0.21,-8.21 5.39,-14.66 1.14,-16.79 -3.06,-1.54 -7.05,1.97 -8.11,1.24 -1.83,-1.27 6.35,-7.08 9,-7.31 3.32,3.16 5.61,1.69 7.44,5.19 -0.53,1.5 -1.3,0.57 -0.99,2.88 0.45,3.29 -0.61,2.32 -1.2,5.85 -0.85,5.04 -1.48,1.47 -3.41,3.85 -2.69,3.32 -1.99,5.47 -2.49,6.74zm-2.82 -25.98c-3.76,-0.23 -6.61,-0.64 -10.63,0.47 -3.32,0.91 -1.07,4.3 0.47,6.89 1,1.69 2.05,4.31 3.01,5.59 2.14,-0.32 3.87,-2.26 5.97,-2.27 3.94,2.45 0.6,14.07 -0.44,16.86 -1.28,3.46 -3.49,7.73 -5.49,10.73 -0.52,0.78 -2.08,2.65 -1.67,3.62 2.06,-0.09 7,-1.22 8.01,0.36 -0.96,1.18 -5,-0.54 -9.53,1.25 -7.32,2.89 -5.47,10.8 -1.56,15.01 2.12,2.29 6.28,3.25 6.52,4.36 -1.37,0.41 -4.87,-2.74 -6.85,-2.83 0.2,1.52 0.77,1.82 1.6,2.66 2.09,2.14 7.97,8.63 9.14,10.81 0.78,1.45 0.46,2.01 0.11,3.09 -0.44,1.39 0.24,2.23 1.4,2.36 0.92,-4 1,-4.77 3.82,-5.49 3.29,-0.83 5.51,-0.03 8.29,0.15 2.31,0.15 5.77,-0.17 8.2,-0.17 1.69,-0 7.06,0.29 8.29,-0.09 -0.36,-0.73 -2.06,-2.58 -2.57,-3.12 -2.72,-2.88 -13.36,2.08 -14.27,1.86 -0.11,-0.8 -0.35,-0.76 2.15,-1.98 6.27,-3.09 9.16,-1.58 10.96,-1.99l-0.61 -1.16c3.44,-2.07 8.66,2.05 9.46,2.07 2.37,-3.81 -3.55,-10.84 -4,-14.53 0.5,-1.1 1.2,-2 1.85,-3.34 1.04,-2.15 2,-5.42 2.67,-7.71 0.53,-1.82 0.37,-2.65 0.51,-4.4 2,-0.15 2.41,2.42 3.72,2.69 0.87,-1.66 -2.46,-4.35 -2.79,-5.8l1.93 -1.56c-0.49,-0.35 0.1,-0.03 -0.68,-0.31 -0.27,-0.1 -0.35,-0.07 -0.69,-0.19 -5.33,-1.93 4.08,-12.19 18.78,-8.01 5.83,1.66 12.02,4.18 16.45,7.7 0.61,0.49 4.02,3.5 4.74,3.68 0.36,-2.01 -7.93,-9.63 -9.11,-10.59 -7.2,-5.93 -16.31,-10.59 -26.15,-11.11 -2.75,-0.15 -5.9,0.16 -8.74,0.35 -1.42,0.09 -2.84,0.15 -4.29,0.23 -1.95,0.1 -2.99,0.47 -3.85,-0.98l2.64 0.05c-0.08,-1 -4.35,-5.58 -5.5,-7.09 -0.81,-1.06 -4.92,-7.21 -5.44,-7.62 -0.34,1.44 2.49,4.54 3.1,6.56 -1.24,-0.35 -0.98,-0.73 -2.51,-2.15 -4.35,-4.04 -14.4,-9.9 -19.85,-10.25 1.01,0.61 2.21,1.05 3.4,1.62 1.04,0.5 9.15,4.63 9.42,5.55 0.13,0.46 0.08,0.26 -0.01,0.55 -0.81,0.28 -14.56,-7.22 -20.08,-6.53 1.44,-0.03 4.07,1.43 5.21,2.05 1.75,0.95 4.61,0.76 5.5,2.12z"/>
   <path class="fil2" d="M61.41 119.75c-0.18,-1.37 1.29,-4.78 1.91,-6.24 0.39,-0.9 0.36,-1.13 1.22,-1.66 0.2,1.55 -1.02,7.35 -2.05,8.14l-1.08 -0.24zm-9.14 -9.88c0.55,-0.65 1.33,-0.57 1.5,0.4 0.1,0.54 -1.38,4.79 -1.62,5.54 -0.32,1.01 -2.03,6.76 -2.39,7.1 -0.59,0.57 -1.4,0.38 -1.55,-0.47 -0.1,-0.55 3.55,-11.98 4.04,-12.57zm-15.09 9.24c-0.03,-1.11 0.78,-3.01 1.16,-4.08 0.67,-1.89 0.93,-3.05 2.04,-3.6 0.1,1.96 -1.12,6.65 -1.86,7.94l-1.34 -0.26zm-18.92 6.22c5.72,0.52 3.82,-1.25 6.08,-7.27 0.32,-0.84 0.09,-0.61 0.76,-0.94 0.81,1.24 -0.54,6.26 0.16,8.25 1.22,0.35 7.8,0.8 9.07,0.38 0.77,-1.04 1.41,-4.45 3.01,-3.19 0.95,0.82 -0.46,1.64 0.01,3.31 1.23,0.45 5.81,0.32 7.61,0.37 1.26,0.03 2.57,0.1 3.87,0.07 1.36,-0.02 3.3,-0.65 4.44,-0.41 2.42,0.5 4.89,2.21 6.06,-0.83 0.32,-0.83 0.86,-2.8 2.23,-1.91 1.53,1 -1.78,3.44 1.15,3.76 0.39,0.04 0.85,0.02 1.21,0.04 2.02,0.08 2.64,0.24 2.99,-1.24 0.65,-2.79 2.54,-18.29 2.45,-18.77 -1.79,-0.27 -5.29,-0.56 -7.27,-0.27l-3.41 7.79c-0.4,0.93 -0.56,2.03 -1.52,2.68 0.2,-2.57 3.09,-8.01 1.27,-9.66 -1.06,-0.97 -2.89,-1.05 -4.83,-1.17 -1.42,-0.09 -4.13,-0.42 -5.47,-0.12 -1.34,1.9 -3.27,12.28 -4.4,13.29 -0.96,-1.1 2.26,-10.83 1.6,-13.27 -0.98,-0.35 -6.26,-0.46 -7.31,-0.2 -0.43,0.27 -3.58,8.06 -4.24,9.59 -0.57,1.33 -0.95,2.75 -1.71,3.13 -0.18,-2.39 3.96,-10.99 3.6,-12.84 -0.67,-0.3 -2.22,-0.46 -3.14,-0.24 -1.28,0.29 -1.26,1.2 -1.62,2.4l-1.21 4.14c-0.31,1.09 -0.12,0.94 -0.96,1.44 -0.24,-2.2 0.34,-6.27 -0.19,-7.91 -0.93,-0.24 -3.02,-0.36 -4.11,-0.01l-4.89 14.44c-0.42,1.29 -1.59,3.76 -1.29,5.17z"/>
   <path class="fil3" d="M115.29 61.64c0.6,4.54 -3.44,5.3 -4.15,6.5 0.2,0.5 4.03,4.91 3.96,9.34 -0.03,1.7 0.21,-1.34 -0.05,0.45l-0.12 0.43c-1.37,-0.06 -0.99,-0.73 -2.39,-2.98 -0.55,-0.89 -1.57,-2.64 -2.62,-2.83 -0.24,5 3.54,8.1 3.79,9.64 -2.47,0.38 -3.31,-2.49 -4.87,-3.54 -0.97,0.56 -1.2,2.18 -1.62,3.23 -1.39,3.53 -2.86,3.53 -1.15,7.72 0.69,1.69 0.95,2.59 2.4,2.86 6.27,1.17 11.58,-2.87 14.31,-6.33 4.31,-5.46 8.21,-12.18 14.38,-16.22 3.44,-2.26 4.05,-2.05 8.3,-3.03 -0.31,-0.96 -1.22,-1.22 -1.93,-1.69 -2.7,-1.78 -3.62,-2.5 -6.95,-4.06 -18.11,-8.51 -29.97,2.03 -25.9,3.63 1.72,0.68 2.9,-2.56 4.6,-3.13z"/>
   <path class="fil4" d="M93.81 120.8c-0.04,-0.94 1.97,-7.38 3.18,-7.93 0.26,1.23 -1.22,6.98 -1.9,8.19l-1.29 -0.26zm12.78 -4.39c0.15,-0.81 0.14,-1.57 0.96,-1.77l0.65 2.53c0.77,1.21 1.89,1.83 2.84,2.95 1.66,1.96 0.18,2.73 0.43,4.42l4.89 -0.56c0.63,-3.15 1.84,-4.74 -1.2,-7.45 -0.7,-0.62 -2.11,-1.64 -2.34,-3.01 -0.21,-1.26 0.39,-2.78 1.6,-2.84 0.73,1.09 -0.13,1.45 0.13,3.05 1.32,-0.03 2.64,0.15 3.99,-0.22 0.67,-0.77 1.5,-2.59 1,-4.19 -0.67,-2.13 -5.84,-2.45 -8.15,-1.17 -2.1,1.16 -1.66,1.96 -2.94,2.47 -0,-1.3 0.65,-1.35 0.52,-2.78 -0.97,-0.43 -3.23,-0.51 -4.54,-0.16 -0.38,0.26 -2.85,8.83 -3.3,10.41 -0.44,1.55 -0.54,2.72 -1.35,3.3 0.04,-2.93 2.34,-11.69 1.92,-13.63 -0.99,-0.23 -6.17,-0.45 -7.36,-0.12 -0.69,1.87 -1.68,4 -2.49,5.93 -0.49,1.19 -1.76,5.11 -2.76,5.84 -0.19,-1.95 3.48,-10.17 3.24,-11.91 -0.89,-0.41 -5.24,-0.5 -6.41,-0.21 -0.39,0.26 -2.23,5.02 -2.71,6.16 -0.86,2.03 -0.42,1.51 -1.2,1.85 -0.27,-2.05 1.43,-5.97 0.87,-8.01 -0.92,-0.43 -2.42,-0.26 -3.66,-0.31 -1.51,-0.06 -2.47,-0.34 -3.02,0.83 -0.64,1.36 -1.35,4.62 -1.84,6.38 -0.69,2.49 -3.76,10.98 -3.45,12.81 0.71,0.19 3.44,0.54 4.1,-0.11 0.51,-0.5 1.92,-6.45 2.25,-7.57 0.49,-1.68 0.52,-3.19 1.38,-3.64 0.65,1.24 -1.99,9.42 -1.28,11.55 1.1,0.14 1.5,0.17 2.66,-0.2 1.35,-1.36 4.53,-11.13 5.61,-11.8 0.28,1.7 -3.36,9.37 -3.38,11.88 1.64,0.39 4.84,0.29 6.88,0.02 1.56,-0.21 2.14,-0.23 2.74,-1.51 0.46,-0.98 0.65,-1.93 2.12,-1.38 0.45,0.98 -0.29,1.08 0.61,2.16l9.42 -1.19c0.5,-0.87 0.69,-3.1 1.42,-3.25 -0.14,0.91 -0.84,1.38 -0.29,2.8 0.61,1.56 3.68,2.16 4.41,-0.69 0.26,-1.03 0.59,-1.88 0.53,-2.88 -2.18,-0.75 -2.25,-0.16 -4.54,-0.08l1.03 -4.71z"/>
   <path class="fil2" d="M36.64 96.37c-2.21,-0.98 -0.14,-2.46 0.32,-3.22 1.3,-2.15 -3.2,-5.63 -1.61,-8 0.76,0.21 0.6,0.1 0.86,1.14 1.48,5.98 5.18,5.98 4.55,9.02 -0.59,1.29 -3.02,1.55 -4.12,1.06zm4.49 -23.73c0.47,-0.23 0.71,-0.37 0.7,0.33 0.4,0.72 1.85,2.04 0.89,3.44 -0.56,0.59 -2.22,0.36 -3.24,0.54 -1.2,0.2 -2.5,0.86 -3.37,0.85 -0.79,-1.11 -1.74,-3.64 -2.09,-5.03 -0.78,0.3 -0.49,0.17 -1.55,0.12 -1.18,-0.06 -0.37,0.22 -1.39,-0.26 -0.24,0.8 0.29,0.27 -0.63,0.43 -0.71,0.13 -1.14,-0.64 -2.17,-0.87 -0.67,0.69 -1.01,2.06 -0.87,2.98 0.53,0.88 3.1,0.41 3.5,2.04 -1.5,0.14 -1.98,-1.04 -4.03,-0.53 0.02,3.99 1.49,6.47 3.31,9.46 1.64,2.68 4.88,6.31 5.11,7.79 -0.52,0.69 -1.63,1.62 -0.52,3.03 0.68,0.85 1.75,0.72 3.06,1.02 2.81,0.65 4.7,6.14 11.06,6.23 9.05,0.13 10.48,1.5 2.47,-10.59 -1.06,-1.61 -6.3,-8.22 -6.6,-9.2 1.25,0.24 2.9,2.74 3.74,3.73 2.4,2.85 4.38,5.74 6.31,8.93 0.8,1.32 1.94,4.14 2.91,5.1 1.37,-0.53 2.91,-4.08 3.29,-5.98 0.68,-3.38 -1.73,-4.56 -3.36,-5.97 -2.09,-1.8 -7.05,-5.7 -9.55,-7.22 -0.76,-0.46 -1.05,-0.53 -1.39,-1.41 1.31,-0.11 2.91,1.38 3.86,2.03l7.01 5.49c1,0.84 2.36,2.37 3.75,2.68 -0.54,-2.03 -1.96,-3.54 -2.67,-5.4 -0.88,-2.3 -0.31,-5.51 -2.63,-5.42 -0.06,1.09 0.47,1.62 0.16,2.45 -0.69,-0.26 -0.35,0.35 -1.23,-1.94 -0.62,-1.61 -2.8,-5.38 -4.12,-5.75 -0.95,6.34 0.66,3.76 1.47,5.98 -1.78,0.86 0.36,-0.38 -3.74,-0.86 -1.06,-3.26 -1.45,-2.05 -2.28,-3.72 0.53,-0.01 1.29,0.16 1.73,-0.04 0.35,-1 0.58,-2.62 0.33,-3.87 -1.44,-1.08 -4.68,-2 -7.07,-1.37l-0.12 0.78z"/>
   <path class="fil5" d="M97.71 22.09c-3.56,1.68 -1.76,5.93 -1.19,9.71 1.16,7.71 -0.47,3.79 3.6,9.72 2.88,4.2 1.97,4.69 7.75,4.37 13.21,-0.72 12.11,2.97 12.27,-10.03 0.01,-1.01 -0.62,-5.02 -0.89,-6.11 -0.89,-3.64 -1.47,-1.61 -2.94,-3.65 -3.32,-4.58 -7.42,-2.85 -13.69,-3.65 -1.92,-0.25 -2.66,-1.42 -4.9,-0.37z"/>
   <path class="fil5" d="M34.28 19.24c-0.06,1.35 1.68,3.93 2.27,5.62 2.68,7.66 3.05,5.91 6.19,10.35 1.05,1.48 2.08,3.56 3.54,4.46 2.66,0.11 5.68,-2.89 6.5,-4.23 0.5,-0.82 2.71,-6.12 2.68,-6.8 -0.89,-0.72 -3.22,-0.9 -3.48,-2.31 -0.38,-2.11 5.68,-0.97 7.01,-1.17 0.35,-1.27 0.13,-2.03 1.8,-2.14 1.19,-0.08 2.27,0.11 3.33,0.31 1.58,0.3 4.92,1.21 6.58,0.72 0.38,-0.93 1.16,-2.61 0.64,-3.99 -1.43,-0.41 -15.79,-0.61 -18.39,-0.66 -2.34,-0.05 -17.93,-0.77 -18.67,-0.16z"/>
   <path class="fil6" d="M36.78 131.26c0.69,0.87 -0.3,3.02 -0.61,4.22 -0.28,1.08 -0.54,4.1 -2.18,3.43 -1.1,-0.45 0.52,-3.11 0.85,-3.93 0.35,-0.85 1.29,-3.38 1.93,-3.72zm-5.92 2.42c-4.49,0.65 -2.88,-1.85 -1.96,-4.19 5.86,-1.34 2.75,2.59 1.96,4.19zm8.9 7.67c-0.47,-1.89 2.43,-11.52 2.02,-13.88 -1.18,-0.33 -2.93,-0.07 -4.28,-0.34 -2.9,-0.59 -2.11,0.19 -4.51,0.18 -2.3,-0.01 -5.93,-0.81 -8.53,-0.25l-4.74 13.5c-0.45,1.25 -1.44,3.25 -1.17,4.59 1.18,0.24 3.31,0.45 4.69,0.04 1.15,-1.75 1.88,-5.9 3.16,-7.9 0.94,-0.4 1.6,-0.36 2.43,0.01 0.12,1.63 -3.52,6.57 -3.25,8.11 1.01,0.3 3.9,0.26 5.02,-0.07 1.21,-1.55 0.75,-3.98 3.31,-3.09 0.42,1.89 -0.75,1.66 -0.25,3.47 2.01,0.25 4.55,0.19 6.67,0.23 2.48,0.05 4.79,0.71 5.6,-1.76 -0.75,-1.21 -1.85,-1.26 -1.45,-3.41 0.46,-2.49 1.01,-2.36 1.76,-2.72 -0.52,-0.66 -1.11,-0.68 -1.82,-0.85l-0.2 -1.85c-2.11,1.96 -3.09,5.61 -4.47,5.98z"/>
   <path class="fil7" d="M72.39 25.52c4.18,1.64 8.58,2.99 12.51,5.58 1.33,0.88 2.47,2.15 4.04,2.43 -0.58,-1.95 -5.16,-9.14 -5.54,-12.51 1.61,-0.43 1.65,0.53 3,3.01 1.35,2.49 3.29,5.85 4.78,8.14 0.71,1.1 1.81,3.4 2.99,3.87 0.36,-6.92 -2.54,-16.4 -6.18,-21.53 -2.1,-2.96 -4.4,-4.48 -6.78,-6.14 -1.2,-0.84 -6.66,-4.34 -7.88,-4.62 2.51,4.16 2.93,6.59 1.75,11.35 -0.54,2.17 -2.85,9.49 -2.69,10.4z"/>
   <path class="fil8" d="M104.4 129.62c0.45,-1.23 1.2,-3.66 -0.94,-3.43l-16.54 2.26c-0.53,1.01 -0.24,2.56 -0.31,3.74 -0.1,1.71 -0.78,2.46 -0.79,3.15 -0.01,2.27 0.54,1.03 -0.13,3.67 -1.16,4.5 1.06,3.5 1.73,5.08 -1.52,1.51 -2.72,1.42 -2.29,4.47 1.39,-0.06 3.79,-0.28 5.16,-0.86 1.07,-1.04 0.83,-15.11 1.87,-16.08 0.87,-0.58 3.18,-0.32 4.04,0.03l-0.43 0.61c-0.58,0.71 -0.64,0.51 -0.9,1.45 -0.27,0.97 -0.2,1.34 -0.66,2.19 0.76,0.95 1.1,0.11 0.78,1.82 -0.15,0.78 -0.3,1.27 -0.34,2.1 -0.17,2.99 0.14,1.81 -1.51,3.65 0.31,1.15 0.65,0.95 0.82,1.89 0.18,0.94 -0.23,0.82 -0.01,1.9 1.1,0.35 3.98,0.16 5.06,-0.53 1.2,-1.47 0.84,-13.91 2.09,-16.4l3.31 -0.67z"/>
   <path class="fil9" d="M113.62 143.59c-3.27,1.13 -2.2,-2.05 -1.72,-7.1 0.5,-5.29 -0.02,-7.56 2.77,-6.54 0.57,1.42 -0.09,5.34 -0.24,6.98 -0.16,1.74 -0.28,5.42 -0.81,6.66zm-7.79 -8.57c-0.32,1.18 -0.14,2.45 -0.29,3.9 -0.11,1.14 -0.7,2.59 -0.02,3.46 0.54,0.69 0.63,0.46 1.07,1.42 0.57,1.26 0.77,2.13 4.65,1.71 7.03,-0.76 7.02,-5.18 7.48,-10.8 0.15,-1.81 0.81,-6.26 -0.09,-7.77 -1.6,-2.68 -7.25,-1.98 -10.17,0.34 -1.16,0.93 -1.06,1.61 -1.62,2.82 -0.42,0.91 -1.62,1.72 -0.98,3.04 0.79,1.62 2.28,0.24 3.04,1.28 -0.96,1.08 -0.97,-0.17 -3.09,0.6z"/>
   <path class="fil10" d="M55.56 34.03c1.82,1.38 2.56,0.33 4.12,5.79 1.62,5.67 2.68,10.87 5.49,16.14 1,1.87 3,5.03 4.6,5.52 1.9,-1.6 5.19,-13.79 2.93,-17.34 -0.7,-0.64 -4.19,1.51 -4.49,2.03 0.58,1.43 2.71,1.89 2.39,3.24l-0.45 0.11 -3.93 -4.16c-0.68,-1.06 -1.12,-1.82 -1.7,-2.93 -0.49,-0.94 -1.07,-2.48 -1.78,-2.83 -0.18,1.51 0.76,3.38 0.4,4.79 -1.64,0.12 -1.59,-1.76 -1.87,-4.96 -0.1,-1.13 -0.49,-11.18 -3.69,-9.64 -0.96,0.46 -2.06,2.96 -2.03,4.24z"/>
   <path class="fil11" d="M65.29 62.98c0.25,1.5 -1.01,1.57 -1.84,0.54 0.56,-0.4 1.18,-0.48 1.84,-0.54zm-2.73 2.19c0.98,0.14 2.07,0.12 1.67,1.29 -0.88,0.11 -1.07,-0.46 -1.79,-1.03 -0.98,0.62 -1.56,1.91 -2.24,2.87 -1.65,2.34 -0.29,2.1 -0.59,3.36 -0.64,-0.32 -1.38,-1.9 -2.04,-0.25 0.29,0.75 0.85,1.88 0.51,2.55 -0.6,-0.31 -1.06,-1.75 -1.25,-2.46 -0.41,-0.31 -0.92,-0.37 -1.45,-0.64 -0.52,-2.55 0.34,-6.3 1.49,-8.04 0.14,-0.56 0.11,-0.42 0.36,-0.84 -0.08,-1.82 3.2,-5.32 5.31,-4.94 1.29,0.24 0.43,0.96 0.75,2.3 1.01,0.51 1.41,0.07 2.09,0.62 -0.58,1.28 -2,0.24 -2.27,2.01 -0.19,1.27 0.27,0.58 -0.21,1.73 -0.36,0.86 -0.39,0.16 -0.32,1.46zm-4.72 14.93c0.82,-2.1 1.1,-2.66 2.82,-4.25 1.63,-1.52 2.39,-2.08 3.52,-3.8 8.23,-12.45 5.12,-7.02 1.03,-13.75 -0.88,-1.45 -2.36,-5.41 -3.12,-6.34 -2.52,0.62 -6.53,10.48 -7.3,13.46 -0.84,3.22 -3.69,15.69 3.05,14.69z"/>
   <path class="fil11" d="M54.37 135.73c2.28,-0.91 4.8,0.91 4.69,-3.22 -0.03,-1.01 -0.32,-0.89 -1.24,-0.83 -1.57,0.11 -3.34,0.31 -4.86,0.48 -1.32,0.15 -3.7,0.01 -4.53,0.76 -0.48,1.48 0.83,3.94 0.28,5.35 -0.57,1.46 -0.62,2.69 -0.84,4.39 -0.25,1.94 -1.41,7.97 -0.67,9.55 0.71,0.73 9.26,-0.48 10.23,-0.93 0.3,-0.81 0.41,-1.68 0.02,-2.91 -1.28,-0.26 -2.74,0.13 -4.15,0.04 -0.34,-0.91 -0.23,-2.75 -0.06,-3.7 0.4,-2.28 2.2,-0.97 3.79,-1.8 0.74,-0.39 1.17,-1.72 0.73,-2.83 -2.35,-0.69 -3.92,1.11 -3.95,-1.17l0.54 -3.21z"/>
   <path class="fil8" d="M79.69 132.84c1.12,-0.34 2.95,-0.03 3.74,-0.79 0.52,-0.51 0.74,-2.27 0.34,-3.2 -1.23,-0.14 -8.25,0.62 -9.49,1.09 -0.35,1.13 -0.45,2.5 -0.09,3.78 0.66,2.36 -0.17,1.06 -0.48,3.05 -0.33,2.19 -0.48,4.94 -0.69,7.19 -0.22,2.33 -1.42,5.8 1.35,5.8 1.89,0 6.46,-0.37 8.17,-0.97 0.45,-0.67 0.41,-0.66 0.52,-1.68 0.33,-2.97 -1.49,-1.23 -4.17,-1.52 -0.57,-1.21 -0.25,-3.85 0.04,-4.9l3.38 -0.46c0.63,-0.7 0.88,-2.04 0.55,-3.18l-3.68 -0.02c-0.23,-1.12 0.15,-3.28 0.51,-4.2z"/>
   <path class="fil11" d="M67 134.48c1.87,-0.64 5.91,0.99 4.36,-4.15 -1.38,-0.01 -8.14,0.64 -9.43,1.11 -0.89,2.02 -0.08,7.41 -0.6,10.12 -0.35,1.84 -1.57,7.74 -1.18,9.57 1.27,0.38 3.78,0.07 5.13,-0.47l1.07 -8.34c1.51,-0.34 2.7,-0.06 3.94,-0.66 0.78,-4.53 -0.87,-2.66 -3.52,-2.87 -0.38,-1.08 -0.24,-3.34 0.23,-4.32z"/>
   <path class="fil10" d="M29.51 27c3.34,-0.06 3.84,-1.13 6.07,4.11 2.34,5.52 4.1,10.12 7.83,14.89 1.05,1.34 4.17,4.99 5.51,5.15 0.98,-1.13 3,-9.8 1.82,-10.99 -0.86,-0.72 -2.57,0.67 -3.28,1.35 0.15,1.01 0.45,1.01 0.59,1.61l0 0.73c-0.95,-0.05 -1.57,-1.3 -2.72,-2.78 -0.85,-1.1 -1.6,-2.09 -2.41,-3.13 -3.65,-4.74 -2.62,-4.7 -5.53,-5.17 -1.2,-3.07 -1.7,-7.59 -3.16,-10.27 -0.98,-1.8 -2.97,-1.25 -3.82,0.09 -0.58,0.92 -1.13,2.89 -0.9,4.41z"/>
   <path class="fil12" d="M39.34 53.83c0.65,-0.48 1.67,-3.24 2.82,-5.16 1.2,-1.99 -0.13,-2.2 -2,-5.2 -1.16,-1.86 -2.27,-3.65 -3.17,-5.67 -0.65,-1.45 -1.93,-5.33 -3.01,-6.12l-0.48 1.11c-0.4,2.71 -1.03,8.78 -0.34,10.99 0.78,2.49 4.65,8.68 6.18,10.05z"/>
   <path class="fil13" d="M40.75 70.42c1.35,0.11 2.8,0.05 4.12,0.33 1.36,0.29 2.66,1.06 3.7,0.93l2.85 -16.45c1.27,-6.7 1.57,-6.03 1.4,-12.72 -0.03,-1.34 0.38,-3.65 -0.08,-4.66 -2.36,0.57 0.49,2.68 -1.03,9.29 -1.18,5.14 -3.66,11.86 -6.04,16.35 -0.81,1.52 -1.29,2.34 -2.34,3.57 -0.44,0.52 -0.86,1.08 -1.33,1.57 -0.66,0.69 -1.19,0.95 -1.25,1.78z"/>
   <path class="fil11" d="M44.79 58.63c-0.14,0.86 -0.84,1.81 -1.31,2.75 -0.56,1.11 -0.63,2.35 -1.72,2.75 -1.68,-3.15 -0.17,-7.13 0.97,-9.26 0.55,-1.05 0.72,-2.49 2.46,-2.39 1.25,1.47 1.05,4.76 -0.4,6.15zm-6.34 10.07c2.11,0.79 3.46,-1.31 4.95,-3.65 1.1,-1.73 2.16,-3.93 2.98,-5.82 0.37,-0.85 2.36,-5.84 2.3,-6.23 -0.09,-0.58 -4.1,-4.05 -4.88,-4.29 -1.95,1.44 -6.65,16.28 -5.35,19.99z"/>
   <path class="fil7" d="M70.66 104.46c-0.54,-1.41 -7.4,-9.28 -8.4,-9.43 -0.58,1.09 -0.09,2.25 -1.43,4.97 -0.64,1.3 -2.74,2.97 -1.72,4.33 1.62,2.17 2.97,0.59 5.42,0.25 2.03,-0.28 4.15,0.29 6.13,-0.12z"/>
   <path class="fil14" d="M49.19 78.96c0.68,-0.51 1.06,-4.15 1.24,-5.15 0.32,-1.76 0.74,-3.41 1.15,-5.21 0.8,-3.57 1.2,-7.27 1.89,-10.93 0.71,-3.82 2.3,-12.12 3.52,-15.6 0.54,-1.54 1.85,-3.96 0.5,-5.36 -1.28,0.35 -1.79,3.23 -2.1,4.46 -0.45,1.79 -0.85,3.46 -1.24,5.37 -1.69,8.44 -3.65,18.61 -4.79,27.16 -0.16,1.17 -1.2,4.77 -0.16,5.26z"/>
   <path class="fil15" d="M57.23 61.99c1.87,-0.5 0.94,-1.61 3.01,-0.97 1.89,1.48 -2.82,9.73 -3.37,1.81 -1.15,1.74 -2.01,5.49 -1.49,8.04 0.53,0.27 1.05,0.33 1.45,0.64l0.74 -0.1c0.67,-1.65 1.4,-0.07 2.04,0.25 0.3,-1.26 -1.06,-1.02 0.59,-3.36 0.68,-0.96 1.26,-2.25 2.24,-2.87l0.12 -0.26c-0.07,-1.3 -0.04,-0.6 0.32,-1.46 0.48,-1.15 0.02,-0.46 0.21,-1.73 0.27,-1.77 1.69,-0.73 2.27,-2.01 -0.67,-0.55 -1.08,-0.11 -2.09,-0.62 -0.32,-1.33 0.54,-2.06 -0.75,-2.3 -2.11,-0.38 -5.39,3.12 -5.31,4.94z"/>
   <path class="fil14" d="M33.35 69.83l-0.31 -0.93 0.53 -0.9 -0.8 0.24c-2.87,-6.67 -1.31,-27.05 -0.26,-35.71 0.14,-1.18 1.03,-3.79 -0.37,-4.16 -1.84,2.11 -3.09,38.47 -1.31,40.72 0.67,0.84 0.87,0.43 2.52,0.73z"/>
   <path class="fil12" d="M57.48 54.87c0.99,-0.38 1.57,-1.48 2.15,-2.31 0.59,-0.85 1.66,-1.62 1.5,-2.86 -0.16,-1.2 -1.9,-7.16 -2.4,-7.87 -1.09,0.31 -0.92,0.95 -1.42,2.94l-1.61 6.75c0.05,1.05 1.12,2.85 1.78,3.35z"/>
   <path class="fil2" d="M44.45 128.1c-0.78,0.86 -1.01,1.63 0.47,1.79 2.06,0.23 1.37,-0.36 1.88,1.46 0.24,0.83 -0.07,0.58 0.91,0.5 0.73,-0.06 4.22,-0.84 4.88,-1.46 0.5,-0.46 1.02,-1.72 0.63,-2.35 -0.5,-0.78 -1.54,-0.51 -2.76,-0.45 -1.61,0.08 -5,-0.61 -6.01,0.51z"/>
   <path class="fil14" d="M53.54 65.06c0.43,-0.38 1.68,-4.63 2.01,-5.56 0.77,-2.13 2.18,-3.63 -0.24,-5.7 -0.79,0.86 -0.76,3.97 -1.06,5.43 -0.32,1.56 -1.28,4.25 -0.71,5.82z"/>
   <path class="fil16" d="M31.08 72.62c1.02,0.48 0.21,0.2 1.39,0.26 1.06,0.05 0.77,0.18 1.55,-0.12 0.86,-2.18 -1.67,-1.41 -2.27,-1.59 -0.86,-0.25 -1.88,-2.17 -2.87,-0.75 -0.63,1.22 1.26,2.08 2.2,2.2z"/>
   <path class="fil17" d="M42.73 54.87c2.39,-0.5 1.98,1.93 2.06,3.76 1.45,-1.39 1.65,-4.67 0.4,-6.15 -1.74,-0.1 -1.9,1.34 -2.46,2.39z"/>
   <path class="fil18" d="M33.35 69.83c0.76,0.99 1.58,0.06 3,0.08 1.19,0.02 1.56,0.69 2.5,0.51 -0.37,-1.18 -3,-2.64 -5.28,-2.42l-0.53 0.9 0.31 0.93z"/>
   <path class="fil19" d="M26.18 69.92c1.69,-0.25 3.42,-2.16 3.12,-3.67 -1.66,0.07 -3.61,2.11 -3.12,3.67z"/>
   <path class="fil20" d="M112.26 142.56c1.35,-0.52 1.04,-3.69 0.81,-4.85 -1.24,0.89 -1.17,3.62 -0.81,4.85z"/>
   <path class="fil21" d="M25.36 74.76c0.93,-0.35 1.38,-2.78 0.74,-3.67l-0.75 -0.08 -0.28 1.76c-0.03,0.97 -0.05,1.08 0.28,1.99z"/>
   <path class="fil22" d="M41.83 72.96c0.01,-0.7 -0.23,-0.55 -0.7,-0.33l-1 0.21c-0.93,-0.98 -1.58,-1.62 -3.36,-1.75 0.44,0.58 1.38,1.26 2.02,1.59 1.23,0.65 1.53,0.36 3.04,0.27z"/>
   <path class="fil23" d="M29.69 32.39c0.87,-0.47 1.18,-2.28 0.63,-3.22 -0.72,0.31 -0.74,0.48 -0.9,1.47 -0.12,0.73 -0.17,1.19 0.27,1.75z"/>
   <path class="fil24" d="M34.7 66.74c0.11,-1.08 -0.79,-1.01 -1.98,-0.73 0.02,0.1 -0.1,1.27 1.25,1.09 1.01,-0.13 0.61,-0.27 0.73,-0.36z"/>
   <path class="fil25" d="M57.58 71.4l-0.74 0.1c0.19,0.71 0.65,2.15 1.25,2.46 0.34,-0.68 -0.22,-1.81 -0.51,-2.55z"/>
   <path class="fil26" d="M63.46 63.52c0.83,1.03 2.08,0.96 1.84,-0.54 -0.66,0.06 -1.28,0.15 -1.84,0.54z"/>
   <path class="fil27" d="M112.84 135.32c0.83,-0.41 0.99,-1.05 0.67,-2.12 -0.98,0.27 -1.02,1.26 -0.67,2.12z"/>
   <path class="fil26" d="M62.57 65.17l-0.12 0.26c0.72,0.58 0.91,1.15 1.79,1.03 0.4,-1.17 -0.69,-1.15 -1.67,-1.29z"/>
  </g>
 </g>
</svg>
