<?xml version="1.0" encoding="UTF-8"?>
<!DOCTYPE svg PUBLIC "-//W3C//DTD SVG 1.1//EN" "http://www.w3.org/Graphics/SVG/1.1/DTD/svg11.dtd">
<!-- Creator: CorelDRAW -->
<svg xmlns="http://www.w3.org/2000/svg" xml:space="preserve" width="16.1084mm" height="14.6829mm" version="1.1" style="shape-rendering:geometricPrecision; text-rendering:geometricPrecision; image-rendering:optimizeQuality; fill-rule:evenodd; clip-rule:evenodd"
viewBox="0 0 38.99 35.54"
 xmlns:xlink="http://www.w3.org/1999/xlink"
 xmlns:xodm="http://www.corel.com/coreldraw/odm/2003">
 <defs>
  <style type="text/css">
   <![CDATA[
    .fil0 {fill:#201E1E}
    .fil1 {fill:#009933}
    .fil2 {fill:red}
   ]]>
  </style>
 </defs>
 <g id="Camada_x0020_1">
  <metadata id="CorelCorpID_0Corel-Layer"/>
  <g id="Figs_Desenho_SemVar_001">
   <path class="fil0" d="M10.8 4.92c-2.13,-0.24 -4.31,-0.12 -6.48,0.06l-2.43 0.2 2.34 -1.37c4.58,-2.69 8.96,-2.64 13.17,-0.57l-0.01 0 0.16 -0.02c-0.23,-0.58 -0.41,-1.22 -0.58,-1.89l-0.2 -0.78 3.49 -0.55 -0.02 0.63c-0.02,0.84 0,1.72 0.19,2.49 0.38,0.01 0.75,0.03 1.12,0.06l-0.06 -0c4.9,-1.94 9.54,-1.03 13.91,1.9l0.31 0.21 -0.27 1.04 -0.35 -0.09c-1.86,-0.46 -3.8,-0.87 -5.75,-1.07 1.64,0.77 3.2,1.77 4.61,3.04 2.5,2.25 5.04,5.91 5.05,10.79 0,0.59 -0.04,1.19 -0.11,1.78 -0.68,5.3 -4.13,8.99 -7.23,11.08 -4.42,2.98 -9.62,3.96 -14.2,3.62 -4.28,-0.31 -8.84,-1.83 -12.39,-5.03 -2.5,-2.25 -5.04,-5.91 -5.05,-10.79 -0,-0.59 0.04,-1.19 0.11,-1.78 0.68,-5.3 4.13,-8.99 7.23,-11.08 1.17,-0.79 2.4,-1.44 3.66,-1.97 -0.07,0.03 -0.13,0.06 -0.2,0.09zm0.21 -0.09c0.28,-0.11 0.21,-0.09 0,0zm10.53 -1.66c0.17,0.01 0.25,0.02 0,0z"/>
   <path class="fil1" d="M15.04 5.34c-3.43,-1.4 -7.05,-1.28 -10.69,-0.97 4.64,-2.73 9.56,-2.87 14.84,0.56 -0.96,-0.92 -1.45,-2.34 -1.84,-3.86l2.48 -0.39c-0.04,1.38 0.06,2.64 0.52,3.62 5.14,-2.51 10.07,-1.85 14.84,1.35 -4.24,-1.05 -8.42,-1.68 -12.38,-0.72 3.73,-0.12 6.86,1.76 9.44,5.54 -11.04,-6.94 -17.61,-4.72 -22.94,0.06 0.89,-2.14 2.41,-4.03 5.74,-5.18z"/>
   <path class="fil2" d="M27.5 4.95c7.22,2.63 11.87,8.83 11,15.67 -1.1,8.58 -10.49,14.92 -20.97,14.15 -10.48,-0.77 -18.09,-8.35 -16.99,-16.93 0.74,-5.82 5.3,-10.61 11.43,-12.85 0.49,0.09 0.97,0.2 1.45,0.33 -3.17,1.6 -3.93,3.62 -5.26,6.83l1.35 -1.21c4.75,-4.26 9.45,-5.32 15.15,-3.57 3.66,1.13 6.31,2.86 9.5,4.86 -2.06,-3.03 -3.76,-5.84 -7.2,-7.29 0.18,-0 0.37,0 0.55,0.01zm-6.09 12.64c0.26,-0.01 0.23,0.57 0.49,0.75 0.77,1.05 1.94,1.74 3.19,1.35 1.58,-0.36 2.18,-2.26 2.54,-3.87 -0.03,-0.26 -0.13,-0.57 -0.35,-0.68 -0.71,-0.06 -1.38,0.27 -1.91,0.91 0.79,0.83 0.57,2.65 -1.72,2.19 -1.06,-0.21 -0.77,-1.38 -1.07,-1.55 -0.2,-0.12 -1.52,0.12 -1.8,-0.91 0.4,-0.55 0.99,1.03 2.4,-0.69 1.19,-1.48 2.62,-3.24 4.33,-3.49 0.02,0.07 0.07,0.06 0.12,0.07 -0.04,0.15 -0.01,0.27 0.08,0.38 0.83,0.03 1.68,-0.07 2.48,0.06 0.64,0.5 1.82,-0.09 2.25,0.81 0.03,0.18 -0.14,0.11 -0.2,0.18 -0.11,-0.11 -0.28,-0.07 -0.42,-0.11l-0.1 0.09c0.42,0.77 1.2,0.98 1.65,1.79 -0.02,0.09 0.01,0.21 -0.08,0.25 -0.63,-0.3 -1.04,-1.39 -1.83,-1.02l0.01 0.27c0.41,0.68 1.16,1.16 1.22,2.05 -0.04,0.14 -0.12,0.31 -0.26,0.33 -0.37,0 -0.46,-0.57 -0.73,-0.78 -0.63,-0.73 -1.45,-1.3 -2.43,-1.1 -0.31,0.09 -0.58,0.35 -0.86,0.57 -0.6,1.51 -0.67,3.42 -2.04,4.36 -2.22,1.47 -5.17,-0.1 -5.09,-2.17 0.05,-0.02 0.08,-0.04 0.12,-0.04zm-2.04 -1.25l-0.76 0.05c-0.49,0.21 -0.36,0.95 -0.77,1.27 -0.72,0.53 -1.84,0.38 -2.52,-0.11 -0.23,-0.29 -0.14,-0.76 -0.03,-1.11 0.11,-0.34 0.53,-0.55 0.47,-0.94 -0.63,-0.67 -1.41,-1.37 -2.34,-1.09 -0.17,0.1 -0.21,0.28 -0.28,0.44 0.31,1.68 0.8,4.11 2.53,4.47 2.78,0.63 3.23,-1.36 3.84,-1.71 0.35,0.86 -1.55,3.21 -4.51,2.21 -1.89,-0.68 -1.78,-3.28 -2.37,-5.03 -0.43,-0.84 -1.26,-0.87 -2,-0.73 -0.65,0.14 -1.26,0.71 -1.66,1.36 -0.18,0.19 -0.45,0.21 -0.62,0.03 -0.55,-0.82 1.48,-2.01 1.44,-2.39 -0.06,-0.57 -1.92,0.71 -2.12,0.88 -0.06,-0.02 -0.15,0.03 -0.16,-0.07 0.54,-1.03 1.58,-1.38 2.5,-1.47 0.11,-0.1 0.29,-0.22 0.18,-0.4 -0.25,-0.41 -0.64,-0.01 -0.96,-0.02 -0.11,-0.05 -0.29,0.05 -0.33,-0.15 -0.02,-0.15 0.09,-0.21 0.17,-0.29 1.5,-0.33 3.13,-0.33 4.72,-0.03 0.06,-0.06 0.13,-0.05 0.19,-0.13 -0.02,-0.14 -0.16,-0.25 -0.08,-0.43 1.96,0.41 3.21,2.42 4.32,4.38 0.56,0.55 1.34,0.41 2.02,0.26 0.13,0.09 0.05,0.32 -0.01,0.42 -0.24,0.32 -0.57,0.25 -0.86,0.32zm5.72 0.51c0.04,0.27 -0.15,0.45 -0.33,0.53 -0.25,0.05 -0.45,-0.16 -0.47,-0.43 0.15,-0.82 0.77,-0.6 0.8,-0.11zm-7.53 -0.44c-0.14,1.33 -0.97,0.39 -0.64,-0.08 0.18,-0.26 0.54,-0.21 0.64,0.08zm-1.72 11.43c0.14,0.44 0.14,0.92 0.4,1.31 0.29,-0.59 0.06,-1.86 0.88,-1.78 0.79,1.23 1.94,1.92 3.26,1.78 0.79,-0.06 1.47,-0.68 2.18,-1.19 0.58,0.6 0.1,1.25 0.23,2.03 0.72,-0.77 1.03,-1.83 1.2,-3l2.11 -1.94c0.4,-0.12 0.32,0.46 0.48,0.69 -0.38,-0.8 -0.73,0.35 -0.97,0.61 -1.16,2.15 -2.24,4.36 -3.95,6.12 -0.02,-0.51 0.05,-1.15 -0.39,-1.42 -0.22,0.67 -0.22,1.5 -0.66,2.02 -0.68,0.6 -1.55,0.7 -2.31,0.33 -1.05,-0.32 -0.8,-1.83 -0.93,-2.85 -0.4,0.2 -0.5,0.8 -0.65,1.28 -1.4,-2.42 -1.8,-5.23 -2.56,-7.9l-0.51 0.15 0.57 -0.66c0.7,1.41 2.17,2.44 1.62,4.41zm11.44 -7.66c-2.19,2.83 -5.15,1.39 -5.71,-0.05l0.05 -0.05c0.91,0.89 2.07,1.65 3.41,1.33 0.76,-0.21 1.52,-0.58 2.13,-1.3 0.05,0.01 0.1,-0 0.12,0.07zm-8.17 -0.21c-0.38,0.71 -1.99,1.48 -2.88,1.41 -1.15,-0.15 -2.19,-0.53 -2.9,-1.58l0.01 -0.1c0.98,0.6 1.97,1.29 3.25,1.15 0.85,-0.11 1.68,-0.29 2.43,-0.9l0.09 0.01z"/>
  </g>
 </g>
</svg>
