<?xml version="1.0" encoding="UTF-8"?>
<!DOCTYPE svg PUBLIC "-//W3C//DTD SVG 1.1//EN" "http://www.w3.org/Graphics/SVG/1.1/DTD/svg11.dtd">
<!-- Creator: CorelDRAW -->
<svg xmlns="http://www.w3.org/2000/svg" xml:space="preserve" width="42.2106mm" height="49.2923mm" version="1.1" style="shape-rendering:geometricPrecision; text-rendering:geometricPrecision; image-rendering:optimizeQuality; fill-rule:evenodd; clip-rule:evenodd"
viewBox="0 0 76.72 89.6"
 xmlns:xlink="http://www.w3.org/1999/xlink"
 xmlns:xodm="http://www.corel.com/coreldraw/odm/2003">
 <defs>
  <style type="text/css">
   <![CDATA[
    .fil0 {fill:#030102}
    .fil2 {fill:#54950F}
    .fil6 {fill:#E284AE}
    .fil5 {fill:#E586B0}
    .fil9 {fill:#F4F3F4}
    .fil8 {fill:#F8F8F8}
    .fil4 {fill:#FBF05D}
    .fil7 {fill:#FBFBFB}
    .fil1 {fill:#FE0000}
    .fil3 {fill:#FEFEFE}
   ]]>
  </style>
 </defs>
 <g id="Camada_x0020_1">
  <metadata id="CorelCorpID_0Corel-Layer"/>
  <g id="_2087238584336">
   <path class="fil0" d="M31.35 11.04c-0.59,-0.14 -1.24,-0.64 -1.9,-0.91 -1.24,-0.52 -4.86,-2.54 -5.84,-2.64 0.17,1.38 0.89,4.34 0.93,5.24l-7.22 2.78c-0.59,0.27 -1.28,0.57 -1.83,0.71 -1.06,0.26 -0.9,0.35 -1.39,1.05l-1.99 3.04c-1.22,2.13 -2.59,4 -3.39,6.38 -2.3,6.79 -2.58,9.73 -1.75,16.53 0.17,1.4 0.36,2.81 0.62,4.19 0.78,4.12 1.61,7.59 3.15,11.49 0.47,1.18 2,3.53 2.9,4.45 0.63,0.64 0.74,0.56 1.16,1.43 -1.59,-0.94 -2.99,-1.48 -5.41,-0.77 -1.52,0.45 -3.18,1.41 -4.22,2.56 -0.84,0.93 -0.6,0.37 -1.55,1.73 -0.97,1.38 -1.98,5.49 -2.61,7.24 -0.51,1.43 -1.54,3.57 -0.65,5.11 0.95,1.67 2.87,2.22 4.83,1.58 1.38,-0.45 3.27,-0.05 4.73,-0.35 0.8,-0.16 0.49,-0.38 1.28,-0.08 1.79,0.66 4,-0.5 6.27,-0.18 0.25,1.32 0.16,10.08 3.62,7.51 1.36,-1.02 0.89,-1.66 0.62,-2.87 0.94,0.42 2.36,1.96 5.24,-0.01l1.25 -0.99c0.09,0.64 0.09,1.28 0.54,1.63 1.06,0.83 2.54,-0.47 3.02,-1.3l0.88 -1.42c0.66,0.8 0.35,2.02 1.37,2.58 1.09,0.6 2.12,-0.51 2.77,-0.89 0.5,0.23 0.47,0.46 1.14,0.69 0.55,0.19 1.15,0.23 1.76,0.06 1.15,-0.33 1.3,-1.15 2.47,-1.4 0.54,-0.12 2.52,-0.59 3.01,-0.78 0.9,-0.36 1.78,-0.89 2.58,-1.28l0.13 -1.09 4.87 -0.22c-0.01,1.51 -0.41,2.52 0.48,3.67 1.05,0.07 2.03,-0.42 2.43,-0.95 0.45,-0.6 0.24,-2.27 0.24,-3.11l1.05 0c1,1.65 0.91,2.18 4.12,1.99 2.35,-0.14 3.61,-1.7 1.59,-2.58 0.29,-1.99 0.23,-1.03 -0.24,-2.84 0.77,0.25 2.78,2.87 8.01,0.34 1.3,-0.63 3.28,-2.51 3.94,-3.75 0.18,-0.34 0.58,-1.39 0.74,-1.82 0.47,-1.24 0.82,-2.43 1.23,-3.78 0.64,-2.15 0.83,-3.97 -1.42,-5.05 -0.91,-0.43 -1.16,-0.36 -2.35,-0.35 -1.18,0 -1.4,-0.04 -2.4,0.3 -0.83,0.29 -1.09,0.59 -1.91,0.86 0.05,-2.52 -1.84,-3.07 -4.41,-3.09 0.43,-1.71 2.59,-1.46 3.96,-2.34 0.9,-0.57 1.04,-0.39 1.82,-1.22 2.13,-2.26 -0.15,-4.14 -2.79,-4.91 -0.8,-0.23 -1.88,-0.23 -2.25,-0.97 -0.41,-0.8 -0.76,-1.34 -1.12,-2l5.77 -2.69c2.12,-0.84 3.92,-2.99 2.55,-4.96 -0.82,-1.18 -0.77,-1.63 -0.85,-3.35 -0.12,-2.42 1.53,-5.28 1.61,-6.77 0.05,-0.95 -1.33,-1.89 -1.98,-2.24 -0.18,-1.29 -0.25,-2.06 -0.52,-3.22 -0.27,-1.14 -0.59,-1.97 -0.84,-3.1 -0.23,-1.07 -1,-2.19 -1.47,-3.25 -0.17,-0.39 -0.08,-0.24 -0.35,-0.58 -1.76,-2.23 -2.07,-3.06 -4.93,-4.95l-2.74 -1.31c-1.08,-0.37 -2.02,-0.61 -3.01,-0.96 0.12,-0.49 0.1,-0.17 0.55,-0.48 0.38,-0.27 0.27,-0.2 0.42,-0.67 0.19,-0.59 -0.05,-0.29 0.4,-0.71 0.48,-0.44 0.4,-0.07 0.57,-0.66 -0.4,-0.37 -0.41,-0.28 -1.06,-0.35l-0.18 -0.73c-1.42,0.09 -3.31,0.46 -4.73,0.62 -1.68,0.19 -3.23,0.25 -4.93,0.47 -2.35,0.3 -7.46,1.19 -9.6,0.99 0.43,-1.4 1.78,-4.1 2.43,-5.54 0.2,-0.45 0.51,-0.91 0.66,-1.36 0.22,-0.67 0.28,-0.82 0.59,-1.44 0.32,-0.62 1.13,-2.25 1.22,-2.98l-13.37 -0.02c0.01,1.44 0.64,3.94 0.9,5.42l0.81 5.62z"/>
   <path class="fil1" d="M47.3 28.07c0.32,-0.25 0.75,-0.53 1.29,-0.7 1.43,-0.43 3.88,-2.05 6.61,-1.63 5.05,0.77 1.5,3.89 3.08,10.23 0.27,1.08 1.44,4.95 2.46,5.41 0.42,-0.65 -0.46,-3.9 -0.41,-5.07l0.76 -0.05c0.15,1.19 0.03,2.93 0.03,4.18 -0,1.24 0.79,2.65 -0.49,3.21 -0.69,0.3 -6.53,-0.94 -7.39,-1.24 -0.83,-0.29 -0.88,-0.33 -1.5,-0.72 -0.74,-0.46 -0.65,-0.24 -1.26,-0.95 -0.5,-0.58 -0.76,-0.41 -1.21,-0.99 -0.57,-0.72 -0.54,-0.43 -1.14,-0.92 -0.64,-0.52 0.1,-0.23 -1.16,-1.04 -0.41,-0.26 -0.68,-0.7 -1.14,-1.05 -0.98,-0.73 -0.79,-1.7 -0.7,-3.46 0.13,-2.77 0.33,-3.28 4.01,-4.59 2.47,-0.88 6.46,-0.45 5.66,1.96 -0.91,2.73 0.17,4.58 1.15,6.71 0.46,1 2.3,2.69 3.05,3.52 0.2,0.22 0.28,0.33 0.53,0.55 0.49,0.42 0.15,0.25 0.73,0.4 -0.7,-1.25 -1.36,-1.96 -1.54,-2.28 -1.75,-3.27 -1.73,-4.94 -1.91,-8.91 -0.05,-1.05 0.15,-2.42 -0.52,-3.12 -0.67,-0.7 -1.7,-1.01 -2.89,-0.79 -1.12,0.2 -5.29,1.42 -6.1,1.37zm-1.93 29.46c-0.47,-0.38 -2.07,-0.97 -2.73,-1.25 -0.88,-0.37 -1.78,-1.13 -2.74,-1.28 -1.24,-0.25 -3.38,-1.87 -4.69,-2.39 -0.48,-0.19 -4.4,-2.39 -4.55,-2.64 -0.27,-0.45 -0.08,-4.24 0.07,-5.07 0.08,-0.46 0.39,-1.24 0.39,-1.33l0.38 3.52c0.49,-0.92 0.26,-2.33 0.55,-3.35 0.31,-1.05 0.84,-1.83 1.15,-2.76 0.31,-0.94 2.66,-4.2 3.53,-4.4 -0.44,0.76 -1.73,2.29 -1.93,3.31 0.68,-0.24 2.19,-2.53 3.11,-3.14 0.41,-0.27 0.51,-0.3 0.9,-0.61 0.8,-0.64 2.26,-1.53 3.16,-1.77 -0.13,0.14 -0.68,0.65 -0.92,0.82 -0.5,0.35 -0.75,0.2 -0.95,0.87 0.22,0.32 2.72,1.87 3.2,2.22l1.58 1.04c0.29,0.2 0.45,0.41 0.76,0.62 0.31,0.21 0.55,0.26 0.88,0.49l6.45 4.45c2.18,1.58 3.99,1.14 6.6,1.66 1.09,0.22 1.25,0.36 2.33,0.04 1.45,-0.43 5.23,-1.92 6.46,-1.78 0.64,0.07 1.38,0.64 2,0.81 0.91,-0.72 1.23,-1.04 0.49,-2.33 -0.64,-1.11 -0.99,-1.27 -2.65,-0.92 -0.86,0.18 -3.52,1.14 -4.43,0.9 -0.04,-0.01 -1.11,-0.62 -1.22,-0.71 -0.14,-1.3 0.7,-2.64 1.16,-3.55l1.77 -3c1.49,-2.26 2.4,-3.67 5.47,-4.31 -0.23,-0.94 -2.35,-1.09 -3.23,-1.23 -0.85,-0.13 -3.27,-0.4 -3.86,-0.64 0.94,-0.51 3.87,0.27 4.86,0.19 0.17,-0.66 -0.58,-3.98 -0.81,-4.68 -0.47,-1.46 -1.13,-2.56 -1.97,-3.71l-1.23 -1.63c-1.45,-1.55 -1.67,-2.05 -3.71,-3.56 -0.29,-0.22 -0.63,-0.29 -1,-0.53 -1.26,-0.82 -2.63,-1.14 -4.21,-1.65 -1.43,-0.46 -3.52,-1 -4.99,-0.31 -1.61,0.75 -5.65,2.97 -6.87,3.42 -0.57,0.21 -0.7,0.15 -0.97,0.53 0.36,0.4 3.86,1.81 4.68,2.14 0.74,0.3 1.51,0.81 2.28,1.06 0.51,0.16 1.95,0.71 2.2,1.12 -1.55,0.18 -6.66,-0.53 -8.48,-0.72 -1.32,-0.14 -2.9,-0.32 -4.24,-0.36 -1.41,-0.05 -3.11,-0.27 -4.34,-0.26 -0.15,1.23 2.62,8.99 3.03,11.25 -0.73,-0.26 -1.24,-1.15 -1.75,-1.7l-5.65 -5.99c-0.5,-0.6 -1.13,-1.11 -1.56,-1.73l-2.43 -2.5c-0.75,-0.7 -1.31,-0.69 -2.52,-0.92 -1.01,-0.19 -1.9,-0.33 -2.88,-0.53 -0.91,-0.18 -2.02,-0.22 -2.95,-0.4 -2.34,-0.45 -2.54,0.4 -4.14,2.25 -0.26,0.3 -0.61,0.54 -0.81,0.83 -3.47,5.08 -3.62,7.61 -4.4,13.66 -0.73,5.66 -0.65,12.08 1.1,17.45l0.73 2.5c1.05,2.67 2.01,4.14 3.62,6.29 0.26,0.34 0.34,0.56 0.71,0.93l1.79 1.51c0.76,0.64 1.84,2.01 2.81,2.27 0.18,0.05 3.06,0.36 3.17,0.35 0.14,-0.34 0.21,-0.51 0.32,-0.89 0.17,-0.56 0.1,-0.66 0.51,-0.87 0.51,-0.27 0.53,0.03 0.88,-0.49 0.34,-0.51 -0.02,-0.53 0.65,-0.69 0.66,-0.15 4.69,-0.28 5.52,-0.26 -0.12,0.81 -0.87,2.61 -0.83,3.14 1.64,0.02 3.16,-1.5 5.74,-0.59l1.7 0.7c1.05,-1.4 0.38,-0.91 4.82,-1.14 0.91,-0.05 1.69,-0.24 2.54,-0.39 1.15,-0.21 1.53,0.17 1.65,0.21 0.63,0.19 3.69,-1.11 5.85,0.14 2.1,1.22 0.77,2.88 1.19,3.91 1.37,0.27 1.56,-1.54 1.88,-2.43 0.33,-0.91 0.64,-2.65 1.06,-3.26 0.41,-0.59 0.71,-0.31 1.3,-0.91 0.56,-0.56 0.55,-0.58 1.56,-0.65 1.32,-0.09 3.39,0.16 3.18,-1.26 -0.7,0.07 -1.56,0.39 -2.39,0.51 -2.8,0.42 -5.51,0.91 -8.36,1.04 -3.46,0.16 -5.26,-0.01 -8.31,-0.98 -0.81,-0.26 -1.39,-0.71 -2.17,-1.02 0.47,-0.28 2.56,0.87 3.84,1.05 1.75,0.24 2.67,0.51 4.66,0.42 3.98,-0.19 7.79,-0.68 11.56,-1.5 0.78,-0.17 1.5,-0.19 2.28,-0.39 1.74,-0.45 7.08,-1.7 5.31,-4.34 -0.75,-1.12 -2.43,-1.52 -3.81,-1.59 0.12,0.68 0.52,0.82 0.64,1.42 -0.79,0.21 -1.59,0.49 -2.37,0.73l-6.22 1.48c-2.33,0.36 -4.32,0.76 -6.7,1 -1.76,0.18 -3.91,-0.13 -5.08,-0.96z"/>
   <path class="fil2" d="M32.06 1.83c-0.37,0.74 0.71,9.51 0.52,10.85 -1.01,-0.29 -2.28,-1.04 -3.58,-1.58 -0.58,-0.24 -1.14,-0.62 -1.75,-0.88 -0.61,-0.26 -1.32,-0.53 -1.94,-0.75l1.48 2.91c0.22,0.34 0.45,0.53 0.46,1.02 -0.54,0.34 -4.13,1.51 -5.07,1.9l-3.73 1.41c-1.11,0.48 -0.91,0.15 -1.14,0.71 2.15,0.09 4.72,0.74 6.73,1.1 0.6,0.11 1.28,0.08 1.81,0.19 0.6,0.13 1.75,1.32 2.08,1.74l5.63 5.88c0.35,0.33 0.56,0.64 0.92,1 0.41,0.41 0.58,0.66 0.93,0.99 0.65,0.61 0.62,0.77 1.07,0.99 0.25,-0.58 -2.17,-7.61 -2.33,-9.22 1.96,0.19 13.06,1.35 14.72,1.33 -0.26,-0.42 -0.31,-0.3 -0.8,-0.55 -1,-0.52 -5.82,-2.71 -6.19,-3.08 0.49,-0.42 11.1,-5.25 12.59,-5.99 0.37,-0.18 0.54,-0.24 0.78,-0.55 -4.41,-0.11 -13.86,1.18 -19.68,1.33l3.38 -8.24c0.35,-0.78 1.1,-1.92 0.98,-2.76 -0.55,-0.15 -7.34,0.1 -7.87,0.27z"/>
   <path class="fil3" d="M45.34 76.14c-0.42,-1.4 1.1,-3.45 2.1,-3.66 -0.14,0.79 -0.45,1.45 -0.72,2.17 -0.3,0.81 -0.28,1.65 -1.38,1.49zm-9.33 -2.18c-0.24,-0.47 0.13,-0.52 -1.8,-0.45 -3.18,0.11 -1.75,0.26 -2.76,2.24 -0.32,0.63 -0.48,1.37 -1.44,1.08 -0.05,-0.5 0.82,-3.36 1.12,-3.64 0.29,-0.2 0.43,-0.16 0.89,-0.19 3.67,-0.24 4.27,0.62 5.1,-2.57 0.07,0.76 -0.89,2.6 -1.1,3.54zm-4.03 -2.97c-0.22,-0.83 0.03,-0.98 0.3,-1.62 0.3,-0.7 0.18,-1.04 1.22,-0.8l-0.52 2.26 -1.01 0.16zm3.89 3.34c-0.09,1.43 -1.28,2.92 -1.25,4.44 0.83,-0.03 3.21,-0.04 3.8,-0.32 0.56,-0.35 1.65,-5.06 2.6,-6.88 0.43,-0.84 0.83,-1.14 1.85,-1.37 0.32,0.41 0.27,0.7 0.29,0.74 5.39,-0.49 3,0.22 4.79,-3.09 0.72,-0.05 0.95,0 0.79,0.71 -0.34,1.49 -0.88,2.09 -2.17,2.47 -0.86,0.25 -1.51,0.61 -2.3,0.91 -1.02,0.39 -1.28,0.41 -1.76,1.29 -1,1.8 -3.08,5.86 1.32,5.24 1.59,-0.23 1.18,-0.64 2.05,-1.04l-0.12 0.86c0.51,0.06 3.28,-0.09 3.63,-0.25 0.5,-0.23 0.97,-1.88 1.09,-2.51 0.2,-1.06 0.6,-1.86 0.94,-2.85 0.27,-0.81 0.44,-2.29 0.74,-2.88 1.21,-2.32 1,-3.96 -1.95,-4.26 -3.05,-0.31 -5.18,1.67 -5.61,1.75l0.45 -1.48c-1.34,-0.07 -2.02,0.99 -2.8,1.44l0.29 -1.12c-0.83,-0.07 -3.15,-0.15 -3.78,0.12l-1.52 3.82c-0.39,-1.81 0.64,-2.29 -1.09,-3.36 -2.55,-1.59 -8.02,0.6 -8.3,4.31 0.85,-0.01 1.77,-0.1 2.27,0.4 1.37,1.4 -2.1,2.99 -3.63,3.41 -1.37,3.41 0.69,5.11 4.38,4.26 4.05,-0.93 4.25,-3.7 5,-4.76z"/>
   <path class="fil3" d="M17.31 72.23c0.22,-0.31 0.28,-0.18 0.47,-0.75l0.67 -1.75c0.28,-0.52 0.22,-0.46 0.89,-0.41 0.16,0.49 0.03,2.75 -2.03,2.92zm0 0l-3.09 1.47c-1.22,0.61 -1.13,1.7 -2.02,2.49 0.08,-0.87 1.04,-2.4 1.33,-4.44l-4.66 0.26c-0.36,0.37 -0.83,1.67 -0.91,2.26l0.73 0.22c-0.18,0.73 -0.52,1.35 -0.69,2.03 -0.21,0.85 -0.38,1.29 -1.36,1.35 -0.14,-1.2 0.98,-4.35 1.43,-5.79 0.29,-0.92 0.71,-1.77 1,-2.63 0.18,-0.52 0.19,-0.92 0.42,-1.47 0.28,-0.67 0.35,-0.7 1.21,-0.68 -0,1.17 -0.82,2.86 -0.71,3.27 0.91,-0.01 1.83,-0.1 2.78,-0.14 1.03,-0.05 1.48,0 1.73,-0.94 0.42,-1.56 0.6,-3.39 -0.48,-4.25 -1.05,-0.83 -3.28,-0.75 -4.75,-0.39 -0.83,0.21 -1.38,0.7 -1.9,1.02 -0.53,0.32 -0.41,0.12 -0.81,0.57 -0.24,0.27 -0.38,0.46 -0.62,0.75 -0.58,0.71 -1.3,2.87 -1.72,3.83 -0.3,0.7 -0.35,1.46 -0.63,2.19 -0.25,0.64 -0.52,1.29 -0.73,1.97 -2.17,6.96 3.71,5.4 4.21,4.72 0.51,-0.93 -0.19,-1.12 1.14,-1.71 0.75,-0.33 1.23,-0.64 1.91,-0.88l4.18 -1.54c0.65,-0.22 1.41,-0.63 2.03,-0.88 1.66,-0.68 0.74,-0.5 1.61,-1.15 0.25,-0.19 0.76,-0.39 1.05,-0.48 1.54,-0.48 0.35,0.95 3.18,-0.47 0.65,-0.33 1.46,-3.48 1.37,-4.11 -0.34,-2.33 -5.43,-2.32 -7.94,-0.03 -0.57,0.52 -1.93,2.51 -1.65,3.67 1.12,-0 2.17,-0.24 3.36,-0.08z"/>
   <path class="fil3" d="M58.82 74.95c0.13,-0.92 0.58,-1.91 0.88,-2.77l0.82 -2.68c0.85,-2.36 0.83,-4.83 2.39,-4.44 0.12,1.15 -1.09,4.35 -1.47,5.43 -0.69,1.97 -0.87,4.2 -2.62,4.46zm-3.3 2.71c0.87,0.13 3.49,-0.13 4.53,-0.19 1.82,-0.1 2.32,-0.44 3.2,-1.32 1.05,-1.05 1.93,-4.53 2.56,-6.23 0.62,-1.7 0.69,-2.36 1.05,-3.39 0.33,-0.93 1.01,-2.48 0.14,-3.31 -1.14,-1.09 -6.42,-0.65 -8.39,-0.5 -0.31,1.09 -0.92,2.42 -1.3,3.54 -0.21,0.62 -0.29,1.24 -0.53,1.89 -2.12,5.68 -1.82,4.48 -1.26,9.52z"/>
   <path class="fil3" d="M68.69 75c-0.36,-0.66 0.24,-1.44 0.43,-2.21 0.39,-1.53 1.17,-3.5 1.36,-4.42 0.17,-0.82 0.27,-1.73 1.19,-1.71 0.58,0.78 -0.65,3.41 -0.99,4.36 -0.29,0.82 -0.36,1.47 -0.67,2.29 -0.12,0.32 -0.24,0.7 -0.39,1.1 -0.2,0.54 -0.27,0.67 -0.93,0.59zm6.91 -6.48c0.18,-0.48 0.28,-2.13 0.11,-2.73 -0.4,-1.44 -3.27,-1.51 -4.6,-1.25 -2.65,0.52 -3.97,2.03 -4.74,4.36 -0.24,0.74 -0.51,1.35 -0.8,2.16 -0.49,1.39 -0.44,1.74 -0.63,2.32 -0.6,1.81 -0.77,3.56 1.4,3.86 7.28,1.01 7.79,-4.79 9.26,-8.72z"/>
   <path class="fil4" d="M53.65 29.7c-1.77,-1.58 -3.02,-0.95 -5.12,-0.14 -2.06,0.8 -2.76,1.58 -2.76,4.25 -0,1.6 -0.18,1.85 0.71,2.85 0.84,0.94 4.77,4.39 5.61,4.85 0.8,0.45 4.73,1.58 5.76,1 0.97,-0.55 0.67,-1.83 -0.18,-2.11 -0.49,-0.16 -1.26,0.91 -2.78,0.08 -0.82,-0.45 -1.04,-1.43 -0.63,-2.52 0.46,-1.24 0.56,-1.36 0.03,-2.63 -0.94,-2.24 -1.28,-3.05 -0.63,-5.62z"/>
   <path class="fil3" d="M49.63 49.59c0.11,1.38 0.37,1.36 1.6,1.72 -1.4,0.83 -2.03,1.2 -1.52,3.38 0.33,1.42 0.68,2.4 2.96,2.54 1.05,0.07 1.43,-0.21 1.97,-0.65 0.8,-0.66 0.69,-0.72 0.67,-1.98 -0.04,-3.23 0.22,-3.2 -2.11,-3.31 0.61,-0.43 1.18,-0.55 1.26,-1.46 0.07,-0.83 -0.01,-1.68 -0.24,-2.39 -0.52,-1.57 -2.69,-2.16 -3.67,-1.17 -0.05,-1.17 -0.1,-0.95 -0.68,-1.77 -1.14,-1.61 -1.8,-0.55 -2.96,0.5 -1.19,1.07 -1.57,2.04 -1.73,3.43 -0.12,1.08 0.03,1.23 0.93,1.58 2.8,1.1 2.84,0.56 3.53,-0.41z"/>
   <path class="fil3" d="M40.32 46.4l0.86 -1.61c0.27,0.67 -1.11,1.72 -0.43,2.65 0.03,0.04 0.93,0.91 0.98,0.95 0.91,0.7 1.49,0.59 2.7,0.52 0.34,-0.46 0.54,-0.88 0.73,-1.58 0.26,-0.95 0.1,-0.82 0.72,-1.57 0.81,-1 1.84,-1.48 0.92,-2.9 -0.34,-0.52 -0.55,-1.03 -1.13,-1.22 -2.66,-0.88 -3.95,2.46 -4.36,2.93 0.1,-1.52 1.88,-2.36 1.38,-3.98 -0.25,-0.81 -0.49,-1.36 -1.41,-1.48 -1.61,-0.2 -2.69,1.92 -3.22,2.52 -0.51,0.59 -0.86,1.05 -0.83,1.97 0.07,2.61 0.12,3.11 3.1,2.79z"/>
   <path class="fil1" d="M25.42 74.2c0.84,0.04 4.19,-0.68 4.13,-2.39 -2.49,-0.51 -8.61,2.26 -9.26,2.27 -0.64,0.01 -0.44,-0.28 -1.29,-0.26 -0.51,0.99 0.22,0.74 -2.37,1.75l-7.36 2.82c-0.54,0.18 -0.98,0.39 -0.61,1.02 0.73,0.29 1.9,-0.47 2.5,-0.72 0.88,-0.36 6.92,-2.79 7.47,-2.75 0.25,3.1 0.04,10.27 1.55,12.55 0.6,0.04 0.71,-0.08 1.08,-0.35 0.05,-1.88 -0.22,-1.34 -0.76,-2.59 -0.27,-0.62 -0.37,-1.58 -0.46,-2.37 -0.12,-1.07 -0.24,-6.23 -0,-7.91 0.43,-0.13 0.88,-0.34 1.32,-0.48l3.76 -1.29 0.3 0.69z"/>
   <path class="fil3" d="M59.75 52.6c-0.38,-0.69 -0.25,-1.03 -0.8,-1.74 -0.71,-0.1 -2.41,0.32 -3.03,0.57 -0.5,0.76 -0.32,2.04 -0.32,3.05 -0.01,1.53 0.09,1.62 1.48,1.98 1.14,0.3 1.87,-0.11 2.48,-0.71 1,-0.99 0.26,-1.5 0.38,-2.71 0.22,0.54 0.4,2.61 2.13,2.74 0.47,0.04 2.59,-0.52 1.82,-2.92 -0.29,-0.89 -1.01,-2.64 -2.14,-2.72 -2.99,-0.22 -1.68,1.86 -1.98,2.47z"/>
   <path class="fil3" d="M61.17 47.7c-1.29,-0.47 -0.02,-0.36 -2.82,-0.9 -0.97,-0.19 -2.37,-0.43 -3.34,-0.31 -0.53,0.63 -0.54,1.74 -0.21,2.54 0.32,0.77 0.81,1.22 1.36,1.74 0.99,0.04 1.89,-0.28 2.74,-0.51 1.11,-0.3 1.64,-0.44 2.05,-1.26l0.23 0.13c0.54,0.31 0.46,0.49 1.89,0.25 2.33,-0.4 3.33,-1.26 3.71,-3.86 -1.22,0.21 -1.97,0.64 -3.05,0.92 -1.37,0.35 -1.66,0.71 -2.56,1.27z"/>
   <path class="fil5" d="M39.91 55c0.96,0.15 1.86,0.91 2.74,1.28 0.65,0.28 2.25,0.88 2.73,1.25 2.3,0.1 1.05,1.27 5.91,0.56 0.93,-0.14 5.43,-0.71 5.89,-0.96 -0.16,-0.25 -1.18,-0.59 -1.44,-0.62 -1.11,-0.13 -0.63,1.63 -5.16,0.58 -1.65,-0.38 -3.96,1.28 -5.64,-1.38 -0.17,-0.27 -0.24,-0.39 -0.4,-0.66 -1.12,-0.09 -2.36,0.05 -3.08,-0.59 -0.59,-0.53 -1.08,-1.88 -1.52,-2.18 -1.2,-0.22 -2.18,-0.33 -2.62,-1.11 -0.37,-0.66 -0.41,-2.04 -0.98,-2.67 -0.46,0.21 -1.57,1.25 -1.77,1.69 -0.49,1.1 0.61,1.61 1.16,2.07 0.62,0.51 3.88,2.34 4.19,2.74z"/>
   <path class="fil3" d="M22.97 72.39c1.25,-0.28 1.98,-0.51 3.09,-0.88 2.22,-0.75 1.15,0.03 2.89,-4.72l0.84 -2.84 -4.18 0.24 -1.34 4.05c-0.24,0.67 -0.36,1.38 -0.61,2.08 -0.25,0.72 -0.54,1.32 -0.68,2.07z"/>
   <path class="fil3" d="M40.3 51.92c0.15,-0.15 0.26,-0.31 0.4,-0.51 0.06,0.86 0.24,1.55 0.74,2.13 0.25,0.29 1.46,1.05 2,1.08 1.51,0.09 1.81,-3.01 1.64,-4.26 -0.1,-0.09 -1.32,-0.74 -1.58,-0.86 -0.9,-0.44 -1.43,-0.15 -2.06,0.22l-0.22 -0.62c-0.09,-0.19 -0.22,-0.31 -0.37,-0.45 -0.21,-0.2 -0.61,-0.57 -0.91,-0.74 -0.68,-0.39 -2.32,0.07 -2.62,0.45 -0.99,1.25 1.23,3.58 2.98,3.54z"/>
   <path class="fil6" d="M33.95 50.5c0.41,-1.25 0.14,-1.38 1.28,-2.08l2.28 -1.32c-0.21,-0.62 -0.57,-0.61 -0.66,-2.41 -0.04,-0.7 0.23,-2.41 0.06,-2.78 -0.8,0.45 -1.43,2.27 -1.64,3.24 -0.11,0.53 0.01,1.15 -0.35,1.4 -0.35,-0.56 -0.16,-1.4 -0.03,-2.02 0.16,-0.71 0.57,-1.43 0.31,-1.84 -0.5,0.24 -0.43,0.33 -0.6,0.78 -0.35,0.9 -0.83,1.68 -1.3,3.06 -0.21,-0.62 1.04,-3.21 1.38,-3.91 0.41,-0.85 0.78,-0.98 1.17,-1.69 0.42,-0.79 0.8,-0.87 1.13,-1.65 -1.14,0.22 -3.46,3.69 -3.81,5.12 -0.28,1.15 -0.62,2.27 -0.89,3.54 -0.16,0.73 -0.32,1.13 0.19,1.69 0.29,0.33 0.92,0.76 1.49,0.89z"/>
   <path class="fil1" d="M54.86 78.75c-0.16,-1.35 -0.55,-8.68 -0.86,-8.87 -0.8,-0.48 -0.83,0.39 -0.83,0.89 0.05,10.05 2.5,8.8 -1.79,9.17 -0.87,0.07 -2.89,-0.08 -3.52,0.12 -0.32,1.95 5.39,0.15 6.08,0.91 0.37,0.97 -0.04,2.46 0.15,3.58 1.75,0.09 0.73,-2.6 1.01,-3.79 1.29,-0.33 3.16,0.09 3.32,-1.22 -1.06,-0.27 -2.45,0.38 -3.32,-0.03l-0.25 -0.76z"/>
   <path class="fil3" d="M45.86 51.28c-0.69,0.35 -0.56,1.15 -0.69,1.91 -0.23,1.45 -0.58,2.41 1.39,3.4 0.7,0.35 1.36,0.31 2.16,0.05 1.6,-0.52 0.72,-1.24 0.63,-3.89 -0.04,-1.07 0.03,-1.26 -1.08,-1.45 -0.77,-0.13 -1.73,-0.36 -2.42,-0.01z"/>
   <path class="fil4" d="M66.96 37.86c0.05,1.17 0.01,1.96 -0.55,2.84 -0.69,1.08 -1.55,0.67 -2.75,0.31 0.01,2.99 3.82,1.18 5.45,0.75 0.08,-0.02 0.47,-0.13 0.53,-0.15 0.68,-0.27 0.24,0.05 0.57,-0.39 0.2,-0.35 0.06,-4.37 -0.53,-5.17 -0.94,0.36 -2.02,1.52 -2.72,1.81z"/>
   <path class="fil1" d="M43.8 80.98c-0.39,0.24 -1.11,0.29 -1.62,0.44 -0.61,0.18 -0.91,0.39 -1.38,0.56 -0.79,0.29 -0.79,0.15 -1.1,0.95 -0.29,0.74 -0.1,0.96 0.21,1.47 1.63,0.26 3,-0.17 4.3,-0.56 1.76,-0.52 2.94,-0.66 2.82,-1.72 -0.71,-0.05 -2.2,0.66 -2.98,0.9 -0.7,0.22 -2.63,0.54 -3.48,0.47 0.13,-2.16 6.82,-1.21 7.04,-2.68 0.21,-1.41 -5.15,-0.87 -6.17,-0.78 -1.09,0.09 -1.52,-0.07 -1.65,0.9 0.9,0.01 3.38,-0.21 4,0.04z"/>
   <path class="fil1" d="M30.09 86.12c1.52,-0.4 1.66,-3.38 3.55,-3.28 0.5,0.7 0.85,2.39 1.15,2.77 0.92,1.18 1.67,-1.06 1.94,-1.45 0.73,0.12 0.14,-0.08 0.56,0.31 0.11,0.1 0.25,0.27 0.41,0.41 0.28,0.23 0.56,0.42 0.92,0.6 0.85,0.44 1.93,0.36 1.94,-0.64 -1.05,-0.44 -1.27,0.05 -2.12,-0.79 -0.49,-0.48 -0.75,-0.79 -1.39,-1.29 -1.13,0.11 -1.02,0.75 -1.56,1.45 -0.3,-0.26 -0.3,-0.45 -0.43,-0.84 -0.24,-0.74 -0.62,-1.68 -1.68,-1.59 -1.18,0.11 -1.53,0.85 -2.07,1.4 -0.42,0.43 -0.08,0.37 -0.63,0.43 -0.08,-0.8 0.22,-1.64 -0.26,-2.29 -1,-0.06 -0.87,1.28 -0.85,2.17 0.02,1.09 -0.19,1.99 0.52,2.62z"/>
   <path class="fil3" d="M24.78 79.21c0.17,-0.35 1.28,-3.91 1.27,-4.16 -0.48,0 -0.77,0.17 -1.2,0.1 -0.74,-0.12 -0.32,-0.38 -1.02,-0.43 -0.4,-0.03 -1.63,0.51 -1.86,0.79 -0.24,0.3 -1.25,3.54 -1.25,4.02 0.77,0.03 3.37,-0.13 4.05,-0.33z"/>
   <path class="fil6" d="M37.94 40.25c1.09,0.08 1.29,-1.92 4.33,-1.15 0.63,0.5 0.64,1.61 1.16,2.29 0.94,-0.01 2.14,-0.53 2.97,0.11 0.44,0.34 0.79,1.43 1.29,1.99 0.46,-0.06 1.57,-0.88 2.63,0.97 0.26,0.45 0.1,0.53 0.57,0.82 0.63,0.22 1.28,-0.01 2.04,0.34 0.66,0.31 0.7,0.72 1.55,0.88 0.04,-0.64 -0.24,-0.55 -0.86,-0.85 -2.34,-1.13 -0.57,-0.11 -2.24,-1.37 -1.11,-0.84 -2.5,-1.55 -3.3,-2.09l-5.5 -3.48c-0.96,-0.66 -2.82,-1.85 -3.91,-1.12 -0.8,0.53 -1.01,1.42 -0.73,2.67z"/>
   <path class="fil1" d="M63.87 40.28c0.66,-0.43 3.76,-4.77 6.27,-4.9 0.17,0.35 0.25,0.71 0.57,1.01 0.29,-0.91 1.3,-2.33 0.94,-3.51 -1.36,-0.48 -4.38,2.19 -5.23,3.31 -0.39,0.51 -0.56,0.37 -1.37,1.64 -0.36,0.57 -1.21,1.61 -1.24,2.1 -0.04,0.57 -0.03,0.18 0.06,0.35z"/>
   <path class="fil1" d="M27.11 83.89c-0.89,1.53 -2.01,1.84 -3.45,0.83 -0.82,-0.58 -0.83,-0.98 0.42,-2.2 0.36,-0.35 0.75,-0.49 1.44,-0.43 0.82,0.07 2.1,0.91 1.59,1.8zm0.98 0.13c0.32,-0.79 -0.04,-1.6 -0.6,-1.95 -1.53,-0.97 -2.31,-1.68 -3.85,-0.36 -0.86,0.74 -0.7,0.34 -1.31,1.43 -0.79,1.43 0.67,2.82 2.22,3.02 0.96,0.13 1.74,-0.23 2.3,-0.66 0.56,-0.43 0.93,-0.73 1.24,-1.48z"/>
   <path class="fil1" d="M59.54 80.64c-0.21,-0.81 0.65,-1.31 1.59,-1.34l-0.02 0.84c-0.38,0.19 -1.11,0.52 -1.57,0.49zm0.79 0.99c0.15,-0.31 0.28,-0.27 0.81,-0.54 2.52,-1.31 0.29,-3.62 -1.28,-2.52 -1.64,1.15 -1.83,2.94 -0.96,3.49 0.47,0.3 1.41,0.47 2.13,0.5 0.53,0.02 2.07,-0.07 1.76,-0.72 -0.28,-0.57 -1.85,-0.21 -2.46,-0.2z"/>
   <path class="fil3" d="M11.93 79.26c0.44,0.89 2.65,0.89 3.69,0.29 0.46,-0.27 0.33,-0.41 0.85,-0.71l0.14 0.88 0.57 -0.07c0.32,-0.56 0.13,-1.71 0.12,-2.42 -0.75,0.09 -4.98,1.64 -5.37,2.03z"/>
   <path class="fil6" d="M66.58 47.58c0.69,0.07 2.79,-0.94 2.79,-1.45 -0.39,-0.89 -1.01,-0.89 -2.16,-0.71 -0.16,0.47 -0.07,0.69 -0.2,1.15 -0.11,0.39 -0.29,0.62 -0.43,1.01z"/>
   <path class="fil7" d="M20.57 78.34c0.02,-0.02 0.06,-0.06 0.07,-0.07l0.87 -2.73 -0.96 0.4 0.02 2.4z"/>
   <path class="fil8" d="M59.15 56.59c0.51,-0.07 1.96,-0.35 2.25,-0.66 -0.52,-0.81 -1,-0.33 -1.51,0.13l-0.5 0.33c-0.17,0.11 -0.13,0.08 -0.24,0.19z"/>
   <path class="fil9" d="M64.13 55.01c0.39,0.15 0.29,0.12 0.79,0.05 0.12,-0.76 -0.8,-0.98 -0.79,-0.05z"/>
  </g>
 </g>
</svg>
