<?xml version="1.0" encoding="UTF-8"?>
<!DOCTYPE svg PUBLIC "-//W3C//DTD SVG 1.1//EN" "http://www.w3.org/Graphics/SVG/1.1/DTD/svg11.dtd">
<!-- Creator: CorelDRAW -->
<svg xmlns="http://www.w3.org/2000/svg" xml:space="preserve" width="13.8997mm" height="21.5531mm" version="1.1" style="shape-rendering:geometricPrecision; text-rendering:geometricPrecision; image-rendering:optimizeQuality; fill-rule:evenodd; clip-rule:evenodd"
viewBox="0 0 22.55 34.97"
 xmlns:xlink="http://www.w3.org/1999/xlink"
 xmlns:xodm="http://www.corel.com/coreldraw/odm/2003">
 <defs>
  <style type="text/css">
   <![CDATA[
    .fil0 {fill:black}
   ]]>
  </style>
 </defs>
 <g id="Camada_x0020_1">
  <metadata id="CorelCorpID_0Corel-Layer"/>
  <path class="fil0" d="M15.37 29.8c-0.11,-0.21 -0.21,-0.42 -0.32,-0.63 -0.29,-0.5 -0.31,-1.23 -0.22,-1.96 -0.72,-1.88 -1.84,-3.36 -1.83,-3.45 -0.18,-0.16 -0.52,-0.15 -0.62,-0.1 -1.92,1.42 -2.24,3.45 -3.36,5.17 0,0.34 -1.91,1.69 -1.91,2.63 0,0.07 0,0.15 0,0.22 0,0.19 1,0.86 1.11,1.27 0.28,-0.03 0.56,-0.07 0.84,-0.1 0.13,0.01 0.27,0.01 0.4,0.02 0.4,0 0.66,0.36 0.66,0.7 0,0.2 0,0.41 0,0.61 0,0.56 -0.49,0.79 -1.06,0.79 -1.5,0 -2.13,0.07 -2.79,-0.83 -0.2,-0.27 -0.66,-0.64 -1,-0.81 -0.32,-0.16 -1.04,-0.34 -1.04,-0.72 0,-0.01 0,-0.03 0,-0.04 0,-0.32 0.41,-0.95 0.62,-1.1 0.34,-0.23 0.41,-0.75 0.52,-1.19 0.12,-0.5 0.2,-0.87 0.29,-1.43 0.04,-0.28 0.21,-1.1 0.39,-1.28 0.57,-0.06 0.67,-0.39 0.63,-1.81 0.09,0 1.72,-0.68 1.48,-2.75 0.23,0.12 0.6,-0.31 0.58,-0.92 -0.34,-0.38 -0.24,-1.16 -0.46,-1.93 -0,0 -0.01,0 -0.01,0 -0.18,0 -0.27,-0.39 -0.8,-0.39 -0.12,-0 -0.24,-0 -0.35,-0 -0.43,0 -0.86,0 -1.29,0 0.01,-0.47 1.73,-1.56 2.15,-1.87 0.4,-0.29 0.78,-0.56 1.04,-0.99 0.11,-0.19 0.27,-1.4 0.27,-1.74 0,-0.03 0,-0.06 0,-0.09 0,-0.94 -0.22,-1.58 -0.31,-2.37 -0.08,-0.71 -0.4,-1.51 -0.4,-2.32 0,-0.7 0.26,-1.43 0.5,-1.91 0.16,-0.31 0.81,-1.26 1.05,-1.42 -0.06,-0.23 -1.01,-0.37 -1.24,-0.53 -0.37,-0.13 -0.74,-0.26 -1.11,-0.39 -0.22,-0.06 -0.43,-0.12 -0.65,-0.18 -0.47,-0.13 -0.94,-0.26 -1.4,-0.39 -0.11,0.89 -0.23,1.78 -0.34,2.67 0.01,0 0.03,0 0.04,0.01 -0.06,0.48 0.26,1.54 0.44,1.8 0.29,0.41 0.8,0.73 0.8,1.45 0,0.04 0,0.09 0,0.13 0,0.26 -0.09,0.49 -0.18,0.66 -0.25,0.47 -0.13,0.11 -0.13,0.66 0,1.23 -1.29,1.84 -2.53,1.84 -0.16,0 -0.33,0 -0.49,0 -1.02,0 -1.82,-0.77 -1.82,-1.75 0,-0.2 0,-0.41 0,-0.61 0,-0.45 0.1,-0.82 0.17,-1.19 0.12,-0.58 0.09,-0.57 0.09,-1.18 0,-0.03 0,-0.06 0,-0.09 0,-0.35 0.33,-0.53 0.71,-0.53 0.26,-1.11 0.56,-1.23 1.23,-1.9 0.26,-0.26 0.85,-1.77 0.85,-2.31 0,-0.19 -4.43,-1.25 -4.43,-2.15 0,-0.03 0,-0.06 0,-0.09 0,-0.17 -0.01,-0.02 0.04,-0.13 0.24,0.06 0.19,0.26 0.49,0.26 0.14,0 0.27,-0.04 0.27,-0.18 0,-0.07 -0.1,-0.19 -0.13,-0.26 -0.1,-0.07 -0.54,-0.58 -0.65,-0.71 -0.24,-0.28 -0.26,-0.73 0.08,-0.91 0.33,0.17 0.79,0.94 1.02,1.27 0.23,0.15 0.5,0.39 0.75,0.57 0.29,0.2 0.53,0.31 0.84,0.48 0.34,0.2 1.45,0.79 1.82,0.87 -0.08,-0.11 -0.27,-0.4 -0.27,-0.57 0,-0.01 0,-0.03 0,-0.04 0,-0.11 0.2,-0.31 0.31,-0.31 0.01,0 0.03,0 0.04,0 0.37,0 0.48,1.05 0.62,1.05 0.2,0 0.6,-0.71 0.62,-0.92 0.12,-0.01 0.24,-0.03 0.35,-0.04 0.16,-0.01 0.33,-0.03 0.49,-0.04 0.05,0.08 0.09,0.08 0.09,0.18 0,0.04 0,0.09 0,0.13 0,0.14 -0.28,0.48 -0.4,0.53 -0.18,0.18 -0.35,0.35 -0.53,0.53 0,0.04 0,0.08 0.01,0.11 0.62,0.27 1.24,0.54 1.85,0.81 0.41,0.16 0.83,0.32 1.24,0.48 0.38,0.16 0.77,0.32 1.15,0.48 0.07,0.03 0.15,0.06 0.22,0.09 0.13,-0.19 0.53,-0.74 0.8,-0.74 0.04,0 0.09,0 0.13,0 0.15,0 0.17,0.03 0.3,0.05 -0.08,-0.21 -0.17,-0.41 -0.25,-0.62 -0.08,-0.11 -0.13,-0.25 -0.13,-0.44 0,-0.04 0,-0.09 0,-0.13 0,-0.1 0.03,-0.13 0.13,-0.13 0.17,0 0.33,0.1 0.44,0.18 0.46,0.37 0.92,0.73 1.37,1.1 -0.51,0.75 -0.49,1.93 -0.68,3.01 -0.08,0.44 -0.07,1.26 -0.12,1.72 -0.03,0.24 -0.22,1.45 -0.31,1.58 0,0.71 -0.31,1.25 -0.31,2.1 0,0.06 0,0.12 0,0.18 0,1.38 0.6,2.44 0.88,3.63 0.1,-0.01 0.19,-0.03 0.29,-0.04 0.1,-0.29 0.3,-0.86 0.33,-1.07 0.07,-0.43 0.15,-1.02 0.14,-1.48 -0.01,-1.08 0.13,-2.12 0.13,-3.16 -0,-1.08 0.22,-1.98 0.31,-2.94 0.04,-0.44 0.11,-0.99 0.19,-1.43 0.07,-0.41 0.32,-1.01 0.34,-1.33 0.47,0.11 1.11,1.3 1.28,1.37 0.16,0.07 1.97,0.61 2.09,0.61 0.13,0 0.12,-0.31 0.31,-0.31 0.1,0 0.21,0 0.31,0 0.15,0 0.66,0.26 0.81,0.34 0.34,0.18 0.47,0.22 0.58,0.6 0.4,0.14 0.81,0.28 1.21,0.41 0.19,0.09 0.38,0.18 0.57,0.27 -0.01,0.03 -0.02,0.06 -0.03,0.09 -0.62,-0.14 -1.24,-0.28 -1.86,-0.42 -0.28,0.3 -0.56,0.6 -0.84,0.9 0.08,0.08 0.15,0.17 0.23,0.25 -0.43,0.8 -0.78,1.59 -1.24,2.37 -0.27,0.46 -1,2.1 -1.55,2.1 -0.1,0 -0.21,0 -0.31,0 -0.39,0 -0.64,-0.58 -0.93,-0.66 -0.14,0.51 -0.49,0.86 -0.49,1.67 0,0.25 0,0.5 0,0.75 0,0.28 0.02,0.6 0.07,0.85 0.04,0.2 0.2,0.62 0.2,0.73 0,0.04 0,0.09 0,0.13 0.11,0.04 0.44,0.71 0.44,0.83 0,0.05 0,0.1 0,0.15 0.01,0.07 0.02,0.14 0,0.2 0,0 0,0 0,0 -0.09,0.32 0.04,1.87 0.27,2.26 -0.21,0.33 1.97,4.69 2.34,6.03 0.03,-0 0.05,-0.01 0.08,-0.01 0.06,0.71 -0.03,1.06 -0.03,1.75 0,0.19 0,0.38 0,0.57 0,0.52 0.39,1.14 0.7,1.37 0.01,0.01 1.6,0.43 1.65,0.43 0.44,0 0.95,-0.53 1.24,-0.53 0.43,0 0.98,0.64 0.98,1.05 0,0.06 0,0.12 0,0.18 0,0.43 -0.4,0.8 -0.68,0.99 -0.3,0.2 -0.95,0.24 -1.45,0.24 -1.39,0 -1.72,0.57 -2.75,0.57 -0.01,0 -0.03,0 -0.04,0 -0.16,-0.02 -0.32,-0.03 -0.49,-0.05 -0.24,-0.45 -0.31,-0.61 -0.31,-1.31 0,-0.57 -0.16,-0.88 -0.31,-1.28 -0.29,-0.79 -0.67,-1.46 -1.02,-2.19 -0.04,-0.09 -0.09,-0.18 -0.13,-0.26zm0 -20.77c0.02,0.19 0.36,1.19 0.45,1.44 0.17,0.51 0.42,0.87 0.57,1.28 0.3,-0.08 0.8,-1.59 0.8,-2.06 0.04,-0.02 0.09,-0.03 0.13,-0.05 0,-0.06 0,-0.11 0,-0.17 0,-0.24 0.09,-0.29 0.13,-0.48 -0.36,-0.11 -0.71,-0.22 -1.07,-0.33 -0.19,-0.05 -0.38,-0.1 -0.57,-0.15 -0.04,0.1 -0.09,0.2 -0.13,0.3 -0.1,0.01 -0.21,0.03 -0.31,0.04 0,0.06 0,0.12 0,0.18zm3.92 -3.55c0.19,-0.03 0.38,-0.06 0.56,-0.09 0.01,0.04 0.02,0.07 0.03,0.11 -0.76,0.13 -2.85,0.5 -3.71,0.72 -0.02,0.25 -0.03,0.5 -0.05,0.74 0,0.2 -0.02,0.66 -0.18,0.66 -0.13,0 -0.56,-0.21 -0.6,-0.41 -0.05,-0.23 -0.15,-0.64 -0.15,-0.86 -0.01,-0.62 -0.13,-1.26 -0.13,-1.93 -0.35,0.09 -0.55,0.77 -0.71,1.1 -0.45,-0.04 -0.44,-0.39 -0.44,-0.88 0,-0.13 0,-0.26 0,-0.39 0,-0.61 0.49,-0.29 0.49,-0.61 0,-0.01 0,-0.03 0,-0.04 0,-0.38 -0.49,-0.64 -0.49,-0.7 0,-0.39 0.24,-0.52 0.27,-0.79 -0.7,-0.16 -1,-0.18 -1.56,-0.52 -0.25,-0.15 -1.14,-0.68 -1.14,-0.97 0,-0.04 0,-0.09 0,-0.13 0,-0.14 0.16,-0.22 0.31,-0.22 0.06,0 0.12,0 0.18,0 0.33,0 1.37,0.8 1.82,0.83 0.03,-0.15 0.13,-0.74 0.19,-0.82 0.2,-0.27 0.52,-0.13 0.74,-0.27 0.28,0 0.56,0 0.84,0 0.34,0.22 0.42,0.05 0.83,0.45 0.21,0.21 0.37,0.55 0.37,0.95 0,0.04 0,0.09 0,0.13 0.5,0.11 1.99,0.72 1.99,1.23 0,0.16 -0.27,0.22 -0.44,0.22 -0.03,0.01 -0.06,0.02 -0.09,0.03 -0.57,-0.08 -1.15,-0.17 -1.72,-0.25 0.01,0.06 0.17,0.37 0.22,0.48 0.08,0.19 0.12,0.3 0.18,0.53 0.09,0.35 0.22,0.73 0.22,1.18 0,0.18 -0.12,0.53 -0.31,0.53 -0.01,0 -0.03,0 -0.04,0 -0.25,0 -0.39,-0.47 -0.4,-0.74 -0.28,0.02 -0.18,0.3 -0.18,0.61 0,0.26 0,0.48 0,0.75 0.64,-0.12 1.29,-0.24 1.94,-0.36 0.09,-0.44 0.23,-0.54 0.59,-0.61 -0.02,0.27 -0.14,0.42 -0.31,0.53 0.09,-0.01 0.45,-0.07 0.72,-0.15 0.04,-0.26 0.32,-0.63 0.61,-0.59 -0.06,0.22 -0.23,0.46 -0.42,0.56zm-0.64 0.96c-0.45,0.02 -0.66,-0.18 -0.71,-0.53 0.29,0 0.68,0.21 0.71,0.53z"/>
 </g>
</svg>
