<?xml version="1.0" encoding="UTF-8"?>
<!DOCTYPE svg PUBLIC "-//W3C//DTD SVG 1.1//EN" "http://www.w3.org/Graphics/SVG/1.1/DTD/svg11.dtd">
<!-- Creator: CorelDRAW -->
<svg xmlns="http://www.w3.org/2000/svg" xml:space="preserve" width="42.2106mm" height="49.2924mm" version="1.1" style="shape-rendering:geometricPrecision; text-rendering:geometricPrecision; image-rendering:optimizeQuality; fill-rule:evenodd; clip-rule:evenodd"
viewBox="0 0 76.72 89.6"
 xmlns:xlink="http://www.w3.org/1999/xlink"
 xmlns:xodm="http://www.corel.com/coreldraw/odm/2003">
 <defs>
  <style type="text/css">
   <![CDATA[
    .fil0 {fill:#07090A}
    .fil1 {fill:#64777B}
    .fil4 {fill:#A21D2A}
    .fil7 {fill:#B50100}
    .fil3 {fill:#F50400}
    .fil5 {fill:#FDF7FD}
    .fil6 {fill:#FDFDFD}
    .fil2 {fill:white}
   ]]>
  </style>
 </defs>
 <g id="Camada_x0020_1">
  <metadata id="CorelCorpID_0Corel-Layer"/>
  <g id="_2051053499552">
   <path class="fil0" d="M21.71 16.6l-0.12 0.53c-0.14,-0.14 -0.18,0.28 -0.16,-0.52 0.11,-0.73 0.06,-5.69 -0.12,-6.25 -0.47,-0.24 -0.48,0.05 -1.12,-0.13 -0.69,-0.2 -0.43,-0.34 -1.34,-0.16 -1.59,0.3 -6.86,1.37 -7.67,2.08 -1.18,1.02 -0.99,0.1 -2.33,0.17 -0.59,0.03 -7.67,1.55 -7.85,1.86 -0.16,0.26 -0.02,21.59 0.05,21.86 0.16,0.59 0.39,0.4 0.71,0.85 0.49,0.69 0.25,2.22 0.25,3.15 -0.01,2.26 -0.01,4.52 0,6.78 0.02,4.94 -1.12,6.45 6.61,3.84 2.9,-0.98 2.53,-2.31 3.13,-3.49 1.39,0.46 -0.55,2.2 -1.28,5.48 -0.73,3.28 -0.09,6.23 -0.85,7.36 -1.17,1.74 -4.85,2.93 -6.91,8.9 -1.66,4.83 -1.11,7.16 -1.86,10.16 -0.26,1.03 -0.8,2.18 -0.84,3.29 -0.07,1.94 1.16,1.68 0.84,2.87 -0.26,0.96 -1.16,2.13 -0.46,3.14 0.59,0.85 2.05,0.6 3.19,0.6 4.49,-0 3.6,0.76 4.88,-2.66 0.44,-1.18 0.41,-2.07 1.62,-2.09 1.62,-0.03 5.65,-0.17 6.97,0.08 0.83,1.99 1.5,4.08 3.63,4.61 3.7,0.93 11.06,0.14 15.17,0.06 2.3,-0.05 5.59,0.56 7.04,-1.02 0.14,-1.24 -0.35,-2.06 1.29,-1.97 0.08,0.98 -0.27,0.42 -0.08,1.37 0.69,0.15 1.56,-0.16 2.3,0.25 0.87,0.49 0.71,1.26 1.64,1.37 0.84,0.09 5.13,0.08 5.66,-0.11 0.09,-1.09 -0.19,-1.6 -0.1,-2.46 0.35,-0.37 0.7,-0.74 1.21,-0.43 -0.05,0.66 0.19,0.16 -0.43,0.56 -0.39,0.25 -0.39,0.39 -0.36,0.93 0.55,0.13 -0.17,0.24 1.55,0.86 0.63,0.23 1.32,0.59 1.96,0.71 1.42,0.26 3.44,0.3 4.92,0.33 0.97,0.02 6.39,-0.15 7.25,-0.5 0.69,-0.28 0.45,-1.09 1.06,-1.63 0.67,0.19 2.08,2.1 3.21,2.34 1.75,0.37 1.83,-2.41 1.76,-4.08 -0.99,-0.77 -0.85,-1.05 -1.06,-2.73 -0.25,-2.04 -0.95,-5.36 -0.25,-7.14 0.56,-1.41 2.56,-4.91 -0.33,-4.99 -2.08,-0.05 -1.61,0.34 -2.7,-1.18 -1.13,-1.58 -2.18,-2.97 -3.48,-4.35 -3.01,-3.2 -2.8,-2.6 -2.27,-4.59 1.52,-5.67 -1.06,-10.75 -5.18,-13.81 -0.64,-0.48 -1.82,-1.05 -2.32,-1.51 -0,-1.2 0.41,-1.31 1.3,-1.8 1.14,-0.63 2.58,-2.31 2.59,-3.52 0.01,-1.31 -0.93,-0.94 -1.81,-1.35 -0.02,-1.21 1.67,-2.01 3.03,0.94 1.04,2.26 3.15,6.76 4.88,8 1.69,-0.6 0.78,-3.81 0.71,-5.63 -0.15,-4.26 0.09,-8.73 0.89,-12.86 0.23,-1.18 0.53,-1.78 0.18,-2.94 -0.46,-1.52 2.22,-5.92 2.95,-6.92 1.09,-1.5 2.04,-2.27 3.11,-3.55 0.4,-0.48 1.07,-1.66 0.61,-2.48 -0.42,-0.76 -1.75,-0.43 -2.57,-0.25 -0.83,0.18 -1.67,0.52 -2.42,0.83 -0.69,0.28 -1.57,1.03 -2.19,1.01 -0.58,-1.23 -2.02,-13.79 -2.47,-14.29 -0.66,-0.38 -1.99,-0.54 -2.77,-0.22 -1.07,0.44 -1.53,0.48 -2.71,0.63 -1.49,0.19 -4.3,0.78 -5.55,1.23l-0.89 7.84c-0.6,-1.06 0.28,-5.58 -0.29,-6.72 -0.03,-0.03 -0.08,-0.09 -0.1,-0.06 -0.02,0.04 -0.08,-0.04 -0.11,-0.05l-2.22 -0.28c-0.78,0.13 -1.65,0.38 -2.42,0.55l-12.1 2.66c-3.25,0.71 -2.63,-0.68 -2.52,9.23 0.02,1.35 -0.07,1.01 -0.21,1.16 -0.5,-1.39 -0.92,-8.06 -1.49,-8.73 -0.4,-0.16 -0.64,0.03 -1.25,-0.15 -1.38,-0.4 -1.74,0.25 -4.15,0.67 -1.12,0.2 -4.85,0.7 -5.43,1.33 -0.38,0.51 -1.02,6.08 -0.99,7.13z"/>
   <path class="fil1" d="M41.22 54.63c-0.2,0.62 -0.84,1.16 -1.2,1.83 -0.31,0.59 -0.75,1.71 -1.48,0.83 -1.08,-1.31 1.73,-3.01 2.68,-2.66zm-11.23 -0.5c1.22,-0.34 2.7,0.92 3.1,1.55 -0.05,0.75 -0.87,2.36 -1.66,0.6 -0.66,-1.47 -1.4,-1.39 -1.43,-2.15zm12.39 -3.18c-0.95,0.34 -1.95,-0.15 -2.92,-0.24l0.38 0.22c0.03,0.02 0.08,0.03 0.11,0.04 0.13,0.05 0.15,0.03 0.25,0.03 -0.3,0.35 -1.44,-0.27 -3.24,-0.2 -2.93,0.12 -4.09,-0.22 -6.97,0.47 -0.95,0.23 -2.19,0.59 -3.17,0.49 -1.12,-1.56 -1.19,-4.07 -0.48,-5.98 1.07,-2.9 2.82,-3.25 2.98,-4.26 -0.43,-0.58 -1,-0.56 -1.48,-1.2 0.32,-0.73 1.51,-1.02 2.47,0.46l3.06 5.4c0.96,1.69 1.58,0.14 2.21,-0.39 1,0.42 0.7,2.15 2.78,0.41 2.43,-2.03 3.9,-5.27 5.99,-5.86 0.3,-0.08 0.71,-0.13 1.05,-0.09 0.65,0.09 0.57,0.13 0.77,0.61 -1,0.35 -2.76,1.12 -3.1,2 0.16,0.66 0.81,1.15 1.24,2.11 1.29,2.88 -0.02,7.22 -1.78,7.17 -0.27,-0.43 -0.32,-0.71 -0.16,-1.21zm-16.43 3.54c0.93,-0.04 1.76,1.4 1.69,2.44 0.15,-0.16 0.28,-0.29 0.47,-0.44 1.18,0.46 1.58,3.94 6.93,3.91 5.58,-0.03 6.26,-2.85 7.53,-3.17 0.07,-0.67 0.74,-1.5 1.13,-2.09 0.37,-0.56 0.73,-1.45 1.32,-1.79 0.63,0.01 0.64,-0.01 1.17,0.25 -0.6,-0.54 -1.04,-0.03 -1.67,-0.49 0.13,-0.57 0.06,-0.17 0.54,-0.56 0.33,-0.27 0.26,-0.32 0.52,-0.66 -0.42,-1.02 2.42,-5.36 2.97,-6.09 0.83,-1.09 1.06,-1.9 3.02,-1.34 3.05,0.87 5.81,3.63 7.7,5.95 0.61,0.75 3.51,4.53 3.52,5.71 -0.9,0.72 -1.54,0.31 -1.7,3.01 -0.09,1.51 -0.17,2.95 -0.34,4.49 -0.68,5.85 -1.97,5.52 -2.62,6.83 0.1,0.14 -0.03,0.07 0.19,0.25 1.07,-0.27 2.41,0.07 3.46,-0.28 0.54,-0.76 0.54,-2.37 1,-3.24 0.47,0.16 1.24,1.5 1.58,1.95 1.73,2.29 1.83,2.05 3.35,3.73 0.88,0.97 1.37,5.92 2.14,8.68 0.27,0.96 0.64,1.83 1.09,2.57 1.5,2.51 0.78,0.93 0.57,2.4 1.41,0.29 1.02,-0.98 1.68,-1.27 0.31,-0.13 0.63,-0.04 0.82,0.14l-0.75 0.56c0.17,0.46 0.63,1.33 1.04,1.6 0.4,0.26 0.46,0.03 0.46,0.03 0.54,-0.55 -0.41,-1.48 -0.49,-2.68l-0.56 -5.16c-0.31,-2.77 -0.47,-5.35 -1.53,-7.52 -1.65,-3.4 -5.28,-7.62 -7.91,-9.75 0.07,-1.8 4.07,-6.9 -2.79,-14.01 -1.36,-1.41 -3.83,-2.57 -5.67,-3.77 -2.93,-1.91 -2.86,-2.37 -4.85,-4.5 -3.4,-3.63 -4.3,-6.71 -9.02,-9.92 -3.68,-2.5 -3.3,-0.32 -3.41,-6.04 -0.06,-3.13 0.39,-6.71 0.17,-9.66 -1.11,0.31 -2.61,2.2 -3.2,3.25 -0.83,1.5 -1.31,3.05 -1.63,4.87 -1.22,6.93 1.57,3.95 -3.79,9.1 -3.51,3.37 -4.81,5.63 -7.43,8.49 -0.38,0.42 -1.3,1.23 -1.54,1.64 -0.33,0.58 -0.09,2.01 -0.33,2.97 -0.23,0.93 -0.76,1.55 -0.84,2.25 0.83,0.78 2.07,1.26 3.78,3.08 0.51,0.55 2.68,3.04 2.81,3.97 -0.02,0.01 -0.24,0.09 -0.25,0.1 -0.21,0.11 -0.22,0.13 -0.33,0.22z"/>
   <path class="fil2" d="M18.7 29.15c0.21,0.83 0.06,1.25 -0.82,0.99l0.06 -1.07 0.76 0.08zm-15.96 -13.14c0.21,-0.58 0.45,-0.92 1.08,-0.97 -0.19,0.54 -0.42,0.75 -1.08,0.97zm3.89 5.61c0.31,0.45 0.4,1.18 0.49,1.75 0.1,0.61 0.19,1.19 0.29,1.77l1.2 7.3c0.24,0.85 1.87,1.3 2.71,1.23 1.34,-0.1 1.21,-1.43 1.4,-2.83 0.16,-1.23 0.32,-2.43 0.49,-3.69 0.16,-1.24 0.73,-6.72 1.11,-7.39l0.08 2.94c0.02,10.23 -0.54,7.99 2.33,7.81 1.29,-0.08 2.59,0.94 2.59,-0.43 0,-3.31 0.18,-16.92 -0.09,-19.12 -0.78,-0.11 -6.8,1.25 -7.32,1.66 -0.62,1.59 -0.7,8.21 -1.27,9.27 -0.47,-0.38 -1.18,-6.35 -1.42,-7.74 -0.09,-0.49 -0.12,-0.7 -0.34,-0.83 -0.6,-0.2 -3.19,0.52 -4.03,0.7 -0.65,0.14 -1.32,0.29 -1.97,0.42 -0.88,0.18 -1.21,0.09 -1.21,1.21 0,4.02 -0.22,18.51 0.31,19.49 0.33,-1.27 0.84,-1.11 2.11,-1.36 0.73,-0.15 1.94,-0.24 2.51,-0.81 0.37,-1.35 0.01,-9.24 0.03,-11.32z"/>
   <path class="fil3" d="M37.46 74.7c-0.54,0.99 -1.39,0.32 -1.84,1.21 -0.25,0.49 -0.53,1.57 -0.81,2.27 -2.22,5.45 -1.73,4.43 -0.06,5.18 -0.12,0.66 -0.19,0.39 -0.45,0.91 -0.13,0.27 -0.2,0.58 -0.28,0.9 -0.29,1.13 -0.2,1.46 -0.67,1.69 -0.35,-0.85 0.77,-1.88 0.55,-3.17 -0.75,-0.25 -8.97,0.94 -9.77,-0.57 -0.35,-0.93 0.07,-2.4 1.07,-2.56 0.85,-0.13 2.63,-0.03 3.58,-0.04 3.41,-0.03 3.33,0.32 4.07,-1.44 0.56,-1.32 0.28,-1.08 0.16,-1.22 -0.59,-0.57 -5.55,-0.21 -6.74,-0.5 -0.07,-0.94 0.71,-2.1 1.33,-2.37 1.44,-0.61 8,0.45 9.68,-0.4 0.02,-0.86 1.02,-2.34 0.94,-3.41 -1.3,-0.45 -11.05,-0.08 -13.04,0.05 -1.94,0.12 -3.68,0.69 -5.2,1.53 -1.52,0.84 -2.95,1.78 -3.12,3.74 0.83,-0.14 2.19,-1.41 2.93,-0.65 0.41,0.64 -4.27,7.41 -0.78,10.78 1.27,1.23 3.71,1.1 5.76,1.13 2.14,0.04 4.52,0.02 6.62,-0.22 1.37,-0.16 1.57,-0.36 3.14,-0.16 0.67,0.08 2.48,0.09 2.9,-0.33 0.28,-0.28 3.48,-9.3 3.92,-10.49 0.39,-1.08 1.94,-4.47 1.67,-5.47 -0.85,-0.18 -3.67,-0.09 -4.15,0.38 -0.68,0.66 -0.77,2.82 -1.41,3.23z"/>
   <path class="fil1" d="M67.62 25.14c0.95,-1.12 1.31,0.41 2.39,-2.47 1.01,-2.68 2.11,-4.12 3.68,-6.24 0.95,-1.28 2.14,-1.93 2.17,-2.75 -1.82,-0.72 -5.58,1.55 -6.54,2.35 -3.1,2.58 -5.76,6.93 -7.75,10.86 -0.81,1.61 -2.48,6.32 -3.01,6.3 -0.81,-0.04 -1.21,-2.64 -1.74,-3.01 -0.47,1.17 -0.95,2.7 -1.02,4.28 -0.12,2.62 -1.38,1.14 -2.97,2.03 -0.21,1.28 1.54,1.35 1.21,2.68 -1.11,-0.32 -1.65,-3.06 -4.79,-2.79 0.02,1.08 1.04,1.98 1.56,2.6 1.22,1.46 4.75,5.74 6.69,5.43 0.33,-0.61 0.53,-1.58 0.76,-2.31 1.22,-0.33 2.8,-0.73 2.83,-2.23 -0.77,-0.67 -2.33,-0.47 -3.17,-1.2 0.15,-0.57 1.02,-0.92 1.49,-1.35 0.48,-0.43 1.05,-1.15 1.45,-1.44 2.96,-2.16 5.39,8.77 7.35,9.05 0.09,-0.87 -0.22,-6.16 0.03,-9.47l1.02 -8.73c-0.54,-0.4 -1.53,-0.81 -1.63,-1.59z"/>
   <path class="fil1" d="M14.11 58.7c-0.03,-6.59 2.31,-8.5 2.26,-9.39 -0.59,-0.12 -1.11,-0.03 -1.73,-0.17 -0.64,-0.14 -1.05,-0.39 -1.64,-0.46 -2.08,1.77 -1.73,6.31 -2.1,9.7 -0.22,2.07 -1.18,2.65 -2.25,3.57 -7.43,6.37 -5.29,10.08 -6.8,16.39 -0.2,0.85 -0.43,1.45 -0.69,2.27 -1.13,3.59 1.69,2.94 3.92,-0.4 0.9,-1.34 1.6,-3.03 2.17,-4.86 1.24,-3.99 0.3,-3.87 1.9,-5.16 0.9,-0.72 1.81,-1.8 2.29,-2.93 0.26,-0.6 0.22,-0.85 0.72,-1.01 0.47,0.3 0.41,1.21 0.65,1.99 0.99,3.29 2.45,2.02 5.28,2.43 1.59,0.23 2.59,0.89 4.35,0.42 1.54,-0.41 2.57,-0.65 4.27,-0.64l18.42 0.03c5.64,0 2.87,0.26 4.57,1.03 0.44,0.2 1.47,0.4 1.98,0.55 1.04,0.3 1.16,0.49 2,-0.14 0.48,-0.36 1.1,-0.71 1.44,-1.16 -0.8,-0.49 -4.47,-1.02 -5.75,-1.29 -6.04,-1.25 -13.21,-1.24 -19.31,-0.43 -3.28,0.44 -9.18,2.16 -11.98,0.42 -2.75,-1.71 -3.94,-6.08 -3.96,-10.75z"/>
   <path class="fil2" d="M61.88 15.03c-0.39,0.19 -1.9,0.8 -2.03,-0.01 -0.03,-0.19 0.8,-7.47 1.07,-7.94 0.4,0.48 1.03,6.88 0.96,7.96zm-4.45 -10.74c1.34,-0.76 2.14,1.35 0.86,1.87 -1.16,0.48 -2.15,-1.14 -0.86,-1.87zm-3.47 19.96l4.45 -0.96c0.08,-0.26 0.04,-0.33 0.08,-0.47 0.11,-0.45 -0.09,0.23 0.06,-0.23 0.12,-0.36 -0.04,-0.1 0.15,-0.33 0.59,0.52 -0.04,0.48 0.69,0.78 0.92,-0.03 0.21,-3.12 0.83,-3.8 0.1,-0.11 1.27,-0.65 1.86,-0.31l0.48 3.42c1.19,0.19 0.7,-0.72 0.61,-1.46 1.13,-0.67 0.95,-0.13 1.85,-1.27 0.54,-0.68 0.94,-1.21 1.46,-1.87 0.79,-1.01 1.09,-0.84 0.69,-2.14 -0.19,-0.62 -0.2,-2.2 -0.35,-3.08 -0.25,-1.49 -1.71,-11.1 -1.93,-11.6 -0.84,-0.2 -0.99,0.46 -3.27,0.68 -1.12,0.11 -2.3,0.43 -3.42,0.65 -2.36,0.47 -1.6,-0.06 -2.34,6.28 -0.4,3.41 -1.95,13.12 -1.89,15.69z"/>
   <path class="fil2" d="M26.68 20.94l0.86 -6.47c0.32,0.11 0.26,-0.12 0.35,0.56l0.25 2.63c0.09,0.81 0.44,2.96 0.23,3.54 0.19,0.19 0.44,0.2 0.22,1.3 -0.64,0.2 -1.51,0.37 -2.17,0.22 -0.04,-0.5 0.03,-1.32 0.26,-1.77zm-1.19 -9.12c0.42,1.85 -1.23,2.09 -1.77,1.32 -0.65,-0.92 0.37,-2.25 1.77,-1.32zm6.96 14.74c0.3,-1.57 0.47,-3.08 0.73,-4.6 0.37,-2.09 0.2,-2.67 -0.13,-4.68 -0.25,-1.49 -1.12,-8.4 -1.56,-9.1 -0.19,-0.02 -2.06,0.58 -3.3,0.77 -5.62,0.85 -5.06,0.84 -5.27,3.2 -0.37,4.08 -2.53,17.88 -2.26,19.46l4.46 -1.01c0.29,-0.54 -0.05,-0.46 0.35,-0.93 0.59,0.54 -0.05,0.56 0.69,0.7 0.99,-1.13 -0.69,-4.88 2.6,-4.15 0.63,1.31 -0.37,3.94 1.47,3.19 0,-0.03 -0.01,-0.07 -0.01,-0.08l-0.08 -0.27c-0.5,-1.69 0.88,-1.3 1.13,-0.91 0.34,0.53 -0.08,0.6 -0.35,1.1 1.01,-0.09 1.6,-0.52 1.62,-1.57l-0.79 -0.6c0.27,-0.4 0.31,-0.24 0.7,-0.52z"/>
   <path class="fil3" d="M58.79 71.62l-3.49 2.05c-1.35,0.92 -2.68,2.88 -1.47,2.69 0.43,-0.13 1.47,-1.05 2.06,-0.45 0.35,0.46 -0.98,3 -1.2,3.72 -2.3,7.52 1.48,5.34 2.85,5.63 0.71,0.14 1.37,0.73 1.72,0.75 0.36,0.02 1.15,-0.53 1.6,-0.67 0.48,-0.34 1.57,0.04 2.55,0.13 1.05,0.09 2,0.08 3.05,-0.08 0.59,0.04 4.14,0.14 3.56,-1.24 -0.62,-0.69 -3.72,-0.42 -4.95,-0.42 -1.33,0 -4.19,0.58 -4.59,-0.76 -0.23,-0.79 0.01,-1.75 0.46,-2.12 0.56,-0.47 1.57,-0.32 2.33,-0.32 4.43,0.01 6.01,0.77 5.17,-2.17 -0.24,-0.83 -0.64,-0.87 -1.56,-0.83 -1.06,0.06 -3.5,0.24 -4.31,-0.32 -0.18,-3.1 4.25,-2.2 5.13,-2.55 0.1,-1.35 -2.12,-3.32 -3.34,-3.57 -1.57,-0.33 -4.11,0.02 -5.58,0.53z"/>
   <path class="fil3" d="M12.44 79.66c-2.61,-0 -3.02,0.04 -2.03,-2.7 0.23,-0.63 0.5,-1.43 0.75,-2.04 0.35,-0.85 0.65,-0.96 1.69,-1.02 3.09,-0.17 3.93,0.81 4.56,0.44 0.37,-0.22 2.81,-2.26 2.94,-2.52 -1.18,-0.3 -2.29,-0.69 -3.61,-0.76 -0.73,-0.04 -7.14,-0.04 -7.49,0.14 -0.65,0.33 -0.67,1.78 -0.86,2.66 -0.43,1.94 -1.04,3.71 -1.84,5.22 -2.44,4.58 -4.3,3.7 -4.9,5.51 -0.24,0.72 -0.86,2.06 -0.65,2.8 0.86,0.19 5.11,0.15 5.59,-0.28 0.69,-0.62 1.1,-3.42 1.91,-4.24 2.15,-0.48 5.93,0.27 8.07,-0.15 0.95,-0.18 1.06,-1.67 1.39,-2.81 0.23,-0.8 1.05,-2.64 0.96,-3.31 -1.89,-0.8 -2.69,3.05 -6.49,3.05z"/>
   <path class="fil2" d="M50.37 22.52c0.85,-0.27 0.62,-0.02 0.9,0.6 0.27,0.59 0.57,0.35 0.64,1.08 -0.68,-0.11 -0.3,-0.27 -0.87,-0.69 -0.5,-0.37 -0.74,-0.15 -0.67,-0.99zm-2.86 -16.52c0.03,-0.97 0.65,-0.99 0.81,-0.42 0.24,0.84 -0.41,0.73 -0.81,0.42zm-0.46 -1.22c-0.24,1.68 -0.06,20.36 0.19,20.75 0.29,0.33 0.48,0.17 1.31,-0.03 1.07,-0.27 3.55,-0.72 4.19,-1.13 0.18,-1.52 -0.06,-14.34 -0.06,-17.47 -0,-0.77 0.27,-2.94 -0.27,-3.22 -0.35,-0.18 -4.77,0.91 -5.35,1.1z"/>
   <path class="fil3" d="M52.78 77.76c-0.24,-0.85 -0.21,-0.11 -0.99,-0.7 -0.12,-1.58 2.81,-4.02 4.26,-4.83 0.44,-0.25 0.61,-0.3 1.07,-0.49 0.36,-0.14 0.64,-0.45 0.69,-0.71 0.01,-0.08 0.04,-0.1 0.07,-0.14 0.29,-0.05 0.02,0.06 0.41,-0.18 -0.21,-0.17 -0.08,-0.11 -0.19,-0.25 -0.46,0.15 -0.56,0.37 -1.12,0.48 -0.55,0.11 -0.97,0.05 -1.41,0.31 -2.4,1.45 -4.52,4.35 -5.9,4.16 -1.24,-2.65 -0.13,-4.34 -2.32,-4.34 -3.12,0.01 -4.43,-0.43 -3.88,2.48 0.23,1.21 0.69,2.25 1.02,3.43 0.93,3.3 0.39,2.89 -2.8,5.38 -0.8,0.62 -1.72,1.22 -2.41,1.89 -0.46,0.44 -1.36,2.21 -1.17,3.12 0.56,-0 1.07,-0.23 1.63,-0.37 0.76,-0.2 1.22,0.04 1.68,-0.1 0,-0 0.18,-0.13 0.14,-0.66 -0.16,-1.7 -1.81,1.12 -2.81,0 0.68,-0.74 2.43,-1.12 3.6,-1.17 2.81,-0.13 2.28,-0.83 3.58,-1.17 0.88,0.81 0.54,1.28 2.38,1.39 0.76,0.05 2.93,0.13 3.46,-0.14 0.23,-0.62 -0.63,-3.5 -0.82,-4.33 -0.32,-1.37 0.37,-1.99 1.83,-3.07z"/>
   <path class="fil3" d="M6.24 46.76c-0.45,-0.88 -0.21,-6.51 -0.23,-8.39 -0.01,-1.05 -0.07,-1.98 1.03,-1.51 0.28,1.03 0.34,9.11 -0.04,9.96l-0.76 -0.05zm-3.36 3.53c1.14,0.19 3.8,-0.67 4.87,-1.07 1.53,-0.57 2.63,-1.03 2.73,-3.17 0.09,-2.01 0.11,-4.31 0.11,-6.32 0,-1.8 0.19,-4.34 -0.84,-5.36 -1.21,-1.2 -3.34,-0.3 -4.77,0.09 -2.82,0.77 -2.4,0.02 -2.37,3.61 0.03,3.32 -0.32,9.37 0.28,12.22z"/>
   <path class="fil2" d="M35.92 15.55c0.74,-0.23 2.24,-2.59 3.39,-1.87 0.61,0.58 -0.55,10.59 0.05,13.78 0.51,0.01 1.6,-0.23 1.98,-0.41 0.2,-1.67 0.09,-8.01 0.46,-8.82 0.79,-0.47 2.28,-0.29 2.96,-0.87 0.43,-0.36 0.47,-2.9 0.33,-3.62 -1.09,-0.33 -2.57,0.77 -3.47,0.11 -0.22,-0.61 -0.23,-2.92 0.03,-3.45 0.55,-1 3.25,-0.49 3.76,-1.4 0.29,-0.65 0.13,-2.03 0.12,-2.85 -0.02,-1.43 -0.54,-0.99 -1.64,-0.73l-7.24 1.63c-0.78,0.25 -0.65,1.35 -0.7,2.31 -0.06,1.09 -0.2,5.37 -0.03,6.21z"/>
   <path class="fil3" d="M18.2 44.88c-0.01,0.49 0.04,0.3 -0.22,0.6 -0.39,-0.15 -0.11,0.02 -0.38,-0.2 0.13,-0.49 0.06,-0.49 0.6,-0.4zm-1.88 -10.72c0.48,0.99 0.15,6.71 0.13,8.73 -0.01,0.8 0.23,2.65 -0.91,2.1 -0.64,-0.31 -0.27,-4.86 -0.26,-5.72 0.02,-1 0.03,-2.01 0.04,-3.01 0.01,-1.33 -0.33,-2.35 1,-2.11zm-4.28 2.71c0.16,0.76 0.33,0.37 0.11,1.18 -0.16,0.59 -0.16,0.68 -0.17,1.38 -0.05,2.64 -0.37,6.96 1.37,8.07 1.35,0.86 3.52,0.09 4.51,-0.67 2.51,-1.91 1.94,-7.13 1.94,-10.56 -0,-2.21 -0,-3.91 -1.57,-4.65 -3.35,-1.57 -6.77,2.44 -6.19,5.25z"/>
   <path class="fil4" d="M47.4 65.24c-0.49,-0.01 -0.57,0 -0.62,-0.56 -0.47,0.48 -0.88,1.02 -1.76,1.27 -1.01,0.29 -1.7,0.12 -2.42,-0.31l0.05 -1.1c-0.36,0.7 0.08,0.92 -0.69,1.1 -0.19,-0.28 -0.13,0.02 -0.16,-0.54 -1.61,1.01 -2.93,1.25 -4.13,-0.24 -0.11,0.49 0.13,0.18 -0.3,0.33 -0.27,0.1 -0.31,0.02 -0.58,-0.04 -0.99,1.52 -2.61,1.66 -4.23,0.56l-0.43 0.17c-0.01,0 -0.48,0.01 -0.58,0.02l-0.27 -0.84 0.06 0.72c-0.77,0.71 -0.98,0.8 -1.64,0.04 -0.26,0.41 -0.13,0.34 -0.61,0.48 -0.5,-0.33 -0.07,-0.22 -0.44,-0.81l0.09 0.8c-1.01,0.42 -2.66,1.67 -3.82,0.24l-0.13 0.42c-0.43,0.01 -0.58,-0.07 -0.85,-0.22 -0.61,0.82 -1.56,0.65 -2.33,0.2 -0.25,0.44 0.01,0.27 -0.55,0.46 -0.34,-0.47 -0.02,-0.37 -0.31,-0.79 0.14,1.39 -1.48,1.57 -2.66,1.47 1.31,0.75 4.63,0.94 5.36,0.6 2.89,-1.34 2.3,0.65 4.96,-0.49 1.16,-0.5 1.54,-0.19 2.59,-0.48 2.54,-0.71 2.8,0.48 5.34,-0.4 1.3,-0.45 0.82,-0.57 2.18,-0.16 1.03,0.31 1.8,0.2 2.81,0.03 1.06,-0.18 1.52,0.36 2.48,0.53 1.31,0.24 1.53,-0.19 2.35,-0.7 0.97,-0.6 1.29,0.32 1.89,0.76 1.93,1.41 3.01,-0.7 4.95,0.79 1.07,0.82 1.24,0.12 2.55,0.22 0.11,0.01 2.02,0.23 2.21,-0.37 0.02,-0.06 0.07,-0.05 0.1,-0.08 -1.02,-0.46 -1.26,-0.97 -2.03,-1.37 -0.63,0.39 -0.97,0.87 -1.96,0.53 -0.69,-0.23 -1.06,-0.65 -1.2,-1.41 -1.11,-0.12 0.04,-1.44 -0.48,-2.56 0.1,1.58 -0.11,3.18 -1.62,3.24 -1.06,0.05 -2.84,-0.69 -3.14,-1.51z"/>
   <path class="fil2" d="M38.76 50.63l0.69 0.09c0.97,0.08 1.97,0.57 2.92,0.24 0.68,-0.95 1.54,-1.93 1.59,-3.7 0.05,-1.45 -0.61,-3.43 -1.47,-3.98 -0.61,0.22 -1.65,1.43 -2.15,1.94 -0.63,0.63 -1.53,1.19 -2.12,1.89 -0,0 0.6,2.58 -0.63,2.95 -1.24,0.37 -1.01,-2.11 -1.29,-2.67 -0.46,-0.61 -1.21,-0.52 -1.37,0.35 -0.2,1.09 0.03,1.05 -0.46,2.02l-0.69 0.2c-0.37,-0.05 -0.49,-0.27 -0.59,-0.34 -0.59,-1.4 -0.28,-1.43 0.12,-2.65 -0.29,-0.67 -1.08,-1.52 -1.55,-2.19 -0.43,-0.61 -0.96,-1.93 -1.6,-2.2 -1.24,0.73 -3.06,3.5 -3.16,5.6 -0.21,4.49 2.9,2.47 5.19,2.42 1.2,-0.02 2.29,-0.23 3.38,-0.14 0.91,0.08 2.25,0.17 3.18,0.18z"/>
   <path class="fil3" d="M45.55 51.91c-0.25,0.35 -0.19,0.4 -0.52,0.66 -0.48,0.39 -0.41,-0.02 -0.54,0.56 0.63,0.46 1.07,-0.05 1.67,0.49l0.49 0.31c0.4,-0.32 1.1,-1.47 2.22,-1.62 0.78,-0.11 0.94,0.16 1.57,0.28 0.52,0.1 1.21,-0.09 1.65,0.23 0.56,-0.3 1.41,-0.47 2.18,-0.32 0.79,0.15 1.12,0.59 1.58,1.14 0.16,0.1 3.3,-1.18 3.39,-1.27 -0.5,-1.53 -1.64,-0.48 -2.33,-0.4 -0.88,0.1 -1.46,-0.86 -2,-1.33 -2.86,-2.51 -3.55,-0.07 -4.08,0.27 -0.51,-0.33 -1.49,-2.31 -2.63,-1.89 -1.31,0.86 -0.72,2.87 -2.63,2.89z"/>
   <path class="fil2" d="M52.64 66.07c0.13,0.76 0.5,1.17 1.2,1.41 1,0.33 1.33,-0.14 1.96,-0.53 0.77,0.4 1,0.92 2.03,1.37 1.23,-0.21 1.54,-2.74 1.14,-4.17 -0.85,0.03 -1.83,1.62 -2.43,1.14 -0.31,-0.33 -0.07,-1.1 -0.22,-2.17 -0.09,-0.63 -0.19,-1.23 -0.53,-1.68 -0.43,0.39 -0.92,1.96 -1.34,2.59 -0.7,1.04 -1.07,1.28 -1.82,2.06z"/>
   <path class="fil2" d="M37.65 64.87c1.2,1.49 2.52,1.25 4.13,0.24 0.73,-1.63 0.24,-3.49 -0.79,-4.58 -0.98,-0.06 -2.18,0.87 -2.63,1.36 -0.81,0.87 -0.98,1.41 -0.71,2.99z"/>
   <path class="fil3" d="M17.83 55.24c0.39,-0.44 0.76,-0.86 1.11,-1.22 -0.64,-0.28 -0.34,0.06 -0.55,-0.48 1,-0.43 1.18,-0.22 1.9,0.39 1.45,1.25 1.11,0.08 1.53,1.26 0.27,-0.86 1.54,-1.58 2.03,-2.33 -0.1,-2.18 -1.24,-0.8 -2.97,-1.65 -0.82,-0.41 -1.58,-0.51 -2.12,0.19 -0.5,0.65 -0.75,1.16 -1.29,1.76 -0.27,0.3 -0.47,0.48 -0.84,0.75 -1.48,1.08 0,1.43 1.2,1.33z"/>
   <path class="fil2" d="M32.54 65.71c1.62,1.1 3.24,0.96 4.23,-0.56 0.17,-2.35 -2.24,-3.29 -4.25,-3.58 -0.77,1.75 -0.71,2.39 0.02,4.14z"/>
   <path class="fil2" d="M24.9 66.53c1.15,1.43 2.81,0.18 3.82,-0.24l-0.09 -0.8c-0.27,-1.23 -1.05,-1.78 -1.71,-2.5 -0.32,-0.34 -1.65,-2.03 -1.87,-2.16 -1.13,1.43 -0.41,4.08 -0.14,5.7z"/>
   <path class="fil2" d="M42.64 64.54l-0.05 1.1c0.73,0.43 1.41,0.59 2.42,0.31 0.88,-0.25 1.29,-0.79 1.76,-1.27 0.08,-1.27 0.18,-3.18 -0.53,-4.03 -0.6,0.1 -0.56,0.39 -0.9,0.98 -1.19,2.07 -2.13,1.03 -2.69,2.92z"/>
   <path class="fil2" d="M18.05 68.07c1.18,0.1 2.8,-0.08 2.66,-1.47 -0.18,-0.97 -1.19,-1.27 -1.79,-1.86 -0.48,-0.47 -1.3,-1.77 -1.64,-2.01 -0.91,0.48 -1.64,4.7 0.76,5.35z"/>
   <path class="fil5" d="M47.4 65.24c0.3,0.82 2.08,1.56 3.14,1.51 1.51,-0.07 1.71,-1.66 1.62,-3.24 -0.12,-0.75 -0.25,-1.52 -0.79,-1.81 -0.59,0.51 -0.58,1.2 -1.69,2.23 -0.55,0.51 -1.45,1.03 -2.28,1.3z"/>
   <path class="fil2" d="M42.55 57.24c0.33,0.88 0.62,1.3 1.2,1.66 1.04,-0.37 2.73,-3.37 2.91,-4.98l-0.49 -0.31c-0.53,-0.26 -0.54,-0.24 -1.17,-0.25 -0.59,0.35 -0.95,1.23 -1.32,1.79 -0.38,0.59 -1.06,1.41 -1.13,2.09z"/>
   <path class="fil2" d="M52.08 52.82c-0.11,0.85 0.62,1.73 0.92,2.45 0.33,0.78 0.59,1.83 0.9,2.46 0.92,-0.28 1.99,-2.48 1.94,-4.09 -0.46,-0.56 -0.79,-0.99 -1.58,-1.14 -0.77,-0.15 -1.62,0.02 -2.18,0.32z"/>
   <path class="fil2" d="M23.84 52.86c-0.49,0.75 -1.76,1.47 -2.03,2.33 0.14,0.87 0.6,2.86 1.43,3.19 0.37,-0.52 0.77,-1.73 1.21,-2.44 0.35,-0.55 1.28,-1.47 1.38,-2.07 -0.27,-0.78 -1.06,-1.36 -1.99,-1.01z"/>
   <path class="fil2" d="M48.59 58.74c0.41,-0.2 0.23,-0.02 0.47,-0.59 0.38,-0.91 1.68,-4.21 1.71,-4.72 -1.61,-1.16 -1.97,-0.37 -3.29,0.29 0.05,0.92 0.74,4.39 1.11,5.02z"/>
   <path class="fil2" d="M17.83 55.24c-0.41,1.96 0.92,4.05 1.97,4.08 0.25,-1.46 0.28,-2 0.76,-3.39 0.44,-1.28 -0.31,-2.1 -1.62,-1.91 -0.35,0.36 -0.72,0.78 -1.11,1.22z"/>
   <path class="fil2" d="M21.58 66.93c0.78,0.45 1.73,0.62 2.33,-0.2 0.07,-1.5 -0.6,-1.75 -1.19,-2.51 -0.28,-0.37 -0.54,-0.67 -0.8,-1.09 -0.29,-0.47 -0.39,-0.84 -0.76,-1.14 -0.38,0.58 -0.37,1.84 -0.25,2.68 0.15,1.01 0.47,1.47 0.66,2.25z"/>
   <path class="fil6" d="M29.67 65.82c0.66,0.75 0.87,0.67 1.64,-0.04l-0.06 -0.72c-0.1,-1.22 -0.79,-3.1 -1.36,-3.77 -1.07,0.96 -0.68,3.17 -0.22,4.53z"/>
   <path class="fil6" d="M59.57 53.52c-0.86,-0.14 -2.44,-0.47 -2.47,0.82 -0.02,0.89 0.99,1.7 1.77,1.67l0.7 -2.49z"/>
   <path class="fil6" d="M27.63 56.94c0.08,-1.03 -0.75,-2.47 -1.69,-2.44 -0.17,1.02 0.51,3.35 1.19,3.74 0.25,-0.29 0.41,-0.74 0.5,-1.3z"/>
   <path class="fil7" d="M74.06 71.21c-0.31,-0.17 -1.01,-0.13 -1.34,-0.12 -0.09,0.6 0.56,2 0.81,2.41 0.37,-0.22 1.51,-1.76 0.54,-2.29z"/>
  </g>
 </g>
</svg>
