<?xml version="1.0" encoding="UTF-8"?>
<!DOCTYPE svg PUBLIC "-//W3C//DTD SVG 1.1//EN" "http://www.w3.org/Graphics/SVG/1.1/DTD/svg11.dtd">
<!-- Creator: CorelDRAW -->
<svg xmlns="http://www.w3.org/2000/svg" xml:space="preserve" width="42.2106mm" height="42.0545mm" version="1.1" style="shape-rendering:geometricPrecision; text-rendering:geometricPrecision; image-rendering:optimizeQuality; fill-rule:evenodd; clip-rule:evenodd"
viewBox="0 0 76.72 76.44"
 xmlns:xlink="http://www.w3.org/1999/xlink"
 xmlns:xodm="http://www.corel.com/coreldraw/odm/2003">
 <defs>
  <style type="text/css">
   <![CDATA[
    .fil0 {fill:#110E0F}
    .fil2 {fill:#4E2C1E}
    .fil1 {fill:#F0F2A9}
    .fil3 {fill:#FA4968}
    .fil5 {fill:#FCFCFC}
    .fil4 {fill:#FEFEFE}
   ]]>
  </style>
 </defs>
 <g id="Camada_x0020_1">
  <metadata id="CorelCorpID_0Corel-Layer"/>
  <g id="_2086937599808">
   <path class="fil0" d="M36.92 0.24c-5.98,0.66 -12.99,2.85 -18.85,4.47 0.27,1.57 1.31,4.15 1.84,5.73 1.24,3.7 4.07,14.36 4.13,17.93 -2.19,0.65 -12.32,2.66 -13.51,4.1 0.11,0.48 0.61,1.03 0.88,1.42 1.08,1.57 1.99,0.89 5.71,1.02 -0.48,0.99 -3.33,1.24 -4.52,2.07 0.02,0.52 0.23,1 0.32,1.47 0.18,0.89 -0.06,0.66 -0.31,1.41 -0.4,1.24 -0.22,2.58 -0.55,3.09 -1.74,-0.67 -1.08,-2.87 -4.69,-3.22 -1.16,-0.11 -6.41,0.06 -7.17,0.46 -0.21,0.46 -0.25,16.8 -0.09,18.44 0.3,0.39 0.3,0.18 0.49,0.5 0.2,0.34 0.05,0.31 0.26,0.68 2.77,-0.08 3.08,-1.02 3.26,1.83 0.22,3.61 -0.42,4.08 1.13,5.86 0.36,0.41 0.66,1.04 1.23,1 1.44,-0.11 3.86,-1.9 4.98,-1.89 0.46,0.84 0.48,1.11 1.79,1.06 0.44,-1.66 0.44,-1.47 1.39,-2.78 0.08,0.26 0.15,0.77 0.39,0.86 0.49,0.02 0.73,0.02 0.55,-0.48 -0,-0.01 -0.18,-0.23 -0.17,-0.36 0.03,-0.53 -0.08,-0.11 0.26,-0.35 0.64,0.7 -0.06,2.02 -0.06,2.03 0.08,0.85 -0.74,4.57 -0.94,5.73 -0.14,0.76 -0.61,2.26 -0.1,2.86 2.64,3.07 2.39,0.04 3.33,-3.89 0.15,-0.64 1.09,-4.47 1.7,-4.98 0.11,0.74 0.45,4.56 0.88,5.03 0.18,0.2 0.35,0.25 0.57,0.47 0.95,0.96 1.25,1.28 2.63,-0.67 1.97,-2.78 5.59,-10.24 7.28,-11.93l-0.55 5.8c-0.31,2.85 -0.19,2.32 1.08,3.7 0.31,0.34 0.53,0.49 1.21,0.34l1.79 -8.08c0.31,0.49 -0.15,2.19 0.64,3.6 0.29,0.51 1.54,1.9 2.23,2.03 1.35,0.25 1.83,-1.12 2.4,-1.78 0.62,-0.71 0.63,-0.36 1.3,-0.25 0.79,0.13 1.08,-0.22 1.66,-0.41 0.64,0.34 1.15,0.85 2.22,0.44 0.79,-0.3 0.94,-1.1 1.65,-1.18 0.3,1.01 0.13,0.92 0.79,1.52 0.37,0.34 0.67,0.82 1.14,1.07 1.81,0.04 0.91,-2.12 2.69,-1.69 1.56,0.37 1.87,-1.07 2.98,-1.45l1.67 1.75c1.48,-0.46 2.66,-3.01 3.86,-4 0.43,0.16 1.36,1.2 1.59,1.51 -0.04,0.57 -0.35,1.05 -0.03,1.67 0.41,0.79 1.8,2.16 3.34,2.2 1.08,0.03 2.29,-0.46 2.61,-1.14 0.52,-1.12 -0.57,-1.95 -0.8,-2.73 0.29,-0.29 1.43,-0.96 1.95,-1.02 1.6,2.4 3.27,0.08 3.98,-0.47 0.79,0.2 0.95,0.31 1.72,-0.26 1.29,-0.94 4.54,-6.76 1.19,-7.43 -2.36,-0.48 -1.13,-0.65 -3.26,-1.4 -0.25,-3.18 0.49,-9.46 -0.17,-11.95 -0.38,-1.46 -1.04,-1.93 -1.45,-2.72l3.27 -4.75c1.26,-1.92 1.95,-3.55 0.24,-5.6l-4.43 -0.04c0.28,-0.77 1.77,-0.9 2.32,-1.48 0.15,-1.37 -1.15,-2.28 -2.35,-2.48 -1.41,-0.24 -3.19,0.05 -4.64,-0.13 -0.18,-0.97 -0.06,-3.61 -0.14,-4.84 -0.09,-1.54 -0.14,-3.07 -0.35,-4.59 -0.47,-3.54 -0.8,-5.18 -2.95,-6.84 -3.92,-3.02 -8.57,-5.09 -13.62,-5.86 -3.81,-0.35 -7.01,-0.27 -10.82,0z"/>
   <path class="fil1" d="M34.38 22c0.79,0.49 0.88,1.97 0.58,2.71 -1.07,0.25 -0.89,-0.49 -1.86,-1.17 -0.41,-0.28 -0.41,-0.09 -0.55,-0.59 0.85,0.03 1.27,0.57 1.99,0.57l-0.16 -1.52zm35.89 10.08l0.42 1.25c0.33,-0.12 0.98,-1.05 1.25,-1.39 0.49,-0.62 0.27,-1.41 -0.18,-1.98l-1.54 -0.13c-0.5,0.33 -1.69,0.07 -2.39,0.19 -0.61,0.11 -1.24,0.74 -0.91,1.41 0.51,0.86 2.98,-0.11 3.35,0.66zm-9.59 -5.29c-0.85,-0.1 -0.58,-0.07 -1.63,0.22l0.28 2.31c0.8,-0 0.56,-0.21 1.43,-0.67l-0.08 -1.86zm-4.59 1.29l0.24 3.23c0.55,-0 1.99,-0.92 2.3,-1.3l-0.31 -2.59 -2.24 0.65zm-17.73 -23.21l-0.52 0.19 -0.18 0.39c-1.1,0.33 -2.3,0.6 -3.38,1.05 -1.25,0.52 -1.65,0.8 -3,0.93 -0.1,0 -0.22,-0.06 -0.54,-0.06 -0.27,0.44 -1.03,1.05 -1.71,1.29l0.3 -0.8c-1.04,0.15 -3.2,1.8 -3.62,1.94 -0.75,0.26 -0.3,-0.28 -1.25,-0.59 0.11,1 0.51,1.33 0.05,2.21 -1.22,0.12 -0.49,-0.36 -1.38,-0.45 -1,1.09 -0.27,4.07 0.31,5.45 0.24,0.57 0.09,0.43 0.54,0.61 0.12,-0.68 1.19,-1.36 1.99,-1.59 2.34,-0.68 7.03,0.43 7.43,3.06 -0.51,-0.25 -1.02,-2.1 -3.96,-2.53 -1.44,-0.21 -4.65,-0.1 -4.89,1.29 -0.1,0.16 -0.72,0.26 -0.58,2.2 0.06,0.78 0.4,1.49 0.38,2.23 0.7,0.69 0.04,1.84 1.32,2 -0.06,-0.79 -1.49,-2.79 -1.19,-5.02 0.1,-0.77 0.06,-0.42 0.32,-0.44 0.03,1.06 0.8,2.8 1.29,3.43 0.67,0.86 1.02,0.11 1.49,0.83 0.36,0.55 -0.05,0.78 1.78,0.67 0.96,-0.03 2.11,-0.31 2.91,0.17 0.67,0.4 1.12,1.34 1.63,1.73 0.89,0.68 1.87,0.13 1.62,-1.12l-0.58 -2.36c-0.03,-0.26 -0.07,-0.13 0.08,-0.32 0.44,0.81 1.22,2.69 1,3.86 -0.47,0.67 -1.38,0.59 -2.19,1.14 -0.72,0.48 -1.19,1.25 -2,1.46 -1.94,0.49 -4.56,-1.04 -3.37,-2.85 -0.05,-0.11 0.15,-0.65 -0.86,0.06 -2.21,1.57 -1.06,3.5 0.24,3.85 1.19,0.32 1.39,-0.13 2.23,-0.27 0.31,0.66 0.31,0.96 1.17,0.74 0.65,-0.16 1.28,-0.41 1.75,-0.64 -0.09,-2.29 3.09,-3.07 5.22,-3.1 4.07,-0.05 2.41,1.92 5.29,3.13 1.27,0.22 2.73,0.97 3.55,0.07 0.42,-0.93 -1.45,-1.38 1.6,-1.7 4.26,-0.45 4.14,-4.8 2.02,-5.97 -1.36,-0.75 -2.31,-0.33 -3.53,-0.68 0.19,-0.75 1.77,-1.27 2.8,-1.17 2.98,0.3 1.76,-3.89 1.7,-5.79 -0.05,-1.51 0.27,-2.18 -0.03,-3.85 -1.41,-7.91 -8.2,-6.96 -9.12,-6.23 0.72,0.1 1.81,-0.18 2.38,0.16 -0.45,0.33 -2.64,0.46 -3.35,0.59 -1.14,0.21 -2.13,0.57 -3.15,0.81zm-21.36 25.65c-0.09,0.19 -0.05,0.22 -0.06,0.19 0.98,0.04 1.98,0.04 2.96,0.08 1.17,0.04 2.05,0.2 2.21,-0.93 -1.79,-0.37 -3.28,0.21 -5.12,0.67zm14.42 -6.64c-0.55,1.45 1.02,2.44 2.32,1.94 0.1,-0.6 -0.48,-0.73 -0.89,-1.15 -0.4,-0.41 -0.75,-1.03 -1.43,-0.79zm10.84 0.39c0.89,-0.1 0.86,-0.26 1.44,-0.62 0.48,-0.29 0.98,-0.34 1.44,-0.5 0.17,-1.49 -2.89,-1.94 -2.88,1.11zm0.81 -2.95c2.04,-0.18 3.27,-0.05 4.41,1.1 0.54,0.55 2.6,2.45 1.2,3.38 -0.76,0.5 -2.88,1.54 -4.03,1.5 -1.95,-0.07 -2.35,-1.36 -3.22,-2.33 -0.31,0.04 -2.28,1.11 -3.52,-1.23 -0.48,-0.91 -0.83,-4.04 -0.31,-4.72 0.27,1.1 0.27,2.53 1.76,2.37 1.47,-0.16 1.48,-1.56 2.52,-1.84 -0.14,0.67 -0.62,1.22 -0.89,1.9 -0.27,0.7 -0.28,1.49 -0.82,1.9 -1.61,0.65 -1.23,-1.28 -2.09,-1.94 -0.4,0.71 0.76,2.39 1.13,2.58 1.78,0.88 1.59,-2.25 3.26,-4.78 0.37,-0.56 1.53,-2.08 2.17,-1.44 -0.25,0.68 -1.22,0.31 -1.51,1.65 0.66,-0.24 1.26,-0.94 2.25,-1.31 0.69,-0.26 2.43,-0.77 3.11,-0.34 -0.82,0.6 -3.1,0.21 -5.42,3.54zm-5.25 -4.35c-0.6,-0.34 -0.18,-2.7 0.03,-3.27 0.93,-2.45 4.53,-3.66 7.07,-4.54 2.79,-0.97 4.19,-0.17 5.33,1.59 1.08,1.66 1.6,5.56 0.96,6.53 -0.99,-1.76 0.43,-9.13 -6.1,-7.03 -1.62,0.52 -4.01,1.13 -5.12,1.97 -2.13,1.6 -1.83,3.77 -2.17,4.75z"/>
   <path class="fil2" d="M40.56 32.73c-0.5,0.57 -2.85,0.44 -3.73,0.3 -0.94,-0.15 -2.52,-0.52 -2.87,-1.31 0.96,0.23 1.92,0.76 3.01,0.91 0.55,0.08 3.57,0.1 3.59,0.11zm-18.77 5.8c-0.02,-0.49 -1.13,-0.42 -1.62,-0.48 -0.67,-0.09 -1.24,-0.3 -1.39,0.34 0.42,0.34 0.33,0.08 0.96,0.2 0.08,0.02 2.09,1.03 2.04,-0.06zm13.17 -13.82c0.3,-0.73 0.16,-1.76 -0.3,-2.48 -0.15,-0.23 -0.03,-0.07 -0.28,-0.22l0.16 1.52c-0.72,-0 -1.15,-0.54 -1.99,-0.57 0.14,0.5 0.14,0.31 0.55,0.59 0.98,0.67 0.79,1.42 1.86,1.17zm-19.52 13.93c0.8,0.05 1.85,0.12 2.62,-0.11 0.42,-0.92 -1.14,-0.77 -2.01,-0.82 -1.65,-0.11 -1.88,-0.38 -2.53,0.08 -0.05,1.03 1.04,0.79 1.92,0.85zm-4.1 -5.97c-0.18,0.82 0.9,0.61 2.52,0.65 1.04,0.03 2.06,0.04 3.1,0.09 1.07,0.04 5.47,0.24 6.19,-0.03 -0.12,-0.12 0.02,-0.05 -0.27,-0.18l-11.19 -0.62c-0.04,0.01 -0.08,0.01 -0.12,0.02 -0.04,0.01 -0.08,0.02 -0.11,0.03 -0.03,0.01 -0.08,0.02 -0.11,0.03zm52.74 -6.76c0.68,-0.08 3.11,-2.03 5.35,-2.63 -0.35,0.62 -1.74,0.94 -2.39,1.3 -1.12,0.62 -2.03,0.86 -2.13,1.54 0.61,-0.08 2.12,-0.93 2.8,-1.26 0.81,-0.39 2.64,-1.05 2.82,-1.41 -0.38,-0.79 -2.03,-0.55 -2.96,-0.55 -0.9,-0 -2.79,-0.12 -3.56,0.06l0.06 2.94zm-44.12 3.89c0.73,-0.08 1.52,-0.07 2.17,0.06 -0.17,1.13 -1.04,0.97 -2.21,0.93 -0.99,-0.03 -1.98,-0.04 -2.96,-0.08 0.01,0.03 -0.03,-0 0.06,-0.19 -0.74,0.3 0.02,0.3 -1.17,0.49 -0.45,0.07 -0.85,0.18 -1.27,0.32 -0.62,0.21 -2.02,0.36 -2.2,0.95l11.92 0.56c0.33,-0.28 0.08,-1.16 -0,-1.9 -0.07,-0.6 -0.13,-1.46 -0.25,-1.95 -1.01,-0.09 -1.37,0.07 -1.93,0.65 -0.35,-0.03 -0.69,-0.1 -1.03,-0.12 -0.12,-0.01 -0.41,-0.01 -0.52,0.01l-0.6 0.26zm40.93 -17.7c0.5,-0.5 1.75,-3.38 1.66,-4.24 -0.58,-0.71 -3.32,-2.4 -4.44,-2.89 -1.12,-0.5 -4.31,-1.97 -5.37,-2.13 0.15,0.4 3.32,3.62 4.11,4.55 0.7,0.83 1.33,1.48 2,2.39 0.47,0.64 1.4,2.17 2.04,2.32zm8.37 19.98c-1.1,-0.07 -2.07,0.39 -2.81,-0.39 -0.42,-1.78 0.98,-2 2.42,-2.04 0.95,-0.04 2.48,0.11 3.06,-0.43 0.22,-0.2 0.63,-0.74 0.83,-0.98 0.38,-0.46 0.71,-0.52 0.6,-1.18 -0.8,-0.29 -9.15,-0.16 -9.7,0.2l-2.65 2.51c-0.41,0.38 -2.64,1.98 -2.8,2.32 0.27,0.48 1.14,0.85 1.65,1.29l-0.06 0.86c0.62,0.26 4.94,0.57 5.84,0.6 1.42,0.05 1.87,0.23 2.53,-0.74 0.39,-0.57 1.12,-1.28 1.08,-2.01zm-19.62 2.35c-0.81,-0.22 -3.58,-0.07 -4.6,-0.07 -5.59,0 -11.24,-0.38 -16.74,-0.76 -1.11,-0.08 -3.21,-0.33 -4.18,-0.04l-8.05 2.89c-0.58,0.2 -1.1,0.31 -1.46,0.65 0.61,0.43 3.61,0.25 4.42,0.28 0.66,0.02 1.2,0.3 1.93,0.36 2.13,0.19 8.39,0.26 8.98,0.35 0.75,0.12 1.1,0.25 2,0.18 0.53,-0.83 0.92,-0.68 2.15,-0.79 0.86,-0.08 1.71,-0.14 2.58,-0.19 2.38,-0.13 8.92,-0.94 10.74,-0.11 0,0 3.48,2.49 3.2,-0.9 -0.45,-0.32 -0.9,-0.44 -1.28,-0.87l0.32 -0.98zm10.46 -7.71l0.59 0.07c-0.24,-0.57 -0.09,-0.11 0.07,-0.28 0.36,0.51 0.26,1.41 0.52,1.98 0.63,-0.03 1.2,-0.7 1.54,-1.06 0.68,-0.72 0.7,-0.71 0.69,-2.05 -0.01,-2.68 -0.21,-14.05 -1,-15.26 -0.51,1.07 -1,2.34 -1.75,3.06 -0.33,-0.19 -3.52,-4.29 -4.03,-4.9 -0.67,-0.81 -3.63,-4.22 -4.28,-4.48 -0.05,0.89 1.11,4.94 1.35,6.34 0.91,5.32 1.37,13.12 1,18.54 -0.06,0.92 -0.33,3.05 -0.24,3.81 0.95,0.39 1.89,0.51 2.27,-0.53 -0.04,-0.02 -0.1,-0.06 -0.12,-0.03l-0.34 -0.08c-0.35,-0.13 -0.33,0.24 -0.48,-1.44 -0.07,-0.79 -0.27,-1.62 -0.14,-2.42 0.56,-0.23 1.55,-0.61 2.19,-0.77 0.82,-0.21 1.26,-0.58 1.56,-0.63 0.7,-0.12 0.41,-0.09 0.59,0.14zm-36.11 -9.69c-0.45,-0.18 -0.3,-0.05 -0.54,-0.61 -0.58,-1.39 -1.31,-4.36 -0.31,-5.45 0.89,0.09 0.16,0.57 1.38,0.45 0.46,-0.87 0.06,-1.21 -0.05,-2.21 0.81,0.26 0.23,0.14 0.69,0.51 0.27,0.21 0.19,0.21 0.56,0.08 0.42,-0.15 2.58,-1.79 3.62,-1.94l-0.3 0.8c0.68,-0.23 1.43,-0.84 1.71,-1.29 0.31,0 0.43,0.07 0.54,0.06l1.36 -0.25c0.41,-0.08 1.17,-0.49 1.64,-0.69 1.08,-0.45 2.28,-0.72 3.38,-1.05l0.18 -0.39 0.52 -0.19c1.01,-0.24 2.01,-0.6 3.15,-0.81 0.71,-0.13 2.9,-0.25 3.35,-0.59 -0.58,-0.33 -1.66,-0.06 -2.38,-0.16 0.91,-0.73 7.7,-1.68 9.12,6.23 0.3,1.67 -0.02,2.34 0.03,3.85 0.04,1.26 0.37,2.49 0.28,3.74 -0.09,1.37 -0.53,2.19 -1.98,2.05 -1.04,-0.1 -2.62,0.42 -2.8,1.17 1.22,0.34 2.17,-0.08 3.53,0.68 1.75,0.97 2.18,4.37 -0.35,5.49 -0.46,0.2 -1.09,0.42 -1.67,0.48 -3.05,0.32 -1.18,0.77 -1.6,1.7 -0.82,0.91 -2.28,0.15 -3.55,-0.07 0.13,0.11 0.14,0.23 0.32,0.23 -0.57,0.83 0.24,1.84 0.62,2.06 0.11,-0.22 0.2,-0.57 0.48,-0.81 0.21,0.29 0.15,0.54 0,0.91 -0.15,0.37 -0.11,0.36 -0.39,0.64 -0.69,-0.07 -0.77,-0.7 -0.93,-1.36 -0.7,-0 -0.78,0.27 -1.34,0.55 -1.57,0.78 -5.94,0.77 -7.92,-0.16 -0.22,-0.1 -0.88,-0.6 -1.14,-0.79 -0.62,-0.45 -0.49,-0.55 -0.2,-1.29 -0.48,0.23 -1.1,0.47 -1.75,0.64 -0.86,0.22 -0.86,-0.07 -1.17,-0.74 -0.84,0.14 -1.04,0.6 -2.23,0.27 -1.3,-0.36 -2.45,-2.28 -0.24,-3.85 1.01,-0.72 0.81,-0.17 0.86,-0.06 0.18,-0.21 0.2,-0.1 0.3,-0.77 -0.45,-0.27 -0.66,-0.18 -1.07,-0.28 -0.35,-0.08 -0.09,0.03 -0.3,-0.11 0.17,-0.14 0.02,-0.12 0.44,-0.24 0.57,-0.16 0.55,0.14 1.34,-0.18l0.2 -0.12c-1.83,0.11 -1.42,-0.13 -1.78,-0.67 -0.47,-0.72 -0.82,0.03 -1.49,-0.83 -0.49,-0.63 -1.26,-2.37 -1.29,-3.43 -0.26,0.03 -0.22,-0.32 -0.32,0.44 -0.3,2.23 1.13,4.23 1.19,5.02 -1.28,-0.16 -0.62,-1.31 -1.32,-2l0.14 0.66c-0.58,-0.42 -0.14,-0.5 -0.73,-0.85 0.01,1.68 0.55,3.71 0.73,5.47 0.1,1.04 0.34,5.17 0.61,5.75 1.08,0.43 5.72,0.47 7.19,0.64 3.64,0.4 11.18,0.41 15.19,0.5 2.29,0.05 2.31,0.32 3.34,-0.63 2.8,-2.56 3.63,3 3.61,-9.14 -0,-2.75 -0.2,-5.54 -0.53,-8.21 -0.76,-6.33 -1.16,-7.28 -2.6,-12.74 -0.24,-0.89 -0.25,-1 -1.16,-1.16 -10.58,-1.84 -21.43,0.02 -30.1,3.83 -0.06,0.52 1.39,5.41 1.64,6.45 0.28,1.14 0.66,2.14 0.8,3.33l0.48 2.59c0.14,0.71 0.03,0.51 0.48,0.69 0.15,-0.94 0.04,-1.25 0.53,-1.83z"/>
   <path class="fil3" d="M43.06 62.51c-0.41,-1.03 1.1,-5.15 2.85,-5.02 0.05,0.78 -1.56,4.63 -2.19,4.99 -0.49,0.27 -0.66,0.03 -0.66,0.03zm-10.3 -10.41c0.23,0.08 0.16,-0.2 0.15,0.4l-0.18 1.4c-0.41,0.51 -1.68,10.36 -1.78,12.06 -0.07,1.2 -0.07,1.38 0.42,1.61 0.4,-0.19 0.34,-0.11 0.41,-0.7l0.26 -2.56c0.36,-3.6 1.4,-6.2 2.03,-9.39 0.26,-0.4 1.34,-4.19 1.6,-5.02 0.26,-0.81 1.75,-4.49 1.21,-5.07 -0.27,-0.59 -0.65,-1.14 -1.61,-0.97 -0.34,0.44 -0.58,1.03 -0.75,1.65 -0.29,0.28 -2.69,5.06 -3.18,6 -2.28,4.37 -4.39,7.81 -6.57,11.85 -0.58,1.07 -1.05,1.98 -1.62,3.02 -0.91,1.68 -1.18,2.8 -1.36,3.13 -0.68,-0.24 -0.47,-1.98 -0.59,-2.84 -0.24,-1.81 -1.05,-7.8 -1.33,-8.84 -0.42,-4.15 4.6,-13.94 0.65,-13.26 -0.56,0.81 -1.12,5.17 -1.38,6.58l-0.33 -0.73c-0.18,-0.88 -0.08,-2.19 -0.64,-2.44 -1.53,-0.16 -1.11,1.69 -0.85,2.76 1.55,6.59 0.96,4.04 0.06,10.65 -0.16,0.95 -0.05,2.13 0.59,2.72 0.46,-0.82 0.67,-3.41 1.2,-4.29 0.35,0.83 0.75,4.35 0.96,5.51 0.82,4.42 0.25,8.06 2.8,3.65l4.18 -7.29c1.96,-3.59 3.94,-6.42 5.65,-9.6zm21.65 7.07c0.22,-0.38 0.54,-2.18 -0.87,-2.08 -0.56,0.04 -0.27,-0.01 -0.41,0.16 -0.45,0.14 -0.58,4.94 -2.56,5 0.06,-2.33 1.15,-4.75 2.77,-6.14 0.59,-0.51 1.31,-0.61 1.71,-1.08 -0.32,-1.37 -1.9,-0.63 -2.66,-0.12 -1.56,1.05 -3.09,5.26 -3.96,7.35 -0.24,0.56 -0.04,0.35 -0.42,0.52 -0.7,-1.95 1.39,-13.26 1.18,-13.95 -3.05,-0.83 -1.53,5.53 -2.99,7.9 -0.93,-0.17 -1.14,-0.79 -2.25,0.05 -1.38,1.05 -1.99,5 -3.4,5.44 -0.34,-1.06 1.14,-5.75 -0.97,-4.27 -0.73,0.51 -0.66,1.9 -0.95,3.07 -0.27,1.14 -0.83,3.41 -2.02,3.21 -0.58,-1.39 1.07,-5.95 0.87,-6.66 -3.19,-0.72 -2.66,9.84 0.24,6.9 1.13,-1.14 1.14,-1.97 1.51,-2.53 0.4,0.48 0.38,1.24 1.39,1.08 0.7,-0.11 0.94,-0.78 1.44,-1.07 0.45,0.59 0.47,1.4 1.61,1.13 1.01,-0.23 1.98,-2.27 2.36,-3.2 0.18,-0.45 0.4,-1.66 0.78,-1.85 0.21,0.67 0.04,4.81 0.8,6.25 1.38,0.36 1.11,-1.7 2.06,-2.59 0.29,0.56 0.34,0.92 0.81,1.06 1.55,0.47 2.31,-2.08 2.8,-2.34 0.29,0.57 0.23,1.25 0.98,1.15 0.57,-0.08 0.77,-0.68 1.08,-0.98 0.37,0.77 -0.99,2.05 0.13,2.47 0.51,-0.24 0.75,-1.02 1.07,-1.53 0.54,-0.86 2.69,-3.77 3.5,-3.84 0.09,1.24 0.01,2.57 0.96,3.07 1.26,-0.03 1.6,-1.66 2.32,-2.53l0.55 1.69c0.39,1.04 -0.21,0.76 -0.27,1.69 0.74,0.63 1.63,0.31 1.53,1.44 -1.68,0.63 -2.18,-0.72 -2.99,-0.43 -1.44,1.2 1.5,2.19 2.89,1.62 0.56,-0.23 1.31,-0.86 1.05,-1.64 -0.23,-0.71 -0.95,-0.87 -1.43,-1.26 0.19,-0.76 0.99,-0.88 1.73,-1.43 0.6,-0.45 1.1,-1.28 1.6,-1.54 0.07,1.16 0.06,2.89 1.68,2.13 1.04,-0.48 1.13,-1.47 1.77,-2.28l0.34 0.61c1.11,2.02 2.76,-2.38 3.38,-3.68 0.21,-0.43 0.7,-1.2 0.35,-1.6 -0.79,-0.76 -1.88,3.72 -2.78,4.56 -0.4,-0.73 1.16,-3.74 -1.4,-3.16 -0.38,0.62 -0.72,4.76 -2.34,5.03 -0.58,-1.17 0.69,-3.66 1.22,-4.5 1.31,-2.08 2.74,-1.94 3.09,-2.76 -0.78,-1.15 -2.09,-0.63 -2.89,0.13 -1.28,1.21 -1.74,3.02 -3.37,5.13 -0.93,1.21 -1.38,2.01 -2.43,1.82 -0.35,-1.06 0.36,-2.95 0.86,-3.78 0.93,-1.57 1.05,-1.38 2.85,-2.03 -0.12,-1 -1.56,-1.06 -2.44,-0.63 -1.83,0.89 -3.52,5.45 -4.44,6.01 -0.12,-1.12 1.44,-5.76 -0.67,-4.46 -0.6,0.37 -2.25,2.53 -2.75,3.18 -0.46,0.6 -0.66,1.05 -1.12,1.23 0.37,-1.5 2.13,-4.44 1.54,-4.94 -1.54,-0.74 -1.89,1.72 -2.29,2.61 -0.29,0.65 -1.25,3.09 -1.78,3.31 0.05,-0.51 0.17,-0.58 0.05,-1.11zm-39.27 15.67c0.57,0.04 0.5,-0.12 0.66,-0.73 0.29,-1.17 1.77,-6.87 1.53,-7.53l-0.85 -0.03c-0.3,1 -1.63,7.67 -1.34,8.3z"/>
   <path class="fil4" d="M37.56 28.86c-0.03,0.02 -0,0.42 -0.64,0 0.02,-0.01 0.09,-0.64 0.64,0zm-1.66 0.14l-0.92 -0.03c-0.35,0.59 -0.59,0.7 -0.49,1.32 0.41,0.12 0.49,0.03 0.92,0.2 1.38,0.56 1.15,0.46 3.05,0.55 1.62,0.08 2.04,0.17 3.19,-0.41 0.57,-0.29 0.53,-0.1 0.54,-0.75 0.6,0.06 0.49,0.21 0.92,-0.11 -0.11,-0.55 -0.61,-0.85 -0.89,-1.31 -1.22,0.01 -1.57,0.37 -1.95,0.51l-0.53 -0.33 1.85 -0.52c0.02,-0.46 -0.87,-1.49 -1.17,-1.74 -0.51,-0.43 -0.36,-0.09 -1.12,-0.17 -0.86,-0.1 -3.5,-0.54 -3.99,0.27 -0.55,0.92 0.45,1.87 0.6,2.51z"/>
   <path class="fil4" d="M6.29 64.64c-0.31,-0.77 -0.41,-2.96 -0.44,-3.97 -0.02,-1.02 0.06,-1.03 1.17,-0.96 4.69,0.28 1.96,5.34 -0.73,4.93zm7.6 -3.35c-0,-0.48 0.19,-0.77 0.38,-1.22 0.41,-1 0.27,-0.78 0.62,-0.92 0.19,0.48 0.47,1.54 0.33,2.13l-1.32 0.01zm-1.84 4.82c0.97,-1.3 -0.43,-3.15 3.74,-3.13 1.19,1.28 0.54,3.12 1.72,3.03 0.16,-0.99 -0.87,-2.85 -1.32,-4.6 -0.2,-0.77 -0.34,-1.59 -0.58,-2.37 -0.26,-0.85 -0.37,-1.58 -1.37,-1.63 -0.24,0.38 -0.4,0.92 -0.62,1.36l-1.25 2.61c-0.41,0.91 -0.49,0.37 -1,0.95 -0.05,0.13 -0.06,1.6 -0.11,2.09 -0.09,0.77 0.1,1.56 0.8,1.69zm-4.82 0.31c0.81,-0.43 1.67,-0.92 2.27,-1.47 2.12,-1.95 1.36,-6.03 -2.45,-6.53 -2.2,-0.29 -2.74,-0.29 -2.54,0.96 0.09,0.59 0.53,4.57 0.42,5.11 -0.14,0.68 -0.44,0.73 -0.08,1.44 0.62,1.21 1.18,1.12 2.38,0.48z"/>
   <path class="fil5" d="M34.65 55.7c2.99,-0.07 2.47,0.35 2.53,-2.87l0.06 -3.87c0.04,-1.49 -0.05,-1.01 -0.2,-1.14 -0.43,1.13 -2.26,6.9 -2.39,7.88zm30.79 -17.14c1.03,-0.49 1,1.58 0.94,2.4 -0.13,1.98 0.17,9.43 -0.57,9.86 -1.21,0.71 -0.95,-1.65 -0.94,-2.38 0.01,-1.64 -0.13,-7.27 0.22,-8.56 0.31,-1.15 -0.09,-1.12 0.35,-1.33zm5.28 8.98c0.11,-2.36 0.11,-4.84 0.08,-7.22 -0.03,-2.01 -0.55,-3.95 -2.65,-4.58 -2.14,-0.64 -4.58,-0.14 -5.95,1.01 -1.6,1.34 -1.65,2.72 -1.76,5.47 -0.09,2.27 -0.15,4.96 -0.06,7.25 0.1,2.38 0.99,3.63 2.94,4.25 1.31,0.42 1.16,-0.55 2.46,-1.01 1.57,-0.56 2.34,0.27 2.9,0.09 0.53,-0.17 1.36,-1.4 1.62,-2.02 0.43,-1.03 0.35,-2.02 0.41,-3.24zm-18.99 -11.36c0.56,-0.48 0.56,-1.2 1.79,-1.04 0.67,0.08 1.51,0.5 2.28,0.64 1.95,0.34 3.21,-1.35 3.29,-2.17l-1.56 -0.93c-0.39,0.3 -0.09,0.08 -0.39,0.44 -0.89,1.06 -2.09,0.01 -3.74,-0.15 -1.59,-0.15 -2.82,1.13 -3.23,2.21 0.31,0.38 1.05,0.85 1.56,1.01zm3.35 11.77c-0.42,-0.1 -0.33,0.03 -0.43,-0.64 -0.2,-1.42 -0.74,-4.76 0.18,-5.91l0.41 6.24c-0.07,0.28 -0.01,0.13 -0.15,0.3zm-5.32 0.1c-0.02,0.97 0.29,0.92 0.04,2.19 -0.24,1.24 -0.6,3.14 -0.64,4.39 1.93,0.28 2.8,-0.25 4.45,-1.1l0.22 -2.23c0.53,-0.14 1,-0.26 1.58,-0.12 0.2,2.27 -0.14,3.15 0.88,3 0.52,-0.08 1.09,-0.47 1.54,-0.54 0.87,-0.13 1.05,0.43 2.32,0.24 0.17,-0.73 -2.05,-15.37 -2.33,-17.51l-6.46 0.48 -1.59 11.19zm-6.79 3.99c-0.14,-0.92 -0.01,-10.9 0.17,-11.55 1.59,-0.16 1.27,0.97 1.26,2.27l-0.07 7.2c-0.05,1.24 0.01,2.18 -1.37,2.08zm3.03 2.76c0.77,-1.65 0.01,-5.13 1.45,-6.28 1.48,-1.18 1.46,0.44 1.46,-2.41 0,-4.42 0.81,-8.21 -2.97,-8.66 -1.11,-0.13 -6.75,0.03 -7.29,0.47 -0.18,0.19 -0.4,16.73 -0.22,17.5 0.77,0.09 6.83,-0.41 7.57,-0.62zm-13.27 -7.71c0.65,-0.41 1.26,-2.24 1.63,-3.02 0.88,-1.81 2.13,-0.46 2.93,-0.2l0.06 -5.94c-1.12,-0.04 -3.54,0.05 -4.53,0.36l-0.1 8.8zm-5.82 -1.03c-0.25,-0.74 -0.08,-2.09 -0.07,-2.92 0.01,-0.91 0.03,-2.24 1.14,-1.25 0.58,0.52 0.35,1.83 0.32,2.67 -0.03,0.99 -0.25,1.74 -1.4,1.49zm-4.47 -7.09c-0.17,1.2 -0.11,3.4 -0.1,4.69 0.01,1.99 0.87,1.22 0.27,3.85 -0.43,1.88 -0.5,7.03 -0.36,9.02 0.44,0.09 3.95,-0.14 4.46,-0.25l0.2 -7.05c3.46,-0.76 5.8,0.5 5.11,-7.78 -0.18,-2.12 -1.33,-2.87 -3.6,-2.9 -1,-0.01 -5.19,0.19 -5.97,0.41zm-17.22 4.31c1.32,-0.28 1.28,0.8 1.27,1.93 -0.01,1.22 0.05,1.97 -1.42,1.85l0.16 -3.77zm10.43 7.48c-0.11,-1.7 0.62,-4.95 0.78,-6.85 0.41,0.65 0.36,2.67 0.41,3.63 0.63,0.02 0.62,-0.25 1.27,-0.2 0.55,0.04 0.47,0.25 1.03,0.29 0.33,-0.9 0.3,-2.58 0.66,-3.17 0.27,-0.43 0.41,-0.27 0.46,-0.81 0.05,-0.47 -0.51,-4.1 -0.65,-4.44 -0.69,-0.11 -2.38,0.11 -3.18,0.16 -4.01,0.28 -3.14,-0.75 -3.89,4.64 -0.3,2.16 -1.61,12.47 -1.89,13.06 -0.14,-1.75 -0.04,-3.65 -0.04,-5.42 -0.02,-3.07 -1.19,-2.59 -2.02,-3.22 0.61,-0.46 1.07,-0.29 1.6,-1.1 0.69,-1.06 0.75,-5.09 -0.5,-6.32 -1.05,-1.03 -2.53,-0.9 -4.29,-0.8 -1.5,0.09 -3.38,0.04 -4.76,0.49l-0.1 17.46c1.12,0.2 3.7,-0.13 4.44,-0.7 0.43,-1.76 -0.22,-5.62 0.19,-7.53 0.94,0.01 1.2,0.28 1.22,1.21 0.06,2.08 -0.1,4.42 -0.02,6.6 0.77,0.02 6.48,-0.26 7.06,-0.57 1.48,-0.81 0.75,-0.17 1.91,-0.23l0.32 -2.96c0.49,-0.1 1.23,-0.13 1.73,0.01l-0.78 -3.19 -0.97 -0.03zm1.67 3.46c-0.06,0.63 -0.14,1.82 0.25,2.36 0.14,-0.89 0.21,-1.67 -0.25,-2.36zm3.17 2.53l1.53 -0.16 -0.36 -2.83 -0.26 -0.86 -0.91 3.85z"/>
  </g>
 </g>
</svg>
