<?xml version="1.0" encoding="UTF-8"?>
<!DOCTYPE svg PUBLIC "-//W3C//DTD SVG 1.1//EN" "http://www.w3.org/Graphics/SVG/1.1/DTD/svg11.dtd">
<!-- Creator: CorelDRAW -->
<svg xmlns="http://www.w3.org/2000/svg" xml:space="preserve" width="9.4317mm" height="14.7828mm" version="1.1" style="shape-rendering:geometricPrecision; text-rendering:geometricPrecision; image-rendering:optimizeQuality; fill-rule:evenodd; clip-rule:evenodd"
viewBox="0 0 19.27 30.21"
 xmlns:xlink="http://www.w3.org/1999/xlink"
 xmlns:xodm="http://www.corel.com/coreldraw/odm/2003">
 <defs>
  <style type="text/css">
   <![CDATA[
    .str0 {stroke:black;stroke-width:0.41;stroke-miterlimit:22.9256}
    .fil1 {fill:#FEFEFE}
    .fil5 {fill:black}
    .fil0 {fill:black}
    .fil2 {fill:#CCB589}
    .fil3 {fill:#FECB00}
    .fil4 {fill:#FEFEFE}
   ]]>
  </style>
 </defs>
 <g id="Camada_x0020_1">
  <metadata id="CorelCorpID_0Corel-Layer"/>
  <g id="Figs_Desenho_SemVar_022">
   <path class="fil0 str0" d="M5.38 25.11l1.09 -1.34c-0.02,-0.09 -0.02,-0.17 0,-0.26 -0.22,-0.14 -0.46,-0.25 -0.54,-0.55 -0.01,-0 -0.01,-0 -0.02,-0l-0.08 -0.01 -0.08 -0.03c-0.18,-0.08 -0.39,-0.13 -0.58,-0.19 -0.58,-0.19 -1.09,-0.49 -1.16,-1.16 -0.02,-0.22 0.03,-0.46 0.1,-0.66 0.05,-0.15 0.12,-0.3 0.2,-0.44 -0.01,-0.01 -0.01,-0.01 -0.02,-0.02 -0.14,-0.13 -0.29,-0.32 -0.42,-0.47 -0.13,-0.15 -0.26,-0.31 -0.38,-0.47 -0.17,-0.22 -0.33,-0.47 -0.49,-0.7 -0.09,-0.13 -0.18,-0.27 -0.28,-0.4 -0.05,-0.07 -0.11,-0.15 -0.16,-0.21 -0.21,-0.22 -0.43,-0.59 -0.58,-0.85 -0.16,-0.27 -0.31,-0.53 -0.46,-0.81 -0.2,-0.36 -0.4,-0.72 -0.59,-1.09 -0.18,-0.35 -0.34,-0.72 -0.48,-1.09 -0.18,-0.47 -0.43,-1.25 -0.09,-1.7 0.04,-0.05 0.09,-0.1 0.14,-0.14 0.48,-0.36 1.14,0 1.6,0.21 0.3,0.14 0.62,0.32 0.94,0.53 -0.03,-0.29 0,-0.58 0.09,-0.85 0.01,-0.04 0.03,-0.09 0.05,-0.14 -0.15,-0.19 -0.19,-0.48 -0.18,-0.72 0,-0.37 0.09,-0.76 0.23,-1.1 0.07,-0.16 0.15,-0.3 0.24,-0.44 0.1,-0.15 0.22,-0.28 0.37,-0.38 0.02,-0.02 0.04,-0.03 0.06,-0.04 -0.01,-0.06 -0,-0.13 0,-0.2 0.03,-0.4 0.05,-0.81 0.07,-1.21 0.04,-0.58 0.13,-1.12 0.24,-1.68 0.31,-1.5 1.06,-2.84 2.25,-3.81 0.67,-0.55 1.62,-0.96 2.47,-1.14 1.22,-0.27 3.56,0.04 4.68,0.6 0.24,0.12 0.43,0.28 0.55,0.49 0.24,0.01 0.47,0.15 0.64,0.32 0.12,0.11 0.26,0.26 0.34,0.41 0.08,0.04 0.16,0.08 0.24,0.15 0.95,0.76 1.29,2.79 1.42,3.96 0.15,1.4 0.1,2.72 -0.01,4.11 0.6,-0.4 1.59,-0.63 2.1,0.04 0.42,0.56 0.02,1.58 -0.21,2.15 -0.2,0.49 -0.44,0.95 -0.67,1.42 -0.18,0.35 -0.34,0.71 -0.51,1.06 -0.1,0.21 -0.21,0.43 -0.32,0.64 0.26,0.39 0.1,1.14 0.01,1.51 -0.08,0.34 -0.22,0.74 -0.45,1.01 -0.12,0.14 -0.26,0.29 -0.39,0.41 -0.18,0.17 -0.41,0.36 -0.66,0.39 0,0.49 0.02,0.98 0.05,1.47 0.04,0.55 0.03,0.9 -0.08,1.19 0.52,0.46 0.83,1.06 1.15,1.79 0.14,0.33 -0.01,0.71 -0.33,0.85 -0.91,0.4 -1.72,0.78 -2.51,1.39 -0.8,0.63 -1.34,1.19 -2.03,1.92 -1.12,1.16 -2,1.38 -3.56,0.95 -2.11,-0.58 -2.85,-2.12 -3.11,-4.14 -0.01,-0.12 -0.02,-0.17 -0.01,-0.28 0.03,-0.11 0.06,-0.17 0.13,-0.26z"/>
   <path class="fil1 str0" d="M6.8 24.38l-0.93 1.14c0.17,0.76 0.34,1.52 0.52,2.27l2.38 -2.5c-0.66,-0.17 -1.28,-0.42 -1.75,-0.71 -0.08,-0.05 -0.15,-0.12 -0.22,-0.2zm3.69 1.14l0.19 3.67c0.98,-1.03 1.96,-2.07 2.88,-2.77 0.92,-0.71 1.78,-1.08 2.64,-1.46 -0.23,-0.53 -0.46,-1.06 -0.9,-1.48 -0.13,0.15 -0.29,0.31 -0.48,0.51 -0.81,0.81 -2.52,1.27 -3.64,1.47 -0.22,0.04 -0.45,0.06 -0.7,0.06z"/>
   <path class="fil2" d="M1.96 16.32c0.17,0.3 0.74,1.32 0.97,1.56 0.16,0.17 0.8,1.15 0.96,1.35 0.05,0.06 0.59,0.74 0.74,0.87 0.16,0.15 0.1,0.18 0.23,0.18 0.01,-0.12 -0.1,-0.45 -0.12,-0.56 -0.1,-0.52 -0.11,-0.27 -0.45,-0.58 -0.82,-0.74 -0.42,-0.69 -0.48,-1.01 -0.03,-0.08 -0.36,-0.56 -0.42,-0.65 -0.42,-0.65 -0.89,-1.33 -1.27,-2 -0.37,-0.66 -0.36,-1.08 0.36,-0.34 0.28,0.28 0.62,0.62 0.96,0.82l0.9 0.6c0.79,0.51 1.74,0.79 2.64,1.03 0.48,0.13 1.53,0.25 2.05,0.12 0.39,-0.1 1.32,-0.05 2.27,-0.37 0.73,-0.25 1.49,-0.63 2.2,-1.09 0.81,-0.53 1.77,-1.18 2.37,-1.94 0.11,-0.14 1.06,-1.4 1.19,-0.84 0.09,0.37 -0.11,1.26 -0.28,1.63 -0.19,0.42 -0.52,1 -0.75,1.41 -0.22,0.38 -0.44,0.71 -0.71,1.05 -0.06,0.07 -0.1,0.16 -0.15,0.24 -0.12,0.21 -0.81,1 -0.95,1.14 -0.58,0.56 -1.13,0.95 -1.8,1.38 -0.78,0.5 -2.3,0.97 -3.25,1.11 -0.58,0.08 -2.36,0.07 -2.77,-0.02 -0.66,-0.14 -1.2,0.01 -1.38,-0.74 -0.1,-0.43 -0.55,0.45 -0.51,0.86 0.06,0.67 0.96,0.73 1.45,0.95 0.34,0.03 0.78,0.12 1.14,0.16 0.58,0.07 0.54,0.1 1.14,0.09 0.1,-0 1.07,-0.07 1.03,0.09 -0.05,0.21 -2.4,0.05 -2.57,0.02 -0.12,-0.01 -0.2,-0.02 -0.3,0.01 0.04,0.14 0.39,0.27 0.6,0.47 0.25,0.23 1.37,0.47 1.71,0.49 0.75,0.06 0.42,0.11 1.27,-0.04 0.99,-0.17 1.82,-0.66 2.57,-1.31 0.73,-0.63 1.26,-1.1 1.85,-1.88 0.41,-0.54 0.76,-1.06 1.08,-1.67 0.15,-0.3 0.77,-1.47 0.93,-1.66 0.39,-0.55 0.83,-1.58 1.16,-2.23 0.28,-0.55 1.33,-2.53 0.93,-3.06 -0.32,-0.43 -1.08,-0.17 -1.45,0.08 -0.5,0.35 -0.94,0.85 -1.38,1.28 -0.24,0.22 -0.9,1.09 -1.18,1.38 -0.09,0.09 -0.63,0.82 -0.7,0.93 -0.13,0.21 -0.3,0.14 -0.2,-0.04 0.04,-0.07 1.16,-1.51 1.16,-1.57 -0.14,0.01 -2.52,1.78 -3,1.84 -0.07,0.06 -0.22,0.02 -0.28,-0.02 0.01,-0.1 0.07,-0.11 0.16,-0.12 0.04,-0.01 0.72,-0.38 0.83,-0.43 0.27,-0.12 1.92,-1.25 1.91,-1.32 -0.11,-0.17 -0.73,-0.04 -0.89,-0.02 -0.67,0.1 -1.49,0.64 -1.81,0.76 -0.7,0.26 -2.2,1.58 -2.79,1.91 -0.16,0.08 -0.27,-0.04 -0.45,0.03 -0.71,0.28 -1.67,0.08 -2.12,-0.54 -0.16,-0.23 -0.1,-0.64 -0.26,-0.77 -0.1,-0.09 -0.18,-0.26 -0.23,-0.29 -0.45,-0.31 -1.83,-1.1 -2.4,-1.15 0.26,0.26 1.82,1.51 1.79,1.83 -0.17,0.07 -0.39,-0.21 -0.52,-0.34l-0.42 -0.45c-0.58,-0.59 -1.62,-1.36 -2.37,-1.7 -0.23,-0.11 -0.94,-0.5 -1.15,-0.23 -0.29,0.39 0.41,1.86 0.62,2.27 0.18,0.36 0.38,0.72 0.58,1.07zm12.69 3.12c-0.42,0.54 -0.56,0.75 -1.06,1.22 -0.21,0.2 -1.06,0.91 -1.19,0.92 -0.05,0 -0.06,-0.02 -0.1,-0.03 0.02,-0.19 0.64,-0.56 0.79,-0.7 0.24,-0.21 0.93,-0.83 1.09,-1.1 0.15,-0.25 0.38,-0.45 0.45,-0.57 0.07,-0.15 0.13,-0.29 0.28,-0.32 0.12,0.11 -0.2,0.55 -0.27,0.58z"/>
   <path class="fil3" d="M4.49 9.57c0.12,-0.08 0.28,-0.14 0.39,-0.05 -0.01,0.13 -0.36,0.22 -0.53,0.38 -0.07,0.06 -0.27,0.13 -0.48,0.42 -0.46,0.64 -0.46,1.71 -0.24,1.71 0.14,-0.2 0.27,-0.24 0.33,-0.31 0.09,-0.11 -0.18,-0.01 -0.24,-0.1 0.09,-0.24 0.66,-0.08 0.81,-0.02 0.5,0.2 1.84,1.22 2.58,1.09 0.2,-0.04 0.76,-0.16 0.66,-0.43 -0.04,-0.12 -0.12,-0.27 -0.05,-0.38 0.2,0.02 0.14,0.19 0.21,0.32 0.14,0.25 0.24,0.19 0.28,0.27 0.37,0.11 0.48,0.07 0.8,-0 0.5,-0.15 1.36,-0.62 1.87,-0.88 0.64,-0.32 1.23,-0.65 1.95,-0.78 0.26,-0.04 1.69,-0.31 1.85,-0.01 -0.1,0.15 -0.39,0.02 -0.52,0.08 0.05,0.09 0.2,0.22 0.21,0.3l0.14 0.12c0.07,0.04 0.09,0.13 0.08,0.21 0.13,0.23 0.19,0.66 0.21,0.82 0.1,0.6 -0.16,1.21 -0.09,1.35 0.29,-0.08 0.67,-0.52 0.95,-0.72 0.59,-0.41 0.57,-0.46 0.62,-1.09 0.12,-1.53 0.19,-2.8 0.03,-4.33 -0.11,-1 -0.42,-2.98 -1.24,-3.63 -0.24,-0.19 -0.21,-0 -0.35,-0.28 -0.09,-0.18 -0.63,-0.75 -0.75,-0.35 -0.03,0.11 -0.02,0.35 -0.14,0.33 -0.1,-0.42 0.11,-0.73 -0.45,-1.02 -1.01,-0.5 -3.24,-0.8 -4.35,-0.56 -0.77,0.18 -1.65,0.55 -2.27,1.05 -1.11,0.9 -1.79,2.15 -2.08,3.53 -0.28,1.34 -0.22,1.68 -0.31,2.83 -0.01,0.12 -0.02,0.16 0.1,0.12zm11.93 8.36c0.11,-0.06 0.26,0.04 0.25,0.16 -0.18,0.1 -0.41,-0.03 -0.6,0.17 -0.15,0.16 0.26,0.28 0.13,0.49 -0.19,-0.02 -0.31,-0.38 -0.45,0 -0.08,0.22 -0.34,0.7 -0.23,0.95 0.11,0.27 0.82,-0.56 0.84,-0.59 0.43,-0.51 0.6,-2.04 0.34,-1.95 -0.03,0.01 -0.43,0.62 -0.45,0.76l0.16 0zm-1.4 2.19c-0.14,0.23 -0.4,0.53 -0.57,0.75 -0.54,0.68 -1.2,1.36 -1.92,1.85 -0.57,0.38 -0.77,0.62 -1.45,0.9 -1.37,0.56 -2.64,0.41 -3.99,-0.03 -0.36,-0.12 0.05,0.48 0.2,0.57 0.93,0.6 2.67,1.02 3.82,0.81 0.99,-0.19 2.66,-0.62 3.38,-1.34 0.73,-0.73 0.84,-0.85 0.76,-1.89 -0.05,-0.61 -0.05,-1.23 -0.06,-1.81 -0.05,0.05 -0.11,0.16 -0.17,0.19zm-8.68 -4.64c-0.04,0.5 0.46,0.84 0.92,1 0.73,0.25 2.2,-0.54 2.24,-0.65 -0.29,-0.35 -0.78,-0.37 -1.1,-1.18 -0.04,-0.09 -0.04,-0.05 -0.09,-0.11 -0.1,-0.14 0.05,-0.41 -0.56,-0.41 -0.79,0 -1.35,0.53 -1.42,1.35z"/>
   <path class="fil4" d="M3.77 12.23c-0.04,-0 -0.33,0.56 -0.22,1.12 0.12,0.57 0.06,0.16 0.95,0.65l0.79 0.46c0.76,0.4 0.81,0.85 1.13,0.22 0.17,-0.32 0.49,-0.44 0.64,-0.54 0.67,-0.44 1.18,0.23 1.11,-0.5 -0.09,-0.93 0.3,-0.89 -0.09,-1.04 -0.28,-0.09 -0.25,0.07 -0.53,0.16 -0.49,0.16 -0.77,0.12 -1.25,-0.04 -0.62,-0.21 -1.06,-0.53 -1.62,-0.83 -0.1,-0.06 -0.34,-0.19 -0.46,-0.13 -0.12,0.06 -0.39,0.36 -0.46,0.46z"/>
   <path class="fil4" d="M9.77 12.33c-0.06,0.01 -0.69,0.39 -1.08,0.39 -0.27,-0 -0.27,0.09 -0.33,0.38 -0.06,0.32 -0.12,0.72 0,1 0.08,0.17 0.28,0.81 0.55,1.07 1.05,0.97 0.94,0.35 1.58,0.02 0.08,-0.04 0.08,-0.06 0.14,-0.1 0.72,-0.57 2.02,-1.17 2.94,-1.35 0.34,-0.07 0.78,-0.01 0.86,-0.05 0.09,-0.05 0.22,-0.96 0.18,-1.29 -0.12,-0.91 -0.35,-0.85 -0.33,-1.09 -0.46,-0.33 -0.28,-0.54 -1.07,-0.41 -0.54,0.09 -1.15,0.29 -1.65,0.53 -0.56,0.27 -1.12,0.62 -1.68,0.86 -0.05,0.02 -0.07,0.03 -0.12,0.04z"/>
   <path class="fil0" d="M13.76 13.3c-0.01,-0.09 -0,-0.16 0.06,-0.2 0.34,-0.24 0.61,0.18 0.42,0.37 -0.16,0.16 -0.46,0.06 -0.48,-0.17z"/>
   <path class="fil4" d="M13.04 19.58c0.21,0.03 1.03,-0.76 1.21,-0.94 0.13,-0.13 0.6,-0.77 0.71,-0.93 0.15,-0.23 0.21,-0.21 0.21,-0.46 -0.27,-0.18 -1.5,0.28 -1.9,0.94 -0.08,0.13 -0.23,1.26 -0.23,1.39z"/>
   <path class="fil4" d="M12.16 18.36c-0.44,0.16 -1.26,0.77 -1.24,1.06 0.08,1.1 -0.5,1.62 0.61,1.13 0.4,-0.18 0.75,-0.4 1.11,-0.62 0.25,-0.15 0.35,-1.25 0.35,-1.49 0.01,-0.34 -0.52,-0.16 -0.83,-0.07z"/>
   <path class="fil4" d="M8.49 19.79c0.02,0.53 -0.1,0.67 -0.03,1.35 0.02,0.18 0.16,0.12 0.41,0.1 0.51,-0.04 1.1,-0.16 1.57,-0.32 0.22,-0.07 0.2,-0.06 0.25,-0.62 0.02,-0.2 0.08,-0.89 -0.06,-1.01 -0.59,-0.52 -2.16,-0.04 -2.14,0.5z"/>
   <path class="fil4" d="M4.85 18.57c-0.15,0.14 -0.07,0.16 0.04,0.82 0.08,0.44 0.26,0.93 0.4,1.38 0.03,0.1 0,0.21 0.26,0.26 0.17,0.03 0.76,0.19 0.89,0.11 0,-0.08 -0.15,-0.78 -0.17,-0.87 -0.03,-0.16 -0.09,-1.12 -0.11,-1.16 -0.11,-0.19 -1.02,-0.69 -1.32,-0.54z"/>
   <path class="fil4" d="M8.28 19.95c0.03,-0.41 -0.01,-0.4 -0.38,-0.63 -0.37,-0.23 -1.08,-0.4 -1.45,-0.15 -0.06,0.04 -0.04,0.09 -0.05,0.18l0.01 -0.08c-0.02,0.29 0.1,1.44 0.23,1.72 0.1,0.23 -0.1,0.25 0.4,0.29 0.29,0.02 0.69,0.04 0.98,0.02 0.45,-0.02 0.16,-0.15 0.26,-1.35z"/>
   <path class="fil4" d="M13.43 17.69l0.24 -0.2 0.64 -0.33c0.05,-0.01 0.04,-0.01 0.08,-0.03 0.15,-0.06 0.41,-0.11 0.58,-0.13 0.11,-0.02 0.17,-0.03 0.26,-0.09 0.05,-0.03 0.12,-0.17 0.13,-0.24 0.01,-0.13 -0.02,-0.37 -0.01,-0.53 0.03,-0.31 0.05,-0.4 0.03,-0.72 -0.01,-0.09 0.02,-0.09 -0.02,-0.16 -0.06,0 -0.1,0.06 -0.17,0.09l-0.11 0.07c-0.06,0.03 -0.1,0.07 -0.15,0.11l-0.31 0.21c-0.07,0.04 -0.12,0.11 -0.19,0.15 -0.06,0.04 -0.17,0.16 -0.31,0.21 -0.04,0.02 -0.21,0.14 -0.3,0.23 0,0.06 -0,0.13 -0.01,0.2 0,0.02 0,0.05 -0.01,0.1 -0.03,0.17 -0.08,0.36 -0.15,0.56 -0.06,0.17 -0.13,0.35 -0.21,0.49z"/>
   <path class="fil4" d="M11.29 18.57c0.04,-0.01 0.11,-0.06 0.13,-0.07 0.07,-0.03 0.11,-0.07 0.18,-0.1l0.29 -0.14 0.4 -0.16c0.09,-0.04 0.09,-0.01 0.23,-0.05 0.23,-0.06 0.42,0.01 0.53,-0.01 0.09,-0.19 0.17,-0.38 0.25,-0.57 0.01,-0.03 0.03,-0.07 0.04,-0.1 -0.01,-0.05 0.04,-0.15 0.08,-0.22 0.04,-0.1 0.07,-0.2 0.08,-0.28 0.03,-0.15 0.02,-0.24 0.04,-0.33 -0.1,0.01 -0.21,0.07 -0.29,0.12 -0.05,0.03 -0.03,0.03 -0.06,0.05l-0.21 0.13c-0.05,0.03 -0.1,0.04 -0.15,0.07 -0.06,0.03 -0.09,0.04 -0.15,0.07 -0.04,0.02 -0.03,0.02 -0.07,0.04l-0.23 0.1c-0.04,0.02 -0.05,0.02 -0.09,0.03l-0.15 0.07c-0.14,0.07 -0.13,0.1 -0.3,0.14 -0.11,0.03 -0.22,0.06 -0.32,0.12 -0.02,0.01 -0.04,0.02 -0.07,0.03 -0,0.04 -0.01,0.09 -0.02,0.15 -0.03,0.23 -0.07,0.62 -0.14,0.83 -0.01,0.03 -0.02,0.05 -0.03,0.07z"/>
   <path class="fil4" d="M8.21 19.21c0.16,0.1 0.18,0.2 0.39,0.03 0.14,-0.12 0.34,-0.22 0.51,-0.29 0.15,-0.06 0.85,-0.13 1.05,-0.12 0.19,0.02 0.38,0.08 0.54,0.17 0.06,0.04 0.1,0.07 0.16,0.03 0.27,-0.19 0.13,-0.31 0.12,-0.34 -0.01,-0.03 0.02,-0.06 0.04,-0.09 0.01,-0.02 0.02,-0.04 0.03,-0.06 0.02,-0.1 0.06,-0.24 0.09,-0.4 0.04,-0.18 0.06,-0.39 0.11,-0.54 -0.24,0.08 -0.51,0.13 -0.73,0.17 -0.06,0.01 -0.32,0.02 -0.48,0.05 -0.07,0.02 -0.1,0.03 -0.18,0.04 -0.08,0.01 -0.12,0.02 -0.19,0.03 -0.24,0.01 -0.71,0.07 -0.89,0.08l-0.31 0.01c-0.15,0.01 -0.26,-0.01 -0.37,0.03 0.01,0.09 0.02,0.18 0.03,0.29 0.02,0.07 0.02,0.1 0.02,0.19 0,0.02 0,0.04 0.01,0.06l0.01 0.05c0.02,0.09 0.04,0.2 0.03,0.28 0.01,0.11 0.01,0.22 0.01,0.3 -0,0.01 -0,0.02 -0,0.04z"/>
   <path class="fil4" d="M5.72 17.47l-0.13 -0.04c-0.27,-0.11 -0.22,-0.07 -0.51,-0.23 -0.11,-0.06 -0.36,-0.15 -0.46,-0.21 -0.12,-0.07 -0.52,-0.26 -0.67,-0.31 -0.01,0.03 -0.01,0.09 -0.01,0.15l0.06 0.26c0.05,0.11 0.07,0.25 0.13,0.35 0.03,0.06 0.03,0.04 0.09,0.07 0.04,0.02 0.08,0.05 0.08,0.09 -0.03,0.35 -0.1,0.31 -0.19,0.5 -0.07,0.13 -0.06,0.15 -0.07,0.3 -0.01,0.18 0.1,0.22 0.13,0.24 0.08,0.07 0.01,0.07 0.2,0.18 0.03,0.02 0.13,0.13 0.14,0.05 0.01,-0.06 -0.01,-0.08 -0.02,-0.14 -0,-0.02 -0.01,-0.12 -0.01,-0.13 -0,-0.14 0.22,-0.22 0.33,-0.24 0.26,-0.04 0.6,0.03 0.84,0.12 0.07,0.03 0.12,0.07 0.19,0.07 0,-0.05 -0,-0.11 -0.01,-0.17 -0.01,-0.04 -0.02,-0.08 -0.02,-0.12l-0 -0.01c-0,-0.02 -0.01,-0.03 -0.01,-0.05 -0.01,-0.05 -0.02,-0.1 -0.02,-0.15 -0.02,-0.16 -0.04,-0.37 -0.06,-0.58z"/>
   <path class="fil4" d="M7.99 18.89c-0.04,-0.05 -0.04,-0.17 -0.04,-0.27 -0.03,-0.22 -0.04,-0.46 -0.03,-0.63 -0.01,-0.01 -0.03,-0.01 -0.06,-0.02l-0.3 -0.05c-0.05,-0 -0.1,-0.01 -0.15,-0.01 -0.06,-0.01 -0.08,-0.02 -0.15,-0.03 -0.05,-0 -0.11,-0.01 -0.16,-0.01 -0.09,-0.02 -0.19,-0.03 -0.28,-0.05l-0.27 -0.08c-0.1,-0.02 -0.16,-0.06 -0.25,-0.08l-0.36 -0.11c0.02,0.14 0.03,0.3 0.06,0.46 0.02,0.11 0.04,0.23 0.06,0.34 0.03,0.09 0.06,0.19 0.08,0.25 0.04,0.16 0.03,0.22 0.16,0.33 0.08,0.07 0.22,-0 0.31,-0.02 0.2,-0.05 0.32,-0.05 0.53,-0.03 0.2,0.02 0.36,0.05 0.54,0.11 0.09,0.03 0.16,0.04 0.24,0.09l0.14 0.07c-0.02,-0.07 -0.04,-0.15 -0.06,-0.24l-0 -0z"/>
   <path class="fil0" d="M4.23 11.93c0.46,-0.11 0.43,0.72 -0.09,0.46 -0.17,-0.09 -0.15,-0.4 0.09,-0.46z"/>
   <path class="fil5" d="M15.79 4.36l-0.05 0.61 -0.03 -0.06c-0.03,-0.11 -0.07,-0.21 -0.11,-0.29 -0.03,-0.05 -0.05,-0.09 -0.07,-0.13 -0.07,-0.16 -0.08,-0.13 -0.12,-0.2l-0.04 -0.06c-0.03,-0.03 -0.07,-0.07 -0.1,-0.11l-0.09 -0.12c-0.02,-0.03 -0.03,-0.03 -0.06,-0.06 -0.06,-0.06 -0.09,-0.13 -0.18,-0.14 -0.08,-0.01 -0.07,0.04 -0.15,0.04 -0.06,-0.05 -0.04,-0.1 -0.04,-0.15 0,-0.07 -0.01,-0.11 -0.04,-0.15 -0.1,-0.12 -0.3,-0.24 -0.43,-0.33 -0.23,-0.17 -0.29,-0.18 -0.31,0.04 -0,0 -0,0 -0.01,0.01 -0,0 -0,0.01 -0,0.01 -0.02,0.05 0.01,-0.04 -0.01,0.02 -0.02,0.11 -0.03,0.28 -0.08,0.37 -0.03,0 -0.04,0.01 -0.08,0.01 0.01,-0.08 0.02,-0.2 0.02,-0.27 -0.01,-0.09 0.01,-0.2 0.01,-0.23 -0,-0.03 -0,-0.01 -0.01,-0.03 0,-0.08 0.02,-0.18 -0.03,-0.24 -0.03,-0.04 -0.12,-0.09 -0.16,-0.12 -0.11,-0.07 -0.48,-0.23 -0.61,-0.27l-0.67 -0.21c-0.87,-0.24 -1,-0.23 -1.82,-0.3 -0.16,-0.01 -0.17,-0 -0.26,-0.01 -0.18,-0.01 -0.36,-0.03 -0.53,-0.01 -0.12,0.02 -0.63,0.06 -0.72,0.09 -0.07,0.02 -0.13,0.03 -0.21,0.05l-0.61 0.22c-0.24,0.12 -0.37,0.14 -0.58,0.23 -0.08,0.03 -0.38,0.19 -0.45,0.25 -0.07,0.06 -0.16,0.15 -0.23,0.19 -0.09,0.05 -0.2,0.14 -0.28,0.21l0.04 -0.46c0.16,0.05 0.13,-0.04 0.44,-0.2 0.05,-0.03 0.08,-0.03 0.12,-0.06 0.04,-0.02 0.09,-0.05 0.13,-0.07 0.25,-0.1 0.24,-0.08 0.33,-0.24 0.05,-0.1 0.07,-0.21 0.12,-0.29 0.05,-0.08 0.08,-0.19 0.12,-0.29l0.13 -0.27c0.03,-0.04 0.04,-0.09 0.07,-0.13 0.03,-0.04 0.06,-0.05 0.09,-0.1 0.04,-0.06 0.09,-0.1 0.13,-0.16 0.06,-0.09 0.15,-0.13 0.23,-0.21 0,-0 0.01,-0.01 0.01,-0.01 0.11,-0.1 0.14,-0.1 0.23,-0.18 0.11,-0.09 0.22,-0.17 0.36,-0.22 0.05,-0.02 0.08,-0.03 0.13,-0.05l0.28 -0.09c0.18,-0.07 0.42,-0.09 0.62,-0.12 0.4,-0.06 0.16,-0.03 0.53,-0.02l0.35 0.02c0.06,0.01 0.13,0.01 0.19,0.02l0.46 0.02c0.14,0.03 0.3,0 0.44,0.03l0.64 0.18c0.11,0.04 0.18,0.08 0.28,0.12 0.18,0.08 0.37,0.16 0.51,0.29 0.03,0.03 0.06,0.06 0.1,0.09 0.06,0.04 0.22,0.18 0.26,0.23l0.38 0.49c0.02,0.02 0.02,0.03 0.04,0.05 0,0 0,0 0.01,0.01 0,0 0,0 0.01,0.01l0.04 0.04c0.06,0.06 0.09,0.18 0.12,0.26 0.02,0.05 0.03,0.09 0.05,0.14 0.03,0.1 0.1,0.15 0.12,0.26 0.05,0.2 0.13,0.39 0.15,0.6 0,0.06 0.01,0.11 0.02,0.16 0.01,0.05 0.01,0.11 0.03,0.16 0.03,0.06 0.03,0.06 0.04,0.14 0,0.04 0,0.05 0.01,0.08 0.01,0.04 0.01,0.04 0.05,0.05l0.02 0.02 0.31 0.36c0.03,0.03 0.04,0.03 0.06,0.06 0.09,0.13 0.02,-0.01 0.11,0.15 0.05,0.11 0.17,0.17 0.22,0.3l0 0.01zm-4.33 -3.99c0.05,0.03 0.19,0.05 0.24,0.07 0.03,0.01 0.01,0 0.03,0.02 0.09,0.01 0.16,0.03 0.24,0.06l0.42 0.19c0.06,0.03 0.06,0.04 0.11,0.07l0.06 0.04c0.03,0.02 0.06,0.04 0.09,0.06l0.49 0.49c0.06,0.04 0.1,0.14 0.14,0.19 0.14,0.17 0.25,0.39 0.32,0.6l0.07 0.32c-0.18,0.02 -0.43,-0.2 -0.69,-0.26 -0.12,-0.03 -0.44,-0.14 -0.49,-0.15 -0.81,-0.19 -0.94,-0.24 -1.95,-0.33 -0.12,-0.01 -0.19,-0.01 -0.29,-0.01 -0.23,-0 -0.38,-0.03 -0.69,-0.01 -0.02,0 -0.05,0 -0.06,0 -0.03,-0.01 -0.04,0 -0.04,-0.06 0,-0.03 0.16,-0.3 0.18,-0.33l0.31 -0.33c0.02,-0.02 0.03,-0.03 0.05,-0.05l0.03 -0.03c0.04,-0.03 0.04,-0.03 0.08,-0.07 0.06,-0.08 0.09,-0.1 0.17,-0.16 0.14,-0.11 0.09,-0.05 0.19,-0.12 0.06,-0.04 0.43,-0.14 0.55,-0.18 0.11,-0.03 0.14,-0.04 0.25,-0.04 0.05,-0 0.14,-0 0.19,0.02zm1.5 0.27l0.02 0.01 0.25 0.16c0.13,0.09 0.15,0.12 0.32,0.22 0.09,0.05 0.27,0.25 0.33,0.32 0.04,0.05 0.08,0.08 0.13,0.14 0.04,0.05 0.06,0.1 0.1,0.15 0.04,0.05 0.08,0.1 0.11,0.15 0.14,0.2 0.07,0.12 0.13,0.26 0.01,0.03 0.03,0.04 0.04,0.08 0.01,0.04 0.01,0.06 0.03,0.1 0.03,0.06 0.06,0.08 0.08,0.18 0.01,0.07 0.06,0.15 0.1,0.28 0.01,0.05 0,0.07 0.01,0.12 0.01,0.05 0.02,0.05 0.02,0.1 0,0.03 0.01,0.09 0.01,0.11 -0,0.05 -0.02,0.06 -0.05,0.08 -0.04,-0.01 -0.11,-0.09 -0.15,-0.12 -0.03,-0.02 -0.06,-0.03 -0.09,-0.05 -0.03,-0.02 -0.03,-0.04 -0.07,-0.06 -0.07,-0.04 -0.06,0.01 -0.15,-0.1 -0.08,-0.09 -0.09,-0.02 -0.13,-0.15 -0.05,-0.19 -0.05,-0.05 -0.06,-0.2 -0,-0.06 -0.02,-0.14 -0.04,-0.2 -0.05,-0.21 -0.08,-0.21 -0.14,-0.36 -0.01,-0.03 -0.02,-0.06 -0.03,-0.1l-0.34 -0.54c-0.05,-0.08 -0.04,-0.09 -0.1,-0.16 -0.05,-0.06 -0.08,-0.05 -0.12,-0.13 -0.04,-0.06 -0.09,-0.07 -0.14,-0.13 -0.08,-0.11 -0.11,-0.05 -0.14,-0.12 -0.08,-0.03 -0.14,-0.11 -0.19,-0.16 0.06,0.01 0.08,0.02 0.13,0.04 0.05,0.02 0.08,0.03 0.11,0.06zm-3.48 -0.16l0.01 -0.01c0.07,-0.07 0.17,-0.05 0.27,-0.09 0.08,-0.03 0.42,-0.09 0.49,-0.08l0.19 -0.02 -0 0.05c-0.13,0.02 -0.3,0.16 -0.33,0.17 -0.05,0.02 -0.06,0.01 -0.1,0.04 -0.04,0.04 -0.18,0.25 -0.22,0.3 -0.01,0.01 -0.02,0.01 -0.02,0.02 -0.17,0.14 -0.15,0.18 -0.23,0.24 -0.04,0.03 -0.03,0.03 -0.06,0.07l-0.09 0.16c-0.03,0.06 -0.06,0.11 -0.1,0.17l-0.1 0.16c-0.05,0.1 -0,0.09 -0.13,0.13 -0.17,0.06 -0.39,0.09 -0.49,0.13 -0.16,0.06 -0.33,0.12 -0.5,0.1 -0.02,-0.14 0.06,-0.08 0.09,-0.28 0.01,-0.04 0.03,-0.11 0.05,-0.14 0.02,-0.04 0.04,-0.08 0.06,-0.12 0.05,-0.1 0.04,-0.06 0.08,-0.12 0.05,-0.1 0.04,-0.05 0.07,-0.11 0.02,-0.02 0.02,-0.04 0.04,-0.06l0.38 -0.37c0.02,-0.02 0.02,-0.03 0.05,-0.04 0.14,-0.08 0.11,-0.12 0.33,-0.21l0.26 -0.09z"/>
  </g>
 </g>
</svg>
