<?xml version="1.0" encoding="UTF-8"?>
<!DOCTYPE svg PUBLIC "-//W3C//DTD SVG 1.1//EN" "http://www.w3.org/Graphics/SVG/1.1/DTD/svg11.dtd">
<!-- Creator: CorelDRAW -->
<svg xmlns="http://www.w3.org/2000/svg" xml:space="preserve" width="28.79mm" height="15.2955mm" version="1.1" style="shape-rendering:geometricPrecision; text-rendering:geometricPrecision; image-rendering:optimizeQuality; fill-rule:evenodd; clip-rule:evenodd"
viewBox="0 0 201.16 106.87"
 xmlns:xlink="http://www.w3.org/1999/xlink"
 xmlns:xodm="http://www.corel.com/coreldraw/odm/2003">
 <defs>
  <style type="text/css">
   <![CDATA[
    .fil0 {fill:black;fill-rule:nonzero}
   ]]>
  </style>
 </defs>
 <g id="Camada_x0020_1">
  <metadata id="CorelCorpID_0Corel-Layer"/>
  <path class="fil0" d="M66.99 67.27l0 -0.01 0 0.01zm72.14 -52.35c0.51,-0.69 -0.08,-0.02 0.48,-0.49l1.26 -0.74c5.92,-3.18 14.81,-6.35 21.42,-3.56 1.19,0.5 4.31,2.31 5.18,3.22 0.61,0.64 0.25,0.14 0.56,0.86 -14.29,1.65 -14.09,2.05 -28.89,0.71zm-17 19.61c-0.67,-4.76 2.17,-15.85 6.58,-15.99 3.96,-0.13 14.84,6.88 16.14,7.06 0.27,-0.34 1.35,-1.64 1.71,-1.74 0.19,2.08 -0.45,4.15 -2.07,4.7 -2.31,-1.93 -2.17,-2.37 -6.12,-4.4 -13.92,-7.16 -13.84,6.97 -16.24,10.37zm-20.21 -1.41c-2,-0.76 -3.32,-2.62 -6.75,-3.86 -9.04,-3.26 -18.96,1.58 -24.55,-7.07 1.74,-0.26 2.61,0.74 3.96,1.21 4.51,1.59 15.46,-0.33 22.55,4.26 1.79,1.16 3.98,3.31 4.79,5.46zm54.16 -7.7c2.36,-0.35 9.64,-5.21 17.8,-6.71 2.59,3.47 6.28,12.57 4.14,16.03 -0.86,-1.24 -1.77,-5.66 -2.55,-7.48 -0.98,-2.31 -2.37,-4.62 -5.58,-4.56 -8.06,0.16 -12.24,5.27 -14.52,5.93l-1.18 -4.87c0.97,0.38 1.11,0.99 1.89,1.67zm-110.49 25.71c-0.98,-8.32 5.1,-13.87 11.32,-18.48 6.54,-4.84 4.37,-3.74 8.11,-8.29 0.58,-0.71 0.01,-0.29 0.85,-0.73 0.52,6.7 -4.94,10.45 -9.9,14.12 -12.11,8.96 -7.3,10.79 -10.38,13.38zm42.93 -20.23c5.15,0.06 9.85,1.22 11.6,4.31 -4.88,0.31 -4.65,0.37 -8.14,2.32 -10.53,5.87 -17.22,-3.1 -17.71,-8.66 2.16,0.64 3.42,1.68 6.12,1.98 2.58,0.29 5.51,0.03 8.14,0.05zm-40.28 20.53c0.36,-5.12 5.27,-8.88 8.35,-10.8 10.8,-6.73 6.91,-7.11 9.98,-9.09 1.06,1.71 1.15,6.37 0.72,8.5 -1.13,5.6 -5.52,7.94 -11.25,8.78 -1.49,0.22 -3.09,0.32 -4.37,0.78 -1.46,0.52 -2.04,1.3 -3.43,1.83zm74.96 -8.85c0.29,-2.1 2.82,-5.17 4.03,-6.42 8.23,-8.58 16.6,-3.38 17.04,5.69 -3.89,-0.28 -6.7,-1.23 -10.89,-1.05 -4.06,0.17 -6.63,1.23 -10.18,1.79zm32.09 -1.11c-0.26,-0.86 3.05,-11.51 10.94,-9.28 5.31,1.5 9.99,8.85 9.99,10.79 -1.18,0.11 -7.06,-1.65 -9.79,-1.83 -2.37,-0.16 -10.24,0.69 -11.15,0.33zm-113.97 7.43c-3.69,-0.16 -7.3,-0.26 -10.99,-0.15 -10.29,0.31 -21.09,2.4 -26.1,-5.51 -0.91,-1.44 -1.45,-2.42 0.39,-3.24 3.29,-1.47 8.84,-2.98 12.53,-3.5 5.67,-0.8 14.73,-0.74 20.58,-0.37 1.67,1.82 3.43,9.67 3.6,12.78zm98.07 10.88c0.46,-1.59 2.49,-2.76 4.74,-2.16 1.68,0.45 2.62,2.17 4.79,2.17 2.08,-0 3.29,-1.41 5.07,-1.92 2.4,-0.68 4.08,0.28 4.49,2.12 -1.73,-0.32 -3.43,-1.6 -5.08,-0.6 -1.14,0.69 -2.88,2.09 -4.66,1.9 -0.96,-0.1 -3.57,-1.6 -4.6,-2.08 -2.69,-1.23 -2.74,0.36 -4.76,0.57zm-10.57 1.72c1.52,0.04 5.9,3.64 8.26,4.53 5.84,2.19 17.73,2.27 23.64,0.17 4.07,-1.45 5.96,-4.21 8.54,-4.77 0.29,8.6 -8.52,25.27 -20.34,25.87 -13.65,0.69 -21.47,-19.04 -20.1,-25.81zm1.75 14.76c3.33,3.21 5.07,14.04 17.12,14.19 5.3,0.06 8.22,-1.81 11.45,-4.56 4.05,-3.45 4.88,-7.77 6.76,-8.86 -0.96,5.16 -6.22,11.04 -11.32,13.58 -15.13,7.52 -24.24,-11.11 -24.01,-14.35zm-63.57 -9.01l0.98 -1.08c6.5,-7.96 22.49,-11.82 29.63,-3.11 1.71,2.08 4.24,7.58 1.51,10.35 -2.95,0.56 -5.75,-1.02 -9.63,-0.53 -4.65,0.59 -12.54,2.98 -15.58,5.95 -0.84,0.82 -3.52,4.37 -5.14,3.72l-0.81 -0.51c-0.26,-1.14 -4.05,-4.4 -2.27,-11.33 0.3,-1.16 1.19,-2.66 1.29,-3.43l0.01 -0.05zm-5.94 -3.43l1.52 -1.47c1.18,0.87 2.02,2.7 1.97,4.59 -0.61,0.48 -0.28,0.62 -1.27,0.81 -0.64,0.13 -1.26,0.04 -1.69,-0.3 -0.96,-0.76 -0.53,-2.39 -0.56,-3.58l0.03 -0.05zm-3.38 -6.3c0.88,2.17 2.94,3.25 1.75,6.08 -1.7,0.22 -3.5,0.83 -3.65,-1.75 -0.09,-1.41 1.05,-3.09 1.53,-4.48 0.23,0.24 0.05,0.11 0.38,0.15zm4.19 -7.28c0.62,1.54 1.9,1.9 1.88,3.83 -0.02,2.16 -1.5,2.26 -3.34,1.79 -0.17,-0.95 -1.3,-0.92 -0.29,-2.98 0.25,-0.51 0.49,-0.88 0.76,-1.36 0.37,-0.65 0.37,-0.87 0.99,-1.28zm21.72 0.57c2.91,-0.17 2.49,0.8 3.53,1.27 -2.86,0.52 -3.45,-0.61 -5.42,1.37 -0.98,0.99 -1.84,2.42 -3.42,3.02 -2.53,0.97 -3.45,-0.68 -5.53,-0.6 -1.59,0.07 -3.44,1.57 -4.44,2.21 0.41,-4.61 3.97,-3.19 7.92,-2.93 2.1,0.14 2.93,-0.96 3.86,-1.83l3.21 -2.57 0.3 0.05zm-17.3 34.34c-0.41,-0.69 -0.18,-0.11 -0.44,-0.85 2.07,0.48 2.16,2.07 3.96,1.53 2.3,-0.69 11.53,-9.56 25.13,-9.44 6.21,0.05 4.7,1.35 6.7,-1.13 0.39,-0.49 0.81,-0.82 1.2,-1.14 -0.04,2.04 -0.93,2.86 -2.91,3.22 -1.73,0.32 -4.07,0.29 -5.93,0.45 -17.88,1.55 -21.72,11.42 -26.27,8.75 -0.91,-0.82 -0.82,-0.36 -1.44,-1.4zm130.85 -20.75c-0.02,0.04 -0.04,0.09 -0.06,0.14l-0 0.01 -3.3 2.6c-3.26,2.2 -8.06,4.95 -10.59,7.37 -6.64,6.34 -9.07,16.92 -7.81,26.42 0.57,4.32 1.15,5.94 6.28,4.57 6.96,-1.85 12.96,-4.58 18.25,1.35 -0.06,-2.28 -1.38,-5.08 -2.3,-6.77 1.12,-0.64 2.05,-0.57 3.56,-0.55 -2.25,-3.21 -7.1,-4.53 -11.23,-4.02 -4.71,0.58 -8.32,2.87 -12.97,1.36 0.67,-7.38 4.91,-13.32 10.69,-17.73 3.9,-2.97 9.67,-4.19 11.83,-9.66 1.59,-4.02 0.31,-10.78 -2.8,-13.73 -2.24,-2.13 -6.17,-1.2 -9.61,-0.72 -0.51,-7.8 -6.54,-7.46 -10.31,-10.15 2.8,0.04 4.29,1.26 6.12,1.4 0.52,-3.71 -0.55,-7.23 -0.36,-11.06 0.26,-5.41 2.37,-16.6 0.42,-21.13 -1.64,-3.81 -5.44,-1.78 -9.11,-1.38 -2.27,-2.83 -3.21,-5.14 -7.75,-7.94 -3.72,-2.3 -8.35,-2.92 -13.7,-2.19 -6.84,0.93 -11.88,3.29 -16.98,6.94l-4.71 3.47c-2.65,-0.29 -7.41,-3.29 -9.98,-1.77 -3.27,1.94 -2.42,8.41 -3.66,8.98l-1.13 0.35c-4.15,0.83 -9.45,1.55 -13.6,1.81 -1.31,-5.94 -3.2,-18.35 -6.94,-21.55 -2.98,-2.56 -8.18,1.67 -10.32,2.92 -3.19,1.86 -5.69,3.5 -9.48,5.19 -6.53,2.93 -14.87,5.59 -22.76,6.8 -4.87,0.75 -9.02,0.63 -13.88,1.02 -6.58,0.53 -4.02,4.79 -4.18,9.68 -7.72,0.54 -28.67,2.37 -33.11,8.49 -2.3,3.18 -5.24,21.57 15.12,22.67 6.86,0.37 16.36,-1.34 19.94,-0.91 1.99,0.24 3.44,1.49 3.17,3.56 -1.22,1.02 -6.5,1.94 -8.75,2.85 -3.48,1.42 -5.03,2.53 -7.21,4.54 -3.61,3.33 -5.67,12.89 -1.8,17.32 3.83,4.38 13.04,2.54 19.59,1.82 5.42,-0.6 11.79,-0.8 17.3,-0.37 1.37,0.1 4.87,0.4 5.98,1.12 0.97,0.58 0.92,0.45 1.74,1.36 -5.9,5.6 -16.92,6.79 -25.55,5.65 -3.35,-0.44 -5.85,-1.31 -8.85,-1.88 0.73,2.08 2.47,3.37 3.65,4.6 -0.68,0.79 -3.36,2.7 -4.73,3.01 1.88,1.63 8.78,2.6 10.94,2.65 6.42,0.16 17.1,-1.41 22.45,-4.44 3.24,-1.84 4.85,-3.16 5.91,-7.36 1.11,0.61 1.94,1.58 3.37,2.36 1.34,0.73 2.59,1.23 4.21,1.6 9.07,2.06 19.56,-2.82 23.23,-11.09 3.3,-7.43 2.97,-15.55 7.44,-26.4 1.25,-3.04 1.84,-5.25 2.76,-8.54 0.55,-5.34 0.36,-8.23 -2.07,-12.4 -0.91,-1.55 -5.43,-7.66 -5.29,-9.3 2.33,-0.16 4.6,-0.45 6.81,-0.82 1.38,-0.24 5.24,-1.18 6.28,-1.12 0.07,3.41 0.46,6.9 0.1,10.31 -0.34,3.27 -1.17,6.41 -1.13,9.78 2.13,-0.53 2.99,-1.26 5.62,-1.12l-1.02 0.55c-5.76,2.22 -11.47,5.28 -9.3,12.99 2.28,8.1 10.64,14.57 14.44,22.18 1.37,2.75 2.47,5.66 3.75,8.44 2.5,5.41 6.32,10.57 12.66,12.11 3.39,0.83 7.73,0.56 10.99,-0.34 3.99,-1.1 5.29,-2.46 7.88,-4.6 3.11,-2.57 7.3,-11.32 9.5,-15.06 3.96,-6.72 6.46,-8.22 11.05,-13.6 3.8,-4.46 0.8,-3.12 7.7,-4.76 1.31,-0.31 4.23,-1.04 5.54,-0.93 3.05,0.25 2.33,2.46 2.09,3.07zm-173.85 13.81c2.61,-6.64 14.41,-8.56 21.03,-9.53 1.91,-0.28 1.96,0.86 6.06,3.95l6.68 5.03c0.21,0.15 0.41,0.27 0.56,0.43 0.52,0.55 0.13,0.01 0.47,0.66 -8.01,0 -29.46,3.48 -34.79,-0.54z"/>
 </g>
</svg>
