<?xml version="1.0" encoding="UTF-8"?>
<!DOCTYPE svg PUBLIC "-//W3C//DTD SVG 1.1//EN" "http://www.w3.org/Graphics/SVG/1.1/DTD/svg11.dtd">
<!-- Creator: CorelDRAW -->
<svg xmlns="http://www.w3.org/2000/svg" xml:space="preserve" width="16.7531mm" height="14.683mm" version="1.1" style="shape-rendering:geometricPrecision; text-rendering:geometricPrecision; image-rendering:optimizeQuality; fill-rule:evenodd; clip-rule:evenodd"
viewBox="0 0 55.2 48.38"
 xmlns:xlink="http://www.w3.org/1999/xlink"
 xmlns:xodm="http://www.corel.com/coreldraw/odm/2003">
 <defs>
  <style type="text/css">
   <![CDATA[
    .fil0 {fill:black}
    .fil4 {fill:#00A0C6}
    .fil6 {fill:#FDFDFD}
    .fil5 {fill:#FE0000}
    .fil1 {fill:#FECB00}
    .fil3 {fill:#FEFEFE}
    .fil2 {fill:#FF6600}
   ]]>
  </style>
 </defs>
 <g id="Camada_x0020_1">
  <metadata id="CorelCorpID_0Corel-Layer"/>
  <g id="Figs_Desenho_VarCor_007_x0020_a">
   <path class="fil0" d="M55.2 30.47l0 0.12c-0.04,0.58 -0.57,1.13 -1.25,1.5 -1.63,0.9 -2.31,0.33 -2.67,1.44 -1.21,3.71 -3.37,1.86 -3.75,0.23 -0.6,0.14 -1.45,0.51 -2.04,0.74 -0.35,0.14 -0.71,0.21 -0.99,0.4 -0.27,0.19 -0.38,0.46 -0.69,0.7 -1.17,0.91 -0.87,0.04 -1.17,1.61 -0.15,0.78 -0.37,1.5 -0.68,2.1 0.7,1.04 2.5,4.27 1.01,5.67 -1.18,1.11 -3.32,0.36 -4.52,-0.23 -0.13,-0.06 -1.01,-0.56 -1.04,-0.57 -0.2,-0.02 -3.97,2.34 -9.07,1.44 -0.42,-0.07 -0.71,-0.31 -1.04,-0.01 -0.25,0.22 -0.45,0.46 -0.7,0.7l-1.59 1.25c-0.59,0.4 -1.28,0.76 -1.91,0.82l-0.38 0c-0.51,-0.06 -0.96,-0.35 -1.29,-1.02 -0.48,-0.97 -0.51,-3.23 -0.14,-4.31 0.4,-1.18 0.72,-1.08 0.35,-1.69l-0.93 -1.49c-1.18,0.28 -1.15,0 -1.81,0 -0.32,0 -1.41,0.81 -1.77,1.01 -0.86,0.47 -0.59,1.29 -2.39,2.51 -0.8,0.54 -1.08,1.04 -1.38,2.06 -0.36,1.23 -1.58,2.42 -2.98,2.58 -0.82,0.09 -1.55,-0.21 -1.94,-0.73 -1.06,-1.4 -0.6,-2.13 -0.6,-3.63 -0.12,0.06 -0.36,0.12 -0.49,0.17 -0.17,0.07 -0.27,0.12 -0.41,0.19 -0.91,0.46 -1.68,0.97 -2.84,0.97 -2.43,0 -3.36,-2.04 -2.11,-3.93 0.26,-0.39 0.56,-0.64 0.94,-0.93 0.35,-0.27 1.78,-1.49 2.2,-1.6 -0.38,-0.57 -2.72,-0.29 -3.28,-0.4 -1.26,-0.25 -1.82,-1.02 -1.85,-1.89l0 -0.2c0.04,-0.92 0.63,-1.9 1.57,-2.46 2.36,-1.4 3.49,-0.5 5.49,-0.97 -0.81,-1.54 -0.12,-3.74 1.35,-4.63 1.09,-0.66 2.57,-0.3 3.4,0.59 0.25,0.27 0.42,0.62 0.6,0.97 0.64,1.28 0.45,1.04 2.45,0.72 0.97,-0.15 1.07,-0.96 2.32,-1.49 0.21,-0.09 0.49,-0.18 0.73,-0.24 0.23,-0.05 0.52,-0.06 0.74,-0.17 -0.05,-0.2 -0.08,-0.18 -0.13,-0.41 -0.16,-0.73 0.28,-1.65 0.55,-2.24 0.39,-0.86 0.38,-1.96 0.69,-2.88 0.3,-0.88 -1.43,-2.25 -0.17,-4.87 0.51,-1.07 0.69,-0.9 0.99,-1.31 -0.06,-0.27 -0.14,-0.33 -0.2,-0.71 -0.25,-1.5 1.21,-1.98 1.69,-2.52 0.49,-0.54 1.47,-6.07 1.47,-7.1 0,-1.17 0.12,-4.04 -0.12,-5.07 0.47,0 1.28,0.31 1.65,0.47 0.4,0.17 0.64,0.42 0.95,0.68 0.16,0.13 0.08,0.13 0.3,0.19 0.23,-0.44 0.53,-0.97 0.89,-1.28 0.18,-0.16 0.43,-0.3 0.64,-0.44 0.22,-0.15 0.42,-0.27 0.64,-0.39 0.06,0.22 0.36,0.63 0.49,0.84 0.14,0.23 0.33,0.63 0.54,0.79 0.27,-0.18 0.6,-0.69 0.82,-0.99 0.16,-0.22 0.64,-0.9 0.69,-1.12l0.12 0c0.14,0.59 0.79,1.15 0.85,1.87 0.65,-0.15 1.24,-1.03 1.93,-1.09 0.14,0.58 0.33,1.35 0.6,1.87 0.4,-0.27 1.46,-1.93 1.87,-2.23 0.17,0.36 0.42,2.13 0.54,2.66l1.8 -1.65c0.17,-0.17 0.39,-0.41 0.62,-0.47 0.04,0.48 0.12,0.82 0.12,1.39 -0,0.5 0.03,0.93 0.12,1.33 0.49,-0.33 1.27,-1.16 1.87,-1.57 0.18,0.37 0.14,0.63 0.21,1.12l0.16 1.17c0.46,-0.31 1.58,-1.59 2.05,-1.63 0,0.96 0.06,1.7 0.06,2.66l2.82 -1.35c0.05,-0.03 0.17,-0.09 0.2,-0.1 0.1,-0.03 0.13,-0.04 0.14,0.06l-0.03 0.21c-0.03,0.1 -0.09,0.2 -0.14,0.29 -1.06,2.06 -2.15,5.17 -2.88,7.39 -0.13,0.41 -0.26,0.78 -0.38,1.2 -0.12,0.43 -0.25,0.86 -0.38,1.25 -0.42,1.22 -1.57,6.04 -1.92,7.57 -0.1,0.45 -0.23,0.84 -0.33,1.24 0.07,0.1 0.4,0.37 0.53,0.5 0.2,0.2 0.33,0.29 0.48,0.55 0.39,0.64 0.32,0.9 0.32,1.55 0,0.52 -0.02,0.47 0.48,0.72 0.78,0.4 0.38,0.65 1.53,0.82 0.92,0.13 1.88,0.39 2.81,0.39 0.07,-0.84 1.27,-2.17 2.17,-2.17l0.3 0c0.55,0 0.98,0.8 1.09,1.27 0.26,-0.17 0.43,-0.35 0.69,-0.52 0.21,-0.14 0.61,-0.28 0.93,-0.25 0.34,0.03 0.61,0.17 0.82,0.39 0.79,0.89 0.04,1.88 -0.02,2.61 0.48,0 0.99,0.19 1.29,0.4 0.47,0.32 0.68,0.67 0.7,1.02z"/>
   <path class="fil1" d="M38.89 26.52c-0.17,-0.93 1.33,-2.35 2.23,-1.47 -0.24,0.43 -0.39,0.27 -0.69,0.23 0.32,1.06 0.05,1.68 -0.65,2.17l-0.24 -0.27c0.2,-0.76 0.93,-0.61 0.43,-1.68 -0.4,0.18 -0.51,0.68 -0.73,1.07l-0.35 -0.05zm-4.96 -10.66c2.77,-0.3 5.16,1.66 5.29,4.2 0.15,2.69 -2.07,4.8 -4.52,5.06 -2.8,0.29 -5.19,-1.68 -5.32,-4.21 -0.14,-2.69 2.09,-4.79 4.54,-5.05zm-7.42 -11.09c-0.14,-0.13 -0.58,-0.99 -0.76,-1.23 -0.26,-0.37 -0.63,-0.79 -1.2,-0.91 0.19,2.73 -0.08,5.2 -0.63,7.78l-0.88 3.35c-0.33,0.92 -2,0.73 -1.58,2.52 0.46,-0.04 1.19,-0.73 2.33,-0.83 2.76,-0.25 5.43,1.76 4.93,4.79 -0.53,3.25 -2.8,0.93 -4.25,2.33 -0.73,0.71 -0.72,1.68 0.13,2.16 0.92,0.53 1.95,0.16 2.98,0.21l0.13 0.39c-0.6,0.19 -1.53,0.23 -2.22,0.14 -0.9,-0.12 -1.22,-0.28 -1.64,-0.78 -0.73,-0.86 -0.29,-0.42 -1.58,-0.83 -0.32,-0.1 -0.55,-0.2 -0.83,-0.38 -0.48,-0.31 -0.45,-0.43 -0.7,-0.54 -0.11,0.38 -0.21,0.66 -0.28,1.11 -0.34,2.2 -0.84,2.28 -0.98,3.32 -0.12,0.95 0.51,1.45 1.09,1.76 3.49,1.82 8.87,1.29 12.55,0.7 1.64,-0.26 3.73,-0.51 4.52,0.72 1.32,2.06 -1.66,5.04 -5.77,5.16 -1.4,0.04 -3.72,-0.38 -4.81,-0.92 0.29,-0.62 1.23,-0.98 1.02,-2.09 -0.19,-0.99 -0.7,-0.62 -1.3,-1.07 -0.25,-0.19 -0.18,-0.29 -0.52,-0.26 -0.03,0.57 0.55,0.54 0.52,1.2 -0.02,0.45 -0.56,0.78 -0.8,1 -0.9,0.81 -0.76,1.51 0.27,2.1 1.78,1.03 3.78,1.28 6.09,0.87 3.12,-0.56 7.04,-2.65 6.01,-6.26 -0.06,-0.2 -0.21,-0.53 -0.24,-0.68 -0.05,-0.29 0.11,-0.44 0.18,-0.73 -0.18,-0.11 -0.37,-0.39 -0.48,-0.58 -0.16,-0.3 -0.17,-0.59 -0.13,-0.96 0.43,0.03 0.43,-0.05 0.5,0.35 0.04,0.25 0.08,0.47 0.2,0.64 0.29,0.39 0.91,0.17 1.26,-0 0.93,-0.46 1.12,-0.79 1.52,-1.86 0.46,-1.23 0.33,-1.72 -0.53,-2.33 -0.41,-0.29 -0.66,-0.5 -1.12,-0.18 -0.31,0.22 -0.51,0.66 -0.72,1.02l-0.39 -0.18c0.1,-0.48 0.31,-0.72 0.58,-1 1.12,-1.13 0.86,0.71 1.68,-3.15 0.37,-1.74 0.83,-3.42 1.3,-5.1 0.46,-1.65 0.91,-3.34 1.48,-4.92 0.29,-0.79 0.58,-1.56 0.87,-2.33 0.25,-0.68 0.7,-1.68 0.87,-2.34 -0.4,0.14 -1.9,0.94 -2.14,0.93l-0.07 -2.08c-0.48,0.26 -1.33,1.11 -1.87,1.49 -0.12,-0.51 -0.16,-1.96 -0.39,-2.27l-1.97 1.61 -0.22 -2.59c-0.25,0.1 -1.8,1.57 -2.14,1.88 -0.1,-0.13 -0.03,0.04 -0.1,-0.21 -0.02,-0.08 -0.05,-0.22 -0.06,-0.3 -0.08,-0.42 -0.25,-1.5 -0.39,-1.71 -0.31,0.24 -1.35,1.73 -1.75,2.05l-0.77 -2.53c-0.26,0.11 -0.67,0.54 -0.83,0.81 -0.18,0.29 -0.32,0.88 -0.51,1.13 -0.4,-0.39 -0.7,-1.9 -1.01,-2.23 -0.25,0.31 -0.52,0.7 -0.76,1.05 -0.15,0.22 -0.6,0.9 -0.75,1.03 -0.26,-0.4 -1.11,-1.92 -1.3,-2.13 -1.3,0.9 -1.16,2.34 -1.62,2.93z"/>
   <path class="fil1" d="M11.43 36.79c0.58,-0.24 2.24,0.55 3.48,-0.63 0.11,-0.1 0.25,-0.32 0.37,-0.37 0.74,-0.33 0.3,1.69 -2.89,1.54 -0.44,-0.02 -1.04,-0.05 -0.95,-0.55zm-3.02 -3.25c-0.69,0.23 -0.07,-0.23 -0.87,-0.03 -0.35,0.09 -0.6,0.14 -0.98,0.17 -1.61,0.12 -4.07,-0.3 -5.3,1.52 -0.98,1.45 0.34,2.03 1.77,2.06 0.78,0.02 1.33,0.01 2.09,0.16 0.88,0.17 1.03,0.36 1.45,0.83 -0.72,1.28 -3.03,2.32 -3.65,3.2 -1.33,1.86 -0.12,3.32 2.84,2.11 1.37,-0.56 1.73,-0.96 3.45,-1.15 -0.07,1.32 -0.93,3.03 -0.07,4.22 0.67,0.94 2.47,0.26 3.13,-1.09 0.65,-1.32 0.23,-1.8 2.03,-3.04 0.84,-0.57 1.31,-1.15 1.72,-2.09 0.12,-0.29 0.17,-0.64 0.31,-0.96 0.32,0.11 0.32,0.14 0.36,0.53 0.62,-0.27 4.43,-2.57 5.49,-3.14 0.5,-0.27 0.38,-0.23 0.43,-0.84 0.19,-2.13 -0.73,-4.07 -2.16,-5.26 -0.55,-0.46 -1.38,-0.18 -2.14,-0.07 -0.6,0.09 -1.62,0.17 -2.14,0.33 -0.65,0.2 -1.39,0.24 -2.1,0.38 -2.48,0.49 -1.86,-0.62 -2.79,-1.97 -0.53,-0.77 -2.24,-1.41 -3.14,0.26 -1.12,2.07 0.44,2.98 0.31,3.87z"/>
   <path class="fil2" d="M25.85 35.94c-0.23,0.18 -0.96,1.18 -1.85,1.96 -0.28,0.25 -0.74,0.56 -1.16,0.78 -0.4,0.21 -0.98,0.39 -1.33,0.6 0.17,0.38 0.55,0.9 0.79,1.29 0.53,0.87 1.15,1.69 1.98,2.31 3.68,2.77 9.41,2.46 13.31,0.04 2.23,-1.39 4.02,-3.91 4.17,-6.72 -1.17,0.04 -1.53,0.3 -2.69,-0.14 -0.75,-0.28 -1.4,-0.66 -1.79,-1.16 -0.01,0 -1.73,1.03 -2.39,1.34 -0.83,0.39 -1.9,0.7 -2.9,0.84 -1.15,0.16 -2.34,0.13 -3.48,-0.06 -0.78,-0.13 -1.43,-0.32 -2.1,-0.68 -0.23,-0.13 -0.39,-0.29 -0.58,-0.39z"/>
   <path class="fil3" d="M35.24 19.62c0.53,-0.15 0.98,0.27 1.12,0.61 0.21,0.53 -0.18,1.06 -0.57,1.18 -1.11,0.33 -1.85,-1.42 -0.55,-1.79zm-1.08 -3.29c-2.29,0.16 -4.27,1.97 -4.28,4.33 -0.01,2.37 2.13,4.15 4.6,3.98 2.28,-0.16 4.25,-1.98 4.25,-4.34 0,-2.35 -2.11,-4.14 -4.58,-3.97z"/>
   <path class="fil3" d="M23.72 19.06c1.04,-0.31 1.63,1.31 0.54,1.65 -1.14,0.35 -1.64,-1.32 -0.54,-1.65zm-0.35 4.56c0.13,-0.21 0.16,-0.47 0.27,-0.7 0.81,-1.81 2.27,-1.17 3.56,-1.39 0.73,-0.12 0.81,-0.32 1.01,-0.98 0.61,-1.94 -0.94,-4.33 -3.15,-4.6 -1.16,-0.14 -2.47,0.13 -3.18,0.74 -3.79,3.23 -0.72,6.97 1.49,6.93z"/>
   <path class="fil2" d="M38.7 29.15c-0.15,0.71 0.49,1.86 0.26,3.11 -0.21,1.18 -0.83,1.67 -1.34,2.29 0.18,0.32 0.94,0.83 1.46,1.02 3.2,1.19 6.9,-1.97 5.06,-6.03 -0.38,-0.84 -0.95,-1.58 -1.67,-2.07 -0.17,-0.11 -0.62,-0.38 -0.86,-0.41 -0.43,0.4 -0.4,0.75 -1.13,1.34 -0.58,0.47 -1.19,0.43 -1.78,0.74z"/>
   <path class="fil1" d="M48.13 28.86c-0.54,0.01 -1.47,-0.2 -2.05,-0.28 -0.66,-0.1 -1.37,-0.28 -2.03,-0.29 0.14,0.49 0.76,1.23 1.01,2.46 0.29,1.38 -0.08,1.91 -0.41,3.01 0.59,-0.12 1.47,-0.5 2.04,-0.72 0.52,-0.2 1.51,-0.67 2,-0.77l0.18 0.29 -0.6 0.4c0.07,0.63 0.72,1.83 1.18,1.75 0.61,-0.11 0.76,-1.3 1.05,-1.91 0.36,-0.74 0.83,-0.93 1.83,-1.13 0.6,-0.12 1.74,-0.37 1.86,-1.16 -0.57,-0.68 -1.84,-0.57 -2.89,-0.56 0.07,-0.2 0.66,-0.88 0.92,-1.29 0.3,-0.46 0.58,-1.09 0.2,-1.64 -0.71,-0.03 -1.78,1.62 -2.64,1.31 -0.07,-0.73 0.27,-1.24 -0.24,-1.82 -0.51,0.11 -0.9,0.49 -1.12,0.82 -0.38,0.58 -0.3,0.79 -0.28,1.53z"/>
   <path class="fil2" d="M22.66 38.22c0.8,-0.4 2.4,-1.84 2.71,-2.59 -1.41,-1.87 0.81,-2.53 0.92,-3.08 -0.06,-0.33 -0.29,-0.62 -0.49,-0.73 -0.34,-0.18 -1.39,0.08 -2.06,-0.48 -0.29,-0.24 -0.33,-0.38 -0.56,-0.71 -0.22,-0.31 -1.44,-0.53 -1.85,-0.68 -0.56,-0.2 -1.27,-0.7 -1.85,-0.62 0.12,0.52 3.58,1.88 3.64,6.06 0.01,0.99 -0.36,1.88 -0.46,2.83z"/>
   <path class="fil4" d="M22.01 44.94c0,0.69 0.1,1.65 0.38,2.19 0.34,0.65 1.2,0.17 1.67,-0.11 0.83,-0.49 2.3,-1.62 2.71,-2.26 -0.24,-0.2 -0.77,-0.36 -1.16,-0.55 -0.71,-0.34 -1.45,-0.79 -2.02,-1.3 -0.19,-0.17 -0.71,-0.65 -0.87,-0.73 -0.5,0.7 -0.71,1.7 -0.71,2.76z"/>
   <path class="fil4" d="M37.93 43.31c0.54,0.55 3.53,1.87 4.36,0.98 0.83,-0.89 -0.61,-3.82 -1.1,-4.35l-0.69 0.98c-1.25,1.59 -1.61,1.5 -2.57,2.39z"/>
   <path class="fil5" d="M33.93 34.66c0.05,-0.42 -0.06,-0.86 0.2,-1.08 0.36,0.07 0.15,0.13 0.42,0.45 0.41,-0.73 -0.36,-2.15 -2.03,-1.32 -0.91,0.45 -0.56,1 -1,1.05 -0.73,0.09 0.11,-1.11 0.13,-1.31 -1.22,-0.46 -2.65,1.84 -2,2.41 0.29,0.25 1.76,0.25 2.24,0.24 0.85,-0.02 1.39,-0.1 2.04,-0.43z"/>
   <path class="fil2" d="M19.58 38.95c1.09,0.19 2.7,-0.22 2.8,-1.66l-2.8 1.66z"/>
   <path class="fil2" d="M16.59 30.34c0.5,0.07 2.4,-0.18 2.76,-0.38 -0.77,-0.89 -2.3,-0.25 -2.76,0.38z"/>
   <path class="fil3" d="M32.57 30.43c0.35,0.43 2.01,0.97 1.96,-0.33l-1.96 0.33z"/>
   <path class="fil3" d="M25.96 30.93c-0.26,-0.22 -1.75,-0.31 -2.19,-0.27 0.33,0.26 0.85,0.78 1.69,0.6 0.33,-0.07 0.44,-0.16 0.51,-0.33z"/>
   <path class="fil3" d="M28.86 30.89l-2.1 -0.01c0.1,0.23 0.61,0.57 1.02,0.57 0.35,-0 0.96,-0.32 1.08,-0.56z"/>
   <path class="fil3" d="M36.78 30.39c-0.47,-0.26 -0.86,-0.35 -1.5,-0.3 0.06,0.24 0.38,0.62 0.63,0.69 0.37,0.1 0.77,-0.16 0.88,-0.39z"/>
   <path class="fil6" d="M30.05 30.8l0.39 0.3c0.57,0.3 0.99,0.21 1.14,-0.51l-1.54 0.2z"/>
  </g>
 </g>
</svg>
