<?xml version="1.0" encoding="UTF-8"?>
<!DOCTYPE svg PUBLIC "-//W3C//DTD SVG 1.1//EN" "http://www.w3.org/Graphics/SVG/1.1/DTD/svg11.dtd">
<!-- Creator: CorelDRAW -->
<svg xmlns="http://www.w3.org/2000/svg" xml:space="preserve" width="11.7655mm" height="22.1341mm" version="1.1" style="shape-rendering:geometricPrecision; text-rendering:geometricPrecision; image-rendering:optimizeQuality; fill-rule:evenodd; clip-rule:evenodd"
viewBox="0 0 83.79 157.62"
 xmlns:xlink="http://www.w3.org/1999/xlink"
 xmlns:xodm="http://www.corel.com/coreldraw/odm/2003">
 <defs>
  <style type="text/css">
   <![CDATA[
    .fil0 {fill:black}
    .fil1 {fill:#E6C721}
    .fil2 {fill:#FEFEFE}
   ]]>
  </style>
 </defs>
 <g id="Camada_x0020_1">
  <metadata id="CorelCorpID_0Corel-Layer"/>
  <g id="_2900176038320">
   <path class="fil0" d="M13.02 0c7.96,0.54 23.13,10.76 30.29,15.35 3.54,2.28 7.38,4.55 11.04,8.13 6.16,6.01 11.85,14.13 14.82,20.53 0.26,0.56 0.43,1 0.63,1.58 0.47,1.5 -0.48,2.1 0.46,4.86l0.67 1.95 0.45 -0.35c2.62,5.78 1.54,0.79 3.5,4.49 -0.52,0.25 -1.53,0.39 -2.33,0.39 1.38,12.82 3.43,31.36 2.15,43.94 -0.9,8.91 -1.45,24.87 2.13,33.6 3.33,8.12 13.6,18.84 0.39,18.46 -4.54,-0.13 -13.37,-7.49 -17.36,-11.61l-6.63 -10.48c-2.8,-4.8 -2.15,-10.3 -4.99,-10.37 -1.7,7.29 1.44,18.26 5.6,24.53 2.89,4.34 5.35,4.32 10.54,5.02 8.43,1.14 7.9,3.78 15.38,3.53 1.05,-0.07 1.84,0.37 2.53,0.73 -0.13,5.65 -22.65,2.45 -24.63,2.06 -9.74,-1.95 -3.83,-4.61 -7.71,-11.15 -6.85,-11.58 -5.79,-8.7 -8.52,-20.44 -4.53,2.17 -5.72,18.64 -3.12,21.96 1.6,2.04 3.76,4.2 2.26,5.55 -2.89,2.61 -13.73,1.82 -16.08,2.4 -3.51,0.87 -12.42,1.27 -14.11,-2.99 -0.01,-0.06 -0.05,-0.07 -0.08,-0.11 2.11,-3.15 7.98,-0.75 15.54,-1.39 4.84,-0.49 6.96,-2.45 8,-2.69 0,-1.88 -1.2,-9.16 -1.75,-10.3l-9.65 5.91c-3.55,1.97 -3.37,3.03 -8.84,3.03 -0.03,-1.33 -1.38,-1.65 -0.67,-6.31 0.53,-3.49 1.26,-6.02 -0.48,-6.15 -25.77,-1.95 -3.86,-18.08 -1.87,-22.04 1.49,-2.94 2.06,-7.35 0.69,-10.4 -1.15,-2.56 -0.29,-3.48 -0.98,-6.41 3.61,-1.91 9.08,-8.25 11.9,-11.82 1.15,-1.46 3.35,-6.68 3.82,-8.42 1.79,-6.55 0.3,-6.44 -0.55,-10.07 -1.13,0 -1.5,0.12 -2.3,0.16l-0.81 -0.94c2.35,-0.2 3.06,-0.7 4.67,-1.55 0,-2.86 0.9,-11.14 -4.39,-12.15l-4.17 1.27c0.13,-1.54 0.72,-1.37 1.36,-2.33 7.04,0.58 6.58,3.52 5.24,-3.68 -0.14,-0.77 0.11,-1.43 -2.13,-1.96 1.01,-1.5 1.91,-0.79 0.41,-5.47 -2.83,-8.83 -2.46,-8.65 -7.22,-18.25 -2.64,-5.32 -7.98,-11.44 -7.98,-17.29 4.79,-1.11 2.72,-2.18 4.87,-2.33z"/>
   <path class="fil1" d="M63.76 91.73l2.56 -2.13c-0.47,1.47 -1.1,1.64 -2.56,2.13zm-31.24 -36.72l-5.27 -8.33c0.38,6.58 0.96,5.47 2.98,7.07 0.83,0.65 0.98,1.07 2.29,1.27zm-18.78 89.29c5.55,1.37 8.74,-3.26 15.56,-6.8 3.49,-1.81 4.1,-6.2 4.15,-10.07l-13.87 4.49c-3.52,1.23 -3.9,0.37 -5.07,4.08 -0.82,2.62 -1.17,5.44 -0.78,8.3zm14.83 -85.73c-0.95,1.8 -0.14,5.13 0.87,6.63 2.19,3.26 21.48,5.87 30.32,-5.08 5.25,-6.51 8.32,-5.05 10.2,-6.51 -0.53,-3.15 -1.89,-7.37 -3.07,-10.06 -9.79,-0.19 -10.17,11.7 -14.06,13.34 -4.13,1.74 -14.2,1.81 -17.88,2.33 -2.97,0.42 -3.88,-0.5 -6.38,-0.66zm12.3 -3.8c0.67,-0.67 1.02,-0.35 2.6,-1.99 1.85,-1.92 3.99,-6.13 5.36,-8.64 1.79,-3.27 8.24,-10.78 9.7,-6.41 -7.81,-1.02 -12.36,19.98 -17.66,17.03zm-5.67 2.4l2.46 -0.06c-0.57,-2.22 -2.76,-7.39 0.45,-8.18 -0.37,2.31 -1.52,2.62 -0.62,5.32 3.59,10.77 15.72,-7.85 23.44,-10.47l5.26 -1.56c-1.26,-4.14 -9.45,-13.87 -12.51,-17.36 -3.77,-4.3 -21.79,-15.69 -23.94,-15.77 -2.88,-0.11 -1.32,2.44 -7.93,2.22 0.14,1.74 0.5,1.16 -0.25,2.86 -0.71,1.59 -0.12,1.59 -0.27,3.03 -0.93,-0.82 -1.65,-1.75 -3.27,-2.23 0.51,8.02 5.94,14.89 8.41,27.39 0.21,1.04 0.1,1.43 0.9,2.03 2.99,2.26 2.45,3.19 3.77,5.3 1.21,-0.52 1.04,-1.2 1.93,-2.04 0.39,1.6 0.16,4.04 0.55,5.27 0.23,0.74 0.94,2.01 1.63,4.24zm30.92 25.42c-0.44,-1.03 -0.19,-5.71 -0.2,-7.23 3.41,0.42 1.09,7.05 0.2,7.23zm-33.21 -3.01c0,-0 4.15,-0.81 6.36,0.87 13.49,10.25 4.13,9.1 9.89,13.61 -2.22,2.77 -1.41,3.68 -0.47,10.98 2.65,20.59 5.76,33.1 22.7,44.02 8.11,5.23 15.14,2.93 7.86,-7.05l-0.89 0.07c0.01,-1.29 -0.13,-0.62 0.41,-0.76 -1.65,-5.01 -4,-3.64 -5.34,-17.28 -0.75,-7.6 0.86,-7.1 -2.95,-7.52 -0.73,-2.51 0.65,-2.69 2.47,-3.03l0.03 -2.91 -2.75 0.12c-0.02,-0.75 0.07,-1.51 0.41,-2 3.72,1.48 2.56,-3.56 2.82,-12.9 0.41,-14.8 -0.14,-23.25 -2.65,-38.1 -6.4,2.14 7.43,13.61 -13.3,18.01 -10.88,2.31 -8.64,-5.19 -27.23,-1.69 0.69,1.33 1.35,0.23 2.86,1.74 -4.33,-0.04 -3.26,-1.3 -5.51,-1.71 -2.25,4.76 -0.34,2.92 -4.64,10.14 -2.94,4.93 -5.57,5.37 -6.72,8.1 0.49,1.12 1.55,1.88 1.09,3.37l-2.46 0.14c0.16,1.01 0.69,2.2 0.6,3.1 -0.76,0.53 -1.3,0.4 -2.3,0.43 0.18,1.98 1.01,1.11 0.29,3.74 -0.42,1.53 -0.43,2.43 -0.41,4.12 2.71,-0.32 6.86,-10.8 8.04,-14.39 2.17,-6.58 2.18,-11.81 11.81,-13.25z"/>
   <path class="fil2" d="M1.94 127.12c0.85,6.9 14.96,5.39 20.73,2.24 1.64,-0.9 21.17,-7.16 25.89,-11.39l-0.88 -11.14 -0.87 -5.64 -5.23 -4.21c1.12,-2.62 0.15,-1.6 -0.05,-3.87l4.82 -0c-0.32,-8.34 -4.31,-8.49 -7.73,-12.16 -2.43,-2.61 -11.49,0.68 -13.02,3.54 -5.89,11.01 -6.11,19.38 -16.61,31.22 -1.13,1.27 -8.96,8.35 -7.05,11.42zm36.48 -55.97c-0.02,0.32 -0.05,0.65 -0.07,0.97 0.63,-0.07 1.27,-0.14 2.03,-0.1 0.77,0.04 1.66,0.2 2.56,0.35 -0.18,-0.3 -0.36,-0.6 -0.57,-0.81 -0.22,-0.21 -0.47,-0.33 -1.13,-0.38 -0.66,-0.05 -1.74,-0.04 -2.82,-0.03zm12.38 -16.3c-2.05,-0.02 -3.19,-0.18 -3.84,1.32 1.76,1.54 7.97,-0.11 7.48,-5.68 -2.45,0.29 -3.47,1.87 -3.65,4.36zm10.22 12.92c-4.5,0.23 -3.96,0.1 -5.59,2.18 -2.12,-0.51 -2.02,-0.36 -4.11,-0 0.89,-1.31 2.08,-0.17 2.15,-2.28 -1.69,-0.51 -3.77,-0.08 -4.83,0.94 0.5,1.28 0.44,1.06 2.08,1.24 -0.4,0.74 -0.8,0.81 -1.29,1.29 0.61,3.31 2.71,3.46 6.3,2.82 2.31,-0.41 5.45,1.86 6.7,-2.41 7.23,0.81 4.94,-5.76 5.5,-8.01 -3.75,0.43 -5.25,1.78 -6.92,4.24zm-25.44 2.35c0.18,0.27 -0.19,0.72 1.1,-0.27 -0.55,-1.9 -3.39,-1.38 -3.55,-1.18 -0.79,-0.08 -0.27,-0.08 -0.44,0.13 0.67,1.26 1.19,1.2 2.89,1.32zm-1.86 1.4l0.47 0.59c1.23,0.01 1.55,0.01 1.95,-0.78 -1.09,-0.4 -1.7,-0.76 -2.43,0.19zm12.17 -2.42c-0.97,0.02 -1.42,-0.05 -2.05,0.48l1.73 1.37 -1.37 0.41c4.11,3.62 7.18,1.1 2.69,-0.83 0.27,-0.77 0.38,-0.51 0.38,-1.51l-1.38 0.09zm-17.57 2.05c-0.13,0.56 0.03,0.94 0.22,1.37l1.83 0.21 -2.04 -1.58zm10.5 -0.73l3.1 -0.03 -0 -0.95 -3.37 -0.22 0.27 1.2zm-9.85 -1.95c0.78,0.55 0.89,0.53 2.15,0.53 -0.05,-1.16 -0.71,-2.27 -1.87,-2.05 -0.46,0.69 -0.39,0.64 -0.28,1.52zm30.54 -3.88c-3.04,-1.45 -5.33,1.4 -5.59,2.86 3.38,1.6 7.35,-2.97 13.13,-5.7 0.32,-1.29 0.43,-3.24 -0.02,-4.52 -3.28,-0.09 -2.67,1.17 -4.98,2.83 -3.65,2.61 -3.13,2.81 -2.54,4.52zm-24.3 -7.41l-4.37 -0.16c-3.94,-6.26 -2.73,-0.01 -0.39,0.79 1.54,0.53 3.36,0.53 5.12,0.49l-0.36 -1.12z"/>
  </g>
 </g>
</svg>
