<?xml version="1.0" encoding="UTF-8"?>
<!DOCTYPE svg PUBLIC "-//W3C//DTD SVG 1.1//EN" "http://www.w3.org/Graphics/SVG/1.1/DTD/svg11.dtd">
<!-- Creator: CorelDRAW -->
<svg xmlns="http://www.w3.org/2000/svg" xml:space="preserve" width="23.8256mm" height="18.8244mm" version="1.1" style="shape-rendering:geometricPrecision; text-rendering:geometricPrecision; image-rendering:optimizeQuality; fill-rule:evenodd; clip-rule:evenodd"
viewBox="0 0 233.99 184.88"
 xmlns:xlink="http://www.w3.org/1999/xlink"
 xmlns:xodm="http://www.corel.com/coreldraw/odm/2003">
 <defs>
  <style type="text/css">
   <![CDATA[
    .fil0 {fill:black}
    .fil3 {fill:#5DE728}
    .fil1 {fill:#FD4C2A}
    .fil2 {fill:white}
   ]]>
  </style>
 </defs>
 <g id="Camada_x0020_1">
  <metadata id="CorelCorpID_0Corel-Layer"/>
  <g id="_2899310954848">
   <path class="fil0" d="M10.48 150.78c0,10.12 5.94,20.85 16.54,20.85 6.88,0 7.56,-5.52 12.25,-5.52 1.39,0 43.25,31 98.43,13.3 25.6,-8.21 46.05,-23.65 58.49,-46.94 5.64,-10.55 6.9,-17.81 7.92,-28.89 0.65,-7.1 2.21,-1.98 0.24,-10.72 -0.35,-1.53 -0.25,-2.98 -0.27,-4.66 -0.31,-27.46 -26.25,-56.61 -52.33,-69.06 -14.4,-6.88 -20.65,-5.94 -21.82,-8.82 6,-3.03 22.4,2.92 23.92,3.04 3.76,0.3 3.88,-0.59 6.43,1.51 4.64,3.81 5.25,-0.64 15.88,5 12.39,6.58 8.54,3.72 16.11,6.55l23.34 7.31c4.24,0.91 11.97,5.29 15.99,2.93 1.74,-1.02 3.48,-6.83 1.57,-10.04 -3.65,-6.12 -5.19,-4.65 -11.93,-7.13 -1.45,-0.54 -5.22,-1.92 -6.91,-2.28 -5.42,-1.16 -7.09,-3.08 -13.17,-5.83 -6.87,-3.1 -12.73,0.91 -19.2,-2.23 -12.93,-5.84 -43.61,-11.67 -56.3,-8.04l-14.28 3.51c-3.22,1.1 -3.8,3.42 -7.18,3.82 -3.16,0.37 -8.17,-0.14 -11.63,0.03 -17.92,0.88 -36.82,6.76 -51.64,16.99 -17.51,12.09 -29.87,25.01 -37.01,45.13 -5.33,19.56 -3.03,7.76 -3.87,28.07 -0.87,21.01 13.2,38.73 12.46,42.42 -0.61,3.05 -2.03,5.97 -2.03,9.69z"/>
   <path class="fil1" d="M146.72 90.42c1.1,1.79 -0.02,-1.27 0.97,1.48 -4.57,2.27 -8.67,-2.3 -11.64,-4.29 -4.97,2.63 -13.11,11.65 -22.67,11.65 2.23,-3.34 3.05,-0.87 5.51,-5.52 -3.3,-0.77 -4.3,-1.71 -9.09,-1.14 -15.97,1.89 -54.19,0.5 -69.32,-6.21 -21.16,-9.38 -1.83,-29.51 -1.83,-36.19 -6.2,0 -7.38,-1.37 -16.19,5.25 -3.3,2.48 -5.55,5.96 -8.77,8.49 -2.33,1.83 -0.05,1.01 -2.6,-0.86 -6.84,12.95 -7.96,22.79 -7.96,37.41 0,10.22 5.42,29.36 11.03,33.12 5.85,-3.93 6.15,-9.9 16.09,-17.62 18.81,-14.61 54.01,-5.76 76.93,-2.53 1.66,0.23 2.56,0.7 3.94,0.96 41.83,5.37 50.53,-8.41 59.25,-8.41 0,6.31 -13.34,46.22 -13.48,47.84 -9.75,-2.6 -21.93,-43.24 -77.79,-18.39 -11.43,5.09 -24.86,15.83 -35.05,23.79 -6.63,5.23 3.67,8.48 7.44,10.59 26.53,14.84 63.9,16.29 91.85,4.8 17.62,-7.24 39.37,-21.98 47.18,-38.63 4.64,-9.89 10.48,-18.99 10.48,-33.05 0,-18.42 -1,-29.66 -10.44,-45.36 -12.2,-20.3 -24.6,-27.1 -42.59,-37.09 -11.83,-6.57 -17.81,-1.6 -25.92,-4.07 -6.25,-1.9 -13.28,-3.03 -19.67,-3.03 -0.49,-4.51 -8.88,-2.21 -14.53,-1.06 -10.44,2.13 -10.01,-1.73 -29.75,7.01 -6.78,3 -28.04,13.5 -28.62,20.41 19.06,-4.45 27.29,6.69 48.62,18.18l36.29 21.93c4.81,3.24 11.96,9.18 16.21,2.87 0.91,-1.36 2.23,-4.01 2.41,-6.17 6.85,1.6 -3.12,2.76 7.96,1.84 0.05,2.51 0.37,2.67 1.23,4.29 5.71,-0.48 19.84,-16.33 27.78,-18.79 3.7,-1.15 10.26,-1.95 12.65,1.62 -6.84,3.28 -2.59,1.85 -4.42,10.9 -2.18,10.75 -25.3,10.76 -32.33,12.4 0.35,1.32 0.28,0.64 0.86,1.59z"/>
   <path class="fil2" d="M65.61 69.83c0,-3.81 3.63,-6.11 4.29,-8.59 -1.8,-1.97 -13.63,-7.07 -16.95,-7.77 -6.62,6.12 -15.74,20.17 -3.25,27.38 15.75,9.09 64.5,10.37 67.77,8.4 -40.22,-24.97 -9.95,-6.54 -40.23,-6.54 -6.33,0 -11.64,-4.57 -11.64,-12.88zm-11.03 58.88c2.19,-1.47 2.75,-3.17 3.43,-6.38 2.16,-10.21 6.43,-14.13 -9.73,-9.76 -6.46,1.74 -5.57,3.4 -8.83,18.78 -0.41,1.91 -0.41,3.03 -0.8,4.72l2.45 0.61c-4.57,1.22 -5.8,11.3 -7.26,18.5 -1.16,5.73 -2.39,3.95 0.11,5.42 0.81,0.47 16.19,-10.95 16.32,-11.07 1.9,-1.78 3.07,-7.83 3.66,-11.01 1.83,-9.81 3.84,-5.02 0.64,-9.81zm6.74 -3.07c3.05,0 4.31,-2.08 9.39,-2.45l-9.39 3.07 0 -0.61zm10.21 -2.45c2.23,-2.43 8.22,0.73 8.16,-11.56 -6.46,-0.68 -10.64,-1.36 -17.14,-0.71 -0.84,1.75 -1.94,6.46 -2.4,8.64 -1,4.75 -2.42,5.66 -0.05,7.92 -4.71,1.26 -5.95,18.61 -5.92,18.81 0.01,-0 18.65,-10.14 19.96,-13.34 5.7,-13.85 0.62,-10 -2.6,-9.76zm-41.96 20.34c2.9,-5.2 5.14,1.24 8.45,-11.79l2.89 -16.32c-10.22,2.62 -18.42,18.71 -19.65,29.75 -0.71,6.32 3.61,-0.83 8.32,-1.64 -3.94,4.74 -9.04,3.49 -8.71,10.27 0.39,7.84 3.36,9.9 9.63,9.05l5.11 -21.87c-2.39,0.11 -3.36,1.68 -6.03,2.55zm130.18 -16.86c3.54,-1.18 2.48,-0.7 3.58,-4.38 3.8,-12.67 -0.15,-7.86 -7.96,-5.55 -5.13,1.52 -5.69,1.54 -6.24,6.86 1.03,1.01 1.66,1.61 3.07,1.67l-3.89 0.79c-0.67,1.67 -0.77,4.36 -1.22,6.33 1.27,1.34 7.69,6.87 9.8,7.26 1,-1.17 4.96,-9.45 3.73,-11.72l-0.87 -1.26zm3.88 -49.47c-2.06,8.86 -9.98,3.38 -10.51,3.15 -2.46,-1.03 -8.37,4.87 -9.09,6.66 11.13,0 36.03,-3 27.57,-19.01 -2.26,0.05 -10.32,2.93 -11.13,6.13l3.16 3.07zm-15.93 41.09c-22.97,1.92 -17.05,-1.17 -17.86,3.82 -0.17,1.03 -0.36,-0.3 -0.72,2.31 9.82,2.94 13.73,6.22 16.13,6.64 3.65,-5.96 0.92,-6.64 -2.65,-6.64l5.11 -1.23c0.2,-3.21 1.01,-1.86 0,-4.91zm-71.67 14.72c3.46,-0.29 7.75,-2.69 11.26,-4.05 2.25,-0.87 6.42,-0.95 5.89,-9.03 -2.66,0.61 -11.9,0.89 -13.47,2.03 -1.29,0.93 -3.63,8.63 -3.68,11.05zm17.76 -6.75c3.38,0 8.76,-1.12 11.69,-1.79 4.91,-1.13 2.99,-1.21 3.47,-4.26 0.4,-2.54 0.83,0.12 1.39,-3.35 -1.78,-1.17 -4.92,-1.03 -7.96,-1.7 -3.67,-0.81 -5.81,-0.9 -5.31,3.54 3.42,0.46 8.4,-0.47 10.82,0.82 -2.55,1.49 -8.24,0.61 -11.64,0.61 -1.02,1.52 -2.26,3.79 -2.45,6.13zm-13.48 -5.93c11.13,-0.95 16.01,0.46 15.11,-6.14 -2.33,-0.75 -10.41,-2.25 -13.27,-2.04 -0.93,1.94 -1.92,5.23 -1.84,8.18zm42.3 -2.07c-4.57,-0 -5.78,-1.2 -10.45,-1.2 0.37,2.88 0.86,1.84 2.04,3.68 -3.36,0.04 -2.8,-0.79 -3.27,1.84 0.4,2.59 5.88,0.85 7.47,0.68 2.82,-0.3 5.05,0.54 8.46,0.54 -0.05,-1.78 -0.57,-2.3 -0.57,-2.33 -0.39,-2.96 2.29,-3.21 -3.69,-3.22zm-51.9 -51.08c2.61,1.65 8.03,1.22 5.49,-2.37 -1.52,-2.14 -6.41,-1.33 -5.49,2.37zm11.23 12.88c4.85,-0.73 9.93,-1.58 8.78,-6.54 -4.11,0.76 -0.52,2.67 -6.25,4.77 -2.85,1.05 -1.41,0.27 -2.53,1.77z"/>
   <path class="fil3" d="M109.71 12.17c-0.86,-2.08 0.58,-2.33 1.38,-0.95 1.1,1.91 0.17,0.25 -0.15,0.95l14.89 -3.49c8.25,-3.28 7.35,-1.86 16,-0.44l16.31 3.3c5.1,0.43 2.48,2.73 6.69,2.79 6.45,0.08 10.27,3.11 14.46,4.88l13.66 5.95c6.64,3.44 18.91,5.07 23.09,6.32 3.38,1.01 7.71,4.5 11.09,1.95 2.72,-2.05 2.75,-6.14 -2.15,-9.07 -6.31,-3.77 -11.11,-1.79 -18.21,-6.31 -2.88,-1.83 -4.42,-1.5 -6.97,-2.84 -5.63,-2.97 -2.24,-2.33 -10.5,-2.94 -13.19,-0.97 -4.27,0.68 -16.94,-3.32 -9.95,-2.84 -33.23,-7.85 -42.77,-5.73 -7.55,1.68 -21.19,2.3 -21.7,8.33 0.83,0.46 0.68,0.34 1.84,0.61z"/>
  </g>
 </g>
</svg>
