<?xml version="1.0" encoding="UTF-8"?>
<!DOCTYPE svg PUBLIC "-//W3C//DTD SVG 1.1//EN" "http://www.w3.org/Graphics/SVG/1.1/DTD/svg11.dtd">
<!-- Creator: CorelDRAW -->
<svg xmlns="http://www.w3.org/2000/svg" xml:space="preserve" width="42.7953mm" height="75.6566mm" version="1.1" style="shape-rendering:geometricPrecision; text-rendering:geometricPrecision; image-rendering:optimizeQuality; fill-rule:evenodd; clip-rule:evenodd"
viewBox="0 0 48.23 85.26"
 xmlns:xlink="http://www.w3.org/1999/xlink"
 xmlns:xodm="http://www.corel.com/coreldraw/odm/2003">
 <defs>
  <style type="text/css">
   <![CDATA[
    .fil0 {fill:black}
    .fil12 {fill:#10183E}
    .fil6 {fill:#11193F}
    .fil5 {fill:#1C1C1C}
    .fil3 {fill:#1D1D1D}
    .fil7 {fill:#233442}
    .fil9 {fill:#2A292A}
    .fil1 {fill:#2C2A2A}
    .fil35 {fill:#443818}
    .fil4 {fill:#4B3E1B}
    .fil17 {fill:#515152}
    .fil19 {fill:#565656}
    .fil36 {fill:#5B5C5C}
    .fil34 {fill:#B3B4B4}
    .fil20 {fill:#BBBBBC}
    .fil29 {fill:#BFC0C4}
    .fil27 {fill:#C39E50}
    .fil14 {fill:#C5A051}
    .fil18 {fill:#C6A251}
    .fil30 {fill:#C6C8D1}
    .fil31 {fill:#CBCCD3}
    .fil8 {fill:#CFD0D1}
    .fil28 {fill:#CFD0D7}
    .fil22 {fill:#D4CEC1}
    .fil33 {fill:#D6D7D9}
    .fil16 {fill:#DAD5C6}
    .fil26 {fill:#DCDDE1}
    .fil32 {fill:#DFE0E5}
    .fil13 {fill:#E1DCCD}
    .fil25 {fill:#E5E6E9}
    .fil24 {fill:#E9EAEB}
    .fil23 {fill:#EDEDED}
    .fil21 {fill:#F4F4F4}
    .fil15 {fill:#F7F8F9}
    .fil11 {fill:#F9F9F9}
    .fil2 {fill:#FCE632}
    .fil10 {fill:#FCFCFC}
   ]]>
  </style>
 </defs>
 <g id="Camada_x0020_1">
  <metadata id="CorelCorpID_0Corel-Layer"/>
  <g id="_2015437118896">
   <path class="fil0" d="M1.23 73.93c-0.08,-0.67 0.7,-1.63 1.48,-2.1 1.26,-0.77 3.04,-1.14 4.34,-1.82 1.96,-1.03 0.73,-1.03 0.7,-1.79 -0.02,-0.34 0.23,-0.68 0.29,-0.97 0.39,-1.95 -0.96,-8.28 0.38,-11.47 0.35,-0.83 1.34,-2.3 2.01,-2.93 1.81,-1.71 2.45,-0.99 2.43,-2.65 -0.02,-1.91 0.04,-2.69 0.5,-4.43l0.45 -4.49c0.07,-0.5 0.17,-3.99 0.09,-4.67 -3,0.5 -7.31,3.36 -11.21,1.89 -1.54,-0.58 -2.86,-2.98 -2.67,-4.1 0.32,-1.32 1.79,-3.38 2.83,-4.25 0.33,-0.28 0.65,-0.49 1.03,-0.7 1.59,-0.85 2.07,-0.67 2.87,-0.91 1.5,-0.45 1.75,-0.18 2.46,-0.44l0.51 0.17c0.23,-0.4 1.02,-1.12 1.4,-1.48 0.59,-0.57 0.77,-1.05 1.3,-1.47 1.26,-0.99 1.51,-3.55 1.73,-3.8 0.25,-0.22 0.26,-0.1 0.57,-0.27 1.29,-0.72 0.58,-1.17 0.19,-1.21 -0.69,-0.07 -4.08,0.2 -2.98,-1.75 0.41,-0.72 0.04,-0.51 0.1,-1.3 0.07,-1.05 0.38,-1.96 0.33,-2.88l-0.19 0.01c-0.02,-0.3 -0.03,-0.61 -0.05,-0.91 -0.23,0.01 -0.45,0.02 -0.68,0.03 -0.04,-0.23 -0.09,-0.47 -0.13,-0.7 -0.16,-0.02 -0.31,-0.03 -0.47,-0.05 -0.03,-0.38 -0.05,-0.76 -0.08,-1.14 0.37,-0.2 0.39,-0.13 1.06,-0.13 -0.5,-1.78 -0.98,-3.05 -0.47,-4.81 0.19,-0.65 0.49,-1.47 0.88,-2.01 0.39,-0.55 0.86,-0.82 1.33,-1.1 0.06,-0.08 0.11,-0.17 0.17,-0.25 0.19,-0.21 0.39,-0.41 0.58,-0.62l0.02 0c1.44,-2.6 10.72,-3.71 14.74,-0.25 0.2,0.17 0.52,0.37 0.71,0.54 0.82,0.72 1.85,1.67 2.3,2.89 0.82,2.19 1.33,4.37 0.98,6.77 -0.14,0.97 -0.24,-0.12 -0.45,0.66 -0.1,0.36 -0.07,0.69 -0.2,1.11 -0.3,0.97 -0.44,0.91 -0.48,2.1 -0.02,0.79 -0.25,0.81 -0.36,1.02 -0.07,0.13 -0.24,0.44 0.08,0.37 0.27,-0.05 0.11,-0.16 0.27,-0.38 0,1.02 -0.54,0.64 -0.54,0.63 -0.07,-0.34 0.1,-0.11 -0.13,-0.25l-0.8 0.63c-0.01,0.28 0.01,0.86 -0.16,1.12 0.68,1.51 0.28,0.97 1.25,1.62 1.75,1.15 3.91,2.42 4.95,4.36 0.46,0.85 0.37,1.01 0.54,1.99 0.31,1.18 0.45,3.06 0.46,4.35 0.26,0.9 0.51,1.79 0.7,2.67 0.58,2.68 0.52,4.68 0.76,7.05 0.16,1.59 0.52,0.91 0.48,2.51 -0.02,0.8 0.04,0.74 0.65,1.71 1.34,2.14 1.8,3.57 2.22,6.07 0.14,0.81 0.17,1.12 -0.12,1.54 -0.84,1.27 -2.05,1.53 -3.54,1.53 0.15,0.5 1.49,2.65 2.02,3.69l0.19 0.11c2.08,4.9 1.29,3.96 2.25,7.85l2.25 8.97c0.13,0.95 -0.18,1 -0.8,1.93 1.52,1.7 3.91,4.16 3.62,5.76 -0.56,3.15 -9,2.38 -10.89,0.42 -0.46,-0.48 -0.83,-1.46 -1.09,-2.11 -2.56,-0.59 -2.12,-1.59 -2.22,-3.85 -1.4,-1.26 -0.07,-1.76 -0.42,-3.93 -0.32,-1.98 -1.79,-4.99 -2.04,-6.89 -0.5,0.05 -0.91,-0.69 -1.02,-1.35 -0.09,-0.56 -0.11,-0.42 -0.58,-0.91 -0.36,-0.36 -0.98,-1.02 -1.6,-1.68 -0.05,-0.05 -0.06,-0.12 -0.03,-0.19 -0.84,-1.01 -1.61,-2.08 -2.32,-3.01 -0.8,-1.06 -0.71,-0.74 -2.38,-1.16 -0.88,-0.22 -4.24,1.38 -5.05,1.9 -0.69,0.45 -0.8,0.77 -0.84,1.68 -0.08,1.72 0.05,4.33 0.18,5.97l-0.02 -0.01c0.36,0.96 0.53,0.66 -0.73,2.02 -0.36,0.38 0.55,1.56 0.2,3.1 -0.06,0.28 -0.18,0.44 -0.31,0.56 -0.06,0.4 -0.19,0.93 -0.27,1.14 -0.98,0.29 -2.93,0.49 -4.08,0.54l-0.12 -0.43c-0.31,-0 -1.36,0.4 -2.13,0.51 -0.64,0.1 -0.49,0.18 -0.64,0.21 -1.4,-0.12 -3.49,0.83 -7.85,-0.22 -0.37,-0.09 -0.21,-0 -0.45,-0.2 -0.35,-0.28 -0.34,-0.9 -0.26,-1.33z"/>
   <path class="fil1" d="M14.56 70.08c0.45,-0.41 0.99,-0.73 1.45,-1 0.03,-0.7 -0.5,-1.12 -0.63,-3.37 -0.04,-0.69 -0.05,-3.55 -0.16,-3.9 -0.45,-0.49 -1.25,-0.32 -1.43,-0.94 0.53,-0.2 0.54,0.19 0.97,-0.2 -0.13,-0.27 0.06,-0.04 -0.24,-0.19 -0.36,-0.18 -0.66,-0.13 -0.91,-0.4 0.13,-0.49 2.11,-1 2.79,-1.2 1.03,-0.3 3.92,-1.44 4.48,-2.26 1.23,0.68 2.41,0.7 3.87,0.62 0.56,-0.03 0.61,-0.28 1.22,-0.23 0.52,0.72 0.21,0.58 1.3,2.04 0.81,1.08 0.61,0.61 1.34,2.01 0.67,1.29 0.82,2.44 1.85,3.43 0.65,0.62 0.07,0.52 0.77,0.41 0.09,0.55 -0.62,0.86 0.14,1.41l0.09 0.04c0.18,-0.25 -0.01,-1.26 0.5,-1.46 0.02,0.1 0.02,0.18 0.01,0.26 0.13,0.16 -0.22,0.84 -0.01,1.85l0.46 1.59c0.06,0.21 0.21,0.41 0.29,0.61 0.12,0.29 0.24,0.88 0.35,1.31 0.37,1.25 1.35,3.59 1.02,4.75 -0.39,1.39 -0.78,1.42 0.8,2.43 0.58,0.37 0.8,0.57 1.61,0.49 1.16,-0.11 1.95,-0.41 2.83,-1.05 0.54,-0.4 -0.1,-0.32 0.54,-0.96 0.86,-0.86 1.34,-0.15 1.96,-0.3 1.19,-0.28 1.44,-0.06 1.13,-2.19 -0.1,-0.68 -0.14,-1.3 -0.22,-1.96 -0.15,-1.19 -0.41,-2.55 -0.6,-3.76 -0.19,-1.21 -0.62,-2.3 -0.7,-3.64 -0.07,-0.99 -0.24,-0.95 -0.47,-1.73 -0.57,-1.87 -0.94,-2.79 -2.19,-4.36 -2.08,-2.6 -2.01,-2.4 -4.04,-2.06 -0.93,0.15 -0.97,0.03 -1.81,0.39 -1.15,0.49 -1.27,1.08 -3.51,0.95 -0.59,-0.06 -1.2,0.02 -1.79,-0.03 -0.79,-0.07 -0.69,-0.16 -1.13,-0.56 -1.07,-0.99 -0.64,-0.76 -1.51,-1.92 -0.85,-1.13 -2.21,-4.38 -2.38,-4.47 -0.61,-0.07 -1.32,0.04 -1.88,-0.15 -0.32,-0.11 -0.41,-0.3 -0.8,-0.21 -0.4,0.09 -0.26,0.27 -0.86,0.21 -0.29,-0.16 -0.3,-0.31 -0.56,-0.47 -0.28,-0.17 -0.41,-0.07 -0.78,-0.24 -0.92,-0.43 -0.61,-0.78 -1.01,-1.05 -0.29,0.49 -0.36,0.53 -0.44,1.1 -0.06,0.5 0.03,0.9 -0.32,1.18 -0.16,-0.28 0.09,-0.93 0.03,-1.35 -0.44,-0.13 -1.15,0.49 -1.48,0.69 -0.39,0.24 -0.96,0.57 -1.38,0.88 -0.28,0.21 -0.29,0.31 -0.66,0.51 -2.81,1.55 -4.49,4.34 -4.37,8.02l0.11 3.34c0.03,0.33 0.12,0.59 0.15,0.93 0.06,0.73 0,1.53 0,2.27 0,1.76 -0.32,1.3 -0.33,1.93 -0.02,0.84 0.89,0.9 1.25,0.97 1.12,0.2 3.48,1.75 5.32,0.97z"/>
   <path class="fil1" d="M32.11 55.62c0.7,-0.66 1.25,-1.22 2.29,-1.71 0.71,-0.33 2.61,-0.28 3.38,-0.22 0.82,0.06 0.99,0.17 1.69,-0.25 0.64,-0.38 0.69,-0.46 0.66,-1.33 -0.04,-1.15 -1.75,-4.5 -2.37,-5.47 -0.81,-1.26 -0.58,-1.5 -2.2,-0.82 -0.83,0.34 -1.76,0.91 -2.52,1.35 -1.65,0.95 -2.35,-0.49 -2.27,-0.72 0.23,0.1 0.18,0.3 0.72,0.67 0.37,0.25 0.74,0.23 1.01,-0.04 -0.19,-0.12 -0.37,-0.08 -0.65,-0.09l0.55 -0.28c0.74,-0.29 0.95,-0.43 1.66,-0.85 0.68,-0.41 1.89,-0.65 1.32,-1.72 -0.63,0.16 -2.53,1.08 -3.3,1.5 -0.4,0.22 -0.96,0.54 -1.44,0.59 0.14,-0.65 0.33,-0.34 1.22,-0.92l2.71 -1.33c2.05,-0.83 1.02,-0.39 1.22,-2.14 0.05,-0.45 0.04,-0.23 -0.09,-0.59l-0.13 -0.37c-0.01,-0.02 -0.03,-0.05 -0.03,-0.07l-0.08 -0.13c-0.75,0.17 -1.42,1.54 -4.03,1.53 -2.06,-0 -2.4,0 -4.1,-1.34 -1.05,-0.83 -2.07,-1.69 -3.02,-2.43 -1.45,-1.13 -0.48,-1.25 -1.01,-1.76 -0.13,-0.13 -0.68,-0.3 -0.91,-0.44 -0.56,-0.33 -0.41,-0.51 -0.86,-0.42 -0.4,1.16 -0.11,6.45 -0.18,8.16 -0.07,1.83 0.94,5.33 1.71,6.94 0.47,0.97 0.95,2.09 1.4,2.88 0.56,0.98 1.86,3.18 2.95,3.43 1.07,0.24 2.58,-0.21 3.44,-0.75 0.27,-0.17 1.1,-0.65 1.26,-0.86z"/>
   <path class="fil2" d="M24.19 22.56c0.05,-0.39 0.21,-0.46 0.49,-0.75 0.54,-0.55 0.86,-1.03 1.34,-1.59 0.22,-0.26 0.1,-0.22 0.4,-0.3 -0.13,0.57 -1,1.63 -1.47,2.08 -0.26,0.25 -0.37,0.47 -0.75,0.56zm5.92 -6.82c0.1,0.33 0.69,0.57 0.24,1.28 -0.1,-0.13 -0.06,0.15 -0.12,-0.27 -0.02,-0.13 0.02,-0.24 -0.02,-0.39 -0.05,-0.21 -0.47,-0.56 -0.86,-0.19 -0.2,0.19 -0.02,0.16 -0.37,0.36 0.02,-0.64 0.94,-1.32 1.48,-1.04 -0.15,0.3 0.07,0.04 -0.35,0.25zm-15.83 -10.41c-0.08,0.3 -0.7,0.83 -1.18,2.06 -0.39,1.01 -0.4,1.53 -0.63,2.65 -0.03,0.58 -0.03,0.21 0.11,0.35 0.4,-0.62 1.6,-0.88 2.55,-0.65 0.35,0.08 0.88,0.3 1.3,0.37 0.89,0.16 0.78,-0.02 0.97,0.84l2.28 -0 0.06 -0.55c0.05,0.02 0.05,0.03 0.05,0.06l0.23 0.39c0.14,-0.7 0.47,-0.81 1.11,-0.97 0.9,-0.22 2.23,-0.78 3.19,-0.36 0.19,0.08 0.92,0.73 1.01,0.94 -0.41,0.15 -1.01,-0.08 -1.52,-0.1 -0.68,-0.02 -0.96,0.17 -1.51,0.25l-0.59 0.15c0.21,0.2 0.77,0.09 1.06,0.05 0.54,-0.08 3.07,-0.14 3.34,-0.06 0.1,0.52 0.11,0.7 0.04,1.22 -0.27,0.12 -0.19,-0.05 -0.52,0.22 -0.16,0.13 -0.01,0.04 -0.24,0.18 -0.2,0.12 -0.11,-0.06 -0.26,0.18 -0.35,0.55 0.51,0.48 0.83,0.6 -0.09,0.21 0.05,0.03 -0.17,0.13l-0.33 0.12c0.24,0.16 1.11,0.55 0.94,0.99 -0.24,-0.11 -1.12,-1.33 -1.77,-1.32 -0.37,0.71 -0.87,1.23 -1.78,1.38 -0.6,0.1 -2.56,0.06 -3.2,-0.01 -0.39,-0.49 -0.03,-0.45 -0.86,-0.56 -0.09,-0.91 -0.02,-0.45 -0.73,-0.69l-0.09 -0.43c-0.04,-0.21 -0.01,-0.17 -0.12,-0.35 -1.09,-0.07 -2.4,2.76 -2.6,3.68 -0.06,0.29 -0.25,1.6 0.15,1.8 0.81,0.25 1.36,0.02 2.02,-0.23 0.31,-0.12 0.65,-0.15 0.95,-0.23 1.01,-0.27 1.39,0.66 -0.36,1.4 -0.46,0.19 -1.15,0.45 -1.68,0.11 -0.29,-0.18 -0.06,-0 -0.23,-0.19 -2.1,-0.5 -1.02,-3.1 -0.44,-4.42l-2.33 0.15c-0.6,-0.04 -0.16,-0.11 -0.63,-0.28 -0.05,0.82 -0.22,1.55 -0.29,2.46 -0.03,0.4 0.05,1.06 -0.01,1.32 -0.1,0.48 -0.43,0.48 -0.34,1.11 0.55,1.35 6.92,0.24 8.66,0.23 1.15,-0 1.94,0.02 2.77,-0.49 -0.05,-0.04 -0.04,-0.04 -0.16,-0.09 -0.44,-0.18 -2.29,-0.57 -2.54,-1.42 0.16,0.03 1.33,0.7 2.04,0.98 0.87,0.34 1.82,0.11 1.87,1.28 -1.84,1.21 -0.83,1.28 -3.82,1.28 -0.83,-0 -1.69,-0.02 -2.52,-0.01 -0.59,0.01 -0.91,0.24 -2.35,0.15 -0.24,-0.35 -0.25,-0.72 -0.42,-0.97 -0.11,0.21 0.13,0.36 0.06,0.88 -0.34,0.22 -0.38,0.11 -0.59,0.46 0.49,0.24 0.68,0.31 0.87,0.89l0.71 0.04c0.32,0.66 0.48,1.75 0.83,2.36 0.34,0.58 1.19,1.22 1.72,1.54l0.09 -0.24c0.02,-0.07 0.02,-0.15 0.04,-0.17 0.08,-0.86 0.37,-1.13 0.94,-1.43 0.06,-0.93 0.05,-1.34 0.57,-1.87 0.34,-0.34 1.17,-0.79 1.73,-0.23 0.65,0.65 -0.4,2.88 0.6,4.09 1.1,-0.16 3.4,-2.06 4.19,-2.95 0.61,-0.68 1.04,-1.07 1.56,-2.04 0.83,-1.58 0.46,-1.43 0.39,-2.01 -0.03,-0.27 -0.01,-0.56 -0.02,-0.84 -0.44,-0.06 -0.78,-0.14 -0.99,-0.41 0.19,-0.11 1.25,0.32 2.15,-0.17 2.57,-1.39 0.63,-4.4 -0.38,-3.4 -0.4,0.4 -0.23,0.29 -0.69,0.39 -0.02,0 -0.06,0.04 -0.07,0.02 -0.05,-0.09 -0.34,0.37 -0.56,0.54 -0.33,0.25 -0.45,0.28 -0.73,0.29 -1.14,-1.27 0.21,-4.49 -0.39,-5.24 -1.24,-1.54 -1.13,-3.31 -1.93,-3.94 -0.52,-0.42 -3.53,0.35 -5.48,-0.31 -0.96,-0.33 -1.2,-0.48 -1.97,-0.97 -1.31,-0.83 -0.65,-0.52 -2.23,-0.56l-0.08 -0.22c-0.73,0.02 -1.15,0.6 -1.64,0.83z"/>
   <path class="fil3" d="M30.19 64.27c-1.01,-1.37 -0.83,-1.7 -1.6,-3.19 -0.22,-0.42 -0.36,-0.7 -0.6,-1.07 -0.24,-0.37 -0.48,-0.59 -0.74,-0.94 -1.09,-1.46 -0.78,-1.32 -1.3,-2.04 -0.6,-0.06 -0.66,0.2 -1.22,0.23 -1.45,0.08 -2.63,0.06 -3.87,-0.62 -0.52,0.76 -2.64,1.61 -3.49,1.9 -0.34,0.12 -0.62,0.25 -0.99,0.36 -0.68,0.19 -2.66,0.71 -2.79,1.2 0.25,0.26 0.55,0.22 0.91,0.4 0.29,0.15 0.1,-0.08 0.24,0.19 -0.43,0.39 -0.44,-0.01 -0.97,0.2 0.19,0.62 0.98,0.45 1.43,0.94 0.11,0.35 0.12,3.21 0.16,3.9 0.14,2.26 0.66,2.68 0.63,3.37 -0.46,0.27 -1,0.59 -1.45,1 0.75,-0.06 1.05,0.14 1.7,0.15 0.68,0.01 0.8,-0.33 1.14,-0.69 1.12,-1.17 -0.01,-0.76 -0.03,-2.85 0.11,0.2 0.09,0.29 0.26,0.48 -0.21,-1.58 -0.34,-2.52 -0.22,-4.16 0.14,-1.99 -0.49,-2.39 1.25,-3.22l3.23 -1.2c1.86,-0.83 1.52,-0.22 2.59,-0.18 1.41,0.05 0.84,-0.45 2.58,2.13l1.75 2.27c0.54,0.58 1.06,1.13 1.39,1.46z"/>
   <path class="fil3" d="M44.47 76.91c0.12,-0.18 0.24,-0.35 0.35,-0.48l0.04 -0.05c0.14,-0.17 0.24,-0.3 0.16,-0.88 -0.03,-0.22 -0.08,-0.49 -0.16,-0.82 -0.15,-0.42 -0.31,-0.91 -0.39,-1.44 -0.02,-0.11 -0.04,-0.22 -0.05,-0.34 -0.07,-0.28 -0.15,-0.58 -0.24,-0.9l-0.05 -0.2c-0.22,-0.84 -0.48,-1.82 -0.73,-2.78 -0.24,-0.94 -0.47,-1.82 -0.63,-2.45 -0.16,-0.64 -0.26,-1.07 -0.33,-1.4 -0.07,-0.33 -0.11,-0.59 -0.16,-0.89l-0.01 -0.04c-0.09,-0.6 -0.22,-1.4 -0.51,-2.33 -0.28,-0.9 -0.71,-1.91 -1.15,-2.94l-1.54 -2.63c-0.72,-1.26 0.06,-2.21 -3.04,-1.91 -1.48,0.14 -3.12,1.13 -4.28,1.9l-2.39 1.24c2.24,0.13 2.36,-0.46 3.51,-0.95 0.84,-0.36 0.88,-0.24 1.81,-0.39 2.03,-0.34 1.97,-0.54 4.04,2.06 1.25,1.57 1.63,2.49 2.19,4.36 0.24,0.78 0.41,0.73 0.47,1.73 0.09,1.34 0.52,2.43 0.7,3.64 0.19,1.21 0.44,2.57 0.6,3.76 0.09,0.67 0.13,1.28 0.22,1.96 0.31,2.12 0.06,1.9 -1.13,2.19 -0.45,0.11 -0.56,-0.14 -1.05,-0.13 -0.44,0.01 -0.68,0.2 -0.91,0.43 -0.65,0.65 -0,0.56 -0.54,0.96l-0.21 0.14c-0.15,0.1 -0.17,0.11 -0.31,0.19 -0.7,0.41 -1.36,0.61 -2.22,0.7 0.43,0.03 0.91,0.01 1.37,-0.06 0.55,-0.08 1.06,-0.22 1.43,-0.36 0.5,-0.19 0.74,-0.41 0.93,-0.58 0.08,-0.07 0.15,-0.13 0.23,-0.18 0.15,-0.1 0.31,-0.16 0.5,-0.17 0.18,-0.02 0.39,0 0.66,0.05 0.15,0.03 0.33,0.06 0.52,0.1 0.43,0.09 0.9,0.18 1.25,0.19 0.47,0.01 0.74,-0.13 1,-0.28z"/>
   <path class="fil3" d="M36.79 81.52c0.21,0.02 0.58,0.81 0.71,1.01 1.08,1.61 1.49,1.53 3.66,1.96 2.53,0.5 3.95,0.24 6.07,-0.48 0.23,-0.12 0.57,-0.58 0.63,-0.95 0.32,-1.8 -3.57,-5.23 -3.67,-5.64 -1.16,0.41 -2.83,-0.57 -3.47,-0.13 -0.34,0.23 -0.46,0.49 -1.23,0.79 -1.76,0.69 -3.45,0.62 -5.12,-0.24 0.06,1.39 -0.21,2.39 0.9,2.93 -0.39,-0.26 -0.54,-0.32 -0.61,-0.87 0.62,0.1 1.2,0.43 1.22,1.08 1.02,0.27 0.33,-0.11 1.29,1.73 0.35,0.67 0.76,0.96 1.52,1.28 -1.09,-0.56 -1.6,-2.17 -1.91,-2.48z"/>
   <path class="fil4" d="M32.4 12.36c-0.35,-0.17 -0.11,0.05 -0.33,-0.3l-0.5 -0.98c-0.89,-1.54 -2.69,-1.94 -2.97,-2.95 0.29,0.03 0.7,0.56 0.9,0.74 0.3,0.27 0.64,0.44 1,0.67 1.19,0.78 1.02,1.3 1.52,1.72 -0.08,-0.91 -1.36,-1.77 -1.52,-2.07 0.56,0.06 1.11,0.77 1.37,1.16 0.44,0.66 0.56,1.05 0.53,2zm-18.41 -6.97l0.25 -0.1c0.1,-0.16 0.04,-0.11 0.21,-0.24 0.18,-0.14 0.46,-0.26 0.61,-0.53l-0.33 -0.06 -0.08 -0.01c0.17,-0.2 0.02,-0.09 0.27,-0.17 0.42,-0.6 2.32,-0.32 2.99,-0.1 1.15,0.39 1.55,0.57 2.95,0.57 1.69,0 5.41,-1.14 5.95,0.15 -0.71,0 -1.2,-0.37 -2.07,-0.26 -0.01,0.27 0.03,0.23 -0.35,0.3l-1.51 0.26c-1.11,0.14 -1.03,0.53 -1.95,0.45 0.11,0.11 -0.08,0.04 0.22,0.15 0.13,0.05 0.08,0.03 0.21,0.04 1.29,0.13 2.49,0 3.77,-0.06 0.66,-0.03 1.47,0.06 2.04,0.29 0.32,0.13 0.5,0.21 0.78,0.4 0.43,0.28 0.47,0.3 0.56,0.57 -0.21,-0.1 -0.37,-0.2 -0.55,-0.28 -0.14,0.17 0.16,0.12 -0.3,0.1 -0.08,-0 -0.22,-0.06 -0.33,-0.09 -0.27,-0.08 -0.37,-0.08 -0.63,-0.18 0.14,0.32 0.41,0.53 0.58,0.96 0.14,0.35 0.26,0.75 0.41,1.1 0.2,0.48 0.98,1.54 1.5,1.55 -0.03,-0.37 -0.33,-0.61 -0.38,-0.97 0.83,0.1 1.35,1.35 1.76,1.46 0.41,0.11 0.02,-0.41 1.23,1.41 0.36,0.55 0.52,0.91 0.44,1.73l0.17 -0.42c0.05,-0.54 -0.25,-0.08 0.03,-1.02 0.2,-0.68 -0.09,-0.93 -0.02,-1.47 0.15,-1.17 -0.31,-2.12 -0.29,-2.63 0.33,0.11 0.3,0.09 0.52,0.89 0.08,-0.12 0.05,-0.02 0.08,-0.21l-0.24 -1.24c-0.22,-1.13 -0.94,-2.64 -1.69,-3.61 -0.23,-0.29 -0.64,-0.66 -0.88,-0.88 -0.15,-0.14 -0.31,-0.33 -0.47,-0.46l-1 -0.76c-2.26,-1.38 -5.11,-1.83 -7.8,-1.76 -2.01,0.06 -2.64,0.42 -4.3,0.99 -0.55,0.19 -0.95,0.67 -0.97,0.65 -0.01,-0.02 -0.04,0.03 -0.05,0.05 1.08,-0.2 1.19,-0.44 2.55,-0.44 0.76,0 2,-0.1 2.47,0.33 0.66,0.05 0.5,0.14 0.54,0.26 -0.43,0.24 -1.5,-0.14 -2.09,-0.12 -1.59,0.05 -4.16,0.75 -4.84,2.15 -0.28,-0.03 -0.1,0.02 -0.18,-0.13 -0.22,-0.06 -0.1,0.09 -0.12,-0.11l0.12 -0.45c-0.41,0.29 -0.72,0.41 -1.02,0.76 -0.27,0.33 -0.53,0.62 -0.72,0.95 -0.21,0.36 -0.79,2.31 -0.63,2.61 0.34,-0.17 -0.07,-0.29 0.42,-0.46 0.07,0.15 0.06,-0.06 0.04,0.25l0.41 -0.4c0.15,-0.14 0.34,-0.33 0.44,-0.07l1.2 -1.67z"/>
   <path class="fil5" d="M21.54 35.83c0.45,-0.09 0.3,0.09 0.86,0.42 0.23,0.14 0.78,0.3 0.91,0.44 0.52,0.51 -0.44,0.63 1.01,1.76 0.95,0.74 1.97,1.6 3.02,2.43 1.7,1.35 2.04,1.34 4.1,1.34 2.61,0 3.28,-1.36 4.03,-1.53l0.08 0.13c0.01,0.02 0.02,0.05 0.03,0.07l0.13 0.37c0.12,0.36 0.14,0.14 0.09,0.59 -0.21,1.75 0.83,1.31 -1.22,2.14l-2.71 1.33c-0.89,0.57 -1.08,0.27 -1.22,0.92 0.48,-0.05 1.04,-0.37 1.44,-0.59 0.77,-0.42 2.67,-1.34 3.3,-1.5 0.57,1.07 -0.64,1.31 -1.32,1.72 -0.7,0.42 -0.92,0.56 -1.66,0.86l-0.55 0.28c0.28,0.01 0.46,-0.03 0.65,0.09 -0.27,0.27 -0.64,0.29 -1.01,0.04 -0.54,-0.37 -0.5,-0.57 -0.72,-0.67 -0.08,0.23 0.62,1.67 2.27,0.72 0.77,-0.44 1.7,-1.01 2.52,-1.35 1.62,-0.67 1.39,-0.44 2.2,0.82 0.62,0.97 2.33,4.32 2.37,5.47 0.03,0.87 -0.02,0.95 -0.66,1.33 -0.7,0.41 -0.87,0.31 -1.69,0.25 -0.76,-0.06 -2.67,-0.11 -3.38,0.22 -1.04,0.49 -1.59,1.04 -2.29,1.71 0.95,-0.31 1.87,-1.09 2.96,-1.38 0.81,-0.21 2.9,-0.42 3.7,0.06 -0.13,0.11 -0.15,0.24 -0.16,0.27 0.84,-0.06 1.38,-0.09 2.03,-0.47 0.4,-0.23 1.16,-0.68 1.33,-1.11 0.34,-0.83 -0.47,-3.36 -0.74,-4.11 -0.47,-1.29 -0.94,-2.32 -1.63,-3.32 -0.37,-0.55 -0.79,-0.95 -0.52,-1.57 0.06,-0.84 -0.25,-1.35 -0.4,-2.17 -0.17,-1.04 -0.1,-2.16 -0.21,-3.24 -0.03,-0.27 -0.06,-0.55 -0.08,-0.82 -0.02,-0.25 -0.04,-0.5 -0.07,-0.75 -0.09,-0.83 -0.21,-1.62 -0.38,-2.43 -0.12,-0.56 -0.4,-1.52 -0.43,-2.06 -0.01,0.02 -0.02,0.03 -0.02,0.06l-0.92 2.71c-0.3,0.9 -0.85,1.71 -1.29,2.4l-1.12 1.64c-0.93,0.93 -2.05,1.33 -3.38,1.3 -1.77,-0.03 -2.33,-0.48 -3.35,-1.24 -0.56,-0.42 -0.79,-0.36 -1.62,-1.15 -0.3,-0.29 -0.7,-0.56 -0.97,-0.87l-1.59 -2.1c-0.26,-0.39 -0.54,-0.86 -0.77,-1.12 -0.25,0.28 -0.26,0.46 -0.41,0.82 -0.22,0.55 -0.33,0.48 -0.52,0.89z"/>
   <path class="fil1" d="M28.17 36.38c-0.02,0.02 -0.05,0.02 -0.05,0.05 -0.01,0.03 -0.04,0.04 -0.05,0.05 -0.19,0.19 -0.7,0.74 -0.67,0.97 0.29,0.55 1.44,0.99 2.14,1.09 1.42,0.2 2.81,-0.28 3.68,-1.16 0.57,-0.57 1.42,-2.32 1.47,-3.45 0.07,-1.93 0.75,-4.01 0.33,-5.85 -0.12,-0.52 -0.65,-1.94 -0.94,-2.33 -0.23,-0.32 -0.56,-0.44 -0.94,-0.65 -0.81,-0.44 -0.3,-0.24 -1.21,-0.29 0.01,-0.36 0.22,-0.25 0.46,-0.52l-0.92 -0.78c-0.3,-0.25 -0.59,-0.64 -1.14,-0.53l-0.16 1.2 -1.29 -0.05c0.26,0.4 0.48,0.67 0.43,1.23 -0.58,0.4 -0.66,0.18 -1.23,0.45 -0.27,0.13 -1.54,1.93 -1.93,2.34 -0.15,0.16 -0.08,0.07 -0.24,0.17 -0.36,0.24 -0.13,-0.03 -0.27,0.26 0.48,0.42 1.38,0.67 2.11,0.54 0.3,-0.52 0.34,-1.19 0.65,-1.82 0.19,-0.38 0.94,-1.16 1.32,-1.26 -0.2,0.49 -0.56,0.41 -1.01,1.41 -0.14,0.31 -0.63,1.41 -0.59,1.67 0.39,-0.21 0.33,-0.34 0.84,-0.51 0.34,-0.11 0.77,-0.25 1.15,-0.36 0.56,-0.18 2.12,-0.63 2.21,0.22 -0.31,-0.01 -0.37,-0.18 -0.8,-0.18 -0.75,-0.02 -2.09,0.61 -2.73,0.64 0.07,0.24 0.42,0.1 1.15,-0.08 1.4,-0.35 3.69,0.2 3.88,0.67 -0.23,0.14 -1.8,-0.33 -2.13,-0.34 -0.37,-0.02 -2.27,-0.06 -2.61,0.18 0.62,0.35 0.72,0.1 1.23,0.29l1.85 1.16c0.26,0.15 0.83,0.39 0.9,0.6 -0.98,-0.14 -1.6,-0.78 -2.31,-1.1 -1.1,-0.51 -1.52,-0.64 -2.68,-0.87 0.12,0.77 1.52,0.43 1.54,3.45 0,0.58 -0.26,1.55 -0.5,2.04l-0.69 1.15c-0.16,0.25 -0.17,0.09 -0.26,0.34z"/>
   <path class="fil1" d="M2.28 38c0.96,0.57 2.8,0.99 4.08,0.72l5.52 -1.77c0.61,-0.3 1.16,-0.57 1.99,-0.44 -0.23,-0.19 -0.09,-0.02 -0.3,-0.12 -0.49,-0.22 0.05,-0.05 -0.52,-0.44 -0.24,-0.17 -0.14,0.1 -0.24,-0.25 0.64,-0.28 0.66,0.53 1.13,0.36l0.17 -2.98c-0.94,-0.27 -1.08,0.38 -1.78,0.64 -0.31,0.12 -0.54,0.04 -0.75,0.16 -0.28,0.41 0.2,1.06 -0.36,1.42 -0.26,-0.33 0.23,-0.79 -0.08,-1.38 -0.28,0.14 -0.11,-0.13 -0.33,0.76 -0.18,0.76 -1.04,1.59 -1.65,1.72 0.1,-0.3 0.71,-0.73 0.98,-1.04 0.34,-0.39 0.52,-0.83 0.39,-1.57 -0.19,0.03 -1.16,0.51 -1.37,0.61 -0.8,0.38 -2.42,0.79 -3.44,0.69 -0.91,-0.09 -0.94,-0.23 -0.95,-1.16 -0.02,-1.24 0.54,-2.3 0.99,-3.2 0.62,-1.23 1.63,-1.45 1.83,-1.77l0.19 -0.48c-0.34,0.06 -0.38,0.14 -0.74,0.2l-1.9 0.44c-1.19,0.27 -2.54,1.41 -3.26,2.36 -0.37,0.6 -0.75,1.18 -1.12,1.77 -0.9,1.46 -0.34,2.31 0.44,3.64 0.31,0.52 0.59,0.78 1.08,1.12z"/>
   <path class="fil5" d="M1.45 74.09c0.02,0.1 0.08,0.2 0.24,0.3 0.16,0.1 0.67,0.18 0.9,0.27 1.46,0.55 5.54,0.41 6.74,0.15 0.45,-0.1 0.65,-0.02 1.11,-0.15l5.22 -0.82c0.65,-0.06 0.98,-0.11 1.17,-0.44 0.25,-0.43 0.33,-0.92 0.27,-1.73 -0.02,-0.31 -0.09,-0.57 -0.16,-0.82l-0.15 -0.31c-0.25,-0.04 -0.36,0 -0.62,-0.05 -0.44,-0.08 -0.7,-0.26 -1.57,-0.1 -2.06,0.37 -2.1,0.05 -4.07,-0.55 -0.45,-0.14 -1.31,-0.61 -1.77,-0.43 0.26,0.37 0.68,0.24 0.99,0.59 -0.03,0.03 -0.03,0.21 -0.57,0.02 -1.08,-0.37 -0.7,-0.63 -1.45,-0.05 -0.31,0.24 -1.14,0.6 -1.66,0.79l-0.01 0.01 -0.09 0.03c-0.05,0.02 -0.1,0.04 -0.14,0.05l-0.01 -0.01c-0.45,0.13 -0.91,0.28 -1.46,0.51 -0.65,0.28 -1.43,0.67 -1.91,1.02 -0.49,0.35 -0.69,0.65 -0.81,0.96 -0.1,0.25 -0.16,0.51 -0.2,0.76z"/>
   <path class="fil3" d="M29.68 19.96c0.22,0.05 0.36,0.05 0.31,0.45 -0.02,0.19 -0.15,0.33 -0.22,0.44 -0.21,0.29 -0.44,0.54 -0.55,0.95 0.37,0.19 -0.78,1.4 -0.85,1.8 2.02,0.69 1.37,-0.38 1.85,-1.85 0.11,-0.34 0.18,-0.46 0.47,-0.46 0.1,0.27 -0.11,0.39 -0.2,0.71 -0.08,0.3 -0.09,0.66 -0.16,0.98 0.55,-0.11 0.84,0.28 1.14,0.53l0.92 0.78c-0.24,0.27 -0.45,0.16 -0.46,0.52 0.9,0.05 0.4,-0.15 1.21,0.29 0.38,0.21 0.71,0.33 0.94,0.65 0.29,0.39 0.82,1.81 0.94,2.33 0.41,1.84 -0.26,3.92 -0.33,5.85 -0.04,1.13 -0.9,2.88 -1.47,3.45 -0.88,0.88 -2.27,1.36 -3.68,1.16 -0.7,-0.1 -1.85,-0.53 -2.14,-1.09 -0.03,-0.23 0.48,-0.77 0.67,-0.97 0.01,-0.01 0.04,-0.02 0.05,-0.05 0.01,-0.03 0.04,-0.03 0.05,-0.05 -0.84,0.24 -1.72,0.82 -2.95,0.17 -0.44,-0.23 -0.31,-0.35 -0.81,-0.5 0.37,1.35 1.57,1.64 1.96,2.1 0.24,0.28 0.18,0.21 0.49,0.43 0.22,0.16 0.38,0.27 0.58,0.43 0.2,0.16 0.34,0.31 0.55,0.45 1.26,0.82 2.37,1.08 4.02,0.75 1.84,-0.37 3.04,-2.52 3.88,-4.1 0.31,-0.58 0.58,-1.45 0.8,-2.14 0.07,-0.23 0.21,-0.51 0.29,-0.72 0.6,-1.7 0.38,-4.25 -0.25,-6.02 -0.24,-0.67 -0.14,-0.62 -0.04,-0.76 -0.12,-0.52 -0.31,-0.91 -0.53,-1.27 -0.3,-0.5 -0.46,-0.52 -0.83,-0.85 -0.28,-0.25 -0.49,-0.6 -0.78,-0.9 -1.04,-1.05 -2.01,-1.16 -2.93,-2.1 -0.46,-0.47 -0.67,-0.16 -0.98,-0.7 -0.39,-0.68 -0.64,-0.8 -0.61,-1.14l-0.34 0.45z"/>
   <path class="fil2" d="M10.57 30.3l0.08 0.99c-0.25,-0.13 -0.06,0.08 -0.23,-0.18 -0.06,-0.09 -0.09,-0.27 -0.09,-0.37 0,-0.21 0.04,-0.37 0.23,-0.44zm0.42 -0.52c-0.29,-0.08 -0.27,0.05 -0.27,-0.38 0,-0.72 0.22,-1.2 0.75,-1.34 -0.14,0.63 -0.48,0.18 -0.48,1.72zm-1.24 -1.47l-0.36 0.44c-0.63,0.57 -0.91,0.21 -1.77,1 -0.44,0.4 -1.35,1.54 -1.18,2.43l-0.02 0.6c0.59,0.03 0.51,0.56 1.45,0.53 0.92,-0.03 0.52,-0.69 1.24,-0.55 0.32,0.06 0.09,-0.03 0.25,0.12l0.43 0.16c0.55,0.1 1.27,0.07 1.69,-0.19 0.28,-0.18 0.91,-0.83 1.34,-0.4 0.63,-0.01 1.01,0.26 1.73,0.13 0.62,-0.11 1.07,-0.28 1.04,-0.99 -0.2,-0.76 -2.64,-1.04 -2.78,-1.67 0.56,0.18 1.26,0.46 1.81,0.7 1.48,0.65 0.99,0.69 1.84,0.54 0.01,-0.01 0.02,-0.05 0.03,-0.04 0,0.01 0.02,-0.03 0.03,-0.04 0.24,-0.26 0.53,-0.38 0.43,-1.17 -0.2,-1.54 -2.75,-1.17 -2.7,-2.68 0.65,-0.01 1.28,0.08 1.75,-0.25 1.15,-0.82 0.25,-2.44 -1.09,-1.76 -0.68,0.34 -0.37,0.93 -0.48,1.37 -0,0.01 -0.01,0.04 -0.02,0.05 -0.3,-0.34 -0.14,-0.65 -0.09,-1.09 -0.45,-0.03 -1.45,0.28 -1.63,0.16 0.44,-0.3 1.2,-0.3 1.71,-0.52 0.73,-0.31 0.78,-0.37 1.12,-1.16 0.72,-2.73 -0.95,-2.55 -1.11,-2.46 -0.44,0.25 -0.16,2.53 -1.84,3.89 -0.39,0.32 -0.85,0.99 -1.35,1.5 -0.43,0.45 -0.95,1.09 -1.47,1.34z"/>
   <path class="fil2" d="M19.57 26.22c0.17,0.04 0.37,1.22 2,1.25l-0.28 0.66c-0.43,-0.14 -0.14,-0.3 -0.5,-0.47 -0.12,0.2 -0.08,0.37 -0.07,0.66l0.41 0.17c-0.22,0.29 -1.14,0.39 -1.83,0.94 -0.54,0.43 -0.85,1.26 -0.18,1.81 0.76,0.27 0.02,0.24 1.85,-0.3 0.58,-0.17 1.68,-0.62 1.83,-0.35 -0.17,0.23 -1.98,0.61 -2.3,0.82 -0.17,0.15 0.2,0 -0.23,0.18 0.62,0.72 0.54,0.58 2.03,0.62 0.25,0.01 0.56,0.01 0.78,0.16l0.26 -0.01c0.57,0.12 0.18,0.9 1.74,1.09 0.41,0.05 0.95,0.05 1.28,-0.06 0.66,-0.22 0.27,-0.53 0.98,-0.28l-0.05 -0.84c0.06,-0.59 -0.22,-1.39 -0.54,-1.78 -0.17,-0.21 -0.43,-0.43 -0.57,-0.6 -0.17,-0.21 -0.37,-0.43 -0.53,-0.64l-2.2 -2.46c-0.41,-0.26 -1.25,-0.93 -1.56,-1 -0.02,0.53 0.12,0.9 -0.32,1.07 -0.02,-0.47 0.2,-0.49 0.04,-1.22 -0.33,-1.49 -2.21,-1.28 -2.03,0.58z"/>
   <path class="fil6" d="M20.98 44.9c-0.19,0.4 -2.72,2.27 -3.23,2.37 0.06,-0.38 -0.01,-0.19 0.37,-0.41 0.14,-0.08 0.26,-0.18 0.4,-0.27 0.6,-0.38 1.84,-1.61 2.46,-1.7zm-2.86 -4.46c-0.01,-0.35 0.94,-1.08 1.21,-1.33 0.37,-0.33 1,-1.06 1.43,-1.21 -0.18,0.59 -0.96,1.03 -1.32,1.41 -0.27,0.27 -1.06,1.07 -1.32,1.14zm2.55 -2.76c-0.15,0.06 -0.09,0.02 -0.22,0.12 -0,0 -0.15,0.15 -0.17,0.17 -0.12,0.13 -0.17,0.17 -0.3,0.29 -0.23,0.21 -0.39,0.34 -0.62,0.55 -0.19,0.17 -0.41,0.39 -0.6,0.58 -0.34,0.34 -0.34,0.43 -0.68,0.52 0.05,-0.57 1.46,-1.58 1.89,-1.99 0.26,-0.25 0.39,-0.46 0.74,-0.55l-0.04 0.32zm-2.59 0.54c0.15,-0.39 1.49,-1.56 1.86,-1.93 0.52,-0.51 0.28,-0.42 0.72,-0.56 -0.15,0.46 -1.44,1.57 -1.89,2 -0.25,0.24 -0.34,0.46 -0.69,0.49zm0.14 -0.63c0.14,-0.33 0.84,-0.96 1.15,-1.21 0.24,-0.2 0.36,-0.32 0.61,-0.56 0.31,-0.29 0.31,-0.39 0.67,-0.5 -0.06,0.46 0.02,0.2 -0.54,0.71l-1.17 1.09c-0.23,0.2 -0.33,0.4 -0.72,0.47zm0.09 -1.22c0.07,-0.41 1.9,-2.15 2.32,-2.29 -0.13,0.37 -0.79,0.91 -1.11,1.21 -0.35,0.32 -0.85,0.93 -1.21,1.08zm0.05 -0.53c0.04,-0.33 0.21,-0.46 0.44,-0.69l1.19 -1.16c0.17,-0.2 0.36,-0.46 0.66,-0.45 -0.03,0.25 -0.8,0.94 -1.08,1.2 -0.47,0.45 -0.9,1.06 -1.21,1.09zm1.23 -2.19c-0.17,0.17 -0.95,1.11 -1.14,1.19 -0.06,-0.72 0.28,-0.94 0.64,-1.33 0.44,-0.49 0.6,-0.89 1,-0.8l0.18 0.22c-0.12,0.33 -0.1,0.15 -0.29,0.39 -0.18,0.23 -0.05,0.2 -0.4,0.33zm-0.49 -2.42l0.03 0.25 -0.22 0c0.05,0.06 -0.01,0.06 0.17,0.18 -0.07,0.2 -0.18,0.4 -0.45,0.54 0.06,-0.96 0.01,-0.81 0.21,-0.76 -0.01,-0.02 -0.04,-0.04 -0.05,-0.05 -0.01,-0.01 -0.03,-0.03 -0.05,-0.05 -0.21,-0.26 -0.14,-0.46 -0.27,-0.66l-0.75 8.69 -0.31 8.97c-0.1,0.27 0.16,0.16 -0.34,0.17 0.29,0.35 0.64,-0.31 0.93,0.26 0.2,0.4 -0.03,0.12 0.13,0.3 0.01,-0.37 0.46,-0.56 0.69,-0.75 0.3,-0.25 0.54,-0.44 0.84,-0.67 0.4,-0.3 1.3,-1.15 1.7,-1.21l-0.08 -0.12c-0.44,-0.68 -0.03,-0.72 -0.32,-1.44 -0.07,-0.13 0.23,-0.19 -0.15,-0.14 -0.74,0.37 -2.57,2.11 -3.13,2.15 0.04,-0.4 0.3,-0.5 0.65,-0.74l2.55 -1.75 0.01 0.21c0.01,-0.02 0.03,-0.07 0.03,-0.06 0,0.01 0.16,-0.3 0.1,-0.61 -0.07,-0.39 -0.09,-0.4 -0.1,-0.87 -0.37,0.29 -2.82,2.16 -3.15,2.22 0.09,-0.41 0.86,-0.83 1.42,-1.24l1.49 -1.14 -0.13 -0.06c-0.02,0.01 -0.05,0.03 -0.06,0.04 -0.62,0.42 -2.26,1.86 -2.72,1.9 0.02,-0.42 0.34,-0.48 0.68,-0.72l2.4 -1.83c0.13,0.13 0.12,-0.21 0.09,0.26l0.09 -0.22c0.02,-0.16 0.01,-0.06 -0,-0.25 -0.01,-0.16 -0.04,-0.31 -0.05,-0.51 -0.01,-0.35 0,-0.71 0.04,-1.05l-0.83 0.64c-0.67,0.49 -1.99,1.76 -2.28,1.84 0.05,-0.45 0.75,-0.78 1.24,-1.28l0.45 -0.44 -0.05 -0.06c-0.29,0.13 -0.56,0.43 -0.81,0.67 -0.4,0.37 -0.42,0.49 -0.8,0.64 0.05,-0.43 0.38,-0.61 0.67,-0.85l1.91 -1.7c0.2,-0.18 0.17,-0.19 0.45,-0.24 -0.04,-0.32 -0.13,-0.88 -0.12,-1.18 0.01,-0.22 0.08,-0.35 0.02,-0.55 -0.09,-0.32 -0.1,-0.09 -0.22,-0.31 0.28,-0.03 0.02,0.02 0.16,-0.15l-0.18 -1.08c0.16,-0.07 0.1,-0.06 0.28,-0.01l-0.09 -3.38 0.21 -0.03c-0.08,-0.19 -0.08,-0.08 -0.03,-0.28 -0.73,-0.08 -1.23,-0.44 -1.27,-1.09 0.3,-0.16 0.37,-0.21 0.72,-0.27 0.32,-0.22 2.13,-0.59 2.3,-0.82 -0.15,-0.27 -1.25,0.18 -1.83,0.35 -1.83,0.54 -1.09,0.57 -1.85,0.3z"/>
   <path class="fil7" d="M13.19 50.59c0.49,0.02 1.44,-0.86 1.93,-1.1 0.52,-0.25 0.82,-0.12 1.25,-0.85 0.24,-0.41 0.09,-0.39 -0.05,-0.75 -0.33,-0.85 0.18,-1.18 0.33,-1.73 0.37,-1.33 0.01,-4.5 0.03,-6.1 0,-0.42 0.06,-1.14 -0.07,-1.53 -0.15,-0.46 -0.07,-0.26 -0.27,-0.3 -0,0 -0.23,1.97 -0.68,3.16 -1,2.67 -2.68,6.53 -2.47,9.21z"/>
   <path class="fil8" d="M32.28 13.81c0.08,-0.83 -0.08,-1.19 -0.44,-1.73 -1.21,-1.82 -0.82,-1.29 -1.23,-1.41 -0.41,-0.11 -0.93,-1.36 -1.76,-1.46 0.06,0.36 0.36,0.59 0.38,0.97 -0.52,-0 -1.31,-1.07 -1.5,-1.55 -0.15,-0.36 -0.26,-0.75 -0.41,-1.1 -0.17,-0.42 -0.44,-0.64 -0.58,-0.96 -0.39,0 -0.21,-0.14 -0.75,-0.13 0.07,0.28 0.27,0.48 0.43,0.82 0.53,1.11 0.6,1.93 1.04,2.65 0.58,0.96 2.02,0.98 2.63,2.19 -0.37,-0.05 -0.56,-0.48 -0.94,-0.69 -0.28,-0.15 -0.83,-0.45 -1.15,-0.5 -0.03,1.02 -0.52,3.82 0.11,4.44l0.24 -0.42c0.2,0.09 0.08,0.23 0.34,0.31 0.19,-0.27 0.36,-0.46 0.48,-0.8 0.46,0.05 0.43,0.22 0.76,-0.15 0.14,-0.16 0.28,-0.4 0.44,-0.55 0.23,0.28 -0.01,0.17 0.32,0.33 0.22,0.1 0.23,0.02 0.48,0.19 0.3,0.21 0.38,0.55 0.63,0.71 0.38,-0.38 0.27,-0.8 0.5,-1.17z"/>
   <path class="fil9" d="M14.26 34.85c0,2.9 -0.16,6.4 -0.48,9.31 -0.04,0.41 -0.19,0.9 0.03,1.17 0.19,-0.16 1.47,-3.61 1.59,-4.11 0.07,-0.29 0.06,-0.52 0.11,-0.8 0.05,-0.29 0.15,-0.5 0.19,-0.81l0.25 -1.6c0.09,-0.7 0.14,-1.05 0.06,-1.74 -0.09,-0.8 0.12,-3.11 -0.28,-3.6 -0.11,-0.01 -1.2,0.23 -1.3,0.54 -0.03,0.08 -0.19,1.52 -0.19,1.65z"/>
   <path class="fil10" d="M17.09 48.52c0.5,-0.01 0.24,0.1 0.34,-0.17l0.31 -8.97 0.75 -8.69c-0.1,-0.87 0.22,-0.92 0.33,-1.47 0.16,-0.8 -0.25,-1.04 -0.18,-1.59 -0.02,-0.02 -0.09,-0.07 -0.1,-0.08l-0.11 -0.08c-1,1.28 -0.37,1.41 -0.71,3.72 -0.07,0.5 -0.04,1 -0.12,1.5 -0.23,1.47 -1.21,3.7 -0.93,5.12 0.22,1.14 0.26,1.55 0.26,2.84 -0,0.96 0.16,1.15 0.15,2.93 -0.01,1.13 0.12,1.88 -0.21,2.87 -0.44,1.32 -0.58,0.93 0.23,2.08z"/>
   <path class="fil11" d="M23.16 34.05c0.11,0.39 0.71,0.87 1.01,1.18 0.44,0.46 0.66,0.78 1.44,0.91 0.45,0.08 1.68,0.04 2.11,-0.08 0.77,-0.21 2.32,-2.98 1.34,-5.05 -0.42,-0.88 -1.74,-1.71 -2.9,-1.71 0.33,0.96 1.1,-0.1 2.36,1.59 0.63,0.84 0.23,2.42 -0.2,3.19 -0.53,0.96 -0.97,1.71 -2.46,1.24 -0.83,-0.26 -1.2,-1.12 -2.7,-1.27z"/>
   <path class="fil9" d="M16.56 31.24c-0.54,0.81 -0.45,0.19 -0.35,2.36 0.02,0.41 0.04,2.3 0.13,2.5 0.31,-0.2 0.96,-3.27 1.05,-3.97l0.17 -2.3c0.01,-0.36 0.05,-0.88 -0.03,-1.22 -0.11,-0.45 -0.17,-0.44 -0.21,-1.09 -0.37,-0.12 -1.42,0.53 -1.52,0.8 0.57,0.38 1.22,0.62 1.46,1.19 0.26,0.62 0.04,1.9 -0.69,1.73z"/>
   <path class="fil9" d="M28.96 25.18c0.01,-0.34 -0.13,-0.42 -0.28,-0.64 -0.17,-0.27 -0.19,-0.5 -0.43,-0.71 -0.42,0.13 -0.68,0.64 -0.96,0.92l-1.85 1.93c-0.54,0.61 -0.89,0.75 -0.67,1.15 0.76,1.41 2.69,-1.93 2.85,-2.08 0.35,-0.33 0.98,-0.37 1.34,-0.58z"/>
   <path class="fil12" d="M18.52 49.37c0.1,-0.27 0.37,-0.56 0.62,-0.73 0.29,-0.2 0.53,-0.36 0.78,-0.56 0.17,-0.13 0.21,-0.21 0.34,-0.33 0.14,-0.14 0.24,-0.17 0.38,-0.29 0.25,-0.21 0.41,-0.49 0.79,-0.54 -0.11,0.35 -0.39,0.44 -0.65,0.68l-1.47 1.22c-0.55,0.43 -0.4,0.51 -0.8,0.55zm-0.25 -0.27c0.04,0.05 0.22,0.71 0.99,0.95 0.39,0.12 1.08,-0.48 1.33,-0.63 0.46,-0.28 0.97,-0.4 1.09,-0.92 0.05,-0.24 -0.14,-1.57 -0.27,-1.75 -0.55,0.18 -1.17,0.86 -1.55,1.18 -0.27,0.23 -0.48,0.35 -0.76,0.58 -0.26,0.21 -0.54,0.46 -0.83,0.59z"/>
   <path class="fil2" d="M20.56 24.37c0.31,0.15 0.32,-0.03 0.67,0.22 0.26,0.19 0.91,1.17 1.36,1.24 0.03,-0.39 -0.05,-1.35 -0.05,-1.88 0,-0.56 0.16,-1.42 -0.29,-1.64 -0.53,-0.26 -1.06,0.19 -1.34,0.51 -0.33,0.37 -0.41,1.05 -0.35,1.56z"/>
   <path class="fil4" d="M12.47 10.04c-0.14,0.12 -0.22,-0.11 -0.1,0.4 0.03,0.12 0.11,0.16 0.2,0.27 -0.04,0.2 -0.01,0.12 -0.08,0.3 0.57,-0.17 1.74,-0.25 2.24,-0.11 0.35,0.1 0.17,0.09 0.25,0.17 0.11,-0.12 0.08,-0.02 0.2,-0.26 0.36,0.11 0.67,0.17 1.1,0.2 0.71,0.06 0.6,-0.23 1.13,-0.06 -0.19,-0.86 -0.07,-0.69 -0.97,-0.84 -0.42,-0.07 -0.95,-0.29 -1.3,-0.37 -0.95,-0.22 -2.15,0.03 -2.55,0.65 -0.14,-0.14 -0.14,0.23 -0.11,-0.35z"/>
   <path class="fil13" d="M14.93 4.28c0.85,-0.23 1.82,-0.11 2.51,0.21 0.89,0.42 1.07,0.56 2.23,0.71 1.86,0.25 3.34,-0.41 5.09,-0.56 0.87,-0.11 1.36,0.26 2.07,0.26 -0.55,-1.29 -4.26,-0.15 -5.95,-0.15 -1.41,-0 -1.8,-0.18 -2.95,-0.57 -0.66,-0.23 -2.57,-0.51 -2.99,0.1z"/>
   <path class="fil4" d="M20.02 10.85c0.53,-0.07 0.55,0.03 1.18,-0.15 0.38,-0.11 0.72,-0.26 1.09,-0.32 0.09,0.17 0.08,-0.05 0,0.24 0.55,-0.08 0.83,-0.27 1.51,-0.25 0.51,0.02 1.11,0.25 1.52,0.1 -0.09,-0.21 -0.82,-0.86 -1.01,-0.94 -0.96,-0.42 -2.29,0.14 -3.19,0.36 -0.64,0.16 -0.97,0.27 -1.11,0.97z"/>
   <path class="fil14" d="M23.33 32.36l-0.27 0.46 -0.93 0c0.22,0.55 1.85,1.4 3.01,1.33 0.91,-0.06 1.03,0.23 1.8,-0.36 0.76,-0.58 0.5,-1.35 0.35,-1.52l0.05 0.84c-0.71,-0.25 -0.32,0.06 -0.98,0.28 -0.33,0.11 -0.88,0.1 -1.28,0.06 -1.56,-0.18 -1.17,-0.97 -1.74,-1.09z"/>
   <path class="fil15" d="M5.04 33.85c0,0.62 0.06,0.61 0.64,0.69l0.11 -0.16c0.07,-0.09 0.02,-0.04 0.12,-0.14 0.1,-0.11 0.19,-0.19 0.29,-0.31 -0.57,-1.43 0.13,-3.54 1.43,-4.51 0.42,-0.31 0.96,-0.46 1.32,-0.76 -1.79,-0.03 -3.91,3.03 -3.91,5.19z"/>
   <path class="fil16" d="M23.65 26.52c0.02,0.28 0.41,0.66 0.66,0.8l2.62 -2.59c0.34,-0.36 1.74,-2.07 2.02,-2.59 0.15,-0.28 0.11,-0.29 0.26,-0.34 0.11,-0.41 0.34,-0.66 0.55,-0.95 0.08,-0.11 0.2,-0.25 0.22,-0.44 0.05,-0.4 -0.09,-0.41 -0.31,-0.45 0.13,0.32 -0.72,1.88 -0.9,2.17 -0.29,0.47 -0.97,1.28 -1.45,1.73 -1.19,1.14 -1.97,1.8 -3.68,2.65z"/>
   <path class="fil16" d="M27.98 6.75c0.18,0.09 0.34,0.19 0.55,0.28 -0.09,-0.26 -0.13,-0.29 -0.56,-0.57 -0.28,-0.19 -0.46,-0.27 -0.78,-0.4 -0.57,-0.22 -1.38,-0.32 -2.04,-0.29 -1.28,0.07 -2.49,0.2 -3.77,0.06 -0.13,-0.01 -0.09,0.01 -0.21,-0.04 -0.3,-0.11 -0.11,-0.05 -0.22,-0.15 -0.48,0.06 -1.9,-0.47 -2.12,-0.31 2.78,1.96 7.4,-0 9.16,1.4z"/>
   <path class="fil17" d="M6.27 75.68c0.7,0 5.08,-0.32 5.61,-0.92 -0.15,-0.09 -0.28,-0.05 -0.28,-0.05 -0.01,0 -0.36,0.06 -0.36,0.06 -0.63,0.14 -1.17,0.33 -1.95,0.4 -1.08,0.1 -1.88,0.04 -2.93,0.04 -1.98,0 -1.94,0.14 -3.85,-0.21l-0.79 -0.19c-0.14,-0 -0.1,-0 -0.19,0.04 0.08,0.17 0.03,0.11 0.15,0.22 0.2,0.18 0.36,0.15 0.72,0.21 1.63,0.29 2.1,0.4 3.86,0.4z"/>
   <path class="fil18" d="M15.39 17.88c0.12,0.24 0.29,0.43 0.63,0.52 1.09,0.27 1.98,-0.65 2.82,-0.64 -0.09,0.56 -2.05,0.98 -2.75,0.98 0.17,0.19 -0.05,0.01 0.23,0.19 0.54,0.33 1.23,0.08 1.68,-0.11 1.75,-0.74 1.36,-1.68 0.36,-1.4 -0.3,0.08 -0.64,0.11 -0.95,0.23 -0.66,0.25 -1.21,0.47 -2.02,0.23z"/>
   <path class="fil11" d="M17.41 27.2c0.07,0.08 0.05,0.04 0.11,0.18 0.14,0.35 0.01,0.39 0.16,0.69 0.23,-0.11 0.2,-0.2 0.37,-0.49 0.06,-0.11 0.09,-0.16 0.16,-0.25l0.25 -0.24c0.09,-0.25 0.25,-0.24 0.32,-0.45 0,-0.01 0.07,-0.22 0.08,-0.27 -0.06,-0.18 -0.15,-0.17 -0.36,-0.3 -0.78,-0.52 -1.02,-1.04 -1.32,-1.19 -0.04,0.76 0.39,1.5 0.24,2.31z"/>
   <path class="fil16" d="M15.38 1.92c-0.32,0.3 -0.57,0.3 -0.96,0.71 -0.16,0.2 -0.39,0.71 -0.59,0.79l-0.12 0.45c0.01,0.2 -0.1,0.05 0.12,0.11 0.21,-0.89 1.6,-1.6 2.52,-1.89 0.7,-0.22 1.14,-0.25 1.92,-0.34 0.84,-0.09 1.37,0.05 2.14,0.07 -0.47,-0.43 -1.72,-0.33 -2.47,-0.33 -1.36,-0 -1.46,0.24 -2.55,0.44z"/>
   <path class="fil19" d="M12.84 75.08c0.54,0.16 2.54,-0.19 3.24,-0.32 0.43,-0.08 0.63,-0.16 0.59,-0.64 -0.44,-0.02 -1.68,0.17 -2.16,0.25 -0.5,0.09 -1.59,0.16 -1.67,0.71z"/>
   <path class="fil20" d="M32.4 12.36c0.03,-0.96 -0.09,-1.35 -0.53,-2 -0.26,-0.39 -0.81,-1.1 -1.37,-1.16 0.16,0.3 1.44,1.15 1.52,2.07 -0.5,-0.42 -0.33,-0.95 -1.52,-1.72 -0.36,-0.24 -0.69,-0.41 -1,-0.67 -0.2,-0.17 -0.61,-0.71 -0.9,-0.74 0.28,1.01 2.08,1.41 2.97,2.95l0.5 0.98c0.21,0.35 -0.02,0.13 0.33,0.3z"/>
   <path class="fil14" d="M9.36 32.88c-0.16,-0.16 0.07,-0.06 -0.25,-0.12 -0.72,-0.14 -0.33,0.53 -1.24,0.55 -0.95,0.03 -0.87,-0.5 -1.45,-0.53l0.02 -0.6c-0.3,0.31 -0.11,1.31 -0.06,1.38 0.26,0.33 1.17,0.27 1.66,0.19 0.51,-0.08 1.03,-0.24 1.37,-0.49 -0.12,-0.24 -0.12,-0.16 -0.24,-0.34l0.2 -0.04z"/>
   <path class="fil21" d="M5.91 34.61c0.88,0.03 1.77,0.03 2.56,-0.23 0.38,-0.13 1.38,-0.54 1.61,-0.78 -0.31,-0.18 -1.59,0.34 -2.05,0.43 -1.13,0.21 -1.59,-0.32 -2.11,0.58z"/>
   <path class="fil15" d="M21.07 33.04l-0.21 0.03 0.09 3.38c0.11,0.2 -0.01,0.04 0.2,0.13 0.1,-0.54 0.18,-1.27 0.23,-1.88 0.05,-0.55 0.29,-1.29 0.28,-1.73l-0.59 0.06z"/>
   <path class="fil22" d="M11.93 7.53c-0.04,0.31 -0.14,0.29 -0.17,0.67 -0.06,0.8 -0.04,1.91 0.2,2.61l0.32 -1.62c0.11,-0.54 0.3,-1.13 0.37,-1.61 -0.43,0.16 -0.21,0.28 -0.63,0.45 0.07,-0.44 0.44,-0.76 0.75,-0.97 -0.1,-0.26 -0.29,-0.07 -0.44,0.07l-0.41 0.4z"/>
   <path class="fil14" d="M9.79 33.05l0.29 0.26c0.34,0.18 0.98,0.25 1.38,0.21 0.6,-0.05 1.21,-0.27 1.46,-0.68 -0.2,-0.15 -0.41,-0.17 -0.5,-0.34l0.4 -0.06c-0.43,-0.43 -1.05,0.23 -1.34,0.4 -0.42,0.26 -1.14,0.29 -1.69,0.19z"/>
   <path class="fil14" d="M21.03 32.76c0.76,-0.13 1.19,-0.38 2.03,-0.4 -0.21,-0.14 -0.52,-0.15 -0.78,-0.16 -1.49,-0.05 -1.4,0.1 -2.03,-0.62 0.43,-0.18 0.05,-0.04 0.23,-0.18 -0.35,0.05 -0.42,0.1 -0.72,0.27 0.03,0.65 0.54,1.01 1.27,1.09z"/>
   <path class="fil13" d="M21.15 20.57l1.49 0.02c0.01,-0.18 -0,-0.37 -0.03,-0.56 -0.05,-0.29 -0.02,-0.31 -0.23,-0.44l-1.31 0.01 0.09 0.97z"/>
   <polygon class="fil13" points="19.31,19.7 19.38,20.58 20.83,20.58 20.77,19.63 "/>
   <path class="fil13" d="M15.69 24.85c0.35,-0.02 0.4,-0.26 0.55,-0.56 0.08,-0.17 0.12,-0.26 0.22,-0.37l0.27 -0.25c0.01,-0.01 0.03,-0.03 0.05,-0.05 -0.13,-0.43 -0.23,-1.14 -0.82,-1.04 -0.09,0.44 0.01,0.86 -0.07,1.27 -0.08,0.37 -0.37,0.65 -0.2,1z"/>
   <path class="fil13" d="M17.55 19.89l0.16 0.84c0.42,0.05 0.94,-0.06 1.36,-0.16 0.06,-0.49 0.13,-0.8 -0.36,-0.78 -0.22,0.01 -0.95,0.05 -1.16,0.1z"/>
   <path class="fil23" d="M18.14 49.09l0.12 0.02c0.3,-0.13 0.58,-0.38 0.83,-0.59 0.28,-0.23 0.49,-0.36 0.76,-0.58 0.38,-0.32 1,-1 1.55,-1.18l-0.03 -0.3c-0.4,0.06 -1.3,0.91 -1.7,1.21 -0.31,0.23 -0.54,0.42 -0.84,0.67 -0.23,0.19 -0.69,0.38 -0.69,0.75z"/>
   <path class="fil13" d="M22.8 19.49c0.02,0.37 0.09,0.62 0.21,0.88 0.38,-0.08 0.54,-0.3 0.81,-0.5 0.37,-0.27 0.4,-0.27 0.37,-0.84 -0.4,-0.09 -1.05,0.3 -1.4,0.46z"/>
   <path class="fil13" d="M15.95 19.96l0.13 0.8c1.15,0.03 1.41,0.1 1.29,-0.51 -0.07,-0.37 -0.09,-0.49 -1.42,-0.29z"/>
   <path class="fil24" d="M20.56 42.89l0.4 -0.35c0.03,-0.47 0.03,-0.13 -0.09,-0.26l-2.4 1.83c-0.34,0.24 -0.66,0.3 -0.68,0.72 0.46,-0.03 2.1,-1.48 2.72,-1.9 0.02,-0.01 0.04,-0.03 0.06,-0.04z"/>
   <path class="fil24" d="M20.84 44.76l0.07 -0.12 -0.01 -0.21 -2.55 1.75c-0.35,0.24 -0.61,0.34 -0.65,0.74 0.56,-0.05 2.4,-1.78 3.13,-2.15z"/>
   <path class="fil25" d="M19.57 41.22c0.01,-0.01 0.02,-0.05 0.03,-0.04 0,0.01 0.02,-0.03 0.03,-0.04 0.01,-0.01 0.03,-0.03 0.03,-0.04 0.5,-0.51 1.14,-0.81 1.33,-1.38 -0.28,0.05 -0.25,0.06 -0.45,0.24l-1.91 1.7c-0.29,0.25 -0.61,0.42 -0.67,0.85 0.38,-0.15 0.4,-0.27 0.8,-0.64 0.26,-0.23 0.52,-0.54 0.81,-0.67z"/>
   <path class="fil26" d="M20.69 42.94l-1.49 1.14c-0.57,0.4 -1.33,0.83 -1.42,1.24 0.33,-0.06 2.79,-1.93 3.15,-2.22l0.02 -0.2c-0.24,0.07 -0.1,0.02 -0.27,0.04z"/>
   <path class="fil21" d="M19.6 33.65c0.05,-0.14 0.07,-0.4 0.19,-0.54 0.17,-0.2 0.3,-0.08 0.31,-0.4 -0.4,-0.08 -0.56,0.32 -1,0.8 -0.36,0.4 -0.7,0.61 -0.64,1.33 0.2,-0.08 0.97,-1.02 1.14,-1.19z"/>
   <path class="fil27" d="M20.73 49.64c-0.02,0.1 -0.04,0.12 -0.04,0.23l0.06 0.28c0.39,0.13 1.13,0.09 1.6,0.03 -0,-0.26 -0.08,-0.4 -0.23,-0.61l-1.4 0.07z"/>
   <path class="fil24" d="M20.68 37.68l0.04 -0.32c-0.35,0.1 -0.48,0.31 -0.74,0.55 -0.43,0.41 -1.84,1.42 -1.89,1.99 0.34,-0.09 0.34,-0.17 0.68,-0.52 0.19,-0.19 0.41,-0.41 0.6,-0.58 0.23,-0.21 0.39,-0.35 0.62,-0.55 0.13,-0.12 0.18,-0.16 0.3,-0.29 0.02,-0.02 0.17,-0.17 0.17,-0.17 0.13,-0.1 0.07,-0.06 0.22,-0.12z"/>
   <path class="fil26" d="M20.98 44.9c-0.61,0.09 -1.85,1.31 -2.46,1.7 -0.14,0.09 -0.26,0.19 -0.4,0.27 -0.38,0.21 -0.31,0.03 -0.37,0.41 0.51,-0.1 3.04,-1.98 3.23,-2.37z"/>
   <path class="fil28" d="M19.62 41.28l-0.45 0.44c-0.5,0.5 -1.19,0.83 -1.24,1.28 0.29,-0.07 1.62,-1.34 2.28,-1.84l0.83 -0.64 -0.16 -0.14c-0.5,0.25 -0.83,0.73 -1.26,0.9z"/>
   <path class="fil29" d="M18.77 26.65c0.42,-0.02 0.16,-0.03 0.26,0.07 -0.09,0.23 -0.1,0.12 -0.08,0.4 0.43,0.3 0.52,0.4 0.87,0.75l0.17 -0.02c-0.16,-0.25 -0.17,-0.14 -0.23,-0.46 0.21,0.08 0.16,0.03 0.37,0.24 0.21,0.21 0.18,0.11 0.09,0.43 0.25,-0.07 0.04,0.02 0.26,-0.1 -0.07,-0.55 -0.29,-0.61 -0.65,-0.88 -0.4,-0.29 -0.63,-0.52 -0.97,-0.7 -0.01,0.05 -0.08,0.26 -0.08,0.27z"/>
   <path class="fil30" d="M18.13 40.44c0.26,-0.07 1.05,-0.86 1.32,-1.14 0.36,-0.37 1.14,-0.81 1.32,-1.41 -0.43,0.15 -1.06,0.88 -1.43,1.21 -0.27,0.25 -1.22,0.98 -1.21,1.33z"/>
   <path class="fil8" d="M18.52 49.37c0.4,-0.04 0.25,-0.11 0.8,-0.55l1.47 -1.22c0.26,-0.24 0.55,-0.32 0.65,-0.68 -0.38,0.04 -0.54,0.32 -0.79,0.54 -0.14,0.12 -0.24,0.15 -0.38,0.29 -0.13,0.13 -0.17,0.2 -0.34,0.33 -0.25,0.2 -0.49,0.36 -0.78,0.56 -0.25,0.17 -0.52,0.46 -0.62,0.73z"/>
   <path class="fil31" d="M18.1 38.22c0.35,-0.03 0.44,-0.25 0.69,-0.49 0.45,-0.43 1.75,-1.54 1.89,-2 -0.44,0.15 -0.2,0.06 -0.72,0.56 -0.38,0.37 -1.71,1.54 -1.86,1.93z"/>
   <path class="fil32" d="M18.23 37.59c0.39,-0.07 0.49,-0.26 0.72,-0.47l1.17 -1.09c0.56,-0.51 0.48,-0.25 0.54,-0.71 -0.36,0.11 -0.36,0.21 -0.67,0.5 -0.25,0.24 -0.37,0.36 -0.61,0.56 -0.31,0.25 -1.01,0.88 -1.15,1.21z"/>
   <path class="fil15" d="M21.25 13.68l0.58 0.03 0.05 -0.65 0.52 -0.13c0,-0.45 0.02,-0.61 -0.44,-0.61 -0.22,0.41 0,0.41 -0.42,0.66 -0.33,0.2 -0.38,0.3 -0.29,0.7z"/>
   <path class="fil33" d="M18.37 35.84c0.31,-0.03 0.74,-0.65 1.21,-1.09 0.28,-0.27 1.05,-0.96 1.08,-1.2 -0.3,-0.01 -0.49,0.25 -0.66,0.45l-1.19 1.16c-0.23,0.23 -0.4,0.37 -0.44,0.69z"/>
   <path class="fil21" d="M28.25 32.5c0.37,-0.37 -0.03,-1.3 -0.25,-1.67 -0.16,-0.27 -0.15,-0.28 -0.45,-0.37 0.05,0.45 0.34,1.17 0.5,1.58l0.21 0.46z"/>
   <path class="fil29" d="M18.33 36.37c0.36,-0.15 0.87,-0.76 1.21,-1.08 0.32,-0.3 0.98,-0.84 1.11,-1.21 -0.42,0.15 -2.25,1.88 -2.32,2.29z"/>
   <path class="fil22" d="M12.48 11c0.05,0.16 -0.02,0.07 0.16,0.12 0.76,0 1.63,0.05 2.32,-0.06 -0.08,-0.09 0.11,-0.07 -0.25,-0.17 -0.5,-0.15 -1.67,-0.07 -2.24,0.11z"/>
   <path class="fil34" d="M19.14 28.61c0.06,0.01 0.05,0.04 0.17,-0l0.21 -0.11c0.2,0.19 0.22,0.16 0.59,0.16 -0.11,-0.26 -0.31,-0.28 -0.56,-0.46 -0.23,-0.17 -0.39,-0.32 -0.6,-0.45l0.19 0.85z"/>
   <path class="fil15" d="M13.84 13.2c0.29,0.07 0.65,0.1 0.73,-0.16 0.14,-0.46 -0.24,-0.44 -0.57,-0.38 -0.1,0.16 -0.16,0.25 -0.15,0.55z"/>
   <path class="fil35" d="M29.57 19.31c0.43,-0.14 0.63,-0.35 0.65,-0.89 -0.7,0.06 -0.64,0.2 -0.65,0.89z"/>
   <path class="fil15" d="M15.93 12.53l0.46 -0 0.04 -0.63 -0.64 -0.01c-0.02,0.29 0.05,0.46 0.14,0.64z"/>
   <path class="fil33" d="M26 35.11c0.07,0.06 -0.02,0.1 0.4,0.14 0.45,0.04 0.93,0.01 1.15,-0.39 -0.23,-0.11 -0.34,0.07 -0.68,0.14 -0.3,0.07 -0.61,0 -0.87,0.11z"/>
   <path class="fil15" d="M23.68 12.23c0.47,0.13 0.55,-0.09 0.52,-0.58l-0.56 -0.03 0.04 0.61z"/>
   <path class="fil21" d="M22.45 12.12c0.46,0.18 0.67,0.06 0.56,-0.46l-0.52 -0.03 -0.04 0.49z"/>
   <path class="fil21" d="M22.56 13.54c0.46,0.11 0.56,-0.04 0.54,-0.45l-0.55 -0.06 0 0.51z"/>
   <path class="fil21" d="M15.72 13.19l0.03 -0.62c-0.68,-0.03 -0.71,0.68 -0.03,0.62z"/>
   <path class="fil21" d="M23.47 12.94c0.19,-0.24 0.17,-0.25 0.13,-0.61 -0.6,-0.14 -0.64,0.5 -0.13,0.61z"/>
   <path class="fil36" d="M19.6 33.65c0.35,-0.14 0.22,-0.11 0.4,-0.33 0.19,-0.24 0.16,-0.06 0.29,-0.39l-0.18 -0.22c-0.01,0.33 -0.14,0.21 -0.31,0.4 -0.12,0.14 -0.15,0.4 -0.19,0.54z"/>
   <path class="fil17" d="M19.82 27.88c0.35,0.32 0.29,0.26 0.54,0.3l0.11 -0.2c-0.22,0.12 -0.01,0.03 -0.26,0.1 0.09,-0.32 0.12,-0.22 -0.09,-0.43 -0.2,-0.21 -0.15,-0.16 -0.37,-0.24 0.06,0.31 0.07,0.21 0.23,0.46l-0.17 0.02z"/>
   <path class="fil20" d="M18.92 31.49l-0.07 -0.05c-0.2,-0.05 -0.15,-0.2 -0.21,0.76 0.26,-0.14 0.38,-0.34 0.45,-0.54 -0.17,-0.12 -0.12,-0.12 -0.17,-0.18z"/>
   <path class="fil20" d="M21.38 49.36l0.62 -0.02 -0.01 -0.47c-0.3,0.03 -0.15,-0.04 -0.36,0.16 -0.14,0.13 -0.17,0.15 -0.24,0.33z"/>
   <polygon class="fil10" points="14.61,12.42 15.01,12.47 15.02,11.92 14.63,11.95 "/>
  </g>
 </g>
</svg>
