<?xml version="1.0" encoding="UTF-8"?>
<!DOCTYPE svg PUBLIC "-//W3C//DTD SVG 1.1//EN" "http://www.w3.org/Graphics/SVG/1.1/DTD/svg11.dtd">
<!-- Creator: CorelDRAW -->
<svg xmlns="http://www.w3.org/2000/svg" xml:space="preserve" width="12.7115mm" height="14.6828mm" version="1.1" style="shape-rendering:geometricPrecision; text-rendering:geometricPrecision; image-rendering:optimizeQuality; fill-rule:evenodd; clip-rule:evenodd"
viewBox="0 0 41.52 47.96"
 xmlns:xlink="http://www.w3.org/1999/xlink"
 xmlns:xodm="http://www.corel.com/coreldraw/odm/2003">
 <defs>
  <style type="text/css">
   <![CDATA[
    .fil0 {fill:#201E1E}
    .fil5 {fill:black}
    .fil3 {fill:#F80000}
    .fil4 {fill:#F9ED00}
    .fil2 {fill:#FEC876}
    .fil1 {fill:#FEFEFE}
   ]]>
  </style>
 </defs>
 <g id="Camada_x0020_1">
  <metadata id="CorelCorpID_0Corel-Layer"/>
  <g id="Figs_Desenho_SemVar_025">
   <path class="fil0" d="M28.44 29.67c-0.39,0.23 -0.85,0.32 -1.32,0.23l-0.83 0.15 0.34 -0.3c-0.01,-0.01 -0.03,-0.01 -0.04,-0.02l-0.46 -0.22c-0.26,-0.04 -0.51,-0.15 -0.72,-0.33 -0.01,-0.01 -0.01,-0.01 -0.02,-0.02l-0.06 -0.03 0.02 -0.01c-0.37,-0.36 -0.49,-0.89 -0.36,-1.37 0.13,-0.46 0.45,-0.82 0.87,-1.07l-0.09 -0.27 -0.02 0 -0.48 -1.35 0.49 -0.29c0.02,-0.01 0.04,-0.02 0.07,-0.04 -0.16,-0.19 -0.36,-0.3 -0.61,-0.37 -0.6,-0.19 -0.76,0.09 -1.25,0.34l-0.26 0.13c-0.2,0.46 -0.36,0.95 -0.42,1.36 -0.19,1.22 -0,2.08 0.26,3.26l0.01 0.06c0.21,0 0.41,0.01 0.62,0.04 1.61,0.2 2.97,1.16 3.71,2.52 0.25,0.47 0.43,0.99 0.51,1.52 0.17,1.09 0.02,2.23 -0.41,3.25 -0.09,0.21 -0.2,0.44 -0.33,0.67l0.32 0.87c0.16,0.45 0.21,1.14 0.23,1.62l0.01 0.38 -0.12 0.08 0.22 -0.05 -0.17 0.99c-0.1,0.59 -0.3,1.19 -0.53,1.74 -0.01,0.02 -0.02,0.04 -0.03,0.07 0.02,0.03 0.03,0.06 0.05,0.09 0.17,0.33 0.29,0.71 0.31,1.07l0.02 0.57 -0.59 0.13c-1.7,0.38 -3.19,0.48 -4.92,0.3 -0.46,-0.05 -1.39,-0.15 -1.76,-0.38l-1.07 -0.66 3.73 -1.73 -0.57 -1.33 -0.77 0.01 0.28 -0.16c-0.54,0.12 -1.07,0.19 -1.58,0.23 -0.77,0.05 -2.65,0.01 -3.48,-0.26 -0.22,0.35 -0.43,0.72 -0.58,1.06l0.02 0.01 -0.38 1.06 -0.11 0.44c-0.13,0.52 -0.27,1.19 -0.29,1.74 0.06,0.23 0.19,0.52 0.27,0.74 0.11,0.29 0.25,0.63 0.32,0.93l0.18 0.81 -0.87 0.02c-0.9,0.02 -1.81,0.07 -2.71,0.09 -1,0.02 -1.98,0.01 -2.98,-0.06l-0.01 -0 -1.3 -0.1 -0.01 -0c-0.3,-0.03 -0.5,-0.03 -0.76,-0.21l-1.12 -0.8 1.32 -0.4c0.15,-0.06 0.32,-0.15 0.46,-0.22 0.29,-0.14 0.58,-0.29 0.86,-0.43 0.46,-0.23 0.91,-0.47 1.37,-0.7 0,-0 0,-0 0,-0 -0.03,-0.1 -0.07,-0.2 -0.1,-0.3 -0.13,-0.4 -0.28,-0.88 -0.37,-1.33l-0.09 0.01 -0.05 -0.85 -0.06 0.01 -0.03 -0.79c-0.06,-1.68 0.26,-3.33 1.07,-4.83l0 -0 0.29 -0.51 -0 -0.01c-0.11,-0.51 -0.26,-1.03 -0.32,-1.55 -0.1,-0.81 0.01,-1.52 0.26,-2.3 0.01,-0.04 0.03,-0.09 0.04,-0.14 -0.48,0.01 -0.98,-0.04 -1.48,-0.14 -1.18,-0.25 -2.49,-0.84 -3.28,-1.73 -0.11,0.07 -0.22,0.12 -0.33,0.17l-0.52 0.24 -0.36 -0.43c-0.18,-0.21 -0.29,-0.49 -0.35,-0.75l-0.04 -0.21c-0.18,-0.25 -0.24,-0.62 -0.31,-0.91 -0.1,-0.36 -0.16,-0.75 -0.22,-1.12 -0.02,-0.12 -0.04,-0.24 -0.06,-0.36 -0.22,-0.15 -0.39,-0.39 -0.54,-0.58 -0.13,-0.16 -0.25,-0.34 -0.36,-0.51 -0.12,-0.19 -0.22,-0.38 -0.31,-0.57 -0.96,-0.12 -1.91,-0.65 -2.44,-1.41 -0.15,-0.21 -0.28,-0.44 -0.4,-0.67 -0.39,-0.76 -0.99,-2.37 -0.07,-2.99 0.56,-0.37 1.22,-0.1 1.71,0.24 0.37,0.26 0.73,0.52 1.08,0.81 0.26,0.22 0.5,0.45 0.76,0.67 0.02,-0.03 0.04,-0.06 0.07,-0.09 0.23,-0.31 0.59,-0.54 0.98,-0.67 -0.17,-0.41 -0.34,-0.82 -0.48,-1.23 -0.27,-0.77 -0.72,-2.13 -0.39,-3.05l-0.19 0.07 -0.3 -0.49c-0.31,-0.5 -0.51,-1.69 -0.57,-2.29 -0.09,-0.81 -0.09,-1.65 0.01,-2.46 0.34,-2.68 1.33,-4.49 3.04,-6.59 0.1,-0.12 0.2,-0.24 0.3,-0.35l0.01 -0.01 0.64 -0.65 0.01 -0.01c0.1,-0.09 0.22,-0.18 0.31,-0.28 0.12,-0.13 0.24,-0.21 0.36,-0.33 0.23,-0.2 0.47,-0.4 0.71,-0.58 0.23,-0.18 0.53,-0.41 0.79,-0.55 0.31,-0.23 0.65,-0.41 0.98,-0.6 0.34,-0.2 0.7,-0.36 1.05,-0.54 0.54,-0.27 1.78,-0.77 2.43,-0.88 0.94,-0.35 2.72,-0.56 3.7,-0.59 1.29,-0.03 2.59,0.05 3.84,0.4 4.34,1.19 6.84,4.88 7.94,8.84 0.27,0.97 0.43,1.85 0.44,2.74l0.3 -0.02c0.72,-0.04 2.22,0.35 2.91,0.6 1.56,0.58 3.04,1.39 4.23,2.52 1.18,1.13 2.08,2.42 2.77,3.87 1.31,2.79 1.66,5.09 1.62,8.12l-0.01 0.98 -0.97 -0.34c-0.22,-0.08 -0.35,-0.16 -0.49,-0.34l-1.62 -1.29c-1.01,-0.71 -1.91,-1.38 -3.01,-1.98 -2.02,-1.11 -4.23,-1.97 -6.52,-2.46 0.08,0.07 0.15,0.15 0.22,0.23 0.36,0.43 0.67,1.08 0.73,1.69l1 -0.29 -0.16 1.07c-0.03,0.21 -0.04,0.37 -0.16,0.56 -0.02,0.04 -0.05,0.07 -0.08,0.1l-0.02 0.09c-0.06,0.3 -0.26,0.69 -0.4,0.97 -0.05,0.09 -0.1,0.2 -0.17,0.31 0.22,0.15 0.41,0.35 0.51,0.55l1.11 2.24 -1.42 -0.9c-0.05,0.7 -0.61,1.22 -1.34,1.35l-0.29 0.05zm-17.22 -4.78c0.18,0.1 0.36,0.24 0.46,0.35l0.3 0.32 -0.17 0.4c-0.04,0.09 -0.06,0.14 -0.12,0.21 -0,0.01 -0.01,0.01 -0.01,0.02l-0.01 0.02 -0.55 0.68c0.09,0.02 0.32,-0.02 0.4,-0.03 0.25,-0.03 0.35,-0.16 0.53,-0.31 0.3,-0.26 0.6,-0.54 0.88,-0.82 0.13,-0.13 0.27,-0.26 0.41,-0.4 -0.74,-0.06 -1.49,-0.21 -2.17,-0.48l0.06 0.05z"/>
   <path class="fil1" d="M18.25 22.81c-0.1,0.09 -0.18,0.19 -0.28,0.28 -1.43,1.34 -1.76,3.51 -2.94,5.02 -0.98,1.27 -3.2,1.91 -4.89,1.45 -0.74,-0.2 -0.91,-0.38 -1.48,-0.66 -0.18,0.12 -0.53,0.47 -0.68,0.59l-0.66 0.59c0.67,0.77 1.85,1.31 2.92,1.53 2.16,0.46 4.03,-0.37 5.59,-1.57 0.9,-0.69 1.71,-1.85 2.22,-2.81 0.12,-0.22 0.24,-0.57 0.39,-0.74 0.04,0.51 -0.22,1.2 -0.39,1.62 -0.2,0.48 -0.51,0.94 -0.79,1.29 -0.92,1.16 -2.32,1.95 -3.86,2.44 -0.94,0.3 -0.86,-0.07 -1.18,0.93 -0.49,1.54 -0.2,2.21 0.08,3.51 0.15,-0.07 0.18,-0.13 0.3,-0.18l-0.65 1.17c-0.74,1.37 -1.04,2.89 -0.99,4.49 1.59,-0.26 2.15,-0.29 3.77,0.08 0.36,0.08 0.81,0.24 1.14,0.29 0.31,-0.73 0.98,-1.85 1.52,-2.46l0.5 -0.45 -0.49 1.18c0.55,0.24 2.57,0.3 3.27,0.25 1.74,-0.12 3.96,-0.79 5.23,-1.98 0.5,-0.47 1.13,-1.43 1.4,-2.09 0.36,-0.86 0.52,-1.87 0.37,-2.89 -0.07,-0.47 -0.23,-0.92 -0.44,-1.3 -0.61,-1.12 -1.74,-1.98 -3.16,-2.15 -0.78,-0.1 -1.65,0.04 -2.39,0.28 -0.24,0.08 -0.45,0.18 -0.68,0.25 0.11,-0.23 0.57,-0.57 0.79,-0.7 0.48,-0.29 0.81,-0.34 1.03,-0.47 -0.27,-1.25 -0.47,-2.15 -0.26,-3.5 0.15,-0.96 0.68,-2.12 1.18,-2.76l-0.12 0.76c0.39,-0.2 0.85,-0.68 1.81,-0.38 0.44,0.14 0.78,0.36 1.02,0.69 0.08,0.11 0.13,0.23 0.21,0.35l1.76 -0.45c0.02,-0.99 -0.27,-1.61 -0.76,-2.2 -0.2,-0.24 -0.59,-0.39 -0.98,-0.52 -0.21,-0.07 -1.04,-0.25 -1.14,-0.31 -1.37,-0.07 -2.61,0.05 -3.96,0.16 0.03,0.23 0.45,1.06 0.42,2.1 -0.02,0.61 -0.41,1.39 -0.79,1.75 -0.2,-0.29 -0.42,-0.99 -1.1,-1.6 -0.23,-0.21 -0.41,-0.43 -0.76,-0.6 -0.3,-0.15 -0.69,-0.26 -1.12,-0.27z"/>
   <path class="fil1" d="M13.98 1.26c-0.05,0.12 -0.17,0.21 -0.25,0.3 -0.19,0.22 -0.49,0.68 -0.62,0.93 -1.63,2.99 -0.41,6.95 1.03,9.79l0.7 1.35c0.17,-0.05 0.6,-0.31 0.78,-0.41l2.35 -1.26c0.49,-0.27 1.06,-0.59 1.55,-0.83 0.54,-0.27 1.04,-0.58 1.56,-0.83 0.3,0.89 0.35,1.44 0.8,2.5 0.53,1.25 1.08,2.08 1.97,3.01 0.11,0.11 0.3,0.27 0.45,0.37 0.23,0.16 0.33,0.07 0.64,-0.02 1.1,-0.31 1.83,-0.38 3.07,-0.4 0.18,-0.23 0.46,-1.01 0.57,-1.35 0.57,-1.77 0.48,-3.21 -0.02,-5 -1.03,-3.72 -3.35,-7.23 -7.44,-8.35 -1.13,-0.31 -2.34,-0.4 -3.62,-0.37 -0.95,0.03 -2.77,0.27 -3.52,0.57z"/>
   <path class="fil1" d="M29 15.81c0.75,0.07 1.53,0.26 2.15,0.5 0.49,0.19 1.44,0.65 1.76,0.92 -1.88,-0.5 -2.81,-0.79 -4.92,-0.8 -1.83,-0 -3.4,0.46 -4.81,1.1 -0.67,0.31 -1.28,0.67 -1.85,1.04 -0.52,0.34 -1.2,0.83 -1.65,1.22 -0.91,0.79 -1.41,1.23 -2.19,2.09 -0.14,0.16 -0.63,0.62 -0.7,0.77 0.46,-0.15 0.73,-0.35 1.39,-0.42 1.43,-0.16 2.8,0.81 3.19,2.16 0.29,-0.42 0.12,-1.48 -0.07,-1.92 -0.24,-0.55 -0.58,-1.02 -0.9,-1.42 1.86,-0.44 4.41,-0.62 6.38,-0.43 3.21,0.32 6.3,1.41 9.02,2.9 1.29,0.7 1.99,1.26 3.09,2.04l1.67 1.33c0.13,0.12 0.08,0.14 0.25,0.2 0.03,-3.01 -0.29,-5.15 -1.56,-7.83 -0.67,-1.42 -1.52,-2.62 -2.62,-3.67 -1.1,-1.05 -2.5,-1.82 -3.98,-2.37 -0.52,-0.19 -2.01,-0.59 -2.6,-0.56 -0.1,1.05 -0.24,1.55 -0.67,2.45 -0.09,0.2 -0.3,0.53 -0.36,0.71z"/>
   <path class="fil2" d="M19.84 14.98c-0.06,0.15 -0.22,0.31 -0.31,0.42 -0.14,0.18 -0.54,0.51 -0.74,0.65 -0.59,0.43 -1.97,0.9 -2.76,0.67 -0.3,0.17 -1.28,-0.01 -1.79,-0.28 -0.15,-0.08 -0.32,-0.22 -0.45,-0.27 -0.04,0.05 -0.29,0.29 -0.36,0.33l-0.08 -0.11c-0.22,-0.38 -0.21,-0.7 -0.18,-1.08 -0.29,0.13 -0.7,0.38 -0.98,0.54 0.05,0.11 0.2,0.26 0.29,0.42 0.07,0.12 0.21,0.35 0.25,0.48l-0.18 0.02c-0.01,0.31 -0.04,0.61 -0.14,0.85 -0.07,0.17 -0.21,0.52 -0.4,0.61l-0.08 0.14c-0.02,0.05 -0.05,0.1 -0.07,0.13 -0.42,0.58 -1.16,0.89 -1.92,0.89 -0.26,0.18 -1.03,0.13 -1.43,-0.04 -0.59,-0.25 -0.84,-0.6 -1,-0.68 0.16,0.64 0.36,1.06 0.5,1.88 0.06,0.36 0.14,0.34 0.23,0.6 0.24,-0.04 0.36,-0.11 0.63,-0.13 1.04,-0.08 1.95,0.6 1.93,1.62 -0.01,0.45 -0.18,0.72 -0.32,1.05 0.94,0.64 2.27,1 3.73,0.97 0.09,-0.02 0.93,-1.07 0.99,-1.14l1.76 -2c0.35,-0.33 0.91,-0.97 1.33,-1.37 1.51,-1.46 3.14,-2.7 5.22,-3.48 -0.18,-0.17 -0.36,-0.31 -0.53,-0.5 -0.58,-0.68 -0.77,-0.75 -1.32,-1.77 -0.5,-0.92 -0.87,-1.88 -1.22,-2.93l-0.3 0.15c0.74,0.94 0.66,2.59 -0.27,3.38z"/>
   <path class="fil3" d="M9.72 3.19c-0.23,0.32 -0.56,0.61 -1.02,1.25 -2.26,3.11 -1.71,7.39 -0.17,10.67l0.81 1.5c0.9,-0.49 1.84,-1.01 2.76,-1.48 0.46,-0.24 0.9,-0.5 1.36,-0.73l1.38 -0.76 -0.7 -1.35c-1.44,-2.85 -2.66,-6.8 -1.03,-9.79 0.14,-0.25 0.43,-0.71 0.62,-0.93 0.08,-0.09 0.2,-0.19 0.25,-0.3 -0.49,0.06 -1.89,0.63 -2.29,0.83 -0.34,0.17 -0.68,0.32 -1.01,0.51 -0.33,0.2 -0.68,0.38 -0.96,0.59z"/>
   <path class="fil4" d="M6.38 22.52c-0.5,-0.28 -0.47,-0.46 -0.58,-0.51 -0.47,-0.05 -0.92,0.23 -1.12,0.48 -0.34,0.44 -0.27,0.94 -0.38,1.16 -0.16,-0.5 -0.17,-0.45 -0.72,-0.93 -0.72,-0.64 -0.93,-0.86 -1.81,-1.47 -1.58,-1.09 -1.14,1.15 -0.21,2.48 0.37,0.53 1.21,1.1 2.18,1.13l0.02 -0.26 0.09 0.12c0.17,0.37 0.19,0.56 0.48,1.01 0.12,0.2 0.61,0.88 0.75,0.92 -0,-0.09 0,-0.17 0.01,-0.26l0.06 -0.2c0,-0.01 0.01,-0.02 0.01,-0.03 0.03,0.06 0.28,1.75 0.43,2.32 0.04,0.15 0.13,0.58 0.22,0.7 0.44,-0.25 0.89,-0.58 1.28,-0.87 0.53,-0.39 1.01,-0.8 1.49,-1.23l1.06 -1.08c0.17,-0.19 0.66,-0.65 0.76,-0.87l-1.5 -1.1 0.42 0.13c0.48,-0.49 1.24,-1.24 0.68,-2.09 -0.33,-0.49 -1.02,-0.7 -1.7,-0.49 -0.32,0.1 -0.2,0.14 -0.31,0.44 -0.11,-0.77 -1.25,-5.39 -2.64,-5.08 -1.5,0.33 0.7,4.88 1.05,5.57z"/>
   <path class="fil1" d="M9.35 16.61l-0.81 -1.5c-1.54,-3.28 -2.09,-7.56 0.17,-10.67 0.46,-0.63 0.79,-0.93 1.02,-1.25 -0.29,0.14 -1.15,0.83 -1.41,1.06 -0.13,0.12 -0.18,0.14 -0.32,0.29 -0.11,0.11 -0.22,0.19 -0.34,0.3l-0.62 0.63c-0.09,0.1 -0.18,0.21 -0.28,0.33 -1.56,1.92 -2.56,3.62 -2.89,6.26 -0.1,0.75 -0.09,1.54 -0.01,2.3 0.06,0.51 0.25,1.65 0.48,2.01 0.82,-0.28 1.14,-0.46 1.82,0.06 0.16,0.12 0.41,0.42 0.55,0.62l0.44 0.73 2.2 -1.18z"/>
   <path class="fil4" d="M11.13 42.98c0.05,0.43 0.26,1.14 0.39,1.53 0.08,0.23 0.16,0.51 0.26,0.7 0.11,0.22 0.27,0.4 0.36,0.58 -0.61,-0.29 -0.4,-0.41 -0.87,-0.17 -0.39,0.2 -2.58,1.33 -2.8,1.4 0.11,0.08 0.26,0.06 0.4,0.08l1.3 0.1c2.14,0.15 3.53,0.02 5.62,-0.03 -0.08,-0.37 -0.61,-1.6 -0.61,-1.76 0.01,-0.57 0.18,-1.42 0.31,-1.95 -1.26,-0.57 -2.95,-0.68 -4.35,-0.48z"/>
   <path class="fil1" d="M16.03 16.72c0.8,0.24 2.18,-0.24 2.76,-0.67 0.2,-0.14 0.6,-0.48 0.74,-0.65 0.09,-0.11 0.25,-0.27 0.31,-0.42 0.2,-0.39 0.4,-1 0.42,-1.52 0.02,-0.49 -0.26,-1.3 -0.52,-1.52 0.1,0.86 -0.06,1.3 -0.69,1.63 -0.28,0.15 -0.65,0.26 -1,0.2 -0.46,-0.07 -0.58,-0.25 -0.83,-0.42l-2.16 1.82c-0.14,0.12 -0.66,0.51 -0.73,0.64 0.33,0.47 0.9,0.79 1.7,0.91z"/>
   <path class="fil3" d="M16.99 23.08c-0.08,0.1 -0.13,0.13 -0.23,0.21 -0.52,0.48 -0.88,1.09 -1.21,1.69 -1.05,1.93 -2.04,3.92 -4.79,3.57 -0.34,-0.04 -1.07,-0.22 -1.26,-0.4 -0.05,0.03 -0.38,0.32 -0.43,0.36 -0.09,0.1 -0.11,0.1 -0.21,0.18 -0.09,0.07 -0.13,0.13 -0.21,0.2 0.57,0.28 0.73,0.46 1.48,0.66 1.7,0.46 3.91,-0.18 4.89,-1.45 1.17,-1.51 1.51,-3.68 2.94,-5.02 0.1,-0.09 0.19,-0.19 0.28,-0.28 -0.33,0 -1.03,0.1 -1.26,0.27z"/>
   <path class="fil4" d="M23.71 41.59l0.57 1.33 -3.19 1.48c0.21,0.13 1.12,0.24 1.44,0.27 1.68,0.17 3.05,0.08 4.68,-0.28 -0.01,-0.28 -0.12,-0.57 -0.23,-0.79 -0.23,-0.44 -0.24,-0.26 -0.05,-0.72 0.19,-0.46 0.4,-1.05 0.49,-1.59 -0.61,0.13 -1.08,0.24 -1.75,0.32 -0.66,0.08 -1.31,0.03 -1.96,-0.01z"/>
   <path class="fil1" d="M9.51 28.15c0.19,0.18 0.91,0.35 1.26,0.4 2.75,0.35 3.73,-1.64 4.79,-3.57 0.33,-0.6 0.69,-1.21 1.21,-1.69 0.09,-0.09 0.15,-0.11 0.23,-0.21 -0.67,0.2 -1.38,0.74 -1.7,1.12l-0.98 1.11c-0.29,0.36 -1.42,1.44 -1.78,1.75 -0.26,0.22 -0.46,0.43 -0.92,0.48 -0.23,0.03 -0.48,0.06 -0.69,0.01 -0.2,-0.05 -0.34,-0.16 -0.52,-0.2 -0.08,0.13 -0.74,0.65 -0.88,0.81z"/>
   <path class="fil4" d="M26.35 25.9l0.3 0.85c0.21,0.03 0.61,0.04 0.8,0.21 -0.35,0.02 -0.69,0.07 -0.97,0.18 -1.29,0.52 -0.88,1.86 0.04,1.67 0.48,-0.1 1.34,-0.52 1.27,-0.99 -0.07,-0.49 -0.82,-0.45 -1.1,-0.08 -0.08,0.11 -0.15,0.24 -0.22,0.35 -0.12,-0.23 0.05,-0.55 0.34,-0.75 0.28,-0.19 0.65,-0.21 0.98,-0.09 0.34,0.12 0.28,-0.1 0.95,-0.19 0.43,-0.06 0.71,-0.02 1,0.16 -0.07,-0.15 -0.36,-0.36 -0.53,-0.41 -0.29,-0.1 -0.64,-0.06 -0.94,-0.03 0.25,-0.18 0.39,-0.12 0.62,-0.23 0.2,-0.09 0.79,-1.26 0.86,-1.58 -0.28,0.06 -0.54,0.18 -0.8,0.26 -0.29,0.09 -0.55,0.17 -0.84,0.25 -0.32,0.09 -1.58,0.34 -1.74,0.43z"/>
   <path class="fil1" d="M9.92 19.4c0.76,0 1.5,-0.31 1.92,-0.89 0.03,-0.04 0.05,-0.08 0.07,-0.13l0.08 -0.14c0.07,-0.34 0.21,-0.52 0.23,-0.95 -0.09,0.06 -0.28,0.32 -0.49,0.45 -0.76,0.48 -1.68,0.07 -1.9,-0.66 -0.39,0.16 -1.46,0.84 -1.93,1.03 0.2,0.66 1.3,1.3 2.01,1.29z"/>
   <path class="fil4" d="M5.95 29.66c0.03,0.16 0.1,0.35 0.2,0.46 0.47,-0.22 1.67,-1.11 2.1,-1.43 0.9,-0.68 1.37,-1.2 2.11,-1.99l0.72 -0.88c0.07,-0.1 0.03,-0.03 0.07,-0.11 -0.07,-0.07 -0.32,-0.24 -0.42,-0.28 -0.15,0.28 -1.39,1.56 -1.59,1.75 -0.6,0.56 -1.16,1.08 -1.85,1.55 -0.22,0.15 -0.42,0.3 -0.65,0.47 -0.12,0.09 -0.21,0.14 -0.34,0.23 -0.11,0.07 -0.24,0.15 -0.34,0.24z"/>
   <path class="fil3" d="M28.42 24.3l0.68 -0.17c0.16,-0.51 -0.15,-1.35 -0.55,-1.82 -0.6,-0.72 -1.93,-1.03 -3.01,-1.04 0.1,0.06 0.93,0.24 1.14,0.31 0.39,0.13 0.78,0.28 0.98,0.52 0.49,0.59 0.78,1.21 0.76,2.2z"/>
   <path class="fil1" d="M24.7 40.53c0.59,-0.01 2.37,-0.28 2.75,-0.52 -0.01,-0.39 -0.07,-1.08 -0.19,-1.42l-0.53 0.57c-0.4,0.38 -0.78,0.67 -1.27,0.95l-0.76 0.43z"/>
   <path class="fil4" d="M11.03 42.39l0.01 0.22c2.81,-0.37 4.05,0.46 4.51,0.48l0.18 -0.49c-1.55,-0.38 -2.82,-0.52 -4.4,-0.29 -0.11,0.02 -0.21,0.02 -0.3,0.08z"/>
   <path class="fil4" d="M26.12 25.35l0.1 0.28c0.66,-0.11 1.46,-0.31 2.09,-0.5l1.42 -0.48c0.24,-0.09 0.21,-0.15 0.25,-0.41 -0.31,0.09 -0.62,0.2 -0.93,0.3 -0.58,0.19 -2.86,0.75 -2.93,0.8z"/>
   <path class="fil5" d="M18.92 17.18c0.39,-0.09 0.63,-0.17 0.95,-0.35 0.57,-0.32 1.07,-0.81 1.23,-1.43 0.1,-0.37 0.11,-0.81 0.06,-1.22 -0.63,2.37 -2.01,2.67 -2.24,3z"/>
   <path class="fil4" d="M26.91 29.1c1.33,0.63 2.14,-1.06 1.62,-1.46 -0.07,-0.06 -0.25,-0.14 -0.37,-0.14 0.24,0.44 -0.01,0.81 -0.26,1.03 -0.14,0.12 -0.28,0.23 -0.46,0.33 -0.18,0.1 -0.34,0.15 -0.52,0.24z"/>
   <path class="fil1" d="M18.02 12.72c0.59,0.7 1.69,0 1.39,-0.73 -0.06,-0.01 -1.23,0.63 -1.39,0.73z"/>
   <path class="fil4" d="M28.61 28.94c0.44,-0.08 0.76,-0.38 0.75,-0.8 -0.01,-0.52 -0.25,-0.82 -0.81,-0.77 0.06,0.15 0.43,0.17 0.43,0.74 -0,0.41 -0.16,0.65 -0.37,0.83z"/>
   <path class="fil2" d="M13.47 15.67l1.62 -1.32c0.08,-0.06 0.15,-0.13 0.22,-0.19 -0.16,0.06 -0.4,0.2 -0.56,0.29l-1.18 0.63c-0.15,0.08 -0.17,0.06 -0.18,0.23 -0.01,0.15 0.01,0.25 0.08,0.36z"/>
   <path class="fil1" d="M10.86 16.89c0.08,0.22 0.4,0.45 0.72,0.42 0.29,-0.03 0.59,-0.29 0.62,-0.55l-1.34 0.13z"/>
  </g>
 </g>
</svg>
