<?xml version="1.0" encoding="UTF-8"?>
<!DOCTYPE svg PUBLIC "-//W3C//DTD SVG 1.1//EN" "http://www.w3.org/Graphics/SVG/1.1/DTD/svg11.dtd">
<!-- Creator: CorelDRAW -->
<svg xmlns="http://www.w3.org/2000/svg" xml:space="preserve" width="49.8382mm" height="70.5037mm" version="1.1" style="shape-rendering:geometricPrecision; text-rendering:geometricPrecision; image-rendering:optimizeQuality; fill-rule:evenodd; clip-rule:evenodd"
viewBox="0 0 106.47 150.62"
 xmlns:xlink="http://www.w3.org/1999/xlink"
 xmlns:xodm="http://www.corel.com/coreldraw/odm/2003">
 <defs>
  <style type="text/css">
   <![CDATA[
    .fil0 {fill:#0A0909}
    .fil18 {fill:#253139}
    .fil5 {fill:#5EA2D1}
    .fil17 {fill:#747473}
    .fil10 {fill:#7E807F}
    .fil12 {fill:#878986}
    .fil15 {fill:#A5D8F2}
    .fil16 {fill:#D5303A}
    .fil1 {fill:#E1323D}
    .fil13 {fill:#EEDB67}
    .fil11 {fill:#F1A96A}
    .fil7 {fill:#F4E06A}
    .fil4 {fill:#F6E93E}
    .fil9 {fill:#F7C633}
    .fil2 {fill:#F9DDBC}
    .fil3 {fill:#FAC833}
    .fil8 {fill:#FDFDFD}
    .fil6 {fill:#FEFEFE}
    .fil14 {fill:white}
   ]]>
  </style>
 </defs>
 <g id="Camada_x0020_1">
  <metadata id="CorelCorpID_0Corel-Layer"/>
  <g id="_2015446203952">
   <path class="fil0" d="M44.66 122.59c-0.68,0.71 -1.43,5.5 -2.17,6.68 -0.64,1.03 -1.6,0.68 -2.22,2.29 -0.72,1.86 0.36,1.74 -1.39,2.92 -2.7,1.81 -7.62,5.31 -8.6,8.94 -0.87,3.19 1.44,3.9 3.64,4.73 2.11,0.8 4.63,1.48 7.1,1.63 8.61,0.54 11.93,-3.34 14.13,-2.45 4.82,1.95 8.36,3.24 14.34,3.28 5.36,0.04 10.74,-0.67 15.35,-2.25 4.71,-1.61 7.29,-4.51 7.57,-10.13 0.28,-5.65 -2.74,-9.45 -7,-10.66 -2.26,-1.12 -1.1,-0.22 -1.59,-3.72 -0.33,-2.35 -1.06,-7.45 -0.8,-9.66 0.22,-1.87 1.35,-1.48 2.63,-2.59 0.27,-2.41 -2.13,-4.73 -1.78,-9.01 0.17,-2.1 0.54,-2.4 0.19,-4.8 -0.2,-1.37 -0.15,-3.79 -0.94,-4.59 -0.1,-2.36 -4.07,-8.67 -5.94,-10.92 -0.65,-0.78 -2.25,-2.26 -2.33,-3.12 2.43,-0.6 8.73,0.63 10.86,-0.85l3.03 -0.54c0.28,1.84 -0.38,3.45 -0.33,5.32 0.08,2.85 3.24,4.19 3.11,0.46 -0.08,-2.22 -0.85,-3.88 -0.61,-6.42l1.76 -1.09c2.31,-0.44 2.24,-0.7 4.68,-0.2 6.51,1.35 6.34,-0.7 8.29,-6.26 1.36,-3.86 1.28,-5.37 -1.94,-6.95 -1.88,-0.93 -1.45,-1.02 -1.56,-3.33 -0.11,-2.28 -1.4,-2.83 -1.54,-3.47 -4.89,-0.75 -2.06,2.97 -4.1,5.31 -0.68,0.78 -1.49,1.39 -2.27,2.25 -1.65,1.84 -1.85,1.36 -2.66,2.18 -1.28,-0.06 -7,2.29 -9.75,2.54 -4.08,0.38 -7.58,-0.47 -11.43,-0.91l-0.12 -0.91c3.77,-0.58 7.1,-0.33 7.43,-4.39 0.16,-1.96 -0.79,-10.08 1.37,-10.07 0.24,1.54 -0.67,7.35 0.72,7.85 2.57,0.93 1.28,-3.96 1.06,-6.35 -0.27,-3.04 0.44,-5.08 0.44,-8.05 0.01,-6.67 -1.77,-8.32 -3.9,-12.91 -1,-2.15 -1.66,-3.97 -2.66,-5.9 -0.9,-1.74 -2.1,-4 -4.94,-3.49 -3.11,0.56 -4.22,0.05 -6.86,-0.77 -0.7,-1.73 -6.06,-4.95 -9.36,-2.6 -1.7,1.22 -3.66,3.44 -4.68,5.54 -0.51,1.06 -0.42,1.89 -1.52,1.97 -0.67,-1.1 1.4,-4.25 2.28,-5.48 5.51,-7.83 9.41,-2.05 11.64,-3.78 0.97,-0.75 3.16,-3.69 3.28,-5.21 -0.02,-2.54 0.27,-3.56 -0.75,-5.74 -3.79,-8.15 -16.35,-7.62 -21.86,-1.76 -4.86,5.17 -2.81,4.21 -3.24,9.39 0.15,1.59 1.96,4 2.84,4.92 2.03,2.1 3.64,2.1 4.81,2.99 -0.89,0.95 -3.92,1.05 -7.59,5.2 -1.01,1.14 -1.34,1.98 -2.1,2.46 -0.64,-0.48 -1.3,-2.08 -1.74,-2.81 -1.68,-2.83 -4.73,-6.18 -8.45,-5.82 -2.1,0.2 -3.75,3.09 -4.8,4.52 -2.27,3.08 1.02,6.92 -3.86,10.16 -4.4,2.92 -4.07,-0.14 -3.67,10.05 0.12,2.99 -0.69,8.16 0.55,8.73 3.24,1.5 1.35,-5.41 1.88,-6.95 1.36,-0.06 1.02,1.15 1.05,2.51 0.03,1.27 0.07,2.54 0.07,3.81 -0.01,2.09 -1.02,11.7 -0.27,12.57 0.81,0.49 1.54,0.4 2.38,0.01 1.77,-2.12 -0.57,-13.49 -0.1,-16.98 1.47,-0.36 2.18,0.9 3.23,0.38 0.9,-0.44 0.94,-2.4 2.58,-1.23 0.87,0.91 -1.15,3.18 0.56,3.74 2.26,0.73 1.38,-2.09 1.4,-3.24 0.06,-2.74 4.59,-5.13 5.29,-5.13 0.86,2.21 1.23,9.95 3.97,10.92 0.91,1.36 1.9,1.06 3.27,1.81 0.18,1.19 0.24,3.01 -0.11,3.93 -0.91,0.33 -0.94,0.09 -2.14,-0.97 -5.06,-4.48 -9.84,0.96 -6.31,11.3 0.23,0.29 1.89,4.78 2.37,5.69 2.93,5.65 4.45,8.14 7.93,13.26 1.13,1.66 0.91,0.94 1.21,3.12 -0.54,0.7 0.03,1.12 -1.29,2.88 -3.96,5.3 -1.09,8.83 -1.73,10.23 -1.32,1.25 -3.64,1.86 -5.1,3.47l-0.8 0.55c-4.91,3.79 -9.13,12.21 -17.32,17.37 -6.68,4.21 -13.89,1.23 -15.92,-7.07 -0.47,-1.95 0.19,-2.2 0.45,-3.67 0.59,-3.36 0.84,-1.09 1.06,-3.35 -1.64,0.41 -1.38,1.52 -1.79,3.1 -1.14,4.34 -0.46,7.88 2.52,10.68 3.43,3.23 9.16,4.64 13.9,1.71 9.25,-5.72 11.59,-11.88 17.5,-17.43l1.11 -1.31c1,-0.01 2.82,-2.13 4.06,-2.37 1.15,-0.22 1.6,0.46 2.2,1.06 0.63,0.64 1.24,1.08 1.76,1.78 -0.64,2.29 -2.87,3.53 -1.64,4.56 -0.03,0.97 2.11,1.61 2.77,2.41 1,1.21 -0.1,3.2 -0.04,4.48zm10.74 -2.25c-0.94,0.62 -1.87,7.91 -1.77,9.5 1.02,-0.19 0.32,-0.8 2.94,-2.38 1.11,-0.67 3.35,-1.2 3.9,-1.81 0.29,-0.32 4.24,-6.29 4.37,-7.23 -1.46,0.22 -2.73,0.95 -4.49,1.23 -0.98,0.16 -4.42,0.33 -4.95,0.68zm16.13 2.1c-0.84,1.41 -2.96,4.49 -2.92,5.32 0.09,2.1 7.86,-0.5 11.04,-0.58 0.13,-1.62 0.36,-5.53 -0.06,-6.62 -0.05,-0.01 -0.13,-0.06 -0.15,-0l-0.56 0.2c-4.12,2.74 -3.46,-2.36 -3.93,-3.89 -0.73,0.31 -2.81,4.57 -3.42,5.58z"/>
   <path class="fil1" d="M48.63 84.46c-0.26,0.44 0.26,0.25 -0.51,0.41 1.5,0.25 -0.1,1.1 2.13,1.81 2.11,0.34 1.24,2.67 0.72,4.03 -0.93,2.43 -5.47,9.35 -7.37,8.87 -1.3,-0.69 -0.44,-0.91 -1.66,-1.33 -1.93,2.08 -1.37,10.68 3.43,12.52 -0.29,1.77 -2.8,3.36 -2.49,4.84 5.08,4.87 17.23,4.41 21.39,1.7 1.48,-0.97 2.69,-5.64 3.18,-6.1 0.51,-0.47 5.91,-1.75 6.33,-1.7 0.55,0.07 0.22,-0.02 0.54,0.19 -0.59,0.76 -4.39,1.57 -5.51,1.92 -1.28,0.4 -1.14,0.84 -1.64,2.18 -0.48,1.28 -1.19,1.37 -1.29,2.58 4.31,0.99 9.18,-1.71 10.11,-0.13 0.29,1.94 -0.71,4.13 1.56,3.87 0.62,-1.72 -0.04,-2.12 -0.22,-3.53 0.49,-0.63 1.7,-1.84 2.81,-0.93 1.41,1.06 0.3,6.42 0.32,8.29 0.02,2.95 0.03,2.37 -0.74,2.31l-0.07 0.9c4.23,-0.81 3.67,1.31 2.41,-9.09 -0.14,-1.13 -0.46,-3.42 -0.26,-4.56 0.28,-1.54 1.35,-1.31 2.39,-2.39 0.14,-1.61 -1.12,-3.88 -1.21,-5.93 -0.1,-2.36 0.48,-4.57 0.33,-7.24l-1 -0.11c-0.05,0.47 -0.49,1.2 -0.63,1.97l-1.27 7.2c-0.23,0.27 -1.63,0.82 -2.43,0.36 -0.46,-0.26 -0.24,-0.12 -0.33,-0.48 -1.17,-1.25 -0.19,-3.49 -2.5,-5.95 -2.29,-2.43 -1.41,-1.76 -5,-3.06 -4.41,-1.59 -4.39,0.5 -6.49,0.03 -2.48,-0.55 -3.24,-3.43 -4.49,-3.29 -0.14,1.41 1.21,3 1.08,5.58 -0.07,1.43 -1.02,4.15 -1.69,4.93 -0.28,-0.6 1.61,-5.35 -0.33,-11.05 -1.06,-3.14 -0.35,-2.05 -0.21,-5.3 0.09,-2.1 0.43,-3.55 2.13,-4.21 0.61,-0.93 3.74,-2.4 6.36,-4.7 0.86,-0.75 1.64,-0.81 1.79,-1.78 -3.17,-0.87 -8.51,0.54 -11.29,1.55 -1.64,0.6 -3.02,1.38 -4.37,2.29 -2.05,1.38 -3.01,2.68 -4.02,2.52z"/>
   <path class="fil2" d="M50.24 44.83c-0.64,-0.02 -3.48,-1.7 -5.7,-1.85 -2.7,-0.18 -4.74,0.15 -6.5,1.52 -2.69,2.08 -3.68,5.02 -2.29,8.17 0.37,0.83 1.24,1.74 1.52,2.4 1.46,0.12 0.62,0.01 0.98,-0.25 -0.34,-2.51 -1.08,-3.32 0.58,-5.23 2.45,-2.82 7.02,-1.34 8.32,1.67 1.11,2.57 0.01,3.52 0.4,5.55 0.51,0.37 1.1,1.06 1.87,0.27 1.2,-1.31 -1.29,-3.41 0.32,-5.37 0.67,-0.82 3.08,-2.79 4.54,-1.85 0.8,2.28 -0.58,8.71 0.23,10.43 3.07,1.67 1.65,-5.39 1.33,-6.82 -0.78,-3.59 1.8,-4.26 4.95,-4.69l0.65 -0.28c-0.25,-1.94 -1.86,-3.31 -1.61,-5.31l-0.53 -3.57c-0.04,-2.4 0.56,-8.87 4.15,-7.79 1.26,0.38 2.63,3.45 3.16,4.98 0.88,2.55 1.15,6.1 0.44,7.21 0.36,1.14 -0.29,1.81 0.37,2.43 3.14,2.35 0.85,-11.62 2.28,-13.04 1.95,-1.94 3.79,1.81 4.22,2.94 1.22,3.16 0.67,3.61 0.33,6.7 -0.46,1.63 -1.25,2.27 -0.89,4.28 0.27,0.12 0.33,0.13 0.64,0.33 0.02,0.01 0.42,0.32 0.43,0.33 0.38,0.36 0.1,0.01 0.41,0.47 1.08,-0.02 0.44,0.55 1.92,0.32 1.92,-3.16 1.21,-11.94 -0.65,-16 -5.39,-11.75 -8.14,-5.71 -9.25,-4.89 -0.64,-0.29 -1.67,-2.04 -2.2,-2.72 -0.87,-1.11 -1.96,-1.77 -2.49,-2.57 -2.78,-0.51 -7.31,-5.2 -11.33,5.47 -0.92,2.44 -1.46,5.27 -1.6,8.2 -0.21,4.48 1.13,5.26 1.55,8.16l0.22 0.7 -0.77 -0.3z"/>
   <path class="fil3" d="M55.58 143.95c-0.84,1.83 -1.4,2.43 3.45,4.04 6.13,2.04 16.82,1.51 22.93,-0.12 11.82,-3.16 11.09,-14.83 4.72,-18.51 -0.22,-0.13 -0.57,-0.28 -0.77,-0.41 -0.88,-0.58 -0.23,-0 -0.8,-0.7 -0.04,0.01 -6.7,-0.25 -8.28,-0.01 -1.83,0.27 -5.37,1.2 -7.25,1.78 -0.5,2.25 0.64,2.75 -1.61,3.87 -1.13,0.57 -2.5,1.53 -3.71,1.62 -1.27,0.09 -4.17,-0.03 -5.31,-0.24 -1.4,-0.26 -2.79,-1.29 -4.13,-0.98 -1.65,3.37 3.09,6.21 0.75,9.67z"/>
   <path class="fil4" d="M62.86 48.87c-0.93,0.82 -1.23,0.2 -3.32,1.01 -0.92,0.36 -1.93,0.73 -2.54,1.21 -0.4,3.16 1.42,8.58 -0.91,10.4 -0.22,0.06 -0.49,0.12 -0.72,0.21l-0.69 0.38c-0.03,-0.05 -0.12,0.08 -0.17,0.13 0.93,1.11 5.52,1.56 7.38,2.08 2.87,0.8 14.25,2.71 14.85,-2.14 0.19,-1.57 0.85,-8.06 -0.02,-9.1l-0.35 -0.05c-0.81,0.1 0.07,-0.15 -0.48,0.11 -0.12,0.06 -0.63,0.5 -0.82,0.64 -0.63,0.47 -1.19,0.64 -1.99,0.71 -1.67,0.14 -3.07,-0.29 -4.43,-0.82 0.93,-0.63 3.02,0.78 5.51,-0.32 2.54,-1.12 1.05,-3 0.48,-4.48 -2.34,-1.03 -2.9,-1.17 -6.08,-1.29 -2.61,-0.1 -4.71,1.59 -5.67,1.33z"/>
   <path class="fil4" d="M41.12 50.71c1.18,-0.01 2.22,0.18 2.12,1.37 -1.29,0.22 -2.05,-0.05 -2.12,-1.37zm-2.18 3.86c0.36,0.07 0.55,0.57 1.3,0.97 0.62,0.33 1.31,0.4 1.99,0.59 -0.63,1.53 -1.22,-0.12 -1.32,2.71 -0.05,1.32 -0.37,2.41 -0.4,3.36 -0.04,1.23 0.68,1.73 1.28,2.49 2.62,3.3 1.48,4.18 6.66,5.2 2.83,0.56 3.58,1.03 6.65,0.45 0.91,-1.73 0.46,-2.55 2.32,-3.12 0.74,-0.23 1.19,-0.23 1.93,-0.7 0.8,-0.5 1.11,-0.86 1.1,-1.74 -1.54,-0.97 -4.21,-0.9 -8.07,-2.61 -0.89,-0.39 -6.98,-2.75 -7.36,-3.57 0.33,-0.59 0.36,-0.64 1.15,-0.64l0.62 -0.73c-0.37,-1.99 0.49,-3.38 -0.23,-5.38 -0.83,-2.31 -4.89,-4.11 -7.22,-1.77 -1.28,1.29 -0.85,2.73 -0.4,4.47z"/>
   <path class="fil5" d="M63.31 85.22c1.43,0.73 2.54,2.27 3.29,4.09 1.22,2.98 0.76,5.76 1.1,6.24 0.68,0.57 1.79,0.51 2.48,0.86 1.07,0.55 0.96,0.93 2.58,1.04 0,-5.9 -0.86,-7.18 -1.68,-11.71 -0.15,-0.85 -0.29,-0.63 0.15,-1.13l0.19 -2.13 -0.63 0.01c0.01,-0.85 0.08,-0.96 0.83,-1.3 0.54,0.25 0.55,0.21 0.88,0.82 0.67,1.24 -0.04,1.07 -0.05,1.07 0.24,0.62 0.52,1.23 0.61,2.14 0.11,1.12 -0.11,1.43 0.55,2.18l-0.24 -1.32c0.7,0.36 0.12,-0.18 0.82,0.64 0.8,0.95 3.07,5.4 3.53,6.43 1.16,2.57 2.71,6.51 0.12,8.44 -0.32,0.75 -0.09,2.88 0.27,3.77 1.44,0.12 1.08,-0.69 1.67,-1.58 1.18,-7.52 3.94,-6.87 2.67,-10.11 -1.46,-3.73 -2.43,-5.91 -4.47,-8.84 -0.97,-1.4 -2.05,-2.7 -2.98,-3.68 -3.37,-3.56 -5.17,-3.05 -8.49,0.15 -1.99,1.92 -3.12,1.86 -3.88,2.75 0.35,0.94 0.53,0.45 0.69,1.18z"/>
   <path class="fil5" d="M45.45 146.06c3.49,-0.12 4.94,-1.13 7.64,-2.16l0.09 -3.52 -0.39 0 -0.17 1.77c-0.84,0.31 -1.57,0.37 -1.87,-0.41 -0.41,-1.1 0.4,-1.72 0.66,-2.03l-1 0.04c0.47,-1.18 0.73,-1.36 2.25,-1.43l-0.09 -1.13 -0.13 -0.31c-1.35,-0.34 -3.73,0.07 -5.51,-0.12 -5.44,-0.59 -5.3,-2.94 -8.56,-0.42 -1.16,0.89 -2.12,1.61 -3.1,2.6 -2.54,2.56 -4.48,3.68 0.16,5.78 3.54,1.6 5.92,1.13 10.02,1.33z"/>
   <path class="fil4" d="M91.82 66.03c-0.56,1.55 -0.48,2.9 -1.18,4.5 -0.69,1.58 -0.65,3.46 -0.15,5.33l1.73 -0.07 0.99 -0.58c0.28,-0.12 0.58,-0.21 0.88,-0.32 1.03,-0.38 0.95,-0.44 2.28,-0.33 -0.01,-0.98 -0.34,-1.27 0,-2.15 0.32,-0.81 0.73,-0.71 0.56,-1.78 -1.27,-0.34 -1.91,-0.09 -2.71,-0.84 0.67,-0.4 0.65,-0.14 1.89,-0.22 3.07,-0.19 1.19,-2.63 1.68,-3.6 0.97,-0.89 2.04,-1.55 3.82,-1.49 -0.55,0.61 -0.89,0.54 -1.63,0.86 -3.92,1.69 2.7,6.29 4.97,2.84 2.31,-3.51 -2.29,-4.6 -3.78,-5.79 -0.3,-1.89 0.58,-6.15 -2.34,-5.1 -0.85,0.7 -0.72,2 -0.87,3.23 -0.18,1.44 -0.5,1.49 -1.53,2.23 -1.91,1.38 -1.71,2.64 -4.6,3.29z"/>
   <path class="fil4" d="M72.48 71.66c0.28,1.92 -0.06,2.8 0.74,4.62 0.8,1.82 1.09,1.69 3.22,1.92 5.29,0.58 7.93,-0.77 9.65,-0.5 0.81,-0.63 1.61,-0.26 2.68,-1.02 0.21,-1.38 -0.81,-4.07 -1.51,-4.94 -1.26,-1.57 -3.29,0.08 -4.93,0.26 -3.22,0.35 -3.96,-2.2 -8.1,-2.07 -1.08,0.04 -0.85,-0.11 -1.24,0.48 -0.22,0.33 -0.06,0.19 -0.2,0.54l-0.29 0.71z"/>
   <path class="fil6" d="M63.19 85.65l-0.12 0.01c-1.52,-0.51 -2.73,-1.03 -3.63,0.45 -1.7,2.78 0.35,8.17 3.12,10.09 4.53,3.12 5.96,-4.83 1.35,-9.66l-0.72 -0.89z"/>
   <path class="fil7" d="M45.07 123.64l-1.25 6.22c1.75,1.24 3.9,2.17 6.8,1.73 1.27,-0.31 1.51,-2.8 0.99,-4 -0.48,-1.1 -1.7,-2.27 -1.83,-3.62 -0.18,-1.95 0.48,-3.37 -2.41,-3.34 -1.73,0.02 -2.22,1.53 -2.31,3.01z"/>
   <path class="fil8" d="M60.04 41.85c1.27,-0.48 0.58,-1.38 2.08,-1.38 2.75,0 2.24,5.77 2.32,7.01 1.37,-0.2 1.84,-1.3 2.13,-2.65 0.11,-2.23 0.29,-4.97 -0.46,-6.86 -0.53,-1.35 -1.23,-3.8 -2.22,-4.65 -3.57,-3.08 -4.35,6.08 -3.85,8.54z"/>
   <path class="fil8" d="M71.23 84.61c1.01,2.19 1.45,3.66 1.85,6.22 0.2,1.3 0.13,2.55 0.32,3.89 0.17,1.24 0.55,2.09 0.88,3.23 1.04,0.89 0.7,2.54 2.99,2.38 1.72,-1.67 0.54,-4.79 -0.19,-7.04 -0.8,-2.46 -2.33,-3.79 -3.46,-5.89 -0.65,-0.75 -0.44,-1.06 -0.55,-2.18 -0.09,-0.91 -0.37,-1.52 -0.61,-2.14 -0.45,-0.61 -0.15,-0.41 -1.03,-0.6l-0.19 2.13z"/>
   <path class="fil9" d="M57.58 130.39c0.27,-1.47 1.18,-1.1 0.93,-2.52 -1.54,-0.05 -4.13,1.82 -3.62,3.56 1.69,5.74 16.36,2.54 13.36,-2.13 -0.91,0.03 -2.83,1.53 -4.87,1.93 -1.83,0.35 -4.51,0.34 -5.8,-0.84z"/>
   <path class="fil8" d="M52.85 144.9c-3.9,2.13 -8.64,2.52 -13.56,1.81 -2.66,-0.21 -4.01,-0.77 -6.18,-1.78 -0.09,-0.04 -0.84,-0.37 -0.84,-0.38 -0.5,-0.14 -0.1,-0.1 -0.54,-0.08 -0.45,0.02 -0.3,0.01 -0.54,0.14 -0.5,1.09 0.62,1.46 1.48,1.95 0.79,0.44 1.83,0.93 2.78,1.28 4.15,1.53 9.47,1.39 13.71,0.23 1.1,-0.3 2,-0.61 2.95,-1.09 1.08,-0.55 1.93,-0.87 1.9,-2.07l-1.13 -0.01z"/>
   <path class="fil8" d="M43.59 93.55c-0.18,0.82 -0.79,3.44 0.21,4.1 1.2,0.55 1.69,-0.68 2.51,-1.61 1.84,-2.08 2.32,-2.91 3.44,-5.61 0.59,-1.42 1.64,-2.63 -0.46,-2.77 -3.73,0.78 -4.15,3.09 -5.7,5.9z"/>
   <path class="fil7" d="M46.78 57.24l-0.62 0.73c0.28,1.46 2.25,1.91 3.64,2.51 1.66,0.72 2.94,1.1 4.7,1.72 0.05,-0.05 0.14,-0.18 0.17,-0.13l0.69 -0.38c0.23,-0.09 0.5,-0.15 0.72,-0.21l-1.8 0.3c-2.16,-3.15 -0.1,-6.29 -1.04,-10.95 -1.11,-0.08 -2.37,0.75 -2.73,1.4 -0.55,0.99 0.07,2.38 0.13,3.54 0.2,3.97 -3.02,3.63 -3.87,1.46z"/>
   <path class="fil10" d="M38.46 14.64l0.28 -0.06c0.43,-5.18 -1.62,-4.22 3.24,-9.39 5.51,-5.86 18.07,-6.39 21.86,1.76 1.01,2.18 0.73,3.2 0.75,5.74 1.01,-1.04 0.54,-4.55 0.1,-5.63 -3.53,-8.68 -16.03,-8.99 -23.1,-2.98 -3.16,2.68 -3.54,5.52 -3.13,10.56z"/>
   <path class="fil8" d="M52.05 132.87c-2.73,0.12 -3.94,0.19 -6.31,-0.59 -1.79,-0.59 -4.01,-1.88 -4.53,0.73 0.26,1.46 5.64,3.37 9.5,2.63 1.74,-0.34 1.6,-1.24 1.34,-2.76z"/>
   <path class="fil11" d="M72.1 70.73c0.16,-1.25 0.27,-1.38 -0.7,-1.92 -0.87,-0.49 -1.06,-0.35 -1.64,-1.04 -1.01,0.12 -1.01,-0.12 -1.25,0.83 -0.34,1.34 0.17,3.9 0.69,5.28 0.35,0.92 0.89,1.64 1.31,2.48 0.57,1.15 0.57,1.88 2.18,1.6 0.38,-1.41 -2.31,-4.33 -0.59,-7.23z"/>
   <path class="fil8" d="M71.94 42.3l0.18 0.3c0.36,0.85 0.05,0.59 0.46,1.18 1.42,-0.69 0.66,-6.56 0.41,-8.05 -0.42,-1.14 -1.24,-2 -2.54,-1.79 -0.72,1.1 -0.8,5.04 -0.33,6.21 0.92,1.02 1.61,0.48 1.84,2.16z"/>
   <path class="fil12" d="M48.11 84.87c0.77,-0.16 0.25,0.04 0.51,-0.41l-9.67 -15.27c-0.98,-1.5 -0.86,-1.76 -1.86,-2.07 0.09,2.09 9.13,16.27 11.02,17.75z"/>
   <path class="fil11" d="M49.36 83.02c0.98,0.01 1.77,-0.93 2.5,-1.4 2.44,-1.56 1.45,-1.49 -0.15,-4.54 -0.41,-0.77 -0.5,-1.9 -1.47,-2.27 -0.2,0.38 -1.69,6.22 -0.88,8.21z"/>
   <path class="fil13" d="M98.54 71.38c1.79,1.83 5.86,1.04 6.09,-1.11 -1.54,-0.19 -2.39,0.22 -3.98,-0.27 -1.53,-0.47 -1.83,-0.82 -2.59,0.5 0.2,0.38 -0.19,0.2 0.48,0.88z"/>
   <path class="fil13" d="M102.72 73.58c-0.84,-0.39 -2.02,-0.19 -2.88,-0.4 -1.09,-0.26 -1.41,-0.81 -2.44,-0.69 -0.47,1.9 0.51,2.28 2.13,2.65 1.72,0.4 3.56,0.36 3.19,-1.57z"/>
   <path class="fil14" d="M71.94 42.3c-0.13,1.04 0.21,1.26 0.05,2.21 -0.14,0.89 -0.48,0.68 -0.44,1.98 0.16,0.12 0.31,0.22 0.46,0.3 0.24,-0.31 0.47,-0.68 0.7,-1.34 0.3,-0.87 0.59,-2.24 0.88,-3.61 0.07,-0.82 0.18,-1.63 0.17,-2.48 -0.01,-1.13 -0.08,-2.87 -0.77,-3.64 0.25,1.5 1.01,7.36 -0.41,8.05 -0.41,-0.59 -0.09,-0.32 -0.46,-1.18l-0.18 -0.3z"/>
   <path class="fil15" d="M52.79 140.38c-0.16,-0.81 -0.21,-0.95 -1.38,-0.67 -0.27,0.31 -1.07,0.93 -0.66,2.03 0.29,0.78 1.02,0.71 1.87,0.41l0.17 -1.77z"/>
   <path class="fil16" d="M77.86 117.08c0.18,0.89 0.7,1.53 1.78,1.81 0.14,-0.54 0.6,-1.86 0.11,-2.32 -0.67,-0.63 -1.58,0.22 -1.89,0.52z"/>
   <path class="fil17" d="M77.84 106.26c0.48,0.09 1.03,0.23 1.71,-0.14l0.22 -2.34c-0.59,0.89 -0.23,1.7 -1.67,1.58 -0.36,-0.89 -0.59,-3.02 -0.27,-3.77l-0.45 0.28c-0.03,1.45 0.06,3.07 0.46,4.39z"/>
   <path class="fil18" d="M71.42 82.49c0.89,0.19 0.58,-0.01 1.03,0.6 0.01,-0.01 0.72,0.16 0.05,-1.07 -0.33,-0.61 -0.34,-0.57 -0.88,-0.82 -0.75,0.34 -0.82,0.46 -0.83,1.3l0.63 -0.01z"/>
   <path class="fil17" d="M81.59 69.31c0.29,1.21 1.45,1.06 2.03,0.24 -0.18,-0.29 0.26,-0.45 -0.82,-0.6 -0.7,-0.1 -0.84,0.1 -1.21,0.36z"/>
  </g>
 </g>
</svg>
