<?xml version="1.0" encoding="UTF-8"?>
<!DOCTYPE svg PUBLIC "-//W3C//DTD SVG 1.1//EN" "http://www.w3.org/Graphics/SVG/1.1/DTD/svg11.dtd">
<!-- Creator: CorelDRAW -->
<svg xmlns="http://www.w3.org/2000/svg" xml:space="preserve" width="11.6889mm" height="14.683mm" version="1.1" style="shape-rendering:geometricPrecision; text-rendering:geometricPrecision; image-rendering:optimizeQuality; fill-rule:evenodd; clip-rule:evenodd"
viewBox="0 0 24.26 30.48"
 xmlns:xlink="http://www.w3.org/1999/xlink"
 xmlns:xodm="http://www.corel.com/coreldraw/odm/2003">
 <defs>
  <style type="text/css">
   <![CDATA[
    .fil0 {fill:black}
    .fil6 {fill:black}
    .fil8 {fill:#148AD4}
    .fil7 {fill:#4F504B}
    .fil1 {fill:#DD1762}
    .fil3 {fill:#E4E2CB}
    .fil4 {fill:#E4E2CD}
    .fil2 {fill:red}
    .fil5 {fill:white}
   ]]>
  </style>
 </defs>
 <g id="Camada_x0020_1">
  <metadata id="CorelCorpID_0Corel-Layer"/>
  <g id="Figs_Desenho_VarCor_005">
   <path class="fil0" d="M15.46 16.27c0,-0.5 0.93,-1.64 1.29,-2.18 0.47,-0.69 1.28,-1.74 1.6,-2.42 0.91,-1.9 1.38,-3.21 1.56,-5.32 0.09,-1.01 0.15,-1.19 0.15,-2.34 -0,-0.24 0.03,-0.35 0.03,-0.58 -0,-0.44 -0.03,-0.8 -0.03,-1.21 0,-0.51 0.15,-1.9 -0.37,-2.15 -0.74,-0.36 -0.93,0.9 -1.45,1.84 -0.26,0.47 -0.72,1.35 -0.99,1.79 -0.4,0.65 -0.74,1.35 -1.1,2.02l-0.99 1.82c-1.35,2.52 -1.73,2.52 -1.73,5.55 -0.41,0 -0.21,0.02 -0.49,0.09 -0.03,-0.37 -0.67,-1.79 -0.88,-2.18 -0.9,-1.62 -1.24,-2.05 -2.36,-3.33 -0.59,-0.68 -1.21,-1.34 -1.87,-1.95 -0.82,-0.75 -2.17,-2.04 -2.77,-2.9 -0.66,-0.95 -0.64,-1.8 -1.2,-1.83 -0.67,-0.04 -0.68,0.65 -0.79,1.12 -0.32,1.38 0.04,4.72 0.53,6.05 0.28,0.79 0.39,1.17 0.87,1.97 1.45,2.41 2.14,2.5 4.5,3.85 0.15,0.08 1.29,0.72 1.34,0.89 -0.14,0.04 -0.34,0.24 -0.42,0.36 -0.6,0.8 0.01,0.57 -0.77,0.79 -1.71,0.47 -2.59,1.96 -4.58,2.3 -0.28,0.05 -0.5,0.03 -0.72,0.06 -0.13,0.02 -0.13,0.05 -0.32,0.06l-1.77 0.14c-0.82,0.12 -1.51,0.58 -1.68,1.38 -0.44,2.09 3.17,3.09 4.41,3.16l1.62 0.09 0.09 0.72c0.09,0.44 0.25,0.3 0.34,0.53l0.18 0.69c0,-0.14 0.07,-0.29 0.09,-0.52 0.11,0.07 0.16,0.19 0.25,0.3 0.19,0.24 0.34,0.1 0.51,0.33 0.1,0.13 0.23,0.33 0.36,0.42l-0.17 -0.69c0.29,0.02 0.69,0.72 0.86,0.91 0.52,0.59 1.63,0.79 2.15,0.54 0.21,0.32 0.32,0.33 0.27,0.67 -0.35,2.15 -1.62,2.35 -0.06,2.94 0.45,0.17 0.85,0.34 1.35,0.42 0.78,0.13 2.68,0.08 3.49,-0.23 0.72,-0.28 0.56,-0.37 0.65,-1.03 0.07,-0.53 0.07,-1.03 0.21,-1.53 0.06,-0.22 0,-0.29 0.22,-0.13 0.96,0.67 1.58,0.19 1.72,0.19 0.03,0 0.15,0.04 0.2,0.06 1.44,0.33 2.84,-0.29 4.11,-0.91 0.84,-0.43 1.73,-1.37 1.26,-2.41 -0.35,-0.77 -1.56,-1.05 -2.71,-1.98 -0.29,-0.23 -0.68,-0.61 -0.96,-0.8 0.06,-0.7 0.08,-1.77 -0.27,-2.36l-0.44 -0.57c-0.32,-0.41 -1.26,-0.5 -1.37,-0.63 -0.13,-0.16 -0.71,-1.5 -1.21,-1.77 -0.58,-0.31 -1.71,0.22 -1.71,-0.05z"/>
   <path class="fil1" d="M17.33 5.91c0,0.13 -0.31,0.66 -0.39,0.79l-0.8 1.6c-0.09,0.22 -0.11,0.12 -0.19,0.42 -0.04,0.14 -0.37,0.8 -0.44,0.98 -0.27,0.72 -0.6,1.75 -0.73,2.48 -0.09,0.5 -0.16,0.94 -0.16,1.46 0,0.26 0.01,0.56 -0,0.81 -0.01,0.23 -0.03,0.41 -0.03,0.72 0,0.11 -0.02,0.5 0.01,0.59 0.03,0.1 0.01,0.08 0.1,0.1 0,0 0.01,0.1 0.17,-0.03 0.03,-0.02 0.11,-0.1 0.13,-0.13l1.06 -1.92c0,-0.01 0.01,-0.01 0.01,-0.02l0.04 -0.07c0.23,-0.35 0.52,-0.72 0.71,-1.05 0.23,-0.39 0.36,-0.58 0.6,-1.02 0.51,-0.98 1.06,-2.55 1.23,-3.66 0.01,-0.09 0.01,-0.15 0.02,-0.24 0.07,-0.33 0.08,-0.29 0.12,-0.72 0.01,-0.14 -0.02,-0.07 -0.01,-0.21 0.08,-1.01 0.06,-1.89 0.05,-2.9 -0,-0.26 0,-0.28 0.08,-0.47 0.04,-0.11 0.12,-0.31 0.12,-0.43 -0.11,0.07 -0.16,0.23 -0.22,0.36 -0.04,0.08 -0.06,0.13 -0.09,0.2l-1.25 2.22c-0.06,0.11 -0.03,0.13 -0.15,0.14zm-7.14 7.94c0.03,0.07 0.17,0.17 0.25,0.22 0.2,0.04 0.31,0.21 0.46,0.33 0.08,0.06 0.12,0.11 0.19,0.18l0.62 0.57c0.16,0.15 0.26,0.25 0.53,0.19 0.11,-0.23 0.02,-0.45 -0.04,-0.68 -0.06,-0.24 -0.11,-0.44 -0.19,-0.65 -0.04,-0.1 -0.06,-0.19 -0.11,-0.3l-0.24 -0.63c-0.05,-0.12 -0.08,-0.12 -0.11,-0.33 -0.06,-0.03 -0.03,0.01 -0.08,-0.06 -0.01,-0.01 -0.04,-0.07 -0.05,-0.09 -0.1,-0.18 -0.63,-1.08 -0.65,-1.21 -0.04,-0.05 -0.06,-0.11 -0.1,-0.16 -0.12,-0.05 -0.15,-0.1 -0.24,-0.24l-0.31 -0.39c-0.61,-0.8 -2.49,-2.54 -3.33,-3.44 -0.03,-0.03 -0.03,-0.03 -0.06,-0.06l-0.44 -0.49c-0.05,-0.06 -0.07,-0.07 -0.11,-0.12 -0.14,-0.17 -0.28,-0.34 -0.4,-0.52l-0.19 -0.27c-0.26,-0.34 -0.34,-0.52 -0.54,-0.82 -0.04,-0.05 -0.06,-0.07 -0.1,-0.13l-0.68 -1.14c-0.03,-0.05 -0.06,-0.1 -0.08,-0.15l-0.17 -0.27 0.32 2.86c0.03,0.41 0.13,0.78 0.2,1.13 0.02,0.12 0.01,0.11 0.05,0.21 0.09,0.26 0.11,0.43 0.23,0.7 0.01,0.02 0.02,0.03 0.03,0.08 0.19,0.56 0.64,1.42 0.98,1.91l0.53 0.68c0,0 0.01,0.01 0.01,0.01l1.73 1.48c0.1,0.08 0.2,0.14 0.3,0.22l1.5 1.11c0.12,0.09 0.22,0.11 0.29,0.25z"/>
   <path class="fil2" d="M13.62 19.24c-0.03,0.04 -0.01,0.01 -0.04,0.06l-0.24 0.63c-0.05,0.13 -0.1,0.2 -0.15,0.32l-0.14 0.33 0.32 0.35c0.11,-0.03 0.08,-0.06 0.24,-0.16 0.1,-0.06 0.15,-0.11 0.25,-0.16 0,-0.2 0.01,-0.34 0.14,-0.38 0.05,-0.02 0.15,-0.02 0.24,-0.02l0.22 -0.03c-0.17,-0 -0.18,-0.06 -0.3,-0.06 -0.12,0 -0.12,0.06 -0.25,0.04l-0.01 -0.33c0.13,-0.07 0.32,-0.14 0.52,-0.14 -0.08,-0.1 -0.15,-0.06 -0.26,-0.03 -0.1,0.02 -0.19,0.04 -0.29,0.06 -0.07,-0.24 -0.2,-0.27 0.12,-0.49 0.09,-0.06 0.16,-0.11 0.17,-0.24 -0.09,0.04 -0.13,0.13 -0.22,0.21 -0.06,0.05 -0.17,0.12 -0.24,0.17 -0.03,-0.04 -0.06,-0.09 -0.08,-0.12z"/>
   <path class="fil2" d="M11.5 21.1c0.03,-0.02 0.08,-0.04 0.11,-0.07l0.05 -0.04c0,-0 0.01,-0.01 0.02,-0.01l0.17 -0.15c0.1,-0.11 0.22,-0.19 0.3,-0.31l-0.37 -0.78c-0.03,-0.1 -0.04,-0.21 -0.06,-0.32 -0.09,0.05 -0.11,0.05 -0.18,0.14 -0.05,0.07 -0.09,0.12 -0.11,0.21 -0.08,-0.05 -0.26,-0.22 -0.32,-0.29 0,0.18 0.01,0.15 0.11,0.24 0.07,0.06 0.11,0.11 0.12,0.2l-0.04 0.44c-0.05,0.25 -0.28,-0.03 -0.43,-0.09 0.08,0.18 0.25,0.26 0.45,0.26 0.01,0.29 0.17,0.45 0.2,0.58z"/>
   <path class="fil3" d="M11.45 26.27c-0.1,-0.05 -0.17,-0.12 -0.29,-0.14l0.5 0.94c0.03,0.07 0.04,0.14 0.07,0.22 0.05,0.17 0.1,0.31 0.11,0.5l-0.13 -0.19c-0.06,-0.13 -0.22,-0.51 -0.28,-0.53 0,0.42 -0.16,0.94 -0.29,1.27 -0.08,0.23 -0.38,0.86 -0.5,1.01 0.15,0.1 0.95,0.4 1.16,0.46 1,0.3 1.83,0.2 2.86,0.11 0.46,-0.04 0.92,-0.14 1.25,-0.34 0,-0.92 0.12,-1.35 0.27,-2.16l0.3 -1.15c-0.36,0.37 -0.68,0.51 -1.31,0.29 -0.11,-0.04 -0.22,-0.09 -0.31,-0.14 -0.1,-0.05 -0.17,-0.12 -0.28,-0.17 -0.09,-0.04 -0.27,0.13 -0.57,0.24 -1.11,0.41 -1.62,0.07 -2.39,-0.16l-0.17 -0.07z"/>
   <path class="fil4" d="M6.87 21.21c0.06,-0.09 0.33,-0.28 0.46,-0.29 -0.02,0.06 -0.36,0.45 -0.55,0.9 -0.14,0.34 -0.25,0.78 -0.26,1.16 -0.01,0.38 0.02,0.58 0.09,0.87 0.07,-0.11 0.09,-0.38 0.11,-0.5 0.02,-0.17 0.05,-0.36 0.07,-0.51 0.09,0.13 0.06,0.37 0.08,0.5 0.01,0.1 0,0.17 0.02,0.26 0.07,0.32 0.2,0.79 0.48,0.97 -0.08,-0.35 -0.12,-0.63 -0.12,-1.01l0.24 0.36c0.31,0.46 0.44,0.5 0.69,0.76 0.07,0.07 0.07,0.1 0.17,0.12 -0.01,-0.14 -0.06,-0.22 -0.06,-0.38l0.02 0.04c0.12,0.29 0.22,0.61 0.41,0.86 0.61,0.82 1.53,0.85 2.38,0.44 0.15,-0.07 0.34,-0.21 0.43,-0.09 -0.14,0.01 -0.26,0.11 -0.4,0.14 0.02,0.23 0.45,0.4 0.64,0.49 0.22,0.11 1.06,0.32 1.35,0.28 0.11,-0.01 0.36,-0.05 0.47,-0.08 0.2,-0.04 0.66,-0.15 0.78,-0.32 -0.22,-0.26 -1.36,-0.65 -1.67,-0.7 -0.3,-0.04 -0.44,0 -0.72,0l0.14 -0.09c0.08,-0.03 0.08,-0.02 0.18,-0.02 0.16,-0 0.27,-0 0.38,0.03 0.12,0.03 0.22,0.03 0.34,0.07 0.1,0.03 0.18,0.06 0.31,0.09 1.04,0.26 2.27,1.47 2.91,0.75 0.12,-0.13 0.29,-0.31 0.31,-0.5 -0.53,-0.28 -1.07,-0.09 -1.68,-0.12 -0.77,-0.04 -1.36,-0.83 -2.25,-0.84 -0.9,-0.01 -1.91,1.06 -2.9,0.5 -0.8,-0.44 -1.26,-1.43 -1.43,-2.33 -0.05,-0.23 -0.26,-1.41 0.09,-1.61 0.24,-0.14 1.15,0.21 1.42,0.3 0.32,0.1 0.64,0.16 0.96,0.28 0.19,0.07 0.28,0.11 0.42,0.22 0.33,0.26 0.56,0.3 0.95,0.17 0.26,-0.09 0.19,-0.14 0.35,-0.26 0.11,0.16 0.17,0.23 0.35,0.31 0.35,0.17 0.67,0.19 0.92,-0.14 0.13,-0.18 0.12,-0.22 0.2,-0.44 0.15,-0.4 0.86,-0.62 1.28,-0.66 0.16,-0.01 0.43,-0.01 0.6,-0.04 0.11,-0.02 0.16,-0.04 0.31,-0 0.08,0.02 0.2,0.05 0.25,0.07 0.36,0.13 0.6,0.52 0.72,0.87 0.02,0.05 0.02,0.08 0.03,0.14 0.18,0.56 0.16,1 0.07,1.56 -0.03,0.18 -0.17,0.4 0.09,0.26 0.08,-0.04 0.14,-0.07 0.21,-0.11 0.55,-0.36 0.58,-1.37 0.53,-1.99 -0.03,-0.37 -0.14,-0.56 -0.29,-0.87 -0.07,-0.15 -0.17,-0.4 -0.3,-0.48 -0.12,-0.07 -1.09,0.16 -1.69,-0.13 -0.17,-0.08 -0.23,-0.21 -0.43,-0.17 -0.6,0.1 -1.33,0.41 -1.81,0.77 -0.12,0.09 -0.22,0.24 -0.35,0.28 -0.05,0.22 -0.37,0.54 -0.64,0.58 -0.28,0.04 -0.26,-0.32 -0.61,-0.56 -0.2,-0.14 -0.36,-0.13 -0.67,-0.13l-0.1 0.05c-0.13,0.02 -0.57,-0.08 -0.72,-0.11 -0.28,-0.06 -0.44,0.11 -0.75,0.06 -0.13,-0.02 -0.18,-0.13 -0.23,-0.23 -0.05,-0.09 -0.08,-0.2 -0.12,-0.31 -0.09,-0.23 -0.01,-0.19 -0.53,-0.34 -0.51,-0.15 -1.07,-0.03 -1.44,0.18 -0.25,0.14 -0.21,0.12 -0.4,0.27 -0.05,0.03 -0.07,0.05 -0.11,0.09 -0.14,0.14 -0.29,0.36 -0.3,0.57 0.12,-0.08 0.23,-0.23 0.35,-0.26z"/>
   <path class="fil4" d="M17.11 26.91c0.21,0 0.61,-0.22 0.77,-0.35 0.67,-0.55 1,-1.25 1.33,-2.06 0.26,-0.66 0.55,-1.45 0.68,-2.15 0.08,-0.45 0.17,-1.02 0.17,-1.48 0,-0.22 -0.04,-0.46 -0.05,-0.63 -0.01,-0.31 -0.16,-0.57 -0.27,-0.81 -0.17,-0.39 -0.63,-0.67 -1.01,-0.75 -0.52,-0.11 -1.38,-0.23 -1.91,-0.23 -0.28,0 -0.9,-0.06 -0.9,0.38 0,0.19 0.38,0.14 0.58,0.14 0.27,-0 1.1,0.02 1.32,0.06 0.2,0.04 0.37,0.07 0.53,0.17 0.38,0.24 0.59,0.62 0.71,1.05l0.15 0.89c0,0.41 -0.06,0.7 -0.06,0.9l-0.2 -1.3c-0.08,-0.41 -0.21,-0.77 -0.43,-1.04 -0.12,-0.15 -0.24,-0.24 -0.42,-0.33 -0.32,-0.16 -0.92,-0.17 -1.27,-0.21 -2.12,-0.23 -1.56,0.93 -1.17,1.19 0.22,0.15 0.36,0.15 0.55,0.2 0.08,0.02 0.08,0.05 0.18,0.05 0.56,0 0.51,-0.05 0.9,-0.09 -0.03,-0.1 -0.04,-0.06 -0.14,-0.21 -0.06,-0.1 -0.1,-0.11 -0.15,-0.19 0.14,0.01 0.04,-0.01 0.14,0.06 0.03,0.02 0.06,0.05 0.1,0.08 0.08,0.06 0.12,0.12 0.18,0.2 0.07,0.09 0.08,0.15 0.14,0.23 0.23,0.35 0.26,0.33 0.38,0.71l0.12 0.43c0.08,0.27 0.04,0.84 0.01,1.13 -0.01,0.07 -0,0.11 -0.02,0.18 -0.06,0.27 -0.1,0.48 -0.22,0.67 -0.15,0.23 -0.58,0.5 -0.95,0.5 -0.48,0 -0.74,-0.22 -1.1,-0.52 -0.14,-0.11 -0.26,-0.24 -0.42,-0.33 -0.34,-0.19 -0.49,-0.24 -0.74,-0.11 -0.39,0.21 -0.41,1.15 0.49,1.75 0.43,0.29 1.17,0.74 1.8,0.46 0.09,-0.04 0.26,-0.15 0.35,-0.17 -0.03,0.14 -0.08,0.17 -0.21,0.22 -0.1,0.04 -0.23,0.1 -0.34,0.1 0.14,0.19 0.37,0.08 0.46,0.2 -0.53,0.08 -0.28,-0.02 -0.58,-0.02 -0.12,0.25 -0.04,0.62 0.1,0.82 0.1,0.15 0.29,0.25 0.39,0.25z"/>
   <path class="fil4" d="M6.87 21.21c-0.07,0.11 -0.3,0.32 -0.43,0.35 0.01,-0.46 0.58,-0.97 1.02,-1.14 0.59,-0.23 0.85,-0.23 1.39,-0.11 0.16,0.03 0.25,0.12 0.39,0.13l0.03 -0.14c0.33,1.41 0.41,0.78 1.13,0.84 0.36,0.03 0.25,0.09 0.61,0.09 0,-0.44 -0.18,-0.46 -0.43,-0.66 -0.57,-0.45 -0.49,-0.71 -0.73,-0.92 -0.17,-0.15 -1.28,0.05 -1.38,-0.24 0.2,0.05 0.48,0.12 0.72,0.12l-0.17 -0.46c0.16,0.18 0.09,0.2 0.2,0.29 0,-1.38 0.32,-0.5 0.32,-1.5l0.2 0.32c0.2,0.34 0.45,0.5 0.84,0.63 0.97,0.34 1.14,-0.4 0.88,-0.74 -0.13,-0.17 -0.38,-0.31 -0.58,-0.43 -0.2,-0.12 -0.4,-0.25 -0.55,-0.44 -0.05,-0.06 -0.07,-0.07 -0.12,-0.14 -0.33,-0.42 -0.8,-0.36 -1.16,-0.04 -0.55,0.49 -0.46,1.39 -1.59,2.4 -0.11,0.1 -0.17,0.14 -0.27,0.25 -0.09,0.09 -0.16,0.16 -0.25,0.25 -0.22,0.23 -0.48,0.61 -0.58,0.92l-0.09 0.4c-0.03,0.25 0.06,0.67 0.26,0.72 0.03,-0.13 0.14,-0.27 0.22,-0.39 0.21,-0.36 0.2,-0.31 0.13,-0.33z"/>
   <path class="fil5" d="M12.28 22.43c-0.13,0.03 -0.33,0.12 -0.46,0.12 -0.92,0 -0.47,-0.32 -1.26,-0.5 -0.33,-0.08 -1.18,-0.33 -1.5,-0.46 -0.34,-0.14 -0.33,-0.07 -0.33,0.12 0,0.15 0.11,0.42 0.16,0.53 0.19,0.36 0.43,0.42 0.53,0.25l0.06 -0.14c0.05,0.19 0.09,0.37 0.26,0.49 0.67,0.5 0.56,0.06 0.67,-0.09 0.06,0.28 0.17,0.55 0.49,0.55 0.24,0 0.2,0 0.2,-0.23 0,-0.15 0.03,-0.13 0.03,-0.26l0.06 0c0,0.47 0.01,1.03 0.23,1.28 0.17,0.19 0.84,0.35 1.14,0.32 0.3,-0.02 0.43,0.01 0.62,-0.13 0.31,-0.21 0.5,-1.44 0.5,-1.73 -0.29,0.14 -0.57,0.14 -0.88,0.01 -0.14,-0.06 -0.19,-0.15 -0.34,-0.18l-0.17 1.37c-0,-0 -0,0.01 -0.01,0.02 -0.14,-0.58 0,-0.9 0,-1.33z"/>
   <path class="fil4" d="M10.75 16.47c0.09,0.02 0.16,0.11 0.26,0.18 0.44,0.29 -0.05,-0.38 -0.06,-0.7l0.03 0.06c0.17,0.33 0.2,0.47 0.56,0.74 0.24,0.18 0.58,0.39 1,0.39 0.4,0 0.72,-0.23 0.72,-0.49 0,-0.33 -0.02,-0.37 -0.42,-0.51 -0.7,-0.23 -0.84,-0.47 -1.41,-0.9 -0.19,-0.14 -0.36,-0.17 -0.64,-0.11 -0.56,0.12 -0.91,0.92 -0.91,1.37 0,0.18 0.04,0.14 0.19,0.22 0.08,0.04 0.15,0.08 0.21,0.14 0.01,0.01 0.03,0.03 0.05,0.04 0,0 0.01,0.01 0.01,0.01 0,0 0.01,0.01 0.01,0.01l0.25 0.27c0.12,-0.03 0.17,-0.13 0.26,-0.2 0.08,-0.06 0.17,-0.12 0.2,-0.23 -0.14,-0.04 -0.26,-0.17 -0.32,-0.29z"/>
   <path class="fil5" d="M10.2 24.22c0,0.18 0.25,0.44 0.26,0.69 -0.09,-0.06 -0.23,-0.34 -0.33,-0.48 -0.02,-0.03 -0.1,-0.13 -0.13,-0.13 -0.12,0 -1.04,0.4 -0.21,0.85 0.47,0.26 0.46,0.24 1.11,0.02 0.85,-0.28 1.67,-0.75 2.52,-0.33 0.39,0.19 1.41,0.7 1.7,0.7 0.05,0 0.11,-0.04 0.14,-0.06 -0.02,-0.18 -0.18,-0.22 -0.4,-0.44l-0.38 -0.43c-0.05,0.1 -0.06,0.21 -0.12,0.29 0,-0.23 0.09,-0.36 0.01,-0.53 -0.1,-0.23 -0.07,-0.21 -0.07,-0.54 -0.17,-0.09 -0.38,-0.2 -0.64,-0.2 -0.1,0 -0.19,0.43 -0.27,0.6 -0.17,0.38 -0.73,0.31 -1.07,0.25 -0.08,-0.01 -0.21,-0.03 -0.26,-0.03 -0.98,-0.13 -0.83,-0.45 -1.03,-0.76 -0.07,0.02 -0.84,0.37 -0.84,0.52z"/>
   <path class="fil5" d="M15.61 22.45c0,0.15 -0.01,0.17 0.12,0.2 0.1,0.03 0.17,0.02 0.24,0.01 0.1,-0.01 0.17,-0 0.24,-0.05 0.12,-0.08 0.16,-0.29 0.2,-0.38 0.03,-0.1 0.05,-0.1 0.08,-0.21 0.08,-0.28 0.28,-0.55 -0.04,-0.7 -0.55,-0.26 -0.54,0.1 -0.6,0.2 0,-0.14 -0.01,-0.13 -0.03,-0.23 -0.11,-0.03 -0.19,-0.07 -0.33,-0.05 -0.12,0.02 -0.24,0.02 -0.33,0.05 -0.31,0.08 -0.3,0.1 -0.37,0.41 -0.05,-0.03 -0.11,-0.14 -0.26,-0.14 -0.28,-0 -0.48,0.24 -0.57,0.47l-0.04 0.11c-0.02,0.06 -0.02,0.11 -0.03,0.17l-0.21 0.78c-0.02,0.08 -0.09,0.21 0.07,0.21 0.16,0 0.52,-0.2 0.67,-0.37l0.14 -0.21c0,0.15 -0.03,0.13 -0.03,0.26 0.41,0 1,0.01 1.04,-0.52l0.06 0z"/>
   <path class="fil5" d="M13.62 19.24c0.02,0.03 0.05,0.08 0.08,0.12 0.07,-0.05 0.18,-0.12 0.24,-0.17 0.09,-0.08 0.13,-0.17 0.22,-0.21 -0.01,0.13 -0.08,0.18 -0.17,0.24 -0.33,0.22 -0.2,0.24 -0.12,0.49 0.1,-0.02 0.18,-0.04 0.29,-0.06 0.11,-0.02 0.18,-0.07 0.26,0.03 -0.2,0 -0.39,0.08 -0.52,0.14l0.01 0.33c0.13,0.02 0.13,-0.04 0.25,-0.04 0.12,-0 0.14,0.05 0.3,0.06l-0.22 0.03c-0.09,-0 -0.18,0 -0.24,0.02 -0.13,0.05 -0.14,0.18 -0.14,0.38 0.62,-0.37 0.88,-0.15 0.98,-0.5 0.16,-0.56 0.32,-1.52 0.15,-2.11 -0.06,-0.19 -0.19,-0.56 -0.38,-0.6 -0.34,-0.06 -0.91,1.54 -0.99,1.84z"/>
   <path class="fil4" d="M6.15 21.18c0,-0.35 0.28,-0.84 0.49,-1.08 0.14,-0.16 0.12,-0.18 0.31,-0.32 0.07,-0.06 0.1,-0.07 0.13,-0.16 -0.44,-0.15 -0.91,0.23 -1.18,0.5 -0.33,0.33 -0.33,0.47 -0.43,0.81 -0.09,0.31 -0.05,0.75 0.08,1.07 0.1,0.26 0.48,0.7 0.76,0.72l0.26 -0.52c-0.23,-0.34 -0.4,-0.28 -0.4,-1.01z"/>
   <path class="fil4" d="M17.92 27.4c0.23,0 0.41,-0.13 0.53,-0.25 0.13,-0.13 0.24,-0.25 0.35,-0.4 0.06,-0.08 0.09,-0.13 0.16,-0.22 0.15,-0.2 0.32,-0.53 0.32,-0.81 0,-0.42 -0.09,-0.36 -0.14,-0.61l-0.06 0c-0.02,0.23 -0.21,0.53 -0.32,0.69 -0.07,0.11 -0.13,0.18 -0.21,0.28 -0.08,0.1 -0.14,0.19 -0.22,0.27 -0.48,0.49 -0.69,0.67 -1.32,0.67 0.12,0.17 0.61,0.38 0.93,0.38z"/>
   <path class="fil5" d="M11.5 21.1c-0.03,-0.13 -0.2,-0.29 -0.2,-0.58 -0.19,0 -0.37,-0.08 -0.45,-0.26 0.16,0.06 0.39,0.35 0.43,0.09l0.04 -0.44c-0.01,-0.09 -0.05,-0.14 -0.12,-0.2 -0.1,-0.08 -0.11,-0.06 -0.11,-0.24 0.06,0.07 0.24,0.24 0.32,0.29 0.02,-0.09 0.06,-0.14 0.11,-0.21 0.07,-0.09 0.09,-0.09 0.18,-0.14 0,-0.27 -0.04,-0.39 -0.02,-0.66l-0.01 -0.15c-0.11,0.09 -0.15,0.43 -0.77,0.34 -0.36,-0.05 -0.35,-0.11 -0.36,0.12 -0,0.18 0,0.37 0,0.55 -0,0.18 0.01,0.37 0.03,0.54 0.05,0.33 0.28,0.15 0.52,0.61 0.13,0.23 0.02,0.08 0.2,0.35 0.03,0 0.08,0 0.11,-0 0.01,-0 0.02,-0 0.02,-0l0.06 -0.02z"/>
   <path class="fil5" d="M10.93 17.48c0.05,0.08 0.34,0.25 0.43,0.32 0.27,0.2 0.25,0.31 0.35,0.38 0,-0.28 0.08,-0.73 -0.11,-0.9 -0.25,-0.22 -0.55,0.04 -0.67,0.21z"/>
   <path class="fil6" d="M13.78 21.27c0.43,-0.17 1.28,-0.47 2.15,-0.65 0.87,-0.19 1.77,-0.26 2.33,-0.29 0.57,-0.03 0.81,-0.02 1.06,-0.02 -0.56,0.04 -1.11,0.08 -1.71,0.16 -0.6,0.07 -1.25,0.18 -1.95,0.35 -0.7,0.17 -1.45,0.4 -1.83,0.53 -0.38,0.13 -0.39,0.16 -0.41,0.17 -0.02,0.01 -0.05,-0 -0.06,-0.02 -0.01,-0.02 -0,-0.06 0.43,-0.22z"/>
   <path class="fil6" d="M13.87 21.6c0.46,-0.13 1.37,-0.35 2.3,-0.46 0.93,-0.11 1.88,-0.1 2.49,-0.08 0.61,0.02 0.87,0.05 1.13,0.08 -0.59,-0.01 -1.18,-0.02 -1.83,0.01 -0.64,0.02 -1.33,0.07 -2.08,0.18 -0.75,0.11 -1.55,0.27 -1.95,0.37 -0.41,0.1 -0.42,0.12 -0.44,0.13 -0.02,0.01 -0.05,-0.01 -0.07,-0.03 -0.01,-0.02 -0,-0.06 0.45,-0.18z"/>
   <path class="fil6" d="M13.94 21.91c0.41,-0.03 1.22,-0.06 2.03,0.02 0.81,0.09 1.63,0.29 2.15,0.44 0.52,0.14 0.74,0.23 0.96,0.31 -0.51,-0.13 -1.02,-0.26 -1.57,-0.37 -0.55,-0.11 -1.15,-0.21 -1.81,-0.26 -0.66,-0.05 -1.37,-0.06 -1.73,-0.05 -0.36,0.01 -0.38,0.04 -0.4,0.04 -0.02,0 -0.05,-0.02 -0.05,-0.04 -0.01,-0.03 0,-0.06 0.41,-0.09z"/>
   <path class="fil6" d="M11.14 21.28c-0.43,-0.2 -1.28,-0.57 -2.16,-0.83 -0.87,-0.26 -1.77,-0.4 -2.33,-0.48 -0.57,-0.08 -0.81,-0.09 -1.06,-0.1 0.56,0.09 1.11,0.17 1.71,0.3 0.6,0.12 1.25,0.28 1.95,0.51 0.7,0.23 1.45,0.52 1.83,0.68 0.38,0.16 0.39,0.19 0.41,0.2 0.02,0.01 0.05,0 0.06,-0.02 0.01,-0.02 0,-0.06 -0.43,-0.26z"/>
   <path class="fil6" d="M11.05 21.61c-0.46,-0.17 -1.37,-0.47 -2.3,-0.65 -0.93,-0.19 -1.88,-0.26 -2.49,-0.29 -0.61,-0.03 -0.87,-0.02 -1.13,-0.02 0.59,0.04 1.18,0.08 1.83,0.16 0.64,0.07 1.33,0.18 2.08,0.35 0.75,0.17 1.55,0.4 1.95,0.53 0.41,0.13 0.42,0.16 0.44,0.17 0.02,0.01 0.05,-0 0.07,-0.02 0.01,-0.02 0,-0.06 -0.45,-0.22z"/>
   <path class="fil6" d="M10.98 21.91c-0.41,-0.06 -1.22,-0.16 -2.03,-0.14 -0.81,0.02 -1.63,0.16 -2.15,0.26 -0.52,0.1 -0.74,0.17 -0.96,0.23 0.51,-0.09 1.02,-0.18 1.57,-0.25 0.55,-0.07 1.15,-0.11 1.81,-0.11 0.66,0 1.37,0.06 1.73,0.1 0.36,0.04 0.38,0.07 0.4,0.07 0.02,0 0.04,-0.01 0.05,-0.04 0.01,-0.02 -0,-0.06 -0.41,-0.12z"/>
   <path class="fil7" d="M11.22 26.26c0.05,0.04 0.11,0.08 0.17,0.12 0.32,0.21 0.79,0.51 1.29,0.6 0.5,0.09 1.03,-0.02 1.38,-0.08 0.35,-0.06 0.52,-0.08 0.7,-0.1 0.17,0.2 0.33,0.4 0.48,0.49 0.15,0.1 0.27,0.09 0.39,0.08 0.04,0.53 0.09,1.06 0.13,1.43 0.05,0.37 0.09,0.57 0.14,0.78 0,-0.92 0.12,-1.35 0.27,-2.16l0.3 -1.15c-0.36,0.37 -0.68,0.51 -1.31,0.29 -0.11,-0.04 -0.22,-0.09 -0.31,-0.14 -0.1,-0.05 -0.17,-0.12 -0.28,-0.17 -0.09,-0.04 -0.27,0.13 -0.57,0.24 -1.11,0.41 -1.62,0.07 -2.39,-0.16l-0.17 -0.07c-0.1,-0.05 -0.17,-0.12 -0.29,-0.14l0.07 0.13z"/>
   <path class="fil8" d="M12.15 20.85c0.1,-0.24 0.59,-0.31 0.78,-0.12 -0.64,0 -0.34,0.03 -0.78,0.12zm-1.71 -1.23c0,-0.71 0.13,-0.76 -0.22,-0.78 -0.23,-0.02 -0.25,0.04 -0.33,0.19 -0.08,0.17 -0.15,0.2 -0.18,0.37 0.58,0.27 0.57,0.8 0.79,1 0.1,0.1 0.16,0.12 0.28,0.14 -0.15,-0.15 -0.35,-0.03 -0.35,-0.93zm0.68 1.67l0.1 -0.05 0.01 -0.09c-0.04,-0.04 -0.07,-0.07 -0.09,-0.11l-0.08 -0.12c0,0.07 0.02,0.16 0.03,0.23 0.03,0.16 0.08,0.04 0.03,0.14zm-6.67 0.63c0.11,-0.3 0.24,-0.56 0.55,-0.67 -0.03,0.19 -0.07,0.14 -0.17,0.3l-0.36 0.65c-0.06,0.12 -0.06,0.1 -0.11,0.12 -0.05,-0.1 -0.09,-0.25 -0.1,-0.4 -0.01,-0.21 0.07,-0.21 0.1,-0.36 0.13,0.05 0.08,-0.04 0.07,0.17 -0.01,0.1 -0.01,0.11 0.02,0.18zm-2.2 -1.36c-0,-0.18 -0.04,-0.12 0.04,-0.31l0.02 -0.04c0.02,-0.04 0.03,-0.04 0.05,-0.06l0.02 0.12c0.25,-0.07 0.19,-0.14 0.29,-0.14 0.11,-0 0.04,-0.01 0.1,0.05 -0.41,0.14 -0.23,0.32 -0.52,0.38zm4.51 -2.14c0.03,-0.19 0.28,-0.48 0.49,-0.58 -0.04,0.19 -0.09,0.1 -0.17,0.29 0.11,0.02 0.14,-0 0.22,-0.02 0.18,-0.04 0.18,0.01 0.21,0.05l-0.75 0.26zm0.36 1.13c0.08,0 0.61,-0.59 0.7,-0.71 0.51,-0.66 0.67,-1.36 1.02,-1.81 0.34,-0.43 0.57,-0.38 0.93,-0.46l0.01 -0.22c-0.38,0 -1,0.24 -1.28,0.39 -0.37,0.2 -0.69,0.42 -1.01,0.64 -0.37,0.25 -0.88,0.65 -1.27,0.84 -0.42,0.2 -0.37,0.19 -0.87,0.35 -0.84,0.29 -1.57,0.2 -1.98,0.28 -0.79,0.14 -1.46,-0.06 -2.24,0.36 -0.18,0.1 -0.24,0.15 -0.35,0.29 -0.06,0.07 -0.34,0.28 -0.34,0.68 0,0.71 0.24,0.9 0.62,1.18 0.05,0.04 0.08,0.06 0.13,0.1 0.11,0.08 0.21,0.13 0.32,0.2 0.29,0.18 0.47,0.24 0.76,0.39l0.26 0.1c1.07,0.46 2.31,0.56 3.46,0.56 -0.03,-0.06 -0.33,-0.25 -0.49,-0.49 -0.31,-0.46 -0.26,-1.21 -0.02,-1.7 0.13,-0.27 0.27,-0.35 0.43,-0.56l-1.23 0.03c-1.17,0.01 -1.18,-0.15 -1.53,-0.18 -0.37,-0.04 -0.81,-0.06 -1.16,0.05 -0.11,0.03 -0.07,0.04 -0.21,0.04 0.09,-0.13 0.06,-0.06 0.1,-0.08l0.74 -0.18 -0.59 -0.13c-0.07,-0.02 -0.02,0.01 -0.06,-0.03 0.39,-0.08 0.31,-0.13 0.72,-0l0.33 0.13c0.85,0.26 1.97,0.35 2.87,0.26 0.14,-0.01 0.19,-0.07 0.29,-0.14 0.41,-0.25 0.55,-0.18 0.96,-0.18zm12.84 6.45c0.01,0.24 0.05,0.44 -0.06,0.65 -0.06,0.12 -0.07,0.11 -0.14,0.13 0,-0.3 -0,-0.28 -0.1,-0.5l-0.03 -0.08c0.12,0.03 0.21,0.11 0.23,0.23 0.08,-0.37 0.02,-0.24 0.04,-0.33 0.01,-0.12 -0.02,-0.05 0.07,-0.1zm1.46 -0.55c0.05,-0.1 0.09,-0.07 0.15,-0.25 0.04,-0.12 0.05,-0.24 0.05,-0.38 0.1,0.05 0.03,-0.03 0.08,0.09 0.08,0.19 -0,0.77 -0.43,0.92 0.11,-0.46 -0.01,-0.43 -0.03,-0.67 0.12,0.02 0.17,0.02 0.17,0.29zm-0.45 -1.76c-0.4,0 -0.51,-0.22 -0.65,-0.52l0.2 0.2c0.03,0.03 0.18,0.18 0.21,0.16 0.03,-0.02 -0.07,-0.14 -0.12,-0.25 -0.05,-0.11 -0.08,-0.2 -0.09,-0.34l0.1 0.11c0.12,0.22 0.1,0.25 0.33,0.45l0.09 0.17c-0.06,0.03 0.08,0.03 -0.07,0.03zm-1.52 0.87c0.04,-0.02 0.36,-0.08 0.43,-0.09 0.16,-0.04 0.3,-0.07 0.46,-0.09 0.77,-0.14 2.11,-0.52 2.64,0.09 -0.29,-0.06 -0.59,-0.16 -0.91,-0.16 -0.33,0 -1.16,0.14 -1.43,0.26 -0.28,0.12 -0.29,0.16 -0.68,0.16 -0.22,-0 -0.59,-0.07 -0.66,0.11 -0.06,0.15 0.46,0.72 -0.05,1.66 -0.12,0.23 -0.44,0.68 -0.43,0.79 1.13,0.29 2.36,-0.18 3.28,-0.6 0.65,-0.3 1.62,-0.79 1.67,-1.62 0.04,-0.82 -0.89,-1.08 -1.71,-1.58 -0.46,-0.28 -0.55,-0.35 -0.97,-0.68 -0.14,-0.11 -0.32,-0.24 -0.44,-0.36 -0.09,-0.09 -0.35,-0.33 -0.46,-0.35l-0.3 1.31c-0.07,0.21 -0.12,0.43 -0.2,0.61 -0.06,0.12 -0.24,0.43 -0.24,0.54zm-3.93 -7.66c0.12,0.06 0.33,0.47 0.38,0.6 0.08,0.17 0.21,0.6 0.28,0.73 0.12,0.01 0.29,-0.03 0.45,-0.03 0.41,-0 1.14,0.14 1.32,0.12 -0.04,-0.05 -0.05,-0.1 -0.09,-0.17l-0.5 -0.86c-0.44,-0.65 -0.43,-0.6 -0.95,-0.55 -0.23,0.02 -0.75,0.07 -0.89,0.17zm-2.93 2.63c0.14,-0.09 0.16,0.03 0.14,0.16 -0.07,0.54 0.14,0.95 0.45,0.23 0.24,-0.56 0.81,-2.2 1.09,-2.52 0.19,-0.21 0.91,-0.43 0.98,-0.03 -0.19,-0.07 -0.38,-0.16 -0.58,-0.03 0.74,0.39 0.4,2.7 0.17,3.01 0.09,-0.02 0.35,-0.09 0.4,-0.13 -0.06,-0.2 -0.19,-0.29 -0.15,-0.54 0.03,-0.23 0.11,-0.32 0.14,-0.58 0.07,-0.66 -0.02,-0.87 -0.05,-1.38 0.31,0.22 0.14,1.27 0.14,1.42 0.25,-0.2 0.25,-0.07 0.35,-0.43 0.06,-0.22 0.23,-0.33 0.35,-0.45 -0.13,-0.23 -0.86,-2.97 -2.1,-0.93l-0.13 0.19c0,-0.18 0.09,-0.48 0.16,-0.65 0.43,-1 0.91,0.04 1.16,-1.19 -0.88,0.99 -0.62,-0.6 -0.61,-1.3 0.01,-0.28 -0.01,-0.58 0,-0.87 0.09,-1.73 0.51,-2.69 1.05,-4.16 0.2,-0.54 0.88,-1.89 1.22,-2.49 0.13,-0.23 0.39,-0.78 0.53,-0.94 0.03,-0.21 0.36,-0.7 0.48,-0.91 0.42,-0.74 0.85,-1.49 1.22,-2.25 0.15,-0.32 0.29,-0.24 0.18,0.07 -0.35,0.98 -0.29,1.1 -0.3,2.23 -0,0.43 -0.04,0.95 -0.02,1.33 0.03,0.44 -0.09,0.83 -0.11,1.27 -0.05,1.14 -0.84,3.14 -1.37,4.18 -0.51,0.99 -1.75,2.43 -2.1,3.47l2.25 -3.23c0.61,-1.01 1.36,-2.75 1.6,-3.87 0.38,-1.74 0.53,-3.71 0.43,-5.47 -0.02,-0.39 0.06,-2.03 -0.15,-2.24 -0.12,0.12 -0.16,0.3 -0.24,0.47 -0.61,1.39 -1.26,2.43 -1.95,3.72 -0.48,0.89 -1,1.9 -1.52,2.73 -0.15,0.24 -0.24,0.47 -0.36,0.7 -0.35,0.67 -0.62,1 -1,1.84 -0.05,0.13 -0.06,0.11 -0.12,0.23 -0.19,0.38 -0.3,0.97 -0.31,1.38 -0,0.14 -0.02,0.21 -0.03,0.31 -0.06,0.66 0.01,1.45 0.04,2.08 0.02,0.33 0.21,1.86 0.02,1.95 -0.28,0.13 -0.33,-0.87 -0.43,-0.93 -0.03,0.13 -0.14,0.32 -0.17,0.46 -0.11,-0.04 -0.07,0.04 -0.09,-0.15 -0.04,-0.32 -0.01,-0.86 -0.02,-1.2 -0.01,0.12 -0.04,0.07 -0.06,0.22l-0.12 0.79c-0.12,-0.02 -0.11,-0.01 -0.14,-0.14 -0.07,0.13 -0.06,0.34 -0.19,0.4 -0.08,-1.5 -0.14,-2.14 -0.79,-3.54 -0.84,-1.84 -2.06,-3.32 -3.46,-4.78 -1.14,-1.19 -3.11,-2.8 -3.99,-4.22 -0.37,-0.6 -0.54,-1.35 -0.76,-1.37 -0.26,0.32 -0.34,1.86 -0.32,2.39 0.07,2.07 0.36,3.96 1.33,5.82 0.18,0.34 0.46,0.81 0.69,1.1 1.19,1.4 1.39,1.5 3.01,2.4 0.45,0.25 1.02,0.49 1.43,0.8 0.5,0.38 0.6,0.32 1.32,0.93 0.49,0.41 0.94,0.89 1.56,1.13 0.21,0.08 0.47,0.14 0.57,0.33 0.23,0.43 -0.18,0.93 -0.76,0.94 -0.69,0 -1.22,-0.5 -1.3,-0.49l-0.62 0.51c0.08,0.04 0.11,0.1 0.19,0.13 0.12,-0.09 0.14,-0.23 0.38,-0.29 0.73,-0.19 0.61,0.74 0.57,1.35 -0.12,1.62 0.43,1.7 0.44,2.1 -0.17,0.16 -0.44,0.49 -0.64,0.53 0.04,0.09 -0.05,0.02 0.09,0.09 0.37,0.17 0.28,0.1 0.58,0.41 0,-0 0.01,0.01 0.02,0.01 0.1,-0.04 0.4,-0.05 0.53,-0.06 0.24,-0.01 0.18,-0.14 0.35,-0.22 0.02,-0.13 0.16,-0.24 0.25,-0.3 -0.18,-0.06 -0.41,-0.43 -0.43,-0.55 -0.13,0.23 -0.57,0.1 -0.36,-0.99zm-1.93 -8.28l0.29 0.37c0.3,0.33 0.52,1.02 0.75,1.44 0.24,0.45 0.81,1.92 0.64,2.29 -0.22,0.48 -1.03,-0.4 -1.24,-0.61l-0.57 -0.52c-0.05,-0.05 -0.05,-0.07 -0.09,-0.12 -0.07,-0.05 -0.22,-0.14 -0.25,-0.22 -0.18,-0.04 -1.05,-0.73 -1.26,-0.9 -0.59,-0.41 -0.55,-0.35 -1.26,-0.88 -0.38,-0.29 -1.15,-0.93 -1.41,-1.28 -1.52,-2.12 -1.86,-2.97 -2.13,-5.89 -0.01,-0.16 -0.24,-1.82 -0.19,-1.86 0.15,-0.1 0.17,0.08 0.24,0.2 0.61,1.11 2.14,3.45 2.91,4.09l0.24 0.25 2.98 3.07c0.14,0.15 0.31,0.37 0.37,0.57zm1.33 6.27c0.03,0.2 0.06,0.41 0.06,0.66 0,0.25 -0.02,0.55 -0.04,0.72 -0.02,0.17 -0.03,0.21 -0,0.12 0.03,-0.09 0.1,-0.32 0.14,-0.53 0.04,-0.21 0.05,-0.4 0.02,-0.56 -0.03,-0.16 -0.1,-0.28 -0.17,-0.4zm1.17 0.12c-0.07,0.11 -0.15,0.3 -0.2,0.51 -0.05,0.21 -0.08,0.43 -0.08,0.6 0,0.17 0.03,0.29 0.06,0.41 0.02,-0.34 0.05,-0.68 0.12,-0.95 0.07,-0.28 0.18,-0.48 0.21,-0.58 0.03,-0.1 -0.03,-0.09 -0.1,0.02zm-1.16 3.48c0.11,-0.04 0.21,-0.08 0.31,-0.1 0.1,-0.02 0.21,-0.02 0.34,-0.01 0.13,0.01 0.29,0.04 0.45,0.06 -0.11,-0.04 -0.22,-0.08 -0.35,-0.11 -0.13,-0.03 -0.27,-0.06 -0.4,-0.03 -0.13,0.03 -0.24,0.12 -0.35,0.2z"/>
  </g>
 </g>
</svg>
