<?xml version="1.0" encoding="UTF-8"?>
<!DOCTYPE svg PUBLIC "-//W3C//DTD SVG 1.1//EN" "http://www.w3.org/Graphics/SVG/1.1/DTD/svg11.dtd">
<!-- Creator: CorelDRAW -->
<svg xmlns="http://www.w3.org/2000/svg" xml:space="preserve" width="16.0892mm" height="14.6828mm" version="1.1" style="shape-rendering:geometricPrecision; text-rendering:geometricPrecision; image-rendering:optimizeQuality; fill-rule:evenodd; clip-rule:evenodd"
viewBox="0 0 80.33 73.31"
 xmlns:xlink="http://www.w3.org/1999/xlink"
 xmlns:xodm="http://www.corel.com/coreldraw/odm/2003">
 <defs>
  <style type="text/css">
   <![CDATA[
    .fil3 {fill:#010AAA}
    .fil2 {fill:#010AAC}
    .fil10 {fill:#03030B}
    .fil0 {fill:#040202}
    .fil5 {fill:#090605}
    .fil4 {fill:#990100}
    .fil12 {fill:#E4E4E3}
    .fil11 {fill:#E6E6E6}
    .fil9 {fill:#F5CA02}
    .fil8 {fill:#F60303}
    .fil1 {fill:#FBCA01}
    .fil13 {fill:#FBFCFC}
    .fil6 {fill:#FDCB01}
    .fil7 {fill:#FDFDFD}
   ]]>
  </style>
 </defs>
 <g id="Camada_x0020_1">
  <metadata id="CorelCorpID_0Corel-Layer"/>
  <g id="Figs_Desenho_SemVar_027">
   <path class="fil0" d="M33.2 51.66c1.31,-0.05 2.64,0.17 4,0.16 1.99,-0.01 1.87,-0 2.93,1.04 1.03,1.01 3.6,2.74 2.63,5.43 -1.46,4.04 -6.53,3.35 -8.89,3.52 -1.21,0.08 -2.24,0.62 -3.45,0.47 -0.66,-1.11 -0.31,-1.34 -2.17,-0.76 -0.77,0.24 -1.67,0.62 -1.85,1.48 -0.43,2 2.19,2.45 3.92,2.48 3.66,0.08 9.76,-0.76 11.15,2.31 -2.53,-0.06 -4.19,-0.13 -6.61,0.21 -2.14,0.29 -3.98,0.84 -6.38,0.65 -2.13,-0.17 -3.81,-1.11 -4.73,-2.26 -1.06,-1.32 -1.43,-3.83 -0.35,-5.42 2.98,-4.36 11.73,-0.02 13.61,-3.24 0.52,-0.88 0.56,-1.97 -0.37,-2.5 -1.43,-0.81 -3.03,-1.71 -3.44,-3.56zm18.13 -1.3c1.27,-0.61 1.29,0.17 3.18,-1.67 1.08,0.56 2.04,2.16 2.54,3.68 1.69,5.14 -3.16,9.53 -5.11,13.25 -2.18,4.15 2.12,6.02 5.33,3.4 0.59,-0.49 0.93,-1.04 1.5,-1.57 1.8,-1.68 3.03,-4.03 5.04,-4.59 -0.41,0.92 -0.96,1.17 -1.58,1.94 -1.51,1.88 -2.74,3.96 -4.46,5.74 -3.27,3.38 -7.42,1.63 -8.77,-1.34 -1.64,-3.6 1,-7.94 2.62,-10.12 0.76,-1.02 2.36,-2.62 2.36,-4.44 0.01,-2.26 -1.97,-3.11 -2.64,-4.29zm-25.87 -1.15c0.69,0.57 1.56,0.59 2.21,1.15 -0.42,1.45 -1.45,1.36 -1.26,3.44 0.06,0.67 0.24,1.28 0.39,1.89 0.11,0.47 0.25,0.98 0.08,1.45 -0.23,0.64 -0.1,0.24 -0.3,0.47 -1.03,-2.17 -2.31,-3.53 -2.45,-6.05l-0.01 -2.08c0.17,-0.61 -0.15,-0.41 0.49,-0.54 -0.72,-0.96 -3.04,-1.39 -3.26,-2.44 9.41,-0.97 7.32,2.59 14.78,4.3 0.51,0.12 1.9,0.26 2.31,0.41 -1.33,0.74 -7.9,-0.47 -9.96,-1.06 -0.9,-0.26 -2.09,-0.75 -3.02,-0.94zm25.48 -2.5l-1.38 0.09 -0.12 -1.39c1.03,-0.06 2.25,-0.25 1.5,1.3zm-3.63 0.24l-0 -1.42c0.92,-0.12 2.04,-0.37 2.01,0.7 -0.03,1.05 -1.21,0.81 -2,0.72zm-8.59 -1.86c1,-0.28 2.15,0.84 2.94,1.21 4.68,2.18 9.02,0.03 10.85,1.07 0.77,3.74 -9.2,0.95 -11.22,0.18 -1.3,-0.5 -2.83,-0.81 -2.57,-2.45zm-28.83 13.17c1.06,-0.4 2.21,-0.35 3.34,-0.85 0.75,-0.34 0.78,-0.45 1.26,-0.94 0.58,-0.59 0.64,-0.46 1.38,-0.79 -0.08,-3 -5.91,-2.31 -8.77,-6.79 -1.19,-1.86 -0.95,-4.4 0.26,-6.08 1.31,-1.83 3.72,-1.54 6.31,-1.31 0.84,1.59 0.61,2.91 3.29,4.16 1.22,0.57 4.84,0.99 4.94,2.46 -3.41,1.07 -7.44,-2.37 -9.07,-2.67 -2.25,-0.41 -3.6,1.33 -2.31,2.68 1.18,1.24 5.63,2.18 7.56,4.63 1.5,1.91 1.51,7.1 -3.52,7.13 -1.29,0.01 -4.29,-0.56 -4.67,-1.64zm67.71 -12.61c0.04,-1.16 0.11,-2.03 0.03,-3.21 -0.09,-1.33 0.13,-1.63 0.32,-2.78 0.26,-1.62 0.01,-4.31 1.04,-5.32 0.19,2 0.09,4.14 0.29,6.25 0.21,2.22 0.08,4.33 -1.67,5.06zm-19.7 -3.89c0.06,-0.46 1.35,-4.23 1.63,-4.63 2.19,-0.44 3.33,1.99 3.77,3.69 0.8,3.12 1.13,2.95 4.45,2.93 0.54,0.43 0.72,0.73 1.08,1.28 -1.06,1.61 -4.67,1.96 -6.41,0.83 -0.74,-0.48 -1.43,-1.49 -2.15,-2.1 -0.53,-0.45 -2.03,-1.54 -2.37,-1.99zm15.56 -3.92c2.54,0.94 3.86,3.61 3.4,7.07 -0.36,2.72 -2.38,6.63 -0.58,8.54 2.16,0.38 2.19,-1.52 3.24,-2.6 0.48,8.05 -6.5,7.57 -6.93,1.57 -0.21,-3.04 1.73,-4.15 0.85,-9.6 -0.18,-1.1 -0.46,-0.93 -0.7,-1.52 -0.36,-0.89 0.23,-2.84 0.72,-3.46zm-26.75 7.59c0.91,2.13 -1.02,1.94 -2.04,1.26 -0.17,-0.68 -0.23,-0.96 0.13,-1.46 0.55,-0.28 0.15,-0.12 0.37,-0.39l-0.93 0.02c0.67,1.42 -0.5,2.34 -2.05,1.28 -0.67,-0.45 -0.53,-1.1 -0.37,-1.88l0.84 0.02c-0.19,-0.23 0.05,-0.02 -0.26,-0.24 -0.15,-0.11 -0.24,-0.17 -0.43,-0.26 -0.48,-0.24 -0.39,-0.23 -0.95,-0.27 0.3,0.54 0.47,0.96 0.34,1.88 -1.56,0.04 -2.05,-1.02 -1.96,-2.47 0.69,-0.02 0.46,-0.07 0.98,0.24 -0.48,-0.96 -1.09,-0.92 -0.67,-2.59 0.34,-1.39 0.7,-1.58 2.2,-1.48 1.5,0.1 3.56,0.31 3.49,1.84 -0.04,0.74 -0.44,0.68 -0.86,1.07 0.77,0.18 0.97,0.52 1.38,1.02 -0,-1.06 -0.32,-1.31 0.13,-2.33 0.97,-0.21 0.99,0.19 1.73,0.47 0.72,0.27 1.21,0.08 1.86,0.46 0.63,0.37 1.78,2.31 1.34,3.28 -0.55,0.57 -1.02,0.43 -2.02,0.42l-1.98 0.03c-0.04,0.01 -0.1,0.04 -0.14,0.05 -0.04,0.01 -0.09,0.03 -0.14,0.05zm-32.37 -5.27c1.24,0.49 2.08,2.75 8.59,1.36 3.73,-0.8 4.95,-1.23 5.37,1.81 0.14,0.99 0.46,1.34 0.6,2.33 -3.25,-0.79 -0.76,-0.79 -4.57,0.08 -1.55,0.35 -3.34,0.35 -4.91,0.09 -3.29,-0.56 -5.65,-3.1 -5.09,-5.67zm36.8 -0.77c-0.65,-0.16 -0.78,-0.44 -1.33,-0.67 0,-0.96 0.3,-1.83 0.48,-2.68 2.61,0.1 2.1,2.04 0.86,3.35zm-2.18 -1.18c-0.79,-0.11 -1.17,-0.36 -1.79,-0.74 -0.09,-0.74 0.15,-1.37 0.47,-1.84 0.68,-0.46 3.53,-0.17 1.32,2.58zm-2.35 -0.88c-0.95,0.1 -1.81,-0.3 -2.57,-0.5 0.01,-0.91 0.26,-1.28 0.72,-1.96 0.73,-0.02 1.64,0.6 2.34,0.85 0,0.73 -0.06,1.08 -0.49,1.61zm-5.1 -0.66c-0.14,-0.82 1.59,-3.05 2.44,-2.16 0.38,0.39 0.09,1.64 -0.29,2 -0.44,0.42 -1.48,0.22 -2.15,0.17zm-0.17 -1.88c-0.35,-0.58 -0.34,-0.5 -0.22,-1.25 1.93,-0.68 4.04,0.47 5.83,0.81 1.85,0.36 5.06,-0.12 5.59,1.83 -1.14,-0.35 -1.07,-0.88 -2.59,-1.05 -1.15,-0.12 -2.4,-0.04 -3.44,-0.34 -0.88,-0.25 -1.8,-0.79 -2.62,-0.89 -1.62,-0.21 -1.56,1 -2.56,0.88zm26.21 7.6c-3.55,0.28 -2.6,-0.41 -3.76,-3.09 -1.07,-2.49 -3.53,-2.78 -3.81,-3.13 -0.3,-0.76 -0.21,-2.65 0.45,-3.13 1.11,-0.87 2.35,0.47 6.29,-1.46 0.82,-0.4 1.68,-0.85 2.47,-1.41 0.63,-0.45 1.69,-1.31 2.64,-1.55 0.74,3.87 -4.69,5.09 -4.27,13.77zm-42.06 -14.54c-0.53,2.52 -3.52,2.19 -1.81,-1.34 0.78,0.14 1.52,0.8 1.81,1.34zm34.45 0.07c0.98,-0.23 1.73,-0.07 2.7,-0.34 2.09,-0.58 3.81,-2.35 5.86,-3.28 3.68,-1.67 6.79,-0.46 7.54,3.14 0.67,3.22 -1.68,6.94 -2.75,9.35 -0.55,1.22 -1.42,3.24 -1.33,4.81 0.09,1.74 1.36,0.55 1.08,4.76 -3.64,-0.15 -5.59,-3.54 -4.61,-7.67 0.38,-1.62 3.28,-7.84 4.52,-8.34 0.97,0.49 0,0.5 1,0.61 0.66,-1.95 0.08,-3.16 -2.01,-3.27 -1.07,-0.06 -1.32,0.37 -1.96,0.91 -2.04,1.7 -8.06,5.03 -9.71,3.5 -0.39,-0.4 -0.22,-0.24 -0.26,-0.96 -0.05,-0.91 -0.21,-2.56 -0.07,-3.2zm-11.52 -0.71c0.02,0.02 1.8,3.95 0.52,5.29 -1.42,0.59 -2.26,-0.49 -2.83,-1.2 -1.44,-1.77 -2.15,0.75 -3.11,-0.25 -0.51,-0.53 -0.28,-1.19 0.58,-1.23 0.65,-0.03 1.5,0.34 1.98,-0.12 0.42,-0.4 0.33,-1.36 0.03,-1.83 -0.41,-0.65 -0.62,-0.21 -0.59,-1.36 0.75,-0.05 2.95,0.38 3.42,0.71zm-24.99 -0.95c-0.19,1.03 -1.18,2.65 -2.37,2.04 -1.03,-0.52 -0.71,-2.58 -0.24,-3.51 0.82,0.2 2.33,1.21 2.61,1.46zm0.56 -0.29c0.27,-0.69 0.84,-1.19 1.84,-1.03 0.6,0.96 0.47,1.23 0.13,2.43 -0.63,-0.14 -1.69,-0.98 -1.97,-1.4zm-6.45 0.87c-0.75,-1.12 -0.52,-2.19 0.05,-3.34 0.89,-0.03 2.21,0.49 2.76,1.09 -0.27,1.33 -1.13,2.47 -2.81,2.25zm3.44 -2.56c0.27,-0.96 1.57,-2.61 2.91,-2.21 1.66,0.5 0.22,2.86 -0.05,3.61 -0.83,-0.16 -2.28,-1.03 -2.86,-1.41zm-3.15 -1.31c0.25,-1.32 1.48,-3.65 3.08,-3.48 1.86,0.2 0.36,3.59 -0.31,4.42 -0.4,-0.04 -2.28,-0.79 -2.77,-0.94zm-16.25 4.95c0.34,-0.32 -0.1,-0.06 0.51,-0.31 0.15,-0.06 0.23,-0.06 0.39,-0.11 2.05,-0.54 3.09,-1.78 4.52,-3.26 1.05,-1.09 2.98,-3.56 5.29,-3.37 -0,0.15 -0.8,4.68 -0.87,4.92 -0.78,0.48 -1.69,0.58 -2.47,1.12 -0.78,0.54 -1.29,1.04 -2.05,1.51 -2.25,1.38 -3.52,0.2 -5.32,-0.5zm51.09 -16.08c5.08,-3.69 8.43,0.19 11.49,1.8 1.95,1.03 4.83,1.22 5.61,-0.89 1.06,-2.84 -0.25,-4.58 -1.31,-6.18 3.86,2.25 4.73,8.19 2.07,10.22 -2.87,2.18 -5.61,1.65 -8.34,-0.28 -1.77,-1.26 -0.97,-0.83 -1.99,-1.68 0.15,-0.63 0.12,-0.3 0.19,-0.52l0.05 -0.29c-0.68,-0.45 -2.15,-0.79 -3.15,-0.46 -1.12,0.36 -1.02,1.54 -1.79,2.02l-2.83 -3.74zm-10.4 -6.13c1.87,0.73 1.17,1.36 1.66,3.4 0.35,1.43 1.13,2.29 1.82,3.12 0.31,0.38 0.95,0.93 1.29,1.25 1.02,0.98 3.59,2.02 4.95,2.4 -0.43,-1 -1.07,-1.48 -1.56,-2.61 -0.4,-0.91 -0.66,-2.18 -0.75,-3.28 0.97,0.25 3.09,2.82 3.88,3.68 3.35,3.66 6.29,11.21 6.04,16.34 -0.23,-0.9 -0.53,-1.9 -0.78,-2.99 -0.78,-3.35 -2.4,-5 -4.18,-7.41 -2.15,-2.91 -5.93,-3.09 -7.52,-3.98 -1.4,-0.78 -0.7,-1.75 -1.19,-2.62 -0.4,0.83 0.1,1.49 -0.07,2.57 -1.49,0.28 -2.76,-0.46 -3.12,-1.65 -0.35,-1.16 0.02,-3.06 -0.78,-3.9 -0.34,2.36 0.45,4.34 0.41,5.26 -5.08,1.83 -3.29,-6.01 -5.91,-7.65 0.26,1.36 0.86,1.98 1.39,4.75 0.43,2.24 1.69,2.13 0.81,4.27 0.48,-0.29 0.6,-0.69 1.21,-0.72 0.47,-0.02 0.92,0.28 1.66,0.2 0.66,-0.07 0.8,-0.41 1.5,-0.31 0.4,0.06 0.79,0.39 1.33,0.5 0.94,0.2 2.31,0.08 3.46,0.31 4.78,0.96 7.88,4.34 9.85,8.77 1.59,3.58 2.12,8.74 0.74,12.8 -1.25,3.7 -6.5,11.17 -6.91,7.27 -0.22,-2.09 -0,-8.06 2.01,-8.73 0.94,1.86 -0.07,4.24 1.14,4.84 0.15,-0.21 0.03,0.2 0.17,-0.39l-0.05 -1.47c-0.9,-6.25 -2.07,-5.64 -2.88,-7.01 -0.33,-0.55 -0.14,-0.9 -0.6,-1.46 -0.38,-0.47 -0.62,-0.43 -0.92,-0.85l0.42 -0.69c1.77,0.43 4.63,3.25 6.22,3.49 -0.17,-1.66 -3.38,-2.36 -4.65,-3.57 -0.25,-0.24 -0.07,-0.03 -0.28,-0.32 1.51,0.23 3.62,1.25 5,0.85 -0.73,-1.18 -3.65,-0.92 -4.84,-1.66 0.98,-0.37 3.69,0.79 4.24,-0.55 -1.19,-0.54 -4.58,0.51 -5.36,-0.66 0.99,-0.56 5.73,-0.24 6.19,-1.55 -0.66,-0.48 -3.17,0.57 -5.83,0.72 -1.91,0.11 -4.35,-0.29 -6.05,-0.76 -5.85,-1.6 -7.62,-4.55 -9.05,-4.66 0.15,1.14 2.3,2.33 3.19,2.97 1,0.71 0.23,0.22 0.66,1.17 0.77,0.28 2.38,0.61 2.81,1.21 -1.38,0.22 -3.98,0.02 -5.5,-0.01 -0.85,-0.01 -4.54,-0.36 -5.23,0.23 0.51,0.82 2.77,0.35 4.73,0.44l0.06 0.45c0.01,0.14 -0.06,0.06 -0.01,0.41 0.72,-0 4.3,-0.25 4.84,0.24 -1.03,0.37 -2.44,0.58 -3.42,0.75 -1.82,0.3 -3.14,0.14 -3.34,0.97 0.72,0.47 5,-0.77 5.69,-0.94 3.32,-0.85 4.43,-1.81 4.29,-0.01 -1.01,0.56 -1.53,0.11 -2.44,0.44 -1,0.37 -4.26,3.91 -10.17,6.02 -1.07,0.38 -1.5,0.37 -1.72,1.02 1.02,0.66 7.68,-3.42 8.65,-4.04 1.07,-0.68 1.66,-1.31 2.6,-1.69 0.55,0.6 0.36,0.74 1.17,1.16 0.94,-0.02 0.91,-0.4 1.68,-0.54 1.05,0.5 1.34,1.81 2.68,1.93 0.21,0.02 3.13,-0.58 4.03,-0.09 0.41,0.44 0.95,1.15 0.99,1.83 -0.51,-0.24 -0.94,-0.75 -1.72,-0.95 -0.78,-0.2 -1.77,-0.04 -2.63,-0.09 -2.64,-0.14 -8.42,-3.03 -7.75,0.1 0.56,2.64 0.53,0.74 -0.7,3.85 -1.32,3.34 -0.33,5.18 -1.33,6.87 -1.9,3.22 5.59,4.07 7.92,4.72 -0.24,0.59 -0.68,0.56 -1.48,0.7 -4.2,0.72 -8.41,0.38 -12.23,-1.25 -4.96,-2.13 -2.47,-2.66 -3.53,-4.81 -0.54,-1.11 -0.43,-2.22 -1.11,-2.99 -0.81,-0.91 -1.79,-0.76 -3.1,-0.9 0.42,-1.09 1.47,-0.69 1.08,-2.54 -0.22,-1.06 -0.87,-1.72 -1.12,-2.65 -0.43,-1.58 0.88,-1.2 1.37,-2.09 0.71,-1.32 -0.38,-1.95 -0.91,-2.57 0.2,-1.4 0.79,-3.26 1.47,-4.24 1.54,0.27 1.18,0.69 2.3,-0.43 1.72,0.2 2.2,-0.42 2.73,-1.72l-0.54 0.57c-0.17,0.2 -0.22,0.29 -0.39,0.45 -0.4,0.38 -0.74,0.5 -1.47,0.44 -2.62,-1.76 1.51,-4.57 -0.5,-5.66 -0.36,0.52 0.27,1.29 -0.23,2.45 -2.56,0.3 -1.46,-6.57 1.09,-5.15 0.63,0.49 0.33,0.84 0.92,1.48 -0.27,-3.43 -2.35,-1.19 -4.42,-2.19 -2.16,-1.03 -1.61,-2.66 -1.04,-4.18l0.24 -0.52c0.05,-0.3 2.84,-1.16 4.05,-1.99 1.86,-1.28 1.08,-1.79 2.09,-3.88 1.4,-2.92 6.99,-0.07 9.59,-0.18 -0.61,-0.44 -1.18,-0.26 -1.68,-0.7 0.76,-0.75 3.2,-1.84 4.61,-1.72 2.99,0.25 0.99,3.17 2.39,4.06 0.59,-0.8 0.26,-1.88 0.32,-3.19 2.34,0.42 2.34,2.02 2.4,4.47 0.09,3.97 0.66,3.58 0.88,5.9 -2.13,-0.48 -3.89,-2.09 -4.89,-3.72 -1.13,-1.84 -0.97,-6.15 -3.04,-5.08zm-18.32 5.48l0.87 -1c2.23,-3.09 0.75,-7.29 4.81,-7.13 -0.22,0.67 -1.67,2.12 -1.32,2.97 1.04,-0.31 1.21,-2.49 2.76,-3.21 1.73,-0.8 3.4,0.15 3.97,1.35 -1.9,-0.15 -2.88,-0.33 -3.74,1.14 -0.84,1.43 -0.17,2.5 -1.4,3.55 -0.74,0.63 -5.73,3.26 -6.58,3.42l0.63 -1.09zm1.83 -5.85c0.39,0.46 0.22,0.79 0.07,1.43 -0.83,3.53 -1.18,2.66 -1.91,4.42 -0.37,0.22 -0.64,0.67 -0.79,1.13 -0.18,-0.29 -0.12,-0.56 -0.14,-0.71 -0.38,0.5 -0.82,0.89 -1.19,1.36 -0.93,1.15 -0.17,0.9 -0.58,1.64l-1.13 1.42c-0.3,0.42 -0.74,1.07 -0.76,1.58 0.3,-0.62 4.72,-3.78 6.57,0.32 0.57,1.27 0.62,2.85 1.45,3.85 0.2,0.24 1.98,0.95 0.88,4.15 -3.68,-0.41 -1.22,-13.16 -7.3,-8.54 -2.82,2.14 -6.58,10 -3.17,12 1.16,0.69 3.34,0.8 4.89,1.05 1.26,0.2 4.23,0.51 3.31,2.22 -0.72,1.23 -1.47,0.12 -3.53,-0.15 -1.19,-0.15 -2.99,-0.14 -3.77,-0.74 0.64,0.96 3.85,1.43 4.84,2.56 0.85,0.97 2.73,3.52 1.72,5.17 -0.93,0.3 -1.47,0.13 -2.4,0.07 0.51,2.01 -0.11,2.01 -2.24,2.1 -1.55,0.06 -3.17,-0.16 -4.3,-0.78 -1.7,-0.93 -3.12,-3.81 -3.81,-6.26 -0.83,-2.94 -0.97,-6.04 -0.63,-9.18 0.16,-1.48 0.42,-2.82 0.75,-4.22l1.03 -3.53c0,-0.03 -0.01,-0.09 -0.01,-0.12l-0.05 -0.23 -1.21 3.01c-3.99,0.18 -4.56,3.59 -8.2,5.98 -1.42,0.93 -2.37,0.5 -4.16,0.55 0.3,0.76 3.5,2.85 5.8,2.47 2.13,-0.35 2.98,-2.82 5.55,-2.88 0.32,4.15 0.03,7.18 1.62,11.26 0.59,1.51 0.98,1.36 0.82,3.31 -1.38,0.21 -2.77,-0.4 -4.56,0.06 -3.56,0.92 -5.03,6.3 -1.03,9.78 1.39,1.21 5.46,2.89 5.51,4.83 0.04,1.73 -1.59,2.01 -3.18,1.85 -1.53,-0.14 -1.94,-0.44 -3.09,-0.76l-0.73 -0.07c-1.82,0.33 2.14,1.87 2.4,1.99 1.14,0.53 2.34,1.11 3.65,1.43 3.11,0.76 5.85,-0.33 6.7,-2.86 1.11,-3.3 -1.18,-5.5 -2.83,-6.61 -1.08,-0.72 -2.12,-1.19 -3.22,-1.68 -1.28,-0.57 -2.84,-0.8 -2.69,-2.44 0.95,-0.81 1.79,-1 3.01,-0.3 2.24,1.28 2.46,1.8 5.8,2.27 1.05,0.15 3.35,-0.07 4.01,0.21 0.42,2.29 -0.35,2.94 0.83,5.34 0.7,1.42 1.56,2.6 2.24,4.05 1.2,-1 0.38,-2.64 0.17,-3.97 -0.26,-1.67 0.75,-2.77 1.31,-3.64l4.25 0.87c1.35,2.28 1.3,2.9 4.33,4.5 0.66,3.74 -4.52,1.87 -9.7,2.52 -6.03,0.76 -6.54,7.28 -1.33,10.21 1.53,0.86 3.5,0.84 5.4,0.6 1.88,-0.24 3.58,-0.74 5.34,-0.85 2.11,-0.14 4.09,0.14 6.09,0.11 -0.49,-2.52 -3.25,-3.35 -5.42,-3.48 -2.57,-0.14 -6.27,0.36 -8.53,-0.38 -0.25,-3.05 8.8,-1.41 12.49,-3.27 1.53,-0.77 3.34,-2.55 2.62,-5.17 -0.56,-2.02 -3.08,-3.16 -3.35,-4.59 0.84,-0.46 3.69,-0.52 4.87,-0.77 1.34,-0.29 3.53,-1.11 4.86,-0.31 2.81,1.7 2.7,5.03 0.91,8.08 -1.37,2.34 -3.53,4.31 -3.33,8.47 0.23,4.76 4.17,5.32 5.45,6.16 4.02,0.86 6.82,-3.2 8.96,-6.03 4.89,-6.49 2.08,-3.09 7.48,-7.87 -0.46,-0.16 -3.96,1.62 -4.75,2.07 -5.76,3.31 -5.11,5.26 -7.7,7.08 -1.74,1.22 -4.83,1.03 -4.31,-1.66 0.28,-1.42 1.89,-3.77 2.57,-4.76 2.15,-3.17 4.05,-7.33 1.97,-11.09 -1.42,-2.57 -2.69,-2.72 -3.66,-3.85 0.33,-0.67 2.47,-3.01 3.03,-3.63 1.42,-1.55 3.02,0.86 3.73,1.72 0.85,1.03 2.26,2.37 4.34,2.34 2.27,-0.03 3.29,-0.91 4.87,-1.77 0.73,0.26 0.75,0.54 3.3,1.4 0.31,1.88 -2.93,7.05 1.37,9.94 1.85,1.24 3.58,0.76 4.64,-0.63 1.43,-1.87 0.75,-3.5 1.42,-5.21l0 -2.2 -0.26 -0.37c-0.43,0.89 -0.79,1.79 -1.24,2.53 -0.47,0.77 -1.02,1.97 -2.13,1.66 -0.78,-1.38 0.18,-3.69 0.53,-5.18 0.46,-1.95 1.92,-1.15 2.68,-3.44 0.45,-1.36 -0.05,-3.99 -0.23,-5.43 -0.29,-2.26 -0.31,-3.62 -0.14,-5.91 -2.33,1.35 -1.46,5.51 -2.3,7.92 -0.58,-1.09 -1.24,-2.18 -2.21,-2.93l-1.26 -0.62c0.41,-0.92 1.21,-1.97 1.73,-3.06 0.49,-1.04 1,-2.27 1.3,-3.49 0.71,-2.9 -0.55,-5.84 -2.43,-6.92 -5.64,-3.25 -9.33,4.64 -14.31,3.46 -0.63,-0.78 -1.14,-3.95 -1.63,-5.34l-2.16 -5.03c-0.78,-2.76 3.07,-1.66 4.27,-0.92 1.43,0.88 2.65,2.16 4.35,2.79 6.95,2.57 13.25,-8.42 2.1,-13.34 0.23,0.95 3.16,2.5 2.73,5.7 -0.41,3 -2.57,3.45 -5.16,2.11 -2.37,-1.22 -5.38,-4.1 -9.34,-3.06 -1.53,0.4 -1.84,1.17 -2.91,1.47 -0.84,-0.91 -1.5,-1.49 -2.63,-2.37 -0.14,-1.47 0.24,-3.19 -0.51,-4.35 -0.66,-1.01 -1.92,-1.12 -3.16,-1.54 -4.99,-1.68 -4.22,2.28 -9.28,1.19 -1.87,-0.4 -1.33,-3.13 -4.52,-2.55l-3.84 0.93c-1.54,0.6 -1.46,1.29 -2.58,2.36z"/>
   <path class="fil1" d="M38.67 16.67c-0.79,1.2 -1.17,0.59 -2.57,0.94 -0.76,0.19 -1.24,1.31 -1.61,1.95 -0.87,1.51 -1.71,3.04 -2.6,4.46 -0.53,1.3 -1.01,1.93 -2.73,1.72 -1.12,1.12 -0.76,0.7 -2.3,0.43 -0.69,0.98 -1.28,2.84 -1.47,4.24 0.53,0.62 1.63,1.25 0.91,2.57 -0.49,0.89 -1.8,0.51 -1.37,2.09 0.25,0.93 0.9,1.59 1.12,2.65 0.39,1.85 -0.66,1.44 -1.08,2.54 1.31,0.14 2.28,-0.02 3.1,0.9 0.68,0.77 0.57,1.88 1.11,2.99 1.05,2.15 -1.43,2.68 3.53,4.81 3.82,1.64 8.03,1.97 12.23,1.25 0.8,-0.14 1.25,-0.11 1.48,-0.7 -2.33,-0.65 -9.82,-1.5 -7.92,-4.72 1,-1.69 0.01,-3.53 1.33,-6.87 1.23,-3.11 1.26,-1.21 0.7,-3.85 -0.66,-3.13 5.11,-0.24 7.75,-0.1 0.86,0.05 1.86,-0.11 2.63,0.09 0.78,0.2 1.21,0.71 1.72,0.95 -0.04,-0.68 -0.58,-1.39 -0.99,-1.83 -0.9,-0.49 -3.82,0.11 -4.03,0.09 -1.34,-0.12 -1.63,-1.43 -2.68,-1.93 -0.77,0.13 -0.74,0.52 -1.68,0.54 -0.82,-0.42 -0.63,-0.56 -1.17,-1.16 -0.94,0.38 -1.53,1.01 -2.6,1.69 -0.97,0.62 -7.62,4.7 -8.65,4.04 0.22,-0.65 0.65,-0.63 1.72,-1.02 5.92,-2.12 9.17,-5.66 10.17,-6.02 0.91,-0.33 1.43,0.13 2.44,-0.44 0.13,-1.81 -0.98,-0.84 -4.29,0.01 -0.7,0.18 -4.97,1.42 -5.69,0.94 0.2,-0.83 1.52,-0.67 3.34,-0.97 0.99,-0.16 2.4,-0.38 3.42,-0.75 -0.54,-0.49 -4.11,-0.24 -4.84,-0.24 -0.05,-0.35 0.01,-0.27 0.01,-0.41l-0.06 -0.45c-1.96,-0.08 -4.21,0.38 -4.73,-0.44 0.69,-0.59 4.38,-0.24 5.23,-0.23 1.52,0.02 4.12,0.23 5.5,0.01 -0.43,-0.6 -2.04,-0.93 -2.81,-1.21 -0.42,-0.95 0.34,-0.46 -0.66,-1.17 -0.89,-0.63 -3.04,-1.82 -3.19,-2.97 1.42,0.11 3.19,3.07 9.05,4.66 1.71,0.47 4.14,0.87 6.05,0.76 2.67,-0.15 5.18,-1.2 5.83,-0.72 -0.47,1.31 -5.2,0.99 -6.19,1.55 0.79,1.17 4.18,0.11 5.36,0.66 -0.55,1.34 -3.26,0.18 -4.24,0.55 1.19,0.74 4.12,0.48 4.84,1.66 -1.39,0.39 -3.5,-0.63 -5,-0.85 0.2,0.29 0.03,0.08 0.28,0.32 1.28,1.21 4.49,1.91 4.65,3.57 -1.59,-0.24 -4.45,-3.05 -6.22,-3.49l-0.42 0.69c0.31,0.41 0.55,0.38 0.92,0.85 0.45,0.56 0.27,0.92 0.6,1.46 0.82,1.36 1.98,0.75 2.88,7.01l0.05 1.47c-0.14,0.59 -0.02,0.18 -0.17,0.39 -1.21,-0.6 -0.19,-2.98 -1.14,-4.84 -2.01,0.67 -2.22,6.64 -2.01,8.73 0.4,3.9 5.65,-3.57 6.91,-7.27 1.38,-4.06 0.85,-9.22 -0.74,-12.8 -1.97,-4.43 -5.07,-7.82 -9.85,-8.77 -1.15,-0.23 -2.52,-0.11 -3.46,-0.31 -0.53,-0.11 -0.93,-0.44 -1.33,-0.5 -0.71,-0.11 -0.84,0.23 -1.5,0.31 -0.74,0.08 -1.19,-0.22 -1.66,-0.2 -0.61,0.03 -0.73,0.42 -1.21,0.72z"/>
   <path class="fil2" d="M24.77 5.59l0.65 0.17c-0.8,0.26 -2.42,1.23 -3.23,1.72 -1.2,0.73 -2.13,1.57 -2.97,1.95l-0.48 0.37c-0.18,0.16 -0.32,0.3 -0.44,0.41 -0.29,0.3 -0.54,0.56 -0.82,0.88 -1.74,1.94 -2.66,3.86 -3.92,6.24l0.05 0.23c0,0.03 0.01,0.09 0.01,0.12l-1.03 3.53c-0.33,1.4 -0.59,2.74 -0.75,4.22 -0.34,3.14 -0.2,6.24 0.63,9.18 0.69,2.44 2.11,5.32 3.81,6.26 1.13,0.62 2.75,0.84 4.3,0.78 2.13,-0.09 2.75,-0.09 2.24,-2.1 0.93,0.06 1.47,0.24 2.4,-0.07 1.01,-1.64 -0.87,-4.2 -1.72,-5.17 -1,-1.13 -4.2,-1.61 -4.84,-2.56 0.79,0.6 2.58,0.59 3.77,0.74 2.06,0.27 2.81,1.38 3.53,0.15 0.92,-1.71 -2.05,-2.02 -3.31,-2.22 -1.55,-0.25 -3.73,-0.37 -4.89,-1.05 -3.4,-2 0.35,-9.86 3.17,-12 6.09,-4.62 3.62,8.12 7.3,8.54 1.1,-3.2 -0.68,-3.9 -0.88,-4.15 -0.82,-1 -0.87,-2.58 -1.45,-3.85 -1.85,-4.1 -6.27,-0.94 -6.57,-0.32 0.02,-0.52 0.46,-1.16 0.76,-1.58l1.13 -1.42c0.41,-0.73 -0.34,-0.48 0.58,-1.64 0.38,-0.47 0.81,-0.86 1.19,-1.36 0.02,0.15 -0.04,0.42 0.14,0.71 0.16,-0.47 0.42,-0.92 0.79,-1.13 0.73,-1.76 1.07,-0.89 1.91,-4.42 0.15,-0.64 0.32,-0.97 -0.07,-1.43l-1.02 0.26z"/>
   <path class="fil3" d="M30.95 9.77c0.02,-0.04 0.26,-0.44 0.26,-0.45 0.18,-0.23 0.08,-0.11 0.28,-0.28 1.43,0.23 1.43,2.02 1.87,3.32 0.42,1.25 0.94,2.4 1.31,3.68 -2.01,-0.72 -2.95,0.46 -3.93,-1.69 -0.97,-2.11 0.1,-3.01 2.12,-2.93 -0.36,-1.41 -0.89,-0.57 -2.07,-0.73 -0.03,-0.41 0,-0.56 0.16,-0.92zm0.93 14.26c0.89,-1.42 1.73,-2.94 2.6,-4.46 0.37,-0.65 0.85,-1.76 1.61,-1.95 1.4,-0.35 1.78,0.25 2.57,-0.94 0.89,-2.15 -0.37,-2.04 -0.81,-4.27 -0.54,-2.77 -1.14,-3.39 -1.39,-4.75 2.62,1.64 0.83,9.47 5.91,7.65 0.04,-0.92 -0.75,-2.9 -0.41,-5.26 0.8,0.84 0.43,2.74 0.78,3.9 0.36,1.19 1.63,1.94 3.12,1.65 0.17,-1.09 -0.34,-1.75 0.07,-2.57 0.49,0.87 -0.21,1.83 1.19,2.62 1.59,0.89 5.37,1.07 7.52,3.98 1.78,2.41 3.4,4.06 4.18,7.41 0.25,1.09 0.55,2.09 0.78,2.99 0.26,-5.14 -2.68,-12.69 -6.04,-16.34 -0.79,-0.86 -2.91,-3.43 -3.88,-3.68 0.09,1.09 0.35,2.37 0.75,3.28 0.5,1.13 1.14,1.61 1.56,2.61 -1.37,-0.37 -3.93,-1.42 -4.95,-2.4 -0.34,-0.33 -0.98,-0.87 -1.29,-1.25 -0.68,-0.83 -1.47,-1.7 -1.82,-3.12 -0.5,-2.04 0.2,-2.67 -1.66,-3.4l-0.99 -0.01c-2.61,0.11 -8.19,-2.74 -9.59,0.18 -1,2.09 -0.23,2.6 -2.09,3.88 -1.21,0.83 -4,1.69 -4.05,1.99l-0.24 0.52c-0.57,1.52 -1.12,3.15 1.04,4.18 2.07,0.99 4.15,-1.24 4.42,2.19 -0.59,-0.65 -0.29,-1 -0.92,-1.48 -2.55,-1.42 -3.65,5.45 -1.09,5.15 0.5,-1.16 -0.13,-1.93 0.23,-2.45 2.01,1.08 -2.12,3.9 0.5,5.66 0.73,0.06 1.07,-0.06 1.47,-0.44 0.17,-0.16 0.22,-0.26 0.39,-0.45l0.54 -0.57z"/>
   <path class="fil1" d="M33.2 51.66c0.41,1.85 2.01,2.76 3.44,3.56 0.94,0.53 0.89,1.61 0.37,2.5 -1.88,3.23 -10.63,-1.12 -13.61,3.24 -1.09,1.59 -0.71,4.1 0.35,5.42 0.92,1.15 2.6,2.1 4.73,2.26 2.4,0.19 4.25,-0.35 6.38,-0.65 2.43,-0.34 4.09,-0.27 6.61,-0.21 -1.39,-3.07 -7.49,-2.23 -11.15,-2.31 -1.73,-0.04 -4.35,-0.49 -3.92,-2.48 0.19,-0.86 1.09,-1.24 1.85,-1.48 1.87,-0.58 1.51,-0.35 2.17,0.76 1.21,0.15 2.24,-0.39 3.45,-0.47 2.36,-0.17 7.42,0.52 8.89,-3.52 0.98,-2.7 -1.59,-4.42 -2.63,-5.43 -1.06,-1.04 -0.94,-1.05 -2.93,-1.04 -1.37,0.01 -2.7,-0.21 -4,-0.16z"/>
   <path class="fil1" d="M59.93 27.91c-0.14,0.65 0.02,2.3 0.07,3.2 0.04,0.73 -0.13,0.57 0.26,0.96 1.65,1.54 7.67,-1.8 9.71,-3.5 0.64,-0.53 0.89,-0.96 1.96,-0.91 2.09,0.11 2.67,1.32 2.01,3.27 -1,-0.11 -0.03,-0.13 -1,-0.61 -1.25,0.5 -4.14,6.73 -4.52,8.34 -0.98,4.13 0.97,7.51 4.61,7.67 0.28,-4.21 -0.99,-3.02 -1.08,-4.76 -0.09,-1.56 0.79,-3.58 1.33,-4.81 1.07,-2.42 3.42,-6.13 2.75,-9.35 -0.75,-3.6 -3.86,-4.81 -7.54,-3.14 -2.05,0.93 -3.77,2.7 -5.86,3.28 -0.98,0.27 -1.72,0.11 -2.7,0.34z"/>
   <path class="fil1" d="M9.89 58.26c0.38,1.08 3.38,1.65 4.67,1.64 5.03,-0.03 5.02,-5.22 3.52,-7.13 -1.93,-2.45 -6.38,-3.4 -7.56,-4.63 -1.29,-1.35 0.06,-3.09 2.31,-2.68 1.63,0.3 5.66,3.73 9.07,2.67 -0.1,-1.47 -3.72,-1.89 -4.94,-2.46 -2.68,-1.25 -2.45,-2.57 -3.29,-4.16 -2.59,-0.23 -4.99,-0.53 -6.31,1.31 -1.21,1.68 -1.45,4.22 -0.26,6.08 2.87,4.48 8.7,3.8 8.77,6.79 -0.74,0.32 -0.8,0.19 -1.38,0.79 -0.48,0.49 -0.5,0.61 -1.26,0.94 -1.13,0.5 -2.28,0.45 -3.34,0.85z"/>
   <path class="fil1" d="M51.62 59.1c-1.62,2.18 -4.25,6.52 -2.62,10.12 1.35,2.97 5.5,4.71 8.77,1.34 1.72,-1.78 2.95,-3.86 4.46,-5.74 0.62,-0.77 1.17,-1.02 1.58,-1.94 -2.01,0.56 -3.24,2.91 -5.04,4.59 -0.56,0.53 -0.9,1.08 -1.5,1.57 -3.21,2.62 -7.51,0.75 -5.33,-3.4 1.95,-3.72 6.8,-8.11 5.11,-13.25 -0.5,-1.52 -1.46,-3.12 -2.54,-3.68 -1.89,1.84 -1.91,1.05 -3.18,1.67 0.68,1.19 2.65,2.03 2.64,4.29 -0.01,1.82 -1.61,3.42 -2.36,4.44z"/>
   <path class="fil1" d="M8.68 13.02c-0.55,-0.82 0.18,-0.8 -0.94,-1.08 -0.52,-0.12 -1.49,-0.16 -2.08,-0.17 -0.8,-0.01 -3.31,0.02 -3.62,0.78 1.06,0.38 2.04,0.53 3.07,0.94 3.7,1.46 6.44,3.04 8.95,-0.41 1.98,-2.72 1.3,-6.21 4.06,-8.74 0.68,-0.63 2.21,-1.25 2.58,0.11 -0.71,-0.35 -0.45,-0.2 -1.31,-0.34 -0.19,0.48 -0.29,0.46 -0.48,0.88 0.31,0.78 0.6,0.59 0.85,1.36 0.21,0.64 0.04,1.42 0.02,2.12l4.28 -2.62c0.57,-4.45 -5.17,-8.04 -8.65,-2.72 -1.96,2.99 -2.61,9.92 -6.74,9.9z"/>
   <path class="fil1" d="M52.67 11.83l2.83 3.74c0.77,-0.48 0.67,-1.66 1.79,-2.02 1.01,-0.33 2.48,0.01 3.15,0.46l-0.05 0.29c-0.06,0.22 -0.04,-0.11 -0.19,0.52 1.03,0.85 0.22,0.43 1.99,1.68 2.72,1.93 5.47,2.46 8.34,0.28 2.66,-2.03 1.79,-7.96 -2.07,-10.22 1.06,1.6 2.37,3.33 1.31,6.18 -0.79,2.12 -3.66,1.92 -5.61,0.89 -3.06,-1.61 -6.42,-5.5 -11.49,-1.8z"/>
   <path class="fil1" d="M73.45 37.84c-0.49,0.61 -1.08,2.57 -0.72,3.46 0.24,0.59 0.53,0.43 0.7,1.52 0.89,5.46 -1.06,6.57 -0.85,9.6 0.42,5.99 7.41,6.48 6.93,-1.57 -1.05,1.08 -1.08,2.98 -3.24,2.6 -1.8,-1.91 0.21,-5.81 0.58,-8.54 0.46,-3.47 -0.86,-6.13 -3.4,-7.07z"/>
   <path class="fil1" d="M28.3 43.32c-0.43,-3.03 -1.64,-2.6 -5.37,-1.81 -6.52,1.39 -7.35,-0.87 -8.59,-1.36 -0.56,2.56 1.81,5.11 5.09,5.67 1.57,0.27 3.35,0.27 4.91,-0.09 3.81,-0.87 1.32,-0.87 4.57,-0.08 -0.15,-1 -0.47,-1.34 -0.6,-2.33z"/>
   <path class="fil1" d="M41.28 5.68l0.99 0.01c2.07,-1.07 1.91,3.24 3.04,5.08 1,1.63 2.76,3.24 4.89,3.72 -0.22,-2.32 -0.78,-1.93 -0.88,-5.9 -0.06,-2.45 -0.06,-4.05 -2.4,-4.47 -0.06,1.31 0.27,2.39 -0.32,3.19 -1.4,-0.89 0.59,-3.81 -2.39,-4.06 -1.41,-0.12 -3.85,0.97 -4.61,1.72 0.5,0.44 1.06,0.25 1.68,0.7z"/>
   <path class="fil4" d="M40.38 43.15l0.64 0.35c0.56,0.03 0.47,0.03 0.95,0.27 0.19,0.09 0.29,0.16 0.43,0.26 0.31,0.22 0.07,0.01 0.26,0.24l1.58 0.58 0.93 -0.02c-0.23,0.27 0.17,0.11 -0.37,0.39 0.67,-0.07 1.42,-0 1.9,0.2 0.04,-0.03 0.1,-0.05 0.14,-0.05 0.03,-0.01 0.09,-0.04 0.14,-0.05l1.98 -0.03c1,0.02 1.47,0.16 2.02,-0.42 0.44,-0.97 -0.71,-2.91 -1.34,-3.28 -0.65,-0.39 -1.15,-0.19 -1.86,-0.46 -0.73,-0.28 -0.75,-0.68 -1.73,-0.47 -0.45,1.01 -0.13,1.26 -0.13,2.33 -0.4,-0.5 -0.61,-0.84 -1.38,-1.02 0.42,-0.39 0.82,-0.32 0.86,-1.07 0.08,-1.53 -1.99,-1.74 -3.49,-1.84 -1.5,-0.1 -1.85,0.09 -2.2,1.48 -0.41,1.67 0.19,1.63 0.67,2.59z"/>
   <path class="fil1" d="M57.9 41.77c0.34,0.45 1.84,1.54 2.37,1.99 0.72,0.61 1.41,1.62 2.15,2.1 1.75,1.13 5.35,0.78 6.41,-0.83 -0.37,-0.55 -0.55,-0.84 -1.08,-1.28 -3.32,0.02 -3.64,0.19 -4.45,-2.93 -0.44,-1.71 -1.58,-4.13 -3.77,-3.69 -0.28,0.4 -1.57,4.17 -1.63,4.63z"/>
   <path class="fil5" d="M8.68 13.02c4.12,0.02 4.78,-6.91 6.74,-9.9 3.49,-5.32 9.22,-1.73 8.65,2.72l-4.28 2.62c0.03,-0.7 0.19,-1.48 -0.02,-2.12 -0.25,-0.77 -0.54,-0.58 -0.85,-1.36 0.19,-0.41 0.29,-0.4 0.48,-0.88 0.86,0.14 0.59,-0.01 1.31,0.34 -0.37,-1.36 -1.9,-0.74 -2.58,-0.11 -2.76,2.53 -2.08,6.01 -4.06,8.74 -2.51,3.45 -5.25,1.87 -8.95,0.41 -1.03,-0.41 -2.01,-0.56 -3.07,-0.94 0.31,-0.75 2.82,-0.78 3.62,-0.78 0.59,0 1.56,0.05 2.08,0.17 1.12,0.27 0.38,0.25 0.94,1.08zm9.7 -12.76c-1.86,0.49 -3.1,2.18 -3.88,3.83 -1.13,2.4 -2.01,7.17 -4.32,7.62 -1.32,0.26 -2.22,-0.47 -3.38,-0.61 -2.16,-0.26 -5.29,0.17 -5.96,1.76 4.46,0.71 1.88,0.1 6.01,1.73 1.71,0.68 4.2,1.61 6.14,0.48 1.6,-0.92 2.26,-2.46 3.02,-4.81 0.51,-1.56 1.29,-5.07 3.17,-4.52 0.66,0.88 0.5,2.96 0.04,3.68 0.84,-0.37 1.76,-1.22 2.97,-1.95 0.81,-0.49 2.43,-1.46 3.23,-1.72l-0.65 -0.17c-0.31,-1.12 -0.51,-2.38 -0.97,-3.37 -0.37,-0.81 -1.34,-1.8 -2.36,-1.94 -1.19,-0.37 -1.87,-0.36 -3.06,-0.03z"/>
   <path class="fil1" d="M23.95 11.18l-0.63 1.09c0.85,-0.16 5.84,-2.78 6.58,-3.42 1.23,-1.05 0.56,-2.12 1.4,-3.55 0.86,-1.46 1.84,-1.29 3.74,-1.14 -0.57,-1.2 -2.24,-2.15 -3.97,-1.35 -1.56,0.72 -1.72,2.9 -2.76,3.21 -0.35,-0.85 1.1,-2.3 1.32,-2.97 -4.06,-0.16 -2.57,4.04 -4.81,7.13l-0.87 1z"/>
   <path class="fil1" d="M1.58 27.91c1.8,0.7 3.06,1.87 5.32,0.5 0.76,-0.46 1.27,-0.96 2.05,-1.51 0.78,-0.54 1.69,-0.64 2.47,-1.12 0.07,-0.24 0.87,-4.77 0.87,-4.92 -2.31,-0.2 -4.24,2.28 -5.29,3.37 -1.43,1.48 -2.46,2.72 -4.52,3.26 -0.16,0.04 -0.24,0.05 -0.39,0.11 -0.61,0.25 -0.18,-0.01 -0.51,0.31z"/>
   <path class="fil3" d="M24.61 48.94l0.85 0.27c0.93,0.19 2.12,0.68 3.02,0.94 2.06,0.59 8.63,1.8 9.96,1.06 -0.4,-0.15 -1.79,-0.3 -2.31,-0.41 -7.47,-1.72 -5.38,-5.28 -14.78,-4.3 0.22,1.05 2.54,1.48 3.26,2.44z"/>
   <path class="fil1" d="M52.51 47.37c-1.83,-1.04 -6.17,1.11 -10.85,-1.07 -0.79,-0.37 -1.94,-1.49 -2.94,-1.21 -0.26,1.65 1.27,1.95 2.57,2.45 2.02,0.78 12,3.57 11.22,-0.18z"/>
   <path class="fil1" d="M48.93 32.48c1.28,-1.34 -0.5,-5.26 -0.52,-5.29 -0.47,-0.32 -2.67,-0.75 -3.42,-0.71 -0.03,1.15 0.18,0.71 0.59,1.36 0.3,0.47 0.38,1.43 -0.03,1.83 -0.48,0.46 -1.34,0.09 -1.98,0.12 -0.86,0.04 -1.09,0.7 -0.58,1.23 0.96,1 1.67,-1.52 3.11,0.25 0.57,0.71 1.42,1.79 2.83,1.2z"/>
   <path class="fil6" d="M25.46 49.21l-0.85 -0.27c-0.65,0.14 -0.32,-0.07 -0.49,0.54l0.01 2.08c0.14,2.52 1.42,3.87 2.45,6.05 0.2,-0.23 0.07,0.17 0.3,-0.47 0.17,-0.47 0.03,-0.98 -0.08,-1.45 -0.15,-0.61 -0.33,-1.22 -0.39,-1.89 -0.2,-2.08 0.84,-1.99 1.26,-3.44 -0.65,-0.56 -1.52,-0.58 -2.21,-1.15z"/>
   <path class="fil1" d="M77.6 45.66c1.75,-0.72 1.88,-2.83 1.67,-5.06 -0.2,-2.12 -0.1,-4.25 -0.29,-6.25 -1.03,1.01 -0.77,3.7 -1.04,5.32 -0.19,1.15 -0.41,1.45 -0.32,2.78 0.08,1.18 0.01,2.04 -0.03,3.21z"/>
   <path class="fil7" d="M17.82 22.96c0.49,0.15 2.37,0.9 2.77,0.94 0.66,-0.83 2.17,-4.22 0.31,-4.42 -1.6,-0.17 -2.82,2.16 -3.08,3.48z"/>
   <path class="fil7" d="M20.97 24.27c0.58,0.37 2.03,1.24 2.86,1.41 0.27,-0.75 1.7,-3.11 0.05,-3.61 -1.34,-0.4 -2.63,1.25 -2.91,2.21z"/>
   <path class="fil8" d="M33.85 15.37c0.26,-0.69 -1.32,-5.35 -2.82,-3.3 -1.01,1.38 0.39,4.23 2.82,3.3z"/>
   <path class="fil7" d="M17.53 26.83c1.68,0.22 2.54,-0.92 2.81,-2.25 -0.55,-0.6 -1.87,-1.12 -2.76,-1.09 -0.56,1.15 -0.8,2.22 -0.05,3.34z"/>
   <path class="fil7" d="M23.42 26.24c-0.28,-0.25 -1.79,-1.26 -2.61,-1.46 -0.47,0.93 -0.79,2.99 0.24,3.51 1.2,0.6 2.19,-1.02 2.37,-2.04z"/>
   <path class="fil9" d="M41.33 34.79c1,0.11 0.94,-1.09 2.56,-0.88 0.82,0.1 1.74,0.64 2.62,0.89 1.04,0.3 2.29,0.21 3.44,0.34 1.51,0.16 1.45,0.69 2.59,1.05 -0.53,-1.95 -3.74,-1.47 -5.59,-1.83 -1.79,-0.35 -3.9,-1.5 -5.83,-0.81 -0.12,0.75 -0.13,0.67 0.22,1.25z"/>
   <path class="fil10" d="M33.85 15.37c-2.44,0.92 -3.84,-1.93 -2.82,-3.3 1.51,-2.04 3.08,2.61 2.82,3.3zm-3.06 -4.67c1.18,0.16 1.7,-0.69 2.07,0.73 -2.02,-0.09 -3.08,0.82 -2.12,2.93 0.98,2.14 1.92,0.96 3.93,1.69 -0.37,-1.28 -0.9,-2.43 -1.31,-3.68 -0.43,-1.3 -0.44,-3.08 -1.87,-3.32 -0.2,0.17 -0.11,0.05 -0.28,0.28 -0,0.01 -0.25,0.41 -0.26,0.45 -0.16,0.36 -0.19,0.52 -0.16,0.92z"/>
   <path class="fil11" d="M51.13 39.39c1.25,-1.31 1.75,-3.25 -0.86,-3.35 -0.17,0.85 -0.47,1.72 -0.48,2.68 0.55,0.24 0.68,0.51 1.33,0.67z"/>
   <path class="fil12" d="M46.6 37.33c0.43,-0.53 0.5,-0.87 0.49,-1.61 -0.7,-0.25 -1.6,-0.87 -2.34,-0.85 -0.47,0.67 -0.71,1.05 -0.72,1.96 0.76,0.2 1.62,0.6 2.57,0.5z"/>
   <path class="fil11" d="M48.95 38.2c2.22,-2.75 -0.64,-3.04 -1.32,-2.58 -0.33,0.47 -0.56,1.1 -0.47,1.84 0.62,0.37 1,0.62 1.79,0.74z"/>
   <path class="fil11" d="M44.25 44.85l-1.58 -0.58 -0.84 -0.02c-0.17,0.78 -0.3,1.43 0.37,1.88 1.55,1.06 2.73,0.14 2.05,-1.28z"/>
   <path class="fil13" d="M25.48 27.84c-0.3,-0.55 -1.04,-1.2 -1.81,-1.34 -1.71,3.53 1.28,3.87 1.81,1.34z"/>
   <path class="fil11" d="M41.5 36.67c0.67,0.05 1.71,0.25 2.15,-0.17 0.38,-0.36 0.66,-1.61 0.29,-2 -0.85,-0.89 -2.58,1.34 -2.44,2.16z"/>
   <path class="fil11" d="M46.71 45.43c-0.48,-0.2 -1.24,-0.28 -1.9,-0.2 -0.36,0.5 -0.3,0.78 -0.13,1.46 1.02,0.69 2.94,0.87 2.04,-1.26z"/>
   <path class="fil13" d="M23.98 25.95c0.28,0.43 1.34,1.26 1.97,1.4 0.35,-1.2 0.47,-1.48 -0.13,-2.43 -1,-0.16 -1.57,0.34 -1.84,1.03z"/>
   <path class="fil11" d="M41.02 43.49l-0.64 -0.35c-0.52,-0.31 -0.29,-0.25 -0.98,-0.24 -0.09,1.44 0.39,2.5 1.96,2.47 0.14,-0.92 -0.04,-1.34 -0.34,-1.88z"/>
   <path class="fil11" d="M47.3 46.95c0.79,0.09 1.98,0.33 2,-0.72 0.03,-1.07 -1.08,-0.82 -2.01,-0.7l0 1.42z"/>
   <path class="fil11" d="M50.94 46.72c0.75,-1.55 -0.47,-1.36 -1.5,-1.3l0.12 1.39 1.38 -0.09z"/>
  </g>
 </g>
</svg>
