<?xml version="1.0" encoding="UTF-8"?>
<!DOCTYPE svg PUBLIC "-//W3C//DTD SVG 1.1//EN" "http://www.w3.org/Graphics/SVG/1.1/DTD/svg11.dtd">
<!-- Creator: CorelDRAW -->
<svg xmlns="http://www.w3.org/2000/svg" xml:space="preserve" width="304.171mm" height="146.298mm" version="1.1" style="shape-rendering:geometricPrecision; text-rendering:geometricPrecision; image-rendering:optimizeQuality; fill-rule:evenodd; clip-rule:evenodd"
viewBox="0 0 26145.14 12575.13"
 xmlns:xlink="http://www.w3.org/1999/xlink"
 xmlns:xodm="http://www.corel.com/coreldraw/odm/2003">
 <defs>
  <style type="text/css">
   <![CDATA[
    .fil1 {fill:black}
    .fil0 {fill:black;fill-rule:nonzero}
   ]]>
  </style>
 </defs>
 <g id="Camada_x0020_1">
  <metadata id="CorelCorpID_0Corel-Layer"/>
  <path class="fil0" d="M950.88 6409.67c-99.57,0 -188.38,-5.9 -266.44,-17.69 -228.18,-37.51 -396.12,-97.79 -503.84,-180.86 -107.73,-83.06 -167.16,-174.96 -178.3,-275.71 -9.61,-86.81 10.8,-174.15 61.23,-262.04 50.43,-87.88 123.99,-168.26 220.68,-241.14 96.69,-72.88 210.5,-131.56 341.44,-176.04 130.94,-44.48 273.17,-66.72 426.67,-66.72 45.63,0 92.55,2.14 140.73,6.43 146.98,16.08 265.68,53.05 356.1,110.93 90.4,57.87 139.45,121.64 147.16,191.31 3.68,33.22 -4.04,66.45 -23.19,99.67 -49.78,75.02 -125.2,129.15 -226.29,162.37 -101.08,33.22 -203.47,49.84 -307.2,49.84 -95.4,0 -179.16,-11.79 -251.26,-35.37 -72.11,-23.58 -110.34,-55.19 -114.73,-94.84 -1.9,-17.15 3.34,-35.37 15.73,-54.67 11.38,-9.64 25.37,-14.47 41.97,-14.47l19.02 3.21c49.01,11.79 96.33,17.69 141.96,17.69 76.76,0 143.66,-13.93 200.73,-41.8 57.07,-27.87 101.22,-60.02 132.46,-96.46 31.22,-36.44 45.42,-67.52 42.57,-93.24 -1.43,-12.86 -7.74,-23.04 -18.94,-30.54 -51.27,-32.16 -110.09,-48.23 -176.47,-48.23 -116.16,0 -240.62,37.51 -373.37,112.53 -132.74,75.02 -245.05,166.12 -336.9,273.3 -91.87,107.18 -132.52,208.46 -121.96,303.84 7,63.23 43.21,118.7 108.64,166.39 65.44,47.69 168.77,81.72 310,102.08 63.19,8.58 126.92,12.86 191.23,12.86 91.26,0 179.6,-7.77 265.01,-23.31 85.41,-15.54 157.49,-38.85 216.28,-69.92 9.89,-4.29 20.04,-6.44 30.39,-6.44 12.45,0 24.07,1.88 34.86,5.63 10.78,3.75 17.62,9.38 20.53,16.88l5.42 20.9c4.62,41.8 -21.75,75.3 -79.12,100.48 -57.37,25.18 -131.03,43.67 -220.99,55.46 -89.98,11.79 -180.59,17.69 -271.85,17.69zm1115.11 -85.21c-49.79,0 -107.81,-8.84 -174.07,-26.53 -66.25,-17.68 -125.92,-50.64 -178.96,-98.87 -16.31,-16.08 -25.63,-34.84 -28,-56.28 -8.54,-77.16 42.99,-169.07 154.63,-275.7 111.62,-106.65 227.94,-175.5 348.97,-206.59 40.53,-8.57 76.35,-12.86 107.48,-12.86 49.78,0 88.96,7.24 117.52,21.7 28.57,14.47 49.96,29.74 64.18,45.81 4.74,5.36 7.34,10.19 7.82,14.47 1.3,11.78 -7.99,21.43 -27.91,28.93 -47.76,18.22 -104.61,52.79 -170.54,103.7 -65.94,50.9 -123.72,105.03 -173.4,162.37 -49.66,57.33 -72.76,101.55 -69.32,132.63 1.78,16.07 13.33,26.79 34.67,32.15 6.34,1.07 13.66,1.61 21.96,1.61 49.79,0 103.52,-25.18 161.21,-75.55 57.69,-50.37 108.41,-102.89 152.14,-157.55 43.74,-54.66 72.78,-92.17 87.12,-112.53 24.01,-64.31 48.04,-118.97 72.09,-163.98 10.9,-13.93 30.75,-21.98 59.56,-24.12l3.11 0c51.86,0 104.98,16.07 159.35,48.23 54.38,32.16 82.99,61.09 85.84,86.82 0.83,7.5 -0.52,13.93 -4.09,19.29 -10.78,15.01 -27.84,43.67 -51.15,86.01 -23.31,42.33 -45.07,89.5 -65.25,141.47 -20.17,51.98 -28.01,98.33 -23.51,139.06 2.85,25.73 13.01,47.16 30.45,64.3 17.45,17.15 44.97,26.8 82.54,28.94 24.9,0 36.59,2.68 35.12,8.04 0.59,5.36 -8.63,10.99 -27.69,16.88 -19.06,5.9 -45.17,8.84 -78.36,8.84 -22.82,0 -48.98,-2.15 -78.5,-6.44 -76.1,-12.86 -132.7,-36.97 -169.81,-72.34 -37.1,-35.37 -59.36,-77.16 -66.76,-125.39 -64.96,50.37 -129.72,97.79 -194.29,142.27 -64.57,44.47 -111.01,69.93 -139.34,76.36 -16.23,3.21 -37.83,4.82 -64.8,4.82zm1253.08 -19.29c-22.82,0 -48.99,-2.15 -78.49,-6.44 -78.18,-12.86 -134.31,-37.51 -168.41,-73.95 -34.11,-36.44 -53.89,-79.31 -59.35,-128.61 -3.32,-30.02 -2.61,-61.1 2.13,-93.24 0.42,-15.01 3.02,-28.94 7.82,-41.8 30.98,-113.61 77.83,-224.53 140.54,-332.78 52.01,-92.18 92.69,-183.81 122.02,-274.91 10.01,-40.73 13.95,-70.73 11.82,-90.02l-1.61 -14.47c-1.77,-16.07 13.52,-27.87 45.88,-35.36 14.29,-2.15 28.69,-3.22 43.19,-3.22 53.94,0 105.15,12.87 153.63,38.59 48.48,25.73 78.59,54.13 90.33,85.21l1.07 9.64c3.44,31.08 -9.55,77.7 -38.97,139.87 -29.42,62.16 -65.86,131.29 -109.29,207.38 -51.92,93.24 -99.29,185.41 -142.09,276.51 -42.82,91.1 -61.15,164.52 -54.99,220.24 2.73,24.65 12.16,44.22 28.29,58.68 16.11,14.47 40.88,22.78 74.31,24.92 24.89,0 37.71,3.21 38.41,9.64 0.47,4.29 -8.83,9.38 -27.87,15.27 -19.06,5.9 -45.17,8.84 -78.37,8.84zm756.4 19.29c-51.86,0 -107.36,-4.82 -166.51,-14.47 -131.44,-25.73 -221.42,-60.82 -269.89,-105.3 -48.5,-44.47 -76.83,-84.93 -85,-121.38l-5.24 -19.29c-4.5,-40.73 6.64,-99.41 33.43,-176.04 26.77,-76.63 65.14,-142.27 115.1,-196.93 7.36,-8.58 21.39,-12.86 42.14,-12.86 20.74,0 46.13,4.55 76.19,13.66 30.05,9.11 59.27,20.1 87.66,32.96 51.91,-55.72 127.64,-83.59 227.21,-83.59l43.74 1.61c113.32,11.78 199.53,45.81 258.66,102.08 59.11,56.27 95.64,119.24 109.57,188.9l2.49 22.51c6.17,55.73 -6.76,112.27 -38.79,169.61 -32.04,57.33 -83.83,104.76 -155.4,142.27 -71.56,37.51 -163.34,56.27 -275.35,56.27zm-152.73 -86.82c60.13,0 118.15,-24.11 174.01,-72.34 55.85,-48.23 101.39,-105.3 136.62,-171.21 35.23,-65.91 50.02,-124.59 44.33,-176.04 -4.62,-41.8 -25.76,-73.41 -63.4,-94.85 -13.03,-5.36 -24.75,-8.04 -35.1,-8.04 -24.91,0 -48.87,8.31 -71.93,24.92 -23.04,16.62 -41.14,35.9 -54.26,57.87 -13.13,21.97 -18.81,41 -17.03,57.07l4.71 14.47c16.19,15.01 37.76,22.51 64.72,22.51 18.67,0 38.07,-2.68 58.22,-8.05 6.1,-1.07 13.31,-1.61 21.62,-1.61 8.29,0 16.76,1.61 25.43,4.83 12.91,4.28 19.79,10.18 20.62,17.68l-2.4 6.43c-4.8,12.86 -16.96,24.92 -36.45,36.17 -19.5,11.25 -48.95,16.88 -88.36,16.88l-37.53 -1.61c-62.93,-6.43 -109.25,-21.97 -138.95,-46.62 -28.56,41.8 -54.81,85.74 -78.76,131.83 -23.95,46.08 -34.06,85.74 -30.39,118.96 2.97,26.79 18.64,46.62 47.02,59.48 19.5,7.5 38.58,11.25 57.26,11.25zm1122.67 67.53c-22.8,0 -48.98,-2.15 -78.5,-6.44 -80.36,-13.92 -138.78,-40.45 -175.26,-79.58 -36.49,-39.12 -57.56,-84.4 -63.25,-135.84 -7.71,-69.66 1.92,-142.01 28.89,-217.03 26.95,-75.02 54.37,-136.64 82.22,-184.87 6.75,-13.93 26.6,-21.98 59.55,-24.12l3.11 0c49.79,0 101.88,16.07 156.24,48.23 54.38,32.16 83.01,61.09 85.85,86.82 0.83,7.5 -0.54,13.93 -4.09,19.29 -10.8,15.01 -27.84,43.67 -51.17,86.01 -23.32,42.33 -44.55,89.5 -63.68,141.47 -19.13,51.98 -26.45,98.33 -21.94,139.06 2.85,25.73 12.47,47.16 28.89,64.3 16.42,17.15 43.41,26.8 81,28.94 24.88,0 37.68,3.21 38.4,9.64 0.47,4.29 -8.81,9.38 -27.88,15.27 -19.04,5.9 -45.17,8.84 -78.36,8.84zm97.4 -638.24l-21.95 -1.61c-35.98,-6.43 -69.66,-15.54 -101.04,-27.33 -31.38,-11.79 -56.88,-21.97 -76.49,-30.55 -15.36,-7.5 -23.56,-16.07 -24.63,-25.72 -2.02,-18.22 0.56,-46.36 7.76,-84.4 7.2,-38.05 30.81,-73.15 70.82,-105.3 31.29,-17.15 74.93,-25.73 130.94,-25.73 70.52,0 141.89,7.5 214.07,22.51 2.08,0 3.11,0 3.11,0 10.62,2.14 19.65,4.29 27.16,6.43 7.49,2.14 11.53,5.9 12.12,11.25 0.83,7.5 -9.08,20.9 -29.77,40.19 -30.1,27.87 -58.61,60.82 -85.52,98.87 -26.9,38.05 -48.2,70.47 -63.92,97.27 -5.39,7.5 -14.07,13.39 -26.04,17.68 -11.97,4.29 -24.18,6.43 -36.63,6.43zm1629.41 654.31l-34.57 -3.21c-98.91,-12.86 -203.35,-19.3 -313.28,-19.3 -107.87,0 -215.02,6.44 -321.45,19.3l-15.38 1.61c-14.53,0 -28.37,-3.21 -41.53,-9.64 -13.16,-6.43 -20.21,-13.93 -21.15,-22.51l-4.45 -40.19c-0.95,-8.57 6.64,-15 22.75,-19.29 85.22,-17.15 172.77,-32.16 262.61,-45.01 -24,-48.23 -39.08,-100.21 -45.26,-155.94 -2.72,-24.65 -4.42,-49.3 -5.06,-73.95 4.54,-90.03 31.24,-186.22 80.08,-288.57 48.83,-102.36 99.67,-195.87 152.55,-280.53 0,0 -5.11,5.36 -15.34,16.07 -10.23,10.72 -24.42,23.04 -42.59,36.98 -18.15,13.93 -39.62,26.26 -64.35,36.98 -24.76,10.71 -51.64,16.07 -80.69,16.07 -10.37,0 -20.79,-0.53 -31.29,-1.61 -33.9,-6.43 -61.54,-17.15 -82.9,-32.16 -21.38,-15 -38.19,-31.08 -50.46,-48.23 -12.27,-17.15 -21.16,-31.88 -26.66,-44.21 -5.53,-12.33 -8.27,-18.49 -8.27,-18.49l12.62 1.61c26.97,0 76.65,-15 149.04,-45.01 72.39,-30.01 144.06,-61.89 215,-95.65 70.93,-33.76 122.11,-58.68 153.52,-74.76 3.92,-2.14 6.85,-3.75 8.8,-4.82 7.82,-4.29 16.92,-6.43 27.3,-6.43 22.8,0 48.94,6.43 78.36,19.29 29.42,12.86 56.31,26.26 80.68,40.19 17.55,8.57 32.35,15.81 44.4,21.7 12.07,5.9 22.3,9.38 30.72,10.45 2.06,0 3.34,2.14 3.83,6.43 2.01,18.21 -19.43,72.87 -64.33,163.98 -44.89,91.1 -93.91,187.02 -147.06,287.76 -5.16,9.65 -10.37,18.76 -15.64,27.33 -8.59,16.07 -17.18,32.16 -25.77,48.23 -35.98,68.59 -66.81,136.64 -92.53,204.17 -25.72,67.52 -37.49,139.33 -35.29,215.42l55.84 -1.61c64.3,0 120.43,5.9 168.42,17.68 47.96,11.79 79.72,31.61 95.25,59.48l4.89 16.08c1.42,12.86 -1.99,24.11 -10.27,33.75 -8.27,9.65 -16.19,17.69 -23.77,24.12 -5.75,4.29 -14.84,6.43 -27.31,6.43zm956.54 0c-53.93,0 -110.24,-2.68 -168.91,-8.04 -147.57,-21.44 -268.63,-56.27 -363.14,-104.5 -94.54,-48.23 -165.61,-104.76 -213.24,-169.61 -47.62,-64.84 -75.23,-131.55 -82.82,-200.15 -7.71,-69.67 3.48,-137.19 33.6,-202.56 53.22,-118.97 157.07,-220.79 311.56,-305.45 44.86,-63.24 116.8,-111.47 215.8,-144.69 99,-33.22 208.66,-49.84 328.97,-49.84 72.6,0 145.91,6.43 219.93,19.29 169.62,33.23 303.53,99.95 401.75,200.16 98.2,100.21 154.01,210.87 167.41,331.98 8.54,77.16 -1.19,153.26 -29.19,228.28 -28,75.02 -76.52,142.82 -145.52,203.37 -69.01,60.55 -159.56,109.32 -271.62,146.29 -112.08,36.98 -246.93,55.47 -404.58,55.47zm-66.86 -98.07c126.54,0 236.89,-33.76 331.07,-101.28 94.16,-67.52 165.33,-150.85 213.46,-249.98 48.15,-99.14 67.08,-195.33 56.76,-288.57 -7.82,-70.74 -35.05,-133.97 -81.66,-189.7 -46.62,-55.73 -115.76,-94.85 -207.46,-117.36 -36.2,-8.58 -74.02,-12.86 -113.43,-12.86 -60.16,0 -113.99,10.18 -161.52,30.54 77.51,25.73 125.43,55.73 143.74,90.03l4.36 11.25c0.83,7.5 -4.13,14.2 -14.9,20.1 -10.75,5.9 -24.42,8.84 -41.03,8.84l-53.06 -1.61c-103.72,0 -191.07,25.98 -262.08,77.97 -70.99,51.98 -123.48,116.55 -157.47,193.72 -33.98,77.16 -46.82,153.26 -38.53,228.28 8.42,76.1 40.15,142.55 95.18,199.35 55.02,56.8 135.97,90.03 242.83,99.67l43.73 1.61z"/>
  <path class="fil1" d="M23401.51 5962.84c2.42,4.01 5.94,5.53 6.56,12.39 0.64,7.06 5,9.78 5.76,13.15l6.46 274.85c0.03,109.43 2.78,225.5 -5.32,334.01 -119.93,-165.93 -132.32,-456.26 -13.46,-634.41zm1281.51 2042.65l0 -590.9 -120.98 1.32 0.01 587.53 120.97 2.05zm-2363.49 -7.45l261.46 11.62 -2.41 -107.23c-168.61,-2.53 -332.01,-3.22 -336.15,-184.5 -5.45,-238.23 206.47,-159.73 344.24,-204.61l6.5 -74.58c-39.67,-26.08 -43.4,-30.79 -152.98,-27.15 -470.37,15.64 -384.54,531.55 -120.66,586.46zm1750.15 -469.65c255.82,-63.91 326.43,310.87 89.95,361.31 -247.41,52.79 -360.94,-293.61 -89.95,-361.31zm-65.2 -95.38c-406.4,144.05 -163.41,690.15 223.32,551.47 370.45,-132.84 176.32,-693.12 -223.32,-551.47zm-1165.89 261.64c161.79,-95.2 240.59,119.94 127.5,179.39 -134.58,70.74 -255.67,-103.97 -127.5,-179.39zm349.99 322.43l127.88 0c-8.05,-100.58 -132.37,-279.84 -186.09,-381.51 -70.73,-133.9 -154.53,-259.25 -364.31,-217.57l-0.99 81.83c80.12,23.71 91.06,2.36 160.59,50.82 -4.86,2.38 -12.64,-0.31 -15.3,5.65 -0.48,1.07 -358.12,60.63 -224.28,324.66 131.84,260.08 431.02,27.69 442.83,22.86 18.32,36.41 42.33,78.95 59.66,113.26zm172.89 -2608.83c67.3,50.12 59.58,268.5 58.3,350.09 -24.63,-52.33 -35.29,-124.97 -55.97,-189.02 -29.6,-91.69 -87.24,-117.11 -2.33,-161.06zm964.5 -579.57l85.1 -30.34c51.64,99.51 64.78,98.04 31.2,159.98l-79.26 16.12c-37.45,-52.77 -52.39,-63 -37.05,-145.75zm-1896.4 99.97c-5.78,-89.47 99.83,-184.24 168.55,-211.17 -17.16,43.91 -37.55,85.96 -57.55,127.88 -30.25,63.48 -30.76,83.6 -111,83.28zm729.82 1204.65l23.06 120.58c-71.14,-8.07 -15.51,7.86 -39.29,-32.66 -57.19,-319.64 -225.8,-434.03 -66.99,-821.37 139.38,-339.93 -32.82,-467.88 -61.56,-819.91l400.02 4.7c7.52,226.4 46.04,237.22 -57.41,425.18 -105.36,191.47 -15.15,222.49 -41.85,353.88 -7.59,37.39 -69.34,137.83 -126.63,-41.19 -55.63,55.44 24.41,-55.51 -31.13,38.29 -9.84,16.62 -12.73,22.86 -19.66,41.73 -88.07,240 19.62,486.41 21.44,730.77zm404.09 -1494.9l-17.41 -69.93 332.69 1.81c3.08,61.8 5.16,13.48 -18.7,32.89 -72.47,178.88 14.99,195.87 56.25,342.15 37.26,132.11 -37.51,281.3 -163.69,264.21 -27.77,-96.81 10.83,-265.56 -57.47,-321.65 -61.79,-50.74 -99.21,15.67 -131.68,-249.47zm506.38 -189.26c5.25,-70.41 -1.35,-72.86 52.5,-115.71 72.86,37.98 84.11,87.06 96.69,176.67l-149.19 -60.96zm-1292.62 56.49c8.58,-88.58 9.77,-108.47 83.63,-141.34 54.79,27.31 36.3,8.31 66.66,70.47 -55.21,28.12 -101.13,43.03 -150.29,70.86zm210.73 -57.68c-67.53,-158.42 45.67,-215.57 213.34,-216.53 156.49,-0.9 280.68,59.31 228.87,208.7 -96.04,35.95 -318.9,24.82 -442.21,7.83zm543.18 -1.16c-4.5,-121.44 -68.31,-317.5 -65,-385.77 8.43,-174.19 232.38,-105.13 315.91,-110.8 79.36,-5.39 141.9,-38.88 207.04,-8.88 156.79,72.23 12.45,367.67 -6.27,512.99l-451.68 -7.55zm-406.83 -788.48c49.75,40.62 108.17,53.94 143.05,116.48 -87.08,-5.68 -125.11,-7.68 -179.31,-61.65l36.26 -54.83zm601.34 107.07c22.8,-92.77 23.18,-6.6 171.58,-150.15 29.11,18.23 33.7,23.87 66.7,45.75 -39.01,84.1 -117.35,121.52 -238.29,104.4zm-266.65 -692.64c17.35,-7.49 -31.25,-25.03 53.72,-13.37 108,14.83 15.93,0.16 54.18,32.03 -27.12,13.28 41.98,30.33 -61.61,15.6 -77.13,-10.96 -27.53,-11.98 -46.29,-34.26zm-197.66 -150.2c47.4,63.63 25,132.23 55.51,210.32 48.92,125.23 83.9,20.4 133.55,154.3 -186.01,-41.74 -220.82,-242.39 -211.14,-324.65 6.27,-53.23 -3.9,-9.33 22.08,-39.97zm490.12 -112.09l77.76 -16.67 -4.67 45.32c-3.67,94.01 -17.46,197.22 -48.5,284.48 -34.49,96.95 -71.3,153.36 -193.19,156.68 39.27,-94.24 106.21,-41.22 138.37,-189.32 20.32,-93.59 2.19,-183.97 30.22,-280.5zm493.02 1641.55c-111.08,-586.85 -302.98,-526.55 -60.37,-670.11l9.2 -336c0,-135.59 -19.43,-330.79 -73.5,-445.1 -93.34,-197.35 -283.52,-158.53 -242.2,-234.74 36.91,-68.08 413.78,-31.51 413.78,549.23 0,549.42 -74.93,184.86 61.75,698.53 60.87,228.71 69.49,388.88 42.53,628.54l-103.94 -67.04c-41.21,-49.71 -33.66,-51.49 -47.26,-123.31zm-1587.3 181.33l-29.74 20.34 -10.98 -46.7c0.36,-221.77 -25.41,-337.86 19.67,-569.05 43.48,-222.98 78.07,-268.42 84.85,-517.65 4.84,-177.88 7.06,-363.93 75.69,-526.37 37.67,-89.14 223.72,-327.87 338.97,-238.35 -79.67,85.75 -229.58,34.47 -314.56,409.83 -48.62,214.68 -37.77,444.79 -30.86,666.47 60.34,38.25 74.21,39.62 120.25,99.15 -37.12,116.35 -105.33,189.2 -141.15,342.88 -20.07,86.11 -17.93,135.14 -28.97,216.84 -12.09,89.56 -37.3,82.85 -83.18,142.62zm584.14 -1875.06c-166.09,-93.9 55.55,-282.32 190.92,-272.41 29.57,33.71 53.12,80.4 62.48,138.27 -48.33,29.53 -80.28,21.2 -135.24,54.06 -95.39,57.04 -6.86,61.41 -118.16,80.08zm517.62 -55.31c-2.72,-2.25 -7.68,-6.47 -10.65,-9.03 -2.97,-2.54 -6.84,-7.01 -9.9,-9.66l-121.46 -74.31 47.52 -110.68c98.75,27.03 150.47,85.41 175.26,167.39l-80.77 36.28zm-1195.41 1937.03c-61.17,62.37 -253.54,174.54 -193.22,305.92 52.96,115.33 274.81,103.58 357.15,-9.27 29.38,-56.38 -45.48,-247.9 213.5,-359.33l81.24 323.61c25.65,98.69 83.49,231.57 68.79,331.2 -11.92,80.86 -82.21,199.52 -105.79,307.9 -105.17,483.4 289.83,684.15 97.59,1023.95 -144.07,254.65 -80.27,402.47 218.6,470.15l112.18 -123.51 3.71 1097.15 329.63 0 -5.16 -116.72 -184.27 0.08 0.38 -1969.52c81.99,77.93 103.66,170.88 271.6,155.37 119.93,-164.15 48.58,-157.63 5.18,-327.04 -99.67,-389.01 166.06,-606.61 152,-792.54 -10.89,-144.14 -174.58,-176.33 -38.45,-367.97 124.88,-20.39 260.2,76.96 307.15,126.46 -84.94,397.81 394.01,367.94 242.63,78 -101.75,-194.86 -66.27,-31.5 -60.68,-340.19 8.85,-489.17 -109.13,-555.21 -118.22,-745.65 -11.82,-247.46 41.37,-580.41 -72.62,-788.01 -65.98,-120.15 -106.6,-143.04 -241.44,-204.72 -99.58,-45.55 -52.55,-21.2 -108.52,-103.59 -122.94,-180.99 -240.08,-180.72 -474.94,-181.75 -153.9,-0.68 -223.62,95.25 -277.26,179.72 -46.71,73.59 -30.48,51.82 -133,80.24 -528.42,146.48 -304.48,791.05 -380.21,1159.67 -71.56,348.29 -93.68,409.9 -67.56,790.41z"/>
  <path class="fil1" d="M7265.06 10397.95c-8.25,6.14 -23.11,35.24 -30.53,46.49 -26.84,40.68 -64.49,103.53 -92.71,141.68 -3.98,5.38 -6.38,9.22 -10.14,14.97l-21.91 31.66c-3.86,5.67 -7.07,10.25 -11.09,15.7l-32 44.99c-4.3,5.79 -6.95,9.97 -11.12,15.66 -15.25,20.74 -29.55,39.86 -44.82,60.62 -4.01,5.47 -7.04,8.94 -10.92,14.19 -3.95,5.36 -7.2,10.09 -11.46,15.31 -25.24,31.01 -49.15,63.59 -75.43,93.55 -2.95,3.36 -2.91,4.17 -5.84,7.53l-62.21 68.24c-17.03,17.28 -32.84,36.66 -51.98,51.66l-67.47 62.89c-3.36,3.2 -4.02,3.12 -7.38,5.98l-35.11 30.05c-48.35,40.07 -100.7,74.68 -155.66,104.74 -111.61,61.02 -226.09,90.12 -346.86,37.72 -7.19,-3.12 -11.47,-4.69 -18.01,-8.66 -31.6,-19.19 -63.6,-40.86 -86.73,-70.29l-23.71 -28.15c-15.27,-19.41 -29.99,-41.56 -41.83,-63.66 -6.31,-11.79 -12.82,-21.23 -18.77,-33.15 -11.77,-23.54 -24.09,-47.22 -33.75,-71.85 -19.51,-49.79 -36.44,-103.53 -48.53,-161.28 -21.7,-103.64 -37.78,-218.94 -37.74,-328.87 0.01,-51.25 5.11,-102.35 6.64,-151.59 0.44,-14.28 3.17,-33.88 4.68,-47.46 23.92,-215.96 77.21,-427.98 156.5,-629.41l30.57 -75.08c12.45,-31.98 67.13,-152.31 81.49,-178.35l82.77 -151.79c60.79,-102.43 130.38,-200.1 204.57,-292.58 7.74,-9.66 16.13,-18.75 23.46,-28.39 7.2,-9.5 16.29,-17.89 23.93,-27.93 4.22,-5.54 7.65,-7.66 11.87,-13.21 16.86,-22.17 70.11,-74.77 89.85,-94.07l82.9 -74.17c56.74,-48.49 118.59,-93.11 185.23,-126.93 11.71,-5.94 22.97,-12.26 34.31,-17.38 37.24,-16.85 74.6,-31.2 115.12,-41.46 14.23,-3.6 27.69,-6.97 42.55,-9.03 81.76,-11.27 150.06,-4.09 224.64,26.14 41.96,17 70.43,50.28 98.31,83.79 4.02,4.84 7.77,11.6 12.54,14.64l-54.14 152.63c-2.92,8.56 -5.2,14.2 -7.86,22.34 -4.65,14.23 -10.8,27.96 -15.77,42.93 -12.46,37.54 -33.71,91.88 -48.02,129.79l-131.78 342.89c4.88,-3.63 17.7,-27.36 22.09,-34.84l240.37 -416.24c3.79,-6.31 6.36,-12.54 9.62,-18.88l19.95 -37.01c6.33,-12.35 35.65,-72.61 39.58,-75.82 29.49,39.66 82.51,162.48 98.7,218.36 1.96,6.76 2.9,10.35 5.02,16.8 1.93,5.84 3.06,13.2 6,17.5 0,-60.22 -27.89,-203.55 -43.72,-258.8l-24.31 -78.25 69.14 -145.25c6.14,-12.05 5.48,-8.35 1.88,-22.67 -11.84,-47.15 -24.57,-54.95 -39.49,-84.58 -10.66,-21.15 -38.23,-55 -58.09,-65.67 -3.83,16.72 -40.18,148.39 -48.12,165.06 -14.86,-17.42 -25.06,-37.93 -40.24,-55.15 -5.21,-5.9 -9.45,-11.41 -14.26,-17.53 -12.37,-15.69 -33.53,-34.56 -47.09,-48.2 -3.62,-3.64 -4.52,-3.91 -8.16,-6.89 -53.52,-43.74 -102.12,-78.01 -169.62,-100.67 -34.33,-11.52 -66.25,-17.88 -103.17,-23.28 -9.22,-1.35 -19.08,-2.18 -29.24,-2.62l-39.93 0c-17.9,0.64 -35.48,1.95 -51.07,3.32 -101.19,8.89 -200.12,47.79 -288.65,92.69l-173.5 111.89c-30.19,22.92 -59.92,46.89 -87.39,72.98l-97.08 93.47c-12.94,13.14 -27.02,25.86 -38.33,40.25l-45.44 49.88c-62.38,71.67 -119.56,147.65 -174.76,225.13 -26.86,37.71 -50.2,76.82 -75.04,115.83 -4.35,6.83 -7.71,13.39 -11.94,19.89 -4.17,6.39 -7.86,12.94 -11.95,19.87 -8.16,13.81 -15.01,26.71 -23.2,40.45l-45.61 81.71c-35.45,66.84 -67.83,134.71 -99.55,203.82l-14.53 34.09c-3.34,8.11 -6.37,14.46 -9.5,22.36l-36.29 91.17c-16.06,36.85 -28.68,77.56 -43.58,115.77 -28.49,73.07 -62.33,202.31 -79.83,272.68 -33.12,133.14 -61.82,311.23 -65.64,447.09l-3.38 60.57c-2.23,41.92 1.55,84.69 1.61,126.39 0.02,11.18 1.69,17.47 1.67,30.32l1.96 30.02c1.94,18.4 3.7,40.43 5.9,58.01 11.96,95.57 26.65,171.87 56.27,262.91 5.36,16.48 11.54,31.43 17.01,46.73 25.38,70.99 71.75,149 115.97,203.97 79.81,99.19 194.02,173.81 323.88,184.94 27.47,2.36 61.24,7.56 88.43,3.78 9.9,-1.38 20.33,0.33 30.38,-1.17 44.71,-6.64 63.25,-6.75 109.54,-18.5 84.86,-21.53 150.98,-54.6 222.42,-94.22 57.68,-31.98 190.49,-123.85 239.08,-173.33l188.3 -194.56 43.12 -52.23c9.64,-12 18.78,-23.73 27.84,-35.75 36.69,-48.69 71.77,-98.38 105.84,-150.26 17.13,-26.1 33.2,-50.73 49.78,-77.47 9.87,-15.9 134.62,-221.78 139.69,-243.91 4.07,-3.02 3.57,-2.29 4.98,-8.42l1.91 -3.28 -1.91 3.28c-4.06,3.02 -3.57,2.29 -4.98,8.42zm-1942.14 2177.18c-63.47,0 -120.09,-4.63 -169.85,-13.9 -145.48,-29.48 -252.55,-76.87 -321.23,-142.15 -68.67,-65.28 -106.57,-137.52 -113.68,-216.71 -6.12,-68.23 6.89,-136.89 39.04,-205.97 32.16,-69.08 79.05,-132.26 140.69,-189.54 61.66,-57.29 134.22,-103.41 217.7,-138.37 83.49,-34.96 174.16,-52.44 272.02,-52.44 29.1,0 59,1.68 89.71,5.05 93.72,12.64 169.38,41.71 227.03,87.19 57.64,45.49 88.91,95.62 93.83,150.37 2.34,26.11 -2.59,52.23 -14.79,78.34 -31.73,58.97 -79.81,101.51 -144.27,127.63 -64.43,26.11 -129.72,39.17 -195.84,39.17 -60.83,0 -114.23,-9.27 -160.2,-27.8 -45.96,-18.53 -70.35,-43.38 -73.15,-74.55 -1.21,-13.48 2.13,-27.8 10.03,-42.96 7.25,-7.59 16.17,-11.38 26.75,-11.38l12.13 2.53c31.24,9.27 61.43,13.91 90.52,13.91 48.93,0 91.59,-10.96 127.97,-32.86 36.38,-21.9 64.54,-47.17 84.45,-75.81 19.92,-28.64 28.96,-53.07 27.14,-73.29 -0.9,-10.11 -4.93,-18.11 -12.07,-24.01 -32.69,-25.27 -70.2,-37.91 -112.52,-37.91 -74.05,0 -153.4,29.48 -238.04,88.46 -84.63,58.97 -156.23,130.57 -214.8,214.81 -58.56,84.24 -84.48,163.85 -77.75,238.82 4.46,49.71 27.55,93.3 69.26,130.79 41.71,37.49 107.59,64.23 197.64,80.24 40.28,6.74 80.91,10.11 121.9,10.11 58.2,0 114.52,-6.11 168.96,-18.33 54.44,-12.21 100.4,-30.53 137.9,-54.97 6.31,-3.37 12.77,-5.05 19.38,-5.05 7.93,0 15.34,1.48 22.22,4.43 6.88,2.95 11.23,7.37 13.09,13.26l3.46 16.43c2.95,32.85 -13.86,59.17 -50.44,78.98 -36.58,19.8 -83.55,34.32 -140.9,43.59 -57.36,9.27 -115.13,13.9 -173.33,13.9zm710.95 -66.97c-31.73,0 -68.72,-6.95 -110.98,-20.85 -42.25,-13.9 -80.27,-39.8 -114.09,-77.71 -10.39,-12.64 -16.34,-27.38 -17.85,-44.22 -5.45,-60.65 27.42,-132.89 98.58,-216.71 71.15,-83.82 145.33,-137.94 222.47,-162.37 25.86,-6.74 48.7,-10.11 68.53,-10.11 31.74,0 56.71,5.68 74.93,17.05 18.21,11.37 31.85,23.38 40.92,36.02 3.02,4.21 4.68,8 4.99,11.37 0.83,9.27 -5.11,16.85 -17.79,22.74 -30.45,14.32 -66.7,41.49 -108.73,81.5 -42.03,40.01 -78.89,82.56 -110.55,127.63 -31.66,45.07 -46.39,79.82 -44.2,104.25 1.13,12.64 8.5,21.06 22.1,25.27 4.04,0.84 8.71,1.26 14,1.26 31.73,0 66.01,-19.8 102.78,-59.39 36.78,-39.59 69.13,-80.88 97,-123.84 27.88,-42.96 46.4,-72.44 55.54,-88.45 15.3,-50.55 30.63,-93.51 45.96,-128.89 6.95,-10.95 19.62,-17.27 37.98,-18.95l1.99 0c33.06,0 66.92,12.64 101.58,37.91 34.68,25.27 52.91,48.01 54.73,68.23 0.53,5.9 -0.34,10.95 -2.6,15.16 -6.88,11.8 -17.74,34.33 -32.6,67.6 -14.88,33.28 -28.75,70.35 -41.61,111.2 -12.87,40.85 -17.85,77.29 -14.98,109.3 1.81,20.22 8.28,37.06 19.41,50.55 11.13,13.48 28.67,21.06 52.63,22.74 15.87,0 23.33,2.11 22.38,6.32 0.38,4.21 -5.49,8.63 -17.66,13.26 -12.15,4.63 -28.8,6.95 -49.95,6.95 -14.55,0 -31.23,-1.68 -50.04,-5.05 -48.53,-10.11 -84.61,-29.06 -108.27,-56.86 -23.65,-27.81 -37.84,-60.66 -42.57,-98.57 -41.4,39.59 -82.7,76.87 -123.86,111.83 -41.16,34.96 -70.78,54.97 -88.84,60.02 -10.35,2.53 -24.13,3.79 -41.32,3.79zm798.91 -15.16c-14.55,0 -31.23,-1.68 -50.06,-5.05 -49.84,-10.11 -85.62,-29.48 -107.37,-58.13 -21.76,-28.64 -34.36,-62.33 -37.84,-101.08 -2.11,-23.59 -1.67,-48.01 1.36,-73.29 0.26,-11.79 1.93,-22.74 4.99,-32.85 19.75,-89.29 49.62,-176.48 89.59,-261.56 33.18,-72.45 59.12,-144.47 77.82,-216.08 6.39,-32.01 8.9,-55.6 7.54,-70.76l-1.02 -11.37c-1.13,-12.64 8.61,-21.9 29.24,-27.81 9.1,-1.68 18.28,-2.53 27.54,-2.53 34.38,0 67.03,10.12 97.95,30.33 30.9,20.22 50.09,42.54 57.58,66.97l0.68 7.58c2.19,24.43 -6.09,61.07 -24.85,109.94 -18.76,48.86 -41.99,103.19 -69.68,163.01 -33.09,73.29 -63.3,145.74 -90.59,217.34 -27.3,71.61 -38.97,129.31 -35.04,173.11 1.74,19.37 7.75,34.75 18.02,46.12 10.28,11.37 26.07,17.9 47.38,19.59 15.88,0 24.03,2.53 24.49,7.58 0.3,3.37 -5.63,7.37 -17.78,12 -12.15,4.63 -28.8,6.95 -49.95,6.95zm482.24 15.16c-33.06,0 -68.44,-3.79 -106.15,-11.37 -83.81,-20.22 -141.17,-47.81 -172.08,-82.77 -30.91,-34.96 -48.97,-66.76 -54.19,-95.4l-3.34 -15.16c-2.87,-32.02 4.23,-78.13 21.31,-138.37 17.07,-60.23 41.53,-111.83 73.38,-154.79 4.7,-6.74 13.66,-10.11 26.88,-10.11 13.23,0 29.41,3.58 48.57,10.74 19.15,7.16 37.79,15.8 55.88,25.91 33.1,-43.8 81.38,-65.7 144.87,-65.7l27.88 1.26c72.25,9.27 127.21,36.01 164.91,80.24 37.69,44.22 60.99,93.72 69.86,148.47l1.59 17.69c3.93,43.8 -4.32,88.24 -24.74,133.32 -20.42,45.07 -53.45,82.35 -99.06,111.83 -45.63,29.48 -104.14,44.22 -175.57,44.22zm-97.36 -68.23c38.34,0 75.33,-18.96 110.94,-56.87 35.6,-37.91 64.64,-82.77 87.1,-134.57 22.46,-51.81 31.88,-97.93 28.25,-138.37 -2.95,-32.85 -16.42,-57.7 -40.41,-74.55 -8.31,-4.21 -15.78,-6.32 -22.39,-6.32 -15.87,0 -31.15,6.53 -45.85,19.59 -14.71,13.06 -26.23,28.22 -34.61,45.49 -8.36,17.27 -11.99,32.22 -10.86,44.86l3.01 11.37c10.31,11.79 24.07,17.69 41.26,17.69 11.91,0 24.28,-2.11 37.13,-6.32 3.89,-0.84 8.48,-1.26 13.77,-1.26 5.29,0 10.69,1.26 16.21,3.79 8.23,3.37 12.62,8 13.15,13.9l-1.53 5.05c-3.06,10.11 -10.8,19.59 -23.23,28.43 -12.44,8.84 -31.21,13.26 -56.35,13.26l-23.91 -1.26c-40.13,-5.05 -69.66,-17.27 -88.59,-36.64 -18.21,32.85 -34.95,67.39 -50.21,103.62 -15.27,36.22 -21.72,67.39 -19.38,93.5 1.89,21.06 11.89,36.64 29.98,46.76 12.44,5.9 24.6,8.84 36.51,8.84zm715.77 53.07c-14.55,0 -31.23,-1.68 -50.04,-5.05 -51.26,-10.95 -88.49,-31.8 -111.75,-62.55 -23.25,-30.75 -36.7,-66.34 -40.33,-106.77 -4.92,-54.76 1.22,-111.62 18.41,-170.59 17.19,-58.97 34.66,-107.41 52.42,-145.32 4.31,-10.95 16.98,-17.27 37.98,-18.95l1.99 0c31.73,0 64.93,12.64 99.6,37.91 34.68,25.27 52.91,48.01 54.73,68.23 0.53,5.9 -0.34,10.95 -2.6,15.16 -6.88,11.8 -17.74,34.33 -32.6,67.6 -14.88,33.28 -28.41,70.35 -40.61,111.2 -12.2,40.85 -16.86,77.29 -13.99,109.3 1.81,20.22 7.96,37.06 18.43,50.55 10.46,13.48 27.67,21.06 51.62,22.74 15.87,0 24.03,2.53 24.49,7.58 0.3,3.37 -5.61,7.37 -17.78,12 -12.15,4.63 -28.8,6.95 -49.95,6.95zm62.09 -501.65l-14 -1.26c-22.93,-5.05 -44.41,-12.21 -64.42,-21.48 -20.01,-9.27 -36.26,-17.28 -48.76,-24.02 -9.79,-5.9 -15.03,-12.64 -15.7,-20.22 -1.28,-14.32 0.36,-36.43 4.95,-66.34 4.59,-29.9 19.64,-57.49 45.14,-82.77 19.95,-13.48 47.77,-20.22 83.48,-20.22 44.96,0 90.47,5.9 136.49,17.69 1.32,0 1.98,0 1.98,0 6.76,1.68 12.53,3.37 17.31,5.05 4.78,1.68 7.37,4.63 7.74,8.84 0.52,5.9 -5.8,16.43 -18.99,31.6 -19.19,21.9 -37.36,47.8 -54.51,77.71 -17.16,29.9 -30.75,55.38 -40.76,76.45 -3.44,5.9 -8.97,10.53 -16.61,13.9 -7.63,3.37 -15.41,5.05 -23.35,5.05zm-1233.19 -2029.63c0,31.86 13.34,86.14 45.79,95 53.78,14.69 102.79,-39.53 127.9,-82.05 24.04,-40.71 46.98,-106.96 46.98,-154.44 0,-36.57 -22.87,-90.95 -54.75,-90.95 -31.61,0 -55.54,9.92 -76.77,31.55 -23.51,23.96 -43.77,54.99 -57.17,86.82 -16.21,38.5 -31.98,69.91 -31.98,114.07z"/>
  <path class="fil1" d="M21921.23 10051c1058.76,-301.34 609.95,903.67 -126.43,1060.76 -459.47,97.99 -814.9,-12.96 -549.09,-494.4 170.85,-309.43 283.53,-454.78 675.52,-566.36zm1560.3 1775.29l1246.36 0.37c123.11,-168.09 249.68,-430.34 356.89,-613.46 176.28,-301 1049.23,-1752.41 1060.36,-1875.58l-1262.5 -3.69c-155.73,255.28 -1384.76,2383.38 -1401.11,2492.36zm-7284.71 3.67l3015.25 -3.09 420.71 -724.77 -1723.84 -7.99c48.55,-212.4 928.39,-1556.39 968.7,-1753.53l-1258.01 -7.46 -356.34 605.75c-199.98,358.44 -1034.23,1721.15 -1066.48,1891.08zm-7242.78 -893.2l0 320.03 37.47 61.24c86.32,151.73 176.94,266.67 352.57,356.33 589.88,301.12 2024.42,190 2141.17,94.02 68.05,-55.93 242.75,-641.65 253.69,-714.58 -337.22,0.83 -689.66,70.93 -1019.03,-22.64 -351.11,-99.73 -350.49,-388.36 -111.96,-612.46 422.65,-397.07 974.46,-358.26 1677.54,-327.77 118.45,-116.83 512.61,-631.4 543.08,-747.54 -897.44,-63.39 -1651.35,-103.1 -2464.06,213.99 -334.38,130.45 -631.5,292.52 -865.47,518.4 -496.08,478.89 -373.55,548.29 -545,860.99zm5114.22 -158.36c40.64,-139.79 110.67,-155.9 204.86,-262.2 63.5,-71.66 128.36,-139.14 199.24,-213.08 106.1,-110.68 311.82,-369.6 405.91,-415.87 -12.82,155.74 -84.78,746.42 -175.24,891.09l-634.76 0.05zm-2426.35 1061.83c236.37,-43.25 867.77,-15.32 1145.4,-12.19 290.61,3.27 268.83,-2.35 542.02,-310.63 117.34,-132.4 127.33,-100.56 430.27,-100.77l865.51 0.08 -54.4 408.56c243.35,3.53 1304.66,54.68 1378,-19.29 47.06,-114.17 92.37,-2215.68 67.78,-2464.71 -342.27,-24.53 -618.56,-8.08 -959.68,-8.08 -246.62,0 -619.86,-53.72 -769.84,77.53 -316.87,277.35 -558.93,492.95 -881.77,797.44 -214.95,202.74 -1719.58,1497.05 -1763.27,1632.05zm10479.82 -2512.09c-2058.57,287.28 -2871.92,1840.29 -1968.91,2359.81 374.26,215.34 999.71,200.87 1476.05,144.41 987.25,-117.03 1712.42,-527.98 2127.37,-1207.37 282.04,-461.76 211.61,-920.53 -187.55,-1145.1 -367.12,-206.55 -965.62,-218.92 -1446.94,-151.74z"/>
  <path class="fil0" d="M12363.53 5616.9l-12.31 27.63c31.76,-18.37 106.37,-27.63 223.77,-27.63 357.33,0 118.98,471.32 -182.75,471.32 -117.4,0 -210.9,-9.27 -226.22,-27.82l-98.79 221.85 -281.94 0 296.3 -665.35 281.94 0zm2960.4 1.01l-49.65 111.5 -141.71 0 -159.81 358.8 -283.42 0 159.8 -358.8 -148.36 0 57.83 -111.5 140.19 0 86.94 -195.22 283.41 0 -86.94 195.22 141.71 0zm-1299.57 470.31l-281.94 0 209.89 -471.32 281.95 0 -12.31 27.63c31.75,-18.37 106.37,-27.63 223.77,-27.63 140.97,0 195.02,36.91 162.05,110.92l-160.49 360.4 -281.44 -1.13 135.29 -303.81c16.52,-37.1 1.13,-55.46 -45.78,-55.46 -46.91,0 -78.67,18.36 -95.19,55.46l-135.8 304.94zm-672.87 0l209.89 -471.32 281.94 0 -209.89 471.32 -281.94 0zm237.27 -536.48l53.2 -119.45 281.94 0 -53.2 119.45 -281.94 0zm-554.21 536.48l-281.94 0 209.89 -471.32 234.53 0 -8.97 28.14c106.83,-38.25 175.15,-28.14 302.85,-28.14l-50.56 109.22c-48.48,0 -153.07,-3.4 -195.02,2.95l0 0.01c-35.94,4.7 -60.96,22.69 -74.99,54.19l-135.8 304.94zm-1237.94 -95.08c-26.29,52.76 -86.94,84.43 -181.94,95.08l-588.52 0 53.83 -127.67 383.53 0c83.44,0 87.61,-27.38 113.03,-78.41 16.44,-32.99 1.12,-49.57 -45.79,-49.57l-211.45 0c-140.96,0 -195.43,-33.12 -162.07,-99.13l102.11 -202.02c33.28,-65.83 119.89,-99.13 260.86,-99.13 182.96,0 365.91,0 548.87,0l-55.54 131.73c-140.97,0 -281.94,0 -422.91,0 -83.44,0 -94.46,48.1 -119.88,99.13 -16.53,33.16 -1.13,49.57 45.79,49.57l211.45 0c140.98,0 195.9,33.47 162.07,99.13l-93.43 181.3zm431.11 -71.31c-16.43,36.91 -1.12,55.47 45.79,55.47 46.91,0 78.75,-18.56 95.19,-55.47l61.7 -138.56c16.53,-37.1 1.13,-55.46 -45.78,-55.46 -46.91,0 -78.67,18.36 -95.19,55.46l-61.71 138.56z"/>
  <path class="fil1" d="M19699.15 4120.68c0,35.05 14.06,94.74 48.29,104.49 56.72,16.16 108.4,-43.48 134.89,-90.24 25.36,-44.77 49.55,-117.64 49.55,-169.86 0,-40.22 -24.13,-100.03 -57.75,-100.03 -33.32,0 -58.57,10.91 -80.96,34.7 -24.79,26.36 -46.16,60.48 -60.29,95.48 -17.1,42.35 -33.73,76.9 -33.73,125.46zm328.28 2009.07c211.75,-72.25 121.99,216.64 -25.29,254.3 -91.9,23.5 -162.98,-3.1 -109.82,-118.53 34.17,-74.18 56.7,-109.02 135.1,-135.77zm312.06 425.61l249.26 0.08c24.63,-40.29 49.94,-103.17 71.39,-147.06 35.25,-72.16 209.85,-420.12 212.07,-449.65l-252.5 -0.89c-31.14,61.21 -276.96,571.38 -280.22,597.52zm-1456.95 0.88l603.05 -0.74 84.15 -173.76 -344.78 -1.92c9.71,-50.93 185.68,-373.12 193.74,-420.39l-251.61 -1.79 -71.26 145.21c-40,85.95 -206.85,412.64 -213.3,453.38zm-1448.56 -214.14l0 76.72 7.5 14.67c17.26,36.38 35.38,63.95 70.51,85.45 117.97,72.19 404.88,45.55 428.24,22.53 13.61,-13.4 48.55,-153.82 50.74,-171.3 -67.45,0.19 -137.93,16.99 -203.81,-5.44 -70.22,-23.91 -70.11,-93.11 -22.39,-146.82 84.54,-95.2 194.9,-85.9 335.5,-78.58 23.7,-28.01 102.54,-151.39 108.62,-179.23 -179.49,-15.2 -330.28,-24.71 -492.82,51.3 -66.87,31.28 -126.29,70.14 -173.09,124.27 -99.22,114.82 -74.7,131.46 -109,206.42zm1022.85 -37.96c8.13,-33.51 22.13,-37.38 40.98,-62.87 12.7,-17.18 25.67,-33.35 39.84,-51.07 21.22,-26.53 62.37,-88.61 81.18,-99.71 -2.55,37.34 -16.95,178.95 -35.04,213.63l-126.95 0.02zm-485.27 254.56c47.28,-10.37 173.55,-3.68 229.07,-2.92 58.13,0.78 53.77,-0.56 108.42,-74.47 23.46,-31.74 25.46,-24.11 86.05,-24.16l173.1 0.03 -10.87 97.94c48.67,0.84 260.94,13.12 275.6,-4.62 9.41,-27.37 18.47,-531.19 13.56,-590.88 -68.45,-5.89 -123.72,-1.94 -191.94,-1.94 -49.33,0 -123.97,-12.88 -153.97,18.59 -63.38,66.49 -111.78,118.18 -176.35,191.17 -42.99,48.6 -343.92,358.91 -352.65,391.27zm2095.96 -602.25c-411.71,68.88 -574.37,441.19 -393.77,565.73 74.85,51.62 199.94,48.16 295.21,34.62 197.45,-28.06 342.49,-126.57 425.47,-289.45 56.4,-110.71 42.32,-220.69 -37.51,-274.53 -73.42,-49.51 -193.12,-52.48 -289.4,-36.38zm161.83 -1355.97c-8.71,6.75 -24.38,38.76 -32.2,51.13 -28.31,44.75 -68.02,113.87 -97.78,155.83 -4.19,5.91 -6.72,10.14 -10.69,16.46l-23.11 34.82c-4.07,6.25 -7.44,11.28 -11.69,17.26l-33.75 49.48c-4.54,6.38 -7.33,10.97 -11.73,17.23 -16.08,22.81 -31.17,43.84 -47.27,66.67 -4.24,6.02 -7.43,9.83 -11.52,15.61 -4.16,5.89 -7.59,11.11 -12.08,16.84 -26.62,34.11 -51.84,69.94 -79.56,102.88 -3.11,3.7 -3.06,4.59 -6.16,8.29l-65.61 75.06c-17.96,19 -34.63,40.31 -54.81,56.82l-71.15 69.16c-3.54,3.52 -4.25,3.43 -7.79,6.58l-37.03 33.05c-51,44.08 -106.2,82.14 -164.17,115.2 -117.71,67.11 -238.44,99.12 -365.81,41.49 -7.58,-3.44 -12.09,-5.17 -18.99,-9.53 -33.32,-21.1 -67.08,-44.95 -91.47,-77.31l-25 -30.96c-16.12,-21.34 -31.63,-45.7 -44.11,-70 -6.65,-12.97 -13.53,-23.35 -19.8,-36.47 -12.41,-25.89 -25.41,-51.93 -35.59,-79.03 -20.58,-54.76 -38.43,-113.87 -51.19,-177.38 -22.89,-113.99 -39.84,-240.8 -39.81,-361.71 0.01,-56.37 5.4,-112.57 7,-166.73 0.46,-15.7 3.35,-37.25 4.93,-52.21 25.23,-237.53 81.43,-470.72 165.05,-692.25l32.23 -82.58c13.14,-35.17 70.8,-167.53 85.94,-196.15l87.3 -166.95c64.11,-112.66 137.5,-220.07 215.75,-321.79 8.17,-10.63 17.02,-20.63 24.74,-31.24 7.6,-10.44 17.18,-19.68 25.25,-30.7 4.44,-6.11 8.06,-8.43 12.52,-14.54 17.78,-24.38 73.94,-82.24 94.76,-103.46l87.43 -81.58c59.84,-53.33 125.07,-102.4 195.36,-139.6 12.34,-6.53 24.22,-13.49 36.19,-19.12 39.27,-18.53 78.68,-34.32 121.41,-45.6 15,-3.96 29.2,-7.66 44.87,-9.92 86.23,-12.39 158.26,-4.5 236.93,28.74 44.25,18.7 74.27,55.3 103.68,92.15 4.24,5.32 8.19,12.76 13.22,16.11l-57.1 167.87c-3.09,9.41 -5.48,15.61 -8.29,24.57 -4.9,15.65 -11.4,30.75 -16.63,47.22 -13.14,41.28 -35.56,101.05 -50.65,142.75l-138.97 377.13c5.15,-3.99 18.66,-30.09 23.29,-38.33l253.51 -457.79c4,-6.95 6.71,-13.8 10.14,-20.77l21.04 -40.7c6.69,-13.59 37.6,-79.86 41.75,-83.39 31.1,43.61 87.02,178.7 104.09,240.16 2.07,7.44 3.06,11.39 5.29,18.48 2.04,6.41 3.23,14.52 6.33,19.25 0,-66.24 -29.42,-223.88 -46.11,-284.64l-25.64 -86.07 72.92 -159.75c6.47,-13.25 5.78,-9.19 1.99,-24.93 -12.49,-51.86 -25.92,-60.44 -41.65,-93.03 -11.24,-23.26 -40.33,-60.5 -61.27,-72.22 -4.04,18.39 -42.38,163.2 -50.75,181.54 -15.67,-19.17 -26.42,-41.71 -42.43,-60.66 -5.5,-6.48 -9.97,-12.55 -15.04,-19.27 -13.05,-17.26 -35.36,-38.02 -49.66,-53.03 -3.82,-4.01 -4.77,-4.29 -8.6,-7.56 -56.46,-48.11 -107.7,-85.8 -178.89,-110.72 -36.2,-12.68 -69.87,-19.67 -108.81,-25.61 -9.72,-1.49 -20.12,-2.4 -30.83,-2.88l-42.11 0c-18.88,0.7 -37.43,2.14 -53.87,3.64 -106.71,9.78 -211.06,52.56 -304.42,101.93l-182.98 123.07c-31.84,25.19 -63.19,51.56 -92.17,80.27l-102.38 102.79c-13.65,14.45 -28.49,28.44 -40.42,44.28l-47.93 54.86c-65.78,78.83 -126.1,162.4 -184.31,247.61 -28.32,41.47 -52.94,84.49 -79.14,127.4 -4.58,7.51 -8.13,14.73 -12.59,21.88 -4.39,7.02 -8.29,14.23 -12.6,21.85 -8.6,15.2 -15.82,29.39 -24.46,44.5l-48.1 89.87c-37.38,73.51 -71.53,148.15 -104.99,224.16l-15.32 37.5c-3.52,8.9 -6.72,15.89 -10.02,24.58l-38.27 100.28c-16.93,40.54 -30.26,85.3 -45.96,127.33 -30.06,80.37 -65.75,222.51 -84.19,299.91 -34.92,146.43 -65.2,342.3 -69.23,491.73l-3.57 66.62c-2.36,46.12 1.63,93.16 1.7,139.02 0.02,12.3 1.78,19.22 1.75,33.34l2.07 33.01c2.05,20.24 3.89,44.47 6.21,63.8 12.61,105.12 28.12,189.03 59.34,289.17 5.66,18.11 12.17,34.55 17.94,51.39 26.77,78.08 75.67,163.88 122.31,224.34 84.18,109.09 204.63,191.17 341.58,203.41 28.98,2.59 64.6,8.31 93.26,4.16 10.44,-1.51 21.45,0.35 32.04,-1.29 47.15,-7.31 66.71,-7.42 115.52,-20.35 89.5,-23.68 159.23,-60.05 234.57,-103.63 60.83,-35.18 200.9,-136.22 252.14,-190.64l198.59 -213.99 45.48 -57.44c10.18,-13.19 19.81,-26.09 29.36,-39.32 38.71,-53.54 75.7,-108.2 111.62,-165.26 18.07,-28.7 35.02,-55.8 52.5,-85.21 10.4,-17.49 141.98,-243.93 147.33,-268.26 4.29,-3.32 3.76,-2.52 5.24,-9.26l2.02 -3.61 -2.02 3.61c-4.27,3.32 -3.76,2.52 -5.24,9.26z"/>
  <path class="fil1" d="M15764.24 3440.12l-39.23 151.13 385.87 2.1c331.58,1.81 363.94,-348.04 322.53,-424.9 -71.12,-131.96 -349.91,-3.5 -366.27,-138.96 -10.92,-90.42 76.66,-121.36 156.61,-120.92l282.23 1.53 39.24 -151.13 -373.34 -2.03c-331.59,-1.8 -363.93,348.09 -322.51,424.9 71.15,131.98 349.86,3.5 366.26,138.97 10.95,90.35 -76.64,121.35 -156.61,120.92l-294.78 -1.61zm-12401.05 -386.91l-40.04 151.13 216.8 1.18 -51.81 198.99c-67.37,-0.36 -239.16,5.82 -295.01,-12.77 -112.53,-37.45 -83.83,-176.99 -60.41,-267.25 40.92,-157.7 98.22,-255.43 261.7,-254.54l317.37 1.72 39.24 -151.13 -399.69 -2.17c-270.6,-1.47 -377.82,169.15 -444.57,426.99 -63.51,245.33 -58.26,407.01 204.17,408.43l297.33 1.62c135.1,0.74 245.33,-94.8 280.41,-230.17 12.52,-48.29 50.18,-160.99 37.63,-195.17 -19.34,-52.66 -76.81,-75.3 -127.13,-75.56l-235.98 -1.29zm583.41 -99.9l-102.51 394.87c-32.46,125.09 14.27,209.67 142.51,210.37l414 2.25c135.16,0.73 245.27,-94.84 280.41,-230.21l102.53 -394.87c32.46,-125.09 -14.29,-209.66 -142.53,-210.36l-414 -2.25c-135.17,-0.73 -245.25,94.84 -280.41,230.2zm364.51 455.67c-82.47,-0.46 -168.66,13.95 -210.95,-47.83 -23.15,-33.81 -23.76,-74.41 -13.36,-112.86l61.61 -237.36c41.6,-157.05 178.97,-135.92 281.01,-135.37 88.34,0.48 135.28,69.98 111.4,160.08l-61.61 237.34c-21.24,80.14 -88,136.43 -168.1,136zm713.79 -681.52l-218.44 835.55 216.4 1.18 127 -486.86 207.32 488.68 242.8 1.32 218.44 -835.55 -216.39 -1.18 -127.08 487.07 -206.71 -488.88 -243.33 -1.32zm2052.93 11.16l-539.29 833.81 212.68 1.15 78.45 -120.84 361.23 1.96 14.41 121.34 228.49 1.25 -102.4 -837.3 -253.57 -1.38zm-150.18 563.32l204.68 -318.71 38.84 320.04 -243.52 -1.32zm862.3 -559.45l-218.45 835.56 620.34 3.37 39.23 -151.13 -404.09 -2.19 179.36 -684.43 -216.39 -1.18zm923.36 841.76l539.29 -833.81 -212.63 -1.15 -381.04 589.6 -72.93 -592.07 -228.65 -1.25 102.4 837.3 253.57 1.38zm686.23 -833.01l-218.44 835.56 645.43 3.51 39.23 -151.13 -429.49 -2.34 51.13 -191.09 278.26 1.51 39.23 -151.13 -278.96 -1.51 51.15 -191.08 416.26 2.26 39.24 -151.12 -633.05 -3.45zm642.43 688.89l-39.23 151.13 385.87 2.1c331.58,1.81 363.94,-348.04 322.53,-424.9 -71.12,-131.96 -349.91,-3.5 -366.27,-138.96 -10.92,-90.42 76.66,-121.36 156.61,-120.92l282.23 1.53 39.24 -151.13 -373.34 -2.03c-331.59,-1.8 -363.93,348.09 -322.51,424.9 71.15,131.98 349.86,3.5 366.26,138.97 10.95,90.35 -76.64,121.35 -156.61,120.92l-294.78 -1.61zm774.04 135.23c-0.42,76.9 153.86,42.32 154.48,-71.65 0.41,-75.6 -153.88,-39.34 -154.48,71.65zm794.54 -812.11l-539.29 833.81 212.68 1.15 78.45 -120.84 361.24 1.96 14.41 121.35 228.49 1.24 -102.4 -837.29 -253.58 -1.38zm-150.19 563.32l204.69 -318.71 38.84 320.03 -243.54 -1.32zm607.02 275.91l212.69 1.15 78.44 -120.84 361.24 1.96 14.4 121.34 228.5 1.25 -102.4 -837.29 -253.57 -1.38 -539.29 833.81zm389.11 -270.49l204.67 -318.71 38.85 320.04 -243.52 -1.32zm862.29 -559.44l-218.45 835.55 216.45 1.18 79.43 -302.72 176.05 0.95 123.82 303.83 229.64 1.25 -135.34 -334.13c100.36,-66.61 167.77,-134.25 204.95,-259.83 46.18,-155.97 -9.7,-242.45 -170.96,-243.33l-505.61 -2.74zm116.28 382.86l61.18 -230.57c65.46,0.36 191.43,-11.29 238.2,24.58 63.18,48.44 43.74,207.85 -127.93,206.92l-171.46 -0.94zm759.46 -378.11l-39.25 151.13 276.14 1.5 -179.36 684.42 216.41 1.18 179.36 -684.42 275.93 1.5 39.23 -151.13 -768.46 -4.18zm942.11 5.12l-218.44 835.56 645.42 3.51 39.24 -151.13 -429.49 -2.34 51.13 -191.09 278.26 1.51 39.23 -151.13 -278.95 -1.51 51.14 -191.08 416.27 2.26 39.24 -151.13 -633.05 -3.44zm-8539.36 104.93l39.23 -151.13c-123.9,-0.67 -349.5,-14.67 -456.17,21.11 -170.75,57.29 -244.24,236.32 -287.72,404.26 -63.51,245.33 -58.26,407.01 204.18,408.43l333.65 1.81 39.24 -151.12c-66.91,-0.37 -235.07,5.75 -290.69,-12.76 -112.54,-37.45 -83.83,-176.99 -60.41,-267.25 40.92,-157.7 98.22,-255.43 261.7,-254.54l216.99 1.18z"/>
  <path class="fil1" d="M2682.3 3418.59c-5.55,238.65 -149.81,382.11 -386.62,396.06 -75.3,4.44 -150.72,-0.6 -226.04,-0.8 -80.88,-0.23 -161.75,0 -242.64,0 -83.73,0 -137.85,-0.24 -215.67,-35.43 -118.85,-53.77 -200.27,-173.29 -215.1,-301.84 -3.39,-29.38 -2.67,-64.41 -2.93,-94.11 -0.48,-51.2 -0.36,-102.43 -0.18,-153.65 0.29,-77.86 1.33,-155.79 1.21,-233.61 -0.22,-130.25 -2.11,-223.25 84.55,-330.28 74.37,-91.83 179.11,-136.77 296.11,-139.37 159.62,-3.55 319.45,-2.48 479.06,0.69 147.37,2.91 233.28,15.74 337.13,130.44 54.27,63.13 79.29,131.16 88.66,213.87 1.9,21.88 2.43,43.8 2.43,65.76 0.02,160.55 -0.14,321.11 0.01,482.28zm-913.72 -737.49c-89.28,1.73 -169.91,54.6 -202.48,138.29 -13.63,35.02 -16.58,61 -16.57,98.52 0.03,167.94 0.15,335.86 0,503.81 -0.1,129.41 86.33,234.08 219.1,236.77 166.45,3.38 333.16,0.01 499.65,0.06 86.06,0.03 111.41,-3.18 181.31,-53.77 108.08,-78.22 77.5,-278.78 77.5,-396.36 0,-83.33 0.2,-166.67 0,-249.99 -0.23,-91.39 -5.6,-161.1 -78.4,-224.81 -73.3,-64.11 -179.78,-52.42 -270.3,-52.83 -134.58,-0.61 -269.2,-2.43 -403.78,0.18l-6.03 0.12zm584.45 191.68c-41.43,7.15 -76.04,-16.59 -82.82,-58.34l-0.18 -1.1 -0.05 -1.09c-3.87,-111.04 144.23,-96.43 139.58,-1.85 -1.38,28.21 -17.16,46.56 -42.31,57.6l-0.86 0.35 -5.69 2.14 -6.47 2.09 -1.2 0.2zm-334.71 -44.46c283.97,-17.41 466.68,308.11 298.11,539.41 -99.21,136.14 -268.56,182.2 -422.22,112.03 -317.49,-145.02 -234.5,-629.47 124.11,-651.44zm-156.55 281.88c-30.29,121.68 39.93,243.31 171.51,246.49 195.51,1.01 264.36,-255.48 94.34,-350.23 -67.62,-37.7 -159.47,-26.89 -216.86,24.94 -23.82,21.51 -38.51,48.85 -48.99,78.8z"/>
  <path class="fil0" d="M3740.64 703.42l-202.98 0 -85.84 97.78c-25.52,-58.14 -77.7,-97.78 -139.19,-97.78l-202.98 0 -68.44 77.96 0 -77.96 -147.3 0 0 688.43 147.3 0 0 -511.37c0,-22.46 15.09,-39.63 33.64,-39.63l212.26 0c18.57,0 34.8,17.17 34.8,39.63l0 511.37 146.14 0 0 -511.37c0,-22.46 16.24,-39.63 34.8,-39.63l211.1 0c19.72,0 34.8,17.17 34.8,39.63l0 511.37 147.3 0 0 -511.37c0,-97.77 -69.6,-177.06 -155.42,-177.06zm699.42 0l-242.42 0c-85.84,0 -155.42,79.29 -155.42,177.06l0 19.82 147.3 0 0 -19.82c0,-22.46 15.08,-39.63 34.8,-39.63l190.23 0c18.55,0 33.63,17.17 33.63,39.63l0 103.07 -276.06 0c-85.84,0 -155.42,79.28 -155.42,177.06l0 54.18c0,97.78 69.59,177.06 155.42,177.06l207.63 0 68.44 -79.28 0 79.28 147.3 0 0 -511.37c0,-97.77 -69.6,-177.06 -155.42,-177.06zm8.12 511.37c0,21.14 -15.09,39.64 -33.63,39.64l-216.91 0c-18.56,0 -33.63,-18.51 -33.63,-39.64l0 -54.18c0,-21.14 15.08,-39.64 33.63,-39.64l250.54 0 0 93.82zm740.02 -511.37l0 77.96 -69.6 -77.96 -233.14 0c-85.84,0 -155.42,79.29 -155.42,177.06l0 334.31c0,97.78 69.59,177.06 155.42,177.06l233.14 0 69.6 -79.28 0 138.74c0,21.14 -16.24,38.32 -34.8,38.32l-371.16 0 0 138.74 396.68 0c85.84,0 155.42,-79.29 155.42,-177.06l0 -747.89 -146.14 0zm0 511.37c0,21.14 -16.24,39.64 -34.8,39.64l-242.41 0c-18.57,0 -33.64,-18.51 -33.64,-39.64l0 -334.31c0,-22.46 15.08,-39.63 33.64,-39.63l242.41 0c18.57,0 34.8,17.17 34.8,39.63l0 334.31zm735.37 -511.37l-293.45 0c-85.84,0 -155.42,79.29 -155.42,177.06l0 334.31c0,97.78 69.59,177.06 155.42,177.06l293.45 0c85.84,0 155.43,-79.28 155.43,-177.06l0 -334.31c0,-97.77 -69.59,-177.06 -155.43,-177.06zm9.28 511.37c0,21.14 -16.24,39.64 -34.79,39.64l-242.42 0c-18.56,0 -33.63,-18.51 -33.63,-39.64l0 -334.31c0,-22.46 15.08,-39.63 33.63,-39.63l242.42 0c18.56,0 34.79,17.17 34.79,39.63l0 334.31zm735.38 -747.88l0 314.48 -69.6 -77.96 -233.14 0c-85.84,0 -155.42,79.29 -155.42,177.06l0 334.31c0,97.78 69.59,177.06 155.42,177.06l233.14 0 69.6 -79.28 0 79.28 146.14 0 0 -924.94 -146.14 0zm0 747.88c0,21.14 -16.24,39.64 -34.8,39.64l-242.41 0c-18.56,0 -33.63,-18.51 -33.63,-39.64l0 -334.31c0,-22.46 15.08,-39.63 33.63,-39.63l242.41 0c18.57,0 34.8,17.17 34.8,39.63l0 334.31zm735.38 -511.37l-293.45 0c-85.84,0 -155.42,79.29 -155.42,177.06l0 334.31c0,97.78 69.59,177.06 155.42,177.06l293.45 0c85.84,0 155.42,-79.28 155.42,-177.06l0 -334.31c0,-97.77 -69.59,-177.06 -155.42,-177.06zm9.28 511.37c0,21.14 -16.25,39.64 -34.8,39.64l-242.41 0c-18.57,0 -33.64,-18.51 -33.64,-39.64l0 -334.31c0,-22.46 15.08,-39.63 33.64,-39.63l242.41 0c18.56,0 34.8,17.17 34.8,39.63l0 334.31zm690.15 -239.16l-242.43 0c-18.55,0 -33.63,-17.18 -33.63,-38.32l0 -56.83c0,-22.46 15.09,-39.63 33.63,-39.63l372.33 0 0 -137.43 -397.85 0c-85.84,0 -155.42,79.29 -155.42,177.06l0 60.79c0,97.77 69.59,177.06 155.42,177.06l242.42 0c18.56,0 33.63,18.5 33.63,39.64l0 56.82c0,21.14 -15.08,39.64 -33.63,39.64l-380.45 0 0 137.42 405.97 0c85.83,0 155.42,-79.28 155.42,-177.06l0 -62.1c0,-97.78 -69.6,-177.06 -155.42,-177.06zm730.73 -272.2l-233.15 0 -68.44 77.96 0 -77.96 -147.3 0 0 924.95 147.3 0 0 -315.8 68.44 79.28 233.15 0c85.84,0 155.42,-79.28 155.42,-177.06l0 -334.31c0,-97.77 -69.59,-177.06 -155.42,-177.06zm9.28 511.37c0,21.14 -16.25,39.64 -34.8,39.64l-242.42 0c-18.56,0 -33.64,-18.51 -33.64,-39.64l0 -334.31c0,-22.46 15.09,-39.63 33.64,-39.63l242.42 0c18.56,0 34.8,17.17 34.8,39.63l0 334.31zm433.79 -610.46l0 -137.42 -147.31 0 0 137.42 147.31 0zm0 787.52l0 -688.43 -147.31 0 0 688.43 147.31 0zm520.8 -551l0 -137.43 -189.06 0 0 -177.06 -147.31 0 0 177.06 -77.71 0 0 137.43 77.71 0 0 373.94c0,97.78 69.6,177.06 155.43,177.06l147.3 0 0 -137.42 -121.79 0c-18.56,0 -33.63,-18.51 -33.63,-39.64l0 -373.94 189.06 0zm958.09 -137.43l-202.98 0 -85.84 97.78c-25.52,-58.14 -77.71,-97.78 -139.19,-97.78l-202.98 0 -68.44 77.96 0 -77.96 -147.31 0 0 688.43 147.31 0 0 -511.37c0,-22.46 15.09,-39.63 33.63,-39.63l212.27 0c18.57,0 34.8,17.17 34.8,39.63l0 511.37 146.14 0 0 -511.37c0,-22.46 16.24,-39.63 34.79,-39.63l211.11 0c19.72,0 34.8,17.17 34.8,39.63l0 511.37 147.3 0 0 -511.37c0,-97.77 -69.6,-177.06 -155.42,-177.06zm738.86 0l-293.45 0c-85.84,0 -155.43,79.29 -155.43,177.06l0 334.31c0,97.78 69.59,177.06 155.43,177.06l293.45 0c85.84,0 155.42,-79.28 155.42,-177.06l0 -334.31c0,-97.77 -69.59,-177.06 -155.42,-177.06zm9.27 511.37c0,21.14 -16.24,39.64 -34.79,39.64l-242.42 0c-18.56,0 -33.63,-18.51 -33.63,-39.64l0 -334.31c0,-22.46 15.08,-39.63 33.63,-39.63l242.42 0c18.56,0 34.79,17.17 34.79,39.63l0 334.31zm692.47 -511.37l-190.23 0 -68.43 77.96 0 -77.96 -147.31 0 0 688.43 147.31 0 0 -511.37c0,-22.46 15.08,-39.63 33.63,-39.63l242.42 0c18.57,0 34.8,17.17 34.8,39.63l0 511.37 146.14 0 0 -511.37c0,-97.77 -69.59,-177.06 -198.34,-177.06zm746.98 272.2l-242.42 0c-18.56,0 -33.64,-17.18 -33.64,-38.32l0 -56.83c0,-22.46 15.09,-39.63 33.64,-39.63l372.32 0 0 -137.43 -397.85 0c-85.83,0 -155.42,79.29 -155.42,177.06l0 60.79c0,97.77 69.6,177.06 155.42,177.06l242.42 0c18.56,0 33.64,18.5 33.64,39.64l0 56.82c0,21.14 -15.09,39.64 -33.64,39.64l-380.45 0 0 137.42 405.97 0c85.83,0 155.42,-79.28 155.42,-177.06l0 -62.1c0,-97.78 -69.6,-177.06 -155.42,-177.06zm654.18 -134.78l0 -137.43 -189.07 0 0 -177.06 -147.3 0 0 177.06 -77.72 0 0 137.43 77.72 0 0 373.94c0,97.78 69.59,177.06 155.42,177.06l147.3 0 0 -137.42 -121.78 0c-18.57,0 -33.64,-18.51 -33.64,-39.64l0 -373.94 189.07 0zm680.85 270.87l0 -231.24c0,-97.77 -69.59,-177.06 -155.42,-177.06l-267.93 0c-85.84,0 -155.42,79.29 -155.42,177.06l0 334.31c0,97.78 69.59,177.06 155.42,177.06l405.96 0 0 -137.42 -380.44 0c-18.57,0 -33.64,-18.51 -33.64,-39.64l0 -103.07 431.48 0zm-431.48 -231.24c0,-22.46 15.08,-39.63 33.64,-39.63l216.89 0c18.57,0 33.64,17.17 33.64,39.63l0 103.07 -284.18 0 0 -103.07zm781.77 -177.06l-68.44 77.96 0 -77.96 -147.3 0 0 688.43 147.3 0 0 -511.37c0,-22.46 15.09,-39.63 33.63,-39.63l199.51 0 0 -137.43 -164.71 0zm778.3 -236.52l-363.05 0c-85.84,0 -155.42,79.28 -155.42,177.06l0 182.35c0,97.77 69.59,177.06 155.42,177.06l371.16 0 0 202.17c0,21.14 -15.08,38.32 -34.79,38.32l-310.86 0c-18.56,0 -33.63,-17.18 -33.63,-38.32l0 -79.29 -147.3 0 0 88.53c0,97.78 69.59,177.06 155.42,177.06l363.05 0c85.83,0 155.42,-79.28 155.42,-177.06l0 -570.82c0,-97.78 -69.6,-177.06 -155.42,-177.06zm8.11 388.48l-345.65 0c-18.56,0 -33.63,-17.18 -33.63,-39.64l0 -162.52c0,-21.15 15.08,-38.32 33.63,-38.32l310.86 0c19.72,0 34.79,17.17 34.79,38.32l0 202.17zm891.96 70.03c51.04,-29.07 85.84,-88.53 85.84,-158.56l0 -122.88c0,-97.78 -69.6,-177.06 -155.44,-177.06l-353.77 0c-85.83,0 -155.42,79.28 -155.42,177.06l0 122.88c0,70.04 34.8,129.49 85.84,158.56 -60.31,23.78 -103.23,89.85 -103.23,166.49l0 122.89c0,97.78 69.6,177.06 155.42,177.06l388.57 0c85.84,0 155.42,-79.28 155.42,-177.06l0 -122.89c0,-76.64 -42.91,-142.7 -103.23,-166.49zm-432.65 -272.2c0,-21.15 16.25,-38.32 34.8,-38.32l302.74 0c18.56,0 34.79,17.17 34.79,38.32l0 162.52c0,22.46 -16.24,39.64 -34.79,39.64l-302.74 0c-18.56,0 -34.8,-17.18 -34.8,-39.64l0 -162.52zm389.73 552.32c0,21.14 -16.24,38.32 -34.79,38.32l-337.53 0c-18.56,0 -33.64,-17.18 -33.64,-38.32l0 -162.52c0,-22.47 15.09,-39.64 33.64,-39.64l337.53 0c18.56,0 34.79,17.17 34.79,39.64l0 162.52z"/>
  <path class="fil1" d="M2659.23 1254.76c-5.55,238.65 -149.81,382.11 -386.62,396.06 -75.3,4.44 -150.72,-0.6 -226.04,-0.8 -80.88,-0.23 -161.75,0 -242.64,0 -83.73,0 -137.85,-0.24 -215.67,-35.43 -118.85,-53.77 -200.27,-173.29 -215.1,-301.84 -3.39,-29.38 -2.67,-64.41 -2.93,-94.11 -0.48,-51.2 -0.36,-102.43 -0.18,-153.65 0.29,-77.86 1.33,-155.79 1.21,-233.61 -0.22,-130.25 -2.11,-223.25 84.55,-330.28 74.37,-91.83 179.11,-136.77 296.11,-139.37 159.62,-3.55 319.45,-2.47 479.06,0.69 147.37,2.91 233.28,15.74 337.13,130.44 54.27,63.13 79.29,131.16 88.66,213.87 1.9,21.88 2.43,43.8 2.43,65.76 0.02,160.55 -0.14,321.11 0.01,482.28zm-913.72 -737.49c-89.28,1.73 -169.91,54.6 -202.48,138.29 -13.63,35.02 -16.58,61 -16.57,98.52 0.03,167.94 0.15,335.86 0,503.81 -0.1,129.41 86.33,234.08 219.1,236.77 166.45,3.39 333.16,0.01 499.65,0.06 86.06,0.03 111.41,-3.18 181.31,-53.77 108.08,-78.22 77.5,-278.78 77.5,-396.36 0,-83.33 0.2,-166.66 0,-249.99 -0.23,-91.39 -5.6,-161.1 -78.4,-224.81 -73.3,-64.11 -179.78,-52.42 -270.3,-52.83 -134.58,-0.6 -269.2,-2.43 -403.78,0.18l-6.03 0.12zm584.45 191.68c-41.43,7.15 -76.04,-16.59 -82.82,-58.34l-0.18 -1.1 -0.05 -1.09c-3.87,-111.04 144.23,-96.42 139.58,-1.85 -1.38,28.21 -17.16,46.56 -42.31,57.6l-0.86 0.35 -5.69 2.14 -6.47 2.09 -1.2 0.2zm-334.71 -44.46c283.97,-17.41 466.68,308.11 298.11,539.41 -99.21,136.14 -268.56,182.2 -422.22,112.03 -317.49,-145.02 -234.5,-629.47 124.11,-651.44zm-156.55 281.88c-30.29,121.68 39.93,243.31 171.51,246.49 195.51,1.01 264.36,-255.48 94.34,-350.23 -67.62,-37.7 -159.47,-26.89 -216.86,24.94 -23.82,21.51 -38.51,48.85 -48.99,78.8z"/>
  <path class="fil1" d="M23326.54 325.22c446.99,-129.07 257.51,387.05 -53.39,454.31 -193.98,41.98 -344.03,-5.54 -231.8,-211.74 72.13,-132.53 119.69,-194.78 285.19,-242.57zm658.73 760.35l526.19 0.16c51.98,-72 105.41,-184.32 150.69,-262.75 74.41,-128.92 442.95,-750.56 447.66,-803.31l-533.01 -1.58c-65.75,109.34 -584.63,1020.81 -591.53,1067.48zm-3075.49 1.57l1272.98 -1.32 177.62 -310.42 -727.78 -3.43c20.49,-90.97 391.95,-666.59 408.99,-751.03l-531.13 -3.2 -150.44 259.44c-84.43,153.53 -436.63,737.18 -450.24,809.96zm-3057.8 -382.55l0 137.06 15.82 26.23c36.44,64.98 74.7,114.22 148.85,152.61 249.03,128.97 854.67,81.38 903.97,40.27 28.73,-23.95 102.48,-274.82 107.11,-306.06 -142.38,0.36 -291.17,30.39 -430.22,-9.69 -148.24,-42.72 -147.97,-166.34 -47.27,-262.32 178.44,-170.06 411.41,-153.45 708.24,-140.4 49.99,-50.03 216.42,-270.42 229.28,-320.17 -378.88,-27.15 -697.19,-44.16 -1040.29,91.65 -141.17,55.88 -266.61,125.29 -365.39,222.04 -209.44,205.11 -157.71,234.83 -230.09,368.77zm2159.15 -67.84c17.16,-59.87 46.73,-66.77 86.48,-112.29 26.82,-30.69 54.19,-59.6 84.12,-91.27 44.8,-47.4 131.64,-158.3 171.36,-178.12 -5.42,66.71 -35.78,319.7 -73.97,381.66l-267.99 0.02zm-1024.38 454.8c99.79,-18.53 366.37,-6.57 483.58,-5.23 122.68,1.4 113.5,-1 228.84,-133.04 49.52,-56.7 53.74,-43.07 181.65,-43.16l365.39 0.03 -22.95 174.99c102.73,1.51 550.81,23.42 581.76,-8.26 19.87,-48.9 38.99,-948.98 28.62,-1055.65 -144.52,-10.5 -261.15,-3.46 -405.17,-3.46 -104.12,0 -261.69,-23.01 -325.02,33.2 -133.78,118.79 -235.97,211.13 -372.28,341.55 -90.73,86.82 -725.98,641.17 -744.43,699.02zm4424.42 -1075.96c-869.09,123.05 -1212.48,788.21 -831.25,1010.73 158.01,92.23 422.07,86.02 623.17,61.85 416.82,-50.13 722.96,-226.14 898.16,-517.13 119.06,-197.77 89.32,-394.26 -79.2,-490.45 -155,-88.47 -407.67,-93.77 -610.88,-65z"/>
 </g>
</svg>
