<?xml version="1.0" encoding="UTF-8"?>
<!DOCTYPE svg PUBLIC "-//W3C//DTD SVG 1.1//EN" "http://www.w3.org/Graphics/SVG/1.1/DTD/svg11.dtd">
<!-- Creator: CorelDRAW -->
<svg xmlns="http://www.w3.org/2000/svg" xml:space="preserve" width="49.8119mm" height="61.7807mm" version="1.1" style="shape-rendering:geometricPrecision; text-rendering:geometricPrecision; image-rendering:optimizeQuality; fill-rule:evenodd; clip-rule:evenodd"
viewBox="0 0 159.18 197.42"
 xmlns:xlink="http://www.w3.org/1999/xlink"
 xmlns:xodm="http://www.corel.com/coreldraw/odm/2003">
 <defs>
  <style type="text/css">
   <![CDATA[
    .fil6 {fill:#FEFEFE}
    .fil0 {fill:#050A0A}
    .fil5 {fill:#663333}
    .fil3 {fill:#B3B3B3}
    .fil4 {fill:red}
    .fil1 {fill:#FF9999}
    .fil2 {fill:white}
   ]]>
  </style>
 </defs>
 <g id="Camada_x0020_1">
  <metadata id="CorelCorpID_0Corel-Layer"/>
  <g id="Coelho.cdr">
   <path class="fil0" d="M138.09 117.63c0.07,-0.09 0.15,-0.19 0.22,-0.28l1.46 -5.87 0.01 -0.05c0.15,-0.54 0.31,-1.07 0.43,-1.62l0.96 -4.2 13.86 -5.25 -2.03 8.36c-0.21,0.86 -0.56,1.53 -0.92,2.32l-1.7 3.7c-0.02,0.04 -0.03,0.07 -0.05,0.11 0.23,0.19 0.45,0.39 0.66,0.59 4.62,4.56 5.63,12.72 5.45,18.95 -0.02,0.7 -0.08,1.4 -0.13,2.1 -0.05,0.73 -0.13,1.46 -0.23,2.19 -0.28,1.95 -0.64,3.86 -1.19,5.75 -0.55,1.89 -1.14,3.76 -2.04,5.52 -0.09,0.17 -0.18,0.34 -0.27,0.52 0.34,0.44 0.62,0.93 0.87,1.46 0.88,1.87 0.93,3.71 0.64,5.72 -0.04,0.29 -0.05,0.59 -0.07,0.89l2.34 -0.13 0.55 4.09c0.35,2.64 -0.67,5.09 -2.1,7.23 0.15,0.59 0.32,1.18 0.48,1.76 0.33,1.21 0.76,2.39 1.18,3.57 0.43,1.18 0.86,2.37 1.38,3.52 0.87,1.94 1.68,3.51 1.18,5.74l-0.48 2.12 -1.73 0.9c-1.17,0.61 -1.76,0.43 -2.92,0.31 -1.31,-0.14 -2.77,-0.72 -3.9,-1.38 -1.03,-0.61 -2.32,-1.76 -3.08,-2.69 -1.46,-1.77 -2.55,-3.77 -3.32,-5.92 -0.06,-0.16 -0.12,-0.32 -0.17,-0.48 -1.31,0.62 -2.62,1.22 -3.93,1.82 0.36,1.01 0.76,2 1.2,2.97 1.12,2.43 2.17,4.88 0.49,7.41l-0.34 0.51 -0.45 0.38c-1.57,1.34 -3.31,1.03 -5.1,0.54 -1.52,-0.42 -2.9,-1.26 -4.1,-2.32l-2.31 1.42c-1.02,0.63 -2.05,0.76 -3.22,0.67 -0.07,-0.01 -0.14,-0.02 -0.22,-0.02 -0.56,0.05 -1.12,0.02 -1.67,0.08 -1.02,0.11 -2.03,0.28 -3,0.63 -2.04,0.75 -4.17,1.76 -5.41,3.62 -0.7,1.04 -1.26,1.82 -2.49,2.29 -0.6,0.23 -1.23,0.3 -1.87,0.2 -1.6,-0.23 -2.63,-1.32 -3.76,-2.35 -0.79,-0.72 -1.57,-1.36 -2.14,-2.29 -0.88,-1.44 -0.9,-3.01 -0.5,-4.61l0.7 -2.83c0.2,-0.81 0.44,-1.62 0.66,-2.42l-0.85 -0.05c-1.44,-0.09 -2.24,-0.78 -3.36,-1.56l-0.78 -0.55 -0.07 -0.06c-0.28,-0.22 -0.59,-0.4 -0.88,-0.62 -0.74,-0.55 -1.25,-1.18 -1.64,-2.01 -0.5,-1.09 -0.6,-2.17 -0.49,-3.28 -0.46,0.29 -0.93,0.53 -1.38,0.7 -2.29,0.87 -4.64,0.67 -6.73,-0.64 -0.69,-0.44 -1.3,-0.97 -1.85,-1.56 -0.14,0.23 -0.29,0.46 -0.44,0.68 -2.07,3.09 -4.9,5.85 -8.42,7.18 -0.26,0.1 -0.52,0.21 -0.79,0.32 -1.93,0.78 -3.77,0.81 -5.21,-0.95 -1.03,-1.25 -1.07,-2.23 -1.16,-3.74 -0.49,-7.92 -1.55,-15.79 -2.38,-23.68 -0.06,-0.59 -0.13,-1.17 -0.21,-1.76 -1.64,1.35 -3.26,2.71 -4.87,4.09 -7.81,6.71 -16.17,14.65 -21.56,23.49 -4.96,8.14 -12.84,5.16 -12.78,-3.87 0.04,-5.52 0.2,-11.05 0.36,-16.57 0.19,-6.33 0.42,-12.66 0.52,-19 0.04,-2.5 0.06,-5 0.01,-7.5 -0.03,-1.64 -0.08,-3.38 -0.3,-5.01l-0.14 -1.03c-1.72,-1.17 -3.22,-2.79 -4.44,-4.52l-2.96 -4.2c-2.94,-2.32 -6.59,-4.94 -8.49,-5.23 -7.47,-1.17 -14,-3.91 -14.59,-12.46 -0.39,-5.67 0.76,-11.19 2.24,-16.63 0.4,-1.47 1.28,-2.83 2.86,-3.16 1.06,-0.22 2.1,0.1 2.98,0.69 1.29,0.86 2.6,1.7 3.9,2.54 0.29,-4.44 -0.09,-8.94 -0.86,-13.3 -1.07,-6.01 -2.92,-11.83 -4.94,-17.58l-0.09 -0.26 -0.02 -0.27c-0.19,-2.91 0.16,-6.91 3.39,-8.09 2.59,-0.95 5.45,0.65 7.34,2.35l0.17 0.15 0.13 0.19c3.17,4.57 4.83,9.99 5.67,15.44 1.15,7.46 0.89,15.42 0.13,22.96 0.86,0.05 1.64,0.42 2.32,0.95 0.97,-1.31 2.3,-2.33 4.03,-2.39 2.87,-0.09 4.82,2.51 5.89,4.86 0.52,1.15 1.06,2.28 1.67,3.36 2,-0.63 4.19,-0.72 5.96,0.26 -1.74,-3.53 -3.12,-7.22 -4.08,-10.76 -1.5,-5.5 -2.29,-11.6 -1.68,-17.44l-1.25 -5.03c0.32,-1.36 0.73,-2.53 1.31,-3.68l-0.35 -3.95c0.15,-0.23 0.31,-0.46 0.49,-0.67 3.05,-3.7 8.86,-3.44 12.82,-1.54 1.37,0.66 2.61,1.52 3.7,2.55 0.32,-0.59 0.57,-1.22 0.75,-1.89 -0.1,-1.27 -0.04,-2.63 0.11,-3.87 0.28,-2.29 1.05,-5.56 3.51,-6.43 1.62,-0.57 3.2,0.18 4.41,1.25l0.26 0.23 0.17 0.31c0.12,0.23 0.25,0.46 0.37,0.69 0.15,-0.16 0.29,-0.32 0.44,-0.47 -1.67,-3.14 0.79,-7.99 2.57,-10.64 1.89,-2.8 3.86,-4.69 6,-5.71l-0.24 -0.16 1.91 -1.73c0.23,-0.21 0.53,-0.66 0.71,-0.92 0.41,-0.59 0.8,-1.19 1.18,-1.8 0.63,-0.99 1.24,-2.01 1.88,-3 1.74,-2.66 3.85,-5.09 6.19,-7.24 7.01,-6.44 17.69,-11.5 27.35,-8.99 3.8,0.99 9.42,3.99 12.05,6.89 3.43,3.78 6.25,8.66 8.29,13.32 1.08,2.45 2.37,5 3.21,7.53 1.12,3.41 1.31,7.09 1.43,10.65 0.23,6.69 0.86,13.35 1.36,20.02 0.49,6.5 0.41,13.05 1.02,19.54 1.11,0.27 2.2,0.77 3.21,1.43 2.71,1.76 3.7,4.08 4.82,6.98 0.15,0.38 0.27,0.77 0.38,1.17 0.45,1.69 0.51,3.46 0.3,5.19 -0.41,3.45 -2.27,8.28 -5.05,10.53 -2.6,2.11 -6.35,2.17 -8.87,-0.09 -0.83,-0.75 -1.43,-1.57 -1.86,-2.46l-1.66 4.88c0.35,0.45 0.7,0.9 1.04,1.35 2.15,2.81 4.18,5.72 6.14,8.67 0.3,0.46 0.61,0.92 0.91,1.38zm-7.62 -36.05l-0.13 -0.3c-0.39,-0.9 -0.72,-1.87 -1.03,-2.8 -0,-0.01 -0.01,-0.03 -0.01,-0.04l-2.8 0.1c-0.25,0.01 -0.49,0.01 -0.74,0.01 0.41,1.82 0.6,3.69 0.53,5.56l-0.33 8.48 -2.04 -4.6c-0.42,3.12 -1.33,6.15 -3.09,8.69 1.53,1.15 2.91,2.47 3.99,3.58 1.7,1.74 2.32,2.4 3.85,4.31l0.7 -8.24c-0.92,-0.62 -1.29,-1.87 -1.53,-2.96 -0.21,-0.97 -0.29,-1.92 -0.28,-2.91 0.03,-2.89 0.99,-6.4 2.92,-8.87zm-10.51 -27.38c0.86,2.08 1.21,4.45 1.05,7.37l-0.34 6.16 -1.64 -2.58 -0.08 3.72c0.73,0.35 1.39,0.79 1.96,1.31 0.87,0.25 1.98,-0.07 2.79,-0.3l2.81 -0.81c-0.43,-1.55 -0.84,-3.1 -1.26,-4.65 -0.92,-3.48 -1.81,-6.98 -2.65,-10.48 -0.28,-1.16 -0.55,-2.33 -0.81,-3.5 -0.12,0.11 -0.24,0.22 -0.37,0.32l-0.54 0.45c-0.16,1.05 -0.41,1.99 -0.8,2.76l-0.12 0.25zm7.36 17.74l-1.89 1.41c-0.11,0.08 -0.21,0.16 -0.32,0.23 0.86,0.36 1.67,0.83 2.42,1.34l0.83 0.57c-0.1,-0.33 -0.2,-0.67 -0.3,-1 -0.25,-0.85 -0.5,-1.7 -0.74,-2.55zm-46.29 45.53c-0.29,-0.05 -0.58,-0.11 -0.87,-0.17 -0.38,-0.08 -0.7,-0.22 -0.98,-0.4 -2.33,2.29 -4.81,3.57 -8.38,3.31 -3.47,-0.26 -6.35,-1.62 -7.35,-5.21 -0.37,-1.32 -0.83,-2.61 -1.4,-3.83l-0.61 -0.26c-3.89,-1.62 -7.32,-4.33 -10.27,-7.29 -1.99,-2 -3.79,-4.32 -5.4,-6.82 0.02,1.2 -0.25,2.42 -0.73,3.51 -0.78,1.77 -2.07,3.18 -3.65,4.18 3.42,2.45 5.45,6.08 5.54,10.25 0.57,7.5 -0.18,10.27 -1.3,17.62 -0.65,4.28 -1.24,8.56 -1.79,12.86 -0.37,2.93 -0.73,5.88 -1.06,8.83 3.15,-2.88 6.51,-5.51 9.93,-8.08 4.17,-3.13 8.42,-6.16 12.43,-9.49 5.94,-4.93 10.98,-10.26 14.63,-17.12 0.34,-0.65 0.77,-1.29 1.25,-1.87z"/>
   <path class="fil1" d="M54.3 66.8c1.43,1.43 3.19,2.92 5.3,3.86 -3.4,1.85 -6.41,4.2 -5.3,-3.86z"/>
   <path class="fil2" d="M55.89 77.48c-0.96,-0.21 -1.25,-0.93 -1.32,-2.08 -0.05,-1.1 0.39,-1.84 1.3,-2.34 13.3,-4.77 13.23,9.22 0.01,4.42z"/>
   <path class="fil2" d="M27.73 120.25c8.94,3.67 17.48,-5.02 11.22,-14.99 14.31,7.98 0.01,30.94 -11.22,14.99z"/>
   <path class="fil2" d="M35.23 101.76c0.83,0.73 1.67,1.45 2.5,2.18 8.43,-2.19 7.94,-13.62 -0.57,-10.65 0.41,0.73 0.83,1.46 1.24,2.19 0.23,0.49 -0.18,0.86 -0.49,0.56 -2.06,-2.29 -3.51,-4.73 -4.51,-7.28 -2.3,-4.39 -5.19,-4.96 -7.2,-1.03 1.04,1.75 2.5,3.27 4.31,4.6 4.24,2.05 6.7,4.83 4.71,9.43z"/>
   <path class="fil2" d="M28.21 118.79c-5.84,-5 -10.63,-8.47 -13.23,-8.79 -6.4,-1.24 -12.24,-3.09 -12.93,-10.65 -0.26,-5.45 0.51,-10.77 2.17,-15.98 0.44,-1.97 1.69,-2.14 2.84,-1.35 1.87,1.21 3.74,2.43 5.61,3.65 -0.43,5.23 -1.35,10.24 -2.94,14.97 -0.38,0.99 0.54,0.88 0.7,0.41 1.88,-4.79 2.46,-9.74 3.25,-14.67 0.7,-5.5 0.37,-11.23 -0.54,-17.1 -1.23,-6.15 -2.98,-12.08 -5.02,-17.89 -0.51,-7.95 4.13,-7.13 7.44,-4.15 5.01,7.24 7.46,18.9 5.3,38.53 -1.88,2.09 -3.49,7.59 -4.64,19.21 -0.05,0.65 0.82,0.75 0.78,0.06 0.44,-2.83 2.19,-23.16 7.55,-17.6 1.57,2.58 3.64,4.72 6.49,6.15 3.17,1.4 4.45,3.96 3.48,7.9 -1.54,-0.35 -3.08,-0.71 -4.62,-1.07 0.63,-0.75 1.26,-1.5 1.9,-2.25 0.33,-0.3 0.01,-1.05 -0.54,-0.69 -0.52,0.66 -1.05,1.31 -1.57,1.97 0.1,-1.76 -0.16,-3.5 -1.1,-5.22 -0.25,-0.32 -0.8,-0.15 -0.59,0.39 1.54,3.42 0.25,8.64 -2.85,11.44 -0.4,0.53 0.18,1.25 0.67,0.8 1.37,-1.06 2.54,-3.67 3.28,-5.52 15.33,-0.13 13.34,23.62 -0.88,17.44z"/>
   <path class="fil2" d="M80.56 115.37c-0.63,-0.13 -0.69,-1.02 -0.06,-1.55 3.96,-3.59 7.68,-6.44 11.67,-7.23 0.41,-0.21 0.11,-1.18 -0.59,-1.06 -3.99,1.5 -7.64,3.32 -10.24,6.13 -0.91,1 -1.82,2 -2.74,3 -1.84,2.01 -3.94,3.72 -7.64,3.57 -2.52,-0.27 -4.75,-1 -5.6,-3.78 -1.11,-4.33 -2.93,-7.44 -5.32,-9.57 -0.41,-0.44 -1.11,-0.11 -0.6,0.48 1.11,1.02 2.05,2.23 2.75,3.72 -3.2,-1.33 -6.41,-3.61 -9.63,-6.86 -10.11,-10.07 -17.66,-32.08 -11.52,-46.84 0.31,-0.47 -0.17,-0.8 -0.47,-0.42 -1.03,1.07 -1.92,2.45 -2.82,3.81 0.91,-3.91 2.4,-4.91 4.02,-7.95 0.21,-0.23 0.13,-0.81 -0.38,-0.57 -0.98,0.5 -1.96,1 -2.93,1.5 3.65,-5.74 19.05,-2.56 18.22,12.94 -4.12,1.41 -4.48,4.34 -2.01,8.4 -0.83,0.85 -1.09,1.88 -0.98,3.02 -1.83,-1.49 -7.15,-7.46 -4.53,-10.39 0.81,-0.03 1.86,0.19 2.58,0.81 0.32,0.26 0.55,-0.79 0.25,-1.07 -3.62,-0.28 -5.23,-3.37 -6.38,-7.07 -0.07,-0.51 -0.78,-0.53 -0.57,0.16 0.73,2.37 1.71,4.6 3.33,6.47 -1.43,3.75 -0.05,5.1 1.61,8.23 -0.14,2.49 -0.29,4.99 -0.43,7.48 -0.09,2.28 -0.18,4.56 -0.27,6.84 0.51,4.89 7.7,7.79 10.98,9.03 0.02,4.42 1.63,8.47 4.31,12.26 7.46,11.45 15.98,1.74 20.26,-7.05 4.07,-7.22 8.9,-13.56 15.01,-18.58 1.68,0.78 3.36,1.66 5.05,2.92 0.61,0.46 0.84,-0.55 0.57,-0.98 -6.4,-3.94 -12.74,-6.94 -18.88,-7.26 -4.57,-0.16 -17.09,0.24 -20.19,-3.89 -0.22,-0.52 -0.28,-1.15 0.49,-1.32 11.79,2.08 23.43,-0.5 36.38,-2.49 4.07,-0.84 13.21,-1.99 16.61,1.6 1.4,0.64 2.91,0.34 4.43,-0.1 -0.83,0.62 -1.85,1.31 -3.17,2.1 -0.48,0.5 -0.15,1.32 0.42,1.1 1.44,-0.25 3.1,0.35 4.92,1.59 -0.63,0.02 -1.31,0.03 -2.29,-0.02 -0.5,0 -0.99,0.02 -0.69,0.96 0.59,2.16 0.95,4.33 0.87,6.53 -0.67,-1.51 -1.14,-3.04 -1.29,-4.62 -0.1,-0.71 -0.94,-0.87 -0.9,0.08 0.57,6.99 -0.31,12.77 -3.4,16.68 -6.16,-3.12 -10.23,-0.42 -11.73,8.17 -0.34,1.67 -0.99,3.1 -2.25,4.04 -6.39,4.9 -13.15,9.24 -24.19,6.97z"/>
   <path class="fil2" d="M78.53 81.99c0.07,-1.15 0.31,-2.36 0.38,-3.51 1.12,0.12 2.29,0.3 3.39,0.04 -0.34,3.62 -0.21,4.19 -3.77,3.46z"/>
   <path class="fil2" d="M69.37 82.03c0.07,-1.15 0.46,-3.35 0.54,-4.5 1.11,0.38 7.36,1.28 8.52,1.03 -0.46,5.21 -1.25,4.37 -9.06,3.48zm-4.47 -0.32c0.34,-1.75 0.7,-3.46 1.07,-5.14 1.14,0.67 2.25,0.95 3.31,0.97 -0.13,1.62 -0.37,3.21 -0.79,4.75 -1.25,0.02 -2.45,-0.18 -3.59,-0.58z"/>
   <path class="fil2" d="M49.86 87.03c0.24,-4.2 0.48,-8.4 0.72,-12.6 0.97,1.35 2.12,2.62 4.14,3.5 -0.44,4.21 -0.74,8.22 -1.18,12.37 -0.17,2.09 -4.08,-0.95 -3.68,-3.27z"/>
   <path class="fil2" d="M55.04 93.04c1.38,0.76 2.52,1.39 3.9,2.15 1.13,0.65 1.95,0.58 2.47,-1.13 1.05,-5.22 2.31,-10.38 3.36,-15.6 -3.23,0.77 -6.26,0.8 -8.99,-0.2 -0.49,2.61 -2.58,12.81 -0.74,14.78z"/>
   <path class="fil3" d="M32.66 126.67c3.42,1.15 10.36,-0.95 12.87,-5.41 -2.35,11.93 -5.58,34.81 -6.02,47.18 -0.05,0.55 0.67,0.64 0.78,0.04 0.26,-3.18 1.11,-7.46 1.37,-10.64 13.28,-13.27 30.92,-19.82 39.87,-37.57 1.81,-3.23 4.44,-4.28 6.37,-2.66 8.17,12.53 13.65,25.82 17.69,39.53 -0.43,0.2 -0.85,0.41 -1.28,0.61 -4.31,-12.35 -7.91,-24.95 -14.51,-30.8 -0.5,-0.46 -0.94,0.1 -0.39,0.64 0.83,0.91 1.66,1.82 2.49,2.74 -14.05,12.66 -39.36,29.1 -50.7,47.54 -3.99,6.6 -8.68,3.98 -9.12,-2.83 1.32,-16.93 1.56,-41.1 0.58,-48.35z"/>
   <path class="fil3" d="M113.57 154.62c4.73,-1.25 9.46,-2.5 14.19,-3.75 -3.12,-9.56 -4.33,-17 -4.93,-24.29 -1.7,-1.91 -3.14,-3.97 -4.84,-5.88 -0.39,-0.46 0.26,-1.07 0.64,-0.6 6.84,7.85 13.12,16.63 18.59,26.73 4.38,-1.3 8.76,-2.6 13.14,-3.89 -3.77,-8.26 -35.62,-69.41 -42.11,-38.17 -1.17,13.97 4.2,28.36 10.43,42.79 0.08,0.55 -0.44,0.8 -0.69,0.23 -4.4,-10.6 -8.56,-21.53 -10.17,-32.2 0.56,7.53 2.54,15.12 5.1,22.81 0.12,0.41 -0.48,0.66 -0.63,0.21 -3.07,-9.5 -6.5,-19.38 -5.43,-30.17 -1.64,1.65 -3.27,2.89 -4.9,3.49 2.39,14.24 6.82,28.47 11.61,42.69z"/>
   <path class="fil3" d="M56.24 65.57c3.13,-1.03 5.79,-0.79 7.8,1.27 0.47,0.16 0.66,-0.31 0.34,-0.84 -0.74,-0.78 -1.7,-1.29 -2.73,-1.72 1.06,-0.06 2.24,0.05 3.5,0.27 0.37,-0.21 0.2,-0.82 -0.49,-0.88 -1.2,-0.08 -2.39,-0.17 -3.59,-0.25 -0.12,-1.47 0.9,-2.44 2.12,-3.31 0.57,0.51 1.5,-7.33 3.46,-10.58 0.21,-0.74 -0.33,-1.29 -0.82,-0.63 -1.34,2.81 -2.23,5.85 -2.92,9.01 -0.8,-4.58 -1.74,-9.15 -3.67,-13.69 -0.17,-0.59 -0.91,-0.3 -0.67,0.38 0.36,0.68 0.64,1.35 0.67,1.95 -1.79,2.95 -2.77,6.3 -3.4,9.83 -0.33,-0.96 -0.78,-1.88 -1.45,-2.7 1.09,-1.31 1.8,-2.77 2.17,-4.38 -0.34,-3.45 0.59,-11.41 4.73,-7.73 0.46,0.85 0.92,1.71 1.38,2.56 0.19,0.13 0.37,0.26 0.56,0.4 0.71,-0.87 1.45,-1.71 2.22,-2.51 0.37,-0.39 0.71,-1.4 1.15,-1.14l42.61 25.27c0.63,0.37 0.54,1.62 0.86,2.32 -6.4,0.91 -12.55,1.78 -18.95,2.68 1.86,-1.97 2.71,-4.29 3.64,-6.72 0.21,-0.69 -0.59,-1.27 -1.02,-0.62 -1.19,2.84 -2.71,5.13 -4.33,7.74 -0.6,-0.09 -1.17,0.01 -1.78,-0.18 3.28,-2.73 4.31,-6.38 4.83,-10.24 2.13,0.05 4.29,0.41 6.5,1.34 0.73,0.17 0.67,-0.91 0.1,-1.04 -8.08,-2.14 -14.5,-1.93 -19.75,-0.04 -3.61,1.7 -7.22,2.54 -10.85,1.53 0.25,-3.93 0.59,-8.1 1.69,-12.37 0.15,-0.81 -0.8,-1.01 -1.04,-0.26 -0.83,3.86 -1.27,7.56 -1.49,11.15 -0.19,2.1 1.04,3 2.7,2.83 -0.78,2.76 -0.39,5.5 1.3,8.22 -2.9,-0.09 -5.6,-0.33 -7.55,-1.17 -0.9,-0.22 -11.14,-3.96 -7.8,-5.73zm10.04 -10.55c-0.12,0.68 0.9,1.05 1.06,0.07 0.51,-2.98 1.21,-5.96 2.39,-8.94 0.35,-0.71 -0.36,-1.4 -0.77,-0.88 -1.27,3.21 -2.07,6.47 -2.67,9.76z"/>
   <path class="fil4" d="M57.37 64.25c0.76,-0.5 2.01,-0.46 3.09,-0.38 0.14,-0.66 0.12,-1.26 0.27,-1.92 -2.98,-1.89 -1.03,-7.27 0.61,-9.49 -0.73,-1.79 -1.36,-3.59 -1.56,-5.4 -3.83,5.26 -3.26,10.82 -2.4,17.2z"/>
   <path class="fil4" d="M70.85 64.03c0.69,0.06 1.37,0.13 2.06,0.19 -0.68,5.26 7.57,5.39 6.56,-1.8 4,-1.3 8.02,-1.73 12.06,-1.54 -0.65,5.2 -2.95,10.31 -7.56,11.61 -3.95,0.4 -7.86,0.68 -11.6,0.32 -1.82,-2.72 -2.18,-5.67 -1.51,-8.77z"/>
   <path class="fil4" d="M70.96 105.77c2.09,-0.55 3.43,-1.93 4.46,-3.68 1.72,-2.81 3.34,-3.03 4.96,-3.11 -1.52,3.12 -3.64,5.65 -5.96,7.98 -0.4,0.56 0.1,0.78 0.49,0.57 2.18,-1.71 3.89,-3.8 5.18,-6.23 2.29,-5.44 5.21,-6.32 8.33,-5.76 -4.68,5.89 -6.46,10.3 -9.37,13.4 -10.04,10.69 -13.69,-2.64 -8.1,-3.17z"/>
   <path class="fil5" d="M69.13 112.87c-5.32,-3.49 -7.58,-8.99 -8.2,-15.57 1.6,-4.69 3.1,-9.35 3.55,-14.1 4.36,-0.62 18.72,4.26 18.35,-3.8 5.15,-0.67 10.4,0.91 15.69,3.4 -1.38,2.15 -3.4,4.05 -5.57,5.76 -0.26,-1.32 -0.04,-2.69 -0.52,-4.42 -0.79,-3.12 -5.79,-3.91 -5.81,-0.07 0.17,0.98 0.34,1.96 0.51,2.95 1.12,3.3 -1.89,4.24 -1.16,0.58 0.32,-0.98 0.16,-1.95 -0.57,-2.89 -1.76,-1.33 -3.33,-0.68 -4.4,1.22 -1.33,2.89 -0.7,7.39 -0.91,10.96 -0.08,1.02 -0.65,1.51 -1.93,1.2 -2.02,1.33 -3.25,3.29 -4.29,5.1 -0.58,1.12 -1.45,1.91 -2.79,2.14 -4.21,0.63 -3.69,4.26 -1.95,7.55z"/>
   <path class="fil6" d="M140.12 118.25l1.56 -6.28 0.01 -0.03c0.15,-0.56 0.31,-1.12 0.45,-1.69l0.72 -3.17 9.37 -3.55 -1.15 4.72c-0.18,0.73 -0.46,1.35 -0.8,1.96l-1.7 3.7c-0.13,0.31 -0.24,0.6 -0.4,0.89 -0.13,0.24 -0.24,0.5 -0.35,0.76 0.6,0.29 1.19,0.71 1.77,1.27 3.98,3.94 5.05,11.33 4.86,17.49 -0.02,0.68 -0.08,1.34 -0.13,2.01 -0.05,0.69 -0.12,1.37 -0.21,2.05 -0.27,1.89 -0.61,3.68 -1.13,5.48 -0.53,1.82 -1.07,3.54 -1.9,5.17 -0.32,0.63 -0.67,1.23 -1.04,1.79 0.63,0.34 1.12,0.88 1.61,1.93 0.7,1.49 0.71,2.95 0.48,4.6 -0.05,0.35 -0.05,0.77 -0.09,1.14l-0.18 2.33c0.33,-0.15 0.66,-0.25 1.01,-0.27l1.77 -0.1 0.31 2.28c0.34,2.5 -1.01,4.85 -2.26,6.56 0,0 0,0 0,0 0.19,0.92 0.45,1.81 0.69,2.7 0.34,1.25 0.8,2.53 1.23,3.72 0.44,1.22 0.91,2.48 1.43,3.65 0.61,1.37 1.44,2.8 1.06,4.5l-0.28 1.23 -0.91 0.48c-0.69,0.36 -1.14,0.17 -1.8,0.1 -0.99,-0.09 -2.2,-0.59 -3.1,-1.12 -0.77,-0.46 -1.93,-1.49 -2.56,-2.25 -1.26,-1.53 -2.26,-3.29 -2.99,-5.33 -0.3,-0.83 -0.6,-1.63 -0.83,-2.49 -0.5,0.23 -1.02,0.4 -1.52,0.64 -1.68,0.8 -3.35,1.65 -5.04,2.33 -0.41,0.21 -0.67,0.42 -1,0.54 0.56,1.66 1.19,3.34 1.84,4.77 0.74,1.59 1.85,3.67 0.64,5.49l-0.19 0.28 -0.24 0.2c-0.96,0.82 -2.25,0.43 -3.3,0.14 -1.99,-0.55 -3.84,-2.1 -5.21,-4.04 -1.18,-1.68 -2.55,-4.69 -3.14,-6.88 -0.18,0.09 -0.36,0.17 -0.54,0.26 -0.81,0.37 -1.62,0.71 -2.43,1.08 -0.78,0.36 -1.57,0.73 -2.35,1.08 -0.09,0.04 -0.19,0.09 -0.29,0.13 1.14,0.11 2.32,0.36 3.36,0.92 1.31,0.71 3.33,1.74 3.73,3.67l0.45 2.15 -1.54 0.95c-0.66,0.41 -1.32,0.44 -2.03,0.38 -0.14,-0.01 -0.33,-0.04 -0.47,-0.03 -0.6,0.06 -1.19,0.03 -1.78,0.09 -1.18,0.13 -2.33,0.32 -3.48,0.74 -2.24,0.83 -4.8,2.02 -6.37,4.38 -0.47,0.7 -0.8,1.25 -1.55,1.53 -1.39,0.52 -2.55,-0.8 -3.61,-1.76 -1.49,-1.35 -2.7,-2.2 -2.05,-4.96l0.7 -2.83c0.31,-1.24 0.7,-2.44 0.99,-3.68 0.16,-0.68 0.34,-1.34 0.51,-2.01 0.16,-0.61 0.33,-1.22 0.49,-1.84 0.53,-2.02 1.47,-4.94 1.57,-7.04 0.02,-0.45 -0.01,-1.63 -0.23,-2.1 -0.2,0.1 -0.52,0.3 -0.64,0.41 -1.38,1.34 -2.72,6.25 -2.56,8.45l0.22 3.04 -2.33 -0.15c-0.92,-0.06 -1.6,-0.59 -2.34,-1.21l-0.74 -0.53 -0.04 -0.03c-0.76,-0.59 -1.43,-0.79 -1.93,-1.9 -0.51,-1.11 -0.39,-2.22 -0.14,-3.39 0.6,-2.81 1.1,-4.86 2.17,-7.29 -0.03,-0.25 -0.05,-0.5 -0.07,-0.74 -0.32,0.86 -0.67,1.65 -1.04,2.31 -0.29,0.51 -0.55,1.03 -0.86,1.52 -0.34,0.54 -0.71,1 -1.1,1.47 -0.83,1 -2.24,2.12 -3.33,2.53 -1.68,0.64 -3.39,0.54 -4.97,-0.47 -1.27,-0.8 -2.3,-2.09 -3.13,-3.6 -0.57,1.21 -1.22,2.33 -1.86,3.3 -1.99,2.98 -4.55,5.33 -7.48,6.44 -1.24,0.47 -2.64,1.35 -3.77,-0.03 -0.7,-0.85 -0.65,-1.56 -0.72,-2.61 -0.49,-7.93 -1.56,-15.88 -2.39,-23.77 -0.11,-1.01 -0.24,-1.99 -0.39,-2.99 -0.16,-1.08 -0.24,-2.02 0.29,-3 0.42,-0.78 0.78,-0.87 1.34,-1.25 3.39,-2.27 7.59,-6.49 11.62,-5.21 1.39,0.44 2.18,1.38 2.71,2.69 0.49,-1.42 1.06,-2.75 1.73,-3.91 1.97,-3.44 5.37,-6.15 8.74,-4.83 1.01,0.39 1.8,1 2.52,1.8 0.55,-1.28 1.72,-1.77 2.69,-2.38l5.78 -3.83 1.06 21.58c0.18,-0.11 0.36,-0.22 0.54,-0.34 -0.31,-2.8 -0.32,-6.26 -0.02,-8.58 0.09,-0.73 0.17,-1.46 0.27,-2.19 0.64,-4.67 2.44,-10.34 5.42,-13.45l-0.05 -1.25c-0.04,-1.06 0.67,-3.54 0.94,-4.6 0.3,-1.18 0.63,-2.35 0.93,-3.53l0.33 -1.34 8.4 -3.18 -0.19 3.76c-0.04,0.71 -0.16,1.19 -0.49,1.75 -0.01,0.03 -0.02,0.05 -0.03,0.08l-0.01 0.03 -2.67 5.82 -0.05 0.09c-0.07,0.13 -0.13,0.27 -0.18,0.4 0.64,0.28 1.26,0.69 1.85,1.25l-0.02 -0.23 1.51 -0.62c0.73,-0.41 1.52,-0.97 2.23,-1.44 0.7,-0.46 1.47,-0.93 2.15,-1.44l3.02 -3.53 0.29 8.25c0.03,0.89 0.07,1.78 0.1,2.67 0.1,3.5 0.3,7.01 0.53,10.47l0.13 1.7c0.19,-0.12 0.37,-0.25 0.56,-0.37 -0.31,-2.9 -0.3,-6.58 0.02,-8.89l0.35 -2.51c0.18,-1.26 0.55,-2.8 0.89,-4.01 0.65,-2.31 1.27,-4.13 2.42,-6.13 0.13,-0.23 0.26,-0.46 0.4,-0.67 0.3,-0.44 0.61,-0.85 0.94,-1.24zm-2.11 35.75c0.03,0 0.06,0.01 0.09,0.01 0.73,0.09 1.54,0.16 2.26,0.32 0.18,0.04 0.37,0.1 0.55,0.17 -0,-0 -0,-0 -0,-0 -0.01,-0.04 -0.03,-0.09 -0.04,-0.14 -0.52,-0.31 -0.99,-0.72 -1.42,-1.2l-1.43 0.84zm-20.49 26.91l-0.27 -0.64c-0.03,-0.06 -0.05,-0.13 -0.08,-0.19 -0.08,0.34 -0.16,0.68 -0.25,1.02 0.2,-0.07 0.4,-0.13 0.61,-0.19zm17.44 -19.5c-0.02,0.21 -0.04,0.42 -0.06,0.64 -0.05,0.72 -0.13,1.53 -0.2,2.33 0.12,-0.05 0.24,-0.1 0.38,-0.14 0.08,-0.93 0.03,-1.86 -0.13,-2.83zm-39.1 -11.48c-0.66,0.81 -1.06,3.06 -1.23,3.88 -0.34,1.62 -0.58,4.52 -0.22,6.14 0.06,0.25 0.36,1.15 0.57,1.14 0.17,-0.01 0.5,-0.12 0.63,-0.26 0.71,-0.8 0.81,-1.44 1.08,-2.6 0.4,-1.66 0.25,-4.37 -0.12,-6.03 -0.1,-0.47 -0.41,-1.64 -0.72,-2.28zm24.97 -9.47c-0.26,0.42 -0.54,1.19 -0.66,1.52 -0.4,1.21 -0.67,2.56 -0.82,3.86 -0.16,1.33 -0.33,4.57 0.44,5.66 0.18,0.26 0.46,0.09 0.67,-0.04 0.24,-0.16 0.32,-0.26 0.48,-0.54 0.51,-0.88 0.61,-1.65 0.81,-2.7 0.09,-0.48 0.12,-1.02 0.13,-1.52 0.05,-1.53 -0.3,-4.96 -1.05,-6.24zm24.93 -9.52c-0.39,0.5 -0.82,2.12 -0.94,2.66 -0.3,1.33 -0.5,2.76 -0.63,4.14 -0.13,1.42 0,2.4 0.3,3.77 0.32,1.45 1.34,0.24 1.68,-0.56 0.75,-1.79 0.87,-5.12 0.44,-7.06 -0.13,-0.6 -0.49,-2.21 -0.85,-2.95z"/>
   <path class="fil4" d="M122.17 173.36c0.06,-0.36 0.71,-1.66 0.94,-2.15l0.51 -1.03c0.7,-1.48 1.52,-4 1.67,-5.99 0.16,-2.15 -1.29,-3.64 -2.42,-3.8l-3.16 -0.44c-0.53,-0.09 -1.4,-0.5 -0.95,0.59 0.43,1.07 0.23,0.36 0.67,1.86 0.56,1.92 0.73,3.69 0.54,5.7 -0.08,0.85 -0.31,1.62 -0.48,2.42 -0.31,1.51 -1.1,2.87 -1.76,4.09 -0.57,1.06 -0.29,1.01 0.24,2.17 0.33,0.73 0.74,1.49 1.04,2.2 0.5,-0.14 4.05,-1.81 4.81,-2.16 0.82,-0.37 1.61,-0.71 2.43,-1.08 0.75,-0.34 1.63,-0.82 2.39,-1.12 0.36,0.82 0.45,1.45 0.7,2.39 0.5,1.91 1.8,4.72 2.75,6.06 1.09,1.55 2.58,2.81 4.13,3.24 0.33,0.09 1.53,0.44 1.77,0.23 0.21,-0.32 -0.73,-2.15 -0.85,-2.4 -0.9,-2 -2.17,-5.59 -2.8,-7.76l-0.74 -2.91c-0.6,-2.37 0.03,-1.26 1.6,-4.3 0.29,-0.57 0.79,-1.39 0.63,-2.42 -0.61,0.05 -0.8,0.35 -1.6,0.79 -0.33,0.18 -1.28,0.9 -1.58,0.94 -0.25,-0.34 -0.07,-0.68 -0.08,-1.25 -0.04,-1.36 0.19,-3.91 0.31,-5.45 0.03,-0.45 0.08,-0.87 0.12,-1.31 0.08,-0.84 0.23,-2 -0.17,-2.79 -0.46,-0.91 -0.68,-1.06 -1.55,-1.22l-6.02 -1.11c-0.12,0.37 0.54,2.16 0.71,2.59 0.3,0.75 0.59,1.88 0.84,2.72 0.81,2.8 1.43,6.01 1.02,9.02 -0.05,0.37 -0.13,0.97 -0.26,1.25 -0.17,0.38 -2.8,1.49 -3.18,1.63 -0.54,0.2 -1.81,0.97 -2.23,0.8z"/>
   <path class="fil4" d="M144.56 159.45c0.37,2.36 0.67,3.53 0.47,6.07 -0.23,2.88 -0.66,2.21 -2.13,2.92 -0.65,0.31 -3.18,1.66 -3.57,1.43 0.13,-0.67 1.03,-2.22 1.39,-3.19 0.13,-0.36 0.31,-0.76 0.45,-1.09 0.51,-1.17 1.16,-3.13 1.24,-4.82 0.06,-1.21 -0.18,-1.91 -0.71,-2.67 -0.37,-0.52 -1.04,-1.01 -1.68,-1.15 -0.4,-0.09 -4.1,-0.56 -4.26,-0.51 0.09,0.76 0.44,1.28 0.63,1.94 1.05,3.74 1.08,6.83 -0.28,10.32 -0.22,0.56 -0.46,1.06 -0.71,1.54 -1.12,2.1 -1.12,1.16 -0.22,3.25 0.18,0.42 0.61,1.46 0.82,1.74 0.45,0.6 0.9,-0.03 1.46,-0.26 1.55,-0.63 3.43,-1.57 4.96,-2.3 0.55,-0.26 1.12,-0.43 1.67,-0.71 0.44,-0.22 1.23,-0.68 1.69,-0.71 0.28,0.3 0.59,1.73 0.74,2.31 0.21,0.8 0.5,1.56 0.78,2.33 0.64,1.8 1.49,3.26 2.53,4.52 0.42,0.51 1.46,1.45 2.01,1.77 0.64,0.38 1.68,0.83 2.41,0.9 0.26,0.02 0.76,0.16 0.91,0.09 0.11,-0.51 -0.65,-1.93 -0.86,-2.42 -0.81,-1.81 -2.28,-5.84 -2.82,-7.81 -0.27,-0.99 -0.53,-1.89 -0.74,-2.9 -0.38,-1.83 -0.38,-1.34 0.43,-2.43 0.63,-0.85 2,-2.81 1.79,-4.35 -0.87,0.05 -2.59,1.87 -3.2,1.75 -0.21,-0.33 -0.05,-0.97 -0.04,-1.38 0.01,-0.47 0,-0.93 0.01,-1.4l0.3 -3.99c0.05,-0.4 0.05,-0.93 0.11,-1.32 0.14,-0.96 0.21,-1.84 -0.21,-2.73 -0.44,-0.94 -0.73,-0.96 -1.58,-1.16 -1.01,-0.23 -5.16,-1.03 -5.99,-1.02 0.15,0.99 1.95,5.81 2.21,7.48z"/>
   <path class="fil4" d="M105.33 178.22c-0.23,-3.18 1.43,-8.95 3.37,-10.83 0.29,-0.29 1.16,-0.86 1.58,-0.92 2.09,-0.34 2.62,2.7 2.51,4.91 -0.11,2.38 -1.05,5.38 -1.67,7.74 -0.17,0.63 -0.32,1.21 -0.49,1.84 -0.17,0.63 -0.34,1.25 -0.49,1.9 -0.31,1.35 -0.69,2.45 -1,3.73l-0.69 2.8c-0.19,0.79 -0.27,0.61 1.27,2 1.99,1.8 1.78,1.7 2.47,0.66 1.86,-2.79 4.66,-4.2 7.35,-5.19 1.3,-0.48 2.54,-0.69 3.86,-0.83 0.65,-0.07 1.19,-0.03 1.79,-0.09 0.57,-0.06 1.31,0.19 1.8,-0.11 -0.13,-0.61 -2.02,-1.64 -2.55,-1.93 -0.95,-0.51 -2.17,-0.69 -3.22,-0.76 -3.05,-0.2 -4.64,0.87 -7.46,2 0.02,-0.64 0.56,-2.47 0.75,-3.1 0.88,-3.06 1.53,-6.31 1.94,-9.55 0.28,-2.18 0.45,-5.06 -0.43,-7.3 -0.43,-1.09 -1.04,-1.93 -1.66,-2.39 -1.47,-1.11 -3.46,-1.53 -5.16,-0.76 -2.13,0.96 -3.78,2.72 -4.92,5.11 -1.28,2.7 -1.67,4.44 -2.29,7.38 -0.36,1.68 -0.05,1.35 1.16,2.3l0.77 0.54c0.36,0.3 0.91,0.81 1.41,0.84z"/>
   <path class="fil4" d="M142.11 167.05c0.34,-0.03 1.06,-0.28 1.33,-0.52 0.36,-0.31 0.35,-0.82 0.38,-1.43 0.04,-0.89 0.05,-2.71 -0.15,-3.62 -0.29,0.49 -0.34,1.58 -0.72,2.81 -0.15,0.49 -0.27,0.9 -0.44,1.38 -0.2,0.59 -0.5,1.06 -0.41,1.37z"/>
   <path class="fil4" d="M124.94 170.43l0.17 -0c0.02,-0 0.19,-0.08 0.21,-0.08 0.14,-0.06 0.27,-0.12 0.4,-0.17 0.27,-0.11 0.53,-0.22 0.8,-0.34 0.14,-0.35 0.24,-1.66 0.23,-2.17 -0.01,-0.81 -0.12,-1.87 -0.22,-2.68 -0.06,0.09 -0.02,0.02 -0.07,0.15 -0.04,0.1 -0.04,0.11 -0.06,0.19 -0.31,1.16 -0.36,2.16 -0.99,3.79 -0.12,0.32 -0.45,1 -0.47,1.33z"/>
   <path class="fil3" d="M80.23 167.74c-0.17,-0.81 -0.25,-2.52 -0.35,-3.5 -0.06,-0.65 -0.07,-0.61 0.33,-0.9 0.44,-0.33 3.04,-2.24 3.28,-1.13 0.17,0.78 0.21,1.2 -0.23,2.11 -0.53,1.08 -2.32,3.07 -3.03,3.43zm12.24 -7.05c-0.47,-2.14 -0.21,-5.51 0.21,-7.57 0.46,-2.21 1.03,-5.27 2.96,-6 1.58,-0.6 2.53,2.74 2.89,4.36 0.48,2.17 0.62,5.39 0.1,7.55 -0.4,1.68 -0.65,2.64 -1.7,3.82 -0.46,0.51 -1.21,0.87 -1.9,0.9 -1.29,0.04 -2.21,-1.44 -2.57,-3.05zm-13.01 -2.93l13.01 2.93zm-13.01 -2.93c-0.12,-0.58 -0.27,-4.66 -0.3,-5.34 0.48,-0.24 4.39,-3.65 1.48,3.34 -0.18,0.44 -0.87,1.75 -1.18,1.99zm7.61 0.68c-0.43,-0.36 -0.47,-0.96 -1.62,-1.17 -0.73,-0.13 -1.37,0.1 -2.31,0.46l1.15 -2.51c1.08,-2.55 2.15,-6.14 1.47,-9.18 -0.29,-1.32 -0.54,-2.63 -1.88,-3.06 -3.15,-1 -7.63,3.26 -10.22,5 -1,0.67 -0.66,-0.25 -0.16,4.52 0.78,7.36 1.95,16.64 2.4,23.92 0.08,1.23 -0.28,1.14 1.91,0.32 2.63,-1 4.84,-3.13 6.52,-5.64 1.28,-1.92 2.72,-4.82 3.16,-7.4 0.05,-0.27 -0.01,-0.04 0.06,-0.28 0.03,-0.12 0.06,-0.19 0.09,-0.26 1.02,4.6 3.51,9.47 7.62,7.91 0.85,-0.32 2.01,-1.32 2.52,-1.93 0.34,-0.41 0.63,-0.76 0.91,-1.21 0.29,-0.46 0.53,-0.93 0.78,-1.39 1.63,-2.91 2.91,-9.13 3.04,-12.93 0.16,-4.61 -0.37,-10.35 -2.78,-14.11 -0.82,-1.28 -1.58,-2.14 -2.76,-2.6 -2.47,-0.96 -5.04,1.26 -6.54,3.88 -1.94,3.39 -3.01,8.48 -3.33,12.65 -0.07,0.86 -0.09,1.57 -0.1,2.45 -0.01,0.58 -0.04,2 0.08,2.58z"/>
   <path class="fil3" d="M120.29 137.78c0.91,-0.34 1.42,-0.11 2.08,0.96 1.16,1.86 1.6,5.94 1.53,8.06 -0.02,0.72 -0.07,1.43 -0.19,2.06 -0.27,1.39 -0.43,2.37 -1.16,3.64 -0.33,0.58 -0.64,0.96 -1.21,1.33 -1.25,0.8 -2.34,0.48 -3.06,-0.54 -2.47,-3.51 -0.4,-14.6 1.99,-15.51zm-7.84 14.92c-0.72,0.36 -1.55,0.96 -2.27,1.38 -0.76,0.44 -1.58,1.04 -2.33,1.41 -0.03,-0.81 -0.15,-1.9 -0.21,-2.67l-0.92 -18.7 -3.06 2.03c-2.37,1.5 -1.88,0.83 -1.7,3.09 0.24,3.06 0.49,6.05 0.77,9.09l0.77 9.08c0.12,1.58 0.26,2.99 0.39,4.59 0.06,0.79 0.12,1.45 0.19,2.25 0.05,0.6 0.08,1.71 0.22,2.36l2.31 -1.76c1.76,-1.34 4.24,-3.02 6.13,-4.12 0.5,-0.29 0.98,-0.48 1.4,-0.78 -0.12,-0.54 -0.18,-0.89 -0.23,-1.3 -0.03,-0.27 -0.08,-0.41 -0.13,-0.66 -0.1,-0.5 -0.14,-0.35 0.03,-0.63 0.16,0.69 0.78,1.64 1.09,2.13 0.14,0.22 0.18,0.24 0.32,0.41 2.07,2.52 4.2,2.67 6.67,0.66 0.47,-0.39 0.92,-0.94 1.31,-1.42 1.29,-1.6 2.55,-4.99 3.09,-7.21l1.1 -6.28c0.11,-1.56 0.19,-3.04 0.11,-4.64 -0.22,-4.27 -0.9,-8.36 -3.21,-11.6 -1.74,-2.44 -4.08,-2.86 -6.39,-1.07 -3.01,2.32 -4.86,8.11 -5.48,12.56 -0.1,0.72 -0.17,1.39 -0.27,2.16 -0.28,2.2 -0.29,6.87 0.33,9.66z"/>
   <path class="fil3" d="M142.55 142.25c-0.39,-1.74 -0.54,-3 -0.37,-4.82 0.21,-2.34 0.98,-8.31 3.06,-9.1l0.3 -0.11c1.78,-0.68 2.61,3.09 3.02,4.94 0.58,2.62 0.4,6.66 -0.61,9.07 -1.47,3.5 -4.64,3.42 -5.39,0.02zm-5.15 1.01c-1.21,0.61 -3.37,2.18 -4.6,2.79l-0.41 -5.41c-0.23,-3.55 -0.44,-7.13 -0.54,-10.63 -0.03,-0.94 -0.07,-1.82 -0.1,-2.67l-0.09 -2.67c-0.11,0.13 -4.6,3.09 -4.9,3.22l0.6 7.26c0.23,2.51 0.4,4.87 0.63,7.36l1.25 14.64c0.34,-0.17 0.85,-0.62 1.17,-0.86 2.08,-1.58 3.75,-2.83 5.99,-4.23l2.68 -1.57 -0.35 -1.96c-0.05,-0.31 -0.01,-0.37 -0.08,-0.71l0.07 0.12c0.96,1.84 2.15,4.14 4.16,4.45 2.95,0.45 5.08,-1.97 6.53,-4.8 0.75,-1.46 1.22,-3.02 1.69,-4.64 0.49,-1.68 0.78,-3.23 1.03,-5.03 0.09,-0.59 0.15,-1.21 0.19,-1.82 0.05,-0.67 0.1,-1.17 0.12,-1.86 0.15,-5.25 -0.67,-11.92 -4.06,-15.28 -2.57,-2.54 -5.63,-0.75 -7.68,2.28 -0.1,0.15 -0.2,0.33 -0.3,0.51 -1.06,1.83 -1.54,3.36 -2.14,5.45 -0.23,0.81 -0.67,2.68 -0.8,3.57l-0.35 2.51c-0.35,2.51 -0.26,7.52 0.29,9.96z"/>
   <path class="fil3" d="M117.78 125.57c0.62,-0.24 2.61,-0.75 2.92,-1.23 0.17,-0.26 0.35,-0.88 0.58,-1.29l2.6 -5.69c0.24,-0.56 0.25,-0.36 0.27,-0.7l-4.59 1.74c-0.1,0.4 -1.8,6.65 -1.78,7.17z"/>
   <path class="fil3" d="M142.71 116.4c0.64,-0.24 2.59,-0.8 2.93,-1.23 0.19,-0.24 0.55,-1.25 0.89,-1.88 0.13,-0.23 0.19,-0.42 0.3,-0.68l1.77 -3.85c0.24,-0.43 0.44,-0.83 0.56,-1.3l-4.66 1.77 -0.41 1.82c-0.15,0.61 -0.32,1.19 -0.47,1.77l-0.89 3.59z"/>
  </g>
 </g>
</svg>
