<?xml version="1.0" encoding="UTF-8"?>
<!DOCTYPE svg PUBLIC "-//W3C//DTD SVG 1.1//EN" "http://www.w3.org/Graphics/SVG/1.1/DTD/svg11.dtd">
<!-- Creator: CorelDRAW -->
<svg xmlns="http://www.w3.org/2000/svg" xml:space="preserve" width="115.195mm" height="44.3875mm" version="1.1" style="shape-rendering:geometricPrecision; text-rendering:geometricPrecision; image-rendering:optimizeQuality; fill-rule:evenodd; clip-rule:evenodd"
viewBox="0 0 1024.02 394.58"
 xmlns:xlink="http://www.w3.org/1999/xlink"
 xmlns:xodm="http://www.corel.com/coreldraw/odm/2003">
 <defs>
  <style type="text/css">
   <![CDATA[
    .fil0 {fill:black} 
   ]]>
  </style>
 </defs>
 <g id="Camada_x0020_1">
  <metadata id="CorelCorpID_0Corel-Layer"/>
  <g id="_2030361825056">
   <path class="fil0" d="M252.42 335.07c5.97,0.6 9.74,0.06 9.88,5.07l0.75 28.55c0.17,6.55 -5.71,4.92 -9.58,6.06l0.19 7.26 30.69 -0.79c-0.24,-8.92 0.87,-7.24 -3.87,-7.82 -6.78,-0.84 -5.91,-1.49 -6.13,-9.84 -0.19,-7.34 -0.39,-14.68 -0.58,-22.02l25.14 35.36c1.31,1.9 2.47,3.88 4.7,3.82l24.34 -0.63 -1.09 -41.38c-0.17,-6.55 5.71,-4.92 9.58,-6.06l-0.19 -7.26 -30.69 0.79 0.2 7.5c1.28,-0.03 6.87,0.45 8.06,1.27 2.39,1.66 1.66,5.85 1.75,9.13 0.19,7.26 0.38,14.52 0.58,21.78l-25.14 -35.36c-1.12,-1.62 -2.32,-3.89 -4.7,-3.82l-34.08 0.88 0.2 7.5zm87.21 -2.25c3.61,0.37 9.54,0.1 9.64,4.11l0.8 30.25c0.12,4.63 -4.42,4.5 -6.4,4.81 -0.83,0.13 -2.34,0.42 -3.2,0.52l0.19 7.26 51.44 -1.33c6.83,-0.18 14.32,-3.02 19.2,-7.62 11.38,-10.73 11.77,-37.29 -9.97,-44.96 -2.83,-1 -7.12,-1.96 -10.88,-1.87l-51.02 1.32 0.2 7.5zm46.05 35.38l-16.94 0.44 -0.88 -33.39 17.57 -0.45c10.44,-0.27 11.09,10.78 11.28,18.11 0.24,9.04 -2.63,15.08 -11.03,15.3zm-212.8 -12.67c0.13,5.01 0.53,9.22 2.76,13.66 7.58,15.09 27.36,16.89 41.66,15.72l8.03 -1.16c8.11,-2.1 14.17,-4.1 20.07,-11.13 6.53,-7.77 6.89,-21.74 2.1,-30.62 -6.51,-12.06 -22.34,-15.41 -33.86,-15.12 -9.91,0.26 -15.37,0.56 -24.43,4.29 -10.76,4.43 -16.59,14.37 -16.33,24.37zm22.05 0.88c-0.19,-7.11 1.36,-14.23 7.58,-17.63 3.86,-2.11 13.4,-2.35 17.42,-0.52 6.42,2.93 8.44,9.25 8.67,17.77 0.28,10.64 -4.01,18.51 -13.7,18.76 -5.68,0.15 -12.22,0.84 -16.2,-4.94 -2.61,-3.78 -3.64,-8.32 -3.77,-13.43zm235.5 -25.93c2.59,0.18 5.47,0.51 8.08,0.75 1.23,0.11 2.16,0.83 2.58,2.14 0.5,1.55 -1.56,4.8 -2.55,6.84 -3.3,6.76 -9.62,19.56 -13.01,25.85 -1.9,3.53 -1.96,3.18 -5.67,3.72 -1.11,0.16 -3.05,0.52 -4.26,0.56l0.2 7.5 30.48 -0.79 -0.19 -7.26c-1.18,0.03 -2.9,-0.31 -4.15,-0.49 -1.67,-0.23 -2.74,0.04 -3.5,-1.29 -1.4,-2.45 1.61,-4.82 2.12,-7.29l29.42 -0.76c1.42,2.29 4.57,6 2.25,7.85 -0.8,0.64 -6.92,1.23 -7.73,1.25l0.2 7.5 41.28 -1.06 -0.19 -7.26c-1.57,0.04 -7.15,-0.61 -8.38,-1.39 -1.47,-0.94 -3.43,-4.59 -4.5,-6.32l-16.39 -26.94c-1.35,-2.33 -2.81,-4.36 -4.15,-6.73 -1.36,-2.4 -2.39,-4.92 -5.73,-4.84l-36.41 0.94 0.2 7.5zm23.82 3.74c1.35,2.18 9.52,15.34 9.75,16.22l-18.21 0.47c0.16,-0.88 8.08,-16.36 8.46,-16.69zm-370.56 4.95c4.27,1.02 9.52,-0.38 9.68,5.56l0.74 28.07c0.15,5.65 -2.82,5.17 -9.37,6.3l0.19 7.26 37.68 -0.97c1.17,-0.03 0.47,-6.22 0.44,-7.28 -10.89,-1.12 -9.53,-0.01 -9.9,-14.03l29.21 -0.75c0.33,12.47 2.22,13.14 -9.15,14.52l0.19 7.26 38.31 -0.99 -0.19 -7.26c-4.24,-1.01 -9.51,0.78 -9.67,-5.32l-0.75 -28.55c-0.2,-7.44 9.42,-4.31 9.36,-6.54l-0.18 -6.78 -38.31 0.99 0.19 7.26c4.36,1.04 9.53,-0.3 9.67,5.32l0.24 8.95 -29.21 0.75 -0.25 -9.44c-0.13,-4.91 5.03,-4.05 9.39,-5.33 -0.05,-1.85 0.25,-7.27 -0.83,-7.24l-37.68 0.97 0.19 7.26zm157.96 -14.85l0.91 -0.02c-0.07,0.13 -0.14,0.25 -0.2,0.38 -0.23,-0.12 -0.47,-0.24 -0.7,-0.36zm166.98 -4.85c-0.29,-0.49 -0.48,-1.15 -0.63,-2.08 4.39,-1.03 8.56,-5.8 11.71,-8.4 7.76,-6.4 9.82,-5.33 10.16,-9.55 -18.8,-2.91 -38.77,-4.46 -58.67,-6.72l-117.32 -13.46c-18.61,-1.92 -40.09,-4.13 -58.38,-6.96 2.44,-2.73 2.2,-1.17 7.41,-2.28 6.15,-1.31 15.95,-5.43 21.84,-5.58 9.49,-0.25 36.21,4.44 47.81,5.95l46.98 5.83 1.2 7.08c6.36,-0.16 13.77,0.99 19.49,1.74l74.66 8.15c19.56,2.32 19.71,4.55 31.18,-5.02 6.23,-5.2 9.3,-4.55 9.67,-9.13 -6.82,-1.06 -13.59,-2.37 -20.41,-3.42 0.19,-2.36 0.63,-3.97 3.96,-4.05 15.59,-0.4 17.61,9.27 30.21,-1.74 13.51,-11.8 -8.56,-16.38 -14.49,-18.42 0.82,-10.16 11.97,-4.46 19.01,-0.27 6.34,3.78 8.55,5.15 8.74,12.19 0.16,6.15 -17.52,19.23 -23.99,24.14l-27.37 20.09c-3.28,2.25 -10.64,8.72 -16.01,12.3l5.19 -0.13c-1.28,2.24 -0.89,4.71 -0.83,7.1 -3.03,-3 -6.9,-5.52 -11.12,-7.33zm-254.82 2.4l16.26 -0.42c1.15,-0.03 2.27,0.09 3.32,0.33l5.29 -0.16c5.27,0.02 4.19,-0.78 4.99,2.35 1.19,-0.11 4.77,-1.8 7.88,-2.64 14.92,-4.03 27.85,-5.24 43.12,-0.48 3.24,1.01 2.89,1.47 6.86,1.63 1.31,-4.18 2.47,-1.21 8.47,-3.84 8.66,-3.79 2.63,-3.56 16.73,-3.92l41.32 2.41c14.4,0.97 29.3,0.02 43.79,-0.36 -3.29,-1.64 -78.91,-5.81 -83.19,-6.05 0.13,-2.87 3.11,-7.41 -10.35,-7.64 -12.91,-0.22 -46.23,-3.55 -59.34,-4.56 -24.26,-1.87 -30.2,-3.67 -47.95,-13.93 -5.34,-3.09 -4.36,-2.84 -15.06,1.89 0.32,12.09 11.39,26.43 17.87,35.39zm120.28 -74.51c1.04,-3.31 5.15,-4.79 8.74,-6.73 5.07,-2.73 5.36,-2.6 11.97,-1.42 4.74,0.85 9.55,0.84 11.7,3.33 1.45,1.68 3.21,7.1 3.29,10.21 -11.99,0.31 -25.3,-3.79 -35.7,-5.4zm-141.24 -1.1c-0.03,-1.1 1.12,-7.42 1.48,-8.2 4.18,-9.05 98.82,-36.26 127.36,-37 19.7,-0.51 29.6,9.35 15.19,25.13 -20.1,22 -76.52,31.67 -110,38.96 -4.06,0.88 -21.11,4.49 -25.29,4.59 -10.43,0.27 -8.06,2.57 -8.75,-23.48zm252.13 6.93c-0.38,-14.54 16.01,-66.63 23.98,-80.66 2,-3.53 5.28,-7.29 9.69,-9.12 21.25,-8.85 37.08,-1.04 37.45,12.88 0.32,12.31 -4.08,20.87 -7.09,31.17 -0.89,3.05 -1.53,3.89 -2.62,6.59 -6.18,15.38 -11.66,30.33 -21.12,44.83 -4.39,6.73 -10.34,17.24 -22.41,17.55 -14.52,0.37 -17.65,-14.47 -17.88,-23.25zm-204.13 -74.55c-0.14,-5.44 15.14,0.42 28.17,3.51 5.75,1.37 20.6,6.01 24.92,6.18l0.04 1.58c-22.21,4.62 -16.43,6.79 -39.2,1.5 -16.21,-3.76 -13.61,-0.61 -13.93,-12.78zm140.58 53.27c-0.18,-6.65 1.9,-11.1 4.01,-16.4 5.59,-14.02 10.31,-29.97 15.83,-44.86 4.03,-10.85 10.45,-36.31 19.24,-43.11 2.84,-2.2 29.21,-14.52 31.62,6.9 2.57,22.81 -15.24,88.23 -30.58,108.47 -13.44,17.74 -39.58,10.02 -40.14,-10.99zm-164.84 -164.06c-0.13,-4.93 2.16,-15.41 5.57,-19.89 8.87,-11.68 28.48,-11.2 38.78,-4.4 8.98,5.93 15.63,34.22 18.65,44.41l13.76 49.18c0.73,3.34 1.36,4.92 2.08,8 3.12,13.47 3.18,13.12 -2.88,11.38l-53.62 -15.82c-7.32,-2.08 -6.2,-1.2 -7.34,-3.69l-15.01 -69.17zm125.57 72.95l29.39 -90.39c5.04,-10.5 17.08,-34.62 35.8,-31.02 28.57,5.5 10.93,48.4 7.68,59.99 -3.32,11.85 -7.35,23.76 -11.08,34.39 -6.25,17.8 -20.58,51.85 -24.86,67.63 -6.68,-0.26 -38.26,-10.79 -45.69,-13.04 2.82,-9.26 5.77,-18.35 8.77,-27.56zm-102.4 185.12l0.48 -0.01 -0.36 0.21c-0.04,-0.07 -0.08,-0.13 -0.12,-0.2zm297.54 -7.73c-3.89,-4.84 -4.07,-3.68 -8.49,-4.06 -6.18,-0.53 -7.22,-0.25 -13.63,-0.09 2.52,-5.03 20.31,-16.81 25.32,-21.73 11.46,-11.24 26.22,-18.83 25.78,-35.2 -0.37,-13.85 -14.14,-22.32 -27.47,-27.48 -20.97,-8.13 -14.73,-0.44 -7.04,-31.24 3.95,-17.04 4.41,-33.91 -8.62,-47.48 -6.23,-6.48 -15.47,-9.43 -24.21,-10.89 -6.48,-1.08 -12,0.54 -18.27,1.83 -6.54,1.33 -5.05,0.49 -5.08,-12.3 -0.03,-12.73 -8.91,-21.59 -20.23,-26.23 -11.22,-4.49 -26.02,5.85 -26.66,0.91 -0.5,-3.9 13.26,-34.55 15.21,-40.49 2.76,-8.41 3.79,-15.21 3.87,-24.05 -0.2,-7.71 -6.58,-21.49 -11.1,-25.59 -4.54,-4.12 -20.21,-11.54 -27.48,-12.95 -40.41,-7.86 -57.7,25.45 -66.66,49.24 -9.41,24.98 -10.23,31.11 -15.38,56.82 -2.42,12.04 -5.09,17.89 -7.89,28.24l-3.05 0.08 -10.53 -34.1c-7.29,-22.77 -12.48,-45.24 -26.28,-65.59 -2.73,-4.03 -8.5,-8.51 -13.26,-10.9 -14.86,-7.44 -44,-2.56 -57.76,7.91 -30.98,23.57 -1.72,74.63 -0.98,98.37 -9.86,-0.38 -137.19,-41.63 -147.4,-42.03 0.93,6.98 14.05,31.22 18.27,36.65 8.32,10.71 22.92,14.85 39.71,19.07 16.79,4.22 32.12,7.62 48.15,12.11l36.44 8.83c14.94,3.89 10.94,4.29 11.24,15.78 -11.13,0.09 -32.7,-7.27 -44.18,-9.74 -13.87,-2.99 -67.28,-16.83 -75.37,-16.41 1.54,4.69 4.55,8.57 7.62,12.3 30.89,37.52 38.42,32.82 94.81,42.42 3.92,0.67 6.16,1.51 9.79,1.65 -0.44,3.67 -4.89,3.63 -10.45,5.47 -17.47,5.79 -16.61,4 -34.99,0.35 -4.91,-0.98 -17.38,-3.31 -22.56,-3.27 0.5,9.14 18.34,22.49 27.78,28.03 6.93,4.07 2.8,15.49 2.99,21.75 0.14,4.76 2.19,12.06 3.99,16.89 4.53,12.13 8.91,25.65 18.55,35.62 2,2.07 3.81,3.34 5.14,5.55l-6.9 0.18c-1.93,0.05 -4.71,0.94 -7.09,0.68 -1.19,-0.3 -2.45,-0.43 -3.71,-0.4l-37.68 0.97c-5.82,0.15 -10.47,3.97 -10.35,8.49l0.19 7.26c0.12,4.53 4.17,7.33 9.74,8.01l0.62 23.46c-11.02,1.89 -9.31,8.37 -9.12,15.72 0.12,4.53 4.97,8.1 10.79,7.95l37.68 -0.97c2.18,-0.06 4.02,-0.5 5.54,-1.22 1.56,0.65 3.35,0.99 5.25,0.94l38.31 -0.99c4.21,-0.11 7.81,-2.14 9.44,-4.97 7.93,4.15 17.67,6.26 27.74,5.95 7.14,-0.23 12.24,-0.31 19.44,-1.79 6.23,-1.61 11.22,-3.33 15.58,-5.86 1.75,2.79 5.48,4.67 9.74,4.56l30.69 -0.79c3.75,-0.1 7.02,-1.72 8.84,-4.07 2.52,2.23 5.73,3.7 10.43,3.58l24.34 -0.63c2.38,-0.06 4.56,-0.73 6.31,-1.82 1.8,0.99 4.02,1.55 6.4,1.49l51.44 -1.33c5.37,-0.14 10.72,-1.34 15.54,-3.34 1.99,1.75 4.93,2.82 8.17,2.73l30.48 -0.79c3.94,-0.1 7.35,-1.88 9.1,-4.43 1.88,2.45 5.38,4.06 9.32,3.95l41.28 -1.06c5.82,-0.15 10.47,-3.97 10.35,-8.49l-0.19 -7.26c-0.12,-4.47 -4.83,-8 -10.54,-7.95 -0.42,-0.02 -1.01,-0.07 -1.62,-0.15 -3.75,-5.96 -23.04,-38.91 -25.74,-41.65l0.57 -0.01z"/>
   <g>
    <path class="fil0" d="M701.84 336.76c5.88,0.76 9.63,0.31 9.63,5.39l0 28.9c0,6.62 -5.77,4.83 -9.63,5.88l0 7.35 30.35 0c0,-9.03 1.05,-7.29 -3.62,-8.01 -6.68,-1.02 -5.8,-1.66 -5.8,-10.11 0,-7.43 0,-14.86 0,-22.29l23.92 36.42c1.24,1.96 2.34,3.99 4.54,3.99l24.07 0 0 -41.88c0,-6.63 5.77,-4.83 9.63,-5.88l0 -7.35 -30.35 0 0 7.59c1.27,0 6.78,0.64 7.93,1.5 2.31,1.74 1.49,5.96 1.49,9.28 0,7.35 0,14.69 0,22.04l-23.92 -36.42c-1.06,-1.67 -2.19,-3.99 -4.54,-3.99l-33.7 0 0 7.59zm-75.59 -13.96c-4.17,-1.19 -8.18,-5.61 -11.23,-8.05 -7.83,-6.27 -9.85,-5.13 -10.29,-9.39 18.5,-3.43 38.19,-5.52 57.8,-8.33l115.58 -16.67c18.34,-2.43 39.5,-5.23 57.5,-8.56 -2.48,-2.7 -2.21,-1.13 -7.38,-2.12 -6.11,-1.16 -15.9,-5.08 -21.73,-5.08 -9.39,0 -35.66,5.43 -47.09,7.27l-46.27 7.12 -1 7.19c-6.29,0 -13.58,1.36 -19.21,2.26l-73.56 10.19c-19.27,2.86 -19.36,5.11 -30.94,-4.26 -6.3,-5.1 -9.31,-4.36 -9.8,-8.98 6.71,-1.24 13.37,-2.75 20.08,-4 -0.25,-2.38 -0.72,-4 -4.01,-4 -15.42,0 -17.16,9.83 -29.9,-0.97 -13.66,-11.58 8.03,-16.79 13.83,-19.01 -1.07,-10.25 -11.94,-4.2 -18.79,0.23 -6.16,3.99 -8.32,5.44 -8.32,12.56 0,6.23 17.82,18.99 24.33,23.79l27.57 19.61c2.53,1.68 7.49,5.81 12.11,9.21l10.71 0zm-65.58 0c1.8,-1.74 2.75,-1.2 5.99,-1.57 6.09,-0.7 7.13,-0.45 13.46,-0.45 -2.63,-5.02 -20.5,-16.47 -25.58,-21.31 -11.62,-11.07 -26.4,-18.36 -26.4,-34.93 0,-14.02 13.39,-22.94 26.42,-28.51 20.51,-8.77 14.54,-0.83 6.14,-31.78 -4.34,-17.13 -5.24,-34.19 7.28,-48.24 5.98,-6.71 15.04,-9.94 23.64,-11.65 6.38,-1.26 11.87,0.23 18.1,1.38 6.49,1.18 5,0.37 4.7,-12.57 -0.3,-12.87 8.24,-22.07 19.31,-27.05 10.97,-4.83 25.87,5.24 26.37,0.22 0.4,-3.95 -14.01,-34.6 -16.09,-40.55 -2.95,-8.43 -4.14,-15.29 -4.45,-24.22 0,-7.8 5.95,-21.9 10.3,-26.17 4.38,-4.29 19.67,-12.2 26.82,-13.82 39.72,-9.01 57.68,24.23 67.15,48.07 9.94,25.01 10.91,31.19 16.68,57.07 2.7,12.11 5.5,17.96 8.54,28.35l3.01 0 9.52 -34.76c6.61,-23.22 11.16,-46.08 24.25,-67.02 2.59,-4.14 8.17,-8.83 12.82,-11.37 14.48,-7.91 43.41,-3.74 57.28,6.49 31.23,23.03 3.64,75.44 3.53,99.46 9.73,-0.65 134.47,-45.68 144.55,-46.35 -0.74,7.08 -13.07,31.94 -17.09,37.54 -7.94,11.05 -22.26,15.61 -38.74,20.32 -16.47,4.71 -31.54,8.54 -47.26,13.5l-35.77 9.88c-14.66,4.33 -10.7,4.62 -10.7,16.26 11,-0.2 32.12,-8.2 43.4,-11 13.63,-3.38 66.04,-18.78 74.05,-18.57 -1.4,4.78 -4.28,8.79 -7.21,12.64 -29.54,38.75 -37.1,34.2 -92.58,45.37 -3.86,0.78 -6.05,1.69 -9.63,1.93 0.53,3.7 4.93,3.54 10.47,5.26 17.41,5.4 16.51,3.61 34.58,-0.56 4.82,-1.11 17.08,-3.8 22.2,-3.9 -0.26,9.26 -17.54,23.23 -26.72,29.07 -6.74,4.29 -2.37,15.74 -2.39,22.07 -0.01,4.82 -1.85,12.25 -3.5,17.19 -4.15,12.38 -8.13,26.18 -17.4,36.51 -1.92,2.14 -3.67,3.47 -4.94,5.74l6.82 0c1.91,0 4.68,0.83 7.02,0.5 1.17,-0.33 2.41,-0.5 3.66,-0.5l9.62 0c0.26,0.7 0.6,1.37 0.99,2.01l-0.72 0c0.62,0.6 1.34,1.48 2.3,2.76l-0.56 0c2.6,2.84 20.8,36.67 24.34,42.8 0.6,0.09 1.18,0.16 1.59,0.19 5.65,0.1 10.21,3.8 10.21,8.32l0 7.35c0,4.58 -4.7,8.32 -10.45,8.32l-40.81 0c-3.9,0 -7.31,-1.71 -9.1,-4.24 -1.8,2.53 -5.21,4.24 -9.11,4.24l-30.14 0c-3.2,0 -6.08,-1.16 -8,-2.98 -4.82,1.9 -10.13,2.98 -15.44,2.98l-50.86 0c-2.35,0 -4.53,-0.62 -6.28,-1.68 -1.75,1.05 -3.93,1.68 -6.28,1.68l-24.07 0c-4.64,0 -7.78,-1.56 -10.21,-3.89 -1.86,2.33 -5.13,3.89 -8.84,3.89l-30.35 0c-4.21,0 -7.85,-2 -9.5,-4.86 -4.37,2.44 -9.35,4.05 -15.54,5.52 -7.15,1.31 -12.19,1.25 -19.25,1.3 -9.96,0.06 -19.52,-2.33 -27.25,-6.74 -1.68,2.82 -5.29,4.78 -9.45,4.78l-37.88 0c-1.87,0 -3.64,-0.4 -5.17,-1.09 -1.52,0.69 -3.36,1.09 -5.51,1.09l-37.26 0c-5.75,0 -10.45,-3.74 -10.45,-8.32 0,-7.43 -1.52,-14.03 9.42,-15.66l0 -23.74c-5.49,-0.84 -9.42,-3.77 -9.42,-8.36l0 -7.35c0,-2.52 1.42,-4.78 3.65,-6.31l34.16 0zm306.64 0l-10.71 0 -0.57 0.14c0.12,0.95 0.29,1.62 0.57,2.12 4.12,1.95 7.88,4.6 10.8,7.71 0,-2.42 -0.32,-4.93 1,-7.16l-5.13 0c1.26,-0.81 2.63,-1.78 4.03,-2.81zm-18.48 0c0.37,-2.07 0.07,-1.42 4.68,-1.56l5.23 0.02c1.03,-0.27 2.13,-0.42 3.27,-0.42l16.08 0c6.17,-9.24 16.73,-24.03 16.73,-36.26 -10.7,-4.51 -9.73,-4.78 -14.93,-1.52 -17.27,10.83 -23.1,12.82 -47.02,15.34 -12.93,1.36 -45.77,5.6 -58.52,6.16 -13.29,0.58 -10.23,5.1 -10.03,8 -4.22,0.35 -78.83,6.54 -82.04,8.29 14.33,0 29.08,0.58 43.28,-0.78l40.76 -3.51c13.94,0 7.98,-0.07 16.63,3.53 5.47,2.28 6.84,-0.04 8.1,2.72l4.86 0c0.55,-0.24 1.21,-0.53 2.24,-0.89 14.97,-5.21 27.77,-4.32 42.62,-0.64 1.58,0.39 3.29,1.01 4.74,1.52l3.3 0zm-157.06 0l-4.86 0c1.15,0.5 1.85,0.76 4.5,0.94 0.12,-0.37 0.24,-0.68 0.36,-0.94zm-54.46 0l-3.3 0c0.05,0.27 0.11,0.58 0.19,0.94 0.58,-0.04 1.73,-0.44 3.12,-0.94zm150.75 13.96c3.56,0.47 9.42,0.35 9.42,4.41l0 30.61c0,4.68 -4.48,4.44 -6.45,4.7 -0.83,0.11 -2.32,0.36 -3.18,0.45l0 7.35 50.86 0c6.76,0 14.23,-2.68 19.17,-7.2 11.53,-10.56 12.61,-37.41 -8.67,-45.73 -2.77,-1.08 -6.99,-2.17 -10.7,-2.17l-50.44 0 0 7.59zm44.58 36.98l-16.74 0 0 -33.8 17.37 0c10.32,0 10.68,11.19 10.68,18.61 0,9.15 -3,15.18 -11.3,15.18zm-209.93 -18.37c0,5.07 0.29,9.34 2.37,13.88 7.09,15.46 26.59,17.8 40.75,16.98l7.97 -0.96c8.07,-1.91 14.11,-3.78 20.12,-10.74 6.65,-7.69 7.37,-21.81 2.87,-30.91 -6.12,-12.36 -21.67,-16.17 -33.06,-16.17 -9.8,0 -15.2,0.17 -24.25,3.7 -10.75,4.2 -16.77,14.1 -16.77,24.22zm21.77 1.47c0,-7.2 1.71,-14.36 7.95,-17.63 3.87,-2.03 13.3,-2.03 17.23,-0.07 6.27,3.13 8.1,9.58 8.1,18.2 0,10.77 -4.45,18.61 -14.02,18.61 -5.61,0 -12.09,0.53 -15.88,-5.42 -2.48,-3.89 -3.38,-8.51 -3.38,-13.68zm233.37 -20.08c2.56,0.25 5.4,0.66 7.96,0.97 1.21,0.14 2.11,0.9 2.49,2.23 0.45,1.58 -1.66,4.81 -2.7,6.85 -3.43,6.75 -10.01,19.53 -13.53,25.8 -1.97,3.52 -2.03,3.16 -5.7,3.61 -1.1,0.13 -3.03,0.45 -4.22,0.45l0 7.59 30.14 0 0 -7.35c-1.17,0 -2.85,-0.39 -4.09,-0.6 -1.65,-0.28 -2.71,-0.03 -3.42,-1.39 -1.32,-2.51 1.72,-4.84 2.28,-7.32l29.09 0c1.35,2.35 4.35,6.18 2.02,8 -0.8,0.62 -6.87,1.07 -7.67,1.07l0 7.59 40.81 0 0 -7.35c-1.56,0 -7.04,-0.8 -8.24,-1.63 -1.43,-0.98 -3.27,-4.73 -4.28,-6.51l-15.49 -27.67c-1.28,-2.39 -2.67,-4.48 -3.93,-6.91 -1.28,-2.47 -2.24,-5.04 -5.53,-5.04l-36 0 0 7.59zm23.44 4.41c1.28,2.24 9.01,15.76 9.21,16.65l-18 0c0.18,-0.89 8.41,-16.33 8.79,-16.65zm-366.28 -4.65c4.19,1.14 9.42,-0.13 9.42,5.88l0 28.41c0,5.72 -2.92,5.16 -9.42,6.12l0 7.35 37.26 0c1.15,0 0.63,-6.28 0.63,-7.35 -10.73,-1.42 -9.42,-0.26 -9.42,-14.45l28.88 0c0,12.62 1.85,13.35 -9.42,14.45l0 7.35 37.88 0 0 -7.35c-4.16,-1.14 -9.42,0.54 -9.42,-5.63l0 -28.9c0,-7.53 9.42,-4.11 9.42,-6.37l0 -6.86 -37.88 0 0 7.35c4.28,1.17 9.42,-0.05 9.42,5.63l0 9.06 -28.88 0 0 -9.55c0,-4.97 5.08,-3.96 9.42,-5.14 0,-1.87 0.44,-7.35 -0.63,-7.35l-37.26 0 0 7.35zm156.47 -10.89l0.9 0 -0.21 0.38 -0.68 -0.38zm-61.2 0l0.48 0 -0.48 0zm127.02 -77c-1.11,-3.33 -5.21,-4.71 -8.81,-6.57 -5.08,-2.63 -5.36,-2.49 -11.86,-1.12 -4.66,0.98 -9.42,1.1 -11.47,3.68 -1.39,1.74 -2.98,7.27 -2.98,10.41 11.86,0 24.9,-4.5 35.13,-6.39zm139.53 -4.79c0,-1.11 -1.3,-7.48 -1.67,-8.26 -4.37,-9.04 -98.59,-34.1 -126.81,-34.1 -19.48,0 -29.01,10.23 -14.35,25.81 20.43,21.73 76.44,30.04 109.7,36.53 4.03,0.79 20.98,3.99 25.11,3.99 10.31,0 8.03,2.39 8.03,-23.98zm-248.94 13.59c0,-14.72 -17.56,-66.97 -25.8,-80.96 -2.07,-3.52 -5.41,-7.23 -9.81,-8.97 -21.23,-8.4 -36.66,-0.09 -36.66,14.01 0,12.46 4.57,21 7.81,31.34 0.96,3.06 1.62,3.89 2.76,6.6 6.51,15.4 12.31,30.37 22.04,44.79 4.51,6.7 10.67,17.17 22.6,17.17 14.35,0 17.07,-15.09 17.07,-23.98zm199.75 -80.72c0,-5.51 -14.95,0.82 -27.74,4.29 -5.65,1.53 -20.19,6.62 -24.46,6.9l0 1.6c22.07,4.09 16.41,6.43 38.77,0.5 15.91,-4.22 13.43,-0.98 13.43,-13.29zm-137.52 57.54c0,-6.73 -2.17,-11.18 -4.39,-16.48 -5.89,-14.03 -10.97,-30.04 -16.81,-44.95 -4.26,-10.87 -11.27,-36.45 -20.14,-43.1 -2.87,-2.15 -29.24,-13.92 -31.07,7.8 -1.95,23.13 17.36,88.84 33.04,108.91 13.74,17.59 39.37,9.1 39.37,-12.17zm158.6 -170.23c0,-4.99 -2.54,-15.53 -6.03,-19.97 -9.07,-11.58 -28.43,-10.58 -38.43,-3.44 -8.72,6.23 -14.55,35.01 -17.27,45.4l-12.31 50.1c-0.64,3.4 -1.22,5.01 -1.84,8.15 -2.73,13.71 -2.8,13.35 3.14,11.43l52.57 -17.4c7.18,-2.29 6.09,-1.38 7.15,-3.92l13.03 -70.35zm-122.17 77.05l-31.39 -90.65c-5.26,-10.49 -17.78,-34.57 -36.18,-30.44 -28.08,6.31 -9.54,49.23 -6.02,60.87 3.59,11.9 7.88,23.84 11.85,34.5 6.64,17.84 21.68,51.9 26.32,67.75 6.6,-0.44 37.52,-11.91 44.81,-14.38 -3.02,-9.3 -6.18,-18.4 -9.39,-27.65z"/>
   </g>
  </g>
 </g>
</svg>
