<svg xmlns="http://www.w3.org/2000/svg" xml:space="preserve" width="93.927" height="83.82" style="shape-rendering:geometricPrecision;text-rendering:geometricPrecision;image-rendering:optimizeQuality;fill-rule:evenodd;clip-rule:evenodd" viewBox="0 0 281.9 251.57"><path d="M159.61 161.02c-1.31-4.24 2.82-8.47 4.24-12.71h2.82c1.9 5.17 2.71 10.2 0 14.12-2.87 2.04-5 2.91-7.06-1.41zM76.19 201.6c-1.79.11-3.16.36-4.11.76-.93.4-1.72.96-2.32 1.71-2.25 5.25-4.55 10.51-6.85 15.78-2.31 5.28-4.65 10.58-6.97 15.89.05.92.35 1.57.92 1.97.53.38 1.72.52 3.53.37-1.51 3.59-3 7.19-4.38 10.77-10.49.91-20.97 1.82-31.42 2.73 1.39-3.6 2.89-7.2 4.45-10.82 1.44-.11 2.79-.43 3.96-.92 1.19-.5 2.07-1.12 2.66-1.84 2.41-5.47 4.86-10.93 7.29-16.39 2.42-5.44 4.82-10.87 7.17-16.29-.21-.32-.39-.6-.58-.82-.18-.22-.41-.39-.76-.52-.32-.12-.73-.21-1.3-.26-.53-.05-1.2-.12-1.97-.19 1.51-3.64 2.93-7.26 4.31-10.9 10.18-.57 20.35-1.15 30.55-1.73-1.35 3.56-2.75 7.13-4.19 10.7zm1.3 46.5c-2.52.37-4.72.23-6.6-.46-1.86-.69-3.26-1.63-3.94-2.93-1.13-2.13-1.48-4.6-1.26-7.35.22-2.74.87-5.6 2.06-8.57 1.19-2.96 2.79-5.93 4.81-8.92a57.86 57.86 0 0 1 6.93-8.41c1.05-1.07 2.27-1.98 3.62-2.78 1.33-.79 2.73-1.45 4.22-1.99 1.47-.53 2.98-.93 4.53-1.2 1.51-.26 3.07-.47 4.56-.48 1.19-.01 2.16.17 2.98.37.82.19 1.65.37 2.5.57.8-1.77 1.6-3.53 2.36-5.31.24-.57.04-1.1-.64-1.57-.67-.46-1.7-.66-2.96-.58 1.17-2.9 2.29-5.79 3.37-8.67 7.1-.4 14.21-.81 21.31-1.21-2.98 7.74-6.13 15.51-9.39 23.3-3.27 7.82-6.74 15.62-9.89 23.55-.19.5.12.91.53 1.14.39.23 1.14.36 2.22.4a310.59 310.59 0 0 0-3 7.65c-6.1.52-12.19 1.05-18.27 1.58-.39-.29-.57-.55-.57-.75 0-.22-.3-.4-.82-.55-1.42.66-2.84 1.3-4.29 1.92a17.73 17.73 0 0 1-4.38 1.25zm5.13-11.96c-.12 1.02.24 1.8.33 2.33.08.53.5.76 1.3.69.62-.05 1.33-.34 2.13-.88.8-.54 1.58-1.22 2.06-2.24 1.39-2.96 2.54-6.06 3.81-9.08 1.27-3.03 2.63-6.04 3.92-9.07.41-.95.48-1.74.21-2.31-.27-.58-.78-.96-1.51-.97-.44-.01-.9.17-1.28.43-.39.25-.81.57-1.2.95-.37.37-.73.78-1.1 1.19-.36.42-.78.73-1.06 1.15-2.11 3.26-3.64 6.38-4.88 9.2-1.24 2.82-2.38 5.65-2.73 8.63zm63.56-33.77c-1.86 4.57-3.77 9.15-5.64 13.73-1.87 4.58-3.78 9.19-5.64 13.8.27.77.71 1.31 1.35 1.64.6.3 1.38.48 2.29.53-1.35 3.36-2.68 6.71-3.96 10.07-8.09.7-16.18 1.41-24.23 2.11 1.28-3.4 2.66-6.8 4.05-10.21 1.4-.48 2.48-.95 3.23-1.41.78-.48 1.43-.97 1.72-1.6 1.23-2.74 2.29-5.56 3.46-8.33 1.17-2.77 2.32-5.54 3.49-8.3-.33-1.28-1.26-2.07-2.87-2.4 1.17-2.79 2.32-5.57 3.46-8.34 6.41-.42 12.85-.85 19.27-1.27zm-2.5-14.69c2.38-.13 4.17.34 5.34 1.43 1.17 1.09 1.42 2.51.73 4.26-.34.86-.85 1.66-1.58 2.42-.73.77-1.6 1.45-2.56 2.04-.97.6-2.04 1.1-3.21 1.49-1.15.39-2.34.64-3.48.71-2.36.15-4.1-.33-5.23-1.42-1.14-1.1-1.37-2.51-.69-4.24.34-.87.87-1.68 1.63-2.48a13 13 0 0 1 2.52-2.07c.94-.6 2-1.09 3.12-1.47 1.12-.38 2.27-.62 3.42-.69zm31.35 12.35c2.98-.2 5.55.15 7.75 1.02 2.18.87 3.91 2.14 5.16 3.8 1.25 1.67 1.98 3.67 2.15 6 .17 2.35-.29 4.9-1.37 7.66-1.09 2.77-2.71 5.42-4.82 7.98-2.09 2.55-4.5 4.82-7.22 6.84-2.69 2-5.6 3.67-8.64 4.95-3.05 1.29-6.09 2.07-9.12 2.33-3.02.26-5.64-.03-7.86-.86-2.25-.84-3.97-2.12-5.18-3.83-1.22-1.71-1.89-3.79-2.02-6.21-.12-2.42.42-5.05 1.58-7.89 1.16-2.85 2.83-5.54 4.97-8.12 2.12-2.55 4.51-4.82 7.2-6.79 2.68-1.96 5.52-3.55 8.53-4.77 2.98-1.22 5.93-1.93 8.89-2.12zm-2.77 7.42c-.69.05-1.42.41-2.29 1.11-.85.68-1.7 1.61-2.57 2.75-.87 1.15-1.72 2.48-2.57 3.97a44.64 44.64 0 0 0-2.32 4.76c-.68 1.63-1.16 3.16-1.49 4.6-.32 1.43-.5 2.67-.5 3.72-.01 1.04.18 1.87.5 2.45.34.59.87.86 1.56.8.74-.07 1.54-.44 2.41-1.15.85-.69 1.69-1.63 2.56-2.79.87-1.15 1.74-2.46 2.55-3.94.81-1.48 1.53-3.03 2.18-4.65.66-1.66 1.18-3.21 1.53-4.65.36-1.44.52-2.67.53-3.72.02-1.04-.16-1.85-.48-2.43-.32-.58-.87-.86-1.61-.81zm67.82-10.16c.64-.41 1.24-.82 1.86-1.26 2.04-.13 4.08-.26 6.14-.4-1.35 3.62-2.68 7.25-4.03 10.87-2.43.17-4.83.34-7.27.53-.11-.45-.16-.86-.25-1.2-.09-.36-.29-.68-.53-.93-.26-.27-.64-.53-1.08-.75-.48-.24-1.1-.47-1.97-.72-.87-.25-1.93-.23-3.05.11-.68.21-1.22.53-1.74.91-.53.38-.83.85-.69 1.37.27.99.99 1.8 1.9 2.51.89.7 1.92 1.36 3.02 1.96 1.12.6 2.27 1.19 3.46 1.76 1.2.57 2.25 1.21 3.21 1.91.95.7 1.67 1.52 2.22 2.43.55.92.83 2.06.58 3.37-.2 1.03-.64 2.02-1.08 3.05-.43 1.04-1.03 2.05-1.79 3.03-.76.99-1.66 1.93-2.73 2.84-1.04.89-2.29 1.69-3.71 2.39a32.3 32.3 0 0 1-4.38 1.8c-1.6.52-3.18.93-4.79 1.24-1.6.31-3.18.5-4.72.55-1.56.06-2.91-.08-4.13-.38-.71-.18-1.42-.37-2.13-.59-.74-.23-1.62-.23-2.68.13-1.03.35-1.9.99-2.63 1.78-2.07.18-4.13.36-6.17.53 1.65-4.44 3.35-8.87 5.04-13.3 2.85-.22 5.69-.45 8.53-.67.09.64.18 1.2.25 1.68.07.47.19.9.37 1.29.17.38.51.72.96 1.03.46.31 1.13.67 2.02.86 1.82.39 3.36.21 4.65-.26.27-.1.62-.23 1.01-.37.43-.16.81-.31 1.14-.52.3-.18.56-.44.73-.72.19-.3.26-.68.04-1.08-.51-.98-1.44-1.79-2.59-2.54-1.13-.74-2.34-1.48-3.62-2.2-1.29-.72-2.54-1.45-3.83-2.19-1.29-.75-2.33-1.59-3.12-2.55a6.614 6.614 0 0 1-1.44-3.25c-.18-1.21.23-2.61 1.01-4.33.88-1.96 2.17-3.93 4.22-5.73 2.08-1.83 4.49-3.09 7.25-3.81 1.72-.45 3.21-.78 4.52-1 1.33-.22 2.61-.34 3.87-.37 1.26-.02 2.52.06 3.81.26 1.28.21 2.75.51 4.33.93zm-35.25-7.35c1.12-.06 2.06.03 2.93.29.85.25 1.51.63 2 1.11.5.49.78 1.09.85 1.8.07.7-.1 1.47-.5 2.3-1.64 3.37-3.34 5.98-5.09 7.82-1.73 1.82-3.39 3.19-4.97 4.07-1.6.89-3.05 1.46-4.33 1.68-1.31.24-2.34.41-3.05.54.36-.63.75-1.26 1.15-1.89 1.08-.34 2-.82 2.82-1.47.78-.63 1.36-1.26 1.76-1.86.42-.62.69-1.13.76-1.59.07-.45-.09-.66-.41-.64-1.17.08-2.22 0-3.12-.26-.89-.25-1.6-.61-2.08-1.14-.45-.49-.7-1.13-.78-1.84-.08-.71.11-1.5.53-2.34.42-.84 1.05-1.64 1.86-2.4.82-.78 1.76-1.47 2.75-2.04 1.03-.59 2.16-1.07 3.37-1.45 1.21-.38 2.4-.61 3.57-.68zM139.82 9.9c10.78 2.88 14.12 24.37 14.12 39.55 12.7 6.72 27.49 22.44 37.78 32.84 11.22 11.35 32.9 17.66 39.93 29.29 7.32 12.08 1.52 20.54 5.54 29.77 3.45 7.94 11.71 10.42 18.1 15.79 7.56 6.36 8.63 14.24 11.64 23.86-.82 10.15 14.21 37.95 8.09 41-7.6 2.29-20.4-30.91-22.8-42.01-3.5-16.14-1.74-3.4-10.37-13.64-4.61-5.47-4.71-10.47-8.81-15.19-1.41 16.97-8.92 28.24-26.84 28.24h-8.47l-43.72-6.04-32.55.4-52.17 7.61-4.33-.55c-6.98 0-12.71-5.73-12.71-12.71v-9.89c-6.41 2.32-17.16 22.84-26.83 25.42 0 14.51-7.69 37.84-18.36 40.69 3.57-15.31 4.2-32.9 11.86-44.36 3.16-4.72 27.69-28.66 27.69-28.81 0-.41-5.65-6.93-5.65-15.54v-1.41c0-22.66 34.78-31.15 47.67-44.13 13.94-14.05 30.03-35.68 51.2-40.61V9.92zM35.3 39.56c-12.61-2.93-7.6-6.19-14.49-15.17-4.58-5.98-10.39-10.86-13.76-15.9C31.18 10.5 58.86 47.7 63.54 67.81l6.36-8.01 4.37 13.45 3.39.21c3.82 0 3.89.67 7.06 1.41l-4.85 6.6c6.41-3.43 7.64-7.8 17.56-8.02-1.9 7.13-20.51 22.2-28.25 24.01l-1.75-8.41-3.9-.06c-4.29 0-4.79-2.46-5.65-5.65h4.24c5.23 0 6.38-1.38 8.47-4.24-7.15-1.67-12.06-8.47-15.54-8.47-13.43 0-12.81 17.46-22.6 24.01l-3.29-48.11 6.12-6.98zM213.17 184.1c10.21-2.37 18.89-8.57 21.28-18.83l11.83 10.87c4.35 12.62 13.81 52.71 31.47 52.71 1.89 0 4.14-4.18 4.14-9.31 0-4.81-8.53-22.21-9.27-34.53-.36-6.02-3.7-14.78-5.87-19.55-3.98-8.78-17.15-18.79-25.23-24.2 0-36.14-11.8-41.59-36.28-54.12-.89-.46-46.88-41.66-47.06-41.93 0-29.17-7.61-32.17-22.6-45.2h-1.41l1.74 21.16-.33 21.22c0 3.87-14.58 10.63-18.94 13.54-6.9 4.62-10.11 10.51-16.37 14.71l-22.65-.73c-.15-9.93-4.29-22.18-11.25-24.7v12.71h-2.83C59.47 40.43 30.43 4.25 8.46 4.25H-.02v7.06c7.18 1.92 24.01 22.12 24.01 31.07 0 .19-1.39 2.8-1.42 2.82 2.37 4.94 5.65 24.44 5.65 32.49v11.3c0 11.3-3.54 15.69-4.24 24.01 8.37-6.13 25.27-38.13 31.07-38.13 2.52 0 2.32 2.12 2.83 4.24l-7.08 2.77c1.49 6.36 5.69 10.76 12.73 11.35.94 4 1.41 2.41 1.41 5.65 0 1.66-28.25 14.39-28.25 36.72 0 4.97 2.46 12.18 4.24 15.54-8.24 5.52-24.58 22.05-29.25 31.48-1.19 2.43-9.11 43.38-9.17 46.03 16.11 0 20.19-12.05 24.15-23.98 2.52-7.58.57-16.21 6.3-20.54 4.94-3.73 10.53-6.95 12.21-13.22H48c2.26 9.69 9.56 15.54 21.19 15.54h2.83c12.46 0 28.13-8.47 46.61-8.47h28.25c25.76 3.46 40.44 7.14 66.29 6.12zm-43.69-21.66c-.63-7.43 9.41-10.35 14.12-15.53.97 1.72 1.79 1.32 1.79 4.05 0 5.18-.62 9.28-1.79 14.31-6.19 2.97-10.75 1.79-14.12-2.83zm18.36 2.83c-.56-1.23-.54-2.19-.23-3.03 1.89-5.07 7.14-7.89 10.71-11.84l1.79 1.01c-1.74 5.09-1.69 11.3-5.21 15.27-3.02 1.32-5.29.64-7.06-1.41zm11.3 1.41c-1.48-8.45 7.53-9.42 11.3-14.13h2.82c1.47 2.87 1.69 5.05 1.69 8.67 0 3.99-3.62 7.61-6.02 8.37-5.52.94-5.91-.97-9.79-2.92zm-137 4.23c-2-1.14-2.83-2.45-2.83-7.06.01-1.89-.12-4.36-.11-6.26l7.03 4.28c4.15 5.12 2.43 8.99-4.09 9.03zm7.06-15.53c.66-1.19 1.33-2.38 1.99-3.57 2.84 2.59 10.03 5.53 10.54 11.85-.86 3.2-1.17 5.84-5.46 5.84-6.44 0-7.06-7.35-7.06-14.13zm18.06-4.54c4.34 3.4 14.58 2.67 13.02 10.19-2.29 3.42-4.14 5.65-9.89 5.65-8.98 0-7.59-11.02-3.13-15.84zm17.25 10.19c-3.49-4.85.88-8.4 1.33-12.6 2.94.6 7.12 3.69 12.8 9.77-.05 9.67-9.99 5.24-14.12 2.82zm15.54-2.82c-1.41-5.36 3.18-8.1 4.76-12.15 4.06 3.11 11.59 4.15 12.19 9.32 0 6.15-1.18 8.47-8.47 8.47-4.64 0-6.32-3.16-8.47-5.65zm19.78 1.41c2.35-8.81 7.98-6.27 15.33-9.72l3.35 4.13c-1.15 4.67-2.45 11.24-8.79 11.24-5.75 0-7.6-2.23-9.88-5.65zm16.95-24.02c0 2.32.84 4.24 2.83 4.24 3.77 0 .59-4.96 8.47-7.06v-2.83c-3.48.29-11.3 2.8-11.3 5.65zm-22.6 5.65c2.89 0 2.59-2.91 2.82-5.65-6-1.6-2.47-2.82-7.06-2.82h-4.24c1.08.94 8.31 8.47 8.47 8.47zm55.08-18.36c4.35.48 6.96 2.58 7.06 7.06l-3.33 9.71-2.32.18c-1.48-5.56-8.48-11.72-8.48-12.71 0-2.96 3.74-3.96 7.06-4.24zm11.3 7.06c.86-1.29 2.3-4.24 4.24-4.24 3.99 0 5.45 3.24 7.06 5.65-.54 6.45-2.97 9.83-8.48 11.3v-4.24c0-4.31-1.35-5.69-2.82-8.47zm-141.25-4.24c5.64-2.7 7.8-1.57 7.07 5.65-.57 1.9-4.88 4.37-7.14 5.52-2.35-3.04-2.07-8.13.08-11.17zm11.3 2.83c-.64-2.45 2.19-4.62 5.3-5.01 13.01 2.27 7.12 5.86 2.42 15.97-4.15-.97-7.25-5.31-7.72-10.95zm21.19-2.83c5.41-2.59 8.26-1.31 11.3 2.83 1.02 6.13-3.02 9.62-4.53 14.44-2.25-5.76-9.76-12.07-6.78-17.27zm15.54 4.24 2.82-4.24c4.69-1.8-1.96-10.03-5.08-14.69-2.06-3.08-8.64-13.55-11.87-13.55-21.95 0-38.82 22.99-48.03 36.72 14.26 3.81 2.96 43.79 21.19 43.79h2.82l52.13-7.84 24.14.77 50.84 4.29 7.06-.05c12.85 0 21.19-17.19 21.19-31.07v-8.47c0-17.36-8.41-25.06-19.78-31.07-11.16 5.9-21.46 13.86-28.25 24.01l1.41 2.82-2.82 9.89-2.76 1.62-.07-3.04c-2.53-6.56-6.79 5.65-19.77 5.65h-14.12c-6.41 0-14.85-7.06-15.54-7.06-2.26 0-3.39 4.24-5.65 4.24-3.75 0-8.26-9.65-9.89-12.72zm7.06-21.19v-1.41c0-3.26 1.58-8.47 4.24-8.47 1.89 0 15.54 9.58 15.54 12.72v5.64c-6.94.58-5.18 2.83-11.3 2.83-4.57 0-8.48-6.14-8.48-11.3zm38.62-.07c.39-1.22 10.26-12.64 10.82-12.64 3.9 0 9.89 9.22 9.89 14.12v4.24c0 2.91-1.04 4.63-4.28 4.56l-15.19-1.78-1.24-8.5zm-35.79 14.2 24.01-2.82 11.38-.56 23.93 3.38c1.66-3.13 4.24-6.89 4.24-11.3 0-6.9-1.48-9.93-5.65-12.72 1.28 4.77 4.24 6.62 4.24 12.72 0 3.16-1.62 4.26-2.83 5.64 0-18.11-3.2-14.01-9.89-24.01 4.07-1.36 2.87 2.63 1.38-4.32l4.27-1.33c-.71-1.26-.92-2.83-2.82-2.83-8.33 0-15.35 22.6-21.19 22.6-2.89 0-2.6-2.91-2.83-5.64-3.22 2.35-3.49 5.64-5.65 5.64-12.33 0-14.75-19.77-34.05-19.54l11.14 7.88-3.93 4.6c-2.23 1.63-4.24 3.28-4.24 7.06 0 9.74 3.96 10.62 5.72 17.16l2.75-1.62zm24.01-5.65h5.65v-7.06h-5.65v7.06zm76 24.27c-.56-2.81-4.26-8.38-1.03-10.85 3.92.34 7.88-.02 5.53 6.31 0 1.94-3.56 3.75-4.51 4.54z" style="fill:#000"/></svg>