<svg xmlns="http://www.w3.org/2000/svg" xml:space="preserve" width="194.766" height="97.069" style="shape-rendering:geometricPrecision;text-rendering:geometricPrecision;image-rendering:optimizeQuality;fill-rule:evenodd;clip-rule:evenodd" viewBox="0 0 100.9 50.29"><defs><style>.fil2{fill:#0368c6}.fil4{fill:#19c3fa}.fil3{fill:#5fd0fb}.fil10{fill:#f8f8f8}.fil8{fill:#f9fafa}.fil6{fill:#fbfbfb}.fil1{fill:#fdfdfd}.fil14{fill:#fff}</style></defs><g id="Camada_x0020_1"><g id="_2051197510992"><path d="M99.54 34.7c-.46-.04-.13-.05-.25.14.98.93 2.15 3.59-1.1 3.55-1.06-1.31.13-1.37-.09-3.15-.16-1.32-1.36-1.4-1.66-2.21 1.57.12 2.08 1.26 2.45 1.39.39.14.05.2.32-.04-1.63-1.88-2.69-1.4-2.24-1.99.21-.28 1.2-.17 1.51-.12.52.08.82.29 1.19.13-.27-.71-1.61-1.11-2.48-1.57-.65-.34-.65-.43-.72-1.29-.15-1.87-1.31-6.93-1.49-8.57 1.32-.86 1.57-.71 1.97-2.73.24-1.23-.43-11.54-.48-13.53-.06-3.03-4.02-1.22-7.43-1.55-2.69-.26-6.32.03-9.15.03l-14.25.09c-.8.01-1.55.33-1.87.3-.65-.05.01-.26-2.06-.23l-13.84.21c-4.27.06-2.33.81-3.81.9.07-1.12.8-.93.84-2.18-.67-.02-1.75.08-1.84.81-.52.19-.44.36-1.01.48.1-.54 1.23-.84.69-1.73-.76-.42-1.51.23-1.87.61-.43.46-.57.9-1.47 1.11-1.15.26-8.13.12-10.12.23-1.22.07-1 .3-1.58.97-.34.4-.33.26-.98.34-.47.06-.64.15-1.15.18-.29-.69-.41-1.2-1.3-1.3-1.33-.16-5.59.22-7.7.01.11-.86 1.69-2.3 2.34-2.86.33-.29.65-.49.74-1.03-2.43-.64-3.15 1.67-5.02 3.93l-3.03.03c.21-.91 1.02-1.05 1.16-2.47-.8-.1-.83-.05-1.53-.03-.62.01-1.06-.28-1.47.12-.16.21-.01 1.66-.03 2.42-.89.29-.94.16-1.73.64-1.9 1.15-2.78 1.89-3.22 3.98-.25 1.2-.8 2.55-1.13 3.76-1.03 3.79-.45 1.91-.05 3.66-1.34.57-1.13.61-1.62 2.13-.29.91-.63 2.05-.46 3.09 1.19.93 3.2.34 4.81.62-.04.52.05.25-.33.57-.16.14-.38.27-.56.4-1.3.94-1.68 2-2.07 3.48-.32 1.19-.22 2.14-.48 3.32-.22 1.02-.4 2.01-.62 3.04-.8 3.82-.19 5.05-.64 6.56-.27.9-.5 1.94-.78 2.88-.55 1.82-1.42 3.01-.27 4.34.67.78 1.82 2.32 2.62 2.95 1.41 1.11 4.56.67 6.68.65 1.38-.01 9.86-.04 10.9-.23 1.19-.22 1.5-1.03 2.38-1.26.66 1.64 2.06 1.23 4.49 1.21 1.37-.01 4.34.25 5.17-.52.36-.34.28-.44.76-.73l6.71-3.22c.11 1.33-1 3.3.06 4 .77.51 12.77.25 14.17.24 3.13-.02 6.39-.04 9.5-.17 2.79-.12 2.6-1.13 3.55-1.32.7-.14 1.31-.12 2.11-.32.55-.14 1.1-.46 1.72-.44.19 1.19.14 1.67 1.4 1.87 1.29.2 4.77.03 6.28-.01 1.74-.05 1.6-.48 2.44-.8 1.3.84 1.29.68 3.12.68l10.72-.14c1.58-.04 2 .1 2.77-.97.85-1.18.06.27.48-2.65.33-2.29-.82-4.72-.49-6.63.64-.22 1.03-.11 1.68-.44 2.14-1.09.76-1.93-.23-3.63z" style="fill:#0e0e0e"/><path class="fil1" d="M43.91 34.86c-.84-.46-.64-.54-1.21-1.25-.36-.45-.81-.73-1.13-1.18-.49-.69-.48-.71-1.05-1.25l-4.22-5c-.92-1.05-.51-.28-.37-1.66-.48.06-.86.28-1.38.19-.62-.11-.36-.34-1.02-.23-1.17.2-1.11.26-1.37-.83l-.06-.22c-.47.18-.83.57-1.2.86-1.11.88-1.71.87-1.96 2.13-.11.56-.2 1.1-.33 1.7-.47 2.31-.77 4.6-1.22 6.92l-2.5 13.74 6.5-.12c.93-2.28 1.81-11.19 2.51-12.95.4.09 2.29 2.29 2.61 2.76.55.82.95.99 1.31 1.41.42.5.11.48 1.22 1.49l2.46 2.96c1.24 1.66.36.38.02 4.18l6.54-.15c1.01-3.49 1.48-8.36 2.27-11.98.36-1.64 1.01-4.41 1.12-6 .13-2.02.95-4.07 1.08-6-.45.06-.81.21-1.28.01-.64-.26-.14-.43-1-.21-.76.19-1.06.46-1.28-.46l-.16-.56c-.6.29-.78.52-1.28.92-.43.35-.74.54-1.18.86-.94.69-.85 1.72-1.11 2.98-.26 1.28-.88 6.23-1.32 6.95zM56.68 41.89c.03-1.24.8-4.41 1.07-5.7.39-1.83.57-3.77.97-5.68.2-.94.39-1.9.56-2.79.19-1.03.02-.76 2.69-.79 2.76-.03 3.54-.48 4.44.63.34.42.53.44.86.75 2.1 1.96 1.11 1.87.83 4.89-.15 1.56-.72 4.05-1.07 5.6-.18.83-.52.75-1.79 1.6-.72.48-1.29.99-2.06 1.31-.49.21-5.71.24-6.49.16zm.15-16.56c-.19-.81.29-1.03.76-1.37 1.04-.76 1.03-.55.95-1.17-1.22-.18-2.24 1.76-2.4 1.88-.16.12-1.17.72-1.38.8-.74.27-1.03 0-1.29-.4.14-.68 1.18-1.28 1.84-1.76.02-.51-.18-1.05-.55-1.35-.68 1.16-1.3 1.06-1.59 2.49-.13.64-.07 1.15-.18 1.83-.48 2.85-1.26 5.45-1.57 8.53-.15 1.47-2.53 12.69-2.42 13.54.93.18 10.23-.11 12.01-.13 2.11-.03 4.08.31 5.3-.88.71-.69 6.64-5.05 6.82-5.41l2.93-15.36c-.39-.38-.68-.6-1.02-1l-2.86-2.97c-2.33-2.47-1.32-2.16-5.74-2.03-.41.84.2.36-.67 1.13-.81.72-2.25 2.33-3.14 2.4-1.48.11-.52-.01-1.49.42-.54.24-1.02.02-1.61.12-1 .17-1.44 1.32-2.7.7zM21.36 27.61c0 2.03-.91 5.43-1.32 7.51-.25 1.26-.36 2.46-.6 3.75-.09.48-.49 3.24-.84 3.52-.39.25-8.63.3-9.69.19-.1-1.09.28-2.79.48-3.87.56-3 1.42-8.42 2.1-10.99l9.87-.12zm4.62-2.13c-.54.91-.76.85-2.13 1-3.07.35-5.66.4-8.71.6-1.95.13-4.09.21-6.11.24-.97.01-1.93.1-2.93.15-1.5.07-1.2.11-1.43 1.5l-1.58 7.79c-.11.97-.11 1.7-.32 2.66-.19.82-.44 1.63-.56 2.55-.73 5.76-1.19 2.33.97 5.51.3.44.36.34.77.73.95.9.42.88 2.24.87 1.04 0 2.08.03 3.12.03l8.95-.24c1.21-.02 1.92.2 2.71-.47l3.43-2.68c.7-.69 1.38-5.78 1.77-7.59.18-.86.21-1.71.38-2.6.32-1.7.66-3.55 1.03-5.19.29-1.26.51-.94.54-2.56.01-1.01.34-1.9.29-2.69-1.08.16.29.31-2.42.38zM74.21 43.91l5.19-4.23c.43-.33.39-.45.81-.82l6.03-5.23c.83-.82 1.01-.59 1.38-1.9.68.28-.07.2.51.48 1.93-1.07 3.99-1.93 6.58-1.93-.06-1.85-.39-3.36-.69-5.13-.26-1.53-.5-3.53-.89-4.96-1.4-.18-3.78 0-5.28.02-1.69.02-1.22-.38-2.78 2.49l-5.43 10.58c-.5 1.15-1.22 2.26-1.85 3.58-.93 1.96-2.92 5.31-3.6 7.05z"/><path class="fil2" d="M93.03 46.23c-1.19.21-2.65-.85-3.43-1.31-.68-.41-.93-.31-1.45-.99-.8-1.06-2.39-2.03-1.22-5.01.25-.64.69-.99 1.02-1.43.32-.44.73-.87 1.3-.96.17-.14-.01-.02.26-.17 2.54-1.39 5.08 0 2.86 1.89-.61.52-.79.73-1.25 1.35 1.18.12 2.03.05 3.12-.16 1.26-1.04 2.89-1.67 1.6-4.16-.37-.72-.36-.45-.86-.91-.47-.43-.29-.42-.91-.71a5.84 5.84 0 0 0-1.22-.41c-.6-.1-1.14.08-1.45-.18 1.21-.4 1.57-.83 3-1.06.69-.11 3.35-.17 3.61-.3-.14-.48.25-.12-.46-.35l-1.5-.51c-1.67-.48-3.28-.16-4.86.38-.44.15-.76.14-1.16.33l-2.57 1.63c-.96.6-2.25 1.79-3.14 2.56-.86.74-.73.44-1.47 1.24-.18.2-.5.54-.74.75l-6.84 5.92c-1.52 1.27-.12.23-1.67 1.19-.4.25-.47.4-.84.65-1 .69-2.23 1.04-2.35 1.65.79 0 2.38-.58 3.2-.77.72-.17 2.69-.34 3.53-.4 8.24-.58 12.48 2.91 17.56 2.34.77-.09 2.73-.24 3.05-.87-.83-.55-4.22-.44-4.73-1.23z"/><path class="fil1" d="m60.56 14.12 8.78-.23c.01.72-.32 1.89-.68 2.42-2.25.59-6.41-.15-8.88.23l-.99 3.45c1.01 0 2.01.01 3.03.01 1.15 0 1.76-.42 2.97-.23 1.08.17 1.82.14 3 .13 1.53-.02 1.42.12 2.39-.69 1.95-1.62 1.57-.88 2.4-3.85.25-.9.4-1.53.6-2.53.17-.83.6-1.67.68-2.37l-8.76-.02.5-1.93c.6-.97 7.01.03 8.97-.53l1.03-3.51c-2-.1-4.21.01-6.18.06-.96.02-1.89.05-2.85.05-1.48.01-1.39.03-2.35.8-.33.27-1.42 1.06-1.63 1.37l-2.04 7.39zM82.35 19.72c.71.03 1.42.01 2.13.02.92.01 1.33.17 1.71-.54.17-.33.17-.49.31-.78l1.33-2.06c.3-.52.37-.9.74-1.43 1.01-1.46 1.84-3.66 2.72-4.14l-.07 5.15c-1.73.33-1.49-.25-2.28 1.25-.49.92-.94 1.42-1.2 2.51l7.03-.04c.93-1.58.49-5.49.36-7.57-.17-2.55-.17-5.44-.45-7.93-5.14.08-2.76-.67-6.24 4.27-.31.44-.35.77-.59 1.17l-1.35 2.04c-.23.42-.33.75-.61 1.16l-2.7 4.35c-.19.42-.89 2.19-.85 2.58zM40.93 8.19c-.11.61-.52 2.18-.82 2.64l-5.08.06.51-1.96c-.79.1-.8.32-1.69.13l-.39-.83c-1.64-.02-1.27-.04-1.42.65l-.55 1.68c-.28 1.68-.7 2.97-1.18 4.46l-1.14 4.18c.64.1 2.83-.28 3.62-.39.51-.89.43-2.52 1.09-3.5.63.27 1.02 1.76 1.39 2.41.26.46.45.69.71 1.2.33.64.4 1.1.74 1.32 1.69.87 2.33-1.58 3.06-2.3.28-1.1.54-.67-.08-1.8-.26-.48-.84-1.23-.95-1.66 1.06-.09 3.55.23 4.2-.27l1.88-6.11c-1.59.36-2.19.19-3.89.1zM48.98 4.86l1.36.48c.35.2.2.09.41.33-.19.49-.93 1.09-1.26 1.37-.77.63-1.23.34-2.18.36-.46.25-.58.54-1 .79-1.94 1.2-.78-1.15-1.65 1.9l-1.23 4.05c-.29 1-.46 1.88-.74 2.8-.25.83-.71 2.05-.8 2.84 1.11.44 2.2.56 3.36.37.63-1.63 1.45-5.26 1.79-5.79 1.12-.19 4.24.27 4.82-.34.11-.12.92-1.4 1.01-1.57l.86-1.78-5.64.07c-.02-.67.35-2.01.62-2.43l7.72-.1c.58-.61 1.96-3.43 1.96-3.44-.7-.16-8.61-.06-9.4.09zM75.11 7.98l4.44.03c-.21 1.75-1.31 3.79-1.56 5.8-.15 1.21-1.64 4.06-1.62 5.92.65.02 2.72-.09 3.17.13.44.21 1.25 1.64 2.01.65.27-.73-.58-.84-1.06-1.53.08-.65.32-.74.33-1.36.02-1.61-.43-.27.41-2.85.17-.53.15-.93.31-1.45.3-.95 1.25-4.68 1.61-5.33l4.34-.18c.25-.36.93-3.21.98-3.54l-12.31.14c-.32.41-1.06 2.93-1.06 3.57z"/><path class="fil3" d="M27.61 23.1c.17-.42.35-.55.69-1.01.28-.38.36-.56.84-.69.12 1.07-.51 1.73-1.54 1.71zm12.82.01c.1-.69.16-.69.57-1.08.43-.42.31-.55.96-.66-.18.85-.7 1.53-1.52 1.74zm-5.52.93c-.32-.83.57-1.2 1.04-1.63.47-.42.83-1.33 1.73-.86-.12.48-.24.44-.61.75l-1.42 1.29c-.04.04-.6.61-.66.45-.01-.02-.05 0-.08-.01zm5.12-6.06c-.34.66-.46 1.12-.86 1.67-.37.51-.79.87-1.06 1.4-1.67-.13-1.4-.13-2.58.8-.78.62-1.03 1.18-2.13 1.53l.43-.66c.14-.17.19-.24.35-.45.28-.38.61-.68.46-1.2-.88.01-2.62 1.54-3.49 2.01.94-1.8 1.73-1.42 1.96-2.37-1.31-.05-1.44.81-3.03 2.21-.79.69-2.08 1.86-3.2 1.83.05-2.02 2.39-.41 3.17-3.39.14-.55.17-.4-.11-.75-.99-.6-2.81 1.8-3.19 2.22-.51.57-2.26 2.54-2.99 2.6-.18-.6.21-.87.53-1.4.26-.44 2.02-3.49 2.34-3.65.85-.24 3.47-.46 4.58-.59 1.04-.12 4.04.29 4.11-.9-.61-.17-3.11.34-3.91.48-1.39.25-2.64.27-4.08.45.28-.57 1.32-1.2.98-1.93-.74-.31-1.57.7-1.84 1.26s-.18.59-.77.84c-.56.24-.79.08-1.16.47l.9.15c-.25 1.09-2.21 2.35-3.01 3.03 0-.57 1.11-1.53 1.11-2.31-1.38-.07-2.18 1.48-3.42 1.78.33-.58 1.66-1.79 1.81-2.11-.53-.21-.95.06-1.39.49-.41.39-.54.75-.87 1.3-.19.32-.67.78-.99 1.18-.36.45-.66.71-.78 1.27.43-.14 1.58-.97 1.89-1.25.54-.49 1.23-.94 2.13-1.14-1.2 3.27 1.45.39 2.14.16-.16.54-.38.79-.6 1.26-.2.41-.29.86-.45 1.17-1.52.63-10.7 1.1-12.82 1 .12-.52 2.56-4.4 3.05-5.06 1.36-.04 2.47-.27 3.8-.43 2.46-.29 2.64-.16 2.86-1.23l-1.8.24c-.31.18-3.95.95-4.45.84.01-.63.8-1.3 1.09-1.99.36-.85 1.01-1.18.77-2.16-.98.02-.62.46-1.2 1.32-.38.56-.53.96-.88 1.56-.28.49-.43 1.27-.88 1.55-.63.4-1.45.12-1.81.47.38.21.96.01 1.45.01-.05.41-.85 1.96-1.09 2.4L9.81 26.2c-.46.59-3.78.36-5.52.67-.11.02-.23.05-.34.08-.25.08-.17.04-.34.16.22.17-.03.07.34.15.2.04.19.03.39.02.16-.01.5-.07.69-.08l4.21-.22c3.57-.17 7.88-.53 11.25-.6 1.66-.04 4.37.31 5.14-.9-.33-.61-.21.02-.52-.54.41-.35.98-.83 1.37-1l-.05 1.22c1.8.01 2.37-.83 3.37-1.41-.08.73-.69.72-.84 1.27 1.04.04 2.28-1.94 4.12-2.31-.72 2.55.12 1.28 1.26.81l.08.37c0 .03.01.07.01.09.04.22-.05.08.09.35 1.37.3 2.93-2.14 3.43-2.35-.06.81-1.15 2.23-1.17 3.22 1.32-.01 1.49-1.47 2.63-1.83-.09.29-1.26 2.49 1.57 1.26.35-.15.96-.72 1.37-1.05.82-.66 2.05-1.58 2.45-2.34-1.37.25-1.39 1.23-2.4 1.84-.84.5-1.66 1.49-2.69 1.55l.23-1.15c1.23-.21 1.53-.23 2.19-.94.47-.51 1.12-1.27.78-2.11-.97-.4-1.2-.03-1.72.49l-2.39 2.21c-.52.39-.73.9-1.22 1.12.13-.77 2.28-4.17 3.03-5.41.47-.77.84-.85 1.01-1.88-1.34.12-.92.72-1.53.99z"/><path class="fil1" d="M16.64 17.88c-.3.49-.14.96.15 1.35.37.5.47.52 1.21.49.86-.13 1.44-.49 2.34-.1.15.59-.06.33-.2.98.6.02.96-.1 1.53-.1 2.11-.01 1.13.48 2.61-.42.47-.28.8-.21 1.25-.4.49-.2 1.23-2.24 2.52-2.28.51-.02.54.1.9.67.01.02.03.06.06.09.77-2.46 1.36-5.08 2.22-7.58.15-.72.26-1.24.5-1.94l-.71-.27c-1.32-.37-.85.7-1.74.67-1.09-.04-.1-1.02.13-1.35.32-.47.41-.9.74-1.3.32-.39.62-.96.96-1.09.82-.33 1.11.44 1.57-.18l-.82-.2c-3.11-.01-2.58-.24-3.57 3.15l-.78 3.02c-.3.98-.62 1.92-.9 2.9-1.06 3.68.64 2.9-6.14 3.01l.3-1.1c-4.03-.04-3.86.48-4.12 1.98zM89.55 36.61c-.19.25-.67.5-.95.71-.18 1.19.49 2.86.31 3.99l-1.75.13c.29 2.98 5.47 4.32 5.87 4.79 1.29.08 2.51.58 3.63.53.43-1.67.4-2.45.13-4.14-.21-1.31-.28-2.88-.56-4.07-.67.28-.92.98-2.01 1.13-1.3.52-2.6.32-4.11.21.2-.34-.02-.04.21-.26.02-.02.2-.16.24-.19.76-.56 2.26-1.99 2.26-2.92-.97-.5-2.38-.22-3.28.09zM8.04 8.38c.02.6-.52 1.12-.86 1.53-1.32 1.58-.43.6-1.29 1.16-.53.35-1.01 2.97-1.11 3.75l8.74.03-.22.78.72.11.42-.2c1.08-.36 2.42-.05 2.77-1 .27-.74.87-2.58.88-3.31-1.35-.16-3.69-.03-5.13-.01-1.62.03-1.2.65-1.8.79-.94.22-.02-.68-1.8-.71-.2-1.74 1.22-1.66.58-5.07-.6.21-1.15 1.71-1.91 2.14zM54.7 20.11c.67-.02 1.12-.09 1.76-.16.66-.07.93.08 1.57.05.41-.77 1.85-6.2 2.23-7.52.56-1.95 1.91-6.02 2.19-7.85-.85-.02-2.12-.04-2.94.03-.94.08-.6.21-1.13 1.76l-1.22 4.49c-.43 1.47-.79 2.95-1.24 4.46-.4 1.35-1.22 3.37-1.21 4.73zM4.07 17.26c-.34.57-1.04 2.76-.96 3.59 2.51.06 5.17-.06 7.7-.07 1.43-.01 1.81-.27 2.25-1.45.41-1.11 1.03-1.7 1.32-2.71-1.63-.04-1.02.44-2.34.5-2.58.1-5.42-.03-7.97.14zM10.85 26.14c.63.12 6.27-.29 6.69-.45-.01-.77-.14.08-.21-.76.77-.55.76-1.11 1.36-1.74.65-.68.89-1.01 1.35-1.92-1.07-.05-5.92.07-6.6.46-.15.09-2.51 3.84-2.6 4.41z"/><path class="fil1" d="M17.53 14.95c1.08-.1 2.35-.08 3.25-.4.69-.24.77-1.54 1-2.37.48-1.69 1.26-3.62 1.5-5.41-.51.3-1.03.75-1.57 1.14-1.24.89-.94.28-2.09.38-.72.65-.85 2.09-1.18 3.14l-.91 3.53z"/><path class="fil4" d="M43.34 7.83c0-.57.18-.69.49-1.02.3-.32.38-.46.97-.43-.06.7-.71 1.32-1.45 1.45zm-8.22-.7c.05-.55.68-.9 1.12-.99-.02.38-.17.45-.4.69-.23.24-.24.36-.71.3zm5.74 1.01c.22-.57.7-1.1 1.4-1.12-.16.28-.56.6-.42.88.17.37.7-.09.99-.26.03.02.53 1.3 1.83-.13.47-.51 1.12-1.25.83-2.05-.74-.04-1.01.36-1.48.71l-1.33.97c.21-.76.94-.95.99-1.74-1.22.07-1.24.68-1.9 1.03.44-.96 2.56-3.02 2.74-3.8-.88.13-.85.43-1.44.51-.27.94-2.69 2.99-3.5 3.59-.35.26-1.07.82-1.44.91.12-.53.65-.93 1-1.35 1.09-1.33.18-.67 2.18-2.71.54-.55 1.03-.91 1.18-1.5-.92.01-.8.17-2.15 1.49l-3.55 3.51c-.54.52-1.26 1.33-2.21 1.3.21-1.08.74-.57 1.52-1.18.43-.34 1.23-1.33.58-1.89-.53-.46-1.87 1.34-2.84 1.78-.58.27-.77.24-.9.9.91-.05.46-.49 1.32-.64.17.85-.37.68-.09 1.3.65.29 1.77-.36 2.16-.69.62-.52 1.23-1.31 1.84-1.52-.3.97-.7 1.16-1.03 1.95 1.64.02 2.61-1.62 4.3-2.57-.17.91-1.59 2-1.6 2.98.69-.27.31-.43 1.07-.68zM9.86 1.73c.34 2.1.53 2.33-1.33 4.65-.46.57-.37.8-1.26 2-.3.4-1.21 1.68-.97 2.12.36-.5 1.19-1.95 1.7-2.17.33-1.19 1.2-1.74 1.56-2.26.28-.41.23-.47.57-.82.08.11.07.06.14.32.03.12.05.23.07.35.19 1.32.2 4.87.6 5.64.68-.03.8-.69 1.1-1.24.32-.58.62-.9.92-1.52.61-1.28 1.4-2.17 1.83-3.06.21-.45 2.49-3.54 3.1-4.1.32-.3.27-.29.63-.59.33-.26.37-.24.55-.65-1.45-.52-3.84 3.5-4.36 4.45-.61 1.11-1.18 1.78-1.65 2.97-.21.55-1.34 2.4-1.69 2.88-.25-.9-.23-3.69-.36-4.97-.27-2.69 1.2-2.23 1.25-3.94-.97-.08-.61.39-1.31 1.02-.24-.25-.08-.37-.21-.71-.22-.57-.41-.38-.88-.34z"/><path class="fil1" d="M5.1 26.37c.9.01 1.83.03 2.72-.02 1.26-.07 1.55.15 1.89-.87.35-1.06 1.74-2.62 1.75-3.52-.62.02-.86.16-1.27-.22-.26-.24-.15-.71-.97-.17-.54.35-1.01 1.07-1.55 1.46-.42.3-.49.26-.86.62-1.65 1.64-1.57 1.12-1.7 2.72z"/><path class="fil3" d="M60.47 23.86c.12-.65.48-.67.84-1.2 1.41-2.1 3.1-1.68 3.41-2.47-.5-.37-.12-.13-.46-.19-.42-.07-.88.11-1.2.33-1.13.76-2.83 2.58-3.37 2.66-.89-1.67.53-1.88.52-2.67-1.02-.44-2.42 2.31-3.93 2.71.03-.66-.19-1.13.08-1.66.32-.62.69-.34.67-1-.8-.17-1.39.41-1.55.96-.26.89.39 1.18.39 2.15-.36.21-.79.45-1.06.68-1.01.87-.75.43-.83.91.96.41 1.95-.69 2.41-1.37.48-.71.48-.43 1.11-.92.53-.41.52-.71 1.12-.85.22.39.48.82.5 1.38-.92.83-1.72.94-1.81 1.81.6.01 1.44-.39 1.74-.66.47-.44.43-.99 1.19-1.23-.12.46-.27.52-.22.93.49.13.95.06 1.27-.18.26-.2.48-.42.81-.67.33.09.1.04.34.21.43.3-.26-.03.34.25.74-.36 2.88-2.32 3-2.91-1.14.48-1.98 2.09-2.64 2.11.18-.57.5-.69.55-1.18 0-.02-.01-.08-.01-.1l-.04-.19c-.48-.48-1.15.91-1.88 1.58-.55.5-.48.74-1.27.78zM51.56 23.66c-.09-.45-.05-.53.64-1.29.31-.34.71-.83 1.31-.78 0 .92-.9 2.06-1.95 2.07zm-3.86-.76c.41-1.15 1.83-1.4 1.99-2.49-1.34.08-1.75 1.2-2.41 2.06-.46.59-.57.57-.94 1.24-.22.38-.61.79-.72 1.15.79-.22.46-.02.99-.48.72-.63 2.15-1.7 3.09-1.94-.12.72-.41.85-.19 1.54.71-.04.99-.56 1.61-.84.02.03.04.08.04.1.01.02.03.07.04.1.12.41-.03.33.2.78.95.09 1.34-.47 2.1-1.14.46-.4 1.22-1.21 1.16-2.11-.48-.32-.91-.38-1.42-.03-.27.18-.2.22-.51.42-1.32.87-1.85 1.77-2.53 1.85.17-.93 1.34-1.27 1.16-2.21-1.18.05-2.82 1.71-3.65 2z"/><path class="fil1" d="M79.7 47.96c.24-.41.73-1.17.68-1.67-1.31-.01-3.16-.1-4.42.03-2.46.26-2.84.32-2.82 1.74l6.56-.1z"/><path d="M15.57 7.48c.15-.55.39-.98 1.02-.97-.18.59-.33.88-1.02.97zm-.95 1.56c1.23.15 1.85-.77 2.65-1.17-.11.71-.31.03-.49.96.88-.28 1.93-2.03 2.94-2.06-.2.6-.67.73-.9 1.46 1.15-.04.46-.94 2.07-.8-.56.63-.53.22-.41.79.62.02 2.13-1.46 2.61-1.85-.76.1-1.05.32-1.58.66l-.07-.21c-.04-.16.02-.08-.06-.3-.56-.06-.67.09-1.12.23.22-.38.41-.36.25-.88-.59-.12-.7.13-1.03.37-.53-.31.05-.14-.54-.46-.44.21-.63.51-.93.88-.33.4-.51.52-.91.85-.51.44-1.32 1.26-2.18 1.23-.11-.9.88-.64 1.58-1.29 1.73-1.6.7-2.93-1.16-.76-.45.53-.76 1.4-.72 2.35z" style="fill:#19c1f5"/><path class="fil2" d="m99.54 34.7-.35-.32c-.27.23.07.17-.32.04-.36-.13-.88-1.27-2.45-1.39.3.81 1.5.89 1.66 2.21.22 1.77-.97 1.84.09 3.15 3.26.04 2.08-2.62 1.1-3.55.13-.19-.21-.18.25-.14z"/><path class="fil3" d="M13.66 15.97c-.57.16-.9.11-1.31.5l2.99-.16c.58-.4 6.2-.91 7.74-1.13 1.25-.18 1.84-.15 1.99-.83-.62-.33-2.05.19-2.82.31-.95.16-1.91.2-2.89.37-1.82.32-3.89.78-5.7.93z"/><path class="fil1" d="m13.84 5.24-2.36-.01c-.05.74 0 1.59-.01 2.34-.02 2.68 1.1.4 1.55-.63.27-.62.65-1.03.82-1.7z"/><path class="fil4" d="M48.43 7.12c.01-.04.06-.36.06-.36.1-.32.02-.1.19-.31.35-.23.73-.44.96-.95-1.54-.18-1.44.79-2.35.94.2-.53 1.26-1.63 1.31-1.95-.87-.19-1.55.85-2.13 1.15-.1.87.18.75-.32 1.45-.24.34-.56.66-.69 1.08.6 0 .83-.44 1.33-.85 1.14-.94.8-.14 1.65-.21z"/><path class="fil6" d="M18.49 25.48c.43.29 1.94 0 2.48-.05 1.09-.11 1.7.06 1.96-.95-1.22.25-1.96.79-1.72-.9-.7.11-2.36 1.46-2.73 1.9zM87.98 47.88c-.43-.4-2.07-.66-2.82-.86-1.44-.38-1.64-.68-2.09.9l4.91-.05z"/><path class="fil3" d="m32.13 6.71.57-.16c.31-.24.44-.3.41-.8-.54-.2-.89.07-1.27.29l-.19-.2c-.25-.18.15-.07-.37-.18-.27.38-1.81 2.34-1.96 2.93.23-.04.13 0 .31-.13l.92-.83c.25-.22.44-.31.68-.54.29-.28.25-.32.62-.6.28.08.15-.01.3.22z"/><path class="fil1" d="M23.73 5.27c-.73-.41-2.47-.21-3.4-.11.02.04 1.02 1.21 1.58 1.17.42-.03.59-.3.92-.44.66-.27.76.12.9-.62z"/><path d="M24.89 8.15c.06-.77.76-1.6 1.48-1.64-.01.82-.72 1.5-1.48 1.64zm1.74-2.43c-1.42.4-2.88 2.85-1.4 2.58.88-.16.99-.59 1.44-1.14.23-.28 1.08-1.75-.04-1.44z" style="fill:#18bef2"/><path class="fil8" d="M33.2 4.96c-.01.81.59 1.06 1.35 1.21.37-.25 1.04-.88 1.21-1.28l-2.56.07z"/><path d="M68.39 47.54c.79-.13 1.43-.7 2.09-1.04.75-.39 1.66-.6 1.35-1.7-.09.05-3.35 2.59-3.45 2.74z" style="fill:#f3f3f3"/><path class="fil8" d="M16.44 17.79c.1-1.01.16-.48.08-1.36l-.5-.01c-.06.11-.06.06-.07.38-.08 1.86-.77 1.18-1.21 2.78 1.19-.42 1.2-1.1 1.7-1.79zM46.35 22.99c.36-.46 1.54-1.8 1.65-2.14l-1.49.02c-.11.51-.3 1.81-.16 2.12zM92.91 32.94c.4.14.73.08 1.28.32.67.29.41.41 1.22.58-.17-2.28-2.32-1.08-2.5-.9z"/><path class="fil4" d="M32.13 6.71c-.4.47-.67.66-.78 1.35.75-.25.73-.62 1.37-.82.96-.31.69.12 1.24-.73-.62-.17-.79-.07-1.25.17l-.02-.13-.57.16z"/><path class="fil10" d="M24.54 24.51c.28-.23.79-.77 1.07-1.05.44-.44 1-.6.75-1.48-.79-.08-1.7 1.94-1.82 2.53z"/><path class="fil8" d="M59.85 22.3c.54-.05.69-.47 1.03-.74.41-.32.68-.25.8-.95-.7.01-.76-.03-1.16.32l-.61.48-.06.89z"/><path class="fil6" d="M56.47 22.3c.62-.09 1.74-.92 1.88-1.62-.9.02-.78.07-1.28.46-.57.45-.57.19-.6 1.16z"/><path d="m18 6.18 1.14-.86c.73.34.48.23.56-.05-.36-.21-1.57-.13-2.08-.11.01.36.15.72.38 1.03z" style="fill:#d7dce5"/><path class="fil10" d="M6.48 8.76c.21-.22.18-.26.32-.44.39-.49.75-.86 1.03-1.6-.82.11-1.46.97-1.35 2.03z"/><path d="M97.51 36.35c.33-.16.14.21.36-.34.09-.23.2-1.14-.49-1.38-.16.29-.19.23-.07.96.06.39.05.47.2.75z" style="fill:#4e4e4e"/><path d="M48.68 6.45c-.16.21-.08-.01-.19.31 0 0-.06.33-.06.36.78-.14 1.45-.67 1.69-1.29-.79-.01-.96 1.02-1.44.62z" style="fill:#4a4a4a"/><path class="fil10" d="M37.54 5.86c.38-.24.67-.6.84-1h-1.21c.03.2.05.33.11.51.19.53-.06-.09.08.2.17.35.07.12.18.28z"/><path class="fil14" d="M38.48 8.4c.83.24 1.38-.04 1.44-.94-.38.08-1.17.66-1.44.94zM39.74 6.14c.56-.37 1.04-.62 1.32-1.29-.74-.01-1.35.53-1.32 1.29zM30.63 20.45c.56.03 1.33.13 1.81-.12-.12-.48-.29-.35-.88-.28-.38.05-.89.05-.94.4zM30.31 21.98c.37-.13.3-.1.58-.3.5-.37.28-.15.47-.57-.72-.04-.98.18-1.04.87z"/><path d="M63.9 21.28c.64.43.82-.01.96-.48-.51.07-.79.04-.96.48z" style="fill:#5ccaf2"/><path class="fil14" d="M51.71 21.36c.57-.04.68.06.84-.49-.46-.28-.74.03-.84.49z"/><path d="M45.99 5.38c.49.06.58-.11.83-.55-.67-.02-.8-.14-.83.55z" style="fill:#f0f0f0"/><path class="fil14" d="M35.11 21.52c.49-.08.55-.1.77-.38-.42-.31-.79-.18-.77.38zM23.95 21.61c.61 0 .51.14.75-.33-.46-.27-.66-.04-.75.33zM27.38 24.12c.04.03-.18.28.36.12.34-.1.13-.06.23-.25-.25-.14-.55-.09-.59.14z"/></g></g></svg>