<svg xmlns="http://www.w3.org/2000/svg" xml:space="preserve" width="250.983" height="231.612" style="shape-rendering:geometricPrecision;text-rendering:geometricPrecision;image-rendering:optimizeQuality;fill-rule:evenodd;clip-rule:evenodd" viewBox="0 0 111.5 102.89"><defs><style>.fil4{fill:#093}.fil27{fill:#080b0a}.fil32{fill:#0a0d0d}.fil9{fill:#133207}.fil17{fill:#485543}.fil10{fill:#67915f}.fil20{fill:#81a980}.fil18{fill:#83aa82}.fil25{fill:#c0cdc8}.fil8{fill:#d09600}.fil35{fill:#dbb000}.fil5{fill:#f9f9d8}.fil23{fill:#faf9e2}.fil7{fill:#faf9ec}.fil26{fill:#fbfcfb}.fil3{fill:#fdfdf9}.fil11{fill:#fdfdfd}.fil16{fill:#fefecb}</style></defs><g id="Camada_x0020_1"><g id="_2076227046112"><path d="M.05 98.86c.6 1.38.86 2.44 2.4 1.95 1.45-.46 2.44-1.78 3.59-2.49.33.7.05.95.54 1.65.88 1.26 2.57.92 4.69 1.06 1.08.07 2.07.12 3.21.13.87.01 2.47.31 3.26-.34.12-.78-.33-1.65.17-2.29 1.02.54 3.78 4.56 7.77 1.78 1.5-1.05 1.93-2.62 1.85-3.86-.15-2.54-1.84-2.92-2.15-4.14.04 0 .13-.02.12 0 1.43.26.98.67 2.58.17.8-.25 2.09-.03 2.74.36.37 2.61-2.21 8.55.81 8.83.95.09 3.57-.63 4.79-.83 3.58-.59 1.39-1.89 2.43-3.47 1.18 2.48 2.47 3.75 5.56 3.57 1.14-.07 2.27-.68 3.02-1.75.99-1.4.45-2.26.81-3 .39-.79 1.93-.57 1.53 1.43-.14.72-.39 2.31-.3 3.07.28 2.28 4.82 2.05 5.76 1.33.59-.74-.16-4.36.51-4.97.36-.32.77-.26 1 .08.21.32-.02 1.53-.03 2.01-.02 2.89 1.74 2.86 4.7 2.38 1.18-.19.99.17 2.05.44l1.33-.99c1.6 1.03.81 1.3 2.9.89 7.4-1.42 3.29-.07 9.19-.68 2.89-.3 3.62.18 6.02.51 1.03.14 5.03.58 6.05.34.07-.1.13-.18.17-.25 2.72 2.26 7.76.76 8.48-1.7.56-1.92-1.65-4.22-1.61-5.11.72.13.85.42 1.54.67 1.04-.72 1.07-3.48.83-4.77-.56-3.02-3.61-7.43-7.58-5.93-2.48.94-1.54 2.97-2.73 3.99-.25-.92.07-2.02-.32-2.89-.46-1.02-1.72-2.11-2.27-3.19.36-1.21.96-.72 1.38-1.46l1.23-5.55c-.77-1.07-.96-.88-1.69-1.4 1.09-.83 2.09-.8 2.67-1.57-.61-2.46-4.53-2.47-6.38 0-1.92 2.55-.88-1.32-3.01 3.51-1.42 3.2.27.87-.55 4.46-.68 2.95.18 2.52-2.9 1.65-.66-.19-1.97-.1-2.29-.86-.14-.33-.08-4.21-.12-4.93-.08-1.75-.26-3.45.31-4.97l1.97-4.57c-.09-.72.55-3.64.87-4.39 1.17-.68 3.45-.4 4.6-1.18-.68-.98-.92-.4-1.64-.86.69-.47.59.41.99-.42.27-.55-.25-.73-.63-.91-1.06-.49-1.02-.4-1.59-1.61.73-.18.64.18 1.84.65 7.74 3.05 15.62-3.61 21.1-5.12 2.24-.62 6.13-1.13 7.5-.22.97-.12 1.38.68 2.35.07.48-1.99-2.98-5.71-4.58-7.2-2.1-1.94-4.13-3.22-6.37-4.57-2.19-1.33-4.28-2.6-6.48-3.84-8.06-4.54-5.56-4.02-5.94-7.75-.06-.57-.13-.47.03-1-.75-1.19-.36-2.96-.57-3.38-.62-1.22-.34.53-1.23-3.3-.28-1.19-.48-2.27-.69-3.45-.4-2.21.2-3.45-.92-2.97-.31.13-3.25 3.17-4.3 3.27-.97.09-2.12-2.39-3.38-1.46.3.68 1.08 1.34 1.43 2.11 0 0 .29 1.73-2.5.41-1.28-.61-2.31-.42-.79 1.13-.72.28-3.85-.67-7.2-.54-3.18.12-6.29 1.49-7.26.68-.83-.69-.09-.99-1.35-1.41-.54-.18-1.25-.24-1.68-.66-.46-.44-2.38-3.44-2.45-3.9-.15-1.04.41-2.03-.23-3.62-.43-1.05-.8-1.1-1.34-1.79-.44-.56-.16-1.1-.15-1.78.06-3.48-2.81-3.6-3.47-4.29-.05-.05-1.67-5.48-8.01-3.35-1.97.66-1.75 1.07-3.74 1.04-3.08-.05-9.07 2.81-11.18 5.41-2.45 3.01.54 5.58 1.07 7.36.16.53-.2 1.16-.37 1.71-.57 1.9-.27 3.31-.07 5.37.26 2.7-.97 4.16-2.19 6.84-2.44 5.34-3.34 8.08-4.81 13.63-1.53 5.78-1.05 9.6 2.35 14.65 2.61 3.87 2.75 3.54 5.24 6.21 1.38 1.48-1.33 1.18-2.14 4.46-.46 1.88.17 2.3 1.21 4.25-1.98 2.67-3.04 4.06-2.99 7.45.01.83.4 1.92.3 2.68-.62-.02-1.17-.33-1.87-.39-.54-.04-1.24.04-1.78-.05-.26-.8-.02-5.87.01-7.05.02-1.13.36-2.59-.9-3.62-.93-.76-2.48-1.02-3.32-1.17-1.89-.34-1.65.26-2.29 2.03l-3.02 8.4c-.4 1.02-.59.59-1.49 1.15-.38.44-1.24 5.99-1.83 7.1-.81-1.37-.46-2.61-2.95-5.34-1.59-1.74-2.64-2.05-4.31-2.69-1.27.88-.78 2.06-.89 4.75-.28 6.77.91 3.16.61 7.26-.09 1.25-.4 6.41-.61 6.89zm50.96-78.21c.36.29 2.21.75 2.72.81.82.1 2.21-1.15 2.88-1.87l-1.92-3.01c-.97.81-1.55 1.28-2.58 1.98-.97.66-1.07 1.32-1.1 2.09zm1.37 5.93c.38-.62 1.14-3.31 1.11-4.02-.68-.59-3.6-1.56-3.79.19 0 .04-.43.32.75.59 2.48.57 1.42 1.85 1.93 3.25zm-5.95 3.99c.71 1.87 1.15 2.2 1.89 3.53.57 1.03.69 2.08 2 2.41.37.1.74.08 1.11-.03.5.01.87-.11 1.13-.3.23.16-.02 1.08-.11 1.64-.22 1.41.08 1.03-.58 2.6-1.61-.04-3.57-.11-3.61 1.99 0 .21.02.42.09.63-1.99-.51-3.61 1.09-3.76 2.02-.47 2.8 3.79 2.98 2.85 5.67l-7.32-2.14c-1.22-.41-2.42-.92-3.55-1.84-1.43-1.16-1.4-2.31-1.37-3.81.06-3.35.38-8.09 1.21-11.3.26-.99.58-3.04 1.31-3.67.73.2 1.42.63 2.13.72.95.12 1.41-.24 2.35-.29.86 1.18.65 2.22 2.37 2.32.63.04 1.28-.13 1.86-.16z" style="fill:#070a09"/><path d="M58.59 60.62c-.57-.8.18-.8-.95-1.17-2.54-.83-2.76-.38-4.57-.67-2.33-.38-4.03-2.27-4.78-5.03-.51-1.87-.16-1.8-1.89-2.34-2.86-.88-6.7-1.68-9.01-2.88-.49.97.25.4-.42 1.01-1.3-.93-.2-.69-1.69-.58-1.58-1.99-.92-12.36-.19-15.34.22-.92 1.15-4.4 1.01-5.04-.8-.41-2.57-.1-4.27-1.32-2.11-1.52-1.74-3-2.66-4.7-.83.9-.6 1.53-1 2.5l-3.28 7.04c-2 4.59-2.78 7.72-3.65 12.13-.17.89-.23 1.45-.32 2.46-.36 3.89 1.6 7.43 3.89 10.64 1.41 1.97 2.91 3.25 4.43 4.91 1.68-1.34 2.93-4.2 7.3-4.16.73.01 3.32.48 3.67.31.88-.43 1.86-2.74 3.18-3.08 1.23 1.47-2.82 2.58-2.04 3.69.24.35 1.41.86 2.34 1.59 1.04.82 1.74 1.62 2.74 2.55 1.41-.86 1.51-2.12 3.71-2.42 2.85-.39 5.09 1.2 4.53 4.87-.13.85-1.14 3.07-1.04 3.69.65.33 2.77.25 3.01 1.98.05.38-.23 1.31-.32 1.76-.14.73-.36 1.12.18 1.88.5-.69.66-1.86.9-2.68.05-.17.33-1.24.44-1.39.52-.75.64-.19 1.45-.69.33-1.18-.55-2.68.67-3.92.74 1.04-.02 1.01.4 2.06.75-.91-.06-.86.83-1.43 1.39.86-.25 2.05-.57 3.29.49.52 2.07.66 3.12 1.42 1.54 1.12 1.57 1.83 2.61 3.25.88-.92 1.07-4.43 2.1-5.25.93-.38 4.38 1.45 4.66 1.52.9-.88 5.57-10.56.39-13.83-1.73-1.09-4.86-1.12-7.16-.25-2.61.99-5.17 3.78-7.76 3.62zm26.63-31.17c-.55-1.09-.95-4.69-2.54-5.59-.16.75.35 1.36.1 2.1-1.22.03-3.65-3.9-5.44-3.97.41 1.11.89.71.92 3.35.01.99-.25.72-.69 1.45-.46.75.23.81.47 1.74-1.05.61-1.15-.58-4.06-.91-1.1-.12-2.25.04-3.33.58l-.75.54c-.25.3-.12.09-.19.36.1.36 3.19 2.88 3.89 3.54.73.7 1.41 1.56 2.08 2.22 1.14 1.11 1.59-.28 2.22.86-.32.56-.48.32-1.06.78l.13 1.31c-1.22-1.28-2.13-2.45-3.52-1.7-.12 1.07.52 3.95.72 5.24.17 1.08.23 1.55-.36 2.46-2.28 3.51-1.05 3.28-3.69 7.23-1.52 2.28-3.78 3.94-4.01 4.65 1.07.39 8.5-2.17 10.4 4.18.2.67.1 1.11.44 1.74l1.63-.27c-1.24-1.17-1.19-1.02-.08-2.11-.43-.93-.58-2.09-.93-2.66-.85-.14-1.09.26-1.56-.6.37-.43 1.92-.64 2.76-1.02 1.2-.54 2.18-1.4 3.06-2.26.81-.8 1.82-1.69 2.5-2.51.7-.84 1.06-1.99 2-2.58.57.07 1.22.26 1.87.14-.61-.69-2.36-.88-2.29-2.61.04-1.08 1.15-2.38 2.61-2.7 3.87-.86 10.34 1.42 13.87 3.2 4.41 2.21 5.3 3.75 6.07 4.22.04.02.08.05.11.06l.35.1c-.18-1.41-4.92-5.32-6.15-6.15-2.22-1.5-4.55-2.71-6.81-4.05-2.25-1.33-4.44-2.7-6.68-4.16-2.28-1.49-3.33-2.54-3.04-5.06.13-1.19-.14-.97-1.01-1.14zm-10.47-6.82c.58.49 1.22.66 1.83.51-.55-.58-1.25-.76-1.83-.51zm4.38-1.88-.52.55c.44.64 1.93 1.86 2.6 1.72-.21-.59-1.07-1.66-1.68-2.07-.38-.26-.23-.13-.39-.21zm-9.81 10.07c.2 1.22 3.19 3.65 4.07 4.05.6.27.16.19.69.13-.1-1.19-3.33-3.71-4.05-4.06-.64-.31-.13-.23-.71-.12zM64.1 23.7c.47.56.98.37 1.69.29.69-.08 1.27-.15 1.95-.23.65-.08 3.63-.28 3.7-.77.13-.85-1.97-.29-3.46-.11-.97.12-3.1.19-3.89.83zm21.55 3.47c1.11-.98.33-2.33-.19-4.94-.21-1.05-.71-4.2-1.21-5-3.43 3.17-3.85 1.52-1.7 4.42.61.83 1.44 1.82 1.91 2.71.5.94.67 1.84 1.18 2.81zm-17.86-2.33c2.11 2.63 1.67 2.62 3.05 2.19 1.1-.34 2.3-.49 3.4-.37.76.08 1.37.39 2.13.06.87-.38 2.6-3.1-3.91-2.62-.9.07-3.86.38-4.68.75z" style="fill:#6c9a78"/><path d="M92.51 46.99c-.35.91-1.58 1.49-2.67 1.71-1.18.24-2.29-.16-3.04.13-.14.7.17 1 .08 1.72-.13.95-.66.88-1.25 1.62-.59.74-.47 2.63-1.86 2.85-.53-.86.39-1.75.03-2.94-.82.62-1.38 1.45-2.33 2.2-.8.64-2.16 1.28-2.71 1.87.54 1.06 2.64 1.69 3.34 1.89 3.69 1.01 8.06-.49 11.57-2.2 3.88-1.9 7.71-3.77 11.85-4.12.76-.06 1.29-.11 1.92-.04.56.06 1.31.37 1.85.07-3.91-4.03-9.79-6.63-13.97-7.8-8.04-2.26-10.78 1.33-6.65 2.96 2.29.9 2.85-.53 3.83.09z" style="fill:#ff9d93"/><path class="fil3" d="M47.32 64.11c1 1.43 2.37 1.16 3.41 1.49.09.62-.05.32-.12.93-.06.53.06.59-.02 1.1-3.25-.01-6.95-9.81-15.27-8.53-1.73.27-4.63 1.81-4.97 3.7.61.41 1.21.06 2.52-.03.94-.06 1.67.02 2.63.01.94 0 5.21-.84 4.41 1.11-.89.2-.5-.2-1.82-.5 0 .65.31.32.41 1.12-.98.5-.88-.45-3.73-.85-5.44-.76-9.98 3.28-6.52 6.97 1.85-.39.62-.86 5.08-1.31.99-.1 4.01-2.34 4.93-1.05-.67 1.03-1.13.35-2.23.88.68.71 2.22 1.06 1.1 1.47-.5.18-.15-.17-.91.09l1.63 1.75c1.05-1.04.65-3.18 2.08-3.99 1.05.15 3.57 1.43 4.52 2.42 1.67-1.17.18-.89 4.15-.63 1.87.12 1.57.17 1.9-.64.51-1.26.97-.59 1.99-.54.41-.54 2.09-4.77.8-6.44-1.25-1.62-4.64-1.63-5.98 1.46z"/><path class="fil4" d="M31.53 99.81c.74.23 1.67-.08 2.67-.22s1.97-.04 2.77-.88c.18-.57.28-2.25-.11-2.84-.81-.12-1.79.36-1.9-.7.36-.67 1.26-.99 1.7-2-.65-.94-.68-.43-1.37-1.14-.09-.65-.09-.91.46-1.44 1.11-.11 1.08.59 2.12.34.22-.14.59-2.6.78-3.46.85-3.87.17-3.77-3.92-4.3-2.01-.26-2.13-.05-2.74 1.99-.95 3.19.23 4.26.18 5.41-.06 1.47-.43.71-.39 5.56.02 2.34-.83 2.48-.27 3.67z"/><path class="fil3" d="M33.73 23.12c-1.45 1.41-2.05-2.25-2.13-2.82-.24-1.64-1.45-3.1-2.52-4.53-.79 1.01-1.01 4.46.01 5.74 1.12-.76-.3-.91 1.22-1.69.78 1.21-1.23 6.4 4.01 7.53 6.11 1.31 3.98-3.58 4.03-5.19.06-1.8.73-3.12.5-4.24-.49-2.36-5.5-4.68-6.21.64-.11.83-.24 1.22-.12 2.13.19 1.45.74 1.31 1.21 2.45zM52.39 9.1c1.65-4.74-7.31-6.71-10.94-1.56-.66.94-.93 2.33.44 3.37 1.02.77 2.47-.84 3.55-1.33 3.51-1.6 6.02-.22 6.95-.49zm-4.26-6.61c-4.41-3.97-10.32.78-9.38 3.58.15.45.73 1.26 1.17 1.33 1.01.16 2.47-3.79 7.25-3.73.96.01 2.6.3.96-1.18zm3.37 13.22c.08 1.06-1.28.83-.12 2.23 2.69-1.08 4.09-4.27 2.44-6.45-2.37-3.14-8.94-1.57-10.43.53-1.08 1.53.94 3.83 4.54 4.13 2.01.16 2.62-.85 3.56-.44z"/><path class="fil4" d="M60.82 95.87c1.03.71.68 2.71 2.07 3.77 2.99-.76.41-3.11-.15-4.99-.63-2.12.95-1.59 1.66-5.01.6-2.88-1.73-6.2-4.54-6.55-1.39-.17-1.82-.04-1.88 1.41-.07 1.72-.25 3.31.08 5.27.73 4.25-.25 5.25-.08 6.56.06.48.16.86.15 1.34-.02.74-.57 2.17.74 2.5 1.31.33 1.3-1.25 1.3-1.96 0-.45-.01-.82-.03-1.32-.01-.5-.09-.95.7-1.01zm19.67 3.89c.65.38 2.29.4 2.54.18.51-.82.22-3.53 1.16-3.75 0 0 .47-.32.66.77.07.4-.06 2.66.3 3.1.5.36 1.59.65 2.07.22.6-.53-.13-5.21-.21-6.56-.18-2.79-.03-7.56-1.8-8.94-2.71-2.12-2.53 1.46-3.06 4.04l-1.16 6.52c-.17.88-.94 3.47-.5 4.42zm3.39-6.32.57-3.74.12 4.31c-.23-.19-.46-.38-.69-.58zm-22.89-5.87.06 2.59c.19-.08.38-.15.53-.39.14-.24.24-.64.13-1.03-.11-.39-.41-.78-.72-1.16z"/><path class="fil5" d="M12.69 90.19c.1.7.06.7-.66.96-.51-.71-.28-1.88.22-2.47.27.52.36.96.44 1.51zm-1.24 5.23c.02-.13-.27-.19.36-.57.46-.27.09-.11.5-.07.18.02.73.22 1.05.28.71.14 1.4.11 2.1.24.36-.36.22-.11.42-.5-.51-1.38-.98-10.55-1.32-11.42-.36-.91-1.09-.85-1.71-.93-2.35-.31-2.16-.81-3.23 3.45l-1.19 5.32c-.21 1.02-.96 5.01-.67 5.59.9.27.78-.19 1.52-.08.53.08.65.43 1.46.54.7-.71.11-1.06.72-1.86z"/><path class="fil4" d="M71.39 96.72c-1.05-.67-1.29 0-2.1-.73.37-1.09 1.77-1.25 1.46-1.98l-.12-.28c-.35-.56-1.16-.69-1.14-1.41.45-1.7 1.95-.51 2.81-.7.31-.48.7-3.54.79-4.28.3-2.48.46-2.64-2.09-2.83-2.6-.19-3.49-.75-4.09.71-2.12 5.21 1.19 5.16-.67 10.9-.29.91-.31 1.28-.33 2.22-.03 1.92.36 1.84 3.15 1.55 1.86-.2 3.13-1.41 2.32-3.18z"/><path class="fil5" d="M26.65 73.7c-.94 1.31-1.38 3.21-1.47 4.59-.13 2.02.54 3.25 1.68 5.27.71-.22 2.15-.29 3.09-.47 1.58-.3 2.08-.82 2.65-.93.47-.09-.04-.1.43.01.91-.3 2.5.43 3.33-.41-.31-.92-1.02-1.34-1.75-1.69-.98-.46-1.13-.7-2.12-.41-2.15.63-2.8-1.12-2.56-2.81.22-1.58 1.7-3.33 3.37-2.56 1.04.49.75 1.15 2.02.98.76-.11 1.71-.19 2.29-.64-.02-1.01-.61-1.58-1.16-2.6l-.61-.37c-1.07 1.07-2.22.74-4.54.89-2.73.17-3.26-.18-4.64 1.15z"/><path class="fil4" d="M48.73 88.1c.85.07 1.55-.14 2.37.13 1.02 1.38.22 5.2.14 6.5-.15 2.23-.5 1.64-.62 3.13-.12 1.48-.87 2.68.63 2.89 3.07.44 2.51-1.37 2.65-4.56.04-.96.1-6.08.53-6.52 1.02-.59 1.88.04 2.45-.79.16-.24.41-2.08.43-2.35.28-2.76-.96-2.18-3.1-2.43-1.06-.12-3.78-1.05-4.67-.63-1.39.64-1.43 3.71-.8 4.62zM73.51 99.93c.55.13 4.39-.23 5.2-.63.95-.47.59-1.56.7-2.4.09-.67.4-1.87.26-2.57-1.23-.87-3.17.6-2.81-1.87.16-1.14 1.16-7.3.99-7.97-.33-1.27-3.1-2.1-3.7-.94-.16.31-.16 4.53-.34 7.66-.1 1.74-.44 5.47-.7 7.1-.1.63-.12 1.03.4 1.64z"/><path class="fil5" d="M18.4 84.63c-.72 1.22-1.11 3.95-.74 5.45.7 2.78 3.51 3.26 4.7 4.53 1.37.08 2.3 2.14 3.49.34-.84-2.95-3.01-2.23-4.83-4.84-1.3-1.86.79-2.64 1.35-2.57 1.7.19 1.17 1.97 1.42 2.81.55.34 2.16.8 2.73.7.58-1.17.73-3.87.05-5.46-.97-1.49-2.67-.65-4.06-.54-.86.07-1.43.04-2.14-.08-.63-.11-1.29-.45-1.96-.34z"/><path d="M69.44 78.22c-.53-.84-.36-1.37.19-2.13.42.9.49 1.53-.19 2.13zm-4.32 3.37c.35.32 1.35.67 1.78.76 1.36.28 1.14-.61 1.73-1.07.92-.72.91.67 1.53.83.34.09.54-.09.96-.1.82-.02.29.23 1.07.19.49-.66.19-4.4.17-5.26l-.15-5.41c-.31-.16-2.95-1.08-3.51-.56-.31.29-1.14 3-1.33 3.55-.47 1.33-2.24 6.13-2.26 7.06z" style="fill:#fcfce4"/><path class="fil5" d="M3.4 92.96c-.32-.55-.21-.2-.14-.85.07-.69.12-1.95.41-2.43 1.74.15 1.45 2.86-.26 3.27zm-2.14 1.31c.67.5 1.47.3 2.23.38 1.28.14 1.24.93 2.38.17 1.02-1.39 1.17-5.06.75-7.11-.6-2.91-3.38-6.25-5.3-5.97-.41.71-.8 5.23-.42 6.3.29.84.69.77.71 1.66.03.96-.43 3.34-.35 4.55z"/><path class="fil7" d="M55.05 82.66c.49-.56 1.21-2.71 1.04-3.33-.95-.29-2.1.53-3.02.15-.11-.75 1.4-5.89 1.69-7.19.43-1.94-.8-2.26-2.31-2.09-1.86.21-1.83 2.09-2.02 3.11-.44 2.41-.99 4.8-1.44 7.2-.3 1.62-.3 1.6 2.35 1.89.85.09 2.9.54 3.71.24zM61.36 74.71c.66.77.23 2.17-.42 2.76-.45-.88-.31-2.15.42-2.76zm-3.29-1.97-.71 3.17c-.11.93.11.52.44 1.26.39.88-.46 3.5-.1 4.71 1.12 1.54 7.18-2.25 7.23-6.52.01-.94-.51-2.66-1.57-3.15-2.26 1.4-3.31.46-4.68.39-.4-.02-.18-.11-.6.13z"/><path class="fil8" d="M47.75 17.08c.01.29-.01.21.07.48.07.23.11.27.22.51.58 1.26.54 1.42-.19 2.48-3.41 4.97-8.91 3.4-8.72 7.02 1.2.94 3.55-.57 4.49-1.12l.86-.34c.55.96-.29.71-.61 1.7 1.16 1.38 2.41-.62 3.13.51-.56 1.12-1.77.71-2.58 1.17.81.81 3.41-.19 4.47-.99.7-.54 1.3-1.25 1.71-1.92.53-.86.99-1.28.3-2.12-.74.59-.31.84-.92 1.69-.17.23-.53.61-.78.76-.69.41-.56.34-.98-.02.06-.89 1.3-1.12 1.16-2.15-.18-1.36-1.4-.64-2.01-.96.08-.73.3-.63 1.21-1.56 1.26-1.3 2.68-3.47 1.15-5.23l-1.98.1z"/><path class="fil5" d="M16.69 76.52c.42.63.35 1.39-.36 1.77-.43-.54-.42-1.43.36-1.77zm-2.42-1.96-2.16 6.08c.54.59 1.12.55 1.85.74 1.11.29 1 .11 2.03-.14.39.91.03.96.04 1.91.01.65.09 1.3.38 1.92.6-.48 1.98-2.03 2.53-2.71.69-.87.27-6.83.45-9.04-.57-.23-.04-.27-1.43.28-1.81.71-2.85-.11-3.69.97zM38.52 81.07c.46.86 1.03.96 1.77.9.22-.02.18-.04.37-.04.28 0 .22.01.43.04.72-.55.88-.04 1.59-.71-.69-1.79-1.25-2.55-.63-5.24 1.15-5.01 2.3-5.25-.3-5.42-.65-.04-.92-.25-1.59-.17-1.15.95-1.83 4.14-1.93 5.15-.13 1.4-.16 3.79.29 5.49zM80.1 80.07c.54.95 2.19 1.03 3.05.56.05-.52-.03-.48.54-.95.48.24 1.03.55 1.6.54.57-.59 1.31-4.3 1.23-4.5-.33-.85-5.05-1.23-5.06-1.23-.5.44-1.09 1.83-1.42 2.65-.3.74-.14.67.04 1.43.18.73.07.88.01 1.5z"/><path class="fil7" d="M45.91 73.34c-.13.34-.23 3.19-.35 3.92-.2 1.32-.98 2.88-1.08 4 .41.56 1.75 1.22 2.47 1.15 1.38-.99 2.54-8.32 2.34-9.43-.84-.6-.91.13-1.83.13-.6 0-1.06-.52-1.56.22z"/><path class="fil8" d="M31.71 17.69c1.93-2.14-3.8-4.51-.45-7.38C34.37 7.65 39 6.78 37.44 4.8c-.78.29-3.1 2.23-4.26 2.85-1.74.94-6.29 1.77-4.39 5.74.37.78 2.28 3.5 2.92 4.3z"/><path class="fil9" d="M36.2 11.11c.53-.61.36-.54 1.1-.86l-.13-.36c-.53.38-.86.49-1.28.56-.1-.5-.02-.86.41-1.18.52-.39.77-.16 1.18.21 0-.02.44-.31-.39-.65-.55-.23-.85.4-2.55.91-1.07.32-2.85 1.2-3.41 2.23-.22 1.01.99 2.4 1.78 3.12.51-.1 1.32-.39 1.98-.52.72-.14 1.47.03 2.04-.43-.24-1.14-1.44-2.45-1.32-3.02l.56-.01z"/><path class="fil10" d="M22.36 94.6c.83.99 1.03 2.34-.17 2.97-1.07-.7-.99-1.7-1.89-2.52-.65-.6-1.79-1.12-2.51-.9-.26.69-.21 2.23.53 3.15.57.7 2.24.99 3.04 1.03.51.03 1.02-.18 1.57-.17.73.01.9.41 1.73-.04 1.46-.8 1.47-2.09 1.19-3.17-1.19 1.8-2.12-.26-3.49-.34z"/><path class="fil8" d="M28.21 7.7c.99 1.03 3.3-.33 4.39-.88 1.36-.69 3.85-2.16 3.89-3.52-1.6-1.17-7.41 2.57-8.27 4.39z"/><path class="fil11" d="M51.79 50.71c-.04-.93-.89-2.2-1.59-3.04-.79-.96-1.64-1.42-2.34-2.14 1.22-1.63 2.55.98 2.93 1.26.68-.29.83-.67.99-1.12-.52-.44-.09-.16-.8-.2-1.27-.07-.73-.86-2.53-1.48-1.16-.4-3.13.09-2.86 1.68.29 1.7 1.86 1.04 4.55 3.69.83.82 1 1.15 1.64 1.33zm3.25-22.06c.84-.86-.09-1.06.91-1.96.74 1.24-.07 1.53.83 2.54 1.52 1.71 6.13 2 6.94 1.62-.31-1.18-1.44-1.85-2.01-2.85.91-.98 1.5.2 2.76 1.82 1.12 1.44 5.88 8.57 4.9 10.39-.98-1.24-1.16-1.95-1.84-3.13-.32.42-2.02 5.83-4.79 9.96-6.1 9.09-7.19 5.01-9.32 5.79.68 2.21 4.98 1.7 6.9.1.65-.54 1.33-1.84 2.1-1.82.25.48.15.66-.75 1.75-1.59 1.9-3.81 2.39-6.15 2.36-2.89-.04-3.11-1.96-5.29-4.34-.51-.56-1.1-1.56-1.91-1.67.92 4.72 1.84 11.48 9.78 7.68 1.01-.48 1.64-.84 2.6-1.46 1.38-.9 2.08-1.9 2.89-1.87.18.69.24.47-1.07 1.61-.58.5-1.15.94-1.8 1.34-.77.47-3.34 1.57-3.49 1.77 2.74 1.96 13.23-5.48 14.74-14.04.13-.74.41-1.55.48-2.32.05-.61-.15-.76-.16-1.22-.01-1.41.92.58.3-3.54-.17-1.15.05-1.57-1-2.37-1.65-1.26-2.93-2.35-3.28-4.49-.2-1.27-.56-1.17-1.65-1.8-.91-.52-1.97-.91-2.09-1.54.73-.54.74-.28 2.12.49.64.36 1.39.91 1.98.84.11-1.11-1.38-2.51-2.27-2.94-1.32-.65-1.85-.34-3.32-.25-1.35.09-.79-.35-3.35-.01-.71.1-.92-.1-1.52-.88-1.49-1.95.47-2.29.88-3.08.3-.57-2.08-1.85-4.25 1.3-1.11 1.6-2.1 4.95.17 6.21z"/><path class="fil9" d="M43.46 22.78c-.3-.8-2.35-3.83-3.13-4.35-.95.41-.79 1.43-.91 2.2-.31 2.11-.87 4.43 1.47 3.46.89-.37 1.98-.61 2.57-1.31z"/><path d="M41.33 14.81c.69.38 1.2 1.02.71 1.78l.55-.05-.53.8c.46-.39.35-.41.89-.5 1.19 1.27-.68.95.03 2.27.63-.07.05-.13.74-.39l2.21 2.31c.46-.46 1.4-1.13 1.43-1.84.02-.71-.69-1.8-1.3-2.26-.7-.53-1.3-.58-1.94-.71-1.15-.23-.83-.81-1.89-1.7l-.88.3z" style="fill:#143407"/><path class="fil10" d="M18.4 84.63c.67-.11 1.33.23 1.96.34.71.12 1.28.15 2.14.08 1.39-.12 3.09-.96 4.06.54.07-1.25-1.75-2.9-3.8-3.12-1.83-.2-3.91.28-4.37 2.17z"/><path d="M54.86 47.53c-2.5.45-2.63 2.96-.48 4.18 1.39.79 3.63.19 4.65-1.6-.66-.53-1.32.12-2.35-.28-1.39-.54-1.05-1.32-1.82-2.31z" style="fill:#fb0000"/><path d="m38.07 10.82.34.44-.16.21c.54.18.14-.24.55.31.18.23.13.43.13.63-.5.58-1.07.53-1.59-.14l-.24-.28c-.02.16-.04.15-.03.39.06.86.41.77.66.96.86.64.32.74.71 1.5.34.66.75.52 1.13 1.28.32.64.16.91.8 1.85.58-.63.29-.37.31-1.06.7-.14.59.13 1.34-.31.49-.76-.01-1.4-.71-1.78l-.36.26c.13-.69.25-.83-.31-1.54-.45-.58-.74-.63-1.24-.96.05-.28.58-1.18-.97-1.67-.23-.07-.17-.06-.39-.09z" style="fill:#7fa06f"/><path class="fil3" d="M78.57 93.27c.57.12 1.35-.03 1.95-.4.2-.24.6-3.2.81-4.18.13-.63.31-.85.01-1.46-2.38.04-2.13.15-2.41 2.18-.07.53-.53 3.35-.36 3.87z"/><path d="M55.95 32.77c.92.81 1.36 1.93.39 2.58-.64-.66-.16-.41-.56-1.12-.69.38-1.13 1.08-.37 1.53.71.42 1.05-.1 1.37 1.1-.95.29-1.35-.96-2.43-.1.27 1.09.99.56 1.51 1.01.71.63-.29 1.18-.83 1.47-1.19-1.07-.52-1.85-1.3-2.19-.35.55-.17.89-.05 1.56l.33-.1c.49.55.27.6.12 1.31l.55-.43c.27.05.06.05.4.35.25-.42.65-.76 1.13-.94.69-.27.44.21.98-.33.43-.43.81-1.65.88-2.12.28-1.84-.08-2.7-1.73-3.43l-.37-.12z" style="fill:#475847"/><path class="fil16" d="M28.35 86.22c-.13.5.2 1.71.24 2.38.05.8-.16 1.91.08 2.5.02.03 3.6 1.75 2.21-1.94-.51-1.34-.06-.91-.14-2.09-.34-.28-2-.85-2.39-.85z"/><path class="fil17" d="M26.65 73.7c1.38-1.33 1.91-.98 4.64-1.15 2.32-.15 3.47.18 4.54-.89l.61.37c-1.48-2.09-8.89-1.08-9.8 1.68z"/><path class="fil18" d="M1.26 94.27c-.11.69.05 2.49.32 3.02.19-.02.85-.22 1.07-.19.46.06.42.27.87.47 1.12-.56 2.14-1.49 2.35-2.74-1.14.75-1.1-.04-2.38-.17-.76-.08-1.57.11-2.23-.38z"/><path d="M44.15 21.71c-.99-1.08.24-1.92 1.02-.7-.29.72-.27.7-1.02.7zm-2.09-4.37c-.47.53-1.44.55-.72 1.48.59.76 1.18.99 1.72 2.09.28.58.38 1.51 1.2 1.52.87.01 1.34-.88 1.67-1.41l-2.21-2.31c-.68.26-.1.33-.74.39-.71-1.31 1.16-1-.03-2.27-.54.09-.43.11-.89.5z" style="fill:#82a77d"/><path class="fil3" d="M43.24 80.68c1.7-.82 2.76-7.04 1.36-8.4-.45.62-1.54 7.88-1.36 8.4z"/><path class="fil10" d="m11.45 95.41.57-.53c1.01 1.23.26 1.74.87 2.73l2.6.18c.53-.73.46-2.1.39-2.99-.2.39-.05.14-.42.5-.7-.14-1.39-.1-2.1-.24-.32-.06-.87-.26-1.05-.28-.41-.04-.04-.21-.5.07-.63.38-.34.44-.36.57zM14.27 74.56c.85-1.07 1.88-.25 3.69-.97 1.39-.55.87-.51 1.43-.28l-.26-.97c-.63-.92-3.04-1.11-4.09.48l-.75 1.6c-.01.03-.02.09-.03.13z"/><path class="fil20" d="M48.51 92.92c-1 .23-.69-.3-1.47-.01.28 1.13 1.6 1.75 2.53 1.73.46-.19 1.14-3.94.64-4.72-1.7-.37-.51 1.82-1.71 3z"/><path class="fil17" d="M26.87 83.56c1.24.74 2.25 1.24 3.43 1.35 1.87.18.8-1.89 2.74-2.75-.47-.11.04-.1-.43-.01-.58.11-1.07.64-2.65.93-.93.18-2.37.25-3.09.47z"/><path d="M58.07 72.74c.42-.24.2-.15.6-.13 1.38.07 2.43 1.01 4.68-.39-1.04-.76-3.9-1.83-5.03-.38-.4.51-.26.8-.25.9z" style="fill:#c2cfca"/><path class="fil17" d="M59.37 43.55c-.71.62.27.44-.75 1.25-.28-.55-.21-.69.16-1.17l-.23-.29c-.71-.6-.3-.25-.26-.55-.36-.06.15-.39-.83.15.55.62.35 1.03.19 1.64l-.43.28c.71.86 1.53 1.09 2.31 1.17.49.05.66.07 1.18-.3.63-.44.94-.6 1.05-1.21-.49.51-1.22 1.17-2.04.17.68-.57-.03.23.73-.47-.33-.66-.53-.84-1.08-.67z"/><path class="fil18" d="M45.91 73.34c.49-.74.95-.21 1.56-.22.92-.01.99-.74 1.83-.13.3-.6.31-.73 0-1.53-.67-.31-2.61-.43-3.33-.23-.41.73-.3 1.26-.05 2.11z"/><path d="M83.16 80.63c-.87.47-2.52.39-3.05-.56-.3.68-.45 1.23-.01 2.09.94.39 2.79.36 4.05-.71l-.99-.82z" style="fill:#81a16e"/><path class="fil23" d="M31.65 78.28c.56-.1 1.57-.5 2.15-.72.98-.38 1.11-.98.09-1.61-1.31-.81-3.45.68-2.24 2.33z"/><path d="M55.86 47.71c.32.78.96 1.06 1.58 1.1.35.02.64 0 .86-.36.41-.65-.37-.29.52-.86.4.67-.03.55.36 1.46.53-.39.96-.81 1.22-1.27-.33-.64-.33-.55-.93-.63-.32-.04-.71-.11-1.18-.12-.76-.01-1.84.18-2.43.68z" style="fill:#f9f5e7"/><path class="fil20" d="M52.38 26.59c-.58.6-1.26.86-1.45 1.62.09.5 1.28 2.78 1.68 3.16 1.83-1.75-.39-3.12-.63-3.33.11-.66.37-.89.4-1.47l-.01.02z"/><path class="fil16" d="M34.05 78.65c.39.71 2.63 1.79 3.26 1.7.31-.55.28-2.02-.62-2.21-.63-.13-1.95-.27-2.64.52z"/><path class="fil20" d="M49.25 33.38c-.03.19-.09.33-.05.67.02.21.03.3.16.55.28.51.43.63.95.57-.54-1.11 1.35-.97 1.83-1.12-.02-.62-.2-.41-.14-1-.45-.8-.22-.88-1.27-.4-1.23.57-1.05.13-1.21 1.19l-.27-.47z"/><path class="fil25" d="m47.52 30.79 1.59 2.22c-.03-.35.22.23-.1-.46l-.79-1.18c1.13.92 1.32 1.18 1.82 1.04-.04-.03-.09-.06-.12-.08l-.48-.34c-.41-.43-.43-.16-.22-.61-.34-.34-.57-.5-.1-.85.55-.41.63-.03.89.31l-.82.49c.92.1.38.03.67-.06.12-.04.26-.16.4-.25l.29.77c.09-.34.04-1.58-.25-1.85-1.49-.76-1.59.28-2.77.86z"/><path class="fil26" d="M58.28 42.79c-.04.3-.45-.04.26.55l.82.21c.55-.17.75.01 1.08.67-.76.7-.05-.1-.73.47.82.99 1.55.34 2.04-.17-.65-1.93-2.02-1.68-3.47-1.73z"/><path class="fil27" d="M3.66 89.69c-.29.48-.34 1.74-.41 2.43-.06.64-.18.29.14.85 1.71-.41 2-3.12.26-3.27z"/><path class="fil20" d="M56.51 94.26c.59-.18.67-.82.67-1.4.01-.63-.04-1.21-.65-1.74-.85.73-.76 2.66-.02 3.14z"/><path d="M54.12 39.8c-.11.33-.42 1-.64 1.46-.26.52-.77 1.07-.52 1.68 1.18.24 1.23-2.51 2.11-3.23-.33-.3-.12-.29-.4-.35l-.55.43z" style="fill:#f9fafa"/><path d="m50.68 43.77.26-.41c.02.12-.32.09.32.04-.72-.38-.67-.22-1.04-1.07.64-.99 1.42-.31 1.77.67.25-1.22-.55-.05.48-1.56l.15-.27-.56.43c-.97-.46-2.02-.64-2.52.97.6.93 1.02.43 1.15 1.22z" style="fill:#779969"/><path class="fil25" d="M55.31 78.24c.55.1 1.35.15 1.8-.11l-1.31-2.1c-.43.54-.64 1.65-.5 2.2z"/><path d="M83.2 73.44c.52.35 1.06.05 1.68-.26.58-.28 1.26-.6 1.6-1.17-.24-.19-.07-.48-1.55.21-.75.35-1.15.62-1.73 1.22z" style="fill:#f5f4db"/><path d="M64.93 96.13c.45-.53.86-2.4.37-2.91-1.04.92-1.2 1.75-.37 2.91z" style="fill:#658a5c"/><path class="fil23" d="M16.9 90.99c-.14.61.08 1.63.33 2.13.2.08.37.16.57.2.64.12.29.12.73-.13-.16-.44-.42-.73-.69-1.14-.35-.54-.41-.85-.94-1.06z"/><path class="fil25" d="M37.3 10.26c-.74.31-.57.24-1.1.86.45.71.12.18.39.29l.77-.29-.26.87.24.28.91-.8.16-.21-.34-.44c-.54.03-.5.01-.77-.56z"/><path class="fil26" d="m57.21 44.85.43-.28c.17-.61.36-1.02-.19-1.64-.57.23-.48-.17-1.1.66.19.76.25.84.85 1.26zM51.26 43.39c.37.12.76.13.73-.41-.35-.98-1.14-1.66-1.77-.67.37.86.33.69 1.04 1.07zM56.82 32.78c.89-.55 1.09-1.48.21-2.17-.87.54-.93 1.6-.21 2.17z"/><path class="fil32" d="M60.94 77.47c.65-.59 1.08-1.99.42-2.76-.73.61-.86 1.88-.42 2.76z"/><path d="M50.31 35.17c1.04-.38 1.11-.99 1.8.03.02-.06.08-.17.04-.17s.03-.12.04-.16l.39-.79-.57-1.03c-.06.59.11.38.14 1-.48.14-2.37.01-1.83 1.12z" style="fill:#49634a"/><path class="fil32" d="M12.03 91.14c.72-.26.76-.25.66-.96-.08-.55-.16-.99-.44-1.51-.5.58-.73 1.75-.22 2.47z"/><path class="fil18" d="M38.52 81.07c-.11.69.2 2.84 2.57.9-.21-.03-.15-.04-.43-.04-.19 0-.15.02-.37.04-.74.06-1.3-.04-1.77-.9z"/><path class="fil27" d="m38.25 11.48-.91.8c.52.67 1.1.72 1.59.14 0-.2.04-.4-.13-.63-.41-.55-.01-.13-.55-.31z"/><path class="fil25" d="m37.17 9.9.32-.41c-.41-.38-.67-.6-1.18-.21-.43.32-.52.69-.41 1.18.43-.07.76-.18 1.28-.56z"/><path class="fil32" d="M44.15 21.71c.75 0 .73.02 1.02-.7-.78-1.22-2.01-.38-1.02.7z"/><path class="fil11" d="m49.18 31.32.03.06c-.21.45-.19.18.22.61l.48.34c.03.02.08.05.12.08.01 0 .2 0 .35-.15.27-.28.2-.22.15-.48l-.29-.77c-.15.09-.28.21-.4.25-.29.09.25.16-.67.06z"/><path d="M69.44 78.22c.68-.59.61-1.22.19-2.13-.55.76-.72 1.29-.19 2.13z" style="fill:#0e1111"/><path class="fil32" d="M16.33 78.29c.71-.38.79-1.14.36-1.77-.78.34-.8 1.23-.36 1.77z"/><path class="fil35" d="M27.65 8.79c-.71.21-.55 1.19-.29 1.76.29-.35.48-.57.58-.96.27-1-.29-.79-.29-.79zM37.26 2.98l.44.68c.58-.18.76-.6.95-.96-.58-.29-.88-.18-1.39.28z"/><path d="M50.36 44.39c.36.28.52.34.85.42.46.12.4.17.91-.16-.61-.61-.96-.59-1.76-.27z" style="fill:#f4f5f2"/><path d="M22.52 90.54c.49-.54.57-.92.1-1.52-.51.41-.46.89-.1 1.52z" style="fill:#e8ebe5"/><path class="fil32" d="m49.21 31.38-.03-.06.82-.49c-.26-.34-.34-.72-.89-.31-.47.35-.24.52.1.85z"/><path d="m58.55 43.34.23.29c-.37.48-.45.62-.16 1.17 1.02-.82.04-.64.75-1.25l-.82-.21z" style="fill:#b9bbb5"/><path d="M63.45 81.91c-.38.48-.52.67.27.93.21-.21.33-.15.28-.47-.11-.64-.54-.46-.55-.46z" style="fill:#42473d"/><path d="M36.28 76.71c.45.44.5.4 1.1.16-.47-.35-.58-.48-1.1-.16z" style="fill:#b3b4b4"/><path class="fil4" d="M47.72 86.61c.06-1.25-1.59-2.9-3.45-3.12-1.66-.2-3.55.28-3.96 2.17-.65 1.22-1.01 3.95-.67 5.45.64 2.78 3.19 3.26 4.26 4.53.75.99.93 2.34-.16 2.97-.97-.7-.9-1.7-1.71-2.52-.59-.6-1.63-1.12-2.28-.9-.24.69.07 2.23.74 3.15 1.28 1.75 3.81 1.83 5.5.81 1.32-.8 1.33-2.09 1.08-3.17-.76-2.95-2.73-2.23-4.38-4.84-1.18-1.86.72-2.64 1.22-2.57 1.54.19 1.06 1.97 1.29 2.81.5.34 1.96.8 2.47.7.53-1.17.66-3.87.04-5.46zM96.74 89.44c.06-1.19-1.5-2.75-3.26-2.96-1.57-.19-3.36.27-3.75 2.05-.61 1.15-.96 3.74-.63 5.15.6 2.63 3.02 3.09 4.04 4.29.71.94.88 2.22-.15 2.81-.92-.67-.85-1.61-1.62-2.39-.56-.57-1.54-1.06-2.16-.85-.22.65-.18 2.11.45 2.98 1.16 1.58 3.89 1.71 5.45.77 1.25-.76 1.26-1.98 1.02-3-.72-2.79-2.58-2.11-4.15-4.58-1.11-1.76.68-2.5 1.16-2.44 1.46.18 1 1.86 1.22 2.66.47.32 1.85.76 2.34.67.5-1.1.63-3.66.04-5.17z"/></g></g></svg>