<svg xmlns="http://www.w3.org/2000/svg" xml:space="preserve" width="240.203" height="247.407" style="shape-rendering:geometricPrecision;text-rendering:geometricPrecision;image-rendering:optimizeQuality;fill-rule:evenodd;clip-rule:evenodd" viewBox="0 0 102.26 105.33"><defs><style>.fil4{fill:#f1fd00}</style></defs><g id="Camada_x0020_1"><g id="_2076166039424"><path d="M24.64 23.25c.01 1.34-2.45 5.84-1.9 12.52.12 1.42.07 1.4-.7 2.39-.7.89-2.03 2.87-2.78 3.44-2.22-.45-2.93-3.52-4.56-4.78-6.2-4.78-10.57 2.3-5.46 5.34 2.29 1.36 3.56 2.17 4.92 4.49 1.23 2.09 1.31 4.88 1.19 7.45-.12 2.65.09 5.14-.3 7.87-.36 2.53-2.13 1.9-3.58 5.57-1.08 2.72-.8 4.75-.96 7.7-2.71.89-2.15.77-2.96 3.28L3.2 92.25c-.94 3.06-1.85 6.18-2.81 9.28-.56 1.81-.94 3.45 1.82 3.62 1.6.1 5.81.1 7.36-.07.57-1.23.93-3 1.33-4.4l4.56-.05c.14 1.84.07 2.85 1.61 3.78 1.71 1.04 3.42.75 5.73.92.65-.43 2.1-.43 2.81-.83.76-.43 1.36-1.45 1.96-1.68 1.72 2.24 3.59 2.77 7.5 2.29 4.53-.56 3.89-3.18 5.31-4.5l4.69-.02c.2 1.48-.01 4.67 4.61 4.65 2.13-.01 2.03-.9 4.16-.39 3.42.81 2.92-.86 3.14-1.47.87-.02 1.24.72 2.13 1.14 1.81.85 4.27.98 6.26.48 1.33-.33 1.57-.65 2.55-1.06.85.26.63.57 1.53.91.68.26 1.67.25 2.53.26 1.9.03 3.8-.02 5.69-.02l15.44-.02c.3-.36.22-.26.46-.71 1.15-2.19 1.16-4.55 1.59-6.69.44-2.19 3.68-11.29 4.65-14.13.41-1.2.78-2.28 1.19-3.44.36-1.03.77-2.63 1.28-3.55-1.02-.34-1.98-.97-3.37-1.11-1.74-.18-2.9.32-4.21.25l-.22-1.93-1.73-6.23c-1.18-3.73-3-8.42-4.77-11.93-.44-.87-2.84-5.18-2.81-5.55-1.18-.78-1.99-3.94-8.18-5.63-.07-.93.21-2.1.93-2.88-.31-2.09 2.12-4 3.16-5.16.67-.74 1.31-1.5 1.57-2.64.37-1.63-.37-2.08-.52-3.18-.95-.41-2.02-1.37-3.76-1.04-2.14.41-4.65 3.65-5.65 5.19-.8 1.23-.47.91-1.12 1.12-.53-.32-2.2-2.84-2.62-3.34-3.01-3.66-3.74-1.39-4.28-4.55l-1.27-6.88c-.39-.75-3.29-9.22-3.29-9.86-.71-.56-1.2-1.93-1.73-2.7-.65-.94-1.02-1.45-1.88-2.4-1.48-1.62-2.98-2.53-5.01-3.79-5.9-3.63-7.6-2.65-13.1.54-3.08 1.79-6.94 5.1-8.77 8.74-.68 1.35-4.43 11.16-4.98 11.64z" style="fill:#070909"/><path d="M52.34 20.78c2.02-.45 2.45 3.43.32 3.74-2.14.3-2.51-3.25-.32-3.74zM28.01 60.93c-.86-.35-2.19-.29-3.12-.49-1.97-.42-3.47-.88-5.22-1.78-.92-.47-1.29-.97-2.02-1.46-.05 1.19.72 1.68 1.79 2.14.99.42 1.93.82 2.94 1.22 1.19.48 5.64 2.9 5.64.37zm47.25-8.31c-.7.56-.96 3.46-6.95 4.86-.88.2-3.66.25-2.12 1.41 1.26.95 4.2-1.06 5.65-1.95 1.72-1.06 3.72-1.7 3.42-4.31zM28.8 51.16c4.63.45 8.75-8.77 5.26-10.01-.61.62-5.24 9.37-5.26 10.01zm35.62-3.93c-.02-.56-4.72-9.91-5.43-10.94-3.48.61 1.16 11.44 5.43 10.94zm-33.21-8.38c-2.55-.31-2.12 1.9-3.7 4.99-1.3 2.56-3.74 4.59-2.05 5.62 3.53 2.16 7.14-7.62 5.75-10.61zm35.88 6.64c1.4-2.51-1.56-3.92-3.42-9.37-.33-.96-.66-2.6-2.04-2.83-1.75 1.46.71 12.66 5.47 12.2zM24.32 57.34c.94 1.2.45 2.08 3.25 1.83 7.3-.66 6.33-8.52 12.52-12.4 1.58-.99 5.67-2.67 5.01-4.93-3.29-.98-8.08 3.69-9.07 5.1-1.48 2.11-4.43 6.98-7.86 6.34-1.11-.77-.47-1.17-2.17-1.54-1.51-.32-1.27-.63-1.89-1.86-.77-1.55-.92-.8-2.53-1.38-3.74-1.35 1.33-7.52 2.67-9.38.56-.78.92-1.52 2.47-1.42-.34.64-1.16.93-1.75 1.85-.47.74-.71 1.57-1.24 2.41-.85 1.34-2.63 3.35-1.98 5.11 2.83.68 5.4-4.75 6.05-6.69.18-.54.35-1.09.44-1.57.16-.83.29-1.32-.32-1.74-2.05-1.37-5.53 2.62-6.77 3.96-.43.47-1.26 1.61-1.91 1.92-2.95-1.43-4.23-5.38-7.82-5.98-2.45-.41-3.89 1.77-2.2 3.08.7.54 1.38.82 2.12 1.39 5.79 4.48 4.5 7.72 5.54 10.82.56 1.67 1.4 3.04 2.42 4.24 2.19 2.57 4.18.97 5.02.84zm45.42-14.63c1.81-1.41-.56-4.13-1.36-5.4-.5-.8-.85-1.71-1.35-2.63-.62-1.16-1.52-1.73-1.86-2.55 1.53.19 1.68.67 2.32 1.7.5.8.92 1.47 1.41 2.28.81 1.35 2.26 3.34 2.48 5.01.56 4.3-2.13 2.35-2.95 4.43-.57 1.43-.07 1.38-1.63 2.13-1.43.7-1.16 1.14-2.11 1.85-2.92.19-5.71-4.7-7.17-6.93-1.17-1.78-1.97-2.45-3.37-3.62-.62-.52-3.54-3.03-4.91-1.95-1.54 1.87 3.55 4.58 4.58 5.3 5.3 3.68 4.91 8.75 8.42 11.77 1.22 1.05 3.69 2.87 5.89 1.62.89-.51.46-.97.9-1.71.82 0 .91.42 1.73.77 1.85-.36 2.55-1.61 3.17-3.2.63-1.62 1.21-2.91 1.31-4.79.23-4.39.87-8.05 4.24-11.04.59-.53 1.24-.96 1.66-1.6 1.02-1.55-.35-3.57-2.77-2.88-1.97.56-2.57 1.62-3.27 3.22-.43.97-2.36 2.97-3.13 3.31-.83-.4-3.95-5.38-5.78-6.36-1.35-.73-2.81-.47-2.54 1.15.35 2.08.98 4.05 2.07 5.89.73 1.23 2.73 4.08 4.01 4.21zm-31.75-23c2.23-1.11 2.99 2.79 1.32 3.54-1.17.53-2.05-.37-2.25-1.14-.31-1.21.04-1.95.93-2.4zm16.15-1.16c-2.52-.01-2.96-.15-4.01 1.67-.17.31-.73 1.44-1 1.65-.71.56-1.28-.05-1.26-.68.1-2.81 6.03-5.05 6.26-2.64zm-17.43-.69c.59-1.51 2.03-1.54 4.04-.96 1.57.46 2.5 1.48 2.66 3.14-1.12-.34-1.81-1.56-2.69-2.14-1.85-1.22-2.35-.23-4.01-.05zm14.78 27.58.12-2.56c-.18-.99-2.06-2.7-2.73-3.1-.53-.32-1.06-.38-1.61-.66-1.71-.87-.93-.7-3.38-.87-2.38-.17-2.04.19-3.85.65.76-2.45 4.93-2.23 6.29-1.63.52.23.43.2.76.52.55.53.08.47.94.55.91-2.3-2.65-2.92-5.22-2.58-2.05.28-5.04 2.43-6.21 1.34-1.35-1.26-1.22-4.39-.77-6.23.23-.95.5-2 .63-3.08.1-.85-.13-2.83.22-3.41 1.14.12.99 1.31.85 2.6-.23 2.04-1.94 7.08-.4 8.7 1.06.07 2.05-.81 2.78-1.25 2.15-1.31.63-1.25 1.64-2.41 1.56-.13 1.73 1.66 3.12 1.87 1.57.24 3.72-2.91 4-.43.05.46 0 .75.09 1.24.5.34 2.7 1.17 3.54 1.21 1.12-1.24.79-3.56.69-5.21-.08-1.26-.87-4.57.9-4.83l-.07 8.68c-.12.88-.67 1.86.11 2.43 1.15-.35 2.35-3.73 2.71-4.93 1.15-3.86-.24-6.92-.16-10.12.1-4.14 1.44-.11-.47-5.87-1.62-4.88-4.69-.44-6.33-.3-1.38-.97.15-1.9 1.26-2.4 1.71-.76 2.46-.75 4.66-.77-.32-1.69-2-4.41-3.11-5.57-4.19-4.37-3.98-.89-5.93-1.9-1.03-.54-1.67-1.29-3.35-.54-1.18.52-2.13 1-2.98 1.68-.86.68-3.67 3.98-3.77 5.01 1.04-.21 1.08-.61 2.06-.67 1.11.81 1.27 1.23 2.52 2.02 1.08.69 2.5 1 1.39 2.18-1.76-.21-2.75-2.33-4.52-2.57-1.8.57-3.43 4.55-3.79 6.53-.28 1.56-.07 2.95-.44 4.54-1.56 6.66-2 4.57.78 12.12.67 1.8 1.98 7.33 2.44 7.86 1.8-.03 3.1-1.16 4.1-1.8 4.19-2.69 6.33-1.09 4.54 2.35-.66 1.26-1.51 1.58-1.96 2.33.54.24 6.27 1.23 7.92-.7z" style="fill:#f9f4e8"/><path d="M80.57 80.49c1.14-.95 1.11.46.88 1.16l-2.09 6.48c-.47.47-.92.34-1.13-.09-.25-.51 1.97-7.24 2.34-7.55zm9.9 16.29c.68.19 1.6.14 2.41.02.53-.91 2.95-8.26 3.5-9.85.54-1.58 3.46-9.04 3.12-10.05-1.48-.22-2.02-.14-3.55-.03-.59.94-5.64 19.11-5.47 19.91zm-8.97 6.36c4.67.62 4.03-.49 4.43-1.8l2.42-7.8c.55-1.76 1.08-3.5 1.61-5.22 1.04-3.33 2-4.45.08-4.53-3.19-.13-2.63-.25-3.8 3.47-.85 2.72-4.91 14.81-4.75 15.88zm-79.06.13c5.35 0 5.27.38 5.77-1.17.24-.73.63-1.4.55-2.21l-2.16-.13c0-1.1 2.33-8.43 2.87-9.18l2.26-.12c.31-.58 1.04-2.58.98-3.36l-1.93-.07c-.09-.24.89-6.41 2.26-6.72l1.88-.28c.54-.16.99-2.65.91-3.17l-6.24-.01c-.6 1.1-6.45 20.35-7.47 23.61-.19.6-.37 1.1-.55 1.69-.26.85-.4 1.12.87 1.12zm32.52-10.74c-.83-.27-1.37-.17-2.52-.17-1.83 0-1.54.47-1.95 1.75-.55 1.72-2.38 6.93-1.84 8.16.64 1.45 4.37 1.43 6.29.94 3.32-.85 4.08-5.69 5.05-8.94 1.17-3.94 1.56-4.31-1.9-7-1.5-1.17-.63-2.15.26-5.06.24-.79.41-2.39 1.53-1.74.19.15.38-.01-.01 1.21-.3.95-1.18 3.34-1.09 4.06.8.22 2.83.42 3.49.01.94-.51 1.69-4.2 1.97-5.26.24-.91.69-2.08.06-2.89-.84-1.07-6.49-1.13-7.57-.07-2.19 2.14-2.84 5.66-3.64 8.46-.66 2.29-.2 3.18 1.26 4.44 2.77 2.4 2.54.6.23 8.27-.13.42-.28 1.13-.97 1.15-1.05.02-.43-1 .1-2.67.3-.93 1.38-3.84 1.25-4.64zm17.96 9.56c.49.56.12.67.81 1.2 1.51.56 1.83-2.02 2.06-2.74.38-1.21.75-2.38 1.15-3.63l2.04-6.35c.45-2.13-4.38-.84-4.63-.57-.26.28-.96 5.31-1.56 7.22-.24.76-.65 3.01-1.83 2.5-.28-.26-.18-.02-.21-.47l5.28-17.19c.29-.95.27-2.01 1.61-1.71.34.54-.25 1.91-.48 2.67l-.49 2.69 3.59.1c.69-1.17 3.09-7.58 1.37-8.62-.73-.44-2.76-.58-3.84-.55-5.33.19-5.45 4.22-6.89 8.82-1.2 3.83-2.35 7.6-3.56 11.42-.45 1.44-1.74 4.57-.64 5.88.56.67 2.24.82 3.44.58 1.43-.28 1.9-1.02 2.79-1.26zM27.15 80.42c.52-.48 1.13-.23 1.24.33.06.29-5.62 18.64-6 18.93-1.46 1.15-1-1.07-.81-1.65l5.58-17.61zm-2.08-2.99c-2.1 1.26-3.9 9-4.63 11.4-.49 1.61-3.5 11.02-3.61 12.21-.17 1.94.99 2.29 3.23 2.42 4.65.27 5.72-1.47 6.73-4.5.92-2.76 6.07-18.44 6-20.34-.09-2.34-4.72-1.64-5.5-1.69-.55-.03-2.23.49-2.23.49zm49.82-.64-3.93.01c-2.4 7.05-4.57 14.91-6.89 22.15-.25.79-.31.88-1.45.79-.13-2.09 7.1-21.29 6.65-22.83-4.78-.58-3.85.14-5.78 6.32-.79 2.51-1.52 4.88-2.3 7.41-.64 2.08-3.19 9.36-2.99 11.22.16 1.53 2.06 1.56 3.84 1.6 4.04.09 5.14-1.61 6.03-4.26.96-2.9 6.73-20.85 6.82-22.4zm-5.29 26.33c.1.06 3.44.77 4.02-.77l2.73-8.86c.25-.85.23-1.21 1.47-1.01.41 1.53-3.29 9.53-2.8 10.66.62.26 1.67.12 2.46.07 1.23-.09 1.45-.2 1.72-1.11.39-1.3.73-2.53 1.12-3.82l1.66-5.86c.1-1.24-.42-1.35-.52-2.02-.11-.69 1.26-.9 2.09-2.84.51-1.19.92-2.39 1.31-3.67.92-3 2.61-6.6-.94-7-.92-.1-5.05-.19-5.86-.06-1 .17-1.12 1.8-1.64 3.43-.46 1.43-7.14 21.89-6.93 22.62l.11.22z" style="fill:#fff"/><path d="M36.54 7.16c-.7-.14-1.64 1.42-2.43 2.35-.83.98-1.47 1.95-2.16 2.98-1.35 2.01-2.36 4.38-3.15 6.89-.78 2.48-1.99 4.84-2.62 7.16-.31 1.14-1.37 7.83-.57 8.57.75.69 2.16.24 2.76-1.92 1.08-3.9 2.6-7.78 3.09-11.64.42-3.3-.23-5.29 1.23-8.31.92-1.9 3.82-5.53 3.87-5.89l-.02-.19zM40.9 48.6c.45.56.64.39 1.67.44.38.02.88.09 1.24.09.77.01.73-.03 1.02-.21-.21-.56-1.58-.57-2.87-.57-.67 0-.69.03-1.06.25zm11.68-3.29.68.13c-.58 2.26-.91.83-4.47 3.27-.61.42-.21.27-.96.39-1.98.29-1.66.78-3.57 1.15-2.14.41-2.78-.27-4.59-.23.05 1.86 1.85 1.49 1.2 2.9-.49 1.06-.74 2.59-1.14 3.36-.92-.23-.76-.42-1.08-1.95-.18-.87-.21-1.75-.32-2.66-1.56.5-2.56 3.25-3.31 4.7-.92 1.77-1.94 3.19-2.98 4.92-1.32 2.18-3.22 6.15-2.11 8.64l.04.09c.05.39.2.84.37 1.38.41 1.24 1 2.93 1.59 4.63 3.47-.26 6.93-.52 9.31-.44 2.38.07 3.67.48 4.39.68.72.2.87.2 1.36-.22.5-.42 1.35-1.27.87-1.81-.48-.53-2.29-.76-3.28-1.42-.61-.4-.91-.97-1.3-1.55.15-.03.3-.06.46-.09-.61-5.43-1.52-1.74-2.88-6.75-.42-1.54-1.47-5.41-1.09-7.02l.49-.8c-.15 2.71.51 5.28 1.65 7.63l2.92 6.42c3.69-.73 3.81-2.59 5.03-5.36.54-1.23 1.1-2.15 1.71-3.33.59-1.13.85-2.74 1.7-3.51 1.04-.94 1.48-1.49 2.28-2.91 3.72-6.61.43-4.98-1.65-10.41-.77-.08-.93-.22-1.32.17zM17.12 68.05c-.06.33-.08.68-.02 1.06.15.9.74 1.97 1.03 3.06.29 1.09.29 2.19.41 2.82.11.63.33.77 2.14.87 1.81.09 5.2.13 6.71.06 1.51-.07 1.14-.26.85-.66-.29-.41-.52-1.03-.66-1.79-.15-.76-.22-1.64-.26-2.47-.04-.83-.04-1.6-.48-2.27l-.01-.02c.31-.9.06-1.85-1.18-2.12-1.04-.23-4.02-.37-2.44-1.65.62-.5 3-.58 3.97-1.07-.3-.42-3.78-1.41-4.4-1.67-1.1-.45-3.58-1.82-4.33-1.92-.99 1.26-.43 3.97-.85 5.35-.16.52-.55 1.09-.6 1.65-.03.27.02.52.12.77zm-4.04 3.05c3.11-.09 2.6-.33 1.87-1.34-.36-.5-.52-.84-.96-1.13-.64.46-.81 1.69-.91 2.47zm36.46 7.16c4.15.66 2.13-2.02 6.45-2.67 1.47-.22 3.17-.31 4.62-.01 1.99.42 2.06 1.1 3.26 1.49 1.29-1.13.63-1.44 3.29-1.67.06-1.27-.73-3.7-1.1-5-.65-2.31-.36-3.23-.46-5.58-.09-2-.59-.99-1.08-2.11-.29-.66-.32-1.85-.58-2.68-.31-1-1.92-3.28-2.9-3.68-.45.34-2.75 4.56-3.21 5.26-3.66 5.56-5.61 5.81-5.04 11.5.28 2.78-3.43 3.78-3.24 5.13zm24.49-12.98c-1.43-.47-4.17-2.01-5.57-2.27-2.23 5.13 4.74 5.07 5.57 2.27zm-1.78-4.04 2.63.12c-.01.62-.47.77-1.18.96-1.16.31-1.75.06-2.15.59-.57 1.16 1.27 1.12 2.42 1.35 4.6.92 3.71-4.64 2.5-6.56-1.1.13-2.05 1.45-3.48 2.43-.61.42-.64.36-.74.71-.07.25-.02.31.01.39zm1.55 8.73c-1.86-.04-5.34-.83-5.22 1.19.04.65 1.36 3.77 1.7 4.26 3.3.17 12.5 0 14.36.4 1.7.37 1.96.76 2.94 1.65.82-.48 0-.42 1.54-1.81.78-.7.27-1.36-.31-2.21-.89-1.28-2.57-2.32-3.67-3.4-4.68-4.6-2.05-8.31-4.96-8.84-1.06 4.01.3 2.7-4.34 6.74L74 69.74c-.03.03-.08.08-.1.11a.57.57 0 0 1-.11.11zm17.55 2.06c-.07-1.43-1.18-4.91-1.73-6.21-.43-1.02-1.03-1.81-1.4-2.61-.68-1.5.25-1.97-2.29-5.64-.51-.74-1.46-1.73-1.74-2.34-.41-.89-.35-1.99-.87-3.03-.42-.86-1.26-1.82-1.78-2.29-1.02-.39-2.68 1.36-3.12 1.91-1.64 2.03.49 3.79 1.34 4.68.45.47.59.96 1.03 1.45.96 1.05 1.49.67 2.54 2.53.41.74 1.46 2.3 1.52 3.1.35 4.5 1.78 4.19 5.59 7.91.59.57.08.3.9.55zM76.99 49.16l1.43.19c-.35.96-.95.45-.53 1.85.73-.22.67-.45 1.09-.87.43-.44.8-.59 1.17-1.07-.53-.86-.82-.61-1.57-1.07-.78-.48-.44-1.06-1.69-.99-.34.59-.18 1.29.09 1.96zm-16.11-18.8 1.54-.12c.14-.86-2.14-12.16-3.22-13.1-.7.93 1.16 11.67 1.68 13.22z" style="fill:#fd0000"/><path class="fil4" d="M88.6 103.43c.57.19 2.81.62 3.43-.46l.76-2.31c.49-1.47 1.2-2.06-1.15-2.05-2.26.01-1.88.11-2.4 1.8-.23.73-.94 2.41-.64 3.02zM88.62 82.53c.6.33 2.25.27 3.02 0 .57-.69.74-1.88 1.03-2.76.49-1.48 1.16-2.1-1.24-2.03-2.41.07-1.72.27-2.73 3.22-.17.49-.35.8-.27 1.2.08.38-.03.14.18.36z"/></g></g></svg>