<svg xmlns="http://www.w3.org/2000/svg" xml:space="preserve" width="213.831" height="251.879" style="shape-rendering:geometricPrecision;text-rendering:geometricPrecision;image-rendering:optimizeQuality;fill-rule:evenodd;clip-rule:evenodd" viewBox="0 0 121.22 142.78"><defs><style>.fil3{fill:#fdfdfd}</style></defs><g id="Camada_x0020_1"><g id="_2076156619968"><path d="M21.83 22.41c-3.04-.43-7.96-1.57-10.86 3.22-1.64 2.71-2.16 6.99-.78 10.27.5 1.19 1.12 1.83 1.52 2.81-1.3.63-2.3.11-2.93 1.62-.47 1.12-.57 6.58.41 8.25.27.46.68.93 1.06 1.39-.59 1.78-.71 4.03-.77 5.55-.08 2.36-.03 4.94.24 7.29.25 2.13.23 4.76.9 6.77.58 1.76 2.33 2.76 4.12 2.81 1.49.05 2.92-.55 3.87-1.66v.12c-.16 5.94-.98 4.8 2.96 5.81.25 2.21-1.08 10.77-1.35 13.71-.16 1.76-.34 3.34-.11 4.92-.08.07-.15.14-.23.21-.11.11-.2.22-.29.34-.69-.97-1.52-1.81-2.42-2.37-3.25-2.02-7.15-1.25-10.37.38-1.41.71-2.94 1.54-4.01 2.71-1.68 1.83-1.79 4.12-.25 6.1.17.22.37.4.6.54l-.33.99c-.47 1.41-.99 2.84-1.42 4.26-.42 1.42-1.2 2.94-1.36 4.39-.25 2.27.99 3.87 2.71 5.19 4.07 3.12 9.55-.01 12.73-2.95 0 .16 0 .32.01.47.04.5.22.94.55 1.29-.19 1.19-.39 2.72-.58 4.72-1.66 17.35-2.02 10.18-3.53 13.83-.37.89-.47 2.04-.49 3.07-.05 3.11.23 3.84 3.33 3.75 1.21-.03 5.82-.79 6.06-.73 2 .47 1.53 1.07 6.24.67.86-.07 2.13-.38 2.94-.38 1 0 2.01.36 3.34.37 2.38.02 4.77 0 7.15 0l27.64-.1c2.67.31 11.63.3 14.25-.07.84-.95.61-1.45 1.22-2.33 1.21.57 1.18 1.75 4.89 2.7 2.38.67 2.67.37 4.87.02 4.05-1.66 1.25-.49 4.29-2.08 1.03.73.69 1.79 3.32 1.87 6.17.19 6.44.72 6.48-8.69.01-2.17 1.53-11.41 2.2-16.09 1.58 1.23 3.48 2.06 5.5 1.32 2.12-.78 3.54-2.54 3.45-4.87-.03-.65-.3-1.19-.81-1.6-.71-.57-2.17-1.43-3.31-2.32.57-.31 1.14-.68 1.65-1.05 2.48-1.79 4.45-4.42 4.96-7.48.47-2.82-.41-5.66-2.76-7.39-2.9-2.15-8.51-1.69-11.74-.45-.72.27-1.51.61-2.28 1.04-.34-.56-.8-1.04-1.38-1.38-.01-.21-.02-.44-.01-.68.05-1.4.58-3.03-.44-3.87-1.37-1.13-6.75.26-8.54-.27-.42-2.49 5.64-12.31 5.25-18.59.74.67 1.54 1.3 2.42 1.77 1.22.65 2.58.94 3.93.52 2.32-.72 3.73-2.54 3.6-5-.04-.68-.35-1.25-.9-1.64-.6-.43-2.09-1.43-3.23-2.36.6-.29 1.2-.6 1.73-.98 1.38-.98 2.49-2 3.43-3.43 1.88-2.9 2.19-7.42-.02-10.2.1-6.34 1.64-15.8 2.54-21.43.66-4.09.44-4.71-3.83-4.74-3.03-.02-6.01.07-9.06.02-1.23-.02-2.44.08-3.51.06-.45-.33-.9-.64-1.31-.92-.13-.09-.37-.27-.64-.47.27-.13.53-.26.78-.4 1.74-.96 3.01-2.25 4.17-3.85 2.3-3.17 2.52-8.9-.84-11.43-4.07-3.05-12.16-1.51-15.88 1.58-.19.16-.37.33-.53.51-.85-2.19-3.04-3.14-5.5-3.52-.05-.01-.11-.01-.16-.02-.25-1.12-.73-2.18-1.36-2.94-.17-.2-.34-.35-.57-.49-1.06-.63-2.6-.47-3.77-.31-1.43.19-2.86.51-4.27.84-2.45.58-4.98 1.25-7.38 2.02-.82.26-1.58.59-2.36.95-.22.1-.45.21-.68.31-.34-.25-.69-.49-1.1-.68-1.34-.63-2.69-.48-3.99.21-.61.32-.99.85-1.12 1.52-.69 3.77-1.46 7.6-2.62 11.26-.49 1.56-1.11 3.26-1.92 4.7.05-1.37.4-2.82.67-3.8.38-1.37.86-2.72 1.36-4.05.38-1.01.84-2.12 1.11-3.16 1.07-4.23-5.55-7.78-8.01-3.44-.2.35-.33.73-.48 1.1-.23.58-.48 1.15-.7 1.72-.48 1.25-.88 2.55-1.22 3.85-.59 2.26-1.02 4.4-1.14 6.63-.29-.1-.6-.17-.93-.22-1.25-.19-2.68-.03-4.1.16.02-.07.05-.13.07-.19.53-1.43 1.14-2.85 1.76-4.25.58-1.31 1.18-2.62 1.76-3.93.34-.78.96-2.07.99-2.92.1-2.83-2.75-5.42-5.54-5.2-.24.02-.44.07-.66.16-1.2.5-1.97 2.05-2.52 3.16-.73 1.46-1.37 2.99-1.99 4.51-1.09 2.68-2.19 5.5-3.07 8.26-.14.44-.47 1.78-.8 2.77zM23 67.54c-.87-.02-1.85-.06-2.56-.02 1.22-2.19 2.52-4.22 3.98-6.36.52-.75 1.03-1.51 1.55-2.26l-2.02 5.54c0 .01-.01.02-.01.04-.3.88-.73 1.67-.89 2.59-.03.16-.05.32-.06.48zm58.93-54.21c0 .02-.01.04-.01.06.01-.02.01-.04.02-.05l-.01-.01z" style="fill:#110f10"/><path d="M21.82 24.81c.01-.17.01-.34.01-.54-1.17-2.21-6.67-.64-8.19.45-2.01 1.45-2.92 4.72-2.71 8.28.33 5.63 6.43 5.78 6.85 9.57.18 1.6-.1 3.46-1.72 3.38-.74-1.75.33-3.62-.21-5.26-1.4-.35-4.37-.21-5.67.1-.63 2.62-.78 7.05 1.24 8.39 1.23-.47 1.48-1.51 3.77-.92 1.5.39 2.12 1.26 2.56 2.45 2.63-.28 4.84-1.94 5.56-3.92.62-1.71 1.06-6.38.37-8.22-.74-1.98-2.84-3.72-4.48-4.8-1.05-.69-1.92-1.11-2.18-2.54-.32-1.74.11-2.87 1.6-3.05l.17 3.78c1.21.28 4.74.33 5.84-.01.06-.92.18-1.76-.07-2.44l-.13.02c-.06.01-.1.01-.16.01-2.43-.11-3.09-2.54-2.54-4.54.02-.07.04-.13.07-.19zm86.77 22.95.28-3.07h-5.66c-.51 2.24-.05 1.87 1.82 2.3 1.1.26 2.37.63 3.55.77zm-4.81-3.98c5.96.53 4.76.24 5.45-4.45.28-1.9.56-3.74.83-5.61.27-1.85.55-3.72.83-5.61.67-4.52 1.02-4.23-1.31-4.22-6.18.02-4.77-1.67-5.3 7.67-.15 2.66-.85 10.09-.49 12.21zm-13.51 2.77c.85.66 1.34.35 1.97 1.38.41.67.49 1.57.88 2.38 1.07-.14 3.46-2.46 6.03-2.98 1.16-.23 2.77-.47 2.2-2.11-.33-.93-3.15-.49-4.28-.5-.09-1.09.15-4.4.43-5.2l3.46-.21c.65-1.11.78-3.91.78-5.15l-3.68-.11.38-4.6c2.85-.33 4.86 2.07 4.5-5.54l-5.65-.02c.01.41-.03.81-.11 1.18.04.06.07.12.1.19.09.19.1.37.05.57-.36 1.49-1.69 2.63-3.16 2.94-.75.16-1.49.03-2.2-.26-.07.14-.13.36-.17.7l-1.55 17.35zm-8.24-12.48c-.35-1.12.11-4.09.39-5.09 1.79-.05 1.3 1.1 1.19 2.85-.08 1.32-.41 2.31-1.58 2.25zm-2.13-7.76c-.01.05-.01.09-.02.14-.01.67-.05 1.34-.17 1.87-.1.44-.49.73-.94.7l-1.69-.14a.653.653 0 0 1-.24-.06 7.21 7.21 0 0 1-.96-.44c-.43 6.04-1.14 11.06-1.69 16.81-.22 2.31 1.01 2.83 2.27 3.92.61-.09 2.17-.71 2.8-.96 1.33-.52 1.24-.84 1.47-2.39.32-2.2.33-5.08.67-7.1 1.07 0 1.18.12 1.25 1.22.05.74-.06 1.81-.15 2.56-.15 1.3-.49 3.14-.24 4.55 1.42.38 4.57.35 5.6-.45.8-.76 1.07-7.18.54-8.32-.46-.98-.93-.95-1.6-1.66 1.44-.99 1.58-.34 2.3-2.38.4-1.14.68-2.7.74-4.05.06-1.23-.13-2.52-.59-3.57-.18-.17-.35-.34-.51-.5-.22-.22-.78-.84-1.36-1.47-.39-.15-.82-.23-1.31-.2-.27.93-.48 1.87-.7 2.84-.06.27-.23.48-.48.6-1.13.55-2.26.42-3.32-.2-.64-.38-1.13-.85-1.66-1.33zm-12 8.26c-.01.01.53.42-.97.39-.21-.36-.25.32-.23-.56.02-1.03.19-.61.28-.75l.24-4.81c-1.63-.05-2.43-.29-3.52-1.47-1-.73-.98-1.97-.68-3.08l-.06-.15c-.12.05-.21.06-.28.06l-.07.24c-.35 1.14-.74 2.63-1.23 3.7-.08.19-.22.33-.39.42-.01.05-.03.11-.04.16-.37 1.52-.5 4.13-.68 5.75-.43 3.75-.94 8.23-1.03 11.96 1.74-.16 2.48.02 3.61.88 1.71 1.31.87 2.03 1.94 2.67 1.4-1.58.83-7.6 1.57-10.18 2.19-.28 4.22.11 5.74-1.17 1.3-1.09 1.67-2.94 1.9-5.16.43-4.22 1.15-9.27-3.86-9.32-.28.46-.52.98-.75 1.46a97.5 97.5 0 0 1-1.33 2.72c-.05.11-.13.2-.21.27.18.47 1.13.14.88 2.93-.11 1.19-.18 2.42-.82 3.01zm-28.06-8.12c-.14 1.37-.47 2.99-.63 4.09l-1.55 16.25 5.69.01 1.22-10.93c.19 3.06-.31 12.23.81 14.37.55.09.9-.04 1.17-.27.32-.77.69-1.42 1.26-1.84.1-.11.22-.22.34-.32 2.01-1.55 1.57-.21 2.17-3.29.52-2.69 1.68-6.34 1.95-8.75.09 3.37-1.31 8.29-.97 11.53 1.35 1.22 1.55 1.31 2.53 2.82 1.01.16 1.62.22 2.61 0 .54-1.58 2.04-17.3 2.25-20.69.03-.45.02-.79-.03-1.06-1.4-.59-2.51-1.9-2.5-3.45 0-.16.02-.34.06-.55-.07-.09-.15-.16-.25-.24-.86-.36-2.86-.44-3.99-.11-.42.72-.89 1.38-1.45 1.98-.12.43-.21.88-.31 1.3-.24.99-1.47 7.09-1.65 7.45l-.14-6.74-.24-.09c-.2.13-.41.25-.62.37-.09.05-.16.08-.26.1-2.66.55-5.6.05-7.5-1.93zm-12.72 2.67-1.87 17.36c1.46.3 1.72-.2 3.02.64 3.09 2 1.23 1.3 4.54.14.66-.23.81-.18 1.48-.16.31.01.67.06.97.04l.86-.19c.28-.78.29-1.27.09-2.23l-4.01-.05.45-5.03 3.58-.31c.61-1.15.57-3.82.51-5.17l-3.52-.09c-.22-.94.1-3.56.38-4.55 1.81-.36 3.16.3 3.8-.35.46-.67.42-1.02.25-1.45-.72.27-2.22.32-2.98.36-1.01.05-2.1.06-3.1.18-1.48.18-2.99.53-4.45.89z" style="fill:#ff00ba"/><path d="M17.2 116.21c-.71 5.43-.94 12.32-1.81 18.89-.82.21-1.7.19-2.21.63-.75.77-.8 3.61-.37 4.68 1.19.57 2.89-.13 4.1-.29 1.66-.21 2.61.24 3.49-.98 1.8-2.51 1.68-3.32 1.98-7.09l1.1-14.45-1.63.17c-.74.14-1.91.51-2.95-.27l-1.71-1.29zm84.44.4c-.09 1.12-.28 2.7-.33 3.67l-.17 9.87c-.09 1.88-.73 2.19.11 3.78 1.35.27 3.09.11 4.26-.2l1.55-9.4c.3-2.22 1.53-7.03 1-9.64l-2.03-.15c-.57.57.06 1.51-.75 1.94-1.3.69-2.39.67-3.64.13zm4 18.67c-1.01-.55-5.95-1.64-6 2.01-.04 2.37-.56 2.72 1.72 2.98 1.36.15 3.01.27 4.28-.03v-4.96zm-18.57-18.74c-2.29-1.04-1.9 7.05-1.61 8.18 1.07 4.24 6.86 4.35 6.81 9.51-.02 1.9-2.12 2.77-2.11-.54l.01-2.48-1.16-.39c-3.45.77-4.79-1.69-4.89 3.15-.02 1.06.05 2.16.29 3.06 1.51 5.86 11.1 5.05 12.87.84.9-2.14 1.13-3.19 1.14-5.8.01-2.78-.31-3.6-1.44-5.05-1.38-1.76-1.64-2.67-3.74-3.39-1.73-.6-2.14-3.02-1.27-5.03l1.3.25c0 1.21-.92 1.83-.14 2.97.81 1.06 5.35.64 5.6.12l.48-2.49c.03-.92.06-2.13-.28-2.86-.49-.18-.75-.17-1.09-.11-.07.66-1.27 1.21-1.54 1.23-1.83.12-3.7.03-5.53.24-1.85.21-3.17-.18-3.69-1.4zm-9.27-.92-.12-.01c-.26 4.18-.67 8.34-1.34 12.33-.28 1.65-1.21 11.13-.51 12.12.51.51.35.33 1.32.37 1.14.05 3.66.18 4.5-.07.91-3.51 1.49-15.18 1.81-19.97.04-.65 1.09-3.06.83-6.15-1.33.06-.92.54-1.4 1.94-.66 1.9-2.61 1.59-3.75.73-.77-.58-.39.31-1.34-1.29zm-9.44 6.73c.54 1.32-.11 3.48-.12 4.95-.01.9.34 4.49-1.15 3.69-1.05-.56.08-3.33.25-4.44l1.02-4.21zm-2.81 17.61c.98-2.06-1.08-4.33 2.46-4.17-.09 1.73-.43 1.46.34 4.12.21.62 0 .19.25.6l5.95-.14c.12-1.58-.83-24.46-.96-24.95-.2-.06-.39-.08-.58-.06-1.88 2.57-6.32 3.41-9.26 2.15l-4.34 22.8c1.72.41 4.82.47 6.14-.35zm-14.27-21.91c-.77 1.13.03 3.96-1.52 6.14-.05-1.98.16-4.28-.49-6.17-.39-.01-.72.01-1-.37-.46-.62-.88-1.31-1.06-1.98l-2.35 1.68c-1.39.4-2.51.65-3.56.67-.38.33-.68.9-.81 1.92l-1.71 20.63 5.62-.14c.86-3.25.09-10.4 1.57-12.47-.02 2.47 0 10.38.27 12.41 1.04.05 1.04-.26 2.31-.15 2.01.18 2.12.93 2.63-3.86.16-1.49 2.08-9.63 2.45-10.66l-1.03 14.52c1.05.35 4.44.48 5.69.12.15-.85-.17-2.19-.06-3.48l1.19-9.93c.32-2.26.37-4.45.53-6.77.18-2.59 1.38-3.34-.17-6.19-.79.21-1.34 1.25-1.4 1.5-.01.05.09 2.09-1 2.28-1.59.27-4.37.3-6.12.3zm-20.55 12.68c-.85-1.4.74-7.85.95-8.13.14 1.52-.12 3.03.06 4.68.17 1.61 1.03 3.25-1.01 3.45zm-3.59-13.5-4.77 22.95c1.31.36 4.24.42 5.67.12 1.7-.36 1.03-2.78 1.5-4.48l1.42.13c1.46 2.38-.08 3.18.19 4 .63 1.02 6.17.45 6.33.29.35-.35.45-19.09-.54-23.41-1.07-.57-.27-.57-1.76-1.58a.934.934 0 0 1-.18-.16c-.13.46-.23.88-.66 1.07-2.22.99-5.03.55-6.69 1l-.52.07z" style="fill:#0ff"/><path class="fil3" d="M26.05 69.12c.81.39 1.56 1.19 2.44 1.11.82-.07 2.17-.42 3.22-.53 2.25-.22 4.72-.56 6.98-.62 1.09.01 2.15-.13 2.86-.68.67-3.19-.84-4.24-3.89-3.97-2.18.19-4.51.87-6.68 1.15-.03-1.06.45-1.95.77-2.95.37-1.12.28-1.74 1.48-2.06 2.05-.55 4.56-.18 6.07-1.38.25-1.35-.15-2.27-.96-3.07-1.88-.46-2.45.18-3.96.13.09-1.05 1.25-3.22 1.82-3.95 3.29-.46 4.77.72 7.62-.92.01-5.96-5.91-2.69-8.8-2.93-1.14-.1-.96-.52-1.98-.07-.87.38-2.09 1.26-3.75 1.31-3.33-3.48-4.13-1.79-8.61 4.95-1.26 1.9-3.76 7.07-4.46 7.44-.22-2.77-.29-5.78.07-8.42.17-1.28.63-2.66-.15-3.48-.73-.76-2-.94-3.27-.71-1.62 1.85-1.36 10.11-1.01 13.08.21 1.79.3 4.82.8 6.34.55 1.64 3.62 1.92 4.61-.04 1.87-3.7 3.28-5.89 5.36-8.94.99-1.45 5.17-7.65 6.18-8.21.47.46.84.88 1.59 1.29l-4.43 12.16c-.59 1.72-1.57 2.99.07 3.96zm72.96-11.3c.1-1.15.71-2.75 1.25-3.66 1.09-1.82 5.11-1.36 6.08-.69-.53 1.93-5.59 4.18-7.33 4.35zm2.64 4.7c.83-.76 2.84-1.46 3.84-2.17 1.16-.83 2.08-1.63 2.87-2.85 1.73-2.66 1.63-6.87-.78-8.49-3.01-2.02-10.27-1.09-13.39 2.18-1.45 1.52-.14 2.65.79 3.71-.5 2.68-4.24 10.02-4.05 12.62.63 1.12 2.47 2.4 3.95 1.77.31-.21 1.22-3.66 1.76-5.13 1.23.59 5.21 6.81 8.26 5.87 1.34-.42 2.16-1.3 2.08-2.83-1.55-1.11-4.61-3.06-5.34-4.68zm-26.69 7.19c1.3.59.96 1.13 2.28.46.9-.4 5.06-.68 6.35-.79 2.22-.18 4.27-.04 6.17-.91 1.71-5.59-4.52-3.52-7.27-3.62-.71.45-.95.33-1.77.5-.7.14-.98.26-1.76.34.05-1.06 0-1.02.62-1.83.39-2.05.68-3.15 2.75-3.52 3.6-.63 6.94.09 4.34-4.22-2.09-.44-2.7.22-4.13.1.16-1.15 1.23-3.1 1.75-3.94 2.91-.37 5.6.61 7.65-.96.17-1.83-.27-3.11-1.9-3.33-3-.4-5.29.58-7.33.34-1.44-.18-.75-.42-2.02.31-.83.48-2.71 1.11-3.54 1.46-.29 2.21.13 1.9 1.47 2.89-.25 1.97-5.55 12.85-5.26 15.53l1.6 1.18zm-11.35-.61c.63.37 1.25.71 1.72.99 2.84.81 3.99.24 5.25-1.55.66-.94 2.45-3.44 2.62-4.83-.56-1.07-1.56-1.84-3.21-1.67-.7.87-1.38 1.81-2.16 2.8-1.17 1.47-1.48 2.37-2.65 2.55-2.12-6.16 3.48-14.58 7.1-15.95-.2 1.16-2.63 6.98 1.9 6.95.67-3.68 3.3-7.03.06-9.82-3.37-2.91-6.94.21-8.69 2.32-1.8 2.18-3.8 5.34-4.48 8.67-.85 4.13-.28 7.65 2.56 9.55zm-20.45.04c1.01.52 1.38.69 2.7.67 1.16-.3.99-1.11 1.32-2.56.37-1.67 1.57-7.77 2.37-8.3.53 1.18 1.59 8.58 4.08 10.15.84.39 1.55.64 2.73.49l.98-.23c.27-1.39-.19-.44-.22-1.85-.05-2.23 4.73-13.72 5.75-15.98.58-1.29.78-2.08-.16-2.89-.66-.57-1.73-1.07-2.69-1.11-1.24 1.63-2.32 4.5-3.18 6.58-.5 1.21-.88 2.35-1.25 3.54-.28.93-.68 2.89-1.05 3.55-1.07-1.39-1.59-7.6-1.81-9.85-.16-1.61-1.07-2.67-2.78-2.84-1.99-.2-2.39 1.14-2.93 2.7-1.81 5.22-2.55 8.12-3.81 13.38-.34 1.41-1.27 3.61-.06 4.55zM11.64 98.74c13.03-1.19-1.01 12.57-4.24 13.35l4.24-13.35zm96.83 5.67c.03-.92 1.4-4.03 1.86-4.62 1.79-.03 3.64-.2 5.41.13.11 1.16-.46 1.12-1.27 1.8-1.38 1.16-4.1 3.14-6 2.68zm-6.77 11.25c1.11.55 1.99.67 3.18.04.04-1.59.51-3.79 1.36-4.77 1.86 1.43 5.23 6.85 8.18 5.77 1.17-.43 2.09-1.3 2.03-2.76-1.28-1.03-4.53-2.67-5.44-4.73.67-.58 1.27-.6 2.08-.98.58-.27 1.31-.74 1.78-1.08 4.77-3.43 5.41-9 2.18-11.39-2.2-1.62-7.1-1.16-9.68-.17-7.66 2.93-2.92 5.68-2.89 6.01-.76 2.52-1.82 4.63-2.68 7.26-.89 2.74-2.49 5.24-.12 6.81zm-22.74.19c.64.26.14.03.59.27.37.2.04.12.62.36 2.49 1.02 1.69-1.7 2.64-2.6-.01-1.99 3.58-12.57 4.79-15.22.72-1.59 2.86-1.71 4.81-1.83-.35 1.35-.22 1.82.31 2.87l1.81.05c-.21 1.44-2.19 6.05-2.83 8.02-.43 1.32-.76 2.96-1.16 4.3-.55 1.82-1.62 1.19-2.76 2.43-.29 2.34.84 2.82 2.91 2.58 1.76-.2 3.73-.12 5.57-.24l.71-.44-.09-2.04c-.33-1.22-.64-1.17-1.57-1.77.14-2.47 3.1-9.47 4.33-12.14.96-2.09 1.76-.53 3.18-2.01.38-1.97-.28-3.69-2.28-3.64-1.56.04-3.49.88-5.09.95.06-2.04.06-3.04-.98-4.51-3.4-.55-11.08 1.82-14.59 3.07-3.28 1.17-2.12 1-3.65 2.22-.99-.81-1.29-1.85-2.95-2.24-5.17-1.21-14.63 7.91-10.73 12.9 1.48 1.89 3.46 3.1 6.37 3.66-.15 1.57-1.85 2.61-3.52 2.83-1.56.21-2.2-2.13-4.32-1.5-.97 2.11 1.72 4.11 3.47 4.7 4.56 1.52 11.63-2.23 6.66-7.15-1.97-1.95-3.41-1.68-5.92-2.88.01-3.36 4.68-7.64 7.22-8.38-.14 1.78-1.21 2.74-1.18 4.81.02 1.69.74 2.98 2.52 3.04 1.71-1.44 2.29-5.67 3.33-6.78.98.91.88 1.49 2.44.74 1.04-.49 1.62-.97 2.84-1.13l-3.89 12.71c-.83 2.81-.58 2.13.38 4.01zm-21.71 1.02c.37-.85.29-1.28.16-2.38-.34-1.57-.55-1.14-1.66-1.94.09-1.43.71-2.51 1.13-3.85.35-1.11.83-2.44 1.23-3.54.41-1.14.9-2.36 1.37-3.4 1.28-2.86.73-2.38 2.21-2.56 2.67-.32 2.42-4.95-1.73-4.18-2.25.42-5.95.91-7.28 2.27-.19 2.12.33 2.46 2.32 2.46-.14 1.03-1.08 2.9-1.47 3.92-1.23 3.19-1.65 5.34-2.56 8.41-.7 2.36-4.77 1.28-1.98 5.05 2.02.08 6.49.05 8.26-.25zm-21.24-13.29c-.16 2.54 1.15 3.84 2.6 5.14 1.63 1.47 3.89 1.55 4.98 2.39-.49 1-2.37 2.7-4.02 2.54-1.09-.11-2.9-2.65-4-1.25-.59.72-.16 1.41.14 2.1.59.41 1.02.76 1.4 1.39 2.77 1.52 4.26 1.53 7.51.59 1.45-1.03 1.44-.7 2.49-2.09.76-2.36-.41-4.01-1.87-5.16-1.93-1.51-3.45-1.33-5.24-2.41-.44-3.26 4.9-7.84 7.03-8.41.18 1.17-1.09 2.57-1.18 4.36-.1 1.82.85 3.44 2.52 3.44.98-.32 3.08-6.13 3.18-7.02.26-2.26-3.25-9.07-11.67-1.57-2.95 2.63-2.96 4.65-3.87 5.96zM19.46 116.8c.93.43 1.23.39 2.24.1l5.74-.6c1.62-.45 4.59-.08 6.56-.96 2.38-6.39-7.51-3.32-10.66-3.04.04-1.07.48-1.89.86-2.95.44-1.23.33-1.87 1.62-2.13 2.26-.44 4.31-.24 6.02-1.39.16-3.49-1.55-3.22-4.43-2.9-.24.19.33.22-.75.32-.03-.25-.24-.22.24-.89l1.77-3.58 7.19-.1c.3-.77.39-2.29-.07-3.11-.58-1.04-1.62-.83-3.15-.82-1.28.01-2.64-.04-3.82.19-2.22.42-1.49.05-3.41-.1-1.07 1.81-2.54.75-4.01 2.2-.73 1.47 1.52 2.86 1.52 2.86-.93 3.18-5.48 12.51-5.27 15.51l1.81 1.37zM6 100.89c-.09 1.26-2.01 6.48-2.52 8.21-1.03 3.48-2.58 4.82.6 7.25 5.09 3.9 16.27-6.68 15.66-14.29-.22-2.73-2-5.68-3.69-6.73-2.6-1.62-5.82-.76-8.26.47-2.34 1.18-5.55 2.95-3.53 5.57 1.15.03.89-.12 1.75-.48zM22.6 25.23c-.4 1.44-.09 3.33 1.73 3.42l2.14-.29c1.52-.38 3.41-.83 5-1.02 1.36-.16 5.09-.16 5.88-.49 1.56-6.85-3.4-4.58-8.41-4.29.27-3.38 5.28-12.87 5.32-13.88.05-1.47-1.64-3.09-3.21-2.97-1.3.54-5.49 11.89-6.35 14.58-.56 1.74-.9 4.05-2.09 4.94zm66.03-9.62c-.41-.54-.19-.87-.19-.87 0-.01.27-.69.27-.7 1.37-3.06.91-3.19 2.75-3.2 2.09-.01 2.13-.15 4.11.17-.16 2.39-6.1 4.93-6.95 4.6zm-8.45 9.76c.99.87 2.44 2.58 4.31 1.67.44-1.92.75-3.34 1.44-5 1.38.6 5.04 6.5 8.06 5.85 1.16-.25 2.22-1.15 2.49-2.28-.68-1.5-4.86-3.13-5.54-5.24 2.18-1.53 3.97-1.26 6.6-4.88 1.75-2.4 1.84-6.76-.39-8.43-3.03-2.27-10-1.15-13.2 1.51-1.47 1.23-1.24 3.29.47 3.8-.39 2.05-1.59 4.43-2.24 6.33-.61 1.79-1.64 4.78-2 6.67zm-7.78-6.69c.36-.82.69-1.18 1.2-1.88.55-.75.74-1.34 1.5-1.66l-.37 3.1-2.33.44zm-8.12 8.02c.88.97 1.4 1.21 2.98 1.25 2.27-4.41 2.05-5.28 4.64-5.93.75-.19 2-.61 2.71-.53.33 3.56-.7 5.27 2.53 6.5l1.69.14c.28-1.28.07-5.21.09-6.81.03-1.93.3-4.38.54-6.36.56-4.64 2.55-8.03-3.26-8.93-1.7.34-8.73 11.43-10.46 14.62-.66 1.22-3.14 4.96-1.47 6.05zM51.93 5.71c-1.02 5.59-3.51 18.61-7.87 19.59-2.9-4.25 1.59-12.96 2.25-15.56.46-1.81-2.83-3.98-4.04-1.85-.1.18-.27.63-.35.84-.24.61-.43 1.04-.69 1.7a34.82 34.82 0 0 0-1.14 3.62c-.77 2.93-1.3 5.71-1.05 8.96l.85 2.11c1.27 1.89 3.91 3.1 7.26 2.41 2.73-1.55 4.09-3.38 5.38-6.77.72-1.91 2.5-7.66 2.64-9.64l.32-1.26c.74.27.16-.28.63.56.49 2.73 3.09.32 5.22-.08-.45 2.66-2.13 6.8-2.97 9.64-.26.88-1.32 4.21-1.32 4.94 0 1.53 1.68 3.07 3.51 2.88.95-2.09 5.06-17.89 6.53-18.92 1.26-.88 6.36-.86 6.98-1.63.88-1.43.01-4.04-.71-4.92-1.39-.82-11.24 1.97-13.65 2.74-1.6.52-2.72 1.23-3.98 1.63-1.33-.81-2.03-1.92-3.8-.99z"/><path d="M96.62 94.02c.64-.01 3.35-.35 3.87-.53 1.01-.35.92-2.15.72-3.3-4.21-.05-4.47-.92-4.6 3.83zM84.2 91.43c1.59-.13 6.31-1.09 6.95-2.06.58-.89 1.94-4.89 2.44-6.14 1.84-4.68 3.6-7.74 3.83-13.62-.86-.13-1.25-.08-1.69 0-.11.19-.23.34-.36.42-.05.03-.09.06-.15.08-1.14.49-2.47.16-3.53-.54-.68-.04-1.41-.07-2.09-.08-.93.35-1.88.5-2.85.59-.54 1.04-.49 3.63-.37 4.42 1.1.39 2.51.14 3.69.14.02 2.65-5.34 13.53-5.88 16.78zm-9.36-20.77c-.48 4-2.35 19.48-2.23 21.93.56.22 1.49.43 2.1.75.75.39 1.01.74 1.74 1.09 1.35-.49 2.08-1.18 3.71-1.73 2.99-1.01 3.23-.41 3-2.3-1.06-.47-2.97-.12-4.24-.11.22-7.18.24-5.64 4.23-5.81.16-1.38.65-3.42.38-4.77l-3.67-.15.64-4.64c1.14-.5 2.72-.11 3.99-.31.19-.68.51-3.18.39-4.4-.41.02-.81.04-1.22.08-1.1.09-2.2.17-3.3.28-.58.06-2.22.2-2.74.42-.62.31-1.26.57-1.93.22-.31-.16-.54-.37-.84-.55zm-12.28-1.22-1.83-.01c-1.37-.03-2.14-.15-2.55.2-.05.16-.14.29-.25.4-.04.1-.07.22-.09.36l.35 11.42c.14 3.98.45 7.87.55 11.78 1.94-.04 3.58-.49 4.74.71 1.28 1.33 1.72 1.55 3.54.47 1.72-1.02 1.46-1.37 1.92-3.58.31-1.46.64-2.9.94-4.32l2.91-13.05c.16-.71.3-1.4.48-2.14.38-1.56.46-1.7.02-2.03-.79-.33-1.62-.32-2.38-.11-1.16 1.43-2.37 1.9-3.95 1.77-.56 2.11-1.37 7.31-1.82 9.7-.23 1.21-.24 2.33-.99 3.1l.09-13.63c-.37-.21-.74-.42-1.1-.63-.02-.01-.03-.02-.05-.03-.19-.13-.37-.26-.54-.4zm-9.84.09c-.29 0-.7-.02-1.28-.03-.75-.02-1.51.02-2.25.08-.56 1.66-2.5 22.51-2.29 22.96.53.32.04.07.74.24.17.04.39.06.6.11 1.52.35 1.97 1.23 2.96 2.03 1.29 1.05 3.69-.17 5.11-.62.21-1.04.58-2.71.27-4.03l-3.29-.05c-.25-4.21 1.9-16.09 1.68-19.75-.57-.09-1.11-.28-1.72-.57l-.1-.05c-.15-.09-.29-.2-.43-.32zM37.67 86.05c-.17-1.01 1.07-7.43 1.58-9.04.24-.76.07-.47.55-.94l-.36 9.89c-.65.3-.66.28-1.78.09zm4.56-16.57-.87.05c-.83.36-1.79.44-2.67.44-1.04.03-2.09.11-3.14.22-.35.59-.32.92-.57 2.11-.78 3.67-4.69 19.94-4.38 21.07.98.05 1.87-.19 2.99-.13 1.27.08 1.76.53 2.85.48.39-1.13.21-2 .79-3.01l1.94.03c.17 1.5-.25 3.14.17 4.59 1.39.17 2.15-.56 3.08-1.09.86-.49 2.18-.93 2.83-1.46l-.83-22.17c-.53-.11-.99-.32-1.67-.67-.05-.03-.09-.05-.14-.09a2.11 2.11 0 0 1-.37-.36zm-17.19 0c-1.2.14-3-.22-4.67.08-1.64 6.34.26 4.89 2.87 5.19.23 2.01-.62 7.82-.88 10.15-.36 3.19-.84 7.05-.89 10.27 2.93-.19 2.33-1.55 5.92-1.64 1.03-2.3 1.31-15.99 2.26-18.79l3.28-.04c.46-1.35.66-2.84.42-4.27-.52.06-1.03.11-1.55.16-1.08.11-2.15.44-3.23.53-1.25.11-1.92-.72-2.91-1.2l-.06-.03c-.21-.13-.4-.26-.55-.39z" style="fill:#fc0"/></g></g></svg>