<svg xmlns="http://www.w3.org/2000/svg" xml:space="preserve" width="250.557" height="38.123" style="shape-rendering:geometricPrecision;text-rendering:geometricPrecision;image-rendering:optimizeQuality;fill-rule:evenodd;clip-rule:evenodd" viewBox="0 0 165.82 25.23"><path d="M58.86 5.69c.21-.47.5-.86 1.02-1.26.15-.59.38-1.1.82-1.57.38-.42 1.04-.86 1.57-1.05.89-.32 1.76-.35 2.55-.07.26-.09.54-.14.85-.18 1.51-.17 2.87.4 3.71 1.68.07.11.14.22.2.32.38-.24.81-.42 1.29-.53.79-.18 1.58.13 2.03.8.03.05.07.11.11.16.01.01.02.01.03.02.57.28.95.68 1.21 1.17.1.01.19.03.29.05.63.12 1.08.34 1.64.64.24.13.47.28.68.45.13-.72.28-1.43.6-2.11.87-1.85 2.74-2.4 4.49-1.28.19.12.37.26.52.41.19-.08.39-.14.62-.22.85-.35 1.81-.06 2.33.71l.17.25c.57.3.97.66 1.22 1.11.51.09 1 .24 1.46.45.98-.66 2.3-.99 3.37-1.03 1.84-.08 2.4-1.21 4.54-.7.17.04.35.09.52.14.46-.54 1.08-.9 1.91-.9 1.6 0 2.43 1.28 2.63 2.72.06.42.06.83.07 1.24.73-.65 1.72-1.01 2.92-.96.56.02 1.16.14 1.73.35.27-.76.98-1.27 1.81-1.27h.82c.72 0 1.35.37 1.69 1.01.39-.19.83-.25 1.29-.14.16.04.31.08.45.12.16-.23.34-.45.54-.66 1.97-2.06 4.54-1.71 6.16.11.45-.44 1.05-.71 1.84-.71.92 0 1.74.32 2.33.93.11-.03.22-.06.34-.08 1.25-.22 2.76-.12 4.04-.12.89 0 1.73.24 2.43.82.22.18.36.35.5.53.67-.03 1.63-.14 1.84-.46.37-.56.63-1.09 1.1-1.6.84-.91 1.67-1.17 2.87-1.27.71-.06 1.36.25 1.76.85.12.18.23.34.33.5.01 0 .01-.01.02-.01.62-.4 1.13-.82 1.66-1.34.46-.46.79-.88 1.34-1.27 1.19-.85 2.64-.85 3.61.17.26-.1.55-.16.87-.16 1.14 0 2.07.3 2.72.88.48-.18 1-.25 1.54-.25.73 0 1.37.39 1.7 1.01.24.16.45.28.7.54.17.18.31.35.42.53.26.08.51.15.75.23.18-.14.38-.26.59-.37.03-.63.27-1.21.68-1.7.17-.2.34-.33.51-.5l.74-.86c.04-.04.07-.08.11-.12.99-.98 2.02-1.85 3.51-1.85 1.62 0 3.01.8 3.37 2.47.07.34.12.67.14 1 .2.1.38.2.54.29 1 .54 2.22 1.18 2.22 2.52 0 1.22-1.18 2.41-2.07 3.17-.02.02-.04.03-.06.05l-2.97 2.29c-.01.01-.02.01-.02.02-.03.03-.09.06-.12.1-.09.24-.16.94-.2 1.22l-.55 5.47c-.09 1.07-.16 2.07-.58 3.1-.36.89-.85 1.76-1.75 2.18-.42.2-.73.24-1.06.24-.49.59-1.22 1-2.13 1.11-.08.01-.15.01-.24.01h-.47c-.08 0-.15 0-.23-.01-1.3-.15-2.49-.94-2.95-2.21l-.03-.09c-.61-.95-.72-2.01-.61-3.07-.93-.32-1.54-1.12-1.97-2-.24.08-.5.13-.8.13-.42 0-.79-.07-1.12-.2-.08.34-.18.67-.33 1-.81 1.7-2.74 2.16-4.01.7-.17-.19-.3-.38-.41-.59-.05.19-.12.36-.2.53-.26.54-.71.9-1.3 1.04-.95.22-1.67.09-2.45-.52-.21-.16-.41-.35-.61-.55-.47.86-1.28 1.49-2.38 1.59-.88.08-1.69-.19-2.41-.65-.27 1.12-.67 2.26-1.68 2.94-.46.31-.97.4-1.51.27-1.18-.27-2.21-1.1-2.21-2.42 0-.19.01-.38.02-.57-.31-.04-.61-.12-.92-.23-.19-.07-.39-.18-.57-.23-.29-.08-.56-.22-.77-.41-.08.03-.17.06-.25.09.01.61-.19 1.22-.5 1.8-.41.78-1.27 1.17-2.14.97-.31-.07-.81-.04-1.18-.1-1.4-.21-2.13-.18-3.49.21l-2.01.66a1.9 1.9 0 0 1-2.3-.93c-.2-.37-.34-.66-.44-1.08-.94-.14-1.74-.75-2.32-1.5-.05-.06-.09-.12-.14-.18-.38.14-.8.19-1.24.11-.78-.14-1.4-.63-1.87-1.23l-1.88 1.3c-.89.63-1.37.89-2.56.89-.88 0-1.63-.58-1.86-1.42-.12.06-.23.11-.35.16-.6.26-1.25.45-1.89.51-.94 1.04-2.4 1.19-3.8.92-.92-.18-1.72-.52-2.6-.75-.01 0-.03-.01-.04-.01-.09.05-.18.12-.26.17-.1.06-.2.13-.3.18.33.36.5.8.5 1.3 0 1.64-.97 3.1-2.63 3.43-.13.03-.24.04-.37.04h-.54c-.13 0-.23-.01-.35-.03-2.33-.44-3.38-2.78-3.31-4.95.01-.16.03-.31.05-.46-.13-.03-.26-.07-.38-.12-.63.73-1.71.89-2.53.35-.73-.49-1.1-.93-1.41-1.53-.09.24-.2.47-.34.68-.29.42-.52.58-.92.85-.13.09-.28.16-.42.21.24.25.42.56.5.92.45 1.95-.63 3.8-2.65 4.07-.09.01-.16.02-.25.02h-.39c-.08 0-.15 0-.24-.01-1.48-.18-2.65-1.24-3.15-2.62-.31-.85-.4-1.77-.33-2.68-.63-.12-1.06-.44-1.48-1.08-.08-.13-.16-.26-.24-.4-.29.2-.58.39-.83.56-.67.44-1.31 1.02-2.01 1.4-.1.06-.2.11-.31.15-.09.17-.2.34-.33.5-1.04 1.28-2.9 1.67-4.4 1.04-.03.68-.25 1.28-.68 1.86-1.23 1.63-3.41 1.63-4.94.42-1.37-1.09-1.94-2.8-1.75-4.5-.1-.03-.19-.06-.28-.1-.39.35-.89.52-1.44.48-1.13-.09-1.8-.72-2.28-1.68-.01-.01-.01-.02-.01-.03l-.08-.16c-.07.19-.16.38-.27.58-.28.83-1.09 1.36-1.98 1.29-.41-.03-.77-.14-1.08-.3-.8 1.66-2.78 1.83-4.01.51-.15.34-.39.67-.71.98-.02.02-.05.04-.07.07l-.29.25c-.02.02-.04.03-.06.05-.64.54-1.52.61-2.24.17l-1.65-1.01c-1-.54-1.59-.56-2.69-.52-1.74.06-2.91-.45-3.76-1.97-.23.58-.6 1.08-1.16 1.46-.46.31-.97.4-1.51.27-.78-.18-1.41-.6-1.81-1.28-.7 1.05-1.65 2.05-3.01 2.05-.68 0-1.3-.25-1.78-.65-.44 0-.91-.13-1.33-.41-.47-.31-.66-.61-.92-1.07-.09-.15-.18-.31-.26-.46-.26.81-.7 1.31-1.52 1.74-.06.03-.13.06-.2.09.42.35.68.88.68 1.47 0 .91-.15 1.63-.73 2.36-.57.7-1.44 1.12-2.34 1.19-.05 0-.1.01-.15.01h-.24c-.05 0-.1 0-.15-.01-1.11-.09-2.06-.69-2.68-1.6-.7-1.04-.91-2.34-.91-3.58v-.21c-1.24-.29-1.95-1.73-2.38-2.82-.47-1.18-.85-2.67-.56-3.92.04-.17.1-.33.18-.47-.21.02-.42.03-.64.01.01.31.01.63.02.94.02 1.03.03 2.07.02 3.1-.01.73-.02 1.66-.18 2.37-.22.94-1.07 1.56-2.03 1.48-1.01-.08-1.99-.62-2.65-1.38-.53-.61-1-1.44-1.16-2.24-.18-.93.11-1.75.67-2.27l-.15-1.07c-.04-.31-.09-.63-.14-.96-.23.05-.46.07-.7.05C.83 12.58.01 11.63.01 10.46c0-1.01.8-1.93 1.57-2.52.33-.26.77-.56 1.11-.86.15-.26.35-.49.59-.72.53-.53.8-.53 1.38-.78.65-.49 1.3-.99 1.93-1.51.2-.16.5-.34.67-.5.61-.87 1.14-1.63 2.39-1.63 1.29 0 2.05.43 2.53 1.25.53.15.97.53 1.21 1.03.46.28.8.62 1.03 1.03l.22.04c.02 0 .04.01.06.01.68.15 1.11.29 1.71.65.22.13.4.26.56.39.05-.36.11-.72.19-1.07.38-1.64 1.4-2.89 3.2-2.89 1.27 0 2.32.83 2.84 1.93.68-.17 1.35-.11 2.15.23.19.04.39.06.57.09.64.11 1.27.27 1.86.54.45.2.82.45 1.15.76l.22-1.18c.03-.15.06-.27.12-.4.72-1.68 2.54-2.3 4.17-1.62.14.06.26.13.39.22l.37.27c.1.07.18.14.27.23.51.54.98 1.28.98 2.04.87-.73 1.87-1.11 3.25-1.11.88 0 1.62.57 1.85 1.4.02.04.04.08.05.11.96-.51 2.18-.45 3.11.5l.05.05c.66-.63 1.62-.84 2.53-.34.85.47 1.1 1.27 1.11 2.17.14-.75.29-1.57.35-2.31.08-.96.35-1.92 1.02-2.64.67-.72 1.63-1.05 2.6-.9.7.11 1.35.46 1.85.95.27-.13.58-.24.91-.31.79-.18 1.58.13 2.03.8.18.27.23.26.51.44.41.26.7.58.9.93a7.006 7.006 0 0 1 1.34.48z" style="fill:#000"/><path d="M41.1 14.52c.61.16.4.56.54 1.18-.35-.09-.22-.07-.37-.45-.09-.23-.16-.4-.17-.73zm24.3 3.62c0 1.49 1.06.25 2.59-.76.63-.41 2.3-1.5 2.3-2.14 0-.56-.77-.53-1.27-.27-.16.08-.44.26-.61.38-.42.3-3.02 2.47-3.02 2.78zm-7.98-2.54.42-.01c.15-.77-.19-1.22-.32-1.8-.3-.08-.38-.16-.45-.45.24-.06.26-.08.44-.18.34-.74.54-.42.19-1.45-1.21.82-1.2 1.01-2.27 1.72-.01-.39-.07-.32-.09-.72-.05-.95.08-1.75.08-2.64 0-.54-.15-.58 1.19-.54.6.02 1.05.17 1.47.37.09-.27.23-.81.35-1.08.15-.36.41-.53.54-1-.64-.15-1.19-.76-2.99-.91 0-1.36-.57-.68-1.45-1.99-1.8.42-1.82 2.32-.76 3.66.47.59.47 1.49.49 2.41.02.92.18 1.82.18 2.72-.26-.28-.2-.18-.73-.18-.25 1.08.63 3.29 1.27 4.26.17.26.14.26.55.27.54-1.01-.33-2.14.08-3.18.35-.88 1.7-.7 1.82.73zm-7.62-2.72c.06-.68.53-1.49.54-2.17.34.25.36 1.4.36 1.9-.16.08-.7.22-.91.27zm-1.72.91c-1-.02-2.27-1.01-2.27 0 0 .68.8 1.31 1.65 1.52.48.12.42.11.61.48h-.54c-.04-.42.1-.16-.18-.36-.11.08.1.06-.27.09.09 1.05.35 2.72 1.36 2.81.1-.38.23-.26.4-1.05.1-.46.14-.89.23-1.31.14-.63.06-.59.71-.74.33-.08.88-.24 1.29-.25.07.32.24.56.38.89l.89 1.83c.16.31.29.6.73.63.48-.71-.08-1.31-.44-2.28-.31-.81-.14-.7-.01-.88.85-1.14.32-1.46-.39-2.25-1.02-1.13.03-6.52.03-7.27 0-1.24-2.4-2.48-2.63.45-.09 1.07-.67 4.16-.92 5.24l-.62 2.46zm-31.02 1.9c-.04-.22.17-.04.1.02h-.03c-.16-.02-.03.19-.07-.01zm2.18-2.81c0-.63.31-1.7.73-2.17v1.99c-.24.02-.55.1-.73.18zm-1.81 1c-.63-.3-1.33-.46-2.09-.63-.25 1.06.3 1.82 1.45 2.08-.11.08.1.06-.27.09 0 .99.24 2.43 1 2.99.42-.22.53-.34.66-.88.33-1.39-.02-1.95.81-2.27 1.87-.71 1.22-.26 2.87 2.61.1.17.14.31.32.43.51.34.41-.3.41-.62 0-.52-.58-1.22-.72-1.74-.24-.95 1.49-1.45-.17-2.99-.4-.37-.57-.37-.57-1.52l.31-4.22c.08-.51.14-.84.14-1.4 0-.73-.57-1.54-1.27-1.54-1.58 0-1.37 2.24-1.78 4.48l-.76 3.87c-.11.5-.26.8-.37 1.26zm61.67-1c.14-.28.17-.7.26-1.01.1-.34.25-.61.28-.98.32.23.18 1.02.18 1.81-.33.03-.43.11-.73.18zm-1.72.91c-.67-.06-1.12-.45-2-.45-.42.63-.39 1.02.65 1.71.34.22.33.21.78.31.41.09.46.08.56.52-.25-.12-.79-.29-1.09-.36.01.44.2 1.28.34 1.66.21.61.42.88.84 1.24.18-.12.26-.14.39-.33.11-.17.19-.43.22-.6.18-.99-.02-1.79.86-2.22.27-.13.95-.3 1.33-.3.09.33.06.15.23.4.11.17.17.28.25.48.15.36.26.59.4.96.32.8.42 1.14 1.11 1.61.1-.14.07-.08.18-.19l.09-.09.09-.09c-.06-.67-.91-1.85-.91-2.54 0-.32.54-.02.54-1.27 0-1.27-1.09-1.29-1.09-1.99 0-1.81-.03-2.91.1-4.71.06-.81.75-2.26-.38-2.99-1.76-1.13-2.03 1.46-2.3 2.85-.27 1.43-.72 5.32-1.23 6.38zm9.98 4.8c-.19-.81-.48-.92-.46-2.09.02-.92.41-1.54.43-2.08-.31-.48-.85-.62-.97-1.09.48-.13.67-.52 1.18-.63.03-.32.13-.6.17-.93.05-.5.06-.65-.35-.71-.91 1.12-.11.31-1.28 1.26-.39.32-.91.96-1.44 1.1.22-.93.04-2.44.16-3.38.06-.49-.19-.59 1.29-.52.61.03.99.16 1.27.53l.45-.08c.06-.33.18-.56.3-.87l.33-.98c-.74-.78-1.65-1.14-3.17-1.14 0-1.46-.71-1.03-1.09-1.54l-.36-.54c-.32.15-1.3.17-1.52 1.47-.18 1.08.34 1.63.75 2.21.47.68.4 1.66.41 2.58l.18 2.81c-.31-.23-.14-.34-.45-.45-.33.49-.31.58-.16 1.25.1.45.24.86.4 1.33.36 1.03.53 1.87 1.49 1.87.16-.69.07-1.25-.03-1.97-.17-1.23-.03-.86.39-1.66 1.33 0 1.37.72 1.17 2.53-.14 1.27-.3.67-.35 2.55-.01.45-.08.45-.1.9-.07 1.85.85 2.83 1.74 2.99h.54c.6-.12 1.08-.64 1.08-1.54-.56-.48-.27-.18-1.63-.18-.75-1.12-.37-1.73-.36-2.99zm-21.13-4.44c.1-.41.13-.74.26-1.1.53-1.44.84-2.34 2.19-2.34 1.77 0-1.19 2.78-2.45 3.44zm9.5 9.15h-.39c-.62-.08-1.27-.52-1.58-1.37-.4-1.11-.24-2.41.07-3.44.17-.58.24-1.12.37-1.72.3-1.43.12-2.44-1.44-2.44-.41.77-.56.7-.36 1.81.15.84.27 1.21-.09 1.9-.4-.01-.38-.01-.55-.27-.66-1.02-1.36-2.94-1.36-4.17.25-.06.48-.12.73-.18 0-.53-.04-.79-.1-1.25-.06-.42-.17-.72-.26-1.1l-.1.27c-.51 1.74-1.77 2.95-3.3 3.96-.57.37-.87.76-1.78.76-.02-.5-.07-.78-.32-1.13-.39-.54-.34-.68-.5-.86l.09-.22c.37-.35.57-1.01.83-1.5.15-.29.32-.48.43-.75.07-.17.06-.23.1-.44.17-1.11.86-.23 1.57-1.06.21-.25.35-1.19.48-1.61l.87-.01c1.18.41 1.1.97 1.72 1.69 0-.36.06-.76.07-.92.01-.37-.14-.35-.35-.6-.59-.7-1.51-3.2.74-3.73.08.11.29.41.39.52.25.27.2.16.51.31.39.19.51.62.56 1.16.45.1.92.12 1.41.22.45.09.74.25 1.1.44.31.17.69.47.8.83.09.26.06.33.19.64.09.23.12.29.13.59.05 1.02-.31 1.89-.79 2.38-.54.55-1.12 1-1.75 1.42.79 1.17 1.7.79 1.15 4.5-.68 4.64.11 3.27 1.75 3.65.24 1.03-.31 1.63-1.02 1.72zm-3.51-9.88v-2.99c.02-.41.09-.43.09-.91 1.03 0 2.81-.13 2.81 1 0 .59-.9 1.31-1.28 1.62l-1.18 1c-.24.2-.12.2-.44.28zm-59.85.09-.09-1.63c0-.94.18-1.63.18-2.45 1.51.35 2.81-.01 2.81 1 0 .68-.63 1.09-.88 1.3-.17.14-.24.25-.42.4l-1.61 1.39zm3.33 9.79h-.24c-.87-.07-1.82-.89-1.82-3.26 0-.67.08-.61.26-1.1.09-.25.18-.57.24-.84.12-.49.31-1.44.31-1.95 0-2.12-2-2.31-2-.91 0 1.38.56 2.72-.27 2.72-.45 0-1.88-2.97-1.54-4.44.51.12.36.23.63.54 0-.63-.16-1.29-.18-1.9-.06-1.92.07-2.63-.84-4.32-.14-.26-.26-.38-.43-.57-.07.32-.36.7-.36.91 0 .58.18.81.18 1.45 0 1.57-2.54 1.52-2.54-.72 0-.3.12-.83.18-1.09-.25.12-.33.09-.54.27-.12.1-.24.23-.31.42-.25.66.19 8.62-.15 10.09-.57-.05-1.08-.4-1.36-.72-.76-.88-1.07-2.12-.3-1.8.25.1.25.2.48.35 0-1.11-.73-5.06-.73-6.52-.78.02-2.45 1.43-2.45.54 0-.27.61-.84.82-1 2.36-1.81 1.1-.96 1.88-1.75.31-.31.72-.26 1.14-.58.71-.53 1.36-1.03 2.04-1.59.34-.28.73-.48.98-.83.19-.26.5-.87.85-.87.85 0 .95.19 1.18 1.18h.82c.09 1.1 1.13.25 1.27 1.9l1.38.25c.53.11.71.18 1.12.42.46.27.51.41.8.83.43.63.25.27.23 1.12-.01.61.07 1.03-.12 1.51-.31.78-1.72 1.98-2.33 2.39.3.44.63.57.94 1.15.56 1.03.26 2.65.1 3.79-.59 4.07.12 2.89 1.96 3.31 0 .55-.05.83-.3 1.15-.21.26-.58.45-.99.48zm9.37-6.98c0-1.17.09-2.01.09-3.17 3.39-.79.6 2.71-.09 3.17zm5.99-3.44c.09-.38.18-.68.29-1.07.1-.36.19-.73.43-1.02 0 .72.09 1.06.09 1.72-.32.21-.28.32-.82.36zm-5.99-3.9c2.08 0 2.25 1.31 1.17 2.44-.46.48-.61.41-1.08.64 0-1.15-.09-1.97-.09-3.08zm4.17 4.89c-1.1-.09-1.3-.54-1.72-1.09-.17-.22-.31-.32-.46-.54.68-1.02 2.13-2.57.93-4.46-.27-.42-.54-.69-1-.9-.4-.18-.85-.3-1.41-.4-.31-.06-.5-.07-.77-.13-.43-.1-.71-.61-1.99.2-.68.43-.78 1.16-.44 1.68.36.54.8-.08 1.14 1.49.34 1.59.73 4.54.73 6.25l-.33-.22c-.02-.01-.04-.03-.05-.04-.24-.15-.28-.08-.53-.2 0 1.21.36.76.36 1.36 0 .46-.36.65-.36 1.18 0 .52.39 1 .91 1 .99 0 1.94-2.17 2.5-3.03.27-.41.51-.76.76-1.14.34.08.53.24.82.36.4.17.58.1.82.45-.35-.08-.51-.2-.82-.27 0 .98.01.97.3 1.69.24.62.18 1.04.88 1.2 1.09-.73.06-2.47 1.45-3.08.31-.13.82-.27 1.27-.27.08.34.4.75.57 1.15.19.45.31.8.52 1.21 1.16 2.34 2.55.15 5.84 1.96l1.69 1.03c.02-.01.04-.06.05-.04l.29-.25c.45-.42.38-.75-.05-1.18L39.7 17.1c-.47-.65-1.22-1.9-1.22-2.95 0-.19.21-.44.27-.72.39.19.59-.08.9.92.46 1.49.85 2.59 2.28 3.34.04-.46.69-1.54.73-3.26.41-.03.72-.19 1.09-.27 0 .78.31 3.72.53 4.36.34.99 1.38 1.45 1.38-.29 0-1.4-.64-2.24-.64-4.62.5-.12 1.36-.69 1.36-1.27 0-.09-.27-1.18-1.36-.45 0-1.33.71-3.91.32-4.13-.38-.21-.56.62-.63.92-.21.93-.38 1.65-.56 2.61-.19 1.02-.21 1.75-1.4 1.77.18-.76.28-4.62-.44-5.36-.5-.52-1.37-.09-1.37.83 0 .67.33 4.72.45 4.98-.41-.1-.91-.11-1.26-.28-.33-.16-.52-.51-.83-.71-.35.08-.89.2-1.14.4-.86.69-.34 2.07-.05 2.87.17.47.51 1.06.56 1.62-.4-.19-1.77-.18-2.36-.18.01-.63.36-1.08.36-1.81 0-1.81-1.08-3.14-.49-4.84.25-.73.71-1.21 1.24-1.66.97-.82 1.52-.82 1.52-1.84 0-.36-.19-.45-.27-.82-1.44 0-2.12.59-2.9 1.63-3.04 4-.09 6.31-.09 8.16 0 .51-.91 1.45-1.18 1.63-.08-.29-.09-.18-.23-.49-.11-.24-.15-.35-.25-.57-.77-1.81.07-1.11.19-2.04.04-.32-.1-.98-.24-1.18-.82-1.14-.93-.13-.93-3.06 0-2.38.45-3.95.45-4.89 0-.18-.35-.61-.46-.72l-.37-.27c-.56-.23-1.32-.18-1.65.6l-1.42 7.64c-.11.42-.27.76-.37 1.17z" style="fill:#fdfdfd"/><path d="M62.41 10.17c1.39 0 .98.59.74.62-.02 0-.48-.08-.53-.11-.31-.16-.21-.06-.21-.52zm94.5-4.35h.73c-.17-.32-.17-.41-.63-.45-.05.21-.07.21-.09.45zm-64.39 4.71c.9 0 1.1-.08 1.66-.88.17-.23.21-.32.24-.66-1.64-.16-1.04-.32-1.77 1.04-.1.19-.12.28-.14.5zm61.76 10.33c.42.04.53.31.97-.31.3-.43.03-.77.25-2.19l.32-2.22c.02-.37-.08-.46-.09-.81-.3-.03-.4-.14-.63 0-.42.26-.56 2.99-.66 3.88-.05.44-.17 1.15-.17 1.65zM94.79 8.9c.09.37.11.31.4.51.28.19.29.2.51.49-.12.24-.08.1-.09.45-.55.05-1.45.67-1.9.91-.46.24-1.63.64-1.63 1.27 0 .33.38.34.6.67.44.64-.16.65 1.1 1.44.38.24.48.06 1.02.06-.01-.45-.09-.45-.36-.64-.57-.38-.2-.2-.83-1.16-.19-.3-.36-.34-.44-.65.71-.16 2.7-1.09 3.11-2.05.16-.38.29-.93.33-1.39-.68-.46-.41-.25-1.1-.12-.48.1-.33 0-.72.21zm6.98 9.33.09.54c.81 0 .98-.21 1.45-.54l2.41-1.67c1-.74 1.2-.77.95-1.86-.86 0-1.09.11-1.62.47-.62.42-3.28 2.35-3.28 3.06zM88.44 8.13l-.33.98c-.13.31-.25.54-.3.87l-.45.08c.21.47.04.56 0 1 .42.06.4.21.35.71-.04.33-.14.6-.17.93.12.24.11.54.09.91-.01.23-.03.34-.07.47l-.23.34c-.02.55-.41 1.16-.43 2.08-.02 1.17.27 1.27.46 2.09 2.82 1.36 2.49-.86 4.5-.33 1.14.3 3.9 1.57 4.66.15l-1.72-.09-3.9-.82c-.41-.07-.45-.04-.55-.45h-.82c0 .48.11.69.27 1-.68.36-1.39.2-1.98-.38-.54-.53-.38-1.65-.2-2.43.62 0 .97-.05 1.45-.09-.11-.23-.24-.57-.34-.84-.21-.55-.34-2.65-.26-3.21.2-1.33.44-2.49 1.5-3.3 1.38-1.05 2.43-.23 3.84-.96.35-.18.42-.27.8-.38 1.24-.36 1.57.4 2.43.98.06-.73.28-1.27-1.34-1.65-1.5-.36-1.61.65-4.01.75-.86.04-2.48.43-2.87 1.21-.19.37-.04.36-.39.38zm70.01-.14c-.07-.27-.29-.47-.52-.84-.19-.3-.9-.61 1.24-.61-.12.53-.34 1.19-.73 1.45zm1.9-4.17c0 .46.22.85-.03 1.24-.53.84-1.02.69-1.94.98l-.14.04c-.08.02-.06.01-.16.01-.12.01-.19 0-.34.02-.15.02-.51.09-.66.16-.21-.31-.22-.28-.54-.45 0-1.46 0-.53.8-1.55l1.17-1.28c.59-.6 1.25-.7 1.93-.25 0 .53-.09.63-.09 1.09zm-4.44 1.36c0 .55.09.67.09 1.18-.7.16-1.63.38-1.63 1 0 .23.07.25.28.28.38.06.28-.07.44-.19 1.49-1.16 3.65.98 1.98 2.05-.71.45-1.61.14-1.61.76 0 .31 1.1.24 1.65-.16l.8-.65c.62-.43.72-.67 1.06-1.02.14-.14.23-.21.36-.36 1.04-1.23 1.19-3.12 2.07-2.56.01.01.04.03.05.04.52.4.16.9-.06 1.41-.03.06-.18.44-.18.45-.02.24.06.21.23.33.41-.77.62-1.18 1.63-1.27-.1.39-.96 1.1-1.32 1.31-.34.2-.05.08-.48.15-.24.04-.36.03-.52.21-.09.11-.12.23-.24.39-.33.42-1.32 1.26-1.79 1.56-.83.54-.77.58-.95 1.77-.27 1.78-.35 4.25-.59 6.02l-.46 3.62c-.3.02-.54.12-.82.18-.02.24-.04.25-.09.45.61.01 1 .44 1.65-1.16.31-.77.36-1.52.44-2.55l.55-5.52c.21-1.48.22-2 1.08-2.64l2.97-2.29c.32-.27 1.38-1.27 1.38-1.7 0-.24-2.33-1.45-2.72-1.54 0-.7-.01-1.25-.14-1.86-.16-.76-.81-.95-1.49-.95-.9 0-1.67.81-2.15 1.29l-.8.94c-.28.27-.67.48-.67 1.03zm-48.43 3.71.1 3.63c.05.63.08 1.23.08 1.99-.25.06-.63.16-.63.45 0 .83.24 1.46.55 1.99.67 1.17 1.36 1 1.36.55 0-.78.03-1.12-.08-1.85-.09-.6-.03-.48.35-.6 0 1.08 1.23 2.75 1.86 3.57.86 1.12 1.76.9 1.76.23 0-.9-2-2.85-.96-7.3.18-.77.42-1.58.42-2.39 0-.86-.49-1.02-1.18-1.18-.47.7-.66.69-.92 1.98l-.35 2.55c-.85-.62-.36-3.64-1.27-5.35h-.82c-.13.56-.27 1.02-.27 1.72zm37.55 3.99c.01-.61.26-1.29.63-1.54 0 .57.05.84.09 1.27-.32.07-.47.14-.73.27zm-2 .82c-.88 0-.76-.45-1.9-.45-.08.3-.59.98.38 1.62.3.2.51.38.89.47-.47.71-.54.46.12 1.96.16.36.73 1.89 1.32.65.48-1.01.19-3.05 1.98-2.86.9.1.19.96 1.2.96.45 0 .19-.5.61-.75.18-.11.66-.06.66-.79 0-1.49-1.27-1.61-1.27-2.81v-1.45c0-3.18 1.62-5.89-1.45-5.89-.54 0-.84 1.37-.95 1.95-.09.47-.09.8-.16 1.29-.07.41-.3.65-.34 1.2-.07 1.03-.21 1.68-.39 2.6-.07.34-.43 2.29-.7 2.29zm7.53-.54c.01-.48.16-1.23.18-1.72.03-.67.09-1.09.09-1.81.42-.12 1.44.04 1.95.14.48.09.49.07.55.54.17 1.39-2.36 2.76-2.77 2.86zm3.52 10.15h-.47c-.59-.07-1.17-.4-1.37-.95-.05-.13-.04-.16-.09-.27-.03-.07-.07-.12-.11-.17-1.35-1.97 1.53-5.9.05-7.22-.23-.2-.49-.35-.74-.3-.98.22-.34 2.11-.34 3.28 0 .33-.89 1.09-1.76-1.41-.26-.74-.42-1.53-.6-2.3.78-.41.72-.49.64-1.45-.06-.69-.02-2.84-.22-3.39-.38-1.03-.96-.84-.96-2.59 0-.47.23-.92.47-1.16.29-.29.69-.38 1.25-.38.14.54.68.63 1.02.97.49.5-.03.65 1.03.97.59.18 1 .27 1.49.51 1.22.6.73.55 1.02.98.16.24.53.65.49 1.45-.03.57-.17 1.15-.43 1.56-.32.51-1.48 1.75-2.08 1.91.75 1.41 1.54 1.25 1.05 4.59-.53 3.66-.05 2.56.22 3.57.66 0 .95.09 1.54.09.25 1.09-.37 1.63-1.11 1.72zm-38.52-14.5c1.49.35 1.85 5.48 1 6.98-.47.82-1.03 1.24-2.08 1 .06-.69.53-1.7.54-2.27l1.63-.54c-.14-1.62-2.85-3.99-1.09-5.16zm-2.81 1.36c0 1.2.19 2.1.75 3.05.71 1.21.51.58.33 1.76-.09.59-.21.33-.33.93l-.31 2.14c.45.1.69.34 1.23.41 1.17.16.12-.64 3.53.56l.32.12c-.06.14.05.13-.47.26-.28.07-.43.12-.64.18-1.65.46-1.7.13-3.43 1.29.06.26.16.42.27.63l2.05-.67c1.71-.48 2.67-.52 4.34-.27.52.08.85.02 1.33.13.61-1.15.19-1.48-1.23-2.03l-.94-.31-.06-.03c-1.13-.65-.73-.32-1.76-.7-.24-.09-.47-.21-.72-.27.06-.69 2.03-2.12 1.48-6.09-.17-1.22.19-1.66-.63-3.36-.81-1.71-2.48-2.47-3.92-.96-.76.79-1.19 1.95-1.19 3.25zm-10.07 3.71c.04-.42.14-.64.3-.97.14-.29.22-.67.37-.9.13-.19.19-.17.29-.36.09-.16.06-.23.2-.42.08-.11.72-.54.84-.52l.72.11c.01 1.17-.58 1.6-1.33 2.27-.2.18-.18.17-.4.32-.34.23-.53.36-.98.47zm-7.44 1.45c0 1.26-.15 1.35.57 2.15 1.45 1.61 5.05-.52 5.14-1.7.24.02.25.01.42.14.05.04.16.31.31.31 1.75 0 6.36-3.56 5.41-6.11-.07-.18-.12-.38-.19-.55-.63-1.48-5.03-2.81-5.03.95 0 .45.52.39.91.54l-1.6 2.75c-.34.63-.12.54-.62.92-.58.43-.59.75-1.76 1.23-.7.29-2 .54-2-.64l.36-1.35c.16-.35-.03-.22.36-.28.18.75 1.07 1.58 1.98.62.39-.41.38-.77.31-1.36-.08-.65-.09-1-.11-1.71-.02-.72-.19-.46-.19-1.63 0-.68-.01-1.19-.08-1.74-.1-.92.09-2.8-.83-2.8-1.02 0-1.26 2.92-1.43 3.65-.1.46-.93 3.56-1.17 3.9-.2.29-.14.21-.28.54-.31.73-.48 1.2-.48 2.15zm40.36-6.07c.1-.19.17-.37.26-.56.27-.59.83-1.21.83-1.89 0-.54-.33-.85-.54-1.18-.82.07-1.17.17-1.61.65-.35.38-.61.91-.91 1.36-.79 1.2-2.64 1.34-4.01 1.34-.91 0-.64-1.36-2.36-1.36-1 0-2.82-.06-3.71.1-.72.12-.82 1.42-.82 2.35 0 1.12.33 3.53-.47 4.34l-.05.05-.36.26c-.18.13-.31.22-.48.34 0-3.99 1.7-8.15-.82-8.15-1.44 0-1.07 3.31-1.23 4.39-.16 1.07-.04 4.28-.04 5.49 0 .35.1.7.31.87.26.22.59.17.87.31.14-.21.33-.46.52-.66l1.18-1.36c.22-.25.25-.51.75-.52 0 .95-.21 2.15.36 2.54.77-.18.57-.76.69-1.58.36-2.56.4-5.06.4-7.66.49.01.65.16.71.56l.3 3.5c.17 1.42.62 2.96.62 4.55-.42.11-.54.37-.54.91.71.19.75.45 1.81.45.66 0 1.27-.4 1.22-.98-.06-.75-.98-.58-1.49-.83.18-2.15.27-1.09.27-3.99 0-.74-.02-1.5.07-2.11.08-.57-.17-1.7.48-1.7.36 0 .27.43.37.81.08.29.16.6.29.89.34.73 1.8 2.79 2.37 3.52.24.31.4.3.42.85-.23.11-.09.03-.29.07-.03.01-.12.02-.15.03-.4.11-.46.35-1.01.35-.31 0-.35-.07-.63-.09-.03 1.43-.82 3.76-.82 5.62 0 .32.45.48.73.54 1.14-.76.89-3.97 2-4.71.24.16.28.23.45.45 1.9 2.5 3.63 1.9 3.63.09 0-.58-.96-1.68-1.34-2.09-.08-.08-.1-.12-.16-.21-.96-1.29-2.74-2.95-3.34-3.82-.19-.28-.47-.76-.5-1.13.77-.06 1.89-.1 2.63-.27 0 1.01-.45 1.45-.45 2.45 0 .83 1.53 2.03 2.33.25.5-1.11-.07-1.92 2.84-2.6 0 1.12.2 2.01.28 3.08.03.48.11 1.06.18 1.54.07.53.27.89.27 1.45-.35-.03-.36-.09-.82-.09-.07.26-.12.28-.27.45.4.6 1.04 1.48 1.62 1.92.31.24.44.25.83.16.3-.62.19-1.9.1-2.64v-4.24c.08-.6.14-.56.04-1.24-.08-.48.05-.77.04-1.31-.01-.66-.09-.94.54-1 0 .43.11 1.3.22 1.69.08.31.17.44.4.59.7.45 2.1.19 2.1-.74 0-1.33-.68-.69.1-2.53.34-.79.99-1.43.88-2.43-.01-.12-.11-.49-.2-.62-.69-1.1-1.88.47-2.35.94-1.61 1.61-2.45 1.74-3.67 2.77-.35.29-1.41 1.31-1.84 1.42zm-74 .91-2.18.09c-.04-.5-.09-.25-.09-1.09 0-.42.81-.85 1.38-.85.58 0 1.07.54 1.07 1.22 0 .31-.1.33-.18.63zm2.27 2.27c-.38 0-.49-.11-.83-.17-.34-.07-.51-.1-.9-.1 0 .8-.03 1.8-.18 2.45.55.13 1.15.28 1.65.44 1.32.44 1.12.49.79 2.91-.03.25-.08.51-.18.89-.07.27-.19.53-.26.83-1.97 0-.82-1.22-.82-3.44-.88-.2-2.1-.36-3.17-.36l-.98 5.18c-.17.54-.16.66-1.1.44-.29-.6.11-1.44.26-2.73.4-3.64.66-.86.65-6.05 0-1.67-.09-1.99 1.72-1.99.54 0 1.05.09 1.51.22 1.29.37 1.52 1.01 2.39-.76.24-.49.46-.97.91-1.27.49.12.7.24.51.77-.14.4-.38.61-.57.98-.31.59-.65 1.78-1.39 1.78zM65.59 7l-.09.54c-.29.07-.56.18-.91.18-.19 0-.53-.75-.14-1.05.29-.22 1.14-.12 1.14.32zm-2-2.72c.1 0 1.09.47 1.37.54.33.09.21.07.55-.16.32-.21.9-.71 1.35-.03.45.7-.36 1.48 1.45 1.9.01.39.09.57.09 1.09-1.58.13-1.36 1.15-1.36 1.72-.26.18-.12.18-.45.27-.02-.09-.18-.58-.23-.68-.12-.23-.24-.29-.4-.59-.03-.3.54-.45.54-1.36 0-.97-1.56-1.88-2.63-1-.66.53-.76 1.69-.11 2.2.3.24.61.25 1.02.34l-.7 1.03c-.33.35-.93.23-1.12-.12-.18-.33.18-1.49-1.63-1.91l.11-.99c.5-.12 1.16-.42 1.26-.98 0 0-.12-1.28.89-1.28zm-4.63 3.53c-.12.47-.39.64-.54 1-.11.27-.25.82-.35 1.08-.04.45-.03.57-.15.96-.1.33-.21.51-.24.85.35 1.03.15.71-.19 1.45.31.11.05-.07.28.18-.03.37-.02.36-.27.45.13.59.48 1.03.32 1.8l-.42.01-.83 4.16c-.58 2.79 2.13 4.44 3.2 3.02.55-.72.13-1.22.32-2.03l.6-3.11c.1-.51.03-.62.23-1.03.44 0 1.08.14 1.36.27-.15.63 0 .42-.28 1.17-.19.52-.34 1.8.66 2.24.82.36 1.77.09 2.21-.46.46-.56.31-1.83.5-2.58.12-.46.27-.75.16-1.2-.02-.5-.07-.78-.32-1.13-.39-.54-.34-.68-.5-.86l-.19.26c-.24-.11-1.02-.27-1.35-.35v-.63c.37 0 .66-.03.92-.07.41-.07.54-.17.89-.2-.03.37-.15.43-.18.78.37-.35.57-1.01.83-1.5.15-.29.32-.48.43-.75.07-.17.06-.23.1-.44.17-1.11.86-.23 1.57-1.06.21-.25.35-1.19.48-1.61l.87-.01c.02-.78.49-1.67-.06-2.42-.27-.38-.37-.14-.76-.33-.1-.1-.24-2.5-2.42-2.25-.89.1-.52.28-1.02.62-.07-.05-.58-.98-1.93-.48-.25.09-.65.37-.81.55-.25.27-.33.56-.42.94-.14.65-.15.49-.57.79-1.29.94.03 1.92-2.16 1.92z" style="fill:#e70204"/></svg>