<svg xmlns="http://www.w3.org/2000/svg" xml:space="preserve" width="188.411" height="163.274" style="shape-rendering:geometricPrecision;text-rendering:geometricPrecision;image-rendering:optimizeQuality;fill-rule:evenodd;clip-rule:evenodd" viewBox="0 0 94.35 81.76"><defs><style>.fil5{fill:#000}.fil4{fill:#fefefe}</style></defs><g id="Camada_x0020_1"><g id="_2014807202816"><path d="M94.35 39.18v3.42c-.02 1.59-.11 3.19-.38 4.73-.38 2.12-.78 3.97-1.42 5.93-.21.65-.42 1.22-.63 1.81-1.06 2.93-2.7 6.23-4.58 8.76l-2.06 2.84-2.8 3.2c-.67.67-1.77 1.91-2.51 2.39-1.45.95-2.79 2.09-4.26 3.01-.54.34-.96.61-1.49.96-.99.67-2.08 1.13-3.15 1.67-.31.16-.53.26-.85.42-.32.16-.45.27-.76.43-.92.45-2.54.94-3.61 1.29-1.98.65-3.88.97-6.03 1.23-3.83.47-3.46.49-7.43.49h-.19c-3.67 0-8.36-.97-11.79-2.15l-4.09-1.82c-.83-.48-1.73-.88-2.57-1.4l-3.05-1.93c-.21-.15-.35-.23-.56-.37-.41-.27-.76-.49-1.14-.8-.4-.32-.75-.57-1.14-.89l-1.57-1.38-.51-.51-2.8-3.12c-.17-.22-.28-.3-.47-.54-.17-.22-.24-.28-.42-.51l-1.64-2.33c-.54-1.04-1.42-2.3-2.15-3.76-.25-.5-2.41-4.95-2.51-5.35-.64 0-.94.08-1.6.08l-9.54-.08c-1.06 0-1.94-.1-2.72-.75C.97 53.36 0 52.51 0 51.01l.1-19.42c.13-1.15-.01-2.2-.01-3.48 0-1.39.16-2.23 1.12-3.19.77-.77 1.29-1.24 2.42-1.47 1.17-.24 4.21-.12 5.59.01.43.04.64-.04.94-.07.93-.1 1.92-.01 2.86-.01.45 0 .63.04.94.08.42.04.48-.06.91-.08 1.87-.06 2.4.47 3.1-.95l1.38-2.6c.71-1.24 1.59-2.36 2.33-3.58.51-.85 1.17-1.52 1.76-2.29.28-.36.67-.7 1-1.03.52-.52.89-1.04 1.46-1.49l2.59-2.39c.29-.29.75-.65 1.08-.86.84-.53 1.63-1.04 2.46-1.59.43-.29.78-.52 1.22-.81.41-.27.75-.53 1.19-.76.91-.46 1.77-.84 2.68-1.29 2.74-1.37 7.7-2.61 10.73-3.2 3.43-.67 7.08-.71 10.52-.03 1.41.28 2.71.59 4.06.92 1.97.49 3.83 1.14 5.71 1.81 1.05.37 5.92 2.63 6.81 3.16 1.54.93 3.06 1.85 4.5 2.94 1.79 1.35 2.37 2.15 3.87 3.65.23.23.37.44.59.68 1.34 1.53 2.54 3.3 3.77 4.93 1.74 2.3 3.18 5.63 4.14 8.28l.94 2.86c.83 2.99 1.61 5.82 1.61 9.46z" style="fill:#000"/><path d="M40.41 25.61c.11-.71-.12-1.74-.15-2.48-.04-.83.15-1.59.29-2.36.38-2.2.67-6.58 2.62-7.86.34-.22.41-.4.67-.68.63-.69 3.18-2.1 4.09-2.5 1.83-.81 3.77-1.42 5.57-2.29 1.18-.52 6.52-2.01 7.61-1.91 1.08.1 3.09 1.54 4.05 2.12 1.19.7 2.07 1.37 3.12 2.12.52.37 1.1.62 1.61 1.01l2.64 2.59c.51.55.85.8 1.35 1.27 2.13 1.98 3.18 3.4 4.12 6.43 1.07 3.48-.22 5.67-1.13 8.56-.56 1.77.38 2.65 1 3.98.81 1.75 1.78 3.48 2.68 5.18 1.13 2.15.82 1.92.88 4.36.02.82-.33 1.36-.71 1.9-.84 1.19-2.02 1.44-3.92 1.37-4.16-.16-6.41-4.54-8.12-2.85-1.52 1.51-2.95 3.39-3.7 5.51-.56 1.61-.59 2.71-.67 4.53-.08 1.82-.15 5.89.11 7.73.13.9 1.31 2.84 1.92 3.39 1.86 1.69 2.69 1.75 4.96 2.89 1.2.6 2.24 1.21 3.41 1.83 1.43.77 2.04 2.12 2.75 2.51.54-.28 2.47-1.94 2.91-2.36 5.46-5.77 8.97-10.87 11-18.7 1.36-5.23 1.8-11.11.89-16.45l-.07-.38C89.57 19.89 79.74 8.2 65.99 3.68l-.42-.14C57.02.82 50.16.86 41.63 3.55c-5.52 1.74-12.06 6.04-16.11 10.21-2.8 2.89-5.2 6.33-6.7 10.07-.53 1.32-1.64 1.05-3.02 1.04-2.77-.03-9.94-.29-11.97.19-.97.23-1.89 1.05-2.05 2.09-.36 2.41-.19 9.61-.14 12.16.05 2.75 0 5.45-.04 8.2-.04 2.82-.19 5.19 2.51 5.69 1.19.22 2.76.14 4 .14 1.66 0 7.13-.12 8.28-.03.85.07.8.3 1.05 1 1.52 4.12 2.66 6.01 4.95 9.49.43.65 1.18 1.95 1.78 2.26.45-.2.78-.61 1.13-.93 1.13-1.02 2.21-1.89 3.51-2.74 2.36-1.54 3.11-1.71 6.58-1.73 2.78-.01 1.47-.83 3.07-1.03 1.15-.14 2.91-.08 4.11-.07.89.01 3.29-.12 3.92.24.64.37.55.64 1.37.01l2.19-1.95c1.76-1.52 1.32-2.07 2.17-4.01.36-.81.34-.85-.36-1.28-1.18-.72-2.84-1.5-3.66-2.5-2.21-2.69-3.12-4.82-4.32-8.1-.3-.81-.53-2.38-1.26-2.94-.29 1.01-.04 2.42-.03 3.57.01 1.24-.01 2.48-.01 3.72 0 2.02.56 5.48-1.37 6.08-1.14.35-5.8.15-7.34.14l-22.38.02c-2.27 0-5.17.17-7.35-.06-1.19-.13-1.64-.75-1.77-1.96-.12-1.16-.08-2.36-.05-3.53.18-6.19-.1-12.47.04-18.68.03-1.3.24-2.1 1.21-2.51.93-.39 5.82-.27 7.15-.25.73.01 28.43.17 29.68 0z" style="fill:#fecb00"/><path d="M63.87 27.49c1.33-.19 2.06.14 2.82.75.51.42 1.31 1.31 1.59 2.04.65 1.69.22 4.73-.58 6.05-.46.76-1.04 1.51-1.56 2.15-.34.42-.58.53-.91.95-.74.92-2.13 1.66-3.33 2.08-1.21.42-1.5.64-3.02.62-1.1-.01-2.38-.04-3.33-.39-.4-.15-.78-.59-1.01-.85-.37-.4-.46-.62-.47-1.3-.02-1.77.82-4.47 1.58-5.69.5-.8.95-1.47 1.47-2.24.71-1.05.74-1.18 1.7-1.94.72-.57 1.15-1.03 2.22-1.41 1.09-.38 1.52-.65 2.83-.84zm-29.5 47.33c.7-1.45 1.73-4.29 2-6.1.19-1.23.27-2.35.49-3.57.2-1.14.41-2.55-.06-3.56-2.76-.28-5.46-.13-7.37 1.2-.4.28-.83.66-1.22.98-.55.45-3.52 2.55-3.38 3.21.13.58 3.57 3.59 4.39 4.31.74.66 1.57 1.32 2.48 1.91.77.51 2.09 1.62 2.67 1.62zm22.58-5.5c.03-.86.27-1.53.54-2.22.26-.67.41-1.37.67-2.03.56-1.43.99-2.34 1.42-3.99.37-1.43.92-2.76 1.24-4.18.31-1.41-.72-.79-1.44-.59-1.68.47-3.4.35-5.14.35-2.92-.01-.41.4-4.64 3.47-.56.41-1.02.75-1.56 1.14-.51.37-1.01.3-.6 1.84l1.25 4.16c.5 1.32 1.08 2.87 1.98 3.51.72.52 2.65 1.47 3.6 1.8.71.25 1.49.38 2.32.32 1.08-.08 1.21-.33 1.94-.73 1.37-.74 3.72-1.35 5.02-3.09.7-.94 1.12-1.13 1.31-1.4 1.25-1.7-.1-2.17-.74-3.62-.54-1.22-.82-2.95-.93-4.47-.14-1.99.15-2.83.11-4.65l-.13-.61c-.82-.24-.92.8-1.05 1.49-.35 1.8-.9 2.76-1.27 4.14-.59 2.22-1.1 3.83-1.93 6.01-.25.65-.52 1.24-.76 1.94-.24.71-.34 1.36-1.21 1.38zM44.57 40.31c.24 1.94 1.16 3.18 1.9 4.68.69 1.39 1.65 3.02 2.58 3.84.57.51 1.14 1.02 1.71 1.51.31.27.52.5.85.75 2.18 1.64 3.73 1.02 6.05.04 5.26-2.21 7-4.52 10.24-9.03 1.6-2.23 1.33-1.44 2.37-4.05.49-1.23.34-.27.9-2.31.42-1.54 1.71-3.5 1.26-4.88-.25-.79-1.54-2.14-2.17-2.64-1.07-.86-1.74-1.2-2.94-1.88-2.77-1.58-6.56-2.33-9.88-2.96-2.79-.53-5.68-1.2-8.57-.8-2.15.3-2.24.55-3.61 1.18-.36.16-.7.37-1.02.58-.63.41-1.21.83-1.3 1.89 1.39 1.01 2.97 1.68 3.91 2.93.81 1.07 1.79 2.99 2.37 4.39.68 1.62.91 3.91.14 5.64-1.11 2.5-3.53 1.32-4.78 1.12z" style="fill:#8ab532"/><path d="M60.08 6.25c.12.21.19.4.35.63.16.25.27.34.42.62-2.34-.19-.39-1.32-5.78.34-4.09 1.26-4.66 1.54-8.17 3.66l-2.93 1.8c-.7.54-.82.71-1.05 1.32-1.03 2.85-.84 2.77-1.33 5.76-.26 1.59-.76 2.87.05 4.01 1.27.04.96-.93 3.6-1.71.75-.22 1.26-.47 1.97-.65.35-.09.8-.14 1.11-.25.72-.25.15-.26 1.43-.26 2.16 0 4.42.14 6.41.61.95.23 1.85.52 2.88.67.63.09.99.26 1.36-.08.24-.23.15-.21.45-.39.25-.15.32-.16.55-.37.11-1.05-.08-1.51-1.04-1.68.02.82.41 1.61-.49 1.68l-.18-2.02-.48-.01c-.49.75.22 1.46-.71 1.63l-.24-.79c-.23.21-.56.81-1 .6-.17-.34-.17-1.32-.24-1.77.51 0 .45.07.66-.26-.35-.32-1.25-.37-1.72-.47-.7-.15-1.03-.44-1.83-.4-.34 1.29-.26.86-.21 2.31-.32.18-.32.17-.67.1-.37-1.04-.06-1.83-.02-2.89-1.95-.46-.7.77-1.25 2.48l-.83.03.04-2.34c-.8-.43-1.57-.35-.79-1.36.38-.49.49-1.23 2-2.74.61-.61 1-1.31 1.97-1.75.45-.21.99-.25 1.44-.42 2.62-1.02 5.75.61 6.36 2.45.36 1.06.78 3.68.66 4.91-.09.98-.61.27-.76 1.18.68 0 1 .12 1.08.78.06.54-.11 1.11-.22 1.6-.55-.03-.86-.19-1.32.03.13.42.23.34.73.45.57.13.21.18 1.05.32 1.57.26 4.11 1.74 5.42 2.51 1.62 1.01 4.95 3.46 6.54 4.02.47-.59.44-.92.72-1.71.82-2.3 1.81-3.28 1.35-6.02-.29-1.71-.74-2.36-1.41-3.66-.6-1.15-1.39-1.87-2.3-2.77-1.68-1.62-3.52-3.1-5.3-4.76-.88-.82-1.81-1.45-2.88-2.2-.98-.69-1.9-1.46-3.48-1.61.18-.77.29-.76-.46-1.12-.61-.29-.92-.35-1.51-.05zM45.06 62.62c-.05.12-.34.19-.03.55.19.22.38.2.73.14.17-.39.01-1.94-.56-2.11-.6.48.05.98-.14 1.42zm2.18 4.8c-.1-.67-.22-.91-.51-1.46-.13-.24-.19-.4-.28-.65-.14-.36-.12-.4-.51-.47-.19.63.01 1.13.3 1.61.28.47.46.86 1 .97zm19.17 1.98c.8.03.73-.26 1.08-.74.15-.2.77-.84.42-1.16-.49-.45-1.61 1.19-1.5 1.9zm-17.75 2.48c-.08-1.23-.56-2.76-1.59-3.02-.01.84.44 1.05.71 1.62.29.64.08 1.26.88 1.4zm14.7.36c.98.49 2.58.1 2.12-1.21-.62-.04-.59.34-1.2.51-.58.17-.87.02-.93.7zm-7.75 3.01c.4.27 3.05.56 2.64-.36-.17-.38-1.11-.34-1.56-.3-.6.05-.91.21-1.08.66zm6.48-1.61c-.81-.16-.9.03-1.52.27-.37.14-1.2.29-.82.8.31.43 1.09.1 1.47-.07.55-.24.85-.33.87-1zm-11.01-.31c-.72-.27-1.06.41.94 1.6.52.31 1.41.56 1.66-.32-.42-.29-1.35-.51-1.83-.79-.28-.16-.42-.36-.78-.5zm-1.22 5.04c1.28.6 2.38 1.47 3.9 1.45-.08-.72-.52-.55-1.12-.78-.4-.16-.81-.38-1.19-.58-.35-.19-2.15-1.26-2.55-.84-.29.31.71.63.96.75zm-7.16.31c.58.1 1-.58 1.33-.85.23-.2.35-.34.56-.53.73-.66 2.13-1.78 2.33-3.34-.71.12-.7.47-1.17 1.21-.27.43-.58.92-.91 1.28-.19.21-.4.36-.65.53-.31.21-.33.24-.61.49-.36.32-1.01.62-.88 1.22zm2.59-5.28c.89.03 2.15-.68 2.18.52.02.74-.79 1.52-1.1 2.02-.46.73-.78 1.35-1.25 1.96-1.53 1.96-.27 1.3-.06 1.04l2.58-3.76c.33-.55.53-2.16-.05-2.46-.35-.18-1.03.02-1.4.07-.62.08-.81-.01-.89.61zm-7.47 3.57c.73-.03 1.23-.44 1.68-.79.81-.63 1.82-1.62 2.52-2.38.51-.56.87-.55 1.65-.23 0 .67-.08 1-.39 1.49-1.2 1.89-2.55 1.94-2.54 3.01 1.2-.08 4.53-3.82 4.27-5.03-.71-.03-2.14-.37-2.65-.25-.58.13-2.67 2.08-3.25 2.57-.9.75-1.31.78-1.28 1.62zm32.51-4.74c.05 1.34-.1 2.78-.09 4.14 1.26-.29 1.7-.69 2.73-1.27.43-.24.83-.43.93-1.01.12-.7.1-3.09-.02-3.77-.13-.72-1.7-1.29-2.37-1.52-1.2-.41-.37-.57-1.42-.53-.03 1.4.18 2.61.23 3.97zm10.16-28.99c.53-1.74-.13-2.74-.69-4.02-.51-1.16-1.1-2.36-1.68-3.47l-1.93-3.23c-.59-.82-1.77-2.5-2.92-2.16-.22.94 1.36 1.35 2.15 2.76 1.98 3.54 2.92 4.54 4.2 8.48.19.57.29 1.48.88 1.64zm-7.05-10.65c-.23.64-.66 1.21-.87 1.89-.22.7-.42 1.35-.64 2.06-1.34 4.35-2.77 4.45-.3 6.53 1.29 1.09 2.51 1.9 4.62 2.16 3.19.39 3.32-.03 2.86-1.94-.61-2.5-1.39-3.46-1.52-3.88-.35-1.14-2.07-4.29-2.87-5.33-.93-1.22-.34-1.4-1.27-1.49zM60.68 18.62l.13.29h.67c.43-.77-.02-3.67-.46-4.34-.62-.94-1.89-1.93-3.12-2.03-1.71-.14-3.03.33-3.88 1.17-.57.56-.73.53-1.22 1.31-.39.62-.84.88-.88 1.81l1.72.3c.97.3 2.47.47 3.54.68.84.16 2.92.78 3.5.8z" style="fill:#eef3f1"/><path class="fil4" d="M35.35 28.69c.23-.41.56-.74.97-.98.48-.28 1.03-.39 1.58-.39s1.09.11 1.57.39.84.68 1.08 1.19c.24.51.33 1.07.33 1.63v5.22c0 .56-.09 1.12-.34 1.63-.24.5-.6.9-1.07 1.18-.48.28-1.02.4-1.58.4s-1.1-.12-1.58-.4c-.12-.07-.24-.15-.34-.24-.03.06-.06.12-.11.18-.17.23-.42.35-.71.35h-1.49c-.32 0-.6-.16-.76-.42-.16.25-.44.42-.76.42h-1.35a.91.91 0 0 1-.46-.13c-.13.08-.29.13-.46.13h-1.38c-.11 0-.22-.02-.31-.06-.1.04-.2.06-.31.06h-3.66c-.4 0-.74-.26-.85-.63-.1.1-.21.19-.34.27-.47.32-1.01.45-1.58.45-.56 0-1.09-.13-1.56-.44-.09-.06-.17-.12-.24-.18-.03.06-.06.12-.11.18-.17.23-.42.35-.71.35h-1.49c-.32 0-.6-.16-.76-.42-.16.25-.44.42-.76.42h-1.35c-.11 0-.21-.02-.3-.05-.1.04-.2.05-.31.05h-1.38a.89.89 0 0 1-.88-.74l-.13-.76h-.15l-.13.76c-.07.43-.44.74-.88.74H8.92c-.28 0-.51-.11-.69-.33a.858.858 0 0 1-.18-.74l.67-3.27c-.1.08-.2.15-.31.21-.42.24-.88.36-1.36.37v2.86c0 .49-.4.89-.89.89H4.78c-.49 0-.89-.4-.89-.89v-9.66c0-.49.4-.89.89-.89h2.15c.52 0 1.04.11 1.49.38.46.27.8.66 1.02 1.15.12.27.2.55.25.84l.34-1.65a.88.88 0 0 1 .87-.71h.97c.43 0 .79.29.87.71l.83 4.07v-3.9c0-.49.4-.89.89-.89h2.05c.54 0 1.08.11 1.55.37.4.22.73.54.96.93.21-.38.49-.7.85-.95.47-.31 1-.45 1.56-.45s1.11.13 1.58.45c.12.08.23.17.34.27.11-.36.45-.63.85-.63h3.66c.11 0 .22.02.31.06.1-.04.2-.06.31-.06h1.38c.16 0 .32.05.45.12.13-.08.29-.13.46-.13h2.05c.54 0 1.08.11 1.55.37.4.22.72.53.95.91zm-7.73 2.12H26.5v.67H27.63v-.67zm0 4.05H26.49v.61h1.12v-.61zm-4.28-2.51h-1.3a.69.69 0 0 1-.25-.04v1.66c.08-.02.16-.04.25-.04h1.3v-1.58z"/><path class="fil5" d="M6.24 34.27v3.7c0 .03-.02.05-.05.05H4.81c-.03 0-.05-.02-.05-.05v-9.66c0-.03.02-.05.05-.05h2.15c.37 0 .74.07 1.06.26.31.18.53.45.68.77.17.38.23.8.23 1.21v1.56c0 .41-.06.82-.24 1.19-.15.32-.38.57-.68.75-.32.19-.69.26-1.06.26h-.72zm5.95 2.25h-1.57l-.25 1.46c0 .02-.02.04-.05.04H8.94c-.01 0-.03-.01-.04-.02-.01-.01-.01-.03-.01-.04l1.97-9.66c0-.02.02-.04.05-.04h.97c.02 0 .04.02.05.04l1.98 9.66c0 .01 0 .03-.01.04-.01.01-.02.02-.04.02h-1.38c-.02 0-.04-.02-.05-.04l-.25-1.46zm4.09-2.58h-.4v4.03c0 .03-.02.05-.05.05h-1.35c-.03 0-.05-.02-.05-.05V28.3c0-.03.02-.05.05-.05h2.05c.4 0 .79.07 1.14.27.33.18.57.45.73.78.18.38.25.8.25 1.22v1.09c0 .43-.07.86-.25 1.25-.16.34-.4.62-.73.81l-.02-.01.93 3.22c0 .01 0 .03-.01.04-.01.01-.02.02-.04.02h-.46c-.29 0-.52.24-.52.52v.51c0 .03-.02.05-.05.05h-.15c-.02 0-.04-.01-.05-.04l-1.02-4.04zm5.17 4.18c-.39 0-.76-.09-1.09-.3a1.33 1.33 0 0 1-.19-.14c-.01-.01-.02-.02-.02-.04v-.18c0-.27-.2-.49-.46-.52-.02 0-.03-.01-.04-.03-.17-.42-.23-.89-.23-1.34v-4.86c0-.46.06-.94.24-1.37.15-.36.37-.66.69-.88.33-.22.7-.31 1.09-.31.39 0 .78.08 1.11.31.33.22.54.54.69.91.18.45.23.97.23 1.45v.63c0 .03-.02.05-.05.05h-1.41c-.03 0-.05-.02-.05-.05v-.63c0-.16-.01-.34-.06-.5a.622.622 0 0 0-.18-.3.427.427 0 0 0-.29-.1c-.1 0-.19.03-.28.09-.09.06-.14.16-.18.26-.05.14-.06.29-.06.43v4.86c0 .14.02.29.06.42.04.1.09.19.18.26.08.06.17.09.27.09.11 0 .21-.03.29-.1.09-.07.14-.18.17-.29.05-.16.06-.34.06-.5v-.63c0-.03.02-.05.05-.05h1.41c.03 0 .05.02.05.05v.63c0 .48-.05 1-.23 1.45-.14.36-.36.68-.69.91-.33.22-.71.31-1.11.31zm4.19-8.15v2.35h1.94c.03 0 .05.02.05.05v1.6c0 .03-.02.05-.05.05h-1.94v2.29h2.23c.03 0 .05.02.05.05v1.61c0 .03-.02.05-.05.05h-3.66c-.03 0-.05-.02-.05-.05v-9.66c0-.03.02-.05.05-.05h3.66c.03 0 .05.02.05.05v1.61c0 .03-.02.05-.05.05h-2.23zm4.24 8.05H28.5c-.03 0-.05-.02-.05-.05v-9.66c0-.03.02-.05.05-.05h1.38c.03 0 .05.02.05.05v9.66c0 .03-.02.05-.05.05zm2.71-4.08h-.4v4.03c0 .03-.02.05-.05.05h-1.35c-.03 0-.05-.02-.05-.05V28.3c0-.03.02-.05.05-.05h2.05c.4 0 .79.07 1.14.27.33.18.57.45.73.78.18.38.25.8.25 1.22v1.09c0 .43-.07.86-.25 1.25-.16.34-.4.62-.73.81l-.02-.01 1.23 4.3c0 .01 0 .03-.01.04-.01.01-.02.02-.04.02h-1.49c-.02 0-.04-.01-.05-.04l-1.02-4.04zm5.3 4.18c-.4 0-.81-.08-1.16-.28a1.87 1.87 0 0 1-.74-.81c-.19-.39-.25-.84-.25-1.27v-5.22c0-.43.06-.88.25-1.27.16-.35.41-.63.74-.82.35-.2.76-.28 1.16-.28.4 0 .8.08 1.15.28.33.19.57.47.74.82.19.4.25.84.25 1.27v5.22c0 .43-.07.88-.25 1.27-.17.35-.41.62-.74.81-.35.2-.75.28-1.15.28zM6.23 32.59h.69c.1 0 .19-.03.27-.09.09-.07.14-.16.18-.26.05-.13.06-.27.06-.41v-1.1c0-.15-.02-.3-.06-.43-.03-.1-.09-.2-.17-.27a.439.439 0 0 0-.27-.09h-.69v2.64zm5.67 2.29-.5-2.96-.5 2.96h1.01zm3.97-2.62h.72c.1 0 .2-.02.29-.07.08-.05.14-.12.18-.21.05-.1.06-.22.06-.33v-1.04c0-.12-.02-.25-.06-.36a.578.578 0 0 0-.18-.23.49.49 0 0 0-.29-.08h-.72v2.32zm16.32 0h.72c.1 0 .2-.02.29-.07.08-.05.14-.12.18-.21.05-.1.06-.22.06-.33v-1.04c0-.12-.02-.25-.06-.36a.578.578 0 0 0-.18-.23.49.49 0 0 0-.29-.08h-.72v2.32zm5.7 4.11c.12 0 .24-.03.35-.09.1-.07.17-.16.22-.27.06-.14.08-.3.08-.45v-4.82c0-.15-.02-.3-.08-.44a.672.672 0 0 0-.22-.28.632.632 0 0 0-.35-.09c-.12 0-.25.02-.35.09-.1.07-.17.16-.22.28-.06.14-.08.29-.08.44v4.82c0 .15.02.31.08.45.05.11.12.21.22.27.1.07.23.09.35.09z"/><path class="fil4" d="M35.35 41.38c.23-.48.57-.87 1.03-1.13.46-.27.99-.37 1.52-.37s1.05.11 1.51.37c.46.26.8.65 1.03 1.13.23.49.32 1.04.32 1.58v5.22c0 .54-.09 1.09-.32 1.58-.23.48-.57.86-1.02 1.13-.46.27-.98.38-1.52.38-.53 0-1.06-.11-1.52-.38-.17-.1-.33-.22-.46-.35-.02.11-.07.22-.15.32-.15.2-.36.3-.61.3h-1.49c-.36 0-.66-.23-.74-.58l-.01-.05c-.06.36-.38.63-.76.63h-1.35c-.17 0-.33-.06-.46-.15-.13.1-.29.15-.46.15h-1.38c-.11 0-.22-.02-.31-.07-.1.04-.2.07-.31.07h-3.66a.77.77 0 0 1-.77-.77c-.14.17-.3.31-.49.44-.45.3-.97.43-1.51.43-.53 0-1.04-.13-1.49-.42-.13-.09-.26-.19-.37-.3-.02.11-.07.22-.14.32-.15.2-.36.3-.61.3h-1.49c-.36 0-.66-.23-.74-.58l-.01-.05c-.06.36-.38.63-.76.63H14.5c-.11 0-.21-.02-.31-.06-.1.04-.2.06-.31.06H12.5c-.38 0-.69-.27-.76-.64l-.15-.86h-.35l-.15.86c-.06.37-.38.64-.76.64H8.95c-.24 0-.44-.1-.59-.28a.775.775 0 0 1-.16-.64l.74-3.65c-.16.18-.35.33-.57.46-.43.25-.92.36-1.42.36v2.98c0 .42-.34.77-.77.77H4.8a.77.77 0 0 1-.77-.77v-9.66c0-.42.34-.77.77-.77h2.15c.5 0 .99.11 1.43.36.44.26.76.63.97 1.09.22.47.3.99.3 1.51v.2l.52-2.55c.07-.36.38-.61.75-.61h.97c.37 0 .68.25.75.61l1.07 5.25v-5.11c0-.42.34-.77.77-.77h2.05c.52 0 1.03.1 1.49.36.45.25.8.62 1.02 1.08.2-.45.5-.83.92-1.11.45-.3.96-.43 1.49-.43.54 0 1.06.13 1.51.43.19.13.35.27.49.44 0-.42.34-.77.77-.77h3.66c.11 0 .22.02.31.07.1-.04.2-.07.31-.07h1.38c.17 0 .32.05.45.15.13-.1.29-.15.46-.15h2.05c.52 0 1.03.1 1.49.36.44.25.78.61 1.01 1.06zm-.32 4.76c-.07.08-.14.16-.22.23l.22.76v-1zm-7.29-3.02h-1.37v.91h1.22c.05 0 .1.01.15.01v-.93zm0 4.03c-.05.01-.1.01-.15.01h-1.22v.85h1.37v-.87zm-4.28-2.5h-1.43c-.13 0-.26-.04-.37-.1v2.02c.11-.06.24-.1.37-.1h1.43v-1.83zm-4.74 1.48c-.07.08-.14.16-.22.23l.22.76v-1z"/><path class="fil5" d="M6.24 46.7v3.7c0 .03-.02.05-.05.05H4.81c-.03 0-.05-.02-.05-.05v-9.66c0-.03.02-.05.05-.05h2.15c.37 0 .74.07 1.06.26.31.18.53.45.68.77.17.38.23.8.23 1.21v1.56c0 .41-.06.82-.24 1.19-.15.32-.38.57-.68.75-.32.19-.69.26-1.06.26h-.72zm5.95 2.25h-1.57l-.25 1.46c0 .02-.02.04-.05.04H8.94c-.01 0-.03-.01-.04-.02-.01-.01-.01-.03-.01-.04l1.97-9.66c0-.02.02-.04.05-.04h.97c.02 0 .04.02.05.04l1.98 9.66c0 .01 0 .03-.01.04-.01.01-.02.02-.04.02h-1.38c-.02 0-.04-.02-.05-.04l-.25-1.46zm4.09-2.58h-.4v4.03c0 .03-.02.05-.05.05h-1.35c-.03 0-.05-.02-.05-.05v-9.67c0-.03.02-.05.05-.05h2.05c.34 0 .68.05.99.19.02.01.03.02.03.04v.66c0 .29.24.52.52.52h.44c.02 0 .04.01.05.04.07.26.1.54.1.81v1.09c0 .43-.07.86-.25 1.25-.16.34-.4.62-.73.81l-.02-.01 1.23 4.3c0 .01 0 .03-.01.04-.01.01-.02.02-.04.02h-1.49c-.02 0-.04-.01-.05-.04l-1.02-4.04zm5.17 4.18c-.39 0-.76-.09-1.09-.3-.32-.21-.54-.52-.69-.88-.18-.43-.24-.91-.24-1.37v-4.86c0-.34.03-.68.11-1 .01-.02.02-.04.05-.04h.04c.29 0 .52-.24.52-.52v-.51c0-.01.01-.03.02-.04.06-.05.12-.1.19-.14.33-.22.7-.31 1.09-.31.39 0 .78.08 1.11.31.33.22.54.54.69.91.18.45.23.97.23 1.45v.63c0 .03-.02.05-.05.05h-1.41c-.03 0-.05-.02-.05-.05v-.63c0-.16-.01-.34-.06-.5a.622.622 0 0 0-.18-.3.427.427 0 0 0-.29-.1c-.1 0-.19.03-.28.09-.09.06-.14.16-.18.26-.05.14-.06.29-.06.43v4.86c0 .14.02.29.06.42.04.1.09.19.18.26.08.06.17.09.27.09.11 0 .21-.03.29-.1.09-.07.14-.18.17-.29.05-.16.06-.34.06-.5v-.63c0-.03.02-.05.05-.05h1.41c.03 0 .05.02.05.05v.63c0 .48-.05 1-.23 1.45-.14.36-.36.68-.69.91-.33.22-.71.31-1.11.31zm4.19-8.15v2.35h1.94c.03 0 .05.02.05.05v1.6c0 .03-.02.05-.05.05h-1.94v2.29h2.23c.03 0 .05.02.05.05v1.61c0 .03-.02.05-.05.05h-3.66c-.03 0-.05-.02-.05-.05v-9.66c0-.03.02-.05.05-.05h3.66c.03 0 .05.02.05.05v1.61c0 .03-.02.05-.05.05h-2.23zm4.24 8.05H28.5c-.03 0-.05-.02-.05-.05v-9.66c0-.03.02-.05.05-.05h1.38c.03 0 .05.02.05.05v9.66c0 .03-.02.05-.05.05zm2.71-4.08h-.4v4.03c0 .03-.02.05-.05.05h-1.35c-.03 0-.05-.02-.05-.05v-9.67c0-.03.02-.05.05-.05h2.05c.4 0 .79.07 1.14.27.33.18.57.45.73.78.18.38.25.8.25 1.22v1.09c0 .43-.07.86-.25 1.25-.16.34-.4.62-.73.81l-.02-.01 1.23 4.3c0 .01 0 .03-.01.04-.01.01-.02.02-.04.02h-1.49c-.02 0-.04-.01-.05-.04l-1.02-4.04zm5.3 4.18c-.4 0-.81-.08-1.16-.28a1.87 1.87 0 0 1-.74-.81c-.19-.39-.25-.84-.25-1.27v-5.22c0-.43.06-.88.25-1.27.16-.35.41-.63.74-.82.35-.2.76-.28 1.16-.28.4 0 .8.08 1.15.28.33.19.57.47.74.82.19.4.25.84.25 1.27v5.22c0 .43-.07.88-.25 1.27-.17.35-.41.62-.74.81-.35.2-.75.28-1.15.28zM6.23 45.02h.69c.1 0 .19-.03.27-.09.09-.07.14-.16.18-.26.05-.13.06-.27.06-.41v-1.1c0-.15-.02-.3-.06-.43-.03-.1-.09-.2-.17-.27a.439.439 0 0 0-.27-.09h-.69v2.64zm5.67 2.29-.5-2.96-.5 2.96h1.01zm3.97-2.62h.72c.1 0 .2-.02.29-.07.08-.05.14-.12.18-.21.05-.1.06-.22.06-.33v-1.04c0-.12-.02-.25-.06-.36a.578.578 0 0 0-.18-.23.49.49 0 0 0-.29-.08h-.72v2.32zm16.32 0h.72c.1 0 .2-.02.29-.07.08-.05.14-.12.18-.21.05-.1.06-.22.06-.33v-1.04c0-.12-.02-.25-.06-.36a.578.578 0 0 0-.18-.23.49.49 0 0 0-.29-.08h-.72v2.32zm5.7 4.11c.12 0 .24-.03.35-.09.1-.07.17-.16.22-.27.06-.14.08-.3.08-.45v-4.82c0-.15-.02-.3-.08-.44a.672.672 0 0 0-.22-.28.632.632 0 0 0-.35-.09c-.12 0-.25.02-.35.09-.1.07-.17.16-.22.28-.06.14-.08.29-.08.44v4.82c0 .15.02.31.08.45.05.11.12.21.22.27.1.07.23.09.35.09z"/><path class="fil4" d="M19.8 38.69c.17.1.29.28.29.5v.68c0 .2-.1.38-.26.48.22.08.38.29.38.54v.69c0 .32-.26.57-.57.57h-1.56a.57.57 0 0 1-.57-.57v-4.13c0-.32.26-.57.57-.57h1.56c.32 0 .57.26.57.57v.69c0 .26-.17.48-.41.55z"/><path d="M18.08 37.46h.59v4.13h-.59v-4.13zm.26 3.44h1.3v.69h-1.3v-.69zm0-1.7h1.18v.68h-1.18v-.68zm0-1.73h1.3v.69h-1.3v-.69z" style="fill:#000;fill-rule:nonzero"/></g></g></svg>