<svg xmlns="http://www.w3.org/2000/svg" xml:space="preserve" width="80" height="96" style="shape-rendering:geometricPrecision;text-rendering:geometricPrecision;image-rendering:optimizeQuality;fill-rule:evenodd;clip-rule:evenodd" viewBox="0 0 27.58 33.1"><defs><style>.fil1{fill:#fefefe;fill-rule:nonzero}</style></defs><g id="Camada_x0020_1"><g id="_2475182505280"><path d="M25.25 26.76c.26.16.43.42.4.77-.05.48-.52.75-.95.96-.22.11-.45.22-.68.32.32.3.51.69.5 1.16v.02c-.03.58-.23 1.15-.78 1.5l.02.02c.15.14.22.31.23.5.01.12-.01.24-.06.36-.4.95-2.19.8-3.04.56-.49-.14-.97-.36-1.34-.68l-.03-.03a1.83 1.83 0 0 1-.56-1.09c-.01-.07-.02-.14-.02-.21l-.21.06c-.28.06-.56.04-.84.04h-.53c0 .27 0 .54.02.82.05.67-.53 1.44-1.38 1.21-.57-.16-.72-.72-.77-1.19-.05-.54-.03-1.15.02-1.77-.06.04-.13.07-.2.1-.16.07-.19.18-.25.34-.04.12-.09.23-.14.35-.02.06-.05.12-.07.18-.02.05-.04.09-.06.12a.3.3 0 0 0-.04.08l-.12.24-.12.24c-.03.07-.07.14-.1.21-.02.05-.05.08-.06.1l-.03.06c-.03.06-.06.11-.09.17-.03.05-.06.1-.1.15l-.01.01c-.04.07-.09.14-.16.2a.81.81 0 0 1-.31.19c-.23.08-.48.04-.66-.11-.14-.12-.22-.28-.2-.45-.01-.1 0-.2.03-.29l.08-.25c.02-.05.04-.09.06-.11.02-.04.05-.09.07-.13l.12-.24c-.01-.02-.02-.03-.03-.05a.644.644 0 0 1-.09-.36.47.47 0 0 1 .02-.26c.02-.05.03-.1.04-.15.03-.1.05-.2.08-.29l.03-.1c-.02-.02-.04-.05-.07-.07-.06-.07-.11-.12-.15-.17-.01.01-.02.03-.04.04-.02.03-.04.06-.06.1a.47.47 0 0 1-.13.15l-.02.02-.03.03c-.08.08-.17.15-.26.21l-.1.07c-.09.09-.2.15-.31.21-.07.03-.14.07-.22.1-.08.03-.16.05-.25.07-.09.01-.18.03-.27.02l-.15-.01c-.02.02-.04.03-.07.04-.4.26-1.08.4-1.4-.06-.34-.49-.15-1.41-.09-1.97l.15-1.18c-.07.03-.19.08-.26.12l-.03.16c-.03.18-.06.36-.11.53-.05.19-.09.38-.14.56.08.35.12.69.04.92-.31.98-1.9 1.26-2.27.13-.17-.52-.27-1.08-.41-1.61-.09-.33-.15-.66-.22-1-.19.07-.35.11-.53.16-.04.22-.06.55-.09.72-.08.57-.18.99-.42 1.53-.12.26-.43.41-.74.34-.31-.07-.51-.33-.47-.61L4 28.21a.54.54 0 0 1-.33-.54c0-.05.01-.11.02-.18-.13-.07-.25-.14-.39-.26l-.03-.03a1.45 1.45 0 0 1-.33-.46.539.539 0 0 1-.1-.3v-.01c-.02-.08-.03-.16-.03-.25l.07-.8c.01-.12.06-.26.1-.37.02-.06.05-.13.07-.19.01-.02.01-.04.02-.06.03-.06.06-.12.09-.17.04-.07.08-.13.12-.2l.11-.17c.03-.05.06-.1.1-.15.05-.07.11-.14.18-.2l.03-.03c.03-.04.06-.08.11-.12.03-.03.07-.06.1-.09l.18-.15.15-.12c.03-.03.06-.05.09-.08a.99.99 0 0 1 .17-.11c.04-.02.09-.05.13-.07.03-.02.07-.04.1-.05.04-.02.07-.04.11-.06.02-.01.04-.02.07-.03.06-.02.11-.04.17-.07.1-.04.21-.08.31-.1.02-.01.05-.01.07-.01h.01c.04-.01.09-.02.13-.02l.16-.03c.11-.02.23-.04.34-.03l.56.05h.01l.21-1.68c-.04-.03-.08-.05-.13-.08-.04-.02-.07-.05-.1-.07a1.01 1.01 0 0 1-.16-.13c-.04-.04-.09-.08-.13-.12-.13-.12-.24-.22-.35-.35-.23-.27-.4-.58-.59-.88-.17-.28-.32-.57-.41-.87-.07-.23-.09-.57-.06-.82.06-.64.29-1.15.64-1.64-.08.03-.18.04-.3.04-.04 0-.07-.01-.1-.01-.02.13-.05.27-.06.4-.02.18-.11.33-.28.42-.17.1-.36.12-.55.06l-.16-.05c-.23-.07-.39-.24-.42-.46-.41.24-.89.33-1.38.12-.57-.24-1.08-.79-1.18-1.36-.13-.79.59-1.59 1.38-2.2-.28.09-.57.06-.88-.07-.74-.31-1.34-.85-1.59-1.56-.09-.26-.15-.59-.09-.86.07-.36.33-.48.62-.69.44-.33.88-.7 1.29-1.06.48-.43.77-.74 1.03-1.32C3.63 6 4.21 3.31 5.6 2.24l.08-.06c.02-.01.04-.03.06-.04.34-.2.75-.34 1.13-.12.38.23.4.63.36.99v.01c-.02.12-.04.24-.06.35.21-.44.48-.87.76-1.24.45-.59 1.26-1.5 2.13-1.49.67 0 1.39.45 1.66.98.05.1.09.21.12.31.12-.16.23-.32.35-.49.04-.05.07-.1.11-.15.08-.15.23-.34.34-.45.24-.23.46-.45.76-.62.05-.03.1-.05.15-.06.01 0 .01-.01.02-.01.16-.08.3-.12.48-.13.24-.02.46.07.6.26.04.06.1.12.15.18.09.13.12.27.08.42l-.05.22c-.01.04-.02.08-.05.12-.09.18-.22.33-.32.5-.02.04-.04.07-.06.1a.76.76 0 0 1-.12.19c-.05.06-.1.14-.15.21-.67.97-1.35 1.94-2.01 2.92-.34.51-.69 1.02-1.05 1.53-.03.06-.07.13-.11.2.84-.78 1.85-1.24 3.04-.7.26.12.47.26.63.42.04-.07.08-.14.13-.21l.01-.01c.67-.92 1.85-1.65 3.12-1.6.3.01.63.04.94.1.04-.53.07-1.06.12-1.58.07-.69.37-1.14.99-1.55.53-.34 1.44-.28 1.49.43.03.36-.03.76-.05 1.12-.02.33-.04.66-.05 1-.01.17-.02.34-.02.5 0 .08.01.16.01.25 0 .19-.01.37-.01.56.8-.64 1.85-.93 2.95-.77 1.12.17 2.52.66 3.09 1.59l.03.04c.01.01.01.02.02.03.19.35.12.79-.05 1.13-.01.03-.03.05-.04.07-.06.1-.11.19-.19.25-.09.1-.21.22-.29.28-.01.01-.02.01-.03.02.09.07.16.15.2.24.12.25.12.8.07 1.07-.15.82-.67 1.23-1.36 1.71-.2.14-.45.2-.68.28-.06.02-.11.03-.17.03-.04.37-.12.86-.22 1.2-.02.12-.05.23-.08.34-.02.09-.05.18-.07.26 1.07-.34 2.14.37 2.64 1.18.09.15.17.31.23.47 0 0 0 .01.01.01.03.09.06.19.09.29.03.11.06.21.05.32 0 .06-.01.13-.02.19v.02c-.01.08-.01.16-.02.24 0 .03-.01.06-.02.09-.01.02-.02.05-.02.07-.02.06-.04.13-.06.16a.92.92 0 0 1-.14.28c-.06.09-.11.18-.18.27-.05.06-.09.11-.13.15.13.14.23.34.25.58.04.35.01.82-.08 1.16-.06.23-.14.44-.25.65-.16.3-.35.48-.55.74-.07.1-.17.17-.27.24-.01 0-.01.01-.02.01-.05.03-.1.06-.15.08-.03.02-.06.03-.09.05-.03.01-.05.03-.08.04-.02.15-.03.3-.05.44-.02.15-.04.31-.07.46l-.03.19c.57.36.95.92.93 1.65v.01c-.04.68-.26 1.36-.91 1.75.02.01.03.02.05.04.19.15.29.36.29.59 0 .15-.03.29-.09.43-.12.25-.33.43-.59.55z" style="fill:#201e1e"/><path class="fil1" d="M22.82 22.64c.07-.04.03-.05 0 0zm-4.46 2.41c.5.31 1.17.6 1.8.52.87-.29 1.17-.71 1.35-1.28.05.46-.01.83.42 1.34 1.02 1.03 3.39 1 3.37.17-.02-.58-1.28.01-1.6 0-.69-.02-1.1-.78-1.31-1.27 1.57.43 3.36.88 3.48-1.15.05-1.52-2.45-2.1-3.74-.81-.02-.09-.02-.23.08-.45.39-.89.88-2.02.63-3-.17-.68-.54-.09-.63.34-.04.27-.3 2.58-.73 2.45-.08-.02-.61-.3-.87-.39-1.87-.61-3.56.06-3.38 2.02.05.57.63 1.16 1.13 1.49zm1.61-.1c-.16.01-.43-.07-.62-.14-.87-.35-1.58-.98-1.42-1.91.26-1.56 3.44-.73 3.26.03-.03.12-.12.32-.17.47-.14.52-.29 1.5-1.05 1.55zm2.98-2.39c-.04.02-.04.02 0 0zm-.52 1.14c-.26-.23.22-1.05.58-1.17 1.43-.29 2.9 1.11 1.51 1.6-.7.25-1.54-.02-2.09-.43z"/><path class="fil1" d="M17.18 24.25c-.29-.1-.33.04-.37.23-.19.77-1.63 7.74-.62 8.02.76.21.51-1.23.56-2.02.85-.07 2.02.12 2.29-.33.47-.8-1.88-.52-2.23-.49.11-1.28.31-2.72.61-3.98.61.71 1.39 1.74 2.15 2.28.61.44 1.46.17 1.51-.22.03-.23-.15-.11-1.11-.78-.69-.48-2.75-2.7-2.79-2.71zM7.6 20.69c-.53.04-2.1-1.72-1.98-2.92.11-1.09 1.16-2.36 1.92-2.48l.43-.07c-.03-.38.39-1.06.77-1.1l.83 1.41s.15.14.29.32c.13-1.36.24-2.77 1.2-3.24.06-.03.21.01.13.33-.07.26-.27.34-.3.61-.08.61-.15 1.21-.22 1.82l1.55-.55c.07-.61.14-1.23.23-1.84.04-.33.55-.96.79-.81l-.74 7.42c-.08.28-.1.89-.3.93l.08-.65-.24.91-.04-.69-.18-.04c-.15.03.22-3.94.26-4.22l-.55.11-.64 3.29.38-3.16-.07.01-.13.75-.05.01c-.08-.19.02-.48.05-.68-.4.09-.44-.23-.47.95l-.07 2.46-.51.73c-.12.47-.25 2.62-.42 3-.11-.2.19-2.65.2-2.96-.11-.18-.12-1.68-.03-3.25-.53.53-.44-.32-1.57-.61-.03.22-.06.43-.08.65l-.08.01.09-.71-.08.01-.19.39-.04-.49c-.27-.19-2.13-.19-1.05 1.87.2.38 1.04 1.57 1.61 1.4.51-.21.35-1.57 1.15-1.93.46-.21-.35 2.29-1.07 2.71l-.61.54-.08-.17c-.02.06-.28 2.09-.46 2.4-.02.03-.03.07-.03.06.1-.84.21-1.69.32-2.53zm-3.55-7.91.17-2.92c-.35.79-.98 1.98-1.66 2.55-.63.53-2.11-.87-1.92-1.74.06-.29 2.14-1.33 2.91-2.95.64-1.35 1.32-4.25 2.59-5.12 1.03-.7.21 1.51.07 2.2-.4 2.08-.54 5.43-.64 7.6.69-.05 3.14-.2 3.49.62.55 1.27-.28.88-1.43.95-.68.04-1.54.38-2.16.62 0 .06-.02 1.49-.14.77-.12-.72.13-.86-.62-.39l-.17 1.5-.16-.05.03-1.24c-.56.44-1.11 1.21-1.76.93-.34-.14-.76-.52-.82-.93-.14-.87 1.48-1.97 2.22-2.39zm12.96-2.69c-.43-.06-1.14-.37-1.47-.75-1.75-1.98.72-4.68 3.44-3.9l.49.09c.06-.73.1-1.5.17-2.22.11-1.08 1.2-1.45 1.23-1.13.03.44-.17 2.72-.11 3.77l.07 1.84c.12-1.6 1.69-2.69 3.4-2.44 1.14.17 3.27 1 2.61 2-.21.32-.53.62-.93.75-.01.16-1.13.23-1.35.23-1.19-.03-1.51-.17-2.47-.27l.45.9c.6.59.88.92 1.82 1.11 1.39.27.64-.47 1.09-1.1.12-.16.72-.59.94-.39.49.44-.05 1.97-1.38 2.36l-.69.19c-.02.31-.17 1.45-.29 1.62 0 .03-.06.09-.07.12l-.04-1.51-.21.55-.12-.07.06-.78c-.94-.45-1.64-.23-2.59-1.91-.01.19-.06.56-.3.66-.01.1-.65.65-.92.34l-.27-1.49-.76.75c-.87.64-1.16.19-1.24 1.19 0 .05-.06.11-.07.16-.09-.1-.14-.74-.15-.64l-.13 1.78c-.18-.02-.14-.03-.17-.2l-.03-1.61zm5.09-3.17c1.32.13.8.36 3.56.43-.59-.84-2.57-1.24-3.09-1.01-.34.15-.41.5-.46.51v.06zm-2.85-.03c-.5-.05-1.05-.33-1.37-.36-.1-.01-.21.02-.31.01 0 .04-.05.18-.09.2-.16-.02-.08-.37-.57-.29-.31.05-.53.12-.67.4-.29 1 .54 2.06 1.77 2.04.73-.02 1.19-1.44 1.24-2zM8.32 8.44c1.65-2.71 2.31-3.75 4.46-6.71.31-.43.77-1.12 1.4-1.17.13.18.19.14.09.4l-3.88 5.76c-.31.5-1.64 2.78-1.65 3.04 0 .17.07.16-.03.37-.59 1.24-2.3 2.19-1.67.8l1.28-2.48zm4.55.74c.05-.4-.14-.93-.61-1.03-.81-.19-1.11 1.41-.85 1.76.21.27 1.18.34 1.45-.73zm1.43-.52c-.53 1.23-3.01 4-4.36 2.76-1.02-.93 1.49-5.84 3.85-4.78.92.42.8 1.28.51 2.02zm-5.15-4.1.05.05c.33-.03.6-1.04.47-1.21.03-.1-.3-.95-.61-.08-.11.32-.42 1.02.09 1.24zm.23 1.07c-.04 0-.52.34-.59.39l-.42.92-.01-.67-.47 1.31.12-1.28c-.06-.23-1.1-.01-.59-1.77.29-1.02 1.63-3.35 2.69-3.35.64 0 1.34.56 1.17 1.45-.27 1.37-.92 2.09-1.9 3.01zm11.84 14.36c-.41-.07-2.11-2.22-2.06-3.29.06-1.16.94-2.51 2.24-2.51-.02-.58.62-1.32.83-1 .11.16 0 .27.25.68l.5.88s.22.28.39.58c1.56-3.46 4.9-.06 2.91 1.55-.75.6-1.95.05-2.44.03-.06.54.8 2.53 1.81 2.2.28-.09-.12-.96.5-1.56.77-.75.55 1.92-.58 2.5l-.45.23-.33 1.95.07-1.69-.17.62c-.02-.03-.05-.05-.07-.08l.08-.87c-.24-.23-1.32-.46-1.6-2.4l-.42 1.3c-.04.33-.83 1.03-.99.96-.02.02-.21.25-.22.25l-.09-.21c-.01.02-.13 1.17-.27 1.91l-.11-.05c.07-.66.15-1.32.21-1.98zm1.83-3.35c-.36.15-.75-1.05-1.38-1.08l-.06.68-.08-.01.07-.74h-.08l-.17.39c-.12-.49.09-.53-.27-.62-1.87-.46-1.1 2.21.5 3.58.68.58.62-.27.91-1.18.08-.23.34-.41.54-.52-.01-.17 0-.33.01-.51zm-5.25 2.25-.07-.1c-.04.22-.15 1.14-.3 1.23-.06-.59.34-1.4.12-1.95l-.6-1.31-.22 1.96c-.08.05-.45.65-.72.59.14.85-.7 1.26-.92.87l-.44-2.4c-.13.01-.27.03-.4.05l-.46 1.82.19-1.69c-.17.03-.32-.43-.62.69-.2.66-.95 1.21-.81.58l.42-1.23-.24-.02.04-.39c.32-.61.61-.37.8-.94.38-1.19.64-1.52.81-2.76.06-.45.16-1.18.55-1.49.98-.8-.08.9.24 3.03l.27 1.32.17.09c.15.19-.18.3.18 1.16l.13.78.18-2.59c.04-.46-.07-1.21.09-1.6.04-.09.61-.98.8-.23l1.19 2.42.11-2.84c-.21-.07-.17-.05-.15-.25.05-.4.91-1.27 1.02-.82l-.11 3.95c0 .49.11 3.23-.09 3.48-.76.98-.77.09-1.01-.87l-.08-.02-.37 1.53.31-2.05zm-3.53-2.54-.18.53c.51-.07.24-.26.28-.54l-.04-.1-.06.11zm9.63-.69c.32.03 1.55.55 2.22.39-.31-.92-1.88-1.77-2.17-.55-.01.05-.03.08-.04.09l-.01.07zm-13 14.46c.18-.5.08-.42.53-1.04 1.29-1.79 2.38-3.02 3.99-4.65.24-.24.55-.54.93-.5.03.05.06.09.09.14-.22.65-2.26 2.31-3.1 3.56-.2.3-1.27 1.53-1.1 1.7-.13.36-.75.91-1.31.86l-.04-.06zm3.47-1.21c.9.51.69-.64-.03-.83-.35-.09-.18.67.03.83zm-1.13 2.95c.14-.2.99-2.1.7-1.98l-.28.64-.25.37c-.03-.04.01-.14-.02-.19.41-1.21.21-.87-.02-1.13-.35-.39-.11-.96.09-1.43.23-.53.6-1.1 1.26-.6.7.54 1 .86.54 1.68-.36.65-.73.21-1.06 1.1-.11.3-.79 1.87-1.05 1.96l.09-.42zm-.32-6.56c-.01.06-.02.16-.04.22.02.01.24.55.47-.12.08-.4-.15-.93-.44-.1zm-.8.07c.45-.67.78-1.3 1.62-1.39 0 0 .7.33.6.65.18.13-.58 1.42-.79 1.4-.72.66-.47-.06-1.04.89l.02-.36-.31.66c.23-1.31-.01-.56-.05-.81-.03 0-.11-.07-.11-.1-.27-.19-.01-.73.07-.94zm-6.6-1.23c-.67-.07-.96.68-.96.68 0 .03-.02.09-.04.18-.39 1.83 1.65 1.41 2.12 0 .08-.25-.12-.18-.22-.51-.03-.11-.15-.24-.29-.24-.2.57-.44 1.8-.24.3.01-.07.09-.4-.08-.36-.1.02-.39 1.14-.29-.05zM3.49 26.4c.01-1.28.1-1.76 1.2-2.67.5-.41 1.57-.68 2.07-.42.78.4.52-.1 1.19-.02.23.03-.18 1.03-.23 1.22.63-1.04 1.69-1.38 3.1-.9 1.08.34.99.66.65 2.08-.29 1.23-.41 2.57-.53 3.83-.08.83-.88 1.05-.98.92-.27-.38.22-2.86.23-3.83-.02-.01-.82.41-.95.46-.77.31-.55.31-.77 1.21-.02.1-.09.37-.18.68.09.33.14.6.09.77-.13.42-.86.72-1.06.13-.13-.41-.29-1.13-.4-1.58-.04-.17-.39-1.79-.39-1.8-.24.13-.24.23-.64.39-1.03.42-.84-.13-1.04 1.35-.07.56-.14.86-.38 1.39.1-.81.22-1.6.27-2.42-.67-.08.13.61-.42.48.07-.84.05-.39-.59-.89-.18-.17-.22-.35-.25-.37zm4.23.49c.14.69.36 1.32.51 1.82.09-.44.18-.88.25-1.33-.57-.06 0 .5-.38.62-.1-.25.19-.52-.09-.8-.11-.1-.2-.2-.28-.3zm2.49-2.48c-.25.01-.55 1.4-.5.77.02-.26.13-.6.19-.86-.46-.05-.1.15-.44.39-.12-.27.23-.76-.41-.59-1.18.32-.98 3.47 1.22 1.43.42-.39.29-.76-.07-1.15zm10.64 4.88c.07-.03.03-.04 0 0zm3.46-2.17c-.54.09-2.41.92-1.6 1.31.56.27 2.3-.63 2.33-.96.02-.2-.21-.44-.73-.36zm-4.65 2.76c-.26.7-.23.41-.14.59.14.5-.02.85.49 1.37 1.04.9 3.4.9 3.36.19-.03-.5-1.28-.01-1.6-.02-.69-.02-1.11-.68-1.33-1.1 1.57.39 3.37.8 3.45-.94.04-1.43-3.2-2.07-4.24-.08zm1.31-.66c-.03.01-.04.01 0 0zm-.49.97c-.26-.2.2-.9.56-.99 1.42-.23 2.91.99 1.53 1.39-.69.2-1.54-.04-2.09-.4z"/></g></g></svg>