<svg xmlns="http://www.w3.org/2000/svg" xml:space="preserve" width="80" height="96" style="shape-rendering:geometricPrecision;text-rendering:geometricPrecision;image-rendering:optimizeQuality;fill-rule:evenodd;clip-rule:evenodd" viewBox="0 0 26.76 32.12"><defs><style>.fil0{fill:#000}.fil2{fill:#0f0}.fil3{fill:#fe0000}.fil1{fill:#fff}</style></defs><g id="Camada_x0020_1"><g id="_2482563414944"><path class="fil0" d="M22.58 30.24c.15-.27.41-.46.69-.52-.22.46.01.59-.69.52zM12 0h1.17c.16.02.29.05.4.12 1.18.73 2.57 2.21 3.34 3.38.53.81 1.36 2.67 1.36 3.69.75-.56.04-3.93.69-4.93.29.16.17.12.41.37.2.21.23.14.26.41.17.26.23.33.48.5.36.17 1.65 1.64 1.96 2.12.43.67 1.16 1.94 1.18 2.94.55-.37.94-.82 1.5-1.21.99-.69 1.32-.52 2.02-.36-.04.47-.44.39-1 1.8-.94 2.42 1.17 4.74-.21 7.06-3.08 5.15-1.57 6.18-2.68 8.34l.44.41c.18-.13.18-.25.39-.38.38-.23 1.24-.09 1.98-.09.17.74.14-.07.08.94-.03.52-.21 3-.31 3.21-.1.17-.04-.2-.08.23-.01.07 0 .24 0 .32h.46c.16.12.1.01.15.23-.13.19-.29.32-.54.39.06.25.26.39.09.71-.07.14-.36.38-.48.46-2.36 1.48-1.75.86-2.45.78-.53-.06-.77.24-1.22-.63-.28.15-.25.13-.48.37-.65.69-.53.04-1.08.3-.4.18-.07.05-.58.03v-.63c-2.48 1.34-.51.63-2.83.63-.18.28-.09.23-.38.39-.23-.16-.39-.46-.46-.78-.36.09-.67.25-1 .38-.39.14-.48.37-.91.4-.07-.16-.11-.28-.15-.47-.55.38-.45.83-1.3.63 0-.58.13-.4.23-.78-.35.01-.39.14-.74.06-.43-.1-1.25-.44-2.09-.45l-6.66.01c-.39.01-.55.09-.61-.24-.04-.21.39-1.73.46-2.03h-.38c-.48 1.02-.07 2.3-1.3 2.35-.7.03-1.05.05-1.15-.23v-.49c.04-.27.14-.63.27-1.12.38-1.37.74-3.79 1.41-4.82h1.15c-.01-.42-.45-1.67-.58-2.53-.52-3.31.63-5.47 1.83-8.08.8-1.74.38-2.41.82-4.64.2-.99 1.35-3.71 1.98-4.15l.69-.7c.24-.37.9-.83 1.33-1.07.54-.3.93-.57 1.73-.57-.24 1.07-.25.4-.49 2.08-.08.53-.03.77.03 1.21.06.46.09.65.39.85.02-.72.76-1.91 1.15-2.5 1.2-1.85 1.38-2.15.31-4.22zm7.95 29.56c-.01-.21.08-.09.11.01.03.12-.1.15-.11-.01zm-5.51-.31c.08.19-.16.17.27.14.64-.05 1.32-.73 1.87.33-.08.15-.09.19-.2.35-.45.64-2.04 1.26-2.48 1.3.02-.28.73-1.23.91-1.43.43-.49.05-.43-.34-.19-.56.35-1.14 1.53-1.71 1.93.04-.48.57-.82.69-1.33-.81.02-.95.58-1.53.63.15-.56.34-.04.38-.63h-.69c.66-.47.41.42 1.85-.53.19-.13.28-.16.46-.31.18-.14.24-.23.51-.26zm5.2 1.88c.03-.35.31-.83.46-1.09.24-.42.37-.78.69-.86-.01.31-.06.39-.18.59-.13.21-.17.3-.27.5-.15.3-.38.77-.69.86zm4.05-1.17c.06-.17.01-.07.12-.19.02-.02.15-.13.17-.14.12-.09.2-.12.35-.19.2-.09.53-.29.73-.19.04.12.11-.02-.04.11-.12.11-.41.16-.57.2v.16c.42 0 .53.05.84.08-.03.41-.29.48-.7.77-.27.18-.57.4-.98.41l.34-.28c.12-.08.22-.13.34-.2.28-.17.46-.19.55-.53-.33 0-.44.06-.65.03-.31-.05-.26-.14-.5-.03zm-6.56-.61c.29-.31 2.18-.25 2.66-.25-.12.48-.6.22-.92.7.53-.01.41-.17.92.08-.04.47-.91.86-1.31 1.08-.87.49-.26.25-.98.25h-1.53l1.17-1.86zm5.41.14c.61-.14.59-.39 1.61-.39-.85.55-1.99.25-1.99 1.72.66.16.63-.02 1.15-.54.21-.21-.09-.12.3-.16-.11.48-.6 1.02-1.22 1.02-.91 0-.54-.25-.54-1.1-.28.08-.16.07-.37.25-.23.21-.84.75-1.09.77.03-.41.49-1.39.84-1.49-.08.16-.16.32-.22.48-.12.3-.19.46.02.37l.07-.05c.05-.04.15-.13.21-.18.37-.31.93-.82 1.3-1.02l-.06.22c-.04.16-.07-.07-.02.09zm-1.07-.86c0-.6-.16-.82.08-1.33h1.22c-.03.36-.07.13-.16.7-.05.32-.03.13-.09.38-.15.57.05.46-.41.83-.18.15-.23.23-.49.31-.01-.65-.21-.33-.2-.7 0-.25.05.1.05-.18zm-6.81.47c.01-.54.41-2.05.55-2.73.03-.16.13-.48.2-.66.5-1.31 2.26-1.51 2.38-.19.04.44-.45 2.51-.6 3.11-.06.26.03.07-.1.29-.04.07-.29.38-.36.43l-.33-.31c-.19-.14-.16-.05-.34-.18l.19-.8c.13-.44.48-2.09.48-2.48h-.23l-.43 1.67c-.05.23-.04.35-.09.53-.35 1.37-.22 1.1-.53 1.17-.14.03-.1.01-.26.05-.27.07-.12.1-.52.1zm5.28-.23c.04-.26.1-.4.14-.64.17-.98.47-3.01 1.24-3.42.42-.22 1.15-.29 1.48.11.41.5.24.76.16 1.32-.09.59.14.51-1.11.51 0-.52.18-.81.08-1.25-.45.31-.35.8-.54 1.56l-.37 1.76c-.76-.09.03.2-1.07.05zm-15.68.39c.28.12 0 0 .31.02.67.04.51.09.64-.53l.26-1.07c.04-.17.03-.17.07-.32.13-.47.23-.88.35-1.37.09-.35.13-1.2.51-1.2.4 0 1.18 0 1.51.1.67.21.3 1.2.27 1.34-.11.46-.17 1.1-.71 1.15.12.46.46-.01.02 1.89-.09.37-.16.71-.25 1.08h-.99c.15-.67.57-2.03.46-2.5h-.23c-.09.42-.21.89-.29 1.27-.08.36-.2.96-.33 1.23H4.71c-.46 0-.64.07-1 .08h-.84c0-.4.08-.5.16-.85.04-.18.07-.24.11-.43.16-.72.42-1.42.42-2-.2.3-.27.9-1.08 1-.4.05-.38-.1-.51.19-.18.39-.28 2.1-.7 2.1-1.09 0-.86.02-.72-.57.04-.16.04-.24.08-.39l.83-3.3c.19-.69.18-1.3.49-1.3 1.59 0 1.91-.2 1.91.86h.15c0-.48.12-.47.15-.86.83 0 1.12-.13 1.76 0l-.23 1.02H5c-.27 1.17-.56 1.09.38 1.09-.07.31-.2.69-.23 1.02h-.69c-.09.41-.32 1.02-.23 1.25zm18.98-2.72c.1-.31.19-.66.31-1.02.13-.41.15-.8.44-.8 1.71 0 1.37-.12 1.24.88-.07.58-.16 3.19-.33 3.34-.49.17-.24.02-.62-.07-.27-.06-.46 0-.72.03-.43.05-.32-.01-.57-.1-.22-.08-.37.05-.37-.26l.63-2.01zM8.77 24.8h.84c0 .76.08 1.21.08 1.96.21-.16.18-.14.23-.47.08-.45.24-1.49.53-1.49.87 0 .7-.02.49.82-.12.5-.65 2.64-.65 3.09.23-.17.48-1.18.59-1.51.07-.24.06-.25.15-.48.22-.6.52-1.92.8-1.92 1.38 0 1.42-.12 1.34.42-.12.89-.43 3.2-.43 3.96.27-.21.1-.11.18-.52l.89-3.86h1.07l-.79 3.49c-.09.43-.08.81-.35 1.04-.02.01-.11.07-.14.09-.14.09-.22.13-.33.21-.66.45-.57.31-1.64.38-.05-.37.08-.54-.18-.68-.4.11-.24.19-.36.57-.2.65-.61.45-2.16.45v-1.72c0-.22-.02-.14-.15-.23-.02.3-.15.84-.21 1.11-.22.96-.08.84-1.09.84l1.3-5.55zm9.43 4.09c-.25.08-.84.18-.85-.16l.63-2.88c.25-1.12.16-1.06.69-1.11.89-.07.28.85.58 2.16l.13-.5c.16-.7.17-1.52.52-1.65.01 0 .2-.04.2-.04.66-.06.45.27.45.3l-.83 3.93-1.22-.06-.15-.73c0 .38 0 .48-.13.73zm-.56-4.87c.31.09.23.06.23.47-.3-.16-.23-.02-.23-.47zm-3.65-.13c.19-.11.68-.04.96-.01.34.04.78-.01.78.3 0 .42-.13.79-.54.94l.08-.55c0-.36-.55-.23-.92-.23-.77.01-.55-.34-.36-.45zm2.5.29c.07-.26.16-.36.64-.39.13.23.13.12.2.39h-.84zm-5.96-.31c0-.23.22-.49.31-.63.31 0 .45.05.72.12.95.28 1.43.25 1.27.97h-2.29v-.47zm-1.84.47c.19-.29 1.07-1.06 1.53-1.1 0 .46-.08.68-.08 1.17-.47-.04-.86-.08-1.45-.08zm9.94-.86c0 .5-.09.7-.38.86l-.28-.68c.34-.2.08-.18.66-.18zm-11.16.39c0-1.29.34-1.74.46-2.19.62 0 .73.14 1.12.42 1.07.78.95.69-.13 1.54-.67.53-.57.78-.84.78-.55 0-.61.01-.61-.55zm-.31.47c-.32-.03-.28-.03-.43-.35-.14-.3-.51-1.06-.47-1.27.05-.23.85-1.12 1.3-1.27l-.28 1.38c-.04.33.02 1.19-.13 1.51zm-.92-2.27c.01-.34.25-1.15.39-1.48.09-.2.08-.24.3-.34.27.18.46.48.54.81-.99.68-.86.82-1.22 1.02zm-.31-1.25c0-.42.29-.69.54-.86 0 .41-.12.61-.24.93-.06.17-.05.06-.07.32h-.23v-.39zm.15-1.02c0-.39 0-.32.17-.57l.21.23c-.15.29-.11.19-.38.34zM24.59 9.63c0-.31.06-.02.13-.33.03-.12.02-.24.02-.37h.08c0 .85-.08 1.32.1 2.01l.23 1.09c.22 1.11.12.55.12 1.83h-.15c0-2.03 0-1-.36-2.68-.21-.96-.17-.37-.17-1.55zm-.84-.94c.33-.04.15-.01.4-.29.13-.14.22-.23.36-.33-.04.53-.36.25-.54.94l-.23-.31zm-1.3-.7c-.19-.04-.07.07-.11-.1-.07-.3-.02-.04.11-.06v.16zm-3.98.39c.03-.39.41-.69.67-1.97.05-.27.02-.57.02-.84h.15c.04.55.3.78.2 1.46-.15-.32.05-.09-.2-.29l-.34.91c-.2.47-.23.44-.5.74zM9.14 6.5c0-.43-.04-.7.07-1.02.04-.12.08-.28.13-.41l.18-.29c0 1.1-.11 1.23.34 2.15.11.23.2.25.27.51-.42-.29-.7-.95-.72-.99-.21-.27-.03-.07-.17-.01-.01 0-.04.05-.05.03-.01-.02-.03.02-.05.03zm11.41.67c.15.39.5.86.4 1.37-.14-.32.08-.2.13-.24.04.18.07.23.08.47h.15c0-1.07-.14-.7-.15-1.25.4.3.69 1.26.79 1.93.1.67-.19 1.52-.48 2.13.44-.12.05-.16.61-.55 0 .83-.48 1.62-.06 1.51.19-.05.02.04.29-.25.34-.37.32-.54.69-.79l.15.39c.01-.11.6-1.92.99-2.19 0 .42-.03.99.01 1.4.06.61.22.91.21 1.17-.02.33-.34 1.92-.53 2.28.17-.06.07 0 .18-.13.16-.18.06-.23.35-.58 0 .76-.21 1.3-.52 1.89-.11.22-.18.29-.32.45-.02.26-.11.37-.21.56-.41.77-.6 1.42-.84 2.28-.08.3-.07.35-.13.66-.06.29-.09.31-.13.65-.03.27-.02.35-.15.55.02.01.04.02.05.02.01 0 .04.01.05.02l.27.04c-.08.15-.14.27-.23.39-.85 1.19.19.12-.72 2.23-.12.28-.28.54-.35.82-.38-.03-.23-.13-.65-.16-.89 0-1.15.21-1.18-.15-.04-.44.48-.48.68-.79-.18-.04-.23-.07-.46-.08l1.53-1.17c-.01-.47-.15-.26.01-.61.05-.11.21-.32.27-.44l.41-1.06-1.35 1.67c-.39.48-.44.76-1.02.76-.02-.29-.02-.29-.31-.31 0 .57-.08.74-.52.88-.78.25-.48-.14-.39-.49-.44.04-.65.29-.94.52-.78.62-.46.56-.9.57.03-.34.16-.49.31-.7-.61-.13-.14.19-1.13.49-1.53.46-3.78-.81-5.2-1.45-.6-.27-1.56-1.03-1.96-1.52-.62-.77-.06-.56-.05-1.2-.26-.06-.57-.17-.79-.21-.47-.09-.39-.07-.74-.26v-.63c.32-.16.35.04.38-.39-.81-.02-.78-.35-.98-.64-.12-.17-.88-.65-.19-1.49.01-.01.05-.06.08-.06-.02-.22 0-.44.05-.66.03-.15.05-.22.08-.31.06-.19.03-.17.1-.2l-.05-.23-.31.46c-.07.2-.01.07-.09.23 0 .01-.09.17-.11.2-.1.24-.06.27-.12.51-.06.27-.06.18-.2.42-.18.29-.24.65-.1 1.01.19.52.33.21.17.93-.44-.01-.74-.2-.92-.47-.19-.04-.2.04-.15.23.35.03.12.01.23.08.01.01.03.02.05.03l.04.04.55.61c.21.24.1.19.36.26 0 .55-.21.65-.12 1.22.31 2.09-.41.97-.78.65-.23-.19-.15-.14-.35-.35-.21-.23-.17-.04-.29-.42-.3-.15-.15.15-.07.32.09.19.16.37.24.53 1.16.92.82 1.25 1.41 2.87.06.18.06.14.13.26.25.48.29.32.38.63l-1.15.01c-.6.16-.64-.03-.94-.39-.17-.2-.45-.6-.52-.88.38.03.22.14.61.23l-.27-2.31c-.05-.39-.04-.85-.21-1.11-.16-.24-.42-.36-.52-.72.44.04.24.2.69.23.11-.46.01-.74.25-1.77.37-1.6.06-.71-.1-1.43.24.06.22.1.46.16.22-.34.51-.95.72-1.37.21-.43.44-.95.61-1.41.37-1.02.52-2.14.8-3.24.03-.54.09-.9.09-1.41.37.14-.06.02.31.16.06-.71.46-2.58.99-2.97l.15.39c.06-.22.3-.56.54-.63 0 1.86.32 1.87.46 2.5h.15c.07-.32 0-.2 0-.63.44.24.36.43.86.69l.29.17c.34-.26.04-.31.56-.03.27.15.38.26.74.26-.01-.45-.15-.65-.15-1.17l.07.1c.21.21.19.03.22-.02.08-.18.23-1.08.55-1.32v1.49c.37-.28-.03-.89.54-1.72 0 .39-.08.54-.08 1.02h.08c0-.48-.04-.32.12-.66.35-.73-.04-.52.26-1.84.34-.07.25.06.37-.16l.47-1.63c.32.22 1.03 1.2 1.24 1.63.05.1.08.18.15.31.59 1.15.75 2.06.75 3.38h.08c0-.48.21-.68.23-1.41.18.28.25.84.31 1.09.08.34.1.91.23 1.17l.21-.34c0-.03.01-.04.02-.06v1.09c.35-.1.63-.44.79-.48l.15.02h.04c.32-.07.42-.66.86-.79-.04.43-.2.48-.23.86.32-.22.62-.99.77-1.41.08-.22.2-.61.23-.87.01-.16 0-.34.01-.5.02-.35-.11-.18.14-.43.1.44.3.48.4.98zM6.03 8.75c-.04-.34.24-1.09.38-1.36L7.73 5.3c.21-.25.64-.71.95-.74-.3.46-.89.82-1.52 1.96-.2.37-.38.67-.58 1.12-.11.24-.18.36-.27.59-.06.14-.07.21-.14.33-.03.05-.09.13-.14.2zm15.12-2.48c-.34-.25-.23-.34-.46-.78l-.29-.5c-.23-.42-.61-.79-.78-1.06.31.09 1.08.91 1.25 1.14.12.16.17.19.28.34l.69 1.17c-.34-.19-.39-.29-.55-.6-.19-.38-.16-.42-.45-.49.02.3.21.55.31.78zm-9.25-.63c.02-.3.26-.58.41-.83.45-.73 1.12-1.66 1.12-2.54h.15c0 .66-.14 1.01-.43 1.52l-1.26 1.84zm2.96-3.19c-.23-.32-.49-.53-.67-.8.27.07.22.11.49.36l.12.11c.51.44 1.11 1.06 1.43 1.67.08.15 0-.02.09.21-.38-.14-.29-.18-.46-.47-.19-.32-.26-.16-.46-.16l-.56-.92z"/><path class="fil1" d="M20.22 19.11c-1.07.7-1.64.44-3.09.44.22.31 1.76.7 2.26.82.4.1.55-.08.8.2-.73 0-1.1.02-1.7-.13-.48-.12-.9-.29-1.43-.34v.23c-.47-.04-.7-.47-.93-.44-.24.04-.15.8-.15 1.14h-.15c-.01-.32-.03-1.12-.31-1.33-.11.24-.11.44-.18.75-.09.38-.09.36-.35.5.02-.24.26-.9-.3-1.25-.14-.09-.22-.09-.38-.15-.22-.08-.11-.02-.31-.16.08-.35.38-.59.38-.78 0-.67-.49-.41-.54-1.02.6-.01.2-.3.74-.06.29.12.31.22.71.22-.04-.46-.36-.73-.46-1.17.6 0 .74.39 1.07.39l.68-.25c.01-.01.03-.02.04-.03.55-.32.89.26 1.11-.73.56.01.35.19 1 .09.49-.08.49-.08.98 0 .94.17 1.39 0 1.46.93.58 0 .3-.12.76-.23l.05.14c.13.14.13.09.33.1-.06.24.01.12-.19.27-.88.65.45.37-.75.64-.58.13-.75.56-1.12.66.29.4.42-.14.76.16-.16.23-.1.13-.39.22-.21.07-.25.09-.42.2zm-7.91-2.84c.13.17.49.31.61.31.51 0 .37-.61.99-.78-.05.65-.79 1.19-.29 1.94.15.22.22.18.29.48-.24-.02-.27-.08-.54-.08-.38 0-.08.6-.08.86-.63-.05-.32-.08-.54.86-.25-.19-.23-.36-.31-.7h-.15c-.03.15-.02.13-.06.25l-.09.22c-.06-.26-.04-.32-.09-.61-.04-.27-.08-.22-.14-.48-.32.03-.34.1-.38.4-.04.38.09.34-.11.59-.2-.48.25-1.12-.52-.77-.23.11-.01.07-.38.1-.4.03-1.49.1-1.68-.16.1-.19-.1-.09.65-.28l.65-.19c-.27-.29-.62-.24-1.28-.64-.98-.6-.92-.31-1.16-.77l.54-.16c-.45-.69-.55-.08-.78-.85-.17-.56-.37-.29-.37-1.18.32.09.13.16.38.16.29 0 .39-.44.47-.69.12-.41-.02-.54.36-.73.34-.17.44-.17.54-.62.08-.35.16-.51.16-.94h.08c0 .98.25 1.32.75 1.82.23.24.38.46.68.64.39.22.51.24.87.05.15.23.34.33.46.55.22.38.09.93.46 1.41zm-5.67-5.95c-.28 1.09-.43 2.21-.8 3.24-.17.46-.4.99-.61 1.41-.21.42-.5 1.03-.72 1.37-.24-.06-.22-.1-.46-.16.16.72.47-.16.1 1.43-.24 1.04-.15 1.31-.25 1.77-.44-.04-.25-.2-.69-.23.1.36.36.49.52.72.17.26.16.72.21 1.11l.27 2.31c-.4-.09-.23-.2-.61-.23.06.28.34.68.52.88.3.35.34.54.94.39-.15-.32-.16-.17-.31-.48.34.03.47.08.88.08-.05-.65-.05.09-.44-.77-.17-.36-.38-.45-.36-.87.03-.66.26-.32-.17-.86-.19-.24-.3-.57-.37-.88-.09-.16-.15-.33-.24-.53-.08-.17-.22-.48.07-.32.18.11.24.15.43.23.07-.44-.22-.05.22-.51.62-.65.09-1.11-.05-1.26-.22-.24-.16-.29-.29-.57-.05-.2-.04-.27.15-.23 1.05 0 .18-.6.44-.95.28-.37.22-.06.25-.69.05-.91 1.22-2.92 1.53-3.13-.05.62-.39 1.12-.48 1.72-.06.03-.03.01-.1.2-.03.09-.05.16-.08.31-.05.23-.07.44-.05.66.08.67.11.55.5.84.4.3.22.54.39.94.23.56.98.24.98 1.58 1.03.28.91.96 1.56 1.37l.75.33c.98.24 1.24.94 1.65 1.37.25.26.44.23.86.22.83-.02.52.33 1.72.04.29-.07.57-.15.87-.13.48.02.42.24.82.16.34-.07.25-.26.78-.22.48.03.27.11.72-.14.53-.29.71.1.94-.44.11-.25.01-.13.17-.37.39.11.29.31.61.49l1.18-.69c.29-.26-.09-.09.6-.72.17-.15.18-.21.3-.4.16-.25.42-.58.68-.62.24.42-.72 1.73-.84 2.56-.06.37-.02.36-.22.55-.24.22-.55.44-.84.62.06.06.02.02.13.1.14.1.02.02.14.09-.33.51-.08.6-.48 1-.16.16-.02-.09-.13.13.25 0 .44-.05.61.08.42.03.27.12.65.16.06-.28.23-.54.35-.82.91-2.11-.13-1.04.72-2.23.09-.13.15-.25.23-.39l-.27-.04c-.01 0-.04-.02-.05-.02-.01 0-.04-.01-.05-.02.13-.2.12-.28.15-.55.04-.34.07-.35.13-.65.06-.31.04-.36.13-.66.24-.86.43-1.5.84-2.28.1-.19.19-.3.21-.56 0-.34-.03-.54.01-.93.04-.37.14-.46.14-.95-.2.01-.18-.02-.35.11l-.04.04c-.25.22-.07.3-.45.4 0-1.05.23-.24.23-1.49-.25.07-.25.11-.38.31-.52-.04-.12-.22-.45-.06-.19.09-.16.21-.43.18-.18-.3-.04-.13-.13-.41-.13-.39-.08-.13-.2-.34-.2-.36.03-.54-.1-.99-.02-.08-.51-1.06-.52-1.59-.33.05-.13-.02-.32.21-.18.22-.51.55-.83.65l-.14-.74c-.58-.13-.87-.37-1.38.59-1.02-.24-.75.15-1.43.27-.53.1.11-.23-.1-1.13-.92 0-.42.73-1.37.9l.03-.9-.29-.14c-.12-.06-.56-.29-.59-.4-.1-.34.22-1.38-.03-1.92-.1-.22-.19-.3-.35-.34-.02.23-.11.53-.17.84-.18.94-.45.64-.58.56-.49-.29-.3.01-.48.32-.15.26-.11.09-.32.3-.29.29-.09.44-.52.64-.46-.32-.18-.43-.38-.86-.26.07-.25.19-.38.39-.96-.02-.69-.85-1.49-1.33-.14.13-.07.01-.11.23-.03.15.07.27-.08.53l-.16-.13c-.43-.36-.44-.94-.72-1.26-.25.03-.23.03-.34.25 0 .01-.12.34-.12.34l-.18-.29c-.11-.18.04-.06-.17-.22-.77.53-.14 1.74-.46 2.42-.31-.14-.2-.18-.54-.27-.05.26 0 .23-.24.35z"/><path class="fil2" d="M15.6 7.82c-.16-.71-.15-1.51-.36-2.21l-.48-1.39c-.06-.17-.11-.3-.15-.47l.33.29c.08.12.13.23.19.35.13.24.24.46.34.75.16.46.28 1.3.28 1.9 0 .82.05.64-.15.78zm-8.96 2.5c.24-.12.19-.09.24-.35.34.09.23.14.54.27.32-.68-.31-1.9.46-2.42.21.16.06.04.17.22l.18.29s.12-.33.12-.34c.11-.21.09-.21.34-.25.27.32.29.9.72 1.26l.16.13c.15-.26.05-.38.08-.53.05-.22-.02-.1.11-.23.8.48.53 1.31 1.49 1.33.13-.2.12-.32.38-.39.2.43-.08.55.38.86.42-.2.23-.35.52-.64.21-.21.17-.04.32-.3.18-.3-.01-.6.48-.32.13.08.41.38.58-.56.06-.31.15-.61.17-.84.16.04.25.13.35.34.25.54-.06 1.58.03 1.92.03.11.47.34.59.4l.29.14-.03.9c.95-.17.45-.9 1.37-.9.2.9-.44 1.23.1 1.13.68-.12.41-.51 1.43-.27.51-.96.79-.72 1.38-.59l.14.74c.32-.1.65-.43.83-.65.2-.24 0-.17.32-.21.01.52.5 1.51.52 1.59.13.45-.1.63.1.99.12.21.08-.04.2.34.09.28-.04.11.13.41.27.04.24-.08.43-.18.33-.16-.07.02.45.06.13-.2.13-.24.38-.31 0 1.24-.23.44-.23 1.49.37-.1.2-.18.45-.4l.04-.04c.18-.13.15-.1.35-.11 0 .49-.1.58-.14.95-.04.38-.01.58-.01.93.14-.17.21-.23.32-.45.31-.59.52-1.13.52-1.89-.3.35-.19.4-.35.58-.12.13-.01.06-.18.13.18-.36.51-1.95.53-2.28.01-.26-.15-.56-.21-1.17-.04-.41-.01-.97-.01-1.4-.39.27-.98 2.08-.99 2.19l-.15-.39c-.36.25-.35.42-.69.79-.26.29-.09.2-.29.25-.42.11.06-.68.06-1.51-.56.38-.17.43-.61.55.29-.61.58-1.46.48-2.13-.1-.67-.39-1.64-.79-1.93.01.55.15.18.15 1.25h-.15c-.01-.24-.03-.29-.08-.47-.04.03-.26-.08-.13.24-.14.28.07.14-.22.23-.08-.26-.09-.56-.17-.79-.13-.4-.25-.31-.28-.81h.28c-.09-.5-.3-.54-.4-.98-.26.25-.12.08-.14.43-.01.16 0 .35-.01.5-.02.26-.15.65-.23.87-.15.42-.45 1.19-.77 1.41.03-.38.19-.43.23-.86-.44.13-.54.72-.86.79h-.04l-.15-.02c-.15.03-.44.38-.79.48V8.7c-.01.02-.02.03-.02.06l-.21.34c-.13-.27-.15-.83-.23-1.17-.06-.25-.13-.81-.31-1.09-.02.73-.23.92-.23 1.41h-.08c0-1.32-.16-2.23-.75-3.38-.07-.13-.1-.21-.15-.31-.21-.43-.91-1.41-1.24-1.63l-.47 1.63c-.12.23-.04.09-.37.16-.3 1.32.09 1.11-.26 1.84-.16.34-.12.18-.12.66h-.08c0-.47.08-.63.08-1.02-.57.83-.16 1.44-.54 1.72V6.43c-.32.24-.47 1.15-.55 1.32-.02.05-.01.23-.22.02l-.07-.1c0 .52.14.73.15 1.17-.36-.01-.47-.12-.74-.26-.52-.28-.21-.23-.56.03l-.29-.17c-.5-.26-.42-.45-.86-.69 0 .42.07.31 0 .63h-.15c-.14-.63-.46-.65-.46-2.5-.23.06-.48.41-.54.63l-.15-.39c-.53.4-.94 2.26-.99 2.97-.37-.14.06-.02-.31-.16 0 .51-.06.87-.09 1.41z"/><path class="fil1" d="M4.89 29.49h.15c-.03.36.08.14-.15.31v-.31zm-2.52-2.27c-.08-.4.11-.77.22-1.18.09-.36-.11-.1.16-.3.29.22.14.52 0 1.02-.11.4-.07.3-.39.47zm4.82-1.49c.14.3-.04 1.36-.36 1.22-.23-.1-.04-.1.05-.67.05-.29.04-.45.31-.55zm-2.91 3.52c-.09-.23.14-.84.23-1.25h.69c.03-.32.16-.71.23-1.02-.94 0-.65.08-.38-1.09h.69l.23-1.02c-.64-.13-.93 0-1.76 0-.03.39-.15.38-.15.86h-.15c0-1.06-.32-.86-1.91-.86-.31 0-.3.61-.49 1.3l-.83 3.3c-.04.15-.04.23-.08.39-.15.59-.37.57.72.57.42 0 .53-1.71.7-2.1.13-.29.1-.13.51-.19.81-.1.88-.7 1.08-1 0 .58-.26 1.28-.42 2-.04.19-.07.26-.11.43-.08.35-.16.46-.16.85h.84c.36-.01.53-.08 1-.08h1.15c.13-.27.25-.87.33-1.23.08-.38.19-.86.29-1.27h.23c.11.47-.31 1.83-.46 2.5h.99c.08-.37.16-.7.25-1.08.44-1.91.11-1.43-.02-1.89.55-.05.61-.69.71-1.15.03-.14.4-1.13-.27-1.34-.33-.1-1.11-.1-1.51-.1-.39 0-.43.84-.51 1.2-.12.49-.22.9-.35 1.37-.04.15-.03.15-.07.32l-.26 1.07c-.13.62.03.57-.64.53-.31-.02-.03.1-.31-.02zM11.55 28.39c.01-.68.37-1.09.38-1.64h.15c0 .19.01.34-.03.52-.25 1.07-.02 1.08-.51 1.12zM7.5 30.35c1.01 0 .87.12 1.09-.84.06-.27.19-.81.21-1.11.13.09.15.01.15.23v1.72c1.56 0 1.96.21 2.16-.45.12-.38-.04-.46.36-.57.26.14.13.3.18.68 1.07-.07.98.07 1.64-.38.11-.08.19-.12.33-.21.03-.02.12-.08.14-.09.27-.23.26-.61.35-1.04l.79-3.49h-1.07l-.89 3.86c-.08.42.1.31-.18.52 0-.76.3-3.07.43-3.96.07-.54.04-.42-1.34-.42-.28 0-.58 1.32-.8 1.92-.08.23-.07.23-.15.48-.1.34-.35 1.34-.59 1.51 0-.46.52-2.59.65-3.09.21-.84.38-.82-.49-.82-.3 0-.45 1.04-.53 1.49-.06.33-.02.3-.23.47 0-.75-.08-1.19-.08-1.96h-.84l-1.3 5.55z"/><path class="fil0" d="M9.86 15.72c.25.07.27.12.37.32.31.59.56.82.77 1.24-.86.07-1.15-.82-1.15-1.56zm-2.37-.94c-.25 0-.06-.07-.38-.16 0 .89.2.62.37 1.18.23.77.33.16.78.85l-.54.16c.24.45.19.17 1.16.77.66.41 1.02.36 1.28.64l-.65.19c-.74.18-.55.08-.65.28.19.26 1.28.19 1.68.16.37-.03.15.01.38-.1.77-.35.32.3.52.77.19-.25.07-.22.11-.59.03-.3.06-.37.38-.4.06.26.1.21.14.48.04.3.03.36.09.61l.09-.22c.04-.12.03-.1.06-.25h.15c.08.35.06.52.31.7.21-.94-.1-.91.54-.86-.01-.26-.3-.86.08-.86.26 0 .3.06.54.08-.07-.31-.14-.26-.29-.48-.5-.75.24-1.29.29-1.94-.62.17-.48.78-.99.78-.12 0-.48-.14-.61-.31-.37-.48-.24-1.03-.46-1.41-.12-.22-.31-.32-.46-.55-.35.19-.48.18-.87-.05-.3-.17-.45-.4-.68-.64-.49-.5-.75-.83-.75-1.82h-.08c0 .43-.07.59-.16.94-.11.45-.21.45-.54.62-.38.19-.24.32-.36.73-.08.26-.18.69-.47.69z"/><path class="fil0" d="M16.67 18.64c.14-.25.08-.19.39-.33l1.08-.54c.09-.04.13-.05.22-.09-.03.37-.18.49-.39.69-.37.35-.71.6-1.29.28zm-.76-1.67c-.33 0-.47-.39-1.07-.39.1.44.42.71.46 1.17-.4 0-.42-.1-.71-.22-.55-.23-.14.05-.74.06.05.6.54.35.54 1.02 0 .2-.3.43-.38.78.2.14.08.07.31.16.17.06.24.06.38.15.57.36.32 1.02.3 1.25.26-.14.26-.12.35-.5.07-.31.07-.52.18-.75.27.2.3 1.01.31 1.33h.15c0-.34-.1-1.1.15-1.14.22-.03.46.4.93.44v-.23c.53.04.95.21 1.43.34.61.16.98.13 1.7.13-.25-.28-.4-.1-.8-.2-.5-.12-2.03-.51-2.26-.82 1.45 0 2.02.26 3.09-.44.16-.11.2-.12.42-.2.29-.1.23 0 .39-.22-.35-.29-.48.25-.76-.16.36-.1.54-.53 1.12-.66 1.21-.26-.12.02.75-.64.21-.15.13-.03.19-.27-.2 0-.2.04-.33-.1l-.05-.14c-.47.11-.18.23-.76.23-.08-.93-.52-.76-1.46-.93-.49-.09-.49-.08-.98 0-.65.1-.44-.07-1-.09-.23.99-.56.42-1.11.73-.01.01-.03.02-.04.03l-.68.25z"/><path class="fil3" d="M20.53 24.25c-.17-.13-.36-.08-.61-.08.11-.22-.03.03.13-.13.4-.4.15-.49.48-1-.12-.07 0 .01-.14-.09-.11-.08-.06-.05-.13-.1.29-.18.61-.4.84-.62.2-.19.17-.18.22-.55.13-.83 1.08-2.14.84-2.56-.26.04-.52.37-.68.62-.12.19-.13.24-.3.4-.68.63-.31.46-.6.72l-1.18.69c-.32-.17-.22-.38-.61-.49-.16.24-.06.12-.17.37-.23.53-.41.15-.94.44-.46.25-.24.17-.72.14-.54-.03-.45.15-.78.22-.4.08-.34-.14-.82-.16-.3-.01-.59.06-.87.13-1.2.29-.9-.06-1.72-.04-.42.01-.61.05-.86-.22-.41-.43-.67-1.12-1.65-1.37l-.75-.33c-.65-.42-.53-1.09-1.56-1.37 0-1.33-.75-1.02-.98-1.58-.16-.41.02-.64-.39-.94-.39-.29-.42-.17-.5-.84-.02.01-.07.05-.08.06-.69.84.07 1.32.19 1.49.21.29.17.62.98.64-.03.43-.07.24-.38.39v.63c.35.19.28.16.74.26.22.04.52.15.79.21-.01.64-.57.43.05 1.2.4.49 1.36 1.24 1.96 1.52 1.42.64 3.67 1.91 5.2 1.45.99-.3.52-.62 1.13-.49-.14.21-.28.37-.31.7.43-.01.12.04.9-.57.29-.23.5-.49.94-.52-.08.35-.38.74.39.49.44-.14.52-.31.52-.88.28.02.28.03.31.31.58 0 .63-.28 1.02-.76l1.35-1.67-.41 1.06c-.06.12-.22.33-.27.44-.16.35-.02.15-.01.61l-1.53 1.17c.23.01.28.04.46.08-.2.31-.72.35-.68.79.03.36.29.15 1.18.15z"/><path class="fil1" d="M18.22 28.89c.13-.25.13-.35.13-.73l.15.73 1.22.06.83-3.93c0-.02.21-.35-.45-.3 0 0-.19.04-.2.04-.35.14-.36.95-.52 1.65l-.13.5c-.3-1.32.31-2.23-.58-2.16-.53.04-.44-.02-.69 1.11l-.63 2.88c.01.34.6.24.85.16zM14.68 29.09c.4 0 .25-.02.52-.1.16-.04.12-.02.26-.05.31-.07.18.2.53-1.17.05-.19.04-.3.09-.53l.43-1.67h.23c0 .39-.35 2.04-.48 2.48l-.19.8c.17.12.14.04.34.18l.33.31c.06-.06.31-.36.36-.43.13-.22.04-.03.1-.29.14-.6.63-2.67.6-3.11-.11-1.31-1.88-1.11-2.38.19-.07.18-.16.5-.2.66-.13.67-.54 2.18-.55 2.73zM24.01 28.31c-.24-.03-.3.02-.26-.27.03-.25.08-.24.14-.41.06-.19.07-.32.13-.49.08-.23.08-.12.08-.47h.15c0 .42 0 .54-.07.87-.05.24-.07.59-.16.78zm-1.38.23c0 .3.15.18.37.26.25.09.14.15.57.1.26-.03.46-.09.72-.03.39.08.14.24.62.07.17-.15.25-2.76.33-3.34.13-1 .46-.88-1.24-.88-.29 0-.31.39-.44.8-.11.35-.21.71-.31 1.02l-.63 2.01zM19.96 28.86c1.1.15.31-.14 1.07-.05l.37-1.76c.19-.75.09-1.24.54-1.56.1.44-.08.73-.08 1.25 1.25 0 1.02.08 1.11-.51.09-.57.25-.82-.16-1.32-.33-.4-1.05-.34-1.48-.11-.77.41-1.07 2.45-1.24 3.42-.04.23-.1.37-.14.64zM7.49 23.85c0 .56.07.55.61.55.27 0 .17-.25.84-.78 1.08-.85 1.2-.76.13-1.54-.39-.28-.5-.42-1.12-.42-.12.45-.46.9-.46 2.19z"/><path class="fil2" d="M14.68 30.82c.03-.35.34-.69.62-1.01l.07-.08c.03-.03.12-.13.14-.16.06-.08.03-.01.08-.15.4 0 .78.02.51.53-.19.36-1.19.82-1.43.88zm-.23-1.56c-.28.02-.33.11-.51.26-.19.15-.27.18-.46.31-1.44.95-1.19.06-1.85.53h.69c-.05.58-.24.07-.38.63.58-.05.72-.61 1.53-.63-.12.51-.65.85-.69 1.33.58-.39 1.15-1.58 1.71-1.93.39-.25.77-.31.34.19-.17.2-.88 1.15-.91 1.43.44-.04 2.03-.65 2.48-1.3.11-.16.12-.19.2-.35-.55-1.06-1.23-.39-1.87-.33-.43.03-.19.06-.27-.14zM17.21 29.95c.32-.62.58-.55 1.45-.55-.06.23-.18.3-.31.55.35.03.53.08.99.08-.08.31-1.14.99-1.46 1.01-.02 0-1.1-.08-1.13-.09-.33-.12-.13-.26.15-.69.78 0 .91.12 1.15-.22l-.84-.1zm-1.22 1.25h1.53c.73 0 .11.24.98-.25.4-.23 1.27-.61 1.31-1.08-.51-.25-.39-.09-.92-.08.32-.48.79-.23.92-.7-.48 0-2.36-.06-2.66.25l-1.17 1.86z"/><path class="fil0" d="m17.21 29.95.84.1c-.23.33-.37.22-1.15.22-.28.43-.48.56-.15.69.04.01 1.12.09 1.13.09.32-.02 1.38-.7 1.46-1.01-.46 0-.65-.05-.99-.08.13-.24.25-.32.31-.55-.88 0-1.13-.07-1.45.55z"/><path class="fil3" d="M4.12 19.71c.11.38.08.2.29.42.2.21.12.16.35.35.38.32 1.1 1.44.78-.65-.09-.57.12-.66.12-1.22-.26-.07-.14-.03-.36-.26l-.55-.61-.04-.04a.219.219 0 0 0-.05-.03c-.11-.06.12-.05-.23-.08.13.27.07.33.29.57.14.16.67.62.05 1.26-.44.46-.15.07-.22.51-.2-.09-.25-.13-.43-.23z"/><path class="fil1" d="M21.49 28.63c0 .28-.05-.06-.05.18 0 .38.19.05.2.7.26-.08.31-.16.49-.31.46-.37.26-.26.41-.83.07-.25.04-.05.09-.38.09-.57.13-.34.16-.7h-1.22c-.24.51-.08.73-.08 1.33z"/><path class="fil2" d="M22.56 29.49c-.05-.15-.02.07.02-.09l.06-.22c-.37.2-.93.71-1.3 1.02-.06.05-.16.14-.21.18l-.07.05c-.21.09-.14-.07-.02-.37.07-.17.14-.32.22-.48-.35.09-.81 1.08-.84 1.49.24-.02.86-.56 1.09-.77.2-.18.09-.17.37-.25 0 .85-.37 1.1.54 1.1.62 0 1.11-.53 1.22-1.02-.39.04-.09-.05-.3.16-.52.52-.49.7-1.15.54 0-1.47 1.14-1.17 1.99-1.72-1.01 0-1 .25-1.61.39z"/><path class="fil1" d="M10.55 23.85v.47h2.29c.16-.72-.32-.69-1.27-.97-.26-.08-.41-.12-.72-.12-.09.14-.31.4-.31.63zM7.19 24.32c.15-.32.09-1.18.13-1.51l.28-1.38c-.45.15-1.25 1.04-1.3 1.27-.05.22.32.97.47 1.27.15.31.11.32.43.35z"/><path class="fil3" d="m5.05 24.34 1.15-.01c-.08-.32-.12-.16-.38-.63-.06-.12-.06-.08-.13-.26-.59-1.62-.25-1.95-1.41-2.87.07.31.18.64.37.88.42.54.2.2.17.86-.02.42.2.51.36.87.39.86.39.11.44.77-.41 0-.54-.05-.88-.08.14.32.15.16.31.48zM4.59 17.36c.18.27.48.46.92.47.16-.72.03-.41-.17-.93-.14-.36-.07-.72.1-1.01.15-.24.14-.14.2-.42.05-.24.01-.26.12-.51.02-.04.1-.2.11-.2.07-.16.02-.02.09-.23l.31-.46.05.23c.09-.6.43-1.1.48-1.72-.31.21-1.48 2.22-1.53 3.13-.03.62.03.31-.25.69-.26.35.61.95-.44.95z"/><path class="fil0" d="M15.6 7.82c.2-.14.15.04.15-.78 0-.6-.12-1.44-.28-1.9-.1-.29-.21-.51-.34-.75-.06-.12-.12-.23-.19-.35l-.33-.29c.04.17.09.29.15.47l.48 1.39c.22.7.2 1.5.36 2.21z"/><path class="fil1" d="m15.29 24.56-.08.55c.4-.15.54-.52.54-.94 0-.3-.44-.26-.78-.3-.28-.03-.77-.1-.96.01-.19.12-.42.46.36.45.37 0 .92-.14.92.23zM6.27 22.06c.36-.2.24-.34 1.22-1.02-.08-.33-.26-.63-.54-.81-.22.11-.21.14-.3.34-.14.33-.38 1.14-.39 1.48zM8.72 24.32c.59 0 .98.04 1.45.08 0-.49.08-.71.08-1.17-.46.04-1.34.81-1.53 1.1z"/><path class="fil2" d="M23.71 29.95c.24-.11.19-.02.5.03.2.03.32-.03.65-.03-.09.34-.27.36-.55.53-.12.07-.21.12-.34.2l-.34.28c.41-.01.71-.22.98-.41.41-.28.67-.36.7-.77-.31-.03-.42-.08-.84-.08v-.16c.16-.04.44-.09.57-.2.15-.14.09 0 .04-.11-.2-.1-.54.1-.73.19-.15.07-.23.1-.35.19-.02.01-.15.12-.17.14-.11.12-.06.01-.12.19z"/><path class="fil1" d="M6.07 8.73c.04-.07.11-.15.14-.2.07-.12.08-.2.14-.33.09-.22.16-.35.27-.59.2-.45.38-.75.58-1.12.63-1.15 1.22-1.5 1.52-1.96-.32.04-.75.49-.95.74L6.45 7.36c-.14.28-.42 1.02-.38 1.36z"/><path class="fil2" d="M24.62 9.62c0 1.18-.04.59.17 1.55.37 1.68.36.65.36 2.68h.15c0-1.28.09-.72-.12-1.83l-.23-1.09c-.19-.68-.1-1.16-.1-2.01h-.08c0 .13.01.25-.02.37-.07.31-.13.03-.13.33z"/><path class="fil0" d="M15.4 30.16c.06-.25.28-.46.51-.52-.03.49-.18.36-.51.52zm-.71.65c.25-.06 1.24-.53 1.43-.88.27-.51-.12-.53-.51-.53-.05.14-.03.07-.08.15-.03.04-.12.13-.14.16l-.07.08c-.28.32-.59.66-.62 1.01z"/><path class="fil1" d="M16.67 18.64c.57.32.91.08 1.29-.28.21-.2.36-.31.39-.69-.09.04-.12.05-.22.09l-1.08.54c-.3.14-.25.08-.39.33z"/><path class="fil2" d="M21.18 6.26c-.09-.23-.28-.48-.31-.78.29.08.25.12.45.49.16.31.2.41.55.6l-.69-1.17c-.11-.15-.16-.18-.28-.34-.17-.23-.94-1.06-1.25-1.14.18.27.55.64.78 1.06l.29.5c.23.44.11.53.46.78zM15.45 3.36c.21-.01.27-.17.46.16.17.29.07.33.46.47-.09-.23-.01-.06-.09-.21-.32-.61-.92-1.23-1.43-1.67L14.73 2c-.28-.24-.23-.28-.49-.36.18.27.44.48.67.8l.56.92z"/><path class="fil1" d="M11.01 17.28c-.22-.42-.46-.65-.77-1.24-.11-.2-.12-.25-.37-.32 0 .74.28 1.63 1.15 1.56zM18.51 8.37c.27-.29.3-.27.5-.74l.34-.91c.26.19.05-.03.2.29.1-.68-.16-.91-.2-1.46h-.15c0 .27.03.57-.02.84-.25 1.28-.63 1.59-.67 1.97z"/><path class="fil2" d="M9.18 6.49c.02-.01.05-.05.05-.03.01.02.04-.03.05-.03.13-.05-.04-.26.17.01.03.03.3.7.72.99-.07-.25-.16-.28-.27-.51-.46-.92-.34-1.05-.34-2.15l-.18.29c-.05.13-.09.3-.13.41-.11.32-.07.59-.07 1.02zM19.65 31.13c.31-.08.54-.56.69-.86.1-.21.15-.29.27-.5.13-.21.18-.29.18-.59-.31.09-.45.45-.69.86-.15.26-.43.74-.46 1.09z"/><path class="fil1" d="m11.93 5.63 1.26-1.84c.29-.51.43-.86.43-1.52h-.15c0 .88-.67 1.81-1.12 2.54-.16.25-.39.52-.41.83zM20.98 8.53c.1-.51-.24-.98-.4-1.37h-.28c.03.5.15.41.28.81.08.24.09.53.17.79.28-.1.08.05.22-.23z"/><path class="fil0" d="M2.37 27.22c.31-.17.28-.07.39-.47.13-.5.29-.8 0-1.02-.27.2-.07-.06-.16.3-.11.41-.3.78-.22 1.18zM11.55 28.39c.48-.04.26-.05.51-1.12.04-.18.03-.33.03-.52h-.15c-.01.55-.37.96-.38 1.64zM24.01 28.31c.09-.19.11-.53.16-.78.07-.33.07-.45.07-.87h-.15c0 .35 0 .24-.08.47-.06.18-.07.3-.13.49-.06.17-.11.16-.14.41-.03.29.03.24.26.27z"/><path class="fil1" d="m18 23.65.28.68c.29-.16.38-.36.38-.86-.58 0-.32-.01-.66.18z"/><path class="fil0" d="M7.19 25.73c-.27.1-.26.25-.31.55-.09.58-.28.57-.05.67.32.14.5-.92.36-1.22z"/><path class="fil1" d="M5.96 20.8v.39h.23c.01-.26 0-.15.07-.32.12-.32.24-.52.24-.93-.25.17-.54.44-.54.86zM16.52 24.17h.84c-.07-.27-.08-.16-.2-.39-.47.03-.57.13-.64.39zM22.58 30.24c.7.07.47-.07.69-.52-.28.06-.54.25-.69.52z"/><path class="fil2" d="m23.78 8.68.23.31c.18-.69.49-.41.54-.94-.14.1-.24.19-.36.33-.25.28-.07.26-.4.29z"/><path class="fil1" d="M6.12 19.79c.27-.15.23-.05.38-.34l-.21-.23c-.17.25-.17.17-.17.57zM15.4 30.16c.33-.17.48-.03.51-.52-.23.06-.45.27-.51.52zM17.89 24.48c0-.41.08-.38-.23-.47 0 .45-.07.31.23.47zM20.11 3.55c-.12-.23-.26-.37-.48-.5.17.26.23.33.48.5z"/><path class="fil0" d="M4.89 29.8c.23-.18.12.05.15-.31h-.15v.31z"/><path class="fil2" d="M22.48 7.98v-.16c-.13.02-.18-.24-.11.06.04.16-.08.06.11.1z"/><path class="fil1" d="M19.96 29.56c.01.16.15.13.11.01-.03-.1-.12-.23-.11-.01z"/></g></g></svg>