<svg xmlns="http://www.w3.org/2000/svg" xml:space="preserve" width="128" height="64" style="shape-rendering:geometricPrecision;text-rendering:geometricPrecision;image-rendering:optimizeQuality;fill-rule:evenodd;clip-rule:evenodd" viewBox="0 0 100.46 50.23"><defs><style>.fil0{fill:#000}.fil1{fill:#00a7ea}.fil5{fill:#ea047f}.fil4{fill:red}.fil2{fill:#fc0}.fil3{fill:#fff}</style></defs><g id="Camada_x0020_1"><g id="_2475191110624"><path class="fil0" d="M57.91 41.48c-.44.19-.89.36-1.35.49-.19.06-.39.11-.58.15-.4 2.99-3.98 4.73-6.98 4.65-1.1-.03-2.18-.14-3.27-.3-.63-.09-1.29-.22-1.93-.27-.53-.04-.97 0-1.47.12-.38.19-.7.36-1.12.51-1.42.51-2.73.84-4.26.79-.1 0-.21-.01-.31-.01-.72 1.07-1.81 1.75-3.35 1.71h-.12c-.76.6-1.75.94-2.86.91-1.57-.04-3.02-.71-3.84-1.95-.53-.16-1.03-.42-1.51-.8-.18-.14-.34-.29-.48-.46-.36 0-.72.03-.96.08-.99.23-1.59.41-2.66.38-2.4-.06-4.82-.47-6.44-2.3-.63-.7-1.29-1.81-1.49-2.69-.26-1.13-.14-2.09.15-3.2.14-.52.32-.98.54-1.39-.45.02-.9.01-1.36 0h-.01l-.24.09c-1.03.38-1.78.43-2.7.41-.21.09-.44.16-.67.21-.73.51-1.59.77-2.6.75-1.47-.04-2.48-.55-3.38-1.52-1.16-.72-1.87-1.58-2.1-2.87-1.1-1.98-.57-4.43 1.27-5.9.35-.28.69-.47 1.04-.62.11-.18.24-.37.42-.58.73-.87 1.54-1.56 2.4-2.03-.42-1.4.09-2.92 1.06-4.15-.27-.43-.48-.9-.63-1.38-.13-.13-.27-.26-.4-.41-.37-.24-.88-.48-1.26-.69-1.84-1.03-3.51-2.42-3.45-4.62.05-1.89 1.4-3.2 2.96-4.17-.06-.26-.1-.52-.12-.78C3.58 6.5 5.1 4.6 8.56 4.44c.42-.02 1.01-.01 1.52-.05.43-.49.9-1.23 1.33-1.68l.23-.24.02-.02c.1-.1.19-.2.3-.29.71-.67 1.46-1.25 2.36-1.68 1.06-.51 2.08-.61 3.23-.27.35.1.74.25 1.07.4.76.34 2.05 1.29 3.02 2.07.38-.21.77-.41 1.27-.57 1.09-.35 1.9-.67 3.12-.69 1.42-.03 2.57.52 3.41 1.57.61.76 1.15 1.49 1.5 2.39.03.07.06.15.09.23.4-.28.85-.54 1.35-.81 2.56-1.35 7.31-2.57 10.18-1.85 1.57.4 2.67 1.35 3.25 2.6a5.59 5.59 0 0 1 1.67-.21c.2.01.39.02.58.04l.25-.41c.96-1.54 2.9-2.26 4.72-1.75 1.76.49 3.18 1.75 3.52 3.41.42-.11.87-.16 1.33-.14.47.02.93.09 1.37.22.81-.68 1.9-1.07 3.06-.99.61.04 1.2.17 1.73.39.67-.3 1.37-.55 2.07-.75 1.25-.37 2.56-.65 3.86-.83.83-.12 1.65-.24 2.49-.29 2.02-.12 4.09.16 5.53 1.51 2.42-1.74 6.22-2.13 8.84-1.03 1.01.42 1.79 1.06 2.34 1.82h.04c1.13.12 2.16.53 2.94 1.23.57.03 1.13.16 1.65.39 1.42-.52 3-.48 4.35.37.96.6 1.62 1.52 1.87 2.57.1.43.15.86.12 1.28.12.4.2.81.25 1.23.25 2.3-.76 4.12-2.49 5.14.66 1.11.98 2.42.95 3.71-.03 1.05-.35 2.09-.66 3.09-.35 1.1-.74 2.19-1.15 3.27-.6 1.6-1.24 3.18-1.84 4.77-.72 1.94-1.44 3.8-2.77 5.47-.78.98-1.72 1.85-2.82 2.53-.82.5-1.72.89-2.66 1.16-2.18.62-4.52.53-6.45-.47-.71.25-1.49.33-2.32.31-.86-.02-1.73-.07-2.59-.09-.43-.01-.85-.07-1.25-.19-.38.09-.77.14-1.17.13l-3.76-.09c-.16 0-.31-.02-.47-.04-.16.01-.31.02-.47.01l-3.36-.08c-.28-.01-.55-.04-.82-.1-.66.14-1.35.15-2.07.1-.74-.05-1.48-.12-2.22-.13-.77-.02-1.5-.24-2.12-.61z"/><path class="fil1" d="M26.8 25.42c-.03.93.15 1-.45 1.71-.21.24-.32.44-.54.65-.22.21-.41.37-.64.57-1.36 1.18-2.84 1.33-4.54 1.29-.5-.01-.59-.43-.74-.73-.14.09-.5.46-.58.63-.44.98 1.63 1.07 2.04 1.46l-.43.12c.02.5.52 1.23.76 1.66.36.65-.03 1.27-.29 1.91-.82 2.05.64 3.9 2.17 5.04 1.11.83-.5.65-2.03-1.51-.28-.4-.72-1.32-.71-1.89-1.59.61-4.22 2.63-4.28 4.53-.05 1.6 1.63 3.08 3.87 3.13 2.28.06 4.04-1.13 6.67-.06.39-.34 1.26-.67 1.41-1.22.06-.23-.21-.59-.21-1.02.03-1.98.48-.39-1.07-3.48-.2-.4-.36-.7-.59-1.12-.11-.21-.17-.39-.26-.55-.11-.22-.21-.37-.31-.59-.31-.72-2-4.37-1.5-5.15.46.16.2.27.44 1.3.82 3.46 3.82 7.94 3.8 8.72-.02.67-.25 1.26.21 1.64.86.7 3.53.78 4.02-.64-.53-.44-.79-.48-1.02-1.24-.19-.63-.15-1.36-.24-2.06-.22-1.73-.99-6.18-1.48-7.72-.7-2.19-1.28-2.5-1.55-3.24.49.08.54.25.93.91.76 1.29 1.09 2.39 1.39 3.81.2.96.42 1.86.62 2.84.09.45.21.93.31 1.38.1.46.14.96.27 1.41.2-.24.38-.47.59-.71.33-.37 1.88-1.99 2.43-1.45-.03.28-.66.31-1.79 1.35-.04.04-.11.09-.15.13l-.78.88c-.36.41-.34.28-.28.82.05.42.02.8.07 1.17.16 1.16.63.85 1.05 1.5.16.37-.74 1.05.44 1.7 1.65.91 1.45.8 3.34.85.63.02 2.31-.45 2.73-.69.86-.5 1.55-.73 2.64-.82 2.82-.22 5.68 1.53 8.58.17.39-.18 1.28-.85 1.19-1.45-.14-.96-3-.86-4.01-1.54-.85-.58-1.89-1.69-3.14-2.34-.97-.51-3.14-1.18-4.12-.6-.02.36.26.89.22 2.37-.01.43.03.07-.1.26-.74-.17-.21-.76-.34-2.01-.05-.5-.31-1.36-.7-1.54-.03.7-.16 2.69-.85 3.01-.08-.25.23-1.23.34-1.86.13-.73.1-1.33.1-2.01 0-.7-.08-1.35-.26-1.96-.77-2.63-3.33-5.47-6.49-5.4l-1.15.08c-1.16-1.69-1.03-1.43-3.34-1.49-.08-.72.26-1.06-1.45-1.11-.18 0-.24.04-.24.17z"/><path class="fil2" d="M25.9 21.82c.04-.65.14-.71.78-.8.46-.07.83.04 1.1.31-.21.13-.31.04-.52-.01-.03.96.08 1.25-.9 1.41.14-.45.05-.1.36-.38.15-.13.23-.26.24-.5.03-.88-.51-.23-1.05-.03zM17.25 7.68c.67-2.34 2.87-1.92 2.55 1.42-.2 2.14-1.81 1.01-2.18 1.06-2.33.31-1.28.07-2.43.81-1.24.79-1.91-.92-1.88-1.95.04-1.3.19-1.63.83-2.39.62.05 1.14.18 1.6.48.75.49.12.61 1.51.58zM9.23 18.1c.04-.74.38-.98.52-1.5-.47-.21-.99-.81-1.25-1.15.49-.24.95.74 1.6.8.28-.52 1-.84 1.37-1.35.01-.37-.51-1.14.09-1.45.45.67-.28 1.43.79 1.24.35-.06.47-.16.98-.15.49.01.66.06 1.1-.06.23-.61-.04-1.16.46-1.22.25.4.04 1.01-.18 1.4.81.14 1.94.76 2.1 1.39.49-.06 1.13-.96 1.56-1.21-.08-.36-.6-1.36.05-1.58.16.28.18.92.34 1.33.35-.02.92-.28 1.37-.33.26-.03 1.12.15 1.41-.05.51-.48.03-.84.66-1.28.26.38.1 1.11-.18 1.42.14.16 0 .03.16.15.52.38 1.26.49 1.62 1.01.37-.24.96-1.16 1.25-.87.31.32-.84 1.01-1.02 1.1.12.27.03.06.12.22.91 1.7 1 3.72-.78 5-1.7 1.23-3.11 1.45-5.08.4-.84-.45-1.24-.96-1.76-1.75-.66.43-.5.5-1.52.69-.93.17-1.1.06-1.45.78-.32.66-.07 1.23.42 1.47.55.27 1.78.02 2.12.25-.15.24-.04.15-.35.25-.6.19-1.48.07-2.02-.18-.38-.18-.4-.37-.58-.71-.23-.43-.37-.33-.89-.43-.52-.1-.55-.26-1.12-.34-.06 2.22-1.67 1.59-1.72 3.39-.01.51 2.37 1.12 2.86 1.2 3.58.59 7.07-.29 10.25-1.31-.02-.01-.06-.06-.07-.04l-.42-.2c-.72-.46.41-.38 1.04.13.37.3.89.53.43.84-.79-.35-.17-.67-1.75-.07-1.19.45-2.56.73-3.81 1.01-.66.15-1.53.08-2.2.25.26 1.15 2.19.94 3.13 1.09.73.11.91.38 1.21.83.51.76.01.73 1.2.76 1.95.06 3.02-.82 4.27-1.84 1.11-.91 1-.89.65-2.61-.14-.69-.03-.63.01-1.23-.44-.12-.91-.17-.93-.65.5.05.79.24 1.33.26 1.07.03 1.83-.59 1.85-1.43.02-.71-.9-1.41-1.58-1.42-1.28-.03-1.11.44-1.69.67-.29-.45.57-1.1 1.13-1.09l.95.02c1.2.03 2.36 2.22.77 3.24-.59.38-1.35.12-1.46.76.46.02.91.12 1.42.16 2.61.19 3.13.45 3.2-1.83.01-.52-.3-1.59-.37-2.15.61-.56 1.76-.93 2.47-1.37.54-.34.68-.36.69-.96.04-1.32-2.54-2.44-2.68-3.16-.06-.28 1.89-2.64 1.7-3.92-.33-1.01-3.99-1.09-5.01-1.33-.1-.47-.11-.91-.22-1.37-.19-.8-.79-3.07-1.8-3.1-.58-.01-2.12.55-2.61.81-.85.45-1.56.72-2.35 1.07-.47-.33-.86-.77-1.35-1.15-.58-.45-1.17-.97-1.8-1.36l-1.25-.72c-.49-.24-.47-.15-.88.11-.79.49-1.38 1.07-1.97 1.82-1.7 2.14-1.16 2.05-2.86 2.22-3.71.36-3.58.11-3.32 1.53.13.71.32 1.28.59 1.91.35.79.39 1.16-.53 1.42-.81.23-1.1.4-1.73.86-.23.17-.49.35-.7.5-.27.19-.41.42-.36.71.17 1.08 2.05 1.69 2.9 2.26.36.24.39.22.73.57.23.23.36.46.72.58z"/><path class="fil0" d="M31.19 43.24c.49.01 1.32-.27 1.63-.41.46.43.05.45.87.84.48.23.88.33.75.94-.7.44-1.05-.7-2.03-.77 0 .52.57.63.91.93.3.26.62.98-.01.96-.53-.01-.63-.2-1.16-.44-1.34-.61-.2-.09-.91-.55-.04.06-.05-.04-.14.27-.04.13-.02.13-.02.27.09 1.95-1.28 1.43-1.5.97-.07-.15-.21-.92-.26-1.16-.48-.01-.65-.1-1.24-.12-.54-.01-.63-.03-.84-.38.26-.91 1.06-.82 1.57-1.66 1.01.1.47.23 2.37.28zM5.3 35.32c.26-.31.14-.09.28-.18.33-.24.27-.76 1.12-.41.36 1.07-.59 1.23-1.01 1.04-.28-.13-.33-.19-.39-.45zm2.19-.08c-.16-.11-.45-.42-.36-.59.15-.05-.02-.08.17.01.69.32.53.37.56.48l-.37.09zm-3.35-1.29c.5.01 1.23-.16 1.5.11.67.66-1.51 1.6-1.5-.11zm1.79-1.03c.06.22.24.51.39.7.2.26.28.37.43.66l-.57-.01c-.08-.35-.19-.54-.55-.64.02-.14.06-.35.1-.45.1-.24 0-.12.21-.25zm-.53-1.35c.06.26.16.6.26.81-.21-.06-.57-.16-.56-.46.01-.19.04-.12.11-.35h.19zm.01 1.29c-.29 1.19-1.48.69-1.64.23-.25-.7.39-1.59 1.01-1.5-.03.34-.26.6-.04.81.24.23.37.05.67.46zm3.14-1.48c.01-.25.19-.26.43-.4 1.37-.8.99-1.71 1.62-2.25.67-.58 1.63-.71 2.2-.07.14.16.3.44.29.7-.04 1.55-1.66 1.08-2.47 1.78-.56.49-.26 1.05-.99 1.11-.59.05-1.1-.24-1.08-.87zm-1.52-.31c.02-.67-.13-1.13.15-1.68.43-.82 1.25-.9 2.1-.57.34.13.3.19.57.36-.61 1.12-.04 1.07-1.07 1.38-1.65.51.04 2.8 1.34 2.01.27-.16.45-.9 1.1-1.4.96.64.82 1.37.79 2.34-.05 1.62-2.83.96-3.84-.07-1.12-1.15-.48-1.6-1.35-1.84-.03.93.6 1.56 1.11 2.06 1.15 1.14 1.63.8 1.94 1.23-.62-.02-.82.12-1.54-.11-.98-.32-1.53-1.19-2.07-1.99-1-1.5-.11-2.99.42-3.15-.06.11-.44 1.36.34 1.44zm4.86.03c.77-.01.96-.38 1.31-.81.68-.83 1.45-.2 2.78-1.39 1.4-1.24.47-.96 2.36-.87.7.03.89.07 1.3.5-2.61 2.49 1.85 2.1.84 3.18 0 0-.17.15-.2.17-.18.15-.2.16-.43.31l-1.89 1.07c-.35.16-.7.28-1.06.42-1.02.4-3.74.95-4.87.69.23-.12.35-.62.36-.93.06-2.07-.35-1.47-.5-2.33zm13.89-3.33c.22-.21.34-.41.54-.65.61-.71.43-.78.45-1.71 0-.13.06-.18.24-.17 1.7.04 1.36.39 1.45 1.11 2.31.06 2.18-.2 3.34 1.49l1.15-.08c3.16-.07 5.72 2.77 6.49 5.4.18.6.26 1.26.26 1.96 0 .68.03 1.29-.1 2.01-.11.63-.42 1.6-.34 1.86.69-.32.82-2.31.85-3.01.39.18.65 1.03.7 1.54.14 1.25-.39 1.85.34 2.01.13-.19.09.16.1-.26.04-1.48-.24-2.01-.22-2.37.99-.59 3.15.09 4.12.6 1.24.65 2.29 1.76 3.14 2.34 1.01.69 3.86.58 4.01 1.54.09.59-.81 1.27-1.19 1.45-2.9 1.35-5.76-.4-8.58-.17-1.1.09-1.78.32-2.64.82-.42.25-2.1.71-2.73.69-1.9-.05-1.69.06-3.34-.85-1.18-.65-.29-1.33-.44-1.7-.42-.65-.89-.33-1.05-1.5-.05-.37-.02-.75-.07-1.17-.06-.55-.08-.41.28-.82l.78-.88c.04-.03.11-.09.15-.13 1.13-1.04 1.76-1.07 1.79-1.35-.55-.54-2.1 1.08-2.43 1.45-.2.23-.39.47-.59.71-.13-.45-.17-.95-.27-1.41-.09-.45-.22-.93-.31-1.38-.2-.97-.42-1.87-.62-2.84-.3-1.42-.63-2.53-1.39-3.81-.39-.65-.44-.83-.93-.91.27.74.85 1.05 1.55 3.24.49 1.53 1.25 5.99 1.48 7.72.09.7.04 1.43.24 2.06.23.76.49.8 1.02 1.24-.49 1.42-3.17 1.34-4.02.64-.47-.38-.23-.97-.21-1.64.02-.77-2.97-5.26-3.8-8.72-.25-1.03.02-1.14-.44-1.3-.5.79 1.19 4.43 1.5 5.15.09.22.19.37.31.59.09.17.15.34.26.55.23.42.39.72.59 1.12 1.56 3.09 1.1 1.5 1.07 3.48-.01.43.27.79.21 1.02-.15.55-1.02.89-1.41 1.22-2.64-1.08-4.4.11-6.67.06-2.24-.06-3.91-1.53-3.87-3.13.05-1.9 2.69-3.93 4.28-4.53-.01.58.43 1.5.71 1.89 1.53 2.15 3.15 2.34 2.03 1.51-1.53-1.14-2.99-2.99-2.17-5.04.26-.65.65-1.27.29-1.91-.24-.43-.74-1.17-.76-1.66l.43-.12c-.41-.39-2.48-.48-2.04-1.46.08-.17.44-.54.58-.63.15.31.24.72.74.73 1.7.04 3.18-.11 4.54-1.29.22-.19.42-.36.64-.57zm-9.22-9.94c.02-.77.85-1.79 1.32-2.18 1.71-1.41 4.59-1.1 5.62.11 2.45 2.9-.76 6.89-4.09 5.63-1.79-.68-2.91-1.59-2.85-3.55zm-6.98.81c.07-2.55 2.5-4.38 5.46-3.54.79.23 1.64.96 1.49 1.49-.12.41-.33.67-.34 1.14-.04 1.48.64 1.83-1.44 2.24-.82.17-1.16.12-1.6.99-.13.25-.08.44-.4.43-1.39-.04-2.21-.72-2.84-1.65-.22-.32-.33-.7-.32-1.11zm16.63 4.97c-.05.6-.15.54-.01 1.23.35 1.72.47 1.71-.65 2.61-1.25 1.02-2.32 1.9-4.27 1.84-1.18-.03-.68-.01-1.2-.76-.31-.45-.48-.72-1.21-.83-.95-.15-2.87.06-3.13-1.09.67-.17 1.55-.1 2.2-.25 1.25-.28 2.62-.56 3.81-1.01 1.57-.6.95-.28 1.75.07.46-.31-.05-.53-.43-.84-.63-.51-1.76-.6-1.04-.13l.42.2c.01-.02.05.02.07.04-3.17 1.02-6.66 1.9-10.25 1.31-.49-.08-2.88-.69-2.86-1.2.05-1.8 1.65-1.17 1.72-3.39.57.09.6.24 1.12.34.52.1.65 0 .89.43.18.34.2.53.58.71.54.25 1.42.37 2.02.18.31-.1.2 0 .35-.25-.34-.24-1.57.01-2.12-.25-.49-.24-.74-.81-.42-1.47.35-.72.52-.61 1.45-.78 1.03-.19.87-.26 1.52-.69.52.79.92 1.3 1.76 1.75 1.97 1.05 3.37.83 5.08-.4 1.77-1.28 1.69-3.3.78-5-.09-.16 0 .04-.12-.22.18-.09 1.33-.78 1.02-1.1-.29-.29-.88.63-1.25.87-.35-.52-1.1-.63-1.62-1.01-.17-.12-.02.01-.16-.15.28-.31.44-1.04.18-1.42-.63.43-.14.8-.66 1.28-.29.2-1.14.02-1.41.05-.44.05-1.02.31-1.37.33-.16-.41-.18-1.04-.34-1.33-.65.22-.12 1.23-.05 1.58-.43.25-1.07 1.15-1.56 1.21-.16-.63-1.29-1.25-2.1-1.39.22-.39.43-1 .18-1.4-.51.06-.23.61-.46 1.22-.44.12-.61.06-1.1.06-.51-.01-.64.09-.98.15-1.07.18-.35-.57-.79-1.24-.6.31-.07 1.07-.09 1.45-.38.51-1.09.83-1.37 1.35-.65-.06-1.11-1.04-1.6-.8.27.34.79.94 1.25 1.15-.14.52-.48.76-.52 1.5-.36-.12-.5-.35-.72-.58-.34-.35-.36-.33-.73-.57-.85-.57-2.73-1.17-2.9-2.26-.05-.29.09-.52.36-.71.22-.15.47-.33.7-.5.63-.46.92-.63 1.73-.86.92-.26.87-.63.53-1.42-.27-.63-.47-1.2-.59-1.91-.25-1.42-.38-1.17 3.32-1.53 1.7-.16 1.16-.08 2.86-2.22.59-.74 1.17-1.32 1.97-1.82.41-.26.38-.35.88-.11l1.25.72c.63.39 1.23.91 1.8 1.36.49.38.88.81 1.35 1.15.79-.35 1.5-.62 2.35-1.07.5-.27 2.04-.83 2.61-.81 1.01.03 1.61 2.29 1.8 3.1.11.47.12.9.22 1.37 1.02.24 4.69.32 5.01 1.33.2 1.28-1.75 3.64-1.7 3.92.15.71 2.72 1.84 2.68 3.16-.02.6-.15.62-.69.96-.71.44-1.86.81-2.47 1.37.07.56.38 1.63.37 2.15-.07 2.28-.59 2.02-3.2 1.83-.51-.04-.96-.14-1.42-.16.11-.64.86-.37 1.46-.76 1.59-1.03.43-3.21-.77-3.24l-.95-.02c-.56-.01-1.42.63-1.13 1.09.58-.23.41-.7 1.69-.67.68.02 1.6.72 1.58 1.42-.02.83-.78 1.45-1.85 1.43-.53-.01-.83-.21-1.33-.26.03.48.49.53.93.65zM8.06 11.91c-.96.57-3.57 1.64-3.61 2.77-.04 1.22 2.91 2.17 3.67 2.91l.05.05c.34.35.58.77 1.13.82-.03.99.44 1.81 1.1 2.41.32.29.44.25.43.84-.02.65-.45 1.06-.83 1.39-.48.41-1.48 1.55-.76 2.2 1.25 1.12 4.38 1.13 6.03 1.17.14.53.84 1.07 1.3 1.37-.59.78-1.69 1.74-3.1 1.71-.3-1.39-1.25-2.11-2.53-1.4a.21.21 0 0 0-.06.04c-.02.01-.04.03-.06.04-.24.14-.66.6-.86.62-.36.03-1.72-1.64-3.97 1.03-.24.29-.27.59-.41.97-.14.39 0 .18-.23.32-.4.24-.87.03-1.3.37-.66.53-.83 1.42-.37 2.1.54.79-.21.93 1.07 1.65.6.34.48.85 1.37.87.79.02.57-.65 1.38-.64.58.01.33-.07.68-.27.37-.22 1.42.2 2.55-.22.78-.29.46-.35 1.63-.32.74.02 1.18.02 1.81-.05.74-.08 1.51-.22 2.22-.47.26-.09.1-.05.33-.14 1.19-.47 2.46-.92 3.45-1.72.29-.24.22-.28.66-.36.16.72.8 1 .46 1.83-.22.55-.46 1.5-.48 2.19l-2.61 1.64c-.73.68-1.51 1.35-1.79 2.45-.16.6-.27 1.13-.13 1.75.08.35.52 1.03.77 1.32.82.92 2.36 1.11 3.9 1.15.76.02 1.21-.17 1.75-.29.95-.22 2.42-.24 3.43-.04.46.09.39.13.74.21-.04 1.23 1.1 1.19 2.16 1.21.06.27.1.26.17.55.05.24.05.35.15.56.17.35.57.52 1.07.53 1.07.03.85-1.19 1.12-1.46.25-.26 1.29.54 1.86.55.49.01.48-.7.76-.9.21-.15.26.03.54-.3.21-.24.14-.38.28-.64 2.08.05 2.47.46 5.02-.45.56-.2.78-.44 1.36-.59 2.82-.73 4.14.23 7.75.32 1.21.03 3.45-.68 3.49-1.96.05-1.73-1.84-.9-3.82-1.91-.72-.37-1.47-1.03-2.14-1.49-1.34-.91-2.37-1.81-4.27-1.86-.67-.02-.92.16-1.53.14-.25-.97-.72-.63-.8-1.9-.08-1.35-.53-2.41-1.2-3.54-.74-1.25-1.98-2.37-3.39-2.99-.93-.42-1.1-.49-2.46-.51-.64-.01-.85.08-1.17-.27-.15-.16-.14-.2-.27-.37l-.36-.38c-.66-.6-1.51-.41-2.36-.43.03-1.04-.64-1.18-2.25-1.22l.02-.62c.84.04 1.53.38 2.96.4.24 0 1.02-.1 1.34-.27.93-.52.63-2.52.41-3.35-.3-1.16.13-.82 1.62-1.7.34-.2.58-.33.9-.58.33-.26.59-.31.55-.88-.11-1.53-1.92-2.12-2.65-3.21.1-.35.28-.47.47-.82.53-1 1.13-1.81 1.17-3.07.03-.99-4.28-1.54-5.1-1.56.02-.76-.3-2.15-.53-2.75-.22-.57-.64-1.09-1-1.54-.16-.2-.27-.3-.6-.3-.75.02-1.4.3-2.08.52-.63.21-1.19.61-1.8.88-.4.18-.84.31-1.26.5-.22-.33-.54-.51-.86-.8-.51-.46-2.53-2.03-2.98-2.22-.13-.06-.49-.2-.62-.24-.31-.09-.39-.05-.63.06-.58.28-1.05.68-1.5 1.09-.1.09-.09.08-.18.18l-.23.24c-.67.7-1.61 2.38-2.57 2.59-.81.18-1.73.17-2.66.21-1.42.07-1.58.35-1.46 1.74.08.92.58 1.65.77 2.53z"/><path class="fil3" d="M21.6 18.77c.08-.27.16-.34.3-.53l.67.02c.1.44.19.48-.2.81l-.76-.3zm-5.02-.93c-.06 1.97 1.06 2.87 2.85 3.55 3.33 1.27 6.53-2.73 4.09-5.63-1.02-1.21-3.9-1.51-5.62-.11-.47.39-1.3 1.41-1.32 2.18z"/><path class="fil1" d="M11.91 31.11c.16.87.56.26.5 2.33-.01.31-.13.81-.36.93 1.13.26 3.85-.29 4.87-.69.36-.14.7-.26 1.06-.42l1.89-1.07c.23-.15.25-.16.43-.31.02-.02.19-.16.2-.17 1-1.08-3.46-.7-.84-3.18-.41-.43-.6-.46-1.3-.5-1.89-.09-.97-.37-2.36.87-1.33 1.18-2.1.55-2.78 1.39-.35.43-.54.8-1.31.81z"/><path class="fil3" d="M14.45 18.86c-.02.58-.21.53-.78.52-.09-.18-.18-.27-.18-.54.01-.27.97-.45.95.02zm-4.86-.21c-.01.4.1.78.32 1.11.63.93 1.45 1.62 2.84 1.65.32.01.27-.18.4-.43.44-.86.78-.82 1.6-.99 2.08-.42 1.4-.77 1.44-2.24.01-.47.22-.74.34-1.14.15-.53-.7-1.26-1.49-1.49-2.95-.85-5.38.98-5.46 3.54z"/><path class="fil4" d="M7.05 31.08c-.78-.08-.4-1.33-.34-1.44-.53.16-1.42 1.65-.42 3.15.54.81 1.09 1.68 2.07 1.99.71.23.91.1 1.54.11-.32-.43-.8-.09-1.94-1.23-.5-.5-1.13-1.13-1.11-2.06.87.24.23.69 1.35 1.84 1 1.04 3.79 1.69 3.84.07.03-.97.17-1.7-.79-2.34-.64.5-.83 1.23-1.1 1.4-1.3.79-2.99-1.51-1.34-2.01 1.03-.32.45-.26 1.07-1.38-.27-.18-.23-.23-.57-.36-.85-.33-1.67-.25-2.1.57-.29.55-.13 1.01-.15 1.68z"/><path class="fil2" d="M31.19 43.24c-1.9-.05-1.36-.18-2.37-.28-.51.84-1.31.74-1.57 1.66.22.35.3.37.84.38.59.01.76.1 1.24.12.04.23.19 1.01.26 1.16.22.46 1.6.98 1.5-.97-.01-.14-.02-.14.02-.27.09-.31.1-.21.14-.27.71.45-.44-.06.91.55.53.24.63.43 1.16.44.63.02.31-.7.01-.96-.35-.31-.91-.41-.91-.93.98.06 1.32 1.21 2.03.77.13-.62-.27-.72-.75-.94-.82-.38-.4-.41-.87-.84-.32.13-1.14.42-1.63.41z"/><path class="fil4" d="M8.56 31.38c-.02.62.49.91 1.08.87.73-.06.43-.62.99-1.11.81-.71 2.42-.23 2.47-1.78.01-.26-.15-.54-.29-.7-.57-.64-1.53-.5-2.2.07-.63.54-.25 1.46-1.62 2.25-.24.14-.42.15-.43.4z"/><path class="fil0" d="M17.22 8.84c.33-.54.27-.71.46-1.38.13-.46.62-.91.94-.9.84.02.82 1.62.85 1.86.06.55-.05 1.55-.85 1.53-.74-.02-.54-.53-1.41-.57 0 .52.22.54-.68.52-.67-.02-.81-1.89.24-1.87.62.02-.11.4.45.81zm-1.27 1.13c-.65.86-2.2 1.75-2.31-1.04-.02-.4.13-2.05.87-2.03.64.02 1.1.67 1.5.93-.12.45-.34.69-.37 1.13-.03.39.02.58.31 1.01zm1.3-2.29c-1.39.03-.76-.09-1.51-.58-.47-.3-.98-.43-1.6-.48-.64.76-.79 1.09-.83 2.39-.03 1.03.65 2.74 1.88 1.95 1.16-.74.1-.49 2.43-.81.37-.05 1.98 1.08 2.18-1.06.32-3.33-1.88-3.76-2.55-1.42z"/><path class="fil5" d="M17.22 8.84c-.57-.41.17-.8-.45-.81-1.05-.03-.91 1.85-.24 1.87.9.02.68.01.68-.52.87.04.67.55 1.41.57.8.02.91-.97.85-1.53-.03-.25-.01-1.84-.85-1.86-.32-.01-.81.45-.94.9-.19.67-.13.84-.46 1.38z"/><path class="fil5" d="M15.94 9.97c-.29-.43-.34-.62-.31-1.01.03-.44.25-.69.37-1.13-.4-.26-.86-.91-1.5-.93-.74-.02-.89 1.64-.87 2.03.11 2.79 1.66 1.9 2.31 1.04z"/><path class="fil2" d="M5.42 32.87c-.3-.41-.43-.23-.67-.46-.22-.21.01-.47.04-.81-.63-.1-1.27.8-1.01 1.5.17.45 1.35.96 1.64-.23zM4.15 33.95c0 1.7 2.17.77 1.5.11-.27-.27-1.01-.09-1.5-.11zM5.3 35.32c.07.26.11.32.39.45.42.2 1.37.03 1.01-1.04-.85-.36-.79.17-1.12.41-.14.1-.02-.13-.28.18z"/><path class="fil0" d="M25.9 21.82c.54-.21 1.07-.85 1.05.03-.01.24-.09.37-.24.5-.31.28-.22-.07-.36.38.98-.16.87-.45.9-1.41.22.05.31.15.52.01-.26-.28-.64-.38-1.1-.31-.64.1-.74.16-.78.8zM13.5 18.83c-.01.27.08.36.18.54.57.01.76.07.78-.52.01-.48-.94-.29-.95-.02zM21.6 18.77l.76.3c.39-.33.3-.37.2-.81l-.67-.02c-.14.19-.23.26-.3.53z"/><path class="fil4" d="M5.64 33.63c.36.1.48.29.55.64l.57.01c-.15-.29-.23-.4-.43-.66-.14-.19-.33-.48-.39-.7-.2.13-.11.01-.21.25-.04.1-.08.31-.1.45z"/><path class="fil2" d="M7.13 34.65c-.08.17.2.48.36.59l.37-.09c-.03-.11.13-.17-.56-.48-.2-.09-.03-.07-.17-.01z"/><path class="fil4" d="M5.12 31.92c-.01.3.35.4.56.46-.1-.21-.21-.55-.26-.81h-.19c-.07.24-.1.17-.11.35z"/><path class="fil0" d="M69.07 38.93c-.13.11-.29.17-.48.16l-3.36-.08c-.35-.01-.63-.26-.66-.58v-.13c-.14.21-.32.39-.54.51-.46.26-1.02.24-1.54.2-.79-.05-1.57-.12-2.36-.14a.683.683 0 0 1-.64-.46c-.13-.43.16-1.27.3-1.69.26-.8.56-1.59.87-2.37.46-1.18.95-2.34 1.41-3.51.31-.79.55-1.6.89-2.39.27-.61.5-1.26.73-1.88.34-.91.67-1.82 1.01-2.73.38-1.03.76-2.07 1.16-3.1.15-.39.31-.78.47-1.17.11-.25.22-.52.36-.75.13-.21.35-.33.61-.32 1.63.04 3.4-.06 5.01.18.91.14 1.5.07 2.23.69 1.82 1.54.34 5.03-.5 6.76-.5 1.03-1.12 2.09-2.17 2.56.09.12.15.26.19.41.15.51.14 1.23.12 1.76 0 .07-.01.13-.04.19l-.08.22 3.53-7.31c.12-.23.25-.45.36-.67l1.69-3.5c.15-.34.31-.68.66-.87.09-.05.18-.08.28-.1l-.08-.07a.602.602 0 0 1-.07-.81c.62-.82 1.54-1.16 2.59-1.11.36.02.72.08 1.06.16.17.04.34.1.5.14.12 0 .27.01.4.01.16-.11.36-.17.58-.22.2-.04.39-.01.55.1.07.04.13.09.19.14.05.01.1.03.14.04.36.1.56.45.46.78-.17.56-.38.72-.82.95.36.01.64.27.66.61.01.25-.07.62-.12.88-.1.48-.21.96-.33 1.44-.32 1.34-.66 2.67-1.01 4-.36 1.37-.72 2.74-1.08 4.1-.16.6-.34 1.22-.49 1.82.55-1.49 1.07-2.99 1.64-4.47.44-1.16.91-2.32 1.45-3.44.42-.89.94-1.88 1.57-2.65l.06-.06 1.08-1.01c.02-.01.03-.03.05-.04l.15-.12c1.64-1.24 4.04-1.67 5.98-.8 1.24.56 1.78 1.97 1.75 3.19-.02.68-.32 1.61-.52 2.26-.33 1.05-.71 2.09-1.1 3.12-.6 1.6-1.24 3.18-1.84 4.78-.59 1.58-1.21 3.26-2.29 4.61a7.64 7.64 0 0 1-1.95 1.76c-.54.33-1.15.59-1.77.77-1.64.46-3.55.36-4.74-.93-.65-.71-.76-1.43-.75-2.23l-.4 1.52c-.07.36-.12.73-.4 1-.37.35-.91.35-1.4.34-.86-.02-1.72-.07-2.58-.09-.33-.01-.63-.11-.84-.36-.36-.42-.21-.98-.05-1.45.16-.45.36-.88.51-1.32.03-.09.06-.19.09-.29-.05 0-.11-.01-.16 0-.04.09-.09.2-.11.26-.13.31-.25.63-.38.94-.26.61-.54 1.27-.88 1.84-.13.21-.35.33-.61.32l-3.76-.09c-.18 0-.35-.08-.46-.19zm-28.65-6.95c-.09.22-.18.43-.26.61-.86 2.18-2.05 4.2-4.32 5.32-.3.15-.61.27-.94.38-1.57.5-3.63.52-4.93-.58-.77-.66-1.08-1.56-1.04-2.52.04-1.19.54-2.69.94-3.83.4-1.13.84-2.23 1.27-3.35.28-.73.53-1.46.82-2.19.84-2.1 1.57-4.41 3.13-6.15 1.68-1.86 4.54-2.8 7.03-1.9.88.32 1.51.88 1.8 1.74.23.68.18 1.36.16 2.07-.01.36-.16.84-.26 1.19-.16.55-.35 1.1-.53 1.64-.05.14-.1.27-.14.41l1.5-3.94c.12-.32.21-.65.32-.97.24-.71.64-1.96 1.64-1.93.87.02 1.74.02 2.6.04.5.01 1.13.03 1.4.51.03.05.04.09.06.14.09-.1.19-.2.31-.28.45-.3 1.03-.31 1.56-.3.39.01.78.03 1.16.05-.21-.05-.4-.13-.55-.3-.29-.33-.24-.74-.12-1.12.11-.36.27-.73.43-1.09-.66-.09-1.22-.39-1.48-1.01-.03.04-.08.08-.12.12-.16.12-.34.17-.54.14-.55-.09-.98-.47-1.39-.79-.15-.12-.43-.32-.63-.35-.18-.02-.37.16-.47.27-.72.75-1.65 1.54-2.68 1.91-.76.27-1.61.3-2.3-.16-.75-.51-1-1.41-.95-2.24.06-1.04.55-2.06 1.18-2.9.66-.88 2.14-2.09 3.35-2.06.69.02 1.36.25 1.68.87.08.16.13.32.15.49l2.07-3.32c.16-.26.48-.37.78-.29.56.15 1.16.54 1.14 1.15-.01.23-.09.54-.15.77l-.3 1.27c-.19.86-.37 1.73-.49 2.61.17-.28.36-.53.54-.7.54-.54 1.22-1.03 2.06-1.01.38.01.82-.02 1.04.27.03.01.07.03.11.04.31-.12.6-.06.9.07l.1-.54c.06-.32.36-.54.7-.53.52.02 1.02.18 1.31.62.18.27.23.58.21.89.03-.07.06-.15.1-.22.15-.28.48-.41.8-.32.43.12.75.35.94.65.05-.02.11-.04.17-.05.07-.01.14-.02.21-.02-.29-.5-.19-1.15-.12-1.75.04-.34.36-.6.73-.57.54.04 1.04.24 1.28.71.21.41.14.88 0 1.3l-.03.1c.02.3-.18.57-.49.65-.02.01-.05.03-.07.04-.07.05-.15.08-.23.1.28.5.22 1.19.13 1.7-.06.34-.14.67-.24 1-.05.18-.13.43-.22.6-.09.16-.23.27-.41.32-.18.05-.36.03-.53-.06-.07-.04-.15-.07-.23-.1 0 .02.01.04.01.06.03.2-.04.38-.19.53-.15.14-.35.21-.56.19-.7-.07-.92-.21-1.24-.78-.44.36-.99.58-1.57.37-.15-.05-.29-.13-.4-.22-.05.07-.1.14-.16.21-.11.12-.24.22-.36.34-.36.39-.65.84-.97 1.26-.28.38-.64.83-1.15.92.2.01.4.02.6.02.37.01.67.3.66.65-.01.25-.12.6-.2.85-.14.44-.29.88-.44 1.31-.43 1.2-.88 2.39-1.33 3.58-.41 1.08-.83 2.16-1.25 3.24-.27.68-.54 1.37-.79 2.06l-3.16 8.27c-.1.26-.36.43-.66.42-.67-.02-1.34-.04-2.01-.05-.36-.01-.71.01-1.07 0-.38-.01-.76-.06-1.03-.35a.876.876 0 0 1-.22-.44c-.11.22-.24.41-.35.5-.11.09-.22.14-.36.16-.59.07-1.27.08-1.86.07-.73-.01-2.31-.01-2.53-.87-.06-.25.07-.58.15-.82.11-.31.22-.62.34-.93l.51-1.32.97-2.55zm.46-1.2 1.5-3.94c-.04.1-.09.19-.14.28-.12.23-.36.36-.63.35l-3.76-.11c-.37-.01-.67-.3-.66-.65 0-.29.1-.63.2-.94l-1.61 4.25c.11-.17.24-.32.42-.44.45-.3 1.03-.29 1.56-.27.87.04 1.72.1 2.59.12.19.01.35.07.48.2s.19.29.18.46c-.01.21-.06.45-.13.69zm6.05-18.42a.7.7 0 0 1-.24-.27c-.21-.43-.23-.88.01-1.31.03-.06.07-.11.11-.16-.28.21-.55.47-.77.72-.87 1.02-1.03 1.72-1.08 2.95.12 0 .29-.05.36-.07.38-.13.74-.38 1.04-.63.11-.09.33-.27.45-.4 0-.27.01-.45.08-.75l.03-.09zm-8.37 10.37c-.11.23-.2.47-.29.69-.09.24-.17.48-.26.72.03-.07.06-.14.08-.21.08-.2.29-.71.46-1.2zm-3.45 9.04c-.16.4-.32.79-.47 1.2-.03.08-.07.22-.12.38.16-.36.29-.73.34-.88.09-.23.17-.47.24-.7zm19.23-18.4c.12-.2.25-.44.35-.67-.09.13-.16.26-.2.33-.06.11-.11.22-.15.33zm18.52 2.82c-.49.53-1.3.78-2.08.67-1.52-.22-1.92-1.31-1.88-2.58.02-.54.2-1.14.44-1.63.34-.71.93-1.47 1.8-1.65.48-.1.94.01 1.35.26.19.11.36.25.51.41.01-.1.02-.21.02-.31.01-.18.08-.33.22-.45s.31-.18.5-.17c.53.02 1.03.19 1.33.63.16.23.23.5.23.77.02-.04.04-.08.06-.11.16-.3.54-.43.87-.3.46.18.83.48.99.93.27.78-.22 1.46-.25 2.21-.03.54-.03 1.09-.04 1.63-.01.2-.1.38-.28.5-.18.12-.38.15-.59.1-.49-.14-.8-.42-.99-.78-.18.15-.38.28-.6.4-.17.1-.36.12-.55.07-.47-.13-.81-.33-1.04-.6zm-1.64-1.09c.01.02.02.03.02.04.04.06.09.06.14.05.13-.03.39-.2.58-.35-.24.1-.49.19-.74.25zm-33.84-3.05c-.28-.29-.43-.65-.38-1.05.12-1.02 1.46-1.65 2.45-1.62.17 0 .33.04.48.11 1.05.5.83 2.34.7 3.24-.09.63-.4 2.18-.78 2.69-.11.15-.26.23-.45.26a.69.69 0 0 1-.52-.12c-.16-.12-.31-.24-.43-.39-.16.07-.32.11-.51.11-.62-.02-1.11-.48-1.35-.98-.26-.56-.24-1.21.16-1.71.18-.22.39-.4.64-.54zm-.3-3.31s0 .01.01.01c.09.23.05.43-.01.65l-.27 1.02c-.17.67-.92 2.81-.85 3.51.47.82.23 1.74-.62 2.29-.26.17-.61.15-.84-.05-.17-.15-.35-.26-.47-.46-.15-.26-.13-.55-.14-.83v-.03c.02-.69.02-1.25.19-1.91.06-.56.19-1.16.31-1.71.1-.44.2-.88.3-1.31.01-.03.02-.07.02-.1-.16.11-.31.21-.39.27-.4.26-.88.56-1.37.65a.682.682 0 0 1-.57-.14.599.599 0 0 1-.24-.51c.04-1.46.66-1.79 1.94-2.46 1.71-.9 5.69-2.03 7.6-1.55.84.21 1.13.81 1.18 1.58.01.18-.05.35-.19.48s-.31.2-.51.19c-.54-.01-1.09-.05-1.63-.07-.5-.02-1.16-.05-1.66.04-.5.08-1.23.24-1.79.45zm37.52.92c-.05-.01-.14-.01-.19-.01-.65-.02-1.3-.04-1.95-.05-.29 0-.59 0-.88.04-.31.04-.63.12-.93.19-.46.1-.92.2-1.38.29.02.09.02.18.02.28 0 .06-.01.12-.03.17l-.88 2.62c-.07.22-.45 1.29-.43 1.55.05.07.17.18.23.24.17.18.21.42.12.64-.03.08-.06.15-.09.23-.2.56-.54 1.06-1.27 1.04-.3-.01-.58-.1-.8-.3-.57-.52-.36-1.46-.35-2.13.01-.29.15-.72.23-1.01.14-.48.28-.96.42-1.45.1-.36.2-.71.28-1.07-.74.33-1.52.94-2.27.98a.67.67 0 0 1-.69-.45c-.07-.22-.09-.44-.05-.66.22-1.31 2.29-2.01 3.46-2.35 1.07-.31 2.24-.56 3.35-.72.73-.1 1.45-.22 2.19-.26.98-.06 2.44-.05 3.06.78.17.22.26.48.27.75.02.3-.18.57-.49.65-.37.1-.59.16-.96.02zM50.14 34.74c.01-.38.29-1.12.42-1.5.14-.41.29-.82.44-1.24 0-.01.01-.02.01-.02l3.65-9.34c0-.01.01-.02.01-.03.37-.81.77-1.45 1.37-2.14 1.68-1.91 3.28-2.52 5.89-2.46 1.84.05 3.19 1.71 3.14 3.36-.02.81-.28 1.74-.51 2.52-.31 1.03-.68 2.06-1.07 3.07-.33.88-.68 1.75-1.02 2.62-.28.7-.56 1.4-.81 2.11-.27.76-.58 1.52-.91 2.26-.37.81-.84 1.77-1.41 2.47-.95 1.16-2.29 2.08-3.78 2.51-1.29.37-2.79.39-3.96-.33-.21-.13-.4-.28-.58-.45-1.05-1.03-.91-2.11-.87-3.41zm42.62-21.1c.1-.33.27-.65.47-.95.33-.49.81-.95 1.32-1.27.49-.3 1.17-.55 1.72-.21.23.14.37.36.44.61.06.26.07.54-.08.74.04.1.08.19.11.29.13.36.23.73.27 1.1.19 1.7-.97 2.54-2.74 2.49a.69.69 0 0 1-.56-.3.888.888 0 0 1-.34-.13c-.2-.13-.26-.29-.38-.47-.11-.17-.19-.35-.25-.53-.08.09-.16.18-.25.27-.28.31-.56.54-.94.75-.64.36-1.37.42-2 .02-.24-.15-.46-.38-.64-.64-.18.14-.4.18-.64.23-.19.04-.36.01-.52-.08a.624.624 0 0 1-.3-.41c-.04-.16-.07-.32-.09-.47-1.38 1.59-2.86 2.11-5.03 2.22-.3.02-.56-.14-.67-.4a.595.595 0 0 1 .2-.72c.17-.13.32-.25.52-.34.12-.06.24-.11.38-.14l.21-.05c1.15-.35 2.6-1.5 3.1-2.53.05-.11.2-.45.2-.61-.23-.06-.79.1-.97.16-.29.1-.69.29-.91.49-.27.25-.47.99-.62 1.34-.03.07-.06.13-.09.2v.02c-.03.34-.19.65-.61.71-.04 0-.07.01-.11.01-.09.01-.19 0-.28-.03-.29-.09-.48-.34-.47-.62.03-1.07.08-2 .33-3.05.1-.42.26-.8.37-1.21.09-.34.04-.68.28-.97.05-.07.11-.12.18-.17-1.06.02-2.24.56-2.47 1.52l.47.33c.05.03.08.07.12.11.32.36.43.86.1 1.26-.31.38-.85.45-1.3.27-.47-.19-.78-.59-.95-1.03-.13-.31-.24-1.08-.23-1.43.01-.28.07-.55.2-.8.86-1.77 4.42-2.27 6.16-1.55 1.25.53 1.45 1.71 1.11 2.78.78.34 1.32.84 1.56 1.43.08-.01.16 0 .25.02-.21-.22-.3-.48-.29-.78l.02-.76c.01-.18.08-.34.23-.46.15-.12.33-.17.52-.15.48.05.95.21 1.17.65.26.52-.02 1.08-.27 1.55 0 .01-.01.02-.01.03.25-.23.51-.42.78-.58.65-.37 1.61-.69 2.19-.03.59.66.17 1.74-.55 2.16-.24.14-.53.13-.76-.02-.07-.05-.14-.08-.21-.12-.08.17-.16.35-.2.42-.1.2-.18.39-.22.59.13-.03.25-.08.4-.16l.71-.42.06-.03c.18-.12.34-.13.56-.15.08-.01.16 0 .24.02zm-3.24-1.45c-.06.04-.13.06-.2.08-.07.02-.14.02-.21.02.06.06.12.12.16.19.08-.1.16-.19.25-.29z"/><g><path class="fil3" d="M42.75 37.76c.39-.32 2.46-6.06 2.84-7.16.27-.78.18-.79 1.06-.77.7.02-.02 1.13-.48 2.37-2.35 6.35-2.76 5.62-.29 5.68.67.02 1.34.03 2.02.05l3.16-8.27c.57-1.53 3.96-10.03 3.98-10.83-4.7-.12-3.46-.78-5.04 3.31-.25.66-.43 1.11-.69 1.78-.66 1.68-.3 1.69-1.33 1.67-.66-.02-.26-.61.11-1.58l1.4-3.67c.13-.3.21-.58.36-.96.36-.91.37-.67-3.29-.77-.61-.02-.97 1.58-1.3 2.47l-5.19 13.65c-.15.38-1.01 2.57-.98 2.71.12.5 3.01.39 3.64.31zM62.39 11.2c.46-.3.14.1.32-.46.17-.52.24-1.13-.68-1.19-.08.78-.21 1.37.36 1.65zm-1.01.69c-.09.2-.44 2.05-.19 2.58.17.37-.07.11.42.37.09-.16 1.11-3.15-.23-2.95zM79 18.3l.39.37c.63-.04.65-.35 1.09-.34.91.02 1.56.92 3.13.11.38-.2.53-.22.65-.65-.39-.11-.22-.06-.53-.27-.8.18.13.26-1.22.22-.2-.01-2.38-.96-3.51.54zm-41.17-4.57c0-.04.43-.57.52-.65.26-.24.34-.25.72-.32-.07 1.25-1.26 1.8-1.24.98zm.06-2.12c.93-.09.23-.74 1.51-1.16.31.67-.03 1.04-.05 1.81-.85.16-1.57.04-2.07.68-.51.65.08 1.67.66 1.68.2.01.6-.26.82-.36.23.46.08.46.52.77.4-.53 1.43-5.01.14-5.04-1.01-.03-2.29.84-1.53 1.62zm33.75.7c.02-.01-.07-.36.29-.02.16.15-.03.51-.17.78-1.35 2.48-1.33-.09-.12-.76zm-2.07 1.96c-.02.79.07 1.75 1.31 1.93.94.14 1.68-.41 1.76-1.1-.23.22-.83.65-1.15.69-.93.12-1.17-.93-.85-1.24 0 0 2.16-.35 2.2-1.58.01-.52-.31-.95-.73-1.2-1.44-.86-2.51 1.37-2.54 2.5zm3.49.21c-.02.74.07 1.4 1.03 1.66.4-.24.82-.5.97-.98l.4.01c.04.62.2 1.12.77 1.28.02-.54.02-1.1.04-1.64.05-1.04.89-2.04-.33-2.52-.2.37-.16.87-.67 1.79l-.91 1.06c-.64.28-.25.06-.38-.05-.56-.65 1.88-3.65-.3-3.75-.04 1.21-.6 2.09-.63 3.14zm-15.99-.78c-.03.97.66 1.95 1.67 1 .41-.38.16-.43.74-.56 0 .4.02.52.18.82.21.39.24.42.72.47-.17-1.17-.18-1.63.21-2.91.17-.54.01-1.08-.63-1.26-.18.33-.15.65-.29 1.01-.32.85-1.59 2.66-1.78 1.82-.06-.24.46-1.89.53-2.16.21-.83.36-1.57-.73-1.62l-.64 3.39zm-3.39.8c-.21-.4-.26-.42-.14-.9.09-.36.2-.61.33-.86.19-.38.72-1.24 1.25-1.23 1.04.03-.11 2.38-.74 2.77-.23.14-.29.2-.69.22zm-1.18-1.16c-.02.53-.2 1.63 1.3 1.67.44.01.97-.78.37.62-.78 1.81-.78 1.89.09 1.91.49.01 1-1.11 1.8-1.98.29-.32.44-.32.57-.74-.77.25-1.02.76-1.51.97.05-1.01 1.65-2.71 1.74-4.37-.93-.46-.32.17-1.26-.23-.49-.21.13-.18-.75-.2-.65-.02-1.19.46-1.54.81-.28.29-.8 1.07-.82 1.53zm-17.75-.32c-.18.65-.16 1.02-.19 1.82.01.62-.02.49.38.83 1.01-.65.36-1.55.36-1.55-.19-.8.61-2.98.84-3.88.48-1.91.31-.84.09-1.86.61-.36 1.71-.62 2.51-.76.86-.15 2.48 0 3.43.03-.03-.57-.19-.88-.67-1-1.64-.41-5.42.6-7.09 1.48-1.27.67-1.56.85-1.59 1.93 1.07-.21 2.74-2.12 2.71-.85-.01.24-.67 2.73-.77 3.8zm29.65-1.78c.74-.04 1.95-1.19 3.13-1.18-.03 1.03-1.05 3.94-1.07 4.38-.03.88-.24 1.76.49 1.78.46.01.55-.49.7-.86-.46-.5-.62-.38.07-2.39l.88-2.62c.01-.49-.24-.02-.11-.76 3.74-.72 2.2-.7 5.94-.61.69.02.29.2.94.02-.09-1.47-3.56-.85-4.75-.68-1.16.17-6.79 1.15-6.21 2.92zm-14.97 1.14c0-.15 1.2-1.88 1.58-2.1l-.26 2.89c-.65-.07-.19-.01-.68-.26-.25-.13-.42-.16-.65-.28l.01-.25zm-1.89.2c-.25.97.31.57-.74 1.47-1.32 1.14-2.57 1.06-2.54.33.04-1.35.18-2.22 1.23-3.45.41-.49 1.61-1.63 2.4-1.25.48 1.01-1.11 1.05-.6 2.13.96-.14 2.23-2.59.08-2.65-.99-.02-2.31 1.17-2.77 1.79-2.53 3.36-.25 6.69 3.68 2.6 1.28-1.34 2.22.53 3.12.67.09-2.99 1.13-6.4 1.14-6.82.01-.26-.4-.45-.66-.52l-3.34 5.37c-.48.38-.43.08-.99.32zm-7.23 17.46c-4.6-.12-3.56-.8-4.83 2.61-.33.89-.76 2.31-1.76 2.01-.36-.72.59-2.76.88-3.53l2.58-6.78c.45-1.16.94-3.07 1.9-3.04.51.01.05-.04.4.14.22.83-1.61 4.29-1.63 5.25l3.76.11c.3-.56 1.74-4.52 1.76-5.26.03-1.1.2-2.57-1.52-3.19-2.3-.83-4.84.13-6.26 1.72-1.47 1.64-2.19 3.9-3.01 5.96-.29.72-.53 1.43-.82 2.18-.67 1.75-2.11 5.19-2.17 6.98-.1 2.94 3.48 3.34 5.91 2.14 2.1-1.04 3.2-2.95 4-4.98.23-.6.77-1.71.8-2.32zm36.28 1.67c-.58-.01-.29-.44-.12-.75l2.1-4.42c.18-.37.23-.52.41-.89l.51-.8c-.02.77-.25 1.21-.43 1.77l-1.51 5.11-.94-.02zm-7.06 6.76 3.76.09c.28-.47.62-1.26.84-1.76.8-1.86.37-1.61 2.08-1.57-.08 1.49-1.61 3.36-.5 3.39 3.7.09 3.47.36 3.7-.75L81 31.8c.08-.35 3.1-11.43 3.06-12.26-1.43-.04-2.87-.06-4.31-.11-1.15-.04-1.15-.18-1.5.59l-1.69 3.51c-.17.34-.18.3-.36.68l-5.41 11.23c-.33.7-1.3 2.29-1.26 3.03zM54.7 34.82c.02-.84 3.55-9.8 4.34-11.77.73-1.82 1.41-1.11 1.41-.94-.02.79-3.37 9.36-3.7 10.2-.72 1.84-.82 2.92-2.06 2.89l.01-.38zm-3.9-.1c-.03 1.08-.19 2.08.69 2.95 1.64 1.61 5.24.82 7.28-1.67.83-1.02 1.76-3.22 2.22-4.54.89-2.5 3.31-7.9 3.38-10.13.04-1.33-1.04-2.67-2.48-2.71-2.36-.06-3.78.44-5.35 2.22-.55.63-.9 1.17-1.27 1.98l-3.65 9.34c-.16.45-.81 2.23-.82 2.56zm34.27 1.24c-.14-.62.13-1.11.4-1.81l3.88-10.29c.13-.34.5-1.28 1.08-1.26.99.02-.22 2.31-.82 3.86-.24.61-.38 1.03-.64 1.69l-1.29 3.4c-.25.63-.43 1.1-.65 1.69-.72 1.89-.76 2.75-1.96 2.72zm-3.89-.35c-.03 1.01-.18 1.9.56 2.7 1.35 1.46 3.95 1.07 5.62.04.68-.42 1.27-.97 1.77-1.61.99-1.24 1.57-2.79 2.19-4.44.73-1.97 3.38-8.38 3.42-9.96.03-.92-.35-2.14-1.36-2.6-1.74-.78-3.86-.33-5.26.72-.03.02-.12.09-.15.11l-1.08 1.01c-1.84 2.26-3.78 8.4-4.94 11.43-.16.41-.27.79-.42 1.26-.15.45-.34.89-.36 1.33zm-12.8-8.89c.02-.61.16-.74.33-1.23l.81-2.17c.18-.48.19-.61.59-.84 1.15.3.57.98-.14 2.84-.3.79-.51 1.41-1.6 1.4zm-8.27 11.51c5.05.13 3 1.37 5.95-5.78.36-.86.68-2.05 1.11-2.74 1.34.13.83.68.17 2.59-.15.43-.23.55-.36.94-.37 1.04-1.83 4.41-1.76 5.12l3.36.08c.46-.77.8-1.9 1.12-2.78l1.79-4.84c.08-2.82-.58-1.39-.87-2.54 1.55.01 2.27-1.37 2.78-2.43.6-1.25 2.19-4.73.66-6.03-.56-.47-.94-.39-1.89-.53-1.41-.21-3.39-.13-4.92-.17-.58.97-2.94 7.8-3.7 9.56-.35.8-.56 1.54-.88 2.37-.32.81-2.75 6.57-2.56 7.18z"/><path d="M85.3 9.66c-.05.58-.24 1.16-1.1 1.2.05-.91.37-.84.04-1.51-.74.04-.5.22-.67.89-.13.51-.24.64-.37 1.19-.23.98-.28 1.65-.32 2.93.02-.03.04-.1.05-.08.08.25.07-.14.09-.17 0 0 .12-.26.12-.27.22-.52.36-1.18.78-1.56.85-.79 3.94-1.68 2.78.68-.58 1.19-2.17 2.47-3.51 2.87-.33.1-.21.02-.5.15-.16.07-.28.17-.39.26 2.05-.11 3.35-.58 4.6-2.06 1.28-1.51.78-2.85-1.21-3.4.34-.62.78-2.03-.5-2.56-1.55-.65-5.34-.1-5.39 1.78-.01.26.11.97.19 1.18.45 1.11 1.51.73.99.13l-.79-.55c.05-1.85 2.46-2.8 4.17-2.34.35.09.6.26.75.48.15.22.18.49.21.76zm3.46 1.44c-.01.34.18.38.39.51.38-.7.53-1.18-.37-1.27l-.02.76zm-.65 3.89c.56-.12.34-.06.51-.66.18-.63.56-1.58-.44-1.86-.24.87-.28 1.55-.07 2.52zm1.1-.73c-.01.47.66 1.93 1.99 1.19.67-.37.84-.78 1.37-1.23-.29.02-.16.02-.31.08l-.73.44c-.45.22-.77.31-1.4.3-.12-.53-.02-1 .26-1.55.36-.72.39-1.03 1.02-1.06.11.44.04.28.39.51.78-.46.8-2.03-.92-1.04-.77.44-1.64 1.4-1.67 2.36zm4.94 1.26c-.32-.68.36-2.44 1.28-2.49.09 1.46.39 1.87-.91 2.59-.24.13-.09.03-.24.15 3.4.09 1.57-3.22 1.58-3.36.02-.6.31.06.18-.48-.28-1.15-3.64 1.44-2.48 3.25.23.35.1.29.59.34z" style="fill:#fe0000"/></g></g></g></svg>