<svg xmlns="http://www.w3.org/2000/svg" xml:space="preserve" width="80" height="96" style="shape-rendering:geometricPrecision;text-rendering:geometricPrecision;image-rendering:optimizeQuality;fill-rule:evenodd;clip-rule:evenodd" viewBox="0 0 26.77 32.12"><path d="M3.78 17.98c-.53-.75-.36-.78-.35-1.49.01-.47.12-.97.38-1.35-.43-.56-.38-.69-.71-1.47-.31-.75.05-3.41 2.24-2.62l-.15-.31c-.99.23-1.81-.26-2.22-1.31-.4-1.03-.31-2.02-.56-3.01C.83 7.13.01 4.1-.01 3.28c-.02-.73.62-1.2 1.55-.88l.56-.46C1.27-.09 3.5-.35 4.66 1.09 5.6 2.25 6.08 4.4 6.37 5.84l.37.09c.2-1 .38-1.27 1.1-1.44.48-.13.69-.01 1.07.23.34-.16.69-.19 1.05-.1.55-1.16 1.35-2.33 2.87-2.04.76.14 1.16 1.21 1.22 1.94.55.12.19.23.68.19.1-.01.21 0 .3.02.4-.73 1-1.5 1.77-1.82-.17-.56.06-.96.28-1.44.31-.67.29-.85.94-1.3.76-.52 1.94.31 1.97 1.15.7.05 1.34.45 1.49 1.2.08.4 0 .8-.02 1.21-.12 2.29.74 4.64.79 5.38.04.59.11 1.3.05 1.98l.73-.19c.13-.56.36-1.14 1.06-1.14.67 0 1.31.19 1.53.92 1.52.27 1.28 1.84.64 2.35l-.85.44c-.07 1.56.43 3.78-1.14 4.02.4.38.33.85.19 1.34l.64.84c.24.76-.36 1.45-.38 1.87-.05.78-1.11 1.32-1.79 1.11-.09.32-.34 1.27-.26 1.59.13.54-.15.76-.34 1 1.05 1.16.81 3.19-.41 3.16-.16 0-.3-.02-.45-.03.7.36.97 1.54.3 2.04-1.15.87-1.98.08-3.17-.39-.18.96-1.34.93-2.07.61.03.71-.29 1.62-1.17 1.5-.49-.07-1.91-.8-2.93-1.07-1.13-.29-4.14-.2-3.96-1.76-1.6.17-2.19 1.03-3.08.96-.99-.08-.89-1.09-.9-1.7-.01-.34.15-.64.42-.82-1.64-.85-2.72-3.52-.07-3.37-.45-2.79-2.34-3.64-2.59-5.08-.17-.97.98-1.31 1.53-1.29z" style="fill:#000"/><path d="M5.47 29.28c.67.05 1.97-1.73 6.02-.63.63.17 1.34.34 1.69.79-1.07.01-3.03-.8-3.75-.04.35.38 2.54.53 3.25.71 1.28.33 2.48 1 2.83 1.05.28-.87-.24-.89-.18-1.84 1.11-.22 1.38.66 2.34.51-.18-.6-.75-.75-1.33-1.01-.72-.32-2.02-.83-1.75.52.05.24.12.28.16.66l-.71-.19c-.15-.43.09-.54-.25-1.08-.06-.09-.32-.42-.34-.47-.85-1.69 5.27.74 5.99 1.03.66.26 1.14.8 1.77.32-.12-.43.06-.3-.46-.54l-1.77-.66c-.5-.19-1.92-.72-2.34-.72-.98-.33-3.31-.86-4.35-.58l.02.91c-1.28-.05-2.13-.39-3.65-.34-1.34.04-2.18.38-3.2.84l.01.75zM17.92 2.94c.54-.13.43-.42.78-.93.37-.55.58-.74-.14-1.04-.42.29-.3.24-.62.92-.25.53-.38.66-.03 1.05zm1.27 14.24c-.25-.45-.2-.66-.09-1.22.23.09.36.19.46.56.17.64.09.55-.37.67zm-2.76-4.57c-.1.28.07.11-.27.42-.13.75-1.09 4.1.6 5 .76.41 1.14-.12 1.59-.39l.39 1.2c2 .35-.58-1.17 1.07-1.41.76.84.32 3.02 1.17 3.13.93.12-.05-2.28-.34-3.07-.61-1.63-1.45-3.06-1.74-4.68-.2-1.07-.01-1.25-.98-1.32.06 1.69.5 3.23.46 5.15l-.98-.13c-.03.47-.09.72-.24 1.01-.87-.42-1-3.17-.35-4.01.58.65-.41 1.4.99 1.3.35-1.43.18-2.85-1.36-2.2zM.94 3.24c.01.43.68 2.71 1.15 2.22.23-.24-.13-.92-.26-1.24-.26-.64-.23-.86-.9-.97zm20.79 21.2-.06-.26c.32-3.16 1.81-4.88 1.95-6l-1.09-.33c-.37 1.37-2 5.62-1.21 6.85.39-.13.08.07.41-.27zm2.03-2.99c.03-.53.15-.49.32-1 .2-.61.12-.48-.13-.82h-.47c-.4.83-.78 1.37-.28 2.07.48-.05.13.04.56-.24zm-.44-9.65-.58.13c-.05.85.31.45 1.02.61.25 1.01-.46 4.53.54 3.9.32-.26.03-3.18.23-3.64.14-.32-.09-.12.3-.33l.36.04c.4-.26.67-.16.57-.77-.4-.2-.46-.12-.98-.09-.14-.69.12-.93-.7-.93-.33.76.06.78-.76 1.09zm-3.08 13.8c-.05 1.34.5 1.77 1.69 1.8.19-.76.04-1.18-.43-1.65-.75-.74-.77-.38-1.26-.15zM6.19 10.63c.64.1.55-.11 1.2-.19l-.04-.59c-.4-.53-.33-2.25-.48-2.9l-.64-.16c-.21.53.02 1.05.08 1.7-.28-.23-.35-.29-.54-.88-.12-.34-.19-.72-.26-1.11C5.23 4.98 4.47.97 2.85 1.14c.08.59.95 1.83 1.29 2.73.29.76.94 2.22.71 2.97-.68-.47-1.3-2.49-1.67-3.29-.24-.52-.22-.67-.82-.69.01.83.91 2.65 1.09 3.99.19 1.4.24 3.55 1.85 2.81-.16-.58-1.05-.54-1.04-2.25.69.36 1.15 1.59 1.53 2.37l.4.85zm9.86-3.42c-.59-.55.93-2.85 1.35-2.46.29.27.01 1.05-.11 1.38-.1.29-.14.38-.3.65-.23.4-.18.09-.21.44l-.73-.01zm-.39.74c1.17.18 1.53-.37 2.11-1.08.07 1.09-1.1 3.77.89 3.88-.01-.69-1.12-.79-.1-3.5.53.77-.2 1.7.88 1.76.21-.86.1-2.03.5-2.92.02.03.05.04.05.09.02.12.89 2.26.49 4.67-.15.93-.34 1.17.46 1.28.59-.57.41-2.12.35-2.97-.4-1.61-.88-3.82-.79-5.5.04-.84.26-1.27-.59-1.39-.34.99-.23 3.59-.74 4.34-.38-1.01.29-2.46.05-3.4-1.02.02-.37.54-.8 1.39-.32-.43-.2-.89-.87-.89-1.2 0-2.23 2.29-2.24 3.07l-.21.39c-.18.33.05.03-.18.34 0-.56.16-1.38-.14-1.85-.62.04-.57.1-.56.86.01.8.26 2.78-.44 3.44-.6-.4-.36-1.98-.21-2.82.24-1.29.95-1.95-.35-1.61l-.41 2.57c-.89.09-1.54-.44-2.12.38.25.4.08.17.63.41l-.12.97c-.28.14-.14.14-.52.08-.51-1.36.3-5.31 1.48-5.35.19 1.11-.14 1.46-.2 1.88l.06.53c.94-.33 1.52-2.65.63-3.49-1.28-.24-1.72 1.41-2.23 2.31-.83-.33-.86-.54-1.66.15-.15-.14-.13-.31-.35-.45-.34-.22-.14-.12-.53-.09-.45.88-.39 3.36-.36 4.41.06.36-.25.44.36.44.59 0 .14-.05.22-1.83.04-.99.46-1.43 1.04-1.8.37 1-1.69 3.93.01 4.26.25-.93.18-2.33.74-3.02.03 1.47-.03 2.97 1.57 2.74.08.63-.03.58.57.73.29-.41.22-.89.27-1.53.2-.44 0-.51.35-1 .06.11.02-.03.13.29.14.39.13.68.35 1 .35.51.76.44 1.33.3.24-.5.22-.7.26-1.37.41.33.49.92 1 1.2l.54-.02c1.13-.36 1.28-1.66.15-1.63-.52.61-.04.82-.76.95-.12-.39-.34-1.21 0-1.6zm-4.57 6.34.28.54c.29.81-.1.82-.11.82-.31-.38-.38-1.03-.43-1.59.16.14.11.06.25.23zm4 6.18c.38.36.53.52.95.93.8.78 2.1 1.82 2.41 3.14.57 2.38-2.02 2.6-2.06.58-.02-.85.25-.92.38-1.51-1.85-1-1.54 1.2-1.24 2.07.24.7.72 1.16 1.33 1.44.61.19.92.27 1.57-.06.6-.31.63-.65.99-.89.22-1.05.3-1.23-.2-2.18-.61-1.15-1.47-2-2.37-2.77-.4-.34-1.09-.78-.99-1.53 1.03-.67 2.09.63 2.58 1.44.26.43.29.69.73.8.55-.68-.19-1.59-.62-2.16-.56-.73-.95-1.01-2.08-1.11-.95-1.19-.35-3.64-1.76-3.81-.11.54.08.97.22 1.45.49 1.7.23 1.05.06 1.27-.14-.33-.26-.96-.63-1.05-.62-.16-.36.44-.39.83l-.61-.03c-.19-.56-.16-1.48-.28-2.17-.11-.64-.27-1.24-.41-1.87l-.28-.12.01-.54c-.24-.74-.49-.99-1.25-1.15.15.55.52 1.03.75 1.66.21.6.41 1.17.51 1.85-.55-.43-.92-1.13-1.28-1.7-.4-.63-.65-1.38-1.12-1.8-1.06-.2-.2.27-.9.02-.37-.13-.19-.25-.76-.31.19.96 1.06 1.62.61 3.54-.22.94-.42.82-.51.88-.93-1.55-.38-3.95-1.69-3.98-.14.99.62 3.26.95 4.16.63 1.7-.87 2.28-.83 3.93.48.1.52.17.86-.12-.83 1.99.55 2.91 1.42 3.65l-.49.8c-.79-.34-3.12-3.19-3.87-4.1-.2-.24-.38-.45-.62-.7-.38-.42-.44-.4-1-.17.09.5 1.32 1.95 1.71 2.56.46.74 1 2.35.94 3.34h.2v1.15c-1.03-.32-.37-1.04-1.85-.79.45 1.82 2.56 2.12 3.75 1.48.7-.38.54-.48.92-1 .5.12 2.01 1.64 3.14-.41 1.07.41.03.65 1.97.35.18.55.27.76.94.72-.26-1.29-.37-1.54-.34-3.02.02-1.1.01-2.1.24-3.15l.29.14zm-7.36-.85c0-.98.16-1.47.64-2.04.57.34.25.73 1.13.69-.23-.99-.89-1.06-.36-2.22.44-.98.45-1.64.74-2.41.11.14.03-.03.17.26.34.71.43 2.7.5 3.5.06.68-.04.7.59.7.32-.52.15-.71.17-1.34.29-.16.42-.17.71-.33.15-.09.69-.92.57.78-.17 2.47 1.11-.11 2.93 1.3-.14.5-.24.36-.45.83-1.06-.01-1-.77-1.23 2.03-.09 1.08-.03 2-.05 3.06.2.12.12.13.41.05-.38.23-.51.44-1.07.37-.3-.76-.37-1.7-.3-2.68.04-.47.07-.92.16-1.36.09-.46.29-.91-.05-1.11-.42-.25-.67.2-.75.5-.08.3-.14 1-.16 1.33-.24 3.35.44 2.75-1.38 3.34-.04.55.13.5-.02.94-.93.08-1.4-.67-1.31-1.69.31-.06.82 0 1.15-.24-.22-.73-2.8-1.63-2.39-3.76.8-.13 1.22.49 1.55.99 1.01 1.57.28 1.58 1.12 1.55.25-.42.1-.79-.14-1.25-.19-.39-.39-.65-.62-.97-.82-1.13-.81-.79-2.27-.83zm.19 5.61c-.15.85-.18 1.27-1.04 1.28l-.25-1.42-.46-1.84c.09.04.7.63.9.82.35.34.44.76.84 1.16zM3.97 13.28c.73 1.78.07.44.95 1.79-.2.59-.27.36-.45.82-.18.47-.05.73-.14 1.17.02.03.06.04.07.1.01.07.77 1.44 2.02 1.01.72-.25 1.58-1.7-.16-1.54l-.19 1.1c-1.04 0-1.14-.79-.97-1.73.47-.25.51-.18 1.06-.3-.22-1.16-1.48-1.06-1.48-3.12 1.37.41.63 1.74 1.56 1.81.35-.66-.31-1.42-.47-2.03-.8-.52-1.9-1.07-1.81.93z" style="fill:#fff"/><path d="M15.75 10.27c.04.28.13.52.13.71 0 .39-.1.44-.2.57-.65-.48.05-.52-.63-.81-.48.57.26.41 0 1.2-1.09-.18-.08-.81-1.12-.83-.09.83.31.39.28 1.54-.99-.21-.18-.7-.98-.54.04.65.28.21.37 1.06-1.03-.08-.34-.35-1.18-.52l-.01.54.28.12c.98.17.74.54 1.37.97.83-.08 1.59-.85 2.12-1.24.35-.31.18-.14.27-.42-.07-.36-.23-.78-.26-1.11-.05-.61.1-.64.11-1.25l-.54.02z" style="fill:#fc0"/></svg>