<svg xmlns="http://www.w3.org/2000/svg" xml:space="preserve" width="95.425" height="71.109" style="shape-rendering:geometricPrecision;text-rendering:geometricPrecision;image-rendering:optimizeQuality;fill-rule:evenodd;clip-rule:evenodd" viewBox="0 0 47.05 35.06"><defs><style>.fil0{fill:#000}.fil1{fill:red}.fil2{fill:#fff}</style></defs><g id="Camada_x0020_1"><g id="_2481816976144"><path class="fil0" d="m4.88 19.28-.72 1.23c-.63 0 .02-.26-1.31.01-1.99.4-2.64 1.82-2.83 3.64-.08.77.32 1.84 1.68 1.5.77-.2.48.01 1.25-.41.7-.39.66-.62.55.04-.15.9-.39 1.93.32 2.61.36.64 1.59.12 1.75.2.21.11-.42 1.78-.58 2.26l-1.11 3.43c-.24.56-.31 1.04.33 1.05.66.02 4.24.08 4.83-.12.24-.08.11-.03.36.08l3.72.08c1.95 0 1.36-.16 2.13-2.25.36-.97-.84-.59-1.24-.8 0-1.6 1.35-.21 1.68-1.31l.53-1.51c.52-1.67-1.63-.18-.81-1.49 1.04 0 .66.08 1.32-.17.37-.14-.01 1-.11 1.54l-1.02 5.45c.03.69.28.54 1.36.54 4.62 0 2.96-.03 3.75-.61.65.34.02.76 2.57.76 1.15 0 1.52-.1 2.49-.75.43-.28.14.29 1.3.67.32.11 2.51.22 3.34-.22.4-.22.27.12.63.14l11.79-.01c.49-.11.69-1.25.95-1.97.26-.75-.13-.11.41-1.57l1.89-4.95c1.01-2.41-.13-1.37-.8-1.76l.86-2.61c.22-.71-.13-.79.24-1.07-.03-.07-.03-.07-.07-.13.28-.12 1.78-3.21-.32-3.2l-2.36-.08c-.23 0-.5.19-.9-.04l3.01-2.34c.36-.39.38-2.07.4-2.63l.24-4.62.03-.81-3.83-4.85c-1.02-1.18-.29-.6-1.58-1.04L38.42.73 35.31.12c-1.35-.29-.92-.07-1.46.17l-4.6 3.48c-.23.8-.07.8-.22 1.84-.01.07 0 .16 0 .23-.47-.04-.28-1.27-2.69-1.39-.74-.04-2.11-.06-2.79.34-.15.09-.3.22-.46.27-.45.15-1.18.95-1.38 1.56-.06.19-.09.41-.29.46l.1-2.09c-.05-.54 1.55-1.4.88-2.14-1.34-1.47-1.34-.88-1.72-.94-.1-.02-.4-.22-.65.04.02.12 0 .06.07.15-.47.24.27.48-.85.11l-1.9-.3c-.72 0-.76-.01-1.69.88l-.69 1c-.12.5.7.62.73 1.06l-.74-.25c-.45-.07-1.6.02-1.84-.03l-.3-.05c-.22.05-.14-.05-.38-.06l-.24.09c-.51 0-.4.29-.61.56-.16-.74-.11-.45-.63-.59L8.62 4.5l-1.04.04-.1.07-.25 1.34-1.51 11.61c-.16.67.44.23-.37 1.07l-.45.62z"/><path class="fil1" d="M23.89 32.62c0-.17.07-.28.13-.4.06-.13.06-.25.1-.4.05-.19.08-.21.16-.37l.6-1.89c.17-.43.38-1.3.47-1.53.06-.15.11-.21.15-.38.1-.43.13-.36.27-.71.13-.32.22-.27.45-.21.05.24-.07.43-.16.86-.05.21-.07.25-.14.42-.07.17-.08.24-.12.41-.05.18-.12.22-.17.39-.04.15-.05.28-.1.44-.1.36-.12.11-.28.81-.07.31-.19.53-.28.82l-.34 1.06c-.05.15-.11.2-.23.56-.18.53-.5.34-.5.12zm12.44-7.52c.04-.17.08-.14.23-.37.42-.61.74.09.81.37-.43.11-.61.04-1.04 0zm-1.36-.23c0 .01.01.01.01.03l.04.07c.07.09.08.03.06.12-.02.11-.13.1-.21.18-.06.06-.09.16-.12.25-.04.12-.07.18-.11.3-.29.73-.46 1.56-.8 2.37-.11.27-.29 1.06-.37 1.22l-.4 1.19c-.03.12-.04.19-.08.3-.04.14-.09.19-.11.3-.13.51-.13.21-.22.57-.14.53-.04.34-.27.9l-.48 1.53c0 .09.08.19.16.22.13.05 2.27-.02 2.63.02.28.03.35.04.67-.02.33-.06.36-.41.55-1.03.03-.09.05-.19.09-.29.29-.74-.23-.64-1.09-.64-.21-.34-.07-.29.1-.93.25-.95.28-.93.86-.92.95.01.73-.17 1-.77.05-.11.07-.22.11-.34.14-.41.29-.77-.29-.78-.51-.01-.87.02-.5-.88.28-.68.26-.73.75-.73.51 0 .9.12 1.03-.35l.2-.56c.09-.21.12-.35.17-.58.02-.07.07-.23.05-.3-.06-.24-.1 0-.13-.25.3-.16.62.12.16-.98-.32-.75-.34-.79-1.09-.79-.14 0-.16.03-.25.03-.23 0-.36-.15-.8.27-.14.14-.31.26-.47.38-.18.13-.26.28-.43.42-.17.14-.31.28-.41.48zM27 32.85c0 .71-.03.72.34 1.22.32.44 1.13.56 1.7.56.19 0 .24-.03.39-.03.35 0 .22-.08.63-.18.13-.03.28-.05.37-.1.1-.05.14-.14.22-.22.09-.08.16-.1.27-.18.33-.26.18-.03.5-.42.54-.67.31-.45.67-1.17.06-.11.11-.18.16-.29.05-.11.06-.23.11-.35.02-.05.05-.1.07-.15.12-.31.21-.48.14-.81-.5-.13-1.29-.08-1.86-.08-.35 0-.44.65-.54.89-.05.13-.09.2-.14.35-.08.28-.22.85-.51.96-.67.25.22-1.82.31-2.21l.81-2.45c.14-.34.23-.73.32-.92.17-.35.1-.59.46-.59.4 0 .14.47.09.71-.11.55-.16.5-.22.73-.23.92-.47 1.01.26 1.13.31.05.38-.02.66-.02.4 0 .86.21 1.09-.29.04-.1.07-.17.1-.28.12-.46.13-.36.26-.88l.16-.59c.08-.37.16-1.16-.1-1.47l-.34-.4c-.53-.44-1.73-.46-2.37-.23-.2.07-.39.11-.56.2-.68.36-.5.35-.87.68l-.24.21c-.24.26-.22.36-.42.7-.09.15-.17.38-.24.55l-.23.57c-.08.21-.01.17-.18.57-.17.39-.1.38-.18.62-.07.22-.17.35-.23.6 0 .01 0 .02-.01.03l-.27.83c-.04.2-.02.16-.1.31-.09.16-.49 1.77-.49 1.91zm-9.74-1.26c-.03.11-.01.23-.03.35l-.24 1.13c-.03.11-.03.14-.05.29-.04.26-.09.46-.09.71 0 .43.77.38 1.07.34.31-.04.42.01.76.01h1c.55 0 .51-.16.63-.44l.09-.18c.01-.02.03-.1.03-.12.06-.24.16-.37.27-.6.13-.28.22-.56.35-.82.07-.15.12-.23.2-.4.06-.15.1-.27.16-.41l.93-2c.06-.14.08-.26.15-.41.07-.15.15-.23.22-.37.08-.15.08-.29.23-.33.07.15.04.08-.01.21-.15.35-.27.79-.36 1.16l-.45 1.36c-.11.25-.48 1.65-.45 1.91.03.3.11.76.25.93.49.64 1.26.7 1.99.7.52 0 .84-.27 1.12-.37.75-.29.4-.17.84-.64.25-.27.48-.51.64-.85.06-.14.1-.18.17-.32.07-.13.09-.25.14-.39.06-.16.11-.19.16-.33.08-.26.14-.54.25-.77.08-.17.11-.39.18-.57.1-.26.1-.39.17-.59.04-.12.11-.22.15-.33.05-.14.06-.29.1-.43.08-.27.22-.47.26-.76.02-.13.13-.36.22-.77.13-.66.34-.9.06-1.68-.13-.37-.43-.57-.75-.74-.47-.24-1.51-.23-2-.02-.67.28-.73.24-1.41.87-.11.11-.1.17-.26.18-.05-.1-.04.03-.04-.12 0-.07.07-.31.09-.4.05-.16.09-.21.12-.37-.1-.07-.12-.15-.29-.15h-1.57c-.23 0-.39.09-.48.29-.09.2-.17.32-.26.53l-.45 1.13c-.19.44-.38 1-.58 1.41-.05.1-.07.17-.11.26-.06.13-.15.43-.29.49.09-.21 0-.02 0-.19l.09-.52c.05-.19.1-.16.13-.44.03-.31.12-.65.19-.95.15-.64.34-1.27.34-1.94l-.68-.11c-.14 0-.15.05-.35.03-.12-.02-.19-.03-.37-.03-.94 0-.77-.04-1.01.69-.18.55-.21 1.23-.33 1.8-.04.2-.11.35-.12.56-.02.23-.01.15-.06.33-.13.49-.15.98-.27 1.48l-.24 1.17c-.06.53-.07.28-.14.55z"/><path class="fil2" d="M6.95 17.51c0 .34.03.27.72.27.16 0 .35-.26.65-.3.21-.03.21.06.42-.04.52-.24.31-.07.74-.09.06-.17.07-.39.09-.59.03-.25.07-.42.09-.64l.41-3.11c.03-.2.08-.43.09-.63l.73 5.03c.04.14.09.12.19.22.08.08.12.14.26.14h2c.32 0 .48-2.09.57-2.63l.39-2.9c.1-.65.16-1.27.27-1.91l.64-4.78c.06-.62.18-.52-.47-.56-.34-.02-1.74-.1-1.96.02-.08.17-.05.42-.08.65-.02.17-.08.43-.11.65-.06.45-.13.86-.17 1.32l-.31 2.32c-.04.16-.04.14-.04.34-.09-.07-.09-.12-.12-.26l-.37-2.34c-.04-.3-.37-2.6-.44-2.68-.1-.13-2.31-.08-2.47-.08-.08.18-.4 2.71-.45 3.1L7.07 16.7c-.03.16-.03.23-.05.41-.01.08-.06.29-.06.4zM24.29 15.27c0-.35.21-1.72.27-2.18l.21-1.62c.01-.08.04-.14.06-.25l.31-2.4c.06-.35.17-1.28.32-1.5.2-.31.71-.32.69.17-.03.71-.09.72-.13 1.21-.09.98-.27 1.92-.39 2.9l-.24 1.79c-.02.15-.07.4-.09.56-.05.4-.19 1.48-.37 1.8-.05.09-.15.16-.28.16-.41 0-.36-.15-.36-.62zm-2.9-.35c0 .95 0 1.6.69 2.34.19.21.15.25.53.24l2.25.01c.45.06.48-.12.61-.12.57 0 .37.04.51.05.07.01.11-.03.21-.04.2-.03.34.04.49-.05.15-.09.47-.42.58-.57.41-.55.55-.9.73-1.56.18-.66.71-4.61.84-5.57.11-.84.25-1.93.1-2.72-.23-1.22-1.38-2.04-2.51-2.04-.59 0-1.02-.04-1.58.15-.29.1-.63.22-.89.39-.08.05-.17.12-.26.19-.13.09-.13.11-.23.21-.1.1-.15.11-.23.22-.64.84-.86 1.47-1.02 2.53l-.33 2.34c-.03.29-.08.51-.11.81-.02.16-.03.21-.06.36l-.25 2.01c-.02.16-.03.29-.05.41-.03.15-.04.24-.04.42zM17.42 13.11c0-.16.86-3.67.94-3.96.09-.31.06-.43.17-.51.05.1.02.97-.01 1.19-.08.72-.1 2.41-.16 2.91-.03.2.06.49-.12.49-.49 0-.82.08-.82-.12zm-3.68 3.93c.23-.01.19-.15.65-.37.22-.11.56-.09.86-.19.9-.29 1.29.39 1.52.49.13-.35.05-.14.13-.48.29-1.19.03-.94.83-.95.46-.01.36-.09.32.85-.02.53-.07.6-.07 1.23.22.04.18-.04.5-.04.41 0 .13.41.79.08.11-.05.15-.08.28-.13.14-.05.46-.14.65-.15 1.11-.03.75.5.79-2.93 0-.22.05-.26.04-.46-.01-.18-.04-.24-.04-.46 0-.33.06-.62.03-.92l.01-2.09c0-.23-.05-.3-.02-.48l.03-4.72c0-.33-.16-.24-.91-.23-.24 0-.32-.04-.53-.04h-1.68c-.42 0-.71-.04-1.11-.04-.17.27-.4 1.43-.5 1.82-.03.13-.08.27-.1.39l-1.42 5.64-.1.39c-.13.55-.95 3.64-.95 3.79zM10.13 26.95c0 .23-.38 1.29-.47 1.58l-1.15 3.46c-.05.13-.08.21-.15.34-.15.29-.42.41-.58.34-.13-.05-.02-.19.02-.33.04-.12.07-.25.11-.38l.26-.77c.24-.66.47-1.5.69-2.14.22-.62.45-1.47.67-2.09.04-.12.08-.29.19-.29.24 0 .39-.01.39.27zm2.32-.62c0-1.17-.8-1-1.05-1.07-.15-.04-.2-.09-.33-.15-.32-.14-2.34-.13-2.95-.13-.21 0-.22.26-.32.54l-.97 3c-.04.12-.07.21-.11.34l-1.08 3.31c-.04.12-.08.21-.12.34l-.32 1.01c-.36 1.02-.49.83 1.3.83.99 0 2.32.09 3-.35.22-.14.29-.19.46-.39.45-.53.82-1.73 1.05-2.49.07-.21.14-.42.21-.66.2-.63 1.21-3.46 1.21-4.13zM40.34 22.05c.02-.2 0-.04.04-.15.07-.2.71-1.61.82-1.74 0 .36-.29 1.17-.39 1.55-.1.41-.12.43-.47.34zm4.27-2.06c.04-.12.06-.18.1-.31l.11-.31c.04-.13.08-.17.16-.25.08.04.18.06.18.19 0 .15-.17.6-.23.72-.12.25-.11.44-.45.44v-.15l.12-.33zm-3.75-2.02c-.05.1-.09.16-.15.29-.06.12-.11.21-.16.33l-.84 1.79c-.05.12-.04.09-.08.18l-1.22 2.62c0 .12.25.64.31.79.18.44.11.45.66.45l.24-.55c.08-.19.17-.39.26-.57h.39c.04.19-.03.28-.08.49-.08.28-.25.63-.02.63h2.75c.19 0 .37-.77.48-1.03l.54-1.5c.06-.2.06-.33.23-.33.15 0 .14.14.14.23 0 .17 0-.02-.05.14-.02.06-.03.11-.05.18l-.55 1.53c-.32.89-.35.78.4.78.92 0 .61.37 1.34-1.64l.29-.84c.13-.54-.12-.58-.27-.83.18-.13.37-.13.53-.32.44-.54 1.15-2.27.43-2.64-.48-.25-1.85-.16-2.46-.16-.15 0-.15.11-.2.25l-1.62 4.5c-.03.1-.03.08-.06.17-.04.11-.08.26-.16.32 0-.45.58-2.71.7-3.29.02-.11.04-.2.07-.31.02-.08.03-.08.04-.15.02-.07.02-.12.03-.19.07-.32.29-1 .23-1.3-.63 0-1.53-.09-2.09 0zM45.07 7.95l-.05.96c-.09.93-.11 1.91-.18 2.81-.01.14-.05.28-.07.43-.03.32-.03 1.14-.08 1.41-.05.26-1.04.87-1.31 1.1-.1.09-.17.11-.28.2l-2.47 1.85c-.53.43-.48.41-1.01.33-.23-.03-.54-.09-.8-.15l-4.71-.93c-.23-.07-.36-.28-.5-.47l-.52-.67c-.04-.05-.03-.04-.05-.06l-.71-.89c-.3-.36-.55-.71-.86-1.08l-1.29-1.62c-.19-.22-.28-.32-.26-.72.01-.27.06-.63.07-.92.04-.82.03-.97.13-1.86.05-.45.13-2.57.19-2.8.05-.2 1.09-.91 1.33-1.08l2.47-1.85c.19-.14.36-.27.55-.41.3-.22.28-.2.7-.11.27.06.54.12.78.16l4.73.91c.3.08.77.78.93 1l1.07 1.35c.08.11.13.16.21.27l.85 1.08c.08.11.13.15.22.27.07.1.13.18.21.28.09.11.13.15.21.27.27.41.56.49.46.94zm-6.55 9.6c.19 0 .3.04.5.04h.57c.37 0 .74.02 1.11 0l4.02-2.98c.12-.09.19-.12.3-.22.45-.38.31.01.39-1.15l.14-1.93c.01-.31.06-.71.07-1 .03-.67.09-1.3.14-1.98.05-.74.18-.82-.47-1.52l-1.32-1.7c-.47-.59-1.14-1.35-1.58-1.96-.08-.11-.14-.19-.23-.3L41.48 2c-.17-.18-.4-.2-.73-.25L35.34.68c-.74-.14-.68-.05-1.11.24-.12.08-.19.11-.3.22-.16.16-.39.3-.57.43l-3.17 2.37c-.11.08-.52.36-.55.45l-.28 3.94c-.08.74-.12 1.66-.19 2.46-.03.32.33.57.55.92l2.48 3.1c.15.2.3.38.45.59l.66.84c.08.1.14.21.23.29.16.14.52.15.78.2l4.17.83z"/><path class="fil1" d="M7.41 23.17c0-.13.08-.05.15-.41.11-.56.23-.31.33-.72.05-.2.02-.28.19-.33.05.12-.01.36-.06.51-.09.27-.1.42-.13.51-.07.19-.03-.03-.21.43-.08.21-.28.34-.28.01zm-4.5-1.04c0 .16-.02.5.25.5.17 0 .26-.06.37-.14.11-.09.18-.14.26-.26.09-.13.14-.35.45-.27.27.07.2.25.07.49-.27.51-.34.51-.52.83-.19.34.04.09-.28.43-.19.2-.17.24-.29.38-.16.2-1.1.93-1.1-.3 0-.69.15-1.16.49-1.71.07-.12.09-.19.15-.3.28-.48 1.07-.44.42-.05-.1.06-.1.08-.17.16l-.03.04c-.07.1-.07.09-.07.2zm6.36-.69c0-.21 0-.27.09-.4l.05-.06c.03-.04.03-.03.05-.06.12-.18.03-.19.15-.34.21-.26.19-.29.37-.29.05.24-.08.54-.22.69-.3.31-.23.45-.49.47zm-2.4.04c0-.03.32-.73.4-1.03.08-.29.23-.82.53-.9l.04.03c.27.27-.03.51-.12.69l-.38 1.06c-.06.11-.17.38-.29.38-.13 0-.18-.06-.18-.23zm-1.54-.58c.13-.14.09-.02.19-.26l.51-.88c.09-.09.16-.1.23-.22.12-.22-.05-.09.19-.26 0 .22-.07.17-.13.33-.08.23.07.73-.11 1.19-.05.13-.09.17-.13.32-.05.18-.02.18-.09.32-.17.32-.46.31-.75.19l-.18-.08.28-.66zm2.72-2.16c-.46 0-.33-.54-.75-.54-.51 0-.69.42-.9.65l-.34.44c-.1.12-.08.08-.15.22l-.84 1.53c-.13.26-.24.59-.59.59-.71 0-.36-.93-1.58-.58-.26.07-.58.36-.79.54l-.39.46c-.28.4-.65 1.6-.55 2.11.18.89.71 1.05 1.45.78.28-.1.23-.12.42-.31.17-.18.49-.29.6-.51.06-.12.07-.18.13-.29l.29-.46c.07-.1.08-.11.14-.23.05-.1.08-.14.14-.24.27-.44.35-.84.79-.84.28 0 .43.04.43.31 0 .45-.24.65-.33 1.03-.08.31 0 .11-.13.32-.05.08-.17.57-.21.7l-.21.7c-.06.18-.06.11-.1.36-.1.65-.24 1.26.22 1.8.08.09.16.14.26.18.27.12.54.14.8.01.12-.06.24-.14.27-.28-.14-.1-.32-.13-.46-.23-.36-.25-.1-1.68-.04-1.97.05-.21.11-.27.16-.48.12-.5.32-.93.49-1.4.11-.3.15-.73.53-.74.06.29-.02.43-.09.72-.28 1.19.54 1.28.94.44 0-.01.01-.02.01-.03l.03-.05c.24-.3.46.35.88.29.04-.01.27-.07.31-.09l.42-.31c.18-.15.26-.38.42-.55l.33-.42c.15-.18.52-.9.61-1.11.06-.13.12-.14.06-.28-.15.04-.15.17-.22.3-.08.13-.11.24-.18.38-.09.19-.25.35-.33.49-.04.07-.05.12-.1.21-.18.31-.32.33-.52.55-.16.18-.45.49-.62.11-.1-.22.04-.67.21-.82l.68-.7a.8.8 0 0 0 .13-.13c.14-.14.12-.16.22-.34.23-.42.34-.5.34-1.02 0-.33-.52-.35-.92-.03-.16.13-.32.23-.46.39-.07.09-.11.17-.16.25l-.29.38c-.04.06-.04.07-.09.14l-.19.25c0-.43.21-.51.3-.84l.2-.55c.06-.14.29-.69.43-.69.29 0 .09.23.43.23.08 0 .26-.25.33-.34.13-.15.12-.24.29-.38.41-.34.73-.37.63-.82-.11 0-.14.04-.22.11-.4.39-.64-.51-.97.11-.14.25-.07.17-.27.17 0-.03-.04-.42-.05-.45-.07-.29-.58-.36-.68-.06-.07.19-.17.86-.6.86z"/><path class="fil2" d="M10.48 34.2c0 .07.01.08.02.13.18.06 3.08.03 3.52.03.25 0 .19-.08.34-.48.07-.21.16-.45.22-.66.22-.82.44-.75-.52-.75-1.04 0-.88.27-.38-1.33.05-.16.17-.5.24-.63 1.58-.01 1.24.2 1.58-.8.32-.94.4-1.05-.04-1.03l-.92-.03c-.01-.18.46-1.56.48-1.59.11-.14.31-.1.51-.1 1.05 0 .93.13 1.07-.35.03-.11.52-1.4.43-1.5-.08-.09-2.3-.05-2.61-.05-.23 0-.46-.04-.72-.03-.31.02-.31.25-.48.76l-.7 2.17c-.07.21-.13.4-.21.63-.26.78-.81 2.39-1.01 3.11-.12.42-.82 2.37-.82 2.51zM34.83 23.15c-.23-.21-.34-.01-.82-.13 0-.18.11-.47.17-.63.08-.2.13-.38.21-.58l.51-1.45c.04-.13.07-.17.12-.3l.6-1.78c0-.13-.15-.14-.26-.19-.25-.1-.08-.01-.32.06-.16.04-.68.01-.88.01l-.57 1.55c-.32.93-.7 2.07-1.05 2.96l-.36 1.01c-.07.17-.35.73-.07.73h2c.29 0 .29-.23.42-.4.21-.16-.04.21.44-.23.15-.13.27-.24.41-.37.51-.47.48-.4 1.06-.43.1-.19.17-.41.25-.65.23-.7.18-.62.53-.62 0 .4-.46 1.09-.32 1.23.07.07.78.06 1.04.08.39.03.44.01.62-.6.06-.2.14-.41.21-.62l.8-2.22c.01-.02.02-.06.03-.08l.48-1.45c0-.2-.93-.12-1.29-.12-.3 0-.33.5-.52.94l-.29.81c-.05.13-.07.17-.11.31-.08.26-.1.25-.3.25-.19 0-.06-.29.02-.51.07-.2.13-.35.2-.55.1-.26.42-1 .35-1.22-.15-.05-.97-.03-1.19-.03-.39 0-.58.91-.79 1.46l-.61 1.7c-.17.51-.59 1.74-.75 2.06zM23.93 20.4c-.13 0-.1-.08-.08-.15l.24-.67c.04-.12.11-.36.16-.45.08-.14.29-.12.29.04 0 .21-.23 1.23-.61 1.23zm-3.04 3.89c.23.14.95.08 1.36.08.18 0 .19-.08.24-.24.05-.13.09-.25.14-.39l.73-2.07c.02-.05.02-.06.03-.08.04-.11 0 .05.04-.11.29 0 .31.1.18.5l-.58 1.69c-.07.19-.21.5-.17.66.14.08 1.06.04 1.29.04.15 0 .3-.68.44-.99.04-.1.04-.08.08-.22l.29-.88c.06-.17.11-.26.15-.45.06-.29-.01-.69-.32-.77.25-.37.49.3 1.19-1.65.07-.2.13-.59.13-.86 0-.1-.17-.42-.25-.42-.24 0-.44.08-.65 0-.18-.07-.24-.27-.46-.27h-1.54c-.14 0-.31.61-.35.74l-1.97 5.7zM28.68 23.52c0 1.36 2.81 1.52 3.57-.78l1.24-3.48c.02-.07.03-.09.05-.14.05-.13.31-.76.25-.89 0-.01.05-.16-.31-.11-.66.08-1.06-.1-1.19.15l-1.73 4.81c-.06.13-.11.23-.28.24-.12-.15.1-.59.15-.73l1.33-3.77c.06-.17.2-.48.17-.63-.19-.1-.82-.04-1.18-.04s-.22-.26-.56.71l-.79 2.27c-.04.14-.03.09-.07.19-.05.13-.07.22-.11.34-.18.52-.54 1.31-.54 1.85zM19.21 23.29c-.26 0 .12-.83.23-1.18l.62-1.79c.13-.36.4-1.27.62-1.39.44-.23.03.77-.05.96l-.88 2.49c-.04.12-.05.16-.09.29-.03.1-.07.17-.11.26-.09.18-.11.37-.33.37zm.04-4.59c.03.04 0-.01.05.07.01.02.05.09.05.1.14.35-.28 1.02-.49 1.37-.35.6-.66.91-.83 1.42-.13.41-.49 1.36-.48 1.73.02.4.11.59.33.79.52.48 1.54.3 2.09.03.45-.23.85-.68 1.08-1.18.25-.55 1.39-3.7 1.4-4.14.04-1.67-2.44-1.43-3.2-.19zM28.33 18.16c-.4 0-.41.04-.66-.07-.16-.07-.04-.05-.16-.01-.01 0-.02.01-.02.01l-.05.02c-.35.11-.46.08-.84.6-.34.45-.97 2.32-1.22 3.05-.21.6-.63 1.55-.41 2.15.03.08.14.24.19.29.26.27.53.28.85.28.39 0 .68-.27.97-.42 0 .33.07.34.39.34.74.01.56.1 1.03-1.23l.71-2.05c.03-.09.05-.22-.1-.22-1.91 0-1.53-.15-1.81.52l-.12.41c.08.13.06.09.18.15-.02.2-.18.65-.26.84-.12.28-.18.56-.52.48 0-.33.59-1.89.74-2.29.19-.51.39-1.17.6-1.67.08-.19.12-.4.35-.4.22 0 .05.34-.06.67-.29.91-.51.72 1.2.72.22 0 .5-1.25.5-1.58 0-.17-.09-.38-.16-.48-.05-.07-.11-.09-.16-.13l-.07-.04c-.23-.14-.1-.09-.3.01-.29.15-.37-.02-.48-.09-.05.03-.01 0-.07.05-.01 0-.01.01-.02.02-.1.08-.09.09-.2.09zM39.37 32c0 .09.06.15.14.15h1.25c.25 0 .32-.4.44-.75l1.01-2.69c.05-.15.11-.27.17-.43l1.02-2.68c.05-.11.19-.38-.04-.38h-1.97c-.14 0-.17.21-.21.32-.02.08-.04.14-.06.2L39.35 32zM41.84 32.04c0 .09.02.12.11.12 1.6 0 1.37.12 1.55-.33l2.46-6.46c0-.15-.06-.13-.26-.13-.22 0-1.7-.06-1.85-.01-.17.06-.29.72-.37.99l-.46 1.58c-.14.63-.45 1.48-.59 2.1-.09.38-.22.7-.31 1.06-.06.27-.29.89-.29 1.08zM36.91 32c0 .09.06.15.14.15h1.29c.21 0 .31-.54.41-.76l.33-.84c.03-.11.02-.1.06-.2l1.88-5.14-1.97-.04c-.25 0-.23.1-.3.32l-.65 2.23c-.03.1-.04.17-.07.27l-.14.47-.14.5-.85 3.02z"/><path class="fil1" d="M14.24 18.51c0 1.15.31 2.06.32 2.74.02.73.07 1.08-.2 1.79-.4 1.08-1.58 1.72-2.26 1.16-.34-.28-.31-1.1-.17-1.46l.21-.5c.06-.14.56-.68.73-.68.19 0 .43.18.43.46 0 .27-.07.37-.07.62.18.13.01.12.43.12.18 0 .28-.17.33-.34.16-.55-.02-1.24-.72-1.24-.21 0-.33.01-.54.12-.11.06-.19.14-.28.24-.31.34-.35.45-.45.56-.11.12-.24.49-.33.69-.24.55-.29 1.92.84 2.02.44.04 1.26-.13 1.66-.33.26-.13.84-.64 1.03-.98.22-.39.17-.17.31-.7.21-.81.19-.45.19-1.34 0-.82-.29-1.91-.29-2.66 0-.39-.19-1.43.29-1.43.32 0 .42.38.45.71.01.13-.04.37-.07.51-.04.17-.35.75.19.75.15 0 .24-.1.31-.21.3-.49.16-.46.2-.87.04-.4-.13-.88-.43-1.12-.47-.37-.4-.35-1.04-.35-.24 0-.68.4-.79.57-.09.12-.14.35-.2.52-.06.18-.08.41-.08.65z"/><path class="fil2" d="M16.1 3.86c.15.25.85.82.97.85.31-.22.57-1.08 1.5-.58.33.17 1.2.58 1.54.58.76 0 1.27-.37 1.71-.97.36-.48.25-.48-.4-1.07-.5-.45-.34-.22-.61.06-.56.6-1.03.16-1.78-.15-.62-.25-1.16-.37-1.77-.02-.41.24-.96.87-1.17 1.29z"/><path class="fil1" d="m38.52 17.54-4.17-.83c-.25-.06-.62-.06-.78-.2-.09-.08-.15-.19-.23-.29l-.66-.84c-.16-.21-.3-.39-.45-.59l-2.48-3.1c-.22-.34-.58-.59-.55-.92.06-.8.1-1.71.18-2.46l.28-3.94c.03-.09.43-.37.55-.45l3.17-2.37c.18-.13.41-.27.57-.43.11-.1.17-.13.3-.22.43-.29.37-.38 1.11-.24l5.41 1.07c.33.05.57.07.73.25l.68.85c.08.1.15.19.23.3.44.61 1.11 1.37 1.58 1.96l1.32 1.7c.65.7.52.78.47 1.52-.05.68-.1 1.31-.14 1.98-.01.29-.07.69-.07 1l-.14 1.93c-.09 1.17.06.77-.39 1.15-.11.1-.18.13-.3.22l-4.02 2.98c.19-.02.56-.17.72-.3.17-.13.37-.35.57-.47.12-.08.21-.08.33-.19.1-.09.15-.15.27-.25.15-.12.27-.13.38-.25.14-.17.34-.29.53-.4l1.2-.86c.1-.08.18-.17.28-.24.18-.14.45-.25.54-.5.08-.23.1-.7.13-.94.03-.33-.03-.75.01-1.06.05-.34.1-.6.1-.97 0-.31.05-.68.09-.98.05-.34-.02-.71.03-1.05.04-.3.07-.71.09-.99.01-.23-.03-.21.02-.44.08-.33-.2-.46-.34-.67-.41-.62-.4-.56-.8-1.03-.28-.34-.5-.7-.8-1.02-.11-.11-.14-.18-.23-.29l-.81-1.02c-.06-.07-.06-.07-.11-.15l-.11-.15c-.13-.14-.21-.31-.35-.43-.19-.15-.22-.37-.45-.59-.08-.07-.07-.08-.12-.14-.31-.33-.22-.37-.33-.45-.13-.09-.26-.05-.37-.07-.13-.02-.26-.1-.38-.13-.63-.12-.57-.07-1.26-.26-.21-.06-.47-.03-.67-.09l-.65-.11c-.19-.03-.25-.06-.41-.1l-.83-.19c-.48-.05-.97-.24-1.28-.23-1 .01-.3-.7-2.07.55-.1.07-.18.15-.28.24-.19.17-.39.28-.6.43l-.45.33c-.21.13-.37.34-.57.46-.37.21-.36.3-.58.45l-.15.11c-.11.08-.22.09-.32.19l-.39.31c-.09.06-.06.08-.16.17l-.22.15c-.07.04-.03.01-.09.06-.07.05-.07.07-.13.13-.13.14-.25.31-.2.54.05.29-.03.6-.07.9l-.06 1.02c.01.45.12 1.04.04 1.51-.03.18-.03.28-.05.48-.03.3-.07.63-.12.95-.03.23.01.55-.05.76-.26.92.25.98.61 1.62l.69.88c.12.18.11.07.36.42l1.04 1.31c.19.16.49.71.69.91l.02.02c.29.3.11.22.56.66.08.08.05.02.12.14.28.45.42.46.98.56.2.04.22.05.44.06.18.01.26.07.4.11.13.04.3.05.43.07l1.71.32c.44.08.88.15 1.36.15zm-4.83-7.44c0-.08.66-1.34.76-1.57.08-.18.12-.26.19-.41.16-.31.49-1.07.65-1.07.2 0 .55.05.65.14.09.08.6 1.74.67 2.01.07.28.46 1.39.46 1.54 0 .31-.52.12-.61.08-.13-.06-.14-.13-.18-.27-.16-.55-.07-.56-.65-.68-.15-.03-.57-.13-.7-.13-.68 0-.13.89-1.07.58-.17-.05-.18-.05-.18-.24zm3.86.46c0-.09.04-.29.05-.42.03-.34.02-.72.07-1.12.06-.48.01-1.48.24-1.48.26 0 1.57.28 1.79.34.15.04.23.05.37.14l.29.23c.17.19.27.44.27.79 0 .75-.62.76-.86.89.08.13.17.24.26.37.18.26.31.55.46.82.06.1.13.27.16.41-.13.09-.18.08-.36.04-.63-.12-.41-.17-.78-.78-.3-.48-.43-1.02-1.02-1.02-.35 0 .09 1.35-.43 1.35-.56 0-.5-.29-.5-.58zm3.58.96c0-.22.03-.23.03-.44 0-.11.01-.26.02-.4l.13-1.7c0-.15.02-.31.03-.43.01-.16 0-.3.15-.3.29 0 1.35.21 1.66.29.22.05.54.09.7.17.23.12.17.57-.03.57-.35 0-.59-.11-.9-.15-.36-.05-.37-.12-.86-.12-.01.11-.07.4-.03.57l.02.06c0-.01.01.02.01.03.1.13.32.11.47.15.57.16 1.25.09 1.25.51 0 .46-.36.32-.69.24-.98-.22-1.14-.32-1.17.18-.02.31-.07.44.08.52.02.01.08.03.11.04.36.11.97.15 1.36.27.34.1.45.07.34.6-.14.07-.15.07-.32.04l-2.17-.43c-.12-.03-.19-.09-.19-.26zm-9.65-1.66c-.6 0-.43-.37-.43-.62l.15-2.16c.03-.36-.05-.81.28-.81l1.64.35c.83.25 1.06 1.33.52 1.9-.55.57-1.56-.01-1.73.13-.12.18-.07.42-.08.66-.04.64-.13.54-.34.54zm13.59-1.93c.09-.45-.19-.53-.46-.94-.08-.12-.12-.16-.21-.27-.08-.1-.14-.18-.21-.28-.09-.12-.13-.16-.22-.27l-.85-1.08c-.08-.11-.13-.16-.21-.27l-1.07-1.35c-.16-.22-.63-.92-.93-1l-4.73-.91c-.24-.04-.51-.1-.78-.16-.42-.09-.4-.11-.7.11-.19.14-.36.27-.55.41l-2.47 1.85c-.25.17-1.28.88-1.33 1.08-.06.23-.14 2.35-.19 2.8-.1.89-.09 1.04-.13 1.86-.02.29-.06.66-.07.92-.01.4.07.5.26.72l1.29 1.62c.31.37.56.72.86 1.08l.71.89c.02.03.01.01.05.06l.52.67c.14.19.26.4.5.47l4.71.93c.25.06.57.11.8.15.53.08.48.1 1.01-.33l2.47-1.85c.11-.09.17-.11.28-.2.27-.23 1.25-.83 1.31-1.1.06-.27.06-1.1.08-1.41.01-.15.06-.29.07-.43.06-.9.09-1.88.18-2.81l.05-.96zm-6.59 1.19s1.36.52 1.36-.14c0-.31-.13-.42-.45-.52-.97-.28-.91-.12-.94.21-.02.18-.05.3.04.45zm-3.43-.03c.16.09.24.09.45.13.22.04.39.14.34-.2-.02-.17-.11-.32-.14-.47-.06-.25-.07-.27-.18-.46-.12.1-.46.77-.46 1zM31.9 7.74l.04.23c.22.06.5.15.72.15.58 0 .7-.72.12-.94-.13-.05-.57-.14-.73-.14-.1 0-.14.57-.14.69z"/><path class="fil0" d="M24.29 15.27c0 .47-.05.62.36.62.13 0 .23-.07.28-.16.18-.31.32-1.4.37-1.8.02-.16.07-.41.09-.56l.24-1.79c.12-.98.3-1.92.39-2.9.05-.49.11-.5.13-1.21.02-.49-.49-.48-.69-.17-.15.23-.26 1.16-.32 1.5l-.31 2.4c-.01.11-.04.16-.06.25l-.21 1.62c-.06.46-.27 1.83-.27 2.18z"/><path class="fil2" d="M38.48 9.13c-.09-.16-.06-.28-.04-.45.04-.33-.02-.49.94-.21.32.09.45.21.45.52 0 .66-1.36.15-1.36.14zm-.93 1.44c0 .29-.06.58.5.58.52 0 .08-1.35.43-1.35.59 0 .72.54 1.02 1.02.38.61.15.66.78.78.18.03.23.05.36-.04-.03-.14-.1-.3-.16-.41-.14-.26-.28-.56-.46-.82-.09-.13-.18-.25-.26-.37.24-.12.86-.14.86-.89 0-.35-.1-.6-.27-.79l-.29-.23c-.15-.09-.22-.1-.37-.14-.22-.06-1.53-.34-1.79-.34-.23 0-.18 1-.24 1.48-.05.39-.04.77-.07 1.12-.01.12-.05.33-.05.42zM41.13 11.53c0 .17.07.23.19.26l2.17.43c.17.03.18.03.32-.04.12-.53 0-.5-.34-.6-.39-.12-1-.16-1.36-.27-.03-.01-.09-.02-.11-.04-.15-.08-.1-.21-.08-.52.03-.5.19-.4 1.17-.18.33.07.69.22.69-.24 0-.42-.68-.34-1.25-.51-.15-.04-.37-.02-.47-.15-.01-.01-.01-.03-.01-.03l-.02-.06c-.03-.17.03-.46.03-.57.49 0 .49.07.86.12.3.04.55.15.9.15.2 0 .26-.46.03-.57-.16-.08-.48-.12-.7-.17-.31-.08-1.37-.29-1.66-.29-.15 0-.14.14-.15.3-.01.12-.03.28-.03.43l-.13 1.7c-.01.14-.02.29-.02.4 0 .21-.03.23-.03.44zM35.05 9.1c.01-.23.35-.9.46-1 .11.18.12.21.18.46.04.15.12.31.14.47.05.34-.12.25-.34.2-.21-.04-.29-.04-.45-.13zm-1.36 1c0 .18.01.18.18.24.95.3.4-.58 1.07-.58.13 0 .55.1.7.13.59.13.49.13.65.68.04.14.06.21.18.27.09.04.61.23.61-.08 0-.16-.4-1.26-.46-1.54-.07-.28-.58-1.93-.67-2.01-.1-.09-.45-.14-.65-.14-.16 0-.5.76-.65 1.07-.08.15-.12.23-.19.41-.1.22-.76 1.49-.76 1.57zM31.9 7.75c0-.12.04-.69.14-.69.16 0 .59.09.73.14.58.22.47.94-.12.94-.21 0-.49-.1-.72-.15l-.04-.23zm-.43 2.12c.21 0 .31.1.34-.54.01-.25-.03-.49.08-.66.16-.14 1.18.44 1.73-.13.54-.57.32-1.65-.52-1.9l-1.64-.35c-.33 0-.25.45-.28.81l-.15 2.16c0 .25-.17.62.43.62z"/><path class="fil1" d="M17.49 19.66c.02-.28.11-.18.17-.36.07-.22-.01-.18.14-.38.08-.1.14-.23.23-.29.22-.15.22-.01.23.01.07.2-.09.29-.15.42-.07.13-.05.18-.16.26-.31.24-.29.33-.46.35zm1.43-.35c-.12.04-.14.13-.2.24l-.11.19c-.2.37-.46.88-.77 1.17-.45.43-.17.43-.63.43-.1 0-.21-.16-.21-.27 0-.11.08-.31.11-.43.07-.29.15-.31.48-.56.27-.21 1.02-1.25 1.02-1.67 0-.67-.43-.5-.87-.28-.12.06-.36.34-.57.54-.29.28-.3.51-.49.85-.03.05-.03.07-.06.13-.05.13-.05.13-.1.28-.1.37-.33.64-.28 1.22.03.3.01.42.18.58.51.5 1.16-.18 1.5-.6l.82-1.24c.05-.14.03-.14.11-.27.09-.15.09-.1.09-.33z"/><path class="fil2" d="M40.95 34.31c.05.14.06.12.39.11.42 0 1.38.1 1.5-.12l.54-1.73c-.23-.09-1.39-.04-1.72-.04-.19 0-.21.11-.29.34-.05.15-.09.31-.15.49l-.24.71c-.02.06-.07.16-.03.24z"/><path class="fil0" d="M10.13 26.95c0-.28-.15-.27-.39-.27-.12 0-.15.17-.19.29-.22.62-.45 1.46-.67 2.09-.23.64-.45 1.48-.69 2.14l-.26.77c-.05.13-.07.26-.11.38-.05.13-.16.27-.02.33.17.07.43-.05.58-.34.07-.13.1-.21.15-.34l1.15-3.46c.09-.29.47-1.35.47-1.58z"/><path class="fil2" d="M39.55 34.42c.68 0 .75.08.86-.26l.5-1.5c0-.09-.02-.12-.11-.12h-1.68c-.13 0-.25.46-.3.6-.04.13-.06.22-.11.35-.05.14-.09.23-.12.37-.15.61-.48.56.96.56zM36.37 34.4l1.5-.01c.09-.28.57-1.61.57-1.77 0-.05-.05-.08-.11-.08h-1.68c-.14 0-.2.28-.25.46-.05.17-.13.36-.19.57-.2.72-.45.83.15.83z"/><path class="fil0" d="M2.91 22.13c0-.11 0-.09.07-.2l.03-.04c.07-.09.07-.1.17-.16.65-.39-.14-.43-.42.05-.06.1-.08.18-.15.3-.34.55-.49 1.01-.49 1.71 0 1.22.93.49 1.1.3.12-.14.1-.18.29-.38.32-.34.09-.09.28-.43.18-.32.25-.32.52-.83.13-.24.19-.42-.07-.49-.31-.08-.36.13-.45.27-.08.12-.15.17-.26.26-.11.09-.19.14-.37.14-.27 0-.25-.34-.25-.5zM23.89 32.62c0 .22.32.41.5-.12.12-.36.18-.4.23-.56l.34-1.06c.09-.29.21-.51.28-.82.16-.7.19-.46.28-.81.04-.16.05-.28.1-.44.05-.18.13-.21.17-.39.05-.17.05-.24.12-.41.07-.18.09-.21.14-.42.1-.43.22-.62.16-.86-.23-.06-.32-.1-.45.21-.14.35-.18.28-.27.71-.04.17-.09.22-.15.38-.09.23-.31 1.1-.47 1.53l-.6 1.89c-.07.16-.11.18-.16.37-.04.15-.04.27-.1.4-.06.13-.13.23-.13.4z"/><path class="fil2" d="M31.01 17.74c0-.11.2-.08.32-.08.4 0-.32.49-.32.08zm-.32.19c0 .19.32.11.61.11l.27-.04c.2-.04.11.05.3.05.82 0 .49-.02.79-.35.04-.04.02-.03.07-.08.01.17.04.08 0 .24-.05.21-.15.18.61.18.17 0 .06-.03.19-.06l.4.01c.37.06.14.05.63.05.28 0-.12-.07.37-.02.17.02.2-.09.28-.21.19.14.31.38.55.1.27.17.06.13.7.13.34 0 .24-.22.32-.4.14-.3-.74-.1-.82-.1-.18 0-.18-.09-.32.03l-.14.12c-.28-.2-.11-.19-.86-.19h-1.61c-.15 0-.14.08-.25.08-.12 0-.05-.08-.18-.08h-1.64c-.01.25.01.11-.12.22-.06.05-.13.12-.13.21z"/><path class="fil0" d="M17.42 13.11c0 .2.33.12.82.12.17 0 .09-.29.12-.49.06-.5.09-2.19.16-2.91.02-.22.05-1.09.01-1.19-.11.08-.08.2-.17.51-.08.29-.94 3.8-.94 3.96zM19.21 23.29c.23 0 .25-.19.33-.37.04-.1.08-.16.11-.26.04-.13.05-.17.09-.29l.88-2.49c.08-.19.49-1.19.05-.96-.22.12-.48 1.03-.62 1.39l-.62 1.79c-.11.35-.48 1.18-.23 1.18z"/><path class="fil2" d="M30.83 16.12c0 .23.05.17.21.27.09.05.2.13.29.19v.66c.31.07.27-.29.49-.36.18-.06.36.27.64.23l-.27-.64c0-.17.36-.32.32-.5-.04-.2-.2 0-.64 0-.03-.12-.26-.53-.35-.57-.2.16.01.44-.13.6-.06.06-.45.11-.56.12z"/><path class="fil0" d="m5.05 21.55.18.08c.3.12.58.13.75-.19.08-.15.05-.15.09-.32.04-.15.08-.19.13-.32.18-.46.04-.96.11-1.19.05-.16.12-.1.13-.33-.23.17-.06.04-.19.26-.07.12-.14.13-.23.22l-.51.88c-.09.25-.06.12-.19.26l-.28.66zM6.87 21.48c0 .18.05.23.18.23.12 0 .24-.27.29-.38l.38-1.06c.08-.18.38-.42.12-.69l-.04-.03c-.3.08-.45.6-.53.9-.09.3-.4 1-.4 1.03z"/><path class="fil2" d="M29.51 14.88c.16.04.32.14.35.32.04.23-.06.34.08.36.22.04.08-.44.53-.17.16.1.08.1.22.06-.02-.25-.14-.23-.14-.5 0-.11.36-.39.07-.39-.21 0-.28.1-.39-.04-.1-.13-.05-.25-.25-.31-.02.15-.01.39-.12.44-.18.09-.32-.06-.34.21zM25.07 17.81l.03.04c.16.21.18.14.36.14.29 0 .23-.09.47-.11.06.24.28.09.36-.04.06.04.46.35.41.07-.02-.12-.05.02-.05-.22.14-.04.14-.02.18-.15-.16-.1-.24-.01-.36.08-.19-.11-.23-.24-.43.08l-.13-.09c-.21-.18-.1-.07-.33-.08-.11 0-.1-.02-.21.04-.21.1-.2.09-.3.25zM29.86 17.66h.21c.23 0 .01.39-.33.15l.11-.15zm-1.18-.04c.08.02.11.04.21.04-.02.28-.15.14 0 .39.21-.02.26-.24.36-.39h.25l-.08.27c.24.17.05.12.68.12.24 0 .39-.24.39-.5-.38-.1-.68-.01-.89-.01l-.79-.03c-.09 0-.11.05-.14.12zM28.54 13.34v.08c.12.03.05.02.14.08l.14.12c.03.06.03.1.03.17l.01.21c.27-.02.14-.28.45-.13.38.18.09-.19.09-.33 0-.1.12-.18.18-.27-.29-.19-.28.04-.43-.12-.11-.13 0-.17-.22-.19-.12.28.1.34-.39.39z"/><path class="fil0" d="M40.34 22.05c.36.09.37.07.47-.34.09-.38.39-1.19.39-1.55-.11.13-.74 1.54-.82 1.74-.04.11-.02-.06-.04.15zM36.33 25.1c.42.04.6.11 1.04 0-.07-.28-.39-.98-.81-.37-.15.22-.19.2-.23.37zM23.93 20.4c.37 0 .61-1.03.61-1.23 0-.16-.2-.18-.29-.04-.05.08-.11.32-.16.45l-.24.67c-.02.07-.05.15.08.15z"/><path class="fil2" d="M27.36 17.54c-.13 0-.07-.03-.21-.04-.2.33-.33.55.11.51.23-.03.18-.06.32-.16.1.17.23.2.43.15-.08-.18.02-.1-.11-.15.02-.29.12-.07.18-.31-.11-.1-.26.04-.36.04-.13 0-.12-.11-.25-.08s.06.04-.11.04z"/><path class="fil0" d="M44.49 20.32v.15c.34 0 .34-.19.45-.44.06-.12.23-.57.23-.72 0-.13-.1-.15-.18-.19-.08.07-.12.12-.16.25l-.11.31c-.04.13-.06.19-.1.31l-.12.33zM7.41 23.17c0 .32.19.2.28-.01.18-.46.14-.23.21-.43.03-.09.04-.24.13-.51.05-.15.12-.39.06-.51-.17.05-.14.13-.19.33-.1.41-.23.16-.33.72-.07.36-.15.28-.15.41zM9.27 21.44c.26-.02.19-.16.49-.47.14-.15.27-.45.22-.69-.18 0-.16.03-.37.29-.12.15-.03.16-.15.34-.02.03-.02.02-.05.06l-.05.06c-.09.13-.09.19-.09.4zM17.49 19.66c.17-.02.15-.1.46-.35.1-.08.09-.12.16-.26.06-.13.23-.22.15-.42-.01-.02-.01-.16-.23-.01-.09.06-.15.19-.23.29-.16.2-.07.16-.14.38-.06.18-.15.08-.17.36z"/><path class="fil2" d="M28.29 18.01c.16 0 .15-.03.2-.14.14-.3.09-.25.02-.37-.3.08-.39.5-.21.5z"/><path class="fil0" d="M31.01 17.74c0 .41.72-.08.32-.08-.12 0-.32-.03-.32.08zM29.75 17.81c.33.24.55-.15.33-.15h-.21l-.11.15z"/></g></g></svg>