<svg xmlns="http://www.w3.org/2000/svg" xml:space="preserve" width="258.88" height="77.768" style="shape-rendering:geometricPrecision;text-rendering:geometricPrecision;image-rendering:optimizeQuality;fill-rule:evenodd;clip-rule:evenodd" viewBox="0 0 118.64 35.64"><defs><style>.fil4{fill:#0460d6}.fil1{fill:#0579ea}.fil3{fill:#5d6b83}.fil2{fill:#6c788e}.fil7{fill:#95a8cb}.fil9{fill:#9aa1ae}.fil6{fill:#fcfdfd}</style></defs><g id="Camada_x0020_1"><g id="_2076229073680"><path d="M26.98 32.7h.88v.15h-.88v-.15zM83.93 1.64h.54l-.01-.02c2.05 0 2.2-.21 4.7-.01l11.66.03v.09c.88.02 1.78.03 2.71.03 1.81 0 3.07-.14 4.84-.15 1.03-.01 1.46.14 2.34.15.83.01 1.67-.01 2.5-.01 0 1.2.15 1.86.15 2.93-.01 2.65-.28 6.47.08 8.86.15.96-.02 1.99.12 2.96.25 1.67-.15 5.16.08 6.25.38 1.81-.93 3.52 1.49 4.35 1.14.39 1.23.68 1.74 1.63.67 0 1.76-.03 1.76.59 0 2.25-3 2.1-3.69 2.32-.72.23-1.26.68-2 .93-1.82.61-4.37.76-6.11-.38-1.61-1.05-.13.36-2.71.36.14.52.5.83.73 1.32-1.03.69-1.74 1.7-4.3 1.76-1.12.02-2.68-.05-3.33-1.03.7-1.05 1.91-.65 1.91-1.32 0-1.04-.08-.54-.29-1.32-1.01 0-.99.32-1.71.64-2.06.9-2.08-.05-3.72-.05-.24 0-.52.21-1.02.3-2.35.44-3.16-.59-3.97-.59-.59 0-1.11.59-2.05.59-2.13 0-2.49-.12-2.49-2.49-.23.12-.35.15-.57.31-1.82 1.39-1.55.65-4.22 1.94-1.24.6-2.89.59-4.14-.07-1.3-.68-.46-1.07-2.01-.21-.56.31-.48.07-.65.82-.81-.22-.12-.35-1.29-.13-.85.16-2 .04-2.66-.31-1.7-.92-.78-.63-2.88.06-2.7.9-7.68.05-7.68-2.84 0-.74.15-.8.15-1.61-2.86 0-3.51-.04-5.61 1.28-.3.19-.1.05-.25.19.8 0 .71-.04 1.24-.37.74-.46 1.47-.8 2.37-.45.59.23.54.36.79.83-1.23 2.32-6.1 3.92-8.56 2.69-1.51-.75-1.19-.38-2.71.12-2.45.8-3.31-.53-4.34-.39-.99.14-1.68.66-2.58.66-2 0-3.82-.88-3.96-.88-.27 0-1.04.46-1.34.57-2.27.84-2.69-.26-3.71-.06-.73.14-.94.52-1.55.52-2 0-1.86-.45-3.23-1.17.18 2.13.13.92-.92 2.89-.57 1.08-3.68 1.13-4.35.47-.58-.58-.16-1.31-.16-2.33-3.03 0-2.33-1.42-4.01-.64-1.06.49-2.33 1.06-3.51.83-2.77-.54-.94-1.46-4.17-.3C3.44 34.19 0 31.73 0 29.95c0-3.19 2.66-2.81 2.64-7.63-.01-1.78.35-3.07.44-4.69.11-2-.07-2.89.44-4.55.43-1.39 1.82-3.74 2.63-5.14.66-1.13 4.01-7.91 4.7-7.91h17.01c.72 0 .39.98.34 1.36l-.32 5.11c-.63 5.45-.94 11.09-1.47 16.57-.11 1.18-.16 2.02-.16 3.36 1.13-.09 3.03-.33 3.67.88 1.4-.94 1.25-.88 2.93-.88.01-.65.15-.91.15-1.76-.02-1.84.29-3.07.29-4.99 0-1.04-.08-2.51.02-3.5.09-.89.37-2.09.42-3.1.11-2.17.28-4.42.7-6.49.18-.89.66-5.49.48-6.27 1.85-.43 6.81-.08 9.09.01 1.31.04 2.06-.15 3.38-.15 1.5 0 2.58.17 4.11.15.85-.01 1.11-.16 2.04-.16 2.99.01 12.91-.19 14.63.04 2.3.32 3.66-.83 4.4 1.02.4.98.65 1.78 1.11 2.7.41.81.74 1.78.83 2.83C75.78 6.42 76.79.6 79.19.6c5.59 0 4.96-.48 4.74 1.05zm-5.92 28.43.04.04s-.06-.03-.04-.04zm-39.01 0c.17-.63 1.5-1.12 2.2-1.17.04.45 0 .28.15.59-.96.08-.9.59-2.35.59zm64.38-1.61c.87.2 1.57.44 2.64.44-.05.58-.22.68-.68.94-.4.23-.75.39-1.31.46-1.69.19-.82-1.14-.66-1.83zm-9.97 1.61c-.32-.24-.36-.2-.17-.59.17-.35.27-.35.61-.44-.13.58-.04.74-.44 1.03zm-64.23-.44zm0 0c.02-.72.14-1.02.59-1.32 0 .84-.07.98-.59 1.32zm35.49.44c-1.52 0-1.68-1.91-.88-1.91h3.23c0 1.58-.86 1.91-2.35 1.91zm-57.34 0c-1.52 0-1.76-.27-1.76-1.47 0-.76 1.45-.44 3.52-.44 0 1.33-.97 1.91-1.76 1.91zM72 29.92c0-2.07.28-1.76 1.91-1.76-.03 1.16-.75 1.76-1.91 1.76zm-25.08-1.47c-.16.7-.31 1.15-1.17 1.17.06-.7.44-1.11 1.17-1.17zm-12.76.59c.05-.63.08-.74.59-.88-.05.6-.08.76-.59.88zm-20.24.59zm0 0c0-1.74.33-1.47 1.91-1.47.97 0-.29 1.25-.33 1.28-.32.28-1.58.99-1.58.18zm68.19-1.17c0-1.62-.16-2.06 1.17-1.17-.16.61-.56 1.03-1.17 1.17zm25.52-1.17V27h.59c-.34.47.1.22-.59.29zm-9.24 1.91c.35-.73.32-1.42.73-2.2h1.17c-.32.6-1.26 2.03-1.91 2.2zm-9.53-.29c.05-.58.43-1.25.59-1.91.69-.02.89-.15 2.49-.15-.28.42-2.74 1.96-3.08 2.05zm-46.78-7.19h-2.93c0-.93.11-1.33.15-2.05.11-2.28-.98-1.91 3.96-1.91 0 .73.12.81.14 1.33.02.6-.13.59-.14 1.31-.05 2.53.03 1.32-1.17 1.32zm22.29-1.47v1.47h-3.81l.15-3.96h3.67c.02.7.17.5.13 1.15-.03.43-.13.66-.13 1.34zm-20.53-7.77c-.36-.41-.28-.63-.44-1.32l-3.37-.15c0-.62.09-4.11.88-4.11h3.23c0 2.21-.29 3.71-.29 5.57zm-23.76 9.24c0-3.74.69-8.21.73-11.15.02-1.19.29-2.46.29-3.67h.44l-.94 13.28c-.12.9.15 1.35-.53 1.53zm44.73-9.24c-.12-.52-.15-.48-.15-1.17-4.1-.95-3.57 1.63-3.08-4.25h3.96c0 .95-.18 4.55-.73 5.43z" style="fill:#000"/><path class="fil1" d="M66.38 11.55c-.1 1.8-.27 3.6-.42 5.4-.16 1.84-.41 3.78-.21 5.66 1.26-.31 2.23-.4 3.5-.6l.77-9.2c.03-.38.02-.75.06-1.13.02-.16.05-.35.09-.51.07-.26.03-.21.19-.38l.24.33c.32.44.46.24.7.7.24.45.34 1.07.38 1.63.74.86.43 2.65.31 3.81-.13 1.23-.23 3.32-.12 4.54l3.29.43.25-.54c.16-2.12-.19-3.78.46-6.36.24-.95.64-1.63.99-2.42.29-.64.65-2.06 1.38-1.96.38.56.13 2.12.05 2.85-.11 1.03-.08 2.09-.16 3.13l-.29 4.52c-.03.64-.29 1.16.41 1.18.2-.17.99-.42 1.33-.49.57-.13 1.1-.05 1.7-.14l.21-.71c.01-1 .02-1.95.07-2.93.05-.96.15-1.93.17-2.86.01-1.01.02-2.02.06-3.03.03-.67.39-2.32.34-2.68-.25-.94-.32.31-.41-1.41-.09-1.84-2.34-2.34-3.16-1.67-.34.28-.42.73-.71 1.08-.96 1.14-1.5.81-2.32 1.25-.84.46-1.86.17-2.5-.64-.48-.61-.33-.37-1.1-.68-1.13-.46-1.5-1.11-2.41-.1-.29.32-.57.59-1.05.73-1.91.53-1.61 2.09-2.04 3.12l-.07.13z"/><path class="fil2" d="M10.01 19.66c-.42-.26-.7-1.67-.9-2.29-.9-2.74-.82-2.39.41-4.8.21-.41.83-1.92 1.11-2.08.28.26.29.62.24 1.1-.14 1.54-.48 4.5-.52 5.82-.02.62.2 2.03-.34 2.25zM6.83 9.35l-1.52 2.91c-.49 1.09-.54 2.44-.76 3.75-.24 1.42-.61 6.95-.59 8.4.29-.03 2.02-.9 2.48-1.09 1.96-.82 3.51-1.21 5.7-1.44 2.54-.26 1.46.68 2.03-5.13.11-1.12.1-2.24.21-3.36.12-1.21.26-2.08.21-3.35-.07-1.64.54-2.52.29-3.31l-.04-.33-.24.47c-1.06-.01.04.27-1.35 1.27-.27-.07-.21-.21-.49-.16-.31.06-.15.2-.46.3-.21.07-1.01-.09-1.35-.09-.44 0-.96.09-1.34.19-.68.19-.66.13-1.36.2-.16.2-.29.48-.51.64-.22.16-.7.31-.9.12z"/><path class="fil1" d="M44.97 11.28c-.03 1.07-.17 2.02-.24 3.07-.03.54-.04 1.09-.11 1.62-.05.35-.01 1.25-.21 1.48.03 1.44-.45 2.81-.34 5.79.45-.02 2.07-1.17 3.31-1.15.82-1.59.69-3.8.85-5.83.08-1.05.36-5.2.88-5.75.46.45.98 2.31 1.27 3.06.62 1.61.38 1.82.18 3.89-.19 2.01-.27 4.13-.35 6.15-.02.52-.28 1.65-.13 2.06l.74.02c.74-.06 1.78-.42 2.48-.35l.38-.35c.21-.39-.02-1.22.14-1.96.24-1.12.15-4.49.33-5.26.13-.56.38-1.92.29-2.49-.06-.3.06-.71.04-1.07-.03-.45-.1-.46-.17-.84-.22-1.23.37-3.23.21-3.79-.5-1.81-3.12-1.61-4.62-1.34-.44.08-.38.19-.82.03-.37-.13-.42-.13-.85-.07-1.07.13-.75.35-1.21.79-.44-.01-.45-.2-.91-.18-.42.18-.88 2.18-1.13 2.45zM56.72 7.71c-.33.96-.54 5.94-.59 7.47-.01.37.02.96-.05 1.29-.06.32-.26.57-.36.95-.34 1.37-.08 3.57-.33 5.12-.2 1.26-.18 3.72.15 4.87.7.07 2.96.1 3.52-.09.04-.24.75-1.19.96-1.48.35-.49 2.23-1.37 2.96-1.92.53-.4.44-1.29-.23-1.48l-3.36-.04c-.14-.72-.08-4.75.19-5.23.75-.41 3.58.17 4.26-.22.43-.38.07-3.16-.03-3.93l-.16-.94c-.08-.19-.03-.09-.13-.19-.35-.21-2.74-.11-3.25-.1-.22-.18-.17-.43-.16-.82v-.78c0-.56.05-1.01.07-1.55.05-1.39-.06-1.3-.07-2.33-.01-.76-.04-.81-1.25-.48-.83.22-1.1.96-1.5 1.15-.54.24-.18-.15-.48.51-.09.2-.02.1-.16.23z"/><path class="fil3" d="M16.1 10.45c-.13.45 0 .23.27.52.18.19.18.29.39.47.53-.06.79-.63 1.08-.93.68-.03.41.34.99.5.42-.92.86-.81.88-1.72 0 .47-.06 1.02.06 1.46.14-.22.1-.88.1-1.18.01-.61.22-2.93.46-3.25.23-.29 2.34-.16 2.46-.14.11.34-.56 5.98-.67 7.19-.07.74-.07 1.88-.19 2.53l-.05.42c.18-.01.09-.09.22-.08l.2.07c.39.1 1.48-.36 1.81-.56 1.45-.9 1.32-1.47 1.5-1.66l.05.67c.18-.3.15-2.64.23-3.51l.39-3.4c.06-.61.05-1.14.13-1.74.24-1.7.21-1.77.28-3.46.02-.53.22-1.33.15-1.77-1.03-.06-9.58-.17-9.85-.01-.17.14-.51 4.33-.53 4.66-.13 1.52-.02 3.48-.37 4.92z"/><path class="fil2" d="M16.1 10.45c.13 1.04-1.03 10.96-.68 11.48.16.24.47.15 1.05.28.69.15 2.83.66 2.44 1.68-.17.46-.99 1.01-1.52 1.22-1.14.46-1.45.15-2.46.34-.09.31-.07.65-.06.97.02 1.14.12 1.02 1.65 1.05 1.6.03.74-.48 3.58-1.11 2.38-.52 3.35 1.11 4.8 1.23.08-1.06.01-2.18.08-3.27l.44-6.39c.05-.58.01-1.12.05-1.68.04-.52.3-.93.18-1.48l-.05-.67c-.18.19-.05.75-1.5 1.66-.33.2-1.42.66-1.81.56l-.2-.07c-.13-.01-.04.07-.22.08l.05-.42c.05.47-.34 3.95-.43 4.93-.15 1.6.3 1.84-2.48 1.62-.1-.56.13-2.33.17-3.01.06-1 .05-1.99.11-3 .05-.95.14-1.94.22-2.9.05-.65.39-2.22.25-2.78-.12-.44-.06-.99-.06-1.46-.03.91-.46.8-.88 1.72-.58-.16-.31-.53-.99-.5-.29.3-.54.87-1.08.93-.21-.17-.21-.28-.39-.47-.27-.28-.4-.07-.27-.52z"/><path class="fil1" d="M35.88 27.06c1.09-.63 1.17-1.02 2.75-1.34 3.18-.64 2.49.06 3.67-.07.04-.8-.26-1.53-.32-2.34-.01-.13-.01-.34-.03-.46-.12-.83-1.28-.22-3.01-.37-.65-.05-.63-.07-.76-.29-.23-.43-.01-4.58.24-5.05.68-.05 4.03-.03 4.31-.2.14-.13.04-.5.12-.85-.2-.35-.08-1.21-.13-1.66-.06-.5-.15-.96-.19-1.44-.42-.45-.14-.6-1.49-.64-1.42-.04-1.06-.31-1.55-.35-.46-.04-1.36.1-1.88-.02-.48-.11-.14-.23-.83-.16-.41.04-.55-.04-.93.01-.81.6-.01 3.02-.39 4.11-.4 1.13-.28 2.79-.45 4.14-.09.68-.07 1.49-.4 1.92-.24.31-.3 1.51-.29 2.02.02.92.43 1 .9 1.4.58.48.26 1.55.66 1.65z"/><path class="fil4" d="M34.06 26.26c.08.31.66 1.56 1.53 1l.28-.2c-.4-.09-.09-1.16-.66-1.65-.48-.4-.88-.48-.9-1.4-.01-.51.05-1.7.29-2.02.33-.43.31-1.24.4-1.92.17-1.34.05-3 .45-4.14.38-1.09-.43-3.51.39-4.11.38-.05.53.03.93-.01.7-.07.36.05.83.16.52.12 1.42-.02 1.88.02.49.04.13.31 1.55.35 1.34.04 1.07.18 1.49.64-.02-1.08-.09-1.13-1.25-1.18-.65-.03-1.62.01-2.22-.09-.14-.71-.01-5.27.44-5.45l4.63-.13c.04-.69-.11-1.9-.11-2.7-.01-1.25.05-1.48-.38-2.49-.58-.09-7.38-.28-7.43.04 0 .03-.03.03-.03.05-.1.24-.06.28-.08.62-.05 1.13-.47 4.11-.57 5.43-.17 2.1-.43 4.18-.55 6.29-.12 2.1-.41 4.16-.56 6.24-.16 2.16-.42 4.43-.34 6.64zM66.38 11.55l.07-.13c.43-1.02.13-2.59 2.04-3.12.48-.13.76-.4 1.05-.73.91-1.01 1.27-.36 2.41.1.77.31.61.07 1.1.68.64.81 1.65 1.1 2.5.64.82-.44 1.36-.11 2.32-1.25.29-.35.37-.8.71-1.08.82-.67 3.06-.18 3.16 1.67.09 1.72.16.46.41 1.41.04-.08.02.04.07-.19.03-.13.12-2.84.26-3.88.13-.95.2-3.26-.02-4.11-.67-.39-2.7-.53-3.21.04-.38.43-2.61 3.99-3.05 4.71-.34.58-1.18 2.13-1.64 2.33-.53-.26-2.2-4-2.45-4.79-.16-.51-.77-2.35-1.04-2.6-.32-.3-2.88-.15-3.45-.1-.22.94-.33 1.37-.39 2.48-.18 3.23-.52 2.16-.59 3.84-.03.62-.19.74-.25 1.22-.1.81 0 1.97-.01 2.85zM44.97 11.28c.25-.27.71-2.28 1.13-2.45.46-.02.47.17.91.18.46-.45.14-.67 1.21-.79.43-.05.47-.05.85.07.44.15.38.05.82-.03 1.5-.27 4.12-.47 4.62 1.34.16.56-.44 2.56-.21 3.79.07.37.14.38.17.84.02.36-.09.78-.04 1.07.27-.36.23-2.89.31-3.57.15-1.18.31-2.38.41-3.56.1-1.13.61-6.56.5-7.24-.2-.07-2.84-.51-3.3.57-.34.81-.36 2.75-.77 3.45-.66-.3-1.16-2.59-1.41-3.34-.28-.84-.65-.72-1.61-.72-.58 0-1.87-.07-2.37.04-.4.74-.59 3.92-.69 5.08-.08.85-.23 1.68-.3 2.57-.07.9-.2 1.78-.23 2.72z"/><path d="M113.79 30.11c-1.31.21-1.37-1.54-.85-1.77 1.02-.45 1.41.89.85 1.77zM7.81 24.46c1.49-.52 1.74-1.09 4.2-1.36.92-.1 2.74-.06 3.39.71.29.34.19.64.43.98.69.05 1.26-.23 1.67-.59.67-.59.4-.94-.29-1.27-.77-.37-3.03-.62-4.02-.6-1.37.02-4.3.63-5.61 1.18-.46.19-1.23.48-1.59.7l-1.81 1.1c-1.27.9-3.44 3.51-2.51 5.41.5 1.01 2.5 1.72 4.04 1.57 1.92-.2 3.31-1.46 4.15-1.49.24.25.28.51.47.74 1.09 1.36 3.33.49 4.58-.23.37-.22 1.17-.79 1.63-.83.26.53.04.63.53 1.08.66.61 1.86.57 2.74.55.53-.01.85-.15 1.03-.16l.31.05c-.02.53-.4.68-.72.94-.61.48-.51.28-.15.94.05.52-.13.23-.24.68.46.31 1.79.31 2.28.09l.6-1.28c1.3-.88.17-1.14.6-1.94.23-.43 1.34-.75 1.95-.88.16.6.14.97.49 1.35 1.02 1.09 3.2-.45 4.18-.79.28.4-.1.74.96.94 1.17.22 2.75-1.33 3.77-1.61.6.59.43.87 1.29 1.35 1.33.75 2.75.25 4.1-.38.46-.21 1.32-.79 1.77-.84.94 3.4 4.61-.08 5.48-.18.5.76.41 1.09 1.41 1.53 2.17.95 5.87-1.44 6.04-2.08-.4.02-.92.3-1.36.41-.51.13-1.01.17-1.52.27-.71.13-.87.23-1.44-.17-1.49-1.05.91-1.2 2.34-2.04 4.11-2.4-1.34-3.24-3.96-.86-1.65 1.5-.79 2.64-3.87 3.21-.53.06-.53-1-.43-1.41.49-.55.12-.47 1.28-1.42 1.02-.83 2.05-1.79 2.57-3.03.29-.7.49-1.66.03-2.27-1.05-.14-2.24.34-2.95.73-1.51.71-1.85 1.03-2.34 2.74-.19.68-.3 1.29-.53 1.95-.18.54-.46 1.44-.7 1.85-1 .33-2.48 1.39-3.74.7-.39-.22-.57-.45-.54-1.09.67-.32 1.37-.5 2.51-1.06.91-.44 1.62-.69 1.47-2.05-1.03-.43-1.57-.45-2.79-.11-2.08.58-2.81 1.46-3.79 3.02-.37.59-1.18 1.28-2.28 1.15 0-1.33.8-2.55.79-3.2-.44-.08-1.76-.15-2.2 0-.58.19-.47 2.19-1.53 3.11-.23.2-2.79 1.56-1.55-1.48.11-.27.2-.52.29-.79l.13-.59c-.05-.43-1.56-.39-1.93-.27-.49.16-.63.74-.81 1.29-.2.65-.29 1.04-.72 1.38-.33.26-1.05.51-1.54.48.1-.51.62-1.4.41-1.89-.58-1.33-4.5-.91-2.62 2.04-.01.25-.01.24-.27.28-.35.05-1.31.02-1.64-.14-.52-.24-1.48-1.98.76-2.81.88-.33 1.56-.32 1.62-.75-1.53-.61-3.06.12-4.05.89-1.49 1.16-.63 1.59-2.9 2.53-.52.22-1.82.51-2.22-.05-.41-.58.03-1.74.21-2.27.25-.74.41-1.35.62-2.11.14-.52.58-1.73.61-2.11-.62-.13-2.22-.15-2.8.06-.36.33-1.17 3.7-1.39 4.47-.31 1.07-.16 1.34-1.15 1.79-.68.31-1.5.55-2.43.44-1.48-.17-2.24-.89-2.14-2.34.02-.36.77-1.6 1-1.9 1.09-1.39 1.73-1.45 2.34-1.98zm14.93 5.16-.16.32-.45-.03c-.27-.31-.2-.77-.14-1.23.24-.19.36-.23.78-.19.09.39 0 .76-.03 1.14zm27.28-.85c.26-1.1 1.15-1.99 2.6-1.91.03.81-.42 1.01-.94 1.35-.47.31-.96.53-1.66.57zm-12.33.08c-.22-.79.68-2.1 2.53-1.99.05 1.26-2.39 2-2.53 1.99zm8.2-4.54c.3-.47.43-.83 1.29-.7.67.71-.17 1.89-.51 2.36-.37.52-.99 1.42-1.63 1.57-.09-.63.19-1.13.39-1.65.23-.58.31-.94.46-1.59zm32.72.14c.18-.28.15-.41.43-.54.27-.12.57-.12.85-.04.43 1.16-1.63 2.92-1.99 3.46-.5.05-.44-.26-.27-.56.17-.31.21-.43.32-.77.19-.59.45-.99.66-1.54zm-.55 3.52c.27-.16.69-.57.97-.81.91-.8 1.07-.88 1.68-1.89.37-.6 1.31-1.52.53-2.37-.29-.32-1-.19-1.49-.11-1.11.17-1.62.58-2.39 1.03-.84.44-1.07.86-1.41 1.89-.27.84-.57 1.63-.83 2.43-.44 1.35-.02 1.34-1.25 2.02-.77.42-1.68.68-2.67.52-.55-.97-.28-2.16.06-3.21.3-.95.56-1.98.88-2.91.13-.37.31-.62-.14-.68-.31-.04-.77-.05-1.09-.04-1.09.03-1.41-.02-1.57.61-.38 1.17-.69 2.4-1.04 3.62-.48 1.67-.44 2-2.09 2.49-1.36.4-3.01.19-3.66-.68-.81-1.08.22-2.65.7-3.39.35-.4.59-.69.97-1.02.27-.24.26-.24.61-.4.21-.1.36-.23.56-.37.75-.5 1.74-.96 2.74-1.21.87-.22 2.59-.41 3.55-.4 1.15.02 1.8.83 2.22 1.71.81.08 1.89-.75 2-1.18-1.43-1.51-5.18-1.35-7.47-.93-2.3.42-4.75 1.42-6.31 2.62-2.03 1.18-4.94 5.04-1.19 6.58 2.34.96 3.93.22 5.87-.8.45-.24.89-.53 1.25-.04.27.36.54.71.92.95 1.69 1.03 4.33-1.1 5.49-1.53.56.52.58 1.9 2.99 1.69 1.33-.17 1.43-.44 2.39-.97 1.92-1.06 1.31.64 5-3.31.31-.33.53-.48 1.12-.36-.06.92-1.13 2.66-.93 3.39.05.17.01.08.09.18-.03.25.07.62.21.85 1.65.08 3.54-1.22 3.88-1.26.37.33.56 1.68 2.24 1.47.76-.09 2.34-.81 2.88-.82.36.31.34.6.78.85.85.02 3.57-1.21 3.73-1.62.62.05.54.57.94 1.04.38.45.77.38 1.19.72-.01.51-.67.6-.72 1.3.57.11 1.04-.11 1.45.17l.02.44-2.6.24c0 .74 1.95.45 2.5.33.42-.09.83-.3 1.13-.5.34-.23.63-.43.57-.98-.21-.17-.42-.31-.77-.46-.41-.18-.68-.11-.71-.55.35-.22.98-.21 1.4-.32 1.7-.41 2.84-1.22 3.73-1.38.35.73 1 1.43 2.02 1.54.99.12 2.36 0 3.19-.3 1.45-.51.78-.65 2.61-.87.38-.04.97-.3 1.36-.43.49-.16.9-.28.89-.82-.62-.25-1.16.8-2.36.59.03-.53 1.08-.92.49-1.97-.78-1.36-3.59-1-3.51.44.05.96.73 1.34.94 1.79-.36.48-1.28.42-1.87.2-.7-.26-1.15-.51-1.04-1.44.23-1.99 2.44-1.44 2.83-2.18-.13-.19-.06-.1-.21-.22l-.27-.18c-.28.09-.71.01-1.05.08-.29.07-.61.16-.93.24-.74.18-1.01.31-1.56.68-1.7 1.13-.7 1.64-2.16 2.35-.79.39-2.66 1.21-3.7.69-.6-.3-.79-.66-.65-1.5.13-.83.61-1.79 1.5-1.9.54-.07.56.1.81.35 1.33 1.29 2.89-.35 1.79-.85-1.8-.83-4.89-.15-6.23 2.08-.72 1.2-.67.74-1.05 1.25-.24.03-.44.19-.78.28-.31.08-.61.08-.94.1l.14-1.37.46-2.41c-1.91-.05-5.18.44-6.36 1.37-1.01.35-1.26 1.25-1.98 1.74-.76.33-.87.47-1.79.54-.28-.28-.39-.32-.24-.92.13-.51.95-1.81.87-2.59-1.86-.17-.84.18-2.95-.47.16-.67 1.37-.97-.35-1.35-.02.01-.04.03-.05.04l-.34.16c-.14.05-.2.07-.33.14-1.21.67.43 1.74.47 1.78-.14.34-1.27 1.37-1.64 1.71-.71.64-1.13 1.12-2.12 1.18 0-.85.41-1.61-.25-2.15-.26-.22-.62-.31-.97-.1-.96.57-.01 2.43-.3 2.81-.34.44-1.3.5-1.95.33-.44-.38-.7-.86-.39-1.73.23-.64.69-.94 1.01-1.32zm16.57 2.39c-.55.32-.94.66-1.84.64-.77-.02-.98-.96-.69-1.63.39-.87 1.83-1.68 3.16-1.8.05.65-.37 2.24-.63 2.79z" style="fill:#fef012"/><path class="fil4" d="M56.72 7.71c.15-.13.07-.04.16-.23.3-.66-.05-.26.48-.51.4-.18.68-.93 1.5-1.15 1.2-.32 1.24-.28 1.25.48.01 1.03.13.94.07 2.33-.02.54-.07.99-.07 1.55v.78c-.01.39-.06.63.16.82-.09-.69.02-4.99.19-5.51.92-.15 3.58.11 4.81-.07.23-.58-.08-4.22-.15-5.06-.59-.09-7.5-.04-7.81.05-.08.44-.05 1.12-.1 1.64-.13 1.46-.44 3.65-.51 4.89z"/><path class="fil3" d="M6.83 9.34c.2.2.68.04.9-.12.22-.16.35-.44.51-.64.7-.07.68-.02 1.36-.2.38-.1.9-.19 1.34-.19.34 0 1.14.16 1.35.09.31-.1.15-.24.46-.3.28-.05.23.09.49.16 1.39-1 .28-1.28 1.35-1.27l.24-.47.04.33.12-.34c.12-.72 0-2.26.06-2.64.12-.66.4-2.23.35-2.84L11.79.73c-.41.58-.9 1.39-1.25 2.09-.46.91-.77 1.34-1.25 2.16-.37.63-2.14 4.07-2.47 4.36z"/><path class="fil6" d="M93.39 15.92c-1.66.2-1.54-1.58-2.25 1.72.02.01.05.01.06.04l.57.16c.25.04.47.09.72.12.51.06.96.07 1.47.16.08.87-.66.64-1.24.57-.52-.06-1.37-.17-1.86-.1-.25.27-.78 1.63-.8 2.03.81.15 2.7.74 3.52.52.35-.67.3-1.75 1.29-3.36.8-1.29 2.37-3.03 4.05-2.9.29.02 1.52.41 1.77.53.37.18 1.02.8 1.26 1.07.56.64.1 1.31.06 2.01.35.35 1.04.39.81 1.75-.22 1.3-1.05.72-1.26 1.44.02.01.03.02.04.04l.16.04h.11c1.31-.38 2.67-.56 2.63-2.33-.02-.86-.11-.64-.66-.93.11-.46.42-.18.31-1.17-.13-1.15-1.11-1.66-2.1-2.15-1.21-.27-3.46-1.07-4.79-.75-1.42.34-2.18 1.43-2.63 1.57-.36.11-.98.06-1.24-.07zM92.2 9.61c-.32-.13-1.55-.55-1.63-.82.27-.14 1.44.45 1.77.6.37.16 1.49.54 1.72.8-.15.12.26.19-.32.08l-1.54-.66zm1.44-7.28c.3.33.74.65 1.09.95.41.35.71.66 1.11.99.53.44 1.81 1.47 2.15 1.91.65.29.49.68.49 1.46-.03.67.13 1.33.03 2.05-1.03.03-5-2.73-5.9-3.59-.76-.72-.42-1.34-.21-2.38l-.07-.44c-.27.02-.18-.04-.33.29l-.46 1.24c-.16.47-.52 1.36-.55 1.84.63.26 2.39 1.52 3.11 2.07.05.04.2.15.22.17.16.14.04.01.17.17.21.04 3.16 1.73 3.33 1.94-1.22-.35-6.92-3.02-7.63-3.01l-.37.93.05.28c.6.14 1.62.57 2.22.81.35.14 1.87.87 2.01.88.61.21.86-.21 1.51.01.52.17 1.45.91 2 1.11.36.13 1.22-.08 1.38.22.3.73-.34 1.42.23 1.85.41-.07.88-.92.8-1.69l-.56-.11c.01-.57.39-.26.31-.91-.54-.52-.21-.57-.44-1.3-.28-.93-.23-.16-.25-1.59-.02-2.7-.31-2.14-1.72-3.73-.32-.36-.56-.63-.9-.97-.32-.32-.59-.55-.93-.86-.3-.27-.67-.74-.95-.88l-1 .04.05.24zM82.6 21.37c.01.32-.04.56.1.78.14.15.8.11 1.01-.24.31-.52.76-2.41.93-3.03.26-.93 1.08-3.45 1.01-4.33-.65-.36-1.04-.49-1.85-.59l-.8-.06c-.21.47-.14 1.23-.14 1.81 0 .73-.13 1.08-.21 1.74-.14 1.13-.07 2.75-.06 3.92z"/><path class="fil6" d="M87.39 12.89c.04.39-.11.95.08 1.29.14.25.61.45.96.45.17-1.22-.5-1.22-.58-1.42l-.04-1.43c.4-.09 1.81.43 2.27.58.59.2 1.63.45 2.15.69 1.22.32 4.69 1.66 5.91.96-.12-.61-1.75-.98-2.64-1.32-1.61-.63-4.1-1.59-5.59-2.33-1.72-.84-.74 1.41-2.29 1.12-.02.4-.04 1.16-.23 1.42z"/><path class="fil6" d="M93.72 15.7c.85-.01.78-.11 1.27-.51.18-.15.29-.27.47-.39.22-.15.34-.14.41-.34l-3.88-1.32c-.95-.07-2.58-.95-3.56-1.02-.21 1.94 0 1 .3 1.88.06.18.07.43.13.66.88.5 3.69.82 4.86 1.03z"/><path class="fil7" d="M97.91 17.32c.44.13.89.23 1.32.33.52.12.72.19.81.72.23 1.28-.95 1.47-1.59.99.13-.32.39-.23.63-.54-.18-.28-.21-.1-.47-.31.15-.45.38-.08.36-.68-.36-.28-.83-.2-1.13-.43-.58.04-1.11-.15-1.15.5.33.27.37.02.56.39-.18.45-.13.12-.58.47-.19.15-.31.31-.27.64.39.08.71.03.96.21-.12.23-.16.14-.43.27-.2.09-.26.14-.41.28.16.57.71.44 1.29.42.15.26.17.4.36.63.53.08 1.01-.22 1.28-.44.39-.31.49-.49 1.1-.75-.06-.3-.06-.14-.16-.41l.47-.19c-.25-.62-.44-.22.01-.88-.17-.38-.16-.06-.29-.65-.11-.49-1.25-1.56-1.35-1.61-.35.32-.04.56-.7.58-.65.02-.51-.04-.62.5z"/><path class="fil6" d="M83.26 10.43c.25-.07 1.99.45 2.42.58l.79.35c.37-.02.33.15 1.03.05.45-.17 1.1-.94.98-1.65-.32-.19-4.7-1.81-5-1.82-.15.46-.31 2.04-.22 2.48zM90.66 17.61c.33-.52.55-1.2.52-1.94-1.36-.4-2.55-.49-3.27-.7-.47-.13-.55-.24-1.15-.25l.06 2.52c.09.25.24.2.6.25.79.1 2.46.32 3.25.12z"/><path class="fil4" d="M90.33 6.12c-.28-.19-.76-.38-1.07-.55-.42-.22-.76-.43-1.13-.66-.71-.44-1.45-.91-2.17-1.31.05.44-1-.26-1.09-.31-.42-.24-.72-.39-1.21-.55-.08.58.38 1.64.76 1.86.52.3.55-.02 1.89.82.57.36 3.06 1.64 3.71 1.52.14-.25.21-.53.32-.82z"/><path class="fil6" d="M88.01 19.93c.23-.09.4-.11.7 0 .05.5-.19.46-.7.39-.1-.3-.09-.15-.01-.39zm-1.28.28c-.2.31-.33 0-.46.38.57.12 3.05.33 3.39-.17.03-.05.11-.21.13-.26.23-.5.62-1.14.56-1.69-.78-.12-3.12-.26-3.84-.13-.82 1.97-.03 1.33.23 1.86zM84.21 5.75c.98.12 2.26.98 3.42 1.45.46.19.87.28 1.07.59l-.3.05c-.48-.07-2.77-1.25-3.12-1.39-.19-.08-.44-.14-.63-.23-.39-.17-.27-.13-.44-.47zm5.11 3.06c.13-.28.4-.83.34-1.23l-5.41-2.42c-.43-.19-.7-.29-.71.29-.03 1.14 0 1.12.83 1.46.92.38 4.49 1.93 4.96 1.9z"/><path class="fil1" d="M65.24 27.29c.36.16 1 .16 1.48.16.66 0 .75-.13.92-.66.22-.7.66-1.77.62-2.55-.7-.06-1.78.6-2.19.9-.78.57-1.09.88-.83 2.15z"/><path class="fil6" d="M83.38 12.64c.63.11 3.01.34 3.57.18l.06-1.08-.66-.25c-.76-.17-2.68-.87-3.26-.86-.01.37 0 .74 0 1.11 0 .59-.03.61.29.89zM102.4 13.27l-1.58-1.06-.36-.01c-.05.36-.05.81-.14 1.2-.08.33-.28.6-.31.91.63.31 1.47.52 2.32.45.11-.46.14-1 .07-1.48z"/><path class="fil4" d="M72.58 27.23c.3.26.86.29 1.36.29.66-.01.65-.24.81-.83.12-.46.29-1.1-.2-1.21-.27-.06-1.26-.1-1.54-.07-.35.35-.55 1.23-.42 1.83z"/><path class="fil7" d="m94.1 10.91.16.2c.6.22 1.25.6 1.92.88.51.21.53.35.86.54.19.1.29.07.48.21.13.09.22.25.38.38.54-.02.74-.36.76-.93l.32.05c-.16-.29-1.02-.09-1.38-.22-.55-.2-1.48-.94-2-1.11-.66-.22-.9.2-1.51-.01z"/><path d="m94.26 11.11-.16-.2c-.14-.02-1.66-.74-2.01-.88-.6-.24-1.62-.67-2.22-.81l-.05-.28c-.52 1.08.45.94 1.77 1.52 1.24.54 1.65.82 2.66.66z" style="fill:#045ed3"/><path class="fil9" d="M9.3 26.64c.51-.21.97-1.64.84-2.47-.31-.02-.45.16-.75.29-.34.15-.62.13-.62.46-.01.33.4 1.47.53 1.71z"/><path d="M84.21 5.75c.17.34.05.3.44.47.19.08.43.15.63.23.35.14 2.65 1.32 3.12 1.39l.3-.05c-.2-.31-.61-.4-1.07-.59-1.16-.47-2.44-1.33-3.42-1.45z" style="fill:#6f7c96"/><path class="fil9" d="m6.28 27.43.91-.09.32-1.49c-.4.04-.66.35-.84.57-.19.24-.39.69-.39 1.01z"/><path d="M90.57 8.8c.08.27 1.32.68 1.63.82l1.54.66c.58.11.17.04.32-.08-.23-.26-1.35-.64-1.72-.8-.34-.14-1.5-.74-1.77-.6z" style="fill:#7a8395"/><path class="fil3" d="M98.47 7.65c0-.79.16-1.17-.49-1.46.06.27.14.46.24.74.1.29.11.51.25.73z"/></g></g></svg>