<svg xmlns="http://www.w3.org/2000/svg" xml:space="preserve" width="96" height="72" style="shape-rendering:geometricPrecision;text-rendering:geometricPrecision;image-rendering:optimizeQuality;fill-rule:evenodd;clip-rule:evenodd" viewBox="0 0 47.71 35.78"><defs><style>.fil7{fill:#020000}.fil4{fill:#050101}.fil9{fill:#0a0201}.fil6{fill:#da0001}.fil3{fill:#fc0000}.fil5{fill:#fcfcfc}.fil1{fill:#fdfdfd}</style></defs><g id="Camada_x0020_1"><g id="_2480903717936"><path d="M23.95 33.11c-1.91 1.35-4.86 2.33-6.77 2.56-6.23.75-12.11-2.18-15.2-7.68-2.91-5.17-2.61-11.34.75-16.22a15.18 15.18 0 0 1 3.91-3.92 2.42 2.42 0 0 1-.3-.55c-.45-1.15.23-2.64.63-3.74.22-.59.5-1.25.68-1.85A2.23 2.23 0 0 1 9.85.08l1.13.02c.55.01 1.04.2 1.43.53 1-.61 2.25-.79 3.46-.4.76-.21 1.59-.06 2.42-.09.46-.02.82-.04 1.2.05.5-.09 1.05-.07 1.6-.03.03 0 .07.01.1.01.06 0 .11-.01.17-.01h2.88c.23 0 .45.03.66.1.29-.12.61-.18.95-.17l1.02.03c.34.01.65.09.93.22.61-.29 1.24-.23 1.98-.22.36 0 .7.09 1 .24.3-.15.65-.24 1.02-.24l1.13-.01c.35 0 .68.07.98.21.2-.08.41-.14.64-.19 1.01-.23 2.03-.1 2.92.39.55-.3 1.18-.48 1.84-.51.99-.05 1.86.52 2.21 1.45l.36.93c.2.53.19 1.09.02 1.58.08.21.14.44.18.72.17 1.2-.33 2.32-1.16 3.1 4.23 2.83 6.77 7.57 6.79 12.76.05 11.17-11.91 18.61-21.88 13.65-.55-.27-1.23-.66-1.88-1.09z" style="fill:#000"/><path class="fil1" d="M28.66 4.5c0 1.39-.33 1.96.28 2.02.22.02.56 0 .73-.04.18-.12.11-1.41.11-1.61.5.51.52 1.72 1.01 1.68.54-.25.52-1.33.93-1.69 0 .54-.1 1.32.1 1.61l1 .03.12-4.14-1.13.01-.99 2.07c-.05-.03-.07-.08-.08-.06l-.98-2c-1.52-.02-1.1-.3-1.1 2.13zm-8.43 2.02c.92 0 .74.18.72-1.65-.01-.6.12-1.99-.02-2.46-1.71-.14-1.18.05-1.18 1.63.01 2.33-.45 2.49.48 2.49zm17.45-.82c.12.35.26.67.54.92.81-.02 1.76-.73 1.63-1.63-.07-.48-.42-.74-.62-1.06-.45-.71.12-.56.56-.75l-.36-.93c-.87.04-1.9.65-1.53 1.72.14.41.62.72.66 1.01.09.57-.52.51-.87.71zM21.29 3.43l.88-.05v2.87c.05.21.02.11.1.23l1.02.03.1-3.13.92.01-.04-.97h-2.88c-.08.31-.17.68-.1 1.02zm-5.14 2.46c-.08-.35-.29-.66-.55-.85-.33.18-.61.5-1.17.36-.81-.21-.84-1.78.07-1.94.69-.13.69.29 1.22.4.14-.31.37-.56.42-.93-1.61-1.45-3.54-.31-3.52 1.57.03 2.08 2.27 2.76 3.53 1.4zm-5.74-1.84c.09.07.06 0 .13.13l.15.68-.57-.02.3-.79zm-1.95 2.4 1.07.06c.19-.26.16-.37.29-.62l1.2.01c.29.59-.17.67 1.38.59.16-.49-1.19-3.47-1.43-4.15l-1.13-.02c-.17.6-1.49 3.83-1.38 4.12zm17.76-2.28c.1-.17.05-.07.17-.18l.14.86c-.37 0-.3.01-.47-.1l.16-.58zM25.7 5.9l1.2-.01c.16.33.07.51.4.61.31.09 1.03.13 1.03-.22 0-.24-.58-1.64-.67-1.89-.21-.56-.54-1.54-.85-2.02l-1.02-.03c-.3.46-1.01 2.66-1.31 3.46-.02.06-.12.29-.13.35-.09.42-.1.24.09.34.1.05.74.06.86.02.35-.09.25-.27.39-.6zm-9.23.53c.29.17 2.22.1 2.74.1.11-.3.19-.71.16-1.08-.53-.07-1.32.16-1.72-.12l-.02-.28c.02-.02.06-.06.07-.04l.14-.06c.29-.08.94 0 1.27-.01l.11-1.07-1.51.03-.08-.51 1.6.04c.13-.31.03-.78-.02-.87-.15-.27-.41-.18-.82-.17-2.95.1-1.7-.8-1.99 3.12-.03.38-.1.71.08.92zm18.04-1.66c-.32-1.43 1.5-1.81 1.75-.64.31 1.45-1.5 1.74-1.75.64zm.55-2.45c-2.94.68-1.85 4.72.69 4.25 2.8-.51 1.89-4.85-.69-4.25z"/><path d="M24.05 10.69c-.22.4-1.16 1.11-1.43 1.6l2.75.03c.26.27.83 1.04.95 1.48l-4.77.01-.69 1.05.11.16h5.84c.43.13.14-.11.39.31l.35 1.2-7.31.03-.3 1.21 7.93.06c.25-.42.33 3.39.42 3.58l.9-2.56c.18-.42.35-.32.49-.6l1.34.03c.35.61.69 1.63.97 2.36.3.77.72 1.72.91 2.49.43-.5.17-3.75.17-4.35l.23-.18.04-.04c.17-.15-.01-.08.11-.09 1-.17 2.99-.22 3.71.33.7.53.71 1.62.29 2.2-.57.78-.77.21-.14 1.41.3.25.25.45.44.73.19.29.05.1.22.25.04-.68-.03-4.44.08-4.64l.33-.34c.3-.17 2.44-.1 2.83-.02l.61.21c.16.09.07.04.14.11l.1.1c.44.44.77.54 1 1.5.27 1.17-.13 1.46-.35 2.27-.17.55-1.04 1.28-1.92 1.41-.5.07-1.15.04-1.66.04-.18 0-.69.01-.84-.02-.46-.08-.12-.01-.32-.16-.17-.12.04-.09-.23-.17l-.09.1c-.01.01-.03.04-.05.05-.34.31-1.02.21-1.63.15-.13-.29-.26-.65-.4-.98-.2-.49-.16-.73-.63-.77.22 1.47.06 1.32-.17 1.56l-.05.05-.14.17c-.36.02-1.12.11-1.42-.06-.08-.05-.09-.08-.15-.14l-.09-.12c-.49.25.36-.29-.15.15-.44.38.34-.19-.11.09-.2.13 0 .06-.29.11-1.57.25-1.41-.42-1.5-.78h-1.38c-.02.02-.03.05-.04.06l-.25.3c-.21.23-.14.23-.39.38l-1.07.12-.23.64h-7.14l.5 1.23 6.05.01c.02.35-.49 1.24-.76 1.51h-4.39c.12.31.63.98.83 1.21l2.63.02c-.09.46.02.11-.3.45-.12.13-.18.21-.3.35-.64.73-.59.32-.55.77.5.57 1.92 1.45 2.74 1.85 8.55 4.24 18.67-2.21 18.62-11.61-.03-5.74-3.45-9.79-7.12-11.67-4.94-2.53-11.03-1.34-14.29 1.8z" style="fill:#fd8500"/><path class="fil3" d="M8.61 20.03c-.19.11-.72.84-.71.99.29.64 1.6 1.71 1.03 2.59l-.2.37-1.1.03c-.15-.24-.32-.45-.49-.72-.43-.67-.37-.45-.6-.48l-.6.8c-.41.69-1.28.37-1.36.28-.64-1.1 1.21-1.95.98-2.73-.08-.28-.69-.89-.88-1.18-.16-.24-.2-.46-.19-.83.01-.56.02-.42.36-.67l.07.83v-.91l1.04.02.8 1.17c.13.21.1.15.23.23.36-.28.9-1.34 1.11-1.42h.93c.02 1.29-.01.77-.41 1.62zm19.37 1.94.31-.56c-.09-.19-.17-4-.42-3.58l-7.93-.06.3-1.21 7.31-.03-.35-1.2c-.25-.42.04-.18-.39-.31h-5.84l-.11-.16.69-1.05 4.77-.01c-.12-.44-.69-1.21-.95-1.48l-2.75-.03c.27-.49 1.21-1.2 1.43-1.6l-.3.02c-.22-.43-2.05-1.56-2.68-1.88C15.1 5.89 8.21 7.82 4.6 13.06c-6.37 9.24 1.06 21.72 12.31 20.36 2.01-.24 5.49-1.57 6.54-2.87.31-1.03.58-.68.68-1.05.11-.46.02-.15-.01-.27.04.09-.02.12.14.11.29-.02.24-.1.3-.21-.02-.01-.06-.06-.07-.03-.01.02-.05-.03-.07-.03-.02 0-.05-.02-.07-.02-.59-.11-1.45.16-2.01-.16l-.56-.94c-.03.02-.51.04-.17.35-.3-.38-.08-.29-.19-.71a.508.508 0 0 0-.09-.13c.86-.28 3.03-.06 4.19-.11.33-.01.59.11.52-.25-.14-.66.53.29-.07-.07-.01-.01-.04-.01-.05-.02l-.15.08c.29-.19.19-.01.19-.48.69.03.42.03.55-.27l-.63-.12c-1.42.01-3.88.08-5.1-.02-.26-.3-.79-1.16-.51-1.62l7.09-.07c.09-.49.08.04.09-.49l.1-.8c-.55.17-.96 1.16-2.6.9-.52-.08-.9-.29-1.22-.56-.3-.25-.47-.64-.72-.89-.06.36-.18.63-.19 1.06-.3.14.01.04-.37.13-.02.01-.04.03-.05.03l-.17.09c-.27.09-1.52.04-1.91.04-2.34 0-1.38-.06-1.95-.32-.02.02-.04.04-.05.06-.23.25-.23.27-.69.28-.33.01-.7-.01-1.02-.04-.28-.5-.46-1.25-.78-1.74l-.34.12.08 1.2-.2.07-.07.38c-.48.04-1.23.13-1.59-.09l-.24-.82c-.24.39.08.41-.34.55.25.63-1.68.37-2.73.38-1.6.01-1.01.05-1.01-2.72 0-.62-.19-2.28.08-2.71l.27.01c.1-.33-.13-.11.29-.19l3.23.04.11 1.13-.36-.02.33.12c-.34.15-.09.02-.34.31l-1.48-.08c-.38.15-.08-.04-.27.35.42.33 1.44.07 2.01.12-.04.36 0 .94-.19 1.19l-.23.4c-.55-.01-1.2-.14-1.55.08.06.22-.14.33.79.31.31 0 .77-.04.99.05h.41v.41c.01-.02.03-.08.03-.07 0 0 .2-.29.24-.7.07-.77-.06-2.47-.06-3.27.18-.14.13-.14.41-.2l.01-.15c1.54-.08 4.58-.54 4.25 1.92-.1.76-.5.85-.83 1.21l.92 1.9c.25-.66.23-1.88.2-2.72-.01-.3-.2-2.98.34-2.03.01-.53-.01-.16.12-.3.73 0 2.89-.14 3.36.08l.15 1.05-.44.02.35.17c-.14.33-.33.35.03.55.4.22.17.11.46-.27.17-.11.31-.45.47-.63.15-.17.44-.47.62-.57.69-.32.77-.58 1.86-.51.74.05 1.28.35 1.6.77-.04.3-.11.39-.24.62-.03.04-.11.18-.15.23-.18.21.01.06-.23.2.08.1-.03.09.09.12l-.34.3-.51-.26.07.15c.14.4.12.18.02.36l.6.02c.35-.11-.24-.22.47-.44.53-.03.63.57.61 1.02l-.34-.28v.65l-.22-.05c-.84-.2-.35 0-.89.14-.48.12-1.57.28-1.67-.48-.06-.47.09-.83.06-1.19l-.04-.08c-.56.5-.28 1.64.18 2.04.84.73 1.48-.05 2.04-.2l.56.84c.2-.21.34-.45.33-.81zm-11.27-1.21c-.1-.19-.05-.29-.21-.5l-.02.45c-.66.33-1.08-.03-.79-.84l.45.02c-.06-.04.06-.11-.35-.13-.21-.01-.09 0-.31.08-.01.16-.03.36-.02.52.04 1.05 1.22.41 1.25.39z"/><path class="fil1" d="M39.81 19.56c2.76-.77 2.53 3.47.25 2.95-.28-.06-.25-.06-.29-.36-.05-.41-.02-2.17.04-2.59zm2.9 3.02c.23-.8.63-1.1.35-2.27-.23-.97-.56-1.06-1-1.5l-.1-.1c-1.16-.4-2.22-.37-3.57-.3v5.2c2.19.05 3.21.33 4.31-1.03zM16.71 20.76c-.03.02-1.22.67-1.25-.39-.01-.16.01-.36.02-.52l.05-.37c1.33-.28 1.89.7 1.18 1.28zm-2.61-2.18.01 5.03 1.27.01.2-.07-.08-1.2v-.52c1.06-.25.8.37 1.49 1.77.48.02 1.47.15 1.46-.15l-.92-1.9c.33-.37.73-.46.83-1.21.33-2.46-2.7-2-4.25-1.92l-.01.15zM34.93 19.5c1.16-.42 1.86.67 1.23 1.24 0 0-1.21.61-1.3-.16l.08-1.07zm-1.47-1.01c.14 1.95-.05 4.3.03 5.14l1.42-.04c.09-.34.02-.51-.02-.89-.02-.18-.06-.73.08-.84.71-.59 1.22 1.36 1.39 1.77l1.45-.01c-.06-.43-.28-.77-.5-1.2-.63-1.2-.44-.63.14-1.41.43-.58.41-1.66-.29-2.2-.72-.55-2.71-.5-3.71-.33z"/><path class="fil4" d="m29.21 23.62-1.37.01c.03-.6 1.55-4.35 1.84-5.31h1.31c.32.7 1.96 4.7 1.96 5.3h-1.44c-.31-.68.02-.92-1.65-.8-.61.04-.44.27-.66.79zm-.92-2.21-.31.56c.01.36-.13.6-.33.81-.71 1.31-2.82 1.22-3.81.11-.47-.53-.7-1.25-.64-2.14.07-1 .49-1.42.92-1.94-.18.1-.47.4-.62.57-.16.18-.3.52-.47.63-.3 1.37-.3 1.28-.02 2.66.25.26.42.64.72.89.33.27.71.48 1.22.56 1.64.26 2.05-.73 2.6-.9l-.1.8 1.36-.02c.25-.15.19-.15.39-.38l.25-.3c.01-.01.02-.04.04-.06h1.38c.1.36-.06 1.03 1.5.78.29-.05.09.02.29-.11.44-.28-.34.29.11-.09.52-.44-.33.1.15-.15l.09.12c.06.06.07.1.15.14.3.18 1.07.09 1.42.06l.14-.17.05-.05c.24-.24.4-.09.17-1.56.46.04.43.29.63.77.13.33.26.69.4.98.62.07 1.29.16 1.63-.15.02-.01.03-.04.05-.05l.09-.1c.27.08.06.05.23.17.21.15-.14.07.32.16.15.03.65.01.84.02.51 0 1.17.03 1.66-.04.87-.13 1.75-.86 1.92-1.41-1.1 1.36-2.12 1.08-4.31 1.03v-5.2c1.35-.08 2.41-.1 3.57.3-.07-.08.01-.02-.14-.11l-.61-.21c-.39-.08-2.54-.15-2.83.02l-.33.34c-.11.2-.04 3.96-.08 4.64-.17-.15-.03.04-.22-.25s-.14-.49-.44-.73c.22.43.44.77.5 1.2l-1.45.01c-.17-.41-.68-2.35-1.39-1.77-.14.11-.1.66-.08.84.04.38.11.56.02.89l-1.42.04c-.08-.85.11-3.2-.03-5.14-.12 0 .07-.06-.11.09l-.04.04-.23.18c-.01.6.26 3.85-.17 4.35-.2-.77-.61-1.72-.91-2.49-.29-.74-.62-1.76-.97-2.36l-1.34-.03c-.14.28-.31.19-.49.6l-.9 2.56z"/><path class="fil5" d="M30.72 21.62c-1.19.27-.83-.33-.57-1.05.11-.3.08-.29.27-.48.19.52.49 1.17.3 1.53zm-1.51 2c.21-.52.05-.75.66-.79 1.67-.12 1.34.12 1.65.8h1.44c0-.6-1.64-4.6-1.96-5.3h-1.31c-.29.96-1.81 4.71-1.84 5.31l1.37-.01z"/><path class="fil1" d="M18.99 18.71c.21 5.72-.76 4.9 1.33 4.91.68 0 1.36 0 2.05.02.35-.13.35-.57.36-1.23-.95 0-2.19.31-2.3-.29-.01-.65-.03-.62.63-.61.43.01.82.04 1.23.07.26-.22.18-.88.2-1.23-.39.02-.76.03-1.15.04-.48.01-.76.12-.9-.25-.05-.59-.08-.63.53-.62.4 0 .83.02 1.23.04l.44-.02-.15-1.05c-.47-.22-2.63-.08-3.36-.08-.13.14-.11-.23-.12.3zM9.74 18.6c.02.82.09 1.71.08 2.52-.01.82-.14 1.66-.06 2.5l3.38.02c.42-.14.1-.16.34-.55V22.41h-.41c-.39.01-.78.05-1.18.04-.47-.01-.71-.02-.73-.5-.03-.69.74-.41 1.91-.38.18-.26.14-.83.19-1.19-.57-.05-1.59.21-2.01-.12-.18-.46-.18-.72.35-.74.41-.02.99.03 1.41.05l.36.02-.11-1.13-3.23-.04c-.42.08-.18-.14-.29.19z"/><path class="fil5" d="M4.91 19.32c.3.63.94 1.11 1.14 1.71-.02.27-2.25 2.5-.65 2.61.14.01.39-.01.54-.02l.6-.8c.11-.27.21-.44.45-.61.33.31.76 1.02 1.03 1.42h.92c.58-.88-.74-1.95-1.03-2.59-.01-.16.52-.89.71-.99.39-.86.43-.33.41-1.62H8.1c-.21.08-.75 1.14-1.11 1.42-.13-.08-.1-.02-.23-.23l-.8-1.17-1.04-.02v.91zM24.12 18.81c-.43.52-.85.94-.92 1.94-.06.89.17 1.61.64 2.14.99 1.11 3.09 1.21 3.81-.11l-.56-.84c-.56.15-1.2.93-2.04.2-.46-.4-.74-1.54-.18-2.04.17-.34.51-.56 1.11-.5.48.05.69.33.98.52.24-.14.05.01.23-.2.04-.05.12-.19.15-.23.14-.23.2-.33.24-.62-.32-.42-.87-.72-1.6-.77-1.08-.07-1.17.19-1.86.51z"/><path class="fil6" d="M23.46 30.54c.41-.17.21-.29.63-.23-.04-.45-.09-.04.55-.77.12-.14.18-.22.3-.35.32-.34.21.01.3-.45l-2.63-.02c-.2-.23-.72-.9-.83-1.21h4.39c.28-.27.79-1.16.76-1.51l-6.05-.01-.5-1.23h7.14l.23-.64 1.07-.12-1.36.02c-.01.53 0 0-.09.49l-7.09.07c-.28.46.25 1.32.51 1.62 1.22.1 3.68.02 5.1.02l.63.12c-.13.3.14.3-.55.27 0 .47.1.29-.19.48l.15-.08c.01 0 .04.01.05.02.6.36-.07-.59.07.07.07.36-.19.24-.52.25-1.16.05-3.33-.17-4.19.11.02.02.08.11.09.13.11.42-.11.34.19.71-.34-.31.14-.33.17-.35l.56.94c.56.32 1.42.05 2.01.16.02 0 .06.02.07.02.02 0 .06.05.07.03.01-.02.05.02.07.03-.06.11-.01.19-.3.21-.16.01-.1-.02-.14-.11.04.13.13-.18.01.27-.09.38-.37.03-.68 1.05z"/><path class="fil7" d="M18.45 23.47c.01.3-.98.17-1.46.15-.69-1.4-.42-2.02-1.49-1.77v.52l.34-.12c.32.5.5 1.24.78 1.74.32.03.7.05 1.02.04.45-.01.45-.03.69-.28.01-.01.03-.04.05-.06.57.26-.4.32 1.95.32.39 0 1.64.06 1.91-.04l.17-.09c.01-.01.03-.02.05-.03l-.08-.22c-.68-.02-1.36-.02-2.05-.02-2.08 0-1.11.81-1.33-4.91-.54-.95-.35 1.74-.34 2.03.02.85.05 2.06-.2 2.72z"/><path class="fil3" d="M24.92 20.18c.03.36-.12.72-.06 1.19.1.76 1.19.6 1.67.48.54-.13.05-.34.89-.14l.22.05v-.65l.34.28c.02-.45-.08-1.05-.61-1.02-.72.22-.13.33-.47.44l-.6-.02c.1-.19.12.03-.02-.36l-.07-.15c-.12-.19-.37-.26-.6-.27-.33-.02-.51.03-.68.17z"/><path class="fil4" d="m13.14 23.64-3.38-.02c-.08-.83.05-1.67.06-2.5.01-.81-.06-1.7-.08-2.52l-.27-.01c-.27.43-.08 2.09-.08 2.71 0 2.77-.59 2.73 1.01 2.72 1.05-.01 2.98.25 2.73-.38z"/><path d="M39.86 19.9c-.06 2.34-.24 2.59.57 2.56 1.36-.05 1.01-1.53.83-1.89-.26-.51-.7-.69-1.4-.67z" style="fill:#fa8800"/><path class="fil6" d="M20.44 20.14c.15.36.42.26.9.25.39-.01.76-.02 1.15-.04-.03.35.05 1.01-.2 1.23l-.2.37-1.5-.01-.16.18c.12.6 1.36.29 2.3.29-.02.66-.01 1.1-.36 1.23l.08.22c.38-.1.07.01.37-.13.01-.43.13-.71.19-1.06-.28-1.38-.28-1.29.02-2.66-.29.39-.06.49-.46.27-.36-.19-.17-.22-.03-.55-.69.47-.17.17-1.98.19l-.13.23z"/><path class="fil9" d="M13.69 18.78c0 .81.13 2.5.06 3.27-.04.41-.24.7-.24.7-.01-.01-.02.05-.03.07v.27l.24.82c.36.22 1.11.13 1.59.09l.07-.38-1.27-.01-.01-5.03c-.28.06-.23.06-.41.2z"/><path class="fil4" d="M5.93 23.61c-.15.01-.39.03-.54.02-1.6-.11.64-2.34.65-2.61-.2-.6-.84-1.08-1.14-1.71l-.07-.83c-.34.25-.35.11-.36.67-.01.37.03.59.19.83.19.28.8.9.88 1.18.23.78-1.62 1.62-.98 2.73.08.09.95.41 1.36-.28z"/><path d="M39.86 19.9c.7-.02 1.15.16 1.4.67.18.36.53 1.84-.83 1.89-.81.03-.63-.22-.57-2.56zm-.04-.34c-.06.41-.09 2.17-.04 2.59.04.3.01.3.29.36 2.28.52 2.5-3.72-.25-2.95z" style="fill:#0d0202"/><path class="fil7" d="M6.53 22.81c.23.03.18-.19.6.48.18.28.34.49.49.72l1.1-.03.2-.37H8c-.27-.4-.69-1.11-1.03-1.42-.24.17-.34.35-.45.61z"/><path class="fil9" d="M34.96 19.82c.63.02 1.17.2.93.93-.26.15-.59.14-.85.04-.16-.14-.1-.78-.08-.97zm-.03-.33-.08 1.07c.09.77 1.3.16 1.3.16.64-.57-.07-1.65-1.23-1.24z"/><path class="fil4" d="m24.87 20.1.04.08c.17-.14.36-.2.68-.17.24.02.48.08.6.27l.51.26.34-.3c-.12-.02-.02-.02-.09-.12-.29-.19-.49-.47-.98-.52-.59-.06-.93.17-1.11.5z"/><path d="M13.06 22.41c-.21-.09-.68-.05-.99-.05-.92.01-.72-.09-.79-.31.35-.22 1-.09 1.55-.08l.23-.4c-1.17-.03-1.94-.32-1.91.38.02.48.26.49.73.5.39.01.78-.03 1.18-.04z" style="fill:#110101"/><path d="M34.96 19.82c-.02.19-.08.83.08.97.26.09.59.11.85-.04.24-.72-.3-.91-.93-.93z" style="fill:#fa8500"/><path class="fil9" d="M11.25 20.26c.19-.38-.11-.2.27-.35l1.48.08c.25-.29 0-.16.34-.31l-.33-.12c-.42-.02-1-.07-1.41-.05-.53.03-.54.29-.35.74z"/><path class="fil7" d="M15.48 19.85c.22-.09.1-.09.31-.08.41.02.29.09.35.13.28.09.27.11.36.37.15.21.1.31.21.5.71-.59.15-1.57-1.18-1.28l-.05.37z"/><path class="fil4" d="m20.44 20.14.13-.23c1.81-.02 1.28.28 1.98-.19l-.35-.17c-.4-.02-.83-.04-1.23-.04-.6 0-.57.04-.53.62zM30.09 20.97c.07.07.17-.09.24.35.07.42-.07.24-.09.28-.45-.11-.3-.15-.15-.63zm.64.65c.19-.36-.11-1.01-.3-1.53-.19.18-.16.18-.27.48-.26.72-.62 1.33.57 1.05z"/><path d="M16.5 20.26c-.09-.26-.09-.28-.36-.37l-.45-.02c-.29.81.14 1.17.79.84l.02-.45z" style="fill:#f00000"/><path class="fil4" d="m20.43 22.12.16-.18 1.5.01.2-.37c-.41-.03-.79-.06-1.23-.07-.66-.01-.64-.05-.63.61z"/><path d="M30.24 21.6c.02-.04.15.14.09-.28-.07-.45-.17-.29-.24-.35-.15.48-.3.52.15.63z" style="fill:#eb8806"/></g></g></svg>