<svg xmlns="http://www.w3.org/2000/svg" xml:space="preserve" width="78.909" height="80.342" style="shape-rendering:geometricPrecision;text-rendering:geometricPrecision;image-rendering:optimizeQuality;fill-rule:evenodd;clip-rule:evenodd" viewBox="0 0 159.36 162.25"><path d="M52.57 85.97c2.73-.55 5.52-5.84 4.69-8.85 1.09-.65.36-2.38-.05-3.86-.74-.09-2.34-3.16-3.03-3.89-.35-.38-3.25-2.58-3.64-2.81-1.28-.75-3.46-.16-4.37-1.49-1.12-1.63-.54-.51-2.15-.82-.71-.14-1.08-.94-1.66-1.33-1.09-.75-.83.29-1.86-1.33-1.17-1.86-2.63-4.84-4.25-6.03-1.96-1.44-6.54-.71-7.84-4.25l-.71.2c-.08-.21-2.9-4.91-3.12-5.17-.86-1-3.27-2.27-4.54-2.63-1.97-.57-.13-.84-2.47-.95-1.13-.05-1.45-.36-2.85-.28-2.88.17-3.79.78-6.45 1.52l-1.69 3.86c.59 2.28-.49 2.04-.06 3.6.66 2.39 4.85 7.34 6.39 8.66 1.42 1.21 2.54 2.01 3.83 3.19 1.17 1.07 2.53 3.36 3.41 3.94 2.16 1.43 2.02 3.12 3.47 3.83.38.19 4.36 2.22 4.37 2.22 1.34 1.14 2.26 2.48 3.72 3.38.88.54 2.94 3.19 3.63 3.19.51 1.84 2.82 3.02 4.16 3.66 1.4.68 4.01 1.38 4.83 2.1 1.79-.5 3.63.18 4.62 1l3.64-.65zm64.39-2.43.52-1.72-1.31-4.8-.23.17-1.6-2.15c-.35-.33-1.6-1.36-2.08-1.82-1.3-1.24-.67-2.11-1.53-3.01-1.29-1.36-2.71-3.33-4.89-2.72l-.54-.47.93-.78.54-1.8.3.12-.2-.72.27-.07-1.15-4.33-.21-.46c-.54-1.96-.04-2.88-.75-5.47l.21-2.9-1.07-3.84c.75-.58.11-3.63-.05-4.67-.34-2.15-.15-3.29-.35-4.83-.24-1.91-.85-3.43-1.15-5.29-.17-1.1.51-2.7.04-4.41-.57-2.06-1.58-4.14-1.88-5.91-.38-2.28.66-2.89.13-4.97l.71-.2c-.21-1.3.34-3.38-.22-5.36l-.33-1.2c-.99-3.58-3.94-5.15-4.43-6.77l-1.21-.7C93.22 1.61 91.1-.73 87.67.23l-1.18.33c-2.21.61-4.21 2.51-5.02 3.97-.98 1.75-2.41 2.86-2.72 5.09-.17 1.26 1.62 13.42 2.81 14.51l.47-.13 1.42 3.99.41 1.7c1.03 3.7.74 6.42 1.58 9.37 1.16 4.07.26 6.45.91 8.79.22.78.53 1.41 1.18 1.48l1.48 6.3.49-.14c.4 1.46.94 4.18 1.51 6.27 2.7.66 4.8 2.79 5.42 5.69.44.25.78.5.95.82l-.81.1c.33 3.79-2.05 6.83-4.61 9.36-2.14 2.11-4.53 3.97-7.03 5.64a41.61 41.61 0 0 0-3.01 8.44l.83-.35 1.62.1c2.39.15 4.48 1.47 5.68 3.47 2.76-1.39 5.58-2.05 8.67-1.33.76.18 1.49.43 2.18.76l.03-.08c-.36-1.82-.46-3.68-.21-5.53.49-3.58 2.35-6.74 5.79-8.2 3.71-1.58 7.71-.27 9.76 3.01l.67-.14zm-67.68 23.11-1.53 1.58-.27-.25c-.54-1.47-6.18-4.83-7.65-4.59-.35-.89-.64-.72-1.63-1.02-1.97-.61-.51-.15-1.69-.92-.7-.46-1.14.04-1.94-.47-.97-.62-.2-.62-1.4-1.08-.92-.35-5.08-4.24-5.47-5.28-1.81.29-5.63-8.9-7.71-10.23-1.08-.69-10.27-3.37-11.77-2.95l-.71.2-2.06.83c-1.62 2.49-6.68 3.5-4.97 9.65l-.47.13c.42 1.52.41 3.17 1.64 3.16l-.22.2L3.59 98l.76-.24c.62.05 3.2 1.9 4.08 2.38.95.52 3.45 1.75 4.34 1.87l1.15.84c1.78-.34 5.33 1.39 6.17 2.93l.17-.31 1.82 1.04-.17.31c1.27-.32 3.35.96 4.41 1.42 2.82 1.23 1.92.53 4.81.71.86.05.7.97 1.62 1.76.98.85 1 .68 1.91 1.25.81.51 3.95 2.07 4.12 2.31l7.07 1.03-.03.38c1.84-.96 3.98-1.94 5.95-2.66a19.353 19.353 0 0 1-2.48-6.38zm6.7 24.56.29.16c.45-.12 1.19-.18 2.05-.19.47-1.8.86-3.63 1.2-5.47-1.94.49-3.93 1.31-5.7 2.24 1.01.85 1.75 1.97 2.16 3.27zm21.13 21.33.2.36 2.93 2.54.23-.32c.58 2.08 2.39 2.58 3.72 3.37 2.11 1.25 2.08 1.19 3.96 2.95 1.68 1.58 2.97.46 5.74-.25.48-.12 2.56-.51 3.11-.55 1.17-.09 1.53.9 2.26.62l5.72-2.36c.94-1.14 6.37-3.32 8.36-3.87.17-1.54 5.31-4.83 7.42-5.42 3.54-.98 6.39-1.45 9.79-2.45 1.7-.5 5.86-3.67 6.36-4.62l1.21-1.73c3.82-1.22 2.53-3.76 4.7-4.56l1.56-3.14 1.42-.81-.19-.7c1.89-.7 4.74-6.36 5.94-7.07l3.58-8.23c-.42-1.64.27-.88.01-1.81l-.27-.96c-.69-2.49-3.78-2.08-.85-5.73.4-.5.97-2.04 1.32-3.53-2.89 1.58-6.01 2.65-9.25 2.42-1.32 1.63-2.95 2.99-4.98 3.85a11.418 11.418 0 0 1-7.35.56c-1.47 2.17-3.37 3.99-5.86 5.05a11.2 11.2 0 0 1-7.54.47c-2.29 2.83-5.3 4.9-8.7 6.35-.96.41-1.93.73-2.91.95.24 1.87.37 3.41.41 4.13l-1.85 1.42-.01-.28-1.66-.94c-1.73.07-1.53-.86-4.12-.15-1.28.35-1.89.28-2.87.4-.43.23-.87.44-1.32.64-3.35 1.43-6.95 1.77-10.44.77 1.16 8.66-3.21 17.1-9.78 22.63zM51.84 7.08c-1.22.05-4.39-.33-5.37-.06l-.95.26c-4.54 1.26-8.05 6.84-6.84 11.2l1.33 4.79.26-.15 3.94 6.92-.24.14.47-.13c.93 3.33 1.92 3.29 3.02 5.72 1.08 2.4 1.83 3.9 3.15 5.85 1.62 2.41 2.07 2.86 3.55 4.77 1.66 2.13 1.9 1.84 3.66 4.84l1.53.51 2.45 6.81c1.48.17 2.32 5.6 2.84 7.47 1.33.16 1.09 2.6 2.76 2.59l.4 1.44c.36 0 2.79 1.62 3.31 1.96.57.38 2.78 1.24 3.23 1.57.17-.12.35-.25.52-.38l1.63-2.27c1.27-1.77 2.74-3.64 4.41-5.25l.34-3.24c-.04-.89.25-.94.01-1.81l-.13-.48-1.8-4.4-.65.17-.2-.72c-.43-1.56-4.91-7.07-6.12-7.34l-.25.05-2.06-9.75.05-.26c-1.73-6.23-4.37-14.89-7.24-18.98-2.65-3.78-1.32-3.87-5.16-6.54-1.7-1.18-5.09-2.79-5.85-5.31zm88.33 29.7c-.13 1.18-3.24 2.11-3.45 4.27-.15 1.56-.88 1.41-1.59 2.31-.83 1.06.34 1.77-1.2 2.62l.97 8.53.53 1.92c.29 1.03.62 2.34 1.51 2.43l1.09 4.79 1.32 1.12 2.6.44c.34.93.79 1.07 1.75.8l.57-.16a9.002 9.002 0 0 1 3.59-2.74c1.73-.73 3.52-.84 5.15-.42l.49-.42-.19-.23 1.42-.39c-.01-.87 2.22-4.2 2.39-7.5.11-2.18-.02-2.32-.72-4.85-.56-2-.71-4.38-.93-5.17l-.27-.96c-.66-2.38-2.72-5.38-4.12-6.54l-1.68.13-.62-1.11c-2.63-.48-5.16.14-8.62 1.1z" style="fill:#000"/><path d="M141.78 96.55c-.79-1.93-.85-3.94-.32-5.97.53-2.04 1.69-4.04 3.88-4.58l3.1-9.23c-.5-1.6-.74-3.28-.51-4.96.2-1.44.77-2.88 2.19-3.48 1.08-.46 2.03-.07 2.49 1 .32.75.01 1.97-.2 2.72-.45 1.65-1.1 3.27-1.74 4.86 1.04 2.17 3.09 3.97 4.97 5.36 1.25.94 2.48 2.13 3.1 3.59 1.14 2.68.64 5.31-.86 7.74-1.72 2.8-4.35 4.68-7.34 5.95-2.82 1.2-5.38 1.2-7.19-.58-.96 2.38-2.42 4.74-4.68 5.7-1.48.63-2.98.58-4.45-.05-1.35-.58-2.36-1.53-3.01-2.81-1.09 3.56-2.85 7.25-5.74 8.47-2.97 1.26-6.28-.37-7.44-3.36-.1 1.45-.63 2.87-1.46 4.22-1.72 2.8-4.35 4.68-7.34 5.95-3.03 1.29-5.76 1.2-7.58-1.01-1.53 3.02-3.68 5.87-6.75 7.18-2.2.93-4.48 1.17-6.77.43-2.18-.71-3.77-2.13-4.67-4.25-1.56-3.68-.35-7.71 1.4-11.08 1.96-3.78 4.75-6.99 8.73-8.69 1.18-.5 2.45-.72 3.71-.43 1.15.27 2.1.89 2.57 2 .92 2.16-.23 4.42-1.53 6.14-1.98 2.6-5.23 5.17-7.88 7.07-.21 1.84-.1 3.73.63 5.45.7 1.64 1.85 1.67 3.38 1.02 2.75-1.17 4.62-4 5.9-7.14-.68-1.85-.72-3.76-.21-5.69.53-2.04 1.69-4.04 3.88-4.58l3.1-9.23c-.5-1.6-.74-3.28-.51-4.96.2-1.44.77-2.88 2.19-3.48 1.08-.46 2.03-.07 2.49 1.01.32.75.01 1.97-.2 2.72-.45 1.65-1.1 3.27-1.74 4.86 1.04 2.17 3.09 3.97 4.97 5.36 1.33.99 2.57 2.22 3.18 3.79-.02-1.4.14-2.84.29-3.98l.78-5.58c.1-.68.16-1.37.23-2.06l.32-3.1c1.52-.32 2.3-.54 3.78-1.17 1.85-.78 2.96-1.55 4.59-2.59l-1.68 12.69c-.09.69-1.29 9.51-.68 9.8.08.02.3-.06.37-.09 2.96-1.26 4.76-10.8 5.29-13.77.63-3.52 1.07-6.94 1.47-10.48 1.49-.24 2.04-.4 3.5-1.02 1.68-.71 3.37-1.74 4.96-2.66l-1.51 10.05c-.44 2.91-.87 5.85-1.18 8.78-.05.47-.31 3.11-.17 3.52.1.27.28.22.63.07 1.51-.64 2.75-3.88 3.29-5.47zm-51.02 14.8c1.3-1.23 2.46-2.66 3.14-4.26.61-1.45 1.32-3.64.66-5.19-.08-.19-.09-.24-.47-.08-1.67.71-2.6 5.16-2.9 6.81-.17.9-.31 1.8-.43 2.71zm17.37-13.17-1.84 5.68c.66.37 1.2.9 1.51 1.63 1.14 2.68-.42 4.66-2.73 5.96-.71.41-1.83 1.18-1.91 2.09-.02.25.04.49.13.72.25.59.69.94 1.28 1.15.67.24 1.31.21 1.96-.07 2.67-1.13 3.25-5.58 3.42-8.05.19-2.65-.99-6.63-1.82-9.12zm41.32-17.55-1.84 5.68c.66.37 1.2.9 1.51 1.63 1.14 2.69-.42 4.66-2.73 5.96-.71.41-1.83 1.19-1.91 2.09-.02.25.04.49.13.72.25.59.69.94 1.28 1.15.67.24 1.31.21 1.96-.07 2.67-1.13 3.25-5.58 3.42-8.05.19-2.65-.99-6.63-1.82-9.12zM66.9 114.84c-4.97-.15-8.95-2.18-11-7-1.17-2.76-1.34-5.63-.66-8.54.73-3.17 2.35-5.96 4.5-8.38 2.79-3.18 4.68-4.37 8.14-6.52 2.04-1.28 4.11-2.52 6.18-3.76 1.73-1.06 3.4-2.22 5.01-3.45l2.21-3.05c1.62-2.26 4.22-5.56 6.85-6.68.85-.36 1.84-.34 2.25.62.72 1.69-1.62 4.01-2.71 5.08-2.23 2.2-4.79 4.09-7.44 5.76-2.38 4.5-3.99 9.31-4.87 14.33-.99 5.71-1.15 12.12-.98 17.91 2.55-1.11 4.77-2.72 6.43-4.98 1.46-2 2.25-4.21 2.04-6.7-.06-.72-.11-1.8.7-2.15.23-.1.14-.08.39-.07.46.03.81.32.99.74.52 1.23.27 2.95 0 4.21-.33 1.53-.87 3.18-1.73 4.49-2.04 3.11-4.89 5.3-8.31 6.75-.14.06-.28.12-.42.17.15 2.16.18 4.12.17 6.29 2.14 1.61 3.93 3.61 4.98 6.11 2.17 5.11 1.67 10.12-.99 14.96-2.95 5.36-7.68 8.95-13.25 11.32-3.38 1.43-6.93 2.22-10.6 2.18-1.14.66-2.32 1.29-3.54 1.8-3.81 1.62-8.07 2.58-12.17 1.5-3.72-.98-6.27-3.36-7.77-6.88-2.61-6.15-.78-12.21 2.76-17.57 4.4-6.66 10.77-11.23 18.05-14.32 4.65-1.97 9.52-2.91 14.53-2.31.09-.62.17-1.23.24-1.85zm.23-2.27c1.33-9.99 3.79-20.72 8.59-29.77-.42.36-.83.72-1.25 1.07-4.24 3.63-8.78 8.31-11.02 13.5-1.53 3.65-2.32 7.74-.72 11.51.89 2.09 2.26 3.4 4.4 3.68zm-17.79 21.67c-1.99 1.35-3.12 3.38-3.74 5.67-.65 2.43-.64 4.86.35 7.19 1.4 3.28 3.85 4.9 7.34 5.11 3.92-2.78 6.56-7.86 8.29-12.2 2.64-6.64 4.07-13.88 4.84-20.98-4.39-.6-8.69.26-12.77 1.99-6.58 2.8-11.83 7.14-15.28 13.43-2.95 5.39-3.99 11.07-1.54 16.84.91 2.15 2.4 3.62 4.69 4.21 2.69.69 5.63-.08 8.12-1.14.26-.11.52-.23.77-.35-3.34-.79-6.66-2.96-8.04-6.21-.92-2.17-.96-4.45-.41-6.72.6-2.45 1.81-4.59 3.53-6.44.86-.91 2.07-2.09 3.23-2.58l.27-.07c.46-.04.92.1 1.12.57.31.74-.12 1.35-.77 1.66zm9.33 17.62c1.97-.36 3.92-.89 5.75-1.66 5.05-2.15 9.4-5.38 12.06-10.25 2.32-4.24 2.75-8.56.85-13.03-.59-1.38-1.58-2.69-2.66-3.84-.19 5.63-1.4 11.16-4.24 16.11-2.83 4.95-7.18 9.17-11.76 12.68z" style="fill:red"/></svg>