<svg xmlns="http://www.w3.org/2000/svg" xml:space="preserve" width="96" height="72" style="shape-rendering:geometricPrecision;text-rendering:geometricPrecision;image-rendering:optimizeQuality;fill-rule:evenodd;clip-rule:evenodd" viewBox="0 0 47.64 35.73"><path d="M44.74 11.21c1.37-.08 1.63-2.63.92-3.85-.14-.24-.32-.42-.52-.63-.35-.36-.91-.66-1.42-.85-1.7-.65-3.01-.2-4.35.75-2.22 1.59-3.26.85-5.28 1.24-.45.09-.78.14-1.23.22-1.1.21-1.05.4-1.62.55-.98.25-2.02.39-3 .59-.48.1-.83.08-.95.45-.1.3-.1.78-.22 1.06-.19-.1-.21-.13-.34-.31-.65-.87-1.78-.56-2.7-.36-.42.09-.83.17-1.21.24-.99.19-1.32.24-2.14.71-.05-.11-.03-.08-.13-.14-.34-.2-1.65.2-2.05.27-.58.11-1.27.09-1.24.81a.076.076 0 0 1-.02-.04c0-.01-.01-.03-.02-.04-.01-.01-.01-.03-.02-.04-.08-.15-.21-.35-.42-.34l-5.74 1.1c-.17.04-.23.14-.37.17-.15.03-.11-.02-.22-.03-.16-.01-5.47 1.02-5.68 1.13-.21.11-.25.3-.28.56-.11-.2-.01-.15-.21-.3-.36-.28-.98.01-1.38.08-1.89.37-2.13.16-2.19 1.11C.63 16.58.54 17.76.49 19l-.23 3.68c-.03.34-.04.66-.06.94-.02.27-.06.69-.05.89.01.24.15.35.35.44.36.17.14.5.71.59-.08.17-.11 1.19-.11 1.44 0 .18.1.48.18.62.11.21.21.31.38.43-.23.06-.43.21-.61.34-.71.49-1.13 1.95-.53 2.68-.17.27-.29.61-.38.92-.08.3-.18.71-.16 1.06.06.96.82 1.48 1.08 1.78.45.52 1.05.94 1.86.89 2.53-.15 2.59-1.02 3.11-1.4.65 1 2.43 1.47 3.51.86l.19-.14c.83.45.97.46 1.52-.33.13-.19.38-.62.56-.67.06-.02.5-.08.55-.09.27-.04.32-.03.55-.09.19.29.44.44.65.72.72.96 2.05.2 1.98-.82-.06-.89-.41-1.74-.58-2.64-.23-1.2-.14-1.45-.22-2.58-.03-.49-.55-.55-.68-.96.96.4 1.07.31 2.04.25l.02.31c.03.37.37.83.68.96-.08.79-.13 1.53-.2 2.31-.06.65-.21 1.63-.16 2.34.02.23.06.41.25.52.25.15.16-.01.3.24.1.17.05.19.24.31.48.31.79-.02 1.09-.31l.55-.49c.68-.68.7-1.44.86-2.36.52-.04.91-.45 1.26-.5.04.84-.57.74-.52 1.45.1 1.41.42 1.03.78 1.59.31.47.74.58 1.31.29 1.02-.51 2.71-1.08 2.9-1.17.06.2.11.4.2.57.18.32.2.16.39.31.13.11.13.3.29.42.64.46 1.73-.26 1.93-.31.22.62 1.41.23 1.77.03.39-.21 1.9-.49 1.83-1.51-.03-.51-1.05-.62-1.08-.99-.06-.87 1.59-.07 1.88.02.48.16.92.26 1.5.32.51.05 1.18.02 1.75.05 2.44.13 2.58.87 4.35 1.11 1.22.16 2.51.27 3.78.19 1.78-.11 3.68-2 3.57-3.69-.05-.74-.3-.91-.72-1.26l-3.95-2.76c-.22-.15-.36-.25-.59-.39-.22-.13-.37-.25-.58-.39-.91-.62-2.14-.65-3.07-1.23-.49-.3-.04-.7-.14-1.43-.04-.26-.03-.36-.26-.46-.18-.08-.34-.12-.5-.19-.48-.22-.34-.46-.64-.79-.17-.2-.7-.34-.96-.38-.03-.41-.2-.7.03-.97.36-.42.98-.69 1.44-.99.79-.51 2.01-1.03 2.68-1.6.32-.28.63-.57 1.01-.8 1.91-1.2 2.49-.37 2.88-1.99.07-.28.05-.19-.09-.36-.33-.39-.22-.85-.79-1.02-.68-.2-.34-.02-.8-.39-.5-.4-.39-.17-.8-.33.05-.21.25-.37.53-.4 1.14-.12 1.26-.36 1.97-.5.22-.04.24 0 .46-.01zm-7.68 4.3c-.07-.98.39-.96.59-1.49.18-.49.24-1.11.2-1.77.31-.02.36.03.67.01 1.02-.05.88.1 2.03.04-.01.32-.46.77-.65 1-.25.32-.16 1.16-1.03 1.48l-1.19.51c-.22.1-.33.2-.63.23zm-15.38 5.97c.47-.03 3.46-.62 3.86-.78.12-.05.17-.06.28-.12.73-.36.17.14 1.02-.1.02.28.01.51.13.71.35.57.31.02.38 1.05.01.2-.05.07-.04.27.04.56.09 1.07.17 1.62.03.21.11.5.16.72.06.22.17.42.2.63-.23 0-.13-.05-.34-.03-.36.02-.63.19-.94.21-.03-.19-.19-.35-.3-.47-.09-.09-.12-.09-.21-.17-.08-.07-.12-.12-.18-.2-1.19-1.52-3.11.53-3.06 1.69l-.56.05c-.18-.13-.25-.26-.58-.25L21.55 22c-.03-.38 0-.31-.21-.57l.34.03zM24 15.07c.48-.03.79-.1 1.21-.19.3-.06.79-.19 1.12-.22.02.56-.16.49-.27.52-.51.13-1.42.23-2.08.41-.01-.23.04-.25.02-.53z" style="fill:#000"/><path d="m26.1 32.03.02 1.11c.02.26.07.23.09.47.27.04.34.08.8-.13.22-.1.28-.15.36-.35.11-.28.33-.79.31-1.13-.02-.23-.49-.34-.73-.3-.34.05-.61.21-.84.34zm-14.57-.34c.03-.15.11-.27.17-.4l.54-1.09c.15.12.03-.01.1.17l.36 1.3c-.45.03-.7-.01-1.18.02zM9 29.1l.05.73c.09 1.33-.57 3.35-1.72 3.63-.99-1.52.37-4.43.34-4.87-.04-.62-1.15-.59-1.38-.44-.17.11-.04.08-.3.84-.55 1.6-1.03 4.84 1.38 5.26.47.08.93.06 1.32-.15.28-.15.7-.48.84-.75.07.33-.03-.08-.01.29l.17.38c.11.15.03-.04.26.18.04-.17.51-.79.65-1 .1-.16.11-.21.35-.26.36-.08 1.94-.26 2.1-.35l.51 1.09c.26.37.81.16.76-.58-.02-.23-.02.02-.04-.16-.08-.85-.5-1.74-.62-2.91-.25-2.52.23-2.04-.97-2.29-.49-.1-.71-.02-1.2.06-.19 1.02-.46 1.69-.79 2.61l-.32.73c-.06.1-.02.04-.07.09-.04-1.01.21-1.74-.42-2.7-.22-.34-.54-.63-.98-.7.19.24.19.11.43.55-.14-.09-.52-.62-.74-.51-.24.12.32.19.39 1.22zM.94 30.32c.09 1.33 3.52 1.35 3.57 2.11.02.35-1.17.65-1.36.66l-.62.04c-.67.04-1.21-.41-1.26-1.14-.02-.32.03-.39.01-.69-.22.16-.28.37-.29.7-.3.11.25-.18-.12-.05-.58 1.69.59 2.65 1.47 2.6.93-.06 1.68-.12 2.32-.81.89-.95 1.03-2.44-.46-3.2-.49-.25-1.33-.54-1.89-.63l-.01-.1c.88-.25 1.54-.57 2.65-.63.19-.4.2-.36.17-.75-.06-.84-1.22-.39-1.9-.23-.68.16-1.7.42-2.02 1.01-.16.29-.3.7-.28 1.11zm16.58-3.04c.02.26-.03.33-.01.63-.62.04-.7.08-.71.31l.34-.02c-.14.23-.06.05-.03.37l.34.04c-.06.14.04.25.02.55-.07.8-.37 4.1-.34 4.57.17-.12.12-.14.26-.28.46-.44.35-.16.6-.6l.24-.34c.13-.22.16-.58.2-.87.05-.29.16-.67.17-.95 1.28-.36.81-.3 1.39-.58.23-.11.67-.41.79-.64l.13-.34c-.7.04-1.35.19-2.06.23 0-.13.04-.43.06-.54.06-.31.12-.19.5-.23.34-.04.91-.13 1.28-.18 1.2-.13 1.25-.33 1.03-1.43l-2.82.62c-.19-.71-.98-.42-1.37-.31zm4.5.05c-.03 1.7-.22 2.64-.39 4.14-.04.38.01.59-.19.73-.14.1-.37.18-.33.6.03.33.15.52.32.73.24-.03.38-.16.59-.26l1.89-.77c.45-.17.84-.29 1.33-.44.93-.27.53-.45 1.16-.63l-.23-.04c.28-.66-.21-.57-.65-.54-.99.06-2.53.79-2.78.77.08-.23.19-.8.24-1.04.9-.12 1.48-.56 1.72-.66.17-.06.15-.03.29-.16l.05-.05c.3-.28.5-.37.58-.76-.83.05-1.55.19-2.34.3.05-.29.11-.61.16-.91.36-.03 1.7-.34 1.99-.44.28-.1.17-.09.49-.34.22-.17-.16.01.33-.33.26-.18.13-.08.25-.34-1.27-.02-3.21.07-4.46.42zm1.46-.77c.04.57.87-.01 1.3-.21.35-.16.75-.15.71-.8-.02-.27-.31-.61-.71-.59-.39.02-1.35.87-1.3 1.61zm3.25-.14c.06.88-.1 1.6-.18 2.37l-.11 2.44c.68.11 1.05-.1 1.21-.74.1-.43.22-.81.3-1.24.09-.46.51-2.28.48-2.62-.03-.4-.82-.85-1.7-.22zm2.02-.07c.23.39-.31 2.83-.23 4.02l.05.79c.9-.05 1-.28 1.21-1.08.26-.96.45-2.05.65-3.08.11-.54.03-1.07-.81-1.02-.5.03-.6.17-.87.37zm-.58 5.57c.02.27-.04 1.12.06 1.39.05.14-.03.2.27.2.32 0 .77-.2.89-.44 1.01-1.94-.55-1.63-1.22-1.16z" style="fill:#ff0"/><path d="M19.53 23.62c-.01-.15-.01-.13.11-.31l.14-.23c.02.27-.04.29-.02.58l.07 1.05-.74.03c-.22.04-.43.04-.66.06l.5-.08c.05-.24.19-.26.24-.54-.15-.05-.11-.03-.28.02l-.01-.1c.23-.01.35-.04.46-.18.14-.18.02-.14-.1-.27l.28-.02zm-16.37.4c.27-.04.24-.12.44-.77.08-.27-.03-.36.65-.38 1.79-.05 1.13.07 1.87.19-.08.78-2.37 1.77-2.97 1.81.01-.3.16-.5.17-.8-.23 0-.1 0-.17-.04zm7.71-1.41c.53-.28 1.63-.39 2.18-.18-.11.59-1.13 1.1-1.63 1.42-.22.15-.42.23-.66.34.08-.17.46-1.08.38-1.27 0-.01-.24-.29-.27-.32zM8 22.52c.27-.02.54-.04.79-.07.22-.02.43-.03.43.23-.01.56.37.61.83.34-.05.28-.21.4-.3.7-.15.51-.33.87-.41 1.49-.03.2-.09.6-.1.81-.53.02-.15-.2-.58-.09-.21.05-.27.13-.39.17l-1.24.47c-.02-.25 0-.48.02-.73.06-.55.2-.46-.05-.54.12-.18.09-.04.18-.2.06-.11.01-.09.09-.23.1-.17.21-.19.38-.22.3-.06.73-.17 1.15-.2-.09-.59-.91-.47-1.27-.45.09-.52.4-.95.46-1.5zm1.51-.14c-.13-.35-.52-.64-.94-.63-.77.01-1.51.1-2.13.38-.91.41-.5-.12-1.9-.08-.28.01-.32-.02-.57.02-.3.04-.49.07-.75.12-.43.09-2.17.66-1.91 1.22.23.48.76-.03 1.07-.13-.28.57-.37.93-.52 1.65-.11.53-.23 1.36-.19 1.92.05.71.36.96.98.79 0 0 .02 0 .02-.01-.02-.32-.04-.65.02-.93.04-.2.11-.16.07-.38-.03-.2.03-.07.08-.29-.16-.02-.13-.02-.23-.09l.28-.02c-.01-.22.02-.23.09-.37.63-.04.82-.12 1.32-.2.36-.06.51-.15.83-.26.15-.05.45-.22.62-.28.09-.03.15-.13.16.09 0 .07-.39 1.12.22 1.85.16.19.5.41.76.48.48.12.77-.08 1.13-.29.03-.02.17-.12.18-.12.15-.07.21 0 .35-.23l-.34.02c.18-.28.4.02.74-.17l.3-.1c.05.66.72.65.79.5.08-.15.02-.29.06-.44.04-.18.09-.4.12-.59.32.19.55.61.86.83l.13.09c.61.37.66.29 1.16.22-.08-.23-.4-.28-.59-.44l-.33-.32c-.19-.2-.63-.75-.71-.98l1.69-.73c.14-.07.19-.15.28-.21l.42-.3c.15-.14-.08-.03.15-.12 0 .13-.7 2.03.4 2.73.61.39 1.7.46 2.23-.06l.45-.52c.3-.39.53-.71.75-1.16-.16-.06-.34-.06-.51-.13-.06.1-.09.15-.18.25-.46.58-1.01 1.39-1.78 1.6-.62-.37-.47-1.48-.34-2.07.1-.45.31-.81.52-1.21l.54-.79c.03-.04.05-.05.09-.08.14-.12.01-.07.2-.13-.01.3-.13.64-.1 1.01l.34.03c-.23.01-.18-.01-.33.07.2.63.51.71 1.22.66l-.07-.38.49-1.85c.02-.22-.16-.24-.34-.33-.58-.29-.35-.05-.7-.15-.63-.18-.98-.02-1.52.48-.24.22-.79.8-.85 1.09-.16-.1-.2-.4-.3-.58-.11-.2-.17-.39-.36-.51l-.14-.08c-.73-.42-1.78-.17-2.48.1-.41.15-.68.35-1.02.54zm7.36 4.25c.09.01.13.02.22.05.03.01.27.2.66-.01.21-.11.34-.54.48-.74.08-.11.04-.03.11-.16.16-.29.11-.28.57-.52.26-.13.56-.2.93-.22.05.67.07.86.27 1.46l.58-.03c0-.31-.06-.1-.06-.48l-.08-1.36c-.02-.51.03-1.27-.02-1.95l-.03-1.37c-.46-.09-.58-.6-1.18.27-.37.53-1.07 1.49-1.27 2.08l-.03.08-.45.85c-.22.51-.69 1.54-.7 2.05z" style="fill:#fff"/><path d="M8.36 22.97c.16-.01.54 0 .58-.16.03-.14-.14-.14-.31-.13-.63.02-.45.3-.27.28zM20 19.01c.03.5.03 1.14.61 1.38.5.2 1.98-.17 2.66-.32.43-.09.93-.17 1.34-.28l.77-.36.09-.07c.01-.01.04-.04.06-.05l.03-.03c.76-.82.62-1.78.71-2.93.02-.19.04-.51.04-.66l-2.52.45c-.4.1-.17-.01-.27.96-.06.56-.04.87-.48.89-.38.02-.22-.97-.19-1.25l.13-2.12c-.01-.28.03-.49.05-.7.04-.59-.02-.87.39-1.17.21.04.08.05.29.09.02.33.09.32.06.59-.03.27-.05.32-.03.62.19-.02 2.55-.47 2.77-.59-.06-.87.02-.48.04-1.01.02-.43.03-1.26-.17-1.66l-.21-.28c-.23-.19-.56-.24-.95-.16l-1.04.19c-.4.06-2.29.44-2.61.57-.69.27-1.04 1.01-1.15 1.73-.08.55-.04.66-.08 1.03l-.21 3.05c-.01.2 0 .38-.02.53-.02.21-.04.29-.04.51 0 .39-.07.63-.04 1.06zm9.37-4.25c-.02-.27.12-1.17.18-1.49l.24-1.44c.04.57.16 2.37.08 2.84-.28.02-.25.06-.5.08zM27.8 9.8l-.46 2.4c-.04.16-.09.46-.11.6l-.78 4.26c-.04.22-.1.41-.13.59l-.1.61-.24 1.24c.42-.03 1.09-.15 1.45-.24 1.64-.42 1.33.1 1.47-1.01l.16-1.06c.04-.28-.07-.19.12-.3 0 0 .37-.09.38-.09.34-.07.27-.14.33.83.03.44-.01.67.02 1.11l2.83-.54c-.1-1.53-.31-5.67-.53-7.03-.04-.22-.01-1.67-.15-2.15-.41.02-1.16.19-1.58.28-.2.04-.39.06-.54.1l-2.15.4zm-9.98 1.96-.2 3.65c-.22-.13-.23-.45-.29-.76l-.62-2.61-2.37.42c-.41.09-.35.06-.37.48-.02.51-.04 1.01-.08 1.52-.04.48-.04.99-.09 1.51-.03.3-.03.45-.04.76l-.28 4.53c-.01.09-.05.34-.05.36 0 .32.03.08.12.35.34-.03.68-.08.91-.29.58-.53.69-.6 1.44-.64.09-.22.08-.6.1-.86l.27-2.85c.02.33.12.64.19.98l.44 1.96c.1.45.18.63.21 1.02.19-.05.45-.09.63-.13l1.35-.27c.14-.03.52-.11.68-.13-.01-.19-.04-.44-.04-.62.01-.17.06-.35.06-.54l.14-2.37c.03-.35.06-.81.07-1.18.01-.26.01-.32.04-.56l.12-1.78c.02-.21-.03-.4-.01-.6l.1-1.15c.03-.22 0-.42-.01-.66l-1.8.35c-.29.08-.28.09-.64.11zm-6.65 1.34c-.13.3-.26 3.96-.32 4.74-.03.4-.12 2.2-.2 2.36-.06.13-.2.27-.38.28-.35.02-.24-.87-.21-1.12.02-.18.04-.3.05-.46.01-.76.28-4.04.26-4.49-.02-.39.08-.49.03-1.16l-2.66.52c-.06.07-.06.52-.06.64l-.41 7.24c.11-.06 1.97-.46 2.27.39.25-.04.99-.69 2.31-.77.41-.02.81.13 1.19.14.15-.25.26-.62.32-.93l.18-2.23c.03-.41.04-.75.06-1.14.01-.17.05-.4.06-.55l.15-2.85c.02-.41.07-.72.04-1.16l-2.66.53zm-6.41 4.91c-.03-.41-.19-.85-.29-1.27-.04-.16-.07-.35-.09-.46-.05-.18-.07-.24-.1-.4-.05-.28-.06-.21-.12-.43-.05-.18-.03-.32-.06-.5-.04-.18-.1-.22-.13-.42l-2.72.53-.54 9.41c1.02-.06 1.17-.13 1.14-.65-.29.02-.29.04-.5-.09-.02-.01-.13-.08-.13-.08-.53-.42.16-.9.48-1.14.01-.01.05-.04.06-.05.01-.01.02-.02.03-.02l.56-.23c1.23-.47.95-.06 1-.81.04-.53.11-1.1.08-1.62l.31 1.02c.06.26.17.69.22 1 1.23-.07 1.91.29 2.16.21.13-.04.27-.13.44-.18.79-.26.43.25.65-2.34.14-1.7.2-3.65.34-5.43.03-.34 0-.31-.79-.1-1.62.42-1.7-.04-1.75.83-.01.19.02.35 0 .55l-.11 1.64c-.04.53.02.91-.13 1.03zm1.02 5.16c-.93-.15-.55-.13-1.52-.07.06.85.14.67.64.58.09-.02.46-.09.56-.14l.16-.12.03-.03c.12-.13.1-.05.14-.23z" style="fill:red"/><path d="M5.88 5.99c.03-.03.05-.07.07-.1.02-.03.04-.07.07-.09.01-.03.04-.05.08-.06.02 0 .03 0 .04.01l.02.02c.04.03.06.07.05.11-.01.04-.02.08-.04.12 0 .02.01.03.02.03.03-.01.05-.01.06-.02.02-.02.05-.04.07-.08.04-.03.07-.06.09-.08.03-.02.06-.01.1.02.04.02.08.02.13.01.04-.01.08-.03.12-.04.17-.06.35-.12.52-.16.17-.05.35-.08.53-.11.13-.01.26-.03.39-.03.13-.01.24-.01.36 0 .21 0 .37.04.5.12.12.07.21.17.27.3.07.14.08.29.04.44-.04.15-.12.31-.22.46-.27.35-.61.67-1.02.95-.13.09-.27.18-.41.27-.14.09-.28.17-.41.26-.05.04-.08.07-.08.08.02 0 .04 0 .08.01h.13c.04 0 .09.01.13.02.33.03.57.13.72.31.13.12.18.28.15.48-.05.2-.15.39-.28.57-.13.18-.3.36-.48.54-.18.16-.37.33-.59.5-.14.12-.29.23-.43.35-.15.11-.29.23-.43.35-.05.04-.1.07-.14.11-.04.04-.09.07-.13.09-.04.03-.08.05-.11.08s-.08.05-.14.05c.04-.03.06-.06.08-.09.02-.02.03-.05.05-.08-.01 0 0-.01.02-.03h-.04c-.01 0-.02 0-.03.01-.28.09-.56.19-.84.3-.28.1-.55.22-.82.33-.11.05-.2.1-.28.15-.07.05-.11.12-.11.21 0 .02 0 .03-.01.03l-.03.03c-.01-.01-.01-.02-.02-.03 0-.01-.01-.02-.02-.03.01-.01.01-.03.01-.04l-.01-.05c-.02-.04-.06-.05-.12-.03-.05.02-.1.04-.14.06-.04.02-.08.03-.12.04-.22.09-.44.16-.66.23-.22.07-.45.12-.68.17-.04.01-.08.01-.11.02s-.07.01-.11.01H1.4c.04-.02.09-.04.15-.06.05-.02.11-.04.16-.06.24-.09.48-.18.7-.27.23-.1.45-.2.66-.31.07-.04.11-.06.12-.08.01-.02-.01-.05-.05-.08-.04-.04-.06-.08-.06-.12-.01-.04 0-.09.01-.13l.12-.64c.04-.21.09-.42.15-.64.1-.4.22-.79.35-1.18.13-.39.28-.78.46-1.18 0-.01 0-.03.01-.04.01-.02.02-.03.02-.05 0-.03-.01-.04-.02-.05-.02 0-.04.01-.06.02-.04.03-.07.05-.1.07a.55.55 0 0 0-.09.07c-.01.01-.03.01-.03.01-.01 0-.02 0-.02.01v-.02c0-.01 0-.02.01-.03.03-.03.06-.06.09-.08.03-.03.07-.06.1-.09.04-.03.07-.06.1-.09l.09-.09c.02 0 .03-.02.05-.05-.04.01-.07.02-.08.02a.56.56 0 0 0-.15.1c-.04.04-.1.06-.17.08-.02 0-.04.02-.06.05-.02.03-.04.05-.05.08-.03.04-.05.07-.07.09-.02.02-.06.03-.11.03-.06.01-.1 0-.11-.02-.01-.02-.03-.04-.05-.07a.35.35 0 0 1-.03-.28c.03-.09.1-.19.2-.29a7.672 7.672 0 0 1 1.09-.91c.06-.05.11-.09.15-.13.03-.04.07-.09.1-.14.03-.07.06-.13.09-.18l.09-.18c.06-.1.14-.12.24-.05.08.05.14.03.2-.04.03-.04.06-.08.08-.11.02-.03.05-.07.08-.11l.04-.04c.02-.01.04-.02.07-.03.02.01.03.02.05.03.02.01.03.02.03.04s.01.04.01.06V6a.21.21 0 0 0-.06.04c-.02.01-.03.03-.05.04-.01.01 0 .03.03.05.01-.01.03-.02.05-.03.02 0 .03-.01.03-.01L5.95 6zM35.66 4.4c-.14.04-.29.07-.43.1s-.29.06-.44.1c-.06.01-.11.03-.15.06-.04.03-.07.06-.11.09l-.51.54-.51.54c-.08.09-.17.17-.26.26-.09.08-.18.17-.27.26l-.24.17c-.01.01-.02.02-.03.02-.01 0-.02-.01-.03-.01-.02 0-.03-.01-.03-.04l.08-.15.45-.79s0-.02-.01-.05l-.05.04c-.12.14-.26.28-.41.43l-.18.18-.05.04c0-.01 0-.02-.01-.03v-.03l.17-.27.21-.31c.01-.01.02-.02.01-.03v-.03a.28.28 0 0 1-.08.05h-.04c0-.03.01-.07.05-.1.05-.07.09-.14.14-.21.05-.07.1-.14.15-.22.01-.01.02-.03.02-.04 0-.01-.02-.02-.06-.01-.02 0-.05 0-.07.01-.02.01-.05.01-.07 0-.04 0-.09 0-.14.01-.05.01-.09-.01-.1-.05-.02-.06-.05-.11-.08-.16s-.02-.11.05-.19c0-.02.01-.03.03-.04.12-.04.18-.1.17-.17 0-.01.01-.01.03-.02.02-.01.04-.02.06-.02.05-.01.1-.02.14-.02.04 0 .08-.01.13-.01s.1-.01.15-.02c.05-.01.1-.03.14-.07.01-.01.04-.02.07-.03.03-.01.06-.02.09-.02.06 0 .11-.02.15-.05.04-.03.08-.06.11-.1.17-.2.34-.41.51-.61.17-.2.33-.4.49-.61.24-.3.48-.59.73-.88.25-.29.52-.58.8-.87.06-.07.12-.14.17-.21.05-.07.12-.14.18-.22a.27.27 0 0 1 .11-.09.27.27 0 0 1 .15.01c.06 0 .09.03.08.08-.01.01 0 .02 0 .04.01.01.02.02.04.01.02 0 .03-.01.05-.01.02 0 .04-.01.05-.03.03-.04.05-.08.08-.12.03-.05.06-.1.08-.13.02-.04.05-.08.08-.13.07-.09.13-.14.19-.17s.15-.04.26-.03c.06 0 .11.01.14.04l.09.09c.01.04.01.06.02.06.14.07.22.15.24.25.03.1.02.21-.01.33-.05.2-.11.41-.17.61-.06.2-.12.4-.19.6-.06.15-.12.3-.19.44-.07.15-.13.3-.19.45-.04.08-.06.17-.08.26-.02.09-.04.17-.07.25-.02.05.01.07.08.06l.53-.1c.02 0 .03 0 .03.01.01.01.02.01.03.01-.01.01-.03.02-.04.03l-.39.18-.04.03h.03s.01.01.02 0l.13-.02h.03c.01 0 .03.01.04.01l-.07.03c-.04.01-.07.02-.1.03-.03.01-.06.02-.09.04l-.18.09c.02 0 .05-.01.09-.01.03 0 .07-.01.11-.03.09-.02.18-.04.28-.05.09-.02.18-.04.28-.06h.05c0 .02-.01.04-.04.05-.12.04-.24.08-.36.13l-.36.12c-.08.03-.14.06-.17.09a.4.4 0 0 0-.07.13L37 5.83l-.02.05c0 .01-.01.02-.02.03l-.01-.01v-.28c0-.09 0-.18.01-.28 0-.1.01-.18.02-.26l.03-.25c0-.01-.01-.02-.03-.04-.01.02-.02.03-.02.03a.53.53 0 0 0-.03.11c-.07.21-.15.43-.22.65-.07.22-.14.44-.2.66l-.03.11s-.01 0-.02.01c-.03.01-.05 0-.05-.01-.02-.04-.04-.08-.06-.13-.02-.05-.04-.09-.04-.13 0-.14-.01-.28-.02-.42-.01-.14-.02-.27-.02-.41l.01-.44c0-.01 0-.02-.01-.02 0 0-.01-.01-.01-.02 0 .01 0 .03-.02.05-.05.22-.1.43-.14.64l-.12.63c-.02.09-.04.18-.05.27-.01.09-.03.18-.05.28l.01.04c-.02-.02-.03-.03-.03-.04 0-.16.01-.31.01-.47 0-.16.01-.31.03-.47l.16-1.2v-.05c.01-.04-.02-.06-.08-.04l-.34.07zm.11-.6h.01c.05-.01.09-.02.13-.02.04-.01.08-.01.12-.02.07-.01.11-.03.13-.04a.13.13 0 0 0 .03-.09l.04-.2.12-.51.12-.51c.01-.01 0-.02 0-.03-.01-.01-.01-.02-.02-.03-.01.01-.02.01-.03.02-.01 0-.02.01-.03.03-.12.2-.25.39-.39.58-.14.19-.29.38-.44.57-.04.05-.08.09-.12.14-.04.04-.07.09-.08.14l.39-.03zm.17.18c-.03.01-.06.01-.09.02s-.06.02-.09.02c-.03.02-.05.03-.06.03.03.01.04.02.05.02.05-.01.11-.01.15-.02l.15-.03c.02 0 .03-.01.03-.02l.03-.03c-.02 0-.03-.01-.03-.01s-.01-.01-.03 0l-.12.02zM18.92 9.14c-.01-.24 0-.47.02-.71s.05-.47.08-.71l.06-.47c.02-.15.05-.31.07-.47.01 0 .01-.01 0-.01-.01-.01-.02-.01-.03-.01-.03.01-.05.01-.05.02l-.12.15c-.22.22-.45.44-.67.66-.22.22-.44.43-.65.64-.07.07-.14.14-.21.19-.07.05-.14.11-.21.17-.11.07-.22.1-.33.09-.02-.01-.05-.01-.08-.02s-.04-.03-.05-.05c-.02-.04-.04-.08-.07-.13-.02-.05-.05-.1-.08-.15-.01-.03-.02-.05-.02-.09 0-.03-.02-.06-.04-.08-.08-.13-.17-.26-.26-.39l-.27-.39c-.01 0-.01 0-.01-.01s0-.01-.01-.01c0 0-.01 0-.01-.01-.03.02-.05.03-.05.04-.01.04-.02.07-.03.1l-.03.09c-.08.24-.15.48-.22.72s-.14.48-.22.71c-.01.05-.02.09-.04.14-.02.05-.03.09-.04.14-.01.01-.01.02-.03.03-.01.01-.02.01-.03.02 0-.01-.01-.02-.02-.03-.01-.01-.01-.02 0-.03.02-.11.03-.23.04-.35.01-.12.03-.24.05-.35 0-.09.02-.18.04-.27.02-.09.04-.18.05-.28l-.01-.06c-.01.01-.03.04-.06.07-.02.04-.03.09-.04.13-.01.05-.02.09-.04.13-.13.34-.25.68-.37 1.01-.12.33-.25.67-.39 1.01-.01.02-.02.05-.03.07-.01.02-.02.05-.04.08 0 .01 0 .02-.01.03l-.03.03c0-.01 0-.02-.01-.03v-.03c0-.03.01-.05.01-.08 0-.02.01-.05.01-.08.06-.17.12-.33.16-.48.04-.16.1-.32.16-.49 0-.03.01-.06.02-.09s.01-.05.01-.07c.01-.02 0-.04 0-.05-.01-.01-.01-.02-.01-.03 0 0-.01.01-.02.04s-.03.06-.04.1c-.02.03-.03.07-.04.1-.07.16-.13.32-.19.47-.06.16-.13.32-.2.48 0 .02-.01.05-.02.07-.01.02-.02.04-.04.04-.04 0-.06-.02-.07-.04-.01-.02-.01-.05 0-.08v-.07c0-.02 0-.05-.01-.09 0-.02.01-.04.01-.06 0-.02-.02-.04-.07-.05a.127.127 0 0 1-.07-.09c0-.04 0-.08.01-.12.02-.11.03-.23.04-.35.01-.12.03-.23.04-.35.11-.59.24-1.18.37-1.77.14-.58.3-1.17.47-1.76.03-.1.05-.2.06-.3.02-.09.01-.2-.01-.3a.533.533 0 0 1-.02-.25c.02-.08.04-.17.07-.25.01-.06.06-.09.15-.11.09-.01.16-.01.22 0s.12.04.18.09c.07.06.17.12.3.18.03.02.05.03.06.02.01-.01.03-.03.04-.05.04-.05.08-.07.1-.07.03 0 .07.01.12.04.13.1.22.22.26.36.1.29.2.58.3.88.1.29.2.59.3.89 0 .03.01.05.02.06.02.05.05.04.07-.01.01 0 .02.02.04.06.02.04.04.08.07.13.02.05.04.09.06.13.02.04.03.05.04.05.2-.25.39-.5.58-.77.19-.26.38-.52.58-.79.2-.26.4-.52.61-.78.21-.25.42-.5.64-.73.06-.06.12-.13.18-.22.07-.09.13-.16.18-.22a.47.47 0 0 1 .12-.09.21.21 0 0 1 .13-.05c.09-.01.17-.03.23-.05.06-.02.12-.01.18.04.04.04.08.06.13.06.03.02.04.04.04.04-.01.05-.01.08.01.1.03.04.06.08.1.11.04.03.07.05.09.07.03.02.05.04.07.07.02.03.04.07.06.11v.06c0 .03-.01.06-.02.1-.01.03-.01.07-.02.1 0 .03 0 .06.01.07.05.08.05.16.01.24-.22.4-.41.8-.55 1.21-.15.41-.3.82-.45 1.24-.13.36-.25.73-.35 1.08-.1.36-.18.71-.24 1.07 0 .02-.01.04-.01.06 0 .01-.01.03-.01.05 0 .02-.01.03-.03.03 0-.01 0-.01-.01-.02 0 0-.01-.01-.01-.02v-.28c0-.01 0-.02-.01-.02 0 0-.01-.01-.01-.02-.01.01-.02.02-.03.05-.02.06-.03.12-.04.18-.01.06-.02.12-.03.17 0 .01 0 .03-.01.05l-.03.06c0-.02-.01-.04-.03-.06-.02-.02-.02-.03-.02-.04 0-.08.01-.17.01-.25.01-.08.01-.16.02-.24.02-.16.04-.33.07-.48.03-.16.05-.32.07-.48.01 0 .01-.01 0-.02s-.01-.02-.01-.03c-.01.01-.01.02-.01.03 0 .01-.01.02-.03.03-.01.01-.03.03-.03.06-.01.02-.02.05-.03.07-.07.21-.14.43-.21.65-.07.22-.14.44-.2.65v.05c0 .02-.01.03-.02.05-.01.01-.03.04-.06.07-.02-.02-.03-.04-.03-.05-.02-.06-.04-.12-.05-.18-.01-.06-.02-.12-.04-.18zm-2.33-2.62v.06c.03.1.05.2.07.29.02.09.04.18.07.27.01.04.02.07.03.1.01.03.01.07.02.1 0 .02.01.02.04.02.02 0 .03-.01.04-.03.01-.03.03-.06.04-.09.02-.03.02-.05.01-.07-.05-.11-.09-.21-.14-.32-.05-.1-.1-.21-.14-.32l-.02-.02-.02-.02zm.51.39c-.05-.11-.1-.21-.15-.32-.05-.11-.1-.22-.15-.32 0-.01-.01-.02-.03-.03-.01.01-.02.03-.01.03.03.08.05.16.08.23.03.08.05.15.08.22.01.04.03.08.04.13.01.04.03.09.04.13 0 .02.01.02.03.02.01-.01.01-.01.02-.01s.01-.01.01-.02c.03-.02.04-.04.04-.07zm14.12-4.05c.02.12.02.24 0 .34-.01.1-.04.2-.07.3-.13.42-.33.81-.61 1.19-.28.37-.65.73-1.1 1.06-.28.21-.56.42-.85.62-.29.2-.57.41-.86.61-.17.12-.33.23-.49.34-.16.11-.33.22-.5.33-.05.03-.1.06-.14.08-.04.02-.09.05-.14.07-.01.01-.03.01-.03.01h-.03c.01 0 .02-.02.04-.05l.12-.09.12-.09c.11-.09.21-.18.32-.26.11-.08.21-.17.31-.25.01-.01.02-.03.05-.04a.32.32 0 0 0 .06-.07c.01-.02.03-.03.04-.05-.02.01-.05.02-.07.03-.03.01-.05.02-.07.03-.03.02-.06.04-.1.07-.04.03-.07.05-.11.07-.08.04-.16.09-.24.13-.08.05-.17.09-.26.13-.01.01-.03.02-.06.03-.03.01-.06.01-.1.03.05-.04.08-.07.09-.11.07-.05.13-.1.18-.15.02 0 .03-.02.03-.04 0-.01-.01-.01-.03-.01-.02 0-.03.01-.05.01-.1.02-.17.05-.21.08-.04.03-.07.08-.09.15-.02.12-.05.23-.08.34-.03.11-.07.22-.1.34-.01.02-.01.03-.02.05-.01.01-.01.02-.02.04 0-.01-.01-.02-.02-.03-.01-.01-.01-.03-.01-.04l.03-.33c.01-.11.03-.22.04-.34.01-.02.01-.04.02-.06.01-.02-.01-.03-.05-.04-.05 0-.09.01-.13.02a.19.19 0 0 0-.11.07c-.01.04-.02.06-.03.07a.26.26 0 0 0-.03.11c0 .03-.04.06-.12.08-.02 0-.03.02-.05.05-.02.03-.03.06-.04.09-.05.11-.09.23-.14.35-.04.12-.09.23-.15.35-.01.02-.02.05-.04.08-.01.03-.02.06-.04.09-.01.01-.03.01-.06.02h-.02c-.01 0-.01-.01-.01-.02 0-.02-.01-.05-.01-.07 0-.03 0-.06.01-.09.02-.17.03-.35.05-.52.02-.17.05-.34.09-.51.1-.53.21-1.04.33-1.56.11-.51.23-1.03.34-1.55.01-.05.01-.09.01-.13 0-.04-.02-.08-.07-.11-.16-.14-.17-.32-.03-.54.04-.06.09-.12.14-.17.05-.06.11-.11.16-.17.09-.09.15-.18.16-.27.06-.17.11-.34.16-.51.05-.17.1-.34.14-.51.03-.03.04-.05.04-.07.02-.03.03-.07.04-.1.01-.04.04-.06.1-.07.06-.01.13-.01.19-.02.07-.01.12.01.17.06.02.01.03.03.05.04l.04.04c.01.01.02.02.02.04.01.02.02.03.04.02.07.02.11.05.13.1.02.04.04.09.06.13.01 0 .01.01.01.02s0 .02.01.03c.01.02.01.04 0 .07-.01.03.02.05.08.06.01-.03.03-.06.04-.08.02-.02.03-.05.04-.07.06-.09.12-.11.18-.05.04.03.07.05.09.05.02 0 .07-.01.13-.03.39-.13.8-.22 1.22-.26.45-.03.81.02 1.09.14.28.12.49.33.65.63.02.05.04.1.05.16.01.05.03.1.05.13zm-2.03-.04a5.162 5.162 0 0 0-1.31.49c-.06.04-.11.08-.15.12-.04.04-.07.09-.07.15-.15.43-.3.85-.44 1.27-.15.42-.29.84-.43 1.26-.03.1-.06.19-.09.28-.02.09-.05.18-.08.27.14-.04.27-.1.36-.17.1-.07.2-.14.32-.21.04-.02.07-.05.11-.08.04-.03.08-.07.11-.1.36-.35.7-.71 1.04-1.07.34-.36.67-.73 1-1.1.15-.17.26-.34.32-.51.06-.17.1-.35.12-.53.01-.07-.03-.11-.13-.12-.12.01-.23.01-.35.03l-.35.03zm.04-.38a.16.16 0 0 1-.08.03c.02.01.03.02.05.04.03.01.07.02.12.03.04.01.08.03.09.04.06.06.12.09.21.09.08.01.17.01.26.02.05 0 .08-.01.09-.02.01-.02.02-.03.03-.05.01-.05-.01-.08-.06-.1a.467.467 0 0 0-.17-.03.2.2 0 0 0-.09.02c-.02.01-.04 0-.06-.02-.04-.05-.09-.07-.16-.07s-.12.01-.17 0l-.06.01zm-.91 3.09c.01 0 .02-.01.02-.01.13-.1.26-.2.38-.3.12-.1.22-.22.29-.34.01-.01.01-.02.01-.03l-.03.01c-.12.11-.23.22-.34.32-.11.1-.22.21-.34.31-.01.01-.01.02-.01.03h.02zm2.21-2.34a.134.134 0 0 1-.07-.06c-.01.01-.03.02-.04.03-.01.01-.02.01-.01.02-.04.08-.08.15-.12.22-.03.07-.07.14-.11.22-.01.02-.01.04 0 .06 0 .02.01.04.01.06.01-.01.03-.03.04-.05.01-.02.02-.04.05-.05.03-.05.06-.09.09-.14l.09-.15c.01-.02.03-.04.04-.07.01-.03.02-.06.04-.09zm-1.62-.52c-.02 0-.04.01-.08.02s-.07.02-.1.03c-.04.02-.07.03-.11.05-.03.01-.07.03-.11.05.04-.01.08-.01.11-.01h.1c.1-.01.2-.03.3-.05.1-.02.21-.03.33-.05.01 0 .01 0 .02-.01 0 0 .01-.01.03-.01-.02-.01-.03-.01-.03-.02s-.01-.01-.01-.01a.497.497 0 0 0-.21-.01c-.07.01-.15.02-.24.04zm1.67.18c-.01.01-.02.02-.03.02 0 .01-.01.01-.02.02 0 .02-.01.04 0 .06 0 .02 0 .03.01.04l.03.03c0-.01.01-.02.02-.03.01-.02.02-.04.02-.05 0-.02 0-.03.02-.05l-.04-.04zm-4.46 4.1c.01-.01.01-.02.01-.03.01-.03.02-.06.02-.09s.01-.06.01-.09l-.01-.01c-.02.03-.03.06-.04.09 0 .03-.01.06-.02.09-.01 0 0 .01.03.04zm4.68.34c0-.08.01-.18.02-.27.01-.1.03-.2.06-.3.19-1.22.48-2.43.88-3.64.1-.31.21-.61.34-.92.13-.3.27-.61.44-.9.02-.04.04-.07.06-.1l.06-.09c.04-.07.11-.12.23-.14.12-.02.2-.01.26.05.04.03.08.06.11.1.03.04.06.07.08.1.02.03.04.05.06.05.02 0 .06-.02.11-.05.06-.04.11-.04.17 0 .01.02.02.03.04.03.02.01.03.02.05.02.04.03.07.02.08-.02-.01 0 0-.01.03-.02.03-.03.05-.07.08-.1s.07-.06.13-.07c.06-.01.12.02.17.08.05.06.06.12.05.17-.02.04-.04.09-.07.13-.03.05-.05.09-.09.14-.22.41-.45.81-.68 1.21-.23.4-.44.8-.62 1.22-.25.53-.48 1.06-.68 1.58-.2.52-.36 1.05-.47 1.59-.01.01-.02.03-.03.05-.01.02-.01.04-.03.05v.01s-.01 0 0 .01v.01c-.01-.01-.02-.01-.03-.02-.01 0-.01 0-.01-.01 0-.04-.01-.07 0-.11 0-.03.01-.07.01-.12.05-.36.12-.73.22-1.08.1-.36.22-.72.34-1.07.02-.06.03-.11.05-.16.02-.05.03-.1.04-.14v-.02c0-.01 0-.02.01-.03a.32.32 0 0 0-.06.07c-.03.06-.06.12-.08.17-.02.05-.04.11-.05.16-.1.23-.19.46-.27.69-.08.23-.16.46-.26.69-.01.02-.03.05-.04.07-.01.02-.02.05-.02.08h-.04c-.01 0-.01-.01-.01-.01 0-.03.01-.06.01-.09v-.07c.06-.17.11-.35.15-.52.04-.17.09-.35.13-.52.01-.01.01-.02 0-.04-.01-.01-.01-.03-.01-.04-.03.03-.04.06-.04.09-.08.21-.16.42-.23.62s-.14.41-.22.63c-.05.14-.09.28-.13.43-.04.15-.09.3-.13.45-.01.03-.04.05-.07.07 0-.01-.01-.01-.01-.02l-.03-.03-.01-.1zM4.69 10.18c-.03.01-.06.03-.08.05-.1.26-.2.51-.31.77-.1.25-.21.51-.31.77-.01.01-.02.03-.01.04.01.02.01.03.01.04.02-.01.03-.01.06-.02.02 0 .04-.01.06-.02.23-.16.47-.31.7-.46.24-.15.47-.3.69-.46.19-.13.36-.27.52-.4.16-.14.31-.29.45-.44.05-.07.11-.13.16-.2s.1-.13.16-.21c.04-.06.06-.11.05-.17-.01-.06-.05-.1-.11-.13a.36.36 0 0 0-.1-.07c-.04-.02-.07-.04-.1-.06a.401.401 0 0 0-.15-.03c-.05 0-.11.02-.16.06-.1.06-.2.11-.29.16-.09.05-.18.11-.27.17-.14.11-.28.21-.41.32-.13.11-.25.22-.34.34-.07.09-.13.09-.17.03-.01-.02-.02-.04-.02-.05-.01-.01-.01-.02-.01-.04.01-.03.02-.06.04-.09.01-.03.03-.05.05-.06.31-.27.66-.5 1.06-.7.04-.02.07-.03.11-.05a.37.37 0 0 0 .11-.05c.02-.01.04-.02.06-.05h-.08c-.03.01-.06.01-.09.02l-.1.03c-.15.06-.3.12-.44.2-.14.08-.27.17-.39.28-.01.02-.03.04-.05.06-.02.02-.05.04-.08.06-.1.04-.17.09-.19.15a.4.4 0 0 0-.02.19zm2.64-3.74c-.17.07-.33.13-.5.19-.17.06-.34.12-.51.17-.17.06-.3.17-.37.31-.1.22-.2.45-.31.68-.11.23-.21.45-.32.68 0 .01 0 .02.01.02 0 0 .01.02.01.03.05-.01.09-.03.11-.05.4-.22.8-.45 1.19-.69.39-.24.76-.49 1.13-.77.06-.04.11-.09.16-.14.05-.05.11-.1.16-.14.05-.04.07-.08.07-.11s-.01-.06-.04-.1a.51.51 0 0 0-.26-.14.867.867 0 0 0-.38.03l-.16.03zm-4.05 5.73c.01.04.02.06.04.06l.07-.01c.06-.03.11-.06.14-.1.03-.04.05-.08.04-.12.01-.05.02-.09.03-.13.01-.04.02-.08.03-.13.01-.07.02-.14.04-.2.02-.07.03-.14.04-.2-.08.07-.13.13-.17.2-.03.07-.07.14-.1.2-.04.07-.07.15-.09.22-.02.07-.05.15-.08.22zM7.02 8.8c0 .02 0 .03-.01.04-.01.01-.01.02 0 .02.04.04.07.07.09.1.02.03.05.06.08.1.04.05.1.05.18 0 .07-.05.09-.09.04-.12-.05-.02-.1-.04-.16-.06-.06-.02-.11-.04-.16-.06 0 .01-.02 0-.06-.01zm.99.47c0-.01-.01-.03-.01-.05a.21.21 0 0 0-.04-.06c-.04.02-.06.04-.05.06.01.02.02.04 0 .07-.01.02-.01.03-.01.05v.14c0 .03 0 .05-.01.08.06-.02.09-.05.08-.08 0-.03 0-.06.01-.09.01-.02.02-.06.01-.11zM6.67 6.49c-.04.01-.09.03-.15.05-.06.02-.13.04-.19.08-.03.01-.06.02-.09.04s-.04.04-.04.05c.02.04.05.05.08.03.03-.02.05-.03.07-.04l.24-.09c.08-.03.15-.06.22-.11.01 0 .01-.01.01-.03H6.8s-.04.01-.12.02zm.85 3.08-.01-.01-.01-.01c-.02 0-.03.01-.03.02-.01.03-.03.06-.05.08-.02.03-.04.05-.05.08 0 .01.01.01.04 0h.01c.03-.03.05-.06.07-.08.02-.02.03-.05.04-.08zM5.26 8.8a.12.12 0 0 1-.05.05c-.02.01-.03.03-.05.04-.01.01-.02.03-.01.04.01.01.01.02.01.03.01-.01.02-.01.03-.02 0 0 .01-.01.03-.02l.04-.04c.01-.01.02-.03.04-.04 0-.01-.01-.03-.03-.04zm3.51.71c-.03-.26-.03-.52.01-.79s.12-.53.22-.8c.29-.67.69-1.32 1.2-1.96.05-.06.11-.12.18-.18.06-.06.13-.12.19-.17.09-.08.2-.13.33-.16.09-.01.15-.01.2.02.05.02.09.05.12.09.04.04.06.08.08.11l.06.12c.02.04.04.06.06.06.02 0 .06-.02.12-.06.26-.16.53-.27.82-.34.28-.08.58-.1.88-.06.18.03.34.1.48.22.15.13.27.28.36.44.09.16.12.33.1.51-.05.61-.24 1.21-.56 1.78-.32.57-.74 1.13-1.26 1.68-.11.12-.23.24-.36.35-.13.11-.27.22-.43.31-.19.13-.39.22-.6.27-.21.06-.42.08-.63.08-.21 0-.4-.04-.58-.1a1.24 1.24 0 0 1-.69-.56c-.06-.11-.11-.22-.17-.34-.03-.08-.06-.17-.08-.26a2.68 2.68 0 0 0-.07-.27zm1.26-.52c-.05.04-.07.07-.06.1.01.03.03.06.05.09l-.04.04c-.01.01-.02.03-.02.04 0 .03.01.05.02.08s.02.05.03.08c-.01.01-.03.01-.04.02-.01 0-.02.01-.02.02l.01.1c0-.01 0-.04.01-.09l.03-.06c.01-.07.02-.14.01-.23 0-.03.01-.07 0-.1 0-.03 0-.07.02-.1 0-.01 0-.02.01-.04s.01-.03.02-.04c0-.01-.01-.01-.04-.03v.02l.01.09zm-.2.07c-.04.08-.06.16-.06.23.01.07.02.14.06.21 0 .01 0 .02.01.02 0 0 .01.01.01.02.01-.01.01-.02.01-.02s0-.01.01-.02c0-.07-.01-.14-.02-.21l-.03-.21c.02-.01.03-.03.03-.06l-.01-.04c-.01.02-.02.04-.02.05l.01.05zm.21.58c.01.05.02.1.03.14.01.04.05.08.1.12.08.03.17.06.26.07.09.01.18 0 .28-.03.2-.06.39-.13.56-.22.18-.09.31-.22.4-.39.01-.01.01-.02.01-.02s.01 0 .02-.01c.25-.33.47-.65.67-.98.2-.32.4-.66.6-.99.06-.09.11-.18.16-.28.05-.09.09-.19.13-.29.02-.07.04-.13.05-.2.01-.07.02-.14.04-.22 0-.05-.01-.11-.05-.17a.16.16 0 0 0-.11-.04c-.06 0-.09.01-.1.04-.01.03-.03.05-.05.05-.02 0-.05.01-.07.02-.16.06-.32.13-.5.22-.17.09-.33.18-.47.28-.14.1-.25.2-.33.31-.08.1-.12.2-.1.29 0 .03-.01.05-.05.05-.03.01-.07 0-.09-.02l-.03-.03c-.01-.01-.02-.02-.02-.03a.22.22 0 0 1 0-.16c.02-.05.05-.1.08-.15.11-.13.24-.25.39-.35.15-.1.31-.2.49-.29a.3.3 0 0 1 .1-.04c.03-.01.07-.02.11-.04l.03-.03c0-.01.01-.02.02-.04h-.04c-.01 0-.03 0-.04.01-.34.12-.63.28-.88.48-.04.04-.08.07-.12.11-.03.03-.07.07-.1.12-.19.25-.36.5-.51.76-.16.26-.29.52-.4.79-.02.05-.04.09-.05.13-.02.04-.04.08-.05.12l-.02.02c0 .01-.01.01-.02.02-.01-.01-.02-.02-.02-.05.04-.17.09-.34.15-.51.06-.17.13-.34.22-.51.02-.06.04-.12.06-.19-.05.02-.08.05-.1.08l-.03.09c-.14.25-.25.5-.33.74-.08.25-.14.49-.2.74-.01.07-.03.15-.04.22-.01.07-.02.15-.02.22zm1.78-.33c.02-.02.04-.03.04-.03l.35-.35c.11-.11.21-.23.31-.35.17-.2.33-.4.46-.61.14-.21.26-.42.36-.65.01-.02.02-.04.02-.05 0-.01 0-.03.02-.06 0-.01-.01-.01-.01-.01-.01 0-.01-.01-.01-.02v.02c-.02.02-.03.03-.03.05-.21.35-.43.69-.68 1.01-.25.32-.52.64-.81.96-.01.01-.01.02-.01.03 0 .01-.01.02-.02.03.01 0 .01.01.01.02z" style="fill:#000;fill-rule:nonzero"/></svg>