<svg xmlns="http://www.w3.org/2000/svg" xml:space="preserve" width="77.592" height="77.592" style="shape-rendering:geometricPrecision;text-rendering:geometricPrecision;image-rendering:optimizeQuality;fill-rule:evenodd;clip-rule:evenodd" viewBox="0 0 153.89 153.89"><path d="M52.08 89.43v.32c0 .91 2.73 1.75 3.51 2.34 1.13.85 1.82 3.35 2.49 3.35h.16c.51 0 .95-.69.95-1.26v-.63c0-.57-1.21-1.29-1.42-2.21-1.08-.02-2.7-2.37-5.21-2.37-.36 0-.47.11-.47.47zM76.94 0C34.45 0 0 34.46 0 76.94c0 42.49 34.46 76.94 76.94 76.94 42.49 0 76.94-34.46 76.94-76.94C153.88 34.45 119.42 0 76.94 0zm0 6.16c39.09 0 70.79 31.7 70.79 70.79s-31.7 70.79-70.79 70.79-70.79-31.7-70.79-70.79S37.85 6.16 76.94 6.16zM24.38 106.6c1.1-.66 1.9-1.1 2.4-1.32 1.09-.48 2.29-.19 3.25.57 1.41 1.12 2.8 3.66 2.18 5.55-.19.56-.49 1.01-.9 1.35-.89.72-5.53 3.5-6.6 3.97-1.09.47-2.28.19-3.25-.57-1.41-1.12-2.8-3.66-2.18-5.55.19-.56.49-1.01.9-1.34.8-.64 3-1.93 4.2-2.65zm-1.62 5.48c-.51.31-.82.54-.92.69-.2.3.08.77.44.82.17.03.54-.13 1.11-.47l5.13-3.08c.64-.38 1.01-.65 1.13-.8.23-.31-.12-.92-.55-.84-.21.04-.64.26-1.29.65l-5.05 3.03zm-7.77-7.74-1.46-3.61c-.64-1.58-1.35-3.59.07-4.65.58-.43 1.78-.88 2.63-1.22 1.29-.52 2.1-.65 2.97.28.66.71 1.03 1.75 1.43 2.75l4.79-1.93 1.45 3.58-11.88 4.8zm.58-4.41 3.02-1.22c-.46-1.33-.89-.97-2.51-.31-.82.33-.88.64-.52 1.53zM9.9 86.63l12.31-4.19.62 3.91-2.25.55.22 1.37 2.31-.13.63 3.95-12.97.06-.87-5.52zm8.46.73c-1.4.42-3.14.9-5.22 1.42 2.48 0 4.29-.04 5.43-.12l-.21-1.31zM9.3 75.22l2.56-.04.04 2.29 10.25-.18.07 3.86-10.25.18.04 2.29-2.56.04-.15-8.44zm.13-2.37c.19-1.79.5-5.2.85-6.39.19-.63.55-1.12 1.09-1.47.54-.35 1.35-.47 2.44-.36.99.1 1.64.32 1.95.64.31.32.46.9.44 1.75.24-.74.52-1.23.82-1.47.3-.23.57-.37.8-.41.54-.09 4.38.36 5.26.45l-.37 3.57-4.24-.44c-.68-.07-1.11-.05-1.29.06-.17.11-.29.43-.35.95l5.75.6-.4 3.85-12.75-1.34zm2.58-3.62 2.84.3c.13-1.28-.2-1.2-1.73-1.36-.81-.09-1.02.2-1.11 1.07zm1.3-15.71 12.84 2.08-1.29 3.74-2.24-.57-.45 1.31 2.1.97-1.3 3.78-11.48-6.03 1.82-5.29zm7.13 4.62c-1.44-.29-3.2-.69-5.28-1.19 2.19 1.17 3.8 1.98 4.85 2.44l.43-1.25zm-8.58-6.26c.41.44.65.89.72 1.34.14.98-.14 1.58-.76 2.37-.3.39-.85 1.06-.97 1.41-.15.43-.02.87.38 1.32l-1.26 1.1c-1.18-1.53-.99-2.62 0-3.93.28-.38.79-1.03.89-1.32.17-.48.05-.88-.35-1.19l1.34-1.1zm14.12-7.2c1.14.6 1.93 1.06 2.37 1.37.97.69 1.34 1.86 1.19 3.08-.23 1.78-1.69 4.29-3.63 4.72-.58.13-1.12.1-1.62-.08-1.08-.39-5.85-2.93-6.8-3.61-.97-.69-1.34-1.86-1.18-3.08.23-1.79 1.69-4.29 3.63-4.72.58-.13 1.12-.1 1.62.08.96.35 3.2 1.58 4.44 2.23zm-5.53 1.43c-.53-.28-.88-.43-1.07-.44-.36-.02-.62.46-.48.8.07.16.39.39.98.7l5.28 2.81c.66.35 1.08.53 1.27.55.38.04.72-.58.43-.9-.15-.16-.55-.42-1.22-.77l-5.2-2.77zm11.76-20.5 9.22 8.91-2.35 2.43-6.22-6.01 5.29 6.98-1.67 1.72-7.07-4.85 6.08 5.87-2.35 2.43-9.22-8.9 3.48-3.6c1.45.95 3.48 2.39 5 3.44l-3.69-4.79 3.5-3.63zm8.93-6.32 9 9.39-3.28 2.21-1.45-1.8-1.15.78 1.1 2.04-3.32 2.24-5.54-11.73 4.63-3.13zm2.91 7.98c-.98-1.09-2.14-2.47-3.5-4.13 1.05 2.25 1.84 3.87 2.4 4.87l1.1-.74zm9.58-14.17 5.01 11.8-3.12 1.32-4.13-4.58L53.67 27l-2.97 1.26-5.01-11.8 2.97-1.26 4.25 4.47-2.26-5.31 2.97-1.26zm3.87-1.44c1.81-.39 5.3-1.19 6.58-1.17 1.12.01 2.07.42 2.49 1.37.17.39.38 1.17.63 2.36l.93 4.39c.42 2 .67 3.23-1.19 4.01-.43.18-1.1.37-2 .56l-4.77 1.01-2.67-12.54zM61.74 13l1.75 8.25c.54-.12.86-.28.95-.49.09-.22.04-.74-.14-1.58l-1.04-4.87c-.27-1.28-.3-1.57-1.52-1.3zm17.19 3.45c.02 1.29 0 2.2-.06 2.74-.13 1.18-.98 2.07-2.12 2.53-1.67.66-4.57.6-5.89-.89-.39-.44-.63-.93-.72-1.45-.18-1.14-.27-6.54-.14-7.7.13-1.18.98-2.07 2.12-2.53 1.68-.66 4.57-.6 5.89.89.39.44.63.93.71 1.45.16 1.01.17 3.56.2 4.96zm-3.94-4.14c-.01-.6-.05-.98-.14-1.14-.16-.32-.71-.32-.93-.03-.11.13-.15.53-.14 1.19l.1 5.98c.01.75.06 1.2.13 1.38.15.35.85.36 1-.06.07-.2.1-.68.08-1.44l-.1-5.89zm15.75-2.26-1.04 8.5c-.12.96-.24 1.64-.36 2.02-.12.38-.39.76-.79 1.12-.95.85-2.31.99-3.64.83-1.38-.17-2.98-.74-3.68-1.83-.28-.45-.43-.89-.43-1.35-.01-.46.08-1.4.26-2.84l.92-7.53 3.83.47-1.17 9.54c-.07.56-.08.92-.03 1.08.11.35.72.4.9.09.09-.16.17-.56.25-1.19l1.15-9.38 3.84.47zm13.9 4.53-2.53 12.76-3.69-1.42.65-2.22-1.3-.5-1.04 2.07-3.74-1.43 6.43-11.26 5.22 2zm-4.86 6.96c.34-1.43.8-3.17 1.38-5.23-1.24 2.15-2.11 3.73-2.61 4.76l1.23.47zm17.76 6.2-3.2-2.16c.35-.52 1.25-1.8 1.33-2.17.08-.38-.47-.78-.82-.6-.16.08-.42.4-.79.94l-3.44 5.1c-.32.48-.5.82-.53 1.02-.06.42.53.81.92.58.42-.24 1.29-1.64 1.65-2.17l-.65-.44 1.09-1.62 3.75 2.53-3.85 5.7-2.02-1.36.22-.96c-2.16.89-4.38-1.44-4.45-3.28-.02-.5.06-.95.25-1.36.19-.41.53-.98 1.02-1.71l2.13-3.16c.68-1.01 1.24-1.71 1.68-2.08.44-.38 1.09-.55 1.95-.53 1.75.05 3.93 1.57 4.72 3.07.4.75.53 1.42.41 2-.18.85-.73 1.69-1.37 2.64zm5.08-1.52 4.71 4.4-1.75 1.88-1.89-1.76-1.66 1.78 1.76 1.65-1.66 1.78-1.76-1.64-1.92 2.06 2.07 1.93-1.75 1.88-4.9-4.57 8.74-9.38zm12.33 14.27-10.37 7.53-1.99-2.74 3.53-5.05-4.71 3.42-1.9-2.61 10.37-7.53 1.9 2.61-3.4 5.15 4.67-3.39 1.9 2.61zm5.27 10.16-2.29 1.16-1.04-2.04-9.14 4.66-1.75-3.44 9.14-4.66-1.04-2.04 2.29-1.16 3.83 7.52zm.78 2.32 2.2 6.06-2.41.88-.88-2.42-2.28.83.83 2.27-2.29.83-.83-2.27-2.65.96.97 2.66-2.41.88-2.29-6.3 12.05-4.38zm4.44 21.77-2.55.22-.2-2.28-10.21.89-.34-3.85 10.21-.89-.2-2.28 2.56-.22.74 8.41zm-8.11 11.14c-1.29-.09-2.19-.19-2.72-.29-1.17-.24-1.98-1.15-2.33-2.33-.52-1.72-.2-4.6 1.4-5.79.47-.35.98-.55 1.51-.59 1.15-.08 6.54.3 7.68.53 1.16.24 1.98 1.15 2.33 2.33.52 1.73.2 4.6-1.4 5.79-.47.35-.98.55-1.51.58-1.02.07-3.57-.14-4.96-.24zm4.47-3.56c.6.04.98.03 1.15-.04.33-.13.38-.68.11-.93-.12-.12-.52-.2-1.18-.25l-5.97-.42c-.74-.05-1.21-.05-1.38.01-.37.12-.42.82-.03 1 .2.09.67.16 1.42.21l5.87.41zm-5.3 15.4 1.07-3.71 2.15.62c.62.18 1.03.25 1.2.21.37-.07.6-.85.27-1.12-.17-.14-.56-.29-1.18-.47l-5.72-1.64c-.6-.17-1-.24-1.21-.21-.42.06-.64.82-.32 1.1.34.29 2.15.76 2.79.94l-1.07 3.71c-1.3-.37-2.44-.73-3.1-1.23-.47-.36-.81-.96-1-1.79-.4-1.69.35-4.14 1.44-5.36.54-.61 1.15-.94 1.81-1 .67-.06 1.61.09 2.81.44l3.6 1.03c.89.25 1.54.48 1.97.68 1 .47 1.56 1.57 1.66 2.73.13 1.58-.56 3.7-1.59 4.79-.57.61-1.16.94-1.77 1.01-1.04.12-2.54-.37-3.81-.73zm1.49 10.5-12.61-3.19 1.61-3.62 2.18.76.57-1.27-2.01-1.15 1.63-3.66 10.91 7.01-2.27 5.11zm-6.7-5.22c1.41.41 3.13.96 5.15 1.65-2.08-1.36-3.62-2.31-4.62-2.86l-.54 1.21zm-2.16 18.38-11.57-5.95 2.38-3.16 1.96 1.23.84-1.11-1.7-1.57 2.41-3.2 9.05 9.28-3.36 4.46zm-5.35-6.59c1.28.72 2.83 1.64 4.65 2.77-1.72-1.79-3.01-3.06-3.85-3.82l-.8 1.06zm-7.84 18.54-8.07-9.96 2.63-2.13 5.23 3.26-3.67-4.53 2.51-2.03 8.07 9.96-2.51 2.03-5.32-3.12 3.63 4.49-2.51 2.03zm-14.96-.3c-.59-1.15-.97-1.98-1.15-2.48-.4-1.12-.03-2.3.8-3.2 1.21-1.33 3.84-2.54 5.68-1.79.55.22.97.56 1.28.99.66.94 3.11 5.76 3.5 6.86.4 1.12.03 2.3-.8 3.2-1.22 1.33-3.84 2.54-5.68 1.79-.55-.22-.97-.56-1.28-.99-.59-.84-1.72-3.13-2.35-4.37zm5.35 2c.27.53.48.85.62.97.28.22.78-.02.85-.38.04-.17-.1-.55-.4-1.14l-2.72-5.33c-.34-.66-.58-1.06-.72-1.18-.29-.25-.92.06-.87.49.03.21.21.65.55 1.33l2.67 5.25zm-8.7 6.92-4.17-12.12 3.66-1.26 4.17 12.12-3.66 1.26zm-10.35 2.73-.58-2.5 2.24-.52-2.31-9.99 3.77-.87 2.31 9.99 2.23-.51.58 2.5-8.23 1.9zm-2.64.04-6.42.56-.22-2.56 2.57-.22-.21-2.42-2.4.21-.21-2.43 2.4-.21-.25-2.81-2.83.25-.22-2.56 6.68-.58 1.12 12.77zm-22.44-1.24.49-2.52 2.25.44 1.96-10.07 3.79.74-1.96 10.07 2.25.44-.49 2.52-8.29-1.61zm-8.63-10.54c.44-1.21.78-2.06 1.03-2.54.55-1.05 1.66-1.59 2.88-1.6 1.8-.02 4.48 1.08 5.18 2.94.21.55.26 1.09.15 1.61-.24 1.12-2.09 6.2-2.63 7.24-.55 1.05-1.65 1.59-2.88 1.6-1.8.02-4.48-1.08-5.18-2.94-.21-.55-.26-1.09-.14-1.61.21-1 1.12-3.39 1.6-4.7zm2.19 5.28c-.2.56-.3.93-.28 1.12.03.36.55.55.86.36.15-.09.34-.44.56-1.06l2.05-5.62c.25-.7.38-1.15.37-1.33-.01-.39-.67-.64-.95-.31-.14.17-.34.6-.59 1.31l-2.01 5.53zm-8.27.2c-1.59-.95-4.68-2.74-5.61-3.63-.81-.77-1.22-1.72-.88-2.7.14-.4.52-1.12 1.15-2.16l2.31-3.85c1.05-1.75 1.72-2.82 3.61-2.12.44.16 1.05.48 1.84.96l4.18 2.51-6.6 10.99zm-2.19-3.87 4.34-7.23c-.48-.29-.82-.38-1.03-.28-.21.1-.53.52-.97 1.25l-2.57 4.27c-.67 1.12-.85 1.35.22 1.99zm-13.74-7.12 6.74-11.13 2.99 2.6-1.37 1.86 1.05.91 1.69-1.59 3.02 2.63-9.89 8.38-4.22-3.67zm6.95-4.88c-.8 1.22-1.83 2.71-3.08 4.45 1.9-1.59 3.26-2.79 4.08-3.58l-1-.87zm-4.44-7.07 1.91-1.78 1.91 2.05-1.91 1.78-1.91-2.05zm42.84-90.87c28.9 0 52.34 23.44 52.34 52.34 0 28.9-23.44 52.34-52.34 52.34-28.9 0-52.34-23.44-52.34-52.34 0-28.9 23.44-52.34 52.34-52.34zm0 6.01c25.58 0 46.33 20.75 46.33 46.33s-20.75 46.33-46.33 46.33-46.33-20.75-46.33-46.33 20.75-46.33 46.33-46.33zM47.62 90.69c-.41 1.54-2.21 1.38-2.21 4.9l.32.32c0-1.44.45-3.37 1.68-3.49l.22.02h.32v.95c0 .35-.12.35-.3.63l.14 1.11c-.82-.38-.95 1.3-.95 2.21.6.16.93.32.99 1.02l1.22.56.04.75 2.49-.91v-.63c-.24.27-.34.63-.79.63-.62 0-2.68-4.93-2.68-5.84v-1.11c1.42.12 2.43 2.09 3 3.16l.51.19.6-.67c-.54-.81-1.71-2.2-1.74-3.48 1.82 0 3.28 1.9 3.79 1.9h.63v1.11c0 .83.79 1.37.79 2.37 0 .66-.67 1.13-1.26 1.26l-.71-2.09-.55.03-1.58 1.42-.19.62 1.11.04.98 1.08h.79l3.47-1.42c.98-.86 2.68-.9 2.68-2.84v-1.11c0-1.2-2.05-2.71-2.05-3.32 0-1.21 2.81-2.78 3.77-3.48 3.4-1.99 6.72-4.21 9.95-6.68l.17-.62-.94-.04c-2.08 1.66-4.51 4.15-7.89 5.6-.54 0-1.89-2.64-1.89-3.16 0-.59-.01-.42.32-.63l1.74-.95 2.37-1.42 1.42-.63c.34-.3 5.5-2.69 6-2.69h.16c.42 0 .47.23.63.47l.63.32 1.42-.32 3-.79.95-1.42.16-.47 1.89-1.42 1.58-.47 5.05-1.74 1.74-.32v-.33l-1.57.21-.04-.21 3.67-.77v-.32h-1.26l-1.89.32-1.11.47-5.21 1.74-2.19.56-.12-.16.59-.56-.18-.63-3.32.16v-.63l-.18-.31-.77-.01c-.76 0-.95.46-1.58.63l-.63 1.26c0 1.92-.21 2.96-1.74 3.32l-1.74.95-4.74 2.37-7.58 3.95c-.21.29-.96.79-1.42.79-.54 0-.59-.59-.63-1.11l-.32-1.11-.47-1.74-.32-.63c-1.09-1.57-1.53-1.93-1.74-4.42l-.32-2.21-.16-1.42-.95-8.06v-.95c.86.09.65 1.3 3.78.94 1.24-.15 3.32-.04 4.43-.3.4-.26 2.46-.44 3.76-1.29.72-.47 2.31-2.02 3.03-2.02l1.23.01.19.46v.47l.47.63-.32 1.11c-.07.04-5.5 1.42-5.53 1.42-.47 0-.42-.32-1.11-.32-.68 0-.49.25-1.26.32-2.84 2.47-1.41 2.07-2.84 5.05l-.47 1.9c0 2.42.08 3.17.65 5.03.22.72.43 1.36.83 2.01.39.64 1.2 1.08 1.2 1.48 0 .03-.37.49-.47.95v.32l1.4.54c.6-1.16 3.45-2.79 4.92-2.91l2.05-1.26 1.42-1.42v-.79l-.32-.47c-.66-.17-1.46-.77-.95-1.58l.63-1.74.32-.47 1.42-1.58 3.63-3.95.95-.63.17-.31 1.72-.64v-.63c0-.55-.27-.29-.63-.79h-.32l-.63-.16-2.05-.19c-.14.02-1.13.64-1.47.78-.57.23-.93.36-1.69.36-.38 0-.46-.26-.79-.47l.32-1.26 5.37-.95 3-1.26.63-1.11c0-3.99-3.31-1.52-4.89-2.53H74l-.47-.32-1.42-.32-1.89.16-1.58.32-7.1 1.89-6.13 1.68c-.36.1-3.61.91-3.82 1-.46.32-1.12.47-1.89.47h-.63c-.38 0-.58-.29-.79-.47l-.47-.16h-.32l-.63.47c-.06.78-.32.58-.32 1.26v.63c0 3.59 2.11 7.64 3 11.21l1.58 4.9.32 1.26.61 3.18.3.46.2 1.73.64 1.79.35-.03.29-2.41.42.34.14 1.74.15.13-4.52 3.18-1.74 1.42c-1.29 1.12-6.79 5.31-6.79 6.95 0 .57.32.46.63.32.77-1.16 4.06-5.09 5.53-5.21zm22.58 30.17 1.74-.79 5.53-3.79 1.42-.47 2.53-1.11 1.42-1.11 2.21-1.42 1.1-.34.16-.77.16-.32.16-.47-.32-.79c-.37-.25-1.58-1.38-1.58-1.9v-.63c0-.43.07-.44.16-.79.8.02 1.07.34 1.26.95.38 1.19.35.61 1.26 1.1.59.32 1.85 2.06 2.68 2.06h.47c.43 0 .44-.08.79-.16l.47-1.74-1.74-2.21-1.26-1.11c-.58-.15-2.4-1.6-2.8-2.09-.62-.74-1.01-2.5-1.46-3.44-.98-.26-1.34-1.8-1.26-2.69h-.32v.32c-.92-.25-1.17-1.29-1.58-2.05l-.32-.63-.31-.18-.09.36-.23-.5-.32-.47-.6-.36-.03-.43-.31-.18.17-.6-.62.36-.03-.68-.63-.95-.63-.47-.47-.47-.65-.93-.61-.01-.63-.47-1.42-1.26-.35-.28-.59.15-.01-.65-.16-.16h-.47l.15.48c-.9 0-1.07.22-1.25-.48l-1.42.2.47-1.62-.95.32-1.58.79-1.89 1.26-.32.32-.79 1.11c.04 1.75 1.23 1.32 1.26 2.69l.51.01-.19.78c.64.96 2.19.72 3.47 1.58v.63l1.89 1.26.69.55.89.39 1.42 1.42c1.8 1.2 3.71 6.16 5.05 6.16h.47c.69 0 .95-.47 1.74-.47.19 0 .47.33.47.63 0 .87-.99 1.34-1.58 1.74l-.47.32-.79.79-1.26 1.26-.47.32-3.47 3.63-.47.63-.63.79-1.42 1.58-.48.31-.31 2.53c-.4.75-2.26 2.31-1.74 3 .13.09.39.32.47.32.48 0 .54-.27.63-.63zM57.1 88.64l-1.42-.32-1.42-.19-1.27.04c-1.72 0-2.31 1.48-4.1 1.89h-.47l-.11-.16 5.8-4.11 1.26-.63h2.68l.95-.32 1.65-1.09.24.62.63 1.74c-1.61 1.34-2.34 2.32-4.42 2.53zm32.52-1.11v.64l2.37-.17 1.89-.16 1.89-.47.47-.16 1.58-.47 2.53-1.42.95-.79.63-.63.95-1.58.32-.79.16-1.42c0-1.96-.02-1.26-1.58-1.26.07-.82 1.17-.96 1.74-1.26l.19-.94-.51-.64-2.21-.16c-.74-.07-2.25.32-3.47.32l-5.53.63-1.89.32h-5.05l-.63-.16h-2.53l-.63.32h-.47l-1.58.32-.32-.16-.16.16-.32.63-3 1.26-.79.32c-1.18 1.02-1.89.27-1.89 2.69l.32.47c.21.14.85.65 1.1.62l.95.01.58-.3.37.77.47-.16-.01-.65 1.59-.61.79-.16 1.42-.16 1.26-.16c-.34.32-.65.22 0 .47l.63-.32 3.95-.63 4.8.2.25-.52h.47c.13.49.31.63.95.63l3.9.1-.74.69-1.74.79-4.58 2.53-.79.32-.63.47.16.32.47.16.95.16zM62.31 46.78l-.53 1.09.84-.15.16.64c.49.13.47.03.47.79 0 .24-.65 1.15-.78 1.76l.63-.18v.32c1.03 0 .7-.02.95.32H65l1.26-3 .95-1.42.16-.32h.47c.11.19.16.17.16.47v.94l.95-.15c.02.92.73.94 1.42 1.11l.32.16.95.16.79.32h.47l3 .16.95.47.47.95.63 1.58.95.16.32-.63h.47c.3 0 1.27.89 1.42 1.11l1.1 2.21.95 1.11c.31.16.47.32.95.32h.16c1.12 0 1.99-1.36 2.37-2.21.92-2.03.24-1.33 2.21-2.37l1.1-1.11c.2-.3.82-1.11 1.26-1.11h.32c.72 0 .36 3.13.94 4.27.27.52 2.24 2.84 2.53 2.84.44 0 .38-.12.47-.47h.47l.01.35.46-.19V54.7l-.48-.15v-.32h.32c0-1.47 0-2.71-.15-3.96-.2-1.69.21-2.67.3-3.78v-.79c-.64-.05-1.26-.79-1.26-1.26v-1.11c0-.59.63-.95 1.26-.95 1.39 0 1.16 3.13 1.26 4.42l.32 1.58.16.95.64.79.47-1.58c.68.18.47.23.47 1.11l.32 2.37.79-.32.32-.32c.46-.88.63-1.5.63-2.84l.02-.79-.18-3.79c-1.6-.85-1.38-1.69-2.17-2.72-.07-.1-2.64-1.79-2.93-1.96-.93-.53-2.36-.87-3.41-1.48-1-.58-1.9-1.42-3.48-1.42l.94.81c.84-.02 1.21-.02 1.27.77l-2.37-.95v.32l.51.65-4.92.85c-.66.03-1.2-.67-1.43-1.02l-1.1-.63-3.32-.79c-.35-.08-.36-.16-.79-.16h-1.26c-3.45 0-5 2.23-7.44 3.52l2.65-2.26-.82-.47c-2.88 1.53-2.68 3.05-4.49 4.26l-.47.47-4.26 5.05zm11.68-7.26c.24-.9 2.13-1.42 3.32-1.42h1.11c.43 0 .43.07.79.16v.47c-.78.18-3.21.79-3.95.79H74zM68.46 46c.72.06.63.01.63 1.26-.51-.18-.61-.59-.63-1.26z" style="fill:#000"/></svg>