<svg xmlns="http://www.w3.org/2000/svg" xml:space="preserve" width="96" height="72" style="shape-rendering:geometricPrecision;text-rendering:geometricPrecision;image-rendering:optimizeQuality;fill-rule:evenodd;clip-rule:evenodd" viewBox="0 0 47.54 35.66"><path d="M40.37 6.61c.47-.1.69-.22.81-.58.37-1.08-.64-1.14-1.05-2.49.43.03.61.38.84.62.24.24.39.56.8.65.11-.17.16-.68.16-.96 0-.75-.5-1.25-.93-1.69-.45-.47-.86-.92-1.51-1.24-3.52-1.76-4.2-.43-4.44-.43-.92 0-1.24-.71-3.39.82l-1.05.82c-.48.36-.87.84-1.19 1.31-.31.45-.5 1.09-.86 1.5-.98-.4-1.14-.36-2.58-.36-.22-.32-.35-.8-.86-.9.02.17.1.45.16.6.03.06.1.19.14.25.09.17.05-.09.09.23-.47.1-.89.46-1.25.48 0-.41-.19-.48-.7-.48-1.73 0-2.44-.2-2.66.42a.076.076 0 0 1-.02-.04.076.076 0 0 1-.02-.04c-.01-.01-.04-.07-.05-.08-.05-.08 0-.04-.08-.12-.09-.08-.13-.13-.29-.13h-2.5c-.53 0-.62.87-.62 1.2h-.23c-.06-.57-.67-1.08-1.34-1.25-.77-.2-1.51-.16-2.28.03-.31.07-.53.16-.76.26-.6.27-.94.68-1.17.73.16-.53.29-1.42-.01-1.98-.28-.52-.85-.78-1.53-.93l-3.53-.15c-.32.03-.51.05-.95.05-.14.16-.14.09-.25.29-.22.42-.73 2.64-.98 3.34-.45 1.27-1.06 3.74-1.49 5.16l-.43 1.47c-.1.26-.77 1.82-.05 1.82h2.11c1.27 0 2.23-.12 3.52-.12 0 .69-.44 1.97-.64 2.63l-1.1 3.78c-.07.22-.1.43-.18.64-.34.96-.54 2.29-.8 3.17l-1.48.25c-.98.15-2.04.23-2.94.5-.95.28-1.06 1.12-.26 1.17.54.04 3.79-.66 4.69-.77l1.95-.24c0 .44-.14.78-.27 1.18-.07.22-.13.37-.19.57-.07.25-.11.24-.18.52l-1.03 3.36c-.12.43-.18.71-.3 1.15-.05.17-.13.34-.18.58-.06.27-.08.31-.15.54-.19.56-.27 1.11-.27 1.66 0 .22.65.82 1.11-.71l1.15-3.68c.29.16.11.34.31.6.39.52.98.22 1.41 0 1.19.61 1.4-.22 2.03-.78.11.36-.29 1.8.47 1.8.82 0 .63-.64 1.08-.91.11-.07.25-.08.39-.12 1.29-.41 2.32-2.76 1.77-3.75-.51-.92-1.52-.02-1.76.03.01-.51.29-1.11.45-1.58.28-.8.2-1.24.87-1.25-.06.21-.16.2-.16.42 0 1 2.05-.03 2.49-.19l.67-.26c.29-.11.92-.39 1.13-.39.41 0 .4.1.32.42l-2.1 6.63c-.09.35-.71 1.67.29 1.67.37 0 .97-1.79 1.15-2.24.06-.16.09-.27.16-.42.09-.21.1-.11.1-.41h.16c.07.22.03.42.39.42.96 0 4.17-2.4 4.88-3.04l2.65-2.29c.19-.21.32-.36.49-.59.54-.71.6-.32 1.1-.71.63-.5.47-1.13 1.73-1.13.61 0 .48.15 1.21-.27.33-.19.55-.54.98-.57 0 .43.03.23-.16.48-.04.05-.02.01-.08.12-.01.02-.03.07-.04.09-.04.09-.04.1-.08.18-.18.33-.38.35-.67.57-.62.46-.47.37-.54.31-.12-.09-.03-.01-.06-.17-.21-1.08-1.04-.71-1.5-.02-.3.46-.43 1.11-.53 1.63-.1.49-.49 1.05-.54 1.57-.96-.17-.84.18-1.25.18-.41 0-1.19-.78-2.22 1.06-.31.54-.58 1.29-.58 1.89 0 .32.2 1.02.62 1.02.44 0 .71-.12 1.02-.24l.24.12c.81.39 1.6-.57 1.72-.96.27.15.12.13.08.48-.18 1.83.95 1.52 1.17.9.31.06.39.18.7.18.77 0 1.07-.56 1.56-.84.45.09.01.19.62.3.4-.21 1.05-1.11 1.32-1.45.14-.18.2-.36.47-.42.08.24.17.2.23.54.09.52.44 1.16 1.29.75.88-.43.97-1.34 1.45-1.59.1.15.14.28.23.42-.31.36-.8.71-1.02 1.14-.22.42-.19 1.2.55 1.2.7 0 1.09-.79 1.46-1.1.13-.11.29-.1.51-.15.51-.12.82-.46 1.06-.81.1-.15.18-.24.27-.39.08-.13.13-.25.2-.39.12-.24.27-.61.31-.84.39-1.87.22-1.34.8-1.31.06-.51.22-1.27.78-1.56.37.07.62.23.86.42l.65.53c.32.34-.8 1.73-.8 2.54 0 .25.46.46.74.34.19-.08.23-.15.32-.3l.23-.36c.3-.51.49-.99.79-1.5l.81-1.54c.18-.35.68-1.16.78-1.5h.16c0 .38.05.55.08.84h-.47c.02.18.2.5.29.68.13.25.16.4.25.65.45 1.26-.15 1.02.71 1.02.38 0 .23.82.94.96 0-.68.03-1.14.19-1.78.13-.56.17-.27-.03-.81-.19-.51-.24-1.12-.35-1.66-.08-.43.09-.96.11-1.35.03-.42-.22-.97-.14-1.42.04-.21.06-.35.06-.65-.18.02-.15-.17-.16.21-.55-.04-.39-.58-.39-.9h.39c-.01-.44-.52-1.11-.7-1.5-.56-1.18-.6-1.34-.2-2.44.24-.66.43-.46.43-.69 0-.44-.23-.76-.23-1.2.37.02.15.08.39 0-.01-.29-.16-.43-.16-.66 0-.16.05-.06.08-.3-.37-.08-.18-.02-.25-.29-.17-.63-.52-1.27-.88-1.85-.22-.34-.32-.75.03-1.06l.48-.53c.14-.17.78-.62.78-.78 0-.7-1.31.74-1.46.86-1.04.82-.54.57-.96 1.02-.17.18-.08.09-.17.05-.33-.12.19.17-.14-.12 0 .39-.07.46-.13.74-.16.68-.42 1.2-.7 1.87-.13.32-.66 1.2-.58.34.04-.46.19-1.02.31-1.4.17-.57.41-1.83.81-2.27.24-.26.39-.46.75-.62.83-.38.64-.09.93-.85.09-.23.26-.3.34-.52-.14-.16-.04-.12-.31-.18.17-.5.95-.23 1.02-.84-.65 0-.97.47-1.17-.12-.61.04-.26.42-.82.37-.23-.02-.32-.17-.31.08 0 .11.11.29.12.45-1.14-.2-.66-1.81-1.41-1.56-.27.09-.14.23-.47.3 0-.41.06-.7.47-.78 0-.29-.02-.64-.39-.72 0 .75-.17.68-.38 1.21-.42 1.02-.26 1.43.09 2.39.11.29.28.83.29 1.22-.49-.1-.66-.54-.82-.93l-.51-1.11c-.52.03-.7.56-.7-.3zm1.09 24.05c.93 0 1.06-1.51.06-1.6-1.06-.09-1.41 1.6-.06 1.6zm-12.97-10.1c0-.55.08-.86.08-1.38v-1.09c.03-.28-.05-.13.11-.28.17.07.24-.05.28.64.02.33.04.5.09.83.06.37.16 1.23-.56 1.27zm16.33-4.27c0 .38-.01.54.08.84h.16c0-.49-.19-.71-.08-1.08.41.01.45.08.53.31.3.85.23.37-.12.9-.15.23-.06.24-.13.5-.08.3-.32.57-.48.84-.49.81-.26.32-.59.75-.19.25-.37.45-.85.48.04-.34.58-.56.62-.96h-.16c-.05.18-.12.26-.26.4-.19.19-.19.16-.44.26.05-.5.65-.98.7-1.44-.17.09-.25.17-.38.31-.06.07-.09.12-.15.18l-.17.17c0-.34.56-1.61.94-1.8.09.3.35.67.39 1.02.06-.03.16-.03.16-.12 0-.57-.27-1-.09-1.33.08-.14.11-.19.32-.23zm.39 4.39c.37.19.73.58.78 1.02-.49-.01-.5-.12-.65-.4-.15-.27-.21-.36-.13-.62zm-2.66.19c.15.18.03.27.01.48-.37-.02-.39-.16-.39-.42 0-.25.26-.15.31-.13.36.22-.18-.24.08.07zm.9 1.23c.27.15.31.27.59.33 0 .49-.35.74-.39 1.14h-.16c-.18-.6-.78-.89-.78-1.74.33.02.49.14.74.28zm-.11 2.01-.38 1.03c-.1.18.02.12-.24.18-.03-.28-.13-.28-.16-.6-.02-.29-.04-.37-.07-.61-.07-.46-.24-.7-.24-1.2.45.18.68.5.91.87.16.25.19.18.19.34z" style="fill:#282829"/><path d="M38.03 6.49c.63 0 .66.17.54.65-.04.18-.19.22-.28.39-.14.28.07.25-.42.34v.36c.95.35.94.57.93 1.33 0 .24.03.12-.07.29-.4-.23-.12-.39-.33-.77-.15-.26-.3-.43-.68-.5-.16.26.05.23-.31.3-.05-.16.03-.07-.16-.12v-.48c-.21-.04-.23-.05-.39-.12 0-.18.04-.25-.06-.38-.11-.14-.13-.08-.28-.01-1.14.51-1.31.01-1.85-.03 0 .78-.53 1.69.29 2.3.25.18.45.32.49.65-.56-.04-1.02-.51-1.2-.88-.39-.78.17-1.07.02-1.46-.12-.31-.39.22-1 .11v-.78c-.61.13.04.24-1.33.24-.83.96.56.54.78.54.69 0-.14.82-.21 1.04-.07.24-.04.55 0 .79.07.37.08.73-.03 1.11-.67-.14-.73-1.19-.86-1.62-.05-.18-.14-.47-.16-.66h-.23v.78c0 .33.01.52-.24.66 0-.51.02-1.3.15-1.69.04-.13.07-.18.12-.33.02-.06.04-.13.06-.19.06-.15 0 0 .09-.17.1-.21.2-.55.2-.81-.05-.02-.14-.04-.17-.05-.26-.1-.18-.13-.46-.19-.4.59-.44 1.38-.67 2.01-.36.96-.85 1.15-1.04 1.78.13.05.14.06.23.12.2-.1.4-.21.47-.42.43.24-.01.96.7.96.27 0 .61-.44.47.04-.1.32-.07.53-.07.92.33.06.21.11.62.12v.36c-.59 0-.84.14-.86.66-.55-.04-.42-.27-.86-.36 0 1.27 1.05.69 2.56.86.22.02.52.1.72.17.14.05.01.01.15.06.79.32.63.73.63 1.38h-.16c-.04-.14-.06-.14-.08-.3-.36 0-.57.08-.87.17-.23.07.12.04-.3.07 0 .33-.08.36-.08.66-1.61 0-1.05.21-1.76-.45-.15-.14-.37-.15-.59-.15-.11.98-.1.83.42 1.72.25.43.48.76.74 1.18.47.78 1.07 1.49 1.34 2.4.39-.08.46-.34.72-.52.23-.16.68-.28.68-.56 0-.52-.47-.5-.23-1.26.32.07.32.25.43.51.11.25.29.46.35.63h.62c.17-.25.16-.39.55-.48.54-.13.63-.19.63-.66 0-.27-.78-.39-.78-1.32 0-.16.11-.23.23-.3.22.12.33.58.39.78.48 0 .42.02.52.32.54 1.51-.39 1.68-.1 2.06.16.22.47.28.77.32.66.08.59.02.98.33.26.2.42.44.88.47.21-.31.16-.39.16-.84a3.7 3.7 0 0 1 .39-1.75c.04-.08.04-.09.08-.18.21-.43.47-.81.62-1.26.29-.86.78-1.78.78-2.47 0-.16-.04-.17-.08-.3-.74-.05-1.13-.14-1.55.49-.56.84-.78.65-1.42.53v-.36c-.1-.01-1.49-.36-2.09.13l-.38.37c-.08.09-.03.01-.09.11s-.07.13-.1.23l-.32-.96c-.03-.3-.21-.67.06-.93.58-.56 1.72-.43 2.69-.64.27-.06.28-.04.6-.08 1.29-.15 1.1-.39 1.32-1.15.11-.41.11-.51.11-1-.84.05-.51.04-.48-.55.01-.2-.06-.2-.06-.48 0-.17.39-.57.39-1.2 0-.47-.62-.47-.62-.96 0-.33.16-.33.16-.66 0-.79-.08-1.56-.34-2.32-.22-.64-.54-1.84-1.15-2.18 0 .91.91 1.63.62 2.59-1.02-.21-.54-2.4-1.48-2.89 0 1.09.42 1.83.64 2.82l.22.97zm-8.05 5.41c0 .29.55.2.55.06s-.03-.07-.08-.24c-.27 0-.47-.04-.47.18zm-1.02-.3h.16c.17-.23.08-.35-.17-.53-.18-.13-.13-.12-.46-.13.02.2.26.66.47.66zm4.84 10.52v.18c.28.19.2.18.55.18.3 0 .23-.17.23-.54-.3-.16-.26-.18-.62-.18-.08.12-.16.18-.16.36zm2.97-14.79c.4.17 1.03-.03 1.33-.18v-.36c-.3.02-.52.1-.77.19-.15.05-.03.01-.16.06-.55.19-.36.03-.4.29zm4.14 22.61c0 .46.94.56.94-.18 0-.42-.94-.42-.94.18zm-3.52-8.18c-.11.37-.11.29 0 .66 1.57.28 1.46-.32.87-.55-.39-.16-.54-.21-.87-.11zm-2.58-.6c0 .36 1.17.45 1.17-.12 0-.23-.33-.29-.53-.37-.46-.18-.16-.32-.64-.35 0 .18.03.3.04.44.02.23-.04.13-.04.4zM29.42 5.71l.58-.88c.26-.78.33-.39.57-.95.1-.24.23-.55.1-.76-.44.23-.63.79-.94 1.26-.34.53-.95 1-.31 1.32zm6.02 16.06c-.31 0-.86-.25-.61.21.12.22.34.45.68.45.2 0 1.05-.15 1.22-.2.44-.14.6-.64.03-.64-.51 0-.91.18-1.33.18zm-1.8 1.02c0 .13.17.45.24.54.32.45.77.62.95.77.22.19.18.24.46.43 1.01-.18.46-1.23-.09-1.61-.26-.18-.36-.09-.75-.14-.39-.05-.18-.17-.79-.17v.18zm4.3.12c-.48 0-1.92-.3-1.41 1.08.1.28.19.39.47.54.33-.17.17-.22.64-.29.76-.12.1-.12.53-.44.11-.08.16-.05.35-.15.44-.24.71-1.05.36-1.05-.43 0-.58.3-.94.3zM42 28.32c0 .11 0 .01.08.12.41-.08.66-.9.94-1.38l1.2-2.2c.15-.29.27-.47.41-.77.12-.26.93-1.42.11-1.42-.56 0-1.29 2.19-1.51 2.69-.16.36-1.23 2.65-1.23 2.96zM13.02 12.51l2.34.12.42-1c.07-.2.08-.34.15-.54.06-.17.12-.38.13-.56-3.35 0-2.2-.32-2.91 1.43-.08.19-.13.34-.14.56zm3.36 20.38c.39-.08.37-.48.55-.96l2.02-5.06c.23-.56.84-1.63.35-2.06-.55-.48-.69.45-.86 1l-1.82 5.88c-.08.23-.47.99-.24 1.2zm16.8-30.37c0 .36.22.59.23.96-.13-.07-.39-.32-.39 0 0 .61.39.26.39 1.56-.51-.26-.13-.56-.62-.66 0 .71.19.62.21.97.03.59-.36.31-.36 1.14.87 0 .2-.36.78-.48 0 .53.04.63-.48.78-.4.11-.81.16-.85.55.78 0 .34-.08 1.03-.23.47-.1.69-.24.69-.67.65.01.56.24 1.49.3.43.03.45.05.82.1.2.03.16.07.37-.01.45-.16-.04-.31-.05-.31-.02-.01-.09-.03-.11-.04-.14-.06-.02 0-.15-.07-.08-.04-.02-.14-.5-.15-.56-.02-.86-.06-1.41-.06-.22-.25-.23-.11-.23-.54.29-.06.1-.06.39-.12 0-1.13-.23-.85-.56-1.67-.33-.82-.03-1.51-.61-1.63-.03.24-.08.14-.08.3zM13.34 8.41c0-.31.31-1.8.86-1.8.47 0 .21.54.15.83-.26 1.16-.2.97-1.01.97zM9.59 12.5c2.9 0 2.49.26 2.79-.86l.49-1.73h3.44c0-.87 1.7-3.89-.45-4.76-.53-.22-.99-.17-1.66-.17-1.96 0-2.96 1.68-3.39 2.93-.14.39-.24.76-.35 1.12-.24.79-.86 2.85-.88 3.48zm14.53 17.74c-.25-.37-.05-.78.14-1.22.09-.21.16-.37.29-.56.15-.21.29-.31.59-.33.08.72-.24 1.95-1.02 2.1zm9.61-.78c0-.31-.11.06-.01-.25.1-.35.31-.34.53-.55l.66-.76c0 .53-.2.99-.52 1.41l-.12.15c-.01.01-.05.06-.06.07-.14.12.08.12-.47.12v-.18zm-4.61-.36c.02-.18.05-.23.14-.37l.2-.33c.14-.23.29-.37.36-.62.25.14.18.14.1.37-.09.27-.15.57-.39.78-.14.12-.19.13-.41.17zm-3.67.96c0-.41.38-1.1.59-1.41.25-.38.58-.86 1.21-.87l-.38.73c-.15.31-.23.45-.4.71-.03.05-1.02 1.51-1.02.84zm11.72-.78c0-.3.58-.77.9-1.29.46-.74.34.2-.06.86-.23.38-.34.65-.77.67-.11-.16-.08.07-.08-.24zm-9.69-1.92c-.32-.06-.32-.24-.62-.24-.32 0-.67.4-.94.54-.12-1.08-1.62-.21-2.05 1.19-.12.39-.64 1.76.33 1.76.12 0 .37-.14.45-.19.18-.12.19-.15.25-.35.36.2.07.3.55.54.61-.11 1.01-.7 1.28-1.12l.83-1.52c.12.41-.31 2.16-.31 2.77 0 .45.05.34.08.6.28 0 .15.03.32-.05.03-.01.17-.17.2-.21.09-.13.22-.38.26-.52h.16c.13.44.09.54.55.54.97 0 1.98-1.7 2.27-1.86 0 .53-.23.22-.23 1.26.27-.06.19-.03.35-.21.09-.09.17-.2.24-.3.3-.46 1.13-1.47 1.6-1.71 0 .64-.07.6.39.84-.1.17-.07.37-.01.55.1.35.13.24.33.47.91-.16 1.57-1.3 1.76-1.95.06-.22 0-.21.11-.39.23.07.39.58.49.76.18.32.29.48.29.92-.63.13-1.74 1.76-.82 1.65.42-.05 1.13-.81 1.29-1.35.51.09.85.47 1.7-.98 1.25-2.14.17-3-.92-1.73-.36.42-.78 1.25-.78 1.8-.32-.07-.22-.13-.31-.42-.56-1.74.24-1.17.24-1.62v-.48c-.56 0-.77 0-.95.41-.06.14-.05.04-.06.25-.19-.1-.35-.36-.55-.36-.23 0-.29.07-.5.1-.47.06-.48-.19-1.01.12-.56.33-.95.92-1.36 1.36-.13.13-.14.14-.25.29-.04.06-.06.08-.11.15l-.12.15c.02-.65 1.95-3.37 1.17-3.37-.75 0-1.95 1.89-1.95 2.47h.23l.19-.34c.1-.17.15-.21.28-.32-.03.27-.38.76-.55 1.02-.39.59-.93 1.35-1.47 1.87-.07.07-1.03.91-1.03.35l.08-.96h.39c1.24 0 2.09-3.01.86-3.01-.63 0-1.08.81-1.24 1.21-.38.93-.54 2.31-1.18 2.88 0-.31.05-.7.12-.99.09-.33.14-.62.24-.96l1.22-4.05c.06-.16.64-1.22.13-1.22-.31 0-.42.09-.54.25-.32.42-.74 2.06-.91 2.66-.08.29-.1.28-.2.51-.14.32-.2.33-.23.55zM7.72 31.09c-.01-.36-.07-.2.03-.64.06-.25.11-.39.19-.58.16-.36.31-.79.79-.89.05.06.16.14.16.18 0 .51-.33 1.91-1.17 1.92zm4.53-.24c.02-.23.24-.52.37-.73l.72-1.07c.12.44-.37 1.67-1.09 1.8zm-3.12.06c0-.33.42-1.14.6-1.4.31-.46.6-.87 1.2-.88-.04.33.02.02-.13.32-.01.02-.03.07-.04.09l-.83 1.41c-.08.12-.8 1.05-.8.47zM.38 26.22v.18c1.13 0 1.72-.26 2.71-.44l1.38-.2c1.12-.16 2.18-.38 3.34-.38-.09.14-.14.37-.2.57-.3.93-.64 2.16-.99 3.03-.5 1.25-1 3.64-1.44 4.97-.1.3-.33 1.06-.18 1.3.35-.2.38-.76.5-1.18.26-.87.61-1.69.82-2.55.27-1.09 2.25-6.09 2.27-6.25.72-.13 2.98-.41 3.67-.42-.01.33-.16.58-.22.85-.08.35-.17.56-.24.9-.12.55-.46 1.08-.63 1.62-.31-.06-.32-.18-.62-.24-.39.08-.55.38-.86.54-.46-.67-.81-.66-1.45.08-.6.69-1.11 1.69-.86 2.54.05.19.18.26.36.38.57-.1.64-.44 1.02-.54.11.17.1.29.23.48 1.02 0 1.54-1.21 1.85-1.82l.41-.82c.19.63-.68 2.58-.16 3.43.52-.11.72-1.05 1.04-1.03.59.02.76-.11 1.14-.59.07-.09.11-.17.18-.28.45-.78.99-1.7.45-2.48-.82 0-.84.09-1.18.47-.99 1.11-.67 1.8-1.07 2.67-.12.27-.03.32-.33.47 0-.63.18-1.21.32-1.8l1.22-3.99c.1-.33.19-.85.53-.98.11-.04 2.93-.39 3.17-.39-.19.2 0 .05-.33.17-.62.21-1.33.43-1.87.73-.39.22-.29.34.21.22.93-.21 2.78-1.03 3.86-1.37.26-.08.55-.17.84-.25.51-.13 1.18-.24 1.75-.4 1.19-.34 2.35-.78 3.72-.66.68.06 1.21.24 1.08.87-.14.72-.72 1.28-1.24 1.82L22 27.67c-.2.15-.35.27-.55.42l-.73.52c-.07.05-.09.06-.17.11-.12.08-.17.12-.28.21-.24.19-.39.25-.63.42-.33.24-1.11.57-1.15.92.67-.01 1.36-.55 1.84-.87 1.11-.72 2.08-1.52 3.1-2.3l1.48-1.21c.1-.1.18-.22.29-.32.43-.41.92-.85 1.27-1.31.46-.63 1.01-1.59-.12-2.02-.76-.28-2.53-.02-3.37.17-.23.05-.39.09-.65.1-.09-.3-.19-.31-.54-.24-1.13.22-2.11.6-3.21.84l-6.9 1.31c-.94.15-1.87.21-2.79.38 0-.39.53-1.35.72-1.67.26-.46.72-1.23.07-1.57-.46.07-.56.63-.71.9-.37.7-.62 1.52-.91 2.24-.13.33-.57.3-1.44.4l-2.38.34c-.35.04-.53.08-.85.13-.58.1-1.01.18-1.56.3-.41.09-.75.09-1.1.24-.23.1-.06.09-.35.15zM8.43 5.53c0 .42-.35 1.48-.45 1.94l-.97 3.28c-.04.13-.07.29-.12.45-.07.22-.23.73-.34.88-.1.14-.6.52-.8.36-.18-.14 2-6.9 2.05-7.39.67 0 .62.05.62.48zm-4.69 8.96c1.01 0 2.26.02 3.19-.13.76-.12 1-.35 1.44-.75.19-.17.31-.37.45-.56l1.36-3.71c.34-1.11 1.23-3.87 1.23-4.71 0-.2-.12-.58-.21-.74-.6-1.09-3.78-.82-5.34-.82-.32 0-.36.4-.4.59-.06.27-.15.46-.23.78L3.67 9.85c-.08.24-.14.53-.24.78L2.4 14.18c-.04.17-.11.19.18.24.29.05.83.06 1.17.06zM23.5 7.27h-.08c0-.24.03-.35.07-.54.07-.26.1-.22.16-.48.1-.4.23-.61.23-1.08H21.3c-.1.31-.17.65-.28.99-.41 1.22-.66 2.44-1.02 3.54-.06.18-.1.27-.15.49l-.62 2.05c-.13.4-.19.72-.66.75-.24-.28-.19-.42-.06-.83l.23-.91c.04-.14.07-.34.12-.51.1-.31.16-.64.27-.93l1.4-4.64h-2.66l-1.22 4.11c-.06.27-.08.28-.15.49l-.4 1.38c-.07.21-.07.3-.12.51-.49 1.8-.08.7.91 1.66.31.3.43.72.43 1.23 1-.12 1-.65 1.48-.72-.07.11-.22.45-.23.6l2.73-.06.45-1.64c.22-1.03 1.43-4.47 1.43-5.03h.08c0 .97-.41 1.53.57 2.33.36.3.72.55 1.09.84.76.58.61.48.47 1.11-.1.43-.18.99-.88 1.01-.1-.29-.16-.06-.16-.36 0-.32.1-.44.15-.73.06-.34.16-.38.16-.72h-2.11c-.25 0-.26.2-.37.62-.24.92-.47 1.87.58 2.47.49.28 1.06.34 1.74.34.9 0 .72-.42.9-.93.24-.68.19-1.09.75-1.16.33-.04 1.09-.01 1.47-.01l.3-.79c.41-1.89.15-1.89-1.57-3.04-.72-.48-.61-.63-.61-1.16 0-.8 1.2-1.44.92-.32-.03.1-.06.32-.11.46-.08.24-.1.16-.1.46h2.34c.02-.56 1.12-2.45-.84-3.03-.6-.18-1.55-.16-2.19-.03-.93.19-1.67.74-1.99 1.42l-.3.79z" style="fill:#fff"/><path d="M19.51 24.11v.12c.37 0 .89-.02 1.24.01 1.14.1.48-.01 1.18-.01.01-.11.19-.65.23-.72-.46 0-.95.17-1.36.28l-1.3.32zm-7.5-6.37c-.48 0 .01-.91.2-1.47l.4-1.19c.22-.47.88-.06.9-.05.29.22-.05 1.12-.14 1.36-.28.77-.36 1.36-1.36 1.36zm-2.42-4.81L6.44 23.99c-.03.31-.15.24 1.2.24.31 0 .67-1.19.83-1.59.08-.19.11-.22.19-.4.38-.89.33-1.08 1.09-1.08.22 0 .25.1.34.22l.28.32.7-1.98c.34 0 .44-.04.68-.03.52.03 1.6-.08 2.03-.17.68-.15 1.67-.61 1.83-1.06.14.07.14.12.31.12h2.89c.69 0 .46-2.16 1.48-2.16.82 0 .13 1.47.04 1.65-.24.46-.42.48-1.02.66-.67.2-2.82.82-3.3 1.07-.1.05-.17.09-.27.15-.17.11-.11.05-.24.18-.69.65-1.24 2.42-1.14 3.33.45 0 .63.01 1-.07l1.73-.35c.32-.06.58-.08.86-.18-.07-.67-.2-.89.42-1.96.19-.33.77-.89 1.3-.93 0 .74-.76 2.02-.78 2.65.2-.06.28-.02.69-.13.77-.2 1.73-.66 2.51-.66.18 0 .23.12.55.18l.7-1.99c.23-.63.94-3.02.94-3.6 0-1.14-1.48-1.62-2.89-1.62-3.75 0-4.37 1.4-4.92 1.68.13-.45.32-.93.41-1.41.44-2.21-1.66-2.2-4.71-2.2-.96 0-1.63.06-2.58.06zm16.01 1.44c.33 0 .51.03.74.04.37.02.51-.04.9-.05.65-.01 1.31 0 1.96 0 .12-.17.45-1.01.5-1.25.05-.28-.22-.19-.73-.19-.8.01-2.74-.12-2.93.09-.08.08-.41 1.2-.43 1.36zm-.39 7.34c.38 0 1.2.12 1.48.24.17-.25.23-.45.33-.77.09-.29.18-.58.29-.86.11-.29.16-.56.28-.87.11-.29.21-.57.29-.86.25-.89 1.09-2.77 1.09-3.61-4.24 0-3.5-.25-3.88.92l-1.96 5.89c.02.34.8-.08 2.09-.08zm-2.81 2.16v.36h2.73c.16-.53.8-.87-.32-1.08-.5-.09-1.71.04-2.01.13-.23.07-.41.34-.41.59z" style="fill:red"/></svg>