<svg xmlns="http://www.w3.org/2000/svg" xml:space="preserve" width="80" height="96" style="shape-rendering:geometricPrecision;text-rendering:geometricPrecision;image-rendering:optimizeQuality;fill-rule:evenodd;clip-rule:evenodd" viewBox="0 0 27.58 33.09"><path d="M18.8 31.67c.53.3.76.39 1.53.32.7-.06.93-.21 1.48-.4l.42-.31c.43-.34.78-.95.85-1.56.21.09.27.33.97.4.44.04.85-.05 1.13-.27.3-.23.34-.54.36-1.04.01-.21.04-.44.03-.65-.01-.26-.1-.31-.09-.61.02-.62.28-4.09.57-4.74.04-.1.02-.07.09-.12h1.43l.02-6.16c-.74-.05-3.83-.01-4.74.04-.11.01-.03 0-.09-.01-.12-.02.05.01-.1-.02-.46-.09-9.04.05-10.42-.02.03-.09.15-.19.2-.26.17-.22.37-.62.41-.66.1-.1.41-.16.86-.71.16-.2.27-.45.43-.62.08 1.1.6 1.59 1.42 1.96.47.21.87.24 1.34-.02.27-.15.7-.6.83-.89.29.17.45.34.87.5.37.13.75.17 1.11 0 .28-.14.56-.39.73-.61l.49-.74c.05-.05.01-.02.07-.06.34.44 1.32 1.07 2.26.94 1.52-.21 2.59-2.01 3.17-3.25.27-.58.74-1.72.88-2.37-.33-.21-1.42-1.06-1.62-1.14l-.17.33c-.4-.68-.93-1.28-1.75-1.45l-.08-.69c.22 0 .71-.05.87-.03.57.06 2.14.02 2.82.03l.01-6.77c-.8.01-1.6.01-2.4 0h-.27c-.76.07-1.89-.11-2.58.05-.45.11-.04-.03-.43-.05l-3.62.01v4.6c-.12-.2-.86-4.04-.98-4.61L14.51 0l-.1.47-.12-.47H.02v6.76h2.55c-.07.13-.02.06-.14.15-.7.55-1.47 1.75-1.65 2.6-.21 1.03-.06 2.33.7 3.08.1.1.23.19.29.27-.26.57-.56 1.06-.79 1.69-.36 1-.28 1.26-.16 2.12-.61.44-.71.59-.7 1.56 0 .4-.04 1.31.06 1.66.05.18.14.26.18.39H.01c.03.33.18.84.25 1.2l.2.91c.03.15.01.21.12.27H2.6c-.15.24-.57.57-1.13 1.52-.32.55-.58 1.31-.69 2.03-.17 1.19-.09 2.34.68 3.22.38.44.54.41.79.61-.16.58-.32.82-.03 1.46.81 1.84 3.1 1.94 4.84.86 1.62-1.01 2.37-2.56 2.59-2.75.17.71.47 1.17.92 1.6.64.62 1.71.93 2.62.49.57-.28.74-.53 1.12-.91.13.05.19.13.32.22.35.23.81.44 1.26.39.32-.04.54-.2.74-.34.23-.17.32-.36.51-.59.32.25.79.52 1.36.53.09.24.09.31.24.5.08.1.08.04.09.14z" style="fill:#201e1e"/><path d="M9.42 23.84c.31 1.68-.98 4.24-1.93 5.44-.66.83-2.18 2.31-3.48 2-.64-.15-.85-.61-1.04-.79-.26.34.03.87.2 1.1.78 1.03 2.2.82 3.2.32 1.21-.61 2.1-1.85 2.76-2.98.37-.63.67-1.19.89-1.98.65-2.38.17-5.01-2.65-5.41v-1.71c.12.16.58 1.48.64 1.74.21-.23.51-1.42.7-1.76v2.14h1.03v-4.64H8.61c-.05.26-.48 1.79-.58 1.91-.11-.34-.46-1.72-.59-1.92l-1.09.01v4.26l-.53.1.12-.59h-1.1l.01-1.01.87-.02v-.78h-.87l.01-1.1L6 18.16l-.17-.85H4.75c.29-.18.63-.3.94-.49 1.41-.88 2.72-3.23 1.21-4.56-.81-.71-2.39-.62-3.51-.76-.53-.07-.77-.1-.7-.72.09-.73.74-1.39 1.09-1.74.47-.48.97-.83 1.59-1.25.18-.12 1.62-1.01 1.89-.9.29 1.05-1.1 2.57-1.52 2.85.02-.32.23-.72.27-1.1-.28.18-.77 1.01-.83 1.46.14.18.52.33.83.32.82-.03 1.51-.84 1.88-1.51.28-.5.48-1.16.35-1.82-.15-.78-.66-.92-.97-1.3.25-.52.14-1.76.14-2.44 0-.82.04-1.76-.01-2.55H6.19c-.04.64.06 4.07-.04 4.31-.13.05-.54.1-.6-.05-.03-.14-.02-.34-.02-.48V.81H4.32c-.03 1.02 0 2.09 0 3.12 0 1.66-.26 2.02 1 2.13-.16.13-.83.45-1.04.57-1.76.99-3.36 2.81-2.51 5 .33.85 1.15.92 2.16 1.03 2.39.25 3.66.8 1.45 2.68-.75.64-2.45 1.66-3.03.1-.16-.43-.16-.85-.22-1.34-.24.26-.55 1.3-.57 1.75-.04.86.36 1.11.82 1.47-.39.01-.94-.09-1.23.16-.27.23-.19.75-.19 1.16 0 .34-.08 1.06.12 1.26.25.24.87.04 1.19.16.04.17.02.35.03.52 0 .11.05.42-.05.5-.19.07-.93.02-1.2.03l.14.68c.04.16 0 .11.1.18.42 0 1.15.04 1.54-.02.56-.09.52-.46.52-1.02 0-1.17.21-1.66-.63-1.67-.17 0-.6.04-.68-.07-.07-.09-.07-.83-.01-.97.24-.11.97.01 1.3-.05l-.12-.58.58-.01v4.39h1.27c-.14.1-.47.26-.64.36-1.44.84-2.6 2.46-2.8 4.2-.07.63-.06 1.29.14 1.86.16.46.54.89.96 1.04.69.25.9-.35 1.14-.82.12-.24.44-1.08.41-1.35-.04-.37-.3.01-.4.18-.26.43-.63.9-.83 1.35-.09-.07-.14-.23-.18-.34-.3-.89-.13-1.86.23-2.69.41-.96.99-1.6 1.59-2.13 1.73-1.52 4.44-1.71 4.8.25zm14.11 4.97c-.03-.2-.02-.48-.01-.69 0-.29.02-.36.33-.37.43-.01.9.07.9.52 0 .2-.02.46-.03.66-.01.31-.01.39-.33.42-.52.06-.8-.1-.86-.55zm-3.24 1.47c.04-.23.79-1.13.98-1.33.07.21.1.25.06.49-.08.5-.5.82-1.04.84zm-7.19-4.02c.21.51-.83 2.77-1.33 2.46-.1-.06-.02-.23.02-.36.1-.37.23-.71.41-1.04.17-.31.58-1.06.9-1.05zm8.71 1.27c-.19-.25-.61-1.3-.55-1.69.04-.3.3-.49.5-.62.27-.18.49-.22.85-.15-.01-.38-.13-.89-.36-1.03-.62-.39-2.29.55-2.14 1.88.07.65.27.17-.19.98l-1.55 2.62c-.12-.48.56-2.6.73-3.08.26-.71.8-1.35-.22-1.94-.68-.39-1.09 1.82-1.4 2.36l-1.82 3.04c.05-1.04.51-2.47.86-3.35.3-.76.51-.92-.09-1.46-.61-.54-.75-.04-1.02.55-.59 1.29-.24 1.22-1.28 2.89-.36.57-1.39 1.98-1.99 2.18-.15-.12-.34-.46-.43-.68-.12-.29-.12-.64-.09-.98.04.02.41.46 1.06.33.67-.13 1.61-1.67 1.3-2.85-.18-.68-.93-1.38-1.56-1.11-1.34.56-3.17 4.09-1.01 5.49.84.55 1.44.22 1.99-.26.33-.29.68-.81.92-1.22.08-.14.15-.3.25-.42.02.37-.09.91.35 1.29 1.24 1.07 1.67-.45 2.34-1.74.03.49-.14 1.05.57 1.49.7.43.93.16 1.28-.34.44-.64.88-1.64 1.2-2.4.03-.07.11-.29.18-.33l.59 1.3c-.15.16-.27.33-.42.48-.38.38-.94 1.08-1.2 1.56-.75 1.41 1.44.93 2.03.56 1.36-.87.63-2.38.66-2.63 0 0 1.14-2.1 1.23-2.46-.13-.07-.15-.12-.24-.21l-.1.13-1.16 1.79-.04.04zm-16.34 3.3c.12-.18.44-1.42.54-1.74l1.1-3.41c.12-.36.2-.56-.05-.84l-.56-.55c-.27-.13-.39.36-.48.58-.56 1.36-.99 3.02-1.17 4.49-.1.79-.21 1.34.62 1.48zm18.34-9.71c-.23 0-.22-.01-.22-.23v-1.3c0-1.76-.16-1.52.59-1.47.07.29.02 1.33.02 1.7 0 .61.05.39-.15.7-.11.17-.13.45-.25.6zm.86 6.29c.02-1.39.2-3.11.5-4.42.12-.52.55-1.58.25-2.05-.15-.24-.14-.1-.14-.47v-1.83c0-1.19.12-1.35-1.16-1.35-.29 0-.97-.03-1.2.05-.38.13-.38.39-.38.85v2.44c0 1.1-.03 1.31 1.15 1.31.03.21-.1 1.27-.12 1.58-.04.54-.04 1.09-.06 1.64-.06 1.92-.27 2.17 1.17 2.25zm1.05-5.48 1.05-.01v-4.64h-1.06v4.65zm-4.65-3.78h1.14l-.17-.86-2.07.02.01 4.63h1.07l.01-1.87h.87l-.01-.8h-.87l.01-1.1zm-3.52 0h1.15l-.19-.86h-2.04l.01 4.64h2l.18-.86-1.1-.01v-1h.87l-.01-.8-.87-.02v-1.09zm-3.21-.04.59-.01c.06.2.06 1.4 0 1.59l-.59.01v-1.59zm1.2 2.36c.23-.1.39-.09.45-.34v-2.36c-.08-.51-.62-.48-1.12-.48h-1.59v4.64h1.06c0-.3-.06-1.27.03-1.47.2.01.08-.06.17.12l.45 1.36h1.1l-.54-1.46zm-4.33-2.37.61.02c.05.24.02.65.02.9l-.01.8c-.03.13-.01.05-.04.11h-.58V18.1zm0 2.6c.55-.04 1.41.14 1.61-.35.09-.22.05-1.52.05-1.86 0-1.41.06-1.2-2.71-1.2v4.64l1.05-.01v-1.23zm2.4-14.69.21-.95-1.07-.01c-.02 0-.11 0-.15-.05-.04-.05-.09-3.38.02-3.21l.56-.04c.21 0 .42.01.63 0l-.19-.97c-.4-.03-.86 0-1.25 0-1.29 0-1.02.39-1.02 2.63 0 2.06-.27 2.62 1.02 2.62.31 0 .99.03 1.25-.02zm2.11-2.87c.06-.19-.03-.09.12-.11l.21 1.51h-.53l.19-1.4zm-1.64 2.88c1.27 0 1.19.11 1.24-.23.02-.14.03-.31.09-.41.88-.01.79-.1.84.28l.06.36 1.18.01c-.01-.27-1.04-5.16-1.08-5.24L15.15.78l-1.08 5.24zm8.94-.96c-.09-.09-.05-.3-.05-.52V1.83c.02-.21.16-.15.38-.15.28 0 .31-.04.31.23v2.86c0 .26.06.33-.19.34-.19.01-.37.02-.45-.05zM22.29.81c-.69.18-.52.73-.52 1.56v2.1c0 .68-.14 1.36.54 1.52.23.05 1.81.06 2.03 0 .68-.18.52-.83.52-1.56v-2.1c0-.7.16-1.39-.54-1.54-.27-.06-1.8-.05-2.04.01zm3.08 5.2 1.18.01.01-5.25h-1.2v5.24zm-17.5 0h1.1l.01-2.1c.23.33.43 1.71.66 2.09h1.21V.77L9.63.75 9.62 2.8 9.01.76 7.88.75v5.24zM.8 6.02h1.1l.01-2.08.64 2.08h1.22L3.78.77H2.55v2.02c-.2-.33-.51-1.98-.66-2.02H.81L.8 6.02zm9.37 9.73c-.34-.4-.34-1.73-.19-2.28.14.12.4.55.53.71.27.34.37.38.67.61-.13.41-.52.94-1.02.96zm1.39-1.86c-.53-.11-1.04-1.82-.25-2.7.47-.52.37.16.38.75 0 .61-.04 1.37-.12 1.95zM23.92 9.1c.22.44-.91 3.17-1.49 2.8-.1-.06-.07-.09-.03-.24.18-.73.95-2.41 1.52-2.56zM20.1 1.76l1.3-.01-.22-.97h-2.31l.01 5.25h.73l-.4 1.45c-.89.12-1.89.02-1.91 1.47.56-.14.93-.41 1.64-.43-.03.26-.15.65-.21.93l-.21.94c-.09.4-.08.53-.28.87l-2.07 3.56c-.02-.05-.01.03-.03-.09-.1-.63.76-3.23 1-3.78.17-.4.23-.58-.03-.93-.76-.98-1.39-.29-2.66.05-.08-.38-.33-.67-.55-.87-.33-.3-.74.09-.86.33-.18.36-.28 1.59 1.1 1.45-.02.6-.4 1.25-.65 1.66-.15.25-.74 1.1-.97 1.26-.07.05.02 0-.09.05.08-.81.23-1.49.08-2.33-.12-.69-.49-1.21-1.02-1.43-.84-.35-1.2.3-1.51.73-.13.18-.13.08-.35.27-.26.23-.57.79-.71 1.12-.5 1.16-.86 2.89.33 3.71.47.32 1.19.67 1.87.33.79-.38.94-1.26 1.08-1.37.13-.11.45.03.93-.71.7-1.07 1.27-2.09 1.51-3.41l1-.32c-.22.86-.41.93-.62 2.26-.13.83-.3 1.89.23 2.4.14.14.67.5 1 .45.74-.12 1.54-2.34 1.7-2.55-.02.68-.32 1.09.16 1.56 1 .96 1.5.53 2.13-.7.09-.18.56-1.21.65-1.29.13.83.66 1.44 1.24 1.74 2.09 1.1 3.76-2.87 4.16-4.36-.06-.08-.23-.19-.33-.24l-.64 1.25c-.42.81-1.75 2.77-2.58 3.04-.22-.36-.78-1.15-.52-1.76.12-.03.03.06.34.2.54.23.96.14 1.33-.22.79-.75 1.38-2.47.58-3.42-.4-.48-.92-.86-1.56-.51-1.15.62-1.53 2.06-1.97 2.78-.3.49-.58.98-.88 1.49l-.67 1.13-.24.36c.06-.58 1.05-5.2 1.25-5.62.76-.09 1.09.13 1.83-.24.43-.22.81-.66.55-1.34-.64.57-.93.71-2.11.66-.01-.42.45-1.17.42-1.55-.04-.56-.8-.79-1.04-.92l.01-1.21.99-.02-.01-.89h-.99V1.77z" style="fill:#fefefe"/></svg>