<svg xmlns="http://www.w3.org/2000/svg" xml:space="preserve" width="128" height="64" style="shape-rendering:geometricPrecision;text-rendering:geometricPrecision;image-rendering:optimizeQuality;fill-rule:evenodd;clip-rule:evenodd" viewBox="0 0 107.67 53.83"><defs><style>.fil5{fill:#020202}.fil21{fill:#030404}.fil1{fill:#050505}.fil14{fill:#2e2e2e}.fil20{fill:#f4f5f3}.fil15{fill:#f6f6f6}.fil23{fill:#f9faf8}.fil7{fill:#fa0000}.fil16{fill:#fbfbfb}.fil8{fill:#fdfd03}.fil3{fill:#fdfdfd}</style></defs><g id="Camada_x0020_1"><g id="_2482221190656"><path d="M67.44 50.28c-.35.01-.66-.07-.98-.23-.2-.1-.39-.21-.58-.34a.485.485 0 0 0-.21-.08h-.01c-.1-.01-.19.03-.26.08-1.21.84-2.5 1.01-3.81.24a.603.603 0 0 0-.19-.06c-.1-.01-.2.02-.28.08-.05.03-.09.08-.12.13-.06.09-.06.2-.03.3.15.52.15 1.05-.07 1.56-.2.47-.55.83-.92 1.18-.45.42-1.02.6-1.64.54-.55-.06-1.09-.15-1.56-.45-.14-.09-.25-.18-.37-.3-.02-.02-.05-.03-.07-.04-.13-.06-.26-.13-.39-.21-.32-.19-.54-.42-.72-.74a.311.311 0 0 0-.16-.14c-.09-.05-.17-.1-.25-.16a.37.37 0 0 0-.18-.08c-.06-.01-.11 0-.17.01-.02 0-.04.01-.06.02a.38.38 0 0 0-.22.21c-.07.16-.15.32-.21.49-.29.74-.95 1.22-1.77 1.28-.02 0-.04.01-.06.01-1.04.23-1.58.13-2.49-.39-.37-.21-.62-.46-.92-.74-.2-.19-.42-.38-.65-.53-.17-.12-.34-.24-.5-.37a.508.508 0 0 0-.18-.09.408.408 0 0 0-.19.01c-.04.01-.08.03-.12.05a.39.39 0 0 0-.16.2c-.86 2.26-3.32 2.8-5.1 1.15-.17-.15-.32-.32-.46-.5-.02-.02-.03-.04-.05-.06-.56-.47-1.12-.77-1.64-1.33-.29-.32-.52-.68-.68-1.08-.03-.07-.06-.13-.12-.17-.03-.02-.06-.04-.1-.05a.495.495 0 0 0-.13-.04.401.401 0 0 0-.19.03c-1.51.59-3.24.22-4.64-.49a.396.396 0 0 0-.49.08c-.19.19-.38.38-.57.56-.7.66-1.51 1.37-2.43 1.72-.34.13-.68.21-1.04.29-.1.02-.18.06-.27.11-.46.25-.94.31-1.45.2-.47-.1-.98-.14-1.46-.18l-.34-.03c-.66-.06-1.31-.11-1.97-.19-1.45-.18-2.89-.46-4.32-.72-1.72-.31-3.19-.81-4.66-1.74-.9-.57-1.77-1.22-2.7-1.74-.27-.15-.47-.33-.65-.58-.01-.01-.02-.03-.03-.04-.36-.37-.84-.69-1.25-.99-.62-.46-1.24-.86-1.8-1.41-1.11-1.1-2.22-2.19-3.16-3.43-.82-1.08-1.52-2.23-2.26-3.37-.42-.65-.67-1.33-.97-2.03-.19-.46-.4-1.06-.7-1.46-.24-.33-.36-.66-.38-1.06-.03-.75-.3-1.58-.46-2.31-.16-.72-.31-1.44-.37-2.17-.16-1.96-.03-3.9.18-5.85C.73 18.68 1.7 14.62 3 10.63c.08-.26.2-.47.38-.68.01-.01.01-.02.02-.02.17-.23.32-.55.45-.8.31-.58.65-1.14 1.05-1.66 1.33-1.76 3.17-3.05 5.15-4.04.29-.15.6-.28.89-.43 1.52-.82 3.15-1.43 4.83-1.87.58-.15 1.16-.28 1.75-.4.27-.06.55-.1.82-.18.01 0 .02-.01.03-.01.3-.12.58-.16.91-.14.44.03.9.02 1.34.02.77 0 1.53-.01 2.3 0 1.27.01 3.49-.04 4.6.46l.12.06c.05.03.11.04.18.05.06 0 .12-.01.17-.03.04-.02.08-.04.11-.07.11-.09.2-.16.33-.22.4-.22.86-.29 1.31-.28h.07c.88.06 1.73.68 2.38 1.24.5.43.97.91 1.4 1.4.78.89 1.75 2.17 1.97 3.33l.03.21c.04.56.06 1.12.11 1.68.01.08.03.13.08.2.16.22.3.45.42.7.07.15.19.22.35.23l.8.03c.6 0 1.96.12 2.51-.08.01 0 .02-.01.03-.01a.8.8 0 0 0 .28-.24c.04-.05.08-.1.11-.15.04-.06.05-.1.06-.16v-.03c.09-.68.26-1.16.65-1.74.12-.18.26-.32.41-.48.05-.05.08-.1.1-.17.07-.26.14-.5.24-.75.58-1.46 1.4-2.81 2.63-3.84.38-.32.8-.6 1.23-.86.19-.11.42-.22.61-.36.46-.35.99-.48 1.57-.4h.03c.04.01.07.01.11 0 .05-.01.1-.02.16-.03.27-.05.52-.04.79.01.67.14 1.34.29 1.98.56.22.09.39.2.57.36l1.53 1.36c.09.08.17.11.29.11h.04c.01 0 .03 0 .04-.01.12-.02.19-.07.26-.17.1-.14.2-.27.3-.41.97-1.19 2.24-1.75 3.77-1.9.97-.09 1.78.03 2.68.42.33.14.61.34.89.56.07.06.16.1.26.1.05 0 .1-.01.14-.02l.06-.03c.29-.15.57-.23.89-.24l3.17-.13h.15c1.5.05 3.16.07 4.59.51a.442.442 0 0 0 .33-.02c.02-.01.05-.03.07-.05.41-.35.9-.52 1.45-.49C73.88.7 75.45.62 77 .64c1 .02 2.06.01 2.99.4.07.03.15.04.22.03.05-.01.09-.02.14-.05.02-.01.04-.03.06-.04.38-.3.79-.44 1.28-.44 2.13-.02 4.27.05 6.4-.08h.12c1.84 0 3.55-.1 5.36.35.56.14 1.08.34 1.56.66.06.04.12.07.2.07.05 0 .1 0 .15-.02a.31.31 0 0 0 .13-.06c.04-.03.07-.06.1-.1.38-.59.99-.92 1.71-.93l4.03-.05c.14 0 .26.01.39.03l2.54.45c.53.09.95.34 1.27.76.01.02.02.03.04.04l.01.01c.06.06.14.08.22.09 1.06.12 1.84 1.01 1.8 2.04-.05 1.38-.33 2.82-.26 4.19.04.81-.04 1.59-.1 2.39-.04.58-.08 1.16-.16 1.74-.01.07-.01.12.02.19.12.31.16.6.12.93l-.28 2.47v.02c-.02.34-.06.69-.08 1.03v.11c0 .05 0 .09.02.14.13.39.14.76.03 1.16l-.22.77c-.01.03-.01.06-.02.1l-.19 5.57c0 .05 0 .09.02.14.2.54.17 1.07-.09 1.58l-.06.12c-.05.1-.06.19-.03.3.1.3.13.58.09.89l-.25 1.9c0 .03-.01.06-.01.09-.19 1.03-.48 2.73-.34 3.77.08.49.18.91.11 1.42-.01.05-.02.09-.03.15-.05.24-.14.43-.21.66-.02.06-.02.11-.01.17.03.19.05.36.04.55 0 .06-.01.11-.02.17-.01.04 0 .08 0 .12.04.19.05.35.04.54-.01.14-.03.27-.05.41a.19.19 0 0 0 .01.13c.07.29.07.56.01.86l-.45 2.1c-.05.24-.13.44-.27.64l-.05.08c-.1.16-.08.35.05.49.22.23.39.5.5.79.47 1.29-.32 2.71-1.22 3.64-.05.05-.09.09-.14.13l-3.64 3.13c-.59.51-1.37.64-2.1.36-.35-.13-.7-.29-1.01-.51a.445.445 0 0 0-.2-.08h-.09c-.08.01-.14.04-.2.08-.73.53-1.47.76-2.38.67-.77-.08-1.56-.29-2.08-.88-.01-.01-.02-.03-.04-.04a.363.363 0 0 0-.19-.13c-.02-.01-.05-.01-.07-.02a.41.41 0 0 0-.24.04l-2.19 1.03c-.41.2-.83.25-1.28.16a.285.285 0 0 0-.13 0h-.04c-.45.05-.85-.04-1.27-.15-.82-.21-1.32-.51-1.93-1.06a.436.436 0 0 0-.27-.11h-.02a.4.4 0 0 0-.26.1l-.95.79c-.47.39-1.02.54-1.63.46-.16-.02-.32-.05-.48-.09l-.12-.03c-.35-.11-.61-.28-.89-.49-.14-.1-.28-.2-.42-.32a.42.42 0 0 0-.28-.1h-.04a.36.36 0 0 0-.18.07c-.87.59-1.54.98-2.67.91-.77-.04-1.44-.35-1.99-.86-.09-.09-.18-.12-.32-.11-.12.01-.2.04-.28.12-.25.26-.52.44-.87.55-.01 0-.02.01-.03.01-.16.06-.33.14-.48.22-.63.32-1.33.3-1.95-.04-.27-.15-.52-.32-.75-.52a.338.338 0 0 0-.19-.09c-.03-.01-.07-.01-.1-.01-.1 0-.18.03-.26.09-.16.13-.32.22-.52.3-.15.06-.3.1-.45.15-.02.01-.04.01-.06.02-.01 0-.02.01-.03.01-.28.13-.55.2-.86.2-.1 0-.2 0-.28-.01h-.01z" style="fill:#282829"/><path class="fil1" d="M40.47 37.48c.51-1.04 1.9-2.13 2.66-2.52.64 1.4.56 3.36-.77 4.54-.67-.36-1.63-1.51-1.9-2.02zm64.05-13.9.16-4.6c.01-.2.04-.38.09-.57l.22-.77c-.1-.28-.14-.57-.12-.88v-.07c.01-.37.05-.73.08-1.09 0-.03.01-.07.01-.1l.28-2.47c-.15-.38-.19-.76-.14-1.17.08-.53.11-1.07.15-1.61.05-.71.13-1.44.1-2.15-.08-1.48.21-2.91.26-4.36-.52-.06-.99-.27-1.36-.6h-.1l.02-.07c-.08-.08-.15-.16-.22-.25l-.38-.07-1.24 22.55.83-.45c.02-.01.07-.04.08-.05.98-.49.41.04.88-.6.33-.44.18-.5.4-.63zm-2.16-21.04-.95-.17-4.03.05c-.18.28-.41.51-.69.69l-.32 1.3c-.8-.67-.62-.05-1.24-.89-.43-.03-.85-.17-1.23-.42-.28-.18-.59-.29-.91-.37-1.59-.4-3.21-.29-4.84-.29-2.17.13-4.34.06-6.51.08-.11.08-.22.16-.34.22l-.16.93c-.41-.21-.53-.43-.71-.65-.43.06-.88 0-1.31-.17-.58-.24-1.59-.23-2.22-.24-1.58-.03-3.15.06-4.73-.02-.12.11-.26.2-.4.28l-.18 1c-.55-.27-.43-.44-.64-.71-.38.06-.77.04-1.16-.08-1.16-.36-2.8-.38-4.03-.42l-3.17.13c-.11.06-.22.11-.34.15-.02.17-.04.37-.08.61-.28-.11-.54-.28-.79-.47-.55-.01-1.1-.2-1.55-.57-.11-.09-.26-.2-.39-.26-.57-.24-1.02-.32-1.65-.26-.98.09-1.75.39-2.37 1.15-.08.09-.15.19-.22.29-.38.54-.92.89-1.57 1-.08.07-.16.14-.25.2l-.13-.16a2.44 2.44 0 0 1-1.76-.63l-1.53-1.36c-.48-.2-1.08-.33-1.59-.44-.08.01-.15.03-.23.04-.23.03-.45.03-.68 0-.02 0-.04-.01-.06-.01-.02.01-.04.03-.05.04-.24.17-.5.3-.75.45-.33.2-.66.41-.95.66-.97.81-1.6 1.91-2.05 3.05-.07.18-.12.38-.17.57-.11.39-.31.72-.59 1.01-.06.06-.13.13-.18.19-.22.33-.28.53-.33.92 0 .01 0 .03-.01.04-.05.35-.17.66-.37.96-.08.11-.16.22-.25.33-.29.34-.61.61-1.03.79l-.15.06c-.97.35-2.21.21-3.23.21-.3 0-.59-.01-.89-.03-.92-.05-1.7-.55-2.1-1.35-.07-.13-.14-.27-.23-.39-.26-.35-.41-.74-.46-1.18-.06-.57-.07-1.15-.11-1.72-.14-.73-1.03-1.85-1.51-2.4-.37-.42-.78-.84-1.2-1.2-.21-.18-.88-.72-1.16-.74-.05 0-.19 0-.23.02-.19.16-.39.28-.61.38-.02.28-.05.59-.16.86-.64-.2-.82-.43-.94-.66-.34-.02-.68-.1-1-.26-.02-.01-.05-.02-.07-.03-.64-.29-2.97-.27-3.74-.27H20.6c-.5 0-.99.01-1.49-.02-.07.03-.14.05-.21.07-.32.09-.64.15-.97.21-.55.11-1.1.23-1.65.38-1.51.39-2.99.94-4.36 1.68-.31.17-.63.31-.95.46-1.69.85-3.31 1.95-4.44 3.45-.34.44-.62.92-.89 1.41-.2.37-.35.71-.61 1.06-.03.04-.07.08-.1.12-1.27 3.87-2.2 7.77-2.63 11.82-.2 1.83-.32 3.65-.17 5.49.05.64.19 1.29.33 1.92.19.88.46 1.73.51 2.64.41.56.65 1.22.92 1.86.24.56.47 1.21.8 1.72.71 1.09 1.39 2.21 2.18 3.25.88 1.16 1.93 2.19 2.97 3.21.46.45 1.07.84 1.59 1.23s1.04.74 1.49 1.21c.08.08.15.17.22.26.98.54 1.87 1.2 2.8 1.8 1.25.79 2.45 1.19 3.91 1.45 1.4.25 2.8.53 4.21.7.63.08 1.27.13 1.91.19l.32.03c-.17-.36.02-.9.41-1.65-2.45.03-8.43-.49-10.95-1.52-2-.82-5.92-3.87-7.37-5.42-1.72-1.84-3.57-4.64-4.6-7.07C1.33 28.55 2.3 20.89 4 14.65c1.19-4.37 2.24-5.93 5.08-8.01 4.63-3.38 12.33-5.19 17.83-3.6.42 1.46 2.47 6.89 2.45 8.42-4.35-1.19-3.61-2.03-6.1-.87l-4.59 2c-2.08.94-2.4.95-2.57 2.08.95.97 1.2.62 1.09 2.27 1.79-.05 3.52-.55 5.43.1-.39.59-1.89.61-3.14 5.33.05.06.11.12.15.17l.49.72.57.11c-.04-.05-.08-.13-.11-.16l-.21-.28-.19-.19c-.4-.4-.23.26-.31-.37l1.05.02c.79-1.63-.25-1.77 1.35-2.77.4.67.52 1.77.46 2.56l-1.62.73c.51.01 2.69-.93 2.18 1.06-.55.24-.83-.06-1.64.13-.16.39-.14.12-.09.57-.4 1.34-.76 1.6-1.93 1.86l-2.38 1.06 1.29.04c.11.57.3 1.25.48 1.71-.5 1.06-1.13 1.36-1.99.59-1.4 1.79-.71.45-3.17 1.04-1.28.31-1.09-.24-1.64-.64l-.74-.25c-1.43-.29-.82-.52-1.54-.97-1-.63-1.69-.24-1.37-1.93 1.64-.37 1.02.29 1.8.43.41.08 1.02-.57 1.85.92.77-.52 1.73-.61 1.93.63.28-.72.27-.76.82-1.04-1.97-.59.42-.26-1.77-.3-1.22-.02-1.24-.33-1.18-1.22-1.37 1.48-2.1.34-2.27-.65-.53.39-.55.42-1.33.23-.87-3.36 1.89-5 2.06-2.37l.86-.27c.93-.17 1.35.37 1.23 1.49.26-.58.17-.43.74-.69 1.07.41.25.72 2.42 1.22l.4.04c.04 0 .18-.04.24-.07-.31-.45-1.3-.98-1.83-1.29-.61-.36-1.15-.65-1.77-1.02-1.16-.69-2.41-1.45-3.56-2.08-.02-.63.01.05.08-.54.04-.3.07-.13.02-.31-1.03.85-1.41 1.3-2.19 2.4l-.07-.1c-.53-.57.3-.32-.31-.21-2.71 6.82-2.02 5.9 4.14 8.72 4.06 1.86 7.57-.43 10.66-1.45.14-.75-.15-.5.08-.87 4.47 1.64-3.4 4.22-6.63 4.53-1.12.1-3.32-.28-3.91-.21 1.72 1.34 6.31.08 7.89-.2-1.63 1.9-5.57 2.11-6.42 2.51 2.51.57 5.35-.63 6.69-1.8.05.14.06.08.11.46.01.05-.02.32-.02.39.28-.51.06-.27.39-.56.42-.37.08-.2.58-.26-.59 4.89-4.42 3.91 2.2 7.67 5.42 3.08 5.82 1.13 9.7.89-.08-.67.11-.37-.38-.81l-.71-.03-.73-1.29c-.83.64-.55 2.33-2.98 2l-.41-1.94c-1.12.51-.88 1.18-1.54 1.71-1.03-.4-2.08-.94-3.08-1.51-2.52-1.42-2.1-1.16-2.01-2.23l-.81-.11c2.42-4.61.3-4.59 4.43-7.23 2.44 1.05 4.78 3.42 7.81 3.57 2.15.11 5.54-1.29 7.73-1.43-2.07 2.65-1.97 2.93-4.77 3.13-3.23.23-4.06-.09-7.38-.76.92 1.15 3.26 1.51 4.87 1.53 1.52.01 3.75-.56 4.75-.44l-.33 2.93c-.54-.59-.25-.75-1.21-1.21.2.99.94 1.26.56 3.61-.36 2.2-.58 2.44 1.28 3.46l.75.03.42-3.68c1.04.22 1.09.88 2.7 1.38-.63 1.73-1.09 3.44-1.02 5.15 0 .03 0 .06.01.09.36.26.64.62.81 1.04.07.18.17.34.3.48.38.41 1.01.78 1.45 1.15.12.1.23.21.32.33.09.11.18.2.27.29l.87-.2-.94-.24c.63-1.96.7-1.68.03-2.13-.41 1.28-1.02 2.08-1.94.61-.36-.57-.44-1.52-.41-2.33.23-5.09 5-11.53 6.8-14.98-2.9.49-6.32 2.56-7.93 4.93-.97 1.42-.89 2.01-.76 3.41-3.31-1.23-1.26-5.8 2.89-8.26 1.39-.83 2.77-1.51 4.64-1.93 1.72-.39 3.87-.81 4.97.87.01.72-6.6 9.97-7.56 12.56.8-.7 5.1-7.39 8.37-10.56 2.71-2.63 3.7-4.27 6.47-2.27-.16 1.82-6.97 10.09-8 13.85 1.86-2.34 3.41-4.9 5.48-7.06 2.09-2.18 4.97-5.47 7.2-2.62-.24 1.18-1.83 2.78-2.47 3.97.07.73-.02.3.22.82.26-.12.15-.05.42-.25l.89-.87c.95-.87 2.69-1.82 3.88-1.12l.68.58.87-.88c.89.15 1.38.47 1.85.91-.1 1.14-2.22 3.87-2.79 5.73.4-.2-.06.07.45-.25l.97-.74c.36-.31 1-.79 1.26-1.09.54-.62 2.86-7.78 5.43-10.01.92.18 1.19.32 1.68.98-.3 1.24-4.77 7.51-4.99 10.89.63-.42 2.49-1.86 2.85-2.63.65-1.36 1.1-3.09 2.31-3.75 1.34.19 1.53.48 2.01 1.24-.35 1.4-2.37 3.9-2.46 4.69-.09.78-.18.21.15.8l5.83-6.77c1.12-.01 1.47.18 1.97.89.11.91-2.58 3.99-2.81 5.83 1.23-.99 2.24-1.64 3.08-3.09 2.43-4.18 6.37-4.81 6.7-2.32.23 1.74-1.47 3.18-2.82 2.29.41-.78.2-.2.99-.62.52-.28.58-.3.65-.99-1.08-.39-2.14.7-2.77 1.56-.34.47-.72 1.1-.95 1.71-1.61 4.36 4.15.82 5.05-.74.75-1.3.82-1.76 1.81-2.8.37-.39.74-.73 1.15-1.01.53-.36.65-.29 1.13-.81-.27-.4.84.2-.28-.2-.03-.01-.32-.02-.34-.02-1.29.29-1.33 1.22-2.66 1.24-.66-.48-.99-1.15-.87-2.09-.61.93-.42.39-1.66.25-2.13-.24-3.02 1.5-4.34 1.93-1.18-.9.09-1.18-3.02-1.94.1-3.28 4.18-31.58 3.81-32.64l.42-1.06c5.36.07 8.65-.94 8.65 5.21 0 1.99-.7 7.35-1.02 9.8l3.25-14.98c.69-.23 3.1-.24 4.74-.17zM28.69 31.73c-2.36.46-2.31-4.25.08-2.93.84.46.46.11.59.77.14.71-.11 1.76-.66 2.16zm3.17-.85c.38-.81.27-.9 1.18-1.03.68-.1 1.26-.03 1.89.26 1.32 3.42-2.65 4.53-2.99 1.62.02.91.21 1.14-.61 1.39-1.06.32-2.83-.6-1.6-3.48 1.71-.01 1.7-.04 2.13 1.24zM19 29.34c-.23-1.12-.6-.88-.18-2.28.85.05.8-.14 1.27.47.88 1.12.93 2.98-1.09 1.82zm24.94 5.16c.5-.39 1.09-.8 1.88-.84l-1.61 2.56-.26-1.71zm-17.86-6.83c1.33.6 1.11 1.14.68 2.48-1.56-.16-1.93-.94-1.59-2.26l.9-.22zm-5.8-.43c.14-.68.32-.67.94-.72-.02.99-.11.75-.42 1.03l-.52-.32zm15.93 2.12 1.03.28c.57 1.79.76 4.14-2.04 2.84.08-3-.24-2.25 1.01-3.11zm4.29 2.17c.21-.11.21-.74.76.16-.57.26-.39.15-.76-.16zm-.6-.32c0 .96-.83 1.48-1.65.95-.22-.15-2.2-3.75.93-2.92.09.27.72 1.64.72 1.97zm18.94 1.7c-.19 1.79-1.21 2.41-2.29 3.2l2.29-3.2zm-18.76-4.47c1.28-.48 1.06-.74 2.15-.84.43.99.3 2.03 1.82 1.87-.29 1.48-2.21 1.66-3.56 1.36-.61-.77-.59-1.32-1.32-1.93l.9-.46zm-3.86.92c-1.23-.18-.88-.18-1.59-.92-.51 1.95-1.96 1.47-3.06.46-.33.46.02.32-.64.34-.22.01-.68-.15-.88-.24-.78-.39-.83-.67-.53-1.39l-.67.72c-2.03-.22-1.37-.99-2.48-1.69-.48.34-.56.15-1.09-.04-.71-1.81.16-3.26 1.29-4.36 1.09.15 1.31.08 1.24 1.02.16.26.05.08.18.42.02.05-.13.6.11.32.02-.03.03.11.05.17 1.69-1.24 2.56-.02 2.12 1.69.18-.69.59-.75 1.19-.9.39.24.38.17.59.52.35.59.11.14.12.56.84.63 2.13-.14 2.26 1.46l.54-.78c1.31.2 2.35.11 3.36.79.74-.77 2.37-1.36 3.05-1.27-.45 2.79-2.05 1.67-3.76 2.48l-1.25.57c-.01-.04-.1.05-.14.07zm6.8-2.16c.7-.42.75-.35 1.65-.26l-.25 1.64-.98.1-.41-1.48zm.69-6.3c1.92.79 2.25 1.57 4.15.46.82 1.79.36 4.93-3.79 4.68.51-1.75-.01-1.28-.32-2.5-.19-.74-.18-1.86-.05-2.63zM41 23.31c1.09-.88-.45-1.67 1.85-3.03.47.74.49 2.26.33 3.1-.6.25-1.18.44-1.75.66-.92.35-1.33.2-1.75-.47.58-.16.88.08 1.32-.27zm9.08-1.2c-.05.02-.11.04-.14.04l-1.06.31c-.07-.59-.27-1.02-.11-1.63 1.55-.21 1.68-.2 1.31 1.27zm-6.25-5.03c-.41.64-.95.46-1.63 1.01-.55.45-.93 1.07-1.29 1.63-.91 1.41-1.44 2.57-1.92 4.28.04.03.33.29.38.35.03.03.07.18.11.15.04-.04.07.1.11.16.21.13 2.6-.67 3.59-.61.51.54.87.91.46 1.8h-.5c-.66-.09-.64-.42-1.82 0-.76.27-1.3.49-2.01.76-3.6 1.34-6.98-1.97-9.08-3.51-1.28-.94-2.73-1.92-3.72-2.78l.99-1.03c-1.26.43-2.63 1.63-3.5 3.01-.13-.69.34-1.03.56-1.7l-1.04 1.02c-1.44-3.43 3.98-6.34-5.36-5.58l-1.03-1.73 6.89-3.01c.04-.01.1-.03.15-.04.04-.01.1-.03.14-.05l.74-.34c1.16.45 3.6 1.57 4.73 1.25.93-1.03-.24-3.41-.6-4.58-1.4-4.54.34-1.63.43-5 4.77 2.32.67 7.15.98 8.75 1.26.3.19.27 1.04-.17 2.3-1.18 1.13-.01 2.3-1.32 1.58 1.56-.78 2.24-.05 3.5.87-.68.76-1.33 1.95-1.6 2.46-.58 6.21 1.14 6.74-3.27 1.67.88 1.94 3.16.68 5.09-1.3 2-1.84 1.53-3.87 2.84l3.88.64c.43.03.34.03.58-.04-1.76-1.22-.79-.49-2.05-.66.13-.46 1.14-1.13 1.6-1.71 1.82-2.31 1.94-5.29-.2-6.71 1.05-2.98 3.16-6.6 6.48-5.23 3.19 1.31 2.28 6.76 2.67 7.74.94-3.19 1.84-6.83 4.41-7.85 3.55-1.41 4.85 2.53 5.02 4.9.26 3.46-.76 9.97-1.24 14-.15 1.3-.68 3.6-.42 4.49l-.78 4.47c-.57-.32-.99-.78-1.7-1.05-1.27-.48-1.14-.02-2.29.01.72-3.49 1.51-11.8 2.03-16.18.2-1.68.82-4.33-.11-4.82-.96.82-2.5 15.74-2.84 18.77-.54 4.72-.03 2.44-2.12 5.05l-.05-.72c-.04-.42.09.01-.06-.5-.11-.4-.15-.41-.52-.74-2.27-2.01-4.37-.36-5.9-.68l.44-2.8c1.38-.72 1.56-.69 2.43-2.31l1.94-.03.77-5.77-4.21-.07.96-8.05c.09-.95.34-1.71-.57-2.06-1.27.97-1.85 10.31-2.21 12.43l-1.37-.85c.38-2.2 1-2.17-.13-2.93zm16.3 8.83c.59-1.66 2.23-19.58 2.97-23.02 1.9.24 4.68-.35 6.54.39 2.8 1.12 1.58 8.77 1.19 11.18-.32 2-.53 4.17-2.21 5.22l-.42.24c-.01-.04-.1.05-.14.08 1.27.86 1.5 1.78 1.57 3.33.08 1.83-1.17 11.86-1.5 13.13-1.13.45-.64.58-1.68.32-1.22-.31-1.01-.12-2.17-.09.43-2.36.63-4.99.94-7.43.26-2.06 1.16-5.92 0-6.72-.84.7-.97 4.64-1.1 5.7-.2 1.69-.61 3.93-.66 5.49-1-.13-1.07-.68-2.27-.62-.69.04-1.26.48-1.84.67-.32-2.02 1.27-6.03.77-7.89zM86.32 3.75c-.54 1.19-3.05 23.21-3.5 27.38-.16 1.44-.35 3.05-.53 4.57-.13 1.07-.1.81-.83 1.57-.55.58-.58.94-1.46 1.1l-1.96-1.79c.04-1.43.83-5.4.49-6.34l-.87 6.24c-1.05.21-.91-.18-1.63.54-.44.44-.65.94-1.12 1.38-.14-.37-.13-.53.29-1.28l2.05-3.27c1.34-2.5-2.03-2.55-2.63-2.83-.16-1.13.32-3.37.47-4.67.35-3.14.64-3.5-.7-4.05-.47 2.68-.72 5.58-1.02 8.24-.49 4.31-.87 2.99-2.81 7.34-.46-.32-.4-.43-.92-.77-1.43-.94-1.26.16-.65-4.73.54-4.33 3.16-27.82 3.66-29.49 1.14-.17 5.23-.17 6.31.18 3.06 1 1.9 8.61 1.5 10.99-.66 3.92-.58 4.03-2.7 5.74 1.28 1.74 1.64 1.7 1.3 5.47-.04.39-.27 1.77.07 1.96l3.05-24.49 3.97-.01c.07.31.01.25.06.55l.1.46z"/><path d="M4.9 23.62c-.28 1.42-.8 2.92-1.02 4.31-.28 1.78.41 2.04 1.15 2.78.21.21.21.23.33.39-4.41-1.03-1.19-6.65-.72-7.23l.26-.25zm21.78 24.72c1.73-.56 2.42-1.08 3.74-2.53.99-1.09 2.44-2.59 3.16-3.92-.65-.01-1.18.02-1.44.34-3.89.24-4.28 2.19-9.7-.89-6.62-3.76-2.78-2.79-2.2-7.67-.51.06-.16-.11-.58.26-.33.29-.1.04-.39.56 0-.07.03-.34.02-.39-.05-.38-.06-.32-.11-.46-1.34 1.17-4.18 2.37-6.69 1.8.85-.4 4.79-.61 6.42-2.51-1.57.28-6.16 1.54-7.89.2.59-.07 2.78.31 3.91.21 3.23-.3 11.1-2.89 6.63-4.53-.23.37.07.12-.08.87-3.09 1.02-6.61 3.3-10.66 1.45-6.16-2.82-6.86-1.9-4.14-8.72.61-.11-.22-.36.31.21l.07.1c.78-1.11 1.16-1.56 2.19-2.4.05.18.02.01-.02.31-.07.6-.1-.09-.08.54 1.15.62 2.39 1.39 3.56 2.08.63.37 1.17.66 1.77 1.02.53.31 1.52.83 1.83 1.29.47-.03 1.03 0 1.4.04 3.36.42 2.2-1.05 3.8-.91-.04-.45-.06-.18.09-.57.81-.18 1.1.11 1.64-.13.51-1.99-1.67-1.05-2.18-1.06l-.93-.16c.05.05.17.15.19.19l.21.28c.03.04.07.11.11.16l-.57-.11c-.48.31-.28.17-.9.3l-1.63.22c-1.34-.25-.42 0-.74-.38-2.74-.33-2.47-.75-4.35-1.94-.32.07 0 .15-.43-.08-1.29-.69-1.06-3.05-.77-3.54.27-.47 1.94-1.87 3.99-1.01.05 2.22.43 4.39 2.64 5.53-2.94-4.64-.65-6.13-2.57-6.72-.97-.3-1.69.34-2.5.41 4.65-2.98 3.53 1.7 4.39 4.25.71 2.12.75 1.65.98 1.6.72-.17-.12.24.4-.41.02 1.25-.39.68.63 1.44l.22-.56c1.24-4.72 2.74-4.75 3.14-5.33-1.91-.65-3.64-.14-5.43-.1.12-1.65-.13-1.3-1.09-2.27.17-1.13.49-1.14 2.57-2.08l4.59-2c2.49-1.16 1.75-.32 6.1.87.02-1.53-2.03-6.96-2.45-8.42-5.5-1.59-13.2.22-17.83 3.6-2.85 2.08-3.9 3.64-5.08 8.01-1.69 6.24-2.67 13.89-.22 19.67 1.03 2.43 2.88 5.22 4.6 7.07 1.45 1.56 5.37 4.61 7.37 5.42 2.52 1.03 8.49 1.55 10.95 1.52z" style="fill:#3e3e94"/><path class="fil3" d="M97.41 23.96c.09-.51.19-1.01.28-1.52.38-2.28 1.07-6.88 1.59-8.71.09.22.1.18.14.55l-.18 2.67c-.09 1.11-.15 2.12-.25 3.22-.09 1.06-.18 2.1-.26 3.2-.17 2.23.03 2.26-1.39 2.08l.07-1.48zm6.16-21.2-1.22-.21c-1.64-.06-4.05-.05-4.74.17L94.36 17.7c.31-2.45 1.02-7.81 1.02-9.8 0-6.15-3.29-5.14-8.65-5.21l-.42 1.06c.37 1.06-3.71 29.36-3.81 32.64 3.11.76 1.84 1.04 3.02 1.94 1.31-.43 2.21-2.17 4.34-1.93 1.24.14 1.04.68 1.66-.25-.11.94.21 1.61.87 2.09 1.33-.03 1.37-.95 2.66-1.24.18-.19.38-.13.65-.75l.78-4.48 1.34.08c.24 1.49-.61 3.31-.09 4.52 1.67.68.95-.79 3.88.67l.71-11.74 1.24-22.55zm-13.5 6c1.7.41.87 2.16.57 5.3-.2 2.03-.52 4.23-.76 6.24l-1.16 9.33c-.24 1.5-.15 2.01-1.33 2.62-.32-.6-.01-1.77.11-2.74.13-1.07.25-1.99.39-3.04.69-5.43 1.3-12.72 2.18-17.71z"/><path class="fil3" d="M76 8.86c1.43.46 1.09 1.17.76 3.95-.17 1.44-.14 3.8-1.62 3.92L76 8.86zm10.31-5.11-.1-.46c-.05-.29.01-.24-.06-.55l-3.97.01-3.05 24.49c-.34-.19-.11-1.57-.07-1.96.34-3.77-.03-3.73-1.3-5.47 2.12-1.71 2.04-1.82 2.7-5.74.4-2.38 1.57-9.99-1.5-10.99-1.08-.35-5.16-.35-6.31-.18-.5 1.67-3.12 25.16-3.66 29.49-.61 4.89-.77 3.79.65 4.73.52.35.46.45.92.77 1.94-4.35 2.32-3.04 2.81-7.34.3-2.66.55-5.56 1.02-8.24 1.35.55 1.06.91.7 4.05-.15 1.31-.62 3.54-.47 4.67.6.29 3.97.33 2.63 2.83l-2.05 3.27c-.42.75-.43.9-.29 1.28.47-.43.68-.93 1.12-1.38.72-.72.57-.33 1.63-.54l.87-6.24c.35.93-.45 4.91-.49 6.34L80 38.38c.88-.16.9-.52 1.46-1.1.73-.76.7-.5.83-1.57.18-1.52.37-3.13.53-4.57.45-4.17 2.97-26.19 3.5-27.38zM43.84 16.94l-.03.13c1.13.76.51.74.13 2.93l1.37.85c.36-2.12.95-11.46 2.21-12.43.91.35.66 1.11.57 2.06l-.96 8.05 4.21.07-.77 5.77-1.94.03c-.87 1.62-1.05 1.59-2.43 2.31l-.44 2.8c1.53.32 3.63-1.33 5.9.68.37.33.41.34.52.74.14.52.02.08.06.5l.05.72c2.1-2.61 1.59-.34 2.12-5.05.34-3.03 1.88-17.95 2.84-18.77.93.49.32 3.14.11 4.82-.53 4.38-1.32 12.69-2.03 16.18 1.15-.02 1.02-.49 2.29-.01.71.27 1.14.73 1.7 1.05l.78-4.47c-.26-.89.27-3.19.42-4.49.48-4.04 1.5-10.54 1.24-14-.18-2.37-1.48-6.31-5.02-4.9-2.57 1.02-3.47 4.66-4.41 7.85-.39-.98.52-6.42-2.67-7.74-3.33-1.37-5.44 2.25-6.48 5.23 2.13 1.43 2.01 4.4.2 6.71-.46.58-1.47 1.25-1.6 1.71 1.26.17.29-.56 2.05.66z"/><path d="m84.89 46.96-.1-.04c-.01.01-.02.03-.04.04h.13zm-5.22.32c-.08-.02-.16-.04-.26-.07 0 .03 0 .06.01.09.08-.01.17-.02.25-.02z" style="fill:#111"/><path class="fil5" d="m102.33 25.3-.71 11.74c-2.93-1.46-2.21.01-3.88-.67-.53-1.21.33-3.03.09-4.52l-1.34-.08-.78 4.48c-.28.62-.48.56-.65.75.02 0 .31.01.34.02 1.12.4.01-.2.28.2 1.2.08 1.76-.38 2.78.66l.5-.39c.22-.2.26-.28.41-.44.9.12 1.42.45 2 .83-.56 2.04-2.54 3.79-2.87 5.91.81-.57 2.33-2.26 3.21-2.36.33 1.24-1.17 2.29-1.88 2.97-.74.71-1.73 1.81-2.74 1.95-.8-.71-.85-1.64-.72-2.87l-1.39 1.59c-.32.38-.87 1.05-1.35 1.24-1.58.63-2.17-1.17-2.41-1.63-.17-.33-.03-.14-.25-.41-.65.69-2.54 2.03-3.88 2.25-2.62.42-2.63-1.3-3.26-2.65-1.09.78-2.35 2.46-3.58 2.67-1.02-.77-.77-2.27-.55-3.65-1.54 1.08-2.64 3.7-4.76 3.69-1.3-.88-.88-1.63-1.17-2.97-.71.99-2.5 2.92-3.69 3.01-1.05-.71-.73-1.45-.69-2.67l-1.14.76c-.27.27-.48.48-.77.75-2.76 2.52-2.43.45-2.65-1.14l-.11-.5c.01-.09-.03-.12-.05-.17-.75 1.5-2.84 4.45-4.47 2.29-1.69-2.25.56-4.27.99-6.09-.25-.52-.15-.09-.22-.82-.78.71-2.42 3.57-3.12 5.04-.49 1.04-.87 2.06-1.08 3.22-.49 2.63.48 1.41.27 2.65-2.3.17-2.15-2.76-1.72-4.7.6-2.72 1.45-3.95 2.38-6.21-1.19.74-3.24 3.69-4.19 5.09l-3.68 6.04c-4.75-1.28 1.32-11.18 2.02-13.11-1.11.72-3.82 4.12-4.79 5.44-1.39 1.89-2.83 3.89-3.85 6.36.68.45.61.17-.03 2.13l.94.24-.87.2c.64.6 1.38.61 1.76-.4.2-.52.56-.94 1.03-1.21.12-.3.27-.62.46-.98l.72-.96.35.9c.09.31.15.55.22.74.39.07.77.24 1.09.5.12.1.25.19.38.27.32.22.62.47.9.73.14.13.36.36.54.46.46.26.48.28 1 .17.12-.03.25-.05.37-.05.08-.2.16-.39.25-.59.27-.6.75-1.04 1.37-1.27l.71-1.23c.5.64.43.85.54 1.1.39.06.77.21 1.1.45.42.22.76.54.98.94.08.05.17.09.24.13.25.12.46.28.63.45.1.07.43.11.67.14.17-.16.38-.36.44-.5.04-.08.01-.19-.01-.27-.18-.63-.09-1.28.23-1.82.05-.56.24-1.31.7-2.32.69.63.87.33 1.5.99l.12.12c.38.03.76.14 1.11.34.61.36 1 .23 1.56-.15.47-.33 1.02-.48 1.57-.45l.06-.03.03.03c.43.04.84.18 1.21.44.11.07.22.14.34.19h.05c.07 0 .15.01.23.01.07-.03.13-.06.2-.08.04-.01.07-.03.11-.04.11-.04.23-.07.34-.11.45-.36.99-.54 1.54-.55.12-.06.26-.11.43-.16.06.08.11.15.15.22.4.09.78.28 1.1.56.12.1.25.19.39.27.22-.11.44-.22.68-.3.04-.02.08-.03.12-.04.43-.47 1.01-.73 1.67-.77.71-.04 1.36.19 1.87.67.2.18.4.29.68.3.58.03.92-.25 1.38-.56.33-.22.69-.36 1.06-.41 0-.03 0-.06-.01-.09.09.02.17.04.26.07.6-.02 1.2.16 1.69.56.11.09.22.17.33.25.06.04.22.17.29.19.09.02.18.03.27.05l.95-.79c.45-.37 1-.56 1.56-.57.01-.01.02-.03.04-.04l.1.04a2.5 2.5 0 0 1 1.58.63c.38.34.58.48 1.08.61.1.03.4.11.51.1.27-.03.52-.03.79.02l2.19-1.03a2.6 2.6 0 0 1 1.42-.22c.08-.03.17-.06.28-.1.06.06.11.13.16.2.43.14.82.4 1.13.76.11.12.6.19.75.2.39.04.62-.05.93-.28.36-.26.77-.42 1.19-.47l.21-.24c.16.09.29.17.39.24.4.05.79.19 1.14.44.14.1.36.19.56.27l3.64-3.13c.31-.32.94-1.16.78-1.62a.207.207 0 0 0-.06-.1c-.76-.79-.88-1.96-.29-2.89l.05-.08.45-2.1c-.07-.27-.08-.54-.04-.83.01-.1.03-.21.04-.31-.05-.26-.06-.52-.03-.78 0-.03-.01-.09-.01-.12-.06-.35-.04-.68.05-1.03.05-.19.14-.38.18-.56.03-.18-.08-.65-.11-.83 0-.02-.01-.04-.01-.05-.16-1.22.13-3.12.35-4.36l.25-1.9c-.21-.61-.17-1.25.14-1.83l.06-.12c-.11-.28-.15-.58-.14-.89l.03-.96c-.23.13-.08.19-.4.63-.47.64.11.1-.88.6-.02.01-.07.04-.08.05l-.83.45z"/><path d="M27.68 2.98c.12.23.3.47.94.66.11-.28.14-.58.16-.86-.35.15-.73.22-1.1.2z" style="fill:#5a5a5a"/><path class="fil3" d="M65.62 16.82c-.25-1.22.58-6.26.87-7.9 1.39.61 1.02 1.57.71 3.94-.28 2.14-.16 3.74-1.57 3.95zm-5.5 9.08c.5 1.85-1.09 5.87-.77 7.89.58-.18 1.15-.63 1.84-.67 1.2-.06 1.27.49 2.27.62.04-1.57.45-3.81.66-5.49.13-1.06.25-5 1.1-5.7 1.16.81.26 4.66 0 6.72-.31 2.44-.51 5.07-.94 7.43 1.16-.03.96-.21 2.17.09 1.04.26.56.13 1.68-.32.33-1.28 1.58-11.3 1.5-13.13-.07-1.55-.3-2.47-1.57-3.33.05-.03.13-.12.14-.08l.42-.24c1.68-1.05 1.89-3.22 2.21-5.22.39-2.41 1.61-10.06-1.19-11.18-1.86-.74-4.64-.15-6.54-.39-.74 3.44-2.39 21.36-2.97 23.02z"/><path class="fil7" d="M62.12 44.13c-.3-1.25 2.13-5.17 4.38-5.19-.15.5-3.28 5.01-4.38 5.19zm31.44-.3c-.15-1.2 1.78-4.76 4.39-5.17-.17.64-3.23 5.05-4.39 5.17zm2.11-6.61c-.48.52-.6.45-1.13.81-.4.28-.77.62-1.15 1.01-.99 1.04-1.07 1.49-1.81 2.8-.89 1.56-6.66 5.1-5.05.74.23-.61.61-1.24.95-1.71.62-.86 1.69-1.95 2.77-1.56-.07.7-.13.71-.65.99-.79.43-.58-.16-.99.62 1.35.89 3.05-.55 2.82-2.29-.34-2.49-4.27-1.87-6.7 2.32-.85 1.46-1.85 2.11-3.08 3.09.23-1.84 2.92-4.92 2.81-5.83-.5-.71-.86-.89-1.97-.89l-5.83 6.77c-.34-.6-.24-.02-.15-.8.09-.79 2.11-3.29 2.46-4.69-.49-.76-.68-1.05-2.01-1.24-1.21.67-1.66 2.39-2.31 3.75-.37.77-2.23 2.21-2.85 2.63.22-3.37 4.69-9.64 4.99-10.89-.49-.66-.76-.79-1.68-.98-2.57 2.23-4.89 9.38-5.43 10.01-.26.3-.9.78-1.26 1.09l-.97.74c-.51.32-.05.05-.45.25.58-1.85 2.7-4.59 2.79-5.73-.46-.44-.96-.76-1.85-.91l-.87.88-.68-.58c-1.19-.71-2.93.24-3.88 1.12l-.89.87c-.27.2-.16.13-.42.25-.43 1.82-2.69 3.84-.99 6.09 1.63 2.17 3.72-.78 4.47-2.29.02.05.06.08.05.17l.11.5c.22 1.59-.11 3.66 2.65 1.14.29-.27.5-.48.77-.75l1.14-.76c-.04 1.22-.36 1.97.69 2.67 1.2-.09 2.98-2.02 3.69-3.01.29 1.35-.13 2.09 1.17 2.97 2.13.01 3.22-2.6 4.76-3.69-.22 1.38-.47 2.88.55 3.65 1.23-.21 2.49-1.89 3.58-2.67.63 1.35.64 3.07 3.26 2.65 1.33-.21 3.23-1.56 3.88-2.25.21.28.08.08.25.41.23.46.83 2.27 2.41 1.63.48-.19 1.04-.87 1.35-1.24l1.39-1.59c-.13 1.23-.08 2.16.72 2.87 1.01-.15 2-1.24 2.74-1.95.71-.68 2.22-1.73 1.88-2.97-.88.1-2.4 1.79-3.21 2.36.33-2.12 2.32-3.88 2.87-5.91-.59-.38-1.11-.72-2-.83-.15.16-.19.24-.41.44l-.5.39c-1.02-1.04-1.58-.58-2.78-.66z"/><path class="fil7" d="M43.19 48.87c1.02-2.46 2.46-4.47 3.85-6.36.98-1.33 3.69-4.72 4.79-5.44-.7 1.94-6.77 11.83-2.02 13.11l3.68-6.04c.95-1.39 3-4.34 4.19-5.09-.93 2.26-1.78 3.49-2.38 6.21-.43 1.94-.58 4.87 1.72 4.7.21-1.25-.76-.02-.27-2.65.21-1.16.59-2.18 1.08-3.22.69-1.46 2.34-4.33 3.12-5.04.64-1.18 2.24-2.78 2.47-3.97-2.23-2.85-5.12.44-7.2 2.62-2.07 2.16-3.62 4.72-5.48 7.06 1.03-3.76 7.84-12.03 8-13.85-2.77-1.99-3.75-.36-6.47 2.27-3.27 3.17-7.57 9.85-8.37 10.56.97-2.59 7.58-11.83 7.56-12.56-1.1-1.68-3.26-1.26-4.97-.87-1.88.42-3.25 1.11-4.64 1.93-4.15 2.46-6.2 7.03-2.89 8.26-.13-1.4-.21-1.99.76-3.41 1.6-2.37 5.02-4.44 7.93-4.93-1.8 3.45-6.57 9.9-6.8 14.98-.04.82.05 1.76.41 2.33.93 1.47 1.54.67 1.94-.61z"/><path class="fil8" d="m39.57 24.65-.49-.06c-.33.38.09.05-.41.11-1.52.18-3.96.06-5.38-.82-.49-.3-.45-.42-.54-.61l-.37-.25c-.72-.49-1.71-1.45-2.34-2.05-2.35-2.26.28-7.34 4.66-4.87-.56 3.48.58 5.43 2.69 7.3-.21-.76-.37-.75-.66-1.31-2.14-4.16.52-7.58-2.59-7.67-1.2-.04-2.35.56-3.27.65 1.05-.11 5.58-3.11 5.47 1.1-.09 3.52.3 4.29 1.23 6.91.39-.16.25.53.36-.52.04.06.12.07.12.18 0 .15.16.25.21.34l.56-1.78c.68-1.27.27-.39.75-.66-.35 1.1-.88 2.31-.61 3.36.48-1.71 1.01-2.88 1.92-4.28.37-.56.74-1.18 1.29-1.63.68-.55 1.22-.38 1.63-1.01l.03-.13c-.25.07-.15.07-.58.04l-3.88-.64c2.03-1.31 2.56-.83 3.87-2.84 1.26-1.93.99-4.21-.68-5.09-.54 4.41-4.28 2.69-6.74 3.27-1.18.28-1.08.92-1.95 1.6-.73-1.26 1.63-1.94.05-3.5-1.17 1.31 0 .14-2.3 1.32-.85.44.22.47-1.04.17-.32-1.6 3.78-6.43-.98-8.75-.09 3.37-1.84.46-.43 5 .36 1.17 1.53 3.55.6 4.58-1.13.32-3.57-.8-4.73-1.25l-.74.34c-.04.02-.1.03-.14.05-.04.01-.1.03-.15.04l-6.89 3.01 1.03 1.73c9.34-.76 3.92 2.15 5.36 5.58l1.04-1.02c-.22.68-.69 1.01-.56 1.7.87-1.38 2.24-2.57 3.5-3.01l-.99 1.03c.99.86 2.44 1.84 3.72 2.78 2.1 1.54 5.48 4.85 9.08 3.51.71-.27 1.26-.49 2.01-.76 1.18-.42 1.16-.09 1.82 0h.5c.41-.89.05-1.26-.46-1.8-1-.06-3.38.75-3.59.61z"/><path d="M70.96 3.17c.21.28.09.45.64.71l.18-1c-.25.14-.53.24-.82.28zm9.48-.13c.18.22.3.43.71.65l.16-.93c-.27.15-.57.25-.87.29z" style="fill:#434344"/><path class="fil8" d="M31.76 41.42c.48-.24 1.88-.84 2.59.1.32 1.31-1.85 2.8-2.4 3.95 1.69 1.57 4.07 1.62 5.28-.29-1.86-1.02-1.64-1.26-1.28-3.46.38-2.34-.35-2.62-.56-3.61.96.46.67.62 1.21 1.21l.33-2.93c-.99-.13-3.23.45-4.75.44-1.61-.01-3.95-.38-4.87-1.53 3.31.67 4.15 1 7.38.76 2.8-.2 2.7-.48 4.77-3.13-2.19.14-5.58 1.54-7.73 1.43-3.03-.15-5.38-2.53-7.81-3.57-4.13 2.64-2.01 2.63-4.43 7.23l.81.11c-.09 1.06-.51.8 2.01 2.23 1 .56 2.05 1.1 3.08 1.51.66-.53.41-1.21 1.54-1.71l.41 1.94c2.43.32 2.14-1.37 2.98-2l.73 1.29.71.03z"/><path d="m105.83 8.81-.02.07h.1c-.03-.02-.05-.05-.08-.07z" style="fill:#262626"/><path d="M70.46 47.58c-.04-.07-.09-.14-.15-.22-.18.05-.32.1-.43.16.2 0 .39.02.58.06zm-4.6.08-.03-.03-.06.03c.03 0 .06 0 .09.01zm-4.32.25-.12-.12c-.63-.66-.81-.36-1.5-.99-.46 1.02-.65 1.76-.7 2.32.16-.27.38-.52.66-.72.49-.36 1.08-.52 1.66-.48zm-6.61 1.69c-.12-.25-.05-.45-.54-1.1l-.71 1.23c.09-.03.18-.06.27-.08.33-.08.66-.1.99-.05z" style="fill:#212121"/><path d="M97.49 47.37c-.1-.08-.23-.16-.39-.24-.08.08-.15.16-.21.24.2-.02.4-.02.6 0zm-4.6-.22c-.05-.07-.11-.14-.16-.2-.11.03-.2.07-.28.1.15.02.3.05.45.1z" style="fill:#0d0d0d"/><path d="m53.26 4.5.13.16c.09-.07.17-.14.25-.2l-.18.03c-.06.01-.13.01-.19.01zm8.12-1.41c.25.19.5.36.79.47.04-.24.07-.44.08-.61-.28.1-.58.15-.87.14z" style="fill:#4c4c4c"/><path class="fil14" d="M95.13 3.53c.62.84.44.22 1.24.89l.32-1.3c-.22.14-.47.25-.73.33-.28.07-.56.1-.83.09z"/><path class="fil15" d="m17.22 27.59-.48.94c-.41-.6-.05-.05-.37-.36-.48-.45-.19-.04-.4-.56l.29-.7.97.67zm-.89-2.05c-.06.03-.2.07-.24.07l-.4-.04c-2.17-.5-1.36-.81-2.42-1.22-.57.26-.48.11-.74.69.13-1.12-.3-1.66-1.23-1.49l-.86.27c-.17-2.63-2.93-.99-2.06 2.37.79.19.8.16 1.33-.23.17.99.9 2.13 2.27.65-.06.89-.04 1.2 1.18 1.22 2.19.03-.2-.3 1.77.3-.55.28-.54.32-.82 1.04-.2-1.24-1.16-1.15-1.93-.63-.83-1.49-1.43-.84-1.85-.92-.78-.14-.17-.8-1.8-.43-.32 1.69.37 1.31 1.37 1.93.71.44.11.68 1.54.97l.74.25c.55.39.36.94 1.64.64 2.46-.59 1.77.76 3.17-1.04.86.77 1.5.47 1.99-.59-.18-.46-.37-1.14-.48-1.71l-1.29-.04 2.38-1.06c1.17-.26 1.53-.52 1.93-1.86-1.6-.14-.43 1.33-3.8.91-.37-.05-.93-.07-1.4-.04z"/><path class="fil14" d="M47.78 49.52c-.06-.19-.13-.43-.22-.74l-.35-.9-.72.96c-.19.36-.34.69-.46.98.19-.11.41-.2.64-.26.37-.1.75-.11 1.11-.04z"/><path class="fil5" d="M31.76 41.42c.5.43.3.14.38.81.25-.32.78-.36 1.44-.34-.72 1.33-2.17 2.83-3.16 3.92-1.32 1.45-2.01 1.97-3.74 2.53-.39.76-.59 1.29-.41 1.65.59.05 1.17.09 1.74.22.26-.14.51-.24.81-.31.25-.05.5-.11.73-.2.6-.23 1.3-.87 1.76-1.31.18-.17.35-.34.53-.52.77-.76 1.93-.94 2.9-.45.83.42 2.01.77 2.92.41.39-.15.8-.21 1.2-.16.25-.25.43-.5.6-1.23-.63-.75-.25-.18-.87-.62-.33-.23-.38-.37-.62-.61l-.75-.03c-1.2 1.91-3.59 1.86-5.28.29.56-1.15 2.72-2.64 2.4-3.95-.71-.94-2.11-.35-2.59-.1z"/><path class="fil16" d="m32.38 23.03.37.25c1.25.75 2.56 1.09 3.76.83.15-.61.15-.59-.02-1.02-.68-.18-1.56.46-2.13-.49-.54-.91.21-1.36.08-2.29-.14-1.03-1.09-1.79-.46-4.11-2.09-.88-4.32-.08-4.41 2.29-.1 2.67 1.45 2.95 2.8 4.54z"/><path class="fil5" d="m88.72 29.63 1.16-9.33c.23-2.01.56-4.21.76-6.24.3-3.14 1.13-4.89-.57-5.3-.88 4.99-1.49 12.28-2.18 17.71-.13 1.05-.25 1.96-.39 3.04-.12.97-.43 2.15-.11 2.74 1.18-.61 1.08-1.12 1.33-2.62z"/><path d="M32.38 23.03c-1.35-1.59-2.9-1.87-2.8-4.54.09-2.38 2.32-3.17 4.41-2.29-.63 2.32.32 3.08.46 4.11.13.93-.62 1.38-.08 2.29.57.95 1.45.31 2.13.49.17.43.16.41.02 1.02-1.2.26-2.51-.08-3.76-.83.09.19.05.31.54.61 1.43.88 3.86 1 5.38.82.49-.06.08.27.41-.11l-.96-.77c-.64-.37-.33.17-.55-.75-.93-2.62-1.33-3.39-1.23-6.91.11-4.21-4.42-1.21-5.47-1.1.92-.1 2.07-.69 3.27-.65 3.1.09.44 3.51 2.59 7.67.29.56.44.55.66 1.31-2.11-1.86-3.25-3.82-2.69-7.3-4.38-2.47-7.01 2.62-4.66 4.87.63.61 1.62 1.56 2.34 2.05z" style="fill:#0c0c0c"/><path class="fil15" d="M32.15 26.02c-.62 1.22-.48 1.78-.59 2.87 1.1 1.01 2.55 1.48 3.06-.46.71.74.36.74 1.59.92.05-.03.13-.11.14-.07l1.25-.57c1.71-.81 3.31.31 3.76-2.48-.68-.1-2.31.49-3.05 1.27-1.02-.68-2.05-.59-3.36-.79l-.54.78c-.13-1.6-1.42-.83-2.26-1.46z"/><path class="fil16" d="M12.49 21.46c1.88 1.19 1.61 1.61 4.35 1.94.68-.23.51.15.61-.81-1.37-.58-.08-.06-1.01-.05-1.61 0-.86-1.11-1.01-2.06-.17-1.08-.53-.18-.81-3.44-2.54-1.03-4.76 2.27-2.13 4.43z"/><path d="M37.98 45.21c.24.24.29.38.62.61.62.44.24-.13.87.62-.17.73-.35.99-.6 1.23.24.03.47.09.71.19.19.08.36.17.51.29 0-.03 0-.06-.01-.09-.08-1.7.39-3.41 1.02-5.15-1.62-.5-1.66-1.15-2.7-1.38l-.42 3.68z" style="fill:#363636"/><path class="fil16" d="M31.85 30.88c-.43-1.28-.43-1.25-2.13-1.24-1.22 2.88.54 3.8 1.6 3.48.82-.25.64-.49.61-1.39.33 2.9 4.31 1.79 2.99-1.62a3.17 3.17 0 0 0-1.89-.26c-.91.13-.8.22-1.18 1.03z"/><path class="fil8" d="M43.7 20.89c-.14.78-.14 1.9.05 2.63.31 1.23.83.76.32 2.5 4.15.25 4.61-2.89 3.79-4.68-1.9 1.11-2.24.33-4.15-.46z"/><path d="M12.49 21.46c-2.63-2.16-.41-5.47 2.13-4.43.28 3.26.64 2.36.81 3.44.15.95-.61 2.07 1.01 2.06.93 0-.35-.52 1.01.05-.1.96.07.59-.61.81.31.38-.6.13.74.38l1.63-.22c.61-.13.41.01.9-.3l-.49-.72c-.04-.05-.1-.11-.15-.17l-.22.56c-1.02-.76-.61-.2-.63-1.44-.51.65.33.23-.4.41-.23.05-.27.52-.98-1.6-.86-2.55.26-7.23-4.39-4.25.81-.07 1.52-.71 2.5-.41 1.92.59-.37 2.08 2.57 6.72-2.21-1.15-2.59-3.32-2.64-5.53-2.05-.86-3.71.54-3.99 1.01-.28.49-.52 2.84.77 3.54.43.23.11.16.43.08z" style="fill:#070717"/><path class="fil20" d="M26.35 26.63c1.11.7.45 1.47 2.48 1.69l.67-.72c.38-.68.58-1.04.75-1.76.45-1.71-.43-2.93-2.12-1.69-.02-.05-.03-.2-.05-.17-.24.28-.09-.27-.11-.32-.13-.34-.02-.16-.18-.42-.47.93-1.18 2.42-1.44 3.38z"/><path class="fil1" d="M97.34 25.44c1.42.18 1.22.15 1.39-2.08.08-1.09.17-2.14.26-3.2.1-1.1.16-2.12.25-3.22l.18-2.67c-.05-.37-.06-.33-.14-.55-.52 1.83-1.2 6.43-1.59 8.71-.09.51-.19 1.01-.28 1.52l-.07 1.48z"/><path class="fil8" d="M39.16 28.89c.73.61.71 1.17 1.32 1.93 1.36.3 3.27.12 3.56-1.36-1.52.16-1.38-.88-1.82-1.87-1.09.1-.88.35-2.15.84l-.9.46z"/><path class="fil21" d="M65.62 16.82c1.41-.21 1.29-1.81 1.57-3.95.31-2.37.68-3.33-.71-3.94-.28 1.64-1.11 6.68-.87 7.9zM75.14 16.73c1.48-.12 1.45-2.48 1.62-3.92.33-2.78.67-3.48-.76-3.95l-.86 7.87z"/><path class="fil8" d="M40.47 37.48c.27.52 1.23 1.66 1.9 2.02 1.32-1.19 1.41-3.14.77-4.54-.76.39-2.16 1.48-2.66 2.52z"/><path class="fil16" d="M26.35 26.63c.26-.97.97-2.45 1.44-3.38.07-.94-.16-.87-1.24-1.02-1.13 1.1-2 2.55-1.29 4.36.54.19.62.38 1.09.04zM30.25 25.85c-.17.72-.37 1.07-.75 1.76-.29.71-.25 1 .53 1.39.19.1.66.25.88.24.66-.02.31.11.64-.34.11-1.09-.03-1.65.59-2.87-.01-.42.23.04-.12-.56-.21-.34-.2-.28-.59-.52-.6.15-1 .21-1.19.9zM36.2 29.35c-1.25.86-.93.11-1.01 3.11 2.8 1.31 2.61-1.05 2.04-2.84l-1.03-.28z"/><path d="M62.12 44.13c1.1-.18 4.22-4.68 4.38-5.19-2.25.02-4.67 3.93-4.38 5.19z" style="fill:#0b0102"/><path class="fil1" d="M93.56 43.82c1.17-.13 4.22-4.54 4.39-5.17-2.61.42-4.54 3.98-4.39 5.17z"/><path class="fil23" d="M39.67 23.57c.42.67.83.82 1.75.47.58-.22 1.15-.41 1.75-.66.16-.84.14-2.36-.33-3.1-2.3 1.35-.76 2.15-1.85 3.03-.44.35-.74.11-1.32.27z"/><path class="fil16" d="M28.69 31.73c.55-.4.8-1.45.66-2.16-.13-.66.25-.31-.59-.77-2.38-1.32-2.43 3.4-.08 2.93zM39.17 29.23c-3.13-.83-1.15 2.78-.93 2.92.81.53 1.65.01 1.65-.95 0-.34-.63-1.7-.72-1.97z"/><path d="M4.64 23.86c-.47.57-3.69 6.2.72 7.23-.11-.16-.11-.18-.33-.39-.74-.74-1.43-1-1.15-2.78.22-1.39.73-2.88 1.02-4.31l-.26.25z" style="fill:#02020b"/><path class="fil23" d="m20.16 22.75.93.16 1.62-.73c.07-.78-.06-1.89-.46-2.56-1.6 1.01-.56 1.15-1.35 2.77l-1.05-.02c.08.63-.09-.03.31.37zM18.99 29.34c2.03 1.17 1.97-.7 1.09-1.82-.47-.6-.42-.42-1.27-.47-.42 1.4-.05 1.16.18 2.28z"/><path d="M25.18 27.88c-.34 1.32.02 2.1 1.59 2.26.43-1.35.65-1.88-.68-2.48l-.9.22z" style="fill:#f8f9f9"/><path d="M37.58 23.08c.22.91-.09.38.55.75l.96.77.49.06c-.04-.05-.07-.19-.11-.16-.04.04-.08-.12-.11-.15-.05-.06-.34-.32-.38-.35-.28-1.05.26-2.26.61-3.36-.49.28-.07-.61-.75.66l-.56 1.78c-.05-.09-.2-.19-.21-.34 0-.1-.08-.12-.12-.18-.11 1.05.04.36-.36.52z" style="fill:#707006"/><path class="fil23" d="m43 27.19.41 1.48.98-.1.25-1.64c-.9-.1-.95-.17-1.65.26z"/><path d="M48.76 20.83c-.16.61.04 1.04.11 1.63l1.06-.31c.03-.01.1-.03.14-.04.38-1.47.24-1.47-1.31-1.27z" style="fill:#3f3f3f"/><path class="fil20" d="m43.94 34.49.26 1.71 1.61-2.56c-.79.04-1.37.45-1.88.84z"/><path d="M56.54 36.1c1.09-.78 2.1-1.41 2.29-3.2l-2.29 3.2z" style="fill:#e2e2df"/><path d="m17.22 27.59-.97-.67-.29.7c.21.52-.08.11.4.56.32.31-.04-.25.37.36l.48-.94z" style="fill:#0a0a09"/><path d="m20.28 27.23.52.32c.31-.28.41-.04.42-1.03-.62.05-.8.04-.94.72z" style="fill:#ebec08"/><path d="M40.49 31.52c.38.31.19.42.76.16-.55-.9-.55-.26-.76-.16z" style="fill:#bac608"/><path d="M91.4 36.33c1.41-8.17 3.44-21.16 4.86-29.33M59.48 31.46c1.02-8.32 2.28-20.34 3.3-28.66m9.43.11c-1.26 10.29-2.33 21.93-3.59 32.22M79.9 20.94c-.6 4.89-1.2 9.77-1.79 14.66" style="fill:none;stroke:#000;stroke-width:1.68;stroke-miterlimit:22.9256"/></g></g></svg>