<svg xmlns="http://www.w3.org/2000/svg" xml:space="preserve" width="128" height="64" style="shape-rendering:geometricPrecision;text-rendering:geometricPrecision;image-rendering:optimizeQuality;fill-rule:evenodd;clip-rule:evenodd" viewBox="0 0 107.35 53.68"><defs><style>.fil1{fill:#000}.fil2{fill:#fff}</style></defs><g id="Camada_x0020_1"><g id="_2482275117184"><path d="M80.34 10.37c-.07-.15-.11-.3-.15-.45-.28-1.13.03-2.14 1.11-2.73.57-.31 1.01-.35 1.62-.46l3.19-1.25c1.46-.57 2.61-1.32 3.81-2.21.88-.66 1.89-1.49 3.06-1.72.04-.01.09-.02.13-.02.07-.04.14-.07.21-.11.61-.28 1.25-.46 1.97-.44.22.01.61.08.81.07.38-.2.71-.45 1.09-.65.61-.31 1.23-.43 1.96-.38.26.02.49.08.74.16.06.02.16.05.23.07.07-.02.17-.07.22-.09.35-.13.7-.17 1.1-.14 1.17.08 2.34.61 3.01 1.54.74 1.02.63 2.18-.1 3.08a.57.57 0 0 1-.11.11l-1.58 1.38-.12.09c-.16.1-.61.37-.74.52-.16.35-.22.51-.5.83l-.07.07-.6.55c.14.02.28.04.41.07.43.09.89.24 1.33.35.55.14 1.17.3 1.62.65.25.19.41.42.63.62.09.05.46.13.58.17.56.18 1.01.45 1.39.87 1.48 1.67.66 3.82-1.45 4.32-.62.15-1.38.19-1.96.38-.74.25-1.38.36-2.13.43.49.67.65 1.44.34 2.24-.14.35-.34.66-.58.95-.11.14-.28.3-.37.44-.19.33-.43.6-.72.82.12.05.23.1.35.16.15.08.26.17.38.25.18-.02.37-.06.56-.07 1.58-.06 3.84 1.28 4.23 2.72.37 1.4-.08 2.5-1.49 3.04-.91.35-1.84.36-2.78.58-.01 0-.02.01-.04.01-.59.11-2.2.32-3.44.56.52.21.89.51 1.25 1.08.91 1.43.45 3.13-1.13 3.78-.44.18-.89.26-1.38.32-.31.04-.65.06-.95.15-.34.1-.69.23-1.03.31-.41.1-.9.14-1.31.18h-.03c.09.14.17.29.23.45.31.77.38 1.52-.05 2.21-.22.35-.55.58-.75.89-.03.05-.06.12-.08.17-.09.18-.19.34-.34.49-.1.11-.21.2-.33.29.23.11.46.23.68.36.41-.01.77-.09 1.18-.07.89.05 1.67.61 2.34 1.12 1.29.98 1.79 2.09 1.17 3.46-.36.79-1.11 1.16-2.02 1.32-.52.09-1.16.1-1.64.23-.23.06-.41.18-.68.24-.19.04-.43.07-.62.09-.34.04-.67.09-1.01.14-.56.08-1.33.17-1.85.33-.26.08-.48.16-.75.23-.32.07-1.1.31-1.42.3-.15-.01-.25-.04-.39-.07-.08-.02-.17-.03-.26-.04a1.3 1.3 0 0 1-.28.22c-.45.26-.92.3-1.34.51-.31.15-.62.24-.96.3-.17.03-.38.06-.54.12-.41.14-.87.32-1.3.37-.37.04-.8-.01-1.18-.04-.36.1-.82.31-1.14.44-.34.14-.82.32-1.14.5-.13.1-.28.17-.47.2h-.03c-.31.16-.62.18-.98.2-.26.22-.57.32-.99.29-2.36-.17-5.56-1.47-6.38-3.69-.15-.4-.23-.74-.25-1.06-.21.56-.47 1.11-.81 1.52-.15.18-.2.52-.25.74-.17.66-.46 1.14-1.04 1.56-.34.25-.43.37-.67.67-.33.41-.78.62-1.29.82-.04.11-.07.24-.12.34-.14.35-.36.65-.66.9-.01.01-.02.02-.03.02-.72.57-1.43.76-2.44.69-.59-.04-2.53-.41-3.02-.66-.64-.32-1.18-.75-1.49-1.35-.1-.2-.15-.35-.19-.5-.18.01-.37.02-.55 0-.41-.03-.85-.24-1.24-.33-.43-.09-.83-.12-1.27-.25-1.24-.36-1.85-1.15-2.69-1.95l-.71-.54c-.18-.14-.32-.28-.45-.42-.26.42-.61.8-.95 1.16-.24.25-.41.53-.68.77-.45.42-1.01.64-1.66.76-.09.02-.27.32-.3.39-.29.52-.52 1-1.05 1.36-.35.24-.71.34-1.12.47-.05.02-.25.08-.28.13-.37.53-.86.94-1.54 1.12-.22.06-.43.09-.66.11h-.03c-.21.85-.66 1.47-1.6 1.81-1.82.66-3.66-.06-4.63-1.67a2.63 2.63 0 0 1-.79-.36c-.58-.39-.88-.81-1.1-1.41-.09-.23-.13-.4-.34-.58-.64-.57-1.06-1.62-1.42-2.35-.05-.11-.09-.2-.12-.29-.32.08-.38.21-.57.59-.26.51-.54.87-.98 1.26-.27.23-.43.38-.61.69-.26.45-.56.87-1.01 1.17-.16.11-.41.2-.54.32-.12.1-.22.3-.3.42-.28.43-.62.73-1.09 1-.51.3-1.42.5-2.05.46-.04 0-.07-.01-.1-.01-.77-.12-1.45-.39-2.05-.88-.19-.15-.35-.32-.51-.49-.05-.05-.12-.13-.18-.18-1.39-.59-2.38-1.51-2.28-2.92.05-.72.36-1.37.6-2.04a.98.98 0 0 1-.21-.28l-.65-1.26a.3.3 0 0 1-.04-.1c-.52-1.37-.05-2.53 1.12-3.32.76-.52 1.53-.73 2.38-1.09.4-.17.72-.2 1.13-.3.09-.02.1-.02.15-.1.01-.02.02-.03.03-.05l4.32-6.08c.31-.44.63-.99.98-1.4.37-.44.99-.89 1.44-1.27.18-.15.34-.41.48-.59.01-.02.02-.03.04-.05-.22-.18-.45-.35-.66-.52-.12-.09-.29-.27-.48-.45-.1.16-.21.32-.33.48-.27.34-.58.64-.83.98-.47.65-.96 1.02-1.82 1.19-.29.06-.31.06-.48.31-.07.11-.12.24-.18.36-.11.24-.24.46-.42.67-.65.74-1.1.71-1.94 1-.05.05-.12.15-.16.2-.15.2-.29.38-.48.55-.62.55-1.43.71-2.32.64-.43-.03-.85-.13-1.25-.3-.01 0-.01-.01-.02-.01-.1.17-.19.34-.24.44-.31.58-.65 1.11-1.01 1.65-.28.42-.54.83-.74 1.29-.85 1.87-3.14 2.86-5.26 1.52-.56-.35-1.63-1.24-2.02-1.73-.43-.54-.68-1.1-.6-1.75.03-.29.15-.58.17-.86l-.03-.56c-.3.01-.6.03-.89.02-.74 0-1.47-.1-2.21-.22-2.39-.38-5.25-1.57-6.38-3.69-1.7-3.17-1.21-6.03.05-9.03.24-.56.6-1.02.88-1.55.53-1.01 1.41-1.87 2.12-2.78.74-.94 1.69-1.59 2.62-2.35.21-.18.38-.4.6-.58 1.12-.98 2.49-1.62 3.83-2.32.38-.2.78-.4 1.21-.5.25-.06.42-.08.67-.17.57-.2 1.04-.54 1.64-.74.64-.22 1.31-.28 1.95-.47 1.21-.36 2.53-.57 3.71-.97 1.35-.46 2.36-.73 3.83-.07.75.34 1.3.86 1.58 1.57.05.14.09.26.11.37.53-.05 1.06-.15 1.57-.2 1.34-.12 2.64-.17 4.01-.04.94.09 1.79.2 2.74.21.98 0 1.76.33 2.68.6.5.15 1.03.23 1.53.37.75.2 1.4.49 2.05.9.26.16.59.29.87.42.49.23.91.49 1.26.88.18.2.35.39.5.59.08-.1.16-.19.22-.3.25-.39.28-.63.66-1 .23-.22.55-.38.75-.58l.01-.01.52-.52c.02-.02.05-.04.07-.07.27-.22.5-.56.73-.82.31-.34.66-.59 1.08-.81.27-.14.55-.26.8-.42.27-.17.47-.4.74-.58.49-.33 1.07-.41 1.69-.45.89-.06 1.81.12 2.69.35.34.09.67.19 1 .29.15.04.36.11.51.14.98.14 1.81.52 2.36 1.3.05-.05.11-.1.17-.14.18-.13.38-.23.55-.36.17-.14.31-.32.49-.46.79-.65 2.8-1.19 3.9-.98.86.16 1.49.48 2.09 1.08.08.08.27.18.37.23.32.17.61.34.87.59.6.57.76 1.3.93 2.02.16-.34.34-.67.55-.98l1.56-2.64c.01-.02.02-.03.03-.05.58-.84 1.81-1.33 2.94-1.25.48.03.78.12 1.08.25.13-.27.21-.54.4-.81.57-.79 1.87-1.12 2.91-1.03 1.58.15 2.66 1.15 3.05 2.52.07.25.09.5.09.75.16-.04.37-.08.49-.14.23-.1.42-.19.66-.28.09-.03.18-.06.27-.08z" style="fill:#fefefe"/><path class="fil1" d="M71.86 34.94c0-1.19.79-.99 1.34-1.19-.03.3-.08.28-.3.39-.64.32-.41.47-1.03.8zm-4.96-7.95c.19-.31.14-.21.48-.39 0 .3.06.52-.29.49-.01 0-.19-.1-.19-.1zm18.89.98v.17c.65.05 1.08-.01 1.62-.06.66-.06 4.26.17 4.87.34-.25.29-.21.04-.48.48 1.14.08 1.13-.18 1.91-.12v.26l-1.65.37-.55.5c.64.04 1.27.09 1.91.13.71.05 1.14-.01 1.72.04-.16.12-.21.16-.41.2-.99.22-.68.24-1.27.4-.98.21-2.63.4-3.64.37l-.85.1c-.36.04-.69.26-1.18.3-.82.06-.98.28-1.89.4-.91.12-.66.16-1.95.26-2.55.19-1.37 1.08-2.85 1.61.12.21.16.23.19.53 1.43.1 2.51-.4 3.92-.4.63 0 .95.14 1.43.18v.17c-.43-.03-.9-.01-1.05.35 2.1.15 1.08.19 2.04.46.42.12 1.04-.16 1.96-.09l-.75.3c-.88.23-1.84.73-2.3.85l.57.13c-.13 1.35-3.54 1.32-3.89 1.45-.6.22-.63.3-1.55.22-1.51-.13-.7.14-1.45.4-.87.3-.18-.12-1.02.81-.55.61-.5-.05-.84.98-.21.62-.3.62.06 1.26 1.16-.16 1.32-.39 2.16-.57.41-.09.76-.07 1.14-.18l3.26-.69 2.5-.15c-.3.21-.75.15-1.14.43.7.2 1.13.28 1.84.24 1.12-.07.94.3 1.79.36-.01.33-.44.68 1.46.56.72-.05 1.19-.2 1.88-.15-.17.66-.3.2-.19.67l-.57-.04.29-.24c-.54-.04-.7.11-1.11.29-.51.22-.53.19-1.27.14-.05.39.12.18-.41.29-.93.19-1.83.35-2.71.63-.42.13-.67.07-1.11.21l-2.12.51c-.53.1-.88.11-1.29.38-.26.17-.5.15-.85.12.07-.22.15-.19.57-.3-.72-.06-.64-.15-1.13.4-.66.74-.34.16-1.41.57l-3.97 1.21c-.91.33-3.32-.75-3.5-1.62-.11-.56.56-1.21.56-2.07 0-.57-.03-.77.23-1.15.5-.73 1.11-2.07 1.11-2.95-.92-.06-1.25.68-2.77.57.09-.31.16-.27.46-.41.6-.27.21-.02.44-.43.17-.3-.03-.08.21-.23l.89-.42c-.06-.6-.73-.51.13-1.33.25-.24.51-.46.85-.55 1.96-.5 1.33-.74 2.12-2.4l.24-.88c-.71-.39-.7-.09-.86-.49-.42 0-.57.11-.86.28-.69-.19-2.31-.01-3.08.19-2.06.52-1.73-.01-2.09 1.31-.11.41-.3.28-.43.69l-.57 1.59c-.13.3-.31.45-.38.74-.21.79-.87 1.64-.98 2.3-.23 1.43-.41.69-.58 1.66-.04.46-.08.43-.28.75-.39-.03-.31.01-.57-.13.25.78.68 1.34-.29 1.69 0 .95-.38.99-.58 1.67-.3 1.04-.2 1.01-1.05 1.13-.11.4-.15.71-.48.91-.11-.44-.05-.73-.57-.81-.13.44-.52.97-.57 1.5-.54-.29-.6-.34-.51-.91.09-.56.15-.88-.35-1.03 0 1.21-.51.93-.8 1.37-.36.54.09.78.51 1.52-.43-.06-.33-.14-.65-.23-.43-.12 0 .05-.59.06-.32-.63-.15-.45-.69-.97-.78-.74-1.25-1.13-2.26-1.47-.45-.15-.31-.26-.87-.31 0 .42.03.42.19.7-.5-.14-.84-.17-1.24-.51-.28.08-.15-.2-.19.24-.53-.04-.47-.05-.74-.33l-1.04-1.02c-.78-.85-.64-.48-1.47-1.18-.52-.44-1-.66-1.62-.97-1.89-.91-1.87-.04-2.44.7-.27.35-.6 2.04-1.55 2.18-.05-.21-.1-.44-.19-.61-.77-.04-.55.72-1.46 1.5-.3.26-.41.75-.83.82 0-1.84-.71.25-1.69 1.18-.31.29-.24.67-.69.79 0-.86.57-2.51.82-3.39.3-1.06.45-1.04.61-1.54l.38-1.69c-.48-.13-.89-.03-1.39.11-.98.28-.72-.04-1.28-.21l-1.34.42c0 2.29-.21 1.48-.29 2.12-.07.56.03.53-.13 1.07-.12.39.01.6.04.97.05.86-.17 1.41-.09 2.21l.09 2.06-.29-.02c-.14-1.53-.89-1.48-1.02-2.4-.06-.38-.08-1.21-.58-1.12-.4.07-.08.75-.21 1.26l-.59-.96c-.56-.59-.56.24-1.17-1.86-.15-.5-.28-.47-.36-1.07-.09-.72.18-1.29-.92-1.19l-2.33.58c-1.28.43-1.55.16-2.37 1.22-.4.52-.22 0-.58.89-.22.54-.67.65-1.04 1.13-.75.97-.35.94-.96 1.12-.84.25-.79 1.03-1.42 1.36 0-.66.33-1.28.19-1.87l-.76.63c-.44-.14-.4-.37-.83-.04-.18.14-.52.45-.67.01-.14-.42.64-1.93.88-2.37.24-.43 1.09-1.12.06-1.24-.73-.09-.44-.09-.96-.23.08-.31.16-.23.19-.58-.3-.08-.28-.13-.57-.21.07-.78 1.55-1.05 2.2-1.29 1.17-.44 1.09.27 1.87-.76l2.45-3.62c.32-.31.16-.13.36-.51l3.42-4.3 1.81-1.67c.39-.23.73-.38 1.12-.63.59-.37.31-.55 1.18-.31.28-.48.22-.09.48-1.08-.18-.12-.79-.74-1.05-.52-.16.13.13.3.48.91l-1.62-.8c.01.26.04.31.1.52-.58-.08-.87-.54-1.22-.88-.46-.43-2.37-2.18-2.81-2.38-.71-.32-1.57-.92-2.42-.76-.52.1-1.12 1.3-1.2 1.67-.14.65-.63 1.32-1.23 1.64-.06-.22-.1-.51-.19-.7l-.48-.03c-.21.38-.26.97-1.01 1.5-.55.4-.43 1.02-1.19 1.42 0-.71.56-1.27.57-1.93-.67.59-.15.25-.74.91-.33.38-1.64 2.55-2.03 2.65l1.19-4.41c.4-.97.31-.63.55-1.69.15-.67.34-.06.36-.76-.79-.22-1.89.13-2.1.45-.38.59-1 2.12-1.6 3.07-.67 1.05-1.17 2.52-2.07 3.81-.71 1.02-.43.7-.97 1.63-.45.77-.81 1.13-1.1 1.59-.38.6-.28 1.25-1.22 1.38-.12-.53-.05.01.05-.46.09-.45-.04-.13-.04-.56 0-.54.55-.71-.3-.79-.03.34-.24.6-.48.74-.23-.45.22-.89.06-1.41l-.06-.12c.23.15.1.11.38.2.08-.32.19-.52.19-.93l-.3-.02.11.35c-.41-.06-.17 0-.48-.2.05-.19.07-.19.1-.43l.38.12c.03-.37.21-.49.31-.81.1-.32.14-.88.43-1.12.14-.11.92-.56.69-.79-.18-.17-.15.39-.86.2 0-.94.83-.29.86-1.31-.83-.12-.73-.3-.95.53-.37-.1-.34-.13-.64.06-1.67.98-3.35 1.99-5.58 1.41-.91-.23-2.36-.2-3.48-1.06-.8-.62-.65-.28-1.13-1.12-1.3-2.29-.71-5.7.8-7.69.27-.36.36-.78.69-1.13l.59-.8c.14-.16.26-.19.41-.37.36-.44.59-1.02 1.13-1.3.65-.34.41-.36.85-.72l3.71-2.66c.56-.28 1.06-.66 1.69-.76.86-.13 1.94-.86 2.97-1.07.83-.16 1.68-.47 2.53-.72.49-.14.81-.14 1.33-.25.46-.09.74-.32 1.29-.3-.3.73-2.5.57-2.77 1.43.49.02.81-.14.86.4-.43.06-.31.15-.67.21v.17c.84.06 1.18-.22 1.72-.22v.85c.68.03.98-.27 1.66-.36l3.5-.55c.38-.01.62.07.98.01 3.19-.51 3.19-.24 6.64.01.77.05 1.1.02 1.77.24.85.28 1.76.48 2.56.79l1.5.73 1.25 1.36c.32.81.13 1.22-.27 1.84-.25.39-.58.69-.93.98-1.04.85-.49.46-1.91 1.06-.52.22-.2.48-.79.25-.22-.09.17-.09-.13-.04-.38.07.01.15.08.18v.34l-.82.41c-.43.24-.03.18-.7.52-.4.21-.74.51-1.19.65-.19.06-.22.01-.44.09.04.34.32.51.77.73.65.32 1.06.88 1.66 1.28.43.29.4.46.72.69.27 0 .65-.14.7-.35.08-.3-.4-.23-.8-.26.01-.48.18-.48.55-.66.24-.12.56-.33.83-.39.62-.14.45-.17.89-.33.45-.11 1.13-.07 1.49-.27.36-.2.12-.07.29-.32l1.91-2.77 3.01-4.1c.82-.91.13-.54 1.06-1.28l1.24-1.2c.64-.54.41-.66 1.27-1.08.36-.18.41-.25.69-.44 1.04-.68.49-.4 1.73-.29 1.64.14.28.26 2.13.54.53.08.48.13.63.6.27.86.47-.26.3 1.9l-.32 2c-.08.39-.16-.15-.16.96-1.62.22-.11.9-.22 1.68-.04.29-.51 1.2.77.66.5-.21 1.57-.02 1.83-.54.25-.62.32-1.48.61-2.14.14-.33.17-.41.24-.79.14-.74.66-1.49.88-2.14.6-1.82.86-1.19 1.24-1.62.89-1 .33-.66 1.79-1.18.3.59.12.43.95.67v.68c.56 0 .16-.11.57-.22 0 .9.29.58.29 1.73 0 1.05-.14.5-.3 1.59-.1.69-.79 2.01-1.13 2.67-.03-.34.06-.26-.29-.36-.09.16-.14.3-.19.5.44-.07.32-.36.45.13.22.81.25 1.13-.21 1.91-.35.58-.08.6-.05 1.23.03.57-.02 1.06.19 1.47 1.19.06 1.96-.8 2.59-1.51.22-.28.37-.41.58-.72.35-.51.66-.51 1.13-1.56.24-.53.74-1.14 1.03-1.65l2.57-4.87c.38-.37.29-.28.5-.8l.43-.87c.18-.33.19-.03.23-.46.38.27.1.46 0 .85 1 .67.48.39.48 1.23.25-.13.14-.09.34-.27.28-.27.45-.08.73-.32.48-.42.05-.78.9-1.04.17-.06.18-.09.31-.17l.11.52c.66-.35.7-.82.93-1.33.11-.25.31-.37.46-.66l.42-.7c.26 1.02-.3 1.05-.38 1.94-.06.72-.3 1.15-.54 1.78l-.47 1.6c-.45.97-.44 1.81-1.38 1.74v.35l.38-.07c-.03.33-.81 1.93-.98 2.13-.41.49-.14 1.26-.89 2.22-.48.61-.12 1.15-.79 1.55-.36.21-.24.02-.39.39l-.65.91c-.28.21-.78.34-.88.68l-.38-.03c.05-.19.07-.19.1-.42-.42.22-.22.17-.4.55-.15.3-.17.19-.47.4-.59.41-.76.78-1.33.94-.56.16-.28.22-.78.52-.6.36-.6.15-1.01.73.53-.07 1.23-.65 1.72-.9.22.06.28.1.57.13-.31.17-.23.12-.57.73-.96-.07-.52 0-1.17.32-.56.28-.42.33-1.12.28v-.34c-1.2.87-2.58.91-4.08.55-.72-.23-.62-.35-1.14-.68-.28-.18-.99-.52-1.11-.79-.13-.29.04-.03-.05-.27-.13-.25-.74-1.08-.78-1.36-.03-.24.02-.48-.02-.75-.15-.9-.17-.16-.17-1.48-1.46-.1-1.31.21-2.17.47-.32.09-.48.01-.58.3-.17.51.14 1.25-.02 1.52-.27.48-.63.43-.1 1.02-.54.69-.37.58-.29 1.44.07.68-.09 1.17-.09 1.7.51.57 1.03.11 1.83.37 1.28.42 2.66.66 3.67 1.25.35.21.44.37.89.19.84-.35.21-.77 2.82-1.55 1.71-.52.58-.16 1.82-.38l3.49-.9c.9-.07 1.41-.21 2.08-.21.97 0 1.22-.19 1.95-.25 1.53-.13 5.01-.24 6.48-.05.28.04.59-.03 1 .03.98.16.93.34 1.98.1.48-.11 1.36-.35 1.85-.36l-.1-.17c-.4-.08-.89-.36-1.2-.55-1.11-.68-1.13-.87-.8-1.82.11-.31.38-.79.38-1.08.02-.76-.34-.6.32-1.49l.99-2.29c.08-.33-.04-.28.12-.57l-1.62.48c-.48.22-1.2.21-1.71.39l.41-.37c1.39-.73 1.09-.33.92-.9.39-.05.94-.28 1.14-.52-.13-.44-.6-.43-.24-.91.47-.63.96-.79 1.7-1.01.78-.23.86-.29 1.07-.93.29-.87 1.04-2.09.77-2.25-.25-.15-.97-.03-1.3-.05.3-.23.28-.32.76-.29v-.17c-.8-.06-1.26-.18-1.81.04l-.38-.37-1.39.28c-.39.06-1.09.21-1.28-.04.28-.04.29-.06.67-.04-.36-.46-.31.07-.67-.39l1.24-.26c.22-.09.22-.16.51-.28 1.44-.61 6.6-1.4 8.51-1.78 2.63-.52 6.5-1 9.09-.49.71.14.71.03 1.36.07-.13.43-.72.46-1.14.52v.17c1.03.05 1.61-.31 2.67-.24-.15.5-.75.48-1.32.52-.76.06-.41.5-1.25.5v.17c1.51.11 2.71.02 4.1.12v.17c-.37-.02-1.23.14-1.51.25-.46.18-3.05.7-3.75.65-.39-.03-.27-.09-.56-.29-.13.41-.39.17-.79.34-.44.19-1.42.27-1.99.47-1.36.48-2.8.2-4.22.71l-.85.89c-.25.36-.09.39-.64.24.01.36.07.35.29.79l1.47-.12c.93-.14 1.27-.45 2.38-.31.5.06 1.28-.1 1.59.3-.25.09-1.12.04-1.52.38-.26.22.49.1.5.1 1.92-.19 1.06.49 2.9.23.3-.04.95-.09 1.17.02-.17.2-.86.3-1.25.41l-2.47.86c.81.06 1.32-.25 2.19-.19-.28.32-.02.07-.45.16-.24.05-.71.21-.85.37-.36.41.23-.1-.04.28l-2.82.72c-1.43.25-1.55.37-3.37.24-.65.83-.91.28-1.26.92-.2.37-.36.41-.45.76-.37-.1-.2-.09-.57-.04l-.23.8c-.26.89-.53.22-.53 1.2.3-.18.19-.42.57-.64.14.26.1.25.1.6.54-.08.65-.11 1.11-.29.53-.21 3.63-.86 4.48-1.06 1.01-.23 2.69-.46 3.76-.39v.26c-.79.11-1.22.02-2 .46.41.03.41-.03.68-.02.72.02.64.2 1.87.09.54-.05.56-.13 1.02.15l1.2.38c-.59-.04-.63.05-.95.27l2.19.06c.94-.04 1.36-.47 1.72.04-.57.21-1.02.09-1.24.34.53.04.66-.01 1.05-.01-.19.31.01.15-.27.25-.55.21-.84-.17-1.07-.26l-.57.47c-.53-.19.2.07-.29-.28l-.65.17c-.01 0-.34-.16-.02.3-.48-.03-.4-.07-.75.05-.49.17-1.43.17-1.91.38-.45.2-.74.18-1.18.31-.69.21-.46.21-1.13.02-.04.43-.26.37-.79.44-2.42.31-1.26.79-2.74.68.3-.54.62-.19.99-.4.23-.14.11.14.15-.28-.63.25-.51.14-1.24.08-.33.54-.54.27-.38.91l-.69.14c-.93.05-1 .38-2.22.55-.46.07-.44.2-.9.32zM98.86 3.93c-.06.5-.03.05-.36.44-.68.82 1.83-.95 2.13-1.12.59-.32.59-.48 1.09-.49-.02.18-.01.1-.07.19l-1.91 1.57c-.37.27-1.16.65-1.22 1.08-.11.76-.24.16-.42.75l-.19-.01c.04-.47.26-.29-.19-.36-.2.43-.69.12-.66.6.03.44-.06.11-.1.46-.42 0-.48.14-.71.34l-1.55.73-.61.1c-.03.35-.07.35-.38.36-1.78.07-1.24.06-1.6.38-.24.21-.37.07-1.14.35-1.66.61-2.06.54-3.8.78l-2.07.21c-.28-.01-.33-.08-.65-.1.29-.34 1.08-.35-1.05-.5.05-.51.24-.25.82-.4l.88-.26c.45-.11.36-.23.8-.34.75-.17.32-.07.81-.33.99-.51 1.85-.68 3.11-1.44.29-.18.42-.27.74-.4.51-.21.32-.16.65-.48l1.33-.94c.54-.45.84-.78 1.45-.82.94-.06.55-.39 1.72-.56-.12.39-.15.06-.19.5.31.12.07-.11.29.28l.84-.38c1.36-.57 1.77-1.18 2.4-1.27-.42 1.21-.63.57-.86 1.31.36-.06.24-.15.67-.21zm.29-2.97c-1.2-.08-1.67.49-2.5.93-.67.35-1.24-.35-2.79.37-.38.18-.08.11-.58.21-1.72.34-3.13 2.47-6.69 3.88l-3.27 1.28c-.31.09-2.6.11-2.1 2.15.16.63.46.68.57 1.07-.31.36-.76.3-1.27.48-.73.26-.36.24-1.37.47-2.5.58-2.67 4.72 1.75 3.99.56-.09.76-.1 1.18.11-.3.49-1.08.61-1.5 1.03l-.66.65c-.42.44-.22.31-.44.86-.2.5-.46.23-1.15 1.11-.42.53-2 1.26-.81 2.78.54.68 1.21.6 1.8.99-.04.45-.18.26-.19.84-.03 1.41-.57 1.44-.57 2.78-1.48-.1-.44-.13-1.96-.01-.7.05-1.51-.05-2.22-.01l-3.08.19c-.51.03-.54.13-1.04.1.05-.49.54-.62.88-.86.58-.41.4-.49.77-.97.39-.51.95-.82 1.14-1.46.27-.91-.04-.39.44-1.12.75-1.16.43-1.51.82-2.11.35-.55.42-1.02.71-1.45l.97-2.14c.3-.83.9-2.87 1.22-3.52.24-.49.23-.91.38-1.43.16-.54.4-1.32.24-1.89-.68-2.38-3.47-1.91-4.05-1.11-.16.22-.25.55-.39.82-.71 1.32-.56.23-1.99.13-.76-.05-1.64.29-2.03.86l-1.58 2.66c-.62.91-1.01 2.2-1.42 2.9-.15.27-.25.25-.41.54-.11.21-.17.45-.28.67-.11.21-.26.4-.36.59-.17.32-.12.48-.5.55.02-.24.39-.9.46-1.43.12-.91.54-1.45.18-2.6-.26-.86-.31-1.68-.81-2.15-.34-.33-.91-.49-1.26-.84-.38-.37-.77-.62-1.48-.75-.9-.17-2.58.42-3.02.78-.16.13-.29.3-.49.47-.24.19-.35.22-.58.38-.41.31-.55.85-.93 1.07-.76-.51-.45-1.77-2.39-2.04-.67-.09-2.44-.86-3.96-.77-1.33.09-1.16.38-1.93.87-.58.37-1.18.51-1.71 1.08-.29.32-.48.63-.83.91l-.52.52c-.27.28-.54.39-.78.61-.3.29-.3.49-.54.85-.2.3-.4.51-.62.77-.27.33-.24.57-.75.64-.17-.66-.62-1.16-1.08-1.68-.49-.55-1.24-.69-1.88-1.1-1.32-.83-2.17-.81-3.28-1.14-.75-.22-1.54-.54-2.35-.55-2.46-.01-2.9-.49-6.64-.17-.81.07-1.61.28-2.52.22-.4-.03.19-1.37-1.33-2.06-1.16-.53-1.94-.24-2.98.12-1.08.37-2.46.61-3.76.99-.65.19-1.29.25-1.91.46-.6.2-1 .52-1.62.74-.89.31-.63.03-1.75.61-1.26.66-2.61 1.29-3.65 2.2-.26.23-.34.37-.62.6-.88.72-1.8 1.34-2.49 2.21-.63.81-1.58 1.77-2.03 2.65-.26.49-.63.98-.85 1.49-1.16 2.75-1.65 5.37-.09 8.29.95 1.78 3.51 2.79 5.55 3.11 1.91.31 2.18.2 3.99.12l.09 1.63c-.02.81-.52 1.09.23 2.04.28.35 1.31 1.2 1.74 1.47 1.46.93 3.07.27 3.72-1.18.5-1.1 1.06-1.64 1.77-2.99 1.08-2.05.82-.73 2.46-.61 1.86.13 1.78-1.07 2.45-1.31.65-.23 1.12-.21 1.6-.76.27-.31.32-.62.53-.94.77-1.15 1.36-.2 2.32-1.52.59-.82 1.18-1.11 1.5-2.31.81.12 1.14.75 1.69 1.17.57.45 1.07.81 1.46 1.36-.5.08-.73.78-1.23 1.21-1.76 1.48-1.05.82-2.27 2.51l-4.32 6.08c-.4.66-1 .45-1.7.75-1.04.45-3.85 1.11-3.01 3.31l.65 1.26.44.41c-.45 1.7-1.81 3.21.95 4.35.53.22.78 1.19 2.39 1.44.47.03 1.16-.16 1.43-.32.9-.53.77-.94 1.27-1.34.44-.36.76-.22 1.35-1.26.55-.95 1.02-.83 1.56-1.91.41-.82.74-1 1.5-1.12.36-.06.4-.12.71-.17.38.53.16.6.41 1.12.31.63.73 1.64 1.17 2.03.79.7.42 1.29 1.32 1.9.54.37.76.09 1.08.65.69 1.19 1.94 1.74 3.29 1.25.69-.25.94-.7 1.07-1.36.19-.98 1.33.07 2.32-1.35.35-.51 1.12-.47 1.63-.82.73-.5.77-1.73 1.74-1.91 1.18-.21 1.32-.75 1.8-1.25s1.14-1.21 1.16-1.96c.93.07 1.11.71 1.7 1.16l.76.57c.66.61 1.28 1.44 2.26 1.72.42.12.73.14 1.18.23.2.04.92.3 1.07.31.68.05 1.23-.25 1.45.34.14.37.04 1.03 1.23 1.63.29.15 2.22.51 2.56.54.78.05 1.21-.1 1.71-.48.66-.56.39-1.16.9-1.35 1.42-.54.75-.6 1.89-1.43.95-.69.57-1.48 1.13-2.16.79-.96 1.26-3.52 2.01-4.73.39.12-.01 0 .33.15l1.1.38c0 2.63-1.16 2.41-.53 4.11.67 1.78 3.49 2.85 5.39 2.98.41.03.13-.26.77-.28.85-.04.44-.11.95-.19.07-.12 2.62-1.18 2.86-1.17 1.29.09 1 .15 2.2-.27.43-.15.92-.14 1.38-.37.39-.19.92-.27 1.28-.48.18-.11.35-.4.58-.38 1.6.11.2.28 2.06-.14.33-.08.39-.12.67-.2.83-.26 3.37-.54 3.56-.58.27-.06.37-.16.64-.23 1-.27 2.59-.04 3.06-1.06.45-1 .06-1.66-.83-2.35-1.78-1.36-1.65-.71-3.15-.82-.01 0-.92-.66-1.72-.72-.46-.03-.33.2-.84-.07-.26-.13-.39-.29-.68-.38.2-.65 1.63-.31 2.35-1.06.2-.21.19-.34.33-.54.44-.66 1.3-.9.73-2.32-.4-.99-1.5-1.01-1.69-1.34l2.25-.31c1.47-.16.94-.11 2.18-.46.75-.21 1.5-.13 2.21-.43 1.05-.43 1.35-1.53.73-2.5-.79-1.24-1.5-.24-2.6-1.78.68-.59 4.35-.99 5.4-1.19 1.63-.37 4.21-.2 3.58-2.55-.2-.74-1.76-1.98-3.08-1.93-.45.02-.76.17-1.08-.02-.24-.14-.19-.16-.46-.3-1.08-.57-2.37-.05-2.64-.98.42-.48 1.85-.04 2.56-1.29.27-.47 2.03-1.72.13-3.24-.29-.23-.58-.36-1.07-.4 1.38-.66 2.24-.18 4.18-.83.62-.21 1.37-.25 2.06-.41 1.41-.33 2-1.71.99-2.85-.63-.71-1.37-.51-1.86-.94-.63-.55-.34-.66-1.77-1.02-1.54-.38-.99-.35-2.64-.47-.39-.03-.48-.12-.82-.1-.9.03-.61.03-.7-.17-.15-.34.73-.14 1.69-1.1l.77-.71c.63-.71-.07-.58 1.44-1.51l1.58-1.38c1.13-1.4-.18-2.96-2.05-3.09-.61-.04-.69.17-1.09.23-.4.06-.81-.19-1.2-.22z"/><path class="fil2" d="M37.33 26.96c.31.02.65.06.96.06.48.01.25-.09.67.14-.54.96-.13.67-1.14.6-.11-.22-.06-.2-.22-.42l-.23-.32c-.01-.01-.01-.04-.03-.06zM9.09 28.57c-.51-.04-.65-.66-.65-.66-.47-1.04.04-.68-.4-.87.14-.1-.07.03.16-.11.11-.07.13-.07.23-.12-.19-.26-.19-.13-.29-.45.5-.07.4-.14.49-.64.16-.9.53-.35.27-1.36.61-.22.45-.05.96-.86.09-.15.13-.24.28-.33.36.11.19.11.49.28.18.1.43.17.6.27.32.19.15.22.52.34.44.15.13.02.57-.06 1.36.91 1.87.4 2.68.2l.94-.12c-.14.47-1.13 1.17-1.39 1.4l-3.31 2.36c-.14.1-.24.23-.39.31-.38.23-1.42.44-1.79.41zm20.99-8.44c-.07-.3-.01-.51.38-.74.18.34.17.3-.13.56-.15.12-.08.08-.25.19zm-7.82 4.66c.55.24-.04-.34.67.13-.21.27-.43.39-.86.45 0-.12.02-.6 0-.68-.11-.45-.11-.12-1.1-.46-.45-.15-.43-.03-.43-.67-.75-.05-.3.01-.57-.13.2-.26.16-.05.19-.41.29 0 .46-.05.67-.12-.05-.56-.63-.32.56-.66.29-.08.14-.03.47-.05.61-.05 1-.38 1.64-.47-.22-.29-.16-.08-.38-.37.09-.09 0 .03.12-.14.55-.77.31-.3.95-.79.16-.12.08.02.17-.18-.47 0-.13.03-.51.11-.19.04-.46.07-.64.07.16-.54 1-.26 1.43-.75-.44-.06-.17.08-.38-.2 1.09.08.53-.39 1.81-.3l-.67 2.09c-.13.53-.1.02-.32.89l-.62 1.2c-.22.25-.46.23-.76.46-.66.5-.3.37-1.11.72-.36.15-.11-.1-.34.27zm27.09-4.59c0 .86-.11.61-.14 1.03-.07 1.22.06.95-1.51 1.31-.32.07-.11.09-.55.07.15-.57.46-.45.48-.99-.35-.13-.04 0 .1-.51l.19.19c.1.07.02.04.19.1.11-.14.31-.28.23-.47-.15-.36 0 0-.42.11v-.34l.48.03c.53.04.27-.53.95-.53zm-14.02-1.75c0 .61 0 .28-.45.68s-.02.08-.68.37l-2.87 1.41c-.29.15-.32.25-.67.39-1.04.41.01-.83.04-1.38.05-.72.14-.2.46-.97.06-.15.07-.23.14-.38.06-.12.07-.12.09-.17.28-.49.31-.47.91-.5l2.15.24c.3.07.44.23.88.3zm-24.04 3.52c.09-.28.04-.16.26-.35.71-.61-.03-.38.53-.69.13-.07.22-.06.37-.16.26-.17.26-.35.65-.57l1.34-1.01c.58-.62.79-.37 1.51-.84.09-.06.28-.18.38-.23l1.92-.97c1.64-.77 1.83-.88 3.68-1.06 1.22-.11 1.19-.16 2.14.1v.17c-.47-.02-.47-.03-.48.39.66.18.35.02.86.06.21.01.56.14.8.19.33.07.52.05.84.09.87.1.19.21-.11.59.21.14.28.22.57.3-.02.91-.42.87-1.47.97-1.38.13-.62-.01-2.11.27-.37.07-.72.11-1.09.15-.22.02-.31.02-.57.05l-3.61.61c-.51.11-.5.16-.93.3l-1.01.22c-1.17.31-1.71.56-2.67.84-.37.11-.56.19-.91.31-.33.11-.52.2-.89.26zm42.35-5.06.48.03c-.01.55-.08.2-.22.55-.18.44.2-.03-.06.45-.45-.3-.19-.13-.19-.44v-.6zM37.33 30.46c.05.52.28.27.68.22.19-.17.19-.13.27-.41l.29.02c.02.75.36.31.67.15l.37.28.01.33c.05.17.02.13.1.26.76-.11.75-.05 1.34.26.19-.24.22-.09.12-.33l-.42-.53c.16-.14.34-.2.46-.34.27-.32-.01-.39.44-.77.47-.4.28-.52.57-.73.3-.21.26.03.51-.28.14-.18.13-.43.22-.64.17-.42.1-.21.34-.44.3-.3-.01-.16.55-.66.1-.09.12-.13.24-.19l1.31-.36c.79-.12.35-.27.91-.32.84-.08 1.67-.51 2.57-.51.34.6.1.79.24 1.51.19.94.5.86.24 1.34.79.53.23.39.76 1.34.01-.02.03-.07.03-.06.04.09-.02-.2.25-.33.29.33.23.38.38.78.1.35.03.25.48.29V30c0-.38-.05-.5.1-.76.42.04.33 0 .45.31.09.23.11.33.12.58.1.12.1-.17.1.26.64.04.98.26 1.14-.09 0-.53.16-1.02.09-1.7-.03-.3-.13-.48-.06-.83.08-.41.16-.36.35-.61-.53-.59-.17-.54.1-1.02.15-.27-.15-1.01.02-1.52.09-.29.26-.2.58-.3.86-.25.71-.57 2.17-.47 0 .24-.02.53 0 .77.02.28.13.5.17.72.04.27-.01.51.02.75.03.29.29.5.51.95l.27.41c.09.24-.08-.02.05.27.12.27.82.61 1.11.79.52.33.43.45 1.14.68l1.46.23c.91.04 1.96-.31 2.62-.78.06.11.03-.01.03.13 0 0-.03.19-.03.21.47.03.55.05.89-.16.2-.12 0-.01.23-.12.65-.32.2-.39 1.17-.32.34-.61.27-.56.57-.73-.29-.03-.35-.06-.57-.13-.49.26-1.18.83-1.72.9l.18-.25c.23-.23.54-.31.83-.48.51-.3.22-.37.78-.52l.14-.04c.02-.01.05-.02.06-.02.27-.11.81-.66 1.13-.88.3-.21.33-.1.47-.4.19-.38-.02-.33.4-.55-.02.23-.04.23-.1.42l.38.03c.11-.35.6-.48.88-.68l.58-.72c.07-.14.03-.09.06-.19.15-.37.03-.18.39-.39.67-.4.3-.94.79-1.55.75-.95.48-1.73.89-2.22.17-.2.95-1.79.98-2.13l-.38.07v-.35c.94.07.93-.78 1.38-1.74l.47-1.6c.24-.63.48-1.06.54-1.79.08-.89.64-.93.38-1.94-.09.09 0-.03-.12.14l-.3.57c-.15.29-.35.41-.46.66-.23.5-.27.98-.93 1.33l-.11-.52c-.13.08-.14.11-.31.17l-.3.09c-.33.22-.29.68-.6.95-.28.24-.45.06-.73.32-.2.19-.09.14-.34.27 0-.47.18-.52.12-.72-.06-.22-.41-.39-.6-.51.1-.4.38-.58 0-.85-.04.44-.04.13-.23.46l-.03.06-.4.81c-.21.51-.12.43-.5.8l-2.34 4.4c-.11.19-.13.29-.23.46-.29.52-.79 1.12-1.03 1.65-.08.18-.09.26-.19.41l-.28.41c-.23.35-.41.38-.65.74-.21.31-.36.44-.58.72l-.99 1.01c-.35.26-1.08.53-1.6.5-.21-.4-.16-.9-.19-1.47-.03-.62-.3-.64.05-1.23.46-.77.43-1.1.21-1.91-.13-.48-.02-.2-.45-.13.05-.2.1-.34.19-.5.34.11.25.03.29.36l.64-1.26c.13-.49.41-.91.49-1.41.16-1.09.3-.54.3-1.59 0-1.15-.29-.83-.29-1.73-.42.11-.02.21-.57.22v-.68c-.84-.23-.65-.08-.95-.67-1.46.52-.9.18-1.79 1.18-.02.03-.12.11-.12.11-.22.13-.25.01-.43.2-.47.48-.48.68-.69 1.31-.22.65-.75 1.4-.88 2.14-.07.38-.1.46-.24.79-.23.52-.29 1.03-.45 1.62l-.17.52c-.26.52-1.33.33-1.83.54-1.29.54-.81-.37-.77-.66.03-.23-.04-.37-.13-.53l-.08-.11c-.01-.02-.03-.04-.04-.05-.49-.7-.36-.87.46-.98 0-.14-.02-.38 0-.51.06-.43.07-.12.16-.45l.32-2c0-.45.23-1.12-.06-1.5-.21-.28-.11.01-.24-.4-.15-.47-.1-.53-.63-.6-.19-.03-.26-.03-.51-.07-.96-.18-.18-.34-1.62-.46-1.24-.11-.69-.39-1.73.29-.29.19-.33.26-.69.44-.85.42-.63.54-1.27 1.08l-1.24 1.2c-.93.74-.24.37-1.06 1.28l-2.78 3.72c-.14.2-.1.13-.23.37l-.91 1.43c-.19.28-.35.39-.54.67-.18.26-.28.41-.46.67-.17.24.07.12-.29.32-.32.17-.14.06-.49.12l-1 .15c-.45.16-.28.19-.89.33-.27.06-.59.27-.83.39-.37.19-.54.18-.55.66.4.03.88-.04.8.26-.05.21-.43.35-.7.35-.33-.23-.29-.39-.72-.69-.6-.4-1.01-.96-1.66-1.28-.45-.22-.73-.4-.77-.73.22-.08.25-.03.44-.09.45-.14.79-.44 1.19-.65.31-.16.13 0 .37-.24.14-.13.09-.15.33-.28.19-.11.21-.08.41-.21.25-.16.06-.14.41-.2v-.34c-.07-.03-.47-.11-.08-.18.3-.05-.1-.05.13.04.02.01.07.04.08.04.38.18.31-.12.71-.29l.67-.29c.79-.26.58-.23 1.24-.77.35-.29.68-.59.93-.98.4-.63.59-1.04.27-1.84l-1.25-1.36-1.5-.73c-.81-.31-1.72-.51-2.56-.79-.67-.22-1-.19-1.77-.24-1-.07-3.04-.35-3.93-.29-.39.03-.53.03-.93.04l-1.78.25c-.36.06-.6-.02-.98-.01l-3.5.55c-.68.09-.98.39-1.66.36v-.85c-.42 0-.16.01-.38.06-.41.08-.81.2-1.33.16v-.17c.36-.06.24-.15.67-.21-.05-.54-.37-.38-.86-.4.08-.27.25-.4.54-.5.29-.11.52-.16.79-.26.31-.12.52-.11.83-.22.27-.1.51-.23.6-.45-.55-.03-.83.2-1.29.3-.52.11-.84.11-1.33.25-.85.24-1.7.55-2.53.72-.95.19-.97.38-1.73.64-.42.14-.79.36-1.24.43-.63.1-1.13.48-1.69.76l-3.71 2.66c-.44.36-.2.38-.85.72-.54.28-.77.86-1.13 1.3-.15.19-.27.22-.41.37l-.59.8c-.33.34-.42.77-.69 1.13-1.51 1.99-2.1 5.4-.8 7.69.31.55.28.56.86.92.2.12.1.08.27.2.19.15.33.22.54.32 1.62.75 1.53.38 2.93.74.68.18.57.18 1.53.15.46-.02.98-.09 1.35-.23 1.68-.64 1.26-.48 2.7-1.33.31-.18.27-.16.64-.06.22-.83.12-.65.95-.53-.01.35.04.19-.1.41-.3.48-.76.13-.76.89.71.2.68-.37.86-.2.24.23-.55.68-.69.79-.29.24-.33.8-.43 1.12-.1.32-.28.44-.31.81l-.38-.12c-.03.24-.05.24-.1.43.31.2.07.14.48.2l-.11-.35.3.02c0 .41-.11.61-.19.93-.28-.09-.15-.05-.38-.2.01.02.03.03.03.06s.02.05.03.06l.05.2c-.03.39-.29.86-.11 1.21a.97.97 0 0 0 .48-.74c.84.08.3.25.3.79 0 .43.13.11.04.56-.09.47-.17-.07-.05.46.41-.06.6-.16.81-.5.19-.3.23-.59.41-.88.29-.46.65-.82 1.1-1.59.54-.92.26-.61.97-1.63.9-1.29 1.41-2.76 2.07-3.81.1-.15.19-.27.27-.43l1.33-2.64c.2-.26.5-.33.88-.43.49-.13.72-.16 1.22-.02-.02.7-.21.1-.36.76-.24 1.07-.15.72-.55 1.69l-.53 1.8c-.13.45-.75 2.42-.66 2.61.28-.07 1.16-1.42 1.39-1.73.25-.33.36-.62.64-.92l.24-.28c.14-.23.1-.32.34-.52.05-.04.14-.09.15-.11-.01.44-.16.57-.29.92-.12.34-.29.57-.29 1.01.05-.03.11-.04.17-.09.46-.31.56-1.01 1.01-1.33.41-.3.59-.59.8-1.02.08-.15.02-.01.11-.24.06-.13.01-.1.1-.25l.48.03c.09.18.13.48.19.7.6-.32 1.09-.98 1.23-1.64.08-.37.68-1.57 1.2-1.67.85-.16 1.71.44 2.42.76.44.2.98.82 1.44 1.12l1.37 1.26c.34.33.63.79 1.22.88-.05-.2-.09-.26-.1-.52l1.13.61c.2.09.27.13.5.19-.1-.18-.14-.28-.28-.46-.12-.16-.36-.31-.2-.45.26-.22.87.4 1.05.52-.07.27-.16.62-.29.83z"/><path d="M34.09 38.87c.05-.44-.04-.09.15-.28.16-.16.57-.47.8-.51.24.46.02.37-.07.7-.08.32.06.26-.22 1.33-.82.11-1.36.31-1.72.22l.23-.54c.11-.31 0-.35.15-.62.36-.42.04.06.27-.12.1-.08.14.23.01-.29.2.1.09.07.38.11zm16.03-3.06c.05-.54.39-.51.42-.52 1.06-.41.56-1.46 1.49-1.4 2.81.2 1.18.01 3.15.56-.02.61-.52.78-1 1l-2.71 1.32c-2.22 1.12-.9 0-.88-1.02-.22.03-.22.05-.48.05zM53.74 40c.48-.07 1.01-.44 1.42-.68.83-.48.45-.42.95-.62.76-.3.56-.6.74-.83.23-.3-.02.05.76-.29.45-.19 1.02-.38 1.39-.62l1.13-.96c.2-.24.25-.3.45-.59.19-.29.25-.24.31-.64s.03-.5.38-.65c.4-.17 2.1-.43 2.61-.49.07-.01.57-.19.4.39-.08.28-.3.41-.41.64l-.55 1.43c-.12.35-.25.4-.31.73-.23 1.37-.32.76-.59 1.48-.08.21-.13.53-.19.76-.28 1.05-.49 1.44-.78 2.33l-.63 2.39c-.09.62-.02.37-.22.82-.21.46.24.74-.28 1.69-.32-.17-.25-.12-.47-.38l-.81-.87c-.46-.43-.4-.56-.68-.89-.27-.33-.08-.12-.43-.33-.43-.25-.14-.01-.43-.42-.44-.62-.4-.48-.85-.92l-.09-.1c-.11-.11-.05-.07-.18-.19-.31-.27-.36-.17-.9-.71-.15-.15-.27-.28-.42-.42-.28-.25-.13-.12-.49-.28-.44-.21-.62-.39-.83-.77zm-11.73-7.58c.03-.74 1.33-.37 1.91-.21v.17c-.26 0-.26.02-.48.05v.34l.63.07c.19.01.17-.01.39.03 2.63.44 1.81-.05 1.56.77.56.79.58.18-.22 2.18-.1.26-.16.29-.23.46-.22.52.03.73-.3 1.16-.37.46-.23.39-.39 1-.41.06-.79.18-1.16.25-.45.08-.87.03-1.31.1-.41.06-.72.22-1.16.24-.45.03-.24-.03-.62.08-1.03.32-.79-.28-.79-1.02-.22-.04-.22.03-.27-.25v-.13c-.04-.33-.08-.3-.11-.59.14-.07.36-.22.48-.3.25-.17.22-.13.29-.49.09-.45.09-.86.22-1.33.26-.96.25-1.58.25-2.75.15-.02.59-.1.68-.1.31.02.55.26.57.23.02-.02.06.03.08.04zm43.79-4.45c-.44.06-.88.23-1.33.33-.63.13-.71.12-1.53.07l.1.17c-.5.01-1.37.25-1.85.36-1.05.24-1 .06-1.98-.1-.41-.07-.71 0-1-.03-1.47-.19-4.96-.09-6.48.05-.73.06-.98.24-1.95.25-.67 0-1.18.14-2.08.21l-2.66.68c-.24.05-.55.17-.83.22-1.25.22-.11-.14-1.82.38-2.61.79-1.98 1.21-2.82 1.55-.45.18-.54.02-.89-.19-.4-.24-1.24-.59-1.74-.7-.63-.14-1.29-.35-1.92-.55-.79-.26-1.31.2-1.83-.37-.16.35-.51.14-1.14.09 0-.44 0-.14-.1-.26-.04.16-.02.14-.1.25-.44-.06-.39-.13-.5-.27l-.07-.11v.34c-.45-.04-.37.06-.48-.29-.09.12-.1-.2-.1.25l-5.17.31c-1.02.19-.69.04-1.77.34-.62.17-1.2.14-1.69.25-.32.07-.45.2-.61.18l-.28-.12c.1.25.07.09-.12.33-.58-.32-.57-.37-1.34-.26-.08-.13-.05-.09-.1-.26l-.38.23c-.33-.09-.4-.19-.67-.3-.41-.18-.36 0-.55-.3-.41.05-.63.3-.68-.22-.11.1-.11.1-.19.24-.88-.25-.6-.06-1.18.31-.39.25-.73.4-1.12.63l-.48.39c-.36.48-.95.85-1.33 1.28l-3.42 4.3c-.2.38-.04.2-.36.51-.28.27-.15.18-.34.52l-2.1 3.1c-.78 1.03-.7.32-1.87.76-.65.25-2.13.51-2.2 1.29.3.08.28.13.57.21-.03.36-.11.27-.19.58.52.14.23.15.96.23 1.04.12.18.81-.06 1.24-.24.43-1.02 1.94-.88 2.37.15.44.49.12.67-.01.44-.33.39-.1.83.04l.76-.63c.14.59-.19 1.21-.19 1.87.63-.33.58-1.12 1.42-1.36.61-.18.21-.15.96-1.12.37-.48.82-.58 1.04-1.13.07-.18.11-.34.21-.49.12-.18.23-.22.37-.41.82-1.06 1.09-.78 2.37-1.22l2.33-.58c1.1-.11.83.46.92 1.19.08.61.21.57.36 1.07.16.57.08.51.38 1.14.33.69.39.31.78.72.13.13.19.28.28.45.06.12.07.14.13.24l.19.27c.13-.51-.19-1.19.21-1.26.5-.09.52.74.58 1.12.14.92.88.87 1.02 2.4l.29.02c0-.79-.09-.69-.03-1.56.02-.24-.03-.25-.06-.5-.08-.8.14-1.35.09-2.21-.02-.38-.16-.58-.04-.97.16-.54.07-.51.13-1.07.08-.64.29.18.29-2.12l1.34-.42c.56.17.3.5 1.28.21.5-.14.91-.25 1.39-.11l-.38 1.69c-.17.51-.32.48-.61 1.54l-.46 1.6c-.16.64-.36 1.02-.36 1.79.22-.06.08 0 .23-.12.28-.24.19-.41.46-.66.98-.93 1.69-3.02 1.69-1.18.42-.07.53-.56.83-.82.08-.07.07-.06.14-.12l.13-.13.04-.04c.39-.39.43-1.24 1.14-1.2.09.17.14.4.19.61.34-.05.36-.12.56-.32.67-.67.69-1.47 1-1.86.22-.28.19-.27.37-.58.47-.81 1.32-.48 2.07-.11.63.3 1.1.53 1.62.97.01.01.04.03.05.04.68.57.86.47 1.42 1.14l1.04 1.02c.27.27.22.29.74.33.04-.44-.09-.16.19-.24.11.1.04.05.22.16.08.05.23.13.32.16.2.08.5.14.7.19-.16-.28-.19-.28-.19-.7.55.05.42.16.87.31.3.1.08-.01.35.13 1.09.56.95.42 1.9 1.33.54.52.37.34.69.97.58 0 .16-.17.59-.06.32.09.22.17.65.23l-.14-.23c-.29-.5-.73-.76-.38-1.29.29-.44.8-.15.8-1.36.5.15.44.47.35 1.03-.09.57-.03.62.51.91.05-.53.44-1.06.57-1.5.52.08.46.37.57.81.33-.19.37-.51.48-.91.38-.05.59-.02.77-.28.12-.18.21-.59.28-.84.2-.68.58-.72.58-1.67.38-.14.56-.2.58-.65.02-.4-.04-.32-.14-.57l-.15-.47c.27.13.18.1.57.13.2-.32.24-.29.28-.75l.1-.42c.38-.63.33-.34.48-1.25.11-.66.77-1.51.98-2.3.08-.29.25-.45.38-.74l.57-1.59c.13-.42.32-.28.43-.69.37-1.32.03-.79 2.09-1.31.77-.19 2.39-.38 3.08-.19.29-.17.44-.28.86-.28.11.27-.01.14.37.29.25.1.24.07.48.2 0 .28.01.23-.06.45-.02.06-.14.34-.18.43-.78 1.66-.16 1.9-2.12 2.4-.34.09-.6.31-.85.55l-.04.04c-.79.77-.14.71-.08 1.29l-.89.42c-.24.15-.04-.07-.21.23-.23.41.16.15-.44.43-.3.14-.37.1-.46.41.86.06 1.38-.15 2.03-.43.32-.14.25-.18.74-.14 0 .88-.61 2.22-1.11 2.95-.26.38-.23.57-.23 1.15 0 .86-.67 1.51-.56 2.07.18.87 2.59 1.95 3.5 1.62 1.23-.44 1.08-.31 2.14-.66l1.82-.55c1.07-.4.75.18 1.41-.57.49-.55.41-.47 1.13-.4l-.42.11c-.02.01-.04.02-.05.04-.12.09-.05-.03-.1.16.35.02.59.05.85-.12.41-.27.76-.28 1.29-.38l2.12-.51c.44-.14.69-.07 1.11-.21.88-.28 1.78-.44 2.71-.63.53-.11.36.1.41-.29.74.05.76.08 1.27-.14.42-.18.57-.33 1.11-.29l-.29.24.57.04c-.1-.41-.06-.11.04-.31.09-.21.09-.13.16-.36-.69-.05-1.15.11-1.88.15-.24.01-.71.04-1.09-.01-.59-.08-.38-.11-.37-.54-.85-.06-.66-.42-1.79-.36-.71.04-1.14-.04-1.84-.24.4-.28.84-.22 1.14-.43-.7-.05-.71.04-1.25.07l-1.25.08c-.39.06-.81.11-1.14.18-.36.08-.69.2-1.05.27l-1.08.24c-.38.11-.73.09-1.14.18-.34.07-.7.21-1.01.31a5.4 5.4 0 0 1-1.15.26c-.36-.63-.27-.64-.06-1.26.08-.24.1-.46.27-.6l.29-.14c.07-.04.23-.18.28-.24.83-.93.15-.51 1.02-.81.74-.26-.06-.52 1.45-.4.92.08.94 0 1.55-.22.21-.08.77-.02 1.49-.17.59-.13 2.03-.37 2.27-.88.12-.27.09-.02.13-.39-.07-.01-.22-.01-.28-.02l-.29-.1c.47-.12 1.42-.62 2.3-.85.14-.04.29-.06.42-.11.15-.06.23-.12.33-.19-.92-.06-1.54.21-1.96.09-.96-.26.06-.31-2.04-.46.15-.37.62-.38 1.05-.35v-.17c-.47-.04-.79-.18-1.43-.18-1.4.01-2.48.5-3.92.4-.03-.29-.07-.32-.19-.53.57-.2.49-.23.87-.69.45-.54.27-.79 1.97-.91 1.28-.1 1.03-.13 1.95-.26.9-.12 1.07-.34 1.89-.4.5-.04.83-.26 1.18-.3.16-.02.24-.01.47-.06.34-.08.02-.07.37-.03l1.66-.06c.14-.02.31-.04.46-.07l1.52-.24c.59-.16.28-.18 1.27-.4.2-.04.24-.09.41-.2-.58-.04-1.01.02-1.72-.04-.64-.05-1.27-.09-1.91-.13l.55-.5 1.65-.37v-.26c-.78-.05-.77.2-1.91.12.27-.44.22-.19.48-.48-.6-.17-4.21-.4-4.87-.34-.54.05-.97.1-1.62.06v-.17z" style="fill:red"/><path class="fil2" d="M91.23 19.55c.36-.01.38-.1.67.05-.25.32-.21.34-.67.21v-.26zm-8.3 8.82c.82.06.9.07 1.53-.07.46-.1.89-.27 1.33-.33.46-.12.44-.26.9-.32 1.22-.17 1.3-.5 2.22-.55.03 0 .1-.01.12-.01.16-.03.34-.1.57-.13-.16-.64.05-.37.38-.91.73.05.61.17 1.24-.08-.04.42.08.15-.15.28-.13.07-.05.02-.21.06l-.34.04c-.31.03-.29.04-.44.31 1.48.1.32-.38 2.74-.68.53-.07.75-.01.79-.44.66.19.44.19 1.13-.02.44-.13.73-.11 1.18-.31.48-.21 1.41-.21 1.91-.38.35-.12.27-.08.75-.05l-.12-.2c-.02-.24.05-.07.14-.09l.65-.17c.48.35-.24.08.29.28.09-.19.02-.04.12-.14l.45-.33c.49.19-.1-.01.28.2.23.12.58.14.78.06.28-.1.08.05.27-.25-.39 0-.52.05-1.05.01.22-.25.33-.11.75-.21l.14-.04c.2-.05.17-.02.35-.09-.36-.5-.78-.08-1.72-.04h-1.55a6.61 6.61 0 0 0-.64-.06c.32-.23.36-.32.95-.27l-1.2-.38c-.46-.28-.48-.19-1.02-.15-.18.02-.6.04-.67.04-.42.01-.78-.12-1.2-.13-.27-.01-.27.05-.68.02l.17-.09c.01-.01.04-.02.06-.03l.06-.03.61-.18c.39-.09.73-.07 1.11-.12v-.26c-1.07-.07-2.75.15-3.76.39-.85.2-3.95.85-4.48 1.06-.46.18-.57.22-1.11.29 0-.36.04-.34-.1-.6-.39.23-.27.47-.57.64 0-.36-.07-.36.12-.57.3-.33.27-.15.41-.63.02-.05.07-.21.09-.25.06-.2.1-.38.14-.55.37-.05.2-.06.57.04.07-.27.15-.31.29-.49.11-.14.09-.13.17-.26.35-.64.61-.09 1.26-.92 1.83.13 1.94.01 3.37-.24l1.92-.45c.19-.07.86-.21.9-.27.26-.39-.33.13.04-.28.14-.16.61-.32.85-.37.43-.09.17.17.45-.16-.87-.06-1.39.24-2.19.19l.19-.08c1.12-.45 1.08-.46 2.28-.78l.14-.04c.34-.1.93-.17 1.12-.37-.22-.1-.86-.06-1.17-.02-1.84.26-.98-.42-2.9-.23-.06.01-.17.03-.3.04h-.12c-.16-.01-.16-.03-.09-.13l.51-.24c.34-.08.74-.04 1.01-.14-.31-.4-1.09-.24-1.59-.3-1.11-.14-1.45.17-2.38.31l-1.47.12-.18-.36c-.1-.23-.1-.03-.11-.43.55.15.38.12.64-.24l.85-.89c1.41-.51 2.86-.23 4.22-.71.57-.2 1.55-.28 1.99-.47.4-.18.67.07.79-.34.29.19.16.26.56.29.07.01.68-.05.81-.07 1.03-.16 2.11-.24 2.94-.58.28-.11 1.14-.27 1.51-.25v-.17c-1.39-.1-2.59-.01-4.1-.12v-.17c.5 0 .47-.09.5-.11.26-.19.34-.35.75-.38.57-.04 1.17-.02 1.32-.52-1.06-.07-1.64.29-2.67.24v-.17c.43-.06 1.02-.09 1.14-.52-.65-.05-.65.07-1.36-.07-1.97-.39-5.29-.14-7.23.14-.38.06-.28.06-.56.14l-1.29.21c-1.43.34-2.94.48-4.39.81-1.36.3-2.88.45-4.12.97-.29.12-.3.19-.51.28-.14.06-.42.1-.57.14-.21.05-.43.09-.67.12.36.46.31-.07.67.39-.38-.03-.39 0-.67.04.19.25.89.1 1.28.04.44-.06.27-.08.63-.16.24-.05.52-.08.76-.12l.38.37c.55-.22 1.01-.1 1.81-.04v.17c-.48-.03-.47.06-.76.29.32.02 1.04-.1 1.3.05.31.19-.32.87-.57 1.76-.07.23-.13.29-.2.49-.21.64-.29.7-1.07.93-.75.22-1.23.38-1.7 1.01-.36.48.11.47.24.91-.2.23-.75.46-1.14.52.17.57.47.17-.92.9-.2.1-.07 0-.22.13l-.19.25c.51-.18 1.23-.18 1.71-.39l.78-.27c.29-.09.47-.21.85-.21-.16.28-.04.24-.12.57l-.64 1.6c-.2.28-.14.4-.35.69-.09.12-.07.05-.18.25-.41.73-.12.56-.13 1.24-.01.3-.27.77-.38 1.08-.33.95-.31 1.14.8 1.82.31.19.8.47 1.2.55z"/><path class="fil1" d="M57.27 40.41c.72-.29.8-.4 1.24-.94.22-.27.31-.3.7-.43.69-.24 1.07-.48.61.68-.25.63-.64 2.03-.83 2.27-.36-.14-.02.03-.27-.2l-1.45-1.37zm-3.53-.42c.21.38.39.56.83.77.36.16.2.03.49.28.15.14.27.27.42.42.55.54.6.44.9.71.13.12.08.08.18.19l.09.1c.45.44.41.3.85.92.29.41-.01.17.43.42.35.21.16 0 .43.33.28.33.22.46.68.89l.81.87c.22.26.15.21.47.38.52-.94.07-1.22.28-1.69.2-.44.14-.2.22-.82l.63-2.39c.29-.89.5-1.27.78-2.33.06-.23.11-.54.19-.76.27-.72.36-.12.59-1.48.05-.32.18-.38.31-.73l.55-1.43c.11-.23.33-.36.41-.64.17-.58-.33-.4-.4-.39-.5.06-2.2.32-2.61.49-.35.15-.32.26-.38.65-.06.4-.12.35-.31.64-.19.29-.24.36-.45.59l-1.13.96c-.37.24-.94.43-1.39.62-.78.33-.54-.01-.76.29-.17.22.02.53-.74.83-.5.2-.12.13-.95.62-.41.24-.93.61-1.42.68z"/><path class="fil2" d="M98.86 3.93c-.43.06-.31.15-.67.21.18-.58.57-.46.73-.93l.13-.37c-.63.09-1.03.71-2.4 1.27-.14.06-.26.14-.41.21-.18.08-.28.11-.44.18-.22-.38.03-.15-.29-.28.04-.43.07-.11.19-.5-1.17.16-.78.5-1.72.56-.61.04-.91.37-1.45.82l-1.33.94c-.34.31-.14.27-.65.48-.32.13-.44.22-.74.4-1.25.76-2.11.93-3.11 1.44-.49.25-.06.15-.81.33-.45.1-.36.23-.8.34l-.88.26c-.58.16-.77-.11-.82.4 2.13.15 1.34.16 1.05.5.32.03.37.1.65.1l2.07-.21c1.74-.24 2.13-.17 3.8-.78.77-.28.9-.14 1.14-.35.2-.17.01-.2.38-.32l1.22-.06c.31-.01.34-.01.38-.36.36.02.2 0 .4-.04.02 0 .05-.01.07-.02.02-.01.05-.01.07-.02.02-.01.05-.01.07-.02.1-.02.13-.02.23-.04l1.32-.69c.22-.2.29-.34.71-.34.04-.35.13-.02.1-.46-.03-.47.46-.17.66-.6.45.07.23-.11.19.36l.19.01c.18-.59.32.01.42-.75.06-.43.86-.81 1.22-1.08.2-.15.26-.23.5-.38l1.42-1.19c.05-.09.05-.02.07-.19-.49 0-.5.17-1.09.49-.27.14-.24.17-.47.32-.18.12-.31.16-.51.28 0 0-1.77 1.24-1.16.52.33-.39.3.06.36-.44z"/><path class="fil1" d="M11.29 21.97c.37-.05.55-.14.89-.26.36-.12.55-.21.91-.31.96-.28 1.5-.53 2.67-.84l1.01-.22c.43-.13.42-.18.93-.3l3.61-.61c.26-.03.36-.02.57-.05.36-.04.71-.08 1.09-.15 1.48-.28.73-.14 2.11-.27 1.05-.1 1.45-.06 1.47-.97-.29-.08-.37-.16-.57-.3.3-.38.98-.5.11-.59-.32-.04-.51-.02-.84-.09-.24-.05-.59-.18-.8-.19-.51-.04-.2.12-.86-.06.01-.42.01-.42.48-.39v-.17c-.95-.26-.92-.22-2.14-.1-1.86.17-2.04.28-3.68 1.06l-1.92.97c-.1.05-.28.17-.38.23-.72.48-.94.23-1.51.84l-1.34 1.01c-.39.21-.39.39-.65.57-.15.1-.24.08-.37.16-.56.3.18.08-.53.69-.22.19-.17.06-.26.35zM42.48 36.98c-.37-.03.05-.75.06-1.01.01-.36.01-.66.13-1.11.44.03.76.1 1.05.24-.1.36-.4 1.46-.63 1.7-.02.02-.03.22-.61.18zM42 32.42c-.03-.01-.07-.06-.08-.04-.02.03-.26-.21-.57-.23-.09-.01-.53.08-.68.1 0 1.17.01 1.79-.25 2.75-.13.47-.13.88-.22 1.33-.07.36-.04.32-.29.49-.13.09-.34.23-.48.3.03.29.06.26.11.59v.13c.05.28.05.22.27.25 0 .74-.24 1.34.79 1.02.38-.12.17-.06.62-.08.44-.03.75-.18 1.16-.24.44-.07.87-.02 1.31-.1.37-.07.76-.19 1.16-.25.16-.6.02-.53.39-1 .34-.42.09-.64.3-1.16.07-.17.13-.2.23-.46.8-1.99.78-1.39.22-2.18.25-.82 1.07-.33-1.56-.77-.22-.04-.2-.02-.39-.03l-.63-.07v-.34c.22-.03.22-.05.48-.05v-.17c-.58-.16-1.87-.53-1.91.21zM45.15 28.87c.26-.96.89-.81 1.43-.93.41-.09.14-.13.58-.13.1.19.18.5.19.78-.43.15-1.92.29-2.19.27zm-3.98 2.37.28.12c.16.02.28-.11.61-.18.48-.11 1.07-.08 1.69-.25 1.08-.3.75-.15 1.77-.34l5.17-.31c0-.45 0-.13.1-.25-.15-.4-.09-.46-.38-.78-.27.14-.22.43-.25.33-.01-.01-.02.04-.03.06-.54-.94.03-.81-.76-1.34.27-.48-.05-.41-.24-1.34-.14-.72.1-.91-.24-1.51-.9 0-1.73.43-2.57.51-.56.05-.12.2-.91.32l-1.31.36c-.12.06-.14.1-.24.19-.56.51-.25.36-.55.66-.23.23-.17.02-.34.44-.09.22-.07.47-.22.64-.25.31-.21.06-.51.28-.29.21-.1.33-.57.73-.45.38-.17.45-.44.77-.12.14-.3.2-.46.34l.42.53zM9.09 28.56c.36.03 1.4-.18 1.79-.41.14-.09.24-.21.39-.31l3.31-2.36c.25-.23 1.24-.92 1.39-1.4l-.94.12c-.81.2-1.33.71-2.68-.2-.45.08-.14.2-.57.06-.37-.12-.2-.15-.52-.34-.17-.1-.42-.18-.6-.27-.31-.16-.14-.17-.49-.28-.15.09-.18.18-.28.33-.52.81-.35.64-.96.86.26 1.01-.11.46-.27 1.36-.09.49.01.57-.49.64.09.32.1.19.29.45-.09.05-.11.06-.23.12-.22.13-.02.01-.16.11.44.19-.07-.17.4.87 0 0 .14.62.65.66zM22.26 24.79c.23-.37-.02-.12.34-.27.82-.35.45-.21 1.11-.72.3-.23.54-.21.76-.46l.62-1.2c.22-.87.19-.36.32-.89l.67-2.09c-1.28-.09-.73.38-1.81.3.21.28-.06.13.38.2-.43.5-1.27.22-1.43.75.18 0 .45-.03.64-.07.37-.08.04-.11.51-.11-.09.2-.02.05-.17.18-.63.5-.4.02-.95.79-.12.17-.03.06-.12.14.22.29.16.08.38.37-.64.09-1.03.42-1.64.47-.33.03-.18-.03-.47.05-1.18.33-.61.1-.56.66-.21.08-.38.12-.67.12-.03.36.01.15-.19.41.27.14-.18.07.57.13 0 .65-.03.52.43.67 1 .34 1 0 1.1.46.02.08 0 .56 0 .68.43-.06.65-.18.86-.45-.7-.47-.12.11-.67-.13zM50.11 35.8c.26 0 .26-.02.48-.05-.03 1.02-1.34 2.14.88 1.02l2.71-1.32c.47-.22.98-.4 1-1-1.97-.55-.34-.37-3.15-.56-.93-.07-.43.99-1.49 1.4-.03.01-.37-.02-.42.52zM35.33 18.44c-.44-.06-.58-.22-.88-.3l-2.15-.24c-.6.02-.63.01-.91.5-.03.05-.04.05-.09.17-.07.14-.08.23-.14.38-.32.77-.42.25-.46.97-.04.55-1.08 1.79-.04 1.38.36-.14.39-.24.67-.39l2.87-1.41c.66-.28.23.04.68-.37.45-.4.45-.07.45-.68zM48.4 20.73l-.48-.03v.34c.43-.11.28-.47.42-.11.07.18-.13.33-.23.47-.17-.05-.1-.02-.19-.1l-.19-.19c-.13.51-.45.38-.1.51-.01.54-.33.42-.48.99.45.02.23.01.55-.07 1.57-.36 1.44-.09 1.51-1.31.02-.43.14-.18.14-1.03-.69 0-.43.57-.95.53zM34.09 38.87c-.3-.04-.18-.01-.38-.11.13.52.09.21-.01.29-.24.18.08-.3-.27.12-.15.28-.04.32-.15.62l-.23.54c.36.09.9-.11 1.72-.22.28-1.06.14-1 .22-1.33.08-.33.31-.25.07-.7-.23.04-.64.34-.8.51-.19.19-.1-.16-.15.28zM37.33 26.96c.01.02.02.05.03.06l.23.32c.17.21.11.2.22.42 1.02.07.61.36 1.14-.6-.42-.23-.19-.13-.67-.14-.31 0-.64-.04-.96-.06zM38.01 30.68c.2.3.14.12.55.3.27.12.34.21.67.3l.38-.23-.01-.33-.37-.28c-.31.16-.65.6-.67-.15l-.29-.02c-.08.27-.08.23-.27.41zM51.26 29.99l.07.11c.11.14.06.2.5.27.07-.11.05-.09.1-.25-.01-.26-.03-.36-.12-.58-.12-.31-.03-.27-.45-.31-.14.26-.1.38-.1.76zM53.64 17.51c0 .31-.26.14.19.44.26-.49-.11-.02.06-.45.14-.35.21 0 .22-.55l-.48-.03v.6zM30.08 20.12c.17-.1.1-.06.25-.19.31-.25.31-.21.13-.56-.39.23-.45.45-.38.74zM91.23 19.55v.26c.45.13.41.11.67-.21-.29-.15-.31-.06-.67-.05z"/><path class="fil2" d="M66.9 26.98s.18.1.19.1c.34.02.29-.2.29-.49-.34.18-.29.08-.48.39z"/></g></g></svg>