<svg xmlns="http://www.w3.org/2000/svg" xml:space="preserve" width="25.5mm" height="72.755" style="shape-rendering:geometricPrecision;text-rendering:geometricPrecision;image-rendering:optimizeQuality;fill-rule:evenodd;clip-rule:evenodd" viewBox="0 0 48.14 36.34"><defs><style>.str0{stroke:#000;stroke-width:.38;stroke-miterlimit:22.9256}.fil1{fill:none}.fil0{fill:#282829}.fil3{fill:#4a4849}.fil6{fill:#4b494a}.fil5{fill:#a1a1a1}.fil4{fill:#c8c8c8}.fil7{fill:#fb6500}</style></defs><g id="Camada_x0020_1"><g id="_2483693355360"><path class="fil0 str0" d="M6.93 11.44c-.16.12-.36.19-.58.21h-.11c-.16.02-.35.09-.62-.02-.26-.11-.35-.32-.36-.55-.05.05-.1.09-.15.13a.87.87 0 0 1-.58.16c-.05.02-.1.03-.15.03-.16.33-.39.66-.85.7H3.4c-.06.02-.13.03-.2.04a.772.772 0 0 1-.78-.42c-.09-.17-.1-.39-.08-.62a.76.76 0 0 1-.19.12c-.14.06-.29.09-.45.08-.31.09-.68.02-.9-.2-.24-.24-.23-.58-.19-.87.06-.5.25-1.05.41-1.53.45-1.35.94-2.68 1.37-4.04.13-.4.24-.95.66-1.15.14-.06.28-.09.42-.08.24-.08.51-.04.72.09.2.12.31.3.36.5.12-.16.24-.31.38-.42.19-.16.44-.25.68-.23.28-.09.58-.05.78.2.35.42.05 1.15-.11 1.58-.12.34-.25.67-.37 1.01.47-.9.83-1.6 1.41-2.48.17-.26.4-.62.75-.72.21-.06.22-.01.33-.04.45-.13.77.16.89.5.09-.09.2-.17.33-.22.12-.05.25-.06.37-.05.2-.06.41-.06.6.04.03.02.06.03.09.05.34-.22.81-.46 1.23-.5.05 0 .09-.01.14-.01.06-.01.13-.03.19-.03.29-.03.54.04.74.19.13-.05.26-.07.39-.06.36-.12.74.02.93.34.02.03.03.06.05.09.35-.21.74-.38 1.11-.56.3-.15.63-.33.99-.31.14-.04.29-.05.43-.03.41.06.69.37.8.69.34.03.54.26.66.52.2-.39.59-1.08.97-1.33.16-.11.35-.16.54-.14.17-.06.35-.06.53.01.29.12.39.37.47.62.16.46.26.54.14 1.11-.05.23-.12.46-.19.69.73-.8 1.55-1.51 2.48-2.12.36-.24.78-.5 1.24-.54.04 0 .09-.01.13-.01.07-.01.13-.03.2-.03.99-.09 1.42.66 1.35 1.46-.04.38-.27 1.24-.72 1.4.13.14.26.28.4.41l1.71-2.71c.12-.19.24-.4.38-.57.22-.26.53-.44.86-.41a.82.82 0 0 1 .69.08c.33.19.52.58.58.91.04.23.02.45-.04.68l.12-.41c.11-.25.34-.56.56-.74.21-.17.51-.32.8-.3.2-.06.41-.06.6.04.22.12.27.28.29.45.39-.26.82-.46 1.28-.62.27-.1.54-.17.82-.18.22-.04.45-.06.7-.01.42.08.86.32 1.1.63.28.37.25.78.14 1.19-.22.83-.83 1.96-1.32 2.73l.89-.57c.06-.06 2-2.97 2.57-3.64.23-.27.49-.53.86-.64.13-.04.27-.06.4-.06.29-.07.6-.05.84.12.3.2.36.52.35.83-.02.7-.56 2.15-.83 2.89.05.01.09.01.14.02.44-.53 3.59-2.97 4.23-3.4.33-.22.69-.41 1.02-.63.25-.17.53-.42.84-.5.2-.05.26-.02.33-.04.48-.13.86.14 1.02.51.11.25.15.57.17.84.04.6-.24 1.26-.47 1.82-.16.39-.45 1.11-.81 1.39.6.27.73.76.78 1.3.04.46.04.98-.03 1.44-.07.45-.22.79-.47 1.18-.27.4-.6.79-1 1.11-.25.2-.53.37-.82.53-.69 1.18-1.58 2.52-2.38 3.71-1.02 1.51-1.89 2.78-2.33 4.02-.43 1.24-.43 2.46-.46 3.43-.03.97-.08 1.71-1.18 2.08-1.09.37-3.22.37-5.93.71-2.71.34-6 1.02-8.47 1.46-2.47.44-4.13.64-6.02.63-1.89-.01-4.03-.23-5.06-.87-1.03-.64-.95-1.7-.26-3.55.69-1.85 1.99-4.49 1.71-6.05-.28-1.56-2.15-2.03-3.43-2.33-1.29-.3-1.99-.43-2.83-.94-.44-.26-.91-.63-1.2-1.11l-.35-.09zm3.96-5.72c.03-.05.07-.11.1-.16l-.29.28.19-.12z"/><path class="fil1 str0" d="M5.8 32.57c.1-.4.29-1.02.48-1.5s.4-.82.57-1.07c.17-.25.31-.41.51-.53.19-.12.43-.2.72-.37.29-.17.62-.41.91-.63.29-.22.55-.41.81-.52.26-.11.52-.15.75-.15.23 0 .42.04.59.12.17.08.3.2.38.39.08.19.1.43 0 .79-.1.36-.31.83-.65 1.4s-.81 1.25-1.26 1.78c-.45.53-.89.92-1.27 1.2-.37.28-.68.45-.94.54-.26.09-.47.1-.68.06-.21-.04-.41-.13-.58-.26-.17-.13-.3-.31-.37-.49-.06-.18-.06-.35.04-.75z"/><path d="M44.26 9.49h.53c.7.05 1.33.31 1.91 1.05.64.81.74 1.55.75 2.4v.74c0 1.24-1.09 3.2-1.82 3.84-.75.65-.8.71-1.72 1.22-1.25.69-1.31.54-1.31 1.5.38-.16 1.2-.07 1.72-.07.11.14.23.18.23.34 0 .63-.43 1.15-1.09 1.29.11.18.15.2.16.47.95 0 1.25.45 1.25 1.08 0 1.08-2.9 1.53-3.94 1.73-1.64.31-3.28.51-5.01.73-5.18.66-10.08 1.24-15.14 2.12-3.38.58-6.31 1.18-9.63 1.81-.86.16-1.57.3-2.43.46l-2.38.44v-.61c-.42.18-.59.05-.9.44-.21.27-.26.57-.75.57-.4 0-.49-.21-.58-.51-.18-.61-.2-2.49-.05-3.07-.83 0-2.35-.35-2.35-1.35 0-1.04 2.09-1.21 2.78-1.31.46-.07.77-.22 1.13-.24.14-1.43.36-1.32-.87-1.75-1.1-.39-1.9-.85-2.82-1.49-.33-.23-.48-.43-.75-.7-.96-.94-1.19-2.24-1.19-3.5 0-1.21 1.16-3.04 2.09-3.87 1.13-1.01 2.45-1.62 3.96-2.12.86-.28 2.38-.7 3.49-.7 3.68 0 6.33.05 8.77 2.62.4.41 1.06 1.28 1.08 1.98.26-.26.45-.62.7-.95.24-.32.49-.59.77-.89l2.33-1.9c.18-.12.32-.2.51-.31 2.72-1.51 6.53-1.63 9.04 0 .3.19.49.35.71.6 1.08 1.21 1.02.84 1.02 2.64.18-.11.26-.36.36-.56 1.29-2.45 3.1-3.19 6.17-3.73.58-.1 1.1-.16 1.67-.24.57-.08 1.1-.18 1.58-.2z" style="fill:#010101"/><path class="fil3" d="M6.04 22.82c-.38-.42-6.52-1.48-4.75-6.87.74-2.26 2.86-3.52 5.09-4.32.78-.28 1.76-.48 2.47-.76-1.2-.07-4.29 1.16-5.09 1.61-2.18 1.22-3.91 3.8-3.27 6.14.57 2.09 2.65 3.37 4.87 4.11l.53.13c.15 0 .08.01.15-.03z"/><path class="fil3" d="M4.02 21.12c-.64-.74-1.09-.98-1.38-2.22-.23-.98-.06-2.03.29-2.89.96-2.37 3.07-3.21 3.57-3.69-.91.13-2.07 1-2.61 1.41-1.72 1.32-2.47 3.32-1.79 5.36.28.84 1.14 1.78 1.92 2.03z"/><path class="fil4" d="M7.42 25.19c1.02.22 4.84-.48 6.09-1.09-.05-.41-.14-.46-.27-.77-.97.06-2.03.23-3 .19-1.54-.06-1.85-.29-2.64-.35-.08.49-.34 1.65-.19 2.01z"/><path class="fil4" d="M5.87 25.58c.08.45.37.44.93.43.42 0 .88-.02 1.3-.05 1.28-.08 6.33-.51 6.89-.99-.93-1.07-1.75-.4-1.87-.35-1.09.38-3.57.79-4.77.86-1.04.06-1.6-.29-2.48.1zM36.2 20.45c.86 0 1.65-.07 2.55-.04.84.03 1.7.1 2.53.12l-.09-1.23c-1.01.02-1.81.23-2.94.17-1.38-.07-1.86-.24-2.05.98zM23.74 22.22c1.95 0 3.22-.06 5.05-.34a.953.953 0 0 0-.14-.71c-.55-.09-2.22 0-2.93 0-1.24.01-1.91-.13-1.98 1.04zM22.18 23.09c.63 0 7.03.13 7.26-.72-.35-.3-1.34-.09-1.78-.04-.6.07-1.27.18-1.86.21-1.06.06-3.24-.28-3.62.55zM35.5 20.99c.5.34 2.14.34 2.88.32.99-.02 2.02-.07 2.81-.4-.27-.2-.97-.15-1.32-.16-1.08-.04-3.85-.23-4.37.24z"/><path class="fil5" d="M15.47 25.11c1.85-.23 3.73-.57 5.59-.85 1.84-.27 3.7-.54 5.55-.81 1.59-.23 9.24-1.39 10.74-1.9-2.19-.2-1.72-.37-3.88-.01-1.19.2-2.51.42-3.75.54-.01.83-.17.88-1.11 1.01-.62.08-1.32.17-1.95.19-1.4.05-2.83.01-4.22.15-.99.09-7.12.77-7.64.95.37.37.39.12.67.73zM3.04 25.97c.11.16.06.14.29.26.31.15.94.21 1.29.23.69.04 1.36-.03 2.05-.06-.68-.31-.96.01-1.19-.8-.91.03-1.73.12-2.43.38z"/><path class="fil6" d="M43.72 9.98c.56.38 1.71.6 2.17 2.15.94 3.18-3.02 7.19-6.32 6.41-1.05-.25-2.04-1.1-2.38-2-.55-1.43.29-3.58 1.42-4.5.72-.57 3.89-1.09 4.62-2.09-1.35.03-3.39.49-4.55.87-1.34.43-2.45 1.25-3.05 2.17-.65 1-1.37 2.32-1.04 3.83.18.8.36 1.13 1.03 1.48.34.18.62.23.94.41.28.16.49.36.92.42 1.47.22 3.61.02 4.68-.56 1.03-.55 2.47-1.5 3.02-2.19.73-.91 1.21-2.43 1.11-3.86-.09-1.2-1.26-2.52-2.58-2.55zM25.49 20.79c-.51-.25-2.05-.27-3.06-1.82-1.83-2.81.51-6.98 3.54-8.24.3-.12.65-.24.86-.44-2.71.15-6.29 3.15-6.96 4.9-.7 1.82 0 3.01 1.02 4.09.79.84 2.73 1.58 4.6 1.51zM7 22.19c-1.25-.66-2.31-1.37-2.8-2.74-.55-1.53 0-3.15.76-4.25.81-1.17 1.71-1.92 2.98-2.64.58-.33 1.32-.67 2.07-.84.71-.16 2.15-.16 2.64-.31-5.32-.78-11.57 4.07-9.35 8.28.34.65.9 1.19 1.47 1.56.33.21 1.72.95 2.23.93z"/><path class="fil6" d="M24.31 20.1c-.49-.42-.93-.9-1.19-1.52-.59-1.46-.3-2.87.48-4.22.18-.32.33-.54.53-.82.26-.36.37-.47.69-.75 1-.89 2.28-1.65 3.8-1.86 1.36-.18 2.51.1 3.65.54.42.16.62.36.96.52-.24-.56-4.74-3.66-9.04.32-.92.85-1.88 2.32-2.04 3.98-.16 1.68.75 3.41 2.15 3.83z"/><g><path class="fil7" d="M12.08 20.88c-.04-.31 2.69-4.18 3.07-4.77l1.01-1.51.24.11c-.09.31-3.18 4.88-3.67 5.59-.2.3-.3.66-.65.57zm-2.02.18c.02-.41 1.05-1.69 1.35-2.1l2.84-3.97c.17-.24 1.27-1.92 1.45-1.77.2.17-.38.8-.53 1.01l-4.3 5.95c-.36.49-.46.81-.82.87zm1.32-7.68c-.32.27-.48.28-.79.6l-3.13 3.38c-.29.32-1.15 1.42-1.28 1.12-.11-.25 2.11-2.49 2.39-2.8.81-.89 1.54-1.91 2.66-2.51.16.16.03 0 .15.2zM7.92 20.1c-.01-.33 1.13-1.59 1.41-1.93l2.95-3.67c.25-.29.51-.58.75-.91.43-.57.45-.78.9-.79-.03.41-1.09 1.54-1.43 1.95l-2.95 3.67c-.24.3-.49.6-.74.92-.35.46-.47.77-.88.77zm4.09-8.36c-3.08.22-4.88 1.31-6.44 3.17-.45.53-.86 1.29-1.06 2.06-1.78 6.94 11.93 7.81 14.26.23 1.08-3.53-2.78-5.75-6.77-5.46zM28.8 18.27c.44-.62 1.87-2.23 2.51-3 .26-.32.51-.82.97-.87-.03.49-1.09 1.48-1.59 2.09-.29.35-1.44 1.76-1.73 1.89-.04-.02-.14-.1-.16-.11zm3.22-4.97c-.03.36-2.11 2.65-2.51 3.12L27.2 19.1c-.1.1-.2.31-.38.15-.11-.1.41-.62.53-.76 1.21-1.39 2.75-3.37 3.89-4.62.12-.13.22-.23.35-.37.19-.2.1-.23.42-.19zm-6.3 4.79c.03-.39.8-1.04 1.25-1.5l3.36-3.52c.51-.52.45-.56.74-.51-.02.39-3.37 3.72-3.9 4.27-.43.45-.95 1.22-1.45 1.26zm-1.38-.59c-.02-.33.8-1.07 1.15-1.45l2.56-2.79c.65-.71.97-1.32 1.39-1.12-.36.52-.78.93-1.21 1.41-.41.46-.81.9-1.25 1.35-.45.46-.85.91-1.29 1.39-.44.49-.96 1.24-1.35 1.2zm4.41-6.29c-7.15 1.11-7.51 10.82-.51 9.05 4.75-1.2 7.15-6.21 4.69-8.08-.89-.68-2.57-1.21-4.17-.96zM42.2 17.07c.13-.52 2.56-3.89 2.98-4.25.21.1.08.01.21.15l-2.27 3.19c-.52.75-.45.9-.91.91zm-1.42 0c-.14-.28.09-.48.25-.68l2.22-3.08c.17-.23.29-.4.45-.63.12-.16.27-.53.52-.43.26.11-.12.47-.22.61-.18.25-.29.42-.44.64-.3.4-.59.78-.88 1.2l-1.35 1.88c-.38.56-.22.46-.54.5zm-1.15-.34c-.02-.4.64-1.17.87-1.49l1.96-2.77c.16-.22.31-.43.48-.66.09-.13.18-.25.25-.33.11-.11.24-.16.37-.09.02.18-1.6 2.37-1.86 2.73-.34.47-.66.92-.98 1.39-.34.51-.65 1.17-1.09 1.23zM38.47 16c.25-1.02 3.02-4 3.27-4.8-.67.21-1.21.44-1.95.65-1.96.54-2.9 3.15-2.13 4.83.48 1.04 1.76 1.98 3.54 1.61 2.26-.47 4.82-3.11 4.41-5.72-.12-.77-.37-1.18-.87-1.62-.27-.23-.45-.35-.82-.51-.52-.22-.52-.12-.93.13-.22.13-.71.3-.86.41-.34.25.33-.06-.26.72-.39.51-.73 1-1.1 1.49l-1.87 2.57c-.13.2-.08.24-.43.25z"/></g><path d="M5.88 29.78c.97.02 3.64-.63 4.71-.84 9.5-1.81 18.86-3.16 28.43-4.62 1.6-.24 3.11-.62 4.62-.87-.1-.81-.35-1.43-.86-1.87-.95-.81-1.53-.33-2.16-.2-.81.18-1.71.2-2.54.37-7.25 1.51-14.81 2.49-22.21 3.59-3.33.5-6.71.93-10.03 1.46l.03 2.98z" style="fill:#7b7b7b"/><path d="m43.77 22.61.24 1.01c-.74.11-1.52.34-2.26.48-2.09.42-4.98.87-7.09 1.17-6.7.97-12.28 1.79-18.97 3l-6.96 1.28c-.64.11-1.84.11-2.05.62.1.05.02.03.2.05.23.03 4.33-.83 4.65-.89 1.64-.32 3.22-.64 4.85-.94 7.1-1.34 13.15-2.07 20.28-3.02 1.57-.21 5.95-.76 7.27-1.42.65-.33.98-1.16-.18-1.36z" style="fill:#656565"/><path d="m41.51 19.2.11 1.34c.2.25.98.69 1.4.92.47.26 1.2-.32 1.16-.87-.44-.17-1.36-.13-1.88-.14-.13-.91-.16-1.12 1.11-1.8.86-.46 1.25-.72 1.9-1.27.97-.84 1.83-2.71 1.83-4.37 0-1.49-.93-3.33-2.61-3.21.29.11 1.01.66 1.2.85 1.31 1.22.96 3.37.4 4.73-.48 1.17-1.04 1.62-1.92 2.27-.6.44-1.97 1.27-2.7 1.56z" style="fill:#353335"/><path d="M5.48 26.84c-.5-.12-3.55-.31-2.69-1.07.31-.28 2.53-.44 3.5-.64l-.14-1.35c-.36.88.21 1.03-1.14 1.26-.65.11-1.52.2-2.12.4-.63.21-1.22.88-.45 1.29.43.23 1.36.44 1.93.56.04.96-.24 2.67.25 3.44.58-.13.97-.83.98-1.55 0-.6.02-1.85-.12-2.33z" style="fill:#434142"/><path d="M3.81 21.46c-.82-.77-1.65-1.04-2.03-2.41-.7-2.51.29-4.53 2.53-5.97.48-.31.97-.57 1.52-.78.29-.12 1.49-.55 1.7-.71-1.78.17-4.91 2.1-5.66 3.78-.83 1.85-.87 3.5.55 5.1.22.25.97.91 1.4 1z" style="fill:#eee"/><path d="M9.7 11.18c1.64 0 3.07-.24 4.88.17.42.09.99.34 1.34.36-1.22-.86-4.34-1-6.25-.95l.03.42z" style="fill:#454344"/><path d="M6.59 25.09c.49.04.42.01.55-.89.06-.39.14-.93.12-1.34l-.88-.26.2 2.5z" style="fill:#fefefe"/><path d="M27.26 20.83c1.34.06 2.43-.15 3.42-.62.61-.29 1.87-1.27 2.11-1.87-.33.16-.27.21-.54.45-.08.07-.17.13-.24.19-.14.12-.14.13-.28.23-.78.59-1.7 1.01-2.73 1.29-.61.17-1.17.19-1.74.32z" style="fill:#494748"/><path d="M11.37 22.89c-.66-.01-1.33.02-1.99 0-.67-.02-1.18-.13-1.83-.17l.38.21c.14.04.3.07.43.1.72.14 2.36.24 3-.14z" style="fill:#444243"/><path class="fil1 str0" d="M5.87 32.57c.1-.4.29-1.02.48-1.5s.4-.82.57-1.07c.17-.25.31-.41.51-.53.19-.12.43-.2.72-.37.29-.17.62-.41.91-.63.29-.22.55-.41.81-.52.26-.11.52-.15.75-.15.23 0 .42.04.59.12.17.08.3.2.38.39.08.19.1.43 0 .79-.1.36-.31.83-.65 1.4s-.81 1.25-1.26 1.78c-.45.53-.89.92-1.27 1.2-.37.28-.68.45-.94.54-.26.09-.47.1-.68.06-.21-.04-.41-.13-.58-.26-.17-.13-.3-.31-.37-.49-.06-.18-.06-.35.04-.75z"/><path class="fil0 str0" d="M10.71 34.04c-.4.38-.85.74-1.3 1.08-.4.3-.88.65-1.36.85-.4.17-.78.22-1.22.17-.37-.04-.68-.13-1-.28-.43-.21-.8-.51-1.08-.87-.37-.48-.57-1.04-.59-1.61-.03-.56.09-1.1.19-1.65.06-.37.07-.55.25-.91.24-.46.56-.93.85-1.38.32-.49.65-.99 1.04-1.45.38-.45.83-.87 1.34-1.21.45-.3.94-.53 1.47-.69.4-.12.81-.21 1.23-.25.41-.04.75-.03 1.15.08.41.11.85.32 1.16.57.1.08.19.16.26.25.05-.2.1-.39.16-.59.09-.33.19-.67.4-.96.14-.2.32-.37.54-.51.31-.21.7-.31 1.08-.17.37.13.58.45.7.76.12.32.15.69.18 1.03.02.3.04.6.05.9.13-.38.26-.76.4-1.13.14-.38.32-.83.57-1.17.17-.23.37-.39.66-.49.4-.12.8-.09 1.13.15.15.11.27.25.36.4.23-.39.52-.75.91-.95.33-.16.72-.26 1.08-.12.38.14.54.46.56.8.02.24-.02.49-.07.72-.08.35-.22.72-.35 1.07-.32.89-.65 1.78-.96 2.68-.42 1.2-.83 2.4-1.22 3.61l-.03.09c.26-.13.51-.28.72-.4.5-.29.99-.6 1.49-.89.3-.17.65-.37 1.02-.35.21.01.36.07.48.17.13-.41.25-.82.37-1.23.05-.17.1-.35.14-.52.01-.07.02-.12.04-.19l.12-.3c.12-.31.24-.63.36-.95.45-1.23.87-2.47 1.32-3.7.12-.34.24-.69.4-1.02.1-.21.21-.39.4-.55.28-.23.7-.38 1.08-.34.33.03.58.19.74.42l.06-.09c.2-.28.49-.53.8-.72.28-.18.63-.34.98-.37.54-.05.91.21 1.14.61.22.36.37.83.51 1.23.2.57.36 1.12.4 1.72.04.57-.05 1.11-.06 1.68 0 .12 0 .21.01.3l.27-.96c.16-.59.31-1.18.47-1.77.12-.46.25-.93.41-1.38.19-.52.4-1.01.97-1.3.35-.18.78-.31 1.19-.26.49.06.84.35 1.03.73.17.35.22.76.19 1.13-.02.24-.07.47-.13.7-.07.28-.16.57-.24.85.01-.02.02-.04.03-.05.31-.54.62-1.09.96-1.62.26-.4.53-.82.82-1.21.28-.37.49-.55.97-.72.24-.09.5-.16.74-.23.43-.13.87-.25 1.3-.38 1.27-.37 2.54-.77 3.82-1.12.47-.13 1.14-.32 1.63-.25.29.04.54.14.73.33.21.2.28.44.32.7.05.29.07.64.03.93-.05.31-.18.55-.41.79-.26.27-.56.43-.93.57-.65.25-1.42.44-2.11.63-.98.27-1.96.53-2.94.79l-.56.15c-.05.01-.11.03-.16.05-.1.06-.29.31-.35.39-.39.49-.74 1.02-1.09 1.54-.31.46-.61.93-.9 1.4.74-.22 1.47-.48 2.21-.71.88-.27 1.78-.51 2.68-.73.39-.09.85-.21 1.25-.24s.74.06.99.35c.21.23.33.55.36.85.03.29-.04.63-.17.9-.11.23-.24.37-.45.54-.27.22-.53.34-.87.46-.56.21-1.16.38-1.74.55.24.05.43.18.62.34.21.18.42.38.6.59.21.26.37.55.34.87-.03.37-.3.64-.6.89-.39.33-.83.65-1.27.94-.54.36-1.09.69-1.68.99-.58.29-1.18.55-1.78.8-.34.14-.7.28-1.06.38-.33.09-.61.11-.95.04-.4-.09-.76-.3-1.08-.52-.45-.31-.93-.7-1.29-1.08a2.95 2.95 0 0 1-.43-.55c-.11.44-.24.98-.47 1.36-.22.35-.56.62-.97.8-.32.15-.73.26-1.1.26-.37 0-.67-.11-.92-.34-.26-.23-.4-.5-.52-.8-.23-.58-.36-1.23-.45-1.84-.08-.57-.12-1.15-.17-1.73-.09.28-.17.55-.26.83-.16.52-.33 1.04-.51 1.55-.14.39-.3.82-.65 1.11-.35.28-.84.41-1.31.35-.49-.06-.86-.31-1.07-.69-.15.46-.37 1.01-.76 1.25-.43.27-.95.21-1.37-.04-.34-.21-.61-.53-.72-.87-.01-.03-.02-.06-.03-.1-.02.01-.05.03-.07.04-.53.29-1.1.55-1.65.82-.35.17-.76.38-1.14.49-.36.11-.66.11-1.02.01-.35-.1-.66-.27-.92-.5-.26-.23-.48-.53-.64-.82a3.15 3.15 0 0 1-.13-.26l-.18.45c-.11.26-.24.53-.44.75-.27.31-.65.5-1.1.53-.42.02-.75-.13-.98-.43-.31-.4-.36-1.03-.4-1.5l-.03-.55c-.14.41-.31.86-.53 1.21-.2.31-.49.58-.89.69-.48.13-.92-.04-1.16-.42-.18-.28-.26-.67-.27-.99v-.02zm30-3.9c-.5.14-1 .28-1.5.43-.76.23-1.56.47-2.3.75-.12.05-.44.16-.52.27-.06.07-.08.14-.1.23-.02.15-.01.36.04.51.01.02.02.06.04.07.11.03.35 0 .47-.03.28-.06.54-.18.79-.3.44-.22.86-.48 1.26-.74.57-.37 1.12-.77 1.7-1.13.04-.02.07-.05.11-.07zM6.54 32.7c-.02.09-.09.35-.06.44.03.08.11.17.18.23a.54.54 0 0 0 .54.09c.26-.09.53-.28.74-.43.43-.32.82-.7 1.16-1.1.45-.52.86-1.12 1.2-1.7.23-.38.48-.85.59-1.27.03-.12.08-.33.02-.45a.12.12 0 0 0-.07-.07.672.672 0 0 0-.24-.04c-.15 0-.3.03-.43.09-.23.1-.48.3-.68.45-.31.23-.63.47-.98.67-.14.08-.29.16-.45.23-.08.04-.17.08-.25.13-.13.08-.24.23-.32.35-.21.3-.37.63-.51.96-.18.46-.34.96-.46 1.43z"/><path d="M19.58 26.01c-.53 1.19-1.31 3.38-1.74 4.58-.44 1.21-.53 1.43-.58 1.79-.05.36-.05.87-.03 1.2.03.34.09.5.22.72.12.22.3.48.52.66.21.18.45.29.64.35s.34.06.57-.01c.23-.07.54-.22 1.04-.45.5-.24 1.19-.57 1.62-.8.43-.23.61-.37.69-.47.08-.1.07-.18.07-.45s.01-.74 0-1.01c-.01-.26-.05-.32-.14-.33-.09-.01-.22.04-.59.25s-.96.59-1.49.89c-.52.31-.98.54-1.31.65-.33.11-.54.08-.63.02-.09-.07-.07-.18.2-1.01.27-.83.8-2.39 1.22-3.62.43-1.23.76-2.12.96-2.68.2-.56.28-.78.33-1 .05-.22.07-.42.06-.57-.01-.15-.05-.25-.15-.28-.1-.04-.25-.01-.47.09-.22.1-.49.29-1.02 1.48zm17.03-.7c-.52.91-1.4 2.43-1.9 3.36-.5.93-.62 1.27-.69 1.55-.07.28-.09.5-.1.9-.01.41-.02 1 .06 1.43.07.43.23.7.55 1.04.32.34.82.74 1.19.99s.63.36.83.41c.2.04.35.03.57-.03.22-.06.5-.16.98-.35.47-.19 1.13-.47 1.73-.77.59-.3 1.12-.62 1.6-.95.49-.33.93-.66 1.21-.9.28-.23.38-.36.39-.5.01-.14-.06-.3-.21-.48s-.37-.38-.52-.52c-.16-.13-.25-.2-.41-.19-.16.01-.4.1-.85.38-.46.28-1.14.76-1.69 1.12-.55.36-.97.6-1.33.78-.36.18-.66.3-.97.36-.31.07-.63.08-.86.01-.24-.07-.39-.23-.48-.46-.08-.23-.1-.53-.06-.76.03-.23.11-.38.22-.51s.26-.25.8-.46c.53-.21 1.45-.5 2.35-.77.9-.27 1.77-.51 2.59-.75.82-.24 1.58-.47 2.02-.63.44-.16.56-.26.66-.34.11-.09.2-.17.28-.33.08-.16.14-.41.12-.63-.02-.22-.12-.42-.21-.53-.1-.11-.19-.13-.38-.12-.19.01-.47.06-1.12.22-.65.16-1.68.43-2.64.72-.95.29-1.83.6-2.37.75-.55.16-.77.16-.91.15-.15-.01-.22-.04-.23-.12-.01-.08.04-.22.28-.62.24-.41.67-1.08 1.09-1.72.42-.63.84-1.22 1.11-1.58.28-.36.42-.48.54-.55.12-.07.22-.09.9-.27.69-.18 1.96-.52 2.93-.78.97-.26 1.63-.45 2.03-.6.4-.15.55-.28.68-.41a.89.89 0 0 0 .26-.49c.04-.23.01-.55-.03-.76-.04-.21-.08-.32-.16-.39-.07-.07-.18-.11-.33-.13-.15-.02-.35-.03-1.31.23-.96.26-2.68.78-3.81 1.11-1.13.33-1.67.48-2 .6-.33.12-.44.21-.65.5-.22.29-.54.78-.79 1.17-.25.39-.42.69-.95 1.6zm-7.39 3.48c.16.03.27.59.36 1.38.08.8.14 1.83.25 2.63.11.8.28 1.37.41 1.72.14.35.24.47.35.57.11.1.23.16.43.16.21 0 .51-.07.78-.19s.52-.3.68-.56c.16-.26.24-.59.44-1.33.2-.74.52-1.88.96-3.38.43-1.5.98-3.36 1.3-4.47.32-1.11.43-1.47.45-1.8.03-.33-.03-.63-.14-.85-.11-.22-.28-.35-.5-.38-.22-.03-.49.05-.73.17-.23.12-.43.29-.67.97-.24.68-.52 1.87-.87 3.12-.34 1.25-.75 2.56-.99 3.2-.25.64-.34.62-.35.42-.01-.2.05-.58.03-1.01-.02-.43-.12-.9-.21-1.22-.08-.32-.15-.49-.14-.89.01-.4.1-1.04.06-1.62-.04-.58-.21-1.11-.37-1.58s-.32-.89-.46-1.13c-.14-.24-.27-.31-.45-.29-.18.02-.41.12-.65.26-.23.15-.47.34-.62.55-.15.21-.21.45-.3.9-.08.45-.19 1.11-.32 1.75-.14.64-.3 1.25-.55 1.99-.25.73-.57 1.59-.87 2.35-.3.76-.57 1.43-.74 1.91-.17.48-.23.76-.23 1.06 0 .3.06.63.19.85.12.22.3.33.54.36.24.03.54-.03.75-.2.21-.17.32-.45.47-.85.14-.4.31-.91.51-1.53.19-.62.41-1.33.62-1.94.21-.61.4-1.12.56-1.09zm-5.2 1.52c-.19.66-.63 2.05-.86 2.87-.23.82-.27 1.07-.19 1.3.07.23.26.43.45.55.19.12.4.15.57.04.17-.11.31-.35.6-1.25s.74-2.44 1.22-3.93c.48-1.48 1-2.91 1.33-3.77.33-.86.47-1.15.56-1.38.08-.23.11-.39.09-.53a.812.812 0 0 0-.14-.34c-.06-.09-.11-.15-.15-.23-.04-.08-.06-.17-.11-.27-.05-.09-.11-.18-.26-.2a.828.828 0 0 0-.53.18c-.16.13-.26.33-.61 1.31-.35.97-.96 2.72-1.32 3.7-.35.97-.45 1.18-.48 1.25-.03.07.02.02-.18.68zm-12.44 2.76c-.13.36-.19.68-.18.98.01.3.1.58.19.73.09.15.2.17.34.13.14-.04.32-.14.5-.41.18-.27.34-.71.55-1.31.21-.6.45-1.37.64-1.88.18-.51.31-.76.38-.91.07-.15.1-.2.13-.18.03.03.07.13.09.88.02.76.01 2.17.06 2.99.06.82.17 1.06.28 1.2.11.14.2.18.37.17.16-.01.39-.06.59-.29.2-.23.39-.63.92-2.17a313.4 313.4 0 0 0 1.9-5.63c.47-1.44.52-1.66.48-1.86a.805.805 0 0 0-.29-.48c-.13-.1-.28-.1-.45-.04-.18.06-.39.17-.81 1.28-.42 1.1-1.05 3.19-1.38 4.23-.33 1.03-.37 1.01-.38.93-.01-.08.02-.22.03-.81.01-.59.01-1.62 0-2.44-.01-.81-.04-1.4-.07-1.82-.03-.42-.07-.68-.15-.88-.07-.2-.18-.35-.31-.39-.12-.04-.26.01-.39.1-.13.09-.26.2-.37.35-.11.15-.19.33-.31.78s-.29 1.18-.59 2.16c-.31.98-.76 2.21-1.09 3.03-.33.82-.54 1.21-.67 1.57zm-6.55-1.25c-.06.36-.2 1-.18 1.54.03.54.22.97.48 1.3.26.33.57.55.85.68.27.13.5.19.74.21.24.03.5.03.84-.11.34-.14.75-.42 1.21-.76.45-.34.95-.75 1.34-1.13.4-.39.7-.76.99-1.24.29-.48.55-1.07.82-1.73.27-.66.54-1.4.66-1.92s.1-.81.03-1.06-.19-.47-.43-.66c-.24-.19-.6-.36-.91-.44-.3-.08-.55-.08-.86-.05-.3.03-.67.09-1.07.22s-.85.32-1.28.6c-.43.29-.85.67-1.21 1.09-.36.42-.67.89-1 1.38-.32.5-.66 1.02-.82 1.33-.16.31-.14.39-.2.75zm.83.76c.1-.4.29-1.02.48-1.5s.4-.82.57-1.07c.17-.25.31-.41.51-.53.19-.12.43-.2.72-.37.28-.17.62-.41.91-.63.29-.22.55-.41.81-.52.26-.11.52-.15.75-.15.23 0 .42.04.59.12.17.08.3.2.38.39.08.19.1.43 0 .79-.1.36-.31.83-.65 1.4s-.81 1.25-1.26 1.78c-.45.53-.89.92-1.27 1.2-.37.28-.68.45-.94.54-.26.09-.47.1-.68.06-.21-.04-.41-.13-.58-.26-.17-.13-.3-.31-.37-.49-.06-.18-.06-.35.04-.75z" style="fill:#fff;stroke:#000;stroke-width:.38;stroke-miterlimit:22.9256"/><path d="M18.71 10.09c-.1.29-.2.58-.3.86-.07.18-.14.37-.24.53-.15.24-.41.43-.74.41-.26-.02-.49-.18-.57-.4-.09-.23 0-.62.06-.85.09-.38.22-.77.35-1.14.07-.19.14-.38.21-.58-.07.1-.14.19-.21.29-.29.4-.59.81-.9 1.2-.12.16-.25.31-.38.46-.09.1-.19.22-.3.31-.23.19-.51.26-.76.06-.21-.16-.3-.48-.37-.71-.04-.12-.07-.24-.1-.36-.03-.08-.05-.18-.09-.26-.05-.09-.08-.09-.19-.11-.52-.1-1.33-.11-1.86-.04a.9.9 0 0 0-.16.03c-.01.01-.02.04-.03.05-.05.1-.08.22-.11.33-.05.17-.1.34-.16.5-.11.31-.28.75-.58.96-.17.12-.39.14-.58.04a.833.833 0 0 1-.28-.28c-.1-.16-.18-.41-.17-.6.01-.27.15-.48.28-.72.1-.19.17-.36.19-.57.02-.18.01-.33.08-.51.05-.1.12-.19.22-.26.03-.02.08-.05.11-.08.02-.03.03-.08.04-.11l.06-.21c-.18.26-.37.52-.58.77-.45.53-1 1.01-1.55 1.47-.24.2-.51.45-.8.59-.28.14-.6.23-.9.09a.728.728 0 0 1-.32-.28c-.01.03-.02.06-.04.09-.13.25-.37.38-.68.41-.19.02-.36-.03-.47-.17-.11-.15-.1-.34-.08-.51.04-.25.11-.51.18-.75.06-.19.11-.39.17-.58-.01 0-.03.01-.04.01-.08.03-.17.05-.25.08-.19.46-.51 1.28-.85 1.51-.21.14-.49.18-.7.06l-.12.27c-.12.23-.32.49-.63.53a.603.603 0 0 1-.63-.33c-.07-.14-.08-.29-.08-.45.02-.28.09-.58.17-.86.14-.52.3-1.03.46-1.54l.18-.54c-.1.06-.2.11-.32.11a.5.5 0 0 1-.26-.06c-.15.61-.29 1.23-.46 1.84-.06.21-.12.44-.22.64-.07.14-.16.26-.32.33-.26.12-.6.08-.8-.12-.2-.2-.18-.51-.15-.76.04-.31.14-.65.23-.95.13-.43.27-.86.41-1.29.26-.78.55-1.55.81-2.33.11-.33.21-.65.32-.98.05-.17.11-.35.17-.53.06-.16.15-.34.29-.46.22-.18.5-.17.74-.03.32.2.34.59.33.9 0 .17-.01.35-.02.52.16-.27.32-.54.5-.8.13-.19.31-.45.49-.6.11-.09.24-.17.38-.19.18-.03.35.03.46.16.15.17.16.43.13.63-.02.16-.09.35-.14.51-.08.24-.17.48-.25.72-.16.45-.34.9-.49 1.36-.08.25-.15.49-.22.74-.04.16-.08.33-.13.49h.01c.1-.01.21-.17.26-.23.31-.4.57-.86.8-1.3.26-.48.5-.97.77-1.45.26-.47.53-.93.83-1.38.12-.18.28-.43.47-.56.16-.11.38-.15.56-.05.17.09.25.26.29.42.1.36.01.81-.07 1.17-.09.37-.2.75-.31 1.12-.14.47-.3.93-.46 1.39l-.51 1.44c-.01.04-.03.08-.04.12.05-.11.09-.23.14-.34.37-.92.76-1.83 1.11-2.75.1-.26.2-.52.27-.79.04-.14.07-.28.11-.42.06-.27.15-.62.31-.86.08-.12.2-.22.35-.28a.59.59 0 0 1 .47.01c.13.07.19.18.23.29.4-.34 1.04-.71 1.54-.76.33-.03.59.08.77.32.01.02.03.04.04.06a.86.86 0 0 1 .2-.18c.21-.14.48-.15.69 0 .2.14.3.39.33.63.48-.39.98-.6 1.58-.9.28-.14.64-.34.97-.29.34.05.57.32.66.59.01.04.02.08.03.11.16-.03.31.02.43.13.32.29.36.87.31 1.25-.01.09-.03.17-.06.25.06-.13.13-.27.19-.4.15-.31.3-.63.47-.94.14-.27.3-.53.48-.78s.48-.61.87-.49c.27.08.37.34.44.55.05.14.12.29.16.43.05.2.02.4-.02.6-.03.16-.08.31-.12.47l-.21.69c-.1.32-.21.65-.32.97.48-.63 1.01-1.28 1.59-1.85.59-.59 2.24-2.03 3.12-2.11.42-.04.78.11.98.42.16.26.2.58.17.86-.02.21-.1.46-.17.67-.09.23-.23.6-.56.62-.31.03-.47-.18-.59-.39-.02-.04-.1-.19-.15-.23a.69.69 0 0 0-.15.07c-.05.03-.11.08-.16.12-.1.08-.19.16-.29.24-.26.22-.52.45-.77.68-.27.24-.53.48-.79.72-.18.17-.36.34-.53.51-.42.43-.82.9-1.16 1.38.09-.01.17-.03.26-.05.49-.1.98-.21 1.46-.32.26-.06.62-.14.89-.14.32 0 .56.14.61.43.02.09.01.19 0 .3.24-.05.49-.09.72-.15h.02c.92-1.4 1.86-2.79 2.75-4.2.23-.37.46-.73.68-1.1.11-.18.23-.39.37-.55.13-.16.3-.3.53-.34.21-.04.41.03.56.15.22.18.35.48.4.73.04.22.01.42-.03.63-.09.4-.24.81-.37 1.2-.25.71-.51 1.41-.77 2.11-.27.73-.55 1.46-.84 2.19l-.3.75c.01 0 .02 0 .02-.01.18-.05.31-.08.43-.22.11-.13.2-.32.28-.47.18-.37.34-.76.51-1.14.27-.62.53-1.25.78-1.87.24-.58.47-1.16.69-1.75.1-.27.2-.55.27-.82.03-.11.05-.23.1-.34.1-.23.31-.51.52-.68.21-.17.56-.35.85-.2.22.12.22.38.24.58.01.08.02.16.04.24.21-.18.44-.36.68-.51.54-.33 1.51-.78 2.18-.66.38.07.77.28.98.56.25.33.21.7.11 1.07-.19.7-.57 1.45-.95 2.1-.43.74-.93 1.48-1.48 2.15-.43.52-.89 1.03-1.37 1.51-.42.43-.86.86-1.33 1.26-.3.26-.61.51-.95.72-.22.14-.45.25-.69.37-.35.17-.71.34-1.07.49-.28.12-.52.19-.78-.03-.25-.22-.48-.67-.59-1.1-.02.05-.04.11-.06.16-.07.18-.13.36-.2.54-.05.13-.09.27-.14.4-.04.11-.1.23-.2.32-.14.13-.34.16-.53.1-.25-.08-.49-.29-.62-.48-.2-.29-.24-.63-.07-.94.13-.23.31-.41.46-.63.15-.21.24-.41.29-.64l-.89.18c-.17.27-.33.53-.51.8-.15.24-.31.48-.47.7-.1.13-.22.3-.36.39-.17.11-.37.13-.56.05-.28-.13-.46-.43-.43-.71.04-.36.42-.72.62-1.09-.05 0-.09-.01-.14-.02a.635.635 0 0 1-.25-.11c-.49.49-1.1.98-1.69 1.31-.56.31-1.58.59-2.13.12-.23-.2-.37-.56-.47-.95zm1.38-1.52c-.15.3-.27.6-.24.82.01.08.03.19.07.28.23-.07.62-.27.95-.45-.25.04-.46.01-.6-.2-.08-.12-.14-.29-.17-.45zm-4.15-2.64-.35.35a47.66 47.66 0 0 1-1.56 1.46c-.1.09-.21.19-.31.29.15.06.29.12.43.18.09.04.48.22.61.24.1-.11.35-.7.4-.81.26-.57.51-1.14.77-1.71zm21.91 4.5c-.08.21-.17.43-.25.64-.08.21-.17.42-.26.63-.13.28-.31.57-.71.51a.867.867 0 0 1-.64-.44c-.21-.4.05-1.11.19-1.51.09-.24.19-.48.29-.72.04-.09.07-.17.11-.26.01-.02.01-.03.02-.05-.07.01-.15.03-.19.04-.47.12-.82.31-1.15.62-.26.25-.49.55-.7.83-.2.26-.39.54-.6.8-.13.15-.3.35-.53.39-.24.05-.42-.07-.53-.25-.29-.46-.28-.94-.02-1.4.09-.16.2-.31.31-.46.02-.03.07-.1.11-.15-.04-.02-.08-.03-.11-.04-.1-.04-.18-.06-.26-.14a.423.423 0 0 1-.12-.38c.03-.22.14-.55.24-.75.11-.24.24-.37.52-.46.22-.07.47-.11.7-.17.2-.05.4-.11.6-.16h.02c.04-.03.09-.1.12-.13.13-.16.26-.34.38-.51.78-1.08 1.52-2.18 2.27-3.27.28-.41.56-.82.85-1.22.17-.24.35-.49.54-.71.2-.24.44-.49.78-.59.28-.09.59-.08.81.12.19.17.23.43.22.66 0 .2-.04.4-.09.59-.09.37-.21.74-.33 1.1-.2.6-.42 1.2-.64 1.8-.24.66-.49 1.32-.74 1.98l-.15.39c.05-.03.11-.07.16-.09.41-.19.82 0 .87.4.04.34-.13.89-.24 1.22-.03.1-.22.56-.21.68.04.02.13.03.17.03.41.03 1.01-.17 1.39-.3 1.34-.46 3.63-1.43 4.4-2.51.03-.04.11-.16.11-.22-.01-.01-.02-.01-.02-.02-.2-.13-.65-.16-.88-.17-.28-.01-.57.01-.86.03-.35.02-.71.05-1.06.09-.66.07-1.33.14-1.99.22a.37.37 0 0 1-.27-.07.27.27 0 0 1-.11-.23c.01-.26.03-.53.05-.79.02-.23.06-.47.13-.7.13-.4.35-.6.68-.88.34-.29.68-.58 1.03-.86.45-.37.91-.73 1.38-1.08l.78-.6c.2-.15.4-.3.6-.43l.57-.36c.15-.09.31-.18.45-.28.22-.15.52-.41.78-.48.23-.06.45-.01.61.14.12.11.19.25.23.39.07.22.1.45.12.68.03.36-.04.62-.16.96-.1.28-.21.57-.32.85-.11.27-.24.55-.38.81-.15.26-.33.53-.66.6.71.16.96.52 1.03 1.29.04.45.04.96-.03 1.4-.07.43-.21.75-.45 1.12-.69 1.04-1.31 1.34-2.45 1.97-1.44.79-2.61 1.44-4.37 1.49-.86.03-1.7-.17-2.01-.94-.09-.21-.12-.46-.13-.72zm7.46-7.14-.05.05c-.19.16-.36.34-.55.5-.4.32-.86.61-1.26.94.24-.03.48-.06.72-.08.48-.03.98-.03 1.46.01-.26-.14-.4-.41-.43-.71-.02-.25.01-.48.11-.71zM6.83 7.71c.04-.04.07-.11.1-.19-.04.06-.07.13-.1.19zm30.43-.48c.14-.36.29-.73.42-1.09-.27.36-.54.73-.79 1.1-.01.01-.01.02-.02.03.13-.01.26-.02.39-.04zm-8 2.38c.17-.12.38-.29.45-.35.88-.69 1.7-1.42 2.45-2.22.76-.81 1.41-1.68 2.01-2.58.18-.27.36-.55.51-.83.04-.07.13-.27.17-.4-.06.02-.13.04-.16.06-.22.09-.44.2-.65.3-.25.12-.49.25-.73.38-.43.23-.7.39-1.04.73-1.17 1.16-1.91 2.77-2.62 4.17-.11.21-.22.41-.32.62-.02.03-.04.08-.06.12zM27.03 6.5l-.01.01c-.07.11-.14.22-.21.32-.09.13-.19.26-.28.38-.05.07-.11.14-.15.22.03 0 .06-.01.08-.01.02 0 .08 0 .09-.01.07-.04.16-.2.19-.26.11-.2.2-.43.28-.65zM8.99 8.95c.03-.02.05-.05.08-.07.24-.22.47-.45.67-.7.18-.21.34-.43.5-.66.2-.28.39-.56.58-.85.32-.49.64-.98.94-1.49.05-.09.2-.34.27-.52-.47.19-1.13.78-1.4 1.04-.12.12-.18.23-.27.38C9.83 7 9.4 7.97 9 8.94z" style="fill:#000"/><path d="M2.87 5.73c-.34 1.01-1.34 3.7-1.44 4.52-.03.26-.02.44.07.54.09.1.27.11.4.05s.2-.18.37-.78c.17-.6.42-1.67.56-2.22.21-.82.17-.62.29-.07.08.39.2.4.61-.04.2-.21.44-.52.69-.83-.45 1.35-.89 2.7-1.1 3.48-.21.78-.18.99-.11 1.12.11.21.41.28.66-.2.15-.3.33-.83.43-1.22.09-.38.1-.61.11-.83.14.07.29.13.43.2-.17.34-.62 1.16-.4 1.41.08.09.23.09.36 0 .28-.19.63-1.12.8-1.51.27-.1.54-.19.71-.22.17-.03.22 0 .28.04-.21.67-.41 1.33-.47 1.68-.05.34.05.37.19.36.14-.01.31-.06.41-.24.09-.18.11-.5.3-1.17.2-.67.58-1.69.92-2.66.34-.97.63-1.89.77-2.48.14-.59.13-.86.07-1.04-.16-.54-.47-.1-.71.27-.22.33-.53.83-.82 1.36-.48.87-1.03 2.06-1.59 2.78-.2.26-.33.34-.49.36-.16.02-.35-.01-.43-.04-.07-.03-.03-.07.04-.31s.17-.67.36-1.25c.2-.62.82-2.18.87-2.54.05-.37-.08-.63-.41-.36-.45.38-1.54 2.38-1.74 2.89.1-.87.21-1.74.21-2.23s-.09-.6-.19-.66c-.26-.16-.42.05-.52.34-.09.24-.19.63-.48 1.5zm38-.31c-.12.35-.14.89-.17 1.42 1.03-.12 2.97-.36 3.96-.34.56.01.9.1 1.08.23.18.13.22.29-.02.61-.81 1.13-3.1 2.12-4.56 2.63-.83.29-1.25.34-1.54.32-.73-.05-.45-.51-.25-1.07.13-.37.26-.86.23-1.11-.05-.41-.63-.25-1.01.56-.31.66-.57 1.74-.31 2.4.24.59.88.77 1.68.75 1.69-.05 2.81-.68 4.21-1.45 1.16-.64 1.69-.9 2.34-1.87.22-.33.35-.61.41-1.02.06-.41.06-.95.03-1.34-.07-.78-.29-1-1.21-1.1-.43-.05-1-.06-1.55-.03-.55.04-1.08.13-1.33.15-.24.01-.2-.05-.08-.18.48-.51 1.12-.88 1.68-1.34.38-.3.79-.8 1.09-.81.12-.01.22.07.21.18-.01.21-.3.46-.25.98.03.32.2.56.58.56.15 0 .29-.05.52-.45.22-.4.53-1.15.68-1.61.16-.46.16-.64.15-.87-.02-.25-.09-1.08-.53-.96-.17.05-.4.24-.68.43s-.63.37-1.02.63c-.57.39-2.15 1.63-2.73 2.1-.42.34-.75.62-1.02.85-.27.23-.48.4-.59.76zM34.99 9.7c-.5.48-1.02 1.28-1.33 1.65-.31.37-.4.32-.5.17-.62-.98.63-1.72.46-1.99-.05-.08-.22-.16-.34-.2-.12-.04-.19-.05-.17-.22.02-.17.13-.48.22-.67.09-.19.16-.24.33-.3.17-.05.43-.1.68-.16.24-.06.46-.13.6-.16.13-.03.18-.03.72-.77.54-.75 1.57-2.25 2.28-3.28.71-1.03 1.1-1.58 1.38-1.91.28-.33.46-.44.62-.49.41-.13.6.09.59.5-.01.26-.08.64-.4 1.62-.33.98-.91 2.55-1.38 3.77-.47 1.22-.83 2.09-1.1 2.79-.28.7-.48 1.23-.62 1.53-.14.29-.22.35-.35.33a.569.569 0 0 1-.4-.28c-.27-.52.61-2.17.66-2.45.05-.33-.27-.29-.63-.2-.31.08-.8.23-1.3.71zm3.05-3.61c-.13.35-.34.88-.54 1.41-1.28.13-1.29.16-.9-.41.22-.32 1.62-2.25 1.84-2.46.08-.08.1-.05.06.09-.04.14-.14.4-.21.62-.07.22-.12.4-.25.75zM30.6 3.94c-.33.89-1.03 2.58-1.48 3.63-.45 1.05-.64 1.46-.83 1.68-.36.44-.89.2-.98.67-.07.39.24 1.26.56 1.54.1.09.16.08.4-.03.24-.1.65-.29 1.06-.48.41-.19.82-.39 1.57-1.04.75-.65 1.85-1.75 2.66-2.73 1.01-1.24 2.08-3.02 2.37-4.15.1-.38.09-.63-.07-.85-.16-.21-.48-.39-.77-.44-.55-.1-1.45.32-1.92.61-.33.2-.62.45-.78.6-.17.15-.21.21-.28.09-.24-.4-.17-.94-.28-1-.08-.04-.26.01-.44.16s-.36.4-.43.57c-.07.17-.03.26-.36 1.15zm1.4.57c-1.19 1.18-1.96 2.85-2.68 4.24-.3.59-.42.76-.44.92-.02.16.06.31.18.34.12.03.28-.08.86-.53 1.94-1.53 3.19-2.86 4.52-4.87.43-.64.92-1.41.66-1.62-.08-.06-.2-.1-.57.05-.37.14-.97.46-1.42.7-.44.24-.72.39-1.11.78zm-11.01 3.4c2.48-.49 2.77-.84 2.46.36.5-.1 1-.19 1.23-.25.24-.06.21-.07.18-.09 1.08-1.62 2.15-3.25 2.79-4.26.64-1.01.84-1.4 1.03-1.62.46-.55.81.03.88.42.05.27 0 .58-.4 1.71-.39 1.12-1.12 3.06-1.61 4.29s-.73 1.75-.89 2.17c-.17.42-.26.74-.34.94-.08.2-.15.29-.3.25-.26-.08-.77-.53-.51-1.03.23-.44.68-.65.81-1.51.03-.17.01-.21-.01-.25l-1.46.3c-.4.63-.79 1.25-1.04 1.6-.25.34-.35.4-.48.34s-.28-.23-.26-.43c.03-.31.56-.78.7-1.23.14-.44-.63.16-.73-.53-.47.53-1.22 1.19-1.93 1.59-.52.29-1.34.47-1.71.16-.35-.3-.48-1.25-.49-1.7-.01-.32.03-.6.21-1.01.46-1.06 1.84-2.85 2.83-3.83.69-.69 2.22-1.95 2.91-2.01.65-.06.83.47.78.98-.03.25-.25 1.01-.43 1.03-.34.03-.3-.96-1.06-.5-.34.21-2.16 1.87-2.6 2.31-.72.74-2.16 2.49-2.05 3.32.02.16.08.36.14.46.06.1.12.11.22.09.38-.05 1.21-.55 1.64-.77.33-.17.53-.26.63-.35.1-.09.09-.17-.05-.18-.21-.01-1 .21-1.26.25-.14.03-.22.03-.29-.06a.87.87 0 0 1-.13-.43c-.01-.16.1-.41.16-.45.04-.02.1-.02.42-.08zm6.71-2.4c-.14.47-.44 1.32-.66 1.75-.23.43-.38.43-.55.44-.28.02-.69.1-.44-.36.09-.17.28-.38.47-.67.14-.2 1.1-1.78 1.27-1.72.04.01.06.09-.08.55zm-15.58.93c-.15.49-.41 1.33-.54 1.8-.13.47-.15.56-.22.63-.07.07-.21.12-.27.25-.12.26.05.51-.28 1.09-.1.19-.24.39-.25.6-.01.21.22.81.48.61.41-.3.6-1.35.76-1.68.07-.16.16-.22.44-.26.57-.08 1.44-.06 1.98.04.2.04.32.08.42.27.17.32.25 1.04.49 1.24.08.06.17.06.31-.06.54-.45 2.75-3.68 2.89-3.73.05-.02.07.06-.07.46-.19.57-1.28 3.22-1.1 3.7.07.2.45.35.71-.06.13-.2.25-.56.61-1.6.35-1.03 1.8-5.17 1.97-5.98.1-.48 0-.54-.13-.9-.12-.35-.25-.61-.71.01-.61.84-1.21 2.41-1.91 3.66-.51.91-1.25 2.1-1.65 2.7-.39.6-.43.62-.48.59-.05-.03-.1-.12.27-.93S17 6.55 17.42 5.72c.42-.83.46-.97.49-1.15.04-.3.01-.81-.22-1.02-.09-.08-.18-.07-.33.14-.24.36-1.64 3.5-1.89 4.06-.52 1.14-.43 1.17-1.47.72-.75-.32-.86-.29-.62-.54.18-.19.57-.54.92-.86.45-.42 1.62-1.54 1.96-1.94.28-.33.75-1.06.86-1.37.06-.18.08-.38.02-.57-.06-.18-.21-.36-.4-.39-.19-.03-.41.09-.75.26-.73.35-1.22.55-1.74 1.06-.15.14-.26.26-.34.31-.08.05-.13.03-.11-.04.02-.06.1-.17.12-.36.06-.61-.35-1.23-.83-.26-.09.18-.16.38-.25.64.11-.4.11-.73-.13-1.04-.1-.14-.23-.22-.45-.19-.49.05-1.19.51-1.5.82-.14.14-.15.21-.19.18-.17-.11-.17-.52-.28-.58-.08-.04-.24-.01-.37.17-.12.18-.21.5-.27.76-.06.27-.1.49-.39 1.25-.29.76-.83 2.06-1.11 2.76-.44 1.07-.28.8-.74 1.01-.43.2-.34.64-.21 1.03.16.47.41.63.9.38.19-.1.35-.23.74-.55 1.41-1.18 1.73-1.6 2.66-3.09.35-.56.56-.86.8-1.41-.05.13-.1.29-.19.56zm2.78-1.69c.44-.36.67-.46.8-.49.45-.09-.48.93-.71 1.17-.27.28-1.69 1.6-1.98 1.55-.11-.02-.06-.22 0-.36.05-.14.1-.2.45-.54s1.01-.97 1.45-1.33zm-4.87 1.2c-.57.98-1.03 2.06-1.46 3.1-.18.43-.27.64-.27.74 0 .1.09.08.15.04s.08-.09.33-.31.73-.6 1.22-1.18c.59-.7 1.65-2.37 2.04-3.02.13-.22.64-1.07.11-.99-.57.08-1.42.83-1.79 1.19-.1.1-.15.14-.32.44zm-2.63.37c-.24.26-.98 1.19-.96 1.56.01.2.34.18.45.14.34-.13.41-.6.47-.95.04-.24.08-.48.12-.65.04-.17.08-.27-.07-.1z" style="fill:#d60000"/></g></g></svg>