<svg xmlns="http://www.w3.org/2000/svg" xml:space="preserve" width="86.686" height="63.102" style="shape-rendering:geometricPrecision;text-rendering:geometricPrecision;image-rendering:optimizeQuality;fill-rule:evenodd;clip-rule:evenodd" viewBox="0 0 178.41 129.87"><path d="M158.23 70.11c-5.45 3.65-37.82 9.23-45.85 12.74-.21.09-1.81 0-1.51 2.99l4.4 8.64c1.01 1.31 1.76 1.51 1.91 3.35l-26.66 16.14c0 5.51 6.95 6.14-2.82 5.62l-13.07-1.32c-2.78-.37-6.72-.07-8.67-1.06-.25-.05-.55-.08-.87-.09-1.77.54-3.57 1.06-5.25 1.68-1.72.67-6.35 2.4-9.64 3.74 6.04 1.89 22.21 7.47 40.39 2.67 8.45-2.23 3.12 1.93 17.61 4.01 10.59 1.52 20.06.48 28.43-4.62 4.35-2.65 6.52-4.02 9.5-8.02 1.04-1.4 1.03-2.1 1.9-3.66 3.4-6.06.53-4.75 9.81-7.83 4.7-1.56 7.3-3.1 11.03-6.09 2.71-2.18 9.42-9.26 9.54-13.28-1.86-.4-3.56-.34-5.26-.7 0-5.09 4.51-20.02-3.56-17.59-1.96.59-9.9 3.5-11.35 2.68zM42.45 115.02h-2.1c2.06 2.58 1.29 2.63 4.65 4.56-.03-.12-.03-.23-.03-.33-.49-1.25-1.01-2.61-1.5-3.91-.11-.1-.21-.21-.31-.32h-.7zM15.73 48.36c2.68-.06 10.66-3.9 11.99-4.21v-.7c-.94-.25-6.53-3.21-7.69-3.86-.47 1.56-3.9 4.36-4.3 8.77zm29.88-37.54c1.87.16 3.2.36 5.61.35 15.52-.05 25.87 13.36 28.07 14.38 1.48.69 16.06-7.07 19.65-7.37.44.83.81 1.43 1.05 2.46 3.11 0 16.2-4.67 20-5.96-1.8-2.69-12.83-8.06-15.73-9.08C86.98-.52 82.94-2.07 63.19 3.22c-3.61.97-15.44 4.4-17.58 7.61z" style="fill:#ff6501"/><path d="M20.03 39.59c1.16.65 6.75 3.61 7.69 3.86v.7c-1.33.31-9.31 4.15-11.99 4.21-.77 1.01-.26.54-1.68 1.07L0 54.68c.05 2.99 15.28 44.94 17.75 51.71 2.72 7.45.8 5.77 11.59 7.32l13.11 1.31h.7c-.46-1.98-1.71-3.64-1.75-5.61l43.01-16.64c2.96-.78 13.99-5.47 16.98-6.17l5.61 14.73-6.39 2.4-30.28 11.52c-1.23.56-2.96.47-4.37 1.95 1.95.99 5.89.69 8.67 1.06l13.07 1.32c3.68.02 6.88 1.46 3.97-2.21-.99-1.24-1.16-1.29-1.16-3.41l26.66-16.14c-.15-1.85-.9-2.04-1.91-3.35l-4.4-8.64c-.32-3.13 1.2-2.79 2.79-3.47 6.11-2.61 42.74-9.7 44.57-12.26.69-2.58 14.38-16.31 14.38-17.54l-23.51-37.42-18.6 7.72-4.21-9.59c-2.21.44-3.93 1.37-6.32 1.4-1.68.29-16.1 5.96-20 5.96-.24-1.03-.61-1.62-1.05-2.46-3.59.3-18.16 8.06-19.65 7.37-2.19-1.02-12.54-14.44-28.07-14.38-2.41.01-3.75-.2-5.61-.35-2.96 1.51-6.2 2.04-12.55 5.32-1.71.88-19.42 13.06-20.87 14.99-2.11 2.81 5.92 6.73 7.84 8.46z" style="fill:#010c8c"/><path d="M95.78 115.02c0-1.59 7.27-5.97 8.84-6.95 1.04-.65 1.44-.95 2.62-1.59 1.31-.71 5.84-3.74 7.84-3.74 1.33 0 1.4 2.13 1.4 3.51v13.33c0 1.99-.7 2-.7 4.56-4.95 0-8.36-1.01-12.99-3.15-2.23-1.03-7.01-3.22-7.01-5.98zm22.45-13.33c3.79 0 6.66 3.76 9.57 6.22l8.67 6.76c-.7 3.03-3.64 4.66-6.2 6.08-3.92 2.17-6.68 3.88-10.29 3.04-.11-1.31-.32-1.16-.36-2.8l-.43-8.34c-.41-3.21-.96-7.19-.96-10.97zm4.21-2.1c0-.97.72-1.09 2.1-2.11 5.09-3.74 10.99-8.59 16.49-11.23 2.04 4.25 2.1 9.05 2.1 14.39 0 6.77-1.24 7.49-3.51 10.88-1.12-.54-1.41-.54-2.61-1.25l-6.62-3.9c-4.6-2.74-7.96-3.76-7.96-6.78zm21.05-20.35c2.46 0 2.36 2.07 3.92 4.5 1.38 2.14 8.71 12.51 8.71 14.45 0 2.37-7.2 4.21-10.18 4.21 0-5.5-.36-9.9-2.3-14.54-.48-1.15-.28-.91-.96-1.85-.39-.54-.95-.96-.95-1.86 0-1.6.22-4.91 1.75-4.91zm-27.72 5.97c1.23-.29 1.56-.67 2.7-1.16 2.65-1.14 17.76-5.16 20.11-5.16 3.43 0 .9 5.26.07 6.38-.92 1.24-5.91 4.11-7.55 5.08l-7.53 4.74c-1.61.57-2.45-1.01-3.53-1.88-2.81-2.27-4.26-4.22-4.26-8.02zm31.58-5.97c0-1.26 1.25-1.49 2.3-1.91l15.03-5.32c2.13-.71 4.13-1.62 6.18-1.18 0 2.89-.74 8.79-1.57 11.41-.31.97-.85 2.03-1.2 3.01-1.09 3.05-5.76 13.77-9.53 8.75l-4.99-5.89c-1.21-1.26-2.16-2.72-3.33-4.04-1.36-1.53-2.89-2.46-2.89-4.83zm-29.47 48.07c6.07 0 10.36-2.49 15.09-4.9 4.7-2.4 9.76-9.29 11.86-14.8 1.83-4.81 2.64-.51 13.29-6.36 1.58-.87 2.71-1.52 4.05-2.62 1.25-1.03 2.27-1.75 3.32-2.99 3.25-3.85 4.28-6.55 5.88-10.96 1.91-5.28 2.17-10.44.89-15.95-1.84 0-2.37.42-4.12.79-1.2.26-2.62.62-3.91 1l-45.37 11.82c-1.46.36-6.95 1.28-6.95 2.52 0 3.38 2.93 7.4 4.99 9.74.77.87 1.74 1.8 2.03 2.89-1.05 1.56-11.42 7.45-13.66 8.79l-8.78 5.26c-3.54 2.19-4.58 2.3-4.58 4.2 0 1.05 3.63 4.23 4.31 4.81 1.69 1.42 3.5 2.74 5.55 3.57 4.97 2.02 9.81 3.2 16.1 3.2z" style="fill:#ff0"/><path d="M47.01 123.97c1.9-1.07 10.35-4.2 12.83-5.17 3.42-1.27 7.39-2.14 10.49-3.54L107 101.34l-5.61-14.73-48.82 18.2c-2.9 1.1-9.08 3.12-11.18 4.61.01.67 4.87 13.62 5.61 14.56zM17.19 32.92c.84.22 5.63 4.3 12.08 6.16 3.27.95.35.51 4.89 1.78 9.48 2.65 15.16 2.9 25.79-1.68 11.16-4.8 14.39-6.94 23.65 2.06 4.13 4.01 5.09 3.27 2.02-.26l-9.7-10.3c-6.01-6.95-8.37-10.41-17.51-14.06-12.41-4.95-21.66.43-30.94 7.61-4.35 3.37-9.98 5.33-10.26 8.68z" style="fill:#78c020"/><path d="M54.31 113.31c1.53 4.05 2.3 4 4.98 4 6.47 0 1.42-10.48.18-12.63l-2.81 1.05c.06 2.98 2.24 5.52 2.11 8.07-.76-1.58-2.24-6.32-3.33-7.37-1.15.32-1.44.75-2.63 1.05 0 2.4.81 3.98 1.51 5.83zm93.4-73.65c1.79-.05 3.43 4.74 4.2 6.25-1.61.26-1.82.91-3.51 1.05-.94-2.71-3.2-7.24-.69-7.31zM32.57 85.36l-4.04 1.48c-1.17-1.44-1.52-4.08-2.27-6.14-1.37-3.77-2.24-5.35-.36-5.31 2.26.04 2.78 3.01 3.82 4.65 1.04 1.64 2.05 3.36 2.84 5.32zM6.2 55.97c.43 4.47 15.98 51.38 16.14 54.26 2.22-.42 10.41-3.43 13.56-4.33-.33-2.31-2.58-7.09-3.27-9.82 1.53-.53 2.87-1.14 4.91-1.05.57 2.47 3.35 5.79 4.44 8.54 4.76-.85 9.18-2.95 13.21-4.56L24.9 49.95 6.19 55.97zm92.39 18.71c-4.6 2.61-3.39 3.17-11.7-16.38-2.3-5.42-5.15-13.25-8.18-17.77-1.7.51-10.84 3.55-11.69 4.15-1.05 1.2 3.43 12.3 4.47 15.36.9 2.63 1.61 4.92 2.54 7.63 3.15 9.15 3.86 16.96 13.69 17.51 9.06.51 25.43-4.97 25.89-15.49.17-3.89-3.78-12.43-5.05-15.48L96.49 24.74c-2.52.11-4.91 1.48-7.28 2.29-5.71 1.94-5.25 1.6-4.56 3.96 1.91 6.51 13.69 39.47 13.94 43.68zm13.68-43.5c2.91-1.07 5.06-1.99 6.27-.3.56.79 2.15 4.97 2.15 6.26 0 2.76-1.91 3.48-4.44 4.09-.76-.83-3.85-8.55-3.98-10.06zm-11.93-5.38c.13 2.67 12.43 31.87 13.93 35.66 1.58 4.08 3.68 7.94 4.9 11.59 2.67-.03 6.8-2.24 9.35-2.81-.7-5.57-9.51-21.35-6.75-22.13 2.99-.84 4.98 7.01 5.75 9.23 1.18 3.42 3.39 7.6 3.92 11.15 3.51.05 6.7-2.45 10.06-2.92-.18-3.09-3.51-10.46-4.69-13.69-1.73-4.76-3.1-9.15-9.11-9.46.84-3.16 4.76-1.05 1.41-10.9-5.92-17.39-15.01-10.19-28.77-5.7zM31.46 53.52c.22 2.99 4.45 7.23 6.32 12.05 2.68-.84 4.16-2.98 6.43-3.51l13.92 35.08c2.49-.03 10.81-3.31 13.46-4.2 2.36-.79 1.43-.92-.36-5.64L59.06 55.5l7.61-1.31c.99-2.64-2.6-7.61-2.81-11.56L31.47 53.51zm111.57 10.64c1-.07 10.29-2.94 10.29-4.56 0-1.41-1.54-4.18-1.7-5.96.96-.82 2.21-1.11 3.45-1.4.46 1.68 2.4 4.16 3.04 5.73 3.04-.37 7.22-2.9 10.29-3.63-.16-3.36-19.22-29.7-20.58-33.8-2.9.14-9.56 3.56-12.41 4.68-3.25 1.27-2.8 1.48-1.59 5.1l5.52 20.45 3.69 13.41zm-47.42 39.12c-1.68-4.4-3.74-8.19-1.4-8.77-.02-1.07-.31-1.79-.7-2.46-.79.09-5.72 2.13-6.35 2.46l.04 1.75c1.38.6 1.19.19 2.46.35 3.07 7.19 1.44 9.28 5.97 6.67zm-28.24 5.44c1.78.15 2.66.34 2.81 2.1-2.46-.66-.16-1.56-3.86-.7l.09 1.75c1.74 3.55 6.49.78 7.07-1.23 1.48-5.16-5.65-3.68-5.92-5.96 1.26 1.34 2.66-.02 3.51-.88-.78-.89-1.08-2.14-2.69-2.3-3.66-.35-7.08 5.37-.99 7.21zm27.89-17.19c0 1.7 1.8 9.85 2.46 11.05l2.44-.75.44-2.05c1.71.52 1.16 2.22 4.48-.01-4.83-8.77-4.53-11.33-9.83-8.25zM85.51 104l.11-.81c.67 1.14 1.28 2.31 1.93 3.24.86-.33 1.72-.63 2.46-1.05-.25-2.09-.88-4.42-2.81-4.91 1.8-6.07-5-5.38-7.72-2.63.69 1.71 1.16 3.63 1.84 5.4 2.66 6.94 2.37 4.13 4.83 3.9-.02-1.66-.57-1.94-.63-3.14zm-11.47-4.58c-3.37.94-2.52 1.37-1.07 6.84 1.18 4.43 2.29 4.04 4.93 4.04 5.57 0 2.92-9.36-.18-12.31l-2.45.73c0 3.06 2.14 5.75 2.46 8.42-1.4-.64-1.58-4.89-3.68-7.72zm-22.98 18.25c-1.79-2.88-1.78-2.41-2.46-5.97.88.4 2.54 4.43 2.46 5.97zm-5.97-5.44c0 .17 1.27 10.57 7.16 7.97 5.1-2.26.83-11.65-2.77-11.65-2.18 0-4.39 1.69-4.39 3.68z" style="fill:#fff"/></svg>