<svg xmlns="http://www.w3.org/2000/svg" xml:space="preserve" width="207.673" height="249.694" style="shape-rendering:geometricPrecision;text-rendering:geometricPrecision;image-rendering:optimizeQuality;fill-rule:evenodd;clip-rule:evenodd" viewBox="0 0 114.56 137.74"><path d="M5.4 65.32c.23.23.26-.38.25.66l-1.33.43c-.63.79-.88 5.45-.6 6.67.41 1.82 2.39 3.6 2.57 4.89-4.78 1.21-8.27 1.56-5.04 6.61 1.17 1.83.83 1.07 2.49 2.12.41 3.11-.44 10.52-.6 14.07-.2 4.17-.9 10.1-.48 14.13.56.53.52.17.85.8.18.34.14.64.3 1.02.35.42 9.31.03 9.77.02 1.7-.04 3.28-.3 4.87-.33 1.65-.03 3 .28 4.98.21-.35 1.07-.56.97-1.73 1.32-1.71.52-4.28 1.42-3.15 4.04.32.74.92 1.28 1.03 1.79.17.77-.2 1.3-.14 2.21.15 2.26 4.39 8.49 8.05 2.61 1.39-2.24 1.89-4.91 5.26-5.02-.35 1.64-5.43 6.79-5.4 8.96.03 1.63 1.99 3.95 2.81 4.52 2.1 1.45 3.77-.06 4.84-1.17 2.83-2.95 11.27-15.55 12.54-16.18.67 1.92 1.5 2.24 2.28 3.8-.43 1.06-2.36 3.11-3.12 4.16-.63.87-2.45 3.2-2.82 4.16-.7 1.85.78 3.8 1.74 4.82 3.63 3.86 8.95-3.14 12.4-6.24l5.47-4.98c1.07-.81.97-.22 2.18.21 4.68 1.68 11.34-4.78 13.89-6.83l3.68-3.27c1.02-.62 23.45-.82 26.81-1.02.5-1.12.56-6.51.65-8.17.16-2.78.46-5.25-.17-7.91-.42-1.76-.73-1.63-.01-3.39 2.2-5.41.27-10.61.51-11.41 1.35-1.69 3.79-3.81 3.1-7.36-.27-1.37-1.2-2.37-1.86-3.26-1.07-1.43-3.56-5.28-3.55-6.99l.48-9.87c.26-4.88-.1-3.02-.5-4.27l2.77-5.1-1.29-.48.25-1.64-4 .01-.41-1.64-6.4.11.2-1.68c1.91-.57 4.88.01 6.68-.43l2.12-13.72c-1.63-.96-.37.71-1.31-1.89-.96-.03-1.91 0-2.88.04-1.85.09-1.76.22-2.25-.25 1.72-.85 5.37.22 7.06-.7.79-.53.68-1.03.83-2.27l1.02-7.52 3.46-.27c-.2-.77-4.48-6.33-5.33-7.46-.97-1.29-4.32-6.44-5.67-6.95l-2.02-.01c-8.97.16-7.48-.35-11 2.96-1.2 1.13-2.29 2.34-3.49 3.47-5.76 5.4-2.27 3.11-9.08 2.6-4.11-.31-8.23.26-11.78 2.03-1.86.93-2.7 1.82-4.18 2.87-1.68-.47-3.51-4.01-11.13-4.12-2.74-.04-4.4.38-6.87.86-1.73.34-18.38.75-21.5.92-1.45.08-14.37.2-14.57.74l-.18 6.85c.01 2.4.03 4.79.05 7.19.04 5.63.5 24.35.2 28.29-.2 2.71-3.95 2.58-2.62 10.67z" style="fill:#000"/><path d="m42.22 78.48.13-.7-1.01.09c-1.34.51-2.27 3.38-3.39 4.62-.43.48-.02.15-.57.48.08-.88.41-1.61.26-2.64l-1.54-.13c-1.06 1.77-.79 3.89-3.07 4.6.11-2.33 1.69-4.54 3.51-5.58.89-.51 1.49-.41 1.85-1.18-2.91-2.58-5.77 4.21-7.9 4.93.3-.89.9-1.55.49-2.41-1.47-.78-2.45 1.08-3.48 1.65.32-.98.97-1.81.58-3.16-1.65-.53-2.4.64-3.15 1.26-.25-.47-.13-.69-.5-1.28-1.21-.1-1.23.12-1.55 1.14-.44 1.39-1.66 5.3-1.36 6.37 1.08-.28 1.51-2.74 3.27-3.66-.41 1.19-1.21 1.61-1.68 2.64-.43.95-.72 9.88-.77 11.31-.18 4.64-.98 10.87-.72 15.31 1.44-.03 2.83-.11 4.23-.14.69-.02 1.44.01 2.12-.02 1.02-.05 1.19.06 1.46-.6-.75-.67-5.41.03-6.82-.18l.42-10.84c.91-.29 3.39-.61 4.42-.48.36 1.16-.18 5-.1 6.75 3.26.1 3.13-.4 4.58.48.02.02.09.05.11.06.82.43-.58.25.26.07l.13-.02.39-1.22-4.59-.11c-.22-.88-.11-2.88.25-3.52l.1-3.14 3.89-.42c.2-1.26.5-4.64.21-5.8L28.95 93c.12-8.69.25-4.84 4.6-6.11-.23-1.88-.06.44-2.13-2.39-1.98.49-1.76.89-2.61-.83l-.18-.32c-1.82 1.54-1.69 2.46-3.27 2.33-.67-1.29-.23-1.17-.06-2.59.18-1.43-.04-1.69 1.18-2.19.03 1.43-1.42 3.1-.63 4.34 1.28-.54 1.89-2.75 3.62-2.99.17 3.96.84 1.62 2.61.93.05 1.26-.08 2.63 1.55 2.21.99-.25 1.64-1.3 2.08-2.09 1.48.89.2 1.53 2.47.45-.26 1.11-.68 1.12-.28 2.12 1-.24 5.17-5.48 5.65-4.72.67 1.07-.13 1.4.8 2.65 1.48.05 1.95-1 3.55-2.96.61-.75 2.2-3.19 2.92-3.49-.14 1.26-.64 2.89-.93 4.12-.26 1.1-1.02 3.31-.63 4.06 1.43-.63 2.29-3.76 4.17-5.17.1.2.09.01.12.47.01.16-.04.47-.05.55-.04 1.36-.25 1.98 1.06 1.92.14-.38.81-1.07 1.19-1.38.03.05.06.08.07.18.01.11.11.3.13.36.08.24.05.25.17.54.8 1.97 2.89.26 3.51-1.31.97.76.19 1.18 2.04.96.61-1.01 3.08-3.64 3.19-5.38-1.01.2-.58 0-1.14.85-.72 1.09-1.56 2.75-2.51 3.27.28-1.38 1.11-3.18-1.16-2.76-1.04 1.48-1.04 4.33-3.19 4.53.12-2.17 1.8-4.41 3.65-5.48.5-.29.79-.34 1.09-.51.94-.54.42.02.68-.77-1.58-1.3-3.67.49-4.52 1.54-1.01 1.25-1.82 2.36-2.93 3.66-.44-.69.85-2.1.7-3.11l.32-1.16c-.7-.31-.83-.18-1.74.07-1.48.63-1.5 1.96-2.53 2.97.55-2.71 3.79-8.04 3.81-9.83-3.13.05-3.88 3.49-5.33 5.96-.51.87-3.88 5.63-4.89 5.89.19-1.38 1-2.88.86-4.12-2.08-.15-4.52 2.96-5.71 4.05.1-.94 1.5-2.69 1.89-3.85zm-30.86 29.39c2.98.83 3.7-1.57 3.83-4.1.07-1.37-.37-2.6 1.01-2.88.74-.15 2.77-.28 3.54-.23.27.81.39 8.63-2.07 9.97-1.39.76-9.4 1.35-11.13.9l.66-9.31c.01-.04.08-.07.09-.15.07-.54 3.19-.7 4.17-.56.38 2-.58 4.35-.08 6.36zm1.81-21.24c1.45-.13 1.82-.02 1.9 1.35.06.91-.02 2.12-.08 3.04l-.59 12.06c-.07 2.12 0 3.96-2.3 3.97l1.06-20.42zM7.19 82c-.48 1.94-.19 5.3-.44 7.49-.28 2.47-.28 5.22-.44 7.74-.11 1.82-1.32 14.91-.45 15.16l1.21.14c10.37-.19 12.98.63 13.54-8.3l.8-16.43c-.19-1.15-.68-.68-.59-2.25.07-1.19.07-1.35-.37-2.09l-.75.65.04.76c.68.79.08 9.41-.32 10.37-1.88.17-1.8-.47-1.8-2.11 0-1.32-.01-2.64-.02-3.96-.01-1.9.41-6.23-.41-7.69l-4.47-.09c-.87 1.17-1.64 2.62-2.36 4.11-.65 1.34-1.29 3.56-2.94 3.33-.76-2.07 1.78-5.29 2.25-7.4L7.18 82zm92.92 11.81c2.96 1.5 5.97.65 5.95 5.09 0 1.81-.32 9.14-.67 10.46-5.66 1.01-3.97-.33-3.65-7.68.13-2.97.81-6.78-3.3-5.98l-.77 13.75c-1.08.37-3.57.66-4.29.08-.45-.57-.26-.87-.22-1.8.03-.73.05-1.45.1-2.17.17-2.54.36-11.01.8-12.41.84-.24 11-1.37 11.55-1.19-.21 1.91-4.08 1.09-5.49 1.85zm-.65-2.23c-.07-1.54.14-2.97.2-4.5.05-1.19-.06-3.71 1.61-1.95.7.74.38 2.83.29 4.03-.12 1.73-.15 2.37-2.11 2.43zm4.71 2.42c2.53-.63 2.75-1.76 3.14-4.54.3-2.13.42-5.05-.35-6.99-1.48-3.77-1.92-1.75-4.11-2.14-2-.36-1.9 2.92-4.91.24-3.91 1.08-1.7-1.34-4-.96-.64 1.17-.94 13.02-1.01 15.36-.09 2.85-.98 13.87-.68 15.63l5.88-.29.49-3.28c.07-1.2.09-2.39.19-3.59.11-1.4.16-5.84.52-6.85 2.62-.38 1.55 3.94 1.48 6.02-.08 2.49-.34 5.12-.37 7.76l5.79-.16c.4-2.68.4-6.41.53-9.22.32-7.04-1.24-4.99-2.6-6.99zm-71.3 13.62c-1.65 2.16-3.54 5.15-4.98 7.69-3.72 6.61-1.78 3.55-6.65 5.78.47.76.5.63 1.58.29.73-.23 1.04-.38 1.87-.45-.33 1.53-2.88 4.51-2.22 5.68 1.02-.24 2.5-3.43 3.08-4.38 1.53-2.51 1.59-2.12 4.63-3.01 2.05-.6 3.93-1.16 5.91-1.75 1.7-.51 4.11-1.35 5.79-1.63-.87 2.73-11.51 15.19-11.62 17.48 1.33-.21 1.13-.58 1.83-1.54l11.9-15.92c2.04-2.67 11.87-2.98 12.47-5.87-1.93-.97-6.9 1.9-9.53 2.21.5-1.25 2.43-3.53 3.3-4.7 1.18-1.59 2.11-2.85 3.27-4.38l6.39-8.63c-.05-1.99-1.53-1.62-2.16-1.06-.33.29-1.22 1.73-1.54 2.18l-9.07 12.95c-4 5.59-2.05 4.43-8.14 6.47-2.79.93-8.56 3.29-11.11 3.68.64-1.65 5.55-7.95 6.94-9.71 1.32-1.66 2.38-2.97 3.79-4.56 2.23-2.52 3.02-2.97 2.57-5.14-1.44-.55-1.79-.47-2.75.79l-5.55 7.51zm28.93-24.8c-.77 1.27-1.23-.5-2.72.61-.81.6-1.75.82-1.98 1.91-.5 2.35-.25 5.06-.04 7.43.33.05 3.46-.87 3.29 1.26-.07.88.01.36-.26.7l-.43 1.62c1.19 1.13 3.91 3.2 4.52 4.54 1.11 2.45-.51 7.85-1.88 5.26-.72-.61-.36-1.99-.3-2.85.07-1 .18-2.02.08-3.01l-5.34.11c-.19.07-.38-.29-.46 1.25-.23 4.05-.32 7.37 2.96 9.32 2.4 1.43 7.62 1.11 9.93-2.1-.5-.22-.67-.03-1.34.28l-1.76 1.21c-.79.49-1.43.41-2.39.62-2.97.62-1.97 1.08-4.38-.75-1.08-.82-1.99-1.92-2.3-3.5-.12-.61.14-4.83.31-5.59l3.87-.09c.14 1.97-.47 4.68.73 5.87 1.63 1.63 3.04-.24 3.38-1.93 1.26-6.31-3.71-6.67-3.86-8.54 1.28-.3 5.68-.8 6.87-.58.79 1.04 1.18 2.64 1.35 4 .27 2.2-.39 3.7-.27 5.1l1.04-.03c1.24-12.9-5.72-11.53-7.36-15.37-1.33-3.12 1.29-6.08 1.53-4.34.44.33.36-.22.51.91l-.14 3.32 5.66-.21.14-1.2-.05-3.34c.33-3.04-3-5.48-6.12-5.03l-1.97 2.66c-.74.77-.28.37-.79.48zM38.67 98.3c1.64-.09 2.67.29 3.98.07 3.02-.51 4.1-1.16 4.18 1.21l-.06 5.13c-.25 4.07-2.34 6.71-6.55 6.87-2.91.11-3.37-1.04-5.19-1.76l-.17.69c1.49.78 2.08 1.68 4.44 1.87 3.81.29 6.33-1.54 7.79-4.99.57-1.35.68-4.3.63-5.94-.25-7.25-4.33-7.01-7.23-11.84-.69-1.16-1.15-4.65 1.32-4.09.65 1.29.05 2.92.51 4.34l5.55.06c.36-1.89.38-5.38-.45-7.01-1.03.1-.59.25-1.38.95-2.17 1.89-2.76-1.45-3.02-1.77-3.33 2.11-2.9 4.32-5.54 4.27-1.33-3.61-3.07-1.46-3.36 1.36-.31 3.02-.23 5.83 1.72 8.17.73.87 1.98 2.18 2.84 2.42zM71.6 84.77l-.16 1.21c.86.34 2.44.08 3.58.17.13 1.15.02 3.58-.34 4.19.48 2.52-1.44 18.29-.46 19 .71-.28.55-1.52.64-3.26.06-1.27.14-2.59.22-3.79.05-.79.11-6.83.68-7.3.82-.42 3.16-.7 4.2-.35.31 1.23-.46 14.57-.86 15.04-.66.74-2.65.43-3.72.36l-.11.52c.27.35.5.35.9.4.32.03 1-.03 1.35-.05.82-.06 1.72-.07 2.58-.22.35-4.14.39-8.41.69-12.53.2-2.68.18-10.14.78-12.15 2.31-.17 3.39.35 3.65-.83l.12-5.4c-1.81-.13-1.72.22-2.57 1.14-.58.62-1.4 1.45-2.04 1.91-3.67 2.64-4.49-.87-4.79-1.39-.18.14-2.14 4.4-4.32 3.32zm-3.8 31.52c.32-.91 1.26-1.59 1.9-2.27.69-.73 1.17-1.53 2.09-1.94.64 2.16-2.34 5.01-4 4.21zm-13.4 9.19-.1-.18 5.42-6.2c.99-1.16 1.91-2.06 2.83-3.19.64-.78 2.62-2.41 1.78-3.54-1.32-1.28-3.83 2.76-5.13 4.37l-8.7 11c-.76.98-1.35 1.76-2.11 2.76-.37.49-.76.98-1.14 1.42-.23.27-.86 1.01-.55 1.32.73.31 1.96-.94 2.55-1.42l9.17-8.44c1.6-1.46 5.63-5.48 6.91-6.22-.5 1.75-1.09 1.71-.81 4.07 2.65 1.15 6.86-2.21 8.65-3.5.68-.49 1.25-.9 1.82-1.43 1.35-1.26 4.43-3.45 4.73-4.93-2.29.41-10.24 9.85-13.66 9.01-.06-1.07.58-2.01 1.05-2.82 5.23-.15 8.25-4.94 7.21-7.52-2.75-.86-4.66 1.54-5.92 2.69-2.14 1.94-12.68 11.86-14 12.77zm35.44-15.69-4.68.12.98-16.02 4.38-.42-.69 16.32zm-5.02-7.19-.38 8.03 6.08-.33c.35-1.6.4-5.34.48-7.23l1.13-20.41c.04-.8.27-1.4-.43-1.49-1.53 3.61-4.24 1.09-2.03-1.06-.48-.71-.63-.51-1.7-.49-.76.02-1.36 0-1.9.23-.38.75-1.55 21.1-1.26 22.75zm-71.3-23.79c.34-1.02 3.69-7.14 4.39-7.44l.11 6.25-4.5 1.19zM4.76 82.3c.63-.45.52-.34 1.53-.59l4.36-1.01c-.03.8-1.11 2.74-1.5 3.6-.48 1.06-1.55 3.05-1.16 3.77.83-.46 3.03-4.92 3.66-6.13.84-1.62.66-1.78 2.56-2.3.97-.27 2.64-.88 3.68-.87.24 2.46.15 5.55.19 8.08.02 1.46-.28 7.14.57 7.91.78-.45.59-1.05.6-2.1.01-3.53.33-4.83.48-7.8l-.04-.76.1-5.91c2.23-.74 5.04-1.35 7.47-1.98 2.04-.53 6.19-1.02 6.34-2.96-1.62-.61-11.08 3.21-13.63 3.65-.18-1.49-.01-3.58.08-5.12.06-1.04.17-1.41-.16-2.4-.24-.71-.15-.13-.33-1.09l-.18-.97c-2-.88-3.03 2.43-3.81 3.93-.95 1.84-1.73 3.36-2.66 5.22-1.46 2.9-.74 2.84-4.17 3.72-.98.25-2.01.53-3.06.84-.85.25-2.37.4-2.77 1.22.82.36.79-.01 1.84.04zm44.81 21.41c.65-1.63-1.09-2.63-.01-5.43.97-2.5 2.82-.45 4.77-1.23 1.57-1.01 1.25-3.9 1.38-6.05.13-2.12.45-5.68.1-7.53l-1.11.07c-.34.26.6.4-.79.33-.32-.02-.37-.09-.62-.36-.29-.31-.44-.95-.57-1.43-.39.3-2.59 3.41-2.81 3.79-.8 1.34-.73 10.41-.86 12.57-.12 1.95-.41 4.64-.28 6.5l.8-1.23zm57.97-27.93c1.81-1.21 1.07 2.69-.36 3.42-1.73.88-1.16-2.41.36-3.42zm-5.12-2.39c-.38.44-1.02.68-1.59 1.28-.86.89-3.19 4.13-3.96 4.48.1-1.39 1.14-2.89.73-4.23-2.13-.18-3.25 2.46-4.55 2.89-.41.69-.44.8-1.21 1.23.27-.93.27-.95 1-1.49-.08-1.07 1.26-1.9 1.23-3.05-2.88-.86-2.83 4.39-4.17 5.87l-.48 1.93c1.07.2.68-.01 1.68-.9l.3-.23c.04-.03.11-.08.16-.11.23-1.13 2.93-3.04 3.9-3.31.04 1.43.03 1.97.68 2.8 1.4-.06 1.46-.83 2.33-1.46l.37 1.78c1.76.68 2.82-.85 3.45-1.91.04.04.08.12.11.15s.08.11.11.15c.03.04.07.11.11.15.5.58.93 1.27 2.21-.46.58.25 1.68 2.79 4.09-.36 2.21-2.9.97-4.05.85-4.7-3.4-.57-4.18 3.03-5.9 4.96-.11-1.43 1.2-3.25-1.17-2.98-1.11 1.54-.92 3.56-2.89 4.57-.3-.55-.36-.48-.13-1.33.07-.24.42-.88.55-1.11.76-1.37 1.57-2.42 2.89-3.11 2.21-1.15 1.51-.13 1.78-1.28-1.02-.73-1.15-.45-2.46-.2zm-24.1 6.17c-.11-1.18.63-2.5 1.57-2.93.37 1.36.05 2.95-1.57 2.93zM78 80.7c.26-.44-.2-.2.62-.43.09-.03.98-.09 1.01-.09 2.92-1.44 2.54-6.5-.46-5.18-1.57.69-2.89 4.56-4.63 5.21-.47-.41-1.15-1.14-1.34-2.03-.37-1.77 1.02-.58.58-2.46-1.55-.58-2.71.72-2.25 2.23.42 1.37 1.83 1.86 2.14 3.1-.74.94-2.34 1.41-2.18 3.27 3.79.32 2.83-3.43 5.1-4.38.07 1.5.12 2.2.73 3.18 3.86.87 7.82-6.12 7.92-7.2-1.17.33-1.35 1.19-2.06 2.19-4.3 6.04-6.1 4.36-5.17 2.6zm-26.15 38.8c-.02-2.09 3.88-6.01 4.86-5.07.98.93-2.6 5.46-4.86 5.07zm7.7-5.54c.68-1.59.12-2.65-1.74-2.11-1.03.3-2.18 1.06-2.84 1.55-1.39 1.05-3.39 2.94-4.14 4.92-1.87 4.93 6.38 1.06 8.72-4.37zm-25.89-13.05c-.4 1.1-.29 3.14-.23 4.5.54-.32.13 0 .58-.45.15-.15.28-.34.41-.52.78-1.07 2.2-2.77 2.49-3.8-1.04.02-2.49-.05-3.25.28zm4.5 5.09c.91 2.79 4.24 2.98 4.43-1.53.02-.45-.01-1.17-.07-1.62-.14-1.04-.08-.98-.77-1.26.04 1.24-.1 2.43-.26 3.68-.18 1.4-.37 2.06-1.92 1.7-.21-.53-.31-1.22-.34-1.97-.68.21-.83.41-1.08 1zm19.66-31.61c1.27-.39.54-.65 1.65-1.25 1.24.32.59.74 1.85 1.45 1.67.18 3.16-1.07 3.05-2.6-1.34.23-1.01 1-2.36 1.51-1.1-.41-1.29-1.43-2.49-1.21-.84.15-1.56 1.11-1.71 2.1zm8.83 34.23c1.07.06 1.69-.25 2.49-.74.91-.55 1.42-.74 1.43-1.8-1.81-1.72-3.96.71-3.92 2.53zm36.32-37.36c.06.03.13.08.17.11.04.03.12.08.17.1.06.03.26.16.33.19.72.3 1.36.15 2.05-.26.69-.41 1.16-.9 1.28-1.98-1.55-.11-.83.79-2.54 1.27-1.17-.58-.92-1.28-2.55-1.2-.67.75-1.25.6-1.46 2.08 1.08-.44.76-.99 1.92-1.19.55.44.47.13.62.87zm-49.03 32.45-.07 5.69c1.43-.37 1.01-1.74 1.05-3.32.04-1.3.14-2.48.19-3.73-.71.34-.95.8-1.17 1.35zm36.6 6.59-6.08.33.38-8.03c-.53.82-.62 7.46-.53 8.12 1.03.25 2.14.12 3.21.08 1.76-.05 2.63.21 3.02-.5zm-28.24-4.15c-.24-1.77.38-4.59-.01-5.86-.84-.43-1.83-.24-2.81-.21-.74.02-2.42-.16-2.74.32l5.34-.11c.11.99-.01 2.01-.08 3.01-.06.86-.42 2.24.3 2.85zM32.84 106c-.36-.59-.29-.42-2.1-.38-.79.02-1.59.03-2.38.04l.14-3.28c-.36.63-.47 2.64-.25 3.52l4.59.11zm38.6-24.1c.47-.14.69-.21.99-.42.5-.35.32-.27.56-.66-.37-.59-.42-.69-1.23-.91l-.32 1.99zm7.13-.86-.21.69 1.23-.37c-.01-.77.38-.2-.19-.59l-.83.26zm-24.16 44.43-.1-.18.1.18z" style="fill:#e9e7fc"/><path d="m70.16 49.53-.94 4.96c1.38-.17 2.35-.55 3.69-.54 1.5.01 2.3.49 3.64.52.52-.83.64-.23 1.98-.72.65-.24 1.34-.89 1.76-1.24 1.45-1.22 1.47-1.6 1.81-3.99.43-3 1.37-7.57 1.37-10.4-.41 0-9.08.06-9.47.5-1.2 1.38.06 10.48-3.85 10.92zm14.95-18.38c.29 3.08-3.17 19.36-2.99 22.38 1.87.57 9.62-.36 11.8.2 1.74.45 1.32 1.34 3.14 1.13 1.47-2.67.18-1.18 4.13-1.69.67-.31.46.07.63-.7l-2.06-.15c.37-1.9 2.98-4.92 3-6.32l-6.43.19c-.44.27.42.03-.5.23-.8.18-.97.02-1.35-.15-.17-.65-.26 0-.07-.93.21-1.02.08-.18.34-.54l1.23-7.97 6.78-.3c.59-.9 1.27-6.7 1.22-8.11-1.75-.02-5.37.42-6.88.07l1.23-8.09 7.18-.36c.8-.32 1.45-8.45 1.45-8.49-2.2-.15-17.25.32-18.87.74-1.18 3.11-1.89 17.24-2.97 18.85zm2.12-20.28c10.43.54 7.55-1.66 10.94-3.6 1.17.64 1.7 2.21 2.78 3.06l6.99-.21c-.31-.96-2.92-4.12-3.69-5.15-2.18-2.89-1.06-2.17-7.03-2.01-2.85.07-2.4.41-5.45 3.33-.93.89-4.11 3.52-4.56 4.58zM69.67 49.18c-1.33-.18-.97-2.13-.84-3.59l1.8-12.55c.4-2.79.8-5.54 1.21-8.28.34-2.27.72-6.79 3.91-5.46 1.87 1.62-1.14 9.46-.64 12.02l8.47-.17c1.34-.12 1.1-.76 1.28-1.45.41-3.75.99-7.44 1.5-11.04.13-.93.39-1.87.08-2.56-.81-1.81-3.44-3.18-5.51-3.8-6.29-1.91-13.94.28-17.81 5.44-3.04 4.05-3.74 14.2-4.59 20.25-.69 4.87-2.34 12.08.92 15.75.78.88.76.59 2.11.86 1.88.37-.06.8 1.85 1.52l.62-1.08c.65-.99 1.38-.41 3.01-1.85.79-.7 2.49-2.55 2.62-3.99zM48.14 20.29c3.53-2 2.17 4.28 1.93 5.87l-2.39 16.41c-.28 1.94-.51 6.77-1.77 7.54-1.22.74-2.54-.12-2.51-1.73.02-1.1.41-2.96.58-4.12.39-2.67.77-5.4 1.17-8.07.43-2.87.77-5.47 1.21-8.33.37-2.42.57-6.89 1.78-7.57zm-3.53 36.65c.36-2.02.24-1.75 2.35-1.83 2.63-.09 5.54.15 6.88-1.02 4.23-3.69 2.93-4.93 3.1-8.75.15-3.32 2.29-17.79 2.89-20.79.25-1.25 1.59-5.38 1.38-6.17-.61-2.26-2.5-3.09-3.54-4.43-1.6-.2-2.81-1.48-7.93-1.29-8.17.3-13.23 5.26-14.5 13.82-.8 5.36-1.6 10.89-2.37 16.37-.4 2.81-.98 5.84-.14 8.62.63 2.07 2.68 4.6 4.5 4.96l.4-.99c1.47-.05 4.82-.36 5.99-.06v2.31c1.06-.31.47-.08.99-.76zM27.3 54.67l-3.6.01c.2-1.41 2-4.1 2.52-5.47l4.18-.02c-.58 1.82-2.42 3.75-3.1 5.48zm-5.65-11.81c-.16-7.35 1.39-19.99 1.1-28.37l-11.83.37c-.47 1.44-.03 37.19.18 41.35 2.82.53 2.55-1.65 7.81 1.05 1.27-.53 3.35-2.73 7.49-1.76 1.16.27 1.29.77 2.24.93.66-1.26 2.5-8.57 2.94-10.42 2.04-8.6 1.7-22.13 6.05-28.07.87-1.19 2.67-2.5 2.76-4.04-.84-.1-10.59.2-11.29.35-1.13.24-1.15 2.03-1.7 4.37-.39 1.65-.78 3.25-1.16 4.88l-4.41 19.01c-.02.05-.07.13-.08.18-.02.04-.05.12-.09.17z" style="fill:#fcfcfc"/><path d="M11.35 107.87c-.49-2 .47-4.36.08-6.36-.98-.15-4.1.02-4.17.56-.01.08-.07.12-.09.15l-.66 9.31c1.73.44 9.74-.15 11.13-.9 2.47-1.34 2.35-9.16 2.07-9.97-.76-.05-2.8.08-3.54.23-1.38.28-.95 1.52-1.01 2.88-.12 2.53-.85 4.93-3.83 4.1zm56.46 1.28-1.45-.03c-1.08-2 1.27-3.83 2.99-4.15-.11-1.4.54-2.9.27-5.1-.17-1.36-.56-2.96-1.35-4-1.18-.22-5.58.28-6.87.58.15 1.88 5.11 2.23 3.86 8.54-.34 1.69-1.75 3.56-3.38 1.93-1.2-1.19-.59-3.9-.73-5.87l-3.87.09c-.17.76-.43 4.97-.31 5.59.31 1.58 1.21 2.68 2.3 3.5 2.42 1.83 1.42 1.37 4.38.75.96-.2 1.6-.13 2.39-.62l1.76-1.21zm6.41.19 1.03 1.23.11-.52c1.07.07 3.07.39 3.72-.36.4-.47 1.17-13.81.86-15.04-1.04-.35-3.37-.07-4.2.35-.56.46-.62 6.51-.68 7.3-.08 1.2-.15 2.52-.22 3.79-.09 1.74.08 2.99-.64 3.26zm16.32-15.88-4.38.42-.98 16.02 4.68-.12.69-16.32zm9.57.34c1.41-.77 5.28.05 5.49-1.85-.56-.18-10.71.95-11.55 1.19-.43 1.4-.63 9.86-.8 12.41-.05.73-.07 1.45-.1 2.17-.04.93-.23 1.23.22 1.8.72.58 3.21.29 4.29-.08l.77-13.75c4.11-.8 3.43 3.01 3.3 5.98-.32 7.36-2.01 8.7 3.65 7.68.35-1.32.67-8.65.67-10.46.01-4.44-2.99-3.59-5.95-5.09zm-46.24 15.6.07-5.69c-1.14.99-5.39 6.99-5.54 7.53l5.47-1.83zm-4.28-5.69c.65-.45 1.89-2.41 2.44-3.22.79-1.16 1.74-2.28 2.32-3.44-1.96.78-3.81-1.26-4.77 1.23-1.08 2.79.66 3.8.01 5.43zM38.68 98.3c.35.35-.21.21 1.07.28 2.49.15 2.06.6 2 3.02.69.28.63.22.77 1.26.06.45.09 1.17.07 1.62-.2 4.51-3.52 4.33-4.43 1.53-.05.04-.1.1-.13.13l-.79.9c-.3.37-.4.54-.71.91-.63.76-.95 1.09-1.49 1.87 1.83.72 2.28 1.88 5.19 1.76 4.21-.17 6.3-2.81 6.55-6.87l.06-5.13c-.08-2.37-1.16-1.72-4.18-1.21-1.31.22-2.33-.16-3.98-.07zm-9.25 13.07c.05-.04.1-.1.13-.13l2.75-4c-.84.17.56.35-.26-.07l-.11-.06c-1.45-.88-1.32-.38-4.58-.48-.08-1.75.45-5.59.1-6.75-1.02-.13-3.51.19-4.42.48l-.42 10.84c1.41.2 6.07-.49 6.82.18z" style="fill:#a4a4d3"/><path d="M42.66 60.36c.61-.37.58-3.81.47-4.67l-4.27.2c-.51.12-.18-.01-.47.24-.51.26-.49-.04-.54 1.97-.11 4.49-.81 12.35-.57 15.95 1.21.13 6.45 0 7.28-.28.81-1.28.78-4.54 1.42-5.93.31-2.2 2.5-10.89 2.05-12.17-1.91-.2-2.5-.4-2.91 1.27L43.1 63.8c-.23.79-.37 1.63-.85 2.25-.03-1.96.58-3.8.4-5.7zm55.7-49.24c1 .18 1.21.26 1.91-.29-.33-.65-.26-.55-.93-.84-.95.39-.78.09-.98 1.14zm.41 54.34c.17-1.14 1.6-6.01 2.23-6.55l-.83 6.56-1.4-.02zm2.92 3.87c1.29-.97 1.81.54 2.88.53-.13-2.84.3-6.07.38-8.97.14-5.81 1.09-7.61-1.4-7.24l-5.33.33c-.62 1-5.76 16.58-5.99 18.18 1.46-.01 3.71.21 4.86-.3 1.09-1.6.09-3.33 2.54-3.04l-.03 2.91c.5-.72.4-2.33 2.09-2.4zm-12.16-8.11c-.15-.92.15-1.63.29-2.45.26-1.42 0-1.51 1.41-1.36.12 1.58-.09 4.11-1.7 3.81zm3.57 1.53c1.88-.79 2.06-1.21 2.53-3.28.43-1.92.59-3.74-.62-4.66-1.15-.87-6.36-.83-8.21-.68-1.22.1-1.14.39-1.3 1.56-.57 4.16-3.68 16.94-3.66 19.64 1.2-.4 1.52-1.24 2.44-1.91 3.22-2.33 2.36 1.68 3.79-5.49.66-3.28.3-3.68 1.68-3.48.41 1.42-.93 5.95-1.1 7.9l2.81-.1c.55-1.37 2.56-7.18 2.69-8.58-.55-.51-.71-.32-1.06-.93zm-8.63-4.91c.44-.99.65-2.31.54-3.55l-8.13.43-3.45 17.98c1.39.37 6.4.12 8-.08.47-.81 1.06-2.85.85-3.75l-3.14-.02c.15-1.21.3-2.97.87-3.89l3.14-.19.65-3.48-3.21-.07.67-3.15 3.22-.24zM64.41 70.63c.8 2.37 3.32 3.36 6.57 2.49 1.99-.54 1.93-.56 2.33-2.59.26-1.31.7-2.81.75-4.08-5.06-.24-2.01 3.86-4.62 3.68-.5-1.1.58-5.35.82-6.73.48-2.72.52-5.96 2.36-5.67.45 1.42-.25 1.92-.13 3.47l2.49-.12c.5-.85.5-2.08.74-3.19.31-1.4.71-1.79.11-3-4.54-1.05-8.19.11-9.36 4-.68 2.27-2.23 9.51-2.06 11.75zm-7.59-11.64c.13 1.67-1.21 7.46-1.58 9.52-.47 2.58 1.67.94.22 3.88-.54 1.09-1.38 2.62-1.55 3.78.1-.06 3.83-3.09 3.94-3.23 1.51-1.85.73-3.8 1.63-5.47 1.32 1.84-.1 4.37 2.55 5.39.64-.3 1.27-1.2 1.84-1.31 1.92-20.71 4.48-12.16 5.18-19.29-.99.5-1.26 1.15-2.1 1.74-.67.46-1.96.81-2.33 1.36-.78 1.15-.62 4.68-1.43 5.92-.7-1.48-.44-4.88-1.62-6-.04-.02-3.49-1.03-4.05.88-.23.79-.16 2.12-.68 2.83zm-10.64 9.32c.18 1.83-.92 3.9-.76 5.45 6.55.74 5.78-1.07 6.88-2.42.66-.81 1.11-.65 1.64-1.42l-2.8-.11.44-3.56c1.13-.82 2.13-.11 3.18-.75.75-.51 1.03-2.27.93-3.26l-3.01.06c-.06-1.04.25-2.4.52-3.29l3.26-.21.53-3.55c-9.88-.18-8-.6-9.42 6.76l-1.1 5.67c-.23.72-.06.24-.31.63zM20.7 69.73c.62-.78 1.14-4.74 1.33-5.71.74-3.81.34-4.87 2.05-5.03.29 1.15-1.84 11.86-2.3 12.44-.8 1-1.47-.12-1.21 3.61 4.05.45 6.04-2.86 6.83-6.16.54-2.26 2.26-9.19 1.22-11.21-1.55-3.02-7.51-1.89-9.39.3-1.58 1.84-2.79 8.13-2.79 9.82 1.01-.23 1.85-1.6 3.4-.88.61.77.42 1.77.86 2.83zm-3.94-6.82c.3-.95.38-1.86.71-2.74.36-.98.95-1.5.98-2.52-2.34-1.92-9.27-2.49-10.53 4.09-1.04 5.45 4.46 5.09 4.77 7.74.17 1.48-.25 2.67-1.63 2.52-.29-1.43.19-1.83.14-3.19-1.11-.24-3.17-.23-4.27.05-2.91 7.3 4.67 6.63 5.83 6.08 1.38-.66 3.71-7.43 3.38-9.86-.9-.98-2.56-1.56-3.14-2.21-1.55-1.74 1.92-5.98 1.08-.69l2.67.75zm8.08-8.89 1.91.09c.53-.61 2.4-3.27 2.37-4.31l-2.31.01c-.47.65-2.1 3.41-1.97 4.21zm84.98 19.7c.71.17 1.08 1.16 1.55 1.79 1.71 2.3-.57 5.73-3.24 6.9.14 1.06.72 1.98.96 3.28.34 1.9.17 5.83-.42 7.72-.47 1.52-1.27 1.78-1.63 2.72.54 1.12 1.18 1.44 1.47 3.11.26 1.46-.35 12.07-.53 13.21l-6.8.21c-.38-.95.13-.86-.46-1.68-.84.47-.22.63-.7 1.6-1.66.55-5.78.17-7.45.13-2.16-.05-5.14.51-7.52.25-.6-1.91.31-.88-1.29-1.99-.55-3.12 1.59-20.22.9-22.64-2.12-.44-1.46.23-1.79 5.26-.26 3.92-.68 18.73-1.55 20.22-1.16 1.99-8.64 8.03-12.16 9.42-3.93 1.55-3.22-.4-4.84-1.5-1.73.65-13.05 12.25-15.17 13.48-2 1.15-1.7.46-1.9-1.14l-1.2-.38c-.14-1.36.76-2.09 1.44-2.94.31-.4 5.66-7.04 5.83-7.73-.99-.43-1.24.08-1.89-1.03l-1.3-1.92c-.67-1.56 1.19-3.35 1.57-4.57-1.34.23-2.74.73-4.01 1.1-1.73.5-1.93 1.03-2.82 2.27l-8.63 11.54c-1.64 2.19-3.36 5.31-5.02 5.06-.96-2.58-.11-.6-1.57-2.25-.36-1.02 8.57-12.2 9-13.86-1.73.29-7.91 2.1-9.51 2.79-2.89 1.24-2.91 6.73-5.9 6.7-1.15-3.08-.81-.97-1.41-2.35-.61-1.39 1.15-.98.14-3.54-.71-1.81-.94-.28-1.38-1.79 1.1-1.66 3.47-.95 4.58-2.29.61-.73 2.33-3.68 2.23-4.57l-5.13.11-.24-1.58c-2.8-.3-.83 1.5-7.08 1.67-2.73.07-5.84.36-8.57.19-.36-.62-.2-.52-.28-1.38l-1.15-.4L6.4 84.43l-2.59.24-.32-1.59c-.9-.25-1.04-.27-1.2-1.27 2.19-2.2 8.89-1.27 9.33-4.17-2.26-1.09-2.16.63-4.8-3.03-1.21-1.68-1.31-3.96-.64-5.55.41-.98.62-.7 3.36-.96-.33-1.87-2.29-2.08-2.23-5.09.05-2.22.92-4.24 2.05-5.37 1.04-1.05 1.01-.65 1.08-2.74.26-7.83-1.18-38.01-.21-40.43 1.08-.37 11.4-.71 13.01-.53.9 2.11-.48.72 1.47 2.01l-.41 10.73c.92-.38 2.72-10.77 3.53-12.89 1.48-.39 10.84-.49 13.08-.47l.46.99c2.7-.62 2.63-1.8 8.42-2.24 4.19-.32 5.57.47 8.55 1.87 1.71 1.26 2.3 1.91 3.39 3.83 1.14-.39 1.52-1.46 2.26-2.15 2.51-2.36 5.46-3.78 9.19-4.26 2.56-.33 5.53-.37 7.88.35 4.27 1.29 4.11 2.64 5.84 3.48.05-1.54.11-1.96.31-3.35l-1.7-.28c.61-1.13 6.68-6.61 8.23-8.12 1.31-1.27 2.26-.98 4.4-1.07 5.85-.25 4.76-.32 7.47 3.37.94 1.29 4.27 5.45 4.62 6.53-1.58 1.01-1.12-.57-1.84 4.68-.24 1.75-.32 4.1-.9 5.54l-7.49.38-.68 4.83c1.42.37 3.87.05 5.37.08l.23 1.57c.73.21.64.12 1.12.52-.12 1.45-.47 2.97-.69 4.42-.77 5.19.61 4.63-4.19 4.82-1.15.05-2.39-.01-3.44.28l-.98 6.13 6.51-.16c.64.94-.01.51.46 1.43l2.46.07c.07.97-.39.83-.51 1.68l1.81.21c-.26 1.1-.92 1.88-1.44 2.67-1.27 1.92-.22.96-.36 3.14l1.2.36-.51 13.41c.51.66.58.41.97.99.52.78-.02.44.69 1.17 1.4 1.44.5.8.08 2.47.56.3 1.1.23 1.68.76zm-.74-49.84c.36-1.94.62-4.26.89-6.33.49-3.7-.29-3.47 3.3-3.67-.42-1.49-8.06-10.84-9.53-13.2-1.83-.14-7.39.03-9.21.27-1.36.18-2.07 1.34-2.81 2.04l-7.23 6.92c-1.9 2.18-1.45-.26-7.18-.26-7.86 0-10.01 1.24-15.3 5.35-1.16-.51-5.08-6.32-15.93-4.07-6.16 1.28-13.09.77-19.53 1.35-.61 1.03.01 1.43-1.26 1.62l-.22-1.66-16.31.65-.1 29.01c.02 2.26.53 13.22-.25 14.32-.52.73-.99.82-1.63 2.08-2.33 4.62-.03 7.53-.08 8.48l-1.68.17c-2.83 7.57 2.44 9.87 2.94 11.36-5.55 1.47-9.19 1.65-6.14 5.93.97 1.37 1.02 1.35 2.66 1.96.59 3.43-1.85 26.67-1.27 27.99 1.25 1.25.64-.25 1.32 2.1 2.94.27 7.55-.13 10.66-.23.97-.03 4.76-.66 4.8-.65.99.17.46.57 2.37.53.85-.02 1.58-.09 2.43.03-.42 3.49-5.98 2.21-5.81 5.14.11 1.9 1.74 1.44 1.29 3.98-.32 1.79.49 2.82 1.31 3.83 2.9 3.57 4.66.34 6.14-2.17 1.64-2.79 1.63-3.67 6.84-4.48-.39 1.24-2.31 3.62-3.08 4.76-2.43 3.58-4.46 4.78-2.7 7.45 2.29 3.47 3.97 3.61 6.45.25l11.21-14.99c.66-.88.8-1.52 2.06-1.48-.1 1.61-.39 1.45.55 2.91.29.46 1.38 1.95 1.45 2.24.3 1.16-5.46 6.85-5.98 9.05-.4 1.69 1.7 4.26 2.56 4.61 2.85 1.12 6.86-3.81 9.08-5.74 1.16-1.01 7.48-7.06 7.95-7.08 1.57-.04 2.05 3.62 10.3-2.03 1.43-.98 6.74-5.48 7.74-6.64.83-.97.9-.99 2.59-1.03 5.31-.13 22.09-.22 24.75-.61.45-2.07.48-6.42.57-8.74.24-5.94.59-3.25-.63-8.22-.31-1.25 1.24-2.69 1.49-7.53.08-1.47.03-2.91-.32-4.29-.56-2.23-.43-1.63.92-3.01 1.31-1.33 2.81-4.39 1.49-6.83-.62-1.15-1.19-1.75-1.96-2.68-.62-.75-.88-2.03-1.57-3.07-2.18-3.26-1.47-2.36-1.3-7.48.09-2.59.5-6.09.36-8.63l-1.21-.64c.34-1.4 2.25-3.73 2.93-5.33l-1.67-.22.39-1.82-3.47-.05-.2-1.54c-3.5-.28-8.43 1.98-5.97-3.13l6.71-.4c.61-.91 1.79-11.5 1.8-12.13l-1.19-.55c-.12-2.59.48-1.1-5.24-1.29-.9-3.86 3.44-1.24 7.66-2.44zm-6.63 48.81 1.31.01c-.14-.93-.03-.52-.83-1.13-.63-.43-.23-.36-1.07-.5l-.49.72c.47.67.62.39 1.07.89zm-1.54-20.99c1.92.79 2.2-.11 2.92-1.37.45-.79 1.38-1.96 1.47-2.81-2.18-.34-2.36-.19-3.18 1.33l-1.25 2.55.04.3z" style="fill:red"/></svg>