<svg xmlns="http://www.w3.org/2000/svg" xml:space="preserve" width="96.014" height="72.031" style="shape-rendering:geometricPrecision;text-rendering:geometricPrecision;image-rendering:optimizeQuality;fill-rule:evenodd;clip-rule:evenodd" viewBox="0 0 49.82 37.37"><path d="M25.05 37.37c-5.75 0-10.16-1.39-14.54-4.85L8.1 30.15c-1.39.14-8.1.92-8.1.58 0-1.1.8-3.85.8-5.32l1.15-5.83 1.81-.19.02-1.97c-.68.3-1.49.09-2.17-.03-.43-.08-.4 0-.45-.22-.16-.72-.07-.82.24-1.68l2.4-6.48c.27-.66.26-.69 1.07-.69l2.08.37c.15-.5 2.67-3.15 3.3-3.63 3.28-2.5 5.21-3.6 9.31-4.54 6.03-1.39 13.12.03 18.06 3.84 3.53 2.73 6.06 6.39 7.02 10.78.12.53-.05.41.77.3.66-.09 3.36-.54 3.89-.33.79.31.43 2.02.3 2.21l-1.08.21c.52.71 1.09.7.6 2.4-.19.65-.26.55-.43.84.87 0 1.26-.24.71 1.29-.26.71-.94.19-.94.44 0 .39.81-.4.46 1.09-.29 1.25-.91.4-.91.9 0 .33.59.01.78.21.11.12.07 1.48-.46 1.58l-5.32.5-1.36 2.17c-3.49 5.11-10.41 8.3-16.6 8.42z" style="fill:#282829"/><path d="M22.63 34.04c.47-.29 1.18.25 1.44-.36.25-.61.3-1.38.63-.34.39 1.22.78.3 1.6.7-.09.32-.97.56-.97.88 0 .37.73 1.83-.36.87-.47-.42-.59-.45-1.24.14-.9.82 0-.94-.27-1.17l-.84-.72zm-2.72-22.89 11.05 2.14c.04-.16-.31-1.38-1.05-1.69-.4-.17-1.68-1.1-3.01-1.31-2.5-.41-4.22-.43-6.58.61-.11.05-.37.15-.41.26zm-9.67-4.01c0-.18.88-.16 1.12-.31.21-.14.05-.76.28-1.07.41.1.29.92.89.92.27 0 1.01-.24 1.01-.04l-.7.9c0 .22.48.73.39 1.05-.83 0-.72-1.02-1.75.19-.13.15-.19.11-.27.11-.12-1.27.29-1.05-.46-1.42-.1-.05-.51-.15-.51-.32zm3.34-2.44c.61-.37 1.14-.03 1.23-.55.02-.09.02-1.32.41-.6.61 1.14.32.57 1.56.57l.07.06.01.01-.67.82c-.09.32 1.21 1.74-.5.79-.51-.29-.67.62-1.12.62-.21-.81.39-1.11-.61-1.45-.22-.07-.26-.12-.38-.27zm14.78-1.87c.4 0 .36-.92.72-.99.48.83-.23 1.08.95 1.16 1.42.1-.37.53-.37.9 0 .51.16.77.08 1.09l-1.01-.69c-.16 0-.75.47-.97.47-.45 0 .59-.84.08-1.31l-.55-.64c.46-.1.55.02 1.07.02zm-10.55.49c.16-.22.96-.17 1.16-.3.2-.13.03-.7.31-1.07.32.04.37.92.8.92.36 0 1.33-.37.88.24-.28.37-.82.21-.2 1.3.41.72-.39.18-.78.02-.64-.25-.6.63-1.15.63-.14-1.5.47-.9-.74-1.54-.12-.06-.2-.09-.27-.21zm4.8-.92c.32-.2 1.21.06 1.4-.19.13-.18.15-.88.46-1.03.55.75-.08 1.15 1.11 1.14.29 0 .5-.03.72.07-.31.59-1.19.45-.9 1.19.06.15.2.7.16.85-.42.09-.85-.84-1.3-.51-1.64 1.17-.69.06-.69-.69l-.95-.84zm-9.48 7.44c.12 0 1.93-1.83 2.7-2.21.58-.29 1.86-1.18 2.84-1.48 3.07-.92 4.09-1.02 7.11-.93l3.05.5c.83.29.45-.17 1.03-.26 1.93-.29-.32-.64 3.2-.62 1.54.01 1.4 1.45 2.08.9.35-.29 1.14-.3 1.61-.3.33 0 .3 1.65.25 1.78-.03.09-.11.15-.17.22.44.75-.23 1.83.87 2.31l4.42 1.36c.14.05.35.12.49.06-.09-.97-3.17-4.75-4.33-5.58-.35-.25-1.86-1.62-2.5-1.91-.56-.25-1.34-.9-2.88-1.52C27.77.07 22.47 0 17.23 1.7c-2.46.8-5.03 2.49-6.91 4.19L7.89 8.63c-.06.16-.03.2.14.23l5.11.98zM4.6 18.5c0 .77-.3.84 1.13.68 1.06-.12 1.15-.06 1.43-1.17.34-1.35.84-3.46 1.38-4.65.33-.74.28-.52-1.15-.78-2.29-.42-1.52-.31-2.24 1.63-.36.96-.55 3.15-.55 4.3zm26.96 15.88c0 .22-.67-.14-.75-.18-.67-.32-.7.52-1.21.63-.11-.15-.08-.12-.08-.39 0-.85.17-.69-.63-1.02-1.02-.42.33-.44.69-.57.2-.07.03-.76.23-1.12.39.08.48.9.84.9.21 0 1.46-.5.94.13-.35.43-.63.59-.41.9.12.16.37.56.37.73zm-12.59-1.82c0 .77.41.47 1.04.74.08.03.08.06.18.08-.07.27-.52.22-.98.51-.27.17.07 1.05-.26 1.19-.63-.38-.31-1.04-1.31-.62-.9.38-.56-.11-.28-.55.23-.37.34-.24-.27-1-.58-.72.83.06 1.13-.19.34-.28.75-1.58.75-.16zm16.49-1.42c0 .46 1.17 1.42-.12.92-.9-.35-.34-.24-1.36.58-.29-.14.03-.78-.13-1.14-.11-.25-.95-.33-1.02-.59.79-.48 1.15.08 1.22-.69l.1-.73c.26 0 .41.49.64.77.25.32.97-.22 1.32 0-.3.56-.64.66-.64.88zm-10.35.64c-3.47 0-4.87-.23-7.89-1.6-1.75-.8-.33-.86-3.32-.51l-1.63.09-2.09.2c-1.31.06-1.17.25.34 1.58 3.34 2.95 6.88 4.47 11.28 5.04 3.09.4 7.45-.01 10.38-1.21 4.23-1.73 7.23-4.19 9.76-8.02.45-.68-.47-.33-1.91-.22l-4.68.45c-.15.03-1.97 1.75-3.05 2.25-2.53 1.16-2.23 1.32-5.43 1.81l-1.76.14z" style="fill:red"/><path d="M33.65 15.78c0 .13-.68-.03-.82-.06-.56-.08-.63-.06-.56-.32.05-.2.04-.31.15-.46 1.26.18 1.01-.03 1.24.84zm-21.78 2.79c.05-.08 0-.18 0-.26h-.02c0 .11-.09.19.02.26zm33.71 7.65c.52 0 .26-.2.52-1.36l.56-2.55c.13-.18.14.3.32-.62.02-.1.01-.24.04-.34l-1.81.17-.14.62c-.02.62-.02.21.31.24.31.03-.11 1.36-.19 1.91l-.36 1.98.76-.04zm-10.51-9.84c-.12 0-.16-.01-.16.09l.37-.13c0-.13-.01-.11-.02-.19h-.04c-.03.13-.08.12-.14.23zm2.56-1.11c0 .43.66.16.38-.11-.12-.11-.38-.07-.38.11zm-3.77 7.4v-.07c-1.24 0-.84.06-1.04.79l-.77 4.09c.28.04.88.05.92-.32l.89-4.49zm-14.05 6.02 1.01-.11.99-4.84c-.4 0-.22.04-.39.05-1.14.12-.5-.09-.87.9l-.74 4zm-4.53.41 1.55-.15.16-.94c-.83 0-.23-.3-.15-1.59l.45-2.27-.83.09c-.34.08-.28.02-.27.15l-.92 4.71zm19.19-7.14v.09l1.22-.11c0-.35-.12-.71.05-1.3.27-.94.44-3.02.92-3.81.03-.06.03-.21.04-.26l-.86.09c-.6.04-.31.35-.57 1.23l-.79 4.08zm11.81-6.3c-.33 0-.17.08-.76.08l-1.07 5.38 1.22-.15c0-2.3.38-1.91.43-2.07l.15-1.21c-.1-.34.2-1.75.41-1.76.01-.32.25-.26-.37-.26zm-12.16 6.92-.91 4.46c-.01.15.02.19-.03.34l.96-.07.33-1.3c.08-.18.06-.68.25-.71.73-.11.34.19.6-.69.03-.09.01-.22.04-.28-.35 0-.33.14-.47 0l.18-.92c.4-.17.49.14.55-.32.13-.98.46-.65-1.5-.5zM24.1 28.22l1.65-.09.19-.94c-1.01 0-.39-.29-.39-1.01.52-.32.68.32.8-.88.07-.66-.71.59-.46-.77.1-.52.15-.16.54-.3l.29-.98-1.57.17-.33 1.2-.71 3.6zm11.83-5.77-.91 4.76 1.66-.16.19-.93c-.57.01-.69.18-.45-.86.06-.26.39-.22.7-.29l.16-.9c-.68 0-.59.29-.51-.5.1-.95.84.38.84-1.33l-1.69.21zm4.64-.49-.91 4.81 1.67-.15c.26-1.24.27-.91-.26-.91-.28 0-.07-1.05.17-1.1.08-.02.43-.04.53-.04l.16-.92c-.96 0-.54.03-.53-.52 0-.33 0-.17.14-.36.55-.06.6.01.68-.55l.09-.45-1.73.19zM.43 30.34l-.02.17 1.73-.15c.38 0 .12.16.12-.94-.98 0-.45.01-.45-.94l.72-.21.12-.9c-.12 0-.58.21-.58-.15 0-.15.08-.19.1-.27.09-.37-.19-.48.71-.48.37-1.46-.02-.81-.76-.84-1.07-.05-.7.07-1.04 1.37l-.64 3.33zm5.15-.32 1.98-.17-.12-.92c-.33 0-.68.26-.48-.44.12-.41-.18-.69.83-.69l.12-.92c-.2 0-.36.06-.52.06-.05-.09-.07-.08-.12-.15.35-1.37.07-.53.78-.84.09-.34.06-.53.38-.84.1-.1.07-.04.08-.12-.13.12-1.93.06-1.99.33l-.93 4.7zm42.41-6.28c.37-.13 0 .38 0 0zm.47.17v-.15l.08-.04.11-.72c-.71.03-.64.21-.56-.4.09-.76.08-.33.99-.57l.19-.92-2.01.23-.92 4.8 1.93-.17.19-.99c-.08.03-.03.03-.1.07-1.03-.22-.68.51-.6-.99l.7-.15zM8.15 26.52c.12.91.18.63.9 1.28.32.29.27 1.27-.34.95 0-1.02.41-.56-.87-.56l-.17 1.28.19.32c.22 0 2 .05 2.02-.41h.06c0-.95.29-1.9.29-1.97 0-.08-.18-.12-.19-.28l-.29-.18c-.21-.16-.21.09-.14-.13-.09-.04-.09.01-.1-.09-.26-.02-.29-.66-.29-.66.24-.15-.06-.24.43-.24.36 0-.23.56.29.53l.48-.02.35-1.2c.19-.59-1.84-.21-2.13.07-.29.28-.49 1.09-.49 1.34zm27.92-12.3c0 .94.13.97.21 1.67.06.53.21.29.55.3.06 0 .28.11.62-.1-.02-.04-.74-.47-.48-1.16.46-1.23 2.33-.12 1.53.94-.05.07-.04.02-.02.11l.95-.02c.28-1.08-.71-5.39-2.92-3.11-.34.35-.44.87-.44 1.36zm-24.59 10.5c-.02.02-.79.41-.81 1.56l-.19.81-.27 1.61c-.05.98-.05.94 1.77.75l.49-.33.28-1.72-.74.06c-.12.23-.12 1.35-.59 1.1-.28-.15.26-1.73.26-2.08l.29-.9c.57-.26.19.72.23.79l.75-.05.37-1.43c.17-.61-1.41-.18-1.83-.18zm11.13-.88c-.02.2-1.12 1.47.15 2.39.37.27.7.53.39 1.16 0 0-.57.38-.41-.41.02-.09.07-.12.08-.21l-.75.08c-.07.02-.18.03-.26.03 0 .81-1.03 2.09 1.74 1.41l.26-.08c.01-.08.02-.06.1-.09 0-.47.48-1.77.29-2.1l-.89-.82c-.03-.04-.16-.54.13-.69.26-.13.11 0 .34.05 0 .5-.03.28-.08.45l.82-.06c0-.29.45-1.46.06-1.46-1.7 0-1.91.35-1.98.36zm8.72-17c.5 1.57.85 2.8 2.65 3.1 2.17.37 1.55-.06 1.41-1.12-.27-2.17.27-1.13-3.17-1.9l-.89-.09zM19.52 23.99l-.34 1.79c-.85.54-.15-1.26-.15-1.79L18 24.1l-.9 4.85 1.02-.09.47-2.07.42.06-.39 1.93.95-.09.9-4.75-.94.05zm-5.67 4.14.64-2.75c.07-.07.51-.19.34.29l-.47 2.56s-.52.27-.52-.09zm-.21-3.41-.27.65-.63 3.74 1.05.16c1.47 0 1.32-.53 1.5-1.26l.64-3.61c-.1-.01-.07-.02-.1-.07-2.04 0-1.99.38-2.18.39zM3.6 29.12l.72-3.73-.89.15c-.07-.01-.08-.01-.12-.04-.18.6-1 4.26-.77 4.63.19.3 1.36.05 1.7.05.02-.03.06-.08.06-.1.82.23.98-2.58 1.17-2.99l.29-1.81c-.13-.03-.61.04-.76.07-.25.04-.16-.01-.26.55l-.78 3.36c-.19.08-.36.06-.36-.14zm27-2.66.53-2.51c.1-.39.7-.32.38.57l-.42 2.04c-.04.07-.49.37-.49-.09zm-1.28 1.31 2.25-.31c.13-.06-.02-.08.2-.08l.91-4.54s-.27-.19-.96-.05c-1.54.32-1.35-.48-1.68 1.29l-.72 3.69zm9.25-3.88.17-.72c.06-.17-.03-.14.4-.14.25.98-.58 1.26-.58.86zm-.68-1.71-.97 4.85 1.03-.08.4-1.9s.55-.4.38.44l-.19 1.38.85-.09.41-2.16-.25-.24.37-.24.37-1.95c0-.37-1.88-.02-2.41-.02zm-9.77 1.89c.33 0 .03.81.03.82-.22.36-.72.27-.38-.47.08-.18-.15-.34.34-.34zm-1.03-.84h-.14l-.91 4.82c1.41 0 .94-.11 1.15-.78l.3-1.23c.8 0 .18.7.19 1.48 0 .39-.35.45 1.09.28l.19-1.98c-.04-.1-.08-.06-.09-.2-.08-.01-.18-.1-.23-.15.14-.2.46-.3.52-.58.11-.54.91-2.22-.71-1.8l-1.36.13zm17.25-1.63-.35 1.67c-.05.16.07.45-.18.51-.21-.03.05-1.91 0-2.14-1.14.24-1.28-.33-1.46.85l-.81 4.08.91-.09.43-2.38c.4-.08.14.45.2 1.41.08 1.27-.51.92 1.11.82.21-.01.64-3.26.77-3.5.06-.11.04-.09.04-.24-.1.02-.02.03-.12.06-.24-.19.01-.56.06-1.11l-.6.08zm-1.42-2.14.65-2.52c.02-.09.09-.25.18-.27.24.16-.04.83-.04 1.09l-.15 1.18c-.11.33.1.7-.24.75-.47.08-.39-.06-.39-.23zm-1.55 1.91 1.07-.09.1-.52.75-.08-.03.53.93-.09.52-2.92.19-2.4-1.83.25-1.69 5.34zm-25.88-2.76h-.31l-.91 4.36c-.23.17-.55.01-.39-.37l.76-3.92-1.2.09-.91 5.04c.17.59 1.39.23 1.81.13.21-.05.42-.02.53-.06.09-.04.02-.06.14-.06l.64-2.96.45-2.32c-.5 0-.12.07-.62.07zm33.78-3.13v.04c-.1 0-.11-.01-.19-.02.05-.06.03-.02.08-.07-1.17 0-2.37-.13-2.64 1.24-.41 2.13.96 1.46 1.09 2.51.12.97-.74.71-.57.41l.11-.55c-1.16.28-1.16-.25-1.3 1.22-.09.96.56.67.86.63.8-.1 1.85.12 2-1.07l.18-1.25c-.26-.23.28-.03-.87-.95-.58-.46-.46-1.09.11-1.09 0 0 .18.19.07.48-.03.08-.05.03-.05.16l1.11-.09.17-1.2c0-.27-.09-.22-.09-.37h-.08zm-17.15 1.74c0 .01-1.08 1.77.03 2.56 1.4 1 .44 1.63.17 1.44-.17-.12.08-.74.07-.76-.03-.07-.03 0-.03.03l-1.09.11c-.33 1.29-.16 1.05-.14 1.65l1.07.04.34-.01c.27-.12.47-.1.79-.1l.43-.39c0-.08-.02-.14.08-.15 0-.75.85-1.54-.41-2.46-1.33-.98.01-1.63.01-1.03 0 .06-.08.17-.08.41l1.11-.09c.42-1.65.23-1.77-1.1-1.6-.36.05-.72.01-1.16.28-.05.04-.04.08-.12.08zm3.71 3.99c0 .15.08.41.08.54.61.27 1.48-.07 2.29-.07l.25-.24.24-1.63.25-1.22c-.95.2-1.07-.36-1.2 1.03-.01.13-.05.14.09.23-.13 1.43-.7.9-.7.79l.34-1.6.28-1.41c.08-.13.08.01.12-.14h.31c.25.47-.42.85.65.59.06-.01.13-.01.2-.01l.33-1.59c-.04-.02-.04-.04-.06-.05-.07-.05-2.28-.37-2.64.87l-.82 3.92zm5.89-5.1-.35.02-.86 4.28c-.22.25-.67.08-.43-.33l.75-3.93c-.99.24-1.09-.12-1.24.33l-.86 4.41c.01 1.06.27.62 1.17.7l1.29-.33.92-3.25.37-1.92-.76.02zM29.57 21.5c-.29-.12-.05-.35-.05-.67l.57-2.55.46.08-.68 3.11-.3.04zm.12-4.29c-.05.16-.78-.11-1.03 2.15-.07.61-.77 2.86-.38 3.18l1.62-.04c.22 0 1.01-.1.97-.5-.06-.62.19-1.4.19-1.54.11-.07.08-.08.27-.08.35-.64.1-1.24.1-1.86l.27-1.07c.28-.13.08-.49-.77-.39l-1.22.14zm-9.31 2.04c1-.61.25 1.3.23 1.65-.12 2.1-.96 1.61-.74 1.11l.52-2.75zm-.95-1.07-1.03 5.38 2.46-.26c.11-.04.01-.06.22-.06l.21-.28.24-1.64c.12-.35.28-1.87.65-2.91.08-.21-.08-.19-.09-.32l-1.16-.02-1.5.11zm7.01 3.47.69-3.1c.09-.03.27-.01.36-.01.13.53-.31 1.86-.37 2.46-.11 1.15-.68.75-.68.66zm-.39-4.07-1.03 5.32 2.6-.24.19-.17c-.01-.11-.03-.02-.06-.11.07-.01.06-.04.08.04h.06l.74-4.03c0-.36.74-1.29-.84-.97l-1.73.17zm-7.69.73L18 20.18c-.05.24.06.52-.2.57-.23.01.02-1.82.02-2.4l-1.48.15-1.04 5.22c-.1.23.85.1 1 .01l.48-2.6c.3-.5.2 1.42.2 1.68-.01.82-.31 1.06.79.83.28-.06.42.12.51-.6l.93-4.74-.85.02zM3.85 22.1c-.3 0-.01-1.32-.05-2.13-.01-.11.03-.16.03-.29-2.1.16-1.38.11-1.64.95l-.88 4.57 1-.11.47-2.46c.18-.57.25-.01.25.24l-.06 2.17.87-.09c.97-.05.13.15.66-1.85.3-1.13.26-2.39.87-3.41.05-.08.03-.07.04-.17-.64.37-1-.48-1.18.93l-.37 1.65zm1.96 1.48.56-2.86c.5-.7.64-.07.43.58-.2.65-.37 3.02-.94 2.44-.06-.06-.06-.09-.06-.15zm-.14-3.92L5.4 20l-.44 1.81-.47 2.57c0 .74.7.4 1.57.41l1.08-.3c.62-.82.9-3.98 1.04-4.21l.04-.71c-.08-.02-.1-.08-.1-.17 0 0-.58-.17-1.33-.06l-1.01.24c-.07.04 0 .06-.12.06zm17.41 1.11c0-.19.21-1.97.56-1.97.54 0 .09.96.06 1.28l-.37 1.72v.22s-.73.48-.44-.38l.2-.87zm-.29-2.83s-.58.52-.64 1.35c-.05.61-.84 3.48-.58 3.79.36.43 1.58 0 2.24-.08.43-.05.15-.28.2-.08l.35-.34v-.13c.04-.02.03-.01.08-.02l.82-4.33-.29-.41c-1.39 0-2.13.24-2.18.24zm-10.92.99h-.31l-.72 2.4c-.1.54-.43.37-.17-.44L10.8 19l-1.09.14c-1.06.07-.51-.06-.85.95l-.77 4.05c-.06.27-.46.62.93.32l.52-2.7c.1-.15-.04-.51.24-.53.16.56-.16 2.9-.1 3.13l.8-.02.19-.47.72-2.21c0-.49.52-1.06.34-.25l-.59 2.9 1.22-.19c.07-.27-.04-.22-.04-.43l.45-2.55.44-2.34-1.34.13zm9.85 9.88-.27-.13c-.61.37-1.29.32-2.08.37l-2.91.29c.02.33 3.07 1.52 3.88 1.73 4.59 1.17 9.93.34 13.63-2.77 1.47-1.24.72-.56-2.22-.42l-9.62.93c-.16-.02-.23.01-.42.01zm1.59-23.43c-2.97 0-7.04 1.73-9.1 3.85-1.15 1.18-.96.43 3.29 1.45 2.98.72 1.49.12 3.48-.37 1.96-.48 3.86-.79 5.92-.29 2.34.57 3.23 1.42 3.37 1.45l-.32-1.1-.69-4.32c-.83-.44-4.46-.86-5.66-.71-.1.01-.19.04-.29.04zm7.01 9.86.25-.71 1.44.32c-.07.79-.09.8-1.19.56l-.5-.16zm-2.74-.45.25-.77c.08 0 2.24.26 2.24.48-.02.96-.45.67-.73.63l-1.75-.34zm5.19-.11c-.66 0-.7-.51-.05-.37.43.1.14.37.05.37zm-.64-.39c0 .4-.37.23-1.21.05-.35-.07-.59-.05-.31-.43l1.52.37zm-7.27.13c0-.09.14-.59.18-.75.07-.27 1.5.13 1.79.18.68.12.61.02.49.62-.07.32.23.5-1.7.11-.23-.05-.57-.04-.76-.15zm5.49-.52c-.02.53-.61.16-2.22-.1-.4-.07-.51-.44.19-.34l2.03.44zm-5.92.49-1.97-.32c-.53-.08-.58-.05-.35-.61.1-.24-.23-.53 1.44-.14 1.05.25 1.25-.05 1.03.75-.04.17-.05.31-.15.31zm1.67-.98-.89-.24c-.04-.39.36-.23.73-.15l1.67.36c0 .46-.42.23-1.52.03zm-5.35.35c-2-.54-1.7.11-1.52-1.04.04-.26.13-.18.82-.06 2.37.42 1.95.17 1.73 1.1-.03.12-.05.08-.11.16l-.92-.16zm4.11-.92-.02.35-2.49-.47c-.02-.37-.19-.49 1.3-.14.14.03 1.15.2 1.21.25zm-8.57-.9 2.62.49c-.28 1.27.14.94-2.65.56-.33-.05-.22-.14.04-1.04zm3.09.28c.04-.47.23-.45 1.16-.21 1.14.3 1.73.1 1.5.7l-2.66-.49zm-6.29.24.31-.99 2.6.49c-.13 1.18-.34.92-1.33.76l-1.57-.26zm5.96-.22-2.23-.45c-.23-.07-.5-.02-.42-.24.21-.56.19-.32 1.78-.06 1.35.22 1.03.15.87.74zm-8.66-1.26 1.87.28c.79.19.72-.16.47 1-.06.27-.89.03-1.54-.08-1.27-.2-1.24.02-.96-.85.09-.27 0-.3.16-.36zm5.56.66-1.96-.39c-.59-.09-.53-.11-.48-.36.1-.42.1-.32.55-.23l2.16.46-.27.52zm-6.1-.67c0 .19-.08.4-.11.56-.1.55-.22.27-1.51.07-1.28-.2-1.4-.08-1.08-.99.09-.27 0-.25.83-.09l1.88.45zm.49-.34c0-.02.07-.58.27-.56l2.53.45-.16.58-2.64-.47zm-4.33-.49c.93.27.9-.17.6 1.06-.08.35-.45.17-1.2.05-1.57-.25-1.32-.04-.96-1.06.16-.45-.04-.38 1.56-.05zm3.87.38-2.42-.44c-.34-.06-.05-.54.02-.54l2.42.42c.3.08.28.02.15.54l-.16.02zM6.03 9.9c-1.11-.32-1.46-.19-1.32-.65.14-.46.22-.24 1.35.02.84.19.94.16.82.53-.1.3.05.36-.85.1zm25.35-4.25c-1.59.34-1.4-.6-1.01 2.59.34 2.77 2.03 5.58 2.04 5.81l-8.62-1.61-10.08-1.96-8.26-1.61c-1.43-.22-.7-.27-1.38 1.12l-2.58 6.93 1.31.34c.08-.11.17-.48.19-.62-.71-.31-1.02.55.17-2.34l1.09-2.72 4.46.69c.6.08.77.44.59.81-1.24 2.62-.99 3.17-1.82 5.73-.04.11-.04.07.02.15.59.07.4-.12.74-1.23.64-2.07.46-2.79 1.85-4.62l3.59.44 2.85.43c.4.05.56 1.03.15 1.75-.04.06-.03.04-.03.12.59-.04.73-1.48.78-1.79.03-.23.24-.2 1.09-.06.21.04 1.04.08 1.21.16l-4.16 2.79c-.03-.02.02-.01-.06-.02-.15-.59-.19-1.04-.83-1.59-1.19-1-2.45-.21-2.47 1.96 0 .26.08.96.21 1.2.2 0 .72-.02.89-.09 0 0-.98-1.42.23-1.93 1-.42 1.73.79 1.36 1.29-.65 0-.96-.67-1.19-.43-.11.12-.12.27-.03.39.89 0 .93.22 1.24.28 0 .17-.18.14-.29.28l.89-.11.08-.58c.01-.41.06-.39.53-.68l3.98-2.59 11.21 1.47c.21.03.45.05.64.09 0 .29-.78.12-1.58.34L18.49 17.9c.95 0 2.94-.34 3.55-.21.64.13 2.06-.64 3.29-.27.11.07-.01.09.16.06l.08.17c0-.53.74-.43 1.12-.48l2.7-.17c.95-.39 1.81-.23 2.28-.34l2.72-.55-2.26-4.07c-.82-1.86-1.38-2.96-1.44-5.06-.03-.93-.47-.83 2.44-.36l2.44.36c.27.03.23.73.35 1.16l.34 1.92c.09.48.03.31-1.4.48l-1.05.17c.01.1.04.26.06.36l2.27-.21c.16.21.13.36 1.05.13 0-.59.44-.25 1.83.16l3.12.91c.67.17.42.07.58 1.02.08.45.11.39-.16.73l-1.27 1.81c-.16.22.31.47 1.01-.81.65-1.19.9-.81.77-1.77-.24-1.77.34-.85-1.49-1.57l-3.73-1.15c-.41-.14-.57-.07-.83-.42-.11.05-.1.05-.23.02l-.23-1.93c-.33-.26-.48.38-.57-.66-.07-.76.52-.17.59-.51l-.1-.99c-.18 0-.41.03-.58.04-.04.17 0 .36 0 .56-.06.05-1.32.26-1.46.02-.69-1.14-1.33-1.36-2.89-1.18-.27.03-.05.18-.12.38z" style="fill:#fff"/></svg>