<svg xmlns="http://www.w3.org/2000/svg" xml:space="preserve" width="226.478" height="89.421" style="shape-rendering:geometricPrecision;text-rendering:geometricPrecision;image-rendering:optimizeQuality;fill-rule:evenodd;clip-rule:evenodd" viewBox="0 0 136.32 53.82"><defs><style>.fil0{fill:#000}.fil1{fill:#fefe00}.fil2{fill:#fff}</style></defs><g id="Camada_x0020_1"><g id="_2051437970592"><path class="fil0" d="M102.05 5.58c-.4-.27-.51-.49-1.12-.65-1.63-.42-5.14-.52-6.3.59-.93.9-.53 1.59-.92 2.7-.86.17-.88.19-1.86.05-.66-.1-1.14.1-2.65-.01-1.72-.12-1.13.44-1.13-1.51 0-.51-.62-1.31-.97-1.53-1.47-.89-7.34-.53-9.18-.53-2.59 0-2.87 2.37-3.36 4.73l-2.39 11.29c-.26 1.17-.91 4.76-1.46 5.9-2.47-.57-3.92 1.03-4.71 1.03-.14 0-1.53-1.03-3.68-1.03-2.15 0-4.33-.21-6.47.29-.66.15-1.29.74-1.76.74-.39 0-.96-.61-1.46-.74-.56-.15-1.35-.07-1.62-.58 1-.16 2.3-.01 2.93-.46 1.4-1.01 1.4-3.43 1.72-5.05.11-.55.25-.84.32-1.3.14-.97-.16-1.06.62-1.14.21.76-2.28 5.45 1.23 7.3 2.01 1.06 7.9.9 9.8-.39.5-.34.9-.84 1.26-1.39.81-1.23.9-2.73 1.29-4.15.2-.74.33-1.6.5-2.29.19-.77.34-1.3.48-2.16.38-2.33 1.12-4.72-1.27-6.26-.48-.31-1.1-.5-1.74-.61-2.11-.38-5.56-.37-7.44.42-.72.3-.33.12-1.23-.27-1.3-.56-2.04-.23-3.24-.14-.41.03-1.01-.21-1.42-.21-3.04 0-4.43.44-4.71.44-1.08 0-.91-.58-3.26-.31-.76.09-1.01-.13-1.45-.13h-3.09c-1.08 0-1.61.49-2.18.49-.63-.01-1.51-.49-2.52-.49-.64 0-1.49.48-2.25.52-.68.03-1.55-.52-2.46-.52-.69 0-.88.27-1.46.26-.32 0-1.3-.26-1.63-.26h-2.35c-.87 0-1.4.44-2.21.44-.66 0-1.93-.78-6.62-.27-.56-1.22-.73-2.13-2.01-2.88-2.14-1.25-7.49-.94-9.98-.46-.72.14-.87.27-1.46.6-1.93 1.08-2.65 3.09-3.07 5.17-.7 3.49.15 3.35.18 4.74-1.81.46-1.58 2.66-2.03 4.15-.45 1.48-.45 3.41.53 4.71.53.7 1.3 1.44 2.53 1.44 0 2.33-1.93 4.72-.94 7.56l.45 1.07c-1.23.96-1.53-.05-2.12 2.73-.41 1.93-.99 3.63-.6 5.39.48 2.18 2.47 3.55 4.83 3.55 2.42 0 7.86.41 9.88-.71 1.56-.87 1.25.71 4.39.71 2.2 0 4.08.13 6.31-.16.47-.06.79-.28 1.04-.28.43 0 .7.44 1.47.44h4.27c1.72 0 1.49-.76 1.47 2.21-.03 4.24 2.54 3.09 8.83 3.09 1 0 3.06-.11 3.92.05 1.17.22 1.85 1.06 3.1.35.54-.3.63-.41 1.5-.41l17.51.15c1.59 0 4.09-.15 6.18-.15h13.38c.83 0 2.6.12 3.3-.08 1.25-.35 1.18-1.08 1.85-1.49.45.45.46.8.84 1.32.82 1.13 2.95 2.6 4.46 2.6 2.54 0 4.02-.64 6.43-1.51l5.07-1.71c3.31-1.21 6.56-2.25 9.91-3.47 1.67-.61 3.35-1.06 4.93-1.69 4.75-1.89 11.33-2.23 11.33-8.97 0-.45-.23-1.62-.36-1.99l-1.21-3.49c-.23-.58-.45-1.09-.65-1.7-.76-2.38-1.6-4.72-2.43-7.14l-3.64-10.63c-.68-1.91-2.08-6.63-2.8-7.92-1.08-1.92-2.53-3.14-4.88-3.51-1.62-.26-2.75.15-4.09.58-.57.18-1.19.37-1.78.57-1.19.41-2.28.91-3.48 1.23-.7.18-1.11.45-1.83.68-.33.1-.56.15-.91.26-.32.11-.43.19-.86.32-1.5.47-4.05 1.56-5.35 1.86z"/><path class="fil0" d="M44.53 48.23c0 .95-.77.98-1.51.92-.76-.06-.71-.64-.71-1.51.02-1.9-.56-3.83.74-3.83.65 0 1.47-.15 1.47.59v3.82zm44.86.74c-.47-.97-.24-2.71-.17-4.13.02-.49-.03-1.02.46-1.02.8 0 .91-.06 1.62.15.18.74 0 1.85 0 2.8 0 1.48.47 2.91-1.91 2.21zm-40.71-.29h-.18c-.21.35-.01.68 0 1.18-.84-.34-1.65-.58-2.13-1.1 0-1.5.01-3-.01-4.5-.01-.99-.12-1.28.8-1.34 1.68-.11 1.33.5 1.33.91h.15l1.02.07.01 4.49c.87-.05.26.1.45-.22.15-.26.01-3.84-.01-4.19l.48-.1c.25-.04.28-.05.55-.05-.02.84-.12 1.16-.08 1.93.03.74.1 1.48.1 2.21-.01.91-.16 1.18-1.04 1.19-.87.01-.54-.08-1.1-.38l-.33-.09zm28.86-4.82c.79-.08 2.71-.15 3.41.11.18 1.65.13 2.14.13 3.83 0 1.05.17 1.28-.88 1.32l.07-2.65c.01-.79.16-2.06-.44-2.06-.54 0-.29.91-.29 2.35 0 2.08.3 2.27-.59 2.35-.39-.82.11-3.5-.15-4.71l-.59.04c-.15.44.01 1.95 0 2.62-.04 1.6.26 1.96-.59 2.05-.33-.69-.29-4.35-.08-5.26zm-7.72 4.67c-.14.22-.15-.33-.15.44h-.44c-.14.09-.04.06-.3.14-.04.01-.2.01-.33.01l.05-1.77-.66.08c-.04.41.34 1.27-.2 1.6-.8.5-.58-.74-.55-1.23.08-1.34-.06-2.66-.06-3.98.61 0 1.74-.23 2.06.29l.62-.15c.45-.26 1.51-.26 1.8.07.45.45.22 4.23.22 5.08-.86-.03-.79-.12-.68-2.35.13-2.69.1-2.4-.79-2.35 0 .88.18 1.69.13 2.65-.08 1.89.23 1.96-.58 2.06-.14-.29-.11-.16-.15-.59zm5.08-4.72 2.35.09c-.16.3.26.48-1.4.52v1.4c.48-.08.52-.17.81 0 .08.59-.28.69-.83.81l.02 1.78 1.32.13c-.13.54.08.2-.28.44-.54.35-1.35.05-1.91 0l-.08-5.17zm-1.84.75c-.63-.33-.71-.16-.88-.59.12-.14 1.19-.16 1.48-.16.99.02.81.14 1.24.23l-.99.37.02 2.79c0 1.76.25 2.05-.85 1.84l-.01-4.49zm-21.48 4.41-.22-1.03v-4.05c.41-.09 1.65-.2 2.03.03.33.2.12 0 .25.36l-1.33.13v1.4c.52-.03.6-.18.96.07-.26.54-.37.61-1.04.74l.09 1.76c.67 0 .82-.07 1.25.22-.19.8-1.33.56-1.99.37zm-11.91-5.15c1.08 0 1.73-.15 2.28.29-.22.77-.29.57-.33.61l-.18.13c-.58-.15-.4-.26-.47-.3-.03-.01-.07-.42-.33.06-.18.31-.08 1.1-.08 1.49.68-.1.75-.33 1.38-.29.12 3.27.54 3.5-2.26 3.16 0-.73-.08-.95.88-1.03.13.47.06.31.45.52L41 46.62c-.57.15-.66.53-1.27.52-.16-1.56.12-1.13-.05-2.87v-.44zm45.82 5.22c-.23-.94-.27-4.29-.15-5.2l.96-.02c0 1.03-.13 1.89-.04 3 .15 1.92.25 2.47-.77 2.22zm-24.12-.25c-.08.63-1.06.39-1.84.33-.04-.95-.13-1.84-.14-2.94-.01-2.26-.31-2.35.43-2.35.84 0 1.17-.1 1.58.15-.29.99-.39.06-1.08.48-.38.23-.2.5-.2 1.44.32-.1.65-.22.96 0-.21.62.06.26-.39.57-.11.07-.18.09-.29.15-.29.16-.06-.01-.27.16 0 .21-.03 1.07-.01 1.2.12.67-.03.36.6.45.39.06.73-.14.66.38zm25.3.11c-.22-1.05.25-4.07-.15-5.04l.95-.04.08 4.12c.55-.17.52-.16.53-1.02.01-2.74-.49-3.32.8-3.03v3.83c-.3.46-1.48 1.21-2.21 1.18zm-3.75-5.96h.77l.04 4.93c.7-.14.57.08.57-.79 0-.38.01-.82.01-1.2 0-2.8-.3-2.91.66-2.94v4.71c0 .56-1.56 1.33-2.17 1.25l.1-4.34.01-1.62zm-19.64 3.24c0-.91-.15-2.53 0-3.16.3-.17-.38-.15.37-.15 4 0 3.24-.34 3.24 3.6 0 2.71.28 2.65-.9 2.65l.02-5.15c0-.41-.11-.35-.44-.44-.11.18-.05.01-.12.32-.16.76.16 4.35-.1 5.27h-.66c-.16-.88-.08-3.42-.06-4.57.02-1.26-.13-.92-.38-1.02-.26.41-.15 2.13-.15 2.79 0 .86.11 1.99-.07 2.76-1.14.11-.74.02-.74-2.91zm-24.05 2.8c-.76.22-1.1.23-1.77-.01-1.5-.53-.15.12-1.46.16 0-1.24-.32-5.67.15-6.25.29.1.34.1.59.22-.01 1.19-.22 2.08.22 3.02.02-.02.52-.15.28-1.25-.15-.72-.54-.58-.22-.9.31-.31 1.78-.17 2.31-.06l.06.66c-1.04.5-.84-.06-1.22-.08-.45-.02-.25.06-.25 1.62.76-.1.89-.36 1.4-.29.15.86.15 2.41-.07 3.16zm17.05-.86c.01.48.07 1.13-.79.93-.25-1-.08-3.01-.08-4.2.02-2.24-.28-1.9 1.92-1.91 2.22-.01 1.79.33 1.69 2.38-.05 1.17.18 2.8 0 3.59-.35.13-.36.18-.81.22v-5.59c-1.27 0-.53.05-.61.97-.09 1.02.05 2.36.06 3.62.01.63.13.92-.78 1l.01-5.6-.81.09c.35.64.31 1.87.3 2.87 0 .84-.1 1.22-.1 1.64zm33.07-14.63c1.44-5.01-.09-4.52 3.71-4.43 1.2.03 1.75-.57 1.77.8.59-.16 1.2-.76 2.36-.87 1.06-.1 1.81.14 2.28.78.74 1.02.38 2.73.2 3.91-.04.25-.04.4-.11.63-.18.57.13.17-.28.46-.69.25-2.84.2-3.75.11-.82-.08-.45-.48-.31-1.07.21-.88.28-.77-.16-1.39-1.19.04-1.08 1.11-1.33 2.24l-1.34 5.87c-.84 3.92-.34 2.44-2.95 2.63-1.19.08-1.46.13-2.27-.2l2.16-9.46zm-75.34-1.87c.39-.18.59-.1 1.11-.08.36.01.79.01 1.14-.01.62-.04 1.33-.1 1.87.01-.16 1.5-.45 1.78-.51 2.58h-.3c-.4-1.41-2.8-1.5-3.31-2.5zm61.85 11.33c0-3.71 1.01-6.21 1.78-9.99.34-1.67.8-2.98 2.27-3.61 1.05-.45 4.02-.44 5.41-.27.86.11 3.8-.42 3.29 2.48l-2.22 9.56c-.71 1.91-.51 1.39-1.34 1.2-.44-.1-2.21-.15-2.57.02-.53.47-.29.59-.39 1.5-1.03-.08-.54-.8-2.84-.73-1.24.04-2.31.21-3.38-.16zm-21.47-9.41c-.7 0-.3-1.03-.13-1.6.82-2.66 1.91-2.67 3.95-2.83 1.02-.08 5.26-.25 6.06.43.3.26.7.91.7 1.5l-1.05 4.69c-.09.43-.14.44-.23.8-.37 1.44-.8 4-1.27 5.49-.01.04-.03.07-.04.11l-.21 1.41c-.61-.16-.28-.29-1.06-.39-.35-.04-.78-.03-1.06-.07-1.01-.16-.57-.77-1.85-.88-4.98-.4-3 .85-3.73 1.73-.9-.23.07-.2-.69-.65-.29-.17-.93-.24-1.22-.33-.83-2.15-.23-4.54 1.31-6.39.64-.76 2.92-1.65 3.95-2.08.86-.36 1.82-.55 2.08-1.45.1-.34.06-.74.06-1.12-.33-.08-.44-.22-.79-.06-.4.19-.74 1.31-.98 1.67l-2.97-.11c-.46-.02-.47.12-.86.12zm-31.72-4.51c.79-.17 2.29.11 3.33.09 1.21-.01 2.43-.16 3.12.41.97.82.6 2.24.31 3.31l-.45 2.05c-.12.61-.2.89-.35 1.41l-.99 4.31c-.51 2.02-1.39 3.1-3.7 3.21-1.76.08-5.53.29-6.54-.53-1.2-.97-.36-3.14-.11-4.06.53-1.93 1.5-8.32 2.82-9.39.92-.75 1.72-.65 2.56-.83zm6.13 14.81c-.3 0-.37.06-.57-.12-.34-.31-.09.19.08-.62l2.6-11.4c.73-3.41.28-2.56 2.29-2.56h2.79c-.08.34-.11.34-.15.74.92-.08 1.51-.88 2.79-.88 4.26 0 2.26 4.88 1.68 7.42l-1.43 6.38c-.18.42.19.38-1.33.32-.77-1.41-.94-.77-2.3-.74 0 1.05.14 1.47-.44 1.47-.84 0-.73-.19-.53-1.11l2.11-9.25c.41-1.5-.99-1.28-1.32.02L34 38.03c-1.75 6.94.14 5.82-5.21 5.82zm11.25-15.52c.32-.32-.24-.22.66-.3.18-.02.41.04.6.06.5.03.8-.07 1.27-.12l-.39 2.2c-.41-.3-.51-.7-.91-1.14-.43-.48-.72-.39-1.22-.7zM4.68 30.31c0-.65.01.08.21-.52.48-1.42.07-1.68 1.34-3.37.4-.53 1.06-.91 1.72-1.07 2.1-.5 5.61-.43 7.75-.32 4.32.21 3.13 2.96 2.87 4.32-.11.6-.2 1.4-.8 1.4h-5.44v-.88c0-.79-.89-.77-1.27-.25-.78 1.07.47 1.73 1.27 2.16 5.23 2.8 5.14 2.64 3.89 7.86-.21.88-.65 1.92-1.11 2.57-1.15 1.62-3.14 1.63-5.57 1.63-2.14 0-5.22.36-6.52-.84-.89-.82-.58-1.75-.41-3 .17-1.24.59-2.42.6-2.93 1.67-.34 4.17.15 6.08-.05-.15 1.22-.56 1.58-.05 2.55.65-.05.92-.23 1.12-.79.85-2.34-.23-2.46-1.54-3.2-4.45-2.51-4.14-1.84-4.14-5.28zm69.03-5.29 4.36-.01c0 1.08-.2 1.45-.39 2.4-.15.73-3.35 15.44-3.73 15.67-1.15.21-3.16.16-4.22.01-.82-.12-.95.21-1.81.05-.84-.16-.55-.53-1.28-.79-.75-.27-1.5-.01-2.12-.12-.53-.1-.4.01-.45-.58-.12-1.39.37-3.15.71-4.47.69-2.68 1.15-7.65 4.34-8.17 2.16-.36 2.57.52 3.35.7l1.23-4.7zM40.17 43.05c-.05-.45.82-3.96.97-4.67l2.13-9.19c.16-.82.63-4.18 1.41-4.18 4.84 0 4.24-.58 3.64 2.17-.16.75-.44 1.59-.41 2.54.88-.07 1.01-.74 2.94-.74 3.56 0 1.86 5.36 1.35 7.23l-.96 4.04c-.16.74-.35 2.7-.88 2.91-.38.15-.93.05-1.23-.22-1.22-1.13-1.12-.72-2.98-.56.09-.6.01-.49.2-1.11.29-.96 1.9-7.64 1.91-8.5-.46-.45-.19-.09-.74-.34-.49.45-.46.36-.64 1.13l-.97 4.18c-.27 1.2-1.22 4.62-1.24 5.53-.38-.05-.71-.14-1.18-.15-.22-.01-.5 0-.71.05-.49.1-.04.05-.43.14-.39.1-1.49-.12-2.2-.24zm47.24-18.41c.65-.09 2.8.34 4.46.04l4.14.04c1.75 0 1.62-1.53 1.95-3.05L100.73 9c.25-.57 1-.69 1.6-.89l13.35-4.6c2.16-.75 5.28-2.2 7.14 1.01 1.09 1.87 1.35 3.77 2.02 5.63l7.27 20.97c1.43 4.18 3.7 8.09-2.04 10.02-2.58.86-5.14 1.78-7.69 2.62-1.36.45-2.51.92-3.82 1.31-.67.2-1.26.35-1.91.61l-13.3 4.65c-1.33.39-2.43 1.1-4.12 1.04-1.61-.06-2.59-.93-3.25-1.9-.54-.8-1.63-4.29-2.06-5.59-.19-.57-.52-1.27-.69-1.98-.25-1.1.49-3.27.7-4.36l1.69.02c.1.68-.68 1.13-1.21 2.1-.34.63.09 2.59 2.35.28.39-.4.53-.47.95-.81.74-.62.9-1.38 2.16-1.21 2.21.29 4.57.11 6.86.23 6.45.34 11.05.12 17.21.14l4.71-.16c.83-.22.48-.95-.28-1.02-2.29-.21-13.8.24-18.39 0-3.98-.21-9.49-.38-13.24-.7-.6-.05-2.1.09-2.39-.47.16-.13.04-.24.87-.15.35.04.51.08.92.08 3.67.02 3.9.28 4.4-2.02.47-2.16.57-5.64-2.48-5.64h-1.03c-.7 0-1.24.32-1.56.27-.17-.03-.27-.16-.73-.24l-4.92.05c-.21.72-.24.8-.59 1.32-.61-.5-.76-1.5-1.04-2.34-.15-.45-.29-.87-.46-1.3-.09-.21-.2-.49-.25-.65-.07-.25-.07-.53-.08-.64zm-62.2-.03c3.17-.13 9.01.03 12.49.03-.04.77-.19 1.31-.26 2.12-.11 1.27.19.69.55 1.41-1.21.13-.57.68-1.86.11-.59-.26-1.62-.11-2.34-.11-4.27 0-2.32.29-3.38 1.4-.82-.54-.76-1-2.08-1.31-.7-.17-5.5-.12-6.31-.03-1.93.23-1.51.6-2.49.82.04-1.26.39-1.07.04-2.46-.41-1.63-.66-.79-1.14-1.95.96 0 1.76-.03 2.73-.09 1.92-.11 1.17-.91 2.06-.45.49.25.06.59 2 .51zm-12.59-.33c.2-.63.75-.93 1.25-1.18.2.42.4.68.51 1.18-.73-.18-1.05-.07-1.77 0zm65.53 5c.1-.58.35-1.15.48-1.8.13-.65.25-1.15.33-1.87.21-1.85.5.22 1.2-3.06.31-1.45.49-2.28.8-3.59.23-.99-.01-2.03 2.26-1.44-.28.58-.75 4.35-.59 5.14.53 2.52 2.85 2.06 3.75 2 .29 1.18 1.26 2.77 1.03 3.68-.52 0-1.56-.15-2.42-.15-7.5.02-4.6.51-6.84 1.1zM55.43 11.33c.74-.06 1.65-1.06 3.03-.54 1.62.61 1.32 2.86.96 4.23-.18.68-.06.59-.51.87-.22.13-3.04.06-3.48 0 .58-2.5.38-.77.15-2.21-1.2.1-1.07 2.15-1.55 4.04-.1.41-.11.24-.2.68-.06.3-.09.55-.13.76-.13.62-.25.92-.37 1.54-.75 3.9.02 3.13-4.52 3.13l1.05-5.28c.09-.54.32-1.01.45-1.61.13-.6.2-1.09.33-1.73.13-.67.26-1.04.38-1.68.27-1.42.27-2.8 1.33-2.79 2.05.01 2.99-.28 3.09.59zM14.54 22.21c0-.55.22-1.24.33-1.88l1.11-5.07c.59-2.82.72-4.52 3.86-4.52 2.11 0 5.59-.48 5.59 1.47 0 2.41-.98 4.87-1.03 5.44-5.75 0-4.9-.62-5.44 1.77-.18.77-.28 1.14 0 1.91 1.02-.09 1.03-1.38 1.32-2.65h3.82c0 1.12-.36 2.65-.74 3.38-1.32 2.54-3.41 1.75-6.02 1.77-.65.01-1.36 0-1.89-.17-.76-.24-.91-.7-.91-1.45zm23.68 5c0-.78.22-1.41.38-2.12.16-.73.2-1.37.4-2.11.13-.49.17-.41.29-1.02l2.46-11.25 3.68.02c.08.34.11.34.15.74.53-.14 1.24-.93 2.65-.79 1.3.13 1.69 1.12 1.8 2.37.05.58-.77 4-.9 4.63-.33 1.6-.78 3.86-1.63 4.98-1.9 2.53-4.26.57-4.42.58-.4.15-.07-.05-.22.27l-.4 1.75c-.5 2.53.12 1.95-4.23 1.95zM13.91 14.02c-.65-.43-.91-.26-1.36-.86.28-.21 2.38-.13 2.94 0 .03.64-.22 1.03-.22 1.84-.84-.33-.89-.66-1.37-.98zm48.58 9.9c-.51 0-2.26-.06-2.75-.14-.85-.14-1.34-.39-1.41-1.37-.07-1.13.52-3.03.83-4.57.28-1.43.85-5.35 1.99-6.4 1.08-.99 5.28-.86 6.92-.55.39.07.64.15.86.47.39.58.25 1.44.18 2.16l-.97 4.13h-4.91c-.19.41-.35 1.08-.46 1.6-.05.27-.09.54-.17.86-.09.34-.16.38-.26.77.67.24-.14-.07.35.23.23.14.06.12.38.21.39-.36.58-.77.72-1.34.39-1.63-.48-1.31 4.14-1.31 0 1.4-.71 4.35-2.18 4.88-1.07.39-2.17.36-3.27.36zm20.89-2.01c0-1.66 1.54-7.66 1.95-9.97.03-.17.09-.43.19-.69.19-.51.06.08.22-.53l1.32.06c.97.02 2.35-.21 2.35.25 0 1.05-1.91 7.85-1.91 9.85 1.08 0 1.11-.48 1.43-2.39l1.16-5.47c.66-3.15.06-2.07 4.33-2.29 0 .87-1.74 8.71-2.04 10.16-.22 1.06-.41 2.32-.9 3.07H88.1c-.19-.39-.13-.16-.15-.74-.92.08-1.21.74-2.5.74-1.35 0-2.06-.82-2.06-2.06zm11.03 1.91c-.86-.06-1.76.46-1.58-.66l2.04-9.18c.22-.95.54-3.25 1.16-3.25l3.33.05c.04.53-2.26 10.74-2.5 11.82-.28 1.24-.28 1.27-.69 1.27l-1.76-.05zM30.87 13.67c-1.14.09-.99 1.13-1.22 2.17l-1.48 6.6c-.11.38-.15.97-.24 1.38l-3.82-.01c0-1.33.1-.66.44-2.21l.95-4.94c.29-1.14.41-.99.81-3.16.63-3.47.19-2.77 4.14-2.77.15.36.1.12 0 .59 1.05 0 .47-.07 1.24-.37 2.13-.84 2.43.12 3.32.84.46-.15 1.56-1.09 2.8-1.13 3.48-.11 1.9 4.39 1.46 6.42-.23 1.07.21.74-.29 1.01 0 1.32-.84 4.26-1.18 5.75l-3.82-.02 1.35-6.6c.09-.49.2-.63.34-1.28.2-.96.61-1.78-.06-2.27-.5.13-.57.43-.71.91-.14.47-.14.86-.27 1.35l-1.17 5.31c-.13.74-.4 2.05-.65 2.58h-3.68c0-.7 1.08-5.19 1.34-6.45.35-1.71.58-1.83.43-3.69zm-22.8 6.32c.7 0 .67.14.94-.38.57-1.06.48-2.14-.51-2.7-3.82-2.2-4.79-1.89-3.93-6 .27-1.29.7-2.55 1.93-3.22 1.06-.58 5.78-.65 7.42-.46 2.47.28 2.76 1.49 2.09 3.8-.47 1.6.53 1.18-5.3 1.18.04-.43.16-.45.06-.81-.35-1.25-1.77.07-1.04 1.04.25.33 2.37 1.53 2.88 1.83.48.28 1.01.54 1.41.95.61.63.54.71.52 1.84-.02 1.94-.55 4.04-1.55 5.51-1.35 1.99-5.87 1.33-7.88 1.25-1.58-.06-2.65-.47-2.69-2.06-.02-.84.54-3.45.79-3.97h5c-.03 1.14-.37.84-.15 2.21zM96.32 7.34c.77-.29 2.94-.11 3.78-.1.06.42-.14 2.6-.83 2.6-4.11 0-3.68.67-2.94-2.5zM74.11 23.23c0-.17.35-1.78.42-2.08.1-.42.22-.75.27-1.05l1.94-9.24c.17-.83.61-3.67 1.19-3.67l7.47.07c.5.15.2.44.08 1-.22 1.01-.43 1.87-.64 2.76h-3.09c-.01.67-.24 1.14-.29 1.77h2.94c0 1.06-.4 2.87-.74 3.82-1.24 0-2.13-.03-3.24.15 0 1.23-.41 2.53-.64 3.62-.22 1.03-.59 2.41-.83 3.44H74.1v-.59zM101.1 7.49c-.35-1.26-.62-1.11-1.98-1.11-1.1 0-2.25-.02-3.24.08-.62 1.29-.51 1.73-.81 3.16-1.88.63-6.64.29-8.97.29.17-3.1 1.69-3.53-2.43-3.53l-6.3.09c-.67.2-.64.61-.76 1.31-.09.53-.2.76-.29 1.32-.35 2.23-1.02 4.68-1.47 6.91-.11.54-.27.83-.38 1.39l-1.4 6.96c-.15.52-.31.58-.43 1.36-.08.54-.53 2.26-.73 2.65-1.38-.18-2.27-.65-3.78.03-.5.22-1.04.59-1.33.88-.52.53-.41.77-1.14 1.14-.74-2.54-2.53-2.35-4.78-2.35-1.97 0-4.27-.14-5.82.94-.71.5-.56.83-1.09 1.27-.66-.49-.48-1.25-1.69-1.85-1.15-.56-1.97-.21-3.24-.21l.73-3.59c1.01-.16 2.19.1 3.39-.16 1.02-2.58 1.11-5.72 1.99-7.72l3.39.13c-.21 1.65-.74 3.17-1.05 4.81-.09.48.28 1.66.63 2.09 1.21 1.47 7.11.81 7.76.61.87-.27 1.25-.72 1.66-1.28.93-1.29 1.44-5.41 1.9-7.07 1.56-5.62.52-6.12-4.43-6.12-4.83 0-2.99.65-4.85 1.1-2.1-1.4-1.08-1.21-3.97-1.01-1.57.11-3.34-.33-5.07.05l-.52 1.1c-.75-.5-.75-1.09-1.97-1.24-1.13-.13-1.9.17-2.99.04-.72-.08-3.87-.3-4.42.2-.18.17-.22.33-.33.55l-.36.59c-.62-.72-.82-1.39-2.28-1.43-1.65-.05-2.83.82-3.24.74-.57-.12-.51-.7-1.91-.71-1.02 0-1.59.19-2.61.06-.87-.11-1.8-.05-2.69-.06-1.49 0-1.24-.03-1.76.96-2.03-1.07-1.65-.96-4.12-.96-.86 0-1.73-.04-2.59.02-1.31.08-1.48.45-2.19.5.12-.69.13-1.36-.14-1.99-.64-1.5-1.59-2.07-3.46-2.06-2.43.01-5.35-.3-7.22.51-.68.3-.89.52-1.34 1.03-.94 1.04-1.14 2.6-1.4 3.98-.26 1.36-.24 2.11.53 3.09 1.01 1.29 1.88.99 2.29 1.84-.98.1-2.95-.28-3.73.39-.4.34-2.1 5.45.14 6.88.92.58 2.61.53 4.03.53-.15.21-.03.09-.23.33-.12.15-.15.18-.31.31-.67.52-1.19 1.04-1.58 1.95-.45 1.05-.58 2.43-.89 3.63-.94 3.61 2.97 3.97 3.74 5.17-.99 0-1.9.04-2.87.07-.96.03-1.7-.12-2.18.54-.31.43-.91 4.08-.91 4.83 0 1.18.36 1.93 1.23 2.45 2.02 1.21 5.66.79 8.05.79 1.45 0 3.16-.34 4.21-1.21.6-.49.29-.66 1.06-.85.07.89.67 1.36 1.42 1.68.97.42 2.5.39 3.58.3l2.8.08c1.52 0 2.5-.71 3.38-1.18.12 1.4 1.45 1.18 2.79 1.18 2.13 0 2.5-.25 3.25-.3.9-.06.23-.01.6.1.65.2.61.12 1.31.19v4.85c2.23.65 5.92.23 8.53.24 2.22.01 2.71-.18 4.78.87.44-.29.51-.36.74-.81l16.71-.07c5.47.25 10.98.06 16.45-.01l1.03.09c.34.03.55-.12.88-.08 1.63.16 3.23-.09 4.85 0 3.92.21 2.57-.96 2.87-4.79.04-.57.07-.52.26-.99.04-.1.15-.35.17-.41.19-.37.04-.14.23-.36.9 1.87 1.38 4.7 2.35 6.47 2.63 4.74 8.55 1.36 12.44.09 2.22-.73 4.57-1.69 6.67-2.3 2.27-.65 4.31-1.58 6.5-2.31l6.61-2.23c1.75-.61 3.27-.96 4.84-1.77.64-.33.74-.53 1.21-1 2.91-2.86.41-6.53-.64-9.87l-6.76-19.72c-.99-2.74-1.63-7.41-4.75-8.65-2.61-1.03-7.25 1.17-10.07 2.18-.98.35-2.18.68-3.26 1.15l-6.84 2.22z"/><path class="fil1" d="M104.17 25.96c-.52-1.3-.78-2.05.08-3.32 1.04-1.54 4-3.93 4.05-4.45.05-.42.06-.08-.08-.38-3.14.13-3.3.03-5.48-1.61-.65-.48-1.08-.82-1.68-1.26-.68-.5-1.07-.68-1.07-1.73 0-.11.33-.66.42-.75.95-1 1.99-.01 2.78.64 3.91 3.19 3.93 1.95 9.31 2.17 1.09.04 5.06 1.93 6.15 2.38 1.05.43 5.21 1.97 5.73 2.96.4.77 0 1.48-.63 1.82-.72.38-1.66-.15-2.14-.39-.63-.3-1.17-.53-1.91-.87-.76-.35-3.44-1.59-4.12-1.67-.4.33-4.32 4-4.34 4.67.47.31.95.32 1.5.56 1.43.63 3.4 1.29 3.95 2.23.33.56 1.25 5.35 1.52 6.56.6 2.7-.76 3.65-2.26 3.15-1.44-.48-1.57-3.82-2.09-6.01-.52-2.17.38-1.38-2.87-2.71l-2.55-1.06c.16 1.18.84 1.78.81 3.09-.02 1.03-.94 1.65-1.51 2.17l-3.87 3.64c-2.21 1.53-3.98-1.1-2.32-2.76l3.72-3.56c.02-.95-.75-2.6-1.12-3.52zm9.65-16.12c3.56-1.09 5.06 4.4 1.65 5.48-2.52.8-4.73-2.04-3.31-4.34.27-.44.67-.8 1.19-1.02.37-.16.19-.04.47-.12zm-26.4 14.78c.02.11.01.39.08.64.05.16.16.44.25.65.18.43.31.84.46 1.3.28.83.43 1.84 1.04 2.34.35-.52.38-.6.59-1.32l4.92-.05c.46.08.55.21.73.24.31.05.86-.27 1.56-.27h1.03c3.05 0 2.95 3.47 2.48 5.64-.5 2.3-.73 2.04-4.4 2.02-.41 0-.57-.04-.92-.08-.83-.09-.71.02-.87.15.29.56 1.79.42 2.39.47 3.76.32 9.26.49 13.24.7 4.6.24 16.11-.21 18.39 0 .76.07 1.11.81.28 1.02l-4.71.16c-6.17-.02-10.76.2-17.21-.14-2.28-.12-4.64.06-6.86-.23-1.26-.17-1.42.59-2.16 1.21-.41.34-.55.41-.95.81-2.26 2.31-2.69.36-2.35-.28.53-.97 1.31-1.41 1.21-2.1l-1.69-.02c-.22 1.09-.95 3.26-.7 4.36.16.72.5 1.42.69 1.98.43 1.31 1.52 4.8 2.06 5.59.66.97 1.64 1.84 3.25 1.9 1.7.06 2.8-.65 4.12-1.04 6.35-2.22 12.64-4.46 19.03-6.56 2.55-.84 5.11-1.76 7.69-2.62 5.74-1.92 3.47-5.83 2.04-10.02l-7.27-20.97c-.67-1.86-.93-3.75-2.02-5.63-1.87-3.21-4.98-1.76-7.14-1.01l-13.35 4.6c-.6.2-1.36.32-1.6.89l-2.77 12.67c-.33 1.52-.2 3.05-1.95 3.05l-4.14-.04c-1.66.31-3.81-.13-4.46-.04z"/><path class="fil1" d="M107.93 5.27c1.08-.47 2.28-.8 3.26-1.15 2.82-1.01 7.46-3.21 10.07-2.18 3.13 1.24 3.77 5.91 4.75 8.65l6.76 19.72c1.05 3.34 3.55 7.02.64 9.87-.47.46-.58.67-1.21 1-1.57.82-3.09 1.16-4.84 1.77l-6.61 2.23c-2.19.74-4.23 1.66-6.5 2.31-2.11.61-4.45 1.57-6.67 2.3-3.89 1.27-9.82 4.65-12.44-.09-.98-1.77-1.46-4.6-2.35-6.47-.19.22-.04-.01-.23.36-.03.06-.13.31-.17.41-.19.47-.22.41-.26.99-.29 3.83 1.05 5-2.87 4.79-1.62-.09-3.23.16-4.85 0-.33-.04-.55.11-.88.08l-1.03-.09c-5.47.07-10.99.26-16.45.01l-16.71.07c-.22.45-.3.52-.74.81-2.07-1.05-2.56-.86-4.78-.87-2.61-.01-6.3.41-8.53-.24V44.7c-.7-.07-.66.01-1.31-.19-.36-.11.3-.16-.6-.1-.74.05-1.12.3-3.25.3-1.35 0-2.68.23-2.79-1.18-.88.46-1.86 1.18-3.38 1.18l-2.8-.08c-1.08.09-2.61.12-3.58-.3-.75-.32-1.35-.79-1.42-1.68-.77.19-.47.35-1.06.85-1.06.87-2.76 1.21-4.21 1.21-2.39 0-6.03.42-8.05-.79-.87-.52-1.23-1.26-1.23-2.45 0-.75.6-4.4.91-4.83.48-.66 1.21-.52 2.18-.54.97-.03 1.88-.07 2.87-.07-.77-1.2-4.67-1.56-3.74-5.17.31-1.2.44-2.58.89-3.63.39-.91.91-1.43 1.58-1.95.16-.13.19-.17.31-.31.2-.24.08-.12.23-.33-1.42 0-3.11.05-4.03-.53-2.24-1.42-.54-6.53-.14-6.88.78-.67 2.74-.29 3.73-.39-.41-.85-1.28-.55-2.29-1.84-.77-.98-.79-1.73-.53-3.09.26-1.38.46-2.94 1.4-3.98.46-.51.66-.73 1.34-1.03 1.87-.81 4.79-.5 7.22-.51 1.87-.01 2.82.56 3.46 2.06.27.62.26 1.3.14 1.99.71-.05.88-.42 2.19-.5.86-.05 1.73-.02 2.59-.02 2.47 0 2.08-.12 4.12.96.52-.99.27-.97 1.76-.96.89 0 1.82-.05 2.69.06 1.02.13 1.59-.06 2.61-.06 1.4 0 1.34.59 1.91.71.41.09 1.59-.79 3.24-.74 1.46.05 1.65.72 2.28 1.43l.36-.59c.11-.23.15-.38.33-.55.55-.5 3.7-.28 4.42-.2 1.1.13 1.86-.17 2.99-.04 1.22.14 1.22.73 1.97 1.24l.52-1.1c1.73-.38 3.51.06 5.07-.05 2.89-.21 1.88-.39 3.97 1.01 1.86-.45.02-1.1 4.85-1.1 4.95 0 5.99.5 4.43 6.12-.46 1.67-.97 5.78-1.9 7.07-.41.57-.79 1.01-1.66 1.28-.65.2-6.55.86-7.76-.61-.35-.43-.72-1.61-.63-2.09.3-1.64.84-3.16 1.05-4.81l-3.39-.13c-.88 2-.96 5.14-1.99 7.72-1.2.26-2.38 0-3.39.16l-.73 3.59c1.27 0 2.09-.36 3.24.21 1.21.6 1.02 1.36 1.69 1.85.53-.43.38-.77 1.09-1.27 1.55-1.08 3.85-.94 5.82-.94 2.25 0 4.04-.18 4.78 2.35.73-.37.62-.62 1.14-1.14.29-.29.83-.66 1.33-.88 1.51-.68 2.41-.21 3.78-.03.2-.39.65-2.11.73-2.65.12-.79.28-.85.43-1.36l1.4-6.96c.1-.56.27-.85.38-1.39.44-2.22 1.11-4.68 1.47-6.91.09-.57.2-.8.29-1.32.12-.69.09-1.11.76-1.31l6.3-.09c4.11 0 2.6.43 2.43 3.53 2.33 0 7.09.34 8.97-.29.3-1.43.18-1.87.81-3.16.99-.1 2.14-.07 3.24-.08 1.36-.01 1.62-.15 1.98 1.11l6.84-2.22zM86.68 9.33c-.17-1.07 1.41-3.13-.82-3.45-1.45-.21-3.61-.08-5.14-.08-1.15 0-3.87-.37-4.39.82-.23.52-.81 3.45-.97 4.19-.16.76-3.33 15.92-3.76 16.83-1.04.21-1.76-.37-3.29.1-1.25.38-1.49 1.02-2.29 1.52-.85-.57-.88-1.18-2.34-1.49-1.67-.36-7.19-.32-8.67.64-.39.26-.58.55-1.05.78-1.58-1.49-1.37-1.54-4.33-1.56l.65-2.3c2.62-.87 3.37 1.83 4.32-4.12.23-1.45.7-2.79.98-3.99l2.28.2c0 2.2-3.22 7.72 2.57 7.8 1.73.02 4.47.19 5.87-.39 2.24-.93 2.63-3.84 3.03-6.08l.6-2.5c1.46-5.71.75-6.85-4.5-6.85-.99 0-2.13-.08-3.03.06-1.53.24-1.12.23-2.04.89-.77-.38-.65-.83-1.98-.98l-5.9.02c-1.57.01-1.35.25-2.28.67-.72-.57-1.13-.74-2.43-.73-1.73.02-.37.24-2.75-.02-.88-.09-1.7-.01-2.48-.03-1.28-.04-1.44.11-2.12.85-1.04-.46-1.24-.94-2.63-.86-.71.04-1.98.42-2.67.72-1.98-1.35-2.29-.24-4.05-.5-.95-.14-3.92-.33-4.77.08-.38.18-.33.41-.81.3-.3-.07-.22-.19-.79-.34-1.11-.3-4.86-.22-6.11-.02-1.37.22-.71-.49-1.16-1.54a3.97 3.97 0 0 0-.78-1.13c-.68-.68-1.61-.91-2.85-1.01-2.68-.2-7.85-.55-9.39 1.82-.88 1.36-1.82 4.57-1.48 6.11.24 1.08.77 2.04 1.6 2.26-.4.96-2.05-.52-2.67 1.45-.83 2.62-1.82 6.5 1.53 7.5.68.2 1.24.08 1.73.32-.06.73-.3.5-.68 1.22-.22.43-.33.81-.47 1.31-.49 1.77-1.36 4.31-.26 5.94.37.55 1.59 1.15 1.63 1.75-3.73 0-3.35.19-3.94 3.75-.17 1.05-.65 1.85-.34 3.1.85 3.45 5.61 2.79 8.62 2.79 5.47 0 4.3-.7 6.03-1.47.69.44.7.91 1.59 1.19.78.25 1.63.28 2.53.28 1.78-.01 3.66.14 5.31-.11.86-.13 1.55-.6 2.1-.26.82.5 1.42.37 2.45.37.73 0 3.91-.16 4.55.01 1.72.45-.34 4.43 1.11 5.08.94.42 9.1.08 10.82.13 1.69.05 2.13 1.76 3.67-.03 3.9.12 8.23-.04 12.21-.04h24.12c1.33 0 5.03.35 5.78-.26 1.21-.99-.08-3.83.77-5.26 1.41 3.81 1.85 7.63 6.4 8.07 1.1.11 2.98-.53 3.92-.85 1.19-.41 2.35-.83 3.56-1.29 2.76-1.05 8.54-2.78 10.7-3.7 1.14-.49 2.36-.78 3.59-1.27 1.21-.48 2.5-.82 3.59-1.25 3.14-1.23 7.99-1.69 9.88-4.55 1.8-2.73.66-4.59-.25-7.43l-3.05-9.01c-.23-.5-.44-1.15-.62-1.73-.26-.8-.37-1.15-.67-1.83-.64-1.45-1.28-3.72-1.77-5.3-.2-.64-.41-1.18-.69-1.82l-1.78-5.43c-.31-1.2-.65-1.65-1.02-2.65-.15-.41-.14-.47-.34-.85-.5-.92-1.43-1.85-2.35-2.34-2.97-1.59-6.57.72-9.52 1.61l-8.85 3.05c-3.15 1.23-1.26-.05-3.03-.33-.77-.12-4.16-.15-4.69.11-1.02.51-.72 2.32-1.39 3.32-.73.16-6.84.13-7.65 0z"/><path class="fil0" d="M99.99 13.23c0 1.05.39 1.22 1.07 1.73.6.44 1.03.78 1.68 1.26 2.18 1.63 2.34 1.74 5.48 1.61.14.29.13-.05.08.38-.06.52-3.02 2.91-4.05 4.45-.86 1.27-.6 2.02-.08 3.32.37.92 1.14 2.57 1.12 3.52l-3.72 3.56c-1.66 1.66.11 4.29 2.32 2.76l3.87-3.64c.57-.52 1.49-1.14 1.51-2.17.03-1.31-.65-1.91-.81-3.09l2.55 1.06c3.25 1.33 2.35.54 2.87 2.71.52 2.18.65 5.53 2.09 6.01 1.5.5 2.86-.45 2.26-3.15-.27-1.21-1.2-6-1.52-6.56-.55-.93-2.52-1.6-3.95-2.23-.55-.24-1.03-.26-1.5-.56.02-.67 3.94-4.34 4.34-4.67.67.08 3.35 1.32 4.12 1.67.74.34 1.28.56 1.91.87.48.23 1.42.77 2.14.39.63-.34 1.03-1.05.63-1.82-.52-.99-4.68-2.53-5.73-2.96-1.09-.45-5.06-2.33-6.15-2.38-5.37-.22-5.4 1.02-9.31-2.17-.79-.64-1.83-1.64-2.78-.64-.09.09-.42.64-.42.75z"/><path class="fil2" d="M4.67 30.29c0 3.44-.31 2.77 4.14 5.28 1.3.74 2.39.85 1.54 3.2-.2.56-.47.74-1.12.79-.51-.97-.11-1.33.05-2.55-1.91.2-4.41-.29-6.08.05-.01.52-.43 1.7-.6 2.93-.17 1.25-.48 2.18.41 3 1.29 1.2 4.38.84 6.52.84 2.43 0 4.42-.01 5.57-1.63.46-.64.9-1.69 1.11-2.57 1.25-5.23 1.34-5.06-3.89-7.86-.8-.43-2.05-1.09-1.27-2.16.38-.52 1.27-.54 1.27.25v.88h5.44c.6 0 .69-.8.8-1.4.26-1.37 1.45-4.11-2.87-4.32-2.14-.1-5.65-.18-7.75.32-.66.16-1.32.54-1.72 1.07-1.27 1.69-.86 1.95-1.34 3.37-.2.6-.21-.13-.21.52zM30.41 11.31c.1-.47.15-.23 0-.59-3.94 0-3.5-.7-4.14 2.77-.4 2.18-.52 2.02-.81 3.16l-.95 4.94c-.34 1.55-.44.88-.44 2.21l3.82.01c.09-.41.14-1 .24-1.38l1.48-6.6c.23-1.04.08-2.07 1.22-2.17.15 1.86-.08 1.99-.43 3.69-.26 1.26-1.34 5.75-1.34 6.45h3.68c.26-.54.52-1.84.65-2.58l1.17-5.31c.12-.49.13-.88.27-1.35.14-.47.21-.77.71-.91.67.49.27 1.31.06 2.27-.14.65-.25.8-.34 1.28l-1.35 6.6 3.82.02c.33-1.49 1.18-4.44 1.18-5.75.5-.27.06.05.29-1.01.44-2.02 2.01-6.53-1.46-6.42-1.24.04-2.34.98-2.8 1.13-.89-.72-1.19-1.68-3.32-.84-.77.3-.19.37-1.24.37zM8.06 19.99c-.22-1.37.12-1.06.15-2.21h-5c-.25.52-.81 3.14-.79 3.97.04 1.59 1.11 2 2.69 2.06 2.01.07 6.53.73 7.88-1.25 1-1.47 1.53-3.58 1.55-5.51.01-1.13.09-1.2-.52-1.84-.4-.42-.93-.67-1.41-.95-.52-.31-2.63-1.5-2.88-1.83-.73-.98.69-2.29 1.04-1.04.1.36-.03.38-.06.81 5.82 0 4.83.43 5.3-1.18.67-2.31.38-3.51-2.09-3.8-1.64-.19-6.36-.11-7.42.46-1.23.67-1.66 1.93-1.93 3.22-.86 4.11.11 3.8 3.93 6 .99.57 1.08 1.64.51 2.7-.28.52-.25.38-.94.38zM69.58 36.66c.08-.36.15-.41.28-.91.39-1.6.47-3.4 1.45-3.4 1.04 0 .1 2.41.01 2.8l-.92 4.08c-.16.7-.37 1.19-1.29 1.21-.08-.33-.15-.34-.15-.74l.63-3.04zm2.9-6.96c-.78-.18-1.19-1.06-3.35-.7-3.19.52-3.64 5.48-4.34 8.17-.34 1.32-.84 3.09-.71 4.47.05.59-.09.48.45.58.62.11 1.36-.15 2.12.12.73.26.44.63 1.28.79.86.16.99-.17 1.81-.05 1.06.15 3.06.2 4.22-.01.37-.23 3.58-14.94 3.73-15.67.19-.95.39-1.32.39-2.4l-4.36.01-1.23 4.7zM40.17 43.04c.71.11 1.81.33 2.2.24.39-.1-.06-.04.43-.14.2-.04.49-.05.71-.05.47.01.8.1 1.18.15.02-.91.96-4.33 1.24-5.53l.97-4.18c.18-.77.14-.67.64-1.13.54.25.28-.1.74.34-.01.86-1.62 7.54-1.91 8.5-.19.62-.1.51-.2 1.11 1.86-.15 1.76-.57 2.98.56.3.28.85.37 1.23.22.53-.21.72-2.17.88-2.91l.96-4.04c.51-1.87 2.21-7.23-1.35-7.23-1.93 0-2.06.66-2.94.74-.03-.95.25-1.79.41-2.54.6-2.75 1.19-2.17-3.64-2.17-.78 0-1.25 3.36-1.41 4.18l-2.13 9.19c-.15.71-1.02 4.22-.97 4.67zM21.73 40.29c0-.48.32-1.75.48-2.32.47-1.69.94-6.31 2.17-6.07.77.4.3 1.56.1 2.3l-1.43 5.92c-.2.54-.29.48-.57.9-.31-.21-.74-.32-.74-.74zm.93-11.28c-.84.18-1.64.08-2.56.83-1.31 1.07-2.29 7.46-2.82 9.39-.25.92-1.09 3.09.11 4.06 1.01.82 4.78.61 6.54.53 2.31-.11 3.19-1.19 3.7-3.21l.99-4.31c.15-.52.23-.81.35-1.41l.45-2.05c.29-1.07.67-2.48-.31-3.31-.68-.58-1.91-.43-3.12-.41-1.04.01-2.54-.26-3.33-.09zM28.8 43.82c5.35 0 3.46 1.12 5.21-5.82l1.07-4.52c.33-1.3 1.73-1.52 1.32-.02l-2.11 9.25c-.2.92-.31 1.11.53 1.11.59 0 .44-.42.44-1.47 1.36-.03 1.54-.68 2.3.74 1.52.06 1.15.1 1.33-.32l1.43-6.38c.58-2.54 2.58-7.42-1.68-7.42-1.28 0-1.88.8-2.79.88.03-.4.07-.4.15-.74h-2.79c-2.01 0-1.56-.84-2.29 2.56l-2.6 11.4c-.18.81-.43.31-.08.62.2.18.27.12.57.12zM83.51 31.91c.32 1.51-.21 2.5-.49 3.77l-.52 2.42c-.18.84-.55 3.3-1.51 2.68-.63-.4-.03-1.93.11-2.47l1.09-4.8c.1-.45.16-.79.34-1.13.27-.52.29-.48.99-.48zm-7.65 11.03c1.07.37 2.15.2 3.38.16 2.3-.07 1.81.65 2.84.73.11-.9-.14-1.02.39-1.5.37-.17 2.13-.12 2.57-.02.82.19.63.71 1.34-1.2l2.22-9.56c.52-2.9-2.43-2.38-3.29-2.48-1.39-.17-4.37-.18-5.41.27-1.47.63-1.93 1.94-2.27 3.61-.77 3.78-1.78 6.28-1.78 9.99zM56.89 40.59c0-1.52.29-3.09 2.06-3.09-.01.55-.28 1.36-.45 1.91-.36 1.2-.43 1.59-1.61 1.18zm-2.5-7.06c.39 0 .39-.14.86-.12l2.97.11c.24-.36.58-1.48.98-1.67.34-.17.46-.02.79.06 0 .38.04.77-.06 1.12-.27.9-1.23 1.09-2.08 1.45-1.03.43-3.32 1.31-3.95 2.08-1.54 1.85-2.14 4.24-1.31 6.39.29.09.93.16 1.22.33.77.45-.21.42.69.65.74-.88-1.25-2.13 3.73-1.73 1.28.1.84.72 1.85.88.28.05.71.03 1.06.07.78.1.45.23 1.06.39l.21-1.41c.01-.04.03-.07.04-.11.46-1.5.9-4.05 1.27-5.49.09-.35.14-.36.23-.8L65 31.04c0-.59-.4-1.25-.7-1.5-.8-.67-5.04-.5-6.06-.43-2.04.16-3.13.17-3.95 2.83-.18.57-.58 1.6.13 1.6z"/><path class="fil2" d="M43.65 20.87c-.28-1.21.32-2.69.54-3.88.15-.81.28-1.11.43-1.92.17-.9.21-1.35.95-1.41.19.24-.02-.22.21.37.3.77-1.16 6.27-1.38 6.55-.32.41-.05.27-.75.28zm-5.44 6.32c4.35 0 3.73.58 4.23-1.95l.4-1.75c.15-.32-.18-.12.22-.27.16-.01 2.52 1.95 4.42-.58.85-1.13 1.3-3.38 1.63-4.98.13-.63.96-4.04.9-4.63-.11-1.25-.5-2.24-1.8-2.37-1.41-.14-2.12.65-2.65.79-.03-.4-.07-.4-.15-.74l-3.68-.02-2.46 11.25c-.12.62-.16.53-.29 1.02-.19.74-.24 1.38-.4 2.11-.16.71-.38 1.34-.38 2.12zM74.1 23.23v.59h4.85c.24-1.03.61-2.4.83-3.44.23-1.1.64-2.4.64-3.62 1.11-.17 2-.15 3.24-.15.33-.95.74-2.76.74-3.82h-2.94c.05-.63.28-1.09.29-1.77h3.09c.21-.89.42-1.75.64-2.76.12-.56.42-.85-.08-1l-7.47-.07c-.57 0-1.02 2.83-1.19 3.67L74.8 20.1c-.05.3-.17.63-.27 1.05-.07.3-.42 1.91-.42 2.08zM83.37 21.9c0 1.23.71 2.06 2.06 2.06 1.29 0 1.58-.66 2.5-.74.01.58-.04.34.15.74h3.38c.49-.75.68-2.01.9-3.07.3-1.45 2.04-9.3 2.04-10.16-4.27.22-3.66-.86-4.33 2.29l-1.16 5.47c-.32 1.91-.35 2.39-1.43 2.39 0-2.01 1.91-8.81 1.91-9.85 0-.46-1.38-.22-2.35-.25l-1.32-.06c-.16.61-.02.02-.22.53-.1.26-.16.52-.19.69-.41 2.3-1.95 8.31-1.95 9.97zM63.66 15.29c0-1.19.18-1.28.59-2.06.59 0 .88-.08.88.44 0 2.31-1 1.66-1.47 1.62zm-1.18 8.63c1.09 0 2.19.03 3.27-.36 1.47-.54 2.18-3.49 2.18-4.88-4.62 0-3.75-.32-4.14 1.31-.14.57-.32.98-.72 1.34-.32-.08-.15-.07-.38-.21-.49-.31.31.01-.35-.23.09-.4.17-.44.26-.77.08-.32.12-.59.17-.86.1-.52.26-1.2.46-1.6h4.91l.97-4.13c.07-.71.21-1.58-.18-2.16-.22-.32-.46-.39-.86-.47-1.64-.3-5.84-.43-6.92.55-1.14 1.04-1.71 4.97-1.99 6.4-.3 1.54-.9 3.44-.83 4.57.06.98.55 1.23 1.41 1.37.49.08 2.24.14 2.75.14zM19.82 15.29c.01-.54.15-1.02.33-1.43.29-.68.24-.63 1.14-.63l-.15 2.06c-.91.02-.41.21-1.32 0zm-5.3 6.91c0 .75.15 1.21.91 1.45.53.17 1.23.18 1.89.17 2.61-.02 4.71.77 6.02-1.77.38-.73.74-2.25.74-3.38h-3.82c-.3 1.27-.3 2.56-1.32 2.65-.27-.77-.17-1.13 0-1.91.54-2.38-.31-1.77 5.44-1.77.05-.57 1.03-3.04 1.03-5.44 0-1.95-3.48-1.47-5.59-1.47-3.14 0-3.27 1.7-3.86 4.52l-1.11 5.07c-.1.64-.33 1.33-.33 1.88zM87.19 42.94c.81.33 1.07.29 2.27.2 2.61-.19 2.11 1.3 2.95-2.63l1.34-5.87c.26-1.13.15-2.21 1.33-2.24.44.61.37.51.16 1.39-.14.6-.51.99.31 1.07.9.09 3.06.14 3.75-.11.41-.28.09.12.28-.46.07-.23.07-.38.11-.63.18-1.18.54-2.89-.2-3.91-.47-.65-1.23-.89-2.28-.78-1.17.11-1.77.72-2.36.87-.02-1.37-.57-.77-1.77-.8-3.8-.09-2.28-.58-3.71 4.43l-2.16 9.46zM55.42 11.31c-.1-.87-1.03-.58-3.09-.59-1.06-.01-1.06 1.37-1.33 2.79-.12.64-.25 1.01-.38 1.68-.13.64-.2 1.13-.33 1.73-.13.6-.36 1.07-.45 1.61l-1.05 5.28c4.54 0 3.77.77 4.52-3.13.12-.62.24-.92.37-1.54.04-.21.07-.45.13-.76.09-.44.1-.27.2-.68.48-1.89.35-3.94 1.55-4.04.23 1.44.44-.29-.15 2.21.44.06 3.26.13 3.48 0 .45-.27.34-.18.51-.87.35-1.37.66-3.62-.96-4.23-1.38-.52-2.3.48-3.03.54zM94.4 23.82l1.76.05c.41 0 .41-.03.69-1.27.24-1.08 2.54-11.29 2.5-11.82l-3.33-.05c-.62 0-.93 2.3-1.16 3.25l-2.04 9.18c-.17 1.12.73.6 1.58.66z"/><path class="fil0" d="M29.1 27.93c.59.22.59.11.72.59h.44c.34-1.2 1.66-.88 3.09-.88 1.22 0 2.57-.13 3.46.22.2-.54-.01-.61.06-1.2.06-.48.22-.74.23-1.3-.93-.34-11.24-.15-12.72-.15-.66 0-.78-.13-1.21-.36-.71-.37-.52.19-3.28.36-.15.58.16.8.3 1.32.12.48.02.92.15 1.48.75-.05 1.27-.36 2.27-.37 1.66-.02 5.21-.17 6.49.3zM78.95 28.08c.69-.02 1.04-.26 1.7-.38 1.21-.21 4.81.13 6.03-.14.07-.5-.51-1.86-.74-2.21-1.82 0-3.45-.6-3.79-2.56-.18-1-.09-1.93.11-2.87.37-1.72.74-2-.51-2l-1.54 6.56c-.42 1.06-.48-.34-1.26 3.59zM113.81 9.84c-.28.08-.09-.04-.47.12-.52.22-.92.57-1.19 1.02-1.42 2.31.79 5.14 3.31 4.34 3.41-1.08 1.91-6.57-1.65-5.48z"/><path class="fil1" d="M19.9 25.21c2.75-.17 2.57-.73 3.28-.36.43.23.55.36 1.21.36 1.48 0 11.79-.2 12.72.15-.01.56-.17.81-.23 1.3-.08.59.14.67-.06 1.2-.88-.35-2.24-.22-3.46-.22-1.43 0-2.75-.31-3.09.88h-.44c-.14-.48-.13-.37-.72-.59-1.28-.47-4.83-.32-6.49-.3-1 .01-1.52.33-2.27.37-.12-.56-.02-1-.15-1.48-.13-.51-.45-.73-.3-1.32zm-1.47-.59c.48 1.16.73.32 1.14 1.95.35 1.4 0 1.2-.04 2.46.98-.22.56-.59 2.49-.82.81-.1 5.61-.14 6.31.03 1.32.31 1.27.76 2.08 1.31 1.06-1.11-.89-1.4 3.38-1.4.71 0 1.75-.15 2.34.11 1.28.57.65.02 1.86-.11-.36-.73-.66-.14-.55-1.41.07-.81.21-1.35.26-2.12-3.48 0-9.32-.17-12.49-.03-1.94.08-1.51-.25-2-.51-.89-.46-.14.34-2.06.45-.97.06-1.76.09-2.73.09zM78.95 28.08c.78-3.92.84-2.53 1.26-3.59l1.54-6.56c1.25 0 .88.27.51 2-.2.95-.29 1.87-.11 2.87.35 1.96 1.97 2.56 3.79 2.56.22.34.8 1.7.74 2.21-1.22.27-4.82-.07-6.03.14-.65.11-1.01.36-1.7.38zm-.81 1.18c2.25-.59-.66-1.08 6.84-1.1.86 0 1.9.15 2.42.15.23-.91-.74-2.5-1.03-3.68-.9.06-3.22.52-3.75-2-.17-.79.31-4.56.59-5.14-2.27-.58-2.02.45-2.26 1.44-.31 1.31-.49 2.14-.8 3.59-.7 3.28-.99 1.22-1.2 3.06-.08.72-.2 1.22-.33 1.87-.13.65-.39 1.23-.48 1.8zM63.29 43.01c-.15.64 0 2.25 0 3.16 0 2.93-.39 3.02.74 2.91.18-.77.07-1.9.07-2.76 0-.66-.11-2.39.15-2.79.25.1.39-.25.38 1.02-.02 1.15-.09 3.69.06 4.57h.66c.26-.92-.05-4.51.1-5.27.07-.32.01-.15.12-.32.33.09.44.03.44.44l-.02 5.15c1.18 0 .9.06.9-2.65 0-3.94.76-3.6-3.24-3.6-.75 0-.07-.03-.37.15zM55.49 49.04c.86.19.8-.45.79-.93 0-.42.09-.8.1-1.64 0-1 .05-2.23-.3-2.87l.81-.09-.01 5.6c.92-.07.79-.37.78-1-.01-1.26-.15-2.61-.06-3.62.08-.92-.67-.97.61-.97v5.59c.45-.04.46-.09.81-.22.18-.79-.05-2.41 0-3.59.09-2.04.53-2.39-1.69-2.38-2.2.01-1.9-.33-1.92 1.91-.01 1.19-.17 3.2.08 4.2zM36.81 47.13c1-.01.78-.33 1.69-.37v1.54c-.77-.07-.35-.07-.88-.37-.02.03-.05.07-.06.08-.38.42-.29.32-.77.43l.02-1.32zM36 49.12c1.31-.04-.04-.69 1.46-.16.68.24 1.02.24 1.77.01.22-.76.22-2.3.07-3.16-.51-.07-.63.2-1.4.29 0-1.56-.2-1.63.25-1.62.38.01.18.58 1.22.08l-.06-.66c-.53-.11-2-.26-2.31.06-.32.32.07.19.22.9.24 1.1-.26 1.23-.28 1.25-.44-.93-.23-1.82-.22-3.02-.25-.12-.3-.13-.59-.22-.46.59-.15 5.01-.15 6.25zM77.55 43.86c-.21.91-.25 4.57.08 5.26.84-.09.55-.44.59-2.05.02-.68-.15-2.19 0-2.62l.59-.04c.25 1.22-.25 3.89.15 4.71.89-.08.59-.27.59-2.35 0-1.45-.24-2.35.29-2.35.6 0 .45 1.27.44 2.06l-.07 2.65c1.05-.04.88-.27.88-1.32 0-1.69.05-2.17-.13-3.83-.7-.26-2.62-.19-3.41-.11z"/><path class="fil0" d="M21.73 40.29c0 .42.42.53.74.74.28-.42.37-.36.57-.9l1.43-5.92c.2-.74.67-1.9-.1-2.3-1.23-.25-1.71 4.37-2.17 6.07-.16.57-.48 1.83-.48 2.32zM83.51 31.91c-.7 0-.72-.04-.99.48-.18.34-.24.69-.34 1.13l-1.09 4.8c-.13.54-.73 2.06-.11 2.47.96.62 1.34-1.84 1.51-2.68l.52-2.42c.28-1.27.81-2.26.49-3.77zM68.95 39.7c0 .4.07.41.15.74.93-.02 1.13-.5 1.29-1.21l.92-4.08c.09-.39 1.03-2.8-.01-2.8-.98 0-1.06 1.8-1.45 3.4-.12.5-.19.55-.28.91l-.63 3.04z"/><path class="fil2" d="M96.31 7.34c-.74 3.17-1.17 2.5 2.94 2.5.7 0 .89-2.18.83-2.6-.83-.01-3.01-.19-3.78.1z"/><path class="fil1" d="m48.69 48.67.33.09c.57.3.23.39 1.1.38.88-.01 1.04-.27 1.04-1.19.01-.73-.07-1.47-.1-2.21-.03-.77.06-1.09.08-1.93-.27 0-.3.01-.55.05l-.48.1c.02.35.16 3.93.01 4.19-.19.32.42.17-.45.22l-.01-4.49-1.02-.07c.05.58-.09.45.44.59l-.14 1.79c-.01 0-.04-.01-.05-.01-.01 0-.05-.01-.05-.01-.01 0-.04-.02-.05-.01 0 .69-.11.97-.12 1.44 0 .33.13.67.01 1.06z"/><path class="fil1" d="M47.04 43.82c0-.68.08-.35.79-.29l-.06 4.97-.6.03-.14-1.77v-2.94zm1.47 4.85c-.13-.57-.37-4.26 0-4.85 0-.4.34-1.01-1.33-.91-.92.06-.81.35-.8 1.34.01 1.5.01 3 .01 4.5.49.53 1.3.77 2.13 1.1-.01-.49-.21-.83 0-1.18zM43.65 47.2c0 1.55.15.99-.29 1.21-.34-.19-.18.05-.29-.34-.01-.03-.19-3.38-.01-3.71.64.03.66-.12.66.62l-.07 2.21zm.88 1.03v-3.82c0-.74-.82-.59-1.47-.59-1.3 0-.73 1.93-.74 3.83-.01.87-.05 1.45.71 1.51.74.06 1.51.03 1.51-.92zM82.92 44.56l-.1 4.34c.61.08 2.17-.69 2.17-1.25v-4.71c-.97.03-.66.14-.66 2.94 0 .38-.01.82-.01 1.2-.01.87.13.65-.57.79l-.04-4.93h-.77l-.01 1.62zM68.58 46.54c-.69-.14-.54 0-.52-.95.01-.39.01-.79.01-1.18.79.07.62-.06.51 2.13zm.66 2.43c0-.48-.04-.97.03-1.44.24-1.59-.06-.65.1-2.26.06-.55-.1-.69-.14-1.16-.32-.53-1.45-.29-2.06-.29 0 1.32.14 2.63.06 3.98-.03.5-.24 1.74.55 1.23.53-.34.15-1.19.2-1.6l.66-.08-.05 1.77c.13 0 .29 0 .33-.01.26-.08.16-.05.3-.14zM39.68 44.26c.18 1.74-.11 1.31.05 2.87.61.01.71-.37 1.27-.52l.01 1.84c-.39-.21-.32-.05-.45-.52-.96.08-.88.31-.88 1.03 2.81.33 2.39.11 2.26-3.16-.63-.03-.7.19-1.38.29 0-.39-.1-1.17.08-1.49.27-.47.3-.07.33-.06.07.03-.11.14.47.3l.18-.13c.04-.04.12.16.33-.61-.55-.45-1.2-.29-2.28-.29v.44zM90.06 44.34c.25 0 .66.01.66.51l-.03 3.1c-.15.6-.13.45-.7.5v-3.74c.03-.36.04-.27.07-.37zm-.66 4.63c2.38.7 1.92-.73 1.91-2.21 0-.95.18-2.06 0-2.8-.71-.21-.82-.15-1.62-.15-.49 0-.44.53-.46 1.02-.07 1.42-.3 3.16.17 4.13zM86.67 48.9c.73.04 1.9-.71 2.21-1.18v-3.83c-1.29-.29-.79.29-.8 3.03 0 .86.03.85-.53 1.02l-.08-4.12-.95.04c.4.97-.08 3.99.15 5.04z"/><path class="fil0" d="M43.65 20.87c.7-.02.43.13.75-.28.22-.28 1.68-5.79 1.38-6.55-.23-.59-.02-.13-.21-.37-.74.06-.78.51-.95 1.41-.15.81-.28 1.11-.43 1.92-.22 1.19-.82 2.67-.54 3.88z"/><path class="fil1" d="M69.83 48.53c.04.43 0 .3.15.59.81-.1.49-.17.58-2.06.04-.95-.13-1.77-.13-2.65.89-.04.92-.34.79 2.35-.11 2.24-.18 2.33.68 2.35 0-.85.23-4.63-.22-5.08-.29-.34-1.36-.34-1.8-.07l-.04 4.56zM51.37 47.94l.22 1.03c.65.19 1.79.43 1.99-.37-.43-.29-.58-.22-1.25-.22l-.09-1.76c.68-.13.79-.2 1.04-.74-.36-.25-.43-.11-.96-.07v-1.4l1.33-.13c-.13-.36.08-.17-.25-.36-.38-.22-1.62-.12-2.03-.03v4.05zM74.99 48.97c.56.05 1.37.35 1.91 0 .37-.24.15.1.28-.44l-1.32-.13-.02-1.78c.54-.12.91-.22.83-.81-.29-.17-.33-.08-.81 0v-1.4c1.65-.04 1.24-.21 1.4-.52l-2.35-.09.08 5.17zM59.54 49.12c.78.06 1.76.3 1.84-.33.06-.51-.27-.32-.66-.38-.62-.1-.48.22-.6-.45-.02-.13.01-.99.01-1.2.21-.18-.02-.01.27-.16.11-.06.19-.08.29-.15.45-.3.18.06.39-.57-.31-.22-.63-.1-.96 0 0-.94-.18-1.21.2-1.44.69-.41.79.52 1.08-.48-.41-.25-.74-.15-1.58-.15-.74 0-.44.1-.43 2.35 0 1.11.09 1.99.14 2.94zM72.19 43.97c.17.43.25.26.88.59l.01 4.49c1.1.21.86-.08.85-1.84l-.02-2.79.99-.37c-.43-.09-.25-.22-1.24-.23-.29 0-1.36.02-1.48.16zM85.35 43.84c-.12.91-.08 4.26.15 5.2 1.02.26.91-.3.77-2.22-.09-1.11.04-1.98.04-3l-.96.02zM16.83 32.84c-.4-.29-.26-.3-.83-.34.09-.35-.04-.17.26-.34.45-.25.96-.04 1.32.19l-.19.66c-.63-.24-.13.15-.57-.17zm-2.82-1.22c.51 1 2.91 1.09 3.31 2.5h.3c.07-.8.35-1.08.51-2.58-.54-.11-1.25-.05-1.87-.01-.35.02-.79.02-1.14.01-.52-.02-.72-.11-1.11.08z"/><path class="fil0" d="M56.89 40.59c1.18.41 1.25.02 1.61-1.18.16-.55.44-1.36.45-1.91-1.77 0-2.06 1.57-2.06 3.09zM47.04 43.82v2.94l.14 1.77.6-.03.06-4.97c-.72-.05-.79-.39-.79.29z"/><path class="fil1" d="M12.54 13.15c.44.6.71.43 1.36.86.47.32.53.65 1.37.98 0-.81.25-1.2.22-1.84-.57-.12-2.67-.21-2.94 0z"/><path class="fil0" d="M90.06 44.34c-.03.1-.04.01-.07.37v3.74c.58-.05.56.1.7-.5l.03-3.1c0-.5-.41-.52-.66-.51zM43.36 48.42c.44-.23.29.34.29-1.21l.07-2.21c0-.74-.02-.59-.66-.62-.18.33 0 3.68.01 3.71.11.38-.06.15.29.34zM69.25 44.12c.04.47.19.61.14 1.16-.16 1.6.14.67-.1 2.26-.07.47-.03.96-.03 1.44h.44c0-.78 0-.22.15-.44l.04-4.56-.62.15zM63.66 15.29c.47.04 1.47.69 1.47-1.62 0-.52-.29-.44-.88-.44-.41.78-.59.87-.59 2.06z"/><path class="fil1" d="M40.05 28.3c.51.3.79.22 1.22.7.4.45.5.85.91 1.14l.39-2.2c-.46.04-.76.15-1.27.12-.18-.01-.42-.07-.6-.06-.9.09-.34-.02-.66.3z"/><path class="fil0" d="M19.82 15.29c.91.21.41.02 1.32 0l.15-2.06c-.9 0-.84-.06-1.14.63-.18.42-.32.9-.33 1.43zM48.51 48.68h.18c.12-.39-.01-.73-.01-1.06 0-.47.12-.75.12-1.44.02-.01.05.01.05.01.01 0 .05.01.05.01.01 0 .04.01.05.01l.14-1.79c-.53-.14-.39-.01-.44-.59h-.15c-.37.59-.13 4.29 0 4.85zM36.81 47.13l-.02 1.32c.47-.11.38-.01.77-.43.01-.02.04-.06.06-.08.53.29.11.3.88.37v-1.54c-.91.04-.69.36-1.69.37z"/><path class="fil1" d="M12.62 24.26c.72-.07 1.03-.18 1.77 0-.11-.49-.32-.76-.51-1.18-.5.25-1.05.54-1.25 1.18z"/><path class="fil0" d="M68.58 46.54c.11-2.2.28-2.07-.51-2.13 0 .39 0 .79-.01 1.18-.02.95-.17.81.52.95zM16 32.49c.57.05.43.05.83.34.43.32-.06-.07.57.17l.19-.66c-.36-.24-.87-.44-1.32-.19-.3.17-.17-.01-.26.34z"/></g></g></svg>