<svg xmlns="http://www.w3.org/2000/svg" xml:space="preserve" width="80" height="96" style="shape-rendering:geometricPrecision;text-rendering:geometricPrecision;image-rendering:optimizeQuality;fill-rule:evenodd;clip-rule:evenodd" viewBox="0 0 27.59 33.11"><path d="m23.4 24.72-.38.05c.16-.96.82-1.53 1.1-2.47.27-1.2-.26-1.84-1.16-2.57-.36-.29-1.07-.39-1.47-.47.41-.73 1.22-1.4 1.37-2.04.36-2.15.33-2.77-1.38-4.12-.35-.28-.36-.27-.69-.46-.72-.55-1.17-.42-1.5-.92 1.86-.13 4.09-.66 2.67-2.81-.61-.93-1.19-.88-2.73-.76l-.93.05-.05-.3c.4-.38 1.45-2.29 1.87-3.01.87-1.5 2.18-1.51 1.79-2.97C21.61.8 19.9-.01 18.55.95c-.84.6-.75 1.96-2.73 2.51-.71-1.35.15-3.2-2-3.45-1.99-.23-2.44 1.08-2.58 2.1-.08.6-.23.76-.38 1.32C8.45 2.42 9.33-.32 6.33.47c-.96.25-.88.58-1.35 1.04-.1 1.89.27 1.24.77 2.35.47.24.84 1.54 1.07 2.11.33.79.59 1.62 1.06 2.24-.54.37-1.78.24-2.88 2.43-1.7 3.37-1.41 8.33 4.28 9.38l1.51.01-.78 2.7-.38-.48c-.05-.08-.12-.28-.2-.42-.43-.81-1.24-1.51-2.28-1.81-2.2-.64-7.03 2.6-6.51 4.4.27.94 1.43 2.19 3.41.92-1.42 2.71-4.36 3.81-4.05 5.4.11.58.85 1.46 1.19 1.7 1.78 1.3 2.43.29 4.62-.23.95-.23 2.04-.36 2.93-.04.83.3 1.23 1.01 2.09.16.51-.97-.36-1.84-.67-2.51.77-.3 2.34-.97 3.26-1.04-.02 1.42-.02 3.47 1.07 4.01 1.93.71 2.69-1.63 2.9-3.08 1.59.39 1.09.37 2.62-.23.71-.28 1.65-.61 2.35-.75.16 1.27-.19 4.17 1.68 4.18 2.73.01 2.06-4.89 3.24-6.24 1.33-2.51-2.41-3.94-3.91-1.96z" style="fill:#000"/><path d="M16.53 7.29c-.12 1.12.35.97 1.14.42.56-.9 1.08-1.82 1.67-2.8 1.55-2.58 2.12-1.52 1.89-2.78-.11-.59-.67-.88-1.4-.81-1.01.11-.84.5-1.18 1.21-.25.53.01.17-.63.57-1.39.86-2.26 2.14-3.14.03-.39-.94-.01-.69-.1-1.65-.7-1.06-2.24-.99-2.47.3-.17.92-.39 1.98-1.16 2.86-.74-.13-.86-.57-1.36-1.03-.92-.85-1.16-.69-1.34-1.25-.23-.72-.21-1.34-1.41-1.23-1 .09-1.18.74-1.19 1.6 1.49 1.23.64-.02 1.78 2.63.26.6.94 3.3 1.99 2.41.48-.82-1-2.75-1.24-3.67 1.07.19 1.69 1.58 3.1 1.63 1.1-.61 1.05-1.61 1.92-2.4.57.52.94 1.83 1.78 2.05 1.09.29 1.88-.93 3.18-.99-.46.87-1.3 1.95-1.82 2.88z" style="fill:#fc0"/><path d="M11.83 12.68c.31 1.48-.41 4.43-1.8 5.1-.56.27-.8.16-1.21-.1-.83-.53-1-1.85-1.04-2.69-.16-3 1.39-3.37 1.59-4.62l1.11.23c.42.2.09-.06.56.36.19.17.26.28.36.44.27.44.34.81.43 1.29zm7.15 2.15c.71.03 1.71.86 1.83 1.47-.71.61-2.46 1.08-3.88.77-1.54-.29-1.21-.72-2.1-1.31-.04-1.46.25-1.18-.56-1.44l.04-1.1c.81.42 4.6 1.54 4.68 1.62zm-2.33-3-.04-.18c.6-.12 4.5-.78 4.67-.85.58-.87.3-1.52-.37-1.89-.73-.22-1.67.05-2.46.1-2.46.41-3.75.47-4.48 2.41-.28-.35-.59-.78-.92-1.08-.44-.4-.69-.41-1.11-.75-.93-.17-1.46-.31-2.32.15.12.32-.4.31.66.39l-.92.08c-.07-.71-.96-1.04-2.06-.92-1.2.99-1.86 2.44-2.06 3.8-.33 2.21.41 5.78 3.24 6.1 1.49.17 2.48.18 3.64-.8.68-.57 1.22-1.43 1.5-2.02.21.17.26-.02.33.34.35 2.01 1.88 2.77 4.58 2.75 1.97-.07 2.96-.84 3.58-2.09.45-1.73.18-2.67-1.24-3.85-.37-.3-3.73-1.66-4.2-1.68z" style="fill:#fff"/><path d="M22.83 20.43c-.66-.28-.92-.4-1.82-.4-.03.04-.07.06-.08.13l-.81 2.35h-.05l-.9 1.97-.04.13c-.27.63-.84 1.98-1.43 2.47-.23.2-.11.09-.37.26.07-.36 1.66-2.91-1.46-2.81-.48.43-.42.33-.75.84l-2.48.34c.51-1.44 2.76-3.63 1.47-5.01l.01-.12c-.77-.38-.92-.56-2.11-.55-.33.42-.35.95-.54 1.6l-.05.13c-.42 1.13-.87 2.1-1.38 3.13-.67 1.35-2.73 3.64-.74 4.29 1.02.33 2.37-.94 5.18-1.41.02 1.27-.39 3.78.68 4.47 1.49-.26 1.77-3.29 2.05-4.88l.15.39c.92 3.1 1.98.63 6.11.03.01 1.42-.41 3.69.7 4.47 1.45-.33 1.52-2.55 1.8-4.06v-.16l.55-1.54c.79-1.33-.45-2.19-1.97-1.78l-.45.66-2.5.34.51-1.04.02.01c.6-.91 1.85-2.73 1.22-3.69-.17-.25-.37-.29-.52-.55zM6.92 22.9c-.23.97-1.99 2.99-2.63 3.77-.99 1.2-2.04 2.52-3.25 3.31-.11 1.01.36 1.51.99 2.01 1.04.82 1.26.34 2.43-.06 2.72-.93 3.56-.74 5.86.1-.15-2.12-2.27-2.8-4.99-2.87.16-.45 1.26-1.44 1.77-2.06.57-.7 1.22-1.48 1.68-2.34 1.15-2.14-.97-4.62-3.16-3.91-1.17.38-4.66 2.45-3.84 3.73.87 1.35 1.62.38 2.42-.2.52-.38 1.84-1.43 2.7-1.48z" style="fill:red"/></svg>