<svg xmlns="http://www.w3.org/2000/svg" xml:space="preserve" width="128" height="64" style="shape-rendering:geometricPrecision;text-rendering:geometricPrecision;image-rendering:optimizeQuality;fill-rule:evenodd;clip-rule:evenodd" viewBox="0 0 107.48 53.74"><defs><style>.fil1{fill:#fefefe}.fil4{fill:red}.fil2{fill:#ffb71f}</style></defs><g id="Camada_x0020_1"><g id="_2484036128384"><path d="m70.29 14.3-1.17.81c-1.27-.27-5.61-.05-7.04 0-3.53.12-7.18.34-10.69.35-1.18 0-2.35-.12-3.55-.15-5.3-.11-10.72-.09-16.03-.03-3.77.03-7.52.04-11.29.04-1.17-.01-1.77-.2-3.14-.2 0-4.33-1.29-2.51-2.88-3.41-1.68-.95-3.74-.73-4.2-.32l-.39.59c-1.71 0-6.13-2.49-8.46 1.37C.73 14.54.3 15.07.08 17.87c-.5 6.39 1.55 9.71 8.25 9.8 3.94.06 4.41-.41 7.37-1.69 2.35-1.02.33-1.46 3.06-1.46.22 2.69 4.13 2.74 2.82 3.57l-4 1.73c-.44.6.13.32-.79.39v-.39c-1.68-1.12-.56-1.17-3.74-1.18-6-.02-4.72.55-5.08 3.17L4.98 52.56c.6.25.05.08.98 0 0 .8.07.63-.2 1.18 3.6 0 2.34-.15 5.31-.39l1.28-8.72 2.65-.89c0 2.61-1.18 5.53-1.18 8.83h.79v1.18c2.47 0 6.6-.95 8.08-.99 2.13-.06 1.68 1.6 4.65.13l8.53-.31c.02-.93-.01-.78.59-1.18v1.18c7.72-.3 5.26 1.01 5.9-6.67.8.42 1.77.96 2.95.39-.03 1.39-.67 2.94-.79 4.31h1.18v1.37c2.02-.17 3.94-.4 5.97-.39 1.73.01 3.64-.03 4.93-1.35.33-.34.5-.52.9-.81.39.28.86.92 1.35 1.31 2.06 1.66 4.94 1.24 7.18.19.53-.25.92-.44 1.51-.51v.78h6.1c.24-.46.34-.51.39-1.18l.2.98c3.13 0 5.73 1.08 5.9-.98 2.18.51 2.69 1.65 7.37.66.44-.09 7 .12 8.37.12.24-.46.34-.51.39-1.18h.79c-.1.45-.15.45-.2.98h5.9c.76-.04.96-.2 1.77-.2 0-7.44.79-14.1.79-21.57h-1.38v-.78c-1.16.03-9.05-.08-9.58.45-1.03 1.04.13-.28-.85 2.49-.63-.15-1.07-.35-1.38-.98l-1.97-1.18c1.35-2 1.87-.8 2.63-3.85.48-1.93 4.16-.47 8.7-6.43 2.09-2.74.13-2.66 4.21-4.43 1.4-.6 1.77-.81 1.77-2.74l-1.77-1.18c-2.04-.17-.71-.32-4.14-.2-.77.03-2.69.9-2.94-2.15 2.56-.29 4.16-1.37 2.79-4.1-.54-1.07-2.38-3.2-3.55-3.52-.51-.14-.91-.06-1.4.11-.7.28-.93.89-1.7.95l-1.71-.25c-1.98-.27-.78-.25-1.87-.68-3.2-.84-10.6-.12-13.75 1.11-3.64 1.51-6.36 4.74-7.38 8.54-.43 1.62.22 2.14.23 3.7l.01.59zm-46.66 2.2c-.96-.11-1.19.1-1.95.17l-4.12-.19c-1.09 0-.86 2.06.17 2.13l3.76-.36c1.1 0 1.64.46 2.48.73.89.28 3.46-.72 5.61-1.25 1.17-.29 1.97-.68 3.19-.92-.81-.45-7.55-.25-9.15-.31z" style="fill:#000"/><path class="fil1" d="M40.59 24.72c1.22-.03 2.18-1.13 3.17-1.94.57-.47.31-.54 1.16-.61-.22.81-3.13 3.39-3.89 4.16-1.15 1.16-5.55 6.57-5.55 8 0 .47-.15 1.96.59 1.96 1.6 0 3.55-3.43 4.25-4.59.34-.58 3.21-6.61 3.5-4.68.09.6-2.22 2.98-3.25 5.52-.47 1.15-.83 1.87-1.21 3.31-.63 2.42-.93 5.27.25 7.5 2.55.18 2.19-2.34 2.41-4.07l1.01-5.46c.69-2.76.61-2.8 1.69-2.82-.03 1.24-1.06 3.42-1.38 4.7-.49 1.92-1.75 8.25.6 9.81 1.59-.37 2.05-2.78 2.58-4.09.98-2.41 3.2-6.31 4.71-8.63 1.86-2.85 3.49-5.19 5.93-7.62 1.23-1.23 2.15-2.08 3.52-3.16.99-.78 2.61-2.28 4.16-2.51 2.43-.38 1.02.76 3.13-1.99.32-.42.5-.56.55-1.21-1.93 0-3.1.21-4.93.2l-5.11-.2c-3.18 0-4.48-.07-7.65.81-2.86.79-.67-.25-3.37 1.16-.35.18-.65.3-1.05.52-1.59.88-6.33 3.66-5.84 5.95zM95.68 41.78c.2-.84 1.84-6.93 2.56-7.45-.04 1.69-.79 5.68-.79 7.45h-1.77zm-.79-12.75c-.09 1.02-1.2 3.89-1.55 4.93-.58 1.74-1.13 3.19-1.72 4.95-.55 1.65-1.09 3.33-1.67 5-.34.97-1.53 4.12-1.55 5.13l4.6-.12c1.08-.16.8.17 1.13-.64.13-.33.73-2.56.76-2.96h1.97c0 2.37-.91 3.31.19 3.53l5.13-.19c0-5.82.79-13.83.79-19.81h-5.12c-1.31 0-1.7.2-2.95.2zM74.24 38.05c0-1.52.48-2.75.59-4.12 1.69 0 1.4.67 1.13 2.1-.22 1.17-.19 1.98-1.72 2.01zm-4.13-6.67-2.35 13.74c-.23 1.26-.77 3.49-.8 4.7l5.11-.24c.11-1.27.52-2.96.75-4.31.13-.79.29-1.6.38-2.17.18-1.2.02-1.9 1.04-1.9 1.26 0 .31 2.88.05 4.37-.14.79-.19 1.22-.33 2.02-.14.78-.31 1.2-.31 2.05l4.72-.2c.03-1.19.3-.51-.12-1.44-1.15-2.55.06-3.79.12-6.21h1.18c-.03-1.22-.62-1.87-1.77-1.96.52-.71.44-.16 1.97-1.18 0-1.63-.56-2.5.17-4.93.23-.77.65-1.39.42-1.94-.7-.29-1.94.39-2.95.39-1.68 0-2-.74-2.95-1.37-1.19.27-2.85.58-4.33.59zM95.28 9.62c.4.6.25.57 1.18.59v.98c-1.56.36-2.79 1.86-3.29 2.05-.55.2-1.03-.12-1.03-.48 0-1.44 1.45-1.55 1.77-2.75h-1.97c-.48 1-.03 1.8-1.38 2.16.81-1.52.73-1.09.39-1.76-2.56 1.7-5.76 5.76-8.99 7.32-2.54 1.23-.78 2.03.86 2.94 2.66 1.48 6.65 2.49 9.7 2.49 1.65 0 6.48-3.21 7.08-4.12-.56-.37-.58-.46-1.31-.85-5.97-3.17-2.26-4.83-1.84-4.83.69 0 .65.16 1.38.2 1.11-2.08 1.57-.85 1.57-1.96 0-.73-.77-.58-1.33-1.23-.38-.43-.61-1.52-1.23-1.52-.81 0-1.25.29-1.57.79z"/><path class="fil1" d="M21.51 21.77c.1-1.24.7-.52.12-1.11-.14-.14-3.15-1.64-4.06-1.64-.75 0-.07-.06-.59.2.82 1.23 1.62.91 2.84 1.68.69.43.48.12.5 1.06-1.06-.56-1.82-1.54-3.34-1.57.02.92.16.78.33 1.43.2.73.16.91.45 1.51l5.31.2c.91.03 1.86-.04 2.77-.01l10.62.59c1.04.03 1.49.2 2.75.2.56-.83 1-1.64 1.65-2.47 2.03-2.6 6.44-4.3 7.06-4.73.51-.29.98-.35 1.52-.54-1.28 0-3.54.09-4.58.23-1.22.16-2.81.05-4.08.05-6.72 0-7.79.5-13.8 2.33-.88.27-2.16.62-2.89 1.04-.49.29-.7.47-1.22.75s-.86.51-1.38.78z"/><path class="fil2" d="M12.26 33.34c.34-.64.98-.48 1.07.55.06.62-.36 4.22-.94 4.72-1.42 1.23-.72-1.46-.64-2.02.08-.52.38-3 .51-3.25zm87.85-15.2c.59-.39 1.56-2.31 1.67-3.04-3.31.21-2.15.19-5.12-.59-.63 1.17.17 1.47 1.01 2.14.73.58 1.4 1.24 2.43 1.49zm-2.07-4.31c.69 1.34 2.86.72 4.33.3.93-.26 3.12-.92 3.63-1.77-.74-1.51-2.83-1.13-4.63-.97-1.17.1-1.13.6-1.72 1.21-.46.47-1.14.82-1.62 1.23zm-46.03 25.4.97.19c.29 1.31-.18 2.73-.48 4.24-.23 1.16-.42 2.12-1.84 2.13L52 39.23zm1.76-9.32c.68 1.21.98-.28.98 1.86 0 1.19-.44 3.78-1.67 3.63-.6-.89.32-3.37.39-4.71l-.42.33c-.03.03-.08.07-.12.11l-5.8 10.3-1.63 8.59c1.43.16 4.9-.08 6.44-.24 4.64-.48 4.31-3.63 5.15-8.22.17-.95.49-2 .32-2.81-.23-1.11-1.05-1.29-1.68-1.87 1.31-.4 2.03-1.12 2.48-2.42.7-2.02 1.96-7.85-1.59-7.98-.58.58-.83.96-1.42 1.62-.56.62-.8 1.22-1.43 1.81zM27.6 33.73c.6.03 1.17-.03 1.77.01.58.05 1.32.38 1.57.38.98 0 2.75-1.3 3.05-1.86-.14.55-.5.8-.79 1.57.91-.07.38-.02.91-.26l.37-.21c.94-.45 1.05-.15 1.23-1.2-.6-.6-4.47-1.37-5.36-1.37-.93 0-.42.15-1.52 1.23-.62.61-1.01.78-1.23 1.71zm-2.26-.59c1.87-.2 3.9-1.7 4.14-2.44.01-.03.02-.1.02-.13l-.03-.28c-.93-.29-.72-.08-2.23 1.12-.77.61-1.41.73-1.9 1.73zm-7.97-1.47c.19.96.35 1.31 1.5 1.25.86-.04 1.75-.18 2.45-.55 1.25-.67 2.21-1.95 3.63-2.47-.35.89-1.65 1.77-2.56 2.36-.76.49-.7.11-.68 1.07 1.61-.16 2.47-.15 3.5-1.22.71-.73 1.94-1.43 2.36-2.31-.56-.37-3.43-1.73-3.98-1.76-2.37 2.51-4.75 2.2-6.2 3.63zm-6.49 11.08c2.62-.17 3.99-1.02 4.66-3.2.38-1.24 1.04-5.18 1.04-6.6 0-3.81-.92-4.1-5.29-3.66-1.25.13-1.63-.01-2.09.42-.44.41-.9 4.64-1 5.44-.36 2.88-2.5 16.06-2.34 16.91.96.06 2.92-.09 3.7-.4l1.31-8.92z"/><path class="fil1" d="M25.64 48.25c0-1.24 1.05-7.35 1.32-9.08.19-1.22.05-2 1.24-2.1.29 1.23-.2 2.24-.2 3.73 1.19-.03 2.65-.39 3.94-.39.24-1.01.39-2.08.39-3.33 0-3.63-5.79-3.75-8.08-.79-1.63 2.11-2.08 7.77-2.47 10.48-.95 6.65 4.11 5.89 5.69 3.52.37.86-.46.92 1.9.92l1.78-6.65c.6-2.13.93-2.6-.28-2.49-1.38.13-2.54.31-3.86.31-.02.87-.32 1.72-.39 2.55h.79c-.05.65-.29 2.13-.47 2.87-.2.84-1.3 1.98-1.3.47z"/><path d="M22.69 38.25c.06-.7.2-.94.46-1.5.26-.58.3-.98.52-1.44-2.43 0-4.27.39-6.49.39-.05 2.24-2.36 13.2-2.36 16.08l4.92-.39c.88-.04.71-.18 1.58-.19-.12-.53-.19-2.33-.35-2.6-.39-.62-1.11-.11-1.81.05-.3-1.3.26-3.79.39-3.92.78-.38 1.18-.02 1.97-.39.11-.24.45-1.8.39-2.16-.16-1.04-.56-.38-1.57-.38-.77 0-.14-1.4-.09-1.66.3-1.53-.49-1.87 2.45-1.87zm48.79-26.28c0 1.13 3.45-.44 3.62-.51 2.77-1.04 2.56-1.85 3.56-.18 1.31 2.19-.02 2.19-1.7 2.81-2.62.98-4.74.87-5.93 1.34-1.43.56-1.67 2.19-2.79 3.49-1.62 1.88-2.72.04-6.79 3.43l-.99.98c.93 0 1.26-.17 2.36-.2.78-.02 1.57-.14 2.09-.47.87-.55.38-.83 2.96-2.15 2.05-1.05 2.23-.64 4.09-1.02 2.44-.5 1.77-.52 4.64-.67 3.54-.18 7.03-2.43 9.26-5.09l2.67-2.44c.4-.35.39-.31.66-.72-.37-.09-.67-.16-1.07-.31-1.61-.6-.38-1-3.39.78-1.01.6-2.8 1.59-4.01 1.69-.55-.82-.98-1.56-.98-2.94.86-.07 3.92-1.52 4.99-2.1 1.61-.86-.76-1.99 2.34-4.52 1.32-1.07 2.72-.84 3.29-1.62-1.26 0-1.62-.2-2.75-.2-6.43 0-11.37.9-14.44 5.61-.92 1.42-1.69 2.74-1.69 4.98zm8.66 24.32c0 3.98 5.51 4.81 5.51 6.67 0 1.89-.07 1.97-.98 3.33h-1.38c-.3-1.29.1-2.66.39-3.92h-4.53c-.67 1.39-.59 2.82-.59 4.31 0 2.18 3.17 2.75 4.92 2.75 1.88 0 2.59-.67 3.93-.78.06-.76.51-1.55.86-2.68l.25-.73c1.95-6.23 2.56-5.15-.22-7.29l-1.38-.98c-.35-.23-.53-.3-.87-.51-1.76-1.09-.74-3.15-.35-3.63.61-.73 1.69-.34 1.69.13 0 1.12-.31 1.4-.39 2.35.69.15 2.69.14 3.95.01 1.15-.12 1.17-1.52 1.17-3.35 0-1.77-2.24-2.55-3.74-2.55-.59 0-1.45.6-2.7 1.04-3.7 1.3-3.71-.09-4.88 2.59-.26.6-.68 2.46-.68 3.24zm-17.9 10.79c-.93 0-.54-1.15-.46-1.62l1.64-9.17c.26-1.61.3-2.35 1.97-1.96 0 1.5-.82 5.11-1.1 6.75-.21 1.24-.35 2.14-.59 3.33-.37 1.84-.15 2.66-1.46 2.66zm-1.38 2.94c2.23 0 3.39-.5 4.85-1.44 1.43-.92 1.16-2.12 1.59-4.69.25-1.52 1.83-9.79 1.83-10.93 0-1.74-5.04-2.45-8.18.08-1.78 1.43-2.35 4.07-2.66 6.37-.15 1.11-.45 2.15-.56 3.17-.14 1.32-.74 4.07-.42 5.09.51 1.6 1.98 2.35 3.55 2.35zm-24.61-9.04c.24-.85.26-2.38 1-2.92.24 1.01-.36 5.56-.39 6.86h-1.57v-.78l.96-3.16zM30.17 51l3.93-.2c.18-.77.57-2.15.59-2.94.07-.02.44-.09.44-.09 2.32-.39.88 1.11 1.33 3.04 4.51 0 3.74 1.2 3.74-6.67-3.3-.07-1.6-7.44-1.57-8.43-.44.12-.2.05-.5.28-.89.69-.53.89-2.25.89-1.05 0-1.18-1.16-1.18-1.96l-3.99 13.87c-.15.45-.5 1.79-.54 2.21z" style="fill:#223d99"/><path class="fil4" d="M76.79 31.58c2.77 0 10.45-1.73 12.65-3.87.47-.45.83-.81 1.28-1.28.53-.56.83-.86.83-1.92-1.32.11-1.88 1.28-2.7 2.01-.7.61-2.5 1.49-3.4 1.12.7-.96 4.92-.75 4.92-4.31l-4.13-.2c-.88 1.65-1.63 2.96-3.59 3.28l-9.44.79c-.32.03-2.41-.19-.43 1.31 1.04.79 2.65 3.05 4.02 3.05z"/><path class="fil1" d="M36.07 31.38c3.18-4.74 6.24-5.28-.59-5.3-2.1-.01-3.89-.6-5.9-.59-2.79.01-11.02-1.35-8.94.04l10.27 4.52c1.18.49 3.8 1.3 5.16 1.33z"/><path class="fil4" d="M73.84 25.5c-3.92 0-5.94-.59-8.66-.59.08.99 2.23 3.84 2.92 4.74 1.08 1.41 1.37 1.32 4.41.99 1.03-.11 1.69.06.92-.77-.72-.78-2.05-1.57-2.15-2.8 2.38 0 4.67-.51 7.08-.59 1.92-.06 5.11-.01 6.34-1.53 2.17-2.7-1.26-.52-3.79-.25-1.17.13-2.44.22-3.53.41-1.16.2-2.18.39-3.54.39z"/><path class="fil1" d="M61.84 23.93c-1.62 0-1.3-.5-2.23.11-.07.05-.3.23-.34.26-.56.44-.7.58-.77 1.39.57-.05 1.05-.22 1.65-.32.76-.13 1.34-.02 2.09-.08 3.32-.24-.46-1.79 7-.69 1.75.26 6.73.76 8.35-.09-.62-1.68-1.85-1.23-4.16-3.11-.25-.2-1.15-1.21-1.35-1.21-4 0-5.54 3.73-10.23 3.73zM87.81 6.48c0-3.17 7.87-4.5 7.87-.39 0 2.61-7.87 3.87-7.87.39zm1.57 3.33c2.24 0 3.74-.08 5.68-.81.65-.24 1.24-.52 1.76-.99 2.2-2.04.88-5.65-4.68-5.65-2.17 0-4.98 1.45-5.78 2.87-1.32 2.33.64 4.58 3.02 4.58z"/><path class="fil4" d="M73.64 20.21c.31.85 2.7 2.41 3.49 3 2.68 2.01 2.73 1.11 4.97.93-.6-.89-.83-.43-1.38-1.18 1.74.04 1.46 1.57 4.33.2-.22-.61.04-.24-.58-.6l-2.31-1.22c-4.51-2.67-1.28-1.96-5.57-1.51-.95.1-2.06.32-2.95.39z"/><path class="fil1" d="M58.89 26.48c.26 1.11.73 1.24 1.18 1.76.88 1.01.78 2.09.78 3.35 1.51 0 2.58-.8 4.16-.96 2.41-.23 3.05.48 1.34-1.97-2.71-3.89-1.25-2.17-7.46-2.17z"/><path d="M93.12 4.32c-5.19 0-5.45 3.62-2.17 3.61 5.06-.01 4.51-3.61 2.17-3.61z" style="fill:#66e2f5"/><path class="fil1" d="M71.68 13.93v.59c1.94 0 4.61-.8 6.3-1.37 0-.94-.13-.82-.2-1.57-1.13 0-3.39 1.03-4.86 1.43-.63.17-1.24.18-1.24.92zM96.46 1.77c.09 1.12 1.05 1.59 1.58 2.35.97 1.36.19 2.56 1.37 2.56 1.15 0 1.31-1.74.06-3.4-.59-.79-1.99-2.51-3.01-1.51zM80.73 10.4c.19.82.38.97.98 1.37.9-.34 3.4-2.09 4.53-2.35-.08-1.01-.15-.27-.39-1.18-.77.02-4.45 1.71-5.12 2.16zM22.89 20.6h.39c.75-1.42.15-1.01-1.77-1.57-.58-.17-.61-.26-1.18-.39.07.82.28.86.9 1.26.47.31.99.7 1.66.7zM92.92 12.56c.67-.44 1.96-1.16 2.36-1.77-.82-.46-1.22-.13-1.83.53-.38.42-.48.55-.53 1.23z"/><path d="M1.51 18.27c0 2.98-.48 5.69 1.63 6.81 4.16 2.2 7.07.84 10.37.84v-.59c-1.41 0-2.17.2-3.34.2v-.59c2.78-.73 4.82 1.03 5.31-.79-.68-.92-5.32-1.37-6.3-1.37-1.66 0-3.1.39-5.51.39-.75 0-.07.06-.59-.2.18-.68.13-.53.85-.72 4.95-1.31 6.04 1.1 5.02-2.59-.75-2.73-.13-4.44.03-6.31-1.95-.45-7.48-2.97-7.48 4.9zm4.79-1.58 1.41-.4c-.88 3.05-2.35 4.02-4.98 5.6l1.05-2.44-.89.06c.05-1.63 1.21-3.98 1.79-5.83l3.36-.19c-.46 1.82-.88 1.74-1.75 3.19zm3.27-1.95.28 4.62c.24 1.11.31.27.31 2.04 4.77-.25 3.71-.57 5 .9.47.53.6.87 1.3 1.06 0-3.82-.2-2-.49-3.22-.22-.92.1-.03.1-1.1 0-.53-.32.25-.25-.85.4-6.05-.54-4.6-1.74-5.01-1.77-.6-2.3-1.87-4.04.63-.21.31-.46.5-.46.92z" style="fill:#461f13"/><path class="fil2" d="M4.98 14.08c-.26.82-1.66 4.48-1.67 5.02.7-.01.54-.23 1.28-.46-.22.88-.91 1.44-1.18 2.37 1.72-1.04 3.23-2.43 3.74-4.2-.75.16-.82.39-1.57.55.29-1.11 1.7-2.41 1.97-3.47-.98 0-1.46.18-2.56.18z"/></g></g></svg>