<svg xmlns="http://www.w3.org/2000/svg" xml:space="preserve" width="128" height="64.128" style="shape-rendering:geometricPrecision;text-rendering:geometricPrecision;image-rendering:optimizeQuality;fill-rule:evenodd;clip-rule:evenodd" viewBox="0 0 100.43 50.32"><defs><style>.fil2{fill:#fff}</style></defs><g id="Camada_x0020_1"><g id="_2485695279024"><path d="M100.43 16.88c-.05 1.94-.26 2.96-1.95 4.27-2.68 1.37-6.74 12.88-7.75 15.38-1.99 4.56-3.62 5.1-6.4 6.79-.53.15-.85 1.01-1.25 1.61-1.28 1.92-3.23 4.05-5.13 4.83-4.05 1.68-10.52-.74-11.89-5.07-.93.27-2.59 1.89-5.02 2.43-2.69.6-4.44-1.24-5.61-1.63-.22 2.34-5.34 1.78-7.41 1.65-1.1-.07-.92-.41-1.94-1.32-.91 1.45-5.15 2.42-7.48 1.56-3.8-1.4-2.79-5.35-2.69-7.62-.52.29-.3-.05-.63.44l-.81 2.57c-1.32 4.28-2.14 5.69-6.7 5.48-1.43-.07-2.38.09-3.68.03-5.15-.25-7.28 1.45-10.59-.78l-.87.67c-.78.48-7.34.91-8.96.69-5.03-1.13-1.3-10.15-.16-13.74l.92-3.34c-4.47-.18-5.12-1.35-3.9-5.91.76-2.86 5.65-18.56 6.53-19.94 1.56-2.45 5.6-1.51 8.13-1.58 3.43-.09 4.4-1.73 6.28 3.08 1.66.07 2.54-.84 4.96.35 2.44 1.2 2 2.77 3.01 3.15l1.74-5.52c.84-1.62 2.37-1.71 4.28-1.96 3-.41 8.15-.35 8.79 3.68.73.01 1.66-.41 2.3-.58 4.21-1.12 5.32 1.4 6.43 1.82.36-1.5 5.5-3.53 8.57-1.48 1.81 1.21 1.16.35 3.34-.54 2.07-.84 4.69-.9 6.79.15.39.2.63.38 1.14.55 2.05-3.56 4.34-7.37 9.1-7.05 1.55.11 2.3 1.35 3.33 2.08C86.29.28 89.9-.7 92.03.64c2.29 1.45 2.68 4.66 3.2 7.02 1.68 7.63 5.03 4.74 5.19 9.2z" style="fill:#000"/><path d="M78.04 40.44c.06-2.15.74-2.43 1.6-4.61l3.53-8.97c.91-2.18 1.97-3.74 3.41-5.31.46-.46.38-.51 1.15-.47-.07.71-2.06 3.72-2.95 5.73-1.57 3.57-1.19 2.86-2.22 6.89-.51 1.97-1.79 6.81-3.21 7.77-.45.3-.08.24-.51.08-.36-.14-.82-.58-.8-1.11zM87 6.06c.06-2.26 2.81-2.78 3.85-1.59 1.05 1.21-.22 3.04-1.32 2.06-1.08-.97-.92-.32-2.53-.47zm-8.64.35c.03-1.3.1-1.37.73-1.94 1.28-1.13 1.37-.98 2.45-.93 1.17.05 1.68 3.07.35 3.01-2.01-.08-1.15-.4-1.97-.43-1.42-.06-.68.23-1.56.29zm-7.39 6.93c-.39.33-.78 2.21-1.12 3.26-.3.93-1 2.58-1.04 3.56.13-.23.13.28.16-.55l.28.01c-.04 1.43.56 1.83.82 2.98.43 1.92-1.32 3.02-1.22 4.18.04.48 1.17 1.99 1.04 3.52-.01.16-.09.64-.11.89.39-.53 1.19-4.6 4.6-8.59.53-.62 1.58-1.75 2.35-1.98-.08.9-.95 1.96-1.4 2.68-1.98 3.14-3.66 7.37-4.36 11.35-.16.93-.28 1.45-.88 1.92-1.28-.48-.76-2.48-.6-4.26-.37.5-.49 2.56-.51 3.33-.02-.04-.04-.14-.05-.12-.1.31.08-.18-.36-.61l-.86 2.51c-.5 1.15-1.32 3.2-.77 4.52.89 1.93 2.2 3.9 3.92 4.82 1.71.91 4.82 1.59 6.42.11.76-.71 1.63-1.05 2.37-1.77l2.69-3.72 2.06-5.1 1.04-3.54c.28-1.5 1-2.87 1.44-4.28.36-1.17.62-1.18 1.19-2.25.68-1.29 1.59-2.37 2.45-3.48.57-.7.23-.61.95-1.28.69-.64 1.72-2.07 2.14-2.99-1.17-1.05-2.32-1.28-2.32-2.21-.59.2-.6.44-1.39.34-.74-.09-.68-.27-1.2-.62l.15.54c-1.26-.06-1 .07-1.83.85-2.77 2.59-3.39.59-6.06 2.33-.34.23-.72.52-1.03.81l-3.87 6.33c-.44.89-2.05 5.52-2.07 6.36l-.28-.01c.04-1.47.12-2.02.44-3.43l3.12-7.7c1.03-2.12 2.51-2.69 2.64-4.14-.57-.21-.59-.51-.82-1.09l.58-.51c-.87-.12-.9-.4-1.42-.59l.01.53c-.66.04-.38.13-.87.48-1.91 1.37-2.11 1.12-3.86 3.07-.98 1.09-.96.97-1.76.94-.22-1.36-1.79-2.51-1.25-4.02l3.1-3.35c.46-.44.56-.63 1.18-.62-.02.9-.01.29.13.53.07-.71.29-.81.71-1.06 5.19-3.22 4.01 2.6 7.95.55 3.53-1.83 4.71-1.98 7.14 2.21.28.48.41.66.63.95.69-.41.9.41 1.73.72.72.27 1.34.58 1.95.97-.04.81-.04.73-.58 1.23-.62.58-2.08 2.05-2.79 3.22-.47.77-.67.63-1.32 1.89l-1.76 3.13c-.88 1.74-1.39 4.1-1.98 5.56-.49 1.21-.26 1.14-.52 2.05l-1.24 3.82c-.25.79-1.34 3.03 1.02 1 2.28-1.97 3.16-4.35 4.17-7.21l3.4-8.24 1.27-1.96c1.38-2.35 4.34-4.23 3.68-5.51l-1.26-1.11c-1.76-1.27-2.04-2.42-2.96-4.23-1.42-2.79-.92-8.33-4.27-8.69-3.72-.39-4.32 2.96-6.02 2.94-.36-.96-.6-1.77-1.1-2.47-.74-.84-2.49-.89-3.72-.11-1.42.9-1.75 1-2.87 2.37l-1.96 3.22c-.96 2.19-1.29 2.33-1.83 3.58-.46 1.05-1.01 1.3-1.61 2.05.04-.47.08-.48.16-.88z" style="fill:red"/><path class="fil2" d="m12.49 16.08-.42-.02c.06-2.17.19-4.06.3-5.99.12-2.14.77-2.12-1.81-1.86-.41.04-.84-.01-1.25-.02L3 27.86c1.48.06 2.96.35 3.32-.51l2.13-6.65.71-1.24-.46 6.13c-.12 1-.64 2.28.6 2.11 3.25-.45 2.19 1.12 3.71-3.5l4.86-15.23c.26-.78.19.43.23-1.15-3.54-.14-3.23.44-3.51 1.34-.41 1.32-2.05 5.77-2.07 6.9zm40.42 22.63-.28-.01 2.13-9.77c.37-1.57.05-.9-2.98-1.02-.5 1.08-.95 3.95-1.15 5.4-.09.64-.19.54-.35 1.18l-1.75 9.01c-.02.09-.76.86.95.5l3.87-.15 5.69-13.02c.37-.82 1.2-2.4 1.24-3.28-.69.17-1.03.06-1.8.15-1.54.17-1.28-.13-1.87 1.34l-3.68 9.68zm-3.26-15.83c-.03 1.24-.25 2.69 1.05 3.21 3.04 1.22 6.26-.83 7.58-4.12 1.62-4.06 1-2.23-2.46-2.37l-1.09 3.29c-.4.83-.69.91-1.42.67.05-1.76 1.51-5.57 2.13-7.56.62-2.07.8-3.61 2.12-3.56-.06 2.23-.24 1.51-.66 3.5 1.44.06 2.32-.26 3.54-.21.34-1.6 1.08-3.82.18-4.99-1.6-2.1-6.65-.86-8.06 2.89l-2.91 9.25zM16.7 17.49c4.03-.1 3.3.35 4.37-2.75.29-.85.49-1.45 1.52-.71-.05.59-.71 2.86-1.28 3.4-1.56 1.09-5.05 1.74-5.96 4.29-.38 1.07-.79 1.8-.82 2.92l3.4-.04c.58-1.78 1.06-4.31 2.81-4.82l-1.1 3.83c-.77 1.93-.75.47-.88 2.47-.05.7 0 .71-.2 1.2 1.68.07 2.69.32 3.73-.2.96-3.37 3.94-11.71 3.99-13.95.07-2.87-4.32-2.33-5.88-1.44-2.19 1.25-2.99 3.17-3.71 5.81zm26.29 6.18 2.39-7.93c.9-2.42.61-2.88 1.99-2.82-.05 1.74-1.91 6.68-2.55 8.82-.95 3.37-1.83 2.18-1.83 1.94zm-3.67-.33c-.03 1.19 1.89.31 2.45 2.26.33 1.15-.21 1 1.99 1.09.42.02 2.25-1.09 2.91-1.78 1.58-1.65 2.38-4.85 3.12-7.15.69-2.14 2.08-5.23.63-6.89-.83-.95-2.19-.76-3.4-.81-.88-.04-3.32 1.41-4.21 3.13-1.07 2.07-2.12 5.47-2.85 7.89-.07.24-.64 2.2-.64 2.25zm23.64-.98c.01-.34.84-3.98 2.51-3.96l-1.54 4.88c-.88-.04-.99.09-.97-.92zm5.86-2.2 2.16-6.82c.04-1.58.35-2.51-.51-3.33-1.8-1.71-6.59-.66-8.25 3.71l-.64 2.06c1.16.05 2.44.2 3.4-.04.21-.5.9-2.92 1.2-3.32.36-.49.3-.32 1.01-.29.17 1.09-.33 3.34-1.65 4-4.61 2.36-4.99 1.73-6.42 7.32-.71 2.8 1.44 2.88 2.35 2.57 1.32-.45 1.23-1 2.13-1.35l-.2 1.04 3.42-.03c.79-1.38 1.26-4.17 1.98-5.53zm-8.03 20.63 2.89-9.64c.23-.67.39-1.34 1.21-1.3.76.03-.31 2.51-.43 2.89l-2.7 8.09c-.52.67-.99.21-.98-.04zm-3.67-.15c-.03 1.1-.18 1.84.4 2.44 1.15 1.2 5.65 1.38 7.78-2.32 1.03-1.79 2.77-7.07 3.21-9.04.43-1.95.3.38.36-2.07.08-3.09-6.09-3.88-8.59 1.15-.62 1.24-3.12 8.44-3.15 9.84zm-39.21 1.41 2.7-8.44c.92-3.07 1.82-2.2 1.81-1.61l-2.64 8.33c-.26.75-.66 2.68-1.55 2.23-.3-.15-.33-.01-.32-.52zm-1.64 3.28c2.63.11 3.9-.18 5.68-2.28 1.51-1.78 2.89-6.89 3.6-9.25.41-1.36.98-3.05-.18-4.23-1.36-1.38-3.51-.96-4.9-.35-2.54 1.11-3.59 4.29-4.32 6.65-.89 2.86-3.73 9.3.12 9.46zm26.6-3.97c-.64.98-1.37.65-.78-1.41l2.34-7.28c.86-2.74 1.8-2.75 1.76-1.3l-3.32 9.99zm-2.82 3.17c4.88.2 6.47-2.46 7.85-6.87l1.37-4.38c.43-1.47 1.11-3.46-.12-4.69-2.11-2.12-6.62-.58-8.54 4.47l-1.62 4.95c-.57 1.87-1.68 4.99-.13 6.02.18.12 1 .48 1.19.49zm-5.21-11.68 1.28-3.94c.18-.58.08-.94.68-.92 1.4.06.26 2.65-.24 4.06-.47 1.28-1.75 1.9-1.73.8zm6.21-5.04c.04-1.57.36-2.77-2.32-2.92-1.33-.07-2.18.07-3.55.03-2.03-.06-1.85.55-2.24 1.76l-5.3 16.64c-.53 1.77-.91 1.67 1.17 1.38 2.97-.42 1.84 1.3 4.09-5.68.69-2.14.21-2.33 2.16-2.59 3.01-.4 3.65-1.09 4.69-4.33l1.3-4.28zm-30.81 6.03c.79-2.51 1.03-2.19 1.85-1.91l-3.16 10.2c-.32.93-1.4 1.6-1.35.02l2.66-8.31zm4-8.17c-.45 1.31-1.13 4.06-1.67 4.52-.5-.45-.78-1.09-1.67-1.13-3.51-.14-4.41 5-5.47 8.22l-2 6.82c-.04 1.43 1.1 1.81 1.93 1.84.65.03 2.04-1.26 2.72-1.3l-.02.71 3.53-.08 6.14-18.95c.16-.49.09.26.18-.68-1.26-.05-2.27.08-3.68.03zm18.31-2.61 1.37-4.2c.37-1.46.77-.99 1.31-.81.2 1.28.18.75-.14 1.64-.75 2.09-.65 3.97-2.55 3.89l.01-.53zm2.77-8.71.69-2.18c.44-1.37.36-1.83 1.25-1.8 1.04.04-.02 2.63-.22 3.17-.54 1.54-.74 1.38-1.74 1.34l.01-.53zm-1.65-7.12L27.5 26.91c1.7.07 2.86-.06 4.53.01.05-1.03.16-.61.45-1.59.64-2.21 1.22-1.45 4.16-1.38 1.32.03 1.4-1.16 2.23-3.78 1.29-4.07-.49-2.87-.76-4.29.52-.28 1.48-.37 2.25-1.75.71-1.58 2.14-5.51.45-6.52-1.37-.81-3.11-.51-4.5-.33-.85.11-1.77-.01-2.64-.05zM74.93 13.32c.95 1.9 1.53.88 2.67.81.13.34.21.46.35.78.19.42.15.44.29.83.5.17.21.14.62.34.27.13.48.2.8.25 2.13.09 2.12-.61 3-1.29.64.57.36.97.93 1.48.92.83 2.3.55 3.33-.02.65-.37.71-.81 1.26-1.23.46.29.28.21.52.73.52.35.46.53 1.2.62.79.1.8-.14 1.39-.34l.08-.31a7.76 7.76 0 0 1-.63-.95c-2.43-4.2-3.61-4.05-7.14-2.21-.64.33-1.51.7-2.42.22-1.21-.63-1.78-3.1-5.53-.77-.42.26-.64.35-.71 1.06zM78.04 40.44c-.01.53.45.97.8 1.11.42.16.06.22.51-.08.83-.56 1.67-2.66 2.08-3.81l1.13-3.96c.3-1.32.84-3.6 1.32-4.81l.91-2.08c.89-2.01 2.89-5.02 2.95-5.73-.77-.03-.69.01-1.15.47l-1.16 1.37c-.02.03-.05.07-.07.09-1.06 1.48-1.36 1.97-2.18 3.84l-3.53 8.97c-.2.51-.35.78-.57 1.25-.9 1.92-1 1.86-1.03 3.36zM69.77 31.19l-.29 1.13c-.16 1.77-.68 3.78.6 4.26.6-.48.72-.99.88-1.92.14-.8.31-1.71.52-2.41l.67-2.2c.68-2.15 2.04-4.97 3.16-6.74.46-.72 1.32-1.79 1.4-2.68-.77.22-1.82 1.35-2.35 1.98-.39.45-.67.74-.99 1.24-.29.44-.51.79-.84 1.26-1.59 2.29-2.46 5.68-2.77 6.1zM78.36 6.41c.88-.05.14-.35 1.56-.29.82.03-.04.35 1.97.43 1.33.05.82-2.96-.35-3.01-1.08-.04-1.17-.2-2.45.93-.64.57-.7.64-.73 1.94zM87 6.05c1.61.15 1.45-.51 2.53.47 1.09.98 2.37-.85 1.32-2.06-1.04-1.19-3.79-.67-3.85 1.59z"/></g></g></svg>