<svg xmlns="http://www.w3.org/2000/svg" xml:space="preserve" width="109.225" height="66.077" style="shape-rendering:geometricPrecision;text-rendering:geometricPrecision;image-rendering:optimizeQuality;fill-rule:evenodd;clip-rule:evenodd" viewBox="0 0 253.84 153.56"><path d="M28.1 21.82c-2.02 5.38-3.73 8.51-7.04 13.3-3.06 4.42-6.62 8.3-10.69 11.66L4.43 41.8l1.46-3.29a51.32 51.32 0 0 1-2.87-8.68c-1.08-4.51-1.46-7.82-1.46-12.4L0 17.11l1.25-5.66c.31-.32.59-.57.83-.74.77-.6 1.55-1.01 2.35-1.22 0 2.8 3.32 13.66 4.48 17.3 1.04 3.25 1.58 4.88 1.62 4.88L24.66 7.3l3.23 4.35c-.6 2.05-.68 3.32-.68 5.61 0 1.75.22 2.52.89 4.55zm8.11 43.46 9.93-3.73 34.89 23.42 14.88 51.42 16.65 5.75 11.61-14.05 12.15 3.04 11.61-14.05 11.75 3.05 10.86-12.32-5.99-24.33 14.4-2.16 23.07-20.11 20-2.91 8.26 7.15.3 9.68-21.92 5.82-19.76 23.43-7.71 23.05-20.65 20.61-32.62-2.4-15.82 7.91-23.57-8.38-12.97-41.79L36.2 78.39l-.01-13.12zm50.84 19.5 6.56-8.76 11 4.78 13.51 46.33-8.16 8.81-11-4.79-11.91-46.38zm24.36 33.45-10.75 3.05c1.03 5.79 3.85 8.38 8.43 7.77 3.65-1.6 4.42-5.21 2.32-10.82zm46.85-21.41-10.75 3.05c1.04 5.79 3.85 8.38 8.43 7.77 3.65-1.6 4.42-5.21 2.32-10.82zm-23.99 10.16-10.75 3.05c1.04 5.79 3.85 8.38 8.43 7.77 3.65-1.6 4.42-5.21 2.32-10.82zm-23.71-28.64 7.72-9.94 11.44 5.91 11.34 41.27-6.94 9.34-13.44-5.85-10.12-40.74zm25.13-5.92 7.34-9.35 12.18 4.18 9.63 37.9-7.74 9.37-13.02-5.29-8.39-36.8zm16.29-38.47c-.15.84-.37 2.06-.37 2.55v1.8c-1.77 1.8-4.57 3.41-8.39 4.83-3.41 1.27-6.05 1.91-7.92 1.91-.56 0-.9-.07-1.04-.21-2.46-2.44-4.12-5.15-4.12-8.59 0-.88.14-1.89.42-3.02l-1.25-1.54 8.86-22.44 2.5-.69.36-.95 5.32-.69.16 3.61-1.41.69c-1.32 3.5-2.56 7.5-3.7 11.99-1.25 4.92-1.88 8.61-1.88 11.09 0 1.7.26 2.61.78 2.73 3.51.83 8.46-1.2 11.68-3.05zm31.38-16.02c.03.14.05.41.05.8 0 2.12-.59 5.02-1.77 8.7-1.94 6.05-6.39 15.78-12.25 17.08-3.04.67-6.42-.79-9.44-3.26-2.78-2.28-4.41-4.48-4.9-6.61-.5-2.28.23-6.24 1.07-9.28.82-2.97 1.95-5.71 3.41-8.22l-3.44-.69 2.76-6.21 2.82-.37 1.25-2.55h7.56c2.12 0 4.08.3 5.89.9 1.81.6 3.42 1.64 4.85 3.13 1.3 1.34 1.74 4.03 2.14 6.58zm-6.26 5.94c-.9-1.8-2.14-3.06-3.7-3.77-.76-.32-2.75-.81-5.94-1.49-1.15 1.52-2.11 4.32-2.89 8.38-.78 4.07-1.17 7.34-1.17 9.81 0 .92.09 1.42.26 1.49 1.18.21 3.7-1.42 7.56-4.88 4.07-3.68 6.1-6.54 6.1-8.59 0-.39-.07-.71-.21-.95zm42.96-20c0 1.98-1.3 5.13-3.91 9.44-1.91 3.15-4.34 6.68-7.3 10.61-1.39 1.77-2.76 3.54-4.12 5.3 1.87 3.01 7.63 6.98 11.47 9.44 2.05 1.31 3.11 1.96 3.18 1.96l-2.29 4.19-1.88-1.17-4.12 2.97c-4.24-1.61-6.31-2.59-9.75-4.83-2.36-1.54-3.47-2.42-5.47-4.46l-4.12 9.28-4.12-5.09 1.62-12.04c-2.15-1.12-2.77-2.95-2.48-5.28.05-.41.36-.86.91-1.35.9-.81 1.58-1.54 2.03-2.17l4.07-18.14-.94-2.07 2.55-.48c1.46.74 2.88 1.88 4.28 3.4 1.22 1.34 1.91 2.39 2.09 3.13.21.78-.17 3.5-1.12 8.17-.96 4.67-1.82 7.82-2.58 9.44-.21.42.05.96.78 1.59.24.18.64.44 1.2.79 3.34-3.3 9.81-13.49 13.19-18.73-.5.51-1.03.32-1.77 0 0-.71 1.36-2.4 4.07-5.09.28-.39.56-.78.83-1.17l-.42.21c1.83-.08 2.88.57 4.12 2.12zm33.78 23.71-.99 6.68c-.04.52-1.09.63-1.56.96-.45.35-.85.69-1.2 1.01-.73.67-1.16 1.42-1.3 2.23l-.83 4.72-5.42 3.71-.16 1.33-1.83 1.33c.74-2.46.99-3.65.99-6.15 0-2.32-.11-3.59-.68-5.83l-10.88 1.17-3.74 10.61c-.52 0-.66.12-1.22.43-.33.18-.58.52-.76 1l-.77-.58 2.5-11.71c-.84-1.1-1.13-1.39-1.72-2.71a12.3 12.3 0 0 1-1.15-3.7l4.33-.64 6.2-17.7 5.16-2.92-.73-2.17 8.6-1.75.73 1.01c.42-.07.83-.16 1.25-.27.31 0 .69.16 1.15.48.28 1.52.47 2.74.57 3.66.38 2.76.57 4.97.57 6.63v9.76l2.87-.58zm-12.77 2.07c0-1.54-.21-4.82-.21-6.37 0-3.27-.69-5.4-1.25-8.17l-2.82 5.83c-1.37 2.94-2.89 6.61-3.91 9.5l8.18-.8zM43.32 14.73c0 4.35-7.51 28.54-6.67 30.46-.77-.28-1.51-.55-2.24-.8-.66-.35-1.53-1.27-2.61-2.76-1.55-2.09-.83-6.86-.39-9.72.36-2.34.72-4.63 1.07-6.85l-1.62-5.56 3.75-11.65 3.23-.53c2.27 2.31 4.84 5.09 5.47 7.41zm33.37 14.04c-.95 1.29-.37.76-.63 1.28-4.15 8.5-13.67 13.84-22.42 17.95l-6.93-5.26 1.93-1.59 2.71-25.76-5-4.84 1.36-3.25 5.37 1.34 1.15-1.22c6.08 2.09 10.5 3.96 13.24 5.63 2.29 1.38 4.59 3.39 6.88 6.05 2 2.35 2.35 6.22 2.35 9.66zm-8.24-9.57-1.62-1.59-6.67-2.39c-.07.25-.12.49-.16.74-.28 1.17-.5 2.26-.65 3.26-.16 1.01-.94 3.92-2.35 8.73-1.41 4.81-2.2 7.83-2.37 9.07 3.03-1.08 5.3-2.77 7.66-5.25 2.79-2.94 7.18-8.73 6.15-12.57zm41.71 8.38-.99 6.68c-.04.52-1.09.63-1.56.96-.45.35-.85.69-1.2 1.01-.73.67-1.16 1.42-1.3 2.23l-.83 4.72-5.42 3.71-.16 1.33-1.83 1.33c.74-2.46.99-3.65.99-6.15 0-2.32-.11-3.59-.68-5.83L86.3 38.74l-3.74 10.61c-.52 0-.66.12-1.22.43-.33.18-.58.52-.76 1l-.77-.58 2.5-11.71c-.84-1.1-1.13-1.39-1.72-2.71a12.3 12.3 0 0 1-1.15-3.7l4.33-.64 6.2-17.7 5.16-2.92-.73-2.17L103 6.9l.73 1.01c.42-.07.83-.16 1.25-.27.31 0 .69.16 1.15.48.28 1.52.47 2.74.57 3.66.38 2.76.57 4.97.57 6.63v9.76l2.87-.58zm-12.77 2.07c0-1.54-.21-4.82-.21-6.37 0-3.27-.69-5.4-1.25-8.17l-2.81 5.83c-1.38 2.94-2.89 6.61-3.91 9.5l8.18-.8z" style="fill:#000"/></svg>