<svg xmlns="http://www.w3.org/2000/svg" xml:space="preserve" width="128" height="64" style="shape-rendering:geometricPrecision;text-rendering:geometricPrecision;image-rendering:optimizeQuality;fill-rule:evenodd;clip-rule:evenodd" viewBox="0 0 100.64 50.32"><path d="M80.62 19.14c1.39-.05 2.69.56 3.2 1.7.02.04.03.07.04.1.33-.21.7-.39 1.1-.53 1.18-.41 2.44-.38 3.63-.01a6.47 6.47 0 0 1 2.96 1.9c.02-.12.04-.23.07-.35.24-1.25.53-2.41 1-3.62.28-.73.59-1.38 1.33-1.87 1.2-.79 2.67-.6 4.03-.28.32.07.62.16.92.28.32.13.55.24.81.43l.01.01c.61.34.94.88.92 1.49-.05 1.73-.92 2.84-1.61 4.37-.87 1.92-1.32 3.77-1.79 5.78-.16.71-.26 1.47-.34 2.19-.08.66-.16 1.38-.16 2.05 0 .63-.08 1.17-.22 1.78-.05.23-.11.46-.13.7-.04.4-.24.77-.54 1.04 1.67 1 3.07 2.51 3.07 3.85v.58c0 1.61-1.94 3.01-3.8 3.01-.83 0-1.74-.24-2.51-.5-.71-.24-1.25-.54-1.85-.93-1.34-.86-2.42-2.26-2.42-3.72 0-.87.33-1.62.89-2.19-.29.11-.6.19-.93.23-.81.1-1.62.02-2.36-.27-1.48-.57-2.32-1.68-2.9-2.92-.12.12-.25.23-.38.35-.3.26-.62.5-.94.75-.06.05-.15.12-.23.18.2.64.22.97.22 1.64 0 .53-.24.98-.72 1.32l-.37.27c-.39.28-.83.42-1.34.43-1.69.01-3.42-.86-3.88-2.27-.06-.01-.11-.03-.17-.04-.73-.19-1.29-.5-1.89-.89a4.71 4.71 0 0 1-1.04-.94l-.36.35c-.06.06-.13.12-.19.19.03.1.06.2.08.28.24.89.24 1.54-.45 2.28l-.28.32c-.36.41-.86.66-1.44.71 1.34.34 2.68.7 4 1.08 1.76.5 3.53 1.02 5.25 1.62.36.13.94.41 1.31.48.95.19 1.6.88 1.6 1.71 0 .98-.51 2.09-1.41 2.72-1.71 1.21-5 0-6.8-.6-1.24-.41-2.53-.93-3.78-1.28-.51-.14-1.01-.28-1.51-.42.31.76.24 1.59-.42 2.24-.49.48-1.19.72-1.92.72-2.03 0-2.79-.38-4.53-1.12-.22-.09-.67-.25-1.14-.38.03.07.06.14.08.21.34.95.43 1.95.43 2.93 0 1.28-1.06 2.04-2.52 2.03-.3 0-.99-.13-1.31-.21-1.83-.44-3.35-1.28-5.12-1.76-1.31-.36-2.68-.8-4.02-1.05-1.89-.35-3.71-.57-5.63-.76-1.22-.12-2.43-.25-3.64-.42-1.29-.18-2.7-.19-3.83-.82-.75-.42-1.08-1.17-.85-1.91.1-.32.26-.62.49-.9.09-.11.19-.22.3-.32-2.48-.05-4.94.14-7.13.74-1.06.29-2 .67-2.96 1.16-.84.43-1.67.94-2.69.94-2.07 0-2.98-1.27-3.14-2.84-.15-1.46.73-2.08 2.04-2.79.97-.53 2.31-1.04 3.5-1.38-1.37-.14-2.2-.77-3.08-1.72-.28-.3-1.05-.74-1.43-.98-.36-.23-1.21-.74-1.97-1.11-.04.1-.07.19-.11.26-.71 1.5-2.55 2.75-4.54 2.11-1.91-.61-2.27-2.4-1.8-3.89.21-.68.52-.94.89-1.47-.01-.07-.04-.15-.05-.21-.06-.22-.11-.43-.13-.63-.49.19-1 .35-1.55.49-.13.03-.26.06-.4.08.04.36.12.74.15 1.03.18 1.45.14 3.02-1.28 4.05-1.46 1.06-3.97.79-5.2-.42-.17-.17-.32-.35-.44-.55-.71-1.1-.52-2.34-.23-3.52.04-.18.11-.4.17-.63-.15-.11-.29-.24-.42-.39-.76-.84-.78-1.84-.37-2.8.3-.7.63-1.09 1.25-1.5.1-.4.13-1.12.14-1.67a4.31 4.31 0 0 1-2.05-.41c-.58-.28-1.06-.68-1.39-1.18-1-1.53-.22-3.31 1.02-4.55 1.45-1.45 3.6-2.38 5.76-2.81 2.71-.54 6.21-.7 8.65.58 1.3.68 2.26 1.9 2.65 3.14.18.56.23 1.13.23 1.69.8-.11 1.6-.19 2.41-.19.72 0 1.43.05 2.12.19-.17-.39-.26-.83-.27-1.3 0-.15.01-.3.03-.46-.45.08-.93.08-1.42-.05-.52-.13-.81-.33-1.23-.57-.59-.33-.92-.85-.92-1.45 0-1.31.26-1.89 1.36-2.83.63-.54 1.2-.8 1.99-1.11l.21-.09c.12-.46-.06-1.51-.13-1.88-.21-1.02-.54-1.97-.8-2.97-.21-.82-.48-1.57-.56-2.41-.16-1.74.31-3.77 2.59-4.31 1.26-.3 2.89.06 3.77.9.68.65.99 1.45 1.19 2.28.01.05.02.11.04.17.74-.55 1.61-1.34 1.95-1.63C32.66 1.9 35.1-.52 37.62.07c.28.07.55.17.8.3.29.16.55.36.75.61.12.14.21.29.29.45.54-.04 1.09-.02 1.64.06 3.23.48 4.87 2.43 5.88 4.7.44-.49.91-.96 1.4-1.41 1.31-1.19 3.18-2.48 5.25-2.14 1.19.19 2.03.86 2.58 1.7.51-.54 1.2-1.11 1.78-1.5 3.9-2.57 9.15-1.8 11.22 2.12.83 1.57 1.11 2.66 1.21 4 .57.25 1.01.67 1.37 1.14.09-.16.21-.32.36-.49.43-.46 1.01-.77 1.68-.92.24-.05.46-.07.71-.05.16.01.31.03.45.05.78-.41 1.73-.62 2.61-.57 2.71.16 4.06 2.31 4.62 4.3.56 1.97.02 4.99-1.58 6.69z" style="fill:#000"/><path d="M55.97 39.01c5.59 1.17 9.11 1.9 14.52 3.43 1.92.54 7.61 2.89 8.59 2.2.41-.29.66-.92.66-1.38-.56-.11-1.13-.4-1.62-.57-2.71-.94-7.45-2.27-10.29-2.94-.27-.06-.54-.16-.88-.23-2.82-.59-4.95-1.16-8.03-1.75-4.41-.85-6.33-1.01-10.74-1.01-1.89 0-1.88.2-1.64 1.67.05.34.03.69.03 1.04-3.41 0-3.09-.2-6.41-.69l-3.8-.28c-3.67-.09-7.74.26-10.86 1.01-1.14.27-2.7.86-3.58 1.33-.88.48-1.16.59-1.1 1.17.07.72.24 1.23 1.08 1.23 1.41 0 5.02-4.69 20.76-2.03 2.94.5 3.1.73 5.5 1.46.8.24 1.34.25 1.51.76-1.2.54-3.03-.01-4.77-.23-1.44-.19-8.32-1.51-9 .62.64.36 2.21.44 3.02.55 3.33.47 5.34.45 9.37 1.2 1.29.24 2.87.73 4.21 1.09 2.06.56 3.2 1.3 5.05 1.74.08.02.76.14.77.14.31 0 .42 0 .42-.28 0-2.98-1.03-3.17-1.03-4.36 0-1.73 4.18-.17 4.67.03 1.58.67 2 .94 3.6.94.82 0 .57-1.14-1.13-1.86l-3.58-1.34c-1.81-.61-2.63-.97-4.7-.97-2.86 0-1.03 3.52-1.03 4.46-.93 0-2.75-.14-2.75-.97 0-.75.21-1.1-.05-1.8-.36-.96-1.84-1.68-2.31-2.9-.16-.42-.08-.34-.04-.73.43-.08.86-.19 1.38-.19 1.13 0 3.12.18 4.22.41zm34.44-.41c0 .98.92 1.89 1.6 2.33.43.27.79.5 1.36.69.39.13 1.18.37 1.74.37.74 0 1.72-.66 1.72-1.26v-.58c0-1.13-2.83-3.2-4.36-3.2-1.27 0-2.07.64-2.07 1.65zm3.9-3.49c.08-.85.35-1.26.34-2.32-.01-1.11.32-3.62.54-4.58.51-2.2.93-3.95 1.88-6.06.49-1.09 1.44-2.42 1.48-3.79-.3-.17-.18-.16-.55-.31a5.24 5.24 0 0 0-.59-.18c-2.15-.5-2.41-.1-2.83 1.01-.82 2.14-.89 3.5-1.34 5.36-.08.34-.05.65-.11 1.07-.28 1.78-.47 2.88-.54 4.67-.03.76-.12 1.21-.12 2.04 0 1.26-.12 3.1 1.84 3.1zm-8.72-9.59c0-1.52 2.07-2.49 3.25-.13 1.08 2.16.46 6.75-1.18 7.68-.58-.42-.85-1.02-1.13-1.66-1.55-3.51.56-2.2.56-3.57 0-.81-.52-1.16-1.49-1.16v-1.16zm-2.41 1.36c-.09.76-.01 1.76.34 2.33.39.24.12-.03.29.44.62 1.7 1.37 5.63 4.18 5.27 2.37-.3 4.8-6.54 2.61-10.52-.58-1.06-1.41-1.94-2.73-2.35-2.98-.92-4.87 1.89-4.69 4.83zM76.3 12.93c0-1.87 1.44-2.24 2.28-.57.56 1.12.34 2.57.05 3.7-.1.38-.13.49-.31.8-.17.29-.26.45-.64.53-.49-.3-1.03-1.57-1.03-2.33 0-.8.69-.39.69-.97 0-1.27-1.03-.69-1.03-1.16zm-18.59.48c0-1.01.29-2.98 1.06-3.66.35-.31.64-.36 1.02-.59.75-.45.68-1.37.92-2.23.3-1.08 1.95-1.69 3.28-.84 1.62 1.04 1.42 2.91 1.42 4.52 0 4.45-4.29 8.27-6.45 6.8-1.12-.76-1.24-2.66-1.24-3.99zM38.09 8.76c0-2.7 2.05-3.47 3.65-2.01 2.5 2.28 1.83 8.07.33 10.6-.17.28-.73 1.1-1.11 1.1-.78 0-1.76-2.77-1.98-3.56-.09-.31-.22-.72-.31-1.1-.38-1.53 1.49-.9 1.49-2.41 0-.63-.12-1.02-.66-1.38-1.07-.72-1.41.47-1.41-1.23zm7.57 8.53c0-1.93 2.16-5.12 3.33-6.78.67-.95 1.87-2.74 3.21-3.01.14.22.34.64.34.97 0 .69-.99 3.32 1.08 3.55.89.1.69-.67 1.33-1.03 0 .84-.12 1.29-.12 2.13v2.23c-1.66.12-6.03 3.34-8.26 3.78-.94-.53-.92-.98-.92-1.84zm31.54 1.45h.84c.28-.2.37-.2.64-.41 1.48-1.14 1.91-4.01 1.5-5.48-1.23-4.35-4.51-2.88-4.8-1.96-.67-.15-.3-.43-1.03-.48-1.13.26-.81 1.37-.92 2.51-.1.98-.22 2.04-.22 3.11-.53-.12-.61-.54-1.03-1.26-.29-.49-.53-.98-.87-1.49-.42-.63-1.24-2.69-2-2.77-.6.12-.49.24-.92.48 0-2.56-.08-3.4-1.08-5.29-1.5-2.83-5.17-3.35-8.05-1.45-.52.34-1.28.98-1.63 1.43-.32.4-1.02 1.42-1.4 1.63-.41-.25-.11-.28-.66-.51-.97-.41-.46-.15-1.01-1.28-1.61-3.3-5.64 1.3-6.75 2.72-.31.39-1.27 1.79-1.68 1.88-.74-2.67-1.63-6.33-5.39-6.88-1.98-.29-2.82.63-3.56.68.04-.42.81-1.68.13-2.05-2.01-1.09-6.56 5.46-8.96 5.35-1.43-.07-.84-2.52-1.96-3.59-.45-.43-3.05-1.27-2.74 2.12.07.74.34 1.47.52 2.18.32 1.25 1.89 5.47.35 6.51-.71.48-1.36.46-2.19 1.16-.72.61-.76.76-.76 1.59.58.33.85.65 1.86.02.59-.38 1.02-.84 1.82-.7.36 1.32-.14 2.13-.12 3.2.01 1.23.86 1.78 2.01 1.11 1.93-1.13-.15-4.12.82-5.8.25-.42 1.79-1.34 2.38-1.48.6-.13 1.39.08 1.94-.1 1.05-.34 1.42-3.14-1.65-1.97-.48.18-.88.38-1.34.61-.35.18-1.06.57-1.41.65-.37-.47-.5-1.87-.46-2.41.15-2.1 1.44-.34 4.1-2.17.35-.24.62-.41.97-.64.39-.25.56-.4 1.25-.4 0 1.08-.11 1.76.54 2.35.51.46.5.19.49 1.04-.02 2.43.77 2.49 1.06 3.47.66 2.23 1.08 4.27 2.97 6.21 2.09 2.15 3.85.1 4.35-.18.4.09.32.13.6.36.21.17.42.3.66.41 1.52.74 2.92.14 4.26-.37 1.39-.54 3.74-1.81 5.19-2.21.37-.1.61-.09.94-.18.59-.16.12-.23.86-.24.12.44.77 1.45 1.08 1.8 2.05 2.29 4.79 1.19 6.74-.14 2.1-1.43 3.75-3.67 4.47-5.91.1-.3.19-.93.33-1.17.42.1.33.14.48.56.98 2.82-1.67 5.73 1.24 5.73.27-.44.4-.63.46-1.26.05-.58.12-.87.12-1.55.66.15 2.08 2.29 2.46 2.77.42.53.74.92 1.18 1.43.48.55 1.01.84 1.99.65.17-.61.01-.93-.24-1.44l-.74-1.21c-.52-.97-.51-1.89-.51-3.25.87.2.36 1.53 1.62 3.18.34.45.6.47.88.79zm-50.58 6.98c0-.75.68-1.74 1.61-1.74 1.43 0 2.16 1.93 2.28 2.92.2 1.62-.1 5.28-1.7 6.19-.39-.31-.69-.73-.91-1.17-1.94-4.05.33-2.55.33-4.06 0-1.43-1.14-.79-1.48-1.47-.06-.12-.13-.49-.13-.66zm25.82-.48c0 1.13-1.84 2.4-2.67 2.97-.44.3-2.63 1.47-3.13 1.24-.4-.19.43-2.41.58-3.1.23-1.01-.62-1.35.71-1.82 1.16-.41 4.52-.65 4.52.71zm-34.42.48c0-.41-.21-.52.03-.84.54-.7 3.94-.92 4.86-.29 1.02.71-.36 2.09-1.01 2.65l-1.3.94c-.65.41-2.22 1.3-3.26 1.31 0-.86.11-1.04.34-1.84.26-.91.34-1.01.34-1.94zM7.69 20c.36-.07.39-.13.74-.25 5.48-1.89 7.63 2.56 3.71 5.85-.73.61-2.09 1.87-3.41 1.87-.82 0-.08-4.38-.16-4.9-.05-.29-.07-.68-.14-.96-.08-.33-.19-.61-.36-.86-.19-.29-.34-.35-.38-.74zm56.04 12.79c.02-.7-.09-.75-.51-1.07-.58-.11-.53-.31-1.1-.44-.9-.19-.33.47-3.59.74-1.01.08-2.08.33-1.46-.94 1.2-2.48 2.77-.52 4.28-1.43.36-.22 1.2-1.08.54-1.64-.66-.56-1.58.03-2.56-.07-1.08-.11-.54-1.13-.12-1.65 1.2 0 3.2.62 5.11.19.2-.34.13-.13-.25-.79-.35-.61-.04-.59-.35-.96-2.92 0-4.82-.41-6.62-1.41-.77-.43-2.39-1.01-2.49.35-.09 1.18 1.2 1.29 1.92 1.78.91.61.36 1.98-.65 2.09-.76.08-1.29-.1-1.75.27-.48.38-.39.84.1 1.14 1.55.95 1.9.01.42 3.18-.2.42-.22.9-.84.94-.12-.38-.49-.78-.94-.85-1.44-.25-1.19.28-3.1-.68-.44-.22-.87-.35-1.01-.79.99-1.14 5.68-2.26 5.75-5.62.07-3.62-6.5-2.48-8.71-2.01-4.98 1.05-2.94 2.21-4.49 2.79-.32.12-.7.24-1.08.35-1.33.38-3.4.68-4.46 1.46-.27.2-.62.46-.66.81-.05.47.26.66.61.74.99.24 1.61-.14 2.27-.46 3.45-1.7 2.92 1.54.89 3.27-.54.45-1.13.79-1.92.99-3.2.83-4.89-.87-3.15-3.53.73-1.11 1.66-1.98 2.61-2.93.27-.27.55-.39.86-.63 1.63-1.27 2.33-.69 3.31-1.08 1.43-.58 1.6-2.76-1.56-1.7-1.16.39-1.93.94-2.87 1.55-.31.2-.49.36-.78.6-.3.25-.46.46-.74.73-.24.23-.43.47-.65.71-.58.65-.88 1.31-1.39 1.34 0-2.85-1.67-6.98-5.4-6.11-1.54.36-1.54 1.19-2.29 1.65-.28-.16-.4-.3-.71-.47-2.41-1.34-6.31-.14-7.55-.11 0-.96.21-2.39-.09-3.32-.28-.88-.96-1.69-1.75-2.11-1.8-.95-4.69-.84-7.08-.37-4.95.98-6.86 4.34-4.85 5.31.48.23 1.12.3 1.52-.08.2-.2.7-.84.78-1.09h.34c.11.4.24.76.31 1.19.09.5.15.78.15 1.33-.02 4.65-.86 2.8-1.52 4.34-.49 1.15.36 1.37 1.05 1.76 0 1.31-1.18 3.36-.14 4.38.42.41 1.62.7 2.27.23 1.23-.89.28-3.25.39-4.52.08-.95 1.05-.79 1.92-1 2.02-.49 3.41-1.44 4.54-2.75 1.58-1.82 1.29-.02 1.08 1.11-.12.63-.16 1.54-.85 1.9-1.07.55-.35 1-.38 1.91-.02.75-.74 1.08-.97 1.8-.69 2.17 1.57 2.48 2.41.68.31-.66.39-1.22.85-1.8 1.26 0 3.37 1.23 4.41 1.9.59.38 1.37.83 1.8 1.29.56.6 1 1.08 2.05 1.08.3-.38.43-.4.47-1.07.02-.43-.08-.84-.19-1.2-.73-2.26-1.78-1.68-2.51-1.76-1.11-.12-2.51-.77-3.16-1.4.48-.6 1.75-1.17 2.48-1.59.61-.36 1.33-.72 1.78-1.21.26-.29.09-.3.56-.4 0 .84.12.89.41 1.49.66 1.36.86 2.83 1.65 4.13 2.23 3.64 4.34.37 4.82.1 1.03 1.64 1.91 1.59 3.9 1.55.66-.01 2.78-.42 2.93-.35.37.18-.72 2.36.19 3.23.63.6 2.36.53 2.56-1.2.21-1.79-1.46-.55-.33-2.9.26-.54.5-.96.72-1.42.23-.48.4-.92.6-1.43 1.18-2.95.3-1.93 2.43-4.83.25-.34.12-.31.66-.41.21.76-.07 1.91-.24 2.7-.37 1.72-1.24.76-1.26 1.94-.01.58.23.91.09 1.42-.25.92-.93.77-.89 2.27.02.72.15.66.47 1.06 1.08 0 1.53-.31 1.91-1.1.17-.36.27-.67.4-1.02.32-.83.19-.63.56-.79.22-.09.41-.03.64.04 2.22.67 4.12 1.9 5.76 3.28.37.31 1.51 1.4 2.08.55.37-.55-.26-.83.58-1.06 1.65-.45 1.6-1.06 3.66-1.27.5-.05.96-.1 1.63-.08.72.02.86.16 1.42.26 1.11.2 1.61-.55 2.06-1.03z" style="fill:#fff"/><path d="M69.31 31.63c-.29-.46-.24-.48-.23-1.16.01-.62-.51-3.2.57-3.2 1.37 0 1.61.87 1.61 1.74 0 .9-.83 2.54-1.95 2.62zm-1.06 4.65c.4.19.63.33 1.19.35l.3-.35c.16-.17.25-.19.08-.81-.39-1.4-.3-1.13.55-1.99l1.78-1.74c.57-.46.24-.55.83-.68.33.59.49 2 1.65 2.77 1.04.69 1.24.54 2.21.85.57.18.42.38.53.91.14.64 1.06 1.07 1.9 1.07l.37-.27c0-.67.01-.68-.16-1.22-.61-1.95 1.97-1.64 3.54-5.03.41-.9.08-.76.52-.91-.36-.57-.44-1.56-.34-2.33-.25.1-.04.03-.34.1-.29-1.1-1.98-1.57-3.32-1.75-.88-.12-.95-.53-.74-1.48.2-.87.59-.75 1.63-.85 2.15-.2 1.87-2.17.17-2-1.66.17-1.64.17-1.81-.56-.36-1.53-.61-1.05-.73-1.6h-.84c-.33.44-.82.11-.73 1.16.03.27.29.49.29 1.45-1.27.57-2.03.88-2.75 1.94-.69 1.01-.7 2.42.31 3.23 1.37 1.08 2.41-.05 2.56 2.1l.12 1.84c.01.79-.12 1.26-.12 1.94-.67-.01-.83-.34-1.1-.72-.18-.25-.57-.89-.58-1.14-.02-.48.49-.75-.22-1.1-.69-.34-.8 0-1.43.04-.08-.31.01-.63.01-1.17-.01-.97-.72-1.96-1.58-2.47-.65-.38-1.5-.52-2.34-.61-.59-.07-.63-.1-.68-.69-.18-2.24 1.5-1.41 2.45-1.8.65-.27 1.05-1.08.43-1.6-.76-.64-1.69.07-2.49-.22-.59-.22-.26-1.3-.88-1.8-.59-.41-.72-.39-1.43-.1-.81.43-.05 1.54-.03 2.33-.99.44-1.49.5-2.16 1.27-.62.71-.99 1.05-1.13 2.12.31.36 0 .35.35.96.38.66.46.45.25.79.41.04.3.09.65.3 1.18.71 1.69.06 1.93.77.21.61.23 2.27.23 3.1 0 1.02.19 2.93-1 1.23-1.49-2.13.04-1.93-.87-2.3-.12-.09-.16-.13-.32-.24h-.46c-.44.19-.45.31-.77.53l-.28.37c-.19.45-.08 1.08.03 1.47h-.23c.42.32.53.37.51 1.07.49-.09-.01-.14.81.73.38.41.57.56 1.1.63-.02-.05-.27.04.53.33.52.19.95.19 1.07.26.54.26-.11 1.26 1.01 1.55zm10.59-7.94c0-1.89 1.8-.86 2.07-.3.58 1.19-.44 3.32-1.73 3.59-.46-.73-.34-2.33-.34-3.29zm-3.21-3.68c0-.35.34-1.02 1.03-1.07l-.02 1.53-.46.33-.55-.41v-.39zm-9.75 0c0-.27.17-.53.32-.7.19-.21.29-.3.6-.37.18.3.11.07.11.87 0 1.5-1.03.58-1.03.58v-.39z" style="fill:#0f0"/></svg>