<svg xmlns="http://www.w3.org/2000/svg" xml:space="preserve" width="85.675" height="57.373" style="shape-rendering:geometricPrecision;text-rendering:geometricPrecision;image-rendering:optimizeQuality;fill-rule:evenodd;clip-rule:evenodd" viewBox="0 0 993.56 665.35"><path d="M3.93 445.16h280.99c4.44 35.61 12.18 65.84 22.63 83.54 15.65 26.5 43.26 31.08 66.31 38.14 51.12 15.66 105.47 20.46 158.11 16.46 31.64-2.4 124.08-17.75 146.42-43.7 15.42-17.91 24.76-50.76 30.15-94.44h281.05c-3.38 45.78-8.93 86.41-16.67 115.35-5.87 21.96-8.49 28.39-21.01 37.3-9.36 6.66-21.56 12-31.68 15.78-50.18 18.76-90.1 22.66-140.1 32.24-24.34 4.66-49.25 5.28-73.74 9.16-17.94 2.84-148.12 7.46-151.18 10.36H437.38c-4.55-4.24-64.03-3.44-75.32-4.64-24.95-2.65-50.19-2.79-75.12-5.66-63.3-7.32-182.83-19.39-244.79-57.07-12.44-7.57-15.83-16.18-21.57-37.74-7.78-29.18-13.31-69.63-16.66-115.08z" style="fill:red"/><path d="M3.63 222.35h280.75c-6.29 55.63-5.97 123.36-2.92 182.69.75 14.67 2.02 28.94 3.76 42.41H4.1c-5.35-70.52-5.42-153.44-.47-225.1zm705.75 0h280.6c4.94 71.52 4.78 154.59-.56 225.1H708.26c.77-6.04 1.47-12.3 2.09-18.76 3.85-40.08 4.3-133.1 1.63-174.92-.72-11.34-1.59-21.78-2.61-31.42z" style="fill:#ff0"/><path d="M353.1 0h274.93c61.86 3.57 120.04 9.48 169.12 17.47 29.31 4.77 145.36 23.7 166.64 57.32 5.28 8.34 11.98 35.76 15.01 52.09 5.12 27.64 8.91 61.46 11.37 98.22H709.66c-11.44-113.4-42.43-117.12-90.92-131.29-47.75-13.95-108.51-23.42-157.4-16.06-34.39 5.19-121.95 15.47-146.72 44.23-16.09 18.69-25.55 56.9-30.55 103.11H3.44c2.41-35.97 6.07-69.2 10.97-96.73C24.5 71.58 32.26 66.39 58.13 54.03 102 33.07 150.17 26.51 196.32 17.91 242.02 9.4 295.76 3.5 353.1-.01z" style="fill:#00a700"/></svg>