<svg xmlns="http://www.w3.org/2000/svg" xml:space="preserve" width="128.779" height="81.025" style="shape-rendering:geometricPrecision;text-rendering:geometricPrecision;image-rendering:optimizeQuality;fill-rule:evenodd;clip-rule:evenodd" viewBox="0 0 1092.27 687.23"><path d="M42.28 614.74c9.07 16.21 22.06 33.26 39.61 40.16 33.77 13.27 51.4-16.57 55.95-13.03 14.63 11.4 4.52 9.52 27.96 19.9 20.12 8.91 27.37.09 32.02 4.94 24.22 25.3 60.18 21.38 77.22-.78 6.65-8.64 26.11 20.3 58.78-3.77 19.12-14.09 14-.16 32.64 9.02 24.35 12 26.39 6.16 39.22 4.76 9.88-1.08 6.43-8.98 18.7-.86 8.7 5.76 35.24 6.34 40.91 3.48 20.34-10.24 17.83-9.68 25.57-4.32 8.93 6.19 31.85 8.03 46.14 2.42 15.67-6.15 12.58-9.32 22.5-2.13l20.16 5.65c30.88.71 33.5-9.83 39.95-9.83 1.18 0 28.47 17.7 52.36 6.63l13.52-6.19c9.42-4.73 20.48-20.03 22.71-20.03 2 0 5.57 8.09 7.39 10.04 16.99 17.81 30.3 31.75 59.54 24.45 7.73-1.93 18.68-11.42 24.74-17.89 17.22-18.39 29.7-54.1 34.05-78.44 4.42-24.72-2.21-26.77 17.04-15.89 14.05 7.93 42.83.45 54.62-11.34l34.02-25.91c3.69 61.33 7.49 97.22 37.92 130.9 18.03 19.95 46.17 23.9 65.36 12.69 19.74-11.55 42-49.34 46.71-86.35 10.72-94.1-12.25-254.75-37.04-339.54-18.9-64.68-39.38-107.62-71.31-148.8-32.93-42.47-48.25-55.29-89.86-70.69-48.43-17.92-102.45-18.73-149.39 10.95-17.19 10.87-7.59 12.93-29.6-4.73-18.16-14.56-37.51-11.78-55.58-4.19-6.94 2.73-5.49 5.88-13.39 1.46-9.52-5.32-24.02-1.22-30.35-2.94-28.64-7.79-38.16 5.04-40.42 5.04-6.24 0-26.05-18.64-58.65 1.22-7.1 4.33-9.3-4.38-24.68-7.69-33.53-7.24-39.99 18.93-50.82-.31-22.67-40.27-74.46-46.48-103.2-1.01-6.39 10.1-24.22-8.9-50.27 6.19-9.81 5.68-20.04-18.4-60.99 2.6-16.45 8.43.2 5.76-26.89-6.82-16.76-7.78-30.73-4.37-46.4 3.12-4.01 1.91-13.67-8.56-22.84-10.76l-27.67-2.78c-14.75-3.64-44.49 7.01-57.61 18.15C21.52 59.42 11.85 89.35 5.7 114.84c-9.47 39.22-4.14 81.54-4.21 124.01-.16 67.99-.52 77.56 13.76 140.99 15.66 69.55-12.04 158.97 27.13 234.89l-.04.02z" style="fill:#fff"/><path d="M310.04 48.74c8.78 0 .79 3.34 20.96 3.51 17.17.14 15.95-42.34 69.26-32.27 24.48 4.62 34.03 35.96 40.29 36.52 9.38.84 6.85 4.79 16.86-1.66 15.33-9.9 33.59-6.38 48.14 4.26 6.87 5.03 5.79.24 29.52-9.02 11.75-4.59 26.04 3.12 35.35 7.67 4.28 2.09 3.11-1.99 15.4-6.01 6.03-1.97-2.73-2.94 16.52-2.94 4.71 0 6.48 3.54 11.44 3.54 11.15 0 21.48-1.94 31.26 4.16 5.23 3.26 7.52.97 19.82-6.22 15.61-8.09 35.63-2.16 49.99 12.28 17.97 18.1 16.44 8.61 36.36-4.21 45.51-29.29 113.45-21.33 160.4 2.63 119.79 61.13 160.47 277.64 169.52 448.08 2.81 54.05 3.88 95.66-21.02 133.14-25.44 38.27-72.2 34.91-94.75-17.14-23.78-54.88-10.34-127.14-22.99-113.19l-39.61 32.87c-39.19 33.7-67.73-3.89-72.62-3.95-4.28 15.6-.06 36.15-15.5 76.96-11.97 31.66-33.51 61.17-69.36 48.9-12.15-4.16-26.75-21.58-32.54-34.88-5.4-12.39-9.74 9.27-27.41 20.34-41.91 26.24-55.45-.62-65.18-.62-7.56 0-24.59 22.48-58.13 5.64-18.91-9.49-5.66-5.74-25.49 1.8-38.87 14.78-46.9-13.63-57.04-5.77-31.58 24.48-57.91-2.84-63.78-.23-18.86 8.36-24.82 11.27-45.39 1.85-15.5-7.11-16.63-26.57-37.01-11.15-9.42 7.13-14.37 9.99-27.57 9.99-23.67 0-24.54-16.6-32.67-6.01-5.56 7.25-18.52 16.75-27.44 18.65-14.78 3.15-29.93-3.32-40.91-13.11-11.42-10.17-6.11-4.45-13.32-4.45-22.38 0-19.6-1.96-35.97-10.51-8.48-4.43-14.96-17.5-19.38-17.5-.15 0-43.32 51.36-82.66-11.21C11.07 534 42.15 445.99 23.25 368.22c-16.83-69.23-10.59-110.4-12.85-182.4-1.76-56.09 6.87-132.06 71.16-143.91 16.99-3.13 46.72-1.44 62.16 11.57 5.16 4.35 3.54 4.11 18.6-3.72 4.63-2.71 27.05-4.16 31.96 1.01l13.24 8.09c11.12 9.08 3.41 8.49 24.97-4.52 15.57-9.39 31.56-4.75 45.75 2.5 8.49 4.33 9.46-8.01 31.81-8.01l-.04-.06zm55.76 104.43c1.87 3.5 9.68 7.07 15.92-6.14l3.46-7.18c9.95 8.48-.09 12.54 14.98 15.53 12.24 2.42 0-13.87-.57-15.09-13.58-28.49-19.1-15.23-27.67-.15-2.55 4.39-5.85 7.99-6.09 13.03h-.03zm218.68 23.82c0 21.87 6.35-.25 6.35 32.22 0 11.84.26 80.16-2.03 88.22-1.89 6.69-9.05.14-9.05 16.88 0 15.35 10.28 16.13 32.77 11.83 18.72-3.58 23.07-33.38 1.12-28.17-5.02 1.2-8.19 4.06-8.19-2.6l.88-101.46c1.33-10.57 26.4-4.4 26.4-21.17 0-25.87-19.31-6.66-30.07-13.32-4.5-2.78-4.81-5.38-9.83.81-3.15 3.89-8.38 10.66-8.38 16.72l.03.03zM300.55 196.6c0 9.81.42 82.97-.47 93.87-1.22 15.16-6.73 6.66-9.81 16.15-10.75 33.21 37.35 18.37 39.56 16.88 10.7-7.22 14.03-32.24-7.85-25.18-1.46.47-6.37 3.56-6.37-1.48 0-16.75-.47-91.55.39-102.34.62-7.83 4.75-4.2 20.55-11.26 5.67-3.09 5.57-5.54 5.57-13.24 0-19.95-17.87-8.17-24.5-8.43-3.95-.16-5.62-3.15-8.38-4.81-4.05-2.46-18.53 14.29-13.99 29.05 1.56 5.12 5.36 3.8 5.36 10.82l-.05-.02zm-71.58 325.16c0 7.28-.21 21.9.54 28.45 1.33 11.5 14.09 18.42 14.49-13.73l1.2-40.65c6.44-2.65 37.26 2.98 39.35-12.3 4.54-33.14-32.78-8.75-38.55-13.63 0-14.41 1.59-26.14 1.59-40.65 2.12-5.82 35.32 7.31 39.69-8.84 5.94-21.94-9.71-18.35-36.54-20.6-16.49-1.38-17.58-3.07-18.98 36.44l-2.79 85.52zm160.55 31.52c10.63 0 9.04-15.11 11.44-34.39l4.22-40.89 9.52-56.02c11.12-34.96-6.81-43.47-12.09-18.59l-9.89 49.78c-1.04 5.82 0 8.43-2.83 11.78l-14.49-82.24c-3.76-6.66-8.93-.86-10.53 8.42l20.45 158.34c.86 1.22 2.94 3.74 4.21 3.74v.06zM229.36 322.01c54.89 0 37.64-32.26 30.85-32.28-.03 0-34.25 12.21-38.13 1.04-6.24-17.96 21.14-107.52 30.59-107.52 7.52 0 10.56 27.33 17.79 27.33 21.95 0-15.06-113.33-46.04-13.6-8.22 26.48-24.07 78.77-17.09 104.45 4.04 14.89 17.04 23.38 22.03 20.57zm289.09 0c7.36 0 20.99.18 26.92-2.78 10.6-5.35 13.39-5.72 13.39-20.34 0-3.2-4.37-10.74-10.14-8.84l-13.13 4.03c-25.42 4.73-27.45-3.62-20.75-32.54 2.34-10.1 20.49-85.14 30.87-77.43 6.78 5.03 9.91 26.5 15.5 26.5 22.36 0-13.25-112.49-45.39-13.89-8.25 25.32-26.5 83.51-15.27 110.2 3.86 9.17 14.8 17.09 18 15.1zm-165.31-13.32c0 15.63 9.78 18.68 17.97 16.41 3.7-1.03 42.12 4.44 29.99-24.97-3.23-7.83-25.38.68-31.73-1.95l1.98-30.85c2.7-4.97 28.65 3.59 33.34-3.31 5.49-8.09 1.04-18.83-1.98-20.75-4.73-3.02-29 2.21-29-9.6.31-50.14.11-38.44 10.64-36.36 9.06 1.79 16.63 4.39 20.83-.37 3.67-4.14 3.64-14.02 1.48-18.18-3.69-7.07-18.21-6.53-23.67-9.21-15.45-7.58-7.07-5.17-16.98 3.49-9 7.87-5.82 28-7.1 43.49l-4.48 76.88-1.3 15.27zM69.59 166.42l1.56 84.01c-.08 8.48-2.34 73.84 9.81 64.5 8.34-6.42 5.99-68.72 5.54-81.8-.73-21.95.13-31.55.05-49.88-.04-10.83 3.61-11.62 23.7-8.3 13.01 2.15-8.57 45.15-14.54 53.32-13.81 18.91-3.31 30.04.34 30.04 4.82 0 46.7-58.25 28.87-98.81-4.74-10.8-10.97-12.61-23.33-12.61-26.79 0-16.03 4.23-24.14 4.94-6.2.54-7.91 5.61-7.91 14.72l.05-.12zm23.1 362.04c2.89 7.04 9.76 6.82 11.47-3.64l1.02-132.02c7.56-3.13 16.88-.68 19.38-.68 12.74 0 7.14 14.52 4.5 24.03-7.19 25.93-28.79 39.34-19.43 55.69 10.42 18.19 34.61-44.85 37.3-58.36 1.98-9.94 1.32-36.67-8.58-43.72-14.1-10.07-29.93-3.38-44.37-.08-8.25 4.76-5.38 20-4.91 33.37.39 18.04-.75 112.88 3.64 125.42v-.01zm66.29-146.2c1.22 32.69.28 110.06 7.62 136.47 3.94 14.18 15.45 32 28.4 15.61 2.42-3.07 4.63-9.83 7.91-9.83 1.47 0 10.16 12.67 12.12-8.69.47-5.18.16-15.68.16-21.46.4-20.39 7.4-94.46-.13-104.86-15.77-21.8-12.86 54.05-18.29 79.25-2.66 12.34-.69 19.7-8.25 39.35-7.22 18.79-12.12-22.18-12.1-29.81.05-15.43-1.07-93.97-5.02-102.53-4.36-9.45-12.38-2.15-12.38 6.5h-.04zm421.97 105.13c0-10.78 1.37-73.08 9.47-82.71 2.08 3.2 3.54 7.2 5.15 11.21 9.02 22.49 16.4 10.02 10.59 67.78l-14.8 40.34c-12.04 17.4-10.4-23.88-10.4-36.67v.05zm-15.03-11.21c0 17.88-3.45 64 12.04 77.48 4.55 3.95 13.6 1.4 17.48-2 12.41-10.93 26.26-53.26 26.61-70.57.31-15.45 2.08-37.77-1.14-53.37-2.11-10.17-7.78-34.25-14.3-36.98-5.23-2.19-3.36-4.99-8.69-11.24-17.74-20.76-27.33 33.59-29.18 47.08l-2.86 49.62.05-.02zm83.05 6.29 4.78-62.32c4.14-25.61 6.55-12.39 11.21-1.04 5.71 13.92 9.64 6.27 10.82 28.43 2.85 53.58-22.98 99.15-25.57 72.59-1.98-20.39-1.28-12.43-1.28-37.66h.03zm-15.03-9.1c0 12.89-3.98 81.98 17.4 81.98 24.11 0 31.85-43.41 37.32-62.84 5.97-21.19 2.25-81.73-10.17-98.08-5.05-6.63-4.97-2.21-7.13-6.29-18.22-34.28-29.53 9.21-32.88 25.93l-4.53 59.3h-.03zm-121.02 12.61c0-3.11.84-77.53 9.88-81.28l9.62 21.56c1.3 1.85 2.16 1.69 3.38 3.85 10.25 18.13 1.93 60.6-5.96 80.94-3.5 9.03-13.86 28.5-16.28 8.25l-.65-33.32zm-15.42-11.21c0 21.89-2.64 54.75 8.38 74.13 5.89 10.35 19.04 7.67 24.45-.52 25.39-38.48 31.72-96.57 17.84-138.94-7-21.39-8.01-16.26-12.04-20.03-1.39-1.3-16.96-38.54-31.76 13.5l-6.92 71.84.05.02zm-53.01 6.99c0-.03 3.39-83.9 10.35-75.87l5.23 11.86c4.98 14.2 7.43 6.32 11.21 22.86 3.06 13.36-.73 46.9-6.87 63.07-20.57 54.2-19.89 6.75-19.89-21.95l-.03.03zm-15.42.7c0 10.93-1.2 72.87 16.59 72.87 19.7 0 22.97-16.67 32.1-38.47 11.12-26.58 11.96-73.41 3.9-101.72-9.16-32.95-11.55-20.29-15.14-27.83-13.91-29.21-25.56-.24-29.81 14.77l-7.64 80.37zm30.85-220.73-16.73-85.98c-7.39-26.11-14.62-10.69-16.15 7.41l-6.01 93.76c-.75 10.18-3.35 33.16 7.23 33.16 10.59 0 7.71-54.76 11.47-59.56 1.81 12.25 11.66 54.84 17.06 62.99 16.89 25.5 20.84-72.63 23.38-85.88l4.11-66.5c-1.48-4.29-5.46-6.58-9.02-4.6-6.26 3.46-10.94 80.99-12.46 87.94l-2.89 17.35v-.08zm-301.33-28.04c0-14.87 21.35-91.31 21.02-20.31-.08 16.65 3.62 20.05-8.3 20.31-4.65.1-7.47 2.81-12.25 2.81-.26-2-.39-1.2-.39-2.81l-.08-.01zm-2.76-58.15c-2.95 0-15.45-24.84-15.45 28.68l-.03 112.86c.26 10.98 11.44 19.15 14.07-.37l1.38-38.23c-.01-9.83-1.08-12.56 9.39-15.63 2.31-.68 14.36-6.24 14.36.21 0 18.39-4.27 49.76 5.15 49.76 9.86 0 7.33-2.73 9.73-30.41.61-6.95 9.56-151.51-25.51-125.1-6.48 4.88-11.2 18.13-13.11 18.13l.02.1zm161.33 279.62c-3.4-9.06 10.23-53.97 16.26-53.97 3.98 0 4.22 37.73 4.45 41.98.6 11.21-4.08 5.49-17.66 10.98l-3.05 1.02zm-3.17-60.96c-4.23-1.76-15.72-30.13-15.86 39.22l-.39 98.11c0 6.4 3.09 14.72 7.52 14.72 10.56 0 7.93-28.27 7.91-46.25-.03-14.41.23-16.1 6.61-17.71 12.31-3.12 18.86-12.5 17.48 10.61-.34 5.41-1.2 29.93 1.07 34.75 2.08 4.42 9.28 4.16 11.18.23 4.3-8.91 15.2-214.03-31.42-141.15-1.61 2.63-2.68 5.28-4.11 7.47h.02zM662.4 233.7c0-5.49 21.35-104.73 21.35-7 0 5.79.83 6.01-11.1 7.67-7.12.99-10.25 5.4-10.25-.68zm-2.76-57.45c-16.91-19.95-14.13 11.79-15.09 27.91-.57 9.62-1.56 92.02-.83 101.2.26 3.41-1.38 22.94 7.62 22.94 14.58 0 3.08-55.73 10.53-61.9.7-.58 19.47-10.6 21.9-3.95 0 3.15-1.2 18.21-1.2 27.33 0 21.33.16 23.12 9.49 23.12 10.16 0 6.82-103.82 5.85-118.32-.84-12.45-6.01-52.27-24.34-37.77-6.94 5.49-10.35 13.68-13.97 19.43h.03zm85.02 224.95c0-29.93 8.53-80.97 14.38-111.11 2.7-13.88 13.94-9.81 16.75-3.67 3.76 8.21 3.36 82.5-9.81 102.78-3.99 6.15-13.3 16.57-20.16 17.58-.81-2.16-1.2-2.21-1.2-5.62l.03.03zm-16.2-152.77c0-31.01 33.5-62.83 22.26-43.93-3.04 5.2-7.65-1.3-7.65 15.19 0 18 12.1 21.75 7.73 36.13-2.44 8.03-22.39-.59-22.39-7.41l.05.03zm-13.45-.7c0 21.26 13.66 25.56 28.17 29.29 5.95 1.53 2.74 9.82 1.01 20.31L733.21 415.9c0 22.41 1.16 25.67 18.57 9.78 15.91-14.53 19.04-27.83 10.17 54.51-1.43 13.29-8.96 67.12-5.83 77.27 3.03 9.81 9.66 3.45 11.26-8.82l20.39-258.21c.38-10.27 5.93-5.63 17.01-12.61l21.35-3.49c6.2 0 33.29 144.37 34.51 159.59 2.35 29.32 14.17 17.58 42.74-6.58 7.07-5.98 35.87-32.78 35.87-43.7 0-15.88-16.86 3.47-20.13 7.05-6.5 7.12-37.35 39.22-46.32 39.22l-8.03-40.39-23.07-119.58c-2.12-10.33 26.83-10.44 23.36-27.93-2.06-10.36-26.94 1.61-26.95 1.61-7.39 4.73-7.23-7.02-.47-8.53 5.85-1.3 8.84-12.22 5.02-16.54-.99-1.12-2.89-1.2-4.21-2.34-1.17-8.87 1.04-9.81-5.93-9.81-4.73-17.63-2.65-.39-9.78-7.73-4.27-4.37-4.53 1.59-7.15 5.7-5.36 7.26-1.25 13.32-1.25 22.31 0 2.37-7.31 13.21 1.51 17.66 2.47 1.25 5.23 3.02 5.23 8.27 0 4.1-9.55 6.06-16.54 9.18-9.38 4.19-37.9 2.68-40.06.75-3.33-2.99-3.56-16.72 1.9-22.11 2.31-2.29 11.21-12.43 11.21-16.57 0-8.22-3.9-6.22-7.52-7.7 1.04-26.09-1.28-15.32-11.73-19.38-8.25-3.2 30.67-29.16 31.68-29.52 38.94-14.3 106.04-1.09 140.45 46.27 41.31 56.87 51.09 98.45 65.1 174.96 8.7 47.49 12.3 96.52 14.18 145.39.39 10.09 2.76 33.45 11.65 24.99 2.51-2.38 3.1-361.48-150.8-405.32-57.04-16.26-95.38-15.16-140.37 49.5-5.13 8.33-15.14 34.9-15.14 44.68l-.08-.02zM42.29 614.69c9.07 16.21 22.06 33.26 39.61 40.16 33.77 13.27 51.41-16.56 55.95-13.03 14.63 11.4 4.52 9.52 27.96 19.9 20.12 8.91 27.37.09 32.02 4.94 24.22 25.3 60.18 21.38 77.22-.78 6.65-8.64 26.11 20.3 58.78-3.77 19.12-14.09 14-.16 32.64 9.02 24.35 12 26.39 6.16 39.22 4.76 9.91-1.08 6.4-9 18.7-.86 8.7 5.76 35.24 6.34 40.91 3.48 20.34-10.24 17.83-9.68 25.57-4.32 8.93 6.19 31.85 8.03 46.14 2.42 15.67-6.15 12.58-9.32 22.5-2.13l20.16 5.65c30.88.71 33.5-9.83 39.95-9.83 1.18 0 28.47 17.7 52.36 6.63l13.52-6.19c9.36-4.7 20.48-20.05 22.71-20.05 2 0 5.57 8.09 7.39 10.04 16.99 17.81 30.3 31.75 59.54 24.45 7.73-1.93 18.68-11.42 24.74-17.89 17.22-18.39 29.7-54.1 34.05-78.44 4.42-24.72-2.21-26.77 17.04-15.89 14.05 7.93 42.83.45 54.62-11.34l34.02-25.91c3.69 61.33 7.49 97.22 37.92 130.9 18.03 19.95 46.17 23.9 65.36 12.69 19.74-11.55 42-49.34 46.71-86.35 10.72-94.1-12.25-254.75-37.04-339.54-18.9-64.68-39.4-107.62-71.31-148.8-32.93-42.47-48.27-55.29-89.86-70.69C842.96 16 788.94 15.19 742 44.87c-17.19 10.87-7.59 12.93-29.6-4.73-18.16-14.56-37.51-11.78-55.58-4.19-6.94 2.73-5.49 5.88-13.39 1.46-9.52-5.32-24.02-1.22-30.35-2.94-28.64-7.79-38.16 5.04-40.42 5.04-6.24 0-26.05-18.64-58.65 1.22-7.1 4.33-9.3-4.38-24.68-7.69-33.53-7.24-40 18.94-50.82-.31-22.52-40.09-74.35-46.64-103.2-1.01-6.39 10.1-24.22-8.9-50.27 6.19-9.81 5.68-20.05-18.39-60.99 2.6-16.45 8.43.2 5.76-26.89-6.82-16.76-7.78-30.73-4.37-46.4 3.12-4.01 1.91-13.67-8.56-22.84-10.76l-27.67-2.78c-14.75-3.64-44.49 7.01-57.61 18.15-21.11 17.93-30.78 47.86-36.93 73.35-9.47 39.22-4.14 81.54-4.21 124.01-.16 67.99-.52 77.56 13.76 140.99 15.66 69.55-12.04 158.97 27.13 234.89l-.04.05z" style="fill:#000"/></svg>