<svg xmlns="http://www.w3.org/2000/svg" xml:space="preserve" width="249.853" height="129.19" style="shape-rendering:geometricPrecision;text-rendering:geometricPrecision;image-rendering:optimizeQuality;fill-rule:evenodd;clip-rule:evenodd" viewBox="0 0 165.33 85.49"><defs><style>.fil8{fill:#ca6b7b}.fil10{fill:#e5ded6}.fil6{fill:#fafafa}.fil2{fill:#fcfcfc}.fil4{fill:#fdfd00}</style></defs><g id="Camada_x0020_1"><g id="_2087168121456"><path d="M136.51 11.63c-.27-1.08-.53-.46-.64-2.05-.19-2.67-1.47-7.36-4.52-4.86-1.16.95-2.51 1.73-3.32 3.04-2.25-.56-2.03-2.28-3.6-2.28-1.56 0-1.89.59-2.61 1.98-1.35 2.61-1.19 3.02-.99 5.54-1.22-.11-2.61-.46-4.03-.46-.83 0-1 1.6-3.18 1.6-3.16 0-2.3-3.19-7.84-3.19-.24 1.1-1.58 2.42-.42 5.01-5.3 3.02-3.33.68-5.94.68-1.25 0-1.64.47-2.47.99-5.18 3.18-3.68-1.44-6.43-1.44-2.08 0-2.39.66-3.44 2.46-1.91 3.28-.71 4.12-4.17 2.75-.61-.24-1.54-.54-2.32-.72-.89-.2-3.66.29-5.34.29.61-2.75-1.57-3.79-2.93-5.97-.71-1.13-2.58-3.9-3.51-4.66-1.55-1.27-6.99-2.56-9.25-2.82-3.62-.42-7.42-.25-11.12-.81-3.5-.53-7.31-1.12-10.78-.39-6.34 1.33-3.93 3.03-7.81 4.6l-5.79 2.21c-1.95.85-1.53 2.05-4.06 4.07-1.53 1.23-2.88 2.57-4.33 3.78-.78.66-1.44 1.21-2.17 2-1.67 1.8-2.15 1.61-4.01 4.13-1.8 2.44-3.57 4.91-4.79 7.84-2.79 6.72-1.55 4.57-2.85 9.7-.24.95-.81 2.25-.81 3.46 0 1.16.46 2.79.4 3.41-.07.69-.22.6-.63 1.12-.11.14-.83 1.11-.83 1.16 0 2.39 3.15 6.47 4.62 8.26l2.33 2.96c2.27 2.81 5.75 7.61 8.48 9.57 3.67 2.63 13.78 6.34 17.94 7.61 5.76 1.75 13.05 2.38 20.05 2.38 1.57 0 2.19-.2 3.12-.97.85-.71 1.58-1.32 2.39-1.99 2.07-1.74 4.73-4.51 6.74-5.98.87-.64 2.47-.41 3.87-.4 2.8.01 4.74-.92 7.63-.92.88 0 .89 1.37 5.51 1.37.26 1.2 1.1 2.45 1.82 3.28l1.35 1.28c2.25 1.5 4.33.19 5.08-2.29.22-.72.44-5.07.44-6.14.2.24 0-.08.27.39l.73 1.73c.95 2.07 3.42 3.81 5.78 3.81 3.8 0 2.69-.58 5.24-1.45.82-.28 3.47.71 4.35.95 3.14.84 1.47.63 2.43 3.31.92 2.55 3.99 2.91 5.92 1.66 1.55-1.01 2.8-1.53 3.82-3.19.44-.73 1.16-1.64 1.36-2.42.85.21 1.55.81 2.42 1.04 1.25.33 2.16-.16 3.04.6 1.41 1.23.48 3.6 4.07 3.6 3.14 0 4.81-3.29 6.43-2.37.68.38 1.37 1 2.27 1 2.35 0 2.48-1.91 4.03-2.05.61 2.81 2.6 7.07 5.72 7.07 2.6 0 4.24-.28 4.44-3.43.14-2.16.27-4.84.58-6.67.38-2.23 2.51-2.22 4.13-2.85 3.42-1.33 4.64-5.21 1.55-7.66-1.09-.87-2.67-.9-4.13-1.26 0-1.78.47-2.87.76-4.43.54-2.87.6-5.82.25-8.74-.06-.47-.73-3.4-.71-3.49.16-.72 2.03-.53 2.83-.95.98-.52 1.11-1.66 1.11-3.14 1.05-.54 1.06-.32 1.06-1.6 0-1.39-.21-1.66-.21-2.96l4.45-1.14c0-7.29-4.29-4.61-6.52-7.58-.49-.66-.82-1.61-1.28-2.27-.93-1.32-3.5-1.53-4.89-2.04-.72-.26-1.95-.81-2.78-.88.29-1.16 1.91-2.49 1.91-3.19 0-8.9-3.8-6.33-5.3-7.3-.86-.55-1.43-4.59-1.85-5.76-1.06-2.97-1.48-8.14-5.15-8.14-1.6 0-1.28 3.92-1.54 5.64-.11.76-.55 1.87-.71 2.88-.21 1.31.07 2.48-.72 3.1z" style="fill:#000"/><path d="M59.46 77.85c-9.32 4.01-20.44 3.17-29.6-1.22-.76-.37-2.77-1.62-3.23-1.73 1.74-.02 8.39 4.13 15.35 4.65 8.61.64 15.31-2.4 17.48-1.69zm-37.41-5.02c-.82-.32-2.07-1.13-2.83-1.63-1.7-1.09-2.1-.8-2.2-1.84 1.22.45 4.72 2.41 5.03 3.47zM2.99 53.8c1.03-1.24 1.63.8 1.8 1.85-.86-.26-1.7-.95-1.8-1.85zm2.49 3.61c.4-2.6-.26-2.3-.58-4.26 1.75.94 1.51 2.32 1.32 4.92.89.59 1.14.36 1.57 1.37-.85-.3-1.4-.71-2.16-1.2-.63-.4-1.34-.63-1.5-1.7l1.35.86zM17 26.82c.21-.9.66-1.27 1.22-1.68-.02 1.27-.39 1.23-1.22 1.68zm5.67-9.5c-2.01.76-10.55 8.83-12.67 11.67a27.8 27.8 0 0 0-1.37 1.95c-4.9 7.7-3.98 9.69-5.49 15.53-.88 3.41.33 3.27.27 5.97-.89.76-1.03.96-1.69 1.6.85 2.6 3.41 5.83 4.76 7.61.54.71.71 1.2 1.22 1.87.48.64.97 1.01 1.47 1.62 1.24 1.52.6 1.19 2.71 3.46 2.5 2.68 2.57 4 6.44 5.85l8.19 3.73c8.3 3.53 15.91 4.81 24.99 4.87 4.18.02 3.36-.26 8.01-4.22.95-.81 2.44-1.79 3.05-2.91-3.63.39-4.88 1.44-8.82.32-1.18-.34-6.45-2.47-7.28-3.06.21-2.25 1.4-1.54-.35-4.01-1.89-2.66-7.07-.43-13.04-.12-4.86.26-14.31-.76-16.65-4.06 1.34.49 2.32 1.34 4.05 1.89 1.52.48 3.05.72 4.71.9 3.52.39 7.05.44 10.65.37 16.4-.33 11.04-7.28 7.06-7.06l.21.77v.16l-.03.31c-4.21 1.32-9.57 1.4-10.68 1.68-2.37.62-6.47.43-5.7.07-.94-.55-2.36-.57-3.42-.99l-7.13-4.58c-.49-.26.02-.11-.71-.25-1.19-.06-2.4-1.59-3.28-2.25-1.94-1.46-5.52-3.49-5.61-5.86-.06-1.53.55-3.8 1.28-4.54l.37 1.95c.57-1.09.59-1.6 1.03-2.77.71-1.9 3.02-5.8 4.43-6.5l-.29 1.59c1.67-.98 3.04-3.26 5.68-3.66-.38.71-.33.23-.37 1.17l7.7 6.98c1.52 1.21 2.41 2.35 3.9 3.54.61.49 1.39 1.38 1.99 1.74.77.46 1.84.52 2.54.98l-.98-.01 2.97.86-.06-.59c1.04-.06 1.48.46 2.7.43 1.07-.02 1.65-.43 2.75-.47.15.21.38-.29 0 .37l2.44-.25.1-.53c.79.01 1.55.06 2.33.13.38.03 1.7.31 1.96.03.45-1 .32-2.15-.34-2.88-.86-.95-1.96-.39-3.25-.61-.74.63-1.24.57-2.4.51-.8-.04-1.58-.18-2.39-.32-.42.41-.13.3-.62.34-.34.03.02.75-.39-.12-.04-.09-.16-.04-.2-.11-2.28-.19-3.28.14-5.46-.76-.82-.34-1.42-.63-2.2-1.04-2.34-1.24-2.07-.92-1.55-1.23l-2.02-1.81c-1.08-.35-2.2-1.89-2.89-2.8-1.04-1.36-1.86-1.59-1.78-4.01.07-1.84.18-3.55 1.26-4.57.95-.9 2.54-1.41 4.25-1.45 6.1-.14 2.9 2.91 3.99 7.21.4 1.59 1.07 2.85 1.73 4.06.69 1.26 1.73 2.33 2.2 3.74-1.46-.52-.48-.93-2.68-.81 1.11.69 1.74-.27 1.76 1.86.45.55.25.56.62 1.04l1.26-.16c.09-2.03-.64-2.97-1.3-4.48-3.84-8.75.4-11.84-3.33-14.02l.24-.34c.63-.72.63-.74.51-1.92-.09-.93-.15-1.45-.35-2.26-2.65-.41-1.88-.05-2.84.14-1.23.24-2.08-1.21-1.75-2.79.16-.77 1.25-2.43 1.65-3-1.33.18-3.15 1.13-4.38 1.67-1.33.58-2.92 1.58-4.1 1.98.47-1.54 4.82-3.26 6.34-4.06.19-.51.83-1.21-.29-1.07-.28.04-1.28.56-1.67.72-1.33.52-2.55.01-3.99.06z" style="fill:#707070"/><path class="fil2" d="M90.42 30.23c-1.91.28-1.88-1.94.27-2.01l-.27 2.01zm5.49 5.63c-.01-.03-.06.08-.09.12-.8-.58-1.33-3.24-1.83-4.69.59-.47 1.39-.93 2.23-1.2l-.66-1.36 1.05-.72-3.4.78c-2.81-6.9-.47-5.34 1.77-5.54 1.01.98-.25 1.01 2.97.92.32 2.54.36 4.58.77 7.16.33 2.09-1.55 2.04-2.31 3.49l-.49 1.04zm19.56-10.21c.23-1.63.64-1.89 1.12-3.08 1-2.49 0-2.31 1.16-2.72.41 1.4.78 3.28 1.14 4.81 1.09 4.65 1.75 2.27 1.64 3.98-1.04.22-.66.04-1.34-.66l-3.73-2.33zm-14.54-1.67c6.61-.3 3.86 6.63.83 6.8-.11-1.21-.16-2.4-.26-3.62-.1-1.1-.48-2.14-.57-3.18zm7.73-3.13c.37 3.03 1.19 6.05-.97 6.34-.6-1.52.44-1.7-.82-3.27-.43-.54-6.36-3.65-1.88-3.01 1.4.2 2.32-.25 3.67-.05zm3.69 2.45c-1.59-1.53-1.35-3.72 1.84-2.98-.23.51-.44 1.01-.76 1.59-.26.49-.63 1.11-1.08 1.39zm-22.23-2.5-.45 1.71-1.69.11c-.33 1.78-.99 3.4-1.34 5.14-.4 2.04-.17 3.98-2.07 4.57-1.32-1.5-.81-4.95-.73-7.25-.63-.7-1.69-1.27-2.62-1.77-1.32 2.34-1.17 3.77-3.21 5.37-.66-.58-1.26-1.1-1.96-1.73-.72-.65-1.18-1.28-1.87-1.87-.6-.52-4.05-2.38-4.78-2.64.53 1.74 1.12 1.62 2.15 2.75 1.28 1.41.78 2.04.73 4.22-.03 1.68.13 3.51.31 5.17.22 2.04.22 2.98 2.33 3.04 1.11-2.66.54-3.49.76-6.55 1.32.85 2.53 2.59 3.96 1.49.54-.41.47-.69 1.15-1.15.61 3.13.63 6.09 1.13 9.29 2.28.41 2.32-4.65 2.4-6.93l1.35.42-.16 2.51 1.38-.22c.37.55.23.65.86.94.71-3.1.65-4.61 3.87-4.81 1.09 3.68 1.24 4.12 3.16 5.43 1.15.79.45 1.34 1.65 1.35.35-.75.09-1.33-.11-2.06 2.22-1.72 3.5-.88 5.82-.26.02-1.81.03-2.25 1.24-2.92 4.96-2.74 4.7-6.53 5.95-5.44.32.28.26 2.06.28 2.54.04.87.1 1.81.23 2.66 1.05-.42.86-.12.99-1.3.33-2.96.79.38 2.3-5.26 2.96.33 4.37 2.51 6.13 3.72.97.67 1.32.2 2.58.2.61.96 1.42 2.01 2.84 2.25-.51-1.15-1.14-1.71-1.72-2.5l3.36-.48-.17-1.61c2.53-3.29 1.44-3.76 1.03-8.45-.36-4.07-.23-5.71-1.42-9.31l-.53-.03-.37 1.67-1.62-.27c.09 3.35 2.01 12.45-.33 14.07-.79-1.01-1.55-4.73-1.89-6.37-.57-2.73-.81-4.57-3.39-4.96l-.36 3.43c-1.53-.64.06-1.05-2.03-1.36-2.27-.34-4.85.15-5.79-.62-.85-.7-.54-1.23-1.73-1.64l.47 2.68c-3.03 1.36-3.57 2.89-7.76 2.96-3.45.06-5.81 1.2-9.15 1.52-.02-1.28.17-2.72-1.02-2.89l-.18 1.41z"/><path d="M24.59 16.75c.03-2.13.66-2.35 2.6-2.38-.35 1.44-1.15 2.01-2.6 2.38zm9.1 6.93c.19.82.25 1.33.35 2.26.12 1.17.12 1.19-.51 1.92 4.15-.53 1.37 4.84 2.59 6.71.12-.81-.11-1.24-.24-2.15 2.22.44.98.67 2.55 1.7 1.16.76 1.63.74 1.64 2.49-1.96-.18-1.46-.98-2.56-1.7-.53 1.07.53 2.18 1.32 2.39 1.72.46 2.5-.03 3.78-.38.08 1.03-.13 1.19-.43 1.87l.4-.01-.09.65.73-.33c.18.41.24-.38.12.72.97-.88 1.37-1.97 2.32-3.01.95-1.05 2.19-1.42 2.99-2.22-1.43-.94-3.95-1.5-5.77-1.88l3.33.21c-.04-2.98-1.12-4.71-.32-7.27.65.88-.06 1.83.54 3.24.56-.15.13.46 1.14-1.43 1.06-2 3.17-4.27 2.93-5.06.14-.61 1.29-2.61 1.76-3.58 1.1-2.28 1.27-.73 2.71-2.32.64-.71.32-.79 1.61-.89l6.49-1.74c-1.76-1.06-8.34.52-10.71.56 1.4-1.43 7.63-1.99 9.96-1.47 1.3.29 1.96 1.29 2.93.75-1.89-.96-3.09-1.85-5.63-2.17-2.27-.29-4.86.05-7.09.3-3.15.35-6.46 1.05-9.34 2.28-1.01.43-1.7.87-2.82 1.15 4.04-3.6 13.24-4.94 18.95-4.32 4.47.48 11.46 5.12 12.71 8.46.5 1.35.06 1.48 1.53 1.66.49-2.09-.9-3.34-1.8-4.57-3.46-4.73-2.58-4.73-7.15-5.99-5.6-1.54-11.41-2.01-17.15-2.58-4.03-.4-7.9.33-11.73.81 0 0-.05.55 1.13.64.96.07 3.04-.61 3.8-.25-2.69 1.62-5.8.29-6.34.24l-.35 1.04c1.21 1 4.07.5 5.71.58-1.46.83-3.59.44-5.31.13-2-.37-2.92.57-4.33 1.39-3.79 2.2-5.73.06-7.4 4.82 1.45-.04 2.66.46 3.99-.06.39-.15 1.39-.68 1.67-.72 1.12-.15.48.56.29 1.07.6-.11 3.25-.79 2.14.41-.4.57-1.49 2.23-1.65 3-.33 1.58.52 3.03 1.75 2.79.95-.18.19-.55 2.84-.14z" style="fill:#4e4e4e"/><path class="fil4" d="M121.72 40.99c.04 2.89-1.06 5.01-2.29 6.53-4.72 5.86-7.75 1.3-3.02-4.15 2.47-2.85 2.94-2.95 5.3-2.38zm9.67 2.19c1.2-.38.93-.67 1.22-1.7.62-.05 1.25-.12 1.55-.22-.08-.71-.96-.77-1.51-.9-.68.93-.96 1.22-1.26 2.82zm-76.16-2.39c1.1-.04 1.19.32 1.63.34l.21-1.01h.64l.01.82 2.87-.42c-1.11 1.23-1.95 1.25-3.08 2.17-2.23 1.8-3.26 3.46-4.85 5.95-1.1 1.71-.68 2.25.28 3.86 1.46 2.45 4.09 3.18 7.05 3.58 4.73.65 4.74-.69 8.67-1.4-.19-.91-.25-.93.31-1.48.47-.47.88-.7 1.42-.99l1.25.65c1.85-2.08 8.26-8.67 3.84-12.75-3.73-3.44-9.93-2.89-15.69-2.24-.16.83-.25.99-1.08 1.08l-.37-.73c-1.6.51-2.94 1.16-4.37 1.79-1.45.64-3.4.93-3.42 2.74 1.69-.77 3.36-1.81 4.69-1.97zm8.02 14.74c-.2-.33-.25-.4-.2-1.02l.72.43c-.25.57.08.25-.52.59zm-5.2-4.19c.14-3.36 2.67-6.12 5.44-7.45 1.42-.68 2.93-1.17 4.2-2.11 1.37-1.01 2.95-1.17 4.27.3 1.86 2.09-3.43 6.02-4.71 6.97-2.42 1.8-5.6 3.52-9.19 2.29zm42.89-9.24-.22-1.29-1.3-.04c-1.84.32-1.94 1.14-2.58 2.74-.46 1.16-.91 2.77-1.46 3.8-1.05-.04-3.02-.98-3.96-1.57-1.23-.76-3.02-.82-4.02-1.75.61-.41 1.66-.55 2.45-.7l2.22-.37c.49-.18.3-.11.57-.33-.68-.55-.89-.57-1.03-1.1.12-.04.77-.21.78-.22 1.08-.43.49-.09.67-.75-1.04-.31-1.19-.15-2.1.25-2.97-.02-8.49.42-9.3 4.1.96 1.24 5.46 2.44 7.4 2.97-.66 1.88-3.88 2.95-5.98 3.67-1.68.58-5.62 2.06-7.26 2.12l.42 1.85c1.48-.32 3.42-.15 7.29-1l5.16-1.05c.78-.31.56-.25.8-1.42 2.62-.29 3.13-1.49 5.04-2.31-.3 2.54-.96 4.25-1.14 7.21 1.31-.38 1.5-1.12 2.1-2.09.71.1.62.24 1.62.17 1.55-3.93 2.38-6.97 6.71-7.33-.13 1.1-.44 2.76-.4 3.85.13 3.54 4.29 2.78 4.76-4.28.73-.68 1.11-.58 1.73-1.53.57-.88.44-1.57 1.69-1.4-5.38 8.84 4.88 9.72 7.7 8.53.98-.42 1.2-.9 2-1.49 1.34-.98.84-.23 1.3-2.25l1.37-.07c1.98-4.78 2.52-8.72-2.23-10.57-2.19-.85-4.28-.72-6.38.11-1.39.55-4.11 1.63-5.24 2.36-.74-1.59.2-.92-1.44-1.65-1.09-.49-.67-1.08-.99-2.38-1.14.25-.89.48-1.14 1.79-.33 1.79-1.61 4.91-2.21 6.46l-3.78.24c.33-1.78.67-1.18.38-3.27zm8.85 1.44c-.1-.94-.14-.84.6-1.19l3.87-.88c-.46 1.34-3.55 2.55-4.46 2.07z"/><path class="fil2" d="M130.89 20.33c.94-.14 1.2.31 1.98.7 1.13.56.78.15 1.89-.22-.36 5.29-4.11 6.04-3.86-.47zm11.73-2.77c.72.37 1.17 1.14.98 2.15 0 .01-.12.39-.17.48-.21.36-.11.17-.35.37-1.09-.67-.97-1.72-.46-3zm-2.51-8.54c0 3.48.49 10.52-.87 13.03-1.16-.35-1.72-1.22-2.1-2.45.39-.98 1.02-.76.97-1.98-.09-2.37-.04-.81.49-2.59-3.17.35-5.03 2.07-7.17 3.17.18-2.53 1.44-4.44 2.96-5.38l.07-1.89-1.64-.66c.36-1.07.72-1.11 1-2.43-1.75.38-4.47 3.46-5.02 4.84-1.48 3.71-1.86 12.95 2.35 15.85 3.8 2.62 4.6-.55 5.68-2.25.11 2.78-.3 7.94 2.16 8.53.28-3.56-.03-6.29-.11-9.7 1.34.74.97 1.04 1.08 2.85.41.39.68.36.89.85.26.59 0 .74.33 1.46.51-.16.14.11.49-.34.1-.12.23-.47.27-.61.13-.46.21-1.09.26-1.54.13-1.03.2-2.18.37-3.18.71-.49 1.21-.41 1.98-.58.78.85 1.76 4.6 2.38 6 .32.74 3.03 4.51 3.57 5.06-.13-4.54-3.06-7.83-3.4-12.76l1.64-.49c0-1.31.31-1.89-.53-2.48.5-1.13.28.26.78-.94l-2.95.17c-1.61-2.01-3.01-12.75-4.83-14.22-.22.95-.22 1.66-.2 2.7.04 1.85.27 1.52-.9 1.95z"/><path class="fil4" d="M134.17 41.26c-.3.1-.93.16-1.55.22-.29 1.03-.02 1.32-1.22 1.7-.63.98-.88 1.96-2.13 2.19v-1.38l-.58-1.15.37-.41-.21-3.62-2.08-.4c-.24.7-.47.88-.59 1.52l-1.22 9.86c-.3 1.77.18 2.41.55 3.77 2.96.03 2.53-.65 4.03-2.25 1.11-1.19 1.8-2.68 3.17-3.52.25.34 1.46 3.31 2.51 5.06 3.73.17 2.94-2.63 5.37-7.89 1.01-2.2 3.49-7.53 3.36-10.4-1.96 1.29.01 2.16-4.27 2.43-.87 1.42-1.21 2.75-1.82 4.57-.36 1.06-1.43 3.88-2.18 4.32-.48-.68-.44-1.44-.65-2.32-.17-.71-.47-1.65-.84-2.3z"/><path d="m85.04 65.81.38-.36c.66.21.87.4.63 1.05-.19.23.39.32-.68.45-.6.07-.47-.11-.59-.16-.02-.48-.07-.12.05-.65.01-.05.08-.07.09-.17.01-.1.08-.11.11-.16zm-25.62 2.28c-.73-3.28 3.14-7.02 4.03-6.4 1.03.71-.43 6.87-4.03 6.4zM72 61.28l.28-1.76-2.73.39c-1.52.3-3.27.89-3.13 2.74.13 1.62 2.03 1.67 3.05 3.01-.35 1.91-1.05 2.12-2.65 2.81-1.42.6-2.65.91-4.01 1.41.52-1.38 7.08-8.45.4-10.21-1.42-.37-3.33.13-4.68.46L58 57.76c-1.14 1.49-2.23 5.27-3.21 6.16-.22-1.3-.41-2.93-.96-4.02-2.14-.09-2.32 1.44-3.46 4.56-.78 2.14-1.48 4.13-1.44 6.73 1.27-.35 1.66-1.72 2.25-3.12.27-.63.48-1.28.76-1.93l1.04-1.9c.13.91.33 2.47.51 3.39.27 1.33.81 1.68 2.03 1.77 1.22-2.32 1.04-7.13 3.8-7.39-.89 1.91-3.74 4.74-1.61 7.45 1.17 1.49 1.86.88 3.27 1.73.81.49.63.67 1.8.77 2.65.24 7.2-1.94 8.99-3.63 2.97-2.8-.61-4.71-2.24-6.01.57-.94 1.18-.8 2.46-1.04zm36.93 10.05c-2-3.27 1.64-6.66 3.21-8.4.55-.61 1.29-1.9 2.39-1.49 2.54.95-1.86 10.31-5.6 9.88zm-5.04-6.34c1.07-1.65 2.49-2.71 5.25-2.77-.46 1.24-.45.64-1.16 1.49-.37.44-.7 1.18-.97 1.68-.46.84-1.38 2.66-1.98 3.34-.07.08-9.41 6.66-7.41-.45.7-2.49 2.55-3.59 4.48-4.63.83.52.67.92 1.79 1.33zm1.44 6.61c.85 1.07.48 3.18 4.88 3.17 1.66 0 2.41-.51 3.12-1.65.99-1.59 1.16-1.47 2.27-2.58 1.04-1.03 2.71-5.06 2.65-7.39-.07-2.64-2.48-4.75-5.28-4.36-2.6.36-4.71 1.88-7.26 2.51.73-1.14.89-.56.99-2.25-.39-.44-.1-.11-.38-.33l-.15-.11.24-1.35c-1.29.13-1.9 1.61-2.89 2.34-1 .74-6.03.95-8.3 7.72-.79 2.35-1.25 6.96 2.48 7.24 4.59.34 4.61-1.92 7.64-2.94zm27.41.67c.07-.19.07-.64.52-.59.56.07.31.18.45.64-.62.18-.44.29-.97-.05zm-18.48 5.75-.08.53.42-.17c4.43-1.73 6.01-10.79 7.52-12.37 1.19 2.32-.55 8.83 3.61 8.54 1.24-1.36 2.21-4.67 2.8-7.17.91-3.83 1.94-3.99 5.91-3.99-.52 4.02-3.89 11.26-3.48 14.89.71-.63.99-1.5 1.23-2.45l1.95.33c.72-1.09 2.93-7.39 3.49-9.02.61-1.76.61-3.31 2.14-4.07.17-.08 5.66-1.74 3.39-1.84l-1.34-.17c.79-1.08 2.78-.85 4.4-1.11-1.03-1.87-5.24-.84-7.1-1.44-.95-.31-.86-.74-2.01-1.09-.98 1.56.18 1.63-1.97 2.04-1.02.2-2.27.43-3.1.68h-.52l-.54-.94c-.87-.74-.65.55-.69-4.41-1.52.74-1.85 3.69-2.52 5.39-.36.9-.9 1.74-1.31 2.69-.37.87-.65 2.21-1.31 2.88-.47-2.2-.19-6.44-2.47-6.7-2.41-.27-2.98 3.19-3.73 5.32-.93 2.62-4.51 11.56-4.69 13.66zm31.97-9.87c.4-1.18.38-1.07 1.44-1.5.21.58.26 1.19.17 2.01l-.44.23-1.21.06.04-.8zm-6.36 2.06c-1.53.11-1.55.16-1.45 1.84.53.41.63.32 1.03.91-.45.82-1.14 1.57-1.25 2.67l1.68-.3-.27 1.67c1.26-.64 2.12-1.81 2.95-3.19.85-1.41.93-1.76 4.51-1.76.02 1.79.02 4.63.26 6.33.24 1.69.5 1.05 1.3 1.79.52.48.74 1.34 1.42 1.88.29-2.73.07-5.22.44-8.38.51-4.32 2.96-1.78 5.43-3.51.65-.46.22-.14.49-.46l-1.75-.42c.82-.52 1.93-.48 2.6-.88-.91-.76-3.97-.06-5.55 0 .08-3.66 1.52-9.33 1.02-12.47-.28.34-.99 1.93-2.28 3.55-2.83-.22-4.13 2.11-5.54 4.32-.74 1.15-1.26 2.07-1.93 3.17-.66 1.07-1.55 2.08-2.02 3.01l-1.1.23zm-50.18-1.99c.38-.41.2-.31.82-.46l-.01-.58c.21-.85.05-.26.95-.75-.79-.55-1.97-.22-2.98-.09.18-3.24.77-5.62 1.16-8.67-1.58.42-.07.48-2.37 2.22-1.51 1.15-3.36 3.12-4.37 4.87-1.17 2.02-.92 2.37-1.93 2.67-1.01-.88-.07-1.78-1.66-2.96-1.02-.75-1.9-1.16-2.34-2.24.83-.62 2.31-.66 3.09-1.37-.33-.96-.32-1.63-3.07-1.09-1.16.23-2.39.9-2.91 1.65-1.77 2.56 2.1 3.46 3.25 4.9-1.18 2.98-6.77 3.3-8.56 4.88l-1.03 1.07c6.89 1.6 9.6-2.94 12.22-2.79-.23 1.38-.69 1.59-.87 2.48 3.85.23 1.94-2.23 6.31-2.65-.02 1.35-.46 3.38-.12 4.68.42 1.62.35-.58 1.79 3.33.16-.24.12-.11.26-.53.26-.78.4-3.95.42-4.78.05-2.34-.24-3.46 1.97-3.83z" style="fill:#00fcfc"/><path class="fil6" d="M151.11 42.03c.53.63.45.82.41 1.95-1.06.08-1.34-.55-1.24-1.81l.83-.13zm1.36-1.35c-.91.06-.8-.66-.62-1.61.67.41.88.67.62 1.61zm.1-4.05c2.93.24 3.96 5.36 3.46 5.93-1.02 1.15-3.2-4.69-3.46-5.93zm2.83-1.57c.49.77.76 1.03 1.04 2.13-1.55-.35-2.7-1.61-2.77-3.55 1.14.22 1.2.6 1.72 1.42zm.99-1.15c-1.07-.29-1.73-1.75-1.04-2.5 1.17-1.27 1.13 1.67 1.04 2.5zm-2.97-3.44-1.61-1c-.13 1.43.32 1.4 1.02 1.94-.39 2.22-.95 3.06-1.56 4.97-.93 2.9.43 2.93-2.46 4.22-.74-.75-.09-.77-1.27-1.15-.08 1.29.23 1.74.18 2.69-.03.65-.29 1.74-.37 2.54 1.71-.03 2.21-1.12 3.06.78.47 1.07.44 3.35.51 4.72 1.07-.57.8-1.01 1.54-1.62.62.94 1.44 1.82 2.01 2.79.36-.66.06-1.45-.15-2.12-.78-2.56-1.21-4.24-1.49-7.11.95.67.99 1.4 1.59 1.98.56.54 1.77.82 2.69.43 1.27-1.35.23-3.96.2-5.98.99 1.1.65 1.75 2.14 2.13-.27-1.96-.92-2.89-1.43-4.54.97-.11 4.64-.06 5.16-.64 1.43-1.59-3.43-1.28-4.12-1.43-2.04-.47-1.34-2.21-2.11-4.09-.88-2.16-2.64-.17-3.55.5zM64.7 28.84l-.26 1.53c-.76-.21-.98-.26-.97-1.1.51-.44.46-.32 1.23-.44zm-4.92 4.44c-.3-.51-.27.1-.13-.82 1.18-.02.87.67.79 1.62 1.38.05 1.56.02 2.33-.64.54-1.32.56-1.83 2.3-1.65.84.47.61 4.16 3.82 4.9l-1.41-5.47.59-.18 1.05-.5.02-1.64c-.53.14-1.49.66-1.89-.01-.59-.22-.52-.1-.75-1.04-.36-1.47-.04-3.82-.59-5.08-.71.35-.15-.33-.58.77-.62 1.58-.19.96-1.48 1.38-.66.21-.41-.02-.79.51-.18.25-.65 1.55-.86 2.04-1.54 3.68-.5 3.45-2.23 3.66.04-2.6 1.19-6.23-1.88-7.19-.68 1.72-.18 4.18-.71 5.88-.75-.5-1.56-2.48-2.29-3.39-2.6-.04-2.51 2-2.83 4.5-.31 2.39-.55 4.83-.35 7.34 3.28-1.62 2.14-3.95 3.05-7.85.63.81 1.21 1.54 1.71 2.52.89 1.75.84 1.28 3.12 1.31l-.03-.96zM26.22 53.9c.33.82 1.16.98 1.76 1.73-.41.28-.68.27-1.11.63-.26.22-.2.2-.42.46-.36.42.04.06-.42.49l-.23-.86c-.02-.05-.06-.13-.07-.17l-.17-.33c-.18 1.33.01.19.1 1.15.1 1.13-.05 3.03-.2 2.57-.01-.04-.06.13-.09.19.73.76.54 3.02 3.67 2.98 1.5-.02 2.32-.85 2.76-2.1l.49-1.38c.6-.28.34.29.19-.73-1.13-1.38.55-1.26-2.59-2.23-.66-.17-.37-.04-.67-.46.17-.12-.01-.14.58-.32.32-.1.47-.08.78-.12.8-.33 1.03-.81 1.43-1.45 2.45 2.67 3.11 1.88 6.01.83 2.52-.92 5.87.88 6.32-2.29l.29-1.51-2.44.25c-1.52.53-1.91.66-3.18 1.42-.92-.38-.86-.86-2.22-1.17l-2.97-.86c-.91.05-1.22-.15-1.88.37-1.26-.61-.36-.96-2.59-1.7l-.73-.05c-.43.63-.04.35-.63.63l-.02-.86c-.05.07-.08.16-.1.23l-1.64 4.65z"/><path class="fil2" d="M19.77 44.84c-.63 1.07-.34 1.25-1.47 2.62a.43.43 0 0 1-.09.1l-.1.1-.53.43c-.29 2.73 1.22 3.64 3.66 3.63l1.02-1.31-.26 2.27c.64.69 2.79 2.52 4.22 1.24l1.64-4.65c.03-.07.06-.16.1-.23 0-.9-.33-1.26-.61-1.85-.33-.25-.54-.48-1.17-.55l-1.14.4c-.17.36.07.07-.25.4-.12.12-.24.12-.35.16 0-.81-.08-.46.39-.85-.09-1.87-.3-2.5-1.85-2.81-.9-.18-2.87-.24-3.22.93zM28.2 42.59l2.02 1.81c2.09.72 3.14 2.4 5.83 1.42-.02-2.13-.65-1.17-1.76-1.86-1.95.12-2.36-1.05-2.45-2.97-.35-.46-1.56-3.3-1.78-3.99-.48-1.47-.51-3.17-1.21-4.44-1.01-.53-2.38-.54-3.61-.32-1.37 1.06-1.15 4.36-.4 6.03.94 2.09 2.41 2.53 3.38 4.32z"/><path class="fil2" d="m14.38 53.78.85.55.62-.07 1.06-.46c-.25.93-.51 1.45-.1 2.44.63 1.87 2.73 2.86 4.07 1.03l.11 2.92c.45.58.77.99 1.81 1.24.8.19 1.88.22 2.63-.1l-.08-1.56c.03-.06.08-.22.09-.19.15.46.31-1.44.2-2.57-.09-.97-.28.17-.1-1.15-.16-.89-1.1-1-2.01-1.18-1.14-.23-1.24-.17-1.87.64-.32-1.84-.26-2.16-1.7-2.95-1.31-.71-2.11-.12-2.72.69.22-.61.44-.51.26-1.44-.36-1.92-2.49-1.65-3.8-1.24-.46 2.28-.29 2.02.66 3.41zM32.48 58.54c.15 1.01.41.44-.19.73-.41 2.18.33 3.55 2.28 3.62 1.93.07 2.37-1.56 2.87-3.12.64 2.37 2.24 3.8 4.11 1.5-.09-6.23-3.41-7.06-4.56-3.9l-.58-1.2c-2.12-.25-4.31-.35-3.91 2.37z"/><path d="M36.12 34.57c-.52 3.34 1.18 7.74 2.39 10.06.2-1.68-.33-3.2-.1-4.45l.43-.94c.81 1 .3 2.78.2 4.34-.15 2.43.37 2.26 1.04 3.62-.26.35.42.32-.66.25.05.06.16.02.2.11.4.86.04.14.39.12.5-.04.2.07.62-.34.46-.77.55-3.01.89-4.03.41-1.22.88-2.28 1.92-2.72l-.09-.75c.11-1.1.05-.31-.12-.72l-.73.33c-.47 1.15-1.08.9-1.49 2.86-.25 1.17-.23 2.67-.74 3.54-.16-.2-.33-.17-.38-.92-.12-1.59 1.45-5.22 2.3-6.12.31-.68.51-.84.43-1.87-1.28.35-2.06.84-3.78.38-.79-.21-1.85-1.31-1.32-2.39 1.1.72.6 1.52 2.56 1.7-.02-1.75-.49-1.73-1.64-2.49-1.58-1.03-.33-1.26-2.55-1.7.13.91.36 1.34.24 2.15z" style="fill:#6e6e6e"/><path class="fil8" d="M15.43 58.26c.73.14.22-.01.71.25l7.13 4.58c1.06.43 2.48.44 3.42.99 2.31-.14 4.6-.12 6.71-.81-.42-.35-.51-.7-1.21-.78-.69-.09-1.06.24-1.62.48-1.33.58-2.13.24-3.25-.27-2.66-1.21-5.4.14-6.32-2.52l-.34-.34c-1.83-2.01-4.07-1.31-4.15-2.88-.06-1.25-.07-.44.31-.73-.41-.99-.15-1.51.1-2.44l-1.06.46c.5.53.52.37.49 1.46-.94-.54-.46-.54-1.27-1.09l.16-.3-.85-.55c-.74 2.09-1.24-2.63-1.27-3.14-2.36-.24-2.97 1.98-2.97 2.02.48 1.39 4.14 4.63 5.29 5.6z"/><path class="fil6" d="M142.65 52.47c.76.24 1.1-.17 1.69-.45.04 2.44-.89 2.38 1.94 2.46.77 1.76.69.88.87 3.34l2.04.42 1.59-6.72-2.34.19c-.19 1.41.04 1.98-.91 2.37-.27-.62-.13-1.68-.03-2.38.14-.94.3-1.54.34-2.57-1 .26-.44.12-1.17.78-.43.38-.47.4-1.04.69.23-1.14.81-3.05.41-4.11-.98 0-1.05.28-1.47.94-.46.72-.52.71-1.11 1.3-.68.67-.51.52-.7 1.76-.16 1.03-.34 1.36-.11 1.98zM16.88 41.25c-.9 1.46-1.92 2.14-2.32 4.3-.2 1.06-.13 2.01.53 2.53.81.64 1.58.17 2.5 0l.53-.43.1-.1a.43.43 0 0 1 .09-.1c1.13-1.37.84-1.55 1.47-2.62l-.17-.3c1.14-.84.95-1.7.53-3.31-1.11-.53-2.15-.64-3.25.03z"/><path d="M9.56 51.92c2.27-1.27-.03-.9 4.82-2.87-.47-2.41-.63-3.03-.02-5.45-1.8.08-1.78 2.58-2.62 4.2-.23-1.5.51-2.27.8-3.53l-1.07.62c.49-1.58 1.66-2.4 2.36-3.81-1.3.59-3.2 3.25-3.98 4.88-1.64 3.42-2.25 4.37-.29 5.97z" style="fill:#ce6d7e"/><path class="fil10" d="M25.22 32.25c1.23-.22 2.6-.21 3.61.32.7 1.26.73 2.97 1.21 4.44.23.69 1.43 3.53 1.78 3.99 1.63-1.07.58-2.63.21-4.31-.37-1.63-.26-4.01-.21-5.78-2.23-.55-5.84-1.21-6.6 1.34z"/><path class="fil8" d="M16.88 41.25c1.1-.67 2.15-.55 3.25-.03-.11-.82-.09-.18.22-.42.54.66.61 1.54 1.06 2.29 2.26.2 2.59.21 3.64 2.22.73 1.4.44.25 1.13 1.3.63.07.84.3 1.17.55-.1-.94-.08-.21.2-.48.7.45.33.45.84 1.2.49.72.56.39.95 1.42 2.22.74 1.33 1.09 2.59 1.7-.58-1.92-.31-1.31-3.23-3.89-1.24-1.1-2.5-2.24-3.67-3.36-1.06-1.02-6.33-6.15-8.29-5.24-.55.62-.62 1.36-.6 2.3l.73.44z"/><path class="fil6" d="m45.09 43.69-.93 1.97-2.32-.26c.76 1.69 1.37 1.83 3.52 1.59l2.79-.82c.02-.1.04-.26.05-.23l.12-1.26a1.06 1.06 0 0 1-.11-.21l-.19-.39c-.25-.61-.18-1.01-.75-1.91l-1.47.43c-.27.21-.03.8-.69 1.09z"/><path d="M43.45 40.57c-.42 1.25-.96 1.71-1.13 3.19 1.15-.5 1.32-2.4 3.26-3.21.22-.49 1.42-.97 2.12-1.15.59.42.43.48 1.05.77.52-1.39.72-2.13.7-3.89-3.68.27-4.05 3.23-6 4.3z" style="fill:#4c4c4c"/><path d="M141.23 49.88c1.42-.15 1.77-.94 1.94-2.58.17-1.55-.02-3.05-1.5-3l-.44 5.57z" style="fill:#f9f9f9"/><path class="fil10" d="M45.76 40.67c-.22.64-.45.79-.57 1.33-.11.5-.05 1.15-.1 1.69.66-.29.43-.88.69-1.09l1.47-.43c.57.9.5 1.3.75 1.91l.19.39c.03.06.07.14.11.21-.04-1.48-.08-3.04-.62-4.22l-1.93.21z"/><path class="fil8" d="m44.62 50.99-.29 1.51c.97.43.39.94 1.7.44.71-.27 1.29-.52 1.47-1.42-.28-.31-.51-.53-1.34-.59-.62-.05-.93.08-1.53.06z"/><path style="fill:#434300" d="m74.45 54.68 1.01-.03-.01.74.79.1-.41-1.85z"/><path d="M81.18 79.56c-.02-1.09-.09-1.28-1.06-1.37.07.92.33 1.16 1.06 1.37z" style="fill:#2e2e2e"/><path d="M36.93 62.46c.08.07-.13.29.59.27.99-.03.45-.15.61-.27-.44-.49-.83-.66-1.21 0z" style="fill:#c4c3c3"/><path d="m41.54 61.27.35.96c.94-.5.83-.87-.35-.96z" style="fill:#b4afaa"/><path d="m29.9 56.31-.21-.48.89-.42c-.3.04-.46.03-.78.12-.59.18-.41.2-.58.32.3.42.01.29.67.46z" style="fill:#767575"/><path d="m114.63 78.37-.42.17.08-.53c-.43.48-.28.25-.41.93 1.05-.19.48.15.76-.57z" style="fill:#009494"/><path d="m25.05 47.01-.21-.3c-.47.39-.39.04-.39.85.11-.04.23-.04.35-.16.32-.33.08-.03.25-.4z" style="fill:#9b9b9b"/></g></g></svg>