<svg xmlns="http://www.w3.org/2000/svg" xml:space="preserve" width="95.989" height="72" style="shape-rendering:geometricPrecision;text-rendering:geometricPrecision;image-rendering:optimizeQuality;fill-rule:evenodd;clip-rule:evenodd" viewBox="0 0 45.64 34.23"><defs><style>.fil2{fill:#0ff}</style></defs><g id="Camada_x0020_1"><g id="_2485663457648"><path d="M31.55 0h.57c.6.06 1.15.29 1.48.71 1.11 1.39-.65 1.48 1.9 1.48 0 1.27-.04 2.28-1 2.92.12.52.31.51.09 1.46h1.1c1.36 2.58-.14 2.45-.64 3.19 1.3 0 3.64.14 4.81-.02.83-.11 2.56-.05 3.59-.07 1.21-.02.91-.49.91 3.93h.37c0 .84.1 1.71-.31 2.34-.24.37-.36.45-.69.68.07.31.2.38.22.74.01.21-.1.53-.13.81.46 0 .96.19 1.26.39.34.23.52.5.57.8v.41c-.14.81-1.04 1.65-2.01 1.87.31.47.73.55.73 1.37 0 .85.04.79-.24 1.68-.13.41-.27.47-.31.88H43c-.16.33-.11.47-.34.84-.57.89-.48.05-.48 2.08 1.08 0 2.79.87 1.11 2.76-.64.72.99-.08-1.49 1.42-.18.11-.28.15-.47.26-1.07.6-4.04 1.53-5.19.77-.96-.64-.28-.76-2.16-.27-.39.1-.81.18-1.28.28l-1.23.32c-.58.17-1.95-.07-2.49-.29-.4-.16-.69-.28-1.12-.27-.97.03-2.66 1.19-3.73.19-.36-.34-.49-.25-1.12-.25v-.27c-.49 0-1.21.12-1.71.21-.19.03-2.31 1.07-2.67-.3-.37.09-.58.32-.97.49-1.52.64-2.88-.12-3.41-.12-.11 0-.58.64-.91.64-.16 0-.98-.55-1.15-.68-.36-.27-.56-.58-.77-.97h-1.19c-.09.4-.32.65-.52 1.03-.13.26-.37.79-.67.79H8.73c-.49 0-.27-.02-.43-.18l-.64-.73c-.42.1-.58.24-1.04.33-2.9.58-5.26-1.41-5.26-3.52 0-.87.23-1.09.29-1.42.06-.3-.29-.72-.29-1.22 0-2.01.4-1.4.64-2.28-.72-.19-.99-.87-1.05-1.77-.03-.38.09-.83.25-1.14.31-.6.23-.28.1-.95-.29-1.58.16-1.77-.41-2.42-.71-.81-.53-1.29-.53-2.03 0-.94-1.22-3.18.82-3.65-.05-.64-.43-.59-.21-2.4.14-1.15-.58-.99 2.49-.98.83 0 1.33-.09 2.19-.09h3.47c0-1.77.11-4.25-.14-5.9-.09-.59.07-.57.39-.88.4-.39 1.11-.89 1.85-.89 1.93 0 1.65.72 2.37.91.03-.35.09-.29.09-.73.31-.07.83-.28 1.13-.33.37-.05.73.2 1.15.23.14-.59.7-.99 1.24-1.23 1.59-.71 4.4-1.09 4.6 1.41.6 0 .41-.11 1 0 .44.08.56.09 1.1.09 1.73 0 3.19 1.69 3.19 3.65 0 .98-.55 1.82-.65 2.21l.29.35.37-.18c.35-.18.27.18.27-1.56 0-2.52-.62-3.93.98-4.5.71-.25.51 0 .76-.7C29.48.67 30.52.09 31.55 0z" style="fill:#000"/><path d="M36.71 31.39c.06-.39-.01-.17.27-.26-.1.25.09.15-.27.26zm-.17-5.74-.2.06-.01.41.15 2.44c-.55-1.07-.6-1.28-1.49-1.93-1.35-.97-4.27-1.42-5.72-1.09-1.15.25-1.89-.29-3.06-.05-.2.98-.63 3.57-1.1 4.17-.38-.47.44-2.65-3.07-3.76-1.69-.54-2.87-.45-4.56-.29-.34.03-.97-.15-1.31-.23.12.46.2.36.38.7.76 1.42.68 5.17-1.07 5.39-.85-.46-.84-2.5-.64-3.67.26-1.53.77-2.46-1.33-2.35-.26.42-.4 1.55-.49 2.16-.14.95.13 1.77.1 2.06-.02.23.01.08-.06.2-.4-.85-.67-1.98-.89-3.15-.15-.79-.02-1.07-.78-1.11-.42-.02-.29-.15-.79-.17-.24-.01-.77.02-1.01.05-.09.14-.38 1.89-.5 2.31-.2.73-.45 1.48-.69 2.14-.3-.41-.17-.7-.6-1.13-1.18-1.18-2.7-1.21-3.31-1.68.51-.21 2.85-.56 2.97-.68.3-.3.14-1.01-.22-1.2-.12-.06-5.21-.33-4.38 2.47.43 1.46 5.66 1.86 4.26 2.75l-.9.28c-2.9.62-2.77-1.77-2.83-1.88-.46.15-1.24 1.9.68 3.23 1.47 1.01 3.25-.2 3.8-.37l.36.4c.1.14.12.19.27.36.55-.3.48-1.16 1.22-1.32.41-.09 1.91-.15 2.37-.15.21.29.57.95.83 1.21l.15-.22c.01 0 .05.01.06.01.01 0 .23-.05.23-.05l.3-.25c.03-.39 0-.51-.1-.85.25.6.97 1.2 1.69 1.42.44.26 1.66.22 2.05-.04.8-.53.63-.56.93-.99l.31-.34c.37.35.29.5.78.78.6.34.46.28.62.64l.06.12c1.17-.88 1.99.26 4.54-1.66l.08.9c.24-.01.17-.13.49-.12.01.39.01.4.15.65.34-.18.12-.22.63-.52.65-.38.44-.65.93-.55l.12.05c.55.16.16-.18 1-.2 1.03-.02.91.21 1.3.83.17.28.92.82 1.07.8.01-.02.01-.05.01-.06 0-.01.01-.05.01-.06l-.03-.17c-.12-.32.01-.01-.14-.21.1-.21.01-.01.09-.15l.24-.36c.7.3.6.6 1.1.79.49-.28-.03-.28.97-.34.37-.02.72-.08 1.09-.08.01-.31-.11-.18.28-.3.21-.08.42-.16.65-.23l.69-.13c.01-.02.04-.01.06-.02l-.07-.2c-.13-.07-.06.07-.17-.14 1.31-.08 1.32-1.03 1.49-1.47.06.34.02.99-.04 1.34l-.06.49c-.05.26-.08.15-.29.33.32.61-.13.58.69.76-.07.41-.04.34.01.44.36-.11.04.2.42-.64.63-.08.33.35.51.05.01-.02.05.02.07.02.39-.49.36-.34.98-.55.36-.12.79-.25 1.19-.36 2.55-.7 1.29-.63 2.17-.96l-.44-.29.28-.11c.17-.1.04.1.22-.2-1.58-.13-2.96.48-4.38.7l.12-1.07c.71-.29 2.82-.63 2.77-1.77l-2.62.15v-.82c.85-.38 3.25-.23 3.32-1.58-.56-.12-4.46.06-4.95.22zM12.51 4.02c-.16-.32-.23-.38-.61-.55-.53-.03-1.01.04-1.37.22-.1.52.06 2.73.08 3.44.01.73-.11 2.98.17 3.45.32-.11 1.12-1.18 1.2-1.62.13-.69-.08-2.17.26-2.64.28.24 2.39 3.94 2.42 3.97.44.42 1.13-.01 1.57.04 0 0 .02.01.03 0 .07-.64-.15-.67-.12-1 .05-.52-.04-.12.12-.31.25.19.23.16.12.59.19.15-.08.04.33-.09l.18.37c.17.18-.07.06.12.11.11.03.18-.09.25-.19.15-.21.24-.55.44-.67.27-.17 1.56-.26 1.92-.22.36.6.44 1.23.93 1.7.42-.03.51-.22.74-.42.37.33.1.5.81.45.39-.03.76-.19 1.12-.26.93-.16 1.55-.23 2.53-.24.2-1.64-2.85-1.3-3.6-1.12-.78.19-.6.14-.83.83-.19-.26-.65-2.32-.77-2.87-.15-.65-.25-3.11-.35-3.29-.52-.49-1.29-.14-1.92 0 .03.35.05.16-.11.34-.28-.19-.16.13-.19-.34l-.37-.02c-.13.89-.22 1.71-.47 2.57-.3 1.05-.22 1.49-1.06 1.92-.13-2.08.4-4.06-1.08-4.8-.47.83-.33 3.83-.61 4.4-.2-.17-1.2-2.32-1.4-2.82l-.35-.74c-.1-.14-.05-.1-.13-.14zM42.1 18.04c.22-.25.2-.18.34-.51l-.04-.22-2.57.04.02-.82c.12-.07.07-.04.22-.1.79-.26 2.72 0 3.21-1.45-.82-.09-4.59 0-5.2.27 0 1.02.03 2.07.03 3.1 0 .87.18 2.27-.47 2.64-.11-.61.29-1.14-.18-1.48-.38-.27-1.04-.15-1.35.17-.31.93-.02 2.68 1.14 2.7.37-.4.16-.72.46-1.07.1.14.08.18.17.34.09.17.12.18.21.34.65.03 2.47-.75 3.29-.98.76-.21 2.44-.38 2.82-1.59-2.85 0-3.44.54-4.64.65l.16-1.16c1-.27 1.71-.34 2.4-.87zM17.36 2.91c.63.09 1.35-.1 2.08.01 1.32.19.87-.88.8-.98-.31-.38-1.27-.15-1.72-.04-.72.17-1.21.21-1.15 1.01zm14.18-1.63c-.36.14-.42.14-.69.45-.55.6-.67 1.34-.24 1.5.06.02 2.04-.46 2.03-1.12-.01-.5-.66-1-1.09-.83zm9.31 11.45c-1.15.42-2.05 2.5-.17 1.76.54-.21 1.22-.27 1.27-.81.05-.51-.56-1.14-1.1-.95zM23.34 4.25c.53-.23.9.65.9 1.21-.01 2.36-1.49 1.98-1.56.47-.03-.65.19-1.48.66-1.68zm-1.25-.58c-.78 1-1.2 2.31-.56 3.54 1.61 3.08 5.02.52 3.88-2.24-.57-1.37-1.97-1.1-2.33-1.14-.47-.05-.39-.21-.99-.17zm6.6.03.12 4.97c-.02.47-.11.34-.35.64-.33.41.1 1.03.38 1.24l3.13-1.02c1.72-.53 1.02.05 2.29-.91.24-.18.46-.26.5-.6-.35-.21-1.9.01-2.39.08-.64.09-1.71.45-2.23.43-.12-1.44.88-1.25 1.43-1.4.7-.2 1.47-.71 1.63-1.3-.94-.06-1.71.05-2.68.1l.03-.9c.57-.27 1.44-.21 2.11-.37.54-.13 1.29-.92 1.32-1.15-1.26-.22-4 .05-5.3.19zm-18.4 14.28c-.05-.5.03-.84.05-1.3.02-.47-.09-.95.33-1.03.34-.06 1.88.24 2.19.39.32.16.54.43.36.84-.32.7-2.22 1.09-2.94 1.1zm-6.06-.4c-.17-.54.06.48-.04-.15 0-.03-.01-.23-.01-.26.01-.89-.07-1.42.35-1.48.44-.06 1.74.24 2.09.4 1.54.72-1.66 2-2.32 1.63l-.07-.14zm9.9.03c-.24.09-.02-.08-.29.15l.25-.6c0-.01.02-.01.03-.01-.01-.41-.03-.09.13-.22-.12-1.69-.96-2.35-2.59-2.61a7.66 7.66 0 0 0-2.39-.01c-1.98.32-1.34.28-1.83.79-.97-.45-.72-.8-2.89-.88-.34-.01-1.63-.12-1.81-.08-.24.05-.44.2-.73.29-.9.3-.79.59-.32 1.45l.74.06c.17.41.11.97.09 1.42-.32-.01-.2.02-.45-.11-.29-.15.04-.08-.37-.23.17 1.72.66 1.16.85 1.92.15.59.07 1.79.22 2.53.99-.09 1.21-1.56 1.35-2.27.7-.18 3.27-.21 3.76-1.71.18-.55-.01-1.05.1-1.54l.58-.05c.01.06.03.07.03.11.07.64.17.22.11 1.67-.37-.07-.18-.18-.57-.22-.19 1.07.57 1.07.69 1.71.15.77-.14 1.71.19 2.35.2-.09.04-.01.19-.16l.65-.73c.46-.67.21-.61.36-1.35l1-.14c.94.98 1.08 2.34 1.63 2.18.65-.46.13-1.67 0-2.43.46-.41 1.07-.62 1.29-1.28zM18.61 6.4c.03-.22-.01-.16.09-.28.23.07.13-.04.22.22l.21 1.39-.93-.07.4-1.27zm-8.38 23.44c-.03-.6.34-1.24.63-1.61.18.22.54 1.27.53 1.63l-1.15-.02zm22.15-11.12c.01-.54.25-1.14.56-1.4.1.08.05.02.15.14l.24.49c.12.28.22.42.22.77h-1.17zm-8.12.27c-.29 1.01-3.41 1.15-3.88-.5-.12-.43-.05-.47-.31-.59-.28.29-.13.44-.33.75-.47.24-1.45.2-2.05.32-.56.11-1.48.45-1.93.49-.07-1.96.58-.69 2.55-2.15.24-.18.45-.29.31-.71-.33-.11-2.06.11-2.58.15l.02-.81c.7-.25 1.17-.34 1.98-.47.64-.11.54-.04.83-.43.37-.5.48-.14.57-.71-.87-.07-1.86-.03-2.74.01-.43.02-.84.07-1.27.1l-.99.09c-.49.15-.17.82-.06 1.77.08.73-.03 1.28-.03 1.96.01 1.12.14 1.24-.26 1.86-.32.51.11 1.2.45 1.39 1.36-.61 2.36-.97 3.86-1.37 1.55-.41.52-.11 1.32-.52.49.54 1.31 2.58 4.25 1.44.88-.34.67-.6 1.14-1.03.56.29.73 1.2 2.11 1.31 1.53.12 1.91-.25 2.73-.76.33.32.31.58.64.8 1.23-.47-.42-1.61 3.75-1.36.25.51.5 1.17 1.09 1.32 1.19-.05-.2-2.49-.39-3.03-.42-1.18-.56-2.46-.87-3.62-.42-.18-1.61-.47-2.11-.33-.23.06-.14.01-.26.14-.19.23-.62 3.52-1.2 4.14-.36-.3-.37-.96-1.56-1.61-.67-.36-1.67-.5-2.25-1.01.64-.46 2.37-.25 2.95-.67.39-1.65-1.26-1.27-2.31-1.05-1.15.24-2.22.32-2.46 1.47-.46 2.24 3.11 2.12 4.54 3.13-.07.95-2.03.89-2.45.82-.96-.17-1.43-.81-1.5-1.88-.45.13-.02.1-.45.26-.54-.31-.2-.54-1.6-1.22-.6-.29-1.6-.47-2.04-.87.31-.19 1.68-.4 2.18-.46.51-.05.54-.01.72-.21.35-.47-.06-1.18-.45-1.26-.29-.06-1.35.15-1.7.2-1.25.2-2.3.41-2.46 1.46-.1.62.01 1.12.44 1.43 1.51 1.09 3.57 1.01 4.09 1.84zm2.58 10.84c0-.42.36-1.27.6-1.5.18.31.63 1.09.53 1.52l-1.13-.02zm5.6.79c-.09-.26.05-2.98.14-3.39.85-.04 2.93 1.01 2.86 1.77-.08.83-2.18 1.69-3 1.61zm-11.3-3.42c.98.03 2.88 1.02 2.88 1.84 0 .77-2.05 1.65-2.95 1.45l.07-3.29zm18.91.92c.23-.22-.27-.11.39-.18-.02.01-.05.02-.06.03l-.22.16.27.19c-.63.01-.29.06-.38-.19zm-9.21-1.13c.43.12.33 3.05.33 3.49-.63.06-1.47-.72-1.64-1.05-.2-.38-.56-1.76-.55-2.25l1.86-.19zm-12.15 2.23c.05-.88-.21-1.34-.32-2.06.31-.2.75-.2 1.13-.11.29.88.32 2.46.26 3.47-.32.02-.73-.15-.94-.33-.36-.31-.16-.52-.13-.96z" style="fill:#ff0"/><path class="fil2" d="m2.22 12.37 40.77.03.02-.35-.01-.94H2.22zM43.02 24.13l-.02-1.2H2.26v1.2h.11z"/></g></g></svg>