<svg xmlns="http://www.w3.org/2000/svg" xml:space="preserve" width="249.853" height="105.064" style="shape-rendering:geometricPrecision;text-rendering:geometricPrecision;image-rendering:optimizeQuality;fill-rule:evenodd;clip-rule:evenodd" viewBox="0 0 165.33 69.52"><defs><style>.fil2{fill:#fff}</style></defs><g id="Camada_x0020_1"><g id="_2086796042608"><path d="M95.99 57.69c.36.22.7.43 1.02.6.83.47 1.47.76 1.93.88.17.05.32.07.44.07 0 .08.01.15.01.24 0 1.02-1.21 1.55-1.34 2.49-.19 1.33 1.29.67.52 2.49-2.28 5.4 3.82 1.79 4.19 1.82.71.07.8.56 2.17.53 1.18-.03 1.47-.48 2.58-.46 4.11 3.83 2.83-1.27 8.96.37 1.58.42 2.22-.25 3.65-.32.86.79 1.39 1.92 3.45 1.15 1.42-.53 1.29-1.45 4.02-1.18 1.33.13 1.87 1.81 3.77.22.82-.69 1.57-2.2 2.77-2.5 1.07 1.35.58 3.33 3.02 3.24 1.15-.04 1.47-.65 2.6-.75 1.42-.13 1.81.02 2.66-.74.78-.69 2.1-2.9 3.12-3.14 2.13-.5 3.93.06 4.89-1.82-.91-2.03-3 .12-2.39-5.22.18-1.62.58-5.25 1.12-6.66 4.72-.15 2.72.43 3.43 6.42.26 2.21.87 3.88 3.87 2.77 1.12-.41 3.44-2.49 4.11-3.14 1.1-1.06 3.23-2.66 3.24-4.13-2.35-1.28-3.39.1-5.54.19l.23-4.14c.7-1.91 11.62 1.68 4.4-6.6-.84-.97-1.28-.88-1.23-2.59.2-6.53-2.56-5.08-4.21-7.51 2.11-2.73 3.85-3.62 4.37-9.18.37-3.95-1.1-7.51-2.97-10.27-3.31-4.88-7.52-3.41-9.95-4.34-4.88-1.86-7.88 1.1-9.39 3.93-.83-.21-2.36-1.36-3.24-1.88-1.14-.67-2.16-1.18-3.4-1.72-3.89-1.69-8.86-2.49-13.47-2.31-4.96.19-2.56 1.26-5.9-.93-1.29-.85-3.58-2.63-5.22-2.67-.31 1.98-1.94 13.91-2.42 14.73-.59-.56-3.12-6.94-3.7-8.28-1.41-3.26-3.59-5.12-7.96-4.84-2.39.15-3.38.85-5.19 1.18-1.5.28-4.82-.11-6.5-.19-4.32-.21-10.86-.01-13.37-.17-1.47-2.32-1.76-3.42-6.06-3.24-1.86 1.73-4.39 5.86-5.79 8.3-.81 1.4-4.32 8.71-4.9 9.26-1.21-1.61-2.37-11.31-5.7-14.26-.74-.65-2.37-1.39-3.89-1.5-1.74-.13-3.97.38-5.32.19-.7-.1-1.34-.41-2.21-.52-.87-.11-1.76-.06-2.57-.25C31.16.94 30.37.08 28.47-.02c-1.14 2.54-3.37 5.93-4.9 8.51-.89 1.51-4.21 7.68-5.07 8.41C16.6 11.25 16.03.81 6.53 2.6c-2.3.43-5.41 1.69-6.51 2.92.81 2.33 3.44 3.56 5.93 13.55.64 2.57 1.22 5.12 1.85 7.72.78 3.22-1.85 6.02-1.05 7.97.86 1.02 1.57.64 3.11.74l.79 2.85c-2.65.03-7.24.14-7.71 2.25.62 1.21 1.41.84 2.65 1.27.12 5.26-4.14 14.05.57 15.36 2.81.78 4.02-.67 6.06-.9 1.02.59 1.02 1.14 2.68 1.43 1.34.24 2.69-.11 4.1-.21l.38 1.1c.73.03 1.46.06 2.03.4-.29.67-.81 1.3-1.21 2.07-.66 1.29-3.5 5.43-2.6 6.42 1.67 1.78 3.82-1.62 4.66-2.12.94.2.92.65 1.83.99 1.35.51 1.55-.17 2.73.05 1.89.36 2.81.81 4.51-.95.93-.96 1.4-2.67 2.76-3.07 2.03-.6 3.71-1.79 4.28-1.88 2.8 2.98.05 4.33.33 5.75.16.79.07.41.57.73 2.19.82 3.46-2.16 4.94-3.03 1.61.92.53 1.97 1.52 3.06s2.83.26 4.15.08c.25.66.41 1.63 1.11 2.05 1.85 1.09 3.25-.95 4.9-1.41 1.61-.44 1.03-.61 2.1-1.38 1.23.04 1.37.65 2.61.2 1.16-.42.73-.92 2.19-.56 1.62.4 1.7-.2 3.07.37.99.42 1.6.69 2.8.09 1.32-.66 2.44-1.98 3.1-3.38 1.18-2.48-.35-2.89-.86-4.42 1.12-.44 2.65-.68 3.92-1.04 1.28-.36 2.67-1.15 3.71-1.37.75.68.5.8 1.36 1.37.73.49 1.26.57 1.97.97-.68 1.08-3.16.91-4.87 4.14-.51.96-1.06 2.39-.35 3.38.78 1.08 2.58.53 3.98.45.39.75.49.99 1.11 1.78.98.07 1.54-.1 2.12-.47.96-.6.62-.49 2.09-.63 1.16-.11 1.2-.38 2.07-.61.93-.24 1.47.04 2.41-.34 1.11-.44 4.99-4.68 4.15-5.79-.65-.53-1.54-.53-2.54-1.26-.65-.48-2.02-.98-2.34-1.66.62-.26 3.15-1.13 3.63-1.02.78.18 1.56 1.05 2.66 1.06z" style="fill:#0f0f0f"/><path d="M119 30.03c-4.79-.26-4.91-4.27-4.79-8.26.13-4.37-1.26-8.25 4.79-7.9v16.16zm38.84 6.07c-.13.05-5.05.68-5.32-1.14-.44-2.94.97-3 3.79-1.66.69.33 1.82 1.78 1.54 2.8zm.98 1.29c.47-4.25-2.55-5.8-7.24-5.58-.13 5.04-.74 4.73 1.18 4.77 2.74.06 3.79.54 6.06.81zm-16.87-4.07c.5.52 1.03.72 1.52 1.18.27.26.4.47.58.72.47.64.21.42.79.78v-3.33c-.94.01-2.23.17-2.89.65zM66.99 65.39c-.23-1.69.88-3.25 1.77-3.39 1.15-.17.67 1.31.16 2.11-.49.77-.67 1.18-1.93 1.28zM50.7 58.28c1.41.06 1.87-.62 1.42-1.63l-1.18-.06c-.28.59-.32.92-.23 1.69zm-20.17 3.7c.34 1.32-1.21 4.14-2.26 3.21-.63-.57.6-3.33 2.26-3.21zm-12.1 5.23c1.6-.23 3.71-3.6 5.84-4.05.05.94-.08 1.88.26 2.62 1.77.07 1.35-.81 2.79-1.44.11 3.17 2.42 1.34 3.35.41.93-.94 1.92-2.61 1.45-4.13-2.74-.89-3.64 1.58-6.54 4.04-.17-1.47 1.3-2.68 1.21-3.88-2.07-.4-4.35 2.8-5.73 3.36.4-1.17 2.67-3.1 2.43-4.14-2-.17-2.3 1.53-3.08 2.95-.52.94-1.92 3.29-1.98 4.25zm86.15-1.96c-.26-1.52.85-3.43 2.38-3.3.34 1.51-.89 3.55-2.38 3.3zm-5.4-3.02c1.11.08.73-.4 2-1.64.23.57-2.16 4.61-2.12 5.97 1.94 0 3.15-1.59 4.22-2.32.32.38.47 3.48 3.62.59 2.93-2.7 2.15-7.17-2.63-2.48-.79.77-2.55 2.39-3.66 2.84.39-1.55 2.3-4.74 3.13-6.36.77-1.5.9-1.6 1.98-2.73.61-.64 1.87-1.88 1.5-3.09-1.9-.25-2.77 1.9-4.5 4.15-.67.88-3.44 4.38-3.54 5.07zm-21.05 3.23c.18-1.68 2.24-3.97 3.58-4.06.17 1.47-2.2 3.72-3.58 4.06zm6.4-9.57c-.02 1-1.28 3.6-1.81 4.58-1.28.2-2.27-.89-3.97 1.44-.72.98-1.85 2.65-1.13 4.02 2.43.61 3.9-2.34 4.87-3.78.66.68-.93 3.24-.23 5.37 1.12.03 1.52-1.1 2.34-1.82.53.43.14.49.86.78 1.26.5 2.36-1.14 3.11-1.62l.39.94c2.02-.24 4.58-4.04 4.77-4.71-1.08.04-.38-.35-1.89 1.45-.54.64-.96 1.21-1.63 1.88-.41-.6.22-1.05.17-1.66-.07-.9.1-.25-.26-.56-1.66-1.22-1.65 3.21-4.42 3.83.91-4.49 5.38-5.34 5.89-5.92-1.76-1.7-4.15.85-4.95 1.76-.64.74-1.1 1.35-1.74 2.14l-1.32 1.68c-.47.49-.17.25-.67.52.04-1.87 2.6-8.13 3.52-10.08.27-.84.63-1.08.32-1.74-1.39-.33-1.48.89-2.2 1.53zm42.05 8.9c.25-1.31 1.16-2.42 1.04-3.71-2.88 0-2.09 4.51-4.96 5.13-.88-1.35 1.68-4.32 1.98-5.64-1.96.05-1.67.52-3.61 2.55-.65.68-2.37 2.43-3.91 2.2.06-1.17.96-2.34 1.58-3 1.14-1.21 1.43-1.17 3.23-1.63-.42-1.73-3.44-.44-4.43.79-.87 1.08-2.21 3.01-3.33 3.35-.31-1.5.98-2.39.96-3.67-3.19-.55-1.97 4.74-5.41 5.08.12-1.11.53-2.08.96-2.99.43-.9 1.35-1.75 1.15-2.66-2.58 0-3.85 4.76-2.45 6.34 1.77.14 2.36-1.12 3.24-1.99 1 .41.25.96 1.78.6.75-.17.99-.72 1.72-.99.57 1.1.44 2.24 2.55 1.21 1.23-.6 1.8-1.38 2.87-1.9.01 1.01-.16 2.09.15 2.93 2.36.55 2.58-1.27 3.77-1.96.57.71.41 1.22 1.91.59 1.43-.6 2.72-3.16 4.19-4.34l-2.15 5.23c1.52.03 1.72-1.43 4.69-3.34.04.04.06.06.07.13l.54.92c.46.29 1.02.16 1.7.13-.14.94-.66 1.37.01 2.24 1.38.65 2.35-.83 3.05-1.45.97.4.56 2.05 3.1-.76.52-.58.68-.88 1.15-1.43.74-.87 1.15-.71 1.04-1.59-1.07.05-1.88 1.54-2.73 2.55-.5.61-.48.68-1.12.9.28-.99.87-1.5.35-2.62-2.34-.44-1.42 3.43-4.4 4 .23-2.33 2.73-4.89 5.81-5.56-.82-2.1-3.21-.2-3.94.43-.98.86-1.76 2.4-3.18 2.63.02-.75.35-1.18.81-1.65.66-.68 1.06-.55 1.25-1.35-2.22-.98-4.22 2.37-5.71 2.78.53-.71 2.89-4.25 2.86-4.98-1.81-.59-2.83 1.12-4.21 2.76l-2.57 3.04c-.58.69-.27.68-1.41.7zm-75.12-5.32c.65.37.97.18 1.89.18-.26 2.09-3.8 5.39-5.29 5.95.3-2.31 2.4-3.64 2.65-4.92-2.97-.38-2.37 2.42-5.01 2.73.52-1.75 2.1-2.19 2.13-3.02-2.55-.36-4.4 2.06-5.66 3.08.46-1.43 3.01-4.13 2.82-5.3-1.92-.48-4.36 2.49-4.79 3.8 1.45-.14.87-.24 1.67-.86-.33 1.55-1.97 3.54-2.07 5.23 1.49-.02 2.91-2.86 4.63-3.34.89 1.67.13 1.28 2.51 1-.11 1.05-.67 1.48-.32 2.7 2.31.41 3.76-2.23 5.34-2.99-.24 1.57-1.05 3.17-.46 4.84 2.4.52 3.18-2.41 4.51-3.15-.11.67-.35.93.09 1.48.84-.72 1.49-1.86 2.23-2.62.79-.81 1.54-1.82 2.68-2.14-.04 1.22-1.03 2.26-1.24 3.76 1.78-.47 1.7-2.08 3.88-2.44-.14.86-.37 1.09-.24 1.86 1.21.2 1.53-.48 2.5-1l.15.5c.09.39-.05.28.16.7.21.42.36.54 1.08.53 1.91-.03 5.01-4.33 3.21-5.48-1.97-1.26-3.64 2.55-6.05 3.66.27-1 .96-1.48.69-2.41-1.43-.07-2.3.73-3.14 1.25.22-.76 1.27-1.63.59-2.51-1.13-.87-2.33.54-2.97.92-.01-.89.25-.7-.26-1.41-1.34.04-1.12.75-1.86 1.88-1.02 1.56-3.65 5.4-5.27 5.96.03-.85 1.86-7.73 2.99-8.39.95-.44 5.95-.65 7.43-.77l5.71-.56c.18-.04.52-.12.69-.2.73-.35.29 0 .59-.51-1.12-.77-5.06.18-6.52.38-2.19.3-4.87.67-7.14.74.45-1.2 1.27-1.54 1.77-2.6-.59-.47-.34-.52-.96-.9-1.76.28-2.18 2.04-2.68 3.1-.74 1.6-1.92.34-2.67 1.31zm40.23-22.8c-.4-.52-.39-13.64-.32-13.89.33-1.18 3.14-.63 4.36-.34.78 2.29-.52 10.08-2.78 13.65-.93 1.48-1.25.59-1.26.58zm63.51-8.77c-1.71 1.25-1.37 1.49-2.87 1.64l-.44-.51c-.16-.22-.2-.34-.32-.55-2.26-3.91-8.26-.11-8.28-3.5l13.35.12c.37.96-.85 2.36-1.44 2.79zm-42.14 3.13c.29 2.39 1.26 4.45.35 6.75l-4.46.15c-.68-1.12-1.25-2.54-1.92-3.79-.72-1.35-1.34-2.45-2-3.75-.65-1.29-3.78-6.51-3.55-7.54 5.6-.96 4.1 4.39 6.24 6.13.78-1.49-.15-4.4 1.08-5.49 1.19-.37 3.58-.08 4.46.34.23 2.24.12 3.55 1.47 5.03 1.04 1.14 2.73 1.94 5.07 1.77.28-2.77-.87-6.11.8-6.49.58-.13 3.21-.36 3.5.69.32 1.16-.51 5.03-.17 6.79 4.6 0 10.11-2.14 13.24-5.19 1.52-1.48 1.33-1.81 4.68-1.48.1 2.31-1.45 3.34-1.74 4.21-.55 1.67-.22 1.56-2.19 3.6-4.13 4.3-13.71 6.02-18.92 4.15-3.94-1.42-4.12-4.8-5.94-5.88zm11.82-.22c-.35-1.49.37-13.71.45-16.32 4.83-1.03 20.43 7.2 7.79 13.91-1.62.86-6.06 2.54-8.24 2.41zM33.23 19.68l4.65-.02-.86 7.22c-.98.16-3.29-.41-4.12-.87l.32-6.33zM66.11 37.8c-1.23-3.2-1.61-3.28.76-5.5 1.43-1.33.79-4.91.77-7.11-.05-5.44-.61-4.78 3.2-4.54 2.06.13 6.23-.09 7.67.9-.44.32-2.6.78-3.11.89-.91.2-2.65.23-3.2.73-.44.86-.59 6.07-.5 7.34.78-.2 1.28-.48 2.11-.72l6.15-1.57c2.81-.6 6.27-1.21 9.33-1.21 2.23 0 1.8.77.56 2.33-3.15 3.99-9.84 3.53-16.99 5.96l-6.75 2.51zM48.72 19.88c.8 1.54 1.26 5.55 2.26 6.96.7-.34 3.85-5.97 4.39-6.73 1.12-.14 4.79-.56 4.89.64.03.3.03.16-.03.49l-1.02 3.15c-.66 2.14-3.15 11.84-4.07 12.28-.85.11-7-.62-7.63-.92-1.2-.58-2.81-11.24-3.24-13.03-.24-1-1.07-2.63-.02-2.99.78-.27 3.73 0 4.49.15zm-38.52.71 4.85-.1c.31 1.21.86 4.68 1.34 5.95l.55.79c1.39-2.33 2.71-4.96 4.15-7.28l3.96.2c.39.06.21-.01.55.14.95.41.27.5-.34 2.47l-4.2 13.18c-.52 1.07-1.59.84-3.01.82-1.2-.02-2.69.11-3.74-.15-2.47-2.21 1.49-6.04 1.04-8.94-.37-2.36-2.85-1.75-3.86-2.45-.6-.41-1.05-3.78-1.29-4.64zm139.33-9.82c4.13-2.5 5.23 10.67 1.76 12.91-3.99 2.58-5.57-10.6-1.76-12.91zM51.21 24.58c-.64-1.05-1.74-6.41-2.12-7.92-.9-3.52-1.92-8.05-3.93-11.15-2.02-3.11-5.77-.8-8.54-1.51-2.73-.7-2.25-.49-5.03-.33-.5-.61-.43-.82-1.39-.99-1.82 1.27-11.16 20.09-13.08 21.96l-.92-3.35c-.7-3.5-1.13-7.24-2.28-10.57-1.81-5.25-3.81-8.28-10.34-4.85.19 1.01 1.76 3.27 2.33 4.51.74 1.59 1.35 3.34 1.86 5.08.5 1.69 2.33 10.02 2.81 10.78 1.5.15 2.94-.2 3.56.91 1.5 2.69-3.59 6.38-.72 10.14 1.3.18 4.46.33 5.82.33 2.31 0 2.73-.81 3.2-2.52 1.27-4.57 6.72-21.96 9.16-23.89 1.07 1.73.51 13.15.44 15.85 5.53 0 4.25 1.76 5.71 2.08.21-2.2 1.7-15.75 2.25-16.72l.37.47c.08.15.22.55.3.75 1.52 4.18 1.82 5.86 2.83 10.29.52 2.29 2.04 11.13 2.83 12.4.87.31 8.79 1.32 9.79 1.23 1.49-4.65 2.98-9.39 4.43-14.25.69-2.32 1.44-4.67 2.36-6.8a32.56 32.56 0 0 1 1.54-3.13c.4-.71 1.33-2.54 2.09-2.76.15 5.02.09 10.13.14 15.17.04 3.93.62 4.71-1.22 6.69-.73.78-1.59 1.25-1.26 2.47.72 2.7.87 4.81 4.03 2.97 4.91-2.87 12.15-3.54 16.7-4.8 4.41-1.23 4.17-2.32 5.61-2.9l.03 7.27c.38.26.87.54 1.52.61 2.45-1.71 3.7-5.19 4.16-8.5.3-2.12.64-9.59 1.44-10.86 1.04.75 4.54 8.35 5.44 10.05 6.91 13.08 4.47 9.97 7.88 9.69 1.4-.11 1.48.35 2.56.55 1.22-1.11 1.2-2.28 1.25-4.09.82.32 1.85 1.67 3.05 2.32 1.98 1.07 4.04.99 6.45.99 6.61 0 12.71-2.3 15.98-6.91.74-1.05.6-1.57 1.12-2.48l1.35-2.35c.69.36.59.52.94 1.07 1.81-.17 3.02-1.06 5.18-.21 2.35.93 1.44 1.88 2.75 3.32 7.16-1.28 10.04-12.44 4.49-19.35-.64-.8-1.73-1.74-2.87-2.19-2.34-.93-2.68.1-4.46.19-1.28-1.17-3.14-2.93-5.36-.01-.64.84-1.16 1.49-1.6 2.45-.43.93-.46 2.48-.94 3.29-1.49-.61-7.67-9.93-23.06-8.49-1.31.12-3.38.83-4.29.16-.96-.72-1.65-2.06-3.02-2.22l-3.17 20.75c-.46-.14-.47-.2-.92-1.22-.21-.49-.46-1.06-.7-1.63l-4.32-10.05c-.7-1.65-2.04-5.39-3.01-6.49-1.44-1.63-5.63-1.96-7.9-.39.01 5.39.33 16.05-.04 20.88-3.75.26-6.02.23-9.61.81-2.9.46-5.52 1.65-8.26 2.12-.02-1.06.12-2.07.18-3.13.2-3.53-.23-2.39 4.38-3.62 1.47-.39 2.47-.76 3.78-1.38 2.02-.96 4.63-2.83 5.17-5.07l-12.59.29c.02-5.83-.13-4.35 5.27-5.04 3.3-.42 6.3-.58 8.39-2.4.71-.62 1.94-1.96 1.99-2.97-4.7-1.11-16.86-.67-22.32-.51-.52-1.52-.47-2.77-2.1-3.36-2.82 1.56-8.99 15.33-11.56 19.72-.31.53-.58.98-.86 1.48-.94 1.66-.51 1.08-1.12 1.24z" style="fill:#62d2fe"/><path class="fil2" d="m108.95 37.94 4.46-.15c.91-2.3-.06-4.36-.35-6.75 1.82 1.08 2 4.47 5.94 5.88 5.2 1.87 14.78.15 18.92-4.15 1.96-2.04 1.63-1.93 2.19-3.6.29-.87 1.84-1.9 1.74-4.21-3.35-.33-3.16 0-4.68 1.48-3.13 3.05-8.64 5.18-13.24 5.19-.34-1.76.5-5.63.17-6.79-.29-1.05-2.92-.82-3.5-.69-1.67.39-.52 3.73-.8 6.49-2.34.17-4.03-.63-5.07-1.77-1.35-1.48-1.23-2.79-1.47-5.03-.88-.42-3.27-.71-4.46-.34-1.23 1.09-.3 4-1.08 5.49-2.13-1.74-.63-7.09-6.24-6.13-.23 1.03 2.9 6.25 3.55 7.54.66 1.31 1.27 2.4 2 3.75.67 1.25 1.24 2.67 1.92 3.79zm48.9-1.84c.28-1.02-.85-2.47-1.54-2.8-2.81-1.34-4.22-1.28-3.79 1.66.27 1.82 5.19 1.19 5.32 1.14zM11.23 27.37c-1.93.68-2.21 1.59-2.9 3.61-.5 1.48-2.04 4.59 1.09 3.62 1.83-.57 2.28-1.75 2.93-3.58.47-1.33 1.88-4.7-1.12-3.64zm141.1 2.19c1.5-.15 1.16-.39 2.87-1.64.59-.43 1.81-1.83 1.44-2.79l-13.35-.12c.02 3.39 6.02-.41 8.28 3.5.12.21.16.33.32.55l.44.51zm-60.64 7.12c.01.01.33.9 1.26-.58 2.26-3.57 3.56-11.36 2.78-13.65-1.22-.3-4.03-.84-4.36.34-.07.25-.08 13.37.32 13.89zM3.97 40.67l2.16.08c.99 1.87-.55 7.96-.86 10.27-.2 1.57-.95 4.06.3 5.08 1.34 1.09 3.86.54 5.26-.28-.6-1.74-2.51.49-1.56-4.79.35-1.94.72-3.98 1.01-6 .25-1.78.88-4.72-.68-5.62-1.34-.78-5.44.3-5.64 1.26zm115.31 1.72c.94.32.47 0 1.06.87.39.57.49.43.37 1.11l-1.76-.02.33-1.96zm4.62 8.7c-3.59.01-4.35 2.25-5.52 2.19-.08-1.32.07-6.3.55-7.25 1.94-.71 4.38.22 6.78-1.12.12-3.68-10-12.64-10.96 2.8-.13 2.13-.11 3.97-.01 6.09.07 1.65-.11 4.56 2.43 3.77 1.34-.42 2-1.47 2.92-1.97 2.22-1.21.16-.07 1.65-1.61.87-.91 2-1.74 2.18-2.9zm-79.79-6.74c-.01-.8.09-1.38.56-1.93.65.4 2.62 2.61-.56 1.93zm-3.43 13.29c2.3.34 3.93-1.52 4.9-2.45.85-.82 3.2-2.76 3.42-4.11-3.1.05-4.01 1.42-5.46 2.46-.2-1.37.26-4.1.32-5.63.13-3.35-.13-1.51 4.87-2.24 3.17-.46 2.17-1.79.87-3.46-.96-1.23-1.86-2.65-3.69-3.11-7.65-1.91-6.78 15.82-5.23 18.54zm117.07-13.2c-.11-1.01-.07-1.53.42-2.04.48.3 1.39 1.19 1.25 1.95l-1.67.09zm4.89 6.7c-3.13-.16-4.08 1.53-5.59 2.42l.48-7.6c2.6-.33 5.06.12 6.92-1.04-.04-1.37-1.58-3.14-2.37-4.06-.94-1.09-2.43-2.33-4.72-1.71-3.24.89-3.7 5.26-3.99 8.67-.15 1.79-.16 4.02 0 5.79.16 1.71-.18 4.64 2.36 4 1.32-.33 6.75-5.02 6.89-6.47zm-78.15 2.55c.1-1.86.49-3.93.73-5.79.62-4.89.09-3.98 2.58-3.94.17.98-.8 3.98-1.08 5.14-.86 3.5-.46 4.15-2.23 4.58zm13.45.92c.56.51 1.2 1.08 2.07 1.25.45-.78 1.47-11.13 1.46-12.67-2.38.48-2.13 2.06-2.56 4.94-.31 2.05-.95 4.57-.97 6.48zm-.98 2.88c.52.14 1.04.3 1.49.52.27.14.52.3.77.47-.28-.7-.89-.72-1.5-1.23.36-.63 1.5-.81 2.43-.95-.05 1.14-.28 1.84.33 2.64.83-.18.37.09.97-.66 3-3.72 2.78-3.4 3.23-6.97.21-1.7.31-3.42.5-5.05.21-1.86.47-2.39 2.42-3.08.22.93-.27 4.32-.41 5.51-.56 4.96-.49 2.81.79 4.7-.54 1.76-1.97 2.19-1.53 4.56.95.22 6.08-.79 6.43-1.92-.75-.25-1.38.06-2.41.06.15-3.18 1.98-14.66 1.46-16.66-2.64-.08-4.3 2-6.14 2.62-.05-.91.33-1.82-.25-2.35-1.21-1.01-4.58 1.94-5.6 2.03-.24-1.57-.41-3.14-2.44-3.06-.61.02-1.8.31-2.44.5-.19.06-.8.27-.95.35-.99.57-.37 0-.72.78l1.85-.01c1.42 2.24-.07 7.18-.56 9.67-.8 4.12-1.69 6.2 1.42 6.96 1.2.29.59-.29.96.52l-.09.04zM84.32 55.7c.31-.8.48-1.23 1.13-1.57.17-.09.71-.29 1.01-.27 1.63.08.48 1.85.42 2.31 1.55.38 4.1.97 5.75-.55-1.36-1.76-3.42.47-2.14-5.05.48-2.08 1.03-4.22 1.4-6.29 1.01-5.76-1.48-6.91-6.68-5.18-1.61.53-1.24.64-1.42 1.04l3.12-.15c.47.59.93 1.18.98 2.08-1.54.11-4.4-.44-5.54.47-.73.58-1.47 8.17-1.66 9.5-.48 3.37-2.21 7.2 3.64 3.67zm-55.6-25.96c1.34.04 1.84-.25 2.9-.32.46 1.38 1.02 2.73 1.05 4.51.01.78.06 4.25-.71 4.81-1.32.75-4.02-.02-4.74 1.45 1.42.53 3.07.07 4.71.12.12 3.35-3.69 17.66-2.45 19.72.28.29.39.18 1.02.15 2.39-.13 1.37.25 2.26 1.71 1.09-.05 2.21-.3 3.01-.79-.31-.99-.94-.55-1.8-1.47-1.32-1.41-.1-6.7.18-8.47.26-1.68 1.29-10.18 1.93-10.89 1.45-.89 4.2-.16 5.19-1.68l-.4-.15c-1.35-.3-2.3.23-4.46.02-.5-2.37 1.07-5.67-.19-8.75-1.12-2.72-6.54-1.52-7.49.03zm113.67-.07c.7.29 2.01-.04 2.81-.09.86 2.62 1.6 6.32.42 9.27-1.77.18-2-.22-3.94.67-.9.41-.55.05-.77.72l4.42.23c.35 2.03-.8 5.89-1.43 7.8-.28.85-.09 1.98-.16 2.9-.2 2.77-1.25 5.74-.86 8.22.24 1.58.31 1.64 1.97 1.37.37.46.25.7.47 1.13 1.51.07 3.38-.19 4.13-1-.85-.69-1.29-.48-1.82-1.24-1.1-2.21 1.19-16.73 1.98-19.59 1.25-.19 4.73-.23 5.25-1.47-.93-.61-3.53-.1-4.98-.11.29-4.67 2.32-12.82-5.93-9.83-.83.3-1.35.38-1.54 1.01zm-16.55 10.54c.06.04.15.01.19.09.26.47 2.1-.41 2.46.94.51 1.89-.72 7.25-1.12 9.14-.3 1.39-1 4.56-.32 5.69.97 1.6 4.75 1.22 5.85.16-1.33-2.18-2.69 1.7-1.34-6.89.12-.79.82-5.23 1.28-5.78.54-.64 1.72-.54 1.98-.32.92 1.31-1.43 11.95-.93 14.38 2 .56 7.94-1.01 8.31-1.8-.98-.46-2.79.26-4.16.29.06-.85 1.99-17.79 1.1-16.42l-.58-.1c-1.26.05-4.16 2.04-5.53 1.94-.94-1.15-.25-2.46-2.66-2.62-1.45-.1-3.83.37-4.54 1.3zm-113.66 0c.4.28.29.22 1.19.27.98.06 1.75-.59 1.62 2.78-.04.92-.17 1.83-.34 2.76-.97 5.24-3.61 11.42 1.75 11.13 1.03-.06 2.25-.29 2.91-.92-1.44-1.91-2.74 1.06-1.21-7.43.72-4 .15-5.42 3.53-6.25.14 1.07-.89 9.43-1.13 11.62l-.3 3.24c.25 1.36 3.6.17 4.64-.1 1.1-.28 3.43-.62 3.64-1.65l-3.92.53c-.19-1.81.48-6.19.68-8.27.2-2.08.89-6.42.66-8.3-2.27-.39-4.78 1.72-6.48 2.24-.83-1.27-.19-2.78-2.56-2.95-1.29-.09-4.04.5-4.7 1.3zm53.92-2.4 6.75-2.51c7.15-2.43 13.84-1.97 16.99-5.96 1.23-1.56 1.67-2.33-.56-2.33-3.06 0-6.52.62-9.33 1.21l-6.15 1.57c-.83.24-1.33.53-2.11.72-.09-1.28.07-6.48.5-7.34.55-.5 2.29-.53 3.2-.73.51-.11 2.68-.57 3.11-.89-1.45-.99-5.61-.77-7.67-.9-3.8-.24-3.25-.89-3.2 4.54.02 2.2.66 5.77-.77 7.11-2.37 2.22-1.99 2.3-.76 5.5zm3.32 16.04c.93.32.95 1.28 2.18 1.52 1.21.23 2.41-.44 2.9-.96.1-1.09-.61-2.16-1.3-2.68-1.64-1.23-8.13 1.12-8.13 3.83l2.13.22c-.42.7-.84.97-1.76.53-.98-.46 1.16-.42-2.23-.16l1.55-16.48c-1.75-.45-4.98 1.55-6.56 2.17-.71-.74-.18-2.78-2.8-2.94-.94-.05-2.94.39-3.69.73-1 .44-.59.14-.9.91 3.12-.11 3.03-.09 2.88 2.93-.07 1.58-.51 3.36-.82 4.95-.49 2.52-2.59 8.52 1.12 8.63.72-.54.65-.82 1.22-1.38.7-.69.89-.43.86-1.65-.03-1.74.29-2.95.61-4.63.86-4.61.45-6.14 3.7-6.79l-1.61 15.29c2.76.06 3.94-.6 6.05-.96l4.54-.06c.59.13.24 0 .59.31l.39.51c7.56-.33 12.18-5.11 9.07-7.7-1.37-1.14-4.51-1.65-6.5-2.67-2.73-1.39-.16-4.66 1.16-5.04.68 1.66-.32 2.85 1.22 3.95 2.61.33 3.37-1.01 3.34-3.15-.02-1.73-.15-4.03-1.07-5.24-2.77-.31-6.02 3.2-7.2 4.46-9.11 9.7 7.67 5.5 5.68 11.44-1.19 3.56-7.99 2.68-6.64.16zM55.36 20.13c-.54.76-3.68 6.38-4.39 6.73-1-1.41-1.46-5.41-2.26-6.96-.75-.16-3.71-.42-4.49-.15-1.05.36-.22 1.99.02 2.99.43 1.79 2.04 12.45 3.24 13.03.63.31 6.78 1.04 7.63.92.92-.44 3.41-10.14 4.07-12.28l1.02-3.15c.06-.33.06-.19.03-.49-.1-1.2-3.77-.79-4.89-.64z"/><path class="fil2" d="M10.19 20.61c.24.86.69 4.23 1.29 4.64 1.01.7 3.5.09 3.86 2.45.45 2.89-3.51 6.72-1.04 8.94 1.05.26 2.54.14 3.74.15 1.42.02 2.5.25 3.01-.82l4.2-13.18c.61-1.97 1.29-2.06.34-2.47-.34-.15-.16-.08-.55-.14l-3.96-.2c-1.44 2.33-2.76 4.95-4.15 7.28l-.55-.79c-.48-1.27-1.03-4.74-1.34-5.95l-4.85.1z"/><path d="M32.9 26.02c.83.46 3.14 1.03 4.12.87l.86-7.22-4.65.02-.32 6.33z" style="fill:#fcfefe"/></g></g></svg>