<svg xmlns="http://www.w3.org/2000/svg" xml:space="preserve" width="96" height="72" style="shape-rendering:geometricPrecision;text-rendering:geometricPrecision;image-rendering:optimizeQuality;fill-rule:evenodd;clip-rule:evenodd" viewBox="0 0 49.83 37.37"><defs><style>.fil1{fill:#fd0000}</style></defs><g id="Camada_x0020_1"><g id="_2483308618720"><path d="M40.76 26.45c.38.29.62 1.35.99 1.75.61.67 2.32-.39 4.05.72.53.34 1.21.89 1.39-.31.11-.74.06-1.93.06-2.73.05-5.15.53-12.76 1.79-17.38.36-1.32 1.29-2.78.46-4.17-.55-.92-1.85-.58-2.83-.3-.33.1-.59.26-.88.35-.19-.45-.16-.8-.45-1.17-.2-.25-.25-.16-.28-.53-.02-.25 0-.44-.04-.71-.3-1.88-1.81-2.89-2.99-.9-.74 1.26-.51 1.91-.84 2.29-.4.46-.85.18-1.36 1.68-.37 1.1-.95 1.31-1.36.15-.35-.99-.18-1.72-.86-2.27-.87-.69-1.35-.15-1.99.24-.86-.44-.6-.42-1.68-.38-.45-.4-.95-1.33-1.99-.78-.52.27-1.17 1.13-1.38 1.74-.36-.22-.51-.55-1.07-.79-.52-.22-1-.23-1.58-.18-.57.05-.69-.39-1.28-.56-.95-.28-2.56.56-2.81.57-.19.01-.68-.4-1.35-.36-1.02.06-1.78.83-2.59 1.03-.47-.52-.81-1.03-1.72-1.27-1.46-.38-2.9.62-3.71 1.88-.34.52-.65 1.76-1.37 1.6-.43-.53-.02-1.61-.69-2.48-.46-.59-.16-.48-.31-1.32C11.82.39 10.74-.5 9.76.28c-.41.33-.97 1.24-1.14 1.96-1.56-.12-1.33-.04-2.85.46-.3-.22-.36-.43-.72-.62-1.06-.58-1.81.15-2.28 1.26-.7 1.64-1.6 4.33-2.06 6.19C.4 10.8.23 10.77.07 11.6c-.16.83-.07 1.76.26 2.36.58 1.07.98.5 1.59.94.03.55-.65 1.32-.88 1.73-.31.55-.55 1.25-.66 2.06-.29 2.29.95 6.99 1.81 8.96.76 1.74 1.17 2.13 1.83 3.41l-.39.23c-.4.21-.69.54-.94.95-.72 1.2-.89 3.07 0 3.97.75.76 1.42.14 1.72.03.53.34 1.27 1.19 2.01 1.11.69-.08 1.33-.99 1.56-1.55.84-.02 2.19.61 3.49-.85l.11.27c.02.09.03.16.07.28.2.6.74.75 1.26.8 1.01.1 1.32-.07 2.14-.42 1.16-.5 3.44-.22 4.83-.26.52-2.59.59-5.32.31-8-.07-.64-.36-1.95-.35-2.45.37-.25 1.96-.92 2.62-1.24.14-.07.25-.12.41-.2.03-.02.21-.1.23-.11l.19.01c.19.96.06 1.18-.21 1.94-.2.55-.44 1.07-.68 1.57-.3.63-.59.86-.62 1.7-.02.64-.11 1.68-.06 2.28l5.66-.37c.11-.06.23-.59.31-.87.09-.32.18-.6.26-.91.16-.59.34-1.18.51-1.76.25-.86.13-1.1.87-1.35.45-.15 1.29-.37 1.75-.3 1.03 1.43 2.82 3.14 4.69 3.94 1.45.61 1.93-.12 3.26-.36.61-.11 1.32.02 1.6-.49.25-.45.13-1.6.13-2.22z" style="fill:#000"/><path class="fil1" d="M46 27c.08-2.01.04-3.98.15-5.99.1-1.88.21-3.78.41-5.64.18-1.75.46-3.52.78-5.2.15-.81.33-1.65.55-2.4.16-.56.69-1.99.64-2.21-.38-.06-1.68.27-2.02.43-.7.33-.73.84-1 1.71-1.16 3.67-2.02 7.86-2.11 11.85-.02.87.03 1.95-.04 2.79-.19-.07-.85-1.2-1.02-1.48-1.05-1.68-1.89-2.78-3.3-4.13-.52-.5-2.8-2.37-3.5-2.67-.2-.08-.49.11-.79.19-.64.17-1.28.26-1.95.38.03.3 1.11 2.07 1.34 2.47 1.75 3.08 1.11 5.51 1.57 6.24.26.42 1.41 1.72 1.79 1.91.26-.63.51-2.2.59-3.03.05-.48.2-1.37-.01-1.76-.2-.38-.68-.4-.83-.82.84.12 2.58 2.33 3.02 2.98.57.85 1.22 1.97 1.71 2.95.13.27.35.78.51 1.01.63.04 1.32-.14 2.01-.1 1.01.06 1.22.47 1.51.51z"/><path class="fil1" d="M28.13 21.89c-.05-.54.11-4.04.24-4.32.94.54 2.33 7.34 7.14 9.9 1.58.84 1.36.41 3-.07.25-.07.86-.06.99-.29-.12-.28-.32-.11-.92-.43-.3-.16-.6-.37-.83-.54-2.77-2.07-4.22-4.81-5.89-8.09l-1.73-3.88c-1.07-.08-2.26.15-3.38-.4-1.49-.73-.42 1.26-1 5.43-.11.79-.22 1.58-.33 2.34-.26 1.88-.08 1.03-.85 1.75 0 .56.2 1.27.09 1.79-.3 1.36-1.56 3.66-1.6 4.15l3.59-.21c.22-.84.79-3.48 1.12-4.02.53-.88 2.15-1.2 3.36-1.31-.03-.68-.65-1.51-1-1.76-.57-.42-1.29-.07-1.98-.04zM17.11 20.93c.26-.22 3.43-1.5 4.99-2.57.8-.55 1.44-1.07 2.11-1.71.5-.47.6-.5.26-1.35-.19-.48-.42-.96-.76-1.18l-.94.97c-.9.87-1.98 1.79-3.09 2.38-.79.42-1.63.76-2.52 1.08-1.52.55-1.44.45-2.85.69-.31.52-.41 1.61-.03 2.22l.76-.08c.3.6.54 1.05.79 1.81.23.7-.6 1.01-.66 1.7.62.61.88.11 1.17 1.36.52 2.23.24 5.81.41 7.54l.42.02c2.04.01 1.73.25 1.85-1.31.13-1.68.04-3.55-.15-5.18-.1-.83-.57-2.56-.54-3.14.47-.31.84-.58 1.44-.89 1.08-.56 3.71-1.59 4.42-2.37-.1-.38-.76-1-1.05-1.25-.57.07-2.26 1.03-2.79 1.33-.63.35-2.01 1.5-2.61 1.54-.18-.46-.54-.96-.62-1.62z"/><path d="M30.94 10.78c.04-.28.63-2.72.88-3.01l-.04 2.56-.84.46zM6.1 26.97l.67-.23c.17 1.47.37 3.37.68 4.8.09.43.3 1.1.32 1.51-.73-.33-.98-1.49-1.19-2.64-.15-.83-.48-2.63-.49-3.44zm4.13.94c.2-.14.14-.16.32-.3l.52 3.17c-1.18.05-.84.09-1.26-.27-.44-.38-.71.15-.76.64-.17 1.67.87.8 1.88.72-.3 1.53-1.88 2.04-2.62.64-.39-.74-.67-3.21-.82-4.3-.23-1.63-.52-3.13.77-3.74.91-.43 1.75.15 2 1.32.13.62.21.63-.01 1.09-.32-.05-.72-.48-.98-.67-.19-.15-.85-.77-.81.06.02.4.54.68.79.88.32.25.65.54 1 .76zm0-3.69c-.64-.42-1.58-1.17-2.63-.13-.96.95-.58 1.73-1.03 1.99-.93.55-2.78 1.04-3.26-.51-.26-.83-.6-2.53-.7-3.43 1.03-.1 1.89.07 2.97-.15 2.54-.54 3.51-1.22 5.35-2.91.3-.28.58-.69.86-.87.22.48.74 3.23.62 3.82-.12.61-.58.93-.96 1.25-.28.24-.93.82-1.21.94zm-7.67-2.8c-.1-.18-.15-.5-.16-.79 2.9.28 5-.4 7.31-2.16 1.11-.85 1.11-1.11 1.58-1.58.1-.1-.01-.02.13-.11.09.79-.08.89-.41 1.32-.67.86-2.04 1.76-2.97 2.22-1.49.74-3.61 1.46-5.48 1.09zm6.26-6.61c3.31-.53 2.62 1.6.6 3.11-1.29.96-3.26 1.79-5.07 2.03-5.19.69-.71-4.31 4.48-5.14zm2.05 11.13c-.11-.2-.24-.89-.1-1.09.05-.08.59-.54.69-.64.48-.44.94-.74 1.25-1.36.57-1.15-.09-3.45-.35-4.65-.17-.8-.32-1.54-.49-2.34-.19-.9-.25-1.43-.97-1.68-2.08-.73-5.88.93-7.57 2.2-.96.72-1.87 1.68-1.73 3.63.09 1.22.61 3.47.89 4.7.41 1.76.84 2.65 2.64 2.52-.35 1.22-.98 1.18-.51 1.99.36.61.79 1.66 1.14 1.71.73-.77-.85-1.69-.54-2.39.1-.21.27-.59.41-.73.11.27.39 2.41.49 2.91.29 1.48.27 1.39.8 2.57-.16.37-.46.9-.7 1.14-.52-.29-1.12-.95-1.65-1.33-.9-.65-1.64 1.77-.96 1.62.17-.04.47-.5.61-.54.63.08 1.57 1.31 2.14 1.35.53-.33.74-1.22 1.17-1.75 1.27.27 3.34 1.19 4.05-2.07l1.29-.14-.01 2.92c2.03.25 1.63-.89 1.24-1.15-.36-.24-.57-.08-.64-.35v-2.45l-1.91.15c-.17-1.1-.31-2.15-.48-3.25-.18-1.18 1.22-1.33.82-2.4-.5-.03-.66.55-.99.89zm-3.34-4.08c-.28.21-.45.53-.3 1.08.1.36.41.64.78.42.66-.39.25-2.02-.48-1.5zM42.7 3.79c.3-.1.57-.5.77-.75.71-.91-.01-1.82-.62-.5-.22.48-.3.66-.15 1.25zM9.84 3.77c.34-.13.53-.51.76-.79.36-.45.4-.53.04-1.12-.42.02-.52.32-.7.72-.19.41-.36.73-.09 1.2zm13.33 1.21c.28-.36 0-1.17-1.76-.31-.86.42-1.62.63-1.68 1.31-.11 1.35 1.25.46 1.66.19.31-.2 1.64-1.03 1.77-1.19zm21.26-.04c.28-.49-.33-1.02-1.83-.27-.97.49-1.64.63-1.65 1.38-.02 1.3 1.33.33 1.73.09.25-.16 1.71-1.11 1.76-1.2zm-32.9-.01c.27-.5-.39-.69-.78-.65-.34.04-.8.28-1.09.42-.99.5-1.61.59-1.62 1.36-.02 1.28 1.32.34 1.74.07.26-.17 1.68-1.07 1.75-1.2zM8.9 11.37c-.2-.64.24-2.2.46-2.75.14-.36 1.43-1.1 1.79-1.33.52-.32.35-.8-.14-.88-.69-.11-2.75 1.34-3.04 1.63-.04.73.35.6.17 1.2-.1.34-.27.75-.3 1.17-.03.48.59 3.75 2.62 1.48.34-.39.97-1.14.72-2.15-.51-.09-1.52 1.76-2.28 1.62zm35.18-1.64c-.31-.01-.72.54-1.13.93-1.38 1.29-1.5.82-.89-1.35.28-1 .16-.77.82-1.25.42-.31.82-.51 1.25-.82.63-.44 0-1.05-.78-.76-.67.25-1.93 1.15-2.49 1.54.01.7.34.68.19 1.23-.12.42-.27.71-.3 1.17-.06.82.49 1.79.84 2.1.86.78 2.89-1.26 2.49-2.79zm-21.21.06c-.23-.15-.11-.05-.18-.04l-.93.88c-1.34 1.22-1.55.94-.93-1.25.27-.95.17-.87.83-1.32.42-.29.84-.53 1.25-.82.61-.42.06-1.02-.68-.8-.47.14-2.3 1.28-2.54 1.58-.09.76.33.58.15 1.18-.11.36-.27.75-.3 1.19-.07.83.47 1.76.82 2.1.92.88 3.02-1.52 2.5-2.71zm2.72-4.2c.33-.19 1.17-.5 1.4-.69.12-1.44-1.79-.74-2.37-.52-.74.28-2.11 1.05-1.17 2.03.42.09.65-.11 1-.22-.08 1.15-1.32 7.08.55 6.56.03-.34-.07-.6-.08-.98-.05-1.65.62-4.54.68-6.19zM7.34 5.6c.31-.19 1.21-.52 1.4-.69.14-1.44-1.8-.74-2.37-.52-.75.29-2.09 1.01-1.17 2.03.41.1.67-.12 1-.22-.08 1.21-1.32 7.01.55 6.57.08-.88-.19-1.08.16-3.71.14-1.08.41-2.33.44-3.45zm-4.45 5.03.64-2.64.09 2.32-.73.32zm2.23.23c-.06-.51-.43-.42-.54-.72-.16-.41.05-3.45.1-3.94.06-.58.4-2.02.03-2.33-.66-.56-.95.67-1.12 1.12-.65 1.68-1.49 4.11-1.85 5.97-.12.61-.24.45-.38.93-.13.42-.11.69.01 1.03.43.02.37-.2.69-.33.56-.22.17-.12.51-.48.19-.2.91-.71 1.17-.68.08.77.36 2.31 1.05 2.52.58.18.17-.65.02-1.4-.09-.49-.17-1.01-.18-1.52l.49-.16zm22.71-4.91c.22-.15 1.27-.75 1.37-.11.08.52-1.83 3.88-2.06 4.12.06-1.37.57-2.73.69-4.01zm.33 4.46c.11-.36.68-1.25.91-1.7 2.41-4.67-.97-4.29-1.64-3.92-.83.46-1.09 2.72-1.22 4.08-.08.79-.4 4.79.78 4.24v-.65c.29-.08 2.55-1.39 2.81-1.65-.03-1.1-1.03-.57-1.63-.4zM17.17 5.45c.58-.26 1.38-.83 1.55.3.19 1.23-.54 3.61-1.04 4.65-.2.42-.79 1.55-1.23 1.37-.42-1.27 1.08-5.42.71-6.33zm-1.69 1.77c.28-.27.11-.44.56-.67-.26 2.44-1.28 4.47.05 6.11 1.21 1.5 2.64-2.12 3-3.27.3-.96.63-2.06.43-3.21-.41-2.27-2.08-2.92-3.7-1.41-.88.82-.98 2.14-.34 2.45zm17.22 2.89c-.01-1.49.18-3.29.4-4.72.06-.42.16-.8-.01-1.16-1.25-2.65-3.24 5.9-3.2 6.87.03.83-.08.29-.27.94-.04.14-.08.34-.07.5.08 1.25 1.3-.69 2.37-1.14.3.45.24.99.9.9.02-.19-.12-.85-.12-1.3l.41-.08c.05.86-.03 2.39.86 2.3.02-.29-.06-.66-.05-1.05.02-.67.15-2.63.3-3.1.1.8.2 1.57.48 2.27.22.54.66 1.37 1.29 1.27.57-.34 1.08-6.21 1.05-7.62-.02-.83-.55-.44-.65-.3-.14.2-.15.52-.16.84-.04 1.05-.3 4.57-.62 5.21-.36-.67-.39-2.38-.39-3.3 0-1.19.44-2.64-.65-2.81-.86-.14-.83.95-1.06 2.47-.17 1.1-.27 2.09-.37 3.23l-.43-.21z" style="fill:#fdfdfd"/></g></g></svg>