<svg xmlns="http://www.w3.org/2000/svg" xml:space="preserve" width="80" height="96" style="shape-rendering:geometricPrecision;text-rendering:geometricPrecision;image-rendering:optimizeQuality;fill-rule:evenodd;clip-rule:evenodd" viewBox="0 0 26.04 31.24"><path d="M20.47 0h.34c.1.02.2.07.31.15 1.35.94 1.29.53 1.59 1.47.29.93 1.14 4.17 1.14 5.03-.34.19-.88.34-1.28.49-.41.15-.91.29-1.37.4.04.46.04-.01.76.77.16.17.2.27.36.45.71.83.55 1.96-.02 2.83l-.19.21c-.26 0-.26-.02-.45-.07-.24-.22-.2-.18-.55-.24-.13-.02-.39-.08-.53 0-.23.13-.02.11-.02.11.77 1.22 2.54 2.02 2.52 4.8 0 .18-.01.38-.01.55.01.6.19.56.22.59.37.38.23 1.17.29 1.62.09.69-.21 1.35-.52 1.68-.55.59-.61.5-1.36.82-.42.18-1.36.29-1.79.29-.18.02-.14.01-.26.07 0 .35 0 .11.06.21l.32 1.23c.67 0 .9.38.9 1.1h1.23c.07.14.05.06.06.27.33 0 .11 0 .19-.07.43-.31.68-.21 1.42-.21.4 0 .77-.05 1.15.08l.27.13c.12.2.33.28.52.41.16.12.23.36.26.65v2.33c-.01.36-.04.71-.13.99-.39 1.19-2.19.73-3.16.49v1.51l-2.67.02c-1.13-.23-.9-1.25-1.4-1.39H14.79l-.15-.12c-.01-.01-.03-.02-.04-.03-.07-.05-.05-.04-.12-.1-.04.15-.04.15-.09.25l-3.23.07c0 .98.15 1.33-.27 1.44H7c-.29-.02-.54-.08-.74-.29-.24-.24-.49-.78-.53-1.22-.49.12-.67.14-1.29.14-.16-.25-.36-.73-.39-1.1-.08-1.15 0-.57 0-1.37v-3.02h3.43v.34c.27-.07.31-.15.65-.2.55-.08 1.82-.09 2.26.14 0-.91.1-1.23.97-1.23 0-.42.01-.59.13-.89.13-.33.19-.33.19-.82-.32 0-1.03.06-1.25.18-.63.34-.61.05-1.16.21-1 .28-.57-.16-1.07-.18-.11 0-.68.14-1.23.14-.18-.35-.6-.9-.32-1.51-.33.08-.55.15-.87.25-1.5.46-1.73.6-2.1-.66-.17-.6-.33-1.19-.44-1.87-.16-1 .6-.93 1.01-1.14 0-.39-.06-.47-.06-.89.45-.04.87-.31 1.29-.34.13.3.18.61.26.96.28-.02.3-.21.98-.47.36-.14 1.41-.48 1.7.03.08.15.16.35.21.53.11.42.14.86.41 1.07.07-.31.12-.19.13-.61.03-1.21-.09-2.03.29-3.18.08-.23.11-.27.18-.49.06-.2.1-.35.17-.51-.35.03-2.84.92-3.42 1.11-.83.26-.76.03-1.17-.01l-.3-.3c-.21-.25.01-.12-.34-.26-.16-.06-.03.01-.19-.08a1.33 1.33 0 0 1-.19-.14c-.18-.16-.17-.19-.27-.39-.39.1-1.01.38-1.36.41-.06-.13-.19-.56-.19-.75-.27 0-.41.05-.58.14-.17-.12-.13-.03-.19-.27-.16-.75-.82-2.82-1.02-4.07-.04-.06-.08-.13-.12-.21C.3 8.12.12 7.59.05 7.29c-.07-.3-.04-.38.02-.43.05-.05.12-.08.19-.1.02 0 .03-.01.05-.01.05-.06.12-.09.28-.1.42-.1.61-.01.97-.2.42-.22 1.72-.75 2.19-.61.31.09.08.12.46.13.05-.2.03-.11.13-.27.33-.24.2-.28.79-.53.31-.13.6-.2.93-.32 1.73-.62.9-.18 2.03-.18.22-.43.25-.48.69-.71.47-.24 1.31-.38 1.96-.66.4-.17.54-.21 1.1-.21.04.2-.01.1.13.21.05-.18-.01-.06.06-.21l.39-.27c-.01-.26-.08-.53-.13-.75.54-.3 1.94-1.32 2.52-1.37.08.17.07.4.26.82.25-.06.27-.14.52-.21.1.16.13.21.26.34l2.29-.72c.34-.12.48-.07.85-.12.61-.1 1.03-.62 1.5-.73z" style="fill:#282829"/><path d="M13.11 19.77c-.16.26-.04.84.04 1.06-.01-.42-.04-.13.12-.24.04.5.41.28.81.23l3.26-.23c0-.4-.03-.75.2-.95.27-.23.64-.17.87.02.06-.25.19-.52.48-.59.32-.08.44.17.62.35.2-.21.44-.46.91-.25.37.16.44.42.64.76.39.65.68.62 1.34.39.3-.1.29-.01.48-.25-.13-.03-.11-.01-.2-.07l.06-1.36-.07-.07c-.06-.05-.03-.04-.12-.09-.47-.26-8.01.93-8.3.97-.24.04-.41.05-.63.08-.12.02-.18.02-.27.06l-.25.17z" style="fill:#c93"/><path d="M14.92 24.39c.43 0 .62-.06.97-.07.85-.03.87-.12.71-.82-.36.01-.58.18-.9.27-.84.24-.78.18-.78.62zm-7.88.21c-1.3 0-1.11-.15-1.1.96.01.61.14.75-.39.75v-1.3c0-.59-.43-.38-.97-.42-.24-.02-.3-.11-.36.17l-.03 3.68c0 .34.06.31.06.62h1.23l.06-1.64c.48 0 .39.06.39.75l.01 1.91c.05.25.3.42.44.42h3.94c.15 0 .19-.05.19-.21 0-.67.09-.96-.19-.96l-2.18.03c-.7-.03-.87.06-.92-.24v-3.15c0-.67.12-1.37-.19-1.37zm8.34 3.08c0-.29.39-.52.39-.14v.27c0 .39-.39.15-.39-.14zm0-1.64c.05-.24.07-.25.32-.27.08.18.06-.08.06.55-.58 0-1.55-.16-1.62.55-.04.49-.13 1.67.16 1.96.38.38 2.03.24 2.75.24 0-.29.03-.47.05-.64.02-.26-.04-.28-.05-.6-.07-2.13.43-3.15-.9-3.15-.57 0-1.38-.09-1.78.17-.31.2-.22.64-.22 1.2h1.23zm8.32 1.73c-.12-.29-.01-1.25-.01-1.47.01-.22-.04-.05-.04-.33 0-.14.17-.19.32-.21.08.18.06-.06.06.21 0 .39.08 1.72-.06 1.99-.22-.02-.2.01-.28-.19zm-1.34.32c0 .55.25.96.58.96.78 0 1.89.15 2.24-.23.29-.31.15-2.75.15-3.54 0-.52-.6-.62-1.1-.62-.48 0-1.87-.08-1.87.55v2.88zm-13.38-.14c-.23 0-.12-.9-.14-1.16-.02-.22-.05-.77.08-1.03h.13c.26 0 .14 2.05.06 2.19h-.13zm-1.49-.34c0 1.72.37 1.44 2.46 1.44.23 0 .52-.34.52-.62v-3.22c0-.17-.19-.39-.35-.45-.12-.05-2.62-.49-2.62.59v2.26zm4.72-1.85c.41 0 .26.43.19.55-.24 0-.26.01-.26-.34 0-.13.02-.12.06-.21zm1.49 1.1c0-.77.32-1.85-.3-2.09-.44-.17-1.31-.08-1.76-.08l-.72-.02c-.19.41-.06.25-.06.62l-.02 2.11c-.05 1.2.02.75.02 1.65 1.51 0 1.3.15 1.29-.82-.01-.8-.07-.67.13-.82.27.08.2 0 .19.82-.01.98-.21.82 1.29.82v-1.51c0-.33-.06-.47-.06-.69zm6.5-14.53c.01 0 .07-.26.42.19.15.19.18.29.18.63-.22-.06-.23-.13-.39-.34-.29-.41-.22-.22-.21-.48zm-.44-.83c.04.07.48.59.04.54-.06-.01-.5-.35-.59-.42-2.59-1.85-4.33-.94-3.61-1.75-.15-.17-.1-.16-.1-.48.22-.11.51-.1.71-.21.07-.31.07-.17 0-.48-.13-.07-.43-.17-.58-.07.14.11.08.01.13.21-.14.07-.3.1-.52.07-.27-.03-.28-.08-.19-.28-.3-.01-.3-.12-.44.09-.35.56.45.54.56.61.21.13.08.22.07.54-1.1 0-2.36.56-3.27 1.19l-.88.71-1.07 1.47c-.06.11-.12.24-.17.37-.37.84-.55 1.6-.55 2.64 0 .72.02 1.26.2 1.92.03.1.19.75.22.79.18.22.11.02.37.15l.31.22c.09-.36.23-.18.03-.64-.28-.62-.42-1.49-.42-2.24 0-.5.06-1.19.17-1.6.36-1.38 1.07-2.29 2.1-3.12l1.07-.64c.18-.08.43-.14.64-.21.25-.09.45-.11.68-.17 1.01-.29 1.99 0 2.93.3l.6.25c1.93 1.01 3.29 3.46 2.96 5.72-.05.31-.1.51-.1.85.17-.13.24-.35.38-.49.1-.1.38-.24.52-.34 0-2.23-.3-3.02-1.24-4.51-.16-.26-.68-.88-.96-.98zm-.97 14.26c.29 0 .26.02.26.55-.32-.01-.32 0-.32-.34 0-.13.02-.12.06-.21zm3.23 3.77c0-.29-.29-.21-.58-.21-.97.02-1.1.12-1.11-.47l.01-3.84c-.18-.13-.42-.3-.66-.32l-.76-.02c-.89 0-1.49-.14-1.49.21v4.18c1.52 0 1.3.16 1.29-.89-.01-.54-.14-.74.32-.75v2.33c0 .37.26.58.56.63h2.29c.01 0 .03-.01.03-.01.01 0 .02-.02.03-.02.1-.11.06-.57.06-.81zM8.9 9.73c.03-.4.34-.67.56-.91l.58-.48c.62-.45 1.55-.8 2.28-.8.39 0 .39.13.65.21v.29c-.7-.09-1.03-.15-1.73.13-.3.12-.6.25-.88.44-.28.2-.52.33-.77.55-.23.2-.46.41-.69.57zm-4.14 8.43c.11.51.51 1.48.32 1.71-.25-.07-.21-.11-.27-.4-.17-.89-.56-1.27-.06-1.31zm-.26-.89c-.32.08-1.16.26-1.16.69l.61 2.44c.19.71.61.59 1.5.28l.93-.25c0-.68-.01-.36-.06-.55l-.19-.75c-.08-.29-.69-2.95-.84-2.95 0 0-.9.09-.9.41 0 .28.12.32.13.69zm14.74 5.07c.12.53.26.45.26 1.23-.24-.15-.04-.1-.29-.86 0 0-.05-.12-.06-.15-.05-.22-.06-.11.09-.22zm-7.37 1.22c-.21-.12-.1.05-.08-.26.03-.31.12-.71.34-.94.09.17.05.12.01.25l-.26.94zm6.2-2.04c-.21 0-2.15.99-4.03.37-.2-.06-.01-.03-.3-.1-.31-.07-.37-.09-.63-.22-1.09-.54-.48-.12-1.5-.12.17.34.26.3.52.48-.06.28-.19.35-.31.77-.1.36-.09.54-.17.92-.13.64-.62-.2-.84.47-.06.18-.04.24-.04.44l.44.05h.15c.95-.04.76.19.89-.54.22-1.22.75-1.21.52-1.71.37 0 .54.15 1.16.28.36.07.75.2 1.17.2 2.7 0 2.62-.52 3.55-.75-.08.32-.05.13-.32.27.08.34.57.82.7 1.65.05.34.02.34.14.61.49-.12.78-.07 1.36-.07 0-1.14-.68-.53-.84-.69-.09-.2-.13-.86-.24-1.19-.25-.76-.34-.68-.67-.6.06-.24.04-.21.26-.27-.12-.18-.13-.06-.46-.13-.27-.06-.28-.15-.51-.15zm3.06-12.63c-.32-.22-.38-.34-.74-.52l-.88-.43c-.95-.38-1.36-.04-1.64-.18.02-.24-.02-.15.14-.26.52-.35 1.96.15 2.66.58.19.11.59.43.74.59.17.17.44.52.47.81-.23-.07-.2-.12-.37-.29-.12-.12-.23-.18-.38-.29zm-3.97-1.34c-.06.25-.2.28-.34.54-.13.24-.18.4-.18.77.39 0 1.31.17 1.59.3 1.11.49 1.44.58 2.53 1.36l.67.53c.36.28.13.26.44.35.51-.36.71-1.34.24-2.17-.06-.11-.05-.09-.11-.16-.01-.01-.02-.03-.03-.04-.01-.01-.02-.03-.03-.04-.56-.7-.81-.99-1.71-1.41-.94-.44-1.49-.39-2.5-.3v-.14c-.19.14-.39.27-.58.41zm-8.79 2.88c0 .37.31 1.01.52 1.16.18-.05.72-.58 1.05-.81.75-.54.99-.64 1.73-1.04l1.34-.5c.77-.17.29-.19 1.24-.19-.02-1-.87-1.64-1.62-1.64-.93 0-1.03-.02-1.91.31l-.53.26c-.47.25-1.04.74-1.35 1.17-.22.3-.48.78-.48 1.28zm-.58 8.63c-.12.03-.11.02-.19.07-.2-.2-.45-1.53-.45-1.71.27.02.25.04.31.29l.34 1.36zm-1.87-1.99.78 2.94c.34.34 1.45-.09 1.56-.26.08-.12.13-.48.18-.63.22-.63.37-.49.18-1.21-.35-1.34-.31-1.76-1.15-1.47-.2.07-.38.08-.58.14-.29.1-.54.13-.75.3-.24.2.09.06-.22.18zm15.9 11.99c.15 0 .19-.05.19-.21 0-.88.08-3.5-.06-4.18-.26 0-.5 0-.76.02-.39.03-.47-.06-.47.19v4.18h1.1z" style="fill:red"/><path d="M15.7 21.45c-.39.27-.45.27-.45-.41-.44 0-1.87.09-2.11.27.56.58 3.46.95 4.74.02-.25-.51-.34-.44-1.01-.44-.45 0-.89.07-1.29.14l.06.21c.06.2.01-.07.07.21zM8.2 4.94c0 .47.68 2.68.84 3.43.36-.2.48-.45 1.18-.8.86-.43-.5-.24 1.12-.73.33-.1.79-.31 1.06-.31 0-.43-.18-1.12-.32-1.44-.42.04-1.55.55-1.87.55-.25 0-.02.02-.19-.07V5.3l1.75-.54c.36-.17.18-.19.04-.81-.03-.14-.12-.5-.18-.64-.28.01-1.53.43-1.92.57-.49.17-1.5.29-1.5 1.08zm5.62-.89c.48-.2.45.03.58.62-.13.07-.23.1-.39.14l-.19-.75zm-.9-1.3c-.16.22-.2.09-.48.25-.17.09-.25.22-.34.4-.19.41.02.83.12 1.25.08.36.21.8.31 1.18.42 1.58.23 1.11.88 1.4.57.25.91.62 1.13 1.27.23-.01.72-.21.96-.29.42-.13 1.45-.37 1.28-1.19-.03-.15-.09-.37-.14-.55-.12-.46-.14-.53-.51-.41l-1.21.37c0 .29.03.28-.06.48h-.32c-.01-.42-.12-.26-.13-.69.27-.14.6-.2.93-.32.27-.09.76-.29 1.01-.3 0-.34-.32-1.45-.44-1.87-.05-.18-.05-.15-.1-.38-.03-.13-.14-.61-.21-.74-.49-.97-1.85.11-2.69.11.11-.16.21-.16.41-.25.22-.09.32-.15.5-.23l.69-.3c.16-.08.07-.07.27-.12 0-.36-.06-1-.47-.78l-1.73 1.13c.03.36.01.52.32.55zM6.2 6.52c.18-.02.5-.29.52.69-.15.04-.19.06-.39.07-.06-.26-.13-.43-.13-.75zm-.06 4.66c.44 0 .63-.11 1.06-.24.2-.06.3-.1.44-.15.2-.07.27-.11.44-.15 0-.53.05-.84.23-1.2l.55-.92c-.31.01-.55.13-.77.21l-.78.21c-.08.4.11.48-.26.48-.23 0-.26-.37-.26-.62 0-.13.48-.22.6-.26.26-.08.43-.15.69-.23.85-.27.68-.14.46-1.02-.15-.61-.45-2.19-.82-2.42-.45-.29-1.11.02-1.56.18-.31.11-.69.21-1.04.33-.34.11-.62.29-.72.68-.08.3.46 2.24.61 2.72.33 1.08.37 2.42 1.14 2.42zm11.05-3.63c.19-.14.39-.27.58-.41.27-.05.47-.26.9-.27-.01-.28-.17-.67-.27-1.08l-.58-2.26c-.13-.47-.37-.77.27-.77.01.39.99 3.6 1.03 4.11.29.01.2.06.42.03.29-.04.93-.35 1.2-.37-.01-.7-1.03-3.68-1.03-4.39.17-.02.18-.03.32-.07.07.16.14.35.18.5l.99 3.75c.28-.01 1.31-.36 1.55-.48-.01-.4-.82-3.31-.98-3.96-.26-1-.33-2-1.76-1.35-.56.25-.56.54-.68.58-.22.07-.29-.33-1.11-.01-.45.18-.51.33-.83.56-.14-.11-.08-.01-.13-.21-.26.02-.55.13-.78.21-.18.06-.21.08-.39.14-.16.05-.25.07-.39.14.01.28.08.49.15.73.3.95 1.08 4.38 1.33 4.89zm-14.8.34c0-.13.21-.15.32-.21.41.91.1.82-.19.82-.05-.25-.13-.32-.13-.62zM.19 6.86c.28.06 1.01-.23 1.57-.39.33-.09 1.32-.5 1.6-.5.78-.03.81.53.97 1.16.5 1.89.25.91.19 1.65.24.02.2-.01.3.23l.3 1.12c.51 1.95.34 1.8.98 1.56.49-.18 1.65-.65 2.1-.65.12.56.63.91.71 1.23l-1.28.42c-.41.15-.83.28-1.27.44l-1.28.43c-.55.1-.83-.18-.96-.66-.06-.23-.13-.43-.19-.69-.09-.41-.48-2.26-.73-2.33-.35-.09-.24.4-.2.56.11.38.4 1.38.41 1.69l-.78.27c-.24.08-.49.2-.77.21L.88 8.92c-.09-.33-.17-.8-.35-1.09l-.34-.98zm13.18 11.17v-.14c.33 0 .35.07.71.07-.25.39-.37.15-.71.07zm-2.59-1.37c.06-.32-.2-.75.19-.75.13 0 .46.74-.19.75zm9.37-.75c.19.14.53.74-.13.75.02-.3-.09-.2.19-.14-.01-.17.02-.08-.04-.24-.13-.4-.22.22-.15-.23.02-.13.03-.08.12-.15zm-3.49.48c.94 0 1.76-.75 2.07-.82-.46.92-2.43 1.3-2.91.62.36.03.24.21.84.21zm-4.72-2.54c0 .54.05.51-.19.69-.08-.05-.07-.04-.14-.12l-.09-.11c0-.02-.02-.03-.03-.04.05-.22.11-.3.13-.55.11.06.21.08.32.14zm-.58.62h-.13c0-.49-.04-.21-.12-.54l.19-.15c.1.22.06.37.06.69zm8.01-.07c.14-.22.19-.21.32-.48l-.26-.14c.19-.08.2-.05.39 0-.01.52-.22.27 0 .62l-.45-.01zm-5.24 1.23c-.27.19-.22.48-.65.48-.4 0-.57-.27-.58-.69.4.1.29.22.58-.14-.07-.32-.12-.26-.26-.47l.26-.08c-.05-.21-.34-.63-.47-.8-.42-.53-.74-.67-1.27-.29.07-.26.27-.48.58-.48.7 0 1.26 1.33 1.5 1.69.28.41.26.66.82.98l-.09.18c-.3.58-.99.71-1.54.51-.84-.3-.87-.96-1.09-1.45.37.14.34.87.99 1.21.74.38 1.21-.16 1.53-.25v-.21c-.24-.07-.14-.07-.32-.21zm2.65-1.1c.09-.13.17-.28.26-.41.29-.43.82-1.3 1.49-1.3.33 0 .56.14.58.48-.11-.12-.06-.08-.22-.17-.2-.12 0-.1-.23-.1-.22 0-.28-.01-.55.17-.25.16-.61.57-.68.86.31.01.5.13.61.38.31.69-.01 1.92-.81 1.47.1-.15.26-.24.26-.41 0-.55 0-.32-.19-.62-.2.05-.19.09-.39.14-.04-.35.08-.12-.13-.21-.21.33-.51.92-.97.96l.97-1.23zm-1.16 2.26-.26.27c-.39-.1-.55-.22-.46-.63.05-.25.15-.11-.2-.8l-.76-1.59c.34.13.36.76.71 1.03-.02-.3-.14-.37-.18-.63-.11-.74-.05-1.18-.1-1.54a4.39 4.39 0 0 1-.05-.7c.41.5.41 1.32.78 1.58.03-.36.23-.53.26-.89h.13c0 .52.29 1.27.21 1.66-.05.27-.14.53-.19.76-.08.33-.15.42-.15.8.15.08.25.1.33.27.13.28-.07.41-.07.41zm-2.33-4.8c.18.19.15.46.06.69-.17-.13-.12-.06-.16-.39-.03-.22-.04-.17.1-.3zm-.37.41c.02.27.08.16-.14.22 0-.44-.17-.47.06-.63.09.16.07.19.08.4zm4.83-.35c0 .53.02.37-.13.48 0-.53-.1-.21-.13-.62.16-.06.26-.09.26.14zm-2.39-.21h-.13c0-.49-.04-.21-.13-.55.08-.08.12-.1.26-.14v.69zm.13 0c.12-.18.16-.28.32-.34-.03-.32.1-.17-.26-.14.08-.12 0-.2.2-.21.36-.02.12.41.12.42v.16c.03.18.18.26-.38.12zm-5.17 4.45c0 .79.06 1.73.41 2.44.13.25.16.23.49.23v-.55c.25-.06.13-.06.39 0 0 .87-.09.37-.13.82.15.06.14.09.26.27l1.46-.23c.55-.1 1-.04 1.42-.27 1.41-.76 2.53.17 2.8-.46-.86-.08-.42-.57-1.97-.3-1.23.21-.98.51-2.3.51-1.33 0-1.38-1.51-.58-1.51.2 0 .28.09.32.27-.25-.01-.3-.08-.47-.02-.49.18-.14.86.32 1 1.18.35 1.96-.5 2.99-.5.69 0 .72-.06 1.42.27 1.19.56.51.31 1.68.21.5-.04.53.01.71-.35.21.16.05.11.26.27l.3-.09c.5-.09.47-.07.62-.71.08-.32.2-1.23.15-1.57-.26-1.87-.81-3.41-2.52-4.47-1.6-.99-3.38-1.16-5.07-.27-1.88.99-2.99 2.68-2.99 4.98zm1.03 3.63c0-.24.11-.1.19-.41-.21-.32-.74-.53-1-.17-.1.14.04.04-.16.24-.22-.14-.9-.99-1.16.21-.13-.11-.17-.59-.7.01-.33.38-.34.8-.34 1.29 0 .76 1.16 1.45 1.16.41.16.11.61.73 1.02.19.13-.17.08-.19.08-.46.32.18.25.35.57.34.73-.04.33-.74.33-.88v-.75zm1.03.75c.19.08.01.05.17.23.15.16.63.28.57-.09-.08-.23-.2-.8-.04-1.06-.1-.2-.02-.21-.35-.15-.14.03-.25.06-.31.17-.12.18-.05.65-.05.91-.25-.41.33-1.41-.71-.82l-.06.82c0-.38.05-.47-.13-.69 0 1.16.07.48.15 1.14.36-.02.6-.01.82-.09-.01-.2-.03-.2-.06-.37zm9.95-3.43c.08-.84.08-.47.01-1.18-.06-.56.06-.56-.2-1.43-.15-.47-.37-1.2-.71-1.44.04.49.65 1.31.65 3.01 0 .93-.11 1 .26 1.03zM7.47 20.53v.68h-.13v-.63l.13-.05zm0 0-.13-.21c-.24.09-.25.02-.4.19-.46.51.06 1.18.08 1.25.3 0 .29-.01.52-.07-.04-.16-.06-.2-.04-.42l.17.36h.45c-.02-.27-.11-.42-.13-.69-.02-.33.05-.4.06-.68-.45 0-.36-.04-.58.27zm12.73.82c-.02-.29-.16-.39-.3-.57-.38-.48-.3-.76-.56-1.19-.13-.22-.21-.33-.56-.3-.09.15-.19.29-.19.55 0 .5.79 1.58 1.16 1.58l.45-.07zm-2.71-1.16c0 1.11 1.77 1.74 1.67 1.05-.04-.26-.4-.3-.64-.97-.39-1.07-1.02-.49-1.02-.08zm2.26-8.71c-.36-.38-1.26-.91-1.79-1.11-.71-.27-1.44-.52-2.38-.52-.72.81 1.02-.1 3.61 1.75.1.07.53.41.59.42.44.05 0-.47-.04-.54zm1.96 9.42c.4-.11.72.04.82-.36-.54.04.13.14-.97.14-.58 0-.76-1.37-1.49-1.37-.25 0-.45.21-.45.48s.33.83.47 1.01c.33.44.78.78 1.29.37.16-.13.14-.22.33-.27zm-2.21 2.65c0-.79-.14-.7-.26-1.23-.15.12-.14 0-.09.22.01.02.06.15.06.15.25.76.05.71.29.86zm-7.63-.02.26-.94c.04-.13.09-.08-.01-.25-.22.23-.31.63-.34.94-.03.31-.13.14.08.26zm3.75-14.92h-.58c-.09.2-.09.25.19.28.23.02.38 0 .52-.07-.05-.2.01-.1-.13-.21zm4.99 3.89c-.35-.45-.41-.19-.42-.19-.01.27-.08.07.21.48.15.21.17.28.39.34 0-.34-.03-.44-.18-.63zm2.26 7.55c.1-.18.16-.52.14-.71-.04-.45-.03-.47-.28-.71l-.06 1.36c.09.05.07.04.2.07zm-.72-1.92c.14 0 .45-.03.57.01.23.07.09.18.4.26.36-.67-.7-1.02-.97-.27zm-3.49-7.74c.3.33.71.38.71-.27V9.91c-.34-.18-.72-.01-.71.48zm-6.98.41c.17 0 .8-.11.31-.67-.17-.2-.19-.15-.5-.15-.05.22-.07.82.19.82zm9.5 7.33c.35.09.55.17.81-.17.13-.17.23-.23.29-.45-.21-.23-.42-.39-.71-.14-.16.14-.38.45-.39.75z" style="fill:#fff"/></svg>