<svg xmlns="http://www.w3.org/2000/svg" xml:space="preserve" width="96" height="72" style="shape-rendering:geometricPrecision;text-rendering:geometricPrecision;image-rendering:optimizeQuality;fill-rule:evenodd;clip-rule:evenodd" viewBox="0 0 45.74 34.31"><defs><style>.fil7{fill:#070b10}.fil0{fill:#080b0e}.fil12{fill:#0a0a0d}.fil2{fill:#16188b}.fil4{fill:#ee0d11}.fil5{fill:#fdfdfe}.fil1{fill:#fed408}</style></defs><g id="Camada_x0020_1"><g id="_2482724653712"><path class="fil0" d="M20.39 32.06c-.04-.14-.05-.13-.05-.31.56-.13.39-.44 1.44-.45l-1.38.76zm2.71-.98c-.36 0-.48-.04-.8-.05-.37-.01-.51.05-.85.05.04-.12.23-.3.32-.44.36.19.45.16.82-.03.4-.21.38-.13.72.07-.04.15-.13.28-.21.4zm18.05-.44c.06-.2.04-.18.32-.18l-.32.18zm-4.42 1.11c-.22-.09-.58-.17-.85-.22l1.53-.9c.28-.23.19-.17.71-.17-.14.16-.61.34-.81.52-.13.12-.52.62-.57.77zm-6.28 1.47c.06-.18.18-.15.46-.33.14-.09.35-.27.46-.38l.58-.63c.06-.04.21-.11.3-.15.33-.17 1.05-.82 1.39-1.11.26-.22.22-.17.7-.16-.23.3-.39.63-.62.95-.53.77-1.45 1.11-1.63 1.27-.14.12-.06.11-.22.22-.28.17-.96.33-1.41.33zm-18.64-2.58v-.18h.27c-.08.09-.15.12-.27.18zm16.56.13c.06-.1.1-.21.16-.31.25 0 .28-.03.48-.04-.09.1-.47.32-.63.35zm-13.74-.09-.05-.22.47-.27.15.14c-.18.13-.36.23-.57.35zm28.98-.36c.42.68-.33.72-.33 1.47 0 .62.92-.2.99-.25.06.39-.58.93-.9 1.18-.17.13-.25.2-.57.18-.32-.41-.03-.75-.03-1.13-.27.27-.71.97-1.15 1-.38-.21-.31-.5-.52-.83-.57.47-.75.88-1.29.87-.42-.42-.08-.69-.01-1.19-.17.24-.78 1.12-1.11 1.06-.54-.27-.56-1.08-.28-1.62.12-.23.35-.48.51-.69.18-.24.35-.52.84-.32.29.23-.85 1.21-.89 1.26a.54.54 0 0 0-.06.56c.26-.06.46-.35.65-.52.6-.54.56-.66 1.1-1.27.26-.3.59-.6.59.01 0 .45-1.05 1.41-.8 1.87.28.07.72-.29.8-.49.17-.41.27-.52.57-.81.33-.31 1.17-1.01 1.92-.96.35.46.08.49-.03.62zm-12.78 1.69c.49.03.64-.31.93-.47.04.28-.02.28-.17.45-.34.39-.76.93-1.3.91-.36-.36 0-.77-.03-1.14-.56.41-1 1.65-1.5.59-.45-.97.18-1.46.71-1.91 1.33-1.12 1.98-.72 1.79-.33-.13.27-.21 0-.08.43.15.49-.73.9-.36 1.46zm-11.14-1.64c.09-.14.18-.26.26-.4h.42c-.09.1-.19.14-.33.22-.13.07-.21.15-.36.18zm.64-.62h-.27c.1-.16.07-.16.23-.3l.06-.04a.81.81 0 0 0 .3-.46c.09-.29-.08-.4.69-.4v1.11c-.17.01-.31.06-.44.08-.19.02-.38.01-.57.01zm22.2-6.78h1.28v4.86h1.65v1.7H42.52v-6.56zm-31.58 0h1.28v6.56h-1.28v-6.56zm14.22 6.56-.53-.04c.27-.15.82-.17.37-.49.21-.01.31-.09.53-.13-.06.21-.29.38-.37.67zm-5.52-.1.33.08-.51.86-.52.01c-.23.48-.76 1.25-.49 1.77.3-.01.69-.31.85-.48.26-.28.26-.52.49-.83.16-.21.46-.55.67-.69 1.25-.86 1.56.19.79.84-.08.07-.17.1-.26.18-.36.28-.46.29-.88.51-.03.45.23.71.73.48.32-.15.56-.41.84-.61.03.26.02.25-.12.4-.31.36-1.14 1.4-1.83.77-.24-.22-.25-.45-.29-.82-.23.2-.41.43-.64.64-.12.11-.22.19-.36.28-.2.12-.25.14-.59.13-.49-.59-.03-.8-.07-1.27-.3.17-1.03 1.23-1.46 1.17-.73-.11.16-1.46.24-1.75-.8.64-1.04 1.41-1.42 1.58-.34-.23-.2-.42-.36-.73-.31.3-.75.98-1.34.96-.34-.35-.07-.72-.03-1.13-.27.25-.83 1.01-1.09 1-.32-.07-.5-.53-.55-.87-.21.18-1.02 1.1-1.4.9-.51-.26.2-1.15.34-1.62-.93.7-1.17 1.7-1.74 1.5-.26-.55.52-1.23.46-1.63-.37.16-.84.89-1.07 1.21-.08.12-.4.77-.66.14-.18-.46-.16-.82.06-1.22.14-.25.66-1.31 1.09-.9.01.01.17.01-.04.35-.21.33-.79.75-.59 1.01.48-.21.95-1.32 1.86-1.63.36.19.35.34.05.84-.13.22-.41.62-.47.83.15-.11.3-.25.42-.38.15-.16.25-.25.41-.41.57-.58.83-.99 1.04-.59.36.71-.83.88-.54 1.7.34.01.34-.1.53-.25.61-.49-.25-.17 1.12-1.34.22-.19 1.3-1.01 1.68-.63.22.21.09.34-.09.48.1.5.23.37-.1.86-.19.29-.42.52-.17.87.32.01.57-.17.73-.31.16-.15.09-.15.17-.35.05-.11.11-.23.18-.34.11-.17.29-.45.42-.58.24-.24.42-.32.67-.05-.1.4-.76.84-.79 1.33.23-.05.33-.28.46-.45l.9-.94c.23-.18.4-.33.64-.34.33.49.11.65-.16 1.01-.2.27-.51.61-.45 1.03.37.01.81-.47 1.01-.7.14-.16.63-.79.67-.98l-.61.02c-.03-.28.22-.6.4-.76.4-.34.69-.01.92-.34.14-.2.29-.59.69-.54.32.05.01.4-.19.7zm4.58-.18c.26-.04.43-.08.76-.06-.39.09-.89.47-1.31.47-.27-.41-.08-1.08.48-1.42 1.53-.95 4.07-1.25 4.36.86.26 1.87-1.71 3.63-3.73 3.86-.51.06-.79.08-.79-.35 0-.79.4-1.42.78-2.11.35-.63.75-1.26 1.12-1.85-.37-.01-1.6.4-1.67.6zm-21-.48c0 .01-.07.31-.08.38-.03.15-.06.26-.08.38H1.69c.01-.22.11-.6.15-.81.14-.68 1.13-5.43 1.13-5.75h1.6l1.21 6c.05.29-.34.55-.52.56-1.07.04-.7.03-.96-.89H3.24v.13zm16.72.58c.06-.23.38-.45.2-.65-.21-.23-.73-.19-1.05.3-.11.17-.06.21-.27.26-.15.03-.35.03-.49.08-.15.05-.19.33-1.2.14-.51-.1-.71-.7-.71-1.15v-4.15c0-.34.11-.68.27-.89.35-.43 1.43-.32 2.02-.32 1.58 0 1.81.08 1.81 2.1 0 .69.04 2.72-.02 3.06-.08.46-.03 1.19-.56 1.22zm12.25-.58v1.69h1.17c-.16.2-.41.42-.62.59-.2.16-.52.41-.81.43-.04-.09-.03-.13-.2-.12-.16.01-.38.21-.52.28-.2.1 0 .04-.29.02.14-.5.72-.75.37-1.34.15-.05.21-.12.21-.27 0-.08-.1-.26-.15-.32-.09-.11-.15-.16-.33-.17.04-.12.1-.13.21-.23.26-.26.29-.68.33-1.02.03-.29.59-.79.69-1.16.01.01.01.01.02.03.04.27.49.85 1.21.86l-1.28.71zM7.3 30.14c.21.02.41.03.56.1-.01.18-.4.66-.52.84-.55.01-.55.03-.71.39-.04.1-.4.74-.14.74.22 0 .39-.2.67-.31.02.22-.07.26-.21.38-.13.11-.22.18-.35.29-.16.13-.51.52-.85.33-.56-.31.2-1.32.29-1.71l-1.43-.01-1.54 1.66c-.86.91-.97 0 0-.8.33-.27.29 0 .61-.38.14-.16.29-.37.42-.5-.45-.06-.87-.03-.52-.52.25-.35.66-.73 1.21-.59-.27.12-.31.01-.49.23l.62.02c.22-.28.48-.51.73-.77.49-.51 1.92-1.78 2.56-2.02.33.39-.09 1.04-.28 1.38-.25.43-.42.84-.64 1.27zm30.47-1.89c-.64.46-1.64 2.09-2.13 2.87-.11.17-.19.27-.29.46 0 0 2.3.53 2.53.67-.08.2-.5.64-.68.8-.38.14-2.1-.67-2.94-.45-.37.1-.68.37-.85.23-.18-.15.29-.97.69-1.12.89-.32.42.55 1.7-1.61.16-.28.33-.49.52-.77.16-.25.37-.52.55-.75.34-.44.88-1.17 1.49-1.15.48.6-.51 1.77-.59 2.25-.05.28.28-.02-.29.62-.82.91-.65-.04-.4-.61.14-.31.71-1.17.68-1.45zm-10.53-.91V24c0-.4.32-1.03 1.01-1.03h1.92c1.19 0 1.17.99 1.17 1.96l-.07 3.73c-.04.16-.11.4-.19.51-.34.48-1.49.36-2.34.36 0-.8-.34-1.69-1.19-1.99-.17-.06-.3-.05-.3-.19zM5.99 28.9v-5.93c1.72 0 1.26-.19 1.56.79.11.36.68 2.4.68 2.64.17-.1.45-1.42.5-1.63.1-.37.46-1.53.46-1.8h1.39v6.56H9.3l-.05-1.83c0 .38-.37 1.41-.37 1.83H7.81c.04-.12.17-.38.25-.51.37-.65.7-1.15.28-1.68-.23 0-.27.02-.41.11l-.61.37-.02.01c-.04.03-.01.01-.06.06L5.99 28.9zm32.06-1.61v-2.68c-.01-1.95.78-1.65 2.88-1.65.43 0 .73.07.93.29.15.18.3.58.3.87v4.24c0 .36-.14.79-.43.97-.51.32-2.77.2-3.07.08-.22-.09-.41-.24-.35-.44.03-.1.09-.2.14-.29.12-.26.25-.69.25-.99-.01-.32-.31-.51-.64-.4zm-17.31-1.07v-.62h.16l-.07.48c0 .01-.02.05-.03.07-.03.06-.04.05-.06.08zm14.59-.85h1.28c1.24 0 1.17 1.29 1.17 1.96l-.96 1.03c-.08.1-.12.17-.2.28l-.65.88h-2.08v-1.7h2.45c.26 0 .26-.49.11-.76-.91 0-2.56.31-2.56-1.25 0-.59-.11-2.1.23-2.53.16-.19.42-.33.78-.33h2.5v1.7h-2.24v.41c0 .17-.04.31.16.31zm-11.08 2.45.27.04c-.14.03-.39.16-.51.24-.57.36-.66.86-.61 1.41h-.43v-6.56h2.61c1.2 0 1.28.67 1.28 1.65v2.77c-.27-.11-.98.03-1.28.09V25.9c0-1.42.24-1.25-1.33-1.25v3.17zm-10.6-2.77v2.45c0 .06.08.22.11.27.33.07.81.05 1.22.04v-.76h-1.01v-1.7h2.29v4.15h-2.34c-1.39 0-1.54-.4-1.54-1.87 0-.77-.09-3.53.16-4.14.3-.72 1.44-.54 2.66-.54h1.07v1.7h-2.34c-.21 0-.27.22-.27.4zm30.41.76-.01-1.25c0-.27-.03-.2.12-.35.21-.22.66-.87.84-.98.02.77-.16 1.75-.68 2.37-.08.1-.12.18-.27.21zm-22.74-1.87v4.37h-.58v-1.43c0-.33.48-.38.48-1.07v-.04c0-.36-.34-.39-.48-.49v-1.25c0-.15-.04-.17-.05-.31h1c-.12.08-.24.15-.37.22zm-.77-.67c.22.03.44.07.69.1.55.07.17-.03.64.14-.54.04-.36.1-1.24.05l-.09-.3zm6.41.22c-.05-.19-.16-.24-.21-.4.19-.04.47-.09.69-.09-.09.12-.14.11-.23.25-.11.18-.03.19-.25.24zm3.99-1.2c.39.26.71.53.94.9.21.33.63.85.47 1.21-.23.5-.18 1.26-.19 1.81 0 .34-.09.42-.23.65-.1.16-.27.46-.41.55-.02-.86.13-3.56-.2-4.11-.24-.4-.63-.51-1.13-.53l.74-.48zm-16.03.39c-.08.06.13.05-.15.05h-1.01c0-.21.03-.18.05-.36l1.11.3zm21.47-.88c1.53 0 1.79-.25 2.86-.73.38-.17.61.32 2.04.6l-.25.95c-.08.22.11.12-1.13.12-.51 0-1.18-.02-1.6.27-.49.33.08.19-.69.63v-.89c-.84 0-2.79-.1-3.33.15-.47.22-.28.39-.61.6-.17.11-.74.42-.9.45-.04-.38-.64-1.09-.95-1.35-.4-.34 0-.09-.67-.51-.16-.1-.63-.42-.78-.46l1.59-1.48c.42-.35.55-.68 1.23-.25.9.57 1.77 1.91 3.2 1.91zM7.1 21.04c.67 0 1.13.38 1.95.73.8.34 2.34.56 3.27.56.85 0 1.17-.32 1.17.45-.59 0-.67.12-1.01.31v-.36c-.53 0-1.36-.04-1.86.01-.59.06-.8.03-1.34.03-.28 0-.26-.04-.31.14-.73-.33-1.38-.51-2.01-.77-.31-.13-.77-.25-.75-.61.02-.32.45-.49.89-.5zm7.82 1.64c-.22-.12-.95-.31-1.48-.57-.73-.36-.66-.31-1.31-.73.55-.29 2.92-.21 3.73.08.76.27 1.36.65 2.05.96.17.08.52.24.67.29-.39.03-.77.03-1.15.06-.59.04-.54.09-.88.3l-.04-.33c-.54-.03-1.12.04-1.59-.06zm7.14-2.09c.42.01 1.24.49 1.9.73.95.34 2.15.39 3.21.39.6 0 2.66-.56 2.66.27 0 .7-1.73.58-2.34.58l-1.8-.19c-.52-.07-1.11-.21-1.61-.35-.56-.16-1.75-.42-2.05-.83-.18-.25-.14-.41.02-.59zM8.8 23.18c-.14.15-.73.45-.96.58-.04-.05 0 .03-.06-.09l-.12-.39c-.04-.15-.1-.34-.15-.5-.78 0-1.01.02-1.8-.06v.41c-.14.08-.26.15-.42.22-.4-.26-.49-.25-.54-.62-.18 0-.2.02-.32-.04-.53-.29-1.21-1.94-.06-3.13.65-.68 1.81-.62 2.78-.62.21 0 .62.05.8.09.27.48.21.76.65 1.19.93.92 1.89.73 3.54 1.41.14.06.6.3.44.43l-.91.09c-1.98-.01-3.45-1.34-4.74-1.34-.75 0-1.32.55-.91 1.12.15.2.74.48 1.01.58l1.75.67zm35.04-2.19c0-.22.05-.39.05-.67l.01-1.51c.03-.2.11-.4.16-.63.13-.65.12-2.16.63-2.46.01.3 0 .59 0 .89 0 .32.05.5.05.85 0 1.03.59 2.44-.44 3.29-.23.19-.18.12-.46.23zm-4.85-.26c-.68.5-1.55.62-2.45.62-.78 0-1.25-.33-1.69-.64-.47-.33-.78-.68-1.29-1.01-1.19-.77-.8-.2-.23-1.97.07-.22.2-.63.42-.72.61-.24 1.35.43 1.57.67 1.09 1.24.04 2.21 2.16 2.39.88.07.64-.28 1.28.31.12.12.18.18.22.35zm2.08-1.83c0-.54.18-1.28.48-1.56.57.22.88.39 1.32.81 1.08 1.07.68 2.57.26 3.8-.07.2-.17.64-.24.77h-.63c0 .2.03.3-.06.44-.32-.07-.34-.38-.95-.4.24-.44.5-1.44.4-1.99-.07-.42-.04-1.17-.24-1.54-.11-.2-.16-.17-.28-.3a.311.311 0 0 1-.04-.06zm-12.52 1.87h.38c.07.25.37.91-.85.67-.06-.1-.02-.06-.05-.14l-.06-.13c-.01.5-.37.4-1.12.4-.01-.21-.05-.23-.05-.71.3 0 .31-.05.58-.05-.14-.07-.86-.09-1.06-.09l.16.09c.19.16.16.39.16.67-.23.13-.27.17-.67.12-.27-.04-.48-.04-.62-.19-.12-.13-.14-.43-.03-.58.12-.17.28-.14.68-.14l-.9-.18c.17.22.15.54.04.7-.17.24-.41.23-.76.13-.45-.14-.72-.28-.72-.69 0-.57.28-.31.75-.31-.05-.03.03 0-.11-.05-.06-.02-.08-.03-.15-.05l-.86-.31c.09.11.22.28.25.41.04.16.01.33-.06.46l-.04.06c-1.34-.27-1.17-1.07-1.07-1.16.31-.12.36.04.65.09-.17-.18-.76-.4-.48-1.2.18-.52.34-.81 1.2-.7.95.12 2.01.13 2.05.83.02.33-.17.41-.51.46.42.12.46.24.76.45-.02-.1-.08-.42-.08-.53-.01-.11.01-.17.04-.26.18-.56.75-.09 1.08 0 .67.17 1.22-.02 1.66.84.14.28.26.54.24.91-.09.05-.08.05-.2.09l-.22.08zm-.74-3.21c-.16-.03-1.12-.24-1.12-.4 0-.18.12-.65.3-.78.2-.15.51-.1.72-.07.4.05.28.04.53.18 0 .35-.23.77-.43 1.07zm-1.38-.4c-.59 0-1.1-.14-1.49-.31.22-.81.39-.67.48-.94l1.39.49c-.04.07-.2.76-.37.76zm-2.98-.31c.3-.51.69-1.23 1.54-1.07.06.21.1.29.05.49-.21.87-.74.58-1.6.58zm14.75 2.59-.8.05c-1.35 0-.63-1.6-2.44-2.55-.14-.07-.19-.09-.36-.14-.8-.26-.69-.02-.66-.78.05-1.32.53-.78 2.11-1 .36-.05.6-.12.88-.2 1.7-.48 2.99-1.48 3.67-1.61.23.84-.61 1.71-1.19 2.35-.18.2-.3.39-.45.6-.73.99-.76 2.16-.76 3.29zM34 14.76c-.01-.38-.11-.88-.11-1.25v-.71c2.07-.01 2.84-.64 4.55-1.5 1.15-.58 2.66-.73 3.77.02.67.46.9 1.25.9 2.06 0 .74-.51 1.53-.78 2.07-.41.84-2.02 3.13-1.47 3.96l.42.54c.1.26.07 1.08.07 1.37-.88-.16-1.63-.31-2.23-1.02-.61-.72-.63-1.71-.39-2.56l.55-1.23c.11-.19.21-.37.34-.56.25-.38 1.33-2.02 1.69-2.02.2 0 .04.07.48.31.33-.51.17-1.24-.33-1.37-.26-.07-1.04-.16-1.24-.07-.13.06-.3.18-.44.26-1.11.67-1.76 1.2-3.29 1.57l-1.21.23c-.86.08-.63.05-1.27-.08zM.99 12.71c.35-.08.7-.1 1.02-.21.14-.05.32-.11.44-.16.13-.06.22-.12.36-.19.5-.26.9-.63 1.3-.96l.98-.78c.11-.09.18-.16.29-.25.62-.46.88-.58 1.77-.57-.03.39-.19.77-.29 1.14l-.23 1.15s.11.04-.42.14c-.15.03-.29.07-.4.11-.84.32-1.13.7-1.84 1-1.02.43-2.19.16-3-.42zm38.65-7.94c0-.53-.3-1.02-.65-1.38-.12-.12-.21-.24-.31-.36.47.11 1.25.85 1.48 1.16.84 1.14.98 2.71-.33 3.64-1.22.87-2.97.64-4.3-.03-.64-.33-1.14-.56-1.48-1.12.17-.08.15-.04.26-.18-.57-.24-1.85-.52-2.32.11-.18.24-.29.46-.55.6l-.79-.85c-.27-.28-.59-.5-.81-.84.19-.23.68-.43 1.05-.55.3-.1 1.2-.21 1.45-.21 1.36 0 2.5.8 3.46 1.25.14.06.29.15.43.22.76.36 2.46.73 3.1-.12.31-.41.31-.87.31-1.35zM5.08 6.02c.68 0 1.2-.33 1.53-.63 1.03-.93 1.3-2.56 2.22-3.85 1.53-2.14 5-1.4 4.98 1.19l-2.45 1.25c-.01-.19-.05-.15-.05-.31 0-.12.04-.13.04-.32 0-.58-.27-.66-.42-.85-.06-.07-.1-.14-.16-.22.22-.13.24-.09.32-.36.3.06.46 0 .69.13-.02-.26-.25-.27-.58-.26-1.03 0-1.62 1.22-1.94 1.9-.15.32-.19.57-.3.91-.33.98-1.22 2.41-2.66 2.41-1.4 0-2.49-.54-3.84-.93-.23-.07-.39-.09-.63-.14-.21-.04-.38-.09-.58-.14.51-.35 1.38-.35 2.07-.35 1.58 0 1.44.03 1.76.58zm8.84-.43c.89-.25 1.77-.57 2.56-.9.67-.28 1.03-.47 1.24-1.07.02-.05.02-.07.04-.14.44-1.47 1-1.45 2.75-1.23.73.09 2.47.47 3.05.44-.01-.01-.03-.01-.04-.02-.34-.14-.83-.13-1.13-.26.14-.1.4-.23.57-.32.58-.31 1.32-.52 2.09-.53 1.08 0 1.06.48 1.12 1.34.02.29.06.39.27.53.28-.27.15-1.04.16-1.51.4.15.78.04 1.16.63.18.28.28.95.28 1.37 0 1.95.46 2.06.48 2.81-.87-.05-2.23-1-2.74-1.63-.38-.48-.51-.78-.61-1.45-.1-.61-.32-1.01-1.12-1.02-.13.03-.09-.02-.06.06.97.15.79.73.97 1.49.21.86 1.03 1.49 1.73 2.03.5.38 2.35 1.03 2.78 1.09-.28-.45-.58-.7-.86-1.18-.44-.78-.31-.96-.45-1.51.41.07.9.57 1.17.78.99.81 2.09 1.92 2.74 2.92.48.74.9 1.57 1.18 2.49.2.65.65 2.28.52 3-.2-.34-.36-.94-.47-1.35-.4-1.42-1.17-2.27-2.33-3.4-1.47-1.44-2.75-1.24-4.21-1.82-.81-.33-.37-.94-.72-1.15-.03.18.02.98.07 1.09-.68.36-1.53-.23-1.76-.59-.44-.72-.03-1.53-.49-1.83-.17.71.22 1.85.25 2.3-.23.12-.51.15-.86.14-1.79-.06-1.28-2.98-2.43-3.57-.03.31.42 1.04.54 1.4.19.55.24.98.5 1.45.11.19.75.77.02 1.26-.27.18-.58.08-.97.12-.6.06-.39.07-.85-.13-.06.45.03.45-.2.82-.31.5-1.03 1.35-1.26 1.85.18-.09.68-.89.83-1.1l.19-.24c.01-.01.01-.02.02-.03.65-.94.39-.72 1.75-1.03 1.06-.25.8-.72 1.3-.67.13.01.37.11.56.12.78.07.58-.36 1.66-.01.85.27 2.89-.08 4.93 1.18.18.11.26.14.42.27.15.13.22.16.37.27.12.09.19.2.32.31.12.11.2.2.32.31 1.12 1.17 1.95 2.54 2.18 4.06.09.59.15 1.57.04 2.19-.16.94-.44 1.88-.98 2.66-.09.14-.15.27-.26.41-.52.7-1.48 1.71-2.21 2.21-.29.2-.69.2-.82-.23-.13-.45-.09-1.7.01-2.19.05-.24.23-.82.21-.96l-.03-.31c-.1.15-.26.4-.43.49-.28-.06-.63-.25-.8-.4l.22-.88c0-.01.04-.12.05-.14.11-.17 0-.06.16-.14.05-.13-.12.04.11-.07l.15-.07c-.15-.17-.32.17-.24-.18-.13-.1-.51-.08-.67-.09-.96-.04-1.21-.05-2.14-.31-.68-.19-1.28-.47-1.82-.02-.13.11-.31.28-.55.14-.01.01.14.24-.19 0-.09-.07-.05-.04-.05-.16.05.18.09.13.11.38.04.53-.07.4-.17.38-.05.03-.01-.02-.09.08l-.47.86c-.54 1.11-.3 1.49-.46 2.47-.1.6-1.91 1.79 2.98 2.46.28.04 1.11.11 1.23.35-.18.07-.61-.01-.81-.03l-2.81-.01c-.01.4.11.47-.43.45-.55-.02-1.86-.22-2.33-.33-1.05-.25-1.76-.48-2.58-.91-.17-.09-.42-.22-.54-.35-.16-.17 0-.49-.27-1.29-.07-.21-.18-.35-.25-.55-.26-.67-.01-1.23-2.12-1.26.05-.5.72-.22.64-1.02-.02-.18-.36-.93-.56-1.07-.06.46.71.92.32 1.51l-.1.14c-.16-.01-.09.05-.23.1-.17.06-.91.03-1.2.04.04.45.32.51-.17.78-.03.02-.06.05-.07.04-.01-.01-.02.01-.03.02.72-.01 2.1-.53 2.83-.13.52.28.33.65.68 1.53.07.17.11.45.18.56-1.05-.2-.08-.54-2.39-.04-1.43.31-4.05.23-5.05-.68-.49-.45-1.02-1.19-.81-1.86.47.09.99 1.04 3.68.76l.58-.11c-.39-.01-.63.06-1.01.06-.78.01-1.98-.17-2.51-.57-.6-.45-1.28-1.39-1.59-2.19-.77-1.94-.85-4.1-.27-6.21.51-1.83 1.35-3.4 2.76-4.77 1.16-1.13 2.71-1.93 4.29-2.6.27-.11.45-.13.7-.22.04.39-.38 1.42-.57 1.72-.17.27-.31.44-.52.68-.19.21-.42.41-.51.63v.04l.95-1.01c1.02-1.27.35-1.76 1.21-2.64.37-.38.87-.54 1.48-.54-.24.37-.84.9-.85 1.38.62-.04.58-1.1 1.56-1.45.34-.12 1.05-.18 1.45-.05.39.13.65.39.87.65-.18.01-.18.03-.31.03-.56-.01-1.24-.18-1.72.41-.68.84-.2 1.13-.72 1.58-.45.39-1.86.98-2.51 1.2-.27.09-.66.21-.81.41zM5.61 9.73l-1.1.86c-.65.55-1.49 1.38-2.38 1.67-.58.19-1.32.06-2 .06.15.46 2.27 1.32 3.34 1.19.57-.07 1.13-.47 1.52-.73.22-.15.44-.27.71-.39.15-.07.23-.1.42-.14.31-.07.25-.04.51-.02-.01 1.33.09 2.48.33 3.61.17.8.55 1.43.9 2.14.15.3.1.48.1.89-.29-.12-1.94-.09-2.35-.05-1.79.21-2.57 1.95-1.95 3.24.13.27.29.47.46.69H2.74c0 .13.01.17-.03.29-.07.25-.34.3-.59.44-1.12.63-.83.48-1.06 1.61-.11.55-.98 5.17-1.1 5.37 1.72 0 1.18.13 2.66-.71.05.2.14.5.16.71h.32c-.25.28-.87.4-1.35 1.01-.15.19-.19.26-.19.55.2.11.18.18.53.18-.16.25-.16.26-.46.42-.49.26-.91.71-1.1 1.18-.11.28.03.63.47.48.33-.11 1.1-.61 1.41-.79.54-.32.76-.53 1.15-.95.18-.19.12-.25.5-.25-.04.39-.86 1.36-.08 1.72.59.28 1.3-.59 1.84-.7.04.4.33.63.83.34.15-.09.24-.14.39-.21.01.24.1.26.21.4.5 0 .67-.23 1.07-.4 0 .42.37.61.78.43.3-.13.65-.46.98-.48.26.92 1.03.27 1.33.13.01.39.32.62.77.42.25-.12.65-.41.89-.46.01.01.02.01.02.03l.18.21c.11.07.2.07.32.03.15-.05.41-.23.59-.31.01.34.29.64.73.48.15-.06.28-.15.42-.23.17-.09.3-.16.45-.25 0 .44.34.8.89.57.16-.07.35-.19.51-.28.2-.11.32-.2.51-.29.05.52.75.65 1.23.49.4-.14 1.42-.79 1.85-1.03.21-.12.36-.24.53-.41.17-.17.28-.31.43-.49.18-.22.23-.46.06-.66h1.12c-.31.49-.58 1.07-.75 1.6-.08.24-.11.81.07.98.23.22.73.15 1.1.09 1.16-.17 2.43-1.05 3.41-1.6-.11.4.07.94.3 1.22.38.48.75.14 1.2-.11.03.27.17.54.57.48.24-.04.54-.25.74-.37.48-.29.33-.14.84-.04.37.07.87.02 1.1-.07-.18.65.56.4.92.24.95-.42 2.21.47 3.01.39.46-.05.77-.49 1.18-.58.17.1.26.27.56.21.27-.06.32-.23.61-.25.03.34.37.5.77.33.18-.08.26-.14.41-.23.15-.08.28-.15.42-.23.36.25.29.77 1 .35.14-.08.25-.14.38-.21.11 1.11 1.6-.05 2.17-.37.45-.25.69-.41 1.02-.76.32-.34.72-.62.43-1.06-.26 0-.33.09-.51.2-.17.09-.3.16-.45.25.02-.64.64-.66.43-1.43.18-.04.61-.31.79-.41.48-.27.3-.26 1.08-.26l-.02-2.1h-1.63v-.85c-.01-.44-.07-.38.26-.59.58-.37.85-1.09.95-1.7.04-.25.05-.48.1-.72.07-.3.08-.38.08-.74 0-.42-.08-.41-.11-.71-.26.16-.74 1.41-1.28 1.74v-1.29h-.59c.01-.25.2-.76.28-1.01.09-.27.03-.26.3-.37.85-.37 1.3-.9 1.28-1.92-.01-.34-.1-.77-.15-1.08-.06-.35-.13-.73-.16-1.07-.08-.84-.03-1.47.05-2.27-.38.21-.48.31-.7.66-.17.28-.26.56-.34.92-.06.26-.14 1.92-.4 2.08-.06-.2-.56-.79-.73-.95-.31-.29-.62-.53-1.13-.57.05-.18.17-.32.29-.47l.88-1.36c1.66-2.79-.26-5.07-2.93-4.68-1.44.21-2.24.8-3.36 1.37-.57.29-1.89.77-2.58.48-.37-.15-.34-.66-.44-1.01-.32-1.12-.79-2.06-1.35-3.06-.12-.22-.45-.74-.4-1.03.06-.35.6-.47 1.15-.4.87.11 1.51.54 2.2.93 1.49.84 2.97 1.43 4.84.26 1.06-.66 1.58-1.77 1.17-2.98-.41-1.2-1.94-2.4-3.4-2.68.32.4.75.7 1.1 1.08.57.6.72 1.66.17 2.35-.14.17-.44.34-.69.41-.95.26-1.93-.3-2.7-.68-.26-.13-.47-.26-.73-.37-.57-.26-.98-.47-1.69-.59-1.87-.32-2.23.04-3.67.67-.09-.12-.21-.19-.33-.3-.15-.13-.22-.16-.37-.27l-.73-.5c.01-2.15-.04-2.27-2.24-2.77-2.32-.52-2.96.86-4.28.69-1.26-.16-1.02-.05-1.76-.85-.7-.76-2.19-.27-3.21-.1-.92.15-1.15.36-1.68.91-.38.4-.39.23-.84.41-.05-.19-.12-.31-.18-.52-.26-.85-.5-1.58-1.57-1.9-.92-.28-1.47-.31-2.4.14-1.02.5-1.58 1.24-1.99 2.21l-.67 1.41C6.32 6.13 5.4 5.27 4.12 5.12 3.08 5 1.16 5.1.61 5.96c1.81 0 4.02 1.07 5.06 1.2 3.05.4 3.23-1.98 4.13-3.67.25-.47.42-.83 1.14-.83.14.18.19.17.25.46.04.19.02.41.02.61 0 .76-.71.89-1.28 1.52l-.69.71c-.54.6-1.84 2.52-2.08 3.39-.72 0-.98.12-1.55.36z"/><path class="fil1" d="M18.62 10.38c-.03.16-.34.59-.46.66-.04.17-.36.57-.49.67-.4.3-.87-.07-1.15.2-.43.43-.46.17-1.18.13-.37.36-.51 1-.69 1.43-.17.42-.19.51.03.68 1.18.95-.19 1.18-.41 1.5-.19.27.08.56.08.76.2.14.54.89.56 1.07.08.8-.59.52-.64 1.02 2.11.03 1.86.58 2.12 1.26.07.19.18.33.25.55.27.8.11 1.12.27 1.29.12.13.37.26.54.35.82.43 1.54.66 2.58.91.47.11 1.77.31 2.33.33.54.02.42-.05.43-.45l2.81.01c.2.02.63.1.81.03-.12-.24-.95-.31-1.23-.35-4.89-.67-3.08-1.86-2.98-2.46.16-.98-.07-1.36.46-2.47l.47-.86c.08-.1.04-.05.09-.08.08-.8.01-.3-.14-.93-.27-1.17 2.08-.43 2.64-.29.8.2 1.29.24 2.3.26 1.02.03 1.17.12 1.91.53.01-.32-.2-.52-.38-.7-.4-.42-.27-.22-.78-.24-.41-.02-.47-.16-1.01-.03-1.62.4-1.57-.86-2.4-.77-.31.04-.47.35-.86.18-.21-.09-.42-.36-.53-.54-1.6.88-3.23 1.78-5.04 2.38-.11.04-1.19.44-1.26.31-.01-.01-.03-.01-.04-.01.02-.22.19-.21.45-.29l1.62-.52c.34-.11.7-.27 1.04-.42l.96-.44c.46-.25 2.34-1.48 2.75-1.54.85-.11 1.26 0 1.27-.36 0-.14-.12-.25-.21-.36-.13.05-.53.09-.7.13-.23.05-.42.11-.65.17l-4.07.73c0-.27-.08-.22.19-.28.89-.21 3.49-.27 3.9-.75l-3.08.05c0-.21-.01-.24.21-.26.43-.05 1.16.02 1.43-.13-.82-.01-1.51-.08-2.29-.01-.33.03-.82.01-1.16.01-.58 0-.65.1-.85-.26.54-.02.96-.07 1.54-.05.28.01.4.05.74.05h3.46c.08 0 .12 0 .2-.01.22-.03.13-.07-.01-.14-.24-.13-.5-.19-.78-.25-.71-.16-.74-.08-.75-.58-.23-.06-1.98-1.02-2.08-1.33-.15-.49 1.18.47 1.19.47 1.07.73 2.62 1.21 3.92 1.53.7.17 2.43.45 3.4.34.58-.07 1.11-.08 1.69-.19.3-.06 1.11-.28 1.38-.21.19.05.09.03.14.06-.08.26-.42.26-.74.32-.29.05-.57.1-.89.15-.52.08-1 .1-1.52.11-.37.01-.59.21-.09.31.6.12 1.49.15 2.11.09.29-.03.46-.12.65.1-.39.45-1.9-.05-2.44.22.21.02.51.1.73.15.63.13 1.52.21 2.08.48-.52.37-2.17-.3-2.87-.31.34.42 1.64.84 2.26 1.19.3.17.48.23.56.55-.91-.01-2.59-1.5-3.51-1.56-.11.1-.19.23-.27.36.11.08.21.15.32.22.53.33.28.43.61.83.53.65.72.23 1.19 1.68.26.8.45 1.42.44 2.31-.54-.03-.39-.73-.43-1.07-.05-.48-.06-.8-.32-1.12-.56.11-.57.66-.82 1.01l-.05.06c.02.14-.17.72-.21.96-.09.48-.14 1.74-.01 2.19.13.43.53.43.82.23.72-.5 1.69-1.51 2.21-2.21.1-.14.16-.27.26-.41.54-.78.82-1.72.98-2.66.11-.62.05-1.6-.04-2.19-.24-1.52-1.06-2.89-2.18-4.06-.11-.12-.19-.21-.32-.31-.13-.11-.2-.22-.32-.31-.15-.11-.22-.14-.37-.27-.16-.13-.24-.16-.42-.27-2.04-1.26-4.08-.9-4.93-1.18-1.08-.35-.87.08-1.66.01-.19-.02-.42-.11-.56-.12-.51-.05-.25.43-1.3.67-1.36.32-1.1.09-1.75 1.03-.01.01-.01.02-.02.03l-.19.24c-.15.21-.66 1-.83 1.1z"/><path class="fil2" d="M17.53 4.98c-.02-.25.09-.43.19-.59.14-.21.25-.28.57-.15.39.17.48.63.62 1.01l.94 2.21c-1.27-.45-1.76.15-2.29-.78-.18-.32-.31-.78-.07-1.11.24-.33.62-.31 1.18-.35 0-.45-.65-.23-1.14-.25zm-3.57.59c-.13.01-.24.06-.34.12.09.04.67-.11.86-.12-.02.36-.95 1.37.62 2.02.71.29.89.05 1.57.06.56.01.92.35.84.85-.2-.1-.36-1.16-1.3-.51-.83.58-.86 2.28.2 2.3.38-.39-.04-.83.16-1.1.65.03.03 1.08-.08 1.26-.23.4-.1.29-.18.45-.08-.66.08-.35-.43-.71-.23-.16-.4-.35-.53-.63-.3-.62-.26-1.04-.72-1.58-.68-.79-1.57-.91-2.6-.42l-.8.47c.27.03.2-.07.44-.11-.03.14-.03.13-.18.23-.01.01-.07.03-.08.04l.17.13c.31-.13.43-.32.79-.48 2.13-.94 2 .9 2.66 2.8.18.53.42 1.25 1.15 1.28.07-.3.09-.43.14-.77.13.33.35.66.91.58.55-.08.68-.57.94-.7.13-.07.44-.49.46-.66.23-.5.95-1.35 1.26-1.85.23-.37.14-.37.2-.82.46.2.25.18.85.13.39-.04.7.06.97-.12.73-.5.08-1.07-.02-1.26-.26-.47-.32-.9-.5-1.45-.12-.36-.57-1.08-.54-1.4 1.15.59.64 3.51 2.43 3.57.35.01.63-.02.86-.14-.03-.46-.42-1.59-.25-2.3.47.29.05 1.1.49 1.83.22.37 1.07.95 1.76.59-.05-.11-.1-.91-.07-1.09.34.22-.1.83.72 1.15 1.46.59 2.74.39 4.21 1.82 1.16 1.13 1.93 1.98 2.33 3.4.12.41.27 1.01.47 1.35.13-.72-.33-2.35-.52-3a9.86 9.86 0 0 0-1.18-2.49c-.65-1.01-1.75-2.12-2.74-2.92-.27-.22-.76-.71-1.17-.78.14.56.01.74.45 1.51.28.49.58.73.86 1.18-.43-.06-2.28-.71-2.78-1.09-.7-.54-1.52-1.17-1.73-2.03-.19-.76-.01-1.34-.97-1.49-.14.05-.29.01-.42-.01-.59.03-2.32-.35-3.05-.44-1.74-.21-2.31-.24-2.75 1.23-.02.07-.02.08-.04.14-.21.6-.57.78-1.24 1.07-.79.33-1.67.65-2.56.9z"/><path d="M12.57 19.06c.08.01.04.02.15.01h.04c.01 0 .03-.01.04-.01l.06-.03c.01-.01.03-.03.03-.02.01.01.04-.02.07-.04.49-.28.21-.33.17-.78.3-.01 1.04.02 1.2-.04.14-.05.07-.11.23-.1.17-.63.05-.8-.26-1.29-.57-.9-.91-1.21-2.05-1.58-.37-.12-1.18-.31-1.35-.51.37.07.64.14 1.09.19.47.05 1.26.07 1.66.22.43.16 1.08.35 1.28-.2.32-.89-2.48-.93-3.67-1.14-.76-.13-1.39-.29-1.64-.82-.44-.95.31-2.55.88-3.36.16-.23.32-.46.5-.65l.56-.58-.17-.13c.01-.01.07-.03.08-.04.15-.1.15-.09.18-.23-.24.04-.17.14-.44.11-.1-.3.95-1.31 1.16-1.46-.49-.18.61-1.01.78-1.09l-.19.39.34-.05c-.09-.26-.08-.16.03-.25.08-.22.32-.42.51-.63.22-.24.35-.4.52-.68.19-.29.61-1.33.57-1.72-.25.09-.43.11-.7.22-1.58.67-3.13 1.47-4.29 2.6-1.41 1.38-2.26 2.95-2.76 4.77-.58 2.11-.5 4.27.27 6.21.31.79.99 1.74 1.59 2.19.53.4 1.73.58 2.51.57.38 0 .63-.07 1.01-.06z" style="fill:#16188e"/><path class="fil1" d="M34.03 14.75c.64.14.41.16 1.27.08l1.21-.23c1.53-.37 2.18-.9 3.29-1.57.14-.08.3-.2.44-.26.2-.1.98 0 1.24.07.5.14.65.87.33 1.37-.43-.24-.28-.31-.48-.31-.36 0-1.44 1.64-1.69 2.02-.13.2-.22.38-.34.56l-.55 1.23c-.24.85-.22 1.84.39 2.56.61.71 1.35.86 2.23 1.02 0-.29.04-1.1-.07-1.37l-.42-.54c-.56-.83 1.05-3.12 1.47-3.96.26-.54.78-1.33.78-2.07 0-.81-.22-1.6-.9-2.06-1.11-.75-2.61-.6-3.77-.02-1.71.86-2.48 1.48-4.55 1.5v.71c0 .36.1.87.11 1.25z"/><path class="fil4" d="M20.2 31.33c.07-.39.48-.99.93-1.01.03.42-.58.87-.93 1.01zm-7.83.76c-.41-.85 1.51-1.61 1.56-1.62-.21.22-.95 1.62-1.56 1.62zm7.3-2.68c.2-.3.51-.65.19-.7-.39-.06-.55.34-.69.54-.23.33-.52 0-.92.34-.18.15-.43.48-.4.76l.61-.02c-.04.18-.53.82-.67.98-.2.23-.64.71-1.01.7-.05-.42.25-.75.45-1.03.27-.36.49-.52.16-1.01-.25.01-.41.15-.64.34l-.9.94c-.13.16-.23.4-.46.45.02-.49.68-.93.79-1.33-.25-.27-.43-.19-.67.05-.13.13-.31.41-.42.58-.07.11-.13.23-.18.34-.08.2-.01.2-.17.35-.16.14-.41.32-.73.31-.25-.35-.03-.58.17-.87.33-.49.2-.36.1-.86.17-.14.3-.27.09-.48-.38-.38-1.45.44-1.68.63-1.37 1.17-.51.85-1.12 1.34-.19.15-.19.26-.53.25-.29-.82.9-1 .54-1.7-.2-.4-.47.01-1.04.59-.16.16-.26.25-.41.41-.13.13-.27.27-.42.38.06-.22.34-.61.47-.83.29-.5.31-.65-.05-.84-.92.31-1.39 1.42-1.86 1.63-.2-.26.38-.68.59-1.01.21-.34.05-.34.04-.35-.43-.41-.96.65-1.09.9-.22.4-.24.77-.06 1.22.25.63.58-.02.66-.14.23-.33.7-1.05 1.07-1.21.06.41-.72 1.08-.46 1.63.57.2.81-.81 1.74-1.5-.14.47-.85 1.36-.34 1.62.38.2 1.19-.72 1.4-.9.05.34.23.8.55.87.27 0 .82-.76 1.09-1-.04.41-.3.78.03 1.13.59.02 1.03-.66 1.34-.96.16.32.02.5.36.73.38-.17.62-.94 1.42-1.58-.08.29-.97 1.64-.24 1.75.43.06 1.16-1 1.46-1.17.04.47-.42.68.07 1.27.33.02.39 0 .59-.13.14-.09.24-.17.36-.28.23-.21.41-.44.64-.64.05.37.05.6.29.82.69.63 1.52-.42 1.83-.77.14-.16.15-.14.12-.4-.27.2-.52.46-.84.61-.5.23-.76-.03-.73-.48.42-.22.52-.23.88-.51.1-.08.18-.11.26-.18.77-.65.46-1.7-.79-.84-.21.14-.51.48-.67.69-.23.31-.23.56-.49.83-.17.18-.56.47-.85.48-.27-.52.26-1.29.49-1.77l.52-.01.51-.86-.33-.08z"/><path class="fil5" d="M7.27 27.88c.05-.05.02-.03.06-.06l.02-.01.61-.37c.14-.09.18-.11.41-.11.42.53.09 1.03-.28 1.68-.07.13-.21.38-.25.51h1.07c0-.42.37-1.45.37-1.83l.05 1.83h1.28v-6.56H9.22c0 .27-.36 1.43-.46 1.8-.05.21-.33 1.53-.5 1.63 0-.24-.57-2.28-.68-2.64-.29-.98.16-.79-1.56-.79v5.93l1.25-1.01z"/><path class="fil1" d="M5.11 6.01c-.31-.55-.18-.58-1.76-.58-.69 0-1.57.01-2.07.35.2.04.37.1.58.14.24.05.41.07.63.14 1.35.39 2.44.93 3.84.93 1.44 0 2.33-1.44 2.66-2.41.11-.34.15-.58.3-.91.32-.68.91-1.9 1.94-1.9.33 0 .56.01.58.26-.23-.13-.39-.07-.69-.13-.08.27-.09.23-.32.36.06.07.1.14.16.22.15.19.42.27.42.85 0 .18-.04.2-.04.32-.01.16.04.12.05.31l2.45-1.25c.02-2.59-3.45-3.33-4.98-1.19-.92 1.29-1.19 2.92-2.22 3.85-.33.3-.85.64-1.53.63z"/><path d="M26.22 14.42c-.16-.2-.42-.37-.86-.28-.29.05-.47.4-.85.2-.34-.18-.24-.45-.07-.65.32 0 .74.03.95.03.97-.01.58-.82.42-.95-.31-.26-.26-.14-.25-.65l2.02.33c.08.64.47.99.48 1.65.01.75-.23 1.16-1.19.82-.37-.13-.45-.22-.65-.48zm-3.01 2.14c.09.02.21.15.17-.38-.02-.25-.06-.2-.11-.38.01.12-.04.09.05.16.32.23.18 0 .19 0-.22-.18-.19-.21-.18-.53.28-.16.39-.14.85-.14.4.01 1.34.2 1.72.3.29.07.55.13.86.17.76.11 1.97.1 2.65.37.34.13.32.24.46.5-.64-.12-.68-.39-1.19-.4-.08.35.09.01.24.18l-.15.07c-.24.1-.07-.06-.11.07.42 0 .66.1.87.3.27.25.08.54-.07.77l.03.31.05-.06c.25-.35.26-.9.82-1.01.26.32.27.64.32 1.12.03.34-.11 1.03.43 1.07.01-.89-.17-1.51-.44-2.31-.47-1.45-.67-1.02-1.19-1.68-.33-.4-.08-.5-.61-.83-.11-.07-.21-.15-.32-.22.08-.12.16-.25.27-.36.92.06 2.6 1.55 3.51 1.56-.08-.32-.26-.39-.56-.55-.62-.34-1.92-.77-2.26-1.19.7.01 2.35.68 2.87.31-.56-.27-1.46-.35-2.08-.48-.22-.05-.52-.13-.73-.15.54-.27 2.05.23 2.44-.22-.18-.21-.36-.12-.65-.1-.62.06-1.51.03-2.11-.09-.49-.09-.27-.3.09-.31.51-.01 1-.03 1.52-.11.32-.05.6-.1.89-.15.32-.05.66-.06.74-.32-.05-.03.05-.01-.14-.06-.27-.07-1.08.15-1.38.21-.58.11-1.11.13-1.69.19-.97.11-2.7-.17-3.4-.34-1.31-.32-2.85-.8-3.92-1.53-.01 0-1.34-.96-1.19-.47.1.31 1.85 1.27 2.08 1.33.01.5.04.42.75.58.28.06.53.12.78.25.14.07.23.11.01.14-.08.01-.12.01-.2.01h-3.46c-.34 0-.46-.04-.74-.05-.58-.02-1 .03-1.54.05.2.36.26.26.85.26.35 0 .83.02 1.16-.01.78-.07 1.47 0 2.29.01-.28.15-1 .08-1.43.13-.23.03-.22.05-.21.26l3.08-.05c-.41.47-3.01.53-3.9.75-.27.07-.2.01-.19.28l4.07-.73.65-.17c.17-.04.56-.08.7-.13.09.11.21.21.21.36-.01.36-.42.25-1.27.36-.4.05-2.29 1.28-2.75 1.54l-.96.44c-.34.15-.7.32-1.04.42l-1.62.52c-.26.08-.43.07-.45.29.01.01.03 0 .04.01.07.14 1.15-.27 1.26-.31 1.8-.6 3.43-1.5 5.04-2.38.11.18.32.45.53.54.39.17.55-.14.86-.18.83-.1.77 1.16 2.4.77.54-.13.6.02 1.01.03.51.02.38-.18.78.24.18.18.39.38.38.7-.74-.42-.89-.51-1.91-.53-1.01-.02-1.5-.06-2.3-.26-.56-.14-2.9-.89-2.64.29.14.63.22.13.14.93z" style="fill:#080a0d"/><path class="fil5" d="M13.69 25.05c0-.18.06-.4.27-.4h2.34v-1.7h-1.07c-1.22 0-2.36-.18-2.66.54-.25.61-.16 3.37-.16 4.14 0 1.47.15 1.87 1.54 1.87h2.34v-4.15H14v1.7h1.01v.76c-.41 0-.89.02-1.22-.04-.03-.05-.11-.21-.11-.27v-2.45z"/><path class="fil1" d="M39.67 4.76c0 .48 0 .93-.31 1.35-.64.85-2.34.48-3.1.12-.14-.06-.29-.16-.43-.22-.96-.45-2.1-1.25-3.46-1.25-.25 0-1.16.11-1.45.21-.37.12-.86.32-1.05.55.22.34.53.56.81.84l.79.85c.26-.15.37-.36.55-.6.47-.63 1.75-.34 2.32-.11-.11.14-.09.1-.26.18.34.55.84.79 1.48 1.12 1.33.67 3.08.89 4.3.03 1.31-.93 1.18-2.51.33-3.64-.23-.31-1.01-1.05-1.48-1.16.1.12.19.24.31.36.35.36.65.85.65 1.38z"/><path class="fil5" d="M39.46 27.77c-.22-.39-.11-1.6-.11-2.19 0-.34-.09-.86.22-.93.31-.07 1.03-.01 1.27.04.12.44.05 2.23.05 2.81 0 .21-.12.31-.37.31-.5 0-.66.04-1.07-.04zm-1.38-.49c.33-.1.63.08.64.4 0 .3-.13.74-.25.99-.04.09-.11.2-.14.29-.06.2.12.35.35.44.29.12 2.56.23 3.07-.08.29-.18.43-.62.43-.97v-4.24c0-.28-.14-.69-.3-.87-.19-.22-.5-.29-.93-.29-2.1 0-2.89-.3-2.88 1.65v2.68zM17.79 24.7c.06-.02.18-.04.27-.04 1.06 0 1.22-.12 1.22.49v2.23c0 .63-.63.46-1.49.4-.17-.61-.17-2.47 0-3.08zm2.18 4.64c.54-.04.48-.76.56-1.22.06-.34.02-2.36.02-3.06 0-2.01-.23-2.1-1.81-2.1-.59 0-1.67-.11-2.02.32-.17.21-.27.55-.27.89v4.15c0 .45.2 1.05.71 1.15 1 .19 1.05-.08 1.2-.14.14-.05.34-.04.49-.08.21-.05.16-.09.27-.26.32-.49.84-.53 1.05-.3.18.2-.13.42-.2.65zM28.59 24.7c.02-.01.2-.04.21-.04.78 0 1.1-.09 1.22.14.13.25.06 2.17.06 2.58 0 .43-.18.4-.25.41l-.08.02c-.29.05-.92-.02-1.16-.04-.06-.21-.11-.4-.11-.67 0-.75-.09-1.69.11-2.41zm-1.33 2.63c0 .15.13.13.3.19.85.31 1.19 1.19 1.19 1.99.85 0 2 .12 2.34-.36.08-.11.16-.34.19-.51l.07-3.73c0-.97.01-1.96-1.17-1.96h-1.92c-.69 0-1.01.63-1.01 1.03v3.34z"/><path class="fil7" d="m13.37 12.43.21-.31c.57.25.7.26 1.06.71-.17.27-.49.81-.95.75-.72-.09-.34-1.04-.33-1.15zm0 0c-.16.1-.11.14-.25.28-.92.91-1.96 0-1.19-1.35.13.05.29.08.43.13.12.05.26.1.39.16.27.13.48.28.73.42-.05.09-.09.24-.11.36zm.32-.45c.32-.57.93-.76 1.2-.42.24.29.15.76-.08 1.05-.43-.19-.73-.41-1.12-.62zm-3.35.4c-.9 0-.37-1.65-.16-1.65.5 0 1.39.46 1.54.49 0 .56-.73 1.16-1.38 1.16zm1.65-1.2c.85-1.47 2.35-1.36 2.12-.19-.07.37-.31.6-.52.86-.27-.12-.53-.22-.82-.34l-.78-.33zm-1.76-.62c.11-.2.13-.55.6-1.01 1.45-1.43 2.32-.1 1.17 1.29l-.17.21c-.25-.05-.91-.36-1.6-.49zm1.35-2.23-.56.58c-.18.19-.34.42-.5.65-.56.81-1.32 2.42-.88 3.36.25.53.88.68 1.64.82 1.19.21 3.99.25 3.67 1.14-.19.54-.85.35-1.28.2-.4-.15-1.19-.17-1.66-.22-.45-.05-.73-.12-1.09-.19.17.21.98.39 1.35.51 1.14.37 1.48.68 2.05 1.58.31.49.43.66.26 1.29l.1-.14c.39-.59-.38-1.05-.32-1.51 0-.2-.27-.49-.08-.76.22-.32 1.59-.56.41-1.5-.22-.17-.2-.25-.03-.68.18-.43.32-1.07.69-1.43.72.05.75.3 1.18-.13.27-.27.75.1 1.15-.2.13-.1.45-.5.49-.67-.26.13-.39.62-.94.7-.56.08-.78-.25-.91-.58-.05.34-.07.47-.14.77-.73-.03-.97-.75-1.15-1.28-.65-1.9-.53-3.74-2.66-2.8-.36.16-.48.35-.79.48z"/><path class="fil5" d="M35.36 25.36c-.2 0-.17-.14-.16-.31v-.41h2.24v-1.7h-2.5c-.36 0-.62.14-.78.33-.35.43-.23 1.93-.23 2.53 0 1.56 1.65 1.25 2.56 1.25.15.27.16.76-.11.76h-2.45v1.7h2.08l.65-.88c.08-.11.12-.18.2-.28l.96-1.03c0-.67.07-1.96-1.17-1.96h-1.28zM3.62 26.93c.07-.11.11-.51.16-.67.03.04.02.02.05.09 0 .01.02.06.02.07l.09.5h-.32zm-.37 1.7h1.06c.26.92-.11.93.96.89.18-.01.56-.27.52-.56l-1.21-6h-1.6c0 .31-.99 5.06-1.13 5.75-.04.21-.15.59-.15.81h1.38c.01-.12.05-.24.08-.38.01-.06.08-.37.08-.38v-.13z"/><path class="fil1" d="M7.08 22.51c-.27-.1-.87-.38-1.01-.58-.42-.56.15-1.11.91-1.12 1.29 0 2.76 1.33 4.74 1.34l.91-.09c.16-.14-.31-.37-.44-.43-1.64-.68-2.61-.49-3.54-1.41-.44-.43-.38-.71-.65-1.19-.18-.04-.59-.09-.8-.09-.97 0-2.12-.06-2.78.62-1.15 1.19-.47 2.84.06 3.13.12.07.14.04.32.04.05.37.14.36.54.62.16-.07.28-.14.42-.22v-.41c.8.07 1.02.05 1.8.06.05.16.11.35.15.5l.12.39c.06.11.01.03.06.09.22-.12.82-.43.96-.58l-1.75-.67z"/><path class="fil5" d="M24.28 24.65c1.57 0 1.33-.17 1.33 1.25v1.56c.29-.06 1.01-.2 1.28-.09V24.6c0-.98-.07-1.65-1.28-1.65H23v6.56h.43c-.06-.55.04-1.05.61-1.41.12-.08.37-.21.51-.24l-.27-.04v-3.17z"/><path class="fil1" d="m12.87 19.03-.06.03c-.01 0-.03.01-.04.01h-.04c-.12.01-.07 0-.15-.01l-.58.11c-2.69.27-3.21-.68-3.68-.76-.21.67.32 1.41.81 1.86 1 .91 3.62.99 5.05.68 2.31-.5 1.34-.16 2.39.04-.06-.12-.11-.39-.18-.56-.35-.88-.16-1.25-.68-1.53-.73-.4-2.12.12-2.83.13zM23.59 2.67c.13.02.27.05.42.01-.03-.08-.07-.03.06-.06.8.02 1.03.41 1.12 1.02.1.67.24.97.61 1.45.5.63 1.86 1.58 2.74 1.63-.01-.75-.47-.86-.48-2.81 0-.43-.09-1.09-.28-1.37-.38-.59-.76-.48-1.16-.63-.01.47.12 1.24-.16 1.51-.21-.14-.25-.24-.27-.53-.06-.85-.04-1.34-1.12-1.34-.77 0-1.51.22-2.09.53-.17.09-.43.22-.57.32.3.13.79.12 1.13.26.01 0 .03.01.04.02z"/><path d="M23.06 19.79c.09.05.17.09.26.14l.86.31c.07.02.09.03.15.05.14.05.06.02.11.05.07.05 0 .02.14.06.09.03.07.02.16.04.12.03.21.07.39.07l.9.18c.07.04-.01.02.12.04.09.01.12.01.2 0 .2 0 .92.02 1.06.09h.64c.3.02.3.01.53-.04l.22-.08c.12-.05.11-.04.2-.09.01-.36-.1-.62-.24-.91-.44-.87-.99-.67-1.66-.84-.33-.09-.9-.56-1.08 0a.57.57 0 0 0-.04.26c.01.1.06.43.08.53-.3-.21-.34-.33-.76-.45.34-.05.53-.14.51-.46-.04-.71-1.1-.72-2.05-.83-.86-.11-1.02.18-1.2.7-.28.79.31 1.02.48 1.2z" style="fill:#ef0d11"/><path class="fil1" d="M39.03 20.73c-.04-.17-.1-.23-.22-.35-.64-.59-.39-.23-1.28-.31-2.12-.18-1.07-1.14-2.16-2.39-.21-.24-.96-.91-1.57-.67-.22.09-.35.49-.42.72-.58 1.77-.97 1.2.23 1.97.52.33.83.69 1.29 1.01.44.31.91.64 1.69.64.9 0 1.77-.13 2.45-.62z"/><path class="fil5" d="M42.55 29.51h2.92v-1.69h-1.65v-4.86h-1.27z"/><path class="fil4" d="M25.72 29.69c.11-.19.21-.39.32-.58.29-.5-.08-.41.22-.54.44-.2 1.34.11 1.54.32.83.84-.05 2.36-1.69 3-.21.08-1.42.46-1.53.11-.07-.23.96-2.01 1.14-2.31zm-1.47-.46c.07-.2 1.3-.61 1.67-.6-.37.59-.77 1.22-1.12 1.85-.38.69-.78 1.32-.78 2.11 0 .42.28.4.79.35 2.02-.23 3.99-1.99 3.73-3.86-.29-2.1-2.83-1.8-4.36-.86-.56.34-.74 1.01-.48 1.42.42.01.92-.38 1.31-.47-.33-.03-.5.02-.76.06z"/><path class="fil1" d="m13.34 5.61.02.13.26-.05c.09-.06.2-.11.34-.12.15-.2.54-.32.81-.41.65-.22 2.06-.81 2.51-1.2.53-.45.04-.74.72-1.58.48-.59 1.16-.43 1.72-.41.13 0 .12-.02.31-.03-.21-.26-.48-.52-.87-.65-.4-.13-1.11-.08-1.45.05-.98.36-.95 1.42-1.56 1.45.01-.48.61-1.01.85-1.38-.61 0-1.11.17-1.48.54-.86.88-.19 1.37-1.21 2.64l-.95 1.01z"/><path class="fil4" d="M41.75 32.1c-.53-.69 1.32-1.58 1.53-1.63-.2.31-1.01 1.6-1.53 1.63zm1.88-1.78c.11-.12.38-.16.03-.62-.76-.05-1.59.65-1.92.96-.3.29-.41.4-.57.81-.08.2-.52.56-.8.49-.25-.46.8-1.42.8-1.87 0-.6-.33-.3-.59-.01-.53.6-.49.72-1.1 1.27-.19.17-.39.46-.65.52a.538.538 0 0 1 .06-.56c.04-.05 1.19-1.03.89-1.26-.49-.2-.67.08-.84.32-.16.21-.39.46-.51.69-.28.53-.25 1.34.28 1.62.32.06.94-.82 1.11-1.06-.07.51-.41.77.01 1.19.54.01.72-.4 1.29-.87.21.33.14.62.52.83.44-.03.88-.73 1.15-1 0 .38-.3.72.03 1.13.31.02.4-.05.57-.18.32-.25.96-.79.9-1.18-.07.05-.99.87-.99.25 0-.75.75-.8.33-1.47z"/><path class="fil1" d="M41.11 18.9c.01.01.03.05.04.06.12.13.17.1.28.3.2.36.17 1.11.24 1.54.1.55-.16 1.54-.4 1.99.61.02.64.33.95.4.08-.15.05-.24.06-.44h.63c.08-.13.18-.57.24-.77.42-1.24.82-2.74-.26-3.8-.43-.43-.74-.6-1.32-.81-.3.28-.48 1.02-.48 1.56z"/><path class="fil4" d="M5.55 30.17c.06-.19.79-.85.99-1.02.22-.19.48-.49.83-.74.11-.08.19-.11.29-.18l-.68 1.28c-.33.61-.19.76-1.43.66zm1.77-.05c.21-.43.39-.84.64-1.27.2-.34.62-.99.28-1.38-.64.24-2.06 1.52-2.56 2.02-.25.26-.51.5-.73.77l-.62-.02c.18-.22.22-.11.49-.23-.55-.14-.96.24-1.21.59-.35.49.07.46.52.52-.13.14-.28.35-.42.5-.32.38-.29.11-.61.38-.98.8-.86 1.71 0 .8l1.54-1.66 1.43.01c-.09.4-.85 1.4-.29 1.71.34.19.69-.2.85-.33.13-.11.22-.18.35-.29.14-.11.23-.16.21-.38-.28.11-.44.31-.67.31-.26 0 .09-.64.14-.74.16-.36.16-.38.71-.39.12-.18.51-.66.52-.84-.15-.08-.35-.08-.56-.1z"/><path class="fil1" d="M1.02 12.7c.82.58 1.99.85 3 .42.71-.3 1-.69 1.84-1 .11-.04.25-.08.4-.11.53-.1.42-.14.42-.14l.23-1.15c.09-.37.25-.75.29-1.14-.89-.01-1.15.11-1.77.57-.11.08-.19.16-.29.25l-.98.78c-.4.34-.8.7-1.3.96-.14.07-.23.13-.36.19-.12.06-.3.12-.44.16-.32.11-.68.14-1.02.21z"/><path class="fil5" d="M10.97 29.51h1.28v-6.55h-1.28z"/><path class="fil4" d="M37.79 28.24c.02.28-.55 1.14-.68 1.45-.25.57-.41 1.52.4.61.57-.64.24-.34.29-.62.08-.49 1.07-1.65.59-2.25-.61-.01-1.15.72-1.49 1.15-.18.23-.39.5-.55.75-.18.28-.35.5-.52.77-1.29 2.16-.82 1.28-1.7 1.61-.41.15-.88.97-.69 1.12.16.13.48-.13.85-.23.83-.22 2.56.59 2.94.45.18-.16.6-.6.68-.8-.23-.14-2.53-.67-2.53-.67.1-.19.18-.29.29-.46.5-.77 1.49-2.4 2.13-2.87z"/><path d="m11.23 8.03.8-.47c1.03-.49 1.93-.37 2.6.42.46.53.42.96.72 1.58.13.27.3.47.53.63.51.36.35.05.43.71.07-.16-.05-.05.18-.45.1-.18.72-1.23.08-1.26-.2.27.22.71-.16 1.1-1.06-.02-1.03-1.72-.2-2.3.94-.65 1.1.42 1.3.51.08-.5-.28-.84-.84-.85-.69-.01-.86.24-1.57-.06-1.56-.65-.63-1.66-.62-2.02-.2.01-.77.15-.86.12l-.26.05-.02-.13v-.04c-.11.08-.12-.02-.03.25l-.34.05.19-.39c-.17.08-1.27.9-.78 1.09-.2.15-1.26 1.17-1.16 1.46z" style="fill:#070b13"/><path class="fil1" d="M27.21 21.71c-1.06 0-2.26-.05-3.21-.39-.66-.24-1.48-.72-1.9-.73-.16.19-.2.34-.02.59.29.41 1.49.67 2.05.83.49.14 1.09.28 1.61.35l1.8.19c.62 0 2.34.12 2.34-.58 0-.83-2.06-.27-2.66-.27zM24.44 13.68c-.17.2-.27.48.07.65.37.2.56-.15.85-.2.44-.08.7.08.86.28.21.26.28.35.65.48.96.34 1.2-.07 1.19-.82-.01-.66-.4-1.01-.48-1.65l-2.02-.33c-.01.51-.06.38.25.65.16.13.55.94-.42.95-.21 0-.64-.03-.95-.03z"/><path class="fil0" d="M24.76 31.97c.03-.3.92-1.83.96-1.96.06.05-.01-.02.07.07.01.01.02.02.02.03.01.01.02.02.02.03.06.07.03.05.09.1.07.06.16.1.27.13 0 .63-.01.76-.28 1.19-.27.43-.43.41-1.16.42zm2.61-3.17c.25.14.47.28.48.63-.27-.15-.47-.32-.48-.63zm-.85-.09c.24 0-.04-.05.27 0-.01.42-.28.68-.69.76.03-.31.27-.34.27-.76h.16zm-.26-.14c-.3.13.08.04-.22.54-.11.19-.21.39-.32.58-.18.3-1.22 2.08-1.14 2.31.11.35 1.32-.02 1.53-.11 1.63-.64 2.52-2.16 1.69-3-.2-.2-1.1-.51-1.54-.32z"/><path class="fil2" d="M14.96 22.68c.47.1 1.05.03 1.59.06l.04.33c.34-.2.29-.26.88-.3.37-.02.75-.03 1.15-.06-.15-.05-.5-.22-.67-.29-.69-.31-1.28-.69-2.05-.96-.81-.29-3.18-.38-3.73-.08.65.41.58.37 1.31.73.54.26 1.27.45 1.48.57z"/><path class="fil7" d="M28.59 24.7c-.2.72-.11 1.66-.11 2.41 0 .26.05.46.11.67.25.02.87.09 1.16.04l.08-.02c.07-.02.25.01.25-.41 0-.4.06-2.33-.06-2.58-.12-.23-.44-.14-1.22-.14-.01 0-.2.04-.21.04zM17.79 24.7c-.17.61-.17 2.47 0 3.08.86.06 1.49.22 1.49-.4v-2.23c0-.61-.17-.49-1.22-.49-.08 0-.2.02-.27.04z"/><path class="fil4" d="M29.23 32.09c-.57-.69 1.38-1.61 1.52-1.62-.19.3-1.01 1.6-1.52 1.62zm1.61-.09c-.37-.57.51-.98.36-1.46-.13-.43-.05-.16.08-.43.19-.4-.47-.79-1.79.33-.54.45-1.16.94-.71 1.91.5 1.06.94-.18 1.5-.59.03.36-.33.77.03 1.14.54.02.95-.52 1.3-.91.15-.17.21-.17.17-.45-.29.15-.44.49-.93.47z"/><path class="fil7" d="M39.46 27.77c.41.08.57.04 1.07.04.25 0 .37-.1.37-.31 0-.58.07-2.37-.05-2.81-.24-.05-.96-.11-1.27-.04-.31.07-.22.59-.22.93 0 .58-.12 1.79.11 2.19z"/><path class="fil1" d="M43.88 20.99c.28-.11.23-.03.46-.23 1.02-.85.43-2.26.44-3.29 0-.35-.05-.53-.05-.85 0-.3.01-.59 0-.89-.51.3-.5 1.8-.63 2.46-.05.23-.12.43-.16.63l-.01 1.51c0 .28-.05.45-.05.67zM30.25 22.77c.5.01.89.12 1.13.53.33.56.18 3.25.2 4.11.14-.09.31-.39.41-.55.14-.24.23-.31.23-.65 0-.56-.04-1.31.19-1.81.16-.36-.26-.88-.47-1.21-.23-.37-.55-.64-.94-.9l-.74.48z"/><path class="fil5" d="M10.22 10.56c.69.13 1.35.44 1.6.49l.17-.21c1.15-1.39.28-2.72-1.17-1.29-.47.46-.49.81-.6 1.01z"/><path class="fil1" d="M30.46 33.21c.45 0 1.14-.15 1.41-.33.16-.1.09-.1.22-.22.18-.15 1.1-.5 1.63-1.27.22-.32.38-.65.62-.95-.48-.01-.45-.06-.7.16-.34.29-1.05.95-1.39 1.11-.09.04-.23.11-.3.15l-.58.63c-.1.11-.32.29-.46.38-.28.17-.4.15-.46.33z"/><path class="fil5" d="m11.98 11.18.78.33c.29.12.55.22.82.34.21-.26.45-.49.52-.86.23-1.17-1.27-1.28-2.12.19zM10.33 12.39c.66 0 1.38-.6 1.38-1.16-.15-.03-1.04-.49-1.54-.49-.21 0-.74 1.65.16 1.65z"/><path d="M19.32 7.07c-2.01.55-2.23-1.94-.92-1.67.3.06.33.22.43.44.14.3.48.9.48 1.23zm-1.79-2.09c.49.02 1.14-.2 1.14.25-.57.04-.94.02-1.18.35-.24.33-.11.8.07 1.11.54.93 1.02.33 2.29.78l-.94-2.21c-.13-.38-.22-.84-.62-1.01-.32-.14-.43-.06-.57.15-.1.16-.21.34-.19.59z" style="fill:#090b15"/><path class="fil1" d="M21.35 23.94c.12-.07.25-.14.37-.22h-1c.01.14.05.16.05.31v1.25c.14.1.47.13.48.49v.04c.01.69-.48.74-.48 1.07v1.43h.58v-4.37z"/><path class="fil4" d="M19.32 7.07c-.01-.33-.34-.93-.48-1.23-.1-.22-.14-.38-.43-.44-1.31-.27-1.1 2.22.92 1.67z"/><path class="fil5" d="M13.37 12.43c.01-.12.06-.27.11-.36-.24-.14-.46-.29-.73-.42-.13-.06-.27-.12-.39-.16-.14-.05-.29-.08-.43-.13-.77 1.35.26 2.26 1.19 1.35.14-.14.1-.18.25-.28z"/><path d="M23.51 15.95c.24.13.41-.03.55-.14.53-.45 1.14-.17 1.82.02.93.26 1.18.27 2.14.31.16.01.54-.01.67.09.51.01.55.28 1.19.4-.14-.26-.12-.37-.46-.5-.68-.26-1.89-.26-2.65-.37-.3-.04-.57-.1-.86-.17-.39-.09-1.32-.29-1.72-.3-.46-.01-.57-.02-.85.14 0 .33-.03.35.18.53z" style="fill:#fed50d"/><path class="fil5" d="M29.45 17.6c.15-.23.34-.52.07-.77-.21-.2-.45-.3-.87-.3-.16.08-.05-.03-.16.14-.01.02-.05.13-.05.14l-.22.88c.17.15.51.35.8.4.16-.09.33-.34.43-.49zM26.46 17.16c.17 0 .33-.68.37-.76l-1.39-.49c-.08.27-.25.12-.48.94.39.17.9.31 1.49.31zM27.85 17.56c.19-.3.43-.72.43-1.07-.25-.14-.13-.14-.53-.18-.21-.02-.52-.07-.72.07-.17.12-.3.59-.3.78 0 .17.96.37 1.12.4zM28.06 20.81v.27c-.18-.11-.01 0-.1-.1l-.28-.17h-.27c-.27 0-.28.05-.58.05 0 .49.05.5.05.71.75 0 1.11.1 1.12-.4l.06.13c.03.07-.01.04.05.14 1.23.24.92-.41.85-.67h-.38c-.23.05-.23.06-.53.04zM13.37 12.43c0 .11-.38 1.07.33 1.15.45.06.77-.48.95-.75-.36-.45-.49-.46-1.06-.71l-.21.31zM25.13 20.5c-.18 0-.26-.04-.39-.07-.1-.02-.07-.01-.16-.04-.14-.05-.07-.02-.14-.06-.48 0-.75-.25-.75.31 0 .41.27.56.72.69.35.1.59.11.76-.13.11-.16.13-.49-.04-.7z"/><path class="fil1" d="M44.09 25.81c.16-.03.19-.12.27-.21.52-.61.7-1.6.68-2.37-.18.12-.63.77-.84.98-.15.15-.12.08-.12.35l.01 1.25z"/><path class="fil5" d="M23.48 16.85c.86 0 1.39.29 1.6-.58.05-.2.01-.28-.05-.49-.85-.16-1.25.56-1.54 1.07z"/><path class="fil12" d="m7.08 28.89-.32.62h-.37l.69-.62zm-1.53 1.28c1.23.1 1.1-.05 1.43-.66l.68-1.28c-.1.07-.18.1-.29.18-.35.24-.61.55-.83.74-.19.17-.93.83-.99 1.02z"/><path class="fil5" d="M26.36 20.73c-.09 0-.11.01-.2 0-.13-.02-.05 0-.12-.04-.4 0-.56-.02-.68.14-.11.15-.09.45.03.58.14.15.35.16.62.19.4.05.44.01.67-.12 0-.28.02-.51-.16-.67l-.16-.09zM13.69 11.99c.39.22.68.43 1.12.62.23-.29.31-.76.08-1.05-.27-.33-.88-.15-1.2.42zM23.32 19.92c-.09-.04-.17-.09-.26-.14-.29-.05-.34-.21-.65-.09-.1.09-.27.9 1.07 1.16l.04-.06c.07-.14.1-.31.06-.46-.03-.14-.17-.3-.25-.41z"/><path class="fil12" d="M41.75 32.1c.52-.03 1.33-1.32 1.53-1.63-.21.05-2.06.94-1.53 1.63zM29.23 32.09c.52-.02 1.33-1.33 1.52-1.62-.14.02-2.09.94-1.52 1.62zM12.37 32.09c.61 0 1.35-1.4 1.56-1.62-.05 0-1.97.76-1.56 1.62z"/><path d="M23.11 31.07c.08-.12.17-.25.21-.4-.34-.2-.32-.28-.72-.07-.37.19-.46.22-.82.03-.09.14-.28.32-.32.44.34 0 .48-.05.85-.05.32 0 .43.05.8.05z" style="fill:#fed20d"/><path d="M20.2 31.33c.35-.14.96-.59.93-1.01-.45.02-.86.62-.93 1.01z" style="fill:#0d0b0c"/><path class="fil5" d="M26.52 28.71h-.16c0 .42-.24.45-.27.76.41-.08.68-.34.69-.76-.31-.05-.02 0-.27 0z"/><path d="M21.27 23.38c-.25-.03-.47-.07-.69-.1l.09.3c.88.05.7-.01 1.24-.05-.47-.18-.1-.07-.64-.14z" style="fill:#16197c"/><path d="m14.96 22.68-1.11-.3c-.02.17-.06.14-.05.36h1.01c.28 0 .08.01.15-.05z" style="fill:#fad516"/><path class="fil5" d="M25.19 29.51c.08-.29.31-.46.37-.67-.22.04-.32.12-.53.13.45.33-.1.35-.37.49l.53.04zM27 23.49c.22-.05.13-.06.25-.24.09-.14.14-.13.23-.25-.23 0-.5.05-.69.09.05.16.16.21.21.4z"/><path d="M14.64 30.67c.22-.12.39-.21.57-.35l-.15-.14-.47.27.05.22z" style="fill:#fbd413"/><path class="fil5" d="M27.85 29.42c-.01-.34-.23-.49-.48-.63.01.3.21.48.48.63zM6.39 29.51h.37l.32-.62z"/><path class="fil0" d="M3.62 26.93h.32l-.09-.5c0-.01-.01-.06-.02-.07-.03-.08-.02-.05-.05-.09-.05.16-.09.55-.16.67z"/><path d="M19.7 30.36c.15-.03.23-.11.36-.18.14-.08.24-.12.33-.22h-.42c-.09.14-.17.25-.26.4z" style="fill:#f9d423"/><path d="M28.38 30.76c.16-.04.55-.26.63-.35-.19.01-.22.04-.48.04-.06.1-.09.21-.16.31z" style="fill:#fad31b"/><path d="M28.06 20.81h-.37l.28.17c.09.1-.09-.02.1.1v-.27z" style="fill:#150609"/></g></g></svg>