<svg xmlns="http://www.w3.org/2000/svg" xml:space="preserve" width="128" height="64" style="shape-rendering:geometricPrecision;text-rendering:geometricPrecision;image-rendering:optimizeQuality;fill-rule:evenodd;clip-rule:evenodd" viewBox="0 0 107.64 53.82"><path d="M24.28 22.43c-.13-.54-.08-1.05.16-1.44.09-.14.18-.28.27-.43.02-.26.04-.51.08-.77.11-.82.69-1.27 1.58-1.23 3.24.17 5.44 1.61 8.65 3.66.4.26 1.11.7 1.92 1.18l-.54-.99c-1.51-2.76-3.51-6.89-1.09-8.14.49-.25 1.06-.31 1.7-.3.11 0 .25.01.38.02.27-.38.58-.64 1.01-.92 1.93-1.27 4.03-2.14 6.03-3.28.4-.23.78-.49 1.17-.73 1.38-.88 3.04-1.77 5.28-.92.54.21 1.07.5 1.56.86.04-.07.08-.13.12-.2.21-.28.42-.56.67-.81 1.59-1.61 4.23-1.32 6.63 1.59 2.12 2.57 3.88 5.15 5.3 7.97.01.02.02.03.02.05-.07-.72-.03-1.41-.04-2.07-.01-.98.61-1.56 1.59-1.51.38.02.76.05 1.14.1-.08-.23-.17-.47-.27-.7-1.81-4.31-4.84-9.8-2.58-12.85.33-.45.86-.63 1.55-.52 3 .48 6.65 3.28 9.4 5.52 1.36 1.11 2.7 2.25 4.05 3.36.61.5 1.5 1.23 2.22 1.7.66.14 1.3.22 1.99.39 1.64.42 3.54 1.21 4.77 2.95.75 1.07.97 2.05.88 2.92.38.34.76.65 1.13 1.03.42.43.76.88 1.05 1.33.23-.2.53-.34.9-.41.72-.14 1.77.05 2.64.52 1.76.96 3.44 3.05 4.73 4.66.65.81 1.6 2.09 2.33 2.79.41.39.84.77 1.27 1.14 1.53 1.36 3.12 2.9 3.6 4.75.39 1.51-.13 2.55-1.08 3.18-1.58 1.04-3.04 2.2-4.61 3.25-1.13.75-2.42 1.46-4.27.84-.34-.11-.66-.26-.97-.43-.44.64-.88 1.28-1.35 1.89-.68.89-1.47 1.66-2.82 1.68-1.13.02-2.35-.51-3.56-1.21l-.06.15c-.47 1.17-.92 2.28-1.87 3.04-1.29 1.04-3.09 1.07-5.18.4l-4-1.18c.33.94.31 1.81.19 2.66-.12.9-.82 1.36-1.82 1.2-.74-.12-1.3-.1-2.11-.47-.11-.05-.22-.11-.33-.16-.8 1.14-1.61 2.27-2.55 3.29-1.11 1.2-2.7 1.89-4.82 1.18.11 1.07-.52 1.79-1.58 1.74-1.24-.06-2.48-.19-3.82-1.1-.84-.57-1.59-1.41-2.46-2.08l-8.45-5.07c-1.26-.66-2.51-1.29-3.45-2.58-1.06-1.45-1.08-2.77-.93-4.02.03-.26.11-.48.22-.66-.58-.54-1.15-1.09-1.65-1.53-.55-.48-1.64-1.16-2.24-1.55-.55-.36-1.1-.71-1.66-1.06.21.54.3 1.04.39 1.6 0 .01 0 .03.01.04.38.43.91.95 1.26 1.34 1.11 1.24 2.09 2.59 2.39 4.02.29 1.4-.18 2.4-1.08 3-.84.55-1.94.66-3.24.16-1.23-.48-2.3-1.36-3.33-2.37-.24-.23-.64-.66-.96-.96-.19.09-.38.18-.58.25-1.48.54-2.45 1.16-3.5 2.22-.21.21-.42.42-.63.64 2.03 4.84-3.11 6.63-7.68 1.1-1.3-1.57-2.51-5.28-3.51-8.5-.39.28-.86.5-1.35.68.38.29.75.6 1.12.93.64.57 1.06 1.24 1.26 1.96 1 3.77-.53 4.98-2.55 6.2 1.19 1.53 2.24 3.22 2.26 4.81.01.98-.38 1.71-1.07 2.16-.61.4-1.38.55-2.29.39-3.47-.62-6.98-5.45-9.39-8.39-1.53-1.88-3.09-3.56-4.74-5.34-1.34-1.45-2.77-3.03-3-4.76-.26-1.93 1.12-2.74 2.44-3.33 1.92-.87 4.08-1.54 6.1-2.29.77-.28 1.5-.7 2.24-1.04 1.58-.72 3.64-1.49 5.95-.32-.18-.44-.37-.89-.55-1.33-.48-1.17-.93-2.32-1.08-3.44-.17-1.33.11-2.44.41-3.53.23-.86 1.04-1.21 2.09-.92 2.64.74 4.66 1.87 6.65 3.35zm30.99-6.8c-.21.34-.5.63-.83.86.72.38 1.43.89 2.11 1.48.14.12.27.25.39.38-.08-.14-.15-.28-.23-.42-.42-.73-.92-1.51-1.44-2.3zm2.68 4.72c.14.94.37 1.93.07 2.69-.2.5-.55.74-.87 1.12-.9 1.06-1.91 1.97-3.08 2.74-.21.14-.53.31-.82.48a33.817 33.817 0 0 0 .74.91c.92-.81 1.6-1.7 2.39-2.92.77-1.2 1.55-2.12 2.55-2.95-.34-.69-.65-1.38-.98-2.06zm39.01 8.79c.04.07.07.14.11.22.16.31.46.92.77 1.51l.35-.23-1.23-1.5zm-21.88-.52c-.22-.14-.41-.28-.59-.42l-1.57 1.78c.04.02.07.04.11.07.05.03.09.06.14.08.29-.3.59-.58.92-.84.31-.25.64-.47 1-.67zm-5.83 5.41c-.61.34-1.52.26-2.45-.04.12.18.23.36.32.54.13.02.28.05.43.07.8.13 1.6.3 2.4.48-.11-.16-.22-.32-.32-.48-.13-.19-.25-.38-.37-.57zm12.66 1.65c-.5.24-1.07.41-1.6.59-.16.05-.48.15-.75.27.33.42.76.96 1.12 1.37.14-.08.27-.17.36-.22.33-.22.7-1.16.87-2.01z" style="fill:#000"/><path d="M62.83 43.27c.82-.54 1.93-1.14 2.67-1.72 1.29-1 .98-.94 1.16-2.24 1.18.78 2.07 1.44 3.32 2.8-.44 1.34-2.82 4-4.44 5.07l-2.72-3.91zm-45.29 7.8c1.58-1.05-1.32-4.05-2.88-5.94 3.02-2 4.57-2.13 3.73-5.31-3.56-3.2-3.92-.84-6.78 1.62-3.94-4.28-4.92-2.53 2.32-5.61 2.51-1.07 6.38-1.05 3.44-4.61-1.92-2.32-5.11.12-7.18.88-11.28 4.15-8.91 2.25-.77 12.21 2.78 3.4 6.21 8.03 8.12 6.77zm9.26-13.96c-.88-1.19-3.16-6.64-3.04-7.98l6.98 5.38-3.94 2.6zm-1.87 6.94c2.75 3.33 5.47 2.07 3.01-1.27 1.75-1.51 2.32-2.87 5.55-4.05 1.41-.51 1.08-.82 2.41-.11 1.51.81 3.63 4.35 5.42 3.16 2.04-1.35-2.1-4.39-2.83-5.68-.73-1.32.37-2.88-3.08-3.67-1.99-.46-1.38.79-7.6-4.54-3.88-3.33-6-5.3-9.82-6.36-.93 3.39-.34 2.93 2.69 10.83 1.09 2.83 3.05 10.25 4.25 11.7zm34.76-10.11c1.55-2.1 2.22-3.61 4.11-4.85.87 1.41.4 1.1 1.55 1.88.47.32 1.75.93 2.11.7l6.02-6.83c2.03 1.34 2.26 2.79 4.26 1.47.98-.65-1.29-2.72.06-3.61 1.22-.81 5.06-3.79 6.64-3.36 1.57.43 1.17.75 2.97 2.35 1.97 1.74 1.89.94 4.08 5.74 1.84 4.01 2.83 4.64 2.16 6.03-.26.54-3.11 5.9-5.45 3.07-3.42-4.14 1.68-2.34 2.25-6.48-2.31-1.99-1.58-1.09-5.74 1.65-2.62-3.27-1.57-2.62 2.82-4.73 1.86-.89 1.55-1.09.37-3.08-1.36-.01-3.34.78-4.7 1.68-6.43 4.25-1.54 3.35 1.07 8.95.69 1.49-.17 4.72-1.32 5.49-2.21 1.46-2.78.32-5.4-2.85-3.28-3.97 4.13-2.79 3.4-5.1-.32-.8 1.23.42-.8-.95-2.99-2.03-5.52 2.11-6.31 2.78-1.15-1.87-1.33-2.38-3.22-1.44 1.36 2.29 3.41 4.84 3.92 5.97-2.29-.36-3.96-.91-6.33-1.3-1.68-.28-1.53-.43-2.68.46l-4.59 3.4-1.91-2.31c2.21-1.46 5.51-2.71 5.91-3.9-2.89-3.14-2.94-.51-5.24-.82zm15.99-16.26c-1.2-.81-.8-1.57-1.67-3.87-.67-1.77-1.5-2.69-1.37-4.1 2.59 2.81 4.67 3.29 7.03 6.06l-3.99 1.92zM26.73 22.9l2.29 2.77c1.49-.16.18-.39 2.48.87 2.73 1.48 11.95 6.95 13.78 8.55 3.47 3.03 2.47 2.97 5.77 3.14l.17-2.25c-2.59-3.05-2.32-.8-6.38-9.46-.65-1.38-.59-1.12-.75-2.24 4.84 5.86 5.96 9.45 10.91 11.47 1.89.77-.39-.83 1.79.84-1.48.91-1.28.36-2.68 1.06.93 2.36 2.43 4.64 3.32 7.08-2.66-.53-5.57-3.94-9.33-4.54-.23 1.99.25 2.12 2.28 3.19l8.73 5.24c2.75 2.02 1.96 2.46 4.69 2.6-.72-2.71-.15-1-2.27-4.08-1.36-1.97-1.12-2.42-2.9-4.63l.66-.43c1.79 2.24 6.12 10.57 9.7 6.67 1.3-1.41 2.47-3.24 3.57-4.73 1.63 1.77 1.38 1.42 2.89 1.66.35-2.51-.79-1.91-3.48-4.83 1.13-.25 1.65 0 3.13.36l6.36 1.88c4.66 1.51 4.35-2.5 5.86-4.54 5.16 3.43 4.43 2.47 8.09-2.49 2.89 3.13 3.29 1.4 9.13-2.46 1.96-1.29-1.32-3.52-3.17-5.31-1.69-1.63-4.45-5.85-6.12-6.75-.19-.1-1.91-.74-1.05 1.18l6 7.31c1.8 2.02 2.28 1.37-1.51 3.87-1.76 1.16-3.03-3.39-7.02-10.34-1.78-3.11-.12-.14-.96-2.34-.97-2.53-1.38-1.72-3.72-4.56 2.05-3.08-4.28-3.38-4.77-3.66-3.34-1.87-10.85-9.76-14.97-10.41-1.61 2.18.95 6.81 2.63 10.81.66 1.57.74 2.28 1.27 3.74-1.53-.24-1.8-.46-3.49-.55.02 3.61-.1 2.04 2.45 4.8-1.99 1.32-2.25 2.2-3.89 3.28-2.28-3.83-2.51-7.33-8-13.98-1.73-2.1-2.79-.75-3.44.13.61 1.55 2.95 4.85 3.99 6.66 1.42 2.45 1.8 3.97 3.24 6.4-4.13 2.73-2.83 4.72-7.66 7.92-6.83-8.27-3.98-4.26.65-9.68.81-.94.79-.33.47-2.48-3.93-3.38-4.98.44-8.42 2.71l-2.67-3.23 5.25-3.47c1.45-.96 5.04-1.26 2.79-3.99-2.2-2.66-4.28-.58-6.17.5-1.89 1.07-3.65 1.71-5.96 3.23-1.02.67-.55.79-1.12 1.06-1.11.52-4.58-1.56-.67 5.58.59 1.08 1.09 2.01 1.51 2.83.49.97 1.26 2.27 1.63 3.2-1.48-.3-5.52-2.73-7.2-3.8-2.75-1.76-4.53-2.99-7.15-3.13-.18 1.28.09.74-.55 1.79z" style="fill:#fff"/></svg>