<svg xmlns="http://www.w3.org/2000/svg" xml:space="preserve" width="96" height="72" style="shape-rendering:geometricPrecision;text-rendering:geometricPrecision;image-rendering:optimizeQuality;fill-rule:evenodd;clip-rule:evenodd" viewBox="0 0 45.54 34.16"><defs><style>.fil14{fill:#000004}.fil1{fill:#050505}.fil26{fill:#060606}.fil0{fill:#090105}.fil22{fill:#090909}.fil25{fill:#0b0404}.fil29{fill:#0c0c0d}.fil18{fill:#ea3539}.fil11{fill:#f60205}.fil7{fill:#fa0202}.fil2{fill:#fb0102}.fil3{fill:#fbfbfb}.fil9{fill:#fc0002}.fil13{fill:#fcfcfc}.fil17{fill:#fdf214}.fil5{fill:#fdfc0b}.fil12{fill:#fdfdfd}.fil4{fill:#fef112}</style></defs><g id="Camada_x0020_1"><g id="_2481818497136"><path class="fil0" d="m42.48 33.44-2.25.01.41-1.66 2.3-.02-.46 1.67zm-1.15-5.87c.03.37-.11 1.06-.25 1.32-.2 1.78-.67 2.33-.87 2.92-.68 1.93-3.53 2.07-4.68 1.61-1.72-.69-.87-2.56 0-5.41.38-1.24.52-1.76 1.3-2.37.97-.77 2.76-1.02 3.94-.59.55.21.59.36.95.76.01.49-.14 1.37-.39 1.76zm-13.28 3.71-.43-.02c.12-.67 1.53-5.48 1.73-5.86l.41.01c-.01.33-1.44 5.46-1.71 5.88zm14.84.07-1.88.01c.03-.57 1.25-5.86 1.43-6.35h2.64c-.09.77-1.82 5.29-2.19 6.34zm-10.78-3.33.68-.01.91-2.99 2.54-.01c-.07.73-.5 1.11-.77 1.84-.25.69-.43 1.34-.64 2.06-.2.72-.41 1.38-.59 2.11-.24.96-.02 1.61-.45 2.4l-2.51.02.98-3.49-.77-.05-1 3.51-2.55.04c.06-.59 2.12-7.65 2.41-8.42l2.53-.02c-.07.9-.66 2.02-.76 3.01zm-5.02 3.75.81.02-.46 1.66-3.47-.01 2.43-8.42 2.53-.01c-.09 1.04-1.71 5.52-1.85 6.75zm12.28-8.38c.85-.4 2.18-1.93 2.43-2.1.32.33 1.03 2.45 1.01 3.2h-3.08l-.36-1.1zm-5.42-.61c1.11-.43 2-.94 3.4-.59 1.1.28 2.04 1.08 2.23 2.38l-3.42.02c-.83 0-.86.17-1.33-.5-.31-.43-.7-.76-.87-1.32zm-.9-.81c.25-.33 1.12-.99 1.45-1.08.17.57.28.78.29 1.47-1.93.39-.05.98-1.47 1.1 0-1.09.16-.89-.18-1.38l-.09-.12zm2.75-.22c1.92-.73 3.71-1.56 5.11-3.26.17-.2.01-.03.16-.18.32.47 1.05 1.98.69 2.64-.22.41-1.28 1.39-1.64 1.69-1.56 1.31-.82-.42-3.05-.69-.34-.04-1.1.14-1.27-.2zm-1.3-1.29c.28-.15.52-.42.79-.33l.09 1.6c-.11.58.04.19-.22.41-.39-.21-.21-.56-.65-1.68zm6.08-2.64c.36.02.2-.08.36.29-.12.38 0 .16-.23.37-.11-.21-.19-.31-.13-.66zm-6.7.22 1.19.13c-.4-.54-1.61-.15-2.26-.33-1.05-.29-.43-1.18-.27-1.98.33-1.6.4-1.82 1.25-1.73.78.08 1.64-.2 2.39.21 2.27 1.23 1.84 5.77-.81 5.17-.45-.1-1.31-.82-1.48-1.47zm5.23-10.91c.22-.29.39-.16.75-.09.48.09.53-.05.55.45-.21.15-1.08-.05-1.1-.06-.47-.21-.1-.09-.2-.3zm-26.88-.41-.4 1.36c-.31.03-.69.04-1 .03-.22-.01-.21 0-.41-.07-.34-.12.11-.19-.33-.09-.73.17-.85.49-1.63-.07-.09-2.12 1.42-2.2 2.69-2.59 0-.02.02-.06.02-.07.14-.48.16-.42.14-.86-.56.03-.53.45-.7 1l-1.46-.01c.38-2.41 3.59-2.04 3.78-1.12-.01.6-.54 2.26-.7 2.49zM8.9 5.07c-.86.19-.94.04-1.29 1.04-.19.55-.46 1.6-.69 1.96l-1.52.01 1.41-4.44 1.39-.03c.2.4.11.28.27.35.29-.31.43-.34.87-.39l-.43 1.49zm12.52 2.39c.31-1.62-.43-.26.32-2.53.23-.69.47-1.63.75-2.27h1.57c-.14 1.22-1.18 3.48-1.48 4.84-.54-.2-.58-.35-1.16-.04zm4.56-3.69c2.92-.73 1.75.75.69 4.31l-1.56.03c.18-1.11 1.03-2.76 1.05-3.75-.59.04-.5.38-.94 1.69-.24.71-.45 1.32-.65 2.02l-1.55.04c.05-.53 1.54-5.11 1.76-5.43l1.48-.02-.27 1.12zM6.45 3.71l-1 .03-1.42 4.35-1.64-.01 1.38-4.32-.93-.05.31-1.06 3.6-.01-.3 1.06zm31.43-2.33c.71-.5 3.23 2.33 2.56 5.55l-1.27-.15c.05-.83.43-2.41.33-3.11-.13-.87-.69-1.83-1.19-1.95.4.52 1.1 1.11 1.1 2.37 0 .57-.33 2.6-.52 3.13-1.52-.29-2.87-1.66-5.34-1.26.22-1.72.38-3.21 1.19-3.97.89-.83 1.99-1.13 3.14-.61zM15.94 8.35c.21-.44.22-.28.31-.75-.49.3-1.1.82-1.83.43-.79-.42-.09.35-2 .03l1.72-5.37 1.55-.04-.3 1.19c.79-.28 1.19-.52 1.9.02.05.84-.63 2.25-.81 3.15.36-.28.09-.11.2.02-.05.87.06.43.13.54.27-2.98 2.92-1.07 2.85-3.18-.51-.05-.55.35-.69.96l-1.49.01c.23-1.31 1.11-1.79 2.29-1.81 2.6-.04 1.09 2.25 1.09 2.26-.7.66-.54-.88-1.84 1.9-.19.41-.26.27-.39.28-.21.02.07-.21-.13.03-.04.19-.32.23.21.35h.07c.02 0 .05 0 .07.01.02.01.05.01.07.02l.14.07c.66-.83.62-2.49 2.03-2l.09.66c.05.18.1-.08-.11.58.04-.01.08-.08.11-.04l.28-.04c.51.11.1.03.23.18l.59-.04.31 1.08.02-.12.38-.18c.33.09.8.05 1.17.04 1.92-.06 2.85.44 3-.86.12-.44-.08-.24.22-.2.02 0 .05.02.07.03.02.01.14.08.16.09-.1-.98.55-3.07 1.23-3.62.8-.64 2.5-.81 3.04.18.08.62-.11 1.3-.35 1.68l-2 .04c-.19.32-.38.96-.4 1.43.72-.05.49-.43.85-1.1l1.43-.04c-.12.93-.45 1-.76 1.56v.05c.25-.25.12-.31.54-.49.42-.18.32-.01.71-.4 1.55-.58 1.65-1.23 3.69-.73 1.33.33 2.49 1.1 3.61 1.33l.25.15c.58.1-.37-.33.14.01-.26.71-.85 1.17-1.31 1.68l-.23.28c1.95-1.51 1.03-2.08 2.32-1.91.15.95-.33 3.49-.71 4.05l-.63-1.69c.19.32.32 1.05.17 1.39.3.69.51.3.74 1.07-.71-.11-1.69-1.51-2.38-1.72l-.26.68c-.04.34-.09.63-.19.9-.08.22-.05.16-.17.37l-.09.14c-.09.16-.04.06-.12.24.71-.57.55-1.09.83-2.08.34.08.54.29.79.53l-.01.61c.05-.31.06-.25.23-.4l1.69 1.29c.22 1.07-.21 1.34-.53 1.84.11 1.15.74 2.52.85 3.78-.54.56-1.39 1.19-2.2 1.64-.4.22-.84.45-1.27.61-.43.16-1.12.16-1.26.75l-.31.25-.06-2.3c1.06.06 1.71-.33 2.11-1.2.42-.92.27-2.32-.16-3.11-1.49-2.72-3.84-.41-4.52-2.11-.69.73-.16.27-.39.55-.11.4-.22.55-.33.92-.1.37-.11.69-.21 1.04-.13.5-1.21 2.43 1.14 2.87.44.08.65.42 1.21 1.05-.65 1.15-.67.79-1.25 1.28-.57.49-.33.79-.91.96-1.17.34-3.73.41-4.8-.11.41-.23.67-.22 1.17-.71.23-.22.21-.22.24-.44-.2-.23-.15.23-.13-.31-.39.16-.37.63-1.19.9-.63.2-1.14.08-1.59-.2-.14-.99.22-1.59.5-2.42-.26.3-.06.14-.38.31 0 0-.34-.11-.1-.71l.39-.34c.05-.03.09 0 .06-.16l-1.14.08.19-.81c-.47.05-.55.24-.57.85 1.08 1.21 1.32.51.52 2.67.08.26.11.41.2.54.15.65.34.37.63.76.31.41-.01.47.66.69 3.43 1.13 5.56-.08 6.39-.02.09 1.46-.33 1.29-1.31 1.44-2.53.38-4.17.12-6.46-.99.88.99 2.77 1.19 4.17 1.23 2.5.07 4.03-.71 4.69-.68.22.38.43.58.59 1.09l-13.82-.01c.11.32-.01.12-.28.16-.14.02-.5-.01-.66-.01l.07.53c.35-.37.69-.27 1.3-.27.47 0 .95-.03 1.42.04l-1.18 4.17c-.24.76-.73 2.17-.73 2.95.81.04.78-.61 1.01-1.42.42-1.43 1.33-4.81 1.69-5.72l2.24-.02c-.07.6-1.03 3.65-1.25 4.45-.68 2.49-.69 3.2-1.88 3.78-1.06.51-3.04.6-3.95-.17-.58-.5-.48-1.17-.2-2.19.17-.61.4-1.83.7-2.21.02-.72.43-1.6.58-2.35-.35.11-.13-.01-.22.32l-.1-.3c-.18.23-.14.2-.25.56-.13.44-.32 1.58-.65 1.77-.23.35-.48.21-.78.43l.63.36c-.06.63-.34 1.3-.47 1.92-.21.93.1 1.18-.34 2.05l-2.31.03c.11-1.03.99-2.84.82-3.72l-.52-.09c-.33.67-.64 2.25-.93 3.05l-.19.4-.02.36-2.56-.01 1.34-4.84c-.45.46-.1.16-.24.01l-.01-.63-1.55 5.45H9.85l.24-1.51c-1.47.04-.82.17-1.51 1.47l-2.62.04c.19-.77 1.09-2.56 1.42-3.29.29-.63 1.36-2.9 1.47-3.44l-.4.31c-.01.02-.04.06-.06.08.06-.58.12-.63-.26-.78-.23-.09-.58-.02-.78.03.18.2.48.15.78.18-.06 1.58-.69 1.98-1.73 2.33l.78.42c-.02.3-1.46 3.88-1.87 4.04-.59.23-4 .12-4.87.11l.11-.41 2.29-8.01.59-.01c-.19 1.15-1.32 3.26-1.07 3.95.17.46.74.56 1.06.2l1.59-3.58c.31-.76.35-.6 1.09-.56-.29-.52-.49-.03-1.03-.44A.231.231 0 0 1 5 24.5l.42.04.03-.1c-.65-.23-.15.06-.33-.33l-1.61 3.72c-.19.45-.33 1.13-.67.87-.27-.32 1.98-6.06 2.07-6.25-.53.21-.1.09-.28-.14.09-.55.05-.15.13-.61L3.7 24.51l-1.04-.02c-.36.53-1.08 3.39-1.34 4.29-.29 1.01-.98 3.77-1.34 4.43v.41c.39.48 1.3.31 2.1.31l3.29-.11c.32-.01 3 .36 3.41.02.15-.13.34-.85.46-1.08.17-.36.02-.14.23-.33.22.54-.29.89.11 1.36.28.34 3.4.15 4.27.16.64.01.8.16 1.17-.37.25.59.67.36 1.75.37 1.43 0 1.17.11 1.55-.76.36.19.26.37.96.66.37.15.85.16 1.19.31h.97c.7-.35 1.33-.16 2.09-.8.12.25.09.32.23.56l6.5.04c.36-.03.51-.18.57-.19.21-.03.15.11.51.18.19.03.53.01.74.01 1.96-.01 1.96.29 2.28-.87 1.73 1.46.88.51 2.07 1.08h.96c.73-.35 1.68-.15 2.33-.96l.1.36c.1.31-.14.4 1.1.39.6-.01 1.22.08 1.81-.06.21-.38.58-1.6.62-2.16.07-.96 1.91-6.04 2.21-6.53v-.4c-.5-.46-1.32-.32-2.11-.29-.04-1.47-.77-2.64-.92-3.35-.14-.65.15-.69-.25-1.73-.18-.47-.36-.99-.56-1.43-.28-.61-.67-.79-.82-.97-.22-.27-.5-1.66-.49-1.71.02-.35.45-.72.49-1.58.03-.92-.21-1-.42-1.58-.21-.57.07-1.06.21-1.74.33-1.59.57-4.53.3-6.04-.5-2.86-1.98-3.32-3.41-4.38h-.51c-1.03.75-1.8.41-2.88 1.57-.95 1.02-.64 2.38-1.19 3.98l-1.01.54c.12-.6 1-2.54-.79-2.98-1.08-.26-2.24.07-2.86.83-.32-.49-.21-.95-1.68-.88l.04-.83c-.64-.23-1.5-.06-2.18-.03-.52.02-1.61-.24-2.22.02l-.62 1.72c-.64-.79-.72-.92-1.88-.9-.87.01-1.47.23-2.02.77-.73-.78 0-.61-1.68-.79l.04-.79c-.52-.19-1.58-.17-2.16-.05-.2.43-.39 1.22-.64 1.7-.83-1.22-2.39-.95-3.46-.44-.53-.7-.38-.34-1.11-.29-.37.03-1.14-.06-1.65-.05.18-1.21-.06-.99-1.62-.99-.7 0-1.9-.09-2.54.07-.09.17-.39.94-.45 1.23-.17.85.23.79.71.8-.23 1.04-1.3 3.36-1.12 4.25.44.18 1.67.2 2.19.04.57-1.05.92-3.23 1.48-4.27l.44-.02C5.97 5.27 4.9 7.53 5.09 8.49c.44.16 1.6.19 2.12.03.23-.36.42-1.1.59-1.62.27-.86.22-1.23.98-1.28-2.31 4.28 1.69 2.71 3.49 2.92.95.11 1.94-.02 2.02-.01.25.04 1.28.37 1.68-.19z"/><path class="fil1" d="M18.16 24.5c.22-.42.05-.24.43-.33.64-.15.98-.34 1.51-1.06.16 1.17.23 1.11-.24 2.11l-.34-.27c-.58-.46-.94-.24-1.36-.45zm-1.68-.21c-.28-2.64 2.96-4.2 2.04-1.13 1.04-.02.73-1.35 1.61-1.08-.09.64-.87 1.45-1.64 1.58-.68.12-.32.28-.85.67-.49.37-.8.2-1.17-.05zm-.33.21c-2.79-.07-1.62-.04-2.47 1.72.06-1.5.5-1.77-.87-1.71.86-1.74 1.48-1.56 1.25-2.64 1.03-.13 1.41-.21 1.98-.98.16.18.18.31.33.49.11.13.26.23.43.38-.41.6-.85 1.6-.66 2.73zm-9.86-2.24c.13-.55.19-.92.62-.66-.12.38-.22.58-.62.66zm12.64-.91.42-.39c.09.37.03.24.24.51-.01.02-.04.03-.05.06l-.42.63-.2-.82zM23.28 19c-.19-.19-.1-.05-.23-.32-.02-.03-.11-.34-.14-.41.26.17.19.02.37.73zm-3.59.13c-.29 1.1-.7 1.87-1.56 1.88-.44.01-2.04.87-1.6-1.04.13-.56.39-1.1.58-1.65.96-2.7.69-1.18 2.15-1.86.33-.15.4-.37.71-.22.78.39.09 1.99-.12 2.55l-1.63.04c-.23.39-.47 1.08-.53 1.57.51.01.68-.67.79-1.26l1.21-.01zM5.73 16.26c.58-.28.72.73.5 1.41-.69 2.12-1.2 3.85-3.04 3.66-1.47-.15-.38-2.27-.02-3.25.85-2.29.89-1.01 2.56-1.82zm15.67 3.29c-.33-.43-.83-.62-.91-1.11-.09-.54.24-1.24.45-1.56.87-1.32 1.12-.16 2.4-.31-.01 1.6-.06 1.21-1.19 1.24.02-.41.1-.34.15-.78-.48 0-.51.25-.54.88.71.7 1.57.97.47 2.63-.89 1.33-3.48 1.15-2.25-1.04h1.03c-.03.59-.25.34-.12.97.42-.07.49-.4.51-.9zm-8.11 1.38c-.07-1.09.5-2.3.84-3.17.65-1.68.87-.92 1.44-1.24.23-.13.18-.21.38-.42.32.22.11.25.44.43.22.12.44.07.71.14.03.63-.13.95-.23 1.45l-1.2-.01.29-1.1c-.52.13-.63.93-.86 1.57-.2.55-.53 1.21-.58 1.78.48.17.59-.57.78-1.16l1.13-.02c-.36 1.48-1.75 2.98-3.14 1.76zm-4.72-1.42c-.99-.75-1.14-1.39-.61-2.45.38-.76.46-.43 1.25-.47l1.36.11c.11.34-.08.7-.18 1.1l-1.13.01.18-.75c-.38-.06-.46.2-.55.68.36.63.65.55.98 1.21-.02.94-.39 1.57-.85 1.95-1.19-.87-1.44.4-1.92.26l.01-.28c.03-.08.08-.13.12-.19.65-.94.47-1.18.95-1.19l-.22.88c.49.11.53-.27.62-.87zm2.58.87c.72.16 1.28-3.46 1.86-4 .32-.31.37-.13.8.2.02.01.04.03.06.05.02.01.05.04.06.05l.12.11c-.17.45-1.27 3.7-1.45 3.76-.02 0-.05.02-.07.02l-.23.06c-.19.05-.22.04-.39.12-.23.12-.38.33-.52.49-.42-.22-.41-.74-1.6-.4.02-.57 1.23-3.87 1.5-4.37l1.16.16-1.3 3.76zm-.26-4.1-.11-.31c.24.17.12-.08.11.31zm15.92.21c.14-.34.04-.19.24-.46.29-.38.16-.13.2-.14.01.03.02.06.02.08l-.47.52zm-12.87-.38c-.24-.27-.15-.63-.15-1.14 0-.39 0-.76.01-1.15.72.46.63-.46.62 2.28l-.48.01zm15.63-.42c-.95 1.12-2.8-.08-2.14-1.55.53-1.17 2.59-1.1 2.35.88l-1.71.04c.58 1.13.97-.38 1.51.63zm-2.55-2.25c.05 1.51.13 2.68-1.15 2.67-1.26 0-1.16-1.25-1.11-2.74l.62.07c.02.64-.03 1.38.12 1.89 1.16.55.87-.84.91-1.95l.61.07zm-3.3 2.45c-.99.36-2.34.07-1.96-1.54.32-1.37 1.67-.85 1.83-.86.32 0-.02.01.22-.04l.16-.04c.16-.03.21-.03.37-.03.04.82.09 3.39-.04 4.07-.69.02-.58.27-.58-1.57zm-4.16-.17c-1.17 1.12-2.86-.27-2.11-1.65.61-1.13 2.72-.86 2.28.97l-1.68.03c.55 1.13.93-.38 1.52.65zm-6.47-.02c-.87 1.05-2.77.06-2.15-1.55.43-1.11 2.61-1.1 2.36.89l-1.71.05c.63 1.11 1.01-.41 1.5.61zm-3.3-2.63c.1-.36.09-.31.62-.69v3.73c-.25 0-.24 0-.47-.05-.37-.08.08-.1-.35-.06-.18.02-1.47.5-1.78-.88-.29-1.3.89-2.02 1.84-1.55l.14-.49zm-4.17 2.66c-1.11 1.02-2.8-.15-2.16-1.58.48-1.06 1.26-.54 1.36-.52.29.05 1.17-.29.99 1.4l-1.72.04c.6 1.14.96-.43 1.53.66zm9.19-1.47.27.45c-.11.21-.06.21-.3.36l.03-.81zm6.02-.78c.44-.14.32.01.76.1-.2.67-.4 1.39-.04 2.12l-.88.73c-.22-.3-.58-.61-.73-.86.29-.89.33-.85.01-1.93.49.02.47-.03.89-.16zm-5.61.06s.16-.13.17-.14c.21.11.48.44.6.66.29-.51.42-.75 1.11-.65-.18.59-.53.77-.72 1.36.18.16.71 1.02.79 1.3l-.73.01c-.16-.41-.23-.46-.46-.82-.02.03-.43.64-.44.65-.26.29-.38.22-.78.15.15-.48.64-.92.8-1.47-.2-.3-.37-.47-.55-.83l.21-.22zm13.03-.75c-.08.11-.02.08-.16.18-.12.08-.12.04-.26.08.15-.36.12-.35.43-.26zm-2.59.22c.44-.13.48-.33.83-.47-.02.59-.05.22-.43.63l-.06 1.8c-.59-.28.02-.55-.34-1.95zm-3.22-.06c.23-.43.65-.72.97-.95.17.36.26.89.68.84-.66.13-1 .01-1.64.11zm-3.15-.03c-.05.04.12.47-.37-.14.02-.02.26-.21.37.14zm-13.42.42c.48-.18.66.39 1.1-.12.05-.05.45-.77.56-.93l.09.16c.16.31-.02-.05.08.16.07.15.04.13.12.29.68.17.74-.2 1.12-.56l.47.56c-1.37-.18-2.86 1.22-1.42 3.36-.25.29-.44.67-.62 1.22-.28.88-.14.4-.89.79.25-1.35.64-1.68-.45-2.56.03-.67.3-.43.19-1.35-.06-.53-.28-.72-.35-1.03zm11.71-1.25c-.11.68-.09.56.02 1.2-.25-.15-.16-.13-.37-.3l-.31-.24.65-.67zm-3.81.68c-.01-.38.08-.4.35-.49-.07.14-.05.12-.17.31-.09.13-.08.1-.17.19zm-7.29-.56c-.31.24-1.55 1.66-2.03.59-.21-.46-.08-1.16.04-1.65.58-2.34 2.59-2.05 1.9-.38-.87 2.09-1.51.24-1.45 1.88.7.12 1.86-1.57 2.1-2.1.43-.93.2-.13 1.21-.69.66-.37 1.02.06.83.89.24-.12.49-.28.78-.18.31.11.45.57.48.51.01-.02.04.05.06.07.17-.35.48-1.23.92-.73-.31.59-1.33 1.88-1.93 1.9l-.05-.8c-.56.42-1.06.92-1.32.93L8.27 11c-.24.14-.7.65-.94.91-.23.24-.22.22-.41.55-.19.34-.11.4-.47.47l-.06-.34s.08-.36.08-.38zm23.56-3.63-.31.52c-.41.57-.1-.32-1.26 1.09l-.39-.6c.52-.15.7-.37.88-.9l1.08-.11zm-1.41-.43c-.06 1.1-.81 1.14-.95.64-.26-.95.66-.8.95-.64zm-11.6 1.5c.27-.21.5-.23.72-.61.23-.39.13-.48.7-.47l-1.06 1.66c-.13-.43-.11-.37-.36-.59zm-.4-.67c-.11-1.04.36-1.27.93-.77-.01.74-.42.94-.93.77zm-.38-1.39c-.09.47-.1.31-.31.75l.3-.11c-.04 1.24.21.89.16 1.25l-.37.17c-.05 0-1-1.12-1.82-.24-.65.7-.27 1.56-.02 2.29-.24.15-.6.17-.74.57-.2.58.43 1.5-.25 1.03-1.39-.97-1.7-.14-2.39.18l-.07-1.67c.29-.21 1.54-1.37.69-1.98-.55-.26-.77.17-1.04.47-.24-.14-.25-.14-.5-.22-.1-.03-.12-.02-.22-.07-.45-.25-.24-.65-.88-.77-.27-.05-1.66.44-1.92.59-.48-2.15-3.41-.19-2.81 3.08-.49.6-.89.4-1.06 1.47-.15.99.31 1.43.64 1.91-.32.68-.37.32-.9 1.82-.19.54-.59 1.54-.67 2.13-.3 2.16 1.97 1.63 2.85 1.13l-.14.35c-.08.46-.04.05-.13.61.18.23-.26.34.28.14.15-.5 1.76-5.08 2.56-3.65.45.8-1.47 2.3-1.74 3.74 1.09.56 1.1-.06 1.53-.72.32-.5 1.01-.96 1.56-.49-.06.96-.34.21-1.18 1.23-.35.43-.69.91-.83 1.74.98-.89.52-1.82 1.2-1.89.4-.04.42.08.51.47.48-.78 1.8-2.6 2.43-1.28-.19.8-.65.18-1.3.86-.28.29-.73.99-.77 1.71.5-.11.78-.34 1.13-.64l.93-.94c.37-.45.27-.69.78-1.14.49-.44.74-.5 1.21-.14-.03.64-.05.48-.52.69-.56.25-1.32 1.29-1.48 2.3.37-.31.56-.73.75-1.34.11-.35.09-.5.43-.55.26-.04.31.04.49.23l.16.2c.17-.38.42-.97.95-.71-.01.43-.22.48-.79 1.38-.65 1.03-.62 1-1.11.66-.01-.01-.04-.04-.06-.05-.43.56-1.56 1.37-1.22-.46-.45.28-.77.58-1.38.95.39.28.52.09.65.72-.06.74-1.7.64-2.21.55-.38-.07-.44-.12-.52-.55.46-.85 1.01.13 2.09-.15-.23-.2-.31-.09-.45-.2-.32-.26-.04.08-.13-.23-.22-.76.2.25-.05-.28-.23-.46-.19.14-.82-.32-.01-.01-.04-.04-.06-.05-.25.27-.73.99-1.17.48-.31-.48.02-.91.09-1.51l-1.02.06-.42.96c.18.39-.32.09.33.33.15-.41.18-.71.58-.8l-.08.82-.53.08-.42-.04c.02.03.05.06.07.07.54.41.74-.08 1.03.44l-.01.14c.1.02.18-.03.37.18.24.25.05.04.21.44.16.41.29.56.66.59.2-.06.56-.13.78-.03.38.15.32.2.26.78.02-.02.04-.06.06-.08l.4-.31c.56-.45 1.36-.38 1.43-1.53 1.53.57.21-.41 3.11-.16.02 1.02-.36 2-.23 2.97l.01.63c.14.14-.21.45.24-.01l1.09-3.59c.77-.05 3.77-.09 4.51.17.61.22.63.45.64 1.14l.1.3c.09-.33-.13-.2.22-.32.17-.26.27-.75.25-1.04l-.07-.53c.16 0 .51.03.66.01.27-.04.39.17.28-.16l-.27-.08c.03-.95.53-1.08.96-1.43-.42.15-.55.41-1.01.48-.06-.68.06-1.3.44-1.65.23-.21.36-.18.61-.27.54-.19.2.04.49-.53.34.23.36.51.89.66.46.13.94.03 1.37-.04l.3.46c-.1-.25-.1-.2-.19-.47.24-.23.58-.53.86-.65-.09-.13-.12-.28-.2-.54-.26.32-.63.69-1.21.79-2.07.35-1.23-1.5-1.17-1.83l1.13-.01c-.08.33-.24.63-.12.97.38-.15.38-.3.51-.78-.34-.74-1.1-.65-.92-1.75 1.87.19.86-1.07 1.23-1.61.21-.15.04-.06.35.1.7.36.77.11 1.35.15.06.48-.08.76-.17 1.17.03.16-.01.13-.06.16l-.39.34c-.24.6.1.71.1.71.32-.17.12-.02.38-.31 1.2-3.35 1.27-1.73 2.81-2.12 1.46-.37-.32 2.88-.52 3.85-.02.54-.07.08.13.31.14-.14.05-.03.17-.2l.32-.67c1.59-4.05.42-2.74.71-4.12.08-.39.8-1.76-.63-2.62l.11-.12.11-.11c1.45-1.33.36-.17 1.63.53.47.26.86.18 1.31.46.22-.28-.3.18.39-.55l-.08-.12c.21-.54.43-.59.65-1.08.19-.41.26-.84.45-1.23.3.13.15.07.37.39l-.03-.5-.4-.07c-.52 1.06-.65 2.78-2.27 2.06-.81-.36-1.33-3.14-1.27-3.49.86-.32 1.63 0 2.53.04-.11-.27-.11-.38.05-.72.08-.17.17-.37.3-.59l.58.39c-.1-.09-.25-.23-.44-.35-.11-.07-.08-.09-.24-.12-.2-.04-.08-.07-.2.05-.36.36-1.2 1.19-1.79.51l-.39-.03-.06-.57V7.8c-.54.08-.78.39-1.58.38-.45-.66-.61-.89-1.46-.51-.03-.01-.14-.08-.16-.09-.02-.01-.05-.02-.07-.03-.3-.03-.1-.24-.22.2.39.23.13.38.16.94.02.44.13.45.27.79-.48-.02-.52-.81-1.57-.38-.54.22-.9.61-1.1 1.1-.34-.22-.15-.23-.49-.41-.22-.12-.35-.07-.52-.14-.45-.19-.12-.43-.91-.61v-.46l-.38.18-.02.12c-.6.22-.28-.31-1.01-.09-.4.12-.62.36-1.03.21.07-.3.87-.87 1.15-1.16-.13-.15.27-.08-.23-.18l-.28.04c-.02-.05-.07.02-.11.04.2-.66.16-.41.11-.58-.39.32-.38.61-.8 1.02-.39.38-.38.54-.65 1.19-.36.85-.79 1.77-1.07 2.63 1.58-.88 1.27-2.96 2.99-2.37.24.75-.06 1.97-1.08 2.28-.41.12-.43-.04-.39.77.56.1 1.19-.73 1.47-1.13.63-.89.5-.64.92-1.89.47-.13.48-.14.85.12-.03.58-.12.41-.29.91 1.05-.65 1.48-1.06 1.27.94.46-.33.63-1.07 1.05-1.56.5-.57 1.38-.82 1.56-.32.12.85-.58.29-1.13.9-.37.41-.69.89-.75 1.6.54-.1.82-.41 1.21-.75.67-.58.6-.61.8-1.12.26-.66 1.1-.5.86.27-.05.17-.24.48-.32.69-.12.29-.18.5-.24.78 1.38-1.22 1.34-2.21 2.36-2.34.28.41.58 1.6.62 1.95-.44.22-.24-.16-.67.29-.2.21-.14.31-.47.48-.88.46-1.01-.4-1.16-.58-.18.55-1.53 2.08-1.18-.39-.83.64-1.37 1.53-2.14.91-.59-.47-.05.02-.83-.11-.12-.31-.16-.74-.2-1.19-1.25.73-1.76 2.1-2.41 1.88-.01-.31.05-.33.13-.55-.69.68-2.07 1.52-1.88-.74-.37.23-1.27 1.33-1.63 1.08-.26-.33.43-1.54.49-2.46-.08.22-.89 1.06-1.13 1.39-.22.3-.41.43-.64.72-.29.38-.32.53-.8.31-.06-.18-.03-.22-.08-.46l-.15-.48c-.15.72-.13.89-.59 1.27-.33.27-.66.47-1.03.31.15-.73.5-.83.83-1.33-.19-.39-.71-1.13-.63-1.78.09-.78.88-.88 1.33-.39-.08.52-.11.25-.46.6.02.47.07.65.28.94.99-.96.41-1.79 1.58-1.33.08.58-.42 1.15-.6 1.98.5-.28 1.08-1.23 1.46-1.73l1.22-1.88-.14-.07a.185.185 0 0 0-.07-.02c-.02-.01-.05-.01-.07-.01h-.07c-.53-.12-.25-.17-.21-.35l-.59.11c-.18-.53-.48-.72-1.1-.57-.06-.11-.18.32-.13-.54-.11-.13.17-.29-.2-.02-.19.22-.21.36-.23.59z"/><path class="fil2" d="M32.12 28.02c.1-1 .69-2.12.76-3.01l-2.53.02c-.29.77-2.34 7.83-2.41 8.42l2.55-.04 1-3.51.77.05-.98 3.49 2.51-.02c.43-.79.21-1.43.45-2.4.18-.73.39-1.4.59-2.11.21-.72.39-1.38.64-2.06.27-.73.7-1.11.77-1.84l-2.54.01-.91 2.99-.68.01zM9.63 30.44c.07-.43.85-2.33 1.13-2.79l.24-.26-.52 3.04-.84.01zm-.79-3.72c-.1.54-1.18 2.81-1.47 3.44-.33.72-1.23 2.52-1.42 3.29l2.62-.04c.69-1.3.04-1.43 1.51-1.47l-.24 1.51h1.76L13.15 28c-.13-.97.24-1.95.23-2.97-2.9-.25-1.58.73-3.11.16-.06 1.16-.86 1.09-1.43 1.53z"/><path class="fil3" d="M28.8 12.16c-.04-.71.32-1.09.56-1.37l.17.54c-.19.45-.32.74-.73.83zm-8.36-.72c.08-.42.19-.45.35-.62-.08.52-.05.53-.35.62zm-1.39-2.96-1.22 1.88c-.38.5-.96 1.45-1.46 1.73.18-.83.68-1.4.6-1.98-1.17-.46-.58.38-1.58 1.33-.21-.29-.26-.47-.28-.94.34-.35.37-.08.46-.6-.45-.48-1.24-.39-1.33.39-.08.65.44 1.39.63 1.78-.33.5-.68.6-.83 1.33.37.16.7-.04 1.03-.31.46-.38.43-.55.59-1.27l.15.48c.04.23.02.28.08.46.48.21.5.06.8-.31.23-.29.42-.43.64-.72.25-.32 1.05-1.17 1.13-1.39-.06.91-.75 2.12-.49 2.46.37.25 1.26-.85 1.63-1.08-.18 2.26 1.2 1.42 1.88.74-.08.23-.14.25-.13.55.64.22 1.16-1.14 2.41-1.88.04.45.07.87.2 1.19.78.14.24-.35.83.11.77.61 1.31-.27 2.14-.91-.35 2.47 1 .94 1.18.39.15.17.29 1.03 1.16.58.32-.17.27-.27.47-.48.43-.44.23-.07.67-.29-.04-.35-.34-1.54-.62-1.95-1.01.14-.97 1.13-2.36 2.34.06-.28.12-.5.24-.78.08-.2.27-.51.32-.69.24-.77-.6-.93-.86-.27-.2.51-.13.54-.8 1.12-.39.34-.67.65-1.21.75.06-.71.37-1.19.75-1.6.55-.61 1.25-.05 1.13-.9-.19-.5-1.06-.25-1.56.32-.42.49-.6 1.23-1.05 1.56.2-2-.23-1.58-1.27-.94.17-.5.26-.33.29-.91-.37-.27-.38-.25-.85-.12-.43 1.25-.29 1-.92 1.89-.28.4-.91 1.23-1.47 1.13-.04-.81-.02-.64.39-.77 1.02-.31 1.32-1.53 1.08-2.28-1.71-.59-1.4 1.49-2.99 2.37.28-.86.7-1.78 1.07-2.63.27-.65.26-.81.65-1.19.42-.4.41-.69.8-1.02l-.09-.66c-1.41-.49-1.37 1.16-2.03 2z"/><path class="fil4" d="M39.3 13.84c.06-1.25 1.29-.4.37.43.12-.49.2-.44.11-.96-.19.14-.31.32-.48.53zm-6.42-.56c.68 1.7 3.03-.61 4.52 2.11.43.79.58 2.18.16 3.11-.4.87-1.05 1.26-2.11 1.2l.06 2.3.31-.25c.14-.58.83-.59 1.26-.75.44-.16.87-.39 1.27-.61.81-.45 1.66-1.08 2.2-1.64-.11-1.26-.74-2.64-.85-3.78.32-.5.75-.76.53-1.84l-1.69-1.29c-.17.15-.18.09-.23.4l.01-.61c-.25-.23-.45-.45-.79-.53-.28.99-.12 1.52-.83 2.08-1.09 1-2.28-.48-2.44-1.95-.22-.31-.07-.25-.37-.39-.19.38-.26.82-.45 1.23-.22.49-.44.53-.65 1.08l.08.12z"/><path class="fil2" d="M41.09 28.89c-.03-.02-.13-.11-.14-.11l-.23.07c-.13.42-.05.63-.13.97l-.25.63c-.01.01-.03.03-.03.04l-.32.43c-.16.33-.09.38-.09.83-.21.15.02.08-.29.1-.03 0-.23-.09-.26-.1l.06.18c.21.61.26.41.12.31-.62.23-.3.34-.71.55-.17.08-.32.08-.48.1-.03 0-.25.03-.26.03-.23.01 0 .37-.16-.01-.01-.03-.05 0-.08-.01-.05-.24-.05-.25.09-.48.13-.22.29-.05.26-.58-.02-.47.04-.21.18-.69.36-1.2.36-.86.19-1.67-.6.81-.36 2.81-1.47 2.71-.14-.67.59-2.68.78-3.34.5-1.78.55-2.64 1.41-2.51l-.07.76c.34-.04.37-.11.77-.17-.15-.18-.09-.54-.06-.7.12-.57-.27-.57 1.01-.45.66.06-.56.12.51.18l-.07-.05h-.03c-.24.16-.05 1.45-.01 1.67.25-.39.4-1.28.39-1.76-.37-.4-.4-.56-.95-.76-1.17-.44-2.96-.18-3.94.59-.78.62-.92 1.13-1.3 2.37-.88 2.85-1.73 4.72 0 5.41 1.15.46 4.01.32 4.68-1.61.21-.59.67-1.14.87-2.92zM5.56 26.47c.31.59-.05 1.32-.36 1.79-.11.33.15.17-.36.32-.46.14-.5-.29-.73-.34l-.06.73c.45.37.08.02.53.26.51.28.31.04.45.83-.18.29.24.24-.25.24-.46 1.02-.11 1.67-1.33 1.7l.26-1.24c-.07-.53.01-.75.13-1.18-1.05.32-1.18-.16-1.36.25.21.27.33-.66-.42-.25l-.14.08c-.01 0-.04.01-.05.01-.01 0-.05.04-.06.02-.01-.03-.04.01-.06.02-.02.6-.16.69-.36 1.08-.32.62-.16.7-.07 1.34.15-.26-.03-.14-.28-.24l.05 1.13c0 .02.01.1.01.09 0-.02 0 .06.01.1h1.74c-.21-.26-1.86-.07-2.29-.14l-.11.41c.87.01 4.28.13 4.87-.11.4-.16 1.84-3.74 1.87-4.04l-.78-.42c1.03-.36 1.67-.76 1.73-2.33-.3-.03-.6.02-.78-.18-.37-.03-.49-.18-.66-.59-.16-.4.03-.19-.21-.44-.2-.21-.28-.16-.37-.18-.6.17-.43-.19-.8.46-.01.02-.03.05-.04.07l-.32.48c.52.05.46.1.62.3zM13.39 28.61l-1.34 4.84 2.56.01.02-.36v-2.07c.2 0 .19.02.3.12l.28-.7c.04-.11.04-.08.06-.25l-.06-1.1.29-.03c.43-.14.34-.5.35-.68.01-.14 0-.33 0-.48.03-.61.11-.89.43-.98l-.04-.36c0-.03.01-.06.02-.09l.14-.39c0-.01-.01-.02-.01-.01.66-.13.75 0 1.37 0-.16-.4-.21.94-.28 1.35-.01.04-.03.14-.04.18-.04.3-.03.03-.03.38 0 .03.01.06.01.09l-.03.78c.4-.07.41-.13.76-.24l.57.05c.33-.19.52-1.32.65-1.77.11-.36.07-.32.25-.56-.01-.7-.02-.92-.64-1.14-.74-.26-3.73-.22-4.51-.17l-1.09 3.59z"/><path class="fil5" d="M4.92 22.46c-.09.19-2.34 5.93-2.07 6.25.34.25.47-.42.67-.87l1.61-3.72.42-.96 1.02-.06c-.06.6-.4 1.03-.09 1.51.45.51.93-.21 1.17-.48.02.01.05.04.06.05.63.46.59-.14.82.32.26.52-.17-.48.05.28.09.31-.2-.03.13.23.13.1.21 0 .45.2-1.08.28-1.64-.7-2.09.15.08.44.14.49.52.55.51.09 2.15.18 2.21-.55-.13-.63-.25-.45-.65-.72.61-.37.93-.67 1.38-.95-.34 1.82.78 1.02 1.22.46.02.01.05.04.06.05.49.34.46.37 1.11-.66.57-.9.79-.96.79-1.38-.53-.26-.78.33-.95.71l-.16-.2c-.18-.19-.24-.27-.49-.23-.34.05-.32.2-.43.55-.19.61-.38 1.03-.75 1.34.16-1 .92-2.05 1.48-2.3.48-.21.49-.05.52-.69-.47-.36-.72-.3-1.21.14-.51.46-.4.69-.78 1.14l-.93.94c-.35.3-.63.53-1.13.64.04-.72.5-1.42.77-1.71.65-.68 1.1-.06 1.3-.86-.63-1.32-1.96.49-2.43 1.28-.09-.38-.11-.51-.51-.47-.68.07-.21 1-1.2 1.89.13-.83.48-1.31.83-1.74.84-1.02 1.12-.27 1.18-1.23-.54-.48-1.23-.01-1.56.49-.43.67-.44 1.29-1.53.72.27-1.44 2.19-2.93 1.74-3.74-.8-1.43-2.41 3.14-2.56 3.65z"/><path d="M38.31 1.72c-.3-.11-.34-.24-.38-.29a.311.311 0 0 1-.04-.06c-1.15-.52-2.25-.22-3.14.61-.81.75-.97 2.24-1.19 3.97 2.47-.4 3.82.97 5.34 1.26.19-.53.52-2.56.52-3.13-.01-1.26-.7-1.85-1.1-2.37z" style="fill:#fefefe"/><path class="fil7" d="M21.74 29.21c-.39-.67-.33-.85-.42-1-.07.2-.05.39-.1.8l-.04.66c-.11 1.56-.46.38-.5 1.83-.01-.01-.02-.06-.02-.04-.09.6-.03-.07-.04-.09-.21-.29.11-.21-.12-.11.12.55.19.56 0 1.33.02-.05-.01-.14.18.01.27.21 0-.11.1.13 0 .01.01.04.01.04l.89.06c.22.34-.04.49.48.36-.41.18-1.48.27-1.99-.18l-.06-.06c-.02-.01-.04-.05-.06-.06-.18.27-.04.2-.23.27-.1.04.01.03-.11 0-.02 0-.04-.03-.06-.03a.265.265 0 0 1-.06-.05c-.02-.01-.04-.04-.06-.05-.02-.01-.04-.03-.07-.05-.47-.27-.03.15-.42-.19l-.15-.26c-.08-.28-.01-.11-.01-.3.05-1.16-.19-.73.43-2.2.17-.41.18-.5.04-1.37-.3.38-.54 1.6-.7 2.21-.28 1.02-.38 1.69.2 2.19.91.78 2.9.68 3.95.17 1.2-.58 1.2-1.29 1.88-3.78.22-.8 1.18-3.85 1.25-4.45l-2.24.02c-.36.91-1.27 4.29-1.69 5.72-.24.8-.2 1.45-1.01 1.42 0-.78.49-2.19.73-2.95z"/><path class="fil2" d="M27.1 31.77c.15-1.24 1.77-5.72 1.85-6.75l-2.53.01-2.43 8.42 3.47.01.46-1.66-.81-.02z"/><path d="M33.89 18.03c.17.65 1.03 1.37 1.48 1.47 2.65.59 3.08-3.94.81-5.17-.75-.41-1.61-.12-2.39-.21-.84-.09-.92.14-1.25 1.73-.16.8-.79 1.68.27 1.98.65.18 1.87-.21 2.26.33l-1.19-.13z" style="fill:#f58635"/><path class="fil4" d="m21.06 24.59 13.82.01c-.16-.51-.37-.72-.59-1.09-.66-.03-2.19.75-4.69.68-1.4-.04-3.29-.24-4.17-1.23-.3-.19-.43-.37-.58-.76l-.3-.46c-.42.07-.91.18-1.37.04-.53-.15-.55-.43-.89-.66-.29.56.05.33-.49.53-.26.09-.39.07-.61.27-.38.35-.49.97-.44 1.65.47-.08.6-.34 1.01-.48-.43.35-.94.48-.96 1.43l.27.08z"/><path class="fil9" d="M20.2 25.27c.01.29-.08.78-.25 1.04-.15.75-.56 1.63-.58 2.35.13.87.13.96-.04 1.37-.62 1.47-.38 1.04-.43 2.2-.01.19-.07.02.01.3l.15.26c.38.34-.05-.08.42.19.02.01.04.03.07.05.02.01.04.04.06.05.02.01.04.04.06.05.02.01.04.03.06.03.12.03.01.04.11 0 .18-.07.04 0 .23-.27l.06.06.06.06c.52.45 1.58.36 1.99.18-.52.13-.26-.02-.48-.36l-.89-.06s0-.03-.01-.04c-.1-.24.16.07-.1-.13-.19-.15-.16-.06-.18-.01.19-.77.12-.78 0-1.33.23-.1-.09-.18.12.11.01.02-.05.69.04.09 0-.01.01.04.02.04.04-1.45.39-.26.5-1.83l.04-.66c.04-.41.02-.6.1-.8.09.15.03.33.42 1l1.18-4.17c-.47-.07-.95-.03-1.42-.04-.6 0-.95-.11-1.3.27z"/><path class="fil7" d="M14.32 7.34c.03-.57.3-1.18.48-1.73.21-.67.2-1.21.8-1.25-.01.64-.29 1.24-.47 1.8-.21.66-.23 1.25-.8 1.18zm1.94.26c.02-.23.04-.38.23-.59.18-.9.86-2.31.81-3.15-.71-.54-1.11-.3-1.9-.02l.3-1.19-1.55.04-1.72 5.37c1.91.32 1.21-.45 2-.03.73.39 1.34-.13 1.83-.43zM26.26 2.64l-1.48.02c-.22.33-1.7 4.9-1.76 5.43l1.55-.04c.21-.7.41-1.32.65-2.02.44-1.31.35-1.65.94-1.69-.02.99-.87 2.65-1.05 3.75l1.56-.03c1.06-3.56 2.23-5.03-.69-4.31l.27-1.12zM16.67 26.45l.53.11c.16.38 0 .77-.17 1.22-.22.58-.37.5-.92.53l.56-1.86zm-2.03 6.64.19-.4c.29-.8.6-2.38.93-3.05l.52.09c.16.87-.71 2.68-.82 3.72l2.31-.03c.44-.87.13-1.12.34-2.05.14-.62.42-1.29.47-1.92l-.63-.36c.3-.22.55-.08.78-.43l-.57-.05c-.35.11-.36.17-.76.24l.03-.78c0-.03-.01-.06-.01-.09-.01-.35-.02-.08.03-.38.01-.04.03-.14.04-.18.07-.41.12-1.75.28-1.35-.62 0-.71-.13-1.37 0l.01.01-.14.39c-.01.02-.02.06-.02.09l.04.36c-.31.09-.4.37-.43.98-.01.15.01.35 0 .48-.01.18.08.55-.35.68l-.29.03.06 1.1c-.02.17-.03.14-.06.25l-.28.7c-.11-.1-.1-.12-.3-.12v2.07z"/><path class="fil2" d="M42.9 31.35c.37-1.05 2.1-5.57 2.19-6.34h-2.64c-.18.49-1.4 5.78-1.43 6.35l1.88-.01z"/><path d="M31.88 6.96c.16.19-.08.04.25.19l.9.24c1.84.92 3.25 3.18 4.72 1.94.42-.36 1.24-1.15 1.42-1.77-1.11-.23-2.28-1-3.61-1.33-2.03-.5-2.14.14-3.69.73z" style="fill:#ed3135"/><path class="fil11" d="M29.75 5.22c.13-.67.12-.85.61-.88 0 .8-.09.85-.61.88zM27.6 7.66c.85-.38 1.01-.15 1.46.51.79.01 1.04-.3 1.58-.38.31-.56.64-.63.76-1.56l-1.43.04c-.36.66-.14 1.05-.85 1.1.02-.47.21-1.1.4-1.43l2-.04c.25-.38.43-1.06.35-1.68-.54-.99-2.24-.81-3.04-.18-.68.54-1.33 2.64-1.23 3.62z"/><path class="fil9" d="M39.22 27.08c-.17.3-.65 1.87-.65 2.38.18.8.17.47-.19 1.67-.15.48-.2.22-.18.69.02.53-.13.36-.26.58-.14.22-.15.24-.09.48.02.01.06-.02.08.01.16.38-.06.02.16.01.01 0 .23-.03.26-.03.17-.02.32-.02.48-.1.41-.2.09-.31.71-.55.13.1.09.3-.12-.31l-.06-.18c.03.01.23.11.26.1.3-.02.08.04.29-.1 0-.45-.07-.5.09-.83l.32-.43c.01-.01.03-.03.03-.04l.25-.63c.08-.35.01-.56.13-.97l.23-.07c.02 0 .12.09.14.11.14-.26.28-.95.25-1.32-.04-.22-.23-1.51.01-1.67h.03l.07.05c-1.06-.06.15-.11-.51-.18-1.27-.12-.89-.13-1.01.45-.03.16-.09.51.06.7-.4.05-.43.13-.77.17z"/><path class="fil3" d="M5.23 11.44c.07-.3 0-.14.12-.36.15-.26.14-.17.23-.26-.07.52-.04.55-.35.62zm1.26.77c0 .02-.08.37-.08.38l.06.34c.36-.07.28-.13.47-.47.18-.33.17-.3.41-.55.25-.26.7-.76.94-.91l-.25 1.45c.27-.01.76-.51 1.32-.93l.05.8c.6-.02 1.62-1.31 1.93-1.9-.44-.5-.76.38-.92.73-.02-.02-.05-.09-.06-.07-.03.07-.17-.39-.48-.51-.29-.11-.54.06-.78.18.19-.83-.17-1.26-.83-.89-1.01.56-.78-.24-1.21.69-.25.54-1.4 2.22-2.1 2.1-.06-1.64.59.21 1.45-1.88.69-1.67-1.32-1.96-1.9.38-.12.49-.25 1.19-.04 1.65.48 1.07 1.72-.35 2.03-.59z"/><path class="fil12" d="M35.81 21.75c.17.33.93.15 1.27.2 2.24.28 1.5 2.01 3.05.69.36-.31 1.42-1.29 1.64-1.69.36-.66-.37-2.17-.69-2.64-.15.15.01-.02-.16.18-1.4 1.7-3.19 2.53-5.11 3.26zM3.67 20.38l.92-2.7c.16-.44.11-.56.54-.69-.09.59-.42 1.37-.61 1.92-.18.51-.34 1.55-.85 1.46zm2.06-4.11c-1.66.81-1.71-.46-2.56 1.82-.36.97-1.46 3.09.02 3.25 1.85.19 2.35-1.54 3.04-3.66.22-.68.08-1.69-.5-1.41zM27.03 20.46c.09-.59.42-1.41.62-1.93.41-1.06.39-1.48.85-1.5-.06.49-.42 1.34-.59 1.84-.42 1.18-.37 1.47-.87 1.59zm-.69-1.82c-.29.83-.64 1.43-.5 2.42.46.28.97.4 1.59.2.83-.26.8-.74 1.19-.9.2-.98 1.98-4.23.52-3.85-1.54.39-1.61-1.23-2.81 2.12zM18.51 17.98c.14-.54.19-.88.64-.98-.03.23-.11.63-.18.78-.18.36-.01.24-.46.2zm1.18 1.16-1.21.01c-.11.59-.28 1.28-.79 1.26.07-.49.3-1.18.53-1.57l1.63-.04c.21-.56.91-2.17.12-2.55-.31-.15-.38.06-.71.22-1.46.68-1.19-.84-2.15 1.86-.19.54-.46 1.09-.58 1.65-.43 1.91 1.16 1.05 1.6 1.04.86-.01 1.27-.78 1.56-1.88z"/><path class="fil13" d="m11.15 20.38 1.3-3.76-1.16-.16c-.27.51-1.49 3.8-1.5 4.37 1.19-.34 1.18.18 1.6.4.14-.17.29-.37.52-.49.17-.09.19-.08.39-.12l.23-.06c.02-.01.05-.02.07-.02.18-.05 1.28-3.3 1.45-3.76l-.12-.11c-.01-.01-.04-.04-.06-.05a.265.265 0 0 1-.06-.05c-.43-.33-.48-.51-.8-.2-.57.55-1.13 4.16-1.86 4z"/><path class="fil7" d="m6.75 2.64-3.6.01-.31 1.06.93.05L2.4 8.08l1.64.01 1.42-4.36.99-.03z"/><path class="fil11" d="M18.4 7.35c.01-.74.3-1.15.79-1.3-.05.29-.13.54-.23.84-.14.43-.15.47-.56.46zm-1.59.21c.61-.15.91.03 1.1.57l.59-.11c.2-.24-.08-.02.13-.03.12-.01.2.12.39-.28 1.3-2.78 1.14-1.24 1.84-1.9.01 0 1.51-2.3-1.09-2.26-1.18.02-2.06.5-2.29 1.81l1.49-.01c.14-.61.19-1.02.69-.96.07 2.11-2.57.2-2.85 3.18z"/><path class="fil12" d="M33.96 22.78c.17.56.56.89.87 1.32.47.66.5.5 1.33.5l3.42-.02c-.19-1.3-1.12-2.1-2.23-2.38-1.4-.36-2.29.15-3.4.59z"/><path class="fil13" d="M21.41 19.55c-.02.5-.09.83-.51.9-.13-.63.09-.38.12-.97h-1.03c-1.23 2.19 1.36 2.38 2.25 1.04 1.1-1.65.23-1.93-.47-2.63.03-.63.06-.88.54-.88-.05.45-.13.37-.15.78 1.14-.03 1.19.36 1.19-1.24-1.28.16-1.54-1.01-2.4.31-.21.32-.54 1.02-.45 1.56.08.49.59.68.91 1.11zM13.29 20.93c1.39 1.22 2.78-.27 3.14-1.76l-1.13.02c-.19.58-.29 1.33-.78 1.16.05-.57.38-1.23.58-1.78.23-.64.34-1.44.86-1.57l-.29 1.1 1.2.01c.1-.49.26-.82.23-1.45-.27-.07-.49-.02-.71-.14-.33-.18-.12-.21-.44-.43-.2.21-.15.29-.38.42-.57.33-.79-.44-1.44 1.24-.34.87-.91 2.08-.84 3.17z"/><path class="fil4" d="M24.85 22.2c.24.15.46.46.58.76 2.28 1.11 3.92 1.36 6.46.99.98-.15 1.4.02 1.31-1.44-.83-.06-2.96 1.15-6.39.02-.67-.22-.35-.28-.66-.69-.3-.39-.48-.12-.63-.76-.27.12-.61.42-.86.65.09.27.08.22.19.47z"/><path class="fil13" d="M25.32 20.54c.8-2.16.56-1.47-.52-2.67.02-.61.1-.8.57-.85l-.19.81 1.14-.08c.09-.42.23-.69.17-1.17-.58-.04-.65.21-1.35-.15-.31-.16-.14-.25-.35-.1-.37.54.64 1.8-1.23 1.61-.18 1.09.58 1.01.92 1.75-.13.48-.13.63-.51.78-.12-.34.04-.64.12-.97l-1.13.01c-.06.32-.9 2.18 1.17 1.83.58-.1.94-.46 1.21-.79z"/><path class="fil7" d="M9.34 3.57c-.44.05-.58.08-.87.39-.16-.06-.06.06-.27-.35l-1.39.03L5.4 8.08l1.52-.01c.23-.36.5-1.41.69-1.96.35-1 .43-.85 1.29-1.04l.43-1.49zM11.15 5.28l.14.26c-.2.18-.26.42-.36.64l-.11.21c-.15.18-.2.44-.21.75l-.02.33c.36.01.09-.25.53.18.02.02.05.06.08.08.3-.46.33-.31.7-.24-.12-.83.14-.74.33-.77.16-.22.69-1.88.7-2.49-.19-.92-3.4-1.29-3.78 1.12l1.46.01c.17-.56.14-.98.7-1 .02.44 0 .37-.14.86 0 .01-.02.05-.02.07z"/><path class="fil13" d="M8.57 19.51c-.09.59-.13.98-.62.87l.22-.88c-.48.01-.3.26-.95 1.19-.04.05-.09.1-.12.19l-.01.28c.48.13.74-1.14 1.92-.26.45-.38.83-1.01.85-1.95-.33-.66-.62-.58-.98-1.21.09-.48.17-.74.55-.68l-.18.75 1.13-.01c.1-.4.29-.76.18-1.1l-1.36-.11c-.78.04-.87-.29-1.25.47-.53 1.06-.37 1.69.61 2.45z"/><path class="fil7" d="M21.43 7.45c.58-.31.62-.16 1.16.04.3-1.36 1.34-3.62 1.48-4.84H22.5c-.28.64-.52 1.58-.75 2.27-.75 2.27-.02.91-.32 2.53z"/><path class="fil14" d="M33.1 9.33c.64.61 1.54.23 2.36.31-.29.3-.41.08-1.03.65-.23 2.67 2.94 4.54 2.64.08.06-.23-.14-.06.15-.19.27-.12.16-.06.41-.01-.06-.3.07-.15-.09-.22-.47.33-1.07.29-1.57 0-.3-.17-1.03-.62-1.07-.81l.26.36c-1.03.19-1.15.04-2.05-.18z"/><path d="M.55 33.04c.43.07 2.08-.12 2.29.14H1.1c-.01-.04-.01-.12-.01-.1 0 .02-.01-.07-.01-.09l-.05-1.13c.24.1.42-.01.28.24-.09-.63-.24-.71.07-1.34.2-.39.34-.48.36-1.08.02-.01.06-.04.06-.02.01.02.05-.01.06-.02.01 0 .04-.01.05-.01l.14-.08c.75-.41.62.53.42.25.19-.41.31.07 1.36-.25-.12.44-.2.66-.13 1.18l.25-.56c.05-.17.09-.32.16-.54l.65.07.01.57c.5 0 .07.05.25-.24-.14-.78.06-.55-.45-.83-.45-.24-.08.11-.53-.26l.06-.73c.23.05.27.48.73.34.51-.15.25.01.36-.32l-.55.06c-.06-.15-.05-.01-.06-.28 0-.21.32-1.31.51-1.57l.45.01c-.16-.2-.1-.24-.62-.3l.32-.48c.01-.02.03-.05.04-.07.37-.66.2-.29.8-.46l.01-.14c-.74-.03-.78-.19-1.09.56l-1.59 3.58c-.32.36-.89.26-1.06-.2-.25-.68.88-2.8 1.07-3.95l-.59.01-2.29 8.01z" style="fill:#f20402"/><path class="fil14" d="M33.44 10.1c-.58-.58-1.09-.79-1.98-.61-1 .21-.79.99-.51 2 .51 1.87 2.76 1.35 2.5-1.39z"/><path class="fil12" d="M39.74 24.49h3.08c.02-.75-.69-2.87-1.01-3.2-.25.17-1.58 1.7-2.43 2.1l.36 1.1z"/><path class="fil5" d="M23.67 14.46c.05 1.42-1.15 1.14-1.28.49-.1-.54.18-.83.5-.9.43-.09.54.11.78.41zm.05 1.43c0 1.83-.11 1.59.58 1.57.13-.68.08-3.26.04-4.07-.16 0-.21 0-.37.03l-.16.04c-.24.05.1.04-.22.04-.16 0-1.51-.52-1.83.86-.38 1.61.97 1.9 1.96 1.54z"/><path class="fil11" d="M12.24 6.71c-.19.03-.46-.05-.33.77-.37-.07-.4-.22-.7.24-.03-.02-.06-.06-.08-.08-.44-.42-.17-.17-.53-.18l.02-.33c-.19.15-.28.23-.56.19.02-.81.29-.99.7-1.27.18.14.05-.08.07.34l.11-.21c.1-.22.16-.46.36-.64l-.14-.26c-1.27.4-2.78.47-2.69 2.59.78.56.89.24 1.63.07.44-.11 0-.03.33.09.2.07.19.06.41.07.31.01.69 0 1-.03l.4-1.36z"/><path class="fil5" d="M9.74 15.01c-.21.26-.34.49-.72.45-1.17-.1-.4-2.36.72-.99v.54zm-.08-1.46c-.94-.47-2.13.25-1.84 1.55.31 1.38 1.6.9 1.78.88.44-.04-.01-.01.35.06.22.05.22.05.47.05v-3.73c-.53.38-.52.33-.62.69l-.14.49z"/><path d="m30.63 7.85.06.57.39.03c-.04-.45.08-.51.32-.8.48-.05 1.1-.03 1.47.3.12-.12 0-.09.2-.05.16.04.13.05.24.12.19.12.34.26.44.35.02.02.05.02.06.06.02.07.72.6 1.08.73.05.19.78.64 1.07.81.5.29 1.1.33 1.57 0 .16.07.03-.08.09.22.3.32 1.11 1.13 1.53 1.3-.14-.33.02-.06-.14-.27a2.26 2.26 0 0 0-.22-.22l.21-.85-.35.53c-.07.11-.08.12-.12.16-.24-.25-.57-.6-.81-.8l.14-.16.15-.18.23-.28c.46-.51 1.05-.97 1.31-1.68-.51-.34.44.09-.14-.01l-.25-.15c-.18.62-.99 1.41-1.42 1.77-1.47 1.24-2.88-1.03-4.72-1.94l-.9-.24c-.33-.15-.1.01-.25-.19-.39.39-.29.21-.71.4-.41.18-.29.24-.54.49z" style="fill:#000"/><path class="fil5" d="M17 24.07c-.07-.67.4-1.2.61-1.44.31.72-.07 1.46-.61 1.44zm-.52.23c.37.25.68.41 1.17.05.53-.39.17-.55.85-.67.77-.13 1.55-.94 1.64-1.58-.88-.28-.57 1.06-1.61 1.08.92-3.07-2.32-1.52-2.04 1.13z"/><path class="fil17" d="m38.01 9.69-.15.18-.14.16c.24.2.57.55.81.8.04-.04.04-.05.12-.16l.35-.53.63 1.69c.37-.56.85-3.1.71-4.05-1.29-.16-.36.4-2.32 1.91z"/><path class="fil18" d="M38.31 1.72c.5.12 1.06 1.08 1.19 1.95.1.7-.28 2.27-.33 3.11l1.27.15c.67-3.22-1.84-6.06-2.56-5.55.01.02.04.05.04.06.05.05.09.18.38.29z"/><path class="fil5" d="M18.05 14.45c.17-.57.87-.65 1.05-.01l-1.05.01zm1.52 1.27c-.59-1.03-.97.48-1.52-.65l1.68-.03c.45-1.83-1.67-2.1-2.28-.97-.74 1.38.95 2.77 2.11 1.65zM12.64 14.44h-1.05c.22-.6.82-.6 1.05 0zm.46 1.25c-.5-1.02-.88.49-1.5-.61l1.71-.05c.25-1.98-1.93-1.99-2.36-.89-.62 1.61 1.28 2.6 2.15 1.55zM28.07 14.45c.2-.58.89-.63 1.05-.01l-1.05.01zm1.5 1.25c-.53-1.01-.92.5-1.51-.63l1.71-.04c.25-1.98-1.82-2.05-2.35-.88-.66 1.47 1.19 2.67 2.14 1.55z"/><path d="M38.57 29.47c0-.52.48-2.08.65-2.38l.07-.76c-.86-.13-.91.73-1.41 2.51-.18.66-.92 2.68-.78 3.34 1.1.1.86-1.9 1.47-2.71z" style="fill:#050105"/><path class="fil5" d="M4.11 14.44c.19-.58.89-.62 1.05 0H4.11zm1.52 1.28c-.56-1.09-.93.48-1.53-.66l1.72-.04c.18-1.69-.7-1.35-.99-1.4-.1-.02-.88-.54-1.36.52a1.357 1.357 0 0 0 2.16 1.58z"/><path d="M33.44 10.1c.26 2.74-1.99 3.26-2.5 1.39-.28-1-.49-1.79.51-2 .89-.18 1.4.03 1.98.61zm.79.64c.07 0-.03.01.05-.17.08-.17.11-.23.15-.28.63-.57.74-.35 1.03-.65-.82-.09-1.72.3-2.36-.31l-.28-.05c-.9-.04-1.67-.36-2.53-.04-.07.36.45 3.14 1.27 3.49 1.62.71 1.75-1 2.27-2.06l.4.07z" style="fill:#0a07d0"/><path class="fil11" d="m42.94 31.77-2.3.02-.41 1.66 2.25-.01z"/><path class="fil5" d="m27.02 13.44-.61-.07c-.04 1.11.25 2.5-.91 1.95-.15-.51-.1-1.25-.12-1.89l-.62-.07c-.06 1.49-.16 2.74 1.11 2.74 1.28 0 1.2-1.17 1.15-2.67zM15.02 13.76c.18.36.35.53.55.83-.16.55-.65.99-.8 1.47.4.08.53.14.78-.15.01-.01.42-.62.44-.65.23.36.3.41.46.82l.73-.01c-.08-.28-.61-1.14-.79-1.3.19-.59.53-.76.72-1.36-.69-.1-.82.14-1.11.65-.13-.22-.4-.55-.6-.66-.01.01-.17.13-.17.14l-.21.22z"/><path class="fil13" d="M33.15 22.09c.33.49.18.29.18 1.38 1.42-.12-.47-.71 1.47-1.1-.01-.7-.12-.9-.29-1.47-.33.09-1.2.75-1.45 1.08l.09.12z"/><path class="fil17" d="m32.82 9.28.28.05c.89.22 1.02.38 2.05.18l-.26-.36c-.36-.12-1.06-.66-1.08-.73-.01-.04-.04-.04-.06-.06l-.58-.39c-.13.22-.22.42-.3.59-.16.34-.16.45-.05.72z"/><path d="m34.23 10.74.03.5c.16 1.47 1.35 2.95 2.44 1.95.08-.18.04-.09.12-.24l.09-.14c.12-.21.1-.15.17-.37.1-.28.15-.56.19-.9l-.02-.68c-.08-.93.02-.16-.19-.48.31 4.46-2.86 2.59-2.64-.08-.04.05-.07.11-.15.28-.08.18.02.16-.05.17z" style="fill:#0a08b2"/><path class="fil22" d="m3.69 30.75-.26 1.24c1.21-.02.86-.67 1.33-1.7l-.01-.57-.65-.07c-.07.22-.11.38-.16.54l-.25.56z"/><path d="M37.07 10.38c.21.33.11-.44.19.48l.02.68.26-.68c.69.21 1.68 1.62 2.38 1.72-.23-.77-.44-.38-.74-1.07l-.02-.04c-.42-.17-1.23-.98-1.53-1.3-.25-.04-.14-.11-.41.01-.29.13-.09-.04-.15.19z" style="fill:#0403f1"/><path class="fil0" d="m9.63 30.44.84-.01.52-3.04-.24.26c-.27.47-1.06 2.36-1.13 2.79zM14.32 7.34c.58.06.6-.53.8-1.18.18-.56.46-1.16.47-1.8-.6.04-.58.58-.8 1.25-.17.56-.45 1.16-.48 1.73z"/><path d="M21.68 7.83c-.27.3-1.07.86-1.15 1.16.41.15.63-.09 1.03-.21.73-.22.41.31 1.01.09l-.31-1.08-.59.04z" style="fill:#fafafa"/><path class="fil25" d="M5.19 28.25c.31-.47.67-1.19.36-1.79l-.45-.01c-.2.26-.51 1.36-.51 1.57 0 .27 0 .13.06.28l.55-.06z"/><path class="fil18" d="M31.08 8.44c.58.68 1.43-.14 1.79-.51-.37-.33-.99-.35-1.47-.3-.24.29-.36.35-.32.8z"/><path class="fil5" d="m13.94 16.11.48-.01c.01-2.74.1-1.82-.62-2.28-.01.39-.01.76-.01 1.15 0 .51-.1.86.15 1.14z"/><path class="fil26" d="M23.04 14.52c.25.01.23.2.27.39l-.57-.01c.02-.31.07-.38.3-.38zm.63-.06c-.24-.3-.35-.49-.78-.41-.32.06-.6.36-.5.9.12.65 1.33.93 1.28-.49z"/><path class="fil1" d="m9.37 14.85-.55.1c.07-.28-.04-.44.29-.42.24.01.23.22.26.33zm.37.16v-.54c-1.11-1.37-1.88.89-.72.99.38.03.5-.2.72-.45z"/><path class="fil0" d="M16.11 28.3c.55-.03.7.05.92-.53.17-.45.33-.84.17-1.22l-.53-.11-.56 1.86z"/><path class="fil26" d="M27.03 20.46c.51-.13.45-.41.87-1.59.17-.49.54-1.34.59-1.84-.46.02-.44.44-.85 1.5-.2.52-.52 1.34-.62 1.93zM3.67 20.38c.52.08.67-.95.85-1.46.19-.55.52-1.33.61-1.92-.43.12-.38.25-.54.69l-.92 2.7z"/><path class="fil3" d="M34.51 20.46c.44 1.12.26 1.48.65 1.68.26-.22.11.17.22-.41l-.09-1.6c-.26-.09-.51.18-.79.33zM28.63 8.15c-.29-.16-1.21-.31-.95.64.14.5.89.46.95-.64zM16.63 8.98c.52.17.92-.03.93-.77-.57-.5-1.05-.27-.93.77z"/><path class="fil26" d="M17 24.07c.54.03.92-.71.61-1.44-.21.24-.68.77-.61 1.44z"/><path class="fil18" d="M39.86 7.03c-.36-.07-.53-.2-.75.09.1.21-.27.09.2.3.02.01.89.21 1.1.06-.02-.51-.07-.36-.55-.45z"/><path d="M10.61 7.14c.02-.31.06-.57.21-.75-.03-.41.1-.2-.07-.34-.41.28-.68.47-.7 1.27.28.04.37-.04.56-.19z" style="fill:#0d0101"/><path class="fil25" d="M18.4 7.35c.41.01.41-.03.56-.46.1-.3.18-.55.23-.84-.49.15-.78.56-.79 1.3z"/><path class="fil1" d="M28.8 12.16c.41-.08.54-.38.73-.83l-.17-.54c-.24.28-.6.66-.56 1.37z"/><path d="M29.75 5.22c.52-.03.6-.07.61-.88-.48.02-.48.21-.61.88z" style="fill:#130102"/><path class="fil26" d="M18.51 17.98c.45.04.28.15.46-.2.07-.15.15-.55.18-.78-.44.1-.49.44-.64.98z"/><path class="fil22" d="m18.05 14.45 1.05-.01c-.17-.65-.87-.56-1.05.01z"/><path class="fil29" d="m28.07 14.45 1.05-.01c-.16-.63-.85-.57-1.05.01zM4.11 14.44h1.05c-.16-.62-.85-.57-1.05 0zM12.64 14.44c-.22-.6-.83-.59-1.05 0h1.05z"/><path d="m39.15 11.48.02.04c.14-.33.01-1.07-.17-1.39l-.21.85c.04.05.2.21.22.22.16.22 0-.05.14.27z" style="fill:#f0ea33"/><path d="M39.3 13.84c.16-.21.28-.39.48-.53.09.52.02.47-.11.96.92-.83-.31-1.68-.37-.43z" style="fill:#292609"/><path d="M40.95 18.1c-.16-.37 0-.27-.36-.29-.06.35.01.45.13.66.23-.21.12.01.23-.37z" style="fill:#ececec"/><path d="M5.23 11.44c.31-.07.28-.1.35-.62-.09.09-.08.01-.23.26-.13.21-.06.06-.12.36z" style="fill:#1c1c1c"/><path d="M25.43 22.96c-.13-.3-.35-.62-.58-.76.15.39.28.57.58.76z" style="fill:#473814"/><path d="M20.44 11.44c.3-.09.27-.1.35-.62-.15.16-.26.2-.35.62z" style="fill:#181717"/><path d="M23.28 19.01c-.18-.71-.1-.55-.37-.73.03.07.12.38.14.41.13.27.04.13.23.32z" style="fill:#dfdfdf"/><path d="M13.78 12.77c.09-.08.08-.06.17-.19.13-.18.1-.16.17-.31-.27.1-.36.11-.35.49z" style="fill:#e7ea5f"/></g></g></svg>