<svg xmlns="http://www.w3.org/2000/svg" xml:space="preserve" width="259.148" height="91.87" style="shape-rendering:geometricPrecision;text-rendering:geometricPrecision;image-rendering:optimizeQuality;fill-rule:evenodd;clip-rule:evenodd" viewBox="0 0 177.64 62.98"><defs><style>.fil1{fill:#90c548}.fil5{fill:#fcfaee}.fil2{fill:#fefefe}</style></defs><g id="Camada_x0020_1"><g id="_2051269646336"><path d="M146.46 62.07c1.56.35 3.08 1.2 4.93.8 1.66-.21 4.27-2.58 5.39-3.57 2.15-1.91 1.52-4.23 1.62-7.32-.37-.36-.28.03-.43-.47-.24-.84.36-1.25 1.14-1.49 3.58-1.08 3.32-3.7 4.51-6.2 1.6-3.34 2.18-2.6 3.76-3.35 1.67-.79 2.59-2.47 2.81-4.26.07-.79.16-1.29.43-1.88.81-.5 1.79-1.58 2.36-2.53.89-1.49.79-1.99.4-3.71l.14-1.07c.14-1.25.4-.39.99-1.85.3-.75.69-.95 1.04-1.72 1.09-2.41 2.22-6.28 2.07-8.97-.12-2.19-1.02-3.57-.89-4.54l-.28-.49c-.79-1.68-2.87-4.4-4.17-5.6-1.42-1.3-2.99-2.29-4.86-3.08l-1.81-.78h-13.14c-.51.34-1.65.7-2.32.93-1.08.37-1.7.22-2.88.22l-43.58.01C87.06 1.1 70.59.96 54.01.95 45.73.94 37.45.91 29.17.8 25.05.74 20.98.69 16.87.79c-2.02.05-4.05.15-6.1.14C8.91.92 6.42.76 4.66.98c-1.67.21-3.31 1.44-3.6 2.75-.17.77-.08 2.1.3 2.67.37.55.4.35.41 1.29.02 2.18 0 19.18-.13 20.23-.1.8-1.79 2.68-.07 4.73 1.77 2.11 4.36 1.58 7.71 1.54 1.1-.01 1.78-.26 2.84-.34l-.2 5.72c-2.11.24-3.37.23-4.55 2.67l-4.78 9.48c-1.43 2.77-4.74 7.45-.51 9.52 1.46.71 4.77.48 6.62.48 1.46 0 9.56.07 10.63-.05 1.11-.13 2.06-.32 3.19-.2 2.11.24 4.8.09 7 .12l21.16.07c2.2.01 4.87.17 7 .04 1.3-.08 1.55-.51 3.1-.17 1.63.35 5.07.17 6.92.19 1.54.02 5.58.37 6.74-.14.54-.24.86-.17 1.26-.58.34-.35.36-.69.74-.94.58.49-.01.42 1.04.87.44.19.81.39 1.29.55 2.64.9 8.4.83 9.75-.16l.07.14c.41.63 2.24.48 2.92.48l7.24.02c.56 0 1.32.08 1.84.03.57-.06.95-.2 1.61-.19.62.01 1.11.14 1.72.19.65.05 1.21 0 1.84 0 1.46.01 2.03-.12 3.33-.26 1.17-.13 2.27.21 3.45.25 1.31.05 2.3-.11 3.45-.11 4.79.03 9.57.1 14.38.1 4.23 0 6.4.28 10.49-.44 3.01-.53 1.86-1.63 3.32-.6.75.53.86.74 2.28 1.12z" style="fill:#030304"/><path class="fil1" d="M152.83 36.84c-1.38-.06-1.77 0-1.72-1.4.81-.65.97-.94 1.69-.83.4.89.25 1.27.03 2.23zm4.1-4.92c.24-.18.35-.72.34-1.13-.01-.48-.04-.21-.11-.35-.06.07-.08.07-.15.22-.11.23-.25.91-.08 1.25zm-3.29 3.97.01-.23c-.1-.14-.05-.01-.13-.24-.13-.35-.14-.6-.03-.89.5-.11 2.89-.07 2.2 2.19-.55.25-1.31.34-2.04.09v-.92zm4.31-5.41c-.55 1.44-.82 2.17.73 2.61.77.22.12.03.58.34.49.34.89.08.99.73-1.09.32-2.13-.22-3.1-.44-.85-.19-2.08-.09-1.27-2.23.78-2.06 1.94-3.09 3.56-4.14 2.13-1.37 3.12-1.68 6.24-1.49 1.01.06 2.01.83 2.46 1.35.52.59 1.09 2.41.06 2.72-.29-.59.1-.66-.46-1.01-.34.54 1.2 2.44-3.97 3.36-.91.16-2.78.18-3.6-.08-2.35-.73-1.29-1.33-2.23-1.72zm-5.75 2.39c-1.19.07-4.28.52-4.58-.66.79-.25 2.19.04 2.89-.22.62-.23.93-1.4.87-2.18-.7-.14-1.25.44-1.63.73-.68.53-1.13.47-2.13.44-2.87-.07-4.26-2.14-5.03-2.47-.82-.35-.9-.57-.9-1.59-.01-1.17-.19-1.38.55-1.94.48-.36.87-.76 1.4-1.13 3.65-2.48 11.66 3.96 8.56 9.02zm-2.86-13.67c2.06.62 3.38 3.16 4 5.1.15.49.26.83-.02 1.14-1.1-2.26-1.4-3.39-3.44-4.82-.86-.6-.96-.74-2.27-.52-1.77-.08-2.69 1.42-3.45 2.22-1.02 1.06-1.97 1.94-2.88 2.99-1.16 1.35.12 3.03.54 4.44 1.24 4.11-3.4 3.14.65 5.66 2.02 1.25 3.14.29 4.11 1.87.29.47.96 1.6.68 2.19-.31-.49.01-.73-.68-1.17-1.19-.76-1.41-2.23-2.05-1.32-.25.35-.03 1.34.04 1.76.51 3.05-.71 5.97.62 6.56l.92.14c.4-.58.04-.23.7-.53.56-2.36-.14-1.89 1.27-3.58.96-1.16 1.49-1.3 3.55-1.24 2.14.06 3.49.18 5.02 2.19.4.53.82.89.76 1.79l-.45.14c.04.38-.16.84-.27 1.24-.12.45-.28.73-.19 1.12.1.48 1.83.47 2.26-.78.49-1.42 1.27-3.43 1.99-4.68.35-.6 1.27-1.71 1.3-2.06-1.84-1.41-3.68 1.42-4.23 1.62.04-.97.51-1.35 1.07-1.88 1.35-1.28 3.19-.5 4.81-.92 4.45-1.15.57-2.66 3.01-5.3.89-.97 2.64-2.24 2.88-2.99.38-1.19-1.27-2.9-1.66-3.88-.31-.78-.03-1.56-.57-2.31-.26-.36-1.14-1.11-1.7-1.3-1.92-.65-3.28.32-4.45 1.06-2.48 1.57-2.57 2.41-3.15 2.75.27-1.46 3.62-4.7 6.22-4.89 1.23-.09 2.36.33 3.42.25.11-1.97.06-2.14.93-3.68.47-.83 1.59-2.21 2.47-2.33-.42 1.17-.71.23-1.55 1.88-.35.68-.93 1.6-1.02 2.43-.16 1.47-.13 5.13.91 5.77 1.2-.27 3.04-4.99 3.59-6.55.53-1.5.64-2.77.6-4.51-.11-4.08-2.45-7.36-5.66-9.57-4.49-3.09-11.13-3.55-16.23-1.47-4.97 2.02-8.27 4.74-9.98 10.26-.62 2.02-.14 7.45-.02 9.71.44-.28 1.45-1.46 1.88-1.99.61-.75 1.04-1.32 1.55-2.37.79-1.61 1.13-2.95.79-5.01-.15-.9-.21-.82-.58-1.43 2.24.51 1.13 6.52 1.13 6.52.81.29 1.78-.27 2.82.26z"/><path class="fil1" d="M11.56 18.49c.39.43 1.08 3.42 1.25 4.09.45 1.8-.24-.13.61 2.04.34.87.58 4.96 1.49 6.11l5.07-.03c.45-.39.62-1.82.77-2.44l3.43-12.45c.33-1.34.81-2.41 1.12-3.59.11-.4.05-1.03.19-1.37.82.61.28 7.82.24 8.61l.04 6.89c.03.83-.25 1.61-.18 2.3 1.57-.65 1.47-1.91 5.19-2.43.68-.09 1.77-.12 2.37-.27.54-1.73.24-16.32.49-18.82.09-.96.51-1.47.47-2.38-.57-.02-1.68.11-2.41.12l-5.17.07c-2.51.03-2.22-1.12-3.38 2.41l-1.67 5.47c-.24 1.07-.15 1.46-.86 2.72-.07.96-.16 1.14-.49 1.9-.3.69-.26 1.25-.47 1.79-.64-.24-.38-1.02-.79-2.48l-1.08-2.8-.66-4.04-1.3-4.96c-.47-.3-7.85-.16-9.37-.02-.78.07-.49-.17-1.07-.15-.14 1.26.67.21.64 2.61l-.16 19.9c0 .49.17 1.19-.08 1.59-.31.51-.64.26-.25 1.05-.32.35-.42.27-.57.86 1.23-.02 4.04.16 5.06-.07-.06-.58-.49-1.29-.67-1.91-.28-.95-.07-6.67-.05-7.85.02-1.19-.32-10.05-.15-10.34.68.78 2.11 6.44 2.4 7.89zm74.46-9.75c0 .89-.22 16.57.05 17.38l4.17.04c3.2-.06 2.19 1.07 3.08 1.28.48-.53.26-1.93.27-2.83l.06-14.95c0-.83.37-4.31.33-4.54-10.05-.05-8.25-.5-8.06 1.54.06.63.11 1.42.1 2.08zm-22.98 7.97c.73.73 1.83 6.83 2.28 8.2l1.68 5.9c.87.05 1.72.04 2.54.09 1.21.08.83.4 1.71-.54 3.68-3.96 5.18-2.52 5.81-3.62.09-.15.38-.69.43-.92.6-2.71 4.95-17.46 5.67-18.87.4-.8 1.19-1.39.7-1.76-.42-.27-4.35-.29-4.93-.06-.15.92-.12.69.17 1.3.22.47-.03.76-.13 1.26-.39 1.97-3.62 12.51-4.55 15.14-.55 1.58-.53.91-.82 1.59-.24.57.05.4-.42.56-.16-1.36-.35-3.07-.98-4.38-.55-.84-1.22-4.44-1.56-5.72-.31-1.16-1.43-2.61-1.4-5.51-.02-.56-.36-1.48-.52-2.12-.34-1.32.32-1.46.19-2.26l-9.24-.07c-.08.87.55.93.96 2.74.44 1.98 2.44 8.24 2.41 9.06zm75.2 14.05-1.71-.1c.12-.21 1.41-1.01 1.71.1zm-9.29-17.54c-.02-3.68-.21-4.12 1.99-4.11 1.83.01 4.31-.3 4.64 1.4.12.63.03 10.9-.06 11.99-.33 4.25.22 4.1-1.82 4.27-.96.08-2.02.12-2.94.01-1.18-.14-1.76-.06-1.84-1.36-.11-1.87.02-4.18.04-6.1.01-2.02 0-4.08-.01-6.1zm-6.94-5.46c-.46 1.8-.2 7.88-.2 10.18 0 3.08-.23 7.14.15 10.05.45 1.29 1.43 2.31 2.87 2.75 1.36.41 3.73.25 5.3.26l8.43.01c1.36-.13.92-.19 2.24-.64-.2-2.57-1.2-.79-1.22-3.45-.01-2.16 1.33-2.41 1.42-3.44l-.05-9.59c-.95.46-.26 7.89-.7 8.47-.31-.79-.23-4.15-.2-5.21.06-1.99.8-4.75 1.72-6.41 1.17-2.09 1.45-1.8.19-3.7-1.46-2.21-3.65-1.95-6.2-1.94-1.84.01-3.68.01-5.52.02-4.81.01-6.08-.67-8.24 2.66zm-75.66 18.4c-2.93.18-2.38-.35-2.24-3.97.07-1.71-.21-11.89.26-12.64.63-1 4.5-.39 5.68-.24 1.15.27.85 3.48.8 4.79-.09 2.56.14 9.09-.24 11-.26 1.27-.21 1.14-1.54 1.17-.72.01-2.21.23-2.72-.12zM36.81 8.74c-.11 2.77-.43 5.3-.19 8.22.11 1.34-.02 2.73-.05 4.08-.04 1.53.16 2.71.14 4.21 2.46-.29 7.81.38 9.09 2.41 1.38 2.19.73 0 .93 2.99 1.06.36 2.89.1 4.19.15 2.52.09 4.9.22 6.3-2.42.35-.65.95-2.61.87-3.46.19-1.13.03-10.46-.01-12.28-.03-1.35-.28-2.63-.28-4.08-.5-1.79-1.57-3.29-3.47-3.58-1.55-.24-12.73-.3-14.12-.06-1.56.27-3.23 2.2-3.39 3.81zm68.44.92c.15-.26-.27-.22 1.09-.34 1.06-.1 3.29-.11 4.16.21.41 1.64.19 11.79.15 14.75-.04 2.84-.01 2.29-2.58 2.4-3.4.15-2.86.38-2.86-2.06l.04-14.95zm-8.38 21.03c.21.38.32.26.84.24 4.19-.13 13.02.45 16.14 0 2.41-.34 3.26-1.35 4.15-3.29.15-.33.35-.5.43-.71.31-.77.16-10.51.24-12.79.04-1.2.16-3.03.02-4.23-.22-1.84-1.75-4.89-3.87-4.71-1.07.09-3.01-.03-4.22-.03-2.51 0-11.76.12-12.97-.17-.25.53.02 2.08.02 2.91-.01 6.9.19 16.05-.09 22.43-.28.09.09 0-.41-.11l-.27.45zM117.52 57.72c.02.34-.13.17.2.27 4.39 0 8.97-.06 13.34.05 1.1.03 2.17-.07 3.34-.06l5.05-.15c.06-.01 2.61-.86 3.06-1.2.3-.24.24-.24.59-.41.17-.43.54-1.15.8-1.78.76-1.88 1.07-2.82 1.59-4.74.14-.54.37-.74.34-.95-.09-.65-2.75-3.85-3.05-5.46-.21-1.12.3-1.51.16-2.48-.9-.06-1.69.07-2.54.05-1.03-.03-1.57-.33-2.04.46-.56.95-.59 3.45-.09 4.38.96 1.78 3.44 5.4 2.26 7.1-.22.57-.48.59-1.03.91-.46.27-.83.44-1.42.52-1.21.16-2.58-.16-3.9-.1-1.09 1.11-.38 2.07-.92 2.46-.35-.11-.16.06-.29-.32l-.14-3.27c-.1-1.76.05-11.76-.14-11.96-.46-.21-4.23-.29-4.95-.22-.09.44.13 8.27.34 9.98.07.58.38 2.76.31 3.09-.64.15-.22-.04-.55-.03-.34.02-.1 0-.38.11-.95.36-2.21-.1-3.2.18.02-.63 1.26-2.53 1.64-3.21.31-.56.53-1.03.87-1.55.57-.87.65-.25.75-1.7-.68-.17-1.05-.15-1.85-.15-.72 0-1.21-.27-1.95-.19-.27.13-6 10-6.18 10.36zM19.22 58.01c.4-.72.5-4.81.56-6.03.16-3.45.59-5.51.65-9.2.03-1.74.79-7.62.78-8.83-.71-.13-1.76-.15-2.51-.15-.87 0-2.06-.15-2.38.31-.28.39-.37 11.65-.56 13.56-.15 1.48-.03 3.16-.17 4.51l-3.98-.1c.01-.55 1.74-3.67 2.08-4.41.37-.82.57-1.48 1.01-2.22.36-.59.88-1.53.81-2.43-.45-.06-2.94-.07-3.33.01-.72.15-1.08 1.1-1.44 1.79-.76 1.45-1.47 2.89-2.2 4.36-.72 1.46-1.41 2.94-2.15 4.41-.39.79-2.11 3.68-2.06 4.37 2.58.05 5.02.05 7.6-.02 2-.05 5.58.38 7.3.09zM62.78 54.7l-.7 2.56v.42l4.25.15c.25-.23 1.83-6.05 1.95-6.51.3-1.1.58-2.23.95-3.31.27-.79.79-2.74 1.16-2.92.06-.56.05-1.24-.04-1.71-.29-.07-.2 0-.37-.15l-.1.6-1.1-.96c-.17-.03-.16-.01-.3-.11-.21-.14-.13-.09-.26-.28-.07-.05-.04.02-.15-.14l-.17-.5c-.05-.35-.02-.6.04-.93-.37-.15-.73-.15-1.21-.17-1.4-.03-7.6-.23-8.49.04-.2.15-3.08 11.03-3.7 12.89-.23.7-.46 1.37-.67 2.08l-.39 2.03c0-.02.01.06.03.09.83.38 3.04.36 4.06.2.4-.21.99-2.63 1.17-3.3.33-1.24.7-2.21 1-3.37.47-1.78 1.2-5.64 2.19-6.64 1.07-.09 2.7-.01 3.3.54.3.59-2.33 8.53-2.47 9.39zM103.37 58.06c.97.11 2.18.02 3.19.04 1.55.03 1.29-.15 1.72-1.53.26-.84.52-1.57.74-2.47l2.08-7.47c.34-1.2.2-1.63 1.55-1.65.51-.01 2.5.18 2.66.22.18.46-.1 1.79-.24 2.09-.18.4-.05.08-.18.09l-3.11 10.77c1.38.04 2.84-.22 3.63-.23.45-.01.76.06 1.22-.01l3.04-10.63c.31-1.09.38-1.83.47-3.01.12-1.58.03-1.77-.83-2.52-1.32-1.16-3.9-.82-5.97-.8-.58.01-1.15.03-1.73.03-.82.01-.71.01-1.02.65-.92 1.83-3.21 1.78-3.56 3.23-.56 2.31-3.64 12.63-3.65 13.2zM91.61 44.92c.42-.25.1.16.29-.49l.85-3.5c-1.62-.09-5.77-.14-7.13.21-3.42.89-6.53 3.7-7.9 6.84-2.69 6.19.22 12.25 9.01 9.93 1.63-.43 1.3-.27 1.8-1.89.27-.89.63-1.93.83-2.84.12-.53.13-1.06.29-1.56.14-.44.37-.85.54-1.3.36-.93.67-1.87.62-2.98-.99.13-1.27-.15-2.28.06-.76.16-1.61-.03-2.39.15-.4.43-1.64 3.46-1.3 4.05.3.3 3.11-.01 3.88.1l.2.05c.02.01.08.06.09.04.02-.03.06.02.09.04.7.78-2.21 2.99-4.72 2.53-4.43-.81-3.08-6.7.58-8.78 1.66-.94 4.5-.68 6.62-.67zM46.41 51.69c.13-.17.01-.07.19-.2.78-.54 4.63.03 6.28-.09.59-.89 1.25-2.89 1.2-4.2l-5.36.04c-1.25.03-4.63-.43-5.53.01-.43.25-.78 2.07-.93 2.66-.22.92-.39 1.83-.72 2.72-.26.69-1.58 4.84-1.5 5.3l11.09-.02c.31-.4 1.18-3.51 1.06-3.87-1.05-.58-5.03-.09-6.45-.09.18-.82.17-1.84.67-2.25zM104.04 48.33l-.01-.63c-.87-.05-1.75-.03-2.65-.09-.43-.03-.83-.05-1.26-.07-.39-.02-.95.01-1.29-.19-1.22.29-4.23-.1-5.75.03-.26.55-3.09 10.31-3.09 10.68 2.75.2 5.41.08 8.17.09 1.97.01 2.98.45 3.29-.8.16-.64.76-2.73.68-3.24l-6.26-.06c.08-2.3-.22-2.83 5.8-2.24 1.3.13 1.34-.08 1.64-1.23.21-.79.58-1.55.72-2.25zM28.19 53.76c-.18-.66 1.98-7.13 2.31-8.38.2-.75.35-1.47.57-2.18.51-1.62 1.34-2.41.06-2.57a7.72 7.72 0 0 0-1.27-.06c-.92.03-1.81-.04-2.7 0-.27.67-.33 1.43-.56 2.18l-1.9 6.4c-.42 1.44-.77 2.9-1.19 4.33-.32 1.09-1.19 3.19-1.18 4.33 1.67.04 9.44.22 10.26.02.16-.61.95-3.59.9-3.99-1.77.02-3.56.12-5.32-.08z"/><path class="fil2" d="M22.72 40.48c.09-.18-.2-.11.16-.21.46-.13.25.05.32.1-.13.15.14.08-.18.17-.36.1-.22-.01-.3-.05zm15.5-6.74c-.4.37-1.18.26-1.69.43-.72.25-.68.4-1.71.49-.91.08-3.21.39-4.03.07-.15-.98 1.24-1.31 2.46-2.48.72-.69 1.96-1.79 2.94-2.22.06-.1.96-1 1.12-1.08.8-.41 5.56 0 6.18.9.53.76-.22 1.04-.58 1.37-.46.43-.67.75-1.29 1.13-.65.4-2.77 1.37-3.4 1.39zm-9.98-3.67.33-.32c.35-.22 1.04-.33 1.44-.37 1.16-.19 3.42-.15 4.45-.55l.23-.31c.43 0 1.19-.16 1.12 1.01l-.6.25c-.54-.04-1.68 1.13-2.14 1.49-.69.54-1.68.95-2.25 1.44l-.02.66c-1.38.66-3.98.17-4.55 1.34-.13.27-.11.4-.25.66-.27.5-.35.1-.3.81l.25.24c-.79.74-1.43 1.3-2.14 1.93-.56.5-1.62 1.31-1.57 2.47 2.83.01 4.15-3.85 5.78-4.09 1.48-.22 3.44.2 4.89-.1 4-.84 7.53-1.08 10.78-4.16 2.5-2.37 1.55-5.88-1.75-5.53-.75.01-1.71-.1-2.55-.1-.84.01-1.69.01-2.53.02-1.41.01-3.69.18-4.96.08-.65-.03-2.89.25-3.26.58-.38.34.07.3-.67.72-1.77 1.02-1.53.53-2.31 1.73-.22.34-.46.37-.49.81 1.13.21 2.18-.65 3.05-.71zM89.23 37.72c.08-1.48 2.43-2.64 3.68-3.2.58-.26 1.36-.51 1.86-.14-.14.46.05.13-.31.43-.91.76-1.25 1.62-1.76 2.38-.67 1-2.37 1.24-3.48.52zm7.79-4.49c-1.08-.29-.75-.48-2.02-.18-.68.16-1.58.21-2.25.1-1.62.01-7.46 3.74-4.38 5.73.95.62 2.2.27 3.25 0 1.47-.38.81-.75 3.1-.93 3.89-.31 4.57-3.25 8.33-3.53-.25.55-.28.14-.48.67-.18.48.09.27-.31.61-.56.48-2.73 1.76-2.52 3.2 1.48.42 2.7.3 3.92-.31.64-.32 1-.5 1.57-.72.31-.11.53-.12.72-.45.25-.43-.03-.42.39-.6.26.63-.17 1.49.7 2.15.77.58 1.72.37 1.91.92-.71.41-1.71-.24-1.88.57.42.41 1.92-.15 2.33-.38 1.99-1.08 1.62-.96 3.94-1.93.73-.31 1.62-.35 1.94-.9l.04-.42-.39.07c-1.49.47-5.37 2.02-6.64.68-.08-.85.15-1.06.7-1.38 3.74-2.13 3.93-.86 4.36-.86.72-.27 2.54-1.52 2.92-2.03l-.28-1.15c-1.5-.23-5.91 1.74-6.99 2.44-1.01.65-3.33 2.45-4.49 2.67-.51.1-1.47.43-1.8.4-.14-1.72.76-1.78 1.83-2.47.68-.44 2.16-1.16 2.36-1.87-.77-.87-3.08-.15-4.08-.41-.49-.13-.3-.19-.32-.28l-.06-.49c-1.26.02-1.38.32-2.15.87-.71.5-1.12.68-1.5 1.48-.57 1.21.01 1.1-1.14 1.86-.58.39-1.02 1.2-1.99.83-.31-.28.07-.8.29-1.03.65-.7 1.4-1.83 1.09-2.94zM79.16 27.86c-1.72.05-3.36.5-4.74 1.19-.96.48-2.79 1.99-2.75 3.21l4.02-.56c.7-.14.79-.31.92-.53-.16-.1-.05-.07-.31-.12-.34-.06.12-.03-.21-.01-.12.01-.27.07-.38.1-.23.07-.53.18-.77.03.36-.24.89-.44 1.3-.63.91-.41.64-.27 1.67-.28.86-.01 2.25-.32 3.35-.37.04-.02.08-.04.11-.05.03-.01.07-.03.11-.05l.44-.16c.63-.29 1.19-.28 2.06-.31 1.13.05 3.51-.34 4.61 0 .24 1.26-1.4 2.07-2.18 2.64-.87.64-1.77 1.46-2.7 2.05l-.87.83c-.47.31-.73.2-1.34.11-.97-.16-1.99-.04-2.96-.07-.63-.03-3.32.21-3.72.49-.01 1.2 1.68 1.01 3.09.9.6-.05.84-.08 1.11.14l.25.05c-.07.16.15.15-.11.13-.02.03-.06.05-.08.07l-.28.37c-.08.2.2.31-.36.43-.37.16-.73.43-1.31.64-.33.12-.47.16-.74.29-.35.17-.36.25-.69.31-.15.22-.11.26-.47.39-.17.06-.5.09-.7.12-.51.09-.82.22-1.28.29-.32.19-1.49.48-1.99.79-.38.23-.43.39-.81.55-.31.13-.75.31-.94.39l-.12.44c.01.01.17.14.17.15.21.2.06.05.2.2.41.01.42.15.99.15.18-.12 2.27-.88 2.55-.88.35-.61.54-.67 1.32-.99 1.08-.02 4.87-2.11 5.84-2.76.99-.67 1.38-1.38 3.07-1.3.73.03 1.29-.03 1.91-.27.64-.25.86-.44.98-1.16l.06-.72c-1.08.37.08.65-.68 1.24-.39.15-.29-.48-.24-.89l.16-.26c.17-.39.01-.45.04-.98l.99-.12c.98-.19 3.51-3.14 4.56-4.02.27-.22.55-.29.61-.77.01-.08-.02-.56-.04-.64-.12-.59 0-.28-.2-.39-.83-.13-5.67-.09-6.51.04-1.15.17-1.96.15-3.13.22-.93.05-1.89.27-2.91.35z"/><path d="m124.38 34.56-.17.21c-.02.02-.04.05-.06.07-.02.02-.04.05-.05.07l-.31.32c-.81.83-4.16 2.01-4.45 2.17-.68.38-.7.64-1.71.41-.48-2.2 5.82-3.77 6.91-3.87l.58.11c-.14.36.17.11-.34.4-.4.23-.16.08-.4.12zm-8.5 1.82c-.38.46-.18.92-.12 1.51.13.58.73 1.17 1.25 1.38.74.31 2.82-1.01 3.68-1.44.7-.35 1-1.06 1.64-.79 0 .69-.43.7-.51 1.38-.06.52.11.4-.1.8-.15.28-.14-.11-.29.44 1.25.53 4.24-1.13 5.55-1.74.27-.13.74-.23.93-.33.51-.27.07-.36.67-.71-.22.94-.35.77.3 1.43.26.26.61.65 1.02.73.58.2 4.15.37 4.31-1.35l-2.17-.42c-.63-.13-1.25-.4-1.24-1.14 0 0 3.49-2.72 4.24-1.9.33.34-.05.32-.17.77-.11.39.06.61-.15.96l-.79.49c-.07.05-.28.22-.32.25-.29.3-.12.05-.28.4 1.86 0 1.5.04 2.11-.52.87-.79 3.3-1.52 2.31-4.96-1.52-.14-2.32 1-3.36 1.61-1.17.69-2.1 1.17-3.15 1.79-.46.27-1.12.65-1.62.9-.75.38-.98.28-1.66.76-.79.57-1.06.35-1.87.67-.81.32-.81.73-1.8.14.16-1.68 1.89-1.9 2.62-2.89.41-.55.24-.89.26-1.59.57-.2.83 0 .87-.89-3.26-.3-4.02.35-6.77 1.35-1.54.56-4.39 1.56-5.4 2.91z" style="fill:#fdfdfd"/><path class="fil2" d="M54.6 32.83c-.17.39-.23.4-.53.69-1.23 1.21-.79 1.75-1.19 2.27-.14.18-.48.33-.67.47-.38.28-.78 1.04-2.42.98.07-.57.93-1.47 1.27-1.9.59-.74.93-1.13.85-2.41-.23-.34-.47-.62-.92-.67-.57.07-1.15-.45-1.41.57 0 .02-.15 1.91-.33 1.56-.01-.02-.05.05-.08.06l-.11.08c-.79.65-1 1.46-1.54 1.82-.06.29-.02.21-.27.47-.33.36-.91.82-1.4.99-1.14.39-1.95.14-1.83-1.12.36-.41 1.51-1.47 2.08-1.55.52-.62 1.61-.62 2.39-1l.6-.33c-.29-.3-.66-.54-1.17-.63-.65-.11-1.15.15-1.69.12-1.36.21-3.9 2.51-4.23 3.46-.33.96.86 2.01 1.54 2.25.89.32 2.52.01 3.22-.37 1.24-.67 1.61-.64 3.11-.77 2.76-.24 5.64-3.97 7.9-3.42-.24.45-.18-.23-.48.44-.18.4.1.27-.3.65-.26.25-.79.39-1.14.69-.61.52-1.31 1.22-1.32 2.3.88.94 3.12.49 4.02-.05.61-.37 1.11-.56 1.62-.91.52-.35.95-.82 1.44-1.03-.13-.21.24-.36-.56-.21-.3.06-1.61 1.25-3.25 1.08-.29-.42-.43-.6-.45-.95.22-.16.17-.11.41-.23.29-.52 3.15-2.16 3.95-2.59l-.04-.49c-3.47-1.51-1.68.23-4.6-.46-.21-.55-.04-.83-.9-.69-.6.17-1.12.7-1.58.83z"/><path class="fil1" d="M146.93 58.29c-.32-.75.1-3.96.21-4.83.14-1.12.69-3.7.36-4.56-.62.15-1.05 1.82-1.41 2.81-.34.94-1.05 2.15-1.25 2.99-.34 1.42 1.5 3.66 2.34 3.98 1.01.38.25.46 1.05 1 .56.38.88.43 1.54.08.42-.23.96-.52 1.29-.79.43-.36.85-.56 1.31-.88.39-.27.81-.64 1.14-.93 1.13-.97 1.21-1.14 1.15-3.11-.03-.97.02-3.3-.14-4.1-.98-.31-2.76-.04-3.48.37-1.76 1-2.32 3.41-2.75 5.28-.11.47-.47 2-.71 2.43-.18.33-.16.35-.63.27zM33.29 57.97c.58.01 4.33-.01 4.57-.16.29-.19.97-2.93 1.13-3.48.31-1.07 1.96-6.5 1.98-7.11-.73-.06-4.08-.2-4.52.09-.46.38-.65 1.95-.84 2.63-.88 3.18-1.08 4.97-2.32 8.03zM149.66 41.47c-1.02.67-1.95-.11-2.12 1.59-.04.38-.13 1.28-.23 1.59-.19.58-.59.62-.49 1.41.12.49.18 1.19.48 1.53 1.01.62 6.17.47 7.68.32.93-.47.67-3.32 2.06-4.15.15-.18.17-.19.26-.41-.74-.83-1.67-1.09-2.72-1.49a2.98 2.98 0 0 0-.59-.01c-.39-.17-.8-.31-1.15-.38-.5-.1-.87-.06-1.3.01.16-.11.29-.25.33-.44-1.09.05-1.32.23-2.22.43zm4.09 1.26c.16.19.35.37.47.45.48.36.31.03.47.57-1.21.01-1.72-.05-2.81-.26-1.89-.37-1.11-.08-1.73-.73l-.06-.06c-.22-.23-.25-.39-.17-.51.04.01.08.02.13.03.47.07 1.5-.02 2.44.14.46.08.89.22 1.26.36zm-4.08 5.68c.54.33 1.97.28 2.66.34.73.06 2.03.41 2.26-.3l-4.45-.22c-.75.06-.27 0-.47.17zM72.85 58.04c.73-1.15 1.87-6.41 2.4-7.94.29-.84.73-1.71.57-2.71l-4.12.1c-.77 1-2.1 6.21-2.57 7.77-.24.79-.64 1.86-.78 2.63 2.38-.01 2.18-.07 4.5.16zM54.88 44.68c.28-.46.44-1.42.7-2.05.39-.95.81-1.54.09-1.78-.74-.25-4.16-.13-5.24-.14-.86-.01-4.8-.14-5.3.09-.46.21-1.37 3.24-1.32 3.88 1.48.11 9.78.17 11.07 0zM108.2 42.28c-1 .26-1.37-.07-1.05-1.01-.78.65-.64 1.42-1.31 1.61l-.2-.79c-.98.01-.45.57-.5 1.14-.04.47-.41.88-.65 1.09-.62-.01-.82-.21-1.05-.61-.06-1.84 1.72-1.27 1.77-2.42-.63-.66-3.93-.38-5.08-.39-1.63-.01-3.72-.14-5.3.04l-1.05 4.04c1.75.07 3.66-.02 5.42-.03 1.38-.01 4.18.27 5.28.11.62-.85-.41-.41 1.77-1.42 2.06-.95 1.5-.38 1.94-1.36zM41.59 44.73c.26-.35 1.18-3.47 1.14-3.9-.77-.22-3.45-.22-4.37-.1-.37.74-.69 2.36-.73 3.4-.28.19-.54.24-.58.68.42-.02.53-.14 1.09-.12l3.45.04zM72.36 44.89c.88.05 4.12.31 4.49-.2.3-.41 1.21-3.23.85-3.64-.66-.75-3.12.69-3.68.92-.98.4-.98.17-1.29 1.14-.14.44-.58 1.19-.36 1.77zM162.57 27.38c-.15.47.32.56-.56.81-.52.14-.9.08-1.18.48 1.25.26 3.63.39 3.63.38 1.36.29 1.31 1.02 1.32 2.36.62-.18.79-.58 1.06-1.15.19-.39.53-1.29.66-1.62-.81-1.07-3.1-2-4.92-1.25zM142.59 28.16c1.06.68 1.01-.64 2.66-1.1 1.28-.35 2.81.02 4.12.03-.14-.33-.12-.4-.73-.75-.33-.18-.74-.29-.99-.49-.26-.2-.07-.14-.36-.33-.12-.08-.41-.18-.58-.23-1.09-.32-2.76-.44-3.44.61-.36.55-.82 1.49-.68 2.27z"/><path d="m136 37.15-.46.08v-.2c-.55.35-.79.6-1.69.44-.34-.06-.59-.17-.86-.2-.3-.03-.63.01-.97-.02l2.17.42c-.16 1.72-3.73 1.55-4.31 1.35.22.25.09.3 1.05.37 1.99.14 1.74.06 3.7-.37.75-.17 1.18-.55 1.88-.88l1.74-.84c.01-.04.05-.04.07-.06l-.22-.09c.34-.06-.01.01.14-.23-.51.06-.78.08-1.21.24-.07.03-.46.18-.51.18-.69.08-.41.11-.53-.19z" style="fill:#918d8a"/><path class="fil5" d="M46.23 33.3c.54.03 1.04-.22 1.69-.12.51.08.87.33 1.17.63l-.6.33.57-.06c.15.18.07.02.1.37.03-.01.07-.08.08-.06.18.35.32-1.54.33-1.56.26-1.02.84-.49 1.41-.57-.2-.19-.13-.16-.53-.23-1.08-.18-3.61.58-4.22 1.27z"/><path class="fil2" d="M107.15 41.27c-.32.94.05 1.27 1.05 1.01.62-.18 1.34-.44 1.37-1.1-.63-.52-1.89-.53-2.42.09z"/><path d="M92.75 33.16c.66.1 1.57.06 2.25-.1 1.27-.3.94-.11 2.02.18l-.15-.68c-.6-.36-1.41-.31-2.17-.17-.47.09-1.33.3-1.75.6-.15.1-.11.08-.2.17z" style="fill:#f1ebe3"/><path d="m92.63 29.9.11.12.06.06c.02.02.05.04.06.06l.28.27c-.71.04-1.32-.23-1.41.42.51.14 1.54.24 2.03-.01.18-.15.1-1.6-.43-1.97-.38.19-.51.64-.7 1.06z" style="fill:#8dc147"/><path d="M98.84 47.35c.34.2.89.17 1.29.19.43.02.83.03 1.26.07.9.07 1.78.04 2.65.09l.01.63c.28-.33.2-.53.05-1.03l-5.25.05z" style="fill:#2d4439"/><path d="M147.5 57.02c.33-.43.82-2.97.46-3.49-.11.15-.49 1.42-.52 1.67-.04.35-.08.59-.11.92-.02.16-.04.43-.01.58.1.53.07.2.18.32z" style="fill:#89bb45"/><path class="fil5" d="M148.46 28.09c-.11.6.33.88.88.86.83-.03.46-.68.27-1.04-.47-.05-.78-.08-1.14.18z"/><path d="M135.54 37.04v.2l.46-.08c.27.02.68-.18.98-.3.4-.16.54-.2.75-.63-.65.08-1.9.37-2.19.83z" style="fill:#e1dedb"/><path d="M146.04 50.99c.18-.67.28-1.26 0-1.9-.11.13-.13.03-.19.47-.01.09-.01.35-.01.47 0 .06-.03.56-.03.58.06.37.02.18.23.38z" style="fill:#87b944"/><path d="M138.25 36.92c-.15.24.2.17-.14.23l.22.09c.38-.39.55-.95-.32-1.06.06.5.04.32.24.74z" style="fill:#e8e5dc"/><path d="M23.19 40.37c-.07-.05.15-.23-.32-.1-.36.1-.07.03-.16.21.08.04-.06.15.3.05.32-.09.05-.01.18-.17z" style="fill:#2a2a2c"/><path class="fil5" d="M163.32 29.86c-.11.6.33.88.88.86.83-.03.46-.68.27-1.04-.47-.05-.78-.08-1.14.18z"/></g></g></svg>