<svg xmlns="http://www.w3.org/2000/svg" xml:space="preserve" width="193.115" height="97.166" style="shape-rendering:geometricPrecision;text-rendering:geometricPrecision;image-rendering:optimizeQuality;fill-rule:evenodd;clip-rule:evenodd" viewBox="0 0 99.28 49.95"><defs><style>.fil2{fill:#1ac5fc}.fil9{fill:#1d1d1d}.fil12{fill:#223a1e}.fil4{fill:#66d553}.fil5{fill:#fcfcfc}.fil1{fill:#fd149f}</style></defs><g id="Camada_x0020_1"><g id="_2015446211728"><path d="M99.28 16.78V9.82c-1.44-1.01-2.97-1.51-5.25-1.61-1.76-.08-4.86-.05-6.58.17-.4.48-.35.55-.6 1.25-2.39-.59-2.67-1.83-6.51-1.24-1.6.25-3.08.83-4.2 1.85-.45.41-.34.56-.83 1-.75-.19-.89-1.19-1.99-1.6-.87-.33-1.85-.62-2.87-.73-2.39-.25-4.81.22-7.1.06.13-.74.77-1.13.49-1.93-.24-.7-.9-.74-1.6-.9.03-.81.52-1.01.09-1.91-.33-.7-.69-.61-1.15-1.14.95-1.05 1.16-2.25-.28-2.97-1.06-.53-6.48.7-7.92.97-2.23.41-10.5 1.15-11.49 2.12-1.12 1.1.57 2 1.77 2 1.3 0 2.91-.5 4.08-.41-.19 4.48.24 4.17-1.02 4.58-.24.08-.65.3-.72.32-.25.07-1.22-.28-1.79-.3-1.48-.05-2.87.11-4.32.12-.09-1.55.55-1.92-1.44-2.46-.79-.21-.72-.57-1.4-.75-1.18-.31-2.76.52-3.4.05-.54-.4-.25-.68-1.14-.89-1.42-.34-2.03.57-2.44 1.51-1.22.01-1.5-1.3-3.43-.67l-.49 1.58c-.68-.22-.65-.7-1.62-.79-.96-.09-1.3.26-2.02.3-1.23.07-1.63-1.35-3.42-.2-.85.54-.42.51-1.51.15-2.02-.66-4.22-.16-6.25-.1.89-1.67 7.48-2.32 7.89-3.56.21-.62-.01-1.46-.34-1.82-1.32-1.43-4.33.37-5.91.94-1.5.54-.76.27-2.33 1.05-4.2 2.09-4.1 5.18-1.03 5.82-.84.45-3.04.41-4.36 1.17-1.24.72-2.14 1.36-2.79 2.74-.92 1.93-.74 4.27.71 5.87l1.29 1.41c.27.28.13.02.27.39-1.07.42-2.81-.28-3.64.52-.6.58-.63 2.49-.68 3.52-.17 3.24.81 3.9 3.11 5.09.09 2.7-.53 5.54-.9 8.14-.31 2.2-1.08 5.93-.83 8.09 1.72 1.05 4.94.06 5.76.14.72.07.67.27 1.91.23.63-.02 1.45-.01 2.03-.11 1.03-.19.55-.2 1.73-.11 1.25.1 2.89 0 4.18-.01 1.63-.01 7.37.33 8.13-.52.34-.38.78-2.96.57-3.64-.31-1.05-2.19-.72-3.27-.9-.37-3.95 3.22-.69 3.76-2.99 1.16-4.93-.39-3.67-2.34-3.89l-.58-.21c.2-.39.13-.33.71-.35.28-.01.66.01.95.02 2.96.03 1.84-1.03 2.52-4.2l2.57-.31c.23-.38.27-.62.36-1.15.03-.15.07-.43.11-.58l.22-.45c.82.75.03 2.64-.19 4.27-.22 1.6-.43 3.06-.66 4.6-.14 1-1.2 8.95-1.03 9.32.7 1.5 4.8.3 6.1.47 1.2.16 2.77.2 3.95-.02.7-.13.33-.21 1.14-.08 1.91.31 4.85.05 6.84-.01 1.23-.04 1.38.11 2.02-.66.52.16.1.07.57.28 1.36.62 2.96.2 4.41.17 1.34-.02 4.38.5 4.9-.77.69.29.01-.02.49.33.72.52 3.54.44 4.29.3.72-.13.39-.37 1.01-.23.52.11.25.21 1.01.23.8.02 1.74-.21 2.49.05.11.91-.07 3.39.37 3.95.76.59 1.97-.68 2.29-1.17.3-.46.42-.62.84-1.04 1.07-1.08 1.03-1.74 1.86-1.87 2.43-.36 2.38.46 3.09.57.64.1.61-.32 1.18-.52.33.43.24 1.22 1.08 1.16 1.38-.43.72-1.76 3.2-1.36 1.12.18.99-.05 1.94-.14.63-.06 1.47 0 2.14-.01.86-.02 1.3-.03 2.11-.21.67-.15 1.33.01 2.06.03 1.56.03 3.42.34 3.81-.63 1.05-2.61 1.59-12.43 2.18-15.88 1.21-.83 1.36 0 1.68-2.21.32-2.25 1.05-4.66.85-6.99-.06-.65-.37-1.09-.21-1.52.07-.19.57-1.03.72-1.22z" style="fill:#0f0f10"/><path class="fil1" d="M49.04 40.01c.17-1.28.8-4.01 1.2-5.02.13.17.18-.07.18.56l-.05 3.51c-.01 1.2-.06.99-1.33.95zm-4.83 4.93c-.31-.95 1.85-12.77 1.82-14.97-1.97-.02-3.4.23-5.24.24-.11.41-2.47 6.67-2.77 6.99-.46-.86-.42-5.6-1-6.99-1.19-.05-.46.69-2.28.12-.73-.23-2.24-.27-2.83.09-.32.65-.79 6.38-.97 7.61-.18 1.2-1.11 6.86-.94 7.6l3.44-.15c.54-1.37 1.06-9.05 1.35-9.47.51 1.31.29 8.59.82 9.33.32.32 2.61.07 2.61.07.59-.29 2.7-8.4 3.27-9.07.01 2.02-1.07 7.91-.9 9.04l7.05-.21c.13-.36.22-.73.34-1.15.18-.66.28-1.46 2.22-1l.04 2.08c.69.05 3.31.36 3.49-.33l.06-.76c-.07-3.03 0-12.93-.21-14.05l-.48-.15c-.21-.02-.18-.02-.39.02-1.03.17-.27.62-1.85.26-.7-.16-.48.25-1.25.21-.7-.04-.41-.36-1.22-.41-.27.46-1.76 6.34-2.14 7.55l-.98 3.86c-.17.63-.37 1.26-.54 1.89-.28 1.05-.21 1.47-.51 1.74zM60.64 36.57c-.41-.68-.33-1.9-.78-2.55-.63-.3-1.52.02-1.69-.83-.11-.56.35-1.54.49-2.15l-2.74.06c-.31.6-1.79 12.53-1.82 13.93l3.44-.05c.47-1.5.33-4.96.94-5.97.76.56.65 4.02 1.68 5.89.59.12 2.38.04 2.86-.1.86-2.36 1.1-9.45 1.74-12.35l2.13.09c.14.85-.54 4.7-.69 5.85-.21 1.63-.67 4.82-.66 6.36h2.52c.08-1.91-.36-7.9.04-9.16.97-.63 1.2-.07 2.09-.05l.46-2.97c.74-.36 1.37-.02 1.76-.3.58-.46.3-1.46.47-2.23.13.16.06-.08.13.28.12.58-.29 2.49-.39 3.21-.17 1.21-.2 2.51-.39 3.77-.16 1.09-1.1 6.71-.84 7.27.14.09-.04.24.45.05.4-.15 3.38-4 3.54-4.43.38-1.03.25-2.26.49-2.48.49-.27.94 0 1.54-.16.49-.14.61-.45.93-.85.31-.38 1.34-1.52 1.31-1.99-.94-.35-2.42.22-3.47-.14-.02-.68.08-1.72.36-2.2.91-.24 2.67.19 3.47-.31.02-.03.05-.12.05-.1l.21-1.14c.04-.51.1-1.01.12-1.52-4.66 0-12.03-.25-16.4.61l-2.04.36c-.39.08-.44.03-.59.36-.01.02-.4 2.77-.41 2.92-.04.84-.02 2.39-.33 3.04zM16.46 45.79c.33-2.53.73-5.02 1.08-7.55l.87-7.59c-.73-.2-2.93-.04-3.82-.03-1.98.03-1.28.43-1.9 1.82-.38.85-.81 1.84-1.15 2.75-.32.86-.46 2.11-1.1 2.59-.28-.54-.84-6.03-.84-7-.87-.02-4.88-.28-5.17.38L2.47 46.07c.76.03 2.88-.03 3.48-.19.62-1.22.43-6.83 1.36-8.76L8 45.94c2.88.2 3.07.12 3.33-1.25.11-.57.21-.74.38-1.24.44-1.3 2.1-6.48 2.43-6.9.1.7-1.19 7.07-1.19 9.3l3.5-.06z"/><path class="fil2" d="M92.14 12.9c.66-.05 1.6-.11 2.09.1 0 0 1.04 3.33-2.49 2.85l.4-2.96zm-6.65 14.77h4.43l1.24-8.45c.9-.03 1.05.04 1.76.34.22 1.18-.7 5.98-.86 8.12l4.48-.09c.26-.62 1.04-6.67 1.04-7.52 0-1.6-.35-1.33-.79-2.15.97-.85 1.87-1.39 2.08-3.1.55-4.46-.1-5.35-4.96-5.5-1.41-.04-3.86 0-5.27.11-.81.07-.56.26-.83 1.84-.14.8-.26 1.53-.38 2.32-.12.8-.11 1.6-.25 2.43-.13.72-.26 1.57-.38 2.32-.21 1.3-1.39 8.19-1.3 9.34zM34.26 12.38c-.14 1.11-.38 2.24-.56 3.36l-.38 2.58c-.02.14-.04.33-.08.45-.11.29-.06.19-.23.36-.16-.34-1.01-5.65-1.45-6.86-1.25-.06-.98.25-1.75-.72-1.23.6-.6.41-2.11.35-.4.94-.63 3.01-.85 4.13-.3 1.51-.64 2.77-.87 4.27-.28 1.83-1.36 7.58-1.42 8.81.84.15 3.96.14 4.6-.13.4-.71.4-2.77.55-3.8.1-.66.19-1.14.3-1.85l.29-1.54c.12-.26.06-.14.18-.26.48 1.04.65 2.64.94 3.78.19.73.77 3.1 1.08 3.67.56.08 1.26.1 1.79-.1.07-.66.1-1.72.38-2.19.55-.94 1.29-.32 1.97-.73.13-.21 2.4-14.9 2.31-15.42-1.16-.17-.83.05-2.13 1.32-1.4 1.38-1.54.69-2.55.53zM82.34 13.87c.09.54-1.14 8.1-1.46 9.46-.16.68-.11.96-.72 1.16-.38.13-1.02.17-1.33-.12-.66-.62.71-8.19.94-9.43.27-1.45.75-2.53 2.46-1.9l.12.84zM80.3 9.51c-1.3.16-2.03.36-2.84 1.12-.65.62-1.33 1.2-1.67 2.23-.67 2.04-.94 4.44-1.3 6.65-.64 3.99-1.38 7.47 2.36 8.41 1.16.29 2.5.31 3.68.06 2.72-.59 3.3-1.15 4.45-3.35.72-1.38 1.02-4.77 1.32-6.61.98-5.96 1.16-9.41-6.01-8.5z"/><path class="fil1" d="M87.03 35.25c-.39-.43-.79-5.07-.95-6.04l-5.06.09c-.43.61-.23 1.4-.32 2.31-.08.8-.25 1.49-.21 2.29.52-.27.61-.96 1.19-1.17.81-.3 1.69-.03 1.85.7.19.89-.48 1.19-.89 1.64l-2.28 2.7c-.64.65-.62.69-.77 1.81-.11.83-.42 1.54.01 2.03.92 1.03.48.55.54 2.02 1.04-.23 2.08-2.22 2.27-2.46.47-.57.53.02.71-.9.23-1.19.47-4.75.83-5.5.48 1.91-.44 6.06.9 7.2.57-.24.56-.64 1.32-.48.27.54.35 1 .07 1.62-.09.19-.27.44-.37.58l-.45.6c.31.16 1.49.04 1.94-.05.35-.52 1.52-3.69 1.66-4.41.17-.9 1.21-3.9 1.6-4.58l-1.06 8.88c.78.22 2.68.1 3.51.04.56-1.99.66-5.33.94-7.54.3-2.34.91-5.28 1-7.6-1.19-.03-2.38 0-3.57 0-2.94 0-1.25.65-3.1 3.94l-.99 1.7c-.22.46.06.25-.35.57z"/><path class="fil2" d="M66.29 24.63c-.01-.45 1.69-11.19 1.75-11.32 3.07-.38 1.9 3.1 1.43 6.02-.51 3.11.03 5.36-3.18 5.29zm-4.52.78 2.36.47c1.64-2 1.9-1.01 2.78-.52.33.18.74.16 1.14.33 0 1.46-.34 1.25-.73 2.37 2.3-.06 3.5-.98 4.74-2.1.3-.27.92-1.59 1.15-2.21.75-2.06.7-3.89 1-5.77.14-.88.37-2.05.44-2.9.45-5.71-3.9-5.38-8.36-5.25-.54.02-1.1.01-1.63.03-.78.03-.72.15-.84.9l-1.43 8.75c-.31.97-.48 1.82-.45 2.98.01.59.01 1.06-.11 1.64-.05.24-.11.42-.15.64-.07.46-.04.49.09.66zM39.77 10.48l-1.18 8c-.23 1.49-1.17 6.89-1.1 8.04.55.25 1.12.19 1.03.9-.06.47-.54.72-.66 1.42 3.53.13 2.26.1 3.1-2.32.45-1.29-.04-.97.92-1.8.69-.59.52-.85.72-1.99 0-.03.15-2.84.38-2.42l2.26-.18c-.15 1.41-.48 2.96-.73 4.41-.21 1.24-.11 1.34.16 2.32.17.61-.42 1.26-.59 1.82 3.46.26 2.72-.11 2.84-1.77.05-.63.07-.52.66-.94l.17-.13c-.31-.38-.51-.49-.49-1.21.75-1.35 1.23-.25 1.98-.33.2-4.34 1.68-8.75 1.78-13.06l-1.54.07c-.36.77-.16 2.29-.5 3.26-1.93.72-1.28-.9-1.33-2.9l-1.18.12c-.43 1.5-.27 3.27-.66 4.72l-2.33.13c.06-1.6 1.03-5.08.86-6.26l-4.56.08zM19.55 14.4c1.45-.86 1.93.48 1.7 1.83-.3 1.69-.99 9.18-1.89 9.68-1.33.74-1.86-.71-1.68-1.82.19-1.16.25-2.31.44-3.46.2-1.15.38-2.22.56-3.34.2-1.24.2-2.5.88-2.89zm5.79 4.85c-1.11-.67-1.43-.52-.67-3.76.68-2.9 1.09-2.64.05-3.92l-.16.13c-.45.37-.79.69-1.34.28l-.45-.47c-.66 2.1-.97 1.06-2.02 1.36-.43.12-2.42 1.27-2.74-1.58-1.19.18-2.5 1.69-3.02 2.7-.75 1.47-1.52 7.46-1.84 9.46-.43 2.67.26 5.56 2.66 5.83 4.42.5 8-.18 8.79-5.15.21-1.31.78-3.67.75-4.88zM55.06 22.4c-.03-.95.56-2.42.8-3.34.31-1.23.1-2.15 1-2.98l-.15 3.58c-.06 2.69.54 2.77-1.64 2.74zm.99-11.14-.24-.49c-.12-.19-.18-.28-.26-.4-1.71-.05-1.49.52-2.27 3.02L49.8 25.5c.92.34.76.1 1.55.04.97-.07.96.41 1.65.25.95-.22.53-.31 1.53-.03.68.19 1.18.06 1.91.11l.01 2.49 1.84.02c.1-1.21-.11-1.58.52-2.46.88-1.23.86-.48 2.09-.88l.05-13.81c-1.7.15-1.33-.76-2.75-.48-.67.14-1.3 1.43-2.16.51zM6.16 22.42l-4.58.04c-.29.62-.41 3.77-.29 4.59.22 1.55.95 2.1 2.46 2.4 2.22.45 6.05.51 7.59-1.58 1.25-1.69 1.83-3.4 1.61-5.64-.1-1-1.34-2.35-2.13-2.84l-2.68-2.16c-.33-.46-.58-1.19-.95-1.61-.73.09-1.43.53-2.16.16-.5-.32-.51-.62-.35-1.21 1.26-.8 7.86-1.57 8.51-2.59-1.13-1.42-6.09-1.18-7.83-.36-2.25 1.05-3.31 4.36-2.19 6.69.29.61 1.02 1.23 1.7 1.93 1.64 1.7 3.93 1.99 3.16 5.11-.16.65-.68.95-1.46.83-1.4-.21-.4-2.64-.39-3.76z"/><path class="fil1" d="M17.06 45.83c1.1 0 6.51.17 7.03-.23.29-.29.23-.42.31-.9l.1-1.97-3.35.02c.02-.99-.03-3.16.47-3.83.82-.48 2.59.11 3.43-.34.32-.55.46-1.92.4-2.72h-3.47c.02-.75.11-1.84.4-2.39l3.48-.21c.29-.82.29-1.91.26-2.81-1.24-.23-4.52.05-6.02.05-1.34 0-1.09.32-1.27 1.59l-1.02 8.16c-.25 1.82-.6 3.71-.76 5.57z"/><path d="M19.71 10.44c-.27-.34-.21-.41.13-.63.1.3.13.39-.13.63zm15.75-.64s-.3.05-.05-.4c.15-.27.15-.14.33-.23 0 .52.04.37-.27.63zm-6.51.99c.28-.98 1.16-1.72.43-2.81-.86-.14-1.03-.02-1.43.54l-.34.43c.03-.74.32-1.28.05-1.8-.53.02-.35-.36-.74 1.15-.14.53-.29 1.03-.5 1.39-.77-.38-.11-.89-1.79-.36-.04-2.16-1.13-1.24-1.57-1.01-1.18.62-.49-.82-1.92 2.41-.26.58-1.01 1.41-1.57 1.55l-.16-.97c.91-.37 1.02-.41 1.44-1.29 1.45-3.03-2.79-3.3-2.31 1.26.08.79.46 1.7 1.26 1.56.69-.12 1.2-.95 1.53-1.38.31.55-.27.37.17.99.69-.09 1.22-2.23 2.09-2.61v1.84c.71-.23.89-.91 1.51-1.22.37.77-.06 1.04 1.07.83-.11 1.88-.99 4.36-1.4 6.28-.29 1.35.97 1.23 1.24.7.32-.62.3-5.28 1.89-8.21.17-.31.04-.11.16-.27.18.61-.4.97 0 1.64 1.23.63 1.92-1.08 2.42-1.61l.07.39c0 .2-.05.39-.06.57-.06.65-.08.73.26 1.07.48-.15 1.02-1.39 1.88-2.17.41.2.08.05.43.47l1.24-.07c.04.98.02 1.44.5 1.97.79.48 1.9-.69 2.34-1.23.08-.1 1.27-2.11 1.31-2.32.08-.46-.41-.75-.75-.07-.43.85-1.3 3.09-2.47 3.08l-.11-.89c.93-.35 1.05-.48 1.42-1.21.95-1.9-.93-3.04-1.87-1.47-.51.85.24 1.46-1.16 1.65.21-.85.63-.88.71-1.65-1.44-.85-1.59.64-2.54 1.21.17-.99 1.49-2.95-.41-2.7l-.96 2.25c-.22.47-.41.64-.61 1-.33.58-.11.8-.74 1.07z" style="fill:#67d754"/><path class="fil4" d="m55.81 10.77.24.49c.06-.03 0-.02.24-.02.4 0 .62.07.96-.22.22-.19.55-.87.71-1.17.48.17.35.43.81.44.55.02.3-.3.79-.61.29.53.11.64.54 1.17.85-.1.57-.37 1.48-1.56l1-1.45s.23-.17-.07-.61c-.53.16-.26.05-.61.5-.71.91-.92 1.7-1.36 1.88-.05-.92.48-1.34.37-2.51-1.98-.72-.83.72-1.67 1.99-.23.35-.06.22-.46.42.03-1 .35-2.24-1-1.95-.34.62-.3 2.49-1.08 2.91-.47-.7.47-2.03.53-2.72.05-.57-.54-.82-1.02-.61-.48.21-.26 1.22-.27 1.66-1.2-.21-2.28.27-3.44.58-.5.14-3.14.69-3.41.64l.63-4.95c.05-.3.11-.5.11-.8 0-.22-.03-.34-.03-.48l.02-.27c.03-.29 7.22-.93 8.66-1.11 1.65-.21 2.26-.05 2.43-.96-.67-.7-1.14-.39-2.13-.23-.83.13-1.58.13-2.44.28l-11.8 1.91c-1.32.24-1.9.1-2.05.7.71.45 4.76-.48 6.01-.49l-.26 6.82c-.92.12-1.77.16-1.99.7.48.28 1.37.06 1.96.04-.09.38-.26 2.32-.16 2.78.01.04.02.08.03.11l.1.2c.01.02.04.07.06.09.6-.39.56-2.53.62-3.29.58-.3 6.11-1.22 7.08-1.3.02.27.07.68-.14.95zM68.86 49.66c.32-.08.87-.59 1.13-.86.3-.32.5-.63.84-1.05.29-.36.61-.6.93-.95l4.37-5.05c.3-.35.61-.59.95-.93.3-.3.82-1.11 1.31-1.52 1.1-.92.47-.67 1.3-1.52l3.09-3.52c.82-.83-.08-1.48-.77-1.17-.31.14-.71.69-.93.96-.36.43-.54.74-.81 1.08-.33.41-.59.59-.91.97-.31.37-.38.67-.79 1.1-.33.35-.6.53-.97.91-.89.93-.87 1.16-1.56 2.21l-2.47 3.19c-.26.32-.67.67-.89.99l-2.48 3.18c-.38.41-.41.73-1 .97l.45-10.4c.09-1.89.39-2.72-1.07-2.42-.21.89.07 13.29.27 13.84z"/><path class="fil5" d="M61.01 29.27c.15-.53.26-.82.57-1.14.11.13.06.05.17.28l.33.79-1.08.07zm-1.63-1.52c.04-.69.3-1.14.82-1.32-.01.73-.23 1.15-.82 1.32zm4.6-.11c.06-.6.16-.76-.02-1.34l-.62-.19c-.51.56-.47 1.75-.95 2.21-.26-.47.44-1.45.22-2.27-.94-.15-.81.21-1.08.82-.3.68-.44.69-.69 1.48-.2-.25-.35.24-.01-1.25.12-.54.14-.83.12-1.43-.78-.04-1.44-.2-1.79.6-.27.61-.44 1.28-.2 1.93.52.24.31.14.9.03-.14.97-.24 1.5-1.17 1.73-.55.14-1.91.36-2.29.74.03.03.09.01.11.06.14.3 1.91-.23 2.7-.29-.02 1.02-.62 2.13-.45 2.91 1.37.43.94-1.58 1.83-2.99.58-.9 3.41-.4 3.98-1.31-.37-.85-.96-.23-1.87-.19l.48-.77 1.35.14c.62 1.89 1.84-.05 2.23-.47.42-.45.91-.97.95-1.75-.77-.09-.71.67-1.16 1.27-.28.38-.34.32-.58.63-.33.42-.06.51-.7.51l-.2-.45c.5-.59.65-.05 1.14-1.03.87-1.72-.83-2.39-1.51-.98-.29.61-.14 1.25-.74 1.63z"/><path class="fil4" d="M4.95 14.94c.32.96 1.8.25 2.63 0 1.04-.31 2.02-.49 3.07-.83 1.82-.58 6.92-2.2 7.25-4.2.2-1.17-.89-1.82-1.86-1.95-1.7-.22-6.11.87-7.12-.16.07-.92.95-1.42 1.64-1.74 3.18-1.48.83-.72 4.87-1.99.65-.21 2.11-.55 2.46-.98-.12-.96-.88-.87-1.66-.52-.77.35-1.32.36-2.12.71-1.96.85-3.97 1.65-5.51 3.11-.55.53-.86 1.31-.07 1.94C10.22 9.7 18.57 6.8 17.34 10c-.79 2.08-7.77 3.87-10.04 4.37-.8.17-1.91.03-2.35.56zM82.4 44.62c-.07-.36.1-1.12.26-1.45.1-.19.08-.14.19-.26 1.06.34.54 1.81-.45 1.71zm-3.03.24c.05-.78.59-2.09.12-2.71-.77-.84-1 .32-1.29.86-.12.22-1.01 1.58-1.14 1.71-.02-.03-.04-.11-.04-.1 0 .02-.03-.08-.03-.1-.02-.16-.04-.06-.02-.31.02-.17.13-.48.18-.64.2-.62.27-.71.15-1.41-.64-.38-1.17-.47-1.27.53-.05.52-.05 1.89.01 2.4.11.82.74 1.13 1.21.5.41-.54.38-1.12 1.01-1.48l.09.23c.25.97-.18 1.41.3 2.25.67-.1.27-.1.73-.62.34-.38 1.79-1.76 2.24-1.91.02.03.05.04.05.09l.59 1.13c1.2.09 1.42-.33 1.86-1.15.95-.05.98-.04 1.37-.66.35-.56.74-1.04.44-1.49-.67.37-.63 1.34-1.56 1.49-.05-.47-.02-.61-.13-1.09-.02-.09-.08-.33-.11-.42l-.21-.51c-1.67-.16-1.14.49-2.29 1.66-.39.4-1.81 1.62-2.27 1.77z"/><path class="fil5" d="M53.23 28.43c-.11-.16-.15.23-.16-.42-.01-.45.23-.67.57-.78.21.48.03.96-.4 1.2zm-2.69-.74c-.44-.12-.34-.14-.52-.63.28-.59.4-.17.4-.95-2.11-.29-.54.2-1.8 1.72-.27.33-.19.41-.61.55.05-.8 1.13-2.21-.43-1.85-.84 5.51 1.7 1.26 1.75 1.2.17.11.26.13.42.41.48.86-.47.8-.41 1.73 1.78.19 1.06-1.8 2.01-2.05 1.01.94-.54 1.49-.13 1.93.61.34 1.2-.45 1.48-.95 1.47.25.94-.39 1.87-.84.69-.33 1.35-.6 1.37-1.59-1.11.12-.4.99-1.46 1.07.01-.73.06-.68-.17-1.33-1.95-.37-1.17 1.21-2.01 1.54-.77-.59-.14-.83 0-1.55-2.38-.46-.56.78-1.75 1.58z"/><path class="fil2" d="m9.51 14.96-.23 2.02c.86.1 3.96.11 4.48-.16.39-.68.34-2.35.33-3.26l-4.59 1.4z"/><path class="fil5" d="M41.06 28.27c0 1.8.62 2.2 1.92.92.41-.41 1.47-1.72 1.29-2.32-.61-.07-.86.78-1.17 1.24-.48.71-.43 1.3-1.38 1.17-.1-.96.54-.3 1-1.28.4-.86.34-1.24-.1-1.88-1.32-.08-1.55.89-1.56 2.15z"/><path d="M38 27.21c-.67-.03-.37.05-1.15 1.24-.35.53-.6 1.12-1.39 1.05.1-.73.43-.41.9-1.13 1.44-2.17-1.42-3.02-1.61-.11-.2 3.04 1.73 1.78 2.66.34.21-.33.58-1.03.59-1.39z" style="fill:#fafafa"/><path class="fil4" d="M59.98 4.85c.12.61.26.79.93.78.3-.48.46-.71.16-1.35-.65-.22-.82.04-1.09.57z"/><path class="fil1" d="M74.33 44.6h1.26l.05-1.17c-.68.16-.33.07-.75.45-.47.43-.41.09-.56.71z"/><path class="fil5" d="m48.65 24.51-.97-.06c-.04.57-.14 1.12.56 1.02.54-.07.52-.54.41-.96z"/><path d="M41.71 25.79c.56-.08 1.15-.32 1.51-.62-.01-.5.05-.35-.23-.62-.49.08-.25.11-.69.46-.48.38-.4.12-.59.77z" style="fill:#f6f6f6"/><path d="m61.01 29.27 1.08-.07-.33-.79c-.11-.23-.06-.15-.17-.28-.32.32-.43.61-.57 1.14z" style="fill:#141414"/><path class="fil9" d="M59.38 27.75c.59-.18.81-.6.82-1.32-.53.18-.78.63-.82 1.32zM53.23 28.43c.43-.25.61-.73.4-1.2-.34.11-.57.33-.57.78.01.65.05.27.16.42z"/><path d="M32.9 12.27c.65-1.06 0-1.01 0-1.01-.21.18-.5.37 0 1.01z" style="fill:#57bde3"/><path d="M56 29.89c.12.24-.33.37.4.26.35-.05.55-.42.56-.44-.14 0-.36-.03-.49 0-.48.08-.26.06-.46.19z" style="fill:#f01397"/><path class="fil12" d="M35.46 9.8c.31-.27.27-.12.27-.63-.18.09-.18-.04-.33.23-.25.45.05.4.05.4zM19.71 10.44c.27-.24.24-.33.13-.63-.35.22-.4.29-.13.63z"/></g></g></svg>