<svg xmlns="http://www.w3.org/2000/svg" xml:space="preserve" width="127.981" height="63.996" style="shape-rendering:geometricPrecision;text-rendering:geometricPrecision;image-rendering:optimizeQuality;fill-rule:evenodd;clip-rule:evenodd" viewBox="0 0 279.63 139.83"><defs><style>.fil0{fill:#000}.fil2{fill:red}.fil1{fill:#fff}</style></defs><g id="Camada_x0020_1"><g id="_1896267030880"><path class="fil0" d="M29.25 0c4.48 0 45.9 16.69 48.84 16.69l5.8-10.41c2.54-3.52 9.72-.26 12.59 1.65 2.23 1.48 4.91 3.01 3.91 6.59 1.59-.03 5.53-2.57 5.67.78.11 2.54 1.12 1.14 1.17 2.65.06 1.14-1.12 1.37-1.73 2.15.59.75 2.56 3.51.39 4.02.06.61.53 1.56.45 1.95-.11.5-.81 1.03-.75 1.56 0 .02 2.03 3.9-5.19 4.66-2.9.31-3.1-.78-4.38-1.06-.59.92-1.34 1.67-1.45 2.18 6.12 0 2.83.78 4.58.78 1-.22.7-.87 2.74-.92l10.24-.17c-1.44-1.81-2.73.81.28-8.43 1.67-5.11 2.7-5.12 6.64-2.87 1.32-2.12 4.44-4.82 8.21-4.13 2.9.5 3.13 3.01 3.52 3.68.95 0 1.06-.22 2.01-.17 1.28.06.36.31 1.65.34.4-1.23 3.97-4.7 6.39-.78 1.23-.7 1.56-2.54 3.82-2.48 3.3.07 2.68 2.72 3.04 4.41 1.75-.27.29-1.43 1.95-3.13 1.65-1.73 5.19-1.7 5.44.73.2 2.05-2.76 5.19-2.76 8.21 1.73 0 3.66-.56 4.97.28 1.45.91 1.94 3.67-1.65 4.07-2.29.25-5.27.14-7.54.59 1.12 1.43 6.2 2.8 6.2 8.18.64-.39.73-1.87 1.06-2.96 1.65-5.58.45-6.17 5.89-6.17-.45-1.65-1.95-.61-.59-5 .79-2.51 2.6-7.94 6.11-7.09 2.51.61.64-1.43 5.47.61 1.26-1.53 3.82-6.6 7.01-3.46.98.95.61 1.56.5 2.82.98-.2 1.65-.89 2.57-1.23 1.95-.67 1.76-.14 3.29-.03 3.28.27 6.67-1.62 12.11-.95 1.73.2 4.3-1.06 6.53 2.51 2.79 0 2.54 1.34 4.21-.92 1.68-2.27 4.18-.62 4.21-.61 1.03-.2.95-.75 2.2-.78l6.03 2.48c1.79-.2 3.79-7.41 8.43-1.54 4.71-2.13 4.26-.09 6.59.92.64-.28.84-.47 1.45-.78 2.2 1.26 1.99.72 5.08-2.04 2.96-2.64 5.27.78 5.64.89 1.51.47 5.33-1.42 7.31-.31.92.5 4.3 3.38 4.69 3.46l6.95-.47 7.14.17c3.29.03 6.34-.89 5.22 3.18l-13.03 47.5c-.29 1.01.51 8.01-4.55 16.72-2.02 3.48-1.71 16.01-5.81 19.84-2.75 2.57-6.14.03-7.67.03-3.57 4.52-11 5.3-11.53 6.95.44.54 11.72 3.66 6.14 10.74-3.63 4.6-9.32 4.63-10.24 4.97-1 .36-.89 3.57-3.91 5.81-10.78 7.99-24.46-5.67-10.66-8.37l-4.19-4.33c-.31 1.17-1.98 1.73-3.63 1.2-2.82-.89-.22-4.72-4.38-7.9-1.55-1.23-4.11-3.11-6.2-2.68l8.57 14.29c1.84 4.55-5.67 9.35-10.49 9.88-6.2.7-8.12-2.15-10.38-3.99-.56.34-.78.95-2.2 1.84-9.01 5.66-19.74.51-18.64-4.02-.37.08-7.83 6.21-16.21 2.9-3.52-1.4-2.46-2.62-4.07-2.74-1.83 3.2 1.84 3.27-11.89 3.27-6.87 0-12.61 1.55-12.61-2.32-1.28.25-2.8 2.42-8.96 2.48l-29.11.45c-5.16 0-2.87-.31-4.38-1.23-.89.2-.75.47-1.09 1.09l-12.28.31c-2.18.2-2.4-.56-2.71-1.06-2.56 0-6.83 2.95-16.24 1.51-3.66-.56-3.46-1.76-5.33-1.67l-39.91 4.05c-2.9-.23-1.44-3.27-1.28-7.26l1.45-17.5.36-6c.25-3.71.5-3.38 2.18-4.33-.01-.46-1.45-2.32 1-4.1l6.14-4.24c-1.04-.42-6.3.61-8.54-3.77-1.95-3.8 7.54-9.1 8.18-12 1.42-6.47 12.81-44.39 12.25-46.44-4.53 2.15-4.77-2.36-1.81-4.94l.86-2.12c-1.78.79-3.23 1.33-5.3-.47-2.4-2.09.78-2.79 1.76-4.47l6.64-10.8c1.92-2.37-2.08-1.33-1.73-3.93.08-.61.56-1.31.45-1.81C23.81 2.98 27.57.27 29.3 0l-.02-.01z"/><path class="fil1" d="m47.03 50.07 1.98-18.84c-1.12.3-1.48 2.16-4.19 3.4-3.15 1.45-7.23 1.17-7.51-2.18-.17-2.07-.59.75-3.99 2.23-8.44 3.68-5.05-6.81-9.54 9.6l-9.13 35.05c3.03-1.61 7.29-6 12.36-4.02 4.48-3.64 3.28-3.16 6.06-13.06l4.35-14.62-2.4 22.47c-.28 2.46-.45 1.06 1.48 2.15 1.42.81 2.26 2.4 2.62 3.82 1.93-.39 2.12-2.04 5.67-.61.7.28-.25.17.87.28l11.22-25.4c.25-.45.84-1.31.92-1.48l-7.2 27.27c-1.52 5.37-.24 2.82 9.54 2.18 4.63-.08 3.96-.28 4.63-2.87l8.99-32.93 2.65-11.08c-1.48.2-1.28 1.03-2.57 1.03-.95 0-1.54-1-2.4-1.14-2.51-.43-1.87.22-5.92-1.48-2.46-1.03-3.43-1.79-5.36-1.31-3.46.87-3.68-.2-4.8 2.6l-8.29 19.03-.06-.08zM101.84 35.28l-8.68 30.7c-.61 1.9-1.28 6.5-3.13 6.95-4.2.99-2.86-1.72-2.48-3.52l9.02-33.69c0-.7-.47-.47-2.37-.47l-12.45.17c-2.06 4.64-4.07 13.34-5.53 18.98-1 3.85-6.08 19.18-4.72 22.63 8.31.14 19.69-2.98 23.28-1.45 1.79.76 1.05 2.23 5.64 4.24l4.21.03 11.3-41.05c1.17-5.3 3.38-3.54-14.09-3.54v.03zM223.33 69.46c0-2.56 2.12-9.13 6.33-11.36.53-.28 1.14-.59 1.67-.81.03.2-2.75 12.4-4.33 13.4-1.45.92-3.66.78-3.66-1.26l-.03.03zm-9.52-18.73c0 .78 2.87.28 4.74.31 10.87.07 9.48.76 10.35-2.71.45-1.7 1.87-7.67 3.54-7.67 1.54 0 2.74-.31 2.74 1.7 0 11.38-9.41 9.25-18.47 13.93l-3.43 2.07c-2.6 2.53-7.61 15.64-3.38 18.95.7-.12 1.88-1.33 4.47-1.59 7.99-.79 4.28 5.22 10.58.7.5-.36 1-1 1.73-1.23.14.92-1.37 4.1.5 2.2.7-.71.79-1.77 3.29-2.15 3.99-.61 5.37 2.58 5.41 2.62l5 .22c1.96-7.03 9.46-33.15 9.49-38.07 0-1.17-1.34-3.52-2.46-4.52-2.6-2.35-8.55-3.26-11.75-2.93-1.62.14-1.76 2.96-4.88 1.06-2.68-1.64-10.25 3.35-12.11 5.08-3.02 2.82-5.53 11.06-5.53 12.03h.17zM207.22 60.28c-.03-.01-12.98-.7-13.76.81-.75 1.48-1.79 8.32-3.52 9.88-1.26 1.12-2.65 1.14-3.63-.08-1.09-1.35 3.92-18.02 5.05-21.96.53-1.73 1.34-5.97 2.34-6.98.95-.95 3.24-1.4 3.66.36l-1.84 8.34c1.65.84 12.11.12 14.21.06.7-1.23 1.45-6.08 1.45-8.04.02-12.92-25.31-12.93-32.68.08-2.93 5.18-6.47 20.12-7.48 26.48-2.39 15 28.6 13.8 33.94-1.62l2.12-7.37.14.03zM132.04 65.58c0 8.28-6.2 7.69-6.2 5.89 0-3.04 1.16-5.24 1.65-7.09l-13.17-.14c-1.17 0-3.08 9.1-1.12 11.92 2.29 3.24 3.38 1.84 5.13 1.84 1.12 0 1.95.25 2.9.14 10.27-1.19 3.61 3.55 11.53 1.73 8.14-1.87 11.19-5.82 13.37-12.81 4.42-14.22-11.2-11.74-14.26-18.87-.1-.24.51-4.46 2.23-5.69 1.99-1.42 4.54-.41 3.26 2.43l-.89 4.27 12.92-.11c1.38-.21 2.23-7.24 2.23-8.34 0-4.13-8.63-7.61-15.35-6.84-10.04 1.15-16.85 4.13-18.53 14.54-1.3 8.03 1.76 8.99 10.55 13.98 1.14.64 3.74 2.01 3.74 3.18v-.03zM30.98 126.73c2.44 3.61-5.72 10.06-12.31 6.84-4.33-2.12-2.85-6.75.84-8.12 3.54-1.31 5.47-.14 6.5-.84l-9.8-17.58c2.1-1.82 3.53-.29 3.6-.25 5.09 2.7 14.21 3.46 17.05 8.34 1.28 2.2 1.06 5.13-.14 7.26l-.87-.06c-.82-1.5.68-4.85-5.83-8.2-1.56-.81-5.47-1.56-7.17-1.45-.12 1.44 6.99 12.15 8.15 14.07h-.03zm19.81-21.1c0-4.03 3.72-4.46-8.51-2.87-.87.14-1.51.47-2.29.47l-25.7 2.46c-2.48.67-2.15 2.32-6.81.98-3.27-.92-2.43.92-2.79 4.35l-1.84 22.77c-.14 5.02-1.86 4.54 5.11 3.85l25.65-2.74c12.99-1.28 3.53 1.05 8.23-8.68 1.62-3.36 1.26-2.67 6.22-2.74 4.12-.06-.09-2.64-.34-2.85-3.48-2.96-.05-9.4 2.34-12 1.37-1.49.49-2.53.73-3.01z"/><path class="fil1" d="M143.01 90.17c.02-.65 2.19-4.22 3.66-4.33l-1.79 4.21c-.67.42-.98.11-1.87.11zm-21.96 6.33c-3.22 0-1.41 3.54-7.7 3.54-3.07 0-4.01-1.78-5.05-3.01-1.15-1.36 2.86-5.12 3.77-6.28 1.06-1.34 3.46-2.07 4.3-3.32 3.54-5.26 4.73-1.64 5.44 1.65.45 2.09 4.97 2.54 6.28.2 1.43-2.71 3.27-1.78-.06-7.48-2.09-3.58-4.67-2.64-10.13-2.4-3.52.15-3.62 1.81-6.31 3.68l-4.33 3.77c-.31.36-5.5 4.08-6.86 7.98-.68 1.94-1.97 3 .03 6.42 1.26 2.15 6.7 5.36 9.85 5.39 3.89.05 5.23-1.35 7.31-1.03-.13.43-3.28 3.57 2.01 3.57 5.37 0 14.52-14.09 17.58-14.09 1.67 0 5.05-.17 6.17.06.31 1.98-2.74 5.72-1.51 7.31 2.19 2.86 6.85.93 7.79-4.3.22-1.26.84-2.6 1.28-3.71 1.06-2.65.95-5.66 3.32-11.55 2.62-6.5-1.24-8.58-5.02-6.11-2.65 1.7-3.54 2.46-5.39 4.88l-16.21 14.74c-2.15 1.45-1.87 3.1-4.07 1.28l-2.49-1.17zM261.31 23.36l-13.06 47.53c-.42 1.34-1.79 5.97-1.73 7.12 8.06.58 6.29-.74 7.87-2.26 1.84-1.79 1.06-2.09 2.74-3.4 2.9-2.23 5.78-.42 6.31-.34l12.14-43.2c2.01-7.86 4.91-5.44-14.26-5.44z"/><path class="fil2" d="m243.81 89.73-.39-6.64c-.98-2.74-4.52-2.09-5.53-1.14l-6.56 9.6h-.56c0-4.82 6.27-13.16 2.18-14.54-3.38-1.14-3.71.17-4.91 2.46-3.18 6.07-4.53 14.65-6.25 21.32-.82 3.18-2.02 6.15.08 8.85 2.82 3.6 6.14-2.43 7.79-4.66 1.62-2.21 5.04-8.32 6.25-8.6.6 6.17 4.11 6.18 7.79 3.35 3.12-2.4 8.65-11.5 8.65-9.68 0 2.55-3.93 14.59-1.9 16.94 1.82 2.1 6.19.09 6.31-6.22l2.34-10.72c1.4-5.79 7.67-14.25 2.99-17-3.59-2.1-5.08 2.79-7.95 5.72l-9.04 10.16c-.31.5-.59.81-1.34.87l.06-.06z"/><path class="fil1" d="M83.92 99.94c-2.05 0-2.99-4.75.03-7.56l4.94-4.8c4.07-3.95 3.46-3.73 5.94-2.76 2.33.91 3.28.01-.42 5.27-2.49 3.55-5.68 9.82-10.52 9.82l.03.03zM65.61 82.78c1.23 0 2.96-.17 3.82.31-.22.98-4.21 5.05-5.16 6.45l-5.02 8.93c-.51 1.46-6.6 9.54-6.2 10.97.67 2.34 5.72 1.51 7.31-1.7l2.74-4.97c1.31-2.74 9.85-15.57 11.53-17.64 4.07-5.02 2.23-2.93 14.23-4.52-.14 1.22-3.21 1.6-6.81 4.44l-4.33 4.07c-5.15 3.33-1.57 15.62 2.29 17.36 4.08 1.84 6.27-1.96 8.76-3.21 2.04-1.02 5.21-4.89 7.09-6.84 2.51-2.6 7.62-6.34 7.62-10.72 0-1.9-5.3-6.61-8.43-6.64-.33-1.17.3-2.76-3.29-2.62l-18.87 2.01-20.76 2.09c-2.99.89-3.15 4.1.5 3.68l12.95-1.42.03-.03zM147.95 75.38c.75-.02 7.86-2.73 8.43 2.09.39 3.33 1.1 1.06 5.94 1.95l12.7-45.1-15.13.06c-1.09.18-3.18 8.88-3.57 10.55l-8.34 30.45h-.03zM85.57 124.53c-2.48.06-4.27.92-2.87-1.51l6.31-10.38-3.43 11.89zm-5.3 5.25 3.29.17c-.55 6.04-7.04 5.4 9.32 5.08l6.78-29.69c-3.07 0-5.22-.08-8.23.11-4.49.28-2.6-.61-4.72 1.14-3.6 3-2.92-.69-5.83 4.05l-14.54 23.28c-.31.5-1.09 1.12-.59 1.34.36.17 9.43.03 10.33-.08 1.79-.25 2.71-5.41 4.21-5.41l-.03.03zM112.22 121.54l2.32.61c.05.12-.68 6.37-4.21 7.4-3.2.93-2.22.4.95-7.12.25-.59.28-.73.95-.89zm1.76-4.49c-.39-1.94 3.46-5.81 1.93-7.34-1.45-1.45-.61-1.17-1.28-2.32-.87.06-.75.25-1.62.5-3.04.84-4.16-.34-6.08-.34l-11.89 27.52 19.23-.45c7.53-.37 8.38-5.89 9.82-8.54 2.94-5.4.95-5.62-2.09-7.28 3.56-1.29 3.83-1.03 5.53-3.1 1.28-1.56 3.76-6.46 1.87-8.23-3.79-3.56-2.77 2.27-8.29 2.96-2.7.33-.57.1-2.99 4.6-.78 1.42-1.98 2.26-4.16 2.12l.03-.11zM70.39 28.91c-1.05 0-1.71-.32-.87-1.17.73-.75.36-1.23 1.03-2.09 2.19.14 1.42 3.24-.17 3.24v.03zm-23.61-1.23c0 2.19-4.07 4.97-5.16 5.3-.31-.81-1.51-1.73 0-3.66.59-.78 2.6-4.66 4.58-5 .76 2.42-.76 3.07.61 3.35h-.03zm-12-.17c.36.5-.22.22.67.31-.2 2.96-7.42 7.49-5.61 2.34.36-1.01 3.24-5.64 5.25-5.92l-.31 3.27zm18.62-3.54c1.77-.06 1.53-2.36 2.93-4.63l8.99 3.24c3.01 2.83 1.74.96 4.74 2.65l-1.84 2.82c-.9-.08-6.65-2.03-6.84-3.18-.17-1.04.88-1.32.28-2.32-2.37.49-1.64 3.17-1.95 3.6-1.31 0-.22-1.14-5.11-.31-.89.17-4.8.87-5.5.81-2.23-4.19-1.56-2.74 1.65-4.86 4.58-3.01 2.6-.47 2.68 2.12l-.03.06zm-5.5-7.73c1.17.34 4.94 1.34 4.94 2.48 0 .84-4.74 3.13-5.05 3.18-.98.17-.75-.59-.64-2.4.11-1.62-.08-2.18.75-3.24v-.03zm-12.31 5.72c-.82-1.28.1-7.67.61-8.99 2.87-.34 2.37-.2 5.27.81 5.36 1.81 1.93 1.09-1.17 5.13-.5.67-3.38 3.29-4.72 3.04zM28.14 5.24c-.2-3.46 2.36-2.42 3.66-2.01-.84.5-1.95-.08-2.18 2.15l1.14.81c-1 0-1.9-.59-2.62-.92v-.03zm-1.65-.78c0 1.62.45.92.56 1.87-3.35.7 2.02 3.14 2.04 3.24l-9.4 14.99c-2.16 1.53.64 1.73.98 1.73.67 0 1.06-1.59 1.28-2.01l9.1-14.23c.98.11 2.34.64 2.99 1.23L26.92 23.5l-3.46 6.67c-.36.73-1.73 2.12-1.31 2.71 1.97-.41 9.87-18.62 12.25-18.7l-1.12 6.64c.22 2.57.7 1.59-1.65 3.85-8.8 8.52-2.01 12.51 3.29 7.26 4.51-4.47 1.48-7.69 1.48-8.04 0-.73 2.07-1.34 2.82-1.95 2.44-1.96 3-4.42 5.78-6.11 2.12-1.31 1.09 1.67.95 3.13-.42 4.02.34 2.74-2.62 5.53-10.3 9.74-.23 13.28 4.21 5.75.59-1 .61-2.37 2.29-2.34.25 1.34-.75 1.67 5.22.34 1.87-.42 5.05-1.2 6.98-1.2 3.17 0 11.53 7.42 11.53-1.45 2.68-.81-1.87-1.84-3.82-2.6L28.18 7.7c-2.54-2.72 8.06 1.58 9.1 1.95l37.71 13.68c2.24-2.24-1.43-2.78-1.87-2.96L31.4 5.3c.22-.47.17-.39.47-.78l11 3.99 23.28 8.2 10.1 3.43 1.7-.92c-.53-1.47-12.78-5.14-15.94-6.25L30.42 1.75c-2.17-.19-3.82 2.65-3.82 2.82l-.09-.08z"/><path class="fil1" d="M51.16 110.29c-1.09 0-3.1 5.64-3.1 6.64 0 4.32 9.95 7.12 9.88 8.99l-1.06 3.13c-1.54 2.85-4.66 2.23-4.49 1 .1-.72 1.9-3.32 1.9-5.22-12.05.24-9.45-1.13-11.72 4.94-3.02 8.08 14.58 7.28 20.4 3.8 2.65-1.59 3.93-3.82 5.02-6.73 1.85-4.89 1.49-6.33-5.47-9.8-2.26-1.14-3.15-1.51-3.15-3.21 0-3.81 4.58-4.27 4.58-3.07 0 1.37-1.2 2.34-1.23 3.82l9.94-.36c.34-.39 1.84-4.83 1.93-5.64l-.56-.17c.94-2.3-7.12-3.38-9.13-3.38-2.5 0-2.69 7.06-9.66 7.01-3.54-.03-3.04-1.73-4.05-1.73l-.03-.03z"/><path class="fil2" d="M178.14 114.31c-4.86 0-5.89-1.45-10.07-1.54-2.36-.06-4.77-.59-4.77-2.18l4.6.31 10.27 2.12c.34.22.98 1.26-.03 1.26v.03zm3.13 14.23c-.9.75-1.45-.31-5.14-.31-3.91 0-7.73 2.46-7.59 4.6.14 2.46 3.96 5 7.23 5 3.54 0 8.36-1.42 10.19-4.69.7-1.25-4.3-21.79-4.63-22.38-.62-1.11-.88-.61-4.07-1.65l-16.13-2.43c-2.23-.61-2.15.22-1.51 2.68l1.73 16.91c-.75.15-12.81-2.76-12.81 4.83 0 3 6.23 5.7 11.41 3.29 7.1-3.3 5.71-2.34 5.25-7.93-.28-3.33-1.96-8.67-1.28-11.28 1.37-.28 7.93.87 9.35 1.23 5.33 1.37 6.25-.11 6.59 3.88.14 1.64 2.22 7.75 1.45 8.37l-.03-.14z"/><path class="fil1" d="M142.28 134.57c1.37 0 1.09-.67 2.07-2.74.31-.67 1.23-2.34 1.17-3.1-5.8-1.69-9.15 2.98-6.25-3.4l1.59-3.32 6.78-.14c2.98-6.83 3.94-5.53-4.38-5.44l2.57-5.72c7.67 0 6.78.82 8.48-2.9l1.14-2.96c-1.7-.34-12.08.11-15.68.11-3.54 0-1.29-1.43-5.13 6.2l-10.05 22.77c-.42.78-.14.73.87.73l16.88-.17-.06.09z"/><path class="fil2" d="M27.94 76.58c-5.02 0-2.23-2.05-9.43 2.06-4.99 2.85-8.74 7.71-10.08 8.65-4.49 3.16-3.65 6.22 1.28 7.37 1.62.39 4.07-.59 6.56.81-.3.94-7.72 4.6-9.35 7.09-1.34 2.05 2.04 3.87 4.74 2.48l14.21-8.4c4.2-2.56 2.54-4.94.61-5.78l-9.32-1.23c-3.22-.09-.87-1.51 1.09-3.43 1.01-.99 3.3-3.2 4.77-3.24 0 5.05 3.04 5.76 6.11 1.9 5.76-7.25 10.22-8.12 6.84-11-3.6-3.06-6.78 2.74-8.01 2.74l-.03-.03zM232.56 123.22c.64-1.72.53-2.85 1.37-2.85.01 0 6.5.77 2.32 5.36-1.42 1.56-4.69 1.84-4.69.84l1-3.35zm-12.36-1.17c0-3.95 7.7-7.36 11.19-7.09v1.23c-9.75 1.69-6.99 6.81-6 6.81.4 0 6.13-5.88 4.02-.45-1.67 4.3.31 5.22-4.41 3.88-1.79-.5-4.72-2.37-4.72-4.35l-.08-.03zm16.27-11.75c-.43-1.49 1.53-3.31 2.68-4.38 2.68-2.49 8.6-2.26 3.07 2.01-.87.67-4.74 2.37-5.78 2.4l.03-.03zm-2.01 5.58c0-3.61 8.94-3.53 12.95-9.46 1.6-2.36.32-8.04-10.02-1.84l-3.8 3.91c-1.89 2.89 1.94 1.26-5.67 3.88l-6.92 2.68c-2.73 1.33-5.02 4-5.02 7.2 0 1.93 2.2 4.02 3.82 5.13 4.58 3.13 4.88 1.84 6.81 2.6.53 1.98-.78 3.79-2.18 5-1.17.92-2.6.45-2.96.45.18-1.63 4.21-1.98.87-4.61-2.12-1.66-8.66-1.09-7.93 2.65 1.1 5.61 10.07 4.93 12.67 2.71l3.15-5.36c.26-1.42 3.78-1.24 6.81-2.32 5.88-2.1 7.52-8.56-.34-11.22-1.02-.35-2.26-.38-2.26-1.4zM184.17 99.77c0-2.56 7.08-13.89 2.99-15.96-3.49-1.77-5.16 2.55-5.89 5.47-.47 1.9-2.37 5.02-3.01 7.2-.28.92-.39 1.9-.61 2.71-.78 2.6-1.12 1.2-.42 4.47.42 1.95 2.57 3.4 4.21 3.4 1.02 0 6.3-2.23 7.4-3.63 1.41-1.8 1.1-.62 1.28 0 .31 1 1.09.73 2.62 1.03 2.69.53 2.82 3.45 4.97-4.07l5.22-16.3c.47-1.31 1.62-2.76 1.23-4.41-.2-.78-2.37-3.68-4.86-1.76-3.14 2.42-4.57 5.34-6 9.02-1.99 5.12-3.72 8.09-7.54 12.64-1.18 1.41-1.57.21-1.59.19z"/><path class="fil2" d="M159.67 97.46c0-2.26 1.83-5.9 3.6-7.45 1.7-1.48 1.81-3.52 2.99-3.52 2.09 0 3.4 7.28 1.84 9.29-1.16-.26-3.72-5.32-5.41-.73-.56 1.54-.14 2.01 1.06 3.13 4.99 4.66-4.08 1.92-4.08-.73zm-6.78.31c0 3.18 2.09 4.63 4.16 6.39 2.54 2.15 3.74.95 6.64 1.48 1.81.34.81.47 3.27.47 1.12 0 2.32-1.76 3.4-.73 3.62 3.52 9.5 3.01 5.97.06-1.54-1.28-1.54-2.07-2.34-2.65-3.62-2.63 1.2-1.1 1.2-8.74 0-3.92-1.15-10.8-5.08-13.34-.87-.56-6.13-.87-8.07.98l-5.55 7.2c-2.2 1.95-3.65 8.23-3.6 8.88zM216.94 98.68c-.34 0-5.16 1.26-6.22 1.7-3.99 1.7-2.65-1.06-2.4-3.27.36-3.02 7.91-.34 11.3-2.96 2.15-1.65 1.23-4.6-3.6-4.6-1.37 0-8.16 2.88-3.35-3.15 3.58-4.49 1.38-3.36 3.88-1 4.5 4.25 8.47-3.5 1.73-7.65-5.47-3.37-10.55 3.75-12.5 7.93-.44.94-6.77 16.66-4.1 19.06 3.23 2.92 7.11 2.68 11.33.98.11-.04 7.22-1.24 6.73-4.94-.2-1.48-1.94-2.12-2.79-2.12v.03zM189.47 106.41c0 2.25 5.83 11.54 7.31 13.76.78 1.2 1.31 2.62 2.07 3.66 3.69 5.07-1.84 1.32-5.72 3.35-10.08 5.25-.65 12.19 7.09 9.52.56-.2 3.54-1.98 4.24-2.9 2.85-3.76 2.65-1.52.25-6.86-.87-1.95-3.29-4.55-4.1-6.45-2.45-5.73-6.86-8.49-1.65-7.48 3.55.68 9.26 2.25 10.88 5.8.5 1.12 1.4 3.18 1.4 4.41 3.69-.07 2.12-7.61-.39-9.74-4.66-3.96-12.87-4.79-17.72-7.28-1.08-.55-3.63-1.12-3.66.22zM38.18 88.16c0-.47 1.26-2.46 1.65-3.1 2.51-4.1 4.38-1.06 4.38-.78 0 2.09-.78 1.51-1.2 2.54-.45 1.14.56.84-.73 2.34-.7.84-1.65 3.27-2.48 3.77-1.18-.67-1.65-3.06-1.65-4.8l.03.03zm1.45 13.62c2.04 0 5.36-4.88 5.36-4.88l2.29-4.72 2.93-4.8c.64-2.76-1.84-2.74-1.84-3.71.18-5.33.92-3-1.62-5.44-1.12-1.09-3.43-2.43-5.36-1.7-6.24 3.28-8.93 9.21-8.99 9.27-.73.73-1.23 1-1.03 2.48.46 3.38 3.47 13.48 8.23 13.48l.03.03zM197.34 22.58c.03-1.12 1.06-1.28 1.84-.92-.14.39-.31.56-.56.92h-1.28zm-20.68 2.93c0 1.79 2.85 1.28 3.66 1.2-.11 1.09-6.09 4.33-6.98 5.5.08.36.14.36.2.78 1.95.14 1 .59 4.02-1.4.81-.54 7.87-4.17 7.87-5.41 0-1.73-4.38-.22-4.38-1.7 0-.61 1.34-1.26 2.01-1.4 1 1.28 1.45 1.45 2.32.39 1.14-1.4 3.54-2.48 3.54-1.34l-2.23 8.32c-.78 2.37-.31 2.51 1.51 2.51l2.96-10.19c.56-1.31 1.98-1.51 3.27-1.26 0 5.02-5.17 10.35-1.12 10.35 1.93 0 .67-7.02 4.27-3.91 2.57 2.23 2.96 3.74 4.52 3.74.21 0 2.85-2.7 4.77-2.32 0 0 .59 3.23 2.23 1.12l2.18-6.45c.61-2.2 2.26-4.05-.22-4.05-2.5 0-3.71 7.06-5.83 7.73 0-1.79 1.09-2.99 1.28-4.8-3.74-2.12-3.01 2.96-4.74 5.72-1-.22-3.01-2.51-3.49-3.24.43-.54 6.7-2.96 3.6-5.05-1.4-.98-2.54-.45-4.66-.7-3.77-.43-7.39.87-12.28.81-4.61-.06-8.23 4.7-8.23 5.11l-.03-.08zM252.6 26.9c0-1.49 2.05-4.63 2.74-4.63 2.4 0-.19 5.69-1.65 6.5-.56-.39-1.09-1-1.09-1.87zm-11.72-5.41s.41 3.16-.92 2.93c-.95-.59-.73-2.93-2.74-2.93-2.85 0-2.01 6.42-3.96 6.22-2.54-.25-1 .45-3.71.45-.96-3.62 5.13-.32 4.19-3.71-2.09-.42-3.88.2-2.54-1.2.73-.75.5-.61 1.06-.64.27.65 1.83 1.54 2.07-.14.38-2.66-3.65-4.28-6.17.7-.57 1.13-2.48 5.68-1 6.67 1.7 1.12 4.27-.08 5.64-.11 0 1.51-1.51 3.4.36 3.4 2.05 0 3.61-7.89 3.66-8.04 1.67.03.75.45 1.37 3.18.25 1.17.45 2.71 1.93 2.71 1.86 0 2.86-9.39 4.94-9.27l1.45.17c.31 1.17-3.06 8.48-2.37 10.69 1.23.08.22.31 1.84 0l1.76-6.39c.95-2.34 1.12-4.88 3.74-4.88 2.53 0-2.43 2.67-1.62 5.72.34 1.28 2.9 4.35 3.82 4.35 1.9 0 4.52-5.81 5.08-7.48.59-1.78-3.48-4.44-5.25-4.44-4.02 0-3.1.61-6.39.61-2.2 0-.45-1.87-2.93-1.87-.78 0-.92 1.23-1.54 1.79-.6.55-1.76.68-1.76 1.62v-.11zM136.25 30.48l2.04-6.33c1.59-3.6.59-2.43.17-3.74-3.55 0-3.78 6.67-6.42 7.28-.19-2.03 2.98-4.94.2-4.94-2.15 0-2.34 3.77-2.87 5-1.37 3.1.61 3.14 3.52 2.32 1.34-.39.84-.11.84 1.03 3.94 2.23 4.31 2.31 6.84-2.57.39-.73.78-1.14 1.76-1.14 1.34 0 .92 1.98 1.45 2.79l1.34 1.95c.45 1.12 2.51.08 3.1-.08 3.24-.87 6.28.45 8.21-1.42-1.9-2.57-1.84-.33-5.86-.95-2.72-.42 2.37-5.61 2.37-9.29 0-.63-1.87-1.53-3.49 3.27l-1.73 4.58c-.28 1.14-.73 2.26-1.93 2.54l.34-5.53c-.8-3.24 1.13-10.75-5.86-.36-1.19 1.77-2.85 5.35-3.99 5.61z"/><path class="fil1" d="m85.01 25.68.92.47c-.03 3.24-5.67 6.53-5.67 4.02 0-1.76 2.79-7.35 4.77-7.42 1 1.67.08 2.14 0 2.96l-.03-.03zm-3.18-5.83c-1.52-1.05-2.91 2.26 1.7-6.08 4-7.23 1.9-7.57 7.17-5.64 2.48.98 6.17 2.4 6.17 5.16-.56.17-1.17.28-1.65.47 0 9.51-2.74 9.26-2.74 12.06 0 .02 1.89 2.98-.31 5.47l-3.1.5c-1.49-2.83 3.38-10.23-4.27-10.63-4.32-.23-3.46 1.61-6.06 1.98.3-.69 3.04-2.14 3.04-3.29h.03zm-6.17 5.78c.2.28 1.48.67.25 2.6-.56.87-2.04 2.07-2.09 2.71 1.7-.22 2.09-2.18 3.57-3.46l4.47-4.63c-.2 1.09-2.04 1.98-3.54 5.72-.95 2.32.64 5.89 5.25 3.49 1.95-1.03 3.77-3.63 3.8-5.81.81.31.56.61.56 2.54 0 2.48-2.48 4.1 3.13 3.88 2.55-.1 3.45-2.66 3.82-4.97 0-.73-.78-1.26-1.28-1.51.14-1.51 1.84-4.94 3.46-6.59 1.37-1.37 6.39-3.57 6.61-3.85-2.33-.61-6.69 3.18-7.42 3.18-.11-.78.39-3.04.5-3.96 1-.31 1.67-.31 1.54-1.45-.28-2.23.28-1.76-2.6-3.85-2.02-1.48-7.99-4.67-9.8-2.79L76.96 23.6l-1.28 2.04z"/><path class="fil2" d="M220.03 23.97c-.47-.81-.34-2.48-1.84-2.48-1.73 0-1.48 2.29-2.93 2.62 0-1.65 1.37-4.19-.2-4.19-1.9 0-1.84 1.93-2.51 4.21-1.06 3.53-3.28 7.67-.22 7.67 1.28 0 3.1-4.1 4.02-4.63.33.21 1.71 3.54 4.38-.17.61-.87 1.06-1.93 2.2-2.01 0 2.7-2.03 5.89 0 5.89 1.9 0 2.04-3.85 2.87-6.36.84-2.48 2.46-4.24 1-5.55-1.34-1.23-2.2.22-2.54.7l-4.24 4.27v.03zM172.84 24.59c-2.15-.05-.61-2.93-3.49-2.93-.89 0-.84 1.12-2.01 1.4 0 0-.92-2.34-2.48-.7-.67.73-1.4 4.44-1.81 5.72-.73 2.15-1.37 3.74 1.4 3.8 0 2.23 1.96 2.31 2.96-1.2 2.63-9.27 3.02-2.05 3.27-1.56.7 1.42.7 2.26 1.84 2.48 1.93-1.8 3.12-6.77 4.27-9.38.92-1.9 2.23-3.77.47-3.77-1.69 0-4.02 4.82-4.41 6.17v-.03zM115.74 32.01c0 .59.84 1.87 1.45 1.87 3.6 0 3.93-2.76 6.39-3.24 1.34.75.45 1.56 2.93 1.09.23-.8.28-3.55 2.26-5.53.67-.67 1.12-2.07.11-2.07-2.87 0-1.87.25-3.91.56-1.2.17-2.68-.2-2.68 1.14 0 1.28 3.82.03-.78 3.35-.59.42-2.15 1.54-2.87 1.59l4.05-7.28c3.16-3.46 2.54-1.39 5.11-1.39 1.98 0-.08-5.59-4.6-2.04-2.17 1.71-5.25 5.17-5.83 7.93-.11.53-1.65 3.57-1.65 4.02h.03zM102.4 20.12c-3.28.22-6.97 9.21-4.63 10.41 3.26 1.68 5.92-1.05 5.92-1.62 0-1.28-3.46-.64-3.46-.64.06-2.09 3.85-1.12 3.85-2.62 0-1.6-3.14.53-2.54-2.32 1.9-.36 1.12.03 2.57.31 0 0 2.15-2.65-1.48-3.4l1.48-1.26c1-1.56-.59-1.23-1.45-.45-.5.47-.59.89-.2 1.54l-.06.06zM113.37 31.87c2.07 0 1.81-3.46 2.96-6 1.31-2.93.5-2.74.17-4.05-2.12 0-2.47 3.28-3.27 5.92-.25.75-1.2 4.13.14 4.13z"/><path class="fil1" d="M92.33 15.01 91.6 18l-6.7-3.57c-.34.87-.08.67 1.34 1.54 5.96 3.62 7.37 4.37 7.37-1.14 0-1.4-2.23-1.7-2.62-2.79 1.12.2.67.47 1.7.61.17-1.3-1.98-2.05-3.29-2.48-3.29 2.1 2.91 2.67 2.93 4.86zM62.88 25.87c1.31-.11 2.23-1.56 1.84-2.54-1.03.22-1.84 1.42-1.84 2.54z"/><path class="fil0" d="M197.34 22.58h1.28c.22-.36.42-.53.56-.92-.78-.36-1.81-.2-1.84.92z"/><path class="fil1" d="M31.65 30.28c.98-.11 1.56-1.03 1.59-1.95-.75.31-1.62 1.06-1.59 1.95zM42.93 30.31l1.65-1.87c-1 .2-1.56.81-1.65 1.87zM20.24 27.85l2.04-.17-.56 1.54.86-2.12z"/><path class="fil2" d="M168.63 30.17h.92l-.37-1.09z"/></g></g></svg>