<svg xmlns="http://www.w3.org/2000/svg" xml:space="preserve" width="230.032" height="185.177" style="shape-rendering:geometricPrecision;text-rendering:geometricPrecision;image-rendering:optimizeQuality;fill-rule:evenodd;clip-rule:evenodd" viewBox="0 0 140.25 112.9"><defs><style>.fil1{fill:#fc0}</style></defs><g id="Camada_x0020_1"><g id="_2071394358592"><path d="m60.63 21.2-7.04-.12c-4.12.07-7.9-.15-11.02 3.7-2.51 3.11-1.95 7.32-3.16 11.64-.37 1.32-.53 5.38-1.23 6.15-.48.52-2.3.93-4.05 3.27-1.74 2.32-1.18 2.65-1.86 5.72l-2.14 12.49c-.16 1.96-1.93 2.75-2.47 4.81-.76 2.88-1.69 9.34-2.26 12.58-.2 1.11-.35 1.97-.48 3.13-.17 1.6.16 1.96-.84 2.89-4.72 4.41-3.4 9.61-4.29 10.51-.62.29-1.22.3-2 .23.02-1.56.16-2.24.52-3.46.4-1.34.33-2.05.49-3.49.34-2.9.01-4.49-1.74-6.07-3.77-3.42-12.71-1.99-14.51 5.81L1.39 97.9c-.87 6.11-2.74 9.63.2 12.93 1.26 1.42 3.1 2.13 5.86 2.08l23.96-.19c31.9-.09 63.78-.52 95.67-.64 2.99-.01 4.29.03 6.53-1.28 1.6-.93 3.12-2.34 3.97-4.09.64-1.33 1.32-4.88 1.46-6.56.43-5 4.32-13.52-4.75-16.86-2.34-.86-4.67-.71-7.4-.65-1.2.03-2.52.09-3.6.32-1.01.21-2.19.92-3.17.94 1.15-2.9 3.14-12.38 2.21-15.28-.19-.61-.83-1.89-.88-2.15-.1-.54.54-1.54.75-2.14.29-.85.35-1.59.27-2.61-.12-1.64-.71-1.55-.36-2.27.57-1.17 1.59-1.99 1.63-4.52.02-1.25-.5-1.84-.47-2.68.02-.69.68-1.25.99-2.09.62-1.67.77-3.55.04-5.14-1.27-2.73-3.09-1.67-3.35-5.64-.07-1.02.57-1.28.94-2.14.93-2.12.51-3.14.26-5.25-.13-1.07 1.29-2.63 1.49-4.42.45-3.94-2.17-5.98-5.16-6.75-2.52-.65-8.89.01-11.8-.02-.18-2.72 1.2-7.61 1.58-10.41.55-4.03-1.42-6.86-3.64-8.45-2.6-1.88-6.35-2.1-10.27-1.86-1.64.1-3.63.47-5.07 1.02-2.87 1.1-3.72-2.44-9.6-.14-3.56 1.4-.55 1.2-4.11-.2-4.66-1.83-10.43.99-12.14 5.03-.86 2.02-2.45 12.9-2.82 15.41z" style="fill:#000"/><path class="fil1" d="m106.16 61.19.41-2.8c4.43-.5 10.5 1.11 11.3-1.95.75-2.85-1.75-2.66-3.84-2.62-2.09.04-4.68.12-6.73-.05l.64-2.75c2.7-.15 8.1.58 9.92-.68.84-.59 1.84-2.26.66-3.46-.8-.81-3.76-.45-5.02-.44-1.7.01-3.42-.06-5.11.16-1.72.23-3.22-.59-4.37.63-1.29 1.37-3.62 16.78-3.14 17.79.51 1.08 3.3.7 4.57.7 1.76 0 9.05.34 10.14-.49 1.05-.8 1.84-2.32.66-3.41-1.32-1.22-7.69-.44-10.09-.64zM72.37 15.35c.95.25 1.05 1.17 1.51 1.98.4.7.79 1.29 1.26 2.1l2.42 4.56c1.36 1.56 3.89.2 4.52-1.35.34-.84.34-1.87.5-2.86l1.53-9.06c.25-2.07 1.27-4.69-.79-5.36-1.77-.58-3.41.45-3.76 2.98-.17 1.2-.39 1.84-.59 2.82-.17.85-.14 2.54-.44 3.08-.99-.4-4.14-7.5-5.43-8.48-1.67-1.28-3.95 0-4.43 1.53-.55 1.79-1.71 9.52-2.11 12.04-.26 1.64-1.35 4.89.83 5.35 2.43.52 3.46-1.28 3.8-3.21L72 16.9c.11-.66.06-1.07.35-1.55zM123.87 97.1c-.89 0-1.2-.02-1.05-1 .6-3.92 4.7-4.98 6.04-2.91.6.93.2 2.8-.03 3.89l-4.97.03zm-1.75 4.53 5.95-.14c-.1 1.16-.73 3.67-.28 4.57.57 1.15 2.6 1.11 3.65.39 1.35-.93 1.16-1.8 1.49-3.53.28-1.48.48-2.75.75-4.25.44-2.43 1.52-6.39.39-8.54-1.24-2.36-3.99-2.65-7.52-2.49-10.14.48-7.93 8.82-9.76 15.28-.4 1.43-.79 3.28.61 3.86 1.48.62 3.01.06 3.69-1.02.77-1.24.61-2.65 1.04-4.12zM90.91 14.41c-.36-2.26 1.23-4.35 3.14-4.64 3.11-.47 3.76 2.16 2.82 4.58-.65.24-5.2.3-5.96.06zm5.05 4.61c.09 1.28-.71 3.8-.08 4.73.84 1.23 3.1.65 3.94-.18 1.15-1.15 1.63-6.8 2.03-8.89.81-4.21 2.07-9.57-5.17-9.54-1.69.01-3.8-.2-5.31.33-2.64.93-4.42 2.64-4.99 5.81-.51 2.85-.96 6.37-1.67 9.15-1.43 5.54 3.1 4.57 4.45 2.69.51-.71.46-1.88.72-3.16.19-.98-.07-.74.54-.97.47-.18 4.77-.02 5.53.05z"/><path d="M80.54 85.91c1.93 1.29 4.07.92 4.82-1.56.58-1.93.71-4.86 1.2-6.84.79.37.61.66 1.32 1.23.48.39.91.53 1.8.44 1.91-.21 1.92-1.42 2.87-1.9.04.89-.26 1.7-.41 2.6-.16.92-.16 1.87-.37 2.84-.43 1.96-.48 3.93 1.88 3.87 2.12-.05 2.64-1.39 3.01-3.32.49-2.57 1.31-9.19 1.81-10.84.45-1.51 1.09-3.73-.44-4.73-3.01-1.96-5.81 4.04-7.59 4.6-1.36-1.23-2.06-3.84-3.48-4.77-.98-.64-2.43-.12-3.11.48-.92.81-.95 1.75-1.17 3.17-.53 3.42-2.49 11.48-2.13 14.74zM57.18 34.64l.62-.17.01-.06c2.48-1.25 5.37-4.58 2.62-7.77-2.1-2.47-6.4-1.14-9.67-1.3-4.17-.19-3.77 2.69-4.93 7.94-3.03 13.82-3.4 11.79 4.43 11.93 2.21.03 4.52.17 6.16-.92 3.12-2.05 3.87-5.55 2.09-7.55-.89-1.02-1.7-.86-1.33-2.11h.01zm-7.9 5.63c.98.78 2.39.92 4 .64 1.19-.19 2.39-1.61 1.68-3-.7-1.42-6.12-2.11-5.68 2.36zm2.53-6.6 2.87-.03.72-.5c.25-.19.35-.22.63-.53 1.39-1.44.91-3.05-.88-3.3-1.42-.22-4.05-.19-4.32 2.14-.15 1.14.58 1.55 1.02 2.25l-.03-.03zm37.51 6.9-2.58.02c-.48-.67-.49-1.02-.85-1.66-5.64-1.18-4.98 3.71-2.05 5.59 1.38.89 9.44.67 11.21.22 1.6-.41 2.57-2.18 1.68-3.79-.65-1.18-1.88-2.45-2.7-3.39-.98-1.12-1.83-2.33-2.68-3.39-.62-.76-2.49-2.6-2.27-3.64l4.99-.17c.72 1.23 1.91 2.87 3.97 1.43 1.81-1.27 1.15-2.92-.05-4.26-1.2-1.33-2.4-1.5-4.69-1.54-1.56-.03-4.7-.15-6.03.22-.87.24-3 1.79-3.55 2.69-2.56 4.22 1.49 5.92 3.04 7.88l2.13 2.7c.36.44.48.47.43 1.09zM71.77 30.7c3.62-1.04 3.82 3.05 2.95 4.22-.45.61-4.23.44-5.05.34-1.15-.13-.93-.79-.62-1.88.47-1.63 1.24-2.26 2.73-2.69zm-3.7 9.26 5.8-.13c.04 1.06-.79 3.72-.25 4.54.62.93 2.67 1.06 3.67.45 1.57-.96 1.85-5.32 2.27-7.71.4-2.29 1.56-6.64.54-8.54-1.67-3.1-4.94-2.61-7.56-2.56-3.76.08-5.07.79-6.95 3.02-1.3 1.55-1.83 5.36-2.16 7.83-.18 1.33-.35 3.19-.62 4.43-.27 1.25-.74 3.26.61 3.77 1.47.56 3.04-.07 3.59-1.02.59-1.02.58-3.07 1.06-4.09zm36.96.52.25-2.63c3.83-.87 10.16 1.36 11.49-2.19.42-1.11-.25-1.89-.86-2.28-1.36-.86-7.5.19-9.02-.19-.83-.21-.7-.99-.44-2.48 1.94-1.18 7.42.24 9.57-.69 1.17-.51 2.37-1.45 1.72-3.13-.55-1.42-2.57-1.11-4.26-1.09-1.54.02-9.35.01-10.14.39-1.66.8-2.13 5.92-2.46 8.33-.28 2.08-1.54 7.21-1.35 9.13.18 1.83 2.33 1.35 4.11 1.36 1.4 0 9.51-.02 10.34-.3 1.11-.37 2.29-2.41 1.04-3.51-1.37-1.2-7.63-.66-10.01-.74zM50.97 72.52c-.23 3.86-2.1 9.36-1.79 13.45 1.25.99 2.14 1.67 3.68.39 1.53-1.27 1.83-6.21 2.37-9.07.17-.91.6-4.13.86-4.68.01-.99.11-.79-.85-1.09-2.8-.87-.25.55-3.8.01-.03.04-.05.1-.07.14-.02.03-.05.1-.07.14-.02.04-.04.09-.06.13-.02.04-.04.09-.06.13-.25.55.12.09-.22.46zm9.61-.65h6.01c.31 5.47-3.32 13.18-1.2 14.48.52.32 1.14.61 1.79.39 2.86-.95 2.72-3.54 3.2-6.61.24-1.52 1.05-7.29 1.63-8.14 3.56-.22 6.66.34 8.19-1.56 1.15-1.43-.03-3.06-1.76-3.06l-13.77.12c-1.08 0-1.89-.28-2.14.67-.25.95-.17 1.46-.69 2.17-.5.67-1.16.75-1.26 1.55zm-19.47-2.12c.09.08.4.6.39.9-.01.74 0 .14-.16.41-.89 1.58.06-.92-.29.45 4.01.11 2.21 3.03.93 4.48-1.14.11-3.05.26-3.82-.3-1.01-.73-.45-2.07-.51-3.41-.96-.07-2.18.08-3.11-.14-.68-.16-.42-.03-.76-.34-.7-.09-.22-.12-.94-.25-.44 1.62-1.96 10.04-1.72 11.53 1.17.28 2.42-.12 3.02.65.75.26.56.47 1.38.42.35-1 .37-2.97.78-3.76 1.29.11 1.09 2.61 2.97 2.73 1.71.11 3.84.05 4.35 1.72l.22 1.24c.52-.03 1.03-.58 1.15-1 .56-1.89-1.84-3.85-1.94-5.14.55-.44 1.27-.47 1.93-.91 1.05-.71 2.03-1.98 2.69-3.02.56-.88.39-1.49.73-2.14l-.02-1.97c-1.63-.43-1.65.44-3.29-.79-.15-1.38.49-1.64.23-3.29-.8-.29-2.07-.41-2.99-.23-1.17.23-1.39.81-1.22 2.17zm70.37 4.83c-.34 2.05-.4 5.95-1.93 6.77-1.21.65-5.6 1.53-4.91-2.38.3-1.71.53-5.68 1.94-6.65.93-.64 2.47-.82 3.6-.55 1.52.36 1.55 1.3 1.3 2.81zm-6.22 11.94c3.32-.01 5.43.09 7.62-1.65 2.54-2.02 2.24-2.94 2.95-6.49 1.24-6.23 2.99-11.29-5.56-11.29-3.2 0-5.72.01-7.98 2.56-1.53 1.73-1.75 3.88-2.14 6.39-.29 1.83-1.3 5.9-.53 7.58 1.03 2.24 2.94 2.91 5.64 2.9z" style="fill:red"/><path class="fil1" d="M106.83 91.82c.69-.18 1.74-.18 2.57-.14 2.77.12 1.59 3.98-.25 4.45-5.34 1.33-5.05-3.58-2.32-4.3zm-2.99 8.71c.78.02.38-.07 1.43 1.58 1.26 1.97 2.62 5.01 4.29 5.05 1.54.04 3.44-1.42 3.1-2.81-.31-1.28-1.7-2.94-2.18-4.04.59-.62 2.96-1.07 4.56-3.8 1.13-1.94 1.52-4.58.29-6.62-1.39-2.32-6-2.46-8.61-2.1-.57.08-1.3.3-1.99.24-1.51-.14-2.21-.4-3.29.6-1.15 1.07-1.38 4.54-1.76 6.62-.32 1.73-2.06 10.01-1.36 11.09.57.88 2.11 1.15 3.25.48 2.28-1.34 1.36-3.74 2.25-6.29z"/><path d="M60.61 56.11c-.22-2.56 1-4.64 3.53-4.73 3.3-.12 3.25 2.31 2.26 4.73h-5.78zm-3.88 12.67c.02-.91.34-2.51.62-3.29.43-1.17 1.44-.9 2.59-.5.09.71-.17 3.21-.51 3.64-.17.21-1.18.69-1.42.7-.55.04-.8-.32-1.29-.56zm2.58 2.35c1.54-.86 2.22-1.09 2.48-3.36.13-1.1.35-1.69.48-2.55.2-1.35-.38-1.3-.71-2.1-8.12-2.9-7.23 6.46-6.64 7.26.89 1.21 2.69.82 4.38.75zm-24.32-8.15c-.15.72-.59 1.06-.94 3.72-.13 1.03-.63 3.43-.47 4.3l1.05.5c1.26.05 2.5.07 3.76.05 1.38-.02 2.18-.3 2.16-1.65-1.4-.61-3.35.11-4.67-.35-.2-.49-.17-.87 0-1.39 1.04-.49 3.35-.06 4.67-.28l.08.14c.22-.58.52-.85.4-1.64-1.63-.74-5.09.5-4.55-1.21.4-1.28 4.98.74 5-1.5.01-.93-.28-.93-1.11-.95-1.53-.04-4.08-.05-5.38.26zm11.18 6.04c.05.86-.22.99-.3 1.83.7.31.59.47 1.53.46.34-.6.74-.4.88-1.73.07-.64.1-1.89.29-2.43.65.09.69.52 1.43 1.89.25.46 1.21 1.91 1.26 2.11 1.91.55 1.97-1.52 2.26-3.16.3-1.62.78-3.5.4-5.2-.69-.36-1.35.09-1.65.48-.52.68-.27 1.77-.56 3.35-1.14-.44-.84-1.4-1.53-2.27-.85-.69-.46-1.16-1.61-1.75-2.25-.41-1.72 5.62-2.41 6.42zm-7.14 17.07c1.71-.91 3.45 2.08-.13 1.95-.84-.03-.71.16-.88-.42-.23-.8.55-1.27 1.01-1.52zm-3.64 6.36.81-.14c1.6-.38 1.11-.81 1.47-2.33l2.63-.01c.18 1.1-.36 1.71.32 2.46 1.69.07 1.64-.8 2.2-3.55.15-1.22.47-2.93.03-4.14-.57-.97-5.04-1.67-6.37.47-.72 1.16-1.53 5.71-1.1 7.24zm-5.43-6.28c.81-.24 1.74-.26 2.42.12.5 2.55-.61 5.13-3.15 4.23l.72-4.36zm2.51 6.16c1.29-1.07 1.42-.64 2.14-3.65.9-3.78-.14-3.81-.59-4.5-.87.01-.42-.55-3.6-.21-1.04.11-2.12-.44-2.56 1.19-.25.92-.28 2.49-.5 3.6l-.54 2.67c-.01.89-.06.48.24.75.85.75 4.35.07 5.42.15zm15.71-36.16c-.99 3.85-.59 5.54-5.15 5.7-.9.03-1.65.29-1.82-.52l1.32-7.4c.48-2.13-.4-2.68 1.92-2.65 3.61.05 4.68 1.13 3.72 4.88zm-6.7 6.11c1.4.83 1.04 2.43-.3 3.06.19.86-.05.75 2.04.79.82.02 1.96-.08 2.62.03.33-1.35.4-1.47.51-3.04.39-.37 1.46-1.29 2.21-1.22.68.07 1.7 1.17 2.02 1.83.68-.21.4-.11.84-.81 1.59-2.52 1.48-6.12 2.19-9.46 1.39-6.6-4.34-7.09-9.59-6.49-5.11.58-5.11-2.6-6.97 9.25-.16 1.02-.39 1.89-.5 2.86-.06.51-.05 1.04-.13 1.53-.12.73-.31.68-.33 1.41 1.45.14 4.43-.29 5.4.25zm13.2-1.82.01 2.94c1.18-.23 1.14-.93 2.72-1.24.2-.08 1.13-.16 1.55-.24 1.26-.23.32-.33.87-1.27l5.79-.09c.16 2.45-1.54 5.69 2.08 5.48 2.23-.13 2.82-2.6 3.05-4.83.5-4.67 2.93-10.34.13-13.04-1.71-1.65-3.49-1.46-6.41-1.4-3.06.07-4.12.2-6 1.81-2.77 2.37-2.52 5.03-3.09 8.72-.19 1.26-.54 2.07-.72 3.17z" style="fill:#fdfdfd"/><path class="fil1" d="m86.31 107.36 3.46-.15c3.32-.35 5.44 1.13 6.16-3.51.6-3.88 1.34-7.67 1.96-11.47.35-2.11.85-4.33-1.92-4.31-.98.01-1.81.57-2.31 1.15-.67.78-1.6 7.22-1.74 8.25-.28 2.08-.38 3.93-1.98 4.85-2.17 1.25-4.03.44-4.36-.98-.47-2.05 1.73-10.37 1.58-11.59-.26-2.04-3.34-1.79-4.46-.57-.88.96-1.02 3.66-1.29 5.31-1.01 6.33-3.65 13.01 4.89 13.01zM48.76 107.55l3.93-.05c3.25-.3 1.31-.03 3.04-.02 2.5.01 2.77-1.42 3.22-3.46.77-3.44 1.42-7.81 1.89-11.38.25-1.88 1.06-4.28-1.56-4.43-.89-.05-1.78.38-2.25.88-.91.98-1.66 6.7-1.91 8.12-.36 2.09-.25 3.74-1.76 5.02-1.26 1.07-3.58 1.25-4.47-.28-.98-1.68 1.32-9.05 1.23-11.84-.06-1.78-2.09-2.59-3.93-1.13-1.3 1.03-1.2 3.13-1.57 5.05-.36 1.89-.62 3.84-.95 5.73-.3 1.73-.94 4.24.26 5.71 1.1 1.35 2.53 2.07 4.82 2.07zM88.26 58.49c4.46-.21 10.16.98 11.17-1.89 1.11-3.16-2.99-2.63-3.82-2.63-2.02 0-4.55.13-6.5-.07-.14-.56-.11-1.41 0-2 .14-.79.47-.72 1.3-.74 1.72-.03 7.31.16 8.54-.44.91-.45 2.02-1.37 1.69-2.75-.51-2.15-5.3-1.49-7.36-1.49-.68 0-1.48-.03-2.14.02-.69.05-1.23.3-1.97.3-1.57-.01-2.44-.65-3.64.53-1.41 1.37-1.88 8.47-2.37 10.86-.29 1.43-.42 2.34-.66 3.82-.21 1.27-.86 2.3.18 3.32.96.93 2.6.63 3.44-.06 1.77-1.47 1.25-4.6 2.14-6.79zM77.83 101.48c-.98-.11-1.98-.05-2.97-.06-1.67 0-1.48-.15-2.57.6-1.46 1.01-3.23 1.33-4.84.34-1.35-.82-.19-3.58 0-4.99.27-2.01.28-3.85 1.96-4.47 3.14-1.15 4.46.77 4.75.94.71.41 2.17.2 3.03.17 1.15-.04 2.02.13 2.07-1.02.07-1.77-.94-3.31-2.28-4.08-2.04-1.16-8.36-1.19-10.8.42-.91.6-2.47 2.22-2.88 3.54-.76 2.46-.93 6.31-1.28 8.29-.2 1.14-.74.96-.28 2.58 1.22 4.24 4.52 3.72 9.19 3.62 3.67-.08 6.79-3.22 6.89-5.87zM36.21 92.31l-.65.08c.43.73.77.39 1.31 1.25.6.95.17.97.01 1.9-.12.73-.13 1.5-.22 2.27-.09.79-.32 1.43-.47 2.24-.45 2.31-.25 2.06-2.32 2.89-1.5.61-2.87-.13-3.89-.8-.13-1.04.61-5 .88-6.09.24-.97.13-1.93 1.04-2.42.62-.33 1.9-.89 2.62-.91l.15-.65c-.77.08-.99.32-1.63.57-.3.5-2.4.63-3.04.63-1.21-.01-2.31-.17-3.4-.38-.54.61-1.79 8.75-1.79 10.28 0 2.05 1.03 3.07 2.27 3.82 1.93 1.16 11.16 1.96 13.43-3.65.4-.98 1.93-9.32 1.78-10.45-.93.04-1.15.36-2.21.04l-.53-.36c-.23-1.17.29-2.06-1.25-1.82-.24.49-.25 2.18-1.48 2.04-.91-.11-.5-.13-.59-.48zM8.34 107.87c2.5 0 9.9.15 11.41-.23 2.25-.56 3.18-4.23.03-4.23l-8.76-.06c.46-1.08 1.3-7.73 1.77-9.68 1.82-7.58-3.36-5.06-4.19-3.64-.76 1.3-1.45 7.57-1.79 9.68-.19 1.17-1.5 6.18-.76 7.36.45.72 1.3.8 2.29.8zM31.12 89.42c.06-.91-.14-.44-.25-.59-.31.16-.41-.14-.46.57-.07.99.13.43.28.61.02-.06.39-.12.42-.59z"/></g></g></svg>