<svg xmlns="http://www.w3.org/2000/svg" xml:space="preserve" width="96" height="72" style="shape-rendering:geometricPrecision;text-rendering:geometricPrecision;image-rendering:optimizeQuality;fill-rule:evenodd;clip-rule:evenodd" viewBox="0 0 49.7 37.27"><defs><style>.fil0{fill:#fefefe}.fil1{fill:#2b2929}.fil5{fill:#fefefe;fill-rule:nonzero}</style></defs><g id="Camada_x0020_1"><g id="_2482724600528"><path class="fil0" d="M25.16.01c5.02.13 9.75 1.79 13.46 4.71 2.27 1.79 4.06 3.98 5.25 6.42 1.25 2.55 1.81 5.3 1.69 8.06-.47 10.14-10.24 18.37-22.1 18.06-5.02-.13-9.75-1.79-13.46-4.71-2.27-1.79-4.06-3.98-5.25-6.42-1.25-2.55-1.81-5.3-1.69-8.06C3.53 7.93 13.3-.3 25.16.01z"/><ellipse class="fil1" transform="matrix(.27047 .00712 -.00999 .21573 24.312 18.637)" rx="74.55" ry="82"/><ellipse transform="matrix(.25285 .00666 -.00934 .20169 24.312 18.637)" rx="74.55" ry="82" style="fill:red"/><ellipse transform="matrix(.20694 .00545 -.00764 .16507 24.312 18.637)" rx="74.55" ry="82" style="fill:#fefefe;stroke:#ed3237;stroke-width:.39;stroke-miterlimit:22.9256"/><path d="M35.02 6.58c-7.67 7.57-15.33 15.14-19.17 18.92l-3.83 3.78c1.03.45 2.06.91 3.09 1.36-.14.29-.27.57-.41.86 5.57-4.99 11.14-9.97 15-13.96 3.86-3.98 6.01-6.96 8.15-9.95l-2.82-1.02z" style="fill:#ed3237"/><path class="fil0" d="M22.08 16.26c-.24.24-.59.4-1.02.42l-.63.03c-.07.01-.14.02-.21.02l-.95.05c-.34.02-.66-.06-.93-.22-.24.17-.54.28-.9.3l-.62.03c-.07.01-.14.02-.21.02l-1.02.05h-.18c-.06.01-.12.02-.18.02l-1.09.06c-.16.01-.33-.01-.48-.04-.13.04-.28.07-.43.08l-.62.03c-.07.01-.14.02-.21.02l-.99.05c-.39.02-.72-.08-.97-.24-.51.26-1.08.44-1.7.47-.12.01-.24.01-.35 0-.16.03-.32.05-.48.06-.82.04-1.54-.21-2.03-.7-.22-.22-.37-.46-.48-.72l-.3.66c-.21.46-.67.84-1.35.88l-.62.03c-.07.01-.14.02-.21.02l-.99.05C.91 17.74.32 17.01.54 16.3l.06-.15 3.07-6.69c.21-.47.67-.85 1.36-.89l.62-.03c.07-.01.14-.02.21-.02l3.15-.17c.25-.01.49.03.7.11.41-.17.86-.28 1.34-.31.12-.01.24-.01.35 0 .16-.03.32-.05.48-.06.62-.03 1.18.1 1.64.38.25-.23.6-.39 1-.41l.63-.03c.07-.01.14-.02.21-.02l2.13-.11c.72-.04 1.35.21 1.74.66l.06-.08c.28-.39.72-.7 1.33-.73l.62-.03c.07-.01.14-.02.21-.02l.81-.04c.33-.02.66.06.92.22.46.28.6.72.52 1.14l-.64 3.35 1.85-4.02c.21-.47.67-.85 1.36-.89l.62-.03c.07-.01.14-.02.21-.02l1.6-.09c.81-.04 1.52.23 2 .72.04.04.08.08.12.13l.21-.3c.28-.39.72-.7 1.33-.73l.62-.03c.07-.01.14-.02.21-.02l.81-.04c.33-.02.66.06.92.22.46.28.6.72.52 1.14l-.6 3.13 1.75-3.82c.08-.17.2-.33.35-.47.25-.23.6-.38 1-.4l.63-.03c.07-.01.14-.02.21-.02l.99-.05c.48-.03.87.13 1.12.37.25-.26.61-.45 1.08-.47l.62-.03c.07-.01.14-.02.21-.02l3.3-.18h.24c.04 0 .07-.01.11-.01l.62-.03c.07-.01.14-.02.21-.02l.99-.05c1.02-.05 1.61.69 1.39 1.39-.02.05-.04.11-.06.16l-3.07 6.69c-.21.46-.67.84-1.35.88l-.63.03c-.07.01-.14.02-.21.02l-.99.05H43.06l-.62.03c-.07.01-.14.02-.21.02l-3.36.18h-.21l-.62.03c-.07.01-.14.02-.21.02l-2.97.16c-.43.02-.79-.1-1.04-.3-.24.22-.57.37-.99.39l-.63.03c-.07.01-.14.02-.21.02l-.95.05c-.34.02-.66-.06-.93-.22-.24.17-.54.28-.9.3l-.62.03c-.07.01-.14.02-.21.02l-1.02.05c-.23.01-.46-.02-.66-.09-.3.09-.61.15-.94.17l-.53.03-.31.03-1.75.09c-.45.02-.82-.11-1.07-.32zm4.65 3.32a.976.976 0 0 1 .01-.48c.04-.14.1-.27.18-.39l.01-.01.89-1.29c.12-.18.27-.35.47-.49.28-.19.63-.3 1-.3l.43-.01c.13-.03.27-.05.41-.05l.99-.02c.59-.01 1.1.28 1.29.7l.01.03.01.03c.07.2.07.4.02.6-.04.17-.12.33-.24.47l-.95 1.23c-.13.18-.28.35-.47.48.02.05.04.11.05.16v-.01c.08-.18.2-.35.35-.5.28-.26.67-.44 1.13-.44l.45-.01c.13-.03.26-.05.39-.05l2.82-.05c.55-.01 1.05.12 1.46.37.26-.22.62-.36 1.06-.37l.44-.01c.13-.03.26-.05.4-.05l1.31-.02c.59-.01 1.03.24 1.25.58.76-.42 1.62-.72 2.57-.73h.18c.22-.03.44-.05.66-.06.9-.02 1.7.25 2.28.77.57.5.84 1.14.95 1.79.12.71.04 1.44-.15 2.14-.08.32-.19.64-.32.95a9.09 9.09 0 0 1-1.54 2.52c-.59.69-1.3 1.33-2.17 1.83-.77.44-1.66.76-2.64.78h-.18c-.22.03-.44.05-.66.06-.89.02-1.69-.25-2.27-.77a.8.8 0 0 1-.13-.13c-.25.44-.73.79-1.4.8l-.44.01c-.13.03-.26.05-.4.05l-1.31.02c-.13 0-.27-.01-.4-.04l-.33.01a1.6 1.6 0 0 1-.39.05l-1.44.03c-.29.01-.56-.05-.78-.16-.2.09-.43.14-.69.15l-.44.01c-.13.03-.26.05-.4.05l-1.31.02c-.13 0-.27-.01-.4-.04l-.42.01c-.13.03-.26.05-.4.05l-1.26.02c-.65.01-1.1-.27-1.32-.65-.3.37-.76.65-1.37.66l-.43.01c-.13.03-.26.05-.4.05l-1.35.02c-.08 0-.16 0-.24-.01-.08.01-.16.02-.23.02l-1.44.03c-.29.01-.56-.05-.78-.16-.2.09-.43.14-.69.15l-.44.01c-.13.03-.26.05-.4.05l-1.31.02c-.59.01-1.03-.23-1.25-.57-.75.41-1.6.7-2.53.72h-.18c-.22.03-.44.05-.66.06-.89.02-1.69-.25-2.27-.77-.05-.04-.1-.09-.14-.13-.09.16-.2.31-.36.44-.28.23-.65.36-1.06.37l-.43.01c-.13.03-.26.05-.4.05l-1.29.02c-.37.01-.67-.08-.91-.23-.25.14-.54.22-.86.22l-.43.01c-.13.03-.27.05-.4.05l-1.29.02c-1 .02-1.57-.69-1.39-1.39.02-.07.04-.13.07-.19l3.42-8.02c.08-.19.21-.36.38-.51.28-.25.66-.41 1.1-.42l.45-.01c.13-.03.26-.05.39-.05l1.31-.02c.37-.01.67.08.9.24.24-.14.52-.22.83-.23l.45-.01c.13-.03.26-.05.39-.05l1.31-.02c.6-.01 1.03.24 1.25.59.76-.42 1.63-.72 2.58-.74h.18c.22-.03.44-.05.66-.06.9-.02 1.7.25 2.28.77.04.03.07.06.1.1a1.603 1.603 0 0 1 1.39-.76l.45-.01c.13-.03.26-.05.39-.05l2.82-.05c.75-.01 1.42.23 1.87.69.24.25.41.53.51.83l.56-.78c.17-.23.39-.44.67-.58z"/><path class="fil1" d="m37.58 20.71.17-.39c.13-.3.39-.54.78-.55l.56-.01c.08-.03.17-.05.27-.05l1.31-.02c.46-.01.72.33.62.7-.01.04-.03.09-.05.13l-.28.66c.4-.37.84-.71 1.34-.99.66-.37 1.4-.64 2.2-.65h.22c.2-.04.41-.06.61-.06.65-.01 1.23.17 1.69.57.46.41.68.94.77 1.49.11.65.03 1.32-.14 1.96-.08.3-.18.6-.3.89a8.89 8.89 0 0 1-1.45 2.38c-.55.65-1.21 1.24-1.99 1.68-.66.38-1.41.65-2.21.66h-.22c-.2.04-.4.06-.61.06-.65.01-1.23-.17-1.68-.57-.45-.4-.68-.91-.78-1.44l-.58 1.37c-.13.3-.38.54-.77.55l-.57.01c-.08.03-.17.05-.27.05l-1.31.02c-.1 0-.19-.01-.27-.04h-.01l-.58.01c-.08.03-.16.05-.25.05l-1.44.03c-.25 0-.49-.1-.59-.3a.71.71 0 0 1-.07-.35l-.04.09c-.13.3-.38.54-.77.55l-.57.01c-.08.03-.17.05-.27.05l-1.31.02c-.1 0-.2-.01-.28-.04-.03 0-.06.01-.09.01l-.57.01c-.08.03-.17.05-.27.05l-1.26.02c-.5.01-.73-.35-.68-.74l.09-.61-.7.01-.59.86c-.17.26-.44.47-.81.48l-.56.01c-.08.03-.18.05-.28.05l-1.35.02c-.08 0-.16-.01-.24-.03-.07.02-.15.04-.23.04l-1.44.03c-.25 0-.49-.1-.59-.3a.726.726 0 0 1-.07-.36l-.04.09c-.13.3-.38.54-.77.55l-.57.01c-.08.03-.17.05-.27.05l-1.31.02c-.46.01-.72-.32-.63-.7.01-.05.03-.1.05-.14l.26-.62c-.38.35-.81.67-1.27.94-.66.38-1.41.65-2.21.66h-.22c-.2.04-.4.06-.61.06-.65.01-1.23-.17-1.68-.57-.45-.4-.68-.92-.78-1.46l-.59 1.39c-.06.13-.14.26-.26.36a.81.81 0 0 1-.53.18l-.56.01c-.09.03-.18.05-.28.05l-1.29.02c-.47.01-.73-.33-.63-.7.01-.04.03-.08.05-.12l1.14-2.66h-.28l-1.25 2.94c-.06.13-.14.26-.26.36a.81.81 0 0 1-.53.18l-.56.01c-.09.03-.18.05-.28.05l-1.29.02c-.47.01-.73-.33-.63-.7.01-.05.03-.09.05-.13l3.41-8.01c.06-.12.13-.23.24-.33a.79.79 0 0 1 .54-.21l.58-.01c.08-.03.17-.05.26-.05l1.31-.02c.46-.01.71.34.61.7-.01.04-.02.08-.04.12l-.91 2.14.28-.01 1.02-2.39c.05-.12.13-.24.24-.34a.85.85 0 0 1 .54-.22l.58-.01c.08-.03.17-.05.26-.05l1.31-.02c.47-.01.71.34.61.7-.01.04-.02.08-.04.12v.01l-.29.68c.4-.38.85-.72 1.36-1 .66-.37 1.4-.64 2.2-.65h.22c.2-.04.41-.06.61-.06.65-.01 1.23.17 1.69.57.43.38.65.87.75 1.38l.56-1.3c.05-.12.13-.23.23-.32.14-.14.33-.22.55-.23l.58-.01c.08-.03.17-.05.26-.05l2.82-.05c.49-.01.93.14 1.24.46.3.31.44.69.49 1.08.06.44 0 .88-.11 1.31-.05.18-.11.37-.18.55-.01.02-.01.03-.02.05l2.17-3.01c.18-.25.45-.47.81-.47l.56-.01c.08-.03.18-.05.27-.05l1.07-.02c.5-.01.72.36.67.74l-.59 4.6 2.04-4.79c.05-.12.13-.23.23-.32.14-.14.33-.22.55-.23l.58-.01c.08-.03.17-.05.26-.05l2.82-.05c.49-.01.93.14 1.24.46.14.15.25.31.33.48zm-15.04 5.55.63-.88c-.19.17-.4.33-.63.46l-.01.41zm12.87-.46.11-.25-.1.07v.19zm-22.77.75c.05-.03.1-.05.15-.08.32-.2.6-.46.83-.73a4.168 4.168 0 0 0 .81-1.51c.06-.24.1-.5.06-.74a.683.683 0 0 0-.15-.35c-.05.03-.1.05-.15.08-.32.2-.6.46-.83.73-.27.32-.48.67-.64 1.04-.06.15-.12.31-.16.47-.06.24-.1.5-.07.74.02.12.06.25.15.35zm29.62-.53c.05-.03.1-.05.15-.08.32-.2.6-.46.83-.73a4.168 4.168 0 0 0 .81-1.51c.06-.24.1-.5.06-.74a.683.683 0 0 0-.15-.35c-.05.03-.1.05-.15.08-.32.2-.6.46-.83.73-.27.32-.48.67-.64 1.04-.06.15-.12.31-.16.47-.06.24-.1.5-.07.74.02.12.06.25.15.35zm-12.4-8.85a.93.93 0 0 1 .29-.05l.99-.02c.25 0 .47.12.56.32l.01.01.01.02c.04.11.04.22.01.34-.03.11-.08.21-.15.3l-.96 1.24c-.09.12-.19.25-.32.33-.14.09-.31.14-.49.14l-.54.01c-.09.03-.19.05-.3.05l-.88.02c-.2 0-.39-.07-.5-.21a.484.484 0 0 1-.1-.46c.02-.09.07-.17.12-.26v-.01l.88-1.28c.08-.12.18-.24.31-.33.15-.1.32-.15.51-.16l.55-.01zm16.48-10.2c.05-.01.1-.02.15-.02l.69-.04c.05-.01.09-.02.14-.02l.99-.05c.46-.02.71.33.6.69-.01.04-.03.08-.04.11l-3.07 6.69c-.12.26-.34.48-.69.5l-.69.04a.59.59 0 0 1-.14.02l-.99.05c-.06 0-.12 0-.18-.01-.04.01-.07.01-.11.01l-.69.04c-.05.01-.09.02-.14.02l-3.36.18c-.05 0-.11 0-.15-.01h-.06l-.69.04a.59.59 0 0 1-.14.02l-2.97.16c-.46.02-.72-.32-.6-.68.01-.04.03-.08.04-.11l3.07-6.69c.05-.11.12-.21.22-.3a.8.8 0 0 1 .47-.2l.7-.04c.04-.01.09-.02.13-.02l.99-.05c.46-.02.71.32.6.69-.01.04-.03.08-.04.11l-2.09 4.56.77-.04 2.26-4.92c.12-.26.35-.48.7-.5l.69-.04c.05-.01.09-.02.14-.02l3.3-.18c.07 0 .14 0 .2.01zm-1.6 2.55a.59.59 0 0 1-.14.02l-1 .05-.12.26.84-.04c.14-.01.26.02.36.07l.17-.37-.1.01zm-1.71 2.62c-.05.01-.09.02-.15.02l-.48.03-.14.3 1.24-.07.15-.32-.62.03zM30.61 9.63l1.07-1.49c.16-.22.39-.42.72-.44l.69-.04c.05-.01.09-.02.14-.02l.81-.04c.14-.01.28.02.39.09.24.15.29.38.24.62l-1.26 6.58-.03.1c-.08.27-.31.47-.64.49l-.7.04a.59.59 0 0 1-.14.02l-.95.05c-.15.01-.3-.03-.42-.11-.23-.15-.27-.38-.22-.61l.08-.38h-.05l-.5.73c-.15.23-.39.43-.71.44l-.69.04c-.05.01-.09.02-.14.02l-1.02.05c-.22.01-.4-.07-.5-.19-.34.14-.71.24-1.09.26l-.57.03-.26.03-1.75.09c-.46.02-.72-.32-.61-.69.01-.04.03-.07.04-.11l3.07-6.69c.12-.26.35-.48.7-.5l.69-.04c.05-.01.09-.02.14-.02l1.6-.09c.53-.03 1 .14 1.34.49.34.35.49.81.53 1.25zm-11.71.58 1.03-1.44c.16-.22.39-.42.72-.44l.69-.04c.05-.01.09-.02.14-.02l.81-.04c.14-.01.28.02.39.09.24.15.29.38.24.62l-1.26 6.58-.03.1c-.08.27-.31.47-.64.49l-.7.04a.59.59 0 0 1-.14.02l-.95.05c-.15.01-.3-.03-.42-.11-.23-.15-.27-.38-.22-.61l.08-.38h-.05l-.5.73c-.15.23-.39.42-.71.44l-.69.04c-.05.01-.09.02-.14.02l-1.02.05H15.31c-.04.01-.09.02-.13.02l-1.09.06a.65.65 0 0 1-.46-.14.75.75 0 0 1-.45.17l-.69.04a.59.59 0 0 1-.14.02l-.99.05c-.41.02-.66-.26-.63-.58l-.27.18c-.52.32-1.12.59-1.77.62-.12.01-.24 0-.36-.01-.16.03-.31.06-.48.07-.54.03-1.02-.12-1.38-.48-.35-.35-.49-.8-.53-1.26-.02-.2-.01-.41.01-.61l-.24.01c-.05.01-.09.02-.14.02l-.32.02-.88 1.91c-.12.26-.34.48-.69.5l-.69.04a.59.59 0 0 1-.14.02l-.99.05c-.46.02-.72-.32-.6-.69.01-.04.03-.07.04-.11l3.07-6.69c.12-.26.35-.48.7-.5l.69-.04c.05-.01.09-.02.14-.02l3.15-.17c.26-.01.45.09.55.25.45-.24.95-.42 1.48-.45.12-.01.24 0 .36.01.15-.03.31-.06.48-.07.54-.03 1.03.12 1.38.48.15.15.26.32.34.49l.23-.49c.05-.1.11-.2.2-.28.13-.13.3-.21.5-.22l.7-.04a.59.59 0 0 1 .14-.02l2.13-.11c.43-.02.81.11 1.06.41.23.27.31.6.33.93.01.13 0 .26-.01.39zm-12.09 1.9c.11-.19.22-.38.34-.56l-.49.03-.26.56.41-.02zm2.47 1.82c.16-.13.3-.29.43-.44a3.94 3.94 0 0 0 .69-1.26c.05-.17.09-.35.1-.53-.16.13-.3.29-.43.44a3.94 3.94 0 0 0-.69 1.26c-.05.17-.1.36-.1.53z"/><path class="fil5" d="M5.25 9.72c.06-.14.15-.22.25-.22l3.15-.17c.08 0 .1.04.07.14 0 .01-.01.04-.03.07l-.56 1.23c-.06.14-.14.21-.24.22l-2.02.11-.68 1.47 1.48-.08c.08 0 .11.04.08.14 0 .01-.01.04-.03.07l-.53 1.16c-.06.14-.14.21-.24.22l-1.48.08-1.01 2.19c-.06.14-.14.21-.24.22l-.99.05c-.08 0-.11-.04-.08-.14 0-.01.01-.03.03-.06l3.07-6.68zm2.09 3.14c.32-.72.71-1.36 1.19-1.92.48-.57.98-1.01 1.5-1.34.53-.33 1.02-.5 1.49-.53.41-.02.73.09.96.32.24.24.37.57.4 1.01.03.44-.04.93-.21 1.49-.07.24-.16.47-.26.7-.31.7-.71 1.34-1.18 1.9a6.46 6.46 0 0 1-1.5 1.35c-.53.33-1.02.51-1.49.54-.4.02-.72-.09-.95-.32-.24-.24-.37-.57-.41-1.01-.04-.43.03-.93.2-1.48.08-.24.17-.48.27-.71zm1.27-.07c-.07.17-.13.31-.17.43-.09.28-.12.52-.11.74.01.22.08.38.19.5s.27.17.48.16c.24-.01.49-.11.76-.29s.52-.42.77-.71c.24-.29.44-.62.6-.97.07-.17.13-.31.17-.44.09-.28.12-.52.11-.74a.759.759 0 0 0-.19-.5c-.11-.12-.27-.17-.48-.16-.24.01-.49.11-.76.29s-.52.42-.77.71c-.24.29-.44.62-.6.97zm6.14-3.58c.03-.06.06-.11.11-.15.04-.04.09-.07.14-.07l2.13-.11c.27-.01.47.06.61.23s.22.4.23.69c.01.29-.04.61-.15.96-.05.15-.1.29-.15.42-.19.44-.44.83-.74 1.18s-.63.62-.97.82l-.22 2.5c0 .03-.01.04-.01.05-.01.04-.04.08-.07.11-.03.03-.06.05-.1.05l-1.09.06c-.05 0-.08-.01-.09-.03a.407.407 0 0 1 0-.16l.21-2.12-.64.03-.99 2.15c-.06.14-.14.21-.24.22l-.99.05c-.08 0-.11-.04-.08-.13 0-.01.01-.04.03-.07l3.07-6.68zm-.1 2.93.77-.04c.11-.01.23-.05.36-.14.13-.09.25-.2.36-.33.11-.14.2-.28.27-.42.03-.06.05-.12.07-.19.06-.19.07-.34.03-.47-.04-.13-.12-.18-.26-.18l-.8.04-.79 1.73zm6.12-3.25c.1-.14.2-.22.3-.22l.81-.04c.09 0 .13.06.1.2l-1.26 6.58c0 .01-.01.03-.01.05-.03.1-.09.16-.17.16l-.95.05c-.1.01-.13-.06-.1-.2l.2-.92-1.81.1-.65.95c-.09.14-.19.21-.29.22l-1.02.05c-.06 0-.09-.02-.07-.08.01-.03.03-.07.07-.12l4.86-6.78zm-.76 4.14.46-2.14-1.52 2.2 1.06-.06zm6.47-4.45c.07-.14.15-.22.25-.22l1.6-.09c.38-.02.68.09.92.33.24.24.38.59.42 1.03.04.45-.02.96-.2 1.53-.05.15-.11.33-.19.52-.29.69-.66 1.31-1.12 1.87-.46.55-.95.98-1.46 1.3-.52.32-1 .49-1.46.51l-1.75.09c-.08 0-.11-.04-.08-.14 0-.01.01-.03.03-.06l3.07-6.68zm1.5 3.18c.06-.14.11-.27.15-.39.09-.28.12-.52.11-.74-.02-.22-.08-.39-.2-.5-.12-.12-.28-.17-.49-.16l-.46.02-1.7 3.72.46-.02c.24-.01.5-.11.77-.29s.53-.41.77-.7.44-.6.6-.94zm4.53-3.5c.1-.14.2-.22.3-.22l.81-.04c.09-.01.13.06.1.2l-1.26 6.58c0 .01-.01.03-.01.05-.03.1-.09.16-.17.16l-.95.05c-.1.01-.13-.06-.1-.2l.2-.92-1.81.1-.65.95c-.09.14-.19.21-.29.22l-1.02.05c-.06 0-.09-.02-.07-.08.01-.03.03-.07.07-.12l4.86-6.78zm-.76 4.14.46-2.14-1.52 2.2 1.06-.06zm6.41-4.44a.5.5 0 0 1 .11-.16c.04-.04.09-.06.13-.06l.99-.05c.08 0 .1.04.07.14 0 .01-.01.04-.03.07l-2.38 5.2 1.84-.1c.08 0 .11.04.08.13 0 .01-.01.04-.03.07l-.59 1.28c-.06.14-.14.21-.24.22l-2.97.16c-.08 0-.11-.04-.08-.13 0-.01.01-.04.03-.07l3.07-6.68zm4.02-.21c.07-.14.15-.22.25-.22l3.3-.18c.08 0 .1.04.07.14 0 .01-.01.04-.03.07l-.56 1.23c-.06.14-.14.21-.24.22l-2.16.12-.54 1.18 1.64-.09c.09 0 .12.04.09.15 0 .01-.01.03-.03.06l-.46.99c-.06.14-.15.21-.25.22l-1.64.09-.56 1.22 2.22-.12c.08 0 .11.04.08.15-.01.02-.01.04-.02.05l-.56 1.22c-.06.14-.14.21-.24.22l-3.36.18c-.08 0-.11-.04-.08-.14 0-.01.01-.03.03-.06l3.07-6.68zm4.48-.24c.07-.14.15-.22.25-.22l.99-.05c.08 0 .1.04.07.14 0 .01-.01.04-.03.07l-3.07 6.68c-.06.14-.14.21-.24.22l-.99.05c-.08 0-.11-.04-.08-.14 0-.01.01-.03.03-.06l3.07-6.68zM4.82 25.7l-1.39 3.26c-.04.09-.08.15-.13.19a.28.28 0 0 1-.18.06l-1.29.02c-.11 0-.15-.05-.12-.17 0-.01.01-.04.03-.08l3.41-8c.03-.07.07-.13.13-.18.06-.05.11-.08.17-.08l1.31-.02c.1 0 .13.05.1.17-.01.03-.02.05-.02.07l-1.16 2.73 2.2-.04 1.16-2.72c.03-.07.07-.13.13-.18.06-.05.11-.08.17-.08l1.31-.02c.1 0 .13.05.1.17-.01.03-.02.05-.02.07l-3.42 8.01c-.04.09-.08.15-.13.19a.28.28 0 0 1-.18.06l-1.29.02c-.11 0-.15-.05-.12-.17 0-.01.01-.04.03-.08l1.39-3.26-2.2.04zm5.34-.83c.35-.86.81-1.62 1.39-2.29.58-.67 1.2-1.19 1.86-1.57.67-.38 1.31-.57 1.92-.58.54-.01.97.13 1.31.43.34.3.55.71.64 1.25.09.53.04 1.13-.13 1.8-.08.29-.17.57-.28.84-.35.84-.81 1.6-1.38 2.27-.57.67-1.19 1.19-1.86 1.57-.67.38-1.31.58-1.93.59-.53.01-.96-.14-1.3-.43-.34-.3-.55-.71-.64-1.24-.09-.53-.05-1.12.13-1.79.08-.29.17-.58.29-.85zm1.68-.03c-.08.2-.14.37-.18.52-.09.33-.11.63-.07.9.04.26.14.47.3.62.16.15.38.22.65.21.32-.01.64-.11.98-.32.34-.21.66-.49.95-.83a4.376 4.376 0 0 0 .88-1.67c.09-.33.11-.63.07-.89-.04-.26-.14-.47-.3-.61-.16-.15-.38-.22-.65-.21-.32.01-.64.11-.98.32a4.29 4.29 0 0 0-1.65 1.98zm7.8-4.1c.03-.07.07-.13.13-.18.05-.05.11-.08.17-.08l2.82-.05c.35-.01.63.09.84.31.21.21.33.49.38.85.05.35.01.74-.1 1.17-.05.18-.1.34-.16.5-.21.52-.5.99-.87 1.4-.37.41-.77.73-1.2.96l-.05 3.03c0 .03 0 .05-.01.06-.01.05-.04.1-.08.13-.04.04-.08.05-.13.06l-1.44.03c-.06 0-.1-.01-.12-.05-.02-.03-.02-.09-.02-.19l.07-2.57-.84.02-1.1 2.58c-.07.17-.17.25-.3.25l-1.31.02c-.11 0-.15-.05-.12-.16 0-.02.01-.04.03-.08l3.41-8zm.16 3.56 1.02-.02c.15 0 .3-.05.46-.15a2.06 2.06 0 0 0 .75-.89c.03-.07.06-.14.08-.23.06-.23.06-.42 0-.57-.06-.15-.18-.23-.37-.23l-1.06.02-.88 2.07zm9.98-5.19c-.08.11-.15.18-.19.21-.05.03-.11.05-.19.05l-.88.02c-.03 0-.06-.01-.08-.03-.02-.02-.02-.06-.01-.11.01-.04.03-.09.07-.14l.88-1.28a.6.6 0 0 1 .18-.2c.06-.04.12-.06.2-.06l.99-.02c.03 0 .06.01.07.04.01.03.01.07 0 .11-.01.06-.04.11-.08.15l-.96 1.25zm-2.17 1.49c.12-.17.25-.26.38-.26l1.07-.02c.12 0 .17.08.15.25l-1.02 7.96c0 .02-.01.04-.01.06-.03.12-.1.19-.21.19l-1.26.02c-.13 0-.18-.08-.16-.25l.17-1.12-2.39.04-.78 1.13c-.11.17-.23.25-.37.25l-1.35.02c-.08 0-.12-.03-.1-.1.01-.04.04-.08.08-.14l5.79-8.04zm-.6 5.01.4-2.59-1.8 2.61 1.4-.02zm5.49-5.09c.03-.07.07-.13.13-.18.05-.05.11-.08.17-.08l2.82-.05c.35-.01.63.09.84.31.21.21.33.49.38.85.05.35.01.74-.1 1.17-.05.18-.1.34-.16.5-.21.52-.5.99-.87 1.4-.37.41-.77.73-1.2.96l-.05 3.03c0 .03 0 .05-.01.06-.01.05-.04.1-.08.13-.04.04-.08.05-.13.06l-1.44.03c-.06 0-.1-.01-.12-.05-.02-.03-.02-.09-.02-.19l.07-2.57-.84.02-1.1 2.58c-.07.17-.17.25-.3.25l-1.31.02c-.11 0-.15-.05-.12-.16 0-.02.01-.04.03-.08l3.41-8zm.16 3.56 1.02-.02c.15 0 .3-.05.46-.15a2.06 2.06 0 0 0 .75-.89c.03-.07.06-.14.08-.23.06-.23.06-.42 0-.57-.06-.15-.18-.23-.37-.23l-1.06.02-.88 2.07zm6-3.67c.07-.17.17-.26.31-.26l1.31-.02c.1 0 .14.05.11.17 0 .02-.01.04-.03.08l-3.41 8c-.07.17-.17.25-.29.25l-1.31.02c-.11 0-.15-.05-.12-.17 0-.01.01-.04.03-.08l3.41-8zm1.11 3.95c.35-.86.81-1.62 1.39-2.29.58-.67 1.2-1.19 1.86-1.57.67-.38 1.31-.57 1.92-.58.54-.01.97.13 1.31.43.34.3.55.71.64 1.25.09.53.04 1.13-.13 1.8-.08.29-.17.57-.28.84-.35.84-.81 1.6-1.38 2.27-.57.67-1.19 1.19-1.86 1.57-.67.38-1.31.58-1.93.59-.53.01-.96-.14-1.3-.43-.34-.3-.55-.71-.64-1.24-.09-.53-.05-1.12.13-1.79.08-.29.17-.58.29-.85zm1.68-.03c-.08.2-.14.37-.18.52-.09.33-.11.63-.07.9.04.26.14.47.3.62.16.15.38.22.65.21.32-.01.64-.11.98-.32.34-.21.66-.49.95-.83a4.376 4.376 0 0 0 .88-1.67c.09-.33.11-.63.07-.89-.04-.26-.14-.47-.3-.61-.16-.15-.38-.22-.65-.21-.32.01-.64.11-.98.32a4.29 4.29 0 0 0-1.65 1.98z"/><path class="fil0" d="M47.22 15.89c.09.18.14.37.17.55.08.54-.03 1.08-.29 1.59-.23.44-.56.85-1.02 1.17a3.01 3.01 0 0 1-2.08.5l-.09-.01-.09-.02c-.25-.05-.48-.13-.68-.23-.49.42-1.03.81-1.64 1.14-.36.19-.74.36-1.14.48-.08.11-.17.22-.28.32-.33.29-.79.48-1.3.51a2.31 2.31 0 0 1-1.43-.4l-.02-.02-.03-.02-.02-.01c-.38-.31-.59-.71-.65-1.13-.01-.04-.01-.07-.01-.11-.13-.19-.24-.38-.31-.59-.06.05-.13.1-.19.14-.43.3-.95.49-1.53.52-.18.01-.37 0-.55-.02l-.09-.01-.09-.02c-.45-.09-.82-.27-1.12-.51-.06.06-.13.11-.2.16l-.02.02-.02.02c-.32.21-.72.35-1.14.37h-.13c-.31.35-.77.59-1.35.64-.3.18-.66.29-1.05.32-.25.01-.5-.01-.74-.07l-.07-.02-.07-.02c-.45-.15-.79-.4-1.02-.71a2.34 2.34 0 0 1-.53-.08l-.06.03c-.56.26-1.19.49-1.86.53-.49.03-.97-.05-1.38-.23-.45.37-.94.72-1.49 1.01-.36.19-.74.36-1.14.48-.08.11-.17.22-.28.32-.33.29-.79.48-1.3.51-.54.03-1.04-.13-1.43-.4l-.02-.01-.04-.03-.01-.01c-.39-.31-.59-.71-.65-1.13-.01-.04-.01-.07-.01-.11-.2-.27-.32-.57-.39-.87-.26.24-.57.45-.93.62-.36.17-.75.3-1.18.32-.28.02-.57-.01-.83-.09l-.14-.04-.13-.06c-.08-.03-.15-.07-.23-.11h-.02c-.33.02-.64-.03-.94-.12-.07.04-.15.07-.23.1-.32.13-.66.22-1.02.24-.17.01-.33 0-.5-.02l-.12-.02v.01c-.07.24-.12.47-.19.71-.07.28-.15.57-.25.84-.1.28-.25.59-.59.75-.36.17-.81.13-1.17-.03-.38-.17-.59-.43-.73-.74-.15-.34-.24-.75-.31-1.11-.01-.06-.02-.15-.04-.24l-.46.08.09-.39c-.13-.01-.25-.02-.38-.04 0 .01-.01.01-.01.02-.19.31-.38.63-.66.9-.4.4-.94.69-1.61.73-.72.04-1.38-.21-1.8-.65-.26-.28-.42-.6-.47-.94v-.06l-.01-.1v-.02c-.02-.47.21-.91.61-1.27.03-.05.06-.1.09-.14.18-.29.33-.58.49-.87.18-.35.37-.69.56-1.04.19-.35.39-.7.6-1.05.14-.23.28-.47.44-.69.39-.53.97-.96 1.81-1.01.45-.03.89.07 1.25.26.07.03.13.07.19.11l.67-.82c.48-.59 1.06-1.2 2.06-1.25.69-.04 1.32.22 1.73.63.31.29.5.63.55 1 .02.18.02.35-.01.52-.03.19-.08.37-.14.56l-.12.36c.36.05.69.16 1 .32l.06-.06c.29-.24.61-.47.98-.64.35-.17.73-.28 1.15-.31.33-.02.67.03.97.13l.07.02.07.03c.18.07.34.17.49.27a8.082 8.082 0 0 1 3.23-2.2l.02-.01.04-.01.03-.01c.02-.01.04-.01.03-.01l.03-.01c.24-.1.49-.16.75-.21.3-.05.59-.1.89-.12.6-.03 1.21.05 1.76.24.86.28 1.42.84 1.72 1.5l.01.02.01.02c.02.05.04.09.05.14.36.02.7.11 1 .26.14-.05.28-.09.43-.12.14-.63.71-1.08 1.52-1.3l.09-.02.1-.02c.38-.07.77-.12 1.15-.16.41-.37.94-.63 1.6-.67.43-.02.86.06 1.22.23.19.09.36.2.51.33.7.05 1.3.2 1.75.64l.02.02.04.04.01.01c.05.06.1.11.14.17.05 0 .1.01.15.01.56.03.99.23 1.31.51.41-.54.91-1.02 1.49-1.46.6-.45 1.28-.82 2.03-1.1l.02-.01.05-.02.02-.01c.02-.01.04-.01.03-.01l.02-.01.02-.01c.24-.1.49-.16.75-.21.3-.05.59-.1.89-.12.6-.03 1.21.05 1.76.24.86.28 1.42.84 1.72 1.5l.01.02.01.02c.02.04.04.09.05.13 1.04.14 1.56.86 1.72 1.61z"/><path class="fil1" d="M45 14.71c.08 0 .16.01.25.01.85.05 1.26.64 1.38 1.29.08.15.13.32.15.49.07.47-.03.94-.25 1.37-.2.38-.48.73-.87 1-.33.23-.73.38-1.16.4-.14.01-.27 0-.41-.01l-.06-.01-.06-.01a1.99 1.99 0 0 1-.92-.45c-.1.09-.19.18-.29.27-.49.44-1.03.83-1.63 1.15-.39.21-.81.38-1.24.5-.07.14-.16.27-.29.38-.23.21-.55.33-.88.35-.35.02-.69-.08-.96-.28l-.01-.01-.02-.02-.01-.01c-.29-.23-.44-.53-.49-.86-.01-.06-.01-.13-.01-.19-.22-.28-.36-.6-.41-.95-.03-.21-.02-.43.03-.63-.07-.07-.14-.14-.19-.22-.02.05-.05.1-.07.15-.2.38-.48.73-.87 1-.33.23-.73.38-1.16.4-.14.01-.27 0-.41-.01l-.06-.01-.06-.01c-.63-.13-1.07-.49-1.29-.96l-.17.23c-.12.18-.25.35-.45.49l-.02.01-.02.01c-.23.15-.5.24-.78.26-.14.01-.28 0-.42-.03-.21.38-.6.65-1.15.68h-.12c-.22.18-.52.29-.85.31-.17.01-.34-.01-.5-.05l-.05-.01-.04-.01c-.44-.14-.73-.42-.88-.77a1.773 1.773 0 0 1-.96-.12c-.11.05-.22.1-.33.16-.48.22-1.03.43-1.58.46-.57.03-1.07-.11-1.43-.39-.04.04-.08.08-.13.11-.49.44-1.03.83-1.63 1.15-.39.21-.81.38-1.24.5-.07.14-.16.27-.29.38-.23.21-.55.33-.88.35-.35.02-.69-.08-.96-.28l-.01-.01-.03-.02-.01-.01c-.29-.23-.44-.53-.49-.86-.01-.06-.01-.13-.02-.19-.22-.28-.36-.6-.41-.95-.03-.21-.02-.43.03-.63-.19-.18-.31-.39-.37-.62-.05.06-.11.12-.16.17-.04.3-.18.58-.38.82l-.01.01-.02.03-.01.01c-.25.26-.55.48-.9.64-.28.13-.58.23-.9.25-.19.01-.39-.01-.57-.06l-.09-.03-.09-.04c-.13-.06-.24-.12-.34-.2-.09.02-.17.03-.26.03-.29.02-.56-.04-.83-.14-.04-.02-.08-.03-.12-.05-.15.09-.3.16-.47.23-.24.1-.5.17-.77.19-.12.01-.23 0-.35-.01a.696.696 0 0 0-.34-.26c-.13-.04-.21-.02-.29.09-.07.11-.14.31-.2.52-.06.22-.12.45-.19.72-.07.27-.15.57-.24.81-.09.24-.18.41-.33.49-.15.07-.36.04-.53-.04-.18-.08-.33-.2-.45-.48-.13-.28-.23-.73-.29-1.03-.06-.3-.08-.46-.12-.57-.04-.1-.11-.15-.23-.13.03-.11.05-.23.08-.34-.16.06-.33.09-.5.1h-.2c-.29-.01-.54-.08-.75-.19-.08.15-.17.29-.25.44-.17.28-.34.57-.59.82-.3.3-.69.52-1.16.54-.49.03-.95-.14-1.26-.46a1.2 1.2 0 0 1-.35-.71v-.04l-.01-.1V21c-.02-.39.19-.73.51-.99.05-.07.09-.15.13-.21.18-.29.34-.59.5-.89.18-.34.36-.69.55-1.03.19-.35.39-.7.59-1.04.13-.22.26-.44.42-.65.3-.41.72-.74 1.32-.77.31-.02.61.05.87.19.26.13.46.31.59.52.38-.46.76-.92 1.13-1.38.38-.47.84-.99 1.58-1.03.47-.03.91.15 1.21.45.23.21.39.47.43.77.02.14.01.28-.01.43-.02.17-.08.33-.13.5-.08.25-.16.49-.25.74-.02.06-.05.13-.07.19l.25-.03c.45-.02.88.09 1.25.3.14.08.26.18.37.28.14-.16.29-.3.45-.44.26-.22.54-.41.85-.56.27-.13.56-.22.86-.24.23-.01.46.02.68.09l.04.02.04.02c.38.16.67.42.82.74a6.942 6.942 0 0 1 1.6-1.64c.56-.42 1.19-.76 1.87-1.02h.01l.03-.01h.02c.03-.01.07-.02.1-.04h.02c.19-.08.39-.13.6-.16.26-.05.52-.09.79-.11.5-.03 1 .04 1.47.2.67.22 1.13.66 1.39 1.23l.01.01.01.01c.07.16.11.32.14.48.07-.01.14-.02.21-.02.49-.03.93.11 1.26.37.22-.15.49-.24.78-.26.09 0 .18 0 .26.01 0-.07 0-.15.01-.22.05-.57.53-.92 1.14-1.07l.06-.02.06-.01c.45-.08.9-.14 1.35-.18.33-.35.75-.61 1.31-.64.3-.02.6.04.86.16.2.09.37.22.5.38.08 0 .15.01.23.01.51.04 1.01.11 1.37.47l.01.01.02.02.01.01c.11.12.19.25.23.38.05-.01.1-.01.15-.01.13-.01.24 0 .37.01.8.05 1.21.57 1.35 1.17.13-.3.31-.59.51-.86.39-.52.87-.98 1.42-1.39.56-.42 1.19-.76 1.87-1.02h.01l.03-.01h.02c.03-.01.07-.02.1-.04h.02c.19-.08.39-.13.6-.16.26-.05.52-.09.79-.11.5-.03 1 .04 1.47.2.67.22 1.13.66 1.39 1.23l.01.01.01.01c.06.14.1.28.13.42z"/><path d="M9.49 16.58c-.16.18-.31.36-.47.55-.42.49-.83.98-1.23 1.48-.19.24-.39.48-.59.71-.1.11-.23.25-.36.33-.08.05-.16.08-.25.08h-.06c-.45-.01-.56-.58-.6-.87-.04-.31-.05-.63-.04-.94-.05.09-.11.19-.16.28-.19.34-.39.68-.57 1.02-.23.43-.46.87-.72 1.29-.12.19-.27.46-.44.62-.09.09-.22.19-.36.2a.386.386 0 0 1-.42-.33l-.01-.07c-.01-.12.12-.22.22-.29.1-.1.23-.3.3-.42.19-.31.36-.63.53-.94.18-.34.36-.68.55-1.02.19-.34.38-.68.58-1.02.11-.19.23-.39.37-.58.09-.12.23-.3.42-.31.08 0 .15.02.22.05.17.08.24.24.26.4.03.2.01.44.01.64-.01.31-.02.63-.02.94 0 .15 0 .3.02.45.02-.03.05-.05.06-.06.13-.14.26-.3.38-.45.26-.31.51-.62.77-.93.59-.72 1.19-1.43 1.77-2.15.12-.15.47-.59.7-.61.12-.01.22.05.29.13.08.07.14.15.15.24.01.06 0 .13-.01.19-.02.11-.06.25-.1.36-.08.24-.16.48-.24.71-.29.82-.56 1.65-.81 2.48-.28.94-.55 1.88-.81 2.82-.07.25-.14.5-.2.76-.02.07-.06.23-.06.3a.3.3 0 0 1 .04.08v.06a.3.3 0 0 1-.06.11c-.04.04-.09.07-.15.07-.24.01-.32-.2-.34-.36-.04-.26.02-.63.06-.89.04-.31.12-.62.19-.93.12-.5.26-1 .4-1.5.25-.9.52-1.81.83-2.7zm3.23 2.16.01.07c.02.12.06.22.23.21.27-.02.72-.3.92-.44l.02-.02v-.03c-.02-.17.07-.34.17-.48.13-.19.3-.36.49-.52.18-.15.38-.3.61-.4.11-.05.24-.1.37-.11.06 0 .13 0 .19.02.17.07.28.18.31.35.02.14-.06.35-.12.48-.07.17-.28.66-.55.68-.06 0-.11-.01-.15-.04-.06-.04-.11-.09-.11-.16-.01-.07.05-.29.1-.47-.06.05-.11.09-.13.11-.14.12-.3.26-.41.41h.02c.25.1.52.27.56.52.02.17-.06.34-.18.47-.15.16-.34.29-.55.4-.12.06-.27.12-.42.13-.05 0-.1 0-.14-.01h-.02c-.08-.04-.15-.09-.17-.18-.02-.17.23-.33.37-.42.11-.07.23-.14.32-.23.01-.01.05-.04.07-.07-.05-.03-.14-.06-.17-.07a.694.694 0 0 1-.13-.05c-.15.12-.35.24-.51.33-.25.14-.68.38-.99.4a.73.73 0 0 1-.3-.06.897.897 0 0 1-.35-.25c-.04-.05-.09-.11-.12-.18l-.22.14h-.02c-.01 0-.01.01-.02.01h-.02c-.24.16-.53.35-.81.46-.1.04-.22.08-.34.09-.07 0-.13 0-.19-.02-.2-.06-.32-.18-.34-.36-.01-.06-.01-.13-.01-.19 0-.16.13-.39.21-.53.15-.24.34-.45.56-.63.22-.18.48-.32.78-.4l.19-.03c.2-.01.38.04.54.14.2.11.29.3.32.49 0 .03.02.05.03.07.04.07.07.14.08.21.01.04.01.09 0 .13zm6.23.53c.16-.41.33-.81.51-1.21.31-.68.64-1.36 1.02-2.01-.54.28-1.02.63-1.43 1.05-.37.38-.71.83-.83 1.32 0 .02-.01.04-.02.07.17-.01.34.04.36.21.02.13-.09.23-.22.3-.08.03-.16.05-.24.06a.455.455 0 0 1-.32-.1.47.47 0 0 1-.16-.31.67.67 0 0 1 0-.2c.06-.45.28-.87.57-1.25.33-.44.74-.83 1.2-1.18.47-.35 1-.64 1.57-.85.08-.02.16-.05.23-.08.09-.04.23-.07.33-.08.2-.04.42-.08.62-.09.34-.02.67.03.99.14.37.12.6.36.75.68.04.11.07.22.09.33.04.3-.03.64-.12.93-.14.43-.39.85-.67 1.23-.33.46-.72.89-1.16 1.28-.42.38-.89.72-1.41 1-.44.24-.94.42-1.46.48-.05 0-.1.01-.15.02h-.01c0 .01 0 .01-.01.02-.03.09-.05.19-.06.29.01.08 0 .17-.07.23a.19.19 0 0 1-.13.05c-.06 0-.11-.02-.15-.05a.38.38 0 0 1-.14-.27c-.02-.12 0-.25.02-.36 0-.02 0-.04.01-.04a.218.218 0 0 0-.05-.04c-.23-.19-.36-.42-.4-.69-.02-.18 0-.35.07-.52.08-.19.24-.31.46-.37h.02c.04-.01.08-.01.12-.02.11-.01.23.02.28.09zm-.3.84c.01-.02.01-.04.02-.05.05-.16.11-.32.16-.48-.01.01-.02.01-.03.02-.11.06-.17.14-.19.25-.01.04-.01.08 0 .13s.02.09.04.13zm5.62-1.47c-.02.07-.05.16-.05.21.01.07.04.09.12.09.32-.02.79-.22 1.06-.35.48-.23.93-.48 1.37-.77.01 0 .01-.01.02-.01.03-.08.06-.15.09-.23.07-.16.17-.41.3-.55a.37.37 0 0 1 .22-.12c.06 0 .12.01.17.04.11.04.18.11.2.21.02.12-.04.26-.1.37-.03.06-.07.13-.1.19.23-.22.49-.43.72-.63l.53-.47c.1-.1.26-.24.42-.25.11-.01.21.04.28.11.05.05.09.11.1.18.02.13-.1.45-.14.58-.1.26-.18.54-.26.8-.1.33-.19.66-.27.99-.02.1-.11.42-.1.52l.01.03c.02.11-.07.18-.19.19-.04 0-.07 0-.1-.01-.2-.06-.27-.25-.29-.42-.02-.17 0-.39.01-.56.01-.19.07-.4.12-.58.07-.24.14-.48.22-.71-.41.33-.79.69-1.12 1.08-.08.09-.17.19-.27.27-.06.05-.14.11-.23.12a.41.41 0 0 1-.22-.07.434.434 0 0 1-.15-.27c-.01-.05-.01-.09-.01-.14-.36.23-.8.44-1.18.62-.3.14-.76.33-1.11.35-.44.02-.75-.14-.8-.53-.06-.4.18-.84.4-1.18.17-.26.4-.49.68-.67.22-.14.47-.26.75-.27.26-.01.45.09.56.28.02.05.03.09.04.14.02.15-.04.32-.11.46-.1.19-.25.37-.42.52-.18.16-.38.3-.61.39-.1.04-.2.06-.3.07-.09 0-.17-.01-.25-.03zm7.55-3.32h.07c.37-.01.75-.01 1.11.02.15.01.5.03.61.14.03.03.05.06.05.1.01.04-.01.08-.04.11-.05.06-.18.07-.26.08-.18.02-.36.03-.53.04l-.21.01c-.16.01-1.08.06-1.24.13-.66 1.04-1.18 2.14-1.51 3.29-.03.11-.08.26-.24.27-.06 0-.11-.01-.15-.04-.1-.06-.14-.17-.15-.27-.04-.26.09-.71.16-.97.18-.61.5-1.26.81-1.83.03-.06.17-.32.22-.45-.44.06-.91.12-1.36.14-.09 0-.25.02-.33-.03a.194.194 0 0 1-.09-.14v-.11c.01-.13.21-.18.33-.21h.01c.56-.1 1.13-.16 1.71-.2h.06l.01-.01c.02-.02.05-.06.06-.08.14-.2.37-.48.66-.5.08 0 .16.01.24.05.08.04.14.09.15.17.01.1-.09.24-.16.32zm1.66 2.51c-.05.03-.1.04-.15.04-.18.01-.34-.04-.44-.16a.429.429 0 0 1-.1-.24.81.81 0 0 1 0-.22c-.5.38-.91.82-1.24 1.31-.05.07-.11.17-.19.22-.04.03-.09.05-.15.05-.04 0-.07 0-.11-.01-.17-.05-.24-.19-.26-.34-.02-.15.02-.37.04-.52.06-.35.28-.79.45-1.11.11-.2.36-.66.66-.68.06 0 .12.01.17.03.12.05.2.13.22.24.02.13-.05.27-.13.38-.03.05-.07.1-.1.15.34-.32.82-.74 1.04-.75.14-.01.26.04.32.15.02.04.03.08.03.12.02.17-.02.39-.05.56-.02.09-.06.29-.06.37 0 .03.01.08.06.09l.05.01.02.04c.01.02.02.05.02.07.01.08-.03.14-.1.18zm2.08-.95c.07.08.1.18.11.28.04.3-.02.58-.16.86-.13.24-.3.47-.54.64-.15.1-.32.18-.51.19-.06 0-.11 0-.17-.01-.4-.08-.56-.36-.61-.68-.03-.23.01-.47.08-.7.09-.31.28-.59.51-.84.18-.18.43-.38.71-.39.06 0 .15.01.22.01.24.01.31.32.34.48.01.04.02.13.04.17zm3.3 1.29c.16-.41.33-.81.51-1.21.31-.68.64-1.36 1.02-2.01-.54.28-1.02.63-1.43 1.05-.37.38-.71.83-.83 1.32 0 .02-.01.04-.02.07.17-.01.34.04.36.21.02.13-.09.23-.22.3h-.01c-.08.03-.16.05-.24.06a.455.455 0 0 1-.32-.1.47.47 0 0 1-.16-.31.67.67 0 0 1 0-.2c.06-.45.28-.87.57-1.25.33-.44.74-.83 1.2-1.18.47-.35 1-.64 1.57-.85.08-.02.16-.05.23-.08.09-.04.23-.07.33-.08.2-.04.42-.08.62-.09.34-.02.67.03.99.14.37.12.6.36.75.68.04.11.07.22.09.33.04.3-.03.64-.12.93-.14.43-.39.85-.67 1.23-.33.46-.72.89-1.16 1.28-.42.38-.89.72-1.41 1-.44.24-.94.42-1.46.48-.05 0-.1.01-.15.02h-.01c0 .01 0 .01-.01.02-.03.09-.05.19-.06.29.01.08 0 .17-.07.23a.19.19 0 0 1-.13.05c-.06 0-.11-.02-.15-.05a.38.38 0 0 1-.14-.27c-.02-.12 0-.25.02-.36 0-.02 0-.04.01-.04a.218.218 0 0 0-.05-.04c-.23-.19-.36-.42-.4-.69-.02-.18 0-.35.07-.52.08-.19.24-.31.46-.37h.02c.04-.01.08-.01.12-.01.11-.01.23.02.28.09zm-.3.84c.01-.02.01-.04.02-.05.05-.16.11-.32.17-.48-.01.01-.02.01-.03.02-.11.06-.17.14-.19.25-.01.04-.01.08 0 .13s.02.09.04.13zm6.97-2.68c.07.08.1.18.11.28.04.3-.02.58-.16.86-.13.24-.3.47-.54.64-.15.1-.32.18-.51.19-.06 0-.11 0-.17-.01-.4-.08-.56-.36-.61-.68-.03-.23.01-.47.08-.7.09-.31.28-.59.51-.84.18-.18.43-.38.71-.39.06 0 .15.01.22.01.24.01.31.32.34.48.01.04.02.13.04.17zm-34.76 2.86c.15-.09.3-.18.43-.28.17-.12.34-.24.5-.37.03-.03.13-.11.16-.16-.02-.03-.05-.05-.1-.05-.04 0-.14.04-.18.05-.13.04-.32.21-.41.3a2.2 2.2 0 0 0-.4.51zm8.5 1.07c.02 0 .03-.01.05-.01.49-.14.95-.37 1.36-.65.46-.31.88-.66 1.25-1.04.35-.36.67-.75.92-1.17.19-.32.36-.68.4-1.04.01-.07.01-.14 0-.21a.546.546 0 0 0-.27-.41c-.19-.1-.43-.14-.65-.16-.11-.01-.23-.01-.34-.01-.1.01-.2.02-.29.05-.08.06-.3.41-.35.49-.3.49-.57.99-.82 1.5-.36.72-.7 1.45-1.04 2.18-.07.15-.13.29-.19.44l-.03.06zm5.31-2.15c.33-.07.46-.49.52-.54-.27-.02-.45.47-.52.54zm10.37-.29c-.03.01-.05.01-.08.01-.07 0-.14-.01-.2-.06a.252.252 0 0 1-.1-.15c-.01-.08.03-.17.07-.24.08-.1.14-.21.18-.33.01-.02.01-.04.02-.05-.21.23-.36.5-.44.79-.03.12-.07.26-.05.39 0 .03.02.13.07.13.12-.01.28-.18.34-.25.03-.03.11-.13.18-.22zm4.23 1.35c.02 0 .03-.01.05-.01.49-.14.95-.37 1.36-.65.46-.31.88-.66 1.25-1.04.35-.36.67-.75.92-1.17.19-.32.36-.68.4-1.04.01-.07.01-.14 0-.21a.546.546 0 0 0-.27-.41c-.19-.1-.43-.14-.65-.16-.11-.01-.23-.01-.34-.01-.1.01-.2.02-.29.05-.08.06-.3.41-.35.49-.3.49-.57.99-.82 1.5-.36.72-.7 1.45-1.04 2.18-.07.15-.13.29-.19.44l-.03.06zm5.74-1.9c-.03.01-.05.01-.08.01-.07 0-.14-.01-.2-.06a.252.252 0 0 1-.1-.15c-.01-.08.03-.17.07-.24.08-.1.14-.21.18-.33.01-.02.01-.04.02-.05-.21.23-.36.5-.44.79-.03.12-.07.26-.05.39 0 .03.02.13.07.13.12-.01.28-.18.34-.25.03-.03.11-.13.18-.22z" style="fill:#ff0"/></g></g></svg>