<svg xmlns="http://www.w3.org/2000/svg" xml:space="preserve" width="96" height="96" style="shape-rendering:geometricPrecision;text-rendering:geometricPrecision;image-rendering:optimizeQuality;fill-rule:evenodd;clip-rule:evenodd" viewBox="0 0 41.49 41.49"><path d="M.03 15.76c0 .94-.06 3.17 0 3.98.07.88 0 .74 0 1.55l.04 7.48c.04.27-.02.6 0 .72.04.2.62.7.8.88l.2.18c.12.11.1.09.21.22.05.05.03.04.08.09l.03.03 4.23 4.24.11.11 3.16 3.14c.01.01.04.04.06.05.11.1.12.13.2.23.22.27.59.54.83.8.1.12.07.11.21.23.08.07.03.02.12.1l1 1 .11.11c.1.1.14.12.22.22.13.15.03.09.22.21.07.05.22.14.29.14h17.04c.26 0 .4-.08.55-.21.41-.35.75-.77 1.16-1.12l.37-.39.03-.03.05-.06c.03-.03.08-.08.11-.1.05-.05.04-.03.09-.08l1.35-1.37c.05-.05.06-.05.11-.1l.71-.7c.01-.01.04-.04.06-.05l.56-.58c.11-.11.1-.06.21-.17l3.63-3.65c.15-.15.26-.24.41-.4l1.33-1.32c.1-.12.06-.1.18-.21l.44-.43c.36-.33.95-.75.95-1.28 0-1.74.08-16.91-.04-17.27-.07-.23 0-.07-.15-.23l-1.72-1.69-.03-.03-5.68-5.72c-.06-.05-.02-.02-.08-.08l-.11-.11-2.69-2.68c-.14-.14-.23-.25-.38-.38l-.76-.76c-.15-.14-.26-.3-.51-.3H12.56c-.18 0-.19.02-.35.03-.21.01-.33.16-.48.32l-.11.11c-.01.01-.04.04-.06.05l-.33.32c-.42.43-.89.81-1.28 1.27-.02.03-.09.11-.1.12l-.06.05-.09.07-.67.63c-.09.09-.14.16-.23.26l-.42.4c-.01.01-.02.02-.02.03l-.07.09-.03.03-4.35 4.33c-.18.17-.29.29-.46.46L.88 11.08c-.95.99-.78.64-.78 2.07 0 .38-.08.53-.06.88.02.29.09.46.05.82-.03.29-.05.52-.05.89z" style="fill:red"/><path d="M22.72 17.42h.16v-.17h-.16v.17zm4.37 14.38h.11v-.28h-.11c-.04.22-.04.06 0 .28zm4.47-16.59c0 .21-.02.02.05.17l.17-.15-.16-.13c-.01.01-.06.11-.06.12zm-7.83 6.14c-.07-.09-.25-.22-.3-.09-.08.21.18.1.3.09zm9.91 2.71c-.27.02-.26.11-.16.33.13-.1.14-.11.16-.33zm2.82-6.91c.12.09.11.11.32.11-.01-.15-.02-.15-.05-.28-.19.02-.19.02-.27.17zm-15.61-6.64c0-.32.08-.38-.16-.44 0 .32-.08.38.16.44zM4.87 17.15c.27 0 .24-.08.27-.17-.14-.08-.14-.06-.37-.06.01.11 0 .22.11.22zm6.76 2.93c-.01-.16 0-.22-.16-.22h-.16c.01.38.06.24.32.22zm24.61-3.6.31.34.11-.13c-.07-.23-.33-.31-.42-.21zM4.71 21.02l-.05-.49-.08.08c-.12.14-.28.4.13.41zm25.94-3.76h.21c0-.62.12-.1.16-.55-.23.16-.35.31-.37.55zm-.8 13.55v.28c.23-.02.21-.01.21-.33 0-.21.02-.02-.05-.17-.08.06-.16.07-.16.22zM4.5 19.3c.34 0 .51.02.59-.28h-.43c-.1.16-.11.07-.16.28zm17.58-3.54c0 .12.14.28.21.33.33-.23.07-.5 0-.5-.1 0-.21.1-.21.17zM10.15 31.3c0 .97.32.28.32.28 0-.32-.32-.61-.32-.28zm8.36.06.05.33h.27c.08-.35.08-.2 0-.55-.19 0-.32.02-.32.22zm4.85-21.24c0 .33.43.39.43 0s-.43-.33-.43 0zm-15.87 6.2c0 .17.07.17.21.17.25 0 .25-.28.32-.44-.11-.07-.15-.1-.27-.17-.14.1-.27.2-.27.44zm24.13 7.97c.23 0 .38-.44.38-.6-.01-.42-.04 0 .05-.34l-.14.08c-.23.07-.09-.07-.44-.08-.01.56-.16-.13-.16.88l.32.06zm-1.81-3.04c0-.36-.11-.52-.17-.82-.04-.2.02-.31-.09-.78-.18.14-.02 0-.14.18-.46.7-.88.81-1.03 1.03.16.19.53.37.76.7l.33.65c.11.23.11.12.13.36h.16l.05-1.33zm-14.38.44.17.15h.78c.26-.01.66-.04 1.02-.04.08-.38.02-.06-.04-.4-.13-.75-.12-.25-.17-.66-.06-.46-.28-1.03-.43-1.49-.1-.31-.13-.61-.37-.77l-.13.47c-.01.04-.02.06-.04.12l-.62 1.96c-.04.11-.02.02-.07.21-.04.15-.07.3-.1.45zm8.31-4.26c0 .54.18.81.27 1.22-.01.01-.06.07-.08.09-.41.4-.2.4-.19 1.02.12.03.26.05.39.1.8.28.26-.04.78-.04h1.81c.01-.35.2-.34.4-.8.22-.5.05-1.23-.67-1.46-.49-.16-2.37-.25-2.71-.12zm-16.62-.11c-.32 0-.39-.06-.69-.06 0 2.92-.21 2.82.68 2.76l.91.01c.41-.02.87-.06 1.16-.34.06-.06.19-.25.22-.32.34-.73.18-1.69-.8-1.98-.13-.04-.27-.07-.38-.1-.42-.11-.06-.18-.46-.18-.25 0 .01.22-.64.22zm1.28 1.94c.15-.22.25-.21.32 0-.03.02-.08.14-.32 0zm-7.35-6.53c0-.27.03-.45.17-.6.04-.04.07-.06.11-.1l.96-.94.08-.08 1.25-1.25.03-.03 1.73-1.75c.14-.16.25-.21.4-.36l.11-.11 4.37-4.37c.28-.31.63-.57.9-.89l.62-.63c.6-.51.61-.63 1.58-.63h15.6c.28 0 .57.38.61.42l2.26 2.3.03.03 4.27 4.2.03.03.42.44.03.03.03.03 3.27 3.29c.89.77.45 1.19.59 2.21l-.03 15.24-.61.64-.19.19-.03.03-3.42 3.41-.03.03-.06.05-.03.03c-.01.01-.08.07-.08.08l-.11.11-5.22 5.2c-.05.05-.06.05-.11.1l-1.2 1.19c-.46.41-1.11.16-1.72.26-.71.11-10.84.03-12.27.03-.6 0-1.06-.06-1.6-.06-.9 0-1.29.26-2.09-.65l-.19-.19c-.16-.15-.25-.26-.4-.41-.08-.08-.14-.13-.22-.21-.07-.07-.1-.13-.18-.2l-.43-.44c-.08-.08-.15-.13-.23-.2-.05-.05-.11-.13-.18-.2-.16-.18-.25-.22-.42-.39l-1.91-1.95-.03-.03c-.03-.03-.06-.05-.09-.08l-.85-.83c-.09-.08-.13-.13-.21-.22-.03-.03-.08-.09-.1-.11l-.11-.1-.03-.03c-.01-.01-.04-.04-.05-.06l-.3-.3c-.11-.12-.12-.1-.23-.21l-1.41-1.41c-.01-.01-.04-.05-.05-.06l-.35-.35c-.16-.17-.24-.24-.41-.4l-1.71-1.71c-.26-.23-.56-.51-.56-.92v-16.1zm16.62 26.83 2.99-.03c.14 0 .11.03.31.03l7.62-.05 1.46-1.31c.07-.06.05-.04.09-.08l2.36-2.36c.06-.06.09-.08.14-.13l.95-.95s.06-.07.08-.09l1.37-1.4.03-.03c.02-.02.07-.08.08-.08l3.86-3.79c.2-.22.43-.37.45-.7.05-.7.02-1.95 0-2.65-.03-.79 0-1.64 0-2.44 0-1.74.15-9.15.01-10.25-.09-.78.05-.42-.45-.97-.05-.05-.03-.04-.08-.09l-3.22-3.24c-.03-.03-.04-.05-.08-.08l-.08-.08c-.04-.04-.07-.06-.11-.1l-3.37-3.36-.19-.19-.19-.19-.08-.08-1.35-1.37c-.32-.33-1.4-1.52-1.74-1.52H13.19c-.35 0-.51.12-.72.35l-.72.69c-.06.05-.06.06-.11.11l-.03.03-1.08 1.04-.03.03-.13.14-.03.03-1.06 1.11-.03.03L7.49 7.3l-.03.03-.03.03-.45.47c-.27.33-.6.6-.9.89L4.91 9.88l-.03.03-1.42 1.4c-.1.1-.14.14-.25.24l-.13.14c-.05.06-.07.08-.13.14-.17.18-.32.31-.49.49-.13.13-.29.25-.36.4-.13.28-.04 9.79-.04 10.52 0 1.16.09 3.05-.04 4.05-.03.23-.03.74-.01.97.03.26.04.51.22.71l.71.7c.04.04.04.04.09.07.33.28.6.63.91.94.05.04.04.04.08.08l.28.26c.36.34.63.66 1.01 1l2.29 2.27c.46.53 1.07.97 1.53 1.51l2.64 2.68.03.03c.24.24.86.93 1.11 1.01.11.04.03.02.16.02l.71.01h1.97c.39 0 .59-.08.96-.06.32.02.56.06.96.06zm2.56-31.47c0-.13.09-.16.16-.28.27 0 .33.03.54.05 0 0 .72-.06.35.37-.23.27-.31.01-.65.05-.14.01-.22.03-.4.03v-.22zm2.18 2.21c0-.43.2-1.27.58-1.56.3-.23.47-.21.81-.21.47 0 .78.66.89 1.06.17.6.08 1.6-.4 2.05l-.18.15c-.24.16-.74.21-1.04-.02l-.11-.11c-.06-.05-.03-.02-.08-.08l-.17-.26c-.01-.01-.01-.03-.02-.04-.14-.27-.27-.7-.27-.99zm-5.59-1.33c0-.2.03-.44.21-.44.36 0 .5-.04.7.33l.12.26c.1.21-.04.05.16.19l.04-.61c.08-.05.24-.17.32-.17.34 0 .69-.07.69.22v2.93c0 .2-.16.18-.3.2-.55.07-.52-.14-.66-.36-.11-.18-.09-.06-.1-.28h-.11c0 .12-.02.29-.05.4-.06.31-.07.21-.97.21-.12-.53-.05-2.22-.05-2.88zm3.14.22c.09-.24.04-.57.33-.65.15-.04.99-.01 1.21-.01l.34 1.15c.06.18.01.25.06.43.05.18.1.15.13.36.24 1.57.54 1.38-.58 1.38-.34 0-.13-.5-.43-.5-.9 0-.43.12-.71.42-.15.16-.56.08-.94.08v-.28l.58-2.38zm9.94 4.12c-.17-.05-.15-.01-.3-.08v-.11c0-.23.51-.07.59.22-.21.1-.07.04-.29-.03zm.45 1.41.26-.17c.38-.25.37-.23.53.01.15.21.11.12.11.61-.52 0-.66.08-.77-.08a2.6 2.6 0 0 1-.13-.36zm3.3 9.35c.01-.01.01-.03.02-.04l.03-.13c.1-.73.01-.13.11-.55.45 0 .48-.14.97-.07l2.11.01c.41-.05.52-.07.86.12 0 2.2.18 2.17-.42 2.16h-2.45c-.72 0-.79.09-1.23.39-.12-.17-.04-.04-.11-.1l-.03-.03c-.19-.18-.01-.07-.34-.26-.1.09-.2.2-.32.28-.21-.06-.22-.21-.54-.24-.78-.08-.67.24-1.25.06-.24-.07-.32-.13-.71-.1-.32.02-.29.16-.59.21-.25.04-2.16-.07-2.28-.1a7.38 7.38 0 0 1-.16-.94c-.03-.35-.03-.67-.07-1.04-.21-2.16-1.66-1.63-2.49-1.79-.25-.05-.67-.05-.88.1-.29.21-.02.13-.22.32-.18.17-.14-.03-.29.19l-.15-.12c-.18-.14-.12-.01-.17-.21-.25.01-.23.04-.37.17-.11-.04-.04-.03-.1-.07-.27-.19-.23-.08-.31-.03-.27.14-.16.1-.55.1.04.41.27-.11.11.61-.71.17-.65-.09-.64-.5v-6.14c0-.83-.11-.97.21-1h5.92c.48 0 .95.26 1.33.5.52.34 1.11 1.33 1.12 1.88.34-.09.1-.33.11-1.05v-.72c0-.45.04-.28.11-.55.28 0 .59-.03.78-.02.32.01.35-.01.66-.03.05-.21.01-.3.18-.37.11-.04.33-.02.46-.02-.01.24-.04.17-.05.39.82 0 1.64-.08 2.34.12.29.08.5-.02.65.05.1.11.01.51-.16.77.14.07.06.05.27.06 0 .79-.25.19-.05 1.05l-1.22.04c-.33-.04-.09-.06-.26-.02l-.07.03c-.2.1.01.13-.27.08-.6-.11-.48-.17-.95.15 0 .3.03.23.08.47.19.85-.18 1.08.39 1.09.78.01 2.67-.04 3.32.01.12.01.06 0 .2.04.84.21 1.14-.29.97 1.51-.01.13.11.59-.53.54-.2-.02-.17-.07-.46-.03-.46.07-2.58.02-3.43.03-.53 0-.39.1-.37 1.72.01.64.01.34-.21.83.09.14.03.11.21.17 0 .41-.06.32-.1.45-.02.07-.1-.04 0 .07l.02.01c.01 0 .02.01.03.01.52.1.41-.3.85-.31.17-.77.29-.31.05-.83.28.08.37.29.37.66zM8.5 15.46c-.06-.07-.05-.06-.09-.13.09-.09.13-.09.29-.1h.08l1.34.15c.61.25.61.17 1.14.81l.07.09c.32.36.5.33.6.76-.1.06-.21.15-.3.19-.15.06-.29 0-.29.2 0 .14 0 .22.16.22.06 0 .64-.48.64-.06v1.49l-.25 1.23c0 .01-.08.17-.09.18-.08.14-.14.2-.29.25-.02-.22.03-.17-.16-.22 0 .74-.17.86-.86 1.21l-.14.07c-.89.48-2.78.06-3.85.32 0 .37-.05.5-.06.83v.89c0 1.94.36 1.6-1.49 1.6-.01-.38-.11-.24-.15-.51-.02-.13-.05-.49-.06-.6-.4.31.4 1.27-.75 1-.01-.37-.04-1.02.03-1.35.14-.63.02-.78.02-1.41 0-.6.15-.32-.08-1.3-.1-.43-.13-.13-.13-.36 0-.53-.06-1.22.05-1.72.25 0 .22-.04.43-.06-.08-.32-.11 0-.08-.35l.09-2.04c-.04-.29-.15-.53.25-.54l.06.33c.04 0 .17-.03.18-.03.31 0-.01.19.27.05.11-.05.08.07.08-.41h.43c.07-.32.07-.23.21-.44.26.03.08.04.27.11.09-.19.01-.44.27-.44.67 0 .54.11.85.11.35 0 .08-.23.6.04.36.19.48.27.84.07-.1-.27.02.03-.12-.15zm5.82 1.2c-.26.41-.13.53-.13.7-.01.18-.08.21.03.4.3-.11.39-.8.6-1.25.44-.93.09-.69.09-1.46l.23.15c.14.15-.1.08.18.15l.58.11c.17.04.55-.03.64.11.12.21-.2.59.08.75.07-.15.05.05.05-.17v-.66h1.01c.17 0 .11.04.17.16 0 .01.09.19.11.22l.87 2.42c.04.13.02.14.07.26.03.08.05.1.05.11l1.08 3.03c.12.53.48.96.48 1.66-.15 0-.21-.01-.35.02-.75.16-.23-.08-.71-.08-.46 0-.15.08-.63.17-.12.02-.17.03-.3.08l-.83.19c-1 .15-1.12-.05-1.86-.05v-.22c-.43 0-.49.23-.88.41-.68.32-.29.47-.72.58.08.12.18.22.27.33l-.31.62c-.12.26-.26.33-.57.29-.19-.02-.22-.06-.4-.08-.13-.01-.29.01-.42-.01l-.23-.09c-.01-.01-.02-.02-.03-.02l-.06-.05c-.01-.01-.02-.02-.03-.02l-.29-.09c.03-.33.11-.17.27-.39-.12-.19-.32-.23-.32-.39 0-.33.23.06.27-.44-.14-.01-.14-.03-.27-.06.16-.34.13-.17.22-.33.03-.05.33-1.3.5-1.7l.07-.2c.24-.63.34-1.42.43-1.54.31-.43.08-.11.32-.66.06-.13.07-.22.13-.36l.41-1.07c0-.42-.32-.28-.32-.83 0-.29-.09-.71.48-.72zm23.28-.33c-.01.22.05.26.05.55 0 .23-.05.26-.05.55h-1.23c-.17-.27-.12-.16-.37-.33.05-.21.05-.07.11-.28-.28-.14-.29-.1-.43.06 0-.17-.04-.18.16-.33l.42-.23v-.5c-.15-.04-.08.01-.16-.11.46-.11-.02-.16.79-.23.99-.07.73-.11.7.84zm-3.73 5.42c.51-.36.53-.24.53.39-.37.09-.17.08-.48 0-.01-.24-.04-.17-.05-.39zM7.51 23.08c.3-.43.64.11.27.11-.29 0-.19 0-.27-.11zm14.27.06c.2 0 .2.06.36.03.01 0 .03-.01.04-.01.01 0 .03-.01.04-.01.37-.1.24.08.31.48.03.19.05.2.05.45.21 0 .2.03.32.11 0 .3-.05.24-.15.39-.04.06-.04.06-.06.1.14.15.07.06.22.17.29.21.03.2.17.42.18.29.45.03.62.02 0 .22.08.31-.03.41-.01.01-.33.15-.34.15-.51 0-.33.01-.46-.19-.12-.2-.32-.39-.34-.64-.27.02-.22.02-.27.21l-.2.79c-.04.26-.05.15-.12.32-.06.16-.02.04-.05.23-.02.15.01.05-.04.19-.27.86-.08.38-.39.98-1.01-.5.05-.86-.21-2.05-.44-.11-1.51-.01-2.1-.09-.32-.04-.4.01-.41-.35.49 0 .35.03.64.06.01-.16 0-.22.16-.22.5 0 .22.17.48.17s.1-.05.3-.13c.13-.06.15-.02.29-.09-.01-.25-.09-.43-.11-.66-.33.08-.27.09-.3.18-.06.16.16.44-.73.28-.16-.03-.25.02-.27-.14-.05-.31.32-.03.56-.15.1-.23-.05.24.01-.09.03-.16.03-.16.14-.25.52-.4.75.06.97.12 0 .77-.12 1.11.11 1.11.14 0 .24 0 .2-.19-.04-.15-.25-.08-.06-.39.38-.62.56-.2.56-1.36-.21 0-.12.02-.27-.06l.37-.28zm-3.46.83c0-.2.15 0 .69 0-.05.21-.05.07-.11.28-.09 0-.22.02-.28.02-.06 0-.12-.02-.26-.02-.03-.12-.05-.13-.05-.28zm.21.61c0-.15.22-.1.48-.28 0 .38.02.17-.12.37-.15.2.01.17-.31.18-.03-.12-.05-.13-.05-.28zm13.26 1.6c.01-.39.29-.39.48-.28-.07.27-.09.06-.16.34l-.32-.06zm1.87-.01c.05.06.28.12-.11.39-.08-.06-.07-.04-.15-.12l-.12-.15.27-.28.09.13.03.03zm1.01.06c0-.1.01 0 .08-.14.11-.22.06-.24.35-.25.02.26.05.28.27.33-.06.23-.38.5-.59.55-.04-.2-.11-.26-.11-.5zm-2.77 1.55c.06-.29.18-.35.43-.44.31-.12.24-.19.58-.28l.29.37c.14.22.09.25.09.57-.55.13-.26-.08-.8-.17-.26-.04-.4-.01-.59-.05zm-11.66 2.1c.5 0 .94-.14 1.01.72.19-.05.17-.07.2-.29.08-.5-.14-.43 1.02-.43 0 .04.01.16.02.17l.04.44c0 2.89.18 2.71-.69 2.71-.34 0-.17-.49-.59-.61 0 .28.06.61-.21.61-.55 0-.8.08-.8-.17v-3.15zm-4.9 1c0-.67.42-1.05 1.12-1.05.68 0 .64.16.85.22-.01.28-.05.21-.09.4-.04.17-.04.28-.07.43-.49-.01-.21-.22-.48-.22l-.27.06c.03.43.41.27.77.8.23.33.19.12.19.31v.61c0 .25-.28.75-.8.78-1.19.07-.92-.08-1.23-.17 0-.52.01-.62.21-.94.21.08.01.01.21.17.4.3.64-.06.18-.35-.15-.09-.18-.1-.3-.24-.15-.18-.3-.47-.3-.79zm14.65 1.22c-.16.07-.08-.12-.11.21l.01.84c-.21.05-1.07.2-1.07-.17l.05-2.88v-.22c.99 0 2.13-.23 2.24.67.03.26.05.36.01.56-.08.44-.17.3-.17.49 0 .26.32.72.32.94 0 .74.06.68-.42.67h-.54c-.08-.37-.01-.57-.19-.97-.12-.28-.13-.13-.13-.13zm-18.22-.77c0-.27.06-.05.03-.36-.07-.67.02-.43.02-1.07h1.81c.08.35.08.42 0 .78-.8 0-.84.04-.75.44.2 0 .55-.12.52.55-.03.64-.71-.11-.52.72.29 0 .8-.08.8.22s.06.61-.23.61c-1.85 0-1.65.18-1.65-.62l-.04-1.26zm19.65-.83c0-.39.49-.95.86-.45.34.48.08 1.2 0 1.61-.08.4-.16.1-.16.72.12.03.16.01.16.17 0 .68-.09.73-.59.61-.11-.25-.14-.43-.04-.71.2-.51.15-.1-.01-.68l-.15-.51c-.07-.28-.06-.47-.06-.77zm-13.9.83c0-.14.18-.75.36-1.01.36-.51.91-.63 1.33-.36.24.15.29.26.42.5l.08.19c.05.13.15.3.15.46 0 .76.09 1.04-.3 1.63-.09.14-.4.47-.56.47-.54 0-.85.12-1.21-.57-.09-.17-.12-.27-.16-.44-.15-.54-.12-.21-.12-.87zm5.38-1.44h.96c.08.34.05.69.05 1.11.33.03.11.18.48 0 0-1.26-.18-1.11 1.01-1.11v3.15c0 .13-.04.17-.16.17-.93 0-.87.11-.85-.72.01-.53.06-.5-.43-.5-.09.38-.02.83-.11 1.22-.38 0-.65.02-.96-.06v-3.26zm-12.57 0c.24 0 .2-.02.36.07.26.13.53.42.62.68.3.8.28 1.36-.19 2.13-.13.22-.6.44-.75.44-.74 0-1.23.11-1.23-.17v-3.15h1.17zm16.01.38c.03-.17.04-.23.07-.37.27 0 1.12-.04 1.33 0 .23.05.19.16.23.42l.39 1.58c.12.28.03.29.09.57.06.25.14.19.14.58 0 .31-.81.16-1.01.11 0-.6-.37-.55-.8-.44-.08.17-.04.5-.32.5-.52 0-.75.07-.75-.17l.62-2.78z" style="fill:#fff"/></svg>