<svg xmlns="http://www.w3.org/2000/svg" xml:space="preserve" width="96" height="72" style="shape-rendering:geometricPrecision;text-rendering:geometricPrecision;image-rendering:optimizeQuality;fill-rule:evenodd;clip-rule:evenodd" viewBox="0 0 45.8 34.35"><defs><style>.fil4{fill:#000}.fil3,.fil6{fill:red}.fil1{fill:#f0f}.fil2{fill:#fff}</style></defs><g id="Camada_x0020_1"><g id="_2484032777520"><path d="m43.43 22.83-.56 2.11h-2.04l-.59 2.09c-.02.09-.07.19-.08.28-.01.13.01.11.17.12l2.18-.02-.51 1.94c-.07.26-.02.47-.41.36.03-.12.05-.07.08-.21-.36-.29-.82-.08-1.02-.17.06-.08.05-.06.13-.13.24-.21-.05-.35-.24-.4-.45-.12-.81-.03-1.15-.03-.2 0-.37-.03-.56-.02-.84.06-1.34.23-1.99.43-.11.03-.14.04-.25.09-.45.2-.3-.01-.23-.28.16-.58.05-.42.49-.66l1.51-.87v-.21c-.24-.15-.23-.19-.65-.21-.29-.01-.48 0-.8 0l.6-2.22c.09-.37.2-.74.31-1.1.27-.95.62-2.38.91-3.29l.61-2.17 4.74.07c.16 0 .45-.02.59.01.01 0 .02.02.03.01 0 0 .07-.02.04.15l-.59 2.11H42l-.57 2.11c.25.05.6.03.91.03.2 0 .75-.04.89-.02v-.04l.01-.02.01-.02c-.16 0-.25-.01-.35-.02-.18-.02-.24.03-.28-.09-.02-.07.09-.51.11-.58l.27-1.11c.13 0 .29.01.42 0 .21-.01.15-.03.28-.09.13-.06.08-.01.29-.01.13 0 .21-.02.28-.09.07-.07.17-.42.2-.55.01-.06.01-.09.03-.15l.2-.72c.03-.11.03-.19.06-.29.05-.2.17-.31.16-.56-.01-.18-.04-.17-.23-.17l-1.03-.03c0-.3.27-1.67.42-1.9.05-.09.14-.12.23-.17.06-.04.05-.03.1-.08.01-.01.05-.06.05-.06.44-.42.21.02.79-.87.29-.44.35-.51.52-1.02.12-.37-.02-1.01-.1-1.34-.05-.17-.18-.37-.26-.53-.08-.17-.24-.26-.38-.38-.43-.39-1.01-.63-1.58-.81-.17-.05-.44-.14-.56-.22.01-.46.95-1.1.35-2.12-.23-.39-.65-.65-1.05-.87-.36-.2-1.07-.38-1.49-.44-.12-.02-.25-.06-.41-.08-.2-.03-.27.02-.33-.14-.09-.23-.17-1.39-.51-1.86l-.2-.27c-.2-.27-.55-.45-.85-.61-.59-.29-1.5-.29-2.14-.21-.28.04-.54.09-.88.09-.18-.35-.09-1.02-.89-1.75l-.02-.02-.07-.07c-.27-.27-.58-.41-.99-.49-.45-.08-.87-.07-1.37-.02-.23.02-.42.05-.68.07-.32.03-.94.33-1.15.07-.12-.15-.14-.29-.23-.44-.21-.35-.72-.86-1.06-1.11-.85-.63-2.02-.22-2.95.06-.29.09-.84.4-1.12.25-.08-.04-.05-.02-.1-.08l-.09-.09c-1.05-.8-2.01-.99-3.28-.33-.09.05-.17.06-.26.11-.1.06-.11.08-.22.14-.34.19-.83.65-1.04.75-.18-.14-.13-.18-.24-.37-.58-.94-1.26-.79-2.17-.24l-1.12.96c-.16.08-.37-.03-.51-.06l-1.58-.25c-.45.02-1.07.19-1.46.4l-.34.24c-.24.18-.43.38-.53.66-.43 1.26.61.89-1.4.94-.34.01-.72.14-1.02.21-.54.14-1.05.7-1.2 1.19l-.14.74c-.04.41-.55-.02-1.12-.15-.81-.19-1.12.54-1.36 1.04-.05.11-.07.09-.12.2-.16.33-.03.21-.4.29-.4.08-.77.1-1.19.2-.36.09-.66.25-.91.48-.07.07-.1.12-.17.2-.07.07-.09.08-.13.19-.15.36-.21.73-.13 1.11.1.51.35.43-.04.91l-.58.78c-.05.08-.08.14-.13.23l-.25.43c-.04.07-.03.04-.06.12l-.41 1.08c-.11.53.03.92.21 1.34.04.09.05.14.09.23.08.17.19.25.27.41.1.19.48.59.64.74l.58.47c.08.05.12.08.19.13.18.14.71.35.96.4.05.19.05.41.08.62.03.22.1.3.2.48.12.22.03.32-.02.53-.12.52-.33 1.06-.48 1.57l-.93 3.13c-.05.16-.1.33-.15.52-.04.15-.09.36-.15.52l-.63 2.09c-.09.37-.22.68-.31 1.03l-.61 2.07c-.03.07-.06.18-.11.25-.11.14-.6.47-.85.89-.19.33-.18.81.09 1.08l.14.12c.2.15.39.29.64.39l.11.04c.13.05.27.11.44.12-.1-.14-.33-.16-.49-.25-.27-.14-.61-.39-.72-.66-.21-.51.13-1 .51-1.35l.78-.61c.34-.27 1.42-.79 1.87-.96 1.36-.51 1.31-.51 2.68-.87 1.22-.33 3.06-.63 4.36-.63.23 0 .5-.01.72 0 .17.01.16.03.34.04.6.01 1.51.13 1.93.53.42.39.28.08 1.11.16.32.03.32.05.45.24-.08.16.02.07-.13.19l-1.07.58c-.31.12-.61.25-.88.44l-.9.6-.09.06c-.11.07-.12.03-.16.17.16-.01.32-.09.45-.14.29-.11.65-.18 1.02-.13.68.1.01.57-.14.79.15 0 .62-.17.76-.24.1-.05.1-.06.24-.1.41-.12.61-.28 1.05-.19-.02.18-.15.18-.3.25l-2.66 1c-.34.12-.68.37-1.06.14.13-.18.51-.49.53-.69-.08.04-.15.05-.25.08l-2.41 1.02c-.44.2-.46.25-.95.24 0-.29.2-.37.37-.53.1-.09.13-.11.24-.19.25-.18.48-.44.71-.63.07-.06.18-.12.26-.18.07-.06.16-.16.21-.23-.2 0-.33-.03-.42-.14.03-.11.06-.12.15-.17l2.33-1.16c.2-.14.51-.44.75-.49-.03-.33-1.03-.54-1.3-.58-.57-.07-1.21-.09-1.81-.04-1.2.09-3.09.42-4.23.82-.52.18-1.03.36-1.53.57-.12.05-.21.08-.32.13-.44.2-1.67.85-2.01 1.28-.46.59-.48 1 .21 1.37l.51.23c.04.02.11.03.17.05.55.14 1.07.22 1.63.28.29.03.6.05.87.07.32.03.65-.02.97.02.27.04.63.04.91.01.56-.08 1.3.01 1.86-.07.18-.02.29-.02.47-.02.21 0 .24-.03.45-.04l3.45-.35c.21-.01.26-.04.43-.05.09-.01.26.03.37.05 0 .18-.05.2-.2.23l-2.04.21c-.16.01-.27 0-.43.02-.76.11-1.49.09-2.09.17l-1.73.12c.17 0 .39.03.49.02.11-.01.28-.02.46-.02.65 0 2.37-.14 2.82-.08.68.08 2.02.02 2.87.08.31.02.72-.01.84.14-.08.1-.05.05-.17.12l-.77.51c-.07.04-.1.05-.17.09l-.8.48c-.35.24-.06.39.36.39l-.19-.1c0-.12-.02-.13.03-.21 0 0 .13-.1.14-.11.1-.07.18-.11.29-.18l1.09-.67c.35-.18.69-.44 1.05-.64.51-.28 1-.62 1.49-.92l2.13-1.31c.11-.06.2-.11.3-.17l.15-.1c.05-.03.08-.04.14-.08l.9-.56c.18-.11.4-.29.66-.3.18-.01.38-.03.4.11.01.09-.4.37-.49.43-.13.09-.21.07-.25.22.21 0 .39-.13.61-.17.48-.1.84-.16 1.33-.14.31.01.4.03.53.21-.11.42-.8.45-1.02.73.2 0 .19-.02.33-.08l1.4-.55c.25-.08.44-.06.62.05-.06.19-.25.21-.44.29l-2.44.89c-.49.19-1.01.28-1.56.28v.03c.52 0 .92.05 1.37.01.6-.06.91-.18 1.25-.18.13.25.28.38.61.31l-.11-.07c-.04-.02-.07-.04-.12-.07 0-.25 0-.18.13-.33.15-.17.34-.27.54-.41.11-.07.18-.14.28-.2.16-.11.42-.27.61-.34.24-.09.38-.21.62-.3.14-.05.21-.08.34-.14.13-.06.2-.09.35-.13 2.68-.86 2.78.02 1.52.21-.25.04-.74.03-.9.22.13 0 .25.03.34.07.12.05.19.06.23.17.31-.01.66-.21.95-.31.34-.11.63-.29.98-.07-.03.11-.06.13-.11.21.11-.01.4-.12.51-.16.49-.22.96-.38 1.55-.42.72-.05.58.07 1.12-.22.29-.16.53-.31.83-.46l.63-.36c.59-.3 1.27-.93 1.91-1.03.35-.05.84-.11 1.09.12-.02.23-.11.21-.28.3l-.37.22c-.74.38-2.8 1.59-3.47 2.03l-.53.32c-.3.2-.74.46-.94.73.23-.02 2.5-.91 2.99-1.15.33-.16.75-.32 1.08-.16-.03.12-.13.16-.23.21l-3.42 1.34c-.26.1-1.13.34-1.25.49.15 0 .4.05.54.07.17.02.41-.03.53-.06.2-.04.29-.07.46-.13.35-.14.73-.23 1.07-.38.39-.16.21.19 1.16.19l-.32-.09c-.46-.15.14-.56.34-.69l.61-.38c.23-.12.44-.22.66-.33.58-.29 1.19-.53 1.82-.72.08-.03.14-.04.2-.06.44-.09 1.52-.41 1.81-.01-.08.29-.47.35-.77.4l-.53.07c-.18.04-.35.02-.4.19.36.01.39.18.49.21.36.11 1.34-.7 2.01-.38-.06.22-1.02.48-1.28.6-.56.26-1.62.54-2.11.84-.01 0-.02.01-.02.01a.5.5 0 0 0-.08.07c.6 0 .98.11 1.47-.11l1.73-.67c.94-.34.84-.42 1.96-.42.18-.24.26-.65.32-.95.02-.11.05-.2.09-.3.07-.2.12-.42.18-.63.18-.73.21-.52-.37-.7-.51-.16-.6-.01-.57-.29.06-.58.37-1.35.42-1.9.21 0 .21-.05.48-.02.51.06.49-.12.52-.21.02-.08.03-.1.06-.19.12-.47.26-.9.36-1.37.04-.2.15-.36.1-.56-.09.04-.06.02-.1.1z" style="fill:#282829"/><path class="fil1" d="M28.19 17.47c.17-.07.51.08.76.17.52.19.87.18 1.31-.15.09-.07.17-.16.26-.18.12-.02.16.03.14.1-.03.08-.22.19-.31.27l-.02.02c-.33.3-.92.31-1.24.19-.04-.01-.1-.04-.16-.06-.08-.03-.09-.03-.16-.06-.34-.12-.53-.13-.58-.3zM6.1 8.76c1.18 0 2.15.48 3.15.93.24.11.48.2.71.32.53.27.66.26 1.1.42.14.05.22.09.39.09 1.24.06 1.45-.35 2.17-.79.43-.26.79-.49 1.26-.72.98-.48.64-.26 1.51-.53.76-.24 1.84-.33 2.69-.24l.42.07c.12.02.06.01.18.05.55.15 1.1.26 1.63.45.97.35.51.2 1.29.56.39.18.86.43 1.43.43 1 0 1.71-.41 1.94-.41.19 0 .16.07.05.14-.11.08-.59.21-.75.26-1.42.42-2.12.08-3.28-.52-.27-.14-1.02-.36-1.35-.46-.12-.04-.23-.08-.34-.11-1.3-.4-2.65-.41-3.96-.02-.16.05-.3.08-.44.12-.17.04-.23.07-.39.13l-2.2 1.28c-.51.37-1.01.49-1.66.49-.84 0-2.46-.84-3.24-1.2l-.63-.26c-1.24-.4-2.01-.44-3.34.01-.42.14-.53.25-.73.13.19-.24 1.83-.62 2.39-.62zm27.06-.82c.36.3.65.96.61 1.38-.28-.01-.26-.14-.33-.36-.14-.46-.31-.91-.85-1.13-.65-.26-1.6-.13-2.29-.16-.18-.01-.15 0-.22-.11.55-.12 1.82-.09 2.35.03.33.08.5.17.71.35zm-7.21-.48c.11-.16.12-.42.17-.64.07-.29.08-.44.21-.61.85 0 .8-.06 1.25-.07.22-.01.45.01.65-.01.27-.03.39-.08.49.05-.42 0-.8.04-1.18.07l-1.17.07c-.03.12-.06.18-.09.33-.03.13-.05.22-.08.34-.24 1.12-.21.45-.37.87-.24.64-.42.62-.44.81.58 0 1.16.14 1.65.33.9.34.74.09 1.41.23.1.02.14.01.27.03.13.02.11.04.27.06.13.02.17.04.27.06.15.04.68.16.54.37-.07.11-.46-.04-.76-.11-.28-.06-.86-.17-1.14-.14-.24.03-.4.03-.6.08-.39.09-.47.15-.62.02-.57-.47-.52-.6-1.61-.74-.34-.05-1 .01-1.28-.04L21.6 7.46l-.19-.11c-1.03-.57-2.66-.63-3.93-.57-.31.02-.63.02-.81.16-.05.04 0 .01-.06.05-.1.07 0 .06-.16.06-.25.01-.13-.11-.49.01l-1.93.66c-1.12.48-2.56 1.46-3.95 1.12-.8-.2-.25-.02-.98-.31l-.69-.3c-.27-.14-.84-.34-1.16-.43l-.56-.11c-.36-.03-.9-.04-1.22.03-.18.04-.34.07-.51.12-.31.09-.67.24-.89.4-.63.45-.75 1.02-.41 1.66.13-.03.16-.05.3-.07.11-.02.2-.03.32-.06 1.07-.27 2.14-.21 3.2.07.11.03.19.04.3.07.1.03.18.07.27.1.15.04.42.07.54.16.18 0 .26.06.41.11l.68.28c.13.06.22.08.34.14 1.11.5 1.97.94 3.17.13l1.41-.79c.56-.3 1.55-.59 2.19-.74.76-.17 1.49-.24 2.28-.2.35.02.76.13 1.07.2.08.02.11.02.19.04 1.6.41 1.45.52 2.52.92.7.26 1.31.39 2.1.22.62-.13 1.23-.38 1.79-.65.44-.21 1.18.06 1.56.27.5.27.94.48 1.55.42.75-.08 1.39-.81 1.86-1.32.14-.15.18-.25.43-.2.05.2.07.24-.04.42-.27.41-.7.77-1.14 1.04-.06.04-.03.01-.1.05-.05.03-.06.03-.1.05a2 2 0 0 1-1.07.27c-.75-.01.29.34.12 1.88-.03.23.04.26.26.27.7.04 1.14-.11 1.65-.47l.23-.17c.01 0 .01-.01.02-.02.38-.32.5-.87.91-.83.35.03.05.33-.11.56l-.5.59c-.11.12-.46.35-.63.43-.45.22-1.24.29-1.92.29-.18.31-.07.33-.49.24 0-.43.29-.95.08-1.35-.2.06-.38.29-.53.41l-.68.46c-.48.31-1.19.31-1.79.31-.11.16-.24.38-.34.55-.48.85-.88.54-.68.21l1.27-2.2c.05-.08.12-.18.18-.25.08-.1.15-.12.33-.12.16.63-.3.97-.42 1.42.81 0 1.42-.18 1.88-.64.14-.14.29-.28.38-.45.03-.05.03-.05.05-.1.01-.02.03-.07.04-.07.07-.15.09-.35.03-.54l-.19-.28c-.16-.15-.32-.31-.53-.42l-.64-.32c-1.02-.39-1.6.37-2.51.57-.3.07-1.04.07-1.35.04-.44-.05-.5.06-.86-.11-.06-.03-.1-.05-.17-.09-.05-.03-.1-.05-.15-.07-.13-.06-.22-.1-.32-.16-.36-.21-.76-.35-1.15-.51-.08-.03-.09-.04-.14-.08-.23 0-.15-.06-.38-.07l.59.29c.47.19.6.34.88.48.39.19.88.73 1.12 1.05.76 1.04.71 1.75.39 2.89-.27.94-.67.75.71.91.21.02.32.02.52.05l1.01.12c.33.06.66.09.97.15.4.09 1.92.31 1.9.86-.01.32-.72.53-.99.66l.46.45c.01.01.03.03.06.05l.04.04.05.06c.17.18.18.15.37.16.05 0 .11.01.17.01.8.02 1.13.08 1.69-.33l.18-.14c.21-.17-.16.14.04-.03l.1-.08.09-.09c.52-.58.55-.26.55-.98.57 0 .79 0 1.14-.21l.6-.39c.08-.07.66-.85.55-.26-.16.83-.38.8-.54 1.07l.73.13c.38.06.88.14 1.19.34.62.39 1.79-.01 2.61.59.08.06.18.1.17.22-.03.33-.83-.42-2.04-.27-.1.01-.28.02-.42.03-.1.01-.2.04-.35.06-.39.05-.35.01-.58-.2-.25-.23-.69-.51-1.09-.6-.51-.11-.36-.04-.77-.09-.32-.04-.54.03-.79.03-.01.16-.24.39-.35.51-.04.05-.06.09-.1.15-.22.3-.49.41-.54.58 2.66 0 5.18.06 7.82.07.28 0 .6.08.99 0 0-.27.08-.51.08-.83 0-.15.01-.3 0-.45-.01-.18-.04-.19-.04-.38.38-.23.48-.04.87-.03.13 0 .84-.11.91-.14-.07-.08-.85-.33-1.01-.39l-.11-.04c-.15-.05-.07-.05-.24-.06-.05.16-.35.35-.51.44-.41.23-.99.48-1.5.43-.21-.02-.59-.13-.61-.34.34 0 .96-.05 1.3-.13.15-.04.38-.14.47-.23.09-.09.23-.31.24-.44l-1.58-.56c-.19-.07-.29-.16-.54-.16l-.15.28c0 .01-.01.01-.02.02-.17.2-.22.22-.48.22-.19-.37.13-.44.15-.73l-1.98-.72c-.2-.02-.45.3-1.28.3.1.18.62.54.82.81.11.15.09.21.01.37-.19 0-.24-.02-.33-.11l-.3-.35c-.06-.07-.03-.04-.12-.1l-.72-.52c-.09-.08-.17-.12-.24-.2-.08-.08-.11-.12-.11-.28.19-.08.27-.06.52-.02.16.02.4.03.62.02.98-.04 1.47-.64 1.95-1.2l.11-.14c.05-.09.06-.09.06-.22-.37-.09-.65-.79-.75-1.12l-.12-.47c-.15-.01-1.02-.12-1.14-.17l.03-.46c.17-1.5-.18-2.29-1.74-2.72-.51-.14-1.05-.17-1.57-.23-1.21-.15-.87.16-1.07-.41l-.25-.57c-.3.01-.16.13-.49.03.06.1.04.05.09.1.09.11.08.16.17.3.05.08.24.36.01.37-.16.01-.23-.24-.28-.37-.09-.25-.18-.11-.18-.42l-2.54.14c-.02.17-.1.47-.14.63l-.12.62z"/><path class="fil1" d="M34.34 5.72c.02-.2.1-.15.42-.2.88-.16 1.86-.33 2.68.04.52.23.75.79.93 1.23.09.22.34.7.07.7-.13 0-.16-.11-.19-.21l-.32-.81c-.16-.34-.39-.62-.73-.79-.34-.17-.23-.09-.65-.13-.35-.04-1.05.03-1.42.1-.24.05-.55.13-.79.08zM33.1 2.94c-.19.26-.36.13-.62.29.3 0 .48.06.69.23l.27.24c.27.23.27.32.41.46.11.11.1.12.19.24.06.09.11.16.18.25.08.11.12.14.12.31-.17.04-.19.01-.29-.11-.07-.08-.11-.16-.18-.25-.07-.1-.12-.14-.19-.24-.26-.34-.27-.36-.62-.68-.2-.18-.33-.2-.54-.33-.13-.08-.17-.09-.41-.07-.27.03-1.7.29-1.83.39-.05.04-.03.23-.61.23.09-.13.09-.1.23-.17.09-.05.02 0 .07-.04-.2 0-.32-.03-.46.08l.15-.01c-.03.07-.02.03-.04.07-.01.01-.03.03-.03.04 0 .01-.01.01-.02.02l-.07.08c0 .01-.01.01-.02.02l-.14.22c-.11.2-.4.69-.41.91.23.05.23-.09.35-.24.21-.25.07-.72.48-.88.22-.09.33.01.58.01.03.13.04.14.04.31-.09.06-.23.1-.24.23-.03.28.41-.3.47-.33.16-.09.27 0 .38.07-.03.33-.42.54-.59.81-.19.29.01.25-.42.62-.09.08-.14.09-.2.16.08.3.37.5.46.8.17 0 .21-.05.31-.1.12-.07.15-.05.25-.15.15-.17.23-.29.35-.48.03-.04.04-.06.07-.11.05-.07.05-.08.08-.14.13-.27.32-.58.39-.86h.11c.09.35-.11 1.41-.11 1.87.25.11.6.16.87.25.11.04.27.1.4.16.15.06.25.09.39.16.1.05.08.05.16.1.07.05.11.06.18.11.18.13.76.67.81.85.22 0 .3-.03.48-.08.62-.17 1.41-1.05 1.53-.99.12.06.07.12 0 .31-.08.22-.19.41-.34.59-.09.11-.15.11-.23.24.22 0 .17 0 .33.04.15.04.97.07 1.52.34.19.1.29.16.58.17.92.02 1.18-.01 1.98.27.17.06.36.17.42.35-.13.06-.79-.12-.99-.17-.82-.2-1.1-.05-1.82.1.01.25.52.93.68 1.21.18.32.35.69.59.98.16.2 1.3.36 1.75.76.45.41.07.57.46.62.59.07 1.53.27 1.93.69.35.37.12.74-.44.22-.85-.78-1.1-.34-2.06-.54-.13-.51-.31-.88-.86-1.08l-.05-.02c-.06-.02-.08-.03-.17-.06-.23-.07-.56-.11-.78-.19-.12-.05-.17-.11-.3-.17-.03.31-.46.79-.77.89-.42.14-.87-.04-1.26-.14-.1-.02-.1-.02-.21-.02-.03.11-.08.16-.15.25l-.39.44c-.09.08-.13.15-.26.18.02.19.13.15.32.23.57.25 1.87.82 2.5.97.1.02.14.03.24.06.14.05.04.05.25.05.05-.19.24-.51.4-.63.12-.09.12-.06.32-.06.13.18.14.25.03.47l-.25.43c.19.09.44.15.64.24.12.05.2.06.33.11l1.68.62c.34.13.35 0 .6-.15.1-.06.18-.09.29-.15.12-.07.2-.1.28-.19.27-.31.52-.69.72-1.03.29-.48.72-1.29.29-1.88-.29-.39-.71-.65-1.11-.92-.31-.21-.67-.36-1.02-.52-.32-.14-.49-.16-.43-.41-.18.15-.03.18-.34.11 0-.33.53-1.09.31-1.7a.835.835 0 0 0-.34-.38c-.46-.29-.63-.24-1.05-.39l-.9-.22c-.1-.03-.22-.04-.3-.07v-.17c.23 0 .43.07.63.12.23.06.42.08.64.14.58.17.24-.02.87.28.08.04.24.08.29.11.17.1-.1-.08.04.03l.15.14c.46.41.37.74.22 1.39-.04.17-.16.38-.2.55.13-.11.21-.35.28-.48.24-.41.32-.8.05-1.17l-.22-.25c-.12-.11-.11-.06-.16-.18-.2-.15-.31-.19-.56-.31-.84-.38-1.28-.37-2.14-.54L38.95 7c-.14-.55-.44-1.02-.84-1.44l-.49-.35c-.26-.15-.76-.27-1.09-.27-.9-.01-1.52.14-1.77.14-.19-.36-.27-.62-.44-.99-.06-.14-.11-.19-.18-.32-.08-.15-.09-.14-.2-.27-.1-.12-.13-.14-.26-.24-.12-.08-.17-.14-.31-.2l-.28-.1zM17.76 2.16c.07-.25.99-.4 1.4-.24.25.1.62.39.69.62-.1.05.03.03-.11.03-.28 0-.42-.55-.95-.55-.54 0-.85.27-1.02.14zm2.43.48c0-.12.41-.34.51-.4.64-.39 1.25-.84 2.11-.84.59 0 1.34.48 1.77.85.16.13.07.34-.48-.09l-.19-.14c-.34-.22-.79-.44-1.22-.44-.62 0-1.43.54-1.97.9-.1.07-.18.11-.29.18-.08.05-.24.16-.24-.02zm5.8.8c.01-.01.01-.03.02-.02 0 .01.01-.02.01-.02l.06-.16s-.17.05-.19-.18c-.01-.13.05-.15.19-.17.06.12.01.16.08.28.11-.06.08-.02.11-.15-.2-.02-.02-.13.15-.45.03-.06.05-.12.08-.17.22-.34.57-.2.76-.1 0 .66-.3 1.24-.26 1.58.06.54.05.51.27.15.16-.26.41-.23.67-.11v.31c.36-.08.39-.05.65.07.33-.58 0-.36.08-.59.07-.09.05-.06.17-.12l.09-.06c.03-.02.06-.07.08-.1.16-.25.12-.3.3-.31l-.05.1c.12-.07.07.01.09-.14-.13-.03-.15-.05-.21-.15-.18-.28-.22-.36-.48-.63-.49-.53-.95-.56-1.66-.39-.22.05-.37.14-.57.2-.38.12-.68.29-.81.34-.17.06-.18.05-.29-.02.09-.16.18-.15.49-.28.08-.03.2-.09.28-.13.63-.26 1.65-.56 2.3-.21.43.24.73.63.98 1.01.15.22.07.14.13.26h.2c-.1-.1.02-.06-.16-.07.04-.02.01-.02.08-.03.03-.01.08 0 .11 0-.02-.18-.21-.44-.29-.6-.07-.13-.08-.15-.17-.26-.11-.13-.11-.18-.25-.3l-.18-.15c-.54-.46-1.56-.34-2.22-.17-.35.09-1.61.54-1.72.51-.11-.03-.79-.87-1.75-.93-.53-.04-1.07.05-1.51.28-.05.03-.09.05-.14.08l-.41.24c-1.37.9-.9.87-1.4.34l-.22-.25-.02-.02c-.39-.37-.71-.37-1.19-.19-.43.16-.75.37-1.06.66l-.35.37c-.07.07-.09.1-.15.18-.47 0-.49-.2-.39.18.05.22.05.46.05.72.1.02.28.1.38.14l1.02.42c.9.39.7.21 1.2-.02.08-.04.07-.03.16-.07.32-.13.77-.29 1.12-.36.27-.05.32-.15.44-.29.61-.68.31-.75.31-1.13.14-.09.13-.13.38-.14.15.28.09.69-.02 1.02-.04.13-.08.18-.09.3.29.06.86.03 1.18.06.5.05.54.01 1.09.11l.61.17c.33.1.4.17.62.26.26.1.35.19.51.23.12-.2.23-.35.35-.55.09-.14.27-.46.37-.52l-.01.14zM22.39 17.92l-.08-.03c.09-.11.26-.14.42-.14.03.1.02.06.08.14-.19 0-.06 0-.11.03.1 0 .25-.01.34 0 .14.01.16.01.19.11.14-.01.18-.06.28-.12 1.01-.62.23-.36 1.42-.54.76-.12 1.2-.14 2.04-.32l1.12-.43c-.22-.3-.78-.43-1.24-.53l-2.78-.37-2.96-.17-1.66.15c-.12.03-.26.06-.36.09-.31.09-.88.44-1.1.62-.25.2-.44.5-.48.81-.02.17.05.54.19.62.14.08 3.51.07 4.18.07.24 0 .34.03.53.03zM.37 30.78c0 .45.29.71.68.9l.12.06c.3.18.65.23 1 .34.15.05-.03.01.14.04.07.01.1 0 .17.02l.32.06c.27.01.12.03.31.06.12.02.28.02.38.03.23.03.52.04.73.07.88.1 2.47.04 3.41.04.32 0 .52-.03.8-.03l.83-.04c.77-.08 1.6-.11 2.33-.19.14-.02.27 0 .4-.01.12-.01.25-.05.39-.06.29-.02 1.09-.07 1.32-.14.13-.04.03.05.12-.1-.37 0-.5.02-.81.06-.07.01-.1.01-.17.01-.32.03.01.05-.61.07-.16.01-.24.05-.35.06-.16.02-.27-.01-.42.03-.45.11-1.14.07-1.6.13-.31.04-.46.06-.81.05-.31 0-.53.05-.8.07-.27.02-.63 0-.91 0-.19 0-.23.02-.38.03h-.87c-.2 0-.22-.03-.41-.04-.48-.01-.79.01-1.27-.05-.16-.02-.29 0-.44-.01-.17-.01-.18-.06-.34-.06-.31-.01-.56-.09-.87-.14-.49-.09-1.01-.27-1.36-.59-.04-.04-.06-.05-.09-.09l-.08-.13c-.31-.68.52-1.34 1.05-1.66.54-.32 1.09-.63 1.69-.85.31-.11.6-.26.93-.36.12-.04.22-.06.34-.1l2.78-.68c1.2-.21 2.58-.35 3.77-.1.28.06.38.05.6.18.04.02.08.04.12.07l.1.05c.12.05.19.13.32.16v.17c-.2.05-.83.52-1.3.75l-1.83.93c-.08.05-.14.07-.17.15.11 0 .23.01.33-.01.15-.03.08-.06.31-.06-.01.16-.03.1-.13.19l-.08.07c-.08.06.04.04-.14.05-.01.15-.07.12-.18.21-.08.07-.15.12-.22.18-.28.27-.57.47-.86.74-.13.12-.36.26-.41.42.41 0 .66-.15 1.02-.31l2.34-1.01c.21-.1.24-.16.54-.16-.01.14-.04.11-.13.2l-.42.41-.02.02-.15.17c-.07.07-.04 0-.12.1.44.09 1.24-.32 1.7-.49l2.17-.86c-.49 0-.58.17-.87.17.03.07.05.06.11.1-.54 0-.22 0-.83.21l-.36.12c-.01 0-.02.01-.02.01-.01 0-.02.01-.03.01-.01 0-.02.01-.03.01-.15.05.13-.03-.06.02-.08.02-.13.03-.23.03.01-.12.25-.28.44-.47.07-.07.04-.03.1-.08.05-.05.15-.16.15-.24 0-.15-.03-.07-.07-.09-.35-.17-.78.01-1.13.1-.15.04-.17.06-.3.11-.27.1-.6.32-.89.33v-.1c.17-.04 1.33-.86 1.5-.98.05-.03.06-.04.11-.07.69-.46.92-.44 1.53-.78l.5-.27c.39-.27.11-.33-.18-.4-.29-.06-.67.08-.96.08l-.15-.21c-.11-.12-.31-.23-.47-.29l-.62-.16c-1-.16-1.04-.13-2.09-.13-.33 0-.52.06-.8.07-.27.01-.36 0-.62.05l-.96.13c-.27.05-.49.08-.76.14l-3.04.86c-.04.01-.14.06-.16.06l-.78.32c-.22.07-.36.18-.57.28-.39.17-.74.41-1.08.64l-.26.21c-.36.34-.52.32-.81.89-.06.11-.1.18-.1.32z"/><path class="fil1" d="M18.69 5.24H19c.02-.19-.05-.04.11-.14.46-.3.33-.26.99-.62.69-.37 1.61-.48 2.39-.28.26.06 2.05.54 2.13.7.16.29-.85-.16-.97-.19l-.53-.17c-.44-.13-.91-.26-1.38-.26-.74 0-1.04.14-1.53.37-.23.11-.37.21-.58.33-.37.21-.31.3-.62.3v.17c.04-.04.04-.05.08-.1.14.08.19.09.38.13.31.07.08-.23.56-.23.07.09.12.08.1.2-.01.08-.47.56-.57.66-.28.29-.25.29-.59.28l-.04-.14c-.18.01-.25.05-.27.21.64 0 .56.05.85.06.13 0 .15-.05.31-.1.33-.11.74-.13 1.1-.17.32-.04.48-.11.74.01-.01.28-.18.25-.48.29-.13.02-.25.01-.37.04-.17.04-.11.05-.33.05.03.02.02.02.07.04.18.09.44.1.83.28.46.21.73.34 1.16.6.13.08.24.14.36.22.76.47 1.05.96 1.79.58l.51-.37c.33-.3.36-.2.4-.46l.14-.7c.02-.11.02-.17.03-.25.02-.11.04-.13.05-.23-.23-.05-.76.03-1.16.04h-.08c-.37-.01-.12.09-.44.09h-.03c-.23-.01-.19-.05-.43-.03-.58.05-.41.01-.72-.06 0-.53.82-.24 1.14-.41l.16-.16c.18-.26.7-.91.7-1.16-.21-.04-.65-.33-1.09-.46l-.59-.19c-.58-.12-1.09-.16-1.7-.15-.58.01-1.77.22-2.27.59l-.29.22c-.07.05-.08.06-.14.11-.14.14-.11.2-.26.25v.1c.22-.02.17-.11.3.07-.12 0-.14-.02-.24-.04l-.03.08zM4.65 16.44c-.07.29-.16.57-.04.97.03.11.08.18.11.29h.32c.05-.29-.24-.4-.07-1.02.08-.29.33-.49.6-.63.13-.06.36-.13.53-.14.46-.02 1.33.04 1.79.14-.02.2-.11.16-.45.1-.18-.03-.36-.01-.56-.04-.49-.06-1.19-.09-1.5.31-.09.12-.15.22-.19.38-.07.35.03.64.2.87l-.07.04c.92-.07.8 0 1.52 0l2.35.03c.53 0 .4-.03.64.14.23.16.41.03.66.13.16.06.05.05.29.09.13.02.18.02.32-.01.06-.24.08-.32.36-.34h.03c.2-.01.19.02.37.03.62.03 1.25-.03 2.05.03-.05-.17-.55-.33-.73-.4l-1.67-.62-.27-.1-1.7-.56c-.36-.13-.8-.22-1.22-.3-1.01-.2-2.68-.35-3.45.42l-.16.17c0-.01-.01.01-.02.02z"/><path class="fil2" d="M26.28 4.65c.01.25-.1.09-.08.29-.06.17 0 .15-.09.26v.08c-.01 0-.24-.16-.46.1.18.09.19.07.39 0l.01-.05c.08.12.07.22.02.41-.04.19-.17.18-.36.2-.39.04-.73.08-1.14.08l.07-.14c.05-.08.05-.07.11-.14.09-.11.14-.21.23-.31l.44-.6c.05-.14.04-.14.17-.2.04-.04.06-.06.1-.11.03-.04.04-.05.07-.1.06-.1.14-.16.22-.26.05-.06.04-.06.09-.12.09-.13-.04-.03.11-.11l.1-.18c.06-.12.06-.07.1-.15 0 .38-.12.69-.11 1.05zm2.97-1.42c-.13.27-.16.35-.36.45l-.1.05c.03.16.01.09.11.19-.07.1-.06.16-.13.28-.22.4-.13.25-.44.66-.12.07-.08.14-.3.11l-.02-.08c.04-.12.17-.14.26-.23.12-.11.15-.13.15-.35-.34-.07-.6.1-.76.35l-.05.07c0-.01-.01.01-.02.02-.05.04-.05.03-.12.07-.12.07-.06.03-.11-.02.01-.07.63-.63.42-.83-.04-.04-.07-.05-.17-.04-.15.01-.05 0-.13.04l-.42.55-.01.19-.05.16c0 .01-.01.02-.01.03 0 .01-.01.02-.01.03-.03.09-.02.08-.07.16-.06.05.08.04-.08.04-.11-.07-.05-.06-.2-.03-.07.09-.07.09-.01.19.01 0 .02-.01.03 0 0 0 .14.01.16-.11.07.23-.13.38-.04.59.3-.04.25-.28.66-.53l.08-.07c.04-.04.02-.02.05-.06.05-.05.02-.08.12-.1.14-.03.15.1-.1.15.05.16.02.07.34.18.26.09.07.15.32.17l.02-.22-.02-.08h-.3c.05-.1.04-.05.16-.09.19-.07.01.02.16-.12.08-.06.13-.13.28-.06-.01.09-.02.11-.07.16-.03.05-.01.03-.06.09-.01.24-.03.09-.09.24-.03.08-.02.2-.07.26-.32.1-.95.09-1.32.13-.54.05-.64.14-.55-.15.04-.15.02-.21.11-.35.13-.2-.01-.47.1-.68.03-.18.13-.31.1-.51.08-.23.08-.42.18-.65.1-.23.11-.38.17-.61.04-.19.21-.54-.1-.58-.14-.02-.26.04-.31.12-.09.14-.02.14.03.26-.09-.13.02-.02-.11-.07-.08.14-.07.09-.16.2-.05.07-.08.14-.13.22-.03.13-.01.08-.11.15-.06-.12-.01-.16-.08-.28-.14.01-.19.03-.19.17.01.23.19.18.19.18l-.06.16c0 .01-.01.03-.01.02 0-.01-.01.02-.02.02l-.1.18c0 .01-.01.02-.01.02 0 .01-.01.02-.01.02-.17.3-.46.58-.52.92-.04.01.01 0-.06.04-.06.04 0 .01-.06.04-.06.09-.11.13-.18.25-.06.09-.03.05-.09.12l-.47.71c-.19.29-.12.29-.57.36-.21.03-.55-.03-.75.1l-.06.05c.04.08.04.02.08.14.28 0 .49-.07.7-.07.28 0 .13.08.3.07.14-.01.02-.07.66-.08.12 0 .15-.05.33-.06.13-.01.29 0 .42 0h.36v.02c0 .28-.05.12-.08.62-.02.31-.14.43-.07.71.22-.04.1.01.17-.15l.12-.62c.04-.16.13-.45.14-.63l2.54-.14c0 .32.09.17.18.42.05.13.11.38.28.37.23-.01.04-.29-.01-.37-.09-.14-.07-.19-.17-.3-.05-.05-.03 0-.09-.1l.03-.04c.1-.01.16-.01.22-.03.11-.04.12-.06.15-.2.04-.01.01.09.05-.08-.09-.04-.24-.09-.33-.16.02-.11.01-.07.08-.13l.03-.09c0-.01.01-.02.01-.02h-.08c-.03.05-.04.07-.08.1-.01.01-.02 0-.03.01-.02.05-.02-.02-.12.07-.13.12.04.1-.26.11-.07-.11-.05-.16.04-.28-.02-.14 0-.2.03-.28.07-.09.05-.05.07-.07.01-.01.01-.02.02-.02l.11-.19c.09-.19.47-.97.62-1.04.13-.11.25-.08.46-.08-.05.04.02 0-.07.04-.14.07-.14.04-.23.17.58 0 .56-.18.61-.23.12-.1 1.56-.36 1.83-.39.24-.03.28-.02.41.07.22.14.35.15.54.33.35.32.36.34.62.68.07.1.12.14.19.24.07.09.11.18.18.25.11.13.12.15.29.11 0-.17-.04-.19-.12-.31-.06-.09-.11-.16-.18-.25-.09-.12-.08-.13-.19-.24-.14-.14-.14-.22-.41-.46l-.27-.24c-.21-.17-.39-.23-.69-.23.26-.16.43-.03.62-.29-.02-.11 0-.07-.08-.12-.19 0-.36-.01-.52.02l-2 .46c-.22.05-.6.16-.78.16l-.05-.36h-.2c-.07-.12.01-.04-.13-.26-.25-.38-.54-.78-.98-1.01-.66-.36-1.67-.05-2.3.21-.08.03-.2.09-.28.13-.31.13-.39.12-.49.28.11.07.11.08.29.02.13-.04.43-.21.81-.34.21-.07.36-.15.57-.2.71-.16 1.17-.14 1.66.39.26.28.3.36.48.63.06.1.08.12.21.15-.01.15.03.07-.09.14z"/><path class="fil2" d="M16.29 5.88c-.02.12-.16.27-.23.38-.05.07-.22.31-.27.26-.05-.05.15-.29.21-.36.06-.08.21-.24.3-.28zM12.3 4.19c-.07.01-.43.13-.5.16-.15.05-.4.14-.59.14-.04.05-.01.02-.08.07l-.46.24c-.1.05-.07.05-.16.1-.22.27-.27-.31-1.05.64-.23.27.1.3.22.13.08-.12.02-.13.16-.21.1-.11.26-.31.39-.33-.09.17-.44.37-.34.8.11-.03.09 0 .17-.12.15-.2.06-.3.64-.62.16-.09.16-.1.34-.17.29-.23.69.17.8-.18l-.34-.07c.14-.01.61-.19.72-.24-.04-.09.02-.01-.15-.1.23 0 .13.02.25.05.1.03.14.02.25.02.18-.06.35-.08.55-.09l.37-.08c.15-.07.11-.04.27 0 .23.05.59 0 .66.23-.21 0-.2 0-.33.08-.03.02-.92.53-.56.51.15-.01.34-.16.47-.25.43-.28.44-.19.46-.35.36.01.54.4.49.65l-.03.08-.01.02c-.06.12-.12.24-.2.33-.15.18-.45.42-.64.55-.01 0-.05.03-.07.04-.09.05-.08.02-.18.09-.1.05-.05.03-.14.08l-.45.15c-.09.03-.05.04-.14.08.38.11.1-.05.47-.01.07-.11.54-.3.72-.41.09-.05.07-.05.15-.1.08-.06.19-.16.25-.19 0 .35-.32.78-.19 1.07.11.1.4-.05.53-.2.06-.07.08-.08.11-.18h.15c.03.1 0 .08.13.09.16.02-.04-.05.19.01.05.01 0 .06.18.03.17-.03.42-.36.51-.48.06-.08.04-.09.16-.13-.02.46-.16.1-.06.65.01.07 0 .12.02.21.27-.07.04-.12.25-.22.05-.08.08-.1.14-.14.08-.06.11-.1.2-.13.14.17.08.35.51-.05.12-.11.03-.11.17-.18l.03.06c.02.19-.07.08-.1.32.23-.03-.04.04.31-.22.1-.07.16-.18.25-.28.05-.05.1-.09.15-.14.11-.1.05-.08.22-.11-.04.18-.1.29-.12.43l-.01.08.17-.02c.02-.12.3-.34.42-.35l.02.09c.02.15-.04.09.11.22.04-.03.08-.04.12-.08.01-.01.04-.04.06-.05l.67-.71c.11-.11.09-.05.04-.09l-.19-.07c-.04.13-.15.24-.23.35-.11-.03-.05-.02-.12-.06-.17-.11-.11-.1-.43-.04-.06-.07-.05.07-.04-.12V5.3c.31 0 .25-.09.62-.3.21-.12.35-.23.58-.33.5-.23.79-.37 1.53-.37.47 0 .95.13 1.38.26l.53.17c.12.04 1.13.48.97.19-.08-.15-1.87-.63-2.13-.7-.78-.2-1.7-.08-2.39.28-.67.35-.53.31-.99.62-.16.1-.09-.04-.11.14h-.31c-.19.07-.1.01-.24.15-.18.03-.24.01-.35.17-.21.29-.2.42-.73.73.04-.06.05-.1.09-.19.04-.1.04-.1.07-.22.03-.1.22-.33.05-.4-.51 0-.18.14-.49.53-.1.12-.42.45-.45.56 0-.21.07-.32.13-.48.06-.17.12-.31.19-.48.07-.16.13-.32.21-.46.15-.28.09-.31.17-.44.03-.08.04-.11.08-.18.04-.09.04-.04.07-.14l-.02-.17h-.18c-.13.12-.06.03-.15.2-.27.39-.3.5-.3.5 0-.01-.01.02-.01.03-.03.15-.24.45-.28.57-.18 0-.3.03-.4.12-.06.05-.18.19-.22.25l-.44.56c0-.13.05-.2.1-.29 0-.16.05-.28-.08-.32-.13-.04-.18.05-.27.1-.03.14-.17.35-.24.47-.05.1-.19.33-.3.37 0-.11-.01-.07.03-.16l.07-.15c.05-.1.09-.18.15-.28.11-.2.15-.16.17-.27.04-.19-.06-.22-.22-.22.02-.12 0-.02.06-.12.38-.61.11-.78.06-1.09-.11-.05-.04.09-.09-.12.33.06.3-.02.61 0l.48.11c.46.11.54.3.85.3-.01-.25-.14-.21-.35-.3-.5-.22-.83-.31-1.36-.26-.2.02-.18-.04-.22.11-.32-.02-.2-.16-.83-.25l-.12-.03h-.08c-.22 0-.25-.03-.42-.05-.22-.02-.97.07-1.17.17z"/><path class="fil1" d="M37.45 9.36c-.11-.15-.94-.45-1.13-.52-.2-.08-.25-.1-.54-.13-.12-.02-.31-.02-.37-.02-.25-.01-.6-.05-.83.05 0 .15.04.16.04.34 0 .12-.01.26 0 .38l.04.69c.19.08.32.07.54.13.16.04.1.03.29.05.45.04.1.49.57 1.24.2.31.15.22.43.48.15.14.17.15.38.24.29.12.76.16 1.06-.02.48-.28.19-1.04.11-1.46-.01-.08-.01-.07-.03-.15l-.4-1.02c0-.01-.01-.02-.01-.02 0-.01-.01-.02-.01-.02l-.13-.23zM10.47 14.91h-.08c-.03.13-.2.35-.28.48-.19.29-.27.27-.29.43.32.07 2.16.71 2.49.85.3.13.78.27 1.19.47.12.06.22.12.37.18 1.2.54.14.51 1.72.51.57 0 .59-.08.84.24.2 0 .22 0 .38.03.12-.17.08-.25.38-.28-.08-.15-.1-.3-.14-.5-.04-.24-.01-.32-.2-.4l-.46-.17c-.15-.06-.28-.12-.44-.19-.17-.07-.27-.14-.45-.22-.16-.07-.26-.14-.4-.23-.13-.08-.25-.16-.38-.24-.55-.32-.12.11-1.56.11-.66 0-1.05-.09-1.58-.33-.38-.17-.53-.27-.84-.52-.15-.13-.18-.08-.28-.24zM13.16 34.14c.07 0 .71.2 1.18-.07l1.12-.75c.01 0 .01-.01.02-.02l2.57-1.74c.49-.28.59-.37 1.17-.66.43-.22 1.68-.82 2.14-.82v.1c-.33.08-.73.39-1.01.56-.13.08-.04.02-.15.11-.1.1-.18.15.02.19.17.03.4 0 .57 0 .31 0 .55-.07.84-.14.56-.13 1.07-.33 1.6-.52l.28-.12c.01 0 .02-.01.02-.01l1.07-.41c.12-.05.21-.06.25-.15-.34-.15-1.25.37-1.65.5-.1.03-.11.03-.19.07-.24.09-.35.16-.61.24-.21.06-.41.16-.62.19-.1.02-.92.3-.64.04.08-.07.09-.06.2-.1.46-.13 1.1-.46 1.56-.66.23-.1.56-.22.63-.46-.47-.23-1.2-.1-1.7.04-.4.11-.74.25-1.1.42-.3.14-.27.22-.46.13.08-.14.23-.18.36-.29.3-.25.66-.43.98-.66.09-.07.14-.09.17-.19-.35-.18-.79.23-1.06.38l-2.08 1.29c-.39.22-1 .65-1.34.82-.24.12-.53.32-.76.49-.09.07-.17.07-.29.15l-.15.1c-.01 0-.02.01-.02.01l-.34.21c-.46.32-1.23.66-1.63 1-.15.13-.56.34-.75.46-.04.02-.03.02-.07.04-.1.06-.12.08-.13.19z"/><path class="fil1" d="M10.65 14.47c.14.03.02-.01.14.06l.41.32c.3.22.48.39.89.57.23.1.7.23.97.17.16-.04.41-.04.77-.13.12-.03.12-.04.24-.05-.01-.15-.05-.13-.21-.33-.57-.68-.66-1.04-.77-1.89-.03-.21.02-.31.03-.48.01-.18.04-.26.04-.45-.09-.05-.17-.09-.26-.14-.12-.07-.63-.41-.69-.49-.15.03-.07-.01-.28.28l-.46.61c-.85 1.18-.56.13-.77 1.45-.03.18-.08.28-.05.5zM9.37 7.76c-.21 0-.06-.18-.01-.29l.41-.63.48-.36c.11-.05.93-.2 1.03-.05.04.07.02.03.02.11-.42.09-.73-.25-1.38.47-.32.36-.39.74-.56.74zm4.17-1.15-.15.11c-.08.03-.08.03-.18.04 0 .24-.1.57-.19.73-.16-.1-.12-.1-.19-.28-.04-.11-.1-.21-.15-.31l-.79.02c-.08 0-.18-.02-.28-.02-.04.17-.07.11-.13.23l-.12.24c-.27.41-.07.34-.32.4.05-.08.07-.11.12-.2l.05-.09c.02-.07.02-.04.02-.13-.15.18-.11.3-.3.32.06-.11.08-.24.15-.38.27-.49.25-.69.29-.78.04-.1.13-.1.18-.33-.12.1-.07.16-.2.21l.09-.24c.04-.12.06-.12-.12-.14-.23-.02-.99.06-1.21.12-.39.1-.14.09-.35.58 0 .01-.01.02-.01.02l-.04.1c-.03.06 0 .01-.05.09-.49.75-.81.46-.81 1.06.42.26.51.32.98.49.67.26 1.58.09 2.07-.1.31-.12 2.21-1.15 2.64-1.19l-.19-.14c0-.71 0-.34.11-.66.04-.14-.02-.08.08-.17-.32.01-.59.41-1 .41zM28.16 30.92c.03-.08 0-.03.07-.08l.62-.37 1.87-.68.2-.06c.17-.05.32-.01.43.01-.01 0-.02.01-.03.01l-1.02.49c-.21.12-1.02.45-1.28.53-.07.02-.11.04-.19.07-.38.12-.34.15-.67.08zm2.96.24c-.28 0 .06-.23.12-.27.49-.35.94-.7 1.47-1.01l1.15-.68c.27-.14.49-.33.78-.47.41-.2.78-.47 1.18-.69.1-.05.13-.06.22-.11.3-.17.83-.39.9-.6-.07-.03-.35-.1-.46-.1-.81 0-1.07.26-1.66.63l-2.3 1.3a.3.3 0 0 0-.08.04l-.32.16c-.11.04-.74-.11-1.69.22l-1.91.89c-.2.1-.26.15-.44.26-.15.1-.32.16-.33.35h.49c.34-.01.6-.14.9-.22.52-.14 1.04-.36 1.53-.57.09-.04.04-.02.07-.04.23-.12.55-.21.79-.32.07-.03.15-.08.2-.03.1.09-.36.34-.41.39l-.02.02-.32.26-.02.02-.48.42c-.06.06-.36.37-.35.46 0 .05.03.1.13.1.4 0 .19.01.39-.06.08-.03.09-.03.17-.05l.82-.29c.06-.02.1-.03.14-.04l.32-.12c.1-.04.06-.02.16-.06l.45-.18c.12-.05.19-.06.3-.11l1.85-.74c.3-.14.52-.15.56-.28-.19-.04-.38.02-.58.09l-.53.21c-.22.1-.69.32-.91.38-.21.06-.4.17-.61.24l-1.26.48c-.12.05-.3.15-.41.15z"/><path class="fil3" d="M15.86 12.57c.11.15.52.28.76.38.89.33.73.25.65.67-.02.11 0 .22-.01.34-.02.22-.12.32-.07.52.2 0 .4-.18.7-.37.92-.58.59-.44 1.89.05.18.07.2.11.45.11-.03-.35-.61-.79-.61-1.14 0-.26 1.07-.57 1.1-.9-.35 0-1.67.16-1.86.07-.24-.11-.58-.97-.87-1.04-.29.49-.09 1.1-.5 1.17-.14.02-.22.03-.38.04-.38 0-.9.08-1.25.1zM6.6 14.29c0-.37-.56-.94-.25-1.16l.84-.45c.14-.08.14-.07.21-.19-.16 0-.18-.03-.38-.04H5.77a2.91 2.91 0 0 1-.31-.55c-.12-.27-.13-.44-.34-.49-.04.14-.05.05-.14.25-.05.11-.07.14-.1.25-.06.17-.11.43-.25.5s-.55.03-.76.03l-.76.03v.1c.11.03.13.06.22.11.88.51 1.05.26.7 1.14-.31.77-.03.46.51.19l.23-.1c.38-.19.4-.32.86-.04.07.04.97.59.97.39z"/><path class="fil4" d="M20.03 30.96c0-.17.46-.39.57-.52-.16.01-.06.01-.15.03-.05.01-.05.01-.12.03l-.7.29c-.15.08-.29.16-.43.23-.15.08-.3.12-.44.22-.15.1-.25.16-.42.24-.3.16-.25.18-.39.26-.49.29-.39.26-.76.52l-1.96 1.29c-.14.1-.25.17-.38.27-.08.06-.12.08-.2.13-.08.05-.11.09-.19.14-.19.11-.36.09-.42.21.1.05-.03.03.11.03.42 0 .56.03.9-.05.48-.11.26 0 .77-.33l.95-.62c.08-.04.08-.06.15-.11.21-.15.43-.26.64-.42.22-.17.46-.25.71-.39.4-.24.23-.17.58-.47l.65-.41c.2-.13.43-.31.73-.34l-.12-.09c-.06-.06-.07-.03-.07-.15z"/><path class="fil2" d="M6.1 8.76c-.56 0-2.2.39-2.39.62.19.12.3.01.73-.13 1.33-.45 2.1-.41 3.34-.01l.63.26c.78.35 2.4 1.2 3.24 1.2.65 0 1.15-.13 1.66-.49l2.2-1.28c.15-.06.22-.09.39-.13.14-.04.28-.07.44-.12 1.31-.39 2.66-.38 3.96.02.11.03.22.07.34.11.33.11 1.08.32 1.35.46 1.16.59 1.85.94 3.28.52.16-.05.64-.18.75-.26.11-.08.14-.14-.05-.14-.23 0-.93.41-1.94.41-.57 0-1.04-.25-1.43-.43-.78-.35-.31-.2-1.29-.56-.53-.19-1.08-.3-1.63-.45-.12-.03-.06-.03-.18-.05l-.42-.07c-.85-.1-1.93 0-2.69.24-.87.27-.52.05-1.51.53-.46.23-.83.46-1.26.72-.72.44-.93.85-2.17.79-.17-.01-.25-.04-.39-.09-.44-.16-.57-.15-1.1-.42-.24-.12-.48-.21-.71-.32-1-.46-1.97-.93-3.15-.93z"/><path class="fil1" d="M33.92 31.1c.32.19.66.08 1.02 0 .05-.01.06-.01.12-.03l.75-.25c.04-.02.08-.03.14-.05.39-.13.16.16.4.16.32 0 .29.02.54-.06.45-.15 1.32-.56 1.6-.65.01 0 .02-.01.03-.01l.12-.03 1.32-.49c.16-.05.15-.01.19-.14-.75.02-.35.05-.79.14-.38.08-.45.16-.77.27-.06.02-.08.03-.11.04-.01 0-.02.01-.03.01l-.23.1c-.13.05-.11.07-.26 0 .03-.11.08-.08.15-.21-.3-.18-.89-.08-1.18.07-.47.25-.87.55-1.38.74l-.2.09c-.01 0-.02.01-.03.01-.22.09-1.16.43-.48-.09.26-.2.87-.47 1.2-.6.7-.29 1.17-.43 1.91-.61.67-.16 1.23-.11 1.45-.4-.09-.1-.14-.13-.32-.16-.26-.04-.63.05-.86.08l-.43.09c-.12.03.02 0-.09.03l-1.68.65c-.12.05-.23.08-.35.13-.17.08-.17.11-.29.18-.1.06-.24.12-.34.17l-.6.36c-.12.07-.19.12-.28.19-.11.09-.19.15-.23.28zM23.56 31.16c.49.21 1.13-.07 1.64-.23.37-.12.23-.15.41-.15.25 0-.04.21.53.21.18 0 1.64-.67 2.01-.8.06-.02.12-.04.19-.07.22-.1.84-.37 1.03-.41v-.07c-.41-.03-.44 0-.91.17l-.85.34c-.11.04-.2.1-.26.05-.09-.08 0-.09 0-.1.07-.13.05.09.08-.14-.28-.13-.73-.08-1.03.03l-.96.57c-.13.07-.17.1-.31.16-.07.03-.11.05-.17.08l-.17.09c-.01 0-.02.01-.03.01l-.16.06c-.32.13-.37.17-.51-.01.14-.03.32-.2.44-.29.1-.07.14-.08.24-.13.21-.11.37-.23.63-.32l.41-.18c.06-.02.07-.03.13-.05.01 0 .02-.01.03-.01.01 0 .02-.01.03-.01l.08-.03c.43-.17 1.08-.37 1.54-.43.28-.03.39-.03.66-.12.15-.05.17-.09.29-.12v-.14c-.19-.04-.09-.07-.34-.09-.58-.03-.21.04-.57.05-.29.01-.76.14-.99.24l-.43.16c-.41.11-.01.05-.44.19-.35.11-1.02.51-1.37.72-.09.06-.16.1-.25.15l-.56.46c-.05.07-.05-.03-.05.16zM27.13 20.25c.15.01.3.02.45 0 .38-.04.27-.06.46-.71.04-.15.05 0 .05-.2l-.24-.1c0-.22.2-.87.27-1l-.58-.58c-.36-.33-.36-.3-1.35-.11l-.47.09c-.06.01-.59.05-.75.15-.1.06-.08.03-.11.14.1.04.14.01.42.03.4.03 1.15-.05 1.56.04.04.08.02.05.05.13.09.25.13.38.14.66 0 .1-.01.21 0 .31.02.14.06.41.07.56l.04.6z"/><path class="fil2" d="M10.13 27.58c-.12.29-.57 1.78-.57 2 .14-.02.26-.12.38-.17.73-.35 1.48-.7 2.15-1.16.18-.13.27-.13.32-.26-.27-.34-1.33-.48-1.9-.45l-.38.04zm33.3-4.75c-.07-.12-.03-.09-.19-.09-.14-.02-.68.02-.89.02-.31 0-.66.02-.91-.03l.57-2.11h2.15l.59-2.11c.03-.17-.04-.15-.04-.15 0 .01-.02-.01-.03-.01-.15-.03-.43-.01-.59-.01l-4.74-.07-.61 2.17c-.29.91-.64 2.34-.91 3.29-.1.36-.21.73-.31 1.1l-.6 2.22c.32 0 .51-.02.8 0 .42.02.41.06.65.21v.21l-1.51.87c-.44.25-.32.08-.49.66-.08.27-.22.47.23.28.1-.04.14-.06.25-.09.66-.2 1.15-.37 1.99-.43.19-.01.36.02.56.02.33 0 .7-.1 1.15.03.19.05.47.19.24.4-.08.07-.07.04-.13.13.21.09.66-.12 1.02.17-.02.14-.04.09-.08.21.39.12.34-.1.41-.36l.51-1.94-2.18.02c-.15-.01-.18.01-.17-.12.01-.09.06-.19.08-.28l.59-2.09h2.04l.56-2.11zm-12.2-2.28h1.82c0 .17-.01.13-.05.27l-1.44 5.15c-.04.15-.09.36-.14.53l-.76 2.73c.22.06.52-.06.8-.07.45-.01.46.03.78-.15l2.05-1.17c.31-.19.2-.2.32-.57l1.86-6.68h1.82c.23-.02.21-.18.26-.35.11-.4.52-1.63.49-1.95-.16-.03-7.01-.12-7.28-.09-.11.17-.54 1.82-.63 2.13-.03.12-.07.23.1.23zM20.6 29.04c.17.13.09-.16.83-.23.23-.02.29-.01.52.02.18.02.99-.19 1.27.16-.03.07-.03.06-.07.11-.09.12-.05-.01-.1.14l.43.03c.09-.16.28-.89.34-1.11.05-.2.1-.34.15-.55.19-.77.54-1.78.73-2.55.03-.12.04-.18.14-.25 0 .44.03.81.04 1.21l.08 1.17c.01.36 0 .86.05 1.2.06.35-.01.88.09 1.17.32.06 1.21-.34 1.53-.43.67-.19.98-.25 1.82-.24.09-.16.15-.44.21-.64l.56-2.01c.38-1.31.75-2.74 1.13-4.01l1.04-3.68c.14-.47.25-.37-1.35-.37-1.75 0-1.31-.46-1.8 1.23l-.28.96c-.26.78-.53 2.04-.78 2.75l-.06.15c-.09-.35-.08-.87-.12-1.28-.02-.18-.07-.43-.08-.62l-.08-1.31c-.02-.16-.07-.46-.07-.63 0-.21-.06-1.11-.11-1.28l-2.81-.04c-.22.02-.17.11-.23.31-.04.14-.08.25-.12.41-.23.89-.58 1.97-.82 2.88l-1.18 4.11c-.01.04-.93 3.2-.91 3.24zm-6.15-2.03c0 .06.16.1.31.23.21.19.07.08.6.08.26 0 .99.08.99.31 0 .33-.43.47-.9.7l-1.03.48c-.48.29-.97.56-.27.55.62-.01.61.21.87.24.9.09.3-.08 1.29-.2.17-.02.35-.03.53-.01.36.03.88-.13 1.42.09.26.11.2.11.55.07.46-.06.81.09 1.21-.08.08-.14.14-.49.2-.69.08-.25.14-.33-.35-.07-.45.24-.56.26-1.11.31-.22.02-.27-.02-.45-.03-.29-.01-.55.05-.89.01-1.05-.12-.24-.69-.04-.79.59-.28 1.55-.19 2.22-.19.5 0 .56.16.76.21.07-.13.11-.3.15-.46.07-.24-.11-.17-.42-.17h-.68c-.24 0-.42.03-.64.03-1.08 0-.92.26-.48-1.27.07-.25.12-.44.19-.69.05-.17.15-.55.21-.67.58 0 1.78.06 2.24-.03l.3-1.08c.06-.18.11-.36.16-.55.07-.27.28-.66.03-.66h-2.05l.57-2.11c.04-.08.04-.14.34-.14l.8.04c1.51 0 1.25.13 1.43-.53.05-.16.52-1.7.5-1.79-.01-.08.01-.03-.04-.09L18.26 18l-.8-.03c-.57 0-.35-.17-.7.92-.04.12-.05.19-.08.31l-2.26 7.79zM1.27 29.15l.05.01c.04-.01.01.01.07-.01 0 0 .1-.06.11-.07.25-.18.98-.56 1.26-.68.65-.28 1.23-.55 1.95-.75.46-.13.41-.06.55-.6.18-.72.46-1.53.67-2.29.04-.13.67-2.11.67-2.3l-.05.85c-.03.25-.06.59-.12.86l-.37 2.98c.03.15.15.07.34.03.59-.14 1.12-.24 1.72-.33l1.38-.16c.19-.03.19-.12.25-.26l1.79-3.94c.04-.07.02-.04.06-.08 0 .14-.87 3.01-.94 3.25-.05.18-.1.36-.15.55l-.09.27c-.03.11-.01.14.16.14h2.05c.14.01.37.05.5.06.1.01.15.01.24.03.03 0 .08.02.12.02h.07c.1-.01.18-.43.21-.52.06-.18.11-.35.16-.55l.32-1.09c.11-.37.19-.74.31-1.1.16-.48.25-.96.4-1.37l.4-1.37c.03-.11.05-.16.08-.27l.4-1.37c.08-.32.28-.85.29-1.13l-2.59-.03c-.45 0-2-.05-2.23-.01l-1.78 4.03c-.07.18-.57 1.24-.58 1.37-.13-.08-.06-.08-.04-.28.01-.16.02-.2.04-.34.12-.75.2-1.68.32-2.44.1-.6.18-1.72.25-2.12.03-.16.1-.23-.11-.25l-4.64-.06c-.26.03-.3.46-.41.84l-.91 3.07c-.36 1.09-.77 2.56-1.11 3.69-.08.28-1.1 3.6-1.07 3.7zm1.49 1.11c.59 0 .99.01 1.56-.03.01-.14.08-.26.12-.41.04-.15.09-.28.13-.43.12-.42.04-.36-.48-.09-.22.12-1.28.7-1.33.97zm5.28-.07.69-1.48c.52-1.16.7-1.07-.37-.86-.3.06-.56.13-.88.2l-1.24.36c-.17.06-.3.05-.35.2-.04.11-.04.3-.06.43l-.11.87c-.02.22-.13.3.15.32.35.02.78 0 1.07-.03.3-.03.78-.01 1.1-.01z"/><path d="M10.13 27.58c-.12.29-.57 1.78-.57 2 .14-.02.26-.12.38-.17.73-.35 1.48-.7 2.15-1.16.18-.13.27-.13.32-.26-.27-.34-1.33-.48-1.9-.45l-.38.04zm-7.24-3.99h3.4c-.16.54-.34 1.09-.36 1.16-.21.76-.49 1.57-.67 2.29-.14.54-.09.48-.55.6-.72.2-1.3.47-1.95.75-.28.12-1.01.5-1.26.68-.01.01-.11.07-.11.07-.06.02-.03.01-.07.01l-.05-.01c-.03-.1.99-3.42 1.07-3.7.17-.57.36-1.22.55-1.86zm3.63 0h4.53l-1.29 2.85c-.06.14-.06.22-.25.26l-1.38.16c-.6.09-1.14.19-1.72.33-.19.04-.31.12-.34-.03l.37-2.98c.03-.18.06-.39.08-.58zm4.77 0h3.25c-.1.32-.18.66-.28.99l-.32 1.09c-.05.2-.1.36-.16.55-.03.09-.11.51-.21.52h-.07c-.03 0-.09-.02-.12-.02-.09-.02-.14-.01-.24-.03-.14-.01-.36-.05-.5-.06h-2.05c-.18 0-.19-.03-.16-.14l.09-.27c.05-.19.1-.37.15-.55.05-.15.37-1.21.62-2.08zm4.16 0h5.89c-.03.1-.06.21-.1.31l-.3 1.08c-.46.1-1.66.03-2.24.03-.06.12-.17.5-.21.67-.07.25-.12.44-.19.69-.44 1.53-.6 1.27.48 1.27.23 0 .4-.04.64-.03h.68c.31 0 .49-.07.42.17-.05.15-.08.33-.15.46-.19-.05-.26-.21-.76-.21-.67 0-1.62-.08-2.22.19-.21.1-1.02.66.04.79.34.04.59-.03.89-.01.18.01.23.05.45.03.54-.05.66-.07 1.11-.31.49-.26.43-.17.35.07-.06.19-.12.54-.2.69-.4.17-.75.02-1.21.08-.35.04-.29.03-.55-.07-.54-.22-1.06-.05-1.42-.09-.19-.02-.36-.01-.53.01-.99.12-.39.29-1.29.2-.27-.03-.25-.25-.87-.24-.7.01-.21-.26.27-.55l1.03-.48c.47-.23.9-.37.9-.7 0-.23-.73-.31-.99-.31-.53 0-.39.12-.6-.08-.15-.14-.31-.18-.31-.23l.99-3.42zm6.7 0h7.82c-.25.88-.49 1.79-.74 2.64l-.56 2.01c-.05.2-.12.48-.21.64-.85-.01-1.16.05-1.82.24-.32.09-1.21.49-1.53.43-.09-.29-.03-.82-.09-1.17-.06-.34-.04-.84-.05-1.2l-.08-1.17c0-.4-.04-.77-.04-1.21-.11.07-.11.13-.14.25-.19.77-.54 1.79-.73 2.55-.05.21-.1.36-.15.55-.06.22-.25.95-.34 1.11l-.43-.03c.05-.16.01-.02.1-.14.04-.05.04-.04.07-.11-.28-.35-1.08-.13-1.27-.16-.23-.03-.29-.04-.52-.02-.74.07-.66.37-.83.23-.03-.04.89-3.2.91-3.24l.64-2.21zm10.08 0h3.41l-1.02 3.67c-.12.37-.01.38-.32.57L32.25 29c-.32.18-.33.14-.78.15-.27.01-.58.13-.8.07l.76-2.73c.05-.16.1-.38.14-.53l.66-2.38zm5.65 0h5.35l-.36 1.35h-2.04l-.59 2.09c-.02.09-.07.18-.08.28-.01.13.01.11.17.12l2.18-.02-.51 1.94c-.07.26-.02.47-.41.36.03-.12.05-.07.08-.21-.36-.29-.82-.08-1.02-.17.06-.08.05-.06.13-.13.24-.21-.05-.35-.24-.4-.45-.12-.81-.03-1.15-.03-.2 0-.37-.03-.56-.02-.84.06-1.34.23-1.99.43-.11.03-.14.04-.25.09-.45.2-.3-.01-.23-.28.16-.58.05-.42.49-.66l1.51-.87v-.21c-.24-.15-.23-.19-.65-.21-.29-.01-.48 0-.8 0l.6-2.22c.09-.37.2-.74.31-1.1l.04-.14zM2.77 30.26c.59 0 .99.01 1.56-.03.01-.14.08-.26.12-.41.04-.15.09-.28.13-.43.12-.42.04-.36-.48-.09-.22.12-1.28.7-1.33.97zm5.28-.07.69-1.48c.52-1.16.7-1.07-.37-.86-.3.06-.56.13-.88.2l-1.24.36c-.17.06-.3.05-.35.2-.04.11-.04.3-.06.43l-.11.87c-.02.22-.13.3.15.32.35.02.78 0 1.07-.03.3-.03.78-.01 1.1-.01z" style="fill:#e1e1e1"/><path class="fil1" d="M12.52 3.82c.01-.14 0-.06.07-.14.2-.21.58-.51.84-.62.37-.15 1.08-.35 1.59-.24v.07c-.64.14-.78.07-1.41.31-.49.18-.57.45-.98.7-.06-.07 0-.04-.11-.07zm3.3-.24c0-.13.02-.29.02-.35 0-.1-.02-.53-.12-.64-.07-.08 0-.03-.13-.06a.875.875 0 0 0-.16-.02c-.15-.01-.24 0-.39-.02-.24-.04-.86.05-1.06.11l-.47.16c-.06.02-.02 0-.08.03l-.53.31c-.07.06-.14.12-.21.19l-.18.22c-.4.76.11.45.3.44.34-.01.72.02 1.04-.13.88-.4 1.6-.18 1.96-.25zM13.96 4.06l.12.03c.63.08.51.22.83.25.04-.15.02-.09.22-.11.53-.05.86.04 1.36.26.21.09.35.05.35.3-.31 0-.39-.19-.85-.3l-.48-.11c-.3-.02-.28.06-.61 0 .06.21-.02.07.09.12.13 0 .05-.1.19.21.08.17.09.34.05.53-.02.13 0 .02-.03.08l-.02.05c0 .01-.01.02-.01.02-.07.15-.09.15-.09.3.1.02.11.03.19.07-.01.1-.01.09-.05.17.09-.05.14-.14.27-.1.13.04.08.15.08.32.02-.03.02 0 .06-.1.08-.22-.1-.23-.17-.32.22-.09.01.01.34.17.04-.13.03-.05.09-.16.07-.11.03-.12.25-.25.1-.06.07-.04.19-.07.18-.04.06.07.25-.25.08-.13.07-.22.2-.3.05.04.02-.01.03.07.01-.01.01-.03.01-.03s.03-.11.3-.5l-.13.02c-.26-.37-.9-.5-1.34-.57-.23-.04-.68.01-.89.04-.41.06-.28.14-.83.16z"/><path class="fil1" d="m13.49 4.31.15.01c-.06.26-.25.12-.59.63-.18.27-.02.5.05.92.03.17.01.28.06.49l.06.19.45-.15c.09-.05.04-.03.14-.08.01-.18.08-.15.39-.34l.43-.4c.41-.61.02-.8-.1-.96.19.01.24.15.32.29l.05.12c.02.09 0 .19-.01.27.01-.01.01-.03.01-.02l.03-.08c.05-.26-.13-.65-.49-.65-.02.16-.03.07-.46.35-.13.09-.32.24-.47.25-.36.02.52-.49.56-.51.13-.08.12-.08.33-.08-.07-.23-.43-.18-.66-.23-.16-.04-.12-.07-.27 0zM15.36 30.96c.01-.14.07-.15.18-.22.3-.2.87-.6 1.17-.73l.47-.26c-.07-.13-.03-.12-.2-.17-.36-.09-.91 0-1.14.16l-.99.97c-.11.1-.13.13-.23.24-.1.11-.13.13-.14.32.22.05.26.14.77-.03.01 0 .02-.01.03-.01l.52-.18c.47-.2.87-.31 1.39-.53l.28-.09c.07-.02.08-.03.13-.05l1.09-.39c.16-.05.39-.13.54-.2-.12-.14-.35-.08-.52-.02-.01 0-.02.01-.03.01l-1.34.54c-.11.03-.14.06-.23.1l-1.23.43c-.25.07-.2.12-.52.12z"/><path class="fil4" d="M27.66 31.1c0-.26.11-.31.3-.42.23-.14 1.19-.66 1.34-.79-.29.01-.95.35-1.15.41-.22.06-.19.08-.36.16-.13.05-.25.08-.38.14l-.72.31c-.12.07-.18.13-.35.13.16.19.96.1 1.05.12.15.03.18.05.36.06.28.01.58-.02.86.01.3.04.56.02.82-.01.62-.07.3.02.3.27 0 .2.26.21.53.21l-.21-.16c-.11-.26.44-.64.61-.78.1-.08.08-.11.17-.19.08-.07.28-.17.33-.35l-2.81.97c-.67 0-.31.01-.68-.07z"/><path class="fil2" d="M8.52 7.33c.04-.01.06-.03.11-.07.1-.08.08-.04.1-.16.21 0 .15 0 .17.24-.08.06-.13.11-.27.14l-.44.02c-.29-.26-.04-.71.13-.73-.01.2-.34.61.2.55zm.34-.42c-.08.11-.04.04-.09.1-.05.07-.02.01-.04.1-.11 0-.16.03-.25-.02.09-.11.06-.15.18-.24.02-.14.05-.21.11-.29.07-.08.12-.14.27-.08.02.22-.13.3-.18.44zM8.4 6.6c-.02-.16.06-.18.21-.19-.03.11-.07.19-.21.19zm.99-.33c-.04.35-.09.66-.29.85-.1-.09-.02-.27.04-.4.19-.41-.01-.09.21-.4-.11 0-.15-.01-.19-.12.06-.04.07-.06.18-.05.08.1.06-.01.05.12zm-.45-.38c-.11.06-.31.18-.4.24-.13.09-.26.27-.4.3l-.16.14c-.03.26-.08.34-.12.53-.04.24 0 .31.11.49.14.1.36.13.56.04l.22-.08s.08-.1.19-.02c.12-.42.35.01.74-.87.16-.36-.02-.5-.07-.74-.11-.05-.17-.09-.32-.1-.09.03-.09.01-.18.02-.16.02-.03-.01-.17.05zM41.74 10.72l.03-.06c.03-.17.16-.38.2-.55.15-.64.24-.98-.22-1.39l-.15-.14c-.14-.12.13.07-.04-.03-.06-.03-.21-.07-.29-.11-.64-.29-.3-.1-.87-.28-.22-.07-.41-.09-.64-.14-.2-.05-.4-.12-.63-.12v.17c.08.03.2.05.3.07l.9.22c.43.15.59.1 1.05.39.13.08.29.25.34.38.21.61-.31 1.37-.31 1.7.31.07.16.03.34-.11z"/><path class="fil6" d="M15.36 30.96c.32 0 .27-.05.52-.12l1.23-.43c.1-.04.12-.07.23-.1l1.34-.54c.01 0 .02-.01.03-.01.17-.06.4-.12.52.02-.15.07-.38.15-.54.2l-1.09.39c-.05.02-.07.03-.13.05l-.28.09c-.52.22-.92.33-1.39.53l-.52.18c-.01 0-.02.01-.03.01-.51.17-.55.07-.77.03 0-.19.04-.21.14-.32.1-.11.13-.14.23-.24l.99-.97c.23-.16.78-.25 1.14-.16.16.04.12.04.2.17l-.47.26c-.3.13-.87.53-1.17.73-.1.07-.16.07-.18.22zm-.95.24c0 .6 2.05-.32 2.51-.48l2.16-.8c.14-.06.19-.05.23-.21-.28-.17-.58-.03-.84.06l-.76.28c-.14.05-.19.1-.36.16-.22.08-1.35.52-1.57.54.04-.13.02-.08.13-.16l.58-.37c.12-.08.26-.16.4-.22.79-.39.07-.5.02-.5-.59 0-.95-.05-1.3.34-.05.05-.08.08-.13.12l-.7.68c-.08.09-.16.14-.23.24-.05.07-.14.22-.14.32z"/><path class="fil1" d="M10.66 12.63c.2-.1.03.02.13-.12.17-.23.58-.63.59-.95-.15 0-.22-.03-.34-.07L10 11.05c-.23-.11-.26-.17-.56-.28l-.19-.07c.04.06.05.06.1.11l.09.09c.56.48 1.03 1.03 1.21 1.73z"/><path class="fil2" d="M34.34 5.72c.24.06.55-.03.79-.08.36-.08 1.07-.14 1.42-.1.42.04.32-.04.65.13.34.17.57.45.73.79l.32.81c.03.1.06.21.19.21.27 0 .02-.48-.07-.7-.18-.44-.41-.99-.93-1.23-.82-.37-1.8-.2-2.68-.04-.32.06-.4 0-.42.2z"/><path class="fil1" d="m11.04 5 .15-.01c-.01.01-.02.01-.02.02-.01.03-.84.37-.93.68.15.07.19-.04.64-.03.28 0 .49-.01.72.03.29-.39.24-.91.66-.95.18-.02.32.03.36.19.07-.05.35-.36.38-.45-.22.02-.02.01-.17.05l-.66.09c.17-.21.21.05.39-.14-.12 0-.15.01-.25-.02-.12-.03-.02-.05-.25-.05.17.1.11.01.15.1-.11.05-.58.23-.72.24l.34.07c-.1.35-.5-.05-.8.18z"/><path class="fil2" d="M29.18 5.34c.16-.01.1.01.17-.09.09-.11.17-.34.32-.38l.08.11c0 .01.01.02.01.02.03.04.06.08.08.12-.15.2.02.04-.22.27-.14.13-.08.1-.14.22-.03.06-.01.03-.05.07-.06.07-.03.05-.06.12.12 0 .15.02.22-.03.18-.04.22-.08.35-.18.36-.27.18-.43.38-.62l.48-.51c.1-.21-.06-.27-.21-.11-.14.16-.29.41-.49.49-.06-.09-.13-.3-.08-.39.1-.16.3-.14.19-.37a.513.513 0 0 0-.51.06c-.27.22-.03.38-.22.64-.16.22-.36.36-.32.57zM20.18 2.64c0 .18.16.07.24.02.11-.07.19-.12.29-.18.54-.36 1.35-.9 1.97-.9.43 0 .88.22 1.22.44l.19.14c.54.43.63.22.48.09-.43-.36-1.19-.85-1.77-.85-.86 0-1.47.45-2.11.84-.1.06-.51.29-.51.4zM11.73 5.81c-.03.11-.05.13-.1.19-.06.11-.06.05-.09.17-.05.23-.14.23-.18.33-.04.09-.01.29-.29.78-.08.14-.09.27-.15.38.2-.02.16-.14.3-.32.09-.1.08-.06.13-.17 0-.01.01-.02.01-.03l.31-.52c.01-.03.06-.15.06-.16.05-.17.08-.16.16-.37l.04-.08c.03-.14.08-.19.17-.26.1-.27.34-.54.42-.8-.04-.11-.15-.21-.33-.14-.14.06-.17.21-.26.39l-.12.3c-.18.38.05.17-.1.29zM30.09 7.55c.08.1.05.1.22.11.68.03 1.64-.1 2.29.16.53.22.7.67.85 1.13.07.22.05.35.33.36.04-.41-.25-1.08-.61-1.38-.22-.18-.39-.28-.71-.35-.54-.12-1.8-.15-2.35-.03zM5.04 17.7l.08.01.19.01.07-.04c-.17-.22-.27-.52-.2-.87.03-.16.1-.26.19-.38.31-.4 1.01-.37 1.5-.31.21.03.38.01.56.04.34.06.43.1.45-.1-.45-.1-1.33-.16-1.79-.14-.17.01-.41.07-.53.14-.27.13-.52.33-.6.63-.17.62.13.73.07 1.02z"/><path class="fil1" d="M26.04 5.38c-.2.07-.21.09-.39 0 .21-.26.45-.11.46-.1V5.2c-.2.02-.02-.19 0-.27-.57-.12-.62.02-.82.29-.18.24-.34.45-.51.68.13.01.08.01.17.01l.82-.07c.27-.04.14.01.19-.28.02-.13.02-.05.08-.18zM17.3 28.71c.27.26.91.14 1.21-.04l.46-.24c-.01-.25-.06-.17-.38-.25-.15-.04-.22.02-.53.04-.13.01-.37.09-.46.17-.05.05-.02.02-.07.08l-.23.24zM6.66 7.31l.09.03c.17.04.36.04.66.12.1.03.11.05.23.07.15.02.1-.01.1-.09-.01-.21-.07-.58.14-.72 0 .17-.27.75.08.87-.11-.18-.15-.25-.11-.49.03-.19.09-.27.12-.53-.2.19-.15.09-.43.08-.43-.02-.53.27-.7.47-.13.16-.06.12-.18.19zM9.28 5.82c.15.01.21.06.32.1l-.05-.1c.15 0 .09.01.19-.03-.06-.12-.05-.04.01-.16.06-.12.04.02.07-.19-.14.08-.08.09-.16.21-.12.18-.44.15-.22-.13.78-.95.83-.37 1.05-.64l-.04-.07.35-.2c.08-.05.03.01.07-.08-.44 0-.91.12-1.25.38-.01 0-.01.01-.02.02-.19.15-.27.26-.4.46-.29.44-.03.35.16.35l-.09.07z"/><path class="fil6" d="M28.53 30.78c.04-.03-.01 0 .06-.05l.91-.45c.19-.08.35-.14.55-.19.39-.11.25-.14.56-.14l-.22.14c-.39.18-1.45.69-1.87.69zm-.38.14c.33.07.29.04.67-.08.08-.03.12-.04.19-.07.25-.08 1.07-.41 1.28-.53l1.02-.49c.01 0 .02-.01.03-.01-.1-.02-.26-.06-.43-.01l-.2.06-1.87.68-.62.37c-.06.05-.03 0-.07.08z"/><path class="fil2" d="M28.19 17.47c.05.17.24.18.58.3.07.03.08.03.16.06.06.02.12.05.16.06.33.12.92.11 1.24-.19l.02-.02c.09-.08.28-.19.31-.27.02-.07-.02-.12-.14-.1-.1.02-.17.11-.26.18-.45.34-.79.34-1.31.15-.25-.09-.59-.25-.76-.17zM12.52 3.82c.11.02.05 0 .11.07.41-.25.49-.51.98-.7.63-.23.77-.17 1.41-.31v-.07c-.51-.11-1.23.09-1.59.24-.26.11-.63.41-.84.62-.07.08-.06 0-.07.14zM9.37 7.76c.16 0 .24-.38.56-.74.65-.73.96-.38 1.38-.47-.01-.08.02-.05-.02-.11-.09-.15-.92 0-1.03.05l-.48.36-.41.63c-.05.11-.2.29.01.29z"/><path class="fil4" d="M34.57 31.34c.9 0 1.18.06 1.98-.27l.1-.04c-.46 0-.39-.1-.56-.15-.16-.05-.81.2-1.05.27-.51.16-.42 0-.48.19zM24.09 31.34c2.01.15 1.5-.21 2.24-.21v-.03c-.75 0-.56-.17-.76-.17l-1.48.41z"/><path class="fil2" d="M17.76 2.16c.17.13.49-.14 1.02-.14s.67.55.95.55c.15 0 .01.01.11-.03-.07-.23-.44-.52-.69-.62-.4-.16-1.33-.02-1.4.24zM6.66 7.31c.12-.07.05-.03.18-.19.17-.2.27-.49.7-.47.27.01.23.11.43-.08-.01-.02-.02-.08-.03-.11h-.29c-.2-.01-.21-.06-.37-.02l-.31.15c-.13.09-.19.14-.28.27-.08.11-.15.26-.16.4.13.03.01-.03.12.05z"/><path class="fil1" d="M12.82 11.42c.02.03.35.32.46.35l.76-.93c-.13.03-.46.22-.6.29-.17.09-.43.26-.62.3zM27.43 5.25c.11.01.05-.04.08.06-.08.1-.18.11-.27.24-.15.2-.03.15.19.14.27-.01.31-.03.51-.06l.23-.04c.08-.02-.01-.09.07 0 .05.06.02 0 .02.1.05-.06.04-.18.07-.26.06-.15.09 0 .09-.24-.04.06.01-.03-.04.07-.01.01-.02.05-.03.07l-.08-.04-.02.22c-.25-.03-.06-.08-.32-.17-.31-.11-.29-.01-.34-.18.25-.05.24-.18.1-.15-.1.02-.07.04-.12.1-.04.04-.02.02-.05.06l-.08.07z"/><path class="fil4" d="M28.53 30.78c.41 0 1.48-.51 1.87-.69l.22-.14c-.31 0-.17.04-.56.14-.2.06-.35.11-.55.19l-.91.45c-.07.05-.03.02-.06.05z"/><path class="fil1" d="M31.99 2.89v-.07c-.7 0-1.06.14-1.66.25-.11.02-.5.06-.41.22.05.09.07.04.2.01l1.3-.31c.31-.06.28-.1.58-.1z"/><path class="fil6" d="M17.53 28.47c.05-.05.02-.03.07-.08.09-.08.33-.16.46-.17.32-.02.38-.08.53-.04.32.08.37 0 .38.25l-.46.24c-.3.18-.93.3-1.21.04l.23-.24zm-.27.21v.1c.5.3 1.05.07 1.51-.15.31-.15.28-.22.28-.37-.34-.21-.71-.15-1.07-.08-.28.06-.35.06-.55.26-.05.05-.16.17-.16.23z"/><path class="fil2" d="m19.86 6.58.02-.01c.27.03.64-.05.88-.09.19-.03.74.02.77-.19-.2-.1-.51.01-.63.03-.09.01-.16 0-.25.02l-.87.16c.1.04.05.04.08.08z"/><path class="fil1" d="M11.74 6.46s-.04.13-.06.16c.01.01.01.01.01.02.02.24.08.23.33.22.03 0 .08 0 .11-.01.08-.02.04 0 .08-.03-.39 0-.44.04-.45-.12l.01-.12c.06-.16.25.02.33.07.11.06.26.04.43.03l-.01-.03-.05-.03a.583.583 0 0 0-.53-.41c-.01.1 0 .04-.03.11l-.04.07c-.07.11 0 .07-.14.08z"/><path class="fil4" d="M24.55 30.85c.21 0 .56-.2.74-.3l.49-.28c.12-.06.1 0 .14-.15l-.38.14c-.07.03-.1.05-.17.09l-.68.35c-.11.07-.1.04-.13.15z"/><path class="fil2" d="M12.21 6.83c.2 0 .2-.02.4-.02l.06-.09c.1.04.03.03.06-.03l-.2-.01c-.17.01-.32.03-.43-.03-.08-.04-.27-.23-.33-.07l-.01.12c.01.16.06.12.45.12z"/><path class="fil4" d="M34.99 30.78c.15-.01.24-.08.39-.12.15-.05.93-.4 1.05-.57-.24 0-.42.13-.57.21l-.85.47-.02.02z"/><path class="fil1" d="m10.43 19.13.11-.07c.03.05.05.13.07.18l.01-.07c0-.15.05-.24.11-.35l.07-.18c.05-.11.03-.01.05-.16h-.27c-.11.19-.04.22-.15.66zM25.76 4.42c.13-.05.06-.05.19-.08-.04.06-.15.15-.08.21.08.07.22 0 .26-.06.09-.14.06-.5.06-.57-.15.09-.02-.01-.11.11-.05.07-.04.06-.09.12-.08.1-.16.16-.22.26z"/><path class="fil2" d="M17.72 4.99c.2 0 .27-.19.27-.38-.28 0-.36.09-.38.35.05.02.08.03.11.03zM22.39 17.92h.3c.05-.03-.08-.03.11-.03-.06-.08-.05-.04-.08-.14-.16 0-.33.03-.42.14l.08.03z"/><path class="fil1" d="M15.02 6.97c.2-.02.21-.1.49-.1-.04-.14.06-.07-.34-.1-.08.11-.11.08-.15.21zM26.63 5.1c.15-.03.08-.03.2.03.15 0 .02.01.08-.04-.03-.02-.04 0-.08-.03.01-.15.1-.19-.11-.21-.06.12-.01.13-.09.24zM18.4 6.39l.01-.08-.12.04c.02-.08.03-.09.04-.18-.15.04-.15.1-.23.21.16.03.1-.01.3.01z"/></g></g></svg>