<svg xmlns="http://www.w3.org/2000/svg" xml:space="preserve" width="225.463" height="362.219" style="shape-rendering:geometricPrecision;text-rendering:geometricPrecision;image-rendering:optimizeQuality;fill-rule:evenodd;clip-rule:evenodd" viewBox="0 0 90.19 144.89"><path d="M21.19 99.4c.69 1.24.23 4.11.23 5.67 0 4.95-.26 38.73.21 39.82 1.56-.27 3.49-4.15 5.08-4.98.28-1.29 8.52-10.24 9.87-11.77 2.77-3.14 6-6.82 8.44-9.66 1.5.43 5.2 4.97 6.33 6.2l11.76 13c.95 1.07 5.13 6.21 6.29 6.28.51-1.91.07-12.58.04-15.34l-.14-38.97c.01-4.61-.6-5.32 1.71-6.96 21.36-16.41 25.89-46.5 8.46-67.21-16.74-19.1-43.63-20.43-62.82-4.51C-1.62 26.12-5.43 53 8.07 72.48l.85 1.23c6.37 8.89 12.13 9.78 12.26 13.04l-.01 12.66z" style="fill:#f90000"/><path d="m32.76 16.75-4.15 2.69c-9.51 6.11-15.14 16.83-14.38 28.42.13 1.97.61 3.92.65 5.66l2.36 5.98c4.11 8.68 9.78 10.51 13.15 13.61-.39 2.29-1.83 1.71-.85 5.18.49 1.73-.64 2.93.17 5.44.78 2.42-1.1 3.34-.21 5.69.43 1.14.72.93.23 2.53-.33 1.1-.73 1.65-.57 2.85.63 4.71 7.02 2.05 9.41 3.9 1.58 1.23 4.42 5.6 8.47 4.68 3.38-.77 5.5-5.34 7.39-5.72 3.21-.63 8.1.46 8.21-4.11.03-1.25-.32-1.54-.51-2.44-.26-1.24.33-1.76.45-3.06.25-2.65-1.24-1.5-.21-4.99.93-3.2-.68-3.15-.12-5.43.82-3.31.14-3.01-.57-5.31 1.15-1.69 9.66-5.06 14.15-17.74 3.4-9.59 1.78-17.23-1.63-24.27-1.71-3.52-3.53-5.43-6.87-8.41-6.47-5.77-14.79-8.79-23.56-7.87-2.03.21-3.98.49-5.85 1.01-1.35.38-4.22 1.69-5.16 1.69z" style="fill:#060909"/><path d="M24.13 46.01c-2.39 5.35 4.87 21.71 22.36 21.2 17.91-.53 23.93-20.03 20.87-22.08-1.91.41-.27 2.63-2.7 8.23-1.08 2.49-2.85 4.7-4.59 6.34-11.48 10.84-31.51 6-34.34-10.34-.28-1.62.18-3.14-1.59-3.34zm5.67-9.4c1.5-.11 3.99-3.68 8.7-1.37 1.01.49 1.73 1.31 2.52 1.51.29-1.4-2.54-3.79-5.76-3.81-2.08-.01-5.09 1.59-5.47 3.68zm9.79 39.34c-.83-.37-4.88-1.51-5.8-1.63-1.64-.21-3.97.69-3.24 2.85.51 1.51 4.78 0 7-.44 2.27-.45 1.71-.24 2.04-.78zm4.95 20.35c2-.04 14.93-.15 15.93-.87.73-.52 1.17-1.91.77-2.88-.66-1.59-4.53-.23-5.89.06l-11.48 2.37c-1.79.38-3.99.66-5.67 1.21l6.35.1zm10.71-66.35c-4.47.9-3.75 12.18 1.13 10.99 4.52-1.1 3.63-11.95-1.13-10.99zm5.71 58.75c2-4.42-4.04-2.42-6.25-1.96l-16.38 3.33c-4.32.91-6.19.58-7.3 3.01-2.05 4.52 4.39 2.37 6.17 2.01l16.36-3.35c5.16-1.06 6.27-.52 7.4-3.03zm-.07-5.07c1.12-1.33.28-3.4-1.05-3.81-1.3-.41-10.8 1.92-12.47 2.26-2.77.56-5.53 1.2-8.32 1.78-1.86.39-6.99 1.21-7.86 2.12-1.19 1.24-.58 3.23.9 3.71 1.38.45 10.86-1.87 12.59-2.24 2.32-.5 15.48-2.95 16.21-3.82zm-.13-6c1.17-1.23.65-3.39-.93-3.86-1.41-.42-10.8 1.88-12.63 2.26-2.78.57-5.32 1.13-8.18 1.7-1.72.34-7.04 1.16-7.9 2.07-1.22 1.28-.57 3.33.93 3.78 1.14.35 3.34-.32 4.45-.55 3.83-.79 23.52-4.62 24.26-5.4z" style="fill:#fff"/><path d="M18.99 20.2c-1.7-.32-2.05-1.37-3.22-1.57-1.34-.23-2.12.88-2.29 2.23.56.72 4.35 4.66 5.37 4.87 1.27-1.41.59-1.41-1.88-3.74-.57-.54-.59-.38-.65-1.08 2.12.34 3.4 3.03 5.64 1.74.27-1.23-.57-1.72-1.13-2.7-.42-.75-1.09-1.9-1.26-2.73 1.25.71 2.84 3.45 4.21 3.32 1.47-.75-1.03-2.8-1.56-3.33-.77-.77-2.13-2.46-3.07-2.83-3.7 1.69-.14 4.05-.17 5.82zM4.24 52.92c.18-.92-.26-1.12-1.26-1.34-.01.91.12 1.28 1.26 1.34zm5.7-26.89c.78.7 5.39 3.58 6.44 3.67.65-.54.7-.56.83-1.55-.78-.95-2.48-1.74-3.82-2.52-1.42-.84-3.19-2.39-3.45.41zm.52 16.52c-2.05.15-4.65-.86-5.42-.37-.45.29-.64.97-.33 1.43.62.92 6.16 1.29 7.32.97.48-1.16.82-4.5.57-5.52-2.27-.69-1.27 1.63-2.15 3.49zm70.93 4.5c1.7-.24 7.48 1.04 5.89-1.45-.47-.73-6.41-1.09-7.33-.94-.49 1.06-.41 2.22-.56 3.43-.18 1.51-.7 2.77 1.31 2.75l.69-3.79zM7.03 36.31c.7-.71.65-1.15 1.13-2.08 1.92.01 4.1 1.53 5.82 1.28l.4-1.54c-1.46-.94-3.94-1.08-5.3-2.01-.11-1.8 1.16-2.45-1.01-2.79-.54 1.05-1 2.52-1.39 3.79-.46 1.5-1.23 2.85.36 3.35zM50.39 7.14c.02-1.34.81-1.73 1.89-.84l-.22 1.32c-.81.24-1.08.39-1.66-.48zm-2.5 1.83c-.2 1.77-.86 3.49 1.63 3.22.72-2.58.46-2.68 1.52-2.88.51-.1 1.58.01 2.36-.33.87-.38 1.61-1.53 1.28-2.8-.48-1.8-4.66-2.35-6.19-1.77-.37 1.18-.47 3.33-.61 4.57zM76.14 64.9c1.08.14 1.42.54 1.39 1.51-1.08-.07-1.34-.07-2.13-.74.29-.78.13-.44.74-.78zm3.97 2.39c.27-1.25-1.22-2.83-1.81-3.63-1.06-1.43-1.68-2.85-2.75-3.11-1.02 1.4.2 2.31-.96 3.83-.84 1.11-1.69.84-2.85 1.32-.48 2.02 1.15 1.72 4.04 2.4 1.88.44 3.89 1.26 4.33-.8zm-5.4-44.63c-.17-1.08 1.07-1.7 2.18-1.69-.41 1.14-.78 2.25-2.18 1.69zm.77 4.61c.75-.9 1.67-2.83 2.35-4.05.8-1.44 1.88-2.9.58-4.09-1.03-.94-3.28.38-4.27.74-.79.29-1.27.48-2.06.76-4.25 1.5.94 1.94 1.87 3.16 1.11 1.48-1.01 2.53 1.54 3.48zM41.06 9.34c-.22-.74-.05-1.5.15-2.41 1.68.95 1.55 3.4-.15 2.41zm-2.74 3.27c1.77.7 1.53-.97 3.22-1.56 1.98-.69 2.27 1.38 3.98.91.44-1.18-.82-3.03-1.29-3.98-1.65-3.32-3.7-6.26-5-.45-.36 1.6-1.15 3.59-.9 5.07zM9.92 55.29c.42-.24.75-.32 1.16-.53.25-.13.3-.17.57-.3.33-.16.17-.1.41-.17 1.66-2.63 1.25-7.72-5.27-6.13-1.51.37-2.48.33-2.14 2.13 1.24.78 3.16-.05 4.65-.22 2.48-.28 2.67 2.45.6 2.94-1.27.3-4.15.12-4.37 1.42-.34 2.05 3.09.95 4.38.86zM81.1 34.9c-.31-1.44 1.1-1.32 2.13-1.16-.26 1.1-1 1.65-2.13 1.16zm-3.45-3.18c-.96 2.88 3.17.64 1.53 5.8-1.39 4.39 6.32-2.64 6.37-2.7.84-1.05.43-2.29-.64-2.68-.79-.29-6.35-.46-7.26-.42zM58.54 11.08c.09-1.09.76-2.12 1.61-2.08.11 1.05.1 1.37-.39 2.39l-1.21-.31zm-3.86 1.48c1.63 1.08 2.47-.66 4.36.33 1.35.72.61 2.51 2.66 2.12.54-1.23.31-3.66.32-5.04.02-1.64.4-3.85-1.86-3.66-1.1.09-5.33 5.22-5.48 6.25zM84.23 59.6c-1.33-.82-3.1-.95-4.48-1.72-1.37-.76-.69-2.89 1.05-2.67 1.23.16 4.19 1.59 4.94.76 1.51-1.68-5.1-4.23-7.23-2.12-2.14 2.11-2.26 5.29 2.13 6.78 1.97.67 3.51 1.42 3.59-1.03zM14.1 63.46c3.01-.81 2.83 3.32.05 3.9-1.44.3-2.5-.48-2.32-1.81.22-1.55 1.27-1.82 2.27-2.09zm-4.07 1.98c.04 1.7 1.9 4.06 4.14 4.03 1.64-.02 4.01-1.84 4-4.06-.01-1.55-1.68-4.11-3.97-4.14-1.78-.02-4.22 1.79-4.17 4.16zm16.93-54.56c2.52-1.12 3.96 3.43 1.97 4.36-2.46 1.16-4.35-3.31-1.97-4.36zm4.88 2.8-.09-1.67c-.32-1.37-1.91-3.46-4.17-3.11-1.67.25-3.87 1.67-3.8 4.11.18 5.74 7.92 5 8.06.68zm36.95 3.59c-5.07 1.3-1.28-7.46 1.31-3.94.41.56.6 1.4 1.6 1.55 1.15.17.99-.7.69-1.29-.44-.86-1.75-2.37-3.27-2.74-4.85-1.19-7.72 7.19-.84 8.37 1.82.31 2.74-.94 3.1-2.56-.48-.73-1.97-2.01-3.12-1.94-.43 1.45.58 1.22.54 2.56z" style="fill:#fefdfd"/></svg>