<svg xmlns="http://www.w3.org/2000/svg" xml:space="preserve" width="113.852" height="47.051" style="shape-rendering:geometricPrecision;text-rendering:geometricPrecision;image-rendering:optimizeQuality;fill-rule:evenodd;clip-rule:evenodd" viewBox="0 0 3648.83 1507.92"><defs><style>.fil2{fill:#fefefe}.fil1{fill:#ff0}</style></defs><g id="Camada_x0020_1"><path d="m6.27 857.39 65.68 218.55c82.04 136.07 106.68 184.77 239.73 287.04 173 132.98 398.4 166.83 610.95 132.32 157.24-25.52 313.99-122.17 423.59-239.23 15.19-16.23 22.91-10.31 60.59-10.31h1947.62c101.3 0 207.59-.35 266.5-113.64 37.24-71.6 25.86-97.9 27.38-192.14l-5.8-563.16c-18.91-88.01-99.46-155.71-187.27-164.75l-633.81-1.79-1505.69.31c-18.54 0-89.12-63.07-107.25-76.78-136.51-103.24-345.85-147.2-518.9-130.3-242.97 23.72-436.33 150.77-572.24 350.3C61.24 436.18 8.72 581.91 5.06 675.91c-2.34 60.24-10.25 93.1.24 159.46l1.04 22.08-.07-.06z" style="fill:#000"/><path class="fil1" d="M602.94 1227.13c23.92 0 72.47 42.01.94 57.4-74.56 16.05-56.47-1.14-137.22-36.73-36.02-15.88-83.62-13.46-65.43-66.2 6.43-18.64 55.61-93.75 83.91-42.48 17.5 31.72 47.75 27.44 87.06 72.61l30.74 15.4zm228.49-175.72c0-41 43.38-43.21 45.23-42.58 28.61 9.73 66.28 36.25 76.75 69.25 40.29 127.02 143.2 107.64 33.29 142.13-47.42 14.89-31.23-47.56-120.27-121.82-12.6-10.5-35.04-27.44-35.04-46.95l.05-.04zm168.3-58.65c-.28 3.67-25.8 44.35-38.8 39.14-38.73-15.53-72.9-49.89-27.96-93.71 38.2-37.24 29.31-19.43 63.41-2.92 35.66 17.26 3.43 57.16 3.34 57.49zm-338.21-19.27c0-60.47 201.56-61.47 201.56-47.52 0 2.4-51.54 67.07-97.99 71.98-41.74 4.41-103.59 52.62-103.59-24.46h.02zM366.11 327.25c-1.24 5.86-4.22 4.89-4.75 11.11l94.46-55.07c16.45-12.79 50.16-2.8 29.31 21.04-21.37 24.42-34.36 12.44-11.57 41.24l21.85 95.98c7.2 31.71-88.49 27.92-54.58 50.85 14.96 10.11 29.17-7.74 90.67 35.43 25.32 17.77 131.92 86.31 160.13 70.87l85.97-58.08 37.15-46.89c-18.35-3.84-1.2 5.26-43.74 26.26l-40.6 30.82c-21.62 18-39.19-16.53-2.96-37.21 3.34-33.95 59.31-54.57 86.51-60.4-4.29-22.89-75.08 15.98-81.31 6.86-7.81-11.4 18.82-55.15 42.35-64.51 8.87-3.55 6.04.76 16.81-6.21-6.83-16.72-73.48-26.07-25.4-62.58 19.44-14.77 132.12 98.84 89.95 7.38l-34.81-45.8c29.25-13.89 98.43 57.98 98.58 58.11.07-.13.29.24.44.35 18.02-8.83-5.39-30.21 23.77-52.16 79.53-59.87-24.35 34.22 41.94 69.43 33.99 18.06 69.31-24.55 107.43-12.27 28.57 9.21-50.49 44.49-2.06 42.18 51.23-2.45 23.29-34.06 143.59 46.91 31.57 21.25 100.55 40.13 93.62 91.25-2.76 20.37-1.32 58.98-45.73 46.3-27.9-7.97 1.32-81.77-111.96-121.28-47.1-16.43 19.14 60.94-17.92 85.8-18.11 12.15-34.66-38.77-54.5-38.77-.57 1.17 4.41 63.58-22.18 14.01-41.94-78.19-30.51 25.78-41.21 32.75-37.64 24.55-19.76 44.32-63 60.95-27.45 10.56-48.38 6.99-39.36 79.23 5.63 45.07 54.59 43.01 102.28 58.03 67.98 21.39 158.6-28.95 206.9 47.03 15.75 24.77.04 67.24-34.79 45.28-41.75-26.32-16.95-30.77-103.07-39.22l-63.64-2.82c-12-2.22-37.38-6.9-47.69-5.8.4 20.93 68.18 9.57 82.22 35.99 9.23 17.37-29.4 28.39 1.31 45.57l72.31 118.63 5.48 91.04c-2.91 2.93-45.8 17.82-57.85 2.81-17.42-21.68-40.63-136.39-78.84-148.46l-76.61-55.36c-35.83-16.11-108.54-18.17-148.04-20.17-37.38-1.89-97.26-96.52-72.11-104.32 130.87-40.58 190.05 45.63 227.42 28.36-3.25-4.75-7.04-7.38-7.92-8.76-78.98-16.07-54.01-85.13-78.2-88.32-30.45-4.01 26.95 34.11-96.06 41.14-70.28 4.02-68.41 45.25-86.79-78.99-5.22-35.29-28.94 2.06-115.27-67.59-59.73-48.2-94.61 5.06-90.37 35.44 6.84 48.98-9.91 164.02 32.62 103.17l51.95-54.05c23.12-37.04 97.42-38.19 95.84 16.66-1.74 60.42 48.49 79.69 63.53 129.75 8.31 27.64-5.87 9.3-6.9 64.19-.82 43.87-35.15 76.61-48.33 19.59l-41.87-121.86c-17.54-43.11-86.51 58.06-97.15 74.53-27.87 43.17 100.15 83.36 38.42 167.3-11.36 15.46-53.77 100.31-82.13 86.95-45.94-21.65 71.02-110.64-13.7-154.1-45.4-23.28-102.05-59.79-93.48-119.72 5.8-40.58 6.66-21.17 64.03-57.33l7.69-13.4c-21.88-6.13-94.24 50.92-96.64.38l-22.22-155.45c-22.15 1.21-12.55 27.47-35.75 36.35-53.84 20.63-109.11-5.9-69.54 63.27l91.6 114.86c43.35 38.83 41.98 50.74 1.7 57.91-70.19 12.5-28.09-23.2-89.51-86.03-24.78-25.35-93.1-115.79-79.81-152.08 11.94-32.61 133.05-81.18 147.28-109.09 14.48-28.39-35.87 10.66-39.33 10.91-18.11 1.33-8.99-18.47-41.04 21.54-33.37 41.64-58.66 21.32-27.96-4.93 21.79-18.63 10.73-61.4 47.1-93.08 13.7-11.93 45.15-17.2 52.91-48.75 11.71-47.6-60.06 60.12-67.66-19.57l48.29-62.37L300.35 282c6.94-5.04 9.5-43.28-65.97 67.59-37.88 55.65-26.18-37.48-44.7-23.08C142.9 362.9 84.95 511.05 66.15 574.28c-54.25 182.49-17.73 386.67 80.94 548.14 96.77 158.35 265.82 283.96 446.58 323.71 211.75 46.55 395.72 15.84 578.77-99.01 59.78-37.5 103.75-80.73 149.95-132.2 9.92-11.05 79.34-91.02 57.8-94.64-7.2-1.21-91.62-7.53-41.21 25.79 11.99 7.95 10.54 11.92 10.54 22.29-86.77 57.29-38.1 21.68-186.47 36.75-117.53 11.93-47.12-42.18-54.82-78.9-3.09-14.72 31.02-29.25 59.26-14.14 65.73 35.2 34.07-14.03 63.58-91.37 37.1-97.23-2.57-225.29 181.85-226.65 90.47-.67 42.76 8.99 74.25-94.43 6.4-21.03 2.27-75.78-12.91-79.07-10.34 9.71-17.2 151.67-35.53 160.34-.17.08-135.73 9.78-136.76-12.05l34.73-194.74 34-194.74c6.03-31.19-15.87-47.05-45.9-82.02C1165.33 111.66 956.27 33.59 712.33 44.2 426.02 56.65 175.89 303.89 287.87 245.46l35.56-20.36c22.37-3.14 18.45 21.54 37.89 13.97 69.4-27.06 65.6 49.86 44.94 61.18-7.56 4.14-28.49 8.65-40.17 27z"/><path class="fil2" d="M2054.71 456.8c0-.18 12.21-97.41 25.33-97.41 44.64 0 8.22 99.8 5.95 101.66-11.57 9.5-31.29 19.96-31.29-4.25h.01zm-169.5 299.24c0 20.96 59 13.09 103.76 13.25 23.78.08 29.12-137.98 38.46-161.81 12.45-31.76 2.62-76.74 33.36-56.88 20.93 13.52-11.92 147.26-16.13 177.1-6.86 48.56-31.53 40.49 82.88 40.49 37.26 0 15.89-38.52 38.28-114.66 7.82-26.62 19.49-95.73.93-116.91l-32.35-25.57c65.01-20.34 62.03-34.07 79.47-132.36 22.66-127.68-138.56-100.02-213.09-101.43-56.97-1.08-29.16 38.08-46.85 93.83l-68.79 384.94.08.01zM3106.01 362c.71-.4 24.95-6.92 29.36 14.12 3.54 16.89-3.59 76.52-22.2 88.8-40.6 26.78-20.54-33.63-13.08-75.29 1.13-6.27 3.48-23.55 5.95-27.64l-.02.01zm-146.8 406.52c85.09 0 69.87 22.03 91.26-90.28l21.9-125.66c.13-.35 44.38-36.56 23.94 61.87l-23.18 139.21c-.93 23.12 37.67 17.41 90.29 14.85 29.7-1.44 22.01-74.79 34.98-114.83 6.38-19.7 16.55-87.15 6.6-106.81-15.47-30.59-32.79-23.12-36.24-33.23 23.96-15.57 62.77-9.22 75.72-119.35 15.86-134.88-70.45-116.39-202.83-117.05-53.58-.27-36.52-5.58-57.4 104.57l-66.12 380.21c2.3 11.62 28.93 6.44 41.17 6.44l-.07.04zM3419.64 530.06l-.38-.82c-1.59 12.99-26.06 208.14-59.49 163.21-10.25-13.77 46.5-315.57 54.85-331.62 5.12-9.85 37.08-30.67 28.77 27.54l-23.68 141.7-.07-.01zm-60.46 250.67 19.8-2.59-.85-.38c103.58-2.23 141.56-113.73 149.2-199.37 8.18-91.68 81.23-263.4-28.99-302.11-107.27-37.68-204.02 34.12-214.47 148.58-3.25 35.59-46.73 225.94-41.41 266.23 8.22 62.32 57.77 89.62 116.74 89.62l-.02.01zM2210.21 670.34c0 166.27 219.61 117.86 256.4 34.96l33.01-118.26c1.17-14.54 6.58-13-35.39-13.11-95.86-.27-75.68-18.4-95.27 86.85-8.7 46.76-59.44 67.08-37.65-33.49 8.78-40.53 39.08-256.18 55.93-272.08 7.46-7.05 31.88-12.11 31.88 11.93 0 135.8-78.63 123.71 74.47 123.92 35.77.05 19.66-6.96 34.58-70.15 7.62-32.28 10.3-98.12-25.34-126.79-59.52-47.89-222.2-45.44-249.82 115.42l-42.7 260.77-.1.02zM1775.13 432.65l-16.58 160.48c-60.1 24.38-20.99-51.72-14.31-84.27l22.99-67.53 7.93-21.57c3.91 4.81.1 8.18 0 12.86l-.04.02zm-182.95 304.7-11.11.79c28.61 35.67 10.1 35.33 94.11 30.4 36.41-2.13-1.08-105.23 68.87-85.61l-.42 67.66c-3.43 24.03 11.29 17.15 33.19 18.35 111.21 6.07 83.58 11.18 88.87-143.83l13.47-338.99c-2.64-15.23-98.84-8.31-123.07-8.31-65.48 0-40.43-2.08-83.12 125.12l-62.54 226.86c6.72 5.11 60.19-4.19 37.42 17.42-36.16 34.32 10.3 10.08 10.6 52.74.27 38.41-15.89 41.73-66.31 37.44l.04-.04zM1539.1 385.88c-1.7 23.72-9.13 96.43-37.56 100.19-27.61 3.65-14.78-17.49-3.39-81.56 2.22-12.88 3.82-25.2 8.12-37.76 5-14.61 34.64-7.2 32.8 19.14l.04-.01zm-185.33 175.35-32.62 203.05c11.77 11.18 107.81 3.43 110.74.15 10.73-12 26.71-183.18 39.78-190.76 26.29-15.23 129.91 28.82 150.93-106.72 22.6-145.76 49.26-185.91-116.01-189.59-139.31-3.1-92.71-13.92-126.56 119.37l-26.31 164.6.05-.11zM2588 331.34l-.39-.13-73.82 432.95 192.02 5.45c14.48.48 23.96-77.93 23.96-92.26l-54.9-4.41c-43.76-.15-26.92-10.55-14.69-82.08 13.12-76.77 72.7 21.32 83.62-60.23 11.65-87.1 25.03-51.49-60.98-62.43l19.17-91.48c54.33-21.86 71.7 35.77 81.21-45.42 8.01-68.38 38.94-53.5-151.12-53.5-22.26 0-39.44-16.26-44.08 53.49v.05zM1976.04 971.39c-.04-.12 1.07-109.32 55.71-119.34 64.32-11.79 40.86 91.04 7.56 112.4l-63.28 6.9.01.04zm-76.03-67.28-57.59 259.51c-6.76 32.94-7.06 23.87 54.74 25.69 45.24 1.33 25.12-14.5 38.93-53.5l26.85-109.26c2.31-3.65 92.72-24.37 68.46 53.39l-21.06 104c2.18 3.88 78.73 13.52 84.84-4.77l28.22-128.11c9.39-59.9-52.67-28.25 2.12-71.75 6.34-5.03 124.64-196.76-117.71-169.44-57.45 6.48-97.32 33.61-107.38 94.4l-.42-.17zM3094.65 973.74c-36.87 0-30.73 3.1-14.01-70.18 19.08-83.66 103.26-54.84 83.02.07-7.29 19.77-4.68 70.11-69.04 70.11h.04zm-162.77 204.06c1.11 18.85 23.62 6.94 70.35 12.04 23.79 2.6 18.45-26.98 20.99-33.42l28.9-117.44c1.71-32.51 57.11-18.61 72.87.47 17.38 21.03-33.07 131.33-21.61 145.17 2.52 3.04 75.73 13.47 81.65-5.4 9.98-31.76 42.96-141.46 20.6-166.81-26.15-29.65-2.22-4.28 26.35-52.7 8.73-14.8 26.03-85.12 16.36-106.97-24-54.23-223.52-81.17-253.38 40.59l-63.1 284.46zM1668.2 973.21c-29.56 0-5.24-33.83.47-80.01 5.6-45.21 99.84-73.61 78.2 20.62-16.76 73-1.17 57.51-78.66 59.41l-.01-.02zm170.02-98.71c10.47-73.37-184.36-90.35-202.17-36.29-17.99 54.62-52.38-4.07-68.04 116.02l-46.68 207.54c-6.69 26.2-18.15 29.76 47.85 27.24 36.58-1.39 34.07 16.75 53.67-85.69 17.21-89.99 5.94-85.08 87.37-80.88 21.13 1.09 1.38 42.5-8.77 96.82-14.57 77.93-38.12 69.6 56.29 69.86 21.96.06 21.19-47.01 30.78-81.65l49.7-232.97zM3447.63 851.91c38.76-8.3 45.12 36.36 33.27 70.78l-45.87 194.11c-12.65 31.52-99.37 51.4-73.19-31.74 14.71-46.7 31.13-195.5 58.13-220.02 8.42-7.23 16.72-10.76 27.65-13.11v-.02zm-181.65 275.86c0 67.53 114.83 60.41 150.29 58.95 30.94-1.27 104.05-37.07 108.67-79.23 6.63-60.55 65.2-234.87 40.82-261.06-67.09-72.07-230.66-38.51-245.63 32.84l-54.21 248.45.06.05zM1340.05 1051.78c-22.57-14.57 9.39-100.39 9.51-100.5-1.41-55.88 43.11-139.03 92.68-83.49 12.71 14.23-26.31 159.73-30.23 167.01-7.09 13.15-42.53 42.3-68.04 20.07l-3.91-3.09zm-38.42-209.23c-42.86 54.34-41.26 166.17-59.98 204.49l-27.39 119.29c1.84 31.42 10.21 16.11 71.77 21.14 23.54 1.91 17.29-75.21 30.73-84.34 8.96-6.09 159.3 44.24 188.95-98.47l24.17-114.81c-14.39-9.44-62.82-6.94-67.41-44.96-3.89-32.22 31.05-39.02-63.54-36.64-27.84.7-77.62 11.4-97.28 34.34l-.01-.04zM2769.91 769.82c146.6-10.84 76.59 35.93 121.97-144.88l54.67-307.06c10.27-68.1-6.71-30.78-82.15-40.6-48.72-6.35-26.9 42.1-51.31 133.72l-58.63 335.23c-2.5 13.6-7.11 24.99 15.5 23.51l-.05.1zM2717.63 917.36c75.02 0 71.03 6.84 69.94-54.74-1.1-61.84-215.26-94.29-252.64 22.47l-52.45 247.67c6.66 92.57 277.04 73.94 263.68-61.73l-79.58 1.71c-7.61 10.3-15.18 86.4-75.42 68.8-37.96-11.08-1.13-109.04 2.93-116.02 11.37-19.59 79.73 27.94 78.01-44.38l-29.65-8.21c-60.26-.05-34.85 3.48-22.81-76.64 8.95-59.54 84.32-52.22 84.32-17.12 0 31.02-16.76 34.11 13.72 38.19l-.05-.01z"/><path class="fil2" d="M2289.15 1189.1c98.08-6.08 128.99-31.43 147.25-102.65 6.46-25.17-10.27-19.15-68.05-19.2-27.45-.02-6.01 60.35-55.65 73.48-76.46 20.23-38.52-74.79-22.12-146.47 13.42-58.65 19.02-160.41 81.4-141.12 38.02 11.76 17.38 49.34 18.84 61.67l81.44-.38c.21-.12 64.22-112.66-133.21-105.72-140.53 4.94-116.15 133.99-151.47 255.01-28.44 97.45-12.61 117.91 101.58 125.41v-.04zM2792.08 1188.84c118.63.51 55.68-9.22 81.23-48.31l70.21-316.67c10.37-27.69-82-14.16-84.23-11.92l-82.31 363.18c-3.09 13.49.99 13.68 15.08 13.68l.02.04zM1538.3 874.51c72.05 0 111.6-65.48 56.2-65.48-25.24 0-9.61 43.63-48.32 41.98-30.5-1.3-10.61-64.39-10.31-64.85 6.09-8.12 35.49.8 40.4-12.38 7.55-20.25-24.27-13.64-33.01-18.84-7.56-48.34 24.86-77.7 43.66-63.28 13.6 10.45 5.72 13.8 10.34 28.28 7.46 23.28 91.05-7.66 1.96-55.93l22.45-17.15-31.64-4.32c-31.41 1.24 3.21 18.63-42.76 25.75-52.86 8.19-45.17 71.96-62.37 154.51-12.09 58.01 47.89 47.12 53.39 51.7z"/><path class="fil1" d="m1368.82 922.04-22.86 109.44c-3.89 15.18 35.84 38.74 57.39-13.15l26.9-140.43c-11.6-20.92-31.46-13.94-45.82.31-10.43 10.32-11.4 37.27-15.64 43.85l.02-.02zM1224.66 1117.64c13.82-21.29 42.83-236.37 71.48-268.64 2.22-2.13 3.61-4.08 5.48-6.43-32.73 12.88-51.37 152.7-59.57 188.33l-15.89 66.82c1.13 8.19-1.43 11.2-1.5 19.94l.01-.01z"/><path d="M2947.71 1188.56c-8.35-3.45-14.9 6.27-15.83-10.79-3.26 3.6-1.45 6.26-.39 10.79 7.07 1.62 9.12 0 16.22 0z" style="fill:#00f"/></g></svg>