<svg xmlns="http://www.w3.org/2000/svg" xml:space="preserve" width="237.681" height="127.705" style="shape-rendering:geometricPrecision;text-rendering:geometricPrecision;image-rendering:optimizeQuality;fill-rule:evenodd;clip-rule:evenodd" viewBox="0 0 150.24 80.72"><path d="M88.91 4.18c.3-.66.55-.98.52-1.73-.1-2.4.3-1.77-2.21-1.58-.46-.6-.44-.87-1.48-.86-.41.87-.31 1.03-.45 2.16-2.45 1.37-3.3 1.8-1.96 4.07.83.07 1.56-.07 2.22-.24.02 1.34.28 3.04-.06 4.34l-.15.35c-.61.49-1.75.63-2.77.73.37-1.42 1.55-1.46-.7-2.39-.9-.37-1.49-.82-2.68-1.03-.18-2.77-1.56-5.83-4.95-5.56-.77 2.56.46 2.6.83 3.83-2.01.06-2.06-.14-3.65.72-3.95 2.11-2.9.21-2.94 6.68-.98.83-1.15.79-2.41 1.24-1.04.37-1.51.96-2.87.62-.3-2.77 0-1.53.49-2.82.42-1.09-.12-1.98-.6-2.49-1.35-.26-5.83.38-7.61.41-1.3.02-2.62 0-3.92 0-1.86-.01-2.89-.56-2.9 1.08-.02 1.89.46 1.25.63 2.4l.09 7.8c-1.17.02-2.13-.37-3.48-.43-1.85-.09-2.19.37-3.52.45-1.17-1.52-1.7-2.43-.01-3.71l-.06-2.28c-1.41-.38-7.55.08-9.2.28.26-1.58 1.58-1.75.09-3.55-1.81-.14-5.39.58-7.36.75-.97.09-2.99-.07-3.59.54-.36.36-.4 1.09-.25 1.6.2.66.51.59 1.12.93l-.09 2.17c-2.41.89-2.1 0-4.53-.25-3.54-.36-6.4 1-9.69 1.67-1.02.21-1.27.33-1.24 1.64.03 1.13.23.91 1.23 1.37l.11 2.36-2.36.81-.11 1.97c1.34 1.35 1.21.29 1.27 3.32-2.05.37-3.22.88-4.3 2.72-1.85 3.17-1.1.15-1.29 5.55-1.09.72-.98.81-1.02 2.54-.07 3.02-.2 17 .04 19.55l1.26.68c-.16 1-.18 1.78-.3 2.79-.09.72-.39 1.5-.57 2.24-.43 1.79-.48 3.12-.78 4.9C.5 73.98-.46 75.8.24 77.35c.54 1.19 1.64 2.2 3.44 2.2 3.12 0 2.92-1.09 4.35-1.09 2.98 0 1.41-.01 2.9 1.24.44.37 1.4.97 2.1 1.03 1.79.14 1.4-.63 5.45-.72 3.86-.09 3.2-1.18 4.86-1.48.89-.16 2.06-.18 2.66.24.83.58.76.75 2.26.75 3.94 0 2.3-1.06 5-1.06 3.41 0 1.48 3.88 7.92 1.39 2.85-1.1 2.16 1.92 5.81-.06.83-.45.73-.77 1.29-1.38 1.59 1.04.94 2.44 5.14 1.66 2.04-.38 4.61-.2 6.18-1.17 1.13.45 1.18.98 3.05 1.05 1.19.04 2.57-.17 3.91-.2 2.58-.05 5.15-1 7.34.06 1.27.62 2.1.49 3.56.18 1.05-.22 2.15-.8 3.04-.28 1.06.62 1.39 1.19 2.88.56.46-.2 1.22-.5 1.47-.71.5-.43.35-.63.85-1.09.77.34.32.48 1.07 1.08 1.49 1.18 3.14.7 4.79.4 3.46-.63 3.29.26 6.54-1.75.46.3 3.16 3.82 6.91 1.75 1.1-.61.95-.67 1.47-1.76 6.3.28 5.49 1.37 7.86 2.08 2.03.61 5.78-1.61 7.91-1.61 2.12 2.12 2.75 1.87 5.83 1.25 1.1-.22 2.34-.14 3.54-.36 1.26-.22 1.79-.86 2.62-1.32.9-.49 2.12.13 3.22.24 2.16.21 7.81 2.07 9.74 1.85 2.53-.28 3.22-1.83 2.96-4.56-.23-2.41-.24-4.71-.6-7.22-.32-2.26-.75-4.77-.76-7.05-.01-1.63 0-2.13-.94-2.99-2.45-2.24-2.1-1.13-4.16-1.07l-.03-3.05c1.52-.19 3.93.36 5.12-.26.81-1.27.36-6.41.36-8.29 0-2.78.08-5.55-.17-8.32-1.96-.77-.25-.05-2.07-2.2-.43-.5-1.89-1.82-2.09-2.31-.04-1.99.55-3.05-1.23-3.71l-3.94-1.06-.18-6.36c-3.12-.38-5.94-.08-9.04-.52-.52-1.61-1.6-2.18-2.88-3.17-.21-4.89 1.2-2.79 1.08-4.31-.08-.96-3.06-2.25-3.7-2.63-.23-2.17.19-1.39 1.03-2.36 2.12-2.42.26-3.83-3.3-1.34-2.9 2.03-.29 1.13-5.2 2.83-1.99.69-3.94.78-5.59 2.16-.37-2.76-.37-3.04.85-4.74.49-.69.41-1.39-.09-1.91-.83-.87-8.64-.75-10.29-.4-.89.19-1.26.57-2.07.75-2.32-2.39-7.61-2.24-11.36-2.06z" style="fill:#040303"/><path d="m110.74 76.48 1.3.16c1.97-1.6-.32-12.79.96-14.19.8-.68 3.78-.31 4.98-.16l16.37.49c.25-.61.39-1.72.29-2.85-1.98-.43-23.67-.47-24.79.05-.5 1.53 1.06 9.97.67 14.12-1.32-.01-1.82.11-1.98-1.07l-1.26-8.28c-.53-4.07-.23-3.14-4.93-4.67-4.01-1.3-2.62 1.56-2.13 8.83.13 2-.04 7.54.7 8.9.73.36 1.83.47 2.75.34.9-1.23.62-1.88.23-3.54l-1.55-12.09 2.33 1.13c.34.35 1.56 10.48 1.92 11.76l4.11 1.08zm3.48 1.31c1.05.2.8.37 2.19-.02.81-.23 1.4-.48 2.13-.67 1.48-.38 3.05-.44 4.15-1.34.23-1.55.22-1.74-.48-2.9-2.18-.25-2.95 1.52-5.3 1.24l-.09-8.46c1.78.35 3.79 2.18 6.31 2.12.5-.94.56-1.42.2-2.57-1.27-.57-6.95-2.19-8.27-1.77-.28 1.21-1.06 12.7-.84 14.38zm10.28-.43c.75 1.32 2.45.54 3.9.23l4.08-.92c.38-.69.33-2.23-.27-2.75-.76-.62-3.26.45-4.84.34l-.09-2.54c1.81-.07 3.66.35 5.43-.01.31-.97.31-1.27.06-2.28-1.91-.53-3.92.3-5.58.19l-.02-3.44c1.93-.33 4.17 2.07 6.15 1.76 1.09-1.78.63-2.52-.73-3.1-1.68-.22-5.2-1.51-6.4-1.44l-.72.18c-.47-.8-.96 12.96-.97 13.77zm-36.3-2.62.1 3.25c1.65.15 6.93-.72 7.98-1.39.29-1.17.13-1.95-.29-2.77-1.19-.36-1.21-.17-2.33.14-.79.22-1.82.46-2.6.63l-.05-2.86c3.64.13 5.69.92 5.63-1.14-.08-2.6-3.75-.79-5.61-.94l-.02-3.74c1.34.05 3.35.86 4.55 1.16 2.4.6 3-1.23 1.78-2.69l-7.26-.81c-1.38-.08-1.21.67-1.29 1.8-.08 1.1-.27 1.99-.35 3.05-.16 2.02-.24 4.21-.24 6.31zm57.35.87-6.95-2.17c.45-9.45 4.12-13.84-1.96-11.94-.49 1.44-.96 11.73-.87 13.9 1.11.87 3.9 1.39 5.66 1.51 1.75.12 4.49 1.33 6.02 1.03.8-1.09.24-2.73.05-4.27-.21-1.65-.13-3.22-.29-4.87-.21-2.24-.52-7.42-1.44-9.07-3.27-.27-2.83 1.06-2.67 2.24.28 1.94.31 2.78.83 4.62.54 1.92.35 2.82.68 4.57.31 1.64.89 2.46.94 4.46zm-63.08-3.68c-.34-.62-.36-1.85-.59-2.75-.2-.77-.62-1.69-.79-2.59-.4-2.15-.41-4.05-1.48-5.51-1.66-.03-2.74.8-3.28 1.69.16 1.01.92 3.05 1.4 4.07l2.84 8.02c.63 1.65.49 2.89 2.1 3.35 1.14-.69 2.55-6.23 3.06-7.6l2.65-7.99c1.83.15 8.2.81 9.35.42.22-.54.69-2.75-.29-3.08-.21-.07-3.4-.02-3.9-.02-2.01 0-6.02-.26-7.77.06-.89 1.99-1.93 8.45-3.31 11.91z" style="fill:#d88e63"/><path d="m10.5 44.8.2 12.31c3.75.16 1.86 2.94 7.25 1.67 1.41-.33 2.64-.43 4-.81 3.77-1.06 2.5-.42 4.01-.76l.05-2.86-9.66.04c-.15-1.73-.4-7.07.01-8.35 1.62-.63 6.8.06 9.19-.53l.02-4.41c-.79-.11-13.89 3.21-15.07 3.69zm103.29-23.49c.33-.37.1.38.3-.39.2-.76-.01-.36-.09-.53-.35.19-.18-.32-.34.29-.23.9.1.57.13.63zm14.86 35.82 1.24.1c-.12-.31.24-.51-.65-.49-.89.02-.44.29-.59.39zm-82.11-6.05c.82-.14.76-.15.99-.96-.88.23-.83.1-.99.96zm2.3-24.9c.02-.89.06-.88-.74-.97-.04.82.06.76.74.97zM122.57 11l.99-.08c-.09-.37-.04-.8-.58-.67-.42.1-.36.37-.41.75zM82.11 59.96c.15.27-.35.54.55.49.91-.05.33-.1.54-.49-.25-.16-.17-.55-1.1 0zM42.42 26.43c.43-.78.33-.93-.01-1.66-.2.24-.34.03-.33.84 0 1.1.27.75.34.82zm8.76 24.43c-.03-1.02.13-1.07-.89-1.06-.07.91.07.81.89 1.06zM114 16.23c.34-.54.21-.81-.02-1.24-.37.12-.63.07-.62.61.01.55.32.53.64.63zm-107.16 37c.85.51 1 .31 2.15 0-.05-.04-.13-.17-.16-.12-.85-.26-1.16-.43-1.99.12zm11.64-1.12c.25-.52.28-.57 0-1.17-1.1.06-1.21 1.07 0 1.17zm38.49-27.15c.61.47 1.4.44 2.02 0-.4-.29-.99-.41-1.55-.26-.44.12-.23.09-.47.26zM20.44 52.17c.32-.65.3-.75 0-1.4-.4.1-.69-.1-.65.69.03.64.34.58.65.7zm81.59-36.99c.21-.27.34-.07.34-.87-.01-.79-.12-.59-.34-.87-.03.03-.96.51 0 1.74zM79.57 26.7c.21.18-.32.34.91.36.61.01.84-.18 1.07-.36-.59-.44-1.35-.42-1.99 0zm-57.83 7.84c.83-.21.65-.38.51-1.41-.3.02-.57.03-.73.36-.38.79 0 .8.22 1.05zm59.61-16.99c.37-.1.57.1.64-.66.08-.76-.07-.62-.43-.87-.62.39-.77.74-.22 1.52zm30.68 12.99c.58-.42 1.17-1.5-.2-1.63-.28.78-.32 1.1.2 1.63zm-53.52-14.8c.23-.54.21-1.32 0-1.84-.42.12-.56-.4-.61.83-.05 1.01.09.87.61 1.01zM23.7 24.91c.41-.73.19-1.81-.22-2.46-.25.46-.61 2.06.22 2.46zm-8.92 8.29c.38-.75.34-1.85-.22-2.32-.35.48-.27.46-.22 1.27.06.93-.08.76.43 1.05zm47.87-14.54c.35.3.78.52 1.75.31.77-.17.47-.18.65-.31-.38-.27.38-.04-.45-.26-.78-.21-1.48-.11-1.94.26zm-3.37 4.6 1.47.07.06-1.87-1.42-.03-.11 1.83zM4.3 44.76c.61-.05.82-.01.85-.66.03-.73-.25-.71-.59-.85-.63.54-.65.71-.26 1.51zm46.6-7.48c1.14.17 1.26-.08 1.18-1.12l-1.12-.1-.05 1.22zm18.71-10.42c.27-.64.34-1.14 0-1.69-1.12.27-1.19 1.57 0 1.69zm-6.55-3.41c.3.57.41.55 1.33.46.68-.06.8-.09 1.02-.63-.85-.1-1.73-.2-2.35.16zm-3.53-.35 1.02.01-.01-1.41-.95-.01-.07 1.41zm11.51-9.38c1.13-.34 1.1-.59 1.03-1.79-1.29.07-1.04.31-1.03 1.79zM69.62 24.1c.46.65 2.01.54 2.72.22-.31-.79-2.17-.57-2.72-.22zm47.69-3.52 1.27-.1.28-1.36c-1.13.06-1.54.46-1.55 1.45zM102.5 51.5c-.05-1.25-.26-1.42-1.56-1.35-.04.92-.4.48.32 1.01.29.22.87.3 1.24.34zM27.4 31.91c.41-.71.41-1.43.17-2.3-.78.05-.81.14-.77.99.03.74.06 1.02.61 1.31zm20.7 5.63c1.29.05 1.47-.1 1.36-1.38-1.18-.24-1.47.24-1.36 1.38zm20.65-18.23c1.18-.22 1.25-.47 1.13-1.78-1.46.11-1.29.3-1.13 1.78zm36.64 8.16c1.36.05 1.59-1.92-.06-1.8-.23.56-.22 1.28.06 1.8zM40.33 53.75c-.24.7-.19.8-.1 1.67l1.07-.01c.17-.98.21-1.99-.98-1.66zm-4.45-32.68.25-1.24-1.48-.03c-.29 1.27.11 1.81 1.23 1.28zm70.24-13.06c-.62-.42-1.64-.28-2.5-.17.24 1.57 2.05.88 2.5.17zM56.88 27.58c.45.32 3.35.45 3.88-.22l-3.14-.21c-1.18.13-.5.24-.74.43zM112.24 25c.58.29.45.24 1.24.1l.09-1.37-1.39.01c-.19.92-.26.65.06 1.27zm-41.77-6.29c.79-.07.64-.05 1.3-.48l-.36-1.6c-1.32.48-.99 1.59-.94 2.08zM57 26.06c.58.79 2.29.58 2.75.22-.24-.68-1.31-.73-2.11-.58-.92.18-.35.08-.64.36zM6.23 39.63c.53.11.99.04 1.5-.18 1.19-.5.92-.77.98-.98-1-.09-2.63-.06-2.48 1.16zm47.51-17.66c.78-.16.62.18.68-.9.03-.59 0-1.05-.24-1.5l-.44-.03c-.32.41-.47.86-.31 1.74.21 1.19-.01.25.31.69zm10.23 15.61.65-.02c.56-.74.65-2.19.22-3.01l-1.08-.15c-.24.68-.23 1.03-.29 1.67-.09 1.09-.27.89.5 1.52zm-11 19.57c.04.07-.34 1.05 2.34.32 0-.01.3-1.33-1.79-.75-1.09.3-.09.05-.55.43zM97.75 9.88l-.11-1.6-1.36-.42c-.09 1.51.12 1.84 1.47 2.02zM63.96 37.24c.8-.07.63.21.76-.73.07-.5.07-1.21.03-1.71l-.79-.11-.28 1.82c.14 1.31-.04.24.27.74zM47.35 57.95c.74-.39 1.05-.77 1.57-1.17l1.21.77c-.03-.9-.5-1.55-1.4-1.74-.44.44-1.21 1.34-1.38 2.14zm4.45-31.1 1.52.16.05-1.72-1.54.16-.02 1.39zm17.16 12.49c.12.29-.2.55 1.31.52.55-.01.93-.05 1.46-.16.27-.92.28-2-.02-2.92-3.16-.18-2.72-.62-2.76 2.56zm62.32-11.82c.74-.12 1.01-.8 1.21-1.47-.2-.66-.57-1.31-1.27-1.49l.06 2.96zM17.88 48.23l-.04.86 2.8-.29-.02-.8c-.84-.06-2.05-.09-2.74.22zm50.98-13.67 2.95.09-.04-2.91c-.91-.25-2.06-.25-2.91.05v2.77zm41.31 2.91c.9.23 1.44.16 2.1-.07l-.02-.9c-.77-.36-1.09-.36-1.95-.19l-.13 1.16zM109 57.3c.24-.4.27.61.31-1.68 0-.13.03-.82.02-.88-.12-.81-.14-.51-.33-.79-.5.31-.52-.46-.58 1.67-.03 1.15-.31 1.31.58 1.68zm1.7-.16.69.01c.18-.24.32.45.26-1.53-.02-.62-.03-1.05-.13-1.66-.97.13-.9 1.63-.82 3.18zM66.38 37.36c.13-.89.26-2.15-.25-2.79-.92.13-.82.46-.79 1.5.04 1.17.05 1.22 1.04 1.29zm50.04-23.92-.01 2.42 1.31-.37-.08-2.16-1.21.12zm-6.3 27.17c.43-.01 1.22-.15 1.57-.27.87-.32.61-.29.65-1.39l-2.2.21-.03 1.45zm-46.43 2.63c.66.38 1.49.22 2.44.21 2.75-.02 1.9.14 2.28-.43-.7-.39-2.96-.28-3.83-.22-1.48.1-.57.18-.9.44zM26.96 17.96c.81-.01 1.19-.06 1.75-.38l-.03-1.45-1.67-.09-.05 1.92zm62.63-3.21c.07.68-.39.53 1.2 1 2.45.73 2.48-.75.81-1-.91-.14-1.28-.44-2.01.01zm44.03 11.31c-.19.58-.42 1.06-.52 1.8 2.23-.65 1.83-3.34-.21-3.56.2.82.47 1.01.73 1.76zm-61.92.92c1.6-.03 3.91.27 5.09-.45-2.6-.22-4.54-1.14-5.09.45zm-1.81 16.4c.81.07 1.53.01 2.34-.01 1.29-.04 1.7.31 1.78-.8-2.81 0-4.22-.45-4.12.81zM58.3 57.15c.2.73.05.49 1.07.6.69.08 1.05.13 1.76.1l.63-.69c.79.02 1.07.05 1.45-.23-.95-.23-4.17-.25-4.9.22zM19.43 22.21c-.71 2.07.4 3.47 1.23 2.57.29-.31.64-2.75-1.23-2.57zm45.92 7.25c1.22.08 5.51.26 6.22-.14-.75-.73-2.46-.47-4.13-.47-.71 0-1.99-.08-2.09.61zM46.87 54.65c1.28-.51.96-1.19 2.08-1.74 1.45.63.86 1.71 2.1 1.82-.14-.43-.6-1.03-.87-1.63-.31-.69-.73-1.12-1.23-1.5l-.67.78c-.27.36-.43.43-.62.67l-.79 1.61zm31-20.33.04 1.91 1.72-.22.07-2.45c-.79.13-1.13.29-1.83.75zm-2.2-22.42c2.51.17 1.47.45 2.28.33.34-1.29-.18-1.92-2.31-2.36l.03 2.03zm16.1 31.98.03 2.76c2.03.2 1.53-.97 1.38-2.82-.66-.22-.77-.1-1.4.07zm21.29 13.31 2.14-.06.07-1.05c-.58-.71-1.39-1.13-2.22-1.37l.01 2.48zm10.41-35.69c.34.75.13.26 1.49.79l4.96 1.53c.42 0 .25-.06.41-.14-.7-.6-4.27-1.63-5.03-1.96-.82-.36-.78-.74-1.83-.21zm-89.3 34.34c.97-.38.83-1.42.79-2.6l-.38-3.27c-.79.25-.51-.64-.5 2.62 0 1.08-.03 2.17.09 3.25zm55.41-36.51c.9.36 2.1.36 3.01.14.11-.96-.15-1.04-.99-1.27-.88-.24-1.09-.46-2.02-.49v1.62zM127 33.15c1.92-.13 1.63-.73 1.52-2.52-.2-.19-.24-.26-.54-.47-.55-.39-.31-.28-.96-.46l-.01 3.45zm-5.18-17.38c.7.33 1.56.52 2.35.65l.15-1.45c-.64-.53-1.48-1.29-2.27-1.5l-.24 2.29zm-64.84 12.9v.65c.89.4 3.39.23 4.48.12l.07-.91c-1.28-.12-3.59-.36-4.55.14zm69.85 17.18.05 2.79c.65-.03 1.03-.3 1.64-.62l.16-2.94c-.97.16-1.26.22-1.86.77zM37.64 29.54c.79.48 2.24-.28 3.25-.43 1.38-.21 2.48-.1 3.86-.26l-.04-.96c-1.82.02-4.23.75-5.4.94-1.11.18-1.35-.22-1.67.71zm97.8 11.52c.8.42 1.22.41 2.21.41.15-.89.27-1.61-.07-2.44l-2-.15-.14 2.18zM95.96 53.02l.07 4.63c1.37-.11 1.16-.47 1.18-1.8.01-.97.13-1.99-.09-2.92l-1.15.09zm19.28-28.83 5.62-1.73c.85-.35 1.24-.24 1.04-1-.22-.14.46-.5-.85-.14-.19.05-.5.31-.88.46-1.37.52-4.33 1.03-4.93 2.41zm-18.93-4.34c1.48.03 2.92-.77 4.18-1.2l.01-1.45c-.6.12-1.75.55-2.33.87-1.23.68-1.66.37-1.86 1.78zM53.06 55.74l2.13.03.17-2.59-2.34-.06.03 2.62zm16.07-21.38 2.47.04-.07-2.56-2.45.06.05 2.45zm65.92-6.57c1 .4.86.41 1.97.42l-.01-4.05h-1.79c-.09 2.29 1.47.84-.17 3.62zM57.2 42.36l-.11 1.22 5-.18.02-1.18c-1.04-.26-3.98-.21-4.9.14zm18.34-22.92c1.21.44 1.18.54 2.59.56l.02-2.7-2.57-.18-.04 2.33zm-5.59 31.44h3.77v-1.65c-1.31-.29-2.27-.26-3.69-.14l-.08 1.79zM57.12 37c1.09.29 3.35.32 4.26-.08l.08-1.41-4.26.06-.08 1.42zm76.04 13.16c1.57.11 7.68.16 8.7-.41-.23-.9-.86-.58-1.98-.59-2-.02-6.04-.47-6.72 1zM57.87 31.92l-.04.65c.82.42 4.83.22 6.35.18.9-.02 1.28-.04 1.17-.95-1.14-.24-6.65-.31-7.48.12zm7.46 25.07c.84 1.03.89 1.08 2.53 1.05 1.32-.02 2.46-.01 3.5-.45 2.5-1.05 5.74.88 6.02-.82l-12.05.22zm-8.21-16.87 9.29-.19.02-.91c-1.18-.34-5.84-.02-7.71-.02-1.43 0-1.56-.27-1.59 1.12zm84.39-8.19-.97-.43c-3.57-1.73-3.55-.69-6.35-1.27-1.12-.23-1.41-.56-2.81-.5-.01 1.57 1.53 1.4 4.55 1.81.78.11 5.19.54 5.57.39zM9.32 42.8c.28.19-.31.28.84.19l6.79-1.51c1.43-.33 2.26-.65 3.48-1.06 1.19-.4 3.2-.05 3.15-1.45-1.07.23-2.24.72-3.38.99-.69.16-1.23.14-1.89.29-.49.11-1.12.42-1.76.61-1.89.56-3.59.61-5.63 1.18-2.03.57-1.26.06-1.61.76zm13.07 8.22 3.4-.02-.02-3.1-3.33-.09-.04 3.2zm79.35-5.01c.24-1.32.24-7.29-.17-8.16l-1.07-.09-.08 7.25c.1 1.01.24 1.08 1.33 1zM27.7 59.02l.78.03c.56-.84.29-5.78.32-7.55.02-1.29.32-1.91-.97-1.95-.47.71-.43 8.28-.12 9.47zm26.41-28.39c.11-2.03.5-1.37-3.21-2.2-1-.22-3.76-.72-4.69-.51-.33 1.78 1.67 1.47 3.25 1.96 1.09.34 3.36.85 4.64.75zm4.26 14.87-.03 1.13c1.75.2 4.31-.07 6.03-.13 4.38-.15 4.98.5 4.88-1.21-1.31-.28-9.17.05-10.88.21zM30.41 57.65l1.94-.66-.08-7.07c-.68-.32-1.07-.25-1.82-.21l-.03 7.94zm81.36-36.17c.38-1.45.26-.91-2.57-2.16-1.25-.55-5.88-2.23-7.11-2.09-.24 1.53 1.14 1.46 4.19 2.6 1.03.38 4.66 1.71 5.49 1.65zm-22.28 16.2c2.49.42 2.26.09 2.26-2.04 0-1.37.16-3.17-.05-4.48l-2.17-.1-.03 6.62zm9 20.37c1.82-.35.37-1.35 3.91-.52l.2-2.98c-1.37-.79-2.56-1.68-4.05-1.79l-.06 5.29zm-18.76-4.9 1.83.22v-8.11l-1.89-.02c-.23 1.23-.12 4.24-.15 5.83l.21 2.08zm-44.36-5.4-.17-9.71-2.19-.03c-.2 1.68-.01 4.34.03 6.1.09 4.2-.47 3.85 2.33 3.64zM20.05 32.48c.49-.34 2.94-1.41 3.56-1.56.28 1.27.4 3.61.09 4.73-.66.36-.79.32-1.73.43-.84.1-1.03.28-1.8.5l-.12-4.11zm-.69-1.2c-.13 1.27-.21 5.32.16 6.31.57.26 4.47-.36 5.18-.64.11-2.9-.09-4.93-.27-7.86-1.04.07-1.67.65-2.54 1.06l-2.53 1.13zm33.7 18.71-.04 1.48c2.31.19 10.35.16 12.31-.27v-1.74c-1.41-.29-11.41.07-12.28.53zm5.16 3.04-.1 2.53 10.82-.58c1.58-.07 2.03-.34 1.4-2.04l-12.12.1zM98.3 37.58l.34-1.5c1.98-.13 3.56-.16 4.72.86l.01 8.71c-.01 1.4-.15 1.65 1.09 1.98.32-1.27.63-11.25.53-13.05-1.33-.12-1.96.28-3.55.09-.76-.09-3.06-.35-3.64-.22l-.01 2.62c.31.9-.14.27.51.49zm45.62 10.1 1.68.26c.7 1.93-.64 3.15 1 3.42.75-1.22.37-9.63.18-11.61l-3.13.03c-.12 1.48-.16 6.7.27 7.9zm-38.58 10.93c.78-.26 1.06-.55 1.67-1.01-.02-1.54-.37-3.86.1-5.11 1.18-.53 3.27-.33 4.84-.38l.29-4.28-5.31 1.24c-.89.23-1.18.11-1.38.73-.12.37-.22 7.82-.22 8.8zM3.83 58.48c1.24.66 4.03-.13 5.24-.67.21-.8.14-1.75.04-2.6-1.22-.03-2.97.21-3.96-.16-.43-.88-.36-4.42-.08-5.63 1.64-.11 4.54.35 3.66-1.25-.36-.65-4.17-.39-5.02-.38-.1 1.79-.25 9.49.12 10.68zm92.4-36.28-.19 3.86c1.23.65 1.7.36 1.75 2.16.11 3.47-.8 3.86 1.14 4.39.42.11 1.07.14 1.32-.06.55-.9.21-10.06.32-12.05-.97.19-3.78 1.29-4.35 1.7zm-57.3 30.39c1.17-.07 2.76-.09 3.66.43.22 1.46.34 3.89-.06 5.13-.18.06.1.12-.53.05l-3.14-1.48.07-4.12zm.85 6.62c3.92-1 1.48-.75 4.67.69l.05-9.44c-1.33.03-2.09.34-3.64.22-1.21-.1-2.19-.47-3.47-.48-.2 1.7-.06 3.89-.08 5.66-.02 1.32-.22 1.65.62 2.27.4.3 1.34.89 1.84 1.08zm84.25-17.72-.22 13.32c1.12-.04 4.86-1.45 5.58-2l-.04-2.93c-1.12.23-2.77 1.41-4.28 1.18l-.17-6.65c.93-.4 1.53-.59 2.3-.99 2.34-1.2 2.07.2 2.25-3.73-1.4.17-4.33 1.1-5.42 1.8zm-.49-2.11c1.42-.17 4.9-1.2 6.01-2.07l.09-1.91c-1.12-.03-1.82.62-4.84.52l.14-8.44c1.61-.02 4.63 1.3 5.06 1.34l.07-3.38c-1.3-.42-4.7-1.33-6.11-1.36l-.41 15.3zM103.65 22.9c1.1-.01 3.75 1.34 4.47 1.82.11.99.06 3.63-.25 4.4-1.04.56-3.25.09-4.26-.33l.04-5.88zm-1.47 9.84c1.09.06 6.2-1.3 6.66-1.81.69-.76.37-2.89.4-4 .04-1.3.36-2.52.42-3.91-.77-.61-6.19-2.65-7.34-2.53l-.15 12.25zM82.35 37.3c-1.78.74-4.44 1.43-6.75 1.48-.04-.8-.12-1 .09-1.58.45-1.24 1.35-.9.12-2.83-.41-.64-.3-1.22-.12-2l6.08-1.58c1.04.2.66 1.45.43 1.8-.58.91-.7-.25-.69 1.51.01 1.89 1.11 1 .83 3.2zm-8.12-6.4c-.02 3.04-.13 5.64.08 8.63 1.52.13 3.12-.56 4.63-.63 6.15-.28 5.04.59 4.86-10.75l-9.57 2.75zm2.41 22.03 1.43.1.12-9.91 5.36-.41c.29 2.88-.5 8.84.08 11.05l1.02.04.1-13.92c-2.01-.18-4.98.51-6.78.87-1.24.25-1.35.04-1.34 1.36.02 2.94-.31 8.19.01 10.81zm39.19-22.21h3.25c.41 1.42.08 5.86.19 7.71.62.35 1.26.57 2.18.35l.44-14.71c-.91.22-1.45.5-2.38.8-4.22 1.34-3.21.28-3.69 5.85zm16.94 26.47c1.81-.06 2.73.32 4.04 1.84.93-.07.65-.46 2.4-.37 1.43.07 1.04.52 2.05.56l.05-7.23c-1.85-.38-6.41-.15-8.46-.09l-.09 5.29zM85.54 37.72c4 .79 1.34-2.79 2.7-7.98.75-.44 4.81-.25 5.11.01.75 1.16.23 5.94.32 7.7 2.74.75 2.22-.58 2.27-3.35.03-1.61.41-4.44-.21-5.7-1.37-.59-8.1-.79-10.06-.65-.16.98-.35 9.1-.12 9.96zM72.79 76.67c.23-1.07.05-2.73-.14-3.15-.72-1.54-2.83.17-4.45.52-1 .22-1.29.22-2.24.6-.6.24-1.44.66-2.19.73.26-2.03 1.93-14.42 1.59-15.31-.54-.4-1.89-.68-2.62-.6-1.01 1.41-.76 4.81-.79 6.83-.04 2.56-.23 5.05-.28 7.61-.09 4.28-.59 4.21 4.07 3.53 1.43-.21 6.37-.49 7.05-.75zm-21.92 1.11c1.2.79 7.61-.96 7.76-1.05.64-4.22-1.45-2.81-2.57-2.64-2.94.45-2.71 1.52-2.66-2.31l5.18.15c.92-1.45.55-1.49-.13-2.54-2.04-.18-3.25.42-4.89.5-.07-.7-.37-2.91-.09-3.61.24-.61-.59-.71 2.48.14 1.23.34 2.37.98 3.83.68.36-.72.69-2.02.01-2.56-.41-.32-5.19-.77-6.1-.83-1.55-.11-2.16-.32-2.27 1.26-.14 1.96-1.15 11.8-.56 12.81zm39.12-29.11c-.15-1.14-.06-2.32-.05-3.48.02-1.28-.2-2.69.38-3.21.62-.48 3.75-.49 4.78-.33.17.63.27 5.31.05 5.86-.25.6-1.39.51-2.29.7-1.21.26-1.45.46-2.88.46zm-2.34 4.48c2.12-.21 2.93-1.06 4.88-1.55 1.26-.32 4.29-1.11 5.14-1.63l.01-10.08-9.97.13-.06 13.13zm26.59-5.57c-.32 7.56-1.13 5.26 3.28 7.53.95.49.92.47 2.08.75 1.09.26.99.66 1.94.84.2-1.92.44-14 .24-15.64-.83-.51-1.49-.95-2.7-.8-.11 1.09-.13 4.99-.59 5.55-.58.7-3.4 1.21-4.24 1.77zm-97.9 14.18c-.34 1.95.44 9.52.63 12.57.13 2.04-.14 2.19.88 3.62.86 0 2.32-.45 2.99-.77.34-2.43-1.01-5.2-.89-7.21 1.77 0 3.8-.44 5.65-.69 2.6-.35 1.5-1.71.95-3.06-2.65-.04-4.7 1.3-7.26 1.45-.24-1.13-.77-3.2-.85-4.29 1.25-.09 6.01-.41 7.09-.68.97-.36.35-2.48-.29-2.8-1.01-.51-8.26 1.53-8.91 1.85zm92.33-23.53c0-3.75.08-3.63 2.03-3.61 2.25.02 3.16.29 3.16 2.52.06 1.81-.15 2.61-.38 4.5-2.06.03-2.6.73-4.7.63l-.11-4.05zm-2.49 9.09c1.43.1 3.72-.95 5.14-1.3.98-.24 1.67-.29 2.66-.6.85-.26 1.58-.48 2.47-.78l.56-11.63-8.95.42c-1.58.11-1.38.15-1.42 1.74-.09 3.82-.62 8.43-.47 12.15zM69.34 62.54c.68-.2 2.79-.81 3.39-.71l.32 2.94c-.57.34-3.04 1.43-4.02 1.54l.31-3.77zM65.6 72.67c3.51.99 2.97-1.88 3.17-3.93l4.8-.69c.8 3.06.2 8.78 1.49 9.72.76.55 2.13.26 2.91-.25.56-1.39-.07-3.3-.53-4.77-.62-1.93-.71-4.06-1.59-6.62-.69-1.99.13-2.58-1.83-6.69-1.46.14-3.37.66-4.56 1.09-2.16.78-2.07.5-2.39 3.11-.34 2.86-1.75 5.88-1.48 9.02zm-33.87-9.88c2.63-.46 3.1-1.69 3.41-.21.27 1.32.5 3.49.6 4.93l-4.52.93.51-5.65zm-1.4 14.09c.13-1.48.28-4.94.74-6.2 1.12-.11 3.96-.05 4.72.41.69.58.68 5.09 1.4 7.11 4.13.27 3.62-.68 2.44-5.69l-2.45-10.62c-.3-1.36-.05-3-3.84-1.6-2.07.76-3.44.49-3.93 2.62-.4 1.73-.43 4.15-.88 5.62-.63 2.07-.77 3.29-1.03 5.54-.34 2.89-1.29 3.23 2.84 2.82zM133.9 37.25c1.46-.21 4.72.24 5.63.84l-.01 5.2c-1.59.52-5.17-.45-5.29-.53-.88-.67-.56-4.32-.33-5.51zm-2.46 10.44 10.32.02c.29-1.15.24-12.24-.02-13.56-2.79-.68-7.47-1.29-10.22-1.24l-.08 14.78zm-103.83-.33c1.46 0 1.98.18 3.08-.19.3-1.17.12-7.11.17-8.95.08-2.73-.29-2.01 2.28-2.31 1.23-.14 3.01-.49 4.14-.44.29 3.57-.41 8.87.31 12.1l3.34 1.02-.17-17.49c-.63.02-11.19 3.46-12.51 4.09-1.35.65-.78 1.3-.71 4.55.05 2.39-.17 5.31.07 7.62zm17.17 24.68c-.34-1.14-.22-2.52-.63-3.8-1.5-4.65-.29-9.58-5.23-5.71-.06 1.42 2.34 6.58 2.78 8.31.33 1.28.96 2.68 1.43 4.03.46 1.33.68 3.32 2.31 3.29.54-.23 2.44-6.26 2.95-7.61.28-.73.25-1.28.54-2.07.23-.63.55-1.18.81-1.84.6-1.48.44-2.61 1.4-4.01 5.9-.22 9.51 2.37 9.29-1.38-.07-1.24-.12-1.3-1.28-1.3l-10.62.04c-1.27 2.04-.93 3.3-1.82 6.03-.62 1.92-.62 4.88-1.92 6zm1.65-28.93-.09-8.46c2.1-.38 5.46-.82 7.44-.44.42 2.09.24 5.61.26 7.85-1.05.44-6.51 1.37-7.61 1.05zm-3.47 5.3c2.48-.05 10.83-.94 12.47-1.92l.12-13.57c-2.55-.32-6.33-1.36-9.15-1.93-1.04-.21-2.56-.24-3.64-.29l.19 17.7z" style="fill:#fff"/><path d="M6.73 65.18c.15-2.2 1.08-3.23 3.4-2.96.66 1.38.93 3.96.41 5.44l-3.97.75.16-3.23zM6.3 75.83c.04-2.06-.18-2.9.24-5.06 1.09 0 3.17-.13 4.16.25l.86.54.81 6.6c5.01.38 3.14-.95 3.05-2.11.32-.16.02-.05.31-.04.66 0-.05.16.22.04V74.5c-1.22-1.2-1.54-4.97-2.15-7.06-.4-1.39-.42-2.3-.87-3.69-.29-.9-.73-2.88-.88-3.82-1.34-1.13-3.84.54-4.88.87-.61.19-1.39.19-2.01.39-.49 1.94-1.31 5.71-1.48 7.71-.15 1.74-1.76 6.68-1.12 7.82.05.03.13.01.16.07.06.14 1.27.19 1.38.19.64 0 1.31-.02 1.95-.06l.23-1.08z" style="fill:#247925"/></svg>