<svg xmlns="http://www.w3.org/2000/svg" xml:space="preserve" width="96" height="72" style="shape-rendering:geometricPrecision;text-rendering:geometricPrecision;image-rendering:optimizeQuality;fill-rule:evenodd;clip-rule:evenodd" viewBox="0 0 47.53 35.65"><defs><style>.fil3{fill:#fefefe}.fil1{fill:red}.fil2{fill:#ff0}</style></defs><g id="Camada_x0020_1"><g id="_2485664857808"><path d="M.54 13.55c.82 1.75.07 1.76.86 3.27.53 1 .15 1.88.11 2.24-.1.76.05.58-.2 1.22-.73 1.89-1.37 4.75.31 6.36.75.72.25.47.66 1.05 1.15 1.5 1.21 1.16.31 1.49-1.81.67-1.26 2.76.43 2.79-.05.66-.59.72-.37 1.61.31 1.24.93 1.01 1.76 1.3.32.11.24.21.54.41.97.62 2.28.29 3.3.15.38-.05.37.05.71.13.78.19 2.02-.13 2.68-.04.79.11 1 0 1.67-.02.68-.02 1.76.27 3.59.02.58-.08.98.17 1.77.04 1.1-.18 2.27.24 3.44-.15.74-.24.54.18 1.38.2h3.57c1.35 0 2.09-.5 3.43-.29.85.13 1.09.03 1.77-.03 1.49-.13 7.55-.01 9.36-.01 2.56 0 3.81.79 4.61-1.97.7-2.44 2.77-5.88-.43-5.88.08-.37 1.35-2.55.69-4.62-.7-2.21-2.12-1.89-3.24-1.79.7-2.13 1.67-4.45 2.18-6.59.42-1.77 0-1.25-.25-2.26.5-.13 1.37-.78 1.31-1.42-.08-.79-1.08-.68-1.92-.68.28-.45.88-.83.64-1.45-.17-.44-.08.08-.23-.43.52-.3 1.59-.82 1.19-1.73-.44-1.01-4.57-.09-5.66-.16-.3-.02-.34-.14-.68-.25-.83-.26-.96.11-1.51.22l-1.55-.21c-.44-.12-.63-.61-1.38-.11-.32.22-.72.59-1.09.69-.41-.3-.29-.43-.97-.6-.6-.15-.81.06-1.23 0-.7-.09-.4-.23-1.15-.06-.57.12-.68.16-1.25.02-1.06-.27-1.69.24-2.38-.06-1.23-.54-1.06.3-1.78.82-.48-.14-.8-.55-1.48-.72-1.12-.27-2.16.59-3.61.16-.88-.26-1.12.14-1.66.05-.84-.15-.98-.25-1.88-.02-2.71.71-2.99 2.68-3.49 2.96-.24-1.11-.82-1.37-.49-2.74.09-.61.11-1.1-.54-1.34-1.15-.43-1.91.15-2.13.22-.57-.93-1.56-1.65-2.31-2.47C5.71.41 6.14 1.6 5.11.97 4.64.68 4.58-.2 3.03.04c-.81.13-.85.78-1.31 1.9-.2.47-.01.81-.33 2.08L.98 6c-.03.7.03.9-.18 1.47-.71 1.96-1.27 4.15-.27 6.08z" style="fill:#000"/><path class="fil1" d="M14.73 10.42c0-.55.48-1.18.79-1.47 1.41-1.33 2.28-.38 2.98-.74-.39 1.82-.58 1.8-.2 3.54-.73-.53-.49 0-1.63 0-.78 0-1.94-.16-1.94-1.33zm10.69.22c-.08-.39-.21-.52-.35-.95-.13-.4-.2-.68-.33-1.08-.12-.39-.18-.72-.31-1.1-.29-.86-1.38-.87-1.77-.07-.35-.2-.58-.33-1.12-.33.11.5.91 1.87.31 3.32-.24.56-.67 1.88-1.53 1.88-1.36 0-1.33-3.09-.18-4.28.29-.29.37-.25.38-.8-.53-.15-.02-.22-.71-.22-.32 0-.6.53-1.12.66-.13-1.66-2.89.09-3.28.42-1.79 1.57-1.6 4.77.63 4.77.65 0 2.04-.07 2.24-.88.32.09.54.38.82.55 1.5.94 2.72-.26 2.95-.33v.55c.65-.16.9-.64 1.09-1.36l.54-2.06h.41l1.25 2.95c.47 1.08 1.37.79 1.4-.07.06-1.6.4-2.28.4-3.99 1.56-.04 1.53-.81.92 3.09-.04.26-.2 1.26-.14 1.41.2.42.67-.3.77-.5.52-1.06.89-3.51 1.05-3.84.19-.41.64-.38 1.07-.49.23.62-.41 3.37-.41 4.64.4-.04.27-.1.71-.11.04.51-.11.19.2.44.88-.5 1.06-1.35 1.31-2.66.1-.54.06-.74.52-.87.83.66 1.46 4.81 2.7 3.37.17-.2.15-.37.26-.6.65.16.94.99 2.14.99.62 0 .92-.33 1.32-.33.35 0 .19.26.61.28l2.23-.74c1.04-.33 2.55-.45 2.76-1.31-2.1 0-3.87.92-3.87.33 0-1.73 1.98-.8 2.85-2.21-.85-.22-2.24.38-2.24-.33 0-.93.78-.86 1.46-.96.92-.14 1.18-.12 1.6-.81-.49-.12-2.91-.06-3.51.05-.64.12-.52.1-.76.61l-.68-.25h-.13l-.12.13v.14c.01 1.19.15 1.67-.28 2.85-1.01 2.76-3.26 2.67-1.95-1.57.22-.7.42-.93.42-1.86-1.08-.27-1.02-.01-1.37.05-.26.05-.27-.03-.57-.05-.07.32-.2.58-.29.91-.1.4-.15.55-.26.93-.28 1.01-.11 1.64-.78 1.7l-.65-1.84c-.23-.77-.3-1.32-.67-1.92-.44 0-1 .03-1.42-.01-.49-.05-.87-.29-1.02.34-.53-.38-1.56-.48-2.02-.43-.36.04-2.02.09-2.23.24-.55.4-.07.86-.2 1.33-.01.02-.02.05-.03.07-.58 1.58-.36 2.15-1.02 2.21z"/><path class="fil2" d="m3.77 2.64.1.1c.32.24.37.47.58.83.01.01.08.12.13.2l1.47 2.38c.41.61.5.51.92.99.48.54.4.57.45 1.38.03.47.22.4.43 1.2.09.34.1.48.16.82.08.44.08.34.24.74.32.77-.26 1.62-.26.88 0-.19.05-.31.05-.52 0-.5-.03-.47-.26-.74-.32-.38-.47-.86-.49-1.46-.58-.02-.56-.37-.97-.66.29-.34.25-.25.36-.72-.72.19.07.28-.56.22C6 8.05 5.88 8.1 5.64 8c-.02-.01-.11-.03-.13-.06.84-1.17.11-1.82-.61-2.77-.21-.27-.37-.83-.61-1.04-.02.52-.02.37-.31.61-.23-.23-.63-.84-.66-1.16.46.27.03.26.61.11l-.1-.66c-.44.32-.21.18-.36.14l-.12-.07c-.26-.19-.1-.35-.44-.73-.33.29-.15.26-.08.6l.28 1.66c-.29-.2-.16-.35-.61-.39-.17.38-.31 1.62-.31 2.21.19-.1.3-.13.56-.28l.46-1.41c.5.45.7.06 1.27.19-.21.5-.22-.28-.25.5.04 1.1.74 2.41 1.25 3.06l1.09 2.14c.07.42.37 1.09.1 1.49-.21-.32 0-.03-.09-.29l-.06-.15c-.01-.02-.18-.07-.24-.61 0-.04-.01-.46-.01-.56h-.2c.02.2.09.38 0 .55-.29-.12-.33-.32-.71-.44.81-1.32-.08-1.18-.09-1.18-.24-.08-.09-.2-.16-.54-.05-.26-.45-.97-.56-1.27-.5-1.42-.78-1.54-.84-1.72-.1-.35.2-.32-.4-.47l.12.66c-.04-.01-.07-.06-.08-.04l-.39-.07c.11.62.26 1.62.42 2.14l1.61 5.92c0 2.65.04 1.87 1.08 3.75.48.86 1.23 2.65 2.03 2.88.05-.63 0-.18.22-.53l1.03-2.51c.01-.02.01-.05.02-.07l.22-.56c.32-.64-.08.05.11-.58.1-.32.41-.48.12-1.13-.26-.6-.4-.12-.39-1.25.01-.75-.16-.98.09-1.57.19-.46.04-.37.42-.64l-.41-.77c-.19-.23-.23-.52-.31-.89-.14.16-.17.5-.31.64-.35-.45-.23-.94 0-1.41-.41-.3-.57-1.03-.71-1.66l-.51.02c.08-.36 0-.27.3-.36l-.51-.11c.25-1.14-.24.26-.2-.88-.39.12-.27.18-.61 0 .08-.4.27-.42.51-.55.22.12.34.22.51.39-.08-.41-.38-.8-.71-1.05.1.45.15.69-.36.72.11-.65-.01-1.82-.77-1.97-.73-.15-.14.18-.78-.45-.35-.34.14.16-.3-.18-.24-.19.01.11-.12-.22l-.42-.88h-.41l-.06.4zm6.17 4.23v.35c.44.04.18-.02.51.22l.08-.56-.59-.01zm.71.79c.37.21.48.4.92.44-.18-.8-.24-.1-.06-1.04.12-.59-.11-.2.02-.77l.09-.23c-.78-.09-.82.86-.97 1.6zm-1.12 2.65.14-.52c.01-.03.02-.07.03-.09.01-.02.02-.06.03-.09l.32.44c-.04-.45.23-.8.15-1.36-.05-.35-.36-.87-.52-1.32-.19.1-.42.09-.55 0-.22-.15.01-.19-.42-.38.02.7.2 1.18.45 1.62.55.95.09.4.37 1.7zm.59.22c.23.61.18.85.53 1.27 0-.27.05-.4.06-.55.06-.63-.06-.87-.16-1.28l-.36.51c-.01.01-.05.03-.07.05zm-.01 2.37c-.2-.08-.22-.02-.37.06-.07.64.01 1.29.31 1.77.54-.39.11-.19.05-1.27.3.08.07.13.46.28v-1.11l-.42-.23c-.02-.01-.05-.04-.07-.05-.02-.01-.05-.04-.07-.05l.11.61zm1.31.94c.09-.02.07-.4.29.04.18.35-.2 1.25.49 2.25.44.64.44.17.6 1.23.09.57.28 1.11.6 1.34-.02-1-.52-1.83-.81-2.43.16-.44.05-.01.28-.44-.11-.24-.31-.68-.39-.88-.15-.42-.04-.61-.18-1.13-.12-.48-.26-.52-.34-.98-.07-.41 0-.86-.19-1.16-.22.33-.05.31-.05.53 0 .61.04-.01-.13.52-.14.44.15.69-.18 1.1zm.97-1.88c.02.5-.09.6.04.95.17.46.16.46.27.93.17.71.33.34.59 1.13.12.36-.17.17.22.43 0-.59-.07-.65-.15-1.15l-.25-1.22c.32-.06.18.14.27-.19 0-.01.01-.05.01-.06l.05-.21c.1-.65-.64-1.07-.95-1.15.06.23.11.26.08.4l-.09.11c-.01.01-.04.02-.05.02-.01 0-.04.01-.05.02zm.2-1.44c-.1-.31-.28-.25-.1-.66-.93-.08-.43-.38-1.02-.55.16.64.45 1.05 1.12 1.22zm-1.32 5.42-.11.04c-.49.33-.03.57-.15 1.17-.2.11-.4-.09-.46-.11-.03.65-.13.44-.27.93l-.04.18c-.11.44-.01.14-.17.47l-.44.9c-.12.3.13.08-.24.67-.33.53-.08.35-.37.82l.45.12c-.01.01-.04.04-.06.05l-.2.14c-.19.13.04-.08-.19.13l1.28-.13c-.02-.01-.06-.01-.07.04-.01.05-.05.06-.06.07l-.28.3c.17.03.29.11.13.32l-.33.16c-.01 0-.04 0-.05.01.23.37.31.45.69.68.5.32.32.38.63.75l1.45-1.85c.79-.85-.18-.43 1.23-1.31.25-.15.25-.19.45-.38l-1.02-.86c-.31-.11-.54-.03-.66-.08-.17-.07-.34-.36-.53-.5l-.51.33c.04.5.25.82.15 1.22-.35-.13-.07.12-.76-1 .42-.69.17-.45.41-1.27.66-.36.51.02 1.02.17 0-1.31-.7-1.59-.81-3.1h-.2c-.13.59-.06.28.1.88zm.1-1.11.05-.5c-.28.25-.43.19-.05.5zM8.01 6.65c-.08-.36.01-.17-.25-.33.14.37 0 .2.25.33zm1.02-.66c-.04-.46-.03-.41-.46-.44.01.01.17.19.23.24.13.13.1.1.23.2zM3.5 1.79c.26.31.02.21.53.22-.03-.09 0-.22-.15-.3-.18-.1.11-.04-.15-.04-.52.01-.06-.01-.23.12zM4.7 14c-.12-.34-.14-.24-.15-.72-.16.11-.26.01-.18.4.07.37.13.3.33.32zM5.87 2.78c-.16-.31-.26-.44-.61-.44.11.43.14.43.61.44zM4.04 12.95l.37-.14c.03-.39-.01-.44-.26-.63-.03.43-.09.29-.1.77zm4.33-7.02c-.16.12-.22-.07.01.42.19.39.15.32.5.4-.14-.3-.14-.22-.25-.45-.24-.47-.01-.33-.26-.38zM3.68 2.67c-.19-.4-.46-.78-.46-1.38h-.1c0 1.15-.07 1.33.56 1.38zm1.99.44c.42.85.81.76.81.44 0-.26-.1-.39-.31-.69-.23.15-.24.13-.51.25zm2.29 2.71.61-.39c-.6-.06-.16.07-.42-.16-.47-.42-.3-1.35-1.67-1.39l1.48 1.93zm-4.43 7.35c.43-.28.1-.25.1-.44 0-.1.04-.41.04-.43-.06-.29-.04-.04-.24-.34.16-.26.12-.12.2-.44-.02-.02-.05-.06-.06-.04-.04.1-.44-.57-.35-1.3.14-1.16.11-.47-.09-1.41-.33.1-.11-.3-.27 1.02-.31 2.55.68 1.4.68 3.4zm2.8 7.79c-.4-.28-.3.16-1.12.17.02-.02.06-.08.07-.06.01.02.05-.04.06-.05.25-.23.25-.14.33-.44-.82-.09.21-.27-.87-.06.18-.4.09-.1.36-.5-.53-.05-.18.11-.31-.22.3-.09.25-.02.41-.33-.14.08-.05.1-.23.09-.02 0-.06 0-.08-.01l-.16-.08c-.02-.01-.06-.03-.08-.06.8-.31.77-.9.76-1.82-.45.37.04.3-.51.61-.16-.45-.04-.17-.02-.31.03-.13.06-.16.12-.3l-.51-.66-.66.14c.21-.6.33-.16.66-.69-1.28.33-.24-.17-.68-.68l-.25-.36a.45.45 0 0 1-.03-.11c-.02-.21-.03-.06.05-.39l-.46-.06c-.02 0-.05-.01-.07-.01l-.13-.03c.13-.15.34-.35.46-.55-.4.12-.11.12-.56.22.28-.6-.01-1.03-.1-1.4-.05-.21-.05-.38-.11-.64-.14.39-.08.24-.31.39-.1-.22-.22-.42-.29-.62l-.14-.78c.28-.3.1-.17.38-.26-.12-.1.11-.07-.31-.11.04-.51.16-.59.16-1.17 0-.24-.01-.4-.03-.58-.03-.27-.03-.16-.04-.26l.01-.25c.77-.4 1.06-1.37.61-2.27-.19.12-.19.13-.31.33-.68 1.11-1.08 2.67-1.27 4.03-.15 1.06-.06.95.24 1.63.19.43.56 1.22.61 1.65.13.92.16.37.23 1.3.11 1.39.55.38.61 2.33.02.72.43 1.81.79 2.24.24.29.49.44.71.78.22.34.35.64.64.86.22.16.7.39 1.07.28.58-.17.1-.39.3-.89z"/><path class="fil3" d="M21.05 33.74c-.71 0-.09-1.29.25-2.27.29-.85.45-2.26 1.18-2.26.6 0-.04 1.64-.28 2.35-.41 1.24-.49 2.18-1.15 2.18zm3.87-.18c.15-.4.33-.94.47-1.41l1.27-3.94h-1.33c-.04.47-.32 1.18-.47 1.7l-1.03 3.2c-.16.45-.43 1.09-.44 1.63h2.24c0-1.56-.03-.92-.71-1.18zm8.35-4.35c.08-.38.21-.57.29-1h-2.74c-.12.26-.24.68-.31 1 .35 0 .61-.07.61.33 0 .64-1.45 4.13-1.53 5.2h1.12l.88-2.69c.18-.53.28-.95.44-1.4.14-.37.27-1.01.41-1.33.36-.09.33-.11.81-.11zM9.34 30.32c.36 0 .4-.49.55-.85.56-1.35.32-1.37-1.16-1.37-1.47 0-2.14 1.17-2.14 2.32 0 1.12.74 1.11 1.06 1.73.21.4.2 1.58-.65 1.58-.57 0-.05-1.09 0-1.33H5.88c-.2.66-.45 1.25-.51 1.99.55.4.43.34 1.32.34 2.06 0 1.51-.1 1.95-1.43.72-2.18.39-1.29-.6-2.7-.68-.96.79-1.96.79-1.07 0 .66-.46.77.51.77zm23.63 2.54c0-.41.13-.74.26-1.05.08-.19.13-.25.2-.43.08-.2.09-.28.18-.47l.53-1.31c.01-.02.02-.05.03-.07.17-.31 0-.21.33-.3l-.45 1.94c-.42 1.83-.27 1.7-1.08 1.7zm1.02 1.88c.56 0 1.01-2.48 1.09-3.01.19-1.22.43-2.22.57-3.51h-1.77c-.52 1.06-.98 2.11-1.48 3.26-.24.55-.49 1.08-.73 1.63-.2.45-.61 1.15-.64 1.64h1.02c.07-.33.25-.88.61-.88 1.68 0-.31.88 1.32.88zm-5.91 0c.66 0 .93-.65 1.16-1.18l1.16-3.62c.28-.94-.38-.34.23-1.72h-.92c-.01.5-.65 2.25-.85 2.94-.14.49-.63 2.59-1.18 2.59-.68 0-.42-.62-.03-1.69.24-.65 1.11-3.25 1.15-3.84h-1.12c-.16.33-1.83 5.45-1.83 5.75 0 .98.26.77 2.24.77zm-18.03-1.11c.04-.56.53-1.92.71-2.43.2-.55.43-1.99 1.02-1.99.6 0 .39.5.19 1.09-.13.39-.27.76-.41 1.22-.11.38-.28.89-.38 1.25-.33 1.19-.49 1.03-1.14.86zm.92 1.11c.69 0 .9-.5 1.08-1.15.19-.69.36-1.13.54-1.74.35-1.15.77-2.21 1.03-3.41-.67-.48-2.17-.51-2.87-.02-.5.35-.66 1.14-.87 1.71-.14.36-.22.64-.32.98-1.11 3.81-1.72 3.64 1.41 3.64zM40 33.63c-.48 0-.14-.49.23-1.63.06-.19.12-.45.16-.6.59-2.1.61-2.3 1.44-2.09 0 .7-.37 1.78-.58 2.35-.5 1.38-.34 1.96-1.25 1.96zm-1.83 1.11c1.28 0 3.06.36 3.44-.69l.98-3.25c.85-2.62 1.14-2.6-.65-2.59h-1.73l-1.59 4.9c-.17.58-.32 1.05-.44 1.62zm5.09-1.11c0-.76.46-1.76.68-2.47.37-1.18.37-1.95 1.16-1.95.45 0 0 1.24-.09 1.56-.08.28-.12.32-.21.55-.08.22-.1.32-.17.59-.39 1.41-.5 2.11-1.36 1.73zm-1.43.89c.5.26 1.74.38 2.53.2.99-.22 1.67-3.52 2.23-5.1.19-.54.13-.61.13-1.29-.73-.18-1.46-.4-2.43-.09-.42.13-.55.25-.79.69-.15.27-.35.7-.44.97l-.36 1.16c-.28.99-.88 2.47-.88 3.47zm-24.44-6.3h-1.02l-.85 2.84c-.05.17-.1.37-.17.48-.55.88.11-1.95.11-3.32h-1.53l-1.54 4.96c-.14.46-.39 1.04-.5 1.56h1.02l1.08-3.47c.13-.28-.01-.17.25-.28.09.35-.31 2.83-.31 3.76h1.43l2.04-6.52zm20.27 6.52c.44 0 1.12-2.63 1.28-3.15l1.07-3.38h-1.02l-1.22 3.43c0-1.12.31-2.33.31-3.43h-1.53c-.16.75-.88 2.65-1.16 3.71-.82 3.08-1.36 2.81.15 2.81l.76-2.38c.04-.14.08-.29.12-.42.11-.37.21-.56.24-.95h.24c-.14 1.25-.34 2.5-.34 3.75h1.12zM20.45 30.1c.02-.78.46-1.18.51-1.88h-1.22c-.1.46-.31.93-.45 1.4-.51 1.72-.42 1.21-1.18 1.15.02-.99.61-1.53.61-2.54-1.3 0-1.11-.13-1.39.81l-.9 2.89c-.99 3.24-1.35 2.82.35 2.82.11-.52.3-1.06.48-1.58.15-.47.22-1.29.64-1.29 1.36 0-.07 1.38-.21 2.87h1.23c.03-.4.95-3.42 1.22-3.76l-.64 2.29c-.65 1.83.48 1.51 1.97 1.48 1.32-.03 1.48-1.73 2.12-3.67.56-1.68 1.2-2.97-.29-2.97-2.02 0-2.14.19-2.71 1.7l-.1.22c0-.02-.02.05-.04.07zM30.93 13.63c-.21 0-.25-.09-.37-.18-.08.37-.19.66-.31.99-.13.35-.17.61-.3 1-.22.73-.44 1.33-.66 2.04-.24.8-1.2 3.43-1.21 4.1 1.18-.3.53-.11 1.53-.11l1.15-3.72c.27-.92.2-1.03.58-1.14l-.27 2.14c-.22 1.85-.24 1.59-.24 3.28 1.68 0 1.61.15 2.18-1.73l1.4-4.45c.12-.36.21-.75.36-1.16.15-.43.3-.71.34-1.17-.69-.01-.57-.2-1.02-.33-.13.61-.43 1.46-.64 2.07-.2.57-.57 1.65-.58 2.24h-.2c0-2.3 1.2-6.1-.38-4.73-.39.34-.66.86-1.35.86zm-4.79 5.64c.05-.71 1.13-3.09 1.5-4.01.33-.82.25-1.03.64-1.18-.01.55-.18.88-.29 1.33-.13.5-.22.87-.31 1.33-.17.89-.44 1.72-.62 2.53h-.92zm1.53-5.53c-.32 0-.42-.05-.51-.33-.27.22-.7 1.39-.88 1.81l-2.58 5.71c.92 0 .78.14 1.43.35.38-.57.22-.57 1.22-.57.53 0 .3.37.41.66.53-.15.19-.13 1.12.02.08-.4.2-.63.28-.93l.85-2.72c.28-.91.9-3.15.9-4.1 0-.51.01.06-.09-.23-.18-.56-.05-.87-.32-.87-.72 0-1.05 1.22-1.83 1.22zm7.44 6.63c.05-.65.54-1.82.75-2.5.09-.3.11-.47.21-.77.18-.52.33-1 .51-1.55.14-.43.28-1.37.67-1.37 1.04 0 .98.2.38 1.85-.44 1.2-1 3.53-1.49 4.34h-1.02zm.2-6.85c-.03.44-.42 1.59-.58 2.02-.14.38-.18.61-.31.99-.11.35-.22.66-.32.98l-.93 2.97c-.12.33-.24.67-.31 1.11.97-.09 1.33-.55 3.36-.55.74 0 .1.33 1.22.33 0-.5.05-.84.18-1.25l1.47-4.6c.39-1.34.95-1.95.2-2.01-.73-.07-.77.33-2.1-.04-.99-.28-.45-.42-1.32-.11-.22.08-.37.12-.56.16zm-18.54 6.85c0-1.01 1.04-3.7 1.44-5.07.15-.53.25-1.12.9-1.12.81 0 .43.58.16 1.61-.17.62-.37 1.15-.56 1.71-.86 2.55-.6 3.21-1.94 2.87zm-2.14.77c.53 0 .54-.07.94-.03.39.04.71.02 1.1.03 2.56.03 1.77 1.49 2.73-1.67.2-.65.44-1.35.68-2.02l.96-3.05c.1-.37.22-.73.3-1.11-.69.06-.84.26-1.54.13-.63-.11-.91-.42-1.5-.35-1.64.2-1.57.9-2.35 3.44L15 19.46c-.15.45-.38 1.02-.39 1.68zm8.15-4.64c-.37 0-.27-.19-.18-.5.07-.24.14-.42.22-.67.14-.4.24-1.58 1.31-1.04.16.48-.3 2.21-.85 2.21h-.51zm-1.32-2.8-.6 1.93c-.19.63-.35 1.3-.59 1.9-.22.57-.39 1.29-.58 1.91-.18.61-.48 1.26-.57 1.92.49 0 1.09.03 1.48-.06.49-.11.27.19.68-1.02.14-.42.26-.85.39-1.24.14-.43.17-.99.71-.99 1.23 0-.13 2.24-.2 3.21 1.45 0 1.29-.31 2.42-2.8.34-.75.17-.63-.17-1.18 1.38-.79 1.23-1.28 1.64-2.53.11-.34.27-.77.29-1.23-1.34 0-1.09-.12-1.63-.99-.51.03-1.72.67-2.39.94-.37.15-.58.12-.87.24zm18.84 6.78c-.31 0-.41-.11-.61-.22.22-1.03.7-2.26 1-3.22.63-2.04.59-2.85 1.65-2.85.68 0 .08 1.11-.14 1.84-.19.6-.32 1.03-.51 1.65-.42 1.33-.66 2.81-1.38 2.81zm-2.65.89c.93 0 1.03-.1 1.52-.11h3.06c.84-1.72 1.39-3.84 2.02-5.76.07-.22.07-.28.14-.51.13-.43 1.03-2.46-.53-2.46-.68 0-2.12.57-2.81.81-1.3.46-1.11.13-1.71 2.02l-.89 2.9c-.28.81-.8 2.3-.8 3.11z"/><path class="fil2" d="M20.13 23.02c1.01-.44 2.64-.04 3.11-1.16-.4-.29-3.19-.12-3.81-.05-.61.07-.5.43-.82.6-.04-.6-.43-.67-1.22-.72-.33-.02-.6-.03-.93-.02-.91.01-1.48-.22-2.36.35-.43.27-.24.6-.08 1.01.46-.01.32-.09.68.05.05.57.05 1.16-.22 1.67l-.66-.23c.1 1.04.45.78.58 1.32.09.37-.17 1.01-.17 1.83.7 0 .86.05 1.12-1.1.16-.73.36-.52 1.12-.56.39-.02 1.1-.17 1.44-.31.49-.19.51-.66.44-1.18-.51-.01-.72.5-2.6.5 0-.13.22-2.21.71-2.21.65 0 1.36.04 1.94.33.38-.19-.04.08.18-.14l.17-.24c-.02 1.02-.17 1.86-.3 2.77-.05.32-.1.96-.18 1.24-.24.86-.45-.05-.48.91.64 0 1.5.11 2.07-.07 1.81-.57 2.61-.53 2.56-1.55-1.44-.16-2.82.83-3.05.37-.05-.11.07-.69.18-.91.36-.69 1.96-.28 2.86-1.56-.75-.08-1.67.02-2.43.06l.14-.99zm3.67 3.21c.07-.86 1.02-2.48 1.02-3.87 0-.71-.06-.49-.31-.88-1.68-.03-.68-.04-1.46 3.05-.15.58-.34 1.26-.46 1.83-.18.86-1.06 1.31-.22 1.31 1.7 0 1.59.17 3.06-.66-.03-.37-.14-.76-.25-1.05-.71.09-.61.28-1.37.28zm5.02-4.12c.01.02.04.04.05.05.63.62.28.16.34.47.23 1.12.53 1.47-.17 3.2-.99 2.47-2.4 1.33-2.4.06 0-2.38.59-2.34 1.32-3.54-.42-.85-1-.65-1.56-.03-1.04 1.15-1.78 4.11-.15 5.2.55.37 1.44.19 2.22.15.72-.04 1.12-.71 1.43-1.21.7-1.11 1.18-3.21.08-4.2-.41-.37-.61-.34-1.32-.34l.13.19zm4.71 1.19c.78-.93 3.11.04 3.11-1.27 0-1.07-2.34-.29-3.04-.08-.69.2-1.44.64-1.44 1.52 0 .86.85 1.17 1.85 1.53 1.08.39 1.81.42 2 1.13-.24.38-.29.39-.75.5-1.4.34-2.63.41-3.05-1.16-.23.14-.28.14-.39.52-.22.77.33 1.36.55 1.7h3.21c.05-.95.32-.14.53-1.03.04-.17.23-1.3.23-1.4 0-1.2-1.69-1.27-2.8-1.93zm10.95-1.27c.43 2.15-.19 5.25-2.04 5.42-.75-.89-.36-2.63-.02-3.66.26-.77.92-1.97-.19-1.97-.74 0-.66-.04-.85.62-.29.98-1.43 3.77 0 5.06.22.2 2.31.62 3.14.13.73-.43 1.93-3.41.84-5.24-.4-.67-.32-.21-.9-.34zm-6.47 1.93c-.26-2.12 2.33-.29 3.41-2.27-1.01 0-3.96-.03-4.53.39l-.61 4.64c-.2.68-.66.24-.44.95.35.47 4.26-.73 4.86-.88-.1-.42-.01-.58-.31-.77-1.05-.32-3.76 1.61-2.84-.43.3-.67 2.59-.59 2.84-1.7-.71.06-1.69.2-2.39.08z"/><path class="fil1" d="M4.75 29.88c0-.32.55-1-.2-1.22-.19.15-.25.22-.33.53-.12.47.02.19.02.69 0 .96-1.12-.08-1.58.38-.36.35.03-.09-.02.31-.1.74 1.4-.11 1.4.64 0 2-.55 1.64-.1 2.65.79-.23.51-1.02.51-1.22 0-2.66.87-1.25 1.53-1.55-.06-.26-.1-.33-.1-.66-.5-.12-.22.07-.71-.01-.37-.06-.41-.2-.41-.55zm-1.53-4.2c.3.71-.7.58.81.44-.1-.31-.21-.16-.08-.44.2-.39.04-.12-.02-.22-1.07 0-1.22-.03-1.93-.44l.01-.65c.04-.2.04-.13.09-.23l.44-1.73c.05-.46-.1-.26-.14-.82-.4.21-.38.52-.46 1.05-.27 1.82-.51 1.82.38 2.91.16.2.2.32.38.49.26-.16.12-.27.51-.35zm7.54.77c.44-.19.15-.54.61-.33v-.77h.31c.2.92.98 1.35 1.94 1.44.03-.45.1-.25.1-.66 0-.15-1.01-1.33-.44-2.14.28-.4.03-.17.34-.29-.18-.74-.41-.2-.41-1.33 0-1.04.69-.4.71-1.44-.87.25-2.48 2.72-2.81 3.58-.3.78-.35.88-.35 1.94zm-4.07-1.33c.52 0 .91-.1 1.12-.44.15-.24.38-.83.4-1.22-.55.16-1.18.86-1.43 1.32l-.1.34zm-1.22 2.54c0 .4.71.12.96.05.49-.14.53-.22.77-.66l-.51.06c0-.67.09-.6-.31-.88-.09.37-.24.43-.49.69-.17.18-.43.43-.43.75z"/><path class="fil3" d="M6.18 24.35c.08.06.25.22.31.22.59 0 .31-.66.1-.66-.31 0-.3.2-.41.44zm-3.46-4.86-.11-.44h-.19c.01.61-.12.41.31.44zm8.22-8.11c0 .38-.12.15.13.47.3-.15.17-.11.31-.54l-.43.07zm.23 1.37c.05-.23.08-.34.17-.52-.15-.09-.27-.22-.42.03-.21.36.03.39.25.48zM4.75 27.43c.22-.09.2.15.26-.25.02-.1-.02-.29-.16-.29-.56 0-.29.33-.1.54zm5.6-19.32c.13.38.1.41.51.44-.01-.33.07-.29-.1-.46-.16-.16-.35-.05-.41.02zm.41 6.28.38-.11c-.03-.42-.03-.33-.28-.49-.3.2-.39.28-.1.61zM4.34 25.68l.51.01v-.45c-.41-.14-.5-.11-.51.44zm.31.55c0 .54.51.39.51.11 0-.46-.51-.42-.51-.11zm-1.73-3.76c0 .18.06.33.2.33.34 0 .31-.2.31-.55-.23.01-.51-.03-.51.22zm.51 1.11c.36 0 .31-.22.31-.44-.27-.14-.11-.1-.51-.11.01.24-.03.55.2.55zm-1.02-3.21.48-.02c.02-.25.07-.53-.17-.53h-.2c-.12.27-.1.14-.1.55zm6.96-2.17c.23.4.43.51.59-.04-.06-.1-.1-.22-.22-.22-.27 0-.29.07-.37.26zm-.2.55c-.18 1.41 1.21-.15 0 0zm-5.94 3.17c-.01-.4.08-.27-.11-.45-.06-.06-.28-.05-.35.06-.3.5.15.49.46.38zm.71 3.09c.52-.01.51 0 .51-.44-.42-.38-.53 0-.51.44zm5.74-7.63c.16.32-.01.23.37.31.53-.58-.16-.89-.37-.31zm.98-8.4v.22c.75.39.68-.4.3-.43-.17-.01-.3.06-.3.21zm.27 6.15c.14-1.37-1.29.26 0 0zm.24-5.6h-.2c-.34.76.38.79.41.34.01-.19-.06-.34-.2-.34zM2.52 20.71v.43c.44.1.71.07.41-.55l-.4.12zm8.38-9.96c.14.18.04.2.28.21.8.03-.12-1.14-.28-.21zM4.45 28.21c.4.09.11.09.51 0-.01-.58-.06-.61-.51-.44v.44zm3.97-7.85c.01.43-.1.35.16.48s.54-.35.29-.52c-.13-.09-.4-.02-.45.04zm2.9-7.07c-.42-1.07-.9.52-.22.25.2-.08.12-.08.22-.25zm-1.38 3.43c.39.24.61.16.61-.33-.39-.24-.57-.15-.61.33zM5.66 24.9c.58.88.77-.33.41-.33-.25 0-.32.16-.41.33zm4.52-8.99c.11.1.15.15.27.15.48 0 .27-.45.1-.66-.33.14-.35.11-.37.52zM8.75 19.7c0 .31.1.29.27.41.17-.08.31-.04.31-.3 0-.59-.58-.28-.58-.11zm-5.23 4.09v.44c.44.16.38.15.61-.22-.18-.29-.25-.37-.61-.22zm1.63 1.99c.1 0 .2.03.3 0 .48-.12.24-.46.21-.55-.55.01-.51-.05-.51.55zm1.61-2.43c-.28.31.21.66.46.38s-.15-.73-.46-.38zm.42-.77c.01.24-.03.55.2.55.27 0 .3-.16.41-.33-.18-.29-.25-.37-.61-.22zm.41-.55v.22c.21.12-.01.15.31.12.35-.03.3-.22.3-.46-.35-.22-.61-.09-.61.11zm.41-.88v.44c.9.23.57-.55.41-.55-.03 0-.37.1-.41.11z"/></g></g></svg>