<svg xmlns="http://www.w3.org/2000/svg" xml:space="preserve" width="96" height="96" style="shape-rendering:geometricPrecision;text-rendering:geometricPrecision;image-rendering:optimizeQuality;fill-rule:evenodd;clip-rule:evenodd" viewBox="0 0 43.13 43.13"><path d="M42.15 7.61c-.04-.43-.18-.51-.43-.77l-2.3-1.01-.16-.03c-2.46-.31-1.78 2.2-6.04 2.44-1.27.07-.69-.62-1.56-.23-1.14.52-2.21-.14-4.35 2.33-.2.23-.52.6-.69.86-.22.34-.39.74-.63 1.07-.18.54-.43.39-.83.53l-2.79.89.04.11c-.19.57-.07.63-.16 1.19-1.09-.42-.25-.82-3.13-.57-.36-.04-.76.13-.98.38-.18.28-.4.36-.63.51-.25.07-.18-.03-.32.3l-.12.33-.34-.31c-.4-.06-.48-.06-.83.04-2.47.66-1.63.86-2.05 1.33-.18-.21-.2-.41-.57-.47-.19-.03-.48.07-.67.12-.45.13-.91.29-1.36.44l-2.09.64c-.13.04-.2.05-.33.1-.54.23-.02.24-.66.31-.89.11-1.42.33-2.4.66-1.3.43-1.53.29-2.55 1-.06.12-.02.07-.1.2-.11.18-.06.07-.14.15-.32-.3-.11.02-.28-.35l-.03.03c-.48.02-.84.22-1.33.25-.48-.05-.84.28-1.34.32-.08.53.19 3.99.28 4.6l.24 1.48.24 2.15c-.08.38.18 2.34.28 2.71.05.1.01 0 .07.2.01.04.03.16.05.22l.15.22c.59.19.92-.27 1.59-.2.05.15.03.11.04.3.05.77.59.17 1.26.72-.24 1.32-2.01 1.97-1.75 2.94.49.37.77-.03 1.3-.06.03.44.06 1.12.03 1.58.24.18.23.14.61.21.1-.13.22-.31.32-.47l.4-.59.01-.1c.07-.41.14-.5.39-.72.41-.16.19-.54.25-.95.06-.41.32-.63.5-.89.12-.19.08-.08.15-.37.26.13.2.03.22.34l-.08.48.39.46c1 1.05 1.56-.84 2.77-1.27l.18.62c1-.06.47-.49 1.25-.36.02.28.01.22.12.42.51.46 1.17.31 1.77.78-.48.4-1.19.27-1.92.53-.01 0-.04.02-.05.02l-.09.03c-.69.18-1.05.45-1.72.35-.61.29-.55.93-.12 1.36l.41.11c.07.29.04.09.06.37.03.33 0 .31.3.45.92.17 1.45-.1 1.06.52l-.17.23-1.51 3.77v.08c0 .03.01.06.01.08 0 .02.01.06.01.07 0 .02.01.05.02.07.02.01.05.01.06.04 0 .03.04.03.05.04.14.15.05.05.13.16.13-.01.24-.01.36-.04.19-.05.16-.03.31-.13l.1-.28c.33-.07.36-.03.77.04.31.06.11.05.16-.07.21-.39.57-.98.85-1.13l.21-.16.38-.37c.01-.01.03-.03.05-.04.2-.28.3-.37.53-.62.21-.22.33-.43.5-.67.27-.4.69-1.02.88-1.52.2-.5.36-.54.88-.57.4-.03.69-.09 1.07-.16l.08.28c.24.09.29.13.49.22-.04.57.05.18-.16.7-.06.16-.07.22-.15.38-.12.23-.08.13-.17.22-.22.3-.48.77-.38 1.21.09.43.27.73.59.99.61.17.4.48 1.29.29.47-.1.83-.23 1.29-.32.94-.18 2.01-.58 2.56-.52.45.04.54-.12.99.17.71.48 1.42 1.21 3.02 1.01.64-.08 1.27-.43 1.56-.97.44-.81-.07-1.3-.75-1.61l-.18-.03c.01-1.16.51-1.4.96-.81.18.17.55.2.79.24.11.25.09.12.12.42.99.18.52.22 2 .4.57.07-.17-.06.3.21.45-.23 1.04-.13 1.47.06l1.53.61c.72.32.67.64 1.06.88.62.38.95.26 1.61.37.17-.08-.16-.07.28-.06.53.02 1.8.44 2.4.55.35-.39.44-.24.96-.33.32-.06.71-.23.98-.42.6-.43 1.67-1.7 1.89-2.58l.09-.59c.03-.32.03-.62 0-.93-.11-1.06-1.02-1.74-1.84-2.56l-3.73-3.9c-.52-.44-1.45-.81-2.09-1.1-.42-.15-.42-.19-.59-.5-.09-.32-.23-.13-.24-.54-.02-.54.29-1.44-.06-1.89-.01-.02-.03-.03-.05-.05-.55-.65-.45-.27-.71-.56-.41-.47.41-.67-1.24-1.41.04-.48-.2-.95.12-1.48.16-.25.66-.59.9-.78l.94-.72c1.14-.86 1.56-.94 2.79-2.19.33-.34.49-.53.93-.73.37-.16.84-.19 1.1-.47.19-.2.42-.29.76-.26l.21-.65c.14-.37.31-.45.42-.91-.26-.26-.08-.27-.49-.38.13-.53.15-.18.12-.77-.32-.14-.32-.16-.76-.24-.1.04.13.12-.31.04l.05-.29c-.11-.26-.25-.5-.45-.64l-.26-.08c-.2.22-.08.19-.4.22-.1-.38 0-.31.06-.38.26-.14.23-.24.5-.43.33-.24.32-.13.76-.16.37-.02 1.05-.24 1.3-.52.13-.3.18-.29.43-.42-.12.33-.11.2.01.5.26-.02.21-.01.39-.13.18-.21.34-.24.47-.48.22-.41-.03-.3.27-.71.13-.81.37-1.48.26-2.28-.07-.51-.22-1.66-.51-1.97zm-8.5 9.7c.01-.04.63-.48.84-1.82.41-2.61-.36-2.66-.41-3.23.13-.1.19-.11.39-.13.28.31.12.7.25 1.16.11.41.37.61.63.87.17-.11.32-.27.49-.37.49.4.09.39.87.41.5.01.69.02 1.07.3-.27.62-.14-.09-.53.38-.14.18-.24.48-.46.76-.35.44-.1.28-.17.73-.02.15-.48.98-.99 1.19l-1.89.97c-.11.01-.12-.17-.12-.26l.05-.95z" style="fill:#000"/><path d="M25.09 18.45c.26 1.14.45.84.26 1.99-.44-.09-.58-.18-.6-.64l-.03-2.02c.05-.5-.07-.39 0-.91l.37 1.57zM3.73 20.18l.09 1.45c.08.7.19 2 .09 2.63-.29-.51.02-.4-.37-.9-.68-.88-.67-2.64-1.08-2.72-.35-.06-1.26.35-1.71.38-.19 1.19.43 4.92.51 6.36l.23 2.53c.03.45.13.79.16 1.23.36.06 1.68-.18 1.71-.38.18-1.12-.42-3.15-.31-3.9.21.21.3.46.4.79l.3.87c.01.02.02.05.02.07.09.25.01.12.16.38.1.17.17.21.24.4.16.4.05.58.36.91.39-.26.65-.69.75-1.25.7.06.62-.19 1.22.42.19-.5.01-.61-.1-1.1-.19-.84-.44-5-.58-6.31l-.34-2.44-1.74.57zm5.76 7.16c-.45-.19-.11-.02-.37.01-.02 0-.08.3-.19-.34-.08-.46.06-.41-.06-1.05l-.72-7.05c-.45-.07-.76.08-1.26.23l-1.06.53.18 1.13c.04.42.03.89.08 1.29.05.38.08.77.13 1.17.06.46.03.82.08 1.29.02.22.04.34.06.55l.2 1.87c.12 1.16.16 1.29.58 1.92.03.05.01.2.15.22.45.08 1.19-.43 1.7-.64l2.19-.97c.25-.14.31-.24.55-.35-.12-.46-.11-1.73-.13-2.35-.02-.81-.15-3.61-.29-4.5-.06-.39-.14-.75-.18-1.13-.04-.39.03-.83-.07-1.21-.26-.02-.91.21-1.21.31-1.69.56-.93-.27-.72 4.71.03.83.42 3.94.36 4.36zm5.04-10.43.28 4.09c-.18-.2-.26-.58-.4-.88l-1.13-2.85c-.48-.04-1.19.35-1.71.38-.17 1.1.1 2.44.16 3.59.11 2.09.45 4.22.55 5.91.26.12.15.06.38.12.91.22.79.33 1.08-.17.53-.92.24-.89.25-2.16l.07-.92c.5.51.33 1.69.87 1.74h.16c.85.05.77.4 1.35.66.24-.27.39-.63.57-1.04.25-.56.18-.46.13-1.1l-.66-7.26c-.04-.34-.09-.37-.11-.67-.3-.03-.66.11-.98.19-.45.11-.52.2-.86.37zm8.33-2.73c-.04.56.13.13.06.8-.2 2.01-.06 1.27-.12 2.63l-.1 3.45c-.52-.45-1.53.35-2.25.28-.08.54.1 1.11-.14 2.64l-.55.01-.55-4.74c-.03-.77-.3-2.43.28-2.32.62.11.41.59.6 1.91.05.31.08.42.1.68.58.09 1.38-.39 2-.43.24-1.54.05-1.57-.19-2.47-.13-.49-.04-.58-.42-.94-.44-.42-.5-.53-1.05-.63-1.14-.21-1.43-.01-1.96.36l-1.37 1.37c-.27.55-.25.96-.31 1.56-.07.69.09 1.49.15 2.25l.25 2.26c.03.52.1.98.13 1.5.94.19 1.4-.08 1.59.98.11.62-.06.93 1.53.41l.69-.39c1.67-1.43.84-.82 1.27-1.42.19-.27.08-.02.1 0 .31.39-.29-.01.17.29l.57-.44c.72-.46.6-.26 1.14-.53.35.29.17 0 .22.34l.27.05c-.01-.22 0-.27 0-.41 0-.52-.11-.1-.05-.48.04-.23.51-.6.73-.56.26.05.22.15.27.8.09 1.08-.06.66.2.86.16.12 2.03-.53 2.21-.59.04-.52-.12-.8-.22-1.27-.42-1.94-1.06-4.02-1.51-6.11l-.58-2.51c-.68-.11-2.48.76-3.16.81z" style="fill:#fe0000"/><path d="m10.46 41.61.18-.2c.19-.24.33-.48.66-.45l.15.11c.25.16.8-.6.93-.83l.51-.64c.69-.55 1.35-2.52 2.08-2.68.37-.08.83-.07 1.25-.14 1.08-.18.6-.29 1.11-.34l-.21-.18c-.13-.12-.05 0-.19-.19.3-.32.34-.03.54-.49-.25-.11-.64-.31-.95-.35-.08-.01-.77-.02-.78-.02-.01-.29.1-.53.23-.72.18-.28.27-.27.58-.31.58-.08.77-.29 1.35-.32.46-.02 1 .04 1.51-.1.55-.15.63-.29 1.05.3-.12.28-.39.46-.6.87-.31.6-.24.45-.74.67-.7.32-.59.54-.66.71-.14.33-.34.1-.57.64.23-.02.31-.06.59.06.01.61-.52.92-.76 1.46-.41.89-.12.83-.77 1.57.06.18.08.37.17.54.3.57.9.53 1.41.35l.4-.16c.99-.32.88-.18 1.59-.34.43-.1.67-.21 1.05-.3.4-.09.65-.1 1.05-.2 1.33-.33 1.41.24 1.96-.59-.35-.03-.26.08-.53-.03-.4-.17-.25-.07-.23-.41-.21-.04-.52-.07-.7-.14-.29-.11-.22-.18-.52-.25-1.08-.27-2.77.53-3.18.09.06-.12.08-.21.18-.37.9-1.35 1.73-1.05 2.2-1.08 2.34-.16 1-.45 2.1-.98l.34-.15c-.51-.19-.42-.08-1.12-.2-.07-.27-.07-.12-.01-.5-.52-.09-.95.07-1.44.09.04-.4.15-.36.33-.68.24-.44.04-.34.51-.43l3.05-.25c.67.01.99.05 1.43-.28-1.46-.27-.77.02-.79-.48l-.04-.66c-.7-.13-1.17-.21-1.84-.24-.85-.04-4.05.69-4.36.55.47-.4.7.04.87-.58-.53-.07-1.63-.11-2.32-.06-.54.04-.7-.05-1.23-.07-.69-.03-.42.19-.88-.28-.23.11-.24.16-.53.27-.19.07-.42.14-.59.18-1.21.27-1.76.16-2.55.3-.47.08-.79.1-1.25.13l-.03.19c.38.1.54.2 1.06.29-.1.41-.01.18-.25.45.43.08.62.28.96.32.18.02.6-.09.88-.04-.01.27-.36.77-.51 1.01-.32.51-.28.54-.82.67-.45.1-.64.2-1.08.26-.38.05-.74.16-.94.37.18.13.62.26.95.37-.22.51-.38.19-.69.27-.05.63-.02.33 1.34.24l-.48 1.05c-.13.3-.44.74-.55.95-.38.67-.66 1.36-1 2.07-.15.37-.15.46-.28.74.22-.15.27-.12.43-.42zm17.61-12.44c-.21-.16-.15-.54-1.33.14-.67.38-1.74 1.17-2.52 1.41l-1.08.27c-.41.16-.15-.05-.33.24.6.92 2.38.21 2.5.19.21-.04.19.01.43-.06.21-.06.14-.09.44-.16.72-.17.28-.09.72-.33.36-.19.47-.02.86-.24.67-.39.5-.98 1.33-1.02l-.12-.71c-.46-.13-.58.12-.92.28z" style="fill:#ff0"/><path d="M5.59 31.66c.19-.07 1.1-.32.67.16-.34.38-.46.57-.7.62l.03-.78zm11.72-3.89c.03-.54.02-.65.46-.61l-.06.38c-.05.29-.15.25-.4.22zm-3.95 3.61c.44.09.51.09.82-.03.47-.19 1.44-1.18 1.64-1.68.37.43.02.02.05.48.02.31 0 .12.38.29.27-.69.75-1.6 1.4-1.92.33.79-.08.74.74 1.32.03-.6.04-.01.08-.45.03-.37-.07-.81.03-1.6.45-.22.58-.09.67-.77-.16-.02-.59 0-.71.04-.12-.78.47-1.9-.38-2.06-.38-.07-.68.6-.82.92-.64 1.45-.64 2.48-1.2 2.82-.87.52-1.34 1.68-2 1.61-.27-1.01.07-.72.11-1.12.02-.14-.08-.06-.05-.44.18-.2.22-.18.41-.45l1.29-1.61c-.4-.35-.55-.54-1.23.04-.75.64-.88 1.14-1.23 2.06-.17.44-.03.3-.14.85-.16.77-.09 1.04.14 1.71-.27-.04-.54-.35-.9-.66-.48-.42-.33-.16.37-1.4.39-.7.49-.7.22-1.33-1.67-.3-2.05.24-3.94 1.05-.61.26-1.2.65-1.75 1.03-1.09.75-.67.58-.97.53-.01 0-.04-.01-.05-.01l-.69.1c.08-.5.08-.38 0-.79-.3.4-.41.9-.8 1.12l-.82.55c-.24.14-.1.11-.38.14.15.15.14.09.51.14l.65.07c-.07.56-.12 1.27-.33 1.76-.14.34-.18.33-.39.49l-.11.08c-.21.19-.4.43-.01.48.74.1.37-.18.36.84 0 .23.02.33 0 .6.72-.25.12-.27.7-1.09.62-.88-.43-.54.98-1.84.59-.55 1.57-2.06 1.18-.12-.07.37-.14.56-.24.95.35.27.6.36.92.08l1.5-1.29c.34-.24.61-.23.74-.78-1.34-.12-.93.08-1.65.59-.19.13-.28.21-.59.18.22-1.4.48-.8 1.18-1.42.27-.23.38-.22.52-.49.2-.39-.13.1.12-.33-.53.03-.59-.08-.76-.04-.16.04-.19.2-.66.28.14-.9.61-.76 1.77-1.48.33-.21.28-.37.72-.33-.08.53-.15 1.35-.37 1.81-.16.33-.12.12-.26.44.12.65-.22-.52.09.18.08.18.07.04.09.27.02.18-.07.55-.1.75l.45.08c.06-.35.55-1.26.79-1.53.53.14.47.44.83.53.14.03.32-.02.51-.04.59-.06.34.14.55-.16zm10.94-5.41c-.08-.25-.32-.29.1-.66.14.4.38.86.34 1.34-.45-.12-.31-.26-.44-.68zm-.97-1.45c-.09.56.49 1.56.34 2.53L23 24.86c-.34-.03-.52.13-.77.25.12.65.33 1.14.5 1.73.1.35.09.62.23.92.18.37.38.43.1.85-.33-.16-.25-.32-.39-.72-.12-.35-.2-.55-.27-.89-.08-.37-.08-.44-.26-.81-.16-.33-.19-.54-.55-.7-.18.24-.3.19-.33.52-.04.34.65 1.43.59 2.12l-1.45-.53c-.1-.11-.27-.43-.02-.49.31-.08.02.19.56.34.15-.35.22-.25.45-.51-.41-.99-1.11-.92-1.62-.19-.45.65-.27 1.82.6 1.98.36.06.01-.21.92.17.06.28.12.54.08.87-.24-.03-.24-.01-.48-.42-.1-.17-.07-.02-.12-.25-.28.04-.15-.06-.63.48.32 1.49 1.64.98 1.87.22.44-1.42-.04-.01 1.28-.57.34-.14.28-.14.48-.47.31-.52.08-.22.45-.3.29-.06.26-.18.63-.21.09-.66-.26-.68-.07-.96.24-.34.51.33.61.47l.64-.46c-.05-.44-.37-.8-.57-1.29l-1.03-2.09c-.57-.02-1.1.57-1.11.61zM7.6 30.55c-.11.7.2.76-.34 1.02-.15-.57.18.01-.22-.93.19-.06.34-.08.56-.09zm3.8-.79c-.09-.43.12-1.04.88-.93-.06.16-.26.53-.36.64-.15.18-.28.26-.52.28z" style="fill:#fefefe"/><path d="M4.31 10.54c.02-.04.04-.08.05-.12.01-.04.03-.08.06-.11.01-.03.03-.06.06-.07.01-.01.03 0 .04 0 .01.01.02.01.02.02.04.03.07.06.06.11 0 .05-.01.09-.02.14 0 .02.01.03.02.03.03-.01.05-.02.05-.03.02-.02.04-.05.06-.1.03-.04.05-.07.08-.09.02-.02.06-.02.1.01.04.02.08.02.12 0 .04-.02.07-.04.11-.06a4.68 4.68 0 0 1 .95-.42c.12-.03.25-.06.36-.09.12-.02.23-.04.34-.05.2-.02.36 0 .48.06.13.06.23.16.29.29.08.15.11.3.09.48-.02.17-.07.35-.15.53-.21.42-.5.8-.85 1.16-.11.12-.23.23-.35.34l-.36.33c-.04.05-.07.08-.07.1.01-.01.04-.01.08 0 .04 0 .08 0 .12-.01.04-.01.08 0 .12.01.32-.01.55.07.72.25.14.12.21.28.2.5-.02.22-.09.44-.19.65-.1.21-.23.43-.39.65-.15.2-.31.4-.49.61-.12.14-.24.29-.37.43-.12.14-.25.29-.37.44-.04.05-.08.09-.12.14-.04.04-.07.08-.11.12-.04.03-.07.07-.1.1s-.07.06-.13.07c.03-.04.05-.08.06-.1.01-.03.03-.06.04-.09-.01 0 0-.01.01-.03-.01.01-.03.01-.03.01-.01 0-.02.01-.03.02-.25.14-.51.28-.76.43-.25.15-.5.3-.74.47-.1.07-.18.13-.24.2s-.09.15-.08.24v.04c-.01.01-.01.02-.03.04-.01-.01-.02-.02-.02-.03 0-.01-.01-.02-.02-.03v-.05l-.01-.05c-.02-.04-.06-.04-.12-.02-.05.03-.09.06-.13.08-.04.02-.07.04-.11.06-.2.12-.4.23-.6.33-.2.1-.41.19-.63.27-.04.01-.07.03-.1.04a.36.36 0 0 1-.11.02c-.06.01-.11.02-.16.03-.05.01-.1.01-.14.02.04-.03.08-.06.13-.09s.1-.06.14-.08c.22-.12.43-.25.63-.39.2-.13.4-.27.59-.42.07-.05.1-.08.1-.1 0-.02-.02-.05-.05-.08-.04-.04-.06-.08-.08-.12-.01-.05-.01-.1-.01-.15.01-.24.03-.47.04-.7.01-.23.03-.47.06-.71.05-.44.11-.89.19-1.33.07-.44.17-.89.29-1.34 0-.01 0-.03.01-.05.01-.02.01-.04.02-.05-.01-.03-.01-.04-.02-.05-.02.01-.04.02-.05.03-.03.04-.06.07-.09.09-.03.03-.05.06-.08.09-.01.01-.02.02-.03.02-.01 0-.01 0-.02.01 0-.01 0-.01-.01-.03v-.03l.07-.1c.03-.03.05-.07.08-.12.03-.04.06-.07.09-.11.03-.03.05-.07.07-.11.01-.01.03-.03.04-.06-.04.01-.06.02-.07.04-.05.04-.1.08-.13.12-.03.04-.08.08-.16.1-.01.01-.03.02-.05.06-.02.03-.03.06-.04.09-.02.05-.04.08-.06.11-.02.03-.05.05-.1.05-.06.01-.09.01-.11-.01a.922.922 0 0 0-.05-.08c-.06-.1-.08-.2-.06-.3a.91.91 0 0 1 .15-.34c.13-.2.27-.39.42-.58.15-.19.32-.37.5-.55.06-.06.1-.11.12-.16.03-.05.05-.1.08-.17.02-.08.04-.15.07-.21.02-.07.05-.13.07-.2.04-.12.12-.14.22-.08.08.04.14.02.18-.07.03-.05.05-.09.06-.13.01-.04.03-.08.06-.13 0-.01.02-.03.04-.05.02-.02.04-.03.06-.04.02.01.03.01.05.02.02.01.03.02.03.04.01.02.01.04.02.07 0 .02.01.05.01.08a.12.12 0 0 0-.05.05c-.01.02-.03.04-.04.05-.01.02 0 .03.04.05.01-.02.03-.03.04-.03.02-.01.03-.01.02-.02l-.02-.1zm28.06-5.47c-.13.06-.26.12-.4.17-.13.05-.27.11-.41.16-.06.02-.1.05-.13.08s-.06.07-.09.11c-.14.21-.27.43-.42.65-.14.22-.28.43-.42.65-.07.11-.14.21-.21.31-.07.1-.15.21-.22.32l-.2.22c0 .01-.01.02-.02.02s-.02 0-.03-.01c-.02 0-.03-.01-.03-.04l.05-.17.33-.91s0-.02-.01-.05l-.05.05c-.1.17-.21.34-.33.52l-.15.21-.05.05c0-.01-.01-.02-.01-.03-.01-.01-.01-.02 0-.03l.12-.32.16-.36c.01-.02.01-.03.01-.03s-.01-.02 0-.04c-.04.04-.06.06-.07.06-.02.01-.03.01-.03 0-.01-.03 0-.07.03-.11.03-.08.07-.16.11-.24.04-.08.07-.16.11-.25.01-.02.02-.03.01-.04 0-.01-.02-.01-.06-.01-.02 0-.04.01-.07.02-.02.01-.04.01-.07.01-.04 0-.08.01-.13.03-.05.02-.08.01-.1-.04-.03-.06-.06-.11-.1-.17-.04-.05-.03-.12.02-.21-.01-.02 0-.04.02-.05.11-.06.16-.13.14-.21 0-.01.01-.02.03-.03.02-.01.04-.02.05-.03.05-.02.09-.03.13-.04l.12-.03c.04-.01.09-.02.14-.04.05-.02.09-.05.12-.09.01-.02.03-.03.06-.05.03-.01.06-.02.08-.04.06-.01.11-.03.14-.07.03-.04.06-.08.09-.13.14-.24.27-.48.4-.72s.26-.48.39-.73c.19-.35.38-.7.58-1.05.2-.35.42-.7.65-1.05.05-.09.09-.17.14-.25.04-.08.09-.17.15-.26.03-.06.06-.1.09-.11.03-.01.08-.02.14-.01.06 0 .09.02.09.07 0 .01 0 .03.01.04.01.01.02.02.04.01.01-.01.03-.01.05-.02.02-.01.03-.02.04-.03.02-.04.04-.09.06-.14.02-.06.05-.11.06-.15.02-.04.04-.1.06-.15.05-.1.11-.17.16-.21.05-.04.13-.06.24-.07a.2.2 0 0 1 .14.02c.03.03.06.05.1.09.01.04.02.06.03.07.14.06.22.14.26.24.04.11.05.22.03.36-.02.23-.05.45-.08.68-.03.22-.07.45-.11.67l-.12.51c-.05.17-.09.34-.12.52-.02.1-.04.19-.04.29 0 .1-.02.19-.03.28-.01.06.02.08.08.05l.49-.18c.01-.01.02 0 .03 0 .01.01.02.01.03 0-.01.02-.02.03-.04.03l-.35.24-.04.03c.01-.01.02-.01.03 0 0 0 .01.01.02 0l.12-.04h.07l-.06.04c-.03.02-.07.03-.09.05-.03.01-.05.03-.08.05l-.16.12c.02-.01.05-.02.08-.02.03-.01.07-.02.1-.04.09-.03.17-.06.26-.09s.17-.07.25-.1h.05c.01.02-.01.04-.03.06-.11.06-.22.12-.32.18s-.21.12-.32.17c-.08.04-.13.08-.15.12-.03.04-.04.09-.05.15l-.14 1.83-.01.06c0 .01 0 .02-.02.03l-.01-.01v-.01c-.01-.1-.02-.2-.04-.3-.01-.09-.02-.2-.02-.3-.01-.1-.01-.2-.01-.29 0-.09 0-.18-.01-.27 0-.01-.01-.02-.03-.04-.01.03-.01.04-.02.03-.01.03-.01.07-.02.12l-.12.73c-.04.25-.08.49-.11.75l-.02.12-.02.02c-.03.01-.04.01-.05 0-.03-.04-.05-.09-.08-.13-.03-.05-.04-.09-.06-.14-.02-.16-.05-.31-.07-.45-.03-.15-.05-.3-.07-.44l-.04-.48c0-.01-.01-.02-.01-.02s-.01-.01-.01-.02c0 .01 0 .03-.01.06-.02.25-.04.48-.05.72-.02.23-.03.46-.03.7-.01.1-.01.2-.01.3 0 .1 0 .2-.01.3l.01.04c-.02-.02-.03-.03-.03-.04-.02-.17-.03-.34-.05-.51-.02-.17-.03-.34-.03-.52V5.03c0-.05-.02-.06-.08-.04l-.31.11zm.03-.67h.01c.04-.02.08-.03.12-.04.04-.01.08-.02.11-.04.06-.02.1-.04.11-.06.01-.01.02-.05.02-.11l.02-.22c.02-.19.04-.38.05-.57.02-.19.04-.38.05-.56 0-.01 0-.02-.01-.03-.01-.01-.01-.01-.02-.03-.01.01-.01.02-.02.02-.01.01-.02.02-.02.03-.08.23-.18.46-.3.68-.11.22-.23.45-.35.67-.03.06-.07.11-.1.16s-.05.11-.05.17l.36-.08zm.18.17c-.03.01-.06.02-.08.04-.03.01-.06.02-.08.04-.03.02-.04.03-.05.04.03.01.04.01.05.01.05-.01.1-.03.14-.04.04-.02.09-.03.14-.05.01-.01.02-.01.03-.02.01-.01.01-.02.03-.03-.02 0-.03 0-.03-.01h-.03l-.11.04zM17.07 12.3c-.04-.26-.06-.51-.07-.77-.01-.26-.01-.52-.01-.78v-.51c0-.17.01-.34.01-.52.01 0 .01-.01 0-.02s-.02-.01-.03-.01a.11.11 0 0 0-.04.02l-.1.18c-.18.27-.37.53-.56.8-.19.26-.36.52-.54.78-.06.09-.12.17-.18.23l-.18.21c-.1.09-.2.13-.3.14-.02 0-.05-.01-.08-.01-.03-.01-.05-.02-.05-.05-.03-.04-.05-.09-.08-.14l-.09-.15-.03-.09c-.01-.03-.02-.06-.04-.09-.09-.13-.19-.26-.29-.39-.1-.13-.21-.26-.31-.39h-.01c0-.01 0-.01-.01-.01 0 0-.01 0-.01-.01-.03.02-.04.04-.05.05-.01.04-.01.08-.01.11 0 .04-.01.07-.02.1l-.12.81c-.03.27-.07.53-.12.8 0 .05-.01.1-.02.16-.01.05-.02.11-.02.16 0 .01-.01.03-.02.04-.01.01-.02.02-.02.03 0-.01-.01-.02-.02-.03-.01-.01-.01-.02-.01-.03v-.38c0-.13 0-.26.01-.39-.01-.1-.01-.19 0-.29.01-.1.01-.2.01-.3l-.01-.06c0 .01-.02.04-.05.08-.01.05-.02.1-.02.15 0 .05-.01.1-.02.15-.08.39-.16.77-.23 1.15-.07.38-.15.76-.24 1.14-.01.03-.02.05-.02.08-.01.02-.02.05-.03.09 0 .01 0 .02-.01.03-.01.01-.02.02-.02.04 0-.01-.01-.02-.01-.03-.01-.01-.01-.02 0-.03v-.18c.04-.19.07-.37.09-.55.02-.17.05-.36.09-.55 0-.03 0-.06.01-.1v-.08c0-.03 0-.04-.01-.05-.01-.01-.01-.02-.01-.03 0 0 0 .01-.01.04s-.02.07-.03.11l-.03.11-.12.54c-.04.18-.08.36-.13.54 0 .03-.01.05-.01.08-.01.03-.01.04-.03.05-.04 0-.06-.01-.07-.03-.01-.02-.01-.05-.01-.08-.01-.02-.01-.05-.01-.08s-.01-.06-.02-.09v-.07c0-.02-.03-.04-.07-.04-.04-.02-.07-.05-.07-.09a.33.33 0 0 1 0-.14v-.76c.03-.66.08-1.31.13-1.96.06-.65.13-1.31.23-1.97.01-.12.02-.23.02-.33s-.01-.21-.05-.33a.646.646 0 0 1-.05-.27l.03-.28c0-.06.04-.11.13-.14.08-.02.15-.03.21-.03s.12.03.18.08c.08.06.18.11.3.15.03.02.05.02.06.01.01-.01.02-.03.03-.06.03-.06.06-.09.09-.09.03-.01.06 0 .12.03.14.09.24.21.29.36.13.3.26.61.4.91.13.31.26.61.4.92.01.03.02.05.03.07.03.05.05.04.07-.01.01 0 .02.02.05.06.03.04.05.09.08.14.03.05.05.09.07.13.02.04.03.05.04.05.15-.29.31-.6.45-.9l.45-.93c.15-.31.31-.62.48-.92.16-.3.34-.59.52-.87.05-.07.1-.15.15-.26.05-.11.1-.19.15-.26.04-.04.07-.08.11-.12a.36.36 0 0 1 .12-.08c.09-.03.16-.05.21-.08.05-.03.11-.02.18.02.04.04.08.05.13.05.03.02.04.03.04.04 0 .05 0 .09.02.1.03.04.07.08.11.1.04.02.07.05.1.06a.5.5 0 0 1 .08.07c.03.03.05.07.07.12v.29c0 .04.01.06.02.08.06.08.07.17.04.26-.16.46-.29.92-.37 1.39-.09.46-.18.93-.27 1.4-.08.41-.15.82-.19 1.22-.05.4-.08.8-.1 1.19v.11c0 .02 0 .03-.03.04 0-.01 0-.01-.01-.02 0 0-.01-.01-.01-.02-.01-.05-.01-.11-.02-.15-.01-.05-.01-.1-.02-.15 0-.01-.01-.02-.01-.02s-.01-.01-.01-.02c-.01.01-.01.03-.02.05-.01.07-.01.14-.02.2 0 .06-.01.13-.01.19v.06c-.01.03-.01.05-.02.07a.21.21 0 0 0-.04-.06c-.02-.01-.03-.03-.02-.04-.01-.09-.01-.18-.02-.27-.01-.09-.01-.18-.02-.26v-.53c.01-.17.01-.35 0-.53.01 0 .01-.01 0-.02s-.01-.02-.01-.03c0 .01-.01.02-.01.03 0 .01-.01.02-.02.04s-.02.04-.02.07c-.01.03-.01.05-.02.08-.04.24-.08.48-.12.73-.04.25-.08.49-.11.73 0 .02.01.04.01.05 0 .02-.01.04-.02.05 0 .01-.02.04-.05.08-.02-.02-.03-.04-.04-.05-.03-.06-.05-.13-.07-.19a.697.697 0 0 0-.06-.19zm-2.54-2.55v.08c.04.1.08.21.11.3.03.1.07.19.1.29a1.64 1.64 0 0 1 .07.22c0 .02.02.02.04.01.01-.01.03-.02.04-.03l.03-.1c.01-.04.01-.06 0-.08l-.18-.33-.18-.33c-.01-.01-.02-.01-.02-.02l-.02-.02zm.54.36-.18-.33c-.06-.11-.12-.22-.18-.32 0-.01-.01-.02-.03-.03-.01.02-.01.03 0 .04.03.08.07.16.1.24.03.08.07.16.1.23.02.04.04.09.06.14.02.05.04.09.06.14 0 .02.01.02.03.02l.02-.02c.01 0 .01-.01.01-.02.02-.03.03-.05.03-.08zm12.9-6.17c.03.13.05.25.05.36 0 .11-.01.22-.03.34-.07.47-.21.93-.43 1.37-.22.44-.53.87-.91 1.29-.24.26-.48.52-.73.78l-.74.77c-.14.15-.29.29-.43.43s-.28.28-.43.42c-.04.04-.08.08-.12.11l-.12.09c-.01.01-.02.02-.03.02-.01 0-.02 0-.03.01.01 0 .02-.02.03-.06.04-.04.07-.07.1-.11.03-.03.06-.07.1-.12.09-.11.18-.22.27-.32.09-.1.18-.21.26-.31 0-.01.02-.03.04-.05.02-.03.04-.06.05-.08.01-.02.02-.04.03-.05-.02.01-.04.03-.07.04-.02.01-.05.02-.07.04-.03.02-.05.05-.09.08-.03.03-.06.06-.1.09l-.21.18c-.07.06-.15.12-.23.17-.01.02-.03.03-.05.04-.02.01-.05.02-.09.04.04-.05.07-.09.07-.13.06-.07.11-.13.15-.19.02-.01.03-.02.02-.05 0-.01-.01-.02-.03-.01-.01.01-.03.01-.04.02-.09.03-.16.07-.19.11a.38.38 0 0 0-.07.17c-.01.13-.02.26-.04.38-.02.13-.03.25-.05.38 0 .02-.01.04-.01.05 0 .01-.01.03-.01.04 0-.01-.01-.02-.02-.04-.01-.01-.01-.03-.01-.05 0-.12-.01-.24-.01-.36v-.37c0-.02.01-.04.01-.06 0-.02-.02-.03-.05-.03-.04.01-.09.02-.12.04-.04.01-.07.05-.1.09-.01.04-.01.07-.02.08-.01.05-.02.09-.02.12s-.03.07-.1.1c-.01.01-.03.03-.04.07-.01.04-.02.07-.03.1l-.09.39c-.03.13-.06.26-.1.4l-.03.09c-.01.03-.02.06-.02.1-.01.01-.03.02-.05.03h-.02c-.01 0-.01-.01-.02-.02-.01-.02-.01-.05-.02-.08a.139.139 0 0 1 0-.09c-.01-.19-.01-.38-.02-.57-.01-.19 0-.38.02-.57.03-.58.07-1.16.11-1.73.04-.57.09-1.15.13-1.73v-.14a.167.167 0 0 0-.08-.11c-.17-.13-.2-.33-.09-.59.03-.07.07-.14.11-.2.04-.07.09-.14.13-.2.07-.11.12-.21.12-.32l.09-.57c.03-.19.05-.38.07-.57a.16.16 0 0 0 .03-.08c.01-.04.02-.08.02-.12 0-.04.03-.07.09-.09.06-.01.12-.03.18-.05.06-.02.12 0 .17.04.02.01.03.02.05.04l.04.04c.01.01.02.02.03.04.01.02.02.02.04.02.07.01.11.04.13.09.02.05.05.09.07.14.01 0 .01.01.01.02s0 .02.01.03c.01.02.02.05.01.08 0 .03.03.05.09.05l.03-.09c.01-.03.02-.05.03-.08.04-.1.1-.13.17-.08.04.03.07.05.09.05.02 0 .06-.01.12-.05a5 5 0 0 1 1.13-.44c.42-.08.77-.08 1.05.02s.51.3.7.61c.03.05.05.11.07.16.02.06.04.1.06.14zm-1.93.21c-.21.08-.42.18-.61.3-.2.12-.39.25-.57.39-.05.05-.09.1-.13.15-.03.05-.05.11-.05.17-.09.48-.17.96-.26 1.43s-.17.94-.25 1.42c-.02.11-.04.21-.05.31-.01.1-.02.2-.04.3.13-.06.24-.14.32-.23.08-.09.18-.18.28-.27.03-.03.06-.07.1-.11l.09-.12c.29-.43.58-.86.86-1.29.28-.43.55-.87.81-1.32.12-.2.2-.4.24-.59.04-.19.06-.39.05-.59 0-.08-.04-.12-.14-.11-.11.02-.22.05-.33.07-.11.03-.21.05-.32.08zm-.01-.42c-.03.02-.05.04-.07.04.02.01.04.02.05.04.03.01.07.01.11.02.04.01.08.02.1.04.06.05.13.08.21.07.08 0 .16-.01.25-.01.05 0 .07-.01.08-.03l.03-.06c0-.05-.02-.09-.07-.11a.322.322 0 0 0-.17-.01c-.04.01-.07.02-.09.03-.02.01-.04.01-.06-.02-.04-.05-.09-.06-.16-.05-.06.01-.12.02-.16.03l-.05.02zm-.48 3.47c.01 0 .01-.01.02-.02.11-.12.22-.25.32-.37.11-.13.18-.26.24-.41.01-.01.01-.02 0-.03l-.03.01c-.1.14-.19.27-.28.4-.09.13-.19.25-.29.38-.01.01-.01.02 0 .04h.02zm1.81-2.81a.134.134 0 0 1-.07-.06c-.01.02-.02.03-.03.04-.01.01-.01.02-.01.03-.03.09-.06.18-.09.25-.02.07-.05.16-.07.25v.06c.01.02.01.04.01.06l.03-.06a.21.21 0 0 1 .04-.06c.03-.05.05-.11.07-.16.02-.06.04-.11.07-.17.01-.02.02-.05.03-.08.01-.03.02-.06.02-.1zm-1.61-.37c-.01.01-.04.01-.07.03-.04.01-.07.03-.09.04-.03.02-.06.05-.1.06-.03.02-.06.04-.1.06.04-.01.07-.02.1-.03.03-.01.07-.01.09-.02.09-.03.19-.06.28-.09.09-.03.19-.06.3-.1.01 0 .01-.01.01-.01s.01-.01.03-.01c-.02-.01-.03-.01-.03-.02s-.01-.01-.01-.01c-.06-.01-.13 0-.2.01-.07.02-.14.04-.22.08zm1.61-.01c-.01.01-.02.02-.02.03 0 .01-.01.01-.01.02v.07c0 .02.01.04.01.05l.03.03c0-.01 0-.02.02-.03.01-.02.01-.04.01-.06 0-.02 0-.04.01-.06l-.04-.04zm-3.72 5.01c.01-.01.01-.02 0-.03.01-.03.01-.07.01-.1v-.1h-.01c-.01.04-.02.07-.02.1s0 .06-.01.1c-.01 0 0 .01.03.04zm4.49-.21c-.01-.09-.01-.19-.01-.3 0-.11 0-.22.02-.33.03-1.35.16-2.7.38-4.06.06-.35.13-.69.21-1.04.08-.35.18-.69.3-1.04.01-.04.03-.08.04-.11.02-.03.03-.07.04-.11.03-.08.09-.14.2-.18.11-.04.19-.03.25.02.05.03.09.06.12.09s.06.07.09.1c.02.04.04.05.06.05.02 0 .05-.03.09-.07.05-.06.1-.06.16-.02.01.01.03.03.04.03.02.01.03.01.05.02.05.03.07.02.07-.03-.01 0 0-.01.03-.03l.06-.12c.02-.04.06-.07.12-.09.06-.02.11.01.17.07.05.06.07.12.07.18-.01.05-.03.1-.04.15-.02.05-.04.11-.07.16-.16.47-.32.94-.49 1.4-.17.46-.32.93-.44 1.4-.17.61-.32 1.21-.45 1.8a12.1 12.1 0 0 0-.25 1.78c-.01.02-.02.04-.02.06 0 .02-.01.04-.02.06v.03c-.01-.01-.02-.01-.03-.01-.01 0-.01 0-.01-.01-.01-.04-.01-.08-.02-.12 0-.04 0-.08-.01-.13 0-.4.02-.8.08-1.2.05-.4.12-.8.19-1.21.01-.07.02-.13.03-.18.01-.06.02-.11.02-.16 0-.01 0-.01-.01-.03v-.04c-.02.03-.04.06-.05.08-.02.07-.04.14-.06.2-.02.06-.03.12-.03.18-.07.26-.13.53-.17.79-.04.26-.1.52-.16.78l-.03.09c-.01.03-.01.06-.01.09l-.02.01h-.02c-.01 0-.01-.01-.01-.01v-.09c0-.03 0-.06-.01-.07.03-.19.06-.39.08-.58l.06-.58v-.04c-.01-.01-.01-.03-.02-.05-.02.04-.03.07-.02.1-.05.24-.1.47-.14.7-.04.23-.09.46-.13.71-.03.15-.05.31-.07.48-.02.16-.04.33-.07.5-.01.03-.03.06-.06.09 0-.01-.01-.01-.02-.02l-.03-.03-.02-.1zM3.72 15.22c-.03.02-.05.04-.07.06-.06.29-.13.58-.2.87-.07.29-.13.58-.2.87-.01.02-.01.03-.01.05.01.02.01.03.02.04.01-.01.03-.02.05-.02.02 0 .04-.02.05-.03.2-.2.4-.39.61-.58.21-.19.41-.39.6-.58.16-.17.31-.33.44-.5.13-.17.25-.35.37-.54.04-.08.08-.16.12-.23l.12-.24c.03-.07.04-.13.02-.19-.01-.06-.06-.1-.12-.13a.36.36 0 0 0-.1-.07c-.04-.02-.07-.03-.1-.05-.05-.01-.1-.02-.15-.01-.05.01-.1.03-.15.08-.09.08-.17.15-.25.21-.08.07-.16.14-.24.22-.12.13-.24.27-.35.4-.11.13-.21.27-.28.41-.05.1-.11.12-.16.05-.01-.02-.02-.04-.03-.05-.01-.01-.01-.03-.01-.04.01-.03.02-.07.02-.1.01-.03.02-.06.04-.08.26-.33.57-.63.92-.89.03-.02.07-.05.1-.06.03-.02.07-.04.1-.07a.17.17 0 0 0 .06-.06c-.01.01-.03.01-.03.01-.01 0-.02 0-.03.01l-.09.03c-.03.01-.06.03-.09.04a2.7 2.7 0 0 0-.39.27c-.12.1-.24.22-.34.35-.01.02-.02.05-.04.08s-.04.05-.06.08c-.09.06-.15.12-.16.19-.02.07-.01.14 0 .21zm2.04-4.39-.45.27c-.15.09-.3.17-.46.25-.16.09-.26.22-.31.39-.06.26-.13.51-.21.77-.07.26-.15.52-.22.78 0 .01.01.02.01.02s.01.02.01.03c.05-.02.08-.04.1-.06.36-.29.7-.59 1.04-.9.34-.31.66-.63.98-.97.05-.06.09-.11.14-.18.04-.06.09-.12.14-.18.04-.05.06-.09.06-.12s-.02-.06-.05-.1a.474.474 0 0 0-.27-.12c-.1-.01-.22.02-.36.08l-.15.05zm-3.13 6.73c.01.04.03.06.05.06l.06-.02c.05-.04.09-.08.12-.12.03-.04.04-.09.03-.14 0-.05.01-.1.01-.15 0-.05.01-.09.01-.15 0-.07 0-.15.01-.22.01-.08.01-.15.01-.23a.75.75 0 0 0-.14.24c-.02.08-.05.16-.07.23-.03.09-.05.17-.06.25-.01.08-.03.17-.05.25zm3.12-4.12v.04c-.01.01 0 .02 0 .02l.1.1c.03.03.06.06.09.1.04.05.1.04.17-.02.06-.06.07-.11.02-.14a.983.983 0 0 0-.16-.05.75.75 0 0 1-.16-.05c0 .01-.02.01-.06 0zm.99.38c0-.01-.01-.03-.02-.05a.21.21 0 0 0-.04-.06c-.04.03-.05.05-.04.07.02.02.02.04.01.07v.06c0 .02.01.04 0 .06.01.03.01.06.01.08v.09c.05-.03.08-.07.07-.1a.17.17 0 0 1 0-.1c.01-.03.01-.07-.01-.12zm-1.62-2.85c-.03.02-.08.04-.14.07-.06.03-.11.06-.17.11-.03.01-.06.03-.08.06-.02.03-.04.05-.03.06.02.04.05.05.08.02.03-.02.04-.04.06-.05.07-.05.15-.09.21-.13.07-.04.13-.09.2-.14.01 0 .01-.01 0-.03h-.02s-.04.01-.11.04zm1.19 3.24-.01-.01h-.01c-.02.01-.03.01-.03.02l-.03.1c-.02.03-.03.06-.03.1 0 .01.01 0 .03 0h.01c.02-.04.04-.07.05-.1l.03-.09zm-2.24-.55a.21.21 0 0 1-.04.06c-.02.02-.03.04-.04.05-.01.02-.01.03-.01.04.01.01.01.02.01.03l.02-.02.02-.02c.01-.02.02-.03.03-.05.01-.02.02-.03.03-.05 0-.01-.01-.03-.03-.04zm3.42.33c-.07-.28-.09-.56-.09-.86.01-.29.05-.6.11-.9.19-.77.49-1.52.89-2.27.04-.07.09-.15.15-.22.05-.07.11-.14.16-.21.08-.1.18-.17.3-.21.08-.02.14-.03.19-.01a.436.436 0 0 1 .22.19c.02.04.04.08.07.12.03.04.05.06.07.06.02 0 .05-.03.1-.08.22-.2.47-.36.73-.47.26-.12.53-.18.83-.18.17.01.33.07.48.18.16.12.29.27.4.43.1.16.16.34.16.54.03.67-.07 1.34-.31 2a9.9 9.9 0 0 1-.98 1.99c-.09.15-.19.29-.29.42-.11.14-.23.27-.37.39-.16.16-.34.28-.54.37a1.856 1.856 0 0 1-1.15.13c-.18-.04-.33-.12-.46-.22a1.22 1.22 0 0 1-.26-.3c-.07-.11-.14-.23-.2-.35-.04-.08-.08-.17-.1-.27-.03-.09-.06-.19-.1-.28zm1.13-.72c-.04.05-.06.09-.04.12.02.03.03.06.06.09-.01.02-.02.03-.03.05-.01.02-.02.03-.01.04.01.03.02.06.03.08a.3.3 0 0 0 .04.08c-.01.01-.02.02-.04.02-.01 0-.01.01-.01.02l.02.1v-.09l.02-.06c.01-.08 0-.16-.02-.25 0-.04 0-.07-.01-.11v-.15c0-.02.01-.03.01-.05 0-.01-.01-.01-.04-.02l.01.03.02.1zm-.18.1c-.03.09-.04.18-.03.25.01.08.04.15.08.22 0 .01.01.02.01.02s.01.01.01.02c0-.01.01-.02.01-.03 0 0 0-.01.01-.03-.01-.08-.02-.15-.04-.23-.02-.07-.04-.15-.05-.23.02-.01.03-.03.02-.06l-.01-.04c-.01.03-.01.05-.01.05l.01.05zm.27.61c.01.05.03.1.05.15.02.05.05.09.11.12.08.03.17.04.25.04.09 0 .17-.02.26-.06.18-.09.35-.19.51-.31.16-.12.27-.27.33-.47 0-.01.01-.02.01-.02l.01-.01c.2-.38.37-.77.51-1.14.15-.38.29-.76.44-1.15.04-.1.08-.21.12-.32l.09-.33c.01-.07.02-.15.02-.23 0-.08 0-.16.01-.24a.697.697 0 0 0-.06-.17c-.02-.02-.06-.03-.11-.03s-.08.02-.09.06c-.01.03-.02.06-.04.06l-.06.03c-.14.08-.29.18-.45.3-.15.12-.29.24-.41.36s-.21.25-.27.37c-.06.12-.08.23-.06.33.01.03-.01.05-.04.07-.03.01-.06.01-.09-.01a.138.138 0 0 0-.04-.03l-.03-.03c-.03-.06-.04-.12-.02-.17.01-.06.03-.11.06-.17.09-.16.19-.3.32-.43s.27-.25.43-.37c.03-.02.05-.04.09-.06.03-.01.06-.03.1-.06.01-.01.02-.02.02-.04 0-.01.01-.03.02-.04a.03.03 0 0 1-.04 0c-.01 0-.02 0-.04.01-.31.17-.57.39-.78.63-.04.04-.07.09-.1.13-.03.04-.06.09-.08.14-.15.29-.28.59-.39.89-.12.3-.21.6-.28.91l-.03.15c-.01.05-.02.09-.04.14-.01.01-.01.02-.01.02 0 .01-.01.01-.01.02-.01-.01-.02-.02-.02-.05.02-.19.04-.38.08-.57.04-.19.09-.38.15-.58l.03-.21c-.05.03-.07.06-.08.1-.01.04-.01.07-.02.11-.1.29-.18.57-.22.85-.04.28-.07.55-.09.83 0 .08-.01.17-.01.25v.24zm1.65-.58c.02-.02.03-.04.04-.04.1-.14.19-.28.28-.42.09-.14.17-.28.25-.42.14-.24.26-.48.36-.72.11-.24.19-.49.26-.75.01-.02.01-.04.01-.06 0-.01 0-.04.01-.06 0-.01-.01-.01-.01-.01-.01 0-.01-.01-.02-.02l.01.03c-.02.02-.03.04-.02.06-.15.41-.33.8-.52 1.18-.2.38-.41.76-.65 1.15 0 .01-.01.02 0 .03 0 .01 0 .02-.02.03.01 0 .01 0 .02.02z" style="fill:#000;fill-rule:nonzero"/></svg>