<svg xmlns="http://www.w3.org/2000/svg" xml:space="preserve" width="99.493" height="95.643" style="shape-rendering:geometricPrecision;text-rendering:geometricPrecision;image-rendering:optimizeQuality;fill-rule:evenodd;clip-rule:evenodd" viewBox="0 0 572.55 550.39"><path d="M519.47 251.5c1.62.65 1.57 2.36 1.77 4.71 1.63.13 18.14 9.28 28.86 11.78 1.34-2.53-.16-1.07 1.77-1.77-3.1-8.56-5.99-16.41-10.51-24.82-.59-1.06-.35 1.27-.68-1.68-15.42-1.69-4.13-.16-11.19 0-.23 2.73-7.57 9.61-10.02 10.6v1.18zM8.77 540c-2.59 0-6.39-4.65-7.95-8.35-3.25-7.72 3.88-21.46 7.6-29.01 2.46-5.02 4.68-10.03 6.68-15.01 7.09-17.7-.46-23.7-.46-25.9 0-1.32 1.34-2.87 3.69-2.24 4.07 1.09 9.29 5.31 11.06 9.92 3.65 9.54-1.56 22.3-5.88 31.2 5.03-7.38 22.64-32.48 28.52-35.88 5.76-3.33 12.3 2.61 12.62 7.68.59 9.45-22.57 60.25-9.91 61.38 3.64.32-.51 3.28-5.53 1.83-9.92-2.85-8.74-17.15-7.03-24.73 1.3-6.51 2.99-13.4 5.07-20.66.92-3.26 1.77-6.38 2.53-9.37-3.3 1.46-9.17 7.93-13.83 14.4-5.15 7.16-10 14.74-14.57 22.75s-8.05 14.52-10.43 19.54c-.11.47-.9 2.44-2.19 2.44zm534.26 10.38c-5.4 0-11.48-2.83-11.87-8.35-.13-1.88 2.64-1.79 3.34-.3.95 2.01 2.27 4.27 5.19 4.27 6.61 0 9.63-12.3 10.83-17.1 1.07-4.34 2.19-8.52 3.34-12.52-3.11 5.18-8.69 13.16-14.98 12.32-7.94-1.07-6.96-9.62-5.42-15.62.69-2.68 1.46-5.31 2.3-7.89 1.35-3.84 4.14-11.25 1.38-12.77-.88-.49-3.77-.57-1.15-2.24 3.36-2.15 16.03.28 11.46 14.76-.65 2.07-1.32 4.02-2.02 5.85-.82 1.95-3.28 7.53-.69 7.53 1.38 0 3.65-2.22 6.8-6.67 3.15-4.45 5.68-9.42 7.6-14.91l2.07-7.84c.28-.82 1.32-1.53 2.3-1.53 2.95 0 10.01 5.55 8.87 10.28-4.07 10.79-7.3 21.07-9.68 30.84-1.76 6.88-3.01 14.57-9.33 18.63-3.38 2.17-6.84 3.26-10.37 3.26zm-16.71-21.88c-3.68 0-7.26-1.98-8.81-5.19-5.47-11.34 4.13-33.01 7.89-43.36-1.82-.15-3.44-.25-4.85-.32l-3.09 6.83c-1.73 3.88-7.93-.88-9.56-2.24-1.38-1.15-.72-3.84-.17-6.97.42-2.41 1.44-4.63 3.05-6.67 1.23-1.09 2.88-1.63 4.95-1.63 2.41 0 6.71.71 8.93 1.83.94.47.04 1.93-.77 3.12 1.07.08 2.23.16 3.47.24 1.29-3.7 2.42-9 2.42-12.52 0-2.83 5.16-3.69 8.99 0 4.17 4.01 3.31 7.48 1.5 13.03 5.33.16 9.62.18 13.71-1.12 4.21-1.34 2.58 6.39-2.3 7.23-2.88.49-9.98.27-13.6.1-3.68 10.49-12.56 30.48-12.56 40.1 0 7.08 4.84 4.52 4.84 5.91 0 1.01-2.45 1.63-4.03 1.63zm-17.51-.1c-7.89 0-10.83-7.01-10.83-14.05 0-8.84 2.88-17.76 5.76-25.45.99-2.64 5.03-1.69 8.01 1.53 1.96 2.12 3.46 4.86 2.59 6.72-1.87 4-11.87 28.67-2.88 29.11 3.03.15.64 2.14-2.65 2.14zm-38.37 6.62c-18.7 0-33.18-11.69-33.18-30.03 0-23.23 21.97-51.13 47.13-46.82 12.89 2.21 20.68 14.8 16.13 25.44-7.78 18.23-33.64 15.75-33.64 5.19 0-1.51.51-5.1 3.11-4.17 4.61 1.65 8.68 1.72 12.79-1.53 3.45-2.73 7.26-7.86 7.26-12.01 0-3.16-4.31-4.99-6.91-4.99-10.72 0-22.52 14.96-27.88 24.43-7.89 13.93-9.98 31.71 8.64 36.23 5.48 1.33 11.57.98 16.94-.66 7.95-2.43 8.15-6.07 10.71-4.48 1.31.81 3.06 9.17-10.95 12.26-3.38.75-6.76 1.12-10.14 1.12zm-94.36-5.4c-4.79 0-9.76-2.88-12.56-7.94-4.72-8.53 12.03-34.91 23.85-34.91 3.23 0 5.29 1.7 6.45 4.27.5 1.1.17 2.07-.92 2.75-7.27 4.52-22.33 27.38-14.98 27.38 4.44 0 10.51-10.9 12.56-14.76 1.84-3.46 3.07-5.84 3.69-7.12 1.15-4.07 2.26-7.53 3.34-10.38 2.04-4.56 10.95 1.97 10.95 7.02 0 1.15-1.29 3.59-2.48 6.67-1.43 3.69-8.81 23.26-.64 23.66 3.45.17-.57 3.12-5.64 1.73-5.76-1.57-7.81-6.89-7.95-12.52-2.42 2.96-10.64 12.92-13.25 13.84-.61.2-1.42.3-2.42.3zm-20.63.31c-5.6 0-9.33-4.07-9.33-9.77 0-8.32 5.65-17.22 5.65-21.48 0-3.32-3.2-.61-5.47 2.09-2.04 2.41-4.01 5.45-5.93 9.11l-2.94 9.72c-1.86 6.44-.17 6.42-.17 7.89 0 3.23-14.84 1.45-9.56-15.11 1.28-4.02 4.38-11.15 4.38-13.79 0-3.06-3.1-.72-5.64 2.44-4.21 5.24-9.13 14.14-10.6 20.97-.68 3.13 3.4 6.41 0 6.41-2.78 0-6.28-1.99-7.66-4.83-5.23-10.77 3.86-23.64 3.86-34.35 0-3.06 5.53-3.49 8.99 0 3.45 3.48 3.23 6.29 1.38 10.38 2.94-4.91 8.73-13.74 14.52-12.82 6.06.95 6.21 6.76 5.99 11.4 2.85-4.45 8.38-12.34 13.71-11.4 7.83 1.38 6.42 11.74 4.9 17.56-.8 3.09-1.67 6.12-2.59 9.11-1.3 3.89-4.37 12.51-1.44 13.69.54.22 3.68.6.98 2.19-.69.41-1.69.61-3 .61zm-82.15-1.12c-4.98-.63-7.26-3.04-7.26-8.25 0-10.25 7.62-22.93 5.53-27.38-.68-1.45-4.87-1.07-1.84-3 3.31-2.11 16.08.25 11.46 14.86-1.19 3.78-3.86 9.33-3.86 11.86 0 .8.34 1.42 1.04 1.42 1.31 0 3.42-1.99 6.34-5.96 2.92-3.97 5.38-8.53 7.37-13.69.31-1.09.62-2.17.92-3.26l2.31-6.51c2.04-4.56 10.94 1.97 10.94 7.02 0 1.15-1.29 3.59-2.48 6.67-1.43 3.69-8.81 23.26-.63 23.66 3.45.17-.57 3.12-5.65 1.73-6.94-1.9-7.95-8.82-7.95-15.16-2.97 5.54-9.32 15.98-16.25 15.98zm14.52-43.36c-2.5 0-4-2.25-3.57-3.36l5.08-9.38c-4.28-1.18-9.41-1.97-14.2-2.42 3.71 1.33 1.16 1.1-3.1 10.01-1.15 2.41-2.07 4.46-2.77 6.16-1.73 3.88-7.93-.88-9.56-2.24-1.38-1.15-.72-3.84-.17-6.97.43-2.47 1.84-6.31 4.38-7.55l-12.51.17c1.42 1.62 2.42 3.44 2.42 5.39 0 10.73-21.31 49.69-14.63 57.3 4.62 5.27-7.07 4.08-10.66-1.98-3.22-5.45-2.1-12.24-.17-18.07 1.31-4.27 2.96-8.96 4.95-14.05 3.18-8.25 7.2-19.48 7.84-27.79-9.75 1.09-19.13 3.19-28.11 6.31 2.61 1.15 4.26 3.39 4.95 6.72.17 1.63-1.57 2.4-2.42 1.63-3.15-2.88-7.19-3.68-10.83-4.68-1.59-.44-1.47-3.52-1.38-4.99.11-1.8 7.09-5.6 8.64-6.31 15.74-7.18 38.25-9.87 56.11-9.87 9.75 0 18.13.85 25.12 2.54 9.08 2.2 14.39 6.38 9.33 13.08-1.69 2.24-4.27 3.83-5.88 1.37-.11-.17-.25-.34-.4-.51-3.22 3.31-5.12 5.7-7.2 8.65-.31.41-.73.68-1.27.81zm-27.19 42.95c-7.89 0-10.83-7.01-10.83-14.05 0-8.84 2.88-17.76 5.76-25.45.99-2.64 5.04-1.69 8.01 1.53 1.96 2.12 3.46 4.86 2.59 6.72-1.87 4-11.87 28.67-2.88 29.11 3.03.15.64 2.14-2.65 2.14zm-118.44 1.22c-4.79 0-9.76-2.88-12.56-7.94-4.72-8.53 12.03-34.91 23.85-34.91 3.23 0 5.29 1.7 6.45 4.27.5 1.1.17 2.07-.92 2.75-7.27 4.52-22.33 27.38-14.98 27.38 4.44 0 10.51-10.9 12.56-14.76 1.84-3.46 3.07-5.84 3.69-7.12 1.15-4.07 2.26-7.53 3.34-10.38 2.04-4.56 10.95 1.97 10.95 7.02 0 1.15-1.29 3.59-2.48 6.67-1.42 3.69-8.81 23.26-.63 23.66 3.45.17-.57 3.12-5.64 1.73-5.76-1.57-7.81-6.89-7.95-12.52-2.42 2.96-10.64 12.92-13.25 13.84-.61.2-1.42.3-2.42.3zm-33.76-1.42c-9.43 0-8.97-10.17-7.83-17.2.38-2.38.81-4.72 1.27-7.02.72-3.16 2.94-11.88.11-13.13-1.07-.48-4.02-.79-1.38-2.34 3.14-1.85 16.34-.42 13.08 16.9-.65 3.46-2.13 8.75-2.13 11.3 0 4.22 7 4.36 11.35-15.42 1.5-6.83 1.75-10.23 1.32-15.93-.18-2.46 3.74-1.81 5.7-.35 1.03.76 2.48 1.77 2.48 2.8 0 5.86-3.66 16.9-6.45 23.26-3.23 7.35-9.11 17.15-17.51 17.15zm-29.84 1.42c-6.02 0-13.09-3.07-15.67-7.58-3.99-6.97-3.05-11.72-.81-20.05 1.31-4.85 3-9.01 5.07-12.47 1.38-2.36 6.04.95 7.49 2.14 5.14-8.43 15.6-5.88 19.53 1.27 7.74 14.07 1.24 36.69-15.61 36.69zm-5.3-5.5c8.52 0 19.31-26.96 12.9-32.57-4.12-3.61-12.26 13.74-2.53 10.18 1.69-.62 3.93 1.12.8 4.02-2.15 1.99-7.68 1.13-9.68-1.98-1.83 3.94-7.8 16.48-3.57 19.64.69.47 1.38.71 2.07.71zm253.67-403.8c3.37-.45 2.05.64 2.83-1.29h2.95c.33 3.04.85 2.05 1.18 2.94-8.29.69-2.81 1.77-10.6 1.77-.13-1.59-.28-1.6-.59-2.94 1.98 0 2.76-.28 4.24-.47zm-46.65-18.96c0-5.46 2.71-5.15 3.53-8.24h1.77c0 3.49-.45 7.84-5.3 8.24zM259.1 81.93l-.59 2.36h-1.18v-2.36h1.77zm0 0v-2.36c4.6-1.66 3.89-7.65 9.42-7.65-1.27 3.51-7.41 7.73-7.66 10.01h-1.77zm34.17 5.89c0-5.82 6.01-18.12 11.78-18.25-.53 6.34-7.62 10.73-8.25 16.48h-1.77v1.77h-1.77zm-29.45 5.3c-.6 5.45-9.45 6.88-11.19 11.19h-1.77c-.26-3.08.56-1.06-1.18-1.77 5.21-10.86 36.59-26.6 25.29-40-1.3-1.54-.42.2-1.14-1.8h-9.42c-1.47 3.63-7.78 3.36-8.25 7.65-6.9.75-19.93 32.52-16.25 39.79 1.69 3.08 1.27.12 1.52 3.19 2.93.07 4.96 1.42 7.66 2.36.79-1.94 11.45-7.73 13.88-10.26 2.15-2.24 1.89-2.48 4.38-2.69 0 14.99 14.12 11.47 24.98 7.3 15.31-5.88 14.78-6.51 28.58-22.65 2.01-2.36 7.98-8.37 8.88-11.73h1.18c.41 1.53-.22.66 1.18 1.18v2.94c-8.87 2.06-18.76 28.62-21.21 35.92-24.96 9.83-43.97-.07-51.84.59 0 28.79 26.15 16.96 44.46 12.05 1.9-.5 3.7-.01 4.43-2.04h2.95c.91 2.25 3.19 1.6 3.53 4.71 11.26 1.23 17.05 1.39 26.85-6.13 6.88-5.27-.24-12.12-15.07-12.12-1.11-13.3 21.36-27.77 22.38-37.09h1.77c.14-1.67.19-2.89 1.77-3.53v-3.53c-1.51-.61-1.61-1.63-1.77-3.53-3.75-.41-1.19-2.31-5.89-2.36-1.08 2.68-3.82 2.21-4.12 5.89l-4.69.69c.1-6.47 8.64-11.25 3.1-17.94-1.75-2.11-1.28.1-1.36-3.36h-4.71c-2.38 6.07-8.28 12.71-8.29 19.39 0 9.6-7.49 16.08-13.51 22.41.68-2.23 1.71-3.28 1.77-5.89h1.77c.19-8.62 5.74-7.34 2.06-16.19-3.47-8.36-8.18-4-15.02-5.59 3.97-10.96 17.42-23.21 10.13-35.44-1.09-1.83-3.2-3.5-3.65-5.19-9.49 13.35-32.01 72.58-44.18 73.6zm-113.1 34.15c5.04-.55 4.98-2.64 12.96-1.77-.63.6-.9 2.09-1.18 2.94-9.74.81-2.04.81-11.78 0v-1.18zm73.82-5.7c2.62-1.18 3.55-.77 6.89-.77 0 6.95-8.04 5.47-11.19 1.77l4.31-1zm-64.98-83.79c5.52-2.23 31.18-42.59 44.6-21.61 8.76 13.69-21.27 60.62-31.77 73.29-2.54 3.06-6.84 5.44-6.94 9.55-2.39.2-13.72 9.28-14.73 11.78h-2.94c-1.46-3.62-11.46-2.95-14.73-1.77v5.3c2.31.25 3.35 1.27 3.53 3.53h-8.25c-5.65-10.67 8.02-29 13.74-38.08 3.71-5.48 2.53-6.67 11-6.67 2.28-20.83 23.96-24.17 24.15-32.97-8.07-.88-5.18-5.83-16.49 0-.52-1.39.35-.77-1.18-1.18v-1.18zm-.59-20.02c-.02.16-15.22 23.71-17.27 28.66-8.36 20.2 3.04 2.31-15.68 32.02-30.65 48.65 10.13 46.7 17.38 52.02 15.66 11.48 21.12-1.17 39.94 9.53 30.52 17.35 41.86 3.3 33.77-.19-6.43-2.77-14.05-4.7-20.45-7.23-.26-3.08.56-1.07-1.18-1.77v-1.77c2.66-.22 4.09-.59 7.66-.59l.66-2.33c7.57-.05 6.99-.1 11.91 5.08 1.26 1.14 3.39 1.25 3.92 2.56h1.77c.91-2.26 20.03-3.04 20.03-13.54 0-9.3-13.53-7.12-18.26-8.83v-1.77c4.02-1.62 29.42-44.45 12.11-46.15-3.02-.3-12.62 17.4-12.7 20.83h-2.36c-.21 2.51-6.98 11.14-10.01 12.36-3.08-6.65 16.04-17.57 7.63-29.41-1.49-2.1-1.52-.86-1.74-3.56-8.55-.71-9.15 13.73-19.82 33.76-6.13 11.51-.63 9.4 2.15 16.28h1.77c.63-1.56 5.63-4.08 7.66-4.12v-1.77h1.77c.23-2.78 3.78-6.34 6.48-7.06 0 19.57-16.63 13.82-29 18.11-9 3.12-13.49.14-21.07-1.63v-2.94c5.62-1.5 26.56-23.37 27.1-28.26h1.77c.12-1.49 55.03-84.79-2.36-84.78-17.43 0-27.62 15.83-33.58 16.49zM73.56 29.54c0-28.63 55.09-16.11 34.13 14.1-6.25 9.01-16.38 7.92-25.3 6.51v-1.77c-8.95-.98-8.83-12.65-8.83-18.84zM108.9 4.81c3.25-1.26 4.53-.16 6.48 0 .33 3.04-.69 1.07 1.18 1.77v2.94c-1.1.44-1.13.2-1.77 2.94h-4.71c-1.56-4.3-2.39 2.01-1.18-7.65zM60.6 22.47c.51 21.91-4.5 40.33 19.42 42.41 17.53 1.53 40.02-4.73 40.08-4.73.69-6.35 6.36-2.02 4.75-39.49-.29-6.76-4.2-12.51-4.75-17.62-3.4-.37-49.98-8.72-56.72 3.95-2.22 4.18-2.77 10.52-2.77 15.48zm21.79 0c-.23 2.74-.54 2.97-2.94 3.53v11.19c1.57.63 2.78 2.71 2.94 4.71 5.06.42 22.97 11.68 22.97-12.36 0-17.11-22.02-7.17-22.97-7.07zm276.27 67.71v2.36h-1.77c.55-2.39.16-1.77 1.77-2.36zM73.16 365.33c3.67-2.24 6.38.34 8.64.39 1.77 21.28-11.5 7.42-12.37 7.06v-3.53c1.98-.8 1.22-2.39 3.73-3.93zm4.52 36.31c5.79-.63 19.89-21.74 22.4-28.25 3.7-9.58 7.36-22.89 6.47-33.57-30.57 0-49.01 20.63-54.19 21.2v1.77H50c-.77 9.27-8.3 8.24-20.03 8.24-.95 2.34-9.47 6.11-11.96 10.42-1.26 2.17-3.48 8.11-5.71 9.01v3.53c7.06 0 13.29 1.18 20.62 1.18 3.42 6.47 11.3 12.5 16.24 17.92 7.07 7.65 1.49 14.57 3.79 24.47 6.88 0 11.96-9.49 18.26-10.01.01-.36 6.13-21.7 6.48-25.91zm-55.96 34.15c1.98-4.89 31.77-10 24.23-21.86-18.87-29.69-34.91 6.94-29.53 21.86h5.3zm48.07-153.32c15.43-11.67 16.96-43.07-.35-44.51 0-10.21-1.63-34.84-9.42-42.39-16.39 3.82-2.52 19.33-7.66 30.03-9.38-2.18-9.15-29.67-23.7-20.16-11.01 7.19 23.29 28.58-6.93 36.65v5.89c7.27 2.93 4.84 45.85 32.79 38.7 5.51-1.41 10.47-.57 15.28-4.2zm28.26-112.55c-4.05-4.63-8.71-18.79-7.4-24.39 17.91 0 19.36 15.71 9.42 27.08-.59-1.63-1.36-1.93-2.02-2.69zm-35.09-40.88c-13.58 0-12.15-12.47-8.25-21.2h4.12c.58 6.98 5.33 13.9 7.07 20.61-1.32.31-1.36.59-2.94.59zm-2.13-44.38c-5.02-3.6-2.76-9.2-11.42-9.2-1.05 2.89-3.27 11.63 0 12.95v2.94c-14.48 5.24-23.64 32.04-12.18 46.32.75.94.87 1.77.99 3.14 5.6.61 8.71 8.97 27.16 8.9 1.75-.01 2.9.17 3.47-1.24h7.07c1.64 3.71 9.32 25.26 12.37 26.49v1.77c-1.37.5-1.88 1.03-2.36 2.36h-1.77c-.89-2.21-9.04-7.57-12.96-7.65v-1.77c-3.09-.34-.6.25-2.33-1.2-9.54-8.02-11.78-1.02-15.93-.56-1.57 18.92 2.76 10.79 3.53 20.02 1.12.02 26.81 15.93 30.63 6.47h9.42c2.03 7.6 9.77 16.21 11.78 21.2h3.53c.7-1.74-1.31-.92 1.77-1.18.43-3.93-.03-20.95-6.48-23.55v-3.53c24.28-8.78 27.39-54.06-3.93-62.56-21.78-5.91-20.17 15.6-32.87-19.02-.65-1.78-1.84-4.12.28-4.97 1.28-4.15 19.54 20.94 28.54 2.62 1.92-3.91 0-13.1-4.97-13.22v-1.77c-5.91-.49-4.28-4.12-25.92-4.12-1.87 0-3.43.04-4.12 1.77h-1.77c-.97-2.41.19-.16-1.54-1.4zm437.44-9.2c-3.16 9.2-.59 14.24 1.77 23.55-6.98-.16-13.39-11.16-22.18-5.1-3.21 2.21-3.46 30.69.05 32.51l7.4 2.02c-.01.27-31.62 44.99-18.26 39.45 7.31-3.04 18.88-37.09 28.86-37.09-.36 3.32-2.78 6.2-2.41 10.61.25 2.99 2.1 3.04 2.41 5.87 7.59.83 12.31-2.42 22.53 2.21 6.76 3 7-1.87 10.45-2.79v-11.19c-2.04-.82-7.66-12.29-7.66-14.72 12.25 4.43 10.59 11.44 27.69 7.65.2-9.1 2.64-24.1-2.36-33.56h-11.19c-.76 1.87-6.83 3.5-9.42 4.12 5.2-10.27 3.83-11.71 2.94-22.37-8.52-.93-21.45-1.18-30.63-1.18zm-47.71-3.53c.39-3.53 1.03-.89 3.53-3.53 0 8.72-12.2 13.05-12.96 20.02-1.76.19-1.5.27-2.36 1.18 2.89-5.72 9.41-12.19 10.01-17.66h1.77zm-54.19 20.61c.14-6.23 11.84-22.03 17.67-24.14 0 8.43-14.59 17.85-14.73 24.14h-2.94zm-37.7-2.36c.11-4.92 9.88-18.65 14.73-20.61 1.81 3.91-10.17 20.23-14.73 20.61zm3.53-71.24h-2.94c-.47 20.86 7.47 21.54 25.63 18.55 9.85-1.62 48.05-16.34 49.77-12.07.72.22-11.22 25.99-13.16 29.83-1.54 3.06-14.24-2.86-26.57 16.42-3.1 4.85-12.71 22.74-18.59 23.23.79-9.48 7.84-11.5 5.3-22.37l2.94-2.36v-5.3c-3.78-1.53-13.86-15.44-31.26 9.97-5.47 7.99-10.34 16.24-12.71 25.56-.7 2.75.59 1.36-1.38 2.15v2.36c6.13 2.47 5.02 10.19 14.39 2.02 1.3-1.31 1.09-1.78 3.28-2.02.3-3.66 2.97-5.89 6.48-5.89 0 20.37 9.56 5.3 16.49 5.3 1.12 13.51 15.07-2.49 21.21-4.71 0 3.58.59 4.72.59 7.65 14.97 1.25 4.86 1.73 18.26-5.89 0 3.78 1.09 1.81 1.18 5.89 9.86.82 6.04 2.92 14.89-4.54 2.12-1.72 4.51-3.35 5.14-6.05h2.36c0 30.66 33.29-12.99 33.57-23.26-5.92-1.14-23.54 28.03-14.92 8.93 2.21-4.9 2.53-5.48-.39-11.58 1.33-1.81-.38-.95 2.36-1.18.08-3.57-.38-1.73 1.18-2.36v-3.53c-1.51-.61-1.61-1.63-1.77-3.53-12.43-6.1-15.71 2.93-22.97 3.53-.5 4.55-19.04 25.01-22.38 29.44h-1.77c0-13.03 38.99-55.52 31.6-71.03-1.23-2.21-3.31-3.86-4.5-6.1-6.61 0-5.13.7-5.89-1.18h-2.94c-.58 1.44-20.75 4.36-24.31 5.14-50.1 10.96-39.78-1.01-48.14-1.01zm-169.06 314.4c15.36 0 36.73-24.02 69.51-9.42-23.82 0-41.09-1.04-63.35 10.28-1.96.99-5.45 1.8-6.16-.86zm121.35-10.6c0-4.8 3.82-8.52 8.25-8.83-7.92 21.88 52.81 30.53 67.59 25.16l12.72-4.54.39-6.49c6.88 1.83 4.53 11.07 4.12 16.48-1.37-.55-1.84-1.52-2.36-2.94h-1.77c-.76 9.13-11.68 16.48-12.37 24.73h-2.36c-.2 8.89-32.19 22.61-46.27 12.1-2.47-1.84-4.7-1.12-4.98-4.44h-1.77v-1.77c-12.5-1.37-13.99-38.71-19.96-44.22-1.25-1.15-1.24-3.3-1.24-5.23zm45.13-7.43c-6.21-4.68-8.81-6.12-16.85-6.12v-1.77c7.34-.61 8.36-2.85 14.5 2 7.47 5.9 12.73 3.03 20.59.24 2.87 1.63 7.04 2.58 7.33 6.01-6.81 0-10.01-2.13-18.67.79-2.99 1.01-4.33.21-6.89-1.15zm-164.71 9.78c-2.23-5.52-9.65-7.91-2.21-28.11 7.88-21.41 42.23-23.88 63.47-12.51.56 5.14 23.78 33.26-6.28 27.47-14.91-2.87-49.84 4.79-53.22 13.16h-1.77zM88.29 289.17c0-12 40.87-12.38 43-17.66h6.48c.56 2.41.54 2.38 2.94 2.94 0 9.03 8.58 25.99 16.49 28.85v1.77c-18.13 1.51-54.55 9.29-66.4-10.17-3.23-5.3-2.52-.62-2.52-5.73zm91.71-3.71c1.08-1.65-.62-.13 1.36-1.58 2.25 1.65.08 1.55 3.53 2.36v4.71c-2.94 1.07-2.67 1.45-5.89 1.18-.24-2.85-1.06-3.52.99-6.66zm219.32-20.42c.58 1.43 25.33 9.27 25.33 27.08-1.54 0-21.51-7.42-38.32-8.21-3.47-.16-2.73-.76-4.68-1.79 0-12.4 14.02-13.87 15.31-17.07h2.36zm-229.14 10.01c0-3.63 1.54-3.78 1.77-5.89 5.96 0 2.98 3.3 6.48 4.71v3.53c-4.62 1.86-8.25 5.49-8.25-2.35zm147.85-10.01c7.65-.64.25-8.24 28.86-8.24 1.49 6.42 8.83 4.91 8.83 21.2-3.47 0-12.17-1.89-14.89-2.78-9.01-2.93-23.38-.38-27.43-1.37l-.68-1.15c.97-3.64 5.22-3.93 5.3-7.65zm-138.6-9.59c.37-.62 2.41-1.73 3.12-2.18 2.38 6.58 6.6 12.08-4.12 11.19 0-1.66.33-2.93-1.18-3.53v-1.77c.94-.38 1.02-1.61 2.18-3.71zm22.56 5.47c8.85 0 11.35 3.5 19.91 1.66 4.15-.89 23.28-16.7 26.04-6.37-17.05 2.75-27.18 18.42-40.85 9.63-1.84-1.12-10.14-1.07-13.93-1.39.36-4.33 3.15-3.53 8.84-3.53zm180.25-12.36c10.39-2.42 22.24-4.4 32.28-7.19 19.18-5.33 16.61 12.36 16.61 27.79-3.14-3.31-5.69-14.72-8.25-20.61-4.36-.36-18.13-3.95-31.57 2.59-3.83 2.43-4.38 1.19-4.95 3.3h-1.77c-.58-1.61.03-1.21-2.36-1.77v-4.12zm-69.51 1.18c0-7.9 6.39-16.62 10.42-23.14 4.52-7.31 32.83 16.66 42 16.66 0 3.66-2.17 6.2-5.89 7.06-14.13-15.65-37.11-24.74-38.29-10.6h-1.77c-.38 3.48-4.08 7.58-6.48 10.01zm-147.69-8.08c7.78-11.58 25.79-14.08 35.79-24.28 1.51-1.48.67-1.19 2.33-1.79 7.9 33.91-24.23 28.46-34.6 31.95-3.12.97-3.6 1-6.04.43l2.52-6.31zm63.47-13.14c-2.88-2.73-7.31-12.93-5.32-16.47 4.58 1.22 9.54 4.26 14.3 5.73 11.01 3.39 20.73 1.27 30.35 7.94 2.14 1.57.56 1.43 3.07 1.64.31 2.86.42.85 1.18 2.94-3.89 1.41-27.64 4.91-28.27 6.48h-2.94c-.84-2.08-9.91-5.87-12.35-8.26zm61.83-8.22c4.93-1.99 6.28-8.24 12.96-8.24-.2 8.8-3.52 13.03-6.48 21.2h-1.77c-.19-1.75-3.65-9.58-4.71-10.01v-2.94zm-118.4 0c6.4-.7 28.61-18.27 29.45-20.61h1.77c0 10.61-31.44 31.11-37.7 31.79-.33 3.01-6.07 7.62-8.25 10.01 2.54-13.2 7.45-8.75 14.72-21.2zm58.87-12.33c-4.75-2.14-8.35-5.33-12.34-8.87 2.11-.23.72.54 1.18-1.18h2.94c1.37 3.4 37.82 9.21 45.83 17.19 1.8 1.8-.71 1.3 2.47 1.65v1.77c3.31.07 2.94.26 2.94 3.53-5.39-.59-11.27-7.4-16.9-9.02-8.19-2.36-17.98-1.79-26.14-5.08zm86.62-8.87c0-6.1 82.04-68.4 118.2-21.58 5.29 6.85-2.14 7.88-2.74 13.34-5.29.44-42.27 30.77-48.27 31.24-10.08.8-67.19-15.36-67.19-23zm104.85 22.96c.11-1.34 17.32-16.43 19.6-21.62 9.06-20.62 1.4-44.01-17.62-54.55-48.02-26.61-103.04 28.53-139.23 53.8 0-8.17-2.14-57.15-18.66-50.48-17.41 7.03-34.53 13.28-52.45 18.26-23.28 6.46-53.5 1.48-76.15 3.96-.87 7.96-5.11 18.93-2.2 29.87 3.75 14.07 8.31 34.86 5.15 48.43-15.85 0-53.45 9.51-58.53 25.7-7.22 23.02 7.69 53.4 33.81 53.18 6.04-.05 11.52 3.77 18.42.79 3.31-1.43 33.33-1.21 34.58-4.3h9.43c.17 2 3.49 8.77 5.3 9.42v2.36c-11.71 4.24-24.64 7.34-35.6 15.05-1.34.94.63.55-2.1.85-.18 1.59-25 31.51-9.96 54.7 10.08 15.54 88.55-8.8 119.52 2.41v1.77c-25.39 9.19-45.96 27.52-85.23 16.89-1.34-.43-.72-.4-2.54-.4-1.25 5.34 1.26 7.61 2.41 10.55 1.63 4.19-13.26 17.15 20.57 15.36 40.68-2.15 67.72-21.2 67.74-21.2.08-.97 25.24-44.42-12.99-48.84-40.25-4.65-124.45 22.83-99.04-7.21 13.95-16.49 48.27-23.6 67.41-14.76 28.58 13.2 59.6-18.16 62.88-48.13h2.36c14.47 32.4 18.45 30.12 31.4 67.53 6.88 19.88 20.85 38.69 43.39 38.47 19.71-.19 27.34-9.71 31.24-10.03.43-3.95 32.71-43.34 34.75-43.57.36-3.31 22.97-21.99 26.93-29.02 1.32-2.34 4.44-16.14 2.53-16.91v-7.07c19.45-7.04 44.31-15.69 65.39-12.36 0 14.4-50.14 27.33-51.25 40.63h-1.77c-.66 6.03-9.66 14.25-12.38 20.6-6.06 14.13-20.09 71.29 11.63 59.91 35.27-12.66 43.95 4.28 53.17 4.28 0-9.32-3.53-6.63-3.53-16.49 3.22-.35 1.2-1.32 3.53-3.53-9.65-3.49-10.92-19.53-54.01-6.89-2.09.61-10.36 1.74-11.37-.77-7.77-3.13 14.28-30.67 14.73-34.74h1.77c1.6-14.59 69.93-30.55 58.14-65.76-6.29-18.79-3.45-29.74-55.96-13.31-4.27 1.51-6.67.22-7.48 3.71-2.16 0-14.52 3.01-14.73 2.35-4.18-1.69 7.9-46.63 3.45-64.09-.49-1.51-1.05-1.79-1.09-3.62-3.84-.42-5.85-4.01-11.25-2.41-7.61 2.25-4.17 1.24-14.08 1.24zm116.63 165.45c-2.71-1.09 3.41-17.38 3.53-18.84 2.29.19 1.54.53 4.12.59.56 6.7 8.1 12.31-2.76 17.85-2.34 1.19-1.07-.6-1.95 1.58l-2.94-1.18zm-5.3-50.05c0-5.35 2.22-3.45 3.53-7.06h6.48c0 7.14-3.53 9.27-3.53 15.89h-2.36c-1.12-4.18-4.12-2.98-4.12-8.83zm21.8-17.07c-.14-6.27 1.19-11.12-4.71-11.19-.7 1.74 1.31.92-1.77 1.18-.36 4.28-1.63 4.55-2.36 7.65-12.18 0-17.57 3.82-21.21 4.12v1.77H523c-4 14.31-7.57 21.19 5.4 33.46 4.24 4.01 5.19 3.82 6.97 8.93-2.12.86-3.97 14.19-4.71 17.08h-2.94c-1.51-6.48-6.52-14.06-7.07-20.61h-7.66c-1.71 4.22-11 7.84-.76 23.13 2.7 4.02 1.64 4.47 4.88 4.54v1.77c4.31.47 6.6 6.28 10.01 7.65v1.77c-4.83 1.95-1.88 13.46-1.18 16.49h2.94c.59-2.23 5.3-12.43 5.3-17.66 49.77-4.14 24.84-32.97 24.15-41.21-3.53-.38-5.75-5.49-9.42-5.89-.28-3.35-1.06-17.22 2.94-18.84.6-1.95.57-.05 2.95 0 3.73 10.84 1.36 15.02 14.72 14.72 4.33-11.16-2.81-24.81-14.14-28.85zm-70.69-113.04c0-6.17 11.39-3.61 12.21 2.49.34 4.25-3.15 4.91-3.96 6.93h-2.94c-2.16-5.34-5.3-.05-5.3-9.42zm64.84 14.68c-6.82-12.25-14.94-13.5-28.32-13.5-2.41-10.35-35.06-26.04-46.56-25.89-10.4.14-17.71-5.27-11.76 11.76 4.81 13.77 2.89 19.28 13.86 32.08 24.23 28.26 9.38 7.47 15.42 25.8 2.27 6.91 6.61 11.77 13.75 16.28 13.85 8.76 8.23-7.15 8.23-14.7 0-5.45 3.22-3.85 3.53-7.65 5.09-.56 5.69-8.82 11.19-9.42.51-6.14 19.34-9.92 21.21-5.3h2.36c.52-1.4-.35-.77 1.18-1.18v-1.77c-1.78-.72-2.99-4.51-4.08-6.52z" style="fill:#000"/></svg>