<svg xmlns="http://www.w3.org/2000/svg" xml:space="preserve" width="96" height="72" style="shape-rendering:geometricPrecision;text-rendering:geometricPrecision;image-rendering:optimizeQuality;fill-rule:evenodd;clip-rule:evenodd" viewBox="0 0 45.61 34.21"><defs><style>.fil0{fill:#282829}.fil4{fill:#000}.fil2{fill:#fff}</style></defs><g id="Camada_x0020_1"><g id="_2483693383728"><path class="fil0" d="M35.75.22c.1-.05.21-.08.34-.08h3.13c.36 0 .65.24.66.55l.19 6.94c0 .16-.06.29-.19.4-.13.11-.29.17-.47.17H37.2c-.19 0-.35-.06-.48-.17-.01-.01-.02-.02-.03-.02-.12.12-.3.2-.51.2h-2.24c-.16 0-.31-.04-.43-.13-.12.08-.26.13-.42.13h-2.17c-.2 0-.37-.06-.5-.19a.501.501 0 0 1-.16-.44L31 2.66h-.44l-.77 5.06c-.04.28-.32.49-.66.49h-2.17c-.11 0-.22-.02-.31-.06-.09.04-.2.06-.31.06h-3.75c-.2 0-.37-.06-.5-.19a.501.501 0 0 1-.16-.44l.39-2.56c-.13.07-.27.14-.41.19-.44.16-.94.21-1.42.21l-.35 2.31c-.04.28-.32.49-.66.49h-2.17c-.2 0-.37-.06-.5-.19a.53.53 0 0 1-.17-.33c-.22.16-.48.28-.75.39-.53.2-1.11.29-1.69.29-.61 0-1.23-.09-1.77-.35a2.3 2.3 0 0 1-.52-.33l-.01.04c-.04.28-.32.49-.66.49H7.49a.74.74 0 0 1-.42-.12c-.11.08-.26.12-.42.12H4.64c-.12 0-.23-.02-.33-.07-.1.05-.21.07-.32.07H1.82c-.2 0-.37-.06-.5-.19a.501.501 0 0 1-.16-.44L2.21.66c.04-.28.32-.49.66-.49H4.4c.44 0 .88 0 1.32.03.29.01.6.03.88.09.53.1.94.36 1.22.74l.06-.37c.04-.28.32-.49.66-.49h3.61c.2 0 .37.06.5.19.08.08.14.17.16.27.21-.14.44-.26.69-.35.51-.18 1.06-.25 1.6-.25.57 0 1.16.07 1.69.28.35.14.66.34.87.61l.04-.26c.04-.28.32-.49.66-.49h2.18c.49 0 1.06.02 1.53.14.33.09.66.22.9.43l.01-.08c.04-.28.32-.49.66-.49h3.61c.14 0 .27.03.38.1.11-.06.24-.1.38-.1h2.17c.09 0 .17.01.25.04a.69.69 0 0 1 .25-.04h4.72c.12 0 .24.03.34.08zm-.95 2.43h-.29l-.27 1.81.56-1.81zm-7.73 0h-.87l-.03.21h.59c.1 0 .19.02.27.05l.04-.25zm-.4 2.63c-.03 0-.07.01-.11.01h-.76l-.06.41h.86l.06-.41zm-9.35-1.92c-.04.01-.07.01-.11.01h-.67c.27.19.52.39.7.59l.09-.6zm-5.5-.71h-.69l-.03.21h.59c.04 0 .08 0 .12.01 0-.07.01-.14.01-.21zm.42 1.54-.06.41h.53c-.11-.08-.21-.16-.3-.23-.06-.05-.12-.11-.17-.17zm-.76 1.1h-.75l-.06.41h.75c.01-.05.01-.1.02-.15l.04-.25z"/><path d="M2.92.7h1.53c1.02 0 1.71.03 2.06.1.35.07.62.23.81.5.19.27.24.7.15 1.29-.08.54-.22.9-.41 1.09-.19.19-.52.3-1 .33.41.09.69.21.81.36.12.15.2.29.21.41.02.12-.02.47-.1 1.03L6.7 7.64H4.69l.35-2.31c.06-.37.06-.6 0-.69-.05-.09-.23-.13-.53-.13l-.47 3.13H1.87L2.92.7zm1.99 1.18-.23 1.54c.24 0 .41-.03.52-.08.1-.06.18-.24.23-.54l.06-.38c.03-.22.01-.37-.07-.43-.08-.07-.25-.1-.5-.1zM8.58.7h3.61l-.21 1.39h-1.44l-.2 1.32h1.35l-.2 1.32h-1.35l-.23 1.53h1.59l-.21 1.39H7.54L8.59.71zm8.62 2.11h-2.01l.08-.51c.04-.24.03-.39-.01-.46s-.12-.1-.24-.1c-.13 0-.23.04-.31.13-.08.09-.13.22-.16.4-.03.23-.02.4.04.52s.24.26.55.42c.89.48 1.43.87 1.63 1.18.2.31.25.8.15 1.48-.07.49-.2.86-.37 1.09-.17.23-.47.43-.89.59-.42.16-.89.24-1.42.24-.58 0-1.06-.09-1.44-.27-.38-.18-.61-.42-.7-.7-.08-.28-.09-.69-.01-1.2l.07-.45h2.01l-.13.84c-.04.26-.04.43.01.5.04.07.14.11.28.11s.26-.05.34-.14c.08-.09.14-.23.17-.42.06-.41.04-.68-.08-.8-.12-.13-.42-.34-.92-.63-.49-.3-.81-.51-.97-.65-.15-.13-.27-.32-.35-.56-.08-.24-.09-.54-.03-.91.08-.53.22-.92.42-1.17.2-.25.49-.44.87-.58.38-.14.83-.21 1.34-.21.56 0 1.03.08 1.4.23.37.15.6.34.7.57.09.23.1.62.02 1.17l-.04.27zM18.38.7h2.18c.59 0 1.03.04 1.34.12.3.08.53.19.66.33.14.15.22.32.24.53.02.21 0 .53-.06.96l-.09.6c-.07.44-.17.76-.31.97-.14.2-.36.36-.67.47-.31.11-.7.16-1.17.16h-.58l-.42 2.8h-2.17L18.38.7zm1.99 1.18-.27 1.77h.16c.2 0 .34-.04.43-.12.09-.08.15-.25.19-.51l.09-.57c.04-.24.02-.39-.06-.46s-.26-.11-.53-.11zM23.66.7h3.61l-.21 1.39h-1.44l-.2 1.32h1.35l-.2 1.32h-1.35l-.23 1.53h1.59l-.21 1.39h-3.75L23.67.71zm6.53 0-1.05 6.94h-2.17L28.02.7h2.17zm5.22 0-.21 1.39h-1.27l-.84 5.55h-2.17l.84-5.55h-1.28L30.69.7h4.72zm3.8 0 .19 6.94h-2.21l.07-1.25h-.78l-.31 1.25h-2.24L36.08.7h3.13zm-1.82 4.46c.02-.79.05-1.76.11-2.92-.42 1.33-.7 2.31-.85 2.92h.73z" style="fill:red;fill-rule:nonzero"/><path class="fil2" d="m20.07 5.89 18.52 10.92c.84.49-.23.9-.8 1.67L26.74 33.34c-.95 1.28-3.05.91-3.87.38L7.36 23.84c-.82-.52-.96-1.64-.41-2.42L17.59 6.27c.55-.78 1.63-.88 2.47-.39z"/><path d="m20.25 6.85 17.26 10.17c.78.46-.21.84-.74 1.55l-10.3 13.85c-.89 1.2-2.84.85-3.6.36l-14.45-9.2c-.76-.49-.89-1.52-.38-2.25l9.91-14.12c.51-.73 1.52-.82 2.3-.36z" style="fill:#f9ad08"/><path class="fil4" d="M36.63 17.79a2.6 2.6 0 0 0-.38.43l-10.1 13.59c-.7.94-1.94 1.09-2.92.47l-14.45-9.2c-.48-.31-.51-.97-.21-1.4l9.91-14.12c.33-.47.98-.45 1.44-.18l16.63 9.8c.11.07.18.17.2.29.02.12-.02.24-.12.33zm-.3-.28L19.7 7.71c-.26-.15-.67-.22-.87.06L8.92 21.89c-.17.24-.19.67.09.85l14.45 9.2c.8.51 1.79.39 2.35-.37l10.1-13.59c.13-.17.27-.33.42-.48z"/><path class="fil0" d="M7.73 21.8c.01-.21.04-.42.08-.6.03-.16.08-.3.17-.44.28-.42.92-.55 1.39-.65.61-.14 1.24-.25 1.86-.36.63-.11 1.27-.22 1.91-.31.3-.04.63-.1.94-.11.22-.01.41.02.59.15.02.02.04.03.06.05.2.18.34.45.41.71.06.22.08.46.08.68 0 .06 0 .12-.01.17-.03.2-.19.36-.4.39-.88.17-1.76.33-2.64.5-.13.02-.25 0-.36-.07a.409.409 0 0 1-.19-.3c-.02-.1-.03-.21-.06-.32-.09 0-.18.02-.27.03 0 .26.02.58.06.85.24-.03.49-.07.73-.12.51-.1 1.02-.24 1.54-.32.46-.07.91-.09 1.26.25.3.3.43.78.47 1.18.04.4.01.85-.07 1.25-.06.34-.15.59-.41.84-.34.33-.82.51-1.28.63-.7.18-1.53.31-2.25.38-.34.04-.61.05-.95.02h-.03c-.2-.01-.4.01-.59.04-.34.06-.74.16-1.09.16-.43 0-.69-.2-.82-.58-.05-.17-.09-.37-.11-.55-.01.86-.71 1.67-1.6 1.83l-4.38.78C.81 28.13 0 27.47 0 26.54v-3.32c0-.87.7-1.7 1.6-1.86l4.38-.78c.88-.16 1.63.39 1.75 1.19zm.02 1.2v2.14c.05-.41.43-.54.83-.64.33-.08.66-.15.99-.21.43-.08.87-.17 1.3-.25.14-.03.27 0 .38.09.11.08.17.2.18.33v.08c.08-.01.16-.01.25-.02.02-.12.04-.24.04-.36 0-.1-.02-.3-.06-.42-.11.01-.26.04-.33.05-.63.12-1.26.28-1.9.37-.44.06-.92.1-1.28-.21-.28-.25-.37-.61-.4-.96zm21.89-1.73c.12.01.29-.01.4-.03h.01c.07-.25.08-.61.08-.87.01-.44-.02-.88-.04-1.32-.03-.45-.07-.9-.11-1.35-.03-.33-.06-.66-.08-.99-.01-.23.15-.42.38-.46l2.41-.42c.14-.02.26.01.37.09.11.08.17.19.18.33l.26 4.59c.05.78-.56 1.53-1.37 1.68-1.43.25-2.85.54-4.28.79-.79.14-1.49-.4-1.53-1.16l-.27-4.71c-.01-.23.15-.42.38-.46l2.41-.42c.14-.02.26.01.37.09.11.08.17.19.18.33l.25 4.33zm-4.38-1.73c-.08.01-.17.02-.23.03-.69.11-1.4.25-2.09.38-.13.03-.26 0-.37-.08a.448.448 0 0 1-.19-.31c-.01-.06-.01-.18-.03-.27-.1.01-.2.03-.29.05-.02.01-.06.02-.09.03v.17l.03.62c0 .05 0 .09.01.14.05-.03.11-.05.17-.07 1.07-.2 2.13-.41 3.2-.61.13-.03.26 0 .36.08.11.08.17.18.19.31.05.4.1.8.12 1.2.03.46.06.99.01 1.44-.05.45-.22.72-.66.9-.42.17-.99.27-1.44.36-.81.16-1.61.3-2.42.46l-.89.18c-.21.04-.42.08-.64.09-.32.02-.61-.03-.87-.21-.01-.01-.03-.02-.04-.03a.748.748 0 0 1-.28-.46c-.06-.25-.09-.55-.11-.8-.04-.54-.07-1.09-.09-1.64-.02-.53-.03-1.06-.01-1.59.04-.98.25-1.35 1.24-1.65.53-.16 1.09-.29 1.64-.42l1.38-.3 1-.21c.2-.04.41-.07.62-.08.34-.01.64.07.89.3.22.19.36.45.44.72.07.27.07.56.07.83 0 .2-.12.36-.32.42a.5.5 0 0 1-.32-.01zm-3.19 2.22c.01.26.02.52.04.77 0 .03 0 .07.01.12.13-.02.27-.04.38-.08.01-.03.01-.05.01-.07.02-.17.02-.36.02-.54v-.22h-.01c-.06.03-.13.04-.21.04a.78.78 0 0 1-.24-.03zm19.19-7.71 2.67-.43c.13-.02.26.01.37.09.11.08.17.19.18.32l.44 5.73c.02.23-.15.43-.39.47l-2.67.43a.46.46 0 0 1-.36-.09.423.423 0 0 1-.18-.32l-.44-5.73c-.02-.23.15-.43.39-.47zm-.73 3.52c.34.21.57.58.6 1.01l.1 1.83c.01.23-.15.42-.39.46l-2.69.44a.483.483 0 0 1-.37-.09.385.385 0 0 1-.17-.32c-.01-.16 0-.33 0-.48 0-.23 0-.47-.01-.7 0-.15-.02-.55-.07-.79-.11.01-.23.04-.31.05-.01 0-.02 0-.03.01l.14 2.18c.01.23-.15.43-.39.47l-2.68.42a.493.493 0 0 1-.37-.09.385.385 0 0 1-.17-.32l-.36-5.62c-.01-.23.15-.43.39-.47 1.94-.31 3.89-.64 5.83-.93.83-.13 1.29.44 1.33 1.18l.02.37c.03.51-.11 1.01-.41 1.39zm-3.49-.96.05.83c.13-.02.26-.06.38-.1 0-.12-.04-.36-.05-.44-.01-.07-.01-.2-.02-.31-.12 0-.25.01-.37.03z"/><path class="fil4" d="m27.48 17.97 2.41-.42.26 4.56c.13.13.22.17.37.19.17.02.42 0 .6-.04s.29-.11.35-.31c.27-.91-.08-3.8-.13-4.68l2.41-.42.26 4.59c.03.57-.41 1.11-.99 1.21-1.44.25-2.86.54-4.28.79-.51.09-.95-.25-.98-.75l-.27-4.71zM2.64 22.41l4.38-.78c.67-.12 1.22.32 1.22.99v3.32c0 .66-.55 1.3-1.22 1.42l-4.38.78c-.67.12-1.22-.32-1.22-.99v-3.32c0-.66.55-1.3 1.22-1.42zm17.41-1.9c-.03.85.03 2.37.1 3.17.06.81.13.89.24.97.11.08.27.14.57.12.3-.02.74-.12 1.46-.26s1.72-.32 2.42-.46 1.1-.23 1.35-.33.34-.2.38-.54c.04-.34.02-.9-.01-1.37-.03-.46-.08-.82-.12-1.18-1.07.2-2.13.41-3.2.61.01.23.02.47.02.58v.08c.23-.04.46-.09.69-.13.02.52.03 1.05-.01 1.35-.04.3-.13.38-.34.44-.21.06-.54.11-.72.12-.19.02-.23.01-.27-.56-.04-.57-.07-1.71-.1-2.38-.03-.67-.06-.86 0-1s.21-.22.39-.27c.18-.05.37-.07.52-.08.14-.01.24 0 .29.12.06.12.08.34.1.57.84-.16 1.68-.32 2.11-.39.43-.07.45-.04.48-.01 0-.26 0-.51-.06-.73-.06-.21-.17-.39-.3-.51-.13-.12-.29-.19-.56-.18-.27.01-.66.09-1.53.27-.87.19-2.23.48-2.98.71-.75.23-.88.4-.92 1.24zm-10.39 5c.46-.12 1.36-.28 2.26-.45.01.18.02.36.02.55l1.07-.09c.06-.25.12-.5.12-.77 0-.28-.06-.58-.17-.74-.11-.16-.27-.16-.77-.07s-1.35.29-1.88.37c-.53.08-.74.03-.89-.1-.15-.13-.23-.35-.27-.8-.03-.45-.02-1.14.06-1.54.08-.4.24-.53 1.21-.74.98-.21 2.77-.52 3.73-.66s1.08-.12 1.2-.02c.11.1.22.28.28.5.06.21.06.45.06.57 0 .12-.01.12-.02.12-.88.17-1.77.34-2.65.5-.03-.18-.06-.36-.1-.49-.04-.12-.08-.19-.26-.2-.17-.01-.47.02-.65.06-.18.04-.24.08-.25.37-.01.28.04.81.08 1.08s.08.28.27.27c.19-.01.52-.05 1-.14.48-.09 1.09-.25 1.52-.32.43-.07.66-.05.84.12.18.18.3.52.34.91.04.39-.01.84-.06 1.13-.05.3-.11.44-.28.6-.17.16-.44.35-1.07.51-.63.16-1.61.31-2.18.37-.57.06-.72.03-.9.02-.18-.01-.38 0-.71.05-.32.05-.75.16-1.01.16-.25 0-.32-.1-.37-.27-.05-.16-.09-.39-.1-.54 0-.15.03-.21.49-.33zm-4.69-2.2h.07c.14 0 .25.11.25.24l.07 3.09c0 .13-.11.24-.24.24h-.07c-.14 0-.25-.11-.25-.24l-.07-3.09c0-.13.11-.24.24-.24zm37.33-8.25 2.67-.43.44 5.73-2.67.43-.44-5.73zm-7.51 1.51c1.98-.31 3.85-.63 5.83-.93.52-.08.76.26.8.76l.02.37c.04.71-.32 1.39-1.05 1.5-.67.1-1.14.2-1.78.35-.17.04-.18.04.02.03.68-.03 1.31-.16 1.98-.26.53-.09.98.26 1.01.78l.1 1.83-2.69.44c-.02-.36.08-2.34-.28-2.39-.14-.02-.35 0-.66.06-.13.03-.28.06-.43.09l.16 2.56-2.68.42-.36-5.62zm2.72.24.11 1.68c.14 0 .29-.01.44-.03.24-.04.47-.11.63-.17.31-.12.2-.51.16-.87-.04-.37 0-.71-.21-.72-.19-.01-.49.01-.73.04-.15.02-.28.05-.4.07z"/><path d="m26.52 17.39 2.41-.42.26 4.56c.13.13.22.17.37.19.17.02.42 0 .6-.04s.29-.11.35-.31c.27-.91-.08-3.8-.13-4.68l2.41-.42.26 4.59c.03.57-.41 1.11-.99 1.21-1.44.25-2.86.54-4.28.79-.51.09-.95-.25-.98-.75l-.27-4.71zM1.68 21.83l4.38-.78c.67-.12 1.22.32 1.22.99v3.32c0 .66-.55 1.3-1.22 1.42l-4.38.78c-.67.12-1.22-.32-1.22-.99v-3.32c0-.66.55-1.3 1.22-1.42zm17.41-1.9c-.03.85.03 2.37.1 3.17.06.81.13.89.24.97.11.08.27.14.57.12.3-.02.74-.12 1.46-.26s1.72-.32 2.42-.46 1.11-.23 1.35-.33c.25-.1.34-.2.38-.54.04-.34.02-.9-.01-1.37-.03-.46-.08-.82-.12-1.18-1.07.2-2.13.41-3.2.61.01.23.02.47.02.58v.08c.23-.04.46-.09.69-.13.02.52.03 1.05-.01 1.35-.04.3-.13.38-.34.44-.21.06-.54.11-.72.12-.19.02-.23.01-.27-.56-.04-.57-.07-1.71-.1-2.38-.03-.67-.06-.86 0-1s.21-.22.39-.27c.18-.05.37-.07.52-.08.14-.01.24 0 .29.12.06.12.08.34.1.57.84-.16 1.68-.32 2.11-.39.43-.07.45-.04.48-.01 0-.25 0-.51-.06-.72-.06-.21-.17-.39-.3-.51-.13-.12-.29-.19-.56-.18-.27.01-.66.09-1.53.27-.87.19-2.23.48-2.98.71-.75.23-.88.4-.92 1.24zm-10.39 5c.46-.12 1.36-.28 2.26-.45.01.18.02.36.02.55l1.07-.09c.06-.25.12-.5.12-.77 0-.28-.06-.58-.17-.74-.11-.16-.27-.16-.77-.07s-1.35.29-1.88.37c-.53.08-.74.03-.89-.1-.15-.13-.23-.35-.27-.8-.03-.45-.02-1.14.06-1.54.08-.4.24-.53 1.21-.74.98-.21 2.77-.52 3.73-.66s1.08-.12 1.2-.02c.11.1.22.28.28.5.06.21.06.45.06.57 0 .12-.01.12-.02.12-.88.17-1.77.34-2.65.5-.03-.18-.06-.36-.1-.49-.04-.12-.08-.19-.26-.2-.17-.01-.47.02-.65.06-.18.04-.24.08-.25.37-.01.28.04.81.08 1.08s.08.28.27.27c.19-.01.52-.05 1-.14.48-.09 1.09-.25 1.52-.32.43-.07.66-.05.84.12.18.18.3.52.34.91.04.39-.01.84-.06 1.13-.05.3-.11.44-.28.6-.17.16-.44.35-1.07.51-.63.16-1.61.31-2.18.37-.57.06-.72.03-.9.02-.18-.01-.38 0-.7.05-.32.05-.75.16-1.01.16-.25 0-.32-.1-.37-.27-.05-.16-.09-.39-.1-.54 0-.15.03-.21.49-.33zm-4.69-2.2h.07c.14 0 .25.11.25.24l.07 3.09c0 .13-.11.24-.24.24h-.07c-.14 0-.25-.11-.25-.24l-.07-3.09c0-.13.11-.24.24-.24zm37.33-8.25 2.67-.43.44 5.73-2.67.43-.44-5.73zm-7.51 1.51c1.98-.31 3.85-.63 5.83-.93.52-.08.76.26.8.76l.02.37c.04.71-.32 1.39-1.05 1.5-.67.1-1.14.2-1.78.35-.17.04-.18.04.02.03.68-.03 1.31-.16 1.98-.26.53-.09.98.26 1.01.78l.1 1.83-2.69.44c-.02-.36.08-2.34-.28-2.39-.14-.02-.35 0-.66.06-.13.03-.28.06-.43.09l.16 2.56-2.68.42-.36-5.62zm2.72.24.11 1.68c.14 0 .29-.01.44-.03.24-.04.47-.11.63-.17.31-.12.2-.51.16-.87-.04-.37 0-.71-.21-.72-.19-.01-.49.01-.73.04-.15.02-.28.05-.4.07z" style="fill:#959597"/><path class="fil2" d="m26.52 17.39 2.41-.42.17 2.87-2.4.48-.17-2.92zm4.07 2.15c-.05-1.11-.19-2.34-.22-2.86l2.41-.42.16 2.82-2.35.47zM4.45 24.81c.86-.18 1.81-.38 2.83-.59v-2.18c0-.66-.55-1.1-1.22-.99l-4.38.78c-.67.12-1.22.76-1.22 1.42v2.41c.94-.21 2.04-.44 3.34-.72l-.04-1.96c0-.13.11-.24.24-.24h.07c.14 0 .25.11.25.24l.04 1.84.08-.02zm7.29-1.5c.97-.2 1.97-.4 3.02-.61-.06-.16-.13-.29-.22-.38-.18-.18-.42-.19-.84-.12-.43.07-1.04.22-1.52.32-.48.09-.81.13-1 .14-.19.01-.22 0-.27-.27-.04-.27-.09-.79-.08-1.08.01-.28.07-.33.25-.37.18-.04.48-.08.65-.06.17.01.22.08.26.2.04.12.07.31.1.49.88-.17 1.77-.34 2.65-.5.01 0 .02 0 .02-.12s-.01-.36-.06-.57c-.06-.21-.16-.39-.28-.5-.11-.1-.24-.12-1.2.02-.96.14-2.76.45-3.73.66-.98.21-1.13.34-1.21.74-.08.4-.1 1.09-.06 1.54.03.45.12.67.27.8.15.13.36.17.89.1.53-.08 1.38-.27 1.88-.37.24-.04.4-.07.51-.06zm7.37-1.48c.81-.16 1.64-.33 2.48-.5-.01-.41-.03-.83-.04-1.14-.03-.67-.06-.86 0-1s.21-.22.39-.27c.18-.05.37-.07.52-.08.14-.01.24 0 .29.12.06.12.08.34.1.57.84-.16 1.68-.32 2.11-.39.43-.07.45-.04.48-.01 0-.25 0-.51-.06-.72-.06-.21-.17-.39-.3-.51-.13-.12-.29-.19-.56-.18-.27.01-.66.09-1.53.27-.87.19-2.23.48-2.98.71-.75.23-.88.4-.92 1.24-.02.49-.01 1.21.02 1.89zm3.18-.64c1.06-.21 2.14-.43 3.24-.65l-.06-.47c-1.07.2-2.13.41-3.2.61l.02.51zm11.72-2.33c1.35-.27 2.71-.54 4.08-.81l-.43.03c-.2.01-.19.01-.02-.03.64-.15 1.11-.25 1.78-.35.73-.11 1.09-.79 1.05-1.5l-.02-.37c-.03-.51-.27-.84-.8-.76-1.98.3-3.85.62-5.83.93l.18 2.87zm7.54-1.49 2.66-.53-.22-2.79-2.67.43.22 2.88zm-5.01-1.13.11 1.68c.14 0 .29-.01.44-.03.24-.04.47-.11.63-.17.31-.12.2-.51.16-.87-.04-.37 0-.71-.21-.72-.19-.01-.49.01-.73.04-.15.02-.28.05-.4.07z"/><path class="fil0" d="M40.9 21.36c0-.01 0-.01-.01-.02-.04-.1-.03-.2.03-.3.06-.09.14-.15.26-.17.31-.05.8-.08 1.09.1.25-.23.56-.42.86-.47.25-.05.51-.01.7.15.25-.21.54-.39.83-.44.27-.05.57-.01.75.21v.01c.26.32.14.89.09 1.27-.02.13-.08.62.01.72.08.08.11.18.09.28a.34.34 0 0 1-.17.25c-.17.1-.36.18-.56.22-.3.06-.59.01-.8-.16a.32.32 0 0 1-.16.23c-.17.1-.36.18-.56.22-.29.05-.58.01-.78-.15-.02.09-.08.17-.17.22-.17.1-.36.18-.55.21-.35.07-.69-.01-.89-.26-.25.32-.63.53-1.04.61-.54.12-1.15.09-1.55-.3-.16.88-.42 1.67-1.47 1.87-.45.09-1.01.03-1.36-.27a.78.78 0 0 1-.27-.46c0-.02-.01-.05-.01-.07-.02.01-.04.03-.06.04-.17.1-.36.18-.55.21-.28.05-.55.01-.75-.12-.17.18-.38.32-.64.38-.44.1-.82-.01-1.09-.25.01.04.01.09.01.13a.34.34 0 0 1-.17.25c-.17.1-.36.18-.56.22-.32.06-.64 0-.84-.21v.04a.37.37 0 0 1-.17.25c-.17.1-.36.18-.55.21-.26.05-.51.02-.71-.1-.03.06-.08.12-.15.15-.17.1-.36.18-.55.21-.28.05-.55.01-.75-.12-.17.18-.38.32-.64.38-.42.09-.79 0-1.06-.21v.1a.37.37 0 0 1-.17.25c-.17.1-.36.18-.55.21-.38.07-.75-.03-.95-.33-.25.36-.65.62-1.13.71-.15.03-.29.04-.43.01 0 .14.01.26.04.3.08.08.11.18.09.29a.37.37 0 0 1-.17.25c-.17.1-.36.18-.55.21-.44.08-.88-.07-1.03-.5-.02-.06-.03-.12-.04-.19-.11.05-.23.09-.34.11-.28.05-.55.01-.75-.12-.17.18-.38.32-.64.38-.78.17-1.38-.3-1.5-1-.18.09-.4.12-.56-.06l-.02-.02c-.06.27-.05.73.02.87.07.08.09.17.08.27a.37.37 0 0 1-.17.25c-.17.1-.36.18-.55.21-.44.08-.88-.07-1.03-.5-.06-.17-.06-.39-.04-.61-.19.12-.45.19-.63-.02l-.02-.02c-.06.27-.05.73.02.87.07.08.09.17.08.27a.37.37 0 0 1-.17.25c-.17.1-.36.18-.55.21-.35.07-.69-.01-.9-.26v.01c-.25.32-.63.53-1.04.61-.58.13-1.24.08-1.63-.39-.07-.09-.13-.19-.17-.29-.01.18 0 .36.04.42.08.08.11.18.09.29a.37.37 0 0 1-.17.25c-.17.1-.36.18-.55.21-.44.08-.88-.07-1.03-.5-.11-.33 0-.98.05-1.33.02-.15.06-.36.07-.56-.13.04-.25.08-.3.13-.12.13-.33.15-.48.05-.51-.35-.46-.92.03-1.24.2-.13.52-.2.76-.24.5-.09 1-.15 1.5-.24.12-.02.34-.06.44-.12a.36.36 0 0 1 .47.11c.18.25.21.49.12.71.17-.08.36-.14.55-.17.4-.09.88-.05 1.2.21 0-.01-.01-.02-.01-.03-.04-.1-.03-.2.03-.3.06-.09.14-.15.26-.17.23-.04.56-.06.84.01.14-.13.31-.22.52-.26.24-.05.49-.04.7.05.01-.03.02-.05.03-.07.06-.09.14-.15.26-.17.23-.04.56-.06.84.01.14-.13.31-.22.52-.26.35-.08.72-.01.95.23.28-.31.66-.53 1.08-.61.17-.03.33-.04.49-.02.06-.06.13-.1.22-.12.31-.05.83-.09 1.11.12 0-.02-.01-.03-.01-.05-.03-.1-.02-.2.04-.29.06-.09.14-.14.25-.16.27-.04.73-.08 1.04.06.16-.12.34-.21.54-.25.53-.12 1.01.05 1.3.39 0-.04.01-.09.01-.13.03-.31.04-.68-.05-.98-.03-.1-.02-.2.04-.29.06-.09.14-.14.25-.16.38-.06 1.15-.1 1.32.34.07.2.1.42.11.65.27-.29.64-.49 1.04-.57.17-.03.33-.04.49-.02.06-.06.13-.1.22-.12.31-.05.81-.08 1.1.11-.01-.07.01-.14.05-.21.06-.09.14-.15.26-.17.32-.05.85-.09 1.13.13.29-.25.63-.47.94-.53.27-.05.57-.01.75.21.03.04.06.08.08.13.28-.36.7-.63 1.16-.71.17-.03.33-.04.49-.02.06-.06.13-.1.22-.12.37-.06 1.01-.1 1.24.25.01.01.02.03.03.04.28-.38.71-.66 1.19-.75.17-.03.33-.04.49-.02.05-.06.13-.1.22-.12.37-.06 1.01-.1 1.24.24.01.01.01.02.02.02.32-.39.8-.65 1.32-.75.4-.09.87-.05 1.19.2zm-30.01 5.77-.14.03v.17c.04-.07.09-.13.14-.2zM4.51 28.3c.28-.34.68-.6 1.14-.68.17-.03.33-.04.49-.02.06-.06.13-.1.22-.12.37-.06 1.01-.1 1.24.25.22.32.11.83.06 1.19-.02.13-.08.57.01.67.08.08.11.18.09.29a.37.37 0 0 1-.17.25c-.17.1-.36.18-.55.21-.28.05-.55.01-.75-.12-.17.18-.38.32-.64.38-.6.13-1.1-.12-1.34-.55-.41.67-1.17 1.1-2.03 1.26-.17.03-.34.05-.52.07-.42.05-.96-.19-1.1-.59-.1-.29.01-.82.05-1.13.08-.56.13-1.1.1-1.67-.01-.15.09-.29.24-.34.28-.1.71-.11 1.03.03.22-.17.47-.29.74-.34.12-.02.23-.03.35-.02.26.01.51.09.73.23.3.19.51.46.63.77zm-2.15 1.59c.24-.15.44-.35.52-.63.01-.05.02-.1.02-.15 0-.08-.03-.31-.12-.35h-.02c-.14.03-.32.28-.33.41-.01.06-.01.11-.02.17-.02.18-.03.36-.05.55zm3.39-.73c.07-.11.14-.27.19-.41-.12.09-.19.27-.19.4v.02zm13.77-2.61c.07-.11.14-.27.19-.41-.12.09-.19.27-.19.4v.02zm3.4-.49c.07-.11.13-.27.14-.34.01-.05.01-.13.01-.21-.09.11-.14.32-.14.42v.12zm4.28-.97c.07-.11.14-.27.19-.41-.12.09-.19.27-.19.4v.02zm6.18-1.17c.07-.11.14-.27.19-.41-.12.09-.19.27-.19.4v.02zm3.16-.6c.07-.11.14-.27.19-.41-.12.09-.19.27-.19.4v.02z"/><path d="M.99 30.67c.08.23.45.39.71.35.17-.01.34-.03.49-.06 1.23-.23 1.99-.98 2.06-1.95.05-.72-.44-1.32-1.12-1.36-.09-.01-.17 0-.26.02-.3.06-.58.24-.79.45-.12-.24-.69-.24-.92-.16.07 1.36-.28 2.35-.16 2.7zm1.07-1.53c.02-.25.29-.66.62-.72.44-.08.66.49.55.92-.12.48-.5.85-1.26 1.11-.01-.23.04-.79.09-1.31zm4.28.59c.08.25.33.32.61.27.14-.03.29-.09.44-.17-.39-.42.16-1.53-.1-1.91-.08-.13-.46-.16-.87-.1.02.07.03.18.03.29-.18-.18-.42-.21-.72-.15-.76.14-1.25.81-1.23 1.42.01.61.45 1.01 1.07.88.33-.07.57-.37.75-.73.01.08.01.14.03.2zm-.38-1.37c.28-.05.44.03.4.24-.13.48-.37.97-.62 1.02-.23.04-.36-.21-.36-.47 0-.3.2-.71.58-.79zm4.89-1.58c.44-.11.61-.43.39-.74-.12.06-.31.11-.55.15-.45.09-1.05.15-1.5.24-.28.05-.51.11-.63.19-.21.14-.38.42-.02.66.16-.17.53-.27.93-.33.08.55-.27 1.82-.14 2.21.08.25.33.32.61.27.14-.03.29-.09.44-.17-.39-.42.19-1.97-.06-2.35-.01-.02-.04-.04-.07-.06.25-.03.47-.05.6-.08zm1.63 1.63c-.28.05-.48 0-.6-.15.59-.09 1.36-.48 1.46-.92.1-.46-.4-.77-1.05-.62-.91.17-1.42.83-1.4 1.45.01.61.55 1.01 1.45.8.86-.16 1.15-.93.88-.97-.16.19-.37.35-.73.42zm-.21-1.25c.14-.03.25.01.29.12.11.29-.45.5-.77.6.03-.24.14-.65.49-.72zm2.64-.29c.27-.05.37.28.37.28.02.07.67-.34.52-.72-.09-.23-.36-.33-.69-.26a.66.66 0 0 0-.49.36c-.09-.13-.47-.17-.89-.11.17.45-.22 1.48-.07 1.9.08.25.33.32.61.27.14-.03.29-.09.44-.17-.21-.23-.21-1.48.2-1.57zm2.35-.44c.27-.05.37.28.37.28.02.07.67-.34.52-.72-.09-.23-.36-.33-.69-.26a.66.66 0 0 0-.49.36c-.09-.13-.47-.17-.89-.11.17.45-.22 1.48-.07 1.9.08.25.33.33.61.27.14-.03.29-.09.44-.17-.21-.23-.21-1.48.2-1.57zm2.85.69c.08.25.33.32.61.27.14-.03.29-.09.44-.17-.39-.42.16-1.53-.1-1.91-.08-.13-.46-.16-.87-.1.02.07.03.18.03.29-.18-.18-.42-.21-.72-.15-.76.14-1.25.81-1.23 1.42.01.61.45 1.01 1.07.88.33-.07.57-.37.75-.73.01.08.01.14.03.2zm-.38-1.37c.28-.05.44.03.4.24-.13.48-.37.97-.62 1.02-.23.04-.36-.21-.36-.47 0-.3.2-.71.58-.79zm4.58-.24c-.01-.61-.5-1-1.14-.85-.26.05-.49.22-.65.45-.01-.05-.03-.1-.04-.15-.05-.13-.49-.18-.91-.11.29.91-.19 2.43-.05 2.86.08.25.33.32.61.27.14-.03.29-.09.44-.17-.18-.19-.15-.63-.09-1.14.15.2.38.31.67.25.79-.15 1.17-.8 1.16-1.41zm-1.43 1.02c-.34.06-.33-.43-.32-.6.02-.33.18-.74.55-.81.27-.05.37.36.31.68-.05.23-.23.67-.54.73zm1.82-3.04c.29.91-.22 2.35-.08 2.78.08.25.33.32.61.27.14-.03.29-.09.44-.17-.39-.42.25-1.96-.06-2.77-.05-.13-.49-.18-.91-.11zm3.1 2.18c.08.25.33.32.61.27.14-.03.29-.09.44-.17-.39-.42.16-1.53-.1-1.91-.08-.13-.46-.16-.87-.1.02.07.03.18.03.29-.18-.18-.42-.21-.72-.15-.76.14-1.25.81-1.23 1.42.01.61.45 1.01 1.07.88.33-.07.57-.37.75-.73.01.08.01.14.03.2zm-.38-1.37c.28-.05.44.03.4.24-.13.48-.37.97-.62 1.02-.23.04-.36-.21-.36-.47 0-.3.2-.71.58-.79zm3.45-.43c-.02.51-.2.9-.09 1.23.08.25.33.33.61.28.14-.03.29-.09.44-.17-.39-.41.23-1.65-.07-2.01-.08-.09-.22-.12-.39-.09-.41.08-.93.56-1.14.82 0-.13-.01-.25-.07-.33-.09-.13-.46-.16-.88-.09.17.45-.22 1.48-.07 1.9.08.25.33.33.61.27.14-.03.29-.09.44-.17-.15-.15-.19-.42-.14-.69.1-.51.54-.97.7-1 .03-.01.05.01.05.05zm3.12.63c.08.25.33.33.61.27.14-.03.29-.09.44-.17-.39-.42.16-1.53-.1-1.91-.08-.13-.46-.16-.87-.1.02.07.03.18.03.29-.18-.18-.42-.21-.72-.15-.76.14-1.25.81-1.23 1.42.01.61.45 1.01 1.07.88.33-.07.57-.37.75-.73.01.08.01.14.03.2zm-.38-1.37c.28-.05.44.03.4.24-.13.48-.37.97-.62 1.02-.23.04-.36-.21-.36-.47 0-.3.2-.71.58-.79zM37.22 22c.03.07.04.18.03.29-.18-.18-.42-.21-.72-.15-.76.14-1.25.81-1.23 1.42.01.61.45 1.01 1.07.88.39-.08.66-.47.84-.92-.06.43-.04 1.22-.67 1.34-.23.04-.48.04-.86-.13-.05.04-.07.25.12.41.23.19.64.27 1.05.19.9-.17 1.07-.89 1.21-1.74.11-.68.16-1.31.04-1.49-.08-.13-.46-.16-.87-.1zm-.45.53c.28-.05.44.03.4.24-.13.48-.37.97-.62 1.02-.23.04-.36-.21-.36-.47 0-.37.26-.72.58-.79zm3.23.68c-.28.05-.48 0-.6-.15.59-.09 1.36-.48 1.46-.92.1-.46-.4-.77-1.05-.62-.91.17-1.42.83-1.4 1.45.01.61.55 1.01 1.45.8.86-.16 1.15-.93.88-.97-.16.19-.37.35-.73.42zm-.21-1.25c.14-.03.25.01.29.12.11.29-.45.5-.77.6.03-.24.14-.65.49-.72zm2.93-.33c-.02.51-.15.89-.04 1.23.08.25.33.33.61.28.14-.03.29-.09.44-.17a.585.585 0 0 1-.1-.17c-.21-.65.63-1.75.61-1.44-.03.51-.16.89-.04 1.23.08.25.33.33.61.28.14-.03.29-.09.44-.17-.39-.41.17-1.64-.12-2-.08-.09-.22-.12-.39-.09-.42.08-.85.5-1.04.78 0-.17-.02-.32-.09-.41-.08-.09-.22-.12-.39-.09-.4.08-.83.49-1.02.75 0-.11-.02-.21-.07-.28-.09-.13-.46-.16-.88-.09.17.45-.22 1.48-.07 1.9.08.25.33.33.61.27.14-.03.29-.09.44-.17-.1-.11-.14-.26-.15-.43.03-.64.65-1.45.64-1.18z" style="fill:#fff;fill-rule:nonzero"/><path d="m12.06 18.08 5.04-.96c.01.01.02.02.03.04v.02c0 .12.02.19.09.28l-5.44 1.04.29-.41zm12.68-7.12.45.27-4.95.95c-.06-.02-.12-.04-.17-.05-.02-.01-.05-.02-.08-.03-.01 0-.02-.01-.02-.01l-.06-.02c-.04-.03-.09-.04-.14-.05a.316.316 0 0 0-.19-.07h-.02l5.17-.99zm1.2.71.45.27-4.4.84c-.06-.02-.11-.04-.18-.06l-.17-.06c-.01 0-.01 0-.02-.01-.03-.01-.06-.02-.1-.03h-.01l-.2-.05-.03-.01 4.64-.89zm1.2.71.45.27-2.97.57c-.05-.01-.11-.02-.17-.03-.04 0-.08-.02-.12-.02-.11-.02-.23-.03-.34-.04-.07-.01-.18-.02-.25-.03l-.15-.03 3.55-.68zm1.2.71.45.27-3.49.67c-.05-.02-.09-.03-.12-.04-.06-.01-.11-.01-.16-.01v-.01c-.01-.07-.02-.16-.03-.24l3.35-.64zm1.2.71.45.27-4.24.81c-.01-.05-.01-.1-.02-.15-.01-.05-.02-.12-.03-.19l3.83-.73zm1.2.71.45.27-5.12.98a.933.933 0 0 0-.12-.33l4.78-.91zM12.51 17.4l.29-.41 4.03-.77c-.03.12-.04.24-.02.36l-4.3.82zm.76-1.09.29-.41 3.87-.74v.23c0 .04.01.08.02.11h-.01l-4.16.79zm.76-1.09.29-.41 2.98-.57v.09c0 .09.02.18.06.25l-3.33.63zm.76-1.09.29-.41 2.19-.42c0 .01 0 .03.01.05l.01.31-2.49.47zm.76-1.09.29-.41 1.35-.26.06.2.01.14-1.7.32zm3.65 3.65 1.24-.24a.82.82 0 0 0 .02.35l-1.31.25c-.02-.06-.04-.11-.06-.17.01-.01.01-.02.02-.03l.09-.16zm-.1-2.8.68-.13a.7.7 0 0 0 .1.08l.02.02.02.02.01.01.19.16-.98.19-.04-.35zm.11.92 1.49-.28c.04.03.08.06.12.08.06.03.12.03.19.04.05.04.11.09.15.13l.01.01-1.93.37-.02-.11c0-.05 0-.1-.01-.15l-.01-.08zm3.71-.71.13-.02c0 .04.01.08.01.12.01.05.01.11.02.16l-.18.03v-.07c.01-.07.01-.15.02-.22zm-3.41 1.59 1.82-.35c.04.11.09.22.18.3-.03 0-.06.01-.09.01h-.04c-.03 0-.05 0-.08.01l-.3.08c-.02.01-.03.01-.05.02l-.01.01-1.39.27c.04-.12.02-.24-.03-.35z" style="fill:#000;fill-rule:nonzero"/><path d="M17.62 17.31c.07.04.1.15.12.2.04.09.05-.01.05.16l-.1-.16c-.03-.08-.07-.09-.07-.2zm5.21-3.78.03-.02c0-.23.02-.18-.14-.24-.06-.02-.03-.02-.09 0l.08.11-.05.12c.13 0 .07-.03.16.03-.03.12-.27.08-.33.31-.04-.01-.02 0-.04-.02l-.3-.53-.01-.02c-.03-.05-.05-.09-.11-.13l-.02-.01a.826.826 0 0 0-.3-.14l-.19-.07c-.03-.01-.07-.02-.09-.03l-.2-.05c-.03-.01-.06-.02-.1-.03l-.28-.09c-.03-.01-.02-.01-.05-.02l-.23-.08c-.07-.03-.56-.22-.65-.22v.05l.1.02h.01l.44.17c.03.01.03.01.07.01l.35.14c-.04.06-.06.01-.14-.02l-.15-.06c-.23-.09-.55-.18-.81-.29l-.07-.03c-.08-.03-.03.02-.07-.04l.16.04c.07.02.02.03.1.01-.03-.04 0-.01-.05-.03h-.01l-.08-.03h-.01s-.01 0-.01-.01c-.03-.01 0-.02-.09-.02v.05c-.04 0-.04.01-.08.02.02.09.11.09.19.11.04.01.01 0 .04.01l.07.02c.04.01.06.02.09.05-.08.02-.01.01-.09 0l-.85-.18-.11-.02c-.11-.03-.33-.04-.39-.12a.746.746 0 0 1-.09-.15c.05 0 .08.01.12.03l.31.11c.08.03.12.04.2.07.15.05.06-.01.2-.02.04.01.11.11.28.11-.02-.06 0-.05-.05-.06v-.03c.06-.01.05.01.07-.05-.08 0-.05 0-.1-.02h-.02c-.25-.09-.17-.13-.3-.17l-.51-.18c-.11-.03-.21-.07-.32-.11-.33-.11-.08-.35-.67.08l-.07.05c-.24.16-.05.47-.01.68l.03.61c-.01.1-.01.09 0 .18l.02.81c.01.1-.03.26.05.34.08.08.06.02.06.16 0 .12-.02.46.06.52l-.02-.27c0-.09.03-.09.03-.23h.02c0 .3.02.56.02.87 0 0 0-.01-.01-.01l-.04-.17c-.01-.08 0-.13-.05-.17v.19c0 .07.02.09.02.17 0 .18-.03.15-.16.21l-.28.18-.01.01-.05.05c-.04.04-.01.01-.04.06-.11.19-.17.42-.06.63.02.04.04.08.07.12.03.05.04.06.07.1l.08.11c.02.02.03.03.04.06.01.01.01.01.02.03l.01.02c-.03.03 0 .02-.05.03 0 .07.01.08.04.12l.31.44s0 .01.01.01c.04.06.06.12.14.13 0-.15-.04-.13-.06-.24l-.07-.21c.08.02.11.11.16.18.06.08.11.17.2.23.02-.1-.08-.46.03-.36.01.01.02.03.04.05.06.08.12.22.21.27.02-.02.02-.02.05-.03-.01-.11-.03-.21-.03-.33.06.02.1.11.13.15.03.04.07.14.12.16.12.03.01-.29.01-.43.05.01.02 0 .05.03.07.06.12.16.17.23.04.06.02.05.09.07 0-.12-.03-.12-.03-.2-.04.02-.02.02-.06.03l-.02-.06c.05-.02.02.02.04-.04.02-.07-.09-.33-.11-.4-.02-.1.01-.13.05-.21l.31-.56c.09-.16.18-.23.06-.39-.05.03-.08.1-.12.17l-.1.17c-.04.06-.07.11-.1.17-.04.06-.08.11-.1.17h-.03c.01-.1.27-.57.32-.68.05-.11.05-.09-.04-.19l-.01-.01c-.04-.05-.04-.08-.05-.16-.01-.05-.01-.1-.02-.17l-.03-.15c0-.03 0-.12-.01-.16l-.18-1.48c-.01-.12-.03-.2-.03-.33.08 0 .37.08.46.1l.45.12c.3.08.21.11.44.27.04.03.04.03.07.06l.61.51c.03.02.05.03.08.06.18.15.07.1.29.13.07.01.37.3.46.36-.01.16-.01.19.01.36.09.63.54.4.72.43-.01.07-.02.05-.01.13.01.06.01.08.01.15-.12.05-.67.11-.85.13h-.06l-.3.08c-.06.03-.06.02-.11.05-.31.21-.32.62-.14.86.09.11.07.08.18.12l.04.03c.04.03.14.04.19.05.17.02.38-.03.56-.07l.76-.19c-.02-.07-.09-.11-.13-.17-.08-.13-.1-.33-.07-.5.01-.08.07-.13.08-.21-.14 0-.53.05-.65.13-.08.05-.16.11-.18.2-.05.21.02.41.2.53.06.04 0 .03.08.03v.03c-.27 0-.42-.32-.38-.55.05-.3.29-.35.56-.4.17-.03.39-.08.56-.08-.06.09-.14.12-.17.26a.77.77 0 0 0 0 .37c.03.1.07.21.15.27.09.06.16.1.3.11.16.02.59-.05.75-.1l.51-.14c.11-.03.08-.01.12-.09.06.04.02.04.08.03.02 0 .07-.02.1-.03l.8-.23c.07-.03.14-.03.2-.06l.09-.04c.05-.02.04-.02.08-.05.06-.06.07-.07.1-.15.03-.07.04-.15.02-.24-.06-.39-.22-.42-.61-.37-.09.01-.14.02-.23.03-.11.02-.23.04-.34.05-.07 0-.04 0-.07-.04.02-.08.11-.09.19-.09.05 0 0 .01.07-.01.09-.02.23-.03.33-.04.29-.04.4 0 .38-.17-.02-.12-.1-.74-.13-.78a.857.857 0 0 0-.25-.14c-.1-.02-.24.01-.36.01l-.05-.27c-.06-.48-.02-.51-.31-.54-.07-.01-.08-.02-.13-.03-.16-.03-.49-.05-.62-.08-.45-.12-.37.17-.37-.22l-.2-.09c-.04.07-.04 0 .01.1l.01.06c0 .02-.01.05-.01.07-.08.03-.04-.04-.07.03.04 0 .05 0 .09-.01.07-.02.09-.02.1.08-.07.02-.03.02-.09.05-.04.02-.06.01-.11.04-.1.05-.07.05-.22.05zm-4.93 3.73.11.18c.03.1.1.14.04.18-.02-.08-.05-.09-.07-.12l-.07-.12c-.01-.03-.01-.07-.01-.11zm.33-.03c.06.04.01 0 .04.07.02.05.03.03.05.06.02.03.01.05.03.08.03.09.05 0 .05.14-.04-.03-.2-.3-.16-.36zm.26-.06c.09.02.03.01.06.07.02.04.03.03.06.09.06.16.07.09.07.2-.06-.04-.01-.02-.05-.07-.08-.11-.03-.05-.07-.12-.03-.05-.06-.05-.06-.17zm.41.22c-.07-.02-.04 0-.06-.07l-.09-.18c-.03-.05-.03-.03-.03-.11l.01.02.01.02.08.13c.02.04.06.05.08.19zm2.25-.31V17c.07-.01.08-.02.14-.04.11-.03.2-.03.3-.01-.03.02.03 0-.04.02-.03.01-.02 0-.05.01-.04.01-.07.01-.13.02-.3.04-.08.04-.22.07zm-.13-.23c.05 0 .07-.01.12-.02l.4-.04c-.05.06-.32.07-.41.08-.08.01-.07.04-.11-.02zm1.85-.05c.08-.1.31-.08.41-.08v.03c-.09 0-.22.05-.41.05zm-1.93-.06.26-.07c.09-.01.19-.01.3-.01v.02c-.07 0-.2.03-.27.04-.1.01-.17.02-.29.02zm1.8-.09c.04-.05.08-.04.2-.06.09-.01.15-.02.26-.02-.06.08-.36.08-.46.08zm-1.83-.09c.12 0 .26-.06.54-.06-.04.05-.01.02-.09.04l-.32.05c-.14 0-.1.01-.13-.03zm1.97-.1c.1-.02.19-.02.27-.01-.01.01-.01.01-.03.02-.07.03-.41.06-.48.06l.23-.07zm1.9-.05c-.02.06-.01.05-.07.03.01-.03.03-.03.07-.03zm-3.84.03c.08-.06.4-.08.49-.08v.03c-.15 0-.21.05-.49.05zm1.33.07c0-.15.03-.06-.04-.17.05-.05.14.03.15.14-.04.01-.1.13-.1.03zm2.44-.23h.07v.04l-.06.02v-.06zm-2.11.08c.09-.06.41-.08.51-.08l-.04.02h-.01c-.19.06-.25.05-.45.05zm-.52.03c0 .17.03.18.08.23l.05.06c-.05 0-.05-.01-.09-.03-.03-.02-.04-.03-.06-.05 0 0-.04-.06-.04-.07-.07-.13.03-.29.14-.32-.03.04-.08.11-.08.17zm-1.05-.16c.07 0 .14-.02.21-.03.04-.01.2-.02.23 0-.03.1-.05.05-.13.05-.13 0-.12.06-.31.02v-.03zm1.63-.05c.06-.01.13-.02.21-.04.07-.01.14-.01.23-.01-.02.01.01 0-.04.03-.01 0-.04.01-.05.01l-.35.01zm1.27.02c-.01-.05-.02-.04-.05-.08.04-.04.12.01.15.03-.01.06-.04.22-.1.16-.02-.02.01-.05 0-.11zm-.29-.11h.04l.04-.02.01-.01.01-.01c.03-.03.04-.04.1-.05l-.02.02c-.06.07.04-.06-.01.02-.01.01-.03.04-.03.05-.06.11-.03.23.07.32.04.03.01 0 .05.04-.04.02.01.02-.05.02-.01 0-.11-.06-.15-.14a.856.856 0 0 1-.05-.23zm-.9-.06c.04-.05.02-.03.16-.05.06-.01.09-.01.18-.01v.05c-.08.01-.26.06-.34.02zm.51-.19v.06h-.07v-.06h.07zm-.41.03c.02-.07.01-.08.1-.08-.02.07-.01.08-.1.08zm2.63-.1c.04-.04.19.15.02.19 0-.04 0-.08-.01-.12-.01-.03-.03-.05-.01-.07zm-.01.3c-.05 0-.04.01-.09-.01-.15-.06-.17-.36.02-.38-.02.06-.07.09-.07.12 0 .24.07.16.11.16-.02.02-.01.01-.02.03-.01.05.02-.01.03.08zm-2.06.06c-.04.02-.03.01-.08 0v.08c.05.01.04 0 .05.05-.04.01-.05 0-.05.05 0 .21.12.35.29.39v.03c-.12 0-.16-.03-.24-.1a.309.309 0 0 1-.11-.16c-.06-.18-.08-.38.06-.52.06-.06.11-.09.2-.12.2-.07.35-.07.55-.1.21-.04.99-.14 1.16-.14v.02c-.15 0-.82.15-1.03.18-.18.03-.75.08-.82.24-.02.05 0 .05.02.11zm-5.37.12c0 .25.08.33.22.49l.01.01.16.2c-.15-.01 0-.12-.34-.1-.03 0-.1.01-.15.01-.13 0-.2.02-.31.02v-.03c.13 0 .37-.07.52-.08-.02-.18-.24-.11-.29-.11-.16 0-.27.02-.43.02.04-.05.04-.03.12-.04.1-.01.39-.06.45-.08a.24.24 0 0 0-.07-.12c-.11.03-.43.03-.57.03.04-.03.05-.03.12-.04l.45-.07c0-.21 0-.13-.29-.12l-.28.02c.04-.05 0-.02.17-.05.08-.01.13-.02.21-.03.04-.01.17-.03.19-.04.04-.02.09-.14.03-.14-.17 0-.27.02-.44.02.06-.05.27-.06.36-.08.19-.04.18-.02.31-.13.07-.06.07-.04.13-.08.04-.02.03-.02.07-.04.16-.06.11-.06.25-.08.08-.01.12-.02.2-.02-.04.05-.05.04-.13.05-.09.02-.06.04-.13.06-.17.06-.33.11-.45.26a.56.56 0 0 0-.11.32zm4.36-.64c.07-.04.04-.06.15-.08l1.34-.14c-.05.04-.08.03-.17.04l-1.26.17c-.04.15.02.09-.03.16-.01-.05-.03-.11-.03-.16zm2.19-.28c-.01.07.02.03-.04.07l-.03-.03c.01-.03.03-.03.07-.03zm-1.75.05c.02-.02.13-.14.13-.03 0 .04-.08.03-.13.03zm.41-.06c0-.05.03-.04.07-.06.09.16-.07.13-.07.06zm.44-.34-.04.03c-.05-.03-.03.01-.03-.06.08.01.03-.02.07.03zm-1.02-.1c0-.05.11-.06.17-.07.14-.02.52-.09.61-.07.06.26.05.23-.18.27-.22.03-.08.07-.2.08-.02-.08-.05-.04-.15-.03-.19.02-.26.06-.26-.17zm-4.74-.36c.13-.03.06-.11.1-.28.04.04.06.19.1.3l.12.44c.02.06.02.1.03.16l.09.29c-.15.1-.14.07-.3.15-.06.03-.11.08-.12-.02-.01-.06.01-.14 0-.22-.04-.27-.01-.53-.01-.82zm5.81.37c-.02-.07-.03-.15-.04-.21 0-.02-.02-.1-.02-.1.01-.05.01-.03.07-.04.06-.01.4-.07.4.04 0 .1.01.12-.04.19-.07.11-.09.12-.37.12zm.59-.33s0-.01.01-.01l.04-.04c.03-.01.05-.01.09-.01.09-.01.06-.02.15 0l.05.17c0 .03-.08.08-.13.08 0 0-.17-.09-.2-.19zm-2.61.27c0-.06.04-.04-.03-.11-.06-.06-.24-.19-.26-.27l.18.12c.06.04.1.09.18.11.15-.13.16-.11.44-.11-.11.09-.29-.01-.41.17-.09.14-.02.28-.02.48-.05-.06-.08-.33-.08-.41zm-3.38-.33c0-.06.01-.06.03-.09.06.02.07.07.07.06 0 0 .01 0 .01.01-.07 0-.07.01-.11.03zm6.8-.11c-.01-.02 0-.01-.01-.03h-.16c.08-.11.3 0 .36.04.08.06.11.62.11.74h-.02c0-.06-.01-.22-.08-.22-.13 0-.21.03-.26 0 .06-.01.09-.02.16-.04.08-.01.12.01.13-.06-.12 0-.19.02-.29.02.03-.04.06-.03.13-.05.05-.01.07-.03.13-.03v-.06c-.15 0-.22.02-.28-.02.05 0 .25-.03.28-.05-.02-.08-.04-.04-.28-.02v-.03c.07-.01.3-.03.25-.12-.03-.06-.1-.06-.16-.05v-.04zm-1.02.02c-.54.04-.44.1-.48-.15l-.03-.29c.01-.23-.07-.44.29-.39.14.02.11.09.13.22l.08.61zm-1.47.08c0-.1-.01-.08 0-.17.04-.37-.04-.46.24-.55.08-.03.37-.18.43-.18.1 0 .04.31.06.41.01.07.02.15.02.2.06.5.06.44-.13.46-.19.02-.44.07-.61.07v-.23zm1.68-.12c-.01-.02-.11-.66-.09-.72.07 0 .21 0 .25.04.03.03.04.18.05.24l.06.37c.01.05.01.07-.03.09 0 0-.19.06-.23-.02zm-2.62.21c-.04 0-.05-.03-.08-.05-.03-.02-.03-.02-.06-.05l-.26-.22c-.06-.07.02-.09-.06-.17-.09-.1-.47-.35-.5-.45.05 0 .15.04.21.05.07.02.12.03.19.05.3.07.29.05.41.2.03.04.03.03.05.07l.19.29c.09.14.15.16.01.22-.13.06-.02.05-.1.05zm-.77-.59c-.06-.01-.43-.25-.46-.28-.12-.1-.22-.11-.24-.19.07 0 .19.04.23.07.16.13.2.13.25.19.05.06.04.05.15.13.05.04.04.02.07.07zm1.49.42c0-.04.02-.04.04-.07.05-.07.03-.12.04-.24 0-.05.05-.26.08-.31.07-.1.46-.25.58-.29.05-.02.03-.02.08-.05.03-.01.04-.01.08-.02.2-.06.01-.05.22-.02l.7.1c.2.04.03.01.15.01.05 0-.04.03.16.03v.03c-.1 0-.19-.01-.28-.03-.23-.04-.11.06-.11.12s-.02.07-.01.12c.03.22.03.04.03.35l-.03-.07c-.04-.17-.06-.36-.1-.56-.28 0-.4-.06-.56-.06-.04.15 0 .44.03.58l.06.59c-.05-.05-.02-.06-.04-.14l-.11-.72c-.03-.33.04-.34-.25-.22l-.43.18c-.09.03-.12.06-.15.15l-.06.26c-.01.1-.02.17-.02.28 0 .13-.02.15-.01.27.01.1.02.17.02.28h-.02c0-.1-.04-.22-.05-.31-.01-.05.01-.13 0-.15-.01-.04-.07-.04-.07-.1zm-4.67-.25c-.04-.03-.04-.06-.05-.11l-.02-.74c-.01-.09-.01-.17-.01-.28.06.05.08.14.1.23.02.1-.02.72-.02.91zm1.6-.92c0-.04.01-.04.02-.08.05.03.08.07-.02.08zm-.18-.41c0-.07.05-.03.08-.02v.08h-.08v-.06zm-1.26.02c0-.07 0-.07.07-.08-.01.06-.01.06-.07.08zm1.62-.02.02-.04c.02-.02.08-.02.11-.02-.02.06-.04.07-.09.09l-.04-.03zm-.15-.19v-.03c.15 0 .47.09.61.12.05.01.09.01.12.02.26.07.72.14.95.2.3.09.69.09.87.26.07.06.08.08.12.16l.24.41c.06.11.15.23.15.32 0 .14-.08-.02-.11-.07-.03-.06-.07-.11-.1-.17-.02-.03-.03-.06-.05-.09-.01-.02-.02-.03-.03-.05l-.11-.19-.01-.02c-.03-.05-.03-.05-.06-.09l-.1-.15s-.01-.01-.02-.01c-.03-.03-.04-.03-.08-.05a.633.633 0 0 0-.22-.07c-.22-.03-.19-.05-.21-.01-.07-.05.01-.03-.09-.07l-.26-.06c-.06-.01-.05-.02-.12-.03-.08-.02-.17-.03-.25-.06-.05-.01-.08-.02-.13-.03l-.18-.05c-.03-.01-.04-.01-.07-.01l-.74-.18c-.04-.01.02-.01-.06-.02h-.07zm-.8.3c.03.23.3 2.08.29 2.2l-.01.02-.1-.39c0-.04-.01-.06-.02-.1-.01-.05-.01-.07-.01-.12l-.17-1.1c-.03-.22-.08-.77-.19-.96-.03-.04-.01 0-.03-.04-.05-.07-.01-.06-.06-.13l-.12-.26c-.03-.06-.06-.09-.06-.19h.03c.02.07.02.05.05.09.02.03.02.05.05.08.02.03.03.04.05.08.14.25.12.09.14.22.02.13.11.07.17.59zm.31-.89c-.08 0-.12-.01-.19-.04l-.07-.02c-.18-.04-.3-.04-.34-.17.08 0 .12.03.19.05l.2.07c.03.01.01 0 .03.02l.02.01c.08.03.1.05.16.05v.03z" style="fill:#000"/></g></g></svg>