<svg xmlns="http://www.w3.org/2000/svg" xml:space="preserve" width="96" height="96" style="shape-rendering:geometricPrecision;text-rendering:geometricPrecision;image-rendering:optimizeQuality;fill-rule:evenodd;clip-rule:evenodd" viewBox="0 0 43.13 43.12"><path d="M7.64 12.65c-.07.07-.13.13-.21.22-.07.09-.15.14-.21.22-.14.18-.47.48-.66.63-.09.07-.12.13-.21.22-.06.06-.15.16-.21.21l-.13.11s-.01.01-.01.02c-.15.21-.07.06-.27.29-.07.08-.13.1-.2.17l-.42.46c-.08.08-.14.15-.21.21-.1.09-.11.13-.22.22l-1.07 1.05c-.09.08-.15.17-.22.24-.08.08-.13.13-.2.23-.04.05-.06.07-.1.11-.03.03-.03.02-.05.05l-1.32 1.31c-.09.1-.15.12-.24.19-.08.07-.14.15-.21.21l-.64.67c-.06.08-.09.17-.15.28-.12.23-.18.33-.28.58-.16.43-.22.99-.15 1.51.18 1.35 1.4 2.12 1.48 2.36.06.17 0 .16.14.29l.88.86c.37.3.42.42.64.63l1.32 1.28c.09.07.16.11.27.17.17.08.39.35.55.51l.2.21c.07.07.1.1.17.18.06.06.13.1.2.18l.26.27c.01 0 .2.1.01.29-.1.1-.4.33-.54.23-.08-.05-.1-.5-.59-.58-.27-.04-.9-.04-1.21-.02-.4.02-.78.26-1.09.43l-.63.29c-.15.15-.32.16-.42.41-.18.44-.01.25-.15.65-.08.23-.16.61-.27.85l-.43 1.27c-.16.56-.56 1.27-.23 1.71.19.25.49.25.87.25.88 0 1.28.1 1.54-.74.12-.41.22-.4.71-.39.66.02.65-.01.77.36.28.87.44.78 1.54.76.47-.01 1.91.04 2.25-.04.11-.02.12-.03.18-.09s.09-.1.14-.16c.1-.12.13-.26.2-.39.33.01.53.48.86.63.38.17 1.94-.04 2.2.06.18.07.59.53.76.69.08.07.12.11.19.18.04.04.06.06.09.1l.05.05c.01.01.04.04.06.05l.57.56c.07.07.14.11.19.18.3.38 1.33 1.29 1.51 1.52l2.28 2.28c.14.14.24.26.36.39l.94.94c.1.1.11.07.21.19.39.49 1.23 1.06 1.89 1.16.7.1 1.33.08 1.94-.23.07-.04.19-.08.26-.12.1-.07.11-.11.23-.16.06-.11.06-.07.16-.15l1.05-1.02.01-.01.22-.21c.02-.03.02-.02.04-.04l.08-.08 2.32-2.29c.07-.07.08-.1.15-.17l.9-.87c.04-.03.01-.01.05-.03.02-.1.37-.4.45-.49l.3-.32c.05-.05.11-.09.17-.16.07-.07.23-.25.35-.31.19-.24 1.18-1.17 1.45-1.43.29-.29.43-.18.95-.18.2 0 .43.01.63 0 .49-.03 1.86.08 2.26-.04.37-.12.88-.36 1.18-.59.05-.04.1-.1.15-.14.09-.06.16-.05.15-.13.03.25.06.47.2.67.06.08.1.1.18.14.27.16.72.14 1.06.1.58-.06.91.06 1.14-.68.07-.24.06-.26.18-.43.38 0 .83-.08 1.13.04.22.09.05.27.4.79.1.14.26.26.51.27.3 0 .63.01.89-.03.39-.07.47.04.76-.2.39-.33.04-.98-.07-1.42-.11-.46-.16-.4-.23-.67-.09-.36-.18-.52-.23-.7-.11-.43-.22-.6-.34-1.05-.08-.31-.06-.17-.13-.34-.16-.39-.05-.39-.21-.69-.12-.22-.04-.35-.33-.61-.23-.21-1.27-.19-1.61-.14-.36.05-.41.13-.67.25l-.64.31c-.46.23-.31-.22-.82-.42-.28-.11-.42-.13-.22-.4.08-.1.06-.07.14-.1.02-.02.12-.08.15-.1l.78-.67c.12-.1.82-.78.87-.87.19-.34-.17-.02.51-.67l2.05-2.08.04-.04.08-.08.11-.1c.63-.61.91-1.03 1.04-1.91.07-.5.05-1.31-.2-1.74-.04-.06-.08-.12-.1-.19-.07-.17-.13-.24-.22-.37l-.56-.62c-.12-.1-.17-.18-.28-.28-.37-.36-.62-.65-1.02-1.01-.09-.08-.28-.32-.44-.45-.35-.29-1.44-1.43-1.89-1.86-.07-.06-.08-.09-.14-.15-.28-.26-.64-.68-.89-.88-.12-.1-1.29-1.33-1.72-1.71-.04-.03-.1-.1-.14-.15l-.12-.17c-.53-.63-.79-.54-.59-.9.07-.13.13-.24.22-.37.36-.53.28-1.91.27-2.57-.01-.59.02-1.07-.06-1.66-.02-.16-.09-.3-.11-.47-.08-.08-.13-.31-.34-.55-.16-.18-.48-.53-.73-.61-.29-.1-.87-.42-1.31-.44-.07 0-.14.01-.19.01-.11-.01-.08-.02-.16-.04-.12-.03-.56.02-.75.02-.3-.01-.8.14-1.08.22-.17.04-.19.06-.39.06-.04-.1-.06-.11-.1-.25-.03-.11-.04-.11-.11-.21-.1-.15-.19-.26-.32-.35l-.22-.13c-.09-.04-.13-.07-.21-.12-.91-.51-.97-.29-1.48-.16-.28.07-.29.03-.54-.04-.19-.06-.36-.06-.51-.14-.14-.08-.42-.41-.52-.5-.24-.21-.24-.24-.5-.49-.12-.12-.19-.21-.31-.33l-1.31-1.32c-.21-.21-.47-.45-.72-.62-.14-.1-.3-.15-.45-.22-1.03-.46-2.19-.32-3.1.35-.17.13-.26.25-.33.31l-.85.82c-.06.06-.09.11-.15.17-.13.11-.21.19-.33.31l-1.33 1.32c-.2.25-.45.41-.65.66l-.66.65c-.34.27-1.13-.1-1.99.19-.52.17-.22.35-.69.19-.15-.05-.32-.12-.49-.16-.09-.02-.21-.02-.32-.04-.1-.02-.17-.04-.27-.05-.41-.06-1.37.01-1.86-.02-.23-.01-.93-.04-1.22.06-.37.13-.51.32-.67.65-.16.34-.08 1.91-.08 2.36.01.86-.01 1.69-.01 2.56 0 .29-.05 1.05.06 1.23.04.08.11.11.13.22.03.19-.17.38-.31.56-.02.03-.02.02-.04.04z" style="fill:#ff0"/><path d="M21.29 30.71c-.23 0-.73-.09-.68.21.05.28.4.19.73.18.24 0 .7-.04.9.03.04.01.06.03.09.05.16.11.2.41.04.55l-.73.48c-.24.12-.3.29-.65.35-.2.03-.37 0-.37.28 0 .25.42.14.59.14l.36.01c.28-.02 1.61-.03 1.8.04.18.06.23.14.25.38-.02.15-.57.45-.73.53-.01 0-.01.01-.02.01s-.03.01-.04.02c-.02.01-.05.02-.08.03-.5.24-.79.46-1.41.46h-2.02c-.42 0-.47-.12-.49-.49l-.03-1.92c0-.5.06-.86-.02-1.36-.95-.06-.62-.03-.86.9-.07.26-.29.72-.44.9-.39.46-.65.47.13.94l.39.28c.11.07.13.05.17.18.06.17.08.39-.06.48-.09.05-1.68.1-1.98.08-.2-.01-.34-.11-.47-.25l-.47-.52c-.12-.12-.2-.24-.34-.33-.06-.04-.16-.09-.2-.14-.1-.12-.11-.39.01-.5.11-.09.32-.13.42-.25.16-.19.41-.38.5-.49.17-.2.35-.55.35-.79 0-.17-.15-.33-.31-.39-.15-.05-.93-.2-1.09-.04-.11.11-.06.51-.07.66l.03 1.69c0 .08-.05.04-.03.55.02.55.06.77-.45.79-.31.01-.64 0-.93-.03-.38-.05-.4-.12-.42-.63-.03-.53-.01-1.05-.01-1.55-.01-.52.07-1 .01-1.52-.1-.05-.7-.12-.78.11-.04.11-.04.32-.06.44-.07.37-.23.8-.42 1.1l-.21.3c-.17.22-.47.26-.01.58.13.09.21.16.33.26.21.17.56.29.56.61 0 .38-.69.28-1.04.28-.35 0-.93.08-1.27-.03-.12-.04-.25-.2-.35-.3-.18-.17-.33-.3-.48-.48-.12-.16-.37-.37-.54-.43-.08.28-.01.77-.09.98-.09.24-.13.24-.3.26-.42.04-1.36-.06-1.6-.02-.25.03-1.03.09-1.32 0-.25-.07-.31-.74-.43-.94-.11-.19-.56-.14-.78-.14-.83 0-1.01-.17-1.16.28-.02.07-.03.13-.05.18-.14.41-.17.62-.62.64-.13.01-.38.01-.51-.01-.25-.03-.47.09-.67-.07-.06-.05-.08-.11-.08-.19-.02-.22.06-.28.12-.45.09-.25.17-.55.27-.84l.4-1.27c.04-.15.11-.26.15-.41.04-.16.08-.3.13-.43.07-.18.03-.29.08-.48.07-.26.2-.32.43-.41.07-.03.12-.07.19-.1.18-.09.37-.23.56-.28.48-.13.39-.25 1.19-.25.37 0 .65-.06.85.33.1.19.05.58.35.54.13-.02.17-.13.28-.2.19-.12.41-.23.59-.38.1-.08.1-.07.2-.12.21-.12.27-.2.6-.2.96.02 1.93 0 2.89 0 .07 0 .09.01.11.01.38 0 .77-.03 1.07.26.27.25.44.64.68.44.05-.04.08-.06.13-.11l.4-.32c.07-.04.1-.05.16-.08.12-.07.14-.12.33-.16.74-.14 2.85-.03 3.82-.01.35.01.74.29.92.55.07.1.14.18.28.21.22-.21.51-.44.78-.6.23-.14.16-.15.53-.18.23-.02.39-.02.64-.02.49.01 3.19.07 3.94.01h4.24c.56 0 .53.16.64.58.25 0 .46-.17.67-.28.08-.04.14-.07.23-.12.18-.1.27-.13.51-.14.33-.02.9-.16 1.2.06.21.16.24.81.47.81.13 0 .21-.13.35-.21 1.19-.66.18-.7 2.92-.7h.85c.34-.01.67.03 1.01.03.42-.01.72.33.84.68.03.07.04.12.07.16.08.01.24-.04.3-.08.13-.07.1-.1.4-.24l.56-.29c.15-.06.31-.15.48-.18.29-.05.64-.06.95-.06.62 0 .56.38.74.77l.16.47.11.31c.08.19.14.44.2.65.19.67.46 1.26.62 1.93.03.12.07.2.11.32.07.23.19.53-.05.66-.07.04-.26.05-.35.06-.18.03-.75.02-.88.01-.25-.03-.28-.13-.35-.32-.31-.89-.19-.79-1.25-.78-.48 0-.82-.18-.94.39-.03.16-.07.19-.12.33-.13.36-.36.39-.74.39-.15 0-.23 0-.34-.02-.18-.03-.72.15-.72-.31 0-.19.27-.86.35-1.06.03-.08.05-.18.08-.27l.18-.52c.03-.1.04-.19.07-.27-.08.14-.22.29-.31.46-.1.17-.25.3-.37.46a2 2 0 0 1-.19.22c-.04.05-.05.06-.09.1l-.11.11c-.14.15-.27.26-.44.39l-.16.14-.06.04c-.62.43-.7.33-.83.42-.29.18-.76.11-1.09.11-.4 0-.7-.07-1.12-.03-.17.02-.23-.01-.38 0-.69.03-.88.19-1.15-.46-.06-.16-.04-.27-.13-.43-.16-.31-.16-.2-.28-.2-.26 0-1.23-.01-1.4.05-.49.18-.08.2-.42.75-.11.18-.1.25-.34.31-.16.04-.43 0-.62 0-.58.02-.82.01-.82-.48 0-.14.08-.27.14-.39.05-.12.08-.27.12-.41.1-.3.78-2.27.76-2.4a.304.304 0 0 0-.07-.05c-.24 0-.96-.04-1.15.04-.11.05-.1.16-.1.31 0 .13-.03.3-.02.38.03.19.06.15.02.37-.08.51.1 1.44-.13 1.91-.03.06-.05.09-.08.16l-.39.82c-.05.08-.06.09-.09.14-.09.15-.16.33-.4.33-.27 0-.41-.27-.55-.42-.06-.07-.12-.09-.17-.15-.3-.36-.38-.3-.38-.94V30.8c0-.3-.43-.09-.56.01-.34.25-.85.3-1.22.04-.39-.29-.15-.3-.74-.23-.09.01-.17.02-.3.03-.07 0-.2.02-.29.02-.13 0-.16-.02-.3-.02zm-5.46.01c0 .12.15.1.12.02-.02-.06-.04-.05-.1-.07l-.03.05zm22.77-4.35.04-.03c.09-.06-.01-.19-.02-.21-.11.03-.11.02-.14.13-.02.08-.04.07-.16.16l-.06.05c-.11-.02-.21-.04-.31-.07-.01-.11.03-.24.07-.34.12-.05.39-.11.53-.08.04-.16.11-.26-.02-.4-.07-.08-.21-.21-.21-.35.29.06.33-.02.34-.29.03-.6.11-1.26 0-1.87-.07-.38-.23-.31-.24-1.11 0-.2-.02-.43-.05-.61-.04-.24.01-.39-.01-.57.18.06.28-.05.27-.25-.03-.59-.37-.28-.55-.56-.1-.15 0-.2-.13-.38-.27 0-.2.24-.5.14-.32-.1-.98-.07-1.23-.24-.38-.26-.53-.1-.8-.13-.12-.01-.19-.08-.25-.08-.17-.02-.15.24-.38.29-.27.05-.94-.13-1.31.03-.36.16-.56.37-.77.68-.12.18-.17.26-.22.5l-.17.89c-.06.29-.07.62-.11.92-.06.41 0 .92-.05 1.35-.11-.02-.09.01-.12-.1-.07-.25.09-.85-.06-1.03-.14.23-.07.66-.08.94-.01.13-.08.3-.11.45-.03.14-.06.35-.25.24-.08-.09.04-.49-.09-.54-.13-.06-.23.4-.26.49-.24-.01-.3-.16-.38-.35-.07-.15-.09-.36-.29-.38-.13.19-.08.43-.14.62-.06.21-.36.02-.49-.04-.02-.15.02-.52-.03-.61-.36-.2-.26.5-.35.61-.05.07-.28.16-.38.09-.22-.14.22-.78-.26-.7-.14.02-.15.21-.18.33-.04.18.04.3-.08.29-.06-.01-.11-.04-.21-.05-.1-.01-.11.01-.21-.02-.06-.15-.02-.44-.12-.61-.37-.06-.14.24-.4.53-.38 0-.44-.04-.52-.34-.03-.13-.01-.24-.15-.27-.24-.04-.13.3-.32.48-.08.07-.18.1-.31.05-.2-.07-.11-.43-.21-.61-.29.02-.17.33-.37.43-.34.17-.29-.26-.26-.46.05-.32.13-.72.11-1.04-.01-.13-.06-.03-.01-.2.02-.07.04-.14.05-.22l.17-2.14c-.01-.14-.03-.12-.15-.15-.26-.06-.56-.03-.83-.07-.53-.09-.42-.07-.82-.34l-.36-.24c-.11-.03-1.57 0-1.68 0-.33.02-.77-.05-1.12-.03-.56.04-1.14.05-1.69.05-.12 0-.12.02-.24-.01-.35-.09-.31-.05-.66.02-.19.04-.32.04-.51.07-.38.05-.32.48-.27.82l.29 1.42c.02.09.06.12.08.22.06.24 0 .53.1.75l.03.06c.07.12.1.2-.02.32-.11-.05-.09-.18-.1-.33 0-.26-.09-.52-.11-.77-.02-.21-.08-.16-.11-.31-.08-.4-.3-1.16-.29-1.47.01-.3-.07-.5-.09-.79-.02-.26-.09-.46-.16-.71-.03-.13-.07-.23-.09-.37-.02-.11-.06-.21-.08-.33l-.16-.72c-.1-.51-.32-.76-.78-.98-.13-.06-.15-.11-.3-.16-.11-.04-.23-.07-.3-.13l-.07-.07c-.04-.04-.02-.01-.06-.05-.14-.18.3-.72.32-1.12.01-.3-.05-.63.27-.62.16.01.63.11.53-.21-.05-.19-.01-.18-.16-.29-.16-.11-.44-.18-.55-.34-.07-.1-.1-.36-.11-.4-.04-.16-.23-.32-.35-.39-.23-.13-1.35.09-1.5.2-.1.07-.28.43-.31.57-.06.28-.02.52 0 .77.05.49.24.56.18 1.11-.02.17-.04.21-.21.24-.39.07-.22.05-.43.23-.24.21-.35.4-.64.46-.17.04-.22.03-.35.11-.18.11-.37.22-.53.35-.18.15-.21.26-.3.47-.15.37-.2.72-.27 1.14-.02.13-.05.25-.06.39-.01.14-.04.21-.06.36l-.07.79s-.01.01-.01.02c-.14.04-.31 0-.43.05-.35.14-.3.77-.32 1.1-.02.33-.03.58-.04.92-.01.26-.09.59-.01.86.09.02.27.03.23.13-.25.07-.26-.13-.29.17-.02.16-.05.28-.06.45-.01.3-.01.67-.14.9-.46 0 .07-.83-.52-.71l-.15.49c-.05.22-.04.36-.32.29-.03-.15 0-.21.01-.33.02-.12-.01-.23-.01-.35-.06-.02-.25-.09-.3-.07-.24.11-.02.68-.46.77-.17.04-.19-.04-.28-.1 0-.25.05-.23.15-.38-.03-.09-.02-.06-.08-.13-.04-.06-.01-.03-.07-.07-.04-.03-.06-.04-.09-.07-.12-.06-.14-.08-.29-.04-.01.13.05.07 0 .23-.03.11-.07.11-.1.19-.05.12-.05.41-.25.3-.07-.08-.01-.23.04-.31.03-.04.02-.01.04-.06-.06-.07-.08-.13-.11-.22-.33 0-.29-.02-.35.11-.35.68-.68.49-.23-.17.05-.08.04-.08.08-.16.13-.25.43-.76.44-1-.09-.01-.16-.05-.2-.04-.07.04-.05.02-.17.03-.13.01-.06-.01-.16.03-.15.06-.79.1-.99.1h-.38c-.26 0-.46.04-.66 0-.18.08-.07-.04-.28 0-.14.03-.17.06-.24-.05-.02-.03-.01-.01-.03-.05v-.05c.2-.09.48-.04.76-.05.29-.02.83-.05 1.12-.03.12.01.28 0 .41 0 .35 0 .6-.09.71-.03.18.01.18.04.26-.12.19-.4.33-.98.04-1.38-.31-.44-.65-.72-1.14-.99-.39-.21-.37-.32-1.15-.28-.22.01-2.71.04-2.74 0-.15-.17.9-1.03 1.15-1.31l.6-.58.04-.04.88-.89c.16-.13.3-.3.44-.44l.72-.7c.04-.05.04-.04.09-.09l.96-.97c.08-.08.1-.12.18-.2.35-.36.73-.68 1.07-1.05.06-.06.12-.11.18-.17.08-.08.18-.16.2-.24.04-.23.34-.3.39-.5-.07-.04-.14-.02-.22-.07-.3-.19-.22-.33-.28-.47-.04-.08-.03.01-.03-.11l.01-4.97c.01-.1.03-.14.01-.24-.06-.32.18-.77.56-.69.19.04.03.01.18-.01.12-.01.15 0 .17.09.17 0 .06-.01.2-.07.14-.06 1.75-.01 1.9-.01.47.01 1 .05 1.38.32.11.08.21.14.28.26.13-.06.33-.39.43-.49.09-.09.21-.09.39-.11.14-.01.26.03.43.03.13 0 .26.01.42.02l.37-.03c.3 0 .47.04.64-.25.1-.16.77-.71.94-.93.2-.25.49-.45.69-.7.12-.15.44-.43.59-.59l1.5-1.51c.36-.35.33-.33.77-.65.1-.07.2-.1.31-.15.49-.21 1.07-.34 1.58-.17.24.08.5.15.7.25.05.03.09.06.15.1.14.1.29.17.41.29l.25.24c.5.56 1.08 1.09 1.62 1.62.06.06.06.07.11.13l.51.51c.3.35.6.58 1.05.71.13.04.26.08.4.09.19.01.17.09.35.07.34-.05.48-.37.88-.2l.62.32c.43.23.51.64.2 1.02-.04.05-.06.08-.1.14-.07.12-.28.38-.2.63.05.17.02.21.13.31.12-.04.15-.14.22-.23.06-.08.13-.13.21-.24.13-.2.18-.22.36-.34l.07-.06.01-.01.41-.29c.06-.02.12-.03.17-.04.23-.07.42-.19.68-.21l.92-.02c.25.03.55.05.79.11l.18.07c.07.03.09.03.16.05.1.03.05.03.15.07.15.07.3.14.44.24.16.13.22.19.33.34l.26.41c.35.67.21 1.65.21 2.41 0 .78.01 1.77-.53 2.33-.04.04-.07.05-.12.1a.63.63 0 0 0-.18.23c.12.17.27.31.42.45.11.11.23.2.32.33.15.22-.14-.05.47.54l.44.42c.17.14.28.3.44.45l1.52 1.51c.28.27.83.9 1.07 1.08.15.12.29.29.44.42.08.08.12.15.2.23.18.16-.02-.12.47.39l.22.21c.06.05.05.07.1.12.05.04.07.05.12.09l.72.73.01.01.01.01.11.13c.05.05.07.05.12.1l.53.54c.18.18.28.26.42.44.1.12.26.38.31.54.08.23.16.42.21.66.07.3.05.46.03.76-.03.44-.35 1.16-.68 1.48l-.63.66c-.09.1-.13.09-.22.2-.12.15-.56.55-.74.76-.05.05-.07.06-.12.1-.11.08-.1.14-.2.23l-.65.63c-.07.12-.03.18-.13.29-.07.08-.15.13-.22.21-.14.15-.24.33-.44.11-.01-.07-.02-.06-.03-.14.08-.02.02.01.07-.03zm-.4-.13c.09-.05.08-.02.14-.11-.15-.07-.08-.01-.22.03 0 .17-.03.16.08.24.05-.09.03-.03 0-.16zm-1.61-.11c.05.18-.08.13.49.13h.3c.29 0 .21.02.22-.08-.3-.07-.46 0-.63 0-.14 0-.24-.05-.38-.05zm.1.49-.03.12c.04.02.01.01.07.03.35.12.49 0 .63 0 .13 0 .13.05.25 0 .05-.29-.2-.08-.28-.08-.28-.02-.2.02-.46-.05-.01 0-.08-.02-.09-.02-.11-.01.08 0-.04 0l-.04.01zm-4.64-4.08c.09-.04.04-.13.08-.42.03-.21-.02-.3.05-.51.04-.11.13-.81.11-.89-.16-.01-.14.24-.16.35-.02.18-.01.36-.03.51-.08.42-.05.52-.05.96zm7.57 9.43c.2 0 .13-.01.29-.05-.03-.16 0-.25-.1-.38-.36-.52-.36-.11-.42.15-.04.17.02.29.23.29zm-9.89-.12c0 .11.42.17.57.07-.01-.23-.2-.53-.37-.69-.22.21-.1.24-.15.44-.02.06-.05.11-.05.18zm-26.36 0c.08.08.12.12.27.11.43-.05.33-.18.18-.45-.06-.1-.09-.2-.16-.28-.19.06-.26.45-.29.62zm3.52-5.24.06.27c.04.07.07.12.25.12.57 0 .73-.74 0-.74-.21 0-.31.17-.31.36zm17.75.7c.17 0 .44-.11.44-.33 0-.75-.88-.5-.74.05.04.14.13.28.31.28zm-3.38-.8c-.21 0-.4.17-.41.37-.02.41.34.57.68.31.27-.21.04-.68-.27-.68zm5.79-18.47c-.08.24-.1.58-.15.84-.08.5-.11.67.33.67.27 0 .13-.6.12-.69-.01-.09-.01-.2-.02-.3-.02-.21-.02-.37-.11-.52l-.17.02zM14.93 9.36c0 .24.06.21.38.21.29 0 .13-.53.11-.79l-.08-.9c-.03-.44-.02-.17-.06-.45-.08.04-.06.04-.09.19-.02.07-.05.15-.07.23l-.2 1.52zm-4.04-1c.49-.02.51-.22.52-.68.01-.32.08-.73-.55-.67-.13.18-.09.44-.08.7.01.27-.03.46.11.66zM34 27.26l.13.13c.14.04.17.16.39.11.15-.04.22-.13.33-.21.4-.29.07-.9-.3-.89-.15 0-.33.02-.42.12-.09.09-.15.23-.18.36-.07.32.02.26.05.4zm-6.96-.77c0-.4.19-.81-.05-.82-.15-.01-.34.03-.39.13-.05.1-.1.26-.11.41-.01.19-.05.26-.06.45 0 .44-.22.63.18.69.1.02.41.05.42-.08v-.04l.01-.73zm-11.68.21c0-.17.02-.3.2-.25.02.04.06.15.02.22-.04.07-.13.04-.22.03zm-.94-.08c0 .04.01.05.03.1l.2-.01c.07 0 .63.21 1.03.11.17-.04.04-.29 0-.4-.04-.13-.09-.27-.16-.4-.2-.37-.48-.23-.59-.24-.07-.01-.12-.04-.18-.01-.14.06-.33.7-.33.86zm-8.81 4.13c0 .1.14.54.18.63.04.1.07.21.12.31.08.15.08.14.1.33l.21.65c.05.15.11.56.28.56.09 0 .07-.11.08-.19.04-.33 0-.7.02-1.07 0-.11-.04-.18-.04-.23 0-.46.18-1.01-.16-1.04h-.72l-.05.06zm29.48.53c0-.36.47-.33.45-.04-.02.32-.1.28-.28.54-.08.12-.16.05-.16-.08 0-.09.03-.11.03-.18 0-.2-.03-.13-.03-.24zm-.35-.29c0 .2.04.43.03.58-.03.36-.08.77.01 1.12.33-.04.5-.35.65-.51.07-.08.09-.07.14-.16.15-.29.17-.11.31-.57.04-.14.08-.34.04-.49-.03-.14-.2-.23-.33-.25-.19-.02-.4 0-.59-.03-.12-.02-.26-.06-.26.3zm-2.8-.26.36 1.07c.04.11.06.25.1.37.09.27.18.44.25.71.03.1.19.62.26.71.12-.2.04-.39.04-.62v-1.63c-.01-.18.05-.09.01-.43-.02-.18.08-.22-.3-.21-.19 0-.61-.04-.72.04zm-23.59.29.01.52c.01.16-.01.11-.01.25l.02.52c0 .17.02.39.03.57.11-.11.03-.09.21-.18l.63-.52c.06-.07.26-.27.36-.42.15-.22.15-.3.15-.63 0-.16-.22-.28-.35-.34-.22-.09-.54-.07-.81-.07-.15 0-.25.14-.25.3zm19.5-5.16c0-.17.27-.12.06-.21-.08-.03-.28.02-.49.02-.1.19-.08.78-.1 1.05-.01.16-.07.32-.04.51.02.12.06.11.18.12l.8.01c.35 0 .29-.1.29-.17.03-.23.11-1.3.07-1.51-.08-.04-.5-.06-.56 0-.06.07-.03-.02.01.05.02.03.11.04.03.18-.07.12-.27.08-.27-.06zm3.84-16.65v.92c0 .86.51.51.55.36.11-.38-.02-2.45.06-3 .02-.15-.03-.67-.38-.68-.27.34-.22.6-.22 1.11 0 .43-.01.85-.01 1.29zM21.56 29.64l-2.07-.01c-.42 0-.85.31-1.17.56-.06.05-.08.06-.07.17.23.06.14.01.37 0l3.5-.03c.15-.03.32-.12.47-.18.53-.23.64-.44.76-.5l-.03-.03-.01-.01c-.06-.05-.17-.03-.3-.03-.12.01-.06.04-.47.04l-.98.03zM13.07 31c0 .88.03 1.82.01 2.69-.01.46.14.37.56.38.11 0 .33-.01.4.06.03-.1.1-.18.1-.33l-.03-1.71c0-.01.03-.24.03-.32 0-.36.03-.73-.04-1.01l-.48-.01c-.29 0-.55-.07-.55.26zm-6.13-.22-.01 2.94c0 .03-.09.32.18.37 0 0 .71.05.77 0a.3.3 0 0 0 .1-.21c.05-.36-.03-1.94.01-2.47.01-.1 0-.48-.02-.59-.1-.1-.07-.08-.2-.08-.39.01-.41-.07-.83.04zm21.08-1.13-2.45.01c-.27-.01-.5-.04-.85-.02-.44.02-.63-.05-.98.11-.08.04-.09.04-.16.08-.16.11-.67.45-.67.63 0 .12.45.37.9.23.14-.04.31-.37.97-.35l.46.03c.25.01 2.61.03 2.76-.07.07-.04.18-.21.22-.29.09-.15.07-.24.03-.39l-.23.03zm-.14 4.43.5.03c.09 0 .15-.06.2-.11.09-.11.1-.35.16-.5.04-.09.19-.41.23-.44.19-.14 1.29-.09 1.59-.06.27.03.05-.64-.15-.69-.21-.06-.78.01-1.08-.06-.09-.22.07-.69.14-.88.06-.16.35-.55.01-.58-.8-.06-.9-.01-1 .35-.05.16-.07.18-.11.37-.04.22-.22.62-.23.68-.02.07-.02.11-.03.18l-.12.36c-.08.23-.39 1.06-.4 1.19 0 .19.12.17.29.17zm9.32-.07c0 .25.1.13.69.09.59-.04.28-.25.68-.99.1-.18.19-.15.47-.12l.82-.01c.35.01.32.08.48-.03.01-.09-.01-.11-.04-.2-.04-.1-.04-.1-.06-.2-.08-.29-.38-.25-.84-.26-.4-.01-.61.1-.47-.41.04-.13.06-.12.1-.22.07-.16.09-.34.17-.48.23-.43.12-.35-.32-.4-.13-.01-.15-.05-.27-.05-.44 0-.46.27-.56.6-.05.15-.09.26-.15.43l-.5 1.54c-.08.2-.19.5-.19.7zm-36.02.14c.22.01.71.01.93-.03.11-.02.14-.06.19-.15l.24-.75c.03-.12.05-.21.17-.24.01 0 .01-.01.02-.01l.87.01c.25 0 .83.11.76-.21l-.14-.34c-.15-.31-.98-.05-1.3-.2-.03-.22.37-1.2.39-1.33.01-.1-.03-.1-.08-.16-.34.08-.16-.04-.7-.01-.12.01-.18-.07-.33.17l-.18.54c-.03.1-.38 1-.46 1.29-.04.13-.05.14-.1.27l-.18.54c-.06.21-.1.33-.1.59zm25.35-2.65c0-.8.13-.75-.83-.75-.85 0-.61-.02-.61 1.67v1.19c.01.55-.02.5.31.82.24.24.32.5.6-.01.13-.24.51-1.01.51-1.24l.03-1.67zm-7.38-.47.04 2.89c.04.19.08.15.26.15h1.31c.26 0 .44.03.69.02.32-.02.54-.1.8-.23.19-.08.66-.27.68-.42-.46-.11-.18-.04-.56-.03l-1.88.01c-.3 0-.24-.45-.23-.69.03-.79.13-.31.85-.59.11-.04.22-.09.3-.17.13-.13.13-.1.28-.23l.04-.03c.03-.02.05-.03.08-.05.06-.05.09-.06.11-.14-.07-.04-.68.01-.83.01-.43 0-.78.07-.81-.16-.06-.42.11-.56-.24-.6-.17-.02-.62-.07-.78.01-.07.03-.11.16-.11.26zm11.27-1.4c-.5 0-.55.16-.94.29-.08.03-.11.05-.18.09-.1.05-.11.07-.18.11-.17.1-.28.11-.24.26.36.08.37-.02.73.16.42.21.49.27.73.61.18.27.6 1.2.71 1.53l.52 1.29c.09.16.07.15.26.11.52-.09.95.2.75-.43-.07-.24-.17-.4-.23-.67-.11-.44-.31-.88-.46-1.32l-.53-1.7c-.16-.53-.4-.35-.92-.35zm7.98.78c.21.05.05 0 .4 0 .19 0 .45.16.62.23.21.1.32.21.45.39.27.36.4.72.59 1.06.09.17.15.42.23.6.08.17.16.39.23.59.04.11.07.19.11.29.19.62.22.55 1.06.55.28 0 .14-.35.09-.5l-1-3.01c-.23-.53-.16-1.05-.62-1.01-.45.04-.81-.01-1.09.13l-.22.11-.12.05c-.11.05-.1.06-.18.11-.12.07-.24.07-.42.23-.06.05-.09.11-.11.18zm-34.91-.72c-.06.05-.17.12-.27.17-.06.03-.11.04-.16.06-.1.04-.04.04-.16.07-.04.01-.06.02-.09.04-.01 0-.02 0-.02.01-.03.08-.36.07-.36.37.36 0 .32-.09.77.12.31.15.46.16.69.52.18.27.29.43.44.76l.82 2.05c.17.32.36.27.69.25.44-.03.57.04.23-.79-.2-.48-.54-1.59-.69-2.13-.03-.13-.09-.22-.12-.33-.04-.12-.06-.24-.1-.37-.25-.86-.24-.92-.88-.9-.64.03-.41.05-.78.09zm8.84.34c-.03.07-.06.07-.16.14-.07.04-.12.06-.11.16.11.06 2.63.04 3.07.03.61-.02 1.11.37 1.17.89.02.19-.19.7-.35.89l-.52.5c-.31.21-.17.13-.42.37.07.1.08.16.18.26.15.15.31.35.49.48.14.11.02.09.26.23.35.21.7.1 1.3.16.17.01.29-.01.39-.08-.04-.14-.13-.2-.23-.28-.23-.18-.22-.13-.45-.35-.13-.12-.43-.27-.42-.41.01-.19.37-.24.62-.64l.23-.41c.25-.51.48-1.49.03-1.96-.45-.47-.69-.35-1.56-.35-.44 0-.87-.01-1.31-.01-.49 0-1.39-.08-1.78.18-.14.09-.25.21-.42.22zm-5.88-.14c-.09.06-.11.09-.23.13-.08.08-.13.08-.2.14-.06.05-.1.09-.1.19h1.79c.3 0 .6.02.9.01.27-.01.55-.02.81.04.42.11.83.6.72.99-.03.12-.19.56-.25.63-.42.46-.01.11-.67.67-.42.36-.58.19.41 1.15.52.5.73.15 1.48.28.35.06.53-.02.24-.3-.24-.22-.67-.48-.77-.57-.13-.11-.19-.15-.21-.26.31-.28.66-.58.84-.97.21-.46.33-.93.28-1.47-.03-.34-.1-.53-.45-.77-.27-.19-.67-.15-1.07-.15-.5 0-2.75-.04-3.08.05-.27.08-.28.18-.42.21zm26.17.12-.04.01c-.09.16-.24.08-.25.33.16.04.59 0 .83 0 .51.02 2.4-.02 2.57.03.2.05.38.26.46.43.11.21.04.51-.02.75-.03.13-.09.18-.13.29-.06.15-.44.67-.61.76-.03.04-.04.05-.09.08-.07.05-.03-.01-.09.09-.05.09-.15.15-.27.26-.1.08-.07.03-.18.09-.13.08-.4.38-.42-.03-.01-.19-.04-.28-.01-.44.02-.13.03-1.54 0-1.79-.01-.12.01-.07-.06-.16-.13-.02-.87-.01-.97.02-.12.2-.07.54-.06.78.02.29-.01.57-.01.87 0 .29-.04.61-.01.9.02.22-.03.63.06.78l1.13.01c.4-.05.54-.08.84-.27.33-.21.37-.25.66-.49l.82-.97c.25-.32.45-.82.57-1.21.04-.13.08-.2.1-.32.03-.14.05-.24.07-.38.02-.15.03-.23-.04-.37-.02-.05-.14-.24-.17-.29-.11-.14-.45-.18-.71-.15-.24.03-.58-.01-.83 0-.55.01-1.1.02-1.69.01-1.4-.01-.95.27-1.47.38zM14.96 6.03c.15-.01.35.03.52.02.16-.01.3-.01.47-.01.63.02.51-.24.8 1.2.05.25.12.56.17.81l.14.86c.03.13.08.24.11.4.03.16.03.27.06.42.08.39.33 1.41.31 1.69-.26.11-1.11.05-1.48.05-.58 0-.32-.04-.47-.87-.02-.12-.07-.12-.21-.12-.17 0-.42-.02-.5.14-.04.08-.05.15-.06.26-.08.7.02.61-.73.61-.15 0-1.08.01-1.22-.06-.07-.21.34-2.24.44-2.69.1-.45.14-.91.24-1.35.09-.4.13-1.14.25-1.32.43-.03.76-.01 1.16-.04zm14.8 1.75c0-.4.05-.78.25-1.09.28-.44.97-.67 1.49-.72.69-.06 1.67.02 2.19.49.12.11.29.36.35.51.2.51.14 2.65.08 3.3-.03.28-.07.45-.25.63-.13.13-.28.27-.48.41-.1.07-.55.2-.67.23-.67.13-1.35.06-1.98-.16-.32-.11-.55-.34-.75-.59-.19-.25-.21-.76-.21-1.11l-.02-1.87zm-9.64.47c0-.2 0-.44.07-.59.23.04.22.16.29.39.07.24.06.3.04.55-.01.12-.08.68-.16.8-.15.22.03.13-.12.21-.06-.04-.05.01-.07-.13l-.04-1.23zM8.94 6.12c.09-.06.14-.08.29-.08h1.99c.12 0 .27.06.37.07.12.02.28.02.4.03.93.12.93.91.93 1.73 0 .5-.02 1.01-.53 1.23-.45.19-1.14.16-1.61.16-.12.44.01 1.82-.04 2.06-.03.13-.11.14-.25.14l-1.42-.01c-.16-.03-.14-.15-.14-.29l-.02-1.08s-.01-3.75.03-3.97zm10.8 5.25c-.09.14-.31.06-.49.07-.19.01-.37.01-.57.02-.79 0-.77.01-.76-.42V6.4c0-.49.13-.36.76-.33.16.01.28-.03.52-.02.15.01.37-.04.55 0 .1.26.05.95.03 1.29-.03.63.05 3.91-.03 4.02zm8.46-5.51c.09.08.01 0 .06.08.01.02.01.02.03.05 0 0 .02.02.02.03.27.27.13.21.23.6l.4 2.04c.08.47.2.88.28 1.34.03.2.31 1.34.18 1.4l-.06.03c-.08.03-1.17 0-1.31 0-.3 0-.42 0-.45-.3-.02-.2.03-.49-.09-.62-.22-.06-.65-.08-.72.14-.08.22 0 .64-.17.76-.11.07-.73.04-.91.04-.14-.01-.28-.02-.44-.01-.2 0-.32-.04-.44-.04-.1-.01-.32.04-.46.05-.42.03-.58-.01-.9-.01-.14 0-.33.04-.42-.05-.18-.16-.4-1.13-.47-1.38-.27-.08-.29-.05-.37.51-.15.95.09.94-1 .94-.22 0-.78.05-.91-.06-.09-.12.47-2.25.56-2.66.1-.45-.05-.73-.16-1.05l-.35-1.27c-.03-.13-.07-.28 0-.35.09-.09.61-.03.77-.03.26 0 .58-.07.78.02.38.16.23 1.01.48 1.17.24.05.34-.86.44-1.15.22-.08.52-.04.79-.04.42-.01.41-.06.72.11 0 .2-.04.18-.09.39l-.27.99c-.15.58-.36.72-.11 1.34l.43 1.29c.06.24.21.74.36.92.09.1.07.16.22.21.06-.34-.02-.19.1-.69l.19-1.14c.05-.31.11-.57.18-.88.06-.31.09-.63.14-.9l.17-.88c.11-.95.08-.74.69-.78.43-.03.07-.03.48-.01.17.01.38 0 .55 0 .28 0 .38.02.43-.14-.14-.04-.33-.09-.47-.15-.25-.11-.7-.26-.98-.19-.23.06-.29.49-.78.12-.22-.17-.2-.3-.02-.45.25-.21.41-.3.73-.29.2 0 .45-.02.6.03.1.03.11.04.24.06l.72.16c.39 0 .18-.38.87-.12.13.05.27.13.2.29-.11.28-.54.36-.67.52zm-13.04 5.05c.07.02.04 0 .09.03l.02.23.05.2c.05.29.06.39.36.37.67-.05 2.2.03 3.05.01.61-.02 1.33-.02 1.94 0 .34.01.68-.02 1.04-.01.75.01.57-.02.67-.33.09-.04.13-.07.23.02.14.14-.04.32.28.33.74.02 1.35 0 2.1 0h1.69c.2 0 .34-.03.3-.23v-.13c.09-.06.06-.08.19-.11.09.06.11.08.11.21.09.33.19.24.55.25h1.66c.49-.02.24-.24.37-.45.12-.1.49.24.83.38l.49.13c.85.17 1.93.07 2.58-.43.24-.18.14-.05.34-.28.1-.12.18-.18.23-.38.04-.18.09-.32.1-.51.01-.2.05-.39.06-.58.03-.59.12-2.32-.13-2.82-.08-.16-.11-.29-.21-.41-.26-.33-.76-.59-1.16-.72-.11-.03-.13-.03-.22-.04-.12-.01-.16-.01-.25-.07-.16-.1-.33-.02-.54-.02-.2 0-.13 0-.27.05-.21.06-.5-.03-.74.1-.19.11-.66.09-1.18.7-.2.23-.15.13-.19.42-.03.2-.07.32-.09.55-.04.38-.02.8-.06 1.13-.01.11.01.13-.03.21-.11-.03-.13-.08-.14-.21-.2-.37-.18-.75-.25-1.21-.03-.17-.07-.28.05-.39-.16-.08-.16.03-.23-.23-.24-.82.26-.87.4-1.36.09-.31-.25-.55-.51-.63-.06-.02-.11-.04-.18-.07-.24 0-.23-.05-.44.03l-.33.16c-.19.08-.33.17-.54-.01l-.12-.12-.02-.04c-.01-.03-.01-.02-.02-.05-.58.07-.39-.02-.66-.02-.69 0-.76.08-1.17.44-.16.14-.32.26-.35.48-.04.34.41.24.43.63.01.23-.05.73-.11.93-.07.21-.3 1.63-.33 1.85-.02.18-.01.35-.03.53-.02.16-.07.32-.1.46-.09-.02-.11-.02-.17-.1-.04-.05-.06-.1-.09-.15-.23-.46-.15-.48-.26-.73-.04-.1-.11-.24-.12-.38-.04-.37.36-1.34.47-1.96.15-.77.36-.91-1.35-.9-.92 0-.48.14-.69.26-.24.1-.28-.11-.36-.18-.2-.16-2.33-.05-2.73-.08-.16-.01-1.55-.05-1.66.02-.33.23-.21 1.1-.19 1.46.01.36-.02.75-.01 1.11.01.35.01.65.01 1.01-.12-.05-.16-.29-.17-.39l-.22-.96c-.04-.16-.04-.32-.07-.51l-.31-1.44c-.16-.48-.52-.25-1.18-.3-.1-.01-.15-.03-.27-.02-.18.01-.3.07-.55.05-.17-.01-.42-.16-.6-.04-.09.06-.04.09-.37.05-.06-.01-.15-.02-.21.02l-.16.14c-.09.09-.08.33-.12.47-.04.14-.03.4-.12.49-.08-.04-.05.01-.13-.22-.11-.28-.14-.33-.48-.57a4.19 4.19 0 0 0-.42-.27c-.19-.06-.45-.02-.67-.08-.37-.11-1.49-.1-1.86-.03-.52.1-.97-.11-1.09.28l-.05 1.21c.04.26-.03 2.26 0 2.9v.58c.02.29-.04.23.01.56.06.38-.14.2.15.45.1.09.05.11.24.11.15 0 .18-.03.33-.03.13 0 .22.02.35.02.24 0 1.16.02 1.31-.06.12-.07.08-.08.11-.23.1-.44-.03-1.34.04-1.7.06-.31.48-.16.81-.23l.55-.15c.29-.16.38-.25.35.15-.01.12-.01.2-.04.31-.07.31-.29 1.64-.26 1.83.12.08.07.04.25.06.14.02.18.01.31 0 .57-.03 1.52.07 1.95-.04 0-.28.07-.17.07-.59 0-.12-.03-.16.06-.19zm20.06 16.3c-.12.25-.63.58-.88.53-.08-.02-.29-.11-.34-.15-.29-.09-.58-.56-.34-.95.21-.35.46-.61.94-.53.51.09.77.48.67.98l-.02.06c-.03.07 0 .02-.03.05zm-10.56.5c-.27 0-.46-.01-.65-.25-.32-.4-.31-.74.06-1.1.28-.27.77-.32.97-.21.21.11.47.46.47.72 0 .07-.07.24-.09.32-.09.27-.44.52-.77.52zm-4.28-.74c0-.19.17-.45.26-.56.27-.34.84-.41 1.16-.12.44.38.36.89-.01 1.21-.4.36-1.01.29-1.25-.1-.08-.12-.16-.25-.16-.42zm-13.13.42c-.19 0-.51-.12-.65-.24-.13-.12-.23-.53-.21-.64 0-.02.11-.26.13-.31.11-.21.61-.68 1.08-.36.21.14.51.38.51.66 0 .41-.41.9-.87.9zm24.08-1.41c.25-.06.2.06.2.08-.14.06-.19.08-.2-.08zm-26.82-.03c.08.11.13.21.15.36.08.67-.34.36-.39.25-.05-.1-.07-.28-.15-.36-.24-.27-.61-.23-.61-.41 0-.26.63-.1.72-.07.15.05.19.12.28.24zm33.27.52c0 .25-.09.03-.05.42.02.23.03.16.01.36-.3 0-.51-.02-.79-.03-.4-.02-.35.12-.37-.34-.02-.38-.14-.61-.24-1.01-.02-.08-.11-.25.02-.25l.74.03c1.07-.01.78.5.56.55.07.04.12.17.12.28zm-14.35-.5c.08-.15.19-.31.38-.32-.18.27-.03.06-.17.18-.09.08-.03.13-.21.14zm.98-.61c-.04.13-.09.06-.21.14-.06.04-.01.03-.12.07-.31.1-.05-.21.33-.21zm1.4.37.17.2c0 .01.01.03.01.04l-.05.04c-.01 0-.03-.01-.03-.01l-.04-.04-.09-.09c-.15-.12-.21-.22-.4-.3-.14-.06-.44-.15-.5-.2.33 0 .33-.02.54.11.24.14.22.07.39.26zm-6.09.74c0-.12.13-.38.19-.47.08-.13.4-.38.54-.48.29-.21.34-.15.46-.18.23-.05.2-.1.46-.04v.03c-.22.02-.31 0-.46.08-.05.03-.05.03-.11.06-.75.33-.89.88-1.08 1.01zm-13.63-.99c.03-.15.19-.31.35-.29.02.08-.01.08-.03.1-.14.15-.18.17-.32.19zm2.55.38c-.08-.05-.11-.13-.17-.2-.11-.15-.4-.38-.55-.52.31 0 .46.23.65.46.08.1.08.12.08.27zm-5.49-.76-.07.07c-.17.08-.34-.13-.01-.16l.11-.03c.01-.11 0-.05.05-.13.14 0 .19 0 .22.11-.11.15-.13 0-.3.14zm11 2.15c0-.27.41-1.68.51-1.96.07-.2.12-.43.19-.62.11.03.05-.03.11.12.03.07.03.06.04.15-.16.16-.35.25-.2.53.09 0 .19-.01.27-.01.12-.01.1-.02.2-.04.15-.02.2.08.3.2.48.59.29.51.49 1 .05.12.13.25.16.35.1.25.2 1.14.03 1.39-.62.06-1.1-.02-1.76-.04-.44-.01-.35.25-.35-1.05zm3.51-2.49c.18.18.44.11.77.13.28.01.65.03.9.05.32.02.97-.05 1.28-.04.09 0 .27.06.37.07-.04.02-.09.04-.15.06-.27.12-.08-.06-.49.24-.52.38-.56.52-.76 1.11-.05.15-.01.28-.04.4-.03.11-.13.19-.06.32.03-.11.05-.2.05-.34.21.01.08.01.15.51.02.14.11.37.17.46.09.12.21.21.34.31.17.12.34.17.31.33l-.78-.01c-.27 0-1.44.04-1.61.01-.24-.04-.18-.35-.23-.65-.04-.3-.03-.87.03-1.15.04-.21-.12-.89-.18-1.09-.04-.12-.15-.6-.09-.7zm-14.99.14c-.1 0-.35-.33.15-.33.03.04.06.07.08.11-.08.16-.09.22-.23.22zm2.06-.26c.11-.08 1.69-.05 1.78-.02.16.06.24.14-.03.22-.11.03-.05.01-.11.05-.01.01-.08.06-.09.07-.04.04-.02.04-.07.09-.1.09-.16.08-.23.26l-.25.71c-.03.06-.15.43-.12.54.03.13.07.06.08.24.04.5.39.96.88 1.12.42.14.62.17 1.05.04.51-.15.85-.45 1.08-.87.14-.26.16-.17.14-.53-.06-.92.04-.45.11-.74.03-.13-.04-.19-.02-.3.15-.06.24-.01.4.02.33.06 1.01-.03 1.31-.06.24-.02 1.07-.01 1.26-.11.1-.05.14-.18.14-.29.12.21.19 1.15.34 1.68.03.1.05 1.36.04 1.43-.03.2-.14.13-.34.11l-2.02-.06c-.34 0-.68.02-1.02-.01-.35-.03-.65.04-.95.02-.37-.02-.88.02-1.01.01-.32-.03.12-.15-.88-.14-.38 0-.38.01-.7-.32-.09-.1-.13-.18-.23-.28-.39-.38-.18-.22 0-.54.09-.17.06-.17.2-.31.2-.21-.06-.37.06-.84.06-.23.02-.2-.07-.39-.06-.15-.08-.21-.19-.32-.08-.09-.17-.17-.26-.25-.14-.14-.19-.08-.26-.14-.09-.09-.02-.03-.03-.08zm12.7-.74c.18.02.08.1.18.23.18.23.43.08.57.1l1.29.03-1.11.04c-.48.01-.19-.06-.87.03-.06-.1-.14-.28-.05-.43zm2.73.3c.41-.04.17 0 .41.01.14.01.25-.03.44-.03.28 0 .3-.06.34.03-.15 0-.11.01-.2.04-.27.09-1.22.06-1.44.01v-.03l.45-.03zm17.8-.18c.09.17.17.27.18.49.02.5.08.42.08.61-.25-.05-.23-.18-.23-.45l-.03-.65zm-27.74.17c-.15 0-.19-.03-.31-.04 0-.15 1.06-.02 1.15 0-.04.18-.11.06-.49.05-.11 0-.23 0-.34-.01zm-8.28-.07c.21-.1.19-.03.37-.07.16-.04.24-.09.25.11-.12.01-.23.01-.34.01-.34.01-.24 0-.29-.05zm2.61-.14c.33.07.71.13 1.12.08.9-.11.29-.07.75-.02l.5.07c.07.01.35-.03.55-.01.39.03.02.07.53-.01.11-.02.14 0 .24 0 .12 0 .39 0 .47.09.03-.17.19-.11.38-.14.21-.04.28.04.16.2-.15.02-.18 0-.31.04-.1.04-.16.07-.28.08-.34.04-.44.09-.57.1-.37.03-.64.01-.98-.06-.06-.01-.08-.01-.13-.03a7.81 7.81 0 0 0-.95-.25h-.65c-.15 0-.17-.02-.3-.03-.55-.03-.21.02-.55-.12zm0 0c-.11-.01-.06 0-.17-.01l-.6-.03c-.81 0-.28.11-.52.24-.03-.02-.02-.01-.07-.03 0-.19.04-.08.11-.18.03-.04 0-.09.08-.19.05.02.07.04.13.05.12.01.05-.01.15-.01.56.04.37-.05.89.16zm14.87-1.08c0-.11 0-.17.06-.21.21-.15.12.22.12.24 0 .6.25 1.07-.1 1.09-.06-.05-.08-.09-.08-.17v-.95zm15.36.53c0-.26.27-.06.31-.05.06.01.39-.05.39.39 0 .36-.32.1-.41.11-.12.06-.06.09-.26.11-.05-.12-.04-.41-.04-.57zm-23.1 1.25c-.23-.04-.2-.13-.3-.27-.07-.1-.27-.14-.27-.22 0 0 .04-.11.05-.17.06-.35.02-.21-.06-.36-.1-.19-.18-.72-.18-.93.05.04.01-.02.07.07l.06.18c.02.09.02.17.05.27.02.11.05.16.07.27.06.54.04.2.14.53.16.55.28.35.39.63zm23.25-1.77c-.19.03-.13-.12-.11-.26.11.02.05-.04.11.05.03.05.03.14 0 .21zm-13.52-.17c0-.06-.05-.06.19-.13.08.11.09.04.07.19l-.05.73c0 .15.1.61-.22.41l.01-1.2zm-1.66-.34c.11-.01.13-.03.27-.03.3.02.08.05.49 0h.62c.22 0 .31.05.52.05v.05c-.18.04-.04-.03-.16-.03-.07 0-.07.04-.19.05h-1.09c-.17.01-.16.05-.38.05-.08-.08-.08-.08-.08-.16zm3.85.11c.05.08-.02 1.14-.05 1.32-.05.3 0 .11.06.31.12 0 .18-.03.27-.04h.22c.14-.01.4-.02.53 0 .3.03 1.12-.03 1.45.07.14.04.27.1.44.11.24.01.25-.13.41-.14.48-.03.06.29.91.1.16-.04.21.07.33.15.15.09.35.02.49-.01.15-.02.29.07.41.11.21.07.27.01.45-.05.14-.05.31-.01.46.03.29.07.28.25.68-.23.19.08.08.2.23.3.13.05.28.02.4.06.15.05.17.13.37.09.16-.03.15-.12.31-.06.21.08.17.02.36.02.11.18.02.38.11.7.11.35-.27.22-1 .2-.16 0-.33.02-.52.02-.29 0-.39-.04-.42.16.08.04.11.07.2.09.11.03.15 0 .19.09.08.11-.08.17-.17.18-.23.03-.13.04-.21.19v.04c-.02.15-.01.14-.07.2-.02-.08-.07-.23-.09-.31-.06-.28.14-.63-.23-.47-.14.06-.06.12-.21.18-.16-.03-.07-.08-.19-.15-.09-.06-.18-.02-.3-.04-.18-.02-.31-.12-.51-.06-.08.28-.04.98-.07 1.21-.06.53-.13.45.55.4l.03-.22c.18.04.06.13.16.2.19.08.45.03.64.03.01-.06.02-.11.04-.17.11-.2.29-.03.39.14.11.2.39.2.52.15.13-.06.02 0 .19.02.22.02.6-.27.69-.41.07-.1.08-.29.09-.44.02-.26-.13-.36-.29-.5-.05-.04-.09-.07-.1-.14.47-.12.5.12.81-.12.13-.11.11-.18.2-.28l.1-.09c.08-.09.04-.09.18-.09-.01.09-.05.13-.1.19-.02.03-.05.06-.07.09l-.05.06c-.09.11-.05.12-.13.22-.06.07-.09.08-.12.17-.03.09-.13.92-.15 1.07-.02.18-.03.26.04.28.26.09.22-1.31.6-1.5.05-.08.18-.25.28-.28.3-.47 1.43-.45 1.89-.27.29.11.59.41.75.7.03.05.03.07.05.12 0 .01.01.01.01.02l.11.25c.13.4.05.66.19.95.09-.01.13-.07.27-.07.13 0 .12.08.24.1.09.02.61.04.81-.01.14-.04.1-.04.13.02.04.07-.05.2-.09.24-.15.17-.23.17-.35.35-.29.42-.44.25-1.11.3-.2.01-1.19-.02-1.33-.06.06-.11.08-.07.3-.17.17-.08.56-.47.67-.69.37-.72-.08-1.22-.14-1.41-.07-.13-.12-.15-.23-.24-.13-.07-.22-.18-.36-.26-.38-.2-1.04-.22-1.41.07-.08.06-.13.09-.2.15-.07.05-.12.09-.18.14-.15.22-.27.27-.35.58-.08.32-.15.31-.11.82.03.31.32.65.58.81.25.14.23.12.25.23-.19-.01-.12-.01-.31 0-.11.01-.19.01-.3.01-.2.01-.41.03-.63.03-.43-.01-.88-.02-1.31-.01-.7.02-5.4.04-5.87-.01-.4-.04-.1-.14.07-.2.13-.05.11-.06.2-.12.51-.36.44-.52.56-.75.04-.08.07-.04.07-.25 0-.28.08-.92.05-1.15-.06-.42-.9-.83-1.14-.82-.51.02-.67-.08-1.13.13-.86.4-.66.74-.81 1.14-.19.53-.12.63-.04 1.03.03.17.09.33.19.45.28.33.61.37.72.59-.21 0-.41-.02-.58-.02-.53 0-1.4.05-1.81-.03.03-.1-.04-.05.11-.12.04-.02.09-.03.14-.05.64-.28.68-.64.9-.97.14-.2.2-.22.13-.52-.05-.24.05-.33-.05-.63-.09-.26-.32-.6-.58-.74-.06-.03-.07-.04-.12-.07-.2-.1-.33-.12-.56-.17.05-.07-.04-.02.09-.08.04-.02.05-.02.12-.02l1.52.02c.37-.01.71-.07 1.17-.01.15.02.27-.02.43-.05.15-.03.3-.02.41-.09.04-.06.1-.43.1-.5 0-.12-.08-.07-.17-.07-.12 0-.16-.02-.26-.04-.24-.04-1.05.09-1.3.03-.23-.05-.04-.03-.21-.01-.08.01-.06 0-.13 0-.11 0-.15.03-.27.04-.55.02-.69 0-1.16 0-.26 0-.22-.04-.26-.08.12-.05.71-.03.91-.03.71 0 .74.07.7-.15-.08-.44.19-1.18.02-1.55-.13-.05-.64.01-.8.02-.33.04-.58.03-.87 0v-.05c.34-.08.62-.05 1.01-.05.19 0 .28-.03.49-.03.69 0 .53-.09 1.48-.11l.23-.01c.34.02.53-.05.67-.02v.05c-.14.03-.32.03-.48.06-.47.08-1.12.01-1.52.1l.03.08zm-11.71-1.25c0-.19.03-.29.04-.43h.08c.05.41.19 1.58.03 1.91-.08-.02-.08 0-.11-.09l-.04-1.39zm-8.53 1.11c0-.05.01-.1.02-.15l.07-.14c.22-.19.08.17.05.24-.07.18-.01.13-.11.21l-.03-.14zm-1.83-.28c.11 0 .23.01.34 0h.66c.11 0 .11-.08.15.02.02.04.01.06 0 .08-.04.11-.02.04-.06.09-.01-.06-.01-.04-.03-.11-.17.01-.03.07-.23.07-.06 0-.22-.01-.28-.01-.34.01-.41.06-.53.07l-.03-.21zm9.2-1.07c.05.05.03.02.04.16 0 .07.02.11.02.16v.97c.02.08.06.13.04.22-.05-.02 0 0-.05-.03-.27-.15-.09-.22-.06-.33l-.02-.89.03-.26zm6.23 1.22c.03.07.27.82.24.93-.26-.12-.38-.96-.48-1.15-.09-.18-.19-.23-.19-.39 0-.06.01-.09.03-.13.07.01.08-.03.15.15l.25.6zm17.18-.18c-.35 0-.41.05-.57-.19-.05-.08-.24-.39-.24-.52 0-.18.07-.59.17-.76.04-.08.01-.06.09-.09.13-.04.24.01.3.06-.32.02-.42.24-.42.57 0 .53.05.37.23.67.07.12.04.15.2.17.11.01.19 0 .23.09zm2.33-1.26c.19 0 .19-.14.25-.27.07-.16.23-.1.42-.13.11-.01.34-.09.47 0 .14.1.23.63.25.82l.03 1.28c-.02.1-.02.11-.12.12-.11-.17 0-.97-.06-1.27-.09-.39 0-.11.01-.37-.05-.05.01 0-.04-.04l-.03-.03c-.04-.03-.03-.02-.06-.05-.11-.09-.15-.18-.2-.28-.1-.26-.23-.04-.25.16-.02.19.07.24.07.36s-.03.11-.05.21c-.05.19-.03.52-.03.74 0 .17.09.16.07.44-.13-.01.02 0-.11-.03-.03-.01-1.18-.07-1.53-.12-.35-.05-.35-.09-.65-.09v.16c-.04-.02-.2-.13-.25-.16.01-.2.07-.24.07-.49 0-.18.03-.3.03-.47 0-.17.01-.32.02-.5.01-.16-.03-.37.2-.33.46.07.27.09.65-.04.02-.01-.01-.02.09-.02.14.13.08.43.33.43.05 0 .06-.04.14-.04l.3.02zM7.62 12.62c-.07.07-.13.13-.21.22-.07.09-.15.14-.21.22-.14.18-.47.48-.66.63-.09.07-.12.13-.21.22-.06.06-.15.16-.21.21l-.13.11s-.01.01-.01.02c-.15.21-.07.06-.27.29-.07.08-.13.1-.2.17l-.42.46c-.08.08-.14.15-.21.21-.1.09-.11.13-.22.22l-1.07 1.05c-.09.08-.15.17-.22.24-.08.08-.13.13-.2.23-.04.05-.06.07-.1.11-.03.03-.03.02-.05.05L1.7 18.59c-.09.1-.15.12-.24.19-.08.07-.14.15-.21.21l-.64.67c-.06.08-.09.17-.15.28-.12.23-.18.33-.28.58-.16.43-.22.99-.15 1.51.18 1.35 1.4 2.12 1.48 2.36.06.17 0 .16.14.29l.88.86c.37.3.42.42.64.63l1.32 1.28c.09.07.16.11.27.17.17.08.39.35.55.51l.2.21c.07.07.1.1.17.18.06.06.13.1.2.18l.26.27c.01 0 .2.1.01.29-.1.1-.4.33-.54.23-.08-.05-.1-.5-.59-.58-.27-.04-.9-.04-1.21-.02-.4.02-.78.26-1.09.43l-.63.29c-.15.15-.32.16-.42.41-.18.44-.01.25-.15.65-.08.23-.16.61-.27.85l-.43 1.27c-.16.56-.56 1.27-.23 1.71.19.25.49.25.87.25.88 0 1.28.1 1.54-.74.12-.41.22-.4.71-.39.66.02.65-.01.77.36.28.87.44.78 1.54.76.47-.01 1.91.04 2.25-.04.11-.02.12-.03.18-.09s.09-.1.14-.16c.1-.12.13-.26.2-.39.33.01.53.48.86.63.38.17 1.94-.04 2.2.06.18.07.59.53.76.69.08.07.12.11.19.18.04.04.06.06.09.1l.05.05c.01.01.04.04.06.05l.57.56c.07.07.14.11.19.18.3.38 1.33 1.29 1.51 1.52l2.28 2.28c.14.14.24.26.36.39l.94.94c.1.1.11.07.21.19.39.49 1.23 1.06 1.89 1.16.7.1 1.33.08 1.94-.23.07-.04.19-.08.26-.12.1-.07.11-.11.23-.16.06-.11.06-.07.16-.15l1.05-1.02.01-.01.22-.21c.02-.03.02-.02.04-.04l.08-.08 2.32-2.29c.07-.07.08-.1.15-.17l.9-.87c.04-.03.01-.01.05-.03.02-.1.37-.4.45-.49l.3-.32c.05-.05.11-.09.17-.16.07-.07.23-.25.35-.31.19-.24 1.18-1.17 1.45-1.43.29-.29.43-.18.95-.18.2 0 .43.01.63 0 .49-.03 1.86.08 2.26-.04.37-.12.88-.36 1.18-.59.05-.04.1-.1.15-.14.09-.06.16-.05.15-.13.03.25.06.47.2.67.06.08.1.1.18.14.27.16.72.14 1.06.1.58-.06.91.06 1.14-.68.07-.24.06-.26.18-.43.38 0 .83-.08 1.13.04.22.09.05.27.4.79.1.14.26.26.51.27.3 0 .63.01.89-.03.39-.07.47.04.76-.2.39-.33.04-.98-.07-1.42-.11-.46-.16-.4-.23-.67-.09-.36-.18-.52-.23-.7-.11-.43-.22-.6-.34-1.05-.08-.31-.06-.17-.13-.34-.16-.39-.05-.39-.21-.69-.12-.22-.04-.35-.33-.61-.23-.21-1.27-.19-1.61-.14-.36.05-.41.13-.67.25l-.64.31c-.46.23-.31-.22-.82-.42-.28-.11-.42-.13-.22-.4.08-.1.06-.07.14-.1.02-.02.12-.08.15-.1l.78-.67c.12-.1.82-.78.87-.87.19-.34-.17-.02.51-.67l2.05-2.08.04-.04.08-.08.11-.1c.63-.61.91-1.03 1.04-1.91.07-.5.05-1.31-.2-1.74-.04-.06-.08-.12-.1-.19-.07-.17-.13-.24-.22-.37l-.56-.62c-.12-.1-.17-.18-.28-.28-.37-.36-.62-.65-1.02-1.01-.09-.08-.28-.32-.44-.45-.35-.29-1.44-1.43-1.89-1.86-.07-.06-.08-.09-.14-.15-.28-.26-.64-.68-.89-.88-.12-.1-1.29-1.33-1.72-1.71-.04-.03-.1-.1-.14-.15l-.12-.17c-.53-.63-.79-.54-.59-.9.07-.13.13-.24.22-.37.36-.53.28-1.91.27-2.57-.01-.59.02-1.07-.06-1.66-.02-.16-.09-.3-.11-.47-.08-.08-.13-.31-.34-.55-.16-.18-.48-.53-.73-.61-.29-.1-.87-.42-1.31-.44-.07 0-.14.01-.19.01-.11-.01-.08-.02-.16-.04-.12-.03-.56.02-.75.02-.3-.01-.8.14-1.08.22-.17.04-.19.06-.39.06-.04-.1-.06-.11-.1-.25-.03-.11-.04-.11-.11-.21-.1-.15-.19-.26-.32-.35l-.22-.13c-.09-.04-.13-.07-.21-.12-.91-.51-.97-.29-1.48-.16-.28.07-.29.03-.54-.04-.19-.06-.36-.06-.51-.14-.14-.08-.42-.41-.52-.5-.24-.21-.24-.24-.5-.49-.12-.12-.19-.21-.31-.33l-1.31-1.32c-.21-.21-.47-.45-.72-.62-.14-.1-.3-.15-.45-.22-1.03-.46-2.19-.32-3.1.35-.17.13-.26.25-.33.31l-.85.82c-.06.06-.09.11-.15.17-.13.11-.21.19-.33.31l-1.33 1.32c-.2.25-.45.41-.65.66l-.66.65c-.34.27-1.13-.1-1.99.19-.52.17-.22.35-.69.19-.15-.05-.32-.12-.49-.16-.09-.02-.21-.02-.32-.04-.1-.02-.17-.04-.27-.05-.41-.06-1.37.01-1.86-.02-.23-.01-.93-.04-1.22.06-.37.13-.51.32-.67.65-.16.34-.08 1.91-.08 2.36.01.86-.01 1.69-.01 2.56 0 .29-.05 1.05.06 1.23.04.08.11.11.13.22.03.19-.17.38-.31.56-.02.03-.02.02-.04.04z" style="fill:#000"/><path d="M10.89 8.35c-.14-.2-.1-.38-.11-.66-.01-.26-.05-.52.08-.7.62-.06.56.35.55.67-.01.46-.03.66-.52.68zm20.8.84c0-.44.01-.86.01-1.29 0-.51-.05-.77.22-1.11.35 0 .4.52.38.68-.07.55.05 2.62-.06 3-.04.15-.55.5-.55-.36v-.92zm-1.91-1.42.02 1.87c0 .35.02.87.21 1.11.2.26.43.48.75.59.62.22 1.31.29 1.98.16.12-.02.57-.16.67-.23.2-.13.35-.27.48-.41.18-.17.22-.35.25-.63.06-.65.13-2.78-.08-3.3-.06-.15-.23-.4-.35-.51-.52-.47-1.5-.55-2.19-.49-.51.04-1.2.28-1.49.72-.21.32-.25.7-.25 1.09zm-2.56.25c.09.16.09.31.11.52.01.1.01.22.02.3.01.09.15.69-.12.69-.44 0-.41-.16-.33-.67.04-.26.06-.59.15-.84l.17-.02zm1.1-1.99-.19-.01c-.01 0-.08-.02-.09-.02-.07-.04-.02 0-.06-.08.07-.03.14-.05.23-.05.13-.15.56-.23.67-.52.06-.16-.08-.25-.2-.29-.69-.26-.48.13-.87.12l-.72-.16c-.12-.02-.14-.03-.24-.06-.15-.05-.4-.03-.6-.03-.33 0-.49.09-.73.29-.18.15-.2.28.02.45.49.37.55-.07.78-.12.28-.07.73.08.98.19.14.06.33.11.47.15-.05.16-.15.14-.43.14-.17 0-.38.01-.55 0-.41-.02-.05-.02-.48.01-.61.04-.58-.17-.69.78l-.17.88c-.05.28-.07.59-.14.9-.06.31-.13.57-.18.88l-.19 1.14c-.12.51-.04.35-.1.69-.15-.05-.13-.11-.22-.21-.16-.17-.3-.67-.36-.92l-.43-1.29c-.24-.62-.03-.76.11-1.34l.27-.99c.05-.21.09-.19.09-.39-.31-.18-.3-.12-.72-.11-.27 0-.58-.04-.79.04-.1.29-.2 1.2-.44 1.15-.24-.16-.09-1.01-.48-1.17-.2-.08-.52-.02-.78-.02-.16 0-.68-.05-.77.03-.07.07-.03.22 0 .35l.35 1.27c.11.32.25.6.16 1.05-.09.41-.65 2.53-.56 2.66.13.11.68.06.9.06 1.09 0 .85.01 1-.94.08-.55.11-.59.37-.51.06.25.29 1.22.47 1.38.1.09.28.05.42.05.32 0 .48.03.9.01.14-.01.36-.05.46-.05.12.01.24.05.44.04.16 0 .29.01.44.01.18.01.8.04.91-.04.17-.11.1-.54.17-.76.07-.21.5-.19.72-.14.12.12.07.42.09.62.03.29.15.3.45.3.14 0 1.23.02 1.31 0l.06-.03c.13-.07-.15-1.21-.18-1.4-.08-.46-.2-.87-.28-1.34l-.4-2.04c-.1-.39.04-.32-.23-.6zm-8.57 5.34c.08-.12.01-3.39.03-4.02.01-.35.06-1.03-.03-1.29-.18-.04-.4.01-.55 0-.23-.01-.36.02-.52.02-.63-.03-.76-.16-.76.33v4.64c0 .44-.03.42.76.42.2 0 .38 0 .57-.02.18-.01.4.07.49-.07zm-4.63-3.54c.02-.08.05-.16.07-.23.03-.14.01-.15.09-.19.04.28.03.01.06.45l.08.9c.02.26.17.79-.11.79-.32 0-.38.03-.38-.21l.2-1.52zm-.14-1.81c-.41.03-.74.01-1.16.04-.12.18-.16.91-.25 1.32-.1.44-.14.9-.24 1.35-.1.45-.5 2.48-.44 2.69.14.07 1.06.06 1.22.06.75 0 .66.08.73-.61.01-.11.02-.18.06-.26.07-.16.33-.14.5-.14.14 0 .19 0 .21.12.15.83-.11.87.47.87.38 0 1.22.05 1.48-.05.02-.27-.23-1.3-.31-1.69-.03-.15-.03-.26-.06-.42-.02-.16-.08-.26-.11-.4l-.14-.86c-.04-.25-.12-.56-.17-.81-.29-1.44-.17-1.18-.8-1.2-.16-.01-.3 0-.47.01-.17.01-.37-.03-.52-.02zm-6.02.1c-.04.22-.03 3.97-.03 3.97l.02 1.08c0 .14-.02.25.14.29l1.42.01c.14 0 .22-.01.25-.14.05-.24-.08-1.62.04-2.06.47 0 1.17.03 1.61-.16.52-.22.53-.73.53-1.23 0-.83 0-1.61-.93-1.73l-.4-.03c-.1-.02-.25-.07-.37-.07H9.25c-.15 0-.2.02-.29.08z" style="fill:#fff"/></svg>