<svg xmlns="http://www.w3.org/2000/svg" xml:space="preserve" width="249.853" height="105.803" style="shape-rendering:geometricPrecision;text-rendering:geometricPrecision;image-rendering:optimizeQuality;fill-rule:evenodd;clip-rule:evenodd" viewBox="0 0 165.33 70.01"><defs><style>.fil7{fill:#a80101}.fil4{fill:#fdf6fc}.fil2{fill:#fefefe}</style></defs><g id="Camada_x0020_1"><g id="_2087233724800"><path d="M0 64.49v1.73c1.69 1.72 1.47 1.55 5.3 1.59 3.84.04 10.6.53 13.78-.26 2.81-.7 4.29-2.21 5.05-2.12 1.99.74 1.4 2.49 5.68 2.73l13.37.09c4.16-.05 1.2-2.56 6.44-2.09 1.73.16.9.34 2.64 1.7 2.31 1.8 12.64 1.39 16.03.6 2.43-.56 8.65 1.71 11.46-.51 3.09-2.44 4.54.62 5.73.94 1.6.44 10.85.22 13.09.27 5.85.12 11.65.34 17.52.45 5.04.09 12.61.72 17.42.21 1.31-.14 2.61-.44 3.82-.51 3.1-.16 6.38.76 7.86-1.01 3.06-3.68-.07-3.26-.12-4.77 1.83-.84 1.92-.12 3.03-1.9.69-1.1 1.27-1.96 2.05-3 3.49-4.63 13.36-8.72 14.15-11.4.36-1.21.43-2.91 1.06-3.92V25.49l-3.95 14.82c.27 2.03.3 3.05-.8 4.74-.36.77-.76 1.4-1.25 1.88-.43.42-1.08 1.05-1.81 1.23.29-1.83 1.2-2.96 2.44-3.85.59-1.02 1.34-1.18 1.16-2.89-.09-.07-.26-.22-.39-.32-.93-.48-1.01-.73-.8-1.99-.16-.13-.31-.1-.51-.24-1.41.76-1.04.52-2.89.84-1.03.18-2.09.47-3.09.74-1.01.27-2.13.74-3.21.65-1.4-.12-1.46-.95-2.19-1.64l-11.86-.32c-1.92.19-2.3.24-4.04-.29-1.29.26-1.9.84-3.37.91-1.61.07-2.25-.51-2.9-1.22-1.33.81-2.06.86-3.81.35-1.6.04-1.16-.39-2.5-.52-.1.88-.54.67-1.7.7-.82.02-1.7.02-2.5.06-1.59.57-5.56 2.54-7.01 2.55-.43-.58-.79-.86-1.26-1.55-.91-1.31-.44-.61-1.9-.97l-1.54-.45-8.44-.22c-.91.33-2.44.82-3.47.14l1.04-3.29c-1.81.71-1.58 2.47-2.66 3.11-.17.1-1.96.56-2.32.67-1.08.33-1.73.22-2.15-.6.86-.44 2.36-.56 2.87-1.09.66-.69.27-2.43.36-3.48.16-1.68 2.41-4.12.66-6.14l-.75.13c-.82-1.9.6-3.64 1.3-5.24 2.03-4.65 2.2-3.92 7.55-7.23 1.57-.97 2.98-1.81 4.51-2.76l13.77-8.47c1.52-.96 2.73-2.02 5.2-2.16 5.71-.33 16.67-.31 23.2-.38 2.88-.03 4.75-.39 6.32 1.17 1.24 1.23 2.57 2.4 3.72 3.65l10.98 10.77v-3.17c-2.01-1.54-12.95-12.78-14.04-13.55-1.22-.88-7.07-.45-9.17-.44-6.5.03-12.98.14-19.49.26-4.44.09-4.46.39-7.34 2.16L92.29 16.72c-2.99 1.84-2.67 1.59-3.97 5-1.09 2.86-1.57 5.28-4.24 4.59-1.34-.35-1.89-1.28-4.07-.8-.83.18-2.43 1.07-3.19 1.46-3.93 1.98-5.23 2.72-9.43 4.59-1.21.54-2.12 1.21-3.26 1.5-.04-.77.14-1.69-.21-2.29-.51-.85-1.01-.45-.99-1.6 1.25-1.02 1.97-.18 3.94-2.48 1-1.17 7.85-2.68 8.55-4.03.72-1.38-1.23-2.89-3.1-2.81-2.24.09-3.21 1.44-5.31.34-2.08-1.09-2.65-1.06-5.03-.3-1.61.51-3.04 1.21-4.24 2.05-3.01 2.11-.59 2.72-.32 3.58L44.8 31.41c-.06-1.01 6.56-14.16 7.91-16.95 1.95-4.04-3.21-5.66-7.85.99-1.26 1.8-1.76 3.45-2.62 5.58-.81 2.01-4.7 9.95-6.26 10.38-.88-.88-1.72-6.51-2.05-8.1-.92-4.49-.8-4.32 1.84-7.18 1.15-1.24 1.36-2.37-.32-3.2-2.15-1.06-2.93.18-4.72.33-4.55.37-5.54-.22-6.87 3.76-.79 2.38-10.08 17.01-11.71 19.5-.64.98-1.92 2.45-.66 3.59 1.2 1.1 2.74.45 4.48.46-.09 1.8-11.42 17.35-14.04 21.16-.57.83-1.24 1.97-1.9 2.79z" style="fill:#07090a"/><path d="M146.1 30.3c1.86.5 5.69-.25 7.57.43.61 2.13-1 2.17-3 2.17-6.28 0-5.75-.3-6.38 1.79-.08.27-.65 1.66-.16 1.97 1.75.49 7.46-.22 9.16.37.38.73-.14 1.55-.51 2.03-2.24.63-10.6.31-13.32.14.61-2.77 1.82-5.99 2.67-8.73 2.21-7.12.04-5.45 12.27-5.51.99 0 1.99-.22 1.84.8-.33 2.31-2.56 1.6-7.55 1.56-1.26-.01-2-.2-2.42.65-.35.72-.54 1.78-.18 2.33zm-40.93 8.86c1.46.36.99-.34 1.9.97.47.68.84.97 1.26 1.55 1.44-.02 5.42-1.99 7.01-2.55.05-.62.36-1.48.17-2.28-.33-1.38.37.98-.12-.33-.02-.04-.07-.07-.08-.15-.08-.51-2.76-.3-3.39-.31-2.78-.01-2.23-.35-4.51 2.2-.68.76-.75 1.03-2.23.91zm9.96-5.63c.48-.44.28-.07.35-.9.07-.79.03-3.37-.28-3.88-.92.1-2 2.04-2.89 3.25-.36.5-1.23 1.35-.32 1.62.73.22 2.64.16 3.14-.09zm14.57-6.11c-1.04.49-1.66 3.33-.99 3.67.74.38 4.83.08 5.57-.2 1.33-.51 2.24-2.59.93-3.36-.73-.43-4.78-.46-5.5-.12zm-3.84 11.12c.65.71 1.29 1.29 2.9 1.22 1.47-.07 2.08-.65 3.37-.91-.24-1.63 1.86-3.7.8-5.08-.96-.5-4.45-.4-5.39-.13-.86.62-1.48 3.63-1.69 4.9zM98.18 31.4c5.95 1.07 7.21-2.8 5.85-3.77-.54-.39-4.21-.63-4.78.03-.44.52-1.25 3.04-1.07 3.74zm-8.65-3.59c1.75 2.02-.51 4.46-.66 6.14-.1 1.05.29 2.79-.36 3.48-.51.53-2.01.66-2.87 1.09.42.83 1.07.94 2.15.6.36-.11 2.15-.57 2.32-.67 1.07-.65.85-2.4 2.66-3.11.69-1.26 1.28-3.16 1.81-4.49 1.65-4.21 1.44-5.68 3.75-5.75 2.68-.08 7.94-.39 9.19 1.01 1.87 2.09-.8 6.42-4.45 7.38-6.38 1.67-5.69-2.27-7.87 5l8.44.22c.33-.92 7.72-9.73 9.32-11.73.4-.5 1.12-1.43 1.76-1.73.95-.45 2.74-.37 3.55.06.61 1.13.9 10.82 1.28 13.04 1.34.13.91.56 2.5.52-.03-.9 2.98-9.22 3.66-11.27.52-1.56.41-2.64 2.61-2.69 4.11-.1 13.47-.87 10.62 4.7-.84 1.66-2.11 1.86-2.74 2.6.21.91.5.53.67 1.37.12.55-.08 1.41-.16 1.94-.17 1.23-.29 2.4-.54 3.59l11.86.32c.73.7.79 1.52 2.19 1.64 1.08.09 2.2-.37 3.21-.65 1-.27 2.05-.56 3.09-.74 1.85-.32 1.49-.08 2.89-.84.19.14.35.1.51.24.7-1.67 1.29-4.65 1.82-6.57.52-1.92 3.64-12.22 3.13-13.35-.31-.71-7.58-7.67-8.76-8.84-.78-.78-1.54-1.55-2.28-2.23-3.2-2.97-4.19-5.33-7.99-5.29l-18.54.25c-8.99.27-6.48-.79-14.21 4.07L96.46 17.31c-3.66 2.2-3.38 1.6-4.47 4.35-.9 2.26-1.73 4.09-2.47 6.11z" style="fill:#e20000"/><path class="fil2" d="M140.32 47.62c.38 1.66-1.8 3.8-3.33 4.09-1.11.21-4.31.08-5.83.09-.88 0-1.53.14-1.69-.39-.05-.15 1.75-3.97 3.26-4.19 1.51-.22 6.53-.08 7.59.41zm-6.54 18.94c1.58-2.09 1.28-7.14 3.31-8.79.66-.54 1.12-.82 1.79-1.31.68-.49 1.05-.87 1.66-1.42 2-1.78 4.62-4.66 5.05-7.27.31-1.88 1.99-1.84 1.61-4.41-.45-3.08-6.88-2.56-10.12-2.57-7.33-.03-5.96-.87-9.1 3.62-1.8 2.58-14.69 20.7-14.84 21.84 6.71.39 5.43.34 8.35-3.91.56-.82 1.82-2.89 2.4-3.46.68-.68 4.05-.8 5.32-.34.31 1.47-1.73 6.48-1.65 7.47.09 1.2 5.03.7 6.21.55zM87.27 50.96c-.13-.7.75-1.64 1.24-2.41.53-.85.8-1.63 1.82-1.89.99-.26 7.09-.18 7.67.29.82.66-.35 2.06-.66 2.43-.52.63-1.29 1.3-2.15 1.54-1.4.39-6.75.39-7.91.03zm4.61 14.96c1.12-2.5 1.36-7.52 3.19-8.91 2.76-2.09 4.14-3.13 6.36-5.95 1.16-1.47 4.1-5.95 3.67-8.22-.61-3.27-6.43-2.62-10.25-2.62-1.33 0-5.76-.29-6.58.24l-7.54 10.68c-1.31 1.89-9.69 13.41-9.77 14.51 6.25.54 5.74-.18 7.31-2.45.69-1 1.22-1.7 1.93-2.74.56-.83 1.26-1.95 1.95-2.65 1.3-.1 3.8-.32 4.79.15.48.38-.01 1.44-.15 1.96-.2.75-.36 1.36-.54 2.07-.24.96-.96 3.04-.92 3.97l6.54-.05zM39.74 48.87c.03-.73.87-1.46 1.43-2.07.7-.76 1.02-1.04 2.65-1.05l11.6.16c1-.25 4.31-5.66 4.31-6.09-3.48-.18-7.62-.34-11.09-.32-3.8.02-6.01.99-8.45 2.59-3.17 2.06-7.33 7.4-9.84 11.15-1.41 2.11-2.83 4.16-3.77 6.68-1.64 4.4-.18 5.16 4.55 5.2 1.82.01 10.24.34 11.23-.17.68-.35 4.06-5.48 4.14-6.25-3.52-.48-9.36.28-12.76-.35-.19-1.11.6-2.42 1.33-3.05 2.6-.67 10.66.2 14.01-.08.64-.6 4.11-5.41 4.23-5.98-2.67-.18-12.02.06-13.57-.38zM75.76 48.74c-1.3 2.81-3.88 6.41-5.86 8.27-1.21 1.14-2.63 2.14-5.27 2.15-4.45.01-5.35.25-4.25-2.61.85-2.2 4.47-6.83 5.98-8.2 1.16-1.06 2.43-2.39 5.05-2.38 2.95.01 5.86-.46 4.36 2.78zm8.13-4.99c.7-2.7.08-3.77-2.84-4.05-8.93-.86-12.13.08-17.19 4.92-2.18 2.08-4.62 5.22-6.47 7.97-1.48 2.2-4.32 6.39-5.08 8.99-.83 2.83-.46 4.2 2.89 4.19 2.58 0 4.91.12 7.45.15 5.34.07 7.6-2.77 9.86-5.06 2.75-2.79 10.24-12.74 11.37-17.1zM108.07 51.75c-.27-1.02 1.22-2.31 1.83-3.05.77-.93 1.33-2.23 2.89-2.23 7.68 0 7.56-.41 5.79 2.54-.55.92-1.15 2.18-1.85 2.93-1.36.17-7.71.12-8.66-.19zm-1.11 14.33c4.77.04 4.66.54 5.84-1.19l10.59-15.28c.91-1.26 1.77-2.48 2.44-4 2.52-5.71-1.89-5.15-6.92-5.14-5.06.01-7.58 1.1-10.17 3.4-4.25 3.77-8.16 9.97-11.25 14.53-.74 1.09-5.03 6.83-4.97 7.59l5.23-.08c.74-.76 1.65-2.23 2.29-3.16 3.57-5.18 2.54-4.51 6.39-4.5 1.47 0 4.02.04 5.27.28-.18 1.64-4.24 5.58-4.75 7.57z"/><path class="fil2" d="M11.51 58.15c-.23-.95.67-1.67 1.14-2.38.52-.77.95-1.36 1.5-2.14 1.01-1.42 1.98-2.84 2.99-4.29 3.29-4.79 1.98-3.93 7.42-3.9 1.29.01 2.69-.21 3.53.43.87 2.06-2.4 6.4-3.4 7.61-2.22 2.68-3.6 4.9-6.92 4.92l-6.26-.23zm-6.54 6.48c1.57.17 3.51.16 4.82-.13.6.16.34.09.87.19.72.01 1.22-.17 1.97-.1s1.26.2 2.08.2c3.51 0 6.59-2.07 8.59-4.1 3.12-3.16 13.64-15.51 11.77-20.03-.49-1.19-1.4-1.12-3.06-1.17-2.15-.07-12.08-.49-12.89-.1-.43.2-7.87 11.13-8.77 12.44l-6.46 9.51c-.85.76-1.92 1.94-1.92 3.44l2.34-.27.66.12zM26.53 24.21c1.82 1.4 3.1 13.26 6.34 13.66 1.19.15 2.76-.18 3.74-.66 4.13-2.01 10.16-15.25 12.27-19.74.54-1.16 2.44-4.46 2.09-5.55-1.89-.27-4.48 2.9-5.38 4.19-1.31 1.87-2.04 3.96-2.96 6.25-.87 2.16-5.51 10.98-7.13 11.52-1.86-1.13-2.89-7.9-3.43-10.39-.3-1.37-1.3-4.7-.58-5.91.48-.81 3.04-2.66 3.26-3.76-1.98-1.44-2.13.92-4.87.65-2.44-.23-3.77-.2-4.62 1.67-2.46 5.43-5.63 10.53-8.92 15.61-.83 1.28-1.61 2.5-2.43 3.82-.57.92-2.2 2.8-1.5 3.82 2.25.24 6.08-5.58 7.4-7.29 1.08-1.39 2.15-2.71 3.21-4.1.62-.81 2.56-3.64 3.48-3.81zM74.09 36.03c-.73-3.3 8.28-7.13 9.21-5.02.83 1.88-6.18 6.53-9.21 5.02zm-25.06-1.31c.07-.66.11-.58.76-.92l13.77-7.12c.93-.5 1.55-.51 1.41-1.5-2.14-1.2-8.85 2.03-11.09 3.01l-9.85 4.55c-.03 2.02 1.22 1.4-.55 2.83-.67.54-1.81 1.38-1.04 2.63 1.05 1.49 6.07-.63 7.26-1.2 1-.48 5.55-2.77 6.52-2.81.56 1.52-.19 2.63 1.96 3.06 4.87.98 9.05-3.62 11.93-3.52-.14.61-2.69 3.26.22 4.59.6.27 5.45-.21 6.51-.35 1.5-.2 1.71-.56 2.79-1.05 1.46-.66 2.66 1.03 5.83-.62.95-.5 1.72-.75 1.49-2.03-.76-.42-.88-.22-1.6-.53.36-1.04 2.8-2.23 2.62-4.79-.19-2.58-3.8-1.55-5.67-1.36-.68-1.56-.77-1.69-2.77-.95-1.89.7-6.49 3.29-9.27 4.54-2.73 1.23-8.91 5.28-8.85 2.2.02-.91 1.2-1.92.58-3.1-2.05-1.19-11.45 4.86-12.97 4.4z"/><path d="M89.53 27.8c.74-2.02 1.57-3.86 2.47-6.11 1.1-2.75.82-2.15 4.47-4.35L113.1 7.15c7.73-4.86 5.21-3.8 14.21-4.07l18.54-.25c3.8-.04 4.78 2.32 7.99 5.29.73.68 1.49 1.46 2.28 2.23 1.18 1.17 8.44 8.13 8.76 8.84.51 1.14-2.61 11.43-3.13 13.35s-1.12 4.9-1.82 6.57c-.21 1.26-.12 1.51.8 1.99l.41.03.24-.81 3.95-14.82v-8.21L154.35 6.52c-1.16-1.25-2.49-2.42-3.72-3.65-1.56-1.56-3.43-1.2-6.32-1.17-6.53.06-17.49.05-23.2.38-2.47.14-3.68 1.2-5.2 2.16l-13.77 8.47c-1.53.95-2.94 1.79-4.51 2.76-5.35 3.31-5.52 2.58-7.55 7.23-.7 1.6-2.12 3.34-1.3 5.24l.75-.13z" style="fill:#fac6f2"/><path class="fil2" d="M140.57 62.59c2.44-.06 4.74-.92 5.7-2.14l8.88-12.95c4.79-7.17 5.45-7.39.08-6.33-6.84 1.35-5.58 1.58-7.07 4.23-.48.84-1.21 1.43-1.46 2.19.33.88.99 1.01.66 2.04l-3.23 5.28c-1.19 2.28-3.38 4.69-3.56 7.68z"/><path class="fil4" d="M129.7 27.42c.72-.34 4.77-.31 5.5.12 1.31.76.4 2.85-.93 3.36-.73.28-4.82.58-5.57.2-.66-.34-.05-3.19.99-3.67zm-7.65 11.46c1.76.51 2.48.47 3.81-.35.21-1.28.82-4.28 1.69-4.9.94-.27 4.43-.36 5.39.13 1.06 1.38-1.04 3.45-.8 5.08 1.74.53 2.13.47 4.04.29.24-1.19.37-2.36.54-3.59.07-.54.27-1.39.16-1.94-.17-.83-.46-.45-.67-1.37.64-.74 1.9-.95 2.74-2.6 2.84-5.57-6.51-4.81-10.62-4.7-2.2.05-2.09 1.13-2.61 2.69-.68 2.05-3.68 10.37-3.66 11.27zM146.1 30.3c-.37-.55-.17-1.61.18-2.33.41-.85 1.15-.66 2.42-.65 4.99.04 7.22.75 7.55-1.56.14-1.02-.85-.81-1.84-.8-12.24.06-10.06-1.61-12.27 5.51-.85 2.74-2.06 5.97-2.67 8.73 2.73.16 11.08.49 13.32-.14.37-.48.9-1.3.51-2.03-1.7-.6-7.41.11-9.16-.37-.5-.31.07-1.7.16-1.97.63-2.09.1-1.79 6.38-1.79 2 0 3.61-.04 3-2.17-1.88-.67-5.71.07-7.57-.43zM115.13 33.53c-.5.25-2.4.31-3.14.09-.91-.27-.05-1.13.32-1.62.89-1.21 1.97-3.15 2.89-3.25.3.51.34 3.08.28 3.88-.07.84.13.47-.35.9zm-11.5 5.19 1.54.45c1.49.13 1.55-.14 2.23-.91 2.28-2.56 1.73-2.21 4.51-2.2.63 0 3.32-.21 3.39.31.01.08.07.11.08.15.49 1.31-.21-1.05.12.33.19.8-.12 1.66-.17 2.28.8-.04 1.67-.04 2.5-.06 1.16-.03 1.6.17 1.7-.7-.38-2.22-.67-11.91-1.28-13.04-.82-.43-2.6-.51-3.55-.06-.64.3-1.36 1.23-1.76 1.73-1.6 2-8.99 10.81-9.32 11.73zM98.18 31.39c-.17-.69.63-3.21 1.07-3.74.56-.67 4.24-.42 4.78-.03 1.36.98.1 4.85-5.85 3.77zm-5.41 3.95-1.04 3.29c1.03.68 2.56.19 3.47-.14 2.18-7.27 1.49-3.33 7.87-5 3.65-.96 6.32-5.29 4.45-7.38-1.25-1.4-6.51-1.09-9.19-1.01-2.31.07-2.1 1.54-3.75 5.75-.52 1.33-1.12 3.23-1.81 4.49z"/><path class="fil2" d="M57.93 24.44c1.13.09 2.82-1.07 4.32-1.28 2.14-.29 2.96 1.19 4.17 1.3.1.01 7.57-1.61 6.91-3.72-1.35-.51-3.23.8-4.78.87-2.95.15-2.13-3.28-8.64.11-2.25 1.17-2.91 1.62-1.97 2.71zM144.1 66.03c1.61-3.06-6.16-1.97-7.41-.16-.47.69-.13 1.48.56 1.75.76.31 1.99.15 2.91.14 2.43-.02 3.07-.09 3.94-1.74z"/><path d="M103.98 64.7c.8-.09 1.05-.21 1.73.23l.47-.47c.64-.76 1.59-2 1.64-2.9-2.84-.03-2.79 1.48-3.84 3.15z" style="fill:#a31c2a"/><path class="fil4" d="M105.71 64.93c-.67-.44-.93-.32-1.73-.23-.76.43-1.13.57-1.05 1.51 1.59.2 2.74.04 2.78-1.28z"/><path d="m126.18 65.27-1.18-.2c-.69.23-.88.27-1.37.76.06 1.5 1.39 1.28 2.53.44l.01-1z" style="fill:#fdf4fa"/><path class="fil7" d="M160.73 41.1c.13.1.29.25.39.32.18 1.71-.57 1.88-1.16 2.89l.52-.01.11.76c1.1-1.69 1.07-2.71.8-4.74l-.24.81-.41-.03zM125 65.08l1.18.2.22-1.73c-.06-.42-.07-.22-.25-.44-.24.2-.13-.02-.4.47l-.74 1.5z"/></g></g></svg>