<svg xmlns="http://www.w3.org/2000/svg" xml:space="preserve" width="253.815" height="192.136" style="shape-rendering:geometricPrecision;text-rendering:geometricPrecision;image-rendering:optimizeQuality;fill-rule:evenodd;clip-rule:evenodd" viewBox="0 0 114.08 86.36"><defs><style>.fil10{fill:#0118d2}.fil17{fill:#76a578}.fil3{fill:#80a06d}.fil7{fill:#d2dca1}.fil11{fill:#f3e900}.fil12{fill:#f9f8ea}</style></defs><g id="Camada_x0020_1"><g id="_2051535837488"><path d="m95 86.02 12.45.05c1.45-3.97 1.35-3.49 2.6-7.81 1.36-4.68 2.55-7.22 3.63-11.85.15-.64.27-1.2.33-1.64.24-1.61-.13-1.67-1.28-1.52v-.01c-2.82.03-19.16.52-20.49.11-.2-.74-.21-2.19.17-2.71l4.94-3.81c1.4-1.23 1.18-1.63 1.32-3.59.1-1.43.51-3.21-.22-4.47l-4.16-5.6c-1.51-1.4-2.88-3.79-4.16-5.6-.71-1-3.97-5.04-4.17-5.72 2.45-.18 3.93 4.18 4.81 6.01.5 1.04 1.58 1.17 2.16.07.5-.94.52-5.56.35-6.74-.32-2.17-1-4.1-1.63-5.92l-1.39-1.01c-.78-.21-1.71-.8-2.39-1.16a26 26 0 0 0-2.34-1.08c-1.32-.55-4.09-1.55-5.65-1.51-.59.23-1.5.51-2.19.49-.34-.67-1.62-2.14-1.76-2.77-.39-.31-.53-.63-.78-1.02L65.41 1.7C64.26-.46 63.73.19 60.83.04c-3.36-.18-2.53.08-4.48 1.62-1.76 1.4-4.83 4.34-6.71 5.83-1.76 1.4-3.39 3-5.1 4.51l-5.01 4.43c-2.32 2.2-4.49 3.62-7.1 5.45-1.1.77-2.52 2.14-4.01 2.3-1.93.21-3.81.36-5.71.65-.84.13-4.81.99-5.22.91-.71-.13-3.32-2.17-3.7-2.64-.53-.65-.44-1.57-.63-2.49-.53-2.59-3.92-2.16-5.44.42-1.32 2.23.49 3.4.75 4.79-3.01.79-5.29 1.83-6.66 4.02-.73 1.16-1.12 2.9-.62 4.48.67 2.1 1.59 1.36 3.2 2.02.56 1.64.01 2.47 1.43 3.87 2.05 2.01 2.92.49 3.95.68.31 2.1-.97 1.92 1.19 4.56.48.59 2.43 2.67 2.36 3.34-4.24.54-2.77 1.2-2.74 9.54.01 2.44.27 4.1-.75 5.56-.69.98-1.53 3.07-2.05 4.3-1.36 3.21-4.58 9.63-6.37 12.84-.81 1.46-1.55 2.26-1.42 3.28.1.81.24.94.51 1.12.45.25 4.86.16 5.8.19 4.08.12 2.1-1.73 3.68-2.29.3.59.16 3.93 4.46 2.37.71-.26 2.08-1.32 2.45-1.1.88.53-1.55 1.14 2.27 1.14 2.04 0 13.85.24 14.73-.08.7-.3 4.24-11.59 4.96-13.04.31-.48 1.24-.63 1.79-.31.38.34-.25 1.32-.42 1.69l-3.68 8.25c-.55 1.26-1.35 2.21-.3 3.44.97.14 5.03.18 5.93.03 2.29-.38 2.84-2.05 3.47-2.4.41.54.81 4.28 4.9 2.54 3.8-1.62 5.39-6.05 6.81-9.62.46-1.15.48-2.26 1.92-2.25 1.26.01 2 .69 2.12 1.81-2.86.63-2.15-.77-3.53 2.37-.59 1.34-1.23 3.03-1.07 4.79.14 1.6 1.12 3.12 2.63 3.32 1.87.25 3.33-.79 4.5-1.5.19.28.08.56.31.95 1.18.17 7.41.3 8.46.11.56-.71.69-1.77 1.14-2.2.86.59.59 3.11 3.8 2.66 2.74-.38 3.23-2.03 4.48-2.29l.35 1.76c.71.39 2.33.25 3.3.26 1.49.01 1.88-.07 2.5-1 .25.37.12.57.38.93 1.13.11 2.47.05 3.63.07 1.98.03 1.24-.56 2.32-1.17.19.29.28.97.38 1.15z" style="fill:#070a0a"/><path d="M40.76 17.53c4.37.52 4.91 2.31 8.21 2.32-.24-1.01-1.09-.95-1.35-2.65.65.3.85.6 1.3 1.02.4.38.79.67 1.28 1.05.57.44 2.02 1.63 2.75 1.68l2.07-2.98c.64-.86 1.63-1.99 2.44-2.67.82-.69 1.9-1.55 3.06-2.06.74-.33 3.2-1.44 3.84-.74-.85.8-3.38-.44-.75 6.86.38 1.05.98 2.54 1.28 3.66.5 1.89.09 2.56.05 4.29.26-.02 5.84-3.23 7.78-4.05.88-.37 2.21-.72 2.73-1.32-.16-.69-3.42-4.46-4.07-5.25-1.48-1.78-2.82-3.5-4.24-5.21-.85-1.03-7.72-9.6-8.45-10.24-.66.18-2.66 2.21-3.41 2.89L42.8 15.35c-.51.53-1.99 1.43-2.03 2.18zm2.49 3.24c.17 1.57 3.72.51 3.98.4-.18-.74-.61-.72-1.72-.66-.73.04-1.57.06-2.26.25zM53.26 58.1c-.74.57-1.17 2.18.55 1.71.21-.51.22-.51 0-1.08-.17-.44-.21-.43-.54-.63zm14.1 15.25c1.33.14 1.13-1.05.59-1.23-1-.35-.92.71-.59 1.23zm-6.98-.53c.27-.43.27-.76.35-1.29.08-.55.18-.77.07-1.34-.82.01-2 1.59-1.89 2.54l1.48.08zm-20.77-1.95c.23.19-.02.07.35.18.37.11-.14 0 .28.06l.63-.01c.52-.07.52-.03.77-.49.22-.41.61-1.36.6-1.87-.43-.38-1.2-.69-1.79-.7-.28.38-1.1 2.3-.84 2.84zm-8.06-8.21c-.45-.3-7.71-2.79-8.54-2.92-.02.55 2.22 4.07 2.67 4.49.71-.31.15-.55.94-.76.66-.17 3.67.24 4.83-.11l.1-.69zm-.56-26.15c.84-.8 3.94 1.42 4.84.95-1.79-2.09-3.34-2.26-6.77-2.95-1.4-.28-2.69-.57-4.08-.88-2.27-.52-2.22-.44-3.58.79-.52.47-10.14 8.75-10.11 9.22.27.62 2.16 2.85 2.68 3.49 1.82 2.25 1.3 1.09 4.22 1.83 2.33.59 2.68.66 2.64 3.35-.02 1.84-.39 4.43.65 5.4.65.26 4.18-2.71 4.85-3.19.39-.28.76-.53 1.16-.85.63-.52.38-.54.81-1.2.73-1.12 1.76-.69 3.28-.79.38-.37.51-.72.93-1.05.42-.34.75-.38 1.27-.73.06-.48-.8-4.97 1.53-5.49 1.55-.34 2.29 1.23 2.99 2.56.04.08.3.56.33.6.36.39-.14.19.52.27.3-.68.33-1.99.26-2.78-1.03-.8-1.5-.88-2.42-1.88-2.01-2.2-.79-3.33-2.79-3.58-.69-.08-1.26-.15-1.91-.24-.67-.09-1.29-.17-1.95-.25-1.45-.17-1.32-.01-1.59-.43.04-.02.09-.04.12-.05.65-.2 1.06-.01 1.82.09 2.62.33 5.1 1.24 4.97-.43-1.04-.75-3.64-1.06-4.66-1.78zm1.81-11.93c.53.23 2.11.59 2.79.55.19-.51-.05-.36.31-.85.95.1 1.6 1.9 2.79 2.9.7-.31 1.58-1.5 2.34-2.12l1.95-1.3c.09-.05.31-.17.39-.25.4-.36.08.04.34-.41-1.26-.38-2.36.81-3.11.4.42-.61 1.55-.75 2.19-1.39.02-1.24-.75-1.65-2-1.46l-3.07.37.69-.45c.31-.14.58-.21.91-.31.61-.18 1.32-.27 1.81-.49-.03-1.06-.97-1.94-1.96-1.07-1.07.95-6.17 5.39-6.36 5.88zm11.59-5.42c-.52-.34-2.36-.73-3.12-.83.19.76.53.86 1.34 1.08.79.22 1.43.32 1.78-.25zm46.96 36.13c.81-.2 2.23-2.02 2.93-2.68 3.34-3.19 3.56-2.31.67-6.07l-7.1-9.32c-.67-.86-4.28-5.97-4.9-6.11-.25-.06-2.3.09-2.57.17-.74.2-.52 1.2-.7 2.06-1.13 5.29-.78 4.26 1.09 8.79.88 2.13.01 2.53-.56 4.14-.67 1.89.68 2.71 1.26 4 .53 1.17-1.47 5.13-1.62 9-.05 1.39-.14 1.46.88 1.95.85.41.9.69 1.48 1.14.93-.59 3.01-4.47 3.66-5.94.92-2.08 1.33-3.29 1.81-5.48.99-4.49 3.25 3.66 3.67 4.34z" style="fill:#fdae00"/><path d="M43.19 63.16c.06.4.21.21-.33.78l-.19.17.54.12c-.03 2.01-2.45.54-2.39 2.79.43.46 1.17.75 1.91.82.56-.65.89-1.89 1.26-2.79.67-1.64.62-1.5 2.61-1.48 1.02.01 2.93-.03 3.79.29 1.46.54.91 1.23 1.63 2.24.61-.4.87-1.16 2.4-2.09.91-.55 2.08-1.03 3.43-.78 2.54.46 2.55 3.65 2.34 6.19.77-.22 1.78-1.64 2.18-2.25 2.09-3.15.61-6.42-.59-10.04-.96-2.88-2.19-7.15-2.83-10.18-.35-1.64.26-2.22-1.36-2.82-.57.25-.49.47-1 .65-.49.17-.81.13-1.36.38-1.59.73-2.55 3.21-2.57 4.21-.02 1.24.12 1.77-.54 2.75-1.23 1.86-1.88.36-3.62 1.17-1.05.49-.44 1.41-1.08 4.07-.18.76-.76 1.77-.61 2.48.73.15 2.49-.02 3.34-.05 1.9-.07 1.57.05 2.23-1.35.64-1.35.98-.87.05-2.52-.34-.61-1.14-1.48-1.14-2.14.72.24 2.02 2.47 2.49 3.57.32.77.48 1.54.8 2.31.34.83.96.65 1.56 1.31-1.78-.03-1.62-.88-6.3-.56-1.41.1-6-.27-6.65-.03-.1 1.08 1.36 1.03.63 2.32-.33.59-.03.28-.63.47z" style="fill:#73aa78"/><path class="fil3" d="M48.51 25.3c-.72-.27-.81 0-1.26-.42.67-1.14 2.22.43 2.47.96-.59-.17-.76-.38-1.21-.55zm3.5-1.77c-.06-.09-.55.11.2-1.07.26-.42.39-.52.32-1.03-1.36-.82-.92.23-1.92.32-1.46.14-1.17-.06-2.48.5-2.71 1.17-5.05 1.38-7.66 4.11-1.58 1.65-1.1 1.94-1.77 2.56-.47.44-.53.16-.68.92.39.64.64.42 1.08.98.4.5.33 1.03.82 1.39.41-.4.75-1.25 1.02-1.78 1.57.12 2.74 2.5 3.5-1.16.33-1.59.95-3.51 2.76-3.5.83.5 1.82 2.1 2.03 3.3-.77-.32-.43-.57-1.26-.84-.56.21-.83.5-.95 1.15.26.74.89 1.18 1.32 2.1.51 1.11.33 1.96.59 2.99 1.07.09 1.98-2.15 3.12-2.06.01.68-.92.75-2.06 2.39-.55.8-1.41 2.37-1.19 3.5.77.2 4.87-1.41 5.93-1.71.63-.18 5.38-1.55 6.07-1.42l.23.08c-.35.51-5.03 1.57-5.93 1.84-1.25.37-5.2 1.19-5.75 2.19.67.63 1.89-.29 2.78-.66 1-.41 2.28-.8 3.58-.54.42.52.36.99.9 1.67 2.33.28.98-3.22 4.1-2.8l.68.98c1.53.08 2.31.08 3.79.27-.19-.68-.89-1.17-1.28-1.66-.51-.64-1.07-.91-1.31-1.81l1.72.33c-.63-2.5-4.77-3.24-5.95-4.44-1.15-1.16-.54-1.44.03-2.32l-.4-1.65c-2.11-.16-1.83-.82-3.89-.56.24-3.07 2.59-7.75 4.69-10.05.68-.74 1.88-1.62 2.45-2.39-2.09-.22-6.11 5.07-7.33 6.95-.33.51-1.48 2.65-1.9 2.94z"/><path d="M18.13 27.22c.27.55.62.77.79 1.62.26 1.3-.26 1.08-.53 1.77.42.75.29.01.71 1.27.26.79-.3-.63.08.24s2.28.43 4.17.63c1.28.14 2.59.45 3.79.69 3.7.75 3.85 1.17 7.48 1.07-.1.84-.19-.07-.29.92 1.87 1.03 2.06 2.78 4.21 1.72-.03-.34-1.06-2.96-1.27-3.45-.8-1.86-.86-2.82.74-5.02.44-.6 1.03-1.06-1.15-2.46-.76-.49-1.11-.22-1.91-.14-1.27.12-3-.2-4.31-.26-1.51-.07-3.03-.01-4.5.07-1.85.1-6.7.65-8.02 1.31z" style="fill:#66905e"/><path d="M55.73 25.44c.54-.17.22-.15.62-.58.77.39.53.78 1.39 1.08.49-.61-.15-1.04.87-.99.3.82-.08 1.16.11 2.05.19.86.65.74.72 1.62-.57.2-.67.18-1.07.44-.09.99.76 1.52 1.53 1.87 1.47.68 1.73.31 2.45-.51 4.86-5.53.2-9.45-.35-16.43-2.16.62-8.86 10.02-6.26 11.46z" style="fill:#fea88b"/><path d="M21.96 58.65c.65.56 7.72 2.76 9.14 3.24 2.74.93 2.54 1.35 3.98-.96.46-.74 2.16-3.12 2.21-3.83-.6-.38-1.75-.74-2.38-1-1.64-.67-1.45-.12-2.68.24-1.03.3-2-.06-2.63-.51-.84-.59-.93-1.24-1.6-1.86-.67.13-2.54 1.84-3.16 2.31-.87.66-2.68 1.7-2.89 2.38z" style="fill:#ca907b"/><path class="fil7" d="M43.6 59.74c.67.27 1.86.22 2.63.1.54-1.1 1.01-3.6 1.09-5.05.08-1.42-.69-3.95-1.37-4.76-.83-.08-1.33-.11-2.07.17-.71.27-.79.67-1.6.53-.19-.96.52-1.69-.08-2.4-.5-.58-3.27-.43-2.67 1.42.32.98.23 1.39.28 2.4.99.2 1.73-.19 2.58.35 2.16 1.38 1.09 5.79 1.22 7.25z"/><path d="M103.88 78.77c.69-1.82 5.13-13.57 5.09-14.52-.91-.19-2.05-.02-2.99.06-.37.66-4.25 13.69-4.28 14.59l2.19-.13zm.2 4.96c.6.11 1.24.07 1.85.05.92-.03.85.05 1.11-.77.26-.83.78-2.21.72-3.07l-2.58.12c-.32.67-1.13 2.95-1.09 3.66zm-6.1.13c.31-.51 1.33-3.1 1.22-3.83l-2.56.04c-.28.62-1.33 3.13-1.11 3.69.63.25 1.7.18 2.45.1zm4.35 0c.32-.51 1.21-3.08 1.24-3.88l-2.6.11c-.31.51-.52 1.24-.74 1.84-.61 1.65-.92 1.85.1 1.95l2-.02zM66.32 69.93c.39.25 2.1.3 2.51-.05.1-.08 2.79-4.96-.22-5.8-3.32-.93-5.25 2.45-6.15 4.74-2.49 6.38.69 5.58.55 8.57-.05 1.02-1.04 3.84-1.97 3.52-.97-.34 1.04-2.73.89-3.96-2.46-.14-2.64-.13-3.4 1.71-.43 1.03-1.21 2.96-.79 4.27.51 1.57 4.35 2.01 6.46-1.4 4.83-7.79 1.04-9.11.87-11.3-.08-1.09.72-3.09 1.58-3.15.24.63.09 1.07-.15 1.6-.62 1.38-.41 1-.2 1.24zm-33.83 6.99c-.45-.69 1.09-3.33 1.44-4.12.36-.83 1.46-3.79 2.03-3.49.54.28-.25 1.48-.46 1.97l-1.83 4.06c-.32.69-.37 1.53-1.18 1.58zm-2.06 6.72c.17.08 2.57.54 3.09-.4.7-1.27 6.29-17.4 6.42-18.88l-4.2.15c-.29.27-.17.12-.42.56-.13.22-.2.39-.31.62l-4.35 8.5c-.82 1.59-1.66 3.18-2.56 4.72-.51.88-2.48 4.07-2.46 4.86.51.02 2.06.07 2.49-.04 1.39-.34 1.36-3.98 3.36-3.62 0 1.28-1.35 2.81-1.06 3.54zm-9.47-16.41c.37.77-.81 2.68-1.26 3.58l-3.26 6.96c-.53 1.15-1.3 3.39-2 2.97-.59-.35.13-1.35.35-1.84l4.97-10.53c.37-.77.32-1.25 1.2-1.15zm3 .41c1.1-3.29-1.35-4.52-3.96-3.03-1.86 1.06-2.64 2.66-3.59 4.61-.99 2.01-4.82 9.7-5.31 11.27-.36 1.18-.59 2.59.39 3.19.98.6 2.6.21 3.45-.28 1.73-1 2.79-2.51 3.84-4.37 1.14-2.03 4.44-9.19 5.18-11.39zm2.81 4.33c-.09-1.53 1.2-4.13 2.16-4.52.36.75-.22 1.86-.57 2.57-.34.68-.67 1.82-1.59 1.96zm1.54 1.4c.64-.45.86-.34 1.41-.91.39-.4.63-.91.9-1.42 4.04-7.49.62-6.83-3.82-6.58-.37.43-3.8 8.37-4.4 9.67-.74 1.61-1.53 3.24-2.31 4.82-.39.8-.77 1.56-1.18 2.38-.21.41-.36.72-.57 1.14-.5.97-.42.91-.23 1.1.38.27 1.39.26 1.99.19 1.17-.14 1.72-2.07 2.51-3.69l2.05-4.15c.1-.21.26-.59.35-.74.38-.63 0-.27.51-.47.72.66-.01 1.54-.36 2.31-.69 1.54-2.87 5.73-3.08 6.75 1.94.09 2.5.2 3.17-1.22l2.78-5.89c1.24-2.74.26-1.9.28-3.3zm27.56-6.15c.49.63.16.91-.19 1.75l-3.74 8.95c-.25.6-.99 3.29-1.75 3.12-.98-.21.56-2.97.81-3.58l3.02-7.2c.24-.58.47-1.12.74-1.76.33-.78.32-1.25 1.11-1.29zm3.19.26c.62-3.3-1.44-4.43-3.98-2.97-3.05 1.75-4.58 6.86-6.04 10.38-.71 1.71-1.87 4.07-2.38 5.84-.88 3.04 1.56 4.35 3.89 2.94 1.66-1 2.85-2.51 3.8-4.43 1.26-2.55 4.18-8.91 4.72-11.76zm23.91-.35c1.66-1.14-.03 2.8-.14 3.11-.59 1.56-3.84 10.54-4.16 10.75-1.03.68-.7-.85-.52-1.33l2.03-5.41c.38-1.04 2.39-6.84 2.8-7.12zm3.61.81c.69-2.92-.68-5.14-3.64-3.76-3.1 1.45-4.6 6.69-5.9 10.2-.68 1.83-1.66 4.04-2.1 5.93-1.29 5.51 4.43 5.32 7.35-.53.77-1.54 3.9-10.18 4.29-11.84zm-76.11 3.15c.26-1.92 2.92-5.68 2.51-6.66-.61-.23-1.76-.18-2.48-.03-.31.16-4.15 8.68-4.65 9.73-.76 1.57-1.58 3.24-2.4 4.73-.44.8-2.41 3.99-2.29 4.62.58.13 1.43.09 2.04.04.69-.05.9-.25 1.21-.75l2.76-5.29c.43-.88.68-2.21 1.9-2.07-.02 1.43-4.09 7.14-3.7 8.05.4.23 1.28.22 1.88.16 1.3-.13 1.69-1.66 2.5-3.25 1.21-2.38 7.44-14.8 7.2-15.91-3.21-.58-2.91.34-3.89 2.64-.89 2.08-1.27 4.02-2.59 4zm36.43-3.6c1.28.18.86.4-.26 3-.48 1.12-.96 2.22-1.44 3.36-.49 1.16-.95 2.25-1.44 3.37-.25.59-.41.98-.69 1.63l-.36.87c-.59 1.49-1.62 1.03-.94-.47 1.01-2.23 4.56-11.08 5.12-11.77zm-9.93 16.25c3.4.27 6.38.25 7.76-2.17 1.52-2.67 5.22-11.29 6.05-13.79.49-1.48.44-2.86-1.06-3.25-.84-.22-3.7-.22-4.64-.07-.59.88-1.58 3.74-2.06 4.9-.66 1.61-1.35 3.21-2.02 4.79-.59 1.4-4.11 8.77-4.03 9.6zm35.94-12.53c.18-1.67 2.42-5.54 2.32-6.85l-2.8.04c-.62 1.1-1.38 3.43-1.94 4.84-.7 1.78-5.5 13.74-5.55 14.52l2.87-.05c1.02-1.62 2.73-7.41 3.56-8.28 1.3-.01.6.78.22 1.71-.52 1.3-2.58 6.05-2.47 6.76l3.09-.26c.78-2.47 7.25-18.24 7.12-19.19l-2.85-.07-2.19 5.71c-.37 1.04-.15 1.29-1.38 1.12zm14.99 5.44c.36-2.47 3.58-10.89 3.6-12.43l-2.76.04c-.53 1.28-1.03 3.4-1.46 4.85l-4.05 14.55c0-.02.02.08.04.12.91.35 3.32.26 3.83-.43l2.81-6.18c.3-.71.93-2.67 1.53-3.11-.1 1.58-2.74 9.03-2.37 9.62.18.21.52.2.88.2.27 0 .59-.04.84-.05 2.56-.14 2.02.23 3.25-2.69 1.19-2.81 6.77-15.57 6.8-16.86l-2.78.14c-1.18 1.92-4.28 11.05-5.29 12.78l-.09-.2c-.01-.03-.02-.08-.03-.11-.07-.58 3.53-10.54 3.68-12.6l-3.15.07c-.5.77-3.62 8.69-4.48 10.81-.23.56-.36 1.1-.79 1.47zm24.83-10.61v-1.89l-2.6.11c-.77 1.68-1.58 5.26-2.18 7.25l-1.6 5.52c-.47 1.63-1.04 2.07 1.65 1.81.82-1.05 3.8-11.38 4.73-12.8zM97.47 78.87c2.62.51 2.38-.66 3.02-2.41.7-1.91 4.34-11.52 4.26-12.16-.59-.16-2.32-.11-2.81.09-.42.29-.29.15-.49.8L99.5 71.6c-.37 1.17-2.18 6.49-2.04 7.28z" style="fill:#fefdf9"/><path d="M48.36 41.25c.47-.25.74-.36.96-.88-.51-1.31-1.25-.53-2.09-.43-.35.44-.38.44-.96.57.2-.5.13-.2.4-.6-.55-.5-1.93-.25-2.71-.14-.44.68-.83 1.77-1.87 1.88-1.94.21-1.36-2.21-1.37-2.38-2.81-.82-2.61 1.58-1.82 2.89.68 1.13 1.32.99 2.9 1.07 1.91.09 3.45 2.09 5.84-.67.15-.16.09-.07.25-.29.06-.08.12-.22.16-.3.14-.26.21-.41.32-.73zm5.69 3.46c-.32-.8.03.02-.31-.47-.15-.22-.07.08-.16-.31l.86-.28c.63-.8.5.77 2.21.41.4-.65.38-1.13.72-1.91l2.23-3.02c.48-.48 1.13-.73 1.01-1.47-1.53-.98-2.28 2.41-2.37 2.59-.42.84-.89.04-1.26 1.53-.22.85-.26 1.38-.77 1.86-1.13-.23-.55-.67-1.4-.84-2.06-.41-1.72 1.46-2.45 3.96-.7 2.41-4.14 2.67-4.06 3.96.02.35.02.18.15.36.87.46 2.92-1.75 3.34-2.27 1.09-1.37 1.15-2.2 1.72-4.02l.55-.09zm-.64-3.87-1.36.05c-.34.72-.79 3.37-.84 4.32-.03.71.07.83.49 1.08.47-.38 1.3-3.16 1.32-3.76.37-.42.24-.35.32-.66.44.05 1.01.19 1.43.02.76-.3.61-1.79-1.02-.58-.14-.77.01-.22-.34-.46zm-1.17-.69 3.45-.53c.11-1.11-.86-1.13-1.97-.96-.9.13-1.58.55-1.48 1.49zm-5.65 7.9c.38-.71-1.45-4.09-5.41-4.41.21 1.02 1.75 1.78 2.93 2.01 1.79.36 1.59 2.17 2.48 2.4z" style="fill:#f8f8d8"/><path class="fil10" d="M13.29 58.32c1.58-.6 1.56-6.63 2.04-7.72.56-1.27-.02-1.07-1.43-1.02-2.87.1-2.31 1.49-2.15 3.95.15 2.24.26 1.55.83 2.41.45.68.34 1.9.71 2.37z"/><path class="fil7" d="m40.95 32.89-1.04-.02c.32 2.44 1.68 2.74 1.57 4.57-.13 2.36 1.85 2.26 3.48 1.49.03-.71-.3-1.15-.8-1.4-.94-.46-1.01-.07-1.09-1.43.05.02.12 0 .15.07l.7.31c-.05-1.22.18-3.85-.15-4.74-1.4-.24-.29.56-.9 1.55-1.08-.69-.26-2.37-1.77-2.12-.31.73-.1.96-.15 1.72z"/><path class="fil11" d="M46.81 38.9c.73.08.74.13 1.39-.02-.06-.82-.39.15-.17-.92.06-.3.27-.55.36-1.01.28-1.56-.35-6.06-1.79-6.9-.61.41-1.59 3.47-1.68 4.46-.1 1.12.54 1.35 1.05 2 .63.81.49 1.36.85 2.39z"/><path class="fil3" d="M44.31 46.36c-.65-.3-3.44-1.1-4.19-1.01-.09.87.06.59.18 1.16.27 1.18-.37-.07 0 1.05.79 0 1.48-.3 2.19.17.7.46.45 1.11.62 2.01l3.28-.28c.25-1.03-1.31-2.75-2.08-3.1z"/><path class="fil12" d="m16.8 56.83.62-.69c.91-1.58.49-1.84.44-3.84-.05-1.72.39-2.9-1.63-2.66-.27 1.09-.27 2.85-.43 4.1-.13 1-.44 1.94.29 2.74.44.49 0 .32.72.35zm-2.95 6.41c.22-.84.04-.98.4-1.85l1.21-2.72 2.65.18c.09-.83.06-1.05-.78-1.13-.88-.08-2.14.11-2.79.64-.86.7.06.42-.48 1.28l-2.39-.12c-.39.79-.31 2.66-.21 3.63.7.33 1.56.39 2.39.09zm18.07.25c.43.71.43.62.88 1.21.35.47.39.82.53 1.46.72-.17.94-.4 1.05-1.15l-2.45-1.52zm2.75.85c.55-.43.5-.74 1.54-.78 2.86-.12 4.18.59 5.36-1.27 1.29-2.03 2.04-4.34 1.59-7.12-.22-1.32-.75-2.35-2.13-2.42-1.14-.06-2.62.73-3.2 1.31-.96.96.08 2.45 1.07 2.7 2.06.53 1.88-.82 3.18-1-.29 2.32-3.92 1.54-4.13 1.55-.74 1-1.51 2.39-2.2 3.51-2.05 3.27-1.97 2.07-3.02 2.24.02.67 1.29 1.19 1.94 1.28zm2.17-10.28c.78-.1.51-.34 1.12-.8.39-.3.79-.34 1.12-.57 1.22-.88-1.4-6.01-2.52-7.23-1.75-1.89-2.82 1.96-2.03 3.9.42 1.03 1.29 1.19 1.69 1.87.42.71-.28 1.65.63 2.83zm-4.97-1.63c-1.39.1-3.12-.77-3.22.98-.06 1.02 1.16 2.06 1.96 2.35 2.07.76 2.43-.76 3.41-.65.71.08 2.18 1.04 3.1 1.19.15-1.62-.69-1.98-.96-2.37-.5-.73-.01-1.6-.7-2.55-1.47-2.03-2.73-.29-3.58 1.06zM17.29 30.52c-.42-.05-.09.17-.39-.25l-.42-.05c-.11-.87.3-1.76.18-2.87-1.05-.99-2.09-1.8-3.3-2.84-1.63-1.41-1.07-3.14-2.08-4.08-.54-.25-3.95 1.34-1.34 4.57.46.57 1.07.88 1.02 1.77-1.27.63-5.71.62-7.83 3.76-2.4 3.58.84 5.2 2.31 3.39.63-.78.42-1.34.63-2.33l1.88-.22c-.74 2.33-3.42 5.65-.94 7.86 1.54 1.37 2.55-.35 2.31-2.18-.15-1.18-1.13-1.74 1.14-3.61 1.17 3.11.26 4.03.94 5.41 1 .28 2-.23 2.37-.93.63-1.22-.12-2.04-.16-3.13 2.58.12 2.53-.78 3.56-2.45.62.04 1.67.58 1.4-.6-.11-.49-.14-.33-.59-.54-.62-.3-.48-.11-.69-.68z"/><path class="fil10" d="M14.25 61.39c-.36.87-.18 1-.4 1.85 1.36-.04 3.6.29 4.8.03l-.41-3.38-1.24-.03c-1.53.05-1.88 1.22-2.75 1.53z"/><path d="M79.32 45.98c.39-.66 1.04-1.37.76-2.23-.46-.14-1.44-.14-2.02.05-.74.24-.61 1.02-.5 1.71.47.24 1 .54 1.76.48zm-2.25 4.3c.22.21-.08.11.76.66 1.86 1.2.51 1.75 1.75 2.29.15-.25.97-2.09.98-2.33.03-.95-.68-1.75-1.29-2.03-.6.19-1.93.86-2.2 1.42zm-14.32-18.5c.78.38.89.12 1.27-.47.27-.42.54-.8.85-1.17.72-.84 1.39-1.37 2.13-1.9 3.89-2.77 6.29-3.8 10.94-5.32 1.57-.51 5.62-1.02 6.45.55-.79.79-1.51.31-2.06 1.7.25.59.49.54.5 1.24-2.01.43-3.12-.28-4.96-.22-1.45.04-3.75.16-5.13.34-1.57.21-2.95.74-4.02 1.42-.72.46-2.33 1.86-2.32 2.96.97.17 1.73-.05 2.53-.42.74-.35 1.16-.89 1.81-.98-.24.72-.59.69-.84 1.56l.4.08c.89.14.38-.15.92.23.05.88-.57.81-1.05 1.6-1.43 2.39 1.16 3.83 1.58 5.13.45 1.38 2.69 6.56 2.1 7.67-.97.13-1.16-.74-1.56-1.55-.67-1.35-1.97-4.63-3.43-5.46 1.14 2.6 2.73 2.3 4.24 9.47.2.93 1.14 2.84.6 3.3-.7.38-.84-.46-1.72-.83-.88.23-2.5 1.49-2.95 1.88-.57.49-1.65 1.81-3.02 1.47-1.76-.44-.35-1.86-.52-3.16-.15-1.18-1.24-2.26-2.61-1.66-.11.36-.09 5.69 3.06 5.68 2.43-.01 4.55-2.99 5.76-3.11.42 1.56-.22 1.94 1.52 2.06l3.4.31c.13.95-.38 2.03-1.07 2.35-.95-.62-.25-1.53-2.17-1.63-2.37-.13-1.8-.69-2.76-.72 0 .68 1.95 2.27 2.48 2.75.82.75.89.35 2.14.38.91.03 1.62.03 2.5.04-.24 1.32-1.47.64-2.81.67-1.14.02-2.38.43-3.37.29-2.23-.31-3.95-3.09-4.63-2.39-.61.76 1.35 1.55 1.93 1.85.97.51 1.46 1.34 2.11 2.06 2.15 2.39 4.82-.65 6.15.45-.24.5.09.29-.79.4-3.99.48-2.74 2.52-5.23 2.11-1.12-.18-1.72-1.24-2.29-1.89-.42-.48-.61-.73-1-1.17-.19-.22-.34-.44-.49-.59-.51-.52.02-.22-.63-.38-.21 4.64 1.79 4.14 3.03 4.95.68.44.73 1.01 1.43 1.37.72-2.1 1.85-1.62 4.4-1.64 1.3-.01 4.96.18 5.84-.16-.23-.82-1.03-.97-1.71-1.46-1.62-1.15.2-7.21.12-7.89-.95-.26-1 .58-1.5-.96-.37-1.14-.3-.86-1.16-1.48-3.3-2.37-1.42-4.43-.86-7.9.14-.83.23-1.73.25-2.58.03-.89-.23-1.88.4-2.16.72.69.19 3.28.48 4.32.86.17 1.79-.15 2.26-.48.07-.83-.52-1.55-.81-2.37-.64-1.77-.84-3.64-.51-5.5.11-.63.61-1.88.44-2.34-.55.08-.78.49-1.24.94-5.88 5.76-4.12-.36-.7-2.1 2.54-1.29 9.91-1.98 12.3 1.19 1.45 1.92 2.1 4.38 2.82 4.95.95-3.28.33-9.87-1.64-11.86-.86-.87-3.39-1.68-4.78-2.36-1.48-.72-2.9-2.08-5.1-1.64-4.31.87-11.56 3.95-14.69 6.37-.68.52-3.2 2.77-3.02 3.83zm24.88 32.46c.87-1.03.45-3.21 1.24-4.22 1.07.91.04 2.11.46 3.12.6.26 1.14.27 1.53-.19.72-.98 0-5.12-.25-6.35-.17-.8-1.01-4.63-1.9-4.94-.39.52-.94 2.39-1.21 3.12-1.5 3.99-4.27 7.68-4.46 8.32 1.03.17 1.54-.26 2.72.2.88.34 1.01.95 1.87.94zm-23.84-6.27c-.09 1.19.04 2.42.28 3.51.1.46.27.93.43 1.41.19.58.27.79.97.69.03-.77-.69-1.84-.96-2.72l-.72-2.9zm1.23-14.03c-.08-.89.24-.87.74-1.28 2.24-1.85 1.48-3.07 1.63-4.34l.81.1c-.25-.38-.91-.62-1.44-.38-.42.23-.24.36-.56.74-.41.48-1.03.38-1.79 1.45-1.78 2.49-1.22.97-2.51 2-.07.89.69 1.94 1.09 2.33.65.65 4.54.71 5.72.84 1.02.11 1.58.51 2.49.7-.79-2.53-4.02-1.11-6.18-2.16zm-6.92-.37c1.05-.13 1.39-.58 1.56-1.58-1.04.24-1.39.52-1.56 1.58z" style="fill:#1362fd"/><path d="M38.51 42.57c-.82-1.15-.62-2.1-2.21-2.41.19 2.07 2.49 4.37 4.74 4.46-.44-.95-1.73-.92-2.53-2.06z" style="fill:#83ab82"/><path class="fil12" d="m42.67 64.11.19-.17c.54-.56.39-.38.33-.78-.4-1.17.64-1.01.03-1.61-.85-.44-1.02.58-1.47 1.25 0 0-1.66 1.82-.67 1.97 1.15.17-.44.23.34.03.27-.07.45-.39.64-.73l.6.04z"/><path class="fil11" d="M40.61 36.71c-.02-.66-2.15-3.31-2.62-4-.1.61.51 1.88.76 2.49.41 1 .54 1.68 1.86 1.51z"/><path d="M76.61 48.6c1.17.11 2.44-.43 2.32-1.53-1.15-.26-2.39.41-2.32 1.53zm-10.74-1.41c.02.09 1.23 1.81 2.39 1.75.94-.05 2.96-.17 2.98-1.14.04-1.4-5.83-2.72-5.38-.62z" style="fill:#dc0000"/><path class="fil12" d="M16.9 30.27c.3.42-.04.2.39.25.77-.07.61-.28.77-1.05.21-.99.13-.58-.12-1.38-.71.17-.25-.27-.61.38-.01.01-.12.53-.15.61-.12.47-.26.78-.28 1.18z"/><path d="M50.58 52.31c.59-.08.24.19.63-.35l.84-1.91c-.7.14-.98.52-1.34.94-.39.45-.54.78-.13 1.32zm-39.02 5.11c.08.53.23.54.34.65.24-.34.37-.83.1-1.38-.15-.3-.04-.08-.26-.25-.08.13-.3.24-.18.98zm5.87-1.28-.62.69c.44.35.91.24 1.42.1l-.04-1.01c-.43.13-.37.24-.59.62l-.16-.39zm33.5-9.52c-.2-.93-.56-1.7-1.44-1.49.05.5.15.35.35.81.18.4.19.72.25 1.2-1.11-.29-.96-.74-1.59-1.66-1.7-.17-1.35.19-.94 1.23.38.95-.04 1.18-.38 2-.29.7-.33 1.44-.18 2.3.18 1.07.27 1.41 1.37 1.38-.23-.88-1.1-1.69-.56-2.58.23-.37 1.4-.79 1.93-1.18.55-.39 1.39-1.12 1.2-2z" style="fill:#f50202"/><path class="fil17" d="M37.45 38.36c.5.51 1.5.55 1.87-.15-.47-.51-1.76-.54-1.87.15z"/><path d="M36.52 38.84c-.94 1.04 2.4 1.25.98.09-.81-.66-.98-.09-.98-.09z" style="fill:#7a9968"/><path class="fil17" d="M60.3 39.5c.48.01.68.04 1.15-.07.53-.13.54-.16.74-.45-.38-.22-1.04-.18-1.46.03-.51.25-.21.05-.44.49z"/><path d="m54.05 44.71.63-.13c-.12-.43-.16-.39-.41-.64l.17-.29-.86.28c.09.39.01.08.16.31.34.5 0-.33.31.47z" style="fill:#556949"/><path d="M42.44 40.37c-.31-.48-.36-.34-1.02-.37.16.63.56 1.12 1.02.37z" style="fill:#bdc7c3"/></g></g></svg>