<svg xmlns="http://www.w3.org/2000/svg" xml:space="preserve" width="229.629" height="82.168" style="shape-rendering:geometricPrecision;text-rendering:geometricPrecision;image-rendering:optimizeQuality;fill-rule:evenodd;clip-rule:evenodd" viewBox="0 0 139.76 50.01"><defs><style>.fil7{fill:#fafafa}.fil5{fill:#fb9ea9}.fil3{fill:#fda0ab}.fil4{fill:#fdfbfc}.fil1{fill:#fdfdfd}</style></defs><g id="Camada_x0020_1"><g id="_2070808598400"><path d="M21 48.27c1.52-.01 14.94.09 15.92.35 1.78.49.9 1.22 3.77 1.28 1.41.21 2.08.07 3.33-.2 1.19-.25 1.66.36 3.39.18 1.32-.14 1.67-.82 2.44-1.12 1.08-.42 16.84-.22 18.97-.24 1.26-.01 2.72-.09 3.95-.03 1.31.06 1.88.48 2.95.71 2.11.45 4.43-.43 6.46-.71 1.5-.2 9.58-.28 11.62-.15l3.37-.05c.91.02 1.47-.39 2.29-.75 3.28-1.44 1.94-1.56 6.2.36.61.27 3.92 1.15 4.78 1.31 1.79.34 3.69.53 5.61.42 4.29-.24 9.06-1.76 11.74-3.49 2.24-1.45 4.11-3.73 5.56-4.99 2.02-1.76 2.71-1.98 4.33-3.27 1.46-1.17 1-1.32 1.32-2.5.42-1.54 1.9-.28-1.01-4.34-.37-.52-.41-.91-.7-1.41-2.97-5.18-3.57-11.54-3.16-17.17.14-1.88 1.08-5.75.07-7.14-.67-.92-2.38-1.21-3.66-.31-1.73 1.22-4.02 2.55-5.64 3.83-.55.44-2.11 1.6-2.74 1.79-.96-.31-2.21-1.11-3.31-1.15-.3-.2-.01-.06-.53-.26-5.27-1.73-7.19.17-8.33-2.13-.38-.76-1.72-1.93-2.26-3l-3.03-4.1h-3.63L98.5 5.86l-.34.89c-.67.11-1.19-.15-1.99-.28-.71-.11-1.57-.07-2.37-.08-1.66-2.16-.69-2.24-6.58-2.34-1.28-.02-3.67-.17-4.72.17-1.29.41-1.33.99-1.59 1.45-.51.88-2.38.78-2.79.16-.03-.05-.12-.25-.15-.32-.96-2.24-3.55-1.63-6.91-1.66-1.35-.01-4.04-.32-5.05.14-1.46.67-1.75 1.57-2.28 2.15-1.1.09-5.47.5-6.25.34-5.27-1.09-3.13-.58-4.38-1.73-1.56-1.44-2.28-1.11-5.35-1.19-3.26-.08-2.22 3.36-6.22 2.49-2.34-.51-5.87.15-9.44-.25-2.24-.25-10.2.07-13.46-.07-3.87-.2-1.31-2.11-5.04-2.59-1.77-.23-6.54-.44-7.88.16-2.21.98-1.73 2.64-1.94 4.75L2.73 19.59c-.07.99.24 2.1-.26 3-.26.46-.5.54-.75.96-.28.47-.17.58-.59 1.08-2.85 3.43.19 5.73 2.01 6.01 1.34.21 2.22-.36 3.09-.65.16 1.1.02 3.03-.14 4.13-.42 2.86-3.01 2.77-2.83 6.29.07 1.41.7 2.24 1.34 3.1.96 1.3-.26 4.26 5.21 4.54 3.8.2 7.34.16 11.15.21z" style="fill:#000"/><path class="fil1" d="M111.07 31.99c2.01-.32 3.39.42 4.82 1.21.43.24.75.51.99.92 2.39 4.19-3.4 4.76-6.05 3.45-.59-.29-1.84-1.19-2.18-1.69-1.35-1.95-.02-3.51 2.41-3.89zm-13.35 7.47c1.02-.03.97-.52 1.72-.02.68.45.32.84 1.45.79-.04-.92-1.7-2.24-2.64-4.42-.37-.86-.82-1.53-1.24-2.39-.41-.83-.64-1.66-1.01-2.55l-1.17.33c-.05-.59.53-1.77.86-2.22l2.52 1.69c-.54.24-.48-.09-1.32-.1.04.6 1.52 2.89 1.95 3.41l2.27 2.04c.34.27.65.34 1.01.66.06.92-.23 2.01.14 2.87.79-.07 1.58-1 2.63-1.72.64.11 2.17.76 2.86 1.01 4.31 1.59 8.4.95 11.77 1.15.23.97-.42 1.61-.28 2.68 1.06-.31 2.02-.97 2.67-1.52 2.04-1.75.57-1.14 3.54-2.76.21-.12.38-.21.6-.38.95-.71 2.41-1.83 2.46-2.84l-.9-.38c.5-.37 1.49-.74 2.38-.67.42.8.37 1.72.29 2.61-.41-.25-.58-.59-.98-.77-.48.39-.67.68-.95 1.25-.55 1.12-4.19 4.72-5.82 5.77-3.17 2.05-7.36 3.68-11.88 2.81-4.71-.9-5.42-2.47-6.9-2.92-.33.16-.5.17-.69.52.73.99 6.71 2.92 9.49 3.08 5.7.33 7.25-.02 11.33-1.68 2.68-1.09 5.04-3.37 6.61-5.18.28-.32.83-1.29 1.09-1.67.33-.48.82-1.39 1-1.87.55-1.42.84-3.11-.47-4.07-1.39-.07-1.81.59-2.87.96-3.49 1.21-7.84 3.22-11.71-.3l-1.49-2.05c-1.54-2.7-1.45-4.18-1.81-4.85-1.35 1.12-1.75 2.9-3.55 4.04-1.11.7-2.39 2.37-6.26 1.73-3.11-.51-5.87-2.74-7.73-4.48-.77-.72-1.16-1.49-2.5-1.56-2.48 1.73-1.74 4.89-.61 7.38.57 1.26.56 1.92 1.81 3.49.41.52.7 1.19 1.03 1.58.38.46.94.95 1.31 1.49zM60.58 20.53c-.25-1.14-.38-4.32 1.3-4.94.55.6.07 2.04-.03 2.77-.14 1.01.26 2.27-1.27 2.17zm-6.79-.15c-1.68.19-1.21-.87-1.12-1.9.08-.87.15-1.72.23-2.6.12-1.21.08-4.28.71-5.04l1 .02c.29 1.35-.24 8.86-.82 9.52zm-8.76-.3c-.33-.54.25-8.13.56-9.14l1.03.04c.33.59-.35 8.38-.76 9.15l-.83-.05zM43.02 9.03c.04.42-.65 2.96-.75 3.92-.15 1.42-.24 2.82-.37 4.23-.06.65-.22 3.97-.04 4.4.12.27.91 1.03 1.38 1.16 1.08.31 1.82-.18 2.31-.46.87.34.2.36 1.49.41.7.03 1.41.11 1.8-.17.69-.59.57-6.39.84-7.73.56.39.2 1.52.17 2.05-.11 1.69-.65 4.71 1.26 5.66 1.59.8 3.34.55 4.48-.26 1.01-.72 1.42-2.01 1.68-3.33.04 1.26.06 2.07.36 3.21.95-.25.85-.47 1.75-.82.58-.23 1.51-.44 2.01-.21 2.5.61.81 1.99 3.15 1.79.42-1.44 1.11-10.22.9-11.77-.65-4.68-8.52-3.22-7.21 1.68 4.6.49 1.75-.68 3.48-1.94.79.26 1.32 1.5-.33 2.46-3.06 1.79-1.85.03-3.98 3.67-.1-2.44 1.12-5.99-.66-7.89-1.27-1.36-4.96-1.27-6.14 1.42-.04.1-.14.36-.18.42L50.2 6.1c-.56-.08-.94-.09-1.45-.09l-1.2.1c-.44.1-.34 1.03-.35 1.42 0 .18 0 .45-.03.62-.02.11-.05.22-.09.33-.19.42-.04.15-.2.31-.54-.25-.98-.74-2.02-.67-1.04.07-1.12.54-1.81.91z"/><path d="M121.44 14.09c-1.95.51-3.42 1.39-4.32 2.64-3.13 4.35-2.85 10.02-.09 14.42.83 1.33 3.88 3.53 6.69 2.86 1.28-.31 2.44-.99 3.07-1.58 3.62-3.37 4.33-8.42 2.75-12.61l-1.45-2.91c-.29-.43-.71-.71-1.11-1.1-1.24-1.19-3.24-2.31-5.55-1.71zm-14.86-2.64c-2.69.32-4.92 2.13-5.91 3.55-1.58 2.25-2.21 3.26-2.44 6.24-.19 2.47.04 5.01 1.46 6.81.33.41.66.71 1.02 1.18.75.96 3.16 2.18 5.66 1.85 1.05-.14 2.78-.97 3.38-1.37.37-.25 2.14-1.78 2.4-2.22 1.03-1.8 2.37-3.89 2.38-6.24.01-2.62.04-4.7-1.6-6.68-1.27-1.54-.11-.81-2.39-2.23-.98-.61-2.14-1.1-3.94-.88z" style="fill:#ffa0ac"/><path class="fil3" d="M41.68 33.89c-.09-.49.15-.78.36-1.23.25-.53.18-.74.81-.81.17.74-.72 1.55-1.17 2.04zM30.7 29.21c-.19-.18-.38.38-.19-.55 0 0 .19-.39.21-.42l.71-1.67c.32-.79-.13-.28.4-.86.13.17.33-.27.11.53-.21.75-.73 2.49-1.23 2.98zm-.19 6.16-.38-.73c-.32-1.41-.17-1.84.6-2.57.7-.66 1.39-1.94 1.81-2.77.77-1.53 2.26-5.66-.53-6.19-2.1.73-2.63 4.05-3.03 6.08-.3 1.51-.27 1.95-1.06 3.32-.29.5-.64.89-.87 1.42-.31.7-.11 1.01-1.03 1.28-.02-1.45 1.1-4.69-.4-5.23-1.33.51-1 2.84-1.07 3.99-.09 1.48-.02 3.4 1.82 3.57.39-.2.93-.81 1.25-1.15.42-.43.55-.93 1-1.3.62.71.26 1.85 1.69 2.45 1.12.16 2.59-2.1 3.1-2.28.09.57-.05 1.26.32 1.94.4.73-.11.25.52.52 1.57-.69 1.55-5.33 3.12-5.8.18 1.35-.04 3.26.5 4.58.18.44.38.78.88 1.07 1.14-.14.84-.41 1.5-1.01.38.17.07 0 .39.26l.27.24c.02.02.06.06.09.08.49-.18 1.22-.73 1.53-1.1.59-.71.25-1.12 1.15-1.44.26 1.14.2 2.23 1.64 2.56 1.03-.37.93-.8 1.69-1.14.39.5.3.61.79 1.04 1.33-.64.88-2.9 2.53-4.9 1.22.16.29.4 1.58.43 1.15-1.68-1.5-2.58-1.52-2.58-.73.09-.97.37-1.72.55-.21-.57-.16-.5-.64-.87-1.38.35-.27.81-1.19 2.64l-1.58 2.48c-.11-1.48.61-3.49-.32-4.56-.74-.1-.77.05-1.39-.1-.47-.11-.56-.34-1.21-.28-.76.07-1.31.76-1.54 1.35-.3.72-.47 1.02-.88 1.68-.36.58-.46 1.33-.8 1.84-.22-.17-.07.08-.2-.27-.13-.36.02-2.06-.29-3.47-.21-.95.04-1.31-1.39-1.51-.92.07-1.33 1.16-1.7 1.72l-.63.72c-.08-2.01 1.05-8.17.04-8.8-1.48-.91-1.13 1.44-1.13 2.05 0 2.02-.21 4.04-.33 6.03-.07 1.28-.61 1.26-1.34 2.18-.57.73-.7 1.51-1.68 1.95z"/><path class="fil1" d="M29.35 12.05c0-.74.21-1.29.79-1.65.82.26.78.87.78 1.65 0 1.3.18 1.41-1.51 1.33l-.06-1.33zm-3.59 7.61h-3.24c-.2-.71 1.39-3.09 1.8-3.9.54-1.07 1.21-3.31 2.07-3.97-.1.72-.45 1-.44 1.76.02 1.69.32 4.15-.19 6.11zm-5.79-8.71 3.13.06c.33 1.38-4.51 7.12-4.03 11.32l6.36.07c.5-.12.16-.23.51-1.13.01-.03.03-.08.06-.12.74.61.99 1.28 2.33 1.48 4.69.69 5.34-3.5 5.16-5.79l-2.97-.03c-.4 1.01.01 2.86-1.11 3.4-.94-.88-.44-3.1-.2-4.33l4.22-.05c.97-.2.59-5.53-.12-6.54-1.17-1.69-4.39-1.73-5.75-.36l-.71.59c.04-1.78.25-1.4-2.37-1.43-1.38-.01-3.13-.1-4.47 0l-.06 2.85zM15.28 19.98c-1.1.07-1.03-.15-1.07-.93-.07-1.42-.03-3.19 1.54-4.18.03.79-.23 4.65-.47 5.11zm-2.57-7.63c1.5-.16 1.84.39 2.02-.7.12-.71.07-1.22.94-1.35.95.77.43 1.96-.36 2.45-.35.22-1.06.39-1.55.65-.8.42-.4.56-1.24.69-.09-.62-.1-1.2.18-1.74zM9.66 8.7l3.08.03-.91 2.62-2.51-.05.35-2.6zM5.41 22.12c5.23.87 2.47-4.63 3.72-7.45l2.75-.02c-.27 1.02-.66 1.49-.79 2.74-.09.96-.34 2.3.03 3.15.04.02.12 0 .14.04.14.23 2.2-.29 3.6.14 1.11.34 1.46.96 2.08 1.58h1.26c.49-3.04.71-6.25.96-9.35.2-2.48.26-4.98-3.31-5.05-1.33-.02-2.14.12-2.83.56l.09-2.88c-1.28-.05-5.63-.22-6.55-.05L5.4 22.11z"/><path class="fil3" d="M70.75 41.5c.03-.29-.06-.09.1-.31.02-.03.25-.25.27-.27-.16-.18-.14-.05-.08-.42 0-.01.14-.44.18-.55.81-2.52 1.66-6.18 2.44-8.38.65-1.84 3.2-8.13 1.36-9.54-1.73-.6-4.35 3.21-4.81 3.77-1.57 1.95-2.05 2.89-3.46 4.7l-.09-.45c.18-1.18 1.78-3.41-.29-4.2-2.34.58-4.72 5.25-5.47 5.77l1.33-5.36c.4-1.71 1.11-4.93-2.05-4.74-.15.12-.77.38-1.14.65-1.17.87-1.52.9-2.17 1.71-.38.47-.66.67-1.03 1.02-.77.75-3.44 4.21-1.11 4.7.84-.39.59-1.02 1.08-1.84.36-.61.82-1.19 1.29-1.79.62-.79 2.71-2.65 3.88-2.73.13 1.93-.83 4.89-1.48 6.82-.28.83-.29 1.45-.56 2.33-.42 1.34-.97 2.8-1.47 4.11-.32.84-.42 1.33-.6 2.19-.21 1.04-.83 1.49.3 2.14.97-.35 1.68-2.1 2.05-3.03.34-.85 1.33-2.42 1.88-3.16.51-.68.61-1.48 1.96-3.09.2-.23.37-.37.57-.67.22-.34.88-1.74 1.74-2.11-.19 1.83-2.85 7.06-1.26 8.31 1.45-.42 1.75-1.99 2.43-3.12 1.75-2.9 3.57-5.62 5.92-8.29.52-.6.75-1.22 1.62-1.47-.09.77-.31 1.47-.58 2.22-.32.87-.38 1.56-.58 2.35-.36 1.39-.94 2.99-1.41 4.3l-1.88 6.58c-.33 1.18.07 1.35 1.1 1.83zM38.51 41.12c-1.85-.22-15.48.03-18.52.05-1.57.01-3.13.03-4.7.04-2.35.02-2.27-.05-3.7.74-.46.26-.83.55-1.31.83-.32.18-.98.45-1.3.69-.18.14-.79.87-.82 1.09-.06.42-.45.21.41.43.31.08 26.57.8 28.4.53 1.67-.25 1.77-.69 2.17-1.84.25-.71-.18-.36-.5-1.01-.21-.43-.1-1.07-.15-1.56z"/><path class="fil1" d="M65.91 14.76c.33 1.83-1.01 6.83-.4 8.07.76.19 2.05.1 3.02.1.05-.99.19-6.1.67-6.56.28.4.69 2.62.85 3.25.15.58.27 1.19.43 1.81.06.24.12.52.18.79l.33.73c.02.02.05.07.09.1 1.74-.22 2.58-1.72 2.66-2.91.14-1.91 1.3-12.93 1.08-13.8l-3.13-.01-.72 7.44-1.52-7.47c-.9-.06-2.03-.19-2.83.06l-.46 6.38c0 .55.16 1.62-.24 2.02z"/><path class="fil3" d="M7.47 40.39c-.01-.54.29-.78.6-1.15.69-.81.31-.52 1.66-.56.33-1.01 1.6-1.85 3.4-1.63.05.63-1.5 1.74-2.05 2.19-.81.66-2.2 1.39-3.62 1.15zM3.66 28.08c.99-1.17-.35-.63 1.86-1.94 1.01-.6.49-.72 2.47-1.47 1.93-.73 4.18-2.11 6.95-1.41.29 1.04-2.11 4.26-2.99 5.24-3.32 3.66 2.72 2.39 3.42 4.05.58 1.38-1.01 2.9-1.48 3.94-.5-.38-.39-.79-.83-1.41-1.82-.31-1.59.19-2.87.44-.05-2.1.47-5.91.61-8.55.05-.87.47-1.96-.37-2.5-1.06.11-.92.66-1.07 1.99-.1.87-.19 1.71-.29 2.57-.19 1.7-.43 3.49-.51 5.2-.07 1.51.3 1.84-.45 2.43-.42.33-1.4 1.15-1.69 1.64-2.01 3.42 1.9 6.09 6.03 2.34 2.64-2.4 6.35-6.75 3.45-9.84-1.19-1.27-1.25-.63-2.24-1.22.14-.92 4.8-5.37 1.91-7.86-.83-.71-2.74-.59-4.01-.38-2.53.42-4.68 1.42-6.33 2.39-.8.47-1.66 1.14-2.23 1.94-.65.91-.73 2.23.67 2.41z"/><path class="fil1" d="m86.29 9.66-.3-.75-2.89-.04c-.29.55-1.27 13.51-1.05 14.21 3.78.11 2.81.23 3.06-2.51l.81-8.48c1.14.14.61 1.03.47 2.97-.1 1.4-.65 5.91-.41 6.94.44 1.89 2.9 1.22 3.06 1.1.45-.46.09-3.28.14-4.19.05-1.01 0-5.81.53-6.55 1.55-2.13.11-2.54.17-3.71.04-.76.22-1.44.16-2.18l-3.1-.03c0 .64.01 1.22-.01 1.8-.03.78.12 1.24-.63 1.44zM33.86 16.16l-.39 6.32c1.07-.1 2.42.15 2.78-.08.6-.51.32-2.17.47-2.94.5-2.67.29-5.09.71-7.69.1-.64.21-.93.97-.98.81 1.44-.74 10.18-.4 11.66.82.2 1.87.22 2.77.11.59-2.04.66-5.18.75-7.37.09-2.21 1.12-5.79-1.05-7.01-1.83-.24-1.65.16-2.63.51-.43-.33 0-.59-2.46-.51-1.33.04-.85.46-1.25 2.92l-.26 5.04z"/><path class="fil1" d="M93.55 14.16c-.33-.56-.07-1.09.02-1.7.12-.76 0-1.24 1.1-1.17.23.44.18 1.27.23 1.87.07.92-.03 1.15-1.35 1zm4.01 3.51-3-.03c-.61 1.35.07 2.96-1.13 3.36-.68-.48-.48-1.28-.42-2.09.06-.76.07-1.66.21-2.34 1.23-.08 2.42.04 3.61.02 1.3-.03.86-.26 1.04-1.96.16-1.52.36-3.66-.66-4.76-1.42-1.53-6.49-2.24-6.88 3.46-.35 5.09-2.29 10.52 3.66 10.01 1.48-.13 1.86-.3 2.36-1.06.83-1.26 1.25-2.96 1.21-4.59zM77.48 20.66c-.51-.72.04-4.07.13-5.19.16-1.98-.34-5.11 1.4-4.31.63.29.02 4.35-.07 5.1-.31 2.65.22 4.61-1.47 4.39zm-.78 2.38c1.04.31 2.71.14 3.45-.55.71-.66 1.27-1.34 1.47-2.38.59-3.18.63-5.27.63-8.34 0-4.12-5.22-3.82-6.7-1.81-.8 1.09-2.01 10.77-.89 11.38.58.31.67-.09 1.25.6.27.32.36.81.79 1.1z"/><path class="fil3" d="M56.71 41.93c.55.42.11.48.75.75.44.18.81.07 1.39.3.38 1.78-1.66 1.39-2.37 2.68l5.47-.02c-.35-1.47-1-2.07.54-3.41 1.17-1.02 2.76-.9 3.52.37 1.13.13 1.35-.17 1.87.43.59.78-.57 1.05-1.47 1.25-1.01.23-1.76.4-1.93 1.34 3.5.67 2.17.13 4.15.01 1.53-.09 3.33-.01 4.89-.03.83-.01 1.36.02 1.8-.45.57-.61 1.99-3.31 2.18-4l-2.87.04c-.62.09-1.37.23-1.89.44-1.69.68-.76 1.23-2.56.23-1.82-1.01-1.83-.81-4-.79-2.24.02-4.58-.08-6.77-.04-1.48.03-1.72.57-2.6.33-1.42-.4-1.39-.34-3.03-.33-4.68.01-5.37-.43-5.5.93.8-.14.67-.25 1.57-.18l.56 1.07c.79-.22.74-.6 1.41-.77.97-.25.9.16 1.6.41.7-.27.84-.62 1.41-.81.41-.13.77-.17 1.22-.1.27.04.22.04.42.13.38.17.12-.04.23.22zM87.42 34.06c.4.17.2-.14.54.5.13.25.14.32.21.57l-1.11-.2c-.16-.63-.18-.49.36-.87zm-10.04-.98c.1-.35.23-.67.48-1.01.4-.56.56-.48.82-.58-.12.63-.63 1.29-1.3 1.59zm7.17 1.24c.22-2.66 1.81-3.73.43-4.48-.8.11-1.1.95-1.99 2.14-.52.7-1.17 1.84-1.97 2.15.08-1.15 1.13-3.28.27-4.03-.72-.23-.37-.01-1.14-.1-1.1-.13-.01-.23-2.36-.16-1.42 1.78-2.38 2.13-2.53 4.56-.19 3.02 2.07 1.21 3.23.06.38-.38.24-.45.86-.57.39.96-.07 1.38.94 2.17 1.79.16 1.64-.72 2.44-1.08.3.33.49.92.83 1.15.7.48 1.32.04 1.98-.06 1.49.86 4.02 1.32 4.42-.2.24-.9-.33-1.34-.62-2.03-.34-.8-.18-1.55-.14-2.43.72-.29.95-.03 1.32-.65.66-1.09-.23-2.48-1.36-1.56-.3.24-.77.66-1 .95-.58.72-1.95 3.56-3.61 4.17z"/><path class="fil4" d="M119.37 20.02c-1.09 1.61 1.8 4.21 1.2 5.37-.21.4-.71.63-1.14.95-1.19.92-2.78 2.77-.46 3.06.71-.39 2.22-2.21 2.82-2.4l2.04 3.01c.16.37.25.84.63 1.04 1.14.6 1.84-.35 1.18-1.4-2.74-4.33-2.67-3.81-.18-6.03.68-.6 1.13-1.15 1.76-1.73.18-.16 2.01-1.27.91-2.04-.87-.6-1.85.95-2.27 1.32-.36.32-.29.17-.68.46-.81.6-1.55 1.88-2.72 2.23-.2-.37-.5-.69-.73-1.11-.21-.38-.25-.8-.44-1.18-.73-1.44-.91-1.65-1.94-1.57zM40.47 42.32c-1.72-2.38 6.79-5.38 6.27-1.37-.12.9-1.34 3.04-1.9 3.6-.18.18-1.47 1.32-1.54 1.35-.65.3-2.31.09-2.84-.14-.29-.22.29-1.92.83-2.17.72-.33.84.39 2.11.07.06-.43-.07-.49-.48-.63-.59-.21-.36.04-.98-.29.2-.67 1.17-.78.71-1.19-.91-.69-1.83.64-2.19.77zm-2.72 4.09c1.68.19 1.02.35 1.9 1.03 1.6 1.24 2.98-.61 4.65-.39 1.01.14 2.16.78 2.61.36.46-.95-1.38-.72-2.12-1.12.13-.41.3-.49.53-.83.43-.64.08-.48.84-.71.09-1.21 2.13-1.62 1.73-4.61-.26-1.9-2.71-2.56-5.23-1.71-1.5.51-3.81 1.92-3.78 3.33.03 1.35 1.31.81.61 2.32-.58 1.26-.22 1.29-1.81 1.67-.05.32.01.52.05.64zM76.74 46.16c.48-.47 3.65-1.84 4.79-1.37-1.11.45-3.25 1.48-4.79 1.37zm1.02-1.59c.15-1.62 1.73-2.49 1.85-4.77 1.69-.05 4.62-.21 5.48.68.66.68.19 1.22-.23 1.89-.59.93-.73.69-1.31 1.36-1.4.07-1.77-.02-3.06.27-.91.2-1.69.48-2.72.58zm-6.64-3.64c-.02.02-.25.24-.27.27-.16.22-.06.02-.1.31l.33.47c.43-.1 1.25-.47 1.66-.63 1.59-.65 3.77-1.11 5.58-1.38-.01.49-.14 1.03-.48 1.32-.49 2.74-3.09 4.63-2.6 5.3 1.09.76 2.48.24 3.88 0 1.45-.26 4.28-1.62 4.94-2.04.56-.35 3.05-2.49 2.6-3.82-.28-.83-1.71-1.4-2.94-1.61-3.25-.56-5.97.17-9.03.69-1.31.22-2.44.76-3.57 1.13z"/><path class="fil3" d="M118.27 44.69c.38-.75.46-1.05-.31-1.62-.52-.38-.98-.75-1.84-1-2.89-.85-3.99.59-4.66.85-.86-.3-1.71-2.08-4.89-2.17-2.52-.07-3.39 1.29-.53 2.52 2.19.95 2.01 1.35 5.31 1.75 2.15.26 5.1.17 6.91-.34z"/><path class="fil4" d="M102.45 25.65c1.08-.12 1.82-1.72 2.82-1.96.42.63.73 1.32 1.05 1.99.18.38.89 1.91 1.05 2.11.74.92 1.84.18 1.21-1.01-.32-.6-1.9-4.03-1.81-4.44.11-.51 2.85-2.81 3.31-3.37.55-.67 1.46-1.11.41-1.95-1.37.03-3.44 3.09-4.66 3.48-.33-.29-1.23-2.66-1.52-3.37-.23-.57-.22-.71-1.11-.73-1.06 1.34.97 3.61.98 4.96 0 .58-.3.68-.7 1.02-.99.85-2.71 2.29-1.03 3.26zM47.84 43.62c-.18 2.84 2.89.79 3.15.68.92.69.27.72 1.96.58 1.22-.1 1.14.54 2.3.43 1.36-.13 3.31-1.32 3.14-2.09-1.64-.24-2.5 1.8-3.68 1.15 1.46-.7 2.79-.72 1.92-2.26-3.42-.27-2.44 1.35-3.95 1.98-.58-.72.7-.96-.24-1.61-.11-.06.13-.43-.78.16-.32.21-.33.25-.71.46-1.64.91-.4.62-1.6.93.1-.77.7-1.25.32-1.83-1.3-.11-1.42.88-1.83 1.4z"/><path class="fil3" d="M19.62 37.06c.54-.36.76-2.03.99-2.63.3-.78.8-1.79 1.45-2.32.88.23.09.53 1.31.6 1.08-1.06-.23-2.27-1.31-2.64-1.58.09-.68.41-1.69.76-.22-.29-.78-2.08-1.47-.68-.25.51-.12 1.81-.16 2.45-.07 1.18-.84 4.3.88 4.46z"/><path class="fil4" d="M90.8 44.16c.35.27.39.49.94.89.96.01 1.69-.22 2.27-.67 1.71-1.35 1.18-2.09-.38-.96-.48.35-.75.61-1.33.69.08-.86.57-.83.35-1.64-4.59-1.12-3.77 1.65-5.58 1.76.23-1.02 1.23-1.33.35-1.95-.52.05-.88.17-1.33 1.09-.32.65-.18 1.42.41 1.68.43.19 1.89.02 2.5-.09.95-.17 1.18-.56 1.8-.81z"/><path class="fil3" d="M78.53 43.99c1.48-.23 1.94-.59 3.92-.74 1.2-.09 1.1-.05 1.65-.61.41-.41.61-.76.58-1.47l-4.7-.01c-.4.67-1.32 1.99-1.46 2.82zM42.91 45.61c.46-.39.82-.63 1.17-.93.78-.67 2.07-2.76 2.04-3.63l-2.87-.01-.31 1.56c1.06.33 1.45.64.66 1.45-1.25.3-1.05-.1-2.22-.11-.27.56-.56.63-.55 1.39.04.02.1.05.13.06.47.17.61.27 1.96.21z"/><path class="fil4" d="M63.57 43.74c.02.01.34-.07.26.36-.1.61-.07.19-.45.33-.01-.01-.84-.22.19-.69zm4.04-.55-1.85-.06c-.46-.89-.93-1.64-2.45-.87-2.78 1.4-1.04 4.37 1.49 2.46.55-.42.22-.65 1.1-.82.32-.06.71-.04.97-.1.82-.18.57-.08.75-.61z"/><path class="fil3" d="M96.9 45.11c1.2-.24 2.44-.99 3.35-1.5.49-.28 1.03-.58 1.45-.86.54-.35 1.14-.53 1.33-1.11-.6-.22-1.69-.17-2.47-.18-2.41-.05-1.54.32-2.69 2.18-.35.57-.72.98-.97 1.47z"/><path class="fil5" d="m92.89 42.04.48.93c1.21-.43.7-.9 2.15-.24.42.19-.44-.07.46.2l.58-1.51c-2.15-.25-9.95-.29-8.4.91.95.74-.08-1.08 4.72-.29z"/><path class="fil4" d="M95.73 44.76c1.08.16 1.09-.09 2.3-2.1.33-.54.39-.9.72-1.4.24-.37.94-1.15.54-1.46-.88-.69-1.31.67-2.22 2.01-.42.61-1.53 2.21-1.33 2.95zM83.12 8.13c3.64.28 3.16-.04 3.22-1.7H83.2l-.08 1.7z"/><path class="fil3" d="M26.19 28.08c.83-.3.72-.52.72-1.37 0-.69.04-.69-.53-1-1.47.2-1.38 1.95-.19 2.37z"/><path d="M85.35 28.12c.92.02 1.1-.14 1.33-.7.25-.62.08-.88-.24-1.22-1.63-.14-1.98 1.27-1.09 1.92z" style="fill:#fc9faa"/><path class="fil5" d="M46.26 44.84c-.18.4-.25.36-.35.78l2.29.02-.61-1.22c-.33-.67.02-.22-.48-.48-.14.41-.35.73-.86.89zM83.28 45.49l2.52.03c-.1-.52-.28-.92-.82-1.2-.54.37-.2.25-.82.57-.51.27-.54.23-.87.6z"/><path class="fil7" d="M87.38 41.53c.94.03 1.01-.04 1.52-.44-.48-.81-1.66-.74-1.52.44z"/><path class="fil5" d="m93.53 45.43 1.64-.3-.07-.83c-.89.05-1.36.63-1.57 1.13z"/><path d="M49.85 45.6c.35.03.58.07.95.05.64-.05.65-.21.79-.31l-.78-.46c-.75.18-.88.22-.96.73z" style="fill:#f99da8"/><path class="fil7" d="m94.97 45.64-.05.63c.46.12.69.11 1.08-.01l.06-.72c-.78-.09-.52-.12-1.1.11z"/><path d="m89.47 45.48 1.67-.01-.23-.6c-.5-.04-.42-.1-.88.05-.47.16-.44.19-.56.56z" style="fill:#f59ba5"/></g></g></svg>