<svg xmlns="http://www.w3.org/2000/svg" xml:space="preserve" width="242.997" height="82.186" style="shape-rendering:geometricPrecision;text-rendering:geometricPrecision;image-rendering:optimizeQuality;fill-rule:evenodd;clip-rule:evenodd" viewBox="0 0 156.49 52.93"><defs><style>.fil1{fill:#f2fe00}.fil2{fill:#fefefe}</style></defs><g id="Camada_x0020_1"><g id="_2086936649184"><path d="M145.61 10.2c-.62.03-2.39-.79-3.26-1.02-3.72-1-8.4-.52-11.98-.12.19-1.56 4.1-8.03-1.19-8.96-4.52-.8-4.51 3.23-9.37 1.62-2.74-.91-6.86-2.02-9.76-.89-1.44.56-2.75 1.62-3.6 2.72-.94 1.22-1.28 3.52-1.77 5.05-.88.07-3.84-1.24-9.28-1-1.78.08-3.09.47-4.71.76-2.2.39-1.86 1.85-4.03.67-2.02-1.09-11.78-.74-14.87-.56-2.73.16-2.61 1.03-3.64 2.13-1.51-.68-3.49-1.73-5.38-1.59-.61.1-1.53.14-2.07.29-2.44.7-.38 1.2-5.64.81-1.38-.1-2.93-.01-4.31.08-2.56.16-1.71.63-2.67 2.31-.88.04-1.59-.82-2.67-1.29-1.44-.62-1.74-.58-3.26-.93-3.85-.9-9.7-.44-12.55 3.34-1.53 2.04-.78.57-1.57 2.86-.23.66-.42 1.13-.82 1.47-.42.35-.96.62-1.5.28-.35-.54-.21-.14-.22-1.02 0-.39.05-.86.06-1.32.01-1.19.08-1.33.21-2.45.33-2.61-1.04-2.03-2.43-2.39-2.39-.62-6.22-.12-8.84-.07-4.96.09-3.66.64-5.27 4.77C7.41 20.4 5.55 26.4 3.89 31.3l-2.75 7.78c-1.89 4.54-1.68 4.73 2.72 5 1.34.08 3.07-.15 4.41.01 2.47.3 1.84-.11 2.85-1.95.45.67.15 1.64 2.92 1.82 1.39.09 2.82.13 4.23.13 1.3 0 3.43.41 4-.79.22-.46.33-1.48.39-2.13.07-.74-.03-1.98.51-2.22.4 1.08.14 1.86.84 2.73.42.52 1.29 1.06 1.86 1.46 1.59 1.13 2.44 1.66 4.75 1.64 2.8-.02 5.95.13 8.52-.97 1-.43 1.12-1.09 2.21-1.43 1.23.56 1.13 1.63 2.27 1.84l7.58-.32c1.39-.13 2.48-.43 3.34.86l.13-.15c1.47-.22 4.38-.31 5.66.24.02.97.04.1-.2.49-.11 1.13-.16 1.53.46 2.26.34.39 1.04 1.08 1.45 1.36 3.62 2.42 5.6-.11 8.51.44 4.94.93 2.23-1.53 6.19-.23.95.31 1.07.26 2.15.28 1.7.04 3.29-.15 4.95.03 1.61.18 3.78-.55 4.55-.37 1.85.44 2.43.31 4.35.44.5.93.48 3.61 4.5 3.36 1.8-.11 4.26-1.71 5.17-2.88 2.16-2.79 2.08-1.37 5.4-2.2 1.33-.33 1.82.26 3.1.11 1.28-.15 1.83-.83 2.84-1.32.8.41 1.51 1.2 2.42 1.32 1.11.15 2.15-.14 3.4.05 1.65.25 2.03-.32 3.21-.48.51-.07 1.84.59 2.84.65 2.21.14 4.35-.58 6.45-.23 1.14.19 2.26.16 3.31-.22 1.36-.5 1.54-1.48 2.19-1.67.32-.71.31-.55 1.11-.79 1.02-.31 1.67-.81 2.51-1.59.38-.35.65-.79.98-1.07.47-.41 2.02-.84 2.68-1.17l4.95-2.98c1.67-1.26 4.51-4.62 5.47-7.07 2.28-5.85 1.45-11.95-2.67-15.95-.2-.19-.29-.24-.48-.45-.29-.32-.18-.29-.5-.64l-5.98-4.14z" style="fill:#070909"/><path class="fil1" d="M134.52 17.79c.46 2.87-.73 2.91-2.48 3.71-2.27 1.03-2.24.9-2.44 4.05l-.94 12.71c-.98.31-1.17-.12-1.95-.38-.73-.24-1.48-.06-1.94-.5-.83-1.24 1.4-10.47 1.03-13.07-1.4.14-2.63 1.53-4.04 1.68-.68-2.47-.75-.97-1.05-2.37.24-.22 0-.05.37-.26l2.91-1.47c3.86-1.88 1.77-2.16 3.22-7.26.6-2.11 2.89-2.05 3.21-1.59.43 1.28-.31 4.4-.19 6.15 1.18-.19 3.38-1.67 4.3-1.4zm13.17 19.67c1.09-.14 3.43-2.8 3.99-3.51.54-.69.96-1.64 1.41-2.42.52-.9.79-1.79 1.06-2.83 1.28-4.93-1.08-9.78-3.16-11.99-4.75-5.04-13.09-7.75-21.15-4.9-3.4 1.2-6.46 2.93-8.99 5.83-.72.83-2.25 3.57-2.72 4.98-.63 1.9-.99 5.16-.18 7.42.94 2.64 1.48 3.04 2.83 5.01.61.88 1 1.11 1.94 1.77.87.62.21.52 2.08 1.61 5.27 3.07 5.08 1.47 8.31 1.56 1.88.05 1.46-.16 2.4 1.37 1.37.18 2.19.19 2.82-.97.41-.75 1.37-1.86 1.17-2.85-.82-.02-1.69.01-2.3-.42-.78-1.03-.75-3.54-1.58-4.5-1.11-1.29-3.43-.13-4.57-.65-.91-3.34 5.2-.02 6.31-2.73-.84-1.22-2.67-.3-2.43-2.79 1.22-1.64 2.62-.47 4.29-.55 2.1-.1 2.89.14 4.08 1.42.61.66 1.94 2.53 2.43 3.56 1.33 2.81.31 3.07-.5 4.8l2.12-.27c.21.83.36 1.08.34 2.05z"/><path class="fil2" d="M55.22 17.61c1.15-.38 3.78-.11 3.12 2.18-.46 1.62-.42 3.76-1.7 4.28-1.71.69-3.56 1.43-2.74-1.74.37-1.44.78-3.44 1.32-4.72zm-2.97 12.78c3.11-.71 2.01 2.03 1.73 4.83-.13 1.3-.79 5.76-.45 6.9.66.23 6.4.14 7.35-.06.36-2.42.29-5 .53-7.53.62-6.54-.58-5.13-.58-7.25 1.1-.93 2.59.06 4-5.63.48-1.94 1.75-7.18.32-8.68-1.7-1.79-4.65-1.51-7.27-1.5-1.41.01-7.31-.38-8.09.18-.62.67-3.02 13-3.59 15.19l-3.28 15.3c.87.35 5.45.37 6.51 0 .47-1.06 2.25-9.6 2.81-11.76zM38.76 18.51c.3 1-.69 4.38-.97 5.41l-1.21 5.51c-.21 1.02-1.05 4.61-1.36 5.35-.62 1.47-3.25 2.28-3.83.42-.5-1.62 1.62-9.24 2.15-11.13.29-1.04.24-1.77.5-2.81.77-3.1.63-3.67 2.76-3.84 1.12-.09 1.6-.09 1.95 1.09zm-3.17-7.26c-1.69.37-3.48.82-4.55 2.02-3.08 3.46-3.55 7.01-4.81 12.32-.24 1.02-.27 1.87-.5 2.86-.69 2.99-2.48 8.96-1.31 11.98 1.24 3.2 9.82 3.67 14.31.48 3.56-2.52 5.58-16.11 6.6-21.01.39-1.88.85-4.61-.04-6.32-1.54-3-7.02-2.92-9.7-2.33zM15.57 18.41c.19.31.24.43.16 1.26-.13 1.34-.48 2.81-.53 4.32-.05 1.61-.27 4.17-.75 5.33h-2.64c-.06-.75 1.28-4.67 1.59-5.64l1.39-4.07c.3-1.11.04-1.01.78-1.2zm-2.41 17.21c.27 1.7-.98 5.8-.51 6.91.79.3 5.75.13 6.74-.13.95-4.43 1.21-10.43 1.83-15.37.3-2.4.64-5.03.94-7.56.16-1.36 1.16-6.98.55-7.59-.53-.36-9.98-.17-11.24.01-.83 2.44-1.39 3.43-1.95 5.86-.16.71-.46 1.17-.69 1.83L6.2 27.3c-.44 1.26-1.07 2.58-1.36 3.92-.42 1.95-3.86 10.25-3.59 11.47l6.54-.12 2.24-7.02 3.13.08zM95.47 30.32c-.59 1-.74 2.44-1.2 3.59-.6 1.52-1.16 1.47-2.87 1.49-.84.01-.98-.02-1.06-1.13-.18-2.63 2.32-11.17 2.89-13.75.41-1.86.06-2.29 1.41-3.23.95-.66 2.19-.55 3.17.27.13 1.01-.36 2.5-.53 3.42-.37 2.02.54 1.39 4.01 1.28 1.72-.05 2.33.26 2.68-1.73.47-2.63 1.45-6.14-.18-8.37-1.79-2.45-11.91-1.85-13.8.31-.69.79-1.42 2.05-1.94 2.83-1 1.51-2.86 8.89-3.22 10.88-.15.82-.11 1.33-.34 2.25-.96 3.99-3.03 11.98.73 13.03.52-.88 1.04-1.49 2.41-1.33.96.11 2.43-.25 3.08.05 1.54.71.31 1.3 2.33.5 5.28-2.1 4.64 1.75 7.02-4.28.29-.72 2.11-5.44 1.4-6.17-.5-.31-5.17-.13-6.01.09zM75.27 28.5c-.76.3-1.81.32-2.59.12-.1-.93.46-2.17.74-2.89.59-1.52 1.88-7.6 3.1-8.08.1 1.97-.76 9.34-1.25 10.85zm-1.37 6.4c1.44 2.37-.87 3.07-.27 4.77.64 1.8 2.83-.37 3.94 1.07.44.57.05 1.03 1.88.13.95-.47 1.02-.48 1.19-1.68l1.32-11.05c.13-1.12.06-1.99.19-3.05.34-2.69 1.71-12.64 1.57-13.84-2.2-.42-7.44-.08-9.98-.03-1.47.03-2.07.57-2.66 3.25-.37 1.67-.91 2.9-1.46 4.42l-4.47 13.3c-1.64 4.45-2.66 5.08 3.35 4.39 3.3-.38 1.21-1.56 3.32-1.65l2.08-.01zM115.14 17.31c.18.26.08-.07.18.46.13.69-.34 4.06-.43 4.89-.14 1.28.18 4.65-.77 5.48-.52.45-1.89.27-2.44.03-.11-.86.41-1.93.6-2.86l1.89-5.29c.34-.81.42-1.98.98-2.71zm-2.57 22.68c1.69.57 3.78-.12 4.54.03 2.28.46 2.27.03 2.55-2.45.37-3.28.5-2.36-.86-4.47-1.58-2.43-1.89-7.29-1.2-10.29.96-4.16 3.93-6.36 4.35-6.95.61-.88.8-4.72.41-5.05-.6-.21-10.2-.08-11.1.16-.71 1.52-4.3 12.33-5.14 14.95-.54 1.68-2.86 7.64-2.96 9.13.96-.03 1.87-.6 1.71.78-.12.97-.54 1.53-.86 2.07-.34.57-1.82 3.19-1.86 3.66 2.11.92 3.4-.64 4.03-.9 2.55-1.05 1.71-.32 2.64-3.07.33-.98.7-2.01.94-3.01l3.16-.04-.34 5.46zM108.92 9.25c1.3-.39 2.15-2.3 5.38-2.05 3.66.28 6.53 3.53 10.93.51 1.74-1.19 2.32-2.33 2.41-5.29-5.91 3.73-6.28 1.35-10.55.75-1.97-.28-4.08-.44-5.77.57-1.83 1.09-2.24 2.54-2.41 5.51z"/><path d="M134 40.96c-1.21.09-.66.24-2.29 2.49-.61.83-1.61 1.92-2.72 1.91-.25-2.21 1.3-3.16 2.53-3.93.18-.11.2-.12.34-.24.25-.22.13-.09.3-.34-1.88-.04-2.63.42-3.53 1.88-.85 1.37-.9 2.32-1.39 2.7-.91.71-1.05-.07-1.06-.09-.75-1.33 1.24-3.11 1.36-4.5-1.95-1.53-3.36 1.31-4.56 1.83.18-1.49.39-2.5-1.31-1.98-.69.21-.71.46-1.06.68-.84.55-.51-.07-1.08-.3-.92-.36-1.33.98-1.56 1.84-.31 1.17-.95 1.67-.94 3.1.97-.1 1.05-.55 2.3-2.5.51-.8 1.24-2.22 2.62-1.91.73 1.88-1.39 2.4-1.12 4.6.92.03 1.37-1.38 2.33-2.5.91-1.06 1.73-2.36 2.72-1.91.1 1.42-.9 1.61-1.02 2.87-.26 2.6 3.09 1.45 3.34 1.47.63.05.77.32 1.53.13.97-.24 1.67-1.34 2.33-1.52.75.5.7 1.31 1.73 1.45 1.17.16 1.78-.55 2.04-1.53-.88.22-2.09 1.42-2.42-.06-.29-1.33.69-1.84.57-3.63zm-71.09-2.9c.8.38 1.76.37 2.39-.19-.39-.2-1.95-.7-2.44-.6l.05.8zm52.23 3.95c.47.35.86.7 1.33.76 1.35-1.64.24-2.38-.86-1.98-.59.22-.77.58-.92.84l.45.38zM93.4 43.4c-.27-.99-.23-1.56 1.48-2.11 1.16-.37 1.91 1.21 2.35-.17-.95-.78-4.32.01-5.27 1.29.09 1.31.39.81 1.19 1.27.47.27.6.69 1.38.25l-1.14-.53zm.92 2.52c-.81.24-.58.31-1.22-.19-1.29-1.01-1.19-.48-2.63-.13.44.4 1.03.35 1.7.52.58.14 1.18.39 1.63.42 2.15.14 4.74-2.36 1.24-2.58.36.93.47.31.47 1.46-.41.29-.67.35-1.2.5zm-4.7.26c-.31-.64-.53-.61-.48-1.52.1-1.85 1.65-1.99 1.38-3.62-.94-.34-2.07.17-2.64.9.31.26.84.2 1.17.21-.13 1.33-2.06 3.96.57 4.02zm23.41-5.19c-.48.94-2.38 3.52-2.13 4.93.79.02 3.07-3.44 3.17-3.64-.2-.56-.58-.99-1.04-1.29zm25.1 2.34c1.26-.42 4.2-5.74 4.53-8.09-1.23.53-2 2.45-2.72 3.56-.5.76-1.78 3.59-1.81 4.53zm-67.54 2.84c1.21.41 1.45-1.29 2.05-2.05 2.62-3.31 2.95-.74 3.84-1.43.33-.26.57-1.12.16-1.42-.57-.42-2.33.8-3.08.97-.38-.41-.17-.61-.71-.97-.59.37-2.33 4.22-2.27 4.9zm37.55-4.94c2.64-.34.14 4.54-2.05 4.58-1.66.03-.89-1.9-.35-2.66.45-.63 1.45-1.8 2.41-1.92zm-.19-.59c-1.01.2-2.66 1.61-3.1 2.53-1.8 3.7 2.45 4.28 4.9.59 1.15-1.72.08-3.48-1.8-3.12zm-41.12 4.05c.59-1.26 1.13-2.02 1.76-3.23.29-.55.53-1.22.82-1.71 2.49-4.15 3.58-1.69 3.79-3.51-.78-.6-3.4.8-4.21 1.17-.29 2.42-.55 2.38-2.13 5.07-2.36 4.04-2.94 1.97-2.91 4.11 1.91.4 2.28-.59 2.89-1.9zm10.51 1.11c.9 1.74 3.27-.59 3.91-.74.67.59.54 1.07 1.6 1.19 2.36.28 2.95-1.53 4.77-3.88l-.75-1.21c-.66.38-1.2.74-1.57 2-1.21 4.08-3.04 3.07-2.95 1.42.06-1.09.7-2.11.65-3.03-1.37.33-3.44 5.14-4.7 4.16-.88-.74.05-2.21.46-2.63.54-.55 1.34-.7 2.03-1.47-.08-.06-.06-.23-.69-.04-.02 0-.59.26-.61.27-.43.21-.95.53-1.32.77-.71.47-1.35 1.93-.8 3.17zm24.52-1.55c.22.63.2 1.62-.02 2.29-.23.7-.81.89-1.32 1.33-1 .86-1.47 2.43-2.71 1.84-.32-1.36.31-1.84.7-2.76.32-.78.64-1.6 1.05-2.61.73-.11 1.61-.33 2.29-.09zm.33-5.01c.52-.97 1.45-1.7 1.46-3.1-.87.07-.95.05-1.72 1.8-.43.96-.7 1.35-1.11 2.15-1.61 3.15-.63 2.33-2.76 3.67.17.95.53.86.2 1.88-.61 1.87-2.01 3.09-1.2 5.09 1.77.67 3.87-2.15 4.69-3.05.52-.57 1.19-1.9 1.11-2.99-.13-1.77-1.12-1.44-1.92-2.04-.08-1 .76-2.5 1.25-3.4z" style="fill:red"/><path d="M62.84 39.26c-.37.59-.97 1.73-.93 2.82l4.32-.12 1.29-2.66c-.75-.3-3.67-.18-4.69-.05z" style="fill:#fcfdfd"/><path class="fil1" d="M147.69 37.46c-2.33-.15-5.74-.71-6.09 2.99.7-.03 5.08-1.77 5.79-2.55.4-.43.17-.19.3-.44z"/><path d="M54.65 44.62c.26.25-.1.1.55.38.13.06.35.09.54.14 1.91.45 3.08-.18 4.08-.14.49.08.14-.13.29.35.24-.39.22.48.2-.49-1.28-.54-4.19-.46-5.66-.24z" style="fill:#414f51"/></g></g></svg>