<svg xmlns="http://www.w3.org/2000/svg" xml:space="preserve" width="236.477" height="211.77" style="shape-rendering:geometricPrecision;text-rendering:geometricPrecision;image-rendering:optimizeQuality;fill-rule:evenodd;clip-rule:evenodd" viewBox="0 0 99.14 88.78"><defs><style>.fil1{fill:#000}.fil7{fill:#6181be}.fil2{fill:#622d56}.fil3{fill:#6284c2}.fil10{fill:#ea9c35}.fil6{fill:#f1a234}.fil8{fill:#f5ca27}.fil4{fill:#facd27}.fil0{fill:#fc0}</style></defs><g id="Camada_x0020_1"><g id="_2015282647184"><path class="fil0" d="M46.39 13c.69.51.54 2.25.46 3.08-.24 2.26-.52 2.03-.84 2.81 1.14-.11.35-.33 1.19-.57.98.94.66 2.57-.4 3.1-.33.29-.8.4-1.32.29-.3-.06-.17 0-.32-.17l-.55-.1c-.53.47-.9 1.11-1.08 1.78-.28 1.08-.54 1.31-.84 2.09.87 2.25 3.58 5.33 4.86 6.52 3.96 3.69 3.43 2.21 5.26 1.7 1.35-.38 2.69.64 2.69-1.04.01-2.16-.26-4.02-.8-6.1-.54-2.05-1.23-3.84-2.09-5.64l-2.69-5.05c-.53-1.37.22-2.12.87-2.69.63-.56 1.34-1.07 2.25-1.56-.12-.68-1.12-2.71-1.63-3.11-.5-.4-2.57-1.03-3.39-1.21-3.12-.67-4.74 1.5-4.49 4.43 2.89 2.22 1.34.82 2.86 1.45zm-17.2 63.94c.16-.59.24-1.41-.19-1.84-.28.32-.28.45-.25.97.04.64.02.66.44.87zm17.72-1.55c.13-.18.27-.02.17-1.2-.05-.58-.02-.62-.58-.67-.14 1.69-.08 1.71.41 1.87zm19.39-1.67h.55c.07-.41.2.01.1-1.11-.05-.57.01-.5-.26-.82-.59.27-.51 1.27-.38 1.92zm12.42-.51c.67-.19.55-.16.52-1.01-.01-.51-.02-1.03-.13-1.52-.63.12-.51.17-.53.94-.01.28-.03.61-.03.88 0 .59.01.51.17.72zm-37.65-.94c-.03.73-.15 1.81.1 2.35.86-.03.54-.36.76-1.25.12-.5.35-.99.61-1.41l-1.47.31zm9.43 4.8-.05-1.42c-.76-.22-2.01-.12-2.8.01.32.32 2.26 1.31 2.85 1.41zm-36.89-6.75.55.03c4.21.06 3.92 2.13 4.51 2.86 1.6-.28 2.76-1.17 4.76-.74.81.17 1.53.71 2.12.46.85-.35 1.01-.59 2.13-.89 1.52-.4 3.56-.28 4.73.46 1.47.93 1.61 2.09 1.47 4.42.63-.38 1.08-.19 1.91-.14l-.03-8.63c-2.39-1.26-1.71-6.11-1.79-9.14-.02-.71-.37-9.93.08-10.62l5.36-.46v5.97c.49-.13 1.12-.57 1.49-.92l.01-5.14 5.46-.54.11 7.08c.52.24 1.35.18 2.06.16l-.05-7.38c.68-.24 3.62-.22 4.73-.45.24-.05.18-.05.35-.11.82-.3.48-7.32.23-8.17-.55-.01-2.15-.29-2.69-.54-1-.46-1.07-.83-1.09-2.12a31.282 31.282 0 0 1-8.48-7.95c-1.4-1.92-2.77-4.49-3.42-6.89-.16-.58-.09-1.13-.26-1.75-.28-.98-1.28-2.37.06-2.9.34-.25.26-.1.63-.5.24-.26.32-.4.51-.64 2.35-2.91 2.43-1.62 2.39-4.3-.76-6.35-1.56-5.5-2.3-7.93 1.15.38 1.44 1.54 2.04 1.85.47-.34.66-.76 1.03-1.23 1.75-2.21 2.99-2.33 3.54-2.92-1.14-.72-3.59-.33-5.15-.33-4.25.01-12.8-.25-16.18.21-6.1.83-10.51 5.02-12.45 9.49-1.51 3.5-1.27 5.69-1.26 9.87l.25 32.49c.18 2.81.94 5.7 1.25 8.51.31 2.89.96 5.72 1.36 8.66l.05.79zM49.19.23c.39.81-1.71.39-2.7 1.82 2.29.07 3.62-.38 5.54.79.94.58 2.63 2.16 2.58 3.77-.78-.11-.84-.88-1.78-1.2.96 1.64 1.49 3.01 1.64 5.21l.53-.08c3.13-1.77 11.82-2.29 15.76-.5 1.03.47 3.13 1.67 3.33 2.73l-4.76-1.19c-.52-.08-.53.03-.66.12 2.08.86 3.93 2.1 5.33 3.41.74.7 3.5 3.59 3.57 5.03-.9-.41-2.19-1.29-3.6-1.86-3.83-1.54-7.38-2.11-11.46-1.32-.85.17-1.44-.05-1.96.6.63.44 1.06.67 1.55 1.14 1.24 1.18 2.6 3.42 2.66 5.24-.64-.22-3.48-4.21-5.63-4.39.83 1.35 1.75 6.15 1.09 7.43-.39-.16-.55-1.44-.92-2.47-.19-.54-.52-1.94-1-2.14-.25 1.44.38 5.48-.94 9.8-.14.47-.26.83-.45 1.28-.16.38-.25.92-.37 1.2-.19 1.41-.51 1.5-1.07 2.41.51.69.44-.07.66.81.08.31.08.78.11 1.18.05.79.16 1.66.24 2.46.25 2.59.63 7.59 1.01 9.92.13.8.21 1.55.35 2.37.22 1.28.23 1.52.86 1.79l-.09-9.27c2.09-.33 4.31-.37 6.51-.53 6.05-.44 5.41 3.15 5.3 8.47-.02 1.1-.42 1.92-.93 2.5-.85.96-1.77 1.02-2.29 1.24l.38 1.7c-.91.72-2.09.57-3.37.56l.02 6.57c-1.09.3-4.27.44-5.51.43l-.03-9.74c-4.05-2.62-1.78 2.97-1.87 3.74-.2 1.6-2.76.7-2.66 2.15l3.24-.11-.01 4.13-.93.09c-.27.58.07.1-.47.33-.03.01-.31.05-.42.08l-.13 1.85 4.89-.52.16.58c.53-.46 1.63-.97 2.34-1.08l.16.97c1.38-.61 1.59-1 3.61-1.22 2.1-.23 2.65.53 4.03.96-.01-.71.01-1.49-.02-2.19-.03-.66-.26-1.18-.2-1.89l1.78-15.28c.14-.95.41-4.35.67-4.94.41-.21 7.06-.78 7.82-.76.4 1.53 3.29 20.16 3.2 20.72-.67.18-4.81.5-5.43.39-.36-1.1.01-2.55-.43-3.54-.47-.21-1.34-.07-1.74.12-.3.6-.35 1.73-.4 2.53l-.02 3.65c1.28-.31.93-.73 3.73-.87 2.35-.12 2.61.49 3.59 1.08.86-.46.61-.96 2.73-1.61 1.84-3.67 1.47-7.33 1.45-11.92-.01-4.44-.06-8.89-.09-13.33-.05-8.75-.01-17.64-.25-26.38C86.82 7.99 81.16 2 75.13.51 71.64-.35 66.11.06 62.26.1L49.22.2z"/><path class="fil1" d="M46.55 80.32c.83.01.88 1.34.5 1.98h-.52l.03-1.97zm-33.71-6.18.57.01.07 8.09c.01 1.29.22 2.21-.39 2.38-.33-.61-.37-9.27-.24-10.47zm-.76-.53.07 11.84c2.16.33 2.09-1.28 2.09-3.07 0-1.36.26-7.98-.38-8.67-.35-.39-1.43-.39-1.79-.1zm54.21.12c-.12-.66-.2-1.65.38-1.92.27.31.21.24.26.82.11 1.12-.02.7-.1 1.11h-.55zm-.68.83 2.04.06c.11-1.25.25-3.48-.98-3.57-1.4-.1-1.14 2.36-1.05 3.51zm-24.46 4.11c.6-.42 3.12.05 4.16.99-.82.49-3.12.11-3.3.69l-.09.34c-.14 1.02.19.9-.61 1.01-.32-.45-.19-2.4-.16-3.03zm37.99.88c-1.07-.08-.59-2.89 0-3.12.19.29.29 2.63 0 3.12zm8.14-2.89c.57.14.33.11.75.42l-.04 1.55-.66.1-.05-2.07zm-20.75 3.86c-.26-.53-.17-1.38-.17-2.01-.02-2.19-.38-1.51 3.44-2.07l.72.06c-.63.32-2.45.41-3.28.59l-.13 3.43h-.58zm17.7-5.38c.71.18 1.5.66 2.04.96-.45.28-1.39.27-2.01.27l-.03-1.23zm-13.56 2.39c.1 1.98.31 3.53-.91 4.49-1.18.94-2.34 1.2-4.23 1.07-3.98-.27-3.35-3.7-3.42-7.31-.03-1.67-.1-3.47.76-4.66 1.83-2.51 6.55-2.34 7.58-.41.3.57.26 4.1.18 5-1.54.32-3.35.09-4.95.52-.07.98-.3 4.64.57 5.08 2.37.37 1.18-2.35 1.71-3.67.67-.29 1.89-.24 2.72-.12zm-20.17-.45c-.59-.09-2.53-1.09-2.85-1.41.79-.13 2.04-.23 2.8-.01l.05 1.42zm-3.59-1.68c-.49-.16-.55-.18-.41-1.87.55.05.53.09.58.67.1 1.18-.04 1.02-.17 1.2zm29.36-1.28c.09-.02.53.03.64.04-.12.19-.01.33-.55.46-.75.19-.43-.06-.52-.12.17-.23-.23-.25.42-.38zm2.45-.9c-.15-.22-.17-.13-.17-.72 0-.27.02-.6.03-.88.02-.76-.1-.82.53-.94.11.49.11 1.02.13 1.52.02.85.15.82-.52 1.01zm-33.09 7.4c.02 1.12-.06 2.6 1.28 2.5 1.09-.07 1.25-1.65.9-2.67-.4-1.16-3.32-1.75-4.48-2.8-.91-.83-1.31-4.31.3-5.59 1.31-1.05 4.1-1.35 5.85-.57l.03 2.14.98-.07-.08 1.16-2.67.22c0-1.08.22-1.66-.68-2.17-1.21-.08-1.75 1.07-1.34 2.35.26.83 1.2 1.24 2.09 1.64 3.57 1.57 2.4.81 2.74 4.82.15 1.7.17 1.91-1.1 2.61-1.13.62-1.68.63-3.11.63-2.98.01-3.86-.86-3.57-4.02l2.86-.19zm5.54-9.45c-.01-1.91-.21-2.14.61-2.23.8-.08 2.13-.15 2.94-.13l-.01 1.97.64.26.06 1.2-.6.35c-.12 1.91-.04 4.12-.02 6.05.04 4.18.14 2.44.56 3.91.04.13.08.54.08.68l-.12.66c-.93.2-2.8.32-3.44-.3-1.24-1.2-.18-9.1-.78-10.82-.59-.23-.16.15-.74-.14l.02-1.18.82-.28zm-8.62.8c-.25.42-.48.91-.61 1.41-.22.88.11 1.21-.76 1.25-.26-.54-.13-1.62-.1-2.35l1.47-.31zm45.26-.15c-.45-.17-.58-.28-.62-.91-.05-.73-.01-.93.59-1.14l.04 2.05zM36.6 85.51c.15-1.62.04-9.58.04-11.88 0-4.5-.58-4.68 1.09-4.67 2.04.01 3.59-.39 5.52-.55l-.04 2.78c-.9.13-2.24.04-2.91.43l.02 3.88 1.48-.05c.09 1.11.44 1.65.51 2.27l-1.95.38.06 4.31c.47.07.44.02.85 0 1.23-.06.46.18 1.12 1.46.26.5.55.63.8 1.09-1.9.03-4.6.73-6.59.53zm22.98-12.67c.04-.03.08-.07.1-.09l.31-.39c.16-.26.28-.78.71-1.42.34-.51.85-1.12 1.61-.99.09 1.09-.8 1.12-.92 4.14-.74.41-1.16.48-1.46 1.38-.3.94-.17 4.15-.16 5.32l-.12 2.57c-.46.27-2.72.48-3.41.43l-.03-13.26 3.4-.39-.02 2.69zm18.33.37c-.73.08-1.5.15-2.2.28-1 .2-1.18.31-1.16-.86.04-2.93 1.9-4.36 4.75-4.51 1.85-.1 2.42.13 3.53 1.07-.04 1.23-.57 2.34-.08 3.87.51 1.62.87.94.81 3.35l-.82.23c-.46 1.96.56 3.19.84 4.58-.72.34-2.46.51-3.43.5l-.21-6.84c-.79.14-1.82 1.38-1.93 2.48-.31 3.12.42 2.94 1.57 2.77-.32 2.28-3.07 2.41-4.08 1.76-1-.64-1.23-4.01-.64-5.25.48-1 2.91-1.92 4.01-2.57 1.01-.6 1.13-.72 1.04-2.3-.06-1.04-.21-1.86-1.32-1.81-.83.74-.71 1.92-.67 3.27zm8.56 3.65c.02 1.16-.06 3.2 1.59 2.53.97-.39.79-2.52.16-3.08-1.35-1.19-4.49-1.46-4.82-3.73-.45-3.12.53-4.7 3.37-5.08 3.15-.42 5.05.24 4.82 3.52-.71.15-2.38.39-3.1.3-.01-.66.11-1.51-.3-1.88-1.25-1.14-2.96 1.68-.67 3.12 2.16 1.36 4.36 1.03 4.46 4.21.09 3.04-1.27 4.35-4.22 4.44-2.06.06-3.81-.02-4.21-2.2-.38-2.08.05-2.13 2.92-2.15zM71.36 66.17c.04-.02.08-.05.11-.06.03-.01.08-.04.11-.05.04-.01.08-.03.12-.05.04-.01.08-.02.12-.04L75 65.7c.03.81.04 1.66.05 2.47.02 2.16-1.66 1.42-1.15 6.12.51 0 .81-.22 1.08.06.32.33.08.82-.07 1.03-1.19 1.58-1.14 1.89-1.04 4.55.04 1.04.39 1.22.62 2.14-.15.08-.04.05-.34.13l-2.58.16c-.16-.47-.3-14.79-.2-16.21zm-.96-.75c-.06.71.17 1.23.2 1.89.03.7.01 1.48.02 2.19-1.38-.43-1.93-1.19-4.03-.96-2.03.22-2.23.61-3.61 1.22l-.16-.97c-.71.11-1.81.62-2.34 1.08l-.16-.58-4.89.52.13-1.85c-.75-.15-4.18.32-5.17.45l.01 2.1c-1.53.15-2.29-.37-3.45-.26l-2.99.61-.06-2.64c-.66-.74-2.87-.18-3.91-.09-1.14.1-3.06.1-4.02.25-.43 1.8.09 6.25-.03 8.41-.18.82-.14 8.81.05 9.46.48.21 1.48 0 2.01-.05l6.18-.56c1.15-.3 4.78.87 6.77-1.63.72.28.78.76 1.97.8 1.03.03 7.13-.38 7.47-.72.46-.47.03-5.35.2-7.12.03-.29.04-.72.08-1.04.07-.57.03-.54.43-.8.68 1.15-.75 6.16 1.96 8.01 2.36 1.61 5.86.71 7.49-.75l.29.9c1.22.03 2.86-.32 4.3-.35 1.33-.03 3.15.25 3.82-.72 1.03.41 4.55.03 5.1-.23.67-.32.14-.46 1.25-.19 2.15.51 4.46.13 5.93-.93 1.25-.91 2-3.65 1.28-5.55-.81-2.13-2.2-2.08-4.07-3.07.51-.44 2.88-.32 3.71-.35.68-3.35-.75-5.07-3.7-5.23-1.06-.06-1.62.27-2.57.26-2.12.66-1.87 1.15-2.73 1.61-.98-.59-1.23-1.21-3.59-1.08-2.8.15-2.45.56-3.73.87l.02-3.65c-.88.09-.02.28-1.14.43-.48.06-.87.06-1.4.15-1.05.18-1.89.08-2.93.18z"/><path class="fil2" d="M5.85 64.27c.05-1.12.66-7.55.93-8.09.22.42.94 7.46.82 7.94l-1.75.15zm85.64-21.33c2.52-.23 2.58-.17 3.92-1.49.61-.6 2.54-2.14 2.8-2.69l-4.59.47c-.45.92-1.94 2.92-2.13 3.71zm3.6 8.45c-.1-.5-.27-3.42-.07-3.76.21-.36 2.86-.34 3.47-.5.36-.79.13-3.13.07-4.22l-9.14.75.2 21.07c1.26.1 3.29-.35 4.7-.42 1.67-.08 3.19-.24 4.82-.41l-.09-4.19-4.01.29.02-4.46 3.36-.45c.06-.95.18-3.12-.09-3.89-1.09-.12-2.15.13-3.26.17zM76.1 58.45c-.01-1.37.51-7.24.85-8.27.22.44 1 7.2.95 7.97-.47.26-1.21.28-1.8.3zm-5.71 6.98c1.04-.1 1.88 0 2.93-.18.53-.09.92-.09 1.4-.15 1.12-.15.27-.34 1.14-.43.05-.8.1-1.92.4-2.53.4-.19 1.27-.32 1.74-.12.44.99.07 2.44.43 3.54.63.11 4.76-.21 5.43-.39.1-.57-2.8-19.19-3.2-20.72-.76-.02-7.41.55-7.82.76-.26.6-.53 4-.67 4.94l-1.78 15.28zm-6.16-5.56-.05-1.6c1.58 0 3.18-.57 2.92 1.43-.76.33-1.92.25-2.86.17zm-23.48-1.65.15.22c.33 1.05-.15 1.09-.15 1.09-.4-.4-.42-.92 0-1.31zm5.67 1.31.02-1.95 2.01-.56.04 1.59c-.47.25-1.4.78-2.07.93zm-5.44.66c.04 1.06.04 2.2.05 3.27.01 1.29.2 2.35-1.19 2.31-.61-1.02-.35-7.64-.36-9.25l1.43.01c.2 1.33-.5 1.05-.81 1.99-.36 1.08.38 1.24.88 1.68zm5.46-3.18v-1.13c.97-.05 2.04-.36 2.15.55-.41.48-1.44.54-2.15.58zm-5.5-3.25-.03 2.17-.73.03-.14-.01c-.85 0-.81-.49-.51-1.2.2-.47.79-.89 1.42-1zm23.24 1.02-.05-5.44c1.33-.08 1.81.64 1.81 1.92v1.58c0 1.24-.47 2.02-1.76 1.94zM54.81 38c.22-.63-.12-.23.41-.61.59.2.14-.01.31.35l1.23 9.95c.1.92.01 1.85.19 2.76.19.9.27 1.43.37 2.37.44 4.14 1.16 2.16 1.49 4.06-.97.04-1.64-.51-2.4-.54-1.29 2.06-.09 3.03-.16 5.12-.59.32-1.3.69-2.22.72l.01-2.64c.9.04.51.16 1.18.32-.26-.38-.61-.49-1.12-.69-.34-.37-.29-.72-.24-1.32.05-.58.08-.68.03-1.29-.39-4.8.92-13.91.49-18.06-.37-.14-.23.07-.23-.39l.67-.12zm-2.84-.38c.48.24 1.29.04 1.9.11l-.07.7c.25.85.59 7.87-.23 8.17-.17.06-.11.06-.35.11-1.11.22-4.05.21-4.73.45l.05 7.38c-.71.02-1.54.08-2.06-.16l-.11-7.08-5.46.54-.01 5.14c-.37.34-1 .78-1.49.92v-5.97l-5.36.46c-.45.68-.1 9.91-.08 10.62.08 3.03-.59 7.89 1.79 9.14l.03 8.63.13.01c.12-2.16-.4-6.61.03-8.41.96-.16 2.88-.15 4.02-.25 1.03-.09 3.25-.66 3.91.09 1.09-.5 1.92-1.65 2.4-2.95.44-1.18.11-3.68.17-5.13.5-.2 1.52-.94 2.07-.89l.09 8.84c1.67.21 5.8-.43 7.81-.54l.93-.09.01-4.13-3.24.11c-.1-1.45 2.47-.54 2.66-2.15.09-.76-2.17-6.36 1.87-3.74l.03 9.74c1.24.01 4.42-.14 5.51-.43l-.02-6.57c1.28.02 2.46.16 3.37-.56l-.38-1.7c.52-.22 1.44-.28 2.29-1.24.51-.58.9-1.39.93-2.5.11-5.32.75-8.91-5.3-8.47-2.2.16-4.42.19-6.51.53l.09 9.27c-.63-.27-.63-.5-.86-1.79-.14-.82-.22-1.58-.35-2.37-.38-2.33-.75-7.34-1.01-9.92-.08-.8-.18-1.67-.24-2.46-.03-.4-.03-.86-.11-1.18-.22-.89-.15-.12-.66-.81.56-.9.88-1 1.07-2.41-.48-.26-.08-.24-.81-.48-.42.23-1.88-.45-2.94.89-.27.34-.55.87-.4 1.54.16.69.89.79 1.05 1.06l-1.46-.05zM32.08 61.2c-.52-.07-4.34.27-5.35.31-.47 1.71.36 3.51-.5 5.33l-1.21.06c-.41-.94-.52-12.61-.28-13.74.18-.86 1.12-1.46 1.64-.59.33.54.18 4.53.23 5.53.88.16 4.57-.22 5.38-.53.38-1.94-.03-5.99-1-7.16-2.31-2.8-9.37-2.45-11.24 1.77-.91 2.04-.6 5.39-.57 7.83.06 5.56-.65 10.89 5.95 10.66 2.55-.09 4.64-1.18 5.7-2.51 1.41-1.77 1.4-4.36 1.25-6.95zM8.06 70.82c1.81-.15 3.93.15 5.55-.5l-.05-.79c-.4-2.94-1.05-5.77-1.36-8.66-.31-2.81-1.07-5.7-1.25-8.51-.32-.64-.3-1.25-.49-2.04-.86 0-7.54.61-7.9.79L0 72.23c6.51-.27 5.7.09 5.79-2.33.02-.67.08-1.2.16-1.83 2.47-.53 2.09.05 2.11 2.75z"/><path class="fil3" d="M54.56 11.31c-.51.71-.15 1.64-.78 2.25-.69-.55-.32-.64-.72-1.39-.59.13-1.71 1.09-2.16 1.53-1.68 1.63.3 2.69 2.43 7.48.94 2.13 2.37 6.4 2.5 8.87.05.93-.18 3.04.17 3.64.92-.44 1.63-4.43 1.68-5.78.05-1.34-.11-2.61-.08-3.89.01-.66.18-1.05.25-1.71.11-1.08-.16-.92-.48-1.57 1.36.53 1.95 2.85 2.43 3.42.1-2.28-1-4.17-1.21-5.15l.42-.05c2.45.7 4.17 2.65 4.63 2.89-.23-.94-1.13-2.05-1.66-2.59-1.1-1.14-1.92-1.41-2.44-1.97l1.97-.63 5.01-.48c.56-.02 2.14.22 2.32.1-1.53-.28-.11-.52-3.04-.61-1.14-.04-2.72.04-3.77-.07 7.13-.08 4.08-.71 11.37 1.95l3.24 1.38c-.46-1.1-3.36-3.95-4.43-4.77-3.03-2.29-4.57-2.3-6.28-3.2.71.05.9.2 1.52.38 1.02.29.83-.07 1.77-.06 1.05.02 2.49.45 3.46.55-.34-.73-2.32-1.72-3.52-1.93-1.98-.35-3.12-.47-5.22-.43-4.46.08-5.7.29-9.4 1.81z"/><path class="fil1" d="M21.4 84.57c-.15-.36-.57-2.57.47-3.07l-.05 2.18c-.05 1.14-.16.82-.42.9zm7.74-.59c-.21-.21-.13.18-.28-.53l-.05-1.63c1.04.4 1.16 1.45.32 2.16zm-1.27-2.48c-.82.06-.68.11-1.07-.13.1-.47-.2-.58.49-.34.3.11.43.23.58.46zm-6.52-3.14c-.25-.67-.33-1.87.05-2.56.26.14.37-.11.35 1.28-.02 1.52-.2 1.16-.4 1.28zm7.84-1.41c-.42-.21-.41-.23-.44-.87-.03-.51-.04-.65.25-.97.44.43.35 1.25.19 1.84zm-1.17 5.23c.01.61-.08 1.55.17 2.02.24.44.86.74 1.55.37.9-.49.72-2.44.12-3.04-.89-.9-4.39-1.42-4.87-3.63-1.35-6.22 5.67-5.49 6.97-4.78 1.03.56 1.27 1.59 1.03 3.12l-2.77.33c-.22-.61-.04-1.5-.31-1.84-.38-.49-2.31-.77-1.9 1.91.1.64.46.8 1.01 1.13 1.98 1.2 4.38 1.26 4.45 4.04.08 3.08-1 4.28-3.98 4.68-2.87.38-5.01-.95-4.38-3.95.63-.27 2.19-.42 2.9-.35zm-10.83-3.59c0-2.61.34-3.75 2.19-4.68 1.25-.63 4.16-1.15 5.3-.13-.21 1-.49.81-.51 2.14-.03 1.63-.14 2.87 1.16 3.97.57.48.99.58.71 1.69l-1.64.2-.14.74c-.01 2.39.33 2.68 1.27 4.03l-2.87.12-.07-6.63c-.68-.09-1.93 1.35-2.07 2.34-.35 2.43.08 3.06 1.62 2.97-.19.95-.89 1.71-1.92 1.84-3.23.42-3.1-1.68-2.97-4.38.1-2.06 1.66-2.22 3.94-3.51 1.15-.65 1.4-.72 1.4-2.37 0-1.07-.49-2.46-1.69-1.65-.72.48-.42 1.94-.52 3.07l-3.19.23zM8.4 71.68c.72-.26 3.4-.39 4.4-.43 1.53-.07 3.14-.19 4.2.63 1.81 1.39.12 2.92-.04 3.2-.38.68-.68 3.45-.39 4.41l1.28-.15c.09 1.87-1.15.83-1.28 3.32-.08 1.6.15 2.89.15 4.31-1.05.51-6.99 1.23-8.3 1.07l-.03-16.37zm-.34-.84c-.59.08-.47.03-.51.78-.13 2.92.09 14.54.16 17.15.75.17 6.88-.43 7.81-.64 2.3-.52.85-.66 3.27-.11a3.59 3.59 0 0 0 3.17-.81c.41.52-.22.28.56.38l2.41-.22c1.25-.18 1.77-.29 3.08-.18 2.3.18 4.02-.32 5.19-1.58 1.25-1.33 1.26-4.16.74-5.47-.79-1.97-3.38-2.06-3.9-2.78l3.82-.43c.14-2.33 0-3.49-1.47-4.42-1.17-.74-3.21-.86-4.73-.46-1.12.3-1.29.54-2.13.89-.59.25-1.32-.29-2.12-.46-1.99-.42-3.15.47-4.76.74-.6-.73-.31-2.8-4.51-2.86l-.55-.03c-1.62.65-3.74.36-5.55.5z"/><path class="fil0" d="M12.08 73.61c.35-.29 1.43-.28 1.79.1.64.69.38 7.31.38 8.67 0 1.79.07 3.4-2.09 3.07l-.07-11.84zm24.51 11.91c1.99.19 4.69-.5 6.59-.53-.25-.46-.54-.59-.8-1.09-.66-1.29.1-1.52-1.12-1.46-.42.02-.38.07-.85 0l-.06-4.31 1.95-.38c-.07-.62-.42-1.16-.51-2.27l-1.48.05-.02-3.88c.67-.39 2.01-.3 2.91-.43l.04-2.78c-1.92.15-3.48.55-5.52.55-1.67-.01-1.09.17-1.09 4.67 0 2.31.12 10.26-.04 11.88zm9.03-4.9-2.86.19c-.29 3.16.59 4.03 3.57 4.02 1.43-.01 1.98-.02 3.11-.63 1.27-.7 1.25-.9 1.1-2.61-.35-4.01.83-3.25-2.74-4.82-.9-.4-1.83-.81-2.09-1.64-.41-1.28.13-2.43 1.34-2.35.9.51.68 1.08.68 2.17l2.67-.22.08-1.16-.98.07-.03-2.14c-1.75-.78-4.54-.48-5.85.57-1.61 1.28-1.21 4.76-.3 5.59 1.16 1.05 4.08 1.64 4.48 2.8.35 1.02.19 2.59-.9 2.67-1.33.09-1.26-1.38-1.28-2.5zm5.54-9.45-.82.28-.02 1.18c.59.29.15-.09.74.14.61 1.72-.46 9.63.78 10.82.64.62 2.51.5 3.44.3l.12-.66c0-.14-.04-.54-.08-.68-.42-1.47-.53.27-.56-3.91-.02-1.93-.09-4.14.02-6.05l.6-.35-.06-1.2-.64-.26.01-1.97c-.81-.02-2.13.04-2.94.13-.82.09-.61.32-.61 2.23zm8.41 1.67.02-2.69-3.4.39.03 13.26c.69.05 2.95-.15 3.41-.43l.12-2.57c-.01-1.17-.14-4.38.16-5.32.29-.9.72-.98 1.46-1.38.13-3.02 1.02-3.06.92-4.14-.77-.13-1.27.49-1.61.99-.43.64-.56 1.15-.71 1.42l-.31.39c-.02.03-.06.07-.1.09zm6.04 1.71c-.09-1.15-.34-3.61 1.05-3.51 1.23.09 1.09 2.31.98 3.57l-2.04-.06zm5.06 2.97c-.83-.12-2.05-.17-2.72.12-.53 1.32.66 4.04-1.71 3.67-.87-.44-.64-4.1-.57-5.08 1.6-.43 3.41-.2 4.95-.52.08-.9.13-4.43-.18-5-1.03-1.94-5.75-2.1-7.58.41-.86 1.18-.8 2.99-.76 4.66.07 3.61-.56 7.03 3.42 7.31 1.89.13 3.05-.14 4.23-1.07 1.22-.97 1.01-2.52.91-4.49zm.68-11.35c-.09 1.43.04 15.74.2 16.21l2.58-.16c.3-.09.19-.05.34-.13-.23-.93-.58-1.1-.62-2.14-.1-2.66-.15-2.97 1.04-4.55.16-.21.4-.69.07-1.03-.28-.28-.58-.06-1.08-.06-.51-4.7 1.17-3.96 1.15-6.12-.01-.81-.01-1.66-.05-2.47l-3.18.27c-.04.01-.08.02-.12.04-.04.01-.08.03-.12.05-.04.01-.09.04-.11.05-.03.01-.08.04-.11.06zm6.56 7.04c-.05-1.35-.16-2.53.67-3.27 1.11-.04 1.27.77 1.32 1.81.09 1.57-.03 1.7-1.04 2.3-1.11.65-3.53 1.57-4.01 2.57-.59 1.24-.36 4.62.64 5.25 1.01.65 3.75.52 4.08-1.76-1.15.17-1.88.35-1.57-2.77.11-1.1 1.14-2.33 1.93-2.48l.21 6.84c.97.01 2.71-.15 3.43-.5-.28-1.39-1.3-2.62-.84-4.58l.82-.23c.06-2.41-.29-1.73-.81-3.35-.49-1.53.04-2.64.08-3.87-1.11-.93-1.68-1.16-3.53-1.07-2.85.15-4.71 1.59-4.75 4.51-.02 1.17.16 1.06 1.16.86.7-.14 1.47-.21 2.2-.28zm-2.06 1.27c.09.06-.23.31.52.12.53-.14.43-.27.55-.46-.11-.01-.55-.06-.64-.04-.66.13-.25.15-.42.38zm10.61 2.38c-2.86.02-3.3.07-2.92 2.15.4 2.18 2.15 2.26 4.21 2.2 2.95-.09 4.31-1.39 4.22-4.44-.09-3.18-2.29-2.85-4.46-4.21-2.29-1.44-.58-4.26.67-3.12.41.37.29 1.22.3 1.88.71.08 2.39-.15 3.1-.3.22-3.27-1.68-3.94-4.82-3.52-2.84.38-3.82 1.95-3.37 5.08.33 2.27 3.46 2.54 4.82 3.73.64.56.81 2.69-.16 3.08-1.65.66-1.57-1.38-1.59-2.53zm-58.45 5.31c-.71-.07-2.27.08-2.9.35-.62 3 1.51 4.33 4.38 3.95 2.98-.39 4.06-1.59 3.98-4.68-.07-2.78-2.47-2.83-4.45-4.04-.55-.33-.91-.49-1.01-1.13-.41-2.69 1.51-2.41 1.9-1.91.27.34.09 1.24.31 1.84l2.77-.33c.24-1.53 0-2.56-1.03-3.12-1.3-.71-8.32-1.44-6.97 4.78.48 2.21 3.97 2.73 4.87 3.63.59.6.78 2.54-.12 3.04-.68.37-1.31.07-1.55-.37-.25-.47-.16-1.41-.17-2.02zm-10.83-3.59 3.19-.23c.1-1.14-.2-2.59.52-3.07 1.2-.8 1.69.58 1.69 1.65.01 1.65-.24 1.72-1.4 2.37-2.29 1.29-3.84 1.44-3.94 3.51-.13 2.7-.27 4.8 2.97 4.38 1.03-.13 1.73-.89 1.92-1.84-1.54.08-1.96-.54-1.62-2.97.14-.99 1.39-2.43 2.07-2.34l.07 6.63 2.87-.12c-.94-1.34-1.28-1.64-1.27-4.03l.14-.74 1.64-.2c.27-1.11-.15-1.21-.71-1.69-1.31-1.1-1.19-2.34-1.16-3.97.03-1.33.3-1.15.51-2.14-1.14-1.03-4.06-.5-5.3.13-1.84.93-2.18 2.07-2.19 4.68zm-8.79-6.91.03 16.37c1.31.16 7.25-.56 8.3-1.07.01-1.42-.23-2.71-.15-4.31.13-2.49 1.36-1.45 1.28-3.32l-1.28.15c-.29-.96.01-3.73.39-4.41.16-.28 1.84-1.82.04-3.2-1.07-.82-2.67-.7-4.2-.63-1 .04-3.68.18-4.4.43z"/><path class="fil2" d="M42.09 17.88c-.25-.23-.09.3-.28-.37-.09-.3-.02-.2.01-.43l.29.05.02-1.65c-.14.09-.19.07-.18.1-.05-.55.31-2.44 1.36-2.78.8.64.72 2.73.52 3.75-.44 2.24-1.37 2.53-1.75 1.34zm-.65-7.01c.04 2.68-.05 1.39-2.39 4.3-.19.24-.27.38-.51.64-.37.4-.29.25-.63.5l.34.39c.93-.06 1.42-.1 2.06.32.66.43.94.51 1.42 1.02 1.67 1.76 1.62.27 2.94-.15-.02-.65.22-1.76.38-2.44.24-1.04.71-1.25 1.05-2.02-.26-.38.05-.13-.46-.39l.75-.03c-1.52-.63.03.77-2.86-1.45-.25-2.93 1.37-5.1 4.49-4.43.82.18 2.88.81 3.39 1.21.51.41 1.51 2.43 1.63 3.11.84-.2.39.07.93-.01l.11-.63c.08-.94-.3-1.08-.53-1.87-.18-.64-.32-1.31-.54-1.95-.66-1.88-1.44-2.17-1.67-3 .63.25.66.61 1.41.62.02-.69-.48-.83-1.1-1.1-.6-.27-.96-.52-1.56-.73-.89-.3-3.33-.26-4.22-.12l-.38-.84c-1.45.08-2.71 2.01-3.38 3.06-.53.83-.52.41-1.03.93.05.52.24.79.32 1.31.08.52.09.91.19 1.41.15.73.78 2.37-.15 2.32zM17.25 24.03c.63-.26 1.59-.08 2.31-.13.25-.63.37-1.63.83-2.15.44.41.53 1.42.86 2.1l2.36.08c-.05.48-1.31 1.21-1.73 1.54l.64 2.33c-1-.23-1.26-.94-2.13-1.22-.75.41-1.09.99-1.94 1.25l.64-2.31-1.47-1c-.46-.35-.22.06-.36-.48zm2.13-3.5c-5.54 1.43-3.46 9.7 2.11 8.33 5.39-1.32 3.47-9.77-2.11-8.33zM20.21 9.22c.23.19.07.02.25.26.09.13.07.1.16.3.06.14.14.42.21.64.43 1.28.21.99 2.81 1.05-.15.39-1.51 1.29-1.9 1.49l.63 2.5-1.98-1.29c-.78.28-1.25.93-2.1 1.24l.6-2.33-1.92-1.54 2.47-.13.76-2.19zm-.77-1.13c-5.78 1.39-3.61 9.66 1.9 8.4 2.06-.47 3.73-2.62 3.19-5.17-.45-2.1-2.65-3.81-5.08-3.23zM17.23 36.36l2.42-.03.69-2.28c.39.16.22.03.43.39.12.22.29 1.19.63 1.8l2.36.04c.02.75-.85.67-1.78 1.66l.7 2.32c-.97-.19-1.3-.88-2.14-1.24-.88.33-1.08 1.05-2.08 1.29l.67-2.35-1.55-1.07c-.58-.5-.1-.06-.35-.52zm2.23-3.41c-5.48 1.72-3.66 9.36 2.21 8.39 1.52-.25 3.62-2.5 2.99-5.35-.45-2.05-2.86-3.77-5.19-3.04z"/><path class="fil4" d="m43.88 68.21.06 2.64 2.99-.61c1.16-.11 1.92.4 3.45.26l-.01-2.1c.99-.13 4.41-.6 5.17-.45.11-.03.39-.07.42-.08.54-.23.2.25.47-.33-2.01.11-6.14.75-7.81.54l-.09-8.84c-.55-.04-1.57.69-2.07.89-.06 1.44.27 3.94-.17 5.13-.48 1.3-1.31 2.45-2.4 2.95z"/><path d="M43.52 21.25c.64.11.47-.18.47.44-.58.03-.31.14-.47-.44zM45.75.63c-.55.59-1.8.71-3.54 2.92-.37.47-.56.9-1.03 1.23-.59-.32-.88-1.47-2.04-1.85.74 2.43 1.54 1.58 2.3 7.93.93.04.3-1.59.15-2.32-.11-.51-.11-.9-.19-1.41-.08-.52-.27-.79-.32-1.31.51-.52.5-.1 1.03-.93.67-1.05 1.94-2.99 3.38-3.06l.38.84c.89-.15 3.33-.19 4.22.12.6.2.96.46 1.56.73.62.28 1.12.42 1.1 1.1-.75-.01-.78-.38-1.41-.62.23.83 1.01 1.12 1.67 3 .22.64.36 1.31.54 1.95.23.8.61.94.53 1.87l-.11.63c-.53.07-.09-.19-.93.01-.9.49-1.61 1-2.25 1.56-.65.58-1.4 1.33-.87 2.69l2.69 5.05c.86 1.81 1.55 3.6 2.09 5.64.55 2.07.81 3.93.8 6.1-.01 1.68-1.34.66-2.69 1.04-1.83.51-1.3 1.99-5.26-1.7-1.28-1.19-3.99-4.27-4.86-6.52.29-.78.55-1.01.84-2.09.18-.67.55-1.31 1.08-1.78l.55.1c.15.17.02.11.32.17.52.11.98 0 1.32-.29 1.06-.54 1.38-2.16.4-3.1-.84.24-.05.46-1.19.57.32-.78.6-.54.84-2.81.09-.84.23-2.58-.46-3.08l-.75.03c.51.26.2.01.46.39-.34.77-.81.98-1.05 2.02-.16.68-.4 1.79-.38 2.44.25.4.16.61.48.78.04-.79.26-.55.43-1.12.42-1.39-.5-2.96.76-3.57.35.73-.09 4.2-.69 4.7l-.05.49.91.02c-.01.33.16.08-.26.45l-1.16 1.11c-.74.44-2.28.5-2.92-.01-.36-.28-.59-.59-.8-1.06l-.2-.55c-.02-.31.1-.23.12-.43.01-.05.04-.07.04-.11-.63-.6-1.8-1.34-2.8-.72.64.32.67-.67 1.15 1.06.2.71.25.46.42.88.16.42.04.65.22.99.4.07.82-.2 1.38.57.39.53.31 1.02.26 1.65l-.36.36c.15.23.26.36.45.5.21.14.06.03.28.15.23.12.01-.06.29.15-.99.61-2.85-2.23-3.21-2.81-.72-1.19-1.63-2.85-1.81-4.36.43-.35.23-.1.66-.31l-.34-.39c-1.34.53-.35 1.92-.06 2.9.18.62.11 1.17.26 1.75.64 2.4 2.01 4.96 3.42 6.89 2.24 3.08 5.14 5.83 8.48 7.95.03 1.29.09 1.66 1.09 2.12.54.24 2.14.52 2.69.54l.07-.7c-.6-.07-1.41.13-1.9-.11-2.06-.45-.66-1.33-1.48-2.14-.8-.8-3.46-2.17-6.02-4.87-1.19-1.25-5.36-6.09-5.5-9.09l2.99 3.43c.82 1.47 1.45 2.81 2.45 4 1.13 1.36 4.76 5.66 6.8 6 .58-.37.97-.84 1.87-.99.81-.14 2.12-.18 2.65.21.73.24.34.22.81.48.13-.28.22-.83.37-1.2.19-.45.31-.81.45-1.28 1.33-4.32.69-8.36.94-9.8.49.2.81 1.6 1 2.14.37 1.03.53 2.31.92 2.47.66-1.29-.26-6.08-1.09-7.43 2.15.18 4.99 4.17 5.63 4.39-.06-1.82-1.42-4.06-2.66-5.24-.49-.47-.92-.7-1.55-1.14.52-.65 1.1-.43 1.96-.6 4.08-.8 7.63-.22 11.46 1.32 1.42.57 2.7 1.45 3.6 1.86-.07-1.44-2.83-4.33-3.57-5.03-1.4-1.31-3.25-2.55-5.33-3.41.13-.1.13-.2.66-.12l4.76 1.19c-.19-1.06-2.3-2.26-3.33-2.73-3.94-1.79-12.63-1.28-15.76.5l-.53.08c-.16-2.2-.69-3.57-1.64-5.21.94.32 1 1.09 1.78 1.2.05-1.61-1.64-3.19-2.58-3.77-1.92-1.18-3.24-.72-5.54-.79.99-1.43 3.09-1.01 2.7-1.82-.66 0-1.32-.05-1.98.03-.59.08-.98.29-1.47.36zm1.2 18.49c.13-.35-.14-.18.36-.22.07 1.01-.05 1.8-.86 2.06l-.96-.03 1.46-1.81zM54.8 38c.46 1.06.31 7.64.31 9.39 0 1.04.09 6.49-.08 7.27-.39 1.74-.42 1.45-.82 1.57-.17-.23-.08-.02-.17-.38-.09-.35-.01.06-.04-.28l.01-.58c.01-.38 0-.77 0-1.15-.02-2.46.22-4.16.29-6.59.03-.97.85-7.98.06-8.74.43 4.15-.88 13.26-.49 18.06.05.61.02.71-.03 1.29-.06.6-.1.96.24 1.32-.22-1.71-.06-1.35.67-2.37.95-1.32.83-6.22.83-7.84l-.07-8.75c-.01-.39-.01-.91-.04-1.29-.1-1.1-.16-.46-.39-1.14.16-.13-.18-.24.45-.05-.17-.36.28-.15-.31-.35-.53.38-.19-.02-.41.61zm-.24-26.7c3.7-1.52 4.93-1.73 9.4-1.81 2.09-.04 3.24.08 5.22.43 1.2.21 3.18 1.2 3.52 1.93-.97-.1-2.41-.54-3.46-.55-.94-.01-.75.35-1.77.06-.62-.18-.81-.33-1.52-.38 1.71.9 3.25.91 6.28 3.2 1.07.81 3.97 3.67 4.43 4.77l-3.24-1.38c-7.3-2.66-4.24-2.03-11.37-1.95 1.05.11 2.63.04 3.77.07 2.93.09 1.51.33 3.04.61-.19.12-1.76-.12-2.32-.1l-5.01.48-1.97.63c.52.56 1.34.83 2.44 1.97.53.54 1.42 1.65 1.66 2.59-.46-.24-2.18-2.19-4.63-2.89l-.42.05c.21.98 1.31 2.87 1.21 5.15-.48-.57-1.07-2.9-2.43-3.42.33.64.6.49.48 1.57-.07.66-.24 1.05-.25 1.71-.02 1.27.14 2.55.08 3.89-.05 1.35-.76 5.33-1.68 5.78-.35-.6-.12-2.71-.17-3.64-.13-2.47-1.56-6.74-2.5-8.87-2.12-4.78-4.11-5.85-2.43-7.48.45-.44 1.57-1.4 2.16-1.53.39.75.03.85.72 1.39.63-.61.27-1.54.78-2.25z" style="fill:#131517"/><path class="fil6" d="M54.07 59.19c.51.2.86.31 1.12.69-.67-.16-.28-.28-1.18-.32L54 62.2c.92-.04 1.63-.41 2.22-.72.08-2.09-1.12-3.06.16-5.12.76.02 1.43.58 2.4.54-.33-1.9-1.05.08-1.49-4.06-.1-.94-.18-1.47-.37-2.37-.19-.91-.09-1.84-.19-2.76l-1.23-9.95c-.63-.19-.29-.08-.45.05.23.68.3.04.39 1.14.03.38.03.9.04 1.29l.07 8.75c0 1.63.12 6.53-.83 7.84-.73 1.01-.89.66-.67 2.37z"/><path class="fil7" d="m51.97 37.63 1.46.05c-.16-.27-.89-.37-1.05-1.06-.15-.67.13-1.2.4-1.54 1.06-1.34 2.52-.66 2.94-.89-.53-.39-1.84-.35-2.65-.21-.91.15-1.3.62-1.87.99-2.04-.34-5.67-4.64-6.8-6-1-1.2-1.63-2.53-2.45-4l-2.99-3.43c.14 3 4.31 7.84 5.5 9.09 2.56 2.7 5.22 4.07 6.02 4.87.81.81-.59 1.69 1.48 2.14z"/><path class="fil6" d="M41.58 23.38c-.67-.61-.98-1.78-1.27-2.58-.18-.34-.05-.58-.22-.99-.17-.42-.22-.17-.42-.88-.48-1.73-.51-.75-1.15-1.06 1.01-.62 2.17.12 2.8.72-.01.04-.04.05-.04.11-.02.2-.14.12-.12.43l.2.55c.2.47.44.78.8 1.06.64.51 2.18.45 2.92.01l1.16-1.11c.42-.37.25-.13.26-.45l-.91-.02.05-.49-.49-.01c-.32-.16-.23-.38-.48-.78-1.32.42-1.27 1.91-2.94.15-.48-.51-.75-.59-1.42-1.02-.63-.41-1.13-.38-2.06-.32-.43.22-.23-.04-.66.31.19 1.51 1.09 3.16 1.81 4.36.35.58 2.22 3.41 3.21 2.81-.28-.21-.07-.03-.29-.15-.22-.12-.06-.01-.28-.15-.2-.13-.3-.26-.45-.5z"/><path class="fil3" d="M17.23 36.36c.25.46-.23.02.35.52l1.55 1.07-.67 2.35c1-.24 1.19-.95 2.08-1.29.84.36 1.17 1.05 2.14 1.24l-.7-2.32c.93-.99 1.8-.91 1.78-1.66l-2.36-.04c-.34-.61-.51-1.58-.63-1.8-.2-.36-.04-.24-.43-.39l-.69 2.28-2.42.03z"/><path class="fil7" d="m19.44 11.41-2.47.13 1.92 1.54-.6 2.33c.85-.31 1.33-.96 2.1-1.24l1.98 1.29-.63-2.5c.39-.2 1.75-1.11 1.9-1.49-2.61-.05-2.39.23-2.81-1.05-.07-.22-.15-.49-.21-.64-.09-.2-.07-.17-.16-.3-.18-.25-.02-.08-.25-.26l-.76 2.19z"/><path class="fil3" d="M17.25 24.03c.14.54-.1.13.36.48l1.47 1-.64 2.31c.85-.26 1.2-.84 1.94-1.25.87.28 1.13.99 2.13 1.22l-.64-2.33c.42-.34 1.69-1.06 1.73-1.54l-2.36-.08c-.33-.68-.42-1.69-.86-2.1-.46.52-.58 1.52-.83 2.15-.72.05-1.68-.13-2.31.13z"/><path class="fil6" d="M54.35 38.51c.79.76-.03 7.77-.06 8.74-.07 2.43-.31 4.14-.29 6.59 0 .38.01.77 0 1.15l-.01.58c.04.34-.05-.08.04.28.09.36 0 .15.17.38.4-.12.43.17.82-1.57.17-.78.08-6.22.08-7.27 0-1.75.15-8.33-.31-9.39l-.67.12c0 .46-.14.25.23.39z"/><path class="fil8" d="M40.97 60.19c-.5-.43-1.24-.6-.88-1.68.31-.93 1-.66.81-1.99l-1.43-.01c.01 1.61-.25 8.23.36 9.25 1.39.05 1.2-1.02 1.19-2.31-.01-1.07 0-2.2-.05-3.27zM76.09 58.45c.59-.02 1.33-.04 1.8-.3.05-.77-.73-7.53-.95-7.97-.34 1.03-.86 6.9-.85 8.27z"/><path class="fil4" d="M64.17 54.78c1.29.09 1.76-.7 1.76-1.94v-1.58c0-1.28-.48-2-1.81-1.92l.05 5.44z"/><path d="M42.14 15.48c-.02-.87-.02-.8.79-.78.01 1.1.14 1.97-.29 2.84-.45-.01-.34.24-.53-.41l-.29-.05c-.03.23-.1.14-.01.43.2.66.04.13.28.37.38 1.19 1.31.9 1.75-1.34.2-1.02.28-3.1-.52-3.75-1.05.34-1.41 2.23-1.36 2.78-.01-.02.03 0 .18-.1z" style="fill:#f9f6f7"/><path class="fil6" d="M64.22 59.87c.94.08 2.1.17 2.86-.17.26-2-1.34-1.43-2.92-1.43l.05 1.6z"/><path class="fil10" d="M46.41 59.53c.67-.15 1.6-.68 2.07-.93l-.04-1.59-2.01.56-.02 1.95z"/><path d="m45.14 18.66.49.01c.6-.5 1.05-3.97.69-4.7-1.26.61-.34 2.18-.76 3.57-.17.57-.39.33-.43 1.12z" style="fill:#f5f3f3"/><path class="fil10" d="M40.93 53.76c-.62.11-1.22.53-1.42 1-.3.71-.34 1.2.51 1.2l.14.01.73-.03.03-2.17z"/><path d="M40.31 20.8c.29.8.6 1.97 1.27 2.58l.36-.36c.05-.64.13-1.12-.26-1.65-.56-.77-.97-.5-1.38-.57z" style="fill:#7b484e"/><path d="m42.14 15.48-.02 1.65c.19.65.07.4.53.41.43-.87.29-1.74.29-2.84-.81-.03-.81-.09-.79.78z" style="fill:#0f0f10"/><path class="fil8" d="M46.43 57.01c.72-.04 1.74-.1 2.15-.58-.11-.91-1.18-.6-2.15-.55v1.13z"/><path class="fil10" d="m46.95 19.13-1.46 1.81.96.03c.81-.26.93-1.05.86-2.06-.5.04-.23-.13-.36.22z"/><path d="M40.74 58.22c-.42.39-.4.91 0 1.31 0 0 .47-.04.15-1.09l-.15-.22z" style="fill:#daac31"/><path d="M43.99 21.69c0-.62.17-.32-.47-.44.16.58-.11.47.47.44z" style="fill:#c98637"/></g></g></svg>