<svg xmlns="http://www.w3.org/2000/svg" xml:space="preserve" width="128" height="64" style="shape-rendering:geometricPrecision;text-rendering:geometricPrecision;image-rendering:optimizeQuality;fill-rule:evenodd;clip-rule:evenodd" viewBox="0 0 107.35 53.68"><defs><style>.fil0{fill:#000}.fil4{fill:#bb631c}.fil1{fill:#ffa413}.fil2{fill:#ff0}.fil3{fill:#fff}</style></defs><g id="Camada_x0020_1"><g id="_2485663432880"><path class="fil0" d="m15.12 31.03-.7.24c.23 1.13.77.59.44 1.76-.3 1.05-2.39 3.58-2.66 4.36-.59 1.74 4.34-.72 6.3.25.58.29.85.67 1 1.43-1.59.91-6.21 1.1-8.64 1.41-.12 1.26-1.18 2.95-2.53 3.44-.05.41-.3.81-.49 1.19-.22.42-.35.76-.57 1.14-.69 1.15-.79 1.5-2.11 1.67l-.36.05-.9.53c-.47.2-.57.27-1.17.36-.31-.39-.44-.88-.79-1.31l.2-.28c.31-.42 1.66-1.58 2.39-2.59l.77-1.15c.22-.35.12-.24.46-.56.42-.24.47-.54.84-1.32l1.18-3.06c.3-.7.55-.51.61-1.37.12-.43 1.54-2.53 2.26-4.19.1-.23.01-.04.16-.31l.13-.19c.06-.59.18-.57.04-1.33-.68-.08-.02.05-.68-.15l-.63-.39c.08-.81.4-1.01 1.3-1.23 2.2-.53 9.23-1.54 10.79-.81.93.44 2.15 2.01-.21 1.91-.41-.02-.19.01-.43-.08-1.46-.07-4.77.22-6 .61zm92.01-22.06.22 1.22c.05 1.82-1.1 3.34-1.56 5.36-.51 2.25.73 2.27-2.42 5.82-.33.38-.43.42-.78.74-6.41 5.89-6.01 3.76-8.42 5.62.64 1.36 1.2 1.87 1.31 2.2.27.79.14 3.56-1.88 4.24-.72.24-2.24.58-2.97.73.5.42 1.49.38 2.19.62 4.05 1.42 4.29 5.52.54 7.72-2.02 1.19-1.98 1.06-4.16 1.89l-9 3.36c-3.9 1.36-2.61.28-5.09 1.04-.73.22-1.35.61-2.44.55-.56-.03-1.71-.18-2.19-.44-.46-.42-.68-.4-1.1-.95-.48-.63-.28-.99-1.27-.94-.99-.26-2.1.66-3.84.53-.99-.07-2.59-.31-3.38-.55-.32-.3-.49-.4-.71-.85l-.36.05.05.31-.6-.24c-.49 5.15-3.95 3.19-6.61 2.4-1.28.8-2.59 2.69-5.9 3.66-1.63.47-2.8.17-2.74.15.02-.01-.09-.02-.13-.04-.47-.4-1.15-.43-1.55-.99-.4-.58-.34-1.54-.29-2.05l-.7.24c-.29-.1.07-.09-.32-.01-.01 0-.33.13-.33.13l-4.34 2.34c-.85.48-1.8.91-3.23.87-1.1-.03-1.91-.21-2.78-.68-.34-.66-.95-.82-1.25-1.87-.34-1.19-.19-1.74-.11-2.64l-.55.02c-.29-.41.17-.17-.57-.07-3.15.45-3.23.61-6.25 1.29-1.93.43-4.55 1.06-6.2-.46-.6-1.28-1.49-.15-1.67-1.74-.15-1.32.66-2.56 2.04-3.19.8-.36.74-.16 1.02-.86.14-.35 1.26-2.65-.16-1.86-.43-.16-.93-.05-1.47.03-2.3.32-2.29-.36-3.37 1.3-.91 1.4-2.22 2.27-2.75 3.04-.79 1.16-.91 2.51-2.34 3.3-1.19.66-3.58 1.39-5.2.97-.55-.51-.92-.6-1.31-1.46-.35-.78-.18-1.35.01-1.93.49-1.48 1.26-1.76 2.17-2.85 1.62-1.93 2.3-3.91 3.32-6.21 1.01-2.28 1.2-2.13 1.72-3.14l.81-1.54c.69-1.35-1.41-1.29-.83-3.63.26-1.06 1.3-1.54 1.99-1.89.67-.34.3.2.56-.6.19-.6.21-1.15.43-1.77l2.28-4.96c.72-1.57 1.38-3.3 2.31-4.8 1.08-1.76 2.64-4.64 3.01-6.41.27-1.28-1.12-2.42-.5-3.83 1.11-2.49 6.55-2.17 8.17-2.38 1.38-.17 4.95.5 6.01.86 3.66 1.25 3.26 2.35 4.59 2.48l.59.43.58-1.33c.48-.76 1.1-1.1 2.34-1.26.62-.03.68.03 1.14.17.52.13.22.11.93.04.62-1.7.38-2.25 3.24-2.6C51.07.95 55.54.97 62.22.12c1.2-.15 1.53-.1 2.37.23.73.28 1.15.53 1.69 1.01 1.41 1.23.8 1.83 2.13 1.98.28.03 1.07.03 1.27.03 6.53-.26 4.08 2.26 4.63 5.37.34-.1.3-.07.52-.22l-.1.63c.9-.17.9-.64 1.78-1.48 2.14-2.05 2.93-4.1 5-4.9 1.83-.7 2.43-.4 4.22-.63.74-.04 4.24.6 4.74.84 1.44.7 1.36 2.47.9 3.76.17.06-.12.25.42-.05l.04.62c.96-.43 1.69-2.28 3.68-3.15 1.1-.48.84-.26 2-.38.81.05 1.56.43 2.34.64 2.62.71 4.84.81 6.29 2.74.5.67.83 1.29 1.02 1.86zM25.86 46.84c-1.01.49-3.24.88-4.58 1.12-2.94.54-1.85.47-4.23-.16-.81-.06-.66-.15-1.09-.64.22-.53.31-.57.56-1.01.45-.06 1.19-.11 1.6-.23.52-.14.78-.46.78-.46.06-.02.05-.06.07-.09-.35-.79-.28-1.14.04-1.76l5.43-10.14c.05-.74.5-1.32.75-2.01.21-.57.57-1.38 1.15-1.74.87-.55 3.68.3 4.47 1.03-.1 1.05-.75 1.66-1.53 2.85l-1.13 1.74c-1.85 2.59-3.28 5.42-4.72 8.19-.66 1.28-1.37.65-1.56 1.47 1.46.38 5.66-.8 8.01-.88.86-.03.97.28.8 1.05-.36 1.64-2.4 1.35-4.83 1.66zm2.59-20c.2-.03.66-.13.74-.14l1.92-.15c1-.03 1.8-.04 2.65-.07l3.97.06c.28.02.34.04.57.08.05.01.22.06.26.07.03.01.06.04.13.04.06 0 .08.03.12.04-.91.3-.53.39-1.93.56-5.3.65-5.01 1.41-6.03 1.54-.83.11-2.2-1.33-2.4-2.04zm15.8-18.4c-.25 1.45-2.73 5.03-3.67 6.53-.55.88-3.2 5.95-3.94 6.38l-.56.12c-.94.18-.75.33-1.47.54-1.03.31-1.63.19-2.55.15-.75.53-1.7 1.89-3 2.06-1.17.16-1.06-.27-2.56-2.16-2.37-2.99-1.41-1.71-3.61-3.77-.42-.4-.76-.85-1.34-1.05-1.07 0-3.39 4.68-3.77 5.53-.86 1.93-.67 1.98-1.82 2.79-.79.56-1.98 2.17-3.44 1.57-.67-.5-.47-.66-.15-1.21l1.64-3.61c1.98-5.1 3.01-5.46 4.91-9.42 1-2.09.4-3.1 2.24-4.81.22-.16.06-.39 1.34-.02l1.95.54c1.12.26.76-.06 1.61.73-.07.18-.04.13-.14.32-.01.02-.1.08-.07.09.03.01-.05.06-.07.09-.21 1.13-2.12 2.65-1.83 3.75 1.48-.19 6.15-2.8 6.7-4.52-.8-1.07-2.42-1.9-4.14-2.08-2.21-.23-3.81.39-5.95.54-1.46-1.35-1.32-1.57.95-2.17 2.67-.71 6.25-.18 8.63.39 2.32.55 5.12 2.06 5.36 4.11.12 1-1.32 1.96-2.17 2.49-.95.59-2.36 1.2-3.44 1.67-1 .43-2.7 1-3.03 1.84-.43 1.23 3.84 5.64 5.06 5.22.67-.23.57-.64.82-1.21l5.21-10.62c.5-1 .73-1.71 1.14-2.67l.46-.53c2.61-.15 5.69 1.41 4.68 2.37zm.43 13.84c1.07-.14 2.29.18 2.98.46.63.25 1.71.93 1.83 1.59.5 2.78-1.27 3.46-3.64 5.34-.14.11-.59.47-.68.51-.85.36.12-.04-.61.02-.8.07-2.06 1.44-2.6 1.8-.7.48-.77.31-1.6.36-.67-1.42-.47-1.54.38-3.02.85-1.49 1.39-3.09 2.14-4.63.24-.5.39-.76.88-.75l.74.17c1.37.52.76 1.51-.4 3.52-.5.87-1.25 1.52-1.16 2.67.68-.13.57-.16 1-.46 2.25-1.58.92-.37 1.39-1.31.25-.49 2.96-2.47 2.77-3.57-.42-2.38-3.9-1.39-4.84-2.2.41-.23.74-.41 1.39-.49zm7.78 1.04c.34-.04 1.64.55 1.97.7 2.38 1.03 1.15 2.14.42 3.65-.52 1.07.44.8-.99 2.23-.57.57-1.29 1.16-2.23 1.59-1.44.66-1.54.45-3.01.44-.29-1.03-.48-1.23-.17-2.41.45-1.75 2.71-6.03 4.01-6.19zm.16-17.82c.83.33.54.46 1.71.63.77.11 1.22.26 1.98.31.17.59.5.6.16.92-.08.44-3.32 4.96-3.81 5.64-2.85 3.9-2.61 5.84-6.43 6.46-1.45.23-2.09.24-2.39-.89 1.3-1.47.4.08 1.61-2.04l1.91-3.57c.2-.33.46-.7.65-1.08.27-.52.25-.64.58-1.13.31-.45.36-.7.61-1.12 1.85-3.15.98-2.22 1.47-3.72.18-.54.27-.5-.65-.5-2.01 0-6.15.57-6.07-1.21 1.11-.78 12.6-1.12 15.21-1.46 2.15-.28 3.23-.51 4.88-.15-.08 1.96-3.45 1.82-5.78 2.03l-4.71.41c-.61.04-.68-.04-.94.49zm1.74 25.38c1.66-.23 2.91-1 4.29-1.67.68-.33 1.29-.77 1.92-.98l-.05-.31c-1.56.2-3.17.11-4.23-.87.16-1.2 3.86-3.33 5.12-3.89.81-.36 1.57-.15 1.72.69.19 1.08-.5.85-1.86 1.42-.76.32-1.45.54-1.77 1.07 1.08.71 3.76.23 3.93 1.69.08.64-.69 1.13-1.36 1.41-2.87 1.2-.3-.61-5.15 1.54-.91.41-1.7.74-2.92.9-.68.09-1.8-.68.37-.99zm20.31 7.89c-.03.36-.08.37-.04.79l.72-.09c-.33.8-.4.83-.96 1.44l-.75.65c-1.33 1.23-2.57 2.37-4.24 3.28-1.2.65-3.97 2.23-6.24 1.71-1.46-.33-1.39-1.29-1.46-1.9-.25-2.25-.29-3.37.72-5.5.34-.73.95-1.46.85-2.44-1.66.74-5.19 4.95-6.48 5.7-.51 1.09-1.4 1.07-.45 2.95.32.62 1.99 2.94.42 3.18-.94.14-.27.03-.56-.08-1.12-.14-1.59-1.03-2.04-2.08l-.24-.28c-.96.12-.8.06-1.24.58l-2.12 2.34c-.04-.81.67-1.05 1.45-2.08l1.16-1.21c.14-.49.09-.06.1-.72-.51.26-.25.09-.66.39l-1.31 1.22c-.49.48-.9 1.34-1.42 1.66-.08.8-1.75 2.46-2.53 2.7-1.32.63-1.81.58-2.86.05-.27-.09-.13.11-.46-.25-.18-.53 3.04-3.65 3.79-4.29.42-.36.67-.7 1.06-1.1l2.94-3.09c.3-1.01-.43-2.16-.87-3.04-.46-.95-.85-1.92-1.41-2.68-.64.18-.27-.06-.6.27-.05.81-.39 1.08-.72 1.75-.17.35-.18.53-.37.86l-2.77 4.25c-.14.2-.12.17-.27.37-.22.28-.37.44-.61.71-.44.5-.78.92-1.23 1.41-.52.56-2.31 2.23-2.9 2.43-.93.86-4.21 2.67-5.66 3.09-1.06.31-2.4.1-2.93-.73-1.43-2.29 1.97-12.22 2.91-14.71.05-.75.45-1.27.78-1.86.79-.1.78-.11 1.36.1.82.29 2.42.99 3 1.53-.1 1.09-1 2.37-1.44 3.31-.28.6-.38.96-.73 1.58-.7 1.27-2.48 5.34-2.55 6.59-.07 1.18.82.4 1.29.09 1.1-.72 2.29-1.4 3.12-2.27l.66-.68c.28-.26.34-.32.58-.59 1.53-1.75 3.76-4.26 4.77-6.26l.47-.69c.13-.43.12-.51.15-.96l-.25-1.37c2.65-2.03 1.83-.19 4.01-.35 4.1-.31 2.22 4.09 4.6 5.04.43-.33.52-.55.9-.93l3.29-3.38c.6-.74 1.29-2.06 2.23-2.7 1.35-.91 3.42 1.91 4.89.63.31-.27.43-.59.67-.95l1.99-2.84c1.1-1.46 1.73-2.56 3.38-1.73.03.02.08.04.11.06.39.19.19.11.6.23.89.28 1.72.46 2.46.86 2.42 1.32 1.3.21 2.09 1.29.34.46.53.47.71 1.03.25.81.48 2.07.13 2.79-.51 1.06-2.22 4.3-3.01 4.91zm.99-16.57c.1.3.08.03.03.52-.66-.07-.32-.12-1.05-.34.53 1.38 1.13 1-.1 2.2-.66.04-1.16-.07-1.86-.08-3.48-.07-3.7.79-6.94.57.65-.65 3.63-1.51 4.51-1.81 1.07-.36 4.18-1.36 5.41-1.07zM74.3 8.68zm15.07-1.44c-.03 1.46-.56 1.98-1.14 2.93-.18.29-.28.58-.39.96-.55 1.89-2.17 6.99-2.25 8.43-.1 1.78.33 2.85-1.46 3.8-1.85-.42-1.49-1.1-2.63-1.59-1.27-.54.62.47-.36-.14-.54-.65.93-7.26.48-9.74-1.17.42-2.25 2.22-3.34 3.35-2.26 2.35-2.3 2.47-4.97 3.84-1.02.52-3.33 1.91-4.99.64-.95-.73-.5-2.13-.32-3 1.3-6.27.03-4.48-.82-4.49-.02 0-.09-.01-.1-.01l-.22-.02c-1.27.57-3.23 6.04-3.76 7.03-1.52 2.81-7.86 3.99-6.78 1.21.23-.59.84-1.04 1.24-1.67.37-.57.62-1.14.97-1.72.41-.67.78-1.05 1.13-1.59.41-.62.73-1.02 1.15-1.6l1.2-1.56c2.72-3.32.9-3.11 4.08-4.38.1-.98-.07-1.7 1.03-2.04.69-.74 4.26-.49 5.15-.22.12.67.42 1.73 0 2.34l.27 5.19c.06.42.19.99 1.12.41l2.83-2.75c.38-.4.63-.73.99-1.14l4.14-4.63c.33-.54.91-.54 1.78-.79 1.86-.53 2.81.45 4.06.36 1.27-.09 1.14-.17 2.08.2.1.55.17.78.13 1.3-.06.76-.03.69-.31 1.06zm.43 26.06c-.45.19-1.05.36-1.37.5-.47.21-.76.41-1.18.62-.69.35-1.64.86-2.15 1.31-.3.41-.24.19-.3.66.77.07.03.03.55.11 2.48.42 6 .3 7.46 1.41 1 .76 1.45 2.35.76 3.25-.21.28-1.14.86-1.55 1.07-.65.34-1.09.52-1.97.71-.72.17-.4.12-.83.3-.32.13-.35.15-.84.31-.41.13-.97.32-1.42.53-.23.15.02.04-.39.19l-1.23.32 1.31-.95c-.1-.55.01-.16-.23-.24-1.1.26-2.39.74-3.27 1.16l-1.44.63c-.52.23-.77.39-1.41.51-1.13.54-2.98 1.17-4.26 1.62-.71.25-1.45.56-2.25.8-1.13.34-1.41.1-2.08-.24-1.11-.38-.24-1.36.3-1.68.77-.45 1.83-.4 2.66-.48 1.83-.17 7.69-2.6 9.31-3.75 1.6-1.14 3.83-1.26 3.99-2.4l-1.73-.09c-1.13-.19-3.9.46-6.04-.58l-.54-.26-.85-.59-.39-.38c-.16-.12-.27.32-.3-.55-.01-.17.04-.24.17-.44l.56-.61.08-.08c1.93-1.97 4.22-3.24 6.69-4.79 1.57-.99 4.16-2.61 6.1-2.86.63.59 2.11 2.08 1.97 3.25-.16 1.3-1.1 1.13-3.86 1.71zm12.27-13.27c-.43 1.19-4.19 4.15-5.43 4.72-2.4 1.11-6.3 2.13-8.71.89-1.57-.81-1.62-3.08-1.43-4.74.2-1.78.96-3.14 1.67-4.39l2.29-3.88c.96-1.41 1.72-2.59 2.72-3.73 1.11-1.27 1.79-2.06 3.53-3.06.26-.19.52-.44 1.39.12 1.51.97 2.18.73 4.73 1.4.47.12.16 0 .59.25.4.23.71.41 1 .69.6.61.9 1.68.59 2.27-.06.57-.2.84-.28 1.3-.27 1.38.73.5-.9 3.53l-2.4 3.9c.11.32-.1.14.19.29.48-.1.48-.13.88-.27-.07.54-.02.33-.43.72z"/><path class="fil1" d="M73.45 36.91c-.17.76-1.01 1.81-1.47 2.24-.69.66-1.31 1.09-2.11 1.67-.77.56-1.07 1.03-2.17 1.75l-.96.63c-.78.54-2.26.87-1.39-1.27.25-.61.25-.99.58-1.54.56-.95.97-1.75 1.59-2.67.53-.79 2.97-4.31 4.06-4.84.92-.54.07-.65 1.6-.87.5 1.11 1.04.88.98 2.45-.06 1.59-.44 1.54-.71 2.43zm-27.59-.72c-.03.45-.03.52-.15.96-.06 1.28-1.71 3.08-2.35 4l-4.17 4.73c-.72.71-1.29 1.29-2.3 1.82-1.5.79-2.37 1.51-2.61.44-.2-.91 1.18-4.4 1.63-5.26l2.36-4.91c.51-.83.48-.63.58-1.68-1.01-.4-2.25-1.36-3.41-1.44-.83.64-.44.81-1.04 1.42-.94 2.49-4.34 12.43-2.91 14.71.52.83 1.87 1.04 2.93.73 1.45-.42 4.73-2.23 5.66-3.09l3.89-4.13c1.47-1.72.98-1.39 1.64-2.24.28-.36.28-.32.55-.74 1.54-2.46 1.68-3.82 2.79-4.68.33-.33-.04-.09.6-.27.56.76.94 1.73 1.41 2.68.43.89 1.17 2.03.87 3.04-.02.53-.04.45-.29.8l-5.08 5.25c-.02.03-.05.06-.08.09l-1.39 1.3c-.46.39-.69.55-.49 1.29 1.06.53 1.54.58 2.86-.05.36-.5.3-.32.7-.68.2-.18.81-1.23 1.83-2.02.52-.33.93-1.18 1.42-1.66l1.31-1.22c.42-.3.16-.14.66-.39-.02.65.04.23-.1.72l.01.31c.44-.24.33-.15.91-.11l.08.46c.45 1.05.92 1.94 2.04 2.08l.72-.09-.53-1.78s-.18-.19-.3-.4l-.57-1.16c-.3-.91-.22-1.16.53-2.09.2-.25.41-.38.73-.53 1.29-.75 4.82-4.96 6.48-5.7.1.98-.51 1.71-.85 2.44-1.01 2.13-.97 3.25-.72 5.5.07.61 0 1.57 1.46 1.9 2.27.52 5.04-1.06 6.24-1.71 1.67-.91 2.91-2.04 4.24-3.28.14-.52.22-.55.63-.86l-.21-1.35.61-.57c-.06-.73 1.01-2.02 1.41-2.65.42-.67 1.09-1.86 1.16-2.67-.82-.76-1.78-.87-2.09-2.39.61-.22.64-.23.59-.86-.79.61-.1.54-1.21.47-.27-1.49-.33-1.45-2.63-2.32-.7-.26-1.23-.53-1.87-.36-.7.18-.84.69-1.19 1.18l-1.94 2.6c-.4.48-.56.81-.9 1.34-1.55 2.4-3.39-.51-4.94-.2-.62.12-1.05.63-1.32 1.06-.67 1.05-2.2 2.81-3.17 3.73l-1.68 1.81c-2.09 1.89-2.66-2.4-3.28-3.61-.46-.9-1.14-1-2.03-.78-1.27.32-1.56-.62-2.18-.67-.37.07-1.15.34-1.32.54-.42.48-.11.01-.16.58l-.04.52c.04.01-.01.08-.03.12z"/><path class="fil2" d="m81.63 5.11-4.14 4.63c-.37.41-.61.74-.99 1.14l-2.83 2.75c-.93.58-1.06 0-1.12-.41l-.27-5.19c-.05-.81.01-1.26-.13-2.01-1.19-.47-3.6-.41-5.02-.11-1.09.34-.92 1.06-1.03 2.04-3.18 1.27-1.36 1.06-4.08 4.38l-1.2 1.56c-.42.58-.74.98-1.15 1.6-.36.54-.73.92-1.13 1.59-.35.58-.6 1.14-.97 1.72-.4.62-1.02 1.08-1.24 1.67-1.08 2.79 5.26 1.6 6.78-1.21.54-.99 2.49-6.45 3.76-7.03l.22.02c.02 0 .08.01.1.01.85.01 2.12-1.78.82 4.49-.18.87-.62 2.27.32 3 1.65 1.27 3.96-.12 4.99-.64 2.68-1.37 2.71-1.49 4.97-3.84 1.09-1.13 2.17-2.93 3.34-3.35.44 2.48-1.02 9.09-.48 9.74.98.61-.91-.4.36.14 1.14.49.78 1.16 2.63 1.59 1.79-.96 1.36-2.03 1.46-3.8.08-1.44 1.69-6.54 2.25-8.43.11-.38.21-.67.39-.96.58-.95 1.11-1.46 1.14-2.93-.04-1.22.38-1.13-.18-2.32-.68-.05-1.57.12-2.14.06-1.8-.19-1.42-1.22-5.42.12zM39.1 6.6c-.41.97-.64 1.68-1.14 2.67l-5.21 10.62c-.25.57-.16.98-.82 1.21-1.22.42-5.5-3.99-5.06-5.22.33-.84 2.03-1.41 3.03-1.84 1.09-.47 2.5-1.08 3.44-1.67.85-.53 2.28-1.49 2.17-2.49-.24-2.05-3.04-3.56-5.36-4.11-2.37-.57-5.96-1.09-8.63-.39-2.27.6-2.42.82-.95 2.17 2.13-.16 3.73-.78 5.95-.54 1.72.18 3.34 1 4.14 2.08-.55 1.72-5.22 4.33-6.7 4.52-.29-1.09 1.62-2.61 1.83-3.75-.46-1.61-2.74-.64-4.03-1.83l-.59.07c-1.84 1.7-1.23 2.72-2.24 4.81-1.9 3.96-2.93 4.32-4.91 9.42l-1.64 3.61c-.32.55-.52.71.15 1.21 1.45.6 2.65-1.01 3.44-1.57 1.15-.81.96-.86 1.82-2.79.38-.84 2.7-5.52 3.77-5.53.58.2.92.65 1.34 1.05 2.2 2.06 1.24.78 3.61 3.77 1.5 1.89 1.39 2.31 2.56 2.16 1.3-.17 2.25-1.53 3-2.06.92.04 1.52.16 2.55-.15.72-.22.52-.36 1.47-.54l.56-.12c.74-.43 3.39-5.5 3.94-6.38.93-1.5 3.41-5.08 3.67-6.53-.12-.66-.24-.91-.72-1.2-.32-.19-.91-.4-1.32-.52-1.08-.32-1.97-.51-3.11-.12zM99.32 10.87c1.31-.33 3.07 3.57-.32 6.83-.7.67-5.59 4.23-6.88 4.8-1.13.5-1.1-.16-.87-.81.78-2.23 1.42-3.12 2.76-5.06.27-.38 4.92-5.66 5.3-5.76zm-2.61-5.02c-1.74 1-2.42 1.8-3.53 3.06-1 1.14-1.76 2.32-2.72 3.73l-2.29 3.88c-.71 1.25-1.47 2.61-1.67 4.39-.19 1.66-.14 3.93 1.43 4.74 2.4 1.24 6.31.22 8.71-.89 1.24-.57 5-3.54 5.43-4.72-.24-.16 0-.1-.35-.2-.4-.11-.09-.03-.44-.05-.15-.86-.07-.18.14-.49l2.4-3.9c1.63-3.03.64-2.15.9-3.53.09-.46.23-.73.28-1.3-.29-1.63-.56-2.68-3.43-3.25-5.22-1.04-2.14-.89-4.87-1.47z"/><path class="fil2" d="M56.47 7.37c-.89-.82-.56-.62-1.95-.89-.47-.09-.85-.13-1.22-.26-.5-.17-.52-.16-.67-.7.26-.52.32-.45.94-.49l4.71-.41c2.33-.21 5.7-.07 5.78-2.03-1.65-.36-2.73-.13-4.88.15-2.6.34-14.09.68-15.21 1.46-.09 1.79 4.05 1.21 6.07 1.21.93 0 .83-.03.65.5-.49 1.5.38.56-1.47 3.72-.25.42-.3.66-.61 1.12-.33.49-.31.61-.58 1.13-.2.38-.46.75-.65 1.08l-1.91 3.57c-1.22 2.13-.31.57-1.61 2.04.3 1.13.93 1.13 2.39.89 3.83-.62 3.59-2.56 6.43-6.46.49-.68 3.74-5.2 3.81-5.64z"/><path class="fil1" d="m79.65 38.66.54.26c2.14 1.05 4.91.4 6.04.58 1.02-.13 1.36-.14 2.09.05-.24 1.78-2.7 1.93-4.08 2.89-.27.19-.59.36-.9.53l-1.85.88.19 1.07c.69-.14.58-.23 1.47-.34.87-.42 2.16-.89 3.27-1.16.23-.2-.05-.18.72-.13-.11.83-.15.15-.59.86l.41-.05c.45-.21 1.01-.4 1.42-.53.49-.16.52-.17.84-.31.43-.18.11-.13.83-.3l.47-.28c.66-.32 2.07-.75 2.61-1.5.33-.46.19-1.21-.1-1.86-1.19-2.69-5.24-1.37-8.69-2.39-.12-.77-.12-1.02.76-1.19.51-.45 1.46-.96 2.15-1.31.42-.21.71-.41 1.18-.62.33-.14.92-.32 1.37-.5.56-.55.96-.46 1.94-.59.58-.08.51-.03.92-.24.82-.42-.24-.04.62-.43-.08-.43-.19-.71-.3-.95-.33-.74-1-1.59-1.54-2.1-1.87.24-1.9.68-3.64 1.53-1.96.95-2.81 1.79-4.49 2.77-.33.19-.57.26-.87.41-.66.33-2.49 2-3.03 2.32-.18.1-.01.08-.39.16.09.5.18.95.3 1.44.08.32.13.58.32 1.02zM24.45 33.48l-5.43 10.14c-.32.61-.38.97-.04 1.76l.26.27-.84.86c-.36.08-1.61.16-1.88.34-.6.4.23.74.53.96 2.39.64 1.29.71 4.23.16 1.34-.25 3.57-.64 4.58-1.12.54-.35 1.04-.3 2.01-.41.99-.12 1.23-.16 1.96-.41.15-.4.23-.71.14-1.27-1.6-.33-6.25 1.37-8.57.77-.1-1.29.66-.85 1.3-1.63l3.64-6.55c.37-.66.46-.49 1.13-1.74l1.83-2.66c.62-.86.93-1.22.78-2.09-1.11-.33-3.12-1.13-3.9-.53-.74.57-.92 2.37-1.75 3.16zM10.3 31.02c.65.2-.01.07.68.15.14.76.02.74-.04 1.33l.45.78c.38.98.05 1.33-.55 2.01-.67.75-.47.4-1.37.91-1.03.6-.06.65-1.08.99-.06.86-.3.68-.61 1.37L6.6 41.62c-.38.79-.42 1.08-.84 1.32-.08 1.26-2.22 3.27-2.84 3.97-.43.48.29.21-.64.41.1.49.36 1.02.61 1.33.81-.27 1.01-.58 1.91-.71l.36-.05.74-.35c1.35-.71.88-2.67 2.44-3.64.18-.77.41-.28.97-.89.53-.58.5-1.82 1.38-2.54.41-.33.49-.3.95-.33 2.36-.14 5.24-.6 7.34-1.02-.58-1.23-1.42-1.32-3.33-.98-.89.16-1.14.27-1.79.35-.68.08-.88-.01-1.83.11-.21-.76-.51-.47-.18-1.18l1.03-1.82c.41-.5 1.58-2.21 1.43-2.74-.15-.54-.41-.36-.43-.81-.03-.65.23-.13.33-.91l.91-.12c1.23-.39 4.55-.68 6-.61.59-.3.42.16 1.24-.31-.24-.87-1.33-1.2-2.27-1.27-2.35-.17-6.39.74-8.88 1.12-1.3.2-.53.18-1.39.49.35.33.25.13.47.56z"/><path class="fil0" d="M99.32 10.87c-.39.1-5.04 5.38-5.3 5.76-1.35 1.94-1.99 2.82-2.76 5.06-.23.65-.26 1.31.87.81 1.29-.57 6.18-4.13 6.88-4.8 3.39-3.26 1.63-7.16.32-6.83zM71.58 32.89c-.35.76-1.06 1.33-1.64 2l-1.57 2.14c-.65.93-5.01 8.22-1.25 5.33 1.07-.82 4.78-3.56 5.42-4.37.45-.58.21-.62.91-1.09.27-.89.65-.84.71-2.43.06-1.57-.48-1.34-.98-2.45-1.53.22-.68.33-1.6.87z"/><path class="fil3" d="M44.68 22.29c-.66.08-.99.26-1.39.49.94.81 4.41-.18 4.84 2.2.2 1.1-2.52 3.07-2.77 3.57-.47.93.85-.27-1.39 1.31-.43.3-.32.33-1 .46-.09-1.15.66-1.8 1.16-2.67 1.15-2.01 1.77-3 .4-3.52l-.74-.17c-.49-.01-.64.25-.88.75-.75 1.55-1.3 3.15-2.14 4.63-.85 1.49-1.05 1.6-.38 3.02.83-.05.9.12 1.6-.36.54-.37 1.8-1.74 2.6-1.8.72-.06-.24.34.61-.02.09-.04.54-.4.68-.51 2.37-1.87 4.14-2.56 3.64-5.34-.12-.65-1.2-1.33-1.83-1.59-.69-.28-1.91-.59-2.98-.46zM52.79 28.69c-.54.48-1.59 1.45-2.41 1.62-.23-1.49 1.91-3.95 3.19-4.93 1.17 1.2.3 2.36-.78 3.31zm-.33-5.36c-1.3.16-3.55 4.45-4.01 6.19-.31 1.18-.12 1.39.17 2.41 1.47.01 1.56.22 3.01-.44.94-.43 1.67-1.03 2.23-1.59 1.43-1.43.47-1.17.99-2.23.73-1.51 1.96-2.61-.42-3.65-.33-.14-1.64-.74-1.97-.7z"/><path class="fil4" d="M45.86 36.19c.02-.04.07-.1.03-.12l.04-.52c.04-.57-.26-.1.16-.58.17-.2.94-.46 1.32-.54.62.05.91.99 2.18.67.88-.22 1.57-.12 2.03.78.62 1.21 1.19 5.5 3.28 3.61l1.68-1.81c.96-.92 2.49-2.68 3.17-3.73.28-.43.7-.93 1.32-1.06 1.54-.31 3.38 2.6 4.94.2.34-.53.5-.86.9-1.34l1.94-2.6c.35-.48.49-1 1.19-1.18.64-.16 1.18.1 1.87.36 2.3.87 2.37.84 2.63 2.32 1.11.07.42.14 1.21-.47.05.63.02.63-.59.86.31 1.52 1.27 1.63 2.09 2.39-.08.81-.74 2-1.16 2.67-.4.63-1.47 1.92-1.41 2.65.8-.61 2.5-3.85 3.01-4.91.35-.72.13-1.98-.13-2.79-.18-.56-.37-.57-.71-1.03-.79-1.07.33.03-2.09-1.29-.74-.4-1.58-.59-2.46-.86-.41-.13-.21-.05-.6-.23-.03-.02-.08-.04-.11-.06-1.65-.83-2.28.27-3.38 1.73l-1.99 2.84c-.25.35-.36.67-.67.95-1.47 1.29-3.54-1.54-4.89-.63-.95.64-1.64 1.95-2.23 2.7l-3.29 3.38c-.38.38-.47.6-.9.93-2.39-.95-.5-5.35-4.6-5.04-2.18.16-1.37-1.68-4.01.35l.25 1.37z"/><path class="fil3" d="M56.28 27.06c1.06.98 2.67 1.07 4.23.87l.05.31c-.62.21-1.23.65-1.92.98-1.38.68-2.63 1.44-4.29 1.67-2.17.31-1.05 1.08-.37.99 1.22-.15 2.01-.49 2.92-.9 4.85-2.15 2.28-.34 5.15-1.54.67-.28 1.44-.77 1.36-1.41-.18-1.46-2.85-.98-3.93-1.69.33-.53 1.01-.74 1.77-1.07 1.35-.57 2.05-.34 1.86-1.42-.15-.83-.91-1.05-1.72-.69-1.26.57-4.96 2.7-5.12 3.89z"/><path class="fil4" d="M24.45 33.48c.83-.78 1.01-2.59 1.75-3.16.78-.6 2.78.2 3.9.53.15.87-.16 1.23-.78 2.09l-1.83 2.66c-.67 1.25-.75 1.08-1.13 1.74l-3.64 6.55c-.64.79-1.4.35-1.3 1.63 2.32.6 6.97-1.11 8.57-.77.09.56 0 .87-.14 1.27-.74.25-.97.29-1.96.41-.97.11-1.47.06-2.01.41 2.43-.31 4.47-.02 4.83-1.66.17-.78.06-1.08-.8-1.05-2.35.08-6.55 1.25-8.01.88.2-.82.9-.19 1.56-1.47 1.44-2.77 2.87-5.6 4.72-8.19l1.13-1.74c.78-1.19 1.43-1.8 1.53-2.85-.79-.73-3.6-1.57-4.47-1.03-.58.36-.93 1.17-1.15 1.74-.26.69-.7 1.27-.75 2.01zM34.4 36.28c.6-.61.22-.78 1.04-1.42 1.16.08 2.39 1.04 3.41 1.44-.1 1.05-.07.85-.58 1.68l-2.36 4.91c-.45.86-1.83 4.34-1.63 5.26.24 1.07 1.11.36 2.61-.44 1.01-.53 1.59-1.11 2.3-1.82l4.17-4.73c.64-.93 2.29-2.72 2.35-4l-.47.69c-1 2-3.23 4.51-4.77 6.26-.24.27-.3.33-.58.59l-.66.68c-.83.87-2.02 1.55-3.12 2.27-.47.31-1.35 1.08-1.29-.09.07-1.25 1.85-5.32 2.55-6.59.34-.62.45-.99.73-1.58.43-.94 1.34-2.22 1.44-3.31-.59-.54-2.18-1.24-3-1.53-.58-.21-.57-.2-1.36-.1-.33.59-.73 1.1-.78 1.86z"/><path class="fil1" d="M71.71 47.9c.68.34.95.58 2.08.24.8-.24 1.54-.55 2.25-.8 1.27-.45 3.13-1.08 4.26-1.62.47-.4.55-.32 1.05-.6-.13-.46-.3-.71-.55-1.02-.48.3-1.36.67-2.02.91-2.99 1.1-1.99.98-5.17 1.4-1.73.23-1.65.47-2.24.92.17.36.11.22.34.58z"/><path class="fil3" d="M75.66 22.21c-1.23-.3-4.34.71-5.41 1.07-.89.3-3.86 1.16-4.51 1.81 3.24.22 3.46-.64 6.94-.57.7.01 1.2.12 1.86.08 1.23-1.2.63-.82.1-2.2.73.21.39.27 1.05.34.05-.49.07-.21-.03-.52zM28.45 26.84c.2.71 1.57 2.14 2.4 2.04 1.02-.13.73-.89 6.03-1.54 1.4-.17 1.02-.26 1.93-.56-.04-.02-.06-.04-.12-.04s-.1-.03-.13-.04c-.04-.01-.21-.06-.26-.07-.23-.05-.29-.06-.57-.08l-3.97-.06c-.85.03-1.65.04-2.65.07l-1.92.15c-.08.01-.54.11-.74.14z"/><path class="fil4" d="M78.41 37.69c-.09-.42-.04-.41 0-.78.64.46.29.57.73 1-.18.24.04.07-.34.16l.85.59c-.19-.43-.25-.7-.32-1.02-.12-.49-.21-.94-.3-1.44.39-.09.21-.06.39-.16.54-.32 2.37-1.99 3.03-2.32.3-.15.54-.22.87-.41 1.68-.98 2.53-1.81 4.49-2.77 1.74-.85 1.77-1.3 3.64-1.53.54.5 1.21 1.35 1.54 2.1.11.24.22.52.3.95-.85.39.21.01-.62.43-.42.21-.35.16-.92.24-.98.13-1.38.04-1.94.59 2.76-.58 3.7-.41 3.86-1.71.14-1.17-1.33-2.66-1.97-3.25-1.94.25-4.53 1.86-6.1 2.86-2.46 1.55-4.76 2.82-6.69 4.79l-.08.08-.56.61c-.13.2-.17.27-.17.44.03.87.14.43.3.55zM15.12 31.03l-.91.12c-.1.78-.36.26-.33.91.02.45.28.27.43.81.15.53-1.03 2.24-1.43 2.74l-1.03 1.82c-.34.72-.04.43.18 1.18.95-.12 1.15-.03 1.83-.11.65-.08.9-.19 1.79-.35 1.9-.34 2.75-.25 3.33.98-2.1.42-4.98.88-7.34 1.02-.45.03-.54 0-.95.33-.88.72-.85 1.96-1.38 2.54-.56.61-.79.12-.97.89 1.36-.5 2.41-2.18 2.53-3.44 2.43-.31 7.05-.5 8.64-1.41-.16-.76-.42-1.14-1-1.43-1.96-.97-6.9 1.49-6.3-.25.27-.78 2.36-3.3 2.66-4.36.33-1.16-.21-.63-.44-1.76l.7-.24zM86.23 39.5l1.73.09c-.15 1.14-2.38 1.27-3.99 2.4-1.62 1.15-7.48 3.57-9.31 3.75-.82.08-1.88.02-2.66.48-.54.32-1.42 1.3-.3 1.68-.23-.36-.16-.22-.34-.58.58-.45.51-.69 2.24-.92 3.18-.42 2.18-.3 5.17-1.4.65-.24 1.54-.61 2.02-.91.25.31.42.56.55 1.02-.5.29-.58.2-1.05.6.65-.12.89-.28 1.41-.51l1.44-.63c-.88.11-.78.2-1.47.34l-.19-1.07 1.85-.88c.3-.17.62-.34.9-.53 1.38-.96 3.84-1.11 4.08-2.89-.73-.19-1.07-.18-2.09-.05zM71.58 32.89c-1.1.53-3.53 4.04-4.06 4.84-.62.92-1.03 1.73-1.59 2.67-.33.55-.33.93-.58 1.54-.87 2.14.61 1.8 1.39 1.27l.96-.63c1.11-.73 1.4-1.19 2.17-1.75.8-.59 1.42-1.01 2.11-1.67.46-.44 1.29-1.49 1.47-2.24-.71.48-.46.52-.91 1.09-.64.81-4.35 3.55-5.42 4.37-3.76 2.88.6-4.41 1.25-5.33l1.57-2.14c.58-.67 1.29-1.24 1.64-2zM10.3 31.02c-.22-.43-.12-.24-.47-.56.86-.31.08-.29 1.39-.49 2.49-.38 6.53-1.29 8.88-1.12.94.07 2.02.4 2.27 1.27-.82.47-.65.01-1.24.31.24.09.02.06.43.08 2.36.1 1.14-1.47.21-1.91-1.56-.73-8.58.28-10.79.81-.9.22-1.22.42-1.3 1.23l.63.39z"/><path class="fil4" d="M85.1 35.75c-.88.17-.88.42-.76 1.19 3.46 1.02 7.5-.3 8.69 2.39.29.65.43 1.39.1 1.86-.54.75-1.96 1.18-2.61 1.5l-.47.28c.88-.19 1.32-.37 1.97-.71.41-.21 1.33-.79 1.55-1.07.69-.9.24-2.49-.76-3.25-1.46-1.11-4.97-.99-7.46-1.41-.51-.09.22-.04-.55-.11.06-.47 0-.25.3-.66z"/><path class="fil0" d="M53.57 25.38c-1.28.99-3.42 3.45-3.19 4.93.82-.16 1.87-1.14 2.41-1.62 1.08-.96 1.95-2.12.78-3.31z"/><path class="fil4" d="M40.07 48.64c.6-.2 2.38-1.87 2.9-2.43.45-.49.79-.91 1.23-1.41.24-.27.39-.43.61-.71.15-.2.13-.17.27-.37l2.77-4.25c.18-.33.2-.51.37-.86.33-.68.67-.94.72-1.75-1.11.86-1.25 2.22-2.79 4.68-.27.42-.27.38-.55.74-.66.84-.17.52-1.64 2.24l-3.89 4.13zM10.94 32.5l-.13.19c-.14.27-.05.08-.16.31-.72 1.66-2.14 3.76-2.26 4.19 1.02-.35.04-.39 1.08-.99.89-.52.7-.16 1.37-.91.6-.67.93-1.03.55-2.01l-.45-.78zM44.49 51.04c-.2-.74.03-.9.49-1.29l1.39-1.3c.02-.03.06-.06.08-.09l5.08-5.25c.25-.35.27-.27.29-.8l-2.94 3.09c-.4.41-.64.74-1.06 1.1-.75.64-3.97 3.76-3.79 4.29.33.36.19.16.46.25zM56.2 48.46c.28.11-.38.22.56.08 1.57-.24-.1-2.56-.42-3.18-.95-1.88-.06-1.86.45-2.95-.32.15-.53.28-.73.53-.75.93-.83 1.18-.53 2.09l.57 1.16c.12.2.3.39.3.4l.53 1.78-.72.09z"/><path class="fil1" d="M81.63 5.11c4-1.34 3.62-.31 5.42-.12.58.06 1.47-.1 2.14-.06.56 1.19.14 1.1.18 2.32.27-.37.25-.31.31-1.06.04-.52-.03-.76-.13-1.3-.93-.37-.8-.29-2.08-.2-1.25.08-2.2-.89-4.06-.36-.87.25-1.45.26-1.78.79zM96.72 5.85c2.73.58-.35.43 4.87 1.47 2.88.57 3.14 1.62 3.43 3.25.31-.6.02-1.67-.59-2.27-.29-.29-.6-.47-1-.69-.43-.24-.12-.12-.59-.25-2.55-.66-3.22-.42-4.73-1.4-.86-.56-1.12-.31-1.39-.12z"/><path class="fil4" d="M4.81 47.95c-.9.13-1.1.44-1.91.71-.25-.31-.51-.83-.61-1.33.93-.21.21.07.64-.41.62-.7 2.75-2.71 2.84-3.97-.34.32-.24.22-.46.56l-.77 1.15c-.73 1-2.08 2.16-2.39 2.59l-.2.28c.34.43.47.92.79 1.31.6-.09.7-.16 1.17-.36l.9-.53zM17.05 47.81c-.3-.23-1.13-.57-.53-.96.27-.18 1.52-.25 1.88-.34l.84-.86-.26-.27c-.03.03-.02.07-.07.09 0 0-.27.32-.78.46-.41.11-1.15.17-1.6.23-.25.44-.34.48-.56 1.01.43.49.28.59 1.09.64z"/><path class="fil1" d="M67.13 5.9c1.42-.3 3.83-.37 5.02.11.13.75.08 1.2.13 2.01.42-.62.12-1.67 0-2.34-.89-.26-4.46-.52-5.15.22zM39.1 6.6c1.14-.38 2.03-.2 3.11.12.4.12 1 .33 1.32.52.48.29.6.55.72 1.2 1.01-.96-2.08-2.52-4.68-2.37l-.46.53z"/><path class="fil4" d="M5.17 47.91c1.32-.17 1.43-.52 2.11-1.67.23-.38.36-.72.57-1.14.19-.38.44-.78.49-1.19-1.56.97-1.09 2.93-2.44 3.64l-.74.35z"/><path class="fil1" d="m21.17 8.09.59-.07c1.29 1.19 3.57.22 4.03 1.83.02-.03.11-.08.07-.09-.03-.01.06-.07.07-.09.1-.19.07-.14.14-.32-.85-.79-.49-.47-1.61-.73l-1.95-.54c-1.28-.37-1.12-.15-1.34.02z"/><path class="fil4" d="m74.67 38.78-.61.57.21 1.35c-.41.31-.49.34-.63.86l.75-.65c.56-.61.62-.64.96-1.44l-.72.09c-.03-.42.01-.43.04-.79z"/><path class="fil1" d="M52.62 5.51c.15.54.18.53.67.7.37.13.75.17 1.22.26 1.4.28 1.07.07 1.95.89.33-.32 0-.33-.16-.92-.76-.05-1.21-.2-1.98-.31-1.17-.17-.88-.3-1.71-.63z"/><path class="fil4" d="m53.17 45.73-1.16 1.21c-.78 1.04-1.49 1.27-1.45 2.08l2.12-2.34c.44-.52.28-.46 1.24-.58l.24.28-.08-.46c-.57-.04-.47-.13-.91.11l-.01-.31zM47.35 50.99c.78-.24 2.45-1.91 2.53-2.7-1.01.79-1.63 1.84-1.83 2.02-.4.36-.34.18-.7.68zM86.42 43.42c.24.08.13-.31.23.24l-1.31.95 1.23-.32c.41-.16.16-.05.39-.19l-.41.05c.44-.7.48-.03.59-.86-.77-.05-.49-.07-.72.13z"/><path class="fil1" d="M101.43 19.31c-.22.31-.3-.37-.14.49.35.02.04-.06.44.05.35.1.11.04.35.2.41-.39.36-.18.43-.72-.4.13-.4.17-.88.27-.29-.15-.08.04-.19-.29z"/><path class="fil4" d="m78.41 37.69.39.38c.38-.09.17.08.34-.16-.44-.43-.09-.54-.73-1-.04.37-.09.36 0 .78z"/></g></g></svg>