<svg xmlns="http://www.w3.org/2000/svg" xml:space="preserve" width="96" height="72" style="shape-rendering:geometricPrecision;text-rendering:geometricPrecision;image-rendering:optimizeQuality;fill-rule:evenodd;clip-rule:evenodd" viewBox="0 0 45.81 34.36"><defs><style>.fil0{fill:#000}.fil4{fill:#fefe00}.fil1{fill:red}.fil3{fill:#f60}.fil2{fill:#fff}</style></defs><g id="Camada_x0020_1"><g id="_2482281786640"><path class="fil0" d="M17.78 32.52c1.58 0 .5-.92 1.92-1.33.29 1.33 2.16 1.09 3.4.9l3.93-.49c1.71-.14 2.07-.54 3.79.06 1.01.35 2.12.7 3.12.69 2.42-.04 6.3-2.32 8.2-3.88 2.75-2.25 1.66-2.21 3.07-4.2 1.23-1.73.07-1.27.53-4.45.35-2.42-1.48-5.49-1.66-6.39-.09-.43-.06-.59-.23-.94-.45-.93-1.73-1.29-2.22-2.18 1.5-.43 1.79-1.99 2.16-3.58.19-.81.34-1.73.35-2.74 0-3.86-5.48-2.57-7.33-1.62-.73.38-.64.75-1.51 1.31-.95-.62-.67-1.05-1.92-1.22-2.47-.33-6.28.81-8 .81.06-.93.33-.39.33-2.04-.88.57-.67.97-2.17 1.12.02 1.25.73 1.12 1.25 1.12-.01.56-.22 1.97-.92 2.04 0-.57-.05-.7-.08-1.12.36-.04.47-.06.5-.51-1.27 0-1.24.71-2.42.71v-.1c.54 0 .82-.18 1.17-.41-.16-.4-.06-.72-.32-1.14-.24-.4-.4-.3-.52-.9.65-.53 1.23-.71 1.25-2.04-.34.11-.32.28-.5.62-.43.79-2.11.4-2.26 1.7 0 .81.15.76 0 1.56-.46.13-.73 0-1.09-.3-.6-.51-.41-.4-1.08-.2.05-.66.36-.29.73-.74.29-.35.26-.81-.04-1.13-.46-.51-1.42-.58-2.28-.58.03-.4.08-.27.08-.71-.42.14-.74.68-.75 1.33.31.4.6.61 1.25.61.05.27.08.3.17.51-.89.25-.15.61-2 .61.18-.94.39-1.62-.41-1.54-.43.05-.11.02-.43.21-.37.21-.55.02-.99 0-.93-.04-1.43.13-2.17.21-.3-.25-.49-.52-.58-1.02h-.33c0 .62-.15.93 0 1.33-.48-.01-.85-.22-1.32-.32-1.36-.3-4.66.71-6.11 2.05C1.56 5.85 1.07 9.41.46 12.3c-.14.66-.62 2.33-.42 3.28.18.84 1 1.58 1.38 2.29-.49.14-.18.12-.5.41.89 1.63 1.04.82 2.59.82-.01.63-.71 2.63-.92 3.16-1.99 0-1.87.89-2.59 1.12.31 1.63 1.96.82 2.59.82l-2 9.99 7.84-.71c.04-.59.11-1.25.42-1.53.1.51-.09 1-.33 1.63-.35.1-1.79.5-2.09.82 4.36 0 3.12.19 3.09-1.43.69-.44 3.63-.08 5.51-.61.07.17.08.18.17.31h.25c-.15.34-.01.19-.25.41-.35.89.06.36 1.36.59.64.11 1.38-.18 2.06-.18-.16-.84-.52-.4-.83-.92zm12.68-5.71c.22-.55.24-1.12.42-1.73-.58.06-.96.86-1 1.53.2.12.28.18.58.2zm-10.68 2.75c.24-.56.25-1.23.47-1.87.32-.92.72-.81.95-1.19-.18-.08-.34-.06-.58-.11l-.26-.09c-.02-.01-.04-.03-.06-.03l-.11-.07c-.25.5-.41 1.2-.57 1.75-.42 1.43-.31 1.49.16 1.62zm-3.84-9.89c0 1.05.17.46.17 1.73 1.06.45.97-.43 1.5-.61v-.31c-.25-.07-.25-.1-.58-.1.12-.54.38-.37.5-.92-.8-.03-.97.03-1.58.2zm-2.25 1.53c.51.41.48.09.88.18.28.07.72.53.86 0 .19-.69-.83-1.32-1.21-1.37-.17.47.09.22-.14.64-.26.47-.27 0-.39.55zm-3.09-2.34c.38 0 1.22-.18.51.72-.66.84-1.02-.03-1.09-.11-.15.13-.37.35-.54.57-.25.31-.37.37-.38.86 1.72 0 3.09-1.65 3.09-2.45 0-.39.03-.04-.08-.31-.24.12-.17-.07-.17.51-.38-.04-.42-.31-.5-.71-.35.22-.62.53-.83.92zM4.76 21.1c.7 0 1.4-.59 1.87-.98.42-.34 1.22-1.11 1.22-1.78 0-.77-1.86-.14-2.09.29-.24.45-.97 2.07-.99 2.46z"/><path class="fil1" d="M7.52 22.22c-.18.46-.31 1.31-.45 1.9-.28 1.17-.08 1.15-.41 1.34-.58.34-.8.1-.68-.62l.53-3.04c-.45.01-1.24.51-1.57.84-1.54 1.57-1.41.1-1.75 1.83l-1.08 5.4c-.16.74-.26 1.38-.39 2.18-.15.95-.59 1.47.67 1.22.88-.17 1.23.16 1.87-.37 0-.01-.1-.27-.11-.28-.01-.02-.03-.04-.04-.06l-.08-.11c-.11-.16-.2-.1-.2-.37 0-.47.28-.87.48-1.15.57-.77.36-.49.68-1.72.06-.23.07-.42.14-.65.09-.33.06-.3.35-.4.89-.3.4.58.53 1.26l.51-.39c.19-.13.27-.23.47-.35.5-.28.63-.22.81-.95.37-1.51.88-2.26.89-2.69-.25-.11-.09.02-.42-.61-.78-1.49.88-2.2-.75-2.25z"/><path class="fil2" d="m19.78 21.99.33-.08c.23-.1.12 0 .3-.34.24-.44.82-1.67 1.1-1.95.41-.41.31.02.29.35-.14 1.91.01 1.83.69 1.69l1.4-.23c.4-.09.29 0 .33-.11.01-.03.04-.02.06-.03.29-.18.11-.12.29-.46.37-.73.66-.17.54-1.26-.04-.38-.11-.93-.15-1.27-.08-.69 0-.74.23-1.09.37-.58 1.93-2.97 2-3.36-.63 0-1.05.04-1.64.14-.89.14-1.2-.06-1.31.57.32 0 .52-.04.67.23.06.1.33 1.09-.18.95-.02-.01-.24-.16-.28-.19-.72-.57-.54-.7-1.44.94-.15.27-.05.21-.33.3v-2.45c-.6 0-.94.09-1.42.11l-1.42.1c0 .71.09 1.21.16 1.85.04.36.2 1.42.17 1.71-.04.45-.48.88-.73 1.15-1.31 1.47-.68.8-.44 1.91-.21.17-.2.24-.49.11-.2-.09-.27-.2-.51-.31-.14.25-.45.84-.5 1.22.77 0 1.46-.14 2.25-.23zm20.1-14.86c-.06.95-.29 2.01-1.08 2.24v.01c.69.22 1.38.47 2.05.77.36-.11.72-.47.98-.74.11-.11.08-.08.18-.19.56-.59.95-1.53.95-2.4l-3.09.31zm-29.86.31c-.01-.02-.02-.09-.03-.07l-.22-.54c-.39-.42-1.63-.34-1.8.04-.07.16-.12.64-.12.88.36-.02 1.39-.69 1.03.21-.21.5-.77.68-.85.72-.26.14-.16.07-.26.29.88 0 2.72 0 3.25-.31-.17-.77-.98.02-1-1.22zM7.1 13.86c.22-.29.33-.25.56-.54.29-.36.74-.9 1.19-.07-.12.32 0 .04-.29.36-.24.26-.93 1.14-1.47.25zM9.21 3.6c.42-.83 1.97-.27 1.97.78 0 .58-1.25-.2-1.58-.2-.07 0-.3.38-.64.48l.25-1.05zM.92 14.58c0 1.06.02 1.73.99 2.36.88.58.89.33 1.22.12.44-.28.22-.04.47-.04.32 0 .78-.15 1.16-.21l1.84-.19c.63.03.22.3.89-.15a.21.21 0 0 0 .06-.04l.06-.03c.77-.48.2-.81.51-1.42.46-.9 1.82.1 2.24-.41.12-.25.26-.96.26-1.33-.35-.04-.27-.12-.58-.2.29-.39.86-.17.67-.92-.53.11-.28.42-.94.45-.79.04-.56-.65-1.19-.84l-1.46.28c-.13.13-.49 2.13-.6 2.53-.25.98-1.4 1.5-1.4-.08 0-.65.87-4.59 1.01-5.4.16-.94.39-1.7.54-2.7.1-.64.01-.91.48-1.04.46-.14.86-.25.97.27 1.07 0 2.36-2.2 2.91.11.12.48.33 1.11.84.81-.16-.36-.26-.32-.42-.61l.42-.2c.13-.08-.05.02.16-.11-.02-1.02-.35-1.74-1-2.24-.99-.76-2.54-.59-3.62-.35-1.46.32-2.43.61-3.62 1.8-.18.18-.26.21-.42.41-.9 1.09-1.31 3.72-1.64 5.13L1 13.73c-.05.26-.07.47-.07.83zm25.15-8.09.54-.58c.39.01.66.12.83.41-.23.8-1.36 1.05-1.89.36l.51-.19zm-.63-2.62c-.12.42-.17.59-.17 1.12.63 0 1.32-.11 1.53.51-.51.01-1.05.19-1.45.51-.51.41-.56.6-.71 1.38-.13.68-.27 1.1-.38 1.78l-.76 3.66c-.27 1.46-.53 1.01 2.19.64.46-.06 1.35-.13 1.66-.31.13-.34.5-1.78.5-2.24 0-.24-.11-.2-.33-.2-.71 0-1.1 1.84-2.24.7-.04-.04-.04-.05-.14-.14-.13-.11-.04-.07-.21-.15v-.2c.47 0 .75-.16 1.08-.32 1.86-.92.79-.33 2.01-.29L29 5.91c.21-.93.37-1 1.02-1 .5 0 .14 1.27.03 1.88l-.87 4.24c.05-.01.11-.03.17-.06l.03-.03c.66-.7 1.44-1.26 2.2-1.79.89-.63 1.28-.76 2.06-.79.14-.08.11-.28.29-1.19.53-2.7 1.26-3.93-1.5-4.09-.38-.02-.2-.04-.59 0-1.27.12-2.12 1.05-2.34 1.15-.59.25.29-.84-.36-.79l-3.72.47zm14.6 1.22c-.87.09-1.27.54-1.1-.41.11-.64.24-1.32.85-1.32.59 0 .27.79.25 1.73zm-2.13 4.02c.03 0 .06-.01.07-.01.32-.2.28-1.53.56-2.27.32-.82 3.31-.55 4.23-.74.4-.08.44-.27.53-.79.13-.76.16-.79.16-1.64 0-1.17-1.58-1.83-2.67-1.83-1.26 0-3.35.69-4.42 1.63-.66.58-.81 1.17-1.06 2.17-.15.58-.47 2.03-.51 2.78l1.81.34h.01l1.3.36zm-8.88 10.66c-.22-.54-.07-1.01.32-1.55.14-.19.94-.79 1.21-.74.15.03.26-.06-.02.75-.53 1.55-.45 1.62-1.5 1.53zm3.17-5.5c-.78 0-1.13-.2-2.09-.2-.56 0-.72.27-1.07.54-.68.52-1-.95-2.02.88-.13.23-.44 1.02-.5 1.33 1.26 0 2.53-.41 3.5-.41.02-.31.39-1.73 1.08-1.73.44 0 .5-.04.5.41 0 1.05-.44 1.41-1.2 1.59l-2.06.64c-1.3.51-2.1.34-2.85 1.92-.14.29-.14.22-.15.64.41.04.39.35.38.68.02.03.04.06.05.1.1.2.15.42.2.64.23.15.65.21 1.43.09.54-.08.86-.17 1.39-.44.35-.18.83-.65 1.19-.63-.08.19-.12.29-.14.58 2.57 0 1.86-.52 2.42-2.55 2.26-.44 1.99.06 2.3-1.07.15-.53.85-2.59.79-2.91 0-.02-.01-.03-.01-.05l-.9-.56h-.09c-.45 0-1.87.51-2.17.51zm-3.59-.1c2.36-1.53 1.52.31 4.75-.61-.01-.02-.04-.06-.05-.05-.01.02-.04-.04-.05-.05l-.33-.31c-.33-.29-.12-.2-.66-.22-.47-.02-1.1-.21-1.5-.2h-.06c-.3.16-.57.31-.69.37-.55.26-.93.61-1.4.9-.01.04-.02.1-.02.16zM14.08 30.13c-.2.2-.38.45-.55.45-.52 0-2.06-1.35-1.64-1.57l1.11.48c.49.23.77.17 1.36.17-.04.3.04.16-.28.47zm.04-1.49H13.69c-.08-.3-.14-.28-.03-.58-.45.07-.52.71-1.48.69-1.08-.03-1.01-1.22-.41-2.35.48-.9 1.07-1.23 2-1.23.09-.47.08-.46.25-.82.14-.3.2-.38.14-.88-.42-.11-.26-.14-.67.02-1.33.54-2.49 2.15-2.81 3.82.23.14.16.1.5.1l-.5.31c0 1.07-.07 1.82.4 2.67.13.23.2.38.38.56 1.3 1.24 2.39.68 2.51.7.36.06-.14.12.32.06.18-.02.21-.05.33-.1l.59-.3c.85-.53 1.69-1.67 1.93-2.84.08-.4.01-.53.13-.85-.2-.16-.09-.12-.33-.2l.33-.31c-.06-.88-.4-1.88-.77-2.42-.35-.51-1.08-1.1-1.81-1.15 0 .86.5.9.17 1.73 2.52 0 1.74 3.31.31 2.79-.03-.01-.11-.05-.13-.06-.01-.01-.05 0-.06-.04-.01-.03-.04-.02-.06-.04 1.76-.16 1.53-1.65.61-2.34-.39.7-.5.43-.5 1.63-.25.08-.14.04-.33.2.09.61.15.02.11.47-.03.3-.07-.07-.11.45.66.4 1.25.34 1.25 1.43-1.33 0-1.03-.3-1.82-1.12z"/><path class="fil1" d="M22.95 29.97c-.73 0-.28-1.45-.14-1.8.22-.57.46-1.19 1.06-1.25 0 .63-.18 1.21-.27 1.81-.08.51-.11 1.25-.65 1.25zm2.59 1.02c.38-1.99.4-1.72-.27-2.52-.24-.28-.33-.46-.49-.83l-.57-2.16-2.09 1.12c-1.17.7-1.92 1.18-1.92 3.67 0 2.55 2.74.46 2.92.41.11.27.08.11.08.51.28 0 .38-.04.56-.05l1.78-.15zM19.78 21.99c-.14.15.1.02-.22.16-.2.09-.06.03-.28.07l-1.02.18c-.89.12-.2.36-.62 1.48-.17.45-.3.54-.11 1.09.28.83.53 1.24.44 2.26-.08.95.26 1.65.9 1.72.15-.77.24-1.36.46-2.08.23-.77.34-1.07.93-1.41.85-.49.21-.68 1.23-2.47.17-.3.29-.39.3-.86-.41.01-.83.18-1.06.43-.21.21-.33.55-.52.69-.18.13.2.04-.25.1.33-.83.19-1.09.17-1.43l-.33.08z"/><path class="fil2" d="M5.77 17.63c.31 0 .64-.05.81-.04 4.37.2.42 2.74-1.1 3.77-.4.27-.84.62-1.32.69.06-.96.4-1.66.73-2.33l.88-2.08zm-3.75 1.22c.31 0 .47-.03.7-.17.14-.08.02-.15.56-.24.31-.05.42-.06.75-.1.53-.06.18-.07.58-.21-.02 1.06-.87 2.34-1.11 3.02-.47 1.33.42 1.35-.96 2.09-.21.11-.31.21-.65.16.3-.7.3-1.01-.33-.44-.38.35-.68.51-.64.75.02.09.11.23.19.23 1.51 0 2.72-.84 3.97-1.67 1.08-.72 2.28-1.41 3.14-2.38.9-1.01 1.52-1.62.75-2.29-.84-.72-2.27-.46-3.2-.3-.35.06-.49.05-.75.21-.76.45-1.39.13-2.82.73-.36.15-.39.01-.42.5.22.13-.07.1.25.1z"/><path class="fil1" d="M29.63 26.2c.17-.87.24-1.59.98-1.86 1.06-.39.82-.25 1.16-1.64.12-.48.33-1.02.36-1.49-1.22 0-.99.84-1.84 1.12.01-.37.07-.56.17-.82-.32-.19-.55-.16-1.07-.09-1.43.19-1.2.12-1.51 1.42-.36 1.5-.61 1.12 1.17 2.93.26.26.2.38.57.42zM33.88 22.42c0-.88 1.37-1.79-.31-1.5-.25.04-.67.1-.94.17-1.06 5.54-.87 2.97-1.27 4.06l-.4 1.96c.72.42 1.08.36 2 .1.52-.15.48-.45.62-1.08l.31-1.45c.06-.25.1-.39.16-.72.04-.26.07-.5.16-.72-.36-.29-.33-.28-.33-.82z"/><path class="fil2" d="M7.44 21.3c0 .64.67.82 1.17.82.71 0 1.76-.71 2.42-.71.44 0 .31.2.58.2l1-.44c.17-.37-.27-.3-.42-.37l.68-.6c1.06-.91 1.57-3.29.07-3.58.06.84.65 1.79-.74 3.18-.32.32-.26.54-.76.59v.31c-.26.02-.4.07-.6.18-.4.22-1.51.84-1.82.84-.31 0-.16-.07-.5-.1 0-1.01.2-.8.64-1.46l.94-1.2c1.08-1.21 2.4-3.05 3.92-3.05.58 0 .79.53 1.17-.1-.18-.23-.16-.2-.43-.29-.86-.31-1.58-.01-2.28.44-.71.45-.73.54-1.31 1.05-.16.14-.26.24-.42.4l-1.61 1.7-.09.09c-.11.11-.12.13-.22.24-.14.16-.19.24-.34.4-.2.22-1.06 1.18-1.06 1.46z"/><path class="fil1" d="M9.86 28.44c0-3.14 2.45-4.02.46-3.61-1.1.23-1.4.54-1.81 1.77-.06.18-.11.37-.18.59-.74 2.26 1.28-.37 1.28 1.25 0 .02-.22.55-.59.61h-.91c0 .69.05.93.4 1.65.19.39.65.8.77 1.2.36-.01 1.4-.88 1.23-.05-.06.29-.02 0-.23.35.49 0 .76.1 1.33.1v-.31c-.38-.04-.13.03-.41-.21-.12-.1-.2-.19-.32-.32-.71-.81-1.02-1.67-1.02-3.03z"/><path class="fil3" d="M13.53 16.21v.31c.45.05.47.23.74.42.29.19.43.12.76.4-.06.91-.69 1.38-.83 2.04.49.89 1.12.25 1.42 1.83.7-.6-1.11-1.93 1-2.04.16-.01 1.34.13 1.34-.41 0-.44-.13-.31-.17-.82 1.06 0 .62-.24 1.17 1.02.74-.24.5-.99.5-1.02 0-.45.47-.89-.91-.7-.27.04-.44.12-.84.09-1.2-.12-2.07-.61-2.85-.8-1.05-.26-.5-.42-1.33-.32zM16.87 3.87c1.41.4 2.14.48 3.53.98 1.81.65.38.39 2.11.39.31 0 .6.05 1.03.05-.02-.31-.08-.49-.17-.71-.21.02-1.92 1.12-1.92 0 0-.69 1.55-.19 1.14-1.17-.34-.82-.72-.04-.72-1.79-1.66.04-.1 2.65-1.33 2.65-.6 0-1.06-.42-1.42-.71-.51.42-.49.42-1 0 .07-1.05.58-.66 1-1.63-.75-.61-.42-.45-1.55-.66-1.69-.31-.65.34-.42.41.23.08 1.52.28.88 1.04-.44.53-1.11.38-1.16 1.14zm-2.25-.41c.21.15.25.2.58.2 0-.53-.09-.8-.33-1.02-.07.39-.18.43-.25.82zm-1.5 2.34c.41-.48 1.18-1.44 1.75-1.63-.2-.45-.14-.21-.5-.51 0-1.29.74-1.74-1.66-1.32-1.14.2-.64.24-1.51-.01.07 1.05.73.75 1.64.96.49.11.31.12.62.37v.61c-.21.17-.39.35-.58.51.21.39.25.36.25 1.02-.68-.02-.57-.39-1.17 0 .05.74.32.17.33 1.02-1.94.55-1.06-1.14-1.84-1.73-.68-.5-2.35 1.2-2.41 1.32.21 0 1.51-.27 1.75.19.13.25.07.06 0 .22l.22.54c0-.02.02.05.03.07.15-.55.05.1.45.47.24.22.62.29.89.45-.16.85-.57.39-.33 1.63-.5.41-.62.88-2.03-.27-.39-.31-.6-.5-1.02-.11-.27.25-.61.57-.7.99.94 0 .94-.38 1.5.41l.02-.43c.46.65.17.6.15.63.94 2.17 1.2.92 1.83.41.3.69.13.51.08 1.22.21.12.27.06.41.32.28.52.04 1.28-.55 1.65-1.23.78-1.16.17-2.28.17-.12.22-.19.3-.25.61.4.23.52.01 1 .4 2.01 1.64 1.51-1.06 2.33-1.32.6.06.49.36 1 .41-.11-.6-1.07-1.51-1.34-3.36-.39-2.71 1.05-4.32 1.92-5.92z"/><path class="fil4" d="M8.36 23.75c0 1.36 1.32 1.07 2 .8l1.07-.63c.17-.12.38-.26.5-.41.86-1.04-.5-2.19-2.02-1.5-.13.56 0 .26-.29.69-.44-.04-.35-.18-.67-.28-.31.25-.58.69-.58 1.33z"/><path class="fil1" d="M23.29 25.48c.18-.47.24-.81.37-1.39.46-1.98.47-.72.22-2.08-.66.07-1.47.73-1.86 1.19-.45.55-.81 1.52-.81 2.37.82 0 1.31-.1 2.09-.1z"/><path class="fil2" d="M17.2 11.38v.85c-.41-.36-.06-.8-.74-.73-.52.06-.36.47-.84.63-.06-.29-.15-.43-.38-.56-.97-.55-.75.75-.25.92.23.08.37 0 .6.08.29.1.14.26.53.26.53 0 .63-.2 1.17-.2.31 0 2.17.6 2.17-.92 0-.51-.65-.66-1.02-.69-.35-.03-.96.23-1.23.35zM6.52 31.9c.44-.48.37-.21.49-.18.68.18.55-.76-.3-1.08-1.28-.47-2.37.4-2.37 1.36 0 .66.29.04.83.61.22-.18.17-.05.25-.41.4.26.37.41.58.41.78 0 .45.01.83-.31-.1-.33-.23-.11-.33-.41z"/><path class="fil4" d="M16.06 13.82c-.86-.09-.66-.47-1.53-1.18.07.96 1.65 2.09 2.49 2.17.89.08.82.32 2.34.17l.02-.97c.57-.14 1.41.05 1.65-.36-1.13-.32-2.38.41-3.84.41-.51-.07-.83-.22-1.14-.25zm-1.95 4.94c.17-.16.68-.93.5-1.31-.43.1-.49.85-.5 1.31zm-2.84-2.96c.52-.1.58-.32.58-.61-.34-.2-.53-.18-.58.61zm-3.42.92c.6 0 .82.04 1.1-.41-.13-.27-.27-.3-.51-.41-.4.84-.33.39-.58.82zm10.43 2.65c.2.19.23.19.41.31-.01-.46-.03-1.24-.42-1.43v1.12zm7.25-8.15c.69.2.62.42 1.07-.12.19-.23.23-.2.27-.59-.33.11.01-.01-.29.15-.14.08-.22.11-.37.17-.36.15-.51.12-.68.39zm-.75 4.08c-.07-1.1-.9-.09 0 0zm-7.17 4.69c.02.02.04.02.05.05l.5.51c.13.15.01.08.2.16 0-1.16-.51-1.27-.75-.71zm-4.42.71c.37-.06.82-.27.58-.82-.45.06-.08-.13-.36.27-.18.25-.18.17-.22.54zm-2.9-1.33c.09.28.17.33.38.21.25-.13.23-.25.35-.52-.45 0-.52-.05-.73.31zm-2.69-5.5c1.17 0 .65-1.31.22-.45-.1.19-.12.28-.22.45zm-.5-5.71.26.39c.75.02.8.04 1.07-.6-.4.01-.43.14-.69.19-.45.09-.32-.15-.65.02zm2.34-4.18c.88 0 .84.19 1.34.2-.15-.51-1.26-1.28-1.34-.2zm5.76-1.33c.3-.05.32-.03.31-.51L15.32 2c-.26.22-.28.24-.12.65zm8.84.1c.24.83 1.09.31 1.29-.61-.33.09-.29.17-.6.34-.24.13-.44.15-.69.27zm2.04 3.74c0 .31.02.13-.04.44.47 0 .96-.06 1-.71-.24-.08-.15 0-.42-.31l-.54.58zm-1.96-.48c0 .31.09.53.17.71.25-.08.7-.63 1.3-1.06.2-.15.3-.18.37-.47-.45 0-1.84.07-1.84.82zm-11.43 5.81c0-1.3.87-1.57 1.7-1.89.51-.2 2.16-.75 2.55-.76-.32 1.06-3.67.48-4.09 2.65h-.17zm2.84 3.87c-.1.47-.13.09-.17.61.53.15.36-.1.82-.07.45.03 1.98.38 3.02.38h.33c0-.51 0-.9-.17-1.33-2.09 0-3.51.12-4.58-1.54-.27-.42-.64-1.01-.68-1.62h-.17c0 .4.02.58.1.9.17.73.2.27.24.83-.3-.12-1.73-1.95-.25-3.16.33.3.04.37.59.5 1.04.26 1.69.02 2.73-.22.93-.22 2.49-.65 3.35-.27.27.12.4.29.59.4.32.18.42 0 .83 0v.2c-.94.31-.74.83-.42 2.55 1.2-.12 1.9-2.2 1.98-3.2.06-.75-1.63-2.56-2.56-2.31-.19.98.57 1.25 1.49 1.95.29.22.41.29.47.85-.39-.23-.19-.26-.53-.58-.37-.35-1.09-.45-1.29-.66-.24-.24-.07-.38-.39-.64-.36.12-.18.21-.48.54-.72.81-1.39-.22-1.63-.52-.48-.6-.26-.53-1.15-.53.01-.47.22-.45.42-.82-.45-.3-1.26-.06-1.79.06-1.75.38-3.12 1.12-4.41 2.56-.29.32-.31.33-.23.83.05.31.11.74.2 1.09.19.81.34 1.14.74 1.74.68 1.02.28.6 1.48.62.74.01 1.2.3 1.5.84zm3.17-7.75c.41-.13.06-.19.58-.2-.29.33-.49.41-.5 1.07.41.46.58.65 1.3.32.72-.34.77-1 .62-1.8l-1.08.21-.09-.41c-.51 0-.74.01-1.16-.11.03.33.21.68.33.92zm-5.84-.26c-.19-.12-.04-.02-.18-.22-.42-.62.24.21-.11-.18-.45.92-1.02 1.89-1.04 3.21l1.18-1.1c.62-.53.84-.33.91-1.44.09-1.37 1.14-2.66 2.08-2.66 1.44 0 .98-.09 1.44.38.3.31.25.14.61.28.51.21.47.77 1.12.77.26 0 .26-.09.58-.13l.04.15c.06.26-.06-.12.04.18.23-.1.11-.17.42-.36.02.32-.03.61.91.5.32-.04.29-.23.88-.6 1.15-.73 1.83.02 2.13.05-.64-1.49-2.16-1.01-3.17-.41-.31-.78.2-.52-.71-.96-.39-.19-.79-.36-1.29-.36v.51c-.29-.09-.65-.44-.92-.61-1.22-.79-2.86-.4-3.87.68-.23.24-.15.14-.32.42-.28.46-.65 1.34-.73 1.91z"/><path class="fil1" d="M32.71 19.06c-.21 1.1-.45 1.16.57 1 .19-.03 1.43-.09 1.63-.24.15-.11.29-.6.28-.78-.02-.44-.35-.29-.68-.23-.64.13-1.23.09-1.8.25z"/><path class="fil2" d="M13.06 27.28c.04-.15.06-.42.06-.68-.7-.45-.23-.49-.83-.51-.09.41-.95 1.57-.47 2.11.27.31 1.46.16 1.64-.68-.36-.04-.16.07-.39-.24z"/><path class="fil1" d="M7.11 30.17c0 .95 1.73.47-.42 2.75.58 0 .89.14 1.14-.34.07-.13.36-1.16.36-1.29l-.58-1.83c-.31.1-.5.31-.5.71zM16.45 31.9c.47 0 .64-.05 1.01-.09.43-.05.65.01.74-.42-.82-.48-.67.59-1-1.12l-.39.34c-.16.18-1.28 1.29-.37 1.29z"/><path class="fil2" d="M20.95 11.52c-.46-.37-.42-.35-1.17-.31-.17.41-.31 1.21.26 1.27.49.06.9-.22.91-.96z"/><path class="fil4" d="M16.03 21.81c-.24 0-.37.37-.42.61.86.31 1.21.51 1.84 1.02 0-1.04-.69-1.63-1.42-1.63z"/><path class="fil2" d="M19.03 30.49c.01-.02 0-.05 0-.06v-.13c.01-.17-.11.25.01-.14.09-.3-.2-.14.23-.2l.09.4c-.15.26-.08.27-.42.31v.2c.52.15.83-.06.83-.82-.46-.37-.42-.33-1.17-.31-.45.01-.81.07-1 .45.3.13.39-.08.89 0-.29.27-.16-.03-.22.39l.75-.1z"/><path class="fil1" d="M26.37 29.76c-.04.09-.19.73-.21.89-.04.41.12.31.38.26.45-.07 1.07-.22 1.5-.23v-.2c-.97-.28-1.04-.65-1.67-.71z"/><path class="fil4" d="M23.2 8.97c0 .39.38.75.58.92.15-.95-.02-.55-.17-1.22.01-.11.6-1.41-.08-1.63 0 .36.03.75-.03 1.08l-.3.85z"/><path class="fil1" d="M12.69 25.79c.16.29.82.91 1.08 1.12 0-.72.12-1.38-.37-1.44-.01 0-.03-.01-.04-.01-.3-.01-.47.17-.67.33zM15.2 7.75c.44 0 1.39-.15 1.67-.31-.28-.5-1.02-.72-1.4-.28-.11.14-.23.39-.27.59z"/><path class="fil4" d="M14.53 6.37c.1.11-.14.24.32.05.54-.22.34-.41 1.6-.41.27 0 .11.19.54-.1-.53-.12-.89-.27-1.45-.08-.27.09-1 .28-1.02.54zM14.45 22.83c.22.02.44.09.7.16.37.09.34.12.63.05v-.41c-.36-.01-.4-.13-.74-.09-.37.04-.47.1-.59.3zM22.97 7.54c.01.19-.32.2-.43.72.29-.09.19-.04.33-.31.17.11.2.14.42.2 0-.74-.05-1.13-.42-1.43l.1.81z"/><path class="fil2" d="m17.78 13.76.89-.13c.46-.11.32.03.44-.31-.15-.15-.63 0-.84.02-.42.04-.46-.12-.5.42z"/><path class="fil1" d="M21.45 7.54c.04.53.41.6.75.51 0-.37.03-.88-.75-.51z"/><path class="fil4" d="M14.53 22.42c.38 0 .66-.05.93-.21l-.05-.36c-.58.04-.73.23-.88.56z"/><path class="fil2" d="m17.03 13.85.21.03.29-.02c-.02-.32-.06-.49-.33-.5-.28 0-.36.13-.42.4l.25.08zM25.54 18.04c.21-.06.11-.01.3-.14.16-.11.08-.06.27-.18.12-.07.16-.1.28-.17l.32-.22c-.59 0-1.04.15-1.17.71z"/><path class="fil4" d="M17.03 23.85c-.03-.46-.39-.75-.75-.87.07.59-.01.25.75.87z"/><path class="fil1" d="M14.03 28.64h.1c.12-.54-.02.09.17-.3.01-.02.14-.02.04-.27-.13-.32-.36-.02-.47.06.08.38.08.13.17.51zM14.61 26.6c.28-.23.41-.35.42-.92-.3.24-.32.43-.42.92z"/><path class="fil2" d="M18.7 31.09c-.16-.28-.24-.44-.58-.2.15.2.35.44.58.2zM19.53 13.14c.1.18.01.21.25.21h.08c.31 0 .28-.08.33-.31l-.67.09z"/><path class="fil4" d="m8.77 11.01.02.16.15.05c.08-.14.08.22.08-.31l-.23-.33-.02.43z"/><path class="fil2" d="M17.75 30.95c.23-.11.01-.28-.14-.37-.02.18-.16.5.14.37z"/><path class="fil0" d="M36.3 21.1c.06-.14.05-.11.08-.31h-.25c.05.28-.03.16.17.31z"/><path class="fil2" d="m8.4 11.31.28.03c-.13-.15.25-.15-.14-.11-.29.03-.03-.02-.13.08z"/><path class="fil4" d="M35.88 18.14c.18.27 1.02.5 1.17-.2-.22-.15-1.02-.23-1.17.2zm4.5-.41c.51.3 1.3.27 1.75 0-.2-.93-1.49-.44-1.75 0z"/><path class="fil2" d="M38.62 25c2.2.61.98-.13 1.94-.13.25 0 .09.64 1.1-.38 1.43-1.45.49-1.29.15-1.86.07-.3.21-.44.36-.68.67-1.07.48-1.47.48-2.27l-.97.35c-.24.17-.1.03-.24.26.11 1.3.04 1.02-.46 1.93.22.37.16.07.42.41-.44 0-.37-.11-.52.28l-.39 1.27c-.07.14-.46.52-.34-.03.03-.15 0-.04.07-.2.7-1.86.25-1.58.7-2.22.5-.7.59-2.6-.89-1.49-.49.36-.21.5-.21.86 0 .4-.11.6-.14.96-.06.68.22.3.22.77 0 .64-.08.84-.22 1.16-.21.46-.12.67-.45.78 0-1.27.92-2.04-.17-2.04.16-.73.68-.86.25-1.94-.3.13-.53.25-.82.42-.12.07-.08.05-.22.13-.61.35-.53.09-.37 1.28.43 0 .32-.09.5.2-1.22.35-.45.71-1.08 1.22.1-.53.57-1.71.08-2.14-.48.16-.18.4-.08.92-.49.41-.37.26-.53 1.11-.15.8.31.63 1.84 1.06z"/><path class="fil1" d="M41.22 19.77c.78 0 .36-.16 1.34-.4.51-.12.33-.13.41-.21-.77-.23-1.49.14-1.75.61z"/><path d="M34.35 25.86c.16-.02.94-.59.94-.84 0-.61-.59-.86.69-1.22.35-1.84-.41-.99-.62-.91-.92.32-.59-.06-.97 1.73-.1.47-.06.86-.04 1.25zm2.25 4.36c.22 0 .34-.42.69-.46 0 1.55-1.56.63-1.19.08.3.1.2.38.5.38zm-3.57-.84c.08-.35.2-.3.44-.23v.23c-.13.04-.3.14-.44 0zm-4.19-1.53c.28.03.36.15.58.09.33-.1.2-.19.55-.09-.01.78-.88.67-1.16.42l.03-.42zm11.14-.69c-.24-.02-.33-.05-.44-.23.04-.29.25-.05.44 0v.23zM25.9 25.63c-.02.18.1.31-.38.31-.21 0-.18-.14-.19-.38.3 0 .39-.04.56.08zm12.64-12.01c0-.43.41-.72.81-.46-.16.29-.79.54 0 .77l-.63.23c-.09-.17-.19-.25-.19-.54zm2.88-1.61c-1.71 0-.07-1.05 0 0zm-11.64-.23c0-.2.63-.54.63 0 0 .16-.46.33-.63.15v-.15zm5.26-1.15c-1.21-.34-.46.09-1.69-.54.39-.71.95 0 1.06 0 .31 0 .28-.07.55-.06l.2.3-.13.3zm-3.26-1.14c-2.07 1.45-2.2 1.75-3.66 3.63-.16.21-.41.6-.47.88 1.07-.3 1.45-.9 2.27-1.28 2.51-1.19 1.26-1.33 4.61.61l2.2 1.37-.36.94c-.69.87-.49.97-1 1.69-.23.33-.43.56-.27.97.26-.03.57-.58 1.07-.68.29-.06 1.34.17 1.28-.27-.08-.56-.42-.33-.72-.51.21-.49.24-.03.99-.17l2.76-.61c.18-.09.28-.27.45.02-.27.45-1.98.63-2.5.77-.35.09-.59-.1-.62.38.38.11.21 0 .63 0 .02.3.06.2.06.54-.7.18-.09.08-.87.69l-2.33 2.05c-.43.6-.07-.24-.82 1.29-.59 1.2.62.75 1.39.24 1.23-.82 2.47-2.12 3.78-2.65.38-.15.4-.29.8-.4-.02-1.08-1.74-.01-1.95-.01-.38 0 .18-.89.26-1.06.28-.61-.08-.84.81-.84-.11.25-.45.68.04.67.84-.01 1.33-1.26 2.65-.52.24.13.31-.01.62.01.29.01.37.15.38-.39-.24-.14-.49-.15-.76-.09-.56.14-.36.08-.39-.36-.04-.51-.5-1.01.72-1.01-.13.59-.31-.03-.31.77.72.59.88-.14.89-.14.13-.23-.07-.15.3-.17.14.76-.15 1.17-.06 1.68.09.53 1.59-.4.84 2.02-.16.5-.28 1.13-.28 1.73-.34-.28-.29-1.35-.19-1.77.2-.82 1.02-1.5-.9-1.25-.44.06-.27-.2-.6-.27-.23-.05-1.27.2-1.56.23.18.3 1.06.43 1.38.46.51.04 1.62-.56 1.28 2.34-.07.58-.22 1.37-.22 1.87.13-.16.26-.36.5-.38 0 .55-.7 2.19-1.42 2.85-.46.42-.84.91-1.52.98v.31c.2.09.09-.17.13.23-.87.09-.28.03-.87-.32-.34-.2-.75.1-.89-.52 1.39 0 1.94.5 3.34-1.58l.6-1.25-1.91 2.26c-.89.74-4.87-.47-4.91-1.03l.44-1.3.01.34.19-.47c-.04-.54-.06-.54-.14-.94-.74.02-.3.64-.5 1.38-.36 1.36-.49.46-.82 1.07.12.56 1.19.65 1.38.99l-.77-.21c-.77-.13-.61.18-1.26.72-.21.17-.35.34-.47.57.17.32.72.64 1.03.81 1.18.65 1.04.3 1.37.47.26.13.08.21.34.22.14.01.31-.13.51.03-2.12.6-2.86-1.22-3.97-.72-1.57.71-1.88.59-2.91.1-1.95-.95-3.45-2.79-4.65-4.79-.69-1.14-.47-1.65-.86-2-.22.07-.25.22-.44.69-.48 1.24-.52 1.6-.32 3.07.58 4.21 1.38 4.91 5.05 6.37 1.27.5 3.19.78 4.2 1.07 1.46.42 7.5-2.82 8.25-3.65.37-.41.31-.63.78-.88.19-.1.21-.09.38-.23-.01-.54-.27-.39-.13-.77.34.15.58 1.22.85-.8.14-1.07.05-.87.53-.73 1.11-1.56 1.21-1.23.81-3.29-.34.11-.41.65-.75.77.04-.64 1.35-2.26.94-3.98l-.35-1.33c-.72-2.64-1.26-2.91-1.41-3.55-.19-.81.32-.92-1.59-2.11-1.76-1.09-3.69-1.6-5.58-2.12l-2.21-.41c-1.35-.01-1.56.04-2.56.73zm3.76 10.02 1.25-.84c-.81-.48-1.61.02-1.25.84zm3.12 1.34c.16-.09.36-.16.43-.21.07-.05 1.41-.89 1.45-.91.34-.17.12-.28.52-.43.26-.1.22 0 .36-.25-.21-.17-.38-.24-.58.05l-1.3.85-1.81 1.31c.09 0 .15.03.19 0l.74-.43z" style="fill:#00f"/></g></g></svg>