<svg xmlns="http://www.w3.org/2000/svg" xml:space="preserve" width="80" height="96" style="shape-rendering:geometricPrecision;text-rendering:geometricPrecision;image-rendering:optimizeQuality;fill-rule:evenodd;clip-rule:evenodd" viewBox="0 0 26.79 32.14"><path d="M3.85 14.98c-.32-.21-1.55-1.93-2.3-2.12-2.8-.74-1.16 2.75-.23 3.73.17.18.81.54.8 1.25-.01.78.05 6.99 0 7.2-.16.81-.08 4.71-.08 5.78 0 1.54.34 1.33 1.93 1.33l7.71-.04 1.16-.05c.49-.05 2.06.07 2.86-.03.25-.03.3.06.55.08.7.05 2.33 0 3.18 0 .27 0 .35-.04.6-.04 1 0 3.49.07 4.43-.03.2-.02.42-.05.6-.05v-2.13h-.92V25c.92 0 .99-.44.86-1.26l-.61-4.49c-.17-1.67-.04-.66.4-1.63.29-.65.03-1.8.38-3.2.47-1.86 1.62-2.24 1.62-3.2 0-.56-.43-.72-.92-.72-.73 0-2.48 2.23-2.89 2.45-.2-.31-.12-.07-.12-.52-.19.05-.22.06-.33-.12-.31-.52-.81-1.38-1.22-1.76-.66-.6-1.2-1.62-1.48-2.54-.39-1.32-.84-1.72-1.38-3.32-.6-1.81-1.95-3.54-3.67-4.37-1.39-.67-2.28-.12-3.44.64-1.73 1.13-1.94 1.6-3.07 3.12-.44.6-.82 1.25-1.2 1.89-1.97 3.27-1.89 3.07-1.98 7.26-.01.68.31.43-1.24 1.77z" style="fill:#000"/><path d="M5.66 13.77c.44-.21.49-.65 1.18-.74.04 0 .07-.01.11-.02l.06-.03c.18-.09.05-.54.21-.95.3-.76.8-1.26 1.13-2.16.45-1.23.11-2.56.54-3.84.57-1.73 1.71-3.45 3.2-4.47.21-.15.51-.25.7-.39-.33-.11-.67.25-.99.32.2-.35 1.14-.71 1.73-.57.52.13 1.06.64 1.46.91 1.8 1.24 1.71 1.14 2.54 3.37.11.3.26.58.35.86.23.71-.01 1.51.03 2.25.03.46.55.99.89 1.49l.97 1.41c.24-.1.3-.3.7-.39.12-.03.22-.02.32-.1-.27-.46-1.06-1.21-1.35-2.28-.08-.31-.17-.66-.27-.93-.23-.59-.54-1.04-.79-1.62-.65-1.53-.37-1.6-1.56-3.27-.61-.85-1.71-1.76-2.76-2.06-.78-.22-1.36.14-1.88.47-.48.31-1.03.64-1.44.97C9.4 3.08 8.52 4.65 7.6 6.09c-.54.84-1.47 2.17-1.68 3.14-.23 1.05-.34 3.42-.24 4.53zm1.79-.51c.27-.68.81-1.41.8-1.74 0-.23-.03-.54-.14-.71-.36.27-1.14 1.9-.83 2.34.1.13.04.06.16.11zm1.28 1.25c.49-.15-.05-.05.78-.22-.08-.26-.26-.4-.42-.55-.16.18-.26.5-.35.77zm1.11 1.29c.59.01.9.34.66.95-.14.37-.61.8-.58 1.17.35 0 .35-.05.53-.21.16-.13.27-.19.52-.24.31-.07.79-.45.63-.81l-1.08-1.21c-.14-.14-.24-.26-.36-.4-.1.09-.31.62-.33.75zm5.61.4c.74-.22.37-.45 1.68-.49.04-.41-.67-.84-.04-1.68.15-.19.23-.19.49-.31-.02-.35-.09-.43.16-.68.2-.21.37-.22.72-.22-.05-.14-1.13-.95-1.28-1.03-.28.49-.08 1.25-.8 2.26-.4.56-.88 1.37-.94 2.15zM9.69 31.49c.12-.4.01-5.23.05-6.28-.93.01-6.68-.09-7.05.03-.05.04-.05.26-.05.34V31.19c0 .02.01.16.01.17l.05.17c.49.06 1.24.02 1.77.02.86 0 4.97.05 5.24-.07z" style="fill:red"/><path d="M14.09 9.97c-.17-.24-.48-1.7-.44-2.1.22.3.47 1.63.44 2.1zM11.31 7.4c-.02-.12 0-.02-.06-.05-.09.13-.03.09.04.13.03-.06.04.01.02-.07zm10.01 11.93.02-.22-.23-.05c.01.23 0 .26.22.27zM13.15 1.86c.19.01.19-.11.38-.18l.07.17c.05.11.02.04.05.08.12-.07.04 0 .12-.11l.16.12a.726.726 0 0 0-.09-.49c-.09.06-.07.07-.15.14-.03-.07.01-.01-.04-.08l-.06-.07-.02-.02c-.14.06-.16.11-.29.16-.01-.18.03-.21-.11-.26-.06.18-.05.32-.02.53zM8.44 19.89c.16-.23.33-.38.51-.61.18-.22.32-.41.52-.65.25-.31.2-.44.33-.84.09-.27.36-.6.39-.75-.16.09-.4.42-.51.64-.55 1.15.03.28-.85 1.48l-.39.5c-.11.19 0 .24 0 .24zm-4.16-.81c.29-.09.59-.26.87-.38.5-.22.45-.13.5-.75-.33.09-.89.47-1.14.71-.12.12-.22.16-.23.42zm10.1-11.41c.15.12.3.16.51.19-.04-.2-.15-.33-.05-.56.16-.35.73-.36.87.03.1.28-.01.4-.11.58 1.02-.25.76-1.07.19-1.15-.6-.08-1.25.65-1.42.91zm-3.48.19c-.11-.13-.25-.18-.24-.47.01-.54.66-.59.82-.25.11.23.01.44-.04.63.22-.03.51-.1.66-.22-.13-.23-1.05-1.11-1.58-1.03-.51.08-.89 1.45.38 1.34zM4.27 19.4v.49c.33.09.66.33 1.07.43l.21-1.61c-.32.07-1.18.48-1.28.69zm2.25 7.27.02 3.73h1.32v-.69l-.43-.03-.03-1.16c.21-.01.41.03.46-.11.05-.12.03-.41-.01-.53l-.42-.03-.02-.81.44-.01v-.65l-1.34.01v.29zm-1.31 3.05-.03-2.44c.01-.17 0-.18.1-.25.29.11.19 1.09.19 1.36-.01.26-.01.52-.02.78-.01.52.03.56-.24.56zm-.87-3.31c-.05 1.03-.02 2.6-.01 3.71 0 .37.1.28.46.28.41-.01 1.11.09 1.34-.18.27-.31.17-2.26.16-2.83 0-.48 0-.92-.46-1-.28-.05-1.24-.06-1.5.02zm19.23-1.25c-.19-.01-1.06-.04-1.17.03-.15.09-.08.92-.08 1.16 0 1.31-.06 3.79 0 4.94.01.3.1.24.39.24l1.82-.01-.01-1.16c-.17 0-.68.02-.81 0-.14-.03-.11-.08-.1-.26.01-.8.02-4.73-.04-4.92zM2.62 19.03c0 1.04-.04 4.49.01 5.41h2.3c.07-.32.08-.97-.04-1.23-.31-.05-.58.01-.89-.01-.06-.48-.02-4.29-.02-5.09 0-.51.12-.38-1.36-.37v1.29zm18.67 7.19H22v-1.06l-2.09.03v6.37c.4.04 1.66.01 2.09.01l-.02-1.1-.7-.01c0-.39-.03-1.59.02-1.89h.7l-.02-1.05-.69-.01v-1.29zm-6.86 3.25c-.01-.73.1-1.72.22-2.44.16.65.23 1.74.25 2.44h-.47zm-.16 1.14.78.01.1.9 1.28-.01-.83-6.34-1.75.02-.82 6.34c.27.01.96.07 1.17-.04l.08-.87zm-2.83-4.38c.45.03.35.15.36 1.08.01.96.08 1.01-.35 1.03l-.01-2.1zm-1.37 1.36v3.98h1.36v-2.11c.48-.12 1.15.02 1.48-.3.43-.42.32-2.6.23-3.22-.1-.7-.5-.78-1.17-.78h-1.91v2.42zm7.86-1.36.27.04c.13.29.15 1.77.01 2.04h-.28l.01-2.09zm0 3.23c1.73-.13 1.79.12 1.7-2.87-.03-.85-.01-1.3-.85-1.42-.53-.08-1.62-.02-2.2 0-.07.25-.02 5.65-.02 6.39.26.03 1.11.06 1.32-.03.14-.39 0-1.57.06-2.07zm4.46-7.18c-.01-.35.16-2.26.27-2.46.1.18.24 2.11.27 2.49l-.54-.02zm-.62-4.52-.65 4.97c-.06.47-.19 1.27-.17 1.73.44.01.74.05 1.17-.05.09-.33.08-.56.12-.88.19-.05.58-.06.79-.01.1.3.03.59.16.89.21.08.39.06.63.06l.48.01c.19-.03.08 0 .15-.07.13-.15-.31-2.88-.37-3.3-.07-.55-.15-1.11-.22-1.66-.07-.57-.1-1.14-.26-1.66-.35-.1-1.41-.05-1.82-.02zm-6.55 4.53c-.05-.8.23-1.8.28-2.59l.22 2.6-.5-.01zm-1.48 2.17c.32 0 .97.07 1.21-.03l.1-.93.83.01.09.95h1.34c.01-.47-.76-6.26-.89-6.69l-1.65-.03c-.23.02-.19.09-.21.33-.03.31-.07.62-.11.93-.11.83-.72 5.03-.72 5.45zm-7.21-2.18c-.01-.38.18-2.19.28-2.54.09.47.28 2.1.24 2.54a1.3 1.3 0 0 1-.52 0zm-.55-4.49c-.13.29-.9 6.09-.9 6.66l1.21.01.11-.95h.8c.05.24.08.76.16.92.19.07 1.08.08 1.24 0 .14-.29-.73-5.84-.8-6.68-.45-.02-1.45-.09-1.82.03zm7.53 3.71c-.29-.08-.99-.08-1.28-.01-.2.49.08 1.24-.09 1.78-.16.1-.31.08-.52.03-.12-1.06-.02-2.28-.04-3.36 0-.22-.04-.64 0-.84.05-.25.35-.31.51-.17.18.16.11 1.26.12 1.61l1.26.01c.14-.35.1-1.84-.05-2.21-.28-.7-.96-.66-1.84-.63-.82.03-1.31.24-1.35 1.07-.03.52-.04 4.49.02 4.82.14.8.69.92 1.53.92.85 0 1.5-.02 1.72-.74.13-.43.12-1.84.02-2.28zm-1.57-7.39c.03-.03.02-.02.08-.06l.47-.26c.2-.08.47-.13.7-.1.47.06.89.26 1.14.49-.39-.08-.67-.29-1.16-.32-.65-.03-.75.18-1.23.25zm-1.05-.72c.55-.8 2.12-1.01 3.27-.51.34.15.65.29.81.63-.43-.14-.71.01-1.08-.15-.89-.38-1.14-.3-2.01-.01-.21.07-.31.08-.52.01-.28-.09-.17.02-.46.03zm-.86-1.24c-.21.25-.24.38-.4.65-.2.35-.27.32-.11.78.22.63.4 1 .78 1.38.69.7 2.18.98 3.41.76.62-.11 1.1-.34 1.5-.67.96-.78 1.37-1.42 1.66-2.68.07-.32.17-.62 0-.88-.12-.17-.38-.46-.54-.55-.03.79-.24 1.28-.69 1.59-1.1.75-1.66-.54-3.88-.03-.33.08-.65.15-1.01.09-.52-.09-.58-.34-.72-.46zm8.74 9.73c-.22-.14-.97-.05-1.27-.04-.07.44-.04 1.14.01 1.59.05.51.25.88.68 1.01.36.11 1.2.1 1.59.07 1.16-.11 1-1.33.96-2.39-.02-.67-.16-.84-.54-1.14-.54-.43-1.29-.81-1.35-1.19-.17-1.16.37-.95.48-.83.07.07.04.97.07 1.21.26.08.66.05.98.05.42 0 .36 0 .37-.67 0-.61-.02-1.37-.46-1.64-.39-.24-1.4-.23-1.92-.17-1.29.15-.97 2.68-.64 3.09.19.24.88.67 1.21.92.19.14.42.29.47.58.04.2.06.81-.06.96-.07.09-.3.13-.42.05-.14-.09-.06-.8-.06-.98.01-.26.02-.36-.1-.48zm-17.38-7c.38-.2 1.28.04 1.44.36-.21-.04-1.34-.28-1.44-.36zm5.71-.94.14-.68c-.62-.17-.66-.13-1.1.22-.45.35-1.91 2.08-2.5 2.21-.15-.16-.33-.51-.66-.83-.25-.24-.89-.97-1.13-1.16-.11-.09-.31-.25-.44-.33-.36-.22-.93-.17-.96.31-.02.38.88 1.58 1.08 1.95.1.17.95 1.82 1.18 1.86.45 0 1.02-.05 1.42.08.13.35.07.61.1 1.01 0 0 .79-.51 1.22-.71.22-.1.2-.15.26-.37.47-.02.61 0 .95-.23.39-.26.38-.31.63-.53-.15.48-.5.49-.65.71l1.4.06c.04.33.05 1.01.17 1.26.38.06.6-.15.85-.29-.11-.35-.36-.18-.42-.6.16.02.2.06.31.01l.07-.26.34.19-.06-.62c.18-.06.35-.14.58-.2.31-.07.42.03.48-.32.05-.28.02-.47-.15-.63-.23-.21-.37-.07-.66-.02.09-.45.65-1.06.29-1.42-.16-.16-.5-.2-.76-.13-.32.09-.36.28-.64.36.08-.5.38-1.01.6-1.36.25-.41.51-.81.75-1.26.21-.4.42-.93.61-1.36.16-.37.61-1.21.07-1.42-.49-.19-.95.55-1.13.8-.28.38-.53.83-.8 1.21-.54.77-.69 1.05-1.07 1.9-.11.25-.17.48-.39.59zm12.79.89c-.02.39-.58.66-.75.57l.75-.57zm-.42-.94c-.64.02-.84-.24-1.02-.73.28.1.35.15.58.29.19.11.39.18.43.44zm1.51-.49c.22 0 .5.07.7.01.17-.05.31-.2.48-.24-.11.17-.04.14-.21.27-.34.26-.42.36-.97-.04zm2.97-.29c.07-.12.42-.33.55-.46.15-.15.33-.41.51-.49.39-.17.38-.02.64-.36.46-.61.18-.54.4-.62.12.31-.14.52-.28.7-.15.2-.3.36-.45.55-.23.3-.25.48-.52.52-.29.04-.6.14-.85.16zm-4.74.28c-.4-.01-.77-.75-1.38-.31-.6.44.23.91.26 1.29-.27-.08-.42-.39-.64-.48-.28.12-.54.41-.57.84-.02.23.08.38.16.53.15.28.26.75.47.94.13.13.3.22.4.32.26.25.09.96.45.92-.01-.11-.14-.51-.18-.67-.13-.48-.64-.64-.78-.99-.08-.19-.2-.48-.26-.67.08.04.43.35.51.45-.03.22-.16.17.05.39.52.53.74-.11 1.11-.31 0 .24-.12.31-.27.42l-.42.27.79 1.11c.68.08 1.08-.08 1.61.32.39.29.38.67.46.98.05.17.1.15.28.21.1-.17.12-.47.14-.7l.08-.64c.03-.07.02-.04.05-.08l.61-.04c-.12-.13-.32-.22-.5-.33l-.34-.26c-.08-.06-.08-.06-.13-.12.42.16.81.49 1.25.65.55.2 1.27-.16 1.48.41.54-.32.46-1.07.47-1.78.03-1.21.31-2.54 1.01-3.5.29-.4 1.05-1.14.78-1.44-.26-.29-1.13.48-1.33.65-.38.33-.69.71-1.01 1.04-.89.91-1.02 1.1-2.13-.72-.18-.3-.45-.74-.65-1-.28-.35-.94-.06-1.16.15-.46.44-.14.72-.04 1.25-.31-.1-.47-.64-.89-1.15-.33-.4-.63-.75-.97-1.07-.4-.38-2.03-2.09-2.46-1.3-.25.47.32 1.22.51 1.43.34.38.65.72.96 1.08l.5.5c.48.39 1.36.99 1.7 1.42zm-6.88-3.58c-.08-.61.32-1.55.53-2.02.03.3-.42 1.87-.53 2.02zm3.2-3.14c.54-.13 1.01.41.82.87-.08.19-.3.33-.5.43-.43.21-2.13.1-1.44-.6.23-.24.71-.6 1.12-.7zm-3.33.98c-.33.22-1.12.39-1.61.36-.56-.04-.89-.57-.63-1.14.26-.56.75-.54 1.26-.2.3.2.95.63.98.99zm1.72-.29c.02-.19.38-.47.52-.6.2-.18.37-.34.66-.47.6-.27 1.22 0 1.33.57-.34-.35-.64-.81-1.35-.39-.33.19-.63.44-.9.67-.12.11-.12.13-.26.21zm-4.28-.62c.08-.24.34-.6.54-.71.79-.44 1.99.82 2.29 1.28-.45-.24-1.55-1.57-2.28-1.15-.11.07-.52.53-.55.57zm7.16-.27c-.12-.26.02-.54-.35-1.08-.2-.29-.48-.72-.81-.57-.09.04-.62.5-.84.6-.47.22-.86-.17-.57-.57.27-.37 1.38-1.08 1.94-.55.31.29.92 1.53.63 2.16zM9.91 4.23c.32-.18.26-.44.84-.2.35.14 1.46.56 1.6.81.22.39-.29.56-.62.38-.37-.2-1.2-.91-1.64-.49-.52.49-.36 1.22-.61 1.83-.09-.38.03-.76.01-1.16-.23.54-.65 1.75-.74 2.38-.08.58-.15 2.53.11 2.95.19-.2.41-.58.6-.84.37-.5.55-.47.79-.67-.04-.66-.32-.94-.06-1.14l.05.09c.04.15-.01.23.13.42.08.12.16.33.26.47.77-.2 1.07-.77 1.45-.96-.07.25-.41.55-.59.69-.12.09-.26.17-.41.23-.2.08-.35.06-.5.16 0 .33.15.19.26.44.09.19.05.43-.02.63-.19.55-1.07 1.79-.02 1.75.23-.01.57-.18 1.18-.24l-.04-.05c0-.01-.02-.02-.02-.02-.12-.12-.2-.14-.28-.25-.31-.42.12-1.14.56-1.12-.2.41-.62.31-.41 1.05.04-.11.04-.31.2-.28.23.05.46.79.95.86.36.05.7-.21.84-.36.14-.14.16-.19.31-.3.07-.05.11-.09.21-.08.1.01.07 0 .2.12l.03.03c0-.51-.3-.62-.42-.99.46.1.95 1.18.28 1.43l-.11-.16-.42.13c.2.14.88.3 1.17.31.47.02.71-.29.82-.68.39-1.39-.36-.92-.48-2.29-.36-.18-1.09-.47-1.14-.85.38.17.48.45 1.16.7.11-.08.11-.13.19-.21.1-.1.15-.07.28-.15l.01-.32c.16.08.12.16.19.34.22.09.41.13.62.26.19.13.31.28.54.38 0-1.04-.21-4.85-.72-5.74-.32-.56-.6-.73-1.1-1.07-.55-.38-.69-.29-1.66-.01-.91.26-.7-.11-1.67-.32-.49-.11-.89.43-1.24.83-.28.33-.7.82-.89 1.28z" style="fill:#fff"/></svg>