<svg xmlns="http://www.w3.org/2000/svg" xml:space="preserve" width="249.853" height="89.404" style="shape-rendering:geometricPrecision;text-rendering:geometricPrecision;image-rendering:optimizeQuality;fill-rule:evenodd;clip-rule:evenodd" viewBox="0 0 165.2 59.11"><defs><style>.fil3{fill:#c40a35}.fil4{fill:#c50733}.fil5{fill:#d8bac9}.fil1{fill:#fefefe}</style></defs><g id="Camada_x0020_1"><g id="_2087242002240"><path d="M138.97 55.74c.91 1.26-.81 3 1.39 2.99l9.94-.07c2.09.04 4.09.82 6.15.23 1.62-.47 3.63-1.84 4.28-3.29 1.53-3.44-1.51-3.04-.47-6.44.53-1.75 1.41-5.05 1.72-6.91.45-2.7 3.32-12.34 3.23-13.93l-10.92-.14c-.4-2.41 1.4-1.5 2.79-1.66.41-1.51 2.46-7.25 2.29-8.68l-4.5.02c.2-.24.2-.29.78-.33 1.99-.17 2.39.88 2.75-2.08.18-1.49.97-5.35.42-5.9-.88-.44-2.29.22-3.13-.37.1-.92.11-.75.9-.78.97-.04 3.25.21 3.91-.1.21-1.23-.37-6.84-.55-8.28L8.13.06c-.25.77-.45 1.33-.72 2.32-.26.93-2.23 4.99-2.16 6.05l3.23.08c.02 1.89-1.66 16.2-1.56 18 .9.16 4.21-.6 4.26.9.06 1.64-1.4.49-3.95 1.12-1.68.42-3.71 1.73-4.54 3.59-.3.67-.37 1.81-.51 2.61-.46 2.57-1.88 8.75-.67 10.9 1.65 2.94 6.63 1.64 7.77 2.34.15.63.08.69-.14 1.46-2.35.52-7.25-.47-9.12.25-.21 1.54.52 7.77.99 8.88 1.07.57 8.92.16 10.76.15 3.8-.03 4.07.03 6.79-1.98 2.1-1.56 1.07 1.82 6.13 1.95l10.72.04c2.2-.05 2.75-.86 4.45-1.35l.29 1.36 53.44-.05c.3-.54.5-1.13.78-1.96.7-2.13 1.4-1.34 1.52.22.11 1.5-.11 1.67.83 1.8l19.7-.02c2.1 0 20.09.21 20.49-.08.61-.94.94-3.73 2.07-2.89z" style="fill:#070909"/><path class="fil1" d="M32.76 52.01c-.98.18-3.09.5-3.8-.2-.28-.57-.21-.11-.14-1.04l2.04-13.36c.42-2.84.31-2.55 2.52-2.58 2.28-.03 2.24-.41 1.79 2.66-.51 3.49-1.6 12.13-2.4 14.52zM48.4 14.38c.73-2.86.39-3.04 1.26-2.96l-.01 6.57-1.93.05c-.04-1.19.39-2.5.68-3.66zm7.35 25.47c-.26-.24-.15-.07-.34-.48-.02-.04-.14-.41-.15-.46-.4-1.35-.9-5.69-1.57-7.73-.36-1.11-.32-.43-.94-.91-.39-.3-.08.33-.24-.31-.28-1.13 1.06-.46 1.31-.34 1.21.6 2.66.55 3.45.94.21 1.12-1.06 8.55-1.52 9.29zm-6.99-11.07c.01-.75.18-.2-.1-.61-1.86 0-6.48 1.53-6.92 1.53-1.18-.15-2.58.39-4.48-.07-.6-.14-.64-.11-.91-.69.29-.89.35-.53 1.05-1.02 1.77-1.26 6.78-5.09 8.43-3.2l-3.15 2c-1.67 1.25-2.79 1.28-2.95 2.22.62.29 1.25.02 1.79-.17.22-.23-.14 0 .37-.28l.26-.12.54-.13c1.59-.48-.02-1.45 2.36-2.18.57.1 2.55-.64 2.98-1.11-.44-.91-.7-.65-1.54-1.11-.5-3.18 1.91-2.14 3.29-2.35.51.68.16 1.78.45 2.57.4 0 1.78-.07 2.07.05 1.05.42.04 1.12 1.64.84 1.11-.08 1.89-.26 2.91-.52.79-.2 2.13-.85 2.52.28-1.31.5-1.81.69-2.99 1.34l-3.94 2.66c-1 1.07-1.39 1.65-2.61 1.44-.48-.08-1.16-.18-1.54-.53.15-.63.11-.55.48-.82zm9.67 1.04c.19-.55.31-.66.94-.66.49 0 .72.13.92.66-.57.72-1.36.6-1.86 0zm-2.61-2.12c1.26-.87 3.48-2.15 4.81-1.44-.12 1.61-1.42 1.83-2.43 2.32-.98.48-2.19 1.1-3.31.68-.16-1.2.4-1.2.93-1.57zm11.25-.99c-.1 1.14-1.11 1.13-2.62 2.3-1.45 1.12-4.47.48-2.61-.82.97-.68.88-.92 1.88-1.78.63-.54 2.75-.56 3.35.31zM64.94 6.12c.42-.13 1.74-.25 2.13-.04.63.35.3 1.4.2 2.45-.16 1.56-.29 3.9-.6 5.14-.63.12-1.75.38-2.26-.05-.49-.65.4-6.79.54-7.51zm2.77 23.04c.2-.61 3.42-4.46 6.02-2.89-.16.67.01.4-.54.83l-2.22 1.54c-.76.54-1.83 1.77-3.25.51zm15.76-2c-.52-.14-1.92.91-2.87 1.09-.11.36-.06.28-.15.68-.02.11-.13.33-.09.37.04.03-.03.13-.04.19-.85.05-2.3 0-2.99-.55.09-.88-.18-.31.43-.76.86-.63 3.95-1.94 4.93-2 .37-.56.29-.35.92-.41l2.65-.08c-.06.45-.05.72-1.08 1.02-.68.2-.97.14-1.7.45zm3.85-12.98c.23-1.22.49-2.88.99-3.14.28.34.25 6 .14 7.03l-1.68-.06c-.04-.56.42-3.18.55-3.83zm6.45 10.49c-.21.77.05.4-.62.82L88.1 28.8c-1.31.99-1.73 1.26-3.28.24-.83-.55-2.28.41-3.48.41l.81-.58c2.89-1.12 1.18.23 5.27-2.15.52-.3 1-.41 1.58-.69 1.62-.77 2.05-1.51 4.77-1.37zm3.14.14c.7-.46 2.15-.46 2.6.14-.79.69-1.75.1-2.55 1.02-.42.49-.3.63-.96 1.11-.38.27-.64.37-1.09.67-1.73 1.15-3.1 2.66-4.8 1.42.25-.91.8-.77 2.04-1.74.69-.54 1.65-1.12 2.42-1.28 2.86-.58 1.16-.56 2.33-1.33zm.84 19.67c.3.64.39 4.1.16 4.8l-3.27-.18c0-1.39.94-3.26 1.36-4.51.28-.83.46-1.38.79-2.22.21-.53.17-.59.31-1.1.32-1.22-.05-.73.61-.75l.04 3.96zm5.09-15.41-.45-.22c-1.28 1.09-3.13.92-4.57.94l-1.42-.29c.02-.02-.1-.07-.15-.11l-.9-.22c.04-1.14.77-1.03 1.55-1.54 1.93-1.27 4.37-1.82 6.65-1.61-.52.81-1.66.79-2.44 1.11-.94.38-1.29.79-2.02 1.16-.06.46-.27.19.31.45.55.25 1.27-.01 1.79-.22.58-.24 1.52-.61 2.21-.61.97-.11 1.67-1.05 2.79-1.42.54-.18 1.07-.25 1.65-.34.63-.1 1.23-.35 1.73.14-.32.92-1.45.96-3.08 2.43-1.85 1.66-1.92.63-3.63.36zm3.8-3.93c-1.39-.01-4.95.38-5.96-.41.92-.99 1.16.81 1.56-1.48.18-1.04.67-1.96.59-2.9l-3.81-.12c-.14-1.07.23-3.32.34-4.43l.83-8.99c.08-.72.16-1.59.24-2.32.04-.33.13-.96.14-1.15.05-1.01.1-.53-.15-.94-.46-.53-3.26-.32-3.88-.1-.8 3.16-1.97 20.56-2.5 21.56-1.66.38-1.37-2.52-1.51-4.59-.13-1.91-.38-4.16-.43-6.06l-.5-9.23c-.16-2.51-.46-1.83-3.71-1.83-1.47 0-1.56 2.56-2.21 4.62-.98 3.09-2.05 7.69-3.2 11.46-.33 1.08-.32 1.88-.69 3.02-.26.82-.71 2.11-.7 3.04.62.32 3.14.37 3.64.02.89-.78.29-1.69 1.12-2.59.48-.36 2.65-.52 2.77.41.05.39.03.16.06.63.1 1.72.23.99.8 2.19-1.81.78-1.9.27-3.62.13-1.4-.11-2.74.02-4.07.37-1.61.42-3.19 1.1-4.6 2.2-.82.64-.96.54-.94 1.79.74.7 1.78.69 2.72 1.22.12.82-1.37 9.83-1.71 10.86l-3.68.05c-.23-1.85 1.41-8.45 1.3-11.16-.94-.51-2.66-.19-3.72-.24.08-1.24 1.2-1.64 2.03-1.97.88-.34 1.8-.89 2.1-1.67-.75-2.91-5.44-.67-7.23-.96-.99-.16-1.53-.48-2.7-.48-.78 0-2.87.48-3.39.1.45-1.38.85.39 1.27-3.47.11-1 .18-3.75.7-4.37 1.48.56.66 5.89 1.76 6.95.77.36 3.34.55 3.84-.1.4-.66-1.04-5.52-1.18-6.81 1.72-.59 1.93-1.31 2.22-3.95.21-1.97 1.1-7.48.84-9.25-.4-2.76-4.43-2.06-6.07-2.06-1.89.01-4.03-.78-4.36 1.12l-1.04 9.4c-.19 2.22-.55 9.15-1.18 10.59-.9.09-1.6.08-2.44.31-3.1.83-2.15 2.22-3.13-10.73-.14-1.82-.28-3.72-.42-5.6-.44-5.91.41-5.06-3.19-5.07-2.06-.01-1.73.07-2.25 2.54-.59 2.8-1.86 5.51-2.34 8.32-.51 2.9-1.53 5.62-2.35 8.42-.25.85-.17 1.41-.47 2.23-.13.36-.23.53-.4.74-.48.55-1.95.82-3.76 2.06-.34.23-2.5 1.81-2.74 2.07-.02 1.04.18.87.27 1.74-2.82.29-5.93-.51-8.66.45-3.15 1.11-2.75 3.63-3.52 7.96-.6 3.4-.95 7.03-1.55 10.47-.22 1.27-.88 4.11-.45 5.39.39 1.15 1.82 2.06 3.16 2.06h11.19c1.08 0 1.84-.3 2.71-.92 2.36-1.7 2.38-6.78 2.95-10.33.44-2.74.83-5.1 1.11-7.92.12-1.25.57-2.74.6-4 .06-2.48-1.1-1.4-1.32-2.88l5.4-1.48c-.13 1.13-.58 1.81-.82 3.17l-1.11 6.82c-.24 1.33-.24 2.47-.44 3.64-.59 3.45-2.02 10.72-2.09 13.91l6.74-.01c.76-2.58.47-7.27 1.57-9.98.51.23.52 1.14.69 2.03l1.53 7.87c2.29.34 5.25.22 7.58.05 1.16-5.33 3.2-23.14 4.21-27.13 1-.23 2 .02 2.45 1.06.52 1.59-1.31 10.75-1.65 12.87l-1.88 13.16c2.01.33 5.13.21 7.21.02.69-3.04.87-8.21 1.49-10.39l3.92-.06c.21 2.43-1.44 7.73-1.4 10.4 1.63.42 5.53.22 7.36.08.72-3.6 1.6-9.02 2.08-12.83.32-2.58 1.4-11.5 2.14-12.97 1.99-.31 5.85-.3 8 .03-.03 1.49-1.91 5.15-2.4 6.48l-1.84 4.74c-.72 1.6-.86 2.43-1.26 3.33-.75 1.7-4.29 10.12-4.53 11.23l7.28-.03c.7-3.44.91-3.28 3.29-3.27 3.84 0 2.21-.4 3.08 3.31 2.37.07 4.79.21 7.15-.05.06-1.56-.4-4.91-.58-6.57-.23-2.06-.32-4.3-.54-6.41-.26-2.48-1.41-11.26-1.24-13.03l4.81.33c-.26-.92-.55-.53-.91-1.42.68-1.82 3.36-1.38 4.36-2.66-.59-2.04-3.19-1.58-4.77-1.58z"/><path class="fil1" d="M122.12 34.84c.15 2.12-2.2 16.45-2.55 17.16l-3.89-.08c-.1-.56 2.18-16.1 2.51-16.94l3.93-.14zm-2.73-6.07c.25.42.32.55.44 1.21l-2.56.23c.15-.58-.03-.58.85-1.12.53-.32.63-.46 1.27-.32zm4.12-3.72c-.33.04-5.53 2.95-6.07 3.3-.37.24-.94.92-1.34 1.25-2.43 2.02-1.38 2.56-4.63 1.84.41-1.96 3.83-3.32 4.9-4.35 1.47-1.42 3.9-2.14 5.9-2.67.34-.54.1-.3.75-.32 1.68-.04 1.93-.56 2.06.65l-1.57.3zm5.67-14.04c.69.95.18 5.72-.1 7.24l-1.45-.28c-.1-1.42.73-6.45 1.55-6.96zM140.6 25.3c-.65.25-1.12-.06-1.8.75-.78.92-1.03 1.05-1.96 1.7l-2.19 1.56c-.83.67-1.86.34-2.65-.09.22-1.14.55-.82 1.34-1.32 2.27-1.42 1.63-1.65 4.67-2.11.42-.97.14-1.1 1.25-1.25.61-.08 1.35-.15 1.9.18-.16.74.25.27-.56.58zm.45-19.17c2.99-.9 2.26 1.21 2.14 2.31l-1.1 10.04c-.1 1.02.08 1.85-.51 2.11-.26.11-1.58.03-1.89-.02-.3-1.48.97-13.06 1.36-14.44zM132 25.39c-2.83-.77-3.8.86-6.66 2.16-1.79.81-1.56.57-1.61 1.39.81.99 3.92-.47 4.82-.92 1.35-.68 2.2-3.58 4-1.3-.24 1.57-1.21 1.45-2.46 1.89-1.03.36-1.92.64-3.02.85-1.47.27-5.67.76-6.48-.74.15-.73.37-.58 1.46-1.39a5.59 5.59 0 0 1 1.75-.9c2.5-.78 4.03.24 3.75-1.42-1.35-.93-2.24-3.37.05-3.42.63-.01 1.27-.01 1.89.06l.09 2.72c.72.31 3.28.17 4.08-.01.17-1.1-.54-9.16-.68-10.95-.93-12.53-.05-11.26-3.01-11.28-.54 0-1.63-.17-2.08.15-.66.45-.98 3.27-1.36 4.48l-3.82 13.76c-.69 2.43-.21 2.64-2.03 3.55-1.44.72-2.18.84-3.79 1.04-1.48.18-2.96-.24-3.79 1.18.15 1.13.26.57.57 1.55-.71 1.05-3.37 2.07-3.5 3.55l1 .74c.21 1.61-1.42 9.64-1.59 12.32-.18 2.78-2.05 9.75-1.91 11.96 1.14.45 7.99.15 9.71.15 2.89 0 6.86.73 8.68-1.85 1.08-1.53.97-2.64 1.34-5.03.3-1.91.58-3.97.86-5.89.45-3.1 1.76-8.94 1.42-12-.83-.74-1.33-.9-1.55-1.52 1.51-1.18 2.52-.41 3.97.07l3.56.39c.14.01.51.02.63 0 1.06-.21-.74.3.28-.09l.26-.15c-.47-.8-.42-.17-.91-.89.2-.68.2-.59.66-.94.84-.65 1.92-.9 2.91-1.44.62-.34 1.14-.89 1.68-1.17 1.61-.82.6-.98 1.56-1.55.9-.53 2.49-.23 3.23-2.84.52-1.84.97-10.11 1.29-12.82.26-2.17.96-4.68-.15-6.01-.97-1.17-3.22-.73-4.66-.75-1.26-.01-4.22-.15-5.2.22l-1.13 10.79c-.2 1.86-1.26 9.89-1.08 11.17.75.42 1.14-.15 1.7.44-.44.62-1.47.89-2.23 1.26-.84.42-1.71-.3-2.49-.59z"/><path class="fil1" d="M141 40.41c.27.64.16.27.21 1.17l.14 7.65-3.38-.06c.1-1.58 1.03-3.13 1.45-4.51.33-1.08.81-3.69 1.59-4.25zm-2.3-10.08c-.4.44-3.82 8.69-4.07 9.57-.43 1.5-.77 1.95-1.32 3.27L129.43 53c-.4 1.05-1.13 2.15-1.21 3.49l7.13.05c.67-1.75.57-3.3 2.03-3.33 1.26-.03 3.42-.36 4.19.47.14 1.15-.15 1.52.18 2.6l7.18.25c.04-1.9-1.46-14.92-1.79-17.81l-.55-6.79c-.11-1.04-.04-1.51-.69-1.71-.84-.27-6.56-.18-7.19.12zM11.99 45.78c.21.61-.31 3-.46 3.89-.36 2.05-.38 2.04-2.1 2.05-1.99.01-4.98-.31-6.84.01-.24 1.05.17 3.66.43 4.73 1.84.24 8.51.1 10.82.1 1.01 0 2-.37 2.73-.89.81-.58.98-1.23 1.41-2.46.5-1.42 1-5.07 1.33-6.99.61-3.58.58-4.73-2.31-4.87-1.3-.06-5.26.14-6.1-.28-.25-1.17.34-4.92.83-5.82 1.75 0 7.32.25 8.82-.15.09-1.04-.06-1.96-.17-3.01-.14-1.36-.03-1.93-1.03-1.93-2.44 0-9.9-.21-11.46.22-.65.18-2.05 1.07-2.47 1.54-1.1 1.22-2.31 10.99-2 12.12.69 2.53 5.6 1.42 8.58 1.74zM38.52 6.14c.24 1.07-.7 8.65-.92 10.6-.12 1.01-.16 3.03-.34 3.68-.49.28-1.57.34-2.22.17-.33-1.41.77-13.16 1.19-14.49.74-.17 1.58-.28 2.29.04zm-5.84-3.93c-.42 1.35-1.71 15.55-2.21 19.32-.05.4-.12.88-.16 1.35-.01.07-.04.67-.04.73.12 1.42 2.04.91 4.05.92 3.07.01 6.15.57 6.94-3.1.28-1.29.46-3.74.61-5.1.19-1.78.48-3.74.57-5.42.17-3.5 1.62-8.36-1.25-8.68-1.99-.22-6.61-.37-8.5-.01zM118.25 6.15c.33 1.18-.53 6.78-.73 8.54-.58 5-.01 5.67-1.08 5.88-.38.07-1.37.01-1.78-.03-.14-1.68.84-13.43 1.4-14.31.5-.38 1.66-.37 2.19-.08zm-8.1 18.09c.6.55 3.54.3 4.69.29 6.86-.02 5.96-.92 7.23-12.79.15-1.44.14-2.68.33-4.19.84-6.55-.19-5.43-8.51-5.44-1.93 0-1.58-1.07-2.25 6.17-.26 2.78-.63 5.41-.89 8.04l-.78 6.9c-.03.95-.13.48.19 1.01zM25.27 14.17c-.21 1.69-.23 3.26-.39 4.83-.09.92-.05 1.46-.67 1.61-.5.12-1.26.07-1.7-.11-.46-1.08.21-6.33.36-7.92.67-6.91.19-6.58 2.31-6.58 1.48 0 .81 1.93.62 3.63-.17 1.52-.33 2.98-.53 4.54zm5.05-9.94c-.42-1.49-.66-2.01-2-2.14-1.09-.1-2.5.03-3.62.06-2.63.06-4.62-.67-5.06 3.01-2.5 20.68-3.06 19.39 3.96 19.23 2.57-.06 4.5.62 5.1-2.95.36-2.13 1.95-16.03 1.62-17.22zM149.67 2.29l-1.11 11.05c-.19 1.76-1.28 9.75-1.02 11.04.94.23 7.22.27 7.82-.05.16-.15 1.13-3.05 1.03-3.97l-4.11-.12c-.1-1.1.1-3.87.4-4.62.87-1.31 3.36 1.61 3.74-2.03.07-.66.14-1.25.11-1.86-1.64-.84-3.41 1.05-3.31-1.31.25-6.05.69-3.49 4.79-4.19.14-.7.07-3.02-.17-3.65-.28-.75-1.74-.44-2.48-.45-1.06-.01-4.98-.29-5.67.16zM81.63 2.26c-.74-.22-7.4-.3-7.85.05-.66.69-1.75 15-1.91 16.49-.14 1.3-.64 4.47-.42 5.55l7.79.12c.42-.76.35-1.39.77-2.91l.1-.8c-.11-1.34-3.31.08-3.87-.71-.34-.89.11-3.6.33-4.66l3.19-.14c.33-.92.53-2.5.45-3.67-3.7-.53-3.1 1.32-3.06-2.87 0-.41-.01-.89.04-1.3.27-1.98 1.88-.93 4.11-1.1 1.06-.08.95-.63.33-4.07zM153.4 49.43l4.4.1c.69-1.76 1.33-5.06 1.76-7.14.16-.79.41-1.63.61-2.45.38-1.52 2.28-8.34 2.19-9.57l-7.03-.09c-1.23.03-.82.25-1.12 4.32-.18 2.49-1.01 13.17-.8 14.83zM9.97 2.19c-.33.49-1.1 2.34-1.33 3.05-.54 1.7 1.16 1 2.28 1.15.3 1.27-.61 7.14-.79 8.87-.13 1.18-.75 8.61-.64 9.2l3.99-.07c.24-.68 1.49-11.86 1.56-13.47l.48-4.3c.05-.03.05-.1.07-.23l2.46-.2c.13-1.03-.26-3.04-.52-4.05l-7.55.05zM106.51 2.29c-.41.94-2.51 20.96-2.29 22.07.72.21 3.2.2 3.86-.09.38-1.08 1.45-11.55 1.51-13.32.07-2.06.47-4.84.72-6.79.24-1.87.27-2.11-1.11-2.07-.75.02-2.03-.12-2.68.2zM158.65 52.99c-1.55-2.09-4.97-2.11-6.69-.4-.58.57-1.37 1.14-.88 2.55.6 1.76 2.96 1.81 4.7 1.52 2.71-.45 3.61-2.68 2.87-3.67z"/><path d="m49.76 21.48.26 2.87c.5.1.83.04 1.33.03.71-.02.83-.03 1.08.35l-7.24 2.06c-.26-.3-.26.54-.16-.74-2.37.73-.77 1.69-2.36 2.18-.08.02-.51.12-.54.13l-.26.12c-.51.29-.15.05-.37.28l1.37.04c-.08.32-.37.46-.55.57l-.58.33c.44 0 5.06-1.53 6.92-1.53.28.41.12-.13.1.61.94-.49 1.79-1.14 2.71-1.87.88-.7 1.62-1.13 2.45-1.98-1.6.28-.59-.42-1.64-.84-.3-.12-1.67-.05-2.07-.05-.29-.79.06-1.89-.45-2.57z" style="fill:#d3b6c6"/><path class="fil3" d="M132 25.38c-.62-.42-1.3-.39-2.11-.26-.92.15-1.25-.2-2.33-.12.28 1.66-1.25.64-3.75 1.42-.67.21-1.2.49-1.75.9-1.1.82-1.32.66-1.46 1.39.81 1.5 5.01 1.01 6.48.74 1.1-.2 1.99-.49 3.02-.85 1.25-.44 2.22-.32 2.46-1.89-1.8-2.28-2.65.62-4 1.3-.9.45-4.01 1.91-4.82.92.05-.82-.17-.57 1.61-1.39 2.86-1.3 3.83-2.93 6.66-2.16z"/><path class="fil4" d="M122.27 24.42c-2 .53-4.43 1.25-5.9 2.67-1.06 1.03-4.48 2.39-4.9 4.35 3.25.73 2.21.18 4.63-1.84.4-.33.97-1.01 1.34-1.25.54-.35 5.74-3.26 6.07-3.3l-.1-.62-1.15-.01zM53.93 24.93c-.83.85-1.57 1.28-2.45 1.98-.92.73-1.78 1.37-2.71 1.87-.37.27-.32.19-.48.82.38.35 1.06.45 1.54.53 1.22.21 1.61-.37 2.61-1.44l3.94-2.66c1.18-.65 1.68-.84 2.99-1.34-.39-1.13-1.73-.49-2.52-.28-1.02.26-1.8.45-2.91.52z"/><path class="fil3" d="m41.74 29.7.58-.33c.18-.11.47-.25.55-.57l-1.37-.04c-.54.19-1.17.46-1.79.17.17-.94 1.28-.97 2.95-2.22l3.15-2c-1.65-1.89-6.66 1.93-8.43 3.2-.69.49-.75.13-1.05 1.02.26.59.31.55.91.69 1.9.46 3.29-.08 4.48.07zM81.36 29.44c1.2-.01 2.65-.96 3.48-.41 1.55 1.03 1.97.75 3.28-.24l5.05-3.31c.67-.43.41-.05.62-.82-2.72-.14-3.15.6-4.77 1.37-.58.27-1.06.39-1.58.69-4.1 2.37-2.38 1.03-5.27 2.15l-.81.58z"/><path class="fil4" d="M138.01 25.78c-3.03.46-2.4.69-4.67 2.11-.79.5-1.12.18-1.34 1.32.79.43 1.82.76 2.65.09l2.19-1.56c.92-.65 1.18-.78 1.96-1.7.68-.81 1.15-.5 1.8-.75.81-.31.4.16.56-.58-.55-.33-1.29-.26-1.9-.18-1.11.15-.83.28-1.25 1.25z"/><path class="fil3" d="M90.13 29.15c1.7 1.24 3.07-.26 4.8-1.42.45-.3.71-.4 1.09-.67.66-.47.54-.62.96-1.11.79-.92 1.75-.33 2.55-1.02-.45-.6-1.9-.59-2.6-.14-1.17.76.53.75-2.33 1.33-.77.16-1.73.74-2.42 1.28-1.25.98-1.79.84-2.04 1.74z"/><path class="fil4" d="M67.08 26.71c-.6-.87-2.72-.85-3.35-.31-1 .86-.91 1.1-1.88 1.78-1.86 1.3 1.16 1.94 2.61.82 1.51-1.17 2.52-1.15 2.62-2.3zM103.4 27.89l-.75.6.2.57c1.71.27 1.78 1.3 3.63-.36 1.63-1.46 2.76-1.5 3.08-2.43-.5-.49-1.1-.25-1.73-.14-.58.1-1.11.16-1.65.34-1.12.37-1.82 1.31-2.79 1.42zM96.25 29.37l2.08.12c.34-.98.04-.86.76-1.23.73-.36 1.08-.78 2.02-1.16.78-.31 1.92-.29 2.44-1.11-2.28-.21-4.71.33-6.65 1.61-.77.51-1.51.4-1.55 1.54l.9.22zM67.72 29.15c1.43 1.25 2.49.03 3.25-.51l2.22-1.54c.55-.43.39-.16.54-.83-2.6-1.57-5.82 2.27-6.02 2.89zM54.89 29.27c1.11.42 2.33-.2 3.31-.68 1.01-.5 2.31-.71 2.43-2.32-1.33-.71-3.54.57-4.81 1.44-.53.37-1.09.37-.93 1.57z"/><path class="fil3" d="M82.7 26.17c-.98.06-4.07 1.37-4.93 2-.61.45-.34-.12-.43.76.68.55 2.14.6 2.99.55.02-.06.08-.15.04-.19-.04-.04.06-.26.09-.37.09-.4.04-.33.15-.68.95-.18 2.35-1.24 2.87-1.09l.65-.89c-.47-.27-.87-.21-1.43-.09z"/><path class="fil5" d="M99.09 28.27c-.72.37-.41.25-.76 1.23l-2.08-.12c.05.04.18.09.15.11l1.42.29c1.44-.01 3.29.16 4.57-.94l.45.22c-.02-.06-.2-.56-.2-.57l.75-.6c-.69 0-1.63.37-2.21.61-.52.21-1.23.47-1.79.22-.58-.26-.37.01-.31-.45z"/><path d="M82.7 26.17c.56-.11.97-.17 1.43.09l-.65.89c.73-.31 1.02-.25 1.7-.45 1.04-.3 1.02-.57 1.08-1.02l-2.65.08c-.64.06-.55-.15-.92.41z" style="fill:#dcc4d0"/><path class="fil5" d="m122.27 24.42 1.15.01.1.62 1.57-.3c-.13-1.21-.38-.69-2.06-.65-.66.02-.42-.22-.75.32z"/></g></g></svg>