<svg xmlns="http://www.w3.org/2000/svg" xml:space="preserve" width="229.747" height="113.918" style="shape-rendering:geometricPrecision;text-rendering:geometricPrecision;image-rendering:optimizeQuality;fill-rule:evenodd;clip-rule:evenodd" viewBox="0 0 139.71 69.27"><defs><style>.fil2{fill:#0012b5}.fil7{fill:#050d42}.fil0{fill:#07090a}.fil6{fill:#090a09}.fil10{fill:#0a0c0c}.fil15{fill:#f9f9f9}.fil9{fill:#fb7600}.fil16{fill:#fbfbfb}.fil12{fill:#fdbe01}.fil8{fill:#fdfdfd}.fil4{fill:#fe7800}.fil1{fill:#fefefe}</style></defs><g id="Camada_x0020_1"><g id="_2014810019376"><path class="fil0" d="M18.02 11.19c-1.39.01-2.52 1.29-3.42 1.15-1.22-.19-6.3-4.83-9.96.63-2.55 3.8-2.85 12.38-.96 15.88 1.04 1.93 3.47 2.93 6.39 3.46 4.72.84 7.83.24 11.78-1.73 3.89-1.94 2.97-1.25 6.19 1.33l2.13 1.46c.47.31.4.17.54.65-.53.8-5.88 3.3-7.24 3.29-.82-.7-.45-1.43-2.08-2.23-1.68-.82-5.36-.35-7.33-.27-.61.02-2.88-.03-1.94 1.57l.24.02c1.31-.81.6-.67 3.26-.84 4.58-.3 7.88-.4 6.79 5.88-.56 3.22-1 8.76-2.89 10.69-.98 1-1.36.96-2.68 1.7-.54 1.63-.28 2.4-1.72 3.22-1.4.48-.99-.79-1.86 3.92-.25 1.34-.6 4.11-1.06 5.08-.68.15-3.69.29-4.43.06-.11-.69.21-1.74.29-2.51l-.61-.05c-.6.33-.45.75-.56 1.56-.07.51-.36 1.35-.04 1.65l.15.15c.02.02.06.05.09.06.17.12.09.05.28.16.23.13.31.15.52.31l-.05 1.41c.87.14 5.65.06 6.33-.18l2.33-12.06 3.46-.65c-.18 1.7-1.97 10.61-1.83 10.97.4.44.61.32.89.65.21.25.29.72.38.97l8.43-.03c1.57.03 1.14-.27 2.04-.74.83.31 1.48 1.31 3.6 1.19.78-.05 1.18-.25 1.84-.5 1.41-.53 8.01.3 10.58-.36.43-.78.08-1.2 1.15-1.11.36.76-.38 1.25.91 1.32.66.03 1.47-.02 2.16-.01 1.09.01 3.09.1 4.1-.1l.63-9.33c.78.21.65.98 1.5 1.49.83.5 1.54-.18 2.3-.27-.02 1-.46 2.85-.68 3.87-.72 3.41-.35 2.19 1.01 2.82.03.67-.35 1.18-.01 1.5.15.14 10.21.42 12.71-.68.55-.24 1-.51 1.44-.96.52-.54.53-.94 1.14-1.1.65.08 2.17 4.46 9.2 3.04 1.21-.24 2.21-.92 3.19-1.11l.28.92c1.35.34 7.06.24 8.82.24 1.39 0 2.92.03 4.32.05 3.19.05 2.24.28 3.46-.93.73.03 1.27.6 1.99.88 2.66 1.03 4.55.58 7.12.26 1.92-.24 9.33.34 10.25-.14.5-.31.45-1 .96-1.47 1-.38.83 1.28 1.24 1.53.89.32 8.08.31 8.94.04.35-1.31 2.63-27.79 2.48-28.6-.62-.28-1.13-.07-1.47-.46-.25-.29-.28-1.02-.39-1.36-.87-.07-11.51.22-12.03.52-.8.46-.67 2.31-1.52 2.89-.55-.21-.54-.45-.92-.85-1.04-1.14-2.01-1.33-3.07-2.01.09-.41 1.81-2.08 2.64-3.28 2.14-3.1.49-2.9 2.34-3.61 3.28-1.25 5.12-2.29 7.41-4.08 2.46-1.92 3.34-3.39 4.99-6.83.39-.81.85-.84 1.82-1.14.69-.21 1.36-.44 1.97-.81 2.34-1.39 1.12-3.35 1.06-3.76-.94-.6-1.18-1.08-2.85-1.2-3.54-.25-5.5.9-6.47-.7-.42-.69-1.25-1.6-1.14-2.44 1.5-1.74 5.67.5 4.02-5.24-.32-1.13-1.04-2.24-1.78-3.12-2.65-3.14-4.97-.17-7.51-.74-1.39-.31-2.67-.76-4.1-1.08-8.33-1.83-17.45-1.47-22.99 4.53-1.43 1.56-3.2 4.35-3.63 6.48-.33 1.62-.11 3.44-.38 4.95-.42 2.34-1.72 1.75-3.1 1.68-6.45-.36-12.61-.4-19.01-.36-6.5.04-12.62-.24-19.19-.48l-24.07-.82c-2.92-.11-2.55-.37-2.9-1.99-.2-.94-.35-.98-1.1-1.46-1.45-.93-3.42-2.52-5.12-2.3z"/><path class="fil1" d="M50.28 51.56c.08-.21.06-.17.18-.27.36-1.01.13-.72 2.43-1.31 1.92-.49 2.29-.3 2.52-1.45.44-2.18.72-5.34.59-7.71-.07-.55.2-.19.52-.21.05 0 .23.04.28.04.36 0-.01.08.41-.03.6-2.02 2.26-1.28 1.23.74-.32.63-.53.88-1.26.81-.36-.02-.27.07-.25-.29l-.06.23c.24 1.95 1.45 4.02 2.44 5.51 1.02.02 1.39-.54 1.98-.79.83-.35.5-.08.55-.07l.23.08c.01.05.4.01-.18.52-.24.21-1.35.54-1.75 1.14.18.49 1.43 1.82 1.92 2.03.29-.19.06.03.32-.3.09-.11.18-.29.27-.45.19-.36.26-.64.68-.89-.06-.85 4.33-7.56 5.11-8.69 1.67-2.45 4.22-5.59 6.28-7.51 2-1.87 6.94-6.63 9.54-7.48 2.46-.8 2.35.83 4.61-2.09.44-.57 1.28-1.3 1.22-2.15-1.1-.55-4.08-.24-5.5-.3-2-.08-3.98-.18-5.98-.32-7.25-.51-13.07.06-19.12 3.94-1.52.97-5.77 4.03-5.71 6.21 1.11.43 2.3-.65 3.11-1.24 1.12-.82 2.04-1.98 2.78-1.68 0 .5-1.1 1.28-1.55 1.7-1.79 1.68-3.47 3.36-5.14 5.29-1.65 1.9-7.16 7.93-6.43 10.84.3 1.22 1.53.8 2.19.34 2.37-1.66 5.24-7.34 7.22-10.38.42-.64.98-2.27 1.81-1.39.04.05.45-.11-.31.96-.23.32-.45.63-.66.93-6.46 9.16-5.39 12.61-6.11 13.93-.24.44-1.8 1.35-.4 1.77zM125.66 56.8c-1.93.45-2.41.04-1.87-1.35l2.04-5.77c.17-.45.33-.85.51-1.37.07-.21.17-.61.26-.77.38-.72-.08-.23.48-.44-.08 1.34-1.09 8.91-1.42 9.69zm-1.42 9.67c.9.29 4.58.22 5.77.24 1.41.02 1.54.17 1.62-1.29.26-4.51.84-9.72 1.21-14.35 1.04-13.15 1.97-12.01-1.57-11.83-1.34.07-7.47.04-7.92.4-.43.5-4.42 11.66-5.01 13.32-.46 1.31-4.89 12.83-4.7 13.19.23.35.11.3.67.37l6.25.03c.76-1.03 1.08-3.66 1.84-4.72.71-.07 1.56-.15 2.25.12.27 1.33-.75 3.44-.41 4.53z"/><path class="fil2" d="M80.2 29.69c1.61.3 3.96-.32 5.16-1.08 1.94-1.23 4.29-2.78 6.55-3.27.96-.21 1.86-.23 2.81-.44 7.09-1.56 8.29 2.08 18.56-7.45 1.1-1.02 3.28-2.6 3.37-3.34-.42-.5-2.14-1.52-3.52-.64-1.59 1.01-4.76 3.16-6.76 2.99-.84-.07-.92-.58-1.14-1.27-.72-2.2-1.56-2.22 3.4-4.07.77-.28 1.37-.62 2.1-.97 1.03-.49 1.32-.42 1.46-1.73.6-5.43 4.12-4.41 6.34-6.19-.03-.02-.07-.09-.08-.06-.02.03-.07-.05-.09-.06-1.11-.57-3.74-.54-4.86-.37-1.87.29-3.4-.03-5.24.16-2.88.28-6.61 1.52-8.34 2.89-1.55 1.23-4.15 4.64-4.83 6.72-.3.92-.41 1.43-.46 2.55-.06 1.43 0 1.51 1.33 1.15 1.5-.4 3-.83 4.27-1.42.66-.31 1.23-.87 2.06-.73 1.34.22 3.42 3.67.1 5.01-1.32.53-2.81.93-4.26 1.25-1.53.33-3.56.38-4.87.74-2.01.56-2.36 4.95-5.64 5.8-3.78.97-2.38-.41-5.97 2.38-.57.44-1.39.83-1.45 1.45z"/><path class="fil1" d="M96.22 50.65c-.13-.32-.15-.33 0-1.09.07-.37.13-.51.22-.81l.86-3.48c.4-.54 1.13-.09 1.39.24.65.81.01 6-2.47 5.15zm6.76 1.24c.23-3.26-.49-3.71 1.05-7.62.22-.55.78-1.49.81-1.94-1.49-.65-4.32 1.64-6.76-.33-1.11-.9-1.03-1.4-2.88-1.27-4.93.34-3.16-.54-4.92 6.54-.54 2.16-4 17.84-3.87 18.77.86.31 5.46.39 6.1 0 .23-.24 1.89-7.88 2.19-9.21.26-1.16.12-2.13 1.57-1.92.71 1.19.45 1.28.17 2.8l-1.25 5.69c-.12.55-.2.93-.33 1.48-.37 1.59-.59 1.54 3.26 1.46 1.35-.03 1.99.26 2.86-.5.06-1.18-1.13-1.93-.51-5.57.85-4.98.99-3.58 2.4-4.25.45-1.7-1.8-2.8-2.03-3.04.33-.4.68-.38 1.13-.57.34-.15.66-.36 1-.52z"/><path d="M111.54 37.08c.3-.53 1.05-.48 2.13-.8.69-.21 1.52-.81 2.04-.73-.3.58-2.16 1.37-2.94 1.55-1.15.26-.9.24-1.23-.02zM96.76 26.46c.01 2.09 6.78 5.78 7.07 6.3-.93.7-7.24.75-8.89.68-1.6-.07-3.37-.2-4.95-.47-1.34-.23-3.13-.96-4.38-.28-.14.79 1.07 2.42 1.5 3.16 2.01 3.39 2.23 4.86 4.8 4.83 1.13-.01 3.36-.03 4.02-.7-.11-1.25-2.94-2.71-2.69-4.14l1.01-.01c-.25 1.59.07 1.57 1.78 3.16 4.26 3.96 2.19 3.5 10.75 2 5.2-.91 9.19-2.05 12.16-6.52.37-.55.35-.75.11-.98-.68-.38-1.05.15-1.69.23.18-.67.46-.64.43-1.5-.63-.49-1.76-.68-2.7-.85-1.53-.28-1.97-.52-2.97.27-1.12.89-1.15-.12-2.63.36-.88.29-1.73.68-2.76.57.11-.47.15-.11.19-.82-.41-.27-.74-.53-.85-1.14 1.15.25 1.19 1.15 2.34 1.07 4.97-.32 1.17-1.84-.43-2.89-1.17-.77-2-1.39-2.97-2.21-1.51-1.28-1.72-.89-3.88-.66-1.24.13-3.24.24-4.37.53z" style="fill:#fd0000"/><path class="fil4" d="M65.47 60.09c-.13-.99.8-4.07 1.03-5.2.47-2.32.7-4.71 2.22-3.03.82.91-.23 3.67-.52 4.96-.38 1.72-.5 3.71-2.73 3.27zm-1.73-10.93c-.33.86-.78 1.59-1.46 2.01.22.28.29-.21.08.41-.13.4-.01.1-.28.29-.55.4-.28-.04-.67.63.76-.14-.37 2.6-.48 2.97-.42 1.34-2.24 9.3-2.13 10.01.59.21 6.93.02 8.04-.04 6.32-.35 5.91-4.71 7.09-10.7.18-.92.72-3.11.68-3.91-.07-1.33-1.13-1.58-1.97-2.41.36-.62 1.7-.61 2.74-2.36 1.02-1.71 2.03-6.73 1.75-9.05-.14-1.17-1.16-2.77-2.36-2.95-.64.23-1.89 1.77-2.34 2.29-.41.48-1.84 2.2-1.94 2.8.83.7 1.8.01.47 4.84-.37 1.34-.71 2.61-2.41 2.36.03-1.4 1.03-4.69.85-5.45-.54-.1-.65.23-.87.61-.71 1.22-4.5 7.51-4.79 7.65z"/><path class="fil1" d="M124.71 13.18c.45.48 1.49.8 1.75 1.39-.15.87-1.71 1.41-2.38 1.85-.66.44-1.83 1.61-2.53 1.72-1.19-.6-1.16-1.35-.28-2.31.4-.43 1.6-1.52 1.65-2.15-.77-.33-2-.29-2.52.26-.68.72.02 1.89-1.26 1.97.09-.81.51-.89.41-1.53-1.1-.27-2.18 1.18-3.43 2.31-1.08.98-2.23 1.9-3.29 2.82-1.04.9-2.2 1.9-3.29 2.66-2.97 2.09-5.67 1.87-1.96 4.8 2.64 2.08 6.36 3.39 9.77 3.92 4.91.75 5.5.27 9.92-2.67.5-.33.89-.61 1.34-.92 1.94-1.35 1.27-1.26-1.4-3.17-1.57-1.12-4.13-3.05-2.53-4.92 1.06-1.24 1.51-.8 3.16-.72.43-.48.71-.89 1.12-1.29.47-.46 1.1-.58 1.32-1.28-.22-.82-.76-.71-1.36-1.24-1.22-1.08-.66-2.71-2.55-2.56-.82.07-1.48.41-1.65 1.04z"/><path class="fil2" d="M107.43 57.66c-.59-.39-2.55-.23-3.4-.24-1.82-.03-1.63.37-1.93 1.96-.51 2.72-.55 4.87 1.28 6.06 1.61 1.05 4.29 1.26 6.4.97 3.08-.42 2.83-1.39 3.74-3.98.69-1.98 1.33-3.87 2.03-5.81 1.21-3.37.9-3.15-1.32-5.09-1.46-1.27-3.9-2.58-4.08-3.49-.46-2.33 1.58-5.66 2.97-4.01.66.87-.06 2.38.13 3.51.84.34 2.81.08 3.79.02 1.73-.1 1.87-.42 2.14-2.05.43-2.55.19-4.83-2.87-5.4-1.78-.33-4.58 1.06-6.43 1.44-2.64.55-3.51.09-4.74 3.59-.73 2.08-1.3 5.11-.13 7.01.53.85 1.43 1.41 2.18 1.97 1.83 1.35 3.58 2.75 3.49 4.88-.18 4.11-3.48 4.7-3.59 2.5-.1-1.99.62-2.76.42-3.63l-.04-.11a.974.974 0 0 0-.05-.11z"/><path class="fil1" d="M29.69 25.58c-.19-.58.03-.38.08-1.01-1.29-.95-2.44-1.61-3.9-2.19-.38-.15-.79-.37-1.17-.33-.58.06-.27.04-.45.18-.98 1.05 4.16 1.86 3.74 3.6-1.37-.02-2.61-2.22-3.91-1.83-.31.65.13 2.04.27 2.81.24 1.28 1.03.98 2.41 1.08 2.32.16 4.64.35 6.96.53 4.51.35 8.71 1 13.19 1.4 1.12.1 2.12.23 3.26.3 1.6.1 1.82.3 2.51-.85 3.43-5.75 11.47-8.17 11.75-8.97-1.26-.39-7.72.06-9.67.02-3.25-.06-6.85-.48-9.84.17-1.73.38-10.22 2.65-11.93 3.4-1.82.8-2.71 1.94-3.3 1.71zM33.45 63c-.73-1 .18-3.97.43-5.27.37-1.89.69-3.65 1.04-5.51.26-1.39.58-4.49 1.45-5.08 1.31-.89.98.98.87 1.58-.18.96-.29 2.17-.34 3.15.95.05 4.27.14 4.93-.2.11-.11 3.37-8.68-4.43-8.54-4.28.08-6.33 3.06-7.13 6.82-.44 2.05-.89 4.16-1.26 6.22-.35 1.92-1.03 4.32-1.04 6.22-.02 3.04 2.27 5.37 5.57 4.19 1.06-.38 1.21-1.36 1.94-1.43.36.61.29 1.16 1.21 1.24 1.6.13 1.76-2.06 2.57-4.79.35-1.19 2.28-6.63 2.12-7.46-.7-.25-3.23-.07-4.22-.07-2.07-.01-1.91.5-2.24 2.4-.24 1.35.38.7.56 1.55.19.91-.38 3.03-.78 3.97-.32.76-.33 1.16-1.25 1.02z"/><path d="M85.07 46.88c-.74 3.31-1.48 6.64-2.14 9.98-.27 1.4-.66 3.5-1.06 4.92-.22.78-.92 1.1-1.85.92-1.11-.22-1.18-.9-.94-2.05.32-1.57 2.79-13.73 3.19-14.82.45-1.21 3.36-1.48 2.79 1.04zm-.42-5.6c-3.23.46-4.74 1.35-6.27 3.45-1.21 1.66-2.25 5.19-2.49 7.58-.46 4.5-2.89 10.69-.41 12.54 1.94 1.44 9.42 2.2 10.3-2.29.29-1.5.37-2.89.7-4.43.64-2.97 1.12-5.39 1.97-8.29.39-1.33.44-2.86.92-4.26.55-1.62.64-2.68-.53-3.59-.98-.76-2.89-.89-4.18-.71z" style="fill:#000d82"/><path class="fil6" d="M8.07 54.14c-.21-.81.35-3.22.5-4.08.12-.67.21-3.68 1.18-3.35.62.21.2 1.21.09 1.88-.21 1.3-.72 5.05-1.12 5.64l-.66-.09zm-.24 8.42.48.03c.35-1.07.66-1.7.88-2.75.56-2.65.56-3.55 3.05-4.07 1.71-.35 1.74.44 3.11.27.84-1.21 1.07-3.18-.31-3.76-1.77-.74-3.17.57-4.55.52.08-1.87.69-4.12.95-5.99.21-1.51.32-1.32 1.6-1.73.9-.29 1.8-.82 2.59-.46-.11 1.1-1.21.74-1.92 1.37-.55.49-.8 1.8-.69 2.7.6 1.23 4.58.18 5.08-4.47.2-1.85.32-3.27-1.67-3.45-1.7-.15-3.36.98-4.29.77-.02-.94.63-3.91-.29-4.25-.94.6-.72 2.57-1.08 4.49-.14.74-.26.78-.96.85.11-1.51.58-3.22.84-4.7.42-2.36 1.11-3.57-.39-3.58-.7 1.39-1.53 7.36-1.96 8.88-.28.96-.96 1.15-1.8 1.59-2.22 1.19-7.64 4.1-6.28 7.25.97.25 1.4-.45 1.89-.81.96-.71 4.26-3.11 5.15-3.15.46 1.18-.97 6.05-1.12 7.08-.13.87-.6.97-1.17 1.44C3.92 57.5.45 60.6.86 63.21c1.2.57.99-.28 2.36-1.71.69-.72 1.34-1.47 2.32-1.89.17 1.73-.97 3.03.12 3.26 1.51.32.92-3.16 1.84-4.75l.7-.04c.08 1.01-1.02 3.92-.37 4.46z"/><path class="fil7" d="M45.76 57.91c-.18-1.43 2.03-6.97 2.69-8.35.11-.24.29-.71.49-.95.05-.06 2.62-1.81-.65-1.71-1.96.06-3.06-.4-3.74 1.4-.52 1.38-.78 2.98-1.27 4.42-.92 2.66-.62 1.09-1.13 4.28-.27 1.69-1.26 2.56-1.46 4.17-.1.83-.1 1.71-.51 2.3-.44.64-.79.67-.67 1.87.83.47 3.26.67 4.17.16.53-1.05.46-3.42 1.54-3.77 1.37-.46 3.55-.05 4 .97l-.47.17c-.36.07-.76-.09-1.07.4-.31.47-.3 1.15-.23 1.79.6.48 1.42.64 2.27.71 2.73.25 1.95-.66 2.39-6.46.07-.9.35-1.77-.53-2.2-3.61-1.8-2.83.38-3.55.93-.58.44-1.57.23-2.26-.11zM26.23 52.86c-.19-.97.14-1.84.17-2.84.04-.96.12-1.66.91-1.85 1.92-.46 1.27 1.05 3.11-2.26.7-1.25.14-1.29-1.11-1.27-4.65.09-5.32-.67-6.02 1.9-.23.86-.25 1.59-.58 2.38-.34.82-.47 1.28-.55 2.26-.17 2.1-1.27 8.16-1.34 10.21-.05 1.31-.29 1.04-.75 1.98-.31.64-.59 2.15-.09 2.43l.21.12c.59.24 6.1.37 6.72-.32.53-.79-.23-2.81-1.27-3.05-1.75-.39-1.52-.59-1.09-3.12.28-1.64.32-2.39 1.82-2.93 1.32-.47 1.89-1.16 1.64-2.96-.6-.39-1.03-.35-1.78-.71z"/><path class="fil1" d="M27.92 30.27c.14.75 1.6 1.4 2.31 1.84.92.57 1.72 1.03 2.68 1.53 3.88 2.03 7.51 3.87 11.78 5.19 3.84 1.19 2.49 1.48 6.85-4.19 1.1-1.42 1.45-1.55-.83-1.74-2.53-.21-5.12-.69-7.64-1.01-1.85-.24-14.51-2.33-15.15-1.61z"/><path class="fil4" d="M16.85 53.82c1.32-.74 1.7-.7 2.68-1.7 1.89-1.93 2.33-7.48 2.89-10.69 1.09-6.27-2.21-6.18-6.79-5.88-2.66.17-1.95.03-3.26.84l-.24-.02c-.03.49-.1.65-.28.93.92.34.27 3.31.29 4.25.93.21 2.59-.92 4.29-.77 1.99.18 1.87 1.6 1.67 3.45-.5 4.65-4.47 5.7-5.08 4.47-.11-.9.14-2.21.69-2.7.71-.63 1.81-.27 1.92-1.37-.79-.35-1.69.17-2.59.46-1.28.41-1.38.22-1.6 1.73-.26 1.87-.87 4.12-.95 5.99 1.38.05 2.79-1.26 4.55-.52 1.39.58 1.15 2.55.31 3.76-1.37.17-1.4-.62-3.11-.27-2.49.52-2.5 1.42-3.05 4.07-.22 1.05-.53 1.68-.88 2.75l-.48-.03.22.33c-.28.33-.23.22-.43.63 1.67 0 2.42-3.09 2.69-4.77.19-1.19.42-1.87 1.52-2.1 1.36-.29 2.21.39 3.31.4 1.44-.82 1.18-1.6 1.72-3.22z"/><path class="fil1" d="M76.75 32.76c.7.23 5.32-.14 6.02-.4.87-.32 1.4-.81 2.37-.93 2.6-.33 11.78 2.36 16 1.18-.05-.9-1.3-1.54-2.32-2.3-.88-.67-1.63-1.39-2.53-2.2-.83-.75-1.4-1.94-3.04-1.69-4.11.62-6.18 3.45-9.57 4.23-1.72.4-2.78.07-4.44.04-.92-.02-2.44 1.25-2.49 2.07zM125.47 8.52c-.81 1.99-2.89 3.03-5.38 3.07-2.41.04-5.33-1.36-4.5-3.87.59-1.77 3.06-3.06 5.34-3.05 2.97.01 5.4 1.73 4.54 3.85zm-3.9-5.46C111.01 3.72 110 13.59 120 13.17c2.98-.13 7.75-1.52 8.26-4.19.66-3.46-3.21-6.13-6.69-5.92z"/><path class="fil0" d="M85.07 46.88c.57-2.53-2.35-2.26-2.79-1.04-.4 1.1-2.87 13.26-3.19 14.82-.24 1.15-.17 1.83.94 2.05.93.18 1.63-.14 1.85-.92.4-1.43.78-3.53 1.06-4.92.66-3.34 1.4-6.68 2.14-9.98z"/><path class="fil8" d="M50.45 51.28c-.12.11-.09.07-.18.27.46 1.29.7 4.09 1.43 4.48 1.01.47 1.99-.62 2.34-1.38.24-.52.23-1.22.45-1.67.17-.35.61-.74.95-.42.24.36.02 3.26.15 4.01.17.94.56 2.6 1.8 2.61.53-.29 1.73-2.7 2.07-3.3.57-1 1.4-2.24 1.95-3.4.39-.67.12-.23.67-.63.27-.2.14.11.28-.29.2-.62.13-.13-.08-.41-2.05 1.46-4.75-.96-6.16-.55-.51.48-.13 1.05-.86 1.27-.21-.44-.13-.75-.38-1.23-1.5-.39-3.1.92-4.44.63z"/><path class="fil1" d="M77.27 34.42c.48 1.35 1.93 2.76 2.25 4.5.12.65-.09 1.45.1 2.05.61.43 2.81-.47 3.68-.65 1.31-.26 3.62 0 4.49-.29.03-.75-1.07-2.23-1.38-2.76-2.31-3.89-1.04-3.4-7.17-3.11-.34.02-.68.02-1.02.04-.71.04-.66.04-.95.22z"/><path class="fil9" d="M33.56 37.09c-.61 1.52-4.29 3.17-4.52 4.27 3.71 1.22 7.76-4.07 7.83-4.27-.48-.66-1.89-1.22-2.66-1.64-1.43-.78-1.55-1.17-3.03-.27-3.3 2.01-6.4 2.47-6.63 3.88-.46 2.8 2.48 1.96 3.89 1.23 1.09-.56 2.88-1.79 3.8-2.55.42-.35.75-.78 1.33-.66z"/><path class="fil4" d="m7.61 63.52-.15.03.61.05c-.08.77-.4 1.82-.29 2.51.74.23 3.74.09 4.43-.06.46-.97.82-3.74 1.06-5.08.87-4.72.45-3.45 1.86-3.92-1.1-.01-1.95-.69-3.31-.4-1.1.23-1.33.92-1.52 2.1-.27 1.68-1.02 4.78-2.69 4.77z"/><path class="fil10" d="M56.87 49.73c.26-.47 1.72-.9 2.38-.9.41.67 1.1.91 1.28 1.7-.44.21-.36.15-.95.02-.75-.17-2.36-.47-2.71-.81zm-.76-.99c-.1-.73.26-2.69.63-3.2 1.02-.07 1.58 2.43 1.58 2.57-.5.29-1.51.87-2.21.64zm-5.66 2.54c1.34.29 2.94-1.02 4.44-.63.25.48.16.79.38 1.23.73-.22.35-.79.86-1.27 1.41-.41 4.1 2.01 6.16.55.69-.41 1.14-1.14 1.46-2.01-.48.17-.2-.18-.35.17l-.08-.43c-.42.25-.48.53-.68.89-.08.16-.18.34-.27.45-.26.33-.03.11-.32.3-.49-.21-1.73-1.54-1.92-2.03.4-.59 1.51-.92 1.75-1.14.58-.51.19-.47.18-.52l-.23-.08c-.05-.01.28-.27-.55.07-.59.25-.96.81-1.98.79-.99-1.48-2.2-3.56-2.44-5.51-.2-.16-.21.09-.27-.53-.01-.1.05-.59.06-.77l-.65.01c.13 2.36-.15 5.53-.59 7.71-.23 1.15-.6.96-2.52 1.45-2.3.59-2.07.3-2.43 1.31z"/><path d="M120.8 5.79c-5.37.6-5.3 5.46.05 4.87 1.57-.17 3.47-1.14 3.73-2.5.35-1.89-1.97-2.57-3.78-2.37z" style="fill:#72fde6"/><path class="fil12" d="M128.35 19.4c1.51 1.73 6.35-.06 8.26-.82.75-.3 2.32-.64 1.46-1.75-1.05-1.35-4.17-1.2-6.11-1.08-.84.05-.74.57-1.85 1.72-.56.58-1.72 1.09-1.76 1.93z"/><path class="fil9" d="M36.82 42.16c.53.25 1.56.21 2.22.33.72.14 1.52.46 2.1.56 1.3.21 2.51-1.47 3.32-1.59-.2.59-.4.48-.48 1.23 1.34.29 3.08-.62 3.07-1.93-.97-.78-4.5-1.7-6.07-2.16-1.33-.38-1.63.48-2.42 1.3-.36.38-.64.7-.98 1.03-.24.24-.71.64-.78.93v.21c0 .02 0 .07.01.11z"/><path d="M120.8 5.79c1.81-.2 4.13.48 3.78 2.37-.25 1.36-2.16 2.32-3.73 2.5-5.35.59-5.42-4.27-.05-4.87zm4.67 2.73c.86-2.12-1.57-3.85-4.54-3.85-2.29 0-4.76 1.28-5.34 3.05-.83 2.51 2.09 3.91 4.5 3.87 2.49-.04 4.57-1.09 5.38-3.07z" style="fill:#070909"/><path d="M6.44 21.41c.93.09 1.82-.19 1.1.89-.38.57-.88 1.08-.95 1.8.93-.1 2.23-1.22 2.62-2.04.3-.63.32-.94.78-1.53.31-.41.84-.84.99-1.39-.88-.26-.68.26-1.57-.08-.01-.61 1.32-2.4 1.67-2.93.49-.74 1.85-2.06-1.61-1.51-.74.12-.84.36-1.11 1.14-.44 1.26-1.91 4.88-1.92 5.64z" style="fill:#f15400"/><path class="fil12" d="M132.81 20.82c-.92-.05-1.62.25-2.73.15-1.04-.09-1.6-.36-2.39-.75-1.43-.69-2.79.14-.42 2.53.54.54 2.81 2.61 3.53 2.18.46-.28 2.04-3.17 2.02-4.11z"/><path class="fil6" d="M65.47 60.09c2.23.44 2.35-1.55 2.73-3.27.28-1.29 1.34-4.05.52-4.96-1.52-1.68-1.75.7-2.22 3.03-.23 1.14-1.15 4.21-1.03 5.2z"/><path class="fil8" d="m102.34 16.96.09-1.89c-1.13-.44-3.24.53-4.33.88-1.38.44-3.6.84-3.8 1.68-.41 1.74 1.93.83 3.8.42.97-.21 3.61-.62 4.24-1.09zM127.22 2.33c-1.18.59 1.12 2.47 1.69 3.63.66 1.35.24 4.42 2.24 3.25 1.94-1.13-1.75-7.99-3.93-6.89zM106.26 13.31c-.01.73.34 1.51.72 1.85.68.43 6.34-2.91 6.39-3.1-.28-2.1-1.83-1.05-3.21-.44-1.32.58-2.64 1.2-3.9 1.69z"/><path class="fil10" d="M125.66 56.8c.33-.78 1.35-8.35 1.42-9.69-.56.21-.1-.28-.48.44-.09.16-.19.56-.26.77-.18.52-.35.92-.51 1.37l-2.04 5.77c-.54 1.39-.06 1.8 1.87 1.35zM96.22 50.65c2.48.85 3.12-4.34 2.47-5.15-.26-.33-.99-.77-1.39-.24l-.86 3.48c-.09.31-.14.44-.22.81-.15.76-.13.76 0 1.09z"/><path class="fil9" d="M34.18 41.4c1.79.18 4.98-2.66 5.06-3.3-1.46-.9-2.19.45-3.97 2.03-.43.38-.94.59-1.1 1.27z"/><path class="fil8" d="M32.28 23.4c-.51-.65-2.89-1.61-4.01-1.51-.12 1.01 1.1 1.48 1.75 1.92.81.56 1.88 1.02 2.26-.41z"/><path class="fil15" d="M56.11 48.75c.7.24 1.71-.35 2.21-.64 0-.13-.57-2.64-1.58-2.57-.36.51-.73 2.48-.63 3.2z"/><path class="fil16" d="M115.32 50.47c-.04.6.31.7.77 1.15.42.42.64.85 1.37.81.31-.34.79-1.44.63-2.03-.74-.15-2.17-.11-2.77.06zM56.87 49.73c.35.34 1.96.65 2.71.81.59.13.51.19.95-.02-.18-.79-.87-1.03-1.28-1.7-.66 0-2.11.43-2.38.9z"/><path class="fil10" d="m57.21 40.62-.03 1.55c.72.07.94-.19 1.26-.81 1.03-2.02-.63-2.76-1.23-.74z"/><path class="fil16" d="M124.78 14.63c-1.88-.42-3.28 1.36-2.73 1.99.36.41 1.33-.66 2.14-1.27.42-.31.48-.32.58-.72z"/><path class="fil10" d="M24.59 19.93c.24.49.24.51.91.48.62-.03 2.71-.21 2.8-.71.15-.88-1.38-.21-1.66-.14-1.24.33-1.43 0-2.05.38z"/><path d="M111.54 37.08c.33.26.08.28 1.23.02.79-.18 2.65-.97 2.94-1.55-.52-.08-1.35.53-2.04.73-1.08.32-1.83.26-2.13.8z" style="fill:#1b0908"/><path class="fil15" d="M105.34 56.17c.24.28.81.24 1.05 0 .38-.39-.28-1.23-1.01-1.14-.11.36-.29.85-.04 1.14z"/><path d="m56 40.83.65-.01c-.01.17-.07.67-.06.77.06.62.07.37.27.53l.06-.23c-.02.36-.11.27.25.29l.03-1.55c-.43.12-.06.04-.41.03-.05 0-.23-.04-.28-.04-.32.01-.59-.34-.52.21z" style="fill:#b7b8b8"/></g></g></svg>