<svg xmlns="http://www.w3.org/2000/svg" xml:space="preserve" width="248.436" height="134.786" style="shape-rendering:geometricPrecision;text-rendering:geometricPrecision;image-rendering:optimizeQuality;fill-rule:evenodd;clip-rule:evenodd" viewBox="0 0 163.39 88.64"><defs><style>.fil13{fill:#005ca2}.fil24{fill:#015798}.fil8{fill:#050304}.fil0{fill:#060405}.fil18{fill:#093759}.fil29{fill:#141314}.fil6{fill:#64666a}.fil3{fill:#64676b}.fil1{fill:#65686c}.fil2{fill:#892d5b}.fil10{fill:#ececeb}.fil7{fill:#ededed}.fil4{fill:#eee}.fil26{fill:#f6f6f6}.fil14{fill:#fcfcfa}.fil9{fill:#fefefe}</style></defs><g id="Camada_x0020_1"><g id="_2070817543376"><path class="fil0" d="M15.61 9.53c-1.11 2.81-.52 4.15-2.17 4.28l-2.4 3.59c-2.69 1.92-2.59 3.44-3.88 8.17-1.33 4.9-1.35 1.61-2.12 3.67C4.42 30.88 1.1 42.82.99 42.97c.06 1.14-.6 2.01-.9 2.96-.47 1.44.95 10.51 1.75 13.34.93 3.31.45 2.35 2.11 5.44 1.18 2.2-.08.53.84 2.65 2.78 6.38 10.37 10.7 15.84 14.68 2.26 1.65 9.56 6.14 12.65 6.44 10.3 1.01 18.56-2.69 27.29-6.56 4.03-1.78 2.81-1.92 3.74-3.83 1.04.05 1.57.69 2.84.28l3.46.35c.17.21-.31 1.13 2.14.91.86-1.12 1.97-.21 2.35-.11 2.16.52 3.35-1.58 3.49-1.7.98 2.8 4.3 1 4.34 1.01.61.21.45.22 1.29.27.49 1.14 1.28.66 3.77.36 3.16-.38 2.17-.91 3.34-1.2 1.22 3.7 4.38.38 5.46.72.7.22.54 1.13 2.27.8 1.5-.29 3.19 1.67 4.19-.14.64.04.26.19.72.1 3.58-.54 2.61.02 3.89.12.97.08 1.05-.15 1.67-.18.21.43-.59.43.55.66 2.26.45-.23-.83 3.65.03.64-1.19 1.39-.31 3.26-.37l-.59-.33c3.53.03 3.7 1.54 6.71-.85.37.16.66.36 1.26.36l.14-.36c2.52 1.22 2.76-2.58 3.32-4.08 2.01-.03 1.81.31 3.04-.11.85-.29 2.1.11 3.01.16 2.15.13 5.63-.05 6.38 0 1.16-1.1 12.72 1.03 14.36-.9 1.14-1.35 2.6-12.87 2.97-13.72 2.35-5.47 1.55-7.65 2.25-10.34.58-2.22 3.89-15.48 3.52-16.96-.43-1.75-2.98-1.14-3.58-1.1-4.57.24-7.97-.21-12.32-.08-2.12.06-.93.26-1.92.34.02-.82 4.27-19.16 4.12-19.4l-.92 3.07c-.52-.71 1.85-6.65 2.09-10.24-.84-.82-.69-1.1-1.64-1.32-.86-.2-7.23-.01-8.11.07-2.37.22-5.69-.6-10.71-.16-2.98.26-16.51-.61-17.93.53-.51.41-.87 2.23-1.23 2.98-.39-.48.02-2.66-1.25-5.19-.96-1.91-3.05-1.47-4.03-.31l-.71 2.3c-1.09.07-4.39-.71-8.51-.34-3.69.33-15.65.08-18.81-.04-2.14-.08-4.25.16-6.3.19-3.26.03-9.85-.29-12.32-.21-3.79.12-2.51.71-4.77-1.27C53.3 1.62 52.63.72 50.45.33 45.7-.5 43.04.54 38.71.82 35.92 1 31.25 3.1 28.48 3.36c-4.03.37-12.58 4.79-12.87 6.18z"/><path class="fil1" d="M30.27 47.94c-.34-1-1.75-2.51-2.33-3.44-1.41-2.25-3.77-8.07-4.56-9.15-.78-1.06-1.04-.65-1.33-1.34 1.47-1.86 2.99.37 3.47 1.99.51 1.7 1.01 3.43 1.82 4.9 1.17 2.11.98 2.17 2.51 4.35.5.72.85 1.22 1.36 1.99 1.1 1.64.82 1.65 1.86 1.67-.11-1.5-1.34-2.19-1.55-3.67 1.28.28 1.68 1.75 2.29 2.9.59 1.11 1.49 2.05 1.88 3.22-1.34 1.9-4.63 1.99-6.93 1.99-3.02 0-7.91-2.44-10.07-4.52-.69-.66-.73-.72-1.29-1.66-2.65-4.43-1.49-4.43-.57-7.32.43-1.36.36-1.61 1.57-2.35.8-.49 2.12-1.04 3.19-.84 1.32.25 1.08 1.37 1.78 2.17 1.1 1.27 1.52 1.28 1.84 2.21.52 1.5.89 1.38 1.46 2.46 1.22 2.33.01.34 1.48 2.44.54.77 1.08 1.84 2.1 1.99zm30.78 29.27c-.77.66-.72.52-1.9.87-.64.12-1.16.64-2.1.73-1.73.17-1.11-.28-2.24.69-.59.51-3.26 1.51-4.16 1.87-.89.35-3.83.89-4.93.96-2.78.15-4.1.24-6.96-.07.24-.24-.11-.18.95-.38.36-.06.65-.16 1.02-.22l6.79-.63c2.4-.3 5.6-1.58 7.18-2.78.06-1.03-.58-4.34-1.12-4.92-.68-.25-.69.34-1.42-.11-.54-.33-.22-.51-1.26-.64-.55.65-.19.92-.68 1.36-.92.83-5.28.38-5.61.25-1.07-.39-1.47-1.7-2.68-.85-.4.28-.69.6-1.17.93-1.75 1.21-4.82 2.66-7.07 3.3-1.96.55-4.25.45-6.27-.04-.69-.17-.63-.2-.76-.4.59-.36 3.68-.23 6.38-.93 3.05-.79 5.08-2.03 7.54-3.38 3.22-1.76 2.45-.81 3.17-4.12.22-1.01.55-2.27.64-3.27-1.49.12-2.84.99-3.42 1.02-.77.04-.53-.16-1.2.21-.16 1.35.15.27.4 1.23-.56.85-3.09 2.38-4.15 3.04-1.03.64-3.53 2.33-4.85 2.43-1.64.12-5.28-.35-6.54-.77-2.23-.81-8.37-3.17-9.8-4.73-1.73-1.89-2.21-1-3.52-3.77-.44-.93-.09-1.74-.33-3.01-.96-5.11.05-6.12-.36-8.49-.13-.75-.3-1.2.4-1.36.29.43-.01.59.16 1.39 1.65-.78 1.79-5.76 3.06-5.59.41.05 1.19 1.23.17 1.71-1.05.5.41-.47-.3.12.83.81 5.9 2.36 7.45 3.16 1.29.67 8.04 3.51 9.62 3.86 1.12.24 1.11-.03 2.17-.25 1.23-.25 3.94.15 4.55-.76.59-.88.21-.78 1.13-1.53C43.15 50 40.6 51.7 44.3 50.5l-.11-1.08c-1.12-2.55-2.42-1.35-3.27-.76-.78.55-2.72 2.29-4 2.08-.38-.32-.92-1.07-.98-1.6l.71.04-.28-.32.11-.42c-.47.12-.38.12-.51-.6-.26-1.38-.08-1.88.28-3.01.42-1.31.28-2.4 1.11-3.41.3-.47.8-1.63 1.13-1.96-.02-.68-.29-.61-.67-1.17-1.9-2.8.38-2.35.17-3.66-1.47-.41-4.88.71-5.68.37.14-.85 2.28-1.13 2.66-1.4-.7-.64-1.66-.25-2.11-1.54-.43-1.24.37-2.21.11-3.31-.31-1.29-1.06-2.71.69-4.16.59-.49.45-.36.57-1.32.23-1.73 1.42-4.55 1.64-5.94.27-1.72-.82.73.19-3.08.26-.98.56-2.08.79-2.9-.6-.33-.29.1-.67-.42.48-.94.43.49 1.11-1.3.23-.61.45-1.45.55-2.14-2.11.3-7.22 3.49-8.46 4.56-2.78 2.4-1.52 1.42-3.04 3.4-2.03 2.64-1.12 2.75-3.46 3.04.22-.6 1.5-1.89 2.03-2.25 1.65-1.13.69-1.34 1.61-2.7.8-1.2 3.27-3.16 4.53-4.16 2.41-1.92 4.14-2.66 6.76-3.89 1.03-.48 1.65-1.49 2.9-1.51.81-.01 1.52.3 1.5-.58-1.65-.63-8.46 1.52-10.57 2.21-2.99.98-2.91-.58-10.12 3.18-.52.27-6.01 2.97-4.12 4.21 1.04.68 4.29-3.29 6.66-3.22-.25 1.28-.96 1.1-1.42 1.57.25.51.34.41.92.63-.48.87-3.67 2.6-4.83 2.73-.89.1-1.22-.43-2.04.18-.95.7-1.46 1.75-2.22 2.83-.89 1.27-1.45 1.65-2.45 2.58-.89.82-1.05 2.01-1.45 3.46-.35 1.29-.72 2.69-1.03 4-.62 2.56-.81.88-1.94 3.08-.46.89-2.99 10.27-3.36 11.63-.37 1.35-.62 2.73-1 4.04-.55 1.87 1.17 11.08 1.79 12.98.44 1.36.82 2.41 1.49 3.55.78 1.31.8 2.23 1.39 3.65.47 1.13 2.22 3.42 3.13 4.29.48.46.8.65 1.34 1.18 1.68 1.66 3.81 2.96 5.67 4.41 2.35 1.84 9.31 6.25 12.3 7.86 2.36 1.27 5.16 1.81 8.33 1.41 7.1-.91 13.06-2.72 19.34-5.84l3.39-1.65c.17-.73.26-.92-.29-1.14z"/><path class="fil2" d="M103.27 51.03c.09-1.48 2.8-13.59 3.24-17.08-2.99-.04-3 .03-3.78 2.79-1.14 4.03-4.66 23.28-5.58 25.06-1.91.2-3.22-.65-5.32 0 .39-2.61 5.34-23.47 5.18-24.15-.2-.85-3.13-1.91-3.67.34l-7.3 34.07c1.17.58 11.84.85 12.77-1.18.21-.45 4.19-17.91 4.46-19.84zm42.16 21.39c3.85.38 2.87 1.14 4.35-4.74.22-.83 1.34-5.33 1.25-5.75-4.64-.14-3.64-.66-4.36 3.63-.22 1.28-1.38 6.05-1.24 6.86zm-4.95.05 3.34-.09c.39-1.39 2.52-9.44 2.32-10.45l-3.55-.12c-.3 2.51-2.25 9.78-2.1 10.66zm9.03.08c.63.28 2.93.12 3.59-.13.48-.31 1.24-5.45 1.34-5.96 1-5.23 1.24-4.59-1.39-4.67-1.69-.05-1.37.42-1.73 1.95-.38 1.61-2.27 8.21-1.81 8.8zm-6.08-13.81 3.46-.38 5.09-24.15c-.12-.5-2.74-.29-3.26-.23l-5.29 24.76zm4.92-.27 3.34.06c.59-2.81 5.05-23.42 5-24.4l-3.36-.04c-.24.5-5.01 23.62-4.99 24.38zm4.2.11 3.43.05c.54-.66 5.49-23.35 5.24-24.3l-3.26-.4c-.27 1.01-.35 2.1-.62 3.09L154.99 46l-2.44 12.59zm-11.51-10.56-5.41.11.61-3.12c.19-.5 4.81-.42 5.47-.36.1.73-.46 2.62-.67 3.37zm-6.08-13.9c.22 2.35-3.44 14.7-4.14 19.05-.94 5.88-2.78 13.28-4.01 19.34 2.64.13 3.48.84 3.9-1.81.3-1.99.69-2.2.93-3.13.41-1.59.69-4.3 1.35-6.91.29-1.14.01-1.02.08-1.73.8-.24 5.01-.61 5.57-.29.32.6-2.65 12.1-2.84 14.14l3.56-.25s8.19-37.32 8.12-38.56c-.93-.01-1.94.18-2.95.18-3 0-6.7-.16-9.56-.05zm-20.38 10.41-.49 3.3-5.44-.1c-.04-.64.21-2.58.47-3.12l5.46-.08zm6.93-11.21c-1.31 9.62-4.04 18.49-5.98 27.93-.1.48-1.69 9.08-1.94 9.31l-.69-12.03c.43-.57 1.94.1 2.28-.13.57-.53 4.28-22.98 5.2-23.98l-.12-.4-12.12-.06c-1.17 4.96-8.39 35.2-8.34 37.41.02.68.32.74.64 1.14 1.18-.15 1.46-.16 2.71-.16.95-2.96 2.11-12.06 3.14-13.87l1.41-.12c.87 1.45.91 13.13 1.26 13.67.36.55 7.3.51 7.74.45.77-1.44 3.84-18.82 4.03-19.1.34.26 3.11 16.7 3.38 19.12.11 1-.11 2.13.12 3.08 1.58.04 2.71-8.7 2.94-9.83.69-3.56 1.64-6.96 2.42-10.46l4.35-21.33-3.48.15c-.46.66-1.53 8.02-1.87 9.54l-2.11 9.31c-.7-.81-3.06-18.08-3.53-21.74-.17-1.36-.24-1.15-.63-1.36l-.8 3.45zm-67.69 2.56c.67-.57-.1-.76.74-.98.83-.21.99.18.77-.96-.15-.8-.2-2.67-.53-3.15-.43.3-2.31 4.7-.98 5.08zm4.53 17.56c-.13-2.05-2.09-14.37-2.47-15.04-.27.05-3.16 1.69-3.4 1.97-.45.51-7.19 30.27-7.01 31.93 3 .51 3.29.09 3.89-2.59l3.38-15.76c.3-.72-.03-.29.45-.54.36 1.14 2.98 22.5 3.71 23.09 0 0 8.5-37.23 8.39-39.28-1.14-.19-1.97-.07-3.08.22-.47.12-.37-.29-.72 1.58-.44 2.33-2.59 13.74-3.14 14.42zm6.4 8.44 3.63-17.39 5.37.11c.47 1.11-3.39 15.29-3.42 17.13l-5.57.15zm10.97-25.83c1.41.35 4.69-4.48.31-.83-.32.27-.44.27-.31.83zm-8.83 36.39 4.79-.09c1.74-8.4 3.94-17.17 5.57-25.53.57-2.94.92-5.83 1.72-8.6-1 .2-7.25 4.39-7.25-.99 0-1.21.63-2.24.5-3.28-2.37-.71-3.87 1.68-4.88 2.51-1 .82-4.34 16.35-4.62 18.05-.61 3.77-2.4 9.97-2.68 12.43-.21 1.85-1.23 4.26.42 3.23 1.1-.69 2.44.06 4.57.23 1.36.11 1.33 1.1 1.87 2.03zM78.5 44.47c1.26.36 2.85-.18 4.1-.2.1 2.42-5.7 26.46-5.65 27.78 1.59.2.74.24 1.56.5.5-2.13 1.59-1.58 2.33-1.71.51-1 5.16-23.42 5.5-26.16l4.4-.17c.38-.56 1.87-7.09 1.9-7.58-.98.03-1.63.03-2.56-.14-2.59-.47-2.61 1.77-4.63-2.46-.68.07-1.91 1.17-2.56 1.6-3.61 2.35-2.88.92-3.82 4.85-.25 1.07-.7 2.57-.56 3.71z"/><path class="fil1" d="M142 24.51c-1.16.28-.56.19-1.68.19l-5.04.06c-.29.97-.48 2.17-.69 3.23-.17.9-.79 2.69-.49 3.52 3.07-.09 6.04.19 9.01.09.27-.61 3.36-15.32 3.32-15.88-1.25-.54-5.37-.15-6.9-.1-.07-.74.17-1.7.44-2.27 1.4-.39 5.32.1 6.88.02.2-.42 1.79-7.71 1.35-6.96l-4.66-.03c-6.05.15-4.39-1.1-5.59 3.95-.31 1.28-.7 2.64-.91 3.85-.26 1.5.16 1.22-.51 4.27-.26 1.18-.85 2.86-.94 4.04 2.17-.09 4.59-.23 6.74-.1.05.85-.27 1.36-.32 2.12zM73.24 16.76c-.04 1.11-1.29 4.29-1.56 7.21-.34 3.61-1.34 5.9-1.49 7.44 3.95-.09 3.84.31 5.48-1.74.61-.76.87-1.37 1.63-1.88 1.27-.86 1.31-.57 2.9-.73.62-.28 3.07-10.72 3.13-11.65l-6.02-.04c-.26 1.03-1.51 6.28-1.39 6.91 1.16.14 2.06-.22 3.04-.13.03.19-.13 1.6-.21 1.77-.43.76-3.61.53-4.3.48-.25-.8 1.75-6.27 2.22-7.99.28-1.01-.06-2.57.27-2.95.6-.61 6 .07 6.69-.46.18-.26 1.59-6.04 1.73-6.75l-8.51-.02c-.5.34-.89-.14-1.18.51-.09.2-.09 1.32-.14 1.68-.19 1.24-1.94 7.83-2.3 8.32zM86.88 15.36c0-.36.14-1.03.25-1.37.2-.61.34-.56 1.12-.59.99-.04 2.42-.09 3.38.01-.24.94-.3.86-.35 2.1-1.03.2-3.4.14-4.4-.15zm-5.85 15.52.01.54c.71.04 2.06.47 2.47-.39.18-.54.11-1.57.23-2.22l1.66-6.34c1.92-.21 1.69.5 1.86 2.17.21 2.02-.17 3.48.75 3.63.8.13 2.2-1.38 2.44-1.86.66-1.27-.03-2.84.38-3.98.7-.25 1.09-.02 1.83-.11-.14-1.29-.94 1.1.28-3.76.63-2.5 2.88-10.52 2.8-11.91-1.42-.51-3.13-.14-4.68-.15-1.44-.01-3.67-.34-4.9-.21-.37.72-2.23 8.15-2.22 8.97.01.68.29.44.01 1.59-.97 4.03-1.5 7.04-2.18 11.07-.07.43-.62 2.75-.74 2.97z"/><path class="fil3" d="m107.1 5.77-.66 4.62-.1.24c-1.16 4.01-1.62 6.69-2.19 10.76-.2 1.41-.78.87-.04 2.49.67 1.48-1.23 3.78-1.59 4.38-.32.53-.54 2.12-.59 2.84l2.42.42 1.52-6.19c.13-1.01.85-6.12 1.13-6.55.79.57 2.82 12.61 2.9 12.75.36.29.75.51 1.32.28.44-.39 1.31-5.29 1.52-6.21.29-1.31.2-2.32.41-3.53.16-.94.55-2.1.8-3.1 1.05-4.19 1.3-7.22 2.55-12.01.05-.21.11-.48.04-.69-.54-.17-1.9-.21-2.44-.01-.33.27-.18-.01-.34.54-.08.27-.08.55-.14.82-.21.88-1.12 3.24-1.25 4.14.19.03.27.04.45.14-.01.24-1.35 6.36-1.35 6.37-.61-.14-.57-.69-.73-1.41-.16-.71-.27-1.26-.4-1.99l-2.65-11.52c-.41.53-.62 1.67-.61 2.42z"/><path class="fil1" d="M39.22 26.64c-.09 1.44-.55 3.05-.3 4.61l2.42-.26c-.11-.63-.41-.22-.22-1.28.07-.36.25-.99.35-1.34l.92-2.67 1.22-6.79c1.15.55 1.1 5.92 2.1 7.26.85-.13 1.11-.5 1.84-.83.73-.33 1.38-.39 2.08-.56.45-1.47.66-3.07.97-4.66.32-1.61.64-3.13.97-4.74.28-1.38 2.19-8.48 2.16-8.99-.81-.11-2.03-.17-2.85-.05l-2.29 9.01c-.15.55-.27.97-.16 1.67.1.6.19.97-.22 1.54-.68-.33-1.72-6.23-1.97-7.36-.27-1.24-.73-2.36-.97-3.66-.29-1.57-.25-2.44-.85-3.87-.65.33-.63 1.89-.73 2.75-.12 1.05-.35 1.93-.57 2.92-.44 1.93-.57 4.14-1.03 6.1-.46 1.93-.8 3.78-1.35 5.65-.24.82-1.53 5.11-1.53 5.54zM101.48 15.45l-4.33.05.48-2.33 4.35.16-.49 2.12zm2.45.49c.33-3.4.34-2.55.87-5.11l.07-.35.17-.48c.19-1.02.81-2.77.73-3.7l-9.46.19c-.12.71-.17 1.48-.27 2.17-.13.75-.35 1.5-.54 2.25-.37 1.48-.77 3.02-1.13 4.48-.26 1.03-.28 1.39-.25 2.54.04 1.65-1.5 6.22-1.25 6.82.49-.09.46-.23.73-.78l1.05.07c1.5-1.82.27-1.41 3.2-1.75.93-.11 1.39-.24 2.25.15.6.27 1.13.63 1.99.48.44-.61 1.89-6.1 1.84-6.98z"/><path class="fil4" d="m14.73 57.52 2.1 4.07 1.13.22.4-.48c.06-1.54.07-2.86.35-4.21.21-.98-.14-.19-.11-.95l.43.04c.24.66 0 2.41.06 3.28.04.61.47 2.36.4 2.56-.42.32-.15-.03-.38.37.53.65 2.39.86 3.36.97.33-.42.15-.45.61-.85-.21-2.33-.86-3.97.79-5.67.06.13-.23 2.12-.18 2.92.05.68-.08 1.1.1 1.73.28.97.14.38-.15 1.09.99.54 2.24 1.18 3.6.98.82-.13.54-.32.55-1 .57.2 1.87.79 2.65.76.69-.03 1.75-.93 2.07-1.34-.31-1.21-1.24-2.02-1.31-3.46 1.55.76 1.55 2.84 2.9 2.94 1.29.09 2.03-1.85 3.25-2.37l-.02-.61c-.36-.3-.42-.58-.45-1.15.17-.12.09-.02.26-.04-.08-1.19-1.6-.92-3.33-.94-1.33-.01-2.52.33-3.01 1.2l-1.28-.3c-.9-.02-2.02-.15-2.75.13-.19-.37-1.02-1.61-1.49-1.82-.97.18-.33.74-2.1.56-.53-.51-1.09-1.61-1.66-1.89-.81-.39-1.46.35-2.77.39l-.21.96c.02-1.68-.94-3.02-2.71-2.77-.45.25-1.28 3.09-1.09 4.68z"/><path class="fil4" d="M22.89 64.16c-.9.14-.86-.07-1.18 1.24-.07.3-.07.28-.21.54-.56-.31-.63-.58-.82-1.1-.54-.81-.1-1.4-1.42-1.49-.88-.06-1.5.4-1.94.87.03.75.81 1.84 1.17 2.46.6 1.05 1.15 1.35 2.29.74 1.35-.73.9 2.42 4.67 2.13l.5-.87c.15-.24 0-.07.21-.27 1.25 1.86 1.62 3.21 4.64 2.05 1.03-.4 2.17-.06 3.33-.59 1.48-.67 1.38-1.03 1.71-2.08.88.01.84.26 1.48.41.44-.26.28-.29.68-.48 1.04-.5 1.34.02 1.27-1.8-.34-.62-.01-.6.01-.64 2.19.32 1.56.32 3.35-.35-.01-1.44-1.71-4.41-3.13-5.26-1.26-.76-1.15.06-1.93.39l.07-.7c-1.26.41.47 2.51.83 3.82-.85-.56-1.11-1.6-2.28-2.12-.18.12-1.39 1.15-1.54 1.36-.05.44.53 3.37.64 4.05-.68-.58-1.05-2.75-2.01-3.09-1.15-.41-3.19.73-3.64 1.29.3 1.34 1.01 2.32 1.27 3.84-.89-.56-1.89-2.85-2.7-3.78-.93-.12-1.81.12-2.55.33l-.25 2.05c-.63-.94-.43-.9-.42-2.04-.63-.33-1.23-.92-2.1-.9z"/><path d="M117.51 6.46c-.53 1.26-1.3 5.31-.96 6.67.83.26 1.94-.07 2.89.06.07.69-.78 3.74-1 4.37-.45 1.25-.84 5.98-1.86 9.31-.24.8-.26 1.52-.48 2.34l-.38 1.73c.03.77-.02.3.17.49.16.13 2.32.5 2.66-.45.06-.18.08-.42.1-.62l.74-3.47c.48-1.5.57-2.99.84-4.6l1.51-6.63c.17-.63.35-1.68.53-2.22 1.24-.3 2.98.31 3.42-.53.07-.14.1-.23.15-.41l1.35-6.05c-2.08 0-7.94-.43-9.68 0z" style="fill:#616569"/><path class="fil6" d="M51.95 24.94c1.53-.15 2.62-.55 4.22-.41 1.56.14 2.7.55 4.09.77-.08-.56-.09-.05.12-.31.01-.01.44-.18.1-.01-.51-.53-2.34-.7-3.28-.9-.54-.11-.77-.11-1.1-.44l.93-.3c.49-1.66.75-3.26 1.16-4.99.71-3 .63-2.03 1.06-5.26 1.05-.23 2.36.03 3.51-.01.62-.79 1.56-4.44 1.96-5.85l.01-.85c-.75.37-1.03 2.65-1.52 3.57-.19.36-.04.1-.18.28.1-1.21.87-3.03.81-4.05l-9.28.13-1.57 6.87 3.43-.12c-.01.28-.03.82-.09 1.07-.23 1.02-.35-.12-.73 2.15-.17 1.05-1.51 7.61-2.08 8.06-.35.28-.77.19-1.16.34l-.43.25z"/><path class="fil7" d="M31.1 49.55c-1-.55-.89.25-1.49.82a2.26 2.26 0 0 1-1.47-.56c-1.75-1.32-1.26-3-1.57-3.97-.19-.58-.75-1.15-1.09-1.7-.38-.61-.68-1.25-1.05-1.89-.83-1.39-3.18-5.73-4.83-4.55-.22.16-.52.44-.85.68-2.9 2.15-1.55 6.82-.46 8.33 1.01 1.4 1.88 1.77 3.28 2.46 1.41.69 2.06 1.52 3.93 1.83-.12.34.18-.05-.17.17l-.37.16c1.16.14 3.63.99 4.39.77l.79-.22c.58-.08 1.21-.19 1.6-.47.13-1.03-.51-1-.65-1.87z"/><path class="fil0" d="M28.14 49.82c.53.17.46.23 1.05.14.53-.55.35-.85.84-1.29.78-.04.81.24 1.07.88.15.88.78.85.65 1.87-.4.28-1.02.39-1.6.47l-.79.22c-.76.22-3.23-.62-4.39-.77l.37-.16c.35-.21.04.17.17-.17-1.87-.31-2.52-1.13-3.93-1.83-1.4-.69-2.27-1.06-3.28-2.46-1.09-1.51-2.45-6.18.46-8.33.33-.25.62-.52.85-.68 1.65-1.18 4.01 3.17 4.83 4.55.38.63.68 1.28 1.05 1.89.34.54.89 1.11 1.09 1.7.32.97-.17 2.65 1.57 3.97zm-6.09-15.81c.29.69.56.27 1.33 1.34.95 1.3 2.37 5.29 3.58 7.33.33.56.61 1.24.98 1.82.58.93 1.99 2.44 2.33 3.44-1.02-.15-1.56-1.22-2.1-1.99-1.47-2.1-.26-.11-1.48-2.44-.57-1.08-.94-.97-1.46-2.46-.32-.93-.74-.94-1.84-2.21-.69-.8-.46-1.92-1.78-2.17-1.07-.2-2.39.35-3.19.84-1.21.74-1.13 1-1.57 2.35-.92 2.89-2.08 2.89.57 7.32.56.94.6 1 1.29 1.66 2.17 2.08 7.06 4.52 10.07 4.52 2.3 0 5.58-.09 6.93-1.99-.4-1.17-1.3-2.12-1.88-3.22-.61-1.15-1.02-2.62-2.29-2.9.21 1.49 1.44 2.17 1.55 3.67-1.04-.02-.76-.03-1.86-1.67-.52-.78-.86-1.27-1.36-1.99-1.52-2.18-1.34-2.24-2.51-4.35-.81-1.47-1.32-3.2-1.82-4.9-.48-1.62-2-3.85-3.47-1.99z"/><path class="fil8" d="M64.75 61.89c.96.09 1.57-.21 2.65-.17.94.04 1.99.07 2.92.02.02-1.85 3.89-16.02 3.42-17.13l-5.37-.11c-.6 2.8-1.09 5.89-1.74 8.76-.57 2.52-1.73 6.21-1.89 8.63z"/><path class="fil9" d="M51.95 24.94c-1.55.27-2.97.93-4.21 1.58-1.46.77-2.5 1.44-2.64 3.5l3.65-2.08c1.16-.56 2.69-1.24 4.1-1.62 2.69-.74 7.9-1.57 8.65 1.41.83.74.74 2.23-.02 2.29-.07-.63.15-.78-.27-1.23-.09 1.84-1.12 2.93-1.98 3.89-1.11 1.25-1.64 1.79-3.11 2.77s-5.91 3.79-8.06 3.95c.31-1.23 2.88-6.13 3.38-6.67 1.02-1.1.8-1.35 1.9-2.16.49-.36.67-.71.62-1.42-2.21-.33-3.97 2.83-5.09 4.64-.89 1.43-1.83 3.35-2.42 5.02-.29.83-.34 1.14-1.18 1.27-.19.17-.03.1-.4.17l-1.94.08c.52 1.42 4.32.62 5.61.36 3.36-.18 8.69-3.88 10.48-5.54l1.95-2.11c1.77-2.27 2.71-4.53.44-6.86-.34-.35-.84-.53-1.13-.85-1.39-.22-2.53-.63-4.09-.77-1.6-.15-2.7.26-4.22.41z"/><path class="fil3" d="m40.33 6.29-2.53 9.06c-.2 1.56.6-.51-.25 3.12-.51 2.16-1.04 4.14-1.5 6.33-.25 1.21-.18 2.35-.45 3.46-.24.98-.65 2.19-.67 3.25.52.02 2.52-.15 2.93-.3.5-1.77.5-4.44.97-6.43.44-1.85 1.19-4.19 1.4-6.17.35-3.31 2.08-9.03 2.72-12.47-.7.09-.49.28-1.13.26-.45-.02-.9-.11-1.5-.1z"/><path class="fil1" d="M128.09 6.37c-.12 2.05-1.19 4.77-1.52 6.82 1.7.08 3.38-.04 5.07-.07 1.26-.03 3.9.38 4.75-.1.14-.34 1.54-6.25 1.56-6.58-1.54-.19-8.67-.42-9.86-.07zM62.93 15.5l-1.08 4.98c-.08.31-.14.48-.22.77-.48 1.7.48 1.12 4.65 1.09 1.22-.01 4 .12 4.95-.17.24-.6 1.6-6.38 1.53-6.67h-9.84zM124.89 22.3c1.64.05 3.21-.12 4.85-.01 1.01.06 3.96.26 4.68-.04.24-.19.28-1.32.32-1.67.07-.65 1.12-5.76.72-5.06l-1.99-.06c-2.07-.01-5-.35-7-.06-.39.62-1.47 5.87-1.58 6.9z"/><path class="fil9" d="M78.3 30.7c.23-.57.4-.69.95-1 .53-1.28 1.09-1.18 1.31-1.29-1.99-2.03-4.58 2.71-5.88 4.2-2.8 3.22-2.95 7.11.52 6.43 3.04-.6 11.19-6.63 14.03-8.41.87.22.57.66 1.82.41.13-.18.16-.34.31-.51.24-.28.26-.17.53-.44-.21-.69-.21-.18-.49-.84l2.07-1.49c1.22-.87 3.17-1.91 4.53-2.75.67-.41 1.76-.91 2.04-1.68-2.5-.92-4.63 1.45-7.12 2.89-2.78 1.61-6.75 4.79-9.32 6.36-2.97 1.81-7.43 5.63-10.39 5.56.19-1.18.66-2.46 1.5-3.24.25-.23 2.49-3.36 3.58-4.21z"/><path class="fil1" d="m73.4 13.2.22-.14c-.56-.34-.8-.43-.34-1.04.17-1.5 1.26-4.43 1.2-5.68l-9.13.1c-.3.62-1.72 6.5-1.59 6.85.57.21 8.37-.05 9.63-.09z"/><path class="fil10" d="M98.26 34.76c.8.01.72-.91.84-1.72l.7.04c-.03 1.1-.81 2.28-2.11 1.99-.06-.52.36-1.2.79-1.5.44.7-.24.3-.21 1.18zm-.24-4.5c.22-1.03.53-1.6 1.09-2.2.61-.65 1.09-1.42 1.47-1.68.26.58-1.08 1.72-1.41 2.36.77-.26.96-1.1 1.81-1.43.02.83-2.29 2.72-2.95 2.95zm3.39-3.72c-.47-.55-.07-.93.28-1.23.38.15.48.29.75.73-.17.51-.19.53-.66.71l-.01-.95-.36.74zm-4.81 9.23c1 .01 2.77-.4 3.65-.07l-.14.69c.64-.05.79-.07 1-.58.37-.89-.16-.91-.32-1.24l.25-.6c-.11-.48-.27-.78-.43-1.35-.24-.33-1-.64-1.58-.58-.5.05-1.04.58-1.4.86-.32.25-2.38 1.73-2.71 1.71-.32-1.2.3-1.52 1.8-2.76.73-.6.89-.44 2.65-2.11.68-.64 3.17-2.92 3.58-3.56 1.3-1.98-.07-3.41-2.59-1.33-.46.38-.71.77-1.12 1.12-.78.67-.64.18-1.26 1.12l-2.89 3.96c-.39.51-.57.88-1.39 1.09-.03-.03-.06-.12-.08-.1 0 .01-.34-.4-.37-.73-.06-.61.87-1.15.45-2.59-.38.31-.9 2.87-.64 3.31l-2.28 1.56c-.46.32-2.1 1.76-2.73.68.61-.21.46-.05 1-.04-.24-1.46.86-1.24-.11-2.17-.8.17-.53.45-.93.84-.45.45-.24-.71-.82.6-.67 1.52-.36 1.67.46 2.58.95 0 1.46-.69 2.4-.85.19.21.5 1.26 2.14.9.12-.67-.14-.73-.57-1.03.3-.73.48-1.32 1.26-1.55-.17.79-.35 1.03-.39 1.91.84.15 1.93.74 2.65.13.77-.65.22-1.05 1.43.15z"/><path d="M125.5 31.28c1.8-.18 4.89.29 6.44-.06.91-1.21 1.08-5.16 1.74-6.13.11-1.09-.39-.64-1.46-.58-1.71.09-7.07-.41-7.62.07-.06.1-.03-.02-.15.3-.31.87-.59 2.6-.22 3.4.26.56.45.82.64 1.47.13.46.17 1.39.64 1.53z" style="fill:#66686d"/><path class="fil1" d="m63.39 31.17 5.88.23c.3-.73 1.38-6.3 1.28-6.85-1.52-.16-3.13.03-4.7-.02l-4.66-.36c1.71 2.65 1.96 1.28 2.29 4.79.09.92-.18 1.52-.11 2.21z"/><path class="fil2" d="m17.96 61.81-1.13-.22c-.41.55-1.82-3-2.62-3.37-.24.43-.07.46-.24.88-.07.18-.32.49-.42.65.2.45.69.66.38 1.39-.67-.18-.25-.14-.64-.61-.34-.41-.3-.18-.74-.49l.23-1.02c-.35.33-.89.46-.82 1.42.04.66.29 1.29.27 2.12-.48.39-.27-.03-.5.42.95 2.81 1.17 1.95 1.89 3.12.34.56.18.71.74.93.56-.26.88-1.76 1.09-2.39.4-1.19.84-1.34 1.06-2.59l1.25.12.2-.37zm-3.23-4.29c-.2-1.59.64-4.43 1.09-4.68 1.77-.25 2.73 1.09 2.71 2.77l.21-.96c1.31-.04 1.96-.78 2.77-.39.57.28 1.13 1.37 1.66 1.89 1.77.18 1.13-.38 2.1-.56.47.22 1.31 1.45 1.49 1.82.73-.28 1.85-.15 2.75-.13-.43-.29-.98-.26-1.59-.2.54-.3 1.1-.08 1.79-.26-.02-.31.28-.24-.87-.91-1.49-.88-1.82-.63-2.88-1.04-.54-.21-.71-.45-1.28-.67-.89-.34-2.02-.55-2.93-.87-1.11-.39-1.68-.97-2.58-1.32-1.42-.56-2.02.18-3.06-.73-.68-.6-2.42-.79-2.81.18-.3.77.83 2.01.96 2.77.22 1.21-.63 2.35.46 3.3zm27.35-3.5c.73-.08.61-.16 1.02-.78.43-.64.53-1.38.67-2.13-1.44-.36-1.34.54-1.66 1.26-.03.01-.08-.03-.09 0-.22.55 0-.04-.29.02l-.32.1c.18.94.4.85.66 1.54zM29.07 71.48c-.79-.18-1.27-.19-2.03-.47-.74-.27-1.06-.37-1.88-.52-4.18-.77-4.35-2.06-7.51-2.42.12-.45.24-.54.07-1.06-.28-.89-.9-1.78-1.84-1.78-.15.37-.2 1.38-.36 1.91 3.5 2.91 2.93 1.28 4.72 2.13.72.34.18.26 1.59.68-.61.44-1-.21-1.64.17.89.77 2.18.62 3.41.85 1.2.23 2 .56 3.35.69 2.85.27 2.11.59 3.28.79.95.17 2.76-.4 2.66-1.14-.69-.25-.96.37-1.81.55-1.34.29-1.05-.17-2.01-.39z"/><path class="fil4" d="M37.94 43.66c.09.87.63 2.11.36 3.06-.15.52-.5.72-.91.95-.71.39-.45.33-.93.76l-.11.42.28.32c1.54.27 1.78.01 2.77-.75.57-.44 1.6-1.28 1.88-1.9.65-1.47-1.93-4.18-2.01-5.23-.58.08-.26-.17-.72.42-.09.12-.23.38-.3.53-.26.52-.37.74-.31 1.43z"/><path class="fil8" d="M109.13 44.61c-.26.54-.51 2.48-.47 3.12l5.44.1.49-3.3-5.46.08z"/><path d="M63.92 35.29c-.82-.05-1.1-.13-.61-.88.23-.35.42-.76.87-.93.71.47.08 1.06-.26 1.82zm4.52-.75-.06-.39c-.99.05-.87.41-1.4.99-.49-.03-.49-.15-1.07-.37-.53-.2-.61-.13-.74-.65l1.09.29c.33-.62.6-1.04.28-1.72-1.66-.07-1.89-1.36-3.62.19-.64.58-2.39 1.72-1.34 2.88.53.58 1.3 1.06 2.11.39.11-.09-.32-.22.48-.25.48-.02.56.23 1.02.32 1.39.27 2.58-1.15 3.25-1.69z" style="fill:#fffff7"/><path class="fil13" d="M94.51 77.19c-.06.52-.15.72-.7.71l.13.47 1.58-1.13 1.13-1.5c.18.21.11.33.42.54l.62-.54c.87 1.57-.59 2.41 1.55 2.12-.06-1.5.19-4.37-.2-5.61-.9-.16-1.35.22-1.8.55-.09.64.09.55-.03 1-.03.13-.08.16-.16.53-.1.41.08.13-.11.56l-.75-.12c.2-.65.44-.57.51-1.05-.96.11-1.02 1.43-1.57 2.02-.42.45-.39.13-.57.69l.77.22c-.15.53-.33.57-.82.55z"/><path class="fil14" d="M78.79 74.17c.51-.7.19-1.33 1.55-.9.17 1.03-.24 1.48-1.06 1.74-.2-.48-.22-.48-.49-.84zm1.27 1.72.44.1c.42-.73.39-1.23.53-2.23.23-1.59.02-.15-.25-1.84-.05-.31.07-.07-.08-.32-.75-.01-.56.13-.97.76-.38.58-.46.43-.86.82-.39.39-.47 1.29-1.4 2.14l-.1-.23c-.2-.8.12-.22-.04-.6-.36.18-.31.48-.45 1.04-.22.83-.46 1.7-2.12.92-.7-.33-.15-1.17.17-1.33.58-.3 1.03.21 1-.78-.78.61-.67.12-1.48.32-.6.15-1.93 2.29 1.9 2.32.31.47-.01.4.56.53.54-.9.29-1.16 1.23-1.7.64-.37 1.06-.73 1.74-.14.23.2.06-.02.17.21z"/><path class="fil7" d="M37.59 57.24c.37.19.21.51.42.98 1.14-.07 1.64-.89 2.22-1.32.19-1.04.88-2.53.84-3.48l-.37-.38-3.34 2.86c-.57.55-.1.84.24 1.35z"/><path d="M36.45 48.43c.49-.43.22-.37.93-.76.41-.22.77-.42.91-.95.27-.95-.27-2.19-.36-3.06-.28-.16-.3-.13-.53-.22l-.48-.21.41-1.83c-.83 1.01-.69 2.1-1.11 3.41-.37 1.13-.54 1.63-.28 3.01.13.71.04.72.51.6z" style="fill:#0a0909"/><path d="M46.55 2.83c.14.59.35 1.26.51 1.86.3.09.7.12 1.04.21.42.12.46.24.83.36.38-.39.2-.66 1.39-1.05.52-.17 1.93-.46.67-1.06-.74-.35-2.76-.59-3.22-.47-.58.15-.14.17-1.22.16z" style="fill:#595a5e"/><path class="fil13" d="M103.77 77.39c1.18.81.52.66 1.17.83l.13-.9.8.05c.05-.37.02-.75.3-.94.29-.2.17-.01.68-.07l.3-.88c-.62-.12-1.24-.13-1.83-.07-1.3.14-.36.4-1.27.62-.08-.84.34-2.07.72-2.69.21.23.09.52.42.69l.15-1.04-.98-.27c-.89 1.18-.74 3.2-.59 4.68z"/><path d="M48.53 40.68c-1.29.26-5.09 1.06-5.61-.36l1.94-.08c.36-.07.2.01.4-.17-1.25-.09-1.97.04-3.19-.21-.86-.18-1.95-.73-2.77-.64-.07.5.05.47.03.67-.05.39-.12.17-.21.57 3.47.77 4.92 1.39 8.5.74.55-.1.48-.12.91-.52z" style="fill:#a9a9a9"/><path class="fil18" d="M119.61 75.86c.23 1.67 1.36 1.67.14 2.09-.61-.44-.54-1.64-1.53-1.77-.09.46-.27 1.51-.15 1.88.78-.06.05-.21.67-.49.18.3.31.74.49 1.02.87-.07 1.66-.38 2.36-.62.04-.95-.18-.91-.39-1.56.21-.06.48-.09.59-.13.96-.32.34.03.62-.43 0 0-.1-.88-1.3-.46-.3.1-.34.21-.66.3-.3.09-.49.05-.83.15z"/><path class="fil6" d="m80.49 75.99-.44-.1c-.19.7-.32 1.12.46 1.41.53.2 1.57.3 1.97.06l-.22-.09c.76-.71.81-2.02 1.18-2.35-.36-.23-1.41-.36-1.82-.24-.2.26-.43.71-.54 1.16-.18.75.11.93-.63.95l.04-.8z"/><path d="M59.15 78.07c1.18-.35 1.13-.21 1.9-.87-.33-.91-.13-.23-.63-.79.33-.42.48-.46.67-1.13.15-.53.25-1 .34-1.58-.21.08-.25.07-.51.17l-.09-.29c-.03.02-.07.02-.08.07-.05.2-.92.46-1.33 1.92-.29 1.01-.06.56.18 1.21.18.5-.21.74-.46 1.28z" style="fill:#413c3a"/><path class="fil18" d="M117.51 78.34c.26-.79.07-2 .12-2.88-.6.07-.69.32-1.2.58-.5.25-.87.33-.95.94-.14 1.14 1 1.88 2.03 1.37z"/><path d="M48.07 30.05c-.36-.15-.36-.69-.88-.14-.84.9.16 3.93.2 4.01.59-.38 1.22-3.52 1.29-4.44-.54.18-.37.19-.61.58z" style="fill:#444344"/><path d="M39.22 26.64c-.21.22-.24.57-.3.97-.06.42-.12.79-.15 1.22-.04.72-.08 1.9-.01 2.58l2.76.26c.4-1.87.88-3.97.87-5.96-.35 1.01-1.08 3-1.27 4.01-.19 1.05.1.64.22 1.28l-2.42.26c-.26-1.56.21-3.17.3-4.61z" style="fill:#3b3738"/><path class="fil10" d="M84.49 77.11c.22.19.36.18.77.21.02.59-.18.33.06.76.38-.11.18.32.64-1.02.11-.32.31-.97.44-1.24.21-.43 1.57-1.09 1.16-1.9-.71.12-.17.24-.7.9-.17-.28-.05-.6-.07-1.09-.56.21-.48.27-.74.76-.59 1.08-.54 1.56-.79 2.01-.29.52-.25.26-.76.62z"/><path d="m64 74.96.33-.44.94.26c-.03.48-.27 1 .02 1.49.12.2 1.02 1.08 1.7.02.12-.19.18-.33.32-.58-.27-.81-.3.01-.37-.88.52.04 1.08.34 1.55.09l-4.61-.56.24.24-.12.37z" style="fill:#7c7b7c"/><path d="m60.84 73.6.09.29c.25-.11.29-.09.51-.17.75-2.46 1.46-1.6 3.85-1.66-.66-.55-2.06-.7-2.97-.46-1.38.37-2.68-.68-2.89.48l1.77.27-.36 1.25z" style="fill:#eaeaea"/><path class="fil24" d="M99.94 77.74c1.07-.33.75-.8 1.11-1.67 1.31-.17.55.77.93 1.55 1.28-.3-.44-1.24.7-1.32.21.59-.15.68.28 1.09.18-.26.44-1.26.21-1.59-.21-.31-3.68-.98-3.23 1.94z"/><path d="M101.05 33.97c.69.46.32.66.43 1.29.08.45-.01.23.21.5.6-.32.22-.18.53-.68.4-.64 1.24-.27 1.64-1.85-1.45.01-.8.98-1.85 1.03-.15-.95.1-1.01-.43-1.65h-.96c.16.57.32.87.43 1.35z" style="fill:#c4c4bc"/><path class="fil13" d="M107.7 76.41c.42.22.53.12.89.27.55.23.06.24.66.38.14-.29.2-.68.33-.88.52-.75.24.09.88-.47l-.57-.42c.34-.34 1.02-.32.18-.5-.52-.11-.57.2-.89.41-.89.59-1.45-.29-1.47 1.2z"/><path class="fil26" d="M70.09 74.87c-.06.52-.01.91-.02 1.41-.02.79-.17.51-.28 1.1.79-.07.64-.72.66-1.96l1.95-.04c-.06-.45-.1-.31-.35-.65.2-.34.14-.15.3-.59-.13.01-2.11.66-2.25.73z"/><path d="M87.59 75.2c.49.6.79-.07 1.22 1.09.2.54-.1.21.29.52.42-.39.24-.84.61-1.45.25-.06.52-.05.64-.08.73-.18.32.01.47-.46-.62-.22-1.03-.14-1.62.16-1.31.67-.59.16-1.61.22z" style="fill:#f7f7f8"/><path d="M78.79 74.17c.27.37.28.36.49.84.82-.25 1.23-.71 1.06-1.74-1.36-.43-1.04.19-1.55.9z" style="fill:#121112"/><path class="fil29" d="M98.26 34.76c-.03-.88.66-.48.21-1.18-.43.3-.85.98-.79 1.5 1.3.29 2.08-.88 2.11-1.99l-.7-.04c-.11.81-.04 1.72-.84 1.72z"/><path class="fil14" d="M74.46 74.27c.65-.21.31.09.57-.43.26-.52-.1-.11.35-.64.42-.49.47-.63.32-1.43-1.08.16-1.14 1.37-1.25 2.5z"/><path class="fil26" d="M73.42 76.1c.16-.37.03-.5.16-.91.28-.91.29.35.62-1.81.09-.6.13-.06.06-.93-.67.48-.26 1.17-.77 1.94-.33.49-1.05 1.36-.07 1.71z"/><path class="fil29" d="M63.92 35.29c.34-.76.97-1.35.26-1.82-.45.18-.65.58-.87.93-.49.75-.21.84.61.88z"/><path d="M82.49 77.36c1.1-.64 1.26-3.48 2.2-1.44.01.02.03.07.05.1l.19-.94-1.48-.15c-.37.32-.42 1.64-1.18 2.35l.22.09z" style="fill:#f1f1ee"/><path class="fil24" d="M113.87 78.06c.71-.27 1.02-1.97.7-2.49-.29.15-.34 0-.62 1.05-.13.47-.28 1-.08 1.44z"/><path class="fil14" d="m64 74.96.12-.37-.24-.24c-.59.48-.97 1.16-1.01 2.35.6-.19.31-.13.69-.77.25-.41.34-.47.44-.97z"/><path d="M61.19 28.79c.42.45.2.6.27 1.23.77-.07.86-1.56.02-2.29l-.29 1.07z" style="fill:#676a6e"/><path class="fil24" d="M111.62 74.83c.69-.07.13-.07.71-.62.58.09.53.29 1.16.45l-.28-.91h-1.28l-.3 1.09z"/><path d="M93.81 77.9c.55.01.63-.2.7-.71l-.46-.06c-.23.44-.18.23-.24.77z" style="fill:#a2b4cd"/><path d="M87.38 77.54c.44-.18.63-.5.69-.95-.54-.01-.66.42-.69.95z" style="fill:#e9e9e5"/></g></g></svg>