<svg xmlns="http://www.w3.org/2000/svg" xml:space="preserve" width="127.924" height="63.906" style="shape-rendering:geometricPrecision;text-rendering:geometricPrecision;image-rendering:optimizeQuality;fill-rule:evenodd;clip-rule:evenodd" viewBox="0 0 343.37 171.53"><defs><style>.fil1{fill:#fff}</style></defs><g id="Camada_x0020_1"><path d="M321.39 133.4c-1.08 3.2-4.83 2.44-5.13 2.46-2.11.16-4.2-.25-5.71-1.88-4.16 6.13-8.68 6.71-11.89.92-3.93 3.93-9.32 8.94-14.59 2.43-2.04 4.8-7.5 5.6-11.14 2.05-.48-.38-.92-.89-1.37-1.3-.03.03-.03.03-.07.03-2.55 2.83-7.43 4.75-9.23.72-3.08 1.35-5.29-.61-7.38-2.7-2.47 10.39-9.54 8.18-12.78 4.17-1.58 1.46-7.93 4.96-11.69 3.31-1.02-.44-1.71-1.09-2.46-1.95-1.3 2.46-2.97 5.54-4.82 5.19-3.41-.66-5.71-2-7.62-5.81-7.13 9.81-20.73 12.49-18.21-11.21-6.06 4.31-12.19 9.28-18.35 12.4-2.12 1.07-4.44 12.8-4.82 15.86 4.3 2.31 4.61 6.91.14 10.35-4.13 3.66-5.23 4.54-9.36-.07-4.3-4.86-.44-18.49 1.23-24.7-1.59-1.98-3.38-3.06-3.86-7.24-.38-3.25.51-6.42 1.95-9.26-4.09.32-8.82-2.36-9.53-7.59-.67-4.95.94-11.71 1.91-16.57l-9.77-1.06c-1.97 1.97-3.72 12.23-12.34 12.23l-10.66.92c-2.35.46-7.89.77-9.09-2.08-1.01-2.42 1.77-11.27 2.36-13.67l-12.81.17c-1.19 4.63-3.03 15.49-8.2 15.48-17.35-.05-76.1 4.03-89.46-1.09-5.58-2.14-5.9-4.71-5.98-8.82-.04-1.77-1.17-10.64-.41-13.36 4.44-15.75 7.04-30.14 15.38-43.12 3.86-6.04 7.64-19.84 9.91-26.86-3.11.24-7.42 3.27-3.62-10.93C25-.69 26.42 1.04 44.71 1.42l15.68.1c6.15-.88 5.92 3.85 4.07 7.72 8.79-1.29 12.76-3.74 19.48.72 3.19-.93 3.31-2.08 5.23-2.08 5.14 0 10.83-2.03 16.57 1.06 2.28-2.02 4.5-1.28 7.14-1.09l13.67-.41c5.37.08 7.44 2.59 9.94 2.12 2.47-.47 4.02-3.35 10.15-3.01C149.76-.46 149.88.32 164 .71c2.87.08 4.53 3.29 4.68 6.15 7.68.77 16.61 1.25 18.62 8.92 2.1 7.97-4.91 20.86-4.99 21.77l1.64 17.39c1.72-6.87 9.98-35.16 12.81-41.07 3.13-6.53 18.82-8.18 26.41-5.47 2.7-3.83 6.24-.69 8.82-1.71l16.33-.03c3.88 1 .81 2.56 4.95.89 8.95-3.6 10.28 2.75 11.82-5.06.49-2.5 2.79-2.37 6.56-2.12 8.36.55 14.97-3.27 12.64 5.33l7.31-1.26c18.03.83 15.4 14.92 10.28 27.81 1.2 0 2.49-.1 3.38-.27 1.22-4.59 2.07-3.98 3.42-7.76 1.99-5.57 3.49-14.44 9.94-16.85 10.38-3.86 11.05-1.88 17.02-1.4 9.26.74 8.28 10.59 6.63 17.26-3.85 15.59-8.17 20.46-8.34 36.49l-7.65 28.94c2.1 1.96 3.18 4.54 3.18 7.45 8.64 1.02 1.78 18.45-.17 23.47-.89 2.29-4.35 10.61-6.19 11.72l-1.91 2.32.17-.24zm-152.36-12.95 6.59-4.71-9.94-.24 3.35 5.02v-.07z" style="fill:#000"/><path class="fil1" d="M4.77 102.1c0 4.07 3.04 6.97 5.91 7.21 2.6.2 6.97.99 10.05.89 4.95-.17 16.61.07 20.6-1.74 9.25-4.21 9.09-7.46 12.74-17.29l4.2-14.04c1.88-6.94-.24-4.54-4.51-4.54-22.26 0-18.69-1.36-20.74 4.68-3.55 10.45-1.88 7.77 8.71 7.65 1.5 0 2.77-.31 3.69 0-2.41 9.68-2 9.59-13.77 9.98-15.99.53-15.63.15-11.38-15.82 5.82-21.84 4.72-19.96 27.27-19.68 5.31.06 3.28 4.86 3.28 5.98 0 1.37 6.9.68 9.12.68 3.02 0 5.73-16.97 2.02-19.61-8.05-5.73-34.42-2.62-38.27.27-6.81 5.12-9.1 16.21-11.99 23.81L7.67 85.46C6.54 90 4.8 97.32 4.8 102.07l-.03.03zM117.02 76.03h-10.56c-1.74 0 .07-3.69.34-4.68l3.35-12.13c1.54 0 20.02-.27 21.08.14 3.04 1.2.89 7.45.03 9.4-3.1 7.16-1.99 7.07-12.78 7.07-.68 0-.48.24-1.47.24v-.03zm-4.2-32.6c-4.35 0-3.77-2.13-7.86 14.11-1.67 7.59-2.97 2.73-5.95 4.75-.55.27-.38-.27-.79 1.02-.89 2.77 2.77.89 2.77 2.43l-4.92 19.54c-2.94.96-3.42-.99-4.65 2.87-1.14 3.55 4.53.05 4.82 2.26l-3.79 13.84c-1.54 4.95-1.98 4 3.86 4 2.44-5.05 2.94-12.27 4.92-16.47l15.79-.31c9.63-1.06 5.54 7.14 4.27 12.47-1.26 5.31-1.46 4 9.26 4 1.57-3.25 4.92-16.78 4.92-19.92 0-4.75-2.73-3.14-3.21-5.5 6.85-3.23 7.68-6.98 10.56-16.5 1.65-5.46 5.91-18.4.41-22.14l-30.41-.48v.03z"/><path class="fil1" d="M77.15 43.78c-19.28.79-8.71.04-11.14 11.62-2.12 10.07-9.34 40.45-14.62 48.93-1.37 2.19-2.77 3.01-3.04 4.34 1.26.85.79 0 1.98 0 1.26 0 1.85.44 3.11.2l30.14-.51c5.7.07 4.77 1.7 7.59-9.36.51-1.98 1.3-3.14 1.3-5.4H63.15c0-.26 1.79-10.64 3.48-10.93l26.28-.38c1.64-.34 1.37-.82 1.95-3.11.48-1.98 2.63-8.54 2.73-10.25-4.95-1.58-24.51.73-27.81-.34 3.05-10.85 2.01-9.71 4.65-9.74l20.02-.31c9.06-.17 7.35.99 9.26-5.84.72-2.6 2.05-5.57 2.05-8.82H77.2l-.04-.1zM253.42 41.73l-7.65.34-10.25 35.88c-.96 2.87.03 2.7.07 2.73 6.83-13.98 4.03 3.01 8.92-16.3 1.28-5.16.49-6.8 4.95-6.8 1.2 0 .24.34 1.44.24 4.89-.41 10.05-.24 15.07-.24 8.52 0 4.24 10.2 2.97 15.1-5.41 20.96-6.32 17.87-28.29 17.87-2.66 0-7.1 14.46-7.14 16.13 7.83.15 4.45.51 9.94-3.62 6.12-4.58 6.56 3.62 8.03 3.62 2.32 0 2.29-6.53 5.67-6.53 2.43 0 2.87 4.48 3.93 4.48 1.13-.61 1.67-2.46 2.73-3.38 4.07-3.55 2.12 6.08 8.54-6.63 3.02-5.95 11.11-33.8 11.45-40.32l-.58-7.72c-1.05-5.59-11.95-4.78-14.56-4.78h-15.31l.07-.07z"/><path class="fil1" d="M285.68 45.14c.72 4.31 1.2 6.12.31 11.04l-8.85 34-4.82 10.56c1.45-.32 4.51-7.44 6.87 1.23.61 2.29.1 2.67-.1 4.72 3.11 0 2.29-3.69 4.99-7.59.9-1.31 2.06-.9 2.05-3.35-.03-3.35.61-3.31.38-5.33-6.07 0-3.93-7.68-2.84-11.45 1.7-5.87 3.25-14.93 6.9-19.55 2.6-3.28 8.34-2.67 12.13-2.67 13.74-.08 17.21-2.39 9.26 22.52-4.31 13.52-6.58 9.73-15.48 11.34-3.1.56-7.51 8.76-7.52 8.78.41 2.84 1.4 1.37 1.4 5.02 0 .48-1.74 4 .34 2.26.93-.78 7.81-13.42 12.68-13.12 4.55.28 4.51 5.4 4.07 8.92 1.3-.72 3.42-4.2 5.54-6.36 5.62-5.74 5.41-1.67 9.16-14.69 1.58-5.47 8.12-28.74 7.28-34.17-.99-6.46-4.17-5.88-7.52-6.73l-25.49.27c-4.01.85-5.23-.6-10.73 4.24v.1zm-15.03 58.36 1.61-2.43c-.8.25-1.61.84-1.61 2.43zM153.03 78.87l9.43-16.71c3.01-5.6 2.19-4.65 5.02-4.65l.38 20.95c0 2.8.55 4.48-1.37 4.48-2.12 0-14.25.44-15.27-.34l1.81-3.72zm-15.07 7.11c0 10.35-3.96 17.15-3.96 21.97l2.8-.24c1.37-.65 5.33-10.42 6.87-11l17.67-.07c2.2-.03 3.48-1.66 6.05-5.67 2.12-2.67 5.12-5.84 7.62-7.93 5.99-4.99 4.71-2.51 4.54-17.7l-.75-22.28c-2.49-.82-11.41-.41-14.59-.1-2.22.2-1.2-2.15-5.23 5.06-2.21 3.9-21.01 35.57-21.01 37.96z"/><path d="M181.12 125.1c.54-1.82 13.32-34.54 19.17-37.24-.23-8.53-6.75-.92-8.75 3.48-7.18 15.83-10.21 20.79-16.44 38.58-.61 1.73-.82 3.63-2.9 4.07-7.62 1.6-3.01-2.42-2.19-6.77-2.93 2.77-5.95 8.97-1.71 10.73 1.13.65 2.32.34 3.55.79 0 3.87-7.11 18.58-3.35 25.39.27-.51 1.23-8.37 3.01-13.22l3.04-8.82c2.04-5.71 1.17-4.93 6.66-7.72 4.94-2.51 17.18-13.15 21.12-18.35l8.85-11.99c1.33-1.06 2.63-1.64 4.17-2.84 1.5-1.2 1.88-3.11 3.38-3.31.97 2.22 1.61 4.91 4.07 5.16-1.69-6.63-.84-9.53-2.84-10.97-1.54 1.09-4.6 8.42-7.41 8.78.29-4.31 8.03-22-8.13-26.62-10.27-2.93-26.64 7.14-33.14 14.9l-9.22 13.22c-6 9.47-3.29 20.71.34 18.45.39-2.8-4.23-4.09 3.49-17.26 6.46-11.02 20.06-25.75 31.67-27.78 15.66-2.73 17.71 11.25 12.57 20.16-5.43 9.42-15.03 22.15-24.02 28.87l-5.4 3.21.41-2.9zm25.28 14.32c-7.49 3.55 4.13-25.93 10.39-30 1.16-.75 1.02-.38 1.3-1.64-9.82 0-21.58 26.66-15.72 33.18 4.35 4.84 12.16-9.01 13.87-12.13 3.32-6.06 2.59-10.78 5.16-11.04 5.48-.54-6.85 17.17.24 21.46 3.94-2.36 6.38-10.47 8.13-11.14.39 1.15-2.07 21.8 14.32-1.33 1.76-2.48 2.37-4.61 3.9-4.82-.26 5.08-3.93 11.63-.38 14.21l7.55-16.61c.55-1.02.65-.75.82-1.95 1.23-.44 2.15-4.41 4.78-6.36 0 5.82-5.03 13.37-3.35 18.35 1.33 3.92 3.79-1.25 3.93-2.87.46-5.49-.78-1.89 1.98-9.81.82-2.39 1.5-4.92 2.46-7.18.82-1.91 2.56-4.03.27-6.97-1.61-2.07-8.82 11.64-10.05 13.7-.03.07-.51.1-.07 1.2l-2.84 3.25c.31-4.69 5.77-15.03 5.78-15.1.01-.06-1.42-7.81-4.51-.03l-5.64 12.71c-.13.25-14.52 21.91-15.14 14.08-.48-6.03 3.19-5.83 8.61-12.1 10.83-12.51 6.86-21.81-.41-13.94-7.18 7.77-8.05 13.05-13.56 21.63-6.94 10.79-5.61 5.95-3.62-1.4 2.75-10.18 12.51-37.57 16.71-45.34.79-1.44 1.54-1.74 1.88-3.04-3.28-5-6.06 2.15-7.65 6.36l-9.26 24.91c-.84 2.71-3.09 10.38-6.36 4.07-.82-1.57-.89-1.88-2.6-1.88-2.23 6.36.07 5.34-1.13 8.4l-7.79 16.54-2.02 2.63zm76.81-15.34c-1.35.15-3.34 4.31-2.7-.41l6.73-18.31c1.2-2.08 1.91-1.54.34-4.13-3.16-5.18-6.46 12.08-9.47 16.37-1.89 2.7-9.44 16.81-7.48 6.42l5.64-15.99c.79-1.86 2.41-6.78-.14-7.65-1.22-.41-4.3 4.96-4.51 5.54l-2.26 4.44c1.06-.03.55.1 1.23-.34-.07 5.23-7.22 18.45-3.04 22.35 2.17 2.03 6.08-6.95 8.41-8.65.25 2.23-.32 13.99 6.08 3.38l1.95-3.69 3.01-4.44c.99 0 .1-.07.48.44-2.21 8.6 1.55 14.97 8.54 6.01l5.71-6.42c0 2.8.96 12.95 4.75 6.66l8.27-11.82c0 2.63-.44 3.11-.48 5.16-1.51 18.85 10.67-5.38 11.82-7.89.38-.99.48-.89.24-1.71-1.28 1.28-5.42 10.97-8.13 11.34 0-6.9 4.12-13.24 4.78-15.41.25-.8.2-6.89-3.28-2.02-1.54 2.19-3.11 5.64-4.48 8.06-.68.79-1.02.96-1.67 1.88l-4.17 6.46c-1.37.44-4.34 5.4-2.43-1.23l2.6-7.45c1.2-3.45 9.6-17.94 14.15-15.51-7.4-9.14-19.42 17.76-20.3 18.35l-3.52 5.19c0 .01-5.87 7.27-7.65 7.62-6.07 1.18 5.73-24.53 10.22-26.86 3.11-1.64 1.02 3.83.99 5.64.52-1.38 3.77-5.26 1.3-8.71-3.27-4.56-11.73 9.28-12.92 11.38l-8.99 16.06.37-.1zM243.27 110c1.91-.55 1.54-2.36 3.76-3.07 0 4.05-6.89 16.14-10.11 16.47.05-3.81 4.42-10.19 6.32-13.39h.03zm45.1-13.22 4.44-7.04c.07-1.09-2.6-6.77-4.58 1.44-1.06 4.37-.79 4.27.17 5.6h-.03z" style="fill:#00afef"/><path class="fil1" d="M182.86 76.61c1.13.17 6.8-2.94 9.6-3.86 2.39-.79 2.51-.65 4.14-7.35.27-1.13 1.4-6.87 2.43-6.87 2.84 0 .62 11.84 3.38 12.78 1.58.53 4.62.41 8.34 3.45 4.82 5.26 3.69 5.95 5.4 9.36l-4.48-39.84c-.24-1.47-.24-1.78-1.33-1.91-2.15-.13-17.34-.51-18.42.79l-9.09 33.45h.03zM255.64 33.8l4.68-13.02c1.64-4.72 3.93-3.18 3.93-1.71 0 0-4.85 15.79-7.14 15.79-1.02 0-1.47.2-1.47-1.06zm9.84-19.24s-5.84-4.07-11.41-.14c-2.99 2.12-5.76 12.76-7.62 17.49-1.13 2.63-2.53 6.66.68 7.55 5.63 1.55 8.14-1.52 9.98-1.57.17 2.78 2.48 1.41 6.97 1.54 3.14.31 3.01-1.64 5.26-7.48l8.95-25.28-8.37-.34c-2.22 0-2.9 8.23-4.44 8.23zM139.91 36.23c-2.17 0 1.14-6.7 1.98-8.92 2.19-5.84 1.98-8.23 5.67-8.23l-1.98 7.52c-2.32 5.88-2.76 9.72-5.67 9.63zm9.36-19.92c-.92-.34-.99-.92-1.98-1.37-3.28-1.54-8.88-.82-11.28 2.49-1.5 2.08-5.02 13.5-6.9 17.84-.85 1.98-.96 3.28 0 4.65 2.6 3.83 11.04-.58 11.52-.61.17 2.7 2.79 1.62 9.36 1.37l11.82-31.91c.33-1.82-5.39-.68-7.11-.68-1.69 0-2.16-1.83-4.44 5.5-.41 1.37-.41 1.54-.99 2.73zM219.7 89.09c3.62 3.02 2.99 2.29 3.14 6.87.1 2.84 1.13 6.49 3.25 7.18l14.45-52.21c.38-1.37.41-2.63.85-3.96 1.98-6.12 2.67-4.92-7.21-4.92-2.33 0-2.36.4-3.28 3.69L219.66 89.1h.03zM121.22 15.96c-1.3 0-.07-1.37-2.46-1.37l-7.62.34-8.58 23.41c-1.78 4.03-.68 3.04 7.35 3.04 3.81 0 6.44-21.38 11-22.07.75-.1.51-.14 1.3.44-.21 3.1-6.93 18.23-7.14 20.95l9.33.34 6.97-18.76c1.09-3.66 4.1-8-3.52-8-3.45 0-5.95 1.71-6.66 1.71l.03-.04zM237.67 14.6c-.27 0-.68-1.16-1.74-1.3l-8.1.27-9.36 25.39c0 1.77 2.73 1.02 8.13 1.02 1.7 0 3.01-5.04 4.13-8l3.45-9.26c1.06-2.77.99-4.68 3.79-4.68 3.12 0-6.15 16.36-6.15 21.63 10.66.35 8.92.79 10.52-3.48.72-1.95 7.31-19.03 7.07-20.77-.72-5.34-11.38-.83-11.75-.82zM87.74 36.91c.38-6.67 6.92-11.03 5.06-5.67-1.85 5.26-1.81 6.73-5.06 5.67zm4.92-12.37c-.88 0 .31-5.5 3.21-5.5 2.32 0-.44 5.5-3.21 5.5zm-9.84-1.03c0 2.52 7.65-.53 8.85 1.71l-9.81 3.52c-2.63 1.98-4.72 9.08-4.72 10.59 0 5.67 12.53.38 12.54.38.1 1.47-.03.61.48 1.71 11.65 0 7.8 3.11 12.54-10.35 3.11-8.82 6.81-13.76.38-15.55-8.12-2.26-20.3.57-20.3 8.03l.03-.04zM281 34.52c.16-2.33 1.81-7.75 5.67-7.89-.03 1.61-.41 1.88-.89 3.21-2.84 7.78-2.86 4.68-4.78 4.68zm8.85-16.47c0 2.48-5.97 8.24-3.55 1.26 1.33-3.69 3.52-2.67 3.52-1.26h.03zm-4.92 4.48c-1.91.72-.44.82-5.16 1.74-6.04 1.18-7.2 5.06-8.85 10.32-.51 1.98-.38 1.85-.27 3.72 9.03 2.91 8.33.17 12.06-1.02 1.26 3.35.99 1.88 6.39 1.88 6.15 0 2.46.18 5.6-7.11.68-1.57 5.23-14.08 5.23-15.03 0-6.24-21.38-7.14-23.88 3.49-.82 3.48 5.2.58 8.85 2.02h.04zM209.93 19.18c.58-1.13 5.09-3.52 2.53 2.15l-4.92 13.4c-.85 1.37-3.35 1.91-3.35.14l5.74-15.68zm-15.62 17.05c0 5.64 14.01 4.89 19.41 2.02 3.76-2.02 3.86-4.2 5.6-8.99 3.53-9.63 8.37-16.02-6.05-16.02-3.69 0-11.28 1.54-13.29 6.18l-5.64 16.81h-.04zM165.3 36.57c-2.14 0 2.72-10.82 3.18-12.03.82-2.22 1.5-6.15 3.45-6.15 3.43 0 .45 3.57-2.6 12.51-.92 2.94-1.67 5.71-4.03 5.71v-.03zm-1.98 4.48c3.93 0 10.12-.93 12.88-4 2.49-2.77 3.71-8.53 5.02-12.23 1.35-3.82 5.81-9.22-3.48-10.69-5.19-.38-10.18-.44-14.9 2.63-3.34 2.19-8.45 18.98-8.23 20.3.58 3.49 5.6 4.03 8.71 4.03v-.03zM325.79 22.49c-1.78 0 .58-5.74 2.36-6.01 2.8-.44 1.06 2.84 1.06 2.84-.72 1.7.01 3.18-3.42 3.18zm-15.03 12.37c0 6.48 24.64 6.64 24.64-6.53l-9.06.1c-2.62 1.17.24 6.08-5.47 6.08l1.81-6.73c1.18-2.76 9.26-.73 13.36-1.61.99-.41 2.67-6.05 3.21-7.55 2.46-6.87-7.55-7.07-10.59-6.49-3.76.72-9.94.48-12.34 6.49l-5.57 16.23zM27.91 14.26h5.67l-9.33 26.21c-1 2.93 3.46 1.57 10.28 1.57l10.01-27.2c1.35-2.79 11.96 1.75 13.63-1.95 2.22-4.99.17-3.79-3.45-3.79l-25.94.55c-.93.5-2.46 4.58-.89 4.58v.03zM69.76 16.99c-.24-1.26-.24-.44-.48-1.71-3.11 0-8.58-.99-9.53 1.13l-8.92 25.32h9.36l6.19-16.81c1.44-3.35 1.09-4.82 3.69-4.82 1.85 0 .34 2.94.03 3.79-2.77 7.35-2.56 5.81 6.63 5.81 1.61 0 2.15-2.87 3.04-5.36 2.19-6.15 4.65-9.36-3.52-9.36-3.13 0-5.84 2.23-6.49 2.02z"/><path class="fil1" d="m47.35 15.62-9.09 26.41c13.42 0 7 3.85 17.56-22.52.58-1.33.92-1.81.92-3.9-1.13 0-1.44-.31-2.19-.27l-7.21.27zM168 104.53c0 3.96 1.29 3.07 5.91 2.73 6.63-.48 7.07 3.24 6.22-10.35-.55-6.9 2.22-11.89-6.42-1.64-1.39 1.66-5.71 7.2-5.71 9.26zM202.48 79.11c2.52 20.6 1.57 25.94 6.08 16.03 3.71-8.17 4.23-14.92-4.44-17.32-1.13-.31-1.64-.68-1.64 1.3zM183 104.53c.79-.51 4.68-9.09 5.64-11.04l3.62-13.57c-1.3-.2-9.57 5.57-9.87 6.6l.62 18.01zM211.57 106.58c1.91 1.5 5.93-2.24 8.82-1.3 1.74.58.27 2.02 2.12 1.4l-4.14-5.6c-1.74.75-3.25 2.77-5.23 3.83-1.23.65-1.4.17-1.5 1.64l-.07.03zM216.01 94.11c2.67-1.44 1.02-4.87.65-6.97l-.65 6.97zM299.86 106.34c1.23.96 1.95-.99 2.22-2.53l-2.22 2.53z"/></g></svg>