<svg xmlns="http://www.w3.org/2000/svg" xml:space="preserve" width="127.862" height="63.851" style="shape-rendering:geometricPrecision;text-rendering:geometricPrecision;image-rendering:optimizeQuality;fill-rule:evenodd;clip-rule:evenodd" viewBox="0 0 355.14 177.35"><defs><style>.fil2{fill:red}.fil1{fill:#fff}</style></defs><g id="Camada_x0020_1"><g id="_1859908083600"><path d="M355.14 49.52c0 9.73-11.17 4.84-11.17 4.84-.22 7.02-6.54 12.08-6.44 13.68.28 4.14 4.44 6.23 1.52 16.05-.64 2.12-2.65 2.72-1.94 4.42 3.66 8.81-2.73 20.09-7.18 27.36-2.6 4.26-9.89 6.01-11.35-2.76-.14-.85-.04-2.23-.25-2.86l-4.77-.42c-.74 4.44 2.55 7.56.85 13.51-.99 3.54-1.45 3.01-3.08 4.77-1.06 1.13-.28 1.52-.18 2.97.21 2.4-.39 1.7-.39 3.46 2.66.93 8.35.58 8.94 12.27.41 7.99-2.71 1.49.85 11.35 1.7 4.72-3.99 7.02-1.56 8.06 0 1.27 1.31 4.84-.21 7.18-3.82 5.83-9.21.07-11.42 2.93-.94 1.22-20.52.07-25.63.35-3.46.21-5.16-2.12-6.22-2.4-2.95 4.81-8.66 1.24-8.8 1.27-1.17.64.04.64-1.91 1.02-5.78 1.16-.79-1.25-7.18-.32-2.79.4-6.36-.98-6.36-5.48-1.17-.04-3.04-.35-3.85.11-1.94 1.06.57 4.6-5.52 5.3-9.55 1.13-5.55-5.69-9.62-4.98-2.38 4.27 1.37 5.3-13.33 5.23-7.12-.04-15.59 1.77-18.91-2.4-.64-.81-.49-1.13-.88-1.66-1.03 2.92-2.3 4.21-7.07 3.75-9.72-.95-1.26-10.76-5.41-10.92-5.02-.18-2.9-1.1-4.74-1.31-1.9 2.43 3.94 13.13-10.82 12.87l-34.05-.11c-3.49-.56-5.87 1.92-10.54-2.44-.92-.88-1.45-1.8-2.3-2.02-.42 1.63-.74 3.39-2.26 4.1-2.26 1.06-11.46.71-12.55-.14-1.31-.99-1.56-3.15-1.59-4.67-2.26-.07-3.25-.14-5.09.18 0 6.17-7.14 5.53-13.33 5.41-6.78-.13-10.28.97-12.73-2.3-.71.39-.81.95-1.66 1.41-2.21 1.23-16.54 1.34-21 .95-8.25-.71-3.03-16.63-2.86-18.14.27-2.34-5.12 2.05-10.93-3.89-1.52-1.59-2.4-4.91-3.32-5.87-1.19.67.1 8.8-4.21 9.16l-14.6.11c-5.84 0-9.65-.45-7.88-8.87L15.09 92C14.28 88.23-4.32 98.76.91 65.13c.25-1.59-.07-3.39.21-4.95C2.76 51 2.2 35.63 4.87 28.86c1.45-3.68 4.24-4.88 2.12-6.72-2.51-2.16-.64-5.34-.6-7.81.33-16.87 6.1-12.02 23.79-12.69l21.53-.14c2.92.18 2.65 3.52 4.81 1.38 2.51-2.47 8.7-1.27 12.76-1.48L175.84.48c4.65.87 4.01 2.05 5.2 3.15 2.58-.62-.52-3.7 14.71-3.29 3.11.11 6.33.04 9.19.32 4.66.46 22.73-3.17 23.16 2.86l-1.2 11.31c-.91 6.74.87 2.25 8.1 4.7 3.36 1.14 5.1 6.98 6.01 2.97.85-3.78 3.39-4.21 8.45-4.03 4.95.18 5.06.99 7.07-3.01 6.24-12.43 6.01-9.81 22.56-12.16 15.87-2.25 57.37 4.07 63.21 25.17 2.3 8.29-.53 7.77-1.31 10.89 2.29 2.92 13.51 2.92 14.04 10.11l.11.03z" style="fill:#000"/><path class="fil1" d="M27.23 83.04c.18-.95.49-1.13 1.38-1.27.11.95.6.49.39 1.91 1.96.95.73 3.68 5.8 4.31 4.86.61 10.94-.28 15.59-2.05 1.48 2.76 1.17 2.05 4.7 2.09 13.96.18 8.17-.73 10.75-7.85.57-1.56 1.8-.57 1.91.78.54 6.82-2.79 7.15 7.39 6.79 4.32-.15 12.32 1.09 17.96-.14 1.27-.28 2.47.57 4.24.42 6.63-.53 23.24.7 27.75-.57 1.63-.46 1.38-1.38 3.08-1.48.42.95.49.99 1.1 1.77 8.02.29 12.96 1.64 13.75-2.51.18-.85.39-5.87 1.48-6.01 2.41-.31-2.09 8.85 3.89 8.66 14.91-.47 11.21 5.79 11.21-33.02 0-3.43-.53-6.19-.25-9.44.39-4.35-.25-13.75-.39-18.77-.19-6.61-3.23-4.46-16.47-4.84-3.47-.1-4.29 10.76-4.88 15.13l-1.34 7.04c-.35.53.18.39-.81.49 0-7.16 3.85-22.59-9.58-22.59l-13.29.32c-3.82-.18-2.09 1.8-3.39 3.08-.88.42-1.87-2.47-5.73-2.86H86.96c-2.47.42-2.05 4.1-2.23 6.08l-2.08 26.16c-.07 1.98-.71 1.03-.71 3.11-1.27-1.69-.22-27.99-.71-32.31-.39-4-4.31-3.08-8.31-2.93-12.31.46-9.7-3.9-13.96 19.59l-2.09 9.19 1.66-27.43c-1-1.79-7.08-1.26-10.29-1.17-3.49.1-14.49-.56-15.77.78-.71.74-.75 3.53-1.87 2.4-3.55-3.55-4.49-3.39-12.73-2.97-5.78.3-9.04 1.87-11.03 9.19l-4.1 45.64c1.04 9.61 4.1 10.86 13.54 10.64 5.55-.14 7.64-.32 10.29-4.03l.67-1.31z"/><path class="fil2" d="M42.11 72.72c0 2.13-.21 4.33-1.95 4.42-.93-1.74 3.44-48.19 4.17-49.75 1.78-3.79-4.33-3-8.17-2.76-4.5.28-1.92 3.65-3.46 10.11-.71 2.96-.42 14.25-1.59 17.54l-.96 14.07c-.22 4.71-3.21 17.32 3.89 19.76.05.02 11.51.75 13.58-.92 3.74-3.02 4.75-6.75 4.95-11.6l3.57-41.79c1.1-8.98 1.24-6.93-4.53-7.21-.88-.04-4.42.04-5.09.25l-4.38 47.94-.03-.07zM117.91 76.93c-1.12-.03-.08-7.02.11-9.37l2.12-24.01c.81-3.42-.51-10.45 1.7-10.71 2.3-.28 1.19 6.06.95 8.17l-2.76 30.9c-.2 3.05-.09 4.99-2.12 5.02zm13.82-23.05c0-7.07 3.16-23 .14-27.05-2.56-3.43-7.82-2.37-15.1-2.79-6.79-.39-4.97-.15-5.76 7.78l-3.15 38.08-1.45 15.63c3 .63 17.05.25 18.6-.85 5.6-3.98 5.41-12.24 5.41-18.35l1.34-12.48-.04.04zM93.73 58.36l2.02-19.91c-.11-7.07 4.83-12.17 1.2 13.4-.28 1.87.25 6.79-1.56 7.5-.67.25-1.59-.32-1.59-.99h-.07zm2.26-33.9c-11.02-.45-8.43-2.18-9.97 13.19L81.96 85.7c1.48.53 5.16.14 6.97.14 4.17 0 3.5-2.02 3.64-11.17 0-1.1.53-3.46.53-4.03 1.34.19 1.62 9.56 1.73 11.06.28 3.85-1.78 4.55 9.05 3.89.83-1.75-1.24-12.98-1.38-15.13-.34-5.19 3.72-.61 4.14-10.71.31-7.47 3.57-28.37.64-32.74-2.45-3.65-5.27-2.69-11.28-2.58v.03zM17.83 65.75l-.56 7.21c0 2.55.6 4.91-2.33 4.24-.8-3.58 1.93-18.31 1.98-21.28l.35-2.86.6.04-.21 6.36c.42 1.74 1.37 1.73.21 6.36l-.04-.07zm7.46 16.97c.24-1.2 2.02-3.01 2.09-6.5L29.39 52l-9.19-.85c-.69.02-1.8-.09-1.8.99h-.39c-.72-1.71-1.13-.47-.78-4.31l1.17-13.72c4.79-2.63.28 10.32 1.38 12.48.66 1.29 4.84.68 5.94.57 4.9-.49 4.32.94 4.84-8.48.3-5.47.92-8.44-2.12-12.48-1.97-2.62-13.25-1.49-14.53-.99-7.7 3.05-6.14 19.95-7.25 27.05L5.53 66.08c-.05 5.25-2.77 13.17.42 17.39 2.9 3.85 4.24 2.9 9.4 2.97 6.83.14 6.85-.22 10.01-3.71h-.07zM69.73 62.54c0 2.03 1.37 8.14-3.04 6.04-2.03-.97 1.96-18.11 2.05-22.03.04-1.59-.04-3.46 1.38-3.75.46.88.64 3.96.14 4.49l-.53 15.24zm-6.65 22.2c.53-1.98.64-5.34.95-6.33.78-2.47 4.42-1.52 4.91-.81 1.08 1.5.09 4.75 1.06 8.34 13.34 1.61 9.32-2.26 9.86-6.58l-1.17-48.05c.04-5.71 1.89-7.43-5.76-6.75-1.2.11-7.28-.21-8.8.32l-3.57 18.99-7.11 36.17c-.42 1.31-1.06 4.77-.67 5.87 1.7.78 8.13.35 9.9-.04l.39-1.13zM214.11 40.3l-.99 8.87-2.33 27.33c.35 10.12 7.91 8.23 12.94 8.42 10.95.4 9.49-13.2 10.08-14.92l1.66-18.14c0-2.09-.92-1.73-2.93-1.8-12.04-.35-6.43 1.4-8.87 6.58-.64 1.34 1.24 2.02 1.24 3.5l-1.34 14.96c-.42 1.31-1.06 1.2-2.3 1.03l1.24-17.96.64-7.07 1.24-16.69c1.26-3.51 2.76-1.24 2.76-.39 0 11.31-3.28 11.93 1.48 12.06 2.51.07 5.02 0 7.04-.28.73-7.07 4.46-21.93-5.87-22.1-8.6-.14-10.32-1.11-14.07 5.83l-1.59 10.78zM148.11 47.33l-.95 20.33c-1.16 1.23-3.84.96-3.61-.92l3.75-25.42.99.04-.14 5.9c0-.04-.04.07-.07.11l.03-.04zm-16.76 33.34c0 1.94-3.71 5.84 5.34 4.81 5.16-.59 3.45-.12 4.91-6.65.51-2.3 2.35-2.84 4.63-2.12 2.47.81.39 6.68 1.34 8.17.6.92 7.14.53 7.92.49 2.13-.11 1.95-2.34 1.7-6.29l-.88-53.17c0-.49-.39-1.17-.49-1.66l-13.33-.03c-1.31.7-4.88 26.7-6.36 31.36l-4.84 25.07.07.03zM249.19 67.8c-1.56-.04-2.44-1.06-2.19-2.47.67-4.19 2.49-23.76 4.14-24.39 2.15-.83.81 3.64.85 6.61.04 6.01-.49 11.81-.57 17.32-.07 3.53-2.22 2.95-2.23 2.93zm-14.71 15.63.07.95 7 .46c5.78-.12.58-9.18 6.26-8.98 4.6.14 3.08 2.58 3.32 5.87.21 2.83-1.27 3.36 6.26 2.97 1.7-.11 2.37.11 3.22-.32l-.88-60.21-13.19-.39c-1.71.92-4.91 22.74-6.12 27.61l-5.98 32.1.03-.07zM183.71 35.21c-1.9 5.25-.05 25.57-4.21 23.69-1.53-.69-.01-7.73.07-9.65l1.49-16.12c.95-1.59 3.36.04 2.62 2.09h.04zM166.92 82.3c0 1.1-.11 1.66.21 2.58 1.33.59 8.29.83 9.19-.28 1.12-1.38.86-15.44 2.12-16.65 2.47-2.37 11.06 4.01 13.12-11.42.79-5.89 3.28-25.64.74-29.7-2.53-4.03-6.92-2.62-15.06-2.79-6.62-.14-4.56-.88-5.9 11.21l-4.24 47.02-.18.03zM200.4 23.79c-5.07 0-3.28.58-4.67 12.66l-3.82 42.81c-.79 5.99-1.61 6.23 8.1 5.62 4.99-.32 7.64 1.87 8.31-3.18.28-2.19.92-3.61-.18-5.06-1.59.14-4.21 0-5.69-.42l1.1-16.62c.35-1.48 1.56-1.03 3.71-1.13 2.83-.14 1.84.35 2.62-4.24 1.01-6.29-1.05-3.08-5.3-4.35l.71-10.64c.64-3.11-.99-6.75 2.79-7.32 4.74-.71 4.74 1.2 4.74-2.16 0-6.62 3.02-5.98-12.41-5.98zM282.7 110.3c.42.39.32.25.74.46l1.52-1.06-2.3.6h.03z"/><path class="fil1" d="M270.93 172.28c-2.98-.12-.52-4.16 1.31-3.75 1.71.39.68 3.75-1.31 3.75zm-8.8-.39c-.81-2.37 2.55-4.07 3.43-2.79.81 1.13-.46 3.96-3.43 2.79zm5.62-3.78c-.74-1.48.51-1.09 1.77-2.86.49 1.78 1.47 3.13-1.77 2.86zm13.86 2.9c.21-.71.35-.21.78-1.06-3.4-3.4-7.95-.39-7.6-2.3l.99-.35c0-3.09.43-2.19 5.55-2.12 1.41.04 1.56.92 1.84-.07l14.53 1.02.21.99h3.11c3.25 3.4 2.65.41 3.78 2.62.99 1.91 0 1.59-1.56 1.48l-21.63-.21zm-75.62-12.76 17.78.32c1.55 2.62.11 4.74-.18 10.32-.19 3.75-2.61 2.89-10.18 2.97-10.81.12-10.55 1.84-8.95-8.8.99-6.58 1.52-2.08 1.52-4.81zm84.96 4.35c.33-1.23 2.37-1.29 4.28-4 1.03-1.45.71-1.13 1.59-1.13.72 2.87 3.37 4.76 4.31 7l-10.18-1.84v-.04zm-30.37-2.51-1.24 10.93c-5.96 2.84-.8-4.24-3.82-4.95-2.86-.64-9.3.88-9.3-.74 0-3.72 9.04-.67 10.43-1.91.07-.07 1.34-2.72-.85-2.79-4-.13-9 .57-11.14-.5.28-1.48.95-1.87 2.93-1.8 6.01.21 12.94-1.26 12.94 1.8l.04-.03zm-26.23 2.97c1.3.05 5.83-5.46 7.81-5.06 3.07.62.4 9.56.39 9.62-.6 3.25.64 3.46-1.38 3.89-4.1.84-.41-5.58-1.2-8.91-.27-1.13-4.05 2.61-5.87 4.03l-5.45-4.07c-.49 1.27-.78 6.79-.78 8.63-3.69 1.58-3.58 1.14-2.62-8.17l1.45-4.28c3.08-2 6.15 4.27 7.64 4.31zm-31.75-1.87c-7.34-.23-6.02-2.58-7.6 10.64-5.77-.07-2.37.79-2.37-10.36-4.62-.16-8.14.28-6.86-1.8 1.76-2.88 10.62.53 17.89-1.45.14.74.28 3.11-.99 3.08l-.07-.1zm61.91 5.73c-1.01-1.28-.46-2.87.21-4.95.35-1.13.49-4.28.81-5.27.25-.81 1.56-1.87 1.59-2.3.95 1.52 2.33.99 2.3 2.86-.04 1.63-2.12 5.27-2.72 7-.71 1.94-.46 2.62-2.19 2.65zm7.25-.11 1.91-11.31c1.45-1.7 3.36.85 3.36 1.17 0 1.38-2.3 6.54-3.01 8.63-.39 1.13-.88 1.56-2.26 1.52zm28.6-15.1 13.08 15.56c.71.74.88 2.93.81 3.04-1.45 2.44-5.83-2.76-6.43-3.25-7.44-6.15-5.75-6.78-7.53-8.06-2.65-1.91-1.45-5.12.11-7.35l-.03.07zm-18.03 10.43c-.88-.04-.53-.57-2.19-1.59-1.24-.78-1.73-.99-1.27-3.82.33-1.92-2.36-1.85 7.07-5.73l10.85-2.97c2.9 3.87-4.63 10.49-7.64 12.23-1.48.57-5.34 1.87-6.89 1.84l.07.03zm26.3-7.99c-2.06-1.54-10.37-9.6-9.37-11.84 1.03-2.3 1.84-1.56 2.09-2.62l13.44 17.32c.67 1.06.85 1.7.49 2.79-3.05-.12-3.85-3.55-6.58-5.73l-.07.07zm2.86-14.25c1.9.06 4.05 7.56 2.65 9.62-2.89-.96-4.87-9.68-2.65-9.62zm-41.15 14.28c9.27-7.16 11.84-7.18 20.97-12.8 1.87-1.25 2.74-3.67 7.85-3.32.41 7.66-19.09 11.5-22.1 13.75-.85.64-1.66 1.73-3.39 1.52l-.42-.99c-.14 1.66-1.24.88-1.63 3.01l-.71 2.58-.57-3.75zm24.29-20.72c-1.56-2.62-1.91-7.46 1.59-9.9 1.45-1.03 1.45.32 3.71.57v-.71c3.75 1.19 6.47 6.63 5.94 8.1-2.88.4-1.54-2.49-8.52-2.76l.04 1.38c-.67-.11-.21-.11-1.06-.21l.53.56.28 2.9c-.64.18-1.7.18-2.55.11l.03-.03zm7.28-13.51 7-4.31v7.88c-3.16.55-7.05-1.37-7.42-3.18l.42-.46v.07zm-7.46-9.93c-.78-1.17-.42-3.29-.07-4.49.58.24 13.17 1.68 13.65 4.88.5 3.41-.15 3.09-2.79 4.6-1.4.79-9.94 5.92-11.6 4.56-.46-.6-.25-3.96 0-4.77.86-2.73 8.6-1.67 11.52-4.59-2.96-1.47-7.72-.82-10.71-.21v.03zm-12.34-2.58c-.18-1.66.14-5.66 1.17-6.51l.57 6.4c-1.03.14-.64.32-1.77.11h.04zm.64 2.86 2.3-.6c.18-.81 1.77-2.05 1.52-4.45-.25-2.54-1.25-8.07 3.57-2.97 1.35 1.43 1.7 12.2 1.13 11.07l-.28.95c-1.52-.04-3.57-.57-3.54.92.04 1.41 2.12 1.31 3.15 1.17l.14 14.25c-2.04.75-5.31-1.17-5.2 2.19l5.87.64c2.04 5.72-1.81 6.46-3.25 6.79-4.19.81-8.25-17.31-5.41-23.09 1.13-2.3.71-1.56-.64-3.22-1.1-1.41-.67-3.39.32-4.38l.28.74h.04zm41.29 3.78c-.77-3.47 2.25-24.23 7.99-23.94 1.95 2.39 1.29 5.01.35 9.51l-4.77 10.39-3.57 4.03zm-75.16-19.52c2.15-1.79 7.26-6.89 9.58-6.86.34 1.26-8.46 6.49-9.58 6.86zm22.27-13.12s1.29-5.15 2.62-5.69c6.76-2.79 5.22 7.03 11.07 4.53 2.37-1.01 5.68-.2 6.33.96 2.68-.24 9.79 4.6 11.88 6.05 2.23 1.54 9.66 2.39 13.22 11 .53 1.27 1.48 5.62-.39 5.9-1.93.3-3.31-4.68-9.79-4.84-.33 4.44 1.14 2.92.14 5.45-2.31.23-7.68-3.36-10.89-3.47-4.45-.15-3.32-1.08-5.8-2.44-4-2.2 2.2-.7 3.5-2.33 1.87-2.34-3.69-6.04-10.47.81-2.41 2.44-8.46 1.28-10.01-2.65-2.02-5.16-1.34-8.03-1.34-13.33l-.07.07zm29.38.42c.26-.07 9.13.02 14.18-1.66 12.72-4.24 15.33-10.36 17.78-10.68 3.08 7.34 5.65 14.25-4.95 16.26-5.83 1.11-26.1-3.12-26.94-3.96l-.07.03zm-95.46-7.6.42-8.45c.39-3.85-.88-4.88 2.37-4.84 2.47.03 1.66-.43 1.27 7.25-.42 7.04.21 6.17-4.06 6.05zm58.51-7.85c0-2.09-.99-3.36 1.34-2.72 9.3 2.55 9.93-.39 18.67-8.2l8.52-4.14c4.73-2.29 18.35-1.96 22.52-2.12 3.08-.11 7.11 1.2 8.59 1.24 7.37.13 19.56.38 13.57 8.66l-10.71 11.56c-2.44.61-2.41 2.92-12.09 6.4-10.71 2.97-22.19 2.93-31.75-1.98-12.16-6.24-15.46 6.33-18.21 7.25-1.48-2.61 2.68-7 .35-12.02-1.03-2.23-.88-1.27-.88-3.85l.07-.07zm21.88-24.36c5.31.16 28.08 2.92 31.61 5.16-10.01-.13-14.13-1.64-25.77 1.95-6.4 1.97-8.93 2.55-13.75 8.28-8.28 9.83-10.75 2.58-13.01-1.95-.21-.39-.78-1.17-.95-1.63-.28-.78-.49-8.95.21-9.79 1.36-1.64 19.69-2.09 21.71-1.98l-.03-.04zm-77.57-4.74c0-.6.39-2.4.6-2.9 4.59.47 3.36-1.56 2.83 8.03-.22 3.91.87 6.28-4.14 5.13l.71-10.25zm31.82 17.92 5.9-30.05c1.67-3.03 3.25-1.63 13.19-1.52.39 0 .64.21.99.39l.88 60.21c-.85.42-1.52.25-3.22.32-7.53.42-6.05-.14-6.26-2.97-.25-3.29 1.24-5.73-3.32-5.87-5.65-.19-.49 8.86-6.26 8.98l-7-.46 5.13-29.1-.03.07zm-25.56-14.99c0-5.85 1.22-16.45 8.63-16.65 15.58-.43 15.39 2.41 12.9 22.13-2.02.32-4.56.39-7.04.28-4.77-.18-1.48-.69-1.48-12.06 0-.91-1.52-3.09-2.76.39l-1.24 16.69c.6 1.93-1.18 8.19-1.27 12.41l-.6 12.62c3.17.45 2.53-1.93 2.79-7.53l.85-8.45c0-1.48-1.87-2.19-1.24-3.5 2.48-5.13-3.21-6.92 8.87-6.58 3.27.09 3.43-.76 2.3 8.84l-2.09 19.23c-1.2 4.08-4.21 6.96-9.02 6.79-5-.18-12.59 1.75-12.94-8.42l3.32-36.2zm-47.2 42.04 5.16-57.17c.36-2.09 9.13-.99 10.64-.99 9.81-.03 10.46.93 10.46 10.82l-2.51 25.6c-1.93 9.19-10.73 5.83-12.41 7.42-2.03 1.93.06 16.63-2.97 17.08-1.34.21-7.07.42-8.34-.14-.32-.92-.21-1.48-.21-2.58l.18-.03zm33.48-58.55c14.55.7 12.41-2.22 12.41 5.98 0 3.36 0 1.45-4.74 2.16-4.05.6-2.19 6.67-3.32 13.33-.42 2.65-.53 2.44-.18 4.63 4.25 1.26 6.32-1.93 5.3 4.35-.78 4.6.25 4.07-2.62 4.24-4.08.22-3.85-1.21-4.31 7.96-.18 3.5-1.13 6.54-.49 9.79 1.48.46 4.07.57 5.69.42 1.1 1.45.46 2.86.18 5.06-.67 5.06-3.32 2.86-8.31 3.18-11.86.74-8.05.52-7.42-12.76l4.1-45.96c.19-2.19.41-2.37 3.71-2.37zm59.82-3.25c6.26-13 3.57-8.46 12.13-10.68 10.52-2.73 42.66.32 50.27 6.08 3.24 2.45 4.71.05 12.76 9.86 2.32 2.82 5.78 10.23-2.51 11.6-7.42 1.2-10.39-2.19-9.97 1.41l22.95 8.63c1.24.64 3.61.99 4 2.72-1.42.76-9.66-3.94-14-5.52-17.96-6.51-30.05-10.82-49.6-11.38-8.16-.24-15.15 1.29-23.19 2.69.33-20.66-1.47-12.93-2.83-15.41zm2.51 143.04c-1.04 1.67 1.37 4.61-1.59 4.95 0-3.44 2.93-11.5-2.12-11.84l-17.04-.14c-2.55-.52-5.41 3.81-7.67 4.63-2.23-1.38-2.97-4.56-6.43-4.45-1.48.07-1.59.6-2.58.92-1.41-.53-.74-.88-2.93-.95l-36.95.39c-.6.46-1.41 1.13-1.56 2.05-.95 5.69 4.74 3.39 6.22 3.43 1.8 2.4-.76 7.1-.04 9.65.45 1.58 5.62 1.84 6.29.21 1.42-3.43-.07-9.44 2.55-9.72 1.34-.14 2.69-.04 3.89-.07.53 2.05-1.59 8.38.07 9.9 1.94 1.77 19.7.57 23.83.64 4.85.07 1.3-5.14 4.17-7.35.67.35 1.7 2.83 3.25 2.62.39-.04 4.21-4.1 4.07-1.84-.09 2.83-3.54 6.78 3.15 6.65 4.47-.09 1.77-5.37 3.57-5.8.32-.07 3.78.49 4.77.39 10.9-1.04-.81 5.08 8.52 5.3 1.56.04 1.52-.39 2.55-.42.21.02 3.31 3.25 5.69-.64.35-.57.53-1.34 1.34-1.52 1.31 1.13 0 3.29 3.15 3.36 2.45.05 3.36-4.02 6.47-2.9 2.13.77-.99 3.17 6.79 2.76l19.66.18c3.01-.14 3.25.35 3.89-2.3 1.37 0 4.88 3.37 7.96 1.24 4.56-3.15-2.38-8.67-2.44-10.11.99-.5 8.86 1.92 2.9-8.41-.99-1.73 1.8-3.04 1.27-6.89-.42-3.01-1.41-10.46-6.08-9.79-3.46.49-3.29 2.58-4.17 4.99-2.31-1.08.33-2.37-8.06-6.82l.71-4.07c.26-.14 10.17 6.13 8.84-.99-.18-.99-.14-2.97-1.56-3.36.13-1.68 1.95-.05 4.07-2.65 1.38-1.73 2.33-7.32 0-10.25-1.48-1.84.83-2.35-.6-4.98-1.81-3.32-2.63-.97-.46-5.55 1.12.75 10.62 9.78 9.55-4.03-.53-6.85-7.86-10.83-8.91-11.95l16.62 1.34-3.32 6.68-3.15 16.65c.5 3.19 2.32 5.34 5.48 3.22 3.28-2.2 11.7-17.15 9.05-25.28-.57-1.73-1.31-1.8-2.3-2.9.35-.99 2.23-1.87 3.39-4 3.78-6.97-2.26-15.73-2.33-16.62.16-1.1 8.12-7.3 7.07-12.9-1.36-7.25-14.64-4.13-18.03-7.67-2.68-2.79-22-5.79-27.05-6.54-8.74-1.3-19.64-1.3-27.82-.04-1.23.19-7.36 2.52-5.48-.67.72-1.21 16.66-2.83 18.28-2.97l20.97 1.48c25.55 4.58 44.17 14.93 46.03 15.31 4.56.92 7.53-5.98-3.78-9.19l-9.26-3.71c.26-.79 10.24-3.99 3.5-13.97-8.72-12.91-24.09-17.51-39-19.45-6.93-.9-22.47-1.56-29.8.35-8.34 2.17-6.07 0-10 6.72-.57.99-3.29 6.75-3.82 7-1.52.71-10.64-.88-12.45 1.06-1.49 1.6-3.34 20.41-4.74 21.57-.55-10.85 6.19-24.98-18.14-22.06-3.49.42-4.25 2.32-4.92 2.65-1.21-1.24.81-3.91-11.42-2.72-6.87.67-8.68-1.94-10.92 2.79-4.39-2 1.07-2.73-15.24-2.76-11.29-.02-8.11-1.89-10.78 22.31-.25 2.33-.07 5.52-.53 7.6l-2.16 26.52c-.14 2.65-2.51 8.77.95 9.86 1.06.35 10.71.28 11.74-.21 2.4-1.13 1.56-8.2 1.98-10.29 2.23-11.21-1.43-5.69 6.43-7.35 1.84-.39 2.83-1.77 4-1.91.57 3.04-.64 7.04-.64 10.29-.05 11.87-3.59 8.79 12.8 9.44 10.56.42 6.7-2.07 8.63-3.25 3.22 1.29-.97 2.84 10.01 3.08 9.62.25 7.32-1.2 10.89-1.98.7 2.07 2.16 1.83 5.02 1.8 9.35-.09 9.42 1.57 10.57-5.9.11-.74.67-2.02.64-2.26 1.5 2.25-1.65 7.94 4.07 8.27-.23 1.27-10.54 6.38-5.44 9.97 5.93 4.18 20.34-14.15 21.74-15.56.99 2.09-2.4 13.29 5.66 18.49 1.91 1.24 5.37.95 5.66 1.24l-.32 7.67c-1.56 3.32-.11 4.49 1.27 6.82-4.56 7.06.34 19.28 4.21 25.99-1.06 1.34-3.04 1.94-4.6 2.79-12.8 6.86-9.58 6.86-12.94 9.26-.18-.67-.04-.42-.6-.78-4.24 2.15-2.17 7.3-3.89 10.39l.25-.11zM66.08 133.88c.53-3.45.51-8.55-1.94-11.35L57 117.79c-2.53-1.46-2.01-1.45-1.73-5.94l.85-8.45c.14-1.31-.39-1.98 1.13-1.94l-.6 13.54c1.1.32 9.48.67 11.1-.07l.07-1.45c1.51.59-1.38 19.33-1.38 23.69 0 .92.99 1.17-.67 1.27l.32-4.56zm2.79-33.59c-1.06-4.44-1.44-9.54-10.32-8.87-8.46.63-12.16-.11-13.79 11.84-.61 4.49-2.1 14.63-.43 18.42 1.45 3.18 5.48 4.88 8.56 6.82 2.83 1.8 1.77 3.54 1.56 7.28l-.99 8.91c-.85-.07-.95-.07-.99-.88.35-16.22 4.84-12.99-6.01-13.29-5.48-.15-3.82-.39-4.99 8.24-2.05 15.22 5.01 14.38 5.66 15.38.46.74.18 0 0 .25 6.27-1.99 11.43 3.07 16.26-5.34l2.26-10.39.21.21-.49 14.78c.99.04 1.77.25 2.55.6.07-.04.04-.21.67-.42l8.59.04c1.72-.02 4.84.67 5.69-1.41.71-1.77 1.45-6.08.67-7.85l-5.98-.25 1.24-16.12c.18-1.38 2.72-.85 4.07-.81 3.72.09 1.22-5.31 2.83-8.87-1.2-.78-3.57-.42-5.09-.28-2.26.2-.73-2.51-.28-8.59l1.1-8.73c7.18-1.68 6.22 3.15 7-4.95.53-5.41-.25-4.7-11.46-4.56-11.92.15-4.42 1.94-7.21 8.17-.28.6-.32.49-.92.71l.04-.01z"/><path class="fil1" d="m159.07 112.53-1.06 12.51c0 .95-.25 1.2-1.52 1.1l1.06-11.03 1.52-13.93c1.45-.79.14 9.53 0 11.38v-.03zm-4.31 33.73.88-6.4.53 4.91c1.03 7.29-1.1 9.02 4.35 8.45 5.76-.6 6.05.99 6.05-1.94l-1.73-15.98c2.92-1.53 4-1.64 4.38-9.26l1.45-17.96c-.35-3.67 4.04-16.97-6.86-16.97-19.98 0-13.66-1.12-15.66 7.11l-4.31 54.87c1.13.28 8.77.46 10.25-.14.28-.78.74-5.76.71-6.75l-.04.07zM210.19 124.44l1.94-21.74c.07-.78.18-2.05.78-2.58 1.79.92-.21 11.24-.18 13.43 0 2.23-.32 4.88-.57 7.04-.21 2.16.46 5.52-1.8 5.76-.28-.71-.21-1.1-.21-1.91h.04zm3.75 28.46c1.2.07 1.77-.07 3.01-.14 4.55-.24 3.77 1.08 2.76-8.1-2.6-23.56 2.52 5.75 4.17-30.83.17-3.73 4.95-23.44-5.41-23.12l-15.77.28-5.09 61.73 10 .14c.71-2.66.79-14.41 2.16-16.69l1.17 16.58 2.97.07.04.07zM128.63 133.67c-.01-.29 1.94-19.98 3.32-20.51l-.88 22.06c-2.6 1.46-3.46-.81-2.4-1.52l-.04-.03zm-13.86 15.98c0 4.25-3.67 4.19 8.56 3.78 2.27-.08 1.95-.53 2.44-3.82.28-2.12.81-.95.78-2.33-.07-1.87-.35-2.55 1.77-2.65 1.2-.07 1.73-.04 2.69.42.29 7.71-2.71 8.6 5.94 8.24 1.66-.07 3.61 0 5.3-.18l-.81-53.49c0-10.61 1.83-8.12-10.75-8.48-8.22-.24-4.45 2.82-7.88 15.8l-7.99 42.74-.04-.03zM181.83 135.19l3.32-25.24c1.12 1.71-.28 15.46-.28 20.75 0 4.03 1.08 5.22-3.08 4.49h.04zm13.86 2.72c0-12.27-.46-25.03-.39-37.33.07-11.98 1.09-9.38-9.62-9.48-7.17-.06-5.94-2.39-8.38 11.7l-5.94 31.61c-4.48 22.04-4.75 19.12 3.01 18.7 1.45-.11 3.82.46 4.35-.32.32-.42 1.24-7.6 1.59-7.92.92-.39 2.83-.6 4.17-.32 1.63 1.1-1.81 8.37 2.23 8.66 2.33.18 6.4-.18 8.77-.35l.25-14.92-.04-.04zM105.12 126.74l1.84-23.09c.49-2.12-.11-2.3.81-2.86 1.23.89.03 11.92-.49 14.49-.99 4.49.25 6.51-1.45 11.38l-.71.07zm9.33 6.58c3.88-3.36 3.51-18.38 4.42-24.18.41-2.61 1.66-12.91-.85-14.74-.57-.92-2.05-2.72-3.57-2.86-3.04-.28-16.51-.81-17.68.42l-4.98 56.57c-.11 1.03-.71 4.14-.57 4.74 1.63.64 3.89.28 5.62.42 8.25.63 5.84-1.23 7.04-15.7.29-3.47 1.29-1.5 4.74-1.87 5.37-.53 4.14-1.94 5.8-2.83l.03.03zM140.65 10.39c5.42.25 13.53-1.02 13.08 1.31-.52 2.69-12.5-.96-10.64 3.15.94 2.08 13.27-.09 14.11 1.49 1.36 2.57-12.15 1.92-13.43 1.87-1.34-.04-4.31.35-4.31-.88 0-1.52.42-5.76 1.17-6.93h.04zm-81.28 8.34c-2.47 0-1.86-3.42-1.41-5.09 2.5-9.44-3.62-7.73 13.33-8.17l28.67.07c.03.03 1.52 13.34-3.32 13.19-19.36-.62-17.09 2.22-16.23-6.33.69-6.89.44-4.09-12.2-4.38-5.93-.14-6.8-.69-6.89 3.61-.12 5.69-3.19 4.91 11.17 4.88 1.38 0 3.39-.25 4.45.32l-.04 1.48-17.54.46v-.04zM104.8 7.77c-4.74-.22-2.31-2.47-2.3-2.47.42-.21 9.65 0 11.07-.07 1.7-.04 3.89-.35 5.13-.32 2.69 3.53-.07 2.48-.07 10.82 0 1.34-.07 1.34-.25 2.44-.81.07-1.84.32-2.62.39-1.17-1.8 1.07-5.53-.78-5.55-10.05-.09-11.56-1.39-11.56 4.99-.81.32-1.2.57-2.55.42-.42-1.24-.21-2.55 0-3.75.82-4.69-1.47-4 8.59-4.21 4.28-.07 6.86.6 6.86-1.56 0-2.52-4.91-1.06-11.56-1.24l.04.11zm16.26-1.73c0-1.6 13-1.08 15.7-.92 1.93.11 2.78-.71 1.98 4.46-.46 3.04-.35 1.24-.81 2.58-.57 1.7.78 3.18-.57 5.8-.92.11-1.38.18-2.4.21-.78-2.9 2.33-5.27-2.33-5.41-11.49-.36-8.64-.73-9.97 5.48-4.1.3-2.7-.09-2.4-3.5.45-5.19-2.27-4.18 13.97-4.38 1.45-.04 1.94-1.24 1.56-2.51l-12.34-.35c-1.73.04-2.33.6-2.33-1.45h-.03zm38.92 1.24c-1.4-3.19 6.83-2.58 8.77-2.37 5.32.57 10.66-2.81 8.2 5.9l-.85 6.44c-.18 1.03-1.84 1.34-2.4.35-1.6-2.82 5.07-6.37-10.22-4.95-3.22.53-.46 5.09-3.61 5.34-2.94.24-.43-6.92.25-7.46.53-.32 11.63-.25 13.44-.25 2.88-5.27-4.01-1.99-13.58-3.01zm-18.95-2.16c1.63-.04 14.99-.49 17.36.28.5 3.4-6.22 1.94-13.12 1.98-1.56.04-3.54.35-4.6-.25-.14-.85.18-1.41.32-2.02h.04zm-23.69-1.77-18.81.21-32.74.21c-9.5.43-7.96-.39-9.51 9.26-1.28 7.94-.66 7.99 11.28 7.6h8.59c1.34-.11 1.1-.81 2.76-.74 2.33.07-1.56.85 6.4.46l18.07-.04c4.07-.39.35-4.7 3.32-5.23 1.06-.18 5.69-.21 7.28-.28 0 1.87-.6 3.54.14 5.23 1.34.39 6.68.32 8.31.28 3.43-.11 1.34-4.17 2.65-5.13l7.32-.39c1.63.04-.25 3.64.95 4.84 1.09 1.09 22.75.42 26.62.53 6.82.19-.44-5.66 7.42-5.62.57 0 3.18 0 3.54.11 2.16.49-2.51 6.12 5.16 5.44 2.59-.3 1.87-4.22 2.83-10.22 1.38-8.65-2.25-6.26-11.31-6.58l-47.06.46c-1.45.32-2.26-.21-3.29-.25l.07-.17zM29.78 103.3c0-4.75 6.73.58 7.5-3.75.14-.78.39-6.22.04-6.93-.74-1.56-6.19-.71-8.7-.71-13.51 0-7.94-4.25-11.53 24.75l-2.69 37.12 14.81.39c3.19-.05 3.14-1.33 3.82-6.75.68-5.41-5.72-1.6-6.33-3.15l.67-9.23c.35-2.3.11-4.88.25-6.26.34-3.52 5.75 1.78 6.54-3.57l-.07-6.89c-2.4-.21-3.61.67-5.59-.11.04-.6.32-.95.42-1.56l.85-13.47v.1zM141.81 168.03c-.25-.46.25-3.04.46-3.89.52-2.13 1.79-.93 7.96-1.03 2.52-.04 5.04-.62 6.4.57-1.49 5.01 1.89 4.49-7.57 4.21-1.66-.04-6.47.46-7.25.11v.04zm-60.85 4.38c.04-1.13.53-6.79.85-7.71l14.25-.35c1.66-3.75-1.41-2.62-2.62-2.65-7.06-.21-12.71 1.5-11.21-1.77l5.73-.81c7.96.28 14.6-1.78 11.35 5.2-.71 1.53.26 6.61-.92 7.6l-17.43.53v-.04zm20.51-11c0-3.1.24-2.87 11.95-2.37 4.92.21 3.55-.22 1.84 13.61-2.09.07-1.2-.18-2.86-.21 0-3.22.49-3.08.21-5.48-2.72-.39-6.54-.04-9.79-.14-.7-4.02.19-1.62 10.11-2.51.39-.95.42-1.59-.14-2.51l-11.38-.35.07-.04zm30.44 7.14c.82-1.89.15-10.48 3.22-10.04 2.91.42.21 3.67.21 11.7l-1.27 2.05c-3.71 2.19-10.93-8.9-12.59-9.33-2.06 2.62.43 10.84-3.85 9.62-1.83-.52-.4-5.53.07-8.38.18-1.24.25-4.49 1.41-5.09 4.1-2.16 9.26 9.14 12.83 9.51l-.04-.04zm25.6.46.99-6.36c.25-3.01-.07-4.1 3.54-4h11.49c4.7-.5 5.08-.33 4.06 5.9-1.14 6.99 1.5 7.57-7.53 7.57-12.04 0-12.55 1.4-12.55-3.15v.04zm-16.26.71c3.97.22 17.56-1.27 14.6 1.91l-17.61.67c-3.18.07-1.38-3.64-1.17-6.22.58-8.08-.3-7.97 10.43-7.25 2.19.14 7.32-.28 8.59-.21 1.77.07 2.05 3.01-1.56 2.72-16.48-.9-13.43-.92-14.53 5.66-.39 2.23-.21 2.62 1.24 2.69v.03zm-15.34-.42c7.63 8.08 7.46 3.68 9.93 4.07.67.11 1.2.46 1.84.53l19.94-.53 17.82.14c3.64-.49 2.69-3.82 3.11-5.41.42-1.52 1.31-8.45.71-9.58-1.34-2.58-11.6-1.46-14.56-1.56h-8.24l-18.92.49c-.53.06-4.47-1.44-5.94.78-.64.95-.78 5.98-.78 7.53-2.84-.77-7.41-10.42-11.88-8.38-.74.35-.57.85-1.66 1.06-1.1-.64-.85-1.13-2.72-1.17l-29.17.18c-4.88-.13-5.31.38-4.53 5.41.07 1.13-.46.18-.95 2.51-.43 2.02-1.53 6.67 0 8.77 3.63.11 17.28.26 19.09-.92 3.41-2.22-.22-4.97 3.08-4.77 9.25.56 9.07-1.68 9.05 1.84-.04 3.71-1.24 3.64 6.26 3.46 1.06-.04 2.3.14 3.25.04 1.7-.67.57-6.61 1.84-7.96l3.46 3.43-.03.04zM31.93 17.35c0-.67.28-1.73.42-2.37.98-4.41-2.45-4.26 10.75-3.96 2.83.11 3.89-.71 3.15 2.16-3.19.83-10.72-.83-10.92 1.38-.27 2.98 6.67 1.53 11.53 1.7 1.27.11 4.63-.85 2.37 2.69l-14.74-.25c-2.62-.04-2.55.71-2.55-1.34zm7.25-11.53c5.55.16 14.67-1.76 11.7 1.91-.63.78-33.67-.29-36.56.99-.49 4.09 3.42 2.27 9.01 2.51 4 .14 3.85-.32 4.63-.32 1.13 1.66.07 5.09-.46 6.68-.75 2.27-5.22 1.46-9.3 1.38-1.84-.04-6.54.32-8.24-.39-.2-2.63 2.62-1.91 6.89-1.91 1.59 0 6.54.21 7.5-.39.99-.6.78-2.44-.46-2.86l-12.73-.03c-.26-.48-1.55-7.22 2.62-7.43l25.42-.18-.03.03zM25.29 4.05c-18.53-.64-15.5.33-16.44 11.03-.36 4.12-3.88 5.74 5.45 5.8 9.66.06 13.8 1.25 15.06-3.43 1.2 2-.36 3.57 5.87 3.22 7.21-.41 15.38 1.48 16.33-1.66 1.37-4.51-1.45-4.54-3.43-4.74.21-1.66-.25-3.32.46-4.53 0 0 5.74.9 4.38-4.35-.6-2.26-2.72-1.31-8.1-1.41l-19.59.07zM279.8 65.93c0-4.53 11.68-9.65 17.89-10.85 8.12-1.57 34.15 1.19 34.15 3.89 0 3.52-14.72 12.92-24.61 14.57-8.93 1.49-16.91 1.07-24.5-4.14-1.94-1.34-2.93-1.77-2.93-3.46zm55.12-7.21c0-5.38-17.72-5.75-20.36-6.61-5.35-1.74-22.43-.37-28.92 4.21-1.47 1.04-12.65 7.47-7.64 12.66 13.75 14.23 41.42 7.8 52.89-4.14 1.21-1.26 4-4.33 4-6.12h.03zM183.96 16.47l1.34-9.65c.42-1.06.35-1.63 1.7-1.87l17.61.07c.86 2.52-.59 10.08-1.66 12.83l-17.01.11c-1.66-.11-1.94-.57-1.94-1.48h-.04zm21.81-4.17c-.21-.99.14-4.1.35-5.06.75-3.28 1.53-2.98 12.13-2.72 2.44.04 4.17-.53 5.76.67l.18-.53c.46 1.94 0 2.23-2.02 2.23-1.8.01-12.9-.23-12.9.95 0 4.6 9.17.51 14.25 2.4.11.73.2 6.74-1.98 7.35l-16.23.28c-.81-.53-.21-1.94.14-2.4 3.01-.25 13.36.74 14.57-.67.81-.99.32-2.16-1.06-2.47l-13.19-.04zm12.73-9.48c-1.94.18-10.47-.04-11.53.35l-18.81-.07c-5.88.29-4.67 3.86-5.52 9.44-.92 6.08-.64 7.81 7.28 7.25 5.65-.41 31.58.66 33.45-1.03 1.91-1.73 2.17-7.46 1.91-9.02-.42-2.49 3.64-6.89-2.69-6.86l-4.1-.07z"/><path class="fil1" d="M187.28 13.85c0 2.19 1.17 1.77 3.92 1.84 1.34.04 7.96.6 9.12-.28.74-.57 1.31-7.32.99-8.1-2.62-.46-7.88-.18-10.54-.11-2.55.07-2.44.35-2.83 2.26-.25 1.2-.67 3.01-.67 4.38zM83.27 14.17c0 1.77-.11 2.12 1.94 2.19 11.44.32 10.86.6 11.6-2.94 1.31-6.47-.04-5.73-3.36-5.66-8.56.25-10.18-2.21-10.18 6.44v-.04zM54.45 172.84c-1.12-1.85.37-8.62.6-10.99.11-1.13.42-2.37 1.94-2.4 4.11-.05 14.3-.67 17.64.64l-.85 7.14c-1.06 6.59 2.59 5.31-17.32 5.55l-2.02.07zm21.57-9.79c1.05-4.51-.96-5.37-4.38-5.37-17.85 0-17.82-2.67-19.2 11.35-.68 6.93 2.17 5.08 15.1 5.13 5.3.02 8.86 1.23 8.48-11.1zM249.19 67.8c1.91.07 2.19-1.45 2.19-2.97l.81-23.58c-1.39-2.28-2.23 1.86-2.33 3.75l-2.9 20.29c-.39 2.47 2.14 2.42 2.23 2.51zM183.71 35.21c.74-2.09-1.66-3.68-2.62-2.09l-2.16 22.56c0 .01-.68 4.9 2.05 2.97 1.8-1.27 1.29-19.58 2.76-23.44h-.04zM162.78 167.68c1.14-8.55 1.92-2.95 9.79-5.02.74 1.38.14 4.53-.04 4.81l-9.76.25v-.04zm-1.94 1.66 7.04.21c6.36.11 5.73.88 6.15-1.45.39-2.12 1.41-5.27.49-6.93h-11.31c-2.52.43-2.37 4.63-2.37 8.17z"/><path class="fil1" d="M59.16 168.18c0-6.81.89-4.27 6.93-4.7 3.3-.24 3.69-.77 3.18 4.07-.19 1.78-4.28 1.02-9.05 1.27-.49.04-1.03.04-1.03-.64h-.04zm-1.77-1.1c0 4.09-1.46 2.87 10.01 3.08 4.6.14 2.76-.14 3.78-4.14.35-1.31.49-2.86.14-4.17-2.05-.07-10.47-.32-12.27 0-1.31.24-1.63 4.28-1.63 5.23h-.04zM209.8 162.45c10.61.77 9.65-2.17 8.98 4.92-.05.01-10.01 1.15-10.01-.18 0-1.24.28-3.89.99-4.77l.04.04zm-2.16 7c16.77 0 11.62.24 13.22-4.7 1.96-6.03-2.84-3.04-11.6-3.78-2.02-.17-1.16.75-1.91 4.74-.73 3.9.28 2.72.28 3.75zM285 93.44c14.31-5.72 9.02 2 12.8 2.23 2.13-9.26-8.8-8.56-13.97-4.63-1.98 1.94.46 2.19 1.2 2.44l-.03-.04zM84.43 169.17c0 1.85 11.18.6 11.35.53 1.53-3.72-2.24-2.58-10.22-2.58-.74 0-1.13-.2-1.13 2.05z"/></g></g></svg>