<svg xmlns="http://www.w3.org/2000/svg" xml:space="preserve" width="259.634" height="129.795" style="shape-rendering:geometricPrecision;text-rendering:geometricPrecision;image-rendering:optimizeQuality;fill-rule:evenodd;clip-rule:evenodd" viewBox="0 0 177.89 88.93"><defs><style>.fil5{fill:#0388c7}.fil6{fill:#075282}.fil1{fill:#ccf2fd}.fil11{fill:#e3dad2}.fil7{fill:#fb9ca8}.fil13{fill:#fdfbed}.fil2{fill:#fdfdfd}</style></defs><g id="Camada_x0020_1"><g id="_2076109142048"><path d="M38.2 86.75c.12-.33.38-.9.82-.82.65.12.13.02.36.26.22 1.84.81 2.35 2.72 2.54 1.8.18 3.2-.19 4.9-.39 3.02-.36 7.5.9 9.96-.41.11-.69.31-1.37.98-1.49.26.2.16.17.29.36.7.62 1.57 1.26 2.56 1.48 2.01.45 5.24.52 7.18-.07 3-.91 3.77 1.28 10.89.14 3.27-.52 5.06-1.69 6.08-1.88-.01 2.04 1.44 1.73 4.02 1.73.63 0 3.65-.03 4.19-.2.53-.16.36-.29.91-.44.36.18.55.42 1.13.47 1.18.1 6.9.2 7.51-.25.71-.53.42-1.59.87-2.31.24.32.26.58.58.95.56.65 1.94 1.46 2.81 1.75 1.87.62 3.72-.03 5.45-.17 1.75-.15 4 .16 5.92.05 3.79-.21 2.71-.16 3.73-2.25 1.53.13 2.88 2.7 9.23 2.59 6.96-.12 7.46-2.77 8.46-3.09.3 2.78-.3 2.45 5.74 2.5 1.06.01 3.19-.56 3.53-.49.61.14.68.42 1.58.49 2.54.18 6.54-.35 10.05-.21 3.01.12 5.77.79 6.33-1.61.17-.95.74-4.72 1.48-5.11l.62-2.88c0-2.15.87-4.87 1.35-7 .22-.98.72-2.42.83-3.31.14-1.21-.88-2.16-1.18-3.14l-1-.52c.11-.59.44-.66.86-1.09 2.66-2.7 2.61-5.18 3.51-9.58.62-3.04.06-3.88-1.09-6.02-.36-.68-2.59-4.31-2.55-4.77 2.02-.07 5.31.3 6.09-1.11l.74-2.84c.22-.53-.01-.11.23-.34-.08-2.35 1.63-5.2.87-8.03-.63-2.32-2.49-3.73-4.96-4.28-8.9-1.95-12.34 3.36-13.95 3.59-.3-1.29-.35-1.31-1.16-2.13-.42-.43-1.15-.98-1.9-1.28-2.49-1.03-8.61-.74-10.89.57-.92.53-3.24 2.05-4.07 2.3-.8-.74-1.16-2.05-3.39-2.86-1.42-.51-3.66-.78-5.3-.73-4.93.17-7.31 2.66-9.06 3.19l-.03-1.99c-1.25-.47-6.66-.62-8.12-.27-1.18.29-1.06 1.71-1.37 2.92-.27 1.05-.6 2.44-1.62 2.52-.32-1.76 2.46-5.09-.83-5.49-2-.24-5.5-.07-7.38.31-.39 1.06-.61 2.28-1.64 2.49-.61-3.5 3.88-9.96.64-10.83-2.15-.58-4.07-.06-6.29 0-1.81.05-5.21-.41-6.82.03-3.39.92-2.62 6.5-4.29 9.48-.47.83-.84 1.34-1.36 2.08-.54.76-.73 1.91-1.06 2.38-.48.68-5.44.48-6.18.18-.58-1.85 1.98-.74 2.88-2.55.28-1.78 1.01-4.1 1.52-5.89.26-.9.59-1.89.71-2.87.25-2.02.34-1.64-.59-2.86l-.24-.16c.22-.39.31-.37.61-.68.38-.81.42-1.23.35-2.2-.97-.94-1.69-1.05-3.22-.32-.69.33-2.31 1.33-2.87 1.38-1.34-1.67-1.61-1.82-4.55-1.78-2.42.03-3.54.24-4.38 1.97-.48 1-1.33 3.65-1.5 4.81-.62 4.2 1.74 2.52 2.59 3.71-.17.1.06.04-.32.1l-11.6-.59-.07-.33c.21-.77 1.18-1.98 1.63-2.77.99-1.73 2.41-7.04 4.69-7.97l.5-.98c.02-.92-.4-1.33-.64-1.86-6.36.28-11.79 4.24-14.51 4.12-.61.63-1.63.46-1.57-1.13.03-1.18-.32-3.74-.49-5.01-.21-1.49-.93-7.93-2.28-8.44-1.68-.64-2.79.93-3.57 1.61l-5.64 5.11c-3.35 3.25-2.79 3.78-4.51 6.22-1.4-.04-2.89-.9-3.98-1.44l-7.3-3.45c-2.67-1.23-6.45-3.81-5.92 1.37.57 5.61 4.11 9.71 4 12.08-1.56-.02-2.89-.31-4.67-.24-1.54.06-3.1.12-4.66.19-1.57.06-8.77-.29-6.72 2.38 1.64 2.13 10.38 6.62 11.28 8.18l-4.72 3.01c-1.11.66-4.26 2.23-3.78 3.81.23.75 1.41 1.31 2.36 1.53l10.16 1.25c.02 1.82-4.45 4.03-3.99 6.04.45 1.95 5.8 1.88 7.45 2.74.29 1.82-1.07 5.05.41 6.08 1.07.74 4.74-.33 6.3-.4-.29 4.2 1 3.5 5.35 2.51 2.11-.48 1.68-.42 3.56.33.91.37 2.58.79 3.27 1.2-.29.92-4.08 2.14-5.22 2.7-7.94 3.93-7.51 6.03-9.56 14.26-.96 3.83-3.16 9.78 1.85 11.2 2.25.64 8.06.77 10.71-.3 1.06-.43 1.63-.96 2.42-1.38z" style="fill:#000"/><path class="fil1" d="M39.95 3.53c-.37.38-.83.72-1.26 1.13-.45.43-.69.71-1.23 1.11-.77.57-2.16 1.39-2.41 2.16-.83 1.26-1.17 1.54-2.18 2.46l-.51.81c-.26.64-.53 1.18-.88 1.83-.34.62-.68 1.26-1.18 1.52-.46.94-.62 1.17-1.85.64-1.38-.6-3.11-1.99-6.08-3.29-1.49-.65-2.94-1.21-4.5-1.84-1.55-.62-3.69-2-4.15-1.98-.9 3.73 5.51 13.83 4.93 15.14-1.17.45-2.87-.1-4.12-.19-1.46-.12-2.72-.06-4.17 0-1.37.06-7.64.18-8.39.59.2.37 2.57 1.73 3.14 2.08l7.77 5.19c2.01 1.41 1.57 1.2-1.19 2.85-.89.54-1.59.95-2.47 1.53-.89.59-4.26 2.72-4.51 3.36 1.02.63 12.48 1.49 13.63 2.19-.01.97-1.56 2.29-1.93 3.03l-3.14 3.18-.15.41c.96.48 7.13 1.42 8.14 2.03.04.87-.49 2.03-.65 2.98-.13.8-.56 2.27-.53 2.79 1.92.49 6.34-1.72 7.49-1.03.21.38-.22 1-.29 1.63-.06.58 0 1.46.08 2.04.94.14 3.56-.98 4.43-1.37-.24-1.52-3.25-3.36-4.35-3.69-2.33-.7-3.8-1.3-4.63-3.37-.41-1.01-.53-2.34-.06-3.41.57-1.32 1.49-1.05.84-2.59-.81-1.9-1.52-3.77-2.21-5.78-1.58-4.58-2.51-8.46-.16-12.87 1.46-2.74 5.54-5.43 9.49-6.51 5.72-1.56 11.62-.91 16.05 2.55 3.42 2.67 5.32 9.5 6.53 13.45.59 1.95.49 1.18 2.04 1.94 1.89.92 3.35 2.35 3.41 4.58.04 1.62-.32 1.86-.9 3.08-.45.94-.44 2.11-.85 3.14l-1.05 3.02c.18 1.58-.55 1.01-.6 1.93.55.6 3.02.51 3.95.41-.07-1.45-1.74-3.13-1.62-3.99 1.23-.46 5.13-.32 6.62-.52-.14-1.6-4.48-3.64-4.9-5.13.85-1.01 4.95-3.77 5.4-4.55-.93-.82-6.88-2.68-8.53-3.44l2.21-1.93c1.23-.9 4.91-2.94 5.1-3.17.35-.43.82-2.55.79-2.89-.03-.32.02-.12-.1-.31-.82-.7-13.92.04-10.55-2.38 1.96-1.41 2.4-2.89 3.41-5.4.55-1.37.93-2.35 1.59-3.52.72-1.28 1.91-2.46 2.08-2.95-1.22-.13-6.34 1.95-7.7 2.43-1.48.53-6.44 2.65-8.05 1.8-.53-.53-1.08-8.65-1.48-10.06-.5-.76-.65-4.18-1.5-4.31-.51-.08-.89.97-2.12 1.44z"/><path class="fil2" d="M150.96 31.48c.63 2.02-.73 5.97-1.21 7.99-.32 1.34-.62 2.6-.95 3.88-.34 1.29-.51 2.69-.81 4.01-.31 1.35-2.37 10.74-2.86 11.61-.29.51-.73.86-1.31 1.04-.54.17-1.63.19-2-.25-.75-.88.85-6.59 1.16-7.87.64-2.61 1.2-5.25 1.83-7.82.37-1.5 2.2-10.81 2.74-11.75.61-1.06 1.89-1.52 3.41-.85zm6.66 1.51c.48-2.93-.29-4.03-2.21-5.13-2.65-1.51-9.3-1.34-12.23 1.33-1.68 1.54-2.06 1.8-2.8 4.78-.5 2.02-.89 4.18-1.36 6.2-.48 2.08-1.01 4.08-1.55 6.02-.59 2.12-.89 4.1-1.36 6.25-.79 3.62-2.85 9.37 1.03 11.43 1.47.78 4.95 1.01 6.73.76 4.57-.66 7.17-2.85 8.4-6.8.62-2 1.95-9.45 2.69-12.47 1-4.03 1.97-8.23 2.65-12.4zM104.48 27.6c-.56 1.35-1.99 8.87-2.38 10.83-.36 1.83-.92 3.42-1.3 5.31-.36 1.78-.72 3.58-1.09 5.38-1.68 8.14-6.17 16.11 6.32 15.46 4.28-.22 6.68-2.11 8.13-4.99.77-1.54.95-3.51 1.37-5.22 1.02-4.1 6.05-25.96 5.88-26.69-1.67-.14-4.63-.22-6.26-.01-.66.98-3.44 14.66-4.18 17.58l-3.03 13.23c-.27.72-.55 1.24-1.26 1.51-.79.3-2.43.56-2.49-1.09l3.23-15.11c.46-2.13 3.53-15.17 3.43-16.16l-6.38-.02z"/><path d="M49.39 39.55c6.27-1.29 7.23 4.91 4.34 9.63-.64 1.04-1.86 1.99-2.84 2.81-2.3 1.93-3.1 1.04-3.23 2.5-.12 1.27-.32 1.16-1.31 1.65-1.25.61-1.07 2.95-3.35 1.02-.98-.83-1.42-.07-2.27-.62-.85-.56-.2-1.14-1.61-1.28-1.92-.2-5.15-1.01-6.75-1.81-2.54-1.27-5.71-3.43-4.37-6.68 1.5-3.65 6.24-.41 13.81-3.29 3.11-1.19 4.22-3.22 7.59-3.91zm-13.01-19c2.09-.31 6.75-.03 8.12 1.44.6.64.29 1.34-.44 1.68-1.54.7-9.29-1.08-15.11 2.08-1.05.57-3.65 2.39-4.64 2.5-1.76.2-1.75-1.87-.94-2.85 1.26-1.53 5.72-3.39 7.51-3.87 1.78-.48 3.68-.7 5.5-.97zm18.5 30.95c.63-.77.75-.58.54-1.39-.7-.12-.62-.01-.72.66-.4.01-.34-.09-.43-.28.19-.51 1.26-1.89 1.56-2.14.41-1.4.89-1.98 1.07-3.72.43-4.07-1.9-7.29-6.24-6.49-1.06.2-.79.05-.94-.05.59-.86 2.62-.46 3.63-.58.23-2.42-3.74-12.88-5.97-15.32-3.3-3.61-9.94-5.41-16.26-3.48-3.34 1.02-4.87 1.98-7.01 3.75-.98.81-1.93 1.75-2.48 2.9-2.22 4.59-1.01 8.3.69 12.79.59 1.55 2.43 6.61 3.12 7.47.4-.17 2.84-2.91 5.74-2.39-.17.43-.93.59-1.89.9-.95.31-1.39.32-2.03.89-1.09.99-1.46 2.41-1 4.21.77 2.98 3.36 4.22 6.01 5.42.04.78.09.85.29 1.44.44.2.79.87 2.41 1.66 4.86 2.36 14.98 1.22 18.62-3.63.3-.4.57-.86.86-1.21.42-.51.48-.55.45-1.41zM24.83 40.51c.61-.26 1.27.28 2.08.47 3.09.71 4.72-1.16 6.34-1.37-.31 2.22-7.79 2.89-8.42.9zm17.5-2.15c.32-.28.68-.26 1.13-.31 1.2-.12 3.9-.91 4.82-1.35.73-.35.94-.78 1.71-.89-.44 1.98-6.89 3.54-7.66 2.55zm-7.72-1.53c-.36.15-3.23 4.38-8.67 2.75-2.63-.79-4.99-4.72-3.8-7.5 1.63-3.82 8.29-4.72 11.05-2.34 2.36 2.04 1.11 4.83 1.86 6.13.84 1.45.59 1.3.65 3.32.15 4.74 2.95 4.4 3.36 3.06.72-2.35.01-2.69.39-3.37 1.28.04.78 1.9.49 3.45-.26 1.39-2.3 1.51-3.05 1.22-2.57-.99-2.2-4.99-2.29-6.71zm7.2-11.34c1.87-.36 3.88.06 5.3.81 1.46.77 2.29 1.99 2.88 3.48 2.07 5.27-6.69 8.7-10.89 6.46-2.77-1.47-5.49-9.18 2.71-10.75z" style="fill:#e5ddd5"/><path class="fil2" d="M161.11 53.33c.06-1.05.26-2.52-.77-2.96-1.73-.74-2-.29-3.65-.4-.5-.14-.85 0-1.43-.01-.42 1.35-.68 3.2-1.06 4.75-.79 3.25-1.84 6.24.82 8.68.94.86 2.97 1.11 4.49 1.17 8.57.37 10.76-3.19 12.03-10.75.77-4.57-.52-5.6-2.4-8.54-.76-1.19-1.51-2.24-2.26-3.39-.98-1.48-1.89-2.44-1.85-3.79.05-1.72.33-3.35.78-4.88.78-2.66 3.1-1.99 3.49-1.61 1.01.98-1.73 8.69-1.28 9.27.27.35 6.18.04 6.41.01.75-2.29 1.51-5.65 1.8-8.26.38-3.35-1.53-5.01-4.34-5.53-6.58-1.21-11.43 1.36-12.91 6.45-.37 1.26-.64 2.83-.91 4.17-.72 3.58.4 4.87 2.23 7.45.69.97 1.34 2 1.99 2.97 1.82 2.73 3.34 4.24 2.39 6.95-.48 1.39-.46 4.64-2.42 5.07-4.25.92-.97-4.44-1.15-6.82zM94.36 33.68c-.88 5.01-2.51 10.77-3.52 15.67-.54 2.63-1.14 5.18-1.75 7.77-.35 1.51-.53 2.61-1.87 2.93-2.12.51-2.35-.66-2.06-2.44.54-3.37 2.62-12.01 3.49-15.68.62-2.58 1.15-5.17 1.75-7.77.34-1.47.44-2.57 1.9-2.9 2.13-.47 2.36.61 2.05 2.41zm-8.56-3.15c-.08-.07.14-.19-.45-.21-.95-.03-1.79 4.23-1.99 5.05l-2.09 9.53c-.76 3.15-1.5 6.2-2.19 9.37-.68 3.1-2 7.26.69 9.12 3.25 2.26 13.25 2.82 15.6-4.95.86-2.82 1.5-6.42 2.14-9.42.86-4.08 2.68-10.3 3.34-14.02.4-2.26.64-2.94-.03-5.04-.63.2-.58.58-1.46.73-1.51.26-4.67.15-5.94-.26-.87-.28-1.02.15-1.81.33-1.36.3-4.48 0-5.8-.22zM123.18 59.66c.25-3.04 1.48-7.23 2.14-10.14.38-1.68.89-3.41 1-5.24.12-2.1.72-3 1.14-4.92.37-1.69.75-3.28 1.13-5.06.37-1.76.84-3.36 3.07-3.02 1.19.18 1.1.94.93 2.09-.3 1.93-1 4.18-1.3 6.22-.17 1.19-.25.98.01 1.2.43.28 5.68.26 6.42.05.14-.26 1.56-6.56 1.68-7.31.22-1.35.25-2.74-.35-3.94-1.47-2.95-7.73-3.04-10.38-2.35-5.76 1.49-6.34 5.42-7.42 10.39-.51 2.37-1.1 4.79-1.59 7.22-.86 4.26-4.19 14.02-2.67 17.12.35.71.69 1.35 1.43 1.3.56-.97.32-2.55 1.05-3.19.66-.58 2.65-.19 3.69-.42z"/><path d="m40.92 56.19-.13-.92c1.21-.53 2.59-.13 3.99-.58.47-.15 1.2-.47 1.66-.56 1-.21.94.76.45 1.15-.3.23-1.06.42-1.47.74-.59.47-.42 1.24-1.01 1.33-.75.12-.75-.66-1.4-.9-.63-.23-1.41-.05-2.09-.27zm-1.07-2.17c.7-.3 1.23-.34 1.3.46-.49.48-1.32.53-1.3-.46zm2.45.67c-.05-.57.15-.69.4-.95.76-.09.96-.01 1.13.61-.38.28-1.04.38-1.53.34zm-4.65-.34-.02-.41c.61-.41.99-.29 1.02.41-.45.33-.57.32-1.01 0zm7.11-.32-.07-.64c.4-.16.88-.24 1.39-.14.09.52.18.61-.29.79-.35.13-.69.09-1.02-.01zM47 53.6c-.21-1.28.85-1.68 1.57-.91-.25.38-1.17.94-1.57.91zm2.21-1.15c.02-1.02.44-1.38 1.42-.99-.09.39-.12.4-.57.66-.26.15-.53.25-.86.33zm-8.65-1.27c.58-.99 2.37-1.14 3.53-.73.82.29 2.6 1.2 2.51 1.95-.08.63-1.05.27-1.74.59-.55.25-.93.7-1.67.12-.52-.41-.46-.91-1.2-1.14-.81-.26-1.1.01-1.43-.8zm-5-5.61c.52.19.21.1.38.24-.25.38-.62.57-1.22.47-.59-.11-.85-.19-.85-.7.5-.17 1.17-.2 1.68-.01zm-3.52.57c-.68-.01-.9-.2-.95-.9l1.94.01c-.03.65-.29.9-.99.89zm4.91-.47c.34-.59 1.02-.56 1.69-.41-.02.6-.21.65-.51.96-.25-.01-.51-.02-.73-.1-.63-.25-.28-.09-.45-.45zm2.54-.69c.44-.31 1.09-.48 1.65-.45.01.68-.1.8-.4 1.16l-.88-.02c-.28-.36-.28-.22-.37-.7zm2.65-.71c.17-.49 1-.84 1.63-.77l-.02.78c-.48.21-1.13.21-1.61-.01zm2.59-1.64c.24-.37 1.31-1.11 1.58-.34.22.62-.8 1.05-1.4.96l-.18-.62zm2.08-1.23c.11-.78 1.32-.88 1.74-.76l-.13.86c-.72.15-1.06.22-1.61-.1zm2.61-1.85c-3.37.69-4.47 2.72-7.59 3.91-7.57 2.89-12.31-.36-13.8 3.29-1.33 3.25 1.83 5.42 4.37 6.68 1.59.8 4.82 1.61 6.75 1.81 1.4.15.75.73 1.61 1.28.85.55 1.29-.21 2.27.62 2.28 1.94 2.1-.4 3.35-1.02 1-.49 1.19-.37 1.31-1.65.14-1.46.94-.57 3.23-2.5.98-.82 2.21-1.77 2.84-2.81 2.89-4.72 1.93-10.92-4.34-9.63z" style="fill:#4a1418"/><path class="fil2" d="M69.36 58.88c-.14-1.66 2.37-11.61 2.9-14.04.43-1.97 3.15-12.87 3-13.88-1.92-.29-3.9-.82-5.45-.44-1.67.41-1.16 1.15-1.9 4.34l-2.37 9.99c-.45 2.23.73 1.59.95 2.9.24 1.45-1.32 1.34-2 2.02-.22.45-1.52 6.98-1.42 7.7 1.26.82 2.96 1.3 4.14 2.18.58.44 1.18 1 1.86 1.31 1.41.63 2.37.1 2.6.85.24.78-.2 1.8-.25 2.15 4.85.47 4.64-.12 4.89-1.44l.59-2.99c0-.65-.01-.3-.16-.47-.61-.41-6.15-.13-7.41-.19z"/><path class="fil5" d="m144.16 73.26-.1.87c1.01.35 5.01.11 6.24-.05.4-1.2 1.11-5.31 1.66-5.66.48-.31 1.67-.25 2.18-.03.54 1.2-.75 3.68-.78 4.96l-.09.61c1.05-.18 2.22-.23 3.33-.32 2.57-.2 2.25.12 2.18 1.24l.37-.11 1.29-5.02c.27-1.04.15-1.15.64-1.46.43-.28 1.67-.16 2.11 0 .23 1.27-.57 3.08-.61 4.24-.18 1.31.12.78 3.26.79 2.18.01 2.11 0 2.7-.85.23-.33 0-.1.27-.32.21-1.65 1.51-4.6.4-6.02-.6-.77-1.81-.77-2.96-.81-4.53-.13-4.31 2.14-5.89.84-.72-.6-1.51-.82-2.79-.93-4.1-.36-4.73 1.49-5.62 1.85l-.06-1.54c-1.03-.18-5.14-.27-5.88.13-.34.32-.22.28-.32.92-.25 1.73-1.58 5.28-1.56 6.68zM106.89 75.95c.14.51-.06.15.25.36l.28-.35c.73-.74.76.43 3.2-.09 2.71-.58 2.09.09 2.99-1.32l.15-.22c.39-1.2.69-2.69 1-3.97.19-.75.26-1.36.79-1.7.57-.37 1.67-.38 2.12 0 .37.75-1.07 5.09-1.13 6.32l-.01.78c.88.13 2.13-.05 2.93-.11 1.15-.09 2.03-.01 3.1.02.4-2.28 1.22-5.07 1.81-7.46l1.65-7.35c-.01-.03-.04-.05-.04-.11-.05-.58-3-.27-3.52-.26-1.23.03-2.39-.24-2.7.79-.39 1.29-.88 4.68-1.36 5.52-.52.03-1.15-.67-1.96-.94-1.7-.57-5.56-.52-6.72 1.23-1.22 1.84-1.61 4.31-2.18 6.64-.19.79-.61 1.5-.62 2.22zM42.32 78.91c.02.58.01.33.17.55 1.21.04 5.43-.05 6.25-.36.03-.76 1.97-8.74 2.28-9.35.41-.81 1.85-1.32 2.55-.53.49 1.03-2.1 8.14-1.84 9.24l.03.49c3.75.14 6.04.99 6.49-2.97.22-1.88-1.3-2.62-.95-3.8.31-1.04 1.58-.38 2.42-1.7l.36-.43c.15-.57.34-2.33.18-3.03-.55-.96-4.46-1.35-6.78-.44-.7.28-1.15.74-1.77.84-.26-.43-.17-.72-.57-1.07-.58-.31-4.55-.34-5.26-.04-.61.25-1.17 3.13-1.4 3.97-.4 1.47-.76 2.87-1.14 4.38-.31 1.25-.83 3.09-1.03 4.26z"/><path class="fil6" d="M126.14 72.44c-.1.15-.04.01-.17.34l-1.09 4c-1.44 6.56-3.46 9.44 2.81 10.03 4.42.41 10.32.72 11.69-4.25 1.37-4.97 1.15-4.61-1.09-4.62-.68 0-1.37-.01-2.05.04-1.97.12-2.51.08-2.81 1.28-.27 1.09-.58 2.2-.83 3.31-.53 2.26-1.98 1.7-2.22 1.48-.08-.07-.29.1-.2-1.05.03-.35.09-.66.15-.98 1.31-6.61.62-5.02 6.32-5.29 1.2-.06 3.23.04 4.19-.32l.49-2.5c-.66.33-2.28.35-3.22.5-.89.14-2.45.4-3.17.07l.06-.93c-.31.2-2.84 1.05-2.69-.39.02-.2.12-.51.15-.74-.33.33-.29.51-.32 1.21-.03.58.04.76-.37 1.06-.43.29-5.06.28-5.47.04-.38-.33-.18-1.59-.14-2.31z"/><path class="fil5" d="M35.45 70.32c-.16.61-.91 4-1.06 4.18-.34.43-1.49.47-2.19.31-1.06-.25-.58-1.1-.34-1.88.44-1.45.41-2.9 1.25-3.98.96-1.23 2.93-.82 2.34 1.38zm-3.3-4.09c-.49.27-1.04.08-2.15.56-2.49 1.06-2.97 2.08-3.66 4.48-.43 1.49-.63 2.86-1.11 4.27-.32.94-1.02 3.61-.78 4.67.76.22 1.71.23 2.6.15 1.06-.09 1.92.18 2.73.11.59-1.13.53-.86.8-2.07.12-.52.13-.74.37-.91.68-.35 6.56-.23 7.83-.26 1.57-.03 1.45-.84 1.84-2.3.27-1.04.54-2.15.81-3.21.73-2.93 1.2-4.33-1.82-5.26-3.08-.96-4.56-.19-7.45-.23zM79.96 74.42c-3.46.18-2.9.09-2.33-1.91.28-.99.61-3.22 1.22-3.88.33-.36 1.54-.72 2.14-.27.8.6-.99 5.99-1.02 6.06zm-9.55 2.14-.06 1.61c1.11.2 4.59-.51 5.15-.09.58.44-.2 1.19.69 1.2.14-.69.25-1.51.61-2.08 1.37-.52 7.06.01 8.96-.25.33-.49 1.9-7.83 1.86-8.7-.13-2.72-5.62-2.84-7.65-2.76-3.06.12-6.34.91-7.48 2.87-.51.87-2.11 7.04-2.09 8.2z"/><path class="fil6" d="m106.89 75.95-.16.31-.2.77c-.43 1.85-1.79 6.73-1.65 8.03.08.7.71 1.33 1.19 1.62.87.53 4.3.37 5.1.19.82-.19 1.36-.61 2.03-.72.94.5.5.66 2.06.7 5.06.14 4.59.13 5.32-2.55.81-2.94 1.3-5.57 1.96-8.62-1.07-.03-1.95-.12-3.1-.02-.79.07-2.05.24-2.93.11l.01-.78c-.62.86-1.18 3.88-1.5 5.16-.37 1.48-.61 4.38-2.65 3.61-.74-.41-.34-1.5-.17-2.27.18-.79.35-1.53.53-2.38.33-1.48.83-3.3 1.01-4.76-1.19 1.71-.15.9-3.14 1.53-2.44.52-2.48-.65-3.2.09l-.28.35c-.3-.21-.11.15-.25-.36z"/><path class="fil5" d="m88.45 77.25.01.4c.98-.09.05-.26 2.68-.33 1.02-.03 2.06-.1 3.08-.03l-.05 1.34.32.09c.28-1.11 1.97-8.75 2.3-9.38.27-.53.47-.67 1.16-.75 3.07-.33.32 3.68.26 6.54.08 1.01-.24 1.39 2.45 1.45.72.02 1.18.09 1.82-.17 1.06-.43.62-.05 1.66-.05 1.45-7.47 4.69-11-2.52-10.86-2.69.05-3.58 1.44-4.21 1.46-.16-.78.03-.45.25-1.07-1.61-.27-3.42-.38-5.13-.22-1.75.16-1.52.89-2.09 3.1-.36 1.41-.69 2.86-.93 4.29-.2 1.18-1.04 3.17-1.04 4.19z"/><path class="fil6" d="M76.2 79.28c-.89-.01-.11-.76-.69-1.2-.56-.42-4.04.28-5.15.09l.06-1.61c-.21.22 0-.08-.17.28-.02.04-.07.17-.08.22-.64 1.87-1.64 5.52-1.37 7.23.24 1.53.76 2.03 2.14 2.52 2.27.8 9.48.9 11.98-1.15 1.96-1.61 2.52-6.67 2.19-6.97-.9-.33-2.29-.22-3.33-.21-1.23.01-2.38-.18-2.83.72-.72 1.44-.79 4.09-1.85 5.15-.62.12-1.05.21-1.53-.1l-.12-.69c.01-1.06.56-2.47.76-4.28z"/><path class="fil5" d="M126.14 72.44c-.04.71-.23 1.98.14 2.31.4.24 5.04.26 5.47-.04.4-.31.34-.49.37-1.06.03-.7-.01-.88.32-1.21 0-1.25.5-5.11 2.92-4.67 1.59.29.17 3.06-.38 5.79l-.06.93c.72.33 2.28.07 3.17-.07.94-.15 2.56-.17 3.22-.5.2-3.33 4.6-8.92-5.79-8.75-3.61.06-7.51.36-8.61 4-.27.87-.73 2.35-.77 3.27zM60.82 78.16l-.03.37c1.17.04 2.35.11 3.48.1 1.32-.02 1.83-.49 2.95-.76.61-1.73 1.16-4.86 1.63-6.83.58-2.46.82-1.98 1.95-2.31.93-.28 1.45-1.77 1.33-2.83h-1.65c-.29-1.4.41-2.56.27-3.56-1.45-.58-4.33-.34-5.92-.12-.41 1.04-.61 2.97-1.4 3.55-.81.6-1.24.07-1.61.88-.24.53-.41 1.5-.27 2.18l1.12.07c.53 1.7-2.1 8.28-1.85 9.27z"/><path class="fil6" d="m30.33 79.43-.55 1.06c-.81.06-1.66-.2-2.73-.11-.89.07-1.84.07-2.6-.15-.24-1.06.47-3.72.78-4.67.48-1.41.68-2.79 1.11-4.27.69-2.41 1.17-3.42 3.66-4.48 1.11-.47 1.66-.29 2.15-.56-1.27.04-1.88-.18-3.05.36-2.99 1.38-2.84 2.85-3.81 6.78-.57 2.3-2.69 9.69-2.5 11.54.34 3.29 7.94 2.97 11.12 2.45 2.23-.36 3.39-1.18 4.3-2.73.49-.84 1.53-4.45 1.41-5.63-1.21-.21-5.48-.53-6.34.16-1.15 1.12-.28 6.74-3.64 5.53-.33-1.17.55-3.9.7-5.27z"/><path class="fil2" d="M44.67 32.03c-.97.91-2.38.3-2.03-.65.22-.59 2.04-.92 2.03.65zm-2.69-5.97c-3.13.7-5.67 2.52-4.68 6.59.35 1.43 1.56 2.72 2.49 3.17 1.52.74 3.15.73 4.82.23 9.75-2.89 3.52-11.36-2.63-9.99zM27.87 34.19c1.39-1.05 2.12-.02 2.01.54-.12.6-.85 1.07-2.03.23l.02-.78zm-.83-4.98c-2.58.48-5.36 2.92-4.25 6.1 1.04 3 3.03 4.35 6.88 3.73 7.01-1.13 5.98-11.43-2.63-9.84zM50.28 57.85c-.36-.12-.68-.01-1.04.09l-2.9.8c-4.44 1.02-6.13.03-5.51 1.67.75 1.98 4.19 1.11 5.61.79 3.59-.83 4.56-2.45 5.35-1.15 3.2 5.3 2.2 5.78 6.66 5-.12-1.1-3.78-3.74-4.08-5.03 1.05.59 3.85 3.73 4.79 4.79.56.64.73.71 1.88.49.39-.07 1.66-.26 1.94-.4.78-.4.75-2.7 1.33-3.5l2.11-.02c-.43-1.43-1.99-2.1-3.53-2.19-1.91-.11-3.6-.22-5.52-.22-1.65 0-5.46.44-6.76.15l-.33-1.28zM126.35 64.49c3.37-.36 6.08-2.51 6.98-5.06.54-1.54.89-2.97 1.22-4.74.22-1.16 1.11-3.9.96-4.85-1.22-.12-4.9-.22-6.02-.02-.81.15-.81 1.15-1.02 2.03l-1.73 7.23c-.15.76.22 1.57.05 2.73-.15 1.02-.38 1.62-.44 2.69z"/><path class="fil6" d="m162.59 72.52-.59 1.65c-.15.54-.27 1.1-.41 1.67l-1.63 6.91c-.32 1.15-.69 2.46-.31 3.68.78.23 4.84.24 5.49-.14.99-.57 1.16-3.12 1.49-4.44.79-3.13 1.72-6.47 2.18-9.72-.27.23-.05-.01-.27.32-.59.86-.52.86-2.7.85-3.14-.01-3.44.52-3.26-.79zM150.3 74.09c-1.23.16-5.23.39-6.24.05l.1-.87c-.24.24-.04-.08-.22.36l-1.58 6.14c-.32 1.39-1.84 5.78-1.22 6.85.62.35 4.38.12 5.41.05 1.55-.1 1.05-.85 1.74-3.61.64-2.58 1.76-6.38 2.01-8.97zM159.16 74.77l-.37.11c.07-1.11.39-1.44-2.18-1.24-1.12.09-2.29.14-3.33.32l.09-.61c-.02.03-.05.07-.06.09l-.9 3.11c-.44 1.8-2.32 8.98-1.99 9.86.88.31 3.99.23 5.04.08.99-.13 1.05-.41 1.3-1.31.93-3.29 1.44-7.18 2.4-10.43z"/><path class="fil7" d="M69.92 23.63c.06.45-.53 2.42-.68 3.08-.26 1.15-.56 1.93-1.84 1.37l-.06-1.23c-.73-.16-2.08-.21-2.43.48-.23.46-.6 2.05-.45 2.64.69.66 2.57.35 3.67.35 1.3 0 2.6-.23 2.99-1.22.38-.99 1.53-6.25 1.59-7.03-.51-.14-1.24-.28-1.83-.38-2.44-.4-2.06-.06-1.32-2.72.3-1.07.33-1.3 1.73-1.25.05.59.01 1.23-.12 1.77-.13.56-.51 1.26.02 1.51.3.14 1.51.06 1.82-.07.51-.22.57-.71.7-1.35.83-3.89 1.45-3.93-2.97-3.94-3.52-.01-3.16 1.27-3.95 4.21-1.19 4.41-.95 3.49 3.12 3.8z"/><path class="fil6" d="M104.14 76.37c-1.04 0-.6-.38-1.66.05-.65.26-1.1.19-1.82.17-2.68-.06-2.36-.44-2.45-1.45-.02.03-.04.07-.05.1l-.75 2.71c-.58 2.24-1.8 6.74-1.86 8.69.97.28 5.08.37 6.08.06.41-.54 2.16-8.86 2.52-10.33z"/><path d="M51.72 78.46c-.33.34-.1-.02-.27.54l-1.83 8.04c1.03.34 5.56.66 6.23-.04.53-.55 1.36-4.39 1.61-5.44.83-3.51 2.19-7.94 2.62-11.5l-.36.43c-.84 1.32-2.11.66-2.42 1.7-.35 1.18 1.16 1.92.95 3.8-.45 3.97-2.75 3.11-6.49 2.97l-.03-.49z" style="fill:#075384"/><path class="fil6" d="m60.82 78.16-.76 2.3c-.69 2.53-1.92 5.52-.17 6.36.87.42 6.74.75 7.44-.36.18-.29.43-2 .39-2.39-1.42-.63-1.75-.62-1.18-2.68.33-1.18.6-2.23.69-3.52-1.12.27-1.63.74-2.95.76-1.13.02-2.32-.06-3.48-.1l.03-.37zM94.49 78.73l-.32-.09.05-1.34c-1.02-.07-2.06 0-3.08.03-2.62.07-1.7.24-2.68.33l-.01-.4c-.31.34-1.2 4.32-1.31 4.76-.23.91-1.18 3.96-1.04 4.79.83.33 5.69.35 6.43-.09.48-.83 1.74-6.62 1.96-7.98z"/><path class="fil7" d="M76.59 21.34c.41-.45 1.61-.66 1.44.44-.08.53-.41 1.5-.56 2.09-.17.69-.88 3.84-1.23 4.14-.3.27-1.63.69-1.45-.47.09-.56.39-1.45.56-2.08.23-.86.8-3.7 1.24-4.12zm-4.7 8.59c1.13.62 3.14.51 4.66.48 1.84-.04 2.15-.98 2.52-2.61.52-2.31 1.93-6.29 1.72-8.55-1.05-.18-3.75-.34-4.79-.2-1.65.22-1.87 1.18-2.2 2.75-.38 1.77-2.04 7.25-1.9 8.13zM91.46 21.13c1.59-.62.29 2.7.07 3.56-.57 2.18-.51 3.49-1.64 3.59-1.27.12-.95-.7-.7-1.53.21-.71.36-1.29.57-2.05.77-2.71.48-3.09 1.69-3.57zm-5.4 8.56c1.56.74 2.69.64 4.68.61 1.89-.03 2.04-1.13 2.52-2.78.4-1.38 2.14-7.19 1.91-8.19-1.21-.32-3.46-.34-4.85-.27-1.66.08-2.05 1.03-2.39 2.58-.29 1.34-1.87 7.3-1.87 8.06zM99.56 21.01c.33.56.2 1.27.52 1.53.28.22 1.24.27 1.61.05.55-.35 1.03-2.34.93-3.25-1-.34-5.31-.53-6.13.1-.66.51-1.52 3.86-1.55 4.98.94.66 2.67.42 3.85.65.01 1-.25.36-.39 1.43-.11.79-.28 2.21-1.54 1.64-.47-.21-.27-.72-.37-1.36l-2.03.01c-.34.48-1.56 2.7-.22 3.38.65.33 3.88.25 4.73.11 1.37-.24 1.54-1.53 1.92-2.99.21-.81.99-3.34.75-3.96-.99-.42-2.53-.42-3.73-.55-.08-.55.05-1.04.14-1.52.46-.15.94-.34 1.52-.24z"/><path d="m42.18 61.93-.97-.05c-.31 1.59-.13 2.64.11 4.21.47.66 1.2 1.41 1.42 2.18l.3.98c1.04-.31 1.16-1.29 1.47-2.43.43-1.62.53-1.38 2.39-1.4 1.27-.01 2.6-.06 3.87-.04 1.34.03 1.87.51 3.19 0-.11-1.54-2.04-4.42-2.78-5.23-.41-.2-6.04 2.62-8.99 1.78z" style="fill:#bcf0f0"/><path class="fil6" d="M48.74 79.1c-.82.31-5.04.4-6.25.36-.16-.22-.15.03-.17-.55l-.59 1.97c-1.56 5.52-2.1 6.41.47 6.52 2.11.08 4.56.32 4.99-1.37.6-2.37 1.16-4.45 1.54-6.92z"/><path class="fil1" d="M36.46 21.1c-4.64.69-6.31.8-10.66 3.19-.71.39-1.61.97-2 1.45-.41.49-.82 2.08.44 1.93.75-.08 3.66-2.01 4.44-2.43 5.87-3.18 13.9-1.52 15.15-2.09 1.93-.88-3.09-2.69-7.37-2.05z"/><path class="fil2" d="M40.01 65.84c.54-.1.23.13.49-.2-.23-1.52-.14-2.51-.06-4.01l-.56.04c-1.34.37-8.04 2.82-8.64 3.63l6.28-.11c.32-.6.27-1.7.84-2.04.26.52-.11 1.49-.02 2.21.44.31 1.1.36 1.68.47z"/><path d="M40.54 51.17c.34.81.62.54 1.43.8.74.23.68.73 1.2 1.14.74.58 1.12.13 1.67-.12.69-.32 1.66.04 1.74-.59.09-.75-1.69-1.67-2.51-1.95-1.17-.41-2.95-.26-3.53.73z" style="fill:#b33727"/><path class="fil11" d="M24.16 45.49c-1.28.69-1.16 2.72-.54 4.01.56 1.17 1.48 2.19 3.06 2.39-.28-1.02-.99-1.91-1.28-3.24-.34-1.59-.26-2.13-1.24-3.16zM40.92 56.19c.68.22 1.46.03 2.09.27.65.24.65 1.02 1.4.9.58-.1.42-.86 1.01-1.33.4-.32 1.17-.51 1.47-.74.49-.38.55-1.35-.45-1.15-.45.09-1.19.41-1.66.56-1.39.45-2.77.04-3.99.58l.13.92zM54.79 38.19c1.94 1.51 2.49 3.71 2.86 4.13 1.3-1.42-.39-5.51-3.51-5.81-.16.98.15 1.29.65 1.68z"/><path class="fil7" d="M77.64 18.76c.48-.03 3.68-1.66 3.07-3.3-1.23-.44-4.17 1.18-3.99 2.04.08.37.69 1.07.92 1.26z"/><path d="M156.69 49.96c1.64.12 1.92-.34 3.65.4 1.04.44.83 1.91.77 2.96.19-.2.95-2.64.83-3.21-.01-.02-.04-.05-.04-.1-.04-.43-3.66-.51-4.61-.29l-.59.24z" style="fill:#e6ddd5"/><path class="fil13" d="M33.99 69.24c-.3.16-.68.34-.67.96.01.62.38.71.93.45.68-.33.94-2.03-.26-1.41zM44.7 42.63l.18.62c.6.1 1.62-.34 1.4-.96-.27-.76-1.34-.03-1.58.34zM39.46 44.97c.09.48.1.34.37.7l.88.02c.3-.36.41-.49.4-1.16-.56-.03-1.22.13-1.65.45z"/><path class="fil11" d="m33.01 45.24-1.94-.01c.05.69.27.88.95.9.7.01.96-.23.99-.89zM46.78 41.4c.55.32.89.25 1.61.1l.13-.86c-.42-.11-1.64-.01-1.74.76z"/><path class="fil13" d="M36.92 45.66c.17.36-.18.2.45.45.22.09.48.09.73.1.29-.31.49-.37.51-.96-.67-.14-1.35-.18-1.69.41z"/><path d="M35.92 45.8c-.18-.14.13-.04-.38-.24-.52-.19-1.18-.16-1.68.01 0 .5.26.59.85.7.59.11.96-.08 1.22-.47z" style="fill:#d8cdc6"/><path class="fil11" d="M46.98 53.59c.4.03 1.32-.53 1.57-.91-.72-.77-1.78-.38-1.57.91z"/><path d="M42.29 54.68c.49.03 1.16-.07 1.53-.34-.17-.62-.37-.69-1.13-.61-.25.26-.45.38-.4.95z" style="fill:#e0d6cf"/><path class="fil11" d="M42.11 44.27c.48.22 1.13.22 1.61.01l.02-.78c-.63-.08-1.45.28-1.63.77zM44.75 54.02c.33.1.67.14 1.02.01.47-.18.38-.27.29-.79-.51-.1-.98-.02-1.39.14l.07.64zM49.19 52.44c.33-.08.6-.18.86-.33.44-.26.48-.28.57-.66-.98-.38-1.4-.02-1.42.99zM39.84 54.02c-.02.99.81.94 1.3.46-.07-.8-.61-.76-1.3-.46zM38.65 54.34c-.03-.71-.41-.82-1.02-.41l.02.41c.44.32.56.33 1.01 0z"/></g></g></svg>