<svg xmlns="http://www.w3.org/2000/svg" xml:space="preserve" width="187.223" height="163.392" style="shape-rendering:geometricPrecision;text-rendering:geometricPrecision;image-rendering:optimizeQuality;fill-rule:evenodd;clip-rule:evenodd" viewBox="0 0 93.24 81.38"><defs><style>.fil1{fill:#fdfdfd}</style></defs><g id="Camada_x0020_1"><g id="_2051437968480"><path d="M20.67 68.18c-.89.28-1.91.18-2.84.27-1.4.13-1.98.53-3.79.09a2.3 2.3 0 0 1-1.74-2.53c.37-2.85 1.32-9.69 1.3-12.53-1.77.07-4.27-.34-3.98-2.72.64-5.28 2.39-3.23 6.07-5.84.48-.34.95-.72 1.44-1.07l-1.04-1.19c-1.57-.14-3.53-1.86-4.87-2.72-2.94-1.88-5.71-4.09-8.76-5.79-1.23-.68-1.94-1.12-2.37-2.6-.43-1.49.68-2.95 2.23-2.94 4.09.03 9.97-.15 13.68.32.08-.52.17-1.03.26-1.55 1.64-9.51 16.54-10.92 20.41-4.68.41-3.74.96-2.64 1.32-3.67l6.08-17.5c.88-2.53 4.52-1.64 5.03.69.77 2.68 6.04 15.81 5.97 17.11.21.13.42.28.61.43.52-2.61 3.11-2.58 5.72-2.69l14.61-1.01c1.31-.12 2.45.86 2.52 2.17.1 1.94-2.25 8.95-2.95 11.2l15.36.1c1.84.01 2.93 2.06 1.9 3.59-.88 1.3-2.33 1.9-3.73 2.84-2.14 1.44-5.36 3.7-7.53 4.89-.33.18-.6.35-.87.6L78.6 61.6c-.1.96-.75 1.73-1.68 1.98-1.02.28-3.44.54-5.16.56l5.16 14.16c.76 2.1-1.52 4.46-4.97 2.07L51.48 66.66c-.33-.22-.59-.51-.77-.84-3.15.18-6.26.69-9.36.88-.14.63-.55 1.19-1.16 1.52L22.33 79.8c-.56.91-1.72 1.36-2.82.94-.48-.15-1.2-.07-1.85-1.05-.37-.56-.48-1.17-.32-1.82.86-3.51 2.33-6.36 3.31-9.69z" style="fill:#000"/><path class="fil1" d="M58.88 42.09 56.6 63c1.36.09 3.97-.12 5.29-.32 1.2-5.41.42-8.41 1.31-12.09 1.71 1.32.78 8.02 1.47 11.83l3.57-.37c1.32-.77 1.95-10.58 3.56-12.07.31.84-.91 10.04-1.06 11.83.94.16 4.66-.19 5.57-.43l2.19-21-8.18.69c-.98 2.14-1.22 7.67-2.68 8.98-.51-.88-.2-3.38-.31-4.48l-.56-4.24-7.91.79zM47.8 24.24c.74 1.94-.07 5.34-.39 7.63-.35 2.56.2 6.02-2.59 6.24-1.19-.28.17-5.08.27-7.63.05-1.42.5-2.8.58-4.22.1-1.64-.12-2.82 2.13-2.02zm-8.72-2.38-2.21 20.17c1.69.24 10.25-.45 12.3-.91 5.36-1.2 4.61-4.28 5.5-10.09.25-1.65.65-5.46.63-7.01-.04-4.45-6.22-3.76-10.54-3.42l-4.59.32c-.86.21-.92-.13-1.1.94zM18.53 27.78c-.51 2.94-2.12 12.02-.25 13.99 1.72 1.82 5.06 2.31 7.87 1.12 1.34-.57 1.1-.8 2.09-1.38 1.26 1.4.59 1.2 3.44.95 1.04-.09 1.28.1 1.88-.56l1.2-10.84c-2.01-.01-3.47.36-5.27.44-3.18.15-3.04-.79-3.47 2.9l1.65.5c-.18 1.03-.65 6.38-2.62 4.93-1.43-1.06.59-12.04.93-14.01.24-1.4 1.73-1.59 2.29-.16.38.96-.1 2.47-.13 3.63 2.04.2 4.27-.58 6.62-.3 1.15-2.21 1.32-6.58-4.53-7.59-3.73-.64-10.7.66-11.69 6.4zM69.04 18.92c-1.42 3.56-2.01 9.14-3.08 13.18-.03 0-.07-.05-.08-.03l-.35-.09c-.39-.18-.15.59-.31-.31l.04-12.26c-1.1-.18-6.53-.08-7.17.41-.71.55.6 12.01.72 13.58.17 2.25.15 4.95.54 7.17l8.02-.58c2.26-.04 2.53.17 3.23-1.44l2.68-9.4c.57-1.86 3.04-9.48 2.97-10.8l-7.2.56zM30.08 56.96c.2-1.16 1.11-1.64 2.13-1.77.42.88.61 3 .39 4.27-.85 4.94-2.64 2.55-2.8 1.95-.03-.13.24-4.28.27-4.46zm1.66-4.81c-1-.66-1.69-5.55 1.35-5.39.58 1.25.84 4.55-1.35 5.39zm5.01.64c.8-1.71 1.66-.87 2.24-2.86 1.61-5.53-2.23-6.89-6.91-6.18-7.46 1.12-7.63 6.75-6.35 8.66l1.03 1.32c-1.17 1.1-1.87 1.2-2.34 3.43-1.15 5.4-.37 9.52 6.69 8.43 5.92-.92 7.29-3.03 7.42-9.3.05-2.53-.41-2.21-1.78-3.5zM48.5 48.81l.72-.37c-.26 3.18-.42 4.96-.11 7.71-.93.15-1.36.46-2.36.32l1.26-7.36.49-.3zm.27 11.3c-.1 3.64-.36 3.61 1.32 3.45 1.38-.13 3.23.03 4.95-.53.09-2.75-1.28-15.44-1.3-20.54-1.4-.23-3.28.15-4.67.29-3.21.31-1.13-.25-4.66.74-1.2 4.59-4.73 16.92-5.2 20.83 1.22.28 4.8-.25 6.17-.38.32-1.22.72-3.26 1.02-3.99l2.38.14zM11.91 51.04c4.03.98 5.16-4 2.68 15.26 1.29.31 1.78-.02 3.03-.14 3.13-.29 2.58.57 3.07-2.83.82-5.65 2.13-13.37 1.97-18.61-3.42.55-1.57-.82-5.64 2.07-4.39 3.11-4.67.51-5.12 4.24z"/><path d="m40.17 19.78 12.6-.59-5.71-15.85c-.47-1.21.1-.55-.82-1.06l-6.08 17.5zM25.83 45.01c1.5-.85 1.58-.76 2.16-1.55-1.31.1-1.13.26-2.05.88l-2.09.57c.19.76.4.78.84 1.23.76-.51.72-.21 1.15-1.12zM2.3 30.91c.22.77.61.86 1.28 1.23 2.48 1.38 11.59 7.97 12.68 8.23-.48-4.33.72-7.1.55-8.93-1.16-.59-8.51-.34-10.59-.33-1.44.01-2.48-.19-3.93-.2zm33.66.46c-.39 2.25-.2 2.92-.8 6.36-.28 1.61-1.04 3.94.03 4.64.99-.82.37-1.84.73-3.91.16-.94.39-1.95.51-2.89.17-1.23-.04-1.38.13-2.61.15-1.08.39-2.14.53-3.24-.52.26-.16-.2-.68.54-.19.27-.4.77-.46 1.1zm2.45 12c1.56 1.89 1.96 1.37 2.07 4.47.1 2.94-.74 3.15-1.97 4.95 1.17 1.7.63 1.28 1.28 3.07 1.15-1.5 1.16-4.24 1.64-6.41.45-2.06 1.43-4.27 1.78-6.34-.82-.43-3.88-.07-4.8.26zm16.26-1.52.9 11.99c.03 1.81-.18 2.02.69 3.38.45-1.78.18-5.14.45-7.2.17-1.3.57-2.72.66-4.01.34-4.67 1.03-5.6.26-10.79-.29-1.97.18-4.65-1.47-6.05-.44 2.55-.54 4.82-.89 7-.57 3.51-1.1 3.27-2.66 5.01l2.05.67zm13.69.6c.14-.13.2.4.37-.47.37-1.8.14-.25-.13-.95-.78.43-.84.26-.24 1.42zm3.44-4.32-.2 1.61 5.83-.55c1-.05 1.22-.43 1.63.66l8.77-5.8c1.54-1.11 2.49-1.31 3.1-2.21l-14.52-.1c-3.38.05-2.03-.45-2.72.5-.07.09-1.85 5.64-1.89 5.9zm.2 39.42c1.11.71 1.36 1.26 2.76 1.54l-5.84-15.81c-1.15-.09-2.08.09-3.15.27-1.76.28-1.07-.1-2.42-.62-2.7 2.26-7.94.32-10.59 1.8L72 77.54zm-52.41.86c1.48.23.18.39 1.32-.43l18.2-11.79c-.41-1.25-.3-.04-1.4-2.33-1.06.63-1.06 1.12-2.54 1.78-3.62 1.6-6.69 1.53-10.27.13-1.55-.61-1.25 1.38-2.95 5.79-.74 1.93-1.89 4.91-2.37 6.86z" style="fill:red"/></g></g></svg>