<svg xmlns="http://www.w3.org/2000/svg" xml:space="preserve" width="249.852" height="117.038" style="shape-rendering:geometricPrecision;text-rendering:geometricPrecision;image-rendering:optimizeQuality;fill-rule:evenodd;clip-rule:evenodd" viewBox="0 0 165.33 77.45"><defs><style>.fil4{fill:#92bc37}.fil7{fill:#fafafa}.fil2{fill:#fdfdfd}.fil1{fill:#fe8042}.fil6{fill:#fee217}.fil3{fill:#ffb11c}</style></defs><g id="Camada_x0020_1"><g id="_2087274976944"><path d="m57.33 15.55-.28 2.57c-.45-1.21-.68-1.83-.65-3.32.11-2.24-.11-3.44-2.59-3.56l-12.88-.01c-1.83.21-1.81 2.89-2.72 3.91.17-4.19-.08-3.88-4.4-3.92-2.81-.03-5.63.01-8.45.04-1.89.02-2.26.87-3.27.43-1.64-.72-1.51-.63-3.6-.61-12.58.14-11.11-.48-11.8 4.99-.3 2.37-.67 4.81-.99 7.14-.34 2.45-.34 5.05-.67 7.31-.34 2.37-.94 4.62-1.14 7.06-.17 2.02.32 2.17.45 3.52.09.93-3.49 23.42-3.7 24.69-1.15 6.97-2.04 6.51 9.42 6.18 2.27-.07 5.79-.13 7.8-.59 5.55-1.28 3.66-2.26 5.52-2.96 1.9 1.31.25 1.22 4.16 2.76 4.35 1.71 7.79.99 11.99-.5 1.53-.55 2.87-2.11 4.27-2.97 2.82 1.75 3.44 5.17 12.06 3.3 3.28-.71 35.25.14 38.32-.9 2.67-.91.41.15 4.68.1 3.88-.05 7.16-.46 10.27.88 2.62 1.14 1.29.98 2.55 2.81 1.68 2.45 9.8 4.21 13.49 3.38 2.75-.91 4.13-1.04 5.27-4.68.64-2.05 1.16-1.29 2.46-2.45 5.79-5.16 7.63-15.25 8.59-16.68 1.93 1.15 1.8 1.5 3.94 2.71 4.49 2.55 5.49-4.93 2.39-9.97-1.49-2.43-4.35-3.96-4.68-5.4-1.04-4.58 2.69-4.1 6.43-7.11 1.36-1.1 7.82-3.98 8.99-4.7 6.05-3.71 9.48-11.96 4.03-11.28-1.08.13-3.56 1.52-4.79 2.01l-8.1 2.4c-.99.31-1.89.29-2.89.64-1.23.43-4.09 1.9-5.06 1.84-.25-.46-.48-1.1-.8-1.55-.48-.69-.74-.52-1.05-1.31-.23-.59-.21-1.34-.41-1.9-.35-1.01-.59-.61-.64-1.86-.13-3.64-.6-2.58-.98-3.69-.21-.63-.11-1.18-.4-1.92-.23-.58-.67-1.19-.87-1.68-.54-1.33-.17-2.43-1.27-3.41-1.22-1.08-1.61-.86-2.04-2.85-.5-2.33-2.82-2.22-4.33-3.05-.59-.33-.98-.84-1.54-1.06-1.72-.68-7.98-.2-10.11 1.63-.81.7-.28.51-1.39.99-3 1.29-2.89 2.95-3.63 3.67-.5.49-.8.43-1.32 1.06-1.62 1.97-.71 2.78-2.8 4.45-1.49 1.2-1.3 3.76-2.88 4.58-1.14-1.55.14-4.15-1.92-5.07-1.71-.77-11.68-.25-14.06-.11-2.71.16-4.56-.21-7.1-.25-5.68-.08-16.36-.21-22-.04-2.6.08-3.01 1.94-2.89 4.32z" style="fill:#100f0f"/><path class="fil1" d="M95.39 58.06c.12-1.17 2.94-11.12 3.38-11.58l-.63 11.53-2.75.05zM78.22 44.47c1.86-.31 2.31 1.13 2.02 2.84-.21 1.27-.34 2.81-1.37 3.36-2.44 1.29-1.74-1.11-1.47-2.44.22-1.08.42-2.78.81-3.76zM94.64 63.5c.37-.42-.37-.16.66-.36h.9c.59.01.95.01 1.53.09.16.73.12 1.66-.22 2.32l-.05 2.93 8.45-.17c.49-1.86.07-11.46.05-14.1-.03-4.38.14-9.37-.16-13.68-1.3.02-2.83.44-4.27-.12l-.32-.18c-1.68-.1-2.55-1.02-3.67-.97-1.17.05-1.89 1.18-2.68 1.76-.98-.1-1.09-.46-1.96-.71l-3.64 12.81c-.7 1.99-1.45 4.27-2.01 6.25-.33 1.17-.47 2.23-.85 3.38-.24.72-.64 2.37-1.13 2.94.07-4.28 2.39-8.31.32-10.7-.92-1.07-1.65-.96-2.45-1.62 1.5-.73 1.95-.09 3.22-1.52 1.68-1.88 2.68-7.31.77-10.62-1.18-2.06-5.34-1.82-7.6-1.82-1.91 0-7.57-.14-9.08.21-.41.72-2.44 13.03-2.53 14.59-.15 2.6-.68 4.92-1.07 7.49-.33 2.12-1.11 5.29-1.13 7.44l8.26-.23c1.1-1.06 1.65-11.12 2.26-13.21 4.88-1.08.83 6.69.56 13.24l16.42-.44c.54-1 1.03-3.67 1.4-5z"/><path class="fil2" d="M25.97 39.14c.77.4 3.62.17 4.74.17 2.57 0 2.59.5 2.83-1.78.41-3.94 2.86-23.57 2.56-24.85-1.34-.16-10.43-.23-11.08.09l-.91 2.96c-.51 2.25-2.32 6.97-2.59 8.57-.48-2.46-.25-10.13-1.02-11.58-1.63-.2-4.05-.05-5.77-.04-7.42.04-5.09-2.37-7.14 13.6-.21 1.62-1.76 12.76-1.65 13.26 8.1.21 7.65.45 7.95-2.14l.87-6.26c.26-1.41.59-2.66.74-4.2.11-1.19-.01-3.08.35-4.14l.22.99c.01.31-.01.74-.01 1.06l.31 6.15c.7 8.78-.71 8.53 3.48 8.42 3.95-.1 2.37-.59 4.94-8.45l1.86-5.98c.21-.63.23-1.52.5-2.03.1 2.83-.87 11.05-1.36 14.57-.29 2.11-.09 1.4.19 1.64zM12.6 65.05c-.18.1.2.34-1.19.23-.04-.69-.11-.6.24-1.1-.06-.85 2.66-18.19 2.85-18.51 1.28-.18 1.97-.22 2.14 1.07l-1 8.57c-.32 1.83-.59 3.63-.9 5.39-.29 1.67-.44 4.25-2.14 4.34zM2.23 70.52c4.23.05 9.41.03 13.53-.38 2.42-.24 3.3-.79 4.87-1.83 1.16-.77 1.69-2.85 2.04-4.53.89-4.24 1.12-7.35 1.7-11.38.49-3.46 1.96-7.98-.54-10.3-2.2-2.03-8.79-1.57-12.22-1.52-5.46.08-4.95-.24-5.23 1.63-.29 1.89-.58 3.7-.92 5.6-.34 1.92-.4 3.83-.73 5.76-.78 4.51-2.32 13.05-2.49 16.93zM35.88 45.08c3.67-3.05.92 8.41.75 9.52-.28 1.83-.61 3.67-.94 5.57-.25 1.42-.49 4.84-1.14 5.16-2.76 1.39-1.81-2.68-1.64-3.83l1.88-11.16c.28-1.58.01-4.37 1.08-5.26zm10.01 4.75c.23-1.32.37-4.86.01-6.17-.28-1.02-2.37-3.06-3.27-3.37-4.8-1.67-11.73-.84-14.65 4.06-1.73 2.9-2.86 12.4-3.39 16.02-.55 3.7-.72 7.38 3.25 9.25 3.57 1.68 8.01 1.02 11.06-.62 1.96-1.06 2.31-1.58 3.58-3.11 1.57-1.9 2.93-13.31 3.41-16.05z"/><path class="fil1" d="M115.14 63.14c-.24-1.47 1.25-8.74 1.6-10.75.29-1.71.41-3.6.69-5.33.33-2.03.01-4.31 2.38-4.13 1.07 1.5.53 2.02-.06 5.43l-1.73 11.71c-.36 2.06-.22 4.68-2.87 3.07zm13.37-16.85c.61-3.69-.58-7.04-4.78-8.12-5.13-1.32-11.52.58-13.8 5.55-.88 1.91-1.06 3.04-1.23 5.28-.26 3.42-1.31 7.55-1.74 11.06-.26 2.07-.37 4.16.77 5.63 1.05 1.36 1.68 2.18 4.01 2.69 2.48.54 6.91.37 8.97-.55 1.15-.51 1.24-.72 1.96-1.29.82-.65 1.2-.71 1.88-1.57 2.52-3.18 3.31-14.79 3.96-18.68zM55.81 57.8l1.58.36c-.02.33.08.11-.07.61-.13.43-.09.19-.29.41.04.52-.22 3.31-.34 3.79-.4 1.53-.85 1.88-2.73 1.69-.29-3.1 1.44-12.94 2.21-16.8.21-1.07.46-4.71 2.47-3.42 1.04 1.18-.2 4.51-.25 6.14l8.28-.31c.03-.05.07-.12.08-.15l.27-.89c1.72-9.63-3.99-8.99-5.96-10 1.25-.08 4.03.29 4.85-.31-2.56.42-6.06.11-8.65.01-.48.54-4.16 1.07-5.44 1.96-.75.53-1.35 1.16-1.97 1.71-1.07.96-.9.86-1.36 2.27-1.2 3.63-1.88 7.86-2.42 11.88-.16 1.16-.1 2.1-.29 3.27-.47 2.79-1.04 6.6 1.56 8.39 6.01 4.13 9.22-.33 10.9-.71.58 1.52-.41 1.66 1.99 1.59 1.19-.03 2.34.04 3.51-.15.64-1.16 1.21-6.1 1.31-7.85.16-2.7 1.04-5.29 1.22-7.98-1.52-.17-3.37-.06-4.92-.04-4.75.06-5.31-.78-5.53 4.53z"/><path class="fil2" d="M44.93 29.14c-.01-1.3.87-3.55 1.08-5.14.17-1.27.78-3.92 1.58-4.57l.01 7.75.23 1.4c0 .51 0 .67-.1 1.23l-3-.04c-.07-1.07.01-.36.2-.62zM34.21 39.28c10.3.15 8.89.35 9.38-1.92.21-.98.45-1.91.58-2.86h3.26l.05 4.66 8.82-.06c.5-1.06-2.02-22.27-2.16-26.4l-12.8.02c-.85 4.14-3.36 11.6-3.6 13.33-.22 1.64-1.32 4.8-1.89 6.55l-1.66 6.68z"/><path class="fil3" d="M132.46 19.72c.3-.33-.37-.19.81-.4 3.44-.62 3.33 2.4 2.37 3.13-1.87 1.42-4.82-.91-3.18-2.72zm-21.25 2.82-.19-.51.54.14c.67 1.78.92 3.34 2.55 3.74l.19-.03c-.47-1.31-.91-3.4-.07-4.52.24.65.06 1.82.09 2.64.03.81-.03.66.31 1.25l.69.86.13.13c1.24.4 3.51-.62 4.39-1.15l.82-.29c.98-.67 1.39-1.03 2.18-1.63 1.18-.89 7.1-4.48 8.39-1.68-2.23.69-4.59-.49-6.11 2.95-1.43 3.24-3.89 3.01-6.38 2.57-2.39-.43-1.5.95-5.06-.31-1.67-.15-2.68-.43-3.94-1.26l-.89-.76c-.72-.86-.22-1.82-.8-2.67-.52-.75-1.32-1.1-1.97-1.69 1.67.01 4.04 3.55 5.56 4.19l-.45-1.97zm-5.13-.39-.78.03c-.34-.37-.12.05-.13-.49l.57-.05c.37.28.25-.4.33.51zm-1.64-1.49c.02.39.01 1.05.07 1.44.05.29.02.21.14.45.18.38.12.17.32.4.66.83.55-.17 1.01 1.05.38 1 0 .61.89 1.22.42.28.77.57 1.24.92.53.39.7.64 1.2.97 1.45.94 4.89 1.9 6.85 1.98 8.57.36 11.74-3.96 13.34-4.06.89-.96 2.3-1.94 4.23-2.06 1.79-.11 3.54.91 4.14 1.98-4.29-1.3-3.88 1.14-3.42 4.55l.27 1.45c1.06-.33 1.05-.49 1.71-.86.86-.48 1.02-.29 1.2-1.16l-1.11-1.6c.2-.85.16-.34.48-1.08l-1.25.03.16-.63c1.59-.05 1.79 1.64 3.5-.41-.35-1.5-1.14-1.82-2.31-2.53.12-.59.42-1.33.29-2-.18-.88-.48-.61-.92-1.43-.64-1.21.75-2.65-.65-3.62.19.76.35 1.64.05 2.27-1.47.43-4.01.02-4.1-1.48-.14-2.1 2.8-1.52 4.17-.82-.38-1.04-.47-.42-.53-1.67-.04-.69.14-.98-.27-1.56-.6-.86-1.62-1.01-1.33-2.26.19-.8.44-.31-.1-1.16-1.78-2.79-1.97-1.42-2.59-3.2-.42-1.21-.25-1.82-1.61-2.26-2.88-.94-1.22-.52-2.62-1.3-.29-.16-6.42-.72-7.28.4-.49.64-.3.77-1.43 2.06 1.43-.07 1.9 1.19 1.76 2.47-1.52 1.1-3.07.74-4.6-.08v-1l-.48.86c-1.1 2.96-2.87-.5-3.2 5.33-2.65 1.51-2.13.39-2.64 3.38-.2 1.16-.52 1.15-1.23 1.76-1.94 1.68.64 1.51-3.29 1.98l-.1 1.28zm19.97-.6c.35-.28-.13-.13.41-.2l-.41.2zm-.24-3.32c1.35-.12 1.4.14 2.52.4l-.22-.53c-.02-.06-.04-.12-.05-.18-.13-.72.16-1.17 1.03-1.45 2.55-.82 3.44.41 2.87 2.7-.95.37-2.25.67-3.07-.12l-.18-.26c-.43 1.39-.97-1.09-3.64.8-.49.34-.81.6-1.09 1.05-.96 1.53-3.61 4.92-5.42 5.26.21-.59 1.3-1.11 1.81-1.55 1.03-.89.62-.79 1.36-1.84.92-1.32 1.85-2.5 2.68-3.79-1.73.2-3.23.3-3.78-1.35 1.1-1.92 6.57-1.43 5.18.88zm-8.59-.03c-1.47.2-3.38.47-4.5-.24-2.3-1.47-.09-5.23 4.14-3.06 1.27.65 1.17 1.37.36 3.3zm12.12-5.91c2.99-1.53 4.87 2.34 2.45 3.37-2.91 1.24-5-2.06-2.45-3.37zm-4.64-1.05c1.85 0 2.88.55 2.27 2.37-.43 1.27-1.1 1.95-2.84 1.72-3.73-.49-3.93-4.09.56-4.09zm-5.11 2.5c-2.02.18-3.01-.13-4.18-1.03-.62-.48-1.15-.82.15-2.28.34-.38-.01-.23.65-.42 1.21-.35 3.49-.02 4.28.66 1.01.88-.45 2.48-.9 3.07zm9.14-2.65c-.61-2.18-.18-3.41 2.25-3.03 2.13.33 1.99 1.75 1.04 3.19-1.14.18-2.23.31-3.28-.16zm-1.76-4.01c1.16 4.91-2.89 3.84-3.44 3.44-.9-.66-.9-4.38 3.44-3.44z"/><path class="fil2" d="M94.04 27.49c.22-1.78 1.1-6.15 1.67-7.75.57.66.36.72.42 2.59.02.83.11 1.45.14 2.27.07 1.57.25 3.38.18 4.91l-2.75.05.34-2.08zm-3.2 11.24c.3-.44.46-.73.8-1.1 1.78-1.92.99-2.1 1.77-3.32 6.73-.68 9.07 2.32 11.64.72.23-1.79-1.04-8.86-1.36-11.18-.41-3.03-.51-8.42-1.36-11.03-1.45-.15-11.96-.19-12.43.23-.41.38-.21.49-.5 1.62-1.01 3.93-5.94 22.43-5.97 24.24l7.41-.17zM57.26 38.92c2.59.1 6.09.41 8.65-.01.62-.72 1.07-9.11 1.36-10.83.85-.21 1.84-.11 2.74-.09l1.96-.05c1.24-.28 1.14-3.78.99-4.79-1.48-.49-3.49-.03-5.14-.27l.18-4.73c1.38-.15 5.12.29 5.93-.28.5-.61.64-4.06.46-5.05l-14.61-.09c-.33 4.58-.71 8.69-1.2 13.24-.46 4.17-1.14 8.81-1.31 12.96z"/><path class="fil4" d="M137.66 28.93c-.18.87-.34.68-1.2 1.16-.66.37-.65.53-1.71.86l-.27-1.45c.07 2.22.06 2.08-1.08 3.76-.86 1.27-1.33 1.08-2.67 1.88l-.24 1.37c1.14-.36 2.16-.91 3.29-1.14-1.01 3.12-3.72 2.54-7.25 3l.31.21c.6-.33 2.05-.28 2.85-.19-.1.37-.17.72-.3 1.11-.28.87-.32.73-.63.97 1.33 2.23 1.06 3.61.96 6.32l4.83-4.93c1.6-1.51 3.52-3.39 5.84-4.37.69-.5.74-.72 1.34-1.18 1.48-1.15 6.35-3.94 7.81-4.97 1.04-.74 5.4-2.77 6.8-3.41 3.5-1.6 6.71-6.04 6.6-8.24-1.95.31-4.1 1.75-6.12 2.44-2.01.69-4.74 1.13-6.96 1.79-2.52.75-4.33 1.24-6.38 2.35-.9.49-5.07 2.65-5.82 2.67z"/><path class="fil2" d="M73.66 38.88c1.23.24 3.43.08 4.78.07 2.45-.02 3.89.35 4.13-.6l1.94-25.51-8.51.13c-.3.99-2.45 25.31-2.34 25.91z"/><path d="m129.72 46.8-.73 4.37c-.24 1.5-.46 2.86-.75 4.37-.29 1.54-.35 3-.61 4.37-.33 1.77-.84 2.66-1.25 3.97.82.79.81 3.98.59 5.28-.29 1.73-1.08 2.99-3.01 3.07-4.13.17-7.22-1.02-10.98-1.56.68 1.38-.05 2.23 1.72 3.07 3.17 1.5 8.03 2.99 11.34 1.39 2.9-1.4-.01-1.96 3.79-5.39.37-.34.86-.84 1.23-1.15.97-.78 2.18-1.16 3.09-3.72-1.09.35-1.57 1.14-2.73 1.4-3.76.85-2.47-5.93-1.8-8.01 2.1-6.54 3.07-5.26 4.79-10.51 1.83-.25 1.26.21 2.39-1.07.52-.59 1.08-1.18 1.3-2.14 2.01.22.86-.14 2.26-.5.35 1.17-.03 2.67-.28 3.82-.64 2.89.22 2.14-.25 3 2.89-.17 5.31 3.11 6.97 3.76 1.16-9.82-4.48-10.49-5.71-11.92-.5-.57-.89-4.36-.69-5.22-2.32.98-4.25 2.86-5.84 4.37l-4.83 4.93z" style="fill:#3b7a30"/><path class="fil4" d="M134.16 64.87c1.27-.87 2.44-4.81 3.17-6.67.64-1.62 1.73-6.49 2.51-7.33.47-.86-.39-.11.25-3 .25-1.15.63-2.65.28-3.82-1.4.36-.25.72-2.26.5-.22.95-.78 1.55-1.3 2.14-1.13 1.28-.56.82-2.39 1.07-1.71 5.25-2.68 3.97-4.79 10.51-.67 2.09-1.96 8.86 1.8 8.01 1.16-.26 1.64-1.05 2.73-1.4z"/><path class="fil1" d="M102.12 39.99c1.72.2 1.99.1 3.63-.14 1.42-1.26 5.8-3.14.45-4.89-1.14.7-1.4 1.64-3.64 1.18-1.7-.34-5.29-2.28-8.32-.04-.72.53-1.96 1.62-2.26 2.47.53.67 1.54 1.42 2.67 1.68 1.02-.72 1.57-2.01 3.6-1.53 1.3.31 2.48 1.06 3.87 1.26z"/><path class="fil3" d="M109.12 35.76c.42.62.76.82.42 1.77.77-.4.08-.23.92-.23.22 1.76-.51 2.37-1.47 3.06-.75.54-.82.8-1.95.84l1.19 1.51.85-.03c.72-.69 1.07-1.45 1.84-2.17.63-.6 1.55-1.14 2.18-1.77-.98-.25-.32-1.25.88-1.38.56-.06 1.22-.03 1.78-.07 1.1-.08.88.04 1.11-.59-1.42-.79-2.49.13-3.8-1.25-.33-1.83.55-2.88 2.06-2.5.75-.5 1.29.01 1.92.46 2.02 1.43 2.84 1.67 5.04 2.75 2.06 1.01 6.25 1.77 8.42.35l.24-1.37c-2.62.3-3.05.74-5.98.23-2.23-.39-3.44-.39-5.08-1.53-5.11-3.53-6.03-2.47-10.42-2.73.56-.41.98-.19 1.5-.47-1 .18-1.45 0-2.05-.3.29 1.33-.02 1.02 1.15 1.67.72.4 1.19.5 1.54 1.15 0 1.01.13 1.51-.55 2.08-.48.41-1.04.64-1.74.53z"/><path class="fil4" d="M112.99 70.66c3.76.53 6.85 1.73 10.98 1.56 1.93-.08 2.72-1.34 3.01-3.07.22-1.3.23-4.48-.59-5.28-1.96 2.9-3.71 4.65-8.21 5.5-6.9 1.3-9.77-1.95-11.16-2.35.12 1.29.04.93 1.14 1.4.62.26.92.55 1.53.85.96.48 2.23 1.02 3.3 1.39z"/><path class="fil2" d="m124.02 31.08-3.4.08c-.34.54 0 2.02.37 2.49.76.96 3.83 1.11 5.2 1.33 1.28.2 2.34-.03 3.3-.27.23-.38.17-.16.19-.68-.02-.92-.73-2.99-1.29-3.8l-3.57.65c-.12 1.2.4 1.2.2 2.47-.32-.67-.32-1.84-1-2.27zM127.59 27.63l.22.98c-.26-.19-.25.29-.41-.38-.2-.87-.34-.39.18-.6zm1.93-2.6c-.48.46-.83.53-1.4.99-.45.37-.67.86-1.19 1.17l-3.22 1.17c-.03.88.3 1.28.76 1.78 1.18.37 2.14-.24 3.38-.2.22-.76.06-.37-.07-1.19.81.75 0 .63 1.28.85.9-.6 1.95-.81 2.73-1.65-.4-.84-1.16-1.22-1.31-2.26.75.76 1.01 1.84 2.36 1.85.54-.6 1.01-2.51.42-3.08-.15-.13.22-.48-1.69-.01-1.24.31-.84.05-1.31.98-.4-.59.33-.26-.73-.41z"/><path class="fil6" d="M113.1 38.74c1.07-.15.91-.49 1.9-.85.66-.24 1.42-.27 2.16-.47 1.85-.48 3.11-.21 4.98-.3-.49-.62-.97-.72-1.69-1.1-2.35-1.26-3.07-2.69-5.34-3.07-1.51-.39-2.39.67-2.06 2.5 1.32 1.38 2.38.46 3.8 1.25-.22.63 0 .51-1.11.59-.56.04-1.22.01-1.78.07-1.2.13-1.86 1.12-.88 1.38zM108.25 32.33c.47.17 1.02.24 1.68.42-.01.01.28.86-1.51.01-.33-.16-.26-.14-.46-.28l-2.07-1.26c.22 2.88-.21 2.66 1.73 3.74l1.5.82c.7.12 1.25-.12 1.74-.53.68-.57.55-1.07.55-2.08-.35-.65-.82-.76-1.54-1.15-1.17-.64-.86-.34-1.15-1.67l-.32-.41c-.77-.11-1.17-.63-1.62-1.06-.81-.78-.45-1-1.37-1.44.1 3.04 1.23 3.49 2.85 4.9zM115.59 16.72c.81-1.93.91-2.65-.36-3.3-4.23-2.17-6.44 1.59-4.14 3.06 1.12.71 3.04.45 4.5.24zM123.07 9.76c-4.49 0-4.29 3.6-.56 4.09 1.74.23 2.41-.45 2.84-1.72.61-1.82-.42-2.37-2.27-2.37z"/><path class="fil2" d="M129.5 29.73c-.05.04-.11.1-.13.13l-.45.39 1.02 3.04c.25.36.03-.37.27.48.05.17.04.3.05.48l.81-.24c2.51.11 3.47-5.17 2.03-6.2-.83 1.01-.12.79.1 1.71-1.56-1.85-1.74.27-3.69.22z"/><path class="fil6" d="M117.96 12.26c.45-.59 1.91-2.19.9-3.07-.78-.68-3.07-1.01-4.28-.66-.66.2-.31.04-.65.42-1.3 1.46-.77 1.8-.15 2.28 1.17.9 2.16 1.21 4.18 1.03zM127.71 10.81c-2.55 1.3-.46 4.6 2.45 3.37 2.42-1.03.53-4.89-2.45-3.37z"/><path class="fil7" d="M106.94 27.54c.92.6.99.27 1.66.66.38.22 1.88 1.83 4.07 1.44l.16.39c.03 0 3.78.3 3.79.3 1.11.32 1.56.25 2.71.15l-.02-.86c-2.81-.24-5.42.15-7.76-1.07-2.61-1.36-2.84-1.06-3.27-1.29-.74-.39-.92-1.74-2.2-1.95-.06 1.25-.32 1.98.86 2.23z"/><path class="fil6" d="M125.34 5.61c-4.34-.95-4.35 2.78-3.44 3.44.55.4 4.6 1.48 3.44-3.44zM132.46 19.72c-1.64 1.81 1.31 4.14 3.18 2.72.96-.73 1.07-3.75-2.37-3.13-1.18.21-.51.08-.81.4zM115.39 6.07v1c1.53.82 3.08 1.18 4.6.09.14-1.27-.33-2.53-1.76-2.47-1.55-.29-2.69.25-2.83 1.38z"/><path d="m109.08 42.69-.85.03-1.19-1.51-.32-.06.16 10.56c.63-.8 1.59-7.46 2.19-9.02z" style="fill:#94b937"/><path class="fil6" d="M127.1 9.62c1.06.46 2.15.33 3.28.16.96-1.44 1.09-2.86-1.04-3.19-2.43-.38-2.86.86-2.25 3.03zM122.79 17.21c.8-.02.69-.11 1.39-.47 1.4-2.31-4.07-2.8-5.18-.88.55 1.65 2.05 1.54 3.78 1.35z"/><path d="M116.41 62.32c.24-.18.15-.02.33-.35.22-.41.03.19.18-.48.08-.37.07-.86.07-1.23.01-.95.09-1.42.29-2.37.41-1.98 2.41-12.78 2.03-13.44-.49.26-.36-.15-.67 1.81-.44 2.76-2.77 15.18-2.22 16.06z" style="fill:#15643d"/><path class="fil6" d="m126.7 17.14.38.15.18.26c.81.79 2.11.48 3.07.12.57-2.29-.32-3.52-2.87-2.7-.87.28-1.15.73-1.03 1.45.01.06.03.12.05.18l.22.53zM135.85 15.68l.12-.02c-1.38-.7-4.31-1.28-4.17.82.1 1.49 2.63 1.9 4.1 1.48.3-.63.14-1.51-.05-2.27z"/><path d="m120.67 24.8-.82.29.46.01c-1.32.6-1.35.73-1.52 1.44 2.81.47 4.8.31 5.11-2.94-1.65-.22-2.32 1.63-3.23 1.2z" style="fill:#f4232d"/><path class="fil6" d="m106.73 41.15.32.06c1.13-.04 1.19-.3 1.95-.84.96-.7 1.69-1.31 1.47-3.06-.84.01-.15-.17-.92.23-.76.29-.75.91-1.5 1.53-.85.71-1.3.57-1.32 2.08z"/><path class="fil2" d="M119.88 29.63c.24.37.07.07.22.56l.08.49c1.1.06 2.73.14 3.62-.41l-.56-1.33c-.96-.12-2.87.19-3.37.68z"/><path class="fil7" d="m108.39 29.94.32.41c.59.3 1.05.49 2.05.3l1.77-.13-.08-.44c-1.16-.2-1.79-.41-2.9-.67-1.03-.24-1.39-.52-2.01-1.24l-.59.18c.15.48 1.05 1.15 1.45 1.59z"/><path class="fil2" d="M119.93 31.08c-.88-.17-3.22-.58-3.71.07 1.03.47 2.19 1.37 4.06 2.04l-.35-2.11z"/><path class="fil4" d="m86.69 20.89.06-.93-1.61.12c-.13 2.35-.57 2.63.41 3.27.79-.19.86-1.16 1.14-2.46z"/><path d="M109.28 24.58c.58.43.91.51 1.64 1.01.82.55 1.13.61 2.27.51-.84-1.09-.85-.69-2.01-1.38-.35-.21-.55-.38-.84-.66-.57-.55-.21-.5-1-.65l-.06 1.17z" style="fill:#e8222b"/><path d="M128.76 40.47c.32-.25.36-.1.63-.97.12-.39.2-.74.3-1.11-.81-.09-2.26-.14-2.85.19.5.47.56.49.96.99.52.65.4.43.97.91z" style="fill:#fbad1c"/><path d="M102.12 39.99c.68.58 1.71.4 2.86.31-1.49.38-2.33.02-3.75-.07l.32.18c1.44.56 2.97.14 4.27.12-.48-.31.63-.28-.63-.26.07-.02.35-.16.38-.25.03-.1.11-.13.19-.17-1.64.24-1.91.34-3.63.14z" style="fill:#6b3a22"/><path d="m85.14 20.08 1.61-.12-.06.93c.35-.72.33-.64.17-1.48-1.03-.4-1.42-.1-1.73.67z" style="fill:#167948"/><path d="M107.95 32.47c.19.14.13.13.46.28 1.79.85 1.5.01 1.51-.01-.66-.18-1.2-.24-1.68-.42l-.29.14z" style="fill:#746813"/><path d="M95.09 28.72c.4-.36.68-.71 0-1.22-.32.56-.42.63 0 1.22z" style="fill:#145736"/><path d="M57.03 59.18c.2-.22.16.01.29-.41.15-.5.05-.27.07-.61l-1.58-.36c.34.34.04.23.65.37h.78l-.21 1.01z" style="fill:#844628"/><path d="M127.59 27.63c-.52.21-.38-.27-.18.6.15.67.15.18.41.38l-.22-.98z" style="fill:#4b4b4b"/></g></g></svg>