<svg xmlns="http://www.w3.org/2000/svg" xml:space="preserve" width="95.717" height="71.683" style="shape-rendering:geometricPrecision;text-rendering:geometricPrecision;image-rendering:optimizeQuality;fill-rule:evenodd;clip-rule:evenodd" viewBox="0 0 47.42 35.51"><defs><style>.fil0{fill:#000}.fil2{fill:#ff0}.fil1{fill:#fff}</style></defs><g id="Camada_x0020_1"><g id="_2483308616272"><path class="fil0" d="M41.18 33.6c-.32 0-.16-.39-.09-.61.09-.28.14-.35.52-.35 1 0 .35.11.35.96h-.78zm-8.79-.74c0-.71.37-1.7.54-2.32.26-.97.65-1.37 1.66-1.37 1.58 0 .69 2.09.6 2.18-.17.16-.86.04-1.45.04-.09.4-.28.96-.28 1.41.32.07.33.06.48-.32.09-.24.16-.46.16-.72.25-.06.6-.06.99-.07 0 .47-.19 1.03-.4 1.29-.73.94-2.3.6-2.3-.1zm-17.58.07c0-.32.31-1.33.41-1.64.32-1.01.62-2.09 1.93-2.12.41-.01 1.27.04 1.27.58 0 .9-.55 2.9-1.26 3.49-.62.51-2.35.7-2.35-.31zm10.14-.22c0-.3.59-2.88 1.19-3.34.43-.33 1.32-.51 1.76-.11.45.41.12 1.35-.01 1.87-.08.35-.22.82-.33 1.13-.59 1.64-2.61 1.43-2.61.45zm10.42 0c0-.62.36-1.64.51-2.2.29-1.11.82-1.27 1.76-1.27 1.05 0 .64 1.63.64 1.63h-.92c-.02-.26-.06-.17-.02-.34 0-.02.21-.27.02-.62-.44.11-.35.38-.61 1.29-.09.29-.11.5-.18.77-.17.64-.38.63.01.9.57-.16.21-1.04.64-1.04.84 0 .84-.02.66.45-.59 1.5-1.12 1.13-1.42 1.32.06.35.33.33.11.71-.28.49-.99.59-1.04-.05.36 0 .39.07.78.07-.1-1.25-.92-.46-.92-1.63zm3.26-1.77c.01-.88.6-1.7 1.49-1.7.98 0 .67.24 1.13.37-.09.29-.1.8-.17 1.15l-.62 2.53c-.05.14-.06.31-.27.31-.71 0-.68.06-.71-.3-.26.07-.44.3-.78.3-1.05 0-.55-.93-.37-1.57.34-1.21 1.86-.21 1.86-2.05-.67 0-.4.32-.61.96h-.94zm-15.87-.8c.39-.97.99-1.12 1.83-1.12.22 0 .64.39.64.59 0 1.28-.22 1.03-.42 1.04-1.64.14.11-.46-.74-.97-.24.27-.45 1.08-.54 1.49-.14.65-.6 1.47-.15 1.47.39 0 .26-.82.64-1.04l.69.02c.15.87-.8 1.75-1.32 1.75-1.19 0-1.2-.03-1.2-1.26l.58-1.99zm-1.13.99c.15-.71.26-.63.39-1.02.18-.52.19-.74.52-.8-.02.27-.12.32-.21.52l-.68 2.4c-.17 1.13.33 1.39-.52 1.38-.29 0-.61.02-.89-.04.12-.63.31-1.22.35-1.96l-.37.47c-.81 1.76-.19 1.53-1.94 1.53 0-.37.59-3.11.68-3.87.07-.57 0-.52.67-.5.58.02.41.11.32.55-.12.6-.32 1.31-.33 1.87.33-.18.56-1.02.76-1.54.35-.91.16-.91 1.3-.79l-.21 1.11c-.09.38-.21.62-.21 1.07.55-.06.09-.03.37-.37zm6.98-1.1c.1-.36.08-.94.45-.94 1.03 0 .81.12.85.22.36-.03.3-.15.61-.2.7-.11.33.33.95.35.16-.46.88-.44 1.12-.16.25.3-.25 1.8-.39 2.32-.09.33-.15.63-.23.95-.09.35-.21.54-.28.89-1.33 0-1.11.38-.38-2.32.05-.18.52-1.68-.07-1.2-.22.18-.82 3.1-1.03 3.52-.34-.03-.54-.07-.99-.07l.92-3.47-.28-.08c-.3.23-.93 3.01-1.06 3.55h-1.06l.9-3.35zm12.36-1.08v-.15h.5c-.05.3.01.27-.5.15zM9.08 32.72c0 .66.92-.22.72-.96-.11-.42-.79-.78-1-1.19-.37-.76.43-2.43 1.62-2.43 1.93 0 1.36.51 1.28 1.55l-1.2.07c.03-.37.1-.18.18-.5.17-.68-.83-.22-.71.47.15.9 1.79.44.92 2.72-.13.35-.15.46-.41.68-.34.28-.93.58-1.46.58l-.35-.11c-.92-.14-.77-.85-.57-1.47.16-.49.41-.55 1.17-.41.09.45-.18.47-.18 1zm33.37-1.35c-.08.28-.25.69-.27.98-.31-.02-.44-.07-.83-.07l.75-3.61c.13-.35.7-.26 1.12-.21.1.41-.59 2.25-.77 2.92zm-27.48-2.05c.26.24.26.25.14.58-.14.68-.49 1.68-.76 2.46-.54 1.53.08 1.11-1.54 1.21.13-.73 1.09-3.12 1.1-3.73-.45 0-.33-.09-.51.21-.23.39-.61 1.84-.81 2.48-.1.33-.28.73-.31 1.02l-1.13-.01c.2-1.05.87-2.98 1.21-4.06.58-1.82.34-1.19 1.55-1.19-.09.41-.28.65-.28 1.11.48-.12.97-.41 1.35-.07zm25.02-.59c-.3.05-.45.19-.69.2.05-.15.22-.31.33-.48.06-.21.58-.98.73-1.17.87-1.07-.05-.65-.24-.84-.07-.1-.11.15-.04-.18.08-.38.63-.34 1.1-.34h.99c-.01.8-.46 1.03-.63 1.34l-.8 1.16c-.15.33.15.32-.26.37-.1.01-.27-.06-.51-.06zm-19.92 0c-.07-.35 0-.51.08-.81.65-2.33.66-4.08 3.11-4.08 2.02 0 .76 2.72.71 2.96-.4 0-.49-.07-.92-.07-1.05 0-1-.1-1.15.35-.09.26-.49 1.34-.34 1.5.44.22.53-.19.63-.53.14-.48.12-.5.36-.88.47.12.76.11 1.26.02.02.38-.04.58-.26 1.09-.32.75-.68.46-1.53.56-.41.05-.26-.07-.47-.08-.65-.02-1.02.19-1.48-.04zm15.73-2.14c0 .06-.25.66-.29.74-.58 1.17-2.75 1.38-3.04.36-.15-.54.49-2.43.75-2.97.32-.68.78-.86 1.39-.9.43-.03.24-.25.85-.01.15.05.06-.06.33.06.81.34.36 1.4.3 1.64-.21.74.28.58-1.99.58-.25.74-.57 1.48-.14 1.48.35 0 .33-.21.43-.58.24-.82.22-.6.71-.56.38.03.7-.23.7.18zM11.42 27.7c.18-.56.24-.5.33-1.05l.56-1.65c.71-1.51 3.13-1.59 3.4-.44.17.75-.56 2.91-.9 3.71-.12.28-.13.36-.48.39.05-.34.16-.32.19-.57-.35-.4-.35-.32-1.04-.32.18-.82.78-2.28.78-3.03-.5 0-.45.14-.57.52l-.49 1.63c-.49 1.51.07.53-.72.95-.2.11-.08.13-.35.25l-.71-.39zm31.67-1.55-.06.06c-.08.34-.29.27-.07.55l.64-.02c.04.34-.03.34-.14.59h-1.13c-.06-.07-.15.1-.02-.09.29-.48.35-.86.52-1.46-.24-.17-.27-.16-.28-.55.18-.18.51-.39.46-.74-.29-.09-.4-.07-.57.07-.11-.09-.05-.03-.11-.18.02-.41.11-.42.5-.44 1.83-.05 1.79-.12 1.38.71-.17.35-.34.41-.54.77-.16.28-.31.56-.57.74zm-6.44-2.14c.7-.49.89-1.04 2.41-1.04.86 0 1.27.06 1.72.65.4.53.14 1.09-.02 1.79-.86.07-.91-.18-1.14.73-.17.65-.07.44.22.89-.12.54-.98 1.36-1.06 1.71l-.08.51c-.34-.1-.21-.27-.92-.44.03-.34 1.28-3.83 1.28-4.73-.7 0-.61.32-.81.85l-1.05 3.78c-1.51.39-.89.98-1.64.36-.63-.52.03-.91.33-1.42.23-.38.7-1.91.79-2.36.21-1.03-.01-.67-.02-1.28zm-20.49 1.77c.08-.28.16-.49.25-.78.42-1.31-.34-1.07 1.89-1.06l-1.35 4.81c-.83 0-.96.52-1.2.52-.29-.08-.23-.19-.5-.35l.91-3.14zm12.48 2.23c0-.6-.04-.48.1-1l.38-1.15c.74-2.29.23-2.15 1.92-2.06 0 .74-.98 2.94-.99 3.7.39 0 .3.08.45-.2l1.11-3.5h1.35c-.18.79-.92 2.97-1.21 3.91-.05.16-.07.33-.13.53-.31 0-1.15.02-1.37-.13-.49-.33.38.1-.12-.1-.73.4-.84.45-1.49 0zm-3.69-.52c0-.4.21-.76.31-1.15.12-.46.52-1.89.74-2.19.19-.26.53-.5.94-.5.7 0 .52.33.91.37l.08-.29.64.01c.9-.07.64.13.48.65l-1.34 4.3c-.38 0-.44-.09-.75-.05-.26.04-.4.12-.67.12.08-.32.25-.35.28-.81-.15.04-1.63.97-1.63-.44zM19 23.94c.13-.58-.16-.92 1.68-.72.01.22-.12.55-.19.74.18.06.18.08.35.12.02.51-.14.43-.21.89-.56-.01-.35-.16-.56.53l-.79 2.8c0 .43-.09.25.35.44-1.32 0-.7.3-1.13.3-.39 0 .1-.3-.87-.3l1.01-3.76-.28-.06c.2-1.05.5-.93.64-.99zm-12.26 5.4c.03-.38.39-1.29.51-1.69l1.41-4.98 1.35.02v2.37c0 .37.06.33.07.67l.85-3.03h1.35c0 .44-1.23 4.13-1.42 4.95-1.13.18-.9.03-1.89.57-.06-.48 0-.79-.09-1.23.14-.04-.03.1.14 0v-.52c-.3.21-.28.24-.34.68-.1.72-.29.95-.42 1.56-.14.66-.15.42-.23.72-.46-.03-.67-.07-1.28-.07zm10.06-5.77c.08-.18.07-.43.28-.89.58.01.72.1 1.26.05.59-.05.11.42.01.84h-1.56zm28.63 1.33c-.27.02-.28.07-.64.07 0-.95.45-1.01-.11-1.63.32-.72.76-.9.57-1.2l-.53.02c-.15-.66.32-.53.85-.52l1.05.03c.01-.02.03 0 .05.01.14.6-.34.89-.68 1.44-.44.71-.84.98-.67 1.3.61-.27.89.27.47.5-.14.08-.22.08-.37-.02zM4.82 22.61c-.03-.4.13-1.14.21-1.48.15-.63.05-.54.58-.73.2-.07-.1-.05.28-.08 0 .34-.42 1.65-.57 2-.14.32-.12.29-.5.29zm27.75-2.48c-.06-.33.27-.85.39-1 .33-.43.76-.41.81-.43l.21-.13c.31-.17.38-.06.97-.1 1.08-.06 1.3.5 1.03 1.44-.22.75-.9 2.6-1.03 3.21-.46-.04-.67-.07-1.28 0l-.21-.3c-.39.14-2.17.93-1.67-.78.3-1.02.48-1.11 1.33-1.35.78-.22 1.35-.17 1.53-1.17.08-.45.03-.4-.41-.4-.25.39-.34.92-.49 1.03-.02.02-.97-.04-1.18-.03zm-8.26-.04c.01-.42.31-.96.61-1.21.63-.52 1.48-.49 2.22-.49.29 0 .78.41.78.67 0 .8-1.05 3.21-1.2 3.92-.43 0-.96.03-1.28.04-.13-.14-.1-.07-.11-.33-.57.25-.84.53-1.43.35-.64-.2-.56-.6-.09-1.67.22-.48.52-.55 1.06-.74.83-.3 1.41-.14 1.54-1.21.04-.31-.01-.37-.38-.35-.26.31-.26.64-.46 1.04h-1.28zm-6.8 2.06c-.16-.03-.08.01-.14-.06.15-.21.09-.28.14-.44.22-.49.12-.51.62-.84.84-.56 1.96-.12 2.11-1.37.04-.35-.05-.39-.11-.46-.59.05-.57.87-.71 1.07-.76-.23-1.43.27-1.28-.24.28-.93.64-1.08 1.43-1.31.21-.06.39-.11.77-.11.91 0 .83-.01 1.35.52 0 .72-.55 2.12-.75 2.77-.28.92-.22 1.04-.67 1.05-.35.01-.99-.01-1.21-.12.05-.24.71-1.25.71-1.85-.74.18-.88.82-1.06 1.48l-1.21-.09zm-1.56-3.76h.11c.44-.2 1.15.01 1.43.24.32.27.34 1.13-.05 1.38-.33-.03-.24-.06-.58-.03-.2.02-.41.03-.62.03.05-.6.23-.38.07-1.11-.45.12-.52.53-.68 1.06-.09.3-.17.31-.27.63-.13.42-.1.58-.28.95-.49 1 .34 1.02.59.17l.21-.59h1.28c-.17.76-.72 1.56-1.48 1.78-.5.14-.79.09-1.35.07-.48-.02-.78-.24-.86-.72-.06-.37.59-1.98.76-2.42.36-.95.72-1.24 1.74-1.45zm26.68-.11c.48-.98 1.83-1.22 2.79-1.06.5.08 1.07.43 1.07.74 0 .68-.18 1.17-.36 1.7-.08.24-.13.52-.22.8-.1.31-.06.51-.28.68-.41.24-1.11-.53-1.44.57-.06.2-.12.38-.12.69.33.09.36.24.31.47-.31.17-.37.12-.83.12l-.12-.43c-.68.76-2.06.46-2.06-.09 0-.64.12-1.11.41-1.71.15-.32.12-.3.4-.47.45-.27 1.3-.51 1.87-.71.63-.22.9-1.48.38-1.45-.34.02-.5.9-.51 1.17-.5.13-1.39.23-1.77 0l.46-1zm-32.85.85c.04-.45.44-1.31.78-1.56.3-.22.97-.66 1.56-.66.74 0 1.93-.11 2.01.9.05.63-.07.7-.22 1.12-.05.15-.06.25-.11.41-.29 1.05-.6 1.45-.98 3.12-.09-.06-.33-.22-.5-.22-2.29 0-1.24.04-1.91.3-.53-.83-1.76.32-1.5-.82.48-2.1 1.15-1.82 2.5-2.36.85-.34.72-.36.84-.82.09-.33.4-.59-.35-.66-.69 1.37.22 1.26-2.13 1.26zm22.68-1.12c-.01.39-.36 1.36-.5 1.78-1.41 3.97-.72 3.22-2.09 3.28-.66.03-.28-.22-.6-.23 0 0-1.73.83-1.72-.31 0-.42 1.01-3.49 1.45-3.82.38-.28 1.03-.49 1.49-.18.71.47.25-.01.76-1.02h1.42c0 .36-.02.2-.08.3-.06.16-.01.08-.13.21zm-8.87 2.22c-.15.5-.88 2.3-.91 2.75h-1.49c.09-.6 1.42-4.21 1.68-4.98.22-.71-.13-.56 1.66-.56-.01.25-.76 2.24-.93 2.8zm12.7-2.73c-1.29 0-4.58.25-2.27-.81.41-.19.36-.02.61-.06.21-.03.29-.17.6-.17.58 0 1.06.36 1.06 1.04zm-6.24-.07c-.27 0-.26.16 0-.81.34.16.08.12.45.27.24.1.33.05.33.4 0 .22-.49.15-.78.15zm-4.8-.32c.2-.23.04-.17.33-.2.02.29.06.19.07.52-.27 0-.35.03-.54-.1l.14-.22zm-5.77.04c.12-.47.21-.46.7-.54.62-.11.38.19.85.25.23-.21.01-.08.18-.39.3.07.16.06.4.22.55.38.91.28.88.72-.75 0-2.45-.06-3.1.02l.08-.28zm18.5-.16c.34-.75 1.01-.44 1.39-.39-.85-.06-1.02.36-1.39.39zm-31.75-.67c.01-.3.04-.47.28-.59l.95.05c.12.45-.04.55.05.84-.52-.15.07-.3-1.28-.3zm34.59-.37c2.08 0 1.94-.27 1.55.81l-1.03 3.37c-.17.6-.74 2.02-.74 2.55-1.16 0-1.27-.48-2.92.06-1.03.34-.37.03-1.05-.13 0-1.45.43-1.84.77-3.26.08-.36.15-.39.25-.77.17-.61.37-.92.83-1.2 1.04-.61 1.59.07 1.83.13l.5-1.55zM7.51 18.69c.24-.07.22-.13.38-.71l.37-1.25c.07-.18.11-.21.17-.34.31-.77-.28-.66 1.71-.66-.01.54-.37 1.35-.54 1.87l-1.5 4.57c-.18.61.11.43-1.78.43 0-.33-.04-.32-.06-.6-.03-.76.04-1.17.06-1.87.33-.19 1.11-.41.78-1.08-.08-.17-.41-.3-.66-.36-.32-.07-.51.03-.78.08-.02-.2.08-.58.16-.69.2-.28.65-.12 1.5-.73.18-.13.06-.12.22-.1.03.24-.02.99-.02 1.43zm-1.48-1.77c.23-.16.62-.21.89 0-.19.3-.91.54-1.3.7-.28.11-.31.11-.39.41-.08.31-.28 1.12-.28 1.41.51-.02.88-.28 1.59-.11-.18.36-.12.19-.63.45-1.05.53-1.12.02-1.31.71-.24.91-.12 1.08-.38 1.84-.08.23-.05.19-.33.2l.06-2.05c-.41 0-1.21.29-1.67.41l-.31 1.31c-.14.75.07-.05-.25.86h-.19c-.14-.25 0-1.53 0-1.94-.45 0-1.12.03-1.38-.15-.03-.4.21-.42.55-.53.25-.08.67-.16.93-.18.06-.34.21-1.01.22-1.38.02-.6-.59.05-1.03-.25l-.28-.37c.28-.07.35-.2.73-.26 1.04-.18.64.08 1.19-1.65.06-.19.12-.5.33-.62.05-.03.57-.25.64.17.05.31-.27 1.2-.27 1.62.61 0 .8-.18 1.28-.22.09-.5.39-1.86.78-2.08.48-.27.71.07.59.53-.11.38-.23.68-.23 1.18h.44zm39.01-2.43c.34.22.35.03.74.59.48.7.43.27.57 1.47.03.14.02.22.07.44-.3-.02-.2.03-.35-.15-.47-.19-1.3-.12-1.48-.16-.34-.06-.06-.07-.43-.18l-.65.33c-.5.19-.78.35-.54-.34.38-1.08-.31-.95-.62-1.03.01-.23 1.21-1.55 1.99-1.34.08.02.65.3.71.35zm-5.03-.16c0-.9 1.08-1.18 1.85-1.36.72-.17.71-.14 1.14.06.41.19.78.39.74.85-1.1.28-1.68 1.52-2.13 1.59-.4.06-.61-.19-.61-.2-.34-.22.17.17-.41-.02-.3-.1-.57-.51-.57-.93zm-8.52-3.18c1.02-.23 1.78.06 2.5.48.66.38.93.94 1.21 1.55.25.54.1.78-.02 1.33-.07.29.02.76-.61 1.36-.56.53-1.36.92-2.11.93-.49 0-2.24-.03-2.5-.57-.26-.53-.18-.6-.63-.97-.41-.33-.74-.2-.71-.78.07-1.27.03-1.05.43-1.86l.34-.46c.33-.33.5-.48.91-.68.85-.43.8-.22 1.21-.31zm10.61 1.41c-.29.12-.61.15-.91.23-.38.11-.44.25-.79.36-.38-.61-.57-1.03-.57-1.85 0-.37.36-.44.71-.4.6.07 1.37 1.06 1.56 1.65zm-18.43 4.36c-.8 0-1.8-.41-2.29-.87-.34-.32-.91-1-.87-1.55.06-.76-.06-.07-.1-.63-.06-.72.59-1.57 1.08-2.04.81-.77 2.14-.88 3.33-.63l1.13.45c.15.09.33.21.48.38.63.69 1 1.32.97 2.64-.48.27-1.82.32-1.82 2.02-1.14.1-.52.22-1.91.22zm-12.1-6.27c-.18.45-.71 1.23-.77 1.5.1.16.06.12.21.22.27-.21.46-.35.77-.45 2.76-.88 2.32 2.71.61 2.66-.88-.02-.88-.67-.95-1.54-.23.22-.27.14-.31.56-.04.45-.01.63.2.89.58.71 1.96.94 2.61-.54.43-.98.14-1.38.09-1.86.41-.42 1.48-1.42 2.13-1.08 1 .52-.49 1.78-.69 2.03l-1.18 1.43c-.12.15-.2.31-.14.56.26 1.09 1.94.15 2.5.86l.15.22-.03.41-.18.18c-.24.37-.37.39-.85.53-1.61.46-.93 0-1.88-.57-.57-.34-1.73-.28-2.42-.08-.82.24-.69.34-1.02.42 0-.53.19-.83.28-1.33-.34-.53-.47-.41-1.21-.41-.81 0-1.03-.11-1.46.38l-.11-.16c-.29-.19-.13-.55-.13-1.44 0-2.52 2.82-5.59 3.81-4.49.31.35.16.89-.03 1.11zM30.8 3.14c-.16-.13-.05-.12-.22-.23-.21-.13-.07.04-.28-.16-.17-.16-.33-.3-.47-.47.27.07.85.73.96.34.01-.02.02-.03.04-.04l-.03.57zm-3.11 10.82-.03-.53c-.34-1.38-1.51-2.42-2.89-2.69-.76-.12-.57-.08-1.25-.04-1.85.11-2.19.93-2.84 1.34-.12.21-.09.15-.25.27-.11-.19-.35-.63-.26-.88.12-.34.4-.23.47-.77.11-.83-.29-2.65.37-4.36a4.937 4.937 0 0 1 2.22-2.55c.25-.13.33-.1.55-.26.26-.19.02-.31.35.01.21-.62.23-.03.37-.5.03-.09.02-.18.02-.27l.14.48c.52-.15.45.05 1.29-.47.32-.22.11-.38.91-.82-.08.33-.03.07-.51.57-.54.56-.19.39-.44.57 0 0 1.47-.21 2.12-.16.27.02.48.05.75.05 1.31.01 2.39.43 2.84.44v-.3c.29.22.18.32.21.67.32-.24.11-.38.28-.57.07.15.01.14 0 .43l1.08.51c.93.74 1.52 1.71 1.82 2.91.12.48.23 2.12.14 2.93-.11 1.02.03.43.26 1.23.15.51.1.78-.1 1.22-.11-.08-.47-.53-.62-.68-1.05-1.11-3.26-1.48-4.69-.57l-.74.56c-.88 1.01-1.02 1.41-.88 2.76.08.75.39.51.99 1.41.23.35.24.74.14 1.19-.11.51-.28.37-.85.37-.83-.01-1.65 0-2.48 0-.13-.28-.21-.81-.13-1.24.05-.28.35-.62.52-.79.28-.28.62-.24.95-.71.2-.29.11-.41.21-.74zm-1.91-11.5c-.08.26.01.25-.27.33.02-.25.02-.21.12-.37.11-.3.35-.62.66-.72-.24.42-.45.44-.51.75zM25.72.38l-.05.05.05.15c-.26.07-.15.08-.35.22h-.28c-1.27.7-1.04 1.63-1.54 2.09-.22.2-.87.49-1.16.64-1.05.57-2.45 2.65-2.48 3.92-.01.53-.07.49-.12.83l-.09 1.83h.21c-.08.96-.31.74-.36 1.18-.13 1.14.52.95.09 2.76-.12.48-.36.67-.58 1.02.33.72.03.28.99.52 0 .85-.54.43-.98.9-.26.28-.5.94-.51 1.47-.16.26-.18.14-.33.35-.24-.13-.33-.09-.58-.28l-.79-.51c.16-.7.84-1.12.13-1.91-.18-.2-.33-.35-.55-.34-.98-.21-1.26-.04-1.7-.2-.08-.25-.06-.39.07-.59.17-.27.93-1.17 1.14-1.26 1.75-1.23.98-3.38-.84-2.65-.32.13-.41.29-.68.48-1.03.74-.47.37-1.74.25-.14.09.17.04-.21.07-.19.01-.36-.08-.49-.15 0-.7.2-.51.22-1.03.02-.66-.13-.53-.29-.96-.47-.73-1.62-.38-1.99-.08-.25.2-.47.42-.73.65-.73.64-1.39 1.6-1.74 2.55l-.35 1.85c-.02.22-.01.5-.01.73-1.07 0-.92-.69-2.18-.35-.49.13-.22.42-.93.43-.46.01-.96-.04-1.22-.02-1.53.13-1.01 1.78-1.82 2.32-.38.25-.83.04-.93.5v1.41c.77.49.07.63 0 .81l.02 1.68c.31.25.47-.17.55.91.06.84.64 1.52 1.44 1.06.35-.21.37-.46.69-.66.67.23.45.2 1.13.2h2.7c.3 0 .94.04.95.5l-.36 1.22-.1.33c-.24 1.16-.72 2.43-1.07 3.62-.22.76.11.82.23 1.34h.78c.39 0 .49.05.78.08 0 1.04-.38 1.02-.59 1.82-.2.77-.15 1.43.33 1.86.9.8 2.5.31 4.16.31h1.14c.48 0 .65.08 1.13.08h1.21c.61 0 .5-.15 1.06-.16.81-.01 3.92.26 4.33.09.1-.04.08-.04.13-.08.46.16-.25-.01.21.15.45-.32 2.7-.3 3.26-.3.65 0 1.07-.12 1.63-.15.56-.03 1.21 0 1.77 0l3.54.08c.58.02 1.2 0 1.77 0 1.09-.01.44.17 1.56.07.17.32.27.19.28.67.05.65 1.55 1.36 2.31.12.67-1.09.46-.4 1.66-.41h2.55c.51 0 .71-.08 1.2-.08.07-.15.27-.7.28-.89 0-.33.35-1.68.47-2.03.11-.34.15-.71.23-1.02l.89-3.44c.28-.75-.27-.22 0-1.34l1.82-.01c1.18-1.07.3-1.67.49-2.14.24-.58.86-.68.86-2.15l-.85-.64c0-.37.16-.91.27-1.23.45-1.41.17-2.26.07-3.6.07-1.3-2.05-2.12-2.5-2.47-.89-.7.08-.29-1.47-1.05-.63-.31-.61-.97-1.14-1.4-.82-.67-1.49-1.2-2.4-.35-.39.36-.53 1.34-.18 1.93.63 1.06-.12.89.07 2.07l.41.9c.23.18.08.08.21.37-.25.14-.43.25-.57.07-.82-.02-.45-.4-1.31-.03-.5.21-.62.43-.89.85-.4 0-.5-.01-.72-.21-1.04-.91-.11-.55-.06-1.27.03-.43-.25-.54-.42-.66 0-.72-.09-1.06-.21-1.63-.19-.93.3-.44.21-1.54-.04-.53-.26-1.11-.18-1.67.24-1.66-.02-3.17-.84-4.59-.47-.82-.79-.99-1.38-1.45-.18-.14-.36-.3-.58-.36-.7-.14-.89-.41-1.12-1.05-.32-.87-.61-.92-.86-1.31-.13-.18-.72-.57-.92-.64-.48.03-.33-.25-1.01-.29L27.89.05c-1.43.07-1.23.24-1.63.35-.19.05-.26-.01-.51 0z"/><path class="fil1" d="M23.25 13.49c-.48 0-.71-.08-.92.22.3.07.47.24.71.37-.07.32-.37.91.19.73.38-.13.3-.05.45-.36l.49.09c-.01-.01-.04-.01-.04.01-.03.12-.08-.05-.14.17.65-.02.69.25.69-.2 0-.31-.28-.12-.08-.52.12-.25.23-.15.37-.36.12-.18.02-.08.11-.26.11-.21.21-.23.34-.2.01 0 .03.01.04.01l.19.08c-.17.54-.52.46-.68.75-.14.24.08.77.09.85.04.32.03.14-.05.23-.26.26-.31.02-.51-.08-1.08-.5-1.14.25-1.66.25-.29 0-.27-.2-.2-.43.08-.3.19-.35.01-.62-.32-.47-.76-.23-.8-.88 1.34 0 1.27-.31 1.48-.67.1-.17.21-.33.36-.44.46.32.43.89.99.89l.5.07c-.94.08-.92.46-1.42-.52-.25.17-.42.46-.5.81zm.43 3.4c1.39 0 .78-.12 1.91-.22 0-1.7 1.34-1.75 1.82-2.02.03-1.32-.34-1.94-.97-2.64a2.21 2.21 0 0 0-.48-.38l-1.13-.45c-1.18-.25-2.51-.13-3.33.63-.5.47-1.14 1.31-1.08 2.04.04.55.16-.14.1.63-.04.54.53 1.22.87 1.55.48.46 1.49.87 2.29.87zM30.62 13.23h.05c.23-.03-.12-.06.31-.09.3-.02.23.16.51-.07.22-.18.41-.6.55-.84.23.16.61.7.64 1.04.38 0 1.16.01 1.28.44-.21.05-.4.18-.57.3-.19.13-.24.24-.43.37.22.34.14.44.14 1.04-.35-.1-.83-.52-1.28-.52-.49 0-1.16.7-1.14.09.02-.44.01-.08.09-.28.25-.59.13-.64-.31-.97-.2-.15-.28-.17-.34-.46.16-.04.16-.07.35-.07.22 0-.13.04.14.04zm.88-2.11c-.41.09-.36-.11-1.21.31-.41.2-.57.35-.91.68l-.18.18c-.16.19-.05.05-.16.27-.4.81-.36.59-.43 1.86-.03.58.31.45.71.78.45.37.37.45.63.97.27.54 2.01.58 2.5.57.76-.01 1.55-.4 2.11-.93.63-.6.55-1.06.61-1.36.12-.55.27-.78.02-1.33-.01-.02-.02-.03-.02-.05-.26-.59-.54-1.13-1.18-1.5-.72-.41-1.48-.7-2.5-.48zM38.56 21.99c-.11-.72.26-1.41.45-2.12.18-.67.35-1.67.83-1.8.5.35.11.69-.3 2.06-.3 1.02-.38 1.85-.98 1.86zm1.77-4.51c-.24-.06-.79-.75-1.83-.13-.47.28-.67.58-.83 1.2-.1.38-.17.41-.25.77-.34 1.42-.77 1.82-.77 3.26.68.17.02.47 1.05.13.1-.03.1-.03.23-.06 1.81-.45 1.37 0 2.69 0 0-.54.57-1.95.74-2.55l.76-2.54c.08-.24.18-.58.27-.83.38-1.08.52-.81-1.55-.81l-.5 1.55zM6.73 29.31c.61 0 .82.04 1.28.07.08-.3.09-.06.23-.72.13-.61.33-.83.42-1.56.06-.44.04-.47.34-.68v.52c-.17.1 0-.04-.14 0 .1.44.03.75.09 1.23.99-.54.77-.38 1.89-.57.18-.83 1.42-4.51 1.42-4.95h-1.35l-.62 2.24c-.14.38-.1.58-.23.79-.01-.33-.07-.29-.07-.67v-2.37l-1.35-.02-1.41 4.98c-.12.4-.47 1.31-.51 1.69zM36.64 23.99c.01.61.23.25.02 1.28-.09.44-.56 1.98-.79 2.36-.31.51-.96.91-.33 1.42.62.51.35.18.95-.11.16-.08.47-.19.69-.24l1.05-3.78c.21-.54.11-.85.81-.85 0 .91-1.25 4.39-1.28 4.73.71.17.58.35.92.44l.08-.51c.05-.17.02-.08.06-.16l.7-.97c.13-.19.24-.33.3-.58-.29-.45-.39-.24-.22-.89.22-.88.36-.71.87-.7.09 0 .1-.02.28-.03.16-.7.42-1.26.02-1.79-.45-.59-.86-.65-1.72-.65-.6 0-1.17.11-1.61.39l-.33.24c-.19.17-.3.28-.47.4zM10.7 21.7c0-.34.17-.92.31-1.15.27-.46.34-.36.75-.62 0 .24.02.19-.05.39l-.05.1-.09.2c-.33.89-.12 1.21-.88 1.08zm-.92-2.59c.3 0 .62.01.92 0 .98-.03.76-.07.96-.7.08-.25.14-.37.24-.56.74.06.43.33.35.66-.12.47.01.48-.84.82-1.35.54-2.02.26-2.5 2.36-.26 1.14.97-.01 1.5.82.67-.25-.38-.3 1.91-.3.17 0 .4.16.5.22.37-1.67.69-2.07.98-3.12.04-.16.05-.26.11-.41.14-.42.26-.49.22-1.12-.02-.33-.09-.46-.34-.64-.5-.34-1.04-.26-1.66-.26-.59 0-1.26.44-1.56.66-.26.19-.33.38-.48.68-.1.19-.28.64-.3.87zM43.16 21.99c0-.5.07-.79.26-1.14.06-.11.22-.33.31-.41.23-.21.16-.09.4-.2.04.34.01.19-.06.47-.12.44-.24.9-.48 1.28h-.43zm-.99-2.74c.28.17.79.12 1.26.1.2-.01.35-.06.51-.1 0-.26.16-1.15.51-1.17.52-.03.25 1.23-.38 1.45-.57.2-1.41.44-1.87.71-.28.17-.24.15-.4.47-.29.61-.41 1.08-.41 1.71 0 .27.48.58.94.54.08-.01.28-.02.34-.03.26-.04.62-.25.78-.43.01.01.02.02.02.05l.1.38c.45-.01.51.05.83-.12.06-.22.02-.38-.31-.47 0-.3.06-.49.12-.69.32-1.1 1.03-.33 1.44-.57.22-.17.17-.36.28-.68.09-.29.14-.57.22-.8.17-.53.36-1.02.36-1.7 0-.3-.57-.66-1.07-.74-.96-.15-2.32.09-2.79 1.06l-.46 1z"/><path class="fil2" d="m.65 18.43.2.16c.44.29 1.05-.36 1.03.25-.01.37-.16 1.04-.22 1.38-.27.02-.69.1-.93.18-.34.11-.58.13-.55.53.26.18.94.15 1.38.15 0 .42-.14 1.69 0 1.94h.19l.15-.43c.09-.12.02.03.06-.17.02-.1.02-.16.03-.27l.3-1.31c.45-.11 1.25-.4 1.67-.41l-.07 1.63.01.42c.28-.01.25.03.33-.2l.13-.4c.1-.56.08-.76.25-1.44.17-.64.13-.2 1.25-.68.02-.01.04-.02.05-.02l.1-.05.13-.06c.29-.07.28-.09.4-.33-.72-.16-1.08.09-1.59.11 0-.29.2-1.1.28-1.41.08-.29.1-.29.39-.41.2-.08.41-.15.62-.25.4-.23.51-.16.68-.44-.07-.05-.04-.07-.19-.11-.21-.06-.51-.03-.7.11h-.44c0-.5.13-.79.23-1.18.13-.46-.11-.8-.59-.53-.39.22-.68 1.58-.78 2.08-.47.04-.66.22-1.28.22 0-.42.31-1.31.27-1.62-.06-.42-.59-.2-.64-.17-.21.12-.27.43-.33.62-.55 1.73-.15 1.48-1.19 1.65-.37.06-.44.19-.73.26l.08.21zm2.33-.1c.19-.06.48-.08.68-.14.36-.1.25-.24.67-.19-.03.21-.22 1.4-.26 1.51-.1.26-.27.24-.56.3-1 .19-1.06.49-.69-1.06.04-.17.09-.25.16-.41zM29.49 22.66c0-.14.02-.13.07-.22.14.04.28.07.25.31-.02.19-.09.13-.33.13v-.22zm-.35-.59c0-.3.48-1.46.58-1.77.31-.99.34-1.33.91-1.19 0 .63-.63 1.98-.85 2.67-.11.34-.17.62-.57.58-.1-.2-.07.09-.07-.3zm3.33-4.08c-.09-.06-.3-.23-.15-.38.21-.22.25.08.28.17.07-.09.08.06.08-.3h-1.42c-.51 1.01-.04 1.49-.76 1.02-.46-.31-1.11-.1-1.49.18-.45.33-1.45 3.4-1.45 3.82-.01 1.14 1.72.31 1.72.31.32.02-.06.26.6.23 1.37-.06.68.7 2.09-3.28.15-.41.49-1.39.5-1.78z"/><path class="fil1" d="M7.51 18.67c0-.44.05-1.19.02-1.43-.16-.02-.05-.02-.22.1-.85.61-1.3.45-1.5.73-.08.11-.18.5-.16.69.27-.05.46-.15.78-.08.25.05.57.19.66.36.34.67-.44.89-.78 1.08-.02.7-.09 1.11-.06 1.87.01.28.06.26.06.6 1.89 0 1.6.17 1.78-.43l1.5-4.57c.17-.52.54-1.34.54-1.87-1.99 0-1.4-.11-1.71.66-.05.13-.1.16-.17.34l-.37 1.25c-.16.58-.14.64-.38.71zM22.42 25.96c-.2-.19-.16-.04-.14-.31.03-.36.2-.71.45-.89.41.32.16 1.16-.31 1.21zm-2.36 2.76c.2.1.25.13.46.1l1.03-.05c.01 0 .03.01.05.01.01 0 .03.01.05.02.16.05 0 .1.37.05.84-.1 1.2.18 1.53-.56.22-.51.29-.71.26-1.09-.49.09-.78.09-1.26-.02-.24.38-.22.4-.36.88-.1.33-.19.74-.63.53-.15-.16.25-1.24.34-1.5.16-.45.1-.35 1.15-.35.43 0 .52.07.92.07.05-.24 1.31-2.96-.71-2.96-2.45 0-2.46 1.74-3.11 4.08-.08.3-.15.46-.08.81zM27.71 33.38h1.06l.46-1.82c.1-.36.38-1.55.61-1.73l.28.08-.92 3.47c.45 0 .65.04.99.07.18-.35.16-.59.28-.96.13-.38.57-2.42.75-2.56.59-.48.12 1.02.07 1.2l-.58 2.06c-.03.38.24.26.97.26.08-.35.2-.53.28-.89.08-.32.13-.62.23-.95.14-.52.65-2.01.39-2.32-.24-.28-.96-.3-1.12.16-.62-.01-.25-.45-.95-.35-.12.02-.07.01-.18.05-.2.08-.14.12-.43.15-.04-.11.18-.22-.85-.22-.37 0-.35.58-.45.94l-.9 3.35zM26.37 27.39c0-.53.29-1.24.43-1.69.09-.27.16-.55.25-.85.18-.6.32-.49.52-.49 0 .58-.24 1.17-.4 1.66-.15.44-.32 1.14-.52 1.45-.15-.07-.06-.05-.28-.07zm-1.42.07c0 1.41 1.48.48 1.63.44-.04.47-.2.5-.28.81.27-.01.41-.09.67-.12.31-.04.37.05.75.05l1.34-4.3c.05-.16.06-.16.11-.34.03-.1.28-.38-.6-.31-.18.01-.2.03-.29.03-.09 0-.16-.03-.35-.03l-.08.29c-.39-.04-.22-.37-.91-.37-.41 0-.75.24-.94.5-.18.26-.3.74-.4 1.06-.12.39-.21.68-.33 1.13-.1.39-.31.75-.31 1.15z"/><path class="fil2" d="M24.95 22.29c.01-.63.32-1.46.99-1.48-.01.27-.06.34-.14.52-.31.71-.19 1.09-.85.96zm-.64-2.22h1.28c.2-.4.2-.72.46-1.04.36-.02.41.04.38.35-.13 1.07-.7.9-1.54 1.21-.54.2-.85.26-1.06.74-.48 1.07-.55 1.47.09 1.67.39.12.53.07.96-.12.14-.06.32-.16.46-.22.01.27-.02.2.11.33.32 0 .85-.04 1.28-.04.16-.71 1.2-3.11 1.2-3.92 0-.26-.49-.67-.78-.67-.74 0-1.59-.03-2.22.49-.3.25-.6.79-.61 1.21zM33.67 21.03c.28-.08.34-.34.42 0 .06.24-.33 1.16-.53 1.41-.57-.04-.4-.2-.26-.68.13-.47.17-.4.37-.72zm0 0h-.43v-.15c.17-.04.21-.07.43-.07v.22zm-1.1-.92c.21-.01 1.15.05 1.18.03.15-.1.24-.64.49-1.03.43 0 .49-.06.41.4-.18 1-.74.94-1.53 1.17-.85.24-1.03.33-1.33 1.35-.1.35-.08.65-.07.67 0 .02.02.04.02.05.23.77 1.6.1 1.72.05l.09.13c.08.11.04.07.12.17.6-.07.82-.04 1.28 0 .1-.43.21-.69.33-1.06l.7-2.15c.05-.19.1-.45.11-.64.02-.69-.57-.83-1.14-.8-.59.03-.66-.08-.97.1-.05.03-.2.13-.21.13-.05.02-.48 0-.81.43-.12.15-.45.67-.39 1z"/><path class="fil1" d="M28.64 27.98c.65.45.76.4 1.49 0 .5.2-.37-.24.12.1.22.15 1.05.13 1.37.13.06-.2.08-.37.13-.53.29-.94 1.04-3.12 1.21-3.91h-1.35l-1.11 3.5c-.15.27-.05.2-.45.2.01-.53.36-1.38.5-1.84.12-.38.49-1.51.49-1.86-.81-.04-1.17-.13-1.33.16-.2.37-.45 1.43-.6 1.9l-.38 1.15c-.15.52-.1.4-.1 1zM11.41 27.69l.71.39c.27-.12.16-.14.35-.25.78-.42.23.56.72-.95l.49-1.63c.11-.38.07-.52.57-.52 0 .76-.6 2.21-.78 3.03.68 0 .69-.08 1.04.32-.03.25-.14.23-.19.57.35-.03.35-.11.48-.39.11-.25.16-.43.26-.69.24-.61.79-2.38.64-3.02-.26-1.15-2.68-1.07-3.4.44l-.53 1.51c-.04.14-.01.03-.03.14-.09.55-.15.49-.33 1.05z"/><path class="fil2" d="M13.4 28.35c.24.13.13.01.28.21l-.28.08v-.3zm1.7 1.54c-.26-.05-.17-.53-.14-.58-.37-.34-.87-.04-1.35.07 0-.45.19-.7.28-1.11-.34 0-.66-.1-.88-.1-.36 0-.43.54-.67 1.29l-1 3.17c-.09.26-.15.55-.21.89l1.13.01c.03-.29.21-.68.31-1.02.2-.64.58-2.1.81-2.48.18-.3.06-.21.51-.21-.01.62-.97 3.01-1.1 3.73 1.61-.1 1 .32 1.54-1.21.27-.78.62-1.78.76-2.46z"/><path class="fil1" d="M34.38 25.32c0-.51.16-.79.57-.89 0 1.31-.57 1.05-.57.89zm1.42 1.26c0-.41-.32-.14-.7-.18-.49-.04-.47-.26-.71.56-.11.37-.09.58-.43.58-.42 0-.11-.74.14-1.48 2.27 0 1.78.16 1.99-.58.07-.24.51-1.29-.3-1.64-.27-.12-.18-.01-.33-.06l-.07-.03c-.4-.19-.48.03-.78.05-.61.05-1.07.22-1.39.9-.25.54-.9 2.44-.75 2.97.29 1.02 2.46.81 3.04-.36.04-.07.29-.68.29-.74z"/><path class="fil2" d="M8.29 31.83h.28c-.07.27-.01.2-.28.22v-.22zm.78.89c0-.52.27-.55.18-1-.76-.14-1.01-.08-1.17.41-.2.62-.35 1.33.57 1.47l.35.11c.53 0 1.12-.3 1.46-.58.26-.22.28-.33.41-.68.87-2.28-.77-1.82-.92-2.72-.12-.7.88-1.15.71-.47-.08.32-.15.13-.18.5l1.2-.07c.08-1.04.66-1.55-1.28-1.55-.29 0-.56.12-.8.26-.57.34-1.14 1.52-.82 2.16.2.42.88.78 1 1.19.2.74-.72 1.63-.72.96zM21.83 31.46h-.21l.01-.33c-.28.34.18.31-.37.37 0-.45.13-.69.21-1.07l.21-1.11c-1.14-.12-.95-.12-1.3.79-.2.52-.42 1.36-.76 1.54.01-.56.21-1.26.33-1.87.09-.44.26-.53-.32-.55-.67-.02-.61-.07-.67.5-.09.77-.68 3.5-.68 3.87 1.75 0 1.12.23 1.94-1.53.07-.15.05-.11.13-.23l.23-.24c-.05.74-.24 1.33-.35 1.96.28.06.6.04.89.04.84.01.34-.25.52-1.38.05-.33.13-.5.19-.77zM15.95 18.37c-1.02.21-1.38.5-1.74 1.45-.17.44-.82 2.05-.76 2.42.08.48.38.7.86.72.56.02.86.07 1.35-.07.76-.22 1.31-1.02 1.48-1.78h-1.28l-.21.59c-.25.85-1.08.83-.59-.17.18-.37.15-.53.28-.95.1-.32.18-.33.27-.63.16-.53.23-.94.68-1.06.16.73-.02.51-.07 1.11.21 0 .42-.01.62-.03.34-.03.25 0 .58.03.39-.25.37-1.11.05-1.38-.28-.24-.99-.44-1.43-.24.16 0 .15-.03.27.04.14.08.06.02.12.18-.21.11-.2.07-.5.07v-.3zM17.51 21.62h.14c.02.23.07.36.14.52l-.28-.01 1.21.09c.19-.66.32-1.3 1.06-1.48 0 .6-.66 1.61-.71 1.85.22.11.86.13 1.21.12.45-.01.38-.13.67-1.05.2-.65.75-2.05.75-2.77-.51-.53-.44-.52-1.35-.52-.39 0-.56.05-.77.11-.21.06-.42.13-.62.21-.46.21-.66.61-.81 1.1-.16.52.51.02 1.28.24.15-.21-.01-.18.21-.63.12-.25.18-.41.5-.44.06.08.15.12.11.46-.03.23-.07.4-.19.57-.35.49-1.36.42-1.92.8-.5.33-.4.35-.62.84zM16.02 32.72c0-.23.58-1.94.73-2.43.19-.64.27-.53.48-.53.09.2.07-.06.07.22 0 .45-.35 1.23-.47 1.73-.1.42-.32 1.31-.74 1.37-.1-.21-.07.12-.07-.37zm-1.2.22c0 1.01 1.74.83 2.35.31.71-.59 1.26-2.59 1.26-3.49 0-.54-.87-.59-1.27-.58-1.31.04-1.61 1.11-1.93 2.12-.1.31-.41 1.32-.41 1.64z"/><path class="fil1" d="M19 23.92c-.13.06-.44-.06-.64.99l.28.06-.5 1.83c-.14.51-.47 1.48-.51 1.93.97 0 .48.3.87.3.43 0-.19-.3 1.13-.3l-.2-.09c-.14-.1-.16.16-.16-.36 0-.17.18-.68.24-.93l.55-1.87c.21-.68 0-.54.56-.53.07-.45.23-.38.21-.89-.18-.04-.18-.06-.35-.12.07-.19.2-.52.19-.74-1.83-.21-1.55.13-1.68.72zM26.08 32.79c0-.44.5-2.76.85-3.03.32.49.04.58-.25 1.81-.05.22-.2.87-.34 1.05-.17.23-.07.13-.26.17zm-1.13-.07c0 .98 2.02 1.18 2.61-.45.11-.31.25-.79.33-1.13.12-.51.46-1.46.01-1.87-.44-.4-1.33-.22-1.76.11-.6.46-1.19 3.04-1.19 3.34zM33.95 30.72c.09-1.12.57-.82.57-.67 0 .44-.13.77-.57.67zm-1.56 2.14c0 .3.36.67.92.67.55 0 .96-.02 1.38-.56.2-.26.39-.82.4-1.29-.39.02-.74.01-.99.07-.01.26-.07.48-.16.72-.14.37-.15.39-.48.32 0-.45.19-1 .28-1.41.59 0 1.27.12 1.45-.04.1-.09.98-2.18-.6-2.18-.44 0-.92.08-1.22.43-.24.28-.33.52-.44.94-.17.62-.54 1.62-.54 2.32zM39.12 32.79c0-.2.09-.59.15-.73.08-.19.25-.34.42-.45.16.34.07.27-.02.57-.05.15-.04.2-.08.36-.17.62-.47.39-.47.25zm-.5-1.85h.94c.22-.64-.06-.96.61-.96 0 1.84-1.52.84-1.86 2.05-.18.64-.67 1.57.37 1.57.33 0 .52-.22.78-.3.03.35 0 .3.71.3.21 0 .23-.16.27-.31l.62-2.53c.07-.35.08-.87.17-1.15-.46-.13-.16-.37-1.13-.37-.88 0-1.47.82-1.49 1.7z"/><path class="fil2" d="M21.19 22.95h1.49c.04-.45.76-2.24.91-2.75.17-.56.92-2.55.93-2.8-1.79 0-1.43-.15-1.66.56l-1.23 3.53c-.15.47-.38.94-.45 1.45z"/><path class="fil1" d="M15.24 28.9c.27.15.21.27.5.35.25 0 .38-.52 1.2-.52l1.35-4.81-1.42-.01c-.27.04-.2-.02-.27.23-.06.23-.02.32-.19.84-.09.29-.17.5-.25.78l-.91 3.14zM35.37 32.72c0 .13.05.42.08.5.19.43.76.09.84 1.12-.39 0-.42-.07-.78-.07.05.64.76.53 1.04.05.22-.38-.05-.36-.11-.71.22-.14.36-.02.66-.19.34-.2.63-.78.77-1.13.18-.47.18-.45-.66-.45-.28 0-.2.27-.27.53-.12.44-.19.46-.36.51-.39-.27-.18-.26-.01-.9.07-.27.1-.48.18-.77.08-.28.13-.46.2-.75.09-.36.05-.45.41-.54.19.35-.02.6-.02.62-.03.17 0 .08.02.34h.92s.42-1.63-.64-1.63c-.5 0-.96-.01-1.32.39-.22.24-.35.57-.43.88-.15.56-.51 1.58-.51 2.2zM22.19 32.12c0 1.23.01 1.26 1.2 1.26.52 0 1.47-.88 1.32-1.75l-.69-.02c-.38.21-.25 1.04-.64 1.04-.45 0 .01-.82.15-1.47.09-.41.3-1.21.54-1.49.85.51-.9 1.1.74.97.2-.02.42.23.42-1.04 0-.2-.42-.59-.64-.59-.84 0-1.44.15-1.83 1.12l-.58 1.99zM41.35 32.27c.39 0 .51.05.83.07.02-.29.19-.69.27-.98.18-.67.87-2.51.77-2.92-.42-.05-.99-.13-1.12.21l-.75 3.61z"/><path class="fil2" d="M40.19 26.06h.43c.06.22.03.12.14.3-.32.01-.28.07-.64.07.02.01.04 0 .05.02.08.2 1.08-.29.18.82-.16.19-.67.97-.73 1.17l.21-.01c.02.15-.03.05.04.18.01.01.02.03.03.04l.07.07c.24 0 .41.07.51.06.41-.05.11-.04.26-.37.07-.15.04-.08.12-.17l.68-.99c.17-.31.62-.55.63-1.34h-.99c-.19 0-.4.01-.53.02-.4.03-.34.02-.46.13zM45.43 24.88c-.05-.05-.02-.05-.12-.1l-.38-.05c.18-.35.06-.19.56-.24.24-.03.28-.1.37.24-.17.07-.09-.04-.14.15h-.28zm0 0c.14.1.23.1.37.02.09-.05.2-.19.2-.32-.01-.31-.48-.26-.67-.18-.17-.32.22-.59.67-1.3.34-.55.82-.84.68-1.44-.02 0-.04-.02-.05-.01l-1.05-.03c-.54-.01-1-.14-.85.52l.53-.02c.19.3-.25.48-.57 1.2.2.22.31.3.26.68-.05.37-.15.47-.15.95.36 0 .36-.05.64-.07zM42.31 24.36c.06.15 0 .09.11.18.17-.14.27-.16.57-.07.04.35-.28.55-.46.74.01.4.04.38.28.55l-.32 1.11h.96c-.06.25-.13.28-.42.3-.31.02-.49.07-.73.05-.12.19-.03.02.02.09h1.13c.11-.25.18-.25.14-.59l-.64.02c-.22-.27-.01-.2.07-.55l-.21.01c.06-.25.11-.39.28-.52-.06.32-.02.09-.01.44.26-.19.41-.47.57-.74.2-.36.37-.42.54-.77.37-.75.24-.7-.09-.71-.42-.01-.87.01-1.29.01.16.16.14.16.14.44h-.64z"/><path class="fil0" d="M23.25 13.49c.08-.36.25-.64.5-.81.49.97.48.6 1.42.52l-.5-.07c-.56 0-.53-.57-.99-.89-.15.11-.26.26-.36.44-.21.36-.14.67-1.48.67.04.65.48.41.8.88.18.27.08.32-.01.62-.06.23-.09.43.2.43.51 0 .58-.75 1.66-.25.21.1.25.34.51.08.08-.09.1.09.05-.23-.01-.08-.23-.61-.09-.85.16-.29.51-.21.68-.75l-.19-.08c-.01 0-.03-.01-.04-.01-.13-.03-.23-.01-.34.2-.09.18.01.08-.11.26-.14.22-.25.12-.37.36-.2.4.08.21.08.52 0 .45-.04.18-.69.2.06-.22.12-.05.14-.17.01-.02.03-.02.04-.01l-.49-.09c-.15.31-.07.23-.45.36-.56.19-.25-.41-.19-.73-.24-.13-.41-.3-.71-.37.21-.31.44-.22.92-.22zM30.69 13.61c.23-.25.48-.01.89-.3.3-.22.22-.39.53-.57l.25.42c.14.26.04.2.28.31.66.31.48-.13.8.13-.15.14-.57.47-.63.56-.27.41.03.63.08.82-.65-.02-.13-.27-1.11-.25.07-.14.14-.08.12-.2-.29.05-1.28.82-.64-.44l-.57-.47zm-.21-.42c-.19 0-.2.04-.35.07.06.29.14.3.34.46.44.33.56.38.31.97-.09.2-.07-.15-.09.28-.03.61.65-.09 1.14-.09.45 0 .93.42 1.28.52 0-.59.08-.69-.14-1.04.19-.13.24-.24.43-.37.17-.11.36-.25.57-.3-.11-.44-.89-.44-1.28-.44-.03-.33-.41-.88-.64-1.04-.14.24-.33.66-.55.84-.28.23-.22.05-.51.07-.43.03-.08.06-.31.09h-.05c-.27 0 .08-.04-.14-.04z"/><path class="fil1" d="m30.69 13.61.57.47c-.64 1.26.35.49.64.44.02.12-.05.06-.12.2.98-.03.46.23 1.11.25-.05-.19-.35-.41-.08-.82.06-.08.48-.41.63-.56-.32-.26-.14.18-.8-.13-.24-.11-.13-.04-.28-.31l-.25-.42c-.31.19-.22.36-.53.57-.41.29-.66.05-.89.3z"/><path class="fil2" d="M36.29 17.48c0-.68-.48-1.04-1.06-1.04-.31 0-.39.14-.6.17-.25.03-.2-.13-.61.06-2.31 1.07.98.81 2.27.81z"/><path class="fil0" d="M38.56 21.99c.6-.01.68-.84.98-1.86.4-1.37.79-1.71.3-2.06-.47.13-.64 1.13-.83 1.8-.19.71-.56 1.4-.45 2.12zM2.98 18.33c-.07.17-.12.25-.16.41-.37 1.55-.31 1.24.69 1.06.29-.05.46-.04.56-.3.04-.1.23-1.3.26-1.51-.42-.04-.3.09-.67.19-.2.06-.49.08-.68.14z"/><path class="fil2" d="m19.49 17.12.21-.01v.26l2.8.02c.03-.44-.33-.34-.88-.72-.23-.16-.1-.15-.4-.22-.17.31.05.18-.18.39-.47-.06-.23-.36-.85-.25-.49.09-.58.07-.7.54z"/><path class="fil0" d="M29.13 22.07c0 .39-.02.09.07.3.41.04.47-.24.57-.58.22-.69.85-2.05.85-2.67-.58-.14-.6.21-.91 1.19-.1.3-.58 1.47-.58 1.77zM16.02 32.72c0 .49-.03.16.07.37.42-.06.63-.95.74-1.37.12-.5.47-1.28.47-1.73 0-.28.02-.03-.07-.22-.21.01-.29-.11-.48.53-.14.48-.73 2.19-.73 2.43zM26.37 27.39c.22.02.13 0 .28.07.2-.32.37-1.01.52-1.45.16-.48.4-1.07.4-1.66-.2 0-.34-.11-.52.49-.09.3-.17.58-.25.85-.14.45-.43 1.17-.43 1.69z"/><path class="fil1" d="M16.8 23.55h1.56c.09-.42.58-.89-.01-.84-.54.05-.68-.04-1.26-.05-.21.45-.2.7-.28.89zM4.82 22.58c.38 0 .36.03.5-.29.15-.35.57-1.66.57-2-.37.03-.08.01-.28.08-.02.01-.03.01-.05.02-.46.17-.38.08-.53.71-.08.34-.23 1.08-.21 1.48z"/><path class="fil0" d="M26.08 32.79c.19-.04.09.06.26-.17.14-.18.29-.83.34-1.05.29-1.23.57-1.32.25-1.81-.35.27-.85 2.59-.85 3.03zM10.7 21.7c.75.12.54-.19.88-1.08l.09-.2.05-.1c.07-.2.05-.15.05-.39-.41.26-.48.16-.75.62-.14.24-.31.81-.31 1.15zM43.16 21.99h.43c.24-.38.36-.84.48-1.28.08-.28.1-.13.06-.47-.24.11-.17-.01-.4.2-.09.08-.25.31-.31.41-.19.34-.26.64-.26 1.14z"/><path class="fil1" d="M41.18 33.6h.78c0-.41 0-.25.12-.56.18-.46.07-.41-.47-.41-.38 0-.43.07-.52.35-.07.23-.22.61.09.61z"/><path class="fil0" d="M24.95 22.29c.66.13.55-.25.85-.96.08-.19.13-.25.14-.52-.67.02-.98.85-.99 1.48zM33.67 21.03c-.21.32-.24.25-.37.72-.13.48-.3.64.26.68.2-.24.59-1.17.53-1.41-.08-.34-.15-.08-.42 0z"/><path class="fil1" d="M6.24 16.3c1.34 0 .76.15 1.28.3-.09-.28.07-.39-.05-.84l-.95-.05c-.24.12-.28.29-.28.59zM21.63 31.13l-.01.33h.21l.5-1.63c.09-.2.19-.24.21-.52-.33.06-.34.28-.52.8-.13.39-.24.3-.39 1.02z"/><path class="fil2" d="M30.05 17.41c.29 0 .78.07.78-.15 0-.35-.09-.3-.33-.4-.37-.15-.12-.11-.45-.27l-.18.69c.02.13-.14.12.18.12z"/><path class="fil0" d="M22.42 25.96c.47-.05.72-.89.31-1.21-.25.19-.42.53-.45.89-.02.27-.05.13.14.31zM39.12 32.79c0 .14.3.37.47-.25.04-.16.03-.21.08-.36.09-.3.18-.23.02-.57-.16.11-.34.26-.42.45-.06.14-.15.53-.15.73zM34.38 25.32c0 .17.57.42.57-.89-.41.1-.57.37-.57.89zM33.95 30.72c.44.11.57-.23.57-.67 0-.15-.48-.46-.57.67z"/><path class="fil1" d="M42.29 27.23c.25.02.43-.03.73-.05.3-.02.36-.05.42-.3h-.96l-.19.35zM45.43 24.88h.28c.05-.19-.03-.08.14-.15-.09-.34-.13-.27-.37-.24-.5.06-.38-.11-.56.24l.38.05c.1.05.06.05.12.1zM42.31 24.36h.64c0-.28.02-.28-.14-.44-.39.02-.47.03-.5.44z"/><path d="M25.11 17.31c.2.12.27.1.54.1-.01-.33-.05-.23-.07-.52-.24.02-.17-.06-.47.42zM7.92 15.45l.11.16c.43-.48.65-.38 1.46-.38.74 0 .87-.12 1.2.41-.1.5-.28.8-.28 1.33.06-.01 2.15-1.1 3.44-.33.95.57.27 1.03 1.88.57.66-.19 1.37-.72.92-1.34-.56-.71-2.24.22-2.5-.86-.25-1.02 3.47-3.26 2.01-4.02-.65-.34-1.72.65-2.13 1.08.05.48.35.88-.09 1.86-1.05 2.38-3.85.37-2.5-.9.08.88.07 1.52.95 1.54 1.71.04 2.15-3.54-.61-2.66l-.77.45c-.15-.1-.11-.06-.21-.22.16-.67 1.41-1.92.8-2.6-.99-1.1-3.81 1.97-3.81 4.49 0 .9-.16 1.26.13 1.44zm37.21-.92-.27-.08c.05.22-.01.11.14.22l.13-.15zm-5.8 1.4c.14.17.32.06.57-.07-.13-.29.02-.19-.21-.37.03.35.14.43-.35.44zm6.64-.64c-.29-.36-.41-.66-.84-.77l.84.77zm-.94-.83c-1.19-1.06-2.68.69-2.69.99.31.07 1.01-.05.62 1.03-.41 1.14.88.04 1.18.01.38.11.09.12.43.18.18.03 1.01-.04 1.48.15.16.17.06.13.35.15-.12-.57-.04-1.33-.44-1.66l-.95-.84zm-7.05 2.5c.38-.03.54-.45 1.39-.39-.38-.05-1.05-.35-1.39.39zm1.84-5.69c0 .82.18 1.24.57 1.85.35-.11.41-.25.79-.36.29-.08.62-.11.91-.23-.52-1.63-2.27-2.1-2.27-1.26zm.78 3.7c-.23-.06-.29-.13-.35-.37.27.15.32.05.35.37zm-.6-.67c0 .42.27.83.57.93.58.19.07-.2.41.02 0 0 .21.26.61.2.45-.07 1.03-1.31 2.13-1.59.04-.46-.33-.66-.74-.85-.43-.2-.42-.23-1.14-.06-.76.18-1.85.46-1.85 1.36zM25.63 2.39c-.11.16-.1.12-.12.37.45-.13-.01-.12.51-.72.11-.13.17-.2.27-.36-.31.09-.54.41-.66.72zm5.17.72.03-.57c-.02.01-.03.02-.04.04-.11.39-.69-.27-.96-.34l.75.63c.17.11.06.1.22.23zm-10.12 8.9c.65-.41.99-1.23 2.84-1.34 3.67-.22 4.68 3 3.97 4-.32.45-1.31.7-1.47 1.5-.08.43-.01.96.13 1.24.83 0 1.65-.01 2.48 0 .57.01.73.14.85-.37.36-1.59-1.02-1.57-1.12-2.6-.17-1.67.3-2.4 1.62-3.32 1.44-.91 3.65-.54 4.69.57.15.16.51.6.62.68.2-.44.25-.71.11-1.22-.23-.8-.37-.22-.26-1.23.29-2.54-.55-5.65-3.04-6.35.01-.29.07-.28 0-.43-.18.19.03.33-.28.57-.03-.35.08-.45-.21-.67v.3c-.45-.01-1.53-.44-2.84-.44-.27 0-.49-.03-.75-.05-.65-.05-2.12.16-2.12.16l.44-.57c.49-.5.43-.24.51-.57-1.08.6-.2.48-1.47 1.13-.22.1-.51.1-.73.16l-.14-.48c-.06.89-.16.08-.39.78-.33-.32-.09-.2-.35-.01-.42.31-1.95.68-2.77 2.81-.66 1.71-.26 3.53-.37 4.36-.09.74-.92.45-.21 1.65.15-.13.13-.07.25-.27z" style="fill:#ff0"/><path class="fil1" d="M40.12 26.43c.36 0 .32-.07.64-.07-.11-.18-.09-.08-.14-.3h-.43c-.01.02-.11.19-.11.19-.07.33-.03.08.04.18zM39.98 28.72l-.07-.07c-.01-.01-.02-.03-.03-.04-.07-.13-.03-.03-.04-.18l-.21.01c-.11.17-.28.33-.33.48.24-.01.39-.15.69-.2zM16.05 18.37h-.11v.3c.3 0 .29.03.5-.07-.05-.16.03-.09-.12-.18-.13-.07-.12-.04-.27-.04zM17.51 22.13l.28.01c-.07-.16-.12-.29-.14-.52h-.14c-.01.04-.04.23-.04.24-.04.15-.02.1-.1.2.06.07-.02.03.14.06zM29.49 22.66v.22c.23-.01.3.06.33-.13.03-.24-.11-.27-.25-.31-.05.09-.07.08-.07.22zM32.46 17.99c.12-.13.07-.04.13-.21-.04-.09-.08-.38-.28-.17-.15.15.07.32.15.38zM15.1 29.89c.1-.2.07-.16.05-.41l-.19-.17c-.03.05-.11.53.14.58zM40.97 28.94c.19.05.13.07.28.07.27 0 .18-.02.21-.22h-.5v.15zM33.67 21.03v-.22c-.22.01-.26.03-.43.07v.15h.43zM43.02 26.2l.06-.06c0-.35-.05-.12.01-.44-.17.13-.23.27-.28.52l.21-.01zM19.7 17.37v-.26l-.21.01-.08.29zM8.29 32.05c.28-.02.22.04.28-.22h-.28v.22zM13.4 28.65l.28-.08c-.15-.21-.04-.08-.28-.21v.3z"/></g></g></svg>