<svg xmlns="http://www.w3.org/2000/svg" xml:space="preserve" width="74.319" height="99.806" style="shape-rendering:geometricPrecision;text-rendering:geometricPrecision;image-rendering:optimizeQuality;fill-rule:evenodd;clip-rule:evenodd" viewBox="0 0 158.67 213.08"><path d="M78.74 6.88c0 3.27.84 3.14.3 5.41-3.52 0-4.22-.07-6.66 1.61-5.68 3.93-3 10.71.34 12.32.35.17 3.01 1.08 3.52 1.14 2.21.26 5.33-.76 4.32 1.81-.56 1.43-1.91 3.14-3.13 4.04-1.36 1.01-5.07 2.6-6.86 2.83-2.73.36-5.38.4-7.76-.84-2.21-1.15-4.55-2.37-4.59-5.11 5.5-1.41 7.53-2.51 7.62-7.79.08-4.86-2.73-8.52-8.23-8.52-1.62 0-3.71 2.1-3.89-.05-.06-.66.36-1.24.27-2.51-.26-3.86-6.02-9.39-9.91-6.72l14.86 37.33c1.38 3.56 2.6 2.47 10.46 2.44 1.64-.01 3.36.3 4.65.3.9 0 1.66-.28 2.79-.31 1.01-.03 2.08.01 3.1.01h17.68c11.29 0 7.96 1.28 14.77-2.78 3.98-2.37 3.03-2.71 3.96-4.69l2.89-6.17c1.33-2.85 2.25-5.12 3.55-8.24.64-1.55 1.17-2.73 1.76-4.1 1.24-2.84 4.84-11.25 4.84-12.99 0-1.39.13-1.49-1.37-1.49-3.39 0-6.68 2.46-7.89 5.97-.77 2.24.35 4.32-1.43 4.48-1.3.11-1.01-.49-2.15-.49h-2.79c-2.31 0-5.47 4.8-5.47 7.67 0 4.99 1.13 7.21 5.82 8.95 5.3 1.97-9.87 11.31-19.21 1.55-.95-.99-2.32-2.9-1.68-4.36 2.82-.89 5.17.4 7.8-1.5 5.31-3.84 3.78-12.88-2.83-13.79-1.27-.18-3.4-.09-4.16-.33-.61-1.95 2.02-6.97-1.75-9.99-2.29-1.84-6.06-3.03-10.22-.73-2.02 1.12-3.34 2.77-3.34 5.61zm-3.67 66.81c.04 1.72 1.59 2 3.91 4.31 1.72 1.72 4 3.96 6.97 2.85 1.02-.38.24-.02.94-.56-.82-2.58-.45.55-5.54-4.04-.65-.59-1.93-1.58-2.61-2.06-.99-.69-2.31-1.27-3.67-.5zm35.64-19.63c0 1.19.14 3.49 1.61 3.69.17.02.42.2 1.5-.15 1.63-.53 3.4-1.77 4.67-2.85 5.98-5.11 5.87-9.63-2.09-5.18-1.2.67-5.68 3.27-5.68 4.5zM21.64 80.51l19.39-1.42 8.51-1.91c.78-.09 2.32-.23 3.03-.47.59-2.97-4.36-1.65-5.17-1.63l-18.62 1.5c-.61 0-.77-.3-1.86-.3-1.93 0 .87.72-3.54-.13-6.81-1.31-3.56-.33-10.64-2.95L.79 67.22c-.63.01-.06-.28-.5.21-.84.93.43 2.46 1.21 3.69.22.35.74 1.07 1.05 1.43 4 4.57 13.14 7.96 19.1 7.96zM5.15 77.79c.06 1.49-.11.96 1.43 3.12 5.43 7.61 13.18 10.15 22.87 8.06L44.22 85c9.91-2.54 14.07.64 15.89.64 7.26 0 2.45-10.96-9.42-6.83-3.01 1.05-18 4.75-21 4.99-3.47.28-6.21.2-9.6.01-2.23-.13-4.15-.48-5.97-1.45-1.71-.91-2.55-.82-5.36-2.69-1.51-1-1.79-1.41-3.6-1.89zm122.87-34.2c.86 1.16.39.42-1.02 3.25-1.46 2.94-4.13 7.02-6.49 9.29-3.19 3.08-5.15 4.5-9.44 6.08-2.75 1.02-2.92 4.61-.66 4.89 1.24.15 6.5-2.85 7.23-3.26 3.84-2.19 4.3-3.94 9.18.12 1.86 1.55 5.11 5.29 6.47 7.5.95 1.55 1.7 2.51 2.7 4.42.66 1.27 3.06 4.03.11 4.03-1.48 0-3.85-.91-9.62-.91-1.48 0-2.11.25-2.21 1.81 2.4.1 4.17.69 6.42 1.33 2.44.7 3.59 1.47 5.51 2.52 5.05 2.77 6.16 7.01 8.28 7.62.07-1.53.14-1.11.04-2.54-.08-1.13.02-2.24-.11-3.35-.55-4.79-2.76-11.14-4.86-14.95-1.94-3.53-5.81-7.9-9.09-10.5-4.9-3.87-4.68-2.1-1.15-7.79 2.45-3.95 3.25-5.56 4.68-9.89.32-.97.64-1.99.72-3 .18-2.12-1.22-1.71-4.21-1.71-6 0-15.85 3.18-21.03 7.21-1.56 1.21-8.36 5.61-3.8 7.36 1.42.55 2.36-1.3 5.15-3.54.53-.42.96-.71 1.42-1.07 2.48-1.92 4.16-3.03 7.69-4.16 1.32-.42 6.12-1.4 7.13-1.22 1.51.26.4-.08.94.45zm19.03 165.76c.29-1.41-.2-2.36-.72-3.51-1.75-3.89-5.23-.02-3.57-4.18.34-.85.71-2.43 1.25-3.1h1.08c1.13 1.44 4.55 11.48 5.95 13.76 1.47.22 2.77.02 4.19.22 2.3.32 1.38.32 3.42-.5-.3-2.06-5.04-13.02-6.18-16.02-.69-1.82-.94-4.18-3.03-4.41-1.98-.21-5.31.01-7.46 0-3.65-.03-3.72-.03-4.72 2.74l-4.31 10.52c-1.58-1.37-.83-1.58-.83-4.27 0-7.32.91-9.28-2.52-9.3-1.9-.02-4.25-.27-5.32.61-.58 1.17-.65 18.91-.05 20.18.59.75 1.97.69 2.85.69 2.32 0 8.67.18 10.08-.21 2.76-.77.85-2.74 3.65-3.11 2.42-.31 4.43.43 6.23-.08zM51.1 91.38c-6.98 0-6.73.06-13.31-1.95-4.26-1.3-.75 8.8 2.77 12.11 1.68 1.58 4.71 3.14 6.77 3.77 1.02.32 1.82.2 3.05.66-.09 1.92-3.21 3.25-4.85 8-2.09 6.08-1.79 4.09-1.79 11.48 0 2.33 1.11 6.87 2.09 9.01.6 1.3 0 .61.92.99 1.89.77 7.22-6.06 9.09-7.73 1.73-1.54 4.08-4.61 6.56-6.47 1.35-1.01 1.86-.6 2.15-2.4-6.95 0-11.5 7.19-15.98 7.24 0-4.09-.27-6.63 1.07-9.83 2.15-5.13 5.95-8.48 10.61-11.13 4.55-2.59 7.5-2.45 6.72-3.86-.35-.63-.06-.85-2.96-.39-3.16.5-21.78.91-21.24-4.55 1.92-.23 5.95.74 9.09.05 4.79-1.06 12.96-4.36 16.54-7.57l4.1-4.33c1.48-3.24-5.25-1.26-5.8-.82-.73.59-1.33 1.68-2.16 2.49-1.64 1.61-3.59 2.53-5.83 3.52-1.49.66-5.58 1.71-7.63 1.71zm59.3-18.07c0 6.54 1.34 7.03 4.28 13.03 1.67 3.41 2.22 8.53.14 11.92-1.47-.75-1.15-1.66-1.64-2.95l-1.58-2.75c-3.97-6.25-10.44-7.38-9.82-4.24.78 3.92 2.49 4.72 1.21 11.79-.44 2.4-1.13 5.12-2.54 7.05-1.43 1.96-1.5 2.16-2.81 2.09-.54-1.46 2.32-6.74-4.23-15.28-.55-.72-.74-1.09-1.97-1.09-1.67 0-.44 2.94-1.58 7.7-.29 1.2-.93 2.12-1.52 3.13-.8 1.36-.98 1.76-2.65 1.11 0-1.25.51-6.08-1.07-6.5-.67-.18-3.14.35-3.71 2.04-1.07 3.15 3.33 3.76-2.53 9.54-.58.57-1.22 1.23-1.78 2.28-.36.67-.82.43-.12 1.5.63.96 2.56.64 4.42.64 3.14 0 6.45-2.97 8.8-4.91 4.14-3.42 3.56-.52 1.04 3.85-.52.89-2.88 4.55-2.33 5.23.69 1.75 2.12.63 3.44.18 1.7-.57 2.46-.84 4.04-1.53 2.37-1.03 4.68-2.87 6.27-4.57 1.92-2.06 3.94-5.83 5.01-8.69.22-.59.4-1.62.53-2.3.32-1.64.39-3.17 1.12-4.38 2.54 1.94 1.75 11.13 2.81 14.67 2.26.05 2.37-.7 3.99-3.21 5.2-8.07 5.83-17.22 3.14-26.31-1.24-4.19-.43-3.1-3.39-7.56-.81-1.21-2.38-3.35-3.76-3.64-.6.47-1.19 1.1-1.19 2.14zm-85.9.85c1.25.03 2.93-.85 3.94-1.48 1.32-.83 2.22-1.62 3.61-2.29 7.36-3.52 5.35-3.8 12.22-3.22 5.8.5 5.47 4.76 9.74 7.25 3.63 2.12 10.27 2.91 12.81 4.59 1.13.75 7.33 3.23 5.99-.09-.77-1.91-4.02-4.11-5.82-4.78-.84-.31-1.43-.59-2.44-.95-3.64-1.33-6.39-2.17-9.38-4.25-1.51-1.05-2.63-2.11-3.83-3.32-1.16-1.17-2.09-2.35-3.82-3.03-2.6-1.02-2.64-1.12-5.56-.63l-5.52 1.31c-1.36.42-3.78 1.68-5.45 1.04-.84-3.18 3.04-8.91 5.85-10.56l3.5-2.06c6.04-2.57 15.14-.94 16.47 2.22.77 1.83.1 5.95 3.92 8.5 2.73 1.82 5.56 2.77 9.34 1.61 2.99-.92 6.42-2.69 6.15-6.24-3.48-2.1-3.25.21-4.85 1.39-4.47 3.3-10.32-.02-9.69-3.81 3.62-.83 2.08 2.89 5.52 2.79 3.58-.11 2.67-3.28 5.91-3.28 3.27 0 6.02 1.93 8.77 1.15l.18-1.01c.63-3.73-8.54-5.43-13.3-5.27l-6.32.43c.01-2.91 1.09-1.71 1.1-3.9-.73-.24-2.74-.53-3.72-.44-2.07.19-1.63 1.17-3 1.61-.92.3-2.4-.45-3.5-.84-6.44-2.28-13.35-.75-18.15 2.73-4.12 2.98-5.03 5.06-7.28 8.55-1.81 2.82-3.22 9.26-3.74 12.68-.28 1.87-.52 2.15.34 3.61zm112.53 49.22c-.99-.4-.89-.77-1.55-1.65-2.77-3.7-.75-1.09-3.2-3.61-2.6-2.68-13.77-5.97-12.72-2.17.16.57.42.71.73 1.13 4.33 5.92 5.18 13.97 5.2 21.11.03 12.39-8.39 20.33-10.61 19.06-1.07-.61-.97-4.35-2.04-6.97-1.67-4.06-3.36-8.1-7.06-10.94-1.85-1.42-2.28-1.54-4.11-2.42-1.33-.64-.07-.59-1.48-.23 1.48 2.16 2.65 2.79 4.17 5.31 5.91 9.81 3.1 20.85 5.01 23.87 1.1-.03 5.13-1.82 6.13-2.4 5.58-3.26 8.84-6.64 12-13.08 2.91-5.96 4.64-14.51 2.79-21.22-.2-.74-.62-2.83-.9-3.46-.19-.42-.9-1.23-.92-2.16 0-.07 0-.17.01-.24l.13-.46c.44-1.68 4.29 4.13 4.65 4.85l3.03 7.15c1.85-.46 3.11-3.88 3.89-5.69 4.96-11.51 6.63-26.34-1.54-36.95-2.11-2.74-7.65-7.77-11.32-7.77.55 2.29 12.14 12.68 12.07 27.67-.03 6.14-.13 4.18-1.09 9.07-.27 1.39-.06 1.67-1.24 2.21zm-84.54 20.08c0 8.18 3.52 16.82 8.59 22.61l6.08 5.71c1.39 1.06 1.96 1.97 3.99 1.36.28-3.93.13-10.19.88-13.34.59-2.5 1.98-9.41 4.63-9.84 2.18 4.86.47 22.1-1.71 28.51-.64 1.88-1.43 2.94-1 4.84 3.41.57 11.08-.95 14.47-2.2 8.17-3.01 11.85-8.7 15.03-16.28 1.33-3.18 1.83-8.28 1.83-11.74 0-2.91-1.7-8.23-3.57-10.62-.28-.35-.1-.21-.46-.49-.51-.41-.16-.23-.82-.46-.72 1.25.33 7.54.33 8.77 0 1.13-.25 1.2-.31 2.48-.04 1.01.06 2.1-.01 3.11-.29 4.28-2.14 10.06-4.36 13.37-2.32 3.46-5.85 6.58-9.99 7.62-1.59.4-4.17 1.12-4.9.42-.66-1.17 1.16-9.7 1.16-11.79l-1.08-17.49c-.55-2.98-1.37-7.3-2.51-9.53-3.97.04-7.72 7.38-8.95 10.37-2.24 5.45-2.51 13.58-3.59 14.98-4.29-.18-9.21-13.06-9.21-16.96 0-3.02-.36-7.75.35-10.49l1.22-5.29c.27-1.19 1.27-2.63.33-2.68-1.98-.12-6.42 9.9-6.42 15.05zm44.83 47.84c-2.79 0-1.83 2.89-1.87 5.24-.05 2.53-.1 5.06-.13 7.61-1.41.04-1.11-.08-1.52-1.02-.26-.6-.39-1.08-.69-1.77-.57-1.32-.76-2.46-1.43-3.85-1.62-3.34-1.62-6.21-3.97-6.21-12.56 0-9.85-1.23-13.3 6.8-.31.73-.64 1.49-.96 2.22-.36.84-.44 1.4-.72 2.08-1.49 3.63-6.3-.39-8.56 2.87-.77 1.12-1.05 2.12-3.03 2.46-5.65.95-7.59-6.22-4.56-10.38 1.56-2.14 5.21-1.87 6.84-.08.88.96.81 1.65 1.96 2.19.08.02 6.16.29 7.47-.41 1.91-8.11-20.07-13.05-24.61-2.28-1.87 4.43.32 4.48-4.79 2.53-1.57-.6-1.69-.91-3.8-.89-2.78.03-6.26 1.26-7.76-.97-.63-1.97 1.45-2.81 3.1-2.81 2.77 0 3.41 2.65 4.13 3.02.95.12 5.77.16 6.69-.01 2.24-.41.76-2.85-.1-3.75-.93-.97-2.58-2.01-4.25-2.55-3.75-1.2-22.62-2.09-18.06 9.38.81 2.03 3.23 2.82 5.48 3.17 1.78.28 3.62.36 5.5.39 2.09.04 3.04.32 4.26 1.3-.13 2.6-2.72 3.55-5.17 2.68-1.22-.43-1.87-1.21-2.5-1.79-1.47-1.35-1.39-.67-3.11-.67-.42 0-7.97-1.78-5.45 2.73 3.13 5.62 16.73 5.27 21.48 3.14 4.25-1.91 1.66-2.62 4.55-3.72 1.44 1.39 1.84 2.04 3.69 3.43 1.08.81 4.64 1.67 5.49 1.67 10.75 0 4.52.2 10.88-1.51 2.53 2.06 1.86.96 4.02.98.72.01.64.22 1.57.22 4.28 0 2.51-2.53 4.53-3.22 2.64-.9 10.05 2.19 5.96-4.25-.74-1.17-1.82-1.29-3.69-1.29-.5-1.96 1.24-5.02 2.2-5.88l3.95 7.86c1.35 2.6 1.23 6.78 4.74 6.78 13.18 0 11.52 1.48 11.42-7.82-.01-.48-.05-1.44-.01-1.87.15-1.46.68-2.02 1.81-.53l3.56 4.86c2.18 2.92 3.3 5.36 5.85 5.36 3.63 0 7.78.73 7.78-1.61v-18c0-1.15-.18-1.82-1.27-1.82-6.92 0-6.58-.72-6.58 5.55 0 1.38 1.07 3.33-.56 4.69-1.01-.47-3.68-4.34-4.5-5.46-3.99-5.49-.92-4.78-11.94-4.78z" style="fill:#000"/></svg>