<svg xmlns="http://www.w3.org/2000/svg" xml:space="preserve" width="96.011" height="72.002" style="shape-rendering:geometricPrecision;text-rendering:geometricPrecision;image-rendering:optimizeQuality;fill-rule:evenodd;clip-rule:evenodd" viewBox="0 0 136.33 102.24"><defs><style>.fil0{fill:#000}.fil2{fill:#fff}</style></defs><g id="Camada_x0020_1"><path class="fil0" d="M13.85 29.95v6.71c0 .95.12 1.52.12 2.41l-.12 7.34c0 .39.03.89.03 1.28-.03.62-.15.54-.86.51-1.72-.03-3.57.3-5.44.3-.51.65-1.07 2.14-1.28 2.97-.18.71-.33.95-.59 1.57l-3.24 9.03c-.15.45-.77 1.69-.56 2.05.39.65.98 0 .98.71 0 .62-.59 2.32-.74 3.12-.42 2.2-.33 4.34 1.99 5.56 1.57.83 4.22.92 5.41.45 2.02-.8 1.4-.24 1.1 1.37-.06.33-.06.45-.15.8-.06.27-.18.54-.27.83-.3 1.1-.36 2.23-.68 3.3l-.39 1.55c-.59 2.76-.86 2.08 2.79 2.11 1.28 0 5.82-.27 6.77-.62 1.72-.65 1.49.21 2.91.21 1.52 0 1.99 0 3.48-.24.42-.06 1.13-.09 1.72-.06l3.62-.12c.74-.09.62-.33 1.34 0 .54.24.59.48 1.04.8.92.65 2.05 1.57 2.82 2.38l2.23 1.75c.06.06.18.18.24.21l.51.51c.74.71.98.51 1.49 1.04.62.65 1.72 1.34 2.44 1.96.33.3.56.51.92.77l1.72 1.34c.92.86 1.99 1.6 3 2.44 1.22 1.01.83.95 3.03.95 2.38 0 4.93-.15 7.25-.21.62 0 .92-.12 1.69-.12l6.89-.09c.83 0-.06 2.17.68 2.64.15.09 2.61.8 2.82.8.15 0 .98-.27 1.25-.3 1.4-.18 1.04 0 1.46-.95.12-.3.09-.18.36-.42.48-.42.3-.45.45-1.07 1.07.03 1.16 1.43 1.66 2.02l.51.8c.59 0 .77-.3 1.34-.42.39.24.62.59 1.01.8 1.37.65 3.12.42 4.28-.39.36-.27.45-.45.74-.74.36-.36.42-.48.71-.83.62-.77 1.22-2.29 2.44-1.84.36.12.09.12.59.24.92.21 2.29.12 3.12-.18l1.1-.39c.39-.18.68-.36 1.01-.48.74-.24 1.16-.48 1.69-.95l5.79-4.96c.3-.3.45-.42.77-.68l2.02-1.72c.21-.18.18-.18.42-.39l1.22-1.04.06-.06c1.9-1.57 3.68-3.24 5.62-4.78 1.66-1.34 2.08-2.35 3.83-2.76 1.69-.42 2.26-1.66 3.15-1.66.18 0 .71.36 1.25.39.62.06.62-.15 1.22.18 1.46.8 1.78 1.52 3.83.89.95-.27 1.66-1.07 2.76-1.07 3.06 0 3.36 0 5.62-1.52 1.07-.74 2.17-1.4 2.82-2.47.45-.71.62-1.46.3-2.2-.54-1.16-1.22-1.01-1.49-1.84-.06-.21-.09-.27-.15-.51-.15-.48-.09-1.04-.56-1.31l-.51-.21c-.48-.21-.51-.21-1.1-.33-.59-.09-.65-.09-1.07-.33.15-.45.59-.65.95-.98.36-.33.62-.62.89-1.01.95-1.37 1.66-3.15.42-4.58-.54-.59-.95-1.1-1.84-1.34-.33-.09-.45-.12-.8-.27-.74-.3-1.6-.59-2.44-.3-1.22.39-1.75.68-1.75-.27 0-.62 2.05.09 3.3-.39.39-.15.21-.06.65-.18.42-.09.83-.3 1.22-.51 1.72-.89 1.6-1.25 2.76-2.2.33-.24.24-.09.42-.39l.3-.56c.74-1.04 1.22-2.7.42-3.86-.27-.39-.62-.92-1.01-1.13-3.77-2.17-5.41-.62-6.15-.68-.21-.03-.12-.03-.39-.12-.24-.09-.27-.09-.54-.18-.42-.12-.65-.12-1.01-.27 0-1.22.12-4.19-.03-5.11-.21-1.55-.09-3.71 0-4.93l-.12-5.02c0-1.78.33-1.84-1.13-3-.03 0-.06-.03-.06-.06l-9.75-8.32c-.21-.21-.21-.15-.45-.33l-1.13-1.01-.06-.06-5.05-4.34c-.92-.86-2.76-2.26-3.54-3.03L98.25 7.3c-.27-.24-.45-.39-.71-.62l-2.32-1.99-.06-.06c-.33-.33-.51-.42-.8-.65l-.54-.48c-.21-.15-.06 0-.27-.21-.21-.18-.12-.15-.33-.36l-1.25-1.01c-.65-.48-1.66-.21-2.7-.27l-3.03-.12h-6.3c-6 0-12.21-.33-18.27-.33h-9.33c-1.57 0-3.03-.24-4.58-.09-1.07.09-2.5 1.84-3.3 2.5-.33.27-.54.33-.86.62-1.04 1.07-2.41 1.99-3.51 3.03l-2.67 2.41c-.3.27-.48.42-.77.68l-.12.12-.06.06-3.71 3.06c-1.4 1.07-2.58 2.38-4.04 3.42l-2.79 2.29c-.15.12-.09.06-.18.15-1.04 1.1-4.55 3.95-5.67 4.93-.33.3-.45.33-.77.59-.51.36-1.04 1.04-1.55 1.4-1.1.8-1.49 1.31-2.35 2.05-.36.3-1.55.98-1.55 1.4l-.03.09z"/><path d="M13.82 30.01 43.56 4.43l4.16-3.12 41.51.53c3.03.15 2-.43 5.08 2.32l29.83 25.52c1.46 1.16 1.13 1.22 1.13 3l.15 15.06c3.81 1.59 3.17-1.5 8.08 1.25 2.17 1.21 1.46 4.66-.12 5.94-2.97 2.41-.85 1.49-4.64 2.88-1.28.45-3.3-.27-3.3.39 0 1.67 1.27-.63 4.19.56 1.37.56 1.36.16 2.64 1.6 2.46 2.78-2.11 6.13-2.26 6.57 1.61.92 2.58-.24 3.24 2.17.59 2.15 4.61 2.89-1.49 7.01-2.26 1.55-2.56 1.52-5.62 1.52-1.1 0-1.81.77-2.76 1.07-2.92.88-2.2-.92-5.05-1.07-.54-.03-1.07-.39-1.25-.39-.89 0-1.46 1.28-3.15 1.66-2.14.5-8.35 7.15-9.45 7.55-.8.29-9.55 8.96-11.97 9.81-1.6.55-3.17 1.84-5.82.8-2.04-.8-3.15 6.08-8.17 3.8-.42-.18-.62-.56-1.01-.8-.56.12-.71.42-1.34.42-.93-1.48-1.27-2.8-2.17-2.82l-.8 1.49c-.42.92-.03.77-1.46.95-.27.03-1.1.3-1.25.3-.21 0-2.67-.71-2.82-.8-.74-.48.15-2.64-.68-2.64l-15.84.42c-2.59 0-2.71-.56-6.03-3.39l-9.54-7.58c-4.9-4.35-2.97-3.16-8.82-3.06l-5.2.3c-1.43 0-1.19-.86-2.91-.21-.95.36-5.5.62-6.77.62-4.56-.02-3.31 1.34-1.31-8.59.33-1.6.92-2.17-1.1-1.37-1.35.54-8.74 1.15-7.4-6 .15-.8.74-2.5.74-3.12 0-1.3-1.78 1.18-.42-2.76L7.5 48.64c1.9 0 3.71-.33 5.44-.3 1.16.01.82-.01.83-1.78l.03-16.55zm61.2 64.68c-.48 0-.45.36-.59.62.68.06.27.15.98 0v-.62h-.39zm47.78-35.86c0 .24.03.12.12.42.24-.09.65-.15.98-.21v-1.37l-1.1 1.16zM97.28 70.48c.59 0 1.69-.77 1.69-1.99-1.34.29-2.95 1.99-1.69 1.99zm15-16.04c.45.15.54-.21.77.15.36.51-.42.77.8.77.54 0 1.52-.77 1.81-1.25-.65 0-.71 0-1.22.12.13-1.26 4.19-2.99 4.96-4.4-1.16-.23-4.31 2.23-4.66 2.56-1.88 1.72-2.42 1.44-2.5 2.08l.03-.03zm-20.56.95c.8-.15 1.19-.8 1.81-.95.54.68-.06 1.99 1.1 1.99.8 0 1.93-1.6 2.67-1.78 1.19.17-.54 2.23 3.65-.48.54-.36.56-.03.56-.65l-1.57.95c-1.24 0-1.1-.56-.95-1.57-.24-.09-.24-.09-.39-.21-.58.13-5.31 5.46-3.18.8l1.01-1.96c-1.05-.18-2.23 1.42-3.42 2.59-.03.03-.06.03-.06.06l-1.22 1.25-.03-.03zm14.53-2.32c.82.99.49.02-.12 4.19-.09.65-.15.89.48.92.22-2.35.82-3.1.98-3.98.3-1.49.71-1.46 2.35-1.75 2.52-.48 2.85.53 2.85-.98 0-1.42-4.94 1.37-3.98-.62l1.04-2.44c1.44-2.1 3.76.93 3.54-2.2-6.45 0-4.92 4.04-6.86 6.45l-.27.42zm-21.3 3.98c0 2.13 5.44.27 6.3-1.13-.84 0-1.74.83-5.08.83.63-3.91.29-3.51 4.04-4.07.77-.12 1.66.09 1.66-.86 0-.71-2.47-.15-2.73-.06-.12.06-2.26 1.31-1.6.09 1.76-3.26.99-3.89 4.46-3.89.56 0 .36.21 1.1.21.42-1.55.27-1.57-.71-1.57-1.76 0-3.83 1.17-4.66 2.26l-2.7 8.23-.06-.03zm42.81-2.41c0-1.43 1.39-3.01 2.76-2.73.38 1.53-1.66 2.96-2.79 2.76l.03-.03zm-8.71-.83c-.83 0-.48-1.22-.48-1.78l-2.73 1.72c-.45.74.54-.03 1.43-.03 0 1.19.39.71.59 1.25 1.57 0 1.9-1.1 2.32-.74.3.27-.09.71.33 1.19.36.42.62.24 1.01.71-.27.86-1.22 1.49-1.22 2.53.93-.22 1.42-2.4 2.61-2.88 1.99-.8 3.77-2.85 3.54-1.55-.78 4.25 8.48-2.68 4.69-3.39-3.02-.57-1.69-.14-6.03 3.03-3.62 2.65-4.04.26-2.67-.68l3.03-2.11c1.43-2.31-5.51 2.76-6.39 2.76l-.03-.03zM95.46 92.29l16.46-14.05c-2.37-1.35-.56-1.82-6.24 2.97l-9.66 8.29c-.45.54.03 1.25-.33 2.11l-.24.68zm30.25-27.57c0-.95 1.73-2.74 3.03-1.99-.11 1.31-3.03 3.56-3.03 1.99zm-12.95 0c-.26-1 2.17-1.71 2.17-2.23l2.26-1.99c-.28-.92-5.11 2.81-5.11 2.88-2.84 2.11-2.19 1.28-3.06-.15-.15-.24-.15-.03-.27-.42-1.22 0-2.79 3.01-2.79 4.1.78-.26.27-.58 1.69-2.41 1.3.6 1.04 1.4 1.84 1.16.39-.12.59-.48 1.04-.56.74-.15.27.36.51 1.07 2.05 0 2.7-1.9 3.98-1.99.3.56.3 1.78 1.75 1.22.95-.39 1.4-1.52 1.4.18 0 .42.95.89 1.22 1.16l-1.46 2.64c.77-.03 1.88-1.95 2.26-2.67l3.09-1.81c2.42-2.04.04 1.6 1.9 1.34 3.38-.47 6.43-4.87 3.36-4.87-.8 0-.45-.24-1.04-.36l-3.92 3.09c-.63.41-3.92 2.76-3.92.77 0-1.55 3.86-2.28 3.86-3.77-1.59 0-4.51 2.59-6.15 3.33-.89.3-1.1-.62-.59-1.57-1.36-.53-2.58 1.77-3.98 1.9l-.03-.03zM44.54 89.77l-4.31-3.71c-1.43-.98-1.72-1.6-3.06-2.58-2.64-1.93-.77-1.25-4.25-1.25l16.67 13.82 17.89-.45c.36-.03 1.75.21 1.75-1.4 0-.64-4.19-.09-5.17-.09l-7.75.24c-8.71.3-4.93-.07-9.69-3.15l-2.08-1.43zm44.51 3.6c0-.9 1.99-2.62 2.67-2.62 2.08 0-.67 3.4-2.53 3.06-.09-.3-.12-.18-.12-.42l-.03-.03zm-14.77-1.9 3.15-4.4c1.59 0 1.55 3.81 0 4.16l-3.15.24zm4.49-6.3c.24-.39.48-.54.48-1.16-1.57 0-1.43 1.17-2.91 1.49l-3.15 5.73c-.84 1.25-2.67 1.36-1.43 2.94l-1.22 3.15c1-.57 2.4-3.8 2.53-3.89 0 0 4.99-2.21 4.99-1.16 0 1.01-.71 2.47-.71 4.19.83 0 .35.15 1.25-1.96l2.14-.86c0 2.85 2.08.88.86 2.85-.62 1.01-.98 1.34-.98 2.08l2.17-2.64c.8-1.23 1.82-.98 2.94-1.84.59-.45 1.07-1.13 1.9-1.28.17.73-1.21 3.52 3.36 1.13.91-.47 3.88-3.12 2.56-4.13-.83-.65-1.22-.15-1.63-.27-.64-.17.02-1.53-3.65 1.81l-1.6 1.34c-.17 0-1.72 1.72-3.57 1.72-.2 0-2.06-.67.92-2.59 2.27-1.45 2.08-1.01 2.85-2.35-1.38-.28-6.1 3.03-6.89 3.68-.48.51.09.51-.86.51 0-1.77.65-1.61.62-3.09l.45-3.3c0-2.11-.65-.98-1.34-2.11h-.06zm20.92-4.1c-2.33-.48 1.52-2.94 1.52-3.21l.3-.15c1.89.88-.7 2.61-1.81 3.36zm27.96-9.12 1.34-.92c-.21.68-.62 1.09-1.34.95v-.03zM98.98 58.52s1.8-2.59-2.44-1.28c-5.04 1.56-5.3 10.11-5.5 10.64-.19.49-5.85 3.48-5.85 8.79 0 4.1 5 .03 5.79 0 .28 1.12-1.49 3.65-.59 3.65 1.28 0 1.15-3.1 3.21-4.46 2.17-1.43 1.76-1.31 2.35-.06.94 2 2.86-.77 4.01-.86.61 2.37 2.17 1.07-.18 3.42-.9.9-1.51 1.49-1.54 2.88.71.42.68.59 1.66.21 1.57-.62 4.05-2.25 3.15-4.16l-.36-.83c.62-.36.42-.65 1.31-1.01 1.08-.43-.45 2.61 3.42-.59.36-.3.83-.59 1.37-.71.07.12.23 3.12 3.83-.33.36-.33.65-.42 1.1-.62.14 1.42-1.31 2.1-.95 3.27l3.21-2.23c2.37-2.14 1.47 2.76 4.4-.09.54-.51 1.19-1.1 1.81-1.46l-.24 1.52c-.59 2.2-.42 1.19-.15 2.08 1.92 0 2.68-2.05 4.13-2.2.15.27.24.62.39.8 1.35 1.53 5.4-2.07 5.53-2.41-1.36 0-2.95 2.4-4.28 1.4-1.28-.96 2.73-2.22 2.73-3.42 0-2.46-2.88.47-3.51 1.28-1.26 1.64.44.34-1.9 2.05-1.42 1.04-2.36 1.82-1.22-1.04.39-.98.86-2.23 1.46-3.12.45-.68 1.13-.21 1.13-1.1l.12-1.46c-.33-.03-.27 0-.48-.12-1.41.82.16 1.13-2.67 1.34-.77.06-2.38-.12-2.35.74.03.89 1.93.06 2.97.54l-4.22 4.31c-1.1 0-.21-3.62-3.65-.42-.33.3-.71.62-1.19.74.18-1.41 1.13-1.48 1.1-3.15-1.84 0-3.93 3.24-4.81 3.24-1.81 0-.03-1.66-1.1-1.66l-3.63 2.17c-.34-1.17 6.49-4.58 4.1-4.58-2.13 0-8.97 8.31-8.97 4.28 0-1.53.78-1.57 2.53-3.15 1.84-1.72.27-1.19 1.16-2.56l.56-1.72h-.36v.54c-.84-.52 2.79-6.64 2.94-7.1.06-.18.18-.54-.03-.77-.75.14-1.36 1.84-1.96 2.38-1 .89-2.5 3.25-3.83 3.3 0-1.02 3.61-6.28-.77-3.09l-4.19 3.48c1.77-.13 3.08-2.74 4.34-2.41 0 2.85-2.79 1.37-1.34 3.98l3.51-2.23c1.9-1.43.3 1.28.27 1.4-.84 3.52-.31 3.26-2.44 5.23-.36.34-2.65 3.13-3.65 3.45-2.37.75.88-4.64-3.48-.83-3.31 2.89.78-3.18-4.52 1.75-2.97 2.77-4.8.14-2.35-3.89.83-1.36 3.01-4.88 4.96-3.42.95.71 0 2.14.8 2.14.83 0 1.87-1.07.59-2.73.65-1.11 2.98-.77 3.03-2.2-.64.38-5.49 1.97-5.05.27.51-1.99.02-2.83 3.33-3.33.71-.03 2.08.12 2.08-.59 0-1.45-2.53.21-4.22.21l1.96-3.95 3.62-.12zM15.25 46.87c0 2.47.21 1.4.45 2.35.12.45-.24 1.93.03 2.91.03-.03.03-.09.03-.06 1.11-3.46.15-2.5 1.31-3.3.27-.21.27-.39.18-.77l-.06-16.73 23.44-20.29L48 4.68c1.09-1 4.45-.39 6.54-.39l32.8.36c4.67 0 3.3 1.03 6.42 3.12l26.35 22.52c2.45 2.43 1.72 1.54 1.72 4.78 0 .74-.35 13.74.21 14.68l1.81-.95-.03-15.6c-.49-3.04.93-1.26-2.2-3.98l-10.99-9.33c-.77-.42-.33-.42-.71-.86l-2.7-2.08-6.57-5.82-9.33-7.93c-.83-.7-2.47-.39-4.63-.39-6.04 0-37.59-.9-39.13-.36l-9.24 7.9-22.88 19.49c-.64.54-.52 4.47-.36 5.53l.18 11.5zM51.59.02l30.57.56c2.02 0 4.22-.03 6.06.09 5.38.36 3.36-.93 10.01 4.75l21.6 18.72c1.49 1.28 3 2.82 4.61 3.98 2.97 2.17 2.26 1.49 2.26 3.18 0 2.11.42 2.67.48 3.98v11.94c.27-.12 2.64-.42 3.15-.42 4.57 0 9.79 6.17 1.07 11.23.56.89 4.21 2.18 2.08 6.45-.33.65-.8 1.37-.89 2.17 2.09.86.29-.83 2.23 2.5 1.6 2.74 3.18 4-2.14 7.84-4.1 2.96-5.18.75-8.56 2.64-2.81 1.58-4.82-1.01-6.66-1.01-2.67 0-19.45 15.16-22.13 17.53-1.6 1.4-4.43 2.38-6.92 2.38-.95 0-1.55-.27-2.29-.42-2.79 4.92-5.71 4.41-9.39 3.65-3.55-.73-.58-1.72-4.01-.59-2.61.86-3.68-.15-5.65-.48-1.28-.21-.89-.03-.89-2.26l-13.07.33c-4.86 0-3.33.9-8.08-2.97l-10.4-8.29c-3.86-3.3-1.84-3.5-11.26-2.79-2.05.21-2.7-.27-5.23-.03l-10.99.74c.06-2.85 2.05-6.45 2.05-10.07-10.81 0-7.99-4.59-7.99-9.75-1.82 0-1.43-.28.36-5.11L6.26 47.6c2.17 0 4.43-.33 5.94-.33l.15-17.29c.58-2.1 7.45-7.13 8.88-8.35L44.61 1.75C47.71-.3 46 .09 51.56.09l.03-.09z" style="fill:#ff7e89"/><path class="fil2" d="M66.91 43.23c.71-.15 6.3-.54 6.66-.33.3.15.45 1.31.48 1.69-1.04.62-5.4.65-6.54.42-.27-.48-.59-1.25-.59-1.78zm4.84-1.46c-1.28 0-3.83.12-4.96-.12-.93-3.56 1.3-2.79 1.99-2.88 2.57-.36 4.46-.91 4.66 2.58-.45.24-.98.42-1.69.42zm-7.64-8.5c.65-.3.8-.3 1.46 0-.24.45.03.39-.36.54 0 .36-.74-.09-1.1-.54zm-3.27-.74c-.6-.36-.37-2.57.27-2.35.73.26.54 2.33-.27 2.35zm8.23-3.45c1.31-.24 1.43 2.2 1.93 3.21.23.46.91 1.62-.42 1.34-1.37-.3-.95-.27-1.19-1.6-.09-.51-.65-1.96-.36-2.94h.03zm5.79 5.76c-1.16 0-2.49-5.88-2.47-5.94.2-.64 5.03-.93 6.3-1.16l10.1-1.22c3.89-.48 4.49-1.19 3.48 1.84-1.29 3.93.02 4.49-7.31 5.2l-10.07 1.22-.03.06zm-17.17-21.6c.48.03.51.06.71.33-.33.15-.24.12-.71.12v-.45zM44.14 36.71c-2.17 0-1.81.39-3.24-.36-.96-.5-.27-.73-1.28-1.43-.56-.3-.71-.06-.62-.86.09-.77-.06-1.28.42-1.87-.55-.66-.12-1.08-.12-2.2h.12c0 .51.15.62.71.74-.24.45-.12.62 0 1.04.36-.21.3-.39.36-.95h.24c.09.33.12.8.24 1.04.77-.48-.18-1.22.71-.83.06.03-.09.48.12.83.36-.21.15-.21.59-.33l.36.62c0-.51 0-.42.36-.62.45.24.36.15.36.74.21-.3.12-.48.86-.62-.19-.6-.67-.37-2.17-.33-.12-.12-.09-.12-.12-.3h2.67c-.15.54-.24.12-.24.95 1.1-.03.51-.51.36-.95.59-.03.21-.09.71 0-.15.54-.48.89.24 1.04.18-.71.06-.42 0-1.04.77.03.48-.09.59 1.37.56-.56-.06-1.01.48-1.37.36.24.3.8.36 1.57.65-.42-.09-1.62.62-1.37.48.18.03.48.24 1.25h.24c.21-2.02-.09-.98 1.93-1.1.62-.03.09-.27.83.06-.21.36-.51.95 0 1.25 1.35-.87-2.11-1.44 2.79-1.25v.33c.59-.15.15-.18.71-.33.65.8-1.15 2.27.48 1.46 0-.62-.12-.98 0-1.37 1.13.09.15 1.16.59 1.99.7-.44.07-1.4.45-2.23.08-.19.91-10 1.78-12.92l.89-4.99c.27-.15.48-.33.86-.42l-1.78 8.91-1.01 10.76c.03.89-.83 1.46-.83 2.56 0 2.46-1.61.08-1.63 2.47-.03 1.34-.39 2.67-.42 4.01.59.11.83.95 1.81 1.16 1.74-8.21 1.5-3.76 2.17-5.76-.24-.09-.65-.15-.98-.21v-.21c.36.06.36.12.86.12 1.69-2.53 2.87 1.46 3.06 1.99.18.51-.03 1.04.15 1.46.31.79.72.79-.03.77l-.06.36c1.19.28.23.05.65.77.36.62.56.06.48.95.62.12 1.72-.3 1.93.42-1.34.09-1.66-.03-1.81.42-1.01-.56-.83-.48-.86 1.37-.02 2.56.56 1.76 2.11 1.31 1.04-.3 1.22-1.16 1.16.56-.06 1.31-1.31 1.22 2.2.86 1.28-.15.4.48 2.05.21 1.75-.27 2.85 0 5.08-.45.39-1.43 1.26-1.03 1.81-1.87 0 0-1.9-9-2.67-9-2.73-2.73-3.99-1.57-6.15-1.57-.06-.27-.12-.42-.24-.62 1.45-.04 4.78-.44 5.35.27 1.78 2.2 1.52 1.01 4.19.98.81 0 13.68-1.41 14.92-2.64l1.22-1.04 2.05-7.67-.12-2.64h.36l-.59-3.15c-.15 1.69.36 3.06-.12 4.81l-24.1 2.56c-1.4-.35-.55-8.7-1.52-9.21-1.23-.66-.86 1.46-1.16 3.71-.32 2.49.34 3.86-1.19 4.1v.21c.58.13 2.17.16 2.32.83.33 1.56-2.2 1.14-3.12.95-.76-2.54.82-.91-1.81-1.66l-2.76-1.16 1.22-5.53c.42-.33.39-.12.45-.54l-3 1.04c.25-.91 1.17-.97 2.91-1.81-.21-.7.1-2.15.86-2.56 5.63-3.02 4.63-2.23 4.49-.39-.06 1.01-.39.45-.62 1.16.98.21 1.13-.09 2.05.12.39-1.4-.36-5.08.54-5.5l20.26-1.13c-.52-1.22-18.69-.42-21.06.27-3.94 1.14-.81.94-6.54 1.69-4.51.59-3.89 2.16-4.52 2.38-2.38.82-4.17 2.7-4.96 2.7v.21c1.07-.03.24-.59 1.22-.21-.41.51-13.02 7.02-13.22 7.75h-.36c-.37-1.48 1.8-2.05 4.87-4.04l12.75-8.05c1.92-1.73 4.88-.67 9.77-2.79 2.2-.95 15.63-1.34 17.8-1.04 1.96.27 3.48-.42 4.96.54 1.8 1.14 1.62-.87 3.24 3.06.36.86.56.68-.51 1.16 0 2.88 2.27 1.14 2.85 3.54l.18 5.41c-.27.33-.62.33-.83.74-.75 1.44.36 2.9.36 3.98 0 1.13.15 3.48 0 4.52-.15.98-1.37.36-.48 1.49 1.06 1.34.12 3.75.15 6.48.07 5.96.3 4.86-2.41 6.21 3.11 0 2.42-1.16 2.85-1.16l.21-11.35c-.36-.86-.06-.56.21-1.25.21-.54.33-4.99.21-6-.07-.58-1.66-2.27.48-3.27 0-1.06-.02-6.25-.65-6.98-.62-.71-2.08-.56-2.35-1.52.27-.27.36-.33.86-.42 0-.68-1.22-4.07-2.23-4.46-3.86-1.48-4.51-1.19-9.15-1.19-4.19 0-12.41-.26-16.46 1.34-4.37 1.72-6.79.79-9.18 2.44L40.55 21.95c-1.84 1.25-.54.71-1.13 2.7l-.8 5.91-.36 4.37c-.01.34 2.43 2.39 3.77 2.38 3.18-.03 2.64.97 4.96 1.04 3.03.09 1.22 1.55 2.32 3.24 1.09 1.68 1.78-1 5.29 2.14.62.55-.37 1.48.54 2.05.59.39.83.03.98.83.45 2.44 2.08 2.63 1.31 1.57l-.86-2.73c-.59-.12-.98.03-1.1-.42-.39-1.44 1.13-.52-1.96-2.97-1.57-1.25-1.88.17-3.24-.45-1.13-.51-.71-2.5-.71-3.48-2.27-.13-2.12-.71-2.82-.65-.64.05-2.45-.18-2.61-.8l.06.03zM22.17 53.81l-.36-2.61c.09-.89.65-.74-2.79-.74-1.14 0-1.34 2.78-1.78 4.96-1.12 5.55-2.38 5.82.3 5.82 1.33 0 .56-1.4 1.6-4.07.15-.39.24-1.16.33-1.6.71.43-.03 3.55-.03 5.53h1.46l1.75-4.64c.09-.51-.06-.48.42-.56.56.77-.98 3.98-.71 5.02 1.19 0 1.37-.03 2.29-.21l2.14-9.42c.39-1.55.24-1.22-1.99-1.22-1.7 0-1.42.7-2.64 3.68l.03.06zM74.43 68.28l1.99-8.97c.55-2.12.93-1.63-2.94-1.63-.83 1.06-1.08 3.8-2.05 4.4-.28-1.02.82-4.33-.12-4.28l-3.27.33-2.05 9.12c.83.39.36.12 1.22.12.62 0 .12.92.36 1.37.7-.08.55-.34.74-1.25l1.07-4.52c.76.93-.32 4.47 0 5.67 2.58 0 1.43-1.26 3.83-6.06.27 1.01-1.74 5.88-.71 5.88 1.04 0 1.07.06 1.93-.12v-.06zM100.07 30.01l4.72 2.94-1.46 4.81c1.28-.08 4.07-3.14 5.05-2.67l4.49 2.7c.45-.45-1.5-3.49-1.6-4.58-.1-1.11 4.82-2.77 4.4-3.54-1.29-.35-5.51.75-6-.3l-1.96-4.4c-1.97 5.81-1.08 4.93-4.34 4.93-.89 0-2.64-.15-3.27.12l-.03-.03zM21.19 32.86c.21.74 3.06 1.88 3.8 2.29 1.41.76 1.49.17.03 4.69-.53 1.65.75.36 2.82-1.13 1.9-1.37.68-1.83 5.76.92.48.27.36.33.92.36l-2.05-4.46 2.91-2.32c.03 0 .06-.03.06-.06.03 0 .06-.03.06-.06l1.19-.77v-.42c-4.68 0-5.52 1.19-6.39-.86-.25-.6-1.25-3.14-1.96-3.33l-.86 3.45c-.55 2.19-1.86 1.47-6.3 1.7zM33.16 80.55c.15-.51.3-.18.45-.89l1.1-5.02c.18-.54.15-1.66.86-1.66 1.24 0-.98 5.42-.98 7.01 0 .52 2.27.51 2.47-.09l1.52-6.27c.3-.88.4-2.04-.74-2.29-1.25-.27-1.75.71-2.56.86-.84-.14.31-1.4-3.51 0 0-.68-.39-.57-2.05-.36-.8.1-.82 2.16-1.16 3.24l-1.19 5.08c-.11.8 1.93.4 2.44.3l1.34-5.88c.15-1.81 1.34-1.87 1.34-1.16l-1.57 7.01h2.29l-.03.12zM15.51 78.88l.95-4.4c.54-1.75.09-1.99 1.1-2.2.76.95-.5 3.74-.68 5.08-.06.51-.33 2.17-1.04 2.23-.57.05-.15-.53-.33-.71zm-1.69 2.53c2.46 0 4.61.17 5.38-2.23l1.37-5.73c.42-3.6-.33-2.7-5.79-2.7l-2.47 10.7 1.55.03-.03-.06z"/><path class="fil2" d="M92.43 32.33c0 .89-.8 1.57-1.04 2.05l-1.43 4.72c-.21.56.09.39-.06.8-.14.42-1.44 2.91-.65 3.65.27.24.51.36.62.71-1.78 0 1.05-1.52-6.74.33-1.2.29-7.7 1.18-7.22 2.05l6.8-.39 6.89-1.37c.12-.21.18-.24.24-.54l4.13-.62c.81-.31.71-2.41.71-3.68-.7 0-3.74 1.81-4.1 1.34-.12-.24-.03-1.34.18-1.63 1.41-1.1 4.45-.58 3.95-2.47-3.52.78-3.79 1.91-2.76-1.43.26-.86 1.14-.73 2.85-1.52 0-1.84.18-1.58-1.34-2.94.98-.56 1.87-.68 1.34-1.66l-1.43 1.07c-.42.56.32.96-1.01 1.46l.06.06zM7.64 70.06c-.52-.88.95-5.12 1.1-6.09.06-.42.21-1.66.86-1.66 1.55 0-1.01 3.22.65 3.12 1.98-.12 2.5.23 2.5-3.3 0-1.9-4.55-2.35-6.24.45 0 0-2.22 7.25-1.52 8.32 1.13 1.72 4.5.85 5.62-.48.56-.68 1.28-2.38 1.04-3.18-.71 0-1.96.09-2.56.21l-.74 2.5-.71.12zM37.17 60.22c3.79.14 2.16-.03 3.95-6.15.39-1.1-.12-1.04.92-1.52.51.82-.3 3.31-.71 5.05-.56 2.56-1.13 2.5.8 2.5.84 0-.09-1.07 1.69-1.87 0-2.45 3.36-8.74-1.52-6.77-.8.33-.62-.3-.59-.42.24-1.66 1.55-1.63-1.63-1.63-.73 0-1.62 4.58-1.69 5.14l-1.22 5.67zM29.42 68.9s1.04-5.88 1.69-5.88c1.08 0 .07 2.21-.24 3.59l-.62 2.5c-.18 0-.86.15-.86-.21h.03zm.59 2.32c2.63 0 2.64-.04 3.18-3.24.32-1.88.62.21 1.22-5.76.12-.95.15-.54-2.2-.54-.15.24-.21.33-.36.54-1.37-.62-.48-.51-1.28-.51-2.76 0-2.3 2.03-2.97 3.74-.16.41-1.86 5.35.62 5.35.77 0 1.16-.59 1.69-.62.21.36.12.21.12 1.04H30z"/><path class="fil2" d="m9.57 57.37 1.19-3.15c.33 1.19.03 1.63-.18 2.79-.12.74.03.89-.92.89-.06-.24-.12-.24-.12-.54h.03zm-3.74 4.4c.58-.15 2.86-3.33 6.33-1.55.36.18-.06.15.54.18l.62-6.89c0-3.54 1.04-2.55-2.53-2.64-1.96-.03-1.22.54-2.17 2.53l-2.79 8.38zM38.36 70.18c.93 0 1.21-.01 1.87-1.52l1.57-6.83c.27-.76.3-.59-2.5-.45l-1.81 7.34-.48.12 1.19-7.43c-.95 0-1.43.12-2.29.12-.09.3-.27.48-.39.8l-.92 4.69c-1.63 5.4 1.43 2.91 2.76 2.91.12.36 0 .33.98.33v-.09zM86.28 67.44c.52.3 2.48.59 2.82-.3l1.72-7.55c.33-.89.39-.8-1.13-.8-2.45 0-1.04 1.35-2.5 5.47-.62 1.28.12 2.02-1.01 2.17-.81-.81 1.1-5.36 1.1-7.46l-2.41.12-1.28 5.7c-.21.89-.89 2.29.09 2.91 1.13.71 1.75-.12 2.64-.3l-.06.03zM34.5 52.02c-.62 0 .09-.36-1.22-.24-2.2.24-1.22-1.09-2.64 5.02-.44 1.87-2.36 4.35 1.6 3.51.83-2.36 1.46-7.37 2.26-7.37 1.09 0-.17 2.42-.36 3.89l-.74 3.57c3.69 0 2.17.28 3.36-3.71 2.3-7.79-1.39-4.66-2.26-4.66zM44.3 79.92c1.12 0 1.46-7.36 2.56-7.49 1.38-.16-.68 3.19-.92 3.6-.42.77.39.77.18 1.81-.18.92-.33 1.04-.03 1.46 4.23-2.35 1.64.62 2.94-2.58l.68-3.15c.04-.25 1.37-4.37-2.79-1.99-.45-.36-.01-.59-2.17-.33-.48.09-.45.15-.83.24l-1.4 6.65c-.51 2.11-1.07 1.84 1.75 1.84l.03-.06zM57.49 58c-1.02 0 .34-3.78.56-4.96.15-.68 0-1.19.86-1.25.45.62-.47 3.55-.71 4.93-.06.39-.27 1.25-.71 1.25V58zm1.22-7.01c-.09-.27-.12-.3-.24-.54l-2.2.12-1.84 7.19c-.31 1.84.47.34 3.06.86.39.68-.39.74 1.22.74 1.8 0 2.48-4.1 2.76-5.68.07-.38 1.53-4.6-1.87-3.21-.36.15-.45.36-.92.48l.03.03zM21.81 70.89c0-.01 1.32-7.55 2.2-7.55 1.01 0-.36 3.29-.71 5.47-.42 2.61-.85 1.99.98 1.99 2.08 0 1.34-2.24 2.38-5.5 1.69-5.3-2.02-2.88-2.85-2.88-.16-.64-1.93-.33-2.35-.15-.7.3-1.45 6.47-1.99 7.55.77.33 1.63.51 1.81 1.16h.59l-.06-.09zM23 79.3c0-.85.78-5.66 1.69-5.85.68.45-.83 5.67-.83 5.67-.46.9-.86.44-.86.18zm-.47 1.78c4.03 0 3.95-2.48 4.58-4.69 1.26-4.44-.54-3.69-.54-4.16-1.15-.57-4.45-.13-5.05 1.93-1.21 4.15-2.34 6.92 1.01 6.92zM58.95 67.03c0-.08.75-4.93 1.55-5.44.27.12.03.03.36.12l-.98 5.26c-.09.48-.98 1.66-.98.12l.06-.06zm2.17.74c1.58-.33.9.01 1.93-3.27 1.92-6.12-3.44-4.38-4.46-3.54-1.3 1.08-3.38 7.69-1.22 8.2.94.22 3.71.47 3.74-1.4z"/><path class="fil2" d="m64.03 57.28 1.22-2.32c.95 1.21-1.19 3.82-1.19 2.32h-.03zm-1.57-3.89c0 .39 1.84.21 2.29.12.54-.98.24-1.99 1.1-1.99.51 0 .98 1.77-1.46 2.61-2.64.91-2.76 2-2.76 4.22 0 1.66 2.8.3 2.91.3.72 0 2.27 1.74 3.33-2.08 1.69-6.12 1.45-7.12-3.15-6.18-1 .21-2.2 1.97-2.2 3h-.06zM79.63 62.1c0-.83.09-1.28.86-1.46.86 1.43-.86 2.47-.86 1.46zm3.03 1.57c.52-1.98.85-3.7-.56-4.31-.95-.42-2.53-.15-3.39.36-1.77 1.06-1.97 3.54-2.38 5.47-.23 1.11-.51 1.22 0 2.11 1.25 2.16 5.24.76 5.88-1.31l.36-1.46h-2.29c-.82 1.64-.06 1.77-1.22 2.32l-.48-.33.83-2.73c1.19 0 1.99-.12 3.27-.12h-.03zM81.8 51.94l.62-1.25c.3.06.48.12.71.21-.15 1.99-1.34 2.05-1.34 1.04zm-1.46 6.39c4.55 0 4.41-3.89 3.74-3.89-2.56 0-1.43.18-1.99 1.52-1.15 2.68-1.43-.78-.68-1.87.61-.9 3.25.36 3.65-1.25.27-1.04.95-2.41-.21-3.3-1.18-.9-3.54-.37-4.61.68-.16.16-4.06 8.08.12 8.08l-.03.03zM52.77 78.26c-.49-.64.76-6.18 1.49-6.18.93 0-.45 3.7-.59 4.93-.05.46-.27 1.25-.89 1.25zm-.71.33c3.03-.62 3.62 1.01 4.43-2.88.15-.68.77-2.67.77-3.3 0-2.51-5.82-2.99-6.6 1.9-.46 2.92-1.49 3.63.03 4.72.51.36.27.54 1.01.59.18-.3.15-.68.36-1.04zM45.64 54.02v.33h2.29l.74-1.99h.59c.95 3.56-4.46 1.44-4.46 5.97 3.77 0 1.69.12 2.85-1.93.06-.12.42-.45.54-.51 1.01-.42 0 1.99-.12 2.44-.3.12-.45.09-.71.21-.07.65-.79 1.26 2.2 1.16 1.18-.04 1.14-.57 1.81-4.07.48-2.53 1.76-5.56-2.76-4.69-2.16.41-2.51 1.8-2.91 3.12l-.06-.03zM15.04 69.76c0-.79.87-6.34 1.75-5.91.57.27-.51 4.09-.71 4.9-.18 1.1-.68 1.13-.03 1.13 2.97 0 2.18.11 3.18-3.33 1.57-5.42-2.66-4.52-4.1-3.74-1.74.94-2.14 3.6-2.5 5.7-.09.54-.8 2.73 1.1 2.73.15-1.4.27-1.01 1.34-1.46l-.03-.03zM82.66 84.74c0-1.01.36-1.9.36-2.94 0-3.53 1.1-3.38.95-.95l-.48 3.98c-.12.18-.86.65-.86-.12l.03.03zm-1.57 1.99c2.58 0 4.21.37 4.55-1.9 1-6.79.51-5.32-.62-6.21-.63-.49-.23-1.5-3.71-.77l-.71 7.04.48 1.9.03-.06zM48.91 66.91c0 1.67-1.34 1.51-1.34 1.04 0-1.34 1.01-1.25-1.57-1.25-.59 0-1.26 2.21-.03 2.76 2.77 1.26 5.47-.64 5.47-3.39 0-1.46-2.53-1.66-2.73-2.64-.06-.3-.03-1.22.68-1.22.92 0-.06 1.25.59 1.25 3.95 0 1.79-2.82.59-2.82-5.16 0-4.94 3.99-3.51 4.93l1.81 1.37.03-.03zM60.26 87.89c.21 0 .51-.09.62-.21l1.81-9c-2.49 0-2.16.29-2.35 1.87-.15 1.16-.56 1.9-.56 3.27h-.24l-.12-1.78c0-1.76.68-4.33-2.29-2.73l.18 6.66.18 1.93h2.76zM47.93 82.66c0-.83-.39-1.37.24-1.99.83.18.59 1.1.59 2.41 1.82.41 2.17.3 2.17-2.7 0-1.16-2.61-1.28-3.54-.86-1.66.74-2.14.45-2.14 2.85 0 .54.24.65.24 1.16 0 1.86-1.25 5.26 1.69 5.26 2.85 0 3.65-2.47 3.27-3.89-.65.06-1.19.21-1.93.21 0 .68-.15 1.6-.59 2.2-1.4-.27.08-.17 0-4.64z"/><path class="fil2" d="M53.48 84.11c0-.77.42-.83.59-1.46l.24 2.32c-.89.18-.86.24-.86-.83l.03-.03zm-2.67 4.1c3.6.76 1.23-1.55 3.12-1.66.36.56.24.74.24 1.57 3.67.8 1.74-1.7 1.81-6.63.05-3.57.03-2.48-3.27-2.2l-1.93 8.88.03.03zM65.1 84.44c-.73 0-.45-1.07 0-2.73.53.32.64 2.73 0 2.73zm-1.69 3.36c1.34 0 .54-1.78 1.46-1.78 1.4 0-.24 1.55 1.07 1.57.3 0 1.37-.03 1.55-.27.15-.21-.21-6.57-.3-7.49-.06-.54.21-1.25-.36-1.25-1.1 0-1.87-.09-2.79.12l-1.93 9.12h1.34l-.03-.03zM64.15 70.39c3.05-.65 1.47.42 2.26-1.52.44-1.07-.45-.67-3.83-.47-.51.03-.39.12-.86.21l-1.81 8.29c-.09.57-1.13 1.51 2.44 1.07.74-.09 1.25-.15 2.02-.15.27-.48.27-.51 0-.95l-1.34.12c-.83 0-.03-2.02.36-2.53h1.34c1.83-2.44-.64-2.01-1.1-2.11l.48-1.99.06.03zM74.55 84.44c0-.8.24-1.96.33-2.64.21-1.37-.06-2.38.62-2.38 1.64 0-2.23 8.12 1.75 4.58.74-.66 2.18-8.11-3-5.76-1.86.84-1.54 4.64-1.69 5.56-.66 3.95 2.24 4.46 2.56 2.11-.65-.36-.59.24-.59-1.46h.03z"/><path class="fil2" d="M71.99 72.58c0-.03 1.25-2.35-.89-2.7-4.69-.78-5.77 3.66-3.89 4.69 3.45 1.9 1.17 2.85 1.16 2.85-1.46 0 .71-1.83-1.34-1.57-.36.03-.71.03-1.07.03-2.11 2.47 2.01 1.73 3.39 1.66 2.17-.09 1.69-.36 2.11-1.22.65-1.49.03-2.11-1.22-2.67-2.08-.95-1.19-1.72-1.01-2.38 2.01 0-.17 1.29 1.22 1.4.39.03.95-.12 1.57-.12l-.03.03zM82.54 72.38c0-1.99 1.1-2.06 1.1-1.46 0 1.87-.26 1.46-1.1 1.46zm-.77 4.58c-.21-.54-.24-.39-.12-1.04.39-1.84-.03-2.14 1.84-2.17 1.84-.03 1.25.09 1.84-1.04.36-.71 1.46-1.87.42-2.91-1.41-1.41-5.66-.63-5.97 3l-.71 3.06c0 2.29.36 1.31.71 2.2h.48c.36-1.28-.12-.89 1.55-1.07l-.03-.03zM75.5 72.17c0-.45.24-1.25.71-1.25.83 0 .39.51.36 1.37.86.18 1.16 0 2.17 0 .09-.92.89-1.4-.21-2.32-.36-.3-5.44-1.82-5.44 3.51 0 .68 2.17 1.69 2.5 2.02.59.62-.27 1.1-.03 1.49l1.87.48c2.96-3.82-1.95-4.16-1.93-5.29zM55.56 68.19c-1.33-.6-.51-1.73.09-4.46.61-2.75.73-1.26 1.19-1.99.09-.15.27-.68-.09-1.07-1.15-1.22 1.34-1.26-1.9-1.19-1.43.06-.54.15-.95.95-.27.54-.59.33-.86 1.07-.33.92.36.56.3 1.19-.27 2.91-2.55 6.68-.18 6.68.97 0 2.38.34 2.41-1.19zM26.5 54.76c0 .74.12.54.12 1.04 0 .51-.3.48-.36 1.04l-.36 3.86c.1.05 1.94 1.73 2.88-.86l1.63-7.55c.15-.59-.15-.45-1.87-.45-1.22 0-.65 1.6-1.43 2.23l-.62.68zM86.64 16.28c-.59 1.01-.36 1.13-.36 3.03 0 .62.24.12 1.69.12 1.01 0-.3.3 2.26.39l1.99.74c.86-.39.18-.27.12-2.41-.06-1.34-.06-1.84-.36-2.94l-5.32 1.04-.03.03zM40.8 80.01l1.81-7.25c.15-.24.48-.39.48-.74 0-1.19-1.4-.65-2.91-.62l-1.81 7.96c-.12.71-.45 1.22 2.44.62v.03zM75.38 51.61l-1.07 5.23c2.38 0 2.57.93 3.27-3.65.56-3.67 1.31-.99 1.54-3.36-1.43-.3-.36-.56-.59-1.46-4.01 0-1.63.62-3 1.49-1.07.68-.15 1.43-.15 1.75zM73.09 50.45c-.15-.24-.21-.27-.24-.62-2.73 0-2.42-.92-3.65 5.62-.21 1.1-.33.21-.33 1.72h2.29l1.07-3.68c.83-1.31 1.84-.42 1.96-1.66.06-.8 1.07-3.03-.48-1.78l-.62.42zM68.49 87.47c2.36 0 3.04.06 3.15-.71.34-2.38-1.53-.11-1.16-2.05.24-1.22.27-1.84.3-3.21.06-1.84.86-3.24 0-3.24-1.81 0-1.87-.06-1.93 1.9-.02.96-.93 7.31-.36 7.31zM89.05 81.38l.59-3.03-2.41 1.04-.62 6.39c-.06.54-.24.62.62.65.98 0 2.23.06 3.03-.12.12-.24.54-1.37.06-1.63-.77-.39-1.43.59-1.4-.77.03-2.71 1.93-.55 1.69-2.08-.06-.39-.24-.45-1.57-.45zM41.51 68.6c3.74.72 2.57-1.05 4.07-6.54.18-.68.27-.15.18-.98-.95-.06-1.72.03-2.67.21l-1.57 7.34v-.03zM62.57 24.04c.65.12.92 0 1.81 0l.95-5.76c0-1.01.12-1.13-.8-.92-1.79.42-1.24 2.08-1.69 4.55l-.33 2.14h.06zM67.15 41.33l4.25-.21c1.13.65 1.57.06 1.57-.42l-.86-1.78c-2.17 0-1.1.77-2.41 0l-2.64.42.12 1.99h-.03zM44.18 36.72c1.16.04 3.27 1.83 3.27-1.99l-3.89-.83c0 .65-.24 1.63-.24 2.32l.86.53v-.03zM52.03 38.62c0 1.06-.07 2.44 1.31 2.29.44-6.4.5-3.63 1.69-5.14l-1.93.09c-1 0-.39-1.06-.86 1.78-.09.39-.24.51-.24.95l.03.03z"/><path class="fil2" d="M74.55 77.31c0-.71.12-1.31 0-1.78-.71 0-1.1.12-1.93.12-.48.63-1.07 3.43 1.04 2.05.42-.27.33-.27.89-.39zM91.96 37.26c0 .3.06.3.12.54 2.76-.65 2.79-.96 2.79-2.53 0-.78-1.84.05-2.2.89-.24.54-.68.86-.68 1.07l-.03.03zM94.87 21.01c1.42.6.82-.62.39-4.1-.09-.77.3-1.28-.62-1.34l.15 2.59c.27.77.09 1.96.09 2.85zM82.93 76.92c1.84-.12 1.19-.09 1.4-1.4.09-.51.21-.54.24-.95-.8-.27-.51-.03-1.46 0l-.71 2.29.54.03v.03zM81.08 47.63c1.08-.07 6.47-.7 6.92-1.75l-6.24 1.28c-.54.15-.59-.09-.65.48h-.03zM43.68 59.16c-.3.51-.24.68-.24 1.25 1.9 0 2.79.39 2.79-1.25h-2.56zM40.62 69.73c0 .3-1.06 1.46 2.5.71.09-.36.24-.62.24-1.04-.68-.33-1.75-.09-2.67.12l-.06.21zM28.2 50.66c0 .98.42.59 1.57.54.3 0 .95.18 1.13-.8.12-.67-2.73-.66-2.73.27h.03zM69.23 17.23c1.54 0 2.66-1.34 2.76-1.66-1.13-.47-2.71 1.23-2.76 1.66zM49.74 32c-1.1-1.47-.71 1.15-.71 1.16.54-.35-.07-.99.74-1.13l-.03-.03zM53.6 32.12c0 1.04-.12.92.24 1.16.12-.45.36-.92.36-1.37-.21.09-.39.12-.59.21z"/><path class="fil2" d="M49.74 32c.03.3.06.3.12.54.98-.06.68-.68.59-.95h-.24c-.12.36-.06.33-.48.42zM52.17 32.86c.04-.06.47-1.04-.24-1.28 0 .68-.42 1.09.24 1.25v.03zM86.16 20.59c0 .69 1.13-.05 1.31-.3-.45 0-1.34-.03-1.34.33l.03-.03zM58.33 46.38h.59v-.54c-.97-.18-.59-.19-.59.54zM58.56 40.62c.56 0 .71-.12.86-.54h-.71c0 .36.03.27-.12.54h-.03zM58.68 41.66c.86.06.68.24.59-.54-.51.09-.56.06-.59.54zM58.44 44.8l.45.45c.15-.24.21-.27.27-.54-.33 0-.48.03-.71.12v-.03z"/><path class="fil0" d="M57.73 13.25v.42c.51 0 .39.03.71-.12-.21-.24-.24-.27-.71-.33v.03z"/></g></svg>