<svg xmlns="http://www.w3.org/2000/svg" xml:space="preserve" width="249.853" height="143.165" style="shape-rendering:geometricPrecision;text-rendering:geometricPrecision;image-rendering:optimizeQuality;fill-rule:evenodd;clip-rule:evenodd" viewBox="0 0 165.33 94.74"><defs><style>.fil2{fill:#e13337}</style></defs><g id="Camada_x0020_1"><g id="_2051129843984"><path d="m151.73 56.33-.13-.07c-1.75-.04-7.81 2.93-16.13 2.07-.27-.03-4.89-.42-5.03-.73-.03-.06-.09-.04-.15-.07l.15-1.16c2.03-.41 6.87 2.08 17.09-.47 2.58-.65 4.97-1.49 7.14-2.32.77-.3 4.35-1.74 4.85-2.28.19-.21.43-.56.42-.89-.03-.89.23-.78-.6-.65-1.14.95-10.38 3.3-12.62 3.65-2.26.35-5.39.65-7.7.56-9.51-.35-7.84-.06-7.27-3.72.35-2.27-.14-1.9-.59-3.4 1.21.18 7.55 1.51 8.13 1.22-.48-.4-6.89-1.24-8.17-1.74l-.08-3.81 9.68 1.3c4.18.41 8.94-.63 10.21-.53.21.65.02 4.86 0 5.89l2.1-.39c.04-.03.09-.07.11-.09.92-.61 4.08-1.54 5.64-2.06.72-.24 1.39-.23 1.64-.94-.6-.41-1.62.1-2.24.35-1.34.54-5.48 1.77-6.62 1.64l.07-5.65c.81-.17 1.73-.08 2.51-.21.83-.14 1.38-.35 2.18-.48.86-.14 1.56-.26 2.35-.4.7-.13 1.69-.07 2.13-.58.81-.91.25-5.57.15-6.89-.09-1.26-.07-2.58-.18-3.83-.05-.59-.2-.96-.25-1.55-.15-1.86.7-3.63-2.22-3.26-2.43.31-4.94.54-7.35.12-1.46-.25-1.88-.36-3.47-.22 2.14.85 8.3.68 10.96.52 1.55-.09 2.68 1.36 1.16 1.85-.95.3-6.88-.02-8.26.12l-.03 1.11c1.29.2 3.73.05 5.15.04 2.36-.01 4.15-.61 3.56 1.3l-8.74.37v1.22l8.84-.21-.16 1.21c-2.11.51-6.96-.25-8.82.48l.03 1.36 9.04-.25-.01.88c-2.11.56-7.21.27-9.06.8v1.49l9.34-.62c-.06 1.26-.46.88-1.8 1.03-2.55.29-4.97.64-7.55.59l-.01 1.33c2.76.05 5.44-1.24 9.31-1.17-.01 1.04.01 1.02-.97 1.21-1.67.32-3.27.23-4.81.73-1.23.4-5.81.77-6.88.4l-.1-.28c-.27-1.15.09.87-.06-.3-.19-1.48.2-2.98-.07-4.48l-1.73.09c-.55-4.47-.61-3.93-7.62-3.84-1.52.02-3.77-.25-5.38-.43-1.34-.14-4.59 0-5.53-.24-.81-2.88 1.48-4.04 2.67-5.27 3-3.09 1.13-1.36 6.17-1.84-.94-.24-2.38-.17-3.1-.38-.58-.17-.46-.26-.99-.2-.41.05-.84-.07-1.44-.1-1.48-.07-3.45.36-4.85-.16-.75-.28-.79-.45-1.21-.08.83.52 1.64.39 2.62.58.18 1.13-.13 2.91-.29 3.97-.4 2.69-1.75.78-1.5 2.7.99.28.64.12 1.28-.18l-.11.84c-.81.25-2.97.25-3.78-.05-.33-1.38.34-3.33.48-4.67.1-.92.01-1.65.22-2.59.64-2.88-.2-2.47-.28-4.5l.14-7.82c.31.31.33.72.38 1.17l.51 3.91c.15.99.33 4.24.9 4.85.94 1.02 13.01 1.7 15.65 1.94l10.85.8c1.25.09 3.88.87 5 .38-.62-.36-7.47-.94-8.85-1.09.62-1.7 9.39-7.87 11.81-9.39.78-.49 1.36-.88 2.2-1.36.57-.33 1.77-.68 1.94-1.26-.95.25-3.75 2.15-4.72 2.73-3.22 1.92-5.91 4.07-8.85 6.38-1.66 1.3-2.38 3.28-4.88 2.56-.58-1.1-1.58-4.74-2.02-6.24-.38-1.3-.33-2.14-1.71-2.36-3.61-.58-6.87-1.37-10.52-1.85-1.16-.15-2.27-.45-3.46-.58-1.12-.12-2.65.08-3.27-.97 2.97.08 15.93 2.5 19.01 3.36.07.91-.24.32-.14.67.68-.56 1.03-.35 1.61-.82 1.62-1.3 2.57-1.78 4.5-2.77 1.43-.73 5.57-2.54 6.58-3.23-.95-.66-10.63 5.35-11.51 5.5-2.5-2.87-2.27-2.25-7.71-3.56-2.14-.51-1.15-.03-2.44-1.23l-.15.3c-.15.27-.03.1-.19.31l-8.92-1.41c-.83.06-2.07.06-2.98-.17-.07-.21-.19.17-.01-.47.16-.56.61-.6 1.1-.79 1-.37.9-.42 2.18-.41 1.46.01 3.62.1 5.01 0-.96-.36-4.25-.26-5.48-.18-2.81.19-3.11 1.52-4.11 1.77-3.15.8-5.07.22-9.83 1.83.24.19-.24.35.75.09.22-.06.3-.14.65-.24.51-.14.97-.21 1.49-.36 2.7-.78 7.64-.97 10.43-.89-.32.38-.79.52-1.25.76-.37.19-.72.46-.98.69 0 .54 0 1.23.3 1.65.7.96.41 5.91.91 8.57.39 2.08-.01 3.48-.31 5.44-.77 5 .47 4.82-2.13 5.83-.96.37-2.68 1.86-3.16 3.16.38-.23.93-1.04 1.37-1.42.49-.43.92-.73 1.54-1.17.99-.72.5-.6 1.97-.52.91.05 1.84-.09 2.69.2l-.53 1.72c-.98.06-.27-.02-.99-.5-1.59 1.48-3.04-.97-6.77 3.68l-.6-.26c-.03-.07-.1-.05-.15-.07-.5.97-1.53.73-2.74.65-.01-.45.57-1.66.77-2.28.34-1.05.72-1.51.93-2.3 1.01-3.82.7-2.31-.41-4.62 2.67-.15 3.32-2.4 4.01-4.64 1 .17 1.39 1 2.35.5 1.09-.57 1.15-.96.54-1.79 1.19-1.33.96-3.38.9-5.42-.18-6.68-1.58-6.16-6.44-6.05-5.09.12-2.64.69-5.21 1.03.36.37.26.11.5.64-.37.16-1.69 1.36-1.72 1.8-.05.05-.1.05-.13.14l-.27.23c-.29.17.08-.02-.45.17-.59.26-.95 1.27-1.63 1.55-.87.35-2.02-.23-3.07.34-1.42.76-.72.61-2.73.6-20.8-.07-41.49-.38-62.3-.34-4.35.01-4.13 1.52-6.59 6.66-.71 1.47-1.44 2.94-2.15 4.45l-3.21 6.76c-.6 1.19-.7 1.87-1.25 1.96-.4-.89.82-1.29.89-3.01.1-2.36-.77-2.3-.99-3.05.48-.47 1.2-1.14 1.71-1.45.95-.59 1.28-.46 1.87-1.34.55-.83.05-.55 1.15-2.07.59-.8.93-2.8 1.9-4.36.45-.72.69-1.37.97-2.23.95-2.92-.17-3.16-1.06-4.63.39-.81 1.26-1.87 1.86-2.38.78-.67 1.83-.87 2.99-1.25 3.91-1.3 9.43.19 11.32-1.04.73-.47 1.52-1.69.89-2.9-.46-.88-3.86-2.78-4.94-3.35C39.83.62 36.59-.51 30.52.25c-4.89.61-8.81 2.26-12.19 4.54-5.37 3.62-12.34 11.5-12.48 21.28-.1 7.05 2.65 13.47 7.53 17.76.72.64 1.57 1.21 2.45 1.78.41.27.79.53 1.27.77.57.29.93.36 1.2.83-1.71.27-2.06.41-2.74 1.68-.47.87-2.05 5.6-2.05 6.46-.01 1.55.93 1.88 1.62 2.71-.3 1.49-1.32 4.08-1.85 5.67-.42 1.26-1.38 4.8-1.96 5.44-3.38.23-4.36-.22-5.46 2.86l-3.8 12.66C1 88.44-1.09 92.12 1.04 93.92c1.08.91 6.01.66 7.54.45 2.48-.34 1.18-.15 3.22.31 1.3.29 2.23-.21 3.6-.26.94-.03 3.03-.17 3.8-.04 1.64.27 1.6.6 3.44.2 1.56-.34 1.8-.68 2.93-1.12.95.38.63.81 2.36.9 1.03.05 2.18-.01 3.22-.02l25.05-.21c1.47-.01 1.74.14 2.92.29 1 .13 1.5-.33 2.66-.32 1.11.01 2-.04 3.07-.1 1.11-.06 1.62.22 2.64.35 1.96.25 3.37-.66 4.79-1.21 1.04.4.45.8 2.36.85l6.42-.01c1.16.15 1.53.4 2.85.25 1.08-.12 1.72-.54 2.51-.68.64-.12 1.36.52 2.44.63l6.16-.36c2.11-.31 2.37.95 5.4 0 1.78-.56.81-.45 2.39.07 1.06.35 1.74.23 2.78.03 1.55-.29 4.55-.15 6.3-.17.8-.01 2.45-.29 2.85-.25.99.09 1.04.66 2.73.46 1.46-.17 4.67-.52 6.08-.35 2.54.31 2.89.67 5.31-.47 2.67-1.26 4.23-4.28 5.01-7.88.22-1.02.05-2.25.22-2.96.1-.45.78-1.06 1.14-2.12.56-1.66 1.1-3.49.51-5.49-1.54-5.21-7.97-2.44-8.54-2.47l1.19-5.25c.78-2.89 1.01-5.56 1.95-8.75 1.44-.26 6.49 1.01 11.84.48 1.68-.17 8.81-1.66 9.66-2.34z" style="fill:#000"/><path d="M155.69 44.97c-.12-1.74 2.36-1.77 2.9-1.58.16 1.48-2.25 1.79-2.9 1.58zm-18.93-16.65c.2-.11.41.09.53-.58.17-.96-.23-.68-.28-.72-.47.22-.32-.34-.39.54-.02.19.1.61.14.76zM109.86 39l.06-.75c-1.75.05-1.25.21-1.4.49.17.1.11.1.39.18l.94.07zm25.38-10.69c.34-.14.7.16.63-1.25h-.56c-.15.22-.16-.27-.22.53-.04.51.04.46.14.72zm-14.64-5.64c.38-1.22-.12-1.89-1.02-1-.99.97.14 1.22 1.02 1zm.32 16.93c.52.01 1.27-.1 1.72-.05.79.1.5.35 1.14.51-.02-.52-.34-.8-.59-1.35-.89-.08-1.99.02-2.27.88zm21.37-4.24c.42.59.74.59 1.69.35 1.05-.26 1.05-.16 1.04-1.24-.98-.05-2.34 0-2.72.89zm-2.17 3c-1.42-.06-2.48-.39-2.56 1.14-.03.71.11.69.79.71.48.02 1.15-.01 1.64-.04.24-.64.16-1.13.12-1.81zm5.7-2.48c-.55 1.13-.45 3.51.04 4.5 1.58.18 1.31-.2 1.29-1.63-.01-.93-.1-2.02.02-2.96l-1.35.09zm-18.6-8.44c.79-.31.8-.79 1.27-1.44 1.2-.04 1.36-.3 2.47-1.62.11-.13.19-.19.26-.37.15-.37.15-.07.01-.31-.76-.36-2.46-.16-3.41-.05l-.6 3.79zm13.87 15.54c.03.03.09.05.12.06.89.32 9.11-.11 9.59-.4-.08-.79.01-.68-.89-.72-1.88-.08-7.75-.04-8.82 1.06zm.22-2.94c.71.11 2.93.08 3.34-.27.79-.67.29-2.1.06-2.98l-3.25.13c-.23.68-.28 2.26-.15 3.12zm-26.43.6c.21-.92.59-1.91.44-3.04-1.14-.17-4.01.37-4.81.82-.09.94.8 1.75 1.28 2.01.63.34 2.32.26 3.08.22zm-1.23 5.07c.33-.71.91-3.58.59-4.5l-2.28-.11c-.29.57-.31 1.51-.54 2.18-.24.71-.58 1.25-.68 2.03l2.92.4zm11.6-.3c-.18-.93.04-1.54.72-1.71.02.92-.05 1.45-.72 1.71zm1.22.08c.75-2.78.23-6.92-2.07-7.16-.26 1.39 1.41.84 1.6 3.98-1.93-.56.29-2.07-1.51-2.49-.28.62.3 2.39.25 3.51-.06 1.42-.81 2.38-.74 3.18 1.38.14 2.15.21 2.48-1.02zm-3.72-1.15c.65.6.86.23.61.75-.28.6-.21-.08-1 .02-1.27.16-.74.93-2.27-.08-.09-1.24 0-2.61 1.09-3.02 1.67-.62 1.56 1.13 1.57 2.32zm-3.83-1.02c-.01.1 0 1.97 0 2 .12.52.13.27.37.65.17.28.02.16.28.56 4.1.59 4.05-.11 4.52-2.7-.29-.32-.29-.21-.67-.51l.25-.15c.04-.02.09-.05.12-.06.04-.02.09-.04.12-.05.24-.1.11-.02.36-.1-1.07-4.76-2.43-2.15-2.5-2.1-.54-.39-.15-.48-.85-.66-.54.36-.53.33-.44 1.16-1.63.06-.61.22-1.11 1.12-.34.59-.37-.01-.46.84zm-9.63-25.47c3.46.09 2.64.06 5.82-2.18.73-.52 3.07-2.05 3.45-2.63-1.17-.14-2.38-.04-3.55-.04-1.8-.01-1.61.05-2.52 1.07-.45.5-3.11 3.22-3.2 3.79zm34.17 16.41c.29-.02 1.35-.11 1.44-.33.02-.06.09-.05.13-.08-.2-1.97-1.78-1.93-3.78-1.93-2.65 0-15.31-.73-15.91-.31-.28.2-.35 1.46-.32 1.9 1.97.68 3.66.59 4.23.92l-1.86.17c.03.95 2.35 3.23 2.86 4.17.27.49.38 1.08.62 1.52.84.92 9.13 1.03 11.06.99 1.49-.03 2.75.14 3.16-.86-2.4 0-6.2.75-8.25.07-.08-1.14-.04-3.51.4-4.44 1.28-.35 1.99.46 2.2-1.09l-1.05-.26c1.13-.07 2.34-.19 3.5-.29.5-.04 1.03-.11 1.59-.15zm-1.58 16.54c.22-1.56 1.17-1.79 2.75-1.81 1.48-.02 2.82-.23 4.33-.15.58 1.69-1.5 1.59-2.72 1.7-1.46.13-2.88.3-4.36.26zm17.37-1.29c-1.63.08-5.96 2.38-7.67 2.12-.59-2.02.53-2.19 1.79-2.75l6.68-2.11c.07.58.13 1.31.01 1.8-.22.9-.25.39-.81.94zm-6.2-.73-2.1.39c.02-1.03.21-5.24 0-5.89-1.27-.1-6.03.94-10.21.53l-9.68-1.3.08 3.81c1.28.5 7.69 1.34 8.17 1.74-.58.29-6.92-1.04-8.13-1.22.45 1.5.94 1.13.59 3.4-.57 3.66-2.24 3.37 7.27 3.72 2.31.09 5.44-.22 7.7-.56 2.24-.34 11.48-2.7 12.62-3.65.83-.13.57-.24.6.65.01.33-.22.68-.42.89-.5.54-4.08 1.98-4.85 2.28-2.17.84-4.56 1.68-7.14 2.32-10.22 2.55-15.05.06-17.09.47l-.15 1.16c.05.03.12.01.15.07.13.31 4.76.7 5.03.73 8.32.86 14.39-2.1 16.13-2.07.64-.58 8.64-2.83 9.46-4.78.33-.79 1.22-11.17 1.38-12.88.08-.9.28-2.33.23-3.2-.06-1.02-.38-1.87-.43-3.08-.04-1.12-.12-2.21-.2-3.38-.32-4.99.7-5.21-4.73-5.94-1.26-.17-5.65-.48-6.44-.83.31-1.25 6.8-5.45 8.05-6.35 1.21-.86 2.93-2.01 4.39-2.73 1.03-.51 1.55-.45 1.93-1.61.34-1.07-.41-1.82-1.59-1.58-1.44.29-7.94 4.55-9.02 5.37-1.43 1.09-2.83 2.03-4.14 3.14-.8.68-3.25 3.01-4.02 3.23-.48-.46-1.87-4.84-2.07-5.74.38-.32.04-.08.5-.28.07-.03.39-.13.47-.17 1.09-.5-.13-.45 2.24-1.8l7.2-3.63c1.28-.6 2.84-1.08 2.42-2.9-.8-1.63-4.75.71-6.36 1.53-9.17 4.68-4.8 3.26-7.95 1.64-.65-.33-1.76-.54-2.5-.71-.87-.2-1.75-.37-2.6-.61-1.03-.28-1.99-.31-2.47-.94-1.1-1.44-1.54-2.01-3.63-2.79-3.23-1.21-7.79-1.14-10.74.59-1.97 1.15-3.39.58-5.47 1.12-1.63.42-3.62.73-5.04 1.41-2.16 1.03-1 2.88-1.57 5 .21.33-.15.07.47.13.03-.45 1.35-1.64 1.72-1.8-.24-.52-.14-.27-.5-.64 2.57-.34.13-.91 5.21-1.03 4.87-.11 6.26-.64 6.44 6.05.06 2.04.28 4.09-.9 5.42.61.83.55 1.22-.54 1.79-.96.5-1.35-.32-2.35-.5-.69 2.24-1.34 4.49-4.01 4.64 1.11 2.3 1.43.8.41 4.62-.21.79-.59 1.26-.93 2.3-.2.62-.77 1.83-.77 2.28 1.21.07 2.24.32 2.74-.65.05.02.12.01.15.07l.6.26c3.73-4.66 5.19-2.2 6.77-3.68.72.47.01.55.99.5l.53-1.72c-.86-.28-1.78-.15-2.69-.2-1.47-.08-.98-.2-1.97.52-.62.45-1.05.74-1.54 1.17-.43.38-.99 1.2-1.37 1.42.48-1.3 2.2-2.79 3.16-3.16 2.6-1 1.37-.83 2.13-5.83.3-1.96.7-3.36.31-5.44-.5-2.66-.21-7.61-.91-8.57-.31-.42-.3-1.11-.3-1.65.26-.23.61-.5.98-.69.46-.24.93-.37 1.25-.76-2.79-.09-7.73.11-10.43.89-.52.15-.98.22-1.49.36-.35.09-.43.18-.65.24-.99.26-.5.1-.75-.09 4.76-1.61 6.69-1.03 9.83-1.83 1-.26 1.3-1.59 4.11-1.77 1.23-.08 4.52-.18 5.48.18-1.39.09-3.54.01-5.01 0-1.28-.01-1.17.04-2.18.41-.49.18-.94.23-1.1.79-.18.64-.06.27.01.47.91.23 2.15.23 2.98.17l8.92 1.41c.16-.2.04-.03.19-.31l.15-.3c1.29 1.2.31.71 2.44 1.23 5.44 1.31 5.21.69 7.71 3.56.89-.15 10.56-6.15 11.51-5.5-1.02.69-5.15 2.5-6.58 3.23-1.94.99-2.89 1.47-4.5 2.77-.58.47-.93.25-1.61.82-.11-.34.2.24.14-.67-3.08-.86-16.04-3.29-19.01-3.36.62 1.05 2.15.85 3.27.97 1.19.13 2.3.43 3.46.58 3.65.48 6.91 1.27 10.52 1.85 1.38.22 1.33 1.07 1.71 2.36.44 1.5 1.44 5.14 2.03 6.24 2.5.72 3.22-1.26 4.88-2.56 2.95-2.31 5.63-4.46 8.85-6.38.97-.58 3.77-2.48 4.72-2.73-.17.58-1.37.93-1.94 1.26-.83.48-1.42.87-2.2 1.36-2.42 1.53-11.19 7.69-11.81 9.39 1.37.15 8.23.74 8.85 1.09-1.11.48-3.75-.29-5-.38l-10.85-.8c-2.64-.25-14.7-.93-15.65-1.94-.56-.61-.75-3.87-.9-4.85l-.51-3.91c-.04-.45-.07-.86-.38-1.17l-.14 7.82c.08 2.03.91 1.62.28 4.5-.21.94-.12 1.67-.22 2.59-.14 1.33-.81 3.29-.48 4.67.81.29 2.97.3 3.78.05l.11-.84c-.64.3-.29.46-1.28.18-.24-1.92 1.1-.01 1.5-2.7.16-1.06.47-2.84.29-3.97-.97-.18-1.78-.05-2.62-.58.43-.37.46-.2 1.21.08 1.4.52 3.37.09 4.85.16.6.03 1.03.15 1.44.1.53-.06.41.03.99.2.72.21 2.16.14 3.1.38-5.04.48-3.17-1.24-6.17 1.84-1.19 1.22-3.49 2.39-2.67 5.27.94.24 4.19.1 5.53.24 1.62.17 3.86.45 5.38.43 7.01-.09 7.08-.63 7.62 3.84l1.73-.09c.27 1.5-.13 2.99.07 4.48.15 1.18-.21-.85.06.3l.1.28c1.07.37 5.65 0 6.88-.4 1.54-.5 3.14-.4 4.81-.73.98-.19.96-.18.97-1.21-3.87-.08-6.56 1.21-9.31 1.17l.01-1.33c2.59.05 5.01-.29 7.55-.59 1.33-.15 1.74.23 1.8-1.03l-9.34.62v-1.49c1.85-.53 6.94-.24 9.06-.8l.01-.88-9.04.25-.03-1.36c1.86-.74 6.72.03 8.82-.48l.16-1.21-8.84.21v-1.22l8.74-.37c.58-1.9-1.2-1.3-3.56-1.3-1.41 0-3.86.15-5.15-.04l.03-1.11c1.38-.14 7.31.19 8.26-.12 1.52-.49.39-1.94-1.16-1.85-2.65.16-8.82.33-10.96-.52 1.59-.14 2.01-.03 3.47.22 2.41.41 4.93.18 7.35-.12 2.92-.37 2.07 1.4 2.22 3.26.05.59.2.96.25 1.55.11 1.26.09 2.57.18 3.83.09 1.32.65 5.98-.15 6.89-.44.5-1.43.45-2.13.58-.79.15-1.49.26-2.35.4-.8.13-1.35.34-2.18.48-.78.13-1.7.04-2.51.21l-.07 5.65c1.14.13 5.29-1.1 6.62-1.64.62-.25 1.64-.77 2.24-.35-.26.71-.92.71-1.64.94-1.56.52-4.72 1.44-5.64 2.06a.87.87 0 0 0-.11.09zm-57.27-1.12c1.55.25 9.41.13 10.98-.08l2.12-5.65-4.44-.1c.11-1.16 1.81-5.56 2.25-6.27l3.71-.04c.59-.87 1.96-4.37 1.97-5.59l-3.62.05c.17-1.06.99-2.91 1.37-4.06.72-2.14.44-1.31 4.68-1.46.34-.45 1.95-4.87 2.08-5.66l-10.42.01c-.34.61-1.14 2.85-1.39 3.57l-9.28 25.29zm59.26-5.18 2.63-.61c1.64-.08.02-.5 3.22-.73-.17.46.35.73-1.28.77-.76.02-.92.06-1.6.24-.79.21-2.35.69-2.97.33zm-15.05-14.85c.37-.02.84-.02 1.26-.07.83-.1.53-.26 1-.24.42.02.07.14.86.22l3.98-.1c.33-.03.25-.06.56-.01.38.06.16 0 .39.16l-.02.74-3.55-.31c-1.23-.13-1.93.33-2.76.15-1-.22-1.96-.03-2.79-.24.22-.22.09-.23 1.09-.29zm-8.39.85c-.21-.03-.87.36-.55-1.24.13-.64.22-.63.89-.63 2.39-.01 3.45-.1 5.81.13l-.17 1.74c-1.29.17-2.64 0-3.56-.45.35-.72.52.2.56-.92l-1 .1c-.4.84.39 1.4-.88 1.28l-.04-1.14h-.96c-.14.55-.02.34-.04.67v.12c0 .03-.01.09-.02.11l-.06.21zm-2.91-21.69c1.39.15 3.45.43 3.98 1.57-.87-.07-1.67-.28-2.43-.42-1.11-.22-1.5-.02-1.55-1.15z" style="fill:#fefdfd"/><path class="fil2" d="M9.88 28.05c-2.12-1.81 1.76-7.47 2.98-8.18-.18.5-.81 1.26-1.14 1.76-2.5 3.69-1.56 5.78-1.84 6.42zm14.51-11.98c.29.35.18-.16.17.62 0 .28-.56 3.31-.44 4.3l.79.5c-.18.63-.31.25-.18.91.1.52.19.21.24.95-1.34.47-1.54.4-2.48-.59-.68-.72-1.06-1.29-1.32-2.37-.26-1.1-1.3-5.74.72-5.63.43-1.43 2.09-2.43 3.57-1.43.1 1.66-.84 1.17-1.08 2.75zm.73 2.42.35-1.72c.44-1.6 2.16-4.47.83-5.05-.76-.04-.44.11-.89.13l-.53-.11c-.02-.06-.09-.04-.12-.08 1.65-1.48 3.52-.13 2.32 2.29-.36.72-.72 1.39-1.02 2.2-.26.7-.3 1.86-.94 2.33zm4.08-3.6c.13-1.11 1.72-3.27 2.29-3.96 4.01-4.84 13.04-2.83 15-3.82-.17-.16.03-.01-.31-.23-.13-.09-.18-.1-.33-.19l-3.87-2.22C33.23-.19 23 2.95 16.24 9.06c-4.99 4.51-9.11 12.31-8.1 19.63 1.33 9.62 7.18 16.35 16.8 17.86 1.3.2 5.55.3 6.56-.06-.09-.57-2.57-2.02-2.99-2.31-7.47-5.06-4.09-5.58-5.29-7.74-.58-1.03-.98-.63-1.48-1.09.97-.44 2.77-1.07 2.68-3.01-.34-.26-.64-.54-1.15-.67-.92 1.24-1.21 1.17-3.22 1.17-4.26 0-4.46.17-7.44-5.76-1.64-3.27.19-4.29.64-4.93.73-1.04 2.11-3.34 2.69-3.9.42-.41 2.08-1.47 2.76-1.64.24.42.91 3.58 1.7 5.59.82 2.07 1.22 3.01 3.21 4.12.62-.19.98-.44 1.72-.55 1.21-.19.94.16 1.84.19.22-.27.86-1.73.96-2.02-.87-.02-1.93.01-2.6-.28-.14-1.22 1.45-2.13 1.96-2.51 1.04-.77 1.33-1.76 2.68-1.37.29-.63.7-1.03.77-1.83-.89.06-1 .34-1.77.56.83-1.62 1.73-1.45 2.02-1.57-.28-1.15-1.15-1.21-1.98-2.03z"/><path d="M83.96 37.44c.2-1.16 4.27-9.74 4.97-10.89l.06.72c-.04.18-.16.49-.21.65L86 37.48l-2.05-.04zM57.27 54.62c.36-1 1.32-3.72 1.44-4.78-1.57 0-8.76-.2-9.59.18-.7.55-1.55 3.48-1.53 4.82l2.25-.07c-.09 1.38-1.99 6.45-2.53 8.16l-2.6 7.99c1.71.14 2.34-.32 3.56.49.16 1.18-.32 1.55-.4 2.08-.05.34-.01.17.01.39 0 .03.03.15.04.13 0-.02.02.09.05.12 1.01-1.11 5.24-16.36 6.69-19.41l2.61-.11zm-29.3-4.53c-1.21-.11-9.01-.14-9.61.14-.59.33-.68 1.16-1.03 2.2-.3.9-.57 1.75-.73 2.61l2.56.05L13.8 71.4c.64.5 1.12.42 1.64 1.04.58.7.32 1.22.7 2.04l1.17-.07 3.29-9.71c.59-1.79 2.6-8.73 3.32-9.73l2.53-.04 1.51-4.84zm39.42-.35-7.33.1c-.67.78-3.59 10.34-4.16 12.06-.67 2.03-3.64 10.86-3.9 12.25l2.35-.1c.46-1.01.38-2.61 1.38-2.99.95-.36 3.2-.18 3.91.16.13.74.02 1.07-.17 1.72-.14.46-.34.83-.16 1.19.7-.32.5-.27.71-1.04.26-.94 1.02-2.32 1.2-3.77l-3.03-.03c-.12-.62.5-2.04.73-2.71.23-.69.5-2.01.73-2.64l2.88-.22c.47-.56 1.33-3.56 1.44-4.44l-2.52-.01c-.06-.54 1.09-4.13 1.44-4.53l2.93-.06 1.57-4.93zm-32.46 5.1c.54-.7 1.52-3.78 1.62-4.83-1.59-.02-6.19-.29-7.3.13-.41.28-7.3 21.08-8.11 24.24l7.89-.11 1.45-4.72-3.09-.1c-.06-.49 1.31-4.72 1.59-5.33l2.68-.09c.57-.62 1.43-3.34 1.5-4.58l-2.55.01c.03-.4.43-1.59.61-2.1 1.18-3.38-.01-2.13 3.71-2.53zm10.53 2.52c.7-2.88 2.89-7.38-1.71-7.8-3.88-.36-5.89 1.97-7.11 4.58-4.32 9.27 2 8.45 1.53 13.03-.12 1.21-.82 3.74-2.33 3.33-.29-1.33 1.04-3.38 1.15-4.89l-4.09.09c-.6 1.12-1 2.99-1.28 4.25-.17.75-.51 1.43-.33 2.23.14.61.54 1.46 1.1 1.61 1.38-2.43-.39-2.59 3.39-2.67 2.94-.06 1.76.11 2.77.26.72.11.38-.14 1.14-.28 1.58-.29 1.26 1.23 3.04-4.56 2.29-7.47-4.35-6.13-2.27-11.4.32-.82.61-1.43 1.61-1.52-.02 1.86-.61 2.33-.75 3.81l4.15-.03zm74.7 7.69c-.26-1.17 2.57-6.76 3.19-8.33.26-.66-.03-.56.45-1.05.11.27-1.6 6.81-1.91 7.85-.38 1.26-.11 1.8-1.73 1.53zm3.37 8.57c.68-2.01 2.22-9.42 2.79-12.03.46-2.12 2.55-10.96 2.64-12.26l-6.33.08c-.98 1.07-4.2 10-5.27 12.14-.64 1.28-4.97 11.42-5.02 12.2l4.46-.07c.5-.66 1.23-3.26 1.76-4.34l1.54.03c-.03 1.42-.89 2.91-1.02 4.28l4.47-.03zm-39.67.48c1.91-.29 3.83-2.79 4.61-4.36.57-1.15 6.66-19.66 6.68-20.18l-4.33.06c-.51.78-3.13 8.95-3.65 10.56l-2.62 8.02c-.33.99-.52 2-1.53 2.04-.44-.86.97-4.24 1.33-5.3l3.34-10.18c.39-1.27 1.53-4 1.55-5.16l-4.28.08c-.69 1.04-1.59 4.41-2.03 5.74-1.18 3.62-2.86 8.28-3.83 11.73-.46 1.65-1.72 4.97.02 6.18.1-.13.09-.11.2-.37l.38-1.15c.22-.51.36-.83.86-.97.71-.21 3.04-.18 3.68.06.64 1.09-.25 2.26-.38 3.21zm16.25-3.36c.89-2.87 6.61-19.32 6.85-21.27l-3.58.17c-.83 1.28-2.78 8.98-3.44 10.07-.12-.17-.07.01-.13-.36-.04-.27.98-7.9.87-9.79-5.05-.06-3.36-.52-5.48 5.42-.77 2.16-1.35 4.26-2.1 6.37l-4.09 12.53c.99.11 3.35.42 3.84-.43l3.19-9.71c.27.43.15.67.09 1.26l-.82 8.86 3.79-.11 1.03-3.01zm10.68-12.59c-.18-1.09 2.45-6.92 2.6-8.72l-4.4.08c-.5.8-1.67 4.88-2.06 6.03-.85 2.54-5.72 16.86-5.85 18.28l4.41-.08 3.3-10.22 1.24.02c.16 1.06-2.91 8.26-3.17 10.23.98.05 3.57.18 4.27-.1.49-.29 8.06-23.25 8.1-24.23-.77-.02-3.43-.11-4.03.04-1.27.32-1.79 6.17-3.43 8.72l-1-.04zm-35.75 15.8c.72-1.82 1.46-4.23 2.03-6.13.9-2.97 5.65-16.51 5.85-18.16-1.26-.04-4.85-.24-5.72.18-.45.3-2.62 5.96-3.18 7.3-.18.43-.33.76-.51 1.21-.4 1.01-.27.82-.74 1.13.21-2.72 1.91-6.91 1.97-9.82l-5.74.13L63.03 68c-.4 1.21-1.86 5.21-1.88 6.08l3.75-.01c.29-.53 4.05-11.53 4.33-12.94.29.36.1-.06.2.45.14.68-2.66 10.76-2.59 12.45l2.46-.02c.42-.17 3.83-8.59 4.5-10.14l1.6-3.35c-.24 1.87-3.54 10.4-4.3 13.52l3.94-.1zM54.55 42.16c.27-1.87 8.34-21.94 8.26-23.02l-6.03.03c-.6.78-4.69 12.31-5.44 14.33-.79 2.13-5.11 13.29-5.27 14.58l9.99-.08c.38-.51 2.01-4.99 2.06-5.87l-3.57.04zm11.6 1.26c-.6-.64 1.31-5.03 1.66-5.98.77-2.1 1.49-3.96 2.26-6.04.74-2 4.21-11.01 4.41-12.36l-6.2.03-5.91 15.98c-1.61 5.01-6.69 13.41 2.7 13.4 7.52-.01 9.54-7.17 11.36-12.22.52-1.44 6.16-16.26 6.28-17.28-1.68-.05-3.43.01-5.13.01-1.49 0-1.11-.1-2.24 2.97-.94 2.55-1.85 5.01-2.8 7.53-.93 2.46-1.89 5.16-2.79 7.59-.47 1.28-.93 2.54-1.41 3.82-.34.9-1.16 3.41-2.18 2.57zm-29.87-5.73-2.1.12c.13-1.06 2.15-4.95 2.69-6.1.54-1.14 2.14-5.22 2.89-5.6-.6.72-.58 1.58-.9 2.71-.31 1.11-.65 1.82-.96 2.93-.36 1.28-1.16 4.99-1.63 5.94zm-9.16 2.96c1.15.61 3.65 2.75 4.77 3.04l.43-.73 2.05-.05c-.11 1-.61 2.05-.44 2.78.27 1.15-.36 1.5-.76 2.43l6.16-.01c.4-.76 1.47-5.77 1.81-7.03.76-2.86 5-19.94 5.14-21.79l-8.99-.02c-.79 1.19-1.82 3.76-2.56 5.24-.93 1.85-7.54 15.3-7.62 16.14zm62 7.06c.5-1.27 4.54-18.41 5.33-21.54l1.75-7.27-9.16.06c-1.15 1.9-2.42 4.98-3.48 7.14-1.18 2.41-2.29 4.75-3.46 7.2-.84 1.76-6.78 13.59-6.69 14.54l6.13-.07c.96-1 1.62-3.99 2.47-5.12l2.11-.08c-.06 1.59-1.08 3.39-1.31 5.19l6.31-.06z" style="fill:#fefefe"/><path class="fil2" d="M37.76 91.14c.33-.59 5.71-18.66 5.68-19.09-1.12-.19-3.65-.44-4.24.58l-2.37 5.95c-.15.25-.09.16-.25.31.17-2 1.26-4.67 1.18-6.81l-3.78.1c-.47.86-2.63 8.02-3.05 9.44-.56 1.93-2.55 8.24-2.8 9.64l2.69-.1c.53-1.23.96-2.77 1.39-4.17.21-.68.36-1.36.59-2.14.18-.62.42-1.53.8-1.97-.15 2.71-1.35 5.47-1.51 8.4 1.73-.05 1.78.21 2.34-1.22.34-.88.62-1.61.93-2.44l1.9-4.63c.01-.07.06-.07.1-.1-.3 2.63-1.96 5.6-2.27 8.35l2.66-.08zm8.85-16.72c.31-.42.79-1.81.8-2.43l-3.06-.05-.7 2.57 2.97-.09zM41.7 91.06c.38-.75 4.68-14.94 4.66-15.66-3.58-.63-3.26.56-3.66 1.89-.2.68-.39 1.35-.58 1.98-.73 2.35-3.14 10.23-3.37 11.86l2.96-.07zm37.58-4.1c-.08-1.64 4.29-13.63 4.22-15.22l-2.81.09c-.98 1.51-2.25 7.21-3.04 9.49l-2.86 9.54 4.99-.03L81 87.08l-1.73-.12zm47.38-1.82c-1.77-.2-2.51-.3-2.89 1.29-.25 1.07-.55 2.45-.02 3.45.45.85 1.87 1.14 2.95.85 3.36-.92 4.46-6.54 3.9-8-.43-1.13-1.28-1.6-1.73-2.36-.47-.8-.15-2.6.85-2.88.43.83-.28 1.22.06 2.35l1.93-.12c1.09-.63 1.81-4.54-.35-5.01-2.43-.54-4.02 1.04-4.75 2.53-2.82 5.75.93 6.63.96 8.38.02 1.11-.36 2.31-1.36 2.32.03-1.24.48-1.42.44-2.79zm-59.89.37c-.89 1.34-1.69 4.94.44 5.58 3.64 1.1 5.26-2.88 5.83-5.49.34-1.56.45-1.69-.25-2.96-.48-.88-1.53-1.73-1.66-2.29-.1-.4.1-2.37 1.15-2.43.12.96-.32 1.31-.28 2.38l2.38-.21c.1-.12.11-.11.22-.34l.68-2.75c-.25-2.88-5-2.74-6.43 1.09-2.39 6.4 1.3 5.78 1.23 8.02-.03 1.13-.51 2-1.3 2.35-.38-.92.57-1.66.29-2.96l-2.31.01zm32.68 2.62c-.19-1.58.89-4.21 1.33-5.73.34-1.16 1.02-4.44 1.99-4.83.13 1.19-.55 2.18-.59 3.27.83.22 1.81.13 2.67.02.58-.82 1.26-3.86.69-4.89-.68-1.24-2.84-1.52-4.28-.53-2.33 1.6-2.83 4.71-3.83 7.86-.72 2.27-2.94 7.97 1.47 7.67 1.65-.11 2.7-1.53 3.37-2.52.41-.61 1.43-2.69 1.47-3.57.04-.95-1.69-.64-2.39-.55-.8 1.51-.83 3.53-1.88 3.8zm-73.94-7.67c.36.37-.05.25.71.21 1.74-.1 1.71-.41 1.92-1.15.88-3 .09-4.86-3.31-3.97-2.57.67-4.32 5.69-3.12 8.06.37.74 1.48 1.85 1.65 2.43.3 1.02-.46 2.36-1.12 2.6-.42-.86.36-1.53.14-2.71l-2.19-.3c-.82 1.33-1.83 4.73-.02 5.63 1.88.93 3.8.01 5-2.03 3.26-5.52.06-7.07-.45-8.12-.33-.69-.39-2.51.73-2.8.51.92-.53 1.44.06 2.16zm58.57 8.14c-.15-1.7 1.12-4.24 1.48-5.86.22-.99 1.02-4.94 2.11-4.98.28.9-1.21 4.63-1.53 5.76-.39 1.38-.99 4.72-2.06 5.09zm6.4-9.25c1.32-5.92-4.19-5.34-5.88-2.13-1.25 2.37-2.53 6.62-3.21 9.53-.44 1.88-.78 4.2 1.61 4.29 4.02.15 5.11-3.83 6.02-6.87.45-1.5 1.14-3.37 1.46-4.83zm-28.96 9.11c-.14-1.77 1.07-4.16 2.04-4.71-.1.88-.52 1.73-.77 2.62-.12.45-.18.87-.37 1.33-.25.63-.32.7-.91.76zm-.89-7.24c1.92.22 2.76.39 3.05-.74.23-.92.56-2.35 1.33-2.58.27 1.83-.58 3.13-1.96 4.01-1.44.92-2.43 1.09-3.31 2.62-.48.83-1.34 3.56-1.48 4.65-.33 2.57 1.88 2.51 3.04 1.16.33.32.04.37.48.58.17.08 2.36.18 2.61-.19a.87.87 0 0 1 .09-.11c.7-1.12-.37.85.14-.24l1.81-5.96c.55-1.85 1.5-4.64 1.78-6.46.71-4.61-6.65-3.97-7.58 3.26zm-45.9 7.45c.35-1.86.91-3.77 2.1-4.6-.08.81-.48 1.88-.72 2.67-.35 1.17-.17 1.94-1.38 1.92zm3 2.55c.94-2.16 1.81-5.5 2.48-7.99.52-1.94 2.66-6.84.11-7.7-3.3-1.1-5.18 2.07-5.91 4.28-.18.54-.7 1.63-.19 1.94.22.13 1.83-.04 2.17-.14.78-.24.66-.79.9-1.62.09-.31.24-.81.33-1.01.31-.74.07-.45.64-.67.29.76-.13 1.62-.42 2.4-.71 1.9-3.8 1.87-4.91 4.26-.48 1.05-1.17 3.49-1.35 4.78-.15 1.1.22 1.69 1.19 1.81 1.1.14 1.49-.51 2.01-.96l.37.79 2.56-.15zm31.38-11.94c.53-1.66.55-1.21.9-1.29.49 1.12-3.2 10.95-3.58 13.11l2.9-.07c.46-.65 4.25-12.99 4.27-14.39.02-.97-.61-1.46-1.57-1.46-1 0-1.33.66-1.86 1.13-.63-.21.27-.01-.1-.94l-2.88.02-4.63 15.69 2.87-.06c.43-.63 2.96-9.53 3.67-11.73zm57.43 8.87c-.27-.62 2.26-8.27 2.73-9.93.2-.69.91-2.77.94-3.21l-2.95.02c-.66 1.15-2.23 7.27-2.77 9.03-.47 1.54-1.1 3.1-1.33 4.64-.34 2.22 1.72 3.02 2.84 1.47.63.21.32.47 1.37.52.57.03 1.23-.03 1.81-.09.57-.27 4.79-14.58 4.8-15.62-3.74-.48-2.83-.07-4.93 6.87l-1.52 5.08c-.27.83-.27 1.13-.99 1.21zm-14.96.03c.17-2.01 3.71-12.05 3.73-13.18l-2.97.16c-.74 1.45-1.73 5.72-2.33 7.64-.59 1.89-2.31 6.2-1.31 8.08 1.28.33 1.9.1 2.61-.67.92.34-.61-.4.26.21.42.29.44.28 1.07.32.66.04 1.21.05 1.86-.08.36-.84 4.59-14.22 4.76-15.67l-2.95.07c-.99 1.88-2.23 7.7-3.13 10.22-.91 2.56-.42 2.8-1.6 2.9zM57.71 75.9c.26-.67 1.02-3.17.94-3.93-2.5-.07-2.8-.34-3.13 1.23l-1.04 3.53c-.68 2.3-4.1 12.87-4.18 14.36l2.76-.08c.67-.92 2.64-8.21 3.21-10.14.34-1.14.43-2.59 1.56-2.91-.39 3.28-3.49 10.48-3.57 13.07l2.88-.02 2.75-9.25c.32-1.14 1.23-3.76 1.21-4.96-.05-3.18-3.38-.92-3.38-.91zM7.32 88.14c.13-1.3 2.61-8.91 3.32-11.23.48-1.56.3-1.13.77-1.34l.12.28c.2.76-.63 2.96-1.6 6.43-.52 1.87-1.22 5.38-2.61 5.85zm-4.14 3.34c2.4-.19 5.54.31 6.88-1.11 1-1.06 1.79-3.71 2.28-5.5.58-2.1 1.19-3.95 1.83-5.96 1.64-5.2 1.67-6.74-2.94-6.71-3.18.02-2.11-.85-4.54 7.2-.65 2.15-3.34 10.59-3.52 12.07zm115.76-3.37c.32-1.04.77-4.22 2.14-4.82-.02.86-.44 1.84-.72 2.75-.32 1.05-.42 1.91-1.42 2.07zm-1.04-13.17c-.98-.08-2.12-.16-3.07.07-.45 1.05-.71 2.68-1.14 3.89-.54 1.53-3.45 11.21-3.35 11.75l2.77-.17c.69-1.18 1.34-4.15 1.85-5.76.89-2.84.8-4.17 3.09-4.56l.34.8 2.39-.18c.93-.72.47-2.86 1.81-3.39.52 4.52-4 4.01-5.31 6.78-.56 1.18-1.31 3.21-1.42 4.68-.07 1.03.15 1.83 1.18 1.93 1 .1 1.54-.54 2.03-.91.02.03.04.08.05.1.21.44.11.76.22.47.01-.03.04.09.06.15l2.49-.13c.58-.92 1.39-4.2 1.78-5.66.59-2.24 2.52-6.8 1.97-8.84-.66-2.43-5.14-1.49-6.55 1.92-.44-.75.44-1.7.66-3.08-1.12.06-1.55.72-2.08 1.13l.23-1.01z"/><path d="M16.69 25.6c.57.59.36 1.1.99 1.43.5.26.31.01.71.3 1.02.75-.83.51 1.81.6.68.02 1.68 1.06 2.88-.34.32.07.75 1.01 1.83.13.35-.29 1.01-1.03 1.2-1.65-1.52-.28-1.71.16-2.69.74l-.85-1.09c-.35-.29-.65-.3-.99-.38l-.43-.09c-.33-.99-.26-.61-.99-1.05.03-.4.11-1.02-.11-1.38-.22-.36-.64-.19-.82-.48.37.09.17-1.31.13-1.56-.7-.47.03 0-.5-.14l-.55-.16c.29-.6.27-.74.19-1.5-1.77-.35-3.01 2.52-3.32 3.61-.26.93-.07.88.61 1.3l.23.15c-.01.57-.1 1.1.14 1.41-.06.66.23.34-.36.58l-.23-.78c-.08-.34-.05-.39-.17-.62-1.11-.02-1.71 1.95-1.07 2.74l.43.4-.07 1.58c.71.23.54.16 1.12-.05-.35 1.13-.08 1.61.33 2.37 1.26.07.21-.52 1.11.12 0 0-.16.8 1.06.55.42-.09.71-.34.81-.67.8.28.2.55.95.66.46.07.57-.18.99-.42.04.03.08.08.11.1 1.13.88 1.79-.46 1.98-1.32.31-1.41.38-2.69-1.24-1.71l-.51-.36c-.33-.17-.01-.08-.56-.21l-.63.73c-.12-.73.01-.24-.33-.5l-.07-.24-1.12.04c-1.23.19-.51-1.41-2.05-.82.11-1.31-.38-1.26.07-1.98z" style="fill:#f7f5f5"/><path d="M21.89 14.75c-.83 1.57-1.27 2.44-.74 4.75.34 1.45 1.09 3.1 2.43 3.27.43-.39.55-.44.69-1.2l-1.16-.28c-.35-1.82.41-1.51.73-2.59.28-.93.11-1.69.54-2.64.24-1.58 1.17-1.1 1.08-2.75-1.48-1-3.14.01-3.57 1.43z" style="fill:#fcd027"/><path d="M26.01 23c.23.87 1.55.62 2.46.44.58-.72 1.04-2.07 1.09-3.22-1.34.04-1.14.46-1.63 1.53-.75 1.63-1.09.7-1.91 1.25z" style="fill:#f8cb27"/></g></g></svg>