<svg xmlns="http://www.w3.org/2000/svg" xml:space="preserve" width="246.933" height="123.532" style="shape-rendering:geometricPrecision;text-rendering:geometricPrecision;image-rendering:optimizeQuality;fill-rule:evenodd;clip-rule:evenodd" viewBox="0 0 108.03 54.04"><defs><style>.fil16{fill:#564837}.fil19{fill:#9b9b9b}.fil11{fill:#b63828}.fil5{fill:#cb7320}.fil13{fill:#e4dad2}.fil4{fill:#f34826}.fil3{fill:#f91a9a}.fil6{fill:#fb6462}.fil21{fill:#fbfbfb}.fil2{fill:#fdfdfd}.fil8{fill:#fed985}.fil14{fill:#ffd882}</style></defs><g id="Camada_x0020_1"><g id="_2015425835312"><path d="M.04 17.37c.17 2.79.62 1.24.22 3.42-.23 1.27-.22 2.6-.25 3.92-.07 2.58.42 4.94 1.22 7.08 3.2 8.49 10.84 14.01 20.19 12.36 2.14-.38 4.29-1.46 5.84-2.43.99-.62 1.55-1.15 2.36-1.77.77-.6 1.33-1.4 2.04-2.13.28.05.55.27.89.43.31.15.75.23 1.02.4.01.26-1.74 5.39.75 6 2.72.67 5.99-6.53 6.36-6.88l1.19.59c-.04 1.57-2.01 3.35-1.46 5.44.2.78 1.54 1.27 2.96-1.07.22-.37.39-.81.77-.99.42.35.4.89 1.17 1.1.46.13.52 0 .92.26 1.93 1.27 2-.42 3.39-.36.42.02.68-.08 1.04-.02 3.61.6 3.97-3.75 4.63-4.49l2.69-.05c-.02 1.58-4.17 12.64-4.32 14.67-.06.81.38 1.25 1.18 1.18.73-.07.95-.54 1.25-1.11.99-1.84 3.15-9.15 3.89-10.42.44.06.58.27 1.09.24.5-.03.59-.28 1.02-.34.18.05.82 1.36 2.3.45.42-.26.56-.54 1.15-.53.92.02.69-.27 1.31.21 1.38 1.06 2.18-.54 2.77-1.52.19-.32.39-.92.9-.73.52.37.07 2.68 1.59 2.64 1.29-.03 1.37-.84 2.27-.84.43 0 .66-.1 1.01-.08 1.71 2.46 3.19-1.82 3.63-1.97.53.02.81.3 1.44.23 1.37-.14 2.37-2.1 2.62-2.22.61-.31 5.4.01 6.07-.32.19-.15.5-2.22.77-2.95.82.07 1.43.52 2.6.47.82-.04 1.85-.3 2.39-.71 1.9-1.45.3-3.26 1.25-4.83 1.09-1.81 2.85-1.54 5.47-3.89l1.66-1.49 2.53-3.25 2.21-3.47v-3.38c-.93-.57-1.36.24-1.8.94-.51.82-3.21 5.32-3.77 5.56-.26-.52.51-2.08-.7-4.16-1.07-1.83.11-2.18-1.7-3.28-5.28-3.2-3.33-1.27-7.1-2.91.14-2.55 2.11-6.83.52-8.88-1.54-1.97-5.13-1.85-6.86-.46-.31.25-.32.39-.68.6-1.03-.28-.5-1.34-4.89-1.37-1-.01-8.11.17-9.01.35-.83.17-.41.16-1.24-.03-1.58-.37-5.67-.13-7.28-.03-.15.19-.11.24-.25.46-.87-.33.3-.38-2.43-.69C58.93.11 59.66.11 58.1.4c-.49.09-2.3-.05-3-.05l-5.25.23c-.45.09-.21.17-.54.15-.08-.01-1.54-.54-2.44-.66-3.37-.44-4.95 3-6.61 2.39-.7-.26-.63-.84-1.54-1.58-1.16-.94-3.53-.89-5.05-.32-4.02 1.53-3.67 7.15-4.36 8.03-.31-.14-.43-.53-.7-.9l-2-2.55c-1.55-1.76-4.83-2.35-6.92-1.71-.79.24-1.33.73-2.1.94-.76.21-1.79.24-2.6.43-2.14.5-4.56 1.77-6.16 3.03-1.27 1-1.74 1.84-3.88 2.19-3.91.64-5.03 3.74-4.89 7.34z" style="fill:#070505"/><path d="m21.66 38.05.35-.03c-.15 1.14-8.02 2.53-9.02 1.11.12-.08-.15-.12.36-.08-.28-.12-2.05-.31-2.83-1.38-.65-.89-.3-.81-.79-1.31-.42-.43-.59-.64-.83-1.32-.08-.09-.02.02-.12-.2-.59-1.33-.33-3.27-1.35-4.52-.3-.36-.72-.73-.86-1.29-.39-.39-.61-.59-.77-1.3.21.11.02-.04.21.14.12-.14.05-.08.23-.18.83-.46.6-.09 1.49-1.29.24-.33.44-.56.71-.89.16-.2.34-.56.64-.58.41-.03.21-.01.32.12.48-.31.69-.73 1.53-.87 1.05-.17 1.41.23 2.1.25.35-.53.66-1.13 1.08-1.59.17-.18.31-.23.5-.41-.04-.07-.25.13.14-.45 1.18-1.78 1.28-1.47 1.49-3.24.59-.08 1.29.79 1.53 1.14.53.77.14.56 1.02 1.71-.12.12.22.1-.21.1 2.29.87 2.24.94 4.4 2.16.57.32 1.67.88 2.43.89.65.01 1.38-.32 1.94-.61.29-.15.35-.16.47-.43-.3-.54-1.4-.98-1.5-1.29 1.04-.28 2.48.91 3.11 2.09.64 1.19.94 2.53.38 3.83-.15.34-.11.28-.38.37-.15-.54.19-2.63-.99-3.15-.72 2.45-.01 3.66-1.99 7.62-.74 1.48-1.99 3.06-3.28 3.96-.35.25-1.25.7-1.51.92zm-1.51-21.06c-.11-.25-.17-.77-.03-1.03.3-.54 1.58-.25 2.26-.23 1.04.04 1.24.21 2.16.42 1.09.26 1.07.16 2 .7.64.37 1.5.71 1.56 1.04-.34.2-1.99-.04-2.45-.09-.95-.11-1.48-.03-2.4.05-.82.08-2.73.01-3.1-.85zM16.33 6.86c-.3.23-1.66 1.81-1.84 2.12-.46-.32.16-.23-.5-.31l-.64 1.34c-.19.44-.4.22-.71.01-.06-.5.15-1.05.28-1.51.34-1.19.23-.54.77-1.01.16-.22.18-.58.18-.91-.42.01-.97.21-1.28.43l.06.25c-.41.38-2.33 1.78-2.8 1.74l-.02-.82c.38-.15 1.03-.54 1.28-.87l-.29.05c-.65.14-2.7 1.94-2.75 2.39.49-.14.84-.57 1.23-.66-.13.45-.5.47-.65.78-.23.47.03.48.25.91.21.26.57.24.63.56.14.07.3-.03.18.33-.03.1-.18.17-.3.22-1.59.69-2.43-.49-4.52-.15-.77.13-1.27.21-1.3.67.37.16.93-.07 1.56.11 1.23.35 2.26 1.55 3.35 1.59.46-.02.98.11 1.41.01.6-.14.45-.45.88-.62l.03.2.18-.28.27.06-.04-.69c.81.49.29 1.4.39 1.94 1.1.06 2.09.89 2.29 1.42-.5-.35-1.08-.44-1.65-.69-.54-.02-.27.06-1.03.63-.46.35-.4.48-.74.88l-.06-.21c-.12-.51.09-.43-.23-.48-.03.42-.26.94-.29 1.52-.03.54.05 1.16.22 1.65.34-.23.19-.5.3-.95.22-.86 1.21-1.77 2.15-1.62 1.68.26 1.98 2.61 1.9 2.94-.1.4 0 .08-.12.24l-.04.33c.01 1.4-.99 2.25-1.99 2.6-.6.21-1.78.12-2.01.28-.65.46-.14 1.12-2.52 2.04-1.91.74-2.97.15-3.55 3.28l.33-.02c.32 1.1.47 2.18.92 3.16.32.71 1.38 2.11 1.48 2.59l-.28.09.05.11c1.68 1.09.66 2.63-1.25.76-1.58-1.55-2.46-4.69-2.4-7.2.03-1.26.33-1.53.6-2.59.33-1.29 1.8-2.82 2.77-3.64 1.31-1.11 1.83-.63 2.25-.94.44-.43.39-1.17.48-1.8l-.05-.77c-.03.98-.08.75-.85 1.21-.88.52-2.37 1.43-3 2.22-.16.19-.28.39-.51.51.17-.56 1.85-2.06 1.89-2.25-.37-.11-.67.35-.94.57-3.15 2.61-3.43 6.6-3.81 7.17-.01.7-.19 1.29-.05 2.02-.02.91.72 3.13 1.07 3.75.1.19.23.3.36.49l.23.36c.01.02.03.04.04.05.01.02.03.04.04.06.01.01.03.04.04.06.24.66 2.9 3.77 3.41 4.21.25.15.43.32.7.51.24.17.52.4.91.38.37-.02 1.3-.71 1.6-.96l.43-.11-.05.63c-.14 1.69 1.53 3.14 2.07 3.13.25 0-.08-.01.23-.06l.12-.01c.19.01.07-.02.19.05.37.09.81.29 1.17.28l.38.06c-.18-.56-1.3-.47-2.15-2.58-.52-1.28 1.08.03 1.08.03.4.24.82.46 1.35.6 1.76.46 4.95.16 6.44-.82 1-.65 1.14-1.02 1.6-1.68.24-.34-.01-.14.3-.22.43 1-.49 3.08-1.65 4l-1.14.9c.44.23 1.82-.52 2.4-.63 1.01-.32 1.3-2.11 1.33-3.5.62.27.23 1.49.49 2.11.24.1.53.13.86.1.09-.45.81-.66 1.49-1.14.56-.39.99-.73 1.48-1.14l1.96-1.92c.25-.27.32-.58.57-.79-.07-.5-.13-.92-.13-1.45 0-.49.13-.98.1-1.42-.21.24-1.29 3.33-2.41 3.42l.97-2.12c-.31.17-.25.23-.63.67l-1.25 1.45c-.28.39-.19.51-.86.58.26-1.1 2.72-3.7 3.41-6.54.11-.47.23-.85.37-1.31.14-.47.1-1.05.48-1.17l.12 2.09c.24-.58.23-1.51.26-2.23-.19-.27-.28-1.26-.41-1.62-.19-.52-.4-1.05-.54-1.44-.39-.97-1.57-2.57-2.29-2.85-1.1-.09-2.17-.19-3.32-.28-2.09-.16-4.32-.04-5.7-1.21-.29-.24-1.48-1.5-1.64-1.87-.31-.37-1.28-.72-1.66-1.17 1.43.19 2.13.99 2.54 1.06.28-.3-.05-.53-.22-.66l-.57-.44c-.17-.13-.37-.3-.58-.44-.09-.06-.2-.11-.32-.19l-.28-.26c.12-.08.01-.04.21-.08 1.13-.21 2.91 1.91 3.79 2.27 1.67.68 3.71-.24 5.56-.17 2.73.11 4.82 1.18 6.11 3.34.62 1.04.64 1.45.88 1.91.01.02.05.09.06.1.01.01.03.06.03.05 0-.01.02.03.03.04.46-.88 1.02-1.27 1.57-1.91-.15-.28-.14-1.06-.22-1.46-.1-.48-.25-.87-.34-1.32-.16-.79-.46-1.94-.88-2.51.06.49.02.14-.08.23-.19-.34-.36-.81-.52-1.05-2.71-.46-3.81-.89-3.59-4.27-.28-.18-1.03-1.53-1.28-1.91-.26-.4-1.07-1.63-1.38-1.83.7 2.09-1.11-.36-2.52-1.18-.54-.32-1.36-.64-2.08-.71-.47-.04-1.89.05-2.28.43.22.11 2.6-.08 3.66.3.75.27 2.23 1.33 2.12 1.84 1.31.61 2.49 3.97 3.06 5.36.46 1.12-.08 1.99-.07 2.36 1.32.76 5.03 2.96 5.21 4.37-.58-.17-4.05-3.73-7.4-4.9-2.32-.81-5.58-1.1-8.19-1.07-.97.01-1.81.21-2.71.3-.14.13.04.09-.32.13-.21.03-.15.01-.35-.02-.5-.84-.3-1.14-.35-1.94-.02-.28-.06-.53.09-.76.21-.73.42-1.45.76-2.04.18-.3.37-.62.56-.87.21-.27.5-.53.6-.8.15-.65.07-.64.44-1.12.63-.8 1.71-1.45 2.63-1.84.83-.36 1.26-.56 2.31-.63 1.13-.07 1.47.24 2.42.52-.13-.21.01-.03-.14-.17l-.32-.2c-.17-.11-.13-.13-.41-.26-1.07-.51-2.19-.47-3.36-.19-2.4.58-2.74 1.83-3.61 1.87z" style="fill:#fdae22"/><path class="fil2" d="M59.88 14.75c.06-.04-.08-.02.22-.12.3-.1.64-.06.95-.07.29-.54.25-.55.1-1.06-.77-.28-.65-.8-.91-1.53-.8.02-.69 1.3-1.62 1.02-.12-.75.71-1.8 1.17-2.03 1.22-.63 1.47.75 1.68 1.2l.25-.04c-.04-1.02.92-3.35.83-4.33-.53-.05-3.47-.09-3.76.06-.25.18-.57 1.91-.58 2l.61.1c-.06.73-.6 3.76-1.55 3.02-.26-.24-.07-.76.03-1.19l1.33-6.08c.34-1.47.3-1.17-.26-2.22.37-.08 1.38-.09 1.59.24.25.52-.45 2.05-.41 2.75.51.11 2.92.14 3.28-.03.04-.04 1.5-3.64-.76-4.83-1.86-.98-3.86-.27-5.13.71-1.24.95-1.54 2.72-1.98 4.59-.21.91-.41 1.76-.6 2.68-.18.86-.33 2.05-.57 2.8-.54.03-1.77.1-2.24 0-.07-.4.4-2.57.59-2.9l2.01-.08c.13-.36.59-2.2.51-2.48-.12-.18-.76-.12-.95-.11-.33.01-.66.02-.98 0-.03-.44.18-.91.2-1.41.02-.7-.3-.83-.48-1.28.98-.05 2.04.2 3.06.04.15-.46.65-2.27.5-2.66-.4-.16-4.93-.11-5.51.02-.45.88-1.72 8.3-2.08 8.95-.01-1.8-.26-2.27-1.81-3.51-2.13-1.71-1.29-.87-1.48-2.56-.05-.46-.29-.56-.44-.96 2.71-.24 1.4 1.04 1.4 2.19.5.11 2.45.04 3.07.01.25-.53.55-2.42.31-3.05-.64-1.73-5.62-2.36-7.16 1.02-.34.74-.65 2.12-.58 3.07.1 1.21.83 1.69 1.48 2.24.46.38 1.65 1.28 1.75 1.89.08.51-.07 1.22-.23 1.62-.2.5-.47.83-1.17.6-.26-.79.52-2.19.29-2.64l-3.03-.09c-.7 2.39-1.06 4.75 2.04 5.16 1.21.16 2.45-.2 3.32-.65 1.07-.56 1.21-1.1 1.78-2.23-.07.72-.56 1.84-.5 2.59 1.33.05 2.72.01 4.06.01 2.54 0 1.67-.48 2.2-1.84.3.15.27 1.74 2.03 2.06 1.85.33 2.53-.86 3.01-1.06l.12.79c.4.01.5-.3.98-.39zM80.15 3.67c.49.01 1.21-.01 1.54.17.36.41-1.1 6.03-1.37 7.31-.16.75-.4 1.79-1.35 1.56-.05-.42.78-3.76.94-4.47.16-.75.32-1.46.49-2.23.08-.36.21-.83.19-1.2-.04-.66-.36-.58-.44-1.14zM69.21 15.14h1.89c.55 0 .86-.13 1.35-.16.5-.03.88.14 1.43.14h5.56c4.42 0 3.84-2.76 5.04-7.47.3-1.19 1.18-4.11.54-5.21-.79-1.35-4.47-1.06-6.51-1.06-.65 0-.53.31-.68.91l-2.01 9.19c.2.07.47.06.61.31.42.78-.72 1.28-1.35 1.48-.52.16-2.66.93-3.05.74-.32-.51.24-.69.62-.9l.84-.42c.35-.23.15-.02.23-.28l-.52-.14.59-2.88c.7-.12 1.51.08 2.15-.08.19-.43.52-2.03.5-2.49-.57-.17-1.25-.05-1.9-.06-.01-.56.16-.99.15-1.52-.02-.67-.31-.7-.44-1.15.56-.15 1.97.21 2.91.03.17-.3.7-2.35.65-2.71-.43-.04-5.36-.03-5.48.03-.21.09-.18.15-.24.43-.04.18-.07.35-.12.56l-.76 3.45c-.34 1.54-.67 3.03-1.01 4.55-.19.87-.96 4.12-1 4.72z"/><path class="fil3" d="M90.41 26.98c.35.16.51.69.47 1.15-.27.13-.49.17-.7.31-.31.2-.24.27-.65.37l.88-1.83zm-7.37-1.39c.43-.06 1.45-.68 1.58-.93.37-.68-.11-.14.88-1.56l6.22-8.61c.35-.48.68-.96 1.03-1.42.41-.54.81-.86 1.69-.42 1.04.51 2.24 1.25 3.09 1.89.25.19.38.33.63.55.83.69 1.11.83 1.82 1.89.73 1.09 1.18 2.38.68 3.92-.52-.04-.87-.27-1.48-.2-.25.33-.62 1.55-.8 2.05-1.93 5.16-4.14 6.18-4.36 7.12-.24.98 1.49 3.67-1.51 3.69-.88.01-1.61-.45-2.02-.81.06-.84 1.7-2.23 1.26-4.56-.29-1.53-1.46-2.72-2.98-2.98-3.92-.66-6.88 4.36-6.85 4.97.33-.05.27-.17.66-.65.78-.94 1.16-1.31 2.09-2.12.49-.42 2.93-2.25 3.94-1.34-.12.09-3.68.61-6.08 4.35-.25.39-1.23 2.01-.7 2.62.24.26 2.11.16 2.54.15-.16-1.06-.39-1.08.05-2.25.72-1.91 2.97-3.87 4.31-3.36.38 1.03-1.21 1.76-.5 2.44.22.21.09-.09.26.27l-2.95 2.64c-.3.2-.36.13-.51.44 1.03-.23 2.77-.07 3.37-.27.45-.15.44-.35.82-.48.49.4.55.78 1.24 1.24 1.25.83 4.81.94 4.57-1.96-.16-1.86-.44-1.74 1.11-3.54 1.07-1.25 1.78-1.03 3.18-1.87 1.02-.61 2.01-1.48 2.75-2.22 1.83-1.84 2.95-3.42 4.32-5.71.44-.74 1.68-2.62 1.12-3.62-.25.07-.15-.02-.33.28-.06.09-.13.26-.21.38-.16.29-.28.5-.46.8-1.28 2.16-3.41 5.46-5.14 7.08-.34.32-2.2 2.01-3.02 1.81.05-.36.53-1.31.69-1.78.18-.52.36-1.53.64-1.87.67-.04 1.08.93 1.75.97.19-.1.59-.46.5-.81-.09-.38-.59-.32-.58-.86.01-.48.91-2.7-.77-4.48-.3-.32-.51-.39-.31-.9.17-.45.24-.73-.08-1.06-.34-.35-2.93-1.87-3.54-2.11-.79-.32-.66.29-2.33-.53-1.91-.93-1.63-.34-4.31 3.46-.79 1.12-6.87 9.85-6.99 10.28z"/><path class="fil2" d="M43.88 34.82c-.21-.6.8-4.73.99-5.68l.77-4.29c.12-.82.28-.63.8-.27.54.37.32.68.19 1.36l-.89 4.17c-.21.93-.38 1.87-.59 2.79-.19.88-.25 2.35-1.28 1.92zm.88 2.49c1.02-.04 1.03-1.07 2-1.21.61-.09.6-.22.91-.7 1.04-1.64 1.25-3.94 1.73-6.03.29-1.29 1.03-4.06.89-5.33-.18-1.72-1.75-2.75-3.64-2.49-.59.08-2.12.36-2.51.61-.19.12-1.12 1.47-1.32 1.81-.77 1.31-1.02 3.17-1.37 4.86-.47 2.24-1.82 6.2-.37 7.71.39.41 1.27.98 2.15.89.29-.35.56-2.35 1.9-1.99.38.66-.2 1.29-.36 1.87z"/><path class="fil3" d="m74.75 36.71-.01-.2c-.05-.06-.25.12.03-.28l.72-.56c.47-.24.76-.2 1-.68-.09-.85-1.1-.74-1.6-.34-1.34 1.06-1.28 1.64-2.04 2.76-.39.58-.7 1.15-1.25 1.14.3-2.19 1.9-2.31 1.39-3.34-1.06-.26-2.5 1.77-3.07 2.56-.25.35-.41.74-.68 1.13-.34-.54 2.5-5.09 2.2-5.95-.97-.33-1.39.63-1.75 1.22-.42.67-.76 1.27-1.16 1.96-.35.6-2.02 3.66-2.32 3.88-.26-.53 1.47-2.99-.25-2.94-.42.18-1.22 4.1-2.56 4.44.05-1.49 1.74-4.58 2.91-5.41.43-.3 1.73-.59 1.15-1.34-1.1-1.4-3.34 2.62-4.18 3.7-.38.49-.75 1.06-1.17 1.46-.04-.81 1.84-3.91 1.52-4.7-.47-.58-1.38.39-1.67.65-.8.75-.85 1.45-1.21 1.54.14-1.05 1.4-3.28 1.13-4.18-1.32-.31-2.16 3.07-2.53 4.24-.53 1.71-1.06 3.47-1.61 5.21l-2.45 7.83c-.17.52-.82 2.17-.61 2.55.62-.16 1.52-3.2 1.82-4.03.69-1.96 2.42-6.94 3.16-8.55.3-.66 1.78-3.28 2.39-3.37.04.84-1.5 3.43-1.12 4.58.68-.09 1.76-1.75 2.13-1.87.11.81-.54 1.62.2 2.22.86.41 1.83-1.75 2.02-1.92.2.25.03.48.32 1.09 1.38-.1 2.68-4.66 3.68-5.04-.31.74-1.92 5.02-1.66 5.63.38-.04.34-.12.52-.42.1-.17.19-.31.33-.52.34-.53 1.91-2.78 2.31-2.8.14.67-.2.84.39 1.35.49 0 .5-.24.88-.19.01.77-.78 1.96.05 2.64 1.22.07 1.72-1.87 2.1-2.07.19.54-.17.94.42 1.22.6-.11 1.4-1.73 1.83-2.44.42-.7 1.1-2.22 1.63-2.65-.11.93-1.91 4.85-1.65 5.67.4.02.64-.63.85-.93.38-.57 1.96-2.75 2.36-2.86.06.62-.1 1.4.63 1.38.48-.01.97-.53 1.17-.77.42-.51 1.51-1.87 1.35-2.59-.52-.01-.43.18-.63.61-.17.38-1.14 1.88-1.71 1.89-.07-1.51 1.71-2.38 1.39-3.23l-.48-.09c-.59.05-1.43 1.06-1.78 1.47-.58.67-1.39 1.97-1.62 2.13.12-.56.99-2.4 1.25-2.93.24-.5 1.34-2.38 1-2.92-.6-.58-1.46.74-1.7 1.14l-2.87 4.97c-.1.18-.15.27-.27.49-.05.08-.09.18-.15.26-.14.18 0 .06-.18.16-.25-.61 1.5-3.06-.29-2.91-.21.25-1.52 4.32-2.37 4.39-.3-.84.9-3.02 1.42-3.81.73-1.11.42-.57.92-.75z"/><path class="fil2" d="M63.97 26.52c-.16.66-.38 1.27-1.2 1.14-.07-.58.16-1.25.28-1.82.23-1.06-.32-1.12-.25-1.6.51-.05 1.14.03 1.46.22.05.68-.14 1.43-.29 2.06zm1.07 2.49c.02-.01.04-.03.06-.03l.36-.14c.13-.04.25-.08.37-.13 1.46-.66 2.01-4.28 1.63-5.58-.61-2.12-4.34-1.31-5.96-1.32-.37 0-.57-.09-.93-.12-.48.84-2.09 9.32-2.54 11.43-.17.77-.8 3.31-.76 3.93l2.04-.04c.24-.3.48-1.34.68-1.83 1.16-2.95 1.3-1.04 1.76-3.11.11-.49.3-1.58.53-1.91 1.68-.1 0 2.88-.14 5.29.6-.28 1.01-.97 1.7-.27.12.87-.46 1.33-.28 1.82.55.11.73-.15.94-.49.25-.41.32-.53.62-.9.33-.42 1.64-4.93.79-6-.27-.34-.54-.32-.86-.57zM88.2 3.38c.34-.17 1.18-.03 1.56.06.21.83-1.06 6.04-1.41 7.48-.18.76-.39 2.07-.98 2.08-.71.02-.26-1.13-.04-2.23l1.12-4.99c.24-1.02.42-1.4-.13-2.18-.01-.02-.03-.04-.04-.05-.01-.02-.09-.17-.1-.17zm.98-2.21c-3.73.71-3.87 3.54-4.71 7.15-.29 1.26-.97 3.7-.7 5.17.29 1.54 2.22 2.13 4.02 1.82 3.55-.62 3.95-4.02 4.58-7.2.24-1.2 1-3.94.72-5.12-.33-1.44-2.09-2.16-3.91-1.81zM34.16 3.45c.47-.03 1.18-.01 1.54.2.3.35-1.14 6.4-1.39 7.52-.14.65-.37 2.01-1.05 1.97-.55-.03-.31-.61-.22-1.05l.81-3.73c.19-.83.39-1.62.56-2.46.44-2.1.19-1.33-.26-2.45zm1.26-2.14c-1.69.22-2.82.75-3.65 2.28-.6 1.1-.94 3.28-1.28 4.71-.81 3.47-2.23 7.53 2.93 7.18 3.87-.26 4.23-4.31 4.85-7.01.23-1.01.96-4.03.84-4.94-.24-1.77-1.74-2.47-3.7-2.21zM79.15 26.36c-.22.74-.24 1.28-1.2 1.2-.03-.46.2-1.3.29-1.78.19-1-.16-.93-.33-1.7 1.4.02 1.95-.06 1.25 2.27zm2.18 3.47c-.26-.61-.68-.6-.93-.99.26-.14.57-.21.83-.34.44-.22.31-.15.57-.5.56-1.44 1.71-4.46.4-5.79-.72-.73-1.78-.63-3-.65-1.02-.02-2.57-.09-3.54.03-.3.49-2.54 11.75-2.88 13.35l.5.3c.08.78-.32.89-.55 1.23-.27.38-.08.44-.08.44.6.08.52-.7 1.51-1.8 1.11-1.24 1.54-.93 2.31-.83.19-.86.63-3.84.97-4.31.72-.04.84.38.73.99-.22 1.25-.91 3.91-.95 4.65.24-.12.09 0 .28-.21l1.02-1.68c.35-.56.83-1.39 1.75-1.23.91.91-1.31 3.23-1.32 4.35.31-.06.19-.03.39-.27.43-.51 1.13-1.04 1.28-1.69.3-1.37 1.01-4 .71-5.04zM66.66 6.81c-.09-.45.18-1.16.21-1.66.06-.88-.3-.87-.48-1.32.42-.08 1.25-.05 1.61.05.17.55-.01 1.38-.19 1.96-.2.64-.35 1.02-1.15.97zm-4.54 5.06c.53-.18.52-1.03 1.31-.87.49.62-.45 1.76-.79 2.04-.19.16-.84.49-.97.64-.19.24-.3 1.06-.23 1.4 1.05.17 2.15.08 3.21.07.19-.34.91-3.77 1.11-4.62.08-.34.17-1.31.48-1.5.27-.12.44.04.64.18.21.97-1.06 4.6-1.07 5.9.8.13 2.01.43 2.79.08.5-.22.87-2.65.99-3.22.14-.69.42-1.63.44-2.35.05-1.45-.91-1.2-1.11-1.69.63-.24.83-.11 1.31-.62.87-.94 1.36-3.65.91-4.7-.45-1.04-1.47-1.09-2.81-1.15-1.09-.05-2.9-.13-3.95.01-.3.93-2.28 9.81-2.26 10.4zM55.33 26.63c-.23.74-.27 1.28-1.23 1.1-.02-.54.19-1.26.29-1.79.22-1.24-.35-1.1-.35-1.62 1.76-.22 1.89.32 1.29 2.3zM56.47 29c.57-.27.76-.06 1.24-.58.79-.85 1.2-3.06 1.23-4.23.03-.99-.46-2.23-1.4-2.18-.27.01-.52.14-.78.15-.44.02-.35-.11-.63-.29-.37-.25-1.14-.13-1.64-.13-3.11 0-2.66-.25-2.88.83-.27 1.31-1.81 8.27-1.8 9.02.33-.15.38-.36.53-.59 1.27.08.88.72 1.36 1.36.45-.01.39-.09.61-.41.11-.16.29-.44.42-.59.23-.27.42-.25.58-.43.19-.22.1-.41.29-.72 1.76-.27-.02 3-.12 5.28.4.16.67.05.89.44.17.31.13.76.18 1.11l1.78-.05c.26-.77 1.37-5.77 1.27-6.56-.13-1-.84-.98-1.14-1.44zM37.89 36.5c.83-.26 1.82-2.21 1.97-3.41-1.4.34-3.11 1.77-3.58.9-.25.41-.28 1.01-.92.96-.66-.04-.36-.93-.27-1.43.27-1.49 1.54-7.01 1.63-7.98.09-.94-.4-.86-.52-1.44.65-.06 1.55.02 1.91.31.12 1.09-.77 3.28-.64 4.18l3.37-.01c.33-.76.84-3.73.7-4.7-.39-2.66-4.73-3.18-7.05-.64-1.01 1.1-1.14 2.08-1.56 3.93-.35 1.55-.65 3-.98 4.51-.5 2.3-1.15 4.95 1.51 5.74.28.08.94.21 1.24.15.59-.13.56-1.57 1.91-2.26 1.11-.57 1.23 1.06 1.3 1.2zM69.08 21.94c-.28.14-.64 2.53-.73 2.97-.22 1.07-.42 2.07-.64 3.15-.22 1.04-.45 2.07-.67 3.12-.21.99-.53 2.15-.67 3.15.48.03.86-.01 1.15.27.28.27.36.69.05.98-.45.41-1.6.58-1.67 1.31.42.09.89.05 1.32.05.64 0 .68-.03.94-.51.41-.73 1.88-2.99 2.03-3.6.14-.55.35-1.97.56-2.31l2.05-.06c.22-.3.68-2.42.56-2.88l-1.94-.01c-.07-.51.13-1.05.19-1.54.11-.86-.21-.84-.41-1.47.9.02 2.16.25 2.96.02.27-.32.7-2.51.71-2.99-2.72-.23-1.89.18-3.33 1.2-2.3 1.62-2.25-.3-2.48-.85z"/><path class="fil3" d="M61.39 21.01c-.43-1.15.84-3.71 1.87-3.72.33.64-.05 1.62-.38 2.23-.33.63-.72 1.43-1.5 1.48zm-1.51-6.26c-1.05 1-.48-.06-2.42 2.47l-2.24 2.67.06-.38c.06-.18.12-.34.17-.51.3-.88 1.18-2.8.91-3.15-.4-.51-1.22.36-1.37.49-.78.72-1.37 1.22-2.07 2.06l-1.05 1.09c.14-.5.9-1.75 1.19-2.21.35-.55 1.33-1.86.93-2.28-.39-.26-.77.1-1.04.32-.5.41-1.22 2.38-1.51 3.04l-1.43 3.13c-.2.43-.4.77.09 1.04.27-.09 1.58-1.84 1.97-2.27.31-.35 1.87-1.83 2.34-1.98.07.82-.53 2.19.16 2.91.86.11 1.19-1.03 1.68-1.37.01.37-.64 2.71 1.02 2.01.81-.34 1.21-1.44 1.65-1.76.03.52-.03.78.18 1.18.97.14.94-.83 1.72-1.05-.23 1.95 1.11 1.83 2.37.14 1.78-2.39 2-5.5.03-4.61-1.32.59-2.61 3.86-3.42 4.47-.15-.29.27-1.01.49-1.74.22-.73.03-1.45-.81-1.31-.22.12-1.35 3.98-2.74 4.35-.31-.99 1.8-4.34 2.82-5.04.46-.31 1.48-.67 1.73-.95.1-.98-.69-.82-1.43-.77z"/><path class="fil2" d="M15.36 26.42c-.15.04-.04-.02-.17.11-.02.02-.12.17-.14.19-.13.19-.17.23-.22.42-.14.59-.09 1.14-.16 1.74-.05.41-.1.42-.26.66-.26.4-.14.28-.1.82.01.53.08.59.57.69.38.08.76.15 1.13.22.56.1 1.85.34 2.37.3 1.53-.34.67.81 3.99-.64.62-.27 1.07-.58 1.37-1.07.5-.82-.08-1.34-.44-1.77-.7-.86-1.92-1.3-3.34-1.66-1.46-.36-3.09-.25-4.6-.01z"/><path class="fil3" d="M53.13 37.39c.6.83-.89 3.89-1.48 3.74-.6-.15.11-1.91.25-2.25.25-.6.65-1.45 1.22-1.49zm-5.81 4.52c.09-1.59 1.77-4.5 2.97-5.39.38-.28 1.67-.64 1-1.35-.97-1.02-2.63 1.59-3 2.13l-1.66 2.47c-.2.3-.32.63-.58.77-.17-.35.54-1.98.72-2.49.13-.38.34-.88.38-1.32.21-2.25-3.72 3.24-4 3.36.08-1.05 2.31-3.65 1.84-4.46-.59-.51-1.19.78-1.38 1.29-.25.7-.52 1.38-.83 2.12-.34.85-1.7 3.6-1.36 4.36.45-.13.71-.84.97-1.21.65-.94 2.11-2.78 2.98-3.29.12.85-.51 1.91.03 2.82.84.18 1.04-.92 1.5-1.3.32.44-.38 1.55.23 2.04.54.17 1.09-.4 1.3-.71.14-.2.26-.38.39-.62.16-.32.15-.43.38-.65.15.57.04.98.57 1.21.44-.15.61-.77 1.01-1.03.21.37.23 1.75 1.24 1.07.23-.16.88-.99 1.11-1.34 1.74-2.74 1.58-5.51-.07-4.44-.45.3-.75.89-1.06 1.38-.33.52-.6 1.01-.9 1.54-.22.39-.67 1.39-.91 1.56-.1-.24.27-1.38.36-1.69.18-.67.22-1.38-.69-1.18-.27.23-.78 1.92-1.01 2.42-.32.68-.86 1.81-1.53 1.95z"/><path class="fil4" d="M25.83 30.11c.41.51-.94 2.26-1.19 2.58-.97 1.29-3 2.88-4.72 3.2-.73.14-3.2.37-3.6-.05.4-.42 1.81.23 2.07-.35-.32-.18-1.33-.13-1.78-.2-.59-.09-1.07-.24-1.62-.4-.56-.16-1.05-.3-1.62-.41-.37-.07-1.51-.11-1.72-.27-.65.13-1.11.39-1.17 1.11-.05.61.25 1.46.61 1.6.48.14.51.11.83.35.23.18.37.31.78.34l-.09-.33c-.45-.52-1.09-.36-1.31-1.32.33.08.26.09.46.17 1.51.35 2.7 1.04 4.48 1.04l4.02-.08c.44.19.05.59 1.1.29 1.56-.21 3.64-2.79 4.4-4.08.99-1.67 1.95-4.84 1.94-6.67-.3.17-.72 1.34-.91 1.72-.27.54-.76 1.27-.95 1.76z"/><path class="fil5" d="M14.4 42.61c.76.81 4.85.26 5.44.46.01.25.27.25-.62.37-1.15.16-1.79.25-2.99-.03-.84-.2-2.93-.4-3.26-1.01l.26-.07c-.12-.07 0-.04-.19-.05l-.12.01c-.3.04.02.05-.23.06-.53.01-2.21-1.44-2.07-3.13-.18.19-.12.18-.2.5-.03.13-.09.36-.11.5-.07.74.84 1.9 1.32 2.23.62.42 2.64.99 3.56 1.16 1.68.32 4.72.36 6.39-.31.28-.11.55-.26.77-.41.1-.07.25-.17.34-.24.25-.21.16-.09.3-.36-.58.1-1.96.85-2.4.63l1.14-.9c1.16-.92 2.09-3 1.65-4-.31.08-.05-.12-.3.22-.47.66-.61 1.03-1.6 1.68-1.49.98-4.68 1.28-6.44.82-.53-.14-.95-.36-1.35-.6 0 0-1.6-1.31-1.08-.03.85 2.11 1.97 2.02 2.15 2.58l-.38-.06zM18.59 18.6c.01.02.04.02.04.06l.09.11c2.78 3.1 6.48 1.11 8.97 1.51 2.77.45 4.34 3.34 4.64 5.95.01.06.03.25.04.3.02.07 0 .04.04.12.07.18.01.06.09.16.34-.77.36-1.86.79-2.73-.01-.01-.03-.06-.03-.04 0 .01-.03-.04-.03-.05a.88.88 0 0 1-.06-.1c-.24-.46-.26-.87-.88-1.91-1.29-2.16-3.37-3.23-6.11-3.34-1.85-.07-3.9.85-5.56.17-.88-.36-2.65-2.48-3.79-2.27-.2.04-.09 0-.21.08l.28.26c.12.08.23.13.32.19.2.14.41.31.58.44l.57.44c.17.13.5.35.22.66z"/><path class="fil6" d="m16.65 14.68-.31-.03c-.14-1.15 1.15-3.56 1.88-3.65-.02.39-.36.9-.47 1.51-.13.77.13 1.19.08 1.9.22-.46.07-.56.47-1.12.67-.94 1.97-1.84 3.07-1.76.5.04.72.37 1.04.59.29.19.74.39 1 .6.77.61.6 1.71 1.02 2.17-.04-.4.1-.78.1-1.22.03-2.01-.88-2.41-.99-3.03.53.13 1.52 1.34 1.88 1.84.68.94.83 1.67.72 2.99.31.17.59.3 1.02.3.02-1.6-.85-3.32-1.65-4.31-.79-.98-1.85-2.02-3.62-2.29-1.72-.26-3.61.64-4.42 1.46-.6.6-1.94 2.76-1.57 4.14.33.06.48.05.74-.07z"/><path class="fil4" d="M15.64 23.13c-.15.26-.66.47-.93.65-.34.23-.55.51-.93.62-.33.32-.33.88-.67 1.03-.47-.12-.31-.56-1.34-.65-.68-.06-1.24.09-1.63.4-.4.32-1.42 1.79-1.45 2.56.06.27.01.09.13.16 1.27-.53 1.66-1.43 3.54-1.53 1.07-.06.64.29 1.26.47.5-.7.71-1.31 1.7-2.04.79-.59 1.44-.18 2.36-.18.13 0 .29-.01.42.01l.5.17c1.4.05 3.04.7 4.42.98 1.24.25 3.77.3 4.25-.96-1.29.7-1.1.97-2.92.29-.61-.23-2.34-.99-2.73-1.39-.66.2-1.08-.12-1.77-.37-.33-.12-.56-.17-.91-.26-.45-.13-.48-.32-.84-.37-.49.07-.88.07-1.37.12-.47.05-.66.23-1.09.29z"/><path class="fil2" d="M88.39 36.75c.16-.36.65-2.66.62-3.15-.84-.06-7.24-.03-7.61.11-.15.14-.08.04-.17.26l-.2.88.77-.02c.76.95-.27 1.14-.46 1.97 1.06-.05.63-1.18 1.48-1.3.38.48.09.77.04 1.26l5.53-.02z"/><path d="M15.36 26.42c1.51-.25 3.14-.36 4.6.01 1.42.35 2.64.8 3.34 1.66.35.43.94.95.44 1.77-.3.49-.75.8-1.37 1.07-3.32 1.45-2.46.3-3.99.64.39.28 2.7.26 3.29.19 1.06-.13 1.78-.48 2.69-.87.98-.42 1.12-.91 1.66-1.88.38-.69 1.01-1.78 1.19-2.48-.66.19-.77.92-1.29 1.21.13-.56.81-1.14 1.03-1.71-.75.12-.96.65-2.96.49-2.06-.16-6.27-2.15-8.36-.4l-.26.3z" style="fill:#e6ddd5"/><path class="fil5" d="M6.75 34.51c-.04.21.08.08-.15.15-.32-.49-.82-.64-1.25-1.27-.97-1.4-1.72-3.71-1.71-5.65.01-2.08.19-2.44 1.78-3.13 1.14-.5 1.34-.21 1.69-.76.16-.26 1.07-.89 1.36-1.06.21-.34.25-.52.82-.55-.03-.53.17-2.85-.1-3.13-.1.63-.04 1.37-.48 1.8-.42.32-.94-.16-2.25.94-.97.82-2.44 2.35-2.77 3.64-.27 1.06-.57 1.33-.6 2.59-.05 2.51.82 5.65 2.4 7.2 1.91 1.87 2.94.33 1.25-.76z"/><path class="fil3" d="M70.73 19.68c-.1-.55.61-1.75.95-2.24.36-.53.27-.43.52-.51.45.85-.54 2.91-1.47 2.75zm5.13-3.02c-.54-.09-.83.68-1.36 1.48-.9 1.35-1.68 2.21-2.7 3.37-.25.28-.47.48-.82.69-1.52.93-.85-1.15-.62-1.8.88-.07.86.33 1.59-.36.34-.33.64-.72.9-1.2.42-.79.94-2.55.36-3.4-.71-1.05-1.91.38-2.4 1.2-.53.9-.92 1.93-1.2 3.11-.21.89-.7 2.98.14 3.46.94.54 2.33-1.04 2.73-1.45.72-.73 1.26-1.48 1.92-2.38.41-.56 1.55-2.08 1.47-2.72z"/><path class="fil5" d="M16.37 8.87c.17-.11.04-.01.21-.16.63-.56 1.76-1.73 2.61-1.7-.42.78-2.28.77-3.85 4.34-.13.29-.61 1.76-.77 1.85-.12-.18-.14-.34-.13-.63-.15.23-.11.47-.09.76.05.8-.15 1.09.35 1.94.19.03.14.05.35.02.36-.04.18-.01.32-.13-1.17-.05-.02-3.28.2-3.73.62-1.29 1.29-2.09 2.28-2.78 2.58-1.81 4.97-1.49 7.61.09.11-.5-1.38-1.57-2.12-1.84-1.05-.38-3.43-.19-3.66-.3.39-.38 1.81-.47 2.28-.43.72.06 1.54.39 2.08.71 1.41.82 3.21 3.26 2.52 1.18-.16-.48-1.79-1.99-2.4-2.23-.95-.28-1.29-.59-2.42-.52-1.05.07-1.47.27-2.31.63-.92.4-2 1.04-2.63 1.84-.37.47-.29.47-.44 1.12z"/><path class="fil3" d="M75.7 17.67c-.12.64.6.82 1.59 1.36.69.38 1.33.7 2.05 1.06.7.36 3.6 2.04 4.03 2.15 1.14.28 1.5-.42 1.93-1.04.55-.78 3.68-5.12 3.78-5.63-.43.09-.56.27-1.02.38-1.04.24-1.05.63-2.08 2.06-2.46 3.41-2.39 3.52-4.66 2.3l-3.62-1.94c-.5-.27-1.34-.94-1.99-.69zM35.21 40.03c-.02-.45.36-1.28.54-1.62.25-.49.44-1.07.91-1.26.02.78-.07 1.32-.35 1.91-.22.46-.5 1.08-1.1.98zm-.85 3.54c1.33.17 2.63-1.8 3.36-2.85.43-.62 2.21-3.22 2.09-4.01-.51.09-.9 1.02-1.22 1.59-.34.6-.72 1.15-1.09 1.7-.46.67-1.96 2.91-2.79 2.81-.12-.55.04-1.63.24-2.05.97.09 1.19-.16 1.66-.81 1.61-2.21 1.36-6.09-.55-4.09-.98 1.02-2.84 6.01-1.7 7.71z"/><path class="fil8" d="M2.07 12.24c-.07.25-.53.55-1.06 2.23-.29.91-.54 1.98-.32 3.02.25 1.21 1.37 4.14 2.05 4.76.65-.51-.29-1.75-.51-2.34-.33-.27-.25-.49-.35-.99-.1-.48-.17-.79-.19-1.29-.02-.42.07-1.02.05-1.36-.05-.6-.71-.2-.27-1.02.09-1.25.71-2.05 1.68-2.37 1.09-.36 2.32.13 3.19.57 1.63.83 4.13 2.96 4.94.02l-.27-.06-.18.28c-.37 1.11-1.45 1.1-2.32.41-1.08-.03-2.12-1.24-3.35-1.59-.63-.18-1.19.06-1.56-.11.04-.46.53-.54 1.3-.67 2.09-.34 2.93.84 4.52.15.12-.05.26-.12.3-.22.13-.36-.03-.25-.18-.33-1.39.04-1.84-.22-3-.54-.33 0-1.19-.05-1.44.06-.31.15-.14.32-.85.58-.38.14-.69.23-1 .44-.53.35-.53.14-1.16.35z"/><path class="fil3" d="M95.97 23.53c-1.04.03-3.84-3.84-4.97-3.63-.31.85 1.1 1.68 2.1 2.61.36.34 2.3 2.14 2.74 2.23 1.07.22 1.44-1.79 1.82-2.99.59-1.9.21-2.39-.95-3.36-.88-.74-1.65-1.62-2.57-2.32-.63-.48-1.65-.48-.92.33.82.9 3.47 2.88 3.85 3.57.33.61-.07 1.27-.3 1.83-.2.51-.48 1.4-.81 1.73z"/><path class="fil8" d="M17.59 5.15c-.35 1.15-.86.95-1.26 1.7.87-.04 1.21-1.3 3.61-1.87 1.16-.28 2.28-.31 3.36.19.28.13.24.15.41.26l.32.2c.15.14.01-.04.14.17.61.24 2.24 1.75 2.4 2.23.32.2 1.12 1.44 1.38 1.83.25.38 1 1.74 1.28 1.91.38-1.7-3.3-9.41-9.87-7.38-.3.09-.66.22-.92.34-.27.13-.6.38-.85.41z"/><path class="fil5" d="M10.14 19.45c.23.83 1.02 1.52 2.05 1.53 1.18.01 1.52-1.07 2.21-1.45l-.03.52c.12-.15.02.17.12-.24.08-.33-.21-2.68-1.9-2.94-.94-.15-1.93.76-2.15 1.62-.11.45.04.72-.3.95z"/><path d="M28.1 17.88c-.06-.33-.92-.66-1.56-1.04-.93-.54-.91-.44-2-.7-.92-.22-1.12-.39-2.16-.42-.68-.02-1.96-.31-2.26.23-.14.26-.08.79.03 1.03.38.87 2.28.93 3.1.85.92-.08 1.45-.16 2.4-.05.45.05 2.11.29 2.45.09z" style="fill:#ffda86"/><path class="fil5" d="M10.24 38.7c-.31.25-1.23.95-1.6.96-.39.02-.68-.21-.91-.38-.27-.2-.45-.36-.7-.51.03.32.05.12-.07.28-.52-.19-1.64-1.51-2.04-2.01-.32-.4-.6-.74-.91-1.11l-.58-.97c-.1-.43-.02-.32.2-.4-.01-.02-.03-.04-.04-.06a.311.311 0 0 1-.04-.06c-.01-.01-.03-.04-.04-.05l-.23-.36c-.12-.19-.25-.3-.36-.49-.35-.62-1.09-2.84-1.07-3.75l-.24.44c-.27-.43-.3-3.29-.3-4.01-.01-.74.16-1.21.34-1.85.18-.64.23-1.23-.26-1.62-.59.03-.6.48-.7 1.07-.09.53-.12 1.07-.1 1.63.12 3.23.64 5.6 1.96 8.36 1 2.09 2.81 4.43 4.48 5.81 2.85 2.35 2.56.48 3.21-.93z"/><path class="fil8" d="M6.79 18.64c-.14.2-.65.5-.9.7-2.51 2.01-3.98 5-3.99 8.43.38-.57.67-4.56 3.81-7.17.27-.22.57-.68.94-.57-.04.18-1.71 1.68-1.89 2.25.22-.12.35-.32.51-.51.64-.79 2.12-1.7 3-2.22.77-.46.82-.22.85-1.21l.05-.29c-.43.04-1.44.51-1.79.75-.22-.04-.15.04-.27-.18l-.33.03z"/><path class="fil5" d="M28.37 22.06c-.14-.4-.17-.22-.37-.58.82.17 1.43.91 1.84 1.41.01.02 1.58 1.99.81 2.02.14.39.35.92.54 1.44.13.36.22 1.35.41 1.62.06-1.73-.27-3.54-1.14-4.78-2.89-4.07-5.3-1.17-9.05-2.25-.72-.21-1.42-.57-1.95-.99-.48-.38-1.12-1.01-1.75-1.25.16.37 1.35 1.62 1.64 1.87 1.38 1.17 3.61 1.05 5.7 1.21 1.15.09 2.23.19 3.32.28z"/><path d="M11.64 34.22c.21.16 1.35.2 1.72.27.57.11 1.06.25 1.62.41.55.16 1.04.31 1.62.4.45.07 1.46.02 1.78.2-.26.58-1.67-.07-2.07.35.4.43 2.88.19 3.6.05 1.72-.32 3.75-1.91 4.72-3.2.25-.33 1.59-2.07 1.19-2.58-.33.38-.81 1.18-1.11 1.65-.48.73-.74 1.02-1.32 1.55-.32.29-2.59 2.5-3.56 2.02.14-.25.02-.11.35-.25.27-.11.21-.04.42-.26l-.46-.04c-1.55.23-2.51.31-4.18-.14-1.19-.32-3.04-.9-4.33-.43z" style="fill:#f9a484"/><path class="fil5" d="M4.25 29.18v-.59c.58-3.13 1.65-2.55 3.55-3.28 2.37-.92 1.87-1.58 2.52-2.04.22-.16 1.41-.07 2.01-.28 1.01-.35 2.01-1.2 1.99-2.6l-.38.44c-.1.12-.26.28-.37.38-1.39 1.22-2.79.02-3.31-.11-.04.96 1.92.92 2.14 1.08-.41.54-1.7.01-2.23-.08-.64 2.17-1.38 2.34-3.61 2.96-.82.23-1.85.57-2.12 1.17-.23.5-.39 2.45-.18 2.95z"/><path class="fil2" d="M50.04 37.09c2.16.14 2.05-.09 2.27-1.18.18-.87.46-1.99.55-2.84-.39.17-.78.84-1.54.65-.73-.18-.49-1.03-.86-1.42-.15.05-1.13 1.17-1.22 1.54-.15.62-.42 1.71-.46 2.32.4-.19.85-.94 1.52-1.24.9-.4 1.65.21 1.29 1.08-.35.38-1.4.35-1.55 1.09z"/><path class="fil11" d="m12.61 37.29.09.33c-.41-.03-.54-.16-.78-.34-.32-.24-.36-.21-.83-.35.31.8 1.11.98 2.06 1.24 3.01.81 4.72.43 7.62-.49.59-.19.44-.11.59-.29-1.05.3-.66-.1-1.1-.29l-4.02.08c-1.78 0-2.96-.69-4.48-1.04l.28.27c1.44 1.11 3.07.97 4.62.94.68-.01 1.31.13 1.91.1-.26.67-2.22.56-3.01.53-1.56-.05-1.75-.38-2.95-.69z"/><path class="fil2" d="m10.3 28.28-.94.61c.2.37.57.53.82.85 1.27 1.64.51 1.7 3.12 1.3l-.12-.55c-.22-.21-.27-.77-.38-1.01-.16-.36-.26-.53-.47-.8-.6-.75-1.01-.52-2.04-.41z"/><path class="fil8" d="M29.71 34.45c.39-.5 1.46-3.42 1.64-4.24l-.12-2.09c-.38.12-.34.69-.48 1.17-.14.46-.26.85-.37 1.31-.68 2.84-3.15 5.44-3.41 6.54.67-.06.58-.19.86-.58l1.25-1.45c.38-.44.32-.5.63-.67zM14.62 22.43c.62-.25.98-.62 1.7-.75.91-.17 1.38-.09 2.27.01.42.01.08.02.21-.1-.89-1.15-.49-.94-1.02-1.71-.24-.35-.94-1.22-1.53-1.14-.21 1.78-.3 1.47-1.49 3.24-.39.59-.18.38-.14.45z"/><path class="fil6" d="M4.63 19.75c-.81-.61-.08-2.85.22-3.38l.31 1.32c.31-.39.45-1.2.6-1.76.31-1.14 1.06-.26 1.38-1-.15-.31-.83-.67-1.2-.76-.76.34-1.59 1.4-1.94 2.36-.33.89-.47 3.04.09 3.8.18-.15.41-.39.54-.57z"/><path class="fil5" d="m10.81 7.37.29-.05c.45-.14.96-.29 1.49-.3.3-.22.86-.42 1.28-.43 0 .33-.01.69-.18.91-.54.47-.43-.18-.77 1.01-.13.46-.34 1.01-.28 1.51.31.21.52.43.71-.01-.2-.01-.12.12-.12-.18 0-.11.07-.23.1-.31.88-2.13 2.32-3.03 2.35-3.48-.71-.15-1.48.31-1.9.29-.23-.01-.17-.02-.25-.07.75-.37 1.88-.45 2.29-1.01-.63-.07-2.25.55-2.76.79l-2.11 1.19c-.11.09-.06.05-.15.14z"/><path d="M1.47 15.25c-.44.83.22.43.27 1.02.03.33-.06.93-.05 1.36.02.49.1.81.19 1.29.1.5.02.71.35.99-.08-.41-.05-.09.09-.18.2.31.17.37.42.6.22-.48-.97-2.48.61-5.21.29-.51.63-.78.88-1.19-.83.01-1.32 1.13-1.83 1.51.19-.92 1.25-1.58 1.35-1.95-1.69.31-1.87 1.95-2.25 2.26l-.03-.5z" style="fill:#c8711f"/><path class="fil4" d="M8.4 29.34c-.04.73 1.14 1.14 1.01 4.38-.03.82-.15 1.44.33 1.52.27-.55-.33-1.2-.18-1.7.38.18.24.32.51.53l.74-.6c.45-.8-1.38-5.05-2.42-4.13z"/><path class="fil8" d="M25.68 41c1.38-.25 2.55-.92 3.47-1.6.67-.5 2.06-1.81 2.46-2.56l-.43-.82c-.25.21-.32.52-.57.79l-1.96 1.92c-.48.4-.92.75-1.48 1.14-.69.48-1.41.69-1.49 1.14z"/><path class="fil11" d="m8.68 27.74-.17.3c-.05.13-.02.13-.12.29-.23.37-.24.06-.36.53.74.02.98-.37 1.42-.74.36-.3.83-.66 1.26-.93.43-.27 1-.49 1.64-.47 1.26.04.86.42 1.43.76.15-.17.22-.35.36-.57.13-.21.27-.35.41-.52 1.12-1.29 2.26-1.67 4.03-1.61l-.5-.17c-.13-.02-.29-.01-.42-.01-.91 0-1.56-.41-2.36.18-.98.73-1.19 1.34-1.7 2.04-.62-.18-.19-.52-1.26-.47-1.88.1-2.28 1-3.54 1.53-.12-.07-.07.1-.13-.16z"/><path class="fil13" d="M24.44 14.89c.21.32 1.26.49 1.72.57.11-1.32-.05-2.05-.72-2.99-.35-.49-1.35-1.7-1.88-1.84.1.63 1.01 1.03.99 3.03-.01.45-.14.83-.1 1.22z"/><path class="fil2" d="M36.26 33.83c.37-.16.69-.44 1-.65.55-.38 1.48-1.04 2.05-1.31.6-.29.93-.09.99-.79l-3.44.03-.6 2.73z"/><path class="fil3" d="M61.21 13.46c1.36-.1 2.22-1.58 2.2-2-.03-1.04-1.15.74-1.59.81-.03.03.09.17-.26.06-.24-.08-.39-.47-.46-.64-.59-1.46-1.68-.28-2.02.32-.22.4-.11.45-.11.45l.06.13c.41.09.62-.59.84-.88.64-.02.61.3.71.83.1.53.38.55.63.91zM81.8 28c-.26.35-.13.28-.57.5-.27.13-.58.2-.83.34.25.4.67.39.93.99.51-.27.44-.54 1.12-1.46.36-.49.75-.98 1.14-1.39.74-.79 1.21-1.18 2.02-1.78 1.01-.74.25-.79.11-.76-.1.02-.26.13-.35.19-.23.16-.4.28-.58.43-1.19.93-1.86 1.91-2.78 3.11-.31-.05-.13.09-.2-.17zM75.4 19.33c1 .39 2.44 1.29 3.36 1.69.45.2 1.18.09 1.72.08-.11-.32-.62-.5-1.13-.76-.88-.46-3.16-1.77-3.7-1.95-.17.22-.24.61-.26.94zM50.62 31.24c-.26.09-.78.55-.91.73-.21.28-.43.72-.41 1.15.61-.14.68-.92 1.15-1.04.49.42.36 2.18 1.69 1.32.42-.27 1.44-1.27 1.24-2.18-.77.08-.8.99-1.41 1.25-.71.3-.38-.99-1.35-1.23z"/><path class="fil14" d="M13.35 39.04c-.5-.03-.24 0-.36.08 1 1.42 8.87.04 9.02-1.11l-.35.03c-.52.09-1.31.45-1.87.6-.66.17-1.28.3-1.96.4-1.75.27-2.79.05-4.48-.01z"/><path class="fil8" d="M6 27.86c.74 1.29 1.46 1 2.06-.2.22-.45.33-.89.57-1.37.23-.46.64-.93.77-1.24-.12-.13.09-.15-.32-.12-.29.02-.47.38-.64.58-.27.33-.47.56-.71.89-.89 1.2-.66.83-1.49 1.29-.18.1-.11.04-.23.18z"/><path class="fil13" d="M10.3 28.28c1.03-.12 1.44-.34 2.04.41.21.27.31.44.47.8.1.24.16.81.38 1.01-.04-.18-.11-.72-.03-.87.11-.21 0-.07.21-.13.09.23.07.48.19.75.27.62.03.45.23.72l.04-.12.01-.24c.03-.34-.11-1.25-.14-1.69-.08-.95-.97-1.79-2.18-1.42-.21.06-.47.18-.65.28-.05.03-.27.16-.31.19-.24.19-.12.05-.25.32z"/><path class="fil5" d="M8.9 35.03c-.14-1.42.16-2.55-.27-3.91-.42-1.32-.61-1.89-2.07-2.1.14.56.56.92.86 1.29 1.03 1.26.76 3.2 1.35 4.52.1.22.04.1.12.2z"/><path class="fil13" d="M16.65 14.68c.32-.02 1.06.03 1.18-.27.05-.71-.21-1.13-.08-1.9.1-.62.45-1.12.47-1.51-.73.09-2.02 2.5-1.88 3.65l.31.03z"/><path class="fil8" d="M4.25 29.18c-.09 1.87 1.56 4.52 2.44 5.22l.28-.09c-.1-.48-1.16-1.88-1.48-2.59-.45-.98-.59-2.06-.92-3.16l-.33.02v.59z"/><path class="fil3" d="M72.14 13.83c.39.21.72-.09 1.17-.23 1.13-.33 3.38-.69 2.97-1.82-.91-.29-4.02 1.67-4.14 2.05z"/><path d="M13.79 24.4c.38-.11.59-.39.93-.62.27-.18.77-.39.93-.65-.02-.37-.05-.28.43-.44.23-.08.42-.13.69-.16.46-.06 1.06-.03 1.34.19.36.05.38.24.84.37.35.1.58.15.91.26.69.25 1.11.57 1.77.37-.21-.02-1.5-.76-1.89-.92-.68-.28-1.51-.53-2.32-.56-1.75-.07-3.19.88-3.63 2.16z" style="fill:#c78b67"/><path class="fil14" d="M33.42 16.88c.42.57.72 1.72.88 2.51.09.45.24.84.34 1.32.08.39.08 1.17.22 1.46.67-.21.4-.87.26-1.61-.13-.73-1.12-4.59-1.93-4.58-.04.37.13.59.23.91z"/><path class="fil2" d="M70.13 36.95c.48-.09.54-.36.82-.68.5-.57 1.3-1.17 1.38-1.32.09-.19.24-.83.19-1.1-.55-.04-.87-.17-1.11.26-.28.5-1.24 2.5-1.27 2.84z"/><path class="fil3" d="M36.57 33.97c.5.26 1.68-.43 2.18-.65.88-.37 1.66-.35 1.41-1.61-.43 0-1.45.78-1.89 1.05-.52.32-1.64.85-1.71 1.21z"/><path class="fil16" d="M13.99 8.67c.66.08.04-.01.5.31.18-.31 1.54-1.89 1.84-2.12.39-.75.9-.55 1.26-1.7-.4.29-.71.43-1.08.7-.82.61-1.5 1.41-2.13 2.25-.17.22-.18.33-.39.56z"/><path class="fil13" d="M4.63 19.75c.13-.1.67-.6.73-.76.07-.17-.15-1-.2-1.3l-.31-1.32c-.3.54-1.03 2.77-.22 3.38z"/><path class="fil8" d="M11.1 7.32c-.24.33-.89.72-1.28.87l.02.82c.47.04 2.39-1.37 2.8-1.74l-.06-.25c-.53.01-1.03.17-1.49.3z"/><path class="fil11" d="M6.96 16.33c.47-.09-.04-.12.56-.27.23-.06.55-.07.82-.05.1.16.24.37.34.57.15.32.1.44.39.59.48-.36.07-.52-.03-.8l.11-.03c.01 0 .04-.01.05-.02.08-.05.08.15.11-.14.04-.37-.81-.77-1.11-.89-.86-.35-1.48.52-1.24 1.05z"/><path d="m61.16 13.5.05-.04c-.25-.35-.53-.37-.63-.91-.1-.53-.07-.85-.71-.83-.23.29-.44.96-.84.88l-.06-.13s-.11-.06.11-.45c.34-.6 1.42-1.78 2.02-.32.07.17.22.56.46.64.35.11.23-.03.26-.06-.33-.07-.08-.06-.18.04.28-.11.01.03.1-.2l-.25.04c-.21-.45-.46-1.82-1.68-1.2-.46.24-1.29 1.28-1.17 2.03.92.28.82-1.01 1.62-1.02.25.74.14 1.25.91 1.53z" style="fill:#4e1a13"/><path class="fil2" d="M21 11.79c-.21.29-.49.46-.34.99.08.3.43.63.91.49.63-.19.93-1.65-.57-1.47z"/><path class="fil16" d="M2.07 12.24c.63-.21.63-.01 1.16-.35.31-.2.61-.3 1-.44.71-.26.54-.43.85-.58.25-.12 1.11-.06 1.44-.06l-.24-.11c-.66-.19-1.78.15-2.38.35-.33.11-.77.21-1.03.4l-.8.8z"/><path d="m75.6 20.32.04.75c.47.1 1.42.13 1.8-.08-.07-.13-1.14-1.1-1.83-.67z" style="fill:#f61999"/><path class="fil11" d="M22.37 13.43c.26.37 1.08 1.19 1.5 1.14.02-.49-.88-1.56-1.15-1.76-.28.07-.34.19-.49.36 0 0 .06.17.14.27z"/><path class="fil19" d="M14.3 30.36c-.03-.54-.16-.41.1-.82.15-.24.21-.25.26-.66.07-.6.02-1.15.16-1.74l-.28.26c-.11.12-.12.13-.21.29-.37.66-.22 2.4-.03 2.67z"/><path class="fil2" d="m74.74 36.51.01.2c.67-.03.59.15 1.06.19.21-.32.31-.88.32-1.36-.64.18-1 .65-1.39.96z"/><path class="fil11" d="m6.13 16.57-.02.2c.34-.05.37-.14.39.27l-.41-.02-.07.09c-.09.17-.01 0-.08.16-.12.28-.24.71-.08 1 .41-.04.09-.01.4-.26.1-.08.3-.18.39-.27.09-.51.1-.95-.13-1.37-.13.1-.21.16-.4.19z"/><path class="fil16" d="m6.79 18.64.33-.03c.12.22.05.14.27.18.35-.24 1.36-.71 1.79-.75l-.05-.39c-.6-.05-2.03.72-2.34.99z"/><path d="M20.51 13.36c-.38-.01-.47-.26-.64-.47-.21.11-.43.28-.61.43-.23.19-.33.24-.35.61.56-.04 1.27-.24 1.6-.58z" style="fill:#d9231c"/><path class="fil19" d="m13.19 30.49.12.55h.63c.01-.15.04-.1 0-.26-.05-.17-.02-.07-.1-.17l-.01.24-.04.12c-.2-.27.04-.1-.23-.72-.12-.27-.11-.52-.19-.75-.21.06-.1-.07-.21.13-.08.15-.01.68.03.87z"/><path class="fil21" d="M70.24 21.61c-.14.29-.13.37-.03.7.4.04.39.06.86-.33.25-.2.13-.04.23-.31l-1.06-.06z"/><path d="M8.47 22.79c.26.12.06.41 0 .69.33-.08.37-.17.53-.44.16-.28.22-.45.3-.79-.57.02-.61.21-.82.55z" style="fill:#52462e"/><path d="M8.9 10.79c-.22-.43-.48-.44-.25-.91-.34.11-.95.17-1.16.42l1.41.5z" style="fill:#b7681c"/><path d="M19.87 12.89c.17.21.26.46.64.47l.1-.12c-.05-.37-.09-.47-.33-.68-.29.06-.29.07-.4.33z" style="fill:#f3918c"/><path class="fil21" d="M6.13 16.57c.18-.02.27-.09.4-.19.01-.25-.01-.43-.09-.6-.45.03-.52.41-.3.78z"/><path d="m6.09 17.03.41.02c-.02-.41-.05-.32-.39-.27l-.02.25z" style="fill:#ffdb87"/></g></g></svg>