<svg xmlns="http://www.w3.org/2000/svg" xml:space="preserve" width="260.319" height="147.958" style="shape-rendering:geometricPrecision;text-rendering:geometricPrecision;image-rendering:optimizeQuality;fill-rule:evenodd;clip-rule:evenodd" viewBox="0 0 178.82 101.63"><defs><style>.fil5{fill:#847917}.fil4{fill:#f3ecd3}.fil2{fill:#fbe619}.fil3{fill:#fdfcfe}</style></defs><g id="Camada_x0020_1"><g id="_2066947770656"><path d="M79.77 13.26c0-1.05-.15-1.1.83-1.16 1.57-.11 4.16.53 5.45-.18 1.22-.66 1.5-3.82 1.85-5.66C89.26-.89 90.31.27 74.97.27c-.71 0-1.04.16-1.65.17-.64.01-.78-.17-1.46-.17H66.2c-2.66 0-6.41-.79-6.69 2.04-.26 2.61-.26 5.53-.38 8.21l-.97 16.31c-1.15-2.19-.19-7.41-3.11-7.41-3.88 0-5.49-.69-6.55 1.75l-3.32 8.17c-.49-.55-.22-.58-.1-1.52.44-3.41 1.24-8.27-3.74-8.27-2.96 0-8.02-.23-10.73.13-1.02.14-.9-.09-1.88-.09l-10.81.06c-2.05-.24-13.6-.23-14.03.01-1.08.6-1.18 3.77-1.26 5.09-.15 2.63 1.41 2.42 3.69 2.51-.24 4.11-.77 8.17-1.23 12.21-2.2.56-2.97-.54-3.24 3.16C1.58 46.45.83 50.36.6 54.15c-.33 5.33-2 7.97 2.2 7.93 4.94-.04 11.35-.18 16.09-.01l21.39 3.42c5.27.75 10.64 1.81 15.86 2.43 1.38.16 2.52.51 3.88.68 4.21.51 3.78-.25 4.14 2.82l.6 6.87c1.25 10.37-.82 9.44 5 10.1 4.7.54 9.5.44 14.18.84l18.81 1.3c2.98-.01 6.37.46 9.49.55l9.15.73c1.03 2.28.67 7.26 1.75 9.68 1.64.36 1.61-.13 2.84-.74l12.37-6.44c1.55-.78 3.34-1.77 4.93-2.57l7.54-3.97c.74-.37 2.03-.76 1.39-2.13-.54-1.17-8.11-3.71-9.76-5.17l15.66.03c.91 0 .96-.32 1.65-.35.5-.02.91.18 1.63.2 1.16.04 2.49-.02 3.67-.03.75-.01 1.22-.17 1.66-.19.44-.02.88.17 1.62.19 1.2.04 2.46.03 3.66.03 2.63 0 6.03.55 6.73-1.05.48-1.09-.87-12.16-1.03-14.04-.16-1.91-.24-3.76-.43-5.63-.38-3.71-.94-7.53-1.04-11.34-.05-1.8-.41-3.82-.56-5.66-.31-3.59-.1-3.21-2.15-3.85-.23-2.36 1.54-5.82 1-7.97-.45-1.75-4.85-.85-7.9-1.06-.1-.76-.2-2.07.1-2.62.92-1.13 5.8.91 6.83-1.23.39-.82.65-6.1.65-7.38 0-1.91.04-3.2-2.19-3.29-1.54-.06-3.16.06-4.73-.08l.2-3.01c7.09-.88 6.48 2.33 8.03-6.02.42-2.26 1.96-5.86-1.71-5.86h-11.67c-.79 0-.91.21-1.61.15l-6.61-.18c-6.17 0-6.6-.74-7 3.58l-.42 7.4c-.01.87-.31 1.79-.31 2.09-.23-2.39-.23-5.09-.67-7.35-.41-2.08.39-5.91-2.21-5.91-4.98 0-5.92-.84-6.71 2.57-.53 2.28-1.64 8.81-2.25 10.54l-.43.86c.19-3.35 1.86-13.79-3.58-13.79l-12.42.03c-1.36 0-3.32-.24-4.01.92-.29.48-.43 8.11-.56 9.47-.26 2.92-.5 6.58-.54 9.5-.02 1.65-.12 3.29-.19 4.94-.04.98-.11 3.82-.29 4.67l-4.4-.01 1.22-26.22c.08-3.27-.55-3.21-4.03-3.26-2.21-.03-3.56-.32-3.92 1.88-.29 1.77-.58 8.72-.67 10.91-.44-1.06-.6-5.72-.79-7.23-.31-2.45.27-5.79-2.3-5.79-6.72 0-5.9-.86-7.09 4.6-.38 1.73-3.25 16.45-3.85 17.56.12-8.92 1.17-6.25-6.7-7.06l-.02-1.92z" style="fill:#000"/><path d="M15.09 60.28c.59.4 5.15.79 6.2 1.02 2.04.44 4.32.52 6.32.97 3.95.9 8.45 1.09 12.53 1.92 4.14.85 8.29 1.23 12.5 1.95l9.24 1.5c.95.13 2.47.12 3.04.62.38.43 1.19 11.69 1.46 13.89.55 4.45-.67 4.74 2.01 4.87.58.03 1.22.03 1.78.09 7.28.72 17.16 1.11 24.52 1.62 6.3.44 14.75 1.2 20.83 1.45 1.27.05 6.08.27 6.96.56.54 1.01.99 7.7 1.51 9.54 1.15-.21 15.6-8.04 18.5-9.5l8.49-4.46c-.45-.55-18.06-9.08-19.77-9.84-1.38-.61-2.63-1.32-4.04-1.99-1.73-.82-6.65-3.49-8.12-3.7.2 1.9 1.57 8.56 1.45 9.47l-47.12.62c-.43-2.65-2.05-16.26-2.7-17.48-4.18-.35-8.49-.69-12.69-.77-1.98-.03-4.42-.24-6.35-.48-3.61-.45-11.73-.49-15.94-.83-1.14-.09-1.86-.33-3.09-.34l-13.09-.72-.14-.62c-.38.83-.66.65-1.76.64-.84 0-1.68-.02-2.53-.02z" style="fill:#fe14a4"/><path class="fil2" d="M155.33 31.66c-.94.06-2.93.26-3.57-.2-.24-.25.72-20.45 1.03-21.09l3.71-.07c0 3.2-.15 7.64-.48 10.71-.38 3.51-.08 7.18-.7 10.66zm-8.32 8.17c2.86.09 5.49.08 8.35.02 1.78-.04 2.49.4 3.33-.8.91-1.31.68-2.22 1.23-3.15.12 1.49-.32 2.69-.24 3.9l11.31.05c.48-1.07 1.52-6.76 1.63-8.2l-8.08.15c0-2.52.2-4.3.36-6.67l7-.07.34-7.83-6.94-.01.3-6.87 7.05-.06 1.67-7.95-12.6-.08c-.09.98.11 2.58-.34 3.35-.73-1.76.09-3.37-2.55-3.36-2.23.01-8.76-.17-9.97.11-.17 6.26-.73 12.47-.93 18.75-.08 2.57-1.23 17.62-.92 18.71zM85.22 38.8c.81-.72.96-.77 2.14-1.28.28-1.8.91-2.69 2.99-2.54.03-1.09 1.58-8.44 1.94-9.89.4-1.65 1.55-8.92 2.21-9.62.28 3.39 1.37 13.67 1.27 16.22-.68.03-2.38-.05-2.9.05-.91.17-.39.24-.56 2.34-.13 1.63-.51 3.96-.25 5.57l21.63.04c1.17-.29 2.61-.12 3.85-.12.34-1.4.41-7.12.45-8.95.06-2.91.51-6.07.55-8.94l.65-13.7c.1-1.18.36-3.31.18-4.56-.3-.17-.47-.32-.89-.5.72.03 1.41.23 2.02.57-.16-.05-.33-.09-.49-.11.34 1.58-.94 14.38-.84 18.13.03 1.1-.12 3.4-.2 4.57-.1 1.36-.06 3.28-.25 4.56-.4 2.62-.46 6.09-.46 8.94l10.73.07-8.3-.06c-.07.12-.14.23-.22.34 3.33.07 8.06.12 8.51-.28 2.01-.7 1.95-4.84 1.97-7.38.01-1.74.66-8.25.28-9.32.41-.5.4-1.63.45-2.38.06-.98-.02-1.93.06-2.91l.51-10.96c.01-1.79 0-3.86-1.57-4.42h-13.57l-1.66.06c-.08 6.12-.91 12.29-.92 18.24 0 2.82-.54 6.01-.55 8.94-.01 2.37-.08 6.78-.38 9.06-.46-2.19-.45-4.63-.9-6.82l-6.83-.01c-.16-4.3.82-16.19 1.06-21.95.1-2.45.08-5.09.25-7.53l-4.26.01c.04 5.99-.86 13.14-.91 18.48-.03 2.62-.68 16.48-1.21 18.19l-.84-9.24c-.27-2.84-.35-6.47-.83-9.21-.4-2.31-1.32-14.79-1.71-18.55l-4.7.03c-.08 1.49-.64 3.12-.91 4.57l-2.85 13.77c-.83 3.27-1.91 10.23-2.87 13.74-.35 1.28-.73 3.45-.89 4.74zM120.5 3.48l.02.01-.02-.01zm3.25 6.89 3.97-.12-.3 3.74-.86 17.5c-.93.47-2.63.21-3.73.21-.53-4.19 1.12-19.47.93-21.33zM59.64 35.26l-.06 4.51 4.04-.05c.01-.83-.11-1.44.19-2.12-.02-4.39.61-9.12.63-13.57.02-4.16.31-9.53.73-13.65l3.88-.09c-.01 1.03-.2 6.39-.44 6.94l-3.05.05c-.14 2.82-.45 5.91-.05 8.59.36 2.41 1.06 5.64 1.12 8.03 1.4-1.26 2.76-.91 4.16-1.67-.25-.98-1.09-7.63-1.02-8.67 2.96-.62 2.02-.3 3.33-3.52.26 1.57-.06 4.31-.19 5.89-.16 1.98-.1 4-.3 5.96 1.64-.12 2.6-.33 4.41-.27l.28-6.53 6.96-.2.41-7.68-6.87.02c-.19-2.54.27-4.53.33-6.86l6.88-.1c.36-.7 1.63-7.52 1.69-8l-12.47.02c-.11 1.07-.05 2.6-.39 3.42-.21-.51-.19-1.3-.36-1.9-.25-.84-.54-.92-.84-1.52-1.69-.06-10.23-.2-11.28.1-.15 8.28-1.12 16.39-1.29 24.56-.06 2.78-.52 5.55-.43 8.31zM103.5 78.48c1.07.06 3.39.19 4.27-.1.28-3.35 1.25-28.73 1.81-29.41.3-.26-.33-.11.65-.2l2.84.01c.26 1.09-.05 5.99-.19 7.26-.28 2.58-.21 8.42-.49 11.2l-.64 11.2 4.23-.03c.12-3.04.02-6.41.42-9.36.18-1.34.22-3.1.32-4.5.1-1.39.18-3.37.2-4.72.05-3.1.54-6.35.54-9.32l.42-9.49c-4.09.12-8.31-.33-12.38-.06 0 3.05-.51 6.26-.55 9.36-.03 2.8-.17 6.67-.44 9.39-.3 3.08-.28 6.34-.49 9.42-.21 3.04-.43 6.25-.53 9.34zM94.79 70.2c-.07-2.41.83-18.03 1.08-21.11 1.06-.3 2.48-.13 3.6-.13 0 2.44-.11 5.57-.39 7.94-.19 1.58-.5 6.46-.29 7.9-.7.99 0 4.22-.52 5.53-1.02.24-2.85.35-3.49-.14zm8.16-2.97c.19-4 1.91-22.78.7-25.28-.41-.85-.88-1.02-2-1.02-2.01 0-4.03.02-6.04.01-1.53 0-2.85-.46-3.66 2.25-.64 2.13-.55 8.22-.86 11.01-.62 5.63-.25 11.38-.96 16.95-.17 1.31-.35 4.36.05 5.47.84 2.37 1.34 1.97 4.16 1.92 4.06-.07 6.52.85 7.58-1.26.4-.79.76-1.47.58-2.44l.45-7.59zM153.21 50.89c.08-1.96-.91-1.94 3.82-1.84.42 2.78-.44 8.04-.52 10.96-.05 1.88-.13 3.6-.19 5.49-.04.98-.18 1.75-.17 2.73 0 .9.26 2.24-.6 2.24-1.48.01-2.01.13-3.38-.13l-.03-.64 1.07-18.81zm8.14.61c.12-.18.11-.1.2-.45l.27-4.91c.25-6.71-1.79-5.06-9.56-5.14l-2.75.23-.37 6.3c-.07.17-1.73 30.3-1.56 31.04 2.13.28 7.84.15 10.14.01 2.97-.18 2.66-4.78 2.8-7.42.17-3.23.43-6.45.56-9.68.07-1.76.57-8.89.28-9.98zM130.9 39.73c4.52.14 4.03.7 4.81-3.06.56-2.72 1.15-6.55 1.85-9.09.59-2.16 2.12-11.08 2.63-12.05.31.86 1.35 14.72 1.36 16.28l-3.36.01-.35 7.96 8.78.01c.04-2.72-.45-6.78-.75-9.53-.33-3.09-.66-6.16-.88-9.33-.21-3.12-.75-6.12-.89-9.32-.15-3.18-.53-6.4-.83-9.62-1.02-.1-2.05-.03-3.08-.03-1.55 0-1.61-.27-1.85 1.17-.31 1.85-.73 3.4-1.06 5.14-.69 3.64-1.5 7-2.16 10.46l-3.23 15.68c-.35 1.83-.84 3.24-.98 5.33zM161.21 78.47l4.22.02c.09-1.18.42-1.95.63-3.06l3.69-18.23c.25-1.06.62-2.09.63-3.25.6 1.21.84 6.22.91 8.07.12 2.85.57 5.72.73 8.48l-3.41-.01c-.48 2.48-.27 5.45-.47 7.98l8.82.04-.83-10.23c-.37-2.97-.67-6.17-.84-9.19l-1.83-18.26c-.88-.41-3.29-.21-4.42-.17l-1.53 6.82c-.17.86-.21 1.76-.4 2.53l-4.02 18.8c-.42 2.15-1.75 7.95-1.88 9.66zM131.29 75.14c.89.53 2.75 1.47 3.84 1.71l1.15-5.62c.73-3.12 3.08-15.9 3.73-17 .39 1.24 1.18 14 1.35 16.27l-3.33.01c-.25.89-.53 7.37-.32 7.9 1.65.36 6.63.12 8.62.12-.14-2.94-.24-6.82-.73-9.64-.52-3.02-.41-6.32-.85-9.37L143 40.77c-1.46-.26-3.13-.15-4.62-.09-.37 1.22-.51 2.85-.88 4.19-.33 1.23-.61 3.06-.87 4.41-.55 2.75-5.27 24.45-5.34 25.86zM77.77 44.92c-.06 4.3-.55 8.57-.56 12.9 0 1.94-.34 4.65 1.03 5.5.85.53 5.22.24 6.53.24.21.89-.09 5.95-.24 6.93l-7.87.04c-.39 2.05.55 5.81.55 7.91 1.09.28 7.45.14 8.9.05 1.56-.09 1.95-.93 2.41-2.2.73-1.99.77-10.28.99-12.5.26-2.65.55-6.28-1.03-7.91-1.39-.43-4.94-.09-6.64-.19-.18-1.02.05-6 .5-6.59.99-.61 5.08.14 6.65-.27l1.34-6.06c-2.1 1.06-4.53 4.3-6.34.91-3.25-.08-2.13 1.65-6.23 1.23zM122.91 44.45l.14-3.24-4.03-.05c0 .35.02.82-.02 1.16-.08.6.03.48-.28.69.19 1.89-.12 6.93-.39 8.88l-.86 17.81c.02 1.83-.21 2.62-.34 4.2-.12 1.4-.15 3.22-.2 4.62h2.01c-.05-1.6-.42-3.13-.71-4.44l-.44-3.3c.05-2.94 2.7-.44 3.9-.57-.02-1.38.09-3.66.22-5.09.12-1.3-.56-1.66 3.95-1.34l-.2 8.47c.47.59 3.26 1.85 3.95 2.01.3-.65 1.73-30.23 1.78-33.3-1.09.05-3.34-.17-4.21.18-.15 1.77-.43 14.04-.81 14.52l-.29.14c-.77.23-2.67.12-3.51.12l.35-11.47z"/><path class="fil3" d="M15.09 60.28c.84 0 1.68.02 2.53.02 1.1 0 1.38.18 1.76-.64l1.41-13.06c.16-1.24-.14-1.25 3.66-1.08.47 2.16-1.47 12.8-1.14 14.64l4 .02c.58-1.62.67-5.24.9-7.26l.85-7.41h3.82c-.16 2.18-1.61 13.57-1.33 14.62l3.9.08c.36-1.15 2-16.92 2.01-18.72H16.97c.04 3.37-1.95 17.65-1.88 18.8zM35.09 26.04c.18-.78.06-.59.96-.59l2.8.03c.11 1.48-.37 3.73-.5 5.33-.46 5.86.32 5.63-4.14 5.28l.87-10.05zm-5.61 14.24c2.18.01 9.4.3 10.95-.2 1.7-.54 1.6-1.78 1.8-3.8l1.07-10.04c.16-1.6.59-3.67-.74-4.51-.78-.49-9.7-.45-11.07-.23-.77 2.93-.79 6.22-1.12 9.31l-.89 9.47zM21.02 35.36c-.05-.54.39-4.66.53-5.37.17-.93.19-1.64.3-2.61.19-1.65-.9-2.23 3.63-1.89.13 1.05-.8 9.58-1.12 10.46-.8.29-2.37.29-3.29.12l-.05-.71zm-1.59-13.77c-1.96.65-1.83 3.56-2.08 6.07-.25 2.48-.48 4.98-.73 7.47-.28 2.88-1.3 5.16 2.43 5.15 10.65-.03 9.2.81 10.08-6.14.15-1.19.15-2.55.35-3.71.3-1.71.79-5.89.62-7.45-.15-1.39-1.09-1.57-2.63-1.56-1.65.01-6.88-.21-8.04.18zM46.34 56.1c-.38-1.27.44-5.5.57-6.91.06-.62.15-3.18.43-3.48.39-.41 3.05-.21 3.59-.2l-.98 10.47c-.82.25-2.58.18-3.6.11zm-4.82 4.12 7.69.06c4.91 0 4.64-.38 5.13-4.09.25-1.91 1.25-10.8 1.21-12.64-.04-1.96-.86-2.1-2.69-2.09-2.48.02-7.12-.27-9.32.08l-2.02 18.67zM1.93 60.28l12.4-.03 1.88-18.72-4.18-.04c-.75 2.62-1.01 13.41-1.92 14.79l-3.41.03c-.12-1.53.34-5.7.55-7.37l.76-7.45-4.15-.01c-.42 5.3-1.82 14.14-1.94 18.79zM43.14 40.14h3.92c.7-1.83 1.7-4.11 2.41-5.95.38-.99.77-1.96 1.22-3.02.2-.47.43-.94.64-1.5.57-1.51.25-1.13.8-1.39.35.9.47 2.63.74 3.84.28 1.27.41 2.78.6 4.06l-3.25-.01c-.23.6-.59 3.3-.52 4l8.56.05c.3-.91-.52-3.59-.69-4.58-.37-2.14-2.14-13.68-2.56-14.11-.33-.34-3.96-.17-4.44-.12l-2.94 6.69c-.76 2.29-4.54 10.9-4.5 12.05zM68.4 40.13l-2.06 4.84c-1.03 3-5.97 13.71-6.05 15.12h3.99l4.96-11.9c.4.5 1.46 6.88 1.35 7.98l-3.11.03c-.28.69-.49 3.04-.42 3.88l8.46.08c.18-1.54-2.58-14.35-2.67-15.71-.09-1.27.41-.94.74-1.82.14-.48.14-.13-.12-.3-.61.37-3.02 2.94-4.43 4.07-1.36 1.09-1.29.99-1.67.58-1.16-1.24 2.86-3.17 3.41-3.77.43-.47.78-.83 1.09-1.5l-3.3.04c-.02-1.76 1.17-1.42 1.89-2.05.06-.3.3-.16-.23-.14h-.39c-.57-.14-1.03.3-1.44.57zM4.55 25.44h3.92c-.26 4.91-1.23 9.82-1.46 14.72 1.01.05 3.19.13 4.08-.16.83-4.63.7-9.86 1.67-14.42 1.09-.42 2.77-.08 3.99-.2l.46-3.9-12.42-.07-.24 4.01zM55 60.08c.83.17 3.36.23 4.14.01l1.92-18.61h-4.11c-.49 2.94-.5 6.38-1.07 9.32-.29 1.5-.99 8-.89 9.28z"/><path class="fil4" d="M82.74 42.02c2.63.24 1.55-2.08 3.74-3.39 1.81-1.08 2.51-.15 1.76.84-1.28 1.7-2.34 1.5-2.23 3.2 1.71.8 2.37-.49 3.68-.8-.24 1.09-1.58 1.85-2.56 2.35-2.17 1.1-2.22-.58-2.84-1.57-2.47.35-3.79 1.79-4.93 1.85-2.41.12-2.53-2.98-1.62-4.37.62-.95 2.49-2.5 4.38-2.43 1.15.04.93.48 1.01 1.08.44 3.15-.34 1.94-.37 3.25zm7.33-6.23c.43 1.38-1 2.43-1.75 1.74-.73-.68.32-2.17 1.75-1.74zm-17.46-3.9c-.65.36-.83.35-1.82.34-1.4.76-2.77.41-4.16 1.67-.29.83-1 1.64-1.44 2.63-.91 2 .87 1.54 2.12 1.51.7-.49 1.69-.4 2.26-.79.81-.55.48-1.29 1.97-1.41l.95-.2 3.05-.7c-.01.87-.71 1.92-1.1 2.61-.58 1.01-1.07.94-2.17 1.2l-.37-.11c-.47.3-.35.18-.91.36-.24.08-.33.08-.59.21-.4.19-.26.08-.55.35h.39c.53-.02.28-.16.23.14 1.19-.11 3.59-.37 4.21-1.38.48-.78 1.92-2.57 1.52-3.78-1.91-.29-4.33.63-6.14 1.15-1.82.53-.83.27-.77 1.05-1.24.32-2.41 1.05-3.6.83-.27-.8.81-2.4 1.28-2.94 1.55-1.79 9.44-3.06 11.44-2.12.57 2.14-1.65 4.58-2.38 6.33l.69.69c-1.21 2.7-2.22.99-3.24 2.81.26.17.26-.18.12.3.88-.46.28-.51 1.6-.89.87-.25.95-.43 1.45-.92.06.78-.09 1.75.13 2.46.19.62.71.95 1.02 1.64 4.09.41 2.98-1.32 6.23-1.23 1.81 3.39 4.23.15 6.34-.91l.17-1.76-1.17-.08c-.39.51-1.71 1.46-2.57 1.26.01-.67.47-.88 1.05-1.26.18-.57.46-.8.9-1.16 1.03-.84.37-.44.87-1.51.37-.79.72-.42 1.02-1.36.26-.8-.08-1.33-.26-1.94-2.09-.14-2.71.74-2.99 2.54-1.18.51-1.33.56-2.14 1.28-.31.62-.83 1.75-1.43 2.07l.15-3.09c-3.29-1.78-5.58.89-5.96 1.02-1.65.56-.52-1.35-.27-1.8 1.59-2.79 1.88-3.32.69-5.34l-1.39-.03c-1.81-.06-2.77.15-4.41.27z"/><path class="fil2" d="m83.94 37.77 1.23-6.12H78.4c1.19 2.02.9 2.55-.69 5.34-.26.45-1.38 2.36.27 1.8.38-.13 2.67-2.8 5.96-1.02zM67.31 38.04l.22 1.7c.58.23.35-.02.87.38.41-.27.86-.71 1.44-.57.3-.27.16-.16.55-.35.26-.13.35-.13.59-.21.56-.18.44-.05.91-.36-.37-.83-.34-1.8-.36-2.8-1.49.12-1.16.86-1.97 1.41-.57.39-1.55.3-2.26.79zM72.48 35.64l-.22 3.11c1.1-.26 1.59-.19 2.17-1.2.4-.69 1.09-1.74 1.1-2.61l-3.05.7z"/><path class="fil4" d="M79.3 42.35c-.14-.82-.08-.79.6-.83.18.49.06.91-.6.83zm-.6.62c2.19.55 1.74-.84 1.87-1.69.07-.49.25-.85.35-1.4-1.07.4-2.79 1.45-2.22 3.09z"/><path class="fil5" d="M118.72 43.01c.31-.21.19-.09.28-.69.05-.34.02-.81.02-1.16l4.03.05-.14 3.24c.59-.34.34-2.71.27-3.46l-4.28.02-.18 2z"/><path d="M89.34 40.94h-1.52c-.58.38-1.05.59-1.05 1.26.86.2 2.18-.75 2.57-1.26z" style="fill:#f2d21e"/><path class="fil5" d="M63.81 37.6c-.3.68-.18 1.29-.19 2.12l-4.04.05.06-4.51c-.42.79-.31 3.77-.15 4.6l4.24.04.08-2.31z"/><path d="M79.3 42.35c.66.09.78-.33.6-.83-.68.03-.75 0-.6.83z" style="fill:#fbe72e"/></g></g></svg>