<svg xmlns="http://www.w3.org/2000/svg" xml:space="preserve" width="249.853" height="143.858" style="shape-rendering:geometricPrecision;text-rendering:geometricPrecision;image-rendering:optimizeQuality;fill-rule:evenodd;clip-rule:evenodd" viewBox="0 0 165.33 95.19"><defs><style>.fil4{fill:#17abf1}.fil9{fill:#5ed1fc}.fil5{fill:#60d2fd}.fil2{fill:#efae65}.fil6{fill:#f1af67}</style></defs><g id="Camada_x0020_1"><g id="_2086936621248"><path d="M83.58 84.75zm0 0zM11.34 0h1.07c1.21.07 2.38.39 3.47.92 5.08 2.49 2.21 3.1 4.26-.42 3.66 0 6.8-.25 10.61-.25h37.89c1.94-.01 3.12.28 5.2.24 1.32-.03 1.86-.36 1.97.99.16 1.99-.77 5.9-1.13 7.95l-1.62 10.56c-.59 3.4-1.39 6.99-1.39 10.83h6.71c.37-1.59 1.89-1.89 2.33-3.78.81-3.46.89-14.71 1.78-16.85h-3.46c0-3.48 1.25-7.4 1.3-9.69C86.52.5 102-.42 106.69.32c3.67.58 21.29.18 26.48.18 0 2.03.01 3.2-.25 4.94-.64 4.31-1.38 8.47-1.7 12.96 3.17.85 2.99-.07 5.2-1.73.48-.36 1-.68 1.5-1.01 1.9-1.29 3.87-3.4 5.47-5.15.92-1 1.96-1.42 3.05-2.22.86-.63.48-1.04 1.66-1.09.96-.04 1.31.51 1.95.47 1.57-.1 7.16-8.46 8.87-1.44.88 3.61 2.08.78 1.67 6.14-.08 1.06 1.03 5.52 1.34 6.57l2.34 8.75c1.93 7.66 1.09 6.49-1.25 13.05-.48 1.36-.94 2.49-1.4 4.11-.44 1.54-.77 2.78-1.29 4.24-.49 1.41-1.15 2.44-1.79 3.67-.23.44-.66 1.51-.86 2.03-.9 2.35 5.37 9.62 4.41 13.97-.26 1.19-1 3.09-1.91 3.54-1.2.59-1.95 1.29-2.91 2.38l-4.15 6.67c-.62 1.11-1.07 2.77-2.17 3.25-3.7 1.63.43-5.31-1.57-4.61-.95.33-1.66 2.19-2.07 3.14-.41.95-.52.94-.94 1.65-1.73 0-2.16-.23-2.16-2.24-.9.55-1.7 1.21-2.6 1.74-5.72 3.39-2.72 1.37-5.59 1.65-.77.08-.54.32-1.55.35-.92.03-.96-.19-1.73-.26-.4.69-1.4 2.07-2.2 2.24-1.86.4-1.7-1.01-1.7-2.74-3.42 0-3.24-2.47-5.9.69-.85 1.01-1.34 1.31-3.15 1-4.43-.77-.99-2.2-9.11 1.59-3.75 1.75-3.22-.78-1.77-3.27-2.88.28-5.17 3.81-7.58 2.49 0-3.91 2.6-2.53.22-7.71-1.61 0-2.08 1.42-3.2 3.53-1.3 2.44-3.86 2.64-6.17 3.36-1.58.5-2.02 2.62-4.03 2.3-.34-.05-.84-.35-1.01-.6-.32-.45-.3-.67-.31-1.38-1.29.71-2.77 1.49-4.11.75 0-2.27.53-1.85.87-3.48-1.29.99-2.36 2.58-4.03 3.1-2.27.7-2.92-1.33-3.33-3.35h-1.52c-.15-.64-.38-.9-.65-1.49-.69.18-.95.45-1.57.69-1.69.64-2.38 2.18-4.49 2.06-1.75-.1-1.9-.52-3.64.31-1.44.69-1.77.1-2.87-.57l-1.22 5.06c-.58 2.26-.57 2.89-1.59 4.63h-.04c-.91 0-1.29-.1-1.74-.69-1.14-1.49-1.78-3.72-2.31-5.55-.41-1.4-.72-2.76-1.13-4.17-.37-1.25-1.01-2.43-1.27-3.76-2.28 1.92-2.29 8.28-4.71 9.79-.14.09-.4.23-.56.3-1.72.79-.95-3.5-.34-5.33.64-1.91 1.23-3.17 1.7-5.5l-1.92-.01-.25-1.48c-.86.08-1.45.4-2.26.64-.79.23-1.55.37-2.37.51-2.7.47-7.95.34-10.74.34-.94 0-1.88 0-2.82.01-1.19.01-1.5-.17-2.38-.25-.17-.4-.11-.38-.23-.73l-.2-.51c-.06.84-.17.91-.43 1.49h-5.2c-1.2 0-3.74.6-4.11-.99-1 .27-1.7.72-2.61.98-3.76 1.08-8.02-.05-9.62-4.35-1.35-3.64-.59-6.39.1-9.81h4.33c-2.3-3.94-3.52-5.87-2.73-11.09.56-3.68 2.93-6.79 6.16-7.84 3.17-1.03 4.64.04 7.61.04.6-1.31 1.06-1.94 1.88-3.06.72-.97 1.29-1.96 1.98-2.94 1.3-1.85 3.31-3.56 3.5-6.18-6.82 0-6.84-2.99-9.09-4.72-.19.82-.94 1.3-1.52 1.74.3.71 1.28 4.73 1.3 5.72-1.62 0-2.93.34-4.35.48-1.44.14-3.07.49-4.31.52-.48-1.14-.7-2.37-1.45-3.31-1.84-2.31-5.44-1.25-6.42-6.8-.07-.37-.11-.78-.15-1.22v-3.86c.24-4.35 1.09-9.49 1.57-12.08C2.5 6.4 4.05 2.28 8.69.61c.88-.32 1.76-.49 2.63-.55z" style="fill:#000"/><path d="M140.75 20.74c.21.73-.07.3.3.78.98-.01.6-.38 1.4-.04.66.28.12.56 1.22.6 3.16.12 3.27-4.09 5.97-4.97.22.41.25-.1.24.91-.01.89-3.2 5.72-3.54 6.15-.58.73-1.11 1.11-1.57 1.75-.63.88-4.1 8.13-5.26 8.31l.63-1.58c.22-3.75 2.41-5.17 1.55-7.79-1.08-.33-2.5-.06-3.38.76-.85.79-.97 2.13-1.6 3.26-.31.55-.53 1.12-.83 1.6-.33.52-.67.85-1.08 1.3-1.11 1.26-.76 1.71-1.39 3.23-.26-.63.05-1.25.1-2.21.05-.97-.15-1.86.25-2.46.74-2.46 4.26-8.07 5.98-10.17 1.24-1.52 7.07-7.02 7.43-8.48-1.2-.92-1.44-.21-2-2.12l-.6.41.38.04c-.75.5-.74 1.13-2.46 2.6l-1.29 1.33c-1.23 1.39-3.08 2.33-4.37 3.38l-5.8 7.08c-.52.88-.65.81-1.1 1.54-.55.88-.67 3.26-.86 4.59-.49 3.59.07 3.83-.26 4.79l.86.4c-.27.48-.44.64-.65 1.12.55 1.36.35-.18.83.99-.43.64-.61.73-.73 1.55.55.72.42.28.82 1.02-1.81 2.69.02 1.79-1.1 4.61-.48 1.21-.88 3.63-1.32 4.35-.56.91-.73.53-.99 1.7-.19.85-.12 1.63-.4 2.52-.14.45-.76 1.69-.94 2-.52.84-.78.71-1.41 1.27-1.14 1.24-.53 1.6-1.2 2.84-.57 1.05-1.33.71-2.14 1.31.63 1.1 2.59 1.3 3.19 1.92 2.1.13 6.87 3.48 9.36 3.6 2.68-.59 7.54-6.41 8.67-8.58.98-1.89 1.44-.72 2.71-3.77l2.4-4.37c.39-.86-.06-.53 1.22-3.43 1.31-2.96 1.46-5.03 3.32-7.61.25-.34.76-.87.97-1.19.62-.96.36-2.36 1.08-3.59.45-.76 1.33-1.91 1.65-2.68.42-1.03.74-2.37 1.18-3.5.38-.99.77-2.26 1.1-3.31.51-1.63.4-2.1 1.74-2.86-.12-1.47-.27-2.47-1.14-2.9-1.36-.67-3.87 1.68-2.44 2.99l1.2-.03c.91-.45.67-.92 1.4-1.85.18 1.99-.26 1.13-.66 2.26-.73.68-1.18.51-2.19.51-.22 2.39-.38 2.3-3.09 4.58-.26.37-.83 1.86-1.16 2.49l-3.96 7.46c-.52-.17-.27.1-.52-.56.19-1.45-.44-1.83.08-3.56 1.48-5.03 3.29-3.7 4.04-7.76-1.24.44-.69.98-2.51.66.09-.89 1.43-3.73 1.91-4.46.68-1.03.57-.59 1.12-2.03.31-.79.56-1.21 1.36-1.34-.23 2.34-.5-.78-.47 4.21l.8-.11c.58-1.12.41-1.39 1.26-2.13 3.08-3.74 3.08-.8 3.83-4.09.63-2.81-.32-4.7-2.73-4.85.52 1.26.79.51 1.42 1.82-.29 1.27-1.03 2.24-2.26 2.28-2.31.07-1.47-1.57-2.1-2.35l-2.01 3.76c-.28.45-.14.24-.32.49.13-2.02 2.89-6.18 4.99-6.67 1.74-.41 2.43-.46 3.06-2.52.57-1.88-.53-3.86-1.84-3.12.49.9.69.47 1.17 1.53-.4.99-1.34 2.02-2.42 2.37-.55.18-1.28.13-1.77-.16l-.77-.92c-.02-.04-.08-.07-.09-.17-.02-.09-.06-.12-.1-.17-1.43.72-5.39 6.76-7.03 8.53l-4.33 4.89z" style="fill:#feda86"/><path class="fil2" d="M158.11 31.76c1.57 2.52-.83 6.46-.88 7.67-.06 1.48.71 1.28.86 2.47-1.27-.89-1.5-2.53-.88-4.5.84-2.69.92-2.52.9-5.64zm0 0c-.34-.2-.18-.16-.67-.18-.81 1.52-1.65 3.86-2.3 5.71-.44 1.26-1.93 4.6-2.68 5.4.15 1.31-1.26 3.79-1.79 5-.76 1.72-1.08 3.24-1.88 4.97-.91 1.97-2.36 4.9-3.59 6.58-.59.81-.95.92-1.1 2.36l.76.62c.31.28.2.18.34.35 1.79.14 2.61 1.05 4.9 1.03.87-.01 1.76-.13 2.56-.35 2.38-.67 1.95-.39 2.54-3.48-.01-2.86.59-3.6 2.29-6.26l.63-.83c.05-1.37.9-2.69 1.34-4.04.51-1.58.93-2.53 1.34-4.31.53-2.32 2.16-5.99 3.12-8.11 1.58-3.53-.72-9.19-2.12-13.22-.47-1.36-1.21-2.98-1.92-3.61 1.57.4.17.7 1.51 1.21.09-1.64-.79-2.21-.6-3.49.08-.52.07-.36.21-.62.05-.45.14-.39-.22-.22-.25-.19-.06.04-.33-.38-.53-.85-.57-2.4-1.73-2.9l-.56 5.38c.57.39.74.67 1.53.93-.18 1.36.13 2.26-.13 3.75-.48 2.78-2.08 6.08-1.46 8.75z"/><path d="M118.83 37.17c-.41-.05-1.22.13-1.69.18.2-1.35.73-1.03 1.72-.86.94.16 1.14.16 1.31 1.19-.84-.17-.68-.44-1.34-.51zm-6.32 41.51.5-.12c-.27-.33.13-.14-.31-.21-.69-.1.04-.09-.2.32zm-20.34-.32c.82-.06 1.4-.26 2.04-.81-.2-.83-.38-1.03-1.14-1.26-.24.42-.75 1.45-.9 2.07zm-43.18-.09c.31-.65.8-2.47 1.08-3.29.35-1.03.07-2.69-.83-3.25l-.53 5.82c.14 1.41-.08.26.28.73zm6.01 0 4.99.01.79-5.76-5.14-.05c-1.39 0-1.47.84-1.33 2.48.1 1.14.35 2.45.69 3.32zm55.73-.62c.25-1.07.66-4.13.57-5.17l-1.54-.02c-1.09 1.86.76 2.69-4.44 2.6-1.58-.03-4.18.38-5.83.64-.24.74-.38 1.65-.29 2.51 3.51.7 3.85-1.91 6.09-.87 1.34.62.76 1.47 2.61.64 1.64-.73 1.57-.13 2.84-.33zm-17.94-6.97c0 1.87.91.57 1.47 2.06.12.32.09.57.2.97 4.36.46 3.4-4.13 4.35-10.81.4-2.81 1.84-11.35 1.71-13.85L97.51 49c-1.09 1.99-.81.57-1.82 1.23-.62.4-.36.78-.61 2.63-.52 3.9-2.27 15.38-2.27 17.82zm-4.45 4.58c2.24-1.72 1.38.89 1.57-5.6.12-4.33 2.59-16.88 2.33-19.51l-4.87-.02-2.31 16.96c-.34 2.83-1.02 6.11.31 8.69.47.91 1.51 2.11 2.17 2.41 1.92.87.87-2.05.81-2.93zm-38.36-8.39c.06.04.16-.01.19.09l1.97.7c.7.12 1.5-.31 2.62-.27l.46-1.43c6.52-.01 5.4.66 5.75-2.32.13-1.1.34-2.03.23-3.12l-5.22-.13.56-5.64 6.14-.07.64-4.39-2.8-.08c-.75-.22-.05-.87-1.33-1.15l-7.08.05-1.01 8.75c-.37 2.86-.98 6.17-1.13 9.02zm50.04 3.81-.17 1.78c.91.59 4.32-.21 5.15-.61 1.05-7.75-.46-5.66 6.37-5.93.16-1.97.59-3.38.43-5.46l-5.44-.11.72-5.62 4.2-.07-1.86-1.42c-.45-.22-.02.13-.36-.3-.57-.71-1.53-3.51-1.96-3.8-1.13-.25-3.22-.25-4.35.02-1.29 6.13-1.77 16.37-2.72 21.52zM9.77 68.31l-4.6-.1c-1.55 4.14-.4 9.93 3.44 10.18 4 .25 7.03-.22 8.83-5.23 1.43-4 .9-6.1-.73-8.94-1.23-2.15-3.25-4.03-4.46-6.33-1-1.9-.43-4.57 1.81-4.09 1.29 1.5.34 2.62.51 4.7h4.66c.16-1.93.51-3.37.28-5.35-.35-2.96-.25-2.71-2.91-2.53.32-1.1.42-.31.45-1.52-10.4-2.67-11.59 8.77-9.65 12.87 1.17 2.48 4.68 5.35 5.37 7.32 1.24 3.54-2.99 5.77-3.06 2.19-.03-1.3.44-2.12.09-3.14zm15.77-.73c-.06-1.16 1.06-5.11 1.36-6.45.47-2.11.57-4.73 1.47-6.28l-.46 11.79c-.12 1.51-.96 1.09-2.37.94zm-7.5 10.64c1.53.26 3.39.15 4.97.08l1.3-5.39 3.18.01-.03 5.35 5.3.04-.14-28.01-7.39.05-3.59 13.91c-.55 2.31-3.62 12.31-3.61 13.96zm58.45-5.03c-2.33.44-2.24-1.31-1.94-3.5l1.52-10.85c.22-1.52-.02-4.38 1.16-4.9 2.42-1.09 2.18 1.9 1.94 3.65-.23 1.69-.31 3.7-.57 5.55-.4 2.83-.6 8.62-2.12 10.05zm-6.03 3.42c.67.48 1.19 1.16 1.98 1.52 1.11.51 2.05-.01 3.1.5.58 1.58-.65 1.88.95 3.49 1.24-1.2.05-1.61 3.21-5.21 1.86-2.12 2.25-2.43 2.89-5.63.56-2.78 2.01-13.6 2.01-16.36 0-1.8-.37-4.72-2.34-4.72h-7.54c-1.46 0-2.86 3.06-3.26 4.57l-2.12 16.95c.11 1.38 0 .47.82 1.4.85.95.22 2.15.3 3.5zM39.57 73.1c-.1-1.28.7-6.56 1.11-7.63.86-.15 1.66.15 2.2.82.44.82.35 8.04-3.3 6.8zm1.53-12.69c-.25-1.43.29-5.31.87-6.44.95-.17 1.53.34 2.12.69.09.81-.16 3.64-.36 4.42-.31 1.19-1.64 1.71-2.63 1.33zm-7.18 17.86c10.26.38 12.55.16 14.04-9.03.51-3.16.06-5.01-1.73-6.31.59-1.39 2.07-1.92 2.64-4.82.31-1.59.6-5.53.02-6.9-1.14-2.67-8.5-2.44-11.39-2.13-.5 2.26-.68 4.65-1 7.01-.35 2.61-2.68 21.04-2.57 22.18zM81.51 8.05c.81.61 2.27.36 3.22.38l-.48 4.29c.48 1.62-1.95 12.42-1.93 15.42.92-.03 3.57-1.27 4.6-1.71 1.68-.71 1.28-.81 1.9-5.24l1.64-12.75 3.48-.24c.48-.78.5-1.92.61-2.85.11-1.01.28-1.83.37-2.86l-12.95-.04-.46 5.6zm23.09 22.88c.54-.82.72-3.1.74-4.27l-7.02-.06c-.07-1.09.61-5.86.92-6.63l5.87-.1c.47-.87.9-4.5.91-5.66l-5.91-.09c-.08-1.01.17-2.03.3-3.02.18-1.3.14-2.59.71-2.81 1.59 0 4.94.27 6.21-.19.49-.73.94-4.49 1-5.64l-12.56.01c-.58 6.92-1.62 13.64-2.63 20.39-.26 1.74-.23 3.5-.5 5.23-.46 2.92-.47 3.08 2.05 3.05 1.74-.02 9.05.43 9.93-.21zM38.3 3.3c0 4.61-3.44 21.26-3.57 28.31 2 .01 11.42.32 12.42-.43.54-.93.67-3.17.69-4.48l-6.78-.1c-.24-1.57.29-5.12.69-6.69l6.01-.03.85-5.67-5.97-.09c-.21-1.04.12-1.97.26-2.98.52-3.76-.32-2.86 7.08-2.87l.95-5.79-12.63-.03v.85zM24.59 32.85l.08-.64c.08-.45-.3.14.14-.59 1.06 0 3.53.15 4.44-.05 1.03-.22 1.86-1.79 2.42-2.62 1.3-1.93 1.58-5.15 1.97-8.11.82-6.13 1.84-12.2 2.34-18.41l-5.41.03-2.84 20.47c-.38 2.7-.12 4.8-3.02 4.37-1.52-3.2 2.4-20 2.51-24.8l-5.55-.1c-.65 5.72-3.75 21.92-2.57 26.51.45 1.74.65 2.2 1.92 2.88 1.4.75 1.77 1.07 3.56 1.07zM10.63 7.58c1.96-1.13 2.54 1.11 2.25 3.17l-1.64 11.3c-.3 1.92.06 4.5-1.24 5.24-2.07 1.17-2.61-1.18-2.33-3.23.28-2.02.38-3.93.63-5.86.25-1.91.54-3.79.84-5.68.46-2.91.17-4.18 1.49-4.94zM9.28 36.65l4.44-.68c.18-1.97-.66-2.15-1.04-4.19 2.58-2.27 3.18-3.32 3.94-7.6.62-3.47.93-7.18 1.48-10.79.55-3.61 1.12-7.49-1.2-9.68C13.34.35 7.01 2.14 5.45 5.77c-.58 1.34-1.19 2.47-1.66 4.2-.84 3.09-.83 7.67-1.27 11.03-.73 5.56-1.66 10.77 4.57 11.75 1.41.22.88.09 1.36 1.52.25.75.61 1.48.84 2.37zm97.36-6.15-.28 1.75 1.92-.26.8-1.36c2.17.21 2.11-.1 2.96-2.34l1.15-7.57c.43-3.35.94-6.76 1.34-9.99l.15 18.43c6.06-.56 4.28.74 5.84-5.13.42-1.59.86-3.15 1.36-4.78l2.5-9.68c.69 1.19-1.5 10.43-1.69 13.59-.11 1.73-.45 3.58-.45 5.09l-.25 1.6c1.08.08 1.71.03 2.34.92.71.02 1.45.96 2.48 1.35.44-.81 2.47-18.22 3.03-22.06.32-2.2.93-5.45 1-7.59l-8.24.01c-.7 1.28-1.8 5.79-2.33 7.55l-1.77 8.16c-.24-2.59.92-14.35-.04-15.46-.77-.91-4.68-.26-6.29-.29-.84-.01-1.41-.27-1.86.26-.7.85-1.63 11.66-1.91 13.83-.29 2.19-2.06 12.94-1.76 13.99zm-57.49.26c.41.97-.08.29.87.45.42.07.66.17 1.19.23 3.59.43 3.19-.58 3.29-1.43l2.82-21.06.01 22.25 3.92-.07 4.38-16.86c.23-1.34 1.18-4.54 1.71-5.4-.2 3.32-1.26 7.58-1.71 11.01-.26 1.98-.27 3.72-.57 5.73-.24 1.64-.65 3.91-.71 5.6.87.16 1.71.09 2.6.07.91-.01 2.06.16 2.6-.35.13-.23 3.81-26.46 3.9-28.43l-8.55-.03c-.52 2.52-1.63 5.26-2.13 7.77-.47 2.35-1.1 6-1.78 8.04l.39-15.86-8.66.05c-.66 4.7-1.09 9.48-1.78 14.04-.57 3.74-1.8 10.66-1.8 14.25zm70.11 12.67c-.16-.62-.01-.37-.42-.65-.56.89-.03.63.42.65zm7.26-1.46c.07-.15.22-.49.36-.79-.27-.35 0-.15-.57-.38-.42.47-.51.42-.7 1.3l.9-.13zm-10.64-.89c.13.17.07.49.65 1 .38.33.33.34.88.27-.58-1.41.05-1.36-1.53-1.26zm-2.03 3.5c.8.31.91.29 1.73.27-.39-.51.19-.4-1.44-.78-.67-.16-.87-.29-1.52-.41l1.23.92zm7.75 6.63c.13.47-.21.36.34.33l.4-.4c.39-1.04.31-.61.67-1.13.35-.52-.03.27.32-.6-.99.3-1.59.54-1.73 1.8zm-2.32-4.7c1.24.1 1.23.8 2.2 0-.48-.45-.54-.25-1.17-.51l.74-.88h2.3c-.48 1.54-1.12 1.67-2.35 2.61-.73.56-1.62 1.55-2.73 1.49-.07-1.83.8-1.85 1-2.71zm1.51-1.55c-.82.14-.77-.03-1.08.64-1.68.6-1.85 3.45-2.87 4.57-1-.33-1.25-.8-1.49-1.97-.65.25-.23.13-.65.5-1.33 1.19.89-.47-.41.42-1.24-1.12-3.21 0-4.64.28.5-4.88-.4-3.19-.68-5.26-.12-.93.23-.96-.11-1.6l-1.01.17c-.36.67-1.03.91-1.11 2.3-.08 1.29.28 2.08.65 2.96l2.15 5.13c1.4.68 3.01 1.43 4.8.65 2.38-1.04 2.04-2.53 3.19-2.91.84 2.33-1.67 5.13-2.1 6.24-.55 1.41.17 2.65.15 4.17-.02 1.31-.74 2.67-.27 3.82 1.13-.32.44-.24.89-1.51.04.05.08.07.1.16.02.12.16.26.19.31.4.65-.29-.11.38.6.98-.69.91-1.42.59-2.48-.56-.25-.39-2.58-.2-3.31.22-.86.89-1.62 1.33-2.24 1.71-2.4.4-3.83.85-6.39l1.3-.42c-1.64 2.23-.53 3.26-1.01 6.12 0 .01-4.37 4.05-.55 4.62.08-1.7.9-5.07 1.86-6.2.27-.32.59-.5 1.02-.89.67-.6.3-.26.81-1.07.49-.76 1.11-1.93 1.87-1.9-.04 1.15-2.07 3.25-2.69 4-.92 1.1-2.65 3.29-2.22 5 .18.7.08.39 1.34.36.88-.02 1.14-.12 1.42-1.45.25-1.17.1-.96.52-1.95 2.1.53 2.72-4.33 2.89-5.33.17-1.04.57-1.18 1.01-1.88 1.12-1.76.68-2.51 1.31-4.36.46-1.36.32-1.07.21-2.66-.18-2.75.24-.3.53-2.04l-1.09-.2c-.77 1.1.03 1.66-1.24 2.05-.72 1.02-.99.02-1.86.96l-3.1.26c-.46-.88-.6-1.12-1.62-1.04l-.53.96c.48.04.81-.03 1.26.04.66.11.71.34.97.42.64.19 1.47-.09 2.42.13-.34 1.08-.51.82-1.61.91-.85.07-1.11.23-1.82.3zm-8.04-6.69c.49.74-.86-.32 1.51 1.55.53.42.83.89 1.5.59-.3-.85-2.08-2.01-3-2.14zm-1.37-2.84c.41-.43.37.17.48-1.36.05-.63.09-.92.1-1.55-1.94.07-.87 1.61-.59 2.92zm2.08 4.74c-.79-.38-1-.65-1.75-.28.26.43-.6.06.48.8.29.2.61.23.87.3.75.2.94.19 1.5.57.07-1.08-.23-.98-1.1-1.39zm1.71 15.62c.83-.5.67-.65 1.16-1.47.53-.89.71-.74.86-2.04-1.21.5-2.01 1.53-2.03 3.51zm-6.46 1.14c.79.56 1-.41 3.26-.23.72.06 1.11.21 1.72.38 1.02.28.92.32 1.38-.4-.26-.29.56-.39-1.56-.39-.93 0-1.72.12-2.66.07-.86-.05-2.01-.39-2.14.58zm3.16-14.49 4.12 1.81c.06.02.65.22.69.23.63.04.42-.08.64-.25-1.03-.61-4.54-2.77-5.45-1.78zm14.44-1.72c.41-.9.47-.23.74-1.55l-.79.08c-.93 1.65-2.31 1.06-2.55 2.73 1.64.79.91-.52 2.6-1.26zm-14.13-4.12c.41.75.66.65 1.74.9.64.15 1.63.36 1.36-.83-.2-.88-2.4-1.78-3.1-.07zm9.11 22.85c-.25-.45-.24-.11.02-1.47.2-1.1.88-3.78 2.16-3.34-.19.74-.92 1.55-1.26 2.05-.57.85-.24 1.6-.91 2.75zm-10.44-9.13c1.33-1 3-.46 5.34.25.04 1.23-1.16 2.25-1.9 2.58.2-1.58.31-1.01.69-2.01l-2.06-.26c-.07.84.06 1.49-.29 2.15-1.26-.29-1.96-1.04-1.79-2.72zm11.86.85c-.28.78-1.44 2.25-2.22 2.34l.55-1.79c.35-2 .88-1.54 1.78-2.99l1.55.31c-.2.65-.26.71-.73 1.19-.34.35-.62.66-.92.94zm3.14-1.98c-.37-3.46.41-2.91.72-3.78.25-.71.4-2.76 1.09-3.1.83 1.12.14 2.88-.37 3.93-1.19 2.47-.23 2.62-1.44 2.95zm-3.07-13.25c.22-1.61-.17-1.66-.4-2.91 1.26.69.83.88 1.55 2.07.56.92 1.53.95.92 2.1-1.18-1.07.04-1.21-2.06-1.26zm-15.45 6.76c.77-.85 1.57-.28 2.81-.55 1.04-.22 1.5-.51 1.71-1.56-1.4.16-1.83.69-3.65.4l-.89-.18c-.28-.75-.22-.46-.44-.77-.99.1-2.83.38-3.22-.64 1.19-1.33 3.81.8 5.11-1.15.69-1.04-.21-1.32.99-1.61.74 1.16-.71 2.21-1.52 2.76l.64.76c.04.01 2.16 1.05 2.5-1.29.29-2.01-.88-2.22-1.77-2.82-.25-1.24-.44-2.01.25-2.9 1.66-2.15 2-1.36 2.79-1.33.29.01.5-.11 1.12-.1-.62.98-1.55.99-1.25 2.77 1.06.57 2.6 1.4 3.86 1.65.03.73-.41 2.58 2.19 2.88l-.28 1.34c1.4.67 1.82.81 3 .03l.64.57c1.01.54 3.44-.98 3.66-1.18.73-.64.27-.63 1.18-1.1.23-.32.72-1.06 1.14-1.24l.07 1.86 1.05-1.14c-.67-1.42-1.13.88-.51-1.96h-.9l.73-1.37-1.28-.17c-.24-1.93-1.75-3.57-3.29-3.75l-1.26-.22c.29 1.61.42 1.13.58 1.38.9.5 2.15.88 2.11 2.14-.66-.05-1.66-1.22-2.13-1.73-.52-.37-.37-.12-.8-.83-.43-.72-.19-.33-.4-.94-1.66-1.75-4.97-1.54-7.05-.82-1.12.39-1 .8-1.9 1.12.45-.83.58-.38.26-1.36l-.97-.27c-1.15 2.35-.17 1.02-2.43 2.14-3.16 1.56-1.54 3.74-4.9 4-1.39.11-.81.34-1.66.73-1.12.52-1.15-.18-1.76.35 1.07 1.02 1.97.26 3.2.15 2.51-.21 1.57-.42 3.42-1.07-.29.99-.7 1.32-1.62 1.69-.84.34-1.74.33-2.69.39-.22.58-.1.09-.06 1.03l-1.64.19c.08.23.45 1.21.58 1.41l.75.7c1.42 1.24 1.19.73 2.93.27-1.2 3.17-3.15-.99-4.96.32.57.33 1.08.2 1.62.65.81.69.31 1.19 1.07 1.62 2.03 1.17 2.16-1.36 3.27-1.26z" style="fill:#fcfcfc"/><path class="fil4" d="M116.92 72.86c.64.7 2.79 4.83 3.46 5.21 1.44.83.26-.11 1.79 1.21.55-1.14.32-1.59 1.19-2.46-.4-.18-.47-.2-.79-.37-3.6 2.12-4.22-3.9-.86-3.64 1.61.12 1.86 1.37 1.31 2.68 1.27-.01 2.45.73 3.73 1.01.94.21 3.09.26 3.77.71.35-.44.39-.82.78-1.39.47-.67.57-.6.96-1.45.47-1.04 1.13-2.51 1.43-3.44-.83-.22-.94-.7-1.7-1.33-2.12-1.75-4.93-1.25-6.72-1.41-1.94-.18-6.49-3.87-6.82-4.57-.8 1.03-2.14 2.49-3.8 2.21-.71-2.61 1.11-3.84-.35-7.96-1.71-.52-5.06-1.1-5.66.97l5.42.03c-.29 7.09-2.32 5.3 1.2 11.08.57.94 1.49 2 1.65 2.91z"/><path class="fil5" d="M106.82 84.19c-.08-1.72.4-3.06 1.8-3.07.11 1.68-.53 2.97-1.8 3.07zm7.59-5.62c-.55.66-1.2.25-2.01 1.5-.76 1.15-.41 1.51-2.07 1.87.29-1.29.64-2.04.14-3.38-1.59-.83-2.6-.15-3.27.88-.8 1.22-.91 2.4-2.1 2.7-.48-.76-.58-1.26-.62-2.29.54-.37.98-.47 1.28-1.29-1.16-1.35-3.24-1.11-3.3 1.01-.05 1.85 1.17 2.7 1.37 4.58-.23.43-1.31 2.08-1.56 2.39l-.13.77c.3.11.4.09.54.14.05.02.13.03.19.05l.49.24c.39.02.32.14.28-.29.62-.93.35 0 2.12-2.74 1.01.43 1.56.76 2.66-.04 1.28-.93.2-1.15 2-1.51 2.02-.4 2.4-2.68 3.99-3.02-.03 1.2-.74 1.26-1.47 2.07-.63.69-.99 1.42-1.55 2.04-.84.92-2.18 1.99-2.68 3.28-.86 2.23 3.76-1.01 4.56-1.36 3.37-1.51 3.54.12 4.63-2.34l.38.8c.13.37-.04.09.16.56.77 1.87 1.57.08 1.81-.22.44-.55.73-.59.92-.89 0 .3-1.45 3.1.46 2.3.22-.09 3.67-4.52 4.8-4.84l.21 2.88c2.03.34 1.98-.61 3.92-3.29l1.38-2.63c1.35.38-.06.57 1.62.7.24-.99 1.11-3.29 1.62-4.04 3.58-5.3-.76-5.17-1.58-2.35-.77 2.66-4.41 8.89-5.53 9.54l-.25-3.12c-2.16-.61-1.89.82-3.11 1.31.36-.99 1.12-1.49.57-2.42-.62-.95-1.46-.5-1.86.08-.47.66-.47 1.67-.77 2.41-.18.43-2.38 3.04-2.82 3.26 0-2.5 1.47-2.74 1.38-4.7-2.08-1.71-1.86.32-2.58 1.69-.39.74-.7.62-1.22 1.68-.97 1.98.22 1.57-4.68 2.46 1.34-2.1 5.88-4.99 5.9-6.68-1.03-.87-1.63-.42-4.22.26z"/><path class="fil5" d="M79.32 82.5c.18-.87-.05-.9.87-1.08-.26 1.04-.12.79-.87 1.08zm5.35 2.03c-.27 1.42-.82 1.48-1.22 3.04 4.17-.16 2.78-3.84 4.54-4.85.04 2.29-.97 3.12-.12 5.66 1.98.42 2.84-2.05 3.9-3.08 2.04 1.36 1.5.55 3.12-.82l1.09.47c.93-.73 3.16-4.13 3.12-5.34-1.66-.23-.35-.1-2.01 1.78-1.08-.62.07-1.03-1.32-.86-1.46.18-.82 3.18-2.62 4 .34-2.13.84-2.4 1.89-3.74 2.05-2.6 1.87-.76 2.53-2.47-1.11-2.39-3.59.11-4.75 3.21-.57 1.54-3.05 5.72-4.17 5.94-.33-.88 1.35-6.06 1.77-7.1.84-2.06 1.39-4.93 3.99-4.71.57.98-.18.36.67.94 1.04-.38 2-.7 3.07-1.13 1.93-.78 7.62-.28 10.74-1.47l-.05-1.3c-1.25-.98-3.37-.16-4.88.06-1.31.38-3.87.79-5.33.77-1.75-.02-3.17 1.2-5.32.97.14-.97.26-1.21.04-2.1-2.37-1.2-2.06.98-3.03 2.2-.63.8-.53.2-1.24.9.41.94.21.19.67 1.02-.41 1.88-2.13 5.28-3.31 5.87-.44-.72-.71-1.32-.68-2.31.74-.64.83-.39 1.24-1.27-1.01-1.47-1.96-.72-3.05-.35-.48 2.95-.31 2.5-1.72 4.42-.83 1.13-1.99 2.66-3.37 2.82l-.02-1.61c1.27-.68 1.92-.54 2.63-1.82.57-1.03 1.05-2.21.98-3.78-.65-.63-1.18-1.2-2.4-.64-2.29 1.05-3.7 7.86-1.98 9 1.57.33 2.76-.76 3.49-1.68.56-.7.84-.9 1.34-1.52.5-.62.74-1.22 1.54-1.25.3.86.75 1.76.21 2.11zM46.47 90.26l.56-.08 4.35-10.88c.11-.29.12-.38.27-.7.61-1.3-.28.46.17-.33.19-.34.11-.23.31-.46 1.11 2.63 1.75 5.42 2.61 8.39l2.02 6.08c.7 2.49.4 1.67 1.09 1.91.99-.88 2.25-7.94 2.74-9.41l2.97-9.27c.77-.29-.11.26.9.45 1.01-2.77 1.7-.35 2.92.33 1.83 1.01 2.78-1.2 2.25-2.83-1.67-.22-.78.37-1.58 1.56-1.77-.47-1.11-2.26-3.66-1.19.29-1.79 2.05-5.07 3.18-6.77.58-.88.84-1.24.46-2.44-2.39-.86-3.32 2.33-4.2 4.27-2.83 6.25-5.28 20.05-6.2 22.08-.18-.23-.07 0-.24-.5-.02-.05-.18-.67-.2-.75l-1.07-4.09c-.5-1.96-2.86-10.07-2.67-11.57.11-.84 1.56-3.62 1.63-5.34-1.29-1.28-2.13-.9-2.74.97-.04-.05-.09-.2-.11-.16l-.76-1.67c-3.17-.35-1.7 2.3-.93 4.33.86 2.27-.03 4.04-.73 6.06-.73 2.11-.93 3.86-1.65 5.97-.49 1.44-1.61 4.44-1.69 6.04z"/><path class="fil6" d="M133.01 66.54c2.33 3.39 3.02.62 5.18-.6.85-.48 2.23-1.92 2.75-2.46 1.36-1.4 4.54-5.91 5.57-7.85l3.39-7.57c.32-1.06 1.71-3.37 2.5-5.66.5-1.96 1.09-3.34 1.87-5.08 1.74-3.9 4.69-11.35 4.78-15.66-1.34.76-1.22 1.23-1.74 2.86-.33 1.05-.72 2.32-1.1 3.31-.44 1.13-.75 2.47-1.18 3.5-.32.77-1.21 1.92-1.65 2.68-.72 1.22-.45 2.63-1.08 3.59-.21.31-.72.84-.97 1.19-1.86 2.58-2.01 4.65-3.32 7.61-1.29 2.91-.83 2.57-1.22 3.43l-2.4 4.37c-1.26 3.05-1.72 1.87-2.71 3.77-1.13 2.18-5.99 7.99-8.67 8.58z"/><path d="m155.21 59.74-.02 2.81c-1.57 1.48-5.52 2.17-7.92 1.26-.61-.23-1.6-.68-2.06-1.26-1.14-.01-.44-.19-1.53-.65-1.2.88-1.78 1.38-2.46 2.66.94.17.69.41 1.85.97l5.78 2.6c6.05 1.44 7.16-1.38 9.24 1.02-.16 1.2-.9 1.63-1.66 2.08.4.54.84 1.14 1.23 1.52.95-.27.8-.6 1.78-.75.06-.59-.11-.24.13-.63l-2.48.22c.34-.88.44-.78 1.12-1.3.3-.23.69-.41.97-.91.81-1.43-.61-3.9-1.14-8.56l-.09-1.07c0-.06.03-.15.04-.2l.12-.4c-.29-1.08-.89-2.42-1.54-2.88-.88 1.21-.72 2.17-1.37 3.47z" style="fill:#18acf2"/><path class="fil4" d="M146.98 76.67c-.75-.02-4.15-2.35-4.87-3.16-1.95-2.21-4.01-2.48-4.76-3.58.26-.7.34-.91 1.24-.96.88-.05.99.15 1.56.67l2.33 2.17c1.49 1.12 1.14.98 2.25 2.25 1.07 1.23 2.11.64 2.29 2.19l1.73-4.04-4.19-2.18c.69-.65 1.66.18 2.93.86 2.03 1.07 1.61.2 3.39.37-.4-.29-.85-.26-1.45-.55-.42-.2-.78-.44-1.2-.68-.84-.47-1.52-.9-2.37-1.34-.06.08.54.54-.77.17-.86-.25-3.32-2.93-5.07-3.23-.41.38-3.7 2.69-3.84 3.28.13 2.11 1.22.86 1.18 4.05-.01.94.12 1.88.1 2.82-.02.9-.15 1.48-.13 2.47 1.27.22 1.2-.53 2.36-.72 1.74-.28 1.68.57 2.66.81.26.06 2.54.23 2.89.23 1.68.02.95-.47 1.73-1.9z"/><path d="M137.53 84.13c.05-.7.25-1.14.46-1.69.32-.85.26-1.02 1.27-1.19-.11 1.69-.11 3.16-1.73 2.88zm-3.99-4.94c-1.68-.13-.26-.32-1.62-.7l-1.38 2.63c.04.05.07.13.08.17.01.04.06.12.07.17.39 1.61 0-1.18.07.36 0 0-.13.77-.13.78-.3 1.22-1.29 3.73-.7 4.89 1.37-.27.25-.19 2.22-2.82 1.69-2.27.8-2.6 2.24-2.74l-.16 2.89c1.74-.43.43-.9 1.54-1.16 1.05-.25.41.38 1.17 1.13 1.04 1.01 2.3-.16 2.99-.85 1.05-1.04 1.83-.55 2.99-1.65.74-.7 1.7-1.57 1.46-3.03-1.33.43-.96 1.83-3.13 2.62-.07-1.1.16-2.57-.23-3.51-2.28-.98-2.17 2.12-4.79 2.2l-.17-2.13c-1.34-.07-1.24.29-2.18 1.12l-.34-.36z" style="fill:#1bc4fb"/><path class="fil5" d="M117.53 61.53c.47.54.81 1.18.92 2.09.33.7 4.89 4.39 6.82 4.57 1.79.16 4.6-.33 6.72 1.41.76.63.87 1.11 1.7 1.33.46-.23 1.25-.6 1.83-1-.34-1-.4-.62-1.22-1.18-1.04-.71-2.38-2.3-4.62-2.82-1.05-.24-5.52-2.1-6.62-2.9-1.06-.42-1.79-.41-2.8-1.07-.9-.59-1.39-.98-2.52-1.24-.26.3-.22-.47-.2.8z"/><path class="fil6" d="M140.75 20.74c-.48.41-.11.06-.47.54l-3.27 4.4c-.77.94-.86 1.74-1.64 2.69-.57.7-1.46 2.62-1.59 1.99-.4.6-.2 1.49-.25 2.46-.05.96-.36 1.58-.1 2.21.63-1.53.28-1.98 1.39-3.23.4-.45.75-.79 1.08-1.3.3-.48.52-1.05.83-1.6.63-1.13.75-2.48 1.6-3.26.88-.82 2.3-1.09 3.38-.76.86 2.62-1.33 4.04-1.55 7.79l.33-.45c1.39-2.02 1.13-2.51 1.82-3.51l2.51-3.73c1.28-1.99 4.34-5.79 4.83-7.85-2.71.88-2.81 5.09-5.97 4.97-1.1-.04-.56-.32-1.22-.6-.8-.33-.42.03-1.4.04-.37-.48-.1-.05-.3-.78z"/><path class="fil5" d="M68.28 83.96c-.64-1.41.32-2.94 1.11-3.37.9 1.47-.04 2.72-1.11 3.37zm-5.51 1.43c.95.05.92-.14 1.58-.66 1.11-.87.58-.49 1.73-.31 1.37.21 2.89.55 3.86-.39.64-.62.37-.78 1.26-1.14 1.24-.49 3.37-1.38 3.77-3.86-2.47-.2-.61 2.1-3.46 2.49l.26-3.02c-2.8-2.11-3.96 1.76-4.37 2.29-.97-.53.08-.73-1.55-.85-1.23 1.36-1.01 3.49-2.5 4.31.71-4.45 4.2-5.68 4.57-6.43-1.08-2.65-3.25.18-3.98 1.37-.89 1.44-1.98 4.1-1.16 6.21z"/><path class="fil4" d="m112.83 76.03.46-.82 3 2.21c1.92-.51 1.29-.43 2.98.19-.69-1.91-1.66-2.15-2.42-4.53-.53-.33-1.47-1.74-1.89-2.51l-1.68-2.91-5.79.04-.47 3.29 6.44.05c.13 1.24-.46 3.63-.62 4.99z"/><path class="fil5" d="M145.86 68.68c.86.44 1.54.87 2.37 1.34.42.24.78.48 1.2.68.6.29 1.06.26 1.45.55 1.28.3 1.42.47 1.84 1.7 1.76-1.01.57-1.59 3.69-1.72.76-.45 1.5-.88 1.66-2.08-2.08-2.41-3.19.42-9.24-1.02l-5.78-2.6c-1.16-.57-.91-.8-1.85-.97l-.17.14c.22 1.19 1.41 1.41 2.44 2.12.9.62 1.45 1.24 2.36 1.85zM79.62 30.26c0 1.16.83 1.45 1.52 2.32 1.32.09 3.61-.57 4.96-.78 1.67-.27 3.4-.18 5-.77-.17-.56-1.31-2.02-1.93-2.59-1.24-1.16-.95-1.63-2.92-.76-2.26.99-4.24 1.52-6.61 2.59zm-38.33 2.07-15.04.1c-.14 1.06 1.65 3.74 1.97 5.05-.6-.41-.45-.43-1.28-.71-.53 1.3-8.34 11.82-8.48 13.01 1.02.15 13.91.19 14.87-.58.48-.38.75-1.06 1.24-1.65 3.03-3.66.47-4.45 9.09-4.48 3.17-.01 7.19.11 10.28-.27l2.28-3.59-15.59.24c.11-1.66 1.44-2.35 2.09-3.34 2.91-1.03 19.13.04 20.4-1.21 1.26-.36 1.01-1.69 2.28-1.99.77 1.4 2.05 3.19 2.47 4.48-1.14-.48-.87-.94-2.11-1.1-.73 2.04-6.34 8.98-6.26 10.24.56 1.4.99 2.77 2.56 2.84 1.54.07 3.33-.03 4.9-.04l29.14-.18c.53-.6 1.62-2.32 1.73-3.15-4.11-.08-25.68.48-27.65-.23 1.28-.49 4.41-.27 5.39-1.08 1.86-1.52-.74-2.14 4.48-2.15 3.68-.01 9.42.35 12.86-.13.73-.75 1.76-2.07 1.83-3.27l-15.22-.08c.1-.54 2.38-3.66 2.57-3.77.59-.33 15.36-.45 18.15-.51 1.34-.03 1.8.22 2.5-.63.54-.66 1.04-1.42 1.17-2.24-2.76-.37-9.56-.21-12.44.04-2.76.25-8.83 2.02-10.89 1.75l-1.14-1.68c-.52-.36-14.87 0-16.71.01l-21.41.3z"/><path class="fil5" d="M149.9 83.64c1.21-.03 1.18-1.08 2.1-2.38.73-1.02.84-1.81 1.69-2.9.45-.58 3.36-5.3 2.63-6.15-1.87-2.2-3.56 3.45-4.01 4.56-.54 1.32-.81 1.83-1.27 3.38-.35 1.19-1.18 2.18-1.14 3.5zM145.15 83.67c1.43-.27 1.35-1.25 2.1-2.54.6-1.03 1.21-1.85 1.8-2.76.73-1.13.83-2.31 1.41-3.22.53-.84 1.48-1.66 1.29-3.03-1.79-.49-2.06-.1-2.82 1.28-1.11 2.02-3.66 8.83-3.78 10.28z"/><path class="fil6" d="M152 22.33c-.18 1.06-.84 2.34-1.41 2.95-.75 4.06-2.56 2.74-4.04 7.76-.51 1.73.12 2.11-.08 3.56.62-.65.37-.76 1.12-2.11.39-.7.6-1.36.93-1.98.39-.71.81-1.07 1.14-1.74.39-.8.46-1.18.93-1.99.48-.84 1.62-3.35 1.87-4.21.54-1.84 1.21-2.89 1.59-4.49-.85.74-.68 1.01-1.26 2.13l-.8.11z"/><path class="fil5" d="M159.57 71.38c.79-.56 1.51-1.57 1.71-3.08.21-1.6-.66-3.04-.33-3.94l-.2-.3c-.26-.41-.38-.81-.66-1.25-.36-.57-.4-.53-.73-1.19-.45-.89-.99-1.63-1.24-2.46l-.12.4c-.01.05-.03.14-.04.2l.09 1.07c.53 4.66 1.95 7.13 1.14 8.56-.28.5-.67.68-.97.91-.69.52-.78.41-1.12 1.3l2.48-.22z"/><path class="fil9" d="m146.98 76.67.04-.42c-.18-1.55-1.22-.96-2.29-2.19-1.11-1.27-.76-1.13-2.25-2.25l-2.33-2.17c-.58-.52-.68-.72-1.56-.67-.9.05-.98.26-1.24.96.75 1.11 2.81 1.37 4.76 3.58.72.81 4.12 3.15 4.87 3.16z"/><path d="M150.59 25.29c.57-.61 1.23-1.89 1.41-2.95-.04-4.99.24-1.87.47-4.21-.8.13-1.06.54-1.36 1.34-.55 1.44-.45 1-1.12 2.03-.48.73-1.82 3.57-1.91 4.46 1.82.32 1.27-.22 2.51-.66z" style="fill:#fde7b5"/><path class="fil9" d="M122.57 76.46c.32.17.38.19.79.37 1.06.1 1.46.01 2.29.56.92.61.77.89 2.19.99l2.12-.06c.64-.64.41-.25.57-1.1-.68-.45-2.83-.5-3.77-.71-1.27-.28-2.46-1.02-3.73-1.01l-.45.96z"/><path class="fil2" d="M156.85 5.97c-.65-.43-1.4-1.28-2.61-.75-2.63 1.15-1.53 4.19.8 3.01.64-.33 1.63-1.3 1.81-2.26zM152.12 27.21c2.71-2.28 2.88-2.19 3.09-4.58 1.01 0 1.45.17 2.19-.51-1.2.23-.49.25-.74-.41l-1.2.03c-.25.44.35.51-.38.31-.49-1.19-.03-.52-.83-.75-.64 1.87-1.66 3.74-2.13 5.91zM153.18 14.54c1.65.81 2.86.07 2.95-1.96-.45-.4-1.44-1.27-2.32-.74-.76.45-.87 1.82-.63 2.7zM157.32 10.69c.24.43.4.62.73 1.07.47.66.24.67 1.16.66.36-.54.63-1.5.61-2.23-.01-.28-.15-.88-.28-1.14-.41-.81-.14-.47-.77-.74-.48.38-.54.7-.82 1.18-.39.69-.38.3-.63 1.19zM130.51 20.6l.03 2.87c.79-.74 2.37-2.73 2.67-3.63-.75-.71-2.7-1.38-2.7.76zM147.04 8.42c-.38 1.26-.64.54-1.13 1.76.41.44.97.7 1.54.96.81-.4.69-.54 1.24-1.07.57-.55 1.06-.5.84-1.51l-2.48-.14z"/><path class="fil9" d="M112.83 76.03c-.16 1.98.21 1.05.46 1.98 1.12.23 2.33.04 3-.59l-3-2.21-.46.82z"/><path class="fil4" d="M149.57 78.9c1.72.01 1.39-.5 2.06-2.16.62-1.51.95-1.56 1.2-3.36-.8.49-1.26 1.61-1.74 2.49-.62 1.13-1.02 1.82-1.53 3.03z"/><path class="fil5" d="M120.57 73.71c-.63 1.52-.22 3.43 1.29 2.24.34-.27.86-1.13.74-1.66-.2-.86-1.22-.67-2.03-.58z"/><path d="M140.03 65.63c1.75.29 4.21 2.98 5.07 3.23 1.3.37.7-.1.77-.17-.91-.62-1.46-1.23-2.36-1.85-1.03-.71-2.22-.93-2.44-2.12l-1.03.92z" style="fill:#3a3d3d"/><path d="M135.11 77.26c.5.31.92.55 1.57.41.15-1.01.13-2.34-.2-3.03-.59.32-1.24 1.92-1.37 2.61z" style="fill:#5dcff9"/><path d="m129.95 78.31-2.12.06.99 1.3c.66-.46.73-.64 1.13-1.36z" style="fill:#1171c1"/><path d="M156.66 21.72c.25.67-.46.65.74.41.4-1.13.84-.27.66-2.26-.73.93-.49 1.4-1.4 1.85z" style="fill:#474643"/><path d="M79.32 82.5c.75-.29.61-.04.87-1.08-.92.18-.69.21-.87 1.08z" style="fill:#2a454e"/><path d="m47.02 90.57.01-.39-.56.08-.02.3c.11.06-.3.55.56.01z" style="fill:#34687b"/></g></g></svg>