<svg xmlns="http://www.w3.org/2000/svg" xml:space="preserve" width="96" height="72" style="shape-rendering:geometricPrecision;text-rendering:geometricPrecision;image-rendering:optimizeQuality;fill-rule:evenodd;clip-rule:evenodd" viewBox="0 0 49.71 37.28"><path d="M47.15.01c1.43 0 2.64-.23 2.56 1.6-.07 1.66-.66.87-.38 1.73 0 2 .14.52-.17 2.5-.13.81.55 2.5-.58 3.22-.64.4-3.03.09-3.67.11-.3.01-.65.16-1.04.17-1.35.07-2.92.32-3.01-.76h-.28c-.2.76-1.93 1.36-3.07.91-.79-.32-.26.14-2.39.14.72 1.09.44.63 1.66.89.65.14.69.58.69 1.33l-1.98 3.4h.19l-.19.29c1.07 0 4.66-.5 5.53-.36.65.11.8.53 1.24.65.27-1.19 2.14-.77 3.49-.76 1.54.01 2.51-.66 3.76.19 0 1.52-.19 2.83-.19 4.29-.22.32-.21.42-.09.67.02.07.22 1.96 0 2.19-1.09 1.13-3.38.59-4.07.73-1.69.34-1.99-.34-2.49.82l-1.58 3.16c-.78 2.28.14 1.32-.73 2.5-.43.58-1.09.68-1.76.48-.89-.26-.36.55-1.89.41-.58-.05-.21-.08-.66-.2-.26.4-.55.58-1.22.57-1.13-.01-.66.09-1.3.59-.54.42-1.47.48-1.96-.15-.17-.22-.2-.39-.32-.63-.36.1-.41.31-.68.55-1.01.88-1.72.35-1.88.34-.35-.04-2.45 1.93-3.25-.23-.12-.33-.09-.79-.21-1.12-1.55 1.6-3.48 3.67-5.19 5.03-.73.58-.25.76-.9 1.38-.74.71-.9.05-1.66.41-1.82.85-2.28-.56-2.23-1.01.05-.22.08-.19.06-.44-.44.32-1.01.76-1.66.06l.37-1.44c.17-.27.04-.9-.56-.95-.02.29 0 .18-.09.38-.01.03.12 2.91-.74 2.85l-5.04-.62c-.37-.05-.7-.02-1.07-.06-3.42-.44-2.36.18-3.88.22-1.6.04-1.77-.22-2.23-1.18L0 34.04c0-4 4.13-7.01 7.07-9.05.23-2.58.38-2.28-.31-2.64-1.03-.55-1-.54-1.53-1.6-1.04-2.08-1.31-4.33-2.56-5.89L.95 12.32c.02-.26.01-.21.09-.38l.27.2c-.02-.39-.04-.42-.27-.59.02-.24.11-.69.19-.86.7.17.83.09 1.25.64.5.63.54 1.11 1.1.79l-.28-.38.28-.29c.69.19.85 1.14.93 1.92.14 1.41.37 2.06.39 2.37.37-.03.3-.02.42-.34l.65-1.63.72-2.23c.26-.57-.78-1.23-1.04-1.25-.5-.03-.91.45-1.5.39-.51-.05-.8-.94-1.36-1.11-.36-.1-.31.1-.48-.18-.11-.18.01-.84-.09-1.14-.21-.44-1.06-1.23-.67-2.58.1-.33.59-.85.84-1.06 3.92-3.35 6.44 2.36 6.14 3.26l-.33.9c.27.07.63.43 1.09.71.9.55 2.57 1.16 2.68 2.43-.1.55-.39.76.35 1.65.91 1.1.59 1.3.59 3.11l8.47-.48c0-1.15.79-2.82 1.19-4.03l.42-1.78c-.02-.7-.86-.26-2.18-.28-.62-.01-.64-.17-.94-.18-.3 0-1.28.73-2.55.18-.34-.14-.41-.31-.74-.39-.01 0-2.28 1.53-3.75.08-1.05-1.05-.92-2.31-.77-4.17.15-1.9.45-3.85 2.33-4.5 1.69-.58 2.29.19 2.74.3C18.64.4 18.87.86 19.86.94l5.83-.28c.41-.02.35-.08.76-.1.98-.06.52.37 1.38.18C29.32.4 31.52.67 32.78.5c1.04-.14 2.4.09 3.43-.05 1.98-.28.25.38 2.12-.15 1.95-.55 2.06.3 2.99.93.39-1.71 2.17-1.07 3.49-.96.42.04 1.37-.19 2.33-.28zM15.44 26.68c-.47 0-.42-.09-.85-.1l-.2 1.33c1.11.72 1.65.45 1.81 1.05-.29.14-.25 0-.75 0 .06.76 1.11 1.34 1.61 1.71.52.38.33.78-.35.35-.36-.23-.86-.62-1.08-.25-.18.3.44.4.48 1.23.01.31-.03.62.02.93.11.7.34.69-.01 1.46-.16.35-.17.17-.2.56.3-.08.7-.37.96-.55.44-.29.51-.38.62-.99l1.15-5.89c.07-.46.38-1.57.38-2-.54 0-1.34.37-1.82.54-.34.13-1.49.6-1.76.6z" style="fill:#000"/><path d="M31.45 5.94 25.3 16.26c-.24.43-.85 1.76-1.2 1.85 0-1 .23-3.46.33-4.67.01-2.63.48-3.1 1.37-5.68.14-.39 1.13-2.55.27-2.56-.36 0-.93 2.35-1.11 2.9-.07.57-.1.24-.21.67-.4-.3-.06-.42-.21-1.73l-.45.42c-.13.36-.07 2.29-.03 2.8.07 1.13-.84 3.43-1.25 4.71-.14.49-.72 2.53-.82 2.81-.22.39-.34.21-.34.68l-.67 2.41h.3c.07-.86.51-1.22.65-1.91l1.94-5.57c.17.85.1 2.1.09 2.71 0 .99-.19 1.88-.33 2.86.5-.21.07.6 1.39-1.54.92-1.51 4.74-7.92 5.29-8.18-.35 1.64-1.83 6.07-1.98 7.62.54-.58 1.38-3.97 1.75-4.98L32.47 6c.44-1.04-.07-1.96-.72-.57-.27.13-.24.17-.31.5zm.49 3.6c.28-.15.23.16.59.71.86-.06 1.2-.61 1.32-1.33-.83.16-.22.68-1.08.76-.1-.16-.23-.41-.33-.57-.64.01-.98.26-1.18 1.1.56-.06-.06.24.68-.67zm-1.13 5.52c-1.03.37.61-3.04 1.74-3.43.51-.11.39-.23.21-.57-1.75 0-2.8 3.24-2.5 4.43.71.06.71-.64 1.27-.91.92.63.53-.45 1.37-.61 0 1-.31 1.55.71 1.43.66-.32 2.66-3.27 2.68-4-.59.23-1.84 3.79-3.06 3.67 0-2.16.19-.33 1.29-1.93.18-.27.36-.83.42-1.19.11-.62.03-1-.44-1.12-.08-.12.02-.16-.31.07l-1.55 2.61c-.23.49.03.28-.41.46 0-.41.02-.76.19-1.05l-.32-.39c-.6.41-.21.33-.62 1.25l-.69 1.28zm2.66-1.57c.35-2.08 1.48-1.91.72-.42-.15.29-.3.39-.72.42z" style="fill:#f39"/><path d="M43.4 6.96c0-.88.15-1.52.19-2.29l.19-2.38h.28L43.86 6c-.08.99-.1.93-.46.96zm-19.1-.57c.14.22 0 .18.42.24.3.05.29-.02.32-.34-.33 0-.49-.06-.74.1zm.46 10.48h-.38c-.14.1.22.1-.28.1v1.14c.33-.09.82-.88.66-1.24zm7.16-8.25c.29-.03.77.05.9-.17 0 0 .45-1.39-.23-1.3-.41.06-.67 1.23-.67 1.46zM21.28 20.87c.26-.09.24-.3.41-.32.3.26.02-.06.21.65.29 1.09.13.25.13 1.29 1.1.04.78-.22.86-1.14.03-.33.1-.52.02-.79-.12-.44-.2-.32-.41-.64.75-.2.8-2.04.18-2.76-.4.11-.19.03-.3.35l-.45 1.45c-.14.69-.58 1.05-.65 1.91zm9.51-14.86c.29-.1.44-.49.7-1.01.41-.8.28-.47.9-.9l.13-2.27c.07-.57.16-.49-1.07-.49-.52 0-.35.88-.49 2.17-.07.65-.17 1.76-.17 2.49zm-9.81 14.86c.11-.2.13-.36.21-.57.07-.2.12-.33.19-.57.12-.44.28-.7.28-1.26v-.24l.34-.44c.05-.14.12-.48.13-.63l-.24-.1h-1.27c-.3.65-.27 1.96-.28 2.86-.01.74-.39 2.38-.07 2.92.05-.12.22-.87.24-1.03.09-.65.09-.52.47-.94zm-5.26-3.43c0 1.48-.28 4.13-.28 5.43v.67c1.66 0 1.14.08 1.22-1.43.02-.41.07-.35.1-.76.02-.31-.02-.65 0-.95l.12-1.69c.08-.63.46-2.05-1.16-1.26zm-2.54 6.19h1.88c.36-1.55-.1-1.33-.57-1.33l.19-3.81c.02-1.15.46-1.05-1.13-1.05 0 .4-.06 1.04-.11 1.51l-.17 3.07c0 .61-.1.92-.1 1.62zm22.97-7.33c0 1.18-.2 1.04.05 1.19.35.2.46-.17.58.25 0 .01-.35 4.51-.25 4.63.17.15-.25.15.27.11.29-.02.07.04.22-.13.13-.16.13-.35.29-.58.34-.48.53-.28.54-1.17.01-.57-.03-1.03.05-1.57l.13-1.58h.66c0-1.75.7-1.14-2.54-1.14zm-11.67 4.57c0-.43.06-1.41.28-1.75v1.75h-.28zm-.85-1.9c-.02.41-.14.91-.19 1.33-.06.49-.14.85-.22 1.41-.1.67.01.67.69.49 2-.51 2.25.83 2-1.54l-.3-3.8c-.46.04-.35.16-.58.55l-.81 1.28c-.39.47-.21.11-.58.26zm22.5 2.76v.29l2.07-.12c0-1.35.43-1.22-.75-1.22 0-1.51-.15-1.33.75-1.33 0-1.22.46-1.24-.66-1.24l.11-1.14c.8 0 .83.06.83-1.24-2.4 0-2-.21-2.07 1.24l-.28 4.76zm-15.72 1.05c2.27 0 2.17.24 2.17-1.05 0-.37-.24-.29-.85-.29 0-1.96.15-1.05.7-1.38.27-.16.14-.33.14-1.09-.4-.09-.16-.01-.66 0v-1.14c1.02 0 .85-.19.85-1.33-3.08 0-1.85.3-2.1 2.16l-.26 4.12zM24.48 3.83c0 .74.27 1.49.85 1.6.29-.44.12-.65.85-.65.57 0 .66.7.66 1.14 0 .51-1.02 2.66-.89 2.91.17.34 1.55-.22 1.55-2.15 0-2.49-1.69-2.18-1.69-3.24 0-.28.13-.49.19-.76h.28v1.05c.97 0 1.41.3 1.41-.86 0-.5-.23-1.05-.56-1.24-.98-.55-2.64-.29-2.64 2.19zm14.69 18.29c.08-.52.28-.7.55-.96.33-.31.3-.34.3-1.32-.01-.62.05-.96.09-1.44.04-.57-.06-1.07.29-1.33.2.42-.09 3.23-.09 4 .79.21.53.78.47 1.05.51-.14.69-.78.74-1.34.07-.71.27-3.34.11-3.9-.34-1.2-1.82-1.23-2.46-.09-.4.71-.29 2.93-.42 3.77-.09.64.01 1.29.42 1.56zM28.15 8.79c1.04 0 1.15.1 1.51-.56.13-.23.41-.61.46-.96-.96 0-.89.05-.79-.79.12-.93-.16-.83.88-.83.05-.65.09-.3.09-1.33-1.13 0-.75.19-.75-1.33l.94-.1.09-1.43c-3.04 0-2.17-.6-2.62 3.63l-.21 3.14c-.02.45-.16.56.39.56zm17.51-.57c2.46 0 2.39.05 2.47-.74.02-.25.07-.44.07-.78h-1.04c0-.67.09-.91.09-1.52 1.08-.23.94.29.94-1.43h-.75c-.06-.29 0-.72 0-1.24 1.05-.51 1.04.48 1.04-1.62-3.11 0-2.14-.2-2.39 1.58-.1.73-.09 1.16-.15 1.94-.1 1.24-.28 2.44-.28 3.81zM17.51 23.46c2.23 0 1.76.3 2.13-2.04.05-.32.02-.53.1-.85l.51-3.39h-1.22c0 .38-.26 1.45-.28 2.29-.35-.55-.28-1.65-.28-2.19-.29-.06-.32-.03-.76-.01-.51.02-.54-.07-.53.42l.22 3.81c.05.35.01.67.03 1.02.02.43.09.45.09.95zm17.23-4.67c-.01-.02-.03-.08-.03-.06-.05.17-.24-.83-.26-.98-.07-.51-.18-.65-.18-1.24-1.78-.42-.94.74-1.25 3.02-.06.47-.03 1.16-.11 1.7-.23 1.52-.03 1.47.6 1.47.48 0 .38-.57.38-1.05-.01-.61.09-.84.09-1.33l.47 2.29h1.04l.36-6.08c-.15-.44-.85-.14-.87-.12-.26.2-.25 1.97-.25 2.39zm9.51 2.29c-.08-.17.03-3.35.14-3.77.15-.55-.07-.2.24-.33.22.45 0 1.52 0 2.19 0 .58.1 1.55-.38 1.9zm-1.32.86v.29l1.95-.12c.58-.14.81-.66.86-1.23.12-1.3.2-2.63.2-3.99 0-1.22-1.22-.95-2.45-.95-.49 0-.3 1.98-.39 2.84-.11.98-.17 2.03-.17 3.16zM14.5 9.37c1.01 0 1.62-.61 1.82-1.5.2-.88.16-.73.16-1.65-2 0-1.16-.05-1.49 1.44-.08.35.09.26-.3.37-.38-.28-.11-.58-.09-1.14l.24-3.47c.09-.33.05-.32.41-.35v2c1.76 0 1.41.41 1.41-2.1 0-.61-.68-1.14-.94-1.14-2.06 0-2.3.63-2.45 3.62-.04.91-.48 2.78.22 3.5.22.23.59.41 1.01.41zm3.86-1.33c-.12-.54.12-3.21.2-4.08.11-1.17.12-.94.46-.97 0 1.05-.19 1.75-.19 2.66 0 .65 0 2.07-.47 2.38zm-.19 1.24c.87 0 1.42-.46 1.72-1.11.27-.58.57-4.55.5-5.04-.07-.52-.1-.73-.39-1.04-.9-.93-2.27-.22-2.62.68-.27.72-.51 4.1-.48 4.96.03.8.54 1.55 1.27 1.55zm10.57 7.46c.03.15.06.12-.09.09l-.41 1.98c0-.73-.09-1.06-.09-1.81v-.21l-1.51.02-.38 5.33c.38.09.64.25 1.04.29 0-.77.19-1.54.19-2.29h.09c0 .4.1 2.59.19 2.86h.66c.18-.76.32-2.51.56-2.86 0 1.06-.09 1.77-.09 2.76.83 0 1.12.26 1.13-1.14l.21-4.57c.09-.77.04-.66-1.5-.45zM22.88 4.33c-.44-.3-.17-.23-.4-1.22-.11-.46-.06-.93-.26-1.35h-1.13L20.52 9c1.53 0 1.16.3 1.32-2.19l.09-.48c.08-.23.03-.09.09-.19 0 .4.25 2.51.5 2.83l1.1-.06c0-1.51.03-1.14.23-2.53l.33-4.71c-1.44 0-1.1-.09-1.26 1.1-.07.52-.05 1.01-.05 1.57zm15.63 3.05c-.15-.66.03-1.87.1-2.66.04-.51.07-.83.09-1.43.04-1.16.27-.93.47-.95 0 .94-.26 2.89-.28 3.91-.01.58-.08.69-.19 1.14h-.19zm-.19 1.24c1.66 0 1.8-1.27 1.98-2.29.09-.55.09-1.31.16-1.84.11-.82.33-2.34-.26-3.02-.71-.83-2.15-.56-2.65.65-.22.54-.58 4.48-.54 4.96.07.72.56 1.54 1.31 1.54zm-3.3-4.67c-.19-.39.09-1.77.09-2.48 0-.31-.62-.1-1.41-.1 0 .5-.07.52-.09.95-.02.4.02.7-.04 1.1l-.4 4.99c.11.44.25 0 .72 0 .37 0 .01.14.57.19.37-.78.08-2.39.47-3.14.33.22.23.11.21.48-.02.33-.01.63-.02.95-.03.52-.19 1.09-.19 1.62.61.14.68 0 1.41 0l.28-2.86c.02-.4.35-4.15.24-4.34-.18-.29-1.26.03-1.28.05-.1.1-.17 1.14-.18 1.34-.04.84.08 1.11-.38 1.24zm7.44-2.86c-.22.97-.26 3.87-.43 5.09l-.14 2.15c3.95 0 3.06-.44 3.43-3.01l.24-2.81C45.69.77 44.19 1 42.92 1c-.15 0-.36.05-.47.1z" style="fill:#fff"/><path d="M23.73 23.25c1.9 0 3.68-.18 2.46 2.68-.24.56-.43 1.03-.8 1.48-2.08 2.56-2.98 3.84-5.38 5.99-.06.05-1.17 1.27-1.21.79l2.35-10.11c.12-.4.16-.47.57-.56.49-.11 1.4-.27 1.99-.27zm16.19 3.71c.39-.26 2.2-4.52 2.48-5.12.41-.85-.28-.99-.59-.21l-1.89 5.33zm-10.43 2.46c-.28 1.33.84.32 1.03-.43.03-.24.08-.42.17-.62.42-.97.17-1.44.96-1.51-.02.87-.68 1.83-.38 2.19.72-.08 1.63-2.65 1.73-2.82.11-.19.72-.79.72-.13 0 .32-.52.55-.43 1.11l.34 1.18c.78-.07 1.16-1.73 1.69-2.1-.05.59-.93 1.8-1.29 2.32-.38.56-.51 1.95-1.54 1.97 0-.87.62-1.38 1.04-1.86-.36-.06-.56-.89-.75-1.28-.32.3-.62 1.19-1.11 1.72-.27.28-.6.57-.8.08-.51.67-.74 1.05-1.17 1.19-.76.24-.56-.97-.5-1.46-.63.05-1.08 1.62-1.91 2.07-1.03.56-.82-.74-.82-1.5 0 0 .77-2.95 1.51-2.95.87 0 .53 1.5.05 2.33-.19.32-.67.83-1.06.59-.09.25-.14.67-.12 1.24.04.19.33.07.59-.14.25-.2.69-.86.88-1.15l1.34-2.12c.15-.35.23-.52.67-.56l-.83 2.65zm5.07.02c.05.06.49.86.75-.29l-.21-.17c-.44.09-.36.09-.55.46zm2.17-.19c.81.2.79-.02.66-.57h-.47c-.12.22-.16.25-.19.57zm2.17-.57c0 .34.19.29.57.29.1-.2.13-.23.19-.48-.27-.18-.11-.19-.57-.19-.11.17-.19.17-.19.38zm-11.62-.42c.13-.35.36-.65.7-.73 0 .78-.01 1.63-.75 1.81-.17-.35-.1-.68.05-1.08zm8.42-.63 1.95-4.12c.21-.48 1.04-1.67.32-1.66-.42 0-.5.75-.62 1.08-.14.4-1.83 4.27-1.65 4.71zm1.98-.29 2.57-5.12c.21-.42.18-.47-.03-.79-.46.12-.56.57-.82 1.27l-1.72 4.64zm-22.31-2.1v.19c.86 0 3.83-1.52 5.18-1.52l-1.64 8.44c-.66 3.28-.11 1.99-2.26 3.62-.24.18.01-.01-.15.13 1 0 1.07-.74 1.88-.76l.09.38c.03-1.13 1.41-1.71 2.93-3.23 1.71-1.71 7.82-7.59 5.77-9.57-1.13-1.08-4.72.13-5.68.13 0-1.08.39-.35.09-1.62-.7-.16-.43-.27-.83 1.54-.11.49-.29.5-1.12.77l-4.26 1.5z" style="fill:#0ff"/></svg>