<svg xmlns="http://www.w3.org/2000/svg" xml:space="preserve" width="112.69" height="49.208" style="shape-rendering:geometricPrecision;text-rendering:geometricPrecision;image-rendering:optimizeQuality;fill-rule:evenodd;clip-rule:evenodd" viewBox="0 0 480.05 209.62"><path d="M304.07 74.03c-.72-4.03 6.66-29.44 8.87-36.09 7.46 8.68 13.72 34.93-8.87 36.09zM10.2 89.31c1.38-10.94 17.55-32.62 24.92-39.8 27.23-26.53 74.16-35.77 99.37-12.89 35.08 31.83-25.94 100.13-28.07 113.56 1.91 1.13-1.23.6 4.63 1.73 2.06.4 3.12.28 4.92.08 3.72-.42 5.27-.98 10.98-1.58 27.45-2.85 71.35-1.06 88.81 19.92-10.28 3.33-52.88-11.6-111.44 8.12-25.77 8.67-23.27 19.31-37.16 7.72-6.64-5.54-9.28-6.01-15.12-13.02l19.14-31.57c8.03-12.33 35.62-55.14 37.45-63.81 7.3-34.64-22.78-34.15-43.18-17.79-20.14 16.16-21.6 28.77-28.33 45.43-8.63-.79-22.62-10.95-26.91-16.1zM384.84 6.34c8.45-.51 10.95 1.43 17.24 3.39 44.97 14.02 54.44 1.46 40.4 46.19-2.73 8.7-6.73 15.52-5.55 26.89 10.22 1.28 14.58-3.09 26.36-4.31 2.19 16.5-22.32 19.42-24.8 26.98-4.02 12.22 24.37 75.23 24.55 76.97 1.31 12.6-33.69-5.24-44.36-17.41-5.86-6.69-10.38-13.76-14.41-22.69-18.96-42.11 11.43-28.7-68.99-20.64-3.5.35-7.55.61-10.97 1.11-10.11 1.49-14.91 7.35-20.79-2.38-11.33-18.75-5.15-16.67 4.35-26.59 34.41-35.93 17.33-54.04 15.66-70.11 7.55-.78 39.24 6.01 44.8 9.93 10.11 7.13 10.3 19.44 3.72 29.4L351.57 87.8c-15.34 14.4-5.12 10.71 20.44 8.05 9.13-.95 17.01-3.43 20.67-11.81 12.07-27.64-6.32-62.61-7.88-77.69zm-151.41-.03c5.81-.12 10.44 1.53 16.08 2.97l30.8 7.89c19.47 5.32 21 8.19 10.68 37.25-1.61 4.55-6.53 18.01-6.36 23.05.21 6.18 1.05 4.01 3.31 5.85 10.41-2.61 13.81-4.16 23.95-4.85.64 7.91-1.94 10.68-11.13 16.61-14.81 9.56-21.61 8.67-2.83 54.94l10.81 27.13c2.49 5.9 2.41 2.25 3.38 9.94-30.41.62-57.7-29.04-64.9-60.73-2.79-12.27-2.02-12.62-12.01-11.59-11.98 1.24-23.55 2.25-33.07 4.58l-39.94 6.15c-6.82.71-7.79-1.36-10.74-6.11-12.98-20.82-1.39-14.43 14.63-36.44 17.65-24.24 8.15-39.04 6.05-59.26 7.92-.65 23.67 3.63 31.39 5.39 8.39 1.91 14.35 4.55 18.28 10.83 14.68 23.45-29.53 46.95-28.57 57.97 10.55 1.19 23.5-3.08 35.16-4.34 9.14-.99 9.28-1.26 11.83-7.5 13.06-31.98-5.73-59.75-6.8-79.73zm-7.1 22.78c-11.95-1.5-68.99-26.46-66.18.57.83 8.02 11.02 19.57 6.3 37.91-.1.38-1.98 5.37-2.07 5.52-1.95 3.17-.57 2.3-4.06 3.79l-.06-15.74C153.73 11.75 73.75 2.02 30.61 45.93 19.96 56.77-1.5 82.94.09 98.23c.73 7.01 30.52 26.75 40.52 25.71 9-.93 10.68-7.48 12.74-13.93 2.17-6.79 3.55-12.52 7.29-18.35C80.8 60.24 117.1 55.5 92.69 94.85c-8.26 13.32-51.59 79.45-51.1 84.1.88 8.43 9.54 14.28 15 18.48 41.16 31.7 20.06-8.25 102.59-10.33 7.95-.2 14.55-1.93 22.71-1.52 7.53.38 13.52 1.3 20.96 2.29 14.57 1.95 32.74 6.33 30.72-13.1-.73-6.99-21.58-18.42-27.31-20.98-23.22-10.38-27.17-7.32-35.29-9.79 7.89-3.64 52.54-10.7 64.48-11.94 1.78 2.89 3.75 9.95 5.51 14.3 9.69 23.92 22.02 39.88 45.7 50.98 9.75 4.57 27.98 12.13 37.45 5.16 9.35-6.88 1.32-18.45-3.92-30.62-15.29-35.55-9.52-27.39 7.5-30.69 9.28-1.8 57.88-10.1 60.88-7.71 2.28 3.71 2.89 9.42 5.22 14.66 10.68 24.04 21.28 38.76 46.31 50.21 7.81 3.57 42.03 16.01 39.84-5.07-1.1-10.64-9.11-23.83-14.68-38.19-4.2-10.81-7.79-28.6-12.13-37.76 16.29-13.52 28.27-16.34 26.09-37.35-1.18-11.41-20.59-6.38-22.3-7.13-6.21-4.22 8.77-16.86 6.2-41.58-2.05-19.76-35.78-20.77-55.29-26.83-28.41-8.83-40.35-4.79-28.65 23.47-7.44 1-4.63.28-11.72-2.06-.36-.12-.78-.26-1.13-.38l-22.61-5.43c-5.25-1.24-13.23-3.59-19.29-2.94-9.1.98-10.19 3.99-12.58 10.46-15.87-14.91-6.02-10.21-34.06-17.78-19.57-5.28-54.2-19.8-55.97 1.4-.43 5.08 3.67 9.85 4.5 17.91z" style="fill:#000"/><path d="M10.2 89.31c4.29 5.15 18.28 15.31 26.91 16.1 6.73-16.66 8.19-29.27 28.33-45.43 20.4-16.36 50.48-16.86 43.18 17.79-1.83 8.67-29.42 51.47-37.45 63.81l-19.14 31.57c5.84 7.02 8.48 7.49 15.12 13.02 13.89 11.59 11.4.95 37.16-7.72 58.56-19.72 101.17-4.8 111.44-8.12-17.47-20.98-61.36-22.77-88.81-19.92-5.71.59-7.26 1.16-10.98 1.58-1.8.2-2.85.32-4.92-.08-5.86-1.13-2.72-.6-4.63-1.73 2.14-13.43 63.15-81.74 28.07-113.56-25.21-22.88-72.15-13.64-99.37 12.89-7.37 7.18-23.53 28.86-24.92 39.8zm432.29-33.39c14.03-44.72 4.57-32.16-40.4-46.19-6.29-1.96-8.79-3.9-17.24-3.39 1.56 15.08 19.95 50.05 7.88 77.69-3.66 8.39-11.54 10.87-20.67 11.81-25.57 2.65-35.78 6.34-20.44-8.05l20.48-24.73c6.58-9.96 6.39-22.27-3.72-29.4-5.56-3.92-37.25-10.71-44.8-9.93 1.67 16.08 18.75 34.18-15.66 70.11-9.5 9.92-15.68 7.85-4.35 26.59 5.88 9.73 10.68 3.87 20.79 2.38 3.42-.5 7.47-.76 10.97-1.11 80.42-8.06 50.03-21.47 68.99 20.64 4.03 8.94 8.55 16.01 14.41 22.69 10.67 12.18 45.67 30.01 44.36 17.41-.18-1.74-28.57-64.76-24.55-76.97 2.48-7.55 26.99-10.48 24.8-26.98-11.78 1.22-16.14 5.6-26.36 4.31-1.18-11.38 2.82-18.19 5.55-26.89zM291 54.42c10.32-29.06 8.79-31.93-10.68-37.25l-30.8-7.89c-5.64-1.44-10.28-3.09-16.08-2.97 1.08 19.98 19.86 47.75 6.8 79.73-2.55 6.23-2.69 6.51-11.83 7.5-11.66 1.26-24.61 5.53-35.16 4.34-.95-11.01 43.25-34.51 28.57-57.97-3.93-6.28-9.9-8.92-18.28-10.83-7.72-1.76-23.46-6.03-31.39-5.39 2.1 20.22 11.6 35.02-6.05 59.26-16.02 22.01-27.61 15.62-14.63 36.44 2.96 4.74 3.92 6.81 10.74 6.11l39.94-6.15c9.52-2.32 21.1-3.34 33.07-4.58 9.99-1.04 9.22-.68 12.01 11.59 7.2 31.69 34.48 61.36 64.9 60.73-.97-7.68-.89-4.04-3.38-9.94l-10.81-27.13c-18.78-46.28-11.97-45.38 2.83-54.94 9.19-5.93 11.77-8.7 11.13-16.61-10.14.69-13.54 2.24-23.95 4.85-2.26-1.84-3.1.33-3.31-5.85-.17-5.03 4.75-18.5 6.36-23.05z" style="fill:#0ff"/></svg>