<svg xmlns="http://www.w3.org/2000/svg" xml:space="preserve" width="249.853" height="103.218" style="shape-rendering:geometricPrecision;text-rendering:geometricPrecision;image-rendering:optimizeQuality;fill-rule:evenodd;clip-rule:evenodd" viewBox="0 0 165.33 68.3"><defs><style>.fil4{fill:#eeae66}.fil6{fill:#f1af67}.fil3{fill:#f2c354}.fil5{fill:#fcfcfc}.fil2{fill:#fdc121}.fil1{fill:#fdd985}</style></defs><g id="Camada_x0020_1"><g id="_2087079548864"><path d="M154.72 2.96c-2.36-.17-3.6-.41-5.47 1.43l-4.44 4.16c-.61.48-.35.16-.94.49-1.14.64-2.14 2.24-3.44 2.24-.92 0-.65-.28-1.75-.36-1.28-.1-1.09.12-1.95-.37-2.27-1.29-4.96-1.81-6.83.25-.5.56.03.41-.95.48-.02.73.06.43-.22.93l-2.65-1.44c-.43-.32-1.59-.82-1.71-1.12-.01-.03 0-.13-.01-.16-.03-.9.38.44.03-.24-1.82 1.04-2.39 1.68-3.51 3.3-.22.31-.71 1.33-1.04 1.33-1.96 0-1.91-1.83-4.77-1.68-1.18.06-1.28-.11-2.16-.17-.71.41-1.03 1.09-1.95 1.3-.14-1.4-2.4-2.22-3.72-1.33l-.86.74c-.7.57-.88 1.05-1.69 1.51-.96-3.52-8.87-3.15-12.34-3.15.66-2.12 9.68-4.14 11.85-4.5.65-.11 1.86-.14 2.5-.27 1.13-.22 1.28-.41 2.11-.79-1.33-4.89-10.48-1.16-13.35.06-1.89.81-1.25.39-2.75-.18-1.28-.49-5.41-.4-7.19-.18-3.36.43-7.01.02-9.78.34-1.69.2-2.4-.11-3.36.06-1.13.2-2.43-.06-3.54.16-1.25.24-.38.35-1.56.09-1.66-.37-2.19-.05-3.72.02-2.69.12-7.17-.36-9.39.69-1.87.88-1.4-.5-5.12-.5-2.83 0-4.59 1.34-5.9 3.1-.42.57-.74 1.32-1 1.92-1.03 2.37-1.98 6.22-1.98 9.41h-3.46c0-6.31 4.21-14.07-1.3-14.07-1.71 0-4.11-.31-5.65.36-1.21.52-1.72 2.77-2.21 3.85-.47 1.02-.81 1.83-1.27 2.8l-1.27 2.8c-.9-.21-.6-.29-1.15-.87-.92-.97-1.99-2.15-3.18-2.83-.14.11-.1.08-.35.26-.21.15-.29.2-.48.33-.31.2-.56.36-.87.55-1.62 1.03-6.61 5.14-8.2 6.5-1.21 1.02-2 1.63-2 3.66 2.15.49.49.56 3.9.56 0 2.35-2.24 6.39-3.06 8.49L2.98 49.64c-.47 1.45-1 2.82-1.63 4.16-.7 1.51-1.69 3.75-1.24 5.42 1.83.37 8.45.42 9.75-.36 1.65-1 4.5-10.53 5.38-12.99l2.84-8.68c.23-.74.23-1.07.87-1.48.36 1.32 1.46 1.94 2.6 2.59-.15.55-.8 1.71-1.08 2.22-.84 1.47-1.46 3.29-2.16 4.82l-2.23 4.57c-.71 1.73-2.97 6.39-2.97 7.83 0 1.49 1.84 1.65 3.31 1.81 1.08.12 1.53-.11 2.54-.14 1.68-.05 1.04-.05 2.24-.52.93-.36 2.23.58 4.09.39.83-.09 2.04.03 2.73-.09 1.12-.2.63-.55 1.55-1.08 1.61.32 2.42 1.67 4.33 1.67 1.31 0 1.64-.3 3.03-.37 3.82-.18 6.09-.37 10.39-.37 2.48 0 4.31-.2 6.93-.18 5.82.03 6.46-1.12 9.32-.57 1.15.22 1.99.27 3.33.09 2.36-.31 7.31.03 10.24-.31 4.4-.51 9.35.39 13.92-.14 1.42-.16 1.06-.23 1.95-.74 1.68 1.25 6.12.94 7.73.31 3.86-1.51 1.7-.87 4.06-.21 2.26.63 6.78.23 9.12-.18.99-.17 1.18-.42 2.04-.48l3.74 4.21c.72.83 1.19 1.25 2.05 1.95.5.42 1.87 1.25 2.54 1.53.55.23 1.04.3 1.6.48 1.54.49 2.82 1.26 4.28 1.89 2.56 1.1 4.4 1.6 7.87 1.6 2.32 0 3.25-3.64 3.25-5.37 2.94 0 11.82 1.99 13.68-.52.66-.89.82-1.89 1.69-2.82 1.06-1.13 3-1.88 3.81-3.22 2.23-3.7-2.29-10.24-2.29-12.32 0-2.04 1-3.56 2.02-5.3.86-1.46 1.31-2.95 1.83-4.55 1.32-4.09 3.3-5.54 3.3-10.69 0-4.82-2.6-11.39-2.6-15.36 0-1.14.16-1.51.23-2.41.09-1.33-.2-1.39-.66-2.21-1.09-1.96.2-3.52-3.46-3.52-.85 0-1.97.64-2.45 1.06-.61.53-1.2 1.31-1.67 1.91z" style="fill:#000"/><path class="fil1" d="M144.82 9.13c-.07.62-1.02 1.01-2.02 1.71-.79.55-1.36.99-1.77 1.97 1.05-.22 1.02-.7 1.73-.57.76.15 1.13.52 1.42.94-.12 1.06-2.72 3.49-3.61 4.26-2.39 2.04-2.3 2.49-5.67 2.6l-.23.53-.39.52s-.5-.03.01-.52l.15-.89c-.37-.28.07-.07-.56-.3l-.74-.13c-.25.53-.59 1.05-.93 1.41-.66.69-.73.46-1.03 1.52l-1.95 5.02c.15.21-.23.21.41.14 2.12.04 4.06.48 3.7 2.6-.3 1.78-1.89 2.99-2.23 3.97-.07 1.08.39 2.45.42 3.66.08 3.36-1.25 6.73-4.39 8.54l.21.51c.33.58 3.58 2.19 4.66 2.69 1.86.85 3.4 1.8 5.23 2.52 1.41-.1 2.21-.96 3.51-2.28 4.44-4.53 6.86-7.57 9.37-13.07.59-1.29.99-2.71 1.62-3.98 1.3-2.64 2.82-4.08 3.9-7.04-2.33-1.46-3.25.82-4.75 1.56l-.88.55-.09-.65c-.14-4.05 3.56-7.29.09-7.44-1.63 1.75-2.13 3.93-4.54 4.81-.43.57-.06.34-.87.65l.74-2.49c.23-1.11 1.5-3.79 1.17-4.54l-2.03-.72c-.65.45-.96 1.03-1.5 1.93l-2.64 4.03c-.59.98-.29 1.17-1.19 2.01.24-1.61.41-1.18.55-3.25l.37-1.14c.7-.68 1.73-3.05 2.45-4.07 3.45-4.91 3.18-3.67 6.24-7.05.81-.89 2.54-2.48 3.06-3.52-.71-.47-.91-.92-1.49-1.42-.99 1.24-3.93 3.51-5.5 4.43z"/><path class="fil2" d="M14.82 23.03c-.23 1.26-1.15 2.98-1.65 4.18-.6 1.43-1.01 3.06-1.6 4.54L4.53 49.39c-1.13 2.8-2.64 6.05-3.51 8.89L9.44 58c.69-1.24 1.45-4.16 2.03-5.65 3.02-7.82 6.97-21.66 10.01-28.41 1.14-2.53 3.72-4.89 2.33-6.49-3.32-3.81-1.97-4.37-5.82-1.28-1.07.86-1.83 1.43-2.81 2.22-1.1.89-5.18 3.62-5.53 4.83l2.44-.15 2.73-.03z"/><path class="fil3" d="M116.63 45.96c.32.14.49.21.81.42.05.03.34.24.36.26.3.29.06.02.26.38 1.04.27 1.25.75 1.71 1.63.38.72.77 1.21 1.04 2 .55.35.51.3.89.96l1.76 3.68c.76 1.64 1.75 3.29 2.58 4.83 3.73 6.9 6.81 6.13 7.46 7.56.78.19 1.88.33 2.96.37h1.42c1.82-.1 1.6-.71 2.25-1.84-.77-1.14.77-3-.47-4.04-.82-.69-2.83-1.03-4.08-1.45-1.18-.16-3.17-.3-4.11-.97 1.36-.02 3.56.11 4.45.78l3.71.82c.47-2.22.23-5.33-.9-7.05-1.71-2.61-8.07-4.77-10.96-6.55-1.29-.79-4.4-3.01-4.97-3.94-1.79-.22-1.85-.83-3.99-.24-2.01.55-1.71.58-2.16 2.39z"/><path class="fil2" d="M82.73 49.4c-.08.7-.23 1.39-.36 2.1-.07.39-.09.77-.17 1.15-.21.93-.12.51-.45.78l-.03 1.45-.28 1.55c.97 0 2.46-.13 3.17.24 1.35-.17 2.77-.04 4.15-.15 1.64-.12 1.98-.14 2.27-1.39.03-.92.07-.88.49-1.64l.37 1.04c.98 2.29 6.17 2.31 8.76.9 2.76-1.5 3.42-3.51 3.87-7.14-2.81-.11-4.66-.46-5.34 1.09-.66 1.5-.08 3.83-2.27 3.65-.38-2.71 1.08-6.21 1.12-9.17l-4.18-2.08-.74 2.27c-.16 1.34-.41 2.46-.72 3.79-.17.71-.43 1.09-.51 1.74-.06.46.08 1.57-.34 1.76l.06 1.02c-.59.26-1.52.28-2.35.3-2.1.04-1.98.36-.69-4.18l2.04.06c.47-.26.31-.17 1.05-.22l.7-3.51-.81-.02-2.18-.04c-.05-1.01.13-.94.24-1.7.13-.95-.26-.92-.32-1.7l3.06-.09c-.25-.82-1.76-1.94-2.88-2.01-.51-.03-1.97.45-4.53.54l-2.17 9.61z"/><path class="fil3" d="M147.64 54.22c.47.22.19-.31.43.35-.5.26-.32.23-.66-.14-1.8-1.11-2.49-2.09-4.03-3.03-1.5.51-2.51 1.81-3.75 2.4.06 1.18.78 2.49.88 3.95.1 1.43-.16 2.57.03 4.21l7.62.87c1.79.2 4.4.6 5.48-.42.55-.52 2.15-2.63 2.18-3.48-2.5-.12-3.53-.44-5.32-1.37-1.07-.56-3.39-1.65-3.84-2.45 2.09.46 3.77 1.81 5.77 2.65 3.28 1.37 4.32.22 6.78-.6.54-2.2 1.96-2.44.41-6.83-.36-1.02-.91-1.97-1.32-2.94-.45-1.05-.51-2.23-1.23-3.1l-1.25 3.34c-.33 1.7-.24 2.13-2.11 2.64-4.04 1.1-5.42-.97-7.51-1.92-1.06.66-1.54 1.64-2.31 2.57 1.57 1.74 3.14 2.53 3.76 3.32z"/><path class="fil4" d="M159.8 22.15c-.03 1.09.31 1.39-.87 1.56l-2.91 6.18c-3 5.6-3.71 9.09-7.63 15.1-.49.75-1.49 2.24-1.75 2.92 1.72 1.93 4.89 2.66 8.3 1.51.51-1.31.69-3.35 1.23-4.81.51-1.38 2.68-4.58 4.2-8.61l1.25-3.37c.05-.11.18-.45.23-.54l.44-.6c.08-1.83 3.02-4.26 2.32-8.51-.65-3.97-1.26-5.44-2.22-8.97-.65-.38.01-.15-.94-.31.49 2.36-1.22 6.01-1.66 8.45z"/><path class="fil2" d="M75.94 40.47c1.37.18 1.59-.03 2.67.61 0 2.66-.88 4.62-1.3 6.84-.21 1.13-.5 2.11-.76 3.23-.29 1.26-.45 2.02-2.04 2.15.33-3.38 2.25-8.54 1.98-11.71l-1.07-.32c-.55-.2-.4.08-.71-.63l1.23-.17zm5.54 12.25c.1-.57.3-1.3.36-1.85.09-.81-.2-1.12.52-1.44-.19-2.31 2.17-8.6 1.42-9.79-.31-.49-1.17-.9-1.66-1.37-.49-.46 0-.4-1.01-.58-.38-.07-1.21-.09-1.63-.11-8.36-.44-6.51-1.15-8.9 9.21l-1.95 9.96c2.58.03 6.02.14 8.46-.32 3.02-.57 3.45-1.42 4.39-3.71zM50.43 45.69c.04-1.01.26-1.71.33-2.59.12-1.61-.38-.79-1.32-1.62.61-.09 1.26-.13 1.88-.09 1.87.12 1.67.69.96 2.92-.33 1.04-.48 1.29-1.85 1.38zm3.87 1.89c-.69-.33-.4-.03-.6-.6l1.13-.22c2.73-.84 3.26-5.73 2.6-7.22-.58-1.31-2.59-1.29-4.39-1.25-1.88.04-3.86.01-5.73.11-1.08 1.88-5.06 16.97-5.27 19.12l5.21-.2 1.67-6.84c.29-.81.45-1.71 1.52-1.62.91 1.03-1.38 6.79-1.54 8.44l4.55-.18c.47-1.64 1.06-3.23 1.54-4.99.5-1.84 1.4-3.85-.69-4.56zM36.91 41.96c-.61-.17-.29.16-.55-.4l.69-.13 2.36.26c.37.96-.23 2.33-.42 3.31l-.12.68 5.13-.19c.63-1.16.89-3.74.36-5.12-.86-2.24-10.12-3.72-12.38 4-.46 1.58-.78 3.25-1.23 4.85-.46 1.62-1.09 3.26-1.24 5-.4 4.61 4.79 4.42 7.72 2.43l.58 1.03c1.15-.01 2.11.07 3.09-.34l2.63-9.86-5.93.1-.87 2.55c.96.85 1.12-.07.21 2.72-.37 1.13-.32 2.15-2.01 2.02.08-4.8 2.9-8.12 2.88-12.47l-.91-.43zM24.92 44.85c-.25 2.65-.34 6.66-3.42 7.11.47-1.32.84-2.71 1.45-4.04.28-.6.62-1.18.91-1.81.26-.57.5-1.36.77-1.86.35-.5.08-.26.48-.43.07.15.23-.22.12.49-.14.9-.13.3-.3.53zm-2.32-5.71c-.62.68-7.98 17.1-8.31 18.54l5.29-.06c.47-1.05 1-2.3 1.39-3.23l1.61.01-.27 3.21c1.81.01 3.71.04 5.27-.21.64-2.63.76-6.3 1.15-9.18.39-2.86 1.33-6.51 1.13-9.33l-7.26.24zM64.33 44.09c-.12 1.54-.25 2.83-.5 4.33-.3 1.84-.58 2.29-2.35 2.78.17-1.17.82-2.73 1.21-3.93.36-1.11 1.16-2.97 1.33-3.88.31-.72-.12-.2.5-.52.02.03.41-.2.17.73-.11.41-.36.49-.37.5zm-3.31 9.6c.34-.33-.43-.1.52-.37.67-.19 1.18.12 1.51.32l-.26.59-.24 2.49c1.79.13 3.78.18 5.25-.24.36-2.38 1.24-10.14 1-12.31l.28-5.73-2.79.08c-4.99-.57-5.04.38-5.66 2.19-.65 1.92-1.29 3.65-2.02 5.48-1.18 2.97-3.57 7.92-4.1 10.85l5.29-.23c.69-.94.48-2.47 1.21-3.13z"/><path class="fil5" d="M107.76 14.2c.65.82-.7 3.03-1.57 2.72-.71-.26.91-2.38 1.57-2.72zm28.87 1.37c-.42.49-.01.43-.83.21.08-.9-.04-.26.35-.56.21-.88.92-1.74 1.79-2.04.47 1.21-.22 1.94-1.32 2.39zm-6.48-4.26c-.21.4-.17.73-.85.86l.1.1c-.27.73-.17.35-.75.73-.11.49-2.97 3.15-3.48 3.44-.52.64.07.23-.71.46.06-.78-.05-.19.28-.42.74-1.28 2.17-2.73 2.22-4.4-1.76.06-2.33.82-3.21 1.52-.36.6-.2.54-.96.71.18-.63.14-.85.7-1.24l1.04-2.46-.87-.2c-.51.76-.46.77-1.53 1.19l-.06.12c-.35 1.14-.89 2.05-1.68 2.77-.85.77-1.2 1.41-2.3 2.06-.37.45.3.31-.66.29.33-.92-.03-.15.41-.5l.78-1.44-.18-.6h-.97c-.68.4-.91.72-1.67 1.05-.21.65.17.25-.39.43-.13-.25-.32.27-.06-.28.17-.36-.02-.05.38-.21.21-.69.24-.45.55-1 .45-.82.27-1.02-.02-1.27-.98-.64-1.77.38-2.58.82-.01-.4.04-.73-.43-1.09-1.09.2-.65.21-1.93 1.76-1.58 1.92-3.29 4.23-6.26 5.12-.51-2.55 1.46-1.66 2.95-2.96.96-.84 2.08-2.99 1.01-4.29-.99-.23-1.35.3-2.15.61-.15.69-1.06 1.3-1.88 2.76-.48.85-1.23 2.62-.95 3.66.75 2.83 4.48-1.32 5.99-2.04l-.63 1.55-.1.6.51-.09 3.45-3.66c.59-.65.28-.8 1.32-1.1l-1.46 3.8c.96-.4 2.49-1.67 3.58-2.28l.18.95-.15.72.66-.11c.79-.46 1.53-.97 2.28-1.37l-3.81 8.06c-.42.86-.96 1.75-1.29 2.77.17.3-.3.3.46.19 2.03-1.7 5.67-11.88 9.51-13.09-.43 1.33-1.43 2.54-1.61 4.13 2.6-.59 4.49-3.24 6.19-4.43l.41-.63c.19.27.31-.52.13.32-.09.42.1.03-.35.29l-2.24 4.62c1.12-.1 3.01-2.18 4.71-3.54l.7 1.25c.85-.04 1.32-.28 1.98-.47.07 1.69-1.05 1.34.03 3.42 2.54.02 3.74-1.61 4.89-2.67.86-.8 3.21-2.67 3.28-3.9-.78.03-.65.15-1.06.62l-2.38 2.41c-.76.83-2.45 2.55-4.01 2.62-.13-2.2 1.4-1.2 2.97-2.76 1.16-1.15 1.13-2.06 1.52-3.83-3.85-1.13-3.09 2.66-6.43 3.58.4-1.14 1.75-2.08 2.37-3.08-2.31-.16-2.68.75-4.81 2.41-.25.2-.53.48-.65.57-1.24.85.61-1.25 1.3-2.24.38-.54 1.35-2.28 1.52-2.94-2.05.09-1.6.89-2.83 1.24z"/><path class="fil2" d="m104.4 54.15-.12 1.55 1.15-.05 8.19-.18.49-3.6-3.61.07c-.04-1.24.08-3.24.75-4.27 2.36-.1 3.21.3 3.56-1.67l.02-1.78c-.93-.3-1.9.33-3.05-.37.01-1.03.03-.64.32-.89-.03-1.62-.13-1.16-.65-2.49l4.59-.12.79-3.86-9.23.33c-.48 3.53-3.01 14.95-3.2 17.34zM37.72 24.32l1.61.01c.16.79.12 1.63-.18 2.3-.35.78-.51.77-1.41 1.05-.18-1 .37-1.98 0-2.85l-.93-.38c.96-.75.86-.16.92-.13zm-6.96 12.65 3.91-.19c.51-1.02.87-2.29 1.2-3.53.16-.6.35-1.22.5-1.8.25-.96.14-1.26 1.3-1.31.78 1.19-1.11 5.04-1.31 6.66l3.89-.16c.39-1.41.78-2.46 1.14-4.05.55-2.42.8-2.06-.6-3.75 1.02-1.09 1.5-.41 2.35-2.33 1.59-3.59.66-4.81-3.72-4.87-.87-.01-1.74.03-2.61.05-2.47.06-1.64-.42-3.07 4.19-.83 2.68-2.89 8.8-2.96 11.09z"/><path class="fil6" d="M155.18 19.53c-.33.87.15.26-.57.57-.16 1.01-1.28 2.66-1.82 3.51-.78 1.21-1.32 2-1.9 3.41 1.49-.74 2.41-3.02 4.75-1.56-1.08 2.95-2.6 4.4-3.9 7.04-.63 1.28-1.04 2.7-1.62 3.98-2.5 5.49-4.92 8.54-9.37 13.07-1.3 1.32-2.1 2.19-3.51 2.28l1.58 1.29c2.51-.68 6.68-5.37 8.25-7.42 1.89-2.48 6.59-11.61 7.85-15.1.71-1.97 1.78-3.49 2.51-5.24.73-1.75 1.5-3.63 2.15-5.37.8-2.16 1.24-3.77 1.41-6.28-1.09.41-.72.83-1.43 1.47-.74.67-1.29.59-1.82-.13.57-.33.83.44 1.82-.6.59-.63.92-1.01.93-1.98-1.41.11-1.57-.09-2.3.81-.4.49-.9 1.34-1.23 1.9-.58 1-1.79 3.21-1.77 4.37z"/><path class="fil5" d="M68.34 11.16c-.01.16.01.85-.07 1.02-.33.71.13.33-.66.22l.02-.87c-.53-1.07-.28-3.89-1.27-4.71-.91-.24-1.88-.12-2.94-.08-.73 2.87-2.78 11.06-2.69 13.75.95.41 1.89.84 3.06.77l1.66-5.56.83 5.53 3.68-.8c.52-3.51 2.59-11.47 2.7-13.79l-3.14.07c-.78 1.04-.96 3.15-1.16 4.45zM46.87 20.92l.26-.36.47.47c2.68 1.09 3.04-.55 3.45-2.33.26-1.15 1.29-3.84 1.25-4.7l-4.69.03c-1.13 2.16.72 2.06-.69 4.65-.33.6-.41.75-1.21.73-.36-1.85 1.22-4.93 1.69-6.97.2-.86.05-1.94.24-2.64.65-.63.72-.5 1.72-.3.04.82.22.63-.32 1.03l-.42 2.02c4.02.53 4.61.02 4.88-1.76.34-2.21-.83-3.68-3.92-3.61-3.73.08-5.11 1.63-6.13 4.12-.79 1.93-2.02 5.19-2.29 7.3-.43 3.34 3.03 4.03 5.71 2.33zM127.16 33.16c-.07-1.7.99-3.29 2.58-3.56-.08 1.73-.75 3.45-2.58 3.56zm-16.56.52c.43 0 .29-.08.31.33l-.62 1.57c2.19-.51 1.87-2.33 5.95-4.24l.02 2.51c1.47-.08 1.32-.44 2.15-.95.16.67.15.51.56.77.19.36.09.23.36.53 2.89-1.07 2.77-1.68 4.34-3.78l.17.13c-.04 1.7-.77 2.75-.69 5 1.12-.36 2.21-1.53 2.66-2.49.77.34 1.16 1.01 2.3.55.75-.3 1.32-1 1.74-1.49.57-.67 2.08-2.58 1.73-3.54-.33-.92-1.32-.75-2.6-.45-.15.75-1.89 2.11-2.52 2.95-.76 1.01-1.35 2.31-2.54 2.78a48.46 48.46 0 0 1 2.59-6.25c.54-1.1 2.87-4.92 2.68-5.84-1.9-.31-2.36 1.61-2.96 3.02-.5 1.18-1.21 2.84-2.14 3.63-1.57-.45-1.81-.52-3.65 1.41-.96 1.01-1.94 1.85-3.03 2.54.47-1.11 1.39-2.47 1.46-3.81-1.45.2-1.65.62-2.47 1.34-.57.5-1.7 1.25-2.29 1.52l-.13-.1c.29-.75.62-.93 1.17-1.56.66-.75.58-.77.86-1.74l-.82-.32c-.21.27-.08.11-.33.34-1.23 1.15-3.22 4.44-4.3 4.85.27-1.07.62-1.04.55-2.52-1.71.03-1.5.72-2.12 1.72a7.77 7.77 0 0 1-1.78 1.94c-.25.13-.32.04-.49.2l.15-.46c.45-1.8 2.31-3.59 4.01-4.52 1.12-.61 1.55-.31 1.82-1.31-3.93-.91-5.38 3.69-7.64 5.19l-.48.01.02-.4c.46-1.01.92-2.01 1.24-3.16-1.78 0-1.89 1.11-2.64 2.36-.59.98-1.51 2.1-2.24 2.82l-.58.01.03-.53c.76-1.6 2.08-3.55 2.46-5.18-2.54.35-3.82 4.29-3.26 6.64 1.61.06 2.83-1.23 3.44-2.28.74.29.59.4 1.12.8l1.24-.51.49 1.28c1.89.08 2.09-.88 3.26-1.58.26.25.55.59.87.77.63-.28.23.06.59-.52zm12-4.19c.91-.04.35-.02.55.17l-.12.6c-.44.77-.79 1.2-1.45 1.84-.59.57-.89 1.18-2.04 1.25.68-2.08 1.58-2.76 3.06-3.86z"/><path class="fil2" d="M55.48 34.21c-.22-1.02.21-1.92.37-2.94l-3.76-.03c-.6 2.29-1.81 4.69 1.52 5.47 2.64.62 5.88-.16 6.86-2.22 3-6.31-1.46-6.53-2.72-8.13-.82-1.04-.4-2.65 1.14-2.63l.03 2.15 3.61-.18c3.5-5.38-6.27-6.17-8.43-2.18-.72 1.33-1.5 4.71.88 6.14.92.55 1.9.99 2.12 2.07.25 1.25.02 2.77-1.62 2.49z"/><path class="fil5" d="M31.94 11.77c.15 1.06-.18 2.74-.39 3.78-.31 1.47-.45 1.81-2.12 2.19l2.52-5.97zm3.97-3.36-.13-.63-5.34.03c-1.18.58-2.63 5.16-3.52 7.1-.96 2.07-2.57 5.3-3.04 7.44l4.39-.9.62-1.71 1.52-.04-.17 1.63c1.12.4 1.78 1.16 3.53.88 1.55-1.26 1.12-4.6 1.3-6.63.22-2.41.94-4.7.84-7.18z"/><path class="fil2" d="M67.57 33.22c-.22.51.34.48-1.1.36-.16-.48-.4-.55.2-1.22.28-2.43.91-4.47 1.6-6.73.52-1.71-.02-1.09-.21-2.22 2.46-.25 2.1.29 2.02 1.06-.1 1.07-.29 2.08-.42 3.14l3.75-.18c.92-1.16 2.98-7.45-4.14-6.34-3.98.62-5.03 3.37-5.78 6.93-.99 4.68-2.69 8.09 2.77 7.94 4.17-.12 6.61-2.4 6.6-6.04-6.74-.37-3.05 1.82-5.3 3.31zM30.59 30.71l-3.88.11c-1.73 2.28-.31 3.49-2.54 3.6.05-1.74.65-3.54 1.16-5.14.27-.83.51-1.64.82-2.44.68-1.78.44-.93-.06-2.45h2.35l-.81 4.01 3.84-.17c.66-1.05 1.36-3.78.88-4.96-.65-1.58-3.69-1.4-5.51-1.04-3.92.78-4.35 3.8-5.56 7.28-1 2.88-3.52 7.84 2.51 7.49 1.8-.1 3.86-.79 4.74-1.86.93-1.12 1.82-2.74 2.06-4.43zM41.58 36.59l7.96-.32.73-2.81-3-.03.3-2.2c.34-1.11.78-.85 3.08-1.04.16-.89.59-1.81.4-2.68l-2.33-.03c.19-1.48.29-1.29.03-2.76 1.18-.04 2.73.1 3.64-.45.29-.51.83-2.2.33-2.45-.48-.24-3.28-.13-4.01-.11-3.69.11-3.55.43-4.13 3.47-.74 3.97-2.6 7.64-3.01 11.41z"/><path class="fil5" d="m81.72 19.05-.08.9c1.11-.09 1.93-.36 2.66.26.87.76 2.38.84 3.94.45 1.26-.31 1.44-1.54 1.54-2.88l-3.23.04c.08-1.48.46-1.92.7-3.17 1.47-.03 2.37.27 2.91-.72-.72-.98-1.92-.56-2.22-1.69-.36-1.41.77-1.29-.21-3.12 1.61-.08 3.23-.06 3.66-1.08l.31-1.68c-.05-.04-.12-.09-.15-.11l-.28-.19c-.04-.02-.17-.09-.23-.12-2.02.19-4.75-.3-6.4.39-1.18 1.49-2.71 10.3-2.93 12.73z"/><path class="fil3" d="m128.14 65.11.63.09c.02-.69-.72-1.08-1.17-1.61-2.71-3.18-5.55-9.14-7.23-12.75-.48-.6-.66-1.28-1.11-1.94-.49-.72-.88-1.18-1.2-1.87l-1.53-.37c-.08 1.15-.12 1.21-.42 2.26l-3.31.44c-.23.48-.27 1-.15 1.64 4.68.32 3.11 1.76 3.12 3.82 0 .59 2.7 3.42 3.28 4.06 2.88 3.2 5.07 4.35 9.1 6.23z"/><path class="fil2" d="M82.02 33.64c-.4-1.05-.83-.8-1.66-1.37l-.76.25c-.25.03-.72.02-1.03.03l.03-1.1.36-.7-.01-1.36 3.01-.34.32-2.64-2.53.02c-.17-1.4.19-1.4-.23-2.82.89-.02 1.85.09 2.57-.25-.27-.8-1.64-.49-1.17-2.12 1.02-.5 1.08-.26 2.4-.37-1.79-.43-4.87-.23-6.9-.11-.58 2.15-2.97 12.95-3.12 14.82 1.33.03 6.54.33 7.55-.32.61-.39.28-.42.7-1.09.28-.44.13-.27.45-.53z"/><path class="fil5" d="m55 7.23-2.93 13.7c.56.19.91.14 1.28.32.68.34.02.25.81.74 1.65-.57 2.38-1.01 4.45-1.44.7-.15 2.09-.36 1.47-1.33-.38-.6-1.04-.31-2.98-.3-.1-3.35.43-2.98 3.39-3.48l.56-2.47-2.72-.17c.06-1.38.26-1.21-.08-2.72l3.46-.08c.59-.84.66-1.69.81-2.84L55 7.24zM82.99 34.1c1.57.18 2.02 1.09 3.1 1.72.9.52 2.34 1.2 2.6 2.05-1.3.79-3.36.75-4.57-.01-1.26-.79-1.5-2.23-1.13-3.76zm.43-1.15c.21-1.51 1.62-3.96 2.52-5.2.51-.7 1.26-1.46 1.88-2.1 1.88-1.93 4.9-4.11 8.35-4.09 6.84.03 2.28 9.96-2.91 13.72-2.33 1.68-2.62 2.22-3.82 1.58-1.38-.74-5.13-2.98-6.01-3.91zm-3.78-1.82-.61-.03.19.41c.76.28.59.23 1.15.75.82.57 1.26.32 1.66 1.37.21 1.95-.25 4.1 1.65 4.97 2.24 1.02 5.12-.62 7.04.28.65.3 1.44.92 2.13 1.32 2.32 1.33 5.5 3.73 7.6 2.69-.59-1.08-3.17-1.72-4.69-2.41-1.41-.64-3.27-1.89-4.48-2.66.58-.78 1.05-1.08 1.98-1.63 1.2-.71 1.21-1 2.05-1.76 1.24-1.13 2.38-2.53 3.43-4.1.96-1.43 2.12-2.89 2.31-4.82.26-2.62.43-4.24-1.85-5.33-4.22-2.01-9.1 1.83-10.94 3.42-3.86 3.35-5.35 8.23-5.96 8.76-1.01-.41-1.41-.91-2.66-1.26zM73.46 8.09l-.15 1.41c1.37-.01 2.45-.2 2.9.27-.78 1.1-1.11 3.23-1.29 4.52-.2 1.43-.95 3.11-.96 4.93l.01 2.04 1.43.05.62-1.05 1.72-.11c1.19-2.58 1.62-10.11 2.37-10.54l2.1-.38c.57-1.1.67-1.37.76-2.73l-9.05.07c-.26.76-.39.9-.46 1.52z"/><path class="fil1" d="M154.7 8.93c.12-.43.19-.66.43-1.03.43-.65.21-.42.86-.66-.31.72-.76 1.32-1.3 1.69zm5.08-6.05c-1.12 1.19-2.61 1.69-3.6.14l-.77-.05c-.14.78 0 .29-.61.94-.23.25-.48.61-.8.98-.52.62-1.12 1.13-1.64 1.75-.57.69-.89 1.24-1.45 1.9-.64.76-1.26.91-1.67 1.86.82.54 1.14.03 2-.09.99-.14 1.43.16 2.51-.06l.68-.74c-.02 2.23-2.17 3.69-2.3 5.2l2.06.44c.44.55.28.37.47.93.27.79-.07.87.6.86 1.82-2.83 1.5-3.96 3.83-5.13 1.17-.59 1.33-1.69 1.4-3.07.08-1.57-.09-2.64-1.97-2.57l.02.29c.94.05.02-.19.56.14.41.25.04-.03.29.47-.03.93-.02 1.51-.76 1.94-.9.52-1.64.32-2.43 0l.1-1.9c-.13-.29-.36.46-.03-.48.1-.27.12-.26.33-.43 1.27-1.07 2.45.01 3.48-1.67.84-1.37 1.98-3.48-.61-3.84.67.47 1.2 1.56.29 2.18z"/><path class="fil6" d="M147.79 18.05c-.03-.04-.62-.04-.22-.69.31-.5.1-.16.74-.32l-.52 1.01zm1.46-7.64c-2.13 1.04-8.38 9.6-8.9 11-.43-.28-.37.49-.3-.64l-.37 1.14c-.14 2.07-.31 1.65-.55 3.25.9-.84.6-1.04 1.19-2.01l2.64-4.03c.53-.9.84-1.48 1.5-1.93l2.03.72c.32.75-.94 3.42-1.17 4.54.84-.52 3.42-4.73 4.35-5.91 1.42-1.8 3.29-3.85 4.09-6.27-1.07.21-1.52-.08-2.51.06-.86.12-1.18.63-2 .09z"/><path class="fil2" d="m97.46 40.32.67-.53 2.72.02c.69 3.03 0 2.94-.58 5.37l4.66-.17c.91-.98 2.34-6.44-.85-7.93-1.43-.67-3.84-.7-5.32-.29-1.33.37-3.24 1.49-3.76 2.25.41.73 1.52 1.03 2.47 1.27z"/><path class="fil5" d="M98.76 11.91c-1.48-.13-2.66-.21-4.28-.14-.77.03-1.44.09-2.23.06l-1.73-.35c-.72-.11-.24.16-.54-.32 1.16-2.69 8.63-4.69 12.16-5.23 1.41-.22 3.89-.44 5.01-.82-.25-2.1-3.67-1.3-5.58-.77-1.76.49-4.01 1.2-5.59 1.89-1.47.64-9.72 4.56-7.33 6.53.54.43 2.3.24 3.6.26 1.24.03 2.43.13 3.67.16 2.74.07 5.02-.17 6.48 1.31-.23 1.49-1.12 2.08-2.4 2.73-.95.48-2.74 1.19-3.48 1.95 2.77.34 5.06-1.27 6.41-2.96 1.98-2.46-1.66-4.25-4.18-4.29z"/><path class="fil6" d="M123.67 43.48c.36 1.02 2.67 2.77 3.67 3.14l-.21-.51c3.14-1.81 4.48-5.18 4.39-8.54-.03-1.22-.49-2.59-.42-3.66-.96.32-.57.32-1.3.78-2.01 1.27-2.23-.55-2.5 4-.16 2.65-1.09 4.13-3.64 4.8zM145.45 24.28c2.42-.88 2.91-3.06 4.54-4.81 3.47.15-.23 3.39-.09 7.44.66-.41.42-.33 1.03-1.55.91-1.83 2.61-4.17 2.71-5.03v-.28l-2.02 1.65c-.04-1.17.56-1.19 1.19-1.75.74-.66.93-1.04 1.82-1.43l.64-1.56c-.67.01-.33-.07-.6-.86-.19-.56-.03-.38-.47-.93l-2.06-.44c-.53.27-1.41 1.65-2.01 2.19-.98.88-.93 1.12-1.61 2.33-1.03 1.82-2.19 2.93-3.07 5.03z"/><path class="fil5" d="M81.38 21.68c.44 1.47 2.98 1.4 4.79 1.1.89-.15 1.64-.36 2.44-.7 1.06-.45 1.53-.61 1.97-1.38-1.49.13-2.96.51-4.38.6-1.63.11-3.56-.31-4.82.38z"/><path class="fil4" d="M131.18 22.17c.3-1.06.37-.83 1.03-1.52.34-.36.69-.88.93-1.41l.74.13c-.36-2.52-.13-2.32-1.77-2.55-.8 3.03-2.28 4.3-.93 5.35zM161.55 12.98c.3.16.7.4.97.56.74-1.21-.37-5.35-1.49-5.66-.07 3.87-1.41 3.71.52 5.09zM156.59 2.2l.03.83c1.61.88 1.71.38 3.11-.28.07-1.36.21-1.92-1.85-1.92-.36.32-1.11 1.13-1.29 1.37z"/><path d="M156.85 7.09c-.08.87-.45 2.06.99 1.82 1.06-.18 1.06-1.17 1.11-1.28.25-.57-.2-.3.45-.55-.25-.5.11-.22-.29-.47-.53-.33.39-.09-.56-.14-1.3-.03-1.09-.37-1.7.61z" style="fill:#ecad65"/><path class="fil4" d="M151.16 5.06c.28.29.46.44.74.67 1.11-.44 1.91-1.02 2.18-2.33-2.05-.02-2.8-.29-2.92 1.66zM161.28 7.1c.95-.54 1.51-2.25.29-3.3-.68.24-1.04.79-1.22 1.53-.2.85.44 1.29.93 1.77z"/><path d="m153.65 20.33.68-.38.28.15c.72-.31.25.3.57-.57-.69-.27-.33.19-.54-.44l.01-.58c-.88.4-1.07.77-1.82 1.43-.63.56-1.23.57-1.19 1.75l2.02-1.65v.28z" style="fill:#cd9064"/><path d="m155.41 2.97.77.05c.99 1.56 2.48 1.06 3.6-.14l-.04-.13c-1.4.66-1.49 1.16-3.11.28l-.03-.83c-.51.16-.29.03-.66.26l-.52.51z" style="fill:#584937"/><path d="m66.3 38.53 2.79-.08-.28 5.73c.24-.35.63-5.33.47-6-1-.02-2.24-.03-2.98.36z" style="fill:#906f1a"/><path d="M136.42 11.94c-.16-.95-.65-1.37-1.87-1.3l-.24.7c.51.4 1.34.52 2.12.6z" style="fill:#e9e2a3"/><path d="M92.49 37.56c.29.69.72 1.11 1.79 1l.13-1.24-1.92.24z" style="fill:#efc153"/><path d="m105.42 55.65-1.15.05.12-1.55c-.41.25-.4.2-.44.78-.03.37.04.64.1.98.88.01.78.16 1.37-.26z" style="fill:#624d19"/><path d="M158.93 23.71c1.18-.17.84-.47.87-1.56-.13.13-.17.09-.29.35-.1.22-.06.22-.14.44-.12.33-.23.5-.44.77z" style="fill:#9a7446"/><path d="m67.57 33.22-.97.13.07-.99c-.6.67-.36.74-.2 1.22 1.44.12.88.15 1.1-.36z" style="fill:#695117"/><path d="m147.79 18.05.52-1.01c-.64.16-.43-.17-.74.32-.4.65.19.65.22.69z" style="fill:#936d44"/><path style="fill:#9d791c" d="m97.46 40.32.89.58-.22-1.11z"/><path d="M147.4 54.42c.35.37.17.41.66.14-.24-.65.04-.13-.43-.35.05.31.13.24-.24.2z" style="fill:#8e7137"/><path d="M134.66 20.58h-.38c-.51.5-.01.52-.01.52l.39-.52z" style="fill:#ac935e"/><path style="fill:#8b8a8c" d="m46.87 20.92.74.11-.47-.47z"/></g></g></svg>