<svg xmlns="http://www.w3.org/2000/svg" xml:space="preserve" width="96.066" height="72.095" style="shape-rendering:geometricPrecision;text-rendering:geometricPrecision;image-rendering:optimizeQuality;fill-rule:evenodd;clip-rule:evenodd" viewBox="0 0 86.5 64.92"><defs><style>.fil1{fill:#000}.fil3{fill:#00fe00}.fil2{fill:#fff}</style></defs><g id="Camada_x0020_1"><path d="M13.74 42.36c0-.02-.02-.05-.02-.07-4.63-1.25-2.8-4.42-1.21-4.51 1.62-.09 1.78.49 2.81.64l.82-1.34c-1.54-1.05-2.29-2.81-1.25-4.39-1.62.68-2.57.72-4.11.95-.82 2.47-6.13 2.94-6.49-.42-7.2-1.76-4.25-8.61.97-6.51.3.12.99.4 1.53.57l1.08-1.79c-3.7-2.64-3.34-6.71.78-8.61l-.61-1.18c-4.83-1.21-3.34-4.2-1.91-4.72 1.22-.45 2.18.44 3.7.62l1.02-1.67c-3.89-2.6-1.86-7.16 4.79-7.27.09 0 .21 0 .33-.02 1.62-2.7 4.62-1.29 4.32.4 1.05.31 1.69 1.33 1.49 2.13 7.42.21 13.24-1.24 19.84-4.51 5.13-2.54 7.34 2.43 7.6 7.33.08 1.4.14 2.58.66 3.91 1.13-3.35 5.66-4.61 9.06-3.25 3.3 1.33 9.84 2.49 13.12 1.91l2.76-.09 3.65-.57c2.97-.48 5.71.96 6.21 3.51.93 4.67-1.48 7.98-1.34 9.88.22 3.03 2.23 6.09-.14 9.63l-2.66 3.04c2.23-1.41 4.53-.1 4.53 1.58 2.52 1.27 1.79 5.99-3.14 5.24l-.07.1c3.68 2.88.36 7-1.34 7.6l-3.42.89c-.24.4-.54.69-.89.9-.14 1.63-.74 4.95-.4 6.34.75 3.11-2.25 4.44-4.63 3.59-2.06 1.7-4.77 2.06-7.05.4-2.21 1.12-4.31 1.4-6.47.26l-.83.49c-3.63 1.81-5.31.18-5.95.38-1.3.43-2.53.31-3.65-.16-1.31 1.28-3.68 1.15-5.14 0-2.13 1.01-4.63 1.18-6.63-.28-4.21 4.06-10.18-.04-9.82-7.19-1.28 0-2.6-.7-3.37-1.56-1.29.59-2.69 1.16-4.13.78-1.36 1.13-3.15.72-3.26.75-1.39.68-3.18.33-4.48-.38-.4-.23-.76-.49-1.08-.78-1.06.53-3.69 1.45-4.63.75-3.46-2.58-1.73-3.91-1.15-5.02l1.6-3.73c1.25-2.47 2.84-5.55 6.16-5.1.76.1 1.49.35 2.08.76.12-.05.24-.1.36-.16l-.02-.07z" style="fill:#fefefe"/><path class="fil1" d="M54.1 50.64c1.68-.77 4.35-.31 4.62 1.84 1.59-.69 4.97-1.96 6.54-1.68 1.13-.87 4.56-.2 3.7 2.71l-.64 3.07c1.08-2.17 1.72-4.63 2.19-6.79l1.3-.28c-3.16-.89-1.94-3.45-.4-3.25.83.1 1.32.62 2.93.83.35-.49 1.39-2.1 1.46-2.66-.82-.71-1.18-.5-1.91-2.05-.14-.3 0-.12-.24-.33-1.5.21-5.85 10.67-14.58 6.06-2.72-1.44-3.29-2.99-4.63-5.29l-.35-.62c-.54 1.94-.36 2.94-.62 4.11 1.18.49.93 1.31.8 2.4l-.75.05c.12.54.49 1.2.56 1.87h.03zm19.63-.78.75.83c.83-.03.61-.64 1.08-1.18.34-.39 3.45-.16 4.95-1.68.94-.97.92-2.38-.07-3.32-1.87-1.75-2.1-.16-.23-3.18.78-1.27.69-.83 2.74-.56 1.04.14 1.81-1.2.75-1.54-2.18-.7-1.42.44-.94-1.67-.94-.54-1.49.75-1.94 1.11-.63.53-5.67.19-6.16 2.46-.4 1.86.94 2.19 1.86 2.86.61.43-.28 1.35-.85 2.29-.94 1.54-.57 1.98-3.44.85-2.01-.8-1.87.75-1.15 1.25.8.56 1.81.62 2.4.76.76.17.42.35.31.68l-.05.02zm.92 1.46c.16.96-.81 5.88-.35 7.53.6 2.14-1.84 2.65-3.38 1.51-2.12 2.35-5.04 2.42-6.49.33-2.17 1.53-4.7 2.07-6.79.31-1.85 1.54-4.56 2.55-6.58.8l-.14.35c-1.89.65-3.12.43-4.55-1.02.45 2.63-2.89 2.25-3.91.54-1.59.79-3.92 2.21-6.18.35-.42-.35-.71-.64-.94-.94-3.63 5.44-9.48.73-7.83-7.15.07-.35.24-.66.49-.92-.21-.07-.4-.16-.57-.28l.05 1.3c-1.52.74-3.02 1.2-4.48-1.04-.12-.19-.21-.35-.28-.49l-.57.31c-.32.43-3.51 2.11-4.5.52-.5 1.49-2.17 1.61-3.11 1.15-1.2 1.2-4.06.13-4.88-1.51-1.85.74.61.21-4.01 1.56-2.69-2-1.02-2.36-.71-3.32.62-1.93 2.42-5.58 3.64-7.08.82-1.01 3.37-1.64 4.44.5.64-.95 8.35-3.93 10.62-2.53 1.19-1.19 3.2-1.14 3.94-.1.93-.37 2.39-.55 3.16.21.86.84.07 2.33-.45 4.2 1.29-2.38 1.85-3.22 2.4-5.85 1.45-.07 3.39-.23 3.82 1.48 1.79-.85 3.42-1.6 5.42-1.35 1.25-2.12 4.76-.76 4.37.95l-2.05 5.16 2.01-1.01 3.92-6.02c.49-.59 1.13-.94 1.96-.95-1.11-2.23-4.17-6.38-4.34-8.52-.02-.24.02-.5-.07-.71-1.37.2-1.8 9.2-7.55 10.55-4.55 1.07-6.95-1.19-9.34-3.04l-8.12-6.94c-1.91-1.87-2.07-1.35-2.79-3.78-.58-1.94-.15-4.72-.23-5.23-.06-.42-1.47-.5-2.4-.62-.71-.1-.8-.19-1.11.24-2.22 3.09-1.79 2.55-.71 3.35 2.55 1.89 2.71 4.44.16 6.44-2.03 1.58-5.5 1.67-5.81 1.79-.49.17-.42.47-.62.9-.59 1.27-3.71 1.49-3.38-.62.21-1.33-2.41-.16-4.03-2.41-.71-.97.05-3.23 2.78-2.15 3.21 1.27 3.02.89 3.51 0 .42-.76 1.6-2.57 1.7-2.99-1.4-1.03-2.48-1.44-2.86-3.3-.68-3.25 4.18-4.63 7.78-4.7 1.87-.04.99-2.12 4.27-2.12.1-.54-1.21-2.38-1.6-2.95-.17-.4-.1-.8-.28-1.2-.53-1.24.23-2.62 1.46-3.44 1.54-1.02 2.76-.73 5.1-.68 6.66-.13 12.74-1.8 18.66-4.76 5.14-2.56 5.22 5.69 5.45 8.33.33 3.74 3.9 5.78 2.85 10.29-.1.45-.21.49.07.71 2.13-4.02-2.12-8.69 2.83-11.18 3.04-1.53 5.26.44 8.4.99.73.12.64.12 1.21.3 1.74.54 6.44.78 8.44.73.36-.02.8-.16 1.2-.14 5.37.17 9.5-2.78 10.43 2.62.55 3.18-1.68 6.71-1.49 8.82.27 2.94 2.07 5.8.1 8.75-.69 1.04-5.36 5.72-5.62 6.68.68.09 1.34-.24 2.07-.35 2.67-.38 1.13.31 2.69-1.02 1.25-1.06 2.24-.66 2.45-.12.1.3-.16.69-.05 1.01.1.28.5.26.85.42 1.27.59.54 2.5-.83 2.67-.61.07-1.54-.24-2.36-.19l-1.2 1.94c.53.53 3.45 2.08 1.41 4.76-1.1 1.44-2.34 1.39-3.51 1.86-.9.36-1.24-.44-1.94.73-.31.52-.68.64-1.15.76l.03.03zM53.58 39.1c1.35.58.95 1.74.95 1.77l2.12 3.71c1.54 2.26 4.91 4.25 8.12 3.42 4.02-1.04 6.77-5.47 9.49-8.73l5.62-6.47c3.26-3.67 1.38-5.05.85-9.96-.1-1.67 2.9-7.34.92-10-1.41-1.89-5.21-.02-9.27-.09-3.93-.07-7.51 0-11.61-1.25-.62-.19-1.35-.33-2.07-.57-1.48-.5-3.3-1.42-5.33.02-2.36 1.69-1.23 4.56-1.04 6.02.51 3.94-2.49 7.35-3.04 9.91-.86 4.04-.65 3.66 1.67 7.64l2.6 4.58zm2.73 18.17c.33-1.37.75-.16 1.42-2.38-.65.31-1.49.17-2.1-.26-.73 1.02-1.22 2.54-1.46 4.06.77-.63 1.11-1.19 2.15-1.41l-.02-.02zm-13.94-1.39c.07-.31.12-.62.19-.92l-1.32.5 1.15.42h-.02zm1.6-4.24.8-.35a.604.604 0 0 1-.21-.17l-1.25.43c.23.02.43.05.66.1v-.02zm-1.67-.09c-.78-.1-1.51-.49-2.08-1.08l-2.38 1.32c.28.3.43.61.52.95l.92-.36c.95-.38 1.96-.73 3-.82l.02-.02zm-23.78-.92zm2.59-4.79.45-.71c-.49.09-1.13.23-1.51.35 0 .05.02.09.02.14.36.03.73.1 1.06.23h-.02zm-8.16.26c-.03.62-.03 1.18.02 1.72l1.06-.69c-.5-.23-.89-.59-1.06-1.02h-.02zm21.3 5.8-1.46-1.3c-.38.5-.82 1.01-1.3 1.44 2.29.51 1.17 2.36.87 5.16.56-1.21 1.89-4.09 1.89-5.29zm15.92-.66-.78-1.16c-.88.39-.76.7-1.72.99l.92.95c.45-.5 1.02-.75 1.58-.78zm-9.72-7.12c-.5.21-1.02.45-1.37.64.36.07.69.19 1.01.38.12-.35.24-.68.36-1.02zm23.42 10.19c-.36.12-.8.28-1.08.42.33.05.62.16.94.31l.14-.75v.02zM29.19 29.89c.56-2.58 3.31-4.18 5.64-4.95 4.1-1.34 13.19 1.08 11.23 4.91-1.63 3.19-5.95-.91-10.36 1.61-3.01 1.72-2.82 2.57-5.23 2.24-.97-.14-1.7-1.94-1.51-2.76l.23-1.06zm-.75-4.24c.21-.97 1.6-2.6 1.74-2.85.33.44-.89 2.14-1.15 3.28-.3 1.3-.56 2.64-.85 3.94-.9-.33.12-3.68.28-4.37h-.02zm3.54-1.98c.75-1.27 3.07-.42 4.06-.45 1.39-.03 2.47-2 3.65-1.23-.69.58-.05-.36-1.87 1.21-1.56 1.32-2.81.49-4.25.24-.89-.14-.8.31-1.6.23h.02zm9.1-3.3c-.16-.16-.05.09-.12-.16.96-.61 5.74 4.14 5.45 5.68-.63-.22-1.77-2.53-3.94-4.34l-1.42-1.16.03-.02zm-21.77-3.52c.07-.33.31-.21.57-.1l-.1.52-.54-.07.07-.35zM7.82 20.58c.68-3.09 7.65-2.5 8.37-3.28.26-.28 1.37-1.82 2.17-1.72 1.54.21-.64 1.63-.23 2.08.26.3 1.56-.09 2.34.56.68.56.17 1.42-.36 1.75-.71.44-2.55-.04-3.89-.21-.4.42-1.53 2.15-2.03 2.83-1.54 2.09 1.61 1.23 2.52 3.98 1.01 3.08-3.01 4.68-5.87 5.02-2.34.27-1.33-.02-2.24 1.42-.47.75-2.19.75-1.98-.19.24-1.09.69-1.21-1.02-1.46-4.08-.59-3.56-3.13-2.36-2.97 1.56.21.82.28 2.43.75 2.83.82 2.12.84 3.7-1.77 2.08-3.52 1.77-1.89-.64-3.99-1.11-.97-1.13-1.7-.89-2.81l-.02.02zm14.95.35c.49-2.25 3.86-3.34 5.4-3.94 3.04-1.2 2.53-1.96 3.3-2.27.49.51-.07 3.44-1.39 4.5-1.43 1.14-2.8.67-5.09 1.32-2.5.73-1.23 1.04-2.31.92l.1-.52h-.02zm15.55-6.53c1.28.18 7.24-1.47 8.47 1.51-1.13.28-1.01-.58-4.36.75-2.42.96-4.32.65-5.82-1.44-.33-.47-.89-1.06-.8-1.58 1.09.23-.14.42 2.5.78v-.02zm-16.26 4.67c.68-3.16 5.75-5.05 7.39-6.06 1.3-.8 1.89-1.98 2.47-2.03.13 1.89-4.51 4.39-6.04 5.35-1.79 1.09-2.73 1.87-3.71 3.71l-.21-.03c.09-.43 0-.49.09-.95l.02.02zm16.85-6.44c-1.49-.19-4.52-1.2-4.6-2.38 1.51.21 1.35 1.2 5.35 1.2 2.92 0 5.55.43 7.43 2.33.38.38.59.49.62.94-1.52-.22.2-1.74-6.42-1.96l-2.38-.1v-.02z"/><path class="fil2" d="M63.32 42.87c-1.59-.22-4.46-1.49-4.37-2.43.73.26 2.86 2.64 7.5 1.58 1.41-.33 2.01-1.04 2.64-1.08-.37 1.12-3.86 2.21-5.76 1.94v-.02zm1.65-11.23c-2.33-.31-1.63-1.34-3.33-1.6.85-.85 1.36.79 3.45 1.08.7.1 3.09-1.8 3.26-.62-2.08.1-1.74 1.35-3.37 1.13l-.02.02zm6.02-1.56c1.01.15 1.67.08 2.4 1.13.83 1.2.92 2.33-.16 3.4.16-.71.17-1.49.12-2.1-.73-.05-.7.62-1.39 1.94-3.45 6.6-10.48 8.85-14.34.99-1.02-2.1-.97-4.03-1.04-4.24-1.16-.09-.61 1.61-.54 2.48-1.72-1.06.06-4.86 2.46-4.69-.35.67-1.33.57-1.74 1.35.57 1.02 4.36 2.53 5.76 2.71 2.57.35 4.11.56 6.68.03.99-.21 3.07-.68 3.73-1.35-.49-1.16-1.72-1.25-1.98-1.68l.02.02zM54 23.73c.2-.92 1.71-2.21 2.52-2.73 4.63-2.99 6.92 1.3 6.54 3.07-.15.73-1.43-.54-3.28-.78-4.42-.58-4.75.45-5.78.43zm14.41-.24c.17-.87 3.87-5.49 7.83-.33.4.52 1.02 1.28 1.06 1.89-.6.01-3.1-1.75-6.87-.89-2.29.52-2.48 1.46-2.03-.68h.02zm-14.79-4.72c.28-1.27 1.02-2.48 2.34-3.23 3.85-2.17 5.42 2.76 7.95 1.15.64-.4.14-.54.66-.75-.17.82-.14 1.01-.73 1.42-1.23.87-2.74.19-3.82-.45-1.7-1-3.45-1.33-4.91.45-.45.54-1.25 1.79-1.41 2.57l-.21-.03c-.05-.59-.02-.45.14-1.13h-.02zm15.8-.95c1.77.25 3.78-2.32 5.35-2.1 1.63.23 1.67.09 2.78 1.01 1.09.92 1.7 2.86 1.53 3.8-.95-.45-.56-3.2-3.8-3.73-1.96-.33-4.67 3.26-6.84 1.11-.35-.35-.26-.56-.14-1.13.16.13.44.97 1.13 1.02v.02zm-3.96-5.38-6.73-1.49c-1.48-.5-3.3-1.42-5.33.02-2.36 1.69-1.23 4.56-1.04 6.02.51 3.94-2.49 7.35-3.04 9.91-.86 4.04-.65 3.66 1.67 7.64l5.69 10.05c1.54 2.26 4.91 4.25 8.12 3.42 4.02-1.04 6.77-5.47 9.49-8.73l5.62-6.47c3.26-3.67 1.38-5.05.85-9.96-.1-1.67 2.9-7.34.92-10-1.41-1.89-5.21-.02-9.27-.09-3.18-.05-3.22.17-6.94-.33l-.02.02z"/><path class="fil3" d="M10.65 29.59c-.64-.09.47-1.72.68-2.01 1.01-1.53.62-2.27 2.03-1.39.92.58 1.43 1.89.09 2.59l-2.79.82zm-.35-8.68c.2-.86 2.8-1.38 3.51-1.28.83.11.06.78-.57 1.68-1.12 1.59-.98 2.1-2.55.95-.64-.47-.52-.8-.38-1.35zm-2.48-.33c-.24 1.11-.23 1.84.89 2.81 2.31 2.01 2.95.41.28 4.55-1.13 1.81-.36 2.08-3.33 1.21-1.61-.47-.87-.54-2.43-.75-1.2-.16-1.72 2.38 2.36 2.97 1.72.24 1.25.36 1.02 1.46-.21.94 1.51.94 1.98.19.91-1.44-.1-1.15 2.24-1.42 4.63-.54 7.61-3.41 5.19-6.14-1.48-1.74-3.12-1.08-1.84-2.85.5-.68 1.63-2.41 2.03-2.83.97.12 3.17.66 3.89.21.54-.35 1.06-1.2.36-1.75-.8-.66-2.08-.26-2.34-.56-.42-.45 1.77-1.87.23-2.08-.78-.1-1.91 1.44-2.17 1.72-.72.78-7.68.19-8.37 3.28l.02-.02z"/><path class="fil2" d="m29.18 29.88-.23 1.02c-.32 1.5 1.31 3.93 3.78 2.43 2.47-1.5 4.69-3.61 8.77-2.55 5.3 1.38 5.26-2.37 4.2-3.56-2.54-2.84-10.98-4.27-15.07.12-.44.47-1.46 1.82-1.46 2.53z"/><path class="fil1" d="M70.99 30.09c.26.42 1.49.5 1.98 1.68-.66.68-2.74 1.15-3.73 1.35-2.57.52-4.11.31-6.68-.03-1.41-.19-5.19-1.7-5.76-2.71.44-.8 1.38-.68 1.74-1.35-2.38-.18-4.2 3.62-2.46 4.69-.07-.89-.62-2.57.54-2.48.12.34-.01 4.25 3.26 7.36.68.64 1.81 1.61 3.12 1.79 2.28.3 3.7-.38 5.49-1.53 1.99-1.28 2.96-3.53 3.87-5.12.49-.85.3-1.25 1.02-1.2.05.61.03 1.37-.12 2.1 1.64-1.64.27-3.66-.68-4.2L71 30.09z"/><path class="fil3" d="M76.74 47.76c-.77-.1 1.1-2.78 1.39-2.78.17 0 .59.26.69.33 1.6 1.28-.76 2.62-2.08 2.45zm-.43-6.23c.16-.75 1.82-1.25 2.46-1.16 1.16.16-1.06 2.41-1.18 2.4-.69-.09-1.39-.75-1.28-1.23zm-1.7-.4c-.4 1.86.94 2.19 1.86 2.86.61.43-.28 1.35-.85 2.29-.94 1.54-.57 1.98-3.44.85-2.01-.8-1.87.75-1.15 1.25.8.56 1.81.62 2.4.76.82.19.36.38.3.75-.05.24.03.71.28.75 1.39.19 1.01-.54 1.54-1.15.34-.39 3.45-.16 4.95-1.68.94-.97.92-2.38-.07-3.32-1.87-1.75-2.1-.16-.23-3.18.78-1.27.69-.83 2.74-.56 1.04.14 1.81-1.2.75-1.54-2.18-.7-1.42.44-.94-1.67-.94-.54-1.49.75-1.94 1.11-.64.53-5.66.18-6.16 2.46h-.04zM12.37 13.13c-.12-.4.95-2.92 1.7-2.92.56 0 .9.36 1.13.59 1.3 1.46-1.81 2.83-2.81 2.33h-.02zm-.26-6.51c.16-.77 1.75-1.23 2.34-1.23 1.63-.03.49 1.11 0 1.77-.28.38-.36 1.02-1.04.92-.3-.03-1.48-.61-1.3-1.46zm5.35 5.4c-.17-.4-.1-.8-.28-1.2-.26-.62-.26-.42-.07-1.27-.36.28-.01 1-1.87-.57-.75-.62-.24-.85.56-2.12 1.06-1.68.87-1.53 3.16-1.13.85.15 1.26-.27 1.25-.78-.02-.75-.8-.5-1.61-.78-.87-.3-.02-.83.14-1.37l-.31-.26c-1.67.62-.59 1.51-2.71 1.58-2.13.08-6.8 1.17-4.72 3.87 1.8 2.33 2.79-.13.35 4.15-.19.33-.3.68-.5 1.04-3.07-.09-3.91-1.41-4.36-.56-.73 1.34 2.6 1.79 3.26 2 .03.64-.42 1.3.52 1.41.89.09.78-.73 1.11-1.27.16-.18 4.94-.11 5.83-2.78l.28.03h-.02zM18.52 37.92c.51-.89.32-.48.85-.76.19.2 2.81 2-.85 2.71-.78.17-.52.12-1.01-.05l1.01-1.89zm-.97-3.89c.21-.94 2.99-1.46 2.81-.68 0 .02-1.06 1.74-1.49 2.05-1.13-.1-1.48-.64-1.32-1.37zm6.18-3.12c-.12-.23-.62-.62-.92-.75.12.21.12.21.14.5-.8.1-.75.73-1.42 1.08-.69.35-3.31.02-4.89 1.32-2.02 1.65 1.16 3.16 1.32 3.42.38.62-.99 1.84-1.54 3.42-2.69.09-2.36-.76-3.75-.68-.8 1.44 1.02 1.35 2.78 2.05-.12.59-.3.95.24 1.18.82.27.6-.98 1.49-1.27 0 0 5.75-.38 4.57-3.45-.28-.73-1.12-1.31-1.91-1.86l1.6-2.78c1.46-.04 2.36.44 2.86 0 1.27-1.09-1.31-1.29-1.35-1.3-.07-.28.12-.75.33-1.01.28.02.19.02.49.1l-.02.02z"/><path class="fil1" d="M54 23.74c.49-.02 3.86-1.46 7.29-.02.9.38 1.63.89 1.75.36.58-2.59-3.42-6.75-8.12-1.75-.42.45-.8.82-.94 1.41H54z"/><path class="fil2" d="m22.77 20.93-.1.52c.89.1.44-.59 3.56-1.23 2.57-.53 4.57.31 5.31-4.34.09-.54.3-.76-.09-1.16-.76.3-.26 1.08-3.3 2.27-1.53.62-4.9 1.67-5.4 3.94h.02zM38.32 14.38c-2.64-.36-1.42-.56-2.5-.78-.11.56.84 1.72 1.23 2.08.87.8.92 1.2 2.69 1.42 2.18.29 3.14-1.07 5.17-1.21 1.41-.1 1.13.17 1.87-.02-1.23-2.98-7.19-1.33-8.47-1.51v.02z"/><path class="fil1" d="M68.41 23.48c-.64 3-.25-.18 6.32.68 1.28.17 1.79.9 2.59.89-.1-1.18-3.67-6.15-7.19-3.59-.57.42-1.63 1.67-1.7 2.03h-.02z"/><path class="fil2" d="M38.91 12.63c3.15.14 6.1-.22 8.02 1.6.33.31.16.38.78.47-.03-.43-.24-.54-.62-.94-1.87-1.91-4.53-2.33-7.43-2.33-3.98 0-3.84-.99-5.35-1.2.08 1.19 3.13 2.18 4.6 2.38v.02zM22.06 19.07c-.1.47 0 .52-.09.95l.21.03c1.87-3.54 5.42-4.36 7.81-6.35.69-.57 2.01-1.72 1.94-2.71-.59.03-1.16 1.23-2.47 2.03-1.68 1.02-6.71 2.91-7.39 6.06l-.02-.02z"/><path class="fil1" d="M69.41 17.8c-.73-.11-.95-.88-1.13-1.02-.12.57-.21.78.14 1.13 2.51 2.52 5.36-2.71 8.4-.57 1.47 1.04 1.64 2.91 2.24 3.19.17-.95-.43-2.9-1.53-3.8-2.96-2.47-5.4.27-6.6.78-.33.14-1.04.36-1.53.31v-.02zM53.62 18.76c-.16.68-.17.54-.14 1.13l.21.03c.37-1.66 2.38-4.08 3.94-3.87 1.41.19 1.18.16 2.38.85 1.08.62 2.59 1.3 3.82.45.59-.42.56-.61.73-1.42-.54.21-.03.33-.66.75-2.55 1.63-4.1-3.32-7.95-1.15-1.32.75-2.07 1.96-2.34 3.23h.02z"/><path class="fil3" d="M78.16 52.76c.56.1.92.36.83.87-.16.85-2.17 1.23-1.51.14l.68-1.01zm.4-2.36c.5-.02.1 1.79-.99 1.27-.82-.39-.35-1.22.99-1.27zm-.28-.8-.56.21c.09.03.26.03.36.12-1.65.8-1.35.59-1.56 1.54l1.13.94c-.68 3.17-2.13 1.4-3.16 1.77.12.45.45.47.97.64.78.26.56.36.83.83.52-.54.61-.62 1.09-.69 1.11-.17 2.71-.73 2.26-1.86-.31-.75-1.46-.68-.8-1.81.7-1.15.69-.78 2.27-.9l-.99-1.11c-.31.31-.33.75-1.89.54l.05-.28-.02.05z"/><path class="fil1" d="M11.66 28.72c-.16-.35.69-1.65.95-2.05 1.99.31.34 2.27-.97 2.03l.02.02zm-1.01.87c.22.03 4.12-.46 3.49-2.41-.14-.43-.3-.66-.8-.99-1.41-.89-1.02-.14-2.03 1.39-.17.26-1.36 2.01-.66 2.01zM12.06 21.81c-.35.42-.83.1-1.06-.26-.48-.76 3.23-2.45 1.08.24l-.02.02zm-1.75-.9c-.12.57-.26.9.38 1.35 1.41 1.01 1.31 1 3.14-1.77.91-1.37-.58-.93-2.01-.56-.54.14-1.39.45-1.51.97zM63.32 42.87c1.94.27 5.42-.86 5.76-1.94-.62.05-1.23.76-2.64 1.08-4.62 1.08-6.77-1.32-7.5-1.58-.09.89 2.72 2.22 4.37 2.43v.02z"/><path class="fil2" d="M31.97 23.65c.8.09.71-.36 1.6-.23 1.44.23 2.69 1.08 4.25-.24 1.84-1.59 1.18-.63 1.87-1.21-1.18-.76-2.26 1.2-3.65 1.23-.99.03-3.33-.82-4.06.45h-.02zM40.96 20.22l1.54 1.32c2.15 1.78 3.3 4.12 3.94 4.34.27-1.47-4.34-6.25-5.48-5.66z"/><path class="fil1" d="M77.76 46.83c.02-.47.17-.92.76-.8.31.62-.38.85-.76.8zm-1.02.95c1.32.17 3.68-1.15 2.08-2.45-1.03-.85-1.22.18-1.87 1.3-.33.56-.75 1.08-.21 1.15z"/><path class="fil2" d="M28.43 25.65c-.14.68-1.16 4.04-.28 4.37.28-1.3.54-2.64.85-3.94.27-1.15 1.49-2.83 1.15-3.28-.12.24-1.53 1.89-1.74 2.85h.02z"/><path class="fil1" d="M77.08 41.57c.03-.19.49-.33.82-.3-.03.42-.23.56-.56.69-.16-.1-.3-.16-.24-.38l-.02-.02zm-.78-.02c-.1.49.59 1.15 1.28 1.23.14.02 2.32-2.24 1.18-2.4-.61-.08-2.3.39-2.46 1.16zM64.97 31.65c1.63.23 1.28-1.02 3.37-1.13-.12-1.19-2.56.72-3.26.62-2.11-.29-2.61-1.96-3.45-1.08 1.7.26.99 1.28 3.33 1.6l.02-.02z"/><path class="fil2" d="M71.67 50.61c-.47 2.13-1.48 5.38-2.62 7.27-.8 1.3-1.3 1.56-1.48 1.86-.67-.12-.66-.56-.66-1.58.02-5.13 2.1-6.28-.45-6.67-.45-.07-.3.3-.8.38-.73.13-.96-.59-5.1 1.08-.64.26-1.27.43-1.81.75.05.68.21.43.38.85.07.19-.64 1.98-.71 2.07-.43.56-.69.26-.82.89-.07.35.4.23.35 1.01-.2 3.03 4.09 3.18 6.13.9.4-.45.4-.73.54-1.41-1.38-.45-3.01 1.8-4.6 1.67-1.19-2.08 2.24-2.61 3.33-3.51-1.64-1.21-3.21.85-2.1-1.3.44-.86-.31-.71 2.73-1.75.38-.14 1.02-.45 1.37-.49.33.79-1.76 6.64 1.06 8.21 2.52 1.41 4.04-2.49 4.77-2.76.12.33.17 1.61 1.41 1.77.87.12.35-.87.33-1.39l.28-5.19c.03-.5.17-.92.19-1.39.07-1.86-1.62-1.41-1.72-1.27zM35.1 43.72c-.13-.37 1-2.33-1.2-2.19-.46 2.1-2.99 6.96-4.25 8.33-.45.49-.28.75-1.15.64-.41-5.23 3.35-8.66-.17-7.62-1 .29-1.31 1.16-1.56 2.27-1.11 4.99 1.31 7.96 3.3 6.53 2.8-2.01 4.55-7.49 5.1-7.71.07.99.8-.12-.38 2.34-.69 1.48-.87.36-1.11 1.51-.09.43.31-.1.12.99-.24 1.48 1.2 3.33 4.1 1.72 1.53-.85 2.27-1.15 2.45-2.69-.78-.1-1.34.42-2.41 1.02-2.76 1.54-2.36.99-2.07-.38.26-1.22 2.98-1.47 3.54-2.43-.99-.75-2.38.21-2.27-.31.38-1.9 1.76-2.22 4.2-3.16.83-.32 1.17-.8.02-.95-1.61-.23-5.4 2.12-6.23 2.07l-.02.02zM50.23 45.12c.02-.03.03-.03.05-.05l-.02 2.12c-.02.07-.71.49-1.32.43l1.28-2.5zm-3.33 2.22c-.21-.16-.23-.28-.35-.49-1.5.34-2.65 2.32-3.96 2.38-.21-2.71 2.03-5.8 2.47-7.78.12-.54-1.44-1.49-1.98-.09-.64 1.76-2.46 5.08-2.45 7.29 0 .81 1.4 2.43 3.11 1.61 1.32-.63 1.91-1.66 2.71-1.86l-.71 1.01c-.45.71-.28 1.46.68.97.38-.19.09-.1.56-.24.66-.19 2.29-1.52 3.33-1.56.41.71.32 2.64 2.46 2.53.26-1.24-1.72-3.23.3-3.4.07-.71-.38-.36-.8-.76-.41-.39.42-4.7.76-5.66.26-.73.59-1.25-.49-1.41-1.16-.15-2.2 1.85-3.12 3.3l-2.52 4.15zM44.47 52.92c-.51 1.69-2.44 8.64.17 9.01.73.1.45-.3.38-.82l.42-3.92c.05-.24.07-.16.28-.23-.12 1.24 1.97 5.11 4.13 4.39.3-.73.31-1.42.33-2.08.07-2.5.8-4.58.94-6.16.05-.66-1.15-1.58-1.82.28-.87 2.43-.52 3.4-.87 4.98l-.21-.03-.71-3.89c.02-.76.23-2.01-.54-2.48-.75-.47-1.23.07-1.37.17-.61.5-.76-.02-1.11.78h-.02zM34.42 60.17l2.15-4.6c.31-.87 1.34-3.26-.69-3.54-.53-.07-.37.76-.45 1.08-.35 1.32-1.79 4.57-2.57 5.95-3.06 5.52-1.7-3.23-1.48-4.3.17-.8.61-1.6-.4-1.74-1.08-.14-1.96.35-2.12 1.04-1.34 6.15 2.7 11.3 5.54 6.11h.02z"/><path class="fil2" d="M23.6 49.48c-.03.13-1.84 1.3-1.02-.19.23-.43.62-1.51 1.02-1.84.03.54.14 1.44 0 2.03zm-4.76 2.97c-.37 1.71 3.9-1.57 4.67-1.49.57.06.21 2.3 2.22 2.59.1.02.38-.16.49-.19.03-.36-.73-1.96-.64-2.78.05-.49.42-.26.8-.56-.04-.39-.3-.56-.95-.75.23-1.02.07-1.84.31-2.95l.83-3.63c-.14-.66-1.18-.59-1.7-.12-.87.78-4.29 6.35-5 8.23-.2.52-1.02.95-1.02 1.65zM9.94 50.37c-.05.28-1.6.97-1.15-.1.33-.76.42-1.44.85-1.61l.3 1.72zM5.58 52.5c-.09.36-.03.43.4.76l2.12-.83c.21-.17 1.87-.85 2.13-.8.52.07.52 1.23 1.72 1.89.28.15 2.41.95 1.27-.42-.12-.14-.28-.38-.36-.56-1.09-1.96-.45-1.08.23-1.79-1.09-.83-1.09.11-1.27-1.25-.59-4.57.65-5.12-.97-5.33-1.74-.22-4.19 6.14-4.56 7.22l-.69 1.09zM14.16 45.3c-.12.55.25 1.37 1.81.64.61-.3.43-.33 1.01-.26-.53 2.18-.71 1.78-2.55 2.46-.82.33-.19 1.08.03 1.21.42.26.62.07 1.15.1.28.71-1.2 3.98-.21 4.11 1.2.16 1.22-1.16 2.12-4.03.31-1.01.35-1.13 2.45-1.74 2.01-.57.57-1.37-.89-1.08-1.09.21-.38-.4-.33-.97.07-.82-.65-1.44 4.43-1.81.16-.3.28-.35.07-.71-.92-1.58-5.76.54-7.27 1.06-.71.24-1.65.47-1.77.99h-.03zM38.32 59.13c.16-.77 1.51-1.25 2.59-1.68.4-.16 1.23-.57.35-.87-1.16-.42-2.4.73-1.82-.64.59-1.37.36-1.08 2.41-1.89 1.91-.76 2.13-.52 2.08-1.28-1.88-.63-3.91.61-5.52 1.15-.54.19-.94.33-1.32.64.03.36.43.52.45.89l-.82 2.01c-.24.28-.66.33-.73.66-.1.49.4.38.33 1.09-.21 2.05 2.16 3.63 5.19 1.67 1.7-1.11 1.81-2.2.97-2.2-.5 0-3.01 1.85-3.98 1.7-.41-.06-.3-.6-.17-1.27l-.02.03zM51.17 56.37c-.23 1.04-.57 2.43-.03 3.49 2.08 4.12 6.3-.04 6.44-.68.12-.54-.69-1.48-1.72-.43-5.48 5.64-2.53-5.17.02-6.04.45.35.43 1.2.95 1.27.66.09 1.28-1.95-.56-2.55-2.27-.73-4.74 3.4-5.09 4.96l-.02-.02z"/><path class="fil1" d="M23.6 49.48c.12-.59.03-1.48 0-2.03-.4.33-.8 1.41-1.02 1.84-.78 1.53 1 .28 1.02.19zM9.94 50.37l-.3-1.7c-.43.17-.52.85-.85 1.61-.46 1.09 1.15.35 1.15.09zM48.95 47.62c1.72.1 1.32-.91 1.34-2.55l-1.34 2.55z"/></g></svg>