<svg xmlns="http://www.w3.org/2000/svg" xml:space="preserve" width="96" height="72" style="shape-rendering:geometricPrecision;text-rendering:geometricPrecision;image-rendering:optimizeQuality;fill-rule:evenodd;clip-rule:evenodd" viewBox="0 0 49.67 37.25"><path d="M49.67 33.66c0 .39-.2.74-.51.94.22.28.35.62.35 1 0 .91-.76 1.65-1.69 1.65H1.69C.76 37.25 0 36.51 0 35.6c0-.62.35-1.15.86-1.44-.18-.37-.28-.78-.27-1.21.03-1.48 1.28-2.67 2.8-2.64l3.31.06c-.41-.45-.82-.91-1.21-1.37-.64-.75-1.36-1.65-1.66-2.6-.37-1.18.15-2.24.66-3.29.46-.94.96-1.87 1.47-2.78.52-.93 1.05-1.86 1.62-2.76.58-.9 1.23-1.93 2.35-2.21.66-.16 1.32-.18 1.94-.01.18-1.94 1.74-3.59 3.81-3.59 1.46 0 2.66.82 3.31 1.98-.05-.69-.07-1.34.03-1.65.23-.68.63-1.25 1.35-1.5.67-.23 1.17-.06 1.72.02-.1-.05-.2-.11-.3-.18-.6-.42-.93-1.04-1.08-1.74a4.76 4.76 0 0 1 .04-2.22c.22-.85.71-1.61 1.6-1.89.34-.11.69-.15 1.02-.11.12-.16.28-.3.46-.41.21-.14.45-.24.7-.32.34-.11.69-.11 1.02-.02.18-.21.43-.37.74-.43.15-.03.36-.08.53-.1.33-.04.66-.02.97.1.33.12.62.29.87.49.13-.58.35-1.19.93-1.37.72-.23 1.35.21 1.63.85.01.02.02.04.02.06.1.27.19.53.29.79.2.54.41 1.08.63 1.61.02.04.05.09.07.13-.02-.12-.05-.24-.07-.37-.05-.25-.09-.51-.15-.76-.06-.29-.13-.57-.19-.86-.07-.29-.13-.59-.2-.89-.06-.3-.03-.6.07-.88.14-.39.43-.7.84-.83.34-.11.66-.03.99.07.08.03.17.06.25.08.08.01.16.03.23.05A1.264 1.264 0 0 1 35.05.43c.06-.03.11-.07.17-.1.17-.09.35-.17.53-.23.42-.13.87-.2 1.3-.1.55.12.92.54 1.04 1.07.06.26.04.53-.04.79-.02.07-.05.13-.08.19.17.19.28.42.34.68.09.4.02.79-.18 1.1.25.16.42.4.52.66.56-.28 1.25-.53 1.83-.7.72-.21 1.62-.37 2.37-.16.05-.19.13-.37.23-.54.24-.41.6-.73 1.08-.86.58-.16 1.17.01 1.57.45.32.35.46.79.46 1.25v6.49c0 .39-.1.77-.28 1.12-.01.01-.02.03-.02.04.19.32.3.68.3 1.06v.06c.73-.18 1.49-.26 2.23-.3.33-.02.62.09.86.31s.36.5.36.82V33.6z" style="fill:#201e1e"/><path d="M48.51 14.92c-1.11.04-2.15.16-2.76.47l.02 5.74c.67.01 1.64.02 2.73.03v7.02H38.15c-.07-1.08-.1-2.2-.13-3.28-.01-.4-.06-1.98.03-2.31.08-.26.14-.34.26-.57.05-.11.08-.23-.07-.27-.28-.08-.52.73-.54.95-.05.55-.03 1.25-.01 1.8.02 1.22.08 2.44.13 3.66l-1.84.03.51.87h1.41v.55c.02.63.05 1.83.32 2.21.35.49 1.06.47 1.64.47l8.65.02v1.34l-11.49.04c-.16-4.89-3.53-7.33-6.92-6.98-1.28.13-2.21.91-2.9 1.22h-8.04v-.63c.34-.01 1.06 0 1.25-.34.18-.34.22-1.72.14-2.11-.11-.48-.49-.55-.94-.55-.14 0-.28.01-.42.01.24-.81.71-.91 1.47-1.16 2.57-.86 15.54-3 16.15-3.53 2.96-1.6 6.03-4.05 8.4-5.28.9-.47 2.05-.68 3.32-.75v1.33zm-25.1-5.14c-.35.11-.69.06-1-.16-.33-.24-.56-.61-.67-1.11-.13-.6-.12-1.18.03-1.75.17-.64.47-1.03.9-1.17.42-.13.76-.09 1.03.13s.46.6.59 1.17c.13.6.13 1.17 0 1.73-.15.64-.44 1.03-.88 1.17zm-.58-3.48c-.27.08-.45.34-.56.78-.1.41-.11.83-.01 1.26.06.29.19.5.38.64.19.13.39.16.62.09.26-.08.44-.34.54-.78.09-.4.08-.82-.01-1.26-.08-.37-.19-.61-.33-.72-.14-.1-.34-.11-.62-.03zm3.46 2.29c-.25.24-.58.43-1.01.56-.07.02-.15 0-.22-.07a.497.497 0 0 1-.15-.25l-.6-2.78c-.03-.12-.06-.24-.09-.35-.03-.13-.05-.25-.06-.34-.02-.17.06-.3.25-.4.08-.07.23-.13.44-.2.23-.07.47-.03.72.12.3.17.49.45.57.82.04.2.05.38.03.53-.02.12-.06.27-.13.42.13.05.26.14.39.28.14.15.23.32.27.51.05.23.01.48-.12.74-.09.17-.19.32-.3.43zm-1.28-3.13c-.15.05-.25.08-.28.09l.12.56.12.55c.11-.02.2-.03.25-.06.36-.16.5-.41.42-.76a.513.513 0 0 0-.24-.31c-.14-.09-.27-.11-.39-.07zm.61 1.79c-.11.03-.27.08-.49.14l.21.98c.2-.08.41-.21.63-.38.19-.15.28-.28.25-.38-.03-.13-.13-.23-.28-.3a.666.666 0 0 0-.32-.06zm3.28.67c-.07.02-.13 0-.2-.05-.47-.38-.94-.6-1.42-.66.12.51.19.79.2.84.02.1.02.19-.02.28-.03.08-.08.14-.15.16-.07.02-.14.01-.2-.05a.465.465 0 0 1-.13-.23c-.03-.13-.07-.33-.12-.59-.05-.26-.1-.46-.12-.59l-.45-2.12a.915.915 0 0 1 0-.33c.04-.14.11-.22.22-.24.3-.06.45-.09.46-.09.17-.02.33-.01.47.04.59.22.95.6 1.07 1.16.05.23.04.45-.03.66-.07.21-.2.41-.39.6.37.16.67.35.89.57.06.06.09.13.11.21.02.1.01.19-.02.28-.04.09-.09.14-.16.16zm-1.86-2.94c-.01 0-.08.02-.21.05l.3 1.39a.31.31 0 0 1 .08-.02c.29-.09.5-.21.62-.37.05-.06.09-.14.13-.23.03-.09.05-.16.04-.19-.04-.2-.17-.36-.38-.49-.2-.12-.39-.17-.57-.14zm4.28 2.24c-.1.02-.23-.11-.39-.4-.11-.19-.21-.41-.32-.66-.08.05-.23.11-.42.2-.19.08-.33.15-.42.21-.01.21-.05.53-.1.96-.03.14-.08.23-.18.26-.07.02-.13.01-.2-.04s-.11-.12-.13-.23c-.02-.09 0-.42.07-.99a.298.298 0 0 1-.05-.15c-.01-.09.03-.17.13-.25.08-.48.17-.99.28-1.52.16-.76.27-1.15.34-1.17.13-.04.24.05.34.27.06.18.16.45.3.81.18.48.4 1.03.64 1.65.02.05.07.15.17.32.08.14.12.24.14.32.02.1.01.19-.02.28-.04.08-.09.14-.16.15zm-1.25-2.49c-.04.26-.1.62-.18 1.08.05-.03.13-.07.24-.12.13-.05.21-.09.25-.11-.08-.22-.18-.5-.31-.85zm3.61 1.69c-.07.02-.14 0-.2-.05a.465.465 0 0 1-.13-.23c-.04-.18-.09-.44-.15-.79-.06-.35-.12-.62-.15-.79-.04-.19-.11-.49-.2-.87-.09-.39-.15-.68-.2-.87-.02-.1-.01-.2.03-.32s.1-.18.17-.21c.04-.01.15.01.33.07.21.07.34.11.38.11.39.06.74.22 1.07.49.39.32.63.73.74 1.24.07.3.08.61.03.91-.04.31-.13.58-.27.8-.16.25-.42.43-.78.55-.09.03-.19.04-.31.04-.15 0-.27-.03-.36-.08zm.43-3.02c-.14-.07-.42-.16-.86-.27l.56 2.6c.06.03.12.05.18.05.07 0 .14-.01.21-.03.26-.08.43-.19.52-.33.09-.13.14-.3.17-.49s.02-.38-.02-.57c-.09-.43-.35-.76-.76-.96zm2.81-1.63c-.02.01-.05.01-.08.01-.21-.02-.41.01-.59.06-.09.03-.18.07-.28.12-.1.05-.2.12-.31.2.05.23.12.58.21 1.05.07-.03.29-.13.68-.32.22-.11.36-.17.42-.19a.21.21 0 0 1 .2.04c.06.05.11.13.13.24.04.21-.01.35-.15.43-.09.04-.23.1-.42.19-.16.08-.41.19-.75.34.04.22.08.4.1.54.07.34.13.53.17.57.02.02.1.01.23-.04.07-.02.19-.06.33-.11.15-.05.26-.09.33-.11.02-.01.06-.02.1-.05l.1-.05c.07-.02.14-.01.2.03.07.05.12.13.14.25.04.2 0 .34-.13.42-.11.07-.36.17-.74.28-.39.12-.66.13-.81.01-.17-.13-.31-.48-.43-1.04-.05-.23-.11-.59-.19-1.07-.08-.48-.14-.83-.19-1.07-.01-.06-.04-.15-.08-.27-.04-.12-.06-.21-.08-.27-.06-.27 0-.43.17-.48.05-.02.11-.01.16.02.13-.09.25-.17.37-.24.12-.06.23-.11.35-.15.3-.09.55-.12.76-.08.12.03.2.12.24.28.02.09.02.18-.01.26-.03.09-.08.15-.16.18zM1.68 35.08h26.73c-.42-.29-.78-.63-1.06-1.01-.81-1.11-1.87-3.21-.7-4.35.07 2.98 1.46 4.78 3.17 5.36h2.58c.68-.22 1.33-.62 1.91-1.2 1.17-1.17 1.2-2.88 1.46-3.41.56 1.2.35 1.66-.23 2.76-.38.72-.95 1.36-1.63 1.85H47.8c.29 0 .53.23.53.52 0 .29-.24.52-.53.52H1.67c-.29 0-.53-.23-.53-.52 0-.29.24-.52.53-.52zm42.83-21.32c-.16.09-.32.05-.46-.14a.967.967 0 0 1-.19-.59c0-.22.05-.43.16-.64.11-.21.24-.35.38-.43.16-.08.32-.03.46.16.13.17.19.36.19.57 0 .21-.06.42-.17.62-.11.21-.24.36-.38.44zm-22.45 6.12c.12.07.25.12.4.13.14.01.3-.01.47-.05 1.47-.44 1.79-1.43 2.01-2.86.29-1.93-.13-3.2-2.24-3.47-.38-.05-.77-.08-1.16-.11.19 1.94.22 3.78.45 5.76l.07.61zm-.48 1.59a.38.38 0 0 1-.42-.13.94.94 0 0 1-.21-.55l-.18-1.87c-.11-1.07-.81-5.98-.64-6.47.45-1.35 1.36-.63 2.52-.65 4.32-.06 4 4.58 2.95 7.43-.18.49-.36.81-.66 1.23-.44.57-1.08.95-1.9 1.17-.2.05-.44.08-.7.06-.32-.02-.57-.09-.76-.22zm9.09-11.01c-.06.02-.12.02-.18.02-.47-.04-.93.02-1.37.17-.22.07-.45.17-.69.31-.24.13-.5.3-.78.49.03.58.07 1.44.12 2.58.16-.06.7-.3 1.65-.73.54-.24.87-.39 1.02-.44.17-.05.31 0 .44.13s.2.34.21.62c.03.54-.13.91-.49 1.06-.22.1-.56.22-1 .41-.4.17-.99.42-1.79.74.02.55.04.99.06 1.33.05.84.11 1.32.18 1.42.03.05.21.04.53-.04.17-.04.43-.1.77-.2.35-.09.6-.16.78-.2.06-.01.14-.05.24-.1.11-.05.19-.08.24-.1.16-.04.3.01.42.13.13.14.21.36.21.67.01.51-.16.86-.48 1.02-.28.14-.85.29-1.72.47-.9.18-1.48.11-1.76-.21-.31-.36-.5-1.22-.58-2.59-.04-.57-.08-1.42-.11-2.58-.03-1.15-.06-2.01-.1-2.58-.01-.15-.03-.37-.07-.65-.04-.28-.07-.5-.07-.65-.02-.65.19-1.06.59-1.19.12-.04.24-.03.35.04.33-.24.65-.45.95-.62.3-.17.59-.3.85-.4.72-.26 1.3-.34 1.73-.24.26.06.4.31.4.73 0 .24-.04.47-.14.69-.11.25-.25.4-.43.46zm1.35 6.33c-.19-.77-.33-1.73-.4-2.88-.01-.22-.03-.55-.05-.99-.02-.44-.03-.77-.04-1-.01-.18-.02-.44-.04-.79-.02-.35-.03-.61-.04-.79-.02-.36 0-.72.06-1.07.06-.35.17-.85.63-.85.47.01.55.55.57.9 0 .1 0 .21.01.31l.03.72c.02.53.04.93.06 1.2.01.22.03.56.04 1 .01.45.03.78.04 1 .04.71.12 1.35.24 1.94.07.35.26 1.4.66 1.49.38.09.71-.38.84-.67.36-.82.47-2.22.51-3.13.03-.6.04-1.3.04-2.12-.01-.81-.03-1.74-.06-2.77-.01-.47.13-1.68.83-1.6.53.06.47.87.47 1.24.02.69.03 1.39.04 2.08.01.75 0 1.4-.02 1.95-.03.86-.11 1.67-.21 2.42-.1.75-.24 1.46-.4 2.11-.22.81-.61 2.23-1.56 2.45-.49.12-1.09.04-1.43-.35-.38-.43-.64-1.21-.78-1.76l-.01-.05zm8.32-.94c-.68.43-1.22.5-1.62.2-1.02-.87-.42-3.44.34-2.57.42.48.53 1.1 1.5.42.78-.54 2.31-2.5 1.5-3.44-1.12-.85-4.21 1.4-5.22-.54-.74-1.43.92-3.59 2.22-4.3.72-.39 4.29-1.86 3.99.06-.23 1.5-3.46-.03-4.81 2.31-.72 1.25 1.39.71 2.01.6.27-.05.52-.1.79-.14 1.95-.19 2.62.69 2.53 2.52-.06 1.13-.52 2.01-1.17 2.92-.61.81-1.29 1.48-2.06 1.96zm4.19-4.36c-.15.08-.28.07-.38-.03-.1-.1-.15-.26-.15-.48 0-.16 0-.41-.01-.73s-.01-.57-.02-.73c0-.58-.01-1.45-.01-2.61s0-2.03-.01-2.61c0-.22.05-.43.16-.6.11-.18.24-.3.39-.34.16-.04.29 0 .39.11.11.12.16.28.16.5v6.49c0 .21-.05.42-.15.61-.1.19-.23.33-.38.4zm-30.89 8.67c.06.59.11 1.18.17 1.77 1.29-.67 2.59-1.35 3.88-2.02.77-.4 1.74-.11 2.15.64.41.76.12 1.7-.66 2.11-2 1.04-3.99 2.08-5.99 3.11-.48.25-1.02.25-1.5 0a1.51 1.51 0 0 1-.83-1.22c-.03-.34-.07-.68-.1-1.02-.55.92-1.1 1.83-1.65 2.75l5.45 5.87c.44.47.54 1.11.27 1.69-.27.58-.83.93-1.48.91L3.3 34.57c-.88-.02-1.58-.73-1.56-1.59.02-.86.75-1.54 1.62-1.53l5.99.11c-1.15-1.23-2.24-2.4-2.98-3.27-.9-1.07-1.28-1.68-1.45-2.21-.17-.53-.12-.98.6-2.47.73-1.5 2.14-4.04 3.03-5.42.88-1.38 1.24-1.61 1.65-1.71 2.54-.62 3.25 1.92 3.42 3.69zm2.04-7.26c1.47 0 2.67 1.27 2.67 2.83s-1.19 2.83-2.67 2.83c-1.47 0-2.67-1.27-2.67-2.83s1.19-2.83 2.67-2.83zm23.24 8.26c.02-.14.02-.61.1-.72.03-.04.86-.68.95-.75 1.44-1.11 2.93-2.23 4.41-3.29.15-.11.57-.42.72-.49l.02 5.2-6.19.04zm9.59 10.82s-8.83.05-9.44-.04c-.23-.04-.44-.1-.58-.29-.23-.32-.29-1.98-.26-2.56h10.29v2.89zm-29.38-4.99c-.04-.02-.07-.04-.1-.05-.24-.25-.15-1.75-.1-2.17.37-.11.7-.15 1.08-.05.35.1.26.52.25.81-.01.23 0 1.27-.2 1.37-.14.07-.74.1-.93.1zm11.98 1.32c.91-.06 1.52.64 1.57 1.5.05.86-.34 1.69-1.28 1.83-.93.14-1.63-.52-1.69-1.42-.05-.92.38-1.81 1.41-1.9zm.4 4.73c-.23.19-.33.49-.2.77.26.56 1.22.21 1.01-.47-.1-.33-.53-.5-.8-.3zm-1.78.58c.27-.08.32-.43.31-.66-.04-.98-1.32-.45-.96.33.11.25.38.38.65.34zm3.57-1.17c.14.22.39.4.64.22.39-.27.41-1.36-.42-1.1-.44.14-.41.54-.22.88zm-5.05-.94c.54-.15.67-1.34-.21-1.2-.35.05-.37.42-.31.7.05.26.21.55.53.51zm3.44-3.72c-1.34-.45-2.38.67-2.5 1.91-.08.85.2 1.71.9 2.26.13.1.26.17.42.23 2.54.95 3.93-3.44 1.18-4.4zm2.62.85.04.13c-.46.04-.39.06-.63.33-.15 1.19.97 1.28.98.07l.23-.03c.93 1.65-.14 3.87-1.59 4.89-.84.6-1.8.84-2.82.67-2.3-.45-3.46-2.6-3.41-4.75v-.05c.05-1.17.24-1.43.95-1.78.17.35.3.92.83.6.42-.25.19-.76.15-1.14 1.27-.64 3.65-.54 5.27 1.06zm-8.9 3.25-.05 1.38-4.22.05c-.32-.41-.46-.76-.79-1.09-.9-.92-2.13-1.47-1.72-3.84h8.12c-.15.34-.58.88-.82 1.4-.27.59-.44 1.36-.53 2.11z" style="fill:#fefefe"/></svg>