<svg xmlns="http://www.w3.org/2000/svg" xml:space="preserve" width="127.974" height="64.038" style="shape-rendering:geometricPrecision;text-rendering:geometricPrecision;image-rendering:optimizeQuality;fill-rule:evenodd;clip-rule:evenodd" viewBox="0 0 272.1 136.16"><defs><style>.fil2{fill:#fefe00}.fil1{fill:#fff}</style></defs><g id="Camada_x0020_1"><path d="M199.39 7.99c-.05.6-.03.49-.27.89h-1.08v-.89c-7.44 0-41.04-.91-47.93.3-3.09.54-10.24-2.11-16.98.08-3.36 1.11-3.71 1.16-5.55.24-3.09-1.54-9.07-1.06-13.89-1.06l-22.72.05c-1.84.22-5.28.38-7.39.38-.05.6-.03.49-.27.89h-.81c-.24-.41-.22-.27-.27-.89l-8.4-.22c-6.39-.16-4.82.68-7.88.68-.22-.35-.27.41 0-.68-6.61-.46-18.06-.51-23.86.46-7.75 1.27-7.85 6.31-8.15 11.26-.05 1-.27 1.19-.27 2.44h-.27c0-1.22-1.98-8.56-2.46-10.59-.65-2.65.81-3.79-4.85-3.79-13.89 0-13.53.56-15.73 7.53L.02 47.59h29.57c-.3 2.87-.81 5.77-.81 8.85h5.69c0 8.48-1.62 13.16-1.62 20.12-14.6 0-8.66-.77-25.24 1.33l-4.33 36.26c.14.76.79.89 1.33 1.57-1.3.51-4.47.62-3.76 2.82.43 1.3 2.87 1.84 5.09 1.84 68.78-.05 137.78.22 206.48 0 7.72-.03 5.88 2.65 10.59 3.55l-8.39 12.19c3.71-.27 15.11-5.64 17.9-6.85 2.16 1.19 9.52 6.34 11.94 6.88v-3.09c1 .41 1.06.08 2.11.7.7.41 1.08.87 1.95 1.06 0-4.6-.81-8.69-.81-11.94 2.46-1.06 15.16-6.72 16-7.75-5.74 0-10.72-.43-16.55-.43l3.25-.68 4.06-37.4h-8.42c1.12-3.93 4.55-17.65.05-20.42-.97-.6-1.84-.6-2.22-1.73h2.71l2.71-6.88c10.56 0 6.91.84 16.3-1.52 8.71-2.18 4.88-13.38 6.17-24.62 1.6-13.81-2.1-13.92-13.27-13.92-5.42 0-6.5-.54-10.86 1.33-1.06-1.64-5.69-8.47-7.85-8.64-.11 1.16-.54 1.41-.54 2.87-6.33 0-5.39-2.31-9.48-3.11-.11.95-.57 1.54-.81 2.44-1.06-.46-1.76-1-3.25-1.11l-2.44 6.17h-18.2c-2.06.03-3.55.46-5.69.46l.03.03z" style="fill:#000"/><path class="fil1" d="M114.25 36.97c-3.2 0-1.62-2.48-1.35-10.86.33-10.39-.41-8.83 6.23-8.83 2.36 0 .71 9.23.54 11.08-.8 8.58 1.74 8.61-5.44 8.61h.03zm2.17-25.89h-8.69c-.03 1.16-.27.84-.54 1.76-.65-.35-.54.16-.54-1.76h-5.69c-3.02 27.84 3.22 25.86-8.15 25.86l.03-13.27c.41-4.06.81-8.58.81-12.62h-5.69c0 1.79-.46 2.33-.54 3.76l-.3 16.55c-.38 3.08-1.25 9.41-.51 11.97l34.45.03c6.46-.12 4.18-4.34 4.6-10.86l.81-19.23-1.52-2.09c-.89-.32-7.26-.14-8.53-.14v.02zM216.53 70.6c-8.54 1.62-6.46-.86-5.47-6.69 2.06-12.12-1.3-12.57 6.58-12.57 2.64 0 .92 3.04.84 3.55-.3 1.98.19 3.6-.43 5.39-.84 2.44-.08 4.17-.81 6.42l-.7 3.9zm-13.3 3.55c0 1.62 1.24 3.55 2.98 3.55 14.53 0 15.88 1.37 16.55-6.63l1.62-9.75 2.11 2.49c2.25 1.57 9.56-.3 10.94.81.14.11.16 4.57-1.35 6.42h-10.05l-2.71 6.63 17.06-.7c2.98-1.24 2.52-8.45 3.28-12.35 1.95-7.45-2.14-6.61-5.39-6.61-7.47 0-6.8.32-6.09-2.3 1.16-4.39-1.97-4.23 6.91-4.31 1.65-.03 2.63-.22 4.6-.22l2.17-6.2h-13.84c-4.63 0-2.8.82-5.98 3.55-1.11-1.87.51-3.55-4.33-3.55-8.13 0-14.66-1.52-15.19 4.41-.22 2.49.41 1.06-.43 4.31-.43 1.68-.32 2.46-.38 4.33-.05 1.6-.76 2.52-.84 3.98-.08 1.54.11 3.17-.27 4.41-.99 3.16-.46 4.43-.7 5.88-.16 1.03-.65.97-.65 1.87v-.03zM37.48 50.7c0 3.2 5.96-.24 5.96 2.22 0 6.51-.7 4.23-.79 9.75-.03 2.09-.76 4.41-.81 5.09-.14 1.41.03 3.06-.3 5.5-.24 1.76-.51.65-.51 4.01 6.59 0 5.16 1.43 5.98-6.2l1.6-13.3c1.08-6.31-1.14-5.74 7.07-5.74 2 0 .6 2.44.54 3.55l-1.68 15.9c-.14 1.03-.22 1.79-.22 3.14 0 3.44-3.6 2.65 14.92 2.65 2.35 0 1.14-1.38 3.09-4.79 1.93-3.38-8.04-.05-12.05-1.62 0-1.81.54-3.6.54-5.52l10.83-.65c0-6.93 3.87-5.77-5.96-5.74-4.5 0-4.06.46-4.06-3.09 0-.73.22-.14.51-1.14.75-2.62-.65-2.26 4.12-2.19 2.63 0 4.2-.22 6.77-.22 3.14-7.6 3.67-6-3.25-5.98l-31.47-.22c0 1.9-.81 2.68-.81 4.66l-.03-.05zM74.09 77.23c7.92 0 3.93-.66 5.47-7.5 1.18-5.25-.06-4.84 1.08-8.61.24-.79.03-3.28.89-6.8.62-2.49-.7-2.33 5.55-2.33 2.49 0 .38 7.55.3 8.42-.19 1.92-.03 3.47-.3 5.28l-.51 5.12c-.11 2.84-.81 3.14-.81 6.42 4.5 0 6.29 1.72 6.26-5.96l1.03-9.99c1.94-10.17-.8-9.23 6.85-9.23 2.44 0 .24 6.28.27 9.07l-1.68 14.59c-.16 1.35-1.19 2 4.58 1.52 1.49-.14.38-.32 1.22-4.12l2.41-21.93c.11-.54 1.57-5.09-.27-5.09l-29.35.41-3.03 23.4c-.38 1.38.05 3.55-.35 5.47-.22 1.06-.68 1.92.46 1.92l-.05-.05zM12.24 108.89c0 .76.24.49.22 1.06 0 .22-.27.19-.14 1.08 2.9-.23 5.1.08 5.28-1.06l.87-9.04 1.62-12.59c.03-2.98.68-2.44 5.71-2.44.73 0 .76.11 1.35.22l-1.3 10.67c-.32 1.9-.22 3.44-.32 5.47-.11 2.1-.81 2.39-.81 8.85 1.54 0 3.9-.03 5.42-.43l2.3-20.69c1.1-4.14-1.58-4.06 5.88-4.06.84 0 1.08.22 1.62.43l-1.62 12.16c-.07 4.17-1.62 10.74-.79 12.62 8.8 0 4.03-.73 5.82-7.42l1.81-15.54.6-6.85c.16-.68.87-1.38-.35-1.38H15.57c0 3.47-.84 2.79-.81 7.07.04 5.38-.94 2.32-.81 7.31.03 3.63-.68 4.12-.81 5.31l-.3 7.75c-.14 1.33-.54.57-.54 1.54l-.05-.03zM125.11 63.32c1.46-.46 4.74-.3 6.23 0 0 6.51.56 9.75-7.31 8.2 0-5.59 1.08-7.97 1.08-8.2zm.54-6.85c0-1.49.41-5.09 1.9-5.09 2.84 0 5.42-.43 5.42.89 0 2.74.3 3.95-1.35 5.98-6.25 0-5.96.82-5.96-1.79zm-4.33-11.29-1.71 12.54c-.24 1.25 0 3.09-.3 4.41-1.2 5.24-.25 4.51-1.3 8.2-.38 1.33-.03 2.87-.27 4.41-.56 3.55-4.12 2.95 14.98 2.95 2.11 0 4.08-2.87 4.28-3.6.22-.84-.03-2.52.05-3.49.22-2.33.81-.22.81-6.63 0-3.92-4.01.16.22-4.93 1.3-1.6 1.44-4.79 1.41-6.8-.03-3.95 1.81-1.87.16-5.44-1.37-2.92-2.51-1.62-8.04-1.62-2.06 0-3.14-.32-5.15-.22-1.68.08-3.06.22-5.15.22zM254.25 32.34l.76-12c.19-1.16-.32-3.03 1.16-3.03 2.84 0 5.42-.43 5.42.89l-.35 9.88c-1.6 9.8 1.9 8.12-4.36 8.85-3.33.38-2.63-.68-2.63-4.6zm-3.52-21.18c0 .81.11.76.27 1.49-3.15-.07-2.17 4.2-2.17 10.4 0 1.81-.43 3.85-.54 5.52l-.27 12.84c0 .92.68.16.81 1.54 1.6.11.57.43 1.62.43 18.03 0 16.67 2.79 16.57-15.06-.03-2.55.81-7.91.81-10.62 0-7.04.22-6.85-8.42-6.85l-8.69.3zM157.39 33.88l.97-4.06c.92-4.6-.73-12.51 2-12.51 7.8 0 5.42-.03 5.42 6.2l-.54 9.75c0 3.41.43 3.68-3.79 3.76-1.92.03-3.34.96-4.06-3.11v-.03zm-3.79-22.8-.57 16.33c-.32 1.46-.51-.38-.51 3.79 0 2.49-.27 11.48 0 12.4l17.06-.68c3.45-.92 1.71-12.3 2.27-18.28.79-4.68.49-6.15.49-11.1 0-2.71-3.52-2.46-5.23-2.49l-13.51.05v-.03zM137.32 76.8c0 1.44 2.44.73 3.82.68 4.06-.16 1.41-1.65 3.01-6.39.43-1.27.05-2.68.32-4.14l.7-6.07 1.03-7.99c.3-1.33.14-.6.87-1.49h5.96c.51 1.81.35 4.66-.57 6.17-.57.95-1.52.68-4.87.89-.05 2.3-.6 3.57-.27 7.07.11 1.06.57 1.35.73 2.06.19.78-.03 1.41.22 2.25l1.76 7.85h6.23l-1.92-6.61-1.33-7.07c0-1.9 2.86.95 5.36-3.82.01-.01 2.91-13.83.24-14.89-1.84-.73-13.03-.11-15.76-.22-2.38-.08-1.22 1.41-1.57 3.38-.38 2.06-.7.7-.73 4.25l-1.49 10.94c-.73 1.35-.3 2.82-.41 4.55-.11 2-.65.64-.81 6.66-.03 1.33-.57 1.38-.57 1.98l.05-.05zM202.42 36.1v7.31c6.77 0 5.17 0 5.79-3.25l.84-19.23c.89-4.79-.6-3.85 6.69-3.85.41 1.44.54.35.32 2l-.05 8.39c0 2.36-.81 6.55-.81 10.62 0 6.47-1.3 5.31 5.15 5.31 1.57 0 1.08-2.09 1.08-3.33 0-5.58-.14-6.69.6-12.13.65-4.82.22-11.7.22-16.84h-18.44c0 2-.54 2.71-.54 5.98L203 29.92c.03 2.3-.54 3.82-.54 6.2l-.03-.03zM54.3 31.01c0 7.09 1.68 5.98-10.86 5.98L41 43.38c2.74.51 16.28-.03 17.49-.57 2.89-1.29 2.06-12.9 2.06-16.46 0-.43-.7-.87-.81-2-2.19-.14.05-.43-5.69-.43-2.14 0-4.22.11-5.96-.22 0-4.31-.46-4.51 1.08-6.42l9.78-.22 1.65-4.41c.32-1.68.79-1.38.08-1.65l-16.79.43-1.14 1.3c-.54 1.14-1.65 14.41-.43 16.14 2.38 3.38 12 .03 12 2.17l-.03-.02zM164.46 80.13c0 5.8-1.68 13.47-1.87 19.69-.05 1.3-.49 2.55-.7 3.85-.24 1.33-.03 2.76-.11 4.12-.22 3.44-2.63 3.47 4.6 3.25 1.68-5.04.41-4.34 1.16-7.85 1.01-4.69.2-5.48.92-8.31 1.49-5.87-2.59-10.64 7.66-8.77 0 5.12-.05 2.79-1.08 6.42h-3.79c-2 3.09-.58 8.05.16 10.26 3.44 10.25-.3 8.34 5.82 8.31 3.2-.03 1.46-.89 1.11-2.71l-2.49-10.59c4.01-2.18 5.28.56 5.69-7.74.1-2.12 2.8-10.18-1.35-10.18-2.44 0-14.3-.24-15.73.22v.05zM172.58 35.21c0 4.3-.69 8.2.81 8.2 18.97 0 15.65 1.47 17.9-6.42-15.07 0-13.35 1.2-12.27-5.58.32-1.98 4.22-.9 10.89-1.3v-5.98c-12.2 0-10.83 1.05-10.83-3.76 0-2.36.49-2.39 1.08-3.11 11.41 0 10.12.88 11.43-3.52l.79-2.68h-18.71l-.81 17.95c-.22 2.14-.3 3.98-.3 6.17l.03.03zM193.49 45.17c-4.9 0-7.02-1.27-7.34 8.18l-1.68 13.02c-.41 2.79-2.14 6.94.32 10.89 3.2 0 3.06-.27 5.34.95-.57.43-.16 1.44-3.71 1.49-.22 2.98-.87 1.71-.16 5.01.3 1.46-.62 1.19 4.5 1.19 1.25 0 1.71-.49 2.57-1 2.43-1.47.49-6.69 3.25-7.31.95-.22 2.33-.3 3.41-.3l2-4.79c.32-.92.65-.35 1-1.41h-10.32c-3.99.02-3-.49-1.68-10.86.38-3 .29-6.83 1.92-8.83h10.32l2.71-6.2h-12.48l.03-.03zM61.34 43.17c1.79 0 3.66.22 5.96-.22l4.06-13.27 1.22-3.87c.35-.95.43-.24.65-1.25.22-.97-.16-2.41 1.14-2.41 1.76 0 .43 1.73 1.65 4.63l1.33 7.28c.43 2.74 2.46 2.9-4.9 2.9-.49 1.73-.27 4.33-.27 6.42l13.03-.22-3.98-17.52-2.41-11.35c-1.27-2.63 1.14-3.52-2.27-3.47-6.13.08-4.71-2.11-8.8 12.35-.16.6-.19.24-.49.92l-1.16 4.33-1.49 4.09-3.28 10.62.03.03zM127 42.95l5.42.22 6.77-20.15c.32-.84.08-.65.84-1.08 1.19 1.46 2.11 8.53 2.49 10.37 1 5.04 2.17 4.68-4.39 4.68 0 2.46-.68 4.09 0 6.42l12.21-.22c.79-.46-3.87-18.49-4.25-20.45l-1.33-6.23c-.32-.97.68-3.03-.6-5.04-.6-.95-.16.22-.62-.84-3.82.73.16 0-6.23 0l-6.64 20.01-3.03 10.16-.65 2.14zM19.82 10.86l-6.36 19.8-3.14 10.05c-.41 1.95-2.41 2.79 1.52 2.55 1.52-.11 2.44-.05 3.68-.3l4.49-14.49c.47-1.42 1.44-5.83 2.57-6.53 1.44 1.76 2.18 9.19 2.33 9.61 2.35 6.64.39 5.44-4.25 5.44 0 2.11-.38 5.12 0 6.42l12.46-.43-3.76-18.14-1.52-6.09c-.3-1.31-1.18-7.62-2.03-7.83h-5.99v-.06zM158.47 77.23c8.01 0 3.26 1.83 12.54-18.33.76-1.49.32-2.74 2.11-3.14 1 1.71.35 3.33.54 5.31.08.76.3.97.46 1.62l.35 7.45c0 .92-.97.92-2.14.89-4.09-.05-2.49-.16-3.3 2.84-.49 1.87-.51 1.22-.51 3.33l12.86-.08c.24-1.22-.32.11-.54-1.08-.16-.92.7-.41.7-1.27 0-.89-.32-.46-1.08-1.11 1.35-3.14-.54-5.04-.54-5.31l-.54-4.63-.73-7.58c-.24-.95-.35-5.61-.95-7.64-1.16-3.89 2.83-3.86-6.44-4.03-2.24 3.37-10.82 26.45-13.27 32.12-.16.35-.62.6.51.6l-.03.06zM77.64 98.27c4.07.25 3.87-.47 5.96.68-.51 1.84-.54 3.25-.54 5.52-5.02.96-9.99-.56-10.86 1.11-.93 1.77-2.97 5.63-1.08 5.74l14.68-.65c3.2-.3 2.79-4.95 2.95-7.09.08-1.06.51-1.38.54-2.65.19-7.88 1.6-8.64-4.63-8.64-3.38 0-4.52.7-7.07-.68.87-1.46.57-3.76 1.08-5.52 12.33-.34 9.82.79 11.94-4.44.22-.54.46-1.08.54-1.76-1.19 0-15.27-.19-16.14.11-2.65.95-1.84 4.93-2.46 6.85-.84 2.65-.22 3.6-.7 6.96-.93 6.42 3.86 3.82 5.79 4.47zM141.38 111.08l15.54-.38 1.79-2.98c.84-2.76.87-.32.87-3.06h-11.94c-.34-1.16-.55-5.99 1.38-6.15l6.74-.03c5.12.03 2.03-.51 3.52-5.77-7.96-1.47-12.52 2.87-10.07-4.9.22-.65.3-.97.3-1.76 2.92-.54 7.2-.22 10.59-.22l2.17-5.96h-17.36c-1.76 2.71-.16 4.22-1.22 7.64-.96 3.12-.93 11.28-1.92 15.68-.41 1.79-.76 6.53-.38 7.88z"/><path class="fil2" d="m214.63 115.96-.54.22c.76.54.84.43 1.08 1.33 6.8 0 6.48-.26 13.97 5.42-.49.68-5.51 6.65-4.88 7.96 1.72.17 9.54-4 11.83-4.52l10.56 5.74c0-13.79-4.78-7.31 11.81-15.6-1.12-.95-10.18-.38-13.11-.68-1.84-.18-2.72-6.85-3.17-8.64-2.27.38-6.39 7.1-8.72 8.56-1.27.41-16.19.16-18.82.16l-.03.05z"/><path class="fil1" d="M95.81 110.87h5.44l1.49-3.68 4.52-11.81 2.38-4.9c1.48.89 1.3 6.24 1.46 6.77.22.73.7 1.16.7 2.09 0 6.2.49 5.01-1.92 5.52-1.81.41-.7-.11-2.44-.22-1.77 7.69-4.66 6.17 10.29 6.17.62 0 .54-.08 1.08-.22-.08-1.14-.32-.62-.51-1.57l-.95-5.88c-.22-1.03-.08-2.68-.16-4.06-.11-1.3-.35-.68-.51-1.79l-1.6-9.53-1.16-8.34c-7.63 0-5.68-.72-7.42 3.44l-10.75 27.97.05.03zM45.06 110.87c1.38.03 4.25.08 5.42-.22l7.58-19.25c.43-.92-.08-.76 1.11-.87l1.9 13.49c0 1.06-2.38.68-4.87.68-.32 3.2-.81 2.19-.81 6.2 13.73 0 12.85 1.23 11.91-3.95l-1.6-9.75-2.44-17.71h-6.23l-7.64 19.47-4.36 11.97.03-.05zM201.61 110v.89l5.44-.14c.05-2.3 1.25-.16.35-3.55.7-.32.3.05 1.27-.3l5.96-15.73c.43-.81-.14-.57 1.11-.65.22 2.11 1.06 3.93 1.08 6.17.05 4.58.81 2.41.81 7.31 0 1.76-4.71-.46-5.15 1.33-1.44 7.04-1.43 5.45 5.15 5.55 7.45.11 6.77 1.19 6.23-3.98-.14-1.35-.84-1.06-.81-3.76.03-2.52-.22-2-.7-3.85-.27-1.03-.22-2.98-.41-4.12-.19-1.08-.41-.76-.51-1.79l-1.22-10.07-.7-3.87c-8.79 0-4.87-.77-7.39 3.47l-6.34 16.3-2.92 7.83-1.25 2.98v-.03zM130.53 92.72c-4.31 0-1.79-1.76-1.41-5.34.11-1.16-.24-1.52 1.41-1.52 6.77 0 4.9-.11 4.98 2.84.08 2.76.62 4.01-4.98 4.01zm-7.61 2.22c0 1.49-.35 1.44-.27 2.19.11.87.41.65.43 1.49h-1c0 3.15-1.08 6.97-1.08 12.46 2.41 0 3.36.16 5.42-.43 0-2.64.48-11.05 1.9-13.27 11.41 0 12.13.66 12.75-6.17.15-1.66 2-8.72.05-10.89-.3-.32-.11-.08-.32-.41h-15.73c-1.72 0-1.32 4.86-1.6 7.31l-.57 7.74.03-.03zM232.83 15.74l.27 1.33c-3.07.61-3.05 3.34-3.85 5.52-.3.84-1.62 3.57-1.62 4.22 0 1.65.3.38-.54 1.76l-4.41 13.7c-.16.54-.11.54.08 1.16 1.84 0 3.03-.22 5.15-.22l4.5-13.35 2.9-8.26c.89.16.62.08 1.16.43.08 1.27-.19-.03-.19 1.03l2.3 10.53c.87 4.31-.62 3.41-5.01 3.41v6.42c16.51-.94 12.42 1.17 12.21-2.65l-4.03-17.95c-.51-2.9.22-2.84-2.09-4.28-2.38-1.49-4.47-4.22-6.09-4.33-.14 1.38-.81.62-.81 1.54l.08-.03z"/><path class="fil2" d="M87.39 117.5c.22-.7.32-.99 2.17-1.11-.11.95.03.41-.54 1.11h124.81c-.19-.68-.32-.68-.62-1.33l-206.13-.22c-.35 2.19-.54 1.54 7.88 1.54H87.4z"/><path class="fil1" d="M187.34 110.57c1.83 1.19 5.3.11 5.34.08.43-.73.84-4.2.81-5.31-.03-2.33.54-3.47.79-5.34l.46-8.31c.34-4.87.99-1.39-.89-4.03h-3.36l-.68 2.09c-.32.97-.03 2.14-.16 3.17-.49 3.49-.79 1.08-.76 6.01.03 2.98-.84 3.55-.84 5.74.03 2.65-.14 3.66-.7 5.9zM235.27 100.47c2.65 0 1.22-.54 4.6 0 .54-1.11.79-.24.84-1.98l1.25-12.92c2.1-6.82.22-5.66-4.77-5.66l-1.62 13.05c-.49 2.79-.05 3.87-.27 5.55-.27 2.06-.57-.03 0 1.98l-.03-.03zM227.66 98.27c0 2.66-.68 2.38 5.44 1.98l1.87-18.39c.08-2.3 1.46-1.98-4.33-1.98-1.81 0-.95 3.15-1.46 6.55-.89 3.82-.3 4.03-.73 7.15l-.79 4.68zM242.04 99.36c0 .6.14.62.27 1.11l5.15-.49 1.08-10.34c.03-1.22.38-1.52.51-2.46l.3-5.5c.24-1.95 2.25-1.76-4.09-1.76-1.85 0-1.42 6.69-2.06 9.37-.41 1.71-.35 3.25-.38 5.23-.03 1.84-.81 2.9-.81 4.85h.03zM230.37 14.19c1.44-.11 1.78-1.5 2.17-2.9 2.14 0 1.68.35 2.25.81 1.08.89.84.14 2.03 1 1.49 1.06 2.46 2.11 3.85 2.17.19-1.8 1.64-3.61 2.65-5.31-.76-1.08-1.38-1.22-1.84-2.87l-2.44 3.09-7.07-4.87-3.22 5.58c-.78 1.35.35.78 1.63 3.31zM227.39 111.08c5.77 0 4.87.62 4.87-5.74-7.37 0-4.93-.35-5.5 3.03-.16.92-1.08 2.71.62 2.71zM197.28 82.32c0 2.59-.29 1.53-.81 3.09 7.41 0 4.59 1.14 5.88-2.71l.35-2.82h-5.42v2.44zM233.64 109.32c0 1.06-.57 2.46 1.98 1.38.38-.16 3.96-3.15 4.2-5.36h-5.34c0 1.62-.81 2.36-.81 3.98h-.03zM245.83 110.87c1.92-1.38 0-3.71 1.08-5.52h-3.09c.17 1.09.93 5.52 2 5.52z"/><path d="M87.39 117.5h1.62c.57-.7.43-.16.54-1.11-.86.05-2.17.18-2.17 1.11z" style="fill:red"/></g></svg>