<svg xmlns="http://www.w3.org/2000/svg" xml:space="preserve" width="222.548" height="261.913" style="shape-rendering:geometricPrecision;text-rendering:geometricPrecision;image-rendering:optimizeQuality;fill-rule:evenodd;clip-rule:evenodd" viewBox="0 0 87.89 103.43"><defs><style>.fil7{fill:#062256}.fil9{fill:#2d75d2}.fil6{fill:#2e78d8}.fil8{fill:#cde0de}</style></defs><g id="Camada_x0020_1"><g id="_2076227037568"><path d="M17.08 11.89c-.29.49-2.04 1.89-2.55 2.24l-4.84 5.56C5.11 25.59 1.67 33.71.57 41.6-.95 52.39.58 62.42 5.41 71.91c.58 1.14 1.56 2.57 1.94 3.49l3.32 4.88c.03.03.08.05.09.11.02.06.07.09.1.11 1.57 1.35 1.62-2.37 3.7-3.39l.63.87c1.19-.6 2.97-2.78 4.07-2.69l.34.91c.01.03.02.1.04.14l.75-.02c.48-.32.56-.37.77-.92-.86-1.53-5.12-7.1-5.23-8.4.38-.64 3.45-3.2 4.24-3.4l3.37 3.89c.85 1 3.38 3.24 3.6 3.72-.4.56-4.13 3.79-4.78 4.21-.65 1.77.71 1.27.72 2.74l-.67-.26c-.44.91.3 1.91-.74 3.06-.95 1.05-2.25.68-3-.16.03-1.08 1.04-1.71 1.24-2.72-1.35-1-1.87.8-3.49 3.24-.49.74-1.02 1.48-1.32 2.36-.14.41-.23 1.2-.5 1.45-.65.62-.87-.23-1.12.8.66.18 1.39.57 2.05.38.06-1.14.2-3.07 1.21-3.41.8-.27 3.94-.16 4.65.09.17.45-.28 1.94-.49 2.48-.42 1.1-1.41.72-2.54.97-.38.88-1.09 3.24-1.08 4.32l1.3.38c.04.99-.59 2.61-.94 3.15l-1.39.2c-.36.9-1.13 3.03-1.01 4.09.81.24 3-.74 1.44 2.84-.31.73-.04.39-.59.69-.56.27-1.61.2-2.29.09-.61.37-2.09.19-2.81.34l-.17.76c.82.32 6.64.11 7.93.1 2.03-.01 2.67.5 3.84-2.2.38-.88.26-.99 1.12-1.05.35.68.41 1.06.22 2.04-.83.4-1.33.23-1.43 1.21 1.2.22 1.17-.41 2.06-.57l8.94-.07 1.52-.51c1.2-.27.42-2.02 1.62-1.6l.27 1.25 1.19.87c1.06.02 2.09-.05 2.85-.57 1.04-.7.71-1.37 1.45-2.03 1.16.14 1.95 2.95 5.09 2.69 1.86-.15 3.86-2.95 5-2.56.04.03.1.03.12.09l.85.97c.27.3.65.71.98.95.91.67 1.73 1.08 3.17 1.02 1.62-.08 3.01-.75 4.06-1.45.7-.46.96-.8 1.53-1.28 1.1-.92 1.03-.23 1.68.33.75-1.79 1.5-5.39 2.05-7.43.98-3.58 5.72-21.99 6.41-22.88 1.26-.14 6.17-.33 7.18.01 3.95 1.32 1.19 8.55.51 11.17-1.04 4.02-3.5 14.61-5.27 17-1.02 1.38-2.21 2.41-4.39 2.98-2.67.7-4.28-.01-6.75-.28-.19.03-.38.07-.56.12.03.05.06.12.09.18.1.2.26.44.5.62.08.06.18.12.31.18.33.14.73.18 1.14.22l.09.12c.73.11 1.77.15 3.24.03 7.81-.6 8.49-4.54 10.59-12.03 1.11-3.95 2.17-7.85 3.19-11.89.76-3 1.76-6-1.4-8.33-1.19-.88-2.06-.61-2.79-1.06l-.11-.39c-.01-.5.48-1.41.69-1.9 1.33-3.15 3.99.28 7.52-.03l-.58-.52c-.73-.15-1.6-.55-2.31-.76-4.9-1.42-4.87-.66-7.72.13-1.96.54-3.92-.08-5.14-.98-2.27-1.67-1.17-2.88-2.13-4-.63-.73-1.04-.69-1.34-1.8-.27-1-.06-1.94.06-2.92.28-2.32 1-2.95 1.8-4.54 2.39-4.73-.43-8.83.5-10.54 1.62-.23 3.21 2.04 3.36 3.53.11 1.08-.36 1.96-.09 3.05.14.56.32.76.39 1.35.3 2.6.24.96 3.67 1.64.86.17 1.73.5 2.59.86 5.05 2.15-7.88 6.04-6.64 2.13.47-1.49 4.3-.25 4.8-2.21-.7-.22-2.48.25-3.3.43-4.19.93-2.1 3.47-1.79 4.14.74 1.56-.82 1.22.09 3.06.46.94-.09 3.82 3.76 4.18 1.12.1 2.56-.19 3.68-.28 1.67-.13 2.21.14 3.51.32.18-.19.15.21.17-.49-.79-.66-2.41-.81-1.37-2.22.77-1.04 1.21-1.38-.68-2.49.08-1.15.88-1.56.69-2.77-.22-1.43-.33-1.36-.14-3.02 1.53-13.18-4.4-27.66-12.76-36.57-2.2-2.35-4.66-4.4-7.74-6.47-3.01-2.02-.75-2.57-2.12-4.89-.99-1.68-3.64-1.27-5.24-.37-1.72.96-1.09 1.03-5.3-.14-1.98-.55-3.69-1-5.4-1.79-1.24-.57-3.58-2.2-4.69-2.33-2.96-.33-3.04 3.17-3.61 3.5-.53.31-2.7-1.28-4.7-2.03C28.61.48 21.54-.81 20.67 2.87c-.62 2.63 2.6 3.77 2.6 4.51-.3.75-2.16 1.77-2.94 2.31-1.02.7-2.4 1.76-3.28 2.23z" style="fill:#060808"/><path d="M28.72 18.39c0 1.71 1.03 4.85.98 5.33-4.24 1.25-7.41-.92-8.73-5.06-.69.37-.58.54-1.01 2.18-.18.68-.37 1.77-.45 2.5-.19 1.67-.11 4.26.27 5.78 1.43 5.62.98 4.56 7.57 4.57 11.35.02 18.54-.77 29.32-2.14 1.25-.16 1.72-.14 1.91-1.41.29-1.94.35-4.27.26-6.31-.1-2.17-1.07-3.01-1.92-4.65-.5-.97-1.54-3.99-2.21-4.65l-.37.89c-.19 1.36-.45 6.52-1.91 7-.28-.71-.32-2.63-.95-4.65-.44-1.42-1.14-2.74-1.87-3.92-.91-1.47-4.38-5.15-6.03-5.64.08 1.94 1.04 3.64.52 7.4-.25 1.81-1.43 5.2-2.85 5.33-1.03-.88-1.61-7.19-10.3-12.99-1.93-1.28-1.2.19-1.18 2.02.03 3.08-1.05 5.33-1.04 8.42zM39.41 4.67c-.18-.87-.28-1.14.56-1.15 3.17 1.17 7.87 3.51 9.88 6.05 1.01 1.28 1.78 2.81 2.5 3.11.89-2.42 2-4.68 3.54-5.97.66-.01.67.04 1.04.31l.02.85c-.7 8.22 4.25 9.59 4.87 15.8.24 2.37-.69 5.14-.48 6.65.25.43 1.1.17 1.59.95.38.67.85 6.03 1.03 7.28.86 6 .86 4.87-.6 6.74-.6.76-.29 2.6-.4 3.79-.12 1.32-.26 2.44-.48 3.7-1.11 6.58-4.81 11.95-9.75 15.55-1.48 1.08-3.6 2.17-5.61 2.8-3.17.98-6.23 1.14-7 1.39-.12 1.59.69 1.6 2.13 1.52 1.26-.07 2.18-.16 3.39-.38 9.57-1.68 15.93-8.2 18.7-17.22.9-2.94 1.88-9.32 1.86-12.63-.02-3.71-1.13-9.07-1.67-12.81-.8-5.55 1.14-7.05-1.65-12.36-2.07-3.93-4.09-4.65-3.2-10.75.2-1.37.44-1.9-.49-2.75-2.57-2.33-6.13 3.32-6.59 3.67-.69-.16-1.36-1.08-1.84-1.56-1.59-1.6-10.99-6.07-11.47-6.03-2.29.21-.86 4.05-1.18 5.48-1.5.21-4.5-4.94-13.04-4.98-1.45-.01-2.88.05-3.24 1.34-.7 2.52 2.7 1.84 3.74 5.17.2.63.7 3.56-.5 3.81-.11-.16-.77-3.78-3.57-1.97-1.12.72-2.29 2.32-3.05 3.62-1.75 2.99-2.82 5.97-3.25 10.09-.23 2.22 0 4.01.18 6.18.29 3.48-1.35 17.73-.12 19.11.7.45 1.32.28 1.82.97.41.56.46 1.57.57 2.39 1.03 7.15 5.23 13.9 11.11 17.85 1.49 1 6.01 3.5 8.18 3.31l.98-.42.11-.66c-1.26-1.23-8.32-1.32-14.13-9.12-2.84-3.82-4.45-7.52-5.2-12.38-.68-4.36-1.63-2.31-2.42-3.53-.35-.54-.08-11.54.13-12.91.19-1.22.79-.92.88-1.83.06-.59-.59-3.67-.67-4.71-.27-3.47.12-6.74 1.08-9.82.35-1.12 1.06-2.82 1.7-3.73.42-.6.73-.91 1.18-1.45.49-.61.55-1.19 1.67-1.12.54 1.42.42 3.07 1.15 4.8.37.88 1.52 3.4 2.5 3.62.2-2.7-.02-4.37.53-7.02.68-3.29.3-3.65-.22-6.54-.67-.39-.83-.92-1.32-1.55-.4-.53-.76-1.02-1.09-1.59-.01-1.06 1.13-.79 2.84-.52 1.09.17 1.94.37 2.97.73 4.02 1.41 8.3 4.78 10.5 8.26.4.63.87 1.97 1.53 2.18.47-3.63-1.4-6.76-2.23-9.62zM6.55 31.3c-1.38-.35-1.65 1-1.13 1.5.74.72 1.31-.5 1.13-1.5zm7.17-12.25c.26.28.36.4.82.53.36-.49.81-2.1.87-2.76-.99.25-1.81.96-1.69 2.23zm45.59 51.01c.64-.06.73-.39 1.2-.6.52-.24.93-.12 1.46-.29.05-.13.08-.12.05-.41-.05-.5-.97-1.66-1.34-1.92-1.15.38-2.41 1.85-1.36 3.22zM13.67 33.9c.51-.29.12.17.46-.48.04-.09.16-.55.18-.68.19-1.31-.15-4.04-.64-5.04-1.14.03-2.55.71-1.66 2.69.49 1.1.96 2.69 1.66 3.5zm54.62 30.88c.59.84.66 1.39 2.09 1.37-.22-1.65-2.03-1.91-3.31-8.39-.15-.79-.05-.78-.63-.94-.85.65-.24 1.8.05 2.72.96 3-.87 1.45 1.79 5.23zM53.55 75.25c0 .75.07.76-.73.7.3.28-.02 0 .32.24l.36.25c-.08 1.14-.46 1.39-1.12 1.69l-.7.43c1.01-.1 1.39.9 1.1 1.72-.59.32-.42.07-1.18.17v.24c.97-.2.59.34 1.34-.23.28-.21.33-.51.63-.79.52-.5 1.36-.69 2.34-.51.84.07.97.45 1.42 1.14.18.29.37.61.54.86.39.54.12.38.7.59.31-.22 3.48-3.86 3.39-4.68-.9-.18-1.29.06-2.01.06-1.03 0-.81-.48-1.56-.48-.65-.01-1.51 1.24-2.38 1.71l-.75-.01c-.28-1.31.07-.92.65-1.61.44-.52.53-1.21.16-1.67-.72-.44-1.4.43-2.06.66l-.45-.49zm13.42-9.75c-.69.19-1.8 1.12-2.38 1.54-1.18.87-1.77 1.03-1.8 1.88.67.44 5.26.53 6.19.06.15-.84-1.37-3.09-2-3.48zM51.62 50.31c-.02.42-.01.72.02.95.58.68 1.13 1.32 1.56 1.83.3.2.65.31 1.25.26.17-1.23.02-3.31-.73-4.28-.89.64-1.99.19-2.11 1.25zm3.69 2.32c.63-1-.02-1.28.09-2.67.36-.49 1.32-.9.48-1.7-.67-.72-1.19-.26-1.6.22.81.97 1.08 2.86 1.03 4.16zm-9.38.67c-.16.89.61 1.1 1.72 2.66.41.57 1.43 2.49 1.96 2.73.11-.1.2-.22.27-.34.14-1.61.27-3.2.32-4.44.04-.94.04-1.71.02-2.43-1.82-.31-4.04.66-4.3 1.83zm5.08.29c.51 1.71.03 3.46-.21 4.77-.17.95-.2.31.11.7 1-.06 2.46-1.5 2.21-2.6 0-1.4-.01-1.69-.66-2.86-.3-.54-.96-1.45-1.44-1.78.01.54.01 1.11-.02 1.77zm24.23 7.24c.44 1.64 2.72 2 4.6 1.44 1.68-.5 2.91-1.46 2.84-3.45-1.04.18-6.83 1.56-7.44 2.01zm1.91-13.81c-.68-.33-1.11-1-1.66-1.54-.47-.46-.14-.36-.79-.43-.38.55-.84 2.26-.81 2.9 4.09-.3 2.6-.63 4.66 1.3.47.44.97 1.33 1.68 1.31.27-.86.19-4.68.02-5.65-1.09-.07-2 1.71-3.1 2.1zm-7.72 3.64c.97-1.22.67-2.81.42-4.24-.22-1.28-.34-3.67-.95-4.58-1.85.3-.67 1.53-1.57 4.83-.31 1.14-.33 1.56.28 2.46.43.64 1.01 1.49 1.81 1.53zm4.4 6.65c.02.85.86 1.46 1.38 1.95.8.74 1.57.25 2.6-.02 1.15-.3 1.68-.26 2.35-1 .53-.58 3.8-3.49 1.24-3.2-.58.07-7.03 1.91-7.57 2.26zm-38.9 4.77c.47 1.75 4.26 2.23 6.41 1.65-.3-.86-.79-1.09-1.2-2.04-.31-.73-.54-1.39-.84-2.15-.33-.85-1.32-3.58-1.79-4.15-1.24.51-2.97 4.81-2.58 6.69zm8.98 1.6c1.93.04 4.7-1.46 5.35-2.55.08-1.57-1.62-3.94-2.49-5.17-.47-.66-.53-1.16-1.55-1.09-.7 1.62-1.45 6.37-1.9 8.42.64.21.46.26.61.39zm-5.63-8.84c.29 1.2 1.29 3.16 1.79 4.3.55 1.25 1.37 3.77 2.17 3.91.89-1.11 1.47-6.76 1.99-8.7-.36-.41-.11-.03-.42-.3-.37-.32-.26-.18-.28-.32-1.02.19-2.02-.44-4.22.5l-1.03.61zm31.31-32.93c-.56.35-1.18.36-1.77.52.12.86 3.12 5.3 3.65 5.99 1.03.1 2.79-.16 3.77-.36.16-1.89-5.11-8.51-5.89-9.41l-3.78-3.76c-.59-.57-1.37-1.15-2.13-1.73-1.02-.77-1.6-1.44-2.38-1.37-.36 1.29.47 2.71 1.05 3.41 1.41 1.68 1.77.45 3.37 1.36.73.41 4.14 4.44 4.13 5.35zM31.8 49.74c.46 1.04 3 1.55 4.02 1.77 1.57.35 3.5.47 5.3.26 2.9-.35 5.16-1.23 7.77-2.18.68-.25.71-.13.87-.68-1.54-.98-4.74 1.38-6.27-.92-.5-.76-2.05-4.36-2.93-4.64-1.44-.46-1.96 2.3-2.96 4.46-1.22 2.63-2.79 1.8-5.81 1.92zm2.28 11.86c.04-.4.08-.78.13-1.15-.06-.29-3.1-4.32-3.56-6.86-.47.69-.9 1.35-1.2 1.88a8.47 8.47 0 0 0-.7 1.58c1.08 2.25 2.4 3.95 5.33 4.55zm.35-2.27c.66-2.61 2.42-3.7 1.9-5.36-2.43-1.11-3.78-.78-4.94-.68.29 1.85 1.92 4.29 3.03 6.04zm-4.08-6.7c-.6-.99-1.07-1.47-2.34-1.71-.53 2.06-.55 3.04.29 5.09.45-1.06 1.27-2.23 2.05-3.38zm-3.08-1.98c-.83-.57-.23-.76-1.62-.94.06.49.95 4 1.08 4.18.06.09.13.18.19.26-.19-1.2.05-2.34.35-3.5zm43.49-21.29c-.71.24-2.31 1.32-3.18 1.76-3.5 1.78.56 5.34 1.24 6.12.75.87 1.42 2.53 2.75 1.73 1-.6 1.77-1.33 2.96-1.97 2.56-1.37 2.6-.8-1.12-5.41-.42-.52-.68-.83-1.09-1.36-.36-.46-.69-1.17-1.56-.88zM21.14 75.39l1.19.02c.65-.43 4.38-3.65 4.78-4.21-.22-.48-2.75-2.72-3.6-3.72l-3.37-3.89c-.78.21-3.85 2.76-4.24 3.4.11 1.3 4.37 6.87 5.23 8.4zm.97-25.73c-.45 1.79 1.38 6.34 2.05 7.7 6.05 12.3 21.35 15.79 30.61 4.27 1.33-1.66 2.59-3.94 3.49-6.32.48-1.28 2.08-6.59 1.41-8.02-2.99-.68-1.73 1.61-3.05 5.68-4.75 14.64-19.17 16.17-26.83 8.41-2.5-2.53-3.86-4.8-4.93-8.4-.36-1.22-.48-2.57-1.01-3.41l-1.74.09zM86.55 66.8c1.97.33 1.77-1.14-.79-2.48-.28-.15-.5-.24-.71-.34l-.73-.4c-1.3-.18-1.84-.45-3.51-.32-1.12.09-2.56.38-3.68.28-3.84-.36-3.29-3.23-3.76-4.18-.91-1.85.66-1.5-.09-3.06-.32-.67-2.4-3.2 1.79-4.14.82-.18 2.6-.66 3.3-.43-.5 1.96-4.33.71-4.8 2.21-1.24 3.9 11.69.01 6.64-2.13-.85-.36-1.72-.69-2.59-.86-3.43-.68-3.37.97-3.67-1.64-.07-.59-.26-.79-.39-1.35-.27-1.09.2-1.96.09-3.05-.16-1.49-1.75-3.76-3.36-3.53-.93 1.7 1.89 5.81-.5 10.54-.81 1.59-1.53 2.22-1.8 4.54-.12.99-.33 1.92-.06 2.92.3 1.11.71 1.07 1.34 1.8.96 1.12-.14 2.33 2.13 4 1.22.9 3.18 1.53 5.14.98 2.85-.79 2.81-1.55 7.72-.13.71.21 1.58.61 2.31.76zM8.05 33.32c-.11.92 1.64 3.38 2.2 4.28.46.75 2.26 3.39 2.24 4.04-.5.36-4.3.95-5.42 1.4-.9.36-1.5.72-2.37 1.16-.79.4-1.65.59-2.4 1.05-.1.97 3.98 6.64 4.77 7.81 1.21 1.79 1.97 2.44.16 4.17-1.74 1.66-2.12 1.6-3.54 2.74-.18 2.46 3.14 9.61 4.2 11.37.59-.25 2.53-2.78 4.42-4.12.63-.45 1.17-.69 1.66-1.28.01-1.58-4.12-7.74-4.16-8.96-.03-.99 2.49-2.55 3.4-3.07 1.04-.61 4.52-1.63 2.44-2.93-1.5-.94-2.13-1.19-2.14-4.31-.01-2.04.11-4.37.22-6.38.12-2.22.61-4.35-.76-5.56-.71-.63-3.75-2.07-4.91-1.39zm16.32 2.58c1.41-.35 5.11-.17 6.82-.18 5.87-.03 5.5 3.33 5.35 8.31-.15 5.02-6.12 3.96-9.74 4-2.45.03-3.91-.28-4.89-1.92-.9-1.5-.64-4.34-.59-6.3.05-2.12 1.23-3.45 3.05-3.9zm29.27-1.95c2.4-.3 3.86.63 4.58 2.35.36.86.7 5.51.53 6.48-.35 2-1.94 2.82-4.04 3.08-1.96.25-4.04.56-6.1.82-2.35.3-3.97-.52-4.72-2.22-.42-.94-.66-5.37-.47-6.57.62-3.83 5.47-3.35 10.21-3.94zm8.44-2.03c-1.37-.13-13.06 1.33-15.63 1.57-8.17.76-16.51.83-24.71 1.11-5.21.18-4.43-1.08-4.66 3.87-.51 11.1-.01 7.62 1.21 9.32 1.12 1.55 1.14 1 5.35 1.1 2.89.07 5.7.05 8.59-.02 3.77-.09 4.4.39 5.63-2.91.33-.89.81-2.26 1.49-2.72 1.22-.83 2.36.38 2.76 1.08 2.39 4.23.27 4.57 12.52 2.85 1.53-.22 6.47-.6 7.2-1.44.36-.42.47-.81.88-1.22.4-.41.81-.52.95-1.2.15-.72-1.22-10.66-1.59-11.39z" style="fill:#fff"/><path d="M71.73 95.86c-.52-.8 1.96-8.68 2.32-10.04.47-1.75.89-3.28 1.35-4.99.24-.9.42-1.56.67-2.51.24-.92.19-2 1.22-2 .48.82-1.95 8.66-2.32 10.04l-2.33 8.71c-.22.8-.1.84-.92.79zm-12.39-5.83c-.63-.22-3.74-.11-4.15.22-.19.15-3.46 7.9-1.24 10.79 1.48 1.93 4.53 1.39 6.51.08 1.61-1.07 2.85-2.89 3.67-5.24.61-1.76 2.63-9.22 2.6-11.21-.03-2.04-1.32-2.22-1.81-2.86-.58-.76 2.47-3.61 3.57-5.09.97-1.31 2.51-4.62 2.18-6.78-1.54-.26-6.96-.03-8.75.09-1.56.1-1.7.82-2.07 2.28-.19.75-.73 2.45-.62 3.05.24 1.32 2.91.38 4.69.65-.09.58-3.09 3.99-3.75 4.83-.57.72-1.19 1.77-1.56 2.84-1.81 5.31.46 2.82 2.62 3.43.13 1.1-1.84 8.54-2.26 9.32-1.32-.03-.94-.42-.3-2.89.2-.79.82-2.77.69-3.5zm5.57 10.86-.26.57c2.47.27 4.08.97 6.75.28 2.18-.57 3.37-1.6 4.39-2.98 1.77-2.39 4.23-12.98 5.27-17 .68-2.61 3.43-9.85-.51-11.17-1.02-.34-5.92-.15-7.18-.01-.69.88-5.44 19.29-6.41 22.88-.56 2.04-1.3 5.64-2.05 7.43z" style="fill:#f0e100"/><path d="M22.33 44.17c.23 3.99 4.39 2.91 9.23 2.88 5.07-.03 4.68-1.84 4.48-7.44-.06-1.81-1.23-2.96-3.07-3.01-1.96-.06-4.16.06-6.15.11-4.82.1-4.84 1.34-4.49 7.47z" style="fill:#00f"/><path d="M53.16 35.35c-1.78.21-3.48.41-5.25.63-1.89.23-3.35.52-3.45 2.57-.04.85.26 4.6.44 5.41.4 1.77 2.02 1.93 3.96 1.61 1.67-.28 3.34-.54 4.99-.78 1.93-.29 3.32-.49 3.59-2.43.14-.99.21-4.85-.02-5.63-.55-1.88-2.25-1.63-4.27-1.39z" style="fill:red"/><path d="M47.34 97.93c-.5-.59.31-2.64.52-3.43l1.83-6.94c.54-2.04.41-2.83 1.33-2.91.5.79-1.87 8.45-2.39 10.43-.49 1.89-.41 2.81-1.3 2.85zm-.58-16c-1.76-.52-1.15.9-3.56 3.69-.64.74-1.16 1.27-1.8 1.88-.84.8-.77 1-1.14 2.38-.52 1.94-1.03 3.75-1.54 5.65-.26.98-1.75 5.05-.95 5.73.8.68 2.22.03 2.58-.6.32-.55.64-2.09.84-2.85l2.99-11.4c.55-1.46 1.26-.71 1.93-1.74.43-.66.89-1.87.64-2.74zm-15.21 19.59c.43.26 1.12.21 1.78.16 1.32-.1.99-.54 1.89-3.85.56-2.06 1.09-4.04 1.66-6.11.55-1.98 1.11-4.08 1.63-6.03.89-3.35 1.99-3.85-2-3.57-.48.7-3.85 14.1-4.63 17.08-.32 1.21-.67 1.72-.34 2.31zm-7.59-10.64c-.13-.42.67-4.35 1.5-4.76.99-.49 1.97.25 2.42-.74.27-.61.5-2.12.33-2.81-.6-.23-4.34-.02-5.02.18-.6.36-5.33 18.53-5.29 19.28 3.26.79 3.16-.94 3.77-3.2 1.32-4.88.73-3.84 2.83-4.21.34-.61 1.09-2.32 1.03-3.23l-1.57-.51zm-8.42-4.61-4.09 15.95 2.36-.06c.68.11 1.73.18 2.29-.09.55-.3.28.04.59-.69 1.55-3.58-.63-2.6-1.44-2.84-.11-1.06.65-3.19 1.01-4.09l1.39-.2c.35-.54.98-2.16.94-3.15l-1.3-.38c-.01-1.09.7-3.44 1.08-4.32 1.13-.25 2.12.13 2.54-.97.21-.54.66-2.03.49-2.48-.71-.25-3.85-.36-4.65-.09-1.01.34-1.15 2.27-1.21 3.41zm16.37-.35c1.15-.22 2.1.02 2.51-1.01.24-.59.68-2.09.48-2.63-.98-.38-2.41-.06-3.5-.02-1.74.06-1.72-.09-2.13 1.52l-3.15 11.93c-.15.58-1.73 5.5-1.21 5.98.55.32 3.86.3 4.6.03.89-.32 1.29-2.29 1.17-3.59l-2 .1c.01-1.02.47-3.78 1.39-4.19.98-.43 1.24-.08 1.6-1.23.17-.57.44-1.45.42-2.17-1.29-.41-1.4-.61-.99-2.05.25-.9.45-1.9.82-2.69zm22.3-1.42c.64-2.89-1.36-4.04-3.89-2.98-2.27.96-2.46 1.94-3.19 4.53-1.12 4-2.25 8.04-3.2 12.25-.33 1.45-.32 2.46.78 3.05 2.6 1.4 5.38-.95 6.43-4.48 1.22-4.07 2.14-8.22 3.06-12.37z" style="fill:#fefefe"/><path class="fil6" d="M12.61 82.23c.39-.98 1.99-2.46 2.68-3.29.53-.64 2.14-2.46 3.05-2.6-.02 1.38-3.69 6.07-4.5 6.8-.6-.16-.92-.49-1.23-.92zm-1.96-1.96-.14.51-.35 2.33c.18.29-.35.24.41.23 1.03-.15 2.14-.49 2.6.42l.3 2.14c.25-1.03.47-.18 1.12-.8.26-.25.35-1.03.5-1.45.3-.88.83-1.62 1.32-2.36 1.62-2.43 2.15-4.24 3.49-3.24-.21 1.01-1.21 1.64-1.24 2.72.75.84 2.05 1.21 3 .16 1.03-1.15.3-2.15.74-3.06-.71-.68-1.19-.52-2.14-.84l.12-.73-.75.02c-.02-.04-.03-.11-.04-.14l-.34-.91c-1.1-.1-2.88 2.09-4.07 2.69l-.63-.87c-2.08 1.02-2.13 4.75-3.7 3.39-.02-.02-.08-.04-.1-.11-.02-.06-.06-.08-.09-.11zM40.33 77.86c-.2.45-.28.51-.44 1.04.25.39.09.15.35.43l.3.3c1.63.13 1.77.76 2.71-.74.57-.03 1.01.06 1.39.24.16 1.34-.66.66-.84 2.05-.14 1.06-.12 1.46-.84 1.87-.45-.83.29-1.57.47-2.16-1.26 0-3.85 3.23-3.81 5.21.01.66.04.61.31.93 1.31.48 3.43-2.45 4.01-3.48.74-1.33 2.26-4.16 3.07-4.47l.23-2.99-1.46.06c-1.52.43-1.7 1.75-2.91 2.22l.34-1.27c-.81.01-1.28-.34-1.79-.09-.48.23-.66.68-1.08.86zM32.36 80.15c.09-.85.42-1.95.3-2.62-.48-.59-1.35-.36-1.89.05-.58.45-.76 1-1.57 1.09l-.18-1.27c-2.91.02-5.38 1.14-5.53 3.95 1.44-.01.92-.97 2.02-1.3 1.05-.32 1.44.61 2.18.95 1.19-.14.97-.93 2.42-.48 1.13.35 1.54.44 2.25-.36zM36.94 73.6c.32-.08.49-.17.76-.16l.44.12c.03-.05.1.04.14.07-.27.81-1.38 1.4-2.22 1.55-.09.82-.57.95-1.37.87l.48.38c-.33.57-1.11 1.21-1.66 1.5l-.55 1.63c.24.27.36.43.49.64 1.11.26 1.38.81 2.42-.03.4-1.49.48-2.51 1.26-3.75.34-.54.61-.97 1.04-1.42.45-.47 1.01-.73.99-1.55-.21-.18-.27-.2-.53-.42l-.62-.52-.11.66-.98.42z"/><path class="fil7" d="M47.55 75.21c-.65.6-.05.35-.87.55-.31.08-.07-.07-.55.13-.36.15-.16.03-.38.25l1.46-.06-.23 2.99.36-.31c.42-.25-.11 0 .25-.12.27-.09.29-.05.62-.03-.58-.51-.35.01-.62-.76.38-.63.27-.27.81-.67.87-.64.65-1.74 2.72-1.19.08.5-.38 2.08-.67 2.55-.53.85-1.46.3-2.21.01.26.74.18.43-.01 1.16 1.31-.1.73.72 2.68-.11.25-.56.31-.61.75-1.03l.7-.43c.66-.3 1.04-.55 1.12-1.69l-.36-.25c-.34-.24-.02.04-.32-.24-.8-.31-1.08-1.09-2.51-.98-1.29.1-1.19.86-2.71.79l-.05-.56z"/><path class="fil8" d="m47.55 75.21.05.56c1.53.07 1.42-.69 2.71-.79 1.43-.11 1.7.67 2.51.98.8.06.73.04.73-.7-.28-.8-.79-1.38-1.48-1.81-1.13 0-4.06 1.16-4.52 1.77z"/><path class="fil9" d="M37.54 80.03c.64.72.87.18 1.6.09.08-1.16-.46-.97-.15-1.85.15-.43.6-.81.99-1.15-.07-.31.08-1.82 0-2.44l-.85.05c-.51 1.02-.2 1.45-1.05 2.61-.4.54-.43.52-.35 1.33.13 1.25-.02.3-.18 1.36z"/><path class="fil7" d="m35.88 80.17 1.28-.78.37.63c.16-1.07.31-.11.18-1.36-.08-.81-.05-.79.35-1.33.85-1.16.54-1.59 1.05-2.61l.85-.05-.26-.22c-.03-.04-.07-.07-.11-.12l-.42-.89c.02.82-.54 1.08-.99 1.55-.43.45-.7.87-1.04 1.42-.78 1.24-.87 2.26-1.26 3.75z"/><path class="fil9" d="m48.22 78.61.03-.06c.75.29 1.68.84 2.21-.01.29-.47.75-2.05.67-2.55-2.07-.55-1.85.55-2.72 1.19-.54.4-.43.04-.81.67.27.78.04.25.62.76z"/><path d="m20.38 76.3-.12.73c.94.31 1.43.16 2.14.84l.67.26c-.01-1.46-1.38-.97-.72-2.74l-1.19-.02c-.21.55-.29.6-.77.92z" style="fill:#cde2e1"/><path d="M51.59 80.71v-.24l-.8-.05.13-.82c-1.95.83-1.37.01-2.68.11.17.73.47 1.07.85 1.53l2.5-.52z" style="fill:#86a3a9"/><path class="fil8" d="m50.93 79.6-.13.82.8.05c.76-.11.59.15 1.18-.17.29-.83-.09-1.82-1.1-1.72-.43.42-.5.47-.75 1.03zM34.7 76.06c.8.08 1.27-.05 1.37-.87-.72-.45-1.12-.7-2.24-.67-.03.87.27 1.04.87 1.54z"/><path class="fil7" d="M39.13 80.12c.61-.51.47-.57 1.41-.49l-.3-.3c-.25-.28-.1-.04-.35-.43.15-.53.24-.59.44-1.04-.24.07-.08.22-.61-.03l.25-.71c-.38.34-.84.73-.99 1.15-.3.87.23.69.15 1.85z"/><path d="m32.36 80.15 1.1.06c-.13-.2-.25-.37-.49-.64l.55-1.63-.44.02-.42-.43c.12.67-.21 1.77-.3 2.62z" style="fill:#08265b"/></g></g></svg>