<svg xmlns="http://www.w3.org/2000/svg" xml:space="preserve" width="244.764" height="122.219" style="shape-rendering:geometricPrecision;text-rendering:geometricPrecision;image-rendering:optimizeQuality;fill-rule:evenodd;clip-rule:evenodd" viewBox="0 0 158.33 79.06"><defs><style>.fil0{fill:#0f0d0c}.fil3{fill:#ba1a6a}.fil1{fill:#f0188d}.fil2{fill:#f9f9f9}</style></defs><g id="Camada_x0020_1"><g id="_2015364257888"><path class="fil0" d="M77.74 74.6c-.35 2.8-.5 2.5-5.65 2.38-1.48-.03-1.36.22-1.49-1.14-1.18.43-1.96 1.67-4.48 1.38-2.48-.28-2.42-.96-3.25-2.86-1.25.57-1.7 1.22-2.81 1.86-2.13 1.24-5.73 1.37-7.92.42-1.16-.5-2.35-1.86-2.78-2.09-1.86.86-3.45 3.6-9.12 2.48-3.4-.67-4.26-1.98-4.09-4.97.22-3.79.9-2.9 6.12-2.67l-.19 3.75 1.68.03c.19-.8.88-2.1.6-3.05-.23-.78-1.27-1.35-1.95-1.81-1.55-1.04-3.41-1.85-4.14-3.57-.23-.94.63-.5 2.79-1.25 2.63-.92 1.5.5 3.08.46 2.24-.05-.8-1.93 5.78 1.91.57-.93.64-2.28.76-3.54-1.57-.06-3.11.13-4.6-.22-.1-1.29 1.45-1.76 2.8-2.55 1.22-.72 2.06-1.76 3.87-1.54 1.95-3.26 7.7-3.76 10.6-2.35 1.16.56 1.52 1.56 2.45 2.35.6-.74-.26-.52.81-2.61 2.31-.16 3.74-.28 6.07.08-.24 3.39-1.95 11.34-2.77 15.34-.15.72-.61 1.81.04 2.32.73.57 1.25-.21 1.49-.84.03-.21.49-2.15.69-2.42-.09-.72 1.07-6.17 1.3-7.32.48-2.43.95-4.83 1.59-7.1l1.22-.26c.48-.06.99-.1 1.35.16.63-.02 1 .33 1.62.48.75.18 1.31.16 2.1.17l-3.58 18.56zM29.46 0l8.01.12c1.59.1 1.05-.27 1.55 2.72.11.68.01 1.39.44 1.7.32-1.36.95-3.03 1.07-4.41H52.7c-.05 2.24-.94 4.24-.94 6.55.76 0 .92.13 1.74.13l29.15-.13c.83 0 1.12-.13 2-.14 4.43-.04 7.41-1.63 10.83 3.47.77-.21 1.67-.94 2.35-1.39 3.81-2.53 10.32-3.27 14.54-1.2 1.8.88 3.1 2.77 3.83 3.26 1.17-1.02 3.48-2.52 4.86-3.17 4.16-1.95 13.25-1.94 16.39 2.25.95 1.26 1.32 3.03 1.13 4.97-.55 5.45-1.58 10.66-2.64 15.96-.34 1.68-1.38 7.69-1.77 9.06-.13.47-.27.65-.32 1.16-2.21 0-5.68-.21-7.74.02-1.89.21-5.19.52-6.57 1.18.06 2.88 1.3 1.65-2.3 6.93-.52.76-1.07 1.44-1.58 2.17l-1.47 2.27c1.22 0 1.95.13 3.21.14l7.62-.4c.5-.03 1.09 0 1.61 0 0-5.4 1.4-4.14 5.79-4.51.5-.04.64.1 1.3.1H138c0 1.58-.53 2.42-.53 4.41h2.01c1.72 0 3.34 1.47 4.01 1.47.34 0 2.48-.9 2.96-1.06 5.3-1.71 11.89.79 11.89 5.6 0 2.72-.49 5.19-1.01 7.81-.77 3.86-1.57 7.77-4.87 10.11-2.87 2.04-7.7 1.98-11.14 1.51-1.4-.19-4.05-.04-5.58-.04l-8.29-.14c-.98 0-1.57.14-2.67.14h-14.04c-3.42 0-9.04.9-12.19-.25-.53-.19-1.59-.82-2.12-.82-2.68 0-2.95 2.32-9.55 1.13-5.27-.95-2.93-.17-7.69-.19-1.52-.01-3.03 0-4.55 0-2.94-.01-5.78.4-8.69.4-1.21 0-1.88-.38-2.67-.8-1.86-.98-2.37-.02-4.79.57-5.41 1.32-7.89-1.31-9.41-1.28-.94.02-2.49 1.92-8.15 1.66-2.44-.23-4.72-1.19-5.9-3.18-.2-.34-.24-.69-.64-.69-3.02 0-5.41 2.82-8.67 3.36-3.86.64-10.34.25-14.86.25-5.95 0-11.24 1.62-10.83-6.84.11-1.14.39-2.24.76-3.1 1.34-3.07.16-11.62 4.69-14.43 2.06-1.28 3.26-1.17 6.45-1.17.1-.44.25-.58.39-.95.39-1.08.45-2.33.68-3.33 1.91 0 3.34-.13 5.21-.13h5.35c-.26 1.1-.41 4-.8 4.81.98 0 2.81-.4 4.68-.4 5.05 0 4.99 1.95 7.16 3 1.07.52 2.7.44 3.59-.26 4.77-3.74 4.37-.45 5.92-7.72.28-1.29.57-2.49.82-3.72.31-1.5 1.29-3.39.55-4.8-.72.38-.42.49-.8 1.2-2.2 0-4.09.13-6.15.13-1.89.01-4.06-.27-5.88-.27 0-1.18-.4-2.13-.4-3.34-.55 1.22-.56 2.41-1.07 3.48H19.15c.09-.2.38-2.4.46-2.88 1.58-9.42 3.89-20.14 5.79-29.64.19-.97 1.19-7.38 1.73-7.9.28-.27 1.17-.42 2.34-.49zM38 62.05c-.03-2.09.76-3.66 1.74-4.81 1.03-1.21 2.53-1.88 4.76-2.06-.17 1.05-.37 1.8-.57 2.77-.27 1.28-.1 1.63-1.11 2.23-.82.49-3.72 1.7-4.82 1.86zm-18.08-4.28c.74-.38 1.56-2.25 5.32-2.66 2.3-.53 5.09.09 6.54 1.25 1.8 1.44 1.85 3.43 1.36 6.32-.38 2.28-.9 4.55-1.38 6.77-.44 2.04-1.31 4.99-2.78 5.49-.33.69-1.64 1.37-2.47 1.69-2.18.85-7.14.13-8.78-.86-.54-.33-.44-.61-1.13-.99-.53 2.56-.25 2.24-3.87 2.22-3.62-.03-2.94.23-3.31-1.17-1.64.58-4.63 2.68-6.76.58-1.69-1.66-.77-5.06-.24-7.42.56-2.51.93-5.12 1.47-7.62.56-2.59 1.11-5.13 3.5-5.8 2.83-1.41 4.13-.22 6 .72.82-2.26.66-3.01 1.28-5.5 2.48-.41 4.01-.16 6.51-.11l-1.25 7.08zm135.65-.2c2.23 1.85-1.29 14.08-2.28 15.89-1.93 3.52-6.52 4.43-10.64 3.49-1.73-.4-2.02-1.08-3.05-1.95-.56 1.82-.28 1.96-2.58 2.11-1.47.09-2.96-.12-4.41-.18.23-4.98 3.34-14.31 2.93-17.89-1.79-.24-.92.36-1.86.99.17 1.59-.97 5.94-1.33 7.61l-1.84 9.12c-2.33.29-11.15.66-12.68-.22.02-.71.12-.79.54-1.11-.16-3.43 3.54-14.33 2.63-16.45-1.66-.73-1.79 1.84-2.05 3l-2.67 13.46c-.33 2.09-.48 1.57-4.88 1.6-2.52.02-1.88-.96-1.52-2.76-2.28 1.61-2.69 2.64-6.53 2.96-3.79.32-5.37-.72-6.96-2.57-1.15.86-1.91 1.69-3.74 2.19-2.7.74-8.09.6-9.11-2.18-.48-1.31-.33-4.39.45-5.29.32-.22 4.46-.51 5.25.14l.29.1c-.12 1.43-.38 1.88-.33 3.53l1.57.11c.9-3.51 1.67-3.14-2.66-5.85-1.91-1.2-2.93-2-3.17-4.17-.2-1.83.33-1.93.39-2.16-.11-2.16.88-3.05 1.87-4.1.73-.78 2.73-2.16 4.37-1.71.91.26.74 1.01 2.16.76.91-.17 1.36-.72 2.42-.67 1.88.09 2.46 1.64 3.32 2.79.86-.37 2.04-1.39 2.98-1.97 2.38-1.47 5.24-1.79 7.83-.62 1.73.78 2 1.75 2.73 2.37.02-.03.05-.11.05-.09l.61-2.36c.18-.34.51-.17.51-.17 1.2.07 5.15-.13 5.89.18l.01 1.32c.95-.44 2.07-1.53 3.53-1.81 2.18-.42 2.89.55 4.1 1.3l.29-.55 1.1-4.93c.09-.35-.13-.19.6-.23l5.92.07-.97 5.41c1.28-.31 6.64-3.41 7.9 1.96 1.29-.64 1.82-2.63 6.37-3.02 2.14-.19 5.91.25 6.65 2.54zM93.29 36.79c-.24.99-.77 2.81-1.94 2.65-1.33-.18-.23-2.64-.03-3.22.77.05 1.53.21 1.97.56zm5.93 4.27c.4-.82 2.05-.44 2.86-.89 1.22-.67 1.42-6.64 4.85-6.28 1.32 1.86-.58 3.99-1.62 5.78 1.39.21 13.21-1.92 16.35-2.4 3.83-.58 2.12 1.43 1.03 1.71-2.74.69-17.83 1.67-18.33 2.22-1.27 1.4-3.94 12.01-3.92 14.16 3.01-1.39 6.12-10.24 9.16-12.75 1.53-1.26 4.18-2.45 4.46-.08-.73.69-1.92 1.04-2.85 1.55-1.74.97-5.23 5.76-4.84 8.02 1.83-.44 3.2-3.52 3.82-5.43.22-.69.21-1.32.98-1.42 2.68-.36.78 3.69.62 4.68 1.73-.7 3.17-6.09 5.2-6.22-.32 1.81-2.89 5.4-4.06 6.76-.54.62-1.03 1.52-2.14 1.37-.46-.57-.41-1.07-.65-1.89-.6.75-1.61 2.05-2.27 2.56-2.12 1.63-2.27-.34-3.05-.73-1.09 1.95-2.43 4.78-5.23 4.84-1.15-3.34-.16-3.8-.08-7.13-2.37.4-1.79 1.95-2.89 3.67-.77 1.2-2.31 2.61-4.02 2.19-.47-2.69 1.59-2.93 3.28-5.04-.32-.96-1.46-3.26-2.38-3.5-.32.21-5.35 7.34-7.68 6.64-1.22-.37-.68-2.65-.54-3.74-.87.49-.64 1.28-1.13 2.09-.65 1.07-2.06 2.74-3.14 3.41-.78.49-1.92.46-2.07-.51-.2-1.26 2.21-3 2.82-3.7 1.14-1.31-.83-3.56-1.36-4.42-.76.37-1.06 1.12-1.55 1.78-1.28 1.69-2.98 3.87-4.68 5.07-1.37.97-3.77 1.56-4.06-.72-.41-3.14 1.03-7.93 2.81-9.89 1.3-1.43 3.09-2.31 3.93-.33.77 1.81-.23 3.88-.93 5.2-.84 1.59-1.8 2.24-4.19 2.17l-.16 3.25c2.71-.51 5.24-3.74 6.7-5.87.56-.81 1.12-1.58 1.62-2.52.49-.92.94-2.04 1.7-2.59 1.15-.82 2.41.04 1.92 1.24-.34.82-2.46 1.01-.2 5.65.17.31.07.13.18.27 1.03-.22 2.3-2.38 3.35-3.66 1.6-1.95 2.4-2.96 4.07-2.28-.09 1.04-1.66 2.8-2.12 3.84-.56 1.27-1.01 2.99-1.49 4.28 1.17-.14 3.92-3.75 4.72-4.79 1.23-1.59 2.08-5.38 4.77-4.67.83 1.16-.65 2.02-.83 3.52-.18 1.57.54 2.84 1.01 3.87.79-.32 1.05-.96 1.57-1.68 1.34-1.81 3.3-3.36 3.41-6.24-1.09.01-2.2.33-2.69-.4zm-55.51-4.95c-.18 1.1-.45 2.11-.76 3.09l-8.4-.18c-.22-1.93-.56-3.29-.6-5.43l6.01-1.1c1.4-.28 3-.6 4.54-.51l-.79 4.15zm6.25-4.89c-.38 2.76-1.04 5.34-1.81 7.84-1.21-.19-2.23-1.57-2.47-2.87-.23-1.26 0-3.7.55-4.68l3.73-.28zm-15.98 1.4c.79-1.45 3.36-1.49 5.25-1.81 2-.34 3.97-.77 6.03-1.05 1.35-.18 5.43-.3 6-1.09.59-.81.74-4.21 1.69-5.36 2.81-.07 1.76 3.39 1.36 5.17 6.17.35 14.67-1.31 18.57 2.54 6.04 5.96-12.97 20.14-17.01 23.13-4.09 3.03-6.08 3.94-9.74 6.3-2.11 1.36-.55 2.7-2.27 2.92-.33-.39-.32-.88-.58-1.4-1.34.65-3.5 1.69-5.4 1.52.33-1.15 1.83-1.31 3.64-2.04 2.04-.83 2.38-.52 2.91-2.84.7-3.04 6.33-26.37 6.34-28.07-1.36.21-2.89.26-4.27.45-3.1.42-10.33 1.86-12.52 1.64zm69.8-17.3c.03 3.93-4.54 17.64-2.48 18.7 1.74.55 2.34-1.43 2.65-2.8.19-.81.27-1.59.44-2.37.16-.78.4-1.48.57-2.25H113c.06 3.95-2.73 10.02-5.45 10.79.25-1.09.88-2.43.16-3.5-.69-1.03-2.02-.86-2.88-.06-1.92 1.77-2.01 4.5-3.06 5.49-.99 1.41-7.4-.51-7.85-1.15-.12-.53-.07-1.45-.45-1.93-.77-.94-2.38.33-1.92-4.82.24-2.7.82-5.39 1.33-7.94.88-4.43 2.05-11.88 5.63-12.97 2.46-2.3 7.91-3.15 11.95-1.83 6.62 2.16 3.76 8.38 4.39 10.55l.61-1.17c-.17-1.28.95-3.8 1.47-4.77 2.83-5.32 13.13-6.97 17.84-3.37 3.97 3.04.17 12.08.16 15.35-.01 1.43-.05 2.63-.3 3.85-.18.87-.42 2.66-1.03 3.11l-1.21 5.61c-.11 1.49.34 1.26-3.48 1.35-1.51.04-3.15-.01-4.66-.05.05-.97.75-1.45.12-2.38-1.49-.74-9.09 1.03-11.46 1.17-.71-1.31-.61-1.5-.74-3.18.13-2.07.57-4.18 1.05-6.06.55-2.18 1.24-3.28 2.71-4.25.97-.64 8.89-4.06 9.93-4.09.8-1.28 2.45-6.11.84-6.67-1.03-.36-1.44.44-1.94.76-.01.28-1.03 5.41-1.04 5.42-.3.61-.83.69-1.76.7-2.7.04-15.64-.27-16.16-.53-.3-1.18.78-3.46.77-5.07 0-.89-.5-1.79-1.46-1.34-.59.27-.94 1.1-1.32 1.68zm-14.1 19.72-.71 4.16-9.33-.01c.04-4 5.53-23.58 4.2-25.43-2.42-.88-2.04 2.45-2.93 3.25-.21 3.16-3.5 19.26-4.19 21.88l-3.6.17 1.65-4.41c.04-4.6-2.6-4.54-5.22-6.42-.04-.56 3.41-18.93 4.13-19.39 1.61-.54 7.07-.27 9.03-.07.12.71-.31 1.33-.3 2.02 2.13-1.45 4.51-3.52 8.23-2.47 3.49.98 3.37 4.08 2.73 7.91-.77 4.59-1.84 9.48-2.7 14.28-.29 1.6-.69 3.05-.99 4.54zm-18.6-22.92c.16 1.31-2.44 14.82-2.89 15.43l-.13.53c-1.34-.04-2.94-.29-4.4-.37-1.4-.07-3.42.23-4.58-.28-.3-1.08.44-2.15.59-3.2.47-3.39 1.73-10.31 2.54-13.5.43-1.68.08-1.98 1.86-2.15 1.55-.15 6.4-.23 7.81.05.06.82-.24 3.12-.8 3.49zM55.63 24.45c-.3-.97-2.04-2.15-3.07-1.69-.97.86-1.13 2.97-1.5 4.48-.27 1.12-.48 1.09-1.66 1.3-3.12.57-2.7-.06-2.69-.54l1.85-9.4c.32-1.52 1.28-8.55 2.22-9.68.63-.7 7.64-.31 8.98-.22-.4 3.9-2.37 12.79-3.24 17.31-.16.85-.17 1.6-1 1.79-.29-1.26.13-2.06.12-3.37zM45.21 27.9l-.03.89c-1.43.87-3.72 1.01-5.67 1.36-1.25.23-4.74 1.26-5.72 1.01-.83-1.37-.4-5.76-.97-7.73l-.45.14c.08 1.81-.82 5.23-1.2 7.05-.59 2.83-.96 5.73-1.76 8.55l-7.95-.04c-.07-.69.07-.54.21-1.16l1.46-8.28 3.69-18.64c.64-3.06 1.2-6.15 1.98-9.13 1.11-.2 5.67-.29 7.04-.05.42.07.45.1.65.34.59.12.54.94.62 1.62.47 3.92 1.39 10.53 1.57 13.78l.39-.03c.35-1.02 1.86-9.44 2.22-11.3.74-3.78.43-4.3 2.2-4.5 1.7-.19 4.78-.05 6.59.08l.11.37-4.98 25.69z"/><path class="fil1" d="M29.86 37.61c.42-2.4.83-4.64 1.32-6.98.38-1.82 1.28-5.24 1.2-7.05l.07-1.37c-.72-.45-1.67-.93-2.4-1.17.19-1.23 1.02-1.81 2.32-1.94 2.9-.29 3.99 1.62 4.13 4.18.1 1.84.36 3.05.41 3.89 3.93.03 3.64-1.43 6.52.43.76.49.94.84 1.78.3l4.98-25.69-7.57.01c.45 1.26 2.22 2.03 2.28 3.4.05 1.28-2.51 11.43-2.87 13.94-1.68.25-2.91-.81-3.35-1.96-.17-3.12-.95-8.32-1.35-11.85-.07-.65-.14-1.27-.22-1.93-.08-.67-.03-1.49-.62-1.62-1.4-.23-5.01.11-6.59.15.07 2.17 1.43 1.77 1.47 3.54.06 2.38-5.6 25.69-5.76 29.75l1.3.43c.55.3 1.23 1.4 1.88 1.74.57.3.63.11 1.05-.2zM123.91 33.52c-.66 1.04-1.2.53-2.49.71-.64-.27-.72-.02-1.09-.38-.1-.09-.33-.54-.48-.71-1.08-1.22-2.03.38-1.76-1.61.3-2.25.31-4.12 2.09-5.77.89-.82 4.44-2.93 5.85-3.19 1.18-.22 2.91-.11 2.93 1.36.03 2.03-.52 5.49-2.33 6.66-1.79 1.15-.81 1.4-.19 2.84-.67.36-1.81.25-2.54.09zm-8.44-15.46-.14 1.22c2.57-.5 1.91-1.92 4.49-1.93 2.07-.01 1.74 1.22 3.91 2.52 0 0 1.03-5.14 1.04-5.42-.42-1.58-1.05-1.12-1.36-1.87-.73-1.72 4.02-2.55 6.58-.82 2.43 1.65.41 8.1-.74 9.41-1.82-.73-1.98-1.37-3.38-.82-1.04.02-8.96 3.44-9.93 4.09-1.47.97-2.15 2.07-2.71 4.25-.48 1.89-.92 4-1.05 6.06.5.29.76.82 1.1 1.17 1.77-.18.82-1.13.83-2.47 1.17.14 1.5.47 2.39.62.93.16 1.65.14 2.62.45 1.98.63 2.5 1.19 4.88.51 3.33-.96 2.35-.62 4.4.65.96.59 2.67 1.26 3.54 2.63.25-.45.02-.23.47-.48.23-.9.37-1.83.54-2.79.19-1.03.47-1.95.67-2.82l1.34-6.95c.01-3.27 3.81-12.31-.16-15.35-4.71-3.6-15-1.95-17.84 3.37-.52.97-1.64 3.5-1.47 4.77zM73.71 8.83c-.12 1.69 2.68 1.06 2.34 4.41-.1.93-.91 4.84-1.21 5.41-.85.02-.83.04-1.47.27-.46 1.41-.09 2.36.08 3.9.16 1.4.2 2.71.36 4.08 1.53.37 2.29 1.81 2.54 3.36.32 1.99-.02 3.06-1.46 4.3-.02-.03-.06.05-.09.07l-1.65 4.41 3.6-.17c.69-2.61 3.98-18.72 4.19-21.88.22-2.61-.19-2.65-.23-4.1 3.62-.39 7.57-4.36 6.84 3.26-.13 1.4-1.24 6.23-1.65 8.23-.14.67-.35 2.12-.55 2.67-.23-.04-2.39-1.58-2.84 1.16-.33 2.03.64 2.24 1.96 2.93.15 1.79-.39 2.72-.34 4.56 1.29.18 1.75.06 2.51.83.88.91.62 1.12 2.1 1.48.24-.97.47-2.42.97-2.99L93.4 16.2c.65-3.83.76-6.92-2.73-7.91-3.71-1.05-6.09 1.02-8.23 2.47 0-.69.42-1.31.3-2.02-1.96-.2-7.42-.47-9.03.07z"/><path class="fil2" d="M72.23 48.69c.29-1.58 1.36-4.27 2.78-4.4.08 2.15-.3 4.3-2.78 4.4zm27-7.63c.49.73 1.6.41 2.69.4-.11 2.87-2.07 4.43-3.41 6.24-.53.71-.78 1.36-1.57 1.68-.47-1.02-1.19-2.3-1.01-3.87.18-1.5 1.66-2.36.83-3.52-2.69-.71-3.54 3.08-4.77 4.67-.8 1.04-3.56 4.65-4.72 4.79.48-1.29.93-3.01 1.49-4.28.46-1.04 2.02-2.79 2.12-3.84-1.67-.67-2.47.33-4.07 2.28-1.05 1.28-2.32 3.44-3.35 3.66l-.66-1.4c-1.42-3.6.35-3.7.69-4.52.5-1.2-.77-2.06-1.92-1.24-.76.54-1.21 1.66-1.7 2.59-.69 1.3-2.48 3.81-3.44 4.86-1.2 1.31-2.54 3.09-4.88 3.54l.16-3.25c2.39.07 3.35-.59 4.19-2.17.69-1.31 1.69-3.39.93-5.2-.84-1.98-2.63-1.1-3.93.33-1.78 1.96-3.22 6.74-2.81 9.89.3 2.29 2.69 1.69 4.06.72 1.7-1.2 3.41-3.38 4.68-5.07.5-.66.79-1.41 1.55-1.78.53.85 2.5 3.1 1.36 4.42-.61.7-3.02 2.44-2.82 3.7.15.96 1.29.99 2.07.51 1.08-.68 2.49-2.34 3.14-3.41.49-.81.26-1.6 1.13-2.09-.14 1.1-.68 3.38.54 3.74 2.33.7 7.35-6.43 7.68-6.64.92.24 2.06 2.54 2.38 3.5-1.69 2.12-3.75 2.36-3.28 5.04 1.71.42 3.25-.99 4.02-2.19 1.1-1.71.52-3.26 2.89-3.67-.08 3.33-1.07 3.8.08 7.13 2.81-.06 4.14-2.88 5.23-4.84.78.39.93 2.36 3.05.73.66-.5 1.66-1.81 2.27-2.56.23.82.19 1.32.65 1.89 1.11.16 1.61-.74 2.14-1.37 1.17-1.36 3.74-4.95 4.06-6.76-2.03.13-3.47 5.52-5.2 6.22.16-.99 2.06-5.05-.62-4.68-.77.1-.75.73-.98 1.42-.62 1.92-1.99 5-3.82 5.43-.38-2.26 3.1-7.05 4.84-8.02.93-.52 2.12-.86 2.85-1.55-.29-2.38-2.94-1.19-4.46.08-3.04 2.52-6.15 11.37-9.16 12.75-.01-2.15 2.65-12.76 3.92-14.16.5-.55 15.59-1.53 18.33-2.22 1.1-.28 2.8-2.29-1.03-1.71-3.15.48-14.96 2.62-16.35 2.4 1.04-1.8 2.93-3.92 1.62-5.78-3.43-.36-3.63 5.61-4.85 6.28-.81.44-2.45.06-2.86.89z"/><path class="fil3" d="M75.02 55.49c.22.46-.46 3.04-.57 3.6l-2.32 10.82c-.67 1.44-.69 3.48-1.1 3.94-.71.8-4.02 1.57-4.58-.37-.28-.96-.08-3.31.07-4.32.28-1.93.05-2.61 1.06-3.25.09-1.75-.59-.04-.03-2.8.31-1.54 1.59-6.8 1.56-7.57l-2.5-.12c-1.07 2.1-.21 1.87-.81 2.61.35.56-.1 1.39-.31 2.66-.12.73-.29 1.9-.49 2.56-.5.19-1.68-.3-2.6.06-.36.14-.56.35-.93.54-2.53 1.37-3.53.45-5.87.83.04 1.16.45 2.32.4 3.26.21-.36.21-.7.74-1.43l7.34-.03-.15 1.1c.51-.28.25-.3.52-.72l-.48 3.92c-4.25-.12-2.9-.57-5.02-2.53 1.36.01 3.47.14 4.63-.45-1.41.03-4.71-.42-5.15.78-.37 1-.12 2.41-1.24 4.67.71-.1 1.25-.41 1.93-.09.41.28-.08 1.7-2.29 1.98-3.94.5-4.06-2.14-5.1-3.68-.6-.89-2.24-.58-3.51-.91-.35-.86-.71-2.24-1.18-2.82-1.06-1.31-7.03-2.58-8.77-2.96 1.11 2.61 5.61 3.71 6.09 5.38.27.94-.41 2.25-.6 3.05.8-.07 1.63-.24 2.28.21.19 1.18-2.72 2.26-4.25 1.8l-4.2-1.92c-.08-1.32.53-1.61.44-2.54-.67-.78-.56-.32-1.24-.8l-.06-.4c-.5.45-.54 1.9-.58 2.53-.17 2.99.69 4.3 4.09 4.97 5.66 1.12 7.26-1.62 9.12-2.48.43.22 1.62 1.58 2.78 2.09 2.19.95 5.79.82 7.92-.42 1.11-.65 1.56-1.29 2.81-1.86.83 1.9.77 2.58 3.25 2.86 2.52.29 3.3-.95 4.48-1.38.13 1.36.01 1.1 1.49 1.14 5.15.12 5.3.42 5.65-2.38-.4.3-.52.63-.56 1.18-1.32-.67-1.73-1.34-2.09-1.5-.38-.17-.49-.02-.9-.27-.32-1.93.92-7.4 1.36-9.58.27-1.3 1.63-8.43 2.03-9.04-.59-.43-1.86-.09-2.57.1z"/><path class="fil1" d="M98.52 10.51c-.95 1.93-1.16 1.39-.55 3.68.46 1.74-1.75 10.52-2.17 12.49a49.59 49.59 0 0 0-.72 4.23c-.23 1.91.59 2.56 1.41 3.64 1.88 2.48.39 1.08 2.82 2.16 1.75.77 1.63 2.17 2.48 2.6 1.04-.98 1.14-3.72 3.06-5.49.87-.8 2.19-.97 2.88.06.72 1.07.09 2.41-.16 3.5 2.72-.77 5.51-6.84 5.45-10.79h-8.04c-.17.76-.41 1.46-.57 2.25-.16.78-.25 1.55-.44 2.37-.31 1.37-.92 3.35-2.65 2.8-2.06-1.06 2.52-14.83 2.48-18.7-.02-1.43.14-1.2-1.03-1.73-2.18-1.01-.36-2.74 3.01-2.74 5.66.01 4.13 3.76 4.35 5.68.77.49 1.63.78 2.26 1.35.71.65.92 1.27 2.35.99.19-4.14 1.17-8.39-4.28-10.17-4.04-1.32-9.48-.47-11.95 1.83zM130.78 74.95c.59-2.41 1.03-4.85 1.58-7.32.37-1.67 1.51-6.02 1.33-7.61.31-1.53-.6-1.09-.72-2.08 1.19-.39 3.58-.75 4.96-.31 1.72.55 1.44 2.2 1.06 3.97-.52 2.42-1.66 7.75-1.73 10.04 1.24-.08 1.35-.55 2.81-.57-.55-2.19.92-9.89 2.48-12.36.48-.76 1.69-2.07 2.67-2.37-.18.75-1.35 3.06-1.96 5.59-.65 2.73-1.43 7.34-.62 10.11.71 2.45 1.6 3.59 4.38 3.22 1.14-.15 2.26-.57 2.12-1.85-1.77-.79-1.69.08-3.28-.2-.52-1.42 1.04-6.92 1.46-9.21l.57-4.67c-.82-.3-.94-.47-1.22-1.27 1.21-.97 2.71-1.47 4.61-.66 1.52.64 2.14 2.1 1.71 4.31-.4 2.04-2.17 8.93-1.56 10.8.17.23.51.28.93.06.86-.46 2.08-4.99 2.41-6.08.83-2.72.94-5.64.82-8.9-.38-1.16-1.29-1.7-2.55-2.1-1.21-.39-2.74-.55-4.1-.44-4.55.39-5.08 2.38-6.37 3.02-1.27-5.37-6.63-2.27-7.9-1.96l.97-5.41-5.92-.07c-.73.05-.51-.12-.6.23.64.34 1.54 1 2.13 1.2-.13 1.7-1.41 8.37-1.78 10.67-.59 3.63-1.3 7.33-1.46 10.99 1.25.85.38 2.06 2.79 1.27z"/><path class="fil3" d="M113.67 55.48c.33.8-2.88 14.11-2.67 15.15l-2.52-.17c.05-3.32 1.51-6.56 1.71-9.89.25-4.32-6.08-4.44-6.54-2.13.33.65.53.55 1.23.88l-.07.69c.89-.67.15-1.18 1.95-1.17.16 4.27-1.73 10.67-2.68 14.46 1.07-.24 1.31-.22 2.28.08-.05.9-.36.93-1.06 1.25-.52.24-.96.45-1.63.53-4 .47-3.72-2.49-5.02-3.55-.99-.8-2.68-.6-3.19-1.08-.64-.61-.3-2.06-1.48-2.93-.77-.57-1.76-1.21-2.54-1.74-1.37-.92-3-2.52-4.04-2.05-.96.43-.73.35-1.79.11-.26-1.18-.2-1.63-.24-2.85-.46.69-.51 1.06-.39 2.16.24 2.17 1.26 2.98 3.17 4.17 4.33 2.71 3.55 2.34 2.66 5.85 1.2-.27 1.33-.1 2.23.26-.23 2.39-4.3 1.94-5.66 1.08-1.58-1-.69-1.21-1.41-2.61-.43-.85-1.44-1.43-1.82-2.32.97-.39 3.81-.08 5.12-.15-.79-.66-4.93-.36-5.25-.14-.78.9-.94 3.98-.45 5.29 1.02 2.78 6.41 2.92 9.11 2.18 1.83-.5 2.59-1.33 3.74-2.19 1.59 1.85 3.17 2.89 6.96 2.57 3.84-.32 4.25-1.35 6.53-2.96-.36 1.79-1 2.77 1.52 2.76 4.4-.03 4.55.5 4.88-1.6-.94.27-1.13.36-2.15-.87-.55-.66-.99-1.47-.8-2.57l2.26-11.93c.15-.77.7-2.21.37-2.81l-1.27-1.4c-.52-.41-.2.11-.49-.53-.25-.05-.26-.11-.51.17z"/><path class="fil0" d="m46.85 57.76.7-2.7c.68-.14 1.92.19 2.43.67-.36.69-2.14 1.95-3.13 2.03zM67.4 39.08c.08-1.2.55-4.35 1.05-5.54.25-.59.03-.36.43-.55 1.31.52 1.22 5.68-1.48 6.09zm-1.2-1.3-.21 1.24c-1.6.36-6.85.13-8.88.13-.19-.13-.28-.14-.48-.29l.27-1.51c-1.55.47-2.8 2.16-4.98 2.19.22-1.18 1.98-8.02 2.34-8.66l1.08-.14-.13 3.22c1.1.18 1.87.45 2.34-.62.35-.79.44-1.68.89-2.44 2.35-.84 6.75.49 8.81 1.07-.04 1.56-.63 4.44-1.07 5.82zM45.76 59.1c1.7-.27 9.29-5.79 10.72-6.94 2.53-2.03 4.78-3.91 7.07-6.16.8-.79 1.26-1.43 2.12-2.28 2.17-2.17 7.05-8.64 3.27-11.57-1.58-1.23-4.39-1.76-6.88-1.93-1.83-.13-6.68-.24-8.37.04L45.76 59.1z"/><path class="fil3" d="M133.69 60.02c.94-.63.07-1.23 1.86-.99.42 3.58-2.7 12.91-2.93 17.89 1.45.06 2.94.28 4.41.18 2.3-.15 2.02-.29 2.58-2.11 1.04.87 1.32 1.55 3.05 1.95 4.11.94 8.7.03 10.64-3.49.99-1.81 4.51-14.03 2.28-15.89.12 3.26.01 6.18-.82 8.9-.33 1.09-1.55 5.62-2.41 6.08-.42.23-.76.17-.93-.06-.61-1.86 1.17-8.76 1.56-10.8.43-2.21-.2-3.67-1.71-4.31-1.91-.81-3.41-.31-4.61.66.28.81.4.97 1.22 1.27l-.11 1.56c.39-.82 1.03-2.78 1.95-1.86.49.49-.08 3.04-.2 3.73-.58 3.37-1.42 7.05-2.17 10.38 1.03-.1 1.03-.05 1.78.28.14 1.29-.99 1.7-2.12 1.85-2.78.37-3.66-.77-4.38-3.22-.81-2.77-.04-7.38.62-10.11.61-2.54 1.78-4.84 1.96-5.59-.98.31-2.19 1.61-2.67 2.37-1.56 2.48-3.03 10.17-2.48 12.36-1.46.02-1.57.49-2.81.57.07-2.29 1.21-7.62 1.73-10.04.38-1.77.66-3.42-1.06-3.97-1.38-.44-3.77-.08-4.96.31.13.99 1.03.55.72 2.08z"/><path class="fil1" d="M96.7 66.08c-.91-.91-2.18-1.56-3.37-2.27-1.73-1.04-1.88-.97-2.29-3.38.54-1.8-.19-1.5-.46-2.79.96-.52 4.63-.55 5.89 1.01.6.74.83 1.51 1.96 1.8.58.15.93.17 1.51.36.51.17.92.34 1.42.46-.07.94-.45 1.82-.53 2.67-.17 1.77.96 4.87-4.14 2.15zm-11.36-5c.04 1.22-.02 1.66.24 2.85 1.06.24.83.31 1.79-.11 1.04-.46 2.67 1.13 4.04 2.05.78.53 1.77 1.17 2.54 1.74 1.18.87.84 2.32 1.48 2.93.51.48 2.2.28 3.19 1.08 1.31 1.06 1.02 4.02 5.02 3.55.68-.08 1.11-.29 1.63-.53.7-.32 1.02-.35 1.06-1.25-.97-.3-1.21-.33-2.28-.08-2.06.06-1.51-.65-1.17-2.39.24-1.22.47-2.35.71-3.57.36-1.83 1.38-5.55 1.2-7.34l.07-.69c-.7-.33-.9-.23-1.23-.88.46-2.31 6.79-2.19 6.54 2.13-.19 3.33-1.65 6.56-1.71 9.89l2.52.17c-.2-1.04 3-14.35 2.67-15.15l-.61 2.36c-.01-.02-.03.06-.05.09-.72-.63-1-1.59-2.73-2.37-2.58-1.17-5.44-.85-7.83.62-.94.58-2.12 1.6-2.98 1.97-.86-1.15-1.44-2.71-3.32-2.79-1.07-.05-1.51.5-2.42.67-1.42.26-1.24-.5-2.16-.76-1.63-.46-3.64.93-4.37 1.71-.99 1.05-1.97 1.95-1.87 4.1z"/><path class="fil2" d="m45.76 59.12 7.93-28.84c1.69-.28 6.54-.17 8.37-.04 2.49.17 5.3.7 6.88 1.93 3.77 2.93-1.1 9.4-3.27 11.57-.86.86-1.32 1.49-2.12 2.28-2.29 2.25-4.55 4.13-7.07 6.16-1.43 1.15-9.02 6.66-10.72 6.94zM34 32.62c2.19.22 9.42-1.22 12.52-1.64 1.37-.19 2.91-.23 4.27-.45-.01 1.7-5.64 25.03-6.34 28.07-.53 2.32-.86 2.01-2.91 2.84-1.81.73-3.31.89-3.64 2.04 1.9.17 4.06-.87 5.4-1.52.27.52.25 1 .58 1.4 1.72-.22.17-1.56 2.27-2.92 3.66-2.36 5.65-3.27 9.74-6.3 4.03-2.99 23.04-17.17 17.01-23.13-3.9-3.85-12.4-2.19-18.57-2.54.39-1.78 1.44-5.24-1.36-5.17-.95 1.15-1.09 4.56-1.69 5.36-.58.78-4.65.9-6 1.09-2.07.28-4.04.72-6.03 1.05-1.89.32-4.46.36-5.25 1.81z"/><path class="fil1" d="M8.65 73.21c-.61-1.64.64-6 1.01-7.68.28-1.27.45-2.53.71-3.84.22-1.13.33-2.79 1.57-2.85.99-.05.76.79.68 1.61-.35 3.57-1.63 9.99-2.78 12.99l-1.19-.22zM7.38 55.56c-.37.77-.92.54-1.06 1.43-.14.86.38 1.26.75 1.74.89 1.14.29 2.46.09 3.89-.31 2.21-.01 2.23-1.6 3.35-1.43 1-1.4 1.54-1.15 3.7.3 2.66 1.29 6.24 4.51 4.75.84-.39.76-.46 1.85-.36 2.19.2 2.21-.53 3.98 1.08.48.43.63 1 1.59.91.19-.92.58-2.01-.51-2.67-.43-.26-.96-.58-1.38-.75.06-1.22.67-1.68 1.88-1.8.15-2.78 1.31-7.42 2.23-10.16.38-1.13 1.3-2.57 1.37-2.91l1.25-7.08c-2.5-.06-4.03-.3-6.51.11-.62 2.49-.46 3.24-1.28 5.5-1.88-.94-3.17-2.13-6-.72zM59.12 62.98c-1.51.21-2.08.37-1.7-1.42.22-1.01.5-1.85.93-2.72l1.35.11c.38 1.34-.25 2.88-.58 4.03zm-20.85 1.78c1.74.38 7.71 1.66 8.77 2.96.48.58.84 1.96 1.18 2.82 1.27.33 2.9.02 3.51.91 1.04 1.53 1.16 4.17 5.1 3.68 2.21-.28 2.69-1.69 2.29-1.98-.77-.53-2.66.67-3.47-.01-.77-.72.71-3.43.35-5.2.05-.94-.35-2.1-.4-3.26 2.34-.38 3.34.54 5.87-.83.37-.2.56-.41.93-.54.92-.36 2.1.13 2.6-.06l.77-3.89c.22-1.09.26-.96.03-1.33-.94-.8-1.29-1.79-2.45-2.35-2.9-1.41-8.66-.91-10.6 2.35-1.81-.22-2.64.81-3.87 1.54-1.35.8-2.89 1.26-2.8 2.55 1.49.34 3.03.15 4.6.22-.12 1.26-.18 2.62-.76 3.54-6.58-3.85-3.54-1.97-5.78-1.91-1.59.04-.45-1.38-3.08-.46-2.49.87-2.87.21-2.79 1.25zM114.18 55.32c.29.64-.03.11.49.53l1.27 1.4c.33.6-.22 2.04-.37 2.81l-2.26 11.93c-.18 1.1.25 1.92.8 2.57 1.03 1.23 1.21 1.14 2.15.87.34-1.36.61-3.15.86-4.57l1.8-8.89c.27-1.16.39-3.73 2.05-3 .91 2.11-2.8 13.01-2.63 16.45l-.13 1.04c2.36-1.13 1.57-2.65 6.46-2.85.42-1.49 3.39-17.72 3.3-17.85l-.29.55c-1.21-.75-1.92-1.72-4.1-1.3-1.46.28-2.58 1.37-3.53 1.81l-.01-1.32c-.74-.32-4.69-.11-5.89-.18zM27.09 59.33c.2.79-1.65 9.56-2.1 11.38-.21.84-.48 3.17-1.73 2.61-.99-.45-.28-2.6-.08-3.62.33-1.69 1.91-10.66 2.64-10.85.72 0 .9 0 1.26.49zm-1.85-4.23c-.19.48-.15.37-.44.69-2.72 2.93-4.61 8.06-5.08 12.14-.26 2.21-.2 6.26 1.74 7.03 1.07.42 2.35.01 3.87.69.82.37 2.42-.32 3.66-.72 1.47-.49 2.34-3.44 2.78-5.49.48-2.22 1-4.49 1.38-6.77.49-2.9.44-4.88-1.36-6.32-1.45-1.17-4.24-1.78-6.54-1.25z"/><path class="fil3" d="M29.86 37.61c-.42.3-.48.5-1.05.2-.64-.33-1.33-1.44-1.88-1.74l-1.3-.43c.16-4.06 5.82-27.37 5.76-29.75-.05-1.77-1.4-1.37-1.47-3.54 1.57-.04 5.18-.37 6.59-.15-.2-.24-.23-.26-.65-.34-1.37-.23-5.93-.15-7.04.05-.78 2.97-1.34 6.07-1.98 9.13l-3.69 18.64-1.46 8.28c-.14.63-.28.48-.21 1.16l7.95.04.44-1.56zM80.93 17c.89-.8.5-4.13 2.93-3.25 1.32 1.85-4.16 21.42-4.2 25.43l9.33.01.71-4.16c-.5.57-.73 2.02-.97 2.99-1.48-.36-1.22-.57-2.1-1.48-.76-.78-1.22-.66-2.51-.83-.05-1.84.49-2.77.34-4.56-1.32-.69-2.29-.9-1.96-2.93.45-2.74 2.61-1.2 2.84-1.16.21-.55.42-2 .55-2.67.41-2 1.52-6.83 1.65-8.23.73-7.62-3.22-3.66-6.84-3.26.04 1.45.45 1.49.23 4.1zM101.79 39.32c-.85-.43-.73-1.83-2.48-2.6-2.44-1.07-.94.32-2.82-2.16-.81-1.08-1.64-1.73-1.41-3.64.19-1.53.43-2.86.72-4.23.42-1.98 2.63-10.76 2.17-12.49-.61-2.3-.4-1.76.55-3.68-3.58 1.1-4.76 8.54-5.63 12.97-.5 2.55-1.09 5.24-1.33 7.94-.46 5.15 1.15 3.88 1.92 4.82.39.47.33 1.39.45 1.93.45.64 6.87 2.57 7.85 1.15z"/><path class="fil1" d="M68.2 27.55c.45-.61 3.04-14.12 2.89-15.43.09-1.39.45-2.38.54-3.24-2.87-.06-5.68-.36-8.45.15.33.92 1.65 2.03 2.26 2.84.71.93-.28 2.76-.58 3.81-.59 2.03-1.45 6.41-1.37 8.71 1.42.09 1.58.14 2.69 1.05.6.5 1.01 1.13 1.43 1.81.28.45.09.37.59.31z"/><path class="fil3" d="M128 55.76c.09.13-2.88 16.35-3.3 17.85-4.89.2-4.11 1.72-6.46 2.85l.13-1.04c-.42.32-.52.4-.54 1.11 1.53.88 10.36.52 12.68.22l.26-1.8c-2.41.79-1.54-.41-2.79-1.27.16-3.66.87-7.36 1.46-10.99.37-2.3 1.66-8.97 1.78-10.67-.59-.19-1.49-.86-2.13-1.2l-1.1 4.93z"/><path class="fil1" d="M50.79 8.93c.34.47.37.67.75 1.06.31.31.58.47.93.81 1.83 1.77-.44 4.01-.2 8.75 2.03.09 2.15.02 2.94 1.45.52.95.92 2.37.44 3.44.01 1.31-.4 2.11-.12 3.37.83-.2.85-.95 1-1.79.87-4.52 2.85-13.41 3.24-17.31-1.33-.1-8.35-.48-8.98.22z"/><path class="fil3" d="M16.33 76.06c-.96.09-1.11-.48-1.59-.91-1.78-1.61-1.79-.89-3.98-1.08-1.08-.1-1-.02-1.85.36-3.22 1.49-4.21-2.09-4.51-4.75-.24-2.16-.28-2.7 1.15-3.7 1.59-1.12 1.29-1.14 1.6-3.35.2-1.43.8-2.75-.09-3.89-.37-.48-.89-.88-.75-1.74.14-.89.69-.67 1.06-1.43-2.39.67-2.93 3.21-3.5 5.8-.54 2.5-.91 5.11-1.47 7.62-.53 2.36-1.45 5.76.24 7.42 2.14 2.1 5.12 0 6.76-.58.37 1.4-.31 1.15 3.31 1.17 2.24.02 3.2.36 3.61-.93z"/><path class="fil1" d="M57.12 39.16c1.46-2.01 4.31-4.5 6.72-2.57.57.46 1.32 1.19 1.85 1.75.32-.54-.09-.31.51-.55.43-1.38 1.03-4.26 1.07-5.82-2.06-.58-6.46-1.9-8.81-1.07-.45.75-.54 1.65-.89 2.44-.47 1.07-1.24.81-2.34.62l.13-3.22-1.08.14c-.37.64-2.12 7.48-2.34 8.66 2.18-.03 3.43-1.71 4.98-2.19l-.27 1.51c.19.15.29.16.48.29z"/><path class="fil3" d="M55.64 24.45c.49-1.06.08-2.49-.44-3.44-.78-1.44-.9-1.37-2.94-1.45-.24-4.74 2.02-6.98.2-8.75-.35-.34-.62-.5-.93-.81-.38-.39-.41-.6-.75-1.06-.93 1.14-1.89 8.17-2.22 9.68l-1.85 9.4c-.02.48-.43 1.11 2.69.54 1.17-.22 1.38-.18 1.66-1.3.37-1.51.53-3.62 1.5-4.48 1.02-.46 2.77.72 3.07 1.69zM19.92 57.77c-.07.34-1 1.78-1.37 2.91-.92 2.74-2.08 7.38-2.23 10.16-1.2.12-1.82.58-1.88 1.8.43.18.95.5 1.38.75.55.33.59.55.77 1.39 1.22.66-.05.7 2.68 1.57 1.91.61 5.35 1.01 7.23.28.83-.32 2.14-1 2.47-1.69-1.24.39-2.83 1.08-3.66.72-1.52-.68-2.8-.27-3.87-.69-1.94-.76-1.99-4.82-1.74-7.03.47-4.08 2.37-9.21 5.08-12.14.3-.32.26-.22.44-.69-1.26-.01-3.43.91-4.33 1.75-.38.35-.53.68-.98.91zM68.2 27.55c-.5.07-.31.14-.59-.31-.98-1.59-1.14-1.58-2.42-2.54-.3-.23-1.22-.29-1.7-.32-.08-2.3.78-6.69 1.37-8.71.3-1.04 1.29-2.88.58-3.81-.61-.8-1.93-1.91-2.26-2.84 2.77-.51 5.58-.2 8.45-.15-.07.6-.25 1.06-.35 1.62-.1.56-.05 1.08-.19 1.61.56-.37.86-2.68.8-3.49-1.41-.28-6.26-.2-7.81-.05-1.79.17-1.44.47-1.86 2.15-.81 3.19-2.07 10.11-2.54 13.5-.14 1.05-.89 2.12-.59 3.2 1.16.51 3.18.21 4.58.28 1.46.07 3.07.33 4.4.37l.13-.53zM74.79 34.64c.03-.02.08-.1.09-.07 1.44-1.24 1.78-2.31 1.46-4.3-.25-1.56-1.01-3-2.54-3.36-.16-1.38-.21-2.68-.36-4.08-.17-1.54-.54-2.49-.08-3.9.64-.24.62-.26 1.47-.27.3-.57 1.11-4.48 1.21-5.41.35-3.34-2.46-2.72-2.34-4.41-.84.88-4.17 18.93-4.13 19.39 2.62 1.87 5.26 1.81 5.22 6.42zM103.8 15.31c.38-.58.74-1.41 1.32-1.68.96-.45 1.46.45 1.46 1.34 0 1.61-1.07 3.9-.77 5.07.53.26 13.46.57 16.16.53.93-.01 1.46-.09 1.76-.7-2.17-1.3-1.84-2.53-3.91-2.52-2.58.01-1.93 1.43-4.49 1.93l.14-1.22-.61 1.17-.11-.38c-1.44.28-1.64-.34-2.35-.99-.63-.58-1.49-.87-2.26-1.35-.21-1.92 1.31-5.67-4.35-5.68-3.37 0-5.2 1.73-3.01 2.74 1.17.54 1.01.3 1.03 1.73z"/><path class="fil1" d="m77.74 74.6 3.58-18.56c-3.07-.01-2.7-.68-3.73-.64-.41.61-1.77 7.73-2.03 9.04-.44 2.18-1.68 7.66-1.36 9.58.41.26.53.11.9.27.36.16.77.83 2.09 1.5.04-.55.16-.89.56-1.18zM67.83 55.33l1.29.2c.03.77-1.25 6.03-1.56 7.57-.56 2.76.12 1.05.03 2.8-1.01.64-.78 1.32-1.06 3.25-.15 1.01-.35 3.36-.07 4.32.56 1.94 3.87 1.17 4.58.37.14-.16.51-1.34.4-1.52-.23.63-.75 1.41-1.49.84-.65-.51-.19-1.6-.04-2.32.81-4.01 2.53-11.95 2.77-15.34-1.74-.27-3.02-.28-4.85-.16z"/><path class="fil3" d="m32.38 23.57.45-.14c.57 1.97.14 6.36.97 7.73.99.25 4.47-.78 5.72-1.01 1.94-.36 4.24-.49 5.67-1.36l.03-.89c-.84.54-1.02.18-1.78-.3-2.89-1.86-2.6-.4-6.52-.43-.05-.84-.32-2.05-.41-3.89-.13-2.56-1.23-4.46-4.13-4.18-1.3.13-2.13.71-2.32 1.94.73.24 1.68.72 2.4 1.17l-.07 1.37zM121.42 34.23c-.16-2.03.04-4.16.71-5.86.44-1.11 2.05-3.39 3.36-3.32-.51 3.02-.87 5.52-1.58 8.47.73.16 1.87.27 2.54-.09-.62-1.44-1.6-1.68.19-2.84 1.81-1.17 2.36-4.64 2.33-6.66-.02-1.47-1.75-1.58-2.93-1.36-1.41.26-4.97 2.37-5.85 3.19-1.78 1.65-1.79 3.52-2.09 5.77-.27 1.99.69.39 1.76 1.61.15.17.39.61.48.71.37.36.44.11 1.09.38zM38.69 17.59c.44 1.15 1.67 2.22 3.35 1.96.36-2.51 2.92-12.66 2.87-13.94-.06-1.37-1.82-2.13-2.28-3.4l7.57-.01-.11-.37c-1.81-.13-4.88-.27-6.59-.08-1.78.2-1.46.71-2.2 4.5-.36 1.86-1.88 10.29-2.22 11.3l-.39.03z"/><path class="fil3" d="M112.17 34.76c.13 1.68.03 1.87.74 3.18 2.37-.15 9.96-1.92 11.46-1.17.63.93-.07 1.41-.12 2.38 1.52.04 3.15.09 4.66.05 3.82-.1 3.37.14 3.48-1.35-.44.25-.22.03-.47.48-.87-1.36-2.58-2.04-3.54-2.63-2.05-1.26-1.06-1.61-4.4-.65-2.38.69-2.91.13-4.88-.51-.97-.31-1.69-.29-2.62-.45-.89-.15-1.21-.48-2.39-.62-.01 1.33.94 2.29-.83 2.47-.33-.35-.6-.88-1.1-1.17zM124.77 14.46c.49-.32.91-1.12 1.94-.76 1.61.56-.05 5.39-.84 6.67 1.4-.55 1.56.1 3.38.82 1.15-1.32 3.17-7.76.74-9.41-2.55-1.73-7.31-.9-6.58.82.32.75.94.29 1.36 1.87zM91.04 60.43c.75-.6.62-2 2.18-1.5.27.23.07 3 .06 3.24l4.39.11c.22.7.03 1.5-.05 2.19-.11 1.03.07 1.55-.92 1.61 5.1 2.72 3.97-.38 4.14-2.15.08-.85.47-1.72.53-2.67-.5-.12-.91-.29-1.42-.46-.57-.19-.93-.21-1.51-.36-1.97-.5-1.22-2.55-4.47-3.02-.88-.13-2.66-.19-3.38.2.27 1.29.99.99.46 2.79z"/><path class="fil1" d="m35.78 33.3-1.25.56c1.44.71 2.1 1.92 4.14 2.07 3.61.25 2.18 1.85 4.23 1.99l.6-1.55c.24-.32-.04-.02.24-.27l.79-4.15c-1.74-.11-7 .86-8.73 1.34zM36.73 69.55l.06.4c.68.48.58.02 1.24.8.09.93-.51 1.22-.44 2.54l4.2 1.92c1.53.46 4.44-.62 4.25-1.8-.65-.45-1.48-.29-2.28-.21l-1.68-.03.19-3.75c-.95-.04-4.95-.58-5.54.13z"/><path class="fil0" d="m8.65 73.21 1.19.22c1.15-2.99 2.43-9.41 2.78-12.99.08-.82.31-1.66-.68-1.61-1.24.06-1.35 1.72-1.57 2.85-.26 1.3-.43 2.57-.71 3.84-.37 1.69-1.62 6.05-1.01 7.68z"/><path class="fil3" d="M43.72 36.11c-.46.41-.56 1.03-.83 1.82-2.05-.14-.61-1.74-4.23-1.99-2.04-.14-2.69-1.35-4.14-2.07l1.25-.56-1.82.27c.05 2.15.38 3.51.6 5.43l8.4.18c.3-.98.58-1.98.76-3.09z"/><path class="fil0" d="M27.09 59.33c-.36-.48-.55-.48-1.26-.49-.74.2-2.32 9.17-2.64 10.85-.2 1.02-.91 3.18.08 3.62 1.25.56 1.52-1.77 1.73-2.61.45-1.82 2.3-10.59 2.1-11.38zM147.75 60.87c-.18.59-.31 2.33-.46 3.11-.42 2.29-1.98 7.79-1.46 9.21.68.12.85.07 1.5-.08.8-3.58 1.98-8.61 2.46-12.23.06-.48.28-1.5-.1-1.88-.92-.92-1.56 1.04-1.95 1.86zM104.8 60.01c.18 1.78-.84 5.51-1.2 7.34-.24 1.22-.47 2.35-.71 3.57-.34 1.73-.89 2.45 1.17 2.39.96-3.8 2.84-10.2 2.68-14.46-1.79-.01-1.05.5-1.95 1.17z"/><path class="fil1" d="m90.78 73.27-1.57-.11c-.05-1.64.21-2.1.33-3.53-.74-.26-4.87-.17-5.41.05.38.89 1.39 1.47 1.82 2.32.71 1.41-.18 1.61 1.41 2.61 1.36.86 5.43 1.31 5.66-1.08-.9-.36-1.03-.52-2.23-.26zM38 62.05c1.1-.15 3.99-1.36 4.82-1.86 1-.6.84-.95 1.11-2.23.21-.98.4-1.72.57-2.77-2.23.18-3.72.85-4.76 2.06-.98 1.15-1.77 2.71-1.74 4.81zM46.24 31.5c-.56.98-.78 3.42-.55 4.68.24 1.31 1.26 2.69 2.47 2.87.77-2.5 1.44-5.07 1.81-7.84l-3.73.28z"/><path class="fil0" d="M121.42 34.23c2.88-.4 2.23 1.71 4.07-9.18-1.31-.07-2.92 2.21-3.36 3.32-.68 1.7-.87 3.83-.71 5.86zM56 67.95c.36 1.77-1.12 4.48-.35 5.2.5.38.84.19 1.54.1 1.11-2.26.87-3.67 1.24-4.67.44-1.2 3.74-.74 5.15-.78.42-.04.32.02.5-1.31l-7.34.03c-.53.73-.54 1.06-.74 1.43zM91.04 60.43c.41 2.41.56 2.34 2.29 3.38 1.19.71 2.46 1.36 3.37 2.27 1-.06.81-.59.92-1.61.08-.69.26-1.48.05-2.19l-4.39-.11c.01-.24.21-3.01-.06-3.24-1.55-.5-1.43.89-2.18 1.5z"/><path class="fil3" d="M57.12 39.16c2.02 0 7.28.23 8.88-.13l.21-1.24c-.6.24-.19.01-.51.55-.53-.57-1.27-1.29-1.85-1.75-2.41-1.93-5.26.57-6.72 2.57z"/><path class="fil1" d="M63.94 67.58c-.21.32.22 0-.75.42-.86.3-3.36.25-4.23.25 2.12 1.96.77 2.41 5.02 2.53l.48-3.92c-.27.42-.01.44-.52.72z"/><path class="fil3" d="M67.4 39.09c2.7-.41 2.8-5.57 1.48-6.09-.4.2-.18-.04-.43.55-.5 1.18-.97 4.34-1.05 5.54z"/><path class="fil0" d="M59.12 62.98c.33-1.15.96-2.69.58-4.03l-1.35-.11c-.42.87-.71 1.71-.93 2.72-.38 1.79.19 1.64 1.7 1.42zM72.23 48.69c2.49-.1 2.87-2.25 2.78-4.4-1.42.13-2.49 2.82-2.78 4.4z"/><path class="fil2" d="M93.3 36.79c-.43-.36-1.2-.52-1.97-.56-.2.58-1.3 3.04.03 3.22 1.17.16 1.7-1.66 1.94-2.65z"/><path class="fil3" d="M46.85 57.76c.98-.08 2.76-1.34 3.13-2.03-.51-.48-1.75-.8-2.43-.67l-.7 2.7z"/><path class="fil1" d="m72.13 69.9 2.32-10.82c.12-.56.79-3.14.57-3.6-.5 1.76-3.03 13.24-2.89 14.42z"/></g></g></svg>