<svg xmlns="http://www.w3.org/2000/svg" xml:space="preserve" width="80" height="96" style="shape-rendering:geometricPrecision;text-rendering:geometricPrecision;image-rendering:optimizeQuality;fill-rule:evenodd;clip-rule:evenodd" viewBox="0 0 26.06 31.27"><path d="M6.65 0h1.58c.27.01.51.05.72.16 0 .72-.3 1.03-.3 1.73.76-.39.88-.39 1.78-.39 1.2 0 .96.29 1.7.47.18-.83.16-1.72.82-1.88.15-.04.36-.07.6-.08h1.01c.31.02.59.08.75.16 0 .31-.02.32-.07.55h2c0 .48-.07.57-.07 1.02.58 0 1.96-.55 2.89-.08.16.08.07.03.14.08.07.11.41.39.52.47.08.04-.1.1.21-.01.21-.08.35-.26.53-.38.75-.5 2.18-.43 2.89-.08.84.41.74 1.07.74 1.74 0 1.43-.33 1.26-1.19 1.26.28.45.67.55.74 1.27.1 1.16-.59 3.33-2.36 3.38.15.66 3.63 4.77 1.08 11.31-.28.71-1.36 2.54-1.82 2.87-.16.06-.09-.03-.18.13-.08.14-.03.1-.04.27h.22c.31.09.6.48.86.43.41-.07.84-1.01 2.52-.65.07.02.18.04.28.09.19.1.11.06.18.13.21.34.23.11.42.5l.22.56c0-.01.02.03.03.05 0 1.15-.14 1.09-.15 1.57h-.74c.12.19.39.53.43.72.17.85-.04 2.06-.7 2.76-1.41 1.5-2.85.4-3.28.29-.09.18-.12.24-.22.39-.37 0-.51-.05-.75-.07-.47-.04-1.56.3-2.18.2-.46-.08-1.08-.1-1.57-.03-.44.06-.95.06-1.5.06-.24-.16-.42-.02-.74 0l-1.59.04c-.35-.04-1.32-.09-1.62.01-.53.18-1.3.49-1.73-.42-.13.12-.32.28-.47.37l-.59.24c-1.82 0-1.12-.14-2.15-.39v.31c-.63 0-.97.08-1.63.08H3.24c-.41 0-.48.06-.81.08H-.01c.02-1.14 1.51-6.76 1.63-8.27h2.37c-.08-.15-.11-.26-.21-.41-.08-.12-.13-.18-.22-.32-2.66-4.14-2.26-8.86.28-12.9H1.99l1.57-8.25c.07-.36.2-.76.28-1.12h2.29c.03.16.05.26.1.44l.12.34c.04-.57.07-.74.28-.79z" style="fill:#000"/><path d="M13.44 16.46c.38-.2.44-.51 1.44-.95.57-.25 1.22-.3 1.94-.38 1.44-.16 2.36.49 3.08 1.52 1.57 2.23.48 2.01.85 3.81.06.28.29.52.11.85-.13.23-.69.48-1.22 1.09a.55.55 0 0 0-.07.09l-.18.21c-.37.43-.31.26-.05.89.09.21.11.34.19.52.38-.1 1.52-1.38 1.8-1.78.12-.18.16-.27.27-.44.54-.85 1.07-1.83 1.33-2.87.64-2.55.5-4.77-.47-7.17-.38-.94-1.46-2.72-2.29-3.26-.21.14-.37.28-.59.44-.57.4-1.92.46-2.57.3-.38-.1-.41-.24-.78-.13-.53.16-1.74.16-2.37-.01-.23-.06-.08-.06-.35-.13-.45.29-.19.25-.96.24-1.09-.01-1.16-.18-1.02.92.03.2.09.59.14.81.58-.05 1.15-.46 1.68-.47-.06.74-.79 1.04-.8 1.73.33.01 1.38.21 1.6.32-.31.58-.86.84-1.2 1.34.22.15.91.49 1.2.55-.03.37-.2.42-.75.68-.35.17-.66.2-.86.5.25.34.62.3.88.79l-.96.47c0 1.12.27.59-.64 1.02.04.5.2.27.24.71-.55.26-.37.06-1.02.58-.5.4-.66.37-.67.84.28.06.49.13.83.2.88.19 1.04.26 1.19.8l.44 1.54c.13.55.15 1.24.56 1.41.16.07.54.14.82.14.03-.39.38-.82.48-1.26-.61-.4-.59-.46-.99-.92-.39-.45-.55 0-.94-.49l-.15-.34c-.08-.62.36-.48.23-.99-.1-.41-.68-.41-.21-1.35.56-1.12-.1-.79.45-1.76l.34-.61zM8.95 9.37c.17.31.37.58.56.87.31-.16.26-.14.47-.4.14-.18.24-.32.5-.39l-.09-.47c-.54.12-.66.39-1.44.39zm-1.44 1.18c.3 0 .22-.23.35-.53.14-.3.37-.5-.03-.65l-.52-.13c-.24-.08-.49-.27-.61-.27-.36 0-.06.17-.42.29-.82.27-.94-.5-1.73.58l-.19.29c-.1.16-.17.27-.27.44-1.11 1.81-1.38 3.22-1.56 5.25-.05.55.12 1.9.27 2.48.28 1.07.39 1.53.89 2.51.63 1.22.85 1.46 1.69 2.44.15.17.18.23.36.28.11-.22.25-.89.32-1.18.07-.29.04-.37.09-.7.04-.27.09-.25.18-.54.11-.4-.06-.34.26-.53.34-.2 1.58-.44 1.96-.44-.01-.51-.11-.48-.48-.63-.34-.14-.38-.22-.64-.39-.4.1-.05.15-.56.16-.02-.2-.09-.57-.16-.71H5.67c0-.57.2-.57.19-.96 0-.35-.17-.33-.58-.46-.34-.11-.3-.02-.49-.31.11-.39.52-.61.8-1.02-.65-.95-1.55-.5-1.6-1.18.26-.07 1.22-.72 1.44-.95-.19-.35-.32-.55-.57-.85-.22-.25-.55-.5-.63-.8.11-.05 1.94-.23 2.16-.24 0-.79-.39-1.04-.4-1.65 1.09 0 1.02.39 1.52.39z" style="fill:red"/><path d="M20.13 5.51c.08-.36.19-.29.3-.79.26.2.13.22.29.48.23.39.89.8 1.23 1.06.78.61.3 1.69-.55 1.69-.07-.95.12-.63 0-1.18-.4-.1-1-.08-1.48-.08-.01-.31.02-.18-.07-.39-.55-.05-.99-.1-1.41 0-.04.52-.26 1.65-.96 1.65-.41 0 .1-1.98.38-2.27.29-.3 1.79-.17 2.29-.17zM9.1 14.72c.44-.95-.59-1.77-1.36-.89-.24.27-.2.42-.2.89.75.19.13-.24 1.55 0zm-5.03 8.43c-.08.35-.22.59-.22 1.18h1.18c-.05-.19-.89-1.13-.96-1.18zm-.96 1.26c.08-.15.13-.33.15-.55-.52-.3-.34-.05-.96-.09-.04 0-.52-.23-.52.56 0 .26.63.08 1.33.08zm-1.78 6.38c.69 0 .57-.18.73-1.03l.75-3.77c.05-.22.36-.95-.15-.95-1.18 0-.99-.1-1.15.59l-.8 3.87c-.4 1.56-.34 1.29.62 1.29zm23.54-2.68c0-.8-.68-1.01-1.11-1.34-.78-.58-.26-1.34.22-1.34.21 0 .13.3.13.45 0 .14-.12.26.17.26.59 0 .47.04.96-.08.34-1.57-.56-1.65-1.7-1.65-1 0-1.41 1.16-1.41 2.13 0 .48.18.73.68 1.09.2.15.8.43.8.72 0 .36-.06.72-.25.92-.03.03-.33.22-.37.23-.42.05-.25-.5-.2-.99-1.03-.25-1.18-.07-1.18.71 0 1.11.8 1.1 1.63 1.1 1.14 0 1.63-1.16 1.63-2.21zM8.66 30.79c.1 0 .41-.13.5-.19.36-.22.13-.1.27-.5.1-.27 1.1-1.74-.1-2.55-.72-.48-1.21-.63-.91-1.44.09-.25.4-.73.67-.44.25.27-.36.86.17.86.54 0 .61-.08.95-.08.07-.5.22-.98-.23-1.31-.99-.74-2.94-.48-2.94 1.87 0 .72 1.55 1.46 1.55 1.73 0 .55-.22 1.1-.74 1.1-.27 0-.07-.59-.07-.87 0-.33-.74-.16-1.11-.16-.08.96-.6 1.97 2 1.97zm10.36-1.42c0-.5.23-1.23.62-1.55.35-.29.35-.11.37-.07.04.08-.15.94-.2 1.13-.09.33-.17.6-.64.73-.05-.07-.15-.19-.15-.24zm.52-2.76c.36-1.65.89-1.46.89-1.1 0 2.06-1.74 1.32-2.41 2.55-.18.33-.06.25-.13.65-.05.35-.51 1.76.61 1.76.46 0 .79-.37 1.11-.55v.39c.64 0 .73.05 1.26-.08l.67-3.31c.12-.86.4-1.74-.17-2.18-.45-.35-2.39-.72-2.93 1.26-.08.31-.3.69.06.69.61 0 .53.05 1.04-.08zm-8.22 2.83c0-.76.39-1.51.96-1.65 0 1.76-.96 2.46-.96 1.65zm.7-3.43c.13-.38.87-1.07.64.21-.13.69-.37.71-.84 1-.2.12-.38.2-.61.3-1.05.46-.86.64-1.05 1.72-.15.87-.33 1.62.56 1.62.72 0 .75-.64 1.26-.79-.05.23-.07.24-.07.55h1.04l.1-.21c.01-.02.02-.04.02-.06.36-.94.91-3.81.91-4.78 0-.91-1.41-1.06-2.14-.78-.85.32-1.17 1.08-1.28 2.04h1.2l.25-.83zM3.55 30.7c.28 0 .27-.31.33-.59l.32-1.47c.17-.76.3-2.35.77-2.81.78-.76.25 1.14.22 1.34-.12.75-.68 3.02-.68 3.53.64 0 .73.05 1.26-.08.22-.49.52-2.39.68-3.06.15-.64.82-2.69-.31-2.69-.71 0-.54.04-1.04.39-.42-.12-.04-.23-.66-.24-1.07-.03-.82-.18-1.15 1.39-.06.28-.08.42-.14.72-.04.22-.1.39-.16.7l-.56 2.87h1.11zm11.18-.24c.42 0 .44-.81.51-1.19l.6-2.83c.16-.75.27-1.02.82-1.02 0 1.24-.89 4.13-.89 4.96.76 0 .45.14 1.33-.08l.46-2.42c.17-1.1 1.16-3.33-.39-3.33-.44 0-.55.3-.89.39-.15-.11-.19-.24-.37-.24-1.23 0-1.05-.12-1.21.68l-.67 3.3c-.07.3-.1.43-.16.78-.16 1.09-.28.94.08.97l.78.02zm-.81-10.95c0 .45.58 1.1.96 1.1.89 0 .42.02.66-.09.97-.46.85-1.23.45-2.04-.26.07-.24.14-.42.34-.73.78-1.65-.05-1.65.69zm3.11.39c.07.14.14.23.26.35.94.88 1.96-.1 1.96-.74 0-.4-.13-.3-.49-.34-.52-.07-1.21-.08-1.36-.68h-.22c-.06.24-.3.59-.3.95 0 .1.11.4.15.47zm-7.18-5.51c0 .25.48.22.73.25.02 0 1.53.43.92-.42-.39-.55-1.65-.57-1.65.17zm2.77-12.04c-.45 2.03-.91 4.07-1.11 5.15-.23 1.23-.33 1.4.99 1.42.29 0 .46-.02.63-.04l-.02-1.16c-.33.11.47-4.09.67-5.32-.39-.02-.77-.03-1.16-.05zm3.37 1.28.5.23c-.28.75-.72 3.17-.72 3.92-.5.06.09.16-.59.16 0-1.22.43-2.75.71-3.97.03-.13.06-.24.1-.33zm2 .9.33.15c-.18.06-.33.02-.33-.15zm.33.15-.33-.15c0-.58.22-1.55.89-1.4.08.36.04 1.35-.56 1.55zm-1.83-.82-.5-.23c.14-.33.35-.42.67-.42-.01.27-.08.4-.17.65zM12.81.85c-.19.88-.45.79.96.79.7 0 .6-.24.6-.79h-1.56zm-4 7.09c-.2-.39-.07-.59.06-1.28.1-.51.18-.86.28-1.35.18-.86.29-2.05.99-2.25.26.42.15.57-.09 1.63-.12.54-.49 2.75-.78 3.03-.12.12-.26.2-.46.22zm-1.63-.79c0 .67-.12 1.23.58 1.59.73.38 1.99.26 2.62-.31.78-.7 1.02-1.74 1.21-2.81.21-1.18.48-1.33.16-2.39-.42-1.4-2.57-1.2-3.23-.55-.75.75-.79 1.81-1.04 2.83-.09.38-.31 1.24-.31 1.64zM2.37 8.8C4 8.8 3.7 8.94 3.91 8c.13-.58.37-2.3.83-2.66l.22 3.47c1.59 0 1.43.41 1.92-1.74l1.01-5.22c.09-.45.19-.6.1-.99h-.81c-.42 0-.39-.36-.57.5l-.57 2.62c-.28.31.06-.15-.35.03C5.37.17 5.75.93 4.06.78l-1.7 8.03zm11.62-6.06v.55c.17.08.44-.3.34.34-.16 1.01-1.08 4.12-.77 4.77.26.54 1.16.4 1.84.4.19-.39.25-.63.52-.71.22.9 1.82.98 2.55.67 1.04-.44.97-1.14 1.52-1.46-.03.42-.13.31.02.76.38 1.16 2.51 1.09 3.26.28.31-.33.45-.91.54-1.47.36-2.03-2.04-1.59-1.73-3.01.12-.55.81-1.13.92-.57.04.19-.12.54-.13.86 1.22 0 1.46.17 1.49-.55.04-.87-.25-1.09-.85-1.31-.54-.19-1.37-.13-1.83.03-.54.19-.83.63-.95 1.19-.63-.06-.17-1.21-1.78-1.34-1.69-.14-1.79.74-2.29.79 0-.53.01-.34-.37-.55 0-1.22.42-1.02-1.48-1.02-.22 1-.18.71-.56 1.06-.19.18-.04.11-.26.28z" style="fill:#fefefe"/></svg>