<svg xmlns="http://www.w3.org/2000/svg" xml:space="preserve" width="128" height="64" style="shape-rendering:geometricPrecision;text-rendering:geometricPrecision;image-rendering:optimizeQuality;fill-rule:evenodd;clip-rule:evenodd" viewBox="0 0 100.48 50.24"><defs><style>.fil0{fill:#000}.fil2{fill:red}.fil1{fill:#fff}</style></defs><g id="Camada_x0020_1"><g id="_2475191163328"><path class="fil0" d="M90.42 49.14c.06-.68-.04-.31.39-.71l3.77-4.44c.01-.02.04-.07.06-.1 0 2.11-1.78 3.7-3.36 4.84-.4.29-.3.29-.86.41zm-14.28-6.18c.1.11.1.07.22.26.53.85.46 1.27 1.68 2.57.86.91 1.89 1.65 3.29 1.65 1.65 0 2.01-.97 2.92-1.54-.33 1.35-2.33 2.01-2.6 2.01-1.04 0-1.4-.06-2.33-.56-.71-.38-1.49-1.12-1.98-1.82-.53-.76-1.08-1.64-1.2-2.56zm-65.1 4.02c.22.13.17.11.52.15.1.01.51.01.64.01 3.07-.04 1.67.04 1.63 1.54H8.47c-.7 0-.37-.73.12-2.2.12-.37.16-.55.29-.96 1.21-3.87.93-2.68 3.33-2.7 2.89-.02 3.26-.44 3.01.67-.94 4.23-.93 2.59-3.52 2.87-.62.07-.57.05-.66.63zm-4.35 1.7H1.34c-.46 0-.42-.1-.41-.4 0-.03.23-.63.28-.8l1.05-3.32c.09-.28.15-.61.25-.85.17-.41.19-.28.45-.66h3.41c.16-.44.22-.63.32-1.08.26-1.11.04-.93 2.27-.93.85 0 .15 1.26-.03 1.82l-.99 3.24c-.4 1.24-.64 2.97-1.26 2.97zm60.69-8.65c.88.07 1.03.31 2.27.31v.15c-1.94 0-1.46-.28-1.67 1.35-.03.23-.16.89-.23 1.32-.16 1.05-.06 4.05-.57 5.48-.16.45-.34.56-.94.65 1.04-1.48.75-4.13 1.03-5.98.12-.83.5-2.45.11-3.29zm-20.77 6.18c.61 0 .31.1.97.15 0 2.82-.34 2.32-5.84 2.32-.82 0-.73-.14-1.46-.15 0-1.65.79-4.09 1.23-5.78.73-2.78.46-2.74 1.7-3.17.53-.18.72-.32 1.45-.32 0 1.63-1.19 4.7-1.67 6.33-.3 1.03.93.56 2.14.63l1.47-.01zm16.09-7.1.47-.01v.62h-.65l.18-.61zm32.92 7.25c.11.44.65 1-1.32 1.83-.77.32-1.38.45-2.24.64.19-.5 0-.13.52-.59.57-.51 1.53-1.33 1.87-1.93.88-1.54 1.35-6.04 1.69-7.98.25-1.46.74-.25 3.23.3.36 1.47-1.3 5.17-2.04 6.24-.94 1.35-.58 1.48-1.69 1.48zm-24.34-9.73c.74.51.07.57.61 2.2.17.52.19.12.21.89.45-.31.32.01.32-.77h.16c0 .42-.03.47.09.85 0 .01.13.3.14.33l.96 2.94c.17.43.17.4.35.75.26.51.52 1.02.57 1.62l-1.79-3.09c0 .83.35 1.74.68 2.45l1.76 3.73c-.97-.62-2.32-4.17-2.68-5.32l-.55-2.26c-.29-1.18-.83-3.12-.83-4.31zM29.09 48.68c-1.63 0-4.2.17-5.68-.15 0-1.46.49-2.44.77-3.59l.92-3.6c.25-.82.44-1.46.65-2.32.14-.59.38-1.96.64-2.33.49-.7 1.51-.39 2.36-.69 1.19-.41.91-.63 2.24-.09.53.21.66.25 1.36.26 1.73.02 1.21.32.35 3.9-.21.87-1.83 7.11-2.34 7.81-.41.55-.62.81-1.26.81zm6-2.47c1.94 0 1.97.17 2.8-3.2.25-1.02.68-2.92 1.26-3.75.39.18 1.79.35 1.79.77 0 1.13-1.23 5.47-1.8 7.09-.76 2.16-1.72 1.56-6.8 1.56-1.16 0-.01-2.55.21-3.66.22-1.1.45-2.04.79-3.11.41-1.33 1.17-4.97 1.77-6.04.48.04 1.05.29 1.42.51.62.35.53.46.36 1.17-.24 1.06-.54 2.08-.81 3.11-.27 1.03-.53 2.07-.81 3.09-.53 1.91-1.19 2.47-.16 2.47zm31.81-8.19c-.7.01-.89.16-1.78.16-1.43 0-2.73-.28-3.25.61-1.8 3.06 1.75 1.65 4.06 2.17 0 .7-1.38 7.72-2.76 7.72h-5.52c-1 0-.32-1.75 0-2.32 1.15 0 3.36.11 4.16-.21.78-.32 1.37-2.55 1.2-2.72l-2.17-.24c-.94-.06.04.08-.75.08-.72 0-.64-.15-1.46-.15-.23-.93.66-3.64.97-4.79.36-1.33.41-1.83 1.15-2 .52-.12.82-.07 1.34-.27 1.02-.39.29-.51 1.73-.51.35 0 1.04.69 2.28.76 1.53.09 1.1.48.8 1.71zM54.4 48.68h-4.87c-1.38 0-.84-.76-.44-2.89l.96-3.57c.17-.59.33-.94.5-1.69 1.11-5.03 1.25-3.75 2.88-3.75.96 0 1.56-.32 2.33-.57.92-.3 1.3.07 2.25.23.73.13.97-.2.41 1.7-.72 2.49-1.66 6.84-2.48 9.07-.27.74-.59 1.46-1.55 1.46zm-35.7-5.41c-.54 1.07-1.2 4.42-1.62 5.25-.88.2-1.29.29-2.27-.15.02-.76.31-1.37.49-2.01l2.72-9.77c.43-.61 1.09-.43 1.87-.69 2.02-.69 1.41-.51 4.01-.51 1.93 0 1.34.78.77 3.36-.26 1.18-.65 2.79-1.38 3.79-.9 1.24-2.1.18-4.59.73zm76.43-7.1h.32c.03 1.24.71.46.02 3.42-.17.72.2.21-.35.6 0-2.42.37-1.29 0-4.02zm-45.6 1.85c-1.47 0-2.34.12-3.57-.15.06-.67.16-.55 1.17-1.05.27-.14.25-.11.55-.25.66-.31 1.34-1.02 2.18-1.02 1.14 0 .41 2.47-.32 2.47zm34.73 9.42c.14-.56.4-.91.67-1.37 1.18-2-.08-1.12.73-2.86l1.31-4.01c.07-.3.12-.74.16-.93.1-.52.11-.46.23-.86l.63-2.8-.23 2.71c-.1.41-.19.46-.24.86-.23 1.86-1.63 8.21-3.26 9.25zm-16.39-9.27c.17-2.94 1.01-2.67 3.08-4.94 0 1.25-.05 3.42-.3 4.35-.54 1.97.31 1.22-1.76.86-.32-.06-.7-.12-1.02-.26zm14.93-3.55c-.62 0-.06.05-.49-.15.33-.47.2-.45.97-.46-.07.26-.19.62-.49.62zm12.98-4.33c.23.05 3.75 1.81 3.96 2.11.44.6 0 1.58-.06 2.38-.22 2.81.21 3.69-.92 3.21-1.14-.47-.77-.77-1.75-1.31-.35-.19-.8-.31-1.01-.58-.55-.68-.22-4.61-.22-5.81zm-15.74-1.08c1.16 1.59-1.74.88 0 0zm14.12 1.39c0 .43-.13.32-.41.54-.24.19-.35.25-.57.39l-1.62-.93c-.61-.39-1.24-.53-1.62-1.08.2-.81 1.59-2.01 1.62-2.01.47 0 .44.05.82.3 2.64 1.76 1.37.36 2.63 2.29.41.63.28.82.28 1.74-.64-.7-.27-2.19-1.46-2.32.14.27.32.69.32 1.08zm-55.34-1.24c0 1.59-2.36-1.26-5.36 1.23-1.33 1.11-2.08 3.94.14 2.93.86-.39 3.14-3.54 3.27-3.54 1.91 0 .32 1.65.32 3.09 0 1.39 1.97.56 3.04-.51.72-.72.99-1.2 1.55-1.92 2.58-3.33 7.26-2.88 7.26-1.43 0 .42-.08.43-.16.77-1.03-.02-.38-.46-2.76-.46-1.36 0-2.56.95-3.12 1.97-.26.47-.98 2.21.2 2.21 1.97 0 3.27-3.71 4.22-3.71 1.87 0-1.05 3.8-1.14 4.79.74-.06 1.61-.82 2.15-1.35.55-.53 1.41-1.22 1.81-1.83.9-1.35 1.27-3.16 3.99-3.16 1.59 0 2.11.81 2.11 2.16 0 1.02-.89 1.51-1.61 1.86-1.29.63-1.46.3-2.93.3.08.86.87 1.54 1.78 1.54 2.06 0 4.59-2.52 5.33-4.2.02-.03.03-.07.05-.11.16-.38.33-1.1.79-1.1.72 0 .84.21.97.77.76-.38 3.24-1.89 3.41 0 .16-.04 3.73-2.55 3.73-.15 0 1.39-2.26 4.15-.85 4.13 1.46-.02 2.17-2.42 3.61-2.74.6.85-.17 1.73-.98 2.47-.19.17-.2.2-.31.32-.33.36-.89.79-1.3 1.08-2.26 1.57-3.98.21-3.62-1.42.15-.65.34-.82.65-1.41.34-.65.65-.77.69-1.51-1.06.08-1.87 1.2-2.39 1.89-.63.84-.91 2.06-1.5 2.9-2.77.3-.91-2.67-.18-3.73.36-.53.33-.25.34-1.06-2.1.31-2.9 4.36-4.06 5.1-.85-.2-.57-.51-1.35-.93-1.17 1.1-3.8 1.75-5.26.58-.76-.62-.53-.73-1.12-1.51-1.36.71-2.06 1.79-3.9 2.51-1.35.53-.88.57-1.7 1.47-1.59 1.73-5.48 1.27-5.48.03 0-3.64 4.52-.29 5.68-3.09-.92.07-1.06.62-2.6.62-1.08 0-1.13-.71-1.57-1.24-1 .53-2.03 1.54-3.3 1.54-1.1 0-1.93-.57-1.95-1.7-.81.06-.72.42-1.37.85-.71.47-2.33.89-3.06.12-.54-.58.01-.39-.6-.82-.97.25-1.14 1.19-2.82 1.31-1.67.13-2.54-.61-2.54-2.09 0-1.17 1.17-1.69 1.51-2.47-2.43 0-.71 1.65-3.15 2.46-.61.2-1.15.09-1.66.27-.66.31-2.32 2.96-4.68 1.16-.59-.44-.68-.97-1.1-1.27-.7.18-4 3.58-6.83 1.41-2.16-1.65-.56-6.51 2.94-6.51 1.67 0 3.13 1.8 1.57 2.75-.72.44-.75.03-1.24-.28.08-.89.47-1.86-1.13-.92-.68.4-1.03 1.13-1.2 1.96-.17.81-.01 1.62.79 1.98.8.36 1.72 0 2.41-.34.95-.47 1.95-1.19 2.58-2.02.27-.36.35-.66.56-1.01 1.18-1.95 5.89-3.35 5.89-.58 0 0-.95 2.71.68 2.22 1.75-.52 1.27-1.96 1.27-2.84 0-.44.68-.93 1.14-.93.73 0 .61.69.81 1.24 1.67-.13 2.58-1.63 3.73-.51-.39.83-4.29 3.75-2.41 4.68.43.21.76 0 1.21-.21 1.57-.73 2.12-2.3 3.27-3.39 3.49-3.29 6.86-1.77 6.86-.73zm42.03-.46c.06-2.58 1.36-1.51 1.79-1.24v1.08l-1.79.15zm5.84-.46c.68 0 .66.06 1.14-.15-.19-.66-.98-.83 0-1.08.21.41.16-.13.16.46 0 1.28.02 1.08-1.3 1.08v-.31zm-18.8-.62c.15-.53.37-1.19.95-1.39 0 1.23-.1 1.11-.32 2.01-.4-.26-.34-.21-.62-.62zm11.66-1.39c.83-.07.22-.12.97-.31-.19.77-.49 1.85-.49 2.78h-.65l.16-2.47zm5.68 5.1c-1.25-.1-.37-.91-.55-2.24-.17-1.22-.02-2.34-.14-2.97-.07-.37-.29-.65-.29-1.12 0-.56.93-.34 1.3-.31.15.42.21.94.27 1.28.16.9 1.01 1.64-.44 1.96.02-.9.6-1.15-.49-1.24-.11.45-.2.61-.18 1.24.02.8.15.58.34 1.08h.49c-.16-.66-.28-.75.65-.77-.09 1.07-.35-.23-.32 2.16.02 1.66-.49 1.85.32 1.85.59 0 .66-.09.81-.62h.65c.22.91.05.35-.16 1.24-.96-.08-.34-.31-.97-.31-.88 0-.39.44-1.62.46.1-.37.19-.39.21-.53.04-.3-.01-.1-.05-.35 0-.02-.02-.06-.02-.08l.02-.28c.08-.37.02.14.16-.46zm-4.22-4.79c-.08-.17-.33.02.04-.4.24-.28.2-.22.93-.22-.01-.62-.07-.57-.32-.93.54-.77.29-.64.81-.77.21.41.16-.13.16.46v1.24c-.54.27-.38.15-.97.32-.93.26-.05.5-.65.3zm2.16-2.57c1.01.7.47.88.87 2.01.34.95.39 4.78.1 5.56-.56 1.55-.01 1.57-.86 2.11 0-.98.34-1.31.51-2.3.2-1.22.21-4.07 0-5.29-.16-.96-.24-.75-.49-1.55-.06-.19-.11-.49-.12-.55zm14.88 1.65c.04.4-.01.65.43.57.44-.08.33-.28.4-.69.1-.56.23-1.23-.03-1.73-1.71-.78-1.95.92-1.95-2.16.63.44.12.36.49 1.08.79-.06.26-.09.65-.16s.04-.1.37.01c.66.23-.16.39.93.15 0 1.03-.05 1.69-.14 2.49-.17 1.5.35 1.65-.35 2.14v-.77c-.77 0-.67-.11-1.3-.15-.47.67-.26.62-.65.77l.65.31c-.3.42-.26.48-.65.62-.46-.91-.26-.88-.17-1.86.15-1.65-.36-1.52.34-2 .26.51.16 1.12.16 1.85.58-.05.27-.02.49-.15.03-.02.07-.05.09-.07l.16-.16c.01-.05.04-.06.07-.09zm-15.9-2.93c.07-.75.25-.64.81-.93.18.32.63.93-.16.93h-.65zm-67.51 4.02c0-.18.79-2.57.92-2.99.85-2.85.36-2.42 4.11-2.42l2.11.15c-.01.63-.24.97-.47 1.86-.18.71-.35 1.2-.5 1.84-1.05 0-2.61-.19-3.25 0v.77h2.6c.84 0 .22 1.09.02 1.25-.8.6-3.69.14-4.41.15-.93.01-1.13.21-1.13-.62zm76.31.35c-.09.13-.14.15-.29.34-.16.2-.08.09-.2.27-.31.48-.39.65-1.01 1.05.01-.39-.07-.36.1-.68.25-.49 1.39-.91 1.47-1.97.21-2.84-.59-3.87-.59-6.16.57.4.15.05.54 1.96.22 1.08.6 4.33-.01 5.18zm-78.1-5.75c.08-.33.17-.64.29-.96.2-.55.2-.28.2-1.04 2.65 0 2.68-.19 2.42.73l-2.26 7.31-6-.15c.01-.59 1.4-5.09 1.95-5.87h3.41zm68.16-1.7c-.56-.14-.5-.08-.65-.62.74.16.58.03.65.62zm-5.68 6.18c0-.13.27-1.11.32-1.54.22-1.96.14-1.27.59-3.15.13-.56.24-1 .38-1.49.82-2.73 3.62-6.21 6.11-2.25 2.24 3.58.47 3.61 1.36 5.01.82-.15.39-.13.32-.9h.32c.05.62.07.5.49.77.21-.41.16.13.16-.46 0-.54-.65-.41-.16-1.24.37.09.65.15.65.62 0 1.57-.65.46-.65 2.16.75-.06.67-.36 1.95-.46 0 1.05.21 1.1-.49 1.54 0-.63.05-.5-.16-.93-.5.13-1.4.57-1.95.62l-.16-1.36c-.65.12-.47.02-.49.75-.94-.28-.16-.41-.16-1.08 0-.67 0 .07-.24-.56l-.29-.9c.02-.34-.23-.09.21-.25v-.46c-.83-.02-.48.14-.89-.39-.13-.17-1.29-2.23-2.8-1.26-.39.25-.26.24-.3.54-.19 1.48-.14.23-.39 1.11 1.47-.33.27-.59 1.66-.03l.54.11c.12.01-.04-.07.32.03.7.19.03.17.72.35-.17.68-.19.83-.65 1.24-.47-.33-.31.02-.32-.77-.72.04-.74.08-1.04.55-.22.35-.38.7-.42 1.15.33.15.89.22 1.3.31-.06.65-.13.72-.81.77v.46c.18.07.62-.1 0 .77h-.49c-.09-.8.19-.28-.32-.46-.1.19-.29.65-.34.89-.14.65.07.06-.04.77-.09.56-.5.94-.37 1.83.42 2.82.05 1.03.07 1.94l.3.63c.07.18.17.7.22.89.38-.26.55-.65 1.01-.89.63-.33.27-.06.76-.2 1.14-.35.18-.6.3-1.04.11-.43.63-.33 1.18-.33 0 1.1-.28.87-.49 1.7h-.97c-.16.96-.65.94-.65 1.39 0 .99.15.57.73 1 .29.22.39.44.57.7-.95.05-.73.9-1.14-.77h-.65c-.09 1.05-.28.56-.81.77.57 2.31 1.67 1.28 2.27 1.24-.19.37-.95.93-1.3.93-1.1 0-.29-.09-1.14-.31.05.6.21.53.59.82.33.26.49.41.7.72.79-.26 1.94-.34 2.27-1.7-1.05.27-.68 1.11-2.27 1.24.14-.49.18-.34.94-.96 2.07-1.71 2.23-.44 2.8-2.74 1.49.12 1.3.28 1.3 1.54.64.01.38-.04.84.18l-.51.59c.3.43.58.41.31.66-.39.38-.44-.14-.47-.51-1.12-.02-.33-.23-1.3-.31.04 1.51.72.39-.11 2.06-.48.96-.41 1.86-1.75 3.58-1.01 1.29-1.57 1.16-2.52 1.16-.73 0-2.37-1.83-2.43-2.78 1.23-.03.84-.69 1.95-1.08.11.81-.11.38-.32 1.24.45-.11.81-.25.81-.77 0-1.67-2.2-.53-2.43.31-.81-.52-1.44-2.91-1.46-3.86.8.37 1.57.13 1.78-.64l-.97.18c.45-.64.49-.28.49-1.42l.97.18c-.17-1.02.25-.93-1.46-.93-1.49 0-1.46 3.04-1.46-6.8zm-62.92-5.98c-.13.47-.12.22-.21.73h-1.46c.02-.7.16-.61.16-1.39v-3.09c0-.49-.16-.43-.16-1.08 0-.43.53-.75.81-.93.47.43.98 1.93 1.89 3.29.36.54.55.49.7 1.03-1.65 0-1.42.32-1.74 1.43zm39.55 7.22c0-.87.3-1.74.51-2.45l2.59-9.27c.81-2.1 2.43-1.28 4.69-1.41.72-.04.62-.17 1.27-.13.46.03.6.13 1.32.13 0 2.01-.66 3.32-1.1 5.13-.35 1.45-.68 2.78-1.11 4.2-.98 3.28-.8 4.24-3.97 4.21-.53 0-.4-.15-1.22-.05-.44.06-3 .31-3-.37zM28.1 20.74c.65-.17.5-.34.77-.97.34-.81 2.57-5.17 2.94-5.4.5-.31.65-.16 1.33-.14 1.9.07 1.13.31.33 3.9l-2.12 8.02c-.28 1.04-.13.65-.65 1.39h-1.79c-.48-1.97.49-1.61.49-3.71-.78.2-1.36 1.9-1.71 2.7-.24.55-.48.94-1.13 1.08-2.12.46-1.21-2.08-1.21-5.16l-1.14 2.78c-.19.69-.31 2.32-1.13 2.32-1.55 0-2.33.7-.87-3.92l1.15-4c.08-.41.05-.55.15-.94 1.39-5.42.89-4.42 4.12-4.42 1.59 0-.3 5.15.49 6.49zm13.14 6.8c-.83 0-.42-1.09-.31-1.68l2.4-8.84c.6-1.82.43-2.91 1.64-2.91 1.79 0 1.51.34.49 4.02-.3 1.08-.61 2.15-.91 3.31-.31 1.17-.6 2.13-.91 3.31-.84 3.22-.64 2.81-2.4 2.81zm20.77-6.33c0-1.15.75-3.32 1.07-4.39 1.03-3.42 1.1-2.87 6.72-2.87.56 0 .63.11 1.14.15 0 1.05-.27 1.79-.65 2.47l-4.05.16c-1.01.17-1.56 2.21-1.31 2.46 1.08.49 3.3-.18 4.38.31.39.37-1.32 6.08-1.62 6.65-1 1.94-1.12 1.38-6.82 1.38-.37 0-.49-.11-.49-.46 0-1.49.33-1.77 1.07-1.91 2.26-.44 3.58.63 4.4-1.06l.57-1.65c0-.01-.01-.04-.01-.08 0-.39-.43-.51-.81-.52-.77 0-3.59.62-3.59-.65zm-26.28-6.92c2.27-.32.95-.12 2.1-.03.06.68.13.52-.06 1.32-.12.49-.22.89-.37 1.36l-2.33 7.98c.63.29 1.29.42 2.03.08.97-.45 1.73-4.71 2.21-6.24 1.06-3.39.49-5.14 3.39-4.5 0 1.12-.2 1.84-.47 2.64l-1.98 7.38c-.79 3.13-1.25 3.34-2.9 3.09-1.04-.16-1.73-.01-2.8.14-3.37.48-2.28-.42-1.01-5.29l1.23-4.85c.13-.47.3-1.03.45-1.58.16-.57.35-.98.49-1.52zm11.84-.18c.5 0 1.24-.04 1.44-.05l3.59-.11c.9 0 .96.15 1.78.15.2.81-.11 1.45-.32 2.32-1.65.37-1.81-.07-2.28.76l-.65 2.16c-.21.93-.52 1.93-.76 2.83-.47 1.72-.79 3.91-1.82 5.37-2.93-.23-1.45-1.76-1.13-3.4.16-.85.4-1.72.63-2.49.26-.87.51-1.64.71-2.57.42-1.94.74-1.18.77-2.36-.64-.14-.63-.15-1.47-.15-.71.01-.95.13-1.09-.34-.13-.42.45-1.85.62-2.14zm23.21 16.06c-.67 0-1.02.13-1.47.45-.47.33.28.06-.47.32l.59-3.91c.2-.72.19-.57 1.03-.57.09-1.03.57-1.19-.38-1.34l-.92-.2.64-2.63c.15-.44.17-.19.17-.92h.16c0 .98-.16 1.25-.16 2.26.85-.27.31.13.5-.56l.94-4.69c.15-.55.44-.1-.02-.67-.67.53-.27.61-.54 1.34-.86-.49.28-.64-2.16-.62-.84.01-2.02.11-2.6-.15.15-.61.04-.59.79-.64.76-.05 3.77.16 4.24-.29l.97-3.09c.18-.89.22-.75.84-1.21.46-.34.61-.83 1.28-.95-.03 1.22-1.23 1.52-1.08 2.16.33 1.48 1.67-1.81 2.71-2.47-.24.98-1.46 1.94-1.99 3.98-.19.72-.31 1.54-.52 2.44l-1.62 10.35c-.47 3.2.18 1.61-.9 1.61zm6.98-17.3c.19-.68.98-1.23 1.51-1.65 4.43-3.59 6.77 4.43 6.77 4.43 0 .33-.06.2-.16.62-.15-.17-.08-.04-.27-.36-.69-1.18.24.05-1.35-2.27-.38-.55-1.35-1.85-2.27-1.85-1.25 0-2.14.02-3.27 1.36-.25.29-.48.67-.71 1.02l-.83 1.01c.39-1.41.97-1.52 1.41-2.63-.6.15-.21.16-.81.31zm-3.57 4.63c0-1.43.66-2.36 1.53-3.49l1.04-1.48c1.21-1.43.35-.8 1.17-1.2l-1.53 2.25c-.6.84-1.64 2.29-1.84 3.19-.17.78.2.34-.36.73zm.32-5.71c.04-.65.44-1.29.81-1.54.41.69-.38 1.43-.81 1.54zm-11.52-1.08c.01-.43.12-.37.49-.46-.13.47 0 .34-.49.46zm13.31.31c0-.96.33-1.22.97-1.54-.04.51-.13.51-.39.87-.25.35-.27.45-.59.68zm10.06 3.86h-.16c0-1.92-2.7-5.21-2.76-5.87.91.58 1.51 1.57 1.92 2.49.24.54.39.99.58 1.61.26.89.42.61.42 1.76zM72.24 9.17c.09-.35.13-.36.16-.77l.3.01.19.3c-.28.4-.08.32-.65.46zM14.92 6.9l.04 1.65-1.12.49c-.36.17-.54.33-.99.44-.11-.31-.16-.26-.16-.62l2.23-1.96zm67.06.26v-.31c.94.07 2.03.95 2.76 1.39 1.76 1.05 2.42 1.21 3.58 3.08.52.84.68 1.66.97 2.48.25.73.4 2.27.86 3.66.19.57.27 1.65.27 2.36h-.16c0-.79-.02-.57-.22-1.18l-.42-1.61c-.26-1.26.06-.7-.43-2.22l-.44-1.44c-.83-3.07-2.19-3.72-5.06-5.37-.57-.33-1.07-.69-1.72-.84zm-68 4.94v-.46c-2.53.64 1.89 5.29 2.11 6.18-.97.22-.75.32-1.43-.34-1.28-1.25-1.51-2.31-2.11-3.71-.8-1.85-2.73.71-2.76 1.58-.02.61.07.24.06.74 0 .19-.08.42-.09.79-.42-.29-.38-.6-.65-1.08-1.98 0-.7.93-3.08.93.06-.64-.07-.35.41-.69.6-.43 2.02-1.33 2.25-2.03.12-.35.06-.5-.05-.83-.2-.58-.53-.8-.83-1.24-1.06.23-1.52.84-2.11 0 .19-.67.33-.45.86-.89.32-.26.64-.58.57-1.08-.09-.68-1.05-1.71-1.1-2.36.5.32 1.42 2.03 1.46 2.16 1.44 0 .94.02 1.79-.61.4-.3.95-.62.92-1.21 0-.09-.77-1.91-.77-3.73.59 0 .89-.28 1.32 1.06.22.67.25 1.84 1.51 1.35.7-.28 1-.94 1.88-1.01-.03 1.19-.84 1.42-1.9 2.37-1.05.94-.33 1.87.27 2.73.3-.14.5-.17.8-.32.81-.4 1.18-.9 2.28-.92v-.46c.31-.87-.07-1.69.43-2.22.61-.65 2.87-.88 1.67 1.89-.09.21-.26.62-.42.84-.24.32-.19.36-.7.42h-.49l.49.46c-.42 1.12-.65.6-.65 2.16.98 0 1.05.16 1.6-.33 2.15-1.91 1.16-2.78 1.35-3.96.13-.81 1.09-1.9 2.13-1.17.47.33.51.68.45 1.44-.06.85-.38.8-.23 1.29.34.84 1.64.62 2.02-.18.75-1.57 1.93-2.59 3.9-2.79 1.38-.14 1.69.3 2.41.76l-.14 1.11c-.26.75-.3 2.5 1.13 1.69 1.01-.58 1.33-2.09 1.94-2.95h.97c.18.64.29.59.9.27.37-.2.62-.42 1.04-.58.79-.31 1.85-.47 2.2.39.56 1.36-1.68 3.62-1.23 4.56.72.68 2.51-1.48 2.85-1.92l1.69-3.18c-1.34 0-1.23-.02-2.11-.46 0-2.26.36-.68 2.25-.96.87-.13.73-.22 1.03-.86.23-.47.93-2.06 1.31-2.31.35-.22 1.19-.35 1.62-.08.5.31.21.35.16.52-.13.43.04-.08-.1.21-.27.59-.7 1.01-.76 1.62.77-.06 1.22-.53 2.07-.43 1.97.21 1.7 2 .52 2.29-1.29-.1-.79-.76-2.75-.31-1.2.28-1.1.63-1.66 1.51-3.17 5.01-1.33 5.9 1.51 3.29l.32-.32c.86-.93 1.35-1.92 2.3-2.76 2.72-2.4 7.68-1.77 6.13.43-.91-.07-.57-.58-1.95-.63-3.88-.13-5.81 5.16-3.17 4.27 1.73-.58 2.28-2.92 3.66-3.8.36.18.49.26.81.46-.1 1.15-.65 1.51-.61 3.06l.45.5c1.15-.02 2.1-.82 2.72-1.42 2.16-2.09 2.08-4.29 7.66-4.29l1.55-2.85c1-1.59.37-1.66 2.67-1.48-.02.68-.16.76-.46 1.26L63.12 8.7c-.3.59-1.92 2.69-1.31 3.26.72.68 2.61-1.33 2.98-1.68.92-.86 1-1.86 2.18-2.86 1.38-1.17 5.11-.88 4.48 1.3-.19.65-.43 1.1-.9 1.48-1.54 1.23-2.18.85-3.85.81.08.88.68 1.5 1.63 1.55 1.68.1 3.16-1.21 4.17-2.22.27-.27.5-.58.76-.83 1.03-1.01 1.93.12-.24 2.25l-1.16 1.06c-.8.52-4.82.19-6.13.19l-.28-.5c-.3-.47.02-.37-.69-.42-.12.43-.2.37-.5.61-1 .79-1.01.31-2.42.32h-1.95c-.01-.61.04-.36-.16-.77l-1.29.78c-.09.01-.53 0-.65 0-1.33-.02-1.46.28-2.44.3-.08-.13-.14-.25-.23-.4-.02-.04-.11-.16-.12-.19l-.13-.18c-.82.21-.17.3-.99.45-1.1.2-3.05.02-4.2.02-.21-.41-.15-.17-.16-.77-.4.1-.42.15-.65.46l-3.9.46c-.29-.52-.01-.29-.49-.62-.92.23-.59.76-2.59.74-2.48-.03-1.53.26-2.44.49-.55-.36-.52-.54-.81-1.08-.96.52-.65.66-1.89.55-1.08-.1-1.29.19-2.49-.08-.35-.99.04-1.8.43-2.53.46-.85.98-1.12.87-1.95-1.62.13-2.56 2.02-3.2 3.14l-.44.82c-.29.58-.48.57-.91.98-.1.09-.04.11-.32.31-1.16-.74-.47-.71-.85-1.67-.41-1.03-1.19.1-1.46.4-.91 1.02-2.07.65-4.51.65-.31-.56-.65-.87-.81-1.54-3.14 0-1.41-.08-2.92-.46-.37.26-.38.41-.65.77-1.4 1.91-4.98 3.23-5.52 0zm83.25 6.49c0-.73-.64-.14-.66-1.53-.02-1.3-.03-2.46-1-3.38l-1.71-1.46c-.23-.21-.34-.33-.57-.54l-.83-.75-.08-.08c-.85-.79-1.5-1.57-2.46-2.3-1.77-1.35-2.73-2.89-4.68-4.05-.26-.15-.46-.26-.7-.41-.24-.15-.08-.08-.39-.25l-1.69-1.02c-1.28-.71-1.09-.88-1-2.03l-.15-.77c-.48.24-.29.31-.35.94-.17 2.1-.18 1.4 2.68 3.2 3.31 2.08 1.65.84 4.44 3.5.43.41 6.3 5.57 6.69 6.14-.72-.16-1.08-.59-1.79-.77l.62.65c2.22 1.45 2.23.61 2.29 3.54.02 1.16.3.79.82 1.53-.16.57-.21.31-.51.9-.51.99-.29 2.57-.42 3.61-.18 1.45-.36 3.56-.36 4.91 0 .36.32.69.49.93-.56-.12-1.1-.52-1.59-.8-.76-.44-2.57-.96-2.56-2.08.01-.71.25-1.11.25-2.06 0-.85-.84-5.05-1.12-6.04l-1.03-4.43c-.35-1.38-.96-2.54-1.71-3.61-.75-1.07-5.83-4.14-6.85-4.14-2.03 0-1.78 1.45-3.06 2.03-.95.44-1.78 1.75-2.78 1.83l-.65-1.39c-2.51 0-1.91.1-2.83-1.33-1.24-1.93-4.35-1.35-5.82-.1-1.4 1.19-.9 1.95-1.9 2.05-.27-.55.29-1.22.62-1.73.66-1.03 2.63-4.07 2.63-5.07 0-.14-.51-.69-.65-.78-1.09-.73-1.89.05-2.92.31-.05-.59.17-.54-.4-.51.15 1.04-.25 1.83-.79 2.78l-.92 1.75c-1.74 0-2.89.09-4.23.91l-2.57 2.34c-1.21 1.83-3.95 3.74-2.15.43.4-.74.11-.13.61-.66.18-.19.4-.46.4-.7 0-3.58-4.2-2.1-4.9-2.25-.54-.12-.21-.81-.45-1.31-.21-.44-.53-.62-1.09-.82-.43-.15-.78-.26-1.51-.26.1-1.13.45-1.96-1.35-2.1-1.67-.13-2.22.95-2.81 2.15-1.39 2.81-1.76.07-3.42 1.38-.47.38-.23.19-.37.74-.35 1.41-.8-.28-3.25.93-1.06.52-.47-.01-1.94-.01-1.91 0-1.36 2.51-2.6 2.93-.23-.54.27-.59.26-1.38-.01-1.73-2.02-2.31-3.65-2.01-1.28.24-2.03.58-2.89 1.27-1.18.94-1.16 1.95-1.83 2.12.11-1.3.67-2.09-.44-2.98-1.36-1.09-1.95-.03-2.97.05-.19-.67-.77-1.06-1.54-1-1.15.09-1.19.42-1.87.85 0-.53.07-.86-.12-1.28-.17-.38-.29-.58-.69-.58-1.65 0-1.47.99-2.6 1.08-.5-.98-.86-2.78-2.43-2.78-1.7 0-.71 2.71-.59 3.5.05.35.15.76.23 1.01.17.52.18.14.2.89-.74.18-.47.4-1.3.46-.21-.76-.96-1.81-1.41-2.52-.26-.41-.3-.38-.55-.72-.43-.57-.6-1-1.19-1.35-.69-.4-1.39.26-1.39.73 0 1.52 2.6 3.97 2.6 5.41 0 .51-1.9.44-1.69 1.65.1.56 1.22 1.44 1.85 1.44.61 0 1.46-.71 1.46.15 0 .69-1.14 1.35-1.71 1.77-1.4 1.02-3.28 2.05.37 2.46 1.47.17 1.13-.32 2.16-.73.1.45.2.58.29 1 .21.93.27 1.95.68 2.75-.84.42-.96.33-1.27 1.26l-1.1 3.59c-.68 1.99-.51 1.15-.38 2.57.78.17 1.25.04 1.96.17.9.15.2.43-.2.89-1.11 1.25-1.77 4.31-.45 5.73 2.3 2.45 5.18 1.25 7.61-.29.45.28 1.22.8 1.46 1.24.22.4-.45 2.62-.57 3.01-.32 1.04-.65 2.01-.89 3.01h-5.52c.02-.93.32-.67.32-1.39 0-.15-.62-.77-.97-.77-4.54 0-2.66.04-3.73 2.16-3.05 0-3.61-.54-4.29 1.94-1.7 6.2-3.03 5.63 3.15 5.63h13.14c.32-.87.61-1.76.87-2.72l.75-2.84h4.06c0 2.64-2.87 5.71.49 5.71 1.75 0 4.35.26 6.01-.16.45-.11.48-.22.87-.16 2.53.42 4.32.33 6.92.33.71 0 .89-.31 1.3-.31.42 0 .69.31 1.46.31h14.61c.67 0 .33-.28.93-.23.44.04.18.18 1.01.23.77.05 1.8-.01 2.6-.01 1.81 0 3.17.07 4.87.15 3.22.15 6.69-.04 9.9.17 6.4.42 13.25.3 19.96.3-.14-.5.01-.3-.48-.47-.01 0-.83-.13-.85-.13-.67-.04-.93.16-1.43-.17 1.04-.08 2.38-.6 3.23-.94.42-.17.34-.11.72-.39 1.36-1.03 3.12-4.37 3.77-5.99l.33-1.08c.37-2.29.3-.3.38-3.65.02-.83.24-1.07.31-1.71.08-.66-.03-1.24.09-1.93.3-1.82-.18-1.86-1.45-2.46-1.28-.6-1.86-.44-1.86-2.24 0-.85 2.65.55 2.6-2.16-.04-2.39 1-5.19-.29-6.07-.4-.27-.56-.24-1.18-.26-1.65-.05-.97-.93-.97-2.01z"/><path class="fil1" d="M41.74 37.56c-1.55 0-1.61-.77 0-.77.56 0 .63.11 1.14.15v.31c-.4.09-.75.31-1.14.31zm10.87-6.02c-1.33 0 .59-1.85 1.46-1.85.82 0 .98.55.68 1.09-.45.8-1.36.77-2.14.77zm-35.05.62c0-1.24 1.68-2.94 3.08-2.47-.17.4-.06.17-.4.4-1.95 1.33-.33 2.04.07 3-1.13 1.61-2.76.33-2.76-.93zm21.58 5.56c0 1.24 3.9 1.7 5.48-.03.82-.9.35-.94 1.7-1.47 1.85-.73 2.55-1.8 3.9-2.51.59.78.36.89 1.12 1.51 1.46 1.17 4.09.52 5.26-.58.79.41.5.72 1.35.93 1.16-.74 1.96-4.78 4.06-5.1-.01.81.02.54-.34 1.06-.73 1.05-2.59 4.03.18 3.73.59-.84.87-2.06 1.5-2.9.53-.7 1.33-1.81 2.39-1.89-.04.74-.35.86-.69 1.51-.31.58-.5.76-.65 1.41-.36 1.62 1.35 2.99 3.62 1.42.41-.29.97-.72 1.3-1.08.11-.12.12-.15.31-.32.81-.74 1.58-1.61.98-2.47-1.43.32-2.15 2.72-3.61 2.74-1.42.02.85-2.74.85-4.13 0-2.39-3.57.11-3.73.15-.16-1.89-2.65-.38-3.41 0-.14-.56-.25-.77-.97-.77-.46 0-.63.72-.79 1.1-.01.03-.03.08-.05.11-.74 1.68-3.27 4.2-5.33 4.2-.92 0-1.71-.68-1.78-1.54 1.47 0 1.64.33 2.93-.3.73-.35 1.61-.84 1.61-1.86 0-1.36-.52-2.16-2.11-2.16-2.71 0-3.08 1.8-3.99 3.16-.4.6-1.26 1.3-1.81 1.83s-1.42 1.29-2.15 1.35c.09-.99 3.01-4.79 1.14-4.79-.95 0-2.25 3.71-4.22 3.71-1.18 0-.46-1.73-.2-2.21.56-1.01 1.76-1.97 3.12-1.97 2.38 0 1.72.44 2.76.46.08-.35.16-.36.16-.77 0-1.44-4.68-1.9-7.26 1.43-.56.72-.83 1.21-1.55 1.92-1.07 1.06-3.04 1.89-3.04.51 0-1.44 1.59-3.09-.32-3.09-.13 0-2.41 3.15-3.27 3.54-2.23 1.02-1.48-1.82-.14-2.93 3-2.49 5.36.36 5.36-1.23 0-1.04-3.37-2.56-6.86.73-1.15 1.08-1.7 2.66-3.27 3.39-.45.21-.78.42-1.21.21-1.88-.93 2.02-3.85 2.41-4.68-1.15-1.11-2.06.38-3.73.51-.2-.54-.08-1.24-.81-1.24-.46 0-1.14.49-1.14.93 0 .88.48 2.32-1.27 2.84-1.63.49-.68-2.22-.68-2.22 0-2.78-4.71-1.38-5.89.58-.21.35-.29.65-.56 1.01-.63.83-1.63 1.56-2.58 2.02-.69.34-1.61.7-2.41.34-.8-.36-.96-1.17-.79-1.98.17-.83.52-1.56 1.2-1.96 1.59-.94 1.21.03 1.13.92.49.31.52.72 1.24.28 1.56-.95.1-2.75-1.57-2.75-3.5 0-5.1 4.86-2.94 6.51 2.84 2.17 6.13-1.23 6.83-1.41.42.3.52.82 1.1 1.27 2.36 1.79 4.02-.85 4.68-1.16.51-.18 1.05-.07 1.66-.27 2.44-.81.72-2.46 3.15-2.46-.34.78-1.51 1.3-1.51 2.47 0 1.47.86 2.21 2.54 2.09 1.68-.13 1.85-1.07 2.82-1.31.62.43.06.24.6.82.73.77 2.34.36 3.06-.12.65-.43.56-.79 1.37-.85.02 1.13.85 1.7 1.95 1.7 1.27 0 2.3-1.02 3.3-1.54.43.53.49 1.24 1.57 1.24 1.54 0 1.67-.54 2.6-.62-1.16 2.8-5.68-.55-5.68 3.09zM67.21 9.76c.02-1.04 1.39-1.85 1.62-1.85 2.12 0 .82 1.45.05 1.75-.68.27-1.01.14-1.67.1zm-42.52 1.08c0-.7.63-1.56 1.05-1.94.69-.63 1.02-.73 2.2-.69-.36.69-1.3.5-1.3 1.24 0 1.14-.19 1.6.81 1.85-.04 1.75-2.76 1.42-2.76-.46zm32.29 1.24c-.26-.74-.12-1.23.21-1.81.15-.28.75-1.01.98-1.23 1.11-1.06 2-1.29 3.35-1.29-.05.61-1.25 2.16-1.69 2.72-.86 1.1-1.55 1.61-2.86 1.61zm-40.41-1.7c-.5.04-1.68.74-2.11 1.08-.45.35-.34.41-.49.62.54 3.23 4.11 1.91 5.52 0 .26-.36.28-.51.65-.77 1.51.38-.22.46 2.92.46.16.67.5.99.81 1.54 2.43 0 3.59.37 4.51-.65.26-.3 1.05-1.43 1.46-.4.38.96-.31.93.85 1.67.29-.2.23-.22.32-.31.43-.41.62-.41.91-.98l.44-.82c.64-1.11 1.58-3.01 3.2-3.14.12.83-.41 1.1-.87 1.95-.39.73-.78 1.54-.43 2.53 1.21.27 1.41-.02 2.49.08 1.24.12.93-.03 1.89-.55.29.54.26.72.81 1.08.91-.23-.04-.52 2.44-.49 2 .02 1.67-.51 2.59-.74.47.33.2.1.49.62l3.9-.46c.23-.31.24-.36.65-.46.01.61-.04.36.16.77 1.15 0 3.1.18 4.2-.02.82-.15.17-.24.99-.45l.13.18c.02.03.1.15.12.19.1.16.15.27.23.4.98-.02 1.11-.33 2.44-.3.12 0 .56.01.65 0l1.29-.78c.21.41.15.17.16.77h1.95c1.41-.01 1.42.47 2.42-.32.3-.23.38-.18.5-.61.72.06.39-.04.69.42l.28.5c1.32 0 5.33.33 6.13-.19l1.16-1.06c2.16-2.13 1.27-3.26.24-2.25-.25.25-.49.56-.76.83-1.01 1.01-2.49 2.32-4.17 2.22-.95-.06-1.55-.68-1.63-1.55 1.67.04 2.31.42 3.85-.81.47-.38.72-.83.9-1.48.63-2.19-3.09-2.47-4.48-1.3-1.18 1-1.26 2.01-2.18 2.86-.37.35-2.26 2.36-2.98 1.68-.6-.57 1.01-2.68 1.31-3.26l2.95-5.22c.3-.51.44-.59.46-1.26-2.29-.18-1.67-.11-2.67 1.48l-1.55 2.85c-5.59 0-5.5 2.2-7.66 4.29-.62.6-1.57 1.4-2.72 1.42l-.45-.5c-.03-1.54.51-1.9.61-3.06-.32-.21-.45-.28-.81-.46-1.38.88-1.93 3.22-3.66 3.8-2.64.88-.71-4.4 3.17-4.27 1.38.05 1.04.56 1.95.63 1.55-2.2-3.41-2.83-6.13-.43-.95.84-1.44 1.83-2.3 2.76l-.32.32c-2.84 2.61-4.68 1.72-1.51-3.29.56-.88.46-1.24 1.66-1.51 1.97-.45 1.46.2 2.75.31 1.18-.29 1.45-2.07-.52-2.29-.86-.09-1.31.37-2.07.43.05-.61.48-1.04.76-1.62.13-.29-.03.23.1-.21.05-.17.34-.21-.16-.52-.43-.27-1.28-.14-1.62.08-.38.24-1.09 1.84-1.31 2.31-.31.64-.17.74-1.03.86-1.89.28-2.25-1.3-2.25.96.88.45.77.46 2.11.46l-1.69 3.18c-.34.44-2.13 2.6-2.85 1.92-.46-.94 1.79-3.2 1.23-4.56-.35-.86-1.41-.69-2.2-.39-.42.16-.67.38-1.04.58-.61.32-.72.37-.9-.27h-.97c-.6.86-.92 2.38-1.94 2.95-1.42.81-1.39-.94-1.13-1.69l.14-1.11c-.72-.46-1.03-.9-2.41-.76-1.97.2-3.15 1.22-3.9 2.79-.38.8-1.68 1.02-2.02.18-.15-.49.17-.44.23-1.29.06-.76.02-1.11-.45-1.44-1.04-.74-2 .35-2.13 1.17-.19 1.18.8 2.05-1.35 3.96-.55.49-.62.33-1.6.33 0-1.57.23-1.04.65-2.16zM77.76 27.98c-.84 0-.65-.14-.65-2.01 0-.57.36-.46 1.14-.46.7.96.23.36.11.99-.1.54.12 1.48-.59 1.48zm.16-5.87c0-.3.22-.5.32-.93.71.02.84.23 1.3.46l-.18.3c-.2.45-.04.27.02.93-.77 0-1.46-.04-1.46-.77zm-2.6 3.86c0 9.84-.03 6.8 1.46 6.8 1.71 0 1.29-.09 1.46.93l-.97-.18c-.01 1.14-.04.78-.49 1.42l.97-.18c-.21.77-.98 1.01-1.78.64.02.95.65 3.35 1.46 3.86.24-.84 2.43-1.98 2.43-.31 0 .52-.36.66-.81.77.21-.86.44-.42.32-1.24-1.1.4-.72 1.06-1.95 1.08.06.95 1.7 2.78 2.43 2.78.95 0 1.51.14 2.52-1.16 1.35-1.72 1.28-2.62 1.75-3.58.83-1.67.14-.55.11-2.06.97.08.18.29 1.3.31.03.37.08.88.47.51.27-.25-.01-.24-.31-.66l.51-.59c-.46-.22-.2-.16-.84-.18 0-1.27.19-1.43-1.3-1.54-.56 2.31-.72 1.04-2.8 2.74-.76.63-.8.47-.94.96 1.59-.13 1.22-.97 2.27-1.24-.33 1.36-1.49 1.44-2.27 1.7-.22-.31-.37-.46-.7-.72-.39-.3-.54-.23-.59-.82.85.22.04.31 1.14.31.35 0 1.11-.55 1.3-.93-.6.05-1.71 1.08-2.27-1.24.53-.21.72.28.81-.77h.65c.41 1.67.18.82 1.14.77-.18-.25-.27-.48-.57-.7-.58-.43-.73-.01-.73-1 0-.45.49-.43.65-1.39h.97c.2-.83.49-.59.49-1.7-.55 0-1.06-.09-1.18.33-.12.45.84.7-.3 1.04-.49.15-.13-.12-.76.2-.46.24-.63.63-1.01.89-.04-.18-.15-.7-.22-.89l-.3-.63c-.02-.91.35.88-.07-1.94-.13-.89.28-1.27.37-1.83.11-.71-.1-.12.04-.77.05-.25.24-.7.34-.89.51.18.23-.34.32.46h.49c.62-.88.18-.7 0-.77v-.46c.68-.05.76-.13.81-.77-.41-.09-.96-.16-1.3-.31.04-.45.2-.79.42-1.15.3-.48.32-.51 1.04-.55.02.79-.15.44.32.77.46-.41.48-.56.65-1.24-.69-.18-.02-.16-.72-.35-.36-.1-.2-.02-.32-.03l-.54-.11c-1.4-.56-.19-.3-1.66.03.25-.88.19.38.39-1.11.04-.3-.09-.29.3-.54 1.51-.97 2.67 1.09 2.8 1.26.41.52.06.37.89.39v.46c-.43.16-.19-.09-.21.25l.29.9c.24.62.24-.12.24.56 0 .67-.77.8.16 1.08.02-.73-.17-.63.49-.75l.16 1.36c.55-.04 1.44-.49 1.95-.62.22.43.16.3.16.93.69-.44.49-.5.49-1.54-1.28.1-1.19.4-1.95.46 0-1.7.65-.59.65-2.16 0-.47-.28-.52-.65-.62-.49.83.16.69.16 1.24 0 .59.05.06-.16.46-.42-.27-.43-.16-.49-.77h-.32c.07.77.5.76-.32.9-.89-1.4.88-1.43-1.36-5.01-2.48-3.96-5.29-.48-6.11 2.25-.15.49-.25.93-.38 1.49-.44 1.88-.36 1.19-.59 3.15-.05.43-.32 1.42-.32 1.54z"/><path class="fil2" d="M28.11 20.72c-.79-1.34 1.1-6.49-.49-6.49-3.22 0-2.73-1-4.12 4.42-.1.39-.07.54-.15.94l-1.15 4c-1.46 4.62-.68 3.92.87 3.92.82 0 .94-1.62 1.13-2.32l1.14-2.78c0 3.09-.91 5.62 1.21 5.16.65-.14.89-.53 1.13-1.08.35-.79.93-2.5 1.71-2.7 0 2.09-.97 1.74-.49 3.71h1.79c.52-.74.37-.35.65-1.39l2.12-8.02c.8-3.58 1.56-3.82-.33-3.9-.68-.03-.84-.18-1.33.14-.36.23-2.59 4.59-2.94 5.4-.27.63-.12.8-.77.97zM55.04 25.05c-.72 0-.4-.47-.22-.8l.48-1.12c.27-.92.42-1.52.65-2.47.21-.88.45-1.63.73-2.39.29-.77.29-1.56 1.44-1.56 1.87 0 1.65 0 1.04 1.45l-.91 3.3c-1.01 3.74-.83 3.59-3.21 3.59zm-3.08 2.16c0 .68 2.55.42 3 .37.82-.1.69.04 1.22.05 3.17.03 2.99-.93 3.97-4.21.42-1.42.76-2.74 1.11-4.2.44-1.81 1.1-3.13 1.1-5.13-.72 0-.87-.11-1.32-.13-.65-.04-.55.09-1.27.13-2.26.12-3.88-.7-4.69 1.41l-2.59 9.27c-.21.71-.51 1.58-.51 2.45zM26 46.05c.06-.65.22-.53.49-1.08l.94-3.27c.55-1.92.49-3.68 1.98-3.68 2.39 0 1.33.15.71 2.53-1.12 4.29-.79 6.24-4.12 5.5zm3.08 2.63c.64 0 .86-.25 1.26-.81.51-.7 2.14-6.94 2.34-7.81.86-3.59 1.37-3.88-.35-3.9-.7-.01-.82-.04-1.36-.26-1.33-.54-1.05-.32-2.24.09-.86.3-1.87-.01-2.36.69-.26.36-.5 1.74-.64 2.33-.21.87-.4 1.5-.65 2.32l-.92 3.6c-.28 1.15-.77 2.13-.77 3.59 1.48.33 4.05.15 5.68.15zM62.02 21.19c0 1.27 2.81.64 3.59.65.39 0 .82.12.81.52 0 .04.01.07.01.08l-.57 1.65c-.82 1.7-2.14.63-4.4 1.06-.74.14-1.07.42-1.07 1.91 0 .36.11.46.49.46 5.7 0 5.82.56 6.82-1.38.3-.57 2-6.28 1.62-6.65-1.08-.49-3.3.18-4.38-.31-.26-.25.29-2.3 1.31-2.46l4.05-.16c.38-.68.65-1.42.65-2.47-.51-.04-.58-.15-1.14-.15-5.62 0-5.69-.55-6.72 2.87-.32 1.07-1.07 3.24-1.07 4.39zM35.74 14.26c-.14.54-.34.95-.49 1.52-.15.55-.32 1.1-.45 1.58l-1.23 4.85c-1.28 4.86-2.37 5.77 1.01 5.29 1.07-.15 1.75-.3 2.8-.14 1.65.25 2.12.04 2.9-3.09l1.98-7.38c.27-.8.47-1.53.47-2.64-2.9-.64-2.32 1.11-3.39 4.5-.48 1.53-1.23 5.79-2.21 6.24-.74.34-1.4.21-2.03-.08l2.33-7.98c.14-.47.25-.87.37-1.36.19-.8.12-.64.06-1.32-1.16-.09.17-.29-2.1.03zM51.31 45.75c0-.28.32-.58.47-.94l.86-3.2c.45-1.56.54-3.58 1.91-3.58 2.28 0 1.25 1.07 1.05 1.61-.42 1.14-.81 4.01-1.38 5.48-.74 1.9-2.91 1.27-2.91.63zm3.08 2.93c.96 0 1.28-.72 1.55-1.46.81-2.23 1.75-6.58 2.48-9.07.55-1.9.31-1.57-.41-1.7-.95-.17-1.34-.53-2.25-.23-.77.25-1.37.57-2.33.57-1.63 0-1.77-1.28-2.88 3.75-.17.75-.33 1.1-.5 1.69l-.96 3.57c-.4 2.13-.94 2.89.44 2.89h4.87zM66.89 38.02c.3-1.23.73-1.62-.8-1.71-1.25-.07-1.93-.76-2.28-.76-1.44 0-.72.12-1.73.51-.52.2-.82.15-1.34.27-.74.17-.78.67-1.15 2-.31 1.15-1.2 3.86-.97 4.79.82 0 .74.15 1.46.15.79 0-.19-.15.75-.08l2.17.24c.17.17-.42 2.4-1.2 2.72-.8.33-3.01.21-4.16.21-.32.57-1 2.32 0 2.32h5.52c1.37 0 2.76-7.02 2.76-7.72-2.31-.51-5.86.89-4.06-2.17.52-.89 1.83-.61 3.25-.61.89 0 1.08-.14 1.78-.16zM20.48 40.65c-1.24 0-1.01-.75-.78-1.67.2-.81.5-1.11 1.59-1.11 1.83 0 1.31.3.79 1.52-.41.96-.25 1.26-1.6 1.26zm-1.79 2.63c2.48-.55 3.68.5 4.59-.73.73-.99 1.11-2.6 1.38-3.79.57-2.58 1.16-3.36-.77-3.36-2.6 0-1.99-.18-4.01.51-.78.27-1.44.08-1.87.69l-2.72 9.77c-.18.64-.47 1.24-.49 2.01.98.45 1.39.35 2.27.15.42-.83 1.08-4.18 1.62-5.25zM35.08 46.21c-1.02 0-.37-.56.16-2.47.28-1.02.54-2.06.81-3.09.27-1.03.57-2.04.81-3.11.16-.72.25-.82-.36-1.17-.37-.21-.94-.47-1.42-.51-.6 1.07-1.35 4.72-1.77 6.04-.33 1.07-.57 2.02-.79 3.11-.22 1.11-1.36 3.66-.21 3.66 5.08 0 6.04.6 6.8-1.56.57-1.62 1.8-5.96 1.8-7.09 0-.42-1.39-.59-1.79-.77-.58.83-1.01 2.72-1.26 3.75-.83 3.38-.86 3.2-2.8 3.2zM9.61 13.15c-1.68-1.17-.57-2.55.81-3.24 1.92 1.59.58 2.94-.81 3.24zm4.38-1.08c.15-.21.04-.26.49-.62.42-.34 1.61-1.04 2.11-1.08l-.49-.46h.49c-.27-.39-.65-.6-.97-.93v.46c-1.1.02-1.48.52-2.28.92-.3.15-.51.18-.8.32-.61-.87-1.32-1.79-.27-2.73 1.05-.95 1.87-1.18 1.9-2.37-.88.07-1.18.74-1.88 1.01-1.25.5-1.29-.67-1.51-1.35-.43-1.34-.73-1.06-1.32-1.06 0 1.82.76 3.64.77 3.73.02.6-.53.92-.92 1.21-.85.63-.35.61-1.79.61-.04-.13-.96-1.84-1.46-2.16.06.64 1.01 1.67 1.1 2.36.06.51-.25.82-.57 1.08-.53.43-.67.22-.86.89.59.84 1.05.23 2.11 0 .3.43.63.65.83 1.24.11.32.16.47.05.83-.23.7-1.66 1.6-2.25 2.03-.47.34-.35.05-.41.69 2.39 0 1.11-.93 3.08-.93.27.49.23.79.65 1.08.01-.38.09-.6.09-.79.01-.5-.09-.13-.06-.74.03-.87 1.96-3.43 2.76-1.58.61 1.4.83 2.46 2.11 3.71.67.66.46.55 1.43.34-.22-.88-4.64-5.54-2.11-6.18v.46zM47.58 14.08c-.16.29-.75 1.72-.62 2.14.15.47.38.34 1.09.34.84-.01.83 0 1.47.15-.03 1.17-.35.42-.77 2.36-.2.93-.46 1.7-.71 2.57-.23.78-.46 1.65-.63 2.49-.32 1.64-1.8 3.16 1.13 3.4 1.03-1.46 1.35-3.65 1.82-5.37.24-.9.56-1.9.76-2.83l.65-2.16c.47-.83.63-.39 2.28-.76.21-.87.52-1.51.32-2.32-.82 0-.88-.15-1.78-.15l-3.59.11c-.2.01-.94.05-1.44.05z"/><path class="fil1" d="M70.78 30.15c1.08 0 .43 1.59.9-1.61l1.62-10.35c.21-.89.34-1.71.52-2.44.53-2.04 1.75-3 1.99-3.98-1.03.66-2.37 3.95-2.71 2.47-.14-.64 1.05-.94 1.08-2.16-.67.11-.81.6-1.28.95-.62.46-.66.32-.84 1.21l-.97 3.09c-.47.45-3.48.24-4.24.29-.75.05-.64.03-.79.64.58.26 1.76.16 2.6.15 2.44-.02 1.3.13 2.16.62.27-.73-.13-.81.54-1.34.47.57.17.12.02.67l-.94 4.69c-.19.69.36.29-.5.56 0-1.01.16-1.29.16-2.26h-.16c0 .73-.02.47-.17.92l-.64 2.63.92.2c.95.15.47.31.38 1.34-.84 0-.83-.15-1.03.57l-.59 3.91c.75-.26 0 0 .47-.32.46-.32.8-.45 1.47-.45zM3.93 47.14c.02-1.01.57-1.6.65-2.78h1.46l-1.08 2.78H3.93zm2.76 1.54c.62 0 .86-1.74 1.26-2.97l.99-3.24c.17-.57.88-1.82.03-1.82-2.23 0-2.01-.18-2.27.93-.11.45-.17.64-.32 1.08H2.97c-.26.37-.28.25-.45.66-.1.23-.16.57-.25.85l-1.05 3.32c-.05.17-.28.77-.28.8-.01.3-.05.4.41.4H6.7zM12.53 23.14c-.15.64-.15.27-.34.66l-.63 2.17h-1.14c.06-.68.56-2.33.92-2.89l1.19.06zm.32-1.65H9.44c-.55.79-1.93 5.29-1.95 5.87l6 .15 2.26-7.31c.26-.92.23-.73-2.42-.73 0 .77 0 .49-.2 1.04-.12.32-.21.64-.29.96z"/><path class="fil2" d="M45.13 46.22c-1.22-.07-2.45.4-2.14-.63.48-1.62 1.67-4.7 1.67-6.33-.73 0-.92.14-1.45.32-1.24.43-.97.39-1.7 3.17-.44 1.69-1.23 4.13-1.23 5.78.73.02.64.15 1.46.15 5.5 0 5.84.5 5.84-2.32-.67-.05-.36-.15-.97-.15l-1.47.01zM41.25 27.52c1.76 0 1.57.41 2.4-2.81.31-1.18.6-2.14.91-3.31.3-1.15.61-2.23.91-3.31 1.02-3.67 1.3-4.02-.49-4.02-1.21 0-1.04 1.1-1.64 2.91l-2.4 8.84c-.11.59-.52 1.68.31 1.68z"/><path class="fil1" d="M18.04 23.97c.04-.46.12-.77.65-.77 1.93 0 .37 1.16-.65.77zm-3.41 2.93c0 .83.2.63 1.13.62.71 0 3.6.45 4.41-.15.21-.15.82-1.25-.02-1.25h-2.6v-.77c.63-.19 2.19 0 3.25 0 .16-.64.32-1.13.5-1.84.23-.89.46-1.23.47-1.86l-2.11-.15c-3.75 0-3.26-.43-4.11 2.42-.12.41-.92 2.81-.92 2.99zM12.04 45.13c-.64 0-.37-.27-.32-.77.81 0 1.12-.09 1.32.12.22.22.14-.05-.15.35l-.13.2c-.01-.02-.04.07-.06.1h-.65zm-1 1.85c.09-.58.04-.57.66-.63 2.59-.28 2.57 1.36 3.52-2.87.25-1.11-.13-.69-3.01-.67-2.4.02-2.12-1.16-3.33 2.7-.13.42-.16.59-.29.96-.49 1.47-.82 2.2-.12 2.2h5.36c.04-1.5 1.44-1.58-1.63-1.54-.12 0-.53 0-.64-.01-.35-.04-.3-.02-.52-.15zM95.61 46.36c1.11 0 .75-.13 1.69-1.48.74-1.07 2.4-4.77 2.04-6.24-2.49-.55-2.98-1.76-3.23-.3-.33 1.94-.81 6.44-1.69 7.98-.34.59-1.3 1.42-1.87 1.93-.52.46-.33.09-.52.59.86-.19 1.48-.32 2.24-.64 1.97-.83 1.44-1.39 1.32-1.83zM95.78 30.3c0 1.2-.33 5.13.22 5.81.21.26.67.39 1.01.58.98.54.61.83 1.75 1.31 1.13.47.7-.41.92-3.21.06-.79.5-1.78.06-2.38-.21-.29-3.73-2.06-3.96-2.11z"/><path class="fil0" d="M55.04 25.05c2.38 0 2.2.15 3.21-3.59l.91-3.3c.61-1.45.83-1.45-1.04-1.45-1.16 0-1.15.8-1.44 1.56-.29.76-.52 1.52-.73 2.39-.23.96-.38 1.55-.65 2.47l-.48 1.12c-.19.33-.5.8.22.8zM51.31 45.75c0 .64 2.17 1.27 2.91-.63.57-1.47.96-4.34 1.38-5.48.2-.54 1.24-1.61-1.05-1.61-1.38 0-1.46 2.03-1.91 3.58l-.86 3.2c-.15.37-.47.66-.47.94zM26 46.05c3.33.74 3-1.21 4.12-5.5.62-2.38 1.68-2.53-.71-2.53-1.49 0-1.43 1.76-1.98 3.68l-.94 3.27c-.26.55-.43.43-.49 1.08z"/><path class="fil1" d="M77.76 12.85c.6-.15.21-.16.81-.31-.44 1.1-1.02 1.22-1.41 2.63l.83-1.01c.23-.35.46-.73.71-1.02 1.13-1.34 2.03-1.36 3.27-1.36.93 0 1.9 1.31 2.27 1.85 1.59 2.31.66 1.08 1.35 2.27.19.32.12.19.27.36.1-.41.16-.29.16-.62 0-.01-2.34-8.02-6.77-4.43-.52.42-1.32.98-1.51 1.65zM10.74 15.16c0 .65.16.6.16 1.08v3.09c0 .78-.15.69-.16 1.39h1.46c.08-.5.08-.26.21-.73.32-1.12.09-1.43 1.74-1.43-.15-.55-.34-.49-.7-1.03-.91-1.37-1.42-2.86-1.89-3.29-.28.18-.81.5-.81.93zM94.15 30.61c0-.4-.19-.81-.32-1.08 1.19.12.82 1.61 1.46 2.32 0-.91.13-1.11-.28-1.74-1.26-1.92.01-.53-2.63-2.29-.38-.25-.35-.3-.82-.3-.03 0-1.42 1.2-1.62 2.01.39.55 1.01.69 1.62 1.08l1.62.93c.22-.14.33-.19.57-.39.28-.22.41-.11.41-.54zM67.86 38.18c.32.15.7.21 1.02.26 2.07.36 1.22 1.11 1.76-.86.26-.92.3-3.09.3-4.35-2.07 2.27-2.91 2-3.08 4.94z"/><path class="fil0" d="M56.99 12.07c1.3 0 1.99-.51 2.86-1.61.44-.55 1.64-2.11 1.69-2.72-1.36 0-2.25.23-3.35 1.29-.23.22-.83.95-.98 1.23-.32.58-.47 1.07-.21 1.81z"/><path class="fil1" d="M84.25 25.2c0 .47.22.75.29 1.12.11.63-.03 1.75.14 2.97.18 1.33-.7 2.15.55 2.24-.15.6-.09.09-.16.46l-.02.28c0 .02.02.06.02.08.03.25.09.05.05.35-.02.14-.11.16-.21.53 1.24-.03.75-.46 1.62-.46.64 0 .02.23.97.31.22-.88.39-.32.16-1.24h-.65c-.15.53-.22.62-.81.62-.81 0-.31-.19-.32-1.85-.02-2.39.23-1.09.32-2.16-.93.02-.81.12-.65.77h-.49c-.19-.5-.32-.28-.34-1.08-.02-.63.07-.79.18-1.24 1.08.09.51.33.49 1.24 1.44-.32.59-1.06.44-1.96-.06-.34-.13-.86-.27-1.28-.37-.03-1.3-.26-1.3.31z"/><path class="fil0" d="M24.7 10.84c0 1.89 2.72 2.21 2.76.46-1-.25-.81-.72-.81-1.85 0-.74.93-.55 1.3-1.24-1.18-.05-1.51.06-2.2.69-.42.38-1.05 1.24-1.05 1.94zM17.56 32.15c0 1.26 1.62 2.54 2.76.93-.41-.96-2.03-1.67-.07-3 .34-.23.23 0 .4-.4-1.41-.47-3.08 1.24-3.08 2.47z"/><path class="fil2" d="M49.53 38.02c.73 0 1.46-2.47.32-2.47-.84 0-1.51.71-2.18 1.02-.3.14-.28.11-.55.25-1 .5-1.11.38-1.17 1.05 1.23.27 2.1.15 3.57.15z"/><path class="fil1" d="M72.08 39.72c-.02-.77-.04-.37-.21-.89-.53-1.64.13-1.69-.61-2.2 0 1.19.53 3.14.83 4.31l.55 2.26c.36 1.15 1.71 4.7 2.68 5.32l-1.76-3.73c-.32-.7-.68-1.62-.68-2.45l1.79 3.09c-.05-.6-.31-1.11-.57-1.62-.18-.36-.18-.32-.35-.75l-.96-2.94c-.01-.03-.14-.32-.14-.33-.12-.37-.09-.43-.09-.85h-.16c0 .78.12.46-.32.77z"/><path class="fil0" d="M20.48 40.65c1.35 0 1.19-.3 1.6-1.26.52-1.22 1.04-1.52-.79-1.52-1.09 0-1.39.3-1.59 1.11-.23.92-.46 1.67.78 1.67z"/><path class="fil1" d="M98.86 23.97c.25.5.13 1.17.03 1.73-.08.42.04.62-.4.69-.44.08-.4-.17-.43-.57-.03.03-.06.04-.07.09l-.16.16c-.02.02-.06.05-.09.07-.22.13.08.1-.49.15 0-.73.1-1.34-.16-1.85-.7.49-.19.35-.34 2-.09.98-.28.95.17 1.86.39-.13.35-.2.65-.62l-.65-.31c.39-.15.18-.1.65-.77.63.05.52.15 1.3.15v.77c.7-.49.17-.64.35-2.14.09-.8.14-1.47.14-2.49-1.09.24-.27.08-.93-.15-.33-.11.03-.08-.37-.01-.39.07.14.1-.65.16-.36-.72.14-.64-.49-1.08 0 3.08.24 1.38 1.95 2.16zM15.61 8.98c.33.33.7.54.97.93.51-.05.46-.09.7-.42.16-.22.33-.62.42-.84 1.21-2.77-1.06-2.55-1.67-1.89-.5.53-.12 1.35-.43 2.22z"/><path class="fil0" d="M9.61 13.15c1.39-.31 2.73-1.66.81-3.24-1.38.7-2.49 2.07-.81 3.24z"/><path class="fil1" d="M84.25 47.44c1.64-1.04 3.03-7.39 3.26-9.25.05-.4.14-.44.24-.86l.23-2.71-.63 2.8c-.12.41-.13.34-.23.86-.04.19-.09.62-.16.93l-1.31 4.01c-.81 1.74.45.85-.73 2.86-.27.46-.54.81-.67 1.37zM81.98 7.13c.64.14 1.14.51 1.72.84 2.88 1.66 4.23 2.3 5.06 5.37l.44 1.44c.48 1.52.16.96.43 2.22l.42 1.61c.19.62.22.39.22 1.18h.16c0-.71-.09-1.8-.27-2.36-.46-1.39-.6-2.93-.86-3.66-.29-.82-.45-1.63-.97-2.48-1.16-1.88-1.81-2.03-3.58-3.08-.74-.44-1.83-1.31-2.76-1.39v.31zM67.38 40.03c.39.84.01 2.46-.11 3.29-.28 1.85.01 4.5-1.03 5.98.6-.09.78-.2.94-.65.51-1.44.42-4.44.57-5.48.06-.43.2-1.09.23-1.32.2-1.63-.27-1.35 1.67-1.35v-.15c-1.24 0-1.39-.24-2.27-.31zM90.42 49.14c.56-.12.46-.12.86-.41 1.58-1.13 3.36-2.73 3.36-4.84-.02.03-.05.08-.06.1l-3.77 4.44c-.43.4-.33.04-.39.71zM76.36 43.22c-.12-.18-.12-.15-.22-.26.12.92.67 1.8 1.2 2.56.49.7 1.28 1.44 1.98 1.82.93.5 1.29.56 2.33.56.27 0 2.27-.66 2.6-2.01-.91.58-1.27 1.54-2.92 1.54-1.4 0-2.43-.74-3.29-1.65-1.23-1.3-1.15-1.71-1.68-2.57z"/><path class="fil0" d="M67.21 9.76c.66.04.99.16 1.67-.1.77-.3 2.07-1.75-.05-1.75-.24 0-1.6.81-1.62 1.85zM52.61 31.53c.78 0 1.69.03 2.14-.77.3-.54.14-1.09-.68-1.09-.87 0-2.79 1.85-1.46 1.85z"/><path class="fil1" d="M83.17 24.17c.02.05.06.36.12.55.25.8.33.59.49 1.55.2 1.22.2 4.07 0 5.29-.17.99-.51 1.32-.51 2.3.85-.54.31-.56.86-2.11.28-.78.23-4.62-.1-5.56-.4-1.12.14-1.31-.87-2.01z"/><path class="fil0" d="M11.34 23.08c-.36.56-.86 2.21-.92 2.89h1.14l.63-2.17c.2-.38.19-.02.34-.66l-1.19-.06zM3.93 47.14h1.03l1.08-2.78H4.58c-.08 1.18-.63 1.77-.65 2.78zM77.76 27.98c.71 0 .49-.94.59-1.48.12-.63.59-.04-.11-.99-.78 0-1.14-.1-1.14.46 0 1.87-.19 2.01.65 2.01z"/><path class="fil1" d="M89.45 28.91c.62-.39.7-.57 1.01-1.05.12-.19.04-.08.2-.27.16-.2.2-.21.29-.34.61-.86.24-4.1.01-5.18-.4-1.91.03-1.56-.54-1.96 0 2.29.8 3.32.59 6.16-.08 1.06-1.21 1.49-1.47 1.97-.17.32-.09.29-.1.68zM12.69 8.83c0 .36.05.3.16.62.45-.11.63-.27.99-.44l1.12-.49-.04-1.65-2.23 1.96zM80.85 28.91l1.79-.15v-1.08c-.42-.27-1.72-1.34-1.79 1.24zM86.2 14.85h.16c0-1.15-.16-.87-.42-1.76-.18-.62-.34-1.08-.58-1.61-.41-.93-1.01-1.91-1.92-2.49.06.66 2.76 3.95 2.76 5.87zM74.19 17.48c.57-.39.19.04.36-.73.2-.9 1.24-2.35 1.84-3.19l1.53-2.25c-.81.41.05-.22-1.17 1.2l-1.04 1.48c-.87 1.13-1.53 2.06-1.53 3.49z"/><path class="fil0" d="M77.93 22.11c0 .73.69.77 1.46.77-.06-.66-.21-.49-.02-.93l.18-.3c-.46-.23-.59-.45-1.3-.46-.1.42-.32.63-.32.93z"/><path class="fil1" d="m79.55 26.44-.16 2.47h.65c0-.93.3-2.01.49-2.78-.75.19-.14.24-.97.31zM81.66 25.2c.25.35.31.31.32.93-.74 0-.69-.07-.93.22-.37.43-.12.23-.04.4.6.2-.28-.04.65-.3.59-.16.43-.04.97-.32v-1.24c0-.59.05-.06-.16-.46-.52.13-.27 0-.81.77zM95.45 36.17h-.32c.37 2.72 0 1.59 0 4.02.55-.38.18.12.35-.6.68-2.96.01-2.18-.02-3.42z"/><path class="fil0" d="M41.74 37.56c.39 0 .73-.22 1.14-.31v-.31c-.51-.04-.58-.15-1.14-.15-1.61 0-1.55.77 0 .77z"/><path class="fil1" d="M67.89 27.83c.29.4.22.36.62.62.22-.9.32-.78.32-2.01-.58.2-.8.86-.95 1.39z"/><path class="fil0" d="M18.04 23.97c1.02.39 2.58-.77.65-.77-.53 0-.61.31-.65.77zM12.04 45.13h.65c.02-.04.05-.13.06-.1l.13-.2c.29-.4.37-.13.15-.35-.2-.21-.51-.12-1.32-.12-.04.51-.31.77.32.77z"/><path class="fil1" d="M87.82 28.29c-.48.22-.45.15-1.14.15v.31c1.31 0 1.3.2 1.3-1.08 0-.59.05-.06-.16-.46-.98.25-.19.42 0 1.08zM82.14 22.89h.65c.79 0 .34-.61.16-.93-.57.28-.75.18-.81.93zM74.52 11.76c.44-.11 1.22-.86.81-1.54-.37.26-.77.89-.81 1.54zM76.3 10.99c.32-.22.34-.33.59-.68.25-.36.34-.36.39-.87-.65.33-.97.59-.97 1.54zM80.03 29.22c-1.74.88 1.16 1.59 0 0zM82.79 34.62c.3 0 .41-.35.49-.62-.77.02-.64-.01-.97.46.43.2-.13.15.49.15zM62.51 39.72h.65v-.62l-.47.01zM72.25 9.14c.57-.14.36-.06.65-.46l-.19-.3-.3-.01c-.04.42-.07.42-.16.77zM81.01 19.8c-.07-.59.09-.45-.65-.62.15.53.09.48.65.62zM63 10.68c.49-.12.36 0 .49-.46-.37.09-.47.04-.49.46z"/></g></g></svg>