<svg xmlns="http://www.w3.org/2000/svg" xml:space="preserve" width="249.853" height="63.404" style="shape-rendering:geometricPrecision;text-rendering:geometricPrecision;image-rendering:optimizeQuality;fill-rule:evenodd;clip-rule:evenodd" viewBox="0 0 165.58 42.02"><defs><style>.fil6{fill:#40436a}.fil11{fill:#656984}.fil17{fill:#796c52}.fil18{fill:#7b6d53}.fil4{fill:#bdd4e6}.fil14{fill:#ded8d0}.fil7{fill:#e0a02c}.fil8{fill:#e2c286}.fil12{fill:#e2c287}.fil10{fill:#fbec58}.fil3{fill:#fceac2}.fil1{fill:#fcfcf2}.fil2{fill:#fdfdfd}</style></defs><g id="Camada_x0020_1"><g id="_2061784235648"><path d="M.59 38.3c4.51.78 16.97.01 23.31.22.7.02 1.37.04 2.07.04.7 0 1.31-.13 1.85-.12.55.01 1.06.17 1.74.18 4.32.06 13.68.31 16.99-.8.44-.14.98-.42 1.49-.49.58-.08.67.31 1.12.58 2.33 1.46 4.57.72 6.65.7 1.3-.01 2.62.04 3.92.02.54-.01 1.44-.02 1.94-.09.62-.08.89-.41 1.51-.33.8.1 1.16.47 3.32.57 4.67.22 5.82-1.25 6.25-1.37.74-.21 2.04.64 2.83.9 2.15.71 4.78.67 6.96.11 3.83-.98 1.74-1.19 4.09-.15 1.72.76 3.12.64 5.01.3 1.04-.18 2.64-.02 3.8.02 2.28.07 9.86-.01 11.76-.12 1.32-.08 2.24-.19 3.42-.52 1.79-.5 2.14-1.07 2.73-.92.01.51-.47.65-.8.9-4.32 3.24 5.76 2.99 7.53 3.19 6.08.68 6.34-.47 10.65.38 1.02.2 2.19.26 3.25.41 1.92.13 4.82.19 6.75.01 2.46-.18 5.16-.34 7.66-.65 2.7-.34 4.69-.57 7.59-.68 1.38-.05 2.65-.14 4.03 0 1.53.15 2.25.27 3.71-.07 1.51-.36 2.13-.31 1.72-1.96-.27-1.11-.81-1.58-1.44-2.29-.49-.55-1.29-1.57-1.36-2.43-.34-4.25-.83-5.18-1.79-9.21-.15-.64-.56-2.56-.21-3.06.59-.83.18-2.04-.04-3.01-.18-.78-.9-1.82-1.35-2.46-.67-.95-.95-1.34-1.74-2 .4-.8 2.19-1.32 2.91-2.04-.15-.49-1.83-2.99-2.19-3.41-1.57-1.83-3.48-.59-4.39-1.49-.26-.15-.44-.22-.3-.55.05-.11.1-.19.21-.28.24-.22.1-.08.28-.17.42-.83.43-.59-.1-1.32-.3-.41-.49-.8-.75-1.21-.54-.87-.8-1.71-1.98-1.98-.78-.07-1.53-.12-2.32-.19-.45-.04-1.95.02-2.15-.23-1.08.13-3.72-.07-5.04-.06-2.73.02-1.89-.54-3.74-1.06-1.77-.5-6.1 1.29-7.54 1.85-3.16 1.22-2.67.9-4.21 2.89-1.72 2.22-1.08 2.4-3.46 3.44-1.1.48-2.21 1.07-3.35 1.4.17.6 1.39 2.06 1.45 2.5.05.42-.96 1.77-1.72 2.25-1.73 1.09-2.76 3.29-2.71 5.3-.42-.08-.48-.23-.95-.37-2.34-.72-12.61-1.06-13.56-.14-.7.69-.82 2.49-1.18 3.53-.38-.03-4.3-1.77-9.26-.29-1.56.47-1.54.73-2.35 1.1-.53-.17-1-.61-1.7-.91-2.02-.85-4.71-.94-6.96-.59-2.15.34-3.61 1.21-3.88 1.24-.64.05-3.05-2.37-8.39-1.11-.67.16-1.46.58-1.98.35-1.55-.66-2.63-.4-4.85-.4-.86 0-1.83.11-2.5.11-.74 0-1.6-.14-2.51-.14-.81 0-1.83.07-2.61-.01-.45-.57-.58-1.14-1.15-1.69-1.65-1.59-5-1.71-7.46-1.71-1.55 0-4.79-.11-6.09.18-1.95.43-1.7 1.77-2.18 3.43-.67-.05-.92-.38-1.63-.43-.93-.06-2.83.1-3.71.34-.45.12-.95.41-1.41.5-.55-.03-1.34-1.1-4.86-.72-1.85.2-3.64.16-5.62.13-.05-.74.49-2.08.12-2.78-.3-.55-1.79-.62-2.7-.63-2.36-.02-4.72-.02-7.08-.02-2.55 0-4.97-.41-5.68 1.19-.2.46-1.19 4.52-1.13 4.91-.22.22-.39 1.33-.49 1.74-.54 2.09-.79 2.82-1.25 5.13-.26 1.3-.58 2.16-.91 3.37-.27.97-1 3.02.1 3.26z" style="fill:#121639"/><path class="fil1" d="M137.86 20.13c2.12-.6 1.83.65 2.03 1.01l1.14.01c.21-.57-.18-.45-.06-1.08l1.79-.01c.37.5.08.87.36 1.34.18.2 1.42.47 1.96.66 1.39.49 1.25-.38 1.98-.12.24.34.01 1 .01 1.48 0 .6.13 1.04.17 1.62-.65-.05-.77-.26-1.09-.57-.57-.56-1.87-1.56-2.77-1.71l1.25 5.46c.32.45 6.34 1.04 6.87 4.45.25 1.62-1.17 2.69-2.18 3.28-1.5.88-2.45.93-3.86 1.24-.58.13-.43.02-.76 1.21-.59.2-1.9.12-2.66.03l.15-1.01c-.41-.08-1.23-.12-1.52.05-.7.49.64 1.2-3 .9-.06-.98.85-1.13-.53-1.29-2.14-.25-3-.94-3.67-1.16-.81-.26-1.07.42-1.89.42-.01-.5.88-1.31 1.2-1.75.31-.44.85-1.79.98-1.91.64.19.63.99 1.83 2.02.53.45 1.6 1.22 2.68 1.3.43-1.52.74-4.49.64-6.16-5.88-1.22-6.77-4.82-4.27-7.16 1.2-1.13 1.98-1.06 3.22-1.51 0-.39-.16-.73-.01-1.04zm-16.5-.21-.15.98c.07.34.19.53.47.67.57.3 1.68.14 2.26.04.92-.15 3.19-1.34 3.72-1.43-.2.31-.81.71-1.24.97-.43.27-1.07.46-1.45.78.47.28 5.79.43 5.25 4.96-.12 1.04-1.56 6.71-1.97 7.62-.14 1.06-.69.76-.35 2.08l.79 1.62c-1.03.13-1.27-1.19-1.78-1.58-.44.07-1.18.72-1.5.98l-.01.36.43.29c.77.96 4.13 2.28 6.04 2.65 2.34.45 5.83.7 8.26.5-.23-.2-.92-.09-1.32-.12.32-.09.96-.13 1.37-.19.47-.07.75-.25 1.24-.3 1.04-.12 1.84-.05 2.87-.25 1.52-.31.67-.23 2.68-.49.5-.06.77-.25 1.15-.42.37-.17.66-.23 1.08-.37 1.65-.54 2.33-1.4 3.49-2.5.94-.89 1.95-1.82 2.41-3.28.12-.34.15-.38.56-.43.21.22.08.73.61.58.41-.11 1.27-2.06 1.39-2.44.21-.68 1.16-3.4-.04-3.62-.4.47-.28 1.48-1.09 1.75-.77-.01-.26-1.85-.2-2.59.1-1.11-.19-1.58.1-2.79.19-.79-.19-1.76-.64-2.4-.67-.94-1.1-.51-1-2.06l-4.7 1.01c-.04 1.38.47 3.11.56 4.56.03.41.01 4.35-.51 4.57-.86.22-1.18-.95-1-1.71.22-.88.19-1.85.14-2.77-.13-2.33-.63-2.93-1.29-4.75-.75-.31-2.04-.68-2.82-.94-3.94-1.33-5.53-1.5-10.2-1.54-3.07-.03-4.45.21-7.15.79l-6.46 1.2z"/><path class="fil2" d="M78.17 33.62c.34.78-.14 1.26.96 1.59.83.25 1.69.17 2.24-.29.72-.6.2-1.16 1.44-1.14.8.01 2.05 0 2.59.26.06.89-1.68 2.06-2.6 2.37-1.77.6-7.53 1.32-7.96-1.5-.14-.9-.57-1.53.68-1.49.69.02 2.05.1 2.66.2zm-11.97-.37c.22.41-.2 2.5 1.99 2.14 1.94-.32 1.64-2.22 1.79-2.36.23-.2 3.08.12 3.48.31.04.52-.51 1.29-.84 1.64-2.33 2.46-8.67 2.85-9.42.18-.14-.5-.31-1.67.32-1.88.3-.1 2.33-.1 2.67-.03zm1.01-.43c-.85-.02-3.94-.21-4.44.09-.13.17-.08.01-.14.33-.02.08-.02.23-.03.32-.08.88-.26 1.22-.02 2.05.59 1.79 4.07 2.13 6.16 1.81 1.22-.18 2.2-.44 3.13-.95 1.75-.97 1.4-1.75 2.01-1.97.43.77.18 2.07 2.6 2.76 2.02.58 5.5.35 7.56-.62 1.77-.84 3-4.03 2.86-5.17-.6-.18-4.13-.09-4.97-.04-.35 1.11-.53 4.15-2.52 3.27-.63-.42-.03-1.95.12-2.54l1.37-5.21c.53-1.51 1.94-1.01 2.16-.7.37.67-.42 1.75-.38 2.44.49.11 4.36.09 4.99.02.16-.18 1.65-3.6-1.16-4.84-1.73-.77-4.66-.83-6.77-.2-2.07.62-3.24 1.55-3.88 3.35-.35 1-1.12 4.81-1.54 5.4-.77-.8.93-.65-3.39-3.64-.47-.33-1.63-1.11-1.82-1.7-.32-1 1.18-1.63 2.02-.97.18.72-.22.89-.04 1.42.61.12 3.94.16 4.41-.06.28-.41.25-1.21.2-1.74-.06-.6-.26-1.03-.63-1.39-.62-.61-2.1-1.04-3.47-1.09-3.04-.11-5.46.98-6.54 2.45-2.8 3.8 3.05 6.02 3.94 7.28.73 1.03-.62 2.42-1.8 1.63-.3-.78.13-1.26.01-1.8zM104.72 33c.03.6-.45.79-.33 1.56.71.35 2.07.24 2.94.12.87-.12 1.38-.7 1.73-1.29.52-.87.12-1.26 1.53-1.46.71-.1 2.25-.47 2.81-.39.19.38-.42 1.96-.62 2.33-.45.83-.96 1.27-1.66 1.73-2.29 1.49-6.64 1.08-9.59 1.13-2.67.05-1.51-.04-1-2.71.12-.63.23-.64.98-.75.92-.13 2.37-.4 3.2-.27zm.49 1.24c-.18-.38 2.05-8.47 2.49-10.13.17-.64.05-1.09.81-1.09 2.64 0 2.49.52 1.98 2.44-.32 1.23-.62 2.38-.95 3.62-.32 1.19-.6 2.46-.98 3.69-.2.64-.45 1.03-1.08 1.29-.57.23-1.73.35-2.27.17zm-6.17 3.01c1.4.07 7.88.02 9.23-.1 1.26-.12 2.55-.61 3.45-1.05 1.98-.97 2.29-3.94 2.78-5.57.32-1.09.61-2.07.91-3.21.5-1.91 1.81-5.25-.19-6.39-1.71-.97-5.91-.87-8.35-.85-.76.01-1.53.01-2.29.01-1.18-.01-1.17-.13-1.41.83-.27 1.09-.55 2.14-.84 3.25-.57 2.18-1.12 4.33-1.68 6.51-.25.97-1.65 6.01-1.61 6.56zM30.07 36.73c-.33-.51.22-1.71.39-2.21.45-1.32 1.17-5.34 1.84-6.33l3.03.27c.28.47-.65 3.4-.86 4.08-.22.73-.37 1.31-.52 2.05-.11.54-.11 1.64-.49 2.01-.29.2-2.87.25-3.39.14zm-7.35-.03c-.33-.52.98-4.69 1.22-5.58.26-.96.43-1.88.7-2.81.18-.6.87-.42 1.55-.4.34.01 1.66 0 1.85.14.37.26-1.49 6.09-1.66 6.94-.33 1.65.47 1.81-1.82 1.75-.56-.02-1.35.15-1.84-.04zm-3.31-8.64c2.04-.21 1.42-.03.99 1.73-.44 1.81-1.07 3.57-1.5 5.54-.12.56.04 1.06-.43 1.3-.43.21-1.29.06-1.87.08-1.36.04-1.72.56-1.07-1.73.27-.97.52-1.81.75-2.79 1.11-4.8.39-3.85 3.13-4.13zm2.75-3.18c.03-.49.28-.78.24-1.3h-4.6c-.5 1.43-3.59 12.85-3.47 13.67l4.88.02c.34-.87.58-2.19.83-3.12l1.63-6.16c.35-1.06 1.22-1.84 2.46-.99.03.85-.96 4.06-1.22 5.09-.22.87-1.29 4.56-1.2 5.17l4.91.01 1.63-6.14c.27-1.01.84-3.93 1.57-4.28.46-.22 1.27-.26 1.65.14.32.6-2.63 9.72-2.32 10.16.26.26 1.98.13 2.38.13.81 0 1.71.03 2.51-.02.39-2.06 1.92-7.51 2.53-9.95.45-1.8.78-3.69-1.81-3.97-3.3-.36-4.44 1.51-5.29 1.56-.5-.75-.09-.86-1.18-1.3-.72-.29-1.53-.38-2.4-.28-.74.08-1.42.31-2.03.61-1.11.52-1.1.86-1.68.97zM42.98 26.9c-.01-.09.28-1.86.33-2.02.14-.52.46-1.21.64-1.76.83-.12 1.86-.07 2.29.37.42.43.07 1.26-.01 1.85-.11.87-1.72 1.98-3.25 1.55zm6.09 7.44c.07-.66.03-.19-.13-.34-.66.34-1.07 1.02-2.13 1.63-.94.54-1.69.76-3.02.95-1.15.16-6.81.33-7.88.19-.18-.59.81-3.23 1-4 .16-.66.34-1.33.49-2.06.13-.68.14-1.59.71-1.9.46-.13 2.96.32 3.43.49-.01 1.04-1.41 4.12-1.2 5.39 1.28.45 3.22.01 4.02-.55.52-.36 1.59-2.27.65-3.01l-.24.4c-.33.85-.23 1.54-.94 2.17-.48.42-1.83.89-2.79.59.02-.53.41-1.7.57-2.31.66-2.47.09-2.19 1.97-2.3 1 .02.82-.27 1.87.13.62.23 1.17.16 1.67-.15 1.32-.83-.15-2.4 1.5-2.63-.04.55-.2.36-.29.74.18.15-.06.06.32.09 1.34-.32 2.38-1.69 2.7-2.87.44-1.65.99-3.02-.62-4-1.31-.8-3.19-.83-5.06-.85-7.33-.1-6.12-.54-6.8 2.05-.19.72-.37 1.41-.55 2.1-.51 1.94-3.39 12.46-3.28 12.96 1.21.2 7.18.08 8.56-.04 1.08-.09 2.6-.44 3.41-.83.77-.37 1.83-1.16 2.05-2.02z"/><path class="fil2" d="M90.71 33.97c.22.64-.26 1.29.47 1.55.63.23 1.84-.15 1.57.45-.24.52-5.68 2.42-5.59-1.21.02-.92.28-.86 1.31-.85.71 0 1.59-.16 2.24.07zm7.41-.36c.21.38-.16.83-.28 1.26-.54 2-.03 1.84-1.97 1.89-.88.03-1.26.17-1.72-.36-.84-.96-.7-.71.39-2.31.36-.53.76-.38 1.54-.41.66-.02 1.4-.23 2.03-.08zm-6.58 1.41c-.19-.61.1-3.11 1.69-3.97.34-.18 1.06-.56 1.49-.48.02.39-.58 2.56-.75 3.04-.36 1.01-1.05 2.02-2.42 1.41zm-2.89-7.16c.54.1 4.05.06 4.47-.05.23-.38.35-2.38 2.05-2.06.97.18.98 1.51-.61 2.36-2.45 1.31-6.85 1.46-7.78 5.02-.25.96-.75 2.34-.18 3.21.52.78 1.71 1.27 3.17 1.21.69-.03 1.27-.21 1.85-.38.67-.2 1.11-.62 1.65-.65l.19.75h4.46c.29-.47 1.45-5.36 1.71-6.32.29-1.06.54-2.11.83-3.18.31-1.14.51-2.39-.25-3.25-1.58-1.8-7.95-1.76-10.35.54-.44.43-1.52 1.88-1.22 2.8z"/><path class="fil1" d="M141.96 17.73c1.25-.1 3.7 1.37 6.9.56 2.52-.63.51-.42 3.42-.51.67-.02 1.16-.1 1.85-.1 1.07 0 .89-.09 1.62-.36.34-1.96-.34-1.47-1.41-1.57-.45-.04-.77-.15-1.14-.21-.99-.17-2.09.11-2.82 0l-3.11.42c-.18.12-.03.06-.32.13l-4.36-.14c-.51-.06-1.5-.25-1.93-.41-.53-.2-.3-.24-.62-.49-.33-.27-.46-.13-.7-.37-1.23-.12-2.63-.08-3.94-.2-1.56-.14-2.59-.06-4.09-.05-.1.07-1.54.34-1.89.43-1.33.34-4.75 1.37-5.51 1.49.14-.6 1.26-.87 2.19-1.18.86-.28 2.33-.55 2.47-.89-.17-.15-.07-.05-.37-.15l-.29-.09c-.02-.04-.07-.02-.1-.03-1.95-.08-5.79.12-7.41.67-.95.32-1.51 1.06-1.98 1.83-.34.56-1.17 2.08-.86 2.82 1.92.5 8.37-.88 10.45-1.32 3.36-.71 4.9-.86 8.37-.78 1.16.03 1.84.2 2.85.32-.35-.7-2.07-1-2.3-1.59 1.23.27 4.04 1.73 5.02 1.78z"/><path class="fil2" d="M127.37 27.82 126 33.06c-.64 1.74-1.1 2.72-3.48 3.43-1.92.57-4.64.73-6.43-.13-1.74-.83-.89-3.35-.44-4.96.23-.82.9-.58 2.45-1.07 2.13-.66 1.17.38.97 1.49-.11.62-.67 2.15-.54 2.64.27 1.08 2.95 1.86 3.88-1.2.24-.79.53-1.82.71-2.63.29-1.34-.14-1.55 1.33-2.02.57-.18 2.32-.83 2.92-.79zm-4.11-.72c-.19.89-.51 1.51-.7 2.48-.17.87-.86 4.39-1.41 4.9-.3.27-.81.41-1.34.31-.7-.13-.57-.54-.45-1.09.16-.82 1.58-6.88 2.05-7.4.36-.4 2.23-.97 1.86.79zm-1.87-3.7c-5.47.93-5.23 3.27-6.35 7.66-.43 1.69-1.56 3.98-.11 5.37 1.11 1.06 4.36 1.24 6.29.99 5.2-.67 5.37-3.48 6.44-7.58.44-1.7 1.37-4.05-.01-5.39-1.13-1.1-4.06-1.43-6.25-1.06z"/><path class="fil3" d="M154.78 19.49c-.1 1.55.33 1.12 1 2.06.45.64.83 1.61.64 2.4-.29 1.21 0 1.68-.1 2.79-.06.74-.57 2.58.2 2.59.81-.27.69-1.28 1.09-1.75 1.2.22.25 2.93.04 3.62-.12.38-.98 2.33-1.39 2.44-.53.15-.39-.36-.61-.58-.42.05-.44.09-.56.43.44.51.02 3-.43 3.44-.46.85-.47 1.11-1.09 1.8-.51.57-1.3.86-1.67 1.43 1.27-.03 4.36-.08 5.15-.59.32-1.19-.66-2.11.45-2.86.19 1.59.02 2.31 1.49 2.91 1.23.5 2.62.51 4.16.54.09-.19.21-1.16.14-1.49-.08-.4-.4-.7-.61-1.07-.21-.36-.28-.9-.47-1.18-.16-.23-.22-.21-.35-.53-.09-.23-.08-.34-.21-.55-.5.06-.49.23-.98.45-.39.13-.14.28-.63.45.18-.42.66-1.24.7-1.65.21-2 .84-4.58-.62-6.28-.49-.57-.41-.89-1.1-1.37-.63-.45-.99-.43-1.4-1.21-1.05-1.98-.44-3.13-.53-5.36-.03-.68.14-.45.18-.96-.55-.18-1.99-.06-2.49.1z"/><path class="fil2" d="m4.32 26.18-.65 2.39c.07.35.04.47.21.72 1.47.32 1.22-.5 1.77-1.13.69-.03 3.77.4 4.8.2 3.34-.63 2.78.15 4.89-.14l.25-1.35-5.63-.05c-.06-.41.4-2.32.58-2.93.1-.33-.01-.18.22-.37.6-.3 5.25.06 6.48-.13.2-.4.9-2.86.86-3.27-.86-.06-11.82-.19-11.88.1l-.87 3.07c-.32 1.26-.52 1.83-1.03 2.89z"/><path class="fil4" d="m43.59 29.66.14.1c.7.41 1.16.18 1.05 1.75l.24-.4c.94.74-.13 2.65-.65 3.01-.8.56-2.74 1-4.02.55-.21-1.26 1.18-4.35 1.2-5.39-.48-.16-2.97-.62-3.43-.49-.58.31-.58 1.23-.71 1.9-.14.73-.32 1.4-.49 2.06-.19.78-1.18 3.42-1 4 1.06.15 6.72-.02 7.88-.19 1.33-.19 2.08-.4 3.02-.95 1.06-.61 1.48-1.3 2.13-1.63.16.15.19-.32.13.34.02-.02.04-.08.05-.06.01.01.04-.05.05-.06.52-.83.83-2.35 1.01-3.31.16-.9.1-1.1-.44-1.7-.54-.6-.95-.6-1.4-1 .09-.19.01-.04.11-.16l.16-.16c.01-.01.04-.03.06-.05-.38-.03-.14.06-.32-.09.09-.39.26-.19.29-.74-1.65.23-.18 1.8-1.5 2.63-.5.31-1.06.39-1.67.15-1.05-.4-.87-.11-1.87-.13zM3.67 28.57c-.21.25-.1 1.12-.18 1.73-.08.62-.25 1.04-.37 1.6.53-.2.17-.07.33 0 .44 1.76-.9 3.94-.65 4.79.9.18 10.02.14 10.37-.1.42-.25.23-.31.37-.98.33-1.63.8-1.28-4.67-1.2-2.35.04-1.56-.44-1.17-2.39.12-.59.32-1.11.61-1.51.44-.6.62-.65 1.64-.68 1.18-.04 3.92.14 4.8-.19v.33c.29-.22.33-.37.44-.72.11-.35.13-.64.15-1.01-2.11.29-1.55-.5-4.89.14-1.02.19-4.1-.23-4.8-.2-.54.63-.3 1.44-1.77 1.13-.18-.25-.14-.37-.21-.72zM60.63 37.28c.16-1.23 1.35-4.32 1.17-5.2-.45-.26-2.37-.66-3.12-.5-.49.63-.51 1.63-1.01 2.27-.42.54-1.63 1.17-2.68.55-.03-.44-.02-.41.42-.45-.16-.32-.2-.68-.14-1.12-.24.15-.16.27-.27 0 0-.43.09-1.21-.07-1.57-.19-.43-.65-.48-.96-.83-.38-.43-.25-.71-.95-.84-.75-.14-.91 0-1.73-.24l.07-.61c-.02.02-.04.03-.05.07-.01.04-.04.05-.05.07l-1.32 5.24c-.19.57-.43 1.33-.2 2.02.33 1.02 1.83 1.64 3.55 1.37 2.32-.35 2.96-1.4 3.4-1.54l-.01 1.27 3.95.04zM127.37 27.82c-.61-.04-2.35.61-2.92.79-1.47.47-1.04.67-1.33 2.02-.18.82-.47 1.84-.71 2.63-.93 3.06-3.6 2.28-3.88 1.2-.12-.49.43-2.02.54-2.64.21-1.12 1.16-2.15-.97-1.49-1.55.48-2.23.24-2.45 1.07-.44 1.61-1.29 4.13.44 4.96 1.79.86 4.51.7 6.43.13 2.38-.71 2.83-1.69 3.48-3.43l1.37-5.24z"/><path class="fil2" d="M55.41 33.94c-.44.03-.45.01-.42.45 1.05.62 2.26-.01 2.68-.55.5-.64.52-1.64 1.01-2.27.75-.16 2.67.24 3.12.5.18.88-1 3.98-1.17 5.2.96-.01.78-.22.96-.96.1-.42.32-1.07.34-1.46.15-.54.29-1.04.43-1.55.07-.26.12-.54.17-.78l.22-.59c.01-.04.03-.05.05-.07.11-1.55 2.22-7.43 2.01-8.24-.03-.01-.08-.05-.09-.03-.02.02-.07-.02-.1-.02l-.97-.04c-.83.01-3.26-.1-3.62.1-.31.17-.81 2.61-.88 2.88l-1.59 5.85c-.33 1.19-.56 1.86-2.15 1.56z"/><path class="fil4" d="M104.72 33c-.83-.13-2.28.15-3.2.27-.75.1-.86.11-.98.75-.51 2.68-1.68 2.76 1 2.71 2.95-.05 7.29.35 9.59-1.13.7-.45 1.21-.9 1.66-1.73.2-.37.81-1.95.62-2.33-.57-.08-2.1.29-2.81.39-1.41.2-1.01.59-1.53 1.46-.35.59-.86 1.17-1.73 1.29-.86.12-2.22.23-2.94-.12-.13-.77.36-.96.33-1.56z"/><path d="M148.47 2.82c-.02.02-2.8 1.99-3.57 1.65-.43-.19.11-.21-.78-.19-.29.01-.69.02-.97.04l-.24.03.23.22-.32.06c.5.32 2.27.3 2.98.5.73.2.84.59 1.17 1.17.8 1.39 1.74 2.22.94 2.9-.41.35-1.11.68-1.35 1.02.44-.06.43-.08.69-.22l.06.13c0 .02-.01.15-.02.18.89-.28 2.01-1.6 2.9-1.7-.23.53-1.67 2.13-2.16 2.72-.39.46-.74.9-1.12 1.36-.37.46-.87.95-1.11 1.43.48-.15.22-.19.68-.22l.34.37c.08-.85 2.51-3.69 3.3-4.67.28-.35.48-.53.76-.83.52-.57.05-1.49 1.86-1.3l.07-.18c-1.84-.18.5-.75.38-1.47-.11-.66-.79-1.43-1.45-1.7.16-.89.13-.73-.56-1.58l-.11-.13c-.2.4-.89.53-1.27.73-.44.23-.81.44-1.18.66-.66.39-1.63 1.21-2.63.84.1-.18 1.48-.91 1.74-1.05.57-.32 1.42-.59 1.92-.95-.39-.15-.82.09-1.19.18z" style="fill:#40436b"/><path class="fil2" d="m51.36 28.73-.07.61c.82.24.97.1 1.73.24.7.13.58.41.95.84.31.35.77.4.96.83.16.37.07 1.15.07 1.57.11.27.03.15.27 0 .32-1 2.33-8.69 2.31-9.25-.9-.05-4.16-.11-4.89.05-.29.38-1.38 4.62-1.33 5.1z"/><path class="fil4" d="M22.72 36.7c.49.19 1.28.03 1.84.04 2.29.06 1.49-.1 1.82-1.75.17-.86 2.03-6.68 1.66-6.94-.2-.14-1.51-.12-1.85-.14-.68-.03-1.37-.21-1.55.4-.27.93-.44 1.85-.7 2.81-.24.9-1.55 5.06-1.22 5.58zM19.41 28.06c-2.74.28-2.01-.67-3.13 4.13-.23.98-.47 1.82-.75 2.79-.64 2.29-.29 1.77 1.07 1.73.58-.02 1.44.13 1.87-.08.47-.24.31-.74.43-1.3.42-1.96 1.06-3.72 1.5-5.54.42-1.76 1.05-1.94-.99-1.73z"/><path class="fil3" d="M150.39 15.53c.73.11 1.83-.17 2.82 0 .37.06.69.17 1.14.21 1.07.1 1.74-.38 1.41 1.57-.73.27-.55.36-1.62.36-.69 0-1.18.08-1.85.1-2.91.09-.9-.13-3.42.51-3.2.81-5.65-.67-6.9-.56.37.31 1.49.55 2.11.74 1.89.58 2.66.84 4.69 1.2 2.57.46 6.9-2.4 9.9-.48 1.23.79.84 1.1 1.45 1.38.08-1.68-1.57-4.55-2.5-5.38-1.57-1.39-7.15.27-7.24.34z"/><path class="fil4" d="M30.07 36.73c.52.11 3.1.06 3.39-.14.39-.37.38-1.47.49-2.01.15-.74.3-1.32.52-2.05.21-.68 1.14-3.61.86-4.08l-3.03-.27c-.67.99-1.39 5.01-1.84 6.33-.17.5-.72 1.7-.39 2.21z"/><path class="fil6" d="M147.84 14.14c.59-.09.24.07.85.11h3.37c1.5-.04 1.02-.12 2.44-1.88 1.21-1.5.93-.95-.82-3.81-.39-.64-.27-.87-.86-1.28l-.07.18c.02.52-.69 1.17-1.1 1.66-.47.56-.9 1.07-1.34 1.63-.89 1.11-1.76 2.21-2.47 3.39zM134.1 4.32l-1.58.45c-.34.15-.76.06-1.24.36l.85-.04c.18.26.16-.3.07.15-.08.41.13-.27-.07.17l.8-.12c.42-.2 1.33-.42 1.94-.43.81-.33 2.26.67 2.76.96.44.25.78.46 1.22.72.6.35.96.32.91 1.08.05-.06.08-.11.14-.26.03-.07.05-.18.06-.26.53.25.34.43.8.64-.07-.64.58-2.31.75-3.01-1.11-.14-.03-1.19-.06-1.79-.43-.38-1.48-.83-2.12-1.14-.4-.2-.82-.32-1.14-.51-.55-.33-.37-.42-1.16-.67.06.53-.66 1.74-.87 2.4-.41 1.3-.41 1.08-2.08 1.31z"/><path class="fil4" d="M66.19 33.25c-.34-.07-2.37-.07-2.67.03-.63.21-.46 1.38-.32 1.88.75 2.67 7.09 2.28 9.42-.18.33-.35.88-1.12.84-1.64-.4-.19-3.25-.52-3.48-.31-.16.14.15 2.04-1.79 2.36-2.19.36-1.77-1.73-1.99-2.14z"/><path class="fil1" d="M131.08 10.29c.13.34.13 2.53-.62 2.19-.49-.22-.06-.9-.01-1.18.12-.61-.13-.97.63-1.01zm-8.38 2.84-.08.26c.68.11.75.01 1.35 0 1.29.1 2.38-.42 3.92-.25 1.11.13 2.45.4 3.7.36l.87-4.01h-.43c-.86.08-1.79.38-2.68.56-1.01.2-2.06.12-3.04.29-.31.43-.59 1.91-1.35 1.99-.5-.6.9-.59.7-1.64-.06-.33-1.06-.52-1.83.77l-1.14 1.66z"/><path class="fil4" d="M81.37 34.93c-.55.46-1.41.54-2.24.29-1.1-.33-.62-.81-.96-1.59-.61-.11-1.97-.18-2.66-.2-1.25-.04-.82.6-.68 1.49.44 2.82 6.2 2.1 7.96 1.5.91-.31 2.66-1.49 2.6-2.37-.54-.26-1.79-.25-2.59-.26-1.24-.02-.72.55-1.44 1.14z"/><path class="fil1" d="M125.09 40.8c.27-.52 0-.79-.2-1.27-.24-.58-.23-.7-.27-1.36l-.51.06c-.79.04-1.41.43-2.43.47-.69.03-2.26.09-2.96.18-1.01.05-1.88-.07-2.73-.29-.81-.21-1.32-.66-2.18-.64-.62.47-1.3 1.06-.82 1.7.32.42 1.44.66 2.26.67 2.9.04 4.3-.81 5.09-.8-.02.57-.54.49-.71.97 1.38.55 3.83.38 5.46.32z"/><path class="fil7" d="M145.28 5.7c.54-.08.15-.05.28.07-.78 1-2.66 1.97-3.35 2.52.04.36 1.79 3.24 2.02 3.44.64-.19 1.74-1.21 2.36-1.52.23-.34.93-.67 1.35-1.02.8-.68-.14-1.51-.94-2.9-.33-.57-.44-.97-1.17-1.17-.04.33.01.16-.2.33-.02.02-.18.12-.2.13-.02.01-.06.07-.07.05-.01-.02-.05.03-.07.05z"/><path class="fil8" d="M160.75 34.58c.37-.43.76-3.6.7-4.25a11.86 11.86 0 0 0-1.09-3.88c-.83-1.75-.21-6.34-3.08-7.05-.03.52-.2.28-.18.96.09 2.23-.52 3.38.53 5.36.41.77.77.76 1.4 1.21.69.49.61.8 1.1 1.37 1.46 1.7.83 4.28.62 6.28z"/><path d="M3.12 31.9c-.13.3-.17.85-.4 1.07.06 1.04-1.1 3.36-.93 4.29 1.92.1 4.15.02 6.11.02 1.01 0 5.47.18 5.99-.11.24-.33.79-2.7.7-3.19-.89-.3-5.11.01-6.49-.11 0-.18.66-3.42 1-3.63.54-.23 2.2-.09 2.94-.09.51 0 1.02-.01 1.53-.01.22 0 .55.01.76 0 .15-.01.11.01.26-.04.23-.07.12-.01.18-.13v-.33c-.88.33-3.62.15-4.8.19-1.03.03-1.2.08-1.64.68-.3.41-.49.92-.61 1.51-.39 1.95-1.18 2.42 1.17 2.39 5.47-.09 5-.43 4.67 1.2-.14.67.05.73-.37.98-.36.24-9.47.28-10.37.1-.25-.84 1.09-3.03.65-4.79-.16-.07.2-.2-.33 0z" style="fill:#f9f9fa"/><path class="fil7" d="M135.09 5.26c.18-.12.13-.12.42-.13.37.45-.13.41-.32 1.75-.12.84-.49 1.25-.53 1.8.07.37 1.5 1.03 1.93 1.26.44.24 1.77 1.09 2.25 1.06.45-.83.51-2.5.93-3.38.05-.76-.31-.73-.91-1.08-.44-.25-.78-.47-1.22-.72-.5-.28-1.95-1.29-2.76-.96l.23.09-.02.31z"/><path class="fil10" d="m132.94 5.29-.03.31-4.92 2.39c-.81.47-.68.66-.49 1.61l-.89.14c1.34-.16 2.69-.43 4.02-.63.7-.1 1.38-.19 2.06-.28.69-.09 1.58-.04 1.53-.63.24-1.07.42-2.03.86-2.93l.02-.31-.23-.09c-.61.01-1.52.22-1.94.43z"/><path class="fil11" d="m133.33 9.33.62-.01c.05.25-.39 2.03-.49 2.45-.36 1.44-.1 1.96-1.25 1.7.08.35.34.06 1.42.17.52.05 1.08.1 1.59.14.7.05 2.62.22 3.2.09.23-.44.4-1.48.36-2.01-1.01-.68-2.72-1.5-3.88-2.23-.43-.27-.99-.6-1.62-.33l.06.03z"/><path class="fil12" d="M140.13 41.41c2.8-.18 6.22-.22 8.91-1 1.27-.37 2.46-.79 3.3-1.44.85-.66 1.63-1.33 2.22-2.37.11.12.15-.2.1.32.45-.44.87-2.93.43-3.44-.46 1.46-1.47 2.39-2.41 3.28-1.16 1.1-1.83 1.95-3.49 2.5-.43.14-.72.2-1.08.37-.37.17-.65.36-1.15.42-2.01.26-1.15.18-2.68.49-1.03.21-1.83.14-2.87.25-.49.05-.77.23-1.24.3-.41.06-1.04.11-1.37.19.39.03 1.09-.08 1.32.12z"/><path class="fil11" d="M139.21 13.9c.41.13.91.16 1.42.18.72.03.87.01 1.26-.31 2.28-1.89 2.11-.54.46-3.64-.43-.81-.93-2.1-1.79-1.85-.54.15-.4.7-.47 1.27-.15 1.1-.99 3.73-.88 4.35z"/><path class="fil6" d="M154.99 9.25c.16.41.57.75.87 1.17.34.47.03.75-.15 1.32-.22.7-.76.43-.95 1.02-.12.39.04.38-.21.76-.17.25-.33.18-.24.59.27 0 .84-.18 1.45-.21 1.38-.08 1.67-.72 2.43-1.17 1.91-1.13 1.25.02-.85-3.86-.26-.48-.52-.74-1.29-.63l.65.24c-.02.49-1.06 1.02-1.72.77z"/><path class="fil3" d="M132.14 5.4c-1.3.59-6.07 1.25-6.54 1.75-.18.19-.5.66-.68.89-.33.44-1.17 1.54-1.2 2.09l2.9-.41.89-.14c-.19-.94-.32-1.14.49-1.61l4.92-2.39.03-.31-.8.12z"/><path d="m150.08 20.5-.3.24c-.74-.26-.99-.25-1.8-.33.66 1.82 1.16 2.42 1.29 4.75.05.92.08 1.89-.14 2.77-.19.75.13 1.92 1 1.71.52-.22.54-4.16.51-4.57-.09-1.45-.6-3.18-.56-4.56z" style="fill:#fcebc5"/><path class="fil4" d="M90.71 33.97c-.65-.22-1.53-.06-2.24-.07-1.03-.01-1.29-.07-1.31.85-.09 3.63 5.35 1.73 5.59 1.21.27-.6-.94-.23-1.57-.45-.73-.26-.25-.91-.47-1.55z"/><path class="fil14" d="M128.13 5.84c-.04 0-.21-.01-.24-.01l-.28-.05.24-.25c.02-.01.05-.04.07-.06l-.32-.03c.58-1.5 3.13-2.67 4.63-2.96.15.15.08-.03.08.24l.17-.07c.02-.01.13-.05.16-.06l1.02-.34c.48-.16.92-.46 1.46-.31.08.37-.86 2.19-1.03 2.37 1.67-.23 1.66 0 2.08-1.31.21-.66.93-1.87.87-2.4-2.4.38-4.37 1.14-6.38 1.98-2.47 1.03-2.51.79-3.63 2.47-.25.37-.73.87-.82 1.3.46-.09.55-.2.94-.28.19-.04.31-.04.48-.07l.49-.17z"/><path class="fil4" d="M98.13 33.61c-.63-.14-1.37.06-2.03.08-.78.02-1.18-.12-1.54.41-1.09 1.6-1.23 1.34-.39 2.31.46.52.84.38 1.72.36 1.94-.06 1.43.11 1.97-1.89.12-.43.49-.88.28-1.26z"/><path class="fil1" d="M147.32 10.31c-.28.39-1.89 1.44-2.44 1.84-.58.43-2.36 1.6-2.32 1.97.9.08 2.47.03 3.27.01.24-.48.74-.97 1.11-1.43.37-.46.73-.9 1.12-1.36.49-.59 1.93-2.2 2.16-2.72-.89.1-2 1.42-2.9 1.7z"/><path class="fil2" d="M140.88 36.48c1.74.28 1.73-.15 1.78-.7.12-1.51.29-3.01.22-4.54-.03-.51-.08-.54-.59-.67-.32-.08-.8-.22-.98-.03-.14.23-.14 2.53-.18 3.02-.05.64-.43 2.43-.24 2.91z"/><path class="fil1" d="M132.32 2.73c-.52.11-2.16.79-2.65 1.05-.5.27-.7.45-1.03.78-.38.38-.38.5-.71.91-.02.02-.06.04-.07.06l-.24.25.28.05c.03 0 .2.01.24.01.34.02.24.03.55-.13.44-.22.02-.15.47-.14.58 0 .71-.04 1.2-.24-.12-.45-.24-.03-.69-.47.08-.43.64-.66 1.16-.85.66-.25 1.28-.33 1.77.11-.22.43-.45.19-.5.61l.45.05 1.58-.45c.16-.18 1.11-2 1.03-2.37-.54-.15-.98.15-1.46.31l-1.02.34c-.03.01-.14.05-.16.06l-.17.07z"/><path class="fil10" d="M141.52 4.73c-.17.7-.82 2.37-.75 3.01 1.22.47 1.03.34 2.43-.62l2.08-1.42c.02-.02.06-.07.07-.05.01.02.05-.04.07-.05.02-.01.18-.11.2-.13.21-.17.16 0 .2-.33-.71-.21-2.48-.19-2.98-.5-.67.07-.8-.2-1.31.1z"/><path class="fil1" d="M145.23 36.04c1.23-.07 2.58-1.21 2.64-2.38.08-1.41-1.19-2.19-2.66-2.33l.02 4.71z"/><path class="fil3" d="M147.27 15.95h-.88c.29-.33.38-.25 1.17-.36.39-.05.8-.17 1.22-.19l.12-.4c-.56-.11-1.55-.07-2.02-.17l-.13-.06-7.42-.11c.25.24.37.11.7.37.32.25.09.29.62.49.43.16 1.42.35 1.93.41l4.36.14c.29-.07.14-.01.32-.13zM138.76 26.81c.1-.48-.33-2.45-.42-3.12-.08-.56-.07-1.36-.34-1.45-.66-.2-3.01 1.26-1.59 3.09.34.43 1.58 1.48 2.35 1.48z"/><path class="fil2" d="M140.92 27.52c.39.13.94.29 1.46.24.03-.43-.9-5.26-1.1-5.72-1.78-.66-1.25.34-.95 2.1.19 1.1.44 2.26.58 3.38z"/><path class="fil14" d="M142.5 2.61c.7-.21 4.87-.05 5.95-.02.09.13.05.03.03.23.37-.09.8-.32 1.19-.18-.5.36-1.35.62-1.92.95-.26.15-1.64.88-1.74 1.05 1.01.36 1.98-.46 2.63-.84.37-.22.74-.44 1.18-.66.39-.2 1.07-.33 1.27-.73-.85-.02-1.79-.49-4.69-.52-.89-.01-4.61-.24-5.05.07.96.5 1.02.1 1.14.66z"/><path class="fil1" d="M142.5 2.61c-.12.04 0-.05-.21.1v.36c.93.05 1.78-.08 1.79.77-.56.24-.71-.05-.92.48.28-.02.68-.03.97-.04.88-.02.35 0 .78.19.77.34 3.55-1.63 3.57-1.65.02-.2.06-.1-.03-.23-1.07-.03-5.25-.19-5.95.02z"/><path class="fil2" d="M146.85 14.27c.22-.05.81-.09.99-.13.72-1.18 1.58-2.28 2.47-3.39.45-.56.87-1.07 1.34-1.63.41-.49 1.12-1.14 1.1-1.66-1.81-.19-1.33.73-1.86 1.3-.28.3-.48.48-.76.83-.79.99-3.22 3.83-3.3 4.67z"/><path class="fil8" d="M160.68 35.78c.48-.22.47-.39.98-.45.12.2.12.32.21.55.13.32.19.3.35.53.19.28.26.81.47 1.18.21.37.53.67.61 1.07.07.33-.05 1.3-.14 1.49.75-.1 1.31-.26 1.67-.66.15-1.13-.83-2.13-1.36-2.74-.34-.39-.64-.72-.95-1.13-.24-.33-.43-.92-.86-1.12-.27.13-.84 1.09-.96 1.29z"/><path class="fil12" d="m124.11 38.22.51-.06c.05.66.03.78.27 1.36.2.48.47.75.2 1.27.68-.03 2.31-.14 2.77-.41-.33-.34-2.71-1.33-2.6-2.22l.56.09-.43-.29.01-.36c-.28.11-.35.19-.65.31-.33.14-.4.07-.65.3z"/><path d="M131.32 14.41c-.94-.02-.95.22-1.58-.23-.42-.3-1.17-.13-1.92-.19.03.01.08 0 .1.03l.29.09c.29.1.2 0 .37.15-.14.34-1.61.61-2.47.89-.93.3-2.05.57-2.19 1.18.75-.11 4.18-1.15 5.51-1.49.35-.09 1.78-.36 1.89-.43z" style="fill:#e3c48a"/><path class="fil14" d="M132.2 13.47c1.15.26.89-.26 1.25-1.7.1-.42.54-2.2.49-2.45l-.62.01c-.44.61-1.01 3.23-1.12 4.14z"/><path d="M123.94 21.61c-.59.1-1.69.26-2.26-.04-.28-.15-.4-.33-.47-.67l.15-.98c-1.78.15-1.35-.05-1.48 2.22.58-.02 1.6-.25 3.12-.31.36-.01.68-.02.94-.22z" style="fill:#e0c085"/><path class="fil17" d="M130.35 5.33c.27-.07.56-.15.94-.2.48-.3.9-.21 1.24-.36l-.45-.05c.05-.41.28-.18.5-.61-.49-.44-1.1-.36-1.77-.11-.52.19-1.07.42-1.16.85.45.44.57.02.69.47z"/><path class="fil18" d="M132.02 9.49h.43l-.87 4.01.33-.51.28.47c.12-.92.68-3.53 1.12-4.14l-.06-.03c-.33.05-.99.06-1.25.2z"/><path d="M122.03 13.58c.19-.19.01-.12.4-.22-.05-.2-.1-.09-.05-.29.05-.18.09-.18.15-.26.34-.37 1.18-1.48 1.24-2.05-.85 0-1.08.72-1.46 1.28-.32.47-.93 1.18-.98 1.68l.7-.14z" style="fill:#fbfaf1"/><path class="fil1" d="M120.88 10.12c.25.18.61.26 1.03.3.77.07.75.04.72-.44-.06-.78.62-.17 1.06-1.38-.45.09-1.65.7-2.22.95-.41.19-.53.19-.58.56z"/><path class="fil17" d="m142.92 4.35.24-.03c.21-.53.36-.24.92-.48-.01-.85-.86-.72-1.79-.77v-.36c-.43.24-.12.19-.17.65-.03.33-.15.29-.18.67.25.11.62.2.98.32z"/><path class="fil18" d="M135.09 5.26c-.44.9-.62 1.86-.86 2.93l.34.34c.02.02.03.06.05.07.01.02.02.05.04.07.04-.55.41-.96.53-1.8.19-1.34.69-1.3.32-1.75-.29.01-.24.01-.42.13z"/><path class="fil2" d="M154.99 9.25c.66.26 1.7-.28 1.72-.77l-.65-.24c-.43.04-1.58-.25-1.52.12l.17.34c.13.2.21.38.27.55z"/><path d="M127.93 5.48c.33-.41.33-.53.71-.91.34-.34.54-.52 1.03-.78.48-.26 2.13-.94 2.65-1.05 0-.28.08-.09-.08-.24-1.51.29-4.06 1.45-4.63 2.96l.32.03z" style="fill:#887553"/><path class="fil18" d="M131.08 10.29c-.76.05-.51.4-.63 1.01-.05.28-.48.96.01 1.18.75.34.76-1.85.62-2.19z"/><path d="m61.92 34.86.32.02c.06.33.09.49.34.74-.25-.84-.07-1.18.02-2.05.01-.09.01-.24.03-.32.06-.32.01-.16.14-.33.49-.3 3.59-.11 4.44-.09l-.5-.12c-.13-.01-.4 0-.55 0-1.27 0-2.54-.19-3.54.09l.19-.92c-.02.02-.04.03-.05.07l-.22.59c-.05.24-.1.52-.17.78-.14.51-.28 1.01-.43 1.55z" style="fill:#7d8195"/><path d="M113.81 37.93c.86-.02 1.37.43 2.18.64.85.22 1.72.34 2.73.29-.12-.15-1.76-.24-2.63-.46-.71-.18-1.66-.75-2.01-.67-.43.09-.12-.03-.26.19z" style="fill:#9394a4"/><path d="M151.23 1.64c-.03-.02-.06-.07-.08-.05-.01.02-.06-.04-.08-.05l-.72-.21c-.51-.12-3.39-.14-3.6-.11.2.25 1.7.19 2.15.23.78.07 1.54.12 2.32.19z" style="fill:#8c9ec1"/><path d="M148.78 15.41c.3-.07.51-.09.78-.14.51-.1.39-.04.44-.36-.33-.12-2.83-.21-3.24-.14l.13.06c.47.11 1.45.07 2.02.17l-.12.4z" style="fill:#766b52"/><path d="M127.9 36.6c-.34-1.33.2-1.02.35-2.08-.22.16-1.13 1.29-.63 1.85.22.25.12.11.28.23z" style="fill:#756758"/><path d="M122.03 13.58c.76-.19.8.05 1.51-.04l.42-.14c-.6.01-.66.11-1.35 0l.08-.26c-.27.03-.18-.04-.16-.33-.06.08-.11.08-.15.26-.05.2-.01.1.05.29-.39.1-.2.03-.4.22z" style="fill:#8a8c9c"/><path d="M153.87 7.16c-.08-.52.02-.6.19-1.01-.18.1-.04-.04-.28.17-.11.1-.16.17-.21.28-.15.34.04.41.3.55z" style="fill:#5d6484"/></g></g></svg>