<svg xmlns="http://www.w3.org/2000/svg" xml:space="preserve" width="128" height="64" style="shape-rendering:geometricPrecision;text-rendering:geometricPrecision;image-rendering:optimizeQuality;fill-rule:evenodd;clip-rule:evenodd" viewBox="0 0 93.1 46.55"><defs><style>.fil5{fill:#282829}.fil4{fill:#0f0}.fil6{fill:#ff0}.fil2{fill:#fff}</style></defs><g id="Camada_x0020_1"><g id="_2486168825488"><path d="M73.7 20.5h.08c.67-.01 1.36.13 1.93.44.1.06.19.11.28.18l.87.66c.19.14.51.38.75.5.46.11.79.22 1.21.45.76.41 1.15 1.13 1.08 1.87l.42-.8c.15-.28.33-.49.6-.68.74-.55 1.63-.57 2.54-.6.66-.03 1.32-.05 1.97-.12.32-.04.64-.08.95-.16.94-.23 1-.44 1.74-.96.95-.66 1.54-.62 2.61-.57 1.24.02 2.24.91 2.24 2 0 .55-.09 1.21-.19 1.7l-.91 5.35c-.05.47-.13.94-.2 1.41-.07.45-.17.9-.24 1.36v.02l-1.61 9.55c-.01.03-.01.06-.02.09-.04.16-.04.34-.06.5-.01.04-.01.08-.02.12l-.41 2.09c-.19.97-1.13 1.66-2.26 1.66h-3.83c-1.12-.01-2.07.13-2.93-.77-.3-.31-.45-.61-.52-.91-.14.3-.27.55-.63.88-.7.62-1.56.76-2.51.77-.91.01-1.84-.04-2.75-.07h-.86c-.28.01-.51-.01-.79-.04h-.01c-.35 0-.67-.07-.96-.19l-.23.06c-.94.2-1.6.1-2.49.15-.07 0-.13.01-.2 0l-1.97-.02h-.06c-.59-.02-1.18 0-1.77 0-.88 0-2.71.03-3.76-.15-.82.15-1.7.05-2.54.04-.85-.01-1.65-.25-2.21-.84-1.16-1.19-.42-2.76-.15-4.12 0-.01 0-.02.01-.03l.52-2.43c.01-.03.01-.06.02-.1l-2.32-.05-2.69 5.69c-.36.77-.94 1.39-1.85 1.68-1.1.35-1.62 0-2.54.1-.12.01-.23.02-.35.02l-2.83-.05c-.76-.01-1.54.06-2.25-.08-.25.06-.51.08-.78.08h-.08l-2.1-.07c-.17.03-.36.04-.55.04-.17 0-.34-.02-.5-.05-.9 0-1.8.02-2.7.03-1.02.01-2.69.07-3.66-.11-.18-.04-.36-.09-.52-.16-.98.37-2.06.19-3.09.16-2.6-.08-5.88.4-8.15-.95-.87-.52-1.55-1.28-1.89-2.14-.08.09-.16.18-.25.25-.1.24-.29.43-.55.57-.29.16-.62.21-.93.16-.01 0-.02 0-.04.01-.05.08-.11.15-.18.22-.48.46-1.15.71-1.85.47-.39-.14-.63-.35-.79-.61-.03 0-.06.01-.09.01-.1.12-.23.22-.42.32-.38.2-.79.21-1.17.1-.11.11-.24.19-.39.26-.37.21-.84.24-1.26.07-.47-.19-.67-.45-.83-.8-.21-.24-.38-.3-.55-.63-.17-.02-.33-.08-.49-.16-.41-.22-.64-.58-.64-.99v-.68l-.12-.09c-.15.01-.31.01-.46-.03-.73-.15-1.15-.41-1.77-.7-.07-.03-.13-.07-.19-.11l-2.36-1.64-.14-.11c-1.92-1.78-3-4.73-1.06-6.82.72-.78 1.82-1.29 2.78-1.81.24-.13.44-.26.69-.38.23-.11.45-.22.67-.33.89-.45 1.77-.91 2.65-1.36l2.62-1.36c.28-.16 1.24-.6 1.52-.8v-.06c0-.5.35-.93.89-1.09.12-.14.24-.25.42-.36.13-.08.26-.14.41-.18 0-.01 0-.03-.01-.04l-.2-1.44c-.11-.46-.26-.98-.46-1.46l-1.31 3.54c-.03.07-.06.13-.1.2-.16.26-.31.53-.47.79-.37.58-.68.98-1.47 1.17-.51.12-1.01-.02-1.35-.37-.34-.35-.42-.81-.2-1.22l.47-.92c.01-.03.03-.05.04-.07.05-.09.11-.17.17-.25 0-.01.01-.02.01-.03v-.01c-.25.03-.52.06-.67.06-.21 0-.4-.01-.6-.04-.55.01-1.1 0-1.65-.01-1.11-.02-2.52.07-3.37-.68-.9-.79-.74-1.74-.47-2.67.16-.53.34-1.07.53-1.59.25-.71.52-1.41.77-2.08l5-14.37c0-.01.01-.02.01-.02.29-.8.29-1.46 1.1-2.09 1.06-.83 2.54-.59 3.84-.59h.05c1.46.03 3.25-.23 4.22.96.37.45.48.91.47 1.45 0 .07 0 .14.01.21.01.04.01.07.02.11l.08.74.77-.98c.02-.02.03-.04.05-.06C20.27.98 20.34.19 22.89.2l1.82.01h.15c1.36.08 2.79-.28 3.77.87.06.07.11.14.16.21.28-.34.63-.62 1.13-.82.82-.33 1.39-.2 2.19-.2H34.29l3.18.04c.98.01 1.81.57 2.13 1.33.44-.73 1.14-1.27 2.26-1.26l5.09.04 3.81.04c.22 0 .43.03.62.08.49-.12 1.01-.14 1.56-.14 1.18.01 2.39.09 3.57.14.82.03 1.52.43 1.9 1.01.23-.26.5-.48.84-.66.75-.39 1.48-.4 2.32-.37.76.03 1.49.05 2.25.03h.1l7.8.1c.1 0 .18.01.29.02.4-.05.7-.08 1.12-.04.39.03.75.06 1.14.06 1.08 0 1.99.63 2.23 1.55.28 1.05-.27 3.27-.48 4.41-.29 1.58-.13 1.67-1.34 2.87.06.19.1.38.1.59 0 2.27-.25 4.51-.25 6.78 0 .4-.13.77-.35 1.08 0 .02 0 .04-.01.06 0 .03-.01.05-.01.08l-.43 2.46z" style="fill:#000"/><path d="m55.45 30.25 7.98-16.94c.21-.43.24-.74.65-.98 0 1.77-3.7 17.9-3.78 18.03-.23.39-.85.19-1.47.19h-1.86c-.5 0-1.52.14-1.52-.3zm-9.23-.56 6.71-12.98 6.43-12.44c1.23-2.47.46-1.67 4.5-1.77l7.8.1c.61.08.71-.08 1.22-.03.44.04.8.07 1.37.07.14.51-.38 2.94-.51 3.63-.26 1.4.06 1.03-.93 2-.67.65-.76 3.16-.51 3.59l.17-1.81c0 2.52-.25 4.27-.25 6.78-.14-.17-.08-.25-.08-.48-.26.17-.16.58-.26 1.4l-.76 4.3c-1.37.1-3.24.05-4.03 1.58l-3.13 8.74c-1.44 4.48 3.05 3.22 4.54 3.53.49.1.23.41-.07 1.42l-.64 1.95c-.16.47-.17.61-.81.63-5.31.17-4.47-1.12-5.73 2.47-.82 2.34-.13 1.97-3.01 1.94-.99-.01-.52-.61-.13-2.61l.52-2.43c.14-.67.53-1.83.37-2.41l-5.8-.12c-.37-.05-.57-.01-.74.18l-3.19 6.76c-.49 1.04-.98.38-2.57.56l-2.86-.05c-2.64-.02-2.3.43-.94-2.82.19-.51.43-.81.43-1.47-.78-.46-.91-.07-2.03-.3 0-.5 1.51-3.38 1.91-4.03.33-.54 1.48.09 1.81-.72.26-.64 1.31-3.61 1.19-3.92-.13-.36-.69.07-.01-1.23z" style="fill:red"/><path class="fil2" d="M8.12 22.18c.05 0 .58-.07.59-.07.54-.96 2.99-8.58 3.7-10.54.13-.34-.11-.08.19-.28.46.3.43 3.17.84 4.66l.71.61c.16-.15.36-.36.59-.61.25-1.13.95-2.3 2.21-2.57.55-.67 1.01-1.22 1.17-1.41.43-.5.34-.57.75-.6-.02.68-.44 1.26-.76 2.22.08.1.13.22.13.34l.05 1.1v.04c0 .11-.02.2-.05.29v.01c.05.12.06.23.05.36 0 .09-.02.17-.04.24.03.11.05.23.04.35l-.02.53c.05.92.28 1.86.48 2.79.08-.09.16-.19.24-.3.45-.57.98-1.46 1.95-1.24.07.02.15.04.23.07.17-.3.38-.85.7-1.81l3.19-9.13 1.59-4.54c.32-.82.09-.43-2.01-.55l-1.82-.01c-1.26-.01-.76-.04-2.06 1.5L16.88 8.6c-.59.8-.44.22-.65-1.19l-.49-4.48c-.19-1.09.59-.85-2.49-.91-2.9 0-2.18-.32-2.76 1.29l-5 14.37c-.25.68-1.6 4.17-1.4 4.35.1.09 2.96.11 3.5.1.38-.01.12.04.49.04zm68.41 4.3c.36 0 .44-.08.55-.34l.53-1.71c-.79-.43-.57.08-2.21-1.11l-.91-.68c-.17-.09-.41-.14-.66-.14-1.48.03-3.91-.23-5.13.24-.43.16-.57.29-.81.55-.49.51-.7 1.1-.92 1.78-.87 2.64-1.86 5.16-2.75 7.97-.73 2.3 1.19 2.41 2.84 2.41 2.78 0 2.55-.26 2.02 1.47-.14.47-.32 1-.52 1.55-.37 1.01-.41 1.72-1.42 1.81-.83.07-2.29-.07-3.34-.03-1.52.05-1.26-.15-1.54.71-.16.5-1.22 3.03-1.15 3.34.34.11 2.91.12 3.41.12.61 0 1.26-.02 1.87 0l1.97.02c1.07-.07 2.37.21 3.26-.71.43-.45.51-.9.75-1.56.21-.58.35-1.08.57-1.65.44-1.13.86-2.25 1.22-3.38l.85-2.59c.22-.71.38-1.77-.26-2.33-.31-.27-.66-.38-1.06-.48-1.15-.3-1.94-.14-2.81-.14-1.26 0-.89-.24-.52-1.27.17-.48.34-1.02.51-1.48.55-1.51.48-2.44 1.7-2.44l3.98.07zm4.32 10.81c0-.33.04-.4.19-.65l2.43-5.06c.2-.46 1.32-3.02 1.62-3.32.1.41-.51 3.01-.63 3.6-.09.44-.13.8-.22 1.21l-.73 3.58c-.05.34.07.41-.17.6-.22.18-.26.05-.53.05-.36 0-.13.05-.41.05-.16 0-.06-.05-.35-.05-.42 0 .09.06-.33.05-.32-.01.14-.05-.26-.05-.32 0-.06.11-.59 0zm6.59 5.17c.04-.28.03-.4.09-.66l1.61-9.55c.07-.42.18-.98.24-1.35.08-.52.15-.9.2-1.38l.92-5.41c.07-.35.17-1.02.17-1.41-.47-.01-.72-.16-1.12.13-.79.56-1.07.96-2.55 1.33-1.8.45-4.33.28-4.61.49l-4.35 8.19c-.12.26-.27.52-.42.82-.13.26-.27.56-.41.82-1.14 2.05-2.02 4.16-3.19 6.17-.2.35-.05.26-.41.82-.11.18-.13.25-.2.42-.21.51-1.18 1.95-1.19 2.51.37 0 .37.06.73.04h.94c4.16.11 3.4.22 4-.85l.96-2.13c.51-1.15.07-.91 3.11-.91.43 0 .38.07.76.07l-.56 2.92c-.25 1.22-.44.99 1.06 1h3.81l.41-2.09zM31.15 29.58c0 .27.59.04.85 0l2.86-.54c1.25-.22 1.15-.13 1.39-.79l1.63-4.65c.62-1.86.64-1.43-1.98-1.43l-7.45-.07c-.74 0-1.32.17-1.8.43-.28.15-.68.54-.81.77-.54.91-1.84 4.96-2.29 6.14-.18.48-.37 1-.52 1.47-.28.88-.43 1.23-.43 1.43.15 0 .29.03.42.11.78.46 2.11 2.13 2.37 2.93.63 1.95-.65 3.9-2.43 5.02-.01.01-.02.01-.04.02l-1.55.86c-.02.01-.03.02-.05.02-.53.25-1.09.45-1.66.61.09.68.63 1.22 1.1 1.5 1.54.92 5.05.55 6.93.6.43.01 1.81.16 2.16-.02.3-.15 1.21-2.33 1.44-2.82.56-1.16.64-1.2.04-1.23l-1.37-.03c-.29 0 .13.04-.25.04-.36 0-.13-.05-.41-.05-.16 0-.06.05-.35.05l-1.88-.02c-.39.02-.19-.05-.49-.05-.38 0 .07.09-.45.03-.49-.05-.9-.14-.9-.62 0-.41 1.02-3.04 1.24-3.66.83-2.37 1.74-4.78 2.47-7.1.2-.63.42-1.11.63-1.75.07-.21.22-.65.38-.85.38-.49 1.5-.36 2.12-.31.18.01.28-.05.28.19 0 .3-.47 1.53-.6 1.92-.1.29-.58 1.65-.58 1.86zm.55 14.48c.73.14 4.82.04 6.05.04.3 0 .19.04.35.05.42 0-.09-.05.33-.05l2.37.07c.53 0 .52-.26.74-.83.22-.58 1.39-2.98 1.32-3.27l-4.6-.05c0-.73 1.51-4.74 1.78-5.18 1.03.08 1.31.03 1.65.05.61.04 2.34.1 2.84-.05.14-.53.37-1.09.57-1.65.21-.58.37-1.11.56-1.67.2-.58.31-.46-1.64-.46h-2.54c-.13-.3.7-2.51.86-2.95.1-.29.27-.73.31-1.05-.45-.34-.88-.7-.92-1.33-.05-.77-.07-1.42.76-1.48.05.08.6 1.56.91.42.85-3.06.63-2.42-1-2.42l-1.04-.04c-.4-.01.09.04-.32.04-.33 0-.14-.04-.42-.04-1.6 0-1.42-.3-1.94 1.32-.9 2.85-2.17 6.05-3.05 8.81-.31.99-.68 1.94-1.02 2.88-.36.99-.7 2.01-1.02 2.96-.28.85-2.05 5.36-1.92 5.88zm11.89-18.4c1.18.36 4.05.57 5.17-.99l5.16-14.81c.28-.8 2.47-6.79 2.47-7.4-5.79-.22-4.58-.47-5.45 1.97l-2.33 6.63c-.77 2.2-4.48 12.6-5.01 14.59zm-4.91-3.71c1.16 0 1.07-.73 1.36-1.55l2.28-6.45h4.32l1.19-3.48-4.15-.07c0-.33 1.24-4.07 1.44-4.44h4.4c.2-.37 1.19-3.12 1.19-3.56l-3.81-.04-5.08-.04c-.3 0-.46.85-.6 1.25l-6.3 18.12c.11.17 2.48.11 2.84.1.92-.01.79.15.93.15zm-10.25-6.22c0-.81 3.4-7.56 3.89-8.59.27.17.08.36-.05.99l-1.4 6.71c-.17 1.09.2.89-2.45.89zm-5.21 6.53 1.91.08c.73-1 1.32-2.51 1.87-3.64l3.05.01c0 .93-.35 1.82-.43 2.51-.09.76-.01.52 2.38.52.21 0 .33.04.43.04l1.68-.04 2.8-16.36c.05-.61.5-2.37.5-3.12l-3.18-.04h-2.15c-1.94-.01-.98-.58-3.36 3.77l-5.28 10.2c-.79 1.45-1.17 2.18-1.3 2.6.51.4.98.89 1.17 1.23.04.07.09.16.12.24 0 .01.01.02.01.03.23.58.07 1.31-.22 2z"/><path d="M13.54 39.96c.02-.24.11-.44.17-.67.21.1.37.07.21.4-.09.19-.21.19-.38.27zM9.31 39c.02.69.41.6.42 1.18-.37-.01-.42 0-.68-.96l.12-.12c.13-.12.02-.03.14-.1zm7.7-1.41c-.15-.3.18-1.29.23-1.65.05-.31 0-.63.02-.95.03-.75.33-.58.43-.59 0 .53-.02 1.35-.13 1.81-.23.94-.13 1.28-.54 1.38zm4.74-3.11c.5.04.58.44.75.9.32.84.57 1.75.12 2.68-.41.84-1.39 1.5-2.13 1.99-.51.34-1.58 1.03-2.21 1.03.03-.29.04-.25.33-.37 2.37-1.05 4.92-2.46 3.59-5.2-.19-.39-.38-.53-.45-1.01zm-11.6-.07c0-.49.35-1.14.68-1.33 0 .6-.16.38-.29.78-.16.49.15.56-.3.7-.09-.14-.08-.01-.08-.15zm-5.76-2.22c.54-.11.86-.48 1.44-.52-.12.21-.06.19-.55.41-.78.33-.76.32-.89.11zm1.97.54-.11-.17c.24-.39.31-.51.7-.8.32-.24.6-.44.99-.46-.04.44-.44.33-.81.7-.42.41-.38.59-.78.73zm6.5.57c-1.03 0-1.44-.24-1.91-.77-.87-.99-1.93-1.43-2.11-1.79-.53-1.01 1.33-1.81 1.73-1.81 1.45 0 1.09-.06 2.11.68.65.47 1.24 1.58 1.39 2.35.3 1.56.13 1.35-1.21 1.35zm2.37-3.93c.43.57.39 4.79.2 5.8-.19.96-.11 1.42-.62 1.46 0-.34.5-2.12.51-2.74l-.17-2.82c-.05-.84-.32-1.45.08-1.7zm3.05 1.56c-.93-1.07-.41-.1-1.67-2.16-.15-.25-.19-.29-.19-.58 0-.14.03-.13.08-.22.25.09.09-.11.32.53.13.37.57 1.24.81 1.52l.36.42c.22.24.54.4.86.73.19.19.27.18.35.44-.42-.03-.5-.17-.93-.67zm-.68 1.63c-.51-.01-.4-.06-.49-.46-.15-.6-.45-1.06-.76-1.55-.29-.46-.69-.78-.78-1.54-.06-.55-.43-1.14.26-1.19.16.29.08.37.04.7-.1.83.4 1.37.64 1.82l.32.53c.3.41.77 1.17.78 1.69zm-2.96-4.67c0 .58-.98 2.69-1.09 1.78-.02-.18.14-.28.28-.57l.41-1.19c.1-.36 0-.29.31-.47.03.3.08.17.08.44zm-2.71.89c.03-.34.38-.52.83-.91.54-.47.62-.72.95-.8.23.36-.23.68-.7 1.09-.44.39-.68.6-1.08.61zm-5.57 3.94c.06.26.02.13.29.3l4.74 2.74c.96.51 1.91 1.02 2.98 1.4 1.55.54 2.64.74 3.92 1.16.56.18 1.51.35 1.76.68-.68.29-2.51-.14-3.25.12l-1.58 1.51c.88-.37.46.1.51.2.29.16.44.08.85.09.36.01.38.07.76.07-.05.54-.26.04-.42.67 1.58 0 2.98-.42 4.04-.91l1.55-.86c1.48-.93 2.71-2.6 2.15-4.32-.2-.61-1.42-2.19-2.07-2.57-.21.35-.36.75-.83.9-.93.3-3.77.29-4.67-.24 0-.82.36-.62.51-1.11.35-.03.54-.22.76-.37.22-.15.46-.3.69-.43.51-.29 1.06-.37 1.59-.68-.12-.46-2.09-2.43-2.65-3.09-.31-.36-1.04-.89-.33-1.29.45-.25.42.02.69-.43-.46-.15-.54-.39-1.55.5-.23.2-.39.49-.49.02-.01-.04.01-.23.02-.27.02-.13.11-.38.16-.54h-.25c-.14.52-.48 1.19-1.19 1.19-.03-.28-.14-.61-.17-.89-.42 0-.53.04-.68-.22-.09-.14-.16-.49-.17-.67-.3.19-.11.33-.76.52 0 .98-.66 1.01-2.13 1.84l-2.66 1.38c-.92.48-1.77.92-2.66 1.37-.24.12-.44.23-.7.35-.32.15-.34.19-.62.35-.78.43-1.88.95-2.45 1.56-1.51 1.63-.44 3.97.99 5.3l2.36 1.64c.47.22.85.47 1.44.59-.08-.27-.32-.46-.43-.67-.14-.27-.07-.58.39-.49.54.1 1.82 1.14 2.1 1.21.45.11.17-.09.91.25 1.39.63.64.16 1.02-.52.72-.3.75.44 1.27.74.34-.07.54-.22.93-.31.67-.15.43 0 .42.45.53 0 .76-.07 1.19-.07-.09-.36.03-.37.76-.81.32-.2.72-.45.76-.89-.44-.01-.67-.1-1.26-.06-.32.02-.73.06-1.08.04-.84-.04-.63.09-1.05.16-1.22.19-1.84-.16-2.36-.29-.29-.07-.79-.14-1.14-.19-.74-.11-1.6-.25-2.42-.26-.78 0-2.09.11-2.37-.3-.41-.6-.38-2.24-.21-3.14.23-1.21.43-1.64 1.14-2.56.51 0 .51.1.95.17z" style="fill:#ec760e"/><path class="fil4" d="M17.01 25.88c.62-.14 1.35-2.48 1.36-3.03l-.1-1.92c-.17-1.16-.64-2.82-.71-4.06l.02-.56c.01-.37-.05.07-.05-.29 0-.25.05-.16.05-.3.01-.25-.05-.05-.05-.36 0-.25.05-.12.05-.3l-.05-1.1c-1.44 0-2.13 1.66-2.15 2.9-.01.43.56 1.81.69 2.22.1.3.19.46.27.73.16.57.3 1 .34 1.62.03.36.1.56.15.84.21 1.2.19 2.2.19 3.61zM7.27 39.88c.2.32.2.35.52.58.31.22.29.28.67.45v1.26c.2-.09 1.35-.74 1.35-.22 0 .29-.11.09-.31.48-.25.47.17.53.43.9.13.19.1.3.26.36.17-.15.11.08.1-.23-.02-.27-.37-.48-.36-.77.01-.39.75-.52 1.02-.48.36.25.14.7.62 1.04.57.4-.06-.78.61-.78.41 0 .45.14.59.37.06-.04.12-.05.2-.12.14-.11.07 0 .14-.17h.59c.08.25.16.21.26.51.09.25.21.75.67.3l.23-.39c.14-.3-.04-.28.27-.28.4 0-.05.07.28.09.26.02-.04-.07.39-.08.19 0 .13 0 .26.06.02-.61.13-.17.42-.52-.15-.51-.35-.1-.17-.89l-3.3-.07c-.06-.25-.01-.2-.08-.37-.49.1-.47.34-.93.44l-.23-.18c-.18-.16-.15-.07-.2-.26-.2.14-.08.04-.21.26-.06.1-.07.16-.13.26-.65-.05-.74-.37-1.19-.37-.34 0-.25.07-.51.22-.37-.09-.85-.53-1.11-.73l-.52-.36c-.65-.38-.25-.28-.66-.31zM9.31 25.88c.35-.08.44-.28.65-.61.18-.28.29-.5.47-.78l1.7-4.59c.47-.82.84-1.06 1.65.14.49.73.81 1.7 1 2.54l.2 1.48c.21-.18.24-.33.28-.68.13-1.09.07-2.2-.44-3.22-.23-.46-.6-.82-.96-1.16-.06-.06-.05-.06-.12-.12-.55-.51-.93-.71-1.64-.71-1.7 0-1.33 2.65-1.45 3.84-.12 1.13-.14 1.35-.61 2.5-.14.34-.12.19-.27.44l-.47.92zM18.87 21.22c.58-.14 1.47-1.42 2.03-1.56.33.19.44.34.58.68.73 1.72-.13 2.39-.68 3.68-.27.64-.95 2.3-.5 3.05.18.3.19.23.51.37.37-.49.35-.48.34-1.63-.01-.71.18-1.17.39-1.73.11-.28.16-.48.32-.75.42-.71 1.19-2.08.88-2.84l-.1-.2c-.28-.51-1.4-1.44-1.88-1.55-.43-.1-.81.55-1.16.99-.41.51-.74.68-.74 1.49z"/><path class="fil2" d="M5.5 33.59c-.21.13-.26.4-.35.66-.32.91-.44 2.45-.27 3.36.08.41.03.4.5.46.67.09 1.38.04 2.07.04-.04-.37-.39-.74-.57-1.05-.57-.93-1.28-2.43-1.37-3.47z"/><path class="fil4" d="m16.17 22.18-.04.85c0 .19 0 .19-.05.41-.44 2.23-1.23 1.34-.76 3.11l.88-1.45a2 2 0 0 0 .12-.34c.31-.94.15-1.35.09-2.36l-.56-2.55c-.19-.66-.78-1.57-1.29-2.05l-.04-.04-2.06-1.75c-.21-.19-.21-.29-.61-.28.05.35.45.8.82 1.14l.04.04c.6.54 1.18 1.07 1.71 1.69.3.35.63.7.85 1.11.03.06.07.14.11.2.35.56.8 1.62.8 2.26z"/><path class="fil2" d="m9.48 35.22 1.77 3.57c.2.18 1.08.11 1.28.06 0-.63-.06-1.02-.14-1.5-.11-.66-.18-.66-.69-.96l-1.38-.79c-.1-.06-.16-.08-.26-.14-.23-.14-.21-.18-.58-.23z"/><path class="fil4" d="M9.77 29.99c-.11.49.37.35.38.93.34.02.19.01.77.36.23.14.05.1.38.19.27.07.38 0 .56.11.26.16.07.14.2.33.2.28-.07-.02.29.13.38.16.21.35.85.36.08-.85.12-1.03-.37-1.75-.75-1.09-2.59-.93-3.06-.66z"/><path class="fil2" d="M8.12 37.88c0 .15.03.17.08.32.55.18 1.58.35 2.2.35-.01-.45-.6-1.4-.83-1.87-.15-.31-.3-.61-.44-.87-.11-.2-.37-.68-.42-.89-.51.21-.59 2.42-.59 2.96zM6.17 33.74c0 .79.9 3.48 1.52 3.85 0-3.21 1.3-2.66-.55-3.82-1.06-.66-.98-.51-.98-.03z"/><path class="fil4" d="M18.28 33.51c.44 0 .56.11 1.01.07.41-.04.21-.09.43-.09.27 0-.01.07.42.1.1-.34.06-.19.27-.18.49.03.24-.19.74.1 0-1.29.68-.39.68-.96 0-.79.07-.81-.68-.81-.93 0-2.8.91-2.88 1.78z"/><path class="fil2" d="M13.45 38.76c.85.02.97.18.85-1.25-.45-.21-.9-.44-1.53-.44l.12 1.6c.16.09.25.08.56.09zM18.68 21.71c-.04.6-.11.54.88.54.38 0 .43-.45.52-.73.08-.24.27-.71.3-.95-.52.06-.76.91-1.69 1.14zM16.1 38.08l-1.12-.28c-.3 0-.21.11-.19.37.02.29-.18.68 1.22.58.45-.03.46-.49.1-.67zM18.16 38.66c-.06-.04-.11-.05-.18-.08-.26-.1-.77-.26-1.05-.26-.25 0-.27.36 0 .45l1.38.02c-.09-.1-.01-.05-.15-.13zM15.77 22.21c.06-.31.03-.6-.11-.84-.08.06-.24-.17-.11.45.04.17.01.21.13.34.01.01.03.02.03.02l.06.03z"/><path class="fil5" d="M71.24 9.71c.05-.14.05-.42.07-.58.09-.52.28-1 .68-1.4l.04-.04.17-.16c.37-.34.76-.67 1.07-1.05.45-.55.8-1.12 1.31-1.65.04-.04.08-.08.12-.11l2.5-1.96.09-.06c1.87-1.22 4.77-2.05 7.05-1.4 1.19.34 2.61 1.19 3.61 1.85.62.41 1.06.86 1.53 1.39.85.96 1.51 1.85 2.14 2.94 1.4 2.45 1.98 3.09.93 5.86-.46 1.22-.19 2.68-.28 3.95-.2 2.78-.57 5.87-3.77 7.28-2.16.95-7.34 1.14-9.75.85-1.78-.21-3.01-.55-4.33-1.66-.03-.03-.06-.05-.09-.08l-1.79-1.84c-.04-.04-.07-.08-.1-.12-.9-1.21-1.58-3.48-1.53-4.9 0-2.26.25-4.52.25-6.78 0-.11.02-.22.06-.33zm3.79 2.33c-.16.25-.38.46-.49.7-.12.25-.01.51.11.73.05.09.08.18.1.27.81.18 1.62.46 2.4.72.79.26 1.58.51 2.34.82.34.14.64.22.96.41.06.03.11.07.16.1.11-.22.31-.41.57-.53.06-.03.13-.06.2-.08-.01-.01-.03-.02-.04-.03-.39.2-.86.21-1.26.03-1.12-.52-2.03-1.31-3.07-1.93-.66-.39-1.31-.82-1.98-1.21zm8.62 2.71c.64-.05 1.29-.06 1.87-.11h.06l2.09-.09c.19-.83.85-1.19.88-1.45v-.03c-.01-.1-.04-.22-.06-.32-.03-.16-.05-.32-.05-.47-.81.35-1.67.78-2.03.96l-2.75 1.52zm-6.36 6.12c.67-.3 1.76-1.07 2.36-1.3.38-.14.76-.27 1.15-.41-.07 0-.15 0-.22.01-.21.01-.4.06-.64.06-.11 0-.22-.01-.33-.03l-2.74.1c-.28.01-.55.01-.83.01h-.26c.16.19.41.41.51.49.35.3.66.63.94.98.02.03.04.06.07.08z"/><path class="fil5" d="M71.93 9.89c.06-.18.07-.48.1-.67.07-.4.2-.77.51-1.08l.02-.02.17-.16c.39-.36.8-.72 1.14-1.12.46-.57.73-1.05 1.28-1.61l.05-.05 2.5-1.96c.01-.01.03-.02.04-.03 1.67-1.09 4.34-1.89 6.4-1.31 1.06.3 2.5 1.16 3.41 1.76.58.38.95.77 1.39 1.27.88.99 1.42 1.71 2.06 2.84 1.33 2.32 1.88 2.78.89 5.38-.51 1.33-.22 2.74-.31 4.11-.18 2.52-.46 5.47-3.37 6.75-2.01.89-7.08 1.05-9.33.78-1.64-.2-2.73-.48-3.93-1.49-.01-.01-.03-.02-.04-.04l-1.79-1.84c-.02-.02-.03-.03-.04-.05-.82-1.11-1.46-3.26-1.41-4.56 0-2.26.25-4.51.25-6.78 0-.05.01-.09.02-.14zm2.14 1.01c.02.01.03.02.05.03.02.01.04.03.06.04.02.01.03.02.04.03.05.03.11.08.15.13.13.14.16.32.09.49-.14.31-.44.56-.59.88-.2.43-.09.84.13 1.25.09.16.08.33-.03.48l-.01.01c.22.05.47.09.54.1.76.16 1.66.47 2.4.71.75.25 1.56.5 2.29.8.31.13.58.19.88.36.13.08.22.19.25.32.03.14 0 .27-.1.38l-.18.21c.31-.04.59-.1.94-.15.24-.03.47-.02.69-.01-.2-.16-.35-.36-.42-.61-.06-.22.05-.45.28-.55 1.06-.49 2.85-.45 4.06-.55h.03l2.75-.12a.401.401 0 0 1-.03-.15c0-1.04.86-1.22.93-1.84.01-.05 0-.1 0-.14-.04-.39-.3-.87.11-1.19.36-.28.81-.1 1.16.09v-.02c.05-.45-.03-.87-.65-.8-.8.08-3.13 1.21-3.87 1.59l-3.58 1.98c-.18.1-.39.1-.58.01a.49.49 0 0 1-.29-.42.57.57 0 0 1-.35.12.47.47 0 0 1-.22.22c-.18.1-.38.1-.56.02-1.03-.48-2.02-1.31-3-1.89-.97-.58-1.86-1.2-2.9-1.69-.07-.03-.3-.13-.45-.13zm2.91 10.71c.55.03 2.36-1.24 2.94-1.46.65-.25 1.32-.45 1.96-.71.59-.24 1.37-.75 1.97-.86.1-.02.19-.03.29-.05h-2.95c-.22 0-.44 0-.66.01-.22.01-.38.06-.61.06-.09 0-.17-.01-.25-.03h-.02l-2.84.11c-.27.01-.53.01-.8.01-.37 0-1.12-.06-1.12.38 0 .43.55.91.87 1.19.32.27.6.58.86.9.12.14.23.32.35.46zm11.01-3.02c.16.07.36.13.48.13h.22c-.2-.06-.44-.1-.7-.13z"/><path class="fil6" d="M72.47 10.03c0 2.52-.25 4.27-.25 6.78-.04 1.1.51 3.19 1.32 4.29l1.79 1.84c1 .84 1.88 1.15 3.61 1.36 1.91.23 7.02.14 9-.74 2.63-1.16 2.89-3.91 3.06-6.34.12-1.64-.22-2.76.34-4.23.91-2.39.47-2.68-.86-5.01-.73-1.28-1.07-1.7-2-2.76-.42-.47-.72-.81-1.28-1.18-.84-.55-2.31-1.42-3.24-1.68-1.89-.54-4.39.26-5.89 1.23l-2.5 1.96c-.74.76-.69.9-1.25 1.58-.35.43-.8.83-1.19 1.18l-.16.15c-.48.49-.36 1.18-.49 1.57z"/><path d="M81.74 10.89c-.48.02-.38 1.03-.38 1.37v.89c0 .28.03.51-.17.74-.51-.3-1.01-1.56-1.67-1.54-.01.55 1.15 1.33 1.16 1.83-.76-.35-2.19-1.41-2.95-1.86-1-.59-1.81-1.18-2.95-1.72-.36-.17-.91-.33-1.24.01-.14.14-.18.36-.05.52.12.16.03.03.3.2.01.01.04.03.05.03.01.01.04.05.05.04.01-.01.03.02.05.04-.18.41-1.24 1.08-.44 2.52h-.51c-.07.62.72.72 1.39.86.76.16 3.8 1.16 4.58 1.48.32.13.53.17.81.33l-.18.22c-.3.3-.39.41-.07.82.72 0 .92-.1 1.56-.19.65-.09 1 .12 1.62.01.29-.66-.72-.6-.89-1.22.9-.42 2.51-.39 3.85-.5l3.94-.17c-.04-.4-.31-.52-.68-.59 0-.85.83-.97.93-1.79.07-.62-.53-1.4.47-.84.49.27.75.04.8-.42.08-.67-.18-1.46-1.28-1.34-.87.09-3.27 1.23-4.11 1.67l-3.58 1.98c.01-.39-.04-.17.14-.4.07-.09.18-.21.26-.29.28-.27 1.31-1.09 1.44-1.34.21-.39.05-.19-.03-.27-.22-.17-1.27 1.02-1.5 1.24-.18.17-.29.32-.57.39-.2-.36.14-1.84 0-2.44-.07-.28.09-.08-.13-.26zm-7.49-2.04c0 .45.9.85.59-.3l-.51-.01c-.05.21-.08.15-.08.31zm.85-.89c0 .27.13.36.25.52h.42c.36-.47.36-.57 0-1.04h-.51c-.07.13-.17.33-.17.52zm1.69.81c.93 0 .81-1.26.25-1.26-.89 0-.78 1.26-.25 1.26zm-2.46 10.3c0 .63.64 1.2 1.04 1.54.68.59 1.13 1.29 1.23 1.38.66.57 2.89-1.13 3.55-1.38.68-.26 1.32-.45 1.97-.72.5-.21 1.44-.75 1.85-.83.67-.12 1.74-.22 2.47-.29.61-.06.55-.12 1.03.14.22.12.67.31 1 .31.79 0 1 .08 1.27-.44-.64-.84-3.02-.77-4.48-.74h-4.07c-.22 0-.47 0-.68.01-.37.01-.32.06-.59.06-.26 0 .17-.05-.29-.03l-2.84.11c-1 .05-2.46-.17-2.46.89z" style="fill:#000"/><path class="fil2" d="M77.04 12.77c-.37-.17-.45-.31-.78-.5-1.28-.73-2.04-.6-2.24.89-.15 1.11.56 1.01 1.46 1.21 1.09.24 2.03.86 2.89 1.17.35.13.63.38 1.02.17.91-.49.54-1.59-.34-.9-.25.2-.53.49-.92.36-.26-.09-.59-.41-.77-.59-1.02-1.06-.31-.77-.31-1.81zM86.27 13.37c0 1.04-.02 1.44-1.56 1.52-.49.03.02-.04-.39-.04-.33 0-.2.2-.63-.04-.21-.12-.24-.25-.49-.2-.76.14-1.62 1.4-.05.92.34-.11.65-.21 1.03-.29 3.42-.65 3.29.78 4.59-1.54.5-.9.54-1.98-1.02-1.12-.53.29-1 .5-1.48.78zM75.43 19.37c0 .15.29.4.39.47.18.13.38.19.71.19.03-.13.03-.14.05-.22l.04-.15c.87.02.81.53 1.35-.37.32.19.3.22.85.22-.03.37-.25.47-.65.54-.72.13-.39.14-.87.42-.25-.12-.28-.2-.59-.22-.25.91.33 1 1.19.44.97-.64 1.89-.96 3.14-1.32l1.32-.4c.24-.12.21-.1.25-.25l-5.82.27c-.45.01-1.35.01-1.35.37z"/><path class="fil2" d="M78.31 13.96c0 .13.11.28.17.37h.42c.06-.24.14-.46-.51-.59-.03.09-.08.2-.08.22zM84.79 13.89c-.09.05-.32.08-.28.29.02.15.2.15.4.07.3-.13.37-.62-.11-.37z"/><path class="fil5" d="M49.77 24.48c-.12.32-.3.62-.53.91-.83 1.04-1.89 1.58-3.29 1.83-.75.13-2.01.18-2.65.48-.14.06-.29.06-.43-.01a.37.37 0 0 1-.21-.32c0-.06 0-.19-.01-.27-.17-.1-.27-.14-.45-.29-.67-.59-.62-1.42-.47-2.17.03-.13.12-.23.26-.28a.49.49 0 0 1 .41.03c.36.21.48.56.82.66.23-.65.6-2.19.69-2.85-.39.01-.77.03-1.16.07-.3.03-.65.07-.91-.12-.33-.24-.29-.73-.29-1.07 0-.13.03-.27.1-.39.53-1 2.9-.8 3.9-.66.88.12 2.02.38 2.77.81.6.34 1.03.79 1.3 1.28.12-.37.31-.71.59-1.03.32-.36.69-.59 1.02-.91.08-.07.17-.11.28-.12.47-.04.63.04 1.03.17.09.03.16.08.21.15.05.06.1.13.14.2.86.05 1.17.2 1.64.94.4.64.37 1.3.11 1.97-.32.84-.98 1.72-1.89 2.09 1.53.44 1.18 1.97.06 1.97-.84 0-1.73.04-2.56.19-.31.06-.79.21-1.08.21-1.38 0-1.38-2.5 1.44-2.5h.08c-.42-.23-.73-.56-.94-.95zm2.15-.92c.59-.3 1.25-1.36.81-1.94-.34.24-.48.28-.78.86-.17.34-.2.75-.03 1.09zm-6.63 1.61c.44-.06.91-.19 1.27-.32.45-.16 1.43-.57 1.51-1.05.07-.36-.48-.73-.77-.9-.16-.09-.85-.48-1.08-.48-.07.09-.17.49-.2.58-.15.45-.57 1.51-.74 2.17z"/><path class="fil6" d="M44.78 25.59c0-.43.63-2.08.82-2.69.23-.71.19-1.33 1.93-.31 2.82 1.65-1.27 3-2.75 3zm4.4 1.96c.4 0 1.02-.41 3.64-.41.74 0 .96-1.33-1.02-1.33h-1.19c-2.23 0-2.21 1.74-1.44 1.74zm2.54-3.54c-.39-.44-.48-1.1-.17-1.69.43-.84.64-.75 1.19-1.21 1.36.8-.02 2.8-1.02 2.91zm.68-3.44c-.29-.09-.43-.18-.85-.15-.56.54-1.55.95-1.66 2.6-.17 2.59 3.14 3.43 4.34.32.24-.63.24-1.16-.08-1.67-.39-.62-.54-.71-1.51-.75-.07-.1-.16-.23-.25-.35zm-10.41.5c0 1.23.03.74 2.12.74.14 0 .25.04.25.15 0 .51-.65 3.11-.85 3.48-.84.07-.92-.49-1.35-.74-.12.61-.2 1.35.35 1.84.45.4.58.1.58.82 1.43-.66 4.02.02 5.79-2.19 1.03-1.28.9-3.07-.79-4.04-1.56-.89-6.1-1.35-6.1-.07z"/></g></g></svg>