<svg xmlns="http://www.w3.org/2000/svg" xml:space="preserve" width="239.612" height="72.492" style="shape-rendering:geometricPrecision;text-rendering:geometricPrecision;image-rendering:optimizeQuality;fill-rule:evenodd;clip-rule:evenodd" viewBox="0 0 152.34 46.09"><defs><style>.fil0{fill:#060908}.fil10{fill:#070a09}.fil1{fill:#34aefb}.fil3{fill:#aaf8f9}.fil6{fill:#fdfdfd}.fil4{fill:#fefefe}</style></defs><g id="Camada_x0020_1"><g id="_2051269651520"><path class="fil0" d="M8.76 20.85c-.25.13-1.88.25-1.48-1.38.53-2.17 1.6-3.14-1.51-2.47-.71.15-.93.5-1.16 1.16-.21.61-.37 1.16-.5 1.81-.15.77-.14 1.5-.57 1.76-.9.45-1.61-.33-1.35-1.36.18-.71.63-1.88.61-2.6l-2.12-.03c-.51-1.59 1.11-1.23 2.23-1.56.73-.22 1.41-1.62 1.3-2.53-1.25-.18-2.87.5-2.49-.71.19-.6 1.92-.66 2.58-.87 2.07-.65 1.29-3.68 2.35-4.47 1-.56 1.65.11 1.27 1.27-.2.61-.76 1.93-.68 2.48 3.3.52 3.28-1.53 4.05-3.98.29-.94.84-1.1 1.72-.57.21 1.04-1.04 3.04-.57 3.62.4.41 1.13-.15 1.54.28.66 1.05-1.26 1-1.98 1.41-.61.35-1.32 1.28-1.1 2.41.51.11 2.69-.48 2.05.72-.24.46-1.76.75-2.4.9-.57.14-.64.26-.82.78-.15.43-.25.77-.36 1.23-.11.45-.2.87-.26 1.32-.08.62-.02 1.04-.37 1.35zm4.76-1.37c.97-.09 2.32-.07 3.3-.03.99.04 2.2-.02 2.1 1.25-.04.58-1.49 4.12-1.78 4.86-.6 1.59-1.19 3.18-1.8 4.79-1.2 3.16-2.3 3.06-6.99 2.85-3.14-.14-2.51-.61-.49-6.07.59-1.6 1.18-3.17 1.79-4.8.95-2.53.91-2.59 3.87-2.85zm7.59-2.41c-.5.1-2.58.12-3.04-.02-.35-.62.2-.65.09-1.6-2.39-.79-2.73.8-2.94 1.1-.39.56-.63.59-1.45.58-.6 0-1.47.07-2.03-.09.1-.61.95-.73 1.47-1.04.94-.56.33-1.1.39-2.01.04-.68 5.27-9.01 5.84-9.94.63-1.04.91-1.02 3-1 .54 0 .81-.01.91.49.07.33-1.89 12.94-2.24 13.53zm2.54 11.92c-.72.26-1.28 2.47-1.51 3.15-.22.67-.4 1.06-1.18 1.17-.53.07-1.79.19-2.17-.03-.16-.13-.36-.18-.07-1l1.09-2.84c.98-2.59 2.52-6.96 3.51-9.3.37-.88.92-.65 1.91-.66 7.54-.01 7.68-1.25 4.42 6.87-1.11 2.76-1.04 1.77-2.43 2.8l-.1 4.13c-.53.14-1.19.05-1.76.02-.67-.03-1.44.12-1.6-.53-.18-.74.41-2.66-.11-3.78zm16.83-9.53c.12.63-.11 2.01-.38 2.47l-3.53.13c-.31.62-1.11 2.37-1.16 3.25.73.11 1.88-.06 2.52.29.03.6-.51 1.54-.76 2.03-3.25.11-2.57-.35-3.33 1.56-.2.51-.63 1.28-.4 1.52.61.39 2.22.02 3.07.11.01.8-.94 1.8-1.32 2.5l-6.13-.01c-.07-.68 2.07-5.97 2.45-6.95l2.64-6.86 6.36-.02zM29.4 11.02l-.02.46.28-.09c.74-1.05 3.59-6.84 4.13-7.52.51-.64 2.38-.77 3.35-.44.03.64-1.81 3.4-2.2 4.04-.8 1.29-1.61 2.67-2.39 3.96-.82 1.36-1.56 2.61-2.37 3.96-.32.54-.84 1.65-1.34 1.81-.49.15-2.76.15-3.06-.06-.16-.19-.12.25-.12-.42l1.21-7.93c.21-1.39.44-2.83.64-4.23.13-.93.17-1.27 1.15-1.27.79 0 1.79-.03 2.29.25.21 1.11-1.34 5.93-1.54 7.49zm9.53-7.71c3.95-.33 3.09.2 2.24 2.45-.57 1.51-1.16 3.06-1.74 4.61-.24.65-2.31 6.57-2.72 6.79-.29.15-2.59.15-2.97.05-.23-.63 2.06-6.01 2.45-7.04.39-1.03 2.33-6.39 2.75-6.86zm-.3 13.89c-.01-.81 2.96-8.26 3.44-9.55.29-.78.63-1.65.91-2.41.28-.75.46-1.77 1.2-1.91 1.32-.25 4.87-.1 6.33-.02 2.35.13.76 2.81.22 4.2-.6 1.55-1.19 3.05-1.76 4.58-1.91 5.16-1.45 5.14-7.74 5.15l-2.6-.04zm8.82 4.75c-1.88 0-2.44-.23-2.87 1.01-.21.61-.57 1.35-.56 2.05 1.1.44 3.64-.32 3.65.94 0 .37-.93 2.8-1.15 3.35-1.07 2.78-1.21 4.11-4.93 4.11-.8 0-2.46.08-3.07-.11-.23-.6-.19-1.98.26-2.34.44-.35 1.91-.18 2.57-.18 1.23 0 1.39-.08 1.77-1.11.18-.5.66-1.47.52-2.09-1.32-.29-2.5.34-3.5-.51-.11-1.03 1.53-4.89 1.95-5.86.94-2.18 3.29-1.83 6.22-1.84 1.17 0 1.33-.06 1.14 1.11-.25 1.53 0 1.47-1.99 1.47zm3.23-.07c.04-.63.86-1.62 1.18-2.01.37-.44.43-.5 1.19-.51h4.88c.78.22.39 2.05.13 2.6l-1.93-.03c-.44.46-2.07 5.11-2.45 6.11-.38 1.03-.78 2.05-1.18 3.09-.56 1.46-.38 2.2-2.13 2.21-1.25 0-2.1.18-1.7-1.01l1.69-4.43c.38-1 .72-1.89 1.11-2.92 1.66-4.37.89-2.65-.79-3.08zm-2.22-4.74c-.01-.74 6.2-10.74 7.08-12.26.39-.67.81-1.48 1.5-1.64.85-.2 2.2-.13 2.82.18.19.65-1.8 13.42-2.16 13.68-.55.24-2.42.12-3.08-.06l.02-1.57c-.39-.05-1.68-.06-2.01.07-.95.37-.16 1.65-2.26 1.67-.63.01-1.3.07-1.92-.07zm20.15 2.92c.35.83-2.9 8.51-3.41 9.86-.75 1.98-1.02 3.08-3.42 3.29-1.04.09-2.19.04-3.24.04-3.66 0-3.14-.36-1.12-5.74.61-1.62 1.21-3.21 1.86-4.86.81-2.07.79-3.12 3.4-3.25 1.16-.06 5.44-.49 5.92.65zm-.31-4.87c-.02.06-.2.34-.23.39-.87 1.38-.72 1.55-2.2 1.54-1.44-.01-3.65.11-5-.08-.01-.57 4.74-13.13 5.33-13.92 1.66-.16 1.04 1.83 2.79.82.86-.5 2.09-1 3.31-.78.15.46.01 1.77-.08 2.05-.43 1.27-3.03-.18-3.82.82-.29.37-.97 2.39-.91 2.91.79.31 2.26-.11 2.31.43.04.39-.59 1.65-.73 1.97-.84.11-2.52-.23-2.97.57-.27.48-.96 2.13-.71 2.56.48.37 3.36-.51 2.9.71zm-.03-12c-.3-.54 1.3-1.06 2.17-1.47 1.06-.5 2.25-1.3 2.53-.76.29.55-1.68 1.19-2.14 1.41-.42.2-2.26 1.37-2.56.82zm.69 26.82c.45-1.2 3.58-9.99 4.08-10.28 1.44-.19 1.14.59 1.99 1.16.36 0 .65-.07.91-.25l.28-.32c.37-.52.65-.52 1.61-.85.8-.28 1.21-.23 1.15.75-.03.5-.15 1.34-.32 1.72-1.67.14-1.74-.09-2.99.39-.51.2-.49.38-.7.89l-.72 1.73c-.28 1.26 2.08.53 2.11.51-.03 3.97-1.34 1.9-3.07 2.65-.32.18-.91 1.69-1.07 2.14-.25.69.03.66.06.68.44.32 2.24.08 2.96.19.07.57-.51 1.28-.77 1.73-.47.81-.68.82-1.76.83-6.02.03-5.47.96-3.75-3.67zm5.7-12.55c-3.39 0-3.09-.87-2.15-3.3l3.69-9.59c.19-.85.55-1.03 2.04-1.28 1-.17 2.23-.12 3.25-.1 3.39.09 3.35.44 2.3 3.23-.56 1.48-3.14 8.69-3.81 9.48-.5.6-1.21.89-2.23 1.09-1.12.22-1.94.46-3.1.46zm1.01 2.46c-.53.12-.33.04-.51-.31.25-.64.53-.17 1.03-.78.23-.29-.12-.13.42-.44.14-.08.41-.17.6-.25.59-.26 1.97-1.05 2.54-.96.14.63.22.4-.26.67l-2.04.9c-.26.12-.43.18-.68.29-.86.39-.36.71-1.09.88zm5.01 7.1c-.09-.9.88-3.15 1.23-4.06 1.5-3.94 1.92-3.63 7.02-3.57 1.31.01 1.17.23 1 1.44-.15 1.12-.2 1.18-1.38 1.18-2.78 0-2.97-.3-3.52 1.18-.22.58-.6 1.23-.5 1.91 1.26.33 2.86-.11 3.63.49.13.82-.64 2.5-.96 3.39-1.45 3.94-1.58 4.48-6.34 4.43-.7-.01-1.47.16-1.79-.33-.47-.53.09-1.92.35-2.22 1.03-.24 3.28.27 3.81-.35.3-.35 1.07-2.4.99-2.91-1.17-.41-2.8.26-3.54-.58zm6.05-15.01c-.4.22-.6 1.1-.84 1.73-.44 1.13-.98 3.22-1.74 3.36-.46.09-2.02.09-2.41-.06-.13-.73 3.1-8.71 3.77-10.49.35-.92.89-2.58 1.37-3.27.22-.15 2.28-.11 2.7.06 1.02.41-.42 3.53.09 4.66.36-.17.33-.31.52-.81.13-.34.22-.56.35-.87.66-1.66.84-3 1.93-3.1.62-.06 1.86-.06 2.48.02.07.84-3.71 10.34-4.48 12.4-.28.73-.34 1.42-1.27 1.47-.61.03-2.2.23-2.6-.16-.22-.45.21-3.95.16-4.94zm5.12 5.03c-.07-.8 3.13-8.7 3.59-9.96 1.27-3.42 1.03-3.87 2.87-3.91 6.05-.14 7.6-.53 6.19 2.87l-2.8 7.33c-.67 1.77-1.16 3.38-3.17 3.67-1.22.17-5.4.13-6.68 0zm6.82 2.35c.78 0 1.77-.07 2.52.01-.01.61-2.87 7.81-3.3 8.93-1.74 4.56-1.48 5.12-7.27 5.04-2.86-.04-3.19-.48-2.22-3.04l3.35-8.85c.23-.61.58-1.87 1.01-2.05.35-.14 2.8-.26 2.91.12.29.99.06-.53.07.28 0 .58-4.01 9.9-3.91 11.01.86.21 1.53.24 1.91-.57l3.63-9.53c.38-1.01.18-1.35 1.31-1.36zm4.4 9.52c-.95.67-1.23 3.92-2.13 4.31-.38.17-2.6.31-2.87.03-.31-.32.44-1.85.6-2.29 1.14-3.04 2.31-6.01 3.52-9.18 1.21-3.15-.02-2.41 7.22-2.45 1.04-.01 1.92.2 1.8 1.35-.07.64-1.39 3.8-1.71 4.64-.97 2.53-.71 2.82-2.83 3.56v4.35c-.59.17-2.86.08-3.39-.06-.15-1.16.4-3.41-.22-4.27zm2.88-13.49c-.56.15-.56.65-.88 1.18-.39.65-.91.47-1.75.46-.59-.01-1.7.18-1.66-.34l6.28-10.55c.35-.58 1.25-2.26 1.62-2.65.6-.64 2.65-.42 3.69-.32.08.9-.84 5.79-1.03 7.03-.22 1.41-.72 6.02-1.25 6.78l-2.41.1c-1.29-.06-.44-.59-.55-1.7-.39-.11-1.66-.08-2.06.03zm7.78 3.88c1.14-.16 3.33-.01 4.59 0 .85 0 1.69-.25 1.72.55.01.39-.19 1.67-.28 1.99l-3.61.1c-.36.37-1.28 2.6-1.09 3.27 2.14.08 2.76-.25 2.21 1.05-.19.46-.3.89-.59 1.26l-2.77.15c-.45.96-1.68 5.09-2.28 5.55-.43.12-1.09.08-1.61.09-.23 0-.65.04-.86.02-.19-.01-.15 0-.33-.05-.8-.23.35-2.28.85-3.61l2.67-6.97c.31-.84.97-2.76 1.37-3.38zm-1.42-.51c.07-.76.58-1.02.23-1.57-.34-.53-.68-.5-.17-1.36.43-.72 1.51-1.57 2.81-1.14 1.95.65-.95 3.75-2.87 4.06zm8.27 12.24c1.1 1.53-2.44 3.29-3.24 1.88-.5-.88.42-1.78.96-2.09.81-.46 1.73-.56 2.28.21zm.54-8.7c.56.31.12.81 1.95 2.26-.03.69-1.01 2.55-1.33 3.19-.76 1.51-.52 2.03-2.7 1.72-.05-.65 1.77-6.82 2.09-7.17zm.45-1.6c.09-.89.36-1.4 1.25-1.43.47-.02 2.22-.15 2.47.08.26.25.14.8-.18.96-.37.19-.89-.02-1.31-.03-.91-.02-1.48.27-2.23.42zm9.9 12.68c-.33-.61-1-1.69-1.12-2.39 2.01-.44 1.2-.93 2.98.29.86.41 5.79 2.79 6.2 3.2-.36.99-5.14 2.17-6.45 1.95-.5-.45-1.31-2.35-1.6-3.04zm6.48-9.09c-1.36-1.52-3.88-1.76-4.37-2.01.78-.4 2.95-.2 3.94-.05 1.1.17 2.05.81 3.08 1.17.62-.05.89-.09 1.27-.35.07-.9-.49-.88-1.32-.98l-1.18-.21c-2.89-.45-2.97-1.75-6.67-1.02l-5.17.9c-1.05.18-.64.48-1.25.61-1.02-1.15.05-1.91.11-3.19l-.29-.29c-1.25-.29-9.37.23-11.19-.25.06-.89 1.93-1.35 1.8-3.05-.05-.64-.73-.99-1.2-1.23-.64-.34-1.28-.21-2.09-.17-.21.17-.32.36-.78.23-.09-.64.53-4.02.67-4.93l.79-4.86c.05-.02.03-.08.04-.11V3.09l-.34-.43c-1.01-.06-3.73-.14-4.43.17-.24.3-.89 1.19-1.47 1.31-.62.12-1.8.16-2.02-.61-1.62-1.34-5-.9-7.6-.92-2.28-.02-1.43.5-2.52.28-3.82-.8-3.13.17-4.91.16-.85 0-1.83-.64-3.82-.28-.52.09-.7.2-.93.46-.12.38-.3.54-.74.58-.35-.25-.16.01-.32-.39-2.18-.75-4.93-1.27-7.41-.54-2.26.67-.92.67-1.78 1.09l-.26.04c-.26.26.21.1-.48.24-.23.04-.28.02-.49.01-.49-.02-.56.02-.82-.25-.25-.07-.15.07-.51-.73-.14-.32-.35-.62-.2-1.03.23-.63.93-.67.77-1.77-.61-1.31-3.31.54-4.33 1.01L65.06 3.4c-.21.99-1.18.69-2.27.67-1.42-.02-1.55.11-2.05-1.02-1.19-.73-3.35-.73-4.75-.17-.19.44-.79 1.09-1.51 1.21-1.18.21-1.38-.35-2.09-.59-1.38-1.04-1.58-1.03-3.63-1-1.46.02-3.01-.18-4.39-.01-.57.29-1.63.38-2.34.05-1.68-.15-3.68.4-5.02.04-1.68-.46-2.94.22-3.94.95-.15.32-.29.35-.76.32l-.14-.34c-.42-.31-.36-.39-.97-.41l-4.2.18-.15.39c-.45.12-1.09.18-1.64.13-.67-.06-.81-.31-1-.87-.03-.01-.03-.04-.07-.04l-.75-.34c-1.72-.55-2.25-.09-3.53-.01l-1.28 1.79c-.63 1-3.47 5.65-3.73 5.86-.54-.09-.36-.15-.78-.29-.33-.11-.48-.06-.77-.15-.18-.98.82-2.26.38-3.09-.35-.67-1.97-1.01-2.59-.3-1.01 1.15-.6 4.88-2.93 4.37-.2-1.24 1.56-3.11-.54-3.73-1.9-.56-1.94 1.21-2.36 2.58-.59 1.92-.78 2.06-2.93 2.34-.76.1-1.34.54-1.18 1.5.18 1.08 1.04.63 1.97.78.47.62.08 1.33-.59 1.53-1.09.32-1.07.08-2.15.64-.33.41-.56.87-.16 1.44.42.6.88.33 1.71.48.06 1.5-1.15 3.7.88 4.03 2.07.34 1.86-1.08 2.18-3.28.34-2.3 1.93-1.56 1.97-1.51.27.72-.58 1.76-.21 2.89.49 1.48 1.55.68 2.26 1.16.26.3-1.35 4.13-1.63 4.95-.5 1.41-1.02 3-1.51 4.47-.32.96-.73 1.38-.05 2.18.45.54.96.97 1.98 1.07 1.45.14 4.49.18 5.65-.31 1.56-.65 1.69-2.19 3.74-1.88l.42.13c.34.2.1.01.14.22.11.17.03-.02.11.29.02.09.06.32.08.42.14.99.21 1.12 1.43 1.17 1.58.07 2.05.16 3.06-.57.25-.28.19-.29.61-.47l.18.17.17.24c.21.25-.03.07.25.25.45.29 1.86.41 2.44.37 1.26-.08 2.15-.28 3.52-.2 1.21.07 2.42.1 3.67.1 1.69 0 2.04-.08 3.13-.78.14-.41.36-.6.77-.67.32.24.48.51.37.92 1.61.95 2.62.7 4.63.67 1.29-.04 2.25-.22 3.26-.96l.16-.12c.95-.7 1.72-.88 2.21.39.29.31.43.61 1 .68.43.05 1.12.1 1.55.09 1.77-.04 1.92-.62 2.4-.93.07-.37.04-.43.42-.49.26-.25.71-.2 1.21-.18.93.04 2.03.89 2.44 1.33 1.3.16 2.93.19 4.27.17.84-.01 2.63-.71 3.3-1.04.49-.38.87-.39 1.58-.39l.62.07c.26.33.43.72.59 1.2.83.19 4.25.1 5.38.06 1.91.39 2.07-.27 2.86-.97.26-.23.06-.08.27-.18l.52-.35c.58-.28 1.43-.35 1.94.36.88 1.22.54 1.05 2.45.95 3.11-.16 3.26.3 5.78-.97.54-.7.88-.03 1.44.36.49.33 1.08.56 1.8.63.82.08 4.32.08 5.06-.07.89.03 1.7-.89 2.49-.73l.08.42c1.01.35 1.33.56 2.62.56.48 0 1.04-.03 1.51-.13.68-.14.53-.24.93-.64.42.16.48.37 1.02.55 1.25.41 3.07-.01 4.47.05 2.5.1 3.28.45 5.23-.74 0-.87.34-.63 1.24-.59 1.9.08 1.23-.37 2.63.77.39.32.58.36 1.03.6 1.44.07 2.37-.25 3.05-1.01 1.3-1.45.54-1.94.22-2.57.25-.43.54-.66.84-1.14.65-1.05 1.35-3.14 1.87-3.71.37.24.71 1.04.87 1.65.19.74.05 4.43-.13 4.81-.31.63-1.39.3-1.06 1.39 1.43.73 1.89-1.59 2.48-2.42 1.33-1.85.21-3.72.76-4.49.55-.36 2.97-.15 3.8-.1-.09.49-.43.65-.76.94l-2.24 2.52c-1.16 1.51.82 2.23 1.81 3.88l.27.38c.67.68.75 1.76-.09 2.37-1.11.82-4.46.95-5.99 1.07-2.22.19-2.49-.18-3.26-.07.55 3.44 17.24-1.24 20.36-1.96 2.66-.61 3.38-1 5.56-1.64l.71-.32c-.29-.21-.52-.14-.93-.06-.29.06-.57.11-.86.16-3.54.7-2.31 1.09-4.67-.28-1.09-.64-4.34-2.79-4.73-3.61.19-.45.53-.8.81-1.18 1.39-1.85 1.55-2.46 1.3-4.37z"/><path class="fil1" d="M141.09 16.27c-.72-.1-.6-.42-1.57-.52-2.74-.27-2.27-.6-5.83-.57-2.37.02-3.72-.05-6.07.33-.49.08-1.5.04-1.71.44.52 0 5.8.03 6.31.16l.44.21c1.84.39 3.46 1.06 4.91 1.85.9.49 3.15 2.59 2.99 3.91.84.1 1.39.09 1.32.98-.38.26-.65.3-1.27.35 1.23.58 1.17-.15 1.52 1.82.43 2.39-.19 4.6-1.2 6.75-.25.53-.22.78-.92.79-.07-.48.23-1.84.27-2.45.15-1.96-.92-4.76-2.33-6.03.25 1.91.09 2.52-1.3 4.37-.29.38-.62.73-.81 1.18.39.82 3.64 2.97 4.73 3.61 2.36 1.38 1.13.98 4.67.28.29-.06.57-.11.86-.16.41-.08.64-.15.93.06l-.71.32c-2.18.64-2.9 1.02-5.56 1.64-3.13.72-19.81 5.4-20.36 1.96.77-.11 1.04.26 3.26.07 1.54-.13 4.89-.26 5.99-1.07.83-.62.75-1.7.09-2.37-1.21 1.88-5.82 2.07-8.61 1.69-2.71-.37-5.6-1.86-8.06-2.6-1.94 1.19-2.73.85-5.23.74-1.41-.06-3.23.36-4.47-.05-.54-.18-.6-.39-1.02-.55-.4.41-.25.5-.93.64-.47.1-1.03.13-1.51.13-1.29 0-1.61-.21-2.62-.56-1.12.7-2.66 2-3.33 3.1-.44.72-2.08 3.49-2.1 4.2.55-.25.88-1.09 1.79-1.59.74-.41 1.5-.76 2.31-1.1 1.84-.76 3.19-1.13 5.38-1.35 7.63-.78 13.34 4.11 20.88 6.06 3.23.83 8.67 1.48 12.16.89 3.4-.58 7.86-1.66 10.32-3.23 6.64-4.23 8.14-11.96 3.95-18.49-1.4-2.19-5.68-5.67-7.54-5.85z"/><path d="M122.34 17.56c.93.03.65.11.78.22-.42.57-1.65.46-2.17.12.17-.32-.19-.19.39-.3l-.07-.67c.32-.29 3.97-1.4 4.36-1.23-.5.87-.64-.04-1.36.49.09.8.54.22.7.92-.99.16-1.72-.28-2.62.44zm3.38-.09c.54-.51 2.9-.33 3.58-.31 2.01.07 8.19 1.05 8.11 2.87-1.03.04-1.27-1.23-4.62-.46-.9.21-4.01.58-4.88.44-.46-.88.12-1.27-.69-1.75-.55-.33-1.07-.57-1.5-.8zm21.67 1.2c-.86-.45-1.76-1.28-2.72-1.88-5.49-3.43-12.12-3.92-18.4-2.3-7.32 1.9-5 2.49-5.82 3.1-.9.28-1.88.11-2.72-.11-.02.03-.04.07-.06.1-.01.02-.04.07-.05.1-.29.51-.12.35-.39.49-.24.13-.51.11-.72.22 1.85.65 9.05.17 9.58.5l.29.29c-.06 1.28-1.14 2.04-.11 3.19.62-.14.2-.44 1.25-.61l5.17-.9c3.7-.73 3.78.57 6.67 1.02-.34-.86.52-1.35-1.89-3-.9-.61-2.02-1.21-3.2-1.56-3.76-1.09-7.3-.32-8.5-1 .28-.29 1.21-.18 1.69-.17 1.61.01 3.7-.03 5.2.18l-.44-.21c-.51-.14-5.8-.16-6.31-.16.21-.4 1.22-.36 1.71-.44 2.35-.38 3.71-.31 6.07-.33 3.55-.04 3.09.29 5.83.57.98.1.85.43 1.57.52.24-.22-.01-.11.37-.13.77-.04 3.56 1.55 4.26 2.05 4.08 2.88 6.76 8.89 5.5 14.45-.82 3.64-3.23 6.46-5.64 8.03-4.47 2.91-6.35 2.3-9.96 3.71-3.57 1.39-1.66.28-5.62.46-6.41.29-10.8-1.67-16.64-3.8-4.77-1.75-10.98-4.28-16.58-1.58-.66.32-3.97 1.99-3.81 2.93.81-.01 2.71-2.83 12.06-1.18 3.47.61 5.29 1.58 8.28 2.45 1.68.49 2.44.38 2.45 1.14-1.58.52-9.62-4.55-18.22-3.36-3.26.45-4.65 2.24-5.34 2.01-.62-.42-.32-.46-.62-1.01-.17-.3-.56-.44-.8-.64-.19-1.01 1.17-3.36 1.61-4.05.45-.7 1.29-1.81 1.89-2.39.35-.33.5-.32.48-.85l-.79.07-.42.73c-1.9 2.68-1.8 2-3.25 5.36-.45 1.03-.24 1.31.31 2.02 1.52 1.95 1.47 1.62 3.55.5 4.25-2.28 10.23-1.32 14.37.13 1.41.49 2.83.99 4.28 1.45.88.28 3.9 1.02 4.44 1.33h16.49c.34-.21.79-.33 1.22-.54 3.83-1.94 4.15-1.03 8.24-2.86 9.56-4.28 11.91-14.48 5.65-22.38l-1.35-1.44c-.16-.2-.05-.02-.11-.19z" style="fill:#3ebbea"/><path class="fil3" d="M141.09 16.27c1.86.18 6.14 3.66 7.54 5.85 4.19 6.53 2.69 14.26-3.95 18.49-2.46 1.57-6.92 2.65-10.32 3.23-3.49.59-8.93-.06-12.16-.89-7.55-1.95-13.25-6.83-20.88-6.06-2.18.22-3.53.59-5.38 1.35-.81.34-1.57.69-2.31 1.1-.91.51-1.24 1.34-1.79 1.59.02-.71 1.66-3.48 2.1-4.2.67-1.1 2.21-2.39 3.33-3.1l-.08-.42c-.79-.17-1.59.76-2.49.73.11.03.13-.22.06.12-1.01.11-1.68.08-2.68.05-.99-.03-1.81.09-2.78.12l.3.16 4.37.18.79-.07c.02.53-.14.52-.48.85-.6.57-1.44 1.68-1.89 2.39-.44.7-1.8 3.04-1.61 4.05.24.2.63.34.8.64.3.56 0 .59.62 1.01.7.23 2.09-1.56 5.34-2.01 8.6-1.2 16.64 3.88 18.22 3.36-.01-.76-.77-.65-2.45-1.14-2.98-.87-4.8-1.83-8.28-2.45-9.35-1.65-11.25 1.17-12.06 1.18-.16-.94 3.15-2.61 3.81-2.93 5.6-2.7 11.81-.17 16.58 1.58 5.84 2.14 10.23 4.09 16.64 3.8 3.96-.18 2.05.93 5.62-.46 3.61-1.41 5.49-.79 9.96-3.71 2.41-1.57 4.82-4.39 5.64-8.03 1.26-5.56-1.42-11.57-5.5-14.45-.71-.5-3.49-2.09-4.26-2.05-.39.02-.14-.09-.37.13z"/><path class="fil4" d="M89.65 8.01c-.51-1.13.92-4.25-.09-4.66-.42-.17-2.48-.21-2.7-.06-.48.68-1.02 2.34-1.37 3.27-.67 1.78-3.9 9.76-3.77 10.49.39.15 1.96.15 2.41.06.76-.15 1.3-2.23 1.74-3.36.25-.64.45-1.51.84-1.73.05.99-.38 4.48-.16 4.94.4.39 2 .19 2.6.16.93-.05 1-.73 1.27-1.47.78-2.07 4.55-11.56 4.48-12.4-.61-.08-1.86-.08-2.48-.02-1.09.11-1.27 1.44-1.93 3.1-.12.31-.22.54-.35.87-.19.5-.16.64-.52.81zM105.87 21.75c2.22-.4 1.45.83.98 2.02-.26.65-.8 2.67-1.41 2.86-2.64.83-1.14-1.62-.42-3.59.17-.46.28-1.18.85-1.29zm-2.81 7.17c.62.87.07 3.11.22 4.27.54.14 2.8.23 3.39.06V28.9c2.12-.74 1.86-1.04 2.83-3.56.32-.84 1.64-4 1.71-4.64.12-1.15-.76-1.36-1.8-1.35-7.24.04-6.01-.7-7.22 2.45-1.21 3.16-2.38 6.14-3.52 9.18-.17.44-.91 1.98-.6 2.29.27.28 2.49.14 2.87-.03.89-.4 1.17-3.64 2.13-4.31zM26.11 26.61c-.37.15-1.29.32-1.65-.02-.26-.54.43-1.84.66-2.44.29-.76.6-1.74.97-2.31 2.34-.43 1.85.39 1.31 1.79-.22.57-.94 2.69-1.29 2.98zm-2.46 2.38c.52 1.11-.07 3.03.11 3.78.16.64.93.5 1.6.53.57.02 1.23.11 1.76-.02l.1-4.13c1.39-1.03 1.33-.04 2.43-2.8 3.26-8.12 3.12-6.88-4.42-6.87-.99 0-1.54-.22-1.91.66-.98 2.34-2.52 6.71-3.51 9.3l-1.09 2.84c-.29.82-.09.87.07 1 .38.23 1.64.11 2.17.03.77-.11.95-.5 1.18-1.17.23-.69.78-2.89 1.51-3.15zM96.08 14.62c-.21-.5 1.5-4.54 1.77-5.25.18-.48 1.18-3.54 1.61-3.73.4-.18 1.43-.24 1.66.03.24.28-2.33 6.61-2.76 7.76-.25.66-.32 1.59-1.88 1.34l-.4-.15zm-4.24 2.42c1.28.13 5.46.17 6.68 0 2.01-.29 2.5-1.9 3.17-3.67l2.8-7.33c1.4-3.4-.14-3.01-6.19-2.87-1.84.04-1.6.49-2.87 3.91-.47 1.26-3.66 9.16-3.59 9.96zM42.98 14.78c-.32-.7 1.31-4.37 1.65-5.28.15-.4 1.23-3.54 1.54-3.73.31-.19 1.36-.26 1.64.05.31.35-.55 2.14-.72 2.58l-1.96 5.1c-.45 1.14-.48 1.65-2.14 1.29zm-4.37 2.41 2.6.04c6.29-.01 5.83.01 7.74-5.15.57-1.53 1.16-3.03 1.76-4.58.54-1.4 2.13-4.07-.22-4.2-1.46-.08-5.01-.22-6.33.02-.74.14-.92 1.16-1.2 1.91-.28.75-.62 1.63-.91 2.41-.48 1.29-3.45 8.74-3.44 9.55zM64.68 21.76c.19.8-1.33 4.3-1.71 5.32-.32.87-.63 1.68-.96 2.58-.19.52-.19.91-.74 1.1-.45.16-1.13.22-1.54.1-.2-.8 2.13-6.32 2.72-7.85.45-1.15.61-1.69 2.23-1.26zm3.92-1.7c-.48-1.14-4.76-.71-5.92-.65-2.61.14-2.59 1.18-3.4 3.25-.64 1.65-1.25 3.24-1.86 4.86-2.03 5.38-2.54 5.74 1.12 5.74 1.05 0 2.2.05 3.24-.04 2.39-.21 2.67-1.31 3.42-3.29.51-1.35 3.75-9.04 3.41-9.86zM14.9 21.89c.23.72-.44 1.95-.71 2.68-.29.77-2.17 6.03-2.52 6.25-.36.23-1.25.24-1.54.01-.34-.31-.23-.39.12-1.3l1.5-3.88c1.28-3.25 1.15-4.41 3.15-3.76zm-1.38-2.4c-2.95.26-2.91.33-3.87 2.85-.61 1.63-1.2 3.19-1.79 4.8-2.02 5.46-2.65 5.93.49 6.07 4.69.21 5.8.31 6.99-2.85.61-1.61 1.19-3.2 1.8-4.79.28-.75 1.73-4.28 1.78-4.86.1-1.26-1.11-1.2-2.1-1.25-.98-.04-2.33-.06-3.3.03zM91.83 30.85c-.1-1.11 3.92-10.42 3.91-11.01-.01-.81.22.7-.07-.28-.11-.39-2.56-.26-2.91-.12-.43.17-.78 1.44-1.01 2.05l-3.35 8.85c-.97 2.55-.63 3 2.22 3.04 5.78.08 5.52-.48 7.27-5.04.43-1.12 3.28-8.32 3.3-8.93-.76-.08-1.74-.02-2.52-.01-1.13 0-.93.35-1.31 1.36l-3.63 9.53c-.38.81-1.04.78-1.91.57zM76.02 15.05c-.56-.68-.03-.58.22-2.76.05-.44 2.18-6.22 2.44-6.47.26-.25 1.12-.4 1.52-.19.65.35-.19 1.91-.43 2.52l-1.95 5.12c-.5 1.33-.41 1.29-1.18 1.52-.49.15-.32.18-.63.26zm-1.37 2.41c1.16 0 1.98-.25 3.1-.46 1.01-.2 1.72-.5 2.23-1.09.66-.79 3.25-7.99 3.81-9.48 1.05-2.8 1.1-3.14-2.3-3.23-1.02-.03-2.26-.07-3.25.1-1.49.25-1.84.43-2.04 1.28l-3.69 9.59c-.94 2.43-1.24 3.3 2.15 3.3zM109.49 9c-.01.33-.67 3.57-.94 3.9-.23.29-.92.52-1.24.15-.36-.42 1.87-4.01 1.96-4.1.22-.29.06-.19.45-.35-.11.44-.03.22-.24.4zM108 15.4c.11 1.11-.75 1.64.55 1.7l2.41-.1c.53-.76 1.03-5.37 1.25-6.78.2-1.23 1.11-6.12 1.03-7.03-1.04-.1-3.09-.32-3.69.32-.37.39-1.27 2.07-1.62 2.65l-6.28 10.55c-.03.52 1.07.33 1.66.34.84.01 1.36.19 1.75-.46.32-.53.32-1.03.88-1.18.4-.11 1.67-.13 2.06-.03zM53.86 13.29c-.01-.68.74-1.77 1.04-2.32.17-.32.39-.7.56-1.02.3-.58.25-.68.66-.96.04.84-.3 2.16-.5 2.95-.35 1.32-.23 1.62-1.76 1.36zm-5.42 3.85c.62.13 1.29.07 1.92.07 2.1-.02 1.3-1.3 2.26-1.67.32-.13 1.62-.11 2.01-.07l-.02 1.57c.66.18 2.52.29 3.08.06.35-.26 2.35-13.02 2.16-13.68-.62-.31-1.97-.38-2.82-.18-.68.17-1.11.98-1.5 1.64-.88 1.51-7.09 11.51-7.08 12.26zM17.34 13.11c-.11-.62.67-1.69.98-2.23.22-.38.36-.66.6-1.11.58-1.12.35-.78.75-.94-.13 1-.4 1.95-.61 2.89-.26 1.18-.32 1.89-1.72 1.38zm5.09-10.05c-2.09-.01-2.37-.04-3 1-.56.93-5.79 9.26-5.84 9.94-.06.91.55 1.45-.39 2.01-.52.31-1.38.43-1.47 1.04.56.16 1.43.09 2.03.09.82 0 1.06-.03 1.45-.58.21-.3.55-1.89 2.94-1.1.11.95-.44.98-.09 1.6.46.15 2.54.13 3.04.02.35-.6 2.3-13.2 2.24-13.53-.1-.5-.37-.48-.91-.49zM29.65 11.39c-.22.23.26.14-.27.2-.09-.17-.08.09-.1-.29-.03-.55.01-.1.11-.29.19-1.56 1.75-6.38 1.54-7.49-.5-.28-1.5-.25-2.29-.25-.98 0-1.02.34-1.15 1.27-.2 1.4-.43 2.84-.64 4.23l-1.21 7.93c0 .67-.04.23.12.42.3.21 2.57.22 3.06.06.5-.16 1.02-1.27 1.34-1.81.81-1.35 1.55-2.6 2.37-3.96.78-1.29 1.6-2.67 2.39-3.96.39-.63 2.23-3.4 2.2-4.04-.98-.33-2.84-.19-3.35.44-.54.68-3.38 6.46-4.13 7.52z"/><path d="M5.72 15.46c-.21-.21.59-2.19.81-2.36.36-.28 2.48-.54 2.88-.37.04.47-.63 2.17-.92 2.36-.31.2-2.6.54-2.77.37zm3.05 5.39c.35-.31.29-.73.37-1.35.06-.46.15-.87.26-1.32.11-.47.21-.81.36-1.23.18-.53.25-.65.82-.78.64-.15 2.16-.45 2.4-.9.64-1.2-1.54-.61-2.05-.72-.23-1.13.49-2.06 1.1-2.41.72-.41 2.64-.37 1.98-1.41-.41-.43-1.14.13-1.54-.28-.47-.58.78-2.59.57-3.62-.87-.53-1.42-.37-1.72.57-.76 2.45-.74 4.5-4.05 3.98-.09-.55.47-1.87.68-2.48.38-1.16-.27-1.83-1.27-1.27-1.06.79-.28 3.82-2.35 4.47-.66.2-2.39.27-2.58.87-.38 1.21 1.24.53 2.49.71.12.9-.56 2.31-1.3 2.53-1.12.33-2.75-.03-2.23 1.56l2.12.03c.02.71-.43 1.89-.61 2.6-.26 1.03.45 1.81 1.35 1.36.43-.26.42-.98.57-1.76.13-.65.29-1.2.5-1.81.23-.66.44-1.01 1.16-1.16 3.11-.67 2.04.3 1.51 2.47-.4 1.63 1.23 1.51 1.48 1.38z" style="fill:#71c4fe"/><path class="fil4" d="M48.29 19.37c-2.93 0-5.28-.34-6.22 1.84-.42.98-2.06 4.83-1.95 5.86 1.01.85 2.19.22 3.5.51.14.62-.34 1.59-.52 2.09-.38 1.03-.54 1.12-1.77 1.11-.65 0-2.13-.18-2.57.18-.45.36-.49 1.74-.26 2.34.61.19 2.27.11 3.07.11 3.72 0 3.86-1.33 4.93-4.11.21-.55 1.15-2.98 1.15-3.35-.01-1.25-2.55-.5-3.65-.94 0-.69.36-1.44.56-2.05.43-1.24.99-1.01 2.87-1.01 2 0 1.74.06 1.99-1.47.19-1.17.03-1.11-1.14-1.11zM80.67 27.03c.74.84 2.38.17 3.54.58.08.51-.69 2.57-.99 2.91-.53.62-2.78.11-3.81.35-.25.31-.81 1.7-.35 2.22.32.48 1.09.32 1.79.33 4.75.04 4.89-.49 6.34-4.43.33-.89 1.09-2.57.96-3.39-.77-.61-2.37-.16-3.63-.49-.1-.68.28-1.33.5-1.91.55-1.48.73-1.18 3.52-1.18 1.18 0 1.23-.06 1.38-1.18.16-1.21.31-1.43-1-1.44-5.11-.06-5.52-.36-7.02 3.57-.35.91-1.32 3.16-1.23 4.06zM34.11 19.49l-2.64 6.86c-.38.99-2.52 6.27-2.45 6.95l6.13.01c.38-.7 1.33-1.7 1.32-2.5-.85-.09-2.45.29-3.07-.11-.23-.25.19-1.01.4-1.52.77-1.9.09-1.45 3.33-1.56.25-.49.79-1.43.76-2.03-.64-.34-1.78-.17-2.52-.29.05-.88.85-2.63 1.16-3.25l3.53-.13c.28-.46.51-1.84.38-2.47l-6.36.02zM66.19 3.13c-.59.78-5.34 13.34-5.33 13.92 1.35.18 3.56.07 5 .08 1.48.01 1.33-.16 2.2-1.54.03-.05.21-.33.23-.39.46-1.21-2.41-.33-2.9-.71-.25-.43.45-2.09.71-2.56.44-.8 2.12-.46 2.97-.57.15-.32.77-1.58.73-1.97-.05-.54-1.52-.13-2.31-.43-.07-.52.62-2.55.91-2.91.78-1 3.39.44 3.82-.82.1-.28.23-1.59.08-2.05-1.22-.22-2.45.29-3.31.78-1.75 1.01-1.14-.98-2.79-.82zM75.01 20.89c-.85-.57-.55-1.35-1.99-1.16-.5.29-3.63 9.08-4.08 10.28-1.72 4.63-2.27 3.69 3.75 3.67 1.08 0 1.29-.02 1.76-.83.26-.44.84-1.16.77-1.73-.72-.11-2.52.13-2.96-.19-.03-.03-.31.01-.06-.68.16-.44.75-1.95 1.07-2.14 1.73-.75 3.04 1.32 3.07-2.65-.03.02-2.39.74-2.11-.51l.72-1.73c.21-.51.19-.69.7-.89 1.26-.48 1.32-.25 2.99-.39.17-.38.29-1.21.32-1.72.05-.98-.35-1.02-1.15-.75-.96.33-1.24.32-1.61.85l-.28.32c-.25.18-.55.24-.91.25zM113.73 19.3c-.41.62-1.06 2.54-1.37 3.38l-2.67 6.97c-.5 1.33-1.65 3.38-.85 3.61.18.05.14.04.33.05.21.01.63-.02.86-.02.52-.01 1.18.03 1.61-.09.6-.46 1.82-4.59 2.28-5.55l2.77-.15c.29-.37.4-.81.59-1.26.55-1.3-.07-.97-2.21-1.05-.19-.67.73-2.9 1.09-3.27l3.61-.1c.1-.32.3-1.6.28-1.99-.03-.8-.87-.55-1.72-.55-1.26 0-3.46-.16-4.59 0zM50.67 21.88c1.68.43 2.45-1.29.79 3.08-.39 1.03-.73 1.92-1.11 2.92l-1.69 4.43c-.4 1.19.45 1.02 1.7 1.01 1.75 0 1.57-.75 2.13-2.21.4-1.04.8-2.07 1.18-3.09.37-1 2.01-5.64 2.45-6.11l1.93.03c.26-.55.65-2.38-.13-2.6h-4.88c-.77.01-.82.07-1.19.51-.32.39-1.14 1.37-1.18 2.01zM38.92 3.31c-.42.47-2.36 5.83-2.75 6.86-.39 1.03-2.68 6.41-2.45 7.04.38.1 2.68.1 2.97-.05.41-.22 2.48-6.14 2.72-6.79.58-1.54 1.17-3.1 1.74-4.61.86-2.25 1.71-2.78-2.24-2.45z"/><path class="fil1" d="M133.34 31.3c-.09.62-.86 1.2-1.27 1.69-.32.39-.11.34-.59.41.29.69 1.1 2.59 1.6 3.04 1.32.22 6.09-.96 6.45-1.95-.41-.41-5.34-2.79-6.2-3.2z"/><path class="fil4" d="M125.72 17.47c.43.24.95.48 1.5.8.81.48.23.87.69 1.75.87.13 3.98-.24 4.88-.44 3.36-.77 3.59.5 4.62.46.08-1.83-6.1-2.8-8.11-2.87-.68-.02-3.04-.2-3.58.31z"/><path class="fil0" d="M62.44 23.02c-.59 1.53-2.92 7.05-2.72 7.85.41.12 1.09.06 1.54-.1.55-.19.55-.58.74-1.1.33-.9.63-1.71.96-2.58.38-1.03 1.91-4.52 1.71-5.32-1.62-.44-1.79.1-2.23 1.26zM96.48 14.77c1.56.25 1.63-.68 1.88-1.34.43-1.15 3-7.48 2.76-7.76-.23-.27-1.26-.21-1.66-.03-.43.19-1.43 3.25-1.61 3.73-.27.71-1.98 4.75-1.77 5.25l.4.15zM14.9 21.89c-2-.65-1.88.51-3.15 3.76l-1.5 3.88c-.36.91-.47.99-.12 1.3.29.22 1.18.22 1.54-.01.35-.22 2.23-5.48 2.52-6.25.28-.73.95-1.96.71-2.68zM45.12 13.49l1.96-5.1c.17-.44 1.04-2.23.72-2.58-.28-.31-1.33-.24-1.64-.05-.31.19-1.39 3.33-1.54 3.73-.34.92-1.97 4.58-1.65 5.28 1.66.36 1.69-.15 2.14-1.29zM79.76 8.15c.23-.6 1.08-2.17.43-2.52-.4-.22-1.26-.06-1.52.19s-2.39 6.04-2.44 6.47c-.24 2.18-.77 2.08-.22 2.76.3-.08.14-.11.63-.26.76-.23.68-.19 1.18-1.52l1.95-5.12z"/><path class="fil3" d="M139.68 25.64c-.23-.47-.44-.93-.69-1.31-.37-.56-.78-.66-1.04-1.16 1.36.01 1.1.37 1.86.61 1.19.26 1.6.3 1.78 1.6.11.83.2 2.51-.07 3.15-.8.2-.87-.36-1.14-1.07-.24-.63-.51-1.27-.69-1.82zm.94-2.22c-1.03-.35-1.98-1-3.08-1.17-.99-.15-3.16-.36-3.94.05.49.26 3.01.49 4.37 2.01 1.41 1.27 2.48 4.06 2.33 6.03-.05.61-.35 1.96-.27 2.45.7-.01.67-.27.92-.79 1.01-2.15 1.62-4.35 1.2-6.75-.35-1.97-.29-1.24-1.52-1.82z"/><path class="fil4" d="M121.12 22.33c-.31.34-2.14 6.52-2.09 7.17 2.18.32 1.94-.21 2.7-1.72.32-.64 1.3-2.5 1.33-3.19-1.83-1.46-1.39-1.96-1.95-2.26z"/><path class="fil6" d="M129.46 33.8c-.51.17-.73.45-1.13.7-2.42 1.54-4.97 1.34-7.68.71-1.5-.35-.84-.83-1.8-.95-.26-.03-.59-.01-.9-.22-.45-.24-.64-.28-1.03-.6-1.4-1.14-.73-.69-2.63-.77-.89-.04-1.23-.28-1.24.59 2.47.74 5.35 2.23 8.06 2.6 2.79.38 7.4.18 8.61-1.69l-.27-.38z"/><path class="fil0" d="M105.87 21.75c-.57.1-.69.83-.85 1.29-.72 1.97-2.22 4.42.42 3.59.61-.19 1.15-2.2 1.41-2.86.48-1.19 1.24-2.42-.98-2.02zM26.11 26.61c.35-.29 1.07-2.42 1.29-2.98.54-1.4 1.03-2.22-1.31-1.79-.37.57-.68 1.55-.97 2.31-.23.6-.92 1.9-.66 2.44.35.35 1.27.17 1.65.02z"/><path d="M132.66 16.32c-1.5-.21-3.58-.17-5.2-.18-.48 0-1.41-.12-1.69.17 1.2.68 4.74-.1 8.5 1 1.18.34 2.3.94 3.2 1.56 2.42 1.65 1.55 2.14 1.89 3l1.18.21c.17-1.32-2.09-3.41-2.99-3.91-1.44-.8-3.07-1.47-4.91-1.85z" style="fill:#a7f5f6"/><path class="fil4" d="M112.31 18.79c1.92-.31 4.82-3.41 2.87-4.06-1.3-.43-2.38.42-2.81 1.14-.51.86-.17.83.17 1.36.35.54-.16.8-.23 1.57zM120.58 31.03c-.55-.77-1.47-.67-2.28-.21-.54.31-1.46 1.21-.96 2.09.8 1.41 4.34-.35 3.24-1.88z"/><path d="M9.42 12.73c-.4-.17-2.52.1-2.88.37-.22.17-1.02 2.15-.81 2.36.17.17 2.46-.17 2.77-.37.29-.19.96-1.89.92-2.36z" style="fill:#051017"/><path d="m139.8 23.77.15.97-.06-.54c.34.15.56.29.7.59.35.72-.07.96-.07.97-.49-.05-.24.18-.53-.53l-.09-.19-.02.55-.21.05c.18.55.45 1.19.69 1.82.27.71.34 1.26 1.14 1.07.27-.64.18-2.32.07-3.15-.17-1.3-.59-1.34-1.78-1.6z" style="fill:#879b9a"/><path class="fil6" d="M131.59 31.17c1.03-.01 1.02.93.15.99-.25-.41-.28-.51-.15-.99zm-.11 2.23c.48-.07.27-.02.59-.41.41-.49 1.18-1.07 1.27-1.69-1.78-1.22-.97-.73-2.98-.29.12.7.79 1.78 1.12 2.39z"/><path class="fil10" d="M17.34 13.11c1.4.51 1.46-.2 1.72-1.38.21-.94.48-1.9.61-2.89-.4.17-.17-.18-.75.94-.24.45-.38.73-.6 1.11-.31.54-1.09 1.6-.98 2.23zM53.86 13.29c1.53.26 1.41-.04 1.76-1.36.21-.79.54-2.11.5-2.95-.41.28-.35.38-.66.96-.17.32-.39.7-.56 1.02-.3.55-1.05 1.64-1.04 2.32zM109.28 8.95c-.09.1-2.33 3.69-1.96 4.1.32.37 1.01.14 1.24-.15.27-.34.92-3.57.94-3.9-.09-.16.08-.19-.21-.05z"/><path class="fil6" d="M121.57 20.73c.75-.14 1.33-.44 2.23-.42.42.01.93.22 1.31.03.32-.16.44-.72.18-.96-.25-.23-2-.09-2.47-.08-.89.03-1.16.54-1.25 1.43z"/><path d="M72.96.96c-.28-.54-1.48.26-2.53.76-.87.41-2.47.94-2.17 1.47.3.55 2.15-.62 2.56-.82.46-.23 2.43-.86 2.14-1.41z" style="fill:#71c2fc"/><path d="m121.34 17.6 1-.04c.9-.72 1.64-.29 2.62-.44-.16-.7-.61-.13-.7-.92.72-.53.86.38 1.36-.49-.39-.17-4.04.94-4.36 1.23l.07.67z" style="fill:#f5fafb"/><path class="fil3" d="M75.14 19.61c.19.35-.01.43.51.31.73-.17.23-.49 1.09-.88.25-.11.43-.18.68-.29l2.04-.9c.48-.27.4-.04.26-.67-.58-.09-1.96.7-2.54.96-.19.08-.45.17-.6.25-.54.31-.19.15-.42.44-.49.61-.78.14-1.03.78z"/><path d="M139.8 23.77c-.76-.24-.5-.6-1.86-.61.26.51.67.61 1.04 1.16.25.39.46.84.69 1.31l.21-.05.02-.55.05-.3-.15-.97z" style="fill:#2f586c"/><path d="m139.95 24.75-.05.3.09.19c.29.72.03.48.53.53 0 0 .42-.25.07-.97-.15-.3-.36-.44-.7-.59l.06.54z" style="fill:#fafafa"/><path d="M29.39 11.02c-.11.18-.14-.27-.11.29.02.38.02.12.1.29.53-.07.06.03.27-.2l-.28.09.02-.46z" style="fill:#838484"/><path d="M109.28 8.95c.29-.14.12-.11.21.05.21-.18.13.04.24-.4-.39.16-.23.06-.45.35z" style="fill:#6b6c6c"/></g></g></svg>