<svg xmlns="http://www.w3.org/2000/svg" xml:space="preserve" width="80" height="95.982" style="shape-rendering:geometricPrecision;text-rendering:geometricPrecision;image-rendering:optimizeQuality;fill-rule:evenodd;clip-rule:evenodd" viewBox="0 0 27.55 33.05"><path d="M2.53 17.1c-1.79-.33-1.95-.66-2.3-2.16-.1-.44.07-.86.45-1.14-1.26-1.82.29-4.29 3.78-3.64.26-.35.54-.71.83-1.06-.49-.56-.2-1.1.01-1.61.39-.93.61-2.06.81-3.06.12-.63-.08-.26-.1-.9-.02-1.09 1.14-1.19 2.12-1.36.71-.12 1.33-.14 1.86.58-.04-.84.76-1.16 1.5-1.37.65-.18 1.24-.35 1.85-.02.35-.68 1.6-.88 2.2-.88.6 0 .06.02.65-.13l3.31-.36c.19 0 .38.04.54.12.12-.03.24-.05.38-.05 1.01 0 2.64-.23 2.69 1.11l.48 3.61c.04.19.57 1.36-.64 1.78.09.23.18.47.27.73.5-.3 1-.14 1.62-.09 2.31.19 1.43 1.46 1.32 3.67-.01.19-.03.39-.05.58.77.02 1.33.68 1.18 1.38-.22.99-.46 1.89-1.9 1.79-.06.38-.21.68-.41 1.07.64.14 1.06.73.92 1.35-.19.83-.28.03-.21 1.23l.16 3.09c.9-.27 1.75.35 1.69 1.17-.06.7.06 2.55-1.53 2.33l-3-.42c-.11.61-.25 1.21-.4 1.74.89.72 1.3 1.99.92 2.99.81 1.06.69 2.64-.46 3.46-1.38.98-3.8-.04-4.76-.1l-1.85-.28c-.53-.09-.08-.14-.63-.1-.8.06-1.53-.23-2.11-.73-.72.53-2.46.06-3.57.06-.65 0-.17-.16-.83-.07-1.95.27-3.92.08-4.67-1.88-.65-1.71.03-3.45 1.66-4.32-.34-.64-.54-.95-1.12-1.44-1.07.71-2.77.65-3.89.21-.85-.33-1.13-.81-1.25-1.62-.08-.54-.09-1.06.48-1.43-.92-1.48.01-3.15 2-3.51.01-.11.01-.23.02-.34z" style="fill:#fefefe"/><path d="M8.37 14.99c-1.24 0-1.61-2.68-.34-3.41 1.79-1.03 2.48 2.27.96 3.23-.15.09-.39.19-.62.19zM21.09 4.84l-.03.65h1.45c0-.16-.1-.3-.14-.46l-.49-3.2-.02-.6h-1.45c0 .18.18.44.25.8.08.4.43 2.44.42 2.82zm-4.4 3.73c0 .21.08.32.08.61 0 .52-.25 3.32-.39 3.87-.04.15-.11.36-.11.51l1.42-.28c0-.18-.05-.54-.04-.65l.15-1.24c.22-1.37.07-1.61.42-3.08l-1.53.26zm7.31.48c0 .77-.12 1.53-.21 2.35-.11 1 .01.82-.4 1.84.31 0 1.88.26 2.33.26.19 0 .32-.72.36-.89-.74 0-1.35.16-1.28-.5.09-.87.22-2.62.36-3.38.09-.44.25-.3-1.26-.46 0 .15.1.41.1.78zm-13.85 21.3c.73 0 1.91.2 2.72.2.18 0 .38-.59.42-.76-1.14 0-1.7.19-1.6-.51.08-.52.09-2.12.22-3.09.01-.1.04-.22.04-.33h-1.47c.01.35.2.25.11 1.11-.05.72 0 2.72-.33 3.18-.09.12-.11.11-.12.2zm6.16-28.61v.56c.1 0 .35-.1.44-.13.61-.24.58-.19.71.5.12.6.51 2.24.35 2.75-.04.12-.09.21-.1.29l1.55-.17-.69-3.69c.3.03.62.1.92.13v-.82l-2.54.28c-.3.04-.64-.02-.64.31zm-.4 15.03c0 .26.06.42.06.69l-.04 1.56-.23 3.45c-.01.09-.03.25-.03.32h1.55l-.17-1.32c-.07-1.24.07-2.38.06-3.58 0-.79.22-1.06.29-1.39l-1.51.26zM5.64 28.29c0 .84.47 1.63 1.23 1.94.62.25 1.58.16 2.25.07.3-.04.36-.36.58-.85-.48.04-1.71.71-2.35-.04-.38-.44-.37-2.28.29-2.68.56-.34 1.34.04 1.7.05 0-.99.11-.91-.94-.91-1.44 0-2.77.93-2.77 2.43zm6.01-15.88c0 1.88 1.33 2.39 2.8 1.71.44-.21.74-.29.86-.61.43-1.13.19-.81-.12-.62-.54.34-1.53 1-1.98.22-.24-.41-.3-2.26.33-2.87.56-.54 1.16-.37 1.71-.37v-.91c-.98 0-2.23.61-2.9 1.47-.43.55-.71 1.25-.71 1.98zm-.71 8.42c0 1.27.93 2.13 2.01 2.13.41 0 1.2-.08 1.5-.25.15-.09.4-1.03.41-1.14-.67.3-1.47.81-2.1.38-1.14-.77-.41-4.52 1.61-3.69.07.03.1.05.18.06 0-.41.06-.75.06-1.15-.66 0-1.77.41-2.29.89-.77.7-1.38 1.65-1.38 2.78zm12.47 1.43c0 .45-.06.73-.06 1.08l2.85.39.1-1.28c-.15 0-.74.38-1.41.01-.22-.12-.27-.33-.27-.64l-.17-3.49c-.15-1.12.19-1.33.24-1.52l-1.59-.22c.04.52.15.92.17 1.69l.15 3.97zm-22-2.47c0 1.32 2.26 1.48 2.26 2.19 0 .65-.67.5-1.04.4-.73-.19-.66-.13-1.29-.46-.13-.07-.12-.06-.07.31.09.64.27.7 1.14.88 2.18.47 3.25-1.12 2.41-2.15-.54-.66-1.84-.83-1.84-1.31 0-.49.8-.43 1.23-.27l.45.17c.06-.82.13-.8-.69-.96-.94-.19-2.56.05-2.56 1.2zM20.77 9.57c.04.18.27 1.06.27 1.21h-.84l.45-1.1c.03-.08.03-.11.12-.12zm-1.22 3.54c0-.31-.08-.79.21-1.32.1-.18.12-.2.38-.2 1.01.01.95-.21 1.09.52.15.77-.21.83-.25 1l1.8.09-.55-2.36-.42-2.01c-.18-.81-.01-.68-1.73-.68.13.25.3.31.13.77l-1.57 3.71c-.36.74-.52.59.91.49zM3.88 14.85c0 1.1-2.43-.13-2.43-.13.26 1.14.14.99 1.14 1.23 2.43.57 3.47-1.48 2.13-2.49-.61-.46-1.74-.68-1.74-1.06 0-.88 1.65-.21 1.7-.2 0-.55.08-.79-.26-.86-.68-.14-1.28-.22-1.95.01-.93.32-1.22 1.08-.78 1.78.62.98 2.2.99 2.2 1.72zm3.96-8.83.29-1.32.67 1.13c-.05.02-.88.2-.96.2zm-.59-2.49c.01.51.37-.09-.03 1.7-.24 1.08-.33 1.65-.76 2.69-.04.1-.19.4-.19.49l1.42-.22c-.02-.09-.25-.21-.25-.43 0-.19.14-.68.21-.8.16-.27.74-.34 1.12-.4.4-.07.38 0 .58.37.3.54-.04.81-.07.92l2.05-.54c-.02-.1-.24-.37-.32-.49L8.97 3.46c-.19-.3-.47-.17-1-.06l-.73.14zm7.21-1.65c.17.33.35.41.48 1.08l.23 1.37c-.48-.26-1.8-1.45-2.41-1.91-.28-.21-1.17.17-1.53.3.65.16.78 1.89.87 2.46.12.74.22.9.06 1.66-.02.09-.04.12-.04.22.2 0 .97-.27 1.19-.33-.01-.09-.14-.23-.22-.53-.2-.74-.14-1.29-.3-2.01.34.01 1.6 1.64 2.61 1.9.38.1.45.08.75.05 0-.72-.61-3.38-.61-4.49-.12 0-.98.17-1.07.22zM8.03 22.55c-1.51 0-1.46-3.41.23-3.41.4 0 .68.15.81.52.08.23.21.71.21 1.02 0 .28-.2 1.03-.31 1.26-.17.35-.44.61-.94.61zm-2.47-1.5c0 1.77 1.83 2.78 3.41 1.95 2.05-1.07 2.11-4.07.57-4.54-1.63-.5-3.99.7-3.99 2.59zm8.63 5.73c0 1.03-.04 1.99-.04 3.01 0 .36.22.67.47.86.96.75 1.62.16 2.07.16v.33l1.51.26c0-.21-.1-.37-.1-.61v-3.8c0-.27.23-.5.25-.59-.28-.01-1.4-.16-1.78-.2.03.34.19.18.19 1.06l.02 1.24c.01.43.05 1.36-.23 1.66-.32.35-1 .2-1.05-.44l.04-3.06c.03-.16.09-.41.09-.56l-1.55-.13c0 .23.13.49.13.8zm5.55-8.5c.13 0 .09.02.12.13l.4 1.54c-.29 0-.56-.04-.86-.04l.34-1.63zm-.44-1.65c0 .19.02.24 0 .42L18 22.86c.41 0 .78.07 1.19.07-.27-.59-.09-1.77.1-1.91.18-.14 1.13.01 1.16.03.15.06.42 1.22.42 1.37 0 .09-.15.55-.19.63l1.95.22-.35-.75c-.23-.6-1.4-5.56-1.64-6.09l-1.34-.02v.24zm1.59 14.51c-.21 0-.38-.15-.38-.37v-1.15c1.37 0 1.1 1.52.38 1.52zm-.27-2.28c-.18 0-.26-1.28-.06-1.28.25 0 .28.09.38.26.24.44.27.43.06.84-.06.12-.21.18-.37.18zm-1.78 2.65 1.75.29c.56.1 1.25.27 1.71-.06.76-.54.55-1.66.05-2.05l-.48-.41c.5-.35.54-.47.54-1.02 0-.62-.51-1.3-1.19-1.48l-2.35-.28c.18.61.19.45.23 1.15l.04 2.78c0 .84-.06.69-.31 1.08zM5.75 13.53c0 1.99 2.17 3.06 4.08 1.64 1.93-1.45 1.93-4.63-.35-4.63-.22 0-1.22.21-1.4.26-1.21.37-2.33 1.37-2.33 2.73z" style="fill:#282829"/></svg>