<svg xmlns="http://www.w3.org/2000/svg" xml:space="preserve" width="128" height="64" style="shape-rendering:geometricPrecision;text-rendering:geometricPrecision;image-rendering:optimizeQuality;fill-rule:evenodd;clip-rule:evenodd" viewBox="0 0 107.35 53.68"><defs><style>.fil0{fill:#000}.fil3{fill:#ff0}.fil2{fill:#fff}</style></defs><g id="Camada_x0020_1"><g id="_2482594592576"><path class="fil0" d="M78 36.51c.2.08.06-.08.11.18.05.28-.28 1.62-.31 1.68-.15.21-.6.19-.99.2-.42 0-.72.16-1.05.03-.15-.29.05-.57.09-.9.13-1.16.03-1.1 1.11-1.19H78zm-41.28 5.88c-.46-.01-.09-.61 0-.86.08-.2.11-.37.18-.53.23-.54.73-2.34.99-3.02l.7-1.96c.06-.2.08-.31.15-.5l.66-1.99c.07-.28.11-.28.2-.51.07-.19.08-.32.14-.51l.38-.98c.82-2.14.04-1.96 1.99-2.06.29-.02.38-.07.66-.09 2.02-.1 2.38-.52 2.34.39l-.05 1.57c-.01.34.04.43.05.73 0 1.01-.01 1.99-.04 3.03l.02 1.51c-.02.56-.02 1 .01 1.52.03.47-.03 1.08-.05 1.57-.01.28.04.5.03.73-.01.21-.05.14-.05.33 0 .15.04.1.04.29-.01.42-.05.31-.08.56-.35.06-.69.08-1.1.15l-1.19.07c-.68-.02-.49-.07-.51-.51-.04-.99-.2-.69-.78-1.6-.17-.27-1.35-1.54-1.35-1.8.25-.14.89-.16 1.24-.2 1.43-.15.95.06 1-1.4.02-.54.1-2.77-.03-3.03-.26.16-.11.23-.25.7-.06.2-.17.46-.24.65l-.42 1.35c-.41 1.25-.15 1.6-2.17 1.55-.03.34.01.26.23.47l.45.62c.09.13.38.48.38.62-.01.41-.78 2.62-.94 2.89l-1.28.16c-.23.02-.44.01-.67.03-.19.02-.43.08-.61.08zm-20.01-1.08-.16.08-.16-.07c-.07-.07-.08.02-.13-.28-.38-2.51-1.02-1.61.72-2.92l.75-.53c.27-.21.33-.75.38-1.15.06-.43.16-.82.24-1.28.03-.19.1-.45.13-.64.06-.33-.03-.35-.41-.32-.18.02-.5.04-.76.07-.27.02-.58.01-.67.14l-.25 1.33c-.09.46-.1.97-.19 1.39-.05.26-.12.4-.15.67-.1.92-1.06.56-.66 1.51.13.31.27.89.17 1.21l-.47 2.69c-.26 1.69-.08 1.22-1.61 1.42-.52.07-.64.16-1.25.02l1.13-6.47c.02-.52.23-1.13.3-1.63.05-.33.03-.53.1-.83.06-.24.13-.53.15-.78.03-.32.1-.58.14-.86.05-.41-.94-1.41-.96-1.79.36-.11 2.24-.29 2.79-.35.27-.03.53 0 .79-.03.22-.03.46-.1.63-.12.8-.08 2.06-.13 2.84-.25.56-.09.84-.2 1.16.19.41.51.01 1.67-.12 2.31l-.43 2.43c-.05.23-.05.46-.09.67-.38 1.93.12 1.25-1.04 2.11l-1.4.98c-.01.01-.06.04-.07.05l-.11.07c-.01.01-.03.02-.04.02l-1.29.93zm6.27-8.17c0-.1-.42-.64-.53-.82-.07-.11-.47-.76-.47-.77 0-.32 1.02-.2 1.67-.33.49-.1 1.3-.11 1.9-.18.43-.05.82-.06 1.27-.11.33-.03.81-.1 1.24-.14 1.91-.19 1.47-.27 1.3.83-.04.25-.11.47-.14.68-.04.26 0 .5-.06.75-.06.29-.11.36-.13.69-.04.74-.2.51-1.05.66-.46.08-1.12.13-1.58.12-.41-.01.28-1.06-.23-1.07-1.03-.03-.63.37-.89 1.21-.1.32-.16.75-.17 1.12-.01.36.29.19.66.13.37-.05.86-.03 1.28-.1.15-.03.17-.05.36-.08.28-.05.5-.06.78.01-.03.21-.08.21-.23.36l-1.43 1.41c-.59.61-.73.85-1.33.93-.48.06-.6.03-.64.46-.06.63-.31 1.67-.32 1.84-.01.44-.02.38.32.36.26-.02.32-.02.52-.06.3-1-.08-1.14.77-1.26l1.88-.13c.4.1.13.36.11.73-.04.67-.38 1.62-.42 2.79-.69.3-1.67.21-2.31.32-.77.13-2.35.23-3.19.27-.31.02-.45.12-.66.04-.25-.17-.02-.77.04-1.29.08-.75.34-1.72.48-2.68l.66-4.07c.06-.44.19-.83.27-1.31l.26-1.32zm6.87-2.46c.22-.08.5-.11.77-.16.28-.05.51-.01.85-.04.4-.03 1.2-.18 1.65-.17.48.01.65-.04.65.13-.02.72-.39 1.85-.41 2.57-.03.93-.37 1.56-.41 2.51-.02.44-.2.78-.24 1.23l-.45 2.48c-.38 1.47-.17 1.04.72 1.06.04-.27.13-.94.27-1.17.13-.04 2.07-.23 2.26-.22.32.01.41.03.31.39-.08.3-.16 1.13-.33 1.78-.36 1.36.34 1.43-1.25 1.58-.76.07-2.18.14-2.78.24-.42.07-.98.07-1.38.13-.21.03-.45.06-.68.08-.76.07-.28-.62-.18-1.56l.7-3.86c.08-.47.11-.87.22-1.3.1-.39.19-.93.21-1.31l.48-2.57c.02-.46-.67-1.11-.9-1.56-.01-.01-.01-.03-.02-.04-.07-.15-.05.06-.07-.22zm58.39 3.19c.01-.01.02-.03.02-.04 0-.01.02-.03.02-.04.01-.01.01-.03.02-.04l.04-.08c.22-.45.57-.57 1.29-.55 1.16.03 1.14-.08 1.52.29.27.27.06.23.29.36.1-.13.13-.97 1.15-1.2 1.26-.29 1.07.58 1.2.86l.02-.21c.05-.66-.43-1.41.36-1.98.16-.11.64-.35.89-.35.14 0 .55.48.6.6.05.1.01.12.06.24.09-.46-.04-.3-.09-.66-.06-.41.18-.92.42-1.24.3-.4 1.3-.4 1.4.37.11.84.27 1.48-.09 2.15-.41.76-1.04.79-1.19.13-.31.13-.12.54-.11.8.02.39-.18 1.27-.55 1.67-.16.17-.5.36-.81.34-.26-.13-.48-.6-.49-.95-.15.06-.13-.04-.14.22-.04 1.14.41.61-.28 1.99-.2.4-.63.85-1.23.77-.15-.02-.33-.09-.49-.15-.25-.09-.24-.04-.3-.25-.23.1-.07.05-.22.26-.17.24-.64.56-.91.55-.38-.01-.81.02-1.08-.11-1.24-.61-.62-1.5-.95-1.96-.01.24-.01.49-.02.73-.01.34-.01.31-.23.49-.09.08-.31.24-.43.3-1.35.57-1.47-.73-1.96-.85-.06.5-.8 1.12-1.53.37l-.14-.16c-.54-.71-.29-1.97-.16-2.68.06-.3.07-.61.16-.84.15-.4.89-.63 1.47-.18.12.09.19.18.22.31.06.26.06.64.05.94.14-.16.12-.25.15-.44.02-.13.05-.29.11-.41.2-.41 1.09-.59 1.68-.02.16.15.22.27.21.65zm-37.31-5.19c0-.15.28-.1.45-.11l1.48-.16c.3-.05.67-.04.99-.08 1.25-.14 1.09-.24.79 1.18l-.18 1.28c-.08.32-.16.44-.17.83-.02.71-.41 2.59-.59 3.44-.05.25-.06.69-.12.93-.22.82-.19 1.2-.3 1.68-.06.26-.25.64.14.65.95.02.57-.17.89-1.21.33-.08.79-.13 1.18-.14.9-.01 1.38-.32 1.37.03-.03 1.03-.48 2.71-.5 3.41-.56.3-1.62.23-2.29.34-.25.04-.48.1-.79.09-1.08-.02-.93.09-1.64.12-1.59.08-1.81.57-1.36-1.24.11-.43.12-.88.21-1.3l.73-3.95c.07-.41.1-.9.19-1.33l.46-2.82c.01-.23-.93-1.36-.93-1.65zm25.32 6.29c0-.13.09-.35.12-.47l.98-5.45c.06-.55.01-.47.66-.55.15-.02 1.53-.35 1.52.05l-.67 4c-.03.14-.11.35-.13.52-.05.42-.06.79-.17 1.18-.32 1.15.18 1.39-1.17 1.47-1.36.08-1.17.2-1.14-.75zm-13.6-7.4c.1.42-.92 5.55-1.12 6.71l-.26 1.32c-.03.54-.18.88-.26 1.33-.15.84.02.62.72.59 1.28-.05.84-.27 1.27-2.01.1-.4.1-.95.2-1.37.24-1.03.42-2.63.63-3.35.14-.48.13-1.43.29-2.04.34-1.29-.06-1.4.97-1.49.3-.03.53-.04.82-.06.5-.02 1.14-.37 1.09.24l-.42 2.74c-.03.16-.05.14-.1.31l-.76 4.39c-.07.44-.2.69-.24 1.34-.02.34-.07.41-.15.67-.24.82-.07 1.24-.3 2.09-.23.86.02.69-.83.8-1.08.15-2.71.17-3.85.36-.18.03-1.67.22-1.83.15-.52-.24-.52-.66-.51-1l.64-3.63c.19-.79.11-.72.2-1.2.08-.38.19-.77.25-1.15.07-.47.05-.78.18-1.22l.41-2.57c0-.12-.68-1.01-.79-1.16-.12-.15-.19-.22-.2-.44.45-.17 3.14-.37 3.93-.35zm3.47 11.75c0-.14.12-.3.17-.48l3.6-10.69c.11-.26.35-1.26.58-1.37.19-.09 3.59-.38 4.03-.37.43.01.13 1.77.21 2.4.07.63-.04 1.38-.02 1.98l.02 1.34-.03.79c-.05 1.55.03 3.01-.02 4.54-.03.95.29 1.26-.45 1.38l-2.34.18c-.08-.31-.13-.24-.11-.67.01-.26 0-.47-.11-.62l-.34-.43c-.12-.16-.24-.28-.36-.42-.05-.06-.05-.07-.1-.14l-.03-.03-.03-.03-.05-.07-.03-.03-.47-.6c-.39-.58-.58-.47-.54-.98.45.01 1.68-.14 2.17-.23.05-1.71.14-2.55.03-4.18-.08.32-.02.02-.14.15-.12.13-.53 1.45-.63 1.75-.07.2-.07.36-.15.56-.08.22-.09.24-.14.5-.04.19-.08.3-.17.48-.11.23-.08.28-.14.51-.22.04-.42.05-.67.08l-1.13.17c-.12.1-.04-.02 0 .06.01.01.16.16.17.18.27.31.41.67.66 1 .13.17.25.2.26.43 0 .08-.09.4-.13.5l-.35 1.01c-.05.19-.08.38-.14.57-.32 1.06-.57.81-1.2.87l-1.28.16c-.6-.01-.65.03-.64-.24zM9.96 27.55c-.3-.01-.14-.39-.04-.78l2.04-7.55c.1-.29.1-.59.19-.86.11-.3.14-.5.24-.82l.25-.81c.27-.67.56-1.55 1.38-1.86l2.04-.28c.85-.05.52.34.73 1.37l.55 4.46c.06.35.12.49.13.87l.48 3.54c.06.28.12.59.14.86.09 1.09.46 1.06-1.12 1.21-.17.02-.48.02-.72.05-.34.04-.4.02-.46-.22-.13-.53-.19-1.46-.25-1.76-.09-.4-.05-.48-.28-.51l-.59.05c-.28.03-.43.04-.7.06-.08.01-.61.04-.69.06-.47.14-.61 1.92-.84 2.7-.39.07-2.02.23-2.49.22zm78.51 3.02c.01-.45.11-1.46.33-1.78.4-.57.99-.51 1.37-.48.11-.36.05-.71.2-1.08.13-.31.11-.82.51-.81.82.02.61.36 1.12.42-.19-.46-.07-1.65.21-2.04.13-.18.09-.14.34-.21.1-.03.34-.09.48-.09l1.17.69.03.03c.09.11.18.11.2.44h.13c-.01-.24-.04-.25-.15-.42l-.16-.26-.03-.03c-.33-.44-.34-.64-.33-1.15.02-.7.38-1.17 1.21-1.15.58.01 1.66 2.24 1.84 2.82l.42 2.17c-.03.87-.67 1.19-1.35.87l-.24-.19c-.04.28-.03.12-.02.39.01.16 0 .33-.02.49-.21 1.24-.65 1.46-1.73 1.48-.42-.58-.22-.6-.4-1-.12.12-.08-.07-.09.15-.01.4.07.83-.02 1.02-.18.38-.7.69-1.04.9-.97.61-.8.08-1.16-.01-.1.16-.32 1.06-1.14 1.04-.79-.02-1.18.09-1.45-.9l-.24-1.33zm-9.45-8.53v-.06l.17-.14c.29.12.37.15.61.32 1.31.94.92.72 1.05 1.71.06.49.17 1.04.41 1.35.5.65.89.44 1.31.31l.3-.03.06.23-.18.14c-.06.2-.38.55-.57.65-.33.17-.49.06-.92-.03-.51-.1-1.66-.33-1.85-.57-.35-.43-.41-3.16-.38-3.89zm-77.7 6.09c.06-1.91.3-3.36.37-5.37l.11-1.34c.04-1.14.3-2.9.33-4.03.05-1.62-.2-1.38 1.48-1.54l2.89-.26c1.48 0 2.24.91 2.52 2.05.35 1.42.25 1.17.2 2.79-.01.26-.52 2.12-.69 2.43-.19.35-.15.39-.45.74-.44.53-.14.62.08 1.28.05.16.12.3.17.46l.28.92c.16.37.45.94.44 1.33-.25.11-.17.09-.52.1-.58.02-1.52.18-1.71.18-.22-.3-1.06-2.4-1.15-2.78-.05-.23-.02-.41-.25-.51-.15-.07-.46-.01-.72-.01-.51 0-.6.06-.66.38-.01.03-.01.13-.01.16-.02.35.01.84-.06 1.16-.05.23-.01.49-.03.67-.18 1.6.05 1.14-1.2 1.33-.44.07-1.43.25-1.41-.13zm49.78-4.82c.01-.22.18-.62.24-.82l2.04-7.95c.24-.85.63-2.39 1.21-3.06.63-.72.51-.55 1.98-.73.16-.02.96-.08 1.07-.06.34.06.28.38.33.72.08.6.22 1.13.25 1.76.02.5.07.28.11.89l.67 5.29c.16.73.05.32.12.89l.14.86c.03.31.2 1.52.14 1.68-.23.09-1.78.24-2.16.23-.29-.01-.32-2.13-.51-2.48-.35-.01-2.18.15-2.36.22-.04.07-.18.5-.2.57-.16.65-.01.33-.28 1.13-.25.75.16.95-1.13 1.05-1.58.12-1.7.35-1.68-.2zm9.82-12.82c.21-.11.2-.12.52-.16.2-.02.43-.07.6-.08.48-.03.77-.04 1.21-.11.42-.07.89-.05 1.28-.11.28-.04.87-.15 1.17-.15 1.09.03 1.85.76 2.2 1.54.06.14.06.21.12.34.44 1.12.24 3.54.2 4.74l-.41 3.09c-.17.49-.27.86-.51 1.27-.21.37-.59 1.21-1.31 1.35l-1.72.17c-.73.07-3.72.46-4.1.37-.15-.64.03-.94.05-1.57.02-.64.03-1.58.13-2.14.14-.84.08-1.98.17-2.85.03-.27.08-.38.09-.73l.29-4.98zm-33.88 4.32c.26-.39.7-.85 1.14-1.1.9-.51 1.98-.38 2.65-.48.68-.1 1.22-.1 1.44-.13.35-.05 1.75-.39 1.73.07-.02.72-.03 2.13-.22 2.74-.24.09-.69.15-1.05.14-.63-.01-.57-.08-.99.14-.03 1.04-.13 2-.17 3.08-.01.51-.1.97-.11 1.51-.01.47-.09.98-.16 1.41-.09.48 0 1.05-.1 1.52-.27 1.33.31 1.83-.54 1.88-.6.03-2.18.34-2.16-.06l.15-1.76c.17-.91.23-2.46.26-3.33.04-1.13.06-1.16.21-2.19.05-.3.03-.74.04-1.06.02-.68.26-.79-.1-.84-.24-.03-.8.12-1.02.17-1.71.36-1.31 1.32-1.85 1.61-.15-.21-.13-.07-.11-.51l.95-2.83zm-8.82 3.81c.01-.24.32-1.61.45-1.89.08-.18.13-.38.22-.55.07-.14.18-.37.27-.51l.69-.87c.35-.37 1.14-.61 1.71-.69l2.96-.31c.7-.04 1.02-.14 1.44-.08 0 .17.01.22.01.32l.01 1.03c-.02.51-.03 1.01-.05 1.51-.42.22-.58.21-1.28.28l-1.35.15c-.67.08-.81-.04-1.35.21-.95.43-.55 1.77.12 1.78.65.02 1.75-.42 2.66.18.78.52.79 1.05.96 1.79.24 1.07-.04 1.61-.17 2.61l-.29 1.12c-.24.77-1.19 1.42-2.04 1.55-.3.04-.36.08-.62.12l-2.76.26c-.47.05-.93.21-.92-.31.09-2.9-.16-2.61 1.19-2.66l1.39-.17c.46-.03 1.01-.05 1.43-.2 1.06-.4.65-1.4.38-1.5-.36-.14-2.94.49-3.47-.89-.08-.21-.11-.27-.17-.52-.07-.28-.14-.35-.2-.55l-.24-1.22c0-.27.06-.42-.04-.62-.46.13-.56.8-.84.93-.08-.14-.11-.1-.1-.28zm53.43 3.23c-1.14-.03-1.93-.51-2.43-1.36-.3-.51-.38-1.48-.45-2.09-.05-.51.01-1.61.01-2.04-.01-1.01.16-1.17.18-1.93.02-.9.21-3.02.74-3.71.07-.09.05-.05.11-.13.54-.66.79-.91 1.78-1.21.02 0 .03-.01.05-.01.57-.18.43-.12 1.08-.23 1.13-.19 2.32-.19 3.22.52.49.39.86 1.13.9 1.72l.11 1.97c0 .18-.05.12-.06.33-.01.36.08.53.04.84-.03.26-.08.39-.09.73-.02.57-.07 1.03-.11 1.51-.09.98-.16 1.89-.45 2.82-.11.36-.41.77-.63 1.04-.17.21-.21.25-.44.41-.82.54-2.59.84-3.54.82zm-29.37-6.39c.31-1.03.36-1.36 1.12-2.32l.29-.37c.22-.23.48-.41.77-.57.8-.42 1.22-.51 2.25-.55.54-.02.81-.14 1.31-.14 1.23.01 2.4-.33 2.53-.03.06.14-.13 2.38-.15 2.49-.1.51-.31.42-.88.47l-2.57.26c-.62.12-.45.22-.6.78-.12.46-.14.6-.12 1.04.71-.08 2.21-.24 2.94-.21.01.37.01.87-.05 1.34-.12.89.01 1-.4 1.08-.73.14-2.63.1-2.82.38-.06.09-.1 1.17.04 1.57.09.25.16.27.27.33.76.34 2.5.02 3.19-.22.96-.33.61.05.55 1.66-.01.4.02 1.25-.39 1.38-.88.28-2.57.56-3.47.54-.86-.02-1.17.08-1.84-.53-.34-.31-.37-.4-.55-.81-.11-.27-.29-.67-.36-.97-.23-1.12-.17-2.51-.14-3.65.04-1.16.26-2.05.27-2.4.02-.6-.01-.44-.16-.4-.74.23-1.23.98-1.25 1.65-.01.48-.15.85-.27 1.37-.23 1.04-1.05 2.07-1.07 2.19-.03.16.48 1.51.58 1.74.09.2.11.38.2.6.65 1.56.68 1.36-1.19 1.51-.3.02-.65.12-.82-.1-.04-.05-.78-2.43-1.23-3.2-.41.05-.92.12-1.31.14l-.11 1.46c-.01.46-.14.89-.18 1.34-.09 1.19-.16.61-1.98.92-.36.06-.52-.12-.51-.47l.61-7.56c.04-.34.06-1.01.13-1.4l.17-2.9c.99-.17 2.01-.2 2.48-.29.47-.09.77-.04 1.3-.08.86-.08 1.48-.12 2.1.45.23.21.39.46.58.73.14.19.14.17.24.41.23.56.13 1.09.46 1.38zm40.8 14.02c.22.07.27.12.51.24l1.1.69c.17.12-.05.04.19.12.62-.44.59-.62 1.7-1.05.23-.09.19-.04.46-.1.47-.1.26-.2.96-.17.18.29.27.35.31.78l.05 1.41c-.01.27-.09 1.03-.36 1.21-.25.17-.67.16-.98.11-.72-.1-1.99-.61-1.97-1.35h-.06c-.02.69-.24.54-1.12.48-.71-.05-1.21-.54-1.6-.99-.28-.33-.69-1.33-.59-1.67.03-.17.01-.09.06-.25-.71-.31-.7.04-1.37.02-.38-.66.07-.77-.11-1.44-.15-.54-.78-.44-.59-1.05.74.02.82.17 1.39.35.43.13 1.16.1 1.62.16 1.29.18.66-.78 1.09-1.29.24-.28.08-.26.06-.58l-.34.33c-.07-.24-.08-.1-.18-.29-.17-.35-.01-.34-.37-.84-.38.08-.04.17-.59.15-.09-.37 0-.38-.26-.66l-1.07-1.31c-.3-.45-.9-.64-1.3-1.02-.44-.41-.99-.31-1.01.33a.076.076 0 0 1-.02-.04l-.13-.22c-.4-.64-.51-2.16-.35-2.28.41-.32 1.81 1.14 2.15 1.36.17.11.07.04.2.16.31.3.25.27.39.61.08.18.18.18.37.3.01-.26-.02-.44-.21-.59-.22-.17-.05.12-.21-.21-.06-.14-.01-.07-.1-.24l-.62-.97c-.26-.34-.32-.67-.72-.89-.18-.1-.38-.14-.58-.24-.24-.13-.25-.16-.58-.24.2-.33.12-.52.49-.82.52-.43.74-.5 1.46-.69.72-.19 1.68-.5 1.2-1.31-.14-.23-.14-.11-.2-.44-.11-.56-.13-1.3-.31-1.77-.18-.48-.42-1.06-.69-1.51l-.59-.83c-.42-.76-.82-.89-1.51-1.61-.23-.24-.42-.29-.7-.47-.24-.15-.4-.33-.66-.45-.16-.07-.3-.09-.47-.17-.61-.27-.89-.63-1.57-.8-.58-.14-.49-.25-1.29-.48-.3-.09-.55-.23-.88-.32-.39-.11-.55-.18-.92-.29-1.24-.39-2.7-.61-3.97-.87-1.07-.22-2.17-.28-3.26-.41-.26-.03-.31-.09-.53-.12-.18-.02-.38-.01-.57-.03l-1.58-.24c-.35-.04-.29.06-.44-.13.34-.06.48-.25.7-.4.29-.19 1.24-.5 1.64-.59 1.09-.26 2.23-.99 3.36-1.1.66-.06.41-.07.92-.2.3-.08.62-.16.91-.21.58-.11.86-.28 1.35-.33.98-.1 1.75-.33 2.46-.36.72-.03 1.45-.22 2.07-.15.29.04.66-.05.98-.08.37-.04.75-.01 1.14 0 .46.01.73-.06 1.11-.03.33.02.7.19.95.16.28-.03.03-.1.45-.05.21.03.3.04.55.05.27 0 .84.05 1.07.11.67.16 1.48.21 2 .34.34.08.58.21.89.26 1.53.28 1.78.56 2.67.78.37.09.58.13.92.23.42.13.91.25 1.23.47.33.23.85.31 1.17.52.3.2.32.22.7.36.88.32.73.45 1.45.78.64.29 1.24.64 1.77 1.02.14.1.21.12.35.2.15.09.2.14.34.22l.97.69c.38.35.9.58 1.27.94.36.35.8.42 1.74 1.53.25.3.59.5.82.81l.76.86c.28.38.72.76 1.01 1.14l.61.98c.08.11.15.17.25.29.58.67.42.69.82 1.3.16.24.2.46.34.7.27.45.38 1.01.66 1.43.3.44.53.97.61 1.47.03.2.06.19.15.37.18.4.19.82.32 1.21l.32.72c.12.33.12 1.27.3 1.72.16.42.2.17.19.77l.26 1.75c.25.85-.06 2.01-.09 2.91-.05 1.45.31.27-.18 2.72-.07.36-.13.53-.21.84-.06.22-.09.67-.14.91l-.79 2.4c-.09.36-.1.53-.24.82-.44.93-.48 1.21-1.07 2.14-.4.63-.3.52-.54 1.06-.11.25-.64.87-.9 1.26-.11.16-.14.17-.25.29-.41.51-.68.93-1.15 1.43l-.53.67c-.34.46-.95.93-1.42 1.31l-2.74 2.18c-.55.49-.41.28-.94.64l-1.35.85c-.47.28-.9.6-1.42.78-.37.13-.42.23-.72.38-.31.16-.69.26-1.03.39l-.52.28c-.51.31-1.06.42-1.59.63l-1.67.56c-.59.21-.58.34-1.64.58-.59.13-1.2.2-1.74.44-.54.23-1.25.29-1.87.38l-.95.17c-.43.06-.48-.01-1.01.12-.25.06-1.85.03-2.24.04-.37.01-.64.06-1.11.03-.32-.02-.2-.02-.46-.02-.98.03-1.84-.1-2.86-.12-.81-.02-1.42-.15-2.02-.32-.67-.2-.33-.12-.9-.15-.25-.02-.6-.21-.85-.28-.27-.08-.68-.14-.92-.24l-.39-.18c-.24-.09-.22 0-.23-.25.22-.09.29-.02.54-.08.24-.06.16-.09.49-.13.81-.11 1.25-.19 2.08-.41.41-.11.51-.25.83-.35.16-.05.32-.05.51-.11l.94-.3c.47-.1.91-.33 1.36-.5 1.07-.41 1.59-.92 2.35-1.27l1.54-.85c.11-.08.23-.18.33-.28.22-.21.75-.69 1.02-.8.43-.18.37-.27.69-.53 1.73-1.42 1.02-1.03.91-2.13-.04-.36.13-.58.3-.87.08-.14.15-.2.28-.33.14-.13.13-.17.24-.3.26-.28.75-.55 1.09-.74.6-.34.53-.28 1.18-.16l1.24.3c.39.11.63.15 1.06.23.35.06.7.22 1 .28.46.08 6.11.78 6.52-.1-.6-.01-.77-.08-1.31-.04l-2.63.02c-.43-.06-.84-.08-1.27-.11-.52-.03-2.66-.63-3.31-.86l-1.02-.32c-.49-.17-.92-.46-1.38-.68-.92-.44-.74-.41-.97-.91-.16-.37-.41-.45-.32-.93.15-.81.4-.95 1.24-1.35 1.47-.7 1 .4.99.79.48.24.6.3 1.17.41.63.13.57.3 1.45.34.18.01 0-.02.19.02 0 0 .18.06.19.06l1.55.25c.19 0 .34.02.45.04.89.18 1.89.03 2.44.14 1.09.23 1.3-.02 2.12-.35.31-.13.54-.3.82-.47.32-.19.78-.45 1.03-.68l.5-.46c.15-.12.35-.33.48-.48.46-.54 1.08-.96 1.46-1.55.49-.76.32-.4.91-.84l.65-.56c.36-.29.76-.59.95-.99l.2-.34c.22-.3.62-.28.76-.69.18-.52.15-1 .09-1.54-.02-.23-.03-.66-.08-.86l-.34-1.47c-.05-.3-.11-.46-.34-.6-.06.19-.14.33-.15.56-.27-.18-.5-1.14-.6-1.42-.16-.45-.22-1.08-.45-1.49-.09-.16-.11-.15-.17-.35-.06-.19-.03-.21-.14-.38l-1.21-1.8c-.11.18-.08.35-.09.61-.42-.11-.5-.44-.8-.66-.29-.22-.23-.48-.61-.76-.43-.32-.4-.48-.73-.72-.16-.12-.31-.17-.47-.27l-.17-.14-.03-.03c-.14-.09.05-.06-.23-.08.02.03.04.1.05.12.09.17.01.02.07.11.11.16.1.04.12.23.04.34-.77 1.15-.99 1.45-.55.77-.79 1.32-1.57 2.26-.41.49-.28.44-.52.85-.14.23-.43.32-.68.71-.36.56-1.13 1.43-1.23 1.59-.08.13-.16.35-.26.45-.13.13-.24.11-.39.28l-.25.29c-.02.02-.07.08-.09.1-.1.13-.18.25-.27.39-.17.29-.09.17-.4.33l-3.23 1.04c-.11.02-.43-.02-.6-.06-.39-.08-.66-.28-1.18-.29v.11zM19.15 13.82c-.2-.36-.1-1.03-.37-1.34l-.87.08c-.65.1-2.4.19-2.79.29l-.78.27c-.49.2-.6.48-.95.75-.29.21-.51.31-.79.55-.5.42-.84 1.03-1.01 1.62-.36 0-.18.07-.33-.12-.17-.23-.4-1-1.2-1.59-.73-.53-1.5-.82-2.51-.76-1.11.06-1.99.19-3.04.3-2.27.24-2.32-.07-2.35.92-.38.11-.82.15-1.12.31l-.2 2.24c-.02.24 0 .49-.02.73l-.25 3.69c-.02.27-.08.38-.09.67-.02.49.01 1.03-.08 1.48-.16.79-.21 2.05-.23 2.88L0 29.36c.05.28.21.21.45.19l1.89-.19c1.69-.16 3.5-.39 5.17-.49 1.48-.09 1.03-.37 1.83.66l.63.74c.55.58 1.04 1.21 1.47 1.86l.83 1.18c.47.7.6.65.36 1.54-.09.32-.07.43-.12.75l-.76 4.45c-.14.46-.16.99-.24 1.49-.04.26-.12.51-.16.73-.05.28-.06.45-.12.7-.05.24-.12.46-.15.73-.18 1.51-.77 2.25.11 2.19.15-.01.25-.03.46-.05.34-.03.53-.07.92-.09.81-.04 1.12-.11 1.83-.18.29-.03.68-.01.95-.06.56-.08.57.01.66-.32.15-.52.15-1.16.28-1.59 1.03-.18 1.09.23 1.21-.69.17-1.28.57-1.12 1.74-1.99.2-.15.36-.25.57-.41.27-.21.69-.51.62-.03l-.2.93c-.09.4-.15.87-.23 1.23-.1.44-.13.87-.22 1.3-.28 1.28-.43 1.14.79 1 .95-.11 2.4-.13 3.23-.24.63-.08 1.33-.06 1.93-.21.87-.21 2.26-.15 3.16-.3l2.55-.28c.92-.05 1.71-.07 2.59-.19 1.92-.25 4.55-.37 6.25-.66.02-.32.14-.37.21-.62.05-.18.14-.48.16-.66.22.06.15.02.23.2l.06.93c.3.07 1.71 0 2.1-.05 1.54-.24 3.62-.29 5.15-.51.28-.04.67-.04 1-.08.23-.02.26-.06.47-.09l1.56-.14c.61-.09 1.5-.07 2.11-.16.36-.06.68-.08 1.04-.09l3.04-.3c.11-.22-.03-.52.32-.42.29.08.32.25.64.26.81.02.8.01 1.6-.1l2.32-.2c.54 0 1.01-.1 1.55-.16.26-.03.53.01.79-.03l.72-.1c1.05-.13 2.07-.21 3.08-.31.4-.04 1.27.01 1.48-.21.28-.28.22-.71.5-1.05l.13.32c.12 1-.43.74 1.4.61.44-.03 1.03-.02 1.43-.08.43-.07.93-.09 1.38-.13.69-.06 3.84-.48 4.14-.37.23.09.39.36.58.52 1.27 1.06.9.89.42 1.57-.25.35-.32.61-.41 1.01-.16.67 0 .49-.02 1.08-.01.26-.54.62-.74.83l-.65.5c-.23.14-.41.34-.63.52-.7.57-1.57.98-2.35 1.44-.67.4-1.36.67-2.07 1-.5.23-1.16.41-1.68.61-.14.05-.11.06-.26.11-.15.05-.16.02-.31.06-.43.11-1.11.4-1.81.54-.93.19-1.33.2-1.94.32-.43.08-.88.15-1.37.2l-2.78.36c-.44.03-.85.16-1.26.24v.11c.25.06.56.13.8.23.35.14.75.2 1.11.35.15.06.17.1.29.14.16.06.25.05.41.11l1.8.61c.49.14 1 .29 1.47.45l2.33.62c.89.14 1.66.32 2.6.34.37.01.56.08.85.12.56.08 1.11.07 1.68.09 1.03.03 2.09.09 3.11-.04.59-.07 1.11 0 1.71-.06.3-.03.36-.12.73-.14l2.32-.37c.45-.08.98-.32 1.41-.39.31-.05.41-.09.71-.16l3.28-1.06c.32-.12.32-.01.68-.19l.9-.45c.16-.07.15-.08.28-.15l.63-.23c.28-.13.57-.16.8-.31.01-.01.03-.02.04-.02.01-.01.03-.02.04-.02l.96-.45c.12-.06.05-.03.15-.1l3.84-2.39c.06-.04.1-.07.14-.1l1.48-1.14c.36-.19 1.45-1.27 1.66-1.55.14-.18.29-.24.46-.39.18-.16.07-.04.2-.22.26-.34.53-.58.76-.92l1.91-2.37c.05-.09.06-.17.13-.28l.34-.5c.07-.1.1-.15.16-.26l.62-1.11c.26-.42.59-.9.76-1.32.05-.12.06-.21.1-.31.1-.22.1-.09.18-.3l.28-.95c.09-.33.17-.24.24-.58.11-.49.4-1.02.6-1.94.07-.3.17-.25.21-.61.08-.61.24-.99.29-1.34.07-.49.06-1 .16-1.47.03-.16.12-.56.12-.7l-.08-3.64c-.15-2.16-.35-1.96-.61-3.59l-.53-2.02c-.29-.78-1.1-2.86-1.52-3.62-.22-.4-.46-.7-.65-1.11-.2-.43-.74-1.23-1.04-1.61-.38-.49-.68-1.08-1.08-1.52-1.06-1.15-1.7-2.04-3.02-3.22l-.98-.84c-.63-.58-1.37-1.08-2.08-1.58l-.55-.37c-.22-.13-.39-.18-.59-.34l-.84-.57-4.65-2.28c-.72-.31-3.51-1.25-4.28-1.38-.74-.13-1.6-.4-2.39-.52-.33-.05-.57-.11-.83-.14-.61-.08-1.22-.08-1.79-.18L76.81.01c-.97-.02-2.27.14-3.27.14-.5 0-1.03.13-1.52.18-.48.05-.97.12-1.43.2l-4.11.88-1.88.6c-.21.08-.38.12-.61.19-.22.07-.46.13-.66.21-.4.16-.82.27-1.21.46a3.4 3.4 0 0 1-.57.23l-5.19 2.15c-.11.05-.17.09-.28.15-.22.12-.05-.04-.22.15.37.08 1.65.15 2.15.17 1.95.05 4.38.19 6.28.47.72.1 1.3.17 1.97.26.59.08 1.29.22 1.91.31.63.09 1.19.29 1.78.41.42.09 1.5.17 1.71.47-.08.24-.54.4-.78.56-.07.05-.09.06-.15.09l-.57.47c-.07.06-.06.05-.14.11-.01.01-.06.04-.07.05-.42.28-.46 0-.84-.26-.52-.36-1.16-.67-1.91-.69-.79-.02-.62-.01-1.34.1-.27.04-.46.01-.75.01-.23.01-.46.06-.65.1-1.13.23-2.35.11-3.47.31-.11.5.05.79-.49.88-.66-.23-.01-.78-.5-.8-.41-.01-.94.09-1.3.15l-2.3.22c-1.18.13-1.4.89-1.92 1.14-.96.47-.97.95-1.33 1.39-.09.11-.03.08-.18.12-.08-.15-.07.04-.06-.17l.09-.67c.05-1.61.32-1.53-.74-1.48-1.52.08-2.99.29-4.48.43-.58.05-1.18.05-1.72.22-1.89.6-1.33.71-2.4 1.45-.64.44-1.01-.88-2.66-.92-1.11-.03-2.51.14-3.62.28-1.49.19-4.82.5-6.26.54-.42.01-1.05.14-1.45.24-.4.09-.8.31-1.12.48l-.12-.23c-.07-.12.02-.16-.19-.17-.93-.02-2.96.26-3.98.36-.98.1-2.16.11-3.04.53-1.21.58-1.59 1.26-2.06 1.35z"/><path d="M100.68 23.24c0-.08.08-.08.13-.11.07.3.26.33.41.59.09.15.07.2.17.35.09.14.13.14.23.31.13.24.15.45.28.7l.7 1.34c.23.48-.06.37.39 1.1l.51 1.06c.31.78.5 1.55.52 2.42.01.38.02 1.51-.14 1.78-.1.16-.13.14-.23.31l-.34.73c-.14.17-.16.08-.32.23-.15.14-.06.14-.27.28-.15.1-.18.11-.46.1.06-.45.68-1.07.76-1.56.07-.4.06-.56.21-.9.27-.62.23-1.26-.02-1.91-.3-.79-.11-.88-.3-1.28-.19-.41-.37-.87-.36-1.34-.53-.26-.22-.24-.53-.99l-.45-1.05c-.2-.32-.22-.5-.32-.78l-.24-.51c-.09-.18-.36-.59-.35-.86zm-8.97-6.47c.18.7.52 3.09.51 3.57-.01.33.02.04-.09.2l-.7 1.27c-.17.29-.13.09-.3.53-.07.17-.07.16-.14.28-.32.57-1.27 2.11-1.73 2.58-.26.27-2.08 1.2-2.62 1.31-.75.16-.38.19-.91.38-.52.18-.84.24-1.17-.01-.28-.21-.2-.08-.44-.19.02-.17.07-.2.08-.39.02-.55-.08-.81.13-.97.27-.21.19.04.37-.36l.21-.5c.07-.23.07-.32.08-.62h.07c-.01.29 0 .89.1 1.07.21-.06.09.02.22-.21.34-.6.36-.52.74-1.35.1-.22.2-.33.28-.56l.47-2c.12-.73.1-1.14.13-1.9.03-.78-.18-.87-.2-1.85-.02-.95-.58-.96-.32-1.56.14-.31.24-.46.51-.63.31-.2.77-.44 1.16-.51.72-.12.62.02.76.11.01.01.03.02.04.02l.9.36c.34.16.82.36 1.08.6.29.26.71.94.8 1.31zm-6.48 5.52c.02-.59-.06-.96.03-1.47.22-1.19-.03-.77.04-2.12.01-.18-.01-.45-.07-.66-.05-.19-.06-.47-.1-.68-.04-.25-.11-.38-.16-.58-.07-.28-.03-.42-.07-.7-.05-.35-.34-.76-.34-1.25 0-.31-.07-.38-.05-.67.05-.67.39-.6.73-.96.2-.22.23-.23.5-.35.17-.08.36-.22.59-.21 1.42.04.99.07 2.29.65.24.11.3.12.36.37-.1.12-.19.14-.33.22-.13-.23-.11-.27-.44-.35-.93-.22-.19-.17-1.44-.2l-1.12.25c-.81.36-.39 1.47-.26 2.12.08.4.07.83.05 1.19l.35 2.25c-.05 1.46-.04 2.9-.47 4.3-.33-.2-.12-.39-.09-1.12zm-3.54 6.89c.18-.11.03-.1.3-.02.11.03.23.08.35.11.29.06.54.17.76.2v-.11c.53.01.8.21 1.18.29.17.04.49.08.6.06l3.23-1.04c.31-.16.23-.04.4-.33.08-.14.17-.27.27-.39.01-.01.07-.08.09-.1l.25-.29c.16-.17.26-.15.39-.28.1-.1.18-.32.26-.45.1-.16.87-1.03 1.23-1.59.25-.39.54-.48.68-.71.25-.41.11-.36.52-.85.78-.94 1.02-1.49 1.57-2.26.22-.31 1.03-1.11.99-1.45-.02-.19-.02-.07-.12-.23-.06-.09.02.06-.07-.11-.01-.02-.03-.09-.05-.12.29.03.1-.01.23.08l.03.03.17.14c.16.1.31.16.47.27.33.24.3.4.73.72.38.28.32.55.61.76.3.22.39.55.8.66.01-.26-.02-.43.09-.61l1.21 1.8c.1.17.08.19.14.38.06.2.09.19.17.35.23.41.29 1.04.45 1.49.1.28.33 1.24.6 1.42.01-.23.09-.37.15-.56.23.14.29.29.34.6l.34 1.47c.05.21.06.64.08.86.05.53.08 1.02-.09 1.54-.14.41-.54.39-.76.69l-.2.34c-.19.4-.58.69-.95.99l-.65.56c-.59.44-.42.08-.91.84-.38.59-1 1.01-1.46 1.55-.13.15-.33.36-.48.48l-.5.46c-.25.23-.71.49-1.03.68-.28.17-.51.34-.82.47-.82.33-1.03.58-2.12.35-.55-.12-1.55.04-2.44-.14-.11-.02-.26-.04-.45-.04l-1.55-.25c-.01 0-.19-.06-.19-.06-.19-.04-.01-.01-.19-.02-.88-.04-.83-.21-1.45-.34-.57-.11-.69-.18-1.17-.41.01-.39.47-1.49-.99-.79-.84.4-1.09.54-1.24 1.35-.09.48.15.56.32.93.22.5.05.46.97.91.46.22.89.51 1.38.68l1.02.32c.65.23 2.8.83 3.31.86.44.03.85.05 1.27.11l2.63-.02c.54-.04.71.03 1.31.04-.41.89-6.06.19-6.52.1-.31-.06-.66-.21-1-.28-.44-.08-.67-.12-1.06-.23l-1.24-.3c-.65-.12-.58-.18-1.18.16-.34.19-.83.46-1.09.74-.11.13-.11.16-.24.3-.12.12-.2.18-.28.33-.16.3-.33.51-.3.87.11 1.1.83.71-.91 2.13-.31.26-.26.35-.69.53-.28.11-.81.59-1.02.8-.1.1-.22.19-.33.28l-1.54.85c-.76.35-1.27.86-2.35 1.27-.44.17-.89.4-1.36.5l-.94.3c-.19.06-.35.07-.51.11-.31.09-.41.23-.83.35-.84.22-1.27.3-2.08.41-.33.05-.25.07-.49.13-.25.06-.32 0-.54.08.02.25 0 .16.23.25l.39.18c.24.1.65.16.92.24.25.08.61.27.85.28.56.04.23-.04.9.15.6.18 1.21.31 2.02.32 1.02.02 1.88.14 2.86.12.26-.01.14 0 .46.02.47.03.74-.02 1.11-.03.39-.01 1.99.02 2.24-.04.53-.12.58-.06 1.01-.12l.95-.17c.62-.09 1.33-.15 1.87-.38.54-.24 1.15-.3 1.74-.44 1.06-.24 1.05-.38 1.64-.58l1.67-.56c.53-.21 1.08-.33 1.59-.63l.52-.28c.34-.13.72-.22 1.03-.39.3-.16.35-.26.72-.38.53-.18.96-.51 1.42-.78l1.35-.85c.53-.36.39-.15.94-.64l2.74-2.18c.47-.38 1.08-.85 1.42-1.31l.53-.67c.47-.51.74-.92 1.15-1.43.1-.13.14-.13.25-.29.26-.39.79-1.01.9-1.26.24-.55.14-.44.54-1.06.59-.93.63-1.21 1.07-2.14.14-.29.15-.46.24-.82l.79-2.4c.04-.25.08-.7.14-.91.08-.32.14-.49.21-.84.49-2.44.13-1.27.18-2.72.03-.89.34-2.06.09-2.91l-.26-1.75c.01-.6-.03-.36-.19-.77-.18-.45-.18-1.39-.3-1.72l-.32-.72c-.13-.39-.14-.81-.32-1.21-.08-.18-.12-.17-.15-.37-.08-.5-.32-1.03-.61-1.47-.28-.42-.39-.98-.66-1.43-.15-.24-.19-.46-.34-.7-.4-.61-.24-.63-.82-1.3-.1-.12-.17-.17-.25-.29l-.61-.98c-.29-.39-.73-.77-1.01-1.14l-.76-.86c-.23-.31-.57-.51-.82-.81-.95-1.11-1.38-1.18-1.74-1.53-.37-.36-.88-.59-1.27-.94l-.97-.69c-.13-.08-.19-.13-.34-.22-.14-.09-.22-.11-.35-.2-.53-.38-1.13-.73-1.77-1.02-.72-.33-.57-.46-1.45-.78-.38-.14-.41-.16-.7-.36-.32-.21-.84-.29-1.17-.52-.32-.22-.82-.34-1.23-.47-.34-.1-.55-.15-.92-.23-.89-.22-1.14-.5-2.67-.78-.31-.06-.54-.18-.89-.26-.53-.12-1.34-.18-2-.34-.23-.05-.81-.1-1.07-.11-.25 0-.34-.02-.55-.05-.42-.05-.17.01-.45.05-.25.03-.62-.14-.95-.16-.38-.02-.65.05-1.11.03-.39-.01-.77-.03-1.14 0-.32.03-.69.12-.98.08-.62-.07-1.35.11-2.07.15-.71.03-1.48.26-2.46.36-.49.05-.77.22-1.35.33-.29.05-.61.14-.91.21-.5.13-.25.14-.92.2-1.13.11-2.27.84-3.36 1.1-.39.09-1.35.4-1.64.59-.22.15-.36.34-.7.4.15.19.09.09.44.13l1.58.24c.19.02.39 0 .57.03.22.03.26.08.53.12 1.08.14 2.19.2 3.26.41 1.27.26 2.73.48 3.97.87.36.11.53.19.92.29.33.09.58.24.88.32.8.23.72.34 1.29.48.68.17.96.53 1.57.8.17.07.31.09.47.17.25.12.42.3.66.45.28.18.47.23.7.47.69.72 1.09.85 1.51 1.61l.59.83c.27.45.5 1.03.69 1.51.18.47.2 1.21.31 1.77.06.33.06.21.2.44.48.81-.47 1.13-1.2 1.31-.72.19-.95.26-1.46.69-.37.3-.29.5-.49.82.34.08.34.11.58.24.19.1.4.14.58.24.4.22.45.55.72.89l.62.97c.1.17.04.1.1.24.16.33-.02.04.21.21.19.15.22.33.21.59-.19-.12-.29-.12-.37-.3-.15-.34-.08-.3-.39-.61-.13-.13-.03-.05-.2-.16-.35-.22-1.74-1.68-2.15-1.36-.16.12-.05 1.64.35 2.28l.13.22c0 .01.01.03.02.04.02-.63.57-.74 1.01-.33.4.37 1 .57 1.3 1.02l1.07 1.31c.26.28.17.29.26.66.55.01.21-.08.59-.15.37.5.2.49.37.84.1.2.11.06.18.29l.34-.33c.02.31.17.3-.06.58-.43.5.21 1.47-1.09 1.29-.46-.06-1.19-.04-1.62-.16-.57-.17-.65-.33-1.39-.35-.19.61.45.51.59 1.05.18.67-.27.77.11 1.44.67.02.66-.34 1.37-.02-.05.16-.03.08-.06.25z" style="fill:#00f"/><path class="fil2" d="M37.49 14.94c1.01-.05 1.73-.45 2.04.36.27.7.21.8.19 1.48l-.41 1.36c-.03.06-.05.1-.08.15-.17.31-.26.28-.64.4-.15.05-.76.11-.96.11-.69-.02-.46-.14-.36-1.19l.22-2.68zm4.81.51c-.33-.28-.22-.82-.46-1.38-.1-.24-.1-.22-.24-.41-.19-.26-.35-.52-.58-.73-.62-.57-1.24-.52-2.1-.45-.53.05-.83 0-1.3.08-.46.08-1.48.11-2.48.29l-.17 2.9c-.07.4-.09 1.07-.13 1.4l-.61 7.56c-.01.35.15.53.51.47 1.82-.3 1.9.27 1.98-.92.03-.45.16-.88.18-1.34l.11-1.46c.39-.02.9-.09 1.31-.14.45.78 1.19 3.15 1.23 3.2.17.22.52.12.82.1 1.87-.14 1.84.06 1.19-1.51-.09-.22-.12-.4-.2-.6-.1-.23-.61-1.58-.58-1.74.02-.12.85-1.15 1.07-2.19.11-.52.26-.89.27-1.37.01-.67.51-1.42 1.25-1.65.15-.05.18-.21.16.4-.01.35-.24 1.24-.27 2.4-.04 1.14-.09 2.53.14 3.65.06.3.24.7.36.97.18.42.21.5.55.81.66.61.98.51 1.84.53.89.02 2.58-.26 3.47-.54.41-.13.37-.98.39-1.38.05-1.61.41-1.99-.55-1.66-.69.23-2.43.56-3.19.22-.12-.05-.18-.07-.27-.33-.14-.4-.1-1.48-.04-1.57.19-.28 2.08-.24 2.82-.38.42-.08.29-.18.4-1.08.06-.47.06-.97.05-1.34-.73-.03-2.24.13-2.94.21-.01-.45 0-.59.12-1.04.15-.56-.02-.66.6-.78l2.57-.26c.57-.05.78.04.88-.47.02-.11.22-2.35.15-2.49-.13-.29-1.31.04-2.53.03-.49 0-.77.12-1.31.14-1.03.04-1.45.13-2.25.55-.29.15-.56.33-.77.57l-.29.37c-.77.96-.81 1.29-1.12 2.32z"/><path class="fil3" d="M62.67 27.57c-.79-.02-3.48.18-3.93.35.01.22.08.29.2.44.12.14.8 1.03.79 1.16l-.41 2.57c-.13.44-.11.75-.18 1.22-.06.39-.18.77-.25 1.15-.1.48-.02.41-.2 1.2l-.64 3.63c-.01.34-.01.77.51 1 .16.07 1.65-.12 1.83-.15 1.14-.19 2.78-.21 3.85-.36.85-.12.6.06.83-.8.23-.85.07-1.27.3-2.09.08-.26.13-.34.15-.67.04-.65.17-.89.24-1.34l.76-4.39c.05-.17.07-.15.1-.31l.42-2.74c.05-.62-.59-.27-1.09-.24-.3.01-.53.03-.82.06-1.02.09-.62.2-.97 1.49-.16.61-.16 1.56-.29 2.04-.2.72-.39 2.32-.63 3.35-.1.42-.1.97-.2 1.37-.43 1.74.01 1.96-1.27 2.01-.7.03-.87.24-.72-.59.08-.45.23-.78.26-1.33l.26-1.32c.2-1.16 1.22-6.3 1.12-6.71z"/><path class="fil2" d="M71.51 14.78c.02-.75.2-1.41.26-2.13.12-1.31 2.26-1.37 2.48-.54.17.62-.08 2.92-.1 3.74-.01.53-.15.75-.17 1.17-.04.62.01 1.52-.51 1.9l-.19.12c-1.01.48-1.92.16-1.89-.57l.12-3.7zm.16 7.07c.96.02 2.72-.28 3.54-.82.23-.15.27-.2.44-.41.22-.27.52-.68.63-1.04.28-.93.35-1.85.45-2.82.05-.49.1-.94.11-1.51.01-.34.05-.47.09-.73.04-.31-.05-.48-.04-.84.01-.21.06-.15.06-.33l-.11-1.97c-.04-.59-.41-1.33-.9-1.72-.9-.71-2.09-.72-3.22-.52-.65.11-.51.05-1.08.23-.02 0-.03.01-.05.01-.98.3-1.23.55-1.78 1.21-.06.08-.04.04-.11.13-.53.7-.71 2.81-.74 3.71-.02.76-.19.92-.18 1.93.01.43-.06 1.53-.01 2.04.06.6.14 1.58.45 2.09.5.85 1.29 1.33 2.43 1.36zM63.29 12.56c.39-.21.15-.15.91-.21.67-.05 1.04-.22 1.36.12.06.07.17.22.2.27.32.65.12 2.49.1 3.36l-.38 2.88c-.18.55-.32.63-.92.78-.12.03-1.48.15-1.56.08-.15-.28.27-6.34.3-7.28zm-2.35-2.08-.29 4.98c-.01.34-.06.46-.09.73-.08.87-.03 2.01-.17 2.85-.09.55-.11 1.5-.13 2.14-.02.62-.2.93-.05 1.57.38.09 3.36-.3 4.1-.37l1.72-.17c.72-.14 1.1-.98 1.31-1.35.24-.41.34-.78.51-1.27l.41-3.09c.04-1.2.24-3.62-.2-4.74-.05-.14-.06-.2-.12-.34-.35-.77-1.11-1.51-2.2-1.54-.3-.01-.89.1-1.17.15-.39.06-.85.04-1.28.11-.44.07-.73.08-1.21.11-.17.01-.4.06-.6.08-.33.04-.31.05-.52.16z"/><path class="fil3" d="M36.72 42.39c.17 0 .41-.06.61-.08.23-.02.44-.01.67-.03l1.28-.16c.17-.27.93-2.49.94-2.89 0-.14-.28-.49-.38-.62l-.45-.62c-.21-.2-.26-.13-.23-.47 2.02.05 1.76-.29 2.17-1.55l.42-1.35c.07-.19.18-.45.24-.65.13-.47-.02-.54.25-.7.13.26.05 2.49.03 3.03-.05 1.46.43 1.25-1 1.4-.35.04-.99.06-1.24.2 0 .25 1.18 1.53 1.35 1.8.59.91.74.61.78 1.6.02.45-.17.5.51.51l1.19-.07c.4-.07.75-.09 1.1-.15.03-.25.07-.14.08-.56.01-.18-.04-.14-.04-.29 0-.19.04-.12.05-.33.01-.22-.04-.44-.03-.73.02-.48.07-1.1.05-1.57-.03-.51-.03-.96-.01-1.52l-.02-1.51c.03-1.04.04-2.02.04-3.03 0-.29-.06-.38-.05-.73l.05-1.57c.04-.91-.32-.49-2.34-.39-.28.01-.36.07-.66.09-1.95.1-1.17-.08-1.99 2.06l-.38.98c-.07.19-.07.32-.14.51-.09.23-.13.23-.2.51l-.66 1.99c-.07.19-.09.3-.15.5l-.7 1.96c-.26.68-.76 2.48-.99 3.02-.07.16-.1.33-.18.53-.09.25-.46.85 0 .86zM66.14 39.31c-.01.27.04.23.64.24l1.28-.16c.63-.07.87.18 1.2-.87.06-.19.08-.38.14-.57l.35-1.01c.04-.1.13-.42.13-.5-.01-.22-.13-.26-.26-.43-.25-.32-.39-.69-.66-1-.01-.02-.16-.17-.17-.18-.04-.08-.11.04 0-.06l1.13-.17c.25-.03.45-.05.67-.08.06-.23.03-.28.14-.51.09-.19.13-.29.17-.48.05-.26.06-.28.14-.5.07-.2.08-.36.15-.56.1-.29.51-1.62.63-1.75.13-.13.07.17.14-.15.1 1.62.02 2.47-.03 4.18-.48.08-1.72.24-2.17.23-.05.51.15.4.54.98l.47.6.03.03.05.07.03.03.03.03.1.14c.12.14.24.26.36.42l.34.43c.11.15.12.36.11.62-.02.44.03.37.11.67l2.34-.18c.74-.12.42-.42.45-1.38.05-1.53-.03-2.99.02-4.54l.03-.79-.02-1.34c-.02-.6.1-1.35.02-1.98-.07-.63.22-2.39-.21-2.4-.44-.01-3.84.28-4.03.37-.24.11-.47 1.11-.58 1.37l-3.6 10.69c-.06.18-.17.33-.17.48z"/><path class="fil2" d="M4.3 21.52c.01-.19.06-.22.08-.44.04-.47-.01-.93.09-1.42.05-.26.05-.63.05-.93.02-.85-.05-.65.83-.75.71-.08.61-.25.99.09.62.54.62 1.9.28 2.63-.28.6-.25 1.14-1.22 1.2-.38.03-.83.17-1.08.08-.06-.16-.04-.21-.03-.45zm-2.96 6.6c-.01.38.97.2 1.41.13 1.25-.19 1.02.28 1.2-1.33.02-.18-.02-.43.03-.67.07-.32.04-.81.06-1.16 0-.04.01-.13.01-.16.06-.32.15-.38.66-.38.26 0 .57-.05.72.01.23.1.19.28.25.51.09.38.92 2.48 1.15 2.78.19 0 1.12-.16 1.71-.18.35-.01.27 0 .52-.1 0-.39-.29-.96-.44-1.33l-.28-.92c-.05-.16-.11-.3-.17-.46-.22-.66-.52-.75-.08-1.28.3-.36.26-.39.45-.74.17-.31.68-2.17.69-2.43.05-1.62.15-1.36-.2-2.79-.28-1.14-1.04-2.05-2.52-2.05l-2.89.26c-1.68.16-1.43-.08-1.48 1.54-.03 1.13-.29 2.89-.33 4.03l-.11 1.34c-.07 2.01-.31 3.46-.37 5.37z"/><path class="fil3" d="M16.4 41.33c-.01-.29.04-.21.07-.45.15.03.19.06.39.07.08-.22.02-.16.33-.16-.21.24-.37.1-.47.53l1.29-.93c.01-.01.03-.02.04-.02l.11-.07c.01-.01.06-.04.07-.05l1.4-.98c1.15-.87.66-.18 1.04-2.11.04-.21.04-.45.09-.67l.43-2.43c.13-.64.53-1.8.12-2.31-.32-.39-.61-.28-1.16-.19-.78.12-2.04.17-2.84.25-.18.02-.42.09-.63.12-.26.03-.52.01-.79.03-.54.06-2.43.24-2.79.35.02.39 1.01 1.39.96 1.79-.03.28-.1.54-.14.86-.02.25-.1.55-.15.78-.07.3-.05.5-.1.83-.08.49-.29 1.11-.3 1.63l-1.13 6.47c.6.14.73.05 1.25-.02 1.53-.2 1.35.27 1.61-1.42l.47-2.69c.09-.33-.05-.9-.17-1.21-.4-.95.56-.59.66-1.51.03-.27.1-.41.15-.67.09-.41.1-.93.19-1.39l.25-1.33c.09-.13.4-.12.67-.14.27-.02.58-.05.76-.07.38-.04.47-.01.41.32-.03.19-.1.45-.13.64-.08.46-.18.85-.24 1.28-.06.4-.11.94-.38 1.15l-.75.53c-1.74 1.31-1.11.41-.72 2.92.05.3.06.22.13.28zM22.99 33.14l-.26 1.32c-.08.47-.21.86-.27 1.31l-.66 4.07c-.14.96-.4 1.93-.48 2.68-.06.51-.29 1.12-.04 1.29.2.09.35-.02.66-.04.84-.05 2.42-.14 3.19-.27.64-.11 1.62-.02 2.31-.32.04-1.18.37-2.12.42-2.79.02-.37.3-.63-.11-.73l-1.88.13c-.85.12-.47.26-.77 1.26-.2.03-.26.04-.52.06-.34.02-.33.08-.32-.36.01-.17.26-1.21.32-1.84.04-.42.17-.4.64-.46.6-.07.74-.32 1.33-.93l1.43-1.41c.15-.16.21-.16.23-.36-.27-.08-.5-.06-.78-.01-.19.03-.2.05-.36.08-.42.07-.91.05-1.28.1-.36.05-.67.23-.66-.13.01-.36.07-.79.17-1.12.26-.84-.14-1.24.89-1.21.51.01-.18 1.06.23 1.07.47.01 1.12-.03 1.58-.12.85-.15 1.01.08 1.05-.66.02-.33.06-.4.13-.69.06-.26.02-.5.06-.75.03-.21.11-.43.14-.68.17-1.11.61-1.02-1.3-.83-.43.04-.91.11-1.24.14-.45.04-.84.06-1.27.11-.6.07-1.41.08-1.9.18-.65.14-1.67.01-1.67.33 0 .01.4.66.47.77.11.18.54.72.53.82z"/><path class="fil2" d="M18.24 18.62c-.01.18.02.15.1.28.28-.13.37-.8.84-.93.1.2.05.35.04.62l.24 1.22c.06.2.14.26.2.55.06.25.09.31.17.52.53 1.38 3.11.75 3.47.89.27.1.68 1.11-.38 1.5-.42.16-.97.17-1.43.2l-1.39.17c-1.35.06-1.1-.24-1.19 2.66-.02.52.44.36.92.31l2.76-.26c.27-.05.33-.08.62-.12.86-.13 1.8-.77 2.04-1.55l.29-1.12c.14-.99.41-1.54.17-2.61-.16-.74-.17-1.27-.96-1.79-.92-.61-2.01-.17-2.66-.18-.67-.02-1.08-1.35-.12-1.78.55-.25.68-.13 1.35-.21l1.35-.15c.7-.07.86-.05 1.28-.28.02-.5.03-1.01.05-1.51l-.01-1.03c0-.1-.01-.15-.01-.32-.42-.07-.74.04-1.44.08l-2.96.31c-.57.08-1.37.32-1.71.69l-.69.87c-.09.13-.19.37-.27.51-.09.17-.13.38-.22.55-.14.28-.45 1.66-.45 1.89zM13.68 22.26c.03-.46.56-1.79.61-2.56l.33-1.49c.26.48.26 1.19.4 1.87.08.37.03.7.09 1.07.07.42.16.44.14.98-.62.03-.51.16-1.57.13zm-3.7 5.29c.47.01 2.1-.15 2.49-.22.24-.78.37-2.56.84-2.7.08-.02.6-.06.69-.06.27-.02.42-.03.7-.06l.59-.05c.23.03.2.11.28.51.06.3.13 1.22.25 1.76.06.24.12.25.46.22.24-.03.55-.03.72-.05 1.57-.16 1.21-.12 1.12-1.21-.02-.27-.09-.59-.14-.86l-.48-3.54c-.02-.39-.07-.52-.13-.87l-.55-4.46c-.21-1.03.12-1.42-.73-1.37l-2.04.28c-.82.31-1.11 1.19-1.38 1.86l-.25.81c-.1.32-.13.52-.24.82-.1.27-.1.57-.19.86l-2.04 7.55c-.11.39-.27.77.04.78zM55 18.35c-.05-.22-.05-.23.04-.48l.49-2.04c.04-.28.05-.23.12-.47.07-.23.18-.81.19-1.03.26.13.21.02.27.33.08.44-.01.81.13 1.48l.26 2.08c-.17 0-.55.03-.78.04-.31.02-.29.1-.73.09zm-3.88 4.95c-.02.55.1.32 1.68.2 1.29-.1.88-.3 1.13-1.05.27-.81.12-.48.28-1.13.02-.07.16-.5.2-.57.18-.07 2-.23 2.36-.22.18.35.21 2.47.51 2.48.38.01 1.93-.14 2.16-.23.06-.16-.11-1.38-.14-1.68l-.14-.86c-.07-.57.04-.16-.12-.89l-.67-5.29c-.04-.61-.09-.4-.11-.89-.02-.64-.17-1.16-.25-1.76-.04-.34.01-.66-.33-.72-.12-.02-.92.04-1.07.06-1.48.19-1.36.01-1.98.73-.58.67-.97 2.2-1.21 3.06l-2.04 7.95c-.06.2-.23.61-.24.82zM95.74 31.73c-.05-.11-.02-.13-.06-.24-.06-.13-.47-.6-.6-.6-.25-.01-.73.23-.89.35-.8.57-.32 1.31-.36 1.98l-.02.21c-.13-.28.06-1.14-1.2-.86-1.01.23-1.05 1.06-1.15 1.2-.23-.13-.01-.09-.29-.36-.38-.37-.36-.27-1.52-.29-.72-.02-1.07.1-1.29.55-.01.02-.03.07-.04.08-.01.01-.01.03-.02.04-.01.01-.02.03-.02.04 0 .01-.01.03-.02.04.01-.37-.05-.5-.21-.65-.59-.57-1.49-.39-1.68.02-.06.13-.09.29-.11.41-.03.19-.01.28-.15.44.01-.3.01-.68-.05-.94-.03-.13-.1-.21-.22-.31-.58-.45-1.33-.22-1.47.18-.08.22-.1.53-.16.84-.13.71-.38 1.97.16 2.68l.14.16c.73.76 1.46.13 1.53-.37.49.13.61 1.42 1.96.85.12-.05.34-.22.43-.3.21-.18.21-.15.23-.49.01-.24.01-.49.02-.73.33.46-.29 1.35.95 1.96.27.13.7.1 1.08.11.27.01.74-.31.91-.55.15-.22 0-.17.22-.26.06.21.05.16.3.25.16.06.34.13.49.15.59.08 1.03-.37 1.23-.77.69-1.38.25-.85.28-1.99.01-.26-.01-.16.14-.22.01.34.23.81.49.95.31.02.65-.17.81-.34.37-.4.57-1.28.55-1.67-.02-.25-.21-.67.11-.8.16.66.78.64 1.19-.13.36-.67.2-1.31.09-2.15-.1-.78-1.1-.77-1.4-.37-.24.32-.48.83-.42 1.24.05.36.18.19.09.66z"/><path class="fil2" d="M93.93 23.8c-.02.51-.01.72.33 1.15l.03.03.16.26c.11.17.14.18.15.42h-.13c-.02-.32-.11-.32-.2-.44l-.03-.03-1.17-.69c-.14 0-.38.06-.48.09-.25.06-.21.03-.34.21-.29.39-.4 1.57-.21 2.04-.51-.06-.3-.4-1.12-.42-.4-.01-.38.5-.51.81-.16.38-.1.73-.2 1.08-.39-.03-.98-.09-1.37.48-.22.32-.32 1.32-.33 1.78l.24 1.33c.27.99.65.88 1.45.9.83.02 1.05-.88 1.14-1.04.35.09.19.62 1.16.01.34-.21.86-.52 1.04-.9.09-.19.01-.62.02-1.02.01-.22-.03-.03.09-.15.18.4-.02.42.4 1 1.09-.03 1.52-.24 1.73-1.48.03-.16.03-.33.02-.49-.01-.28-.02-.12.02-.39l.24.19c.68.31 1.32-.01 1.35-.87l-.42-2.17c-.17-.58-1.25-2.8-1.84-2.82-.83-.02-1.19.44-1.21 1.15z"/><path class="fil3" d="M50.95 28.68c-.01.29.93 1.41.93 1.65l-.46 2.82c-.09.43-.12.92-.19 1.33l-.73 3.95c-.09.43-.1.88-.21 1.3-.45 1.81-.23 1.32 1.36 1.24.71-.04.57-.14 1.64-.12.31.01.54-.05.79-.09.67-.11 1.74-.04 2.29-.34.02-.7.47-2.37.5-3.41.01-.36-.47-.05-1.37-.03-.39.01-.85.06-1.18.14-.32 1.04.06 1.23-.89 1.21-.39-.01-.21-.39-.14-.65.11-.48.08-.86.3-1.68.06-.24.07-.68.12-.93.18-.86.57-2.74.59-3.44.01-.39.09-.51.17-.83l.18-1.28c.3-1.42.46-1.32-.79-1.18-.32.04-.69.03-.99.08l-1.48.16c-.18.01-.45-.04-.45.11zM29.86 30.68c.02.28 0 .07.07.22.01.01.01.03.02.04.23.45.92 1.1.9 1.56l-.48 2.57c-.02.38-.11.92-.21 1.31-.11.44-.14.84-.22 1.3l-.7 3.86c-.1.94-.58 1.63.18 1.56.24-.02.47-.05.68-.08.4-.06.96-.07 1.38-.13.6-.09 2.02-.17 2.78-.24 1.59-.15.88-.22 1.25-1.58.17-.65.25-1.48.33-1.78.1-.36.01-.38-.31-.39-.19-.01-2.13.19-2.26.22-.13.23-.23.9-.27 1.17-.89-.02-1.1.41-.72-1.06l.45-2.48c.04-.45.22-.79.24-1.23.04-.95.38-1.59.41-2.51.02-.72.39-1.84.41-2.57.01-.17-.17-.12-.65-.13-.45-.01-1.26.14-1.65.17-.34.03-.57-.01-.85.04-.27.05-.56.08-.77.16z"/><path class="fil2" d="M26.1 17.63c-.01.44-.04.3.11.51.53-.29.14-1.25 1.85-1.61.23-.05.79-.2 1.02-.17.35.05.12.16.1.84-.01.32 0 .76-.04 1.06-.16 1.02-.18 1.06-.21 2.19-.03.87-.08 2.42-.26 3.33l-.15 1.76c-.01.41 1.56.1 2.16.06.85-.05.27-.54.54-1.88.1-.48.01-1.04.1-1.52.08-.43.15-.94.16-1.41.01-.54.1-1 .11-1.51.03-1.08.13-2.04.17-3.08.42-.22.36-.15.99-.14.36.01.8-.05 1.05-.14.19-.61.2-2.02.22-2.74.01-.46-1.38-.12-1.73-.07-.22.03-.77.03-1.44.13-.67.1-1.75-.03-2.65.48-.44.25-.88.71-1.14 1.1l-.95 2.83z"/><path class="fil3" d="M86 26.04c.52.36 1.35-.05 1.84-.32 1.04-.59 1.05-.51 1.68-1.42l1.22-1.84c.21-.51 1.1-1.77 1.07-2.44-.04-.72-.02-.87-.18-1.54-.15-.63-.07-1.48-.6-2.24-.52-.76-2.18-1.85-3.42-1.23-1.18.58-.52 1.03-.39 1.38.42 1.07.35 3.13.06 4.1-.06.21-.23.73-.18.96 0 .02 1.06 1.59.59 2.69-.39.91-1.42.27-1.74.26-.21.32-.36.39-.36.89 0 .38.16.58.42.76z"/><path class="fil0" d="M63.29 12.56c-.03.94-.45 7-.3 7.28.08.07 1.45-.05 1.56-.08.6-.15.75-.23.92-.78l.38-2.88c.03-.87.22-2.7-.1-3.36a2.07 2.07 0 0 0-.2-.27c-.31-.34-.69-.17-1.36-.12-.76.06-.52 0-.91.21zM71.51 14.78l-.12 3.7c-.02.73.88 1.05 1.89.57l.19-.12c.52-.38.47-1.28.51-1.9.02-.43.16-.65.17-1.17.02-.82.27-3.12.1-3.74-.22-.83-2.36-.77-2.48.54-.07.71-.24 1.37-.26 2.13zM85.95 24.39c.32.01 1.35.65 1.74-.26.48-1.1-.59-2.68-.59-2.69-.05-.23.12-.75.18-.96.29-.97.36-3.03-.06-4.1-.14-.35-.79-.8.39-1.38 1.24-.61 2.9.48 3.42 1.23.53.77.45 1.62.6 2.24.16.67.14.82.18 1.54.04.67-.85 1.93-1.07 2.44l-1.22 1.84c-.63.9-.64.83-1.68 1.42-.49.28-1.32.69-1.84.32-.26-.18-.42-.38-.42-.76 0-.49.15-.57.36-.89zm1.03-5.47c-.03.76-.01 1.17-.13 1.9l-.47 2c-.08.22-.18.34-.28.56-.38.82-.4.74-.74 1.35-.13.22-.01.15-.22.21-.09-.18-.11-.77-.1-1.07h-.07c-.01.29-.01.39-.08.62l-.21.5c-.18.39-.1.15-.37.36-.22.17-.12.42-.13.97-.01.19-.06.22-.08.39.24.11.17-.02.44.19.33.26.66.19 1.17.01.53-.19.17-.22.91-.38.53-.12 2.36-1.05 2.62-1.31.46-.47 1.4-2.01 1.73-2.58.06-.11.07-.11.14-.28.18-.44.14-.24.3-.53l.7-1.27c.11-.16.08.13.09-.2.02-.48-.33-2.86-.51-3.57-.09-.37-.52-1.05-.8-1.31-.26-.23-.74-.44-1.08-.6l-.9-.36a.076.076 0 0 0-.04-.02c-.14-.1-.04-.23-.76-.11-.39.07-.85.31-1.16.51-.28.17-.38.32-.51.63-.26.6.3.61.32 1.56.02.98.23 1.07.2 1.85z"/><path class="fil3" d="M76.27 34.97c-.03.95-.22.83 1.14.75 1.35-.08.85-.32 1.17-1.47.11-.39.12-.75.17-1.18.02-.17.1-.38.13-.52l.67-4c.01-.4-1.37-.07-1.52-.05-.65.09-.6 0-.66.55l-.98 5.45c-.03.12-.12.34-.12.47z"/><path class="fil2" d="M83.11 29.48c-.22-.03-.47-.14-.76-.2-.12-.03-.24-.08-.35-.11-.28-.08-.13-.09-.3.02-.1.34.31 1.34.59 1.67.39.45.9.94 1.6.99.89.06 1.1.22 1.12-.48h.06c-.02.74 1.25 1.25 1.97 1.35.31.04.73.06.98-.11.27-.19.35-.94.36-1.21l-.05-1.41c-.04-.44-.13-.49-.31-.78-.69-.02-.49.07-.96.17-.27.06-.22.01-.46.1-1.11.43-1.08.61-1.7 1.05-.24-.08-.02 0-.19-.12l-1.1-.69c-.23-.12-.28-.17-.51-.24z"/><path class="fil0" d="M4.3 21.52c-.01.24-.03.29.03.45.25.09.7-.05 1.08-.08.96-.07.93-.6 1.22-1.2.34-.73.34-2.09-.28-2.63-.38-.33-.28-.17-.99-.09-.88.1-.81-.1-.83.75-.01.3 0 .67-.05.93-.1.5-.05.95-.09 1.42-.02.22-.07.26-.08.44zM37.49 14.94l-.22 2.68c-.11 1.04-.33 1.17.36 1.19.19 0 .81-.06.96-.11.39-.11.47-.08.64-.4.03-.05.06-.1.08-.15l.41-1.36c.02-.69.08-.79-.19-1.48-.31-.81-1.03-.41-2.04-.36z"/><path class="fil3" d="M79.04 21.98c.14-.05.06-.04.26-.05l.38.35c-.21.18-.35.16-.56-.14l-.08-.1c-.02.73.03 3.45.38 3.89.19.24 1.34.48 1.85.57.43.08.6.2.92.03.19-.1.51-.45.57-.65-.35.22-.4.41-.6.51-.17.08-.12.05-.27-.02.1-.12.15-.12.23-.2.04-.04.09-.15.14-.22.1-.15.2-.28.32-.41-.42.13-.81.34-1.31-.31-.24-.31-.35-.87-.41-1.35-.13-1 .26-.77-1.05-1.71-.24-.17-.32-.2-.61-.32l-.17.14z"/><path class="fil0" d="M85.23 22.3c-.02.74-.24.92.09 1.12.43-1.4.42-2.85.47-4.3l-.35-2.25c.01-.36.03-.79-.05-1.19-.13-.65-.55-1.75.26-2.12l1.12-.25c1.24.03.51-.03 1.44.2.33.08.3.12.44.35.14-.08.23-.1.33-.22-.06-.24-.11-.26-.36-.37-1.29-.58-.87-.62-2.29-.65-.23-.01-.42.13-.59.21-.27.13-.3.14-.5.35-.33.36-.68.29-.73.96-.02.29.05.36.05.67-.01.49.28.9.34 1.25.04.29 0 .42.07.7.05.2.12.33.16.58.04.22.04.49.1.68.06.21.08.48.07.66-.08 1.35.18.93-.04 2.12-.09.51-.01.88-.03 1.47zM101.22 23.73c-.16-.26-.34-.3-.41-.59-.05.03-.13.03-.13.11-.01.27.26.68.35.86l.24.51c.1.28.12.45.32.78l.45 1.05c.3.75-.01.73.53.99-.02.48.17.94.36 1.34.19.41 0 .49.3 1.28.25.65.29 1.29.02 1.91-.15.35-.14.5-.21.9-.08.48-.7 1.11-.76 1.56.28.01.3 0 .46-.1.21-.14.12-.14.27-.28.16-.15.18-.06.32-.23l.34-.73c.1-.18.13-.15.23-.31.16-.26.15-1.4.14-1.78-.02-.87-.2-1.63-.52-2.42l-.51-1.06c-.45-.73-.16-.62-.39-1.1l-.7-1.34c-.13-.25-.14-.46-.28-.7-.09-.16-.13-.17-.23-.31-.1-.15-.08-.2-.17-.35z"/><path class="fil3" d="M78 36.51c.05.15.02.24-.03.41-.28-.03-.1.09-.38-.29.18-.03.25-.05.41-.12zm0 0h-1.04c-1.07.09-.98.02-1.11 1.19-.04.33-.24.6-.09.9.33.13.63-.03 1.05-.03.39 0 .84.02.99-.2.04-.05.36-1.4.31-1.68-.05-.26.09-.1-.11-.18z"/><path class="fil0" d="M55 18.35c.44.01.42-.06.73-.09.23-.02.6-.05.78-.04l-.26-2.08c-.14-.67-.05-1.04-.13-1.48-.05-.31-.01-.2-.27-.33-.01.23-.12.81-.19 1.03-.07.24-.08.18-.12.47l-.49 2.04c-.1.25-.09.26-.04.48zM13.68 22.26c1.06.03.95-.1 1.57-.13.02-.54-.06-.55-.14-.98-.06-.36-.02-.7-.09-1.07-.14-.69-.14-1.39-.4-1.87l-.33 1.49c-.05.77-.58 2.1-.61 2.56z"/><path class="fil2" d="m82.77 25.87.18-.14-.06-.23-.3.03c-.12.13-.22.26-.32.41-.05.07-.1.17-.14.22-.07.08-.12.07-.23.2.14.06.09.1.27.02.2-.1.25-.29.6-.51zM16.4 41.33l.16.07.16-.08c.1-.43.26-.29.47-.53-.31 0-.25-.06-.33.16-.2-.01-.24-.03-.39-.07-.03.23-.08.16-.07.45zM79.04 21.98v.06l.08.1c.21.3.36.32.56.14l-.38-.35c-.2.01-.12 0-.26.05zM78 36.51c-.16.07-.23.08-.41.12.28.38.1.26.38.29.05-.16.08-.26.03-.41z"/></g></g></svg>