<svg xmlns="http://www.w3.org/2000/svg" xml:space="preserve" width="225.303" height="126.841" style="shape-rendering:geometricPrecision;text-rendering:geometricPrecision;image-rendering:optimizeQuality;fill-rule:evenodd;clip-rule:evenodd" viewBox="0 0 134.42 75.67"><defs><style>.fil6{fill:#3e881f}.fil5{fill:#447c27}.fil1{fill:#61f211}.fil7{fill:#6be734}.fil3{fill:#d7d7d7}.fil2{fill:#f8f8f8}</style></defs><g id="Camada_x0020_1"><g id="_2076109170032"><path d="M66.28 2.43c0-.66-.13-.92-.13-1.72C51.91.71 37.75.44 23.6.44c-.08.97-.58 1.85-.66 2.78-.6-.16-1.52-1.32-2.1-1.74-2.51-1.86-6.81-1.77-9.45-.8-6.58 2.44-7.42 8.59-9.02 14.44-.91 3.3-2.95 9.88-1.7 13.16 1.06 2.77 2.74 2.48 4.38 3.57v1.06c-.88 0-1.44.13-2.12.13-.09 1.1-.62 2.09-.87 3.24-.23 1.04-1.6 6.16-1.44 6.87.1.44 1.31.23 1.78.23h2.12C4.44 47.18.01 58.91.01 62.87h7.95c-.06 2.52-2.08 5.78-2 8.35.06 1.85 2.12 2.07 2.98.98.29-.36 1.41-3.09 1.53-3.63h.26c.06.71.75 2.82.94 3.7.87 4.06 3.28 4.39 4.35 1.45.21-.58.72-3.63.93-3.84.29-.28.48.09 1.98-.41.65-.22 1.33-.01 2.1-.28l2.91-1.86c.4-.33.24-.26.49-.69.48-.84.46-.19.96-1.45.93-2.32 1.57-2.32 3.64-2.32-.1 1.24-.58 2.32-.88 3.5-.19.76-.8 2.87-.71 3.64.21 1.68 2.2 2.52 3.44.02.12-.24.23-.43.34-.72.14-.36.18-.58.32-.87 2.49 0 4.89-.17 7.03-1.19.11 1.28.46 2.39 1.74 2.51 1.52.14 1.72-1.2 2.5-1.72.09.41.13.35.28.65.33.65.53 1.33 1.36 1.55 1.21.32 2.27-.38 3.04-.69 1.13-.46 2.29-.05 3.22.26 1.07.36 1.69 1.21 2.86.92 1.13-.28 2.58-.6 3.53-1.25 2.29-1.55 1.44-.7 3.16-3.73 1-1.77.42-1.24.04-2.88 1 0 2.11-.13 3.05.13-.02.03-.03.04-.04.1l-.09.31-.07.46c-.04.27-.08.64-.13.93-.32 1.93-1.01 3.56-1.01 5.62-.65 0-.98-.14-1.43-.1-1.3.1-2.96 1.04-1.97 2.58.24.38.54.66.9.82 1.3.59 3.21.17 4.42-.19 2.12-.62 4.07-1.51 5.67-2.81.36-.29.59-.49.94-.79.63-.53 1.29-1.06 1.95-1.5.4.6.67 1.36 1.36 1.69 1 .48 1.86-.08 2.75-.1.81 1.4-.51 3.96 5.02 2.37 3.22-.93 6.38-1.92 9.29-3.43 1.68-.87 1.25.56 3.03.39.71-.07.94-.44 1.7-.09 1.4.65 1.67.87 2.73-.26.38-.41.72-.8 1.16-1.09 0 1.56.1 3.7 2.24 3.44.85-.1 1.26-.67 1.91-.89 2.27-.76 2.3.77 5.13-3.48 1.85-2.77 1.44-1.79.93-3.98 4.01-.93 6.63 1.58 9.43-1.97.42-.54.83-1.14 1.35-1.57.19-.16.22-.16.36-.3 2.17-2.17 1.96-2.58 2.73-5.63.82-3.27 1.52-6.35 2.33-9.6.29-1.16 1.05-3.58.89-5.05-.18-1.6-1.67-2.62-1.71-4.26 1.22-.33 1.47-2.46 1.75-3.55.36-1.41.71-2.85 1.09-4.35.5-2.02 6.34-24.69 6.44-25.9l-9.68-.14c-1.32.01-1.68.36-2.51.8-.5-.95-.48-.81-1.85-.8h-13.39c-1.9 0-3.36-.13-5.3-.13H80.06c-.69 1.45-.83 1.41-1.46.27L75.29.69c-1.57 0-5.85-.19-7.09.07-.75.16-1.28.49-1.53 1.11-.3.73.3.31-.39.54z" style="fill:#050c04"/><path class="fil1" d="m66.53 16.82.47.11-.15.86c-.93 4.39-3.46 12.12-3.78 15.27l6.18-.05c.14-.93.55-2.22.83-3.31l2.57-10.29c.69-2.66 2.24-7.78 2.64-10.22.24-1.45.74-2.18.95-3.5.1-.95-.98-.37-1.13-.3l.53-1.15c.1.31.42.55.83.59.28-.52.65-1.97.64-2.63l-8.9.06c-.21.33-.18-.08-.6.98L66.3 6.76c-.11.62.14 1.14.45 1.46l-1.1.31c-.3.36-1.03 2.54-1.27 3.14l-1.11 2.73c-.16.24-.18.24-.32.39.06-3.89.35-2.93.84-6.22.29-1.93.71-4.43.63-6.39-2.11-.06-7.3-.46-8.92.22-.84.76-4.45 17.57-5.73 20.77-.27.67-.21 1.37-.41 2.11-.71 2.63-1.64 5.06-1.96 7.91h6.03c.92-2.08.24-.2.63-2.27l1.76-7.01c.93-2.41 1.94-7.76 2.59-9.15.03.25.14.9.15 1.1.02.58-.11.41-.29.97-.19.57-.25 1.64-.35 2.3-.23 1.53-.46 3.09-.68 4.63-.45 3.12-.83 6.07-1.14 9.25l4.24.04c.51-1.28 1.11-2.48 1.65-3.88 1.57-4.06 3.27-8.19 4.53-12.34z"/><path class="fil2" d="M120.24 31.89c.26-1.9 2.48-10.82 3.17-12.01l3.52-.04c-.31 2.04-2.46 10.95-3.26 12.01l-3.44.04zm-5.55-11.67c2.11-.52 3.13-.22 5.24-.16-.03.14-.06.39-.1.52-.1.32.05 0-.17.38-1.4 2.46-2.1 5.12-3.29 8.11-.2.51-.39.96-.61 1.52-.1.25-.2.56-.29.77-.29.68-.08.53-2.3.53l1.5-11.66zm-9.9 11.71c-.28-1.1.92-4.94 1.24-6.05l1.38-5.11c.24-.86.02-.59 3.79-.58-.76 3.78-1.78 8.57-3.16 11.79l-3.25-.05zm-1.59.27c.81.16 2.12.04 2.99.03 1.7-.02 1.41.38 2.43.72.4-.63.69-.92 1.05-1.85.5-1.28 1.44-5.37 1.89-6.99.45-1.61 2.04-8.47 2.58-9.38.01.8-.18 1.38-.28 2.14-.13 1.03.17 1.59-.13 2.37-.46 1.2-1.86 11.73-1.82 12.97l4.54.04c.37-1.17 3.67-10.17 4.3-11.3.47-.84.43-1.77.8-2.38.8-1.3 1.15-3.13 1.83-4.49.05.37-.22 2.09-.34 2.43-.92 2.67-1.1 3.78-1.85 6.62-.49 1.85-2.27 7.62-2.28 9.09 1.1.03 2.07.03 3.17.01 1.58-.03 1.64.3 2.81.56.93-4.11 2.82-10.9 3.98-15.23.8-3 3.62-13.11 3.87-15.4l-9.1.02c-.39.81-.89 2.42-1.23 3.35-.34.9-3.33 9.3-3.81 9.81-.12-1.35.58-5.06.79-6.61.29-2.09.68-4.4.76-6.57h-9.04c-.48 2.46-1.34 5.08-2.08 7.35-.43 1.31-.44 2.62-.84 3.93-.37 1.21-.71 2.46-1.04 3.73-.16.63-.18 1.48-.39 1.97-1.22 2.79-2.43 9.73-3.56 13.06z"/><path class="fil1" d="M20.68 25.89c.5-.33-.01-.25.66-.27-.22-.17.05-.19-.14.17-.18.34-.05.19-.26.36.04.03.27.36.05.01l-.31-.28zm.13-3.31c.39-.23.25-.21.53-.13-.1.29-.01.01-.09.34l-.04.19c-.2-.14.23-.02-.4-.13v-.27zM40.83 2.06l-6.76-.08c-.02.03-.05.04-.05.09-.01.05-.04.07-.05.1-.01.03-.07.16-.09.2l-.87 3.24c-.37 1.37-2.44 8.69-2.5 9.42-.11 1.21-.25.88-.54 1.85-.44 1.48-2.61 10.6-3.18 11.13-.4.37-3.46.69-4.16.07.54-.14 1.08-.29 1.67-.43.81-.19.85-.39 1.14-1.13.44-1.1 4.03-15 4.62-17.25.53-2.02 1.49-5.16 1.64-7.26l-6.91-.05c-.61 2.22-.22.52-.45 2.44-.07.6-.22.25-.47.93-.14.38-.2.76-.3 1.16-1.15 4.59-2.54 9.2-3.62 13.75-.35 1.48-.37 2.58-.72 3.52-.58 1.53-1.24 4.77-.85 6.33.11.43.81 1.34 1.09 1.67 1.97 2.35 6.17 2.37 8.99 1.34.7-.25 1.05-.25 1.49-.6.17-.14.23-.23.43-.38.94-.75.79-.47 1.5-1.41.39-.52.71-.36 1.41-1.51 1.45-2.4 4.45-14.23 5.34-17.73.2-.8.28-1.61.47-2.45.3-1.34 1.83-4.7 1.75-6.97z"/><path class="fil1" d="M1.68 25.47c.31.28-.38.24.4.24.28-.3.49-.24.62-.39 0 .58-.19.82-.44 1.16-.13-.28.11.22-.07-.22-.28-.69.34.52-.08-.19-.08-.14-.31-.39-.5-.36.05 1.56.65 2.65 1.5 3.44l2.99 1.41c.14 0 .5-.05.67-.06l-.28 2.42c1.06.53 1.28.71 2.8.79 1.28.06 2.03.14 3.34.03 1.32-.11 2.11.7 2.74-.3.32-.52.66-2.36.68-3.07-.7.1-1.41.07-2.11.08-.98.02-1.28.04-1.64-.68-.07-.11-.04-.01-.14-.3-.03-.07-.02-.16-.03-.26-.19.37-.14.31-.46.52-.37-.27-.61-.45-.78-.92.42-.23.69-.38 1.41-.36l-.06.59c.66-.13 1.25-.45 1.87-.72 1.1-.47 1.14-.29 1.64-.88.85-1 1.36-1.77 1.86-3.18l1.19-3.84c.78-2.77 2.76-10.01 3.04-12.21 1.24-9.55-11.13-7-13.32-4.03-.09.12-.1.17-.23.29-.34.32-.48.14-1.04.96-1.89 2.77-2.97 8.1-3.87 11.51-.71 2.7-1.41 5.55-1.7 8.53zm9.85-4.07c-.05.98-.01.31.54 1.17-.11.44-.12.39-.4.65-.66-.19.1-.15-.66-.23-.47.95-.55 1.97-1.2 2.9-.27.37-.12.25-.62.44-.57.22-.35-.08-.44.31-.41-.24-.63-.5-1.02-.76.22-.31.61-.9.86-1.18.61-3.14 1.33-5.81 2.16-8.75.67-2.4 1.87-6.17 1.97-8.77-.35-.14-.59-.31-1.03-.42-.47-.12-.76-.05-1.09-.22 1.66-.58 2.74-.22 4.37-.01-.01 2.63-1.8 8.26-2.62 11.16-.33 1.18-.55 2.55-.83 3.71z" style="stroke:#000;stroke-width:.17;stroke-miterlimit:22.9256"/><path class="fil1" d="M33.97 33.27c3.35 0 6.69 0 10.03.01.68 0 1.79.24 2.2-.28.21-.26.52-1.55.59-1.95.42-2.48.74-2.08.96-4.03-1.27-.24-3.55-.02-4.97 0l1.52-6.64 4.48-.21c.21-1 1.6-5.3 1.5-5.86l-4.04-.12c0-1.91.81-2.8.69-4.75-1.05-.71-1.67-.61-2.16-.96 1.37-.23 1.07-.27 2.29-.23 1.59 0 3.71.5 5.09-.09.44-.92 1.59-4.88 1.51-6.11h-6.34l-4.77-.01c-.51.08-.43.27-.63.93-2.06 6.75-5.01 17.98-6.75 25.07-.27 1.1-1.22 4.28-1.19 5.22z"/><path class="fil2" d="m68.73 48.2-.03.58c.49.12 3.52-.07 4.34-.07 2.83.01 11.99.51 13.64-.15l3.02-12.11c.08-.82-.51-1.77-1.06-1.91-.69-.18-5.02-.02-6.07-.02-.5 1.34-1.45 5.06-1.58 6.61-.07.84-.21.78-.48 1.51-.54 1.48-.61 3.68-1.34 4.84-.76-8.14-.91-5.11.21-12.97-1.19-.05-6.89-.18-7.56.1-.21.42-.24 1.05-.41 1.59-.5 1.63-.6 1.43-.77 3.46-.07.91-.25.52-.52 1.6-.15.58-.26.97-.47 1.51-.27.7-.17 1.11-.32 1.8-.25 1.13-.89 2.35-.61 3.61zM78.99 31.83c-.18-1.66 1.36-5.89 1.79-7.6.19-.76.58-3.33 1.01-3.62.28-.19 3.91-.13 4.51-.05l-2.91 11.31-4.41-.04zm2.22-29.68c-.25.82-1.55 4.92-1.45 5.88 0 .02.01.07.02.09 0 .02.02.07.03.08 0 .02.02.05.03.08l6.48.13c-2.08 1.77-2.29-1.43-3.73 4.62-.43 1.8-.88 2.53-1.01 3.09-.19.78-.4 3.08-.69 3.55-.22.35-.04-.34-.37.56l-1.54 5.89c-.58 2.25-1.29 4.5-1.6 6.93h6.94c.18-.54.31-1.1.47-1.65.21-.73.45-1.04.56-1.68.66-3.91 3.39-13.61 4.56-17.72.18-.64.72-2.92 1.02-3.34.38-.54 1.05-.36 1.87-.33.84.03 1.46-.04 2.28-.07l1.57-6.17-15.43.07zM90.67 31.85c.03-.03.07-.12.08-.09.15.27 1.09-2.39 1.1-2.42.3-.94.56-1.88.82-2.88.48-1.81.86-4.25 1.47-5.96 1.68-.23 2.92-.18 4.62-.18-.26 1.44-.6 2.62-1 3.93-.29.96-.9 2.94-.82 3.98l4.79.07c.18 1.05-.56 2.51-.74 3.59l.75-.06c.12-.21.18-.46.31-.74l.5-.81c.42-.88.68-2.02.69-3.18-.84 0-4.23.17-4.7-.21-.26-.6.81-4.31 1.08-5.13.37-1.15.29-1.37 1.67-1.52 1.05-.11 2.21.08 3.17-.15.37-.9 1.35-4.75 1.33-5.72l-4.01-.13c.32-3.16.92-2.05.92-4.76-.39-.17-.65-.35-1.06-.53-.33-.15-.84-.24-1.16-.4 1.23-.59 5.64-.18 7.36-.19l1.6-6.25-11.64.04c-.52.84-1.56 5.99-2.02 7.42-.16.5-.5 1.09-.58 1.65-.12.86-.12 1.25-.34 2.07-.31 1.17-.88 2.48-1.05 3.72-.04.3-.03.62-.12.92-.13.41-.21.31-.39.82l-1.47 5.68c-.28 1.1-2.01 6.97-1.88 7.43.22.12.32.15.69-.01zM17.96 47.28l-.2 1.4 5.71.07c.9-.02.9-.3 1.33-.67l1.77-6.91 3.3.04c.03 1.98-1.17 4.02-1.3 6.47l.02 1.06c1.68 0 5.63.18 7.06-.15.25-2.25 1.15-5.07 1.72-7.21.74-2.78.2-2.33-.91-5.04-.2-.5-.43-1.23-.66-1.64-1.38-.28-9.45-.38-11.29-.1-.53.08-.32.01-.63.3l-3.31 3.47c-.82 1.01-.92.95-1.34 2.5-.35 1.29-1.38 5.16-1.28 6.4zM105.24 46.25l-.31 2.59c1.59-.02 5.93.32 7.04-.55l1.72-6.67c.05-.19.08-.37.15-.52.15-.35-.01-.49 3.84-.46.05 1.98-1.55 5.13-1.37 6.65.04.46-.07 1.18.02 1.47l6.7-.19c.03-.06.13-.25.13-.25l.24-.3c.59-1.24 1.24-4.65 1.59-6.25.89-4.06-.14-2.93-1.1-6.01l-6.97.12c-7.17-.21-6.1-.63-8.85 2.1-1.99 1.98-1.06 1.79-1.92 3.66-.3.65-.3.7-.4 1.46-.14 1.05-.27 2.19-.51 3.15zM51.33 47.35l-.22 1.38h13.31l.29-.01v-.66l.37-.05.74-2.91-6.24-.06c-.29-1.41.67-3.32.96-4.44l8.24-.03c.49-1.09 1.26-4.67 1.58-6.05H54.24c-.31 1.14-.67 1.89-.78 3.11-.15 1.62-1.17 4.58-1.6 6.32-.34 1.35-.36 2.09-.53 3.39z"/><path class="fil3" d="m123.39 48.03-.24.3c0 .01-.11.19-.13.25l-6.7.19c-.09-.3.02-1.01-.02-1.47-.31.36-.1.54-.23 1.09-.07.3-.23.52-.36.84-.54 1.42-.91 4.73-1.59 6.03l-3.76-.05 1.6-6.91c-1.11.87-5.45.53-7.04.55l.31-2.59c-.57.74-1.29 4.54-1.62 5.85-.5 2.02-1.43 4.11-.36 6 1.79.44 2.18.02 3.01 1.46 2.12-.28 7.37-1.78 8.53-.67.89.84-.04 1.65-.12 2.49 3.22-.1 2.4-.19 3.7-1.67.91-1.03 1.83-1.7 2.66-2.9.96-1.38 1.95-6.66 2.34-8.77zM27.54 61.38l2.57.04c.16-.47.69-1.7.53-2.15-.57-.17-1.21.44-1.73.71-.54.28-1.3.67-1.37 1.4zm40.85.03c.99.01 2.97-.08 3.8.19.29-2.07-.87-2.44-3.27-2.31-.25.43-.57 1.62-.53 2.12zm-34.07-.09 5.49.1c-.21-1.29-.09-1.32-.91-2.06-.82-.74-2.25-1.1-3.4-1.05-.7.03-.84 0-.92.59-.07.56-.35 2.18-.26 2.42zm52.35-12.75c-1.65.66-10.82.16-13.64.15-.82 0-3.85.18-4.34.07l.03-.58c-.67.49-1.03 2.95-1.25 3.94-.31 1.38-.88 2.86-.98 4.24 1.39.01 2.63-.15 4.03-.13 1.58.02 2.13.34 3.46.66l1.85-7.4c.76 2.01.75 9.31.78 11.9l5.33-.01c.24-.4.52-.82.82-1.26.48-.72.61-.58 1.12-1.13 1-1.08.69-1.75 1.04-3.33.55-2.44 1.26-4.59 1.74-7.13zm-21.6-.54-.37.05v.66l-.29.01H51.1l.22-1.38c-.74.6-.89 2.49-1.07 3.35l-1.71 7.04c-.25 1.14-.63 2.51-.76 3.6l2.92.03c.57-1.2.47-1.98 2.04-1.99 1.81-.01 1.67.6 2.13 2.01 2.27-.02 7.22-.38 9.17-.05l.13-1.41c-2 .19-2.58.87-4.79.4-.37-1.99.29-1.84 1.98-2.38 4.11-1.31 3.45-.43 3.94-2.65l-8.36-.05c.05-.35.14-.52.21-1 .17-1.25.29-2.29.9-3.12 2.06-.05 4.27.31 6.23-.13.24-.15.4-1.16.46-1.46.11-.52.23-1.03.33-1.53zm-20.29-.34-.16.3c-.02.03-.03.06-.05.09-.2.38-.23.6-.58.68l-6.63-.03.11-1.26c-.72.93-.85 2.3-1.07 3.73-.24 1.55-.85 2.6-.81 4.12 2.1.09 3.93.61 5.19 1.63 1.48 1.19 1.8 2.18 2.31 4.45.87.02 1.76.02 2.63.03 1.14.01.59.1.98-1.65.38-1.64.75-2.64.97-4.46l-4.53-.08c-.29-1.09.79-4.28 1.31-5.4.2-.43.26-1.57.31-2.15zm-9.14.92c-1.42.33-5.37.15-7.06.15l-.02-1.06c-.19.4-.45.91-.74 1.43l-3.15-.02.11-1.01c-.43.37-.43.65-1.33.67l-5.71-.07.2-1.4c-.75.58-.84 2.25-1.09 3.29-.28 1.18-.58 2.31-.89 3.49-.6 2.35-1.31 4.82-1.6 7.32l1.13-.08c.3-1.18.94-2.84 1.37-4.09.43-1.24 1.05-2.89 2.03-3.41 1.48-.78 3.4.18 2.89 1.95-.4 1.39-1.4 1.94-1.78 3.81l2.25-.31c.04-1.63.55-2.57.8-3.97l3.39.03-.52 2.38c2.99-.84 2.36-1.99 8.05-2.48.16-.83.31-.95.49-1.47.14-.42.2-1.29.32-1.83.24-1.12.7-2.33.86-3.34zm-23.32-.14c-1.31.4-1.95.43-3.46.41-.91-.01-2.88.1-3.62-.18l.01-.99c-.67.99-3.34 11.88-3.41 13.72h7.35c.08-1.76-.56-2.34-.71-3.73-.17-1.68 1.04-1.77 2.44-2.1-.32-1.63 1.14-5.33 1.4-7.13zm87.19.23c-.66.32-2.54.01-3.42.01-1.21-.01-2.42.02-3.62.04l-.01-1.31c-.61 1-.85 2.54-1.14 3.92-.3 1.46-.84 2.85-.96 4.33.87-.19 1.84-.59 2.6-.7.91-.13 1.88.37 2.21 1 0 2.28-1.15 2.09-3.09 2.61-1.88.5-3.06.53-3.01 2.81l7.25-.01c.2-.8.59-2.31.88-3 .52-1.22.3-1.47.71-3.26.48-2.08 1.29-4.5 1.6-6.46z"/><path class="fil2" d="m5.27 47.7-.01.99c.75.28 2.71.17 3.62.18 1.5.02 2.14-.01 3.46-.41l1.62-6.52 3.94-.15c.35-2.16 1.69-5.07 1.7-7.26l-15.51-.02c-.27.97-1.74 6.61-1.65 7.22l3.93.1c-.02 2.1-1.27 3.85-1.09 5.87zM92.48 47.43l.01 1.31c1.21-.02 2.42-.04 3.62-.04.87 0 2.76.31 3.42-.01.58-2.42 1.01-4.6 1.76-6.88l3.97-.01 1.15-5.29c-1.09-.97-5.86-.74-7.51-.77-1.43-.02-6.85-.04-7.82.33l-.3.53c-.5 1.16-1.09 4.04-1.19 5.21l3.92.07c.14.47-.86 4.46-1.02 5.54zM37.49 47.46l-.11 1.26 6.63.03c.35-.08.38-.3.58-.68.02-.03.03-.07.05-.09l.16-.3L48 34.54h-7.43l-1.67 6.25c-.57 2.13-1.16 4.35-1.4 6.67z"/><path class="fil3" d="M90.67 31.85c1.69-.13 1.29-.01 2.66.27.88.18 1.93.19 2.86.22 2 .06 3.88-.03 5.87-.09l.51-1.97-.5.81c-.13.28-.19.53-.31.74l-.75.06c.18-1.08.92-2.54.74-3.59l-4.79-.07c-.08-1.03.53-3.02.82-3.98.39-1.31.74-2.49 1-3.93-1.71 0-2.95-.05-4.62.18-.61 1.71-1 4.15-1.47 5.96-.26 1-.53 1.94-.82 2.88-.01.03-.94 2.69-1.1 2.42-.01-.02-.06.06-.08.09zM78.99 31.83l4.41.04 2.91-11.31c-.6-.08-4.23-.14-4.51.05-.43.29-.82 2.87-1.01 3.62-.43 1.71-1.98 5.93-1.79 7.6zM120.24 31.89l3.44-.04c.79-1.06 2.94-9.97 3.26-12.01l-3.52.04c-.7 1.19-2.91 10.11-3.17 12.01zM104.79 31.92l3.25.05c1.38-3.22 2.4-8.01 3.16-11.79-3.77-.01-3.55-.29-3.79.58l-1.38 5.11c-.31 1.11-1.52 4.95-1.24 6.05zM114.69 20.22l-1.5 11.66c2.22 0 2.01.16 2.3-.53.09-.21.19-.53.29-.77.22-.56.4-1.01.61-1.52 1.19-2.99 1.89-5.65 3.29-8.11.22-.38.07-.06.17-.38.04-.13.07-.38.1-.52-2.12-.05-3.14-.35-5.24.16z"/><path d="M58.74 65.48c.27-.5.48-.67.52-1.44-.87.06-.71.07-1.05.77-.57.04-.74-.06-1.04-.47.27-.32.63-.43 1.02-.63-.04-.59-.12-1.26-.79-1.21-.97.08-1.33 2.83-2.79 3.08-.46-2.17.89-1.05.14-2.65-.7-.1-1.29.08-1.47.61l-.4 1.6c-.39.46-.85 1-1.05 1.48-.19-.22-.2.36-.15-.47.32-.7.84-1.86.32-2.52-.93-.43-1.36 1.14-1.36 1.78-1.59 1.05-.33.76-2.34 1.79-.16-2.43 2.12-3.25 2.19-3.3 1.05-.72-.33-2-1.78-.42-1.17 1.27-.95 3.22-3.48 4.52l-.03-.97.27-.17c1.07-.47 1.15-.47 1.61-1.57.5-1.2.52-1.43-.05-2.52-1.31-.09-1.42 0-1.83.94l-.56 1.56-.64.28c-.24-.15-.22.3-.17-.35.46-.52.87-1.02.59-1.82-1.28-.42-1.31.55-2.15.96.15-.86.47-1.51.56-2.57l-.58-.13-.66.05c-.29-.65.08-.67-.45-1.02.62-3.71-7.3-6.9-13.97-2.55-.8.52-1.41.94-1.83 1.61-.34.55-.82 2.09-.57 2.79 1.21-.02.13-.04 1.42-1.94.84-1.24 1.95-1.55 3.04-1.86 1.02-.29.58-.88 4.02-1.17 2.01-.17 4.19-.06 5.66.87.61.38 1.21 1.04 1.52 1.79.51 1.2-.06 1.78-.01 2.92-1.55 1.02-.53.82-1.68 1.67-2.96 2.18-6.14 1.43-7.68 1.59.5.76.61.78 2.46.7 4.89-.2 5.95-2.93 6.96-2.68l.09 1.29-.42 2.53c1.19-.15.78-.4 1.45-1.23.56-.7.42-.77 1.31-1.2.24.82.44.59 1.4.54-.06 1-.19 2.41.89 2.51 1.1.1 1.48-.82 1.98-1.43.65.23 1.3.83 2.14.27.6-.4.75-.89 1.28-1.4l.08 2.01c1.64.17 1.46-1.98 2.91-2.41.14.72.55 1.24.08 1.89-.5.7-.53.5-.72 1.55 1.09.15 1.16-.37 1.63-.77.52-.46 2.77-.69 3.3-1.59.28-.48.5-1.08.86-1.47zm44.99-3.55c.23-.09.14.15.21-.25 1.76-.23 3.52-.45 5.31-.64 2.79-.29 4.33-.03 4.32-1.44-2.12-.73-6.52.89-8.94 1.03l-.24-1.4c-1.2-.15-1.45.73-1.7 1.75l-.75.18c.28 1.26.44 1.28-.16 2.62-.36.8-.72 1.44-1.49 1.78l.05-.61c.37-.24.89-.85.7-1.4-1.01-.84-1.4.27-2.29.68.22-1.14.67-1.21.41-2.58-1.2.14-1.37.83-1.77 1.86-.38.99-.62 1.7-1.58 2.07l.04-1.57-.04-.67c-1.48-.34-1.83.32-2.3 1.32-1.53 3.28.58 4.38 1.62 2.03.78-.09 1.13-.41 1.77-.62-.06.78-.35 1.53.19 2.14.65-.91 1.78-1.9 2.33-2.58l.16.68c1.33.08 1.13-.2 1.57-.37h.26c-.13 1.1-.78 3.14-.02 3.87.99.39 1.73-1.48 2.34-2.1l.58 1.13c2.27-.04 3.55-2.87 4.34-4.72-.79-.14-.89.13-1.17.7-.25.51-.36.76-.67 1.19-.74 1.04-1.05 1.79-2.05 1.98l.08-1.12c2.06-.32 2.6-3.57 1.63-4.03-1.83-.87-2.72 3.39-2.74 3.77-.9.61-.91 2.02-1.99 2.42l.52-2.72 1.47-4.38zm-82.9 3.24.15.11c.24 1.07.04 1.51-.8 1.82-.13-1.05.1-1.45.65-1.93zm31.09-3.34.54.1c.13-.02.37-.18.43-.24.28-.28.27-.63.26-1.09-1.25-1.12-1.67.13-1.23 1.24zM18.27 66.2v.08l-.84 1.18c-.23-1.16.45-2.07.93-2.66.84-1.03 1.21-.41 1.74-1.84-1.72-1.37-3.48 2.32-3.24 5.23.99.07 1.16-.31 1.6-.76 2.2.87 1.91.33 3.44-.67.9-.59 1.07-.59 1.82-1.37.4-.41.46-.66.31-1.39-.88.32-.88 1.21-1.76 1.66l-.13-2.25c-1.16-.73-1.89.43-2.25 1.46-1.1-.14-1.13-.28-1.4.47-.1.28-.17.57-.24.86zm1.75-4.91c-.63-.27-.89-.9-1.65-.53l.51.5c.2.21.25.36.42.61.36.51.72.56 1.51.49.15-.27.21-.69.29-1.06.13-.67.24-.65-.29-.92-.57.24-.04.21-.79.91zM94.58 66l-.53.93c-.2.2-.01.09-.28.14-.22-.6.1-1.41.33-1.93.63.03.26.01.49.13l-.02.73zm-20.46 1.98.3.81c.81.23 1.28-.11 1.74-.53.53-.47.72-.61 1.08-1.18.34-.53.6-.9.94-1.44.26-.4.55-.66.54-1.15l-.08-.35c0-.06-.02-.08-.04-.11-.67-.02-1.29 1.4-1.71 2.05-.25.39-.58.83-.83 1.16-.38.49-.54.6-1.19.78l.03-.81c.57-.22 1.37-1.12 1.76-1.76.63-1.03.45-1.76.01-2.7-2.67.02-2.86 3.56-2.55 5.22zm-3.54-9.41c2.34.71 2.55 1.01 2.58 3.86-1.16.99.4 2.35-4.95 6.77-.91.75-2.41 1.67-3.74 2.09-3.73 1.18-4.55-.22-4.69 1.14 3.98.1 5.9-.85 8.58-2.55 1.68-1.07 4.69-3.8 5.35-5.9.42-.38.53-.94.51-1.67.96-1.13.13-3.42-.65-4.06-2.3-1.91-6.52-1.16-9.22-.34-.92.28-3.73 1.01-4.33 1.4.4.68 1.24.24 2.76-.05l2.91-.56c-.12 3.34-2.44 9.99-2.11 11l.76.05c-.3-1.71 2.76-7.88 2.87-11.22l3.38.05zm16.89.32c.78-.06 5.89-1.54 6.09-1.97.05-1.1-.37-1.23-1.49-.97-.93.21-5.13 1.97-5.75 2.54-2.09.58-4.93 3.61-2.94 4.65.13.07.36.12.51.16.36.08.82.13 1.19.15 1.66.07 3.56-.33 5.18-.17.82.08 1.25.38 1.71.8.1 1.85-1.02 2.46-2.19 3.11-2.24 1.23-5.29 2.12-7.85 2.6-3.9.74-3.44.03-3.68 1.6.98-.04 1.75-.13 2.66-.34 1.88-.44.42.08 2.13-.65 2.16-.92 7.97-1.81 9.28-4.77.2-.46.23-.73.22-1.28-.02-.58-.04-.7-.31-1.07-1.61-.6-7.36-.11-8.52-.65-.68-2.08 2.81-2.55 3.74-3.73zm-70.48 4.38c.29-.86.51-2.93 1.06-3.54.65-.72.85-1.76 1.64-3.13.47-.8.94-1.49.05-2.05-1.55-.42-3.35 6-3.44 7.78-.92 1.53-1.46 7.42-2.37 9.45l-.46-1.83c-.13-.65-.23-1.26-.4-1.86-.35-1.2-.58-2.43-.84-3.66-.23-1.13-.71-2.75-.55-3.93.18-1.39 1.01-1.9.72-3.67-.87-.05-1.17.04-1.5.78-.4-.43-.3-1.26-1.55-.74-.35 1.43.56 2.41.6 3.75.06 1.94-2.18 7.23-2.53 10.74.81-.46.77-.92 1.06-1.86.31-.99 1.97-5.73 2.25-6.11 1.06 2.83.8 3.25 1.12 4.33.12.41.34.6.5 1.21.38 1.38.9 4.71 1.86 5.14l2.77-10.82zm12.08 6.72c.92-.38 1.03-2.64 1.73-3.87.33-.58.33-.29.44-1 .02-.12.02-.21.05-.36.35-2.03 1.65-3.2 1.69-5.75l-1.15-.09c-.33 1.43-1.05 3.08-1.36 4.05-.15.47-.11 1.05-.21 1.53-.25 1.2-1.58 4.61-1.17 5.49zm26.61-2.61c-.06-.96.34-1.95 1.02-2.28-.12.92-.41 1.91-1.02 2.28z" style="fill:#0f0"/><path class="fil5" d="m12.3 29.77-.06-.73.06-.59c-.72-.02-.99.12-1.41.36.17.47.41.65.78.92.32-.21.27-.15.46-.52.01.1.01.19.03.26.1.29.07.19.14.3zM9.81 25.9l-1.37.17.15-1.36c-.25.28-.65.87-.86 1.18.38.26.6.52 1.02.76.09-.4-.13-.09.44-.31.5-.19.35-.07.62-.44zM10.78 32.12c.41.24.63.48.96 1.01.14-.56.33-1.09.52-1.61-.72 0-1.03.34-1.49.6zM11.01 23c.76.08 0 .03.66.23.28-.26.29-.21.4-.65-.55-.86-.59-.2-.54-1.17-.37.45-.4.85-.52 1.6zM68.88 8.71c.42-.21.87-.36 1.29-.58-.38-.19-.19-.07-.5-.34l-.39-.37c-.28.46-.4.52-.4 1.29zM70.34 10.17l1.43-.53c-.01 0-.94-.47-1.03-.76-.22.37-.21.88-.4 1.29zM6.08 27.59c.67-.52.58.38.95.58.17-.38.27-.88.44-1.27-.58 0-1.1.17-1.4.69zM76.24 5.69l.23-.86c-.41-.04-.73-.28-.83-.59l-.53 1.15c.15-.07 1.23-.65 1.13.3zM9.34 27.17c.33.12.54.58.73.91.29-.22.43-.37.49-1.08-.59 0-.72.07-1.22.18zM67.29 10.16c.35-.16.76-.3 1.15-.4l-.71-.89c-.19.37-.38.79-.44 1.29zM65.66 8.53l1.1-.31c-.31-.32-.56-.84-.45-1.46l-.65 1.77zM11.05 25.76c.24.25.39.45.61.71.21-.26.4-.53.44-.97-.27-.11-.53-.3-1.05.27zM9.4 30.65c.19-.16.12-.19.3.15.09.17.07.1.11.28.3-.03.33-.01.56-.26l.23-.4c.02-.03.08-.14.1-.17l.12-.16c-1.08.24-.25-.29-1.42.56zM69.01 5.52l1.02-.53-.8-.72c-.22.41-.23.52-.23 1.25zM73.52 10.17c.35 0 .76-.1 1.03-.18-.11-.36-.35-.81-.53-1.11.04.45-.42.78-.49 1.29zM3.14 27.44c.56-.1.4.28.57.65.49-.13.56-.65.57-1.18-.3.04-.91.39-1.15.53zM71.93 5.39c.36-.17.86-.29 1.29-.4-.15-.04-.71-.57-.98-.76-.13.38-.14.8-.31 1.15zM73.52 6.98c.41-.06.88-.29 1.29-.4l-.8-.71c-.08.4-.3.73-.49 1.11zM6.32 24.25c.35.08.31.31.58.62.19-.38.4-.78.57-1.15-.65.02-.77.27-1.15.53zM67.16 6.98l1.28-.4-.72-.75c-.09.19-.12.29-.22.56-.05.13-.12.3-.17.38-.25.43-.04.12-.18.2zM4.69 28.86l.8.72.18-.26c.01-.02.02-.06.03-.09.01-.03.02-.07.02-.1.07-.29-.15-.09.11-.48-.6-.01-.7.11-1.15.21zM4.73 25.72c.28.06.61.85.62.88l.53-1.15c-.4.01-.81.17-1.15.27zM71.94 8.57l1.15-.44-.71-.7c-.09.26-.24.98-.44 1.14zM70.47 3.8c.25-.03.79-.22 1.02-.31-.18-.25-.37-.47-.53-.71-.07.3-.39.33-.49 1.02zM70.48 6.98l1.01-.4c-.3-.07-.29-.41-.57-.75-.16.34-.39.73-.44 1.15zM1.68 25.47l-.07.23c.19-.02.42.23.5.36.42.71-.21-.5.08.19.18.45-.06-.06.07.22.25-.34.44-.58.44-1.16-.13.15-.34.1-.62.39-.78.01-.09.05-.4-.24zM68.89 11.62c.4-.01.81-.17 1.15-.27l-.74-.63c-.21.37-.23.74-.41.9zM70.6 13.21c.37-.05.35-.13.89-.13-.09-.14-.08-.08-.21-.3-.12-.21-.15-.29-.23-.46-.38.13-.44.38-.45.89zM8.04 28.94l.57.67c.03-.04.13-.28.2-.55.08-.31.01-.11.09-.32.19-.5.05-.16.15-.24l-1.01.44zM3.27 24.17c.33.28.37.29.57.7l.44-1.01c-.25.03-.78.22-1.02.31zM4.89 22.69l.07.07.35.53c.22-.26.39-.6.44-1.02-.26.13-.62.26-.86.42zM8.07 32.12c.23.14.41.38.67.59-.06-.26.08-.23.13-.55.05-.29-.04-.29-.13-.44-.18.15-.5.27-.68.4zM12.68 27.35l.58.57c.11-.31.17-.73.3-1.01l-.43.22c-.2.09-.3.14-.46.22zM6.71 21.38c.68.25.34.02.62-.58-.55 0-.63.02-.62.58zM69.02 14.8c.35-.05.52-.37.75-.58-.29-.14-.26.01-.36-.31-.18.26-.34.48-.39.89z"/><path class="fil6" d="M56.6 8.53V8.4c.44-.04.11-.01.37-.1.36-.12.13-.12.29-.03-.12-.44-.09-.19-.27-.53-.34.14-.37.34-.4.8z"/><path class="fil5" d="M61.32 13.08c.44-.02.48-.05.49-.49l-.49-.01v.5z"/><path class="fil7" d="M20.81 22.58v.27c.63.11.2-.01.4.13l.04-.19c.08-.33 0-.05.09-.34-.28-.08-.14-.1-.53.13z"/><path class="fil6" d="M58.06 9.99c.52-.09.54-.38.81-.27-.03-.03-.43-.19-.27-.53-.34.27-.28.56-.53.8zM5.57 19.66c.46.4-.39.02.13-.4-.36.06-.73.06-.5.42.25.39.36-.01.36-.02z"/><path class="fil7" d="m20.68 25.89.31.28c.22.35-.01.02-.05-.01.21-.17.08-.02.26-.36.19-.36-.08-.34.14-.17-.67.02-.16-.06-.66.27z"/><path class="fil6" d="M61.37 6.4v.4c.47-.16-.18-.01.4-.13-.13-.28-.18-.18-.27-.4l-.13.13z"/></g></g></svg>