<svg xmlns="http://www.w3.org/2000/svg" xml:space="preserve" width="95.737" height="72" style="shape-rendering:geometricPrecision;text-rendering:geometricPrecision;image-rendering:optimizeQuality;fill-rule:evenodd;clip-rule:evenodd" viewBox="0 0 47.41 35.65"><defs><style>.fil0{fill:#000}.fil2{fill:#008ec2}.fil3{fill:#0faffc}.fil1{fill:#fff}</style></defs><g id="Camada_x0020_1"><g id="_2482726083472"><path class="fil0" d="M6.73 35.65H4.51c-.72-.12-1.27-.43-1.44-1.11-.19-.74.27-1.43.27-2.24-1.95 0-2.84.54-2.68-.52L1 28.54c.1-1.11.22-2.13.33-3.25.09-.98.3-2.15.3-3.19H7.3c.11-.49.22-.92.34-1.43.09-.38.23-1.15.36-1.42H5.82c-1.4 0-3.13.29-4.03-.01C.71 18.89.04 18.02 0 16.78v-1.73c.01-1.54.11-3.27.71-4.35.61-1.1 1.47-1.32 3.09-1.32.59 0 4.01.1 4.17.05.55-.17.8-2.61.97-3.47.26-1.33-.11-2.86.56-3.89.33-.51 1.07-.33 1.75-.26 1.22.13 4.24.7 5.57.92 2.51.42 4.86.82 7.38 1.22 1.27.21 2.48.41 3.75.63.57.1 1.29.26 1.88.32.58.06.58.04.65-.45.09-.6.33-2.51.48-2.84.14-.31.27-.4.54-.58.24-.16.42-.25.65-.37 1.23-.65 1.86-.72 3.19-.66.08 0 .13.01.21.02.17.03.08 0 .17.07.64.91 1.11.49 1.9 2.33.18.43.7.88 1.06 1.58-.68 1.34-.9.63-.66 2.08.13.77-.14 1.5-.18 1.92-.03.24-.01.56-.01.81.49.12 1.46 0 2.18 0h3.11c.85 0 1.24-.29 2.1-.25l.62.17c.31.28 1.08.34 1.45 1.5.27.82.03 1.96.03 2.83l-.08.16h-.31c.05.1.06.15.12.28.37.84.31 2.93-.4 3.91l-.35.45c-.15.15-.34.24-.46.41-.15.14-.12.11-.35.2-.12.05-.29.1-.36.11-.35.06-.55-.06-.81.1-.45-.25-3.76-.16-4.22-.16-.12.53-.7 2.58-.7 3.02h.16c.43-.04.93-.2 1.52.03l.34.21c.07.1.13.17.24.24.21.12.06.08.38.09.83-.58 1.66-.93 2.68-.62l.11.05c.01.01.04.01.04.04.01.02.03.03.04.03.43.26 1.3.49 1.54 1.56.11.49.17.92.1 1.41-.07.52-.07 1.06-.18 1.53-.37 0-.15 0-.23.08h-.16c.04.5.31.41.31 1.71 0 1.72-.3 3.14-1.82 3.8l-.31.16c-.01.01-.03.02-.04.04-.35.1-.05.19-.3 1.47l-.24 1.71c-.28.25-.48.17-1.09.17-.49 0-.65-.09-1.16-.09h-7.38l-.38-.18c-.06.23 0 .08-.08.26l-.17.07c-.02 0-.04.01-.07.01l-1.63.01c-.46 0-.49-.03-.82-.21-.35-.19-.27-.11-.65.04-.78.3-6.41.34-7.34.2-.59-.09-2.38.34-2.38-1.5h-.23c-.57.16-.01.71-.79 1.29l-.45.26c-.09.06 0 .03-.17.07-.15.03.03 0-.14.02-.94.09-3.52-.13-4.62.04-.7.11-4.25.12-4.79.04-.66-.1-1.57 0-2.51.08z"/><path class="fil1" d="M4.82 18.12h1.32l.11-1.52c.08-.56.12-.99.12-1.58h.16c0 .49.44 2.64.54 3.1 1.58-.14 1.37.52 1.55-1.8.05-.67.06-1.21.09-1.87.04-.83.16-1.2.16-2.36h1.09c0 .56-.04.91-.11 1.43-.06.46-.05 1.05-.1 1.44l-.18 2.91c.29-.14 1.19-.06 1.63-.16 0-1.03.16-1.88.15-2.86 0-.58.12-.86.15-1.31l.08-1.46h1.01l-.29 4.18c-.05.4-.07 1.04-.1 1.45l2.26-.01c.44.03.25.05.54.25.07-.46.24-1.2-.01-1.29-.97-.35-1.09.85-1.01-1.33.02-.43.06-.41.47-.4.4 0 .49.11.61-.17.09-.2.09-.93.09-1.21-1.39 0-.93.18-.93-1.47h1.09c.08-.34.06-.39.08-.82.03-.79.2-.46-.96-.62l-5.11-.02c-.27 0-.12.16-.39.16-.3 0 .14-.16-1.24-.16-.4 1.8-.13 1.49-.21 2.22-.05.46.08.68-.18.88 0-.55-.16-.56-.16-1.22v-1.39c-.28-.2-.36-.11-.39-.49h-1.4l-.54 7.5zM40.55 14.45c0-.36.09-.42.14-.67l.41-1.77v1.55c0 1.31.13 1.22-.54 1.22v-.33zm-2.87-1.39c-.25-.2-.28-.87-.41-1.53-.12-.63-.15-1.35-.44-1.57-.12.26-.04.75-.14 1-.14.35-.36.26-.72.21-.73-.1-.34.41-.51 1.68l-.27 4.45 1.24.01.24-2.78c.07-.2.02-.08.08-.17.03.36.17 1.07.26 1.44.11.45.13 1.15.28 1.5.3.01.56-.01.86 0 .44 0 .59.17.77.17h1.09c.69 0-.09-1.39.78-1.39.59 0-.12 1.39.47 1.39l1.4-.08-.39-7.5c-.73 0-1.64-.09-2.33.08 0 .5-.04.39-.12.77l-1.04 5.67c0-2.27.39-4.46.39-6.36 0-.19-.17-.11-.31-.1-1.48.06-.81-.28-1.11 1.95-.05.35-.05.7-.05 1.17zM19.11 26.44c-.28 0-.19-.12-.18-.33.04-.88.12-1.04.18-1.71.24.01.28.04.47.08 0 .5-.04.76-.07 1.15-.03.37-.03.81-.4.81zm3.26 3.42c-.16-.47-.03-1 0-1.47.03-.43.08-1.1.14-1.48l.25-2.19c.04-.33.03-.42.23-.57.61.17.18.91.16 1.88l-.26 2.82c-.03.18-.08.53-.12.69-.07.28-.08.3-.39.32zm-1.32-4.16c-.39-.6.24-1.56-.29-2.23-.49-.62-1.24-.29-2.2-.3l-.83.03c-.25.1-.15.14-.3 1.23-.06.41-.04.77-.1 1.12-.07.41-.45 4.35-.44 4.39.16.28.15.21.39.23.35.03.17.02.42.11.33.11.1.09.42-.07.61-.3.38.09.54-1.64.08-.86.03-.7.79-.8.48-.06.8-.15 1.04-.46.26-.34.34-.82.34-1.28h.08c0 1.38-.23 2.46-.23 3.59 0 .4.13.49.54.5.18 0 .36-.03.54.01.37.07.11.12.39.12.25-.01.03-.14.94-.13h1.09c.37-1.03.27-.72.4-1.86.11-.98.43-3.32.29-4.16-.05-.26-.17-.57-.35-.77-.28-.32-.44-.22-.96-.22v-.24c-.18 0-.46-.02-.62 0-.31.03-.93.35-1.26.71-.48.52-.6 1.35-.6 2.14zM34.8 26.19v-3.18c-.59-.14-1.46-.08-2.18-.08-.02.22-.07.5-.11.78-.05.34-.02.59-.05.92-.1 1.09-.33 2.3-.38 3.52-.03.66-.15 1.03-.15 1.79h1.4c0-.74.31-2.61.31-3.51l.26 3.48c.2.03.34.01.52.03.4.05.12.06.47.16.36-.56.38-1.14.56-2.02.06-.29.14-.75.22-1.07.03-.13.08-.36.13-.52.03-.1.05-.16.08-.24.01-.02.02-.04.02-.06l-.2 2.72c-.04.29-.11.75-.11 1.02.4 0 1.08.12 1.39-.08.11-.12.57-5.03.69-6.05.04-.35 0-.59.07-.96-2.18.4-1.97-.53-2.3.82l-.27 1.26c-.06.36-.12 1.08-.35 1.26zM26.57 14.94c.01-.47.16-.95.21-1.32l.17-1.37c.16.09.16-.1.16.24v2.45c-.41.01-.21.07-.54 0zm4.19-1.71c-.39 0-.16-.46-.15-.89.01-.6-.1-.67.15-1.06.29.08.1.08.39.16 0 .57.1 1.79-.39 1.79zm-4.74-3.1c-.49 2.2-.15 1.49.26 1.85.72.64-.1 2.76-.1 3.77 0 .44.52.49.85.49.12.39.08.91.08 1.39.46-.01.45-.16.78-.16h1.32c.47 0 .57.08 1.01.08l.16-2.28c.02-.33.08-.38.08-.73 1.46 0 1.73-.31 1.9-1.43.14-.92.47-2.8-.78-3.01-.28-.05-.17.03-.42.2-.13-.52-.45-.12-.53-.06-1.21.98-1.45-.11-1.56 1.13l-.18 3.16c-.06.54-.04 1.29-.14 1.72l-.08.24c-.04-.46-.14-1.15-.16-1.63-.02-.64.01-1.2-.05-1.74-.36-2.9.44-3.08-1.11-3.08-.56 0-.78.08-1.32.08z"/><path class="fil1" d="M36.12 10.38c-.34-.01-.55-.08-1.01-.08.17-.25.13-.19.5-.12.41.08.33-.06.51.2zm0-.73c-.36-.27-.06-.35 0-1.14.38.27.01.67 0 1.14zm-.31-1.47v.08c-.68 0-.96.02-1.01-.65h.16c.03.42.06.11.16.49.39 0 .35.08.7.08zm.7-2.2c.41.31.18 1.17 0 1.39V5.98zm-2.09-2.27c.43-.18-.2-.25.94-.02.79.16 1.08.23 1.08 1.24 0 1.11.09 1.16-.51.96-1.83-.61-1.63-.33-1.64-1.2 0-.35.16-.15-.1-.25l-.23 1.79c-.09.3-.08.25-.08.65.27.08.21.14.62.24v.16c-.39-.03-.68-.31-1.01-.41l.09-.06s.09 0 .19-.21l.42-2.9.24.01zm1.47-.25c.37 0 .35.01.62.08.02.29.12.4.14.59.05.39-.07.19-.07.55h-.08c0-.34.04-.65-.1-.87-.12-.19-.23-.19-.42-.29-.01-.01-.04-.01-.05-.03-.01-.02-.03-.02-.05-.03zm0 0c-.24-.01-.28-.04-.47-.08l.47.08zm-1.63 0c.04-.74.59-.27.64-.26.13.03.31.02.45.02h-.88c-.13.33.04.14-.21.24zm-1.94 3.83c-.58.16-.7 1.22-.87 1.69-.1.27-.19.38-.21.67.5-.35.43-.88.72-1.44.79-1.53 2.77-1.03 2.77.55v1.3h.31c-.27.38-.18-.07-.23.41h-.31v.24c.45.04.14.14 1.01.16.38.01.7.16 1.01 0-.16-.24-.02-.06-.18-.14-.14-.07.04.02-.11-.04l-.12-.04c-.01 0-.04-.01-.06-.02.68-.17.36-.2.59-.93l.15-.96c0-.4-.05.08-.05-.31 0-.69.36-.83.17-2.62l-.01-1.54c.46 0 .29.01.54-.16-.18-.36.06-.2-.31-.24-.03-.43-.14-.38-.32-.64-.25-.36-.25-1.53-1.46-1.56.36-.56-.43-.65-.85-.65-.36 0-.08.29-.7.33-.89.05-.71-.2-1.22 2.14l-.28 1.99c-.03.28-.12.64-.17.97-.13.74.15.25.2.85zM15.69 10.87c0 .72-.11 1.19-.15 1.8-.05.67-.05 1.2-.08 1.87-.03.55-.16 1.2-.16 1.79 0 .9-.07.79-.12 1.35-.01.09-.01.1-.01.2.02.17-.01.07.05.18.47-.16.18-.38 1.01-.45.37-.03.32.06.41-.27l.37-3.45.21 3.67c.08.02.9.1 1.03 0 .22-.17.5-2.6.61-3.02.08-.31.09-.25.09-.67v2.8c-.02.33-.08.48-.08.9.63.11.67.05 1.4 0V17c-.22.11-.29.16-.62.16-.54-.84-.31-3.6-.07-4.31.17-.52.4-.9 1.08-.9l.08-1.3c-2.54 0-2.04 0-2.24.91l-.29 1.49c-.08.45.09.48-.19.7-.16-.7-.16-2.22-.16-3.1h-2.18v.24zM5.83 23.26H4.66c-.01.3-.1 1.12-.14 1.4-.08.48-.07 1.02-.17 1.46h-.47c0-1.03.23-1.85.23-2.85H2.48c0 .43-.03.6-.09.97l-.41 3.97c-.05.36-.03.7-.08 1.05-.1.61-.19 1.34-.19 2h1.63c0-.69.31-2.64.31-3.34.89 0 .42.05.39 1.39-.02.69-.16.99-.16 1.96l.78-.08c0-.84.32-.87.93-.9l.57-5.68c.03-.23.06-.66.1-.98.08-.62-.06-.35-.43-.35zM2.93 16.72c-.13.45-.5.42-.51-.14l.29-4c.03-.76.13-.87.47-.9.1.21.08-.07.08.24v.73l-.33 4.06zm-2.08-.23c0 .44.06.73.29 1.09l.14.18c.69.76 2.01.66 2.75-.06.38-.37.48-.83.6-1.49.1-.6.07-1.33.15-1.96.15-1.13.41-3.07-.68-3.59-.81-.39-1.98-.23-2.51.49-.36.49-.36.81-.46 1.56-.14 1.02-.08 1.46-.14 1.89-.09.62-.12 1.25-.12 1.91zM27.34 24.32c.14.64.01.71 0 1.39l-.39 3.5c-.1.43-.63.7-.52-.13l.53-4.76h.39zm-2.64 5.79c1.4 0 1.04-.12 1.55.24.34-.42 1.08-.43 1.79-.33v.57c.55-.39.67-1.75.7-2.61.02-.54.14-.9.15-1.47.01-.62.16-.91.16-1.55V23.9c0-.17-.15-.46-.33-.63-.32-.29-1.18-.19-1.77-.19-.77 0-.57-.17-.85-.17-.27 0-.04.03-.28.11-.02.01-.04.01-.06.02-.38.12-.27-.27-.47 1.14-.05.32-.04.65-.09.97l-.5 4.94zM39.49 24.84c.07-.52 0-.81.43-.93.09.15.16.14.16.33 0 .71-.32 2.22-.31 2.85 0 .58-.04.97-.12 1.51-.03.23-.06.52-.11.7-.07.28-.08.3-.39.32-.1-.21-.08.07-.08-.24v-.73l.42-3.8zm-2.05 4.2v.41c0 1.15 1.24-.22 1.5 1.06.4-.87.89-.65 1.99-.65.51-1.01.45-3.13.56-3.82l.14-1.16c0-.86.13-1.78-.95-2.18-.73-.27-1.64-.05-2.22.57-.78.84-.8 3.31-.95 4.71-.04.41-.08.57-.08 1.06zM7.69 30.03c-.14-.42.23-3.76.35-4.53.09-.58-.05-1.04.43-1.18.39.61.01 1.43 0 2.12l-.37 3.28c-.09.27-.14.28-.41.3zm-1.71-.16c0 .05.14.39.16.43l2.02-.03c.79 0 .67.12 1.09.41.18-.71.32.27.65-2.09l.37-3.78c0-.41-.12-.84-.27-1.1-.19-.33-.35-.47-.82-.5-.48-.03-.83-.11-1.24-.11-.33 0 0-.01-.17.07-.03.02-.15.07-.16.08-.98.53-1.12 1.45-1.24 2.61-.03.24-.05.64-.1.96l-.28 3.05zM41.79 25.38c0 1.08.78 1.55 1.43 2.17l.3.34c.12.18.21.39.2.65-.05.97-.26 1-.68 1-.15-1.87.66-1.63-1.24-1.63-.3 0-.23.25-.26.54-.2 1.69-.02 1.33 1.27 1.33.32 0 .54.29.54.65 0 .5-.21.62.49.36.36-.13.61-.25.85-.5.53-.55.98-2.78.13-3.78l-.04-.04-.2-.2c-1.7-1.49-1.01-.73-1.01-2.37h.39l.08 1.22c.15 0 .3-.04.41-.04 1.15-.04 1.07.46 1.07-1.43 0-.4-.29-.74-.56-.88-.54-.31-1.54-.36-2.16-.01-.19.11-.09.09-.36.2-.33.13-.21-.1-.36.27-.12.28-.29 1.65-.29 2.14zM29.05 6.38c-.57 0-1.24-.18-1.82-.29l-2.39-.34c-.78-.19-2.67-.38-3.52-.54-.21-.04-.33-.09-.51-.12-2.69-.36-5.7-.94-8.29-1.25-.19-.02-.41-.1-.58-.13-.18-.03-.39-.04-.56-.07-.22-.03-.42-.03-.63-.07-.33-.08-.27.02-.35-.29.84 0 1.84.2 2.68.36l6.49 1.01c.55.07.79.12 1.3.19l9.04 1.43c.85.12 1.04-.08 1.15.35l-1.01.08c.79 0 .9-.11.93.33-.66 0-.75-.13-1.32-.16-.48-.03-.81-.12-1.29-.2-.26-.04-.46-.03-.72-.06l-7.04-1.09c-1.23-.21-4.2-.53-5.2-.74-.44-.09-.85-.12-1.29-.2-.18-.03-.43-.08-.66-.12l-3.15-.44v-.24c.45 0 .84.05 1.29.12.42.06.8.16 1.13.2l4.63.69c.36.06.71.1 1.17.16.11.02.47.1.58.12l2.94.42c.48.05.64.12 1.14.19l2.3.36c.4.08.78.08 1.19.14.76.11 1.6.3 2.35.3V6.4zm1.86-.16c-.51 0-.78-.12-1.32-.17l-15.47-2.6c-.93-.09-3.19-.58-3.96-.58-.03.32-.13.48-.19.86-.25 1.49.07 1.2-.05 1.9l-.73 3.81c-.14.43-.35.24-.35.85 0 .47.31.06.38-.09.22-.47.85-2.58.96-3.15l.52-2.63c.42 0 .98-.02 1.17.24-.34.15-.73-.24-1.01.16.15.21.27.24.93.24h.39v-.41c1.71 0 1.17.27 1.17.9.01-.02.02-.07.02-.06 0 0 .07-.24.27-.37.63-.42 1.14-.17 1.67-.08.36.06.57.05.9.11l3.43.48c.59.04 1.11.3 1.24.81h.16c0-.92.15-.51 1.4-.41l4.96.66c.18.02.42.11.57.13.23.04.41.01.65.05.39.07.85.14 1.22.19.25.03.39.02.63.07.26.06.31.11.59.12.27-.53.54-2.73.8-3.8l.21-1.5c0-.31.02-.03-.08-.24-.27.21-.28.9-.42 1.6l-.42 2.42c-.03.27.03.47-.25.47zM44.74 15.35c0 .84-.17 1.01-.62.9 0-1.8.25-1.55-1.01-1.55-.21 0-.21.04-.39.08-.8 3.6 2.96 3.28 3.37 1.5.27-1.15.27-2.4-.69-3.18-1.18-.96-1.05-.82-1.05-1.75 0-.37.29-.39.54-.33v1.06h1.4c.15-1.31.22-2.36-1.63-2.36-.66 0-1.26.32-1.5.78-.22.41-.38 1.54-.29 1.99.32 1.78 1.88 1.58 1.88 2.85zM13.05 23.26c0 .97-.37 3.9-.46 5.06-.07.8-.22 1.08-.14 1.93.26.02.4-.03.6-.02.3.02.42.16.57.13.31-.06.17-.16.67-.17.3-.01.63 0 .94 0l.09-.65h-1.17c0-2.06.09-1.81.7-1.79.5.01.58.25.62-1.47-1.26 0-1.02.07-.94-.74.04-.4.03-.59.16-.89 1.45 0 .97.16 1.13-1.03.08-.58.07-.38-.9-.43-.91-.05-.52-.25-1.86.08zM29.6 23.1l-.71 6.68c.08.39.23.22.94.22.34 0 .35.08.52.12.01 0 .03.01.05.01h.04c.17-.01.1-.06.29-.13.77-.29 1.04.46 1.04-.71H30.6c0-.93.16-1.3.16-1.79h1.01c.04-.51.16-.84.16-1.47-1.21 0-1.03.07-.95-.66.05-.41.01-.53.09-.89h1.01c.16-.36.23-1.08.23-1.63-1.03 0-.01.26-1.4.25h-1.32z"/><path class="fil1" d="M33.25 10.7c-.27 0-.3-.06-.54-.08 0 .5-.04 1.1-.11 1.6l-.36 5.25c2.63.21.56-.09 2.72-.16l.08-1.22h-1.09c-.11-.5.08-1.07.08-1.71.62 0 .49.04 1.01-.08 0-.26-.01-.56.01-.82.02-.21.16-.57-.09-.57-1.1 0-.79.44-.78-.82 0-.53-.09-.52.38-.58.45-.06.58 0 .79-.23-.39-.56-.56.25-1.24-.82-.25.18-.43.24-.85.24zM9.79 30.19c.29.17 1.6.08 2.02.08.41 0 .33-1.13.39-1.47l.29-2.63c.04-.33.01-.59.06-.91.39-2.47.29-2.08-1.05-2.08-.5 0-.37.17-.42.62-.04.34-.11.63-.12 1.01-.04 1.01-.34 2.89-.39 3.99-.01.29-.04.68-.21.84-.36.37-.56-.1-.57.54z"/><path class="fil2" d="M12.43 22.85c.06-.28.04-.19.23-.33.12.27.11.3-.23.33zm-.23-.73c.05-.21.07-.24.16-.41.17.1.23.14.39.24-.08.17-.06.07-.08.33-.31-.01-.29-.04-.47-.16zm-.85-1.39c.01-.47.09-.49.54-.49-.04.19-.07.24-.08.49h-.47zm-2.33-.82c-.15.23-.29.84-.16.98.46.23 2.48.08 3.18.08 0 .51.01.73-.08 1.14h-1.4c-.02-.28-.06-.3-.16-.49H8.61c-.18.39-.23.83-.23 1.3h5.13c.35-.55.44-1.41.56-2.11.06-.35.18-.4.07-.66-.34-.15-2.67.04-3.18-.08 0-.55.1-.67-.31-.84.16.29.16.11.22.44s-.05.25.09.56H9.02v-.33zM16.88 20.16c-.23.22-.33.08-.87.08-.36 0-.69-.04-.93.08v-.33l-.09.23c-.03.12-.03.16-.07.34-.12.62-.4 1.21-.39 1.89 0 .39-.05.42.24.48h4.43c.84-.07.81-1.57 1.18-2.69h-.95c-.42 0-.6-.06-.85 0v-.33c-.01.02-.02.04-.02.06-.34 1.18-.13 2.11-.98 2.15-1.46.07-1.01-.16-.68-1.96z"/><path class="fil0" d="M29.05 6.38v.08c-.75 0-1.6-.19-2.35-.3-.41-.06-.79-.06-1.19-.14l-2.3-.36c-.5-.06-.66-.13-1.14-.19l-2.94-.42c-.11-.02-.47-.1-.58-.12-.46-.06-.8-.1-1.17-.16l-4.63-.69c-.34-.04-.72-.14-1.13-.2-.45-.06-.83-.12-1.29-.12V4l3.15.44c.23.03.48.09.66.12.44.08.85.1 1.29.2.99.21 3.96.54 5.2.74l7.04 1.09c.25.04.46.02.72.06.47.08.81.17 1.29.2.57.03.66.16 1.32.16-.03-.44-.15-.33-.93-.33l1.01-.08c-.11-.43-.29-.23-1.15-.35l-9.04-1.43c-.51-.07-.75-.12-1.3-.19L13.1 3.62c-.85-.16-1.84-.36-2.68-.36.08.31.01.21.35.29.21.05.41.04.63.07.17.02.38.04.56.07.17.03.38.11.58.13 2.59.31 5.6.88 8.29 1.25.18.02.3.08.51.12.85.16 2.75.35 3.52.54l2.39.34c.57.11 1.25.29 1.82.29z"/><path class="fil2" d="M32.39 20.16c-.29.21-.07.11-.54.09l-2.43-.03c-.09 0-.11.01-.3.02l-2.1.01c.04-.19.07-.24.08-.49-.14.21-.29 1.12-.37 1.48-.45 1.88-.47 1.54.55 1.58.23.01.7.04 1.07.04.02-.23.46-1.94.54-2.12h1.32c.13.57-.31 1.31-.31 2.12 1.89 0 1.77.55 2.49-2.69z"/><path class="fil3" d="M33.01 20.24c.01 0 1.61.06 1.86-.1.04-.12.18-.73.17-.81-.02-.23-.28-.36-.48-.47-.33-.03-.26-.09-.54-.16v-.16c.25-.06.12-.08.31 0h2.45c0 .51-.06.59-.12 1.06l-.09.65h1.72c.06-.14.07-.14.16-.24.07-.36.15-.74.24-1.11.41-1.73-.04-1.13-1.92-1.28-.68-.05-1.39-.02-2.07 0-1.26.04-1.18.44-1.47 1.71-.08.37-.17.54-.22.93zM4.73 31.72v.43c.26-.13.77-.08 1.17-.08.06-.12.04-.09.08-.27-.28-.35-.63-.25-.74-.51.24-.14.76-.08 1.13-.08.4 0 .75-.08.99.12.1.13.09-.17.09.31 0 .24-.04.09-.07.42h1.17c.06-.14.07-.14.16-.24.11-.64.22-.7.16-.97-.11-.56-1.17-.3-2.11-.3l-1.78.08-.23 1.08zm36.92-.88c-.03.37-.08.48-.14.77h-1.09c-.11-.29.01-.27-.12-.51-.2-.07-.38-.1-.54-.18.27-.42.36-.19.93-.25l.86-.07.1.24zm-2.64.73c.02.16-.01.12.06.24l1.98-.06c.58.06.86.03 1.51-.02.18-.13.73-1.07.35-1.67l-2.6.08c-.69-.01-1.12-.27-1.3 1.43zm-4.43 0-.02.33c.56-.31.69.13 1.15-.04.15-.06.14-.09.23-.3.01-.01.01-.04.02-.06v-.16c-.45-.22-.28.04-.7.16.18-.35-.02-.15.23-.24-.12-.55-.6-.52 1.54-.48l.11.16c.04.42.06.5-.1.82.14.09.55.1.73.11.26.01.37-.08.66-.11.02-.46.13-.73.18-1.19.05-.48-.41-.32-.88-.32h-2.68c-.3.13-.45 1.02-.49 1.35zm-2.89 0v.33c.48 0 .95-.07 1.24 0 .1-.48.01-.43-.26-.62 0 0-.09-.06-.11-.08-.18-.16.03.18-.14-.16.55-.12 1.27-.08 1.94-.08.06-.25.24-.76-.13-.81l-.99.08c-.8.02-1.65 0-2.45 0-.07.13-.14.4-.16.57.48.34.59.06 1.09.16l-.04.61zm-2.87-.08v.41c.33.03 1.05.04 1.26-.15l.08-.09.21-1.26c-.55-.12-.69-.13-1.35-.13-.03.4-.16.84-.19 1.22zm-2.64.24v.16c.4 0 .96-.06 1.24.08.01-.28.06-.32.06-.57l-.21-.14c-.38-.07-.14-.09-.47-.18v-.16c.51-.12.3-.06.39 0l.5-.05.07-.56c-1.41-.21-1.39.25-1.59 1.43zm-4.19-.24v.49c.28 0 .42-.02.65-.05.31-.03.26.04.59.05 0-.4.12-.43-.05-.6-.35-.34-.37.12-.49-.38.34-.17 1.53-.17 1.86 0 .12.27 0 .5 0 .9.56 0 .8.08 1.09-.02.25-.32.15-.08.25-.59.23-1.14.19-.89-1.49-.89-.82 0-1.99-.2-2.22.32-.04.09-.16.63-.19.78zm-4.19.16v.24l1.48.08-.1-.24v-.37c-.25-.14-.32-.1-.4-.41h2.96c.5-.8-.37-.57-2.07-.57-.36 0-1.26-.05-1.45.08-.24.15-.36.8-.41 1.19zm-4.35.06v.27c.31.07 1.03-.03 1.24.08l.08-.33c-.07-.29-.19-.29-.42-.57l1.28-.13c.33.02.18-.03.39.11.29.2 0 .26 1.07.25.02 0 .27-.03.36-.03.12-.54.36-.88-.19-.94v.41c-.21-.17-.21-.12-.08-.41-.2-.04-1.89.04-2.41.04-1.4-.01-.92.13-1.32 1.24zm-4.27.1v.24h1.24c.02-.05.05-.14.07-.17.07-.15.03-.07.09-.15-.15-.52-.3.13-.43-.61h3.01c.09-.12.14-.32.17-.49-.46-.33-2.04-.16-2.6-.16-1.27-.01-1.24.1-1.38.69-.05.22-.13.37-.17.65zm11.11-18.59v-.33c.29.03.23-.02.33.24.12.41.16.42-.3.45l-.03-.37zm-.62.82c.53-.05.31-.01.55-.15.23-.13.75-.16 1.08-.2.46-.17-.43-1.11-.5-1.41l-.62-.01c-.31.48-.49.99-.5 1.76zm2.56-1.41c.07.14.02-.08.06.2l-.01.88c-.01.21-.1.26.12.32.24.06.28-.05.37-.16l.1-.69c.08-.04.22-.13.4-.08l.04 1.02c.47-.33.32-.03.62-.16 0-.53-.02-1.19-.12-1.59l-.56.29c-.08.16 0 .1-.14.2-.14.09-.09.03-.26.05-.05-.23-.07-.26-.1-.57-.31-.61-1-.07-1.18-.04.51 0 .48-.05.66.35zm2.41.67v.65c.01.01.03-.01.04.01 0 .01.03.01.04.01.01 0 .03 0 .04.01l.35.06c.08-.39-.01-.41.19-.73.42.08.41.05.35.57.15.22.09.07.47.16.05-.22.04-.18.16-.33 0-.43.13-1.12-.1-1.45-.29-.45-.74-.04-1.11.03.23.01.35.02.48.15.4.42.02.53.01.53-.28.18-.81-.23-.92.33zm-9.55 6.69v.33c.25-.12.57-.09.93-.08.54 0 .64.14.87-.08.07-.35.1-.32.1-.77-.74-.51-.89-.27-.93-.65.66 0 1.33.01 1.98 0 .8-.01.8 0 .54 1.19v.33c.25-.06.43 0 .85 0h.95c.04-.32.18-.72.25-1.03.1-.44.15-.69.15-1.21-.34-.09-.08-.12-.42-.13-.13 0-.25.05-.46.05l-.97-.03c-.78.03-3.04-.18-3.37.26-.13.18-.46 1.55-.49 1.85zm-6.06-.08v.33h1.94c-.14-.3-.03-.23-.09-.56-.06-.33-.06-.15-.22-.44-.5-.22-.95-.3-.37-.43h2.2c.1.15.18.25.23.49h1.86c.08-.34.27-.91.16-1.22-.49-.18-3.63-.03-4.55 0-.41.01-.56-.02-.74.25-.09.13-.4 1.32-.42 1.59zm12.04.24c.1.06 0 .03.17.07.42.08 1.38.02 1.77-.07.03-.3.09-.39.12-.65-.52-.55-.59-.27-.78-.69.43-.19 1.34-.1 1.91-.09.81.01.48.17.22 1.44.35.18 1.59.18 1.94 0 .11-.53.3-1.05.38-1.63.1-.77-.47-.69-1.16-.7-1.32-.01-2.67-.01-4 0l-.58 2.32zm6.06-.41c-.01.25-.04.3-.08.49l2.1-.01c.19-.01.21-.02.3-.02l2.43.03c.46.02.24.12.54-.09.07-.73.43-1.55.51-2.24-.39-.28-1.05-.16-1.86-.16-.66 1.18.2 2.38-1.68 2.09-.35-.05-.18.09-.31-.27-.14-.37.13-.15-.23-.4-.29-.07-.7-.27-.85-.49.39-.2.74-.08 1.32-.08.06-.31.31-.81-.15-.86-.13-.01-1.19 0-1.3.02-.35.08-.38.47-.46.85-.08.37-.21.72-.26 1.14z"/><path class="fil2" d="M34.88 20.14c-.25.17-1.86.11-1.86.1l-.09.23c-.13.4-.51 1.88-.27 2.11.21.21 4.5.13 4.75.06.6-.17.6-.95.88-2.01.08-.32.15-.32.17-.63-.08.1-.09.11-.16.24h-1.72l.09-.65c-.26.39-.18 1.41-.54 2.2-.28.07-1.34.27-1.46-.1-.16-.44.19-1.15.22-1.56zM23.94 31.84c-.19.02-.24.06-.48.06-.17-.38.07-.35-.26-.63-.29-.25-.84-.26 1.04-.26.41 0 .3.61.16.74-.13.13-.2.07-.45.1zm-1.96-.34c-.01.02-.02.02-.03.05-.01.05-.44 1.74-.44 2.39.93.23.34.08 1.32.08.02-.29.12-.6.18-.95.09-.46.09-.52.59-.53 1.09-.03.47.32.47 1.48.55 0 .95.03 1.4-.08 0-.59.07-.62.13-1.1.1-.72-.33-.31.03-.96-.29.1-.53.02-1.09.02 0-.39.12-.62 0-.9-.34-.17-1.53-.17-1.86 0 .13.5.14.04.49.38.17.16.05.2.05.6-.33-.01-.28-.08-.59-.05-.23.02-.37.05-.65.05v-.49zM34.59 31.58l-.41 1.63c-.1.91.09.73 1.24.73.31-1.37.17-1.52.69-1.56 1.11-.08.63.33.63 1.56h1.32c.01-.36.12-.77.19-1.11l.2-1.09c-.3.03-.4.11-.66.11-.18-.01-.59-.01-.73-.11h-1.09v-.24c-.01.02-.02.05-.02.06-.09.21-.08.25-.23.3-.46.18-.59-.26-1.15.04l.02-.33zM5.98 31.8c-.03.17-.01.15-.08.27-.39 0-.9-.05-1.17.08v-.43l-.54 2.55c4.02 0 3.77.48 4.32-1.75.08-.34.16-.4.19-.7-.08.1-.09.11-.16.24H7.37c.03-.33.07-.18.07-.42 0-.48.01-.18-.09-.31.03.3-.08 1.01-.15 1.29-.22.91-.02.51-.37 1.07-.81 0-1.38.39-.92-1.29.17-.59.17-.39.06-.61zM26.18 31.74c-.01.02-.02.03-.02.06l-.05.19c-.01.07-.03.21-.04.29-.1.68-.28 1.06-.28 1.67l1.94.08c.45 0 .53-.07.93-.09.33-.01.68 0 1.01 0 .04-.47.43-1.84.49-2.28l-.08.09c-.21.2-.93.18-1.26.15v-.41c-.01.02-.02.02-.03.05 0 .03-.02.04-.03.05-.34.92.2 1.9-.96 1.86-.67-.02-.59-.38-.32-1.41.01-.03.08-.32.08-.33.01-.49.02-.17-.08-.3.01.25-.05.29-.06.57-.28-.14-.84-.08-1.24-.08v-.16zM14.76 31.74l-.08.33c-.22-.11-.94-.01-1.24-.08v-.27l-.1.4c-.02.13-.05.29-.05.52.43 0 .32.09.73.04.28-.04 1.43-.15 1.57.08.13.21.01.65-.04.78-.26.13-.56.08-.93.08-.09-.15-.14-.31-.35-.38-.23-.07-.2.03-.61-.01-.28-.03-.43-.09-.56.1-.03.05-.13.6-.1.68.1.31.61.18 1.31.18h1.55c1.22.01.87 0 1.19-1.12.05-.17.1-.53.06-.76-.07-.33-.09-.26-.43-.22-.42.05-.24 0-.66-.03-1.02-.06-1.2.23-1.24-.33zM42.57 31.74c-.65.06-.93.08-1.51.02l-1.98.06c-.06-.12-.04-.08-.06-.24-.01.02-.02.03-.03.06l-.39 1.74c.01.49.06.18.16.57.26-.13.7-.08 1.09-.08l.39-1.55c.38 0 .75-.05 1.01.08.12.26-.12 1.27-.05 1.42.11.21-.08.09.59.04.43-.03.37-.08.7 0 .01-.38.12-.7.17-1.13.09-.79-.31-.52-.1-.99zM9.17 31.82l-.09.31c-.32 1.48-.79 2.04.08 2.06 1.13.02 2.29-.01 3.43-.01.19-.84-.09-.57-2.41-.57 0-.45.02-.6.16-.9h2.33c.11-.23.17-.37.23-.65h-1.17c-.51 0-.67-.08-1.16-.08v-.24c-.05.08-.01 0-.09.15-.01.03-.05.13-.07.17H9.17v-.24z"/><path class="fil0" d="M16.88 20.16c-.32 1.8-.77 2.03.68 1.96.86-.04.64-.97.98-2.15 0-.01.01-.04.02-.06.26-1.19.26-1.2-.54-1.19-.66.01-1.32 0-1.98 0 .04.38.19.14.93.65 0 .46-.03.42-.1.77zM34.57 18.86c.2.11.46.24.48.47.01.08-.13.69-.17.81-.03.4-.38 1.11-.22 1.56.13.36 1.18.17 1.46.1.36-.79.29-1.81.54-2.2.06-.47.12-.55.12-1.06h-2.45l-.08.16c.14.03.02-.02.18.06.11.05.07.05.13.11z"/><path class="fil2" d="M22.99 20.16c-.39.09-1.35.15-1.77.07-.17-.03-.08 0-.17-.07l-.1.3c-.03.11-.04.16-.08.32-.07.28-.1.45-.17.72-.12.45-.27.92-.27 1.43h1.86l.7-2.77zM26.41 20.16c-.35.18-1.59.18-1.94 0l-.49 2.01c-.08.28-.13.43-.13.76h1.86l.7-2.77z"/><path class="fil0" d="m34.18 3.69-.42 2.9c-.09.21-.19.21-.19.21l-.09.06c.33.09.62.37 1.01.41v-.16c-.41-.1-.35-.17-.62-.24 0-.41-.01-.36.08-.65l.23-1.79c.26.09.1-.1.1.25.01.87-.19.59 1.64 1.2.6.2.51.15.51-.96 0-1-.28-1.07-1.08-1.24-1.13-.23-.51-.16-.94.02l-.24-.01z"/><path class="fil2" d="m19.17 31.74.1.24-1.48-.08v-.24l-.08.41h.23v.24c-.44.04-.39.26-.45.67-.05.41-.1.61-.1 1.04 1.84.45 1.17-.47 1.63-1.47l2.23-.05c.21-.12.18-.38.18-.68-.64 0-1.8.13-2.27-.08z"/><path class="fil0" d="M5.98 31.8c.11.21.1.01-.06.61-.47 1.68.1 1.29.92 1.29.36-.56.15-.16.37-1.07.07-.28.18-.99.15-1.29-.24-.2-.59-.12-.99-.12-.36 0-.89-.06-1.13.08.11.26.46.16.74.51z"/><path class="fil1" d="M17.87 8.99c0-.2.11-.25.22-.33 1.12-.83 1.89 1.39.47 1.39-.76 0-.7-.64-.7-1.06zm-.62 0c0 .43-.02.63.28 1.01 1.17 1.49 3.31-.55 1.95-1.72-.61-.52-1.59-.51-2.03.25-.05.08-.19.39-.19.45zM28.66 9.24c0-.94 1.55-1.05 1.55 0 0 .99-1.55.98-1.55 0zm-.54-.16c0 .76.54 1.39 1.09 1.39.46 0 .79 0 1.15-.34.75-.71.51-2.19-1-2.19-.61 0-1.24.54-1.24 1.14zM14.29 9.15c0-.57.92-.95 1.37-.38.86 1.11-1.37 2.01-1.37.38zm-.54 0c0 .4.06.59.26.87.17.23.49.44.67.44.68 0 1.71 0 1.66-1.27-.02-.44-.1-.65-.32-.87-.72-.74-2.27-.37-2.27.84zM32.47 9.24c0-1.05 1.55-.87 1.55-.16 0 1.47-1.55 1.04-1.55.16zm-.54 0c0 1.06 1.44 1.65 2.3.86.57-.52.58-2.17-1.06-2.17-.7 0-1.24.57-1.24 1.3z"/><path class="fil2" d="M26.26 13.72c-.12.14-.11.1-.16.33-.38-.09-.32.06-.47-.16-.06.1-.01-.03-.06.18-.06.27.03-.16-.02.14l-.15.82c-.04.63-.05.88-.39.98-.11-.48.08-1.08.08-1.96l-.35-.06c-.01 0-.04-.01-.04-.01-.01 0-.03.01-.04-.01 0-.01-.03 0-.04-.01v-.65l-.29 2.9c-.12.93.57.21.86-.01.01-.01.03-.02.04-.03.75.57.1.41 1.09.33-.36-.56-.48-.31-.34-1.25l.26-1.52z"/><path class="fil0" d="M22.37 29.86c.31-.03.32-.04.39-.32.04-.15.1-.51.12-.69l.26-2.82c.02-.97.46-1.7-.16-1.88-.2.15-.19.24-.23.57l-.25 2.19c-.06.38-.12 1.05-.14 1.48-.03.47-.16 1 0 1.47zM39.07 28.64v.73c0 .31-.02.03.08.24.31-.03.32-.04.39-.32.05-.18.08-.47.11-.7.08-.53.12-.92.12-1.51 0-.63.31-2.14.31-2.85 0-.18-.06-.18-.16-.33-.43.12-.36.41-.43.93l-.42 3.8zM7.69 30.03c.26-.02.32-.04.41-.3l.37-3.28c.01-.69.39-1.51 0-2.12-.48.14-.34.6-.43 1.18-.12.77-.49 4.11-.35 4.53z"/><path class="fil2" d="M32.94 31.9c-.3-.07-.76 0-1.24 0v-.33c-.22.27-.12.15-.16.56l-.28 1.17c-.08.31-.1.24-.1.63h1.4c0-.53.34-1.42.39-2.04z"/><path class="fil0" d="M27.34 24.32h-.39l-.53 4.76c-.11.83.42.56.52.13l.39-3.5c.01-.68.14-.74 0-1.39zM3.26 12.66v-.73c0-.31.02-.03-.08-.24-.34.03-.44.14-.47.9l-.29 4c0 .56.37.59.51.14l.33-4.06z"/><path class="fil1" d="M21.21 7.52c.3.03.63.13.94.16.42.03.71.09 1.08.09.15-.33.16-.72.16-1.22-.33-.08-.6-.06-.97-.13-.44-.08-.55-.12-1.05-.12-.03.39-.16.8-.16 1.22z"/><path class="fil2" d="M19.65 14.05c0 .52-.11 2.6.14 2.78.32.22 1.19-1.15 1.26-1.47-.57.05-.46.33-.71.49-.33.2-.24-.45-.19-.78.18-1.23-.12-1.12.66-1.18.46-.03.39-.11.47-.18-.33.03-.85.07-1.08.2-.24.14-.02.1-.55.15z"/><path class="fil0" d="M32.47 9.24c0 .88 1.55 1.31 1.55-.16 0-.7-1.55-.89-1.55.16zM14.29 9.15c0 1.63 2.23.73 1.37-.38-.44-.57-1.37-.2-1.37.38zM17.87 8.99c0 .42-.06 1.06.7 1.06 1.42 0 .65-2.23-.47-1.39-.12.09-.22.14-.22.33z"/><path class="fil1" d="M24.86 8.18c.39.21 1.19.33 1.79.33.18-.81.47-.95-.6-1.08-.27-.03-.61-.14-.95-.14-.1.21-.21.61-.23.9z"/><path class="fil0" d="M28.66 9.24c0 .98 1.55.99 1.55 0 0-1.05-1.55-.94-1.55 0z"/><path class="fil2" d="M22.76 13.88c-.09.1-.13.22-.37.16-.22-.06-.13-.11-.12-.32l.01-.88c-.05-.27.01-.06-.06-.2 0 1.82-.31 2.12-.31 3.69.42.39.28.22.93.16-.06-.09-.42-.24-.33-1.17.05-.52.22-.96.25-1.44z"/><path class="fil1" d="M20.12 8.91c.41.36 2.79-.9 3.57-.9.31 0 .85.29.85-.16 0-.55-.82-.05-1.25.08-.36.11-.83.15-1.17.23-1.13.28-1.96.15-2 .75zM24.94 17.55c1.08 0 1.58.21 1.45-.79-.26.03-.37.16-.65.11-.31-.06-.28-.21-.65-.3-.16.18-.69.98-.16.98z"/><path class="fil0" d="M40.32 31.11c.13.24.01.22.12.51h1.09c.06-.29.1-.4.14-.77-.22-.13-.1-.12-.29-.11l-1.29.11.04.04.19.23zM25.09 14.05c0 .88-.18 1.48-.08 1.96.34-.1.35-.35.39-.98l.15-.82c.05-.3-.04.13.02-.14.05-.21 0-.07.06-.18.06-.52.07-.49-.35-.57-.21.32-.12.35-.19.73zM19.11 26.44c.37 0 .37-.43.4-.81.03-.39.07-.65.07-1.15-.18-.04-.23-.08-.47-.08-.05.67-.13.83-.18 1.71-.01.21-.11.33.18.33zM23.46 31.9c.24-.01.29-.04.48-.06.25-.03.32.03.45-.1s.25-.74-.16-.74c-1.88 0-1.33.01-1.04.26.33.29.09.25.26.63zM35.97 31.33v.4h1.09c.16-.32.14-.39.1-.82h-1.42c.07.26.16.18.23.41zM30.76 13.23c.48 0 .39-1.22.39-1.79-.29-.08-.1-.08-.39-.16-.25.39-.15.47-.15 1.06-.01.43-.24.89.15.89zM26.57 14.94c.33.07.13.01.54 0v-2.45c0-.34.01-.15-.16-.24l-.17 1.37c-.05.37-.2.86-.21 1.32zM40.55 14.45v.33c.68 0 .54.09.54-1.22v-1.55l-.41 1.77c-.04.25-.14.31-.14.67z"/><path class="fil1" d="M12.82 9.56c.2-.3.15-.53.33-.88.35-.7-.02-1.07-.02-2.3h-.08c0 .35-.07.33-.08.73-.01.68-.15 1.38-.15 2.45z"/><path class="fil2" d="M35.97 31.33c-.08-.22-.17-.14-.23-.41h1.42l-.11-.16c-2.15-.04-1.67-.07-1.54.48-.25.1-.06-.11-.23.24.42-.12.25-.39.7-.16zM23.3 14.13v.57c.51-.01.58-.23.62-.73-.31.13-.15-.17-.62.16zM40.32 31.11l-.19-.23c-.01-.01-.03-.02-.04-.04l1.29-.11c.19 0 .06-.02.29.11l-.1-.24-.86.07c-.57.06-.66-.17-.93.25.16.08.34.11.54.18z"/><path class="fil1" d="M17.09 8.09c.12-.46.16.04.16-.65-.21-.02-.21-.04-.39-.08-.19.41-.21.7.23.73z"/><path class="fil2" d="M28.82 19.18c-.22-.31-.31-.12-.54-.49h.78c.4-.05.08.01.23-.08-.58 0-.93-.12-1.32.08.15.22.57.42.85.49z"/><path class="fil0" d="M36.51 7.36c.18-.22.41-1.07 0-1.39v1.39z"/><path class="fil2" d="M11.34 20.73h.47c.01-.25.04-.3.08-.49-.45 0-.53.02-.54.49z"/><path class="fil0" d="M35.89 3.45c.02.01.04.01.05.03.01.02.04.02.05.03.19.1.3.1.42.29.14.22.1.54.1.87h.08c0-.36.12-.17.07-.55-.02-.19-.12-.3-.14-.59-.27-.07-.26-.08-.62-.08zM36.12 9.64c.01-.47.38-.87 0-1.14-.06.79-.36.87 0 1.14z"/><path class="fil2" d="M12.2 22.12c.18.13.16.16.47.16.02-.25 0-.15.08-.33-.15-.11-.22-.15-.39-.24-.08.17-.11.19-.16.41z"/><path class="fil0" d="M35.81 8.26v-.08c-.34 0-.3-.08-.7-.08-.1-.38-.12-.07-.16-.49h-.16c.05.68.33.65 1.01.65zM20.27 13.23l.03.37c.46-.03.42-.04.3-.45l-.24-.08-.09.16zM35.11 10.3c.46 0 .67.07 1.01.08-.18-.26-.11-.13-.51-.2-.36-.07-.32-.13-.5.12z"/><path class="fil1" d="M30.84 8.18c0-.16.02-.14-.03-.29-.1-.29-.28-.42-.59-.44.01.01.04.01.04.04.01.02.03.03.04.04l.43.53c.15.2 0 0 .11.13zM28.12 8.09c.25-.17.49-.57.85-.57v-.08c-.45 0-.76.28-.85.65z"/><path class="fil0" d="M34.26 3.45c.25-.1.08.08.21-.24h.88c-.14 0-.32.02-.45-.02-.05-.01-.59-.48-.64.26z"/><path class="fil2" d="M34.57 18.86c-.06-.05-.02-.05-.13-.11-.16-.08-.04-.02-.18-.06l.08-.16c-.19-.08-.06-.06-.31 0v.16c.29.07.22.13.54.16zM27.27 31.27c-.09-.09-.17-.09-.23-.35h.16c-.09-.06.12-.12-.39 0v.16c.33.09.09.11.47.18zM23.25 12.66l-.33.17c-.02-.1-.04-.2-.06-.27-.09-.27-.03-.11-.12-.23.03.31.05.34.1.57.17-.01.12.04.26-.05.15-.09.07-.03.14-.2zM12.43 22.85c.34-.03.35-.06.23-.33-.19.13-.17.05-.23.33zM20.27 13.23l.09-.16.24.08c-.1-.27-.04-.22-.33-.24v.33z"/><path class="fil3" d="M17.24 30.43h-.08c-.13.29-.14.24.08.41v-.41z"/><path class="fil0" d="m35.89 3.45-.47-.08c.18.04.23.08.47.08z"/></g></g></svg>