<svg xmlns="http://www.w3.org/2000/svg" xml:space="preserve" width="110.031" height="53.193" style="shape-rendering:geometricPrecision;text-rendering:geometricPrecision;image-rendering:optimizeQuality;fill-rule:evenodd;clip-rule:evenodd" viewBox="0 0 692.64 334.85"><defs><style>.fil1{fill:#fefefe}</style></defs><g id="Camada_x0020_1"><g id="_2899119036624"><path d="M132.95 206.19c.41-1.48.98-2.88 1.68-4.16 2.48-4.48 6.02-6.2 9.59-4.67 8.83 3.78 16.76 9.35 25.22 14.67 1.38.87 2.74 1.68 4.06 2.43-13.88-17.89-27.04-43.17-27.26-72.27-.2-25.03 9.18-44.25 21.17-58.02 2.76-3.17 5.67-5.99 8.68-8.47 14.01-11.5 29.99-15.22 45.53-14.42 16.17.84 33 6.58 48.17 15.76.23.14.46.28.7.43l-5.29-15.64c-1.29-3.82-1.57-7.87-.82-12.06.75-4.19 2.31-7.37 4.66-9.45C294.39 17.82 314.85.02 344.76.01c29.91-.01 63.45 33.14 61.59 87.63-.46 13.68-3.43 25.92-7.82 37.1 12.53-12.25 25.35-28.53 27.15-45.76.77-7.4-.36-14.88-1.65-21.94-1.82-10.01-4-19.53-4.33-30.11-.19-5.88 1.47-11.08 4.52-14.2 3.05-3.12 6.63-3.27 9.78-.42 8.65 7.84 18.75 25.45 24.77 38.13 8.4 17.66 18.49 45.29 11.99 68.05-2.07 7.24-8.73 18.2-15.34 27.31 4.8-1.77 8.57-3.55 10.25-5.14 3.43-5.21 6.89-13.1 9.55-19.3 4.38-10.23 8.45-20.97 12.28-31.78 4.27-12.05 8.35-24.51 11.92-37.16 1.53-5.43 4.69-16.68 5.12-22.55.23-3.14.85-5.76 1.9-8.38 1.35-3.63 3.33-6 5.87-7.04 2.61-1.08 5.1-.45 7.4 1.86 6.8 6.85 15.78 26.54 20.48 37.62 6.8 16.03 13.04 35.67 9.08 55.58-.3 1.48-.64 2.92-1.02 4.32 1.82-2.05 3.36-3.94 4.53-5.58 5.61-7.83 12.69-18.69 14.35-31.01 1.88-14.04-2.8-35.44-5.54-48.61-1.24-5.95-.32-12.14 2.46-16.49 2.77-4.34 6.59-5.59 10.17-3.31 11.97 7.63 19.85 23.63 27.05 40.3 6.45 14.94 14.31 33.16 13.39 52.37-.81 16.78-8.02 29.95-16.16 40.4 11.08-1.85 13.53-9.14 19.09-23.88 5.99-15.88 12.01-31.09 17.23-47.75 2.44-7.8 5.39-15.48 7.41-23.59.71-2.86 1.16-6.43 1.62-9.44 1.2-7.88 2.59-15.79 5.95-22.01 3.4-6.3 9.2-7.13 13.22-1.91 9.42 12.24 22.25 42.17 28.34 59.56.88 2.5 1.28 4.97 1.28 7.85v20.7c0 3.99-.79 7.41-2.4 10.41l-9.6 17.89c-.07.13-.13.24-.2.36-4.08 7.14-8.47 13.92-12.74 20.73-3.03 4.83-6.07 9.71-8.96 14.77-.41.71-.86 1.49-1.32 2.32 1.74 4.3 3.3 8.77 4.36 13.61 2.79 12.85 1.47 26.78.01 39.84-.53 4.74-2.15 8.48-4.71 10.87-2.56 2.39-5.35 2.77-8.11 1.1-1.15-.69-2.28-1.5-3.38-2.39-3.76-3.04-7.04-7.17-10.71-10.24-1.31-1.09-2.51-1.86-3.76-2.22-10.71 24.84-15.43 67.41-13.81 96.12.32 5.63-1.07 10.72-3.83 14.1-2.77 3.38-6.14 4.11-9.35 2.01-11.53-7.55-36.46-34.85-44.02-50.66-9.65-20.18-6.32-41.27 2.61-59.75.41-.86.83-1.7 1.25-2.53l-41.27 7.17c-.99.2-2.56.42-3.66.83-.05.08-.1.16-.16.25-.76 2.82-2.01 5.28-3.65 6.97-.24.25-.48.48-.74.69-.15.13-.3.26-.46.38-.46.38-.92.76-1.38 1.15-3.13 2.65-6.62 2.4-9.6-.69-2.07-2.15-10.3-11.15-13.49-12.95-2.09 3.87-5.19 15.95-6.06 19.42-6.81 27.19-10.28 46.49-8.29 76.33.36 5.46-.88 10.43-3.47 13.91-2.59 3.48-5.82 4.5-9.02 2.85-1.52-.79-3.56-1.52-4.98-2.56-1.49-1.1-3.44-3.34-4.91-4.72-9.06-8.47-31.04-31.86-36.06-45.66-3.36-9.26-4.77-19.49-3.8-30.18 1.01-11.18 4.42-21.07 8.54-29.94-11.09 1.72-22.19 3.54-33.23 5.87-.03 1.71-.24 3.43-.63 5.14-4.58 20.19-26.59 69.71-37.02 82.8-.72.9-1.39 1.53-2.23 2.09-10.78 7.19-21.69-3.57-31.59-9.8-13.38-8.42-25.19-10.21-39.34-5.38-2.02.69-6.23 1.7-8.25 2.89-1.49 2.2-3.45 6.29-4.83 8.68-3.3 5.73-8.57 6.62-12.52 2.12-3.74-4.26-7.01-9.05-10.26-14.24-2.11-3.36-4.26-7.07-6.61-9.97-3.35-4.15-6.56-5.45-10.74-5.66-9.16-.47-20.76 4.73-29.45 9.01-4.77 2.36-9.91 4.97-14.94 4.96-3.51-.01-6.97-.68-10.57-.63-2.67.04-4.97-1.5-6.87-4.58-1.9-3.08-2.85-6.84-2.85-11.2v-.08c-1.38-3.63-4.16-8.86-5.54-11.66-2.56-5.17-5.11-10.34-7.57-15.62-1.02 8.41-3.59 18.01-7.52 23.74 0 .01-.01.02-.02.03-.23.46-.45.93-.69 1.38-2.83 5.45-5.22 6.65-8.76 9.89-.34.32-.64.56-1.01.81-4.89 3.38-10.88 4.8-16.08 2.93-8.08-2.91-14.43-9.5-18.54-19.55-.59.64-1.16 1.16-1.71 1.58-.03.36-.07.73-.1 1.09 1.46 6.3.56 13.3-2.6 19.04-1.95 4.52-4.07 7.78-7.58 8.88-3.43 1.07-6.84-.73-9.37-4.57-3.87-5.86-4.61-11.05-4.38-19.24.07-2.65.19-5.29.39-7.93-1.25-3.89-2.02-8.62-1.82-12.8-.04-.04-.08-.07-.13-.11-1.2-.07-2.31-.39-3.57-1.01l-4.23-1.77c-.86-.36-1.56-.82-2.33-1.53-1.61-1.48-2.94-3.4-3.93-5.6-.96-.73-1.92-1.5-2.89-2.61-1.29-1.15-2.23-2.22-3.17-3.64-.79-.58-1.51-1.29-2.25-2.19-.59-.2-1.17-.47-1.81-.83-2.48-.8-4.72-.83-7.31-2.06-.57-.27-1.14-.62-1.71-.93-2.31.81-4.44.56-6.66-.82-1.2-.15-2.22-.39-3.47-.95-3.19-1.44-5.98-3.06-8.41-6.96-1.22-1.96-1.99-4.08-3-6.17-3.32-4.34-4.5-9.26-4.92-16.12L5.92 198a23.49 23.49 0 0 1-.09-3.84c.1-2.75-.22-6.19-.21-9.09.02-7.04-.38-15.12.32-22.12-.3-1.36-.52-2.71-.64-4.04-.74-1.41-1.34-2.9-1.91-4.77-.6-2.01-.93-3.69-1.32-5.66-2.49-5.2-2.75-12.14-.68-17.77 2.01-7.29 3.29-12.37 8.08-16.53 3.2-2.78 4.87-4.65 8.38-5.53 2.74-2.21 6.09-2.21 9.54-1.29 4.04 1.08 7.6 2.96 10.37 8.35 2.13 4.15 2.81 9.42 1.91 14.43 1.23 3.07 2.11 6.35 2.39 10.32.2 2.74.42 4.98.36 7.22h1.18c.06-.03.12-.06.17-.1.73-.4 1.42-.64 2.13-.81.36-.26.7-.52 1.03-.75.12-.44.25-.87.38-1.29.07-1.98.36-3.94.86-5.88l.09-.8c.48-3.89.94-6.92 2.51-10.19 1.48-3.08 2.78-3.99 4.54-6.05 1.91-2.24 3.71-4.08 5.81-5.34.06-.08.12-.15.18-.23l.2-7.97c.19-15.06 3.77-33.33 12.02-41.53 2.31-2.29 4.8-2.9 7.41-1.8 1.56.66 2.9 1.81 4.02 3.45 1.95-4.33 4.39-8.12 7.34-11.42 5.79-6.47 14.05-9.37 20.92-6.93 3.34 1.19 6.91 3.14 9.7 6.42 6.29 7.4 10.92 16.66 12.69 29.25 2.36 16.74-1.06 35.31-9.21 46.37-2.74 3.72-5.95 6.8-9.32 8.8 1.75 1.65 3.25 3.95 4.8 7.59 2.85 6.68 4.03 18.05 4.45 26.17.07 1.28.07 2.52.01 3.74.16 1.3.22 2.49.23 4.19v.43c.05 3.2.06 6.02-.17 8.66.86 3.04 1.23 6.52 1.54 10.28.01.17.03.34.04.5 1.76.97 3.43 2.24 5 3.78z" style="fill:#000"/><path class="fil1" d="M124.71 277.06c8.61-7.99 2.68-1.86 7.8-9.34 8.23-12.04 5.78-45.09-8.9-50.94l-5-1.27c-1.19-2.56-1.67-6.91-2.59-9.49.85-.66 1.47-.79 2.33-1.95-.75-8.91-.75-4.1-1.85-7.87-.37-1.26-.37-1.7-.87-3.14 1.56-2.81 1.69-9.03 1.03-12.78-.14-.81.1-16.19-2.72-22.79-1.62-3.8-2.84-3.84-4.8-4.65-5.84-2.41-12.39-1.9-14.79-3.67l-2.41-6.83c-7.29 1.22-13.27-5.39-11.09-8.29l8.41-10.1c.79-.89.95-.33 1.77-.86.6-.38 2.54-3.48 3.57-4.56.63.54 8.34 13.19 18.47 7.88 19.33-10.13 17.37-54.1-1.92-60.97-9.56-3.4-19.26 7.87-21.67 23.92-1.85 12.34 1.49 17.49 1.88 22.06-2.89 5.09-3.29 2.01-3.91 5.61-.63 3.64-7.4 10.4-9.55 12.28-3.42-6.01-3.77-17.98-3.43-25.26.58-12.58 5.86-18.68 4.04-23.85-8.27 8.23-7.41 32.15-7.89 46.82-.88.64-1.47.57-2.31.89-1.42.54-1.41 1.54-2.56 2.64-.79.76-1.17-.21-4.85 4.09-2.85 3.33-2.62 1.82-3.2 6.5-.23 1.85-.03 1.92-.55 3.47-.58 1.72.08 2.2.11 3.84-.05 1.16-2.55 4.64-2.43 10.37-1.76 2.76-1.96.98-3.09 1.17-1.82.31-2.63 3.33-9.63 3.47-8.65.17-7.39-1.92-10.24-5.93-.74-1.05-.81-.52-1.6-1.94l1.83-2.3c-.66-5.07-1.88-1.63-3.11-3.11.42-1.48.68-1.3 1.56-1.41 4.34-.5 1.55-9.18-.17-12.58-.8 1.28-.23 3.06-1.51 2.98-.71-.2-.54-1.59-1.32-2.23-.77-.63-1.18-.21-1.72-1.8 2.44-2.58 3.22-4.86 4.52-9.28-1.03-2-3.04-2.53-4.54-2.93-4.56-1.22-3.37.1-4.21 1.51-3.91-.47-3.33-.06-7.62 3.67-2.91 2.53-3.32 8.28-4.32 10.67 1.7 3.31 1.29 4.84 2.36 8.39l2.55 5.63c.29.48.69.54 1.05 1.05-.54 1.91-1.15 1.45-.61 3.83.39-1.13 1.06-1.72 1.85-2.77l-1.33 9.82-.1 30.77 1.02 10.28c.33 6.26 1.14 4.85 2.42 7.34 4.5 8.79 2.57 7.24 9.93 9.35 1.34.38 1.27 1.54 3.01.67 2.23-1.12 3.7.37 5.9 1.41l10.5 3.4 6.97 7.63c1 1.15 4.45 3.3 4.89 4.23 1.56 3.25-3.24.87 5.49 4.94 1.68.86 1.55.2 3.05.42l5.77 4.13c1.23 1.03 1.85-.47 3.12-.87 1.57 3.35-3.14 12.49-.09 19.18.49-1.3.13-5.03 1.44-7.18l-1.14 22.08c-.1 3.59-.29 4.53 1.29 6.94 1.41 2.14 2.12-1.33 3.15-3.13 1.84-3.21.52-3.66-.24-5.26l2.43-19.55c1.74-.69 2.21 3.05 5.54-1.33 4.16-5.49 5.94-26.49 9.5-22.51-.63 6.19-1.4 10.45-.49 16.98 2.76 19.92 14.99 29.92 25.79 22.45zM97.24 104.34l1.61-1.83-.78-9.23c.36-3.5 1-.19.92-4.41-.04-1.94 1.58-3.4 2.43-4.36 1.34-1.51.56-3.01 3.8-3.27 1.97-.16 2.75-2.22 4.94-.05 2.38 2.36 1.33-.67 3 2.4 1.05 1.93.34 1.87 1.12 3.39.71 1.38 2.49 3.62 2 6.83-.54 3.56 1.03.72-.59 8.27-.31 1.44.5 4.72-3.43 6.79l-.05 1.71c-1.24 1.58-1.09.53-1.01 2.58l-1.29 2.11c1.9 2.94 14.73-9.62 9.44-28.62-5.28-18.96-22.1-14.57-23.66 5.47-.23 2.89-.28 9.29 1.56 12.22zm24.65 125.36c.66 2.12 1.11 4.67 1.48 6.56 1.2 6.2 3.73 10.43 1.42 17.26-2.85 8.38-8.98 10.9-13.09 4.75-4.13-2.73-3.14-18.48-4.09-21.22-1.52 2.51-1.8 7.59-1.88 10.88-.31 12.74 8.13 22.78 15.41 19.34 11.6-5.49 11.81-32.84.88-38.62-.1.51-.13.11-.12 1.07zm-18.62-12.23c-.53.32-2.06-2.03-2.33 3.77-.29 6.14 1.07.88-.1 6.65-.2 1-.3 3.19.09 4.46 1.5-2.23.71-3.62 5.84-10.57-.82-12.51-.93-7.76-3.89-9.42-.81-.45-.34-1.31-1.18.25.24 2.13 1.42 2.56 1.57 4.87zm-71.33-32.7c.72 5.79 2.48 6.38 1.71 12.26-.61 4.65-2.3 6.35 3.84 7.55 5.74 1.12 10.19 5.79 15.07 5.44 1.91-.14 3.45-.5 4.84 2.83 2.28 5.47 5.66 8.31 6.6 11.35 1.29 4.2 2.2 1.29 4.41 6.39 1.04 2.41 2.64 7.08 4.64-.17 3.21-11.64.85-11.44 4.29-9.57.76-1.58.64-18.48.49-20.67-.87-13.27-4.33-18.86-5.13-22.22-1.19-5.05-4.29-6.68-4.91-8.43-1.33-3.74.28-4.48-5.09-5-.66 1.17-.07.86-1.06 1.77-.47-.95-.76-1.91-1.31-2.34-.24 1.13-.07 1.33.3 2.84-3.05 5.95-2.95 1.61-5.86 4.48-3.06 3.01-1.95 1.39-6.1 2.62-.84.32-1.19 1.1-2.13 1.19-2.74.26-6.86 2.91-9.97.73-3.03-2.12-2.35 2.24-2.39 2.89-.18 2.94-.74 3.45-2.25 6.07zM683 101.4V80.7c-5.14-14.67-17.93-44.61-25.97-55.05-3.3 6.11-3.81 18.71-5.86 26.96-2.2 8.85-5.05 16.19-7.76 24.84-6.01 19.2-11.02 31.39-17.6 48.84-6.36 16.87-10.95 28.97-26.82 31.37-15.51 2.35-26.73 6.98-41.12 10.61 3.86-8.21 6.71-10.67 11.47-14.98 5.07-4.57 8.78-7.86 13.32-12.59 29.78-31.05 26.21-46.66 10.75-82.48-6.59-15.27-13.2-28.67-22.67-34.7 9.61 46.14 10.79 65.39-11.68 96.72-9.04 12.61-41.04 41.82-54.22 47.36 23.37-50.14 50.15-51.22 27.45-104.68-3.71-8.74-12.57-28.11-17.61-33.18-.23.64-.46.93-.54 2.02-1.61 21.74-28.81 101.13-42.24 120.98-6.51 9.62-50.86 18.81-58.2 18.61 2.18-1.2 20.21-20.48 25.08-25.01 5.25-4.88 20.77-25.85 23.25-34.53 7.27-25.48-21.54-75.59-32.7-85.7 1.09 34.29 29.91 70.55-46.14 129.65-7.97 6.19-24.69 18.26-31.52 25.84l6.19 37.3c28.02-9.1 56.71-12.45 85.84-17.2-5.58 16.73-29.42 41.81-18.68 71.38 3.55 9.76 24.21 32.24 32.55 40.02 6.47 6.04 1.67 2.66 8.02 5.94-2.31-34.59 2.09-56.63 8.95-84.02 10.12-40.44 14.71-33.45 33.64-13.82 4.21-3.56-.43.76 2.43-3.96 3.7-6.12 3.53-6.47 10.86-7.96l64-11.12c-2.36 11.05-8.26 17.51-15.22 31.93-5.58 11.54-9.65 25.46-2.58 40.23 5.65 11.81 28.76 38.37 40.01 45.73-2.35-41.52 6.37-89.95 18.63-113.19 11.53-2.89 17.47 10.51 25.97 15.64 3.29-29.37 1.1-32.6-6.84-51.1 4.23-11.62 19.82-33.88 27.95-48.11l9.6-17.89z"/><path d="M169.21 280.25v2.85c12.38-.16 9.19 3.06 22.8-3.65 49.14-24.25 46.92 2.03 65.35 23.01 7.93-13.75 4.59-11.57 18.13-16.19 39.78-13.58 56.51 24.51 69.26 16.01 7.93-9.95 29.54-56.77 33.85-75.76-4.6 1.04-50.47 38.11-77.47 10.74 3.21-11.99 34.99-36 53.77-63.74 14.79-21.86 40.61-50.85 41.83-86.77 1.51-44.22-26.84-70.98-51.96-70.97-29.41.01-50.11 19.75-71.13 38.41l20.86 61.67c6.8-4.14 24.8-30.58 32.42-39.86 5.22-6.35 33.29-36.27 40.21-23.74.24.44 3.01.57.34 15.65-4.88 27.57-29.22 68.34-40.9 85.43-9.07 13.26-50.34 64.38-62.75 71.17-.27-.02-75.43-61.87-80.2-90.6-4.83-29.16 16.27-41.72 39.81-17.65 12.71 12.99 27.09 38.88 38.77 49.01 5.51-5.44 27.09-41.09 30.09-48.93-10.22-22.42-79.9-64.55-119.35-19.26-32.42 37.22-13.37 83.67 13.32 113.08 5.2 5.73 19.95 18.98 22.29 26-31.83 5.77-43.52-13.57-66.78-23.54 6.38 28.17 27.61 60.19 27.43 67.63z" style="fill:red"/></g></g></svg>