<svg xmlns="http://www.w3.org/2000/svg" xml:space="preserve" width="77.903" height="83.244" style="shape-rendering:geometricPrecision;text-rendering:geometricPrecision;image-rendering:optimizeQuality;fill-rule:evenodd;clip-rule:evenodd" viewBox="0 0 115.99 123.94"><path d="M34.34 26.45c-1.52.18-.2.19-1.45 1.03l-4-6.34c-4.56-7.47-8.41-8.86-9.87-10.72l-4.27-5.81c-1.31.08-2.06.58-3.2-.1-.5-.3-.59-.46-1.08-.83-.42-.32-.63-.45-1.1-.8C8.26 2.07 6.05.18 4.61 0 2.89 2.17 2.65-1.39 2.43 8.26c-.05 2.09-.65 8.92-.38 10.32 1.99.12 6.38.04 7.74.84 1.5.88 3.48 3.48 4.78 4.04-.2 1.23-.82 2-1.41 2.82l-4.5 8.02c-.41 1.59.83 1.64-.11 3.48-.73 1.42-1.05 1.23-.52 3.06.89 3.08 2.27 6.49 3.22 9.33.38 1.14.58 2.34.93 3.42.75 2.3 2.29 2.99 4.23 4.14l7.73 4.67c1.1.57 1.62 1.34 2.16 2.16l11.97-.84c2.17-.21 1.84 0 4.26-2.42.34-.34.6-.72 1-1.15 1.48-1.58 5.01-4.44 6.52-6.54 1.51.38 4.13 2.19 5.53 2.19 1.29.01 1.9-1.04 1.34-2.35l-3.95-3.74c-2.1-1.91-3.65-3.06-6.01-5.46-.52-.53-.45-.47-1.01-.9-.58-.45-.49-.45-.98-.94-3.66-3.66-2.2-2.45-5.04-6.46-1.37-1.93-5.09-7.28-5.6-9.52zm51.35-.22c-.03.12-4.37 8.18-4.83 9.7-2.75.21-2.14.45-4.23 3.19l-5.56 7.13c-2.17 2.57-2.29 2.59-5.71 4.34-1.69.86-2.21.54-2.88 2.12-.61 1.44-1.21 2.21-1.13 3.95 2.69 1.99 2.95-.27 4.47-1.5.61-.49 4.67-2.1 5.56-2.35l7.29 6.64c1.43 1.34 1.78 2.47 4.29 2.64 9.15.61 5.94-.29 11.9-1.36 5.65-1.01 5.42-1.89 7.51-2.68l7.27-3.24-1.18-1.42c.24-1.14 1.54-3.11 2.24-4.24 1.5-2.4 2.7-3.06 3.06-3.64.66-1.07.55-10.75.51-12.71-2.26-.84-1.99.08-2.75-2.51l-2.29-8.35c-.48-1.98 1.27-2.65 3.1-4.6.55-.58.69-1 1.17-1.47 1.27-1.24 1.65-1.12 1.27-3.93-.44-3.33-.31-6.77-.79-10.15L111.97.78c-1.93-.62-1.08.05-4.33 2.76-.26.22-.65.47-.94.73-.46.42-.31.37-.77.91-.59.7-.96.85-1.63 1.48-2.08 1.96-.9 1.55-4.61 1.76-2.26.13-2.42 1.38-3.4 2.85L85.7 26.21zm-2.04 22.55c10.32-1.44 8.02-1.84 9.66-5.6.84-1.93.53-1.99-.34-3.76-.43-.89-1.6-2.88-1.17-3.83l4.62-5.48c.97-.95.98-1.77 2.32-2.64.94 1.61 1.8 3.43 2.76 5.13 1.01 1.78 2.24 3.44 1.68 6.16-.45 2.2-.76 4.58-1.05 6.86-.45 3.5-.9 3.14-2.87 4.88-1.69 1.49-1.91 2.56-4.75 3.12-6.94 1.37-5.32 2-12.1-1.17-1.89-.88-2.59-1.93-4.18-3.44.4-1.22 2.18-3.05 3.06-3.45.71.46 1.24 2.04 2.36 3.22zM52.7 100.1l-1 3.04-11.76.14c-3.61-.47-8.6.13-12.44-.12-1.47-2.85-.26-3.17-8.02-3.09-3.46.04-7.67-.32-11.02.08-1.1 2.76-2.26 5.41-3.35 8.2-.27.69-.52 1.41-.78 2.12-.75 2.1-1.87 2.8-1.9 6.79-3.52 2.26-3.84 6.67 3.37 6.67l43.65-.1c19.4-.01 38.89.18 58.28-.01l8.27-20.59c-5.86-.04-11.87-.22-17.71-.03-1.42.05-2.89.33-4.08.18-4.29-.53-9.51.15-13.38-.25-.56-1.6-.31-2.9-4.49-3.17-2.48-.16-5.22.11-7.78.09-5.25-.03-10.6-.08-15.84.03zm1.73 2.22 5.54.29-2.89 7.28c-1.04 2.45-1.87 4.98-3.01 7.42l-10.29.04c-4.71-.02-5.83.43-2.72-5.97.97-1.99 1.41-3.8 2.23-5.79l10.06-.06 1.09-3.2zM4.79 116.9c-.2-2.45.38-2.3.92-3.77.43-1.16.7-2.11 1.18-3.17.95-2.11 1.88-4.11 2.7-6.19.63-1.6.98-1.5 3.03-1.41 3.8.16 8.95-.47 12.3.64.14 1.64-.04 2.29-.5 3.65-.63 1.86-.23 1.89-2.23 1.88.68 2.83.63 2.31-.46 4.81-.6 1.38-.96 2.94-1.79 3.96-2.98.17-12.98.37-15.15-.4zm53.36-.03c-.28-2.03 1.77-5.9 2.5-7.67.75-1.83 2.04-5.61 2.99-6.83l4.2-.03c8.3-.07 11.93-1.02 10.22 3.89-.72 2.04-.42 2.26-2.47 2.35.89 2.84.6 2.19-.4 4.65-.59 1.44-1.05 2.76-1.72 4.09-3.06.06-13.22.42-15.31-.44zm43.91.51c-2.13-.09-4.26-.01-6.38-.02-2.73-.01-3.5-.15-2.4-2.99.82-2.12 2.66-7.33 3.82-8.83l5.08.02c-.03 2.56-3.89 7.62-3.36 10.21l3.94.09c.56-.9 1.74-4.11 2.19-5.27.54-1.39 1.43-3.98 2.2-5.05l5.4.03c-.1 1.05-2.56 6.6-3.08 7.96-.54 1.41-1.04 2.76-1.62 4.15-.52 1.27-1.37 2.85-1.68 3.85l-78.66-.18c-3.68-.01-23.14.86-24.97-.4-.17-1.49.26-1.54 1.83-1.55l9.22.06c29.08-.02 58.58.2 87.56-.03.42-.54.75-1.24.93-2.06zm-79.02-3.91c.61-1.5 1.3-2.91 1.89-4.39l4.46-.11c4.43 0 5.79.71 6.02-1.72l-9.51-.09.36-1.56 2.9-.02c15.77-.05 13.21-1.58 7.88 11.74l-8.35.01c-5.97 0-7.5.68-5.63-3.86zm67.29 3.86c-2.62.03-5.25-.03-7.87.01-1.54.03-5.69.62-6.39-.71-.66-1.26 3.15-9.75 3.92-11.06l11.22-.03c4.37.05 3.93.76 1.46 6.24-.71 1.58-1.83 3.96-2.33 5.55zm7.61-38.7c-1.14-.44-1.89-1.19-2.88-1.83-1-.65-1.89-1.05-2.85-1.68-3.08-2.04-2.4-1.54-7.03-2.02l-16.06-1.43c-4.16-.3-4.35 1.34-7.42 1.83-4.32.69-13.83.33-17.18 1.22-1.53.41-16.64 7.45-19.31 8.55-4.42 1.82-8.46 4.02-13.03 5.71.86 5.02.72 3.01 6.39 1.49 4.26-1.14 12.48-4.27 16.7-5.81 5.02-1.84 6.47-2.3 12.52-2.52 1.19-.04 2.34-.09 3.54-.07 2.07.03 7.09-.65 10.85-.51 1.87.07 8.02 3.79 10.06 4.87 1.72.91 13.65 7.73 14.63 7.99 2.74.73 1.68-1.23 5.71.94 2 1.08 8.41 4.94 9.97 5.33.92-1.67 6.42-7.52 7.06-9.23.36-.96.89-3.4.93-4.63-1.39-.6-12.22-7.62-12.6-8.19zm-18.59 1.83c1.89-.01 5.7.14 7.52.42 1.66.25 3.38 1.88 5.04 2.79.8.44.56.48 1.23.93 1.96 1.3 7.01 3.76 8.14 5.15-.71 1.15-1.03 1.54-1.99 2.4L79.35 80.47zM67.14 62.83c-1.01-.51-4.88-1.56-5.89-1.23-.99.32-1.73 1.27-2.7.86-.71-.3-.75-1.06-2.37-1.4-1.89-.41-5.27-.08-6.1 1.2-.63.96-1.9 4.2-.32 5.8 5.22 5.3 4.85.73 7.67.87 1.04.05 1.71.73 2.64 1.15 1.16.51 5.25-.33 6.17-.89 1.42-.86 1.54-4.37.88-6.35zM44.4 115.88h4.65c.46-1.02 3.77-7.99 3.16-8.66-.44-.37.19-.18-.87-.29l-3.47.06-3.47 8.89zm36.2-.05c1.1.03 2.69.09 3.77.06l.95-.06L88.8 107l-1.59-.07-3.09.01-3.51 8.88zm-70.47-.06c5.33.14 3.99.77 5.51-2.9.48-1.16 1.02-2.32 1.32-3.54l-4.32-.02c-.51 1-2.62 5.36-2.52 6.46zm53.22.05 4.49.04c.6-2.24 2.05-4.28 2.39-6.54l-4.3-.01-2.58 6.51zm-36.03-.03 4.93.11c.69-2.76 2.64-4.94 1.12-5.37-.34-.09-.29-.08-.65-.11-1.62-.14-3.34-.26-3.82.81-.2.45-1.51 4.21-1.58 4.56zm39.23-7.88 4.38.02c.64-.87 1.44-3.01 1.74-4.26l-4.49-.06-1.63 4.3zm-53.43-.05 1.41.09 3.22.01 1.6-4.28-4.35.01-1.88 4.18zm11.82-73.13 6.63 5.21c-.4 1.33-2.86 4.15-2.96 4.37-.4.92 1.06 5.61 1.49 5.87.25.15.05.08.47.27l2.94.87c1.19.4 2.72.9 4.15.96.72-.79 2.99-3.23 3.85-3.49 1.64 1.47.24 2.31-.69 3.71l-3.1 4.97c-6.49.62-5.9-.45-10.24-2.61-1.5-.75-2.57-1.55-4.06-2.37-3.56-1.95-2.1-1.23-4.68-8.54-.5-1.41-1.76-3.66-.78-5.03.2-.29.45-.42.74-.7l2.23-2.8c.7-.86.94-.93 1.59-1.76.6-.76 1-1.17 1.45-1.85 1.07.37 1.09.75 1.79 1.35-.28.57-.59 1-.81 1.56z" style="fill:#000"/></svg>