<svg xmlns="http://www.w3.org/2000/svg" xml:space="preserve" width="73.77" height="73.77" style="shape-rendering:geometricPrecision;text-rendering:geometricPrecision;image-rendering:optimizeQuality;fill-rule:evenodd;clip-rule:evenodd" viewBox="0 0 138.59 138.59"><path d="M69.29.27c38.11 0 69.02 30.91 69.02 69.02s-30.91 69.02-69.02 69.02C31.17 138.31.27 107.4.27 69.29S31.18.27 69.29.27zM51.28 54.93l-.02-3.49h.82v.53c.21-.25.4-.41.58-.49.18-.08.37-.12.58-.12.31 0 .62.06.94.19l-.32.54a1.92 1.92 0 0 0-.66-.12c-.2 0-.37.04-.53.12-.15.08-.27.19-.33.32-.1.21-.15.44-.15.69l.01 1.82h-.91zm3.46 1.34-.03-4.82h.83v.46c.19-.17.41-.31.66-.4.24-.09.54-.13.89-.13.46 0 .86.08 1.21.23.35.15.62.37.8.65.18.28.27.58.27.92 0 .36-.09.67-.29.96-.2.28-.48.5-.85.65-.37.15-.77.23-1.18.23-.3 0-.58-.04-.81-.13-.24-.08-.44-.19-.59-.32l.01 1.7h-.91zm.81-3.06c0 .45.15.78.42.99.28.21.62.32 1.02.32s.75-.11 1.03-.33c.29-.22.43-.56.42-1.03 0-.44-.14-.78-.43-1-.28-.22-.62-.33-1.01-.33-.38 0-.72.12-1.02.35-.3.23-.44.57-.44 1.02zm4.93 1.73-.02-3.49h.82v.49c.17-.17.39-.31.67-.41.28-.1.6-.16.95-.15.4 0 .72.05.98.16.25.11.43.26.54.45.42-.41.98-.61 1.66-.61.53 0 .95.1 1.23.29.29.19.44.49.44.88l.02 2.39h-.91l-.02-2.2c0-.24-.03-.4-.09-.51a.63.63 0 0 0-.33-.25 1.5 1.5 0 0 0-.55-.1c-.38 0-.69.08-.94.24-.25.16-.37.42-.37.78l.01 2.02h-.91l-.02-2.26c0-.26-.08-.46-.23-.59-.15-.13-.39-.2-.73-.2-.25 0-.49.04-.71.13-.22.09-.37.22-.47.38-.1.17-.14.41-.14.73l.01 1.81h-.91zm36.19-5.39 1.31-.29c.18.38.45.63.8.76.35.13.77.15 1.27.06.42-.07.78-.2 1.08-.38.3-.18.53-.39.7-.63.16-.24.28-.55.36-.93.08-.38.08-.75.01-1.12-.01-.04-.02-.1-.04-.18-.23.33-.56.62-1.01.88-.45.26-.95.43-1.5.53-.93.16-1.75.07-2.48-.25-.72-.32-1.14-.84-1.27-1.55-.13-.73.1-1.38.69-1.94s1.39-.93 2.4-1.1c.73-.12 1.42-.11 2.07.04.65.15 1.17.43 1.57.85.4.41.68 1.07.83 1.95.16.92.14 1.68-.07 2.28-.21.6-.61 1.09-1.17 1.49-.56.39-1.26.65-2.09.79-.88.15-1.62.12-2.24-.11-.61-.22-1.02-.61-1.24-1.15zm5.07-4.14c-.09-.51-.37-.88-.84-1.1-.47-.23-1-.29-1.6-.19-.62.1-1.12.35-1.52.75-.4.4-.55.85-.46 1.36.08.46.36.8.84 1.01.48.21 1.04.27 1.68.16.64-.11 1.14-.34 1.5-.7.36-.35.49-.79.4-1.3zm-41.49 69.23-1.09.4-1.93-6.08c-.19.31-.47.66-.83 1.03s-.69.68-.99.91l-.29-.92c.53-.47.97-.97 1.31-1.49.34-.52.56-.98.64-1.39l.7-.25 2.48 7.8zm-16.31-12.21.29.91-5.88 2.13c-.08-.23-.11-.46-.08-.71.04-.4.17-.84.4-1.29.23-.46.58-1.02 1.06-1.69.74-1.04 1.22-1.83 1.43-2.35.22-.53.26-.97.15-1.34-.12-.38-.38-.64-.77-.79-.39-.15-.84-.13-1.34.05-.53.19-.9.48-1.13.87-.23.39-.27.82-.12 1.31l-1.15.31c-.16-.76-.04-1.42.34-1.99.38-.57.99-1 1.84-1.31.85-.31 1.6-.35 2.22-.11.63.24 1.04.66 1.23 1.27.1.31.12.64.07 1-.05.36-.19.76-.42 1.21-.23.46-.65 1.11-1.25 1.98-.5.72-.82 1.2-.95 1.44s-.23.47-.3.69l4.36-1.58zM28.73 87.04l1.05-.5c.3.47.63.77 1.01.89.37.12.78.11 1.22-.04.52-.18.9-.47 1.16-.89.25-.41.31-.84.16-1.27-.14-.41-.42-.7-.84-.86-.42-.16-.88-.15-1.39.02-.21.07-.45.19-.74.36l-.14-.83c.08-.02.14-.03.18-.05.47-.16.85-.4 1.16-.73.31-.33.39-.7.25-1.11-.11-.33-.34-.56-.68-.68-.35-.13-.73-.11-1.16.03-.43.15-.74.38-.95.7-.21.32-.28.71-.21 1.18l-1.15.21c-.07-.65.08-1.22.44-1.72.36-.49.89-.86 1.6-1.1.48-.17.96-.23 1.43-.2s.86.16 1.17.38c.32.22.53.5.64.83.11.32.1.64-.02.97-.12.33-.36.64-.71.93.56-.08 1.04-.01 1.43.2.4.22.67.56.83 1.03.22.64.12 1.28-.3 1.92-.42.64-1.06 1.11-1.92 1.4-.78.27-1.49.3-2.14.09-.65-.21-1.11-.6-1.38-1.19zm.33-15.87-.28-1.82-3.81.68-.14-.86 3.24-5.66.88-.16.77 4.95 1.19-.21.14.86-1.19.21.29 1.82-1.08.19zm-.42-2.69-.54-3.44-2.22 3.93 2.75-.49zm2.46-14.47 1.12-.28c.16.46.41.79.75.98.34.19.73.24 1.16.16.53-.09.94-.34 1.24-.74.3-.41.41-.89.32-1.45-.08-.53-.32-.93-.71-1.17-.39-.25-.86-.32-1.43-.22-.35.06-.65.19-.91.37-.25.19-.44.41-.57.66l-1.04.05.23-4.07 4.35-.78.14.9-3.49.62-.14 2.14c.47-.42 1-.67 1.58-.78.76-.14 1.45-.02 2.04.35.6.37.95.92 1.07 1.64.11.69-.03 1.33-.41 1.91-.47.72-1.19 1.16-2.16 1.34-.8.14-1.48.06-2.04-.24-.57-.3-.94-.76-1.11-1.39zm74.56 18.38-1.13.07-.25-6.47c-.26.25-.61.51-1.04.77-.43.26-.82.46-1.17.6l-.04-.98c.62-.31 1.16-.66 1.61-1.08.46-.41.78-.8.96-1.17l.72-.05.33 8.3zm2.73-4.27c-.04-.98.04-1.77.24-2.38.2-.61.51-1.09.94-1.44.42-.35.97-.55 1.63-.59.49-.03.93.03 1.31.18.38.16.7.39.95.72.25.32.45.72.61 1.19.16.48.25 1.12.28 1.94.04.97-.04 1.76-.24 2.37-.2.61-.51 1.09-.93 1.45-.42.35-.97.55-1.64.59-.88.06-1.58-.18-2.11-.72-.63-.65-.98-1.76-1.04-3.31zm1.15-.07c.05 1.36.26 2.25.63 2.68.37.43.81.62 1.33.59.52-.03.94-.29 1.28-.76.33-.47.47-1.39.42-2.74-.05-1.36-.26-2.25-.63-2.68-.37-.43-.82-.62-1.34-.59-.52.03-.92.26-1.22.67-.37.53-.52 1.47-.47 2.83zm-56.02 54.67 1.02-3.47c-.81-.28-1.61-.57-2.4-.87l-.94 2.08-1.66-.69.58-2.21c-5.24-2.23-9.79-4.99-13.67-8.15l-1.51 1.53-1.4-1.29 1.25-1.65c-.52-.46-1.03-.93-1.52-1.41-.64.63-1.46 1.4-1.5 1.33-.07-.11-1.31-1.29-1.31-1.29l1.36-1.5a48.178 48.178 0 0 1-8.94-13.15l-1.73.7-.81-1.82 1.71-.79c-.35-.85-.67-1.71-.97-2.57l-1.88.59-.64-1.84 1.9-.67a51.894 51.894 0 0 1-2.19-14.44l-2.04-.12.18-2.17 1.88.05c.03-.88.07-1.76.14-2.64l-1.99-.06.12-2.12 2.09-.01c.58-4.89 1.82-9.68 3.66-14.19-1.01-.51-1.85-.95-1.85-.95l.87-1.94 1.86.84c.34-.74.69-1.48 1.07-2.2-.88-.64-1.76-1.29-1.76-1.29l1.29-1.73 1.6.97c2.51-4.38 5.64-8.37 9.34-11.75l-1.05-1.57 1.59-1.5 1.23 1.54c.6-.49 1.21-.97 1.83-1.43-.56-.93-1.07-1.74-1.07-1.74l2.02-1.15 1.06 1.49c4.24-2.74 8.72-4.81 13.32-6.26-.31-1.37-.57-2.51-.57-2.51l2.26-.55.7 2.37c.86-.23 1.73-.44 2.6-.63l-.67-2.71 2.26-.14.65 2.41c5.02-.87 10.09-1.02 15.05-.51.36-1.25.73-2.55.73-2.55l2.12.32-.37 2.54c.82.12 1.63.27 2.44.43l.6-2.74 2.03.65-.24 2.62c4.95 1.21 9.69 3.12 14.06 5.69l1.36-1.81 1.79 1.15-1.05 1.96c.65.43 1.29.87 1.92 1.32l1.48-1.63 1.61 1.38-1.12 1.74c3.59 2.89 6.81 6.3 9.51 10.21l2.06-.94.88 1.71-1.62 1.22c.43.7.85 1.42 1.26 2.15.9-.42 1.83-.87 1.83-.87l.94 1.82-1.78.95c2.11 4.25 3.69 8.96 4.61 14.09 1.21-.13 2.49-.27 2.49-.27l.05 2.03-2.19.4c.12.87.22 1.75.31 2.64 1.54-.15 3.07-.31 4.6-.46l5.03-.52-.37-3.06-5.12.68c-1.29-7.23-3.63-13.76-6.81-19.5l4.82-2.82-1.73-2.67-4.61 2.91a55.365 55.365 0 0 0-13.41-14.78l3.15-4.5-2.62-1.84-3.16 4.45a54.287 54.287 0 0 0-19.36-8.1L83.05 9l-3.36-.6-.86 5.97c-6.86-.99-13.99-.71-21.09.96l-1.79-5.96-2.99 1.01 1.92 5.7c-5.68 1.64-11.3 4.17-16.69 7.67-.79.57-1.55 1.15-2.31 1.75l-3.49-4.56-2.03 1.94 3.37 4.41c-5.54 4.8-9.91 10.32-13.12 16.24l-5.28-2.77-1.17 2.93s3.59 1.76 5.11 2.49c-3 6.3-4.74 13-5.26 19.74l-5.41-.4.09 3.14 5.17.2c-.16 6.81.94 13.62 3.26 20.06l-5.04 1.84 1.33 3.11 4.9-1.94a55.27 55.27 0 0 0 11.93 17.49l-3.79 4.05 1.89 1.89 3.96-4c5.02 4.5 11.04 8.31 18.06 11.15l-1.58 5.12 3.13.97 1.69-5.88zm31.24-88.98c-.6-.04-1.06-.16-1.38-.36-.32-.2-.51-.48-.57-.83-.1-.53.12-1.02.64-1.47.52-.46 1.27-.77 2.25-.94.98-.16 1.8-.11 2.46.15.66.26 1.04.66 1.13 1.19.06.33-.02.65-.25.94-.23.3-.61.56-1.14.79.72.03 1.28.17 1.69.44.42.26.67.61.75 1.06.11.62-.14 1.19-.74 1.73-.61.54-1.46.9-2.57 1.08-1.11.19-2.04.13-2.8-.18-.75-.31-1.19-.78-1.3-1.41-.08-.47.03-.89.35-1.27.32-.38.81-.69 1.47-.92zm-.54-1.46c.06.34.28.59.66.75.38.16.84.19 1.4.1.54-.09.95-.27 1.25-.54.3-.27.42-.57.36-.88-.06-.33-.28-.57-.67-.73-.39-.16-.84-.2-1.37-.11-.53.09-.95.27-1.26.55-.31.28-.43.56-.38.87zm.14 3.42c.04.25.18.48.4.69.23.2.54.34.93.41.39.07.8.07 1.22-.01.67-.11 1.19-.34 1.57-.69.38-.34.53-.73.45-1.15-.08-.43-.36-.74-.84-.95-.49-.2-1.07-.25-1.74-.14-.65.11-1.17.34-1.54.69-.38.35-.53.73-.45 1.14zm-20.21-6.65-.06-.9 7.64-.47.05.73c-.72.57-1.42 1.3-2.09 2.21-.68.91-1.19 1.83-1.53 2.77-.24.66-.38 1.38-.41 2.15l-1.49.09c-.03-.6.11-1.35.4-2.23.29-.88.73-1.73 1.33-2.57.6-.84 1.24-1.55 1.94-2.14l-5.77.36zm-15.71 5.13-1.07.18c-.13-.36-.29-.62-.48-.77-.32-.24-.69-.34-1.13-.3-.35.04-.65.15-.91.34-.33.25-.57.59-.74 1.03-.17.44-.22 1.04-.17 1.81.24-.37.54-.66.9-.87.37-.2.76-.33 1.17-.37.73-.07 1.37.1 1.91.51.55.42.85.99.9 1.73.04.48-.05.95-.26 1.38-.21.44-.51.79-.92 1.05-.4.26-.87.42-1.4.47-.91.09-1.67-.13-2.29-.65-.62-.52-.98-1.45-1.08-2.78-.11-1.49.12-2.6.7-3.34.51-.64 1.23-1.01 2.17-1.1.7-.07 1.29.04 1.76.34.47.3.78.74.91 1.33zm-4.21 3.76c.03.33.13.63.31.91s.42.49.72.61c.3.13.61.18.93.15.47-.05.85-.25 1.15-.6.3-.36.44-.81.39-1.36-.04-.53-.24-.94-.58-1.21-.35-.27-.77-.39-1.28-.34-.49.05-.9.24-1.22.58-.32.34-.46.76-.42 1.26zM59.1 78.55l6.77-2.89a5.711 5.711 0 0 0 4.33 1.99c2.9 0 5.31-2.18 5.7-5.02l36.67-19.71-39.15 14.06c-.92-.63-2.03-1-3.22-1-3.18 0-5.75 2.61-5.75 5.83 0 .1 0 .19.01.29l-.24.14-6.81 2.86 1.7 3.46zm11.13-8.94c1.05 0 1.9.89 1.9 1.99s-.85 1.99-1.9 1.99c-1.05 0-1.9-.89-1.9-1.99s.85-1.99 1.9-1.99zm-12.32 50.53c-.89 2.98-1.78 5.96-2.67 8.95 33.87 8.26 75.49-14.09 76.11-61.96-3.07.12-6.16.52-9.23.65-.77 39.11-36.07 60.12-64.21 52.37zM69.29 3.77c36.18 0 65.53 29.34 65.53 65.53 0 36.18-29.34 65.53-65.53 65.53-36.18 0-65.53-29.34-65.53-65.53 0-36.18 29.34-65.53 65.53-65.53z" style="fill:#000;stroke:#373435;stroke-width:.54;stroke-miterlimit:22.9256"/></svg>