<svg xmlns="http://www.w3.org/2000/svg" xml:space="preserve" width="96" height="72" style="shape-rendering:geometricPrecision;text-rendering:geometricPrecision;image-rendering:optimizeQuality;fill-rule:evenodd;clip-rule:evenodd" viewBox="0 0 49.72 37.29"><defs><style>.fil3{fill:#0f0}.fil1{fill:#fff}</style></defs><g id="Camada_x0020_1"><g id="_2483693389584"><path d="M6.29 0h.41c.65.02 1.34.13 1.71.13.57 0 1.01-.2 1.48-.01.53.22 1.19 1.23 1.38 1.28.32.07-.09-1.4 1.14-1.4h.17c.56 0 1.24.01 1.74.09.56.1 1.03-.09 1.43-.09.2 0 .38.04.55.18.12.1.14.17.28.27.31-.09.37-.45.73-.42.39.03.75.03 1.15.03.75 0 1.42.07 2.23.07h4.58c1.54 0 2.99-.07 4.58-.07h4.58c1.09 0 .35.26 1.11.27.32 0 .69.01 1 0 .32-.02.54-.07.94-.07 2.02.01 4.6-.02 6.36.83.22.11.39.2.58.33.2.14.35.21.55.37.92.69 2.47 1.8 2.49 3.18.01.37.09.55.05.91-.05.45-.22.44-.29.66l1.35.66c.28.14 1.12.53 1.12.91v.86c-.01.12-.03.24-.06.39l-1.82.2c0 .55-.17 1.68-.65 1.96.09.2.23.91.29 1.18.45 1.98-.05 2.33-.11 3.02-.04.43.16.98.1 1.48-.08.68-.36 3.44-.85 3.89-.26.24-2.11.34-2.54.44-.55.13-.56.49-.88.59.05.67 1.36 1.76.82 3.01 1.67 0 1.47.31 1.47 2.68.65-.06.39-.84 1.88-.46.02 1.11.58 1.55.63 1.72.12.4-.01.77.68 2.31.25.56.57.97.57 1.2 0 .95.19 1.13-1.06 1.24-.05-.25-.11-.28-.2-.49-.46-1-.78-2.4-1.38-3.04l-.59.33c.05.12.09.54.26 1.02.12.33.24.57.41.85.29.48.7 1.01 1.33 1.07-.04 1.98-.61.94-1.53.92v.46c.3 0 .32-.07.65-.07 1.92 0 1.7-.27 1.7 1.7H7.03c-.24 0-.47.12-.65.19-.57.22-1.27.47-1.91.53h-.52c-.69-.08-1.21-.54-1.21-1.77-.36-.09-.44-.09-.66-.37-.35-.44-.28-.91-.28-1.52 0-1.16.82-3.83 1.12-5.23-1.6 0-1.88-.4-1.88-1.9-.21-.05-.66-.29-.78-.45-.17-.23-.26-.6-.28-1.03v-.55c.07-1.49.62-3.45.83-4.18.17-.61.39-1.34.51-1.99.19-1.01.41-1.29.54-1.95-1.74 0-.76-.02-1.7-.26.06-.85.32-1.57.55-2.26.24-.71.47-1.37.72-2.07.26-.71.45-1.38.7-2.09.25-.7.44-1.33.69-2.05.25-.73.45-1.39.69-2.11.46-1.38.91-3.05 1.34-4.26.12-.33.25-.68.45-.93.17-.21.53-.29.96-.31z" style="fill:#282829"/><path class="fil1" d="M9.34 13.15c0 .51-.57.86-.35 1.57.16-.09.12-.15.27-.35.36-.47 1.14-.94 1.83-.67.27.11.14.16.37.24.01-.26.03-.2.09-.42l1.24-5.3c.04-.2.05-.29.1-.48.04-.16.06-.26.11-.47.05-.26.02-.27.23-.33l-.88 6.8c.07.04.11.06.2.11.22.12-.04.08.21.08.2 0 .33-.44.94.01.53-.15.2-.26.94-.13.01-.19.05-.28.11-.46.06-.15.09-.25.15-.43l1.83-5.35c.09-.29.19-.68.37-.83.08.2.01.3-.04.47l-1.37 5.68c-.15.63-.37 1.43-.47 2.09.16-.12.37-.5.5-.68.25-.34.69-.96 1.12-.26.73-.55.58-.02.96.09.09-.18.18-.57.23-.79l.39-1.66c.06-.3.12-.58.19-.83l.48-2.08c.04-.2.06-.2.11-.4L20.97.85h-3.82l-2.01 6.6c-.07.28-.02.25-.22.4-.04-.2.08-.89.14-1.21.04-.21.06-.2.09-.42l.28-1.78c.12-.58.19-1.17.27-1.79.06-.49.26-1.37.27-1.79h-3.88c-.02.22-.1.52-.16.74-.07.27-.13.55-.18.78L9.31 12.74c-.05.35.02.09.02.42zM4.82 10.73c0-.27.05-.34.12-.52l1.6-5.67c.07-.29.26-1.11.45-1.26 0 .5-.23 1.41-.34 1.98l-.71 3.91c-.37 2.05-.13 1.76-1.12 1.76v-.2zM.88 15.57c.33 0 1.26.05 1.52-.01.24-.06.58-.5 1.13-.51.31-1.5.32-1.24 1.35-1.24.4 0 .01.63.08 1.16 1.22.09.76.2 1.39-.44.13-.13.41-.41.59-.46-.09-.31-.24-.18-.24-.52s.34-.23.6-.32c.72-.23.7-.4.76-1.12l.62-4.34c.08-.6.17-1.17.23-1.7.04-.38.09-.55.13-.84l.6-4.37H5.7c-.04.19-.08.23-.14.43l-4.08 12.4c-.1.31-.21.59-.31.9-.06.19-.27.8-.29.99zM29.91 10.92c0-.39.63-2.42.78-2.93l.82-2.88c.07-.31.16-.62.26-.95.2-.68.13-.75.38-.83-.01.36-.12.65-.18.97l-.9 4.89c-.06.35-.11.6-.18.98-.16.89-.05.75-.97.75zM34.55.85h-3.76c-.01.34-.65 2.04-.82 2.62-.03.09-.03.12-.05.2-.06.19-.09.23-.16.41-.1.28-.16.52-.25.77l-1.07 3.2c-.32.98-1.81 5.38-1.82 5.69.63.16 1.3-.4 1.51.58.05.23-.04-.02.04.14 0 .01.1.16.11.18.08.2.02.22-.07.4h.41c.11-.26.26-1.24.53-1.24 1.52 0 .99-.16.88 1.24.72 0 1.45-.01 2.18 0 .85.01.45.35.78-1.49l.58-4.26c.03-.32.14-.66.16-1l.73-5.34c.02-.14.07-.32.09-.49l.19-1.69c-.07.04-.06.07-.18.07zM34.61 6.08c.91-.24.79-.34 2.16-.54 1.3-.19 3.14-.19 4.42.15.23.06.46.08.69.14 1.72.49 2.13.61 3.63 1.26l2.74 1.34c.44.26.3.27.81.27 0-.06.01-.13-.01-.19-.07-.3-.81-.62-1.09-.75L45.09 6.5c-.2-.09-.14.04-.21-.23.32-.17 2.06-.04 2.06-.72 0-.65.01-.41-.21-.87-.13-.27-.11-.24-.3-.45-1.07-1.16-1.63-2-3.34-2.62-.92-.33-2.74-.76-3.67-.76-.71 0-1.72-.05-2.37.1-2.41.58-1.57-.03-2.18 3.14l-.27 1.99zM27.72 25.05c.45.2.37.04 1.11.02.14-.01.29-.02.44-.02l1.14-4.94c.09-.21-.03-.15.21-.23l-.64 4.87c-.05.43.02.32.36.34.23.02.53-.04.72-.14.05-.03.22-.14.26-.17.2-.16.1-.01.23-.4l1.72-4.63c0 .27-.06.37-.1.54-.06.21-.09.37-.14.57l-.82 3.34 1.42-.84c.25-.19.25-.14.64-.14.03-.38 1.7-6.93 1.7-7.46h-2.53c-.16 0-.16.07-.29.47-.07.23-.12.41-.19.64-.13.39-.25.78-.39 1.2-.25.78-.55 1.65-.72 2.47-.31-.23-.09-.22 0-1.04.09-.79.54-3.1.58-3.73H29.9c-.17.36-.41 1.67-.57 2.25-.06.24-.09.31-.14.56l-1.48 6.48zM18.04 13.89c.3-.17.47-.24.68 0 .13.14.13.19.14.43.54-.32.7-.59 1.41-.59.2 0 .23.08.43.15.14-.35.81-1.15 1.04-1.53h-.47c-.07-.23.35-2.06.48-2.47.06-.2-.03-.26.3-.33l1.34-.01.57-2.38c.06-.2.1-.4.14-.58.09-.38.22-.26-.88-.24-.72.01-.56-.12-.41-.79.05-.21.07-.35.12-.53l.24-.97h1.35l.76-3.21h-4.17c-.01.29-.28 1.26-.36 1.63l-1.33 5.65c-.07.36-.13.49-.2.83-.05.27-.11.53-.19.84l-.2.83c-.06.27-.1.53-.18.78l-.6 2.49z"/><path class="fil1" d="M24.68 4.06h1.18c0 .3-.31 1.51-.4 1.91l-.88 3.73c-.1.43-.42 1.61-.42 1.95l.07.06c.01.01.03.02.03.03.87.69.02.86-.24 1.14-.22.23-.33.45-.39.87.21.12.22.1.35.33.2-.15.52-.26.79-.3.85-.15 1.51.33 1.71-.25l1.11-4.78c.1-.46.21-.93.32-1.35l.65-2.75c.16-.67 0-.57 1.07-.57L30.69.87H25.4c-.02.29-.12.53-.17.79-.06.31-.12.5-.18.78-.07.28-.12.49-.18.78-.07.32-.17.47-.17.86zM35.02 25.84c-.29 1.41-.84 3.44-1.19 4.96l-.77 3.39c-.06.22-.1.34-.1.61 1.67 0 1.25.19 1.54-.83.03-.12.05-.24.08-.37.1-.48.24-.89.32-1.34l.76-2.75c0 .47-.41 3.37-.5 4.08-.18 1.44-.38 1.21.8 1.21.17 0 .15-.08.21-.22.07-.16.06-.15.12-.33l.73-2.13c.16-.45.32-.94.46-1.38l.36-1.04c.08-.19.04-.2.24-.26l-.93 4c-.1.37-.27.96-.3 1.37.52 0 1.19-.06 1.59 0 .16-.74-.14-.49-.29-1.11-.01-.06-.04-.18-.05-.21-.26-.64-.5.68-.36-1.75.05-.83.26-1.1.88-1.44.37-.21.4-.19.94-.19l1-4.25h-2.47c-.02.26-.08.34-.15.55l-.83 2.67c-.13.47-.17.87-.37 1.03-.12-.28.59-3.79.59-4.32-.34.18-1.77.07-2.29.07zM2.82 23.68c-.32 0-.22-.37-.16-.64l.93-3.88c.13-.53.22-1.31.53-1.31.19 0 .29-.03.29.2 0 .33-.87 3.69-1 4.38-.11.58-.2 1.25-.58 1.25zm-2.29.98c0 1.17.39.96 1.23 1.18-.04.54-.39 1.48.32 1.67.22.06.77.09 1.03.09l.29-.98c0-.23-.12-.1-.12-.33 0-.91.43-.25 1.08-1.16.34-.47.2-.76.33-1.27l1.35-5.76c.1-.46.25-.82.31-1.34-.5.13-.88-.12-.88-.68 0-.24.17-.33-.12-.38l-.82-.01c-2.36 0-2.23 1.35-2.95 4.18-.18.71-1.05 4.36-1.05 4.78zM39.43 16.68c0-.37.3-.46.52-.6 1.07-.65 1.75.06 1.83 1.19-.1.06-.1.05-.18.13-.37-.27-.23-1.11-.94-1.11-.57 0-.71.64-1.23.65v-.26zm-2.06-1.05c0 .51.14 1.24.29 1.57.36.79.86 1.24 1.5.62l.06-.06c.39-.38.76-.83 1.31-.83.46 0 .76.55.13.67-.18.03-.36.07-.54.12.01.55.2.18.24.65-.72-.07-.59-.46-.59 1.64-1.32 0-.21 1.29-.12 1.44-.15.69-.72.71-.08 2.97.26.91.2.59.91.64.12.01.02-.01.17.01.52.07.47.49.47.83.27-.43.13-1.24-.06-1.24-.42 0-.19.19-.53-.07.18-.3.13-.14.47-.13 0-1.49.05-1.04-.1-2.24-.04-.3-.08-.55-.08-.83-.53 0-.25.03-.41-.07.35-.59.41.42.41-1.11 0-1.41-.32-1.52-.35-1.9.15.01.09.02.14.04l.13.05c.01.01.03.01.04.02.55.2.49.13 1.01.25.25.06.47.09.67.17.19.07.41.19.65.2 0-.85-.52-1.44.26-1.01.55.31.55.49.81.81.24.3.32.27.58.27.11-.53.27-.47-.21-1.46-.12-.25-.1-.19-.24-.39-.18-.26-.05-.19-.33-.48l-.06-.06-.03-.03c-.68-.79-2-1.39-2.93-1.98-.15-.1-.23-.13-.4-.2-.29-.13-.7-.18-.99-.13-.23.03-.34.09-.56.1-.22-.37-.81-1.35-1.27-1.03-.27.19-.32.49-.31.96 0 .44-.06.73-.06 1.24zM17.04 24.66c.2-.06.21-.18.41-.17.16 0 .3.13.36.31.37-.2.43-.44.88-.33.07-.34.12-.61.21-.94.09-.34.15-.59.22-.94.05-.28.14-.65.21-.95.04-.18.06-.29.1-.47.07-.29.01-.22.2-.36.05.26-.36 3.44-.33 3.77.34-.04.31-.17.8-.17.18 0 .16.08.35.13.06-.23.84-1.36 1.15-1.6.41-.33.34-.18.54-1.16.08-.38.13-.55.22-.93.07-.3.14-.66.22-.94.09-.33.4-1.54.4-1.9-.23-.01-.14.02-.29-.07.07-.35.29-.99.29-1.31-.34.06-.42.42-1.18-.07l-.94 3.6.19-1.69c.09-.4.09-.89.14-1.23l.03-.29c-.01-.19-.2-.23-.48-.39-.08.05-.37.26-.47.26-.3 0-.58-.18-.65-.46-.25.06-.66.28-.73.56-.03.12-.02.15-.05.27l-.2.83c-.1.37-.19.72-.26 1.08l-1.19 5.03c-.04.21-.04.37-.16.54zM4.23 32.71c0-.31.85-3.72.92-4.02.14-.64.14-1.02.55-1.02.24 0 .1.45.06.66l-1.09 4.49c-.13.2-.45.18-.45-.11zm-1.88 1.24c0 .93.74.82 1.12.92-.02.97-.42 1.57.82 1.57H5v-.79c0-.31-.32-.17-.07-.78.31-.24.42-.09.76-.47.45-.51.21-.78.58-2.04l1.26-5.41c-.41.22-1.82.68-1.82-.26 0-.55-.03-.21.12-.58.07-.17.08-.19.17-.33-2.04 0-1.93.74-2.56 3.23-.11.42-.16.79-.28 1.19l-.58 2.43c-.07.3-.22.95-.22 1.32zM6.46 16.75c0 .45-.51 2.31-.63 2.89l-1 4.25c-.07.27-.07.5-.11.81-.06.46.05.45.35.38.56-.13 1.03-.01 1.51-.1.26-.05.72-.58 1.12-.58.41 0 .66.1 1 .13l.94-4.19c.07-.22.08-.35.14-.62l.57-2.38c.17-.62.15-.43-.24-.61-.51-.23-.01-.18-1.24.14l-.26 1.28c-.04.16-.08.25-.12.45l-1.03 4.41c-.18.86-.64.8-.64.4 0-.39.11-.61.18-.91l1.04-4.4c.07-.36.13-.56.2-.89.02-.11.09-.34.09-.42.02-.29-.1-.23-.1-.44 0-.3.13-.33.24-.55-.6.03-.95.94-2 .94zM16.22 18.25c.13-.49.59-.52.59-.19 0 .41-.56 2.53-.66 3l-.35 1.45c-.12.62-.18 1.18-.58 1.18-.22 0-.18-.14-.18-.46l1.17-4.97zm-.94-1.37c-.4 0-.17-.02-.47-.09-.13.52-.28.83-.48 1.71-.13.58-.28 1.14-.41 1.76-.05.25-.15.62-.21.88-.15.65-.55 2.19-.62 2.73.19-.11.25-.29.42-.3.19 0 .42.13.42.49 0 .22-.26.43-.35.59 0 0 1.45-.7 1.53.2.56-.14.36-.2.72.24.06-.04.12-.08.18-.15.72-.76.38-.59.98-.42l.89-3.85c.1-.45.84-3.47.89-3.94-.44.14-.5.02-.78-.24-.15.06-.92.74-1.12-.22-.21.11-.65.8-1-.2-.19.2-.2.18-.29.4-.07.18-.09.38-.3.38z"/><path d="M5.41 35.46v.59h43.02c-.08-.51.32-.72-1.24-.65-1.19.06-3.44 0-4.64 0l-29.92.03c-1.28-.09-6.46-.05-7.22.04z" style="fill:#00fe00"/><path class="fil1" d="M26.74 33.82c0 .45.01.75.41.91.44.18 2.14.24 2.65-.18.35-.29.35-.52.47-1.05l1.63-6.95c.08-.27.12-.35.12-.72h-1.29c-.13.61-.3 1.2-.45 1.86-.08.36-.14.57-.21.94-.03.15-.08.27-.12.45l-.78 3.32c-.11.43-.16.6-.55.5 0-.92.52-2.64.73-3.57.06-.28.14-.58.2-.82.08-.3.12-.58.2-.89.1-.37.39-1.5.39-1.79-2 0-1.55-.18-1.8.87-.28 1.19-1.61 6.61-1.61 7.11zM15.51 27.34c-.2 0-.32-.22-.39-.37-.14.2-1.84 7.31-1.84 7.83h1.35c.02-.33.17-.77.24-1.11.05-.23.07-.23.13-.51l.63-2.83h.18c-.01.34-.13.77-.16 1.06-.1.8-.13 2.1-.26 3-.07.5-.2.39 1.36.39.16 0 .16-.03.29-.07.08-.19.18-.68.24-.92l1.32-5.6c.06-.27.21-.74.19-.99-.5.06-.32.1-.74-.22-.15.05-.45.22-.52.4l-.45 2.04c-.06.29.06.23-.2.3 0-.71.39-2.68.19-2.88-.12-.05.04-.05-.08.01-.11.05-.37.4-.67.03-.23-.28.08-.12-.22-.24-.04.08-.07.12-.11.19-.05.09-.06.13-.1.22-.09.18-.12.25-.36.25z"/><path class="fil1" d="M26.03 26.49c-.28 0-.73-.33-1.04.41-.15.37-.05.44-.49.44-.04.49-.39 1.58-.51 2.18l-.37 1.62c-.27 1.2-1.09 3.31-.09 3.63.42.13 2.13.24 2.66-.3.5-.52.38-.76.53-1.56.1-.53.26-1.11.4-1.65.08-.29.13-.56.2-.83.06-.25.17-.64.18-.92h-1.53l-.35 1.52c-.06.27-.05.22-.01.38 0 .01.01.03.02.04.06.23-.09.76-.17 1.09-.09.38-.55.75-.55-.03 0-.18.1-.37.15-.62l.68-2.91c.04-.18.06-.2.1-.35.07-.26.06-.42.16-.67.11-.28.17-.29.5-.29 0 .84-.12.68-.12 1.18 1.77 0 1.17.26 1.59-1.24.38-1.33.51-1.84-.77-1.84-.21 0-.75.72-1.18.72z"/><path class="fil1" d="m20.65 27.17-.92 3.88c-.15.66-.33 1.28-.45 1.92-.39 2.07-.91 1.84.77 1.84.14 0 .12-.02.24-.07 0-.46.27-1.25.36-1.69l.51-2.25c.06-.3.01-.37.25-.44l-.4 4.01c-.08.58-.08.43 1.63.43.33 0 .27-1.16.43-1.88.13-.59.33-1.29.44-1.86.07-.37.13-.55.22-.94l.68-2.78c-.11-.06-.53-.23-.59-.23-.06 0-.55.18-.64.23-.11.21-.53 2.13-.53 2.42h-.18c0-.56.34-2.24.25-2.55-.51-.26-.52.43-1.25-.21-.01.01-.02.02-.03.04l-.11.15c-.26.27-.43.04-.67-.03zM6.11 34.02c0 1.31 2.64.76 2.76.71.25-.1.59-.37.68-.68l.25-1.16c.17-.68 1.25-5.14 1.32-5.75-.59.26-.45 0-.72 0-.23 0-.43.11-.65.13-.01.26-.12.59-.17.79l-1.11 4.65c-.07.14-.79.8-.29-.98l.73-3.11c.06-.29.31-1.17.29-1.4-.34.17-.72.2-.9-.25-.1-.26-.06-.4.03-.62-.85.25-.8 1.35-1.11 2.49-.13.47-1.12 4.58-1.12 5.16zM24.68 24.4c.26 0 .28.06.53.07.26 0 .31-.07.52-.05.97.06.47-.02 1.12-.02.11.19.25.3.29.59h.41c.03-.41.26-.93.29-1.37-.26 0-.58.02-.83.01-.4-.02-.31-.19-.21-.51.16-.5.19-1.04.39-1.46 1.32 0 .93.17 1.15-.61.08-.28.1-.51.18-.78.09-.3.08-.51.19-.77h-1c0-.39.22-1.28.35-1.57.28 0 .62.02.89.01.38-.02.26-.15.37-.57.07-.28.11-.49.18-.78.07-.25.15-.53.15-.81-.63.15-2.02-.15-2.86.16-.15.06-.15-.05-.26.54l-.85 3.57c-.13.51-.23.94-.34 1.45l-.59 2.55c-.04.18-.06.17-.09.36zM11.99 16.88c-.23 0-.42.01-.53-.46-1.03.7-.66-.22-1 1.05l-1.53 6.54c-.11.44-.25.72.03 1.1.42-.21.07.1.51-.44.21-.27.39-.29.72-.21.55.14.36-.01.74-.01.48-.01.46.22.71.29.07-.18-.02-.36.11-.66.1-.22.07-.14.29-.34l-1.11-.12c0-.69.06-.58.17-1.12.06-.31.13-.6.24-.84h1l.53-2.16h-1c0-.43.22-1.29.35-1.57h1.29c.15-.32.44-1.68.53-2.09-.25.02-.14.07-.53.07-.48 0-.36-.39-.81.27-.2.29-.21.71-.71.71zM30.17 34.78c.54.06 2.15.08 2.62-.04.02-.31.13-.57.2-.89.06-.28.19-.7.21-.94-1.37 0-.94.09-.67-1.4.06-.31.02-.4.32-.43.18-.02.51 0 .71 0 .11-.26.16-.62.23-.92.07-.31.17-.67.24-.98h-.88c0-.34.2-1.21.29-1.44h1l.41-1.9h-2.64c-.04.48-.75 3.15-.9 3.91l-.52 2.24c-.1.5-.65 2.53-.62 2.8zM34.08 9.94l1.09.23c.21.06.17.08.22.15.04.06.07.13.11.21.09.17.1.2.34.2.07-.34.06-.56.06-.98.31.09.12.2.48.71.01.01.02.03.03.04l.11.13c.09.1.01.04.16.15.58.44.94-.14 1.16-.46.43-.64.61-.95 1.22-1.39.8-.59 1.83-1.04 2.79-1.08l1.18-.07c.4.03.75.07 1.23.07v-.07c-.31 0-.36-.09-.62-.16l-1.94-.45c-.55-.15-2.66-.3-3.25-.3-1.09 0-2.17.26-2.98.61l-.44.23c-1.08.63-.63.81-.93 2.24zM13.05 27.28c-.3 0-.43-.02-.59-.26-.8.54-.83.08-1.12 0-.06.3-.16.68-.22.93l-1.6 6.86c.57 0 2.54.08 2.94-.07 0-.5.35-1.52.35-1.83-.52 0-.74.05-1.18-.07l.31-1.48c.11-.39.24-.28 1.04-.28.01-.32.38-1.46.41-1.9-1.1 0-.92.13-.75-.77.04-.22.11-.44.16-.67h1.23c.03-.23.08-.31.13-.57l.16-.61c-.31.2-.84.72-1.29.72zM25.45 16.88c-.55 0-.57.01-1-.33-.95.56-1.03.15-1.23.2-.15.03-.15.23-.23.59-.15.68-.27.58.64.58 0 .51-.11.82-.25 1.36l-.54 2.28c-.48 1.85.05 1 .61 1 .4 0 .84.65.27.96-.26.14-.76.75-.78.92.25-.05.32.11.51.22.17-.07.41-.13.55-.2l.19-.81c.07-.38.13-.52.2-.89l.71-3.06c.5-1.83.14-1.78.93-1.78.17-.36.15-.56.27-1 .06-.21.07-.33.11-.53.04-.15.1-.35.14-.49l-.41-.07c-.25.42-.16.04-.51.81-.06.14-.06.16-.2.24z"/><path class="fil1" d="M38.08 11.64c0-.35.08-.59.19-.83.09-.19.28-.46.4-.6l.5-.49c1.89-1.64 4.3-1.26 6.46-.73.72.18 1.45.54 1.04 1.49-.19.45-.34.64-.64.98-.18.2-.35.41-.53.58l-.87.73c-.16.1-.19.12-.33.22-1.27.93-3.02 1.04-4.41.37-.65-.32-1.8-.87-1.8-1.72zm-1.06-.2c-.45 0-.5-.02-1.01-.25-.69-.31-1.01-.51-1.81-.62-.25-.03-.24-.08-.24.41.92.02 2.41.76 2.41 2.16 0 1.12-.41 1.35-.53 1.9.27 0 .22.05.37-.11.03-.03.15-.26.18-.32.3-.62.78-1.59 1.51-1.59.68 0 1 .36 1.81.66 1.34.5 3.08.58 4.39-.11.6-.31.93-.54 1.41-.99.66-.61 1.8-2.43 1.8-3.23 0-.36-1.6-.73-1.91-.81-2.68-.75-5.97-.81-7.48 2.2-.18.37-.35.71-.89.71zM18.75 34.74c0-.32.22-1.06.3-1.43l.43-1.87c.22-.98.63-2.47.8-3.36.06-.33.14-.65.23-1.01-.65.28-.56.34-1.12-.15-.54.33-.38.22-.54.88-.09.36-.19.81-.28 1.19l-1.12 4.77c-.18.69-.34.98-.05 1.05.36.09 1.08.01 1.35-.06z"/><path class="fil1" d="M41.49 14.52c.06.26.32.3.76.46 1 .36 3.52.92 4.33.24l.23-.27c.58-.79.04-2.6-.27-3.11-.24.18-.24.28-.43.51-.14.16-.32.38-.47.52-.38.35-.69.55-1.14.83l-.5.23c-.96.45-2.27.47-2.52.6zM42.78 20.02h.29c-.01.6-.3.27-1.14.5-.43.12-.86.29-.86.87 0 1.93 2.53-.55 2.53-.98 0-.41-.62-.77-.89-.9-.39-.2-1.72-.89-1.68.11.04.94 1.27.4 1.75.4zM40.08 30.61c.72 0 1.15-.49 1.6-1.17.18-.26.33-.54.45-.88.34-.94.16-.9-.34-.9-.13 0-1.04.36-1.14.5-.1.16-.56 2.24-.57 2.44zM43.37 26.36c-.44-.04-.21-.48-.71-.52-.16.74-.59.64.03 1.54 1.69 2.49 1.12 1.41 2.03 1.14l-1.22-1.79c-.1-.22-.03-.13-.02-.19l.05-.19c.05-.18 0-.09.07-.25.06-.14.14-.18.23-.33-.6 0-.37.31-.47.59zM45.72 19.76c0 .59.03.36.12.78.29-.01.32-.07.53-.65.29-.79.64-2.74.49-3.56-.05-.27-.03-.19-.14-.37-.52.38-.82 2.05-.88 2.68-.04.41-.12.65-.12 1.11zM41.31 23.42c0 1.66.71 1.61.71 1.18 0-.13-.28-1.05.12-1.05.29 0 .59.37.8.55.12.11.25.28.39.28.5.01-.47-1.42-.76-1.64-.32-.23-.79-.24-1.03.07-.08.11-.22.42-.22.6zM40.72 27.8c.24-.07.5-.32.68-.49l.03-.03.03-.03c.63-.6 1.22-1.81.73-1.81-.12 0-.78.73-.97.89-.27.23-.31.47-.43 1.03-.04.18-.04.29-.08.44z"/><path class="fil1" d="M44.07 25.84c-.11.54-.06.7.23 1.37l.41.85h.18c.1-.49.17-1.63-.19-2.08-.15-.19-.37-.23-.63-.14zM33.26 25.32h.88c.06-.26.85-1.02 1.06-1.37-1.37 0-1.02-.19-1.61.82l-.33.55zM42.72 29.96c.25-.08.51-.45.76-.52-.02-.24-.13-.36-.34-.66-.17-.25-.37-.43-.42-.64-.12.04-.19.04-.33.35-.18.39-.25.7.02 1.04.15.19.18.24.31.44zM37.02 19.95v-2.16c-.38.1-.72.66-.74 1.06-.01.39.43 1 .74 1.09zM41.19 34.34l1.12.07c.71 0 .48-.05 1.06.2-.03-.39-.13-.23-.5-.29-.27-.05-1.63-.26-1.67.03zM40.49 31.6l.76-.59c-.39 0-.5.05-1 0 .07.33.17.26.24.59zM39.43 34.28c.73.39.09.33 1 .33 0-.3.02-.39-.15-.62-.01-.01-.02-.03-.03-.04l-.18-.19c.1.48.18.02.18.79h-.35c-.2-.43-.38-.42-.41-.79h-.12c.02.25.06.21.06.52zM40.55 33.75c.05.24.05.18.16.35.1.15.12.22.19.37l.23-.07c-.21-.34-.1.02-.15-.46-.02-.17-.08-.08-.14-.32-.11.06-.19.07-.29.13zM39.43 33.49c.31.08.4.08.47-.2-.27 0-.27 0-.47.2z"/><path class="fil3" d="M19.9 15.57c.22-.06.08-.07.29-.13-.31.73-.31.81 0 1.05.41-.11.63-.68 1-.78-.03.45-.24.52.12.78.1-.47 1.16-1.61 1.53-1.7-.04.17-.33.64-.44.82-.39.65-.1 1.1.41.66.2-.18.16-.28.43-.3.03 1.26 1.57-.04 1.98-.61.18-.25.14-.47.49-.51-.01.55-.97 1.17-.47 1.7l.69-.93c.26-.3.45-.73.9-.77-.12.26-.17.38-.12.65.55.15.24-.01.65-.13-.1-.07-.17-.02-.24-.2.13-.17.25-.3.39-.48l.2-.24c.08-.15.04-.2 0-.38-.62 0-.93.73-1.35.85.3-.5.41-.34.41-.59 0-.72-.74.24-1 .39-.34-.2-.19-.21-.41-.39-.36.11-.24.28-.34.6-.05.17-.85 1.35-1.42 1.36.04-.55.46-.95.71-1.3.56-.75.83-.65 1.11-.92-.76 0-1.3.44-1.78 1.03-.11.14-.14.23-.24.38-.17.26-.37.4-.62.55.04-.49.59-1.06.84-1.43.15-.23.09-.32-.01-.53-.5.13-1.02.74-1.53 1.11.04-.21.55-1 .72-1.22.49-.64.75-1.08 1.3-1.62.14-.14.1-.01.15-.23-.46-.24-.71.09-1.08.63-.29.42-.55.74-.83 1.17-.15.22-.26.37-.4.6-.3.48-.95 1.4-1.45 1.53.09-.41.34-.78.55-1.09l.65-.98c.12-.18.19-.33.32-.49.13-.17.22-.28.35-.46.32-.44.68-.73.72-.9-.58-.34-.77.24-1.45 1.13-.12.16-.2.33-.32.49-.23.33-.42.66-.64.99-.24.38-.55.49-.76.85zM20.84 26.04c.13.42-.01-.23.12.2-.18.37-.13.32-.06.65.17-.05.08-.02.18-.13l.48-.65c.03-.04.05-.06.08-.1.03-.04.06-.06.09-.09.19-.2.36-.4.64-.47-.42.88-.6.81-.47 1.44.69 0 .37-.41.88-.46.01.51.14.46.47.46.58 0 1.13-.75 1.44-1.21.13-.19.02-.14.26-.16-.1.48-.53.65-.53 1.24 0 .25-.02.02.06.2.18-.05.13-.06.23-.21.33-.52.42-.57.75-1 .26-.33-.04-.15.26-.49.01-.01.4-.35.02-.49-.14-.05-.15.03-.23.12-.19.23-.24.43-.51.43-.28 0-.1-.23-.41-.33-.27.2-.12.2-.26.56-.09.25-.2.29-.35.47-.15.19-.17.28-.35.46l-.23.2c-.17.11-.07.08-.34.08.24-1.14 1.58-1.96 1.59-1.96-1.39 0-1.58 1.5-2.35 1.7.1-.47 1.35-1.7.65-1.7-.12 0-.46.31-.58.4-.25.19-.3.37-.6.45.09-.39 1.06-1.65 1.38-2.07.32-.42.41-.22.44-.62-.31-.08-.31-.2-.92.61-.53.7-1.39 2.13-1.84 2.47zM10.09 26.49c.31-.65.38-.68.75-1.2.15-.21.13-.25.07-.51-.49.01-.49.36-.82.46.13.37-.18-.27.06.07.24.35-.23.3-.48 1.1-.04.14-.03.47.13.47.37 0 .28-.24.59-.33.14.12.13.09.18.33.34 0 .2.03.65-.33.18-.14.34-.32.53-.46-.02.2-.3.79.06.79.37 0 .39-.35.76-.46.02 1.16 1.4.01 1.77-.51.2-.29.16-.47.64-.47-.13-.19-.02-.04-.14-.11-.47-.28-.17-.14-.45-.35-.09.13-.02.01-.09.1-.15.22-.09.25-.16.47-.08.22-.53.72-.7.92-.19.21-.21.28-.57.28.11-.26.09-.36.26-.63.25-.39.67-.9 1.04-1.13l.29-.2c-.27-.06-.45.04-.72.18-.86.44-.95 1.35-1.63 1.52.05-.26.19-.43.33-.61l.19-.25c.09-.18.04-.19 0-.39-.31.03-.58.49-.95.78-.25.2-.42.38-.7.4.32-.67 1.07-1.5 1.82-1.5v-.13c-.38-.04-.46-.1-.84.11-.46.24-.33.17-.68.48-.35.3-.76 1-1.17 1.11zM19.08 15.37c.18-.3.17-.32.45-.55.25-.21.25-.34.61-.43-.03.34-.29.41-.69.8-.13.13-.15.16-.37.18zm-1.82-.2c.22-.07.1-.06.23-.15.05-.04.11-.2.14-.03.05.24-.94 1.02-.31 1.49.37-.09.31-.29.82-.59.02.75.37.6.65.52v-.05c.14-.26-.12.02.03-.04l.2-.04-.18-.1-.23-.03c.19-.9.9-.5 1.5-1.3.22-.29.34-.28.36-.48.07-.61-.8-.21-1.13.04-.6.45-.77.84-1.07 1.17-.14.16-.43.42-.66.44.07-.34.35-.72.54-.97.44-.56.49-.65.34-1-.4.04-1.09.87-1.23 1.11zM19.61 26.23c-.19.06-1.19.89-.91.11.14-.38.8-.18 1.09-.83-.38.14-.39.31-.7.39.06-.24.21-.35.38-.5.21-.19.27-.33.56-.35-.36.6-.17.45-.29.39.17.16.22.05.22.05.21-.09.31-.38.31-.64-.29-.17-.46-.13-.76.07-.47.3-.75.67-1.13 1.1-.19.21-.3.44-.63.47.19-.81.96-1.04.82-1.7-.56.01-.64.56-.94.65.13.42-.01-.23.12.2l-.31.51c-.11.2-.21.43-.1.67.42.23.56-.3.88-.39.02 1.15 1.33-.06 1.41-.2zM15.14 16.55c.09-.38.43-.64.66-.91l.17-.2c.05-.05.04-.04.09-.1l.03-.03c.14-.16.31-.33.52-.4-.11.47-.7.8-.35 1.37.3-.09.6-.58.76-.85h-.18c.17-.36.59-.81.59-1.05 0-.64-.73.17-.73.17-.17.15-.19.18-.34.34l-.4.34c.08-.34.49-.66.65-.92-.09-.16-.07-.07-.12-.26-.47.01-.77.69-1.03 1.07-.14.21-.53.82-.54 1.1 0 .23.08.23.22.32zM11.62 15.63c.18-.05.17-.08.35-.13-.38.79-.31.63-.24.98.27-.03.36-.31.76-.86.19-.27.56-.69.89-.78-.03.12-.1.33-.1.4-.02.6.55.16.69.12-.01-.01-.03-.04-.03-.03l-.2-.04c.02-.25-.03-.12.21-.42l.03-.03c.01-.01.02-.03.03-.04.2-.26.36-.32.39-.62-.26-.2-.27-.21-.87.28-.35.29-.39.44-.6.51.07-.3.33-.42.47-.65l-.22-.28c-.41.14-.52.68-1.14 1.18-.16.13-.3.22-.4.4zM10.85 15.37c.21-.35.71-.77 1.06-.98-.03.4-.42.6-.68.81-.22.18-.06.16-.38.17zm-.82-.26.29.07c-.06.3-.35.61-.35.92 0 .61.68.33.92.17.1-.07.17-.11.26-.17.18-.12.18-.09.3-.33 0 0-1.46.89-.9.05.16-.24.39-.26.57-.35 1.64-.77 1.42-2.17-.12-.92-.21.17-.71.49-.97.56zM6.62 15.37c.21-.44.71-.81 1.12-1.05-.05.2-.09.21-.3.45l-.06.07c-.19.2-.51.46-.76.53zm-.65 1.11c.47 0 1.37-.72 1.53-.98-.24.07-.4.28-.62.42-.31.21-.44.3-.73.23.06-.8 1-.52 1.67-1.47.85-1.2-1.4-.54-2.03 1.02-.09.23-.19.79.18.79zM15.32 26.69c0 .15.02.08.06.26.2-.06.27-.18.39-.35.14-.2.18-.24.33-.41.25-.28.46-.52.75-.74-.12.58-.47.45-.41 1.24.33-.01.59-.32.66-.64.12-.54.86-1.19.28-1.19-.19 0-.72.66-1.06.92.02-.28.09-.26.25-.44.07-.08.07-.08.14-.17.09-.13.07-.09.14-.23-.12-.09-.16-.12-.29-.2-.29.28-1.23 1.59-1.23 1.96z"/><path class="fil3" d="M19.61 26.23c.15-.04.17-.06.29-.13-.09.44-.18.22-.06.79.43 0 .6-.24.76-.52-.18.05-.17.08-.35.13.15-.69 1.17-2 1.65-2.68.2-.29.48-.51.65-.78-.19-.14-.24-.21-.48-.02-.28.23-.85 1.07-1.05 1.38-.12.17-.21.31-.33.49-.12.18-.2.34-.31.51-.33.51-.63.62-.76.85zM9.27 14.98c0 .35.09.12.18.46-.35.26-.94.61-.94.85 0 .47.72.1.91-.04.66-.5.11-.59.44-.95-.24 0-.19.02-.35-.07.03-.42.72-.82 1-.85-.04.17-.05.19-.12.33.3-.09.35-.3.35-.72-.07-.02-.16-.07-.18-.07-.44 0-1.29.54-1.29 1.05zM6.8 25.9c.05-.21.03-.13.16-.28.26-.29.46-.4.78-.64-.08.31-.56.82-.94.92zm-.65 1.05c.14-.04.29-.07.41-.13.29-.13.25-.16.29-.26-.22.02-.47.24-.47 0 0-.48.3-.33.83-.71 1.57-1.1.4-1.57-.61-.42-.22.24-.68.73-.66 1.12.01.22.11.25.2.4zM8.5 26.76c0 .04.08.14.12.2.16-.12.23-.29.4-.47.09-.1.13-.13.2-.24l.24-.33c.34-.87.26-.39.58-.92l-.19-.25c-.43.25-1.34 1.58-1.34 2.02zM25.66 25.51c.02 0 .15-.02.15-.02.09 0 .02-.02.09.02-.21.99.4.48.4.47.08-.13.08.05-.05-.13-.23-.33.07.28-.06-.07.11-.09.23-.29.37-.44.21-.23.28-.23.22-.54-.48 0-.37.04-.64.27-.24.2-.29.14-.48.45zM7.5 13.61c1.12 0 1.11-.72.82-.72-.21 0-.24.27-.65.52-.05.03-.08.03-.12.07-.21.19.1-.22-.04.06l-.01.08zM11.97 24.33c.28-.07.32-.06.61.04.43.15.19.05.57-.04v-.13c-.58 0-.69-.49-1.06-.14-.17.16-.09-.04-.11.27z"/><path class="fil1" d="M15.14 26.3c.17-.13.26-.32.35-.52-.26.01-.18-.05-.27.16-.05.11-.07.24-.08.37zM45.59 33.61c.11.17.38.8.11.8-.21 0-.39-.27-.49-.44-.18-.29-.06-.1-.06-.35 0-.18-.03-.15-.03-.39.25.01.2-.06.48.38zm-1.13.8c-.45-.01-.41-.35-.71-.59.27-.46-.03-.2.09-.5.12-.29.51.41.58.61.08.22.07.29.04.48zm-1.41-2.09c.01-.29.03-.3.2-.44.14-.11.17-.15.39-.15-.08 1.03-.15.7-.59.59zm1-.98c.32-.09.57-.49.94-.52 0 .02.02.16.02.16 0 .13 0 .05-.01.13-.03.15-.03.06-.06.3-.04.29-.07.4-.12.65-.2-.06-.28-.17-.44-.3-.17-.14-.27-.19-.33-.42zm.53-1.11c.32.08.15-.02.33-.14.21-.15-.08.03.13-.03l.98-.65c.33-.23.68-.59.97-.62-.13.27.02.07-.52.47l-1.62 1.14c-.31.21-1.86 1.43-2.21 1.47v-.2c.09-.02.11-.02.18-.06.09-.05.06-.06.07-.07 0 0-.07-.16.21-.01-.03-.18-.05-.07-.01-.17.05-.13.23-.08.36-.15.06-.03.08-.05.14-.11l.15-.17c.26-.18-.07-.01.23-.25.16-.13.11-.06.25-.11l.12-.07c.18-.15-.18-.12.15-.12.01 0 .12.03.13.04-.03-.12-.01-.11-.06-.2zm-1.53 3.66-.76.07c.41 0 .47.08.77.12 1.12.15.69.52 1.24.57.26.03.51.01.46-.41-.02-.2-.18-.54-.28-.69-.51-.77-.57-.19-.71-1.17-.07-.52-.04-.55.22-.7.33.1.43.46.61.76.22.37.42.5.28.95-.05.16-.12.22.01.55.24.61.52.78 1.16.61 0-1.24-.81-1.44-.83-1.81v-.04l-.02-.27c-.08-.56-.09-.87-.09-1.48h.18c.06.27.28.49.38.75.06.15.03.07.09.23l.19.51c.3.84.74 1.72 1.68 1.72-.36-.55-1.02.05-1.71-2.15-.17-.54-.6-1.11-.64-1.64.28-.17.54-.34.81-.54.31-.23.3-.06.47-.13.01-.01.06-.03.07-.04.17-.08-.07-.05.23-.07.03.3.12.2.31.37.42.39.82 2.3 1.22 2.9.2.3.15-.05.12.39.21-.12.48-.27.19-.6-.21-.24-.15-.08-.34-.61l-1.49-4.22c-.39.01-1.33.85-1.69 1.13l-1.57 1.19c-.29.22-.53.36-.82.59l-1.19.9c-.34.23-.82.73-1.19.84-.16-.13-.34-.57-.46-.8l-.22-.41c-.07-.12-.14-.29-.2-.37-.08-.1-.04-.07-.15-.1l-.07-.01c-.18-.04-.22-.03-.4.09-.33.2-.56.29-.56.76h.12c.05-.22.16-.28.31-.44.59-.67.62.16.93.77.09.18.16.35.26.56.06.14.05.12.12.26l.14.23c-.03-.39-.21-.4-.23-.78.2.16.09.18.23.34.17.2.23.05.3.25.13-.04.32-.15.44-.24l3.01-2.21c.15-.11.25-.18.39-.29l1.47-1.11c.24-.16.53-.45.8-.48-.1.4-2.61 2.03-3.03 2.32l-1.93 1.38c-.15.11-.25.21-.38.3l-.41.27c-.14.1-.22.17-.3.32.15.08.11.05.29 0v.13c-.21.06-.16.01-.18.26.56-.17 1.39-1.08 1.94-1.24l.27.75c.08.17-.01.1.14.17.06-.16-.03-.46-.12-.65.34.03.73.39.71.78-.03.44-.1.01-.06.73-.08 0-.45.05-.49-.05-.01-.02-.03-.01-.04-.02z"/></g></g></svg>