<svg xmlns="http://www.w3.org/2000/svg" xml:space="preserve" width="96" height="96" style="shape-rendering:geometricPrecision;text-rendering:geometricPrecision;image-rendering:optimizeQuality;fill-rule:evenodd;clip-rule:evenodd" viewBox="0 0 43.02 43.02"><defs><style>.fil7{fill:none}.fil6{fill:#282829}.fil5{fill:#000}.fil0{fill:#030303}.fil1{fill:#f9f9f9}</style></defs><g id="Camada_x0020_1"><g id="_2483450784480"><path class="fil0" d="M19.82 6.58c-.62-.65-.89-2.4-2.02-2.47-1.4-.09-1.34 1.92-1.29 3.21.06 1.41.08 2.96.2 4.34.06.63.2 1.28.62 1.56.78.53 1.19-.19 1.56-.48.41.7.31.97.93 1.43 2.14.09 1.47-2.6 2.07-4.01.4 3.46.27 1.41 1.05 3.65-.78.64-1.26.65-1.56 1.88-1.99-.33-3.28-.76-4.94.45-1.34.98-1.24 3.02-1.6 4.58-1.88-.38-2.02-.13-3.36-.26-.7-.07-2.41-1.06-2.7.52-.11.59.09.93.36 1.34.59.89 1.82 3.18 2.96.5 1.36.13 3.3 1.09 4.33 1.07l.61-.8c.72.68.1.72 1.5.79.03 1-.03 1.43.32 2.32.41 1.03.2 1.39.25 2.43-.29.22-1.81 1.08-2.24 1.23.16 1.15.58 1.47 1.65 1.78l.14 1.25.86.22c.02 1.34.21 1.59.65 2.65-.7.05-1.54-.02-2.15.32-1.13.63-.5.62-.38 1.12l-.75.2c-.87-.9-2.26-1.23-3.57-.44-1.16.7-.52-.37-1.73.1-.7.27-.67 1.12-.69 1.95-.8-.47-1.3-1.55-2.4-1.7-1.45-.2-2.21.63-2.62 1.52-.34-.61-.16-1.35-.85-1.61-1.84-.69-1.42 2.21-1.6 3.12-.18.89-.58.98-.43 2.06.49.4.86.89 1.6.36.49-.35.02-.26.7-.55.44-.18.69-.19 1.09-.03 1.5.63.64.37 2.2.21.93-.1.6.54 1.98-.01.76.9 1.74.89 2.12-.51.03.03.06.04.08.1.15.75 1.25 1.19 2.38.99 1.03-.18 1.69-.78 2.56-1.12.32.89.63 1.21 1.86 1.16.24-.29.38-.49.56-.93.54.31.56.87 1.37.73.77-.13.57-.65 1.12-1.04.38.54.35 1.05 1.08 1.26.72-.06 1.08-.23 1.18-.84l.16-1.85c.07-.82-.32-.71-.61-1.32-.19-.39-.4-1.01-.58-1.42l2.92-.04c-.37.5-1.07 1.45-.4 2.14l.64.48c.02.02.06.05.09.08-.29.24-.49.52-.72.78-.35.4-.43.51-.4 1.18.74 1.37 1.4.54 2.97.53 3.48-.01 1.9-.74 3.38-.78.27.49.35.65.63 1.03l.98.01c.39-.57.32-.16.51-.89l1.93-.13c.7.75.05 1.14 1.72 1.01.29-.42.44-.57.56-1.27 1.72-.2 2.16-1.5.44-2.38-.02-.01-.07-.03-.11-.06.07-.61.35-2.07.26-2.58-.14-.79-1.04-1.18-1.73-.61-.96.79-1.5 2.77-2.66 3.35.03-.46 1.06-4.66-1.23-3.52-1.07.54-1.48 2.42-2.51 3.2l-.69-.32c.2-3.25-1.9-3.16-4.92-3.07.23-.95.5-.98.56-2.3.69-.3.47-.15.86-.8.54-.88 1.23-.84 1.64-1.91.17-.44.26-1.05.53-1.41.99.61 1.75 1.67 3.45.59.88-.56 1.71-1.65 1.76-3.13.02-.73-.17-1.4-.46-1.95-.24-.45-1.43-1.64-1.9-1.83-1.05-.42-1.94.44-2.76.94.22-.71.38-.89.05-1.62-.46-1.03-1.14-1.36-2.21-1.5-.8-.11-.88.15-1.23.63-.19-.26-.25-.35-.58-.51-.34-.16-1.55-.03-.68-1.81l.68-1.49c.33-.46.78-.32.59-1.45-.1-.6-.42-1.09-.69-1.45l1.22-.69c1.51 1.68 1.45.04 2.36-.28.03.57 0 2.09.1 2.51.12.56.25.55.62.8.99.67.25.64 1.61.63.8-.01.18.02.83.16.85.2.92-.24 1.49-.53-.04.84-.8 3-.02 3.59.7.52.94-.06 1.53.44.17.15.18.22.39.39 1.84 1.54 5.02-.18 6.19-1.51 1.81-2.07 2.76-7.28-.8-7.76.15-1.97-1.13-2.5-2.31-1.22-.26.29-1.89 2.64-2 2.93-.15-1.05.12-2.8-.17-4.93-.16-1.2 1.84-1.91.39-3.92-.88-.15-1.23 0-1.7.39-1.03-.72-1.73-1.03-2.54.75-.32.71-.97 2.65-1.32 3.09-.44-1.1-.22-3.21-1.03-4.31-.38-.51-.34-.27-.6-.47-.94-.71-.44-3.85-3.16-3.39-.69.12-1 .46-1.4.82l-1.09 1.23c-.33-.91-.34-1.73-.79-2.6-.48-.91-1.52-1.2-2.14-.33-.64.89-.77 4.61-.93 6.06z"/><path class="fil1" d="M20.22 9.42c-.73-1-1.19-4.26-2.4-4.69-.95.74-.46 4.16-.37 6.08.02.38.02 1.12.2 1.46.22.43.03.15.32.36 1-.79.22-2.68.62-3.58.4.64.98 3.28 1.31 3.89l.39.46c1.26-.85.88-6.29 1.7-7.89.77 1.31.37 5.49 1.03 6.64.69 1.2.83 1.99 1.97 1.72 1.04-.24 1.66-1.25 2.34-1.42-.14.55-.23.95-.08 1.5 1.23-.22 1.34-2.33 1.65-3.43.68.91.36 5.04.83 5.79.78-.21.49-.33.93-.84-.08.64-.25.82-.08 1.49.7-.01.81-.46 1.06-1.1.53-1.31 1.65-3.88 2.37-4.83-.17.91-.69 2.2-1.04 3.06-.35.87-1.23 2.26-.88 3.04.88-.15 1.24-1.18 1.63-1.97l.55-.82c0 1.01-.06 2.03-.15 3.02-.08.96-.44 2.09-.36 2.9.95.12.88-.22 1.17-.82.03.04.05.06.06.13l.11.26c.01.04.03.09.04.13.29 1 .6 1.92 2.89 1.5 4.51-.83 6.43-9.01 1.63-8.35.14-.87.85-.98.08-1.9-.93.04-1.38 1.17-2.18 2.37-.35.53-.59.91-.92 1.4-.36.55-.61 1.06-1.1 1.45-.01-1.72.58-6.3-.09-7.14l-.38-.37c.6-.29 1.64-1.86 1.21-2.9 0 0-.14-.61-.94.23-.41.43-1.57 2.09-.75 2.82l.1.07c.03.02.08.04.11.06l-.42.7c-.36-.85.15-.31-.48-.64-.52.24-.38.28-.81.54.25-.93 1.04-2.04 1.19-2.89.03-.17.05-.35.03-.53-.02-.15-.01-.4-.21-.55-1.03-.72-2.63 4.97-3.3 6.19-.52-.81-.6-4.27-1.08-5.82-.35-1.14-.48-.78-1.21-.54-.06-1.61-.58-4.46-2.55-3.52-1.51.72-1.64 2.4-2.52 3.72-.27-1.5-.41-4.66-1.61-5.25-1.37.79-.9 5.59-1.62 8.78zm3.97-.85c-.15 1.36-.23 2.19.46 3.03 1.13.24 1.68-.52 2.32-1 1.09-.83 1-.69 1.12-2.6l-.2.21c-1.21 1.43-1.77 1.41-3.7.37zm2.89-1.56c.47-1.02.13-2.07-.61-2.72-1.71.26-2.63 3.35.61 2.72z"/><path class="fil1" d="M21.99 16.46c-.84-.02-1.78-.48-2.78-.53-.84-.04-1.92.44-2.45.84-1.2.91-.52 3.89-1.73 4.84-.73-.32-.88-.64-2.47-.58-.67.02-.85.18-1.47-.02-.62-.2-.44-.34-1.48-.24-.16 1.05.15.91.49 1.52.36.63.21 1.05 1.15.88l.32-1.19c.91.01 1.51.27 2.41.47.89.2 1.64.62 2.33.68.1-.29.2-.53.37-.87.1-.21.09-.24.22-.4.22-.3.09-.15.3-.3l.81 1.5 1.15-.18c.28 1.18.04 2 .45 3.04.29.74.39 2.36.31 3.14-.46.28-1.65.84-2.09 1.29.59.67.82.3 1.34.82.51.73-.34.9.65 1.21.63-.35.03.05.31-.49.3-.57-.22-.15.31-.46.16.22.2-.27.11.55-.05.42-.51 1.09-.1 2.37.37 1.16.71 1.37 1.47 1.95-.97.17-2.3.02-2.89.21-.61.19-.12 0-.38.17 2.92.24 7.4.28 10.31-.03-1.19-.75-3.58-.11-5.08-.35 1.31-1.16 1.64-1.32 1.57-3.75l.7-.27c.41.25-.56.27.15.07.03-.01.39-.53.39-.54.56-.81.71-.52 1.16-1.01.46-.78-.49.18.1-.68.38-.56-.05.33.31-.4l-.34-4.35c1.86.34.33 2.3 1.27 3.02.73.56 1.22 1.16 2.08 1.17 1.62.01 3.18-2.35 2.09-4.4-.51-.95-1.07-.99-1.54-1.25-.69-.38.26-.1-.56-.36-1 .24-1.2.84-1.86 1.26-.55-.25-.67-.54-1.12-.91.12-.41.11-.2.27-.45.24-.39.09.21.22-.41.06-.32-.11-.68-.26-.91-.33-.49-1.16-.7-1.8-.66l-.35 1.16c-.84-.14-.92-.6-1.23-1.08-.36.27-.21.41-.63.56-.46-.74-.92-1.37-.76-2.52.22-1.56.78-.83.74-2.84.21-.15.08-.01.55-.11.02 0 .08-.02.09-.02.02 0 .07-.01.1-.03-.11-1.27-1.33-3.05-2.72-1.49-.59.67-.25.68-.52 1.36z"/><path class="fil0" d="M6.85 9.67c-.27-.62-.93-2.26-1.35-2.8-3.14-.2-2.29 2.31-1.35 3.88-.9.33-1.34.11-1.52 1.36-.27 1.88 2.66 3.74 3.04 6.23l-1.13.6c-.64-.91-1.52-4.53-2.42-5.37-.6-.56-1.37-.56-1.81.06-.86 1.22.26 2.83.75 3.93 1.04 2.31 1.53 6.23 5.3 4.27 4.43-2.3.42-7.14-1.33-10.29 1.07.04 1.73-.14 2.27-.78.63.56.55.47 1.23.6l.57.12c-.17 1.85-.78 4.8.52 5.87 1.23 1.01 1.42-1.26 4.12-2.05 1.41-.41 3.07-.24 1.53-4.23-.3-.78-.57-1.79-.89-2.51-.64-1.42-1.31-1.12-2.15-.45.06-1.26.66-2.98.48-4.04-.27-1.6-1.78-1.53-2.62-.45-.66.85-1.29 1.58-1.91 2.73-.29.55-.52 1.05-.74 1.58-.11.26-.21.5-.28.79l-.33.94z"/><path class="fil1" d="m13.65 39.66-.4-.62c-.13-.25-.2-.44-.31-.62-.28-.48-.49-.74-1.01-.81-.42.71-.35 2.14-.45 3.11-.59-.38-.81-1.05-1.42-1.58-.68-.59-.73-1.16-1.71-1.22-.82-.05-1.53.54-1.77 1.1-.55 1.27.48 1.4-1.63 1.57.12-.93.55-2.53-.28-2.81-.65.62-.13 1.93-.67 3.29l-.21.67c.03.99.86-.02 1.17-.17 2.64-1.31 1.44 1.5 4.35-.53.3.55-.12.47.46.85.51-.27.15.17.37-.51.12-.38.01-.44.24-.73.31.71.62 1.48 1.39 1.55.69-.64.26-1.62.61-2.46.11-.27.06-.17.2-.34.32.76.8 2.28 1.38 2.75 2.05.44 3-.82 3.85-1.65.55.55.43 1.61 1.57 1.71l.03-.87 1.33-.06c.02.03.05.05.06.1.06.35.39.59.71.65.39-.45.1-.21.24-.48.3-.55.86-.72 1.61-.72.27.82-.15 1.31.8 1.36.26-.62.08-.41.09-1.06.01-.78.11-.45.18-1.09-1.04-.99-.59-2.48-2.15-2.85-1.26.5-1.16 1.88-1.46 3.24l-.86.07s2.99-3.57-1.33-2.88c-1.13.18-1.61.15-1.34 1.39l-.97-.14c.22-.6.26-.47.14-1.23-.59-.38-1.5-.72-2.45-.31-1.08.46-.48 1.28-.37 2.31zM8.54 10.62c.44-.19.27-.02.56-.58.32-.63.59-1.74 1.17-2.36.47 1.41-1.7 7.68-.03 9.18.6-.2.31-.63 2.03-1.66 1.02-.61 1.53-.62 2.76-.92.46-1.19.11-2.04-.35-3.2-.32-.82-.64-2.71-1.49-2.83-.84 1.02.25 2.65.54 3.85l-2.75 1.37c-.09-3.2 1.83-8.79.78-9.96-1.38-.03-5.39 6.16-3.21 7.1zM6.53 18.45c-.6.41-1.33 1.19-2.43 1.17l-1.81-4.67c-.3-.7-.33-1.12-1.18-1.11-.88 1.08.59 2.89 1.39 5.21.74 2.14 1.75 3.47 4.12 1.81.79-.56 1.31-.99 1.11-2.39-.13-.93-.57-1.98-.94-2.77-.48-1.03-2.05-4.12-3.05-4.2-.82 1.19-.17 1.6 1.1 3.38.53.75 1.64 2.61 1.69 3.57z"/><path class="fil0" d="M22.65 28c1.5-1.93.41.07 1.33-2.32.34-.9 1.06-1.35 1.81-1.84-.37-.42-.64-.58-1.17-.76l-2.71-1.32c-.73-.51-.39-.8-.5-1.69-.87-.22-1.97.3-1.97.98 0 .36.71 1.25.79 2.48.05.83.07 2.51.26 3.19.31 1.08 1.09.89 2.15 1.28z"/><path d="m34.41 40.34.57-.04-.61 1.04.27.37 2.41-.22c.03.67-.12.67.25 1.16.85-.15.27-.47.77-1.23.84-.27 1.2-.02 1.2-.89-.49-.43-.47-.2-1.18-.18.09-1.72.6-3.34.13-4.06-1.06.22-1.31 1.88-2.55 3.39-.53.65-.41.38-1.26.66z" style="fill:red"/><path class="fil0" d="M39.59 15.13c-.91.37-1.9 1.4-2.39 2.13-2.09 3.13 2.05 3.2 3.39.6.68-1.33.1-3.16-1-2.72z"/><path d="M30.93 40.4c-.48.29-1.09 1.18.05 1.32l1.95-.24c.02.79-.17.84.35 1.19 1.02-.36-.19-1.24 1.1-1.32l.61-1.04-.57.04c-.8.06-.21.05-.44-.12.06-.86.51-3.24.23-3.85-1.3-.16-.96 1.82-3.27 4.04z" style="fill:#ff0"/><path class="fil1" d="M22.61 27.11c.69-1.64.71-2.12 1.8-3.26-1.28-.5-.99-.5-2.36-1.15-1.43-.68-1.19-.84-1.34-1.27-.2-.56.12-.42-.41-.53-.3.55.17.9.38 1.49.28.79.16 3.09.35 4.01.16.76.67.75 1.59.71z"/><path d="M30.98 41.71c-1.13-.14-.53-1.03-.05-1.32-.03-.02-.06-.11-.07-.09-.04.09-.15-.48-.68-.68-.47.56-.09 1.1.02 1.8l-2.06.04c.3-1.07 2.31-2.86 1.24-4.19-.96-.42-3.12.93-2.55 2.09.73-.02.79-.89 2.03-1.24-.12.94-.67 1.56-1.11 2.29-.22.36-.4.66-.69 1-.4.49-.63.46-.35 1.17.12.01 3.82-.28 4.13-.34l.13-.54z" style="fill:#093"/><path class="fil1" d="M6.81 10.41c.01-.7-.17-.68-.49-1.19-.3-.47-.28-.7-.49-1.21-.46-1.12-1.68-.59-2.01.03-.58 1.08 1.06 4.43 3 2.37zM39.66 15.96c-1.3.55-3.42 3-1.91 3.09.91.06 1.66-.74 1.94-1.16.8-1.18.29-2.07-.03-1.93z"/><path class="fil0" d="M8.68 38.85c-1.64-.3-1.82 1.8-1.17 2.07.76.32 2.06-.8 1.17-2.07zM14.6 40.35l.16 1.04c.97-.02 2.34-.66 2.22-1.56-.96-.23-1.83.11-2.38.52zM18.12 38.67l.57 1.69c.56-.22 1.56-1.05 1.39-1.93-.69-.07-1.37-.07-1.96.24zM21.69 40.38l1.55-.46c-.13-.82-.29-1.4-.94-1.77-.45.52-.55 1.36-.61 2.23zM14.44 39.38c.24-.15.46-.27.69-.47.1-.09.21-.17.31-.32.25-.36.13-.39.11-.48l-1.3-.1c-.07.56.04 1 .18 1.36z"/><path class="fil5" d="M31.94 40.48h1.2v-1.63zM36.12 40.48h1.19v-1.63z"/><path class="fil6" d="M21.14 32.8c.14-.74.72-1.32 1.46-1.45v.63c-.4.11-.71.42-.82.82h-.64zm3.57.66a1.81 1.81 0 0 1-1.46 1.45v-.63c.4-.11.71-.42.82-.82h.64zm-2.12 1.45c-.74-.14-1.32-.72-1.46-1.45h.64c.11.4.42.71.82.82v.63z"/><path class="fil7" d="M21.14 32.8c.14-.74.72-1.32 1.46-1.45v.63c-.4.11-.71.42-.82.82h-.64m3.57.66a1.81 1.81 0 0 1-1.46 1.45v-.63c.4-.11.71-.42.82-.82h.64m-2.12 1.45c-.74-.14-1.32-.72-1.46-1.45h.64c.11.4.42.71.82.82v.63"/><path class="fil6" d="M30.81 28.69c-.74-.14-1.32-.72-1.46-1.45h.64c.11.4.42.71.82.82v.63zm.66-3.57c.74.14 1.32.72 1.46 1.45h-.64c-.11-.4-.43-.71-.82-.82v-.63zm1.46 2.11a1.81 1.81 0 0 1-1.46 1.45v-.63c.4-.11.71-.42.82-.82h.64z"/><path class="fil7" d="M30.81 28.69c-.74-.14-1.32-.72-1.46-1.45h.64c.11.4.42.71.82.82v.63m.66-3.57c.74.14 1.32.72 1.46 1.45h-.64c-.11-.4-.43-.71-.82-.82v-.63m1.46 2.11a1.81 1.81 0 0 1-1.46 1.45v-.63c.4-.11.71-.42.82-.82h.64"/></g></g></svg>