<svg xmlns="http://www.w3.org/2000/svg" xml:space="preserve" width="241.59" height="107.323" style="shape-rendering:geometricPrecision;text-rendering:geometricPrecision;image-rendering:optimizeQuality;fill-rule:evenodd;clip-rule:evenodd" viewBox="0 0 154.3 68.55"><defs><style>.fil8{fill:#0d6790}.fil10{fill:#0d6892}.fil11{fill:#249299}.fil6{fill:#4b8973}.fil13{fill:#8c101b}.fil4{fill:#abfbf5}.fil5{fill:#b6794e}.fil9{fill:#dc8143}.fil12{fill:#f17915}.fil16{fill:#fdfdfd}</style></defs><g id="Camada_x0020_1"><g id="_2015385482320"><path d="M58.81 65.55c.21-.74.55-.55 1.31-.43.81.13.99-.13 1.61-.07.19.22.32.51.48.72.8.2 1.15.98 2.5.29 1.18-.6 1-.26 1.57-1.01.24-.32.16-.3.48-.38.28.78.3 1.09.74 1.74.52.77.62.76 1.4 1.19 1.14.62 3.02-1.39 3.06-1.63.24-.61.07-.15.04-.74.14-.08.55-.33.74-.36.76-.1.14.2.94.23.58.02 1.6-.24 2.05-.29.14.63.11.64.09 1.26.2.35 1.07 1.07 1.77.98.95-.13 1.51-2.22 2.47-3.18.87-.86.93-1.25 1.23-1.54.64.76-.17.34 2.08.9.01.92-.04 1.88.43 2.51.31.41 1.24 1.06 1.81 1.23.59.18 1.49-.63 1.82-.94 1.08-1.01 1.01 0 2.3-.47l.83-1.17c.94-1.53.92-2.26 1.18-2.72.13-.23.27-.31.42-.56.13-.23.18-.48.31-.71l-.09 1.68-.41-.42c-.12 1.51 1.01 2.8 2.5 2.62.69-.36 3.08-6.66 3.84-8.41.22-.5.43-.91.62-1.44.14-.38.33-1.19.58-1.46.28 1.14.05 2.38-.27 3.39-.34 1.08-.45 1.98-.85 3.05-.2.52-.81 2.64-.71 3.17.07.41.51.99.74 1.22.47.46.9.47 1.66.41.74-.37 2.04-4.37 2.21-4.59.29-.37.86-.74 1.33-.62.97.24-.43 2.48-.38 3.37.05.86 1.76 2.88 2.75 1.49.75-1.04.53-.75.98-2.17.31-.96 1.02-2.18 1.19-2.98l.38-.66c.67-1.33.04-1.2.95-2.95.13-.25.21-.52.35-.81.18.29.37.58.58.88-.29-.02-.56-.01-.74.22-.22.29-.38 1.45-.29 1.88.08.34.6 1.1.83 1.36.39.43 1.22.29 1.84.35-.03.36 0 .13-.27.38-.5.47-.84.72-.97 1.51-.13.82-.6 2.15-.49 2.73.75 3.87 6.24 3.67 8.87 1.88.79-.54 1-1.03 1.63-1.74.6-.68.71-1.15.94-1.52 4.04 1.37 7.54 1.95 11.23 1.85 1.7-.04 3.38-.22 4.83-.53.84.72 2.82 1.84 3.83 2.26.58.24 2.02.59 2.76.64 1.43.09 4.24-.71 4.8-1.98.47-1.06-.23-1.91-.67-2.52-.68-.95-1-2.07-2.07-2.92-.45-.36-.7-.26-1.13-.51.55-.36 2.05-2.05 2.36-2.48.8-.58 2.55-3.31 3.18-4.33.3-.49.46-1.22.73-1.66.24-.4.27-.24.47-.84.72-2.18 1.56-4.2 1.9-6.53.33-2.22.48-7.23.19-9.44-.2-1.5-.39-2.74-.62-4.28-.35-2.44-.83-1.77-.9-4.04.8-2.33-.72-2.68-1.48-3.43l1.53-2.03c.13-.27.15-.81.21-1.15-.49.02-1.17.04-1.64.09-.89.08-.28.6-1.23.35l-.62.01.02-1.22c-.21-1.06-.97-.77-1.88-.64-.05.08-.08.15-.11.19-.29.08-.62.15-.96-.01-.48-.22-.98-.9-1.32-1.56-.35-.66-.55-1.3-1.17-2.07-.62-.76-1.66-1.65-2.73-2.28-.76-.44-1.53-.76-2.89-.84l-.85-1.89c-1.94-3.08-4.52-4.97-8.71-4.91-1.34.02-2.85.02-4.13.38-1.85.53-4.04 2.59-4.87 4.25-.49.98-.96 2.06-1.45 3.09-.46.12-.52-.02-.92.17-1.79.83-1.59.98-2.07 1.26-.82-.32-.71-1.14-1.11-1.9-1.1-2.06-1.61-3.86-3.56-5.55-.14-.12-.28-.22-.41-.35-.36-.38-.8-.67-1.41-.87-.93-.3-1.35-.71-2.46-.47-1.17.25-2.33.67-3.3 1.25-.5.29-.51.45-.84.73-.09-.04-1.93-1.79-2.98-2.34-1.06-.55-3-1.14-4.21-1.11-1.12.03-3.25.74-4.09 1.23-.85.5-2.45 1.7-2.7 2.64-1.17-.69-.83-1.1-2.75-1.29-1.27-.13-2.2-.03-3.07.66-1.81 1.44-1.47 3.97-.93 5.99.55 2.07 1.26 4.23 1.23 6.62-.02 1.69-.45 5.49-1.47 6.36-.84-.87-1.71-4.02-1.79-5.49-.21-4.04 2.06-9.91-.86-12.75-.59-.57-1.36-1.09-2.34-1.35-.52-.14-1.1-.09-1.64-.03-1.02.11-.73.34-1.4.63-.28.02-3.23-3.04-6.03-2.39-2.37.55-3.58 1.56-5.03 3.53-3 4.07-3.02 9.01-3.19 13.96l-2.47-.41c.21-3.61 3.86-14.99 1.71-18.16-.42-.62-1.5-1.68-2.45-1.8-1.02-.13-2.69.58-3.14 1.1-.14.16-.26.42-.39.58-.34.43-.69.73-.93 1.25-.14.32-.08.41-.31.74-.44-.07-1.26-1.34-2.41-1.91-1.05-.52-2.39-.7-3.65-.23-.46.17-.7.71-1.14 1.03-.32.23-.37.16-.66.42-.57.52-.96 1.22-1.3 1.95-.22.47-.34 1.29-.69 1.6-.44-.12-.41-.29-.68-.75-.58-.97-1.52-1.54-2.25-2.31-.42-.44-.28-.3-.81-.6-1.33-.75-1.13-.83-3.02-1.54-1.57-.59-3.33-.8-5.17-.74-1.87.06-3.17.31-4.33 1.69-.52-.1-1.39-.75-2.14-1.02-1.73-.62-3.21.16-4.33 1.37-1.2 1.29-.98 1.48-1.34 1.91-1.22-.82-1.43-1.8-3.99-2.83-1.41-.57-1.29-.44-2.95-.47-1.33-.03-1.78.09-2.89.53C2.55 3.69.37 10.24.1 15.3c-.28 5.28.37 9.5 3.34 13.81 1.6 2.32 2.01 1.18.8 2.9-1.77 2.53-2.82 6.07-2.96 9.21-.21 4.74.83 7.97 3.07 10.84 1.63 2.08 4.63 4.77 8.41 5.47.49.09 1.12.07 1.53.2.75.25.38.26 1.44.25.82-.01 2.51-.04 3.11-.32l2.31-1.14c.53-.32 1.32-1.5 1.74-1.76.42.26-.01.22.63.49 2.49 1.06 8.35-.21 9.27-.87.64-.46 1.42-.73 2.09-1.16 2.59-1.67.58.06 5.39 1.23 1.94.47 3.19-1.15 4.18-1.46-.26.35-.25.04-.51.62-.19.42-.23.5-.45.85-.31.49-.62 1.16-.86 1.74-.63 1.5-1.09 2.68.54 3.35.05 1.97-1.45 4.83-.84 6.6.36 1.03 1.71 1.26 2.64.53.62-.49 1.7-1.75 1.99-1.94 1.22.72 1.17 1.73 3.73.97 1.51-.45 2.14-2.54 2.81-2.06.38.46-.06 1.88.27 2.54.32.63.99.94 1.65 1.28 1.42.74 2.77-.83 3.43-1.93zm31.59.85c.14.99 1.26 2.24 2.26 2.14 1.34-.14 3.1-2.25 1.13-3.69-.41-.3-.79-.63-1.41-.76-1-.21-2.2.8-1.98 2.3zm5.53-.54c.05.69.12 1.21.54 1.63.24.24.84.69 1.22.84.73.29 1.12.05 1.61-.3.56-.4.69-.41.74-1.31.13-2.22-2.35-3.3-3.34-2.16-.38.44-.82.52-.76 1.3zm5.59.33c.03.15.19.56.25.78.12.39.1.53.36.72l1.4.69c.4.04 1.41-.31 1.59-.49.34-.35.47-.99.49-1.59.1-2.73-4.65-2.92-4.09-.11z" style="fill:#000"/><path d="m140.39 18.98.55-.1c.33.37.08.39.55.55.41-.99-.46-.94-.87-1.4l-.85-1.08c-.29-.3.04-.09-.36-.26.12 1.24-.01 1.95.99 2.29z" style="fill:#665b55"/><path d="m151.45 24.49.53-.07v-1.08c-1.72-1.13-1.69-.71-2.08-.46-.63.41-1.81-.34-2.54.27-.24.28-.2.6-.28 1.06.08.31-.3.32.89.37.93.04 2.7.11 3.48-.08zm-31.38 28.17c.38.01.25.23.42.19-.38-.69.17-1.38-.32-2-.31-.4-.8-.85-1.51-1.01-.04 2.11.55 1.46.76 2.17.27.89-.34 1.49-.85 1.9-.2.16-.7.52-.53.69.44.43 1.58-.05 2.02-1.94zm-8.5 5.43c.28-.27.14-.02.29-.35-.31-.12-.56-.11-.83-.34.12-.16.12-.15.29-.33l.17-.17.13-.13c.02-.02.04-.04.07-.06.23-.33.33-.6.86-.69.57-.1.98.13 1.24-.35-.16-.17.02-.05-.21-.15l-.82-.09c-2.04.02-1.41.17-1.92.49-.33.21-.35.11-.7.4-.11 1.1.54 1.59 1.45 1.77zm6.8-.47c.53.05.41.28 1.15.05.3-.09.76-.15.94-.27.51-.43.14-2.31-2.83-1.94-.88.11-1.14.05-1.25.41.68.43 2.28-.32 2.66.87-.59-.11-.47-.27-1.23-.13-.74.13-.81.05-1.41-.14l.07.78c.25.11.75.32.93.37.48.15.49-.05.97-.01zm-3.02-.3c.77-.21.21-.79.39-1.84l-.73.09c-.06.66-.27 1.32.34 1.75zm-1.52-.34c-.15-.29-.44-.25-.86-.24-.34 0-.77 0-1.05.08-.1.53.07.11.57.61l.15.18c.54-.13 1.29 0 1.19-.63zm-1.13 6.15 1.15.53c1.11.15 3.19-.4 3.64-1.23 1.37-.59-.32-3.13-3.23-3.01-1.8.07-2.81 1.6-2.48 2.94.13.54.53.63.92.77zm4.27 2.39c.28-.45-.08-.25.47-.5.23-.1.38-.12.61-.26.45-.25.72-.49 1.03-.81 1.21-1.22.7-.73 1.66-2.03.54-.73.97-1.28 1.53-2.16.5-.78 1.15-1.47.95-2.67-.67.01-.96.6-1.27 1.16-.35.63-.64.95-1.01 1.49-.11.15-.16.23-.28.37-1.17 1.31-1.21 5.01-7.25 4.52-1.66-.14-1.08-.55-1.65-.8-.55.64 1.3 1.39 1.8 1.64.61.3 2.65.13 3.41.05zm24.42-7.61c.75-.35.84.21 1.55.08.01-.43-.12-.42-.54-.53l-.15-.83c-.47 0-.49 0-.59.49-.13.63-.05.35-.27.79zm-.68-6.25c-.26-.32-.1-.3-.41-.55.04.6.1.8.39 1.23.15.22.16.24.29.47.22.38.1.27.41.37.12-.47.1-.45-.16-.77.18-.23.2-.22.17-.47-.5-.1-.36.13-.69-.28zm-4.16.85-.04-1.35c-.97.27-1.45 1.84-.66 3.31.3.55.57.93 1 1.27 1.18.94.66.94 1.18 1.1l.2-1.04c-.18-.17-.56-.2-.97-.47-1.01-.67-1.12-1.68-1.29-2.6l.59-.22zm-1.14 7.56c.33.23.55.51.86.8l1.72 1.32c.34.26.6.45.8.78.53.05.58.42 1.06.73.99.65 2.56 1.34 3.8 1.4 1.32.06 3.16.08 4.19-1.02.32-.34.68-.51.68-1.02-.44.06-1.04.27-1.27.49l-.07.57c-1.02.39-2.03.54-3.32.42-1.1-.11-2.17-.26-2.8-.89-1.46-.78-4.91-4.2-5.49-4.42-.18.29-.27.49-.17.84zm7.67-4.67-.14.98.6-.16c.24-.2.65-.15 1.02-.14-.18.58-.71 1.21-.86 1.91.61-.17 1.26-.63 1.44-1.18l-.11-1.12c-.53-.35-1.2-.47-1.95-.29zm-2.9 1.85.29.86c-1.51.13-.54-.16-1.49.36-.16-.32-.22-.57-.16-1.04l1.35-.17zm-2.66.8c.92 1.48 3 .71 3.42.33-.07-.47-.23-1.05-.7-1.26-.47-.21-1.02-.27-1.59-.28-.27.04-1.08 1.1-1.14 1.21zm3.45 4.11c.22.15.55.26.82.45.51.36.05.23.86.34 1.47.2 3.03.27 4.14-.56 1.13-.84-1.07-2.75-1.36-2.88-.41-.18-1.85-.18-2.31-.06-.57.15-1.17.68-1.47 1.04-.37.44-.63.86-.67 1.67zm-8.95-35c.45-.51.79.08.6-1.22-.16-1.24-1.02-.44-1.16-.41-.56.13-2.15.09-2.83.34.23 2.14 1.68 1.41 3.39 1.28zm-7.34-.39.17-.61c-.05-1.17-3.32-.86-3.42-.84l-.03.58c-.04.56-.18.82-.05 1.46.96.77 2.93.7 3.33-.59zm-1.96-6.2-.44-.59c-.49-1.03.19-1.58.76-2.47.64.14.09.41 1.18.5.05.99.08 1.49-.45 2.14.65 0 .71-.5.83-1.12.14-.69.06-.95.29-1.64.5-1.52-2.2-1.42-3.36.22-.2.28-.68.94-.8 1.27-.58 1.58 1.54 1.99 1.87 2l.11-.31zm8.34.48c-1.39.4-2 .27-2.28-1.24-.15-.77-.1-1.13.43-1.47.86-.55.38-.66.7-1.35.39-.04.64.07.97.25.33 1.23.35 2.5.17 3.82zm1.64-1.04c.58-1.11-.81-3-1.36-3.44-.49-.39-2.71-1.33-2.93 1.03-.12 1.29-.16 3.15 1.07 3.87 1.16.68 3.14-1.28 3.23-1.46zm18.29 6.39c.32-.34.28-.81.12-1.32-.83-.11-1.36.06-2.08.15-.88.11-1.38.05-2.16-.08l-.39.04c-.13.74-.06.83.5 1.09.94.43 3.41.44 4 .12zm-2.04 2.22c.87-.1 1.64-.44 1.76-1.2-1.03-.12-2.14.15-3.01-.02-.36-.07-2.21-.54-1.63.41.1.17.25.19.43.27.81.36 1.37.66 2.45.53zm-2.32 1.3c.17.74.54.85 1.35.86.76 0 1.3.01 1.85-.26l.11-.51c.2-.17.19-.1.15-.47l-3.61-.1.15.48z" style="fill:#fff"/><path d="M116.39 20.88c.37.14.83.33 1.23.28.12-.35.15-.87.01-1.23l-1.66-.18c-.08.69-.13.91.42 1.13z" style="fill:#9a8a73"/><path class="fil4" d="m120.66 9.48-.17.64c.42-.12.35-.08.48-.58.06-.25.11-.48.16-.74.35-1.06.28-.7.89-1.25.22-.2.28-.44.48-.6.35-.26.41-.04.72-.37.46-.47.31-.77 1.17-1 1.86-.48 3.23-1.43 5.2-.51.54.25 1.05.41 1.39.78.46.5 1.02.6 1.28.91.29.45.07.73.57 1.14.27-.24.3-.36.2-.82-.07-.31-.85-1.02-1.09-1.32-.63-.77-.62-.53-1.61-1-1.81-.85-2.44-.53-4.59-.39-.1.16.21.29-.56.46-.42.1-.63.12-1 .31-.95.49-3.71 3-3.52 4.31zM135.39 25.73c-.03.44-.11.43.13.76.34-.12.1.18.29-.27.09-.21.03-.33.12-.54.13-.33.8-.48.74-1.92-.03-.58-.13-.69-.64-.8.02.58.02 1.03-.01 1.61-.01.27 0 .58-.1.76-.13.23.03.05-.44.33-.02.01-.05.03-.07.05z"/><path class="fil5" d="M134.6 45.39c-.07-1.73.14-1.57-.97-3.78-.33-.66-.63-.96-1.59-.95-.35.01-1.89-.04-2.15-.07-.45 1.25-.89 1.9-.96 3.53.69-.06.54-.1.81-.63.37-.72 1.63-1.76 2.46-1.22.27.18 1.45 1.88 1.68 2.33.18.35.24.64.43.93l.28-.14zM119.23 42.93c.08.33-.06.19.24.29.44-.44.34-.8.98-1.08.49-.25.47-.38.95-.61.4-.19.69-.3.66-.83-.55-.2-1.16-.36-1.83-.22-.33.36-.94 1.8-1 2.44z"/><path class="fil6" d="M117.82 43.71c-.04-.48.2-1.2.01-1.56-1.14 1.09-2.29 7.56-2.05 9.63.34.26.67.27 1.07.54.35.25.56.54 1.04.68-.03-.89-.21-1.54-.3-2.43-.1-1.09-.28-3.75-.16-4.78.1-.81.26-.24.39-2.09zM132.62 25.95c.19 1.3-.15.7-.6 1.22l1.06-.08c.18-.26.25-.57.29-.92.07-.58.11-.75-.35-.84-.22.42.16.67-.11 1.39-.09-.11-.04.04-.12-.23-.07-.24.03-.28-.17-.53z"/><path d="m119.23 42.93-.32.34c.25.26-.08.01.26.14.73.27-.57-.15.18.05.38.1-.11-.18.3.06-.09.5-.3.37-.81.46-.15.71-.29 4.33-.09 4.93l1.4.2.35-1.25-.35-.14c-.27-.16-.02.16-.19-.18 0-1.36.35-1.69.59-2.84.37-1.81-.84-.72-.1-2.54-.64.28-.54.64-.98 1.08-.3-.1-.16.03-.24-.29z" style="fill:#8a101b"/><path class="fil8" d="M135.24 8.83c.28.33.08.11.12.52.03.32-.15.15.15.49l.09-1.08c.09.1.07.06.16.22.01.02.03.05.04.08l.16.5c.24.9.25 1.76.38 2.67.09.59.24 1.06.32 1.71.16 1.3-.06 4.3.29 5.9.43 1.97.82 2.05.39 3.33l.27.02c.83-1.33 2.94.86 4.48.75.3-1.07-1.11-1.35-1.94-1.46-.47-.06-1-.17-1.35-.38l-1.09-.61c.07-.66.73-.61.85-1.73.01-.06.05-.57.05-.59-.01-.4-.01-.14-.16-.4-.49-.84-.27-4.25-.49-5.78-.14-.96-.95-2.86-1.41-3.7-1.01-1.87-.67-1.03-1.6-2.19-.25-.32-.26-.46-.64-.55.22.34.15.12.32.55.29.75.62 1.16.61 1.74zM135.25 33.41l-.18 3.97c1.21-.63 2.04-4.41 2.42-6.11.21-.91.77-6.45 1.19-7.06 0-.05.01-.11 0-.15-.12-.7.11-.05-.14-.28-.57.25-.11.4-.65.63-.23-.45.1-.59-.33-.77-.33.28-.16 1-.15 1.44.03.91-.92 5.76-1.21 6.67-.43 1.37.5 1.44-.57 2.3l-.04-.92c-.31.13-.08.02-.34.28zM118.57 22.96c.02-.02.06-.09.07-.07l.24-.26c.08-.11.15-.24.24-.41.19-.36.22-.53.57-.74 1.29.52 1.07 1.37 1.96 1.61.49.14.83.22 1.18-.07l-.65.04c-.21-.34-.09-.09-.07-.43.01-.26.1-.1.02-.56-1.09-.73-2.87-.81-2.37-4.51l-.47.02c-.04-.68.14-1.48.08-1.93-.06-.44-.16-.26-.14-.88.02-.47.1-.65.05-1.13-.16.21-.16.41-.17.47-.25 1.21-.19.45-.43 1.06-.13.33.04 1.3.05 1.77.01 1.32-.16 2.67-.12 3.93.25.23.38.21.59.52-.34.62-.49.68-.62 1.57z"/><path class="fil9" d="M137.45 42.76c.22-.5-.09-.1.23-.16.24-.04.37.12.77.36.89.54-.05.24 1.33.95 2.03 1.04.32 1.67 2.84-.12 1.73-1.23.43-1.82 3.08-.15.6.38 1.14.85 1.81 1.1-.16-.56-.44-.45-1.09-1.49-.13-.22-.28-.57-.44-.75-.28-.33-.39-.17-.68-.67-.7-.16-1.41-.28-2.25-.44-.68-.12-1.13-.5-1.94-.61-1.2-.17-4.05-.27-5.15-.01-.05.1-.05.03-.05.23 0 .48 1.18 2.33 1.25 2.4l.16-.39c.06-.15.02-.16.14-.25zM108.46 37.12c-.2.56-.34 1.07-.58 1.53-.27.53-.67.7-.62 1.37 1.55.28 2.63-2.27 3.47-.35.39.89 1.28 2.88 1.8 3.53.38-.17.36-.32.39-.82.84.02 1.11-.45 1.72-.73.05-.12-.01-.04.15-.21.06-.07.11-.1.17-.15.15-.12.24-.16.36-.26.86.13 1.16.61 1.43.85.31-.27.62-1.15.55-1.72-.44-.19-.85-.11-1.26-.25-.46-.16-.41-.32-1.06-.49-1.79-.44-2.81-.62-4.54-1.51-.56-.29-1.42-1.04-1.98-.78zM143.72 19.7c.12 0 5.42 1.21 6.21 1.14l.23-.56-.2-.1-.57.01c-.51-.77.15-.25-.72-.62l-.23-1.67c-.7.07-1.27.33-1.72.71-.68.58-.71.4-1.67.08 0-.41.06-.79.01-1.2-.05-.46-.19-.59-.27-.87-.93-.12-1.27.36-1.75.81-.39.37-.88.68-1.19 1.14.49 1.09 1.16.55 1.87 1.13z"/><path class="fil10" d="M117.83 42.14c.19.36-.04 1.08-.01 1.56l.23-.83c.02-.01.05-.03.07-.05l.31-.54c.11-.32.19-.53.33-.88.34-.83 1.08-2.64 2.18-2.5.56.07 1.02.7 1.82.32 1.27-.6 0-2.3 2.45-2.31.92 0 3.76.08 4.46.28.22.96.09 2.14.75 2.62.54.39 2.06-.19 3.13.01l.45.98c.23-.09.12-.07.44-.07-.08-.42-.1-.97-.09-1.47.02-.58.19-.64.28-1.1.68-3.44-1-2.22-2.88-2.33-3.69-.21-7.57-.25-11.3-.1-.49.02-.87.13-1.31.16-.49.04-.87-.05-1.37.05-.16.65.04 1.49.3 2 .31.62.68.66 1.16 1.11.21.43-1.01 1.98-1.4 3.07zM128.26 12.67c.26 1.12-.03.66-.3 1.39-.22.59.18.77-.25 1.7.3-.2 1.56-1.65 2.52-2.26.24-.15.36-.15.64-.34.33-.22.87-.72 1.4-.34-.1.86-.39.02-.79.87.18.58 1.7 1.25 2.15 2.11.59 1.12.6 4.27-.32 5.22-.24.25-.33.26-.54.54-.66.87-.7.48-1.22.95-.59.53-.39 1-2.36.27l1.04.88-.53.46c-.02.01-.04.03-.06.04l-.85.23c1.08-.01 1.49.07 2.35-.33.57-.26 1.49-.28 2.21-.3-.08.37-.25.67-.16 1.05.07.29.08.2.15.3.2-.48.6-.45 1.06-.6.22-1.48.16-.99-.41-1.39.18-.81.47-.79.39-2.53l.92.38.58-.27c-.11-1.19.14-2.65.1-3.98-.03-1.09-.24-2.75-.66-3.62l-.02 3.15c-.62.01-.77-.63-1-1.13-.64-1.37-.63-1.2-1.13-2.12-.63-1.16-1.69-.4-2.5-.44l.02-.52c-.27.15-.31.18-.58.58-.18.27-.21.42-.52.57-.7.35-.91-.26-1.34-.53zM120.54 14l.54.16c-1.42.43-.69.67-1.5 1.25l.41.23-.04.67c.02-.02.06-.08.07-.06l1.51-1.69c.11-.09.26-.16.31-.25.35-.58.07-.24.01-.37-.43-.16-.81.03-1.31.05z"/><path class="fil11" d="M120.66 9.48c-.26.24-.1.05-.33.48l-.19-.4c-.15 1.1-.97 3.12-.86 4.09.05.49-.03.67-.05 1.13-.02.62.09.44.14.88.06.45-.12 1.25-.08 1.93l.47-.02c.29-.32.24-.8.2-1.26l.04-.67-.41-.23c.8-.58.08-.83 1.5-1.25l-.54-.16-.45-.07c.1-.44-.16-.13.29-.42.31-.2 1.33-.24 1.7-.27.88-.07 1.27.26 1.87.63.53.33 1.06.66 1.45 1.05.35.36.5.28.65.65.95 2.36-.33 4.95-1.77 6.51-.7.77-1.02.75-1.45.95-.35.29-.69.21-1.18.07-.9-.25-.68-1.1-1.96-1.61-.35.21-.38.38-.57.74-.09.17-.16.3-.24.41l-.24.26c-.01-.02-.04.04-.07.07-.04 1.05-.1 2.57.1 3.54.22 1.06.91 1.62.91 2.81 0 .7-.65 2.06-.84 2.86-.12.52-.03 1.09-.34 1.51-.43.58-.48.25-.5 1.33.52.02.86-.06 1.34-.08.44-.02.84.07 1.3.08.82.02 1.77.01 2.58-.09-.1-.59-.72-1.26-1.21-1.43.3-1.95-.6-2.41-1.24-4.18-.54-1.51.19-3.67-.04-5.21 2.66-.28 4.24.88 8.15.31l.85-.23c.02-.01.04-.03.06-.04l.53-.46-1.04-.88c-1.09-1.18-1.54-1.13-1.6-3.38-.24.37 0 .42-.32.54-.26-.41-.54-2.2-.33-2.74.53.47.17.92.43 1.51.16-.23.13-.22.11-.78-.06-1.9.21-1.78.21-2.16.43-.92.02-1.11.25-1.7.28-.73.57-.27.3-1.39-.49-.53-.59-.1-.52-1.23l-.24.47c-.06.14.16-.03-.12.26l-.45-.2c-.01.57.01.89-.32 1.17-1.19 1.03-2.28-.26-2.81-.73-1.09-.97-2.74-2.18-1.95-3.31l-.65.17-.07-.45c-.05.26-.1.5-.16.74-.12.49-.05.45-.48.58l.17-.64zM132.82 7.92c.03.3-.1.23.13.36.91.93-.31 1.56-.73 2.12-.38.51-.23.46-.79.84-.34.23-.64.54-.75.8l-.02.52c.81.04 1.88-.72 2.5.44.5.92.49.76 1.13 2.12.23.5.38 1.14 1 1.13l.02-3.15-.48-2.85c-.06-.13-.21-.71-.28-.93-.28-.93-.2-.35-.61-.9-.06-.08-.07-.12-.12-.22-.21-.43-.4-.83-.82-1.11.1.46.07.58-.2.82z"/><path class="fil12" d="M141.96 26.02c-.16.43-.56.91-.97 1.12-.11 1.61-.14 1.88-.5 3.35-.25 1.02-.31 2.13-.51 3.17-.18.94-.79 1.65-1.16 2.54-.31.75-.62 2.68-.49 3.1 2.46.04 4.79.85 7.12 1.04.11-.83-.51-1.83.08-5.36.15-.91.22-1.65.32-2.61.13-1.21-.06-1.44-.1-2.51-.04-1.37-.76-1.42-.6-2.37.06-.37.27-.65.32-1.12.15-1.45-.05-.86.44-2.5.19-.64.04-.52.6-.81.41-.21.46-.42.81-.59.42-.19.53-.07.97-.13.29-.04.07.04.26-.08-.25-.53-.45-.15-1.59-.5-.96-.29-2.12-.72-3.09-.82-1.89-.19-.49.01-1.64-.32.17 1.25 1.11.96 1.09 2.93-.02 1.13-.82 2.11-1.35 2.46zM112.86 27.53l-.95 1.22c.49.24.31.28.22 1.53-.02.28-.13.64-.12.87.02.34.15.34.28.65-.19.39-.53.64-.64 1.1-.1.4-.12 1.12-.16 1.55-.14 1.33-.27 2.1.92 2.53-.01-.16-.07-.01-.09-.37 2.39-.27 2.8.62 3.62-.36-.06-.52-.13-.21-.27-.65.22-.39.44-.39.7-.71.34-.42.23-.61.36-1.06.2-.72.76-1.34.6-2.06-.2-.96.01-1-.24-2.6-.14-.91.18-1.33-.06-2.52-.85.23-.49.5-1.61.16-1.48-.44-2.16.22-1.64 1.54.2.52.33.43.64.74-.09.71-.64 1.3-1.4 1.34v-.8c.82-.32 1.6.24.51-.92-.25-.26-.5-.42-.75-.71l.06-.47z"/><path class="fil13" d="M49.3 63.89c-.47-.87-.36-2.39.27-3.51.26-.46.26-.62.71-.77.34.29.35.79.38 1.26.03.47.16.92.08 1.34-.08.41-.26.86-.5 1.11-.25.25-.48.55-.94.57zm42.61 2.12c-.15.53.8.94.93.32.1-.48-.69-.7-.93-.32zm11.91.63c.49-.37 0-1.03-.59-.83-.53.18.09 1.05.59.83zm-5.64-.81c-.31-.1-.59-.09-.89.04.08.62.87 1.28 1.12.49.08-.26.02-.42-.23-.54zm9.42-15.8c.05.63-.4 2.03-.55 2.73-.21.92-.27 1.81-.5 2.75-.2.81-1.24 4.95-1.06 5.33.47-.41 1.02-1.92 1.39-2.54.19-.86.94-2.71 1.33-3.41.57-1.02.97-2.12 1.5-3.27.51-1.12 1.54-3.79-.63-3.74-.62.02-.75.37-1.09 1.26-.06.16-.08.26-.13.41-.03.09-.05.15-.1.24-.09.17-.05.12-.15.23zm-8.32 12.74c.31-.35.19-.44.33-.94l1.15-2.77c.3-.56.66-1.04.99-1.61.56-.98 1.83-4.28 2.34-5.47.45-1.05 1.56-2.45.61-3.58-.47-.55-1.39-.25-1.76.15-.41.44-.24.75-.84 1.77-.56.95-.74 3-.98 4.23-.19.97-1.96 7.9-1.85 8.22zm-5.79-.2c.48.07.38-.09.59-.65.64-1.74 2.07-4.53 2.91-6.09.7-1.29 1.23-3.14 1.49-3.61.45-.8 1.71-2.88.66-3.68-1.56-1.2-2.38.88-2.51 2.14-.04.42.08.73.01 1.13l-.97 2.81c-.19.74-.2 1.48-.46 2.14-.29.72-.38 1.14-.54 1.94-.24 1.19-.64 2.9-1.18 3.86zm-14.24-3.24c.11-.59.27-.73.44-1.19.14-.39.23-.83.36-1.26.32-1.14.71-1.43.97-2.18.32-.93-.49-1.84-1.11-1.82-.57.01-1.06 1.13-1.38 1.71-.37.68-.9 1.41-1.19 2.08-.33.78-.42 1.67-.7 2.42-.24.65-.65 1.67-.92 2.23-.45.96-.79 1.58-1.62 1.64.11-1.37.53-1.65.13-3.99-.11-.66-.38-1.06-1.14-1.01-1.26.07-1.51 3.3-1.92 4.56-.45 1.37-.69 2.3-1.95 2.21-.04-.74.29-.67.53-1.16.19-.4.15-.94.22-1.41.29-2.05 1.79-4.16.86-5.01-.77-.71-1.77-.43-2.22.19-.41.58-.02.76-.16 1.27-.03.12-.46.79-.59 1.03-.36.66-1.45 2.62-1.92 2.95-1.32.93-.82.63-1.81 1.44-.32.26-.72.42-.7.94.78.53 1.91-.96 2.31-1.28.34-.28.74-.59 1.11-.84 1.08-.7.57-.6.71-.88 1.11.38.67 2.02.64 2.36-.09.9.55 1.81 1.38 1.69 1.24-.18 1.23-.98 2.53-2.25.23-.23.36-.68.65-.9.35.35.1.4.34.68.12.15 1.43.69 2.1.28.88-.53 1.04-1.74 1.68-2.01.29.65-.67 1.77-.91 2.02.64.06.4-.6.89-.26.39.49-.17.21-.14.8.03.53.12-.3.06 1.11.73-.23.27-.15.76-.63.2-.2.34-.25.6-.49.51-.46.57-.82.98-1.3.36-.42.68-.72 1.08-1.2.33-.4.64-.83 1.03-1.26.49.26.2.75 1.34.94.5.08 1.19-.02 1.65.09.36.09.19.03.4.17-.25.48-.47.29-.44.96.02.39.16.71.31 1.01.38.77.34 1.13.87 1.84 1.74-.26 2.45-2.37 3.07-2.01.47.27-.06.45.47.44.79-.01 1.33-1.98 1.53-2.48.59-1.48 2.46-3.01.99-4.03-.77.24-.89 1.4-1.94 1.13-1.16-.3-1.44-.72-2.06.54-1.29 2.62-.16 1.13-.59 2.45-.15.46-.36.49-.48 1.14-.23 1.22-.25.95-.57.98-.24-.39.06-.75.21-1.21.47-1.47-.23-.63 1.23-3.65.66-1.37 1.26-.58 1.97-1.27.39-.38.82-1.75.68-2.51-2.3-.55-3.06.84-3.73 2.27l-1 2.04c-.41.85-.44 1.3-1.66 1.29.1-.32.32-.25.42-.57.19-.67-.47-.16.3-2.09.38-.94.41-1.99-.26-2.63-.53-.24-2.06 1.44-2.45 1.88-.44.51-.72.61-1.15 1.02-.35.34-.48.75-1.06.98zm-19.72-1.62c-.8 1.02-1.08 2.44-1.52 3.92l-1.23 2.79c-.06.11-.2.29-.31.34-.18.1.02.04-.21.05-.66.03.02-1.15.1-1.79.04-.33.05-.7.11-1.07l.49-1.81c.24-.41.16-.22.34-.73.33-.91.52-.66.21-1.82-.16-.4-.49-1.21-.81-1.43-.29.15-.91.89-1.08 1.14-.72 1.07-.27 1.68-1.16 3.18-.34.58-.44.87-1.29.97.12-.58.38-.7.42-1.23.03-.37-.07-.99-.07-1.42-.02-1.92.19-1-.69-2.21-1.22-1.66-2.49-.21-3.26.94-.48.72-.73 1.02-1.28 1.65-.44.5-.25.38-.46 1.08l-1.11 1.8c-.56.88-.66.13-1.5 1.43-.26.41-.18.61-.38 1.03-.12-.22.25-2.37.38-2.76.25-.75.68-1.44.99-2.25.59-1.57.98-3.44 1.58-5.03 1.47-3.9 4.35-6.83 3.96-9.19-.39-.27-1.14-.66-1.68-.79-.31.33-.3.47-.65.76-.35.29-.44.19-.68.62-1.16 2.09-1.57 3.32-2.53 5.5-.77 1.75-2 3.83-2.5 5.53-.33 1.14-.41 1.12.46 1.61.2 1.78.06 3.85-.6 5.41-.2.48-.68 1.58.12 1.71.23.04.17.01.34-.05l2.63-2.16c.33-.41.25-.88.71-1.12.44.35.46 1 .75 1.52.2.36.73.93 1.1 1.1 1.21-.46 2.74-1.66 2.87-2.89.23.01.64-.05.79-.02.34.08.03.08.46.27.61-.24.36-.57.93-.71.08.65-.04.7.19 1.32.21.58.13.74.17 1.35.04.53.62 1.74.88 2.09 2.76-.56 1.61-1.76 3.8-2.87.32.46-.25.61.49.83.56.17.68.09 1.13-.06.98-.33 1.23.33 2.06.31.76-.78.39-1.83.57-2.76.14-.75.33-.77.54-1.2.52-1.06-.06-.95 2.09-2.9.73-.66 1.56 0 2.11-1.26l-.96-1.73c-.43.01-2.71.85-3.4 2.16-.41.77-.81 1.22-1.26 2.31-.19.47-.29.89-.51 1.33-.33.67-.3.64-.44 1.43-.09.53-.38.73-.9.56-.19-1.06.37-2.26.23-3.02 0-.01-.38-1.09-.44-1.23-.21-.49-.43-.48-1.07-.52zM138.97 13c.02.03.03.04.04.09.01.06.06.15.07.18.04.15.04.26.08.38.13.44.11.18.29.44.07.09-.01-.08.12.21l.1.33c.2.69 1.23 2.19 1.49 2.25.54-.08.55-.33.95-.53.59-.3.49-.01 1.01-.5.25-.24.67-.45.74-.8.08-.41 0-.34-.15-.57-.22-.34-.31-.16-.12-.38-.34-.52-1.48-1.09-2.14-1.47-.84-.47-1.76-.75-2.57-1.17l.1 1.52z"/><path d="M146.99 42.31c.43.4 1.62 2.4 1.25 3.18-.7.81-2.08-.12-2.76-.45-1.47-.71-1.45-.55-2.75.15-.58.31-2.15 1-2.79.62-.93-.56-1.18-1.31-1.94-1.74l-.15.13 2.18 5.43c.54 1 1.18 1.15 1.79 2 .31.42.92 2.15.93 2.69.02.02.04.04.05.08.01.02.15.3.39.34.35-.42.04-.22.01-.83.77.12 1.42-.1 1.99.08 2.96.92 2.62.38 3.65-1.07.22-.31.3-.34.46-.74.24-.59.43-1 .68-1.61.36-.91.05-.78.73-1.54l1.57-3.1c.91-1.79 1.08-10.38.71-12.62-.11-.67-.29-2.6-.46-3.01-.2-.49-.31-.45-.88-.33-.41.41-.48.81-1.55 1.3-.99.46-2.1.07-2.55.39-.31.36-.27 2.04-.33 2.7l-.47 5.61c-.23 1.32-.12 1.29.26 2.33zm-41.45-2.38c.64-.23.84-1.26 1.19-1.78 1.24-1.8.59-1.03.96-1.65.19-.31.03-.11.23-.25l.72-4.83c-1.09 0-2.73.47-3.81.8-.57.17-.59.32-.98.46-.35-.54-.2-.86-.9-1 .21.69.64 1.03.89 1.89.21.71.33 1.46.53 2.17.41 1.39 1.16 2.52 1.17 4.2zm5.67 14.02c.11.13.13.18.2.41l-.48.17c-.27.09-.11-.04-.36.15.21.15.51.14.74.15l-.01.28c.62-.36-.48.44.22-.24.38-.37 1.18-.37 1.55-.98.55-.91.43-.51.64-.88.11-.19.25-.78.33-1.05.48-.22.83.01.7-.79-.78-.09-.94.46-1.07.62l-.2.18c-.01-1.25.52-1.25.92-2.18.3-.71.57-3.38 1.04-4.81.21-.64.7-1.65.7-2.24l-.34-.07c-2-.08-1.92 1.15-3.24 1.34-.28-.14-.43-.35-.79-.59-.81-.56-.26-.51-1.2-1.84-.27-.37-.32-.63-.52-.98-1.04-.04-2.96.79-3.62 1.29-.07.63.14 2.19.31 2.77.12.41.53 2.02.93 2.23.36.19 2.42-.65 3.07.47.14.25.33.68.44.97.14.38.14.61.09 1.05-.09.84.09.66.16 1.19.1.72-.6 1.39-.73 2.05.56.03.51-.12.86.19-.09.31-.13.16-.42.43l.09.67zm9.99-1.94c.09 1.33-.27 1.07.42 2.27 1.07 1.88 1.43.89 2.34 2.87.39.84.58 1.36-.26 1.76-.04 1.64-.67.85-.76 1.86.62.43.98 0 1.25.82-.51-.05-1.5-.07-1.93.17.41-.01 2.14.61 2.83.77 1.08.25 1.83.42 3.03.55 1.2.13 5.85.41 6.81-.02-1.12.04-2.26-.03-3.42.02-1.45.06-1.85-.23-2.95-.46.08-.23-.14-.31.78-.29l4.67.04c.56 0 1.38.15 1.72.12-.31-.33-.28-.05-.59-.57-.48-.8-1.02-2.2-.45-2.98.03-.63.34-1.16.42-1.86.12-.99-.06-1.33-.14-2.18 0 0-.24.2-.25.2.28-1.11-1-2.16.38-4.07 1.59-2.22.37-2.12.36-3.94l-.36-.54c-.83-.06-1.4-.07-1.77-.73-1.37-2.45-2.15-1.43-2.75-1.15-2.34 1.1-2.01.55-3.56 3.7-.96 1.95-1.43 1.63-2.12 2.75-2.28 0-2.44-.28-3.27-.28l-.22.62c-.08.27-.12.37-.22.55zm2.34-20.19.34.01c.81 2.04 1.94.87 2.08.84-.16.65-.41.67-1.13.84-.82.2-.92-.17-1.41-.49.22.64 1.1 1.4 2.15 1.12 2.42-.64 3.28-3.04 3.47-3.27.71-.82 1.71-.74 1.81-1.45-1.72-.56-2.11-.62-3.72-.49-.88.08-2.67-.57-3.66.48-.32.34-.74 1.61-.65 2.25l.89-.06c-.21.1-.11.15-.17.22z" style="fill:#c8000e"/><path d="m121.12 8.8.07.45.65-.17c.6-.09.09-.32.71-.23.5.08 1.32.91 1.97 1.29.35.21 1.15.6 1.38.78.33.27.65.97 1.02 1.02l.45.2c.29-.29.06-.12.12-.26l.24-.47c.4-.49.4-.61.92-1.02.42-.33.76-.65 1.19-.98.83-.64 1.64-1.3 3.11-1.15-.23-.13-.11-.06-.13-.36-.5-.41-.28-.7-.57-1.14-.26-.32-.81-.41-1.28-.91-.34-.37-.85-.53-1.39-.78-1.97-.91-3.34.03-5.2.51-.86.22-.71.52-1.17 1-.31.32-.37.1-.72.37-.21.16-.26.4-.48.6-.6.55-.54.18-.89 1.25z" style="fill:#1aa7a0"/><path class="fil16" d="M106.37 9.76c1.57-.39 2.76 1.27 3.24 2.29.85 1.81.98 5.75.52 7.51-.43 1.65-.5 1.9-1.29 2.93-.5.65-1.1 1.96-1.93 2.27-.71.26-1.72.16-2.37-.17-2.59-1.33-1.31-3.92-1.08-6.44.16-1.82.26-3.19.68-4.93.41-1.69.65-3.07 2.23-3.46zM67.6 9.08c1.59-.33 1.69.27 2.18.62.48.34.92 1.05 1.24 1.7 1.36 2.81 1.21 6.63-.18 9.52-.34.71-1.71 3.21-2.37 3.4-2.08.63-3.3-.45-3.94-1.67-.84-1.59.22-2.96.35-4.61.07-.85-.15-2.19.05-2.89.52-1.83.68-5.64 2.67-6.06zM51.59 24.29c.29 1.05.09 2.53.76 3.59.68 1.08 2.18.82 3.67.81 1.35-.01 2.85-.15 3.92-.53.49-.17 1.41-.2 1.77-.52.41-.37.42-.85 1.24-1.01.79 1.51.92 2.19 2.5 2.04 2.39-.23 1.08.34 3.68-.98 1.07-.54 1.91-1.29 2.62-2.04.33-.36.82-.79 1.07-1.21.31-.54.38-1.31.76-1.58.38.43-.04.45.33.76.17-.37 0-.59.22-1.13.63.3-.06.88.79 2.91 1.08 2.56 1.5 2.49 1.76 2.9.34.54-.18.49 1.49 1.43 1.73.97 4.31 1.4 5.82.04 1.36-1.22 2.28-2.98 2.77-4.82l.43-2.37c.07-.49-.03-.59.16-.85.49.22.33 1.08.73 1.67.62.92.67 2.53 2.64 4.74.39.44 2.05 2.13 2.53 2.34.32.14.5.11.89.31 2.11 1.08 1.66.3 3.16.64l.66-.26a3.2 3.2 0 0 0 2.2-3.45c-.65-.44-.29-1.22-1.43-1.25-.74-.02-1.81.27-2.5-.04-2.1-.93-2.14-1.32-3.37-2.16-.63-.43-1.65-2.52-1.96-3.57-.36-1.2-.65-3.53-.48-4.88.07-.57.19-2.08.33-2.49.54-1.6.12-2.44 1.75-3.68.67-.51 1.01-.58 2.12-.58 1.08 0 1.31.3 2.11.7 1.21.6 1.71 1.52 3.03 2.4 1 .66.74.26.92.96.09.26-.06-.07.1.18.45.68-.14-.48.15.2-.17.63-.35.73-.44 1.53-.38 3.55-.51 4.95-.05 8.68.14 1.12.67 2.08.74 2.95.26.25.39.73.59 1.06.2.32.49.69.72.91 1.81 1.7 5.45-.55 6.99-1.77 2.29-1.81 4.11-4.74 3.59-9.16-.33-2.8-.04-1.65-.73-4.14-.44-1.6-.35-1.8-1.3-3.58-1.17-2.18-2.59-4.63-5.62-3.46-1.91.73-1.98 1.77-3.32 3.08-.26-.46-.25-.71-.61-1.12-.82-.93-1.57-1.54-2.53-2.36-2.9-2.48-6.43-1.69-8.76 1.35-1.98 2.57-1.41 3.32-2.09 4.4-.24-.45.09-.76-.33-.94-.17.54.04 1.06-.43 1.34-.34-.68-.05-2.31-.46-3.51-.29-.84-1.01-1.8-2.14-1.77-2.14.05-.48 4.65-.09 5.84.65 1.97.81 4.97.53 7.16-.33 2.65-.34 4.31-1.73 6.1-.48.62-1.45 1.45-2.76 1.09-2.33-.63-3.6-5.8-3.82-7.94-.22-2.11.18-5.34.58-7.31.15-.73.38-.91.12-1.55-.17-.4-.27-3.63-2.63-3.3-.3.47-.96 1.49-1.04 1.87-.08.37-.23 2.13-.44 2.42-.21-.97-.26-.83-.67-1.55-.83-1.44-1.14-2.69-2.97-3.86-1.18-.75-2.52-.46-3.63.15-2.9 1.59-3.97 6-4.41 9.28-.09.65-.24 5.91-.1 6.64.12.63.69.47-.04 1.51-.45-.03-.9-.28-1.52-.33-.62-.05-1.07-.06-1.68-.13-1.31-.15-2.08.14-3.13-.45-3.49-1.95 1.17-10.85 1.01-17.93-.03-1.17-.67-2.67-1.81-1.92-.86.57-.97 1.62-1.08 1.96-.75 2.43-1.3 6.77-1.38 9.5-.04 1.19-.35 2.03-.39 3.14-.07 2.33-.24 4.61-.09 6.91zM32.17 34.15c.39.44.91.78 1.36 1.28.56.62 1.68 3.03 1.71 3.63.15 3.17-.36 4.67-2.18 7.19-.23.32-.23.5-.51.79-1.38 1.34-2.07 1.98-4.21 1.62-1.86-.31-4.16-1.56-3.16-3.69.58-1.22.64-1.26.79-2.75.38-3.71.66-9.53 6.19-8.08zm.47 17.25c.47-.13-.15.02.6-.42 2.34-1.37 1.22-.76 2.95-2.05 1.09-.8.52-.61.98-.95.81 1.26.02 2.43 2.75 3.63.91.4 1.71-.22 2.35-.62.62-.39.92-1.23 1.19-1.95.74-1.97.4-3.89.29-5.85-.11-1.94-.05-2.76.5-4.31.56-1.5 1.99-.49 2.26.18.67 1.67.62 5.06 1.29 5.83.2-.28.11-.16.06-.58 1.13.09 1.65-1.56 3.15-.64 1.58.97 1.65-.61 3.14-.53.36.57.24.88.47 1.37.37.77.34.21.27 1.4-.08 1.33-.16 5.51.25 6.65.23.63 1.17 1.51 1.74 1.68-.45-.61-1-.74-1.18-1.57-.35-1.56.1-3.08 1.3-3.96.8-.6 1.04-.52 2.19-.65.27-1.08.19-6.44-.04-7.77-.19-1.05-.47-2.18-.93-3.06-.42-.82-1.13-1.91-1.85-2.22-1.07.16-2.23 1.7-2.8 2.47-.47.64-1.38 1.53-2.23 1.69-.53.1-.62-.11-.89-.34-.63-.54-.88-.4-1.17-1.45-.95-3.43-.28-5.02-2.52-5.3l.08-.48c-1.45-.19-2.06-.28-3.17.51-1.87 1.32-2.25 2.02-3.53 4.28-.58 1.03-.79 2.13-1.54 2.29-.69-.93-.32-2.59-3.54-6.27-1.17-1.34-3.08-2.37-5.02-2.22-.98.08-.75.49-1.9.46-.05.64-.26.88-.33 1.28-.34.21-1.18 1.59-1.9.93-1.43-.43-1.17.45-1.84.75-.34-.25-.27-.46-.61-.77-.72-.64-1.88-1.24-2.45-1.78-1.38-1.3-3.37-1.67-3.61-1.96-1.15-.04-.89 1.47-2.25 1.78-.71.16-1 .09-1.68.41-1.2.56-1.91.94-3.13.58-1.89-.56-1.77-1.21-3.66 1.19-2.78 3.52-3.62 8.08-2.6 12.55.88 3.88 3.71 7.01 7.43 8.52 2.97 1.2 6.45 1.98 8.98-.75 1.08-1.16.37-1.88-.11-2.77-.79-.2.25-.47-2.49-.41-4.29.09-2.7-.34-4.78-1.04-1.1-.37-2.7-1.61-3.41-2.46-1.31-1.54-1.63-5.02-1.34-7.19.15-1.11.81-3.75 1.36-4.5.76-1.03 2.65-1.75 4.24-1.6 3.92.39 4.17 1.49 6.16 2.66 1.2.71 1.26.52 1.91.58.87.07-.18 1.31-.4 2.59-.31 1.84-.66 4.3-.49 6.21.1.85.21 2.31.52 3.05.03.06.06.19.08.25.39 1.34 1.28 3.02 2.45 3.73.28.17 1.25.59 1.54.48.42-.16-.1-.42.81-.13.99.32 3.7-.41 4.61-.76l1.51-.69z"/><path d="M48.78 17.49c-.31 2.44-3.77 2.09-3.87-.32-.09-2.05.46-4.77.75-6.81.11-.74.86-2.3 1.44-2.15 1.29.35 1.84 8.06 1.69 9.28zM25.07 27.61c-.27.34-.29 1.39-.29 1.92-.01.81.23 1.21.33 1.81.53.24.55.46.99.72 1.13-.36 1.29-1.6 1.61-2.83 1.52-.42 3.26-.31 5.01-.46.31-.44.15-.38.74-.58 3.54-1.23 2.87-1.54 4.25-2.57l1.52-1.18c.21.72-.06.88-.34 1.27-.38.52-.1.09-.22 1.53-.36 4.17 1.35 4.14 3.13.29.18-.39.83-3.53 1.25-4.05.28-.34 1.66-.6 2.04-.68.7.76 2.41-.22 3.43.48 2.48 1.69 1.5 4.43 1.62 5.24.07.51.16.14.14.88-.02.63-.17 1.5.14 1.95.15.22.79.84 1.08.95 1.47-1.07 1.15-2.76 0-3.98-.52-.55-.8-2.07-.82-2.9-.1-.55-.51-.68-.1-1.5.64-1.28.12-2.98.16-5.21.06-1.97.56-6.84.03-8.54-.27-.85-.21 0-.52-1.63-.12-.65-.18-1.29-.43-1.86-.24-.56-1.6-2.21-2.01-2.54-.63-.52-2.31-.51-2.99.8-2.68 5.13-2.44 7.88-3.43 10.11-.42-.59-.24-4.86-2.41-7.4-1.18-1.38-3.28-3.43-5.77-4.11-.16-.04-4.15-.6-4.27-.61-1.42-.01-2.88.97-2.82 2.15.08 1.66.09 2.91.32 4.56l.28 4.14-.17.55c-.48-.34-.3-1.99-.72-3.42-.44-1.51-.96-4.9-2.23-6.01-.38-.33-.82-.45-1.28-.78-.44-.31-.7-.58-1.44-.26-1.89.79-3.15 6.62-3.85 8.53-.35.95-.5 2.43-.72 3.51-.46 2.19-1.37 4.47-1.6 6.66-.11 1.07-.3 2.56-1.08 3.01-.83.47-2.64.2-3.4-.23-3.06-1.72-4.11-4.45-4.48-7.9-.16-1.48.25-2.85.16-4.01.42-.48.18-2.57 1.57-4 .28-.29.88-.66 1.08-.92.87-.05 1.22-.5 2.39-.17 1.36.38 2.09 1.3 3.35 2.29.65.51.89.94 1.42 1.37.56-.32 1.28-1.86 1.43-2.79.15-.92-.54-1.3-1.54-2.7-1.11-1.55-3.92-3.32-5.54-2.85-3.42 1-2.24.52-4.27 2.14L3.87 8.09c-.3.59-.14 1.09-.31 1.64-.2.64-.42.76-.54 1.63l-.31 1.86c-.21 1.27-.02 6.55.22 8.03.57 3.47 2.14 6.15 4.59 8.21.91.77 1.61 1.05 3.04 1.31 1.87.34 2.53-.56 3.32-.83 2.72-.96 1.51-1.22 2.57-1.82l1.49-3.24c.56-1.22.97-2.2 2.67-2.18 5.97.07 4.38 2.67 4.5 4.88zM23.9 16.62c-.34 1.19-.31 1.87-1.32 2.32-1.12.5-2.01.25-2.41-.96-.89-2.69.07-3.78.36-6.37.06-.53.61-2.59.82-2.89.84-1.18 1.51.84 1.75 1.46.18.46.37 2.48.48 3.2.13.84.51 2.59.32 3.24zm13.64-.33c-1.07 6.49-2.62 5.4-4.79 7.62-1.1 1.13-2.45-.5-2.95-1.01-1.09-1.11-.32-.93-.43-4.01-.09-2.3.04-6.52.8-8.51.19-.5.7-1.8.97-2.07 1.03-1.02 4.81-.25 5.86 2.5.51 1.34.8 3.95.55 5.48z" style="fill:#cc011f"/><path d="M96.31 33.89c.86-.32 1-.07 1.3.57.84 1.77 2.68 6.27 2.08 8.05-.4 1.2-.34 1.39-2.12 2.01-.7.24-1.23.1-1.78-.22-.47-.27-1.14-.31-1.37-.68-.91-1.48-.11-6.9.85-8.68.41-.76.28-.77 1.04-1.05zm-35.13 8.89c.45.46 1.22 3.09 1.33 3.69.31 1.73.19 2.99-1.71 2.87-2.44-.15-3.05-.27-4 1.03-1.14 1.55-.02 2.27.64 3.33.75.08.79-.12 1.75.1 1.48.34.84.39 1.71.39 2.31.01 3.81-.5 5.33-2.53 1.71-2.29.8-1.77.79-2.59-.02-1.95.38-.85-.25-3.6-.38-1.65-.97-3.57-1.22-4.92-.12-.68-.34-.81-.46-1.46-.14-.73-.19-3.01.59-3.16.29-.32.37-.22.75-.43.99-.54 1.27-1.13 2.14-.64-.14 1.14-.26-.04-.23 2.48-.01 2.12-.12 4.21.29 6.16.87 4.13.92 6.26 3.98 8.82.69.58 2.48 1.65 3.08 1.8.34.09.36 0 .67.08.27.07.17.14.59.22 1.05-.92.97-2.84 2.6-2.83 1.65.14 1.89.93 2.49 2.13.59-.02.06-.13.74-.08.48.04.97.22 1.71-.5.59-.57 1.08-1.57 1.66-1.54l.34 2.58c.55-.13.38-.28 1.16-.4.4-.06.94-.07 1.36-.16 1.6-.35 1.29-3.78 3.59-5.16 1-.6 1.49-.19 2.62-.42 2.21-.45 2.18-1.31 3.19-1.27 1.85.08 1.77 1.78 2.6 1.81.88-.27.94-.8 1.44-1.32.7-.72 1.32-.33 2.08-.62-.02-.6-1.77-7.41-1.95-8.04-.81-2.93-1.02-3.92-2.24-6.55-.21-.45-.23-.59-.71-.55-.59.68-2.09.9-3.3.79-.63-.06-1.32-.11-1.9-.21-1.21-.22-1.25-.92-1.89-.25-.82.86-.77 1.23-1.22 2.57-.36 1.07-.79 2.13-1.12 3.2l-1.53 4.98c-.34.95-.15 1.22-.68 1.42-.23-.61.19-5.81-1.29-10.02-.41-1.16-.16-1-1.25-1.57-.65-.34-1.37-.61-2.34-.47-2.72.4.61 5.24 1.18 8.02.54 2.59.32 7.28-1.07 9.54-.28.45-1.03.98-1.49 1.33-.61.46-1.25.59-2.2.55-.01-.01.01-.03-.23-.06-.88-.14-.63-.18-1-.26-.78-.17-.81.24-1.43-.42-3.07-3.2-4.56-7.79-3.26-12.28.4-1.4.23-3.56-.13-4.93-.19-.75-1.31-1.05-1.31-2.37 0-.76.24-.65-.34-1.18-.4-.36-.64-.48-1.27-.59-1.5-.27-1.73-.03-2.92.49-.82.36-1.89.47-2.79.79-.94.34-.54.64-1.61 1.12l-1.95 1.61c-.91 1.08-.69 2.3-1.01 3.67-.39 1.66-.39 1.28.16 2.88.17.51.71 2.55.72 2.93z" style="fill:#199c96"/><path d="M135.39 25.73c.02-.02.06-.04.07-.05.47-.29.31-.1.44-.33.1-.19.09-.49.1-.76.03-.58.03-1.03.01-1.61.51.11.62.22.64.8.06 1.44-.61 1.59-.74 1.92-.09.21-.03.33-.12.54-.19.45.05.15-.29.27-.23-.33-.15-.32-.13-.76zm-2.04-.61c.33 1 1 .59-.13 3.3-.2.49-.37 1.21-.62 1.55-.52.71-1.74 1.53-2.24 1.99-.31.29-.72.7-1.02 1.04-1.25 1.44-2.05.52-2.4 1.85 2.1-.07 5.75.54 7.49.2.35-.5.14-1.4.42-1.84.14-1.01.48-2.54.55-3.5.09-1.17-.75.01.57-2.99 1.65-3.73.48-3.95-.09-6.03l-.58.27-.92-.38c.08 1.74-.21 1.73-.39 2.53.57.4.64-.09.41 1.39-.46.15-.86.12-1.06.6z" style="fill:#199d96"/><path d="M121.87 48.33c.11.18.04.09.2.29 3.3.29 3.8-2.93 4.66-5.23l.73-2.08c.11-.26.06-.13.13-.23.13-.95.66-1.31.8-2.16l-.24.4c-.81-.36-2.67-.52-3.24.31-.39.57-1.3 1.89-1.34 2.58-.08 1.3-.03.62-.65 1.38l-.84 1.12c-.41.6.21 1.24.04 3.52-.12.09-.05.05-.23.1z" style="fill:#eaab8e"/><path d="m112.86 27.53-.06.47c.25.29.5.44.75.71 1.09 1.15.3.6-.51.92v.8c.77-.04 1.32-.63 1.4-1.34-.32-.31-.44-.22-.64-.74-.52-1.33.16-1.99 1.64-1.54 1.12.34.76.07 1.61-.16.24 1.18-.09 1.61.06 2.52.25 1.6.03 1.65.24 2.6.15.72-.4 1.34-.6 2.06-.13.45-.02.64-.36 1.06-.26.33-.47.32-.7.71.15.44.22.13.27.65-.82.99-1.23.09-3.62.36.02.36.08.21.09.37-1.19-.43-1.06-1.2-.92-2.53.04-.43.07-1.15.16-1.55.11-.46.45-.71.64-1.1-.13-.31-.27-.31-.28-.65-.01-.23.1-.59.12-.87.09-1.25.26-1.28-.22-1.53-.69.18-.29 1.02-.69 1.75-.27.48-1.11 1.04-1.22 1.16-.28.29-.74 3.71-.29 4.16l3.17 1.72c.62.19 3.58.82 4.13.82-.47-1.66-1.1-1.27-.19-3.34.84-1.88 1.82-6.94.56-8.83-.32-.48-.01-1.19-.06-1.79-1.23-.16-.21.02-1.76 1.17-.4-.08-.34-.38-.91-.1-.48.23-1.63 1.69-1.79 2.07z" style="fill:#ed9243"/><path d="M138.33 39.3c-.12-.42.18-2.35.49-3.1.37-.89.98-1.6 1.16-2.54.19-1.04.25-2.15.51-3.17.36-1.47.39-1.74.5-3.35.41-.21.81-.69.97-1.12-1.01-.02-1.67-.35-2.32-.36-.18.33-.51 3.16-.61 3.8-.35 2.32-.97 4.7-1.87 6.79-.22.5-.4 1.03-.61 1.56-.28.7-.5.76-.65.99l-.09.37 2.54.13z" style="fill:#d26419"/><path d="m134 40.82 1.27 2.07c.9 1.15.5 2.42 1.33 4.2.56 1.2.64 2.12.82 3.6.39 3.25.69.68.79 3.66.44-.27.25-.34.51-.79.38-.66.99.15.45-2.72-.11-.58-.25-.47-.38-.94-.25-.92-.49-1.95-.9-2.79-.5-1.01-1-2.49-1.57-3.43-.38-.63-.73-.64-1.08-1.41-.28-.62-.4-1.06-.81-1.51-.32 0-.21-.02-.44.07z" style="fill:#4d9177"/><path d="M121.87 48.33c.18-.06.12-.01.23-.1.17-2.28-.45-2.92-.04-3.52l.84-1.12c.62-.76.57-.08.65-1.38.04-.7.96-2.02 1.34-2.58.57-.83 2.43-.67 3.24-.31l.24-.4c.07-.66.09-.7-.56-.78-.81-.1-2.9-.32-3.36.18l-3.13 6.62c-.24.6-.55 1.33-.5 2.05.04.66.57 1.26 1.03 1.35z" style="fill:#f3d0bd"/><path d="M115.83 14.86c-.27.67-.05 1.88-.05 2.74 0 .59.2.62.73.76.38.1.73.24 1.09.1.23-.62.29-1.94-.2-2.38l-1.57-1.22z" style="fill:#de8144"/><path d="M122.65 49.15c.32.16.19.06.29.28 2.05.68 3.48-.44 3.23-1.99-.48.06-.88 1.03-1.33 1.35-.83.58-1.46.14-1.61.12-.98-.13-.4-.15-.58.25z" style="fill:#9c262a"/><path d="M123.42 33.01c.49.32.59.69 1.41.49.72-.17.97-.2 1.13-.84-.14.03-1.27 1.2-2.08-.84l-.34-.01c-.09.08-.22.18-.31.25-.01.63.1.53.2.95z" style="fill:#e5a789"/></g></g></svg>