<svg xmlns="http://www.w3.org/2000/svg" xml:space="preserve" width="234.657" height="269.782" style="shape-rendering:geometricPrecision;text-rendering:geometricPrecision;image-rendering:optimizeQuality;fill-rule:evenodd;clip-rule:evenodd" viewBox="0 0 105 120.72"><defs><style>.str0{stroke:#373435;stroke-width:.34;stroke-miterlimit:22.9256}.fil5{fill:#037c46}.fil7{fill:#122afa}.fil6{fill:#550101}.fil9{fill:#bce2fc}.fil2{fill:#eeae14}.fil1{fill:#fbfbfb}</style></defs><g id="Camada_x0020_1"><g id="_2071394344624"><path d="M61 94.97h-6.22c-1.07.36-2.41.41-3.94 1-1.85.71-3.74 1.59-5.36 2.64-3.17 2.07-2.92.52-6.41.93-2.74.33-4.28 1.07-6.69.2-5.61 6.24-6.12 1.14-10.46 1.54-1.7.16-2.44-.73-2.97-1.75-4.06.44-5.05-1.26-4.86-5.17-3.08-.29-3.53-1.48-4.51 4.69-.35 2.2.1 3.45-1.21 4.97l-1.45-1.01c2.3-5.71-1.41-11.74 7.04-10.78-.25-2.04-1.96-2.07-4.11-2.24.12-1.14 1.18-5.39 1.89-5.91.56-.41 5.16-1.18 6.28-1.29l.41 1.78 1.62.03c-.07-2.68 1.52-4.24.89-6.31l-1.58-.17c-.72.78-.73 1.25-.91 2.38-1.88 0-2.6-.05-4.45.24-3.44.54-1.21-.37-3.51-.85-1.55 1.01-.1 1.47-2.47 2.27-1.14.39-2.17.75-3.16 1.26-1.04.53-2.19 1.99-.5 2.54.63.21 2.31-.74 3.46-.84-2.02 8.86-2.89 4.52-4.5 7.18.64 1.86.96.79 2.29 1.48-.17 1.8-.75 6.88.17 8.22-.49.51.34.07-.87.69l-1.03.09-.35-.6-.07-6.62c-.9-.99-2.58-1.87-2.05-4.02.48-1.94 2.2-1.36 3.23-2.78-.3-.84-.16-.44-.97-.9-2.78-1.57-3.42-4.61 1.5-6.76.68-.3 2.03-.68 2.5-1.07.7-.58.77-1.4 1.68-1.88 1.58-.84 2.94.76 5.78.41.54-2.92-2.23-1.78-2.83-4.36-.4-1.71.25-3.44 1.36-4.23l.89-2.03c-.2-.49-.41-.92-.58-1.56-.42-1.63.07-1.21-1-2.31-.54-.55-1.73-1.95-2.63-2.52-.24-.28-.53-.55-.88-.96-.62-.75-1.45-1.28-2.55-2.23.54-1.24.37-.36 1.1-1.25l-.19-.78c.55-.11.24-.03.7-.33l.57-.48c.08-.06.42-.23.64-.37 4.04-2.68-.04-1.8 6.96-4.26 3.11-1.1 2.26-.49 2.83-1.62l-.77-.61c-2 .63-3.72 2.01-5.13-.13-.13-2.07 1.12-3.35 2.17-4.15.95-.72 2.35-1.34 3.5-1.15l.03-.03c.86.27 2.55.75 2.94 1.29 1.34-1.24.82-.04 1.31-1.74.48-1.67 1.52-3.47 3.46-3.4 2.16.08 4.21 3.57 4.85 6.53.3.79.74 2.1.99 2.91.08.25.13.45.17.62l.96 1.96c.89 1.64 1.24 2.94 1.71 4.86 1.61.64 1.9.45 3.02 1.61 1.34 1.38.9 1.8 1.41 2.9-.05.37.02.77.22 1.09l-.03.02c.76 1.33 4.13 4.23 5.79 4.89 1.77.71 1.85-.07 4.21 1.08 1.27.62 3.11.42 4.23-.31.39-.81.01-3.28.77-5.16.88-2.15 1.84-2.6 2.6-4.13-3.71-.03-5.47.43-8.88 1.12-1.82.37-8.32-.36-6.05-2.64.22-.47.44-.78.69-1.01a4.68 4.68 0 0 1-.59-.38c-.27 0-.71-.1-1.4-.45-.49-.25-.97-.62-1.36-.82l-1.19.53c-1.31-.8-1.72-1.92-2.43-3.28-.7.58-.35.56-1.47.77l-.93-1.15c.12-.69.48-3.97.54-4.92-.11-.06-.24-.14-.35-.23-.31.06-.01.08-.38-.17.23-1.92 1.51-3.04 3.37-3.49-.14-.91-.45-1.44-.22-2.53 1.49.15 1.01.86 3.63.6l-.03-6.65c-4.37-2.09-3.49-3.05-4.87-4.66-.45-2.18-1.14-3.61.33-5.28h7.12l-.4-2.59c1.65-3.25 10.99-6.77 15.89-6.65l2.38.02c.82-.26.25-.03.77-.49l-5.81-.1c-2.95.71-4.73.96-7.46 2.13-1.27.54-2.14 1.01-3.26 1.79-2.19 1.52-2.09 1.95-3.26 2.17-2.13-3.16-5.33-7.45-8.2-9.18.84-1.99 5.06-5.66 7.29-6.48l6.31 11.5 5.1-1.68c-.39-4.13-2.92-8.92-3.7-13.19C58.06-.65 61.77-.36 68.9 3.36c-.18 1.2-1.42 3.57-1.94 4.96-.77 2.06-.98 3.74-1.62 5.84 3.51.51 5.76 1.99 6.67 4.8 1.9 1.43.66 8.51-.68 9.84-.24 1.68-.18.51.33.88 1.82-.96 2.07-2.7 3.39-3.19l-.39 2.73c2.09-.25 5.2-.96 5.29 1.57l-1.94.51c.01.02 3.35 3.42 2.34 5.6-.09.4.1 1.78-1.24 1.79-.07 1.6-.39 2.34-1.53 3.2l-1.06-.79c-.56 2.28-.7 2.39-2.49 3.24l-.83-.78c-.85 1.57-1.09.93-1.97 1.43-.36.21-.66.4-1.28.24-.55 2.32-1.31 5.02-1.09 7.61l1.63.32c.68.8.91.64 1.54 1.21l1.21 1.56c-.08.67-.33 4.73-.23 5.14.42 1.56 1.05 2.11 1.38 4.32.75 1.1.74 8.67.57 10.65-.21 2.31-.71 2.32.84 3.24l.58-.92c.41-.86.7-2.08 2.42-2.27 2.9-.31 2.81 1.67 4 2.23.3-.41-.55-.61.6-.21.56.19.6.55.69.67.93.3.88.62 2.06.8 1.73-2.2 2.03-3.14 5.32-2.07.16.46.66 1 1.18 1.48 3.25-.32 2.57.38 4.92 1.56 1.79.91 2.56 1.5 3.48 3.06 2.65 4.49-.63 7.66-1.62 9.28 1.05 1.03 2.71 1.55 2.59 3.82-.12 2.36-2.14 1.97-4.28 2.2-6.41.71-5.8 2.91-9.82.42-2.27 1.22-4.41 2.51-7.62.88-2.86-1.45-.87-.46-3.57-.59-1.64-.08-2.24-.85-2.83-1.82-1.89-.03-5.14-.49-6.6.47-1.22 1.6-.17 4.23-.68 6.1-.5 1.84-3.05 1.76-4.6.81-2.94-1.81-1.83-6.49-1.09-10.22z" style="fill:#000"/><path class="fil1" d="M68.46 34.63c.41-.37-.37-.35.61-.36 1.01-.01.83.28.97.36-.84.44-.87.31-1.58 0zm-.36-1.89 2.1.63c-.15.15-.17.43-1.01.28-1.22-.21-.83-.43-1.09-.91zm-12.86 6.24c.29-1.65 1.83-4.98 2.46-7.11.71-2.42 1.37-5.6 2.74-6.97 1.71-.81 4.62 2.43 4.64 4.9-1.82-2.19-3.57-7.46-5.83-.56-.99 3.02-2.37 7.82-4.01 9.73zm-12.58 4.15c.72.63.86 1.19 1.4 2.03.56.87 1.08 1.09 1.51 1.73-.77-2.13-3.99-6.88-3.04-11.91.47-2.5 1.6-1.44.39-3.7 1.79.74 2.35 2.76 3.22 4.68.7 1.55 2.18 3.88 2.54 5.19 1.34 1.15 1.28 2.3 3.61 2.61l-.37-3.38c.55 1.86.26 2.22 1.46 3.34 2.51.97 6.71-9.71 8.89-12.23.42.71.35.84.9 1.52 1.97 2.74 2.01 4.06 2.51 8 .4-.18 1.48-1.83 2.05-2.39 1.96-1.93 2.23-.53 1.05-2.19 2.16.31 3.91.92 3.44 3.38-.19.99-1.62 4.23-2.07 4.88.21.07.35.09.46.07.19-.11.44-.17.63-.19 1.42-.7 1.9-2.08 3.08-3.34l-.07 2.23c2.16-.13 1.28-3.47 2.22-4.94 1.16.88.57 1.59 1.28 2.8 1.6-2.35.36-4.05-.02-6.42.71.53 1.23 1.53 1.4 2.71.18-.02.36.02.5.14.04-.01.08-.02.13-.05.07-2.76.62-2.31-1.72-5.24l-1-1.38 1.93-.84c-1.24-1.37-3.75-.37-5 .09-.1-1.17.4-1.79.7-2.82-1.53 1.12-1.39 2.37-3.8 3.06-1.22.93-3.22.23-4.03-.67.12-.04.5-.06.51-.06.84-.31-.23.41.58-.33-.71-.63-1.68-1.89-2.36-2.6-1.1-1.16-1.56-1.13-2.41-2.59-2.5-.08-5.08-.16-7.48.18-1.87.27-4.78 1.16-6.12-.22-1.21.16-.63-.59-.84.66L50.21 26c-1.14 1.05-2.58 1.11-2.79 2.99l1.87-.93c-.28 1.52-.78 2.29-.37 3.62 1.3-.59 1.23-1.74 2.4-2.65-.35 1.5-1.24 3.5-2.98 3.52l.04-3.09c-1.81.47-1.41.07-1.67-.16-.53-.47.31-.32-.72-.58-.22 2.28 1.3 3.67 1.49 5.89-1.38-1.78-2.3-7-4.77-7.31-1.23 2.09-1.29 9.1-.88 12.05.18 1.3.88 2.77.85 3.79z"/><path class="fil2" d="m64.32 45.87-1.37.67c.19 1.78.84 2.64-.54 4.23-3.99 4.61-7.92-1.99-10.83 2.53 2.82.12 7.02-.89 9.19.53-3.86-.05-6.12-.12-9.99.49-4.15.65-4.65.86-7.6 2.49.93 1.96 1.88.93 3.71.36 4.97-1.56 11.66-.98 15.86-1.94 7.03-1.6 2.76-14 7.77-15.82-.71 2.55-1.78 1.17-2.63 8.28-1.38 11.46-7.36 7.97-18.13 9.39-.8.11-1.44.2-2.23.38-1.3.28-1.52.19-1.82 1.18 1.36.55 7.53-.93 9.71-1.16 2.62-.28 8.28-.29 10.02-1.59 3.45-2.56 2.18-6.32 4.6-12.82.52-1.4 1.59-3.02 1.27-4.46-3.26-1.41-5.01 2.52-5.9 4.84-.58 1.5-1.06 1.75-1.11 2.43z"/><path d="M48.35 68.37c.88.59 1.52 1.72 1.8 2.94-1.3-.54-1.71-1.33-1.8-2.94zm8.23 25.16h4.56l-.07 1.04 1.45-6.05c-1.85-.31-2.19-.82-3.24-1.59-3.49.84-2.22 1.49-4.17 2.66.75 1.55 1.61 1.32 1.45 3.95zm13.83-8.46c1.19-.47.34.17.92-.93-.81.24-.3-.25-.66.29-.04.06-.19.57-.25.64zm-32.39-3.12c.02.02.56.38.56.38l.91-1.84c2.13-2.89 5.53 1.02 5.6 1.06 1.64-.61 6.9-1.93 8.81-1.36 1.13.34 2.15 1.66 2.32 2.75.35 2.38-1.4 1.5.41 3.66l2.23-.89c.28-4.53 5.66-7 9.74-7.75 2.61-.48 3.29.13 5.4.15.14-1.98.32-3.78.29-5.91-.03-2.08-.34-4.4-.1-6.29-.8-1.07-.93-3.28-1.67-4.21-1.14 1.1-1.55 2.06-2.83 3.16-1.08.93-2.36 1.73-3.8 2.42-1.48.71-3.45 1.44-5.02.37-1.84-1.25-1.21-3.2-1.89-4.4-.83.68-1.58 1.77-2.06 2.74 1 .69 1.41.55 1.44 2.05.02.94-.27 1.84-.69 2.53-1.28 2.13-2.06 1.63-4.01.84-.42.32-2.64 2.89-2.91 3.42 2.19-.08 6.25-1.68 8.39-2.48 1.34-.5 2.82-1.05 4-1.63 1.11-.54 2.21-1.32 3.43-1.64-.45 2.09-8.93 4.94-11.56 5.71-12.1 3.57-13.71.93-14.36.99-1.98.91-2.91 3.27-2.63 6.19zm-2.86-8.71c2.35-.31 4.1-.77 6.12.69 2.48 1.8.35 2.25 5.6 1.77 3.65-.33 2.98-.38 4.49-2.84 1.24-2.02 2.36-2.12 2.49-4.4-1.7.28-2.14 1.41-3.94.11-2.65-1.91-1.13-.42-3.64-1.08-3.12-.82-4.96-3.68-6.22-4.45-.82 3.57-2.54 6.37-5.11 7.59l.21 2.61z" style="fill:#e10201"/><path d="m4.92 102.69 2.01.33c2.3-5.71-1.41-11.74 7.04-10.78-.25-2.04-1.96-2.07-4.11-2.24.12-1.14 1.18-5.39 1.89-5.91.56-.41 5.16-1.18 6.28-1.29l.41 1.78 1.62.03c-.07-2.68 1.52-4.24.89-6.31l-1.58-.17c-.72.78-.73 1.25-.91 2.38-1.88 0-2.6-.05-4.45.24-3.44.54-1.21-.37-3.51-.85-1.55 1.01-.1 1.47-2.47 2.27-1.14.39-2.17.75-3.16 1.26-1.04.53-2.19 1.99-.5 2.54.63.21 2.31-.74 3.46-.84-2.02 8.86-2.89 4.52-4.5 7.18.64 1.86.96.79 2.29 1.48-.17 1.8-.75 6.88.17 8.22-.49.51.34.07-.87.69zM93.9 89.21c.64-.23 1.02-1.28 1.49-1.93.83-1.15.73-1.37.02-2.35-1.28.09-1.45.51-1.9 1.67-.48 1.26-.58 1.81.39 2.6zm-5.01 6.95c.1 4.5 3.87.87 11.21.62-.46-2.43-2.55-2.06-5.08-1.9-3.02.19-3.71.35-6.13 1.28zm2.7-5.32c.04-2.4 2.17-6.35 3.49-7.4 1.34.23 2.09.88 2.88 1.51.08 2.99-3.34 5.75-6.37 5.89zm1.13-9.79c-.58.79-.15.58-.87 1.82-1.01 1.74-2.51 4.3-2.5 6.49.01 7.7 12.94 3.2 10.49-3.89-.78-2.27-4.7-4.71-7.12-4.42zm-5.4 1.15c-3.24-.22-3.73.59-5.22 2.74-1.22 1.76-2.04 3.46-2.68 5.94-2.4 9.28 5.53 8.99 7.14 6.81l.18-.47c.47-1.77-.06-1.47 1.12-2.75-2.12-1.2-1.31 3.48-5.18 2.81-3.04-3.17 1.75-10.6 3.5-12.33-.2 2.45-1.1 3.05.94 4.31.04-.06.08-.23.09-.19 1.09-3.88.99-3.31 2.71-6.99 1.98-4.25-1.19-4.17-2.58.1zm-20.41.97c2.3-.51 5.56-2.05 7.65-.03-.5 2.16-5.3 6.26-7.19 7.3.14-1.4.67-2.48.95-3.92.47-2.45-.13-2.33-1.41-3.35zm-1.24.83c-.51 4.27-2.83 9.79-3.43 15.69-.26 2.61-.18 4 2.5 4.19.04-2.5.04-4.86.75-7.14 2.01-1.32 7.13-1.07 9.78-.76.84 1.32.08 1.68 2.38 1.63-.21-5.26 1.28-8.23 1.22-9.77-.08-1.85-2.2-2.15-2.69.92-.29 1.81-.42 3.49-.61 5.35-2.55-.63-3.08-.85-6.2-.99.88-1.21 4.41-2.99 6.18-5.87 3.58-5.85-4.51-10.95-13.09-4.49-.56.42-1.11.88-1.4 1.57-.35.84-.18 1.75.72 1.97 1.74.44.53-1.25 3.89-2.3zm12.24.08c.57.29.8.49 1.72.45-.16-2.8 1.52-4.18.8-6.21l-1.59-.28c-1.09 1.58-1.33 4.32-.93 6.05zm-52.62 6.68c.5-.28 1.05-1.45 1.47-2.03.83-1.13.74-1.53-.29-2.25-1.51.44-2.45 2.85-1.18 4.27zM18.2 97.6c-.39-5.77 2.9-13.05-.71-10.81-1.08.68-1.59 8.31-1.46 9.39.18 1.47.61 1.49 2.16 1.41zm14.95-1.15c.07 2.86 2.8 1.51 5.18 1.2 3.12-.42 4 .68 6.28-.8 3.34-2.16 6.28-2.94 10.06-4.24-.91-2.34-3.28-1.16-5.15-.64-1.86.52-3.71 1.02-5.26 1.88-3.83 2.13-1.15 2.11-4.79 1.71-2.08-.23-5.06-.25-6.33.9zm10.6-11.53c1.3 2.89 2.56.86 5.08.66l-6.13 4.94c-.52 1.06.29 1.95 1.44 1.8.34-.04 4.34-2.15 5.01-2.47 1.45-.69 4.24-1.58 5.39-2.27-.27-2.81-4.47-.29-6.58.05.62-.91 3.52-2.77 4.53-3.31l1.86-.88-.55-1.27c-2.62-.69-9.08.74-10.05 2.75zm-6.33 7.78c-.52-.43-.75-.76-.89-1.87-.34-2.75.69-5.95-.02-7.98l-1.83-.35c-1.91 3.26-1.55 13.29 3.78 12.04 3.66-.86 5.16-10.69 4.21-12.78l-1.39-.28c-1.58 2.52-1.34 9.96-3.86 11.21zm-11.87-9.05c3.74-1.79 8.58 3.09 1.07 9.69-6.43 5.66-3.77-8.4-1.07-9.69zm-3.03 12.36c-2.82.04-2.62 1.93-1.39 3.37 1.01-.1 1.43-.44 2.08-.77 1.2.7 2.6 2.26 4.72 2.07 1.82-.17 3.62-2.04 2.08-3.53-1.72.2-.1 1.44-2.31 1.34-1.01-.05-1.94-.76-2.34-1.43 1.51-1.12 2.93-1.46 4.43-2.89 4.77-4.56 4.61-12.38-3.67-12.71.47-1.14.65-.6.33-1.53-3.08-1.39-4.77 3.78-5.55 6.25-1.24 3.91-1.28 7.29 1.62 9.84z" style="fill:#32cb32"/><path class="fil5" d="m14.69 55.23-1.65.89c-.64.23-1.07.39-1.73.62-1.15.4-2.69.7-3.36 1.51 1.86 1.9 3 2.31 5.35 4.94.44.49 1.33 1.61 1.66 1.88 1.63 1.35 8.49-1.79 9.88-2.73L21.8 56.2c-3.81-.84-2.05-1.27-4.87-.35-1.64.53-3.38 1.21-5 1.54 0 1.82-.05 1.09-.58 2.37l1.04 1.5c-.62-.32-1.33-.88-1.49-1.6l.06-2.44 8.43-2.81c.72-.01.03.29 1.07.79.7.34.58.15 1.49.24l3.56 6.31c-.17-1.06-3.57-7.31-4.22-8.12l-6.57 1.58z"/><path class="fil1" d="m28.54 45.93-.15.83c.71 1.21-.09 2.42-.09 4.14 2.14.17 3.72.47 4.46 2.13-1.74-.58-2.72-1.73-5.26-1.07-1.61.42-3.2 1.88-3.41 3.38 1.4 3.21 3.78.6 7 .45-.51.75.1.26-.92.88-.4.24-.73.29-1.08.42.49.71-.19.19.93.31 2.23-1.63 2.85 1.62 3 3.19 5.1-4.04-.68-7.78-.92-12.95l-2.1-4.7c-.96-2-1.33-3-4.19-2.7-1.14 1.25-3.06 5.31-1.5 7.49.08.04.2 0 .24.1.13.27 1.85.68 3.06-1.4.82-1.4.75-2.55 1.23-3.73.47.99.07 2.32-.3 3.24z"/><path class="fil6" d="m68.27 56.2.92.1c.06.01.15.02.21.03l.62.19c-2.36 2.26-6.87 4.42-10.78 4.28.64-.99.96-1.03.45-2.27-1.63.4-5.02 4.69-4.31 7.52 1.15-.42 1.39-1.07 2.06-1.92.52-.66.56-.55 1.05-1.31.64-.98.4-.91 1.11-1.24.32 1.15-.53 10.22 9.06 2.81 1.28-.99 3.5-2.99 3.71-5.2.27-2.78-1.22-5.26-3.6-5.28l-.49 2.3z"/><path class="fil7" d="m41.46 4.2 6.31 11.5 5.1-1.68c-.39-4.13-2.92-8.92-3.7-13.19-2.77.79-5.89 1.64-7.71 3.37z"/><path d="M50.43 114.94s-1.72.1.52-2.48c.1 3.07-.03 2.1-.52 2.48zm7.69 4.03c1.57-.73 1.23-8.89 3.26-10.09.89-.52 2.81-.41 3.55-.92-2.8-1.41-9.11 1.16-9.1 3.48 1.37.13 1.6-.82 3.18-1.41-.28 2.21-2.17 6.98-.88 8.94zM9.69 105.91c-1.32.16-1.35.58-1.82 1.83-1.04 2.84-1.66 8.11 1.75 6.21 1.7-.95 4.22-6.41 4.48-9.22-.81.21-.55-.56-1.54 2.05-.81 2.12-2.3 5.22-4.27 6.35.09-3 1.36-5.13 1.4-7.22zm81.13 1.49c.04-.55.14-1.3-.17-1.78-1.27 1.07-1.05 4.22-1.11 6.36-.07-.05-.15-.13-.19-.18l-.8-1.17c-.7-1.52-.84-3.13-2.04-3.71-.99 1.19-.74 3.81-.61 5.49.16 2.15.23 4.25 1.5 4.7l-.21-6.43c1.28 1.56 1.11 3.87 3.38 3.69l.26-6.97zm-26.69 6.42c.18-1.43 1.16-3.2 2.38-3.85-.14 1.12-.53 1.69-.11 2.74 1.06-.18.24.61 1.04-.76.33-.56 1-2.6-.11-3.44-2.06-1.58-4.75 3.95-3.83 5.92.48 1.04.15-.39.52.94-.74.62-2.56 2.47-1.68 3.48.76.44 2.03-.56 3.07-.95.93-.35 3.11-.7 3.28-.76-.57-1.91-3.09-.38-4.68-.05.75-.93 2.53-1.71 2.66-3.2-1.17-.74-1.35-.24-2.54-.07zm36.02-6.14c.53-1.59 1.22-2.9 2.92-3.06.24.3.21.2.41.63l.27 2.12c-.05.84-.26 1.95-.46 2.64-.37 1.25-1.09 3.38-2.28 3.86-1.08-2.2.33-4.16.34-5.9-.55-.36-1.1-.26-1.19-.3zm4.53 1.77c1.88-7.41-5.21-7.35-6.11-.84-.34 2.45.63.83.97 3.49.71 5.53 4.32.56 5.14-2.66zM3.04 106.2c2.45-2.35 5.14-2.1 2.88 1.93-.84 1.49-3.31 4.43-5.07 4.5.13-2.41 1.73-3.59 2.77-4.95.17-.63-.29-.59-.58-1.47zm-2.82 6.73c3.46 1.68 9.45-5.59 6.9-8.37-2.04-2.23-4.63.49-5.78 1.65-1.53 1.55-.74 1.67-.8 3.21-.05 1.28-.94 1.46-.32 3.52zm24.77 3.69c-.39-1.06.19-2.72.84-3.67 1.05-1.54 1.73-1.54.66-2.35l-.55-.26c.97-.91 1.64-2.28 3.73-2 1.08 2.95-2.94 7.81-4.69 8.28zm5.75-5.39c.81-2.69-1.17-4.97-3.87-3.45-1.04.58-1.55 1.25-2.22 2.23-1.07 1.58-.91 1.27-.65 3.09.18 1.28-.68 2.91.11 3.74 1.73 1.8 5.58-2.15 6.62-5.61zm53.1 2.11c-.96-1.08-.09-1.39.41-2.84.43 3.24.06 2.57-.41 2.84zm2.47 5.68c-.55-2.06-.8-4.33-.86-6.6-.05-2.14.65-4.7-.09-6.49-1.34.1-1.12.22-2.24 3.41-.46 1.3-.77 2.95-1.27 4.05-1.39.78-2.43.59-2.85 2.39 1.45-.1 1.29-.39 2.52-.79l.22 2.1c2.06-.52-.17.55 1.39-2.75l1.4.02c.22 1.94-.16 4.15 1.78 4.66zM19.66 112c1.34-.92 1.64-2.84 2.85-3.68-.44 3.78-2.79 7.48-2.26 8.56 1.04-.27.23.44 1.02-.78.73-1.12 3.14-7.18 2.23-9.58-2.06.08-2.61 2.93-4.12 3.84-.25-.98-.23-2.68-1.21-3.36-1.07.25-1.12.52-1.46 1.88-.44 1.74-1.03 7.26 1.49 7.66-1.07-1.67-.89-4.91-.3-7.08.88 1.04.29 1.37 1.75 2.53zm73.98 2.77c-.28-2.25-.12-6.25.42-8.38 5.93-1.26.89 7.63-.42 8.38zm-1.48-5.9c-.5 4.09.85 6.18.4 6.88l-.26.31s.43.49 1.49.15c.46-.15.66-.4 1.02-.81 7.96-8.99-.84-13.1-3.91-7.71l1.26 1.18zm-58.04 3.49c.35-2.06.8-1.35.27-3.46.54-.48 2.48-.19 3.2.26-.3 1.24-2.24 2.62-3.46 3.2zM32.31 118c.01-.01.2-.92.21-.98.22-1.11.07-.77.59-1.77.99-.11 1.84-.13 2.84-.06.17.01 1.24.11 1.29.11.73-.04.36.06.77-.23-1.01-1.55-1.62-.63-2.92-1.45 1.69-1.21 3.8-1.87 3.14-5.03-1.05-1.01-2.07-1.43-4.04-.91-.99.26-2.64.84-2.88 1.85l.06.66c1.02.13.45-.29 1.95-.77-.41 2.93-3.29 7.75-1.53 9.25.7-.35.19.11.52-.67zm45.7-3.73c.38-2.44.59-5.93 1.93-6.64.58-.31 1.06-.36 1.61-.49 1.55-.37.84.22 1.4-.7-3.7-1.14-7.09 1.71-8.84 3.66.06-1.14.48-1.86-.01-2.63-1.48 1.21-1.26 4.64-1.65 6.86-.08-.62-.74-2.02-1.07-3.01-1.02-3.06-.54-2.54-1.77-2.82-.43 1.86-1.51 9.06.49 10.16l.22-6.22c1.38 1.56.75 3.89 3.27 3.79.4-5.83-.12-4.84.7-5.33l3.12-1.81c-.21 2.54-.87 4.3-.83 7.21.02 1.3-.11 1.29.78 1.77l.67-3.78zm-35.93-4.38v-.2l.06-.34c1.03-.49 1.69-.37 2.82-.02.27 1.49-1.94 2.86-3.18 3.41.22-1.84.37-.33.3-2.84zm10.08 10.82c-1.28-3.57 1.23-10.97.34-13.01-1.26.1-1.14.55-1.76 1.78-3.04 6.06-1.04 4.88-4.75 6.06l-.35-.33c-1.08-.93-1.4-.76-3.03-.91.48-.92 5.3-3.16 2.77-5.71-1.64-1.66-7.12-.29-6.46 2.28.89-.19.89-.56 1.97-1.03-.27 1.95-3.45 8.13-1.12 9.42.05-.06.09-.16.11-.21l.26-.68c.03-.11.12-.82.15-1 .1-.61.27-1.17.41-1.61 1.05-.17 3.59-.58 4.41.15l.58 1.07 2.1-.65c-.09.87-.43 1.48.18 2.26 1.74-.79-.33-2.75 2.78-2.68.06 3.28-.4 4.74 1.39 4.82z" style="fill:#050505"/><path class="fil9" d="M61.48 45.84c1.13.25 1.29.18 2.33-.41 1.36-1.08 1.32-4.23 1.1-6.37-.27-2.67-1-4.27-1.89-6.13l-1.07-.05c-4.97 8.36-1.71 3.79-1.83 12.1l1.36.85z"/><path class="fil6" d="M35.74 67.25c-.9-.3-.71-.32-1.49-.69.43.5.41.27-.02.69-.59.58-.51-.02-.48-.08.43.58.73.63.96 1.28.54 1.55-.06.4.04 1.53 1.86-.16 3.55-4.05 3.95-5.67.74-3-.04-5.9-2.47-6.83-.63.73-.83 1.41-1.45 2.29-.5.71-1.5 1.51-1.69 2.2-.41 1.55 2.05 3.46 2.65 5.27zM30.77 79.83c.55 1.86.61.71 1.41 1.99 1.58-.53.08-.04 1.03-.49.44-.21.44-.3.98-.39.96-.84 1.72-.19 3.04-.32 1.21-5.22 2.53-4.26 3.52-5.76-1.62-1.49-4.76-1.42-6.43-.13-2.44 1.9-2.62 4.11-3.55 5.1z"/><path class="fil9" d="M47.87 46.37c-.17-1.34-.83-2.42-.8-4.04.36-3.39.56-2.14-.86-4.96-.61-1.21-1.21-3.35-2.3-4.11-2.48 2.11.04 10.97 2.66 13.4l1.29-.28z"/><path d="M47.12 49.14c1.7.26 1.96 1.82 1.81 2.62-.2 1.09-.43.78-.69 1.01.1-1.65-.12-2.79-1.12-3.62zm4.84-1.07c-.82-.18-1.35-.69-2.42-.97-5.26.02-5.78 4.64-3.29 5.92 1.36.7 3.81.21 4.89-.51 1.68-1.13 1.48-2.58.81-4.43z" style="fill:#e4ebf3"/><path d="M14.83 68.69c.32.46-.14.33 1.04.73.23-.3-.05-.39 1.38-.68 6.53-1.32 3.42-.9 9.21-2.72l-.16-3.16c-3.66.58-6.52 3.43-11.67 3.31.44 2.31.97 1.51.2 2.53z" style="fill:#90e87c"/><path d="M61.27 46.08c-.63.01-.19.16-.79-.12-3.27-.19-2.2-.05-4.26.96 1.8-.35 3.75-1.86 5.26.16-2.64-.56-4.98-.25-6.34 2.03.12 2.64 2.65 3.27 5.2 2.19 1.78-.75 3.15-2.69 1.58-4.52l-.16-.16c-.05-.05-.12-.12-.16-.17l-.33-.37z" style="fill:#eaf5f9"/><path d="M49.72 22.49c.94-.96 11.15-7.51 16-6.88 1.67.22 3.46.89 4.55 2.14.46.52.25.27.4.63.55-.3.74.3.19-.88-.05-.11-.73-.76-.74-.77-7.81-7.04-19.49 6.91-27.67 7.45-1.69.11-4.53-.73-5.83.1.92.43 5.78.69 7.16.46 2.39-.4 4.02-1.68 5.95-2.26z" style="fill:#1a27af"/><path class="fil1" d="M20.14 48.57c.1-1.86.93-2.23 1.24-3.56-.49-.44-.58-.74-1.32-1.04-2.97-.57-5.83 1.88-5.48 4.85 3.01.4 3.19-1.1 5.14-1.88l-.32 1.28.74.34z"/><path class="fil2" d="M52.01 48.04c1.5 1.06.09 1.73 1.97 1.92.89-.95.22-1.59 1.18-2.9.65-.88 1.98-1.23 2.22-2-2.73-1.39-5.5-1.19-6.68 1.41l1.21 1.41c.02-.04.07.1.1.16z"/><path class="fil7" d="m48.6 17.48 1.23 3.21c1.46-.42 2.89-1.43 4.14-2.32.06-1.09-.15-1.78-.58-2.64-1.74.03-3.63.76-4.78 1.75z"/><path d="M55.24 38.98c1.64-1.92 3.02-6.71 4.01-9.73 2.26-6.9 4.01-1.63 5.83.56-.03-2.47-2.93-5.71-4.64-4.9-1.37 1.36-2.03 4.54-2.74 6.97-.62 2.13-2.17 5.46-2.46 7.11z" style="fill:#1b1b1b"/><path d="m42.36 19.86.75 1.12c1.65-3.25 10.99-6.77 15.89-6.65l2.38.02c.82-.26.25-.03.77-.49l-5.81-.1c-2.95.71-4.73.96-7.46 2.13-1.27.54-2.14 1.01-3.26 1.79-2.19 1.52-2.09 1.95-3.26 2.17z" style="fill:#1a2394"/><path d="m60.44 58.29-.07 1.82c1.89-.29 3.52-.96 5.01-1.62 1.88-.83 2.36-1.51 2.36-3.92-.65.77-1.83 2.05-2.88 2.48-1.76.73-3.31.48-4.42 1.24z" style="fill:#f9f9f9"/><path class="fil5" d="M17.66 71.6c2.13-.58 3.12-.2 5.34-1.43 2.29-1.27 3.37-1.38 3.8-3.1-1.48.44-2.55 1.34-4.13 1.88-3.98 1.38-4.14-.37-4.46 1.62l-.55 1.02z"/><path d="M55.48 70.99c.53-.65 1.14-.97 1.56-1.98 1.04-2.55-1.17-2.74-2.38-.26-.44.9-.35 1.83-.14 2.61 1.38.29 1.66.04 2.31-.84l-1.35.47z" style="fill:#f7d51a"/><path d="M21.21 53.2c.12-.05.91-.25 1.12-.32.89.94.39.86 1.62 1.38l.34-1.26c-.35-1.08-.86-1.97-1.83-2.26-1.73-.05-2.31 1.12-1.24 2.46z" style="fill:#137448"/><path d="M22.45 50.75c.97.28 1.48 1.18 1.83 2.26.29-.39.56-.73 1-1.26l.68-.56c0-.03-.1-.7-.13-.84l-.49-1.09c-.63-.05-.17-.08-.73.09-.68.22-.31.08-.82.36a5.3 5.3 0 0 0-1.33 1.04z" style="fill:#124c2d"/><path d="m27.41 48.1-.13 2.51 1.01.3c0-1.72.8-2.93.09-4.14l.15-.83c-.57.55-.18-.76-.58.83.36.87.44.57.29 1.52.72-1.18-.25-.66-.3-.71l-.54.52z" style="fill:#166944"/><path d="M44.41 49.02c.1-1.36.24-.42-.73-1.37.57-.18.4-.01.67-.05.91-.11.32.06.76-.25l-1.42-1.49c-1.56 1.35-.79 2.31.72 3.16z" style="fill:#eaac1a"/><path d="M25.9 58.61c-.12 2.1.87 1.83.87 1.83.81-1.64.76-.78.86-2.17-.85-.01-1.13-.07-1.73.35z" style="fill:#136736"/><path style="fill:#eee" d="m47.55 42.16 1.11-.05.01-.95-1.19-.07z"/><path d="M58.41 40.98c.68-.32 1.29-.13.3-1.24-.44.19-.31-.33-.5.35-.41 1.46-.03.53.21.89z" style="fill:#e5e8ea"/><path d="M68.1 32.74c.26.48-.12.7 1.09.91.84.15.85-.13 1.01-.28l-2.1-.63z" style="fill:#3a3a3b"/><path d="M68.46 34.63c.71.31.74.44 1.58 0-.14-.08.04-.37-.97-.36-.98.01-.2-.01-.61.36z" style="fill:#6f706f"/><path d="M53.12 50.9c.03.02-.07.38.73.22.84-.17.41-.17.73-.52-.71-.22-1.09-.26-1.45.3z" style="fill:#d1af2e"/><path class="fil1 str0" d="M22.46 45.28c-.93 1.33-1.7 2.27-2.02 4.31l3.16-.76c-.38-2.02-.67-2.75-.45-4.2-.25.23-.49.45-.7.64l.01.01zM36.27 44.61c-.48 1.58-1.38 2.55-1.17 5.1.03.32.08.67.19.97.14.4.25.39.47.58l.77-1.75c1.06 1.25.94 2.68 2.37 4.05.51-.55.1.04.39-.88.02-.07.04-.19.05-.25l.15-.46c1.61 1.27 1.95 1.85 4.12 3 0 0 0 .02-.01.05.18.03.37.09.54.16l.21.09c.53-.25 1.16-.41 1.97-.87l.38-.27c-1.36-.64-1.89-.66-2.32-2.23-.77-2.81.2-1.08-1.57-2.88-1.24-1.25-.67-1.96.02-3.15.99-1.7-.41-.87-1.62-.79l1.45-1.99-.22.21-2.14.57c.58-.69.52-.57 1.72-.94l-.64-2.16-3.39-.02c.53.85.46.4.87 1.23-1.52 1.36-3.08 1.26-3.9 3.06.02.05.04.11.06.15.05.11.11.19.16.27.49-.51.1-.43 1.1-.91zM31.93 65.51c-.84-4.42 2.44-6.36-2.03-7.55-.3.34-.13.14-.55.51-4.58 4.03.1 7.19-2.63 10.13-.91.98-7.63 5.37-9.82 3.48-.24-.17.3-1.72-.35-2.38-.2.04-.32.05-.73.12-.41.07-1.21.27-1.64.36-.76 1.13-1.76 2.61-.98 4.33.51 1.12 1.19 1.23 1.79 1.79 1.24 1.16.09 1.12 1.14 2.12 2.28-.32.86-2.16.94-3.9.42.93.2 1.01.83 1.91 3.19-.67 3.64 0 5.32 1.75 4.29-1.96 3.92.89 6.8 2.07l.56-.81c.56-3 2.25-4.09 3.82-5.78.22-3.3-1.86-4.97-2.46-8.16z"/></g></g></svg>