<svg xmlns="http://www.w3.org/2000/svg" xml:space="preserve" width="243.156" height="182.345" style="shape-rendering:geometricPrecision;text-rendering:geometricPrecision;image-rendering:optimizeQuality;fill-rule:evenodd;clip-rule:evenodd" viewBox="0 0 156.28 117.2"><defs><style>.fil7{fill:#932188}.fil5{fill:#b81f93}.fil3{fill:#c2b82f}.fil6{fill:#c3b92e}.fil2{fill:#dd1c9c}</style></defs><g id="Camada_x0020_1"><g id="_2076161279728"><path d="m108.91 16.03-.49.71-.37-.72c-1.24-8.25-14.68-9.67-22.23-6.52-1.73.72-5.31 3.25-5.73 4.56l-.86.55.39-1.24.93-4.96c-4.63.01-30.11.48-33.26.87-1.85-3.99-2.47-5.81-6.27-7.72C37.75-.08 33.21-.29 29.13.25 20.36 1.39 16.39 5.69 13.4 12.39c-2.68 6.03-5.06 14.47-6.13 21.69-.57 3.87-1.8 8.55.04 11.94 1.7 3.13 4.3 4.38 8.06 5.71.87 3.91 1.44 5.33 5.83 5.8 3.75.4 7.88-.25 11.45.11.17 1.8-3.31 13.33-4.04 15.98-.53 1.92-.98 1.82-2.63 2.64-1.77.88-4.98 2.26-6.06 3.84-.84 1.23-.73 1.81-1.02 2.84-.86 3.11-8.18.05-10.2 1.63-.65.51-1.14 3.21-1.43 4.4l-3.42 13.67c-.82 3.3-1.3 5.87-2.89 8.41-2.21 3.53-.48 5.98 3.61 6.12 6.42.21 15.04-.61 21.55-.93 7.4-.36 14.63-.51 22.03-.78 14.54-.53 29.49-.87 44.1-.99 3.76-.03 31 .03 33.42-.54 3.82-.9 3.43-4.13.97-6.98.43-1.56 1.53-2.47 1.93-4.5.48-2.41-.63-3.6-.16-5.38 1.68-6.39-1.59-6.73-1.28-10.08 4.06-.48 12.79.53 15.74-.26 1.23-2.54 7.02-27.3 7.44-29.79.55-3.23 1.12-5.5-1.02-7.59-1.15-1.12-.76-1.64-.31-3.37l4.7-18.19c1-3.88 3.62-11.6 2.11-15.55-1.67-4.37-7.44-6.02-12.89-4.06-5.62 2.02-1.51 1.89-6.55.05-2.93-1.07-4.85-.86-8.02-.51-5.69.63-11.91.02-17.63.84l-1.83 7.48z" style="fill:#0e0e0d"/><path d="M125.12 12.54c-.12-.51-.31-1.2-.35-1.76h-6c-2.17 0-3.67.18-5.82.18l-3 11.45c-1.32 5.38-3.22 11.56-4.59 17.08-.2.81-2.12 8.21-1.83 8.75.29.53 6.1.25 6.6.24.86-.03.82-.16 1.59-.19 1.76-.08-.1.36 2.99.36.71 0 1.17-2.75 1.45-3.84.32-1.3.69-2.76 1.1-4.19 1.55-5.45 2.96-11.85 4.49-17 .57-1.91.87-4.2 2.03-5.9.52-.76.87-.77 2.05-.77.24.89 1 1.16.42 3.77-.68 3.12-2.18 8.15-3.03 11.59-.91 3.67-2.14 7.92-2.87 11.57l-.64 3.06c-.33.83-.4-.03-.4 1.36l3.1.25c.95.14 2.19.19 3.22.08 3.98-.45 5.02.53 5.44-1.27.85-3.64 1.77-7.22 2.67-10.72l4.09-15.99c.23-.87.52-1.73.88-2.47.5-1.03.6-1.23 2.12-1.23 1.33 1.71.54 3.91-.07 6.09-1.7 6-2.96 12.27-4.59 17.97-.49 1.73-1.65 5.72-1.69 7.3h5.47c2.17 0 3.67-.18 5.82-.18.44-1.87 1.58-5.06 2.29-7.93l4.09-16.35c.32-1.3.66-2.73 1.05-4.06.32-1.14.6-2.31.68-3.45v-1.32c-.11-1.3-.57-2.51-1.63-3.49-2.79-2.59-8.42-1.47-11.55.89-.55.41-1.15 1.01-1.81 1.18-.47-.34-1.61-1.91-2.21-2.37-2.19-1.68-5.97-1.31-8.3-.37-1.08.43-2.39 1.46-3.25 1.69zM95.13 52.7c-.78.02-1.25.18-2.29.18l-1.69 5.35c-.53 1.24-.78.37-.78 2.4 1.91 0 1.26.08 2.47.18-.07 3.09-4.76 17.44-4.76 20.61 0 1.02.24 1.69.75 2.25 2.26 2.47 5.54-.58 6.43-1.24 1.9-1.42 2.4-2.06 4.46-2.06.89 0 1.82 2.28 2.23 3.05 1.16 2.16 3.09.8 6.58.82 1.07.01 1.76-.03 2.48-.34 1.33-.58 1.73-1.77 2.22-3.24.7-2.13 4.65-14.98 4.65-17.2-1.84-.43-4.56-.18-6.71-.17-1.25.01-1.92-.33-3.08-.09-1.35.28-1.23.71-1.58 1.95-.86 3.07-1.95 8.66-3.1 10.82-1.11 0-1.59.18-2.47.18.16-1.95 1.1-5.98 1.65-7.86l1.39-5.65c.04-.22.14-.69.26-.97.25-.57.23-.21.4-.83l12.53.01c2.02-.04 1.7-.46 2.22-2.01.37-1.11.66-2.23.91-3.32.31-1.36.26-2.32-1.14-2.65-1.12-.27-6.17.05-8.17.05-5.35 0-4.45.31-4.41-1.59-2.08-.05-3.88-.51-6.88-.35-.81.04-.96.18-1.94.18-1.93-.01-2.27-.03-2.65 1.58zm-21.7 23.25c-1.3.11-1.06.37-2.65 0 0-3.28 2.65-10.55 3.42-14.55.59-3.04.78-2.72 3.45-2.72-.17 2.01-1.4 6.83-1.9 8.84l-2.33 8.42zm-7.58 8.45 6 .18c1.01.05 1.76-.19 2.99-.18 1.78.01 4.67-.01 5.83-.52 1.46-.64 2.11-2.06 2.54-3.81.98-4 3.01-10.44 4.2-14.65 1.24-4.41 2.43-7.5 2.43-12.02 0-2.96-5.27-2.29-7.23-2.29-3.31 0-6.22-.17-9.35-.18-2.83-.01-5.65.03-7.45 2.07-.77.87-.99 2.23-1.34 3.41l-5.21 18.75c-.45 1.6-1.9 6.11-1.27 7.75.84 2.19 5.27 1.48 7.87 1.48zm65.97-9.16h-3l1.75-4.94c.3-.45 1.08-.16 2.66-.16-.41 1.76-.66 3.69-1.41 5.11zm-10.58-15.15c.9 0 1.49.18 2.64.18l8.64.18c.48-.9 1.03-2.99 3.35-1.76 0 1.05-.03 1.37-.22 2.25-.47 2.18.52 2-5.78 1.97l-4.77.35c-.73.13-1.39.37-1.96.68-1.22.67-1.82 1.43-2.58 2.53-1.21 1.75-2.7 7.37-3.4 9.63-.62 2-2.27 6.08.34 7.46 2.4 1.27 13.27.49 16.62.49h7.06l5.86-22.68c.39-1.64 1.55-6.43 1.55-7.96 0-3.02-3.48-2.82-5.47-2.82-4.52 0-15.32-1.13-18.83 1.81-1.72 1.44-1.98 3.7-2.5 5.43-.19.64-.49 1.58-.55 2.27zm-76.2 15.5c-1.07 0-1.41.18-2.29.18.06-.68.38-1.74.59-2.4.29-.88.62-1.52.82-2.35 1-.02 2.29-.6 2.29.35 0 .97-1.04 3.52-1.41 4.23zm.13 9.51H33.22c-1.6 0-2.48-.18-4.06-.18 1.24-1.85 4.94-1.83 4.94-4.23 0-2.05-.77-5.04-3-5.64.02-.86 6.07-22.02 6.53-23.95 2.17 0 3.82-.18 5.82-.18 2.05 0 3.64.18 5.82.18 2.81 0 5-.17 7.76-.18 2.13-.01 1.76-.06 3.28.6.93.4.56-.05 1.05.89 1.05 1.99.65 2.05-.17 5.31-.74 2.93-1.3 6.23-2.89 8.57-.53.78-.68.57-1.1 1.19.23.85.88 1.01.88 1.94 0 1.39-2.78 9.95-3.35 11.1-.84 1.69-1.58 3.09-3.35 3.88-.93.41-3.38.61-6.22.7zm2.16-20.78c-2.22 0-1.93-.1-1.17-2.4.31-.93.81-1.91.99-2.71.6.34 1.59.18 2.29.18 0 1.07-1.06 4.93-2.12 4.93zm45.33-39.63h-2.82c0-1.27.73-4.14 1.21-5.31.19-.47.24-.45.49-.92 1.46-2.76 4.28-.64 2.51 4.09-.19.5-.78 2.14-1.39 2.14zM74.67 40.37c0 2.84.31 5.07 2.97 6.9 4.82 3.31 13.1 1.96 17.84-.92 1.05-.64 3.53-3.03 4.24-4.04 1.33-1.88 3.35-6.9 3.35-9.34H92.49c-.67 0-.73 1.12-1.1 2.43l-1.62 5.43c-.97 2.46-4.16 2.39-4.16.6 0-2.14.79-4.37 1.31-6.45.24-.95.44-1.9.76-2.76l1.17-1.48c.72-.18 6.11.1 8.05-.06l6.89-.34c1.31-5.63 5.73-16.85-4.23-19.2-4.95-1.17-13.38-.37-16.16 3.25-1.62 2.11-2.06 1.75-3.65 5.86-1.8 4.64-5.06 14.92-5.06 20.13zm-19.05 2.64h-1.06c-.02-.8-.18-.7-.18-1.59 0-2.67.73-5.57 1.3-7.86 1.26-5 2.73-9.63 3.92-14.41.57-2.3 1.48-5.03 1.48-7.68-.89.07-1.48.18-2.65.18l-8.64.18-4.2 15.71c-.68 2.74-1.33 5.3-2.01 8.03-.98 3.93-3.31 9.52-.1 12.68 3.53 3.48 9.23.61 12.31-1.02 0 .98-.12 1.22-.18 1.94 2.01 0 5.52.2 7.33-.07 3.51-.53 4.4 1.06 5.29-2.11l3.04-11.94c.69-2.75 5.85-21.75 6.03-23.92l-9.88.18c-2.18.12-2.56.46-3.1 3.6-.2 1.16-.37 1.66-.67 2.68-1.5 5.2-2.74 10.71-4.07 16.02-.48 1.92-.86 3.46-1.45 5.25-.34 1.03-1.56 4.16-2.54 4.16zm-32.28-.53c-3.14 0-1.75-3.33-1-5.93 1.5-5.15 2.74-10.81 4.37-16.07.69-2.22 1.34-5.91 2.33-7.89.71-1.41.88-2.17 2.94-2.17.08.97.26.94.08 2.19-.14.95-.15 1.43-.33 2.32l-1.94 8.28c-1.63 5.71-2.99 10.3-4.4 16.04-.26 1.05-1.02 3.24-2.05 3.24zM8.88 40.89c0 6.48 4.54 7.57 9.88 8.81-.08 3.6-2.59 4.93 4.94 4.93 3.81 0 7.05.18 10.76.18 1.44-6.16 2.17-5.22-2.12-5.28-.91-.01-.97-.14-1.76-.18-.61-.03-1.32 0-1.94 0-1.53-2.89.39-1.81 5.35-4.52 3.52-1.93 5.16-8.03 6.15-12 .6-2.38 1.31-4.85 1.9-7.26 1.03-4.13 2.88-10.79 2.64-15.14-.27-5.08-5.8-7.75-10.58-7.75-5.16 0-9.56.74-13.66 3.8-1.63 1.22-1.52 1.93-2.51 3.13-1 1.2-2.54 4.93-3.18 6.51-1.18 2.95-2.02 5.6-2.8 8.65-.21.82-.16.79-.25 1.69l-1.23 4.41c-.68 2.72-1.59 7.25-1.59 10.04z" style="fill:#ff0"/><path class="fil2" d="m8.44 95.85-.04.93c1.95.56 1.08.97 2.39 2.03.7.57 2.59 1.08 3.61 1.29l18.04-.56 1.02-4.5c-3.69-1.01-13.51.84-17.5-.02-1-4.59 4.7-3.64 8.21-3.68l9.11-.13c1.18-.01 1.92.12 2.48-.53.56-.86.76-3.11.4-4.25-1.24-.23-24.63.42-25.47.67-.56.91-2.2 7.48-2.25 8.76z"/><path class="fil3" d="M111.8 15.31c1.36-.96 3.49-.37 5.55-.41 4.11-.08 3.08-.22 4.41 1.27 1.31-.19 5.5-3.65 11-1.02 1.68.8 1.1 1.29 2.24 2.4 1.18-.13 1.43-.73 2.19-1.34.98-.79 1.5-.8 2.66-1.19 2.1-.71 3-1.9 6.12-1.21 1.46.32 3.55 1.93 4.1 3.36 1.19 3.09-1.4 9.35-1.91 12.48-.88 5.38-3.82 14.2-4.28 18.06-1.7.27-3.62.06-4.62.57l6.36-.2c.96-1.4 5.91-22.24 6.79-25.74 1.11-4.43 3.13-9.33-1.47-11.56-2.09-1.01-4.71-.85-6.87-.12-1.13.38-1.84.73-2.81 1.34-1.04.65-1.45 1.25-2.39 1.76-1.37-1.16-1.82-3.7-6.34-3.65-3.72.05-5.04 1.2-7.45 2.57-.3-.44-.27-1.36-.38-1.85l-11.8.12-1.09 4.36z"/><path d="M124.26 109.57c-32.39.06-67.91.76-99.54 1.94l-17.64.76c-1.18.05-5.31-.29-4.07 1.44.77.93 5.8.23 7.1.2 2.62-.06 5.11-.24 7.72-.29 5.15-.1 10.28-.43 15.44-.58l89.89-1.67c1.85.01 2.69.3 2.8-1.47l-1.7-.32z" style="fill:#ba1c6b"/><path class="fil2" d="M57.44 96.25c1.61.6 5.26.18 6.95-.23.24-.51.53.62.16-.88-.07-1.1-3.4-8.14-4.39-9.26H48.48c-.75 1.08-5.51 19.5-5.65 21.69l6.5.08c.73-3.07 3.68-15.78 4.9-16.94 1.3 1.17 2.08 4.59 3.22 5.54z"/><path class="fil5" d="M64.55 95.14c.37 1.5.07.37-.16.88-1.69.41-5.35.83-6.95.23.6 1.53 5.13 10.5 5.88 11.24l11.07.07c.8-2.59 5.79-20.3 5.42-21.72l-6.41-.06c-1.11 3.35-2.66 15.22-4.29 16.55-2.2-.53-2.87-5.74-4.55-7.19z"/><path class="fil6" d="M18.4 9.07c4.63-2.83 6.84-2.08 10.76-1.71 1.49.14 2.64-.17 4.1-.17 5.25-.01 8.58 4.23 7.97 9.84-.5 4.57-2.51 9.85-3.53 14.14-1.15 4.85-2.68 9.11-4.25 13.84 4.33-1.76 5.74-9.04 7.11-14.27 1.37-5.25 3.34-12.23 4.01-17.58C46.44-1.88 21.31 1.61 18.4 9.06z"/><path class="fil3" d="M130.58 50.84c1.95-.19 4.36-.03 6.35-.01l4.7.04c1.74.2.53-.1 1.13.39-.59 1.06-1.28.92-2.79.95l-7.21.07c-1.5-.02-1.96.02-2.2-1.44zm-9.19 8.43c.2-.26.45-.24.66-.41.75.48.23.21.69.54.79.55-.15.07.81.5-.29-1.23-.68-1.43-.61-2.86 2.38-1.61 2.33-2.05 6.55-2.28 2.91-.16 5.95.25 8.83.12 3.33-.16 5.89-.93 6.29 2.49.13 1.07.03 3.05-.31 4.01l-1.74 7.37c-.26 2.21-.53 8.93-2.17 11.06-.41.54-1.86 1.4-2.52 1.89-1.95 1.44-9.73 1.21-12.41 1.16-.12.28-.06.19-.28.49l-.46.55c-.05.05-.12.13-.19.2l16.45-.03c1.14-4.11 7.63-28.09 7.5-30.59-.18-3.35-3.56-2.82-6.59-2.88-4.98-.1-14.62-.9-17.58 1.81-2.15 1.97-1.9 3.71-2.93 6.85z"/><path class="fil7" d="M14.4 100.1c-1.01-.21-2.9-.73-3.61-1.29-1.31-1.06-.44-1.47-2.39-2.03l.04-.93c-.51.79-3.46 12.26-3.25 13.53 2.58.13 25.01-.83 25.89-1.27.54-.42.58-1.66.72-2.38.17-.87.42-1.47.19-2.47-5.32-.55-12.59.97-18.36.43-.15-1.54.1-2.36.76-3.58z"/><path class="fil3" d="M64.75 55.39c1.69-.89 11.91-.24 14.56-.19 9.65.18 7.79.73 4.86 11.89-1.98 7.55-1.85 8.98-4.71 17.06 2.91-.49 3.17-2.35 3.94-5.1 8.62-30.71 9.94-27.9-4.36-27.89-7.84 0-13.04-1.39-14.28 4.24z"/><path class="fil2" d="M119.53 101.04c2.44.07 2.98 1.3 6.41 1.04l-.07-1.78c.01-2.65-4.44-2.62-6.85-2.7-1.57-.05-3.15.02-4.71-.04-5.12-.18-4.47-3.9 3.88-3.51 2.03.09 2.1.48 3.69.93l4.35-.12c1.85-3.77-5.46-3.58-8.05-3.6-4.81-.04-11.95-.07-12.57 5.51-.26 2.29.45 3.04 2.28 3.64 1.64.54 9.74.72 11.64.61z"/><path class="fil6" d="m64.16 15.96.81-.72 8.37.1c-.08 3.16-2.47 9.29-3 12.98l-4.94 19.3c-.25.76.16.22-.52.76l-1.01.65c4.97-.07 3.43.92 6.11-9.34l4.85-18.85c.72-2.79 2.05-6.85 2.38-9.59-1.95-.02-10.41-.19-11.56.32-.98.58-1.31 3.33-1.49 4.4z"/><path class="fil3" d="M60.27 51.66c-1.01-1.06-3.86-.66-5.22-.61-5.64.24-11.72-.2-17.45.13l-1.05 4.2c1.61-.51 11.39.02 14.09-.03 6.43-.11 8.59-.84 7.05 6-.46 2.03-1.3 3.42-1.7 5.41-.21 1.06-.24 1.99-.64 2.93-.59 1.41-.93.79-.94 2.76-.01 2.47-.59 3.81-1.17 5.88-1.13 4.06-1.98 3.7-1.62 5.85-1.97-.03-.26-.08-.99.42 4.1-1.12 4.92-6.74 6.63-12.15 1.41-4.48.35-3.47-.27-4.97 2.51-1.58 3.21-6.42 4.31-10.58.19-.71.39-1.35.48-2.09.04-.3.09-.81.04-1.1-.11-.7.11.14-.14-.5-.25-.66.01-.22-.41-.63-.4 1.02-5.33.48-6.48.41-3-.18-2.7-1.35-5.68-.25-4.23 1.57-7.08 1.58-10.78-1.24 3.62-.01 19.73-.28 21.93.13z"/><path class="fil7" d="M96.48 99.22c-1.36 1.89.07 3.95-3.65 4.23-6.54.48-8.1.36-7.57-3.02.12-.76.45-1.59.66-2.45-.7.32-2.48.8-3.33.43-1.08-.46-1.29-1.05-1.49-2.45-.05.06-.03.15-.12.18s-.09.14-.11.19c-.84 1.76-2.08 6.81-1.86 8.39.5 3.58 4.49 2.9 8.02 2.87 10.77-.07 13.18.88 14.58-7.52-1.12.56-.73.63-2.45-.65l-.61.58c-.8.74-.75.48-2.31.79l.24-1.55z"/><path class="fil6" d="M48.75 15.96c1.29-.5 7.03-.76 8.45-.47.71 2.36-1.72 7.48-2.51 11.45-.3 1.52-.8 2.14-1.18 3.68-.66 2.63-.84 5.38-1.36 8.14-.38 2.03-1.18 3.66-1.31 5.88-.19 3.49 1.63 2.89 2.7.7 1.18-2.41 1.24-1.46 2.33-2.31L54.51 43c-1.8-3.91 6.37-25.66 6.56-31.37l-11.21.24c-.56 1.06-.87 2.9-1.12 4.11z"/><path class="fil3" d="M82.79 15.19c2.87-.8 5.4-.83 8.44-1.1 4.74-.42 10.27 4.16 10.88 7.79.38 2.26-.05 6.94-.78 8.59l2.31-.12c1.96-6.43 4.37-15.1-1.86-18.39-3.53-1.86-11.74-1.57-15.46.25-1.34.66-2.77 1.67-3.53 2.97z"/><path d="M81.1 95.95c.2 1.4.41 1.99 1.49 2.45.86.37 2.63-.11 3.33-.43 1.62-2.5 2.45-2.23 6.06-2.31 1.2-.03 3.15-.12 3.95.44 1.12.79.51 1.7.54 3.11l-.24 1.55c1.55-.31 1.51-.04 2.31-.79l.61-.58c1.72 1.28 1.33 1.22 2.45.65 2.35-7.67 1.18-8.81-6.86-8.54-2.27.08-6.96-.13-8.8.28-2.15.48-4.8 2.07-4.84 4.15z" style="fill:#f11b90"/><path class="fil6" d="M106.41 52.39c-1.61.44-5.81.81-7.01-.88l6.64-.19.18.76c.29-.36.34.58.25-.72-1.16-.48-7.96-.31-9.83-.15-1.64.14-1.01.46-1.63 1.61l-2.19.09-1.07 3.31.54-.5c1.19-.87 4.02-.63 5.48-.65 6.64-.09 4 .28 5.61 1.31 1.04.66 11.05.06 13.38.4l.04 3.38c-2.11.58-8.17.12-10.78.28-.32.02-.44.02-.75.1-.75.2-.09-.12-.6.27l13.98-.15c3.23-9.39 2.11-7.75-5.44-7.78l-5.55.01c-1.06-.05-1.07.23-1.26-.5z"/><path class="fil3" d="M23.37 42.62c-3.56.1-1.6-4.16-1.04-6.38.65-2.55 1.3-4.81 1.98-7.44.7-2.72 1.35-4.97 2.01-7.35.63-2.26 1.65-5.29 2-7.69-2.59 1.18-2.19 1.08-3.12 3.8-1.94 5.7-1.6 4.81-2.95 10.05-.26.99-.64 1.31-.84 2.45-.2 1.17-.31 1.59-.52 2.51-.76 3.33-1.92 6.76-2.81 10.12-.34 1.28-1.4 4.3 1.12 4.28 1.76-.01 1.84-2.22 2.58-3.93 1.37-.26.62.31 1.6-.43z"/><path class="fil7" d="M119.53 101.04c.28.37 2.34 2.09-1.13 3.07-5.35 1.52-8.08-1.04-9.63-1.3-1.56-.26-4.1-.1-5.17.56-.75 4.77 9.01 4.12 12.91 3.82 3.61-.28 7.37-.6 8.92-3.47.62-1.15 1.18-2.29.44-3.41l.07 1.78c-3.43.26-3.97-.97-6.41-1.04z"/><path class="fil3" d="M115.86 63.3c-.37 2.77-4.47.61-8.88 1.49l-.06-.92c-.04.07 0 .18-.09.21l-.91 3.03c2.71 1.11 4.77-.39 7.85.13.4 2.74-.87 6.19-1.48 8.75-.5 2.09-1.56 5.98-2.31 7.81-2.21 0-5.91.79-7.81 0 .52 1.14 1.63.64 4.15.51 5.5-.28 5.72.57 7.64-6.4.78-2.83 3.79-12.25 3.87-14.46l-1.98-.15z"/><path class="fil6" d="m115.09 48.5 7.57-28.75c-4.31 1.9-3.7 5.93-5.76 13.42-.29 1.05-.59 2.63-1.04 3.61-1.36 2.96-.34-.45-1.07 3.63-.21 1.19-.42 2.8-.74 3.94-.42 1.5-.96 2.63-1.28 4.15h2.31zM119.7 47.17c-.48.48-.36-.17-.4 1.05 1.19.55 9.62.28 11.37.08l7.12-28.03c-3.06.68-3.12 2.53-3.58 5.61l-5.59 22.11-9.11.15.18-.95z"/><path class="fil3" d="M90.97 36.89c2.46.03 6.25-.32 8.42.07.08 1.9-1.25 5.43-1.72 7.43 2.86-1.94 4.99-8.21 5.38-11.36l-11 .05-1.08 3.82zM73.32 76c-1.16.21-1.58.38-2.69-.06-.19-2.01 2.77-10.88 3.31-13.7-3.71.83-3.26 2.16-4.5 7.85-.43 1.95-2.51 8.54-2.05 9.62 1.52 1.13 2.35.03 2.86-1.42.83-2.36.56-1.31 2.14-1.78l.93-.51z"/><path class="fil5" d="M31.34 77.21c-1.81-.19-8.78 3.88-9.04 4.16-.47.49-1.36 2.29-.4 3.07 1.39.73 9.25-2.56 10.41-3.49.17-1.43-.36-2.93-.96-3.73z"/><path class="fil6" d="m97.84 80.41 2.12-.07c.03-1.22.67-2.4 1.03-3.73.25 0 1.03.03 1.21-.01l1.19-.59-2.54.11c-.13-1.74 2.28-10.38 2.87-12.46-1.49.65-2.79.71-3.22 2.4-.37 1.47-.71 3.17-1.07 4.75-.56 2.48-2.05 7.56-1.6 9.58z"/><path d="M28.63 49.4c-.35 1.7-2.72.67-3.73 2.68 1.92 3.34 5.13-.1 7.54 2.21l-1.28.32c-.35.01-1.07-.04-1.47-.05-1.1-.02-2.21 0-3.31 0-2.21 0-4.56.08-6.6-.14l14.57.35c.33-.94 1.19-3.94 1.05-5.11l-6.76-.27z" style="fill:#c1b72e"/><path class="fil2" d="M99.36 81.97c-1.29.01-5.69 3.69-7.31 4.91-2.74 2.05-1.62 3.81 1.28 2.4 1.81-.88 6.13-2.68 7.17-3.55-.03-1.36-.44-2.95-1.13-3.76z"/><path class="fil6" d="M87 34.16c-3.59 1.23-2.86.55-3.67 4.66-.36 1.85-1.47 5.45-1.28 6.94 2.37 1.13 3.84.45 4.33-2.36l1.47-.53c.08-.04.19-.09.27-.16-2.83.37-3.03-.9-2.44-3.31.42-1.72.95-3.58 1.32-5.25z"/><path class="fil3" d="M119.99 67.39c.87.31 1.8-.64 3.18-.92 2.33-.47 6.98-.14 8.23-.6 1.32-.48 1.34-1.85 1.98-2.92-6.88.38-10.31-1.06-13.39 4.43z"/><path class="fil6" d="M90.49 20.91c-2.74.76-2.68 2.03-3.58 5.17-.12.42-.67 1.94-.2 2.35 1.55.57 2.67-.02 3.27-1.26.24-.5.42-1.46.72-1.75.71-.7.06-.08 1.75-.54.07-.02.17-.06.23-.08.06-.02.15-.04.22-.09l-3.07-.02c-.31-1.38.42-2.47.68-3.79z"/><path d="M43.18 73.44c-.66.99-.85 1.56-.7 2.52.85.35 1.96.51 2.6-.36l-2.52.24.63-2.41z" style="fill:#898714"/><path d="M90.99 58.68c-.4.47-.03-.52-.51.72-.34.87-.16.5-.15 1.21l2.58.07c-.42-.25.49-.19-.9-.3-.29-.02-1.14.04-1.49.05l.47-1.74z" style="fill:#959313"/></g></g></svg>