<svg xmlns="http://www.w3.org/2000/svg" xml:space="preserve" width="96" height="96" style="shape-rendering:geometricPrecision;text-rendering:geometricPrecision;image-rendering:optimizeQuality;fill-rule:evenodd;clip-rule:evenodd" viewBox="0 0 41.46 41.46"><path d="M24.21 0h1.26c1.78.2 3.46 1.21 4.7 2.66.89 1.04 1.16 2.15.82 3.58-.38 1.58-1.39 1.52-2.82 1.52.2.34.46.58.72.89.83.96 1.29 1.86 1.68 3.22.24.83.49 1.74.49 2.88-.01 2.72-.54 2.29.64 2.52 1.14.22.42 1.37.51 2.28.05.51.17 1.02.05 1.57-.13.56-.35.67-.69.92-.35.26-.41.54-.83.77-.36.2-.82.19-1.16.38-.31.18-.6.5-1 .56-.64.11-.87-.06-1.23-.28-.37.81-.84.27-1.65.77.37.82.74 1.62.74 2.87 1.76 0 .8.51 1.89.88.28.09.75.2.98.4.14.12.24.21.16.49-.1.39-.09.1-.3.43 1.42 0 2.59.1 4.05.1.91 0 3.41-.21 4 .15.97.6.37 1.74-.25 3.23l-.99 2.49c-.14.32-.2.46-.27.83.46-.26 1.37-.25 2.06-.19.89.08.98.6 1.57.76.05-.75.66-.86 1.36-.72.49.1.71.34.79.66v.66c-.05.35-.17.73-.26 1.1-.22.88-.07 2.23-.62 2.82-.14.15-.26.23-.44.26h-.53c-.34-.04-.33-.13-.57-.36-.46-.45-.81.12-1.43.3-.08.02-.15.04-.22.06h-1.18c-.69-.14-1.33-.49-1.94-.86-.02 1.11-1.09.76-2.23.77-1.36.01-1.38-.01-1.9-1.15h-.58c-.04.52-.14.72-.33 1.05-1.37 0-3.87.17-5.1-.03-.68-.11-1.68-.07-2.5-.07-1.11.01-1.02-.1-1.57-1.05h-.58c-.14.71-.14 1.04-.9 1.06-.7.02-1.18.07-1.33-.58-1.6.89-2.85.74-4.38-.19-.4.87-.63.72-1.49.68-.81-.04-.66-.62-.66-1.54h-.58c-.17.84-.01 1.51-.91 1.54-2.55.09-.98-1.93-.74-5.18-.34.19-3.35.18-4.02.06-.37-.07-.76-.11-.86-.54-.53.01-.5.16-.85.36-.5.29-1.5.11-2.04.03s-.41-.12-.74-.38c0-1.07.36-1.71.74-2.59.31-.72.74-1.55.91-2.39-.13-.22-.28-.31-.31-.59-.11-.98.9-.94 1.55-.94 1.08.01 2.27-.16 2.48.86.82-.64.24-.77 1.73-.77.52 0 1.08-.1 1.55.22.28.19.12.02.27.36.24-.19.43-.39.74-.48-.01-.01-.04-.03-.05-.04l-.19-.17c-.26-.29-.18-.59.1-.81.28-.22.77-.31 1.13-.42 1.33-.38 1.09-.98 2.23-.67 0-1.61.68-2.05.74-2.97-.55-.15-.5-.39-1.07-.19-.31.11-.7.01-1.07-.09-.51.39-.38.58-1.17.5-.94-.1-.78.06-1.38.29-.64.25-.86-.14-1.26-.39-.28-.18-1.01-.04-1.46.01-1.09.1-1.66-1.05-1.3-2 .39-1.02 1.48-1.09 2.37-1.09-.07-.36-.2-.56-.17-1.05.05-.92.54-1.7.99-2.4 1.09-1.69 1.07-1.26 1.16-3.35.08-1.81.14-2.65.78-3.89.49-.95 1.39-2.04 1.7-2.72-.89 0-1.63.43-2.6.04-1.72-.7-1.81-3.95.94-6.07.66-.5 1.1-.76 1.95-1.09 1.36-.52 3.56-.69 4.64.44.38.4 1.21 1.13 1.26 1.79.67-.52.23-.48 1.4-.48.44 0 1.29-.16 1.57.29h-.41l-.08.48c-.03-.39-.02-.38-.25-.48h-1.32l-.06.12c-.02.13-.02.13-.02.26h-.17c-.03-.37.05-.29-.25-.38-.16.27-.38.62.08.77.18.09-.07.02.13-.05.33-.11-.04-.01.22.04l1.14-.09c.25.06.16-.06.25.19h.17c.06-.28-.01-.14.17-.29.03.35.12.36.33.48l-1.07.29c.54.15.61.2 1.32.19.66-.01.76.15 1.24.19-.3-.53-1.01-.58-1.07-1.44-.08.15-.08-.22-.08.29-.02-.19-.03-.16-.05-.29 0-.02-.01-.05-.01-.07 0-.02-.01-.05-.01-.06 0-.01-.01-.04-.01-.05.12.19.1-.06.2-.33.2-.58.49-.96.92-1.34.55-.48 1.14-.9 1.95-1l.09-.01z" style="fill:#000"/><path d="M28.24 9.27c.23 1.23-.39.31-.81-.2-.26-.32-.25-.68.18-.5.29.13.31.42.56.62-.09-.3-.06-.19-.23-.42l-.28-.44c-.23-.4-.34-.4-.66-.69.23 1.22-.61.31-1.37-.31-1.37-1.12-3.4-1.89-5.09-2.14-.5-.07-.82.06-1.05-.32.17-.27.01-.03.33-.29-2.19-.21-4.56.69-6.33 2.05-.53.4-1.7 1.64-2.13 2.31l-.31.51-.03.06c-1.67 2.68-1.89 6.96-.62 9.64.12.25.37.5.62.53.59.06.09-.97-.06-1.55-.54-2.1-.71-4.17-.04-6.24.19-.58.41-1.06.68-1.6.12-.22.27-.49.4-.68 2.36-3.23 6.33-4.64 9.9-3.69 1.96.52 3.99 1.82 5.17 3.67 1.16 1.82 2.03 3.98 1.71 6.36-.05.4-.13.68-.13 1.09l.21-.23c.34-.38.54-.58 1.11-.63.02-1.2.11-.1 0-2.01-.08-1.46-.74-3.64-1.52-4.65l-.21-.25zm7.18 29.5c0-1.55 2.02-1.17 2.36-1.01.45.22.37.35.37.43 0 .9.11 1.55-1.38 1.52h-.06l-.36-.01c-.59-.06-.93-.22-.93-.93zM25.18 35.8v.38c.37 0 .52-.03.77-.07.52-.08.55.11.55-.6-.41 0-.96.19-1.32.29zm14.12 4.31c.12.28.09.31.25.57 1.48 0 .64-1.82-.17-.68-.01.01-.03.04-.04.05-.01.01-.02.04-.04.05zm.33-1.24v.29h.74c.03-.46.18-.79.27-1.22.03-.14.08-.43.11-.66.07-.58.01-.51-.63-.51-.35 0-.33.51-.38.9-.06.47-.12.69-.12 1.2zm-6.28-2.11-.47 3c-.14.88-.21.83.56.83.35 0 .31-.34.36-.74.08-.72.46-2.55.47-3.09-.27-.03-.45-.21-.91 0zM8.49 40.21c.54.05.16.2.91 0 .02-.27.08-.5.13-.81.1-.76-.22-.63 1.69-.63.43 0 .17.55.17 1.53h.83l.58-3.83c-.38-.01-.28-.1-.58-.1-.7 0-.21 1.44-.74 1.44l-1.65-.1c.12-1.43.25-1.34-.5-1.34-.4 0-.43.98-.54 1.76l-.28 2.07zm14.04.19c1.28.03.81.18 1.63-.88.42-.55.9-1.4 1.26-1.51.17.37.49.94.5 1.44l-1.32.1c-.17.38-.23.29-.5.86.26.02.29.1.58.1h2.73c0-.54-.12-.68-.29-1.1l-.78-1.96c-.34-.78-.26-.86-.83-.86-.55 0-1.25 1.37-1.59 1.79-.38.47-1.14 1.5-1.38 2.03zm6.03-2.78h1.65c.68 0 1.32-.16 1.32.48 0 .58-.88.48-1.4.48h-1.9l-.25 1.91c1.37 0 .71-.09 1.07-.96.72-.2.39-.04.67-.04.23 0 .68-.35 1.11.56.16.34.06.29.3.41.46.23.88.04 1.05.02-.1-.48-.36-.78-.58-1.15.14-.11.49-.35.59-.47.44-.54.7-2.21-1-2.21-1.6 0-1.83-.22-2.34.35-.22.25-.28.22-.3.6zm-10.08-.19c.73.07 2.49.08 2.89.19.25 1.11-.74.77-1.49.77-2.01 0-1.71-.19-1.91.95-.17 1.03-.35 1.06.5 1.06.59 0 .1-1.05.66-1.05.8 0 1.2-.14 1.49.38.11.2.23.46.33.67h1.16c-.12-.5-.47-.7-.58-1.24 1.39-.85 1.02-2.27.12-2.53-.53-.16-1.79-.15-2.43-.15-.3 0-.68.64-.74.96zm-4.54 1.15c0-1.49 1.53-1.37 2.3-1.13.5.16.43.61.43 1.03 0 1.36-2.32 1.04-2.59.61-.19-.3.1.3-.06-.12-.05-.13-.07-.17-.07-.39zm-.91-.1c0 1.42.52 1.91 1.98 1.91 3.25 0 2.77-2.95 2.21-3.52-.82-.83-4.19-.85-4.19 1.6zm21.47.29c0 1.36.51 1.92 2.06 1.92 2.98 0 2.78-2.78 2.17-3.48-.67-.78-2.7-.69-3.55-.03-.36.28-.69.94-.69 1.59zm-8.82-12.95c.08.33.22.94.23 1.36-.33-.05-.24 0-.33-.48-.16-.81-.41-1.35-.41-1.92.37.23.38.46.51 1.03zm-12.17-.17c.39-.46.1-.6.51-.77-.08.38-.19.7-.3 1.09-.07.23-.08.27-.14.51-.12.43.03.2-.22.42v-.48c-.06.12-.01-.01-.08.2l-.17.86c-.18-.05-.7-.21-.89-.17-.18.04-.6.43-.47.71.19.41 1.19-.34 1.44.9 1.26 0 .2-.62 1.46-3.09.2-.38.44-.62.52-1.02-.39-.12-.5-.42-1.07-.48-.35.27-.54.7-.59 1.34zm1.17-1.63c.49.86 3.46 1.53 4.71 1.53 1.85 0 1.79-.11 3.41-.55.91-.24 1.01-.37 1.78-.72.29-.13.35-.09.43-.46-1.41 0-.85-.15-1.35-.24-.47-.08-2.87 1.85-7.38.3-2.11-.73-.67-.16-1.6.13zm9.5.86c.03.46.19.51.51 1.13 1.32 2.56-.21 3.18 1.97 3.18 1.37 0 1-1.77.19-1.7-1.09.09-.39.67-1.01-1.94-.11-.47-.32-.76-.5-1.15-.32.03-.87.32-1.16.48zm4.29-23.19c.15.26 1.91 1.64 1.98 2.6-.51-.01-1.09-.71-1.58-1.14-1.43-1.25-2.64-1.93-4.53-2.02-.64-.03-.6.1-1.07-.19.31-.49 1.86-.51 2.42-.41 1.26.21 1.26.4 2.26.84l-.78-.54c-1.75-.75-3.85-1.04-5.16.85-1.09 1.57-.26 1.1.69 1.18.56.05 1.6.49 2.09.73 1.87.92 3.27 1.74 4.89 3.14.3.26.1.23.53.24.31-.26.56-.82.58-1.43.07-1.77-.69-2.58-1.7-3.4-.31-.25-.19-.3-.62-.45zm-7.68 1.93.33-.48c-.02-.19-.03-.16-.05-.29 0-.02-.01-.05-.01-.07 0-.02-.01-.05-.01-.06 0-.01-.01-.04-.01-.05l-.16-.1h-.41l-.08.48c-.03-.39-.02-.38-.25-.48v.14c-.13.14 0 .1-.24.15l-.99-.01c-.07-.14-.04-.1-.08-.29l-.06.12c-.02.13-.02.13-.02.26h-.17c-.03-.37.05-.29-.25-.38-.16.27-.38.62.08.77.18.09-.07.02.13-.05.33-.11-.04-.01.22.04l1.14-.09c.25.06.16-.06.25.19h.17c.06-.28-.01-.14.17-.29.03.35.12.36.33.48zM10.7 1.71c.7-.17 1.76-1.35 4-.99.66.11 1.02.05 1.13.51-.65.18-1.56.1-2.29.22-2.32.38-4.03 2.65-4.89 2.94-.07-.17-.06-.12-.08-.38-.39.33-.72 2.25.33 3.06l.91-.67c1.31-1.01 1.7-1.21 3.03-1.95.95-.53 2.38-1.12 3.46-1.35.27-.06.39-.07.69-.04.42.04.23 0 .67-.02-.03-.38-.26-.66-.44-.93-2.15-3.35-6.23-.8-6.52-.41z" style="fill:red"/><path d="m31.55 21.54.09-.19c-.58-.06-.2-.15-.33-1.25-.14-1.12-.34-1.21.24-1.05-.54-.83-3.33-.27-4.37-.18l-11.4 1.53c-.42.36-.12 1.58.16 2.19l6.03-.57c.84-.03.47-.13.57-.85.14-.95 1.07-.82 1.74-.49.08-1.13 1.12-1.28 1.82-.38.9-1.16 1.83-.42 2.45.99.18.42.12.33.54.53.79.37.82.43 2.07-.06l.4-.21z" style="fill:#f93"/><path d="M16.1 17.71c.21-.11.88 0 1.32 0l-.26.18c-.55.14-.85.16-1.06-.18zm-3.39 1.53c.11.07.09.05.25.1v-.29c-.14.04-.22.01-.25.19zm-.5-4.31c-.03-.44.09-.17-.17-.38-.12.31-.17.28.17.38zm7.02 8.43h.25v-.29h-.25v.29zm-5.86-11.97c0 .35.16.34.25.38.21-.44.01-.65 0-.67-.18.07-.06-.03-.16.1-.02.03-.09.14-.09.18zm5.62 4.31c.01.02.03.04.04.05.33.36.33.23.62.14l-.25-.67c-.37.22-.22.05-.41.48zm.08-.96c-.1-.5-.7-1.31-.83-1.91h-.17c.03.35.2.63.41 1.05.21.43.32.75.58.86zm1.07-12.16h-1.32c.04.19.02.15.08.29l.99.01c.24-.05.12-.01.24-.15v-.14zm-7.27 18.77c0 .47-.02.72.08 1.16.1.43.03.34.34.38-.4-.98-.22-1.44-.17-2.2-.01.02-.03.02-.04.05-.01.04-.21.2-.21.62zm.65 4.31c-.03.24-.1.56-.15.77v.48c.25-.22.1.01.22-.42.07-.23.08-.28.14-.51.11-.39.22-.71.3-1.09-.41.17-.12.31-.51.77zM10.48 1.9c-.36.13-1.41 1.06-1.59 1.34-.13.2-.26.53-.31.79.02.26.01.21.08.38.86-.29 2.57-2.57 4.89-2.94.73-.12 1.64-.04 2.29-.22-.11-.46-.47-.4-1.13-.51-2.25-.36-3.31.81-4 .99-.14.17-.05.1-.23.18zm15.44 25.29c-.01-.42-.16-1.03-.23-1.36-.13-.57-.14-.8-.51-1.03 0 .57.25 1.11.41 1.92.09.48 0 .42.33.48zm2.31-17.92-.07-.08c-.25-.2-.27-.49-.56-.62-.43-.18-.44.18-.18.5.42.51 1.04 1.43.81.2zm-3.47-3.91c.26.16.66.45.99.48.16-.68.36-.19.17-1.15-.43-.12-.97-.25-1.16.67zM14.02 23.84c.52 0 .91.1.91-.86-3.4.01-.91.86-.91.86zm16.35-5.65c.88 0 1.06.18 1.57.57.61-1.47-.77-1.36-1.17-1.07-.21.15-.29.26-.4.5zM13.03 5.17c0 .41.1.46.33.96.43-.08.46-.36.91-.48-.08-1.15-1.24-1.16-1.24-.48zm18.5 16.37c.52-.28.4-1.34.25-1.94l-.25-.55c-.58-.16-.38-.07-.24 1.05.13 1.11-.25 1.19.33 1.25l-.09.19zM6.75 23.65h.58c-.02-.32-.15-.74-.15-1.06 0-.37.15-.71.15-1.14-.67.18-.8-.05-.92.86-.09.63.09.9.34 1.35zM5.18 22.5c0 1.32.34 1.24.99 1.24.49 0 0-.51 0-1.24 0-.7.49-1.02-.25-.89-.46.08-.74.3-.74.89zm23.65-4.15c.82.05 1.36-.12 1.87-.93-.33-1.41-2.02-.36-1.87.93zm-14.48 3.1c0 .59.15.88.25 1.34.39-.03.59-.1 1.07-.1-.15-.76-.33-.44-.33-1.72 0-.22.07-.26.08-.57-.27 0-.68.05-.83.18-.16.14-.24.55-.24.87zm-1.24.19c0 .47.2 1.16.55 1.18 1.22.05.52-.27.52-1.27 0-.45.09-.69.17-1.05-.8.08-1.24.11-1.24 1.15zm17.59-5.17c.03-.35.08-.27.08-.77 0-1.06-.12-2.43-.34-3.25-.19-.7-.7-2.06-1.15-2.4.02.33.31 1.07.45 1.49.61 1.85.58 2.44.62 4.26.01.58.01.44.34.66zm-6.19 4.12c0 .92.45 1.62.93 2.18.23.27.41.54.72.7.4.2.66.15.99-.1-.05-.64-.67-.71-1.06-2.22-.13-.52-.22-.81-.62-1-.37-.17-.96-.09-.96.45zm-1.73.86c0 1.57 1.74 2.8 2.89 1.91-.29-.5-.71-.78-1.02-1.4-.38-.76-.23-1.28-1.29-1.28-.35 0-.58.38-.58.77zm4.21-13.8c-.35-.36-.97-.85-1.38-1.16-.47-.36-.98-.63-1.66-.94-1.22-.57-2.6-.94-4.15-.94-.32.26-.16.02-.33.29.24.38.55.24 1.05.32 1.69.25 3.72 1.01 5.09 2.14.76.62 1.6 1.52 1.37.31zM7.5 19.54c0 .74-.04.53.08 1.15.7-.22-.02-.67 1.73-.67.09-.37.25-.56.66-.57-.04-.53-.64-1.86-.66-2.97h-.17c-.1.45-1.65 2.27-1.65 3.06zM28.48 1.72c-.22-.1-.31-.25-.52-.32-1-.44-1-.63-2.26-.84-.56-.1-2.12-.08-2.42.41.47.29.44.16 1.07.19 1.89.09 3.1.78 4.53 2.02.49.43 1.07 1.12 1.58 1.14-.07-.96-1.83-2.34-1.98-2.6zm-2.23 19.07c0 .69.42 1.31.67 1.71 1.21 1.89 2.35.48 2.68.35.27-.11.44-.04.75-.18.27-.12.38-.2.52-.44-.74.02-1.83.76-2.65-.86-1.06-2.1-1.98-1.06-1.98-.58zm-6.94 2.11c.87.02.28.98-.14.65-.32-.26-.13-.61-.03-.93l-3.96.38c.39.63 3.15 1.18 3.88 1.24 1.51.12 3.26-.3 4.21-.86-.03-.11-.39-1.05-.83-1.05l-1.92.16c-.61.09-.93-.04-1.22.41zm-4.87 4.31 2.89-.09c.41 0 .57-.1.91-.1l2.56.1c.48 0 .91-.02 1.36.06l2.69.23c.01-.75-.77-1.77-1.07-2.3-1.49.28-.74.86-5.04.86-1.12 0-2.35-.52-3.22-.86-.22.38-1.02 1.42-1.07 2.11zm-3.3-6.89c-.01-.02-.03-.07-.03-.06-.01.04-.03-.21-.31-.4-.72-.48-1.32-.22-1.56.94-.25-.15-.16.07-.17-.48h-.41c-1.69 0-1.63 5.39.74 3.54-.27-1.34-.53-.44-.32-2.49h.15c0 .85-.09 1.8.51 2.37.77.73 1.47-.13 1.47-.46 0-.39-.09-.51-.14-.79-.1-.56-.15-.94-.05-1.44.09-.48-.07-.22.2-.44 0 .78-.14 2.97.74 2.97 1.15 0 .74-.21.74-2.2 0-.24.03-.45.11-.63.22-.49.18.02.3-.51-.24-.42-.76-.67-1.32-.67-.38 0-.44.53-.66.77zM2.72 30.47c-.24.52-1.8 4.39-1.82 4.69h1.4c.03-.14.7-1.92.91-2.2 0 .35 0 .68.02 1.03.02.26-.01.49.07.69.35-.27.71-.42 1.06-.69.37-.28.57-.67.92-.94-.09.44-.63 1.67-.83 2.11 1.82 0 1.17.53 1.87-1.09.32-.73 1.58-3.78 1.68-4.28-2.41 0-1.09-.01-2.73 1.44-.25.22-.41.57-.74.67 0-.85-.08-1.33-.08-2.11l-1.14-.01c-1.3-.17-1.07-.15-.59.68zm8.18-.96c.54 0 1.13-.05 1.32-.67h-.91c-.18.31-.33.3-.41.67zm5.62 5.84h1.4l2.15-5.36c-.62 0-1.92.03-2.15-.1.16.78.6.42.22 1.31-.1.24-.18.39-.28.64-.11.28-.17.49-.27.74-.22.52-.98 2.29-1.07 2.78zm-2.64-4.79c0 .32-1.49 3.99-1.82 4.69 1.82.07 1.29.36 2.06-1.53.17-.42.12-.54.45-.63l.43-.07c.27-.06 1.3-.73 1.43-.93-2.26 0-1.47 0-1.24-1.15h.58c-.02.26-.04.26-.08.48h1.4c.12-.58.48-.86.5-1.53h-4.05c.06.26.33.63.33.67zm-7.02 4.69c1.3 0 1.16.28 1.98-1.15-.1-.42-.32-.55-.5-.86h.99c.18-.31.91-1.72 1.24-1.82-.09.22-.39 1.69-.41 2.01H8.92c.43.95.91.75.91 1.82h1.49c.12-.91.34-1.81.49-2.69.16-.91.33-1.8.5-2.67-.42 0-.91.03-1.32 0-1.38-.09-.72-.49-2.25 1.89l-1.96 3.11c-.1.15-.27.37.09.37zm11.81.1h1.57c.09-.41.47-.81.66-1.15-.15-.26-.42-.54-.5-.86h.99c.21-.36.92-1.64 1.16-1.82l-.31 1.74c-.09.45-.08.39-.6.37-.32-.01-.54-.05-.66-.11.03.44.16.4.39.7.5.66.44.6.44 1.22 2.04 0 1.34.53 1.98-2.59.1-.46.17-.93.26-1.42.07-.33.22-1.06.23-1.46-3.06 0-1.91-.54-3.95 2.6-.25.38-1.6 2.5-1.66 2.76zm14.2-.86c.14-.67.45-1.17.67-1.81.7-2.01.72-1.53 1.56-1.45-.02.28-1.01 2.7-1.24 3.26h-.99zm-1.4 1.05c4.05 0 3.25.33 3.83-1.12.1-.25.18-.39.28-.64.1-.26.14-.41.25-.67 1.45-3.51 1.66-2.95-1.54-2.93-.22 0-.44.01-.65-.01-.58-.06-.36-.21-.91 1.07-.32.72-.56 1.47-.88 2.24-.15.36-1.1 2.07-.36 2.07zm-3.39-1.05c.05-.76 1.19-2.65 1.24-3.35h.99c-.04.58-1.12 2.75-1.24 3.35h-.99zM28 30.76c0 .29-.57 1.7-.71 2.04-.15.36-.27.6-.41.96-.11.27-.31.77-.36 1.02.56.05.48.24.66.67 2.45 0 2.67.75 3.47-1.34.24-.64.48-1.3.74-1.91.24-.56.66-1.37.66-2.01-1.01-.27-3.16-.1-4.38-.1.06.27.33.58.33.67zM11.73 14.87c0-.65.47-.46.74-.29v.67c-.35.27-.09.29-.66.29v-.19c.38-.04.14.1.33-.19-.19-.02-.41-.09-.41-.29zm15.2-.19h.58l.08.96c-.32.18-.33.19-.66.1l.41-.19c-.07-.29 0-.21-.25-.29l.17-.38-.33-.19zM13.3 10.95c.24-.03.17 0 .33-.1l.09.09c.32.34.29.55.07 1.06h-.5c-.18-.43-.13-.59 0-1.05zm12.72.86c.28-.09.39-.19.41-.57l-.41-.19c.35-.16.36-.09.66.1 0 .69-.12.22-.25.77.43.05.15-.11.25.19h-.66v-.29zm-13.13-.86c0 1.04.07.96-.25 1.05 0-.11.01-.39.01-.49-.05-.47-.67-.57.24-.57zm.33-.1c.13-.62.78-.86 1.32-.86.89 0 1.5 1.41 1.87 2.14.22.43.48.88.75 1.24.51.67.81.63 1.18.84-.07.11-.12.15-.15.2-.01.02-.03.04-.04.05l-.03.06c-.53.87-.91.93-1.92.93-.6 0-1.39-.48-1.67-.84-.35-.44-.67-1.29-.72-2.04h.17c.1 1.38.86 2.59 2.15 2.59.62 0 1.75.13 1.82-.86-.31-.08-.23-.16-.58-.19-.07.32-.09.31-.35.45-.89.51-1.55.1-1.55-1.25.55.56.83-.06.83-.45 0 0-.78-2.49-1.73-2.49-.89 0-.77.33-1.32.48zm2.23-1.72c-.4-.12-.2-.05-.25-.48l-.17-.48c.09-.11.24-.09.41-.1v1.05zm7.76-1.15c.21.36.08.1.08 1.15-.59-.18.25-.68-.41-.86.17-.28.06-.12.33-.29zm-7.35.19c.19-.05.24-.09.5-.1 0 1.35.03.77-.17 1.24.22.38 1.57 3.25 1.82 3.43.25-.49-.03.12-.08-.94-.02-.46-.05-.73-.09-1.24-.05-.77-.16-1.54-.16-2.4.28.23.45.95.63 1.37.14.33.47 1.13.52 1.5H19c.03-.42.32-1.5.58-1.72.05.72.41 1.75.41 2.49 0 .79-.44 1.62-.5 2.39 1.72-.04 2.81-3.91 4.59-4.63.39-.16.73-.17 1.07.08.28.2.58.57.61 1.02-.27-.22-.51-.86-.99-.86-.86 0-1.97 1.07-2.15 1.82.46 0 .69.08.93.36.62.72.62 2.71-.85 2.71-.25 0-.35-.24-.43-.48.49-.24-.38.08.14-.02.82-.16.31-.95.2-1.42-.57 0-.31.02-.66.29-.04-.22-.06-.22-.08-.48-.3.25-1.02 1.58-1.9 1.82.07.29.21.45.41.57 1.13.72 2.98.04 3.95-.69.26-.19.45-.38.68-.56-.21 1.06-3.15 2.17-4.43 1.59-.87-.39-.69-1.21-1.24-.7.1.47.55.1.55.93 0 1.13-1.95.84-1.07-.67-.4-.69-.59-1.4-.91-1.53.06.3.11.28.17.57h-.17c-.27-1.36-.08-.12-.08-.86 0-.24-1.72-3.55-1.98-4.12.13-.08-.15-.1.25 0v-.57c-.36-.06-.13.08-.25-.19zm3.08-1.28c0-.03-.02-.04-.03-.06.12-.06.26-.08.41-.1v1.15c-.37-.11-.22-.03-.25-.48-.03-.5-.12-.4-.14-.51zm.72.99c.12-.51.38-.35.5-.86-.21-.11-.16-.07-.41 0 .01-.22.05-.29.25-.29.77 0 .21.77.17.96.83.08-.28.19-.5.19zm-8.59 7.28c0 1.55.14 2.47.56 3.75.27.83.28.24.84.55.02-.25.05-.26.06-.31.13-.66-.15-.74.43-.74.28 0 .21.14.24.49v.07c.04.4.15.54-.41.59.19.33.41.39.5.77l4.39-.56c1.22-.35 1.05-1.12 3.65-.53.45.1.91-.06 1.45-.06-.21-.69-2.32-.86-2.89-.86-1.54 0-3.26 1.39-5.09.54-1.24-.57-1.32-2.26.13-2.26.28 0 .39.15.41.48-.22-.01-1.16-.34-1.16.38 0 .97 1.13 1.44 1.82 1.44 1.6 0 3.97-1.55 6.05-.51.44.22.8.45 1.38.51.07-.29 0-.21.25-.29l.09.38c.35 0 .93-.13 1.24-.17 1.22-.14.56-.07 1.06-.5.46.14 0 .4.89.28.42-.06.75-.01.92-.37.67-1.42.6-3.95.21-5.51-.11-.46-.4-1.28-.58-1.63-.27-.52-.9-1.57-1.27-1.98-1.63-1.84-4.2-3.13-6.46-3.13-2.1 0-4.55 1.17-6.1 2.6-1.53 1.41-2.65 3.49-2.65 6.59z" style="fill:#fff"/></svg>