<svg xmlns="http://www.w3.org/2000/svg" xml:space="preserve" width="87.555" height="78.85" style="shape-rendering:geometricPrecision;text-rendering:geometricPrecision;image-rendering:optimizeQuality;fill-rule:evenodd;clip-rule:evenodd" viewBox="0 0 724.99 652.91"><path d="M490.62 65.88C519.92 21.96 549.21 0 607.81 0 672.5 0 725 39.35 725 87.84c0 87.84-117.19 175.69-234.38 263.53-117.19-87.84-234.38-175.69-234.38-263.53C256.24 39.35 308.74 0 373.43 0c58.59 0 87.89 21.96 117.19 65.88z" style="fill:red;fill-rule:nonzero"/><path d="M425.86 270.28c-3.73.24-4.87-2.07.89-2.66 11.98-.74 23.39-.96 34.19-1.51-17.14-.77-33.91-12.84-34.09-30.33v-.11c1.92-16.45 13.25-25.31 30.75-29.2.79-4.01-1.51-8.4-3.28-11.64-.59-1.09-1.16-.44-1.37-2.05-2.56-17.86-15.58-14.21-19.18-27.19 3.54-1.62 7.6-1.75 12.32.03-7.82-14.95 43.71-23.07 35.1-28.25-1.15-1.76 10.1-8.58 13.17-15.07l-15.77-5.35c-18.42 24.42-48.92 22.66-68.06 8.98C388.2 111 397.3 69.01 435.91 65.67c28.6-1.72 51.99 17.41 47.32 41.92l16.77 5.57c5.78-13.24 2.17-24.71-6.71-38.02-1.2-2.02-.54-5.34.91-5.93 14.44 8.98 21.37 23.43 18.31 46.07.22.76 1.5 1.19 3.5 1.43 1.66-.29 3.04-.36 3.3-.2 1.39.69.96 1.69 2.8 2.6l13.77 4.23c.81-.13 1.25-.4 1.85-.35 1.75.15 2.88.07 3.1.44 1.68 2.97-.1 6.31 2.53 7.24 3.9 1.36 8.21 2.15 14.62 2.01 4.18-7.42 11.22-10.16 21.48-7.63 10.86 4.8 14.03 16.2 8.84 21.99-1.32 1.48-2.77 3.08-3.96 4.89 10.67 3.54 5.18 9.9 7.77 14.84-4.49 9.71-11.2 20.35-16.66 28.81-5.17 8.01-9.14 14.1-12 14.77-3.48.37-6.17-3.71-9.04-2.98-5.89 1.51-10.36 3.48-15.44 1.57 2.02 6.37 7.33 17.8 7.83 22.94.12 1.18-.97 1.52-1.96 2.1l9.17 22.35c.9 2.93 2.39 5.93 1.56 7.89l27.06.47c4.7.69 6 2.02 0 2.61l-156.77 2.97zm46.67-4.65 80.33-1.35-17.3-26.83-5.01-1.23c-4.51-3.92-5.35-2.61-4.67.87l-1.22 3.98c-2.83 2.32-5.85 1.63-8.97-.39-6.09-8.69-11.27-19.43-16.85-26.8-.88-1.16-4.17-.2-5.62-2.97l-7.53-4.38-.23-1.7c-2.78.28-.98 2.35-2.62 4.59 16.44 8.48 22.75 20.42 18.75 33.92-5.01 12.76-15.29 19.55-29.13 22.3l.07-.01zm-15.84-39.83c1.02-.44 3.22-2.36 3.52-3.18.24-.67-.02-4.3-.18-5.09-.05-.24-1.61-.97-2.07.85l-.5 2.38c-.29 1.48-1 3.99-.77 5.04zm83.66-44.13c1.51-.33.92-.76 1.87-1.34 1.24-.76 1.73-.26 2.59-1.62 1.43-2.27.54-2.64 3.57-7.17.56-.84.48-.99 1.18-1.86.26-.33.13-.17.36-.43.62-.7.39-.44.81-1.42-4.01-.57-3.9.71-7.13-4.41-2.88-4.57-3.65-11.04-5.07-14.97-.36-1.01-1.28-3.44-2.1-3.87-1.67-.87-.67-.11-3.54-1.91-.76 1.73.33 1.48.2 3.1l-2.91 9.06c-.18.5-.22.87-.4 1.42l-1.16 2.47c-.44.86-.8 1.53-1.25 2.43-2.61 5.1-.47 2.41-1.47 4.74-.34.79-.16-.3-.29.67-.22 1.49 2.01 1.63 4.07 4.08 1.14 1.34 2.13 4.08 3.5 5.32.78.7 1.54 1.24 2.21 2.04.67.81 1.96 4.35 4.96 3.68zm-72.39-75.27c.66-1.51 1.19-2.22-1.06-2.93-1.7-.54-2.64-1.17-4.2-1.68l-4.05-1.55c-1.59-.68-2.79-.94-4.45-1.33.36 1.7-.59 3.18.39 3.82l6.51 1.91c1.01.23 1.25.33 2.26.62 1.23.34 3.44 1.15 4.59 1.14zm-33.76 16.43c2.84.44 3.1.3 5.62.41 4.97.21 9.99-1.18 14.44-2.91 1.29-.5 4.35-2.21 5.2-2.82 2.11-1.51 3.64-2.98 5.5-4.68-.7-.99-3.04-1.37-4.41-1.73l-4.75-1.25c-6.68-1.94-3.45-1.24-11.5.55-3.16.7-6.97-.49-9.06-1.44l-6.39-5.43-.68-2.1c-.97-3.04.81-8.63 6.28-10.93 2.99-1.25 5.19-2.16 8.83-1.6 1.11.17 4.4.99 4.91 1.37l5.17 6.08 16.48 6.13-.04-8.02c-.61-3.81-3.49-8.07-6.52-10.98-1.2-1.15-2.28-1.95-3.62-2.8l-4.23-2.29c-38.96-17.89-66.15 37.56-21.23 44.45zm53.55-10.78c-.44-1.01-.41-.73-1.46-1.04-.8-.24-1.01-.42-1.7-.72-.77-.33-1-.31-1.77-.61-1.92-.74-2.79-.19-1.48.62l2.34.89c1.25.38 2.52.9 4.07.85zm-7.2 31.7c.51.72.67.87 1.66 1.1.09.02.35.06.44.08l1.82.21 1.17-1.26-.67-1.1c-4.66.55-2.17.43-4.42.98zm-8.08 4.3c.49 1.54 1.24 1.84 3.05 3.6l2.05-2.47-2.31-3.25c-1.2.36-3.11 1.11-2.79 2.12zm51.83-14.5c.79 2.45.15 1.53 3.12 3.83l1.9-1.93c-.39-1.22-.26-.73-.71-1.38-1.44-2.08-.37-1.59-3.07-2.55-1.08.47-1.6.92-1.24 2.03zm28.89 23.2c2.85-.64 4.87-1.86 7.13-3.34-.33-1.01-.26-1.12-.85-1.86-.33-.41-.09.04-.64-.82-2.06-3.28-1.16-1.79-2.53-4.96-.54-1.24-1.77-1.91-2.76-2.64l-4.56-.51c-.76-1.73-1.65-.98-4.01-4.63-1.81-2.79-.05-2.13-5.18-3.37 1.48 4.64 1.43 6.18 3.9 9.83l2.4 4.14c.49.71.65.77 1.03 1.29 1.08 1.5.19 1.2 2.41 4.11.86 1.13 2.02 3.12 3.66 2.76zm-66.1 73.36c-.44-1.38-2.9-5.02-4-6.33-.25-.29-.9-.92-1.29-1.28-.42-.41-.88-.84-1.32-1.23-1.48-1.31-1.22-1.06-3.33-1.51-.57 1.3.36 2.06.15 6.07-.09 1.66.45 2.45.37 4.16-.07 1.33.25 3.68.17 6.28-.06 1.76.05 2.23-.38 3.83-1.31 4.84-4.67 7.47-10.55 8.78-3.62.8-8.54.15-11.26-1.81-5.18-3.74-4.17-5.26-5.01-5.96-2.3-1.96-2.51-.28-2.14-4.24.36-3.79-.72-3.46 1.13-5.28 2.87-2.82 2.37-2.69 3.94-7 .61-1.66 1.6-4.45 1.06-6.11-.66-2.06-8.78 4.19-10.36 5.66-1.12 1.04-2.25 3.13-2.95 4.45-1.13 2.13-1.91 8.39-.51 11.09 1.82 3.5 5.73 8.83 10.11 10.8 1.93.86 4.2 2.04 6.3 2.51.07.02.15.03.22.04l3.68.69c5.83.79 6.72.92 11.61-.97 1.3-.51 2.28-.85 3.26-1.31 5.87-2.76 9.78-7.17 11.01-12.36.11-.48.18-.84.28-1.28.44-1.81.44-5.64-.22-7.69zm-12.38.73-.96-12.83-3.62-1.46c-1.22 1.11-.78 2.47-.89 3.99l-.42 4.4c-.57 2.86.57 2.99 1.92 3.57 2.73 1.18 2.4 1.89 3.98 2.32z" style="fill:#fefefe"/><path d="M220.13 405.01c1.21-.39-.01.64 1.01-.53 1.8-2.06.62.12.41-1.18l49.5-95.46-50.92 97.17z" style="fill:#3e3a3d"/><path d="M421.41 565.74c-16.2-.65-20.07 4.65-20.2-4.89-.12-8.68-1.3-11.54 2.73-17.15l-.59-.28 140.12-3.31c18.35-.02 10.03-6.9 17.6-6.53 15.28-17.82 15.54-20.93 2.08-45.93-2.59-4.8-10.05-14.12-11.31-14.92-16.96-10.61-151.98 4.49-158.89-.95-1.04-1.8-2.96-35.74-2.48-39.43 7.71-4.79 155.9-4.15 183.19-4.33 12.42-.08 41.06-2.69 46.4 5.39l19.08.56c5.39-.26 9.29-2.1 12.21-2.01 1.24-1.91-.16-1.66 6.21-2.96 1.49-3.01.16.31 2.36-2.96 7.46-11.1 4.16-39.02-1.26-48.86-2-3.62-8.25-9.25-12.79-10.43-5.92-1.99-8.3-10.1-21.78-8.15-9.23 1.33-118.77 5.4-120.31 6.29-10.46-2.48-79.29 2.9-90.78 1.04l.44 1.19c-1.77-.26-1.96-.46-3.71.59-3.87-1.06-29.72.48-36.64.62-16.02.36-6.51-10.88-22.06-14.08-14.8-3.04-22.23 12.02-33.27 18.98l-8.4.41c-4.26-4.97-15.3-24.47-35.34-26.45-11.15-1.1-10 6.18-16.61 6.83-.31.74-15.25 21.21-12.44 22.81-.13.07-67.6 149.34-67.84 154.28-4.15-1.77-3.56-6.74-5.73-7.4l-10.12-22.13c-11.01-14.64-32.23-70.35-43.62-79.84-1.59-2.34-19.95-36.93-26.75-37.51.44-4.53-17.13-17.14-21.13-18.41-.17-4.93 3.58-15.86 5.97-20.54.39-.01 16.39-5.81 21.61-6.9 22.69-4.75 101.68-15.08 118.16-12.61 4.68-3.07 56.36 1.53 63.16-7.59 1.82.29 1.25.98 1.32-.24 11.11-2.15 11.18-8.73 20.13-10.27.07-.9 4.86-8.36 7.87-10.92-.59-3.74 8.17-13.08-.55-32.17-6.36-13.91-26.8-14.18-30.96-12.67-6.04 2.2-11.44 7.88-27.74 9.04l-65.09 11.22c-26.64 3.67-53.81 4.62-79.46 5.15-13.29-17.87-10.37-167.58-9.37-192.14.23-5.61.78-17.14-6.63-19.54l-.66-2.29c-15.3-6.07 4.09-1.99-30.79-11.49-16.07-4.38-35.01-4.36-45.13 7.81-5.19 6.25-3.58 6.71-2.65 14.88L21.24 175.3c3.04 24.93 9.7 108.58-3.23 126.68-7.93 11.86-10.5 9.65-17.22 13-6.16 47.06 24.79 43.8 33.88 54.06l3.03-.15c3.76 3.36-20.8 16.01-.55 4.5l-13.1 8.72c-2.21 6.13-15.82 15.79-20.8 25.95 7.44 4.82 15.49 15.17 19.65 16.11-.22-2.77 42.41 61.85 47.97 65.68 12.93 6.03 48.37 100.24 49.23 100.57-.13 2.96 12.64 24.61 18.13 27.33.5 3.59 13.99 18.96 21.1 20.68 24.92 6.03 69.01-2.27 85.75-18.92 1.76-1.75 1.98-3.41 3.69-3.86 2.04-8.48 6.11-8.71 6.23-22.1.19-21.77 2.65-48.38 10.17-69.73 2.65-7.13 27.61-74.7 32.81-77.41.77-3.64 24.37-3.38 26.43-3.2l3.56 101.14c.01 8.66 1.41 23.11-5.01 30.32-19.13 1.48-28.11 16.52-29.28 27.43-1.73.03-1.62 1.88-.94 3.91-2.7 1.92-9.04 30.49.58 37.49 15.05 10.94 60.05 6.11 76.42 5.26 46.09-2.38 105.4-6.77 152.72-6.23 11.14.13 20.81-1.28 24.62 6.16 15.14.57 32.53 16.97 52.43-19.63 9.49-17.46 8.84-41.23-6.45-57.02-7.65-7.88-11.55-6.72-12.51-10l-34.42-.91c-12.18.79-32.46-1.34-42.28 1.97-16.8-3.95-62.6 6.03-82.46 2.57z" style="fill:#050102"/></svg>