<svg xmlns="http://www.w3.org/2000/svg" xml:space="preserve" width="96" height="72" style="shape-rendering:geometricPrecision;text-rendering:geometricPrecision;image-rendering:optimizeQuality;fill-rule:evenodd;clip-rule:evenodd" viewBox="0 0 47.61 35.71"><defs><style>.fil0{fill:#000}.fil2{fill:red}.fil1{fill:#fff}</style></defs><g id="Camada_x0020_1"><g id="_2483693335824"><path class="fil0" d="M36.5 11.39c.01-.21.02-.07.06-.19.07-.21.02-.48.02-.7 0-.29.08-.15.08-.41.03-.79-.01-1.6 0-2.39 0-.27-.05-.23-.08-.41-.03-.2.04-.49-.04-.68-.1-.23.03-.29-.13-.61-.06-.11-.02-.25-.07-.38l-.04-.24c-.02-.21-.01-.07-.07-.18-.08-.12-.13-.66-.26-.87 0 0-.03-.03-.04-.07l-.19-.55c-.04-.13-.02-.05-.09-.16-.02-.03-.04-.07-.05-.09a.106.106 0 0 1-.02-.05c0-.01-.01-.02-.01-.02l-.98-1.44c-.13-.2-.38-.31-.59-.45l-.39-.24c-.31-.22-.78-.32-1.18-.42l-.21-.06c-.07-.01-.2 0-.28 0-.37 0-.23-.1-.39-.1h-.83c-.15 0-.04.05-.17.09-.08.02-.18.01-.26.01-.16 0-.13 0-.24.03l-.6.13c-.08.03-.28.14-.35.14-.19 0-.19-.12-.33-.2L27.19.23c-.01 0-.02-.01-.03-.01l-.79-.17c-.25-.09-1.43-.04-1.84-.03-.28.01-.12.01-.24.07-.03.02-.01.01-.08.03l-.25.06c-.01 0-.02.01-.03.01l-.34.08c-.01 0-.02 0-.03.01l-1.01.5c-.11.08-.19.08-.31.18-.18.15-.67.55-.76.78-.2-.01-.19-.07-.48-.07-.32 0-.2-.04-.41-.09-.17-.04-.36 0-.54-.02-.2-.02-.06-.02-.21-.06-.24-.05-.53-.01-.78-.01-.19 0-.27.05-.44.07-.45.05-.1-.01-.42.09-.11.03-.13.01-.24.03-.18.03-.48.17-.63.27l-.31.18c-.05.03-.03.02-.06.05-.1.08-.21.11-.33.19-.03.02-.09.08-.11.11-.06.1-.01.06-.09.16-.13.17-.34.27-.52.58 0 .01-.01.02-.01.02l-.09.13c-.06.1-.08.08-.08.24h-1.31c-.14 0-.03.02-.14.05-.17.04-.28.02-.51.08l-.15.04c-.09.04.02 0-.08.04l-.35.1c-.07.03-.18.07-.26.12-.09.04-.04.03-.11.07l-.36.21c-.13.06-.2.1-.31.21-.03.03-.01.01-.05.06l-.04.04c-.18.16-.45.3-.56.51l-.32.41c-.07.09-.02.03-.07.11 0 .01-.01.02-.01.02 0 .01-.01.02-.01.02 0 .01-.01.01-.01.02l-.4.88c-.01.03-.02.05-.03.08l-.22.7c-.03.09-.03.32-.07.42-.2.4 0 .14-.15.55-.04.12-.01.2-.02.32-.03.28-.05-.01-.08.27-.01.09.01.22 0 .31-.02.22-.04.08-.1.25-.03.1-.02.22-.02.33 0 .52-.08.52-.08.58v4.26c0 .05.08.09.08.51 0 .35.1.24.12.44.01.09-.01.17.01.26.03.11 0-.02.04.1.03.08.01.04.02.12.01.08 0 .04.02.12 0 .01.02.04.02.05l.34.73c0 .01.04.1.04.1 0 .01.01.02.01.02 0 .01.01.02.01.03 0 .01.02.04.02.05.05.11.14.14.21.23l.21.23 1.01.53c.01 0 .02.01.03.01l.16.04c.01 0 .02.01.03.01.01 0 .02.01.03.01l.37.09c.36.09.52 0 .78.08.15.04.35.05.49.01.22-.06.55 0 .76-.07l.06-.02c.01 0 .02-.01.03-.01.01 0 .04-.02.05-.02l.05-.03c.01 0 .02-.01.02-.01l.15-.08c.01 0 .02-.01.03-.01.13-.05.09-.04.28-.04.03.06.01.03.04.07.06.07.13.08.21.13l.29.16c.18.09.29.1.46.15.19.07.23.12.43.14.07.01.03 0 .1.01.28.06.15.02.41.05.28.03.02.1.24.1h1.03c.13 0 .1-.1.36-.1 0 .35-.12.25-.12.38 0 .1.06.07.1.16 0 .01.05.59.16.79l.11.18c.07.11 0 .05.1.15.05.05.24.23.06.25-.11.01-.04-.04-.18-.07-.11-.03-.38-.01-.51-.01-.33 0-.17-.07-.47-.07-.3-.01-.37-.07-.44-.07-.69 0-.41.03-.64.06-.22.03-.42.04-.63.14l-.67.31c-.1-.06-.14-.13-.23-.17-.22-.12-.47-.27-.72-.35l-.04-.01c-.15-.05-.27-.13-.43-.15l-.25-.06c-.06-.01-.05-.01-.11-.01-.2-.02-.34-.1-.48-.1-1.32 0-.73.06-1.08.09l-.81.22-.02.01-.34.14c-.01 0-.02.01-.03.01l-.53.4c-.41.35-.48.45-.62.63 0 .01-.01.02-.01.02l-.13.23c-.01.03-.01.04-.02.08 0 .01-.01.02-.01.03 0 .01-.01.02-.01.02l-.04.07c-.07.13-.06.2-.08.34-.03.19-.12.12-.12.38h-.04c0-.09.01-.18-.02-.26l-.06-.22c-.04-.26 0-.02-.08-.2l-.2-.75c-.02-.08-.01-.04-.04-.1l-.17-.64c-.03-.11 0 .02-.04-.1-.05-.17-.01-.17-.09-.3-.03-.06-.03-.02-.04-.1-.01-.05 0-.08-.01-.13-.04-.25-.03.04-.07-.21l-.09-.44c-.02-.08 0-.04-.03-.11-.1-.24-.06-.3-.14-.52-.17-.46-.13-.19-.59-.31l-.49-.09c-.13-.03-.16-.01-.29-.02-.16-.02-.13-.05-.22-.08-.12-.04-.17-.01-.29-.02-.28-.03.02-.02-.21-.06-.15-.03-.28 0-.41-.06-.11-.06-.24-.04-.37-.05-.21-.03-.05-.06-.2-.06-.52 0-.27-.05-.44.17-.01.01-.04.03-.06.05-.01.01-.03.03-.04.03-.07.07-.01 0-.06.09-.06.09 0 .02-.08.1l-.02.02-.49.6c-.23.32-.14.15-.29.33l-.28.38c-.06.07-.1.08-.17.16-.06.07.02-.04-.03.04l-.03.05c-.13.22-.47.46-.6.68 0 .01-.01.02-.01.02 0 .01-.01.02-.01.02l-.34.39c-.1.1-.15.22-.27.32-.23.18-.18.24-.35.38-.14.12-.18.2-.3.32l-.25.29c0 .01-.01.01-.02.02l-.04.04c-.22.2-.15.21-.29.33-.5.44-.3.52-.78.52-.05-.15-.24-.15-.24 0v12.04c0 .08.07.14.16.14h5.71v-2.66c0-.24.49-.01.56 0 .24.04.55 0 .79 0 .28.01.18.07.31.07h1.11c.01.25.06.08.18.29l.21.26c.07.06.24.29.47.48l.94.72c.1.05.04 0 .16.07l1 .47c.07.03.08.03.17.06.04.01.05.01.09.02l.31.08c.07.02-.02-.01.08.04.23.1.73.18.95.18.41 0 .14.1.36.1h1.9c.12 0 .08-.05.18-.08.17-.05.37.01.55-.04l.33-.06c.13-.02-.03.01.09-.03.2-.05.28-.11.4-.13.1-.01.1.01.21-.02 0 0 .18-.08.19-.08.13-.05.11-.02.22-.05l.05-.02c.01 0 .02-.01.02-.01.01 0 .02-.01.02-.01l.13-.06c.01 0 .02-.01.03-.01l.26-.12c.19-.1.39-.13.56-.23v.75c.06.02.1.03.17.06.16.06.34.04.58.04h4.21c1.07 0 .95.2.95-.61.04.03.09.07.12.1s.3.46.56.51c.23.04 2.24 0 2.73 0 .12 0 .27.01.38-.01l.06-.02c.29-.09 5.93-.03 6.82-.03.9 0 .98.11.99-.2.01-.14.08-.19.08-.27v-4.78c.15 0 .07.01.16-.03l.08 5.28h10.79c.16 0 .2-.17.2-.31v-4.64c0-.21-.27-.04-.4-.03v-2.15h.28v-5.05c0-.09.01-.07-.07-.08-.13-.01.04-.01-.11.05-.17.07-.43.08-.58.16-.24.11-.17.08-.42.12l-.15.04c-.07.02-.09.02-.15.04l-.48.16c-.01 0-.02.01-.03.01-.12.04.07.02-.15.04.02-.2.22-.23.32-.37l.59-1.03c0-.01.01-.02.01-.02.07-.14.11-.07.11-.25 0-.16-.23-.17-.4-.17 0-.54-.03-.29-.08-.55-.03-.19-.09-.22-.1-.39-.01-.16.02-.03-.07-.15-.16-.21-.04-.25-.24-.44-.05-.05-.03-.02-.07-.08a.106.106 0 0 1-.02-.05l-.06-.12c-.06-.11-.12-.13-.21-.23-.02-.02-.03-.04-.05-.06-.15-.21-.11-.15-.31-.25-.12-.06-.18-.18-.31-.25-.14-.07-.26-.06-.28-.24.21-.05.32-.25.42-.39l.36-.41c.08-.07.16-.11.21-.19l.05-.09c0-.01.01-.02.01-.02l.28-.34c.08-.11.12-.06.16-.2-.34-.14-1.99.04-2.45-.04-.19-.03-.01-.01-.11-.04-.35-.1-1.11-.02-1.52-.02-.19 0-.55-.02-.72 0-.18.02-.12.03-.17.16l-.2.71c-.08.15-.1.31-.14.46-.02.05 0 .02-.03.08l-.16.44c0 .01-.01.02-.01.03-.11.38-.33.36-.53.64-.16.23-.22.25-.35.45l-.17.3c-.09.19-.19.2-.19.42-.16-.07-.5-.4-.65-.54l-.12-.1c-.15-.12.1.09-.04-.03-.12-.11-.46-.28-.62-.29v-.1c.18-.06 0 .03.1-.12l.68-1.23c0-.01.01-.02.01-.03l.05-.23c.04-.16.07-.25.07-.45 0-.46.02-.95 0-1.4-.02-.3-.06-.04-.08-.3-.01-.06 0-.1-.01-.16-.03-.16 0 .01-.05-.13-.04-.12 0-.19-.04-.3-.05-.13-.08-.04-.1-.26l-.42-1.38c-.06-.12-.04-.17-.09-.3l-.03-.07c0-.01-.01-.02-.01-.03l-.06-.15c-.04-.14 0-.16-.06-.29-.1-.2-.14-.38-.21-.6l-.14-.32c-.01-.03-.01-.05-.02-.08l-.1-.36c-.02-.04-.03-.04-.06-.12a.856.856 0 0 0-.3-.36l-.16-.1z"/><path class="fil1" d="M21.58 3.68c-.06-.22-.04-.45.02-.67.06-.22.08-.15-.06-.32l-1.22-.11c-.1-.01-.11-.03-.22-.05-.22-.04-.55-.02-.76-.03-.43-.03-.93.05-1.3.24-.4.2-.74.47-1.02.8-.03.03-.01.01-.05.06l-.06.09c-.05.08-.05.08-.1.15-.22.3-.54 1.16-.66 1.27l-.04.03c-.14-.09-.23-.3-.36-.41-.36-.28-.85-.2-1.29-.13-.42.07-.73.19-1.08.37-.09.04-.14.06-.23.11-.68.44-1.12 1.08-1.4 1.77-.03.07-.06.17-.09.23l-.22.8c-.03.1-.02.17-.04.27l-.17.88c-.03.21-.08.38-.09.57-.01.5-.16 1.25-.16 1.84 0 .88-.07 2.21.06 3.05.02.11.01.21.03.32.02.13.07.13.07.31.01.52.15 1 .41 1.42l.12.17c.72.83 2.75.88 3 .43.04-.07.08-.16.11-.25.04-.15.08-2.3.08-2.66 0-.47.08-.85.08-1.3-.01-.89-.03-1.84 0-2.73l.06-.63c.08-.47.13-.96.37-1.39.07-.12.05-.15.21-.16.12.21-.09.69-.12.96-.01.13.01.27-.01.4-.14 1.1-.08 4.69-.07 6.08 0 .55-.16.89.07 1.34.07.13.25.34.38.43.09.06.15.1.24.17.11.07.17.1.29.16.76.34 1.55.45 2.39.3l.45-.12c.35-.13.55-.42.69-.7.09-.18.12-.45.16-.65.19-1.15.05-3.78.05-5.11 0-.57-.07-2.17.07-2.6.05-.16.03-.15.05-.33.02-.22.11-.45.17-.67.05-.17 0-.2.22-.2.06.18 0 2.2 0 2.64 0 .25.04.38.04.65v3.96c0 .66-.22 1.74.02 2.33.08.19.22.26.41.37 1.06.58 2.52.57 3.62.07.45-.2.84-.46 1.1-.83.14-.2.2-.41.27-.65l.15-.76c.05-.27-.01-.59.03-.86.03-.23.08-.56.07-.82 0-.59.07-1.15.12-1.67.03-.28-.02-.63.03-.86l.28-2.86c.1-.31.07-.61.22-.9.06-.12-.02-.1.14-.1 0 .47 0 .99-.07 1.39-.1.65.08 1.49-.03 2.15-.16.94.04 1.94-.11 2.88l-.15 2.13c-.02.43-.04.76.31 1.13.12.13.28.29.44.37l.69.26c.01 0 .02.01.03.01l.54.11c.71.1 1.61.1 2.34-.01.1-.02.2-.04.31-.07l.31-.11c.48-.22.8-.58 1.02-1 .27-.51.49-1.13.61-1.69l.2-.95c.04-.2.03-.45.06-.66.19-1.18.06-2.3.07-3.39 0-.23-.04-.31-.04-.55 0-.27-.11-.46-.04-.72.23.14.37 1.2.4 1.43.02.11.05.14.07.25.01.1 0 .19.01.29.03.19.06.25.07.52 0 .16.03.15.04.27l.08 1.43c0 .31-.04.49-.04.79l-.07.79c-.04.27-.04.49-.12.75-.19.67-.33 1.28-.72 1.9-.48.77-1.31 1.29-2.3 1.4-.12.01-.25.05-.41.06-.18.01-.32-.01-.5.01-.71.09-1.9-.11-2.59-.3-.19-.05-.18-.03-.35-.1-.14-.06-.24-.08-.38-.12-.22-.07-.58-.28-.75-.28-.07 0-.46.26-.56.31-.83.43-1.93.54-2.93.44-.13-.01-.41-.03-.53-.05-.16-.03-.31-.08-.46-.12-.58-.14-.83-.19-1.27.31-.09.1-.15.18-.22.32-.38.73.14 1.08.23 1.35h.16c0-.27.06-.33.1-.56.02-.13.02-.16.06-.26.09-.26.11-.47.33-.71.3-.32.64-.27 1.05-.14.17.06.26.08.44.13l.87.28c.79.26 1.08.38 1.08 1.25 0 .27-.04.39-.04.65h.56l-.04-.75c-.02-.34-.08-.34.08-.55h1.03c.45 0 2.87-.16 2.98-.07.04.04.07.69.09.81.09.53-.1.44.54.39.34-.02.67-.01.96-.07.8-.16 1.25-.23 2.08.01.3.09.49.21.73.33.32-.24.62-.47 1.03-.61.22-.08.4-.15.64-.2 1-.2.97.05 1.37-.32.34-.32.84-1.12.84-1.56v-1.3c0-.32-.2-.91-.27-1.24l-.47-1.44c-.04-.12-.06-.2-.09-.29l-.14-.42c-.03-.08-.03-.07-.06-.15-.07-.2-.12-.41-.19-.59-.09-.24-.09-.44-.25-.54-.02.16-.15.36-.19.52-.02.08-.01.12-.04.21-.08.29-.14.49-.17.8l-.32 1.61h-.12c0-.49.01-1.01.1-1.48.03-.17 0-.35.02-.53.01-.15.07-.32.08-.48l.12-.99c0-.09-.01-.19 0-.27.01-.1.04-.15.06-.25.04-.16.01-.34.04-.51.03-.19.05-.3.06-.5.01-.18.04-.29.04-.51 0-.69.05-.81 0-1.57-.03-.41 0-.69-.06-1.07-.04-.23-.05-.49-.12-.72-.03-.1-.01-.15-.02-.25-.01-.09-.04-.14-.06-.22l-.15-.69c-.02-.08-.04-.1-.07-.21-.02-.07-.04-.13-.07-.21-.24-.77-.81-2-1.55-2.52l-.83-.44-.68-.17c-.39-.08-.86-.04-1.26-.04-.21 0-.96.23-1.2.33a4 4 0 0 0-.8.47l-.52.51c-.01.01-.03.03-.04.03-.06.04-.02.03-.1.05-.05-.09-.03-.22.01-.34l.19-.49c.18-.38.18-.41-.21-.63-.39-.22-1.41-.59-1.85-.59h-1.51c-.11 0-.12.05-.27.07l-.56.17c-.12.04-.15.06-.26.12-.39.19-.45.26-.75.52-.28.24-.52.54-.67.86l-.33.7c-.04.11-.04.16-.17.19z"/><path class="fil2" d="M26.15 30.35c0 .53-.5.63-.73.74-.21.1-.81.03-1.13.05-.54.04-.07.05-.68 0-.48-.03-.45-.19-.43-.58.01-.19-.04-.51.02-.67.14-.37.76-.26 1.41-.26.24 0 .46.04.63.03.15-.01.18-.07.29-.01.11.06.05.09-.01.14.35 0 .29.02.44.2l.02.02.02.02c.07.07.15.15.15.31zm19.92-4.09c0-.18-.04-.28-.04-.41.02-.71.29-.9-.68-.62l-1.83.47c-.2.04-.1.03-.23.07-.18.06-.34.04-.54.12-.23.09-.3.06-.56.1-.03 0-.21.06-.27.08-.12.05-.08.05-.23.08-.56.1-1.08.23-1.65.32-.19.03-.32.1-.53.13l-1.65.32c-.21.05-1.39.17-1.73.25-.09.02-.15.05-.28.06-.32.04-.53.03-.85.12-.32.09-.8.08-1.18.14-.08.01-.19.05-.29.05-.11.01-.2 0-.3.01-.08.01-.2.05-.29.06-.11.01-.19 0-.3.02-.42.05-.74.13-1.21.12-.24 0-.77.01-.97.05-.1.02-.14.05-.24.07-.41.08-1-.11-1.05.25-.04.3.03.75-.24.95-.21-.04-.41-.21-.58-.32-.13-.09-.09-.01-.1-.19-.22 0-.26-.03-.44-.03-.02-.19-.32-.19-.71-.28-.49-.11-.43-.04-.85-.09-.37-.04-.51-.08-.95-.07-.86 0-4.85-.07-4.99-.03l-.13.1c0 .41.05 1.24-.01 1.63-.04.23.01.62.01.9 0 .5-.05.42 0 .96.02.25-.04.57-.01.8l.06.77c.02.35-.06.78.08 1.02.44.09 1.99.03 2.54.03.61 0 .16-1.26.37-1.63.11-.19.2-.22.41-.2l.49.09c.21.08.21.03.31.21.06.11.07.09.16.17l.27.28c.22.31.41.26.41.53h.24c.04.15.13.24.24.34.11.09.23.21.39.21h2.74c.14 0 .19-.12.2-.24-.26-.01-.2-.06-.28-.2-.05-.1-.15-.11-.24-.21-.09-.1-.18-.15-.25-.23-.14-.15.02-.09-.2-.23-.16-.1-.22-.23-.36-.34l-.3-.32c-.12-.2-.27-.32.03-.5l.09-.06c.22-.16.52-.24.76-.41.45-.32.03-.24.52-.44-.05-.08-.07-.09-.08-.2.15-.04.09-.01.16-.11.01-.01.02-.04.03-.04l.07-.11c.14-.3-.07-.77.16-.99.08-.08.06-.07.19-.11.59-.18 1.39-.05 2-.12.83-.1.55.42.61 1 .05.55.03 2.42-.04 3.08-.01.09.03.35.03.51.01.18.07.27.28.27h2.3c.4 0 .26-.32.29-.53l.06-.77c.05-.79 0-2.4 0-3.28 0-.77.29-.57.85-.71.15-.04-.02-.04.19-.04.23 0 .17.06.39 0 .26-.07.63-.05.9-.11.14-.03.05-.06.13-.06.22 0 .02.05.22.02.18-.03.29-.13.47.1.12.15.12.69.1.87-.06.6-.04 1.3-.04 1.91 0 .61-.11 2.12 0 2.52.41.08.82.05 1.24.01.86-.08 1.86.03 2.73.03h1.39c.16 0 .18-.02.28-.03.16 0 .07.02.24.03.16.01.33-.03.55-.03l1.36.01c.12-.03.1-.05.19-.11 0-.13-.05-.16-.04-.3.05-.52.01-1.07 0-1.58 0-.19-.04-.2-.12-.3l-1.2.06c-.34.04-.36.01-.54.02-.13.01-.16.06-.56.06-.49 0-.74.05-1.15.1-.36.04-.74.07-1.15.07-.12 0-.25-.11-.3-.18-.13-.17-.05-.17-.05-.33 0-.39-.11-.55.43-.62.25-.03.07-.05.25-.09l.67-.07c.26-.03.42-.04.7-.04.49 0 .84-.12 1.31-.17.5-.05.94-.01 1.3-.18l.04-.78c0-.24-.04-.35-.04-.55 0-.13.03-.2.03-.27 0-.08-.03-.1-.03-.24-.24 0-.36.03-.6.03-.25.01-.32.06-.55.07-.24.02-.22.08-.52.1-.22.01-.31.07-.49.09-.34.04-.77.07-1.07.14-.23.05-1.06.21-1.27.07l-.19-.28c-.02-.16.03-.48.09-.6l.03-.04c.05-.06.14-.09.23-.11.14-.03.31-.02.45-.06.23-.06.58-.07.83-.14.66-.16 1.49-.25 2.16-.39.24-.05.86-.11 1.06-.25.09-.06.23-.11.23-.21v-.89zM12.34 30.76c0-.17.01-.25.05-.4l.21-.47c.06-.1.01-.02.12-.1.16-.12.08-.17.19-.24.02-.01.14-.05.19-.07.14-.07.07-.08.2-.13l.09-.03c.01 0 .08-.02.09-.02.11-.03-.01-.01.09-.02.07-.01.38-.04.43-.04h.4c.67 0 .69.11 1.09.26.37.14.3.14.47.28.1.08.1.04.18.09.08.05.03.01.08.07l.11.14c.05.05.01 0 .06.05.04.04.07.09.1.15.24.44.25.61.25 1.05 0 .14.01-.01-.06.12l-.1.25c-.04.11.01.02-.06.12-.13.17-.17.12-.27.28-.11.17-.09.09-.4.31-.2.14-.18.04-.42.15-.29.13-.29.06-.42.06l-.73.02c-.16 0-.65-.17-.74-.22l-.15-.08c-.34-.11-.1-.06-.31-.15-.35-.14-.08-.04-.35-.34-.2-.22-.2-.39-.29-.57-.13-.24-.11-.2-.11-.49zm6.86 1.88c0-.24 0-.1.09-.26.36-.6.4-.57.37-1.26-.02-.42.01-.62-.23-1-.05-.08-.11-.13-.15-.21-.04-.08-.04-.17-.08-.23-.07-.11-.1-.06-.2-.17-.1-.11-.04-.14-.22-.29l-.26-.22c-.08-.07-.11-.1-.21-.16-.21-.14-.13-.16-.27-.25-.01 0-.11-.05-.13-.06-.1-.05-.15-.08-.22-.11-.09-.04-.17-.06-.27-.11l-1.26-.49c-.49-.23-.88-.21-1.44-.34l-1.02-.08-1.4.07c-.11.02-.17.06-.27.07-.34.06-.08-.06-.42.11-.25.12-.19.13-.35.18-.32.08-.27.03-.51.21l-.21.16c-.23.19-.11 0-.36.3-.1.11-.07.03-.17.16-.06.07-.1.15-.15.22-.06.09-.1.09-.17.16l-.35 1c-.01.1 0 .2-.01.3-.02.18-.03.04.02.23.05.18.02.43.05.6.04.16.18.53.3.67.13.15.08.05.12.23.05.19.1.22.15.35.03.06.02-.01.03.11.27.02.04.11.29.3.01 0 .02.01.02.01.21.16.23.25.31.31l.24.17c.01 0 .02.01.02.01.42.23.08.06.32.24l1.05.46c.4.08.3.15.9.25.14.02.18.04.33.06l1.43.06c.21 0 1.13-.13 1.35-.21.2-.07.37-.12.6-.16l.44-.14c.43-.18.33-.14.61-.33.17-.12.31-.09.49-.26.18-.19.23-.18.4-.34.13-.12.05-.09.14-.22.06-.08.09-.11.22-.11zM4.64 29.5c-.35-.57-.27-.23-.27-.96 0-.19-.1-.4.3-.48.22-.04.15 0 .35.05l1.17.19c.2.01.27.01.44.03.56.07.49.11.73.15l.85.09c.25.01.18.03.39.07.52.09.45 0 .6-.04-.08-.28.03-.33-.02-.63-.08-.45.11-1.09-.17-1.22l-.66-.11c-.56-.09-2.12-.5-2.63-.5-.09-.11-.07-.02-.08-.17-.24 0-.35.02-.54-.05-.25-.08-.17-.07-.49-.09a1.16 1.16 0 0 1-.47-.11l-1.61-.43c-.44-.09-.5-.22-.62-.22-.53 0-.44-.01-.44.65v8.29c.03.16.05.17.27.18h2.19c.32.01.47.1.47-.27 0-.47.03-1.67-.08-2.05-.03-.09-.03-.09.04-.21.12-.21.31-.33.6-.28.25.05.36.02.63.04.16.02.44.05.6.06l.83.04c.27.03-.09.03.36.03.54 0 .9.1 1.39.1.06-.2.16-.04.16-.2l-.03-.47c0-.04.04-.2.04-.29 0-.2.08-.69-.2-.82l-1.75-.18c-.78-.02-1.56-.38-2.34-.23z"/><path class="fil1" d="m30.23 23.39.09-.3c.03-.08.09-.16.17-.22l.6-.21c.74.02 1.07.83.56 1.27-.55.47-1.42.06-1.42-.54zm5.12-.78c0-.87 1.27-.74 1.27-.1 0 .08-.24.09-.32.1-.22.02-.95.18-.95.01zm-1.79 0c-.27-.48-.09-.28-.49-.7-.23-.24-.57-.4-.93-.46-.52-.1-1.09-.02-1.52.24-.29.17-.13.31-.47.24 0-.53-.02-.3-.75-.31-.25 0-.91.03-1.11.07 0 .22.02.39.06.6l.18 3.09c.02.24.04.36.04.61 0 .58-.07.55.28.55.52 0 1.28-.02 1.71-.1l-.11-1.28c-.05-.39.27-.09.37-.04.47.24.75.19 1.25.19.6 0 1.22-.5 1.48-.98.08-.14.1-.37.22-.56.15.09.09.06.17.2.3.53 1.16.93 1.9.93.6 0 .35.03.84-.06l.65-.16c.18-.06.16-.05.3-.12.17-.08.27-.13.42-.25l.04-.04.02-.02c.25-.25.29-.21.36-.44l-.54-.25c-.21-.11-.32-.17-.57-.22-.56.72-1.69.56-1.82.07.22-.13.32-.11.67-.14l1.51-.2c.25-.03.53-.1.75-.11 0-.36-.17-.84-.36-1.12-.57-.81-1.82-1.03-2.92-.72-.51.15-.95.47-1.22.86-.33.49-.08.47-.37.63zM17.42 23.53c0-.98 1.68-1.03 1.65.03-.02.93-1.65.91-1.65-.03zm-4.72-.82c.19-.69 1.13-.67 1.28-.04.03.13.02.14-.05.24l-.99-.1c-.21-.03-.09-.02-.24-.1zm-1.82.34c0 .39 0 .69.28 1.06.37.5.97.85 1.67.95.49.07.96.12 1.47 0 .29-.07 1.04-.32 1.07-.61-.14-.03-.53-.38-.67-.48l-.11-.08c-.06-.04-.08-.06-.14-.09-1.13.84-2.25-.38-1.63-.38.28 0 1.15.13 1.48.16.15.02.28 0 .43.01.14.01.23.03.38.05.46.06.45-.09.54.32.04.2.1.41.21.57.44.7 1.01.9 1.93.9.14 0 .22-.01.34-.05l.28-.1c.09-.04.04-.01.12-.07.2-.14.19-.19.36-.2.13.17.06.07.01.28l-.01 1.25 1.9.07.05-1.22c.11-.81.03-2.09.09-2.45.07-.38.06-.79.06-1.21-.34-.07-1.42-.07-1.83-.07-.02.23 0 .27-.12.34-.22-.05-.15-.17-.58-.35-.69-.29-1.53-.19-2.1.27l-.04.03c-.01 0-.01.01-.02.02-.45.37-.41.64-.59.75-.29-.18-.04-.99-1.62-1.44-.59-.17-1.32-.14-1.86.06-.16.06-.22.1-.36.17-.53.25-1 1-1 1.52zM5.44 22.16c.02-.2.06-.18.16-.3.14-.16.43-.68.63-.72.08.13.1.13.12.31.04.34.29.89.04.89-.23 0-.8-.11-.95-.17zm-3.33 1.19 1.01.19c.17.04.37.08.51.1l.54.08c.08-.1.14-.18.23-.28.28-.33.2-.3.59-.21l1.31.21c.17.03.37.06.5.12.27 1.01.02.55 1.08.81.15.04 1.08.17 1.16.13.07-.03.05-.06.01-.17l-1.22-4.17c-.05-.22-.19-.56-.19-.76l-1.36-.23c-.59-.1-.47-.16-.71.16-.56.73-1.24 1.46-1.82 2.16l-.71.79c-.18.21-.88.95-.92 1.09zM24.16 25.2v.34l1.9-.03c.07-.27-.02-2.1-.04-2.7l-.04-1.06-1.39.01c-.12 0-.36.01-.43.03-.07.25.13 2.04-.11 2.3-.45.49-1.08.12-1.08-.32s-.02-1.2.03-1.61c.08-.57-.21-.37-.59-.37-.13 0-.2-.03-.4-.03-1.11 0-.87-.24-.87 1.23 0 .2-.04.25-.04.44-.01.9-.16 1.67.78 2.06 1.19.49 2.15-.36 2.15-.36.07-.02.13-.03.13.08zM41.74 21.58c0-.11.13-.32.19-.38.35-.33 1.04-.06 1.04.21 0 .17.02.17-.47.25-.57.09-.76.2-.76-.08zm.71 2.35c.37 0 .54-.05.86-.12.55-.12 1.11-.41 1.44-.81.3-.36.14-.35-.05-.42l-.89-.33c-.67.87-1.81.62-1.82.14.65-.13 2.14-.43 2.7-.51.11-.01.14-.01.19-.07.07-.09.04 0-.01-.15l-.1-.26c-.3-.6-.21-.49-.69-.94-.51-.48-1.64-.59-2.52-.3-.39.13-.37.14-.7.35-.4.25-.74.77-.79 1.24-.04.42.02.81.23 1.17.42.73 1.23 1.01 2.16 1.01z"/><path class="fil0" d="M14.99 31.3c-.08.04-.11.07-.23.07-.56 0-.36.02-.55-.11-.17-.12-.17 0-.28-.21l-.02-.05c-.13-.27-.11-.07-.11-.25 0-.12.09-.08.16-.24h.71c.05.1-.01 0 .16.1l.4.31v.27l-.24.1zm-2.66-.54c0 .28-.02.25.11.49.09.18.09.35.29.57.28.3 0 .2.35.34.2.08-.04.04.31.15l.15.08c.09.05.58.22.74.22l.73-.02c.13 0 .13.07.42-.06.24-.11.22-.01.42-.15.3-.21.28-.14.4-.31.11-.16.15-.11.27-.28.07-.1.02-.01.06-.12l.1-.25c.06-.13.06.02.06-.12 0-.43-.01-.61-.25-1.05a.56.56 0 0 0-.1-.15c-.05-.05-.01 0-.06-.05l-.11-.14c-.05-.06.01-.02-.08-.07-.08-.04-.08-.01-.18-.09-.17-.14-.1-.13-.47-.28-.39-.15-.41-.26-1.09-.26H14c-.04 0-.35.03-.43.04-.11.02.01 0-.09.02-.01 0-.08.02-.09.02-.03.01-.06.01-.09.03-.13.05-.06.07-.2.13-.05.02-.17.06-.19.07-.11.08-.04.13-.19.24-.11.08-.06 0-.12.1l-.21.47c-.04.15-.05.23-.05.4z"/><path class="fil1" d="m26.22 21.76.02.94c.07.41.06 1.51.06 1.92 0 1.1.07.91.45.86.22-.03.51-.01.74-.01.31 0 .48-.03.75-.03.09-.37-.08-1.51-.08-1.84 0-.44-.08-1.16-.08-1.43 0-.22-.04-.3-.04-.48l-.91.03c-.15.01-.32-.01-.48 0-.18.01-.22.03-.44.03zM24 19.98c0-.22-.07-.51-.32-.61l-.74-.29c-.35-.11-.66-.23-1.02-.31-.73-.16-.79.2-1 .88-.06.18-.07.28-.11.49-.04.23.01.33.18.43.48.29.56.2 1.19.2.49 0 .86.03 1.35.04.33 0 .4.02.4-.27 0-.24.08-.33.08-.55z"/><path class="fil0" d="M26.15 30.35c0-.16-.08-.24-.15-.31l-.02-.02-.02-.02c-.16-.18-.1-.2-.44-.2.06-.05.12-.08.01-.14-.11-.06-.14-.01-.29.01-.17.01-.39-.03-.63-.03-.65 0-1.27-.11-1.41.26-.06.16-.01.48-.02.67-.02.39-.05.55.43.58.61.04.14.04.68 0 .33-.02.92.05 1.13-.05.23-.11.73-.21.73-.74zM17.42 23.53c0 .94 1.63.96 1.65.03.03-1.06-1.65-1.01-1.65-.03zM30.23 23.39c0 .6.88 1.01 1.42.54.51-.44.18-1.25-.56-1.27l-.6.21a.57.57 0 0 0-.17.22c-.01.03-.09.29-.09.3z"/><path class="fil1" d="M43.48 18.55h-.91c-1.1.01-.69-.29-1.12.91l-.02.05c-.03.07-.03.04-.06.16-.06.28.08.19.3.15.54-.11.74-.06.97-.29.1-.11.83-.84.85-.98zM26.15 20.6l.02.6c.02.11 0 .16.08.2.1.05 1.05-.03 1.18-.04.2-.02.42-.01.62-.01v-.89c-.24-.05-1.07 0-1.51 0-.19 0-.4-.03-.4.14z"/><path class="fil0" d="M5.44 22.16c.16.06.72.17.95.17.25 0 0-.55-.04-.89-.02-.18-.04-.18-.12-.31-.2.05-.49.56-.63.72-.1.12-.14.1-.16.3zM35.35 22.61c0 .18.72.02.95-.01.08-.01.32-.02.32-.1 0-.64-1.27-.77-1.27.1zM12.7 22.71c.15.08.03.07.24.1l.99.1c.07-.11.08-.12.05-.24-.15-.64-1.09-.65-1.28.04zM41.74 21.58c0 .27.19.17.76.08.49-.08.47-.08.47-.25 0-.27-.69-.54-1.04-.21-.06.06-.19.28-.19.38z"/></g></g></svg>