<svg xmlns="http://www.w3.org/2000/svg" xml:space="preserve" width="95.974" height="72.016" style="shape-rendering:geometricPrecision;text-rendering:geometricPrecision;image-rendering:optimizeQuality;fill-rule:evenodd;clip-rule:evenodd" viewBox="0 0 49.69 37.28"><defs><style>.fil0,.fil3{fill:#000}.fil4{fill:#ff0}.fil1{fill:#fff}</style></defs><g id="Camada_x0020_1"><g id="_2484698878464"><path class="fil0" d="M8.43 15.28c-.29 2.41-.11 3.23.21 5.28.04.25.18.37.03.58-.35-.07-.36-.24-1.05-.31-1.09-.12-1.39.86-1.71 1.13-.38.32-1.7-.47-2.46.86-.29.51-.1.67-.48 1.21-.64.91-.38 1.69.41 2.31.19.15.1.33.06.62-.72.16-1.37.64-1.58 1.33l-1.74 4.3c-.28.69-.08 1.51.57 1.94.54.36 1.81.28 2.57.23.27-.02.47-.18.71-.18.23 1.88-.65 2.67 3.05 2.61.82-.01 1.19-.36 1.27-.36 0 0 1.68.9 2.96.13 1.04-.63-.23.25 2.36.18l3.2.02 6.22-.09c.45-.09 1.13.29 1.99-.09.57-.25 1.21.78 3.43-.29.97.58.49.38 1.5.4l3.17.02c.31.01.6-.08.84-.06 2.61.2 1.78-.11 2.53-.2.01 0 1.23.6 2.27.07.71-.36.84.59 2.46.07.75-.24 1.61.44 2.79-.03.7-.28.86-.67 1.07-.78.21-.1.86.25 1.64-.55.85-.88.21-1.09.67-2.1l2.06-4.41c.62-1.38-.1-2.41-1.29-2.56-.65-.08-.68-.49-1.68-.44l-4.92.07c-.04-.3 1.19-1.97 1.63-3.37 1.47-4.77 1.36-7.57-.23-12.06-.71-1.99-2.76-4.69-4.25-6.05C33.74.19 27.04-1.1 20.63.82c-6.4 1.92-11.36 7.6-12.2 14.42z"/><path class="fil1" d="M21.65 20.27c.21.02.81-.14.73.51-.03.26-.48.87-.74 1.08-.35.28-1.16.78-1.56.36-.26-.27.01-.74.17-.99.17-.28.19-.29.48-.5.22-.16.11-.16.34-.14-.03.15-.1.16-.3.35l-.26.23c-.11.12-.24.49-.27.67.31-.04.21-.17.36-.38l.16-.21c.34-.43.85-.55 1.08-.81-.12-.1-.02-.07-.2-.1l.01-.08zm-.03-2.49c.13.01.3.2.32.25.15.3-.19.81-.48 1.07-.38.35-1.12.66-1.67.6-.24-.03-.35-.3-.29-.52.05-.17.2-.5.41-.53-.04.2-.1.21-.14.28-.09.14-.03.07 0 .26.24-.03.2-.17.35-.34.05-.05.13-.13.19-.18.26-.21.65-.37.97-.45.24-.06.19.01.25-.1-.14-.08-.44-.09-.66-.11.07-.18.62-.25.74-.23zm15.85.94c-.59-.02-2.46.21-3.18.36l-1.84.49c-.13.03-.13.01-.25.06l-1.51.47c-.11.04-.15.05-.26.09l-1.99.71c-.16.06-.31.13-.48.19l-2.84 1.21c-.17.08-.28.14-.46.21l-2.28 1.07c-.24.13-.72.39-1 .37.13-.15.18-.18.36-.29.15-.09.27-.16.43-.25l1.09-.58c.37-.15.35-.18.66-.33l5.78-2.48c.12-.04.13-.06.25-.1.1-.04.14-.04.24-.07.1-.04.15-.06.26-.1l4.1-1.14c.7-.14 2.28-.32 3-.08-.04.1-.03.07-.06.19zm-3.97-1.69c1.54.17 1.32 1.23.08 1.34-.45.04-1.09-.01-1.42-.23-.15-.1-.33-.24-.37-.43-.08-.41.96-.76 1.72-.68zm-9.88.46c.01.09.02.09.02.2.38-.05.13-.36.96-.82l.87-.44c.14-.13.08-.15.35-.12.03.23.08.04.03.44-.05.44-.6.93-1 1.13-.61.31-1.44.36-1.37-.2.06-.47-.02-.13.21-.51.12-.21.41-.44.6-.53.11-.05-.04-.06.16 0-.07.08-.11.13-.2.21l-.61.65zm5.95-.85c-.42-.05-1.07-.17-1-.7.01-.11.11-.14.19-.18.04.09.05.1.06.2.13-.02.13-.05.31-.13.13-.06.2-.07.35-.12.11-.04.04-.03.18-.06.09-.02.12-.01.21-.01 1.19-.02 1.19.48 1.26-.1.06.05.07.06.14.11.12.09.14.01.11.23-.01.12-.1.22-.19.31l-.18.14c-.37.26-.93.36-1.43.3zm3.87-.53c.03-.28.01-.37.28-.47.75-.28 1.62-.16 2.26.23.25.15.89.91-.2 1.02-.68.07-1.83.15-2.22-.49-.03-.05-.13-.25-.12-.3zm-4.06-.64.01-.12c.1 0 .12 0 .21-.02.13-.04.06-.06.19-.08.19-.03.55 0 .75.06.2.06.1-.02.18.11l-1.34.05zm-2.27-7.78c.08-.01.07 0 .13-.02.13-.03.26-.17.89-.11.3.03.72.26.7.43-.1.82-1.34 1.12-2.17 1.03-.23-.03-.86-.31-.5-.77.09-.12.12-.15.25-.23l.18-.1c.81-.45-.09.26-.16.35-.02.03-.02.02-.04.07-.05.13.05.06.07.05.01 0 .02-.01.02-.01.23-.1.4-.24.86-.37.77-.21 1 .12 1.13-.22-.13-.01-.31-.05-.37-.06-.05-.01-.22-.01-.33-.02-.21-.01-.12.02-.34.04-.12.01-.2.02-.34 0l.01-.08zm-2.35-.97.29.03c.11.21.17.19.07.48-.18.49-.82.62-1.31.72-1.56.34-1.51-.82-.84-.92-.02.13 0 .14-.06.24-.11.18-.01-.05-.11.14.42-.06.36-.38 1.52-.47.51-.04.42-.05.45-.22zm8.15 5.11c-.03.28-.11.73-.22.95-.12.23-.25.44-.44.63-.09.09-.14.17-.24.25l-.29.19c-.01 0-.02.01-.02.02-.17.1-.5.25-.72.3-1.4.3-1.99-.02-2.68.33-.2.1-.38.25-.59.32-1.01.32-1.09-.22-1.66.21l-.29.19c-.12.07-.22.11-.35.16-.97.33-1.61-.55-1.94-.52-.14.01-.39.17-.53.22-.06.02-.14.04-.21.06-.14.05-.24.07-.39.11-1.04.26-2.38-.12-2.98-.85-.3-.36-.64-.75-.82-1.19-.24-.58-.43-1.33-.41-2.07.02-.71.15-1.54.24-2.3-.32-.25-.82-.25-.98-.54.15-.07.28-.09.47-.07 1.01.11 2.21.79 2.9 1.44l.83.87c.3.38.54.8.8 1.2.27.42.46.87.7 1.32.05.09.09.15.14.25l.29.49c.55.88 1.26 1.38 2.32.62l.45-.4c.38-.36.65-.77.95-1.18.09-.13.02-.11.19-.14.2.16.04.35-.07.54l-.2.34c-.14.26-.27.47-.31.79.17.06.15.05.33 0 .11-.03.24-.05.34-.08.41-.15.74-.42 1.08-.68.42-.32.8-.74 1.15-1.13l1.9-2.24.02-.02.02-.02.82-.95c.08-.08.14-.15.22-.22.11-.1.12-.14.22-.23.3-.3.63-.59 1-.82.16-.1.39-.32.63-.23-.01.21-.18.28-.33.41l-.6.53c-.09.07-.13.09-.22.18-.75.72-.59.71-.53 1.61.04.56.1.74.03 1.36zm-8.15-5.11-.88-.02c.03-.13.05-.14.18-.14.08 0 .2.03.29.03.16.01.24-.05.4.12zm3.87-.21c.03-.27.61-.46.86-.54.09-.03.01-.04.17-.02.81.09.82.01 1 .35-.19-.02-.22-.07-.4-.12-.7-.2-.7-.05-.9 0-.17.04-.17-.03-.21.16.42.05.73-.04.9-.01.29.06.61.3.72.03.73.09.05.95-.82.86l-.45-.05c-.47-.05-.91-.42-.88-.65zm-1.04-1.24c.21-.01.13.04.24-.07-.07-.12.02-.07-.19-.1-.19-.03-.33-.01-.56-.08l-.18-.08c.35-.04.79-.07 1.08.14.01.01.04.03.05.04.13.09.25.15.22.36-.1.79-2.33 1.2-2.77.48-.15-.25-.01-.33.05-.42.13-.21.23-.29.49-.26l-.29.32c.16.1.17.03.36-.06.05-.02.07-.03.11-.04.12-.05.12-.06.26-.1.51-.12.58-.1 1.12-.14zm-6.24.33c-1.42-.15-.13-1.38.26-1.12-.17.17-.28.01-.53.45.23.02.1.03.24-.04.42-.19.6-.24 1.01-.22.37.01.32-.04.35-.11-.16-.12-.78-.12-1.02-.15.08-.08.72-.14.89-.1.48.11-.23.01.35.13.44.09.22.8-.43 1.04-.17.06-.27.11-.46.12-.38.02-.25.05-.67 0zm10.43-.88c-.03.23-.4.32-.59.37-.29.09-.47.06-.79-.01-.18-.04-.22-.08-.38-.14-1.01-.39-.74-1.07-.14-1.15.54-.07 1.08.02 1.55.31.19.12.39.35.36.62zm-6.41-1.65c.78-.31 1.28.05 1.57.09.01-.11-.13-.28.09-.25.34.04.13.43.04.54-.33.43-1.28.59-1.8.53-.47-.05-.88-.34-.85-.53.02-.18.02-.16.25-.3l.05.04c.01.01.04.03.05.04.17.09.22 0 .61-.16zm-.11-.25c.08-.07.54-.28.78-.1-.1.05-.31.04-.46.03-.06.1-.03.14-.32.07zm-6.99 2.41c.25.3 1.97 1.16 2.65 1.9.01.01.01.02.02.02.01.01.01.02.02.02.6.61 1.06 1.3 1.54 2 .07.11.06.14.14.25l1.15 1.62c.01.01.01.02.02.02.01.01.01.02.02.02l.32.4c.07.08.1.09.12.2-.21.08-.42-.18-.56-.32l-1.98-2.59a6.68 6.68 0 0 0-.86-1.05c-.61-.6-1.25-1.18-2.03-1.59-.76-.4-1.97-.79-2.73-.2-.49.38-.6.91-.67 1.47-.01.09.08.81.12.9l.14.39c.27.66.39.78.78 1.39.08.13.18.33-.07.3-.17-.02-.25-.29-.58-.29-.18.07-.28.6-.31.82-.03.27.03.91.1 1.19.02.1.01.13.02.23.02.3.15.59.2.88.07.38.24.87.41 1.21.33.04.67-.02.77.16-.05.13-.06.09-.18.15-.25.11-.5.19-.74.33l-.46.26c-1.28.81-2.73 2.07-2.97 3.64-.07.48-.1.88.1 1.2.17.27.63.49 1.07.54.71.08 2.01-.33 2.65-.77.1-.07.16-.11.25-.19l.13-.11c.83-.77.12-1.58-.53-1.65-.76-.08-1-.03-1.65.57-.08.08-.13.1-.22.19-.15.15-.22.29-.47.28.11-.6.67-1.09 1.15-1.44.2-.15.56-.34.81-.42.1-.03.15-.04.24-.07.12-.04.07-.04.24-.07.32-.05.61-.14.86.04l-.38.31c.27.22.4.18.75.3 1 .33.67 1.24.38 1.94-.26.62-.72 1.37-1.06 1.95-.1.18-.23.48-.32.69-.56 1.33-1.01 3.32.26 4.4.63.53 1.72.79 2.56.69l.59-.05c.13-.02.15-.04.25-.06l1.87-.49c1.29-.5 2.55-1.07 3.78-1.7 1.03-.53 2.7-1.37 3.61-1.9l.91-.48c.14-.08.29-.15.43-.24.11-.07.08-.05.21-.11.72-.32 1.33-.75 2.06-1.08.22-.1.81-.4.99-.38.2.02.07.08.04.13-.01.02-.18.13.05.15.13.01.33-.08.48-.1l2.52-.47c.98-.16 1.98-.35 2.89-.76.23-.1.49-.21.7-.38.47-.39.87-.96.51-1.55-.39-.65-1.3-1.07-1.99-1.34-1.18-.45-2.14-.62-3.3-.96-.65-.19-1.2-.46-1.63-.9-.15-.15-.22-.06-.42-.04-.27-.5-.01-1.34.36-1.76.37-.41.27-.59.48-.73.39-.26.96-.33 1.28.02.06.07.31.4-.02.37-.17-.02-.36-.31-.97.05-.45.26-.67 1.01-.41 1.48.07.12.26.32.36.41.37.33.64-.13.85-.41.08-.11.09-.1.17-.2.07-.1.09-.13.16-.21.4-.52.91-1.45 1.07-2.08.15-.57.28-1.42-.53-1.57-1.19-.21-2 .87-2.26.69-.08-.12-.06-.2-.01-.3.06-.13.1-.21.14-.38.08-.28.12-.55.14-.85.01-.15-.04-.72.12-.78.21-.08.4.28.6-.23.27-.68.41-1.61-.01-2.24-.48-.74-1.41-.47-2.06-.12-.44.24-.86.59-1.25.88-.14.1-.19.18-.33.28-.13.1-.22.19-.34.3-.53.5-1.06 1.02-1.52 1.58l-.57.66c-.11.1-.21.26-.33.32-.14-.2.56-1.01.72-1.24.08-.11.12-.15.2-.25.35-.43.72-.85 1.14-1.23.18-.16.3-.31.47-.46.09-.08.14-.14.24-.21.12-.09.15-.14.26-.23.24-.2.97-.57 1.01-.86.03-.2-.17-.45-.26-.6-.57-1.04-2.14-2.01-3.41-2.4-.26-.08-.55-.12-.83-.19-1.07-.26-2.36-.17-3.43-.04-.72.09-1.52.27-2.22.48-1.15.35-2.25.75-3.2 1.36-.21.14-.38.2-.57.34-.26.19-.87.66-.96.95z"/><path d="M23.22 26.89c.14-.12.08-.03.24-.13.11-.07.04-.05.32-.02-.04.03.01 0-.08.04l-.08.04c-.13.06-.01.05-.19.04.05.17-.03.02.05.06.25-.01.41-.02.65-.04.22-.02.47.02.69.02.17 0 .17.01.33-.01.36-.06.61.11.97.04.4-.08.87-.05 1.29-.06.21 0 .41-.05.63-.02.28.03.38.13.61.15.2-.12.1-.19.45-.18.49.01.85.14 1-.28.23-.62.48-.56 1.18-.82l.98-.36c.24-.09 1.8-.7 1.91-.64.19.1.04.27-.03.44-.07.19-.62 1.44-.56 1.52.18.12 1.18.05 1.42.04.23-.01.51.02.72.01.23-.02.48-.04.71-.04.25 0 .48.02.72.01l1.83-.05c.63 0 .45.09.81-.33.41-.46 1.33-2.09 1.54-2.58.36-.86.67-1.44.92-2.43.06-.24.11-.42.17-.64.28-1.16.42-2.53.41-3.67 0-.92-.1-1.79-.24-2.61-.2-1.15-.56-2.3-1.04-3.39l-.9-1.73c-.06-.09-.09-.16-.14-.25l-.47-.71c-.45-.59-.87-1.21-1.41-1.73l-.99-.99c-.14-.15-.28-.23-.45-.37l-.9-.71c-.17-.12-.32-.22-.49-.34-.46-.32-1.01-.67-1.53-.91l-1.77-.8c-.1-.03-.18-.07-.27-.11-.12-.05-.22-.07-.33-.11-.22-.07-.38-.14-.66-.21-1.09-.3-2.63-.67-3.75-.69-1.11-.03-2.51-.05-3.55.15l-1.91.36c-.19.05-.42.11-.61.17-.57.19-1.15.37-1.71.6l-1.05.49c-.11.05-.15.08-.26.14l-1.03.56c-.77.42-1.8 1.21-2.46 1.84-.07.07-.12.14-.2.21-.95.85-1.72 1.81-2.44 2.85-.42.61-.87 1.43-1.17 2.12-.04.08-.07.15-.12.26-.05.11-.07.19-.12.31-.04.1-.07.13-.13.29l-.32.92c-.44 1.43-.54 2.06-.71 3.57-.12 1.01.07 2.98.25 3.98.08.43.18.83.28 1.2.16.55.32 1.13.57 1.66.06.13.05.15.1.28l1.19 2.25.98 1.35c.4.49 1.21.05 2.09.24.43.09.81-.1 1.39-.05-.07-.59-1.29-.7-.72-3.71.07-.36.18-.68.31-.98l.84-1.71c.15-.31.34-.52.44-.88-.2.02-.29.17-.44.3-.23.19-.48.35-.76.48-.07.03-.07.04-.13.07-.15.08-.35.14-.51.2-1.26.47-3.12.58-3.4-1.07-.07-.38-.04-.86.13-1.22.09-.2.12-.35.22-.54.22-.4.29-.57.58-.96.13-.17.19-.28.32-.42.34-.39.74-.73 1.13-1.06.16-.13.24-.19.43-.3.17-.1.23-.18.44-.28.6-.3.31-.42.12-1.14-.11-.44-.27-.9-.34-1.34-.08-.58-.26-1.22-.1-1.82.18-.68.1-.48.52-1.04-.06-.1-.09-.17-.15-.31-.43-.92-.61-1.67-.35-2.74.11-.44.4-.78.75-1.02.45-.3 1.03-.39 1.58-.35.51.04.28-.18.91-.79.22-.21.56-.47.83-.62.11-.06.12-.09.22-.14.09-.06.13-.07.22-.14.16-.11.28-.15.47-.25l.96-.46c.3-.13.68-.27 1.02-.39l.79-.27c.1-.03.18-.05.27-.08l2.9-.52c.21 0 .45-.02.65-.03.42-.02.95 0 1.4.06 1.35.19 2.34.56 3.44 1.24.16.1.27.2.43.31l.77.7c.26.32.76.89.81 1.3.29.04.27.02.48-.05.17-.06.32-.07.49-.08 1.11-.1 1.69.98 1.65 1.88-.09 2.06-.89 1.74-.97 2.18-.02.12-.01.32-.04.46-.04.17-.1.38.13.3l.42-.18c.64-.2 1.39-.15 1.86.36.39.43.24 1.24.04 1.9-.13.44-.41.88-.62 1.27l-.24.38c-.09.15-.15.23-.26.36l-.54.7c-.14.17-.24.14-.24.38.29.1.59.22.92.3 1.5.34 5.45 1.26 5.21 3.21-.09.71-.55 1.06-1.01 1.34-.73.44-1.6.69-2.44.88l-1.87.36c-.19.02-.27.06-.45.09-.11.02-.13.01-.23.03-.54.12-1.1.17-1.62.3-.29.07-.65.17-.95.16-.37-.01-.87.35-1.18.52-.62.33-.34.24-.72.7-.31.37-.44.7-.98 1.1l-1.25 1.06c-.18.18-.4.32-.66.51-.49.35-1.07.67-1.66.87-.08.03-.12.05-.2.08-.11.04-.31.09-.43.11-.81.13-.27.05-1.03.07-.36.01-.81-.07-1.18-.11-.43-.05-.55.12-.92.22l.06.05c.21.09-.1-.03.08.03z" style="fill:#f60"/><path class="fil3" d="M32.92 11.84c.08-.62.01-.8-.03-1.36-.06-.89-.22-.89.53-1.61.09-.09.14-.11.22-.18l.6-.53c.14-.13.32-.2.33-.41-.24-.09-.47.13-.63.23-.36.23-.7.52-1 .82-.09.1-.11.13-.22.23-.08.08-.15.14-.22.22l-.82.95-.02.02-.02.02-1.9 2.24c-.35.39-.73.81-1.15 1.13-.33.25-.67.53-1.08.68-.1.04-.23.05-.34.08-.18.05-.16.06-.33 0 .04-.32.17-.53.31-.79l.2-.34c.11-.2.27-.38.07-.54-.17.02-.09.01-.19.14-.3.41-.58.82-.95 1.18l-.45.4c-1.06.76-1.78.26-2.32-.62l-.29-.49c-.05-.1-.09-.16-.14-.25-.23-.44-.43-.89-.7-1.32-.26-.41-.5-.83-.8-1.2l-.83-.87c-.69-.65-1.89-1.33-2.9-1.44-.18-.02-.32 0-.47.07.16.29.66.29.98.54-.09.76-.22 1.59-.24 2.3-.02.73.17 1.48.41 2.07.18.44.51.83.82 1.19.6.73 1.94 1.11 2.98.85.15-.04.25-.07.39-.11.07-.02.15-.04.21-.06.14-.05.38-.21.53-.22.33-.03.97.86 1.94.52.14-.05.24-.09.35-.16l.29-.19c.57-.43.65.11 1.66-.21.21-.07.39-.22.59-.32.69-.35 1.28-.03 2.68-.33.22-.05.55-.2.72-.3.01 0 .02-.01.02-.02l.29-.19c.1-.08.15-.16.24-.25.19-.19.32-.4.44-.63.11-.21.18-.67.22-.95z"/><path class="fil1" d="M36.71 27.63c-.03.26-.05.46-.15.66-.05.11-.08.13-.12.26l-1.03 2.6c-.1.2-.13.38-.23.58-.4.88-.09.45.48.75.18.1.3.26.5.34.3-.53.34-.29.46-.48-.32-.18-.67.1-.62-.27 0-.01.62-1.55.64-1.56.13-.18.88-.3 1.07-.46.12-.09.16-.27.18-.45.02-.14-.04-.1-.11-.1-.25.03-.38.22-.69.21-.09-.21-.05-.13.05-.47.05-.18 0-.05.08-.18.14-.22.04-.18.28-.65.25-.49.66-.01 1.38-.33.02-.2.04-.22.09-.38.46.04.24.15.14.39l-.34.89c-.06.12-.08.15-.13.29l-.25.6c-.05.13-.04.19-.09.3-.1.2-.83 1.96-.85 2.11-.01.11.14.19.24.21.17.04.2-.03.36-.08.14-.04.24-.02.33-.1.12-.11.22-.53.29-.68l1.01-2.46c.08-.19.31-.93.47-1.01.11-.06.28-.01.26.14l-1.56 4.01.41.39c.13.05.11.02.23-.06l.28-.24c.06-.09.07-.2.11-.32.04-.13.1-.2.14-.32l1.27-3.17c.08-.22.17-.41.25-.64.19-.54-.28-.48-1.05-.44l-1.14.02c-.16.02-.14.09-.34.06-.3-.05-2.06-.05-2.28.04zM17.38 32.94c.17.02.05.01.12-.04.23-.21-.16-.32-.16-.32.01-.19.59-1.65.65-1.72.08-.1.23-.13.37-.19.09-.04.11-.04.2-.07.09-.03.14-.05.23-.09.36-.13.29-.13.43-.42.07-.13.06-.06.08-.26-.21-.02-.25.04-.4.1-.9.35-.43-.17-.29-.62l.23-.58c.08-.2.28-.22.52-.23.12 0 .22.01.34.01.48-.01.39.01.57-.26.08-.12.14-.17.19-.31.23.2 0 .52-.06.64l-.6 1.52c-.15.33-.38.82-.42 1.19.15 0 .21-.05.36-.1.26-.08.73-.34 1.07-.33.03.26-.03.19-.12.44-.08.2-.07.29-.17.46-.18.3-.03.24-.3.67-.22.34-.12.16.09.43.09.11.11.17.22.26.06-.07.08-.07.15-.13.37-.34.54-.47.67-.9.09-.27.34-.75.47-1.18 0-.01.04-.11.04-.13.05-.12.01-.03.06-.11.12-.19.09-.27.17-.47.09-.22.18-.2.14-.45-.17-.01-.33.12-.58.2-.13.04-.1.03-.2.07-.13.05-.27.11-.4.16-.55.21-.09-.55-.09-.55.03-.07.03-.13.07-.23.04-.12.04-.1.1-.19.16-.26.14-.73.5-.69.31.03.02.32-.07.64-.09.34.09.19.5.05.04-.01.05-.01.09-.03l.26-.09c.28-.13.32-.46.38-.62.11-.28.23-.35.06-.52-.17-.17-.35-.13-.55-.1l-1.76.04c-.12.01-.3-.05-.68-.01l-1.39.04c-.42.01-.45-.16-.43.24.01.28-.41 1.11-.53 1.42l-1.04 2.66c.01.2.12.12.44.33.1.06.15.1.23.18.06.06.12.17.22.19z"/><path class="fil4" d="M6.54 24.76c0-.17.17-.4.29-.47.18-.1.49-.04.47.13-.03.28-.37.64-.75.33zm-.27-1.37c-.18-.02-.31-.05-.45-.07-.19-.03-.27.01-.45-.01-.68-.06-.74-.12-.8.38-.08.65 1.45.11 1.39.62-.1.79-1.5.01-1.83.36-.28.3-.18.38-.05.62l1.15.13c.11.3-.01.22-.12.52-.05.13-.52 1.05.15.49.12-.1.22-.2.34-.31.07-.07.09-.11.15-.17.11-.12.05-.02.14-.19.11-.21.17-.28.42-.25.5.05.17.42.11.57-.07.17-.05.17-.15.31l-.24.7.16.02c.06-.15.21-.21.33-.32.13-.13.24-.24.34-.35.15-.17.39-.75.63-.72.09.01.69.19 1.1.24.09.01.84.02.95-.07.06-.05.04-.01.07-.09l-.64-.3c-.51-.25-.87-.25-1.19-.46.21-.98 1.14-.31 1.62-.26.22.02.34-.08.67-.04.19.02.14.09.38.05.22-.04.17-.05.23-.22l-1-.42c-.35-.15-1.02-.18-.98-.47.02-.2.45-.59.48-.85.04-.3-.36-.65-.71-.13-.26.39-.73 1.29-1.06.75l.36-.59c.37-.48.04-.82-.3-.71-.21.07-.57.71-.72.93-.1.17-.21.36-.49.33z"/><path class="fil1" d="M2.48 32.85c-.01-.12-.02-.12.04-.26.05-.11.06-.07.12-.26l1.05-2.63c.11-.23.28-.95.54-.92.29.03.16.27.06.47-.14.25-.3.81-.41 1.07l-.34.76c-.1.2-.02.16-.21.55-.18.36-.29.96-.56 1.25l-.29-.03zm-1.17.35c-.02.16.08.27.24.32.19.07 1.38.02 1.64-.01.12-.01.29-.11.37-.19.16-.15.33-.61.41-.85.06-.18.14-.27.19-.44l1.06-2.66c.08-.16.11-.28.18-.45.15-.34.19-.34.15-.67-.27-.16-.39-.11-.72-.1-1.14.05-1.48-.2-1.85.87-.04.12-.09.3-.16.44l-.51 1.22c-.06.15-.1.31-.16.44l-.84 2.07zM44 31.94c.03-.27.13-.33.21-.55l1.02-2.58c.28-.66.23-.82.62-.69.03.24-.11.52-.23.75l-1.3 3.23c-.29.07-.34.05-.31-.17zm-1.08.33c.31.15.37.04.83.35.3.21.23.23.9.14.32-.05.52-.25.62-.56l.35-.87c.07-.14.1-.26.16-.43l.89-2.19c.18-.51.52-.96.34-1.17l-.09-.07c-.13-.07-.28-.05-.46-.04-.34.03-.79-.03-1.08.01-.42.05-.58.15-.71.44l-.37.85c-.07.2-.1.25-.17.42l-.27.66c-.03.09-.04.15-.07.23-.06.17-.12.25-.19.44-.13.38-.69 1.54-.68 1.8zM11.28 33.34c.78.09.9.18.99-.6-.36-.07-.21-.19-.13-.43.16-.48.14-.31.22-.54.04-.12.04-.2.08-.3l.45-1.08c.04-.12.07-.15.12-.25l.43-1.09c.12-.26.09-.44.33-.42.35.03.04.5-.07.78l-.45 1.07c-.08.2-.13.36-.21.55-.04.09-.06.2-.1.29-.05.13-.08.16-.13.25-.09.17-.12.37-.21.55-.04.09-.1.17-.1.28 0 .21.04.09.16.06.22-.06.44-.03.7-.03.35-.41.47-1.07.6-1.33.05-.1.07-.11.13-.25.14-.39.19-.41.24-.56l.31-.83c.23-.45.13-.41.22-.59.11-.23.09.03.22-.55.03-.15.01-.17-.04-.29-.36-.1-.81-.09-1.12-.06-.37.04-1.02-.07-1.25.51l-.53 1.38c-.05.15-.13.22-.19.4-.03.09-.03.15-.06.24-.04.11-.07.13-.12.22-.09.17-.08.32-.17.47-.16.31-.07.16-.18.45-.06.17-.12.22-.19.44-.06.2-.14.28-.2.44-.17.48.05.44.23.8zM10.48 29.9c.04-.32.17-.44.25-.68.08-.24.15-.47.4-.51.04.37 0 .22-.14.51-.05.11-.06.19-.11.32-.11.32-.18.45-.37.45-.03-.08-.04-.01-.03-.08zm-.39-1.62c-.06.48-.12.32-.26.8l-.9 2.18c-.04.12-.07.2-.13.34l-.51 1.26c-.16.38-.28.55-.08.58.31.03.23-.13.59-.5.8-.84.39.08.98-1.33.15-.37.17-.61.57-.57.04.28.06.12-.08.39-.06.11-.05.11-.09.25-.02.07-.07.18-.1.24-.04.09-.1.16-.12.27-.07.31.1.22.36.29.3.08.18.19.47.12l.34-.9c.05-.14.08-.17.13-.29.04-.1.06-.2.11-.31.14-.36.36-.7.4-1.08.02-.14-.07-.05-.02-.2.02-.07.01 0 .05-.11.02-.04.04-.13.05-.17.08-.25.14-.27.22-.54.06-.18.51-.9-.02-.96-.28-.03-.77.01-1.11.02-.98.02-.81-.03-.85.24zM24.24 32.27c-.02.13.51.13.77.16.14.02.15-.13.29-.46l1.37-3.41c.13-.28.59-.28.29.3l-.3.76c-.07.22-.13.32-.21.51l-.81 2.03c-.09.25-.11.24-.3.37.39.4.45.09.87-.09.37-.16.29-.03.46-.44.06-.14.1-.18.15-.31.13-.32.23-.68.39-1.01.1-.21.16-.44.25-.63l.54-1.32c.05-.21.04-.18.13-.33.47-.83-.45-.66-1.09-.63-.67.03-.97-.12-1.25.61-.04.11-.06.11-.1.2-.07.15-.09.28-.16.43-.19.37-.19.47-.34.8-.05.12-.09.26-.15.41l-.66 1.62c-.06.15-.14.26-.16.43zM22.02 31.24c.19.02.27-.03.41-.09l.91-.34c.32 0-.04.51-.12.79l-.27.7c-.16.37-.49.22-.47.06.03-.27.76-.98-.4-.51-1.11.45-.15.55-.01.62.36.19.24.17.43.32.26-.06.09-.01.27-.16.01-.01.02-.01.02-.02.13-.09.44-.16.62-.19.59-.1.39.04.59-.38l.41-.99c.05-.16.05-.14.11-.27.08-.17.11-.32.19-.49.1-.23.13-.26.17-.56-.15 0-.92.3-1.11.38-.18.07-.18.08-.35-.02l.55-1.36c.08-.18.09-.26.32-.28.14.11.16.15.09.32-.1.28-.16.22-.19.53.22.02.77-.19.95-.29.2-.11.17-.18.27-.4.33-.73.23-.85-.4-.84-.31.01-.48.05-.84.03l-.83.04c-.23.05-.08.09-.09.25l-.98 2.44c-.06.15-.06.24-.13.38-.09.18-.12.14-.1.33zM7.67 30.34c.02-.12.11-.35.16-.48l.36-.87c.22-.44.47-.23.45-.09l-.45 1.11c-.25.63-.53.39-.52.32zm-.23-2.19c-.08.69-.13.49-.33 1.12l-1.04 2.56c-.13.31-.31.6-.08.62.88.1.85-.02 1.12-.77.23-.65.31-.55 1.45-.95.12-.04.24-.06.32-.15.16-.16.23-.44.33-.68l.57-1.46c.07-.57-.59-.35-1.31-.35-.31 0-.81-.02-1.04.06zM30.1 27.74c-.01.16.03.1.02.2-.02.2-.35.95-.45 1.2-.04.1-.07.2-.1.28-.05.14-.08.17-.13.29-.04.09-.07.23-.11.32-.06.15-.08.13-.14.28-.03.07-.06.2-.1.29-.06.14-.08.13-.14.28-.03.07-.07.25-.1.32-.06.15-.08.13-.13.29-.11.29-.46 1.1-.49 1.33-.04.31.73.3.85.21.06-.1.04-.13.1-.24.04-.09.1-.14.15-.23.17-.27-.02-.24.13-.5l.33-.77c.04-.13.04-.14.11-.27.27-.55-.05-.32.48-.54l.25-.11c.18-.07.33-.11.47-.2.15-.09.2-.3.23-.53-.18-.06-.17-.02-.36.06-.44.19-.42.13-.58.07l.5-1.23c.12-.24.06-.19.55-.24.68-.07.7.18.9-.31.06-.16.08-.13.1-.32-.28-.03-2.14-.01-2.35.06zM41.8 28.03c-.05.42.88-.36.54.55l-.84 2.08c-.08.21-.14.33-.22.54-.12.32-.31.7-.41 1.07.11.1.18.11.33.17.67.28.3.43.96-1.03.1-.22.17-.43.25-.64l1.08-2.6c.12-.13.56-.09.76-.07l.12-.3c.06-.13.1-.16.13-.34l-2.34.02c-.21.01-.34.36-.36.55zM13.81 32.39c.42.11.16.02.41.05.19.02.15.1.42.13.13-.23.33-.84.44-1.08l.67-1.65c.07-.17.12-.37.21-.55.1-.21.13-.32.22-.54.11-.26.44-.21.41.04-.04.31-.44.76-.08.67.05-.01.21-.08.29-.11.45-.15.63-.15.82-.67.24-.66.22-.74-.51-.74-2.06-.01-1.48.11-2.3 1.85l-.8 2c-.07.24-.16.29-.2.61z"/><path class="fil3" d="M37.47 18.72c.03-.12.03-.09.06-.19-.72-.24-2.3-.05-3 .08l-4.1 1.14c-.11.04-.16.06-.26.1-.1.04-.14.04-.24.07-.12.04-.13.06-.25.1L23.9 22.5c-.32.15-.3.18-.66.33l-1.09.58c-.16.09-.28.15-.43.25-.18.1-.23.14-.36.29.28.02.76-.24 1-.37l2.28-1.07c.18-.07.29-.13.46-.21l2.84-1.21c.17-.06.32-.12.48-.19l1.99-.71c.12-.04.15-.04.26-.09l1.51-.47c.13-.05.12-.03.25-.06l1.84-.49c.73-.14 2.59-.38 3.18-.36z"/><path class="fil1" d="M34.2 27.71c.05.43-.2.76-.41 1.3L32.6 32c-.06.16-.09.14-.13.3.22.16.36.05.55.23.21.18.14.33.29.42l.05.03c.05.01.02.01.09.02l.22-.01c.31-.04.33-.22.57-.39.18-.13.19-.01.24-.26-1.25.03-1.11.16-.73-.8l.68-1.68c.05-.13.08-.23.14-.36l.55-1.36c.16-.46.33-.53-.57-.5-.28.01-.18.01-.36.1z"/><path class="fil4" d="M18.64 34.3c-.27-.03-.19-.56-.09-.77.11-.21.43-.31.69-.17.61.33-.26.99-.6.95zm-.66-1.06c-.04.33-.21 2.62.13 2.66.71.08.42-.15.39-.65-.02-.42.37-.65.63-.4.16.16.24.44.3.62.05.13.07.24.06.38.55.13.15.03.58.06.08-.36.07-.4-.14-.81-.09-.17-.45-.53-.43-.67l.36-.42c.14-.16.1.03.16-.43.06-.49-.46-.6-.85-.61-.69-.02-1.15-.18-1.2.27zM13.13 34.92c.02-.15.15-.25.26-.31.23-.13.49-.26.71.11.32.53.02.86-.59.79-.31-.03-.4-.49-.39-.59zm.02-1.22c.02-.2.3-.36.46-.39.42-.08.63.37.12.72-.63.43-.63.12-.58-.33zm-.45-.4c-.05.44-.2 2.58.14 2.62h1.24c.38-.02.66-.18.71-.58.09-.7-.61-.84-.56-1.2.02-.14.32-.24.37-.67.02-.2-.21-.46-.4-.48-.55-.06-.49.01-1.04-.04-.3-.02-.42.05-.46.34zM34.42 34.09c.02-.15.22-.49.31-.57.4-.37.77.14.89.55.15.48.2 1.35-.6 1.26-.35-.04-.38-.01-.57-.25-.2-.24-.09-.55-.03-1zm-.62.29c-.03.26 0 .79.08.97.25.57.63.53 1.16.58.28.03.66-.07.83-.17.43-.27.49-.94.36-1.42-.13-.47-.13-.65-.43-1.02-.24-.31-.68-.57-1.04-.39-.23.11-.28.17-.43.34-.09.1-.08.1-.16.21-.14.22-.33.69-.36.91zM25.99 34.67c.05-.41.12-1.02.55-1.22.35-.16.61.27.69.48l.13.43c.04.36.05.75-.26.92-.49.26-1.18 0-1.1-.6zm-.51-.29c-.1.83.04 1.46.94 1.56.71.08 1.39-.12 1.47-.75.04-.31.08-.61-.01-.91-.12-.4-.25-1.05-.9-1.35-.78-.35-1.42.8-1.49 1.44zM9.2 34.57c.03-.25.22-.99.55-1.09.67-.19.87 1.08.85 1.24-.07.53-.21.73-.87.65-.45-.05-.57-.48-.53-.81zm.37 1.42c.31.03.75-.02 1.02-.12l.2-.12c.01-.01.02-.01.02-.02l.04-.04.07-.09c.24-.4.25-.58.19-.95-.06-.33-.01-.44-.24-.91-.24-.47-.48-.78-1.06-.84-.09-.01-.14.05-.22.09-.94.43-1.29 2.28-.53 2.81.1.07.37.18.5.19zM42.27 34.15c.05-.4.46-1.03.91-.68.26.2.45.88.41 1.18-.04.33-.12.74-.75.67-.77-.08-.63-.62-.57-1.17zm-.56.14c-.09.73-.07 1.58.97 1.61.67.02 1.17-.02 1.39-.63.14-.39.05-.68.01-1.02-.02-.15 0-.18-.06-.31 0-.01-.01-.02-.01-.03l-.05-.1c-.38-.94-1.19-1.38-1.81-.53-.19.25-.38.61-.43 1.01zM15.81 34.19c.03-.22.13-.33.25-.46.13-.13.17-.28.42-.26.08.01.88.87-.03.9-.46.01-.68.13-.64-.18zm-.64.44c-.04.3-.18 1.25.29 1.29.06.01.33.01.38-.09.08-.17-.2-.23-.15-.63.06-.49 1.8-.85 1.2.36-.05.11-.09.14-.12.31.21.03.68.22.76-.39l-.04-.78c-.03-.41-.21-1.01-.48-1.33-.57-.67-.69-.46-1.03-.17-.29.25-.47.49-.63.86-.06.13-.17.45-.19.58zM21.66 33.49c.06-.02-.06-.05.11-.01l.19.17c.07.1.14.23.16.34.1.39-.23.33-.56.37-.13.01-.27.11-.39.04-.22-.13-.03-.4.08-.55.05-.07.06-.1.1-.15.1-.12.17-.16.32-.2zm-1.24 1.28.01.59c.02.18.01.38.13.48.07.06.42.1.54.05.22-.09-.34-.42-.04-.85.09-.12.24-.2.4-.25.28-.08.9-.1.85.3-.06.51-.56.87.15.81.3-.03.27-.18.31-.52.04-.35-.02-1.05-.14-1.38-.13-.36-.33-.75-.68-.98-.29-.19-.48-.11-.79.22-.21.22-.42.55-.53.8-.09.22-.18.44-.21.73zM38.31 34.71c-.09.74-1.14 1.05-1.18-.46-.02-.79.13-.86.14-1.31-.71-.1-.58-.07-.7.91-.04.33-.01 1.02.09 1.24.09.2.09.28.23.46.24.31.48.32.85.36.51.06.98-.47 1.05-1.03.06-.5.05-.66.04-1.16-.01-.3-.07-.49-.1-.74-.95-.32-.22.13-.42 1.73z"/><path class="fil0" d="M33.44 16.12c-.01.05.1.25.12.3.39.64 1.55.56 2.22.49 1.09-.12.44-.88.2-1.02-.64-.39-1.51-.51-2.26-.23-.27.1-.24.19-.28.47z"/><path class="fil4" d="m5.54 33.07-.21 1.4c-.04.37.01.9.01 1.19 0 .21-.02.24.19.28.18.03 1.58 0 1.72-.04.03-.3-.12-.29-.14-.53-.32-.03-.55.22-.78.19-.74-.08-.64-1.14.09-1.09.36.03.28-.02.34-.15.29-.64-.44-.28-.53-.27-.64.09-.34-.79.34-.72.2.02.29.08.44.13.04-.05.13-.21.16-.26.2-.38-.42-.21-.86-.22-.16 0-.27-.04-.43-.02-.15.02-.2.06-.33.1z"/><path class="fil1" d="M25.05 26.32c.45.05.9-.05 1.33-.15.15-.03.25-.07.42-.12.82-.24 1.61-.9 2.27-1.4.08-.06.02-.01.07-.05l1.23-1.07c.04-.03.1-.12.13-.16-.17-.02-.1-.04-.38.13l-.33.19-4.62 2.49c-.1.08-.09.06-.14.15z"/><path class="fil0" d="M33.5 17.03c-.76-.08-1.8.27-1.72.68.04.19.22.33.37.43.34.22.97.27 1.42.23 1.24-.11 1.46-1.17-.08-1.34z"/><path class="fil4" d="M31.05 33.25c.01-.18-.02-.11-.1-.25.1-.03.19-.02.33 0l-.24.25zm-1.39-.23c-.17 1.09-.32 1.65-.18 2.82.28.05 1.72.12 1.84-.04 0 0 .11-.03 0-.24-.04-.08-.1-.17-.15-.25-.4.1-.9.33-1.16-.05-.19-.28-.08-.64.17-.76.41-.2.53.12.71-.33.06-.15.05-.14-.01-.27-.38-.01-.97.4-.89-.22.04-.35.41-.43.76-.39.07.01.49.29.58-.33-.8-.09-.48-.02-1.12-.04-.29-.01-.35 0-.56.1zM39.2 33.98c-.06.48-.1.88.18 1.35.33.56 1.07.77 1.6.41.39-.26.51-.86.21-.69-.11.06-.08.1-.23.19-.35.21-.83.1-1.09-.32-.33-.54-.18-1.34.35-1.57.39-.17.68.01.78.26.23-.1.42-.19.24-.46-.31-.46-1.03-.36-1.53-.01-.23.16-.49.57-.53.85z"/><path class="fil0" d="M21.64 21.86c.26-.21.71-.81.74-1.08.08-.65-.52-.49-.73-.51l-.01.08c.18.03.07 0 .2.1-.23.26-.74.38-1.08.81l-.16.21c-.15.21-.05.34-.36.38.02-.18.16-.55.27-.67l.26-.23c.2-.19.27-.21.3-.35-.23-.02-.11-.02-.34.14-.29.21-.31.22-.48.5-.15.25-.42.71-.17.99.39.42 1.21-.08 1.56-.36z"/><path class="fil4" d="M46.22 32.62c.03-.04.02-.01.05-.08.01-.04.01-.09.02-.11.04-.11.02-.09.14-.1-.03.15-.06.16-.09.37l.42-.82c.06-.15.07-.2.14-.32l1.36-2.93c.31-.76-.23-.87-.52-.66-.25.18-.6 1.57-.71 1.92-.07.24-.16.41-.21.64-.03.15-.04.22-.09.34-.15.41-.21.72-.34 1.02-.07.16-.14.52-.17.74z"/><path class="fil3" d="m27.12 7.7-.01.08c.14.02.22.01.34 0 .22-.02.13-.05.34-.04.12 0 .28.01.33.02.06.01.24.04.37.06-.13.34-.36.01-1.13.22-.46.13-.63.27-.86.37-.01 0-.02.01-.02.01-.02.01-.12.08-.07-.05.02-.05.01-.04.04-.07.07-.1.97-.81.16-.35l-.18.1c-.13.08-.16.12-.25.23-.37.46.26.74.5.77.83.09 2.07-.21 2.17-1.03.02-.17-.4-.4-.7-.43-.62-.07-.76.07-.89.11-.06.02-.05.01-.13.02zM31.78 4.74c.03-.27-.17-.5-.36-.62-.46-.29-1.01-.38-1.55-.31-.6.08-.86.76.14 1.15.16.06.2.1.38.14.33.07.51.1.79.01.18-.05.56-.14.59-.37z"/><path class="fil4" d="M22.95 33.59c-.03.22.35-.07.35-.07.08-.05.32-.15.43-.16.24.2.1.44.06.69l-.07.59c.02.69-.14 1.35.47 1.28.22-.02.1.03.2-.1.09-.09.02-.21-.01-.33-.17-.64-.14-1.16-.07-1.79.03-.28.28-.42.56-.24.03.02.23.26.34-.09.03-.09.02-.17.02-.29-.66-.22-.93-.29-1.72-.14-.33.07-.48.01-.55.64z"/><path class="fil3" d="m26.91 4.95.18.08c.23.07.37.04.56.08.21.04.12-.02.19.1-.11.11-.03.06-.24.07-.54.04-.61.02-1.12.14-.13.03-.14.05-.26.1-.04.02-.07.02-.11.04-.19.08-.2.16-.36.06l.29-.32c-.26-.03-.36.06-.49.26-.06.09-.2.17-.05.42.44.72 2.67.31 2.77-.48.03-.21-.09-.27-.22-.36-.01-.01-.04-.03-.05-.04-.29-.22-.73-.18-1.08-.14z"/><path class="fil0" d="M19.77 19.2c-.02-.19-.09-.12 0-.26.05-.07.1-.08.14-.28-.21.03-.37.36-.41.53-.06.22.04.49.29.52.54.06 1.29-.25 1.67-.6.29-.27.63-.77.48-1.07-.03-.05-.19-.24-.32-.25-.12-.01-.66.06-.74.23.21.02.52.03.66.11-.06.11-.01.04-.25.1-.32.08-.71.24-.97.45-.06.05-.14.12-.19.18-.15.17-.11.31-.35.34zM24.23 16.84c.09-.08.13-.12.2-.21-.2-.06-.05-.06-.16 0-.19.09-.48.33-.6.53-.23.39-.15.05-.21.51-.07.56.76.51 1.37.2.4-.2.94-.69 1-1.13.05-.4 0-.21-.03-.44-.27-.03-.21-.01-.35.12l-.87.44c-.83.46-.58.77-.96.82 0-.11-.01-.11-.02-.2l.61-.65z"/><path class="fil3" d="M42.27 34.15c-.07.54-.2 1.08.57 1.17.63.07.71-.34.75-.67.04-.29-.16-.97-.41-1.18-.45-.35-.86.28-.91.68zM25.99 34.67c-.07.6.62.86 1.1.6.31-.17.3-.56.26-.92l-.13-.43c-.08-.2-.34-.64-.69-.48-.43.2-.5.81-.55 1.22z"/><path class="fil0" d="M29.57 16.64c.51.06 1.07-.04 1.43-.3l.18-.14c.09-.09.18-.19.19-.31.03-.22 0-.15-.11-.23-.07-.05-.08-.06-.14-.11-.07.58-.08.08-1.26.1-.1 0-.13 0-.21.01-.13.03-.07.02-.18.06-.15.05-.21.06-.35.12-.17.08-.18.11-.31.13-.01-.11-.02-.12-.06-.2-.08.04-.18.07-.19.18-.07.54.58.65 1 .7z"/><path class="fil3" d="M9.2 34.57c-.04.32.08.76.53.81.66.07.81-.12.87-.65.02-.16-.18-1.43-.85-1.24-.33.09-.52.84-.55 1.09zM34.42 34.09c-.06.45-.17.76.03 1 .19.24.22.21.57.25.8.09.75-.78.6-1.26-.12-.41-.49-.92-.89-.55-.09.08-.29.42-.31.57zM24.77 6.73c-.03.17.07.18-.45.22-1.16.09-1.09.41-1.52.47.1-.19 0 .04.11-.14.06-.1.04-.11.06-.24-.66.09-.71 1.25.84.92.48-.1 1.13-.23 1.31-.72.1-.29.05-.27-.07-.48l-.29-.03zM26.95 3.17c-.29-.04-.79-.4-1.57-.09-.4.16-.45.24-.61.16-.01-.01-.04-.03-.05-.04l-.05-.04c-.22.14-.22.12-.25.3-.02.19.39.48.85.53.53.06 1.47-.1 1.8-.53.08-.11.29-.51-.04-.54-.22-.02-.08.15-.09.25zM21.67 4.42c.24.03.86.03 1.02.15-.02.07.02.13-.35.11-.41-.01-.59.03-1.01.22-.14.07-.01.06-.24.04.24-.44.36-.29.53-.45-.39-.27-1.68.96-.26 1.12.42.05.29.02.67 0 .2-.01.29-.06.46-.12.64-.24.86-.95.43-1.04-.58-.12.13-.02-.35-.13-.17-.04-.82.03-.89.1z"/><path class="fil4" d="M32.07 33.16c.06-.25.3-.21.52-.14-.09.09-.11.1-.19.22-.18-.14-.09-.1-.33-.07zm-.02-.2c-.24.64-.37 2.33-.29 2.85.26.14.71.05 1.11.05.27 0 .65.13.68-.13 0-.04-.1-.34-.11-.45-.4-.04-.39.23-.78.19-.7-.08-.38-1.41-.24-1.85.21-.66.35-.67-.03-.71-.15-.02-.24.01-.34.04z"/><path class="fil3" d="M28.64 6.52c-.03.22.42.6.88.65l.45.05c.86.09 1.54-.76.82-.86-.11.27-.44.03-.72-.03-.17-.04-.48.05-.9.01.04-.19.04-.11.21-.16.2-.05.2-.2.9 0 .18.05.21.1.4.12-.18-.34-.19-.26-1-.35-.16-.02-.08 0-.17.02-.26.07-.83.26-.86.54zM2.48 32.85l.29.03c.27-.29.38-.89.56-1.25.2-.39.12-.35.21-.55l.34-.76c.11-.26.27-.82.41-1.07.11-.19.24-.44-.06-.47-.25-.03-.42.7-.54.92l-1.05 2.63c-.06.19-.07.15-.12.26-.06.14-.05.14-.04.26zM44 31.94c-.03.22.03.24.31.17l1.3-3.23c.12-.23.26-.51.23-.75-.39-.13-.34.03-.62.69L44.2 31.4c-.08.22-.18.28-.21.55z"/><path class="fil1" d="M30.84 27.31c.17.09 1.38-.29 1.41-.31.3-.16.4-.73.38-.76-.06-.08-.01-.03-.09-.02l-1.49.55c-.08.07-.23.4-.21.53zM14.86 32.73c.05.08.1.09.17.24.08.14.06.15.19.25.44-.53.84-.73.94-.93l.18-.47c-.31-.07-.33.05-.76.18-.28.09-.32.12-.45.41-.11.24-.08.21-.28.33z"/><path class="fil3" d="M13.13 34.92c-.01.11.07.56.39.59.6.07.9-.26.59-.79-.22-.37-.48-.24-.71-.11-.11.06-.24.16-.26.31zM18.64 34.3c.35.04 1.22-.62.6-.95-.26-.14-.58-.04-.69.17-.1.21-.18.74.09.77zM15.81 34.19c-.04.32.19.2.64.18.91-.03.11-.89.03-.9-.25-.03-.29.13-.42.26-.12.13-.23.24-.25.46zM21.66 33.49a.55.55 0 0 0-.32.2c-.04.05-.05.08-.1.15-.1.16-.3.43-.08.55.13.07.26-.03.39-.04.33-.03.66.03.56-.37-.03-.11-.1-.24-.16-.34l-.19-.17c-.18-.05-.05-.01-.11.01zM7.67 30.34c-.01.07.27.31.52-.32l.45-1.11c.02-.15-.23-.36-.45.09l-.36.87c-.05.13-.15.35-.16.48zM13.15 33.7c-.05.45-.05.76.58.33.52-.35.31-.81-.12-.72-.16.03-.44.19-.46.39z"/><path class="fil1" d="m18.95 32.4.85.08c.12-.25.24-.53.28-.79-.18-.01-.46.14-.71.23-.21.08-.54.15-.42.48z"/><path class="fil4" d="M45.2 34.47c-.07.53.4.64.65.19.24-.45-.12-.68-.37-.57-.1.04-.26.26-.28.38z"/><path class="fil3" d="M6.54 24.76c.39.31.72-.05.75-.33.02-.17-.29-.23-.47-.13-.12.06-.29.3-.29.47zM10.48 29.9c-.01.07 0 0 .03.08.19.01.26-.13.37-.45.04-.13.05-.21.11-.32.14-.29.18-.14.14-.51-.25.03-.32.27-.4.51-.08.24-.21.36-.25.68z"/><path class="fil0" d="M30.73 15.43c-.08-.14.02-.05-.18-.11a2.12 2.12 0 0 0-.75-.06c-.13.02-.06.04-.19.08-.08.03-.11.03-.21.02l-.01.12 1.34-.05z"/><path class="fil1" d="M17.45 18.13c0 .1.18.26.24.57.06.31-.01.12.09.26.04-.24.21-.87-.29-.84-.01 0-.03 0-.04.01zM46.22 32.62c-.11.13-.16.3-.19.52.18-.06.27-.29.31-.46.02-.2.05-.22.09-.37-.12.02-.1-.01-.14.1-.01.03-.01.07-.02.11-.02.08-.01.04-.05.08z"/><path class="fil3" d="M24.77 6.73c-.16-.17-.24-.12-.4-.12-.09 0-.21-.03-.29-.03-.14 0-.15.01-.18.14l.88.02z"/><path class="fil4" d="M30.85 32.28c-.01 0-.02.01-.03.02-.01 0-.02.01-.03.02-.01.01-.04.03-.05.03-.07.03.01.03-.13.03.05-.08.08-.2.13-.3-.13.06-.33.43-.33.43.03.12.19.04.24.01.1-.06.13-.12.2-.23z"/><path class="fil1" d="M32.07 33.16c.24-.03.15-.07.33.07.09-.12.11-.12.19-.22-.22-.07-.46-.11-.52.14zM30.74 32.07c-.05.11-.07.22-.13.3.14 0 .06.01.13-.03.01-.01.04-.03.05-.03.01 0 .02-.01.03-.02.01 0 .02-.01.03-.02.25-.15.16-.4-.11-.21z"/><path class="fil3" d="M25.26 2.83c.29.07.25.03.32-.07.15.01.36.02.46-.03-.23-.19-.7.03-.78.1z"/><path class="fil1" d="m23.22 26.89.26.03c-.08-.04.01.11-.05-.06.18.01.06.02.19-.04.05-.02.04-.02.08-.04.08-.04.03-.02.08-.04-.28-.03-.21-.05-.32.02-.17.11-.11.01-.24.13zM30.96 33c.07.14.1.07.1.25l.24-.25a.908.908 0 0 0-.33 0z"/></g></g></svg>