<svg xmlns="http://www.w3.org/2000/svg" xml:space="preserve" width="69.853" height="94.603" style="shape-rendering:geometricPrecision;text-rendering:geometricPrecision;image-rendering:optimizeQuality;fill-rule:evenodd;clip-rule:evenodd" viewBox="0 0 105.68 143.13"><path d="M22.44 99.18c6.09 5.04 17.15 8.31 24.54 10.14l3.1.77-.81 3.08c-3.62 13.72-14.69 20.23-27.14 24.49.05.09.1.18.15.28 3.33.27 6.62.01 9.87-.97 9.42-3.53 18.4-4.79 28.43-3.33l.57.14c4.34 1.5 8.64 2.47 13.02 2.95-10.39-3.43-17.1-11.32-20.15-23.8l-.8-3.28 3.33-.56c6.55-1.1 12.66-3.33 17.77-7.09-1.66.16-3.37.21-5.01.04l-5.86-.52-.88-.49c-1.42-.8-7.99-2.64-9.77-3.22-2.38-.78-2.42-.69-4.97-.85-1.88-.12-3.68-.69-4.75-2.2h-3.16l-11.41 1.45-.75 2.32-4.98-3.92c.18.87.36 3.33.46 4.32l-.8.26zM51.3 27.69c-4.84 13.67-11.29 25.14-18.75 37.52 1.34-.66 5.41-2.74 6.91-3.05l4.94-1.03c1.38-2.24 3-4.3 4.57-6.41l2.48-3.33 3.64 2.19c2.06 1.24 3.81 2.96 5.86 4.14 2.11 1.22 3.42 1.71 5.6 2.63C60.76 50.33 54.59 38.9 51.3 27.69zm34.29 69.77c-6.32 9.03-15.65 14.11-26.21 16.32 3.82 12.9 12.29 19.07 26.37 19.52l2.68.08-2.37 8.6-1.51.09c-8.75.5-16.97-.56-25.26-3.4-9.07-1.29-17.09-.11-25.63 3.1l-.13.04c-4.5 1.36-9.08 1.61-13.72 1l-1.08-.14-4.35-8.26 2.43-.75c8.65-2.65 18.62-6.65 23.83-14.5 1.12-1.68 1.98-3.47 2.64-5.36-6.77-1.77-14.07-4.16-20.02-7.6-2.49-1.44-5.56-3.56-7.35-6.17l-15.92 5.16 4.71-7.41c1.43-2.24 3.88-6.42 3.88-9.12v-4.01c0-1.17-1.1-2.68-1.52-4.31l-.72-2.77 14.47-5.34.47 1.33c1.69-2.93 3.45-5.83 5.2-8.72 4.53-7.49 8.98-14.96 12.85-22.82 4.41-8.96 8.02-18.25 10.34-27.98L53.02-.01l.8 14.42c.88 15.9 11.39 34.05 19.47 47.82.8 1.37 1.61 2.74 2.42 4.11.48.24.96.49 1.43.73 2.44 1.24 3.03 1.6 5.59 2.36 1.34.4 6.59 1.84 7.79 1.84h3.98l.67 2.26c.25.83 2.07 2.94 2.69 3.6.59.62 2.39 2.38 3.13 2.61l4.67 1.12-2.87 3.85c-3.11 4.17-7.46 7.49-12.14 9.72l-.96.46-2.05-.45a2.95 2.95 0 0 0-.66-.06c-.23 1.1-.67 2.14-1.4 3.08zm-3.06-18.97c.96 1.86 1.91 3.81 2.7 5.78.29-.62.48-1.28.51-2.01-.21-.71-1.2-2.62-1.73-3.38-.38-.14-.95-.28-1.48-.39zM43.65 93.66h-4.09l-11.83 1.51.65-3.5-1.54 4.77-3.57-2.81c-1.13-.89-2.29-3.1-3.08-4.39l-.09.97.09 2.34c.75.94 1.09 1.85 1.21 3.13l.23 2.52-3.59 1.16c3.01 3.83 11.03 8.78 27.92 12.95-3.09 11.72-12.15 18.36-28.52 23.37.89 1.68 1.77 3.36 2.66 5.05 4.28.56 8.55.37 12.83-.93 7.74-2.91 16.19-4.74 26.87-3.18 6.99 2.42 14.85 3.91 24.64 3.35l1.26-4.56c-16.66-.53-25.41-8.84-28.93-23.27 12.07-2.03 21.23-7.45 27.15-15.93.43-.53.73-1.14.92-1.81h-1.16l-.15 1.23c-.47 3.83-5.5 4.78-8.61 5.15-1.87.23-3.92.36-5.79.16l-5.52-.49-.59-.33c-1.61-.91-8.01-2.67-10-3.32-2.5-.82-2.67-.76-5.35-.92-1.66-.1-3.25-.61-4-2.2zM22.31 76.04c.18.29.37.58.56.86 1.17-2.85 2.2-6.62 5.01-8.07 2.82-1.46 6.04-3.07 8.93-4.41.73-.34 1.96-.92 2.72-1.08l4.99-1.04-.41 1.59c1.57-3.08 3.87-5.97 5.72-8.45l1.71-2.29 2.45 1.47c2.06 1.24 3.81 2.95 5.86 4.14 2.43 1.4 3.86 1.89 6.35 2.96l2.11.91-.11 1.17 3.08.64c.35.07.7.18 1.04.31-9.03-15.36-19.68-33.71-20.6-50.2-6.3 26.38-20.98 46.5-29.41 61.49zm21.73 13.61c.14-.3.29-.63.29-.97v-2.19c0-.99 0-1.33-.59-2.12l-.49-.65-1.1-7.97.17-5.99c-1.17 2.54-2.23 3.82-2.23 6.89v4.74c0 3.89 2.96 4.92 3.94 8.26zm23.47-21.64c-.31 1.18-.61 2.31-.61 3.53v7.9h-8.26l.32-3.45c.22-2.39 1.2-3.04 1.2-4.81 0-1.38-.06-2.01-.55-3.43-.13-.38-.53-1.32-.87-1.79-3.24.09-4.84 3.86-4.84 6.68v4.99c.05.42 1.05 2.78 1.23 3.2.3.68 1.36 2.97 1.77 3.57 2.13 3.05 2 3.18 5.28 5.15.25.15.51.31.78.47 1.61-3.93 6.13-5.99 6.13-11.91v-2.55c0-1.86-1.3-4.8-1.59-7.54zm13.78 12.7c-.13 1.71-.18 2.29-.66 3.91l-.76 2.44 3.74-.32.21-.27c-.64-1.77-1.5-3.7-2.52-5.76zM44.54 70.35c.01-4.76 4.39-10.09 7.13-13.76l.67-.9 1 .6c2.09 1.26 3.8 2.95 5.92 4.17 2.62 1.51 4.6 2.22 7.31 3.39-.14 1.46-.21 2-.6 3.5-.37 1.41-.68 2.64-.68 4.1v5.83h-4.14c.12-1.31.11-1.9.64-3.21.68-1.68.68-2.01.68-3.73 0-1.72-.82-4.44-1.89-5.83-.17-.22-.64-.77-.99-.77-1.11 0-1.91.07-2.94.57-3.05 1.47-4.41 5.29-4.41 8.23v5.12c0 1.13 2.63 6.8 3.4 7.92 2.29 3.28 2.37 3.62 5.92 5.75 2.28 1.37 5.47 3.39 8.29 3.55 2.46.14 3.03.29 5.53.03.87-.09 1.71-.23 2.56-.39 2.17-.41 2.17-.37 4.18-.41l-.15 1.22c-.29 2.39-4.77 3.1-6.86 3.35-1.69.21-3.76.34-5.46.16l-5.15-.46-.24-.13c-1.88-1.06-8.12-2.75-10.38-3.49-2.66-.87-2.99-.84-5.83-1.02-.92-.06-1.98-.23-2.38-1.09-.56-1.21.9-2.23.9-4.03v-2.2c0-1.46-.13-2.23-1.02-3.42l-.16-.21-1-7.27.14-5.21zM83.7 92.3l-13.39 1.09c-1.03.09-3.77-.43-4.71-.83l-.9-.39c.49-1.66.67-2.13 1.86-3.64.72-.92 1.49-1.79 2.18-2.73 1.8-2.44 2.7-4.8 2.7-7.75 0-2.85.15-3.32-.68-6.26-.79-2.79-.83-3.04-1.08-5.74 1.98.41 1.97.33 3.94 1.28 6.1 2.96 5.5 3.2 12.18 4.93 1.06.27 4.13 1.05 5.19 1.05h2.55l.24.8c.59 1.97 5.3 7.17 7.3 7.65l1.62.39-.93 1.25c-2.85 3.82-6.92 6.99-11.44 9.13-.49.24-.29.21-.83.1-.88-.18-1.23-.34-2.17-.34h-3.61zm1.31-3.57c1.62-2.12 3.14-3.86 3.14-6.66 0-.8-1.86-4.35-2.51-4.96-.54-.37-2.67-.81-3.33-.93-.67-.12-1.43-.24-2.16-.3-.36 2.06-.29 4.47-.63 6.68-.17 1.15-1.98 6.4-2 6.57-.01.1.09.16.15.22l7.34-.63zm-61.62-8.5c.77-.48 1.87-3.5 2.17-4.29.64-1.65 1.64-4.4 3.4-5.31 1.25-.64 9.9-5.07 11.21-5.34l1.88-.39c-.47 1.83-.6 2.59-1.49 4.39-1.3 2.65-2.18 4.13-2.18 7.3v4.76c0 4.72 3.24 6.19 4.03 8.87l.4 1.36H39.7l-9.3 1.18 1.24-6.68-.15-1.8c0-2.08-.36-2.65-.94-4.41h-.21l-4.28 13.21c-1.47-1.15-1.68-1.15-2.72-2.82-.48-.78-.94-1.57-1.42-2.35-.33-.54-1.68-2.65-2.32-2.91l-.55.01-.28.21-.45 4.94.09 2.54c0 .38-.01.67.26.97.95 1.06.92 1.74 1.04 3.06l-14.84 4.81c2.22-3.5 5.84-8.84 5.84-12.86v-4.02c0-1.86-1.15-3.13-1.6-4.88l-.23-.89 10.96-4.04c.34.96.37 1.2.9 2.1.49.84 1.85 2.82 2.65 3.31zm18.77 3.34-.45-3.29c0 1.25-.07 2.13.45 3.29zm20.58 4.72c1.63-2.71 4.19-4.58 5.07-7.8H57.52l.43-4.65c.23-2.43 1.21-3.29 1.21-4.75 0-1.28-.02-1.73-.47-3.05-.1-.29-.22-.62-.37-.93-1.88.73-2.76 3.61-2.76 5.45v4.95c.04.31 1.05 2.67 1.2 3 .28.62 1.27 2.77 1.64 3.31 1.68 2.41 1.76 2.93 4.34 4.47z" style="fill:#000"/></svg>