<svg xmlns="http://www.w3.org/2000/svg" xml:space="preserve" width="96" height="72" style="shape-rendering:geometricPrecision;text-rendering:geometricPrecision;image-rendering:optimizeQuality;fill-rule:evenodd;clip-rule:evenodd" viewBox="0 0 47.53 35.65"><path d="M15.31 35.65c1.14 0 .97-2.19 1.13-2.39.36-.21.93-.1 1.38-.27 1.08-.42.52-2.5.75-2.98.21-.41.75.28.91.5.31.45.36.68.61 1.2.18.38.56.63.86.9 2.11 1.91 2.53 2.21 3.39-.76.08-.29.33-1.1.45-1.28.23-.33.63-.39 1.1-.39.1.49.9 2.34 1.15 2.7.35.5.58.54 1.2.6 1.76.18 3.22.96 3.22-1.94 1.72-.49 1.83-.99 2.36-1.14 0 1.21-.05 2.19.51 2.79 1 1.09 5.91.78 7.27.55.6-.1 1.13-.18 1.68-.26 1.94-.28 2.07-1.06 2.07-2.62 0-1.44-1.65-2.38-1.7-4.89.92-.74 1.45-2.09 2.09-3.16 1.3-2.16.66-3.26 1.02-4.34.33-1 .76-1.31.76-2.83 0-1.45-.79-2.71-1.93-3.36-.5-.28-.32-.25-.45-.92-.28-1.46-1.12-1.62-2.15-1.62-.06-1.19-.8-1.83-1.54-2.36-1.67-1.2-.61-.82-2.62-.82-.26-1.95-1.21-2.83-2.4-3.7-1.72-1.26-2.9.05-3.74.62-.26-.36-.28-.83-.51-1.3-1.06-2.15-1.56-1.6-2.67-.58-.6.55-.65.25-1.13.58-.23.16-.68.72-.85.79-.3.12-.69-.34-1.05-.52-1.59-.79-2.23.08-3.23.36-.11-.55-.48-2.08-.83-2.52-.67-.84-2.26.41-2.46.62-.77.83-.34 1.39-.68 2.25-.41-.13-.38-.35-.64-.71-1.14-1.6-1.66-.38-2.29-.31-.71-1.61-.86-1.7-2.95-.7-.62.3-.77.68-.93 1.5-.49-.16-.34-.57-.94-.57-.83 0-1.38.66-2.08.68-.14-.61-.63-.48-1.13-.68C8.32-.97 6.83.02 5.59.68c-1.3.7-.76 1.12-1.24 1.12-.58 0-.76-.11-1.3.03-.78.2-1.59 1.01-2.03 1.76C.31 4.8.01 6.14.01 8.05c0 .44.21 2.02.3 2.47.75 3.59 3.63 5.15 5.87 3.47 1.08-.81.7.08 1.48.08.35 0 1.17-.45 1.51-.45.77 0 .3-.03.57.23 1.08 1.05 1.14-.06 1.9.32.36.18.67.45.75.85-.36.21-.87.5-1.13.76-.58.58-.37 1.24-.66 1.24-.65 0-1.6-.8-3.41.56-.32.24-.53.45-.81.73-.32.32-.37.49-.63.84-1.75 2.34-1.74 7.6-.81 10.46 1.07 3.29 3.7 5.53 6.57 4.42.33-.13.65-.31.84-.54l1.41 1.18c.39.32.98.98 1.55.98z" style="fill:#000"/><path d="M24.47 26.44c0-.35.55-2.8.85-3.07.13.69.39 1.52.56 2.19.17.68.26.88-1.41.88zm-6.39-1.55c-.28.09-.78.18-1.08.18-.1-.53-.37-1.64-.38-2.16 1.88 0 2.99 1.5 1.45 1.98zm6.39-7.54-.57 1.36c.08.16.04-.04.04.2 0 .01-.02.21-.03.25l-1.99 8.19c-.5-.05-1.04-.65-1.73-1.1-.35-.22-.32-.12-.53-.49.51-.41 2.87-1.5.54-3.61-.61-.55-.87-.43-1.2-.85l-.38.03c-.08-.19-.08-.2-.19-.34-.14.1.04.09-.28.09-.38 0-.04.01-.22-.05l-1.4-.5c-.47 0-.48-.14-.85-.11-.54.04-.12.17-.66.23-.3.24-.29.33-.66.57 0 1.36.57 2.39.66 3.64-.48-.15-.22-.82-2.55.57-.97.57-1.7.83-2.55 1.36 0 1.62-.51 1.14 2.46 1.14 0 .61-.13.81-.36 1.16-.21.31-.39.54-.7.74-1.39.93-2.61-.76-3.08-2.25-.48-1.52-.77-3.83-.31-5.46.18-.65.84-1.56 1.48-1.19 1.22.71 1.57 3.45 1.94 4.27.37-.04.77-.49 1.29-.83.7-.46.69-.38.83-1.5l.69-6.45c-.05-.66-.6-.11-1.28.29-.19.11-.47.26-.7.41-.59.38-.45 1.01-.45 1.96 0 .59-.07.69-.1 1.13-.89-.57-.84-1.46-2.27-1.48-.67-.01-.96.11-1.4.37-.43.25-.84.56-1.15 1-1.27 1.75-1.64 4.12-1.35 6.52.27 2.23.95 4.28 2.66 5.21 1.56.84 3.28.85 4.53-.84.27-.37.15-.43.5-.54 0 1.6-.32 1.52 1.36 2.8.37.28.6.47.63-.28l.18-5.92c0 .57.1.78.1 1.47-.01 1.84-.24 2.69.56 2.74 1.91.11 1.4-.22 1.33-1.83-.01-.28-.09-1.87-.08-1.91.32-1.04 2.38.89 3 1.81.14.21.29.33.41.53.18.31.11.4.29.67.05.07 1.62 1.53 1.96 1.62l.91-2.89c.21-.76.24-.68.96-.77.5-.06.93-.2 1.53-.2 1.77 3.18.3 3 2.6 3.46 1.56.31 1.47.26.51-2.32-.12-.33-.35-.83-.38-1.25.83 1.15 1.35 1.92 3.08 1.2 2.53-1.05 2.75-4.74 2.6-7.57-.07-1.31-.62-3.44-1.23-3.97-.4.04-.62.36-.9.62-1.49 1.36-.64.36-.22 3.35.16 1.14.52 3.21-.1 4.45-.47.94-1.16.65-1.53-.55-.37-1.22-.5-3.51-.33-4.88.04-.3.26-1.36-.24-.88-.16.16-.2.26-.4.46-.22.2-.21.2-.41.42-.53.61-.94.73-.97 2.35-.03 1.32.19 2.19.19 3.3-.2-.28-.25-.6-.37-1.04-.1-.38-.2-.81-.27-1.15-.37-1.6-.82-3.18-1.1-4.7-.16-.88-.25-2.1-.43-2.55-.36.04-1.3.51-1.89.68v-.34z" style="fill:#fe0000"/><path d="M36.1 28.72c.59-.63 1.6-2.03 1.8.8-.79.46-1.41.08-1.8-.8zm-.47-1.93.09-1.14c.41.01.49.17.76.34 0 1.21.05.66.13 1.32.09.7-.98 1.73-.98-.52zm.38-1.82c0-.59.25-.71.57-.91.18.32.38.47.38 1.02 0 .09-.3.45-.38.45-.22 0-.42-.22-.57-.34v-.23zm3.97-1.25.47 2.16c.23.72-.07.49.34.96.3.35.26.35.45.82.21.51.51 1.36.8 1.77.63.9 1.08.53 1.25 1.34h-4.54c.12-.53.38-.42.8-1.42 1.42-3.39-.85-5.26.43-5.62zm2.08-3.41c-.17-.88-.54-1.32-.76-1.7.4-2.08.49-.5.38-3.41-.04-1.05.03-.86-.39-1.57-.51-.85-.5-.37-.59-.83-.02-.13-.01-.06.03-.32h1.04c.05.25.09.56.15.84.09.38.14.39.23.75.54 2.31.18 2 .03 3.91-.09 1.13.41 1.09.82 1.21 0 .81-.28 1.09-.94 1.14zM34.6 10.08c.14 0 .07.12.29.22.33.16.66-.24.66.69 0 1.06-1.61.36-1.61-.34 0-.37.34-.57.66-.57zm-1.42-1.7c0-.24.12-.74.19-.91.62.19.42.56.57 1.36.35 1.87-.57 1.44-.63.48-.04-.7-.13-.54-.13-.93zm2.36-2.5c.73.2 1.13 1.32 1.13 2.16-.78 0-.65-.03-.92-.6-.22-.47-.41-.39-.41-.87 0-.35.09-.46.19-.68zm-1.42 1.59c-1.23-.99.28-1.81.91-1.89.07.18.25.45-.01.94-.3.58-.44-.11-.91.95zm-1.8.57c0 2.07.74 4.55 2.55 4.77.54.07 1.1.79 2.29-.88.37-.52.03-.48 1.02-.48.29 0 .28.16.28.45 0 .68-.61.34-.86 1.4l-.03.13c-.02.11.04.04-.06.29-.68-.19-.97-.31-1.84 1.2-.51.88-.33.99-.44 2.19-.22 2.31.04 1.94.49 3.31.19.58.19 1.41.19 2.05 0 .78-.39.51-.95 1.93-.71 1.8-.35 5.01 1.24 6.24.3.24.15-.01.37.35-.61.35-1.31.04-1.7.68 1.01.64 6.77.34 8.12-.01.38-.1.69-.23 1.04-.33.01-.71-.42-.89-.65-1.49-.95-2.56-.41-.87-.94-3.42-.68-3.28-.39-2.02.26-2.02.66 0 1.33-1.5 1.66-2.09.51-.91 1.17-1.62 1.17-2.91 0-.47-.14-.43-.22-.77-.17-.69.1-.05.13-.83-.26.21-.41.54-.79.28-.32-.22-.43-.58-.44-1.07.6.28.11.34 1.04.34l-.76-.34c.08-.83.19.13.19-.91 0-.5-.38-.4-.66-.57.05-.26.07-.26.09-.57.91 0 .55.34.94.34.22 0 .28-.23.66-.34.47.29.22.66.19 1.14-.28-.08-.29-.11-.66-.11-.09 1.26.08.32.09 1.25 1.72-.48 1.02-3.18-.28-3.18-1.35 0-1.06.47-1.42 1.36-.52-.17-.43-.5-.7-.86-.5-.66-.53.31-.53-2.2 0-.23.17-.51-.17-.93-.24-.31-.69-.32-.69-.55 0-.81.72-.85-.53-1.75-1.49-1.08-1.93-1.49-2.12 1.19-1.31-.37-.41-.42-1.33-3.74-.05-.19-.2-.73-.3-.89-.31-.53-.24.03-.68-.54-.76-.97-1.86-1.32-2.81-.53-.3.25-.54.47-.74.81-.29.49-.75 1.76-.75 2.62z" style="fill:#fff"/><path d="M13.61 9.06c0-.15.36-1.78.66-2.05.27.24.57 1.8.57 1.93 0 .28-1.23.48-1.23.11zm10.68-2.27c0-.67.28-1.36.94-1.36.97 0 1.15 3.52 0 3.52-1.06 0-.94-1.26-.94-2.16zm-4.44 1.02c-.31-.27-.28-.63-.51-1.09l-1.09-2.09c-.17-.26-.49-.87-.76-.91-.22.06-1.04.57-1.04.8l.53 3.23c.17 1.09.34 2.35.42 3.47.67-.07.63-.36 1.13-.68l-.09-2.5c.55.18 1.23 2.27 1.23 3.07.68 0 .53-.2 1.04-.34 0-.83.09-1.18.09-1.93.01-.76.17-1.2.28-1.82h.28l.36 1.95c.14.67.21 1.44.21 2.25.4-.01.86-.28 1.13-.45 0-.55-.06-1.1.09-1.48.28.09 1.49 1.97 3.31.46.38-.32.73-.98.85-1.6.61.19.17.75.82 1.62.36.48 1 .75 1.63.53.52-.18.98-.68 1.28-1.2.76-1.33.74-5.28-.1-6.12-.09-.09-.16-.13-.23-.18-.36.23-.6.51-.94.8.03.44.21.73.32 1.21 1 4.38-1.31 5.02-1.36 2.09-.02-.93 0-1.91 0-2.84-.3.24-.37.45-.72.73-.38.3-.46.32-.51.98-.37-.12-.24-.17-.45-.59-.34-.69-1.34-1.22-2.05-1.05-1.87.44-1.76 1.69-2.23 2.1-.38-.34-.53-2.1-.77-3.16-.08-.33-.19-.67-.26-1.05-.35.03-.94.36-1.09.62-.4.69-.19 4.63-.8 5.17zm-14.27-5c0 .77.02 1.53-.19 2.05-.83-.27-.83-1.93-2.84-.69l-.52.51c-.08.12-.01 0-.09.12-.01.02-.03.04-.04.06l-.15.28c-.21.46-.36.78-.46 1.38-.31 1.9-.18 3.21.65 4.75 1.16 2.16 3.59 1.33 4.13.77.64-.64.89-1.45 1.3-1.62.22.4.28 1.12.28 1.7.44-.04.91-.25 1.23-.45-.08-.43-.09-.46-.1-1.02 0-.53-.28-1.46.97-1.4.87.04.34.95.74 3 .52 0 .83-.23 1.16-.13.58.18.35.53.92.59.1-.51.27-.91.43-1.41.38-1.15.46-.97 1.84-.97.65 0 .46 1.94 1.34 2.14l1.12.02c-.16-.84-.46-1.44-.65-2.17-.45-1.7-1.52-5.95-1.52-7.37-2.06.21-1.46 1.11-2.04 3.34-.11.42-.21.7-.31 1.11-.36 1.51-.39 1.03-.68 2.13-.13.5-.11.64-.46.92-.26-.65-.19-5.07-.19-6.02-.54 0-.39.01-.75.24-.24.15-.47.28-.67.44 0 1.14.19 2.19 0 3.18-.46.27-.61.23-1.13.23-.45 0-.28-.88-.28-1.82l-.09-2.16c-.38.11-.92.37-1.23.57 0 1.61.09 2.81.09 4.43-.53.15-.46.34-1.23.34-.12.26-.21.45-.36.71-1.39 2.37-3.23.11-3.23-3.32 0-1.83 1.22-3.63 2.13-.86.15.46.5 1.73.51 2.23.55-.16.67-.5 1.32-.91 0-1.37.47-4.16.47-5.57-.34.01-1.12.49-1.42.68z" style="fill:#0f0"/><path d="M15.02 20.65c.55-.05.13-.19.66-.23.37-.03.38.11.85.11 0-1.72-.17-2.15-.19-3.18.27.23.8 1.36 1.06 1.79.37.6.76 1.27 1.01 1.85.11.14.11.15.19.34l.38-.03c.38-.3.58-.19.92-.54l-.37-4.53c-.17-1.81-.15-3.08-.27-4.79-.47.05-1.09.47-1.42.68 0 1.1.31 4.81.57 5.62-.25-.15-1.19-1.85-1.54-2.41-1.84-2.93-1.49-2.47-2.62-1.74.01.54.19 1.05.27 1.6.32 2.19.49 2.85.49 5.44zm6.33-4.54c0-.58.43-1.25.85-1.25 1 0 1.27 3.41 0 3.41-.96 0-.85-1.23-.85-2.16zm2.55 2.61.57-1.36c.01-.55.14-.57.08-1.22-.35-3.43-3.42-3.43-4.46-1.09-1.1 2.47.58 5.99 3.12 4.33.37-.24.38-.4.69-.65z" style="fill:#ff0"/></svg>