<svg xmlns="http://www.w3.org/2000/svg" xml:space="preserve" width="128" height="64" style="shape-rendering:geometricPrecision;text-rendering:geometricPrecision;image-rendering:optimizeQuality;fill-rule:evenodd;clip-rule:evenodd" viewBox="0 0 107.28 53.64"><defs><style>.fil0{fill:#000}.fil3{fill:#e80b01}.fil4{fill:#fd0400}.fil1{fill:#fefefe}.fil2{fill:#ff0b00}.fil5{fill:#ff1400}.fil6{fill:#ff2c00}.fil10{fill:#ffe700}</style></defs><g id="Camada_x0020_1"><g id="_2475191146768"><path class="fil0" d="M100.58 47.75c-.66.46-2.03.71-3.24.27-.92-.34-1.57-1.3-.51-1.97 2.3-1.44 5.53.46 3.75 1.69zM10.01 47c.51-.68 1-2.05 1.85-2.47.79-.4 2.59-.93 4.07-.63-.32 1.08-1.33 2.19-2.19 3.07-1.84 1.88-6.72 3.05-8.57 1.11-3.33-3.49-4.56-14.7-.4-17.18l1.47-.7c5.39-1.98 7.88.48 9.21 3.3 1.65 3.5.8 6.77-4.86 8.66-2.51.84-3.27.22-2.5 1.98.33.76.95 2.42 1.92 2.86zm38.52-15.69c.55-1.93 1.22-5.12 5.48-5.31.92-.04 1.94-.04 2.75.18 5.03 1.34 8.9 6.88 7.95 10.83-1.06 4.4-4.27 4.96-4.8 5.74.21.25-.06 0 .33.28 2.07 1.53 6.87 3.78 6.46 5.23-.23.83-2 1.45-3.48.88-.73-.28-.85-.53-1.32-.89l-6.74-4.33c-.39.71.67 2.2.33 3.38-.15.53-1.9 1.08-3.13.83-1.44-.29-1.44-1.03-1.63-1.89-.36-1.61-.8-3.3-1.19-4.8-.41-1.57-.81-3.14-1-4.78-.18-1.62-.54-3.48 0-5.37zm-10.45-1.18c1.67-.58 1.65-.69 3.81-.33 4.26.7 5.03 3.34 5.48 5.79.63 3.43-.98 10.37-8.31 10.59-2.11.06-2.62-.13-3.94-.77-1.77-.85-2.52-2.65-2.52-4.34 0-2.94 1-5.38 3.44-7.91.61-.64 1.79-1.31 2.38-1.85-.45-.55-.58-.31-.34-1.18zm-14.81 8.56c-2.05-.94-2.72-1.39-3.13-3.35-.69-3.31 1.8-5.97 5.84-7.92 1.79-.86 3.59-1.34 5.77-1.93 1.18-.32 2.34-.53 3.22.29.57.53.82 1.48-.03 2.06-1.21.83-8.51 1.68-9.86 5.22-.58 1.52-.43 3.96 2.69 2.57 1.35-.59 4.22-1.94 5.38-.13 1.11 1.73-1.74 2.53-3.3 3.18-2.52 1.05-4.32 3.89-4.34 6.03-.02 1.78 2.6 5.64-.56 6.28-3.72.75-3.24-2.45-3.44-3.02-2.09-6.02 1.13-6.96 1.76-9.29zM6.94 27.47c-2.01-.73-.05-2.43.92-4.11.59-1.02.96-1.92 2.98-1.72 2.05.2.11 2.42-.41 3.26-.76 1.22-.86 2.73-3.49 2.57zm26.52-6.13c.38.28.8.51 1.16.74.37.24.74.54 1.13.77.62.37 2.33 1.4.52 1.73-1.19.22-2.04-.85-2.68-1.23l-2.53-1.51c-.18.64.94 2.35-1.24 2.14-1.12-.11-1.07-1.37-1.35-2.5-.46-1.9-2.17-7.59 1.2-8.66 3.39-1.08 8.68 3.79 5.24 7.41-.51.54-1.04.63-1.46 1.11zm10.36-3.51c-.53 1.88-2.39 1.89-4.59 2.08-.01.93.24 1.68.62 2.33l.75-.51c.24-.24.2-.34.65-.48.46-.14 1.9-.21 1.83.26-.04.22-1.15 1.63-3.3 1.62-4.07-.02-3.22-5.81-2.57-7.76.94-2.83 4.89-2.58 6.18-.46.42.7.7 2.03.45 2.93zm-27.23-3.35c.45-1.59.27-.87.95-1.51 2.01.26 1.33.5 1.8 2.39.1.41.12.68.21 1.07.24 1.06.89 2.71 1.53 3.59l2.74-1.98c.26-.04 3.07-.02.07 2.11-2.88 2.05-1.7.89-.63 2.93.43.81-.39 1.39-1.84 1.07-.38-.16-.39-1.06-1.51-1.73-.49.42-1.82.89-2.59 1.21-1.53.63-.76.86-2.36 1.52-2.63-.7-.45-.72.73-5.02.62-2.24.62-4.69.89-5.63zm35.13-1.39c3.25 1.73-3.71 7.31-4.17 8.14 2.47.09 7.51-2.34 6.7.15-.99.38-6 1.62-7.75 1.24-3.52-.77.34-3.32 1.31-4.41.6-.68 2.05-2.33 2.1-3.2-2.02.8-3.35 2.97-4.84 2.78-1.03-.13-1.08-.79-.53-1.27.74-.65 3.46-2.54 4.77-3.07.66-.27 1.54-.44 2.4-.37zm7.39 2.19c-1.31-1.62-4.65-.03-5.45-1.03-.95-1.19 3.77-1.28 5-.99 5.57 1.31 4.41 8.69.83 9.81-2.9.91-5.15-1.32-5.09-3.19.1-3.07 4.16-4.2 4.7-4.61zm8.53 8.4-.59-.55c.2-.44.57-.57.91-.92l-.59-.49c-.53-.57-.73-4.46-.68-5.26.06-.87-.08-2.52 1.03-2.93 2.78-1.04 8.39 2.23 6.15 6.32-.54.97-1.21 1.73-2.33 2.41-.99.6-2.46 1.43-3.89 1.42zm28.81-6.27.45.04c-.15.6-.87 1.34-1.47 1.69l-.15-.15a.5.5 0 0 0-.07-.08c-.27-.41-.27-.92-.27-1.35-.01-.6-.04-1.15-.02-1.74.01-.34 1.43-1.98 2.02-3.24l.96.37c-.28 1.76-.98 2.78-1.45 4.44zm.82-6.01.01-.24c-.02-.47.12-.75.55-.99.64.18.69.29.67.82-.02.64-.09.86-.67 1.1-.6-.21-.47-.15-.56-.69zm-8.73-.47-.47 5.41c0 .66.29 1.1-.27 1.71-1.12-.37-1.21-2.72-1.06-3.28.19-.71.57-1.35.79-2.12.21-.75.24-1.49.48-2.17l.95.2c-.26.11-.04.05-.41.25zm-8.2-2.25.48 4.88c-2.31-.59-.5-.64-.84-3.59-.07-.59-.4-.81.36-1.29zm6.69 10.5-.26-.48c.78-.27-.28.03.75.06.48.01.63-.1.9-.33.34-.28.8-.95 1.02-1.32.8-1.31 2.25-5.1 2.68-6.57.75-2.57.15-.95 2.85-.84l-.65 4.79c-.01.44.05 1.01-.11 1.59-.49-.99.31-4.69.32-6.05-.9.21-.86 1.66-1.12 2.71-.31 1.28-.76 7.16-.35 8.21.85 0 .85-.01 1.41-.25.07-.51-.44-1.05.09-1.54-.01.48.12.68.82.86.85-.23 1.4-1.07 1.79-1.62.54-.76.92-1.26 1.42-2.05.66-1.03 1.89-3.44 2.69-4.19.97.54.16.47 1.7 1.01l-.48 1.04c-.21-.7.55-.43-.4-.84-.51.38-4.41 7.77-5.59 8.7l-.09.17c-.79 1.51-3.43 4.38-3.41 5.1 1.48.24 2.66.21 3.48-.32.18-1.08-.03-2.18.46-3.48.39-1.03.94-2.2 1.48-3.2.03 1.39-3.4 5.52-.62 8.15l-.63 1.05c3.55-.1 2.99.64 3.03 2.32.01.54.15 1.29.2 1.91.12 1.5 1.32 8.86.11 9.5 0 0-4.39 1.15-4.31-1.07.11-2.84-.11-4.85-.47-7.7-.12-.92-.53-2.92-.3-3.84-.22.16-.16.01-.26.36-.05.2-.02.2.02.41-.92.04-.33-.19-.74.18.53 1.73 1.23 4.29-.66 6.26-2.26 2.35-6.82 1.92-8.18 2.27.08 1.3.68 3.52 1.62 4.33.38-.27.77-.63 1.04-.96.86-1.08.79-1.18 3.15-1.21.39 0 .68-.03 1.08.02 1.02.11 1.02.32 1.02.32-.04.67-2.26 2.86-4.16 3.39-.77.22-1.96.29-2.71.27-2.43-.06-3.18-.48-4.08-1.5-2.04-2.31-1.95-6.93-1.82-9.56.11-2.25.77-4.24 2.03-6.27-1.4-.67-.45-.06-1.05-.87-.84 1.02-5.59 2.84-7.48 3.48-1.97.67-1.09 1.23-1.54 3.76-.32 1.81-.51 4.17-.32 5.91.11.99.69 4.49 1.83 4.92 1.71-1.84-.13-8.7.33-9.95 1.68-.11 2.37-.45 4.38.14.66.88.77 5.85.73 7.27-.04 1.19-.68 3.02-1.74 3.73-1.05.71-4 .82-5.67.5-7.02-1.33-3.92-13.18-4.32-13.48 0 0-3.08-.05-3.12-1.17-.05-1.35 3.64-1.77 3.76-2.8l.15-4.49c.94-.07 3.93-.62 4.53.27.07.11.13.28.15.36.19.72-.05 1.89.15 2.3 1.2-.13 3.69-1.48 4.55-2.08-.17-.4-.72-.61-1.14-.91-.31-.22-.89-.77-1.07-1.01-.41-.54-.98-1.87-.06-2.49-.59-.63-.82-.61-1.16-1.47-.26-.65-.34-1.14-.1-1.93.47-1.5 1.58-2.33 3-3.19-.44-.55-.52-.54-.35-1.2 1.23.1.6.13.88-.16-2.42-.21-3.49.35-4.21-.25-.25-.23-.46-.41-.04-.77.62-.53 3.58-.46 4.23-.39 2.25.24 2.97 1.2 3.73 2.1.45-.39.64-5.32 1.13-6.46l2.26.22c-.16.51-.82.27-.68 1.37.07.61.09 1 .09 1.54 0 1.08.04 1.97.07 3.1.02.67-.32 4.12.35 4.52.25.15.77.28 1.19.28.82 0 .68-.04.79-.5zm1.13-11.2c.69-.05.42-.1 1.05.06.13.45-.32 2.34-1.18 1.34-.33-.39-.04-.9.13-1.41zm-9.99 4.75-1 .05c-.46-.45-.47-1.66-.62-2.58-.08-.49-.53-2.32-.31-2.76.81-.11.65.07 1.49-.13-.76.38-.8.49-.5 1.26.3.76 1.21 3.61.94 4.17zm26.07-3.07c.52.28.51-.15.68.41-.02 0-.04-.03-.04-.02-.22.32.14-.13-.42-.03.05.58-.01.77-.25 1.33-.66 1.52-.05-.12.14.87-.54.25-.99.65-1.82.15-.38-.23-.66-.86-.72-1.28-.54-3.7 3.56-2.58 2.71-1.64l-.27.21zM80.13 8.11c-.81-.61-1-1.18-.11-1.93.97.19.77.41.71.87-.07.52-.18.83-.6 1.06zm5.92-1.44c-.29 1.03-.5 1.16-1.47 1.68-1.59-.19-1.89-.9-2.05-1.73-.58-3.02 2.66-4.82 3.63-1.78l.14.55c.01.19 0 .47-.01.66-.04.63-.13.24-.24.62zm8.73 2.01c.52-.33.45-.18.94-.71.28.38-.66 1.01-1.09 1.24-3.69-.39-2.19-5.41.01-5.02 1.11.2 1.36 1.03 1.55 1.67-.04-.03-.07-.1-.1-.08-.05.04-.05-.16-.68-.41.64 1.91-.13 2.05-.63 3.31zM77.47 2.66c.97.44.23.4.82.95-1.01.41.19-.14-.66-.11.28.6.31.83.2 1.42-.08.39.01.29-.25.72-.03.04-.22.36-.22.37-.05.34-.09.17.12.41.51-.56.61-.93.83-1.71.5 2.29-3.63 3.31-3.22-.21.15-1.33 1.35-2.62 2.38-1.84zm29.8 7.4-.09-.19c-.01-.03-.03-.06-.04-.1 0-.01-.08-.27-.09-.3-.29-1.04-.73-2.64-2.33-3.28-2.67-1.06-3.94 1.15-4.78 2.35-.95-.69-1.36-.68-1.5-.94-.06-.11.09-1.93-.37-3.13-1.11-2.9-4.15-3.63-6.06-1.8-1.12 1.06-1.28 1.79-1.67 3.17-2.46-.69-1.7-.5-2.08-1.79-.28-.97-.93-2.3-2.35-2.96-1.17-.53-2.59-.29-3.45.37-1 .77-1.15 1.16-1.73 2.21-.36-.31-.51-1.34-.93-1.94-.55-.79-1.06-.96-1.68-1.61-.6-.05-2.44-.71-3.93 1.06-1.44 1.71-1.7 4.64-.52 6.29.46.64.36.73.5 1.45.1.49.36 1.07.19 1.6-.46.13-.74.17-1.17.35-.57.24-.47.32-.96.6-.61-.1-4.02-1.5-6.01.04-1.62 1.26-1.56 2.54-1.68 4.3-.13-.13-.09-.09-.2-.28-.39-.66-.18-.9-1.05-2.07-1.67-2.26-3.7-3.2-8.16-2.82-1.05.09-1.34.24-1.99.35-1.67-.77-3.25-.57-5.13.32l-3.1 1.76c-.73-1.03-1.41-2.01-4.01-2.31-2.44-.28-3.81.78-4.78 1.78-.38-.22-3.5-3.51-7.2-2.16-2.12.78-3.62 3.48-3.44 5.29-.91-.12-1.23-.32-2.1-.1-.85.21-.82.47-1.52.63-.47-1.31-.36-2.82-1.01-4.09-.65-1.25-2.85-2.34-4.86-1.06-2.23 1.41-1.32 5.96-2.58 9.12-.49-.11-1.65-1.69-4.19-.99-1.62.45-2.39 1.24-3.02 2.44-.84 1.6-2.31 3.16-2.4 4.97-.03.68.33 1.14.34 1.59.01.33-.79.69-1.26 1.1C.41 31.43.03 35.58.02 38.17c0 1.24.18 2.3.25 3.43.15 2.25 1.35 6.89 4.09 8.79 1.17.81 2.14 1.46 4.89 1.13 1.19-.14 3.49-.82 4.25-1.29 2.91-1.8 6.92-7.19 3.19-8.75.3-.71.76-1.32 1.11-2.02.44-.88.29-1.42.59-2.14.07.45.71 1.13 1.02 1.55 1.38 1.83-2 2.77-.4 8.5.16.56.54 1.47.58 1.94.11 1.4-.07 2.21 1.85 3.58 1.65 1.18 4.33.74 5.63-.15 1.42-.97 1.67-2.61 1.62-3.96-.07-1.92-.78-2.73-.97-3.87-.22-1.27 1.57-3.18 2.71-3.69-.09 2.66 1.5 6.31 6.27 7.34 2.68.58 5.39-.12 7.08-.97 1.95-.98 3.05-2.29 4-3.74 1.11 1.79.2 6.04 4.11 6.76.7.13 2.05.14 2.7-.02 1.89-.48 2.23-1.34 2.68-1.85.33-.37.02-.17.45-.36 1.31.75 3.85 2.99 5.41 3.34 2.08.47 4.04-.24 5.02-1.43.23-.29.26-.34.43-.64l.36-.5c2 1.18 4.47 1.75 7.66 1.28 1.2-.18 2.28-.63 2.95-1.22.41-.35.71-.69.96-1.08.34-.51.32-.89 1.01-1.21 1.26 2.31 7.26 2.51 10.18.85.99-.56 1.5-1.17 2.4-1.75.2 1.09-.38 4.25 4.07 4.74 3.92.43 5.92-2.87 4.74-5.46-.51-1.12.23-1.12.31-2.19.22-2.96-.03-6.55-.55-9.46-.33-1.84.12-4.69-1.46-5.84-1.32-.95-2.54-.46-2.25-2.26.41-2.48 3.36-7.22 5.01-9.44.38-.51.58-.98.96-1.38 1.22-1.3 1.46-1.01 1.98-2.89.17-.61.14-1.31.36-1.78z"/><path class="fil1" d="M54.13 41.06c.1-1.02-2.83-9.8.56-12.3 2.22.39 4.07 3.04 4.76 4.3.4.74.45 1.11.57 1.83.74 4.25-3.81 6.54-5.89 6.18zm-5.59-9.75c-.53 1.88-.18 3.75 0 5.37.18 1.63.58 3.21 1 4.78.39 1.5.84 3.18 1.19 4.8.19.86.19 1.6 1.63 1.89 1.23.25 2.98-.3 3.13-.83.33-1.18-.72-2.67-.33-3.38l6.74 4.33c.46.37.59.62 1.32.89 1.48.56 3.25-.06 3.48-.88.41-1.45-4.39-3.7-6.46-5.23-.39-.29-.12-.04-.33-.28.53-.78 3.75-1.34 4.8-5.74.95-3.95-2.93-9.49-7.95-10.83-.81-.22-1.83-.22-2.75-.18-4.25.19-4.93 3.38-5.48 5.31zM81.8 28.12c.15-.66.03-1-.92-1.3-.99-.32-1.88-.2-2.72-.03-.85.59-3.35 1.94-4.55 2.08-.21-.41.03-1.58-.15-2.3a1.46 1.46 0 0 0-.15-.36c-.6-.88-3.59-.34-4.53-.27l-.15 4.49c-.12 1.03-3.81 1.45-3.76 2.8.04 1.12 3.12 1.17 3.12 1.17.4.3-2.7 12.15 4.32 13.48 1.67.32 4.63.2 5.67-.5 1.06-.72 1.71-2.54 1.74-3.73.04-1.42-.07-6.39-.73-7.27-2.01-.59-2.7-.25-4.38-.14-.46 1.25 1.38 8.11-.33 9.95-1.15-.42-1.72-3.93-1.83-4.92-.19-1.74 0-4.1.32-5.91.45-2.53-.43-3.09 1.54-3.76 1.89-.64 6.65-2.46 7.48-3.48zM7.99 31.41c2.53.8 5.58 7.07 1.48 9.83-.81.55-.81.46-1.95.75-.55-1-.67-3.7-.71-5-.05-1.9.46-3.71 1.18-5.58zm2.02 15.6c-.96-.44-1.58-2.11-1.92-2.86-.77-1.76 0-1.14 2.5-1.98 5.66-1.89 6.51-5.16 4.86-8.66-1.33-2.82-3.82-5.28-9.21-3.3l-1.47.7c-4.16 2.49-2.93 13.69.4 17.18 1.85 1.94 6.73.77 8.57-1.11.86-.88 1.87-1.99 2.19-3.07-1.48-.3-3.28.23-4.07.63-.85.43-1.34 1.79-1.85 2.47z"/><path class="fil1" d="M87.02 29.96c.13-.41.3-.75.76-1.09.73.37 1.08.93 1.36 1.49.34.87.71 1.38.94 2.33.51 2.13.18 6.79-4.36 6.36-.94-1.21.35-7.22 1.3-9.09zm.65-2.79-1.65.05c-.04.02-.1.05-.14.06-.03.01-.1.04-.13.06-1.72.64-1.37.22-2.89 1.66-1.26 2.03-1.92 4.02-2.03 6.27-.12 2.63-.22 7.25 1.82 9.56.9 1.02 1.65 1.44 4.08 1.5.75.02 1.95-.05 2.71-.27 1.9-.53 4.12-2.72 4.16-3.39 0 0 .01-.21-1.02-.32-.41-.05-.69-.02-1.08-.02-2.36.03-2.29.13-3.15 1.21-.27.34-.65.69-1.04.96-.94-.81-1.54-3.04-1.62-4.33 1.36-.35 5.92.08 8.18-2.27 1.89-1.96 1.19-4.53.66-6.26-.35-.58-.4-1.01-.83-1.62-.3-.42-.74-1.01-1.14-1.39-1.04-.98-2.62-1.41-4.88-1.45zM23.28 38.7c-.63 2.33-3.85 3.27-1.76 9.29.2.57-.28 3.78 3.44 3.02 3.16-.64.54-4.5.56-6.28.02-2.14 1.82-4.97 4.34-6.03 1.56-.65 4.4-1.45 3.3-3.18-1.16-1.81-4.03-.47-5.38.13-3.13 1.38-3.27-1.05-2.69-2.57 1.35-3.54 8.65-4.39 9.86-5.22.85-.58.61-1.53.03-2.06-.89-.82-2.05-.61-3.22-.29-2.18.59-3.98 1.07-5.77 1.93-4.03 1.94-6.53 4.6-5.84 7.92.41 1.96 1.08 2.41 3.13 3.35z"/><path class="fil1" d="M38.86 44.15c-3.13-1.64-1.22-8.72 2.75-11.15 1.3 1.04 1.16 4.05.99 5.68-.19 1.78-1.65 5.08-3.73 5.47zm-.43-12.84c-.58.54-1.76 1.21-2.38 1.85-2.45 2.53-3.44 4.97-3.44 7.91 0 1.69.76 3.49 2.52 4.34 1.32.64 1.83.84 3.94.77 7.33-.22 8.94-7.16 8.31-10.59-.45-2.45-1.22-5.09-5.48-5.79-2.17-.36-2.14-.25-3.81.33-.25.87-.12.62.34 1.18zM97.22 29.56c-.98.15-1.97.28-1.73 1.12-.23.92.18 2.92.3 3.84.36 2.85.57 4.86.47 7.7-.08 2.23 4.3 1.07 4.31 1.07 1.21-.64.01-8-.11-9.5-.05-.63-.19-1.38-.2-1.91-.04-1.68.52-2.41-3.03-2.32z"/><path class="fil0" d="M54.13 41.06c2.08.36 6.63-1.93 5.89-6.18-.13-.72-.17-1.09-.57-1.83-.69-1.26-2.54-3.91-4.76-4.3-3.39 2.51-.46 11.28-.56 12.3z"/><path class="fil1" d="M18.22 19.83c.31.15 1.89 1.55-.53 1.89l.53-1.89zm5.69.33c3-2.13.18-2.15-.07-2.11l-2.74 1.98c-.64-.88-1.29-2.53-1.53-3.59-.09-.39-.11-.66-.21-1.07-.46-1.89.21-2.13-1.8-2.39-.68.64-.5-.08-.95 1.51-.27.95-.28 3.39-.89 5.63-1.18 4.3-3.36 4.31-.73 5.02 1.61-.65.84-.88 2.36-1.52.77-.32 2.1-.78 2.59-1.21 1.12.67 1.13 1.57 1.51 1.73 1.45.33 2.27-.26 1.84-1.07-1.07-2.03-2.25-.88.63-2.93zM30.61 20.45c-.27-.43-.59-2.44-.63-3.14-.07-1.34-.15-2.28.92-3.33.2.13.82.42 1.09.6 2.12 1.39 2.66 5.88-1.38 5.88zm2.86.9c.41-.48.95-.57 1.46-1.11 3.44-3.63-1.84-8.49-5.24-7.41-3.38 1.07-1.66 6.76-1.2 8.66.27 1.13.23 2.39 1.35 2.5 2.18.21 1.07-1.5 1.24-2.14l2.53 1.51c.64.38 1.48 1.45 2.68 1.23 1.81-.34.1-1.36-.52-1.73-.39-.23-.76-.53-1.13-.77-.36-.24-.78-.46-1.16-.74zM58.45 21.88c-1.76-.24-1.86-1.85-1.49-2.68.53-1.22 1.37-2.01 2.79-2.46 1 .96.15 4.39-1.29 5.14zm.67-6.58c-.54.42-4.6 1.54-4.7 4.61-.06 1.86 2.19 4.09 5.09 3.19 3.59-1.12 4.75-8.51-.83-9.81-1.23-.29-5.95-.2-5 .99.8 1 4.13-.6 5.45 1.03zM78.34 17.36c.49-.43.62-.65 1.59-.76.2.32.24.93.32 1.37.14 1.54-.56 2.75-1.7 3.82-2.84-.57-1.73-3.6-.21-4.44zm-.2-2.93c.33.02.32-.04.18.12.81.22.84.27.83.77l-.68.13-.86.35c-1.42.86-2.53 1.68-3 3.19-.25.79-.16 1.28.1 1.93.35.86.57.83 1.16 1.47.47.37 1.4.67 2.47.76l.77-.09c2.14-.62 2.91-2.13 3.23-3.52.18-.76.17-1.59.11-2.34-.06-.73-.5-1.35-.61-2.06-.76-.9-1.48-1.86-3.73-2.1-.66-.07-3.62-.13-4.23.39-.42.36-.21.53.04.77.71.6 1.79.04 4.21.25z"/><path class="fil1" d="M69.25 14.79c3.7 1.03 3.46 5.27.43 6.58-.55-.57-.48-2.37-.52-3.19l.09-3.39zm-1.6 8.9c1.43.01 2.9-.82 3.89-1.42 1.12-.68 1.8-1.43 2.33-2.41 2.24-4.08-3.37-7.36-6.15-6.32-1.1.41-.96 2.06-1.03 2.93-.06.8.14 4.69.68 5.26l.59.49c-.34.35-.71.48-.91.92l.59.55zM51.73 13.11c-.85-.06-1.74.11-2.4.37-1.31.53-4.03 2.42-4.77 3.07-.55.48-.51 1.14.53 1.27 1.48.19 2.82-1.98 4.84-2.78-.05.87-1.49 2.52-2.1 3.2-.96 1.08-4.83 3.63-1.31 4.41 1.75.38 6.76-.86 7.75-1.24.8-2.49-4.24-.06-6.7-.15.46-.83 7.42-6.41 4.17-8.14z"/><path class="fil0" d="M38.86 44.15c2.08-.39 3.55-3.69 3.73-5.47.17-1.63.31-4.64-.99-5.68-3.96 2.44-5.88 9.51-2.75 11.15z"/><path class="fil1" d="M39.01 19.5c.36-2.07-.38-3.22 1.24-5.36.96.47 2.09 3.26.85 4.65-.45.51-.97.76-2.09.71zm4.81-1.65c.25-.9-.02-2.23-.45-2.93-1.29-2.12-5.24-2.37-6.18.46-.65 1.95-1.5 7.74 2.57 7.76 2.16.01 3.27-1.4 3.3-1.62.07-.47-1.37-.4-1.83-.26-.45.14-.41.24-.65.48l-.75.51a4.39 4.39 0 0 1-.62-2.33c2.19-.19 4.05-.19 4.59-2.08z"/><path class="fil0" d="M7.99 31.41c-.71 1.87-1.23 3.68-1.18 5.58.04 1.3.16 3.99.71 5 1.14-.28 1.14-.2 1.95-.75 4.09-2.76 1.05-9.03-1.48-9.83zM89.14 30.36l-.04.8-2.09-.53c.09-.38.2-.41.01-.67-.95 1.88-2.24 7.89-1.3 9.09 4.54.43 4.87-4.23 4.36-6.36-.23-.96-.6-1.46-.94-2.33z"/><path class="fil2" d="m84.2 26.3-.5-.13c-.86-.52-2.15-.88-3.04-1.43-.44-.27-.83-.45-1.33-.79-.73-.51-.26-.47-1.67-.65.32-.12-.23-.09.7-.17-1.06-.08-2-.39-2.47-.76-.92.63-.35 1.95.06 2.49.19.24.76.79 1.07 1.01.42.3.97.52 1.14.91.84-.18 1.73-.29 2.72.03.95.3 1.07.64.92 1.3.61.81-.35.2 1.05.87 1.52-1.45 1.17-1.03 2.89-1.66.04-.01.1-.04.13-.06.03-.01.09-.04.14-.06-.24-.49.54-.16-.63-.52-.54-.17-.81-.23-1.18-.4zm12.25-4.03.09-.17c1.18-.93 5.08-8.32 5.59-8.7.95.41.19.14.4.84l.48-1.04c-1.55-.53-.74-.46-1.7-1.01-.8.75-2.03 3.16-2.69 4.19-.51.79-.89 1.29-1.42 2.05-.39.55-.94 1.38-1.79 1.62-.7-.19-.82-.39-.82-.86-.53.49-.02 1.03-.09 1.54-.55.24-.55.25-1.4.25-.4-1.05.05-6.94.35-8.21.25-1.05.22-2.5 1.12-2.71-.01 1.36-.81 5.06-.32 6.05.16-.58.1-1.15.11-1.59l.65-4.79c-2.7-.11-2.1-1.72-2.85.84-.43 1.48-1.88 5.26-2.68 6.57-.22.37-.69 1.03-1.02 1.32-.27.23-.42.34-.9.33-1.03-.03.03-.33-.75-.06l.26.48c1.14-.37 1.37-.21 1.16.67-1.09-.45-.53.27-1.16-.67-.11.46.03.5-.79.5-.41 0-.93-.13-1.19-.28-.68-.39-.33-3.85-.35-4.52-.03-1.13-.08-2.03-.07-3.1 0-.54-.01-.93-.09-1.54-.13-1.1.53-.86.68-1.37L83 8.68c-.48 1.14-.68 6.07-1.13 6.46.11.7.55 1.33.61 2.06.06.75.06 1.58-.11 2.34-.32 1.39-1.09 2.9-3.23 3.52 1.46.81 1.19 1.14 3.83 2.28 3.05 1.32 3.41 1.06 4.63 1.43.84.25.32-.1.58.36l-.49.05c2.26.04 3.84.47 4.88 1.45.4.38.84.97 1.14 1.39.43.61.49 1.05.83 1.62.41-.37-.19-.14.74-.18-.04-.21-.08-.21-.02-.41.09-.35.03-.19.26-.36-.24-.84.76-.97 1.73-1.12l.63-1.05c-2.79-2.63.65-6.76.62-8.15-.54 1.01-1.1 2.18-1.48 3.2-.49 1.3-.28 2.4-.46 3.48-.83.53-2 .56-3.48.32-.02-.72 2.62-3.59 3.41-5.1z"/><path class="fil1" d="M6.95 27.48c2.62.16 2.73-1.35 3.49-2.57.52-.84 2.46-3.06.41-3.26-2.02-.19-2.39.7-2.98 1.72-.97 1.68-2.93 3.38-.92 4.11z"/><path class="fil0" d="M30.61 20.45c4.04.01 3.49-4.49 1.38-5.88-.26-.17-.88-.46-1.09-.6-1.07 1.05-.99 1.99-.92 3.33.04.7.36 2.71.63 3.14z"/><path class="fil3" d="M86.06 6.7c.11-.39.19 0 .24-.62.01-.19.02-.47.01-.66l-.14-.55c-.97-3.03-4.21-1.23-3.63 1.78.16.83.46 1.54 2.05 1.73.96-.53 1.17-.65 1.47-1.68z"/><path class="fil0" d="M69.68 21.38c3.03-1.31 3.26-5.56-.43-6.58l-.09 3.39c.05.83-.03 2.62.52 3.19z"/><path class="fil4" d="M94.18 4.88c-.22-.28-.65-.62.53-.51.04 0 .35.13.49.2-.51.13-.6.13-1.02.31zm.61 3.82c.5-1.27 1.27-1.4.63-3.31.63.24.63.44.68.41.03-.02.07.06.1.08-.18-.64-.43-1.47-1.55-1.67-2.2-.39-3.7 4.63-.01 5.02.43-.23 1.37-.86 1.09-1.24-.49.53-.42.38-.94.71z"/><path class="fil0" d="M58.45 21.88c1.45-.75 2.3-4.18 1.29-5.14-1.41.44-2.25 1.24-2.79 2.46-.37.83-.27 2.44 1.49 2.68z"/><path class="fil2" d="M77.48 2.69c-.26.21-.21.21-.47.42l-.31-.36.78-.07zm0 0c-1.04-.79-2.23.5-2.38 1.84-.41 3.53 3.72 2.5 3.22.21-.22.78-.32 1.15-.83 1.71-.21-.24-.18-.07-.12-.41 0-.01.19-.32.22-.37.26-.43.17-.33.25-.72.12-.59.08-.82-.2-1.42.86-.03-.35.52.66.11-.59-.55.15-.52-.82-.95z"/><path class="fil0" d="M39.01 19.5c1.12.05 1.63-.2 2.09-.71 1.25-1.39.11-4.18-.85-4.65-1.62 2.14-.88 3.29-1.24 5.36z"/><path class="fil5" d="M96.46 17.43c.47-1.67 1.17-2.68 1.45-4.44l-.96-.37c-.59 1.25-2.01 2.89-2.02 3.24-.02.59.01 1.14.02 1.74.01.42 0 .93.27 1.35a.5.5 0 0 0 .07.08l.15.15c.6-.36 1.32-1.09 1.47-1.69l-.45-.04z"/><path class="fil1" d="M100.58 47.75c1.78-1.24-1.45-3.14-3.75-1.69-1.06.67-.41 1.63.51 1.97 1.21.44 2.57.19 3.24-.27z"/><path class="fil3" d="M78.34 17.36c-1.51.84-2.63 3.87.21 4.44 1.14-1.07 1.84-2.28 1.7-3.82l-.14.63c-.84-.1-.9.12-1.12-.35-.1-.21-.06-.64-.07-.9h-.58z"/><path class="fil4" d="M103.38 11.32c.73.61.02.69.01.71-.24-.26-.5-.33-.01-.71zm1.14-1.84c.84-.94-3.25-2.05-2.71 1.64.06.42.34 1.05.72 1.28.83.51 1.29.1 1.82-.15-.2-.99-.8.64-.14-.87.24-.56.31-.75.25-1.33.57-.1.2.35.42.03.01-.01.03.02.04.02-.17-.55-.16-.13-.68-.41l.27-.21z"/><path class="fil2" d="M88.56 10.95c.38-.2.15-.14.41-.25l-.95-.2c-.24.68-.26 1.42-.48 2.17-.22.77-.59 1.41-.79 2.12-.15.56-.06 2.91 1.06 3.28.57-.61.27-1.05.27-1.71l.47-5.41z"/><path class="fil6" d="M78.18 12.75c.27-.55-.64-3.41-.94-4.17-.3-.76-.26-.88.5-1.26-.84.2-.68.01-1.49.13-.22.44.22 2.28.31 2.76.16.92.16 2.12.62 2.58l1-.05z"/><path class="fil0" d="M78.35 23.13c-.93.08-.37.05-.7.17 1.41.18.94.14 1.67.65.5.35.89.53 1.33.79.9.55 2.18.91 3.04 1.43l.5.13c.37.17.64.23 1.18.4 1.17.35.39.02.63.52l1.65-.05.49-.05c-.26-.47.26-.11-.58-.36-1.22-.37-1.59-.11-4.63-1.43-2.63-1.14-2.37-1.47-3.83-2.28l-.77.09z"/><path class="fil6" d="M80.36 8.7c-.76.48-.43.7-.36 1.29.34 2.95-1.46 3.01.84 3.59l-.48-4.88z"/><path class="fil2" d="M87.02 29.96c.19.26.08.29-.01.67l2.09.53.04-.8c-.27-.56-.63-1.11-1.36-1.49-.46.34-.64.67-.76 1.09z"/><path class="fil0" d="M78.34 17.36h.58c.01.25-.03.69.07.9.22.47.29.25 1.12.35l.14-.63c-.08-.44-.11-1.05-.32-1.37-.97.11-1.1.33-1.59.76z"/><path d="M88.18 8c-.17.5-.46 1.02-.13 1.41.86 1 1.32-.89 1.18-1.34-.64-.16-.36-.12-1.05-.06z" style="fill:#ff2300"/><path d="M80.14 8.14c.42-.23.53-.54.6-1.06.06-.46.26-.68-.71-.87-.89.75-.69 1.32.11 1.93z" style="fill:#f51700"/><path class="fil5" d="m97.3 11.17.46-.2.38.63c-.33-.13.07-.04-.46-.17-.36-.09-.01-.08-.39-.01.09.54-.03.47.56.69.57-.24.64-.46.67-1.1.02-.53-.03-.64-.67-.82-.43.25-.57.52-.55.99z"/><path class="fil0" d="M17.69 21.72c2.42-.34.84-1.74.53-1.89l-.53 1.89z"/><path class="fil2" d="m77.62 15.79.86-.35a.207.207 0 0 1-.02-.06c.1-1.07.06-.11-.13-.84.14-.16.15-.1-.18-.12-.28.29.35.27-.88.16-.17.66-.09.65.35 1.2z"/><path d="m78.48 15.45.68-.13c.01-.5-.03-.55-.83-.77.2.73.23-.23.13.84 0 .01.01.04.02.06z" style="fill:#260d03"/><path class="fil10" d="M94.18 4.88c.41-.19.51-.18 1.02-.31-.14-.06-.45-.19-.49-.2-1.17-.11-.74.23-.53.51zM82.9 10.77c.03.15-.4.19.35.35.85.18.52-.56-.35-.35zM103.39 12.02c.02-.01.73-.09-.01-.71-.5.38-.23.44.01.71z"/><path d="m97.3 11.17-.01.24c.38-.07.02-.08.39.01.53.13.13.04.46.17l-.38-.63-.46.2z" style="fill:#febb00"/><path d="m77.48 2.69-.78.07.31.36c.25-.22.21-.22.47-.42z" style="fill:#ffda00"/></g></g></svg>