<svg xmlns="http://www.w3.org/2000/svg" xml:space="preserve" width="245.159" height="122.201" style="shape-rendering:geometricPrecision;text-rendering:geometricPrecision;image-rendering:optimizeQuality;fill-rule:evenodd;clip-rule:evenodd" viewBox="0 0 106.49 53.08"><defs><style>.fil5{fill:#68fa01}.fil2{fill:#f2fe00}.fil6{fill:#fdfdfd}.fil3{fill:#fefefe}</style></defs><g id="Camada_x0020_1"><g id="_2077944176208"><path d="M60.97.02c.06.44.09.46.15.75-.67.09-1.34.02-2.03-.01-.72-.04-1.22.16-2 .14-1.63-.04-2.66-.43-4.17-.17-2.45.41-5.5.26-8.08.23-1.84 2.16-2.79 11.2-3.89 12.53-.55-.48.17-2.16.25-2.87.11-.94.09-1.73.27-2.77-.01-.07-.84-1.22-.35-.83l.27-5.66C40.7.79 37.08.79 36.03.85c-2.25.13-2.51-.28-4.78.44-.51 1.61-3.81 9.38-4.38 10.17.31-1.39.69-2.62 1.05-3.96 1.21-4.52-.28-1.48.44-3.85.18-.55.63-1.95.45-2.42-.52-.75-4.85-.35-5.8-.39-.77-.03-1.2-.22-1.72.22-.99.84-3.16 5.16-3.98 5.64-.64-.54-1.46-5.05-1.5-5.54C14.41.69 13 .57 11.57.54 7.04.46 8.41.24 5.8 9.43c-.67 2.37-.57 2.54-.96 4.47-.22 1.09-.51 1.24-.76 2.08l-1.67 6.47c-.64 2.38-1 2.46-.11 3.67l4.94.19 2.39-.05c-.09 1.06-1.26 2.76-1.38 3.99 1.33 1.85 2.75.25 3.41-1.41.38-.97.71-1.56 1.01-2.69.23-.89.41-2.14.78-2.94.96.46 1.18 3.56 1.75 4.63.23.43.25.15.21.74-1.08-.14-1.1-.41-1.68.45-1.56 2.3-.85 1.41-4.16 3.21l-6.21 3.27C.54 37.08-.71 38.56.41 41.69c.92 2.58 4.26 4.16 4.72 5.36 3.98 1.41 1.2 1.39 3.33 2.91 1.21.86 2.16 2.36 3.82 1.87.7-.21 1.39-.61 2.11-.61 2.54.01.94 1.43 4.57-.63 1.34-.76 1.27-2.08 2.62-.43 1.57 1.58 2.67 1.65 4.84 2.04 1.65.3 7.53.15 9.59.05.85-.04 2.47.04 3.31.11l16.35.3c3.65 0 3.9-1.92 5.45-7.01.47-1.56.49-1.91 1.99-1.96.51-.02 2.84.05 3.3.21-.04 1.63-.91 3.93-.94 5.43-.08 4.53 3.57 3.18 7.13 3.51l8.37.02c1.29-.14 2.22-.23 3.57-.12 1.45.12 6.54.37 7.28-.07 1.04-.62 1.44-3.93 2.4-4.32.7 1.15-1.47 4.37 2.32 4.55l4.67.19c.54-.04.95-.17 1.45-.12l2.11-8.75c-.29-1.07.16-2.72.2-3.93.12-3.74 1.32-10.28 1.16-13.88-.11-2.46-.87-.42-.2-3.66.3-1.44.04-4.28-.09-5.68-.42-4.32 2.73-2.93-1.81-10.25-1.33-2.02-2.02-3.28-4.91-4.58-3.85-1.73-8.15-3.73-12.49-.62-.4.28-.93.84-1.37.87-.84-1.32 1.13-2.68-6.31-2.34-.94.04-2.94-.17-4.86-.05L67.66.03c-1.1.03-1.95-.01-2.6.85-.59.76-.64 2.64-1.5 2.87C63.5 2.76 64.7.67 62.5.09c-.61-.16-.96-.04-1.5-.07z" style="fill:#070909"/><path d="M63.84 34.88c.09-.75 1.65-4.52 2.04-5.44.4-.94.68-2 1.03-2.83.35-.83.77-1.66 1.09-2.48.64-1.64 3.52-9.87 4.31-10.48.57.55.08 1.82-.08 2.59-.54 2.54-2.06 18.14-2.77 18.78-.51.36-4.85.21-5.62-.15zm18.3-18.06c.09-.39-.19.01-.22-1.2l.11-3.36c-.84-1.89.86-3.99 1.07-4.88.16-.68.48-4.73.35-5.2-.71-.37-8.12-.21-9.56-.23-8.42-.13-6.3-.75-7.97 2.61-1.08 2.17-2.85 6.82-3.96 9.06-.6 1.22-3.72 8.29-3.68 9.03 1.22.77 3.61-.21 4.19 2.01.53 2.03-1.45 3.67-1.72 4.53.22.34 2.41 2.35-1 2.31-.5-.01-1.48.14-2.01.22-3.37.47-2.05-.23-2.56-1.46-1.16.24-1.76 2.75-2.2 3.73-.59 1.3.15 1.15.03 2.23-.06.6-.44 1.82-.61 2.45-.95 3.63-1.65 1.42-2.65 2.76-.33.44-1.62 3.68-1.69 4.27.68.23 1.77.09 2.24.58.48.59-.72 2.77-1.24 4.92l6.46.17c1.52-.1 1.79.3 2.44-1.17.46-1.04.7-2.08 1.12-3.07 1.97-4.68.91-4.63 3.4-4.64 1.04-.01 5.51-.04 6.23.11-.16 1.48-.29 2.81-.45 4.34-.09.84-.31 1.53-.4 2.34-.3 2.45-.25 1.98 1.8 2.22 2.35.27 1.51-1.45 2.74-4.59.48-1.21 1.9-.67 3.16-.73l2.76.02c1.25-.26 1.52-2.86 1.7-4.38-1.5-.82-4.59.29-5.88-1.6-.93-1.37.32-4.57.83-6.43.35-1.29 1.39-5.87 1.84-6.71 1.15-2.13 2.99-1.82 4.56-2.11.75-2.08.4-6.88.75-8.13z" style="fill:#fd0000"/><path class="fil2" d="M101.62 21.67c-1.39-.34-1.69-.63-3.04-.44-.85.12-1.62.1-2.39.36l-5.22 2.34c-3.03 1.6-2.11 1.75-4.87-.97-2.71-2.67.45-2.64 2.99-2.55 1.17.04 2.78-.16 4.04-.18 1.94-.03 7.24-.16 9.08.29 1.98.48.55 1.43-.6 1.15zM84.59 9.05c.24.06.34.21.24.51-.19.62-.13.22-.44.33-.34-.44-.37-.98.2-.83zm17.27 7.44c.55.48.6.24.71.76-.54.49-.73.08-2.21.25-1.3.15-6.01.07-6.6.7.35.62.95.4 1.04 1.36-.35.08-3.55.29-3.87.19l.16-1.26-7.81-2.54c-.14-1.4.08-2.06.53-3.37.01-.5-.67-.39-.4-1.04.47-1.1 3.2.79 3.76 1.14l2.37 1.4c.76.42 1.52 1.1 2.42 1.51-.1-.64-.13-.45-.69-1.12-.22-.26-.52-.64-.57-1.03 1.19.42 1.11 1.52 2.03 1.84.31-.92-.03-2.71.04-3.01.19-.88-.31.66.08-.22l.14-.2c.25.16.46.09.43 1.46-.02.79-.22.93.13 1.58.85-.45 1.11-.98 1.58-1.43.5-.48-.09-.39.8-.27-.33.83-1.86 1.62-2.15 2.36.64.2 1.39-.65 2.71-1.34 1.57-.82 4.29-2.38 5.89-2.76 1.46-.35 2.29 1 1.55 2.32l-1.23-.52c-.07 2.45-.28 1.43-.85 3.25zM87.43 9.34c-.6-.16-.82-.38-.83-.87-.02-.68.35-.8.9-.69.46.56.28.88-.07 1.56zm-2.18-1.63c.51-.11.36-.07.81.24l-.25.92c-.84.02-1.03-.62-.56-1.16zm-3.21 4.55c.43.79.09 1.38.1 2.19.01.91.23 1.16.03 2.25l-.03.12c.56 1.61-.13 4.78 3.02 8.04 1.02 1.06 2.26 2.16 3.9 2.55 1.76.43 6.17.59 7.77.35.67-.1 1.61-.12 2.32-.21l1.59-.38c.19-.06.4-.17.53-.24 4.29-2.08 3.24-6.43 3.16-10.96-.06-3.23 2.31-3.03-1.97-8.72-1.81-2.4-4.26-4.62-7.36-5.54-2.09-.62-3.21-.22-4.77.27-.8.25-.83.33-1.42.66-2.34 1.33-3.55 2.66-5.17 4.96-.42.6-1.23 1.29-1.4 1.85-.31 1.01.1 1.73-.31 2.8z"/><path class="fil3" d="M13.06 18.44c1.12.38.82.26 1.45-.53.41-.52.73-1 1.11-1.45l.16-.1c.22-.57 1.08-1.56 1.47-2.06.36-.47 1.08-1.66 1.59-1.83.33.65-.65 2.27-.74 4.56.12.57.09.88.15 1.5.08.77.31.7.23 1.57.25.5.39.65.32 1.39.38.5.18.86.72 1.58 1.32-.61.27-1.84 2.74-2.26l5.37-19.18c-.63-.28-3.39-.22-4.16-.22-2-.01-1.18-.54-2.93 1.86l-3.27 4.69c-.24.38-.73 1.25-1.23 1.35-.35-.33-1.28-6.52-1.54-7.77-.41-.19-5.36-.49-5.49-.1-.07.2-.1-.14-.46 1.24C7.08 8.44 3.1 21 2.56 25.03c.48.13 4.9.26 5.23.1.63-.3 1.72-5.17 1.97-6.12.59-2.26 1.24-4.49 1.82-6.75.38.41 1.5 5.78 1.46 6.2zM94.5 43.16c.44-2.33 1.38-3.53 2-5.52l2.13-5.09c.02-.05.06-.05.1-.07l-.59 5.31c-.07.73-.6 4.94-.78 5.37l-2.86-.01zm-9.6 8.37c.37.14 3.38.17 3.83.15 1.62-.08 2.39.6 2.91-1.28.22-.79.35-1.18.64-1.93.27-.7.37-1.24.95-1.4.3-.08 3.24-.03 3.66.1.12 1.33-.64 3.07-.42 4.42 1.04.31 4.81.25 5.96.14l1.21-13.11c.09-2.09.34-4.37.63-6.51.14-1.04.05-2.17.2-3.25.17-1.21.45-2.08.05-3.07-1.17-.31-1.02.17-1.81.72-3.06 2.11-7.02 1.07-7.77 1.8l-6.47 14.78c-.57 1.16-1.44 3.03-1.87 4.21-.57 1.56-1.31 2.64-1.7 4.24zM34.05 8.52c.12-.3.33-.96.6-1.15.12.7-1.04 8.83-1.29 10.02-.63.22-2.09.27-2.83.03l3.52-8.89zm-10.6 13.11c1.43 1.33 1.49 1.3 1.3 3.62.51.12.76.06 1.3.05.45-.01 1.24.15 1.54-.12.51-.64.99-3.33 1.78-4.06.77-.16 2.57-.09 3.38.11.18.97-.21 2.29-.08 3.23.45.19 1.96.24 2.53.23 1.43-.03 1.67.17 2.61.01.53-1.08 1.14-9.86 1.23-11.6.11-2.18 1.28-10.11.86-11.58l-7.12-.05c-.28.01-.58-.29-1.13.98L26.36 14.5c-.31.65-.41 1.16-.72 1.8-.64 1.32-2.07 4.12-2.21 5.33zM81.08 36.22c.13-1.07.57-2.32.86-3.39.25-.95.42-2.44 1.25-2.6 0 0 2.68 0 2.92.02.97.09 1.84.17 2.81-.1l.59-2.48c-1.84-.31-2.34-.85-3.63-1.7-.92-.6-2.72-.37-3.93-.4-3.62-.08-4.4.26-5.34 4.03-.64 2.59-1.92 6.48-2.23 8.92-.21 1.71.73 2.09 2.53 2.41 1.06.19 2.22-.12 2.91.01l.7.18c.03.01.08.1.11.07.44-.46-.51 3.08-.53 3.18-.28 1.19-.35 1.98-1.36 2.23-.97.23-1.74.03-2.77.02-3.52-.06-2.83-.62-4.25 4.71 1.04.25 3.21.35 4.2.3 7.64-.35 8.01 1.25 9.22-3.77.6-2.47 2.04-6.54 2.23-8.81.3-3.67-4.19-2.28-6.29-2.82z"/><path d="M15.66 45.76c.08.42.21.24-.15.62-.04-.08-.23.12-.09-.32.11-.33.07-.17.24-.3zM10.93 39c.1-.52.16-.57.4-.88.16.24.15-.21.17.41.02.4-.23 1.02-.74 1.28l.17-.82zm8.59.81c.57.44 0 3.66-.12 3.84-.47-.34-.27-.04-.24-1.83.01-.44.04-1.73.36-2.01zM3.91 37.32c.3-.61.8-.82 1.45-.75-.32.42-.87.67-1.45.75zm18.39 9.79c-.7.36-.4.43-1.26.37.37-.55.61-.5 1.16-.75.39-.17.74-.34 1.08-.58 2.05-1.44 2.79-2.33 2.15-4.26-.4-1.18-1.04-1.62-.81-2.29.57.35 1.05 1.63 1.26 2.28.29.89.1 1.92-.41 2.74-.77 1.25-2 1.87-3.17 2.48zm-3.69-10.93c.59.29.73.54.71 1.34-.43-.24-.22-.1-.47-.45-.15-.22-.1-.2-.34-.43l.1-.45zm-1.46 3.87c-.06.65-.08 1.74-.48 2.19-.36-.38-.23.15-.19-.59.02-.38.3-1.87.27-2.93-.01-.35-.1-.66-.12-.96-.1-1.44-.31-1.96-.49-2.96-.19-1.04.28-.95.28-.95.36.45.22.36.26 1.02.05.66.35 1.39.36 3.04 0 .68.16 1.54.1 2.15zm-2.69-5.9c.04-.64.19-1.05.38-1.66.44-1.47.39-.92.75-.93l-.08.61c-.32 1.77-.35 2.1-1.06 1.98zm4.16 2.02c-.65-.27-.16.02-.53-.46-.79-1.04-1.91-2.54-1.42-3.82.62.18.44.38.45 1 .03 1.51 1.47 2.32 1.51 3.28zm2.32.16c-1.09-.65-2.04-1.88-2.79-2.9-.45-.6-.45-.64-.5-1.3.7.36.07-.23.82 1.13 1.34 2.42 2.59 2.1 2.47 3.07zM8.72 34.74c.27-.66.77-1.01 1.23-1.25.92-.48.89-.23 1.76-.28.91-.05 1.62-1.88 2.64-2.13.18.67-.92 1.33-1.44 1.72-.5.38-.33.1-.54.56 1.55.97 3.41 2.81 2.95 4.91-2.78.87-3.69-.89-5.37-2.14-.87-.65-.86-.35-1.23-1.39zm11.15 10.42-.33-.03c-.44.45-1.34.55-1.99 2.01l2.05.47.31.67c1.91.06 4.19-.93 5.55-1.78 3.5-2.18 2.68-4.12 2.69-5.18-.19-.25-.39-.68-.51-.89-.75-1.33-1.41-1.42-1.87-2.22-1.33.05.08.87-2.99 1.11-.63.05-1.24-.09-1.88-.11-.3-.01-.76-.02-1.05-.08-3.09-.66 2.79-3.3 2.94-3.42-.24-.75-3.33-3.69-4.15-4.34.32-1.36.47-.6.92-1.3-.81-.59-1.07.5-1.9.73l-.05-.56c-.01-.62.2.01 0-.59-.78.3-.51 1.28-1.46 1.36-.34-.3.02-.4-.61-.84-1.24-.86-.26-.74-1.34-1.02-1.77 1.49 1.89.04-5.35 4l-5.88 3.18c-5.97 3.41-.21 8.6 4.18 10.23l-.1-.27c-1-2.67 2.18.33 3.02.37.03 0 .1.02.13-.02s.09-.01.13-.03c.23-.23-.19-.56-.24-1.17.73.5.52.83.75 1.61l.91.25c.4-.52.09-.58.56-.99 1.5.29.08.93 1.67.82.56-.04.42-.23.95-.15.55.09.34.2.74.35.61.22 1.19-.22 1.53-.54.32-.3.94-.89 1.06-1.27-.6-.23-1.17-.35-1.75-.29-4.19.48-3.83.09-8.52-.5-1.4-.18-2.21.03-3.54-.32-.37-1.97-.98-3.3.01-5.85.4-1.03.31-1.08 1.43-.87.41-.69 1.34-1.74 2.12-1.68-.28.54-.38.33-.95.81-.38.33-.51.51-.63 1.07l3.7 2.12c1.27.61 2.47 1.53 3.84 2.04 1.47.54 2.67 1.13 4.32 1.62.86.25 1.72.48 2.59.69.35.08.85.18 1.18.29.66.22.6.14.67.6-.13.03-2.58-.03-2.83-.1z" style="fill:#f05400"/><path class="fil3" d="M26.17 38.28c.7.59 1.79 1.81 2.09 2.78.15.59.21.33.31 1.15.06.5.09.97-.08 1.52-.32 1.05-.99 1.54-1.59 2.13-.44.43-1.31 1.08-2.01 1.41-.55.26-1.73.62-2.11 1.07-.16 1.01.84 1.98 1.9 2.31 2.42.75 4.56.52 7.01.5.65-.01 2.69.3 3.21-.09.52-.45 1.74-3.76 1.88-4.6-.88-.28-1.26-.2-2.08-.15-.67.03-1.32-.07-1.97-.05-2.22.07-2.8.18-3.76-.61l3.96-14.77c.27-.99.25-1.55 1.29-1.57.61-.02 1.39-.13 2.02.08l-1.13 4.73c.83 0 2.23-.33 3.06-.5.79-.16 2.44-.31 2.77-.78.26-.36 1.8-6.57 1.95-7.44-.86-.39-5.67-.22-6.93-.27-.55-.02-1.07.08-1.59.09-.47.01-1.17-.09-1.77-.08-4.4.11-4.18-.02-5.84 6.71-.3 1.23-.71 2.54-1.08 3.78-.73 2.44-.32 1.79.49 2.68zM36.94 51.06c.78.37 8.21.09 9.82.22.79.07 1.33.18 1.7-.41.22-.34 1.32-3.69 1.45-4.22-1.23-.56-3.92-.01-5.42-.34.12-1.13 1-5.14 1.55-5.84.8-.5 4.46.08 5.07-.25.54-.34 1.31-3.35 1.35-4.26-.84-.47-3.75-.09-5.1-.41.21-.95 1.28-3.9.95-4.61-.24-.51-1.97-1.9-.54-3.23.72.26.17.44 1.3.84l.54-3.09c-1.44-.44-2.29-.12-3.7-.25-2.08-.2-1.99-.07-2.5 1.88-.69 2.65-1.4 5.36-2.08 8.08-.57 2.3-4.38 14.86-4.37 15.89zM45.09 1.59l-6.32 22.99c1.02.33 1.78.11 2.81.22.87.09 1.71-.01 2.69-.03l2.61-9.21c1.48-.44 3.79.25 5.08-.21.5-.52.96-3.01 1.16-3.91-1.19-.39-3.32-.04-4.87-.38l1.3-5.16c.84.03 4.75.11 5.24-.06l1.07-4.03c-.64-.29-4.35-.08-5.32-.13-.98-.05-1.75-.01-2.66-.09-.96-.08-1.81.11-2.77 0zM51.3 22.59c1.28.34 1.82.35 2.94.92.44.22.7.29 1.09.66.35.33.35.61 1.06.6 2.16-6.46 3.83-14.92 5.86-21.79.64-2.15-.24-.95-4.28-1.27-1.46-.11-1.19.28-1.58 1.8-.52 2.07-1.15 4.15-1.74 6.22-1.17 4.08-2.55 8.7-3.36 12.86z"/><path class="fil2" d="M51 29.16c-.12-.63.63-4 1.13-4.16.63-.2 2.8 1.53 3.1 1.85-.29 1.12-.96 1.39-1.83 1.76-.84.36-1.73.82-2.41.55zM49.95 25c.13.77-.22 3.18-.76 3.99-.87-.12-.79-.42-1.43-.63-.51 1 .43 2.23 1.21 2.73.45.29 2.61-.25 3.17-.32 1.35-.16 1.94-.6 2.75-1.21.47-.36.83-.64 1.06-1.35.21-.64.43-1.43.27-2.07-.48-1.96-3.34-3.28-6.01-3.18-1.06.04-2.76-.19-3.09.85-.56 1.81 1.55.6 2.83 1.21z"/><path class="fil5" d="M13.06 18.44c-.98-.31-.83-.66-1.76-.95.09 1.12 1.48 1.85 2.77 3.2.49.51 2.42 2.64 2.03 3.44-.94-.15-.73-1.5-2.05-2.66-.55-.48-1.02-.76-1.85-.97-.97-.24-1.38-.15-1.74.62-1.13 2.45.91 2.76-1.72 8.71.74-.15.74-.3 1.24-1.38.31-.68.62-1.16.9-1.93.54-1.47.76-3.41 1.35-4.69 2.63.17 2.61 4.75 3.35 5.49.67-.63-.13-1.53.71-2.27.51.22.53.36.57.98.12 2.09-1.4 2.78-.85 4.23 1.04-.28 1.41-2.72 1.43-3.55.03-1.06-1.08-4.59-2.16-5.96-1.19-1.5-1.91-1.58-2.22-2.31z"/><path class="fil5" d="m15.78 16.36-.16.1c.23 1.08-.83 1.36.07 3.64.82 2.08 1.68 3.77 1.99 6.08l.43 3.42c1.01-.26 1.39-3.27 1.45-4.18.03-.54-.2-1.42-.37-1.98-.12-.41-.46-1.5-.39-1.96l-.47-.88.16-.51c.08-.87-.15-.8-.23-1.57-.06-.62-.03-.93-.15-1.5-.2-.35-.17-.38-.28-.85-.14-.63.03-.4-.34-.77-1-.09-1.05.5-1.71.95zM8.12 46.25c.21.68-.46-.05.41.66.85.7.77.51.82 1.95 1.09-.07.77-.41 1.49-.24-.06 1.01-.23 1.75.96 2.01.01-.88-.44-.38-.4-1.31.39-.27.47-.22 1.01-.18.99 1.45.12.97 1.07 1.17l.33-.91c1.37.37.96.03 1.89.18.46.46.1.62.9.97.57-.35.25-.51.93-.79.4-.16.8-.15 1.21-.33.75-2.24-1.83-1.43-2.94-1.61-.69-.11-.86-.29-1.54-.2-.75.1-3.58.13-4.06-.03-.52-.18-1.49-1.05-2.09-1.34z"/><path class="fil2" d="M60.1 23.58c.26 1.92 1.59 1.13-.68 3.74l-.83-.19c-.6-2.41.42-2.24 1.3-3.43-.73-.61-.9-.91-1.77-.41-1.54.89-2.25 3.88-.18 5.3 1.56 1.06 2.87-.13 3.52-1.31.9-1.63.56-2.98-1.37-3.71z"/><path class="fil5" d="M20.12 23.95c.7-.31 1.21-1.28 2-1.59.71.29 1.09 1.21 1.13 1.84.12 2.06-3 6.68-.4 7.2.42-1.25.11-1.96.37-3.18.56-2.66 2.3-3.78.74-5.74-.56-.7-1.35-1.33-2.64-1.36-.38.47-.77 1-1.03 1.43-.35.59-.63.92-.17 1.41z"/><path class="fil6" d="M91.23 16.46c-.49-.54-1.15.21-1.73.48-2.7-1.13-1.37-2.47-2.05-3.12-.29-.28-1.59-.77-2-.83-1.31-.19-1.98 2.26-.22 2.79.83.25 1.61.5 2.42.73 1.17.33 2.96 1.78 3.55.53.27-.57.14-.27.03-.58zM98.68 14.74c-.01.6.36 1.75-1.69 1.76-1.02.01-2.83-.79-2.77.73.32.25.74.09 1.13 0 .43-.1.77-.21 1.15-.26 1.88-.24 2.89-.12 3.77-.24 1.09-.15 1.8-2.28 1.55-3.2-.95-.24-2.4.78-3.15 1.21z"/><path class="fil3" d="M7.53 43.18c-1.22-1.32-1.58-2.62-2.28-4.34-.8 1.47-.88 3.95-.03 5.25l2.75-.13-.44-.78.57.12c.33-.9.32-2.75.24-3.71-.87-.31-3.09-2.41-2.13.13.39 1.03 1.18 2.66 1.33 3.46zm12.01 1.97c1.08.09.94-.08 1.11-.23l-1.54-.63-.23.74.66.12zm-2.95-.55c2.24.87 2.65-.72.17-.8l-.17.8zm-.6.33c.39-1.51-.15-1.99-1.78-2.1-.14.34.18 1.81.24 2.04l1.53.06zm-5.85-4.17c.22.93 2.44 4.24 2.46 4.29l1.47-.07c-.03-.41-.23-1.15-.35-1.65-.15-.62-.09-.77-.77-1.23-.38-.26-2.37-1.43-2.81-1.35zm.18 1.65c-.25-.47-.87-1.81-1.3-2.02-.41.3-.25 2.45-.31 3.13-.08.86-.07.94 2.59 1.2.14-.49.23-.26-.21-.95l-.78-1.36z"/><path class="fil2" d="M55.66 31.44c.27.06 4.69-.17 5.44-.55-.09-1.48-1.6-1.57-3.03-1.45-1.3.11-2.37.33-2.42 2.01z"/><path d="M86.47 21.63c.23 1.86 2.49.13 3.8.35-.27.9-.38.65-1.15.85-.41.1-.91.18-1.12.6l.95.41c2.2-1.81 4.81-1.9 5.78-2.62-.64-.25-2.81.09-4.19.05-.64-.02-3.66.13-4.06.37z" style="fill:#fbfdfb"/><path class="fil5" d="M14.21 37.53c.38-1.4-.14-2.21-1.32-2.96-1.25-.79-2.68-.56-3.33.4.55.44 3.91 2.29 4.65 2.56zM24.42 36.66c-1.42-.6-4.55.98-3.97 1.9.18.28 2.94.52 3.61-.52.31-.49.4-.8.36-1.39z"/><path class="fil3" d="M51.5 28.73c.54.14 2.94-.66 3.25-1.81-.44-.57-1.74-1.35-2.44-1.37-.42.6-.9 2.44-.81 3.19z"/><path class="fil6" d="M19.71 25.07c1.4.67 1.67-.42 1.96-1.64-.54.02-.76.36-1.06.61-.62.52-.73.2-.9 1.03z"/><path d="M58.82 26.59c1.1.32 1.27-.86 1.22-1.77-.96-.21-1.42.86-1.22 1.77z" style="fill:#fa0000"/><path d="M7.94 47.71c.08.3.17.69.25.96.18.58.18.52.6.63l-.14-1.41-.71-.18z" style="fill:#3b4748"/><path d="M55.99 29.37c.21-.01.55-.01.7-.14.48-.41.11-.62.05-.74-.36.03-.32-.29-.76.88z" style="fill:#b80202"/><path d="M96.66 15.75c.67.19.52.15.71-.44-.61-.11-.67-.25-.71.44z" style="fill:#f1f2f2"/><path d="M18.8 21.48c.07-.73-.07-.89-.32-1.39l-.16.51.47.88z" style="fill:#2d322c"/><path d="m89.88 15.93.21-.6-.62-.1c-.03.58-.12.49.41.7z" style="fill:#edeeee"/></g></g></svg>