<svg xmlns="http://www.w3.org/2000/svg" xml:space="preserve" width="95.98" height="95.951" style="shape-rendering:geometricPrecision;text-rendering:geometricPrecision;image-rendering:optimizeQuality;fill-rule:evenodd;clip-rule:evenodd" viewBox="0 0 43.13 43.12"><path d="M32.71 37.26c.07-.15.25-.16.35-.13.02.06.03.15.05.2l-.16.48c-.11-.05-.02.02-.04-.03-.01.19-.47.53-.53.76l1.09-.18c1.8-.65 3.45-1.78 4.22-3.48.33-.74.39-1.14.56-1.97.14-.7-.22-1.71-.04-1.85.35.25.79 2 .83 2.05.31-.22.58-2.15.63-2.6.14-1.24-.19-3.11-.83-4.21-.51-.88-1.04-1.35-1.83-1.96l-.53-.28c-.01-.27-.13-.11-.03-.64.22-1.14.12-3.75-.25-4.86-.04-.13-.05-.17-.08-.31l-.98-2.48c-.12-.22-.24-.31.05-.82.68-1.19 1.74-2.15 2.97-2.81.68-.36.54-.34 1.2-.32 1.15.02 1.97.04 2.95-.89.6-.57.55-1.34.75-1.48l.01-.17-.08-.18c.12.01.06.04.1.03 0-.26.1-1.72-.03-1.96-.09-.17-.1-.79-.37-1.36-.17-.35-.32-.64-.04-.66.29-.02.35.04.3-.52-.07-1.29.09-1.18-.15-2.66-.04.1.06.28-.02.37-.11-.41.16-.72-.7-1.52-1.09-1.01-3.3-1.15-4.64-.03-.51.42-.25.25-.58.07-.23-.13-.42-.5-1.34-.73-1.43-.35-1.82.04-2.45.2-.28.07-.08-.04-.28.13-.25.22-.29-.22-.41-.32-.69.18-2.51.11-3.21.08l-2.78.01c-.17.03-.14-.07-.32-.05-.06.08-.08.24-.18.3-.12.08-.27-.06-.39-.07-.75-.09.49-.13-1.36-.18l-4.53.02L13 .24h-2.12c-.49-.08-.49.14-.81.11l-.05-.08C9.28.15 9.55.08 9.28.04 7.77-.19 7.02.52 6.65.48 6.26 0 5.6.34 4.68.24L.4.23c-.59 0-.39-.28-.39 2.1v5.09c0 1.42-.08 2.88 0 4.28l2.97-.01c1.41.36 3.15 1.73 3.88 2.95.59.99.43.82-.07 1.86-.94 1.96-1.25 4.7-.98 6.81.06.48.33.61-.64 1.15-.72.39-1.25 1.11-1.68 1.77-1.61 2.5-.71 6.57-.24 6.86.1-.43.55-1.95.82-2.05.17 1.01-.43 1.34.37 3.57.34.94 1.23 1.94 2.03 2.57.48.37 2.9 1.56 3.25 1.28.09-.07-.72-.9-.56-1.38.36-.11.39.51 2.2 1.1 2.85.94 7.01 1.94 8.97 4.07 1.15 1.25.54 1 1.57.01.89-.86.83-.78 2.17-1.62.97-.61 3.5-1.31 4.31-1.7.5-.24 1.71-.36 3.47-1.19.62-.26.65-.4.84-.5z" style="fill:#000"/><path d="m7.84 13.63.3.44c.5 0 .66-.83 1.17-.87l-.4 1.13c-1.15 2.63-1.41 6.05-1.04 8.84.06.44.86 3.9 1.35 4.05.21-.53-.18-2.12.46-2.27.55.95.23.91 1.52 2.64 2.34 3.16 6.32 4.87 8.87 7.1 1.49 1.3.84 1.2 1.4.69l2.72-2.19c1.21-.79 3.44-2.22 4.47-3.11 1.65-1.42 2.83-2.74 3.74-4.8l.32-.37c.45.41.19 2.1.29 2.3.91-.65 1.57-4.87 1.58-6.02.02-3-.33-4.11-1.12-6.69-.18-.6-1.35-2.24.2-.75.65.63.14.8 1.02-.54.51-.78 1.19-1.27 1.18-1.4-.42-.05-1.43.31-1.85.44-.18-.4.86-.83.76-1.09-.31-.12-2.82 1.39-3.04 1.55l-2.51 2.06c-.17.42-.22.11-.26.32h.16c.02-.04.03-.08.05-.13.08.05.03.02.08.1l2.44.08c.21.06.32.17.55.18-.01.21-.75.24-1.56.63-.12.06-3 1.61-2.32 1.66.12.01.86-.24 1.7-.04l.97.16c.14.05.12 0 .23.01.1.01 0 .06.36.13v.01c.14.02.99.26 1.04.59l-1.37.05.29 1.39c.23 1.58-.07 3.71-.81 5.15-.59 1.16-1.21 2.3-2.21 3.13-.21.15-.29.3-.51.3l.62-.96c.55-.86.82-1.84 1.11-2.8l.07-.48c.06.06-.02.01.01.02-.01-.06-.03-.14-.05-.19-1.31.78-1.97.95-3.54.79-.63-.06-1.21-.51-1.57-.48-.03.05.01.05-.08.08.03.12.37 1.63.03 1.94-.28-.1-.24-.68-.6-.78l-.22.89c-.28 1.26-1.36 3.35-2.09 4.39-.36.52-.4.74-.69.75-1.17-1.69-1.98-3.22-2.63-5.19-.07-.22-.11-.67-.26-.83-.28.01-.16.83-.63.81l.13-2.01c.03-.11.1-.11.05-.22l-.63.34c-.76.38-2.46.53-3.35.13l-1.07-.49c-.2.02-.31.02-.21.52l.69 1.95c.26.4.17.59.45.89l.5.8c-.51.07-2.11-2.2-2.38-2.84l-.85-2.21c-.74-2.74.14-4.5.1-4.83-.64 0-2.38.17-.56-.52 2.07-.78 3.21-.38 3.52-.42.01-.34-1.99-1.53-2.71-1.76-.42-.14-1.52-.36-.92-.56.83-.28 1.98-.31 2.86-.16.39.07-.12-.26-.15-.29-.88-.99-2.02-1.87-3.18-2.5l-1.22-.67c-.06-.02-.86-.51-1.15-.46-.03.08 1.34 1.29.63 1.08l-.36-.16c-.32-.08-1.07-.31-1.29-.26.02.24 1.28 1.17 1.41 1.81zm13.24 4.67c-.01-.01-.45-1.56-1.29-2.62-.16-.17-.51-.55-.51-.77.37-.05 1.42.7 1.68.94.11.1.18.29.49-.04.68-.73 1.67-1.04 1.53-.8-.75 1.26-.93.9-1.76 3.17-.03.08-.04.12-.14.12zM10.17 9.42l-1.74-.1c0 .2.17.27.35.32l1.33.63c1.58.93 2.63 1.75 3.94 3.04.91.9 1.95 2.27 2.64 3.36.87 1.37-.09.16-1.46-.31-.13-.03-.25-.01-.28.08 1.23 1.21.89.88 1.79 2.13.17.24 1.15.83 2.29 2.27.18.22.29.52.52.7.08-.06 1.17-1.05 1.58-1.07l1.67 1.04c.6-1.25 2.63-2.77 2.74-2.95l1.5-1.84.23-.37c-.41.15-.8.1-1.4.58-1.06.84-.42-.01-.05-.61 1.68-2.72 4.25-4.98 7.09-6.43L34 9.4c-.01-.3-.17-.1-.65-.1-1.64 0-3.36.64-4.84 1.32-1.25.58-2.31 1.31-3.27 2.29-.09.09-.18.26-.31.28l.79-1.61c.37-.45-.31-.39-.9-.57l-3.6-.34c-1.24.09-2.18.01-3.67.3-1.52.3-1.2.19-.53 1.39 1.08 1.9-.36.15-.76-.16-1.99-1.53-2.13-1.48-4.33-2.33l-1.78-.46z" style="fill:#777b80"/><path d="m31.42 31.03-.09-.65c.04.07.03.07.03.18-.46.24-.36.43-.8.75-.23.17-.27.36-.62.54l-1.3 1-2.5 1.71-3.13 2.32-1.76 1.93c-.08.13-.04.11-.18.18.05-.4-1.74-2.11-1.94-2.25-1.08-.76-2.03-1.62-3.2-2.29l-3.79-2.8-.92-.91c-.21-.12-.06-.1-.2-.19-.32.58 0 .95-.03 1.38-.02.26.15.58.12.86-.41.02-2.22-1.96-2.43-2.28-.47-.67-1.5-2.13-1.73-2.85l-.22-.49c-.12-.19-.05-.48-.27-.8-.07-.1-.08-.09-.11-.23-.32.04-.8.74-1 1.04l-.47 1.49c.18-.1.78-.92 1.73-.93.04.06.06.09.09.15-.33.07-1.6 4.32-.06 6.56l.3.29c.09.1.06.28.25.32a.66.66 0 0 0 .01-.37c-.03-.15 0-2.3.41-2.18.32.09.34.45.56.61.1.07.67 1.1 1.35 1.49.12.07.19.17.3.26.51.41 1.39.9 2.01 1.08l1.49.64 2.76.84.8.28 1.33.6 1.67 1.04c.4.29.94.69 1.19 1.12l1.23-1.09c.09-.06.11-.04.12-.2.23.15.28-.17.69-.39l.63-.3c.18-.08.07-.01.14-.15l2.03-.8.89-.37 2.42-.73 1.46-.62c.09-.04 0 .06.47-.15.94-.49 1.9-1.2 2.57-2.01.17-.2.39-.41.5-.64.72-1.42.68.07.76.5.05.26.1.06.18.26-.03.11-.05.03-.07.16l-.04 1.08c1.29-.83 1.42-3.22 1.31-4.5l-.58-2.38c-.2-.47-.18-.41.26-.38.21.02.62.22.74.44.09 0 .36-.05.19.05v.11c.18.03.23.24.33.28.17-.1-.19-.92-.21-1.04-.03-.19-.83-1.62-1.2-1.53-.15.34-.26 1-.57 1.55l-.49.92-.82 1.29-.59.82c-.55.59.04.19-1.21 1.29-.15.13-1.4 1.37-1 .36l.19-1.32z" style="fill:#4f4c55"/><path d="M26.23 22c-1.22 0-1.05-1.17-1.53-.08-.14.31-.58.64.39 1.17.75.41 2.38.49 3.12-.02 1.48-1.02 1.92-2.27 1.6-3.97-.01-.06.11-.64-.71-.36l-1.16.53c-.21.34.6 2.73-1.71 2.73zm-13.9-2c0 1.26.8 2.8 1.85 3.13.52.16 1.08.41 1.8.29 1.15-.2.55-.1 1.4-.5.93-.44.16-.95.01-1.23-.25-.46-1.19.96-2.27.11-1.62-1.29-.31-2.28-.86-2.61-.34-.2-.33-.14-.73-.29-.62-.23-1.04-.52-1.15.7-.01.15-.05.23-.05.41z" style="fill:red"/><path d="M21.13 22.75c-.25 0-1.25 1.11-1.47 1.54-.17.34 1.12 4.45 1.37 4.8.04.05.09.09.16.09l.81-2.29.49-1.82c.16-1.02.26-.8-.9-1.99-.1-.11-.29-.32-.46-.32zM1.02 1.45v9.03c0 .3.17.2.49.21.99.03 1.65.3 1.15-1.27-.15-.48.17-.23.17-.93l-.09-1.46c.38.28.08.73.6 1.72l2.24-.86c0-.66-.05-1.39.05-2.01l-.05-3.66c0-.52.16-.34 0-1.03-2.25 0-1.73-.88-1.73 3.69l-.98-3.4c-.19-.54-.7-.29-1.09-.29-.02 0-.78-.21-.78.26zm2.68 9.19c.77.06-.02.25 1.16-.14.36-.12.4-.06.48-.38-.19-.26.1-.06-.79-.34-.23-.07-.68-.16-.94-.18 0 .5.09.6.09 1.03zM37.53 7.2v.94l1.9.86c.21-1.74 0-.99 0-1.8-.64 0-1.46-.17-1.9 0zM18.8 2.47V7.8c0 .52.09.63.09 1.12.58.14 1.33-.09 1.99-.09.21-.88.09-6.08.09-7.39 0-.44-.85-.26-2.07-.26 0 .54-.09.72-.09 1.29zm-2.59-1.03v7.3c0 .3.06.33.09.6 2.66-.22 2.07-.24 2.07-3.26V2.39c.03-.54-.08-.8-.09-1.2h-1.55c-.16 0-.52-.17-.52.26zm-4.92.09c0 .45-.01.96.09 1.37.22.87 1.12-.05 1.17.68.01.1-.04.22-.03.42.01.27.07.17.07.53 0 4.66-.64 3.49 1.65 4.81.28.17.29.3.4-.01.13-.38-.07-4.94.01-5.67.05-.46.14-.32.61-.34.79-.04.61-.15.61-1.88 0-.42-.66-.27-.95-.26-1.29.06-3.63-.32-3.63.35zm20.89 2.75c0 .92-.1 2.72.09 3.52 2.63 0 2.02.4 2.06-4.48.01-.46.01-.47.44-.51l.08 4.3c0 .76-.16.58 2.08.85V3.75c0-3.31-3.33-3.32-4.34-1.74-.36.57-.41 1.35-.41 2.25zM6.29 3.76c0 .97-.1 3.22.09 4.04 1.48.12 1.01-.09 1.99-.09.12-1.4.09-2.37.09-3.78 0-.61-.09-.73.17-1.12.44.29.26 1.14.26 2.23v2.58c.11.01 1.22.34 1.83.34.34 0 .31-.08.35-.4.06-.54-.02-2.01-.02-2.86 0-1.94-.01-3.91-2.79-3.69C7.2 1.17 6.3 2.03 6.3 3.76zm31.16-.09c0 1.72.57 2.14 1.95 3.21.77.6.73.85.73 1.6 0 1.07-.45.8-1.57 1.1-1.53.42.25 1.18.88 1.22 1.31.07 2.76-.23 2.76-2.15 0-2.1-.29-2.9-2.06-4.05-.94-.62-.88-1.71-.27-1.88.14.28.23 1.07.26 1.46 2.15 0 1.9.25 1.9-.94 0-3.02-3.46-2.44-4.16-1.48-.29.41-.41 1.23-.41 1.91zM26.92 1.44v7.9c0 .96 1.41-.32 1.81-.43V7.19l.43 1.37c.46-.01.98-.3 1.39-.42.63-.19 1.03-.04 1.03-.87V1.51c0-.5-.75-.34-1.55-.34-.56 0-.26 1.5-.26 2.06 0 .72-.15.81 0 1.46h-.17c0-.42-.48-2.06-.64-2.8-.19-.9-.25-.72-1.78-.72-.2 0-.26.06-.26.26zm-3.19 2.58c0-.67-.04-.48.09-1.03.54.29.43.14.43 1.46 0 .28-.17.32-.43.34-.01-.39-.09-.34-.09-.77zm-2.16-2.23c0 1.28-.12 6.16.09 7.04.44.1.59.08 1.13.08 1.01.01.96.57.95-1.37-.01-.61-.12-.78.26-1.03.58.39.05 1.32.35 2.58 2.08.05 1.99 1.1 1.99-1.37 0-1.82-.63-1.53-.78-2.06.3-.08.51-.3.61-.6.35-1.06.3-3.86-1.5-3.83-3.2.01-3.08-.37-3.08.56z" style="fill:#ff0"/></svg>