<svg xmlns="http://www.w3.org/2000/svg" xml:space="preserve" width="206.089" height="102.256" style="shape-rendering:geometricPrecision;text-rendering:geometricPrecision;image-rendering:optimizeQuality;fill-rule:evenodd;clip-rule:evenodd" viewBox="0 0 112.78 55.96"><defs><style>.fil16{fill:#0f0f0f}.fil18{fill:#0f100f}.fil15{fill:#101b16}.fil1{fill:#111}.fil27{fill:#11231a}.fil6{fill:#141512}.fil4{fill:#161515}.fil10{fill:#167647}.fil3{fill:#167a49}.fil7{fill:#177d4a}.fil12{fill:#182821}.fil8{fill:#1b4a34}.fil20{fill:#b2aa5d}.fil5{fill:#b4ac5d}.fil21{fill:#f4232d}.fil13{fill:#fafafc}.fil22{fill:#fdda89}.fil2{fill:#fde8b8}.fil0{fill:#fdfdfd}.fil11{fill:#ffb01d}.fil17{fill:#ffdb87}</style></defs><g id="Camada_x0020_1"><g id="_2066947728224"><path class="fil0" d="M16.62 51.68c1.39 1.87-1.41 1.99 5.38 1.99 2.42 0 4.71.07 7.07.13 2.32.06 2.8-.42 3.37-.36.61.06.92.49 3.24.47 2.24-.02.74-.4 3.4.01 1.94.3 4.33-.11 5.18-.07.55.02.99.19 1.57.21 2.26.08 13.03.04 14.06.28.92.21 1.05.95 2.37 1.16 2.5.39 4.44.12 6.81.37 2.33.25 4.66-.02 6.93-.33 3.58-.47 7.09 1.86 19.65-1.26 1.11-.28 1.73-.51 2.94-.75 1.11-.22 2.2-.19 3.3-.37.87-.14 2.19-.56 3.09-.61 1.83-.12 3.86.81 6.35-.56 3.45-1.9-.27-5.83-.9-6.89-.25-.42-.38-.69-.69-1.15-.75-1.1-.95-6.41-2.3-10.45-.5-1.5-1.54-4.41-1.16-6.09.74-3.27-.97-5-1.73-6.85-.6-1.45-2.28-2.26-1.22-3.32 1.95-1.96 2.31-1.28.59-4.2-1.7-2.87-1.26-3.54-3.28-3.95-2.83-.57-1.73-.15-1.81-1.57-.02-.38-.96-1.78-1.26-2.26-1.15-1.86-.96-3.42-3.69-3.7-2.15-.22-4.83-.28-7.01-.15-1.34.08-2.18.43-3.28-.16-.49-.26-.81-.3-1.25-.59-.39-.25-.56-.53-1.06-.64-.78-.17-4.26 1.64-5.02 2.11-1.15.71-1.29.6-2.34 1.35-3.22 2.29-2.39 1.1-3.57 3.8-1.76 4.01-1.05 2.85-4.07 3.18-.94.1-2.31.49-3.11.16-.98-.4-1.4-1-2.84-.45-.97.37-1.88.67-2.85.12-.07-1.13.68-1.78-.27-2.77-.59-.61-1.63-.84-2.5-.51-1.54.58-2.44 3.78-3.59 2.61-.65-.67.6-1.3-.1-2.51-.29-.5-1.41-.98-2.23-.92-.91.07-1.6.54-1.91 1.32-.92 2.35-2.52-.49-2.1 4.32.14 1.61-.19 1.57-.5 2.78-.26 1.02-.22 1.69-1.37 1.79-.86.08-1.99.1-2.73-.31-.08-1.13 1.39-2.28-.14-3.23-.97-.6-2.26-.82-3.26-1.34-.21-.98.05-1.56-.57-2.2-.48-.48-1.13-.62-2.01-.78-.92-.17-.86-.53-2.18-.6-.98-.05-1.5-.33-2.45-.34-1.82-.02-9.48.67-10.45.24-.55-.56-.3-1.17-.83-1.8-.37-.43-1.03-.75-1.93-.71-1.91.07-1.98 1.67-2.28 2.37-.77 1.84-7.13-.4-7.67 1.72-.87 3.37 5.67 1.34 6.45 2.21.25.49-.56 3.86-.82 4.34-.68.59-7.91-.58-9.06.6-.43.44-.49.76-1.09 1.36-.98.96-.96 4.27-1.16 6.06C.56 25.51.59 27 .4 28.6c-.39 3.14.81 2.68 4.28 2.6.79-.02 1.53.12 2.3.16 1.26.06 3.63-.47 4.47.28.36.69-.34 2.53-.35 3.51-3.58-.14-1.56 2.59-1.83 3.07-.55.77-2.09.35-3.05.3-1.05-.05-2.17-.03-3.23-.05-.96-.02-2.23-.14-2.65.68-.31.6-.39 2.22-.2 2.9.44.41.91.47 1.42.97.37 2.08-1.03 6.82-.68 9.82 1.21 1.01 2.35.56 3.95.47.69-.04 1.38.26 2.3.26.8 0 1.48-.14 2.27-.04 1.69.21 3.03.43 3.65-.9.35-.75.39-.84 1.33-.93.64-.07 1.68-.14 2.28-.01z"/><path class="fil1" d="M63.01 52.97c.26-.71.5-.73.75-1.36l.14-1.22c.08-.31.07-.2.21-.39.49.62-.02.42.15 1.68.24.34.73 1.14.68 1.73.7.15 1.44.09 1.94.35-1.26.6-3.38.75-4.56-.16.22-.25.48-.45.7-.64zm7.27-8.58c-.2 1.88-.39 6.64-1.23 7.86-.38.56-.42.81-1.26.89-.56.05-1.71.11-2.18-.12-.49-.24-.62-.89-.77-1.54-.25-1.16-.21-.96.04-1.98.56-2.31-.02-8.62 2.44-8.89.5-.05 1.81-.04 2.22.17 1.14.59.88 2.26.74 3.6zm17.95-3.23c.88-.3 2.34-.97 3.34-1.04.28.9.92 3.24.93 4.11-.94.57-2.37.98-3.65.92-.51-.82-.67-2.84-.62-3.99zm-47.74.22c1.31-.17 2.93-.61 3.95-.69 1.03 1.07.58 2.18.39 3.72-.18 1.47-.34 2.78-.45 4.25-.14 1.76.07 2.62-.93 3.64-.57.58-.94.45-1.93.43-.72-.01-1.54.1-2.21-.14-.08-.47.99-10.48 1.18-11.21zm17.56 11.51c-.26-.91 1.1-10.53 1.22-12.42 1-.01 2 .03 2.99.05 2.9.06 1.79 2.89 1.43 6.66-.66 6.81-.49 6.51-5.64 5.71zm12.81-10.62.16-1.54c1.73-.49 1.45 1.28 1.45 2.57-.01 3.93.01 5.4-1.28 8.92-.29.79-.29 1.02-1.28.93-.14-2.74 1-.27 1.52-4.88.26-2.33.52-3.23.16-5.71l-.71-.3zm-63.01 9.8c-.61.13-1.37.42-1.45-.27l.93-9.78c.17-1.06.94-2.16 1.91-2.21 4.54-.24 3.35 2.39 3.08 4.72-.23 1.95-.24 6.07-.82 7.67l-1.35.06c-.21-3.72 1.03-5.21-.45-5.21-2.66 0-.68 1.21-1.86 5.01zm29.71-11.62c1.64-.43 1.26 1.39 1.13 2.49-.16 1.29-.11 2.5-.24 3.75-.25 2.29 0 5.73-2.3 5.92-1.72.14-2.46.08-2.86-1.4-.23-.85.1-2.7.21-3.63.25-2.27.39-5.12.79-7.26l1.44.01c.01 1.62-.38 4.05-.57 5.68-.11.89-.21 1.85-.31 2.71-.12 1.14-.58 2.23.83 2.17 1.15-.04 1.02-1.08 1.03-2.07.01-1.08.08-1.89.19-2.93.13-1.21.36-4.64.67-5.47zm49.91-.22-.01.79c-.85.14-1.51.34-2.27.52-1.02.23-1.41-.01-1.27-1.14.55-.32 2.34-1.14 3.09-1.1l.46.93zM1.69 41.36c-.22-.52-.07-1.04.01-1.64.87-.09 1.76-.02 2.63-.01.46.01.93.01 1.39.01l.97.14c.11-.2.26.44.03 1.56-.69.14-1.33-.05-1.75.23-.56.73-.48 9.06-1.26 10.45l-1.31-.09c-.24-1.88 1.05-9.38.81-10.51-.6-.05-1.08.04-1.52-.15zm72.1-.66c-1.66-.18-2.09-.77-1.99-2.31l.14-.52c.37.11 1.05.71 1.3 1.07.32.46.53 1.24.54 1.76zm13.69-.47-.17-1.41c.66-.38 2.53-1.63 2.96-1.69.36.8 1.05 1.6 1.06 2.55-.98.34-2.39.99-3.48 1.06l-.38-.52zm4.89 1.58c-.17-.57-.51-1.54-.53-1.99.49-.36 1.07-.69 1.58-1.02.49-.31 1.16-.75 1.61-.99l.51.8c.03-.85-.74-1.28.59-1.96.32 1.52.26 3.37-.39 4.77-.41.9-1.95 2.59-2.89 2.63-.14-.38-.27-1.59-.47-2.26zm-.75-2.6c-.37-.42-.53-.92-.8-1.41-.33-.6-.61-.83-.08-1.35 1.04-1 1.42-1.68 2.48-1.8.32.62 1.36 2 1.51 2.51-.35.62-2.49 1.99-3.12 2.04zM55.4 36.96c-.55.16-1.64 2.26-2.81 1.45-.78-.54-.39-2.83.13-3.55.86-1.18 2.62-1.32 2.17.57-.43 1.83-2.37 1.2-1.85 2.5.77.03 1.28-.76 1.72-1.18.94-.89.42-.93 1.04-1.94l1.16.04-.62 2.55c.57-.12 2.29-1.19 2.59-1.55.41-.48.22-.81.72-1.28 1.45-1.37 2.48.95 1.19 2.11-.78.7-1.52.24-1.37 1.44 1.69.09 2.25-2.54 3.63-2.89-.22 1.01-.85 1.47-1.47 2.09-.79.79-.52 1.31-2.15 1.31-.72-.45-.61-1.02-.62-1.94-1.3.08-2.16 1.72-3.43 2.18l-.06-1.91zm37.9-2.56c.26-.54 2.73-2.11 3.11-1.07 0 0 .01 3-1.41 3.38l-1.7-2.31zm-66.99-2.46c.47.19.57.15.85.62-.42.38-.77.36-1.35.38.15-.56.14-.66.51-1zM15.4 30.6c.69.27.38.37 1.37.39 5.24.12 3.66.02 4.39-1.12l2.71-.06c.94 1.27-.1 1.57-.65 3.05-1.19-.28-1.34-.61-2.39.06-.77.49-.91 1.48-1.34 1.74 0 0-5.23.7-5.46.69.01-.65 1.04-4.32 1.37-4.75zm7.22 4.1c.64-.69.5-.92.94-1.65.32-.53.71-1.01 1.03-1.58.68-1.22.84-3.25 2.56-1.92-.05 1.28-1.29 1.8-1.76 3.04-.46 1.22-1.01 2.37-1.41 3.45 1.07-.22 1.22-.74 1.67-1.66 1.12-2.3 3.18-1.14 1.68 1.22-.73 1.15-1.65.14-1.27 1.53.88.1 1.87-1.25 2.3-1.89.24-.35.47-1.73 2.69-1.57.18.33.23.66.39 1.12 1.8.03.92.2 1.8.38.3-.4.31-.66 1.06-.62-.25.48-.62.72-1 1.18-.52.64-.29.89-1.16 1.03-.44-.33-.2-.43-.46-.82-.79.38-.55.58-1.4.82l.01-1.76c-.98.54-1.42 1.97-2.15 2.41-.38-.2-.33-.35-.61-.5-.56.52-.8 1.04-1.95.67-.24-.38-.22-.9-.4-1.42-.74.15-1.13.9-1.99 1.03l.41-2.54c-.34.18-.3.1-.66.71-.92 1.58-.66 1.22-2.28 1.29l.81-2.2 1.14.25zM7.58 29.8c.82-.49 8.06-.77 9.51-.82 1.52-.06 3.16-.27 4.63-.43 3.22-.34 3.96-.76 4.09.58-3.18.56-7.51.15-11.01.66-.14 1.81-1.12 4.58-1.62 6.24 1.93-.27 3.55-.6 5.41-.87 1.5-.21 1.38.07 1.97-1.11.38-.76.87-1.31 1.99-.99.01.73-.05.5-.59.84-.88.56-1.32 1.71-1.96 2.38-.81-.01-6.53.15-6.8.53l-.33.62c-.78 1.97.02 1.93-.86 2.39-.63-.92.52-.92.06-3.01-.18-.02-1.12.02-1.22-.21-.03-.06-.09-.05-.13-.1l1.61-.34 1.14-6.27-5.44.14c-.47-.09-.22.03-.45-.22zm94.18-5c1.14.29 1.3 1.28 1.88 2.36.56 1.06.87 1.95.91 3.25.1 2.9 1.51 3.84 1.9 6.39 1.06 6.21.01 6.26-.07 8.88.72-.49.64-1.21 1.17-2.01.17.43.11.27.16.57.69.54.48 1.1 1.05 1.78.53.64.77.91 1.21 1.54.82 1.18 1.73 2.79-.21 3.41-.55.09-1.14.12-1.7.13-.26 0-.68.01-.93-.02-.58-.08-.41 0-.73-.28-1.75.16-2.71-1.63-2.46-3.39l-.25-.52c-1.05 3.12 2.63 4.88-4.85 4.79.85-1.65 1.84-1.33 2.15-4.4-.13-.51-.04-.01-.2.39-.12.3-.21.44-.36.76-1.67 3.51-6.04 4.96-9.82 5.29-3.96.92-10.16 1.04-13.83-.91-.55-.29-1.12-.72-1.73-1.03-1.43-.71-.69-.86-1.72-1.13.6 1.57 2.53 2.21 2.98 3.02-2.56.51-4.92 1.52-7.65.51.13-.46.24-.55.41-.83.69.11.27.53 2.13.26.59-.84 1.16-2.49 1.33-3.75.12-.89.35-3.99.66-4.53l1.89.38c-.31-.83-1.58-.59-1.88-1.14l-.24-2.23c.66.17.81.41 1.08.2-.66-.45-1.27-.82-1.35-1.69 1.08.16.92.46 1.61.63.26.06 1.5.22 1.71.22l.47-.04c-1.78-.35-2.47-.28-2.66-2.17.2.02 2.91 1 3.33 1.18.22.09.24.06.44.16.69-.45 2.19.15 2.67.4.03-.03.07-.07.09-.08l.27-.22c.37-.23.64-.18 1.13-.24.74-.09 1.07-.31 1.86-.09.52 1.36.05 1.13-.18 1.23.39.29.47 0 .63.78.1.45-.02.58.19 1 .49-.5.09-.93.06-1.59 1.04-.29 2.18-.63 3.32-.56.54.92.53 2.57.55 3.8-4.54-.11-3.57-.92-7.57-2.57 0-.32.04-.18.13-.38l.16-.32c-.43-.17-.15.07-.49-.31-.03.02-.07.06-.08.07a.5.5 0 0 0-.08.07l-.49.27c-.41.09-1.81.15-2.18-.69-.33.42-.27.43-.09.8l.1.19-2.67.68-.79.39c.63.26 3.36-.53 4.58-.51 1.03.02 1.52.24 2.24.62.6.32 1.44.69 1.82.95 1.12.78 2.22 1.32 4 1.5 1.61.17 3.64.07 4.88-.47 7.5-3.27 4.74-7.74 5.39-10.93.43-2.14 1.81-1.71 2.88-1.53l.42-.02c-2.38-1.86-3.13-1.9-5.47-.45-2.56 1.59-1.46 1.32-2.96 2.25-.48.3-.29.19-.64.59-.59.67-3.12 2.51-3.82 2.94-2.15 1.31-5.83 2.21-8.57 2.1-4.22-.17-6.33-3.19-7.06-3.6l.12-.22c.01-.03.08-.17.09-.2.17-.86-2.45-.87-3.12.16.81 0 1.08-.22 1.92.05.26.73-.05 1.29.44 3.44-.03.03-.09.02-.11.07-.02.05-.08.06-.11.07l-.62.47c-.85-.38-3.71-1.01-4.71.37-1.48 2.04-.28 4.39-1.13 4.98-.32-.67.08-2.25.17-3.04.28-2.36-1.55-1.68-.07-6.21.54-1.65.15-1.3 1.14-2.54 2.26-2.82 6.78-4.13 8.12-6.48-.42.17-.92.55-1.21.79-.66.55-.66.42-1.35.8-1.03.56-1.67 1.14-2.88 1.56.29-.71.63-.84.81-1.61.48-2.07-1.12-1.92 6.02-4 1.41-.41.69-.46 3-.85 1.15-.2 2.5-.2 3.76-.22 4.11-.07 4.85.17 8.34 1.34.52.18.87.4 1.43.61 2.16.82 2.65.33 2.97 1.05.03-.03.06-.14.07-.11.15.32-.34-.31 1.26-.95.68-.27 1.08-.56 1.79-.7 1.06-.21 2.72-1.02 3.82-.68zm-41.2 1.44c1.52-.75 1.62.88 1.9-2.09.48.2.63.7.79 1.28-.95.36-.7.28-1.09 2.72-.41.09-1.6.17-1.75-.17l-.1-.21c-.01-.03-.02-.08-.03-.12-.01-.03.01-.48.02-.52.06-.53.03-.54.25-.89zm-46.54 2.53c-.72-.2-.49-.13-.25-2.19l.37-4.81c.22-1.98.05-1.71.96-1.64.2.83-.43 5.38-.59 6.77-.04.35-.06.8-.11 1.13-.11.7.03.49-.38.74zm47.11-7.93c.04-.02.09-.04.13-.05.32-.09.45-.21 1.82-.05l-.36 2.86c-.46-.08-.64-.38-1.9-.81l.31-1.96zm-10.94-.25 2.07.04c.1.35-.51 7.11-.6 7.3-.26.3-1.65.12-1.97.03l.02-1.51c.19-.89 1.01-.19 1.65-.63.52-.46.47-1.66.31-2.48-.6-.45-.81-.42-1.68-.65l.21-2.09zM9.26 29.07c-.46-.74.15-3.65.26-4.69.09-.8.17-1.56.25-2.36.25-2.27.04-1.88.71-1.91.4.68-.19 3.66-.27 4.63-.08.86-.02 1.65-.12 2.52-.24 2.03.02 1.83-.83 1.81zm57.36-3.47c-1.5-.56-3.72.96-3.33-2.89.53-5.25.61-2.66 1.66-4.8.83-.01 1.74-.04 2.56-.02 1.04.03 1.03.16 1.45.9.57 1.02.33 2.92.03 4.04-.63.16-1.53.15-2.03-.03-.02-.04-.03-.1-.04-.13l-.07-.4c-.01-.16.02-.26.03-.4.21-1.63.54-1.97-1.08-1.75-.21.74-.44 2.43-.28 3.21.72.14 1.72-.06 2.31.26 1.65.89.77 5.23.52 5.68-.54.98-1.12 1.62-2.09 1.62-2.13 0-2.76.26-3.32-1.32-.28-.8-.07-2.95.25-3.71l1.82.11c.33 1.64-.77 2.68.64 2.68.9 0 .72-.34.82-1.22.07-.64.2-1.2.14-1.83zM1.85 30.01c-.13-1.54.57-5.86.76-7.65.12-1.15-.14-2.76.44-3.69.19-.3.81-.94 1.05-1.1.54-.36 1.01-.26 1.78-.26 3.42 0 3.37.96 2.93 4.5l-.66 7.21c-.64.25-.66-.08-1.16.51-.43.51-.09.67-1.1.46l.42-5.01-1.71-.02c-.15 1.08-.44 4.34-.79 5.15l-1.97-.1zm56.74-11.42c.97.23 1.08.83 2.17-.15.88-.8 1.13-.54 2.57-.52l-.21 1.98c-1.04.4-2.52-.19-2.94.27-.29.43-.39 2.45-.3 3.12l1.55.14c.21.52.06 1.39-.11 1.97l-1.86.12-.15 2.96c1.68.44 4.05-.59 2.77 2.31-.85.11-3.95.17-4.41-.25-.94-.87-.48-2.48-.34-3.83.15-1.5.17-2.94.32-4.45.14-1.37.08-2.86.94-3.68zm32.71 2.39 1.41-.18.87-.19 1.49-.54c.17-.14.04-.11.43-.24.23-.08.29-.06.52-.1 2.14-.41 4.09-2 5.88.1l1.59 2.86c.35.84 1.09 2.44.98 3.38-2.68-3.51-3.66-2.58-7.79-1.02-2.04.77-2.74.78-4.97.31-.55-.12-3.8-1.17-4.18-1.66-1.53-.13-3.14-1.24-4.6-1.82h-.48c.61.36 1.89 1.03 2.31 1.67l-3.37-.01c-2.65.01-4.06.21-6.31.97l-5.35 1.79c-.1-.65.05-1.01-.29-1.54-.34-.52-.48-.4-.66-1.18.74 0 .87.1 1.24-.42l.04-.71.35-2.44c1.27-.26 3.33-.33 4.65-.22l-.55.44c-.38.25-.19.18-.58.29-.15.25-.17.25-.37.57l.32.04c.9-.29 1.8-.89 3.12-1.18 1.34-.29 2.75-.21 4.16-.19 2.82.03 5.65 0 8.47-.01l5.06-.15c.02-.03.07.03.1.06-.24.1-3.89.82-3.51 1.32zm-34.78 9.59c-.52.36-4.09.33-4.4-.11-.42-.6 1.07-10.6 1.16-12.57l2.15.03-1.04 10.55 2.28.1-.16 1.98zm-32.61-2.83c-.16-1 .55-5.49.68-6.85.11-1.18.33-2.17 1-2.89.82-.87 5.15-.96 4.94 1.6l-.97 8.69c-.12.88-.2.68-.61 1.2.07.17.83.54.14 2.31-.84.31-1.64.14-2.3-.15.07-.7.8-1.08.77-2.36-.46-.32-1.05-.46-1.18-1.08l.97-.12.92-8.35-1.35.09-.93 7.95-2.07-.05zm22.48 1.34c-.24-.73.59-6.98.73-8.25.1-.98.4-2.93 1.63-3.04 2.48-.22 2.54.44 2.85.58l.67.15.13 1.23c-.76.3-1.9-.02-2.92.16-.18.61-.36 2.68-.26 3.26.45.02 2.55-.48 1.39 2.18-1.9.26-1.73-.45-1.93 1.64-.05.52-.12.86-.06 1.46l3.11.13-.26 1.14c-.8-.09-1.34-.51-2.24-.59-.91-.08-1.9.02-2.83-.05zm-3.9-.56c.64 1.07-.85 1.18-1.7 1.42-3.63 1-3.67.87-3.01-4.96.2-1.73.29-4.38.71-5.88.3-1.09.68-1.37 1.96-1.37.94.01 2.38-.07 3.31.09l-.22 1.88-3.13.05-.13 3.29c.56.03 1.24.04 1.63.22.35 2.35-.77 1.99-1.13 2.03-.22.02-.22.01-.44.06-.82.2-.76 2.31-.63 3.02.86.01 2.23-.09 2.79.15zm-10.98 1.9c-.6-1.08-.94-1.69-.75-3.24l.71-7.58c.23-2-.03-1.92 2.27-1.96.34 2.86-1.3 7.79-.79 10.58 1.62.04 1.31.06 1.46-1.65.09-.97.26-1.98.3-2.93.08-1.97.2-3.89.53-5.82.68-.12 1.43-.17 2.09.01l-.7 8.52c-.32 2.77.03 2.23-1.13 3.43-.56.58-.51.71-1.66.7-.77-.01-1.58-.02-2.35-.05zm-16.56-1.81c-.04-2.42.63-5.52.8-8.03.1-1.39.03-2.55 1.26-3.01.77-.29 3.49-.21 4.15.01.18.47.09 1.46-.16 1.99-.9.18-1.84-.02-2.38.03l-.54.15c-.02-.04-.08.04-.19.06l-.01 3.02c.71.01 1.43-.17 1.61.39.14.43-.09 1.37-.26 1.64-.47.35-.27.14-.91.18-.22.01-.19-.01-.43.03-.8.15-.72 2.17-.66 2.94l1.83.2-4.11.4zm29.61-6.87c1.14-1.34 1.48-3.4 1.96-4 .67.02.8.28.91.38-.7 1.11-.67.83-.84 2.45-.93 9.25.21 8.48-2.76 8.7-.54-.61-.02-.84-1.2-1.19-1.37-.41-1.94.31-2.04-.75l.15-1.41c1.59-.14 2.12.28 2-2.61-.76-.65-.43-.34-1.5-.75-.15-.62-.14-1.48.13-2.05l1.68-.06c.45.83.19 1.3 1.5 1.26zm-29.03-2.23c-2.42.76-1.48-1.07-1.06-2.16.81-.01 1.33-.17 1.36.59.02.49-.1 1.21-.3 1.57zm39.96 8.6c-.51-2.76 1.31-8.53.48-10.46.77 0 1.66.21 2.14.63-1.32 2.02-.71 7.6-1.52 9.84l-1.1-.01zM9.46 19.45c-.22-.67-.06-1.47.13-2.08.91-.17 2.37-.18 3.14.06.11.91-.92 1.57.12 2.16l.66.39c-.21 1.76-.64 7.56-1.11 8.88l-2.05.07c-.03-2.41 1.19-7.46.9-9.36l-1.79-.12zm20.73-1.93c.25-.39.68-.61 1.14-.78l-.42 1.56-.72-.78zm47.89-4.12c.36-.39.39-.29.97-.09.5.17 2.75 1.82 3.22 2.19.46.36.96.47 1.35.8l-.21 2.71c-.68.24-6.93.09-8.39-.01-1-.07-1.85.05-2.84.05-2.88.13-1.61.47-3.01-.91-.22-.21-.55-.43-.75-.6.01-1.87 1.21-1.74 4.24-2.69 1.01-.31 1.84-.47 2.83-.71.86-.21 1.64-.59 2.59-.74zm-14.42 4.42c.1-.79.46-.54 1.09-.88.46-.25.54-.51 1.04-.75.33.27.69.88.81 1.38-.98.03-2.32.39-2.95.25zm-34.64-.77c-.4.22-.9.26-1.16-.15.26-.16.34-.24.75-.18.63.09.28.02.4.33zm-7.49-.15c1.38-1.03 1.48.69 2.48.69.71 0 1.46-1.35 2.55-.69-.34.37-.63.23-1.09.69-1.46 1.45-1.25 1.9-1.47 3.91-.21 1.93-.33 4.54-.7 6.36-.76.07-1.84.31-2.58.13-1.06-.26-1.37-.22-2.49-.41-.14-.41-.19-1.63.2-1.8.03-.01.08-.05.11-.06.04-.01.08-.04.12-.05.05-.01.08-.02.13-.03.15-.03.28-.02.43-.04.98-.11 1.15-.51 1.09-2.61-.7-.49-.73-.35-1.65-.72-.05-.63.02-1.54.26-2.04 1.28-.13 2.64.37 3.01-.63.71-1.92-.36-1.98-.41-2.71zm-3.6.07c.1-.41.38-.58.68-.86.42-.39.35-.49.94-.59.24.5.05.55.46.92.41.37.41 0 .59.59l-2.67-.06zm74.14 1.85-4.92.24c.22-.93 1.39-1.93 2.01-2.61 1.17-1.27 5.15-6.46 6.7-6.62l.52-.17c.32 1.03 1.1 2.2 1.59 3.03 1.09 1.85 1.28 1.9-.37 4.82-.99 1.74-2.63.92-5.53 1.31zM49.62 17.4c.33-.76.63-.92 1.25-1.46.42-.36.76-.96 1.32-1.18l-.84 2.62-1.74.02zm8.98-3.42c.15-.13-.06-.13.3-.17.41-.04.2.05.38.17-.02.01.15.65-.68 0zm7.84 1.23c.16-.74 2.17-1.79 2.52-1.93-.16.99-.48 1.57-.85 2.43l-1.66-.5zm-3.25-1.54c.22-.17-.05-.1.46-.2.03-.01.41-.02.46-.03l3.14-.15-.74.77c-.96.59-2.61.02-3.33-.4zm-4.2-1.49c.14.74-.13.83-.83.8-.22-.26-.16-.14-.31-.54.33-.47.5-.65 1.14-.26zm25.28 3.33c.04-.42.1-1.7.17-1.94.2-.71.68-.48.89-1.26-.58.24-.15.19-.87.37l.16-1.05 1.05.14c.33 1.21.05.96-.43 1.68.78-.46.03-.54 1.02-.69l1.41 3.03c.21.42.33.35.52.81-.52.87-1.09 1.65-1.8 2.46-.77.16-1.75.11-2.51-.08.01-.44.1-.31.16-.73.07-.54-.05-.28 0-.83.04-.42.18-1.27.24-1.9zm-24.5-2.92c1.34-.92.61-.74 1.1-1.13.93-.74.88.32 1.09.74 1.54.08 4.28-.32 6.1-.48 1.7-.15 1.45-.06 1.64.52l-8.31.71c-.25.38-1.78 4.08-1.67 4.92 1.94.02 1.35-4 3.48-3.67.96.15.54.9.42 1.64 1.39-.2.81-1 1.67-1.02.16 1.01-1.16 1.36-1.55 1.51-1.45.57-.05.82-2.37.86-.36.32-.57.62-.93.92-1.57 1.3-1.14-.85-1.14-2.04-1.03.35-.84 1.09-1.77 1.4-.4-.32-.23-.1-.46-.7-.62-.03-.67.11-1.38-.15-.36.33-1.04 1.27-1.8.69-.38-.4-.24-.17-.15-.78.03-.23.12-.55.15-.78.1-.64.08-1.04.42-1.54l.91.07c0 1.22-.78 1.25-.83 2.5 1.19-.51.81-1.62 1.31-2.04.37-.32.78-.07.86.31.06.32-.14.73-.15 1.12.92.1.86-1.04 1.13-1.88.67-.11.51-.1 1.07.13-.24.82-.48.81-.66 1.78.92-.24 1.07-.74 1.51-1.53.55-.99.63-.99.35-2.09zm-44.51 4.29c-.02-.56 1.47-5.42 1.78-5.88.44-.65 2.46-.39 3.43-.4 1.2-.01 2.52-.08 3.71-.01-.05.64-.51 1.19-.81 1.62-.7-.02-.83-.32-1.63-.09-.71.21-.47.53-1.24.27-1.17-.4-.79-1.35-2.49-1.12-.28.27-.66.8-.9 1.18-.34.55-.73 3.36-.71 3.46.15.7.54.49.92.97-.8.57-1.31.2-2.06-.01zm85.04-6.12c.17.22.01 0 .15.32.75 1.77 1.78 2.44 2.26 4.27-.38.63-.49.52-.98.89-.34.26-.56.52-.82.88-.85 1.18-1 .64-2.51.94.2-1.58.2-1.99 1.23-2.66-.36-1.48-.21-.49.29-1.43-.28-.52-.47-.48-1.24-1.84-.09-.39-.57-1-.76-1.59l2.37.22zm-73.88 2.19c.02-.26.63-2.06.8-2.39l3.16.07c-.13.66-.55 1.24-1.01 1.64-.54.02-1.26-.17-1.79.04-.7.28-.21.53-1.16.64zm4.19-1.43c.6-1.08.54-2.43 2.14-2.17.35.81-.01 1.13-.4 1.6-.91 1.09-1.97 3.73-2.04 4.56 2.05-.57 3.33-6.97 4.6-5.25.44.9-1.49 2.46-1.34 3.72l1.02-.63c.62.64.5.51.19 1.37 1.27-.24.79-2.18 2.68-1.63.43.58.28 1.31-.2 1.99-.55.79-1.29.38-1.34 1.54.69-.13 1.45-.77 1.81-1.22 1.02-1.29.44-1.5 1.41-1.27-.43.94-.96 1.58-1.8 2.26-2.03 1.64-1.99-.01-2.29-.6-.77.29-.08.37-.88.54-.34-.46-.12-.63-.01-1.32-1.2.54-1.29 2.14-2.26 2.24-.15-1.03.63-2.32.39-2.96-.73.35-1.46 2.1-2.9 2.26-.1-1.11.12-1.38.34-2.33-.74.35-.73 1.14-1.33 1.8l-2.01.23-.1-.96c-.94.22-.25.53-1.39.79-1.04.24-.93.57-1.48.58-.19-1.07.47-1.99.4-3-.35.29-1.16 1.74-1.31 2.2-2.12.07-1.05.55-2.31.25l.07-1.09c-.91-.3-1.1-.71-1.89-.08-.89.7-.25 1.09-1.46 1.11-.04-.42.29-1.87.38-2.53.1-.75.47-1.44.81-1.96l.89.29c.06.85-.76 1.23-.81 2.05.81-.37 1.33-1.71 2.41-.87-.12.77-.42.55-.79 1.29.78-.08.82-.19 1.13-.79.95-1.85 2.06-1.1 1.87-.6-.11.27-.78.54-1.09.72.29.27.57.4 1.04.46l2.26-3.75 1.09.06c-.09 1.04-.67 1.5-.81 2.46l.84.47c.26.26.15.33.47.7.78-.32.86-2.18 2.41-1.17-.23.74-.67.47-1.19 1.07.39.27.52.28 1.11.26l1.67-2.71zm16.58-.47c.25-.61.51-.87.67-1.61.64-3.07 1.98-1.96 1.74-1.1-.05.18-.52 1.09-.7 1.48-.45 1.02-.9 1.97-1.36 3.11-.38.96-.32 2.37-.15 3.47l.06.25c0-.02.02.08.03.12.5.16.61-.27 1.22-.71.56-.41.69-.61 1.04-1.1l2.23-2.7c.09-.11.13-.13.22-.24.25-.28.29-.35.49-.59.39-.48.56-.66.95-1.2 1.13-1.57 1.28-2.06 2.5-1.78.11.89-1.6 4.04-2.01 4.9-.39.82-1.55 4.25-2.14 4.55-.27-.33-.18-.53.23-1.55l1.53-4.65c-.53.35-1.07 1.01-1.49 1.45l-1.58 1.5c-.02.01-2.71 2.95-3.23 2.76-.71-.64-.35-1.48-.68-2.35-.51.23-.32.11-.77 1.39-.19.54-.41 1.05-.62 1.5-.25.53-.45.94-.7 1.46-.53 1.1-.32 1.12-.52 1.54-.55-.18-.17-.63-.01-1.13.54-1.72.61-2.09 1.42-3.96.3-.69.72-1.98.8-2.7.12-1.06-.37-2.28.01-3.26.62-.01.54.22.76.92.01.03.04.14.04.11.01-.02.02.08.04.11zm25.2 3.19-3.31.88c.26-1.83 1.31-2.18 1.46-2.57.51-1.41-.85-1.49 1.66-2.17.98-.27 3.18-1.56 5.44-2.28.52-.31 1.31-.68 1.99-.74-.03.91-.39 1.52-.5 2.61-.07.78-.14 1.81-.35 2.54-1.69.53-5.01 1.65-6.4 1.73zm-57.2-4.89c1.1-1.05-.08-2.78 1.42-2.68 1.44.1.08 1.76-.03 2.71 2.51 0 4.82-.06 7.31-.24 1.18-.09 2.35-.14 3.52-.17 1.34-.04 2.76-.32 3 .55-.33.5-.55.4-1.34.4-2.06.01-12.25.11-12.61.28-.68.32-2.53 8.27-3.23 8.92-.7-.52.48-2.17.75-4.38.16-1.33 1.04-3.35 1.01-4.55l-5.45.02c-.57.01-1.18.1-1.54-.24 1.31-.64 6.08.05 7.19-.63zm65.38-7.31c.54.2.02-.01.35.17l.88.51c.9.44 1.64 1.08 2.83 1.78l.54.4c-.01.35-.1.78-.07 1.08l.23.68c.01-.02.05.08.08.12.67-.11 3.45.17 4.03.41.77.3.62.26 1.02 1.01.23.43.45.72.66 1.18.48 1.03 1.27 2.11 1.11 2.59l-1.8 2.05c-.51.42-.55.39-.9.95-.33.52-.41.71-.85.99l-1.55-1.98c-.28-.46-.76-2.06-.48-2.66.26-.55 1.83-2.26 2.41-2.82.18-.17.31-.24.41-.51.25-.66.04-.36-.01-.46-.26.65-.77.86-1.27 1.34-.28.26-.41.42-.65.74-.3.4-.12.43-.56.51-.29.48-.5.76-.81 1.17-.52 0-.99-.16-1.45-.41l-.1-1.05c-.25-.34-.79-.52-1.23-.76-.41-.23-.87-.67-1.25-.36.08.14 0 .05.18.23.07.07.15.13.24.2.2.15.3.19.47.3.34.22.54.38.9.62l-.33 5.47c-.5-.14-3.92-2.45-4.35-2.96l.64-5.08c.8.21 1 .75 1.68.87l.3-.07c-.75-.41-1.38-1.51-2.31-1.57-1.15.09-3.04 1.29-4.12 1.67-.49.17-.64.13-1.17.38-.29.14-.58.28-.95.43-.83.34-1.32.71-2.25.84.2-.72.52-1.08.8-1.69.22-.48.37-1.13.61-1.53.41-.7 4.36-3.1 5.19-3.55.53-.29 2.39-1.21 2.88-1.25zm5.09 4.25c-.16-.7.07-1.16.04-1.86-.04-.84-.15-.62-.65-1.06.74-.71 8.08-.4 9.05.15l-3.13 3.05c-.53.31-4.65-.06-5.32-.28zM42.12 31.2l-.15-.02c-1.19 0-.21.07-.61-.34l-2.42.29c.55-.79 16.06-4.66 13.23 3.01-.65 1.77-1.28 1.73-2.25 2.84-1.41 1.62-4.27 3.22-6.49 3.53-1.1.15-3.3.91-4.12.05 1.16-.51 4.01.35 4.81-.77l-.07-.13-.57-.09c-.79.6-4.03.33-5.05.29-1.4-.06-1.27.59-2.12.23-.89-.38-1.56-.47-2.48-.14-.35.96-.61 5.34-.77 6.77-.23 2.02-.73 5.04.57 6.33 1.39.12 3.02.36 3.86-.36 1.15-.98.91-1.48 1.1-3.32.12-1.12.5-7.65 1.07-8.05.52.32.06 2.02-.01 2.62l-.71 6.05c-.07.59-.6 2.63-.08 3.08.65.28 4.06.34 4.64-.05 1.69-1.15 1.62-6.22 1.89-8.21.3-2.21.54-2.58-.27-4.24.57-.32 1.23-.6 1.8-.88.78-.38.98-.65 1.75-1.04 1.15-.57 2.18-2.1 3.05-2.35l.05 2.24c1.51.63 1.6.28 2.95-.05.19.43.04.6.52.81.55.24.85-.09 1.12-.32.44-.38 1.19-1.11 1.74-1.19.38.76.64 1.48 1.67 1.42.84-.05 1.67-.79 2.06-1.21 2.18-2.36 2.69-3.18.26-3.19-.31-.49-.33-.82-.96-1-.63-.19-1.34-.01-1.73.38-.76.77-.86 1.72-2.06 2.07l.05-1.55c-.74-.34-.94-.45-1.95-.27-.67-1.14-1.03-1.07-2.51-.72.12-1.16.09-1.26.06-2.37 1.08-.01 2.36.06 3.41-.01.76-.06.71-.24 1.47-.11 1.51.27 3.54.45 5.01 0 .75-.23.43-.03 1.14.16.56.15 1.22.11 1.81.12.06.76-.08.95-.46 1.45-.81 1.04-2.06 4.38-2.23 5.81-.23 1.89.24 1.47-2.43 1.45l-1.38.02c-.05.01-.09.02-.13.03l-.36.15c-.37.54-1.55 11.81-1.37 13.08.81.1 2.64-.06 3.18.08.57.15.78.92 2.14 1.23 2.06.48 4.18.11 6.26.32 4.18.42 7.39-.8 9.09-.44 4.52.97 10.64.5 14.88-.68.92-.26 1.77-.29 2.69-.54.96-.26 1.69-.66 2.53-.85.92-.21 2.1-.13 3.16-.28.97-.14 1.76-.42 2.73-.58 1.9-.32 7.41 1.2 7.66-1.96.18-2.22-3.2-4.46-3.5-6.59-.39-2.83-.62-5.57-1.54-8.26l-1.79-6.54c-.21-1.09-.01-.63.32-1.32.54-1.13-.63-4.4-1.14-5.21-.44-.71-.86-1.37-1.31-2.06-.27-.41-.38-.74-.66-1.04-.29-.31-.62-.47-.9-.78.88-1.02 1.89-1.63 2.69-2.61-.12-.82-.73-1.21-1.13-2.03l-1.09-2.14c-.49-1.04-.61-1.12-1.94-1.3-1.74-.23-4.13-.09-2.1-2.21-.17-.75-1.59-2.88-1.95-3.57-.98-1.87-1.2-1.72-3.88-1.81-1.86-.06-3.72.01-5.58.11-3.11.16-2.37.19-4.47-1.13-1.24-.78-2.99.36-3.88.92-1.27.8-2.52 1.19-3.64 2.05-1.51 1.17-1.85.86-2.87 2.8-.64 1.22-1.24 2.82-1.66 4.02-2.28.08-4.71.65-6.79.64-.5-.33-.84-.92-1.71-.97-.98-.06-1.06.72-1.52 1.24-.98-.21-.67-.87-2.21-.36-.46 1.12-.22 1.31.54 2.04-1.14.54-1.65.61-2.8.31-.09-1.48 2.15-4.41 1.85-5.23-1.03-1.15-1.72-1.36-2.86-.26-.54.52-.48.58-.92 1.23-.31.45-.71.74-1.09 1.21-.26.33-.61.97-.89 1.26-.44.45-2.78 3.27-3.21 3.36-.54-1.74 1.01-3.66 1.57-5.14.2-.54.91-2.08.66-2.6-.33-.68-1.47-1.16-2.32-.6-.24.37-.27.78-.45 1.24-.41 1.04-.15.7-1.06.81-1.27.16-.83 1.61-.71 2.77.15 1.41-1.01 4.12-1.62 5.41-1.1-.03-4.08-.51-5.13-.01-.56.26-.57.75-1.06.26-.74-1.07 4.2-3.01.96-4.19-.68-.25-.66-.43-1.22-.76-1.48-.87-1.62.36-2.73.42-.21-1.11.62-.98.92-2.08.44-1.58-1.75-1.37-2.56-1.81-.5-.27-.42-.46-1.02-.53-.63-.07-.83.19-1.31.1-.43-.08-.39-.27-1.28-.31-3.83-.17-8.15.2-11.97.33-.08-.93.34-.79.13-1.81-.37-.88-2.31-1.51-2.8.58-.04.17-.08.46-.13.63-.41 1.35-2.96.87-4.28.91-1.13.04-3.16-.22-3.52.79.57 1.33 5.33.76 7.03.79-.01 1.2-1 4.94-1.43 6.06-2.55.31-2.35-.58-4.08.59-1.14-.71-.98-.55-2.61-.56-1.64-.02-1.7-.26-2.63.64-.77.75-.95.49-1.15 1.89l-.92 8.6c-.3 2.94-.17 2.96 3.08 2.8.74-1.1.13-4.51 1.01-5.21.8 1.43-1.66 4.72.92 5.2.39.07 1.15.15 1.53.11.62-.07.94-.4 1.55-.39.58.01.88.31 1.41.38.56.08 1.14-.01 1.74.07-.01.42-.66 4.56-.72 4.66-.52.36-1.36.18-1.99.46-.29.99.42 1.33 1.49 1.33.11.6 0 1.45-.24 1.93l-2.93.11-.56.9c-.07-.06-.09-.17-.1-.15-.01.02-.05-.09-.06-.12-.54-1.17-1.36-.79-2.65-.81-1.23-.02-2.49-.1-3.71.06-.26.59-.55 1.73-.17 2.37.49.35.8.3 1.53.3.37 2.12-1.34 9.83-.56 10.43.48.28 1.68.28 2.14-.01.51-.41.44-1.79.46-2.47.04-1.79.35-6.61.87-7.91 1.63-.18 1.3.16 1.14 1.59-.12 1.06-.1 2.02-.19 3.08-.33 4.12-1.87 6.73 1.81 5.94.39-1.12.18-5.06 1.17-5.11.9-.05.44 1.52.36 2.19-.1.83-.42 2.21-.13 2.89.39.16.6.14 1.13.15 2.04.04 1.31-.54 1.95-6.53.12-1.1.23-2.12.33-3.21.17-1.78.49-1.5-.45-2.77.74-3.72.28-3.06 5.15-3.57 1.49-.16 1.34-.14 1.92.82 1.5.13 1.33-.49 2.77-.42.87 1.25 1.3.47 2.15.05.35.25.53.84.92 1.04 1.3.23 1.25-.28 2.22-.23 1.26.06.95-.41 1.5-1.16.55.44.66.96 1.44.51l.43-.34c.02-.01.05-.05.08-.07 1.56.89 2.24-.45 3.14-1.47.35-.39.61-.73.22-1.29-1.26-.97-1.41 1.37-2.8-.43-.95-1.23-1.9-.34-3.18-.16l-.89-.79c3.06-.09 2.61-.35 2.51-3.36.51.25.27-.06.62.64.62 1.26.99 1.09 2.53 1.09 3.18-.01 1.86.18 3.54-1.32.41.27 1.35 1.36 1.84 1.87l3.38-.47z"/><path class="fil2" d="M87.22 48.32c-4.4-1.16-4.29-2.23-6.3-3.22-1.19-.58-1.65-.06-2.34-.71 1.63-.73 3.05.69 4.13 1.38 1.4.88 2.65 1.45 4.29 1.73 4.7.81 7.56-2.56 9.02-2.88-.62 3.25-5.25 4.63-8.79 3.7zM71.49 34.64c-.84-.03-.03.05-.37-.24.33-.28.37-.72.89 0-.34.3.53.28-.51.24zm8.57 2.99c1.31.15 1.36-.22 2.24-.73.43-.25.71-.24 1.08-.45l2.36-1.93c1.36-1.46 3.08-2.89 4.8-3.97 1.18-.74 3.55-1.74 4.15-.1-1.56.63-4.07.17-5.63 3.54-.93 2.01-2.27 4.12-5.28 3.97-1.14-.06-1.16-.37-2.08.19-1.62.99-2.08.14-3.91.12-.94-.01-1.18-.03-1.95-.41-1.01-.49-1.98-1.15-1.83-2.69.09-.95.2-1.07-1.14-2l-.64-.52c1.69.19 1.65 1.1 2.49 1.89.38.36.8.65 1.17.98.43.37.62.73 1.38.9l-.96-2.49c.03-.03.08-.07.1-.09l.37-.31c.22-.16.09-.11.34-.2.01 1.07.07 2.16.57 3 .38.64 1.03 1.38 1.87 1.39-.3-1.04-.81-.94-.78-2.56.04-1.75.05-2.33.85-2.49-.75 2.15-.66 3.21.42 4.95zm8.24-7.88c-.07-.32.43-.78 1.04-.11-.38.86-1.01.27-1.04.11zm-6.71 5.6c.3-.56.76-.72 1.25-1.27.89-1 2.37-3.28 2.84-4.56.41-1.12 1.3-2.07 2.15-2.75 1.17-.93 2.8-.74 3.31.44-1.51-.02-2.62-.34-3.52.74-.43.52-.57.81-1 1.31-.34.4-.61.86-.83 1.32-.59 1.21-1.18 1.7-1.83 2.64-.67.96-1.17 1.74-2.38 2.14zm-6.68 7.67h-.51c-.28-.84-.01-.19-.38-.52-.26.21-.42-.03-1.08-.2l.24 2.23c.3.55 1.56.32 1.88 1.14l-1.89-.38c-.31.54-.54 3.64-.66 4.53-.17 1.26-.74 2.91-1.33 3.75-1.86.27-1.44-.15-2.13-.26-.17.28-.29.37-.41.83 2.72 1 5.08 0 7.65-.51-.45-.82-2.39-1.45-2.98-3.02 1.03.28.29.42 1.72 1.13.6.3 1.17.73 1.73 1.03 3.67 1.95 9.87 1.83 13.83.91.71-.76 2.97-1.02 5.48-2.87 2.63-1.94 2.12-1.89 3.76-4.39 1.28-1.94.94-2.47 1.38-3.38l.24-.35c.23.63.06 1.61 0 2.29-.03.36-.27 1.95-.48 2.27-.31 3.07-1.29 2.75-2.15 4.4 7.49.09 3.81-1.67 4.85-4.79l.25.52c.13-.51.09-.48.3-.8.7.06 1.37 1.57 1.69 2.1 1.33 2.21 1.55 1.11 1.62 2.11-.44.12-.75.03-1.15-.01.32.28.16.2.73.28.25.04.67.03.93.02.57-.01 1.16-.04 1.7-.13a.424.424 0 0 1-.06-.14c-.01-.04-.04-.09-.05-.14-.01-.05-.03-.09-.04-.14-.38-1.7.49-.66-.91-2.94-.25-.41-.44-.99-.68-1.47-.34-.68-.13-1.06-.31-1.91-.06-.29.01-.13-.16-.57-.53.81-.45 1.52-1.17 2.01.08-2.62 1.13-2.67.07-8.88-.59-.64.39.11-.98-1.01-.36-.29-.63-.69-.97-1.03-.57-.56-1.65-1.23-1.78-2.19.25-.22-.03-.01.29-.17l.74-.29c.23-1.93-.56-2.51-1.28-3.46-.76-1-1.06-2.47-.7-3.84-1.1-.34-2.75.47-3.82.68-.7.14-1.1.43-1.79.7-1.59.64-1.1 1.27-1.26.95-.01-.03-.04.08-.07.11-.32-.72-.81-.23-2.97-1.05-.56-.21-.9-.43-1.43-.61-3.49-1.17-4.23-1.41-8.34-1.34-1.26.02-2.61.02-3.76.22-2.31.4-1.58.44-3 .85-7.14 2.09-5.54 1.93-6.02 4-.18.77-.52.9-.81 1.61 1.21-.42 1.85-.99 2.88-1.56.68-.37.69-.25 1.35-.8.28-.24.79-.62 1.21-.79-1.34 2.34-5.86 3.66-8.12 6.48-.99 1.24-.6.89-1.14 2.54-1.48 4.52.35 3.85.07 6.21-.09.8-.49 2.37-.17 3.04.85-.59-.34-2.94 1.13-4.98 1-1.38 3.86-.75 4.71-.37l.62-.47c.02-.02.09-.02.11-.07.02-.06.07-.05.11-.07-.49-2.15-.19-2.71-.44-3.44-.84-.27-1.11-.05-1.92-.05.67-1.03 3.29-1.02 3.12-.16-.01.04-.07.17-.09.2l-.12.22c.73.41 2.84 3.44 7.06 3.6 2.74.11 6.42-.79 8.57-2.1.7-.43 3.23-2.27 3.82-2.94.35-.4.17-.3.64-.59 1.5-.93.4-.67 2.96-2.25 2.34-1.45 3.1-1.41 5.47.45l-.42.02c-1.06-.18-2.44-.61-2.88 1.53-.64 3.19 2.11 7.66-5.39 10.93-1.24.54-3.26.64-4.88.47-1.78-.19-2.87-.73-4-1.5-.38-.26-1.22-.63-1.82-.95-.72-.38-1.21-.6-2.24-.62-1.22-.02-3.96.77-4.58.51l.79-.39z"/><path class="fil0" d="M73.88 21.12c-.48.45-1.32.66-1.93.99-.69.37-1.31.83-1.94 1.05-.37.52-.5.42-1.24.42.18.77.32.65.66 1.18.34.53.19.88.29 1.54l5.35-1.79c2.25-.76 3.66-.96 6.31-.97l.38-.36c.75-.83.24-2.08 1.16-1.3 1.47.57 3.08 1.69 4.6 1.82 2.55.33 4.72 1.84 6.16.03.42-.53.4-1.49.93-1.84 2.19-1.47 4.13 2.67 5.33.26.37-.75.12-1.32-.16-2.05-.85-.04-1.54.13-2.34.12-.75-.01-1.58-.12-2.39-.14l-1.49.54-.87.19-1.41.18c-.53.37-1.89.33-2.45.06.02-.03.05-.07.07-.09l.48-.45c.26-.34.23-.27.25-.75-2.82.01-5.65.05-8.47.01-1.41-.02-2.82-.1-4.16.19-1.32.29-2.22.88-3.12 1.18z"/><path class="fil3" d="M20.86 15.55c-.09-.64.18-1 .49-1.28.16.22.15-.35.18.46.01.38-.19.79-.66.82zm15.4-.48c.11-.7-.12-.28.34-.55.17.49.19.38-.34.55zm-9.34.81c-.21-.32.06-.95.26-1.32.19-.37 0-.14.36-.34.06.13.21-.06.05.55-.13.52-.28 1.02-.67 1.11zm2.02-1.66c-.59.02-.72.01-1.11-.26.52-.6.95-.34 1.19-1.07-1.55-1.01-1.63.85-2.41 1.17-.32-.37-.21-.44-.47-.7l-.84-.47c.14-.96.72-1.42.81-2.46l-1.09-.06-2.26 3.75c-.47-.06-.75-.18-1.04-.46.32-.18.99-.45 1.09-.72.2-.5-.91-1.25-1.87.6-.31.6-.35.71-1.13.79.37-.74.67-.52.79-1.29-1.08-.83-1.61.5-2.41.87.05-.83.87-1.2.81-2.05l-.89-.29c-.34.52-.71 1.21-.81 1.96-.09.66-.42 2.11-.38 2.53 1.21-.02.57-.41 1.46-1.11.79-.63.98-.22 1.89.08l-.07 1.09c1.27.3.19-.18 2.31-.25.15-.46.97-1.92 1.31-2.2.07 1.01-.59 1.93-.4 3 .54-.01.44-.34 1.48-.58 1.14-.26.45-.57 1.39-.79l.1.96 2.01-.23c.6-.66.58-1.45 1.33-1.8-.22.96-.44 1.22-.34 2.33 1.43-.16 2.16-1.91 2.9-2.26.24.64-.54 1.93-.39 2.96.98-.1 1.06-1.7 2.26-2.24-.11.7-.33.86.01 1.32.81-.17.12-.26.88-.54.3.59.26 2.24 2.29.6.84-.68 1.37-1.32 1.8-2.26-.97-.23-.39-.02-1.41 1.27-.36.45-1.12 1.09-1.81 1.22.04-1.16.79-.76 1.34-1.54.48-.68.63-1.41.2-1.99-1.89-.55-1.41 1.39-2.68 1.63.31-.86.43-.73-.19-1.37l-1.02.63c-.15-1.27 1.78-2.82 1.34-3.72-1.28-1.72-2.55 4.68-4.6 5.25.07-.83 1.13-3.47 2.04-4.56.39-.47.75-.79.4-1.6-1.6-.26-1.55 1.09-2.14 2.17l-1.67 2.71z"/><path class="fil0" d="M4.66 22.73c-.05-.69.08-1.33.14-1.98.12-1.21-.18-1.43 2.02-1.24l-.32 3.28-1.83-.06zM1.84 30l1.97.1c.35-.8.64-4.07.79-5.15l1.71.02-.42 5.01c1.01.2.67.04 1.1-.46.5-.59.52-.26 1.16-.51l.66-7.21c.44-3.55.49-4.51-2.93-4.5-.77 0-1.24-.1-1.78.26-.24.16-.86.8-1.05 1.1-.59.93-.32 2.54-.44 3.69-.19 1.79-.88 6.12-.76 7.65zM66.61 25.59c.06.63-.07 1.19-.14 1.83-.1.88.07 1.22-.82 1.22-1.41 0-.31-1.04-.64-2.68l-1.82-.11c-.32.76-.53 2.91-.25 3.71.56 1.59 1.19 1.32 3.32 1.32.97 0 1.55-.63 2.09-1.62.25-.45 1.12-4.79-.52-5.68-.59-.32-1.59-.12-2.31-.26-.15-.79.07-2.48.28-3.21 1.62-.22 1.29.12 1.08 1.75-.02.14-.04.24-.03.4l.07.4c.01.03.02.09.04.13.5.18 1.4.19 2.03.03.3-1.12.54-3.02-.03-4.04-.42-.74-.41-.88-1.45-.9-.83-.02-1.73 0-2.56.02-1.05 2.14-1.13-.45-1.66 4.8-.39 3.85 1.83 2.33 3.33 2.89zM31.49 30.42c.77.03 1.57.04 2.35.05 1.15.01 1.1-.12 1.66-.7 1.15-1.19.81-.65 1.13-3.43l.7-8.52c-.66-.17-1.42-.12-2.09-.01-.33 1.93-.45 3.85-.53 5.82-.04.95-.21 1.95-.3 2.93-.15 1.71.16 1.7-1.46 1.65-.51-2.79 1.12-7.71.79-10.58-2.31.05-2.04-.04-2.27 1.96l-.71 7.58c-.19 1.55.14 2.16.75 3.24zM23.9 27.73l2.07.05.93-7.95 1.35-.09-.92 8.35-.97.12c.14.62.73.76 1.18 1.08.03 1.27-.7 1.66-.77 2.36.66.3 1.46.46 2.3.15.68-1.77-.07-2.14-.14-2.31.41-.52.49-.32.61-1.2l.97-8.69c.21-2.56-4.12-2.47-4.94-1.6-.68.71-.89 1.7-1 2.89-.13 1.36-.84 5.85-.68 6.85z"/><path class="fil4" d="M48.43 47.61c-1.32 0-1 .6-1.11 1.91-.21 2.36.15 3.47-1.19 3.33-1.07-.11-.55-1.27-.3-3.52.43-3.87-.2-9.02 2.91-8.92l2.15.08c.5.44.85.99.85 1.75 0 1.31-.87 9.71-1.18 10.6l-1.36.01c-.11-1.51.65-3.84.42-5.19l-1.17-.05zm3.44 5.23c-.26-.94.4-5.4.52-6.61.11-1.12.22-2.11.33-3.22.22-2.34.01-2.54.94-2.54 1.08 0 .79.11.9 1.14l.99 4.85.72-5.97 1.41.08L56.44 53c-.96.09-1.22.21-1.42-.75-.32-1.51-.68-3.96-1.06-5.25-.54.68-.35 2.91-.41 3.75-.1 1.43.08 2.67-1.69 2.09zm-4.58.27c.48-.41.37-1.16.5-2.41.05-.45.1-.76.11-1.23.01-.69-.08-.99.22-1.43l.82.01c.11 1.57-.58 3.57-.38 5.14.55.16 4.53.31 4.87.09.4-.35.27-.17.35-.87.05-.5.1-.81.16-1.31.23.24.14-.01.34.52.25.66-.3 2.51 2.6 1.84.27-.56 1.37-12.48 1.21-13.2-.55-.18-1.76-.23-2.3 0-.36.59-.17 1.4-.46 2.01-.77-1.29.86-2.55-2.77-2.15-.14.27-.1.24-.18.51l-.28.75c-1.29-1.17.52-1.37-3.84-1.37-2.84 0-2.45 4.28-2.72 6.88-.15 1.46-.35 2.86-.53 4.26-.09.72-.43 1.73.13 2.06.47.28 1.78.2 2.14-.09z"/><path class="fil5" d="M51.87 52.84c1.77.58 1.58-.66 1.69-2.09.06-.84-.13-3.07.41-3.75.39 1.29.75 3.74 1.06 5.25.2.96.45.83 1.42.75l1.24-12.43-1.41-.08-.72 5.97-.99-4.85c-.12-1.03.18-1.14-.9-1.14-.93 0-.72.2-.94 2.54-.1 1.11-.21 2.11-.33 3.22-.12 1.21-.78 5.68-.52 6.61z"/><path class="fil0" d="M8.65 45.3c-.17-.8.08-2.01.21-2.83.11-.71-.05-.98 2.04-.79.23.81-.06 2.9-.27 3.66l-1.98-.05zm-.8 6.78c1.18-3.8-.8-5.01 1.86-5.01 1.48 0 .24 1.49.45 5.21l1.35-.06c.58-1.59.58-5.71.82-7.67.28-2.33 1.47-4.95-3.08-4.72-.98.05-1.74 1.15-1.91 2.21l-.93 9.78c.08.68.85.4 1.45.27z"/><path class="fil5" d="M50.08 42.3c.08.74-.12 1.49-.16 2.25-.07 1.23.29 1.39-1.03 1.42-1.36.02-1.2-.1-1.04-1.32.1-.83 0-1.53.16-2.36.66-.16 1.4-.13 2.07.02zm-1.65 5.31 1.17.05c.23 1.35-.53 3.68-.42 5.19l1.36-.01c.31-.9 1.18-9.29 1.18-10.6 0-.76-.34-1.31-.85-1.75l-2.15-.08c-3.11-.1-2.48 5.05-2.91 8.92-.25 2.26-.77 3.41.3 3.52 1.34.14.98-.97 1.19-3.33.12-1.32-.21-1.91 1.11-1.91zM59.71 51.25c-.09-.6.71-8.32.93-8.95l1.96.09c.12.73-.5 6.27-.7 7.74-.16 1.15-.94 1.42-2.19 1.12zm-1.65 1.64c5.15.8 4.99 1.1 5.64-5.71.36-3.77 1.47-6.6-1.43-6.66-1-.02-1.99-.06-2.99-.05-.12 1.89-1.49 11.51-1.22 12.42zM22.99 45.41c-.14-.71.2-3.01.44-3.62l1.47.15c.12.85-.07 1.81-.16 2.62-.12 1.08-.66 1.18-1.76.86zm-2.28 6.89c.58.23.72.18 1.33.1.47-1.35.27-4.17.71-5.25l1.53.01c.24.95-.12 2.32-.23 3.25-.2 1.64-.69 2.25 1.18 2.09.2-.38.6-4.45.6-5.34 0-.88.16-1 .25-1.71.12-.92.4-2.81.36-3.66-.08-1.51-.83-1.62-2.28-1.66-2.42-.06-2.32-.64-2.48 1.5l-.23 3.39c-.11 1.71-.89 6.03-.74 7.28zM42.53 50.93c-2 .31-1.62-.22-1.44-1.76.16-1.41.03-2.21 1.84-1.56.09.77-.09 2.67-.4 3.31zm-.96-5.2c-.13-.78.08-1.82.17-2.66.12-1.21.51-1.1 1.81-.86.07.66-.15 1.78-.21 2.5-.11 1.27-.26 1.38-1.77 1.02zm-1.08-4.34c-.19.74-1.26 10.74-1.18 11.21.67.23 1.49.13 2.21.14.99.01 1.35.15 1.93-.43 1-1.02.79-1.88.93-3.64.12-1.47.28-2.77.45-4.25.18-1.54.63-2.65-.39-3.72-1.01.08-2.64.51-3.95.69zM66.45 51.26c-.17-.62.56-8.41.89-8.94l1.38.09c.25 1.45-.16 3.95-.35 5.47-.41 3.22-.03 4.03-1.92 3.39zm3.83-6.87c.14-1.34.4-3-.74-3.6-.4-.21-1.72-.22-2.22-.17-2.47.27-1.88 6.57-2.44 8.89-.25 1.01-.29.82-.04 1.98.14.65.28 1.31.77 1.54.47.23 1.62.17 2.18.12.84-.08.87-.33 1.26-.89.84-1.22 1.03-5.98 1.23-7.86z"/><path class="fil0" d="M58.58 18.58c-.86.82-.8 2.32-.94 3.68-.15 1.51-.18 2.95-.32 4.45-.13 1.35-.6 2.96.34 3.83.45.42 3.55.35 4.41.25 1.28-2.91-1.09-1.88-2.77-2.31l.15-2.96 1.86-.12c.18-.58.32-1.44.11-1.97l-1.55-.14c-.08-.68.02-2.69.3-3.12.42-.46 1.89.13 2.94-.27l.21-1.98c-1.43-.02-1.69-.27-2.57.52-1.09.99-1.2.38-2.17.15zM42.48 28.51c-.56-.24-1.93-.14-2.79-.15-.13-.71-.19-2.82.63-3.02.22-.05.22-.04.44-.06.36-.04 1.48.33 1.13-2.03-.39-.18-1.06-.19-1.63-.22l.13-3.29 3.13-.05.22-1.88c-.93-.16-2.38-.09-3.31-.09-1.28-.01-1.66.27-1.96 1.37-.42 1.5-.52 4.16-.71 5.88-.66 5.84-.61 5.97 3.01 4.96.85-.23 2.34-.35 1.7-1.42z"/><path class="fil5" d="M31.02 41.93c.13 1.71-.14 3.39-.31 5.04-.3 2.98-.03 3.95-1.33 3.88-1.13-.07-.74-.74-.63-1.7.2-1.87.43-6.25.71-7.17l1.56-.04zm1.56 1.53c.17-1.43.42-2.93-1.06-3.23-1.4-.28-2.66-.24-3.34 1.1-.46.9-.95 6.55-.98 7.97-.03 1.3-.3 2.98 1.12 3.21 4.31.7 3.51-2.73 4.26-9.06z"/><path class="fil6" d="M20.31 50.42c-.78-.19-.94-.95-1.01-1.9-.06-.76.1-1.72.19-2.49.21-1.8-.08-3.67 1.78-3.83-.15 1.58-.52 7.24-.95 8.23zm.4 1.88c-.15-1.26.63-5.57.74-7.28l.23-3.39c.16-2.14.06-1.56 2.48-1.5 1.46.04 2.21.15 2.28 1.66.04.85-.24 2.74-.36 3.66-.09.72-.25.83-.25 1.71 0 .9-.4 4.96-.6 5.34-1.87.16-1.38-.45-1.18-2.09.11-.93.47-2.3.23-3.25l-1.53-.01c-.43 1.08-.23 3.9-.71 5.25-.61.08-.76.13-1.33-.1zm-2.09.07c-1.17-1.67-.28-7.85.24-9.57.16-.52.76-2.42.99-2.76l1.07.07c.17 2.63-.91.8-1.29 2.55-2.09 9.52.36 6.68-.05 9.62l-.96.09zm3.96.44c.58-1.06.26-4.41.96-5.11.46.31.19.96.03 2.25-.11.89-.33 1.97-.13 2.85.5.2 1.75.26 2.38.05.36-.29.92-7.96 1.15-9.49.11-.73.34-1.66.03-2.41-.2-.47-.83-1.19-1.5-1.28-1.35-.19-3.88-.03-5.36-.03-.94 0-1.06.61-1.33 1.27-1.54 3.9-.68 3.36-1.21 6.96-.13.86-.25 1.38-.09 2.25.66 3.7.16 2.72 2.5 2.63.89-.04 1.34.35 2.56.07z"/><path class="fil2" d="M95.06 20.06c.81.02 1.63.13 2.39.14.81.01 1.49-.16 2.34-.12.28.74.53 1.3.16 2.05-1.2 2.41-3.14-1.73-5.33-.26-.53.36-.51 1.31-.93 1.84-1.44 1.81-3.61.31-6.16-.03.39.49 3.63 1.55 4.18 1.66 2.23.47 2.93.46 4.97-.31 4.13-1.56 5.1-2.5 7.79 1.02.11-.94-.63-2.55-.98-3.38l-1.59-2.86c-1.79-2.1-3.74-.52-5.88-.1-.23.04-.29.02-.52.1-.39.14-.26.1-.43.24z"/><path class="fil7" d="M72.18 19.03c1.63-.73 3.94.05 5.79-.14l.54-5.38c-.28-.21 0-.1-.44-.13-.95.15-1.72.53-2.59.74-.98.24-1.82.4-2.83.71-3.03.94-4.23.82-4.24 2.69.2.17.53.39.75.6 1.39 1.38.12 1.03 3.01.91z"/><path class="fil5" d="M37.57 40.45c-.32.83-.55 4.26-.67 5.47-.11 1.04-.17 1.85-.19 2.93-.01.98.12 2.02-1.03 2.07-1.41.05-.95-1.03-.83-2.17.09-.87.2-1.82.31-2.71.2-1.63.58-4.06.57-5.68l-1.44-.01c-.4 2.14-.54 4.99-.79 7.26-.1.93-.44 2.77-.21 3.63.4 1.48 1.14 1.54 2.86 1.4 2.3-.19 2.05-3.63 2.3-5.92.13-1.25.08-2.46.24-3.75.13-1.1.51-2.93-1.13-2.49z"/><path class="fil0" d="M46.37 29.07c.93.07 1.93-.03 2.83.05.9.08 1.44.5 2.24.59l.26-1.14-3.11-.13c-.05-.6.01-.95.06-1.46.2-2.08.03-1.37 1.93-1.64 1.16-2.66-.94-2.15-1.39-2.18-.1-.58.09-2.65.26-3.26 1.01-.18 2.16.13 2.92-.16l-.13-1.23-.67-.15c-.31-.14-.37-.8-2.85-.58-1.23.11-1.53 2.06-1.63 3.04-.13 1.27-.97 7.52-.73 8.25zM14.94 28.6l4.11-.4-1.83-.2c-.06-.77-.14-2.79.66-2.94.23-.04.21-.02.43-.03.63-.04.44.17.91-.18.17-.28.4-1.21.26-1.64-.19-.56-.9-.39-1.61-.39l.01-3.02c.11-.02.17-.1.19-.06l.54-.15c.54-.05 1.48.15 2.38-.03.25-.54.34-1.52.16-1.99-.66-.22-3.39-.3-4.15-.01-1.23.47-1.16 1.62-1.26 3.01-.18 2.51-.84 5.61-.8 8.03z"/><path class="fil3" d="m22.62 34.69-1.14-.25-.81 2.2c1.62-.07 1.36.29 2.28-1.29.35-.61.32-.53.66-.71l-.41 2.54c.86-.13 1.26-.88 1.99-1.03.18.52.16 1.04.4 1.42 1.15.37 1.39-.15 1.95-.67.28.16.23.31.61.5.73-.44 1.16-1.87 2.15-2.41l-.01 1.76c.85-.24.61-.44 1.4-.82.26.39.02.5.46.82.87-.14.64-.39 1.16-1.03.38-.46.75-.71 1-1.18-.74-.03-.76.22-1.06.62-.88-.18 0-.35-1.8-.38-.16-.46-.22-.79-.39-1.12-2.22-.16-2.46 1.22-2.69 1.57-.43.64-1.41 1.99-2.3 1.89-.38-1.39.54-.38 1.27-1.53 1.5-2.36-.57-3.53-1.68-1.22-.45.92-.6 1.44-1.67 1.66.41-1.08.95-2.22 1.41-3.45.47-1.24 1.71-1.75 1.76-3.04-1.72-1.33-1.88.69-2.56 1.92-.32.58-.71 1.05-1.03 1.58-.44.73-.3.96-.94 1.65z"/><path class="fil0" d="m56.5 30.56.16-1.98-2.28-.1 1.04-10.55-2.15-.03c-.09 1.96-1.58 11.96-1.16 12.57.31.44 3.88.47 4.4.11z"/><path class="fil8" d="M92.07 18.8c2.91-.39 4.55.44 5.53-1.31 1.65-2.92 1.47-2.97.37-4.82-.5-.84-1.27-2-1.59-3.03l-.52.17c.48.1.27-.1.39.31-.32.48-.33.21-.67.9-.67 1.34-.41 1.13-1.59 3.17-.75 1.3-1.34 3.1-1.93 4.61z"/><path class="fil3" d="M7.57 29.79c.23.25-.02.13.45.22l5.44-.14-1.14 6.27-1.61.34c.04.05.1.04.13.1.1.23 1.04.19 1.22.21.46 2.1-.69 2.09-.06 3.01.88-.45.08-.42.86-2.39l.33-.62c.27-.38 5.98-.54 6.8-.53.64-.67 1.09-1.82 1.96-2.38.54-.34.6-.11.59-.84-1.12-.32-1.62.23-1.99.99-.59 1.18-.47.9-1.97 1.11-1.86.26-3.48.59-5.41.87.5-1.66 1.48-4.43 1.62-6.24 3.5-.51 7.82-.1 11.01-.66-.13-1.34-.87-.92-4.09-.58-1.47.16-3.1.38-4.63.43-1.45.05-8.69.33-9.51.82z"/><path class="fil7" d="M79.59 6.74c.42-.69.51-1.28.68-2.3.13-.81.54-1.59.31-2.41-.49.04-2.35.96-2.88 1.25-.84.46-4.79 2.86-5.19 3.55-.23.4-.39 1.06-.61 1.53-.28.61-.6.97-.8 1.69.93-.14 1.42-.51 2.25-.84.37-.15.66-.29.95-.43.53-.25.68-.21 1.17-.38 1.08-.37 2.97-1.57 4.12-1.67z"/><path d="M74.66 35.41c.54 0 1.64.92 1.93 1.09.46.27 2.1.86 1.51 1.41-.67.63-3.63-.7-3.44-2.51zm8.31 1.95c.26-.79 1.68-1.52 2.32-2.07l2.4-1.73c.03.38-.15 1.27-.21 1.75-.12.89-.26.96-.94 1.25-1.33.56-.51.99-3.57.79zm-2.9.27c-1.08-1.74-1.18-2.8-.42-4.95-.8.17-.81.75-.85 2.49-.04 1.63.48 1.52.78 2.56-.84-.01-1.49-.75-1.87-1.39-.5-.84-.56-1.92-.57-3-.26.08-.12.04-.34.2l-.37.31c-.02.02-.07.06-.1.09l.96 2.49c-.76-.16-.96-.53-1.38-.9-.37-.32-.79-.62-1.17-.98-.85-.8-.8-1.7-2.49-1.89l.64.52c1.34.94 1.24 1.05 1.14 2-.15 1.54.82 2.2 1.83 2.69.77.38 1.01.4 1.95.41 1.83.02 2.29.86 3.91-.12.92-.56.94-.25 2.08-.19 3.01.15 4.35-1.96 5.28-3.97 1.56-3.38 4.07-2.92 5.63-3.54-.6-1.64-2.96-.63-4.15.1-1.72 1.07-3.44 2.5-4.8 3.97l-2.36 1.93c-.38.2-.65.2-1.08.45-.87.51-.93.88-2.24.73z" style="fill:#13120f"/><path class="fil3" d="M47.2 11.04c-.02-.03-.04-.13-.04-.11-.01.02-.03-.09-.04-.11-.22-.7-.14-.93-.76-.92-.37.98.11 2.2-.01 3.26-.08.71-.5 2.01-.8 2.7-.81 1.87-.88 2.25-1.42 3.96-.16.5-.54.94.01 1.13.19-.42-.02-.45.52-1.54.25-.52.45-.93.7-1.46.22-.45.43-.97.62-1.5.45-1.28.26-1.16.77-1.39.33.88-.03 1.72.68 2.35.53.19 3.22-2.75 3.23-2.76l1.58-1.5c.42-.44.96-1.11 1.49-1.45l-1.53 4.65c-.41 1.02-.5 1.21-.23 1.55.59-.29 1.76-3.73 2.14-4.55.4-.86 2.11-4.01 2.01-4.9-1.22-.27-1.37.22-2.5 1.78-.39.54-.56.73-.95 1.2-.2.24-.23.31-.49.59-.1.11-.13.13-.22.24l-2.23 2.7c-.35.49-.48.69-1.04 1.1-.61.44-.72.87-1.22.71-.02-.04-.03-.14-.03-.12l-.06-.25c-.17-1.09-.23-2.51.15-3.47.46-1.15.91-2.1 1.36-3.11.18-.4.65-1.31.7-1.48.25-.87-1.1-1.97-1.74 1.1-.15.74-.42 1-.67 1.61zM41.37 30.84c1.06-.12 1.91-.44 3.02-.24-.21 1.74-1.94 7.43-1.95 7.68-.01.29-.04-.07.01.26.07.45-.09.06.15.38.44-.23.38-.24.6-.81.8-2.09 1.12-3.67 1.86-5.39.87-2.02.38-1.49.34-2.26 1.34-.18 3.77.17 4.84.58 2.37.91.34 4.68-.64 5.6-2.41 2.24-1.37 1.29-3.34 2.17-.66.3-1.22.68-2.11.97-.81 1.11-3.65.26-4.81.77.81.86 3.01.11 4.12-.05 2.23-.31 5.09-1.91 6.49-3.53.97-1.11 1.59-1.07 2.25-2.84 2.83-7.67-12.67-3.8-13.23-3.01l2.42-.29z"/><path class="fil10" d="M61.89 16.8c.02-.79.35-1.41 1.05-1.37.17.77-.37 1.21-1.05 1.37zm-2.12-4.22c.28 1.09.2 1.1-.35 2.09-.44.79-.58 1.29-1.51 1.53.18-.97.42-.96.66-1.78-.56-.23-.41-.24-1.07-.13-.27.84-.21 1.98-1.13 1.88.01-.39.22-.8.15-1.12-.08-.38-.49-.63-.86-.31-.5.43-.12 1.53-1.31 2.04.05-1.26.83-1.29.83-2.5l-.91-.07c-.34.5-.32.9-.42 1.54-.03.22-.12.55-.15.78-.09.61-.23.38.15.78.76.58 1.44-.36 1.8-.69.72.25.77.11 1.38.15.23.61.06.38.46.7.92-.31.74-1.05 1.77-1.4 0 1.19-.43 3.35 1.14 2.04.36-.3.58-.6.93-.92 2.33-.04.92-.29 2.37-.86.4-.16 1.71-.5 1.55-1.51-.86.02-.27.83-1.67 1.02.12-.74.55-1.5-.42-1.64-2.13-.32-1.54 3.7-3.48 3.67-.11-.84 1.43-4.54 1.67-4.92l8.31-.71c-.19-.59.06-.68-1.64-.52-1.82.16-4.55.56-6.1.48-.2-.42-.15-1.48-1.09-.74-.49.39.25.21-1.1 1.13z"/><path class="fil7" d="M92.07 18.8c.59-1.51 1.18-3.31 1.93-4.61 1.18-2.05.92-1.83 1.59-3.17.34-.68.35-.42.67-.9-.12-.42.09-.22-.39-.31-1.55.16-5.53 5.35-6.7 6.62-.62.67-1.79 1.68-2.01 2.61l4.92-.24z"/><path class="fil0" d="m9.45 19.43 1.79.12c.3 1.9-.93 6.95-.9 9.36l2.05-.07c.47-1.32.9-7.12 1.11-8.88l-.66-.39c-1.04-.59-.01-1.25-.12-2.16-.76-.25-2.22-.23-3.14-.06-.19.61-.36 1.42-.13 2.08z"/><path class="fil11" d="M89.48 7.53c.05.1.26-.19.01.46-.1.28-.23.34-.41.51-.58.57-2.15 2.27-2.41 2.82-.28.59.2 2.19.48 2.66l1.55 1.98c.44-.28.53-.47.85-.99.35-.55.39-.52.9-.95l1.8-2.05c.16-.48-.63-1.56-1.11-2.59-.22-.46-.44-.75-.66-1.18-.4-.75-.25-.71-1.02-1.01l.03.34z"/><path class="fil10" d="M15.2 9.34c-1.11.68-5.88-.01-7.19.63.36.34.97.25 1.54.24l5.45-.02c.03 1.2-.85 3.22-1.01 4.55-.27 2.21-1.45 3.86-.75 4.38.7-.65 2.55-8.6 3.23-8.92.36-.17 10.55-.26 12.61-.28.79-.01 1.02.1 1.34-.4-.24-.87-1.66-.59-3-.55-1.17.04-2.34.09-3.52.17-2.49.18-4.8.24-7.31.24.11-.94 1.47-2.6.03-2.71-1.5-.11-.33 1.63-1.42 2.68z"/><path class="fil12" d="M79.59 6.74c.93.06 1.56 1.15 2.31 1.57l-.3.07c.03.03.08.03.09.09.02.06.08.07.1.08.3.18.08.06.37.18.38-.31.84.13 1.25.36.43.24.98.42 1.23.76h.24c.02-.58.19-.98.29-1.43.13-.56.14-1.06.24-1.64-.03-.04-.07-.14-.08-.12l-.23-.68c-.03-.3.06-.73.07-1.08l-.54-.4c-1.2-.7-1.93-1.34-2.83-1.78l-.88-.51c-.33-.19.19.02-.35-.17.23.82-.17 1.6-.31 2.41-.17 1.02-.26 1.61-.68 2.3z"/><path class="fil0" d="M1.69 41.36c.45.19.92.1 1.52.15.24 1.13-1.05 8.63-.81 10.51l1.31.09c.79-1.39.71-9.72 1.26-10.45.41-.28 1.06-.09 1.75-.23.23-1.12.08-1.76-.03-1.56l-.97-.14c-.46-.01-.93-.01-1.39-.01-.87-.01-1.76-.08-2.63.01-.07.6-.22 1.12-.01 1.64z"/><path class="fil13" d="m77.57 40.81-.01.54c.37.83 1.77.78 2.18.69l.49-.27c.02-.02.07-.06.08-.07.02-.01.05-.05.08-.07.34.38.06.14.49.31l-.16.32c-.09.2-.13.07-.13.38 3.99 1.65 3.02 2.46 7.57 2.57-.02-1.23-.01-2.87-.55-3.8-1.14-.07-2.29.27-3.32.56.04.66.43 1.09-.06 1.59-.21-.42-.09-.55-.19-1-.17-.78-.25-.48-.63-.78.23-.09.69.13.18-1.23-.79-.22-1.12 0-1.86.09-.49.06-.76.02-1.13.24l-.27.22c-.02.02-.06.06-.09.08-.48-.26-1.98-.85-2.67-.4z"/><path class="fil8" d="M72.18 19.03c.99 0 1.84-.12 2.84-.05 1.46.1 7.71.25 8.39.01l.21-2.71c-.39-.33-.89-.44-1.35-.8-.47-.36-2.72-2.02-3.22-2.19-.58-.19-.6-.3-.97.09.43.03.16-.08.44.13l-.54 5.38c-1.85.2-4.17-.58-5.79.14z"/><path class="fil7" d="M85.07 3.36c.5.44.61.22.65 1.06.03.7-.2 1.16-.04 1.86.66.23 4.78.59 5.32.28l3.13-3.05c-.97-.56-8.31-.86-9.05-.15z"/><path class="fil11" d="M82.17 8.72c-.29-.12-.07 0-.37-.18-.03-.02-.08-.03-.1-.08-.02-.05-.06-.06-.09-.09-.68-.12-.89-.67-1.68-.87l-.64 5.08c.43.51 3.86 2.82 4.35 2.96l.33-5.47c-.35-.23-.56-.4-.9-.62-.17-.11-.27-.16-.47-.3-.09-.07-.17-.13-.24-.2-.17-.17-.1-.08-.18-.23z"/><path d="M77.65 8.08c.26.2.25-.36.19.41-1.01.21-1.97 1.29-3.2 2.34-.6.51-1.1.68-1.65 1.12-.87.7-.38 1.03-.6 2.29 1.39-.09 4.7-1.21 6.4-1.73.21-.73.28-1.76.35-2.54.1-1.09.47-1.7.5-2.61-.69.06-1.48.42-1.99.74z" style="fill:#fde416"/><path class="fil3" d="m55.39 36.96.06 1.91c1.27-.47 2.13-2.11 3.43-2.18.01.92-.11 1.49.62 1.94 1.63-.01 1.37-.52 2.15-1.31.62-.63 1.25-1.08 1.47-2.09-1.38.35-1.94 2.98-3.63 2.89-.15-1.2.59-.74 1.37-1.44 1.3-1.16.26-3.47-1.19-2.11-.5.47-.31.8-.72 1.28-.3.36-2.02 1.43-2.59 1.55l.62-2.55-1.16-.04c-.62 1.01-.1 1.04-1.04 1.94-.45.42-.96 1.21-1.72 1.18-.52-1.3 1.41-.67 1.85-2.5.45-1.89-1.31-1.75-2.17-.57-.53.72-.91 3.01-.13 3.55 1.17.82 2.26-1.29 2.81-1.45z"/><path class="fil8" d="M84.46 12.67c.73-.18.3-.13.87-.37-.21.78-.69.55-.89 1.26-.07.24-.13 1.52-.17 1.94-.06.63-.2 1.47-.24 1.9-.05.55.07.29 0 .83-.05.42-.15.29-.16.73.76.19 1.75.24 2.51.08.71-.81 1.27-1.59 1.8-2.46-.19-.45-.31-.38-.52-.81l-1.41-3.03c-.99.15-.24.24-1.02.69.48-.72.76-.46.43-1.68l-1.05-.14-.16 1.05z"/><path class="fil15" d="M41.37 30.84c.4.41-.57.33.61.34l.15.02 1.49-.11c-.24 2.09-1.14 4.09-1.42 6.36-.13 1.09-.55 1.2.1 1.99l.9-.04c.01-.07.65-1.39.8-1.86.26-.79.38-1.5.67-2.26l1.53-4.33c.46-.05 1.28.26 2.07.27 2.54.05 3.36.55 1.56 4.15-.34.68-1.73 1.93-2.45 2.45-.75.54-2.96 1.38-3.33 1.84l.07.13c.89-.3 1.45-.68 2.11-.97 1.97-.88.93.08 3.34-2.17.99-.92 3.02-4.69.64-5.6-1.07-.41-3.49-.76-4.84-.58.03.77.52.24-.34 2.26-.74 1.72-1.06 3.31-1.86 5.39-.22.57-.16.58-.6.81-.24-.32-.08.07-.15-.38-.05-.33-.02.03-.01-.26.01-.25 1.74-5.94 1.95-7.68-1.1-.2-1.96.12-3.02.24z"/><path class="fil16" d="M59.71 51.25c1.25.3 2.04.03 2.19-1.12.2-1.47.82-7.02.7-7.74l-1.96-.09c-.22.63-1.02 8.35-.93 8.95z"/><path class="fil0" d="m95.53 38.62-.51-.8c-.45.24-1.12.67-1.61.99-.51.32-1.09.65-1.58 1.02.02.45.36 1.42.53 1.99.2.66.34 1.88.47 2.26.94-.04 2.48-1.73 2.89-2.63.64-1.4.7-3.25.39-4.77-1.33.68-.55 1.11-.59 1.96z"/><path class="fil17" d="M90.59 53.7c3.78-.33 8.15-1.77 9.82-5.29.15-.32.24-.47.36-.76.16-.4.07-.9.2-.39.21-.32.44-1.91.48-2.27.06-.68.23-1.65 0-2.29l-.24.35c-.44.92-.11 1.44-1.38 3.38-1.64 2.5-1.13 2.46-3.76 4.39-2.51 1.84-4.77 2.11-5.48 2.87z"/><path class="fil6" d="M32.58 43.47c-.76 6.32.05 9.76-4.26 9.06-1.43-.23-1.15-1.91-1.12-3.21.03-1.42.53-7.07.98-7.97.68-1.34 1.94-1.38 3.34-1.1 1.48.29 1.23 1.8 1.06 3.23zm-4.12 9.59c2.52 0 2.21.2 3.17-.88.42-.47.7-.67.79-1.49.16-1.51.28-2.89.42-4.38.07-.74.01-1.43.1-2.2.16-1.37.55-2.71-.33-3.87-.63-.82-3.56-.67-4.07-.22-.23.2-.96 1.07-1.08 1.38l-.92 8.67c-.1 1.16.03 1.15.43 1.95.44.88.2 1.04 1.49 1.04z"/><path class="fil0" d="M88.23 41.16c-.05 1.15.11 3.17.62 3.99 1.28.07 2.71-.34 3.65-.92-.01-.87-.64-3.21-.93-4.11-1 .07-2.46.74-3.34 1.04z"/><path class="fil17" d="M106.44 36.79c-.39-2.55-1.8-3.48-1.9-6.39-.05-1.3-.35-2.19-.91-3.25-.57-1.08-.74-2.07-1.88-2.36-.36 1.37-.06 2.85.7 3.84.72.95 1.51 1.53 1.28 3.46l-.74.29c-.33.16-.05-.05-.29.17.13.96 1.21 1.63 1.78 2.19.35.34.61.74.97 1.03 1.38 1.12.4.37.98 1.01z"/><path class="fil12" d="M98.68 12.12c.77 1.36.96 1.32 1.24 1.84-.51.94-.65-.05-.29 1.43-1.03.68-1.03 1.09-1.23 2.66 1.52-.29 1.66.25 2.51-.94.26-.36.48-.63.82-.88.48-.37.59-.26.98-.89-.48-1.83-1.51-2.5-2.26-4.27-.14-.33.02-.1-.15-.32-.15.65-.14.36-.66.78-.47.38-.23.4-.95.59z"/><path class="fil2" d="M72.4 14.23c.22-1.26-.27-1.59.6-2.29.54-.44 1.05-.61 1.65-1.12 1.23-1.05 2.19-2.13 3.2-2.34.06-.77.07-.21-.19-.41-2.27.72-4.47 2.01-5.44 2.28-2.51.69-1.15.76-1.66 2.17-.14.4-1.2.74-1.46 2.57l3.31-.88z"/><path class="fil1" d="M78.57 44.39c.7.65 1.16.13 2.34.71 2.02.99 1.9 2.05 6.3 3.22 3.54.94 8.17-.44 8.79-3.7-1.45.32-4.32 3.69-9.02 2.88-1.64-.28-2.89-.85-4.29-1.73-1.09-.69-2.51-2.11-4.13-1.38z"/><path class="fil18" d="m31.02 41.93-1.56.04c-.29.93-.51 5.3-.71 7.17-.11.96-.5 1.63.63 1.7 1.3.08 1.03-.89 1.33-3.88.17-1.65.44-3.33.31-5.04zM66.45 51.26c1.89.64 1.51-.16 1.92-3.39.19-1.52.6-4.02.35-5.47l-1.38-.09c-.33.53-1.06 8.32-.89 8.94z"/><path d="m84.89 9.84.13.87c.48.27.4-.01.82-.22.22-.11.83-.25 1.16-.37.44-.08.26-.11.56-.51.24-.32.37-.48.65-.74.51-.48 1.02-.69 1.27-1.34l-.03-.34c-.58-.24-3.36-.52-4.03-.41-.1.58-.11 1.07-.24 1.64-.1.45-.26.85-.29 1.43z" style="fill:#fbe217"/><path class="fil0" d="M91.61 39.21c.63-.05 2.76-1.42 3.12-2.04-.15-.51-1.19-1.89-1.51-2.51-1.06.12-1.44.8-2.48 1.8-.54.52-.26.74.08 1.35.27.49.43.99.8 1.41z"/><path class="fil20" d="M69.91 53.17c.98.09.99-.14 1.28-.93 1.29-3.53 1.28-5 1.28-8.92 0-1.29.29-3.07-1.45-2.57l-.16 1.54.71.3c.36 2.48.1 3.38-.16 5.71-.51 4.62-1.66 2.15-1.52 4.88zM18.62 52.36l.96-.09c.41-2.93-2.04-.09.05-9.62.38-1.75 1.47.08 1.29-2.55l-1.07-.07c-.23.34-.83 2.24-.99 2.76-.52 1.72-1.41 7.9-.24 9.57z"/><path class="fil0" d="m87.47 40.23.38.52c1.09-.08 2.5-.72 3.48-1.06-.01-.95-.7-1.74-1.06-2.55-.44.06-2.31 1.31-2.96 1.69l.17 1.41z"/><path class="fil6" d="M81.59 35.35c1.21-.4 1.71-1.18 2.38-2.14.65-.93 1.24-1.43 1.83-2.64.22-.45.48-.91.83-1.32.43-.5.57-.79 1-1.31.89-1.08 2-.76 3.52-.74-.52-1.19-2.15-1.37-3.31-.44-.85.68-1.74 1.64-2.15 2.75-.47 1.27-1.95 3.56-2.84 4.56-.48.55-.95.71-1.25 1.27z"/><path class="fil16" d="m8.65 45.3 1.98.05c.21-.76.5-2.86.27-3.66-2.09-.19-1.93.08-2.04.79-.12.82-.38 2.02-.21 2.83z"/><path class="fil18" d="M50.08 42.3c-.67-.15-1.41-.18-2.07-.02-.16.83-.05 1.53-.16 2.36-.15 1.23-.32 1.35 1.04 1.32 1.31-.02.96-.19 1.03-1.42.04-.76.23-1.5.16-2.25z"/><path class="fil21" d="M82.97 37.36c3.06.2 2.23-.24 3.57-.79.68-.29.82-.36.94-1.25.07-.48.24-1.37.21-1.75l-2.4 1.73c-.64.55-2.06 1.27-2.32 2.07z"/><path class="fil0" d="M103.92 47.39c-.25 1.77.71 3.55 2.46 3.39.4.05.71.14 1.15.01-.07-1-.29.1-1.62-2.11-.32-.53-.99-2.03-1.69-2.1-.21.32-.17.29-.3.8zM93.3 34.4l1.7 2.31c1.42-.38 1.41-3.38 1.41-3.38-.38-1.04-2.85.53-3.11 1.07z"/><path class="fil22" d="M109.76 50.96c1.93-.62 1.03-2.22.21-3.41-.44-.64-.68-.9-1.21-1.54-.57-.68-.36-1.24-1.05-1.78.18.85-.03 1.22.31 1.91.24.48.42 1.06.68 1.47 1.4 2.27.54 1.24.91 2.94.01.06.03.09.04.14.01.05.04.1.05.14.01.04.03.1.06.14z"/><path class="fil1" d="M41.57 45.73c1.51.36 1.67.25 1.77-1.02.06-.72.28-1.85.21-2.5-1.31-.24-1.69-.35-1.81.86-.08.84-.3 1.88-.17 2.66z"/><path class="fil18" d="M22.99 45.41c1.1.32 1.64.22 1.76-.86.09-.81.27-1.76.16-2.62l-1.47-.15c-.25.61-.59 2.91-.44 3.62z"/><path class="fil16" d="m4.66 22.73 1.83.06.32-3.28c-2.2-.19-1.9.02-2.02 1.24-.06.66-.19 1.29-.14 1.98z"/><path class="fil1" d="M42.53 50.93c.31-.64.49-2.54.4-3.31-1.81-.65-1.68.15-1.84 1.56-.18 1.53-.56 2.07 1.44 1.76z"/><path class="fil0" d="m70.06 22.45.47.07c.42-.57.88-.69 1.41-1.18.74-.68.8-.65 1.98-.83.39-.11.2-.04.58-.29l.55-.44c-1.32-.11-3.38-.03-4.65.22l-.35 2.44zM87.47 40.23l-.46-.93c-.75-.04-2.54.77-3.09 1.1-.14 1.13.25 1.37 1.27 1.14.77-.17 1.43-.37 2.27-.52l.01-.79z"/><path class="fil13" d="M74.02 42.51c.37.33.1-.32.38.52h.51l2.67-.68-.1-.19c-.35-.09-.49-.1-.8-.16-.55-.11-.42.02-.68-.31-.21 0-1.45-.16-1.71-.22-.69-.17-.53-.48-1.61-.63.08.86.69 1.24 1.35 1.69z"/><path class="fil22" d="M89.64 19.74c-.02.48.02.41-.25.75l-.48.45c-.02.02-.05.05-.07.09.55.27 1.92.31 2.45-.06-.38-.5 3.27-1.23 3.51-1.32-.03-.03-.08-.09-.1-.06l-5.06.15z"/><path class="fil0" d="m76.47 41.64.74.13-.07-1.12c-.42-.18-3.13-1.16-3.33-1.18.18 1.89.88 1.82 2.66 2.17z"/><path class="fil21" d="M78.1 37.91c.59-.56-1.04-1.14-1.51-1.41-.3-.17-1.4-1.09-1.93-1.09-.2 1.81 2.77 3.14 3.44 2.51z"/><path class="fil13" d="M15.52 19.5c.2-.35.32-1.08.3-1.57-.03-.76-.55-.6-1.36-.59-.42 1.1-1.36 2.93 1.06 2.16zM73.79 40.7c-.01-.51-.23-1.3-.54-1.76-.25-.36-.93-.96-1.3-1.07l-.14.52c-.11 1.53.33 2.12 1.99 2.31z"/><path class="fil22" d="m81.39 23.54 3.37.01c-.42-.65-1.7-1.32-2.31-1.67h.48c-.91-.78-.4.47-1.16 1.3l-.38.36z"/><path class="fil3" d="m66.43 15.19 1.66.5c.37-.85.7-1.44.85-2.43-.35.14-2.35 1.19-2.52 1.93z"/><path class="fil22" d="m70.06 22.45-.04.71c.62-.22 1.24-.68 1.94-1.05.61-.33 1.45-.53 1.93-.99l-.32-.04c.2-.32.22-.32.37-.57-1.19.19-1.25.15-1.98.83-.53.49-.99.61-1.41 1.18l-.47-.07z"/><path d="M64.93 53.42c-.28.49-1.35.11-1.87-.04l-.05-.41c-.22.19-.49.39-.7.64 1.19.9 3.3.76 4.56.16-.5-.25-1.24-.2-1.94-.35z" style="fill:#fbd885"/><path class="fil3" d="M98.68 12.12c.72-.19.49-.21.95-.59.52-.42.51-.13.66-.78l-2.37-.22c.19.6.66 1.2.76 1.59z"/><path class="fil20" d="M87.01 10.12c-.33.12-.93.27-1.16.37-.42.21-.34.48-.82.22l-.13-.87h-.24l.1 1.05c.46.25.93.41 1.45.41.31-.41.52-.69.81-1.17z"/><path d="M57.84 12.43c.15.4.1.28.31.54.7.03.97-.06.83-.8-.64-.39-.82-.21-1.14.26z" style="fill:#167646"/><path d="M61.89 16.8c.68-.16 1.21-.59 1.05-1.37-.7-.05-1.03.58-1.05 1.37z" style="fill:#0f1512"/><path d="m76.47 41.64-.47.04c.26.33.13.21.68.31.31.06.45.07.8.16-.17-.37-.24-.39.09-.8l.01-.54c-.2-.1-.21-.07-.44-.16l.07 1.12-.74-.13z" style="fill:#9b9b9b"/><path class="fil27" d="M26.92 15.88c.39-.1.53-.6.67-1.11.16-.61.01-.42-.05-.55-.36.2-.16-.03-.36.34-.19.37-.47 1-.26 1.32z"/><path class="fil4" d="M89.34 29.64c-.61-.67-1.11-.21-1.04.11.03.16.66.75 1.04-.11z"/><path d="M63.76 51.61c.24 0 .17.05.17-.21.02.04.08.04.1.09.13.51-.09-.11.23.19-.17-1.26.35-1.06-.15-1.68-.13.19-.13.08-.21.39l-.14 1.22z" style="fill:#a89c5a"/><path class="fil15" d="M20.86 15.55c.48-.03.68-.44.66-.82-.03-.8-.02-.23-.18-.46-.31.28-.57.64-.49 1.28z"/><path class="fil4" d="M71.12 34.4c.34.29-.46.21.37.24 1.04.03.17.06.51-.24-.52-.72-.56-.28-.89 0z"/><path d="M58.6 13.96c.83.65.66.01.68 0-.18-.12.04-.2-.38-.17-.36.03-.15.04-.3.17z" style="fill:#5fc3ea"/><path class="fil27" d="M36.26 15.07c.53-.17.51-.07.34-.55-.46.28-.23-.14-.34.55z"/></g></g></svg>