<svg xmlns="http://www.w3.org/2000/svg" xml:space="preserve" width="80" height="96" style="shape-rendering:geometricPrecision;text-rendering:geometricPrecision;image-rendering:optimizeQuality;fill-rule:evenodd;clip-rule:evenodd" viewBox="0 0 26.1 31.32"><defs><style>.fil2{fill:#f7f7f7}.fil1{fill:#f8f8f8}</style></defs><g id="Camada_x0020_1"><g id="_2482281380080"><path d="M8.84 3.09c.17-.4.22-.94.07-1.39-.08-.25-.17-.32-.21-.54-.06-.38.01-.31-.17-.6C8-.32 7.49-.06 7.02.79 6.69.69 6.07.67 5.67.76c-.49.11-.59.43-.65 1.05-.04.18-.01.11-.22.17-1.28.38-1.08-.12-1.32 1.57l-.65 4.83c-.16 1.2-.04 1.06-.42 1.34-.66.49-.88 1.32-1.05 2.41-.41-.05-.61-.06-.87.27-.36.46-.61 1.61-.44 2.32.14.61.08.67.63.7.04.22.17.53.17.68.01.27-.08.46.16.59.19.09.35-.08.55-.14.18.2.17.37.51.47.36.12.37.04.53.46.21.53.39.96.55 1.55.14.5.47 1.04.98.95.73-.12.53-.73.99-.91-.09.46-.03.5.08.89.07.23-.03.12.04.39.07.29.11.03.09.31l-.41 1.61c-.2.56-.05.28-.33.71-.14.23-.24.4-.21.78.06.72-.04 1.29.52 1.46l.15.12c-.12.29-.34.77-.38 1.1-.04.04 0-.01-.06.09-.01.01-.03.06-.03.07-.17.39-.52 1.2-.41 1.57.26.14.94-.07 1.13-.2.24-.04.44-.12.67-.2.17-.06.44-.17.64-.18l.64 2.33c.1.37.16.62.33.95.45 0 1.5-.61 1.88-.86.89-.59.8-.63 1.49-1.34.06.14.11.34.16.54.21.76.46.39 1.49-.07.33-.14.98-.38 1.23-.55.15.13.18.28.4.2l1.26-.77c.3.32.28.15.36.79.04.37.07.7.22.91.04.96.15 1.82 1.29 1.52.38-.1.7-.13 1.1-.22.37-.08.53-.31.69-.68.03-.37.11-.29.33-.46.14-.11.24-.25.38-.33.24-.13.28-.09.47-.28.42-.41.35-1.32.22-1.93-.05-.23-.2-.33-.35-.42-.22-.14-.26-.06-.39-.31.29-.38.96-.95.77-1.81-.11-.49-.27-.48-.45-.87-.34-.73-.28-.48-.47-.82.18-.2.33-.33.47-.57.09-.16.08-.18.13-.4.09-.37.04-.12.15-.37.12-.28.12-.66.04-.96-.1-.34-.23-.41-.41-.6.15-.26.36-.32.48-.66.06-.05.01.01.09-.11.2-.31.3-.75.34-1.13.09-.82-.12-.94-.32-1.37.57-.61.74-1.21.87-2.14.12-.88 0-.78.46-1.11.19-.14.11-.09.32-.02.25.09.54.04.66-.19.25-.15.24-.29.41-.55 1.07.62 1.13-.17 1.48-.09.25.06.25.15.54.03.47-.18.9-.84.62-1.52-.14-.34-.07-.28-.1-.69-.03-.4-.1-1.15-.06-1.54.2-1.92-2-1.57-1.64.15-.17.14-.42.06-.71.44-.23.28-.25-.01-.6.07-.31.07-.2.28-.55.05.02-.53.24-2.26.1-2.64-.07-.08-.07-.1-.2-.12-.15-.02-.45.1-.67.11l.52-2.89c.07-.35.19-.69-.03-.88-.24-.18-.78.14-1.23.14-.08-.24-.06-.4-.38-.37-.41.03-1.45.35-1.81.31-.7-.09-.79.16-1.02.1-.22-.06-.01-.16-.35-.17-.23-.01-.54.17-.84.2l.05-.28.11-.36c.15-.26.4-.99.19-1.19-.16-.11-1.76.14-1.95.25-.1.25-.14.58-.21.86-.08.3-.17.53-.27.78-.92-.64-1.09-.24-1.9.31 0-.58.12-1.07-.05-1.52-.46-1.23-2.01-.66-2.06 1.07-.18.01-.3.08-.4.03-.27-.13.01-.3-1.05.04-.05-.07-.08-.13-.14-.19.03-.17.06-.18.09-.34z" style="fill:#000"/><path class="fil1" d="m7.87 10.15.72-.11.07-.04c.05-.02.06-.03.12-.04.91-.27.64.21.99-1.49.09-.42.76-3.39.93-3.77l.04-.08v-.24c-.11.07-.9.23-1.1.27-.07.59-.22 1.26-.33 1.85-.05.26-.28 1.67-.38 1.86.01-.57.14-1.37.2-1.97l.19-1.94c-.1.06-1 .31-1.18.32l.05-.37-.8.19c-.39.11-.25.03-.45 1.44l-.18 1.23c0 .01-.02.04-.02.05 0 .01-.01.03-.02.05-.15-.65-.05-2.13-.09-2.95l-1.04.27c-.06.31-.79 5.34-.8 5.81.27-.09.71-.25.97-.37l.17-1.52c.18.22.38 1.23.46 1.52.32-.06.65-.28.98-.32.01-.32.09-.91.13-1.21.11-.87.33-2.42.52-3.29l.08-.28c-.02 1.57-.01 3.81-.24 5.15z"/><path class="fil2" d="m16.15 4.69-.44.12c.02.94.01 3.15-.08 4.05l-.11 1.23c.08.06-.03.03.09.04.06 0 .06-.01.14-.03l1.38-.31c.08-.26.13-.67.2-.95l.43-1.9c.06-.26.14-.73.26-.94-.01.59-.49 3.48-.49 4.1.71-.15 1.37-.49 2.19-.5l.07-1.5c-.39.07-.7.17-1.09.19l.08-.52c.15-.07.84-.24 1.04-.25l.07-1.13-.94.24c.14-.83.02-.81.63-.87.21-.02.33-.05.58-.07l.07-1.5-1.68.31c-.28-.03-.06-.03-.17-.06-.22-.07-.83.18-1.09.2-.05.47-.23 1.29-.32 1.78l-.32 1.67c-.04.13-.02.08-.05.14l.38-3.77-.82.23zM6.64 22.18c.02-.33.48-2.04.61-2.42.08-.25.14-.25.35-.36.48-.25.97-.43 1.49-.29-.07.6-.8 1.39-1.09 1.75-.23.28-1.09 1.2-1.36 1.33zm-1.66 2.64c.61-.13.59-.29.85-.39.35-.13.53-.63.85-.81.31-.18.06.15.23-.08.21-.24-.02-.23.34-.42.05-.17.22-.3.33-.42.16-.17.41-.47.58-.57.42-.26.53-.63.9-1.04.28-.31.71-1.17.79-1.62 0-.47.14-1.03-.07-1.36-.19-.3-.46-.4-.86-.4-.25 0-.45.01-.67.08-.42.13-1.28.53-1.59.78-.17.14-.21.26-.45.36-.34.13-.24-.01-.48.33-.17.25-.2.32-.06.62.01.01.01.03.02.04l.04.08c.03.05.03.08.06.12.1.15.18.14.22.17l-.59 2.4c-.32 1.31-.25.46-.54 1.19.09.3.16.2.11.51-.03.19-.08.22-.01.43z"/><path class="fil1" d="m13.08 16.39-.73.44c-.07.04-.12.09-.19.13l-.44.24c-.43.22-.53-.31-.86.47-.11.26-.07.38-.27.47-.15.07-.59.11-.46.94l.33.08c-.02.35.01.09-.08.19.06.48-.19.66-.22 1.13-.03.46-.13.81-.2 1.2-.34 1.75-.22.79-.43 1.59-.09.36-.09.18-.06.54.27.02.18 0 .37-.07.76-.29.64-.23 1.24-1.24.55-.92.55-.76 1.13-1.37l.71-1.63c-.3 0-.63.3-.83.52-.16.17-.6.61-.78.65.04-.62.12-.49.42-.8l.62-.59c.15-.13.2-.13.29-.32l.23-.4c.14-.22.39-.55.41-.84-.42.15-1.19.87-1.6 1.01.06-.23.08-.21.23-.33.1-.08.18-.14.3-.24.37-.28 1.66-1.1 2-1.21-.05-.14-.07-.1-.06-.17l.16-.25.03-.03.03-.03c.1-.13.06-.04.13-.21l.14-.38c.06-.15.09-.25-.03-.48-.53.3-.4.3-.76.52-.13.08-.69.4-.75.48zM11.48 9.82c-.12.42.25.29.57.28.13 0 .36.01.48-.02.2-.05.15-.13.34-.17.16-.28.94-.81 1.15-1.88.11-.58.02-.99-.34-1.12-.44-.15-.87.2-1.14.03-.18-.41.25-.79.54-.82l.12.37c.21-.16.63-.37.89-.44.01-.49.11-1.09-.11-1.48-.24-.43-.65-.25-.96-.02-1.16.89-2.73 4.1-.79 3.64.15-.04.46-.13.59-.13.71.04-.35 1.08-.92.52-.13.24-.34.89-.44 1.22zM5.46 2.81h-.19c-.5.14-1.1.15-1.19.47-.02.08-.02.11-.04.21l-.17 1.29c-.09.6-.16 1.2-.24 1.77-.08.59-.46 3.16-.46 3.56l1.25-.44c.11-1.3.24-2.37.43-3.55.09-.58.18-1.09.28-1.65.08-.41.22-1.38.32-1.65zM21.18 9.71c.02-.01-.02-.01.1-.05l.12-.03c.12-.03.19-.03.3-.03.14-.03.08.04.12-.12l.1-1.38-1.03.2c.06-.88.62-3.64.63-3.92-.26.09-.77.22-1.06.26l-.73 5.45c.27-.01.92-.34 1.46-.38zM14.89 4.6l-.2.03c-.01.38-.11.92-.17 1.35-.06.48-.12.86-.18 1.34l-.37 2.73.13.02c.27-.09.59-.26.87-.3.05-1.02.43-3.52.66-4.68l.08-.28.04-.41-.87.2z"/><path class="fil1" d="M10.74 4.62c0 .35-.11.98-.17 1.36L10.02 10v.09c.12-.01.45-.13.56-.18.1-.05.12-.08.22-.16.17-.12.15-.01.23-.2.01-.53.25-2.1.34-2.67l.44-2.5c-.19.07-.87.24-1.07.24z"/><path d="M7.52 1.99c.54-.32.54.66.14.88-.48.26-.65-.58-.14-.88zm.29-.87c.21.14.11.19.35 0-.01-.28-.11-.37-.25-.53-.56.21-.45.98-.1.53zm3.6 1.34c-.73.29-.77 1.65-.01 1.4.67-.21.82-1.73.01-1.4zm3.56.97c-.04.15-.08.27-.12.43.29.07.61-.02.92-.04.06-.21.24-.91.36-1.06l.03-.34-.72.08c-.3.08-.22.07-.47.93zm-8.7-.37c-.01-.25.06-.71.12-.85l.02-.27.44-.03.07-.57h-1.3l-.08.51.37.08c-.01.55-.21 1.05-.2 1.56h.44l.12-.43zm.45-.76c.03.69.06 1.16.65 1.22.24.02.47-.09.63-.22.22-.18.2-.3.36-.5.41-1.58-.7-1.74-1.24-1.21-.24.24-.23.36-.38.67 0 .01-.01.03-.02.04z" style="fill:#0f0"/><path d="M16.74 25.77c.09.15.11.23.29.26.14.02.38.01.52-.03.25-.07.59-.21.8-.33.21-.07.52-.3.72-.16-.26.34-.82.53-1.31.57l-.17.82c.21.01.61-.07.8-.13.53-.17.94-.43 1.35-.91.19-.23.4-.42.37-.95-.57-.84-1.71.42-2.19.15.04-.2.15-.29.31-.39.34-.21.31 0 .49-.02.11-.01.8-.44.89-.53-.08-.43-.43-.7-.87-.63-.45.07-.63.31-.96.51-.4.4-1.06 1.02-1.05 1.76l-.21-1.07-.04-.36-.34.08c-.17.06-.74.28-.86.4l.38 1.46-.49.3-.08-.05c-.03-.28-.11-.51-.16-.81l-.11-.74c-.06-.24-.25-.06-.58.08-.21.09-.38.15-.61.29l.37 1.43.35 1.2c.33-.07 1.13-.68 1.53-.88l.12.38c.18-.07.91-.42 1.04-.56-.07-.41-.23-.66-.3-1.13zm-7.62 2.94c-.15-.46-.3-.99-.36-1.5.31-.23 1.1-.23 1.04.35-.05.45-.45.96-.64 1.2l-.03-.06zm3.2-.16 1.8-.76c-.06-.16-.09-.21-.17-.37l-.19-.31-1.23.47-.07-.21.43-.21.72-.33a.974.974 0 0 0-.24-.51l-1.03.44-.08-.35.93-.36c.05-.02.1-.03.15-.06.12-.07.06-.04.14-.11l-.31-.65-1.38.57-.39.14-.39.18-.14.02v.32c-.31-.52-1.24-.53-1.83-.39-.49.08-1.59.47-2.02.84.09.31.75 2.92.92 3.15.52-.1 1.6-.82 1.99-1.16 1.43-1.23 1.05-2.17 1.12-2.1l.61 2.07.64-.33z" style="fill:#ff0"/><path d="M12.98 12.65c.12-.18.08-.29.06-.6-.25-.2-.15-.58-.73-.19-.22.15-.41.32-.36.7.29.18.3.08.5-.14.18.27.3.52.54.22zm-9.29 1.67c-.04.2-.08.15-.08.44.52-.11.28.15.61.29.32.14.57-.08.6-.41-.05-.39-.63-.2-.67-.65-.29-.02-.41.02-.46.34zm20.2-4.16c-.91 1.14-.29 3.32.79 1.94.07-.09.11-.2.16-.31.12.29.23.7.59.4.45-.37.11-.51.05-.82-.06-.3-.01-1.02-.03-1.38-.02-.33-.08-.18-.08-.56 0-.3.06-.38.03-.7-.11-.39-.82-.46-.6.59.07.35.02.74.04 1.11.02.39.1.51.08.99-.56-.18-.24.1-.66.29.02-.06.85-1.2.24-1.68-.2-.16-.35-.04-.59.14zm-4.32.47c-.5-.54-.8.18-.53.62.26.43.57-.09.53-.62zm1.62-.9c-.01.51-.16.18-.26.86.56.28.83-.57.78-.97l-.53.11zm-.01 3.16c.05.28-.03.38.2.43.29.06.73-.29.37-.83-.27-.41.11-.92-.13-1.35-.21-.36-.59-.12-.54.4.04.44.02.98.09 1.35zm-2.04 1.04c.31.11.21.14.54-.03.28-.68-.08-.44-.09-1.19 0-.43.23-.83-.14-1-.17-.08-.36-.03-.43.19-.05.15.08 1.85.11 2.03zm3.71-3.35c-.12.71.13.17-.22 1.65-.19-.65-.07-.99-.16-1.54-.39-.25-.3-.21-.64.2 0 .37-.02.19.06.19 0 0 .01 2.08.72 1.97.51-.09.84-2.16.82-2.4-.18-.14-.35-.35-.57-.07zm-.25 2.47zm-2.59.69c.35.16.6-.03.8-.28.16-.38.44-.85-.06-1.2l-.31-.25c.21-.2.29.03.43-.28.33-.75-.81-.79-1.01.12-.16.72.3.78.56 1.04-.09.08-.81-.11-.41.85zm-5.19-1.82c-.32.32-.08.42-.05.9.02.39-.03.83.05 1.18.07.32.03.79.04 1.22.02.77.78.67.71.02-.07-.66-.15-.66-.16-1.72 0-.4.02-.87 0-1.26-.02-.37-.35-.57-.59-.34zm1.62 1.12c-.06.19-.16.51-.26.61-.01-.35.12-.8-.13-.97-.36-.06-.28.03-.48.26 0 .27.08.58.09.97.01.34.02.73.05 1.06.1.14.34.19.46.05.31-.23.06-.57.41-1.18.06-.11.04-.08.11-.15.03.67-.09.81.12.97.23.3.79.07.59-.54-.2-.61-.04-1.34-.35-1.48-.33-.15-.56.15-.62.41zm2.31.17c.14-.57.39-1.21-.2-1.35l-.26.22c-.02.34.04.79-.05 1.1-.12.4-.02.19-.17.21-.14-.8.12-.81-.16-1.39-.91-.09-.44.96-.41 1.35.08 1.07.49 1.56.87 1.02.24-.34.3-.83.39-1.15zm5.45-2.58c.12-.22.39-.2-.11.4-.06.07-.05.07-.05.07.05-.18.1-.36.16-.47zm-14.17-.52c-.72 0-1.38.11-2.06.13-.6.02-1.4.1-1.76.51-.01.61.33.47.78.47l3.38.01-.95 3.74c-.22.94-.78 1.5-.14 2.09.29.27.54.11.75-.13.3-.33.24-.58.3-1.11l1.15-4.54h1.48c.34.02.3-.08.62-.1.65-.04 2.64.04 3.03-.01.31-.04.61-.65-.19-.85l-.65-.19c-.08.03-.08.03-.14.03-.12 0-.01.03-.09-.04l-1.55-.04c-.43.01-.69-.07-1.1-.14-.32 0 .17.16-.82.18-.32.01-.7.14-.57-.28l-.45-.27c-.09.22-.77.52-1.01.53zm1.4 5.87c-.12-.81.65-2.17.88-2.26.59.68-.16 2.29-.88 2.26zm1.24-.11c.29-.63.6-1.24.31-2.03-.08-.57-.76-1.41-1.19-.73-1.99 3.16-.48 4.45.61 3.11.1-.13.14-.2.27-.35z" style="fill:#e81013"/><path d="M19.55 21.68c-.09-.03-.22-.03-.32-.03-.22 0-.46.02-.64-.04.08-.24.21-.29.42-.34l.1.25c0 .01.01.03.02.05l.73-.24c.15-.04.08-.04.11-.09l.01-.34a.698.698 0 0 0-.16-.13 3.13 3.13 0 0 0-1.88.61c-.23.17-.33.24-.33.64.4.23.61.14 1.12.19-.02.22-.29.47-.47.35l-.15-.19-.87.38c.2 1.23 3.32-.69 2.32-1.06zm-2.81 8.92 1.17-.25h.16c.25-.04.5-.08.59-.26.09-.18.02-.5-.06-.81l-1.44.55-.04-.44.85-.18-.06-.62-.85.18-.04-.43.94-.2h.02c.06 0 .13.01.15-.04.02-.05-.01-.15-.01-.26.01-.11.05-.22.09-.34a1.36 1.36 0 0 0-.29 0c-.01 0-.02.01-.03.01v-.04l-1.43.3.28 2.84zm.18-3.14.34-.07.32-.6-.47-.14-.19.81zm2.09 1.84.6-.06-.05-.77.58-.06-.05-.75-.58.06-.05-.77-.6.06.05.77-.58.06.05.75.58-.06.05.77zM7.5 23.72c-.56.48-.25.16-1.02.76-.32.25-.23.14-.29.34.54 0 1.07-.45 1.52-.7l-.2-.4zm-2.56 3.21-.09.35c.29.02 1.42-.38 1.82-.52.26-.09.32-.14.35-.52l-1.01.3c.23-1.13 1.05-.19 1.11-1.19l-.76.23c.09-.37.32-.33.63-.43.37-.12.56-.04.58-.56-.29.03-.63.18-.92.27-1.21.38-.93.11-1.32 1.15l-.38.91zm9.81-3.81.06.36-.37.1.31-.46zm-1.58-.4-.49.17c-.24.08-.35.33-.49.52-.1.14-.34.46-.41.61-.07-.16-.13-.51-.16-.73-.22-.01-.99.16-1.16.41l-.86 2.07c.15 0 .78-.18.89-.26.2-.15.3-.67.44-.9.12.17.11.24.17.47l.92-.09.4-.84-.14.78c.43-.06 1.05-.29 1.47-.43.42-.14.21-.26.45-.43.16-.12.42-.12.6-.23.15.09-.08.41.98-.06l-.2-1.78c-.45.13-.81.23-1.23.49l-.43.7c0 .01-.05.1-.06.11-.08.19-.13.24-.27.41-.1.16-.09.19-.26.3l.29-1.37-.44.07zm3.78.05c.1-.29.34-.98.38-1.33l-.91.25-.15.62-.12.3c-.04.13-.07.25-.11.36-.07.25-.17.5-.21.79.33-.01.76-.14.98-.39l-.02-.01.15-.59z" style="fill:#0ff"/><path class="fil2" d="M4.15 13.98c.04.45.61.27.67.65-.03.33-.27.55-.6.41-.34-.14-.09-.4-.61-.29 0-.29.04-.24.08-.44-.26.31-.16.65-.21.47 0-.01-.01.03-.02.04-.21.13-.47.17-.61-.1-.06-.11-.08-.25-.14-.39-.08-.2-.11-.17-.18-.34.38.08.63.11.97-.08.37-.21.41-.45.66-.62l-.01.68zm-1.32-.86c-.01.71-.6.97-.59-.32l.48.21c.01.01.05.04.06.05l.05.06zm.38-.19c.21-.02.25-.09.33-.26.1-.21.07-.25.21-.37.74.4-.12 1.9-.54.63zm1.52-1.57c.01.01.01.03.02.04l.07.16c.14.35.17.31.45.29v-.43c-.87-.63.03-.45-1.01-1.16-.38-.26-.1-.08-.71 0-.74.1-1.29.2-1.59 1.6-.24 1.13-.04 1.38-.01 2.18-.2-.17-.6-1.35-1.06-.99-.3.24-.52 1.29-.31 1.86.34 0 .29-.11.55-.2-.06.47-.06.81.24 1.32.22-.06.08-.16.39-.18.1.16.09.11.17.33.05.15.05.27.24.33l.08.02c.49.1.11.05.47.22.2.1.57 1.25.68 1.56.09.25.34 1.62.84 1.05.2-.23.07-.68-.01-.93-.13-.41-.45-1.37-.48-1.8.22.33.3 1.01.63 1.66.08.16.14.36.3.37.68.08-.26-1.69-.36-2.14.14.11.12.13.23.3.58.87 1.73 1.11 1.79.08-.21-.11-.43-.12-.67-.27-.21-.13-.39-.23-.5-.43.18.05.23.13.43.2.43.14 1.13.13 1.34-.18.13-.19.05-.05-.01-.19-.06-.16.18.11-.03-.08-.09-.08-.31-.08-.42-.12-.41-.13-.35-.36-.78-.26.09-.15.11-.11.18-.27.22-.48-.01-.49.65-.48.01-.59-.26-.5-.3-.95-.03-.38.07-.3.14-.51.07-.2-.05-.24.01-.37.19.19.31.42.66.36.07-.57-.06-.4-.09-.69v-.07c.04-.56-.4-1.1-.72-1.16-.81-.15-1.03.92-1.02 1.88-.16.1.12.06-.04-.03l-.01-.01s-.01-.01-.02-.01c-.09-.01-.14.16-.26.29l-.16-2.26zM13.47 22.49c.43-.01.47-.12.87-.02.08-.05.17-.1.25-.15.15-.08.14-.08.29-.14.32-.19.77-.76.97-1.16.16-.31 1.13-1.72 1.57-2.64.08-.17.24-.52.35-.62.01.51-.11 1.51 0 1.76.15.38.68.07 1 .08l.04-.09c.01-.08.02-.13-.01-.22l.39-.07c-.07.2-.22.32-.39.38h-.01c-.22.42-1.28.68-1.49.93-.01.55.6.55.64.54.45-.14 1.79-1.06 2.17-1.71.13-.19.19-.27.25-.59.09-.53.16-1.1-.49-1.14-.27-.01-.46-.06-.74-.06.37-.75 1.38-.53 1.7-1.96.05-.24.15-1.06.19-1.16-.67-.36-2.97 2.14-3.15 3.07-.11-.1-.05-.08-.19-.13l.07-.41c-.13-.22-.1-.31-.15-.56-.07-.3-.19-.36-.36-.47l-.2.24c-.3.34-.29.46-.39 1.07-.07.46-.14.2-.25.55-.33.99-.06.28-.43 1.02-.17.33.08.02-.33.58-.1.14-.1.16-.18.33l-.79 1.1-.26-.18c.12-.8.56-1.82.7-2.31l.22-.77c-.24-.21-.08.11-.3-.1-.16-.16-.03-.15-.29-.26-.82-.36-.91.45-1.28 1.84-.1.35-.2.53-.19.93.01.5-.46 1.39-.08 2.16.1.23-.07.07.15.22.06.05.1.08.14.12z"/></g></g></svg>