<svg xmlns="http://www.w3.org/2000/svg" xml:space="preserve" width="243.03" height="182.08" style="shape-rendering:geometricPrecision;text-rendering:geometricPrecision;image-rendering:optimizeQuality;fill-rule:evenodd;clip-rule:evenodd" viewBox="0 0 104.67 78.42"><defs><style>.fil5{fill:#010201}.fil17{fill:#020402}.fil10{fill:#050100}.fil13{fill:#050605}.fil51{fill:#0b0c0b}.fil22{fill:#0d0e0d}.fil27{fill:#111211}.fil20{fill:#123e4c}.fil36{fill:#2f302f}.fil12{fill:#333}.fil28{fill:#4d4e4d}.fil30{fill:#514f4e}.fil29{fill:#787877}.fil49{fill:#818281}.fil16{fill:#836c41}.fil18{fill:#941312}.fil37{fill:#989896}.fil73{fill:#99814e}.fil40{fill:#9d8551}.fil39{fill:#a58a55}.fil44{fill:#b8b8b7}.fil57{fill:#bbbcbb}.fil60{fill:#bda264}.fil52{fill:#c2c3c2}.fil25{fill:#c5c6c5}.fil64{fill:#c76e4c}.fil24{fill:#c8c7c6}.fil81{fill:#d1af6e}.fil8{fill:#d8b974}.fil56{fill:#dfc078}.fil86{fill:#e6c57b}.fil48{fill:#efcd81}.fil3{fill:#fdfdfd}</style></defs><g id="Camada_x0020_1"><g id="_2076109179296"><path d="M89.78 0h2.84c.32.03.62.08.88.14l.14 1.38 1.93.14c-.03.37-.1 1-.17 1.48-.05.38-.21.83-.3 1.35-.49 2.8-.94 2.54-4.08 2.54-1.75 0-2.2.22-2.2 1.66l2.62-.14.14 1.65h1.52c1.33 0-.7 4.86-.83 5.1-1.02 0-2.14-.06-3.09.08-1.62.23-2.15.06-2.15 1.85.86 0 1.8-.05 2.62.14.18.75-.04.63.14 1.38.53 0 1.66-.16 1.83.51l.06.29c0 .84-.51 1.48-.51 2.51.89.07 2.67.87 3.67 1.15 1.52.43.58.09 1.39.95 1.16 1.23 1.85.14 2.22 2.46.24 1.48.54 2.52.56 4.12.04 2.23 1.03 1.65 3.45 1.65.01.64.23.92.28 1.52.64-.15.85-.14 1.65-.14.25 1.06.28 1.26.28 2.62-.81.07-1.7.4-2.48.41 0 1.5-.14 2.48-.14 4 .69 0 .62.12 1.24.14 0 .89-.35.98-1.1 1.38.74 3.18.15 3.06-1.52 3.86.65 1.35.04 5.09-.65 6.24-.74 1.22-1.92.79-3.48.79-1.05 0-1.12.23-1.43 1.33-.39 1.38-1.05 4.17-1.05 5.56 2.22 0 2.34-.11 2.34 1.52l1.65.14c.02.73.19.5.07 1.3l-.76 3.39c-.33 1.35-.3 3.28-1.65 4 .52 1.09.39 1.97-.43 2.88-.27.3-.65.43-1.1.55-1.72.47-4.28.29-6.18.45-1.15.1-1.66.1-1.95-1.13h-1.1c-.43.64-.49 1.01-1.43 1.19-2.7.52-5.29.6-8.08.6-1.19 0 .96-2.5-2.71-.64-.59.3-1.09.5-1.79.69-1.28.35-5.21.65-6.8.64-.79 0-1.71-.05-2.48 0-1.51.08-2.99.41-4.55.41-1.61 0-2.48.53-2.48-1.38-.32.17-.37.18-.78.33-.51.19-.37.14-.75.35-1.93 1.09-5.93 1.89-7.98.7-.61-.36-1.3-.77-1.93-1.1-.05.62-.23 1.4-.66 1.68-.3.2-1.45.38-1.96.38-3.32 0-3.74-1.27-5.24-2.07-2.27 1.52-2.16 2.62-5.79 2.62-1.96 0-2.33-.53-3.77.08-.62.27-3.01.33-3.94.33-.82 0-.85-.9-.55-1.52-1.05 0-2.44 1.16-4.72 1.62l-6.17.31v-1.38c-.88 0-1.14-.14-1.93-.14 0-.58.17-1.93.29-2.47.16-.76.3-1.46.46-2.3.32-1.59.64-2.95.99-4.52.85-3.76 1.31-2.15 1.3-4.22-.01-1.82.53-3.93.55-4.96-2.53 0-1.87.38-2.43 2.81-.28 1.21-.46 2.38-.74 3.53-.26 1.06-.43 2.4-1.69 2.59-1.63.24-2.34.03-3.97.03v-1.52c-.59-.01-.49-.1-1.11-.13-.61-.03-.79.14-.92-.3-.23-.78.92-5.26 1.11-6.15.25-1.21.62-2.61.93-3.89l.83-3.99c-.66-.05-1.06-.14-1.93-.14-.09-.4-.24-.94-.28-1.38-1.92-.45-1.96.45-1.8-4.97.02-.74.15-1.03.14-1.92l.69-11.99c.05-4.44.48-3.71 4.28-4.12.95-.1.63-.34.87-1.33.64-2.62 1.87-5.21 2.72-7.76l4.37-12.58c.23-.68.35-.83 1.12-.94l4-.28c.73 0 1.31.03 1.99-.08 2.62-.4 2.25.13 2.56 1.46.36.01.73.07 1.11.13.42.07.68.11.68.56 0 2.96-.58 7-.84 10.05-.13 1.56-.43 3.29-.53 4.84-.11 1.69-.42 3.32-.42 4.96h2.76c.92 0 1.19-.14 2.07-.14-.57-2.15-2.11-.89-.93-7.27.55-3.01 1.94-9.8 3.14-11.88 1.49-2.59 3.71-4 7.16-4 1.84 0 3.95-.12 5.18 1.29.31.35.5.49 1.02.5.18-2.21 1.53-1.9 3.45-1.92 1.31-.01 2.42-.25 3.71-.29.4-.01.84.03 1.24 0l7.59-.41c.92.01 1.43.14 2.47.15l.69 1.38c1-.53.36-.46.89-1.18.77-1.06 5.61-.76 7.28-.99.66-.09 1.36 0 2.03-.04 1.07-.06 2.62-.28 3.72-.28l7.85-.41c1.51-.01 3.66-.29 5.65-.41z" style="fill:#000"/><path d="m29.09 26.9-3.73 16.9c-.07.67-.21 1.4-.37 2.06-.17.71-.21 1.07-.65 1.48-.24-.61.65-2.5.4-3.59l-3.98.09c.02-.95.62-3.97 1.1-4.54 2.1-.73 3.78.85 4-2.09l.33-2.31-3.45.11c-.11-.48.02-1.77.45-2.23-.05-.67.25-.82-.23-1.14l-1.55-.4c.19-.27.02-.27.6-.37.4-.07.5-.02.86.01.82.15 4.02.09 4.52-.31.51-.42 1.03-3.25 1.01-4.22l-8.7.42c-.77.06-1.34.18-2.01.16-.74-.02-1.44-.02-2.18.01-1.07.04-3 .08-4.05.26-1.48 3.58-2.89 10.18-4.39 13.76-.1-.32 1.21-11.94 1.39-13.45-.9-.09-6.17-.1-6.39.56-.01.03-.04.09-.05.13-.21.68-.34 3.95-.39 5.08L1 43.72c-.1 1.32-.41 4.16-.22 5.36 1.01.08 2.98.31 3.75-.12.56-.47.92-4.92 1.73-6.22l6-.46c.62-.62 2.37-6.1 2.85-7.39l2.05-5.71c.12-.35.21-.6.32-.89.03-.07.17-.39.2-.44.32-.47-.07-.11.42-.42-.16 2.53-3.57 14.79-3.21 15.77.38 1.04.86.94.74 2.63-.24 3.29-1.68 2.8 3.46 2.45 1.31-.09 2.64-.04 3.88-.16 2.58-.24 4.94-.32 7.56-.5.5-.62.93-3.22 1.11-4.28.17-2.02 1.13-5.46 1.61-7.55l1.2-5.45c.11-.53.16-1.3.54-1.7-.05-.97.55-1.7.32-2.73-.97-.11-3.91.19-5.22.25-.71.03-.96 0-.98.75zm10.99 15.51c-.15 1.18-.75 1.87-1.9 1.22-.14-.59-.06-1.67.42-2.12.32-1.99.75-3.93 1.16-5.89.28-1.32 1.22-4.84 1.16-6.09-.62-.25-1.54-.24-1.91-.61l3.71-.14c.48 1.74-2.69 12.01-2.64 13.63zm-5.05-12.03c-.2.93-.57 1.89-.8 2.85l-2.07 8.88c.17 1.51-.24 2.23.6 3.51.72 1.1 1.72 1.15 2.27 1.68 2.83.12 5.09.33 7.25-.89 1.82-1.02 3.08-2.17 3.8-4.27.66-1.91 1.21-4.44 1.64-6.46l.99-5.07c.09-.82-.15-1.18.4-1.58-.6-.82-1.25-2.47-2.04-3.2-1.47-.76-2-.82-3.99-.77-1.34.03-2.59.33-3.72.77-1.59.62-4.03 2.72-4.33 4.55z" style="fill:#ed0100"/><path d="M75.04 40.93c.58.11.4.01.53.6-.51-.07-.82.02-.53-.6zm-6.35-1.62c-.27-1.37.46-.9 1.7-.99.97-.07 1.84-.19 1.7 1.04l-2.01.09-.16.02-1.23-.16zm-7.66-.62c.4-.64 1.65-.62 2.08 0-.25.84-1.79.87-2.08 0zm19.8-7.31c-.45.27-.64.2-1.08.4-.53.24-.35.33-.98.54-.74.25-1.66.41-2.49.63-.09 1.36.27 2.87-.46 3.71-.95.08-.62-.05-1.28-.3-.34.03-.28.02-.62.06l-1.23-.04c.07-.61-.2-.3.34-.52l.16-.42c-.39-.68-.65-1.1-.66-2.13l-.03-.66c-.43-.09-.32.02-.62-.01l-.61-.15-.27-.09c-2.09.07-14.7.83-15.65.55-.06.44-.06 2.41-.04 2.95.02.45.12.77.08 1.2-.04.37-.37.85.1 1.05.54.03.99.05 1.36.23-.11.89-.59.5-1.47.59l.05.9c-.02.91-.1.7-.22 1.42l-.03-.02c.76-.02.49-.14 1.24-.15l8.06.5c1.33.07 9 .04 9.48.31-.36 1.8-3.19.2-5.61.68-1.15.28-2.36-.05-3.56-.06-1.31 0-2.46-.32-3.86-.3.98.38 1.84-.19 2.31.45.35.43.16-.45.34.78.2 1.36-.72 1.23-1.27 1.23v-.15c1.22 0 .18-.06.62.33.54.03 1.01.08 1.55.14.83.1.88.31 1.37.38 1.15.19 2.81.09 3.99-.12-.17-1.22.15-1.99 1.39-1.86.77.89.26.9.69 1.87.71.2.69.26 1.07.69.02.03.07.07.09.1.02.02.06.07.09.1 2.4-.7-.28-.92 5.42-1.18.14-.37.55-1.04.61-1.42.14-.95-.26-.8-.89-1L76.4 42c-.35-.35-.29.67-.29-.54.16-.14.03-.31 1.08-.31l-.24-.11c-.7-.45-.54-.4-.47-.8 0-.01.5-.83.54-.91l.28-.52c.18-.28.01.01.25-.36l.17-.29c.02-.03.04-.07.06-.09.02-.03.04-.07.06-.09.09-.15.09-.08.23-.39-.19-.19.51-.23-.52-.16-.61 0-.35.22-1.06.54l.17-1.03c.94-.06 2.93-.32 3.67-.55-.03-.63-.21-1.3.16-1.78l.47-.11.54-.18c.27-1.46.22-1.92-.14-3.11-.24.06-.32.06-.55.14z" style="fill:#ce0402"/><path class="fil3" d="M16.42 12.46c-.05.77-.48 3.96-.76 4.54l-.99.06c.04-1.45 1.53-4.45 1.45-5.31l.31-.73c.35.11.43-.16-.01 1.44zM82.23 1.03c-1.01 4.29-2.1 8.71-2.98 13.02-.31 1.49-1.69 6.66-1.64 7.82l-.07.77c1.42-.02 1.35.28 2.75-.1 4.34-1.19 2.9-.77 7.77-1.07.55-.93.13-.58.46-1.37.17-.4.07-.19.2-.36l.3-1.91-3.4.03c-.52.35-1.39.28-2 .26-.03-.55.21-1.97.59-2.44l.44-2.08c1.24-.21 4.49-.01 5.24-.51.28-.33.43-1.08.43-1.59l.45-2.28c-1.25-.01-4.35.4-5.29.15.01-.79.84-3.95 1.18-4.24l5.33-.35.87-4.21c-1.99-.22-9.58.83-10.62.48zm-12.96.96-.73 3.93c1.02-.02 2.52-.37 3.4-.13.37 1.42-.52 2.66-.88 4.06-.58 2.28-2.12 10.61-2.69 11.64l.44 1.71c.51.3.29.19 1.03.21.65-.76 2.97.04 3.69-.57-.1-.74 2.29-10.92 2.69-12.68.31-1.36.44-3.49 1.02-4.58l3.3-.04c.51-.7.49-1.21.69-2.16.17-.79.39-1.47.4-2.25-1.63.13-11.84.42-12.36.87zm-6.61 7.14c-.04.53.04.9-.33 1.22-.31-.42-.25-.64-.31-1.4.07-.41-.69-6.06-.83-6.49-1.05-.34-4.08.12-5.3.24l-4.63 21.43c1.28-.06 3.83.01 4.84-.48.32-1.67 1.9-11.07 2.35-11.83l2.16 9.97c.1.18.27.03.33 1.01.95-.29 2.2-.75 3.09-.31.78-.84.1-1.35.82-2.15-.05-1.02 1.29-6.11 1.58-7.47.32-1.48 1.57-6.14 1.55-7.28l.77-3.7-4.68.26c-.31.63-1.41 6.13-1.41 6.96zM43.17 8.08c-1 4.6-2.6 10.49-3.19 14.95l-.38 1.77 1.32-.14.06.09c1.17-.75 4.72-.24 5.61-.34-.52-1-2.21-3.35-2.24-4.3.58.13.54.3.86.86l1.38 2.33c.35.56.3.74.55 1.26.78-.16 1.3-.36 2.17-.21 1.19.14.99-.69 1.22-1.83.18-.92.43-1.66.51-2.65l-5.28.22c.05-.6.72-4.06 1.05-4.37.88-.44 3.94-.23 5.29-.48l.82-4.05-5.26.25.87-4.17c.53-.2 4.51-.39 5.25-.28l.5-.8-.1-.05.63-3.43-1.63.07c-1.41-.16-3.17.11-4.64.16-.81.02-1.41.03-2.21.13-2.48.32-1.79-1.33-3.15 5.01zm-7.33 4.35c-.61.44-1.51.08-1.64.43l-.88 3.72 1.25.03c.87-.69 1.19-.08 1.19-.08-.02.65-.13.38-.28.71-.21 1.1-.74 3.76-2.02 4.09-.95.24-1.2-1-1.13-1.71l.44-2.5c.15-1.34 1.09-5.36 1.59-6.63.23-.59.38-3.24 2.11-2.98.98.15.51 2.22.36 3.14l4.84-.13c.64-1.83 1.35-5.76-.89-6.8-1.79-.83-4.66-.43-6.52.04-3.5.93-4.5 4.43-5.18 7.62-.59 2.77-1.36 5.26-1.78 8.11-.22 1.47-.58 3.42.25 4.87.73 1.23 1.96 1.26 3.64 1.2 2.45-.09 5.6.01 6.97-2.37.47-.82.76-1.12 1.12-2.07.79-2.09 1.92-6.6 2.05-8.82l-5.48.13zM7 25.16l-.43 1.5 5.03-.21c.41-.6.89-2.36 1.14-3.19.53-1.75.22-2.24 2.3-2.07l-.57 4.99 2.32-.09c.84.12 2.17.12 2.89-.16.3-.88 2.31-20.94 2.25-21.42-.76-.14-3.28.11-4.14.19-1.02.09-3.43-.09-3.91.6l-6.9 19.86zM10.01 45.76l.9-.03c.2.86-.94 5.22-1.24 6.67-.18.84-.29 1.62-1.36 1.25-.11-.68 1.41-7.12 1.7-7.89zm85.89.39c-.6-.5-.18-.54-.7-1.2-.63.08-.71.45-.78.36-.03-.04-.1.06-.15.08-.33-.12-.35-.07-.31-.49-1.9-.27-1.1.2-1.91.58-.69.32-.84.11-1.74.64-.05.73-.55 2.6-.77 3.49-.28 1.18-.54 2.44-.79 3.55-.5 2.16-1.36 5.28-1.56 7.46l3.57-.16c.86-2.84 1.82-8.65 2.68-12.08.22-.88.16-1.13 1.03-1.19.12 1.26-.52 2.57-.6 3.97l3.42-.14c.15-.25 1.67-4.79.56-6.05-.45-.16-.71-.43-1.23-.23-.21.19-.19 1.57-.24 1.34 0-.01-.16.39-.49.07zM82.57 58.76c-.21-.74.2-1.86.36-2.55.36-1.54.14-1.93 1.1-1.83.3.56-.24 2-.36 2.52-.21.89-.1 2.02-1.1 1.86zm2.38-11.13.71.18-.95 4.58c-.59.19-.53.05-1.14-.08-1.51-.02-1.54.12-2.79.52-.09.28-.49.66-.67 1-.48.92-.71 2.45-1 3.49l-.25.61-.13 2.41c.17.13.15.09.31.25.17.17.1.12.24.34 2.91.33 2.55-.44 3.41-.24.56.13-.15.27 1.66.11.78-.07 1.4-.14 2.16-.23.08-1 .51-2.38.74-3.47.27-1.26.53-2.4.78-3.53.46-2.1 1.51-5.23 1.05-7.24-.95-.01-1.82.31-2.65.19-.92-.14-1.74.08-1.49 1.13zm-4.42 3.61-.08.62 3.54-.2.4-1.81.3-1.55c-1.3-1.08-.02-.08-.99-1.55-.26.11-.05.1-.17-.16.15-.32.29-.45.29-.87-2.08-.16-3.02 3.65-3.29 5.51zm-8.24-2.09c-.03.21-.02.42-.08.65-.14.53-.16.34-.25.49l-.03 1.94c.03.03.09.04.1.1.01.07.07.08.09.1l.55.86c.3.55 1.46 1.35 1.92 1.98.67.91.24 2.4-.12 3.35-.34.64-.4.61-1.09.35-.08-.28-.15-.1-.09-.44.15-.9.01-.21.27-.49l.07-.83.33-1.77-2.95.07-.48.61c.3 1.39-1.18 3.43.01 4.49l.72.59c2.55.81 3.84.13 5.67-.85.26-.49-.03-.3.56-.56.5-.98.66-.99 1.01-2.34.17-1.28.49-2.14-.31-3.28-.41-.59-1.59-1.33-1.74-1.84-1.22-.77-.95-2.07-.56-3.36.19-.63.1-.72.71-.81.48.66-.46 2.65-.45 3.69l3.24-.15c.06-2.01 2.23-5.65-1.55-6.02-1.47-.14-2.76.17-3.71.78-.68.44-1.75 1.63-1.84 2.69zm-7.27 9.35 2.55-12.18c-.73-.08-2.79-.12-3.3.18-.42.28-.3.13-.45.79l-.57 2.74c-.65 2.84-2.3 8.89-2.14 11.21l-.01-.02c.07.51.11.43.48.73.52-.08 1.25.07 1.85.03.78-.05 1.17-.43 1.54-.43.41 0 1 .23 1.87.15.57-.05 1.43-.1 2.01-.27l1-4.43c.4-2.25 2.4-9.36 2.28-11.02-4.11.35-3.44-.12-3.86 1.92-.38 1.86-2.28 10.94-2.69 11.27l-.64.16.1-.82zm-7.65-1.51c.1.53-.19 1.24-.31 1.86-.18.88-.03 1.43-.93 1.37-.31-.6.5-3.11.66-4 .45-.39.09-.3.7-.3l-.11 1.07zm.12-10.12c-.27.4-1.73.56-2.6 2.4-.54 1.14-.62 3.06-1.13 4.07.76.1 3 .05 3.61-.22.32-.6.43-1.57.59-2.2.37-1.53.16-1.81 1.07-1.77.11.63-.67 4.1-.92 4.86-.49-.01-.66-.16-1.08-.25-.56-.12-1.11-.03-1.67.04l-.95.45c-.52.37-.75.7-1 1.35-.17.9-.62 1.77-.65 2.79.35.21.72.23 1.06.44-.05 1.13-.93 1.07-1.42 2.04-.56 1.1.28 1.71 1.41 1.72 1.37.01 1.46-.55 2.83-.37.62.08 2.74-.03 3.22-.21.38-.49.39-1.43.58-1.83.3-2.42 2.92-10.8 2.12-12.44-.3-.17-.12-.01-.33-.25-.2-.22-.04-.08-.22-.4-.49-.05-.76-.45-1.99-.46-1.06 0-1.6.15-2.52.24zm-8.68 7.57c0 1.43-1.19 4.01-1.03 5.46.83-.6.96-1.48 2.83-1.17.04-.02.09-.05.13-.06 1.79-.62.37.07 1.4-1.12l-.12-.22.68-3.49-3.43.13-.04-.11c-.14.29-.06.14-.22.38-.02.03-.08.13-.1.1-.02-.03-.07.06-.1.1zm-4.31 8.59 1.27-.13c-.06-.82-.31-.2-.01-.94.41-.55.23-.38.74-.62l.5-.62c-.25-.7-.05.04-.25-.42-.37-.85.39-3.11.58-4.05l2.04-9.1c.47-2.3.53-3.97 1.74-3.76.19 1.29-.97 4.54-1.08 6.22 1.05.06 2.86.11 3.75-.24.21-.17 1.54-5.71 1.32-6.89-.12-.63-.41-.92-.74-1.25l-.47-.51c-.67.21-4.52-.99-6.8 1.69-1.15 1.35-3.12 11.72-3.7 14.32-.24 1.09-.68 2.65-.78 3.7-.16 1.63.57 2.1 1.87 2.6zM33.65 61.5c-.41-.63.08-1.83.28-2.53.4-1.44.22-1.96 1.06-1.92.33.66-.1 1.61-.29 2.38-.44 1.81-.23 2.02-1.05 2.07zm.01-12.66-.91.88-1.16 2.82c.13.65-.14 1.41-.34 2.11l3.59-.2c.27-.52.45-1.48.59-2.15.36-1.64.19-1.8 1-1.86.1.19.08.06.11.35l-.97 4.4c-1.87-.12-1.51-.44-3.48.09-.22.62-.94.3-1.74 3.53-1.36 5.54-.56 4.89 2.05 4.79.55-.05.65-.18.96-.21.44-.04 1.64.42 4-.08.39-.69 1.61-6.83 1.9-8.15.57-2.58 2.17-6.67-.97-7.28-.97-.07-1.92-.07-2.79.14-.92.23-1.23.56-1.85.8zm-9.98.59c-.01.74-.6 2.9-.79 3.78-.26 1.2-.56 2.5-.83 3.65-.29 1.23-1.65 6.63-1.55 7.61l2.6-.34c.33-.03.7-.03.89-.22.39-.41 1.94-8.38 2.34-10.06.24-1.01.24-2.73 1.26-2.94.45.7-.14 2.08-.27 2.9l-.12.93 3.35-.12c.04-.09.09-.25.12-.31.27-.51-.18.26.11-.21.02-.03.06-.08.08-.1.02-.02.05-.07.08-.1l.37-1.88c.27-1.95 1.01-3.93-1.86-3.72-.57.04-.73.13-1.2.37-1.14.58-.29-.08-1.43-.19l-1.96.1-.97.08-.22.78zm-7.82 13.1c-.11-.64.21-1.86.36-2.53.25-1.05.11-1.89 1.18-1.96.05.88-.25 1.76-.43 2.56-.2.88-.16 1.89-1.11 1.93zm6.67-12.01c-.2-.87-.6-1.3-1.41-1.55-2.12-.21-3.76-.14-5.21.97-1.06.81-1.87 2.44-1.92 4.22l-.2 1.38c1.14 0 2.96-.04 3.61-.49l.57-2.95c.05-.3.06-.63.29-.78.75-.5.56.06.61.11.08.74-.75 4.05-.95 4.84-1.08-.13-1.23-.33-2.56-.25-.89.39-1.09.31-1.7 1.14-.39.54-.69 1.3-.83 1.91-.32 1.34-.83 3.71-.72 5.05l.37.48c1.36.17 2.94-.28 3.88-.12.76.13 1.19.06 1.96.05.96-.01 1.07.13 1.54-.41.29-2.12 1.04-4.64 1.48-6.7.46-2.16 1.19-4.58 1.21-6.9zM2.34 62.97l-.42 2.27 1.57-.05 1.99-.07c.42-.48.51-1.47.67-2.16.38-1.69 1.05-5.21 1.52-6.52 6.23-.9 4.99-.89 6.69-7.89.55-2.25 1.34-4.32-.92-5.3-.77-.34-5.9-.2-6.57.1-.24.21-.07-.15-.33.48-.48 1.18-4.2 19.01-4.2 19.14z"/><path d="M89.92 35.92c-.74.06-.11.01-.41-.17.04-.03.16-.85.79 0-.19.13-.02.15-.38.17zm-8.02-2.01c.63-.01.43-.11.63.41.29.76.1.94.1.96l-.59.08-.14-1.46zM69.84 23.4l-.39.48.18.13c1.12.05 2.64-.42 3.75-.1.13.71-.13 2.29-.2 3.14-.05.69.02 2.62-.44 2.92.18.15.23.23.32.33l.11-.06.46.39c-.1.35-.06.31-.25.66-.2.39-.04.17-.33.44-.44.54-.2.55-.93.64l-.28.09-.57.03.61.15c.29.02.19-.08.62.01l.03.66c.51.12.3.45.56.96.2.39.12.16.36.41.03.03.06.06.09.08l.25.33c.41.37.26.79.13 1.33.34-.04.28-.03.62-.06l-.3-3.11c-.23-.49-.21-.87-.05-1.46l2.67-.22c-.18-.44-.21-.36-.59-.64-.7.28-.45.49-1.52.28-.52-1.04-.65-6.08-.57-6.65.11-.72-.05-.48.42-.59.15-.12-.38-.19.41-.13.38.03.45.21.73.62 2.99-.06 3.08-.31 3.48 2.42.62-.01 1.31.19 1.78.48.13 1.13.2 3.06-.17 4 .23-.09.31-.08.55-.14.35 1.2.41 1.65.14 3.11l-.54.18.17.19c.35.47.35.65.11 1.37l-.72-.04-.03-1.42c-.37.47-.19 1.14-.16 1.78-.74.22-2.73.49-3.67.55l-.17 1.03c.71-.32.45-.54 1.06-.54l1.03-.22c.39.02.63.13 1.08.11 1.06-.03 1.13-.21 2.35.02-.17-.26-.13-.26-.27-.66 1.1.15 2.59.17 3.68.23 1.31.07 2.47-.22 3.62-.15.12-.07-.04-.02.34-.16.12-.04.22-.08.36-.11.4-.08.41-.08.82-.06.4-.35-.06-.01.6-.18.96-.25.45-.43.86-1.04.64-.06 1.08.06 1.5-.41-.19-.14-.02-.08-.37-.16-1.14-.28-3.42.27-4.64.3-1.04.02-.67-.1-1.39-.26.11.66.1.13.3.72-.66-.08-1.04-.02-1.68-.16-.86-.19-.67.03-1.36.04l-.2-2.02c.67.23.39.41 1.39.39.61-.01.9-.22 1.53-.15.91.09 1.91.37 2.82-.37l-2.83.13-.12-.32-.03-.67v-.63l.01-.49-.06-.87.04-.55c-.32-.45-.24-.64-.3-1.26-.14-1.52.15-1.13.36-1.18-.3-.39-.33-.27-.47-.83.29-.34-.39-.29.54-.26 0-.01-.34-.6-.34-.6-.22-.86-.08-.33.08-.56.38.29.17.26.47.65l-.04-1.11-.17-.41a.858.858 0 0 1-.07-.21c-.01-.05-.02-.06-.03-.09l-.59.05c-2.85-.06-5.15.77-6.5.2-1.73-.74-.31-.16-1.53-.23-1.33-.07-2.34-.73-4.09-.7-1.49.02-2.98.17-4.43.25z" style="fill:#9a1312"/><path class="fil5" d="m68.97 27.89.39-.92c.22-.32-.08-.04.26-.26.1.18.09.08.12.37.07.58-1.19 4.21-1.36 4.49l-.84.03-3.44.25c-.62.39-.98.42-1.39.03.16-.66.96-.55 1.78-.72-.17-1.58.19-1.36.64-2.84.34-1.1.35-1.95 1.66-1.54 1.31.43-.2-.47 1.28.2.71-.34.15-.34.66-.4.19.71-.14.41.09 1.09l.15.22zm-5.4 2.95c-.15-.22-.1-.01-.15-.36v-.25c0-.01.19-.54.21-.6.37-.99.71-2.68 1.33-2.9.15.23.1 0 .14.36l-.93 2.88c-.04.13-.13.43-.22.56-.29.41.04.12-.38.32zm-.95.21c-.03.05-.05.1-.07.14-.02.04-.04.09-.07.14l-.12.27c-.01.03-.11.31-.13.37-.57.33-.39.11-1.07.13-.98.03-2.58.74-3.32.08.11-.49-.13-.16.31-.39l.77-.13c.27-.3-.32-.25.28-.25l-.21-.11c-.68-.46-.33-.63.2-2.24.16-.48.24-.95.55-1.32l.48-.45c.49-.34-.17-.13.6-.26.02 1.04-.29 1.03-.41 1.83.62-.32.67-1.08.91-1.75l1.1-.13 1.46-.07c-.06 1.08-1.32 3.43-1.27 4.14zm-3.96-5.44c-.98-.02-1.21-.03-1.56.72-.25.53-.38 1.03-.57 1.62-.37 1.16-.75 2.24-1.02 3.37l-.41 1.38-.84-.06c-.47-1.27.18-2.32-.31-3.12-.62.13-.61.24-.56 1.74.01.44.07.81.01 1.24-.1.66-.22.22-.15.84h.77l.87.07c.3-.4.06-.14.48-.45.95.28 13.55-.48 15.65-.55-.17-.61-.24-.48-.47-.85-.1-.16-.18-.03-.17-.46.02-.69.12-.33.24-.44.02-.48.18-.66.34-.88.31-1.4-1.53-4.24-2-5.62l-.07.01c-1.79.4-3.07.65-4.97.9-1.53.2-3.79.56-5.26.54z"/><path d="m87.09 26.19.03.26.35.91.43.55c.03.04.07.09.09.12l.34.75.17.23c.24.2.1-.11.29.43.21.59-.1.2.25.81.34.35.14.15.12.36.41.38.02-.25.41.57.26.55 0-.03.15.44.27.16.12-.12.39.42.14.27.1.35.22.55l-.09.52-.32.03c-.9.73-1.91.46-2.82.37-.63-.06-.91.14-1.53.15-1 .02-.72-.17-1.39-.39l.2 2.02c.69-.01.5-.23 1.36-.04.64.14 1.03.09 1.68.16-.2-.59-.19-.06-.3-.72.72.16.35.28 1.39.26 1.22-.03 3.5-.58 4.64-.3.35.09.18.02.37.16-.41.47-.86.35-1.5.41-.4.61.11.79-.86 1.04-.66.17-.2-.16-.6.18 1.04.2.91-.05 1.73-.22l.06-.49c.93-.02.47.31 1.12.56 1.36-.68.61-.99.77-1.79.1-.46 1.8-.36 2.36-.21.17.55.05.94-.13 1.28l.87-.09c.03.12.16.07-.11.42l2.12-.1c-.43-.76-.65.24-1.5-.49.78-.36.95-.29 2.03-.25l2.88-.69c.17.23.09.07.13.4.29-.42-.34-.28.65-.89.04-.03.11-.05.15-.09l-.99.05-.4-1.52-2.97.02-.32-1.02.06.78-1.11-.03-.35-.71.28 1.15-4.04.22c-.52.11-.27.21-1.12.22l-1.6-.05c-.39-.3-.1-.02-.34-.43-.01-.02-.12-.3-.17-.39l-.03-.08-.49-.97-.06-.27c-.51-.34-.13.15-.41-.59-.06-.14-.06-.27-.17-.48l-.33-.41c-.11-.12-.14-.16-.25-.34a4.76 4.76 0 0 1-.18-.3c-.18-.35-.1-.15-.26-.59l-.04-.21c-.14-.15-.11-.1-.23-.33l-.1-.24c-.08-.19-.15-.4-.21-.55h.01c-.31-.27-.14-.05-.32-.46-.09-.2-.06-.25-.12-.47l-.16-.15c-.3-.39-.09-.35-.47-.65-.17.22-.3-.3-.08.56l.34.6z" style="fill:#350a06"/><path class="fil5" d="M88.44 41.17c-.35.43-.99.48-1.62.44-1.42-.09-1.21-.52-1.28-.66.63-.06 1 .03 1.59.01 1.88-.07.98-.07 1.3.21zM93.29 39c-.92-.05-.11 1.32-3.45.1l-.11-.56c-.1-.81-.04-1.13.19-1.81l-.86.05c-1.15-.07-2.31.22-3.62.15-1.09-.06-2.58-.07-3.68-.23.15.39.1.4.27.66.82-.12 1.08-.04 1.71.09.69.46.35.45.42 1.3l.46 4.05c0-.01.04-.39.04-.39.16-.46-.11-.13.26-.4.7-.12 1.64.19 2.54.16.91-.03 1.71-.26 2.57-.41.89-.61.75.01.86.82l.29.04-.07-.54-.08-1.65 1.78.04c.14.53.15 2.08.35 2.75.26.86-.02.49.65.6l-.15-.01c.15-.41-.01-.19.21-.42-.16-.71-.31-1.93-.29-2.94.89.03.84.28 1.53-.22l.17-3.66c.54-.38 1.25-.59 1.99-.63.27-.36.14-.3.11-.42l-.87.09-.81-.02c-.05-.55.05-.52-.18-.9-.02.03-.03.09-.04.11-.64 1.9-.59.27-.76 1.42 0 1.34.4 3.43-1.28 3.37l-.14-.58z"/><path d="M60.78 42.71c.92.07 1.7.07 2.53.26.09 1.48.11 1.49-1.42 1.32-.7-.08-1.72-.05-2.42-.26-.44-1.45.14-1.41 1.31-1.32zm-4.93 1.35c.26.08.2-.06.36.12l-.12.83-.6.18-.01 1.35c.48.1.21-.04.51.22l1.39-.4.76-.1c.28-.24-.24-.14.62-.27.12-.02.51-.03.66-.04-.57-.56-.6-.27-1.07-.88.13-.64.11-.35.26-.51l4.34.35c-.44-.4.6-.33-.62-.33v.15c.55 0 1.47.13 1.27-1.23-.18-1.23.02-.35-.34-.78-.46-.64-1.33-.07-2.31-.45 1.41-.02 2.55.29 3.86.3 1.2 0 2.41.34 3.56.06-.2-.13.14-.02-.34-.13l-12.23-.87c-.03.97.22 1.37.03 2.44z" style="fill:#c40301"/><path class="fil8" d="M77.62 21.87c-.34.32-.31.36-.17.93.38.06.98-.03 1.38.24-.48.76-1.25.25-2.41 0-1-.21-1.81-.21-2.89-.21-.72.61-3.04-.18-3.69.57 1.44-.08 2.93-.22 4.43-.25 1.75-.03 2.77.63 4.09.7 1.22.07-.21-.51 1.53.23 1.35.58 3.66-.26 6.5-.2.48-.33 3.23-.55 3.83-.38-.14.63-.84.2-3.02.38l.06.66.04 1.11.16.15c.35.13 1.98.02 2.3-.15.05-.07.29.21.1-.42-.15-.47-.92-.31-1.87-.36l1.6-.37c.96-.14.25.26 1.43.34.33-.37.23.38.23-.72l-.48-.11c-.18-.69.15-.64-.37-.93l-1.02-.16-.13-1.01-.16-.01.1.64c-.52.1-1.29 0-1.89 0l-1.4.12c-.34.09-.32.11-.44.17 1.43-.13 2.13-.14 3.58.03-.31.17-8.79 1.05-9.22.62.49-.18.71-.1 1.09-.39l-.91.08c.77-.33 2.97-1.02 4.08-1.08.82-.05 1.77 0 2.61 0 1.02 0 1.49-.24 2.44-.16-.37-.39.17.05-.32-.21l-.54-.25.07-.48-.27.45c-4.88.3-3.43-.12-7.77 1.07-1.39.38-1.33.08-2.75.1l.07-.77z"/><path d="M94.42 28.87c.02.03.34-.25.17.49-.09.38-.1.21-.32.36-.04-.07-.63.15.16-.86zm.78.12c.24.34.25-.37.18.38-.05.52-.04.14-.18.31-.4-.33-.35-.39 0-.69zm-.1-1.22c-.13.72.2.48-.51.53.07-.65-.21-.36.51-.53zm-.77.07c-.21.72-.55.46-1.47.49.06-.42.12-.5.49-.58l.98.09zm-.21-.58c-.49.01-.49-.01-.79-.2-.02-.57.08-.46.54-.4.05.01.09.02.13.03.05.01.09.01.14.02.57.11.25-.08.59.19-.18.4.13.34-.61.35zm-1.59-.02c-.17-.64.04-.71.54-.86.01.54-.04.86-.54.86zm.01-3.67.06.46c-.91.51.16.82-.98.85-.08-.74-.13-.23.14-.77l-.52.03c0 1.09.1.35-.23.72-1.17-.07-.47-.47-1.43-.34l-1.6.37c.96.05 1.72-.12 1.87.36.2.63-.05.34-.1.42-.32.17-1.95.28-2.3.15.06.22.03.28.12.47.19.41.02.19.32.46-.07-.77.02-.59.77-.6.36 0 1.15-.15 1.34.17l.52-.01-.29-.52-.07-.69 1.5.25-.15.45c-.12.19.04.21-.23.37.96-.02.17-.07.5.33l-.19.52c-.14.4.05.47-.12.21.75.26.06-.03.35.33.16.24.26.32.32.79l-1.36-.06-.49.05c-.11-.02-.28-.08-.4-.05-.72.2-.3-.07-.74.48h2.87l.2.26.72-.34-.03.69-.03.62c1.25 0 .13.06.62-.33-.45-.13-.42.31-.3-.4.04-.26.26-.28.46-.37.21.3.16-.08.1.46l.17.5-.28.36c.42-.1.17-.05.47-.05.06 0 .25.01.31.01h.3l.62-.02c.34 0 .35-.02.78.02l.35.02c.22.18.23-.36.15.58l.13-.06.05-.51c.21-.13.1-.07.3-.12l.03-.96.03-.3-.28.01c.02.09.07.3.05.38-.08.36-.03.2-.18.42-.46-.32-.27.21-.27-.63-.7.05 0 .2-.41-.18l-.25-.26c-.61-.15-.52.11-.53-.72.32-.3.01-.08.53-.15-.13-.43.21-.25-.25-.35-.6.01-.59.06-.64-.54.58-.26-.07-.15.67-.08.09-.43-.13.02.44-.46l-.32-.02c-.12-.68.06-.36-.34-.61l.03.14-.98-.02c.03.02.08.05.1.06l.72.26c.02-.03.08.04.11.06-.52.38-2.27-.03-2.45-.15.27-.73.56-.15 1.01-.47-.38-.91-.86.21-1.42-.62.34-.32-.46-.15.53-.27.05-.01.36.05.43.06.42.09.4.15.94.15l-.21-.23c-.2-.09.03.02-.15-.37-.02-.04-.05-.09-.07-.13l-.17-.3c-.54.28-.39-.44-.47.62l.13-.65c.02-.03.06-.07.08-.09.02-.03.07-.07.09-.09.02-.02.07-.06.1-.09l-.6.05v-.49c-.31.35-.27-.54-.26.45l-.34.05z" style="fill:#8a7446"/><path class="fil10" d="m78.55 27.02-.08 1.71.14 2.83c-.82-.11-1.14-.08-1.74.02l-2.67.22c-.16.59-.19.97.05 1.46.92-.26.76-.47 2.04-.3.83-.23 1.74-.39 2.49-.63.62-.21.45-.3.98-.54.44-.2.63-.14 1.08-.4.37-.94.31-2.88.17-4-.46-.29-1.16-.5-1.78-.48l-.25-.15c-.02-.01-.15-.06-.19-.08-.25.19-.2.09-.24.35z"/><path d="m76.42 42.03-.06-.61 2.88.43c.14-.36.24-.74.59-.99.07-.69.47-1.83 1.04-2.26.61-.45 1.93-.47 2.91-.51l-.05-.64c-.63-.13-.88-.21-1.71-.09-1.22-.23-1.29-.06-2.35-.02-.45.01-.69-.09-1.08-.11l-1.03.22c1.03-.07.32-.04.52.16-.14.31-.14.24-.23.39-.02.03-.04.07-.06.09-.02.03-.04.07-.06.09l-.17.29c-.24.37-.07.08-.25.36l-.28.52c-.04.08-.54.9-.54.91-.07.4-.24.34.47.8l.24.11c-1.05 0-.92.17-1.08.31 0 1.22-.06.2.29.54z" style="fill:#cb0301"/><path class="fil10" d="M69.64 24.02c.07.75.7 2.02.96 2.69.39 1.02.81 1.82 1.07 2.84l1.09.44c.47-.3.39-2.23.44-2.92.06-.85.33-2.43.2-3.14-1.11-.33-2.63.15-3.75.1z"/><path class="fil12" d="M64.1 31.84c-1.28.03-.38.18-1.07-.06-.03-.01-.07-.04-.1-.06.72-.37 3.83-.66 4.68-.61l-.06.49.84-.03c.17-.27 1.43-3.9 1.36-4.49-.04-.3-.02-.19-.12-.37-.34.22-.04-.06-.26.26l-.39.92c-.31.52-.33.46-.74.73.12.68.53 1.07.15 1.75-1.04-.01-.7-.27-1.09-1.01-.59.05-.43.23-.9.03.04-1.64 1.62.68.4-2.63-1.32-.4-1.32.45-1.66 1.54-.46 1.48-.81 1.26-.64 2.84-.82.17-1.62.06-1.78.72.41.39.77.36 1.39-.03z"/><path class="fil13" d="M98.65 41.93c-.37.05-.15.15-.42-.09-.04-.03-.08-.13-.09-.11-.01.02-.06-.08-.07-.12-.18-.57-.13-2.27.05-2.77.85-.06.81.25.86 2.18.02.67.1.6-.33.9zm-3.34-.95c-.53.37-.57.31-.74 1.08-.04.17-.12.68-.15.77-.29.77.03.38-.56.56-.22.23-.05.01-.21.42 1.35-.19.57-.68 1.4-1.79.02-.58-.07-.34.3-.57.52.3.3.48.47 1.11l.4-.02c-.52.05-.01.06-.25-.33.08-.28.44-1.21.39-1.47-.11-.61-.82-.98.07-1.47.34.45.18.34.31.8.29.29.37.58.29 1.09-.16 1-.55.65.1 1.09.28-.06.71-.12.95-.05.42.17.18-.39.39.35.23-.19 1.21-.55 1.54-.61l-.02.52c.54-.29.07.2.27-.38.09-.25.06-.34.06-.59-.66-.1-.28.45-.5-.47-.07-.29.04-.42.09-.64.75-.31.66.25 1.08-.47-.32-.57-.21-.26-1.05-.39l-.08-.86c-1.08-.14-.75-.54-1.82-.68l-.51 1.26c-.67-.22-.2-.46-.78-1.19-1 .13-.88.29-1.15 1.19-.17.56-.46 1.06-.29 1.72z"/><path d="M55.2 41.29c.03.04.14.2.16.23l.22 1.04c.06.57.03 1.02.02 1.55l.25-.04c.18-1.07-.07-1.47-.03-2.44l12.23.87c.48.12.14.01.34.13 2.42-.47 5.25 1.13 5.61-.68-.48-.27-8.15-.24-9.48-.31l-8.06-.5c-.76.01-.48.13-1.24.15z" style="fill:#1c0201"/><path d="m88.33 21.01-.07.48.54.25c.48.26-.05-.17.32.21l-.04-.02.16.01c.37.18.12.18.55.01l.55.07c.37.33.17-.42.34.4l-.29.69c.51.29.18.25.37.93l.48.11.52-.03c.74-.17-.02.07.35-.28.22-.21.07-.14.43-.27l.34-.05c-.01-.99-.05-.11.26-.45l.51.07.08.37c-.03.03-.08.07-.1.09-.02.02-.07.06-.09.09-.02.02-.06.06-.08.09l-.13.65c.08-1.06-.08-.34.47-.62l.17.3c.02.04.05.09.07.13.19.39-.05.28.15.37l.23-.53c.51.34.12 0 .38.59l.34.68c-.3.2-.05.15-.5.15-.04 0-.28-.11-.33-.13-.11.82-.05.23.12.37l.98.02-.03-.14c.21-.54-.09-.33.44-.54.26.32.14-.25.25.57 0 .02-.04.46-.03.59-.57.48-.35.02-.44.46l-.03.62c.46.1.12-.08.25.35v.88l.25.26c.41.38-.28.22.41.18.19-.03.07.04.4-.16l.28-.01-.68-4.11.57.1c-.23-.25.04 0-.29-.24-.14-.1-.16-.1-.29-.2-.3-.21-.23-.22-.5-.42-.5-.08.06-.06-.38.1-.38.14.21.05-.46.13l-.08-.69c-.44.06-.13.06-.44.21-.46.22.05.14-.6.16-.05-.49.05-.36.06-.88l-2.96-.97.06-.48c-.92.35-.45.03-1.28-.12-.4-.07-.95-.01-1.42-.04l.25-1.64c-.12.17-.03-.05-.2.36-.01.03-.07.19-.09.25-.06.2-.08.46-.11.67z" style="fill:#7b673d"/><path class="fil16" d="M96.92 31.41c-.18 1.06-.31-.11-3.03.63l.23-.79 2.8.15zm-7.74-2.09-.09-.61 1.59.13.07.8c-.06.1-.14.32-.23.4.76.2.16-.06.38.35l-.16.75-.59-.06.49.97-.11-.53c.65.09.51-.1.66.52-.19.14.19.21-.52.1.05.09.15.37.17.39.25.41-.05.13.34.43l-.05-.32c.29-.08 2.1-.42 1.65.37.85-.01.6-.11 1.12-.22l4.04-.22-.28-1.15c-.04-.43-.1-.77-.18-1.21-.02-.13-.11-.56-.14-.65-.1-.31-.06-.26-.19-.42l-.03.96.25.67-.6-.04-.13.06-2.36-.13c-.61-.03.08.18-.78-.03l.15-.39.28-.36-.17-.5c-.29.25-.18.11-.26.31-.49.39.63.33-.62.33l.03-.62c-.25.16 0 .02-.25.23-.23.19-.08.08-.3.2.14.23.03.24.17.46l.14-.08.23.42c.01.06 0 .1.01.16s-.01.1 0 .16 0 .12.01.17c.06.71-.32-.68.08.35.33.45.21-.01.21.77l-1.72-.06c-.01-.6-.16-.29.21-.65-.29-.5.02-.02-.35-.45-.04-.04-.05.01-.24-.28l.08-.51.02-.73c-.46-.13-.19.09-.32-.21-.29-.67.06-.46.07-.56l1.07-.01h-2.87c.45-.55.02-.28.74-.48.12-.03.28.03.4.05-.33.02-1.17.14-1.43-.01l-.39-.24c.16.44.08.25.26.59.02.04.15.26.18.3.12.18.14.22.25.34z"/><path class="fil17" d="m97.17 28.83-.03.3c.14.16.1.11.19.42.03.09.11.52.14.65.08.43.13.77.18 1.21l.35.71 1.11.03-.06-.78c.18-.81-.34-2.88-.5-3.79-.24-1.35-.08-2.67-1.49-2.74l-.57-.1.68 4.11z"/><path class="fil18" d="M92.31 36.24c-.03.5-.21 1.49-.19 1.84.03.61.05.45.45.61 1.2.46.27-.29.71.32l.14.58c1.68.06 1.27-2.03 1.28-3.37.16-1.15.12.47.76-1.42.01-.02.02-.08.04-.11.22.38.12.35.18.9l.81.02c.18-.35.3-.73.13-1.28-.57-.15-2.27-.26-2.36.21-.17.79.59 1.11-.77 1.79-.65-.26-.2-.58-1.12-.56l-.06.49z"/><path class="fil18" d="M96.88 36.99c.11-.57 1.35-.42 1.43-.4.44.09.19.07.44.25-.27.39.03.2-.43.36-.27.09-1.03.18-1.44-.21zm.38-1.05c-.74.04-1.45.25-1.99.63l-.17 3.66c.14.16.11-.08.2.32.04.19.02.24.01.43-.17-.66.12-1.15.29-1.72.26-.9.14-1.06 1.15-1.19.57.73.1.98.78 1.19l.51-1.26c1.07.14.74.54 1.82.68l-.01-2.5-.46-.34-2.12.1z"/><path class="fil12" d="M58.92 31.66c.69.12.22-.14.59.21-.24.37.36.3-1.21.37-.24-.23-.29.36-.15-.45-.44.23-.2-.1-.31.39.74.66 2.34-.06 3.32-.08.69-.02.5.2 1.07-.13-.08-.6.12-.22-.22-.56-1.18.08-.86-.06-1.86.45l.25-.44c.49-.84.36-.68.66-1.85.24-.91.6-1.35.68-2.34-.21-.18.3-.18-.43-.12-.23.67-.29 1.42-.91 1.75.12-.79.43-.79.41-1.83-.77.13-.11-.08-.6.26l-.48.45c-.31.38-.39.84-.55 1.32-.52 1.61-.87 1.78-.2 2.24l.21.11c-.6 0-.01-.05-.28.25z"/><path d="m74.61 23.98.51.05c.8 1.33 1.04 6.53.55 6.91-.52.2-.88-.29-1.02-.84-.25-.98-.21-5.29-.05-6.13zm2.2 2.24c-.32-.21-.74-.85-.71-1.47 2.66-.21 2.74.22 2.72 1.8-.54.01-1.63-.07-2.01-.33zm.06 5.37c.6-.1.92-.13 1.74-.02l-.14-2.83c-.02.04-.05.05-.06.12-.01.07-.04.09-.05.12l-.08.88c.02.51.07.92.06 1.44l-1.49-.14c-.43-.75-.81-3.27-.42-4.37.63-.13 1.53.1 2.11.23.04-.26-.01-.17.24-.35.04.03.17.07.19.08l.25.15c-.4-2.73-.49-2.48-3.48-2.42-.28-.41-.34-.59-.73-.62-.79-.06-.26 0-.41.13-.48.11-.31-.13-.42.59-.09.57.05 5.61.57 6.65 1.08.21.83 0 1.52-.28.38.28.41.2.59.64z" style="fill:#151615"/><path class="fil20" d="m78.47 28.73.08-1.71c-.59-.13-1.48-.36-2.11-.23-.39 1.09-.02 3.62.42 4.37l1.49.14c.01-.52-.04-.94-.06-1.44l.08-.88c.01-.03.05-.06.05-.12.01-.07.04-.08.06-.12z"/><path d="M91.1 69.27c-2.76 1.19-1.2 3.38.85 2.6 2.38-.9 1.5-3.62-.85-2.6zm-57.19-.08c-.52 1.9-.35 2.26.3 3.93.41.74 1.4 1.34 2.33 1.58.98.25 2.7.44 3.62-.07.24-.53.69-2.5.55-3.16-1-.17-2.08.05-2.57-.69-.5-.75-.44-3.28 2.53-3.67 1.43-.19 1.29-.3 1.56-1.63l.22-1.8c-1.93-.29-4.5.44-5.76 1.29-1.11.74-2.77 2.77-2.77 4.21zm-7.69-2.53c-.31 1.24-1.03 2.38.13 3.51 1.12 1.1 2.78 1.19 2.29 2.09-.72.85-2.7-.04-3.73 0-.32.95-.55 1.59-.41 2.86.45.03 1.22.34 1.89.41.87.08 1.67.03 2.46-.11 1.34-.23 2.76-1.02 3.32-1.83.86-1.57 1.25-2.31.51-4.14-1.14-.75-2.79-1.19-2.73-1.77.6-1.24 2.52-.27 3.66-.36 1.6-3.56.09-3.26-3.06-3.03-1.05.38-1.48.17-2.61.79-.95.53-1.09 1.04-1.72 1.58zm-4.76 1.73c-.34 2.23-1.42 5.25-1.51 7.4l3.77-.09.35-1.66c.13-1.26.65-3.12.95-4.46.15-.68.31-1.33.49-2.11.34-1.53.29-1.72.6-2.1l-.06-.8c-.62-.08-3.44-.07-3.67.38-.01.03-.05.08-.06.11-.38.79-.55 2.57-.86 3.33zm-7.77 4.35.84-4.17c1.76-.09 2.65.62 1.89 2.34-.46 1.05-1.38 2.05-2.73 1.83zm7.09-4.9c-.34-.88-.55-1.51-1.29-1.97-.84-.52-1.94-.46-2.43-.74-1.54-.05-3.19-.07-4.65.09-1.28.14-1.1.84-1.6 3.23-.28 1.35-1.68 6.76-1.61 7.88 2.73.55 6.58-.29 8.38-1.46 2.11-1.37 3.45-3.69 3.2-7.03zm27.16-1.09c3.02-.95 2.74 3.5.03 4.25-2.88.8-3.02-3.31-.03-4.25zm-1.74-2.93c-1.52.38-2.86 1.48-3.42 2.78-.83.57-1.41 3.43-1.25 4.97.46 4.5 8.48 3.36 10.94.52.23-.27.53-.69.65-.89l.43-.79c.14-.22.13-.17.16-.19.26-1.34.73-2.12.61-3.77-.08-1.2-.53-2.12-1.47-2.62-1.54-.8-5.23-.93-6.65 0zm.35-1.45c.74.06 1.41-.05 2.13-.08 1.07-.04 1.24.07 1.91-.6.55-.56 2.15-1.81 2.27-2.52-.77-.06-1.55 0-2.32.02-1.09.03-1.24.01-1.81.62-.42.45-2.08 1.96-2.18 2.55zM60 67.06c-.49.71-.79.62-1.43.52-.07-.58-.09-.97.38-1.52l.12-.48 1.34.4c.03.54-.02.87-.41 1.09zm-6.08 3.76c.17.9-.5 1.99-.41 3.19 4.86.24 3.42-.32 4.2-2.57.61.31.59 1.68.94 2.22 1.09.09 2.78.09 3.73-.07l.48-.25-.22-.69c.11-1.15-.79-1.91-.73-2.95.86-.68 1.73-1.17 1.99-2.22.55-1.39.6-1.99.36-3.55-.44-1.54-1.86-1.43-3.64-1.36-1.24.05-3.45.07-4.38.58-1.27.7-1.49 6.62-2.33 7.68zm13.78-1.07c-.02-.48.82-3.8 1.03-4.19 3.05-.42 1.34 4.61-1.03 4.19zm-2.75-4.71c-.06.64-.16 1.11-.31 1.72l-.26 1.09c-.09.23-.13.24-.21.35l-.74 3.87-.23 1.24 2.71-.06c1.21.48 4.1-.61 4.94-1.08 1.14-.64 2.64-2.05 2.99-3.26.45-1.3.58-1.61.75-3.1.91-5.32-8.71-3.49-8.84-3.41-.42.34-.17 0-.35.59l-.45 2.05zm10.25.47-1.11 4.58-.47 2.66c.77.16 4.59-.09 6.08-.14.76-.02 1.37.07 1.81-.38.34-.13.09.1.42-.31.5-.62.05-.78 1.38-.93 2.13-.25 1.36-.07 1.82 1.17.84.11 3.05.18 3.68-.13.41-.35-.16-4.57-.19-5.58-.2-5.87-.61-4.02-1.02-5.09-4.01-.94-4.96 1.31-6.26 3.94-.52 1.05-3.33 6.28-3.35 6.89-.48-.25-.42.53-.31-.76l2.08-9.55c-.02-.47-3.34-.54-3.77.22-.14.26-.73 2.98-.79 3.42zm8.47 2.66c.1-.72.72-1.99 1.21-2.35l.07.62.01.93-.03.77-.75.05-.52-.02zm7.26-3.13-.71 3.36 3.58-.19c.25-.28.8-3.11.92-3.64.21-.89.78-3.04.75-3.83l-3.66.13c-.23.63-.93 3.58-.88 4.17z" style="fill:red"/><path class="fil20" d="M74.61 23.98c-.16.84-.21 5.14.05 6.13.14.55.5 1.03 1.02.84.49-.38.25-5.58-.55-6.91l-.51-.05z"/><path class="fil22" d="M90.59 36.45c-.41-.02-.42-.03-.82.06-.14.03-.24.07-.36.11-.38.14-.22.09-.34.16l.86-.05c-.23.68-.28 1-.19 1.81l.11.56c3.34 1.22 2.53-.15 3.45-.1-.44-.6.49.14-.71-.32-.41-.16-.42 0-.45-.61-.02-.35.16-1.34.19-1.84-.81.16-.69.41-1.73.22z"/><path d="M62.62 24.2c-.28.27.29 0-.37.28-.1.04-.28.08-.39.1-.47.07-.45.04-.87-.07l-.09.35-.32-.02-.26.34c-.72.07-1.21.04-1.66.42 1.47.02 3.73-.34 5.26-.54 1.9-.25 3.18-.5 4.97-.9l-.1-.77c-.2.1-.29.19-.46.2-.76.07-.24.16-.45-.16-1.15.25-4.15.85-5.27.75z" style="fill:#891211"/><path class="fil24" d="m61.22 23.58.02.4c.96.18.16.31 1.38.21 1.11.1 4.12-.5 5.27-.75.34-.42.26-.38.18-1.03-.99-.03-2.5.34-3.49.57-.31.07-3.33.42-3.35.6z"/><path class="fil20" d="m74.25 33.26.3 3.11c.66.26.33.38 1.28.3.73-.84.37-2.35.46-3.71-1.27-.16-1.12.05-2.04.3z"/><path class="fil25" d="m55.15 30.68-.08 1.17.44-.53c.27-1.14.65-2.22 1.02-3.37.19-.59.32-1.09.57-1.62.35-.74.58-.74 1.56-.72.45-.38.94-.35 1.66-.42l.26-.34c-.16-.81-.55-.68-.39-1.63.67-.3 2.77-.5 3.22-.67.26-.1.18-.09.32-.19-.84-.12-1.94.19-2.79.46-.06-1.14-.18-.65-.22-.91-.01-.08-.07-.07-.1-.11l.07.77c-.47.54-.91.1-.96.94-.03.54.28.6.22 1.31-3.09.4-2.95.25-3.51 1.94-.46 1.39-.89 2.52-1.29 3.92z"/><path d="M79.82 40.87c.9-.47.06-.74 1.87-.61l-.11.49c.2-.2.07-.07.22-.26.02-.02.05-.07.07-.09.02-.02.06-.07.08-.09.02-.02.05-.07.08-.1l.43.1c-.57-.34-1.25-.15-1.85-.53.1-1.34 1.5-1.55 2.84-1.43.06.44.1.88.16 1.32.14 1.1.02 1.1-.26 1.25.41.56.41.69.48 1.37.01.09.09.87.09.88.26.65-.22.33.65.42.4-.65.25-.88.36-1.57-.37.27-.1-.06-.26.4 0 0-.04.37-.04.39l-.46-4.05c-.08-.85.27-.83-.42-1.3l.05.64c-.99.04-2.3.07-2.91.51-.58.42-.98 1.57-1.04 2.26z" style="fill:#2a0a06"/><path class="fil27" d="m64.04 22.5-.3-.15c-.14.11-.06.1-.32.19-.45.17-2.55.37-3.22.67-.17.95.23.82.39 1.63l.32.02.09-.35c0-.7-.21-.68.23-.93.02-.18 3.04-.53 3.35-.6.98-.23 2.5-.59 3.49-.57.09.65.17.61-.18 1.03.2.31-.31.23.45.16.18-.02.26-.1.46-.2l.01-.2-.28-1.23c-.3-.04-.25.06-.23-.21-1.08.03-2.94.7-4.27.75z"/><path class="fil28" d="M79.82 40.87c-.04 1.37-.55 1.02-.59 1.05-.79.37-.07.48-.91.7.63.2 1.03.05.89 1-.06.38-.47 1.05-.61 1.42.45.34.49.39 1.09.38.23-.64.32-1.83.58-2.7.3-.96.72-1.58 1.3-1.97l.11-.49c-1.8-.13-.96.14-1.87.61z"/><path class="fil29" d="m53.05 34.13.13-.4c.54.06 1.11.17 1.46.4l.04 1.28c-.55-.02-.23.06-.58-.26-.4-.37-.03-.16-.62-.49l.13.51c-.92.46-.37.24-.66-.08l-.3-.43c-.01-.07-.06-.07-.1-.09.8 2.73 1.39 2.01 2.06 2.43-.23.83-.34.65-.3 1.7.02.62.13 1.4.07 1.93l.16.02h.41c.05-.79-.13-1.51-.11-2.27.01-.89.61-1.24.13-1.76-.53-.52-1.45.22-1.53-1.36.84.26.29.14.76.58.68.64.77.14.78.14.2-.57.13-1.57.08-2.29-.45-.16-.7-.06-1.04-.35h-.77c.12.1-.43.29.38.15-.75-.03-.28-.18-.86.25-.11.9-.09.18.28.4z"/><path class="fil30" d="M91.11 42.09c.72.79.06.97.98 1.55l.41.26c.03.02.08.07.11.09.03.02.07.06.11.09l.9.07c.33-.09.03.08.18-.32-.66-.11-.39.26-.65-.6-.2-.67-.21-2.23-.35-2.75l-1.78-.04.08 1.65z"/><path class="fil10" d="M59.47 44.03c.71.21 1.72.18 2.42.26 1.52.17 1.51.17 1.42-1.32-.83-.19-1.61-.2-2.53-.26-1.17-.08-1.75-.13-1.31 1.32z"/><path d="M62.42 26.98c-.46.68-1.09 3.2-.99 4.2l.73-1.07c.21.34.08.41-.05.84.28.31-.1.11.5.1-.06-.71 1.21-3.06 1.27-4.14l-1.46.07z" style="fill:#313231"/><path d="M80.89 23.11c1.24.13 3.31-.03 4.56-.26.12-.06.1-.08.44-.17l1.4-.12c.6 0 1.37.1 1.89 0l-.1-.64.04.02c-.95-.08-1.43.16-2.44.16-.84 0-1.79-.05-2.61 0-1.11.06-3.31.75-4.08 1.08l.91-.08z" style="fill:#f5d385"/><path d="M66.79 26.77c1.22 3.31-.36.99-.4 2.63.47.2.32.02.9-.03.39.75.04 1 1.09 1.01.38-.68-.03-1.07-.15-1.75.41-.27.43-.21.74-.73l-.15-.22c-.23-.68.1-.38-.09-1.09-.51.06.05.06-.66.4-1.48-.68.03.23-1.28-.2z" style="fill:#0f100f"/><path d="m52.1 32.37.16.74c.21.05.33.11.52.15.17.04.22.08.48.07-.06-.62.05-.18.15-.84.07-.43.01-.8-.01-1.24-.05-1.5-.06-1.61.56-1.74.49.8-.16 1.85.31 3.12l.84.06.41-1.38-.44.53.08-1.17c-.11.18-.07.04-.18.43-.07.28-.03.24-.06.44-.1.57.17.17-.19.45-.49-.61.09-1.63-.24-2.84-2.5-.94-1.22 2.37-1.78 3.69-.29-.16-.07-.02-.32-.21-.05-.04-.26-.23-.3-.27z" style="fill:#757675"/><path class="fil12" d="M82.45 40.31c.5.15.6.25.89.61.28-.15.4-.15.26-1.25-.06-.44-.1-.87-.16-1.32-1.34-.12-2.74.09-2.84 1.43.6.39 1.29.19 1.85.53z"/><path d="M54.02 33.34c.34.29.59.19 1.04.35.05.72.12 1.72-.08 2.29 0 0-.1.49-.78-.14-.47-.44.09-.32-.76-.58.07 1.58 1 .84 1.53 1.36.48.52-.11.88-.13 1.76-.01.76.16 1.48.11 2.27h-.41l.68.67c.12-.72.2-.51.22-1.42-.31-.18-.2-.66-.09-1.03.86-.24.84.26 1.34-.32l-.41-.14c-.05-.01-.1-.01-.15-.02-.52-.12.21.1-.29-.05-.26-.08-.18-.06-.32-.16-.47-.2-.14-.68-.1-1.05.05-.43-.05-.75-.08-1.2-.03-.54-.02-2.51.04-2.95-.43.31-.18.04-.48.45l-.87-.07z" style="fill:#331612"/><path class="fil36" d="M95.98 42.22c.24.38-.27.37.25.33l-.4.02c.23.68.25 1.84.11 2.75l-.31.21.27.61c.33.32.49-.08.49-.07.05.23.03-1.14.24-1.34.52-.2.78.07 1.23.23.5-.72.52-.39 1.02-.82l-.73.03.33-1.61c-.22-.74.03-.18-.39-.35.06.85-.14.52-.24 1.15-.1.62.08.39.19 1.12-.38-.09-.26-.06-.52-.23-.04-.03-.18-.11-.21-.18-.02-.06-.06-.07-.1-.1l.19.53c-1.07-.27-.56-.05-.56-.36-.71-.15-.22.21-.53-.57-.11-.26-.15-.39-.24-.73.5-.19.68-.23 1.05-.59-.65-.43-.26-.09-.1-1.09.08-.51 0-.8-.29-1.09l-.15 2.2-.63-.06z"/><path class="fil20" d="M78.82 26.54c.02-1.58-.06-2.01-2.72-1.8-.03.62.39 1.26.71 1.47.38.25 1.47.34 2.01.33z"/><path class="fil37" d="M70.96 29.77c-.16.22-.32.4-.34.88l.47.83c.4-.36.14-.31.54-.47l.38.4.13.97c.72-.09.48-.1.93-.64l.07-.27c-.59-.29-.31-.05-.62-.48-.26-.35-.3-.41-.35-.75.34.03.28.03.5.15l.4-.07c-.09-.1-.14-.18-.32-.33l-1.09-.44c-.4-.13-.18-.14-.38-.04-.1.51-.05.05-.32.26z"/><path d="m68.69 39.31 1.23.16.16-.02 2.01-.09c.14-1.23-.73-1.11-1.7-1.04-1.24.09-1.97-.38-1.7.99z" style="fill:#a51211"/><path class="fil39" d="M80.89 23.11c-.38.29-.6.21-1.09.39.43.43 8.91-.45 9.22-.62-1.44-.17-2.14-.16-3.58-.03-1.24.23-3.32.38-4.56.26z"/><path class="fil27" d="M62.24 31.97c.02-.05.12-.34.13-.37l.12-.27c.02-.05.05-.1.07-.14.02-.04.04-.1.07-.14-.6.01-.22.2-.5-.1.13-.43.26-.5.05-.84l-.73 1.07c-.1-1 .52-3.52.99-4.2l-1.1.13c.73-.06.22-.06.43.12-.08.99-.44 1.43-.68 2.34-.31 1.17-.18 1.02-.66 1.85l-.25.44c1-.51.68-.36 1.86-.45.34.33.13-.04.22.56z"/><path class="fil40" d="m90.01 26.33.03.57c-.73.08-1.44.07-2.15-.14.06.15.13.37.21.55.02.05.07.19.1.24.12.23.09.18.23.33l.01-.38 1.89-.04-.04.88.49-.05c-.09-.59-.13-.35.07-.8l.97.07c-.29-.36.41-.07-.35-.33.18.26-.02.2.12-.21-.33.02-.63.1-.94-.08-.33-.19-.2-.14-.28-.52.55-.22.79-.16 1.41.07-.33-.4.46-.35-.5-.33.28-.16.11-.17.23-.37-.66.15-.6.18-1.28 0l.29.52-.52.01z"/><path class="fil36" d="M90.88 42.59c.03.03.06.07.08.09l.29.26.35 1.02-.54-.1.38.4-.45.1c.16.15-.31.35.52.12.14-.04.14-.15.65-.29-.06 1.14-.81.95-1.76 1.24-.34.29-.58.2-.62.21l-.65.17 1.11.02.07.28c.89-.53 1.05-.32 1.74-.64.81-.38.02-.85 1.91-.58-.47-.45-.45-.31-1.36-.29l-.21-.03c-.14-.96-.13-.2.33-.51-.04-.03-.08-.07-.11-.09-.03-.02-.07-.07-.11-.09l-.41-.26c-.92-.58-.26-.76-.98-1.55l.07.54-.29-.04z"/><path class="fil28" d="M93.86 43.39c.59-.18.28.22.56-.56.03-.09.11-.6.15-.77.17-.77.21-.71.74-1.08.01-.18.03-.24-.01-.43-.09-.4-.06-.16-.2-.32-.7.5-.64.25-1.53.22-.02 1.02.13 2.23.29 2.94z"/><path class="fil30" d="M90.02 41.76c-.41.52-.64.41-.84.44-.06.01-.45.04-.64.06-.2.29-.57-.42 0 .49l-.05.64 2.77-.46-.29-.26c-.02-.02-.05-.06-.08-.09-.11-.82.02-1.43-.86-.82z"/><path d="M85.21 43.66c.46.21 1.9-.57 2.68-.62-.06.67.16.32-.71.68-.04.02-.09.05-.12.06-.03.01-.08.04-.12.07.11.01.49.01.51.01.47.08.17-.13.46.18l.33.01.08.83.78.02c-.37-.39.67-.31-.57-.32l-.06-.69c.74.35 1.27.3 1.77-.2-.57.12-1.69.55-1.76-.3l.05-.64c-.99-.33-1-.12-1.98.16-.36.1-.5.1-.84.25-.54.24-.43.21-.51.5z" style="fill:#1f201f"/><path class="fil17" d="M85.53 44.13c-.9.62-.72-.44-.76.76.39.26.33 0 1.11.22l.26.14.54.08.07-.27c.39-.36.5.01 1.01-.76l.15-.26c-.29-.31.01-.1-.46-.18-.01 0-.4 0-.51-.01-.61-.07-.85.08-1.41.28z"/><path class="fil29" d="M68.96 24.15c.46 1.38 2.3 4.22 2 5.62.27-.21.22.25.32-.26.2-.1-.02-.09.38.04-.26-1.01-.68-1.82-1.07-2.84-.26-.67-.88-1.95-.96-2.69l-.18-.13-.43-.03-.06.29z"/><path class="fil8" d="m94.2 24.62.21.23c-.54 0-.52-.07-.94-.15-.07-.01-.38-.07-.43-.06-.98.11-.18-.05-.53.27.56.83 1.04-.3 1.42.62-.46.32-.74-.27-1.01.47.17.12 1.93.54 2.45.15-.03-.03-.09-.1-.11-.06l-.72-.26c-.02-.01-.07-.03-.1-.06-.17-.13-.23.45-.12-.37.05.02.29.13.33.13.45.01.2.06.5-.15l-.34-.68c-.26-.59.13-.25-.38-.59l-.23.53z"/><path d="m66.74 19.02.61 1.82c.18.16.17.01.3.33.15.34.05-.02.03.33 1.15-.06.3-.02.61.24-.02.27-.08.18.23.21l-.16-.48c.09-.16.17-.4.22-.51-.45-.04-.34-.14-.52-.58.03-.47-.39-1.41-.63-1.86-.48-.39-.02-.31-.67-.23l-.02.71z" style="fill:#959695"/><path d="M71.25 45.13c-1.25.32-1.31-.34-.78-1.24.66-.08.63.05.94.38.02.41-.03.6-.16.85zm-5.37.31c.25.39.43.36 1.41.33.5-.02.99-.07 1.48-.11 1.2-.1 1.5-.45 3.17-.32-.43-.97.09-.99-.69-1.87-1.24-.13-1.56.64-1.39 1.86-1.18.21-2.83.31-3.99.12z" style="fill:#82110f"/><path class="fil44" d="M97.36 43.15c-.12.47-.03.09-.3.26-.15-.22-.37.36-.14-.48.08-.3.15-.14.3-.22.08.11.31-.22.14.44zm-.23-.88c-.37.36-.55.4-1.05.59.09.34.13.46.24.73.31.77-.19.42.53.57-.15-.4.36-.17.36-.17.04.03.08.04.1.1.02.07.17.16.21.18.26.17.13.14.52.23-.11-.74-.29-.5-.19-1.12.1-.62.3-.29.24-1.15-.24-.08-.66-.02-.95.05z"/><path d="M63.57 30.84c.43-.2.1.1.38-.32.09-.13.18-.43.22-.56l.93-2.88c-.05-.35.01-.13-.14-.36-.62.23-.96 1.91-1.33 2.9l-.21.6v.25c.05.35 0 .14.15.36z" style="fill:#2b2b2c"/><path d="m76.42 42.03 1.91.59c.84-.22.12-.33.91-.7.05-.02.55.32.59-1.05-.35.25-.45.62-.59.99l-2.88-.43.06.61z" style="fill:#140502"/><path d="m87.75 44.3-.01 1.54 1.38-.02.65-.17c.04-.01.29.08.62-.21l-.77-.05-.08-.66c-.12.15-.08.06-.2.32-.04.08-.04.18-.09.31l-.16-.47-.78-.02-.08-.83-.33-.01-.15.26z" style="fill:#939493"/><path class="fil48" d="m86.91 30.28.06.87c.87-.06 1.31-.05 2.29 0l-.1-.55c.02-.21.23 0-.12-.36-.72-.17-1.54-.12-2.13.04z"/><path class="fil49" d="m64.1 31.84 3.44-.25.06-.49c-.84-.05-3.96.24-4.68.61.03.02.08.05.1.06.69.24-.2.09 1.07.06z"/><path d="M64.04 22.5c1.33-.05 3.19-.72 4.27-.75-.31-.26.54-.3-.61-.24.02-.36.11.01-.03-.33-.13-.32-.12-.17-.3-.33l.06.67-2.84.46.28-1.63c-.73.81-.04 1.31-.82 2.15z" style="fill:#717271"/><path class="fil51" d="M90.24 43.69c-.5.5-1.03.54-1.77.2l.06.69c1.24.01.2-.07.57.32l.16.47c.05-.13.05-.23.09-.31.12-.26.08-.17.2-.32l.04-.24c.47.03.37.08.66.37.44-.54.05-.33.75-.5l.45-.1-.38-.4c-.08-.21.14-.06-.22-.38l-.61.21z"/><path class="fil48" d="m86.96 32.28 2.93-.06-.16-.61c-.87-.21-1.88-.1-2.77.04v.63z"/><path class="fil52" d="M90.99 44.36c-.7.17-.31-.04-.75.5-.29-.29-.19-.34-.66-.37l-.04.24.08.66.77.05c.95-.29 1.7-.1 1.76-1.24-.51.13-.51.25-.65.29-.83.23-.37.03-.52-.12z"/><path class="fil49" d="m93.65 43.81.15.01c-.15.41.15.24-.18.32.59.07.35 0 .53.2.27.1.13-.2.25.31l.21-.2c.25-.24.03-.04.24-.21.17-.63.08-.59.77-.61-.33-.95.06-.71-.55-1.12l-.01-.47c-.83 1.11-.05 1.59-1.4 1.79z"/><path d="M88.48 43.4c.07.85 1.18.42 1.76.3l.61-.21c.36.32.14.17.22.38l.54.1-.35-1.02-2.77.46z" style="fill:#7f807f"/><path d="m98.47 42.57.46.01-.14.36c.71-.03.15-.05.38.14.23.2.3.63.46.99.02.03.04.09.07.13.26-.13.34.28.63-1.17l-.46-.17c-.37-.2-.13.06-.3-.3l.42-.09.02-.52c-.32.06-1.31.42-1.54.61z" style="fill:#858685"/><path class="fil52" d="m86.13 45.25-1.03.07c-.02.04-.05.09-.05.11l-.08.37c0 .04.05.35.06.4 1.21-.32-.23-.62 1.12-.38.67.12.23.31 1.15.16.09-.8.21-1.04-.56-.93l-.07.27-.54-.08z"/><path d="M61.04 38.69c.29.87 1.83.84 2.08 0-.43-.62-1.68-.64-2.08 0z" style="fill:#2d3743"/><path class="fil25" d="M98.23 41.84c.27.24.05.14.42.09.22-.82.14-2.13-.01-2.91-.73.13-.52.29-.49 1.22.02.54.03 1.06.07 1.6z"/><path class="fil51" d="m53.05 34.13.44.52c.59.33.22.13.62.49.35.32.03.24.58.26l-.04-1.28c-.36-.23-.92-.34-1.46-.4l-.13.4z"/><path class="fil56" d="m86.98 32.94.12.32 2.83-.13.32-.03.09-.52c-.77-.02-2.63.12-3.35.36z"/><path class="fil57" d="m95.05 42.03.01.47c.62.41.22.18.55 1.12l-.06.05c.12.24.01-.34.15.36.02.11.02.29.03.41.04.49-.03.48.21.88.14-.91.12-2.07-.11-2.75-.17-.63.05-.81-.47-1.11-.37.23-.29-.01-.3.57z"/><path class="fil39" d="m86.96 32.28.03.67c.72-.24 2.58-.38 3.35-.36-.12-.21-.09-.28-.22-.55-.27-.54-.12-.26-.39-.42l.16.61-2.93.06z"/><path class="fil44" d="M88.44 41.17c-.32-.27.57-.27-1.3-.21-.6.02-.97-.07-1.59-.01.07.14-.14.57 1.28.66.63.04 1.27-.01 1.62-.44z"/><path class="fil48" d="m88.43 27.88.04.21.39.24c.25.15 1.1.03 1.43.01l.04-.88-1.89.04-.01.38zM87.91 26.76h-.01c.71.21 1.42.22 2.15.14l-.03-.57c-.19-.32-.98-.17-1.34-.17-.75.01-.84-.17-.77.6z"/><path d="m94.11 31.25-.23.79c2.72-.74 2.85.43 3.03-.63l-2.8-.15z" style="fill:#c7a969"/><path d="M85.21 43.66c-.64.1-.28-.22-.5.3.43.47.12.28.82.17.56-.2.8-.35 1.41-.28.04-.03.09-.05.12-.07.03-.01.08-.05.12-.06.87-.36.65-.01.71-.68-.78.05-2.22.83-2.68.62z" style="fill:#999a99"/><path class="fil60" d="M96.62 30.79c.08-.94.07-.39-.15-.58-.08.6.2.35-.34.48-.26-.43-.21.38-.1-.23.12-.7-.19.44.1-.28-.43-.04-.44-.03-.78-.02l-.62.02h-.3c-.06 0-.26-.01-.31-.01-.31.01-.05-.05-.47.05l-.15.39c.86.21.17 0 .78.03l2.36.13z"/><path class="fil57" d="m95.98 42.22.63.06.15-2.2c-.13-.46.03-.35-.31-.8-.89.49-.18.86-.07 1.47.05.26-.31 1.19-.39 1.47z"/><path d="M71.25 45.13c.13-.26.18-.45.16-.85-.31-.34-.27-.46-.94-.38-.53.89-.46 1.55.78 1.24z" style="fill:#e9eae9"/><path class="fil48" d="m89.17 29.32.33.41 1.24-.09-.07-.8-1.59-.13zM86.95 29.73l1.66.01-.11-.73-.18-.23-1.32.17z"/><path d="m86.95 29.73.05-.78 1.33-.17-.34-.75c-.02-.03-.06-.08-.09-.12l-.04.53-.95-.14c-.17-.64-.17-.46.09-1.03-.21.06-.5-.34-.36 1.18.06.63-.03.82.3 1.26z" style="fill:#947c4b"/><path d="M73.04 35.86c-.54.23-.27-.08-.34.52l1.23.04c.13-.55.28-.96-.13-1.33l-.72-.33.36.82c-.29.48-.03.15-.41.27z" style="fill:#0e0100"/><path class="fil48" d="m91.21 29.55 1.24.24c-.05-.8.14-.18-.23-.75l-.2-.26-1.07.01c-.01.1-.36-.11-.07.56.13.3-.13.07.32.21z"/><path class="fil22" d="M93.96 44.9c-.04.42-.02.37.31.49l.24-.52-.36-.53c-.18-.19.06-.13-.53-.2l-.9-.07c-.46.31-.47-.45-.33.51l.21.03c.91-.02.89-.16 1.36.29z"/><path class="fil49" d="m71.02 32.41.27.09.57-.03c-.27-.51-.04-.1-.25-.4-.57-.82-.24-.66-.13-.87.31.11.31.07.54.22l-.38-.4c-.4.16-.14.11-.54.47l-.47-.83c-.13.11-.22-.24-.24.44-.01.43.07.3.17.46.23.37.3.24.47.85z"/><path class="fil40" d="m86.96 31.16-.01.49c.89-.14 1.9-.25 2.77-.04-.16-.47.11.11-.15-.44-.4-.82-.01-.19-.41-.57l.1.55c-.99-.04-1.42-.06-2.29 0z"/><path class="fil64" d="m86.39 23.89.59-.05c.01.03.02.05.03.09.01.07.06.17.07.21l.17.41-.06-.66c2.18-.18 2.88.25 3.02-.38-.59-.17-3.34.05-3.83.38z"/><path d="m80.99 34.53-.47.11.03 1.42.72.04c.24-.72.24-.9-.11-1.37l-.17-.19z" style="fill:#120100"/><path class="fil48" d="m92.99 31.46-1.3.06c-.36.36-.22.05-.21.65l1.72.06c0-.77.12-.32-.21-.77z"/><path d="M92.22 29.04c.37.57.17-.04.23.75l-1.24-.24-.02.73h1.34c-.14-.23-.03-.23-.17-.46.22-.12.07-.02.3-.2.25-.21 0-.07.25-.23l.03-.69-.72.34z" style="fill:#b3985e"/><path d="M98.23 41.84c-.04-.54-.05-1.06-.07-1.6-.03-.94-.24-1.09.49-1.22.14.78.23 2.09.01 2.91.43-.31.35-.23.33-.9-.05-1.93-.02-2.24-.86-2.18-.18.5-.23 2.2-.05 2.77.01.03.06.14.07.12.01-.02.05.08.09.11z" style="fill:#525251"/><path d="m95.97 23.97-.17-.44-1.73-.53c-.01.52-.1.39-.06.88.65-.02.14.06.6-.16.31-.15-.01-.15.44-.21l.08.69c.67-.07.08.01.46-.13.44-.16-.12-.17.38-.1z" style="fill:#b89d61"/><path class="fil10" d="m99.38 35.84.46.34.07-1.08c-1.08-.05-1.25-.11-2.03.25.86.73 1.08-.28 1.5.49z"/><path d="M84.17 44.74v1.28l-.07.89c1.09-.28.5-.11.43-1.24-.05-.7.22-.76-.17-1.42-.27.18-.27-.43-.18.49z" style="fill:#9c9c9b"/><path d="M94.85 44.23c-.21.17.02-.02-.24.21l-.21.2c-.12-.51.02-.21-.25-.31l.36.53-.24.52c.05-.03.13-.12.15-.08.06.09.15-.28.78-.36.52.66.1.69.7 1.2l-.27-.61.31-.21c-.23-.4-.16-.39-.21-.88-.01-.12-.01-.3-.03-.41-.13-.7-.03-.12-.15-.36l.04.91c-.26.13.02.06-.39.12-.06.01-.32-.02-.41-.03l.05-.45z" style="fill:#484847"/><path d="M96.88 36.99c.41.39 1.16.3 1.44.21.46-.16.16.02.43-.36-.24-.18 0-.16-.44-.25-.08-.02-1.32-.17-1.43.4z" style="fill:#a9572d"/><path class="fil16" d="m86.95 29.73-.04.55c.59-.16 1.42-.2 2.13-.04-.35-.61-.05-.21-.25-.81-.19-.54-.06-.22-.29-.43l.11.73-1.66-.01z"/><path class="fil48" d="m90.79 28.29 1.36.06c-.06-.47-.16-.55-.32-.79l-.97-.07c-.2.45-.16.22-.07.8zM91.1 30.8c.68.3.86.15 1.66.02l-.09-.62-.14.08h-1.34l-.08.51z"/><path d="M73.04 35.86c.38-.12.11.21.41-.27l-.36-.82.72.33-.25-.33c-.02-.02-.06-.06-.09-.08-.25-.25-.16-.02-.36-.41-.26-.51-.05-.84-.56-.96.01 1.03.27 1.44.66 2.13l-.16.42z" style="fill:#540100"/><path class="fil73" d="M91.1 30.8c.18.28.2.23.24.28.37.43.06-.05.35.45l1.3-.06c-.4-1.03-.02.36-.08-.35 0-.05 0-.11-.01-.17-.01-.06.01-.1 0-.16s.01-.1-.01-.16l-.23-.42.09.62c-.8.12-.98.28-1.66-.02z"/><path class="fil48" d="m87.9 27.91-.43-.55-.46-.08c-.26.56-.26.38-.09 1.03l.95.14.04-.53z"/><path class="fil73" d="m90.39 23.11.29-.69c-.17-.81.03-.07-.34-.4l-.01.63c-.14.05.26.24-.53.04l-.01-.74c-.43.16-.18.16-.55-.01l.13 1.01 1.02.16z"/><path class="fil48" d="M90.24 25.79c.68.18.62.15 1.28 0l.15-.45-1.5-.25.07.69z"/><path d="m82.04 35.37.59-.08c0-.02.19-.21-.1-.96-.2-.52 0-.43-.63-.41l.14 1.46z" style="fill:#570c0a"/><path class="fil25" d="m98.87 44.15-.08-1.21.14-.36-.46-.01-.33 1.61z"/><path class="fil48" d="m91.6 27.02.19-.52c-.62-.23-.86-.29-1.41-.07.09.38-.05.33.28.52.31.18.61.1.94.08z"/><path d="M73.07 31.73c.28-.27.13-.05.33-.44.18-.36.15-.32.25-.66l-.46-.39c.17.29.18.28.23.73-.62-.1-.62 0-.74-.6-.21-.12-.15-.13-.5-.15.05.35.09.4.35.75.31.43.03.19.62.48l-.07.27z" style="fill:#aa5f54"/><path class="fil37" d="M60.99 24.51c.43.11.4.13.87.07.11-.02.29-.05.39-.1.66-.28.09-.02.37-.28-1.22.1-.43-.04-1.38-.21l-.02-.4c-.45.25-.24.23-.23.93z"/><path d="m90.08 30.79-.2-.62 1 .2c-.21-.41.38-.15-.38-.35.09-.08.17-.29.23-.4l-1.24.1c.11.2.11.33.17.48.29.73-.1.25.41.59z" style="fill:#ac925a"/><path class="fil60" d="m91.17 32.95 1.6.05c.45-.79-1.36-.45-1.65-.37l.05.32z"/><path class="fil13" d="m94.85 44.23-.05.45c.1 0 .35.04.41.03.41-.06.12.01.39-.12l-.04-.91.06-.05c-.69.03-.6-.02-.77.61z"/><path class="fil8" d="M93.33 27.07c.31.19.31.21.79.2.74-.01.43.05.61-.35-.34-.27-.02-.08-.59-.19-.05-.01-.09-.02-.14-.02-.05-.01-.09-.03-.13-.03-.46-.06-.55-.17-.54.4z"/><path class="fil56" d="M92.87 28.33c.92-.03 1.26.24 1.47-.49l-.98-.09c-.37.08-.43.16-.49.58z"/><path class="fil8" d="M91.76 24.12c-.27.53-.22.03-.14.77 1.14-.03.07-.34.98-.85l-.06-.46c-.35.12-.2.06-.43.27-.38.35.39.11-.35.28z"/><path class="fil49" d="M58.15 31.79c-.15.82-.1.23.15.45 1.57-.07.97-.01 1.21-.37-.37-.36.1-.09-.59-.21l-.77.13z"/><path d="m71.86 32.46.28-.09-.13-.97c-.23-.15-.22-.11-.54-.22-.11.22-.44.05.13.87.21.31-.01-.11.25.4z" style="fill:#595a59"/><path class="fil57" d="M81 45.67c.15.27-.23.44.54.36.37-.04.4-.26.51-.51-.03-.02.13-.23-.5-.21-.95.03-.35.17-.55.36z"/><path d="m55.45 39.88-.05-.9c.89-.09 1.37.3 1.47-.59-.38-.18-.82-.2-1.36-.23.14.1.06.08.32.16.5.15-.23-.07.29.05.05.01.1.01.15.02l.41.14c-.49.58-.47.07-1.34.32-.11.37-.22.84.09 1.03z" style="fill:#830100"/><path class="fil48" d="m90.08 30.79.06.28.59.06.15-.75-1-.2z"/><path class="fil44" d="M82.03 43.19c-.03.71.09.69.88.57.07-.7-.21-.88-.88-.57z"/><path d="m55.48 45.19.6-.18.12-.83c-.16-.18-.1-.04-.36-.12l-.25.04-.11 1.08z" style="fill:#8d8476"/><path d="m83.39 45.1.11-.52c-.24-.3.5-.34-.54-.19-.71.16-.42-.1-.48.5l.92.21z" style="fill:#919291"/><path class="fil64" d="M87.12 26.45c-.05.39 0 .2-.14.39-.32-.54.14-.39.14-.39zm-.11.83.46.08-.35-.91-.03-.26c-.94-.03-.26-.09-.54.26.14.57.17.45.47.83z"/><path class="fil81" d="M95.38 25.63c.4.24.22-.07.34.61l.32.02c-.01-.13.03-.57.03-.59-.11-.82.01-.25-.25-.57-.52.21-.23 0-.44.54z"/><path d="m58.13 46.27 1.5-.17c-.11-.55-.84-.81-1.28-1.02.46.61.5.32 1.07.88-.16.01-.54.02-.66.04-.86.13-.34.03-.62.27z" style="fill:#730100"/><path d="m68.8 23.4.1.77.07-.01.06-.29.43.03.39-.48c-.75-.02-.53.09-1.03-.21l-.01.2z" style="fill:#aa342a"/><path d="M81.9 43.84c-.07.65.13.21-.19.61-.64-.03-.52.1-.52-.51-.27.23-.32-.37-.21.49.5.45.6.37 1.06 0 .2-1.11.02-.33-.14-.59z" style="fill:#646664"/><path class="fil81" d="M95.82 28.57v-.88c-.52.07-.21-.15-.53.15.01.83-.08.57.53.72z"/><path d="M55.98 46.76c-.3-.26-.03-.12-.51-.22-.39.41-.24.13-.35.75.65-.13.54-.07.86-.53z" style="fill:#878887"/><path class="fil86" d="m90.34 22.02-.55-.07.01.74c.79.2.39.01.53-.04l.01-.63z"/><path class="fil8" d="m95.57 27.34.03-.62c-.74-.07-.09-.18-.67.08.05.61.04.55.64.54zM92.53 27.25c.5 0 .55-.33.54-.86-.5.15-.71.22-.54.86z"/><path class="fil48" d="m73.18 30.24-.11.06-.4.07c.12.6.12.49.74.6-.04-.45-.06-.44-.23-.73z"/><path class="fil24" d="m81.9 43.84-.71.1c.01.6-.12.48.52.51.33-.39.12.04.19-.61z"/><path class="fil8" d="M94.27 29.73c.22-.16.24.02.32-.36.17-.74-.15-.47-.17-.49-.78 1-.2.79-.16.86z"/><path d="m66.74 19.02.02-.71c.64-.08.19-.16.67.23-.16-.48-.32-.83-.98-.15 0 .11-.18.19.29.63z" style="fill:#535453"/><path class="fil8" d="M93.49 29.68c.07-.2-.03-.07.26-.31.06-.55.11-.17-.1-.46-.2.09-.41.11-.46.37-.12.71-.15.27.3.4z"/><path class="fil56" d="m90.63 32.04.03.08c.7.11.33.04.52-.1-.15-.61-.01-.42-.66-.52l.11.53z"/><path d="M97.06 43.41c.27-.17.18.21.3-.26.17-.66-.06-.33-.14-.44-.15.08-.22-.08-.3.22-.23.85-.01.26.14.48z" style="fill:#1b1c1b"/><path d="M89.52 35.75c.3.18-.34.23.41.17.36-.03.19-.05.38-.17-.63-.85-.75-.03-.79 0z" style="fill:#470b08"/><path d="M75.57 41.53c-.14-.59.05-.49-.53-.6-.29.62.02.53.53.6z" style="fill:#ab0e0d"/><path class="fil8" d="m96.75 30.72.6.04-.25-.67c-.21.05-.09-.01-.3.12l-.05.51z"/><path class="fil56" d="M96.48 29.01c0 .85-.19.32.27.63.15-.22.1-.06.18-.42.02-.08-.03-.29-.05-.38-.33.2-.21.13-.4.16z"/><path class="fil13" d="M97.22 43.97s-.51-.22-.36.17c0 .31-.52.08.56.36l-.19-.53z"/><path class="fil81" d="m93.73 23.51-.08-.37-.51-.06v.48z"/><path class="fil56" d="M94.59 28.3c.71-.04.38.2.51-.53-.72.17-.44-.12-.51.53z"/><path class="fil8" d="M95.38 29.37c.07-.75.06-.04-.18-.38-.35.3-.4.36 0 .69.14-.17.13.2.18-.31z"/><path d="m68.59 20.98.13-.42c-.4.04-.12.03-.38-.02-.03-.01-.22-.11-.26-.14.18.44.07.54.52.58z" style="fill:#494a49"/><path class="fil86" d="m96.47 30.21-.35-.02c-.29.71.01-.43-.1.28-.1.61-.15-.2.1.23.55-.14.27.12.34-.48z"/><path d="M87.12 26.45c-.01 0-.46-.15-.14.39.15-.18.09 0 .14-.39z" style="fill:#f1c77e"/></g></g></svg>