<svg xmlns="http://www.w3.org/2000/svg" xml:space="preserve" width="213.627" height="145.98" style="shape-rendering:geometricPrecision;text-rendering:geometricPrecision;image-rendering:optimizeQuality;fill-rule:evenodd;clip-rule:evenodd" viewBox="0 0 120.99 82.67"><defs><style>.fil1{fill:#fff}</style></defs><g id="Camada_x0020_1"><g id="_2076120233680"><path d="M24.31 25.41c0 1.46.45 3.22 1.28 4.09 1.49 1.56.85 1.81.92 4.45.05 2.04.99 2.6.25 4.31-.57 1.3-1.5 2.02-1.5 3.89 0 2.21-.12 3.11 2.03 4.92 2.51 2.12 5.19.76 7.3 2.81.74.71 2.11 1.7 1.81 2.78-.3.15.13.07-.76.24-.4.08-.48.07-.89.09l-11.63-.01c-.2.29-.27.4-.51.76l-.52.82c-1.28-.73-1.35-1.58-3.48-1.58-11.64 0-13.25-1.63-15.62 8.62l-1.55 5.72c-.96 3.39-2.75 7.22.07 9 .9.57 2.04.36 3.41.36-.61 1.34-.18-.1-1.03 1.32-1.07 1.81-.11 3.82 2.46 4.26 1.59.28 3.34.07 4.98.11 2.02.05 6.99.52 9.37.18 2.69-.38 25.42-.19 29.81-.19 4.03 0 7.22-.32 10.74-.32l35.39.31c1.59-.01 2.99.32 4.1.32h11.69c2.04 0 4.14-.98 3.58-3.03-.57-2.11-2.16-1.98-4.11-2.76l1.94-.13c.05-.01.16-.02.2-.03l.38-.06c1.48-.82 6.54-22.2 6.53-22.21-.55-1.27-1.83-1.78-3.4-1.7-5.62.29-4.52.4-7.4 5.43-.47.82-.55.97-1.2 1.41 0-2.79.8-6.64-2.22-6.64-4 0-4.82-.48-5.9.64l-.57.75c-.02-.05-.09.14-.15.19-1.13-.64-1.31-1.58-2.84-1.58-4.45 0-8.37-.22-12.64.32.19-1.41.51-1.46.71-3.48 5.29-2.93 8.68-6.81 11.16-12.52 2.13-4.91 1.71-7.89 1.71-12.83 0-3.49-2.84-10.91-6.48-13.09-1.73-1.03-1.44-.49-2.73-.55-2.13-.1-1.29-2.28-2.83-4.63-3.52-5.35-9.22-4.12-10.74-4.73C69.03-1.11 63.91.8 62.83.8c-1.93 0-.36-1.67-6.55-.25-6.81 1.56-1.03 1.74-8.69 3.32-1.35.28-1.83.46-2.94.84-7.26 2.51-9.25 3.24-15.02 8.96-2.96 2.94-5.35 6.61-5.35 11.71z" style="fill:#000"/><path class="fil1" d="M118.97 55.87c.55-2.2.64-1.32-4.85-1.32-1.04 1.72-2.24 3.71-3.2 5.66-1.01 2.06-2.2 4.77-3.47 5.08L107 54.23c-1.25.78-2.99 0-4.57 0-1.24 4.21-5.32 17.81-5.77 21.17h1.68c.68-1.68 1.03-3.79 1.64-5.61 1.14-3.42.34-4.22 2.02-5.34.13 12.66-.58 10.95 2.34 10.95 1.63-2.43 5.55-10.49 6.76-11.06.09 2.42-2.58 7.7-2.75 11.06h5.44l5.19-19.54zm-55.34 3.49c.32-1.47 1.4-4.04 1.35-5.12-2.35.48-5.05.32-7.72.32l-.41 2.53h1.81l-4.87 18.3 5.27.03 4.57-16.05zm-19.1 16.05c.98 0 1.42-1.18 1.85-2.03.59-1.19 9.28-18.53 8.88-18.91-.43-.4-1.67.11-2.14.69-2.06 2.54-5.37 13.07-7.41 13.93-.43-1.39.89-11.54.64-14.55l-5.35.11-1.2 20.75h4.74zM19.97 60.24c.62-1.91.99-3.53.46-5.37-3.17-.77-.8-.32-3.07-.32-8.48-.23-10.47-1.93-12.43 6.11l-3.37 13.8c.57.33 1.27.95 2.21.95h9.79c2.92 0 4.73-8 4.65-9.48H10.8l-.69 2.53h1.79c.22 1.33-.76 4.39-1.59 4.45-.87.06-2.38.23-2.72-.12-.58-.59 3.5-12.92 3.85-15.7h3.62c.35 3.74-3.62 3.16 4.92 3.16zm4.65 12.64c.09-1.69.79-3.4 1.21-4.89 3.45-12.3 1.51-10.91 6.6-10.91-.15 1.98-1.61 5.52-2.13 7.8-.54 2.36-1.42 5.76-2.11 8h-3.57zm-6.22 2.43c1.85.23 12.13.32 13.28-.2 2.3-1.04 3.07-6.67 4.04-9.55.53-1.56 3.14-9.77 1.56-10.79-1.01-.66-10.75-.1-12.98-.34-1.89 2.86-4.49 16.98-5.9 20.86zm72.35-9.07c-4.31 0-4.25 1.44-2.46-4.66 1.58-5.38.02-4.51 4.8-4.51l-2.35 9.16zm2.78 9.06c1.28-2.03 3.18-11.21 4.11-14.49.43-1.52.97-3.21 1.23-4.77-1.09-2.48-4.99-1.49-8.53-1.49-1.85 0-3.6-.29-4.74.56-2.21 1.65-1.99 4.02-2.58 5.64-1.13 3.13-2.97 10.82-4.06 14.66l5.47-.32c1.19-1.74 1.17-4.85 2.21-6.64 2.37.72 3.66-.58 2.95 1.94-.42 1.47-1.07 3.48-1.15 5.01l5.08-.11zm-25.08-2.42c-.24-.49 1.24-5.73 1.46-6.64h3.28c.21 1.36-1.05 4.98-1.63 6.43l-3.11.21zm3.99-15.8h3.29c.04 1.36-1.01 5.24-1.63 6.48l-3.56.06 1.9-6.54zm8.79-.72c.03-.61.92-.86-.59-1.61-1.86-.92-4.66-.19-6.72-.19-7.3-.01-6.57.01-8.4 7.32-1.01 4.04.61 1.92-.57 3.82-1.19 1.92-.81 1.3-1.46 3.61-1.51 5.42-1.78 6.13 2.52 6.11 7.81-.04 10.3 1.03 11.52-4.08.33-1.39 1-3.13 1.16-4.22.27-1.88-1.12-.85.57-3.19.8-1.1.96-2.27 1.37-3.68 1.05-3.56.49-2.01.59-3.89z"/><path d="M88.52 79.16c-.37-.06-.36-.23-1.28-.31.77-.72 2.53-.61 3.55-.52.62.06.41 0 .89.45-.88.69-.92.24-1.61.29l-1.54.08zM29.06 26.74c.92-.22.6.21 1.11-.84.34-.7.34-1.11.38-1.74-.84.91-1.06 1.27-1.49 2.58zm53.62 16.12c.26 2.52-6.59 4.81-7.3 3.54-.79-1.43 5.49-4.64 7.3-3.54zm8.97-7.58c-.34-.48-.42.78-.38-.99 0-.05.21-.7.23-.73.43-.66.52-.46 1.48-.65-.1 1.14-.3 2.61-1.34 2.37zm-5.42-5.21c-.5-.79-.43-.59-.05-1.42h.93c.02 1.2.03 1.06-.88 1.42zm.39-13.12-.05 2.75.88.25c.11 1.72-.54 1.77-1.55 2.37v1.11l.31 1.1-.88.48.03.61-1.96 5.76-.12 1-.3.3-1.21 2.96c.2.52.11.43.39.74 1.27-.67.57-1.22 1.54-1.84.99-.63 1.38.29 1.11 1.4-.35 1.48-1.54 3.73-3.06 4.07-.38-1.4-.22-1.64-.23-3.16-.16.15-.53.22-.74.32-.06.08-.37.58-.44.66-.74.81-.05.21-.88.64-.03 1.65-3.36 4.8-4.64 5.88-1.66 1.4-4.59 3.4-7.25 3.88l-.3.9c.81.38 2.05 1.85 5.02 1.59 1.76-.15 3.74-.78 5.25-1.42 4.38-1.87 9.16-4.71 11.87-8.39 5.78-7.84 3.14-6.5 4.04-8.53.6-1.35.66-.65.76-2.72.05-.98.06-1.48.15-2.6-1.11.37-.64.7-2.34.79.05-1.67.87-1.11 2.03-2.12.2-4-2.07-9.97-4.3-11.94 0 1.02.3 1.81.65 2.7.51 1.31.69 1.2 1.31 2.17.28.43.99 2.12 1.01 2.41.09 1.29-.62 1.27-1.42 1.83.06 4.86-1.95 11.16-4.88 15.05-1.22 1.63-2 2.96-3.49 3.46.31-1.33.63-1.56 1.32-2.48l2.54-4.43c.84-1.61.03-1.44-.29-2.45 1.14-.69 2.24-.6 1.24-3.75-1.07-3.37.85-3.49 1-4.15-.15-2.48-.6-5.77-2.13-7.2zm-47.84 7.9c.17.06.5-.08.66.38.55 1.54-.01.52-.29.89-.76-.5-.89-.27-.37-1.26zm-8.57-3.32c.7.4.87-.18.64.87-.11.49-.46.61-.91.86l.27-1.73zM50.08 8.04c1.13-1.35 3.5-1.29 5.17-1.19 2.7.16 3.4-.28 4.27 1.19-1.35 1.82-5.54 1.08-7.42.93-1.71-.14-1.19.2-2.01-.93zM38.44 30.53c-.32-.89.44-1.9.88-3.06.4-1.08.84-2.21 1.31-3.12.87-1.71 2.46-3.67 3.48-4.88.37-1.48 1.84-2.64 3.26-2.84.42-.98 1.46-1.64 2.54-1.85l.27-1.26 1.1.26c1.25-.88 1.37-.84 3.04-1.33 1.16-.34 2.23-.73 3.2-1.13 6.69-3.45 6.27-.79 8.83-1.17l1.02-3c-1.82-.13-2.14-.96-6.7-.95-9.83.01-6.53-.74-13.67 1.49-1.7.53-2.64.78-3.82 1.83-.72.64-.5.11-.84 1.11 1.22-.1 3.85-1.62 6.26 0-.29 1.97-.33-.03-.76 1.42 1.47.88 1.15.01 1.61 1.42-1.24.45-3.25-.39-4.19-1.26l-2.02 1.75c-1.15-.38-.13-.5-1.56-.75-1.11-.19-.72.32-1.72-.43-.03-2.68 1.36-.65 1.7-2.79-4.51.42-12.88 10.82-12.77 14.06 2.3.29 3.03-1.45 4.02-4.3.98-2.84.97-.38 3.12-2.56 1.2-1.22 3.48-3.17 5.32-3.41.23 1.78.22.25-1.73 2.56-.75.89-1.35 1.46-2.28 2.34 0 1.04.06.45.17.8.03.08.13.35.16.42l.17.35c-1.91.29-1.26.23-2.4 1.26.17.65.23.5.33.69.38.68.07-.3.42.67-1.25.76-.67-1.06-2.02 1.26l.87.15c.4.15.67.11.9.9.29 1-1.41 4.79-1.8 5.05-1.22.82-1.36-.45-1.83-1.29-.13 2.53-.94 4.67.25 6.64.24-.14 5.61-4.21 5.92-5.06zM82.1 79c-2.82.44-5.38-.14-6.92-.14l-12.24-.43.65-.81c1.69.54 8.62.35 11.26.59 2.36.22 5.65.04 8.11.04-.18.72.74.49-.86.74zm-21.78-.43c.13-1.57.28-1.16 1.23-1.12 1.65.07.72.91.61.97-.44.27-1.31.14-1.84.14zm-2.01-.2c-2.58-.45-1.08-.71-1.05-.75.57-.62-.55-.1.5-.19l1.69.01c.83.14.57 1.22-1.15.92zm-41.28 1.39c17.82-.56 31-.08 48.66-.08l22.3.22c7.43.66 15.13.26 22.56.57-.11-1.37.02-1.03-1.64-1.27-5.72-.82-9.37-.36-15.7-1.34-2.65-.41-7.38-.14-10.47-.28L55.89 77c-1 0-.67.31-1.6.4-1.57.16-8.52-.14-14.42.52-6.83.75-6.3-.44-8.63-.44l-10.42.79c-4.54.21-5.15-.08-8.56 1.12-.08.03-.18.06-.25.08l5.01.31z" style="fill:#00bafa"/><path class="fil1" d="M77.33 15.68c2.46-.18 6.81-3.11 5.88-6.48-1.28-4.64-8.39-5.81-12.36-2.32-.08.07-4.17 4.16-.46 4.4 3.34.22 4.92 1.28 6.93 4.4zm-17 11.95c1.35-.9 3.34.09 1.69-3.37l.83-.69c2.3.67 4.52 3.33 5.65 5.3-1.08 2.52-5.42 4.93-7.7 6.8-2.07 1.7-6.61 5.22-9.38 5.27l.3-1.89c-1.53-.13-2.24-.85-2.77-1.97-.14-1.49 6.35-5.42 7.63-6.26 3.47-2.27 3.18-2.83 3.75-3.21zm9.23-5.76c-.55-.76-.71-.91-.64-2.08 1.94.18 2.03 1.38 3.26 2.61 4.6 4.57 1.08 4.56-2.63-.53zm-16.81-4.61c1.01.09 1.64.26 2.85.33 2.19.12 3.93-.16 5.74-2.86.77.94.08.24.91.57-.4 1.18-2.89 2.76-4.03 3.59-7.77 5.98-15.57 11.93-23.28 17.99-.93.73-1.9 1.53-2.7 2.33-2.12 2.12-3.16 4.29.33 5.47.46.15 1.82.35 3.6.33l24.02-.22c2.89-.03 5.82.02 7.74-1.69 2.6-2.31 8.05-6.55 10.11-8.85 3.18-3.56-2.17-5.12-2.46-7.51 3 .01 2.45-.1 4.17-1.51 1.15-.94 2.12-1.39 2.68-2.67-1.58-1.86-3.68-3.75-5.48-5.54-1.73-1.73-3.85-4.28-6.5-4.5-3.61-.29-7.5.04-10.73.31-1.98.17-5.47 3.4-6.89 3.79l-.06.63z"/><path d="M44.1 19.47c-1.02 1.21-2.6 3.16-3.48 4.88-.46.91-.9 2.04-1.31 3.12-.43 1.16-1.2 2.17-.88 3.06.94-.21 3.77-2.29 4.12-3.16-2-.03-1.1.28-1.65-.7.93-1.5 1.63-.7 2.87-1.35 1.34-.7.29-1.23 2.26-2.17l1.39.95 4.99-3.74c.86-.61 1.21-.63 1.24-1.99-.61-.14-.81-.18-1.23-.11l-2.94.06c.21-1.79 1.58-2.77 3.51-4.05 1.37-.91 3.84-1.07 4.51-2.95-.96.4-2.03.79-3.2 1.13-1.67.49-1.79.44-3.04 1.33l-.29 1.07-1.08-.07c-1.08.21-2.11.87-2.54 1.85.54 1.16.22.08.34 1.52-1.31.23-1.34 1.77-3.6 1.33zm37.74 14.22c-.76.91-.63 1.12-1.24 1.9-.6.78-.92.84-1.6 1.82-.87.18-3.67 3-4.46 3.79-3.02 3.03-5.5 5.89-10.54 5.84l-5.42.79-.15 1.03-.87.88.87.07c4.78-.48 3.11-.13 4.03-2.05 1.46.3 1.02.22 1.98 1.01.33.27-.01.15.56.4l.37-1.32c1.06.27.27-.27.72.69l1.51-.32c2.66-.49 5.58-2.49 7.25-3.88 1.28-1.07 4.61-4.22 4.64-5.88.84-.44.14.16.88-.64.07-.08.38-.58.44-.66l.98-1.53L83 32.67c-.92 1.02-.25.62-1.15 1.02zm-9.51 19.16c1.2.1 6.21-1.44 6.53-1.64.67-.42.15-.08.6-.67-1.84.04-6.76 1.31-8.22 2.23l1.09.08zM66.54 4.24c.54-.67.04-.44 1.09-.57-.05.42.29.43-.23.73-1.23.71-.81-.13-.86-.16zm-4.8-.16 5.41.89c2.97.78 1.87-.08 4.47-.81.06-.02.72-.19.73-.19.82-.42-.05.2.61-.53L69 3.36c-1.29-.07-.53-.59-2.28-.05l-4.97.76zm-12.46 15-1.16.22-.26-1.23c.57-.18.95-.37 1.37-.63l.05 1.64zm4.88 17.45 6.79-4.5c2.55-2.48 5.62-3.43 3.8-6-.89.25-.25-.11-.75.55-2.84 3.75.86.33-4.65 4.8-.82.67-.72.42-1.35 1.18-1.42 1.71-3.27 1.23-3.83 3.97zm14.29 10.43c-.19 1.79-.54.6-.63.55-.19-.35.15-.39.63-.55zm-.91 6.62-1.55-.97.16 1.08c1.45.65 1.22.03 1.39-.1zm-23.49-2.9-1.06.36c.68.74.66.56 1.59.98.81.1 1.39.49 2.23.82 1.63.65.84.23 2.3 0 1.73-.28 1.37 2.16 3.92.05-2.8-1.64-4-.17-3.73-2.13h.67c-.31-.94.19-.52-1.24-1.1-.76-.31-.87-.4-1.76-.56l-1.98-1.09c-.06-.03-.63-.33-.64-.33-1.15-.43-2.43-.13-3.65-.4.35.59 2.16 2.09 3.53 2.22l-.18 1.18zm10.09.5c.04.07.11 1.56 1.87 1.92.6.12 2.08-.21 3.03-.27l5.11-.1c1.97-.32.58.38 1.07-.92l-5.09.14c-5.73.11-2.6-.06-5.99-.78zm15.57-5.25c.44.82.68.66-.62.99l.62-.99zm12.65-14.24c.41-.15.5-.17 1.04-.32l1.96-5.76-1.15-.32c.49-1.3-.25-.51 1.08-1.18.39-1.16.01-.39.62-.7V22.3c-.48-.9-.27-.18-.5-1.36l.53-.54c.24-1.19-.02-.53.63-.73l.05-2.75c-.56-1.46-.99-3.12-1.56-4.58-.61 1.07.49.97-.03 2.13-.4.91-.54-.04-1.72-.4-1.14 1.43-2.2 1.45-3.38 2.78.23.78.28 1.24 1.07 1.43 1.64.4.1-.34 1.84-.93l1.32.95c3.17 3.5-3.94 8.67-4.5 9.29 3.21 3.5 1.09 1.98 2.7 4.07z" style="fill:#e88c1b"/></g></g></svg>