<svg xmlns="http://www.w3.org/2000/svg" xml:space="preserve" width="252.252" height="211.618" style="shape-rendering:geometricPrecision;text-rendering:geometricPrecision;image-rendering:optimizeQuality;fill-rule:evenodd;clip-rule:evenodd" viewBox="0 0 168.04 140.97"><defs><style>.fil6{fill:#005ea4}.fil3{fill:#050304}.fil12{fill:#8a4d33}.fil27{fill:#a4a3a3}.fil23{fill:#a9a8a6}.fil15{fill:#ba0e2a}.fil13{fill:#bc0e2b}.fil28{fill:#d4d3d3}.fil1{fill:#e10019}.fil8{fill:#f4d234}.fil18{fill:#fafaf2}.fil21{fill:#fafafa}.fil7{fill:#fefefe}</style></defs><g id="Camada_x0020_1"><g id="_2076161300416"><path d="M82.57 97.12c1.23-.22 1.68-1.04 3.11-1.36 1.3 2.13 4.35 1.96 8.15 2.15 3.02.15 6.89.61 9.72.26 1.92-.24 2.57-.07 3.93-1.02 2.42-1.68 6.01-5.28 8.35-6.64.84.74 1.33 2.04 2.09 2.65.89.71.28-.04 1.15.6.92.68.64 1.2 3.45 2.55 1.72.83.81.91 2.4 1.12 1.07.14 1.34.33 1.98.41 1.14 1.32 4.48 2.36 6.18 2.82 7.75 2.1 15.55-.67 20.1-5.43 3.03-3.17 4.53-6.89 3.38-12.83-.79-4.05-3.41-5.1-4.55-8.89-.55-1.83.4-1.57 1.02-2.53.41-1.94-.18-2.15-.21-3.72 1.27-.78 2.46-.4 3.94-.99 1.55-.62 1.88-1.07 4.05-1.08 3.32-.4 4.55-1.53 6.06-4.06 2.07-3.46 1.1-3.6-.68-7.2-.69-1.4-5.07-8.96-6.78-9.38-1.13-.28-4.29-.26-5.52-.19-3.67.2-15.78 9.78-18.99 12.26-2.36 1.83-4.5 4.87-6.45 3.51-.81-.57.03-1.06-1.02-2.24-.56-.63-1.16-1.05-2.06-1.07l-1.02-.16c-.58-1.41-.08-3.21-.36-4.69l.01-.8c4.26-.08 9.71.74 10.7-2.5.44-1.45-.71-2.06-1.49-2.77-1.81-1.63-.41-1.98 1.74-4.93 2.84-3.9 1.05-1.91 4.84-3.76 5.76-2.82 7.75-10.36-1.36-14.79-2.89-1.4-4.33-.56-5.76-3.28-3.09-5.9-5.76-8.26-10.11-12.16-.66-.6-1.8-1.28-2.65-1.87-1.76-1.22-3.5-2.34-5.79-3.27-8.26-3.34-18.95-2.78-20.61 6.78-1.13 6.51 1.92 2.41-10.4 3.99-2.7.35-7.06 1.38-5.85 4.37.85 2.12 4.06 3.49 6.61 4.45 1.32.5 2.72 1.1 4.06 1.5 1.27.38 3.26.75 4.3 1.26.08 1.06.02 2.75-.45 3.56-3.28-.74-5.21-2.75-9.73-2.01-3.22.53-5.39 2.65-6.21 5.06-1.59 4.65 1.15 8.88 5.79 10.28 2.14.65 2.2.49 3.82.79 2.28.41.57 1.08 2.46 3.24.8.91 1.86 1.35 2.42 2.1 1.21 1.61-.39 1.25 2.13 2.13 1.43.5 2.39.7 2.28 2.29-1.7-.44-1.49-1.49-3.44-1.73-2.45-.3-2.22.41-4.41-.86-2.82-1.63-3.82-2.14-7.78-2.64-2.4-.31-2.42-3.97-6.36-4.01-1.76-.02-2.82.64-3.19 1.99-.57 2.05.11 2.5.62 3.95-2.2 1.16-2.76 2.48-3.29 4.98-.27 1.3-.93 2-1.1 3.03-.31 1.88.99 2.13.24 3.32-.06.01-.16-.06-.18-.01-.22.49-.97-.79-2.1-.91-2.09-.23-15.85 5.76-17.47 6.58-6.22 3.15-12.32 6.68-16.25 10.43-2.65 2.53-4.1 4.39-1.06 8.79.98 1.41 2.28 2.45 3.47 3.53 3.31 3.02 2.94 11.93 16.65 11.55 1.76-.05 5.46-.31 6.99-.04 1.35-.78 1.93-.15 3.25-.96l-.2-1.34c-1.29-1.24.42-.9 1.27-.29 3.23 2.29 4.53 3.51 9.18 4.2 2.8.42 5.37.28 7.81-.5 1.11-.36 2.06-.85 2.96-1.43.51-.33.79-.55 1.18-.96l1.05-1.18z" style="fill:#000"/><path class="fil1" d="M99.65 4.46c.47-.23-.09.15.24-.26.03-.04.15-.19.18-.24.02-.03.08-.11.1-.13.02-.03.06-.1.11-.14 2.34 2.79.78 2.59 2 4.4.94 1.4.58 2.88 1.17 5.4.53 2.27-.81 1.42-.93 3.28 2 .78 3.73 1.86 5.68 2.84 3.61 1.82 1.85.66 5.68 3.13 4.9 3.16 6.4 5.34 11.27 6.05 7.01 1.03 6.13 6.72 9.77 7.62 1.95.48 4.85-2.02 5.62-2.73 3.1-2.9 1.02-8.11-4.18-10.03-4.66-1.71-3.01-.28-6.99-6.01-1.42-2.04-4.45-5.38-6.24-7.03-3.22-2.96-5.38-5.08-10.41-6.94-6.72-2.49-14.63-1.47-13.07.77z"/><path d="m123.39 37.17 1.86.36c-.72.78-.86.38-1.65.89-.63.41-.63.88-.69 1.74-.07.72.05 1.47-.5 1.55-1.67.26-2.4-3.4-1.15-4.48.03-.61.04-.65.32-1.21.07-.13.28-.46.37-.55.35-.35.11-.2.5-.31.25-.47.04-.17.32-.52 1.1-1.38 2.56-1.09 3.88-.84-.3.86.39.34-.77.87-.39.18-.67.12-1.04.41-1.13.9.61 1.28-1.61 1.31l.17.78zm-39.17 2.5.69.45c1.83.92 4.05.33 5.75-.4l.17-.07c.05-.03.12-.06.17-.09.33-.19.26-.17.45-.37 2.18-.47 2.85-1.48 4.15-2.35.95.12 1.53.68 2.6.95.93-.82 2.05-1.25 2.93-2.03.94-.82 1.58-1.97 2.92-2.39 3.4 1.49 1.95 6.12-.13 7.23-1.43.76-.74 0-1.32 1.55-.21.55-.66 1.27-1.13 1.63-1.33 1.01-3.43.52-5.37.66-1.41 3.26-1.43 1.21-3.71 2.5.8 1.29 2.15.69 3.07 1.43.72.58.75 2.1 2.68 2.08 1.31-.02 8.86-2.55 15.92-2.88 1.86-.09 2.93.3 3.95-.71.59-.59 1.62-1.93 1.93-2.52 1.77-.05 4.22.86 7.23-1.91 1.54-1.42 2.65-3.48 2.59-6.42-.06-3.08-1.79-4.88-4.34-5.4-6.16-1.26-7.31 5.81-10.65 7.91-2.6 1.64-5.77.02-6.03-2.99-.23-2.65-.97-1.53-1.51-3.14-1.27-3.78 5.98-3.89 7.44-6.63-.48-1.06-3.07-2.49-3.3-2.5-1.14-.09-2.72 2.53-9.69.02-.87-.01-.25-.15-.71.15 4.66 3.84 1.78 11.1-1.68 11.15-1.91.03-4.49-2.8-4.6-4.63-.1-1.69-.04-.32.22-.91.78-1.81.44-4.75 1.43-5.56.4.55.21.91.59 1.3.27-.67.15-1.74 1.33-1.4.57.2.8.02.9.85.42-.29.2-.21.81-.3-1.11-1.14-1.58-.51-2.08-2.42-1.81-.38-.75.23-2.12.89-.4-.51-.08-.23-.37-.99-.19-.49 0-.22-.23-.53-1.2.65-.57 3.9-.53 5.37.06 2.41-.21.73-.74 2.13-.38 1 .07 1.31-.7 2.47-.95-.21-2.02-1.04-3.01-1.5-1.08-.51-2.39-.95-3.63-1.18-10.62-2-11.98 9.55-2.35 11.5z" style="fill:#f7e2c0"/><path class="fil3" d="M39.15 134.68c-1.26-.05-1.23.08-1.33-.86l1.98-19.77c.34-3.65-.1-6.04 2.15-5.92.36 2.53-.63 5.06-.11 7.81l6.86-.16c.37-1.98.91-6.74.56-8.79-.47-2.79-3.06-4.05-6.35-4.11-7.75-.14-10.41 2.17-10.86 8.8-.4 5.81-1.19 11.19-1.68 16.98-.22 2.62-1.12 6.14.4 8.48 1.38 2.12 4.06 2.68 7.66 2.68 9 0 8.38-6.04 8.88-10.19.22-1.8.73-3.32-.1-4.86-7.59-.37-6.54-.06-6.81 2.66-.21 2.09-.29 6.2-1.26 7.25zM118.55 134.98l-1.87-.09c-.45-1.4 1.01-12.62 1.26-15.57.11-1.24.01-4.55 1.39-4.67 1.97-.18 1.01 3.55.9 4.55-.34 3.31-1.25 14.1-1.68 15.79zm8.46-14.12c.28-2.63 2.15-15.87 1.67-17.72l-6.61.05c-1.29 1.86-.52 5.41-1.22 7.51-1.23-.04-1.75-.69-3.35-.79-4.1-.25-5.76 1.76-6.18 5.2l-1.8 18.99c-.22 2.6.37 4.24 2.47 5.08 4.74 1.9 5.68-.87 7.97-.1.94.31.52.3 1.79.31 1.19.01 2.58.14 3.68-.18l1.58-18.35z"/><path d="M57.3 134.94c-1.59.09-2.19.14-2.14-1.35.1-2.92 1.73-17.95 2.36-18.56 2.89-2.81 1.01 8.74.96 9.25-.3 2.94-.53 8.23-1.18 10.65zm9.08-17.25c.56-1.26.15-4.11-.7-5.17-.88-1.1-2.29-1.95-4.16-2.33-3.79-.77-8.45 0-10.13 2.2-2.42 3.16-2.16 10.22-2.53 14.79-.34 4.25-3 11.62 4.18 12.46 12.92 1.52 11.46-4.99 12.14-11.74.16-1.54.85-9.47 1.18-10.22z" style="fill:#060405"/><path class="fil3" d="M137.32 126.62c.01.04.13 10.85-2.54 8.33-.14-.14-1.07-8.15 2.54-8.33zm-1.65-4.6c-.36-1.33.29-5.78 1.23-7.14l1.4.18c.3.83-.16 4.78-.57 5.44-2.49 4.04-9.05 2.23-9.9 9.53-.19 1.64-.59 4.18-.56 5.83.12 5.99 8.06 3.41 9.3 3.32 1.58-.13 4.59.33 6.66.21.46-3.94 2.93-23.73 1.87-26.48-1.45-3.74-13.82-5.11-15.55 2.22-.2.86-.69 4.82-.53 5.83l.31.88 6.34.18z"/><path d="M138.11 63.81c-.13-.91.61-1.21 1.67-.8l-.05 1.02-1.62-.21zm25.62-2.24-.85.03c-.72-1.73-2.44-4.36-3.7-5.35-1.55.33-5.56 3.3-7.28 1.61-1.94-2.08 5.13-3.88 5.37-4.72.03-.09.11-.08.16-.14l-1.05.15c-.25-.36-1.63-5.33-3.85-5.77-1.94-.39-14.79 9.79-16.94 11.42-1.48 1.12-3.89 2.96-3.52 5.84 1.49 1.39.72.55 1.59 2.45.55 1.19 1.24 1.55 2.84 1.58-.45-1.31-2.1-2.39-1.93-3.65l1.14-.18c.57.75.32 1.17.98 2.06.4.54.99 1.3 1.54 1.75 3.77-.12 15.12-3.45 19.61-4.66l4.97-1.88c.06-.03.12-.05.18-.07l.72-.45z" style="fill:#413c3a"/><path class="fil6" d="M91.28 66.47c-3.01-.16-1.99 1.41-6.38 2.03-5.1.72-3.36 1.59-6.97 1.61-2.77.01-5.25-1.71-7.7-.57-1.71.79-.75 5.24-.07 6.46 4.61.69 6.02.83 9.63 2.78 4 2.16 4.6 5.43 6.15 6.09 2.42-2.17.96-4.96 3.58-6.83 1.34-.96 6.09-2.64 7.82-3.11 3.5-.97 5.89-1.18 9.86-1.41 1.99-.12 3.57.16 4.15-1.28.36-.91 1.41-3.24 1.51-3.96-6.63.87-4.86-1.53-7.95-3.33-.68.31-1.73 2.12-2.38 2.73-1.04.97-1.74 1.56-3.48 2.06-3.97 1.14-6.37-1.06-7.76-3.25z"/><path class="fil7" d="m71.44 61.2.8-.16c-.21.86-.34.24.3 1.44.03.05.08.13.1.21-.38 2.62-.18 3.33 1.84 4.72 1.27.88 4.16 1.75 5.76.72-.79-1.05-3.03-1.36-2.72-2.69 1.38-.57 2.01.12 3.29.57 1.08.38 2.39.58 3.76.46 3.26-.28 4.46-2.26 5.21-2.86 1.01.52.19.34 1.08 1.03l-.04-.73c-.11-.62-.23-.4-.05-.75 1.28.76.47.91 1.13 1.9 3.38-1.12 2.76-11.54-1.57-13.72-.46.34-.52.87-1.19 1.41-1.21-.5-1.38-1.11-2.45-1.76-1.91-1.15-5.17-2.18-7.35-2.82-3.19-.94-8.16.77-9.86 3.69l-.07.12c.48.91 2.41.19 2.49 1.21-2.31.52-3.64 1.98-3.34 4.48 1.29-.08 1.31-1.53 3.3-.24-.73 1.02-3.31 3.07-1.49 5.34.73-.34.71-.83 1.08-1.56z"/><path class="fil3" d="M153.32 118.32c.74-3.09.53-7.51 1.55-10.1 2.42-.01 1.62 1.41 1.04 6.58-.32 2.89-1.36 4-2.87 5.72-4.19 4.77-4.08 5.42-4.73 10.56-.07.59-.27 1.25.15 1.53.96.3 5.66.35 6.49.01.57-.37.58-1.56.67-2.36.96-8.04 4.45-6.27 7.13-12.6.79-1.86 1.32-7.63 1.07-9.97-.39-3.69-3.76-4.49-7.75-4.49-4.83 0-7.34 1.15-8.37 4.73-.38 1.34-1.5 9.44-.56 10.33.53.54.28.37 1.38.34l4.79-.29z"/><path class="fil1" d="M95.08 53.47c.22 1.33.87 2.09 1.12 3.95.19 1.42.27 2.86.48 4.33 1.16.29 12.94-1.16 14.57-1.54 1.5-.35 3.01-1.51 3.79.7-1.12.83-7.66 1.14-9.42 1.94-.05 1.39 1.02 2.03 1.77 2.56.97.68 1.47 1.49 2.95 1.49 3.49 0 4.55-1.11 5.91-2.79 5.95-7.38 7.36-3.47 6.37-9.94-.93-6.04-7.01-5.02-12.94-4.18-3.13.44-12 2.25-14.61 3.48z"/><path class="fil3" d="M90.54 139.24c.95-2.62 1.5-22.73 2.84-24.52l1.36.29c.41 1.92-.76 5.86 0 7.09 1.11.66 5.17.45 6.64.18.75-1.72.2-4.49.8-6.31.82-2.47.04-4.34-1.87-5.35-2.99-1.59-5.67.11-6.62-.03-1.44-.22-1.29-.51-3.46-.49-1.29.01-2.77-.08-3.78.23-.57.96-3.06 25.97-3.12 29.01 2.38.21 4.9.29 7.22-.1zM72.62 139.35c.49-1.74.48-4.32.7-6.44l1.51-16.35c.13-1.37.45-1.74 2.15-1.63.45 2.09-.61 4.94-.35 7.46l6.66.17c.64-1.71.77-4.05 1-6.23.23-2.29.67-4.12-1.29-5.47-2.34-1.61-5.89-.36-6.78-.36-.75 0-.98-.23-1.62-.33l-5.78-.02c-1.18 1.49-.77 4.42-1.02 7.19-.37 4.1-2.22 19.22-2.23 22.1l7.06-.07z"/><path class="fil8" d="M136.37 88.6c6.1-1.93 2.43 7.43.27 3.47-.4-.74-.44-2.71-.27-3.47zm5.45-4.8c1.01-.2 2.41-.31 3.46-.18 1.56.2 1.51.82 1.32 2.16-1.34.88-2.65.62-4.8.47l.03-2.45zm-6.48 2.02c-.62-3.51 3.21-2.58 4.26-2.05.48 1.64.17 2.7-1.16 3.07-1.6.44-1.74-.19-3.09-1.02zm-2.07.31c-.64.34-.42.29-1.61.25-.46-.02-1.26-.09-1.73-.14-3.44-.41-1.28-3.94 3.29-2.44.29.6.58 1.65.05 2.34zm2.42-6.83c-.14-2.34 2.97-2.6 3.13.23.1 1.77.2 1.9-1.61 1.88-1.58-.02-1.41-.21-1.53-2.11zm-.89-3.16c-14.88 3.31-7.31 20.63 5.79 17.9 9.05-1.89 11.21-11.7 2.88-16.47-2.16-1.23-5.59-2.12-8.67-1.44z"/><path class="fil3" d="M107.57 139.38c.39-2.51.59-4.66.65-7.44.06-2.89 2.5-20.54 2.07-21.55-1.81-.23-5.17-.35-6.87.03.01 7.92-2.95 22.9-2.59 29.04l6.75-.08z"/><path class="fil8" d="M72.77 91.7c.33.94.24 1.99-.07 2.68-.87.13-1.62.04-2.27-.18-.51-2.29-.15-3.29 2.35-2.5zm-.15-4.29c.73.59.47 1.48.32 2.13-.58 0-.8.9-2.85.06-.18-.49-.54-1.63-.06-2.17.55-.62 1.88-.47 2.59-.01zm-8.6 1.43c.6-2.02 3.97-2.28 4.05.48-1.36.73-2.88.54-4.05-.48zm10.3.23.61-.91c.46-.63.12-.32.7-.79 1.51-.02 2.14.24 2.71 1.23-.26.71-.35 1.15-1.55 1.17-.83.02-1.79-.25-2.47-.71zm-4.49-5.12c-.06-1.07-.11-1.46 1.18-1.48 1.74-.02 1.59 1.39 1.32 3.18l-.89.26c-1.88.2-1.55-.83-1.61-1.96zm.21-2.5c-7.21 1.15-9.91 7.88-3.97 12.52 2.76 2.16 9.59 2.55 12.22-.91 5.38-7.08-3.47-12.36-8.24-11.6z"/><path d="M117.77 84.37c1.11-1.04.56-4.29 4.01-8.41 2.97-3.54 2.46-3.9 2.77-9.53.07-1.3 0-2.59.25-3.79.28-1.37.86-2.25.66-3.61-3.05-.29-9.55 8.33-10.72 10.16-3.55 5.58-.65 3.15.29 6.74 1.19 4.52.36 1.71 1.69 3.84.82 1.32.44 3.6 1.05 4.59z" style="fill:#0a3454"/><path d="M7.97 121.01c-.19 1.21-2.63 2.73-3.43 3.79-3.11 4.09-6.23 11.4-3.49 16.12 5.03.85 9.46-9.92 8.18-12.75-.41.66-.02.73-2.52 4.25-.77 1.09-2.18 2.98-3.7 3.14-1.73-2.87 1.23-7.38 2.59-9.19 2.3-3.06 5.84-3.7 4.97-7.85l-3.47-.15c-1.27-1.79-1.31-1.72.63-4.97.76-1.26 2.45-3.53 3.93-3.52.81 2.16-.67 1.17-.8 3.17.66-.32 2.63-2.56 2.97-3.44.45-1.16.79-4.16.57-5.65-5.2-2.77-11.17 11.01-9.38 15.66.57 1.48 1.18 1.38 2.97 1.38zm7.1 7.2-.63 1.01c-.45 1.23-.61 1.38-.71 2.77-.07 2.72-1.1 3.47-.4 6.69 2.2-.11 4.01-2.33 4.94-3.53.66-.85 3.03-3.59 2.78-4.84 2.42-1.48 2.06-6.32 2.76-9.07l-.05 1.87.46-1.32c.07.23.16.44.29.6.23-4.24 2.22-7.83 1.16-13.77-.29-1.63-.28-3.16-2.26-3.23-3.85-.13-7.83 7.49-8.02 12.53.04.01.11 0 .12 0 1.7-.01 1.24.05 1.6-.57.32-.53.38-1.42.66-2.1.78-1.89 2.24-2.35 2.74-2.95 1.02.71.17.17-.75 2.9-.93 2.73-.26 1.23-1.42 3-.29.44-2.05 6.06-2.13 6.7l-1.13 3.29zm12.82-9.46c1.7-.04 2.65-3.81 1.34-5.39-.78.38-.88 1.73-1.2 2.39-.55 1.13-.6 1.57-.14 3zm-3.8-.03-2.54 7.49c-.83 1.23-1.49 2.84-2.42 4.17-.62.88-2.41 3.01-3.52 3.21-.34-2.19.72-4.11.5-4.92 1-.89 1.44-2.75 1.74-4 .88-3.75 2.67-6.84 4.08-12.76l-.01-.34c2.04-.04 2.81 1.07 2.85 2.87-.01.09-.71 4.05-.83 3.84-.02-.04-.08.11-.13.15l.27.29zm-.43 7.85-.01.36c-.56 3.22-1.48 6.82-.76 10.41 1.77.43 2.01-1.45 2.62-2.77.55-1.19 1.37-2.55 1.43-4.02-1.57.25-.8 1.23-1.52 1.95-.41.41.08.19-.6.25-.87-1.09-.18-2.68.33-3.84.74-1.45 3.47-6.39 2.21-8.27-1.12.2-1.47 1.16-1.91 2.16-.58 1.32-.84 2.07-.59 3.51l-.86-.3-.36.91.01-.36zm-10.85-25.72c1.75.24 2.01-1.68 2.79-3.14.68-1.27 1.59-2.57 1.39-4.39-2.27-.62-2.43 1.4-3 2.99-.5 1.4-1.22 2.83-1.18 4.54z" style="fill:#a21519"/><path d="m102.65 95.87-1.08.01c.13-1.08 1.24-2.76 2.01-3.66l2.02-2.21c.87-.8-.1-.29 1.14-.6-.31 1.34-3.17 4.45-4.21 5.17l.12 1.28.61-.01.77-.07c1.18-.05 2.66-.26 3.36-.88 1.08-.39.47-.24 1.19-.87 1.19-.66 2.29-1.88 3.41-2.7.8-.58 2.46-2.54 3.2-2.73l-.21-6.49c-3.9 1.08-10.96-.83-13.79 1.19-.96.69-3.33 2.65-4.28 2.95-1.11.36-6.05.21-7.46.08.27.32-1.39-.19 1.21.7 1.14.39.5-.15 1.13.65-.04.05-.11.05-.13.13l-.7.37c-.75.17-2.6-.06-3.35-.52l.17.78-1.38-.03c.86.37 1.06.17 2.07.24 1.12.07 1.22.09 1.6.75l-2.41-.07.03 1.5 1.97.09c-.24.81.07.14-.47.74-.6.66-1.26 1.45-1.31 2.38.35 1.06.35 1.17 1.74 1.35l1.39.08.73.08h2.69c1.01.49 1.81.22 3.11.37.5-.33 2.36-1.13 3.02-1.33l.47.25c.42.79-.01.51.64 1.23.61.03-.1.16.51.01.7-.18.42-.17.51-.22z" style="fill:#0b395c"/><path class="fil6" d="M36.26 88.67c.35 2.15 2.78 6.2 5.98 7.37 1.26.46 12.93 2.32 12.83.29-.04-.77-1-2.23-1.24-3.69-1.1-1.22-.86-3.86-1.38-4.26-1.17-.4-13.25-.07-16.16-.36l-.03.65z"/><path class="fil7" d="M36.38 83.03c1.67-1.26 7.68-.36 10.45-.7 1.25-2.17 3.57-4.52 5.21-6.74.88-1.2.26-.51.28-1.6.02-1.65 1.19-1.46 1.79-2.99 1.66-4.21 4.6-4.99 9.27-5.64 1.79-.25 2.55-.78 2.75-2.35-1.9-.12-.92.32-2.36.87-.79.3-1.53.43-2.4.79-5.4 2.27-7.63 3.39-12.74 6.42-3.08 1.82-13.04 8.74-13.18 11.7.63.53.04.16.94.24z"/><path class="fil6" d="M90.72 88.6c.33 1.3.45.33 1.01 1.53.29.62.35 1.6.59 2.11l10.33-.57c1.9-4.62 4.78-3.66 4.93-2.11.14 1.49-1.12.27-.13 2.63 1.38.26 2.36-1.16 3.05-1.71 1.28-1.01 3.4-1.11 3.82-3.58.49-2.85-.31-2.02-6.21-2.09-5.14-.06-5.24-.45-8.63 1.87-3.43 2.34-4.7.9-8.75 1.92z"/><path class="fil12" d="M60.36 79.09c1.41.07 2.61-.95 3.71-1.43 1.12-.49 2.8-.93 3.7-1.42l-.21-3.23c-.1-1.79.45-2.51.28-4.15-3.25-2.24-9.21-1.61-11.06.91-2.25 3.07 1.27 6.05 3.58 9.32z"/><path class="fil13" d="M33.57 84.89c1.02-4.61-2.22-1.85 4.72-8.38 3.78-3.55 10.93-8.98 16.08-10.76 1.88-.65 3.34-1.16 4.95-1.95 1.44-.71 3.74-1.27 4.76-1.99l-.21-.9c.24-1.03-2.44.46-2.66.54-1 .4-2.04.53-3.01.94-7.61 3.2-19.62 8.61-25.05 13.88-.88.86-3.21 2.79-3.25 4.22-.04 1.61 2.07 4.64 3.03 5.09l.61-.69zM79.56 15.73c.07 1.94 3.05 3.19 5.39 4.17 1.45.6 6.07 2.28 7.5 2.3.61-.64.9-1.32.99-2.16-2.67-1.14-1.49-1.18-5.67-2.35-.83-.23-1.44-.3-2.02-.81 2.15-.02 5.48 1.39 7.66 2.01 3.42.97 4.34-1.13 6.98-1.85-.43-.84.45-.27-1.96-1.31-5.94-2.56-13.63-2.21-18.88-.01z"/><path class="fil8" d="M157.45 53c-.05.05-.13.05-.16.14-.24.84-7.31 2.65-5.37 4.72 1.71 1.69 5.73-1.28 7.28-1.61 1.25.99 2.98 3.62 3.7 5.35l.85-.03c2.53-3.96 3.13-2.26-.87-8.86-3.44-5.67-3.25-7.08-8.64-6.06-.03.95 3.42 4.81 3.22 6.35z"/><path d="M33.57 84.89c1.34-.91-.3-.57 2.01-1.45l.8-.41c-.9-.08-.31.3-.94-.24.14-2.96 10.1-9.88 13.18-11.7 5.11-3.02 7.34-4.15 12.74-6.42.87-.37 1.61-.49 2.4-.79 1.44-.55.47-.99 2.36-.87-.06-.04-.18-.15-.21-.1l-1.16-.63c-.24-.29-.39-1.02-.87-1.37l.21.9c-1.02.72-3.32 1.28-4.76 1.99-1.61.79-3.08 1.3-4.95 1.95-5.15 1.78-12.3 7.21-16.08 10.76-6.94 6.52-3.7 3.76-4.72 8.38z" style="fill:#6c121f"/><path class="fil15" d="M90.32 82.14c5.3 1.16 6-2.35 9.6-3.23 1.87-.46 4.1-.68 6.25-.46 1.53.16 5.45.52 6.66-.11.31-.88.08-2-.24-2.69-2.74-.78-14.77.94-18.97 2.66-2.36.97-3.71.77-3.3 3.84z"/><path d="M89.44 86.34c1.4.12 6.35.27 7.46-.08.95-.31 3.32-2.27 4.28-2.95 2.83-2.02 9.89-.1 13.79-1.19-.3-1.96-.07-1.68-2.53-1.64-2.85.04-10.58-.37-12.32.37-1.57.67-2.87 2.74-4.89 3.01-1.16.16-2.8-.07-4.04.01-2.2.13-1.63.74-1.76 2.48z" style="fill:#fdfdfd"/><path class="fil12" d="M109.3 31.82c.68 1.04.52.18 1.86 2.33-.38 1.02-1.11-.34-.43 1.43 1.76 4.56 6.19-3.88 8.56-5.28.89-.53.84-.26 1.21-1.04-.5-.69-1.04-.89-1.89-1.48-.81-.57-1.11-.99-2.2-1.17-1.27 1.03-1.54 1.78-3.37 2.68-1.17.57-3.32 1.53-3.74 2.53z"/><path d="M103.7 108.31c1.45.78 5.02.48 6.86.35.42-1.02.68-3.95.34-5.5-.83-.03-6.07-.13-6.48 0-1.07.33-1.17 4-.72 5.15z" style="fill:#0a0909"/><path class="fil18" d="M96.41 6.69c.14.52-.12.18.26.47 1.62-.44.89-.47 2.37 2.11.7 1.23.89 2.03 1.69 2.99-.88 1.18-.64 1.68-1.36 1.82-2.85-.32-1.05-4.88-3.11-4.98l-.07.13c-.05.39-.09.95-.22 1.32-.08.23-.07.23-.22.44-.23.33-.21.2-.44.41l.17 1.5c2.54 1.18 4.19 2.47 5.99 2.28 3.1-5.83-1.79-11.39-3.58-10.6-1.07.47-.25-.2-.85.92-.26.48-.4.77-.64 1.18z"/><path class="fil3" d="m155.01 133.97-7.05.12-.34 5.26 7.07-.02z"/><path d="M36.07 86.31c-.31.27-.56 1.53.2 2.35l.03-.65c2.91.28 14.99-.04 16.16.36.52.4.27 3.04 1.38 4.26-.16-1.26-.45-2.16-.54-3.57-.04-.59-.01-1.22-.21-1.78-.37-1.08-.49-.1-.58-1.27-4.52.22-12.46-.72-16.08.95-.48-.24-.39.45-.36-.66z" style="fill:#0a3759"/><path d="M121.19 47.81c1.86.08 4.02-1.58 6.15-1.81l.88-.41c1.15 1.29.94 5.08 3.79 2.75-.7-3.12-4.23-1.02-1.05-5.74 1.65-2.45 4.04-5.15 1.38-5.63-.46 1.82-.19 2.29-1.27 3.96-1.94 3.02-2.81 3.77-5.92 5.02-.67.27-1.17.56-1.99.63-1.43.12-1.5-.25-2.47.59.17.71-.01.4.49.63z" style="fill:#9f6255"/><path class="fil15" d="M99.37 20.13c.68 1.54 2.09 1.7 4.27 1.89 2.62.24 3.08.4 5.17-.38-.48-1.08-1.55-1.19-3.39-2.3-1.09-.66-2.24-1.76-3.79-1.69.02 1.19.99 1.17.22 1.91-.48.47-1.62.43-2.48.56z"/><path class="fil21" d="M36.07 86.31c-.03 1.11-.12.42.36.66 3.61-1.68 11.56-.73 16.08-.95.56-.39.56-.26.47-1.05-2.53-.41-6.68-.19-9.36-.19-5.32 0-5.86-.59-7.55 1.54z"/><path d="M99.17 24.22c-.62.28-.73.08-1.2-.17-.02.55.04.24-.12.71-.41 1.19.61-.51-.27.29-.19.71-.77.97-.02 1.59.63-.31.38-.69.94-1.48 1.18.28.8.87 1.69 2.71.84 1.75-.61 2.72-.69 4.88l1.06.05c.22-.29.2-.15.14-.55l.45-1.24c.68.38.12-.1.71.59-.07-1.19-.15.09.31-.4.22-1.46.66-6.01-1.15-6.55.23.86.55.81.1 1.59-.28-1.53-.31-1.9-1.12-2.31-.61.09-.39.01-.81.3z" style="fill:#f6f6f6"/><path class="fil23" d="M132.55 68.07c.02-1.13-.75-3.04-2.3-2.75-.82.15-2.78 1.55-3.2 1.95-1.9 1.83.59 3.65 5.5.8z"/><path d="M96.26 9.1c2.06.11.26 4.67 3.11 4.98.71-.14.48-.64 1.36-1.82-.8-.96-.99-1.76-1.69-2.99-1.48-2.58-.75-2.55-2.37-2.11-.38-.29-.12.05-.26-.47-.29.51-.03 1.67-.15 2.41z" style="fill:#a3161a"/><path class="fil6" d="M97.55 26.64c.43.98.39 2.61.51 3.92l.39.05.36 1.84.18 1.39c1.43-.34.02.01.9-.64l.65-.38-1.06-.05c.08-2.16 1.53-3.13.69-4.88-.88-1.84-.5-2.43-1.69-2.71-.56.79-.3 1.17-.94 1.48z"/><path d="M93.37 66.36c-.45 3.53 4.69 2.78 5.79 1.92 2.43-1.89.8-.3 2.04-2.2.91-1.4 1.72-.39 1.9-2.7-1.66.59-2.25 2.89-3.68 3.79-2.85 1.79-4.49-1.07-6.04-.81z" style="fill:#025899"/><path class="fil23" d="M142.84 69.76c.55 1.19 1.92.84 3.28 1.33 1.48.53 1.97 1.46 3.08 1.68.48-1.32-1.03-2.73-1.85-3.37-1.06-.83-3.78-.75-4.51.36z"/><path class="fil12" d="M121.19 47.81c.64.84.78.89 2.37.91 3.83.05 3.46.02 3.63-1.26.07-.5.08-.91.15-1.46-2.13.23-4.3 1.89-6.15 1.81z"/><path class="fil18" d="M49.81 82.33c1.2.34 3.02.36 4.16 0-.65-1.35-1.86-.85-1.98-2.79.84-.89 1.52-.35 1.82-2.04-1.05.4-3.92 3.08-4 4.83z"/><path d="M59.51 80.36c-.25-1.41-.32-.84-1.29-1.69-1.62-1.43-2.16-2.67-3-4.02-.49-.77-.19-.43-.78-.73-.49 1.97 3.18 6.28 5.07 6.44z" style="fill:#f3f2ee"/><path class="fil27" d="M126.24 65.2c1.04-.17 1.5-.52 2.41-.93 1.1-.5 1.61-.46 1.57-1.72-.64-.05-2.42 0-3.03.16-.98.25-.76.29-.96 2.49z"/><path class="fil28" d="M58.04 94.91c-.17-1.4-2.23-5.6-2.1-6.53.54-.89.31-.07.51-.93l-1.07-.22c-.2 1.7.18 2.92.64 4.35.51 1.58.92 2.99 2.02 3.33z"/><path d="M95.49 65.04c1.53.7 1.38.29 2.92.16.45-.22.52-.13 1.15-.24 1.2-.2.52.17 1.09-.55-.06-.05-.17-.19-.2-.12l-.94-.14c-.89.02-.17.17-1.42-.02-2.77-.43-2.65.14-2.6.92z" style="fill:#eeeada"/><path class="fil21" d="M67.57 67.2c1.06.36 2.78.24 3.52-.23l-1.51-1.47c-1.29.41-1.96.84-2 1.7z"/><path d="M72.07 46.59c.85-.03 2.14-.5 2.67-1.04-.94-1.41-3.12-.8-2.67 1.04z" style="fill:#586165"/><path d="m85.94 88.27.44.14 1.38.03-.17-.78c-.49-.97-.32-1.15-1.32-1.4-.59.8-.52.87-.34 2.01z" style="fill:#646363"/><path class="fil27" d="M149.72 69.82c.77.12 1.26.05 1.74-.16-.06-1.33-2.32-1.62-2.36-1.62-.09 1.03.01 1.11.62 1.78z"/><path d="M98.41 65.2c-1.54.13-1.39.53-2.92-.16l-.32.8c1.75.31 2.57.51 4.22.01l-.56-.36c-.48-.29-.18.09-.42-.29z" style="fill:#f5d435"/><path d="M57.77 83c-.16-.6-.82-1.3-1.22-1.74-1.47-1.62-1.09-1.17-1.78-1.3.3.86 2.1 2.74 3 3.04z" style="fill:#898786"/><path d="M95.31 11.4c.23-.21.21-.08.44-.41.15-.21.15-.22.22-.44.12-.36.17-.93.22-1.32-1.23.04-.94 1-.88 2.17z" style="fill:#aa6a58"/><path class="fil28" d="m98.82 32.44-.37-1.84-.39-.05-.39 1.67z"/><path d="M96.71 29.61c.72-.53.74-.88-.08-1.37-.35.4-.38-.16-.35.57.05 1.22.25.59.43.81z" style="fill:#ececeb"/></g></g></svg>