<?xml version="1.0" encoding="UTF-8"?>
<!DOCTYPE svg PUBLIC "-//W3C//DTD SVG 1.1//EN" "http://www.w3.org/Graphics/SVG/1.1/DTD/svg11.dtd">
<!-- Creator: CorelDRAW -->
<svg xmlns="http://www.w3.org/2000/svg" xml:space="preserve" width="28.3554mm" height="33.0133mm" version="1.1" style="shape-rendering:geometricPrecision; text-rendering:geometricPrecision; image-rendering:optimizeQuality; fill-rule:evenodd; clip-rule:evenodd"
viewBox="0 0 333.01 387.71"
 xmlns:xlink="http://www.w3.org/1999/xlink"
 xmlns:xodm="http://www.corel.com/coreldraw/odm/2003">
 <defs>
  <style type="text/css">
   <![CDATA[
    .fil0 {fill:black;fill-rule:nonzero}
   ]]>
  </style>
 </defs>
 <g id="Camada_x0020_1">
  <metadata id="CorelCorpID_0Corel-Layer"/>
  <path class="fil0" d="M294.13 30.22c0,-17.88 -15.65,-15.23 -12.73,4.45 1.51,10.17 12.73,10.74 12.73,-4.45zm4.04 -0.35c0,25.12 -26.42,21.09 -20.46,-6.07 3.05,-13.91 20.46,-14.74 20.46,6.07zm-23.27 -12.55c0,6.76 -2.59,-3.01 -6.97,5.15 -0.44,0.85 -0.95,1.87 -1.5,3.08 -0.7,3.18 1.69,19.96 -1,20.45 -0.98,0.18 -2.9,0.21 -2.9,-0.96l0.35 -30.42c0.3,-0.21 3.17,-0.77 3.17,0.78l0 4.31c3.52,-7.22 8.85,-7.65 8.85,-2.39zm-22.25 13.11c0,-18.63 -10.19,-10.94 -11.5,-6.06l0 11.82c1.19,4.2 9.4,10.88 11.21,-1.65 0.2,-1.36 0.3,-2.73 0.3,-4.11zm4.04 -0.63c0,3.23 -1.18,19.55 -10.94,16.39l-5.05 -4.78c0,2.5 0.97,5.33 -2.55,4.59l-0.9 -0.96 0.39 -44.77c0.42,-0.24 3.51,-0.75 3.51,0.8l0 17.71c7.21,-10.38 15.54,-3.59 15.54,11.02zm-26.51 15.24c0,1.43 -3.9,1.43 -3.9,0 0,-3.73 1.6,-22.92 -2.29,-25.82 -3.72,-2.77 -7.47,4.91 -7.52,5.1 -0.78,2.81 1.79,21.17 -1.02,21.68 -0.99,0.18 -2.88,0.2 -2.88,-0.96 0,-3.74 1.6,-22.88 -2.33,-25.82 -3.71,-2.77 -7.47,4.85 -7.54,5.1 -0.77,2.76 1.74,21.19 -0.99,21.68 -1.02,0.18 -2.91,0.2 -2.91,-0.96l0.35 -30.42c0.3,-0.21 3.17,-0.77 3.17,0.78l0 3.92c5.47,-8.64 11.52,-5.89 13.4,0.46 7.59,-11.55 14.47,-4.72 14.47,6.52l0 18.74zm-41.23 -17.72c0.22,-12.57 -11.22,-12.11 -11.51,0l11.51 0zm3.9 1.61c0,3.28 -0.74,2.37 -15.41,2.37 0,17.69 13.65,8.2 14.16,8.67 0.89,0.83 1.68,6.5 -7.64,6.5 -15.12,0 -13.61,-32.56 -0.41,-32.56 8.98,0 9.3,11.23 9.3,15.02zm-25.15 16.11c0,1.41 -3.9,1.45 -3.9,0l0.39 -44.77c0.41,-0.23 3.51,-0.75 3.51,0.8l0 43.97zm-24.62 -17.72c0.2,-12.58 -11.22,-12.11 -11.5,0l11.5 0zm3.9 1.61c0,3.28 -0.71,2.37 -15.4,2.37 0,17.7 13.66,8.19 14.16,8.67 0.94,0.91 1.59,6.5 -7.64,6.5 -15.12,0 -13.62,-32.56 -0.41,-32.56 8.98,0 9.3,11.23 9.3,15.02zm-25.07 16.11c0,1.44 -3.9,1.42 -3.9,0 0,-3.7 1.6,-22.94 -2.29,-25.82 -3.74,-2.77 -7.47,4.92 -7.52,5.1 -0.79,2.81 1.79,21.17 -1.02,21.68 -0.99,0.18 -2.88,0.2 -2.88,-0.96 0,-3.73 1.6,-22.88 -2.33,-25.82 -3.7,-2.77 -7.47,4.84 -7.54,5.1 -0.77,2.77 1.74,21.18 -0.99,21.68 -1.02,0.18 -2.9,0.2 -2.9,-0.96l0.35 -30.42c0.3,-0.21 3.17,-0.77 3.17,0.78l0 3.92c5.47,-8.63 11.52,-5.9 13.4,0.46 7.55,-11.52 14.47,-4.77 14.47,6.52l0 18.74zm-49.45 0c0,1.39 -3.53,1.46 -3.53,0l0 -3.92c-6.11,9.4 -14.72,6.48 -14.72,-7.75l0.4 -18.74c0.36,-0.23 3.5,-0.75 3.5,0.78 0,4.24 -1.68,22.81 2.49,25.81 3.86,2.78 7.82,-4.63 7.95,-5.09 0.76,-2.69 -1.74,-21.34 1,-21.7 1.39,-0.18 2.91,-0.07 2.91,0.98l0 29.64zm164 36.49c0,11.32 -15.87,10.37 -13.76,2.53 0.48,-1.8 5.09,4.74 9.05,1.02 3.42,-3.21 0.07,-6.26 -3.78,-8.35 -11.12,-6.02 -1.77,-20.2 6.31,-14.34 1.86,1.35 1.57,5.52 0.06,4.23 -6.2,-5.27 -11.61,2.71 -4.68,6.36 4.8,2.53 6.81,3.88 6.81,8.55zm-22.54 -4.81c-4.93,0 -8.86,-0.13 -8.86,5.01 0,7.03 7.59,4.5 8.86,0.55l0 -5.56zm3.58 11.99c0,1.21 -3.1,1.23 -3.1,0l0 -2.62c-9.01,12.8 -20.48,-8.46 -7.32,-12.29l6.84 -0.54c0,-2.1 0.26,-10.73 -6.88,-7.79 -2.4,0.99 -5.68,4.82 -4.63,-0.69 0.54,-2.84 15.09,-9.03 15.09,6.26l0 17.67zm-21.04 -35.04c0,4.02 -4.47,4.09 -4.47,0.06 0,-4.03 4.47,-4.08 4.47,-0.06zm-0.41 35.01c0,1.26 -3.62,1.27 -3.62,0l0.36 -26.86c0.4,-0.21 3.25,-0.64 3.25,0.67l0 26.19zm-13.92 -18.43c-11.1,-18.52 -15.22,19.57 -4.43,15.32 6.47,-2.54 4.43,-11.72 4.43,-15.32zm3.62 18.43c0,1.29 -3.21,1.22 -3.21,0l0 -3.48c-10.2,14.82 -19.88,-7.13 -12.7,-20.04 2.41,-4.32 7.79,-6.28 12.29,-0.02 0,-3.2 -1.04,-15.6 0.92,-16.04 0.65,-0.14 2.7,-0.24 2.7,0.86l0 38.72zm-32.07 -7.15c0,11.21 -15.75,10.5 -13.76,2.53 0.45,-1.81 5.09,4.73 9.04,1.02 5.03,-4.72 -4.41,-8.64 -5.58,-9.47 -8.01,-5.69 0.09,-18.98 8.12,-13.22 1.86,1.33 1.57,5.53 0.05,4.23 -6.16,-5.28 -11.63,2.73 -4.68,6.36 4.82,2.52 6.8,3.92 6.8,8.55zm-21.44 -5.94c0,-15.79 -14.54,-13.47 -11.82,3.93 1.41,8.99 11.82,9.48 11.82,-3.93zm3.76 -0.31c0,22.24 -24.57,18.57 -19.02,-5.36 2.86,-12.32 19.02,-12.99 19.02,5.36zm-28.55 -5.03c-11.07,-18.51 -15.24,19.54 -4.42,15.32 6.45,-2.51 4.42,-11.76 4.42,-15.32zm3.62 18.43c0,1.28 -3.2,1.23 -3.2,0l0 -3.48c-10.29,14.82 -19.85,-7.17 -12.7,-20.04 2.4,-4.32 7.79,-6.28 12.28,-0.02 0,-3.24 -1.05,-15.59 0.93,-16.04 0.64,-0.15 2.7,-0.23 2.7,0.86l0 38.72zm140.79 16.24c0,-3.98 -9.06,-0.26 -9.06,6.91 0,3.12 9.06,0.54 9.06,-6.91zm11.88 9.23c0,13.78 -35.87,15.87 -29.29,-4.65 5.42,-16.9 31.27,-9.15 19.13,2.59 -2.61,2.53 -6.55,4.03 -11.48,3.18 0,8.04 14.86,9.65 18.53,-1.13 0.72,-2.1 3.12,-1.9 3.12,0zm-41.78 6.43c-1.34,-0.8 -2.45,-2 -3.32,-3.63 -0.73,0.85 -2.21,7.38 -8.16,7.38 -8.68,0 -11.43,-3.34 -11.68,-8.69l0.25 -14.95c0.14,-0.52 8.61,0.3 8.61,1.67 0,1.68 -1.69,17.93 2.92,17.93 6.39,0 6.95,-14.21 5.94,-15.42 -2.46,-2.96 8.04,-1.57 8.36,-1.49 3.43,0.87 -2.08,10.09 2.87,15.33 3.08,3.27 5.92,-3.4 8.41,-1.37 2.78,2.28 -6.9,7.09 -14.19,3.25zm-37.15 -17.15c0,-0.99 -14,-8.42 -13.24,10.87 0.15,3.8 3.6,11.67 8.51,1.01l4.74 -11.88zm9.77 1.79c0,2.35 -4.74,-2.56 -4.74,3.99 0,0.83 -1.26,25.98 1.56,25.52 2.98,-0.49 -2.45,2.54 -7.75,1.22 -2.96,-0.74 -2,-2.1 -1.56,-3.75l0.3 -13.22c-1.32,1.55 -2.02,6.55 -8.51,4.58 -3.94,-1.19 -8.48,-0.91 -9.16,-8.19 -0.79,-8.55 3.8,-20.07 22.1,-15.16 0,-4.56 7.77,-0.69 5.83,-0.27 -3.09,0.68 1.21,3.46 1.46,3.78 0.31,0.39 0.46,0.89 0.46,1.49zm-68.96 3.45c-2.47,2.82 -7.35,10.44 -7.35,13.7 0,0.68 -8.92,2.44 -9.52,-2.86l-0.56 -9.17c-2.05,0.5 -4.32,11.08 -4.32,13.4 0,1.68 -9.16,0.67 -9.77,-0.24l-0.05 -23.02 7.4 0.74 0 14.35c1.01,-2.41 3.5,-10.55 8.15,-10.93 8.85,-0.71 6.45,2.53 6.45,11.52l9.11 -13.28c1.12,-1.3 12.88,0.94 9.92,3.72 -2.52,2.36 -4.14,18.01 3.72,13.99 3.52,-1.8 4.72,-9.95 7.2,-7.59 2.09,1.98 -5.26,15.27 -15.93,10.63 -6.58,-2.86 -4.99,-10.67 -4.46,-14.98zm-41.68 -3.75c0,-3.97 -9.06,-0.28 -9.06,6.91 0,3.13 9.06,0.53 9.06,-6.91zm11.88 9.23c0,13.78 -35.87,15.87 -29.3,-4.65 5.42,-16.9 31.27,-9.16 19.13,2.59 -2.61,2.52 -6.54,4.03 -11.48,3.18 0,8 14.79,9.69 18.52,-1.13 0.72,-2.1 3.13,-1.9 3.13,0zm168.16 23.43c0,12.59 -11.12,7.63 -12,6.58 -0.58,-0.69 -5.47,-14.69 5.36,-14.69 6.3,0 6.63,3.55 6.63,8.11zm-1.2 99.24c0,3.58 -10.86,3.62 -10.86,0l0.23 -75.3c0.95,-1.92 10.63,-2.64 10.63,1.07l0 74.23zm-38.26 -44.37c0.48,-26.46 -19.95,-27.79 -27.63,-16.01 -3.04,4.66 -4.24,10.71 -4.4,16.01l32.03 0zm10.86 4.03c0,2.39 -0.77,5.93 -4.2,5.93l-38.68 0c0,8.37 0.66,27.01 19.19,27.01 16.76,0 22.29,-13.29 21.08,1.52 -0.39,4.75 -4.92,6.69 -14.27,8.67 -23.01,4.87 -32.46,-10.43 -35.35,-21.98 -3.37,-13.48 -5.02,-58.78 26.35,-58.78 24.56,0 25.89,27.05 25.89,37.62zm-60.64 -29.07c0,16.98 -7.11,-7.58 -19.41,12.89 -1.25,2.11 -2.66,4.67 -4.18,7.71l-0.27 49.95c-1.11,1.84 -10.58,2.59 -10.58,-1.13l0.2 -75.35c0.8,-1.82 9.6,-2.7 9.6,1.13l0 10.8c3.14,-5.81 9.77,-18.85 22.38,-13.22 2.92,1.31 2.26,4.28 2.26,7.23zm-61.69 32.31c0,-7.57 -0.43,-29.55 -18,-29.55 -23.08,0 -19.76,39.9 -14.47,50.06 6.89,13.22 32.47,15.51 32.47,-20.51zm11.26 -0.87c0,48.67 -39.56,48.54 -51.71,30.92 -11.3,-16.39 -12.99,-70.91 22.87,-70.91 26.6,0 28.84,27.98 28.84,39.99zm133.54 70.91c0,11.32 -16.69,10.38 -14.52,2.53 0.5,-1.8 5.36,4.73 9.55,1.02 3.63,-3.22 -0.05,-6.32 -3.99,-8.35 -11.67,-5.99 -1.94,-20.21 6.67,-14.34 1.95,1.33 1.66,5.52 0.06,4.23 -6.57,-5.27 -12.24,2.75 -4.94,6.36 4.99,2.47 7.18,3.84 7.18,8.55zm-23.79 -4.81c-4.97,0 -9.35,-0.23 -9.35,5.01 0,7.06 8.02,4.46 9.35,0.56l0 -5.57zm3.77 11.99c0,1.21 -3.27,1.23 -3.27,0l0 -2.62c-8.31,11.19 -19.5,-3.89 -11,-10.67 2.89,-2.3 6.44,-2.15 10.5,-2.15 0,-2.31 0.21,-10.7 -7.26,-7.79 -2.56,1 -6.01,4.8 -4.89,-0.69 0.58,-2.84 15.93,-9.04 15.93,6.25l0 17.67zm-21.06 -7.18c0,11.24 -16.61,10.47 -14.52,2.53 0.48,-1.81 5.34,4.73 9.55,1.02 3.64,-3.21 -0.07,-6.33 -3.99,-8.35 -11.64,-5.99 -2.02,-20.19 6.67,-14.34 1.95,1.31 1.66,5.52 0.05,4.23 -6.53,-5.28 -12.26,2.75 -4.94,6.36 5,2.47 7.18,3.85 7.18,8.55zm-19.61 -27.86c0,4.04 -4.73,4.09 -4.73,0.06 0,-4.03 4.73,-4.09 4.73,-0.06zm-0.43 35.01c0,1.25 -3.82,1.27 -3.82,0l0.38 -26.86c0.45,-0.22 3.44,-0.64 3.44,0.67l0 26.19zm-13.42 -13.09c0,-15.82 -15.37,-13.44 -12.48,3.93 1.5,9.01 12.48,9.48 12.48,-3.93zm3.96 -0.31c0,22.24 -25.93,18.58 -20.07,-5.36 3.02,-12.33 20.07,-13 20.07,5.36zm-23.91 9.37c0,6.55 -16.38,10.34 -16.38,-8.75 0,-21.52 19.33,-15.01 16.08,-7.97 -0.87,1.89 -2.09,-2.65 -6.43,-2.65 -10.05,0 -6.52,29.93 5.34,17.67 1.52,-1.57 1.39,1.02 1.39,1.7zm-29.91 -20.46c0,5.99 -2.49,-2.67 -6.84,4.55 -0.44,0.75 -0.94,1.65 -1.47,2.72 -0.72,2.97 1.59,17.66 -0.98,18.06 -0.98,0.15 -2.85,0.19 -2.85,-0.84l0.35 -26.87c0.33,-0.21 3.1,-0.67 3.1,0.68l0 3.81c3.45,-6.37 8.68,-6.81 8.68,-2.12zm-21.73 11.4c0,-15.82 -15.37,-13.44 -12.48,3.93 1.5,9.01 12.48,9.47 12.48,-3.93zm3.96 -0.31c0,22.2 -25.91,18.63 -20.07,-5.36 3,-12.31 20.07,-13.01 20.07,5.36zm-28.96 0.44c0,-16.55 -10.03,-9.42 -11.28,-5.29l0 10.41c1.12,3.61 9.11,9.77 10.98,-1.48 0.2,-1.2 0.3,-2.42 0.3,-3.64zm3.96 -0.56c0,12.05 -7.54,20.22 -15.25,10.8 0,3.17 1.06,13.65 -0.97,13.99 -0.93,0.15 -2.85,0.21 -2.85,-0.87l0.35 -37.28c0.33,-0.17 3.01,-0.66 3.01,0.7l0 3.5c7.78,-10.06 15.71,-3.6 15.71,9.16zm156.24 43.23c0,-15.81 -13.67,-13.42 -11.1,3.93 1.33,8.99 11.1,9.47 11.1,-3.93zm3.53 -0.31c0,22.15 -23.03,18.68 -17.86,-5.36 2.64,-12.26 17.86,-13.05 17.86,5.36zm-23.33 13.4c0,1.27 -3.39,1.27 -3.39,0 0,-3.48 1.44,-20.28 -2.17,-22.81 -3.46,-2.42 -6.8,4.13 -6.9,4.51 -0.75,2.75 1.51,18.73 -0.87,19.15 -0.91,0.16 -2.53,0.17 -2.53,-0.85l0.34 -39.54c0.34,-0.2 3.06,-0.68 3.06,0.7l0 15.65c5.11,-7.73 12.47,-5.17 12.47,7.25l0 15.95zm-22.06 0c0,1.27 -3.4,1.26 -3.4,0 0,-3.49 1.44,-20.28 -2.17,-22.81 -3.46,-2.42 -6.8,4.13 -6.9,4.51 -0.75,2.75 1.5,18.74 -0.86,19.15 -0.92,0.16 -2.54,0.17 -2.54,-0.85l0.31 -26.87c0.28,-0.2 2.76,-0.67 2.76,0.69l0 3.47c5.25,-8.37 12.8,-5.79 12.8,6.74l0 15.98zm-24.46 -15.65c0.19,-11.12 -9.79,-10.69 -10.04,0l10.04 0zm3.4 1.42c0,2.87 -0.57,2.09 -13.44,2.09 0,15.63 11.9,7.24 12.35,7.66 0.77,0.73 1.48,5.74 -6.67,5.74 -13.18,0 -11.89,-28.77 -0.35,-28.77 7.85,0 8.11,9.96 8.11,13.27zm-19.75 12.29c0,4.71 -8.77,5.66 -8.77,-5.71l0 -15.27c-1.45,0 -4.51,0.87 -3.09,-3.54l3.09 -0.45c0,-4.92 -1.24,-7.77 2.53,-7.09 1.61,0.29 0.87,4.83 0.87,7.09 2.79,0 7.02,-1.13 5.19,3.52l-5.19 0.47 0.56 18.63c1.68,4.15 4.81,-2.12 4.81,2.35zm-27.65 -13.71c0.18,-11.07 -9.75,-10.74 -10.04,0l10.04 0zm3.4 1.42c0,2.87 -0.57,2.09 -13.44,2.09 0,15.63 11.91,7.24 12.35,7.66 0.75,0.71 1.5,5.74 -6.66,5.74 -13.2,0 -11.89,-28.77 -0.36,-28.77 7.86,0 8.11,9.96 8.11,13.27zm-21.97 14.23c0,1.23 -3.08,1.3 -3.08,0l0 -3.46c-5.35,8.32 -12.84,5.7 -12.84,-6.85 0,-2.99 -1.01,-16.47 0.88,-16.74l2.52 0.86c0,3.7 -1.47,20.16 2.18,22.8 3.4,2.47 6.83,-4.13 6.93,-4.49 0.72,-2.58 -1.48,-18.83 0.87,-19.17l2.54 0.86 0 26.18zm-25.46 -18.43c-10.41,-18.5 -14.31,19.54 -4.16,15.32 5.89,-2.45 4.16,-11.99 4.16,-15.32zm3.4 28.82c0,1.28 -3.4,1.32 -3.4,0l0 -13.44c-10,14.07 -17.89,-8.43 -11.54,-20.48 2.92,-5.54 7.59,-5.45 11.93,0.5 0,-2.64 -0.81,-4.5 2.23,-4.02l0.78 0.86 0 36.58zm162.82 22.07c0,-2.61 -12.49,-2.6 -16.94,4.97 -1.83,3.11 -0.48,3.13 2.56,3.13 8.33,0 14.38,-3.95 14.38,-8.1zm23.25 9.23c0,13.68 -70.33,15.96 -57.33,-4.64 10.73,-17 60.91,-8.99 37.43,2.59 -6.17,3.05 -14.36,3.87 -22.46,3.18 0,2.84 1.11,4.35 8.18,5.75 8.9,1.76 22.93,0.83 28.07,-6.88 1.42,-2.13 6.11,-1.94 6.11,0zm-89.44 5.3c-19.29,5.11 -29.47,18.17 -12.41,18.17 14.54,0 12.41,-12.27 12.41,-18.17zm25.81 -2.32c0,1.33 -8.81,1.05 -10.04,1.01 0,5.29 1.45,13.41 -2.27,17.69 -5.3,6.1 -17.43,4.49 -25.71,4.35 -34.75,-0.59 -13.6,-17.01 12.41,-22.69l-0.29 -14.68c-0.85,-3.85 19.01,-1.11 19.01,-0.56 0,0.88 -3.55,-0.19 -3.55,5.9l0.2 7.86c2.15,-0.1 10.24,-0.01 10.24,1.13zm-5.12 -21.98c0,1.16 -15.24,2.87 -25.21,-1.67 -1.63,-0.74 -5.14,-1.44 6.4,-2.26 12.37,-0.89 18.81,3.93 18.81,3.93zm-58.11 21.14c-7.39,1.5 -20.97,1.21 -27.78,-0.23 -1.35,8.57 27.78,5.75 27.78,0.23zm0.98 -4.88c0,-16.03 -26.98,-9.71 -26.98,-2.09 0,7.39 26.98,3.99 26.98,3.22l0 -1.13zm22.26 -5.09c4.81,-2.55 10.24,3.47 -10.64,8.56 -2.9,15.1 -51.22,11.02 -55.35,1.63 -3.07,-6.96 11.02,-26.27 44.42,-15.46 6.46,2.09 10.73,3.43 10.73,10.61 7.78,-1.87 8.84,-4.44 10.84,-5.35zm-56.54 8.54c-2.07,8.71 -38.94,14.95 -41.67,0.48l-0.29 -8.46c-6.64,3.66 -12.87,11.07 -13.4,16.62 -25.3,1.54 -17.73,-1.59 -17.73,-3.4 0,-3.61 0.92,-34.68 -0.69,-35.37 -5.11,-2.19 17.03,-1.32 20.98,-0.84 -5.12,8.32 -5.28,21.76 -5.72,30.97 0,-0 10.63,-14.35 18.72,-14.35 9.26,0 8.87,0.72 15.27,3.04 1.56,0.57 -7.03,9.34 -2.27,15.3 2.49,3.12 14.84,2.14 18.61,-3.07 1.27,-1.75 1.71,-3.43 4.43,-3.43 3.58,0 4.15,0.9 3.74,2.5zm-117.69 -167.12l41.25 0c5.58,0 5.59,9.3 0,9.3l-41.25 0c-5.58,0 -5.58,-9.3 0,-9.3zm283.38 0l41.25 0c5.58,0 5.58,9.3 0,9.3l-41.25 0c-5.58,0 -5.58,-9.3 0,-9.3zm-239.35 -151.47c0,3.28 1.01,2.35 -15.44,2.35l-1.51 -2.31 0.48 -39.8c1.02,-1.09 15.81,-0.37 15.81,-0.37l-0.35 4.58 -11.9 0 0 13.35c7.95,0 13.05,-1.58 10.82,4.09 -0.38,0.96 -6.56,0.5 -10.82,0.5l0 15.23c13.7,0 12.9,-0.87 12.9,2.37z"/>
 </g>
</svg>
