<?xml version="1.0" encoding="UTF-8"?>
<!DOCTYPE svg PUBLIC "-//W3C//DTD SVG 1.1//EN" "http://www.w3.org/Graphics/SVG/1.1/DTD/svg11.dtd">
<!-- Creator: CorelDRAW -->
<svg xmlns="http://www.w3.org/2000/svg" xml:space="preserve" width="28.0706mm" height="37.4274mm" version="1.1" style="shape-rendering:geometricPrecision; text-rendering:geometricPrecision; image-rendering:optimizeQuality; fill-rule:evenodd; clip-rule:evenodd"
viewBox="0 0 406.56 542.08"
 xmlns:xlink="http://www.w3.org/1999/xlink"
 xmlns:xodm="http://www.corel.com/coreldraw/odm/2003">
 <defs>
  <style type="text/css">
   <![CDATA[
    .fil0 {fill:black}
   ]]>
  </style>
 </defs>
 <g id="Camada_x0020_1">
  <metadata id="CorelCorpID_0Corel-Layer"/>
  <path class="fil0" d="M104.21 335.09c0.71,-1.28 0.35,-0.72 1.31,-1.63l4.83 -4.54c9.38,-9.56 29.47,-37.47 37.72,-50.43l6.51 0.62c-0.06,1.13 -4.32,13.28 -5.17,16.11 -3.33,11.08 -10.58,36.74 1.37,42.82 3.71,1.89 4.46,0.94 7.63,-0.35 0.35,-1.07 1.41,-1.76 2.05,-2.56 0.76,-0.95 1.37,-2.49 2.14,-2.84 0.07,-0.91 0.34,-1.05 -0.35,-2.27 -3.06,1.03 -5.25,5.14 -9.84,3.7 -5.54,-10.3 7.3,-42.79 9.87,-52.32 3.24,0.3 5.72,2.39 8.79,3.5 -1.3,5.69 -12.08,18.76 -11.22,25.53 0.28,2.18 2.51,8.15 4.68,6.24l0.2 -0.64c0.84,-4.29 2.05,-5.56 5.07,-10.13 4.9,-7.42 17.21,-24.37 22.43,-27.51 -1.35,3.65 -12.28,20.66 -13.42,27.53 -0.66,3.98 1.98,9.77 4.77,9.28 1.05,-2.19 -0.81,-2.5 5.12,-10.94 4.2,-5.97 16,-23.35 21.58,-25.82 -0.87,2.62 -6.23,10.93 -7.82,13.82 -1.47,2.67 -6.83,11.95 -7.31,15.28 -0.53,3.62 1.48,6.95 2.75,8.52 2.43,3.01 4.23,1.62 6.47,-0.55 4.41,-4.27 7.78,-10.06 10.07,-11.76 -0.3,6.24 1.82,9.38 4.52,12.13 3.51,3.57 6.71,1.73 10.43,-0.72 8.38,-5.52 12.61,-11.82 16.41,-14.85 -0.89,2.45 -3.35,6.08 -3.05,9.62 0.25,3.05 2.59,8.35 4.74,6.8l0.25 -1.01c0.95,-5.93 9.23,-15.82 12.25,-19.99 3.73,-5.13 6.76,-9.34 11.2,-13.81 1.37,-1.38 2.88,-2.51 4.23,-3.92 -1.34,2.99 -3.22,5.92 -4.82,8.84 -1.71,3.12 -3.22,5.88 -4.88,9.18 -3.7,7.35 -5.44,10.84 -2.67,16.4 0.89,1.78 1.68,3.42 3.84,2.53 0.47,-1.85 -1,-0.86 1.57,-5.52 3.11,-5.62 6.29,-9.6 9.8,-14.6 3.17,-4.51 10.64,-13.98 14.97,-16.43 -0.93,2.82 -13.47,22.26 -14.97,28.33 -1.04,4.19 1.8,9.03 3.67,10.47 3.78,2.91 11.72,-8.82 14.27,-12.28l8.78 -12.34c1.04,-1.61 2.3,-2.81 2.17,-5.44 -2.87,-0.06 -15.68,19.52 -21.4,22.32 1.79,-7.94 15.81,-27.64 16.12,-28.8 0.63,-2.43 -1.92,-6.74 -2.84,-8.21 -2.26,-3.62 -3.83,-2.02 -6.39,0.3l-10.87 11.29c1.37,-4.11 3.95,-2.66 0.44,-9.21 -3.6,-6.71 -5.56,-4.83 -12.55,2.98 -1.44,1.61 -4.76,5.97 -6.11,6.82 1.03,-3.68 3.08,-4.25 1.17,-8.59 -1.15,-2.62 -2.54,-5.62 -5.24,-5.37 0.06,5.98 -1.46,8 -5.31,14.82 -3.84,6.81 -26.38,25.74 -33.2,25.17 0.09,-4.07 1.63,-7.98 3.18,-10.16 1.65,-0.97 4.51,-0.99 6.58,-1.72 5.21,-1.83 12.07,-6.49 16.16,-10.43 2.9,-2.79 7.3,-6.44 3.91,-13.26 -7.59,-15.28 -26.5,10.53 -30.23,15.01 -3.31,3.98 -14.18,17.34 -17.73,19.4 1.39,-7.7 15.97,-27.46 16.14,-29.68 0.17,-2.26 -2.41,-6.66 -3.29,-7.89 -2.27,-3.19 -4.68,-0.53 -6.7,1.39l-10.9 11.65c1.59,-3.89 4.55,-3.67 1.49,-9.51 -4.18,-7.96 -5.68,-5.35 -13.68,3.32 -2.21,2.4 -3.86,4.75 -6.15,7.15 0.94,-2.73 3.77,-5.1 2.31,-9.21 -0.93,-2.61 -2.88,-6.3 -5.51,-6.09 -0.05,7.61 -0.54,4.15 -3.63,11.86 -0.72,-0.19 -7.94,-4 -8.97,-4.69 1.51,-8.59 15.77,-34.05 15.78,-34.1 1.33,-4.58 -3.62,-9.55 -4.74,-11.8l-2.75 -0.32c-0.11,4.11 1.7,2.45 -3.81,10.74l-18.61 26.4c-3.97,5.1 -2.02,5.07 -8.88,5.1 -11.4,0.06 -21.94,3.21 -32.31,8.2 -12,5.76 -25.03,16.46 -29.02,29.36 -4.74,15.37 5.19,29.24 15.11,28.02 4.09,-0.5 7.19,-3.96 9.49,-4.35zm52.13 -59.79c-1.68,0.13 -4.06,-0.22 -5.1,-1.09l15.57 -23.14 -10.48 24.23zm71.08 20.11c0.94,-2.55 7.04,-9.28 8.81,-11.16 2.3,-2.42 7.21,-7.71 11.18,-7.84 -1.03,5.18 -13.91,17.05 -20,18.99zm55.3 180.79c-5.04,-1.63 -13.76,-4.22 -18.7,-5.19 -10.31,-2.01 -12.02,4.22 -19.22,-1.3 -4.01,-3.07 -4.31,-10.57 -5.5,-15.69 -1.38,-5.98 -3.24,-10.52 -4.95,-16.12 -1.78,-5.84 -1.25,-11.54 -3.48,-17.29 -4.51,-11.6 -14.25,-17.31 -19.07,-34.53 -0.68,-2.44 -0.54,-6.49 -2.31,-8.05 -3.78,-2.86 -8.82,2.55 -11.92,2.98 -1.66,-1.38 -2.8,-3.71 -4.56,-5.42 -2.96,-2.88 -13.45,-9.02 -17.67,-11.85 -5.19,-3.47 -12.72,-10.35 -18.31,-11.79 -4.59,-1.18 -5,0.48 -7.61,1.79 -4.48,-1.8 -4.85,-4.52 -9.77,-6.21 -11.39,-1.27 -7.94,8.92 -9.73,12.24 -2.64,4.9 -1.43,2.63 -1,8.3 0.25,3.37 -2.49,3.86 -3.66,8 -1.98,6.98 -0.8,12.57 1.36,18.61 1.2,3.34 -2.51,14.03 -3.14,18.16 -2.89,18.97 10.24,17.42 13.35,30.43 4.97,20.8 2.44,13.65 11.93,32.73 2.43,4.89 -12.41,11.16 -11.65,31.55 0.49,13.24 7.95,23.47 17.7,28.2 13.13,6.37 29.62,3.18 38.51,-3.32 14.46,-10.57 13.06,-21.49 15.85,-29.37 2.68,1.01 9.97,7.83 9.72,11.06 -0.36,4.48 -4.4,13.15 -3.5,17.29 0.01,0.01 28.5,13.65 35.24,10.04 2.78,-2.04 5.04,-13.89 6.26,-17.68 4.74,-14.7 9.5,-29.16 20.39,-41.21l4.92 -4.87c2.45,-2.72 0.52,-1.5 0.52,-1.51zm-128.01 -81.28c-1.85,-1.33 -5.55,-7.65 -7.46,-10.01 -2.35,-2.9 -4.92,-7.05 -11.64,-5.72 -3.93,1.58 -1.1,9.92 -6.9,11.64 -2.21,-3.41 -1.71,-14.79 0.63,-17.74 2.31,0.56 1.35,0.26 2.55,2.22l2.01 2.21c0.37,-5.93 -2.18,-13.83 -0.87,-14.73 6.49,-1.75 12.69,8.75 15.58,12.17 4.37,5.19 13.03,12.51 13.91,14.17 7.31,2.73 15.68,27.52 20.47,29.1 -0.36,-3.28 -5.98,-15.44 -7.6,-18.7 -6.45,-13.06 -16.08,-17.15 -25.79,-29.51 -5.69,-7.24 -5.09,-8.6 -16.49,-11.27 -0.26,-3.51 -0.06,-5.77 2.5,-7.74 6.13,-2.6 15.43,11.11 18.5,14.23 5.35,5.44 12.49,9.57 18.04,14.65 14.93,13.64 17.8,32.21 29.98,34.37 -0.84,-2.45 -4.26,-4.98 -6.13,-7.43 -6.76,-8.87 -7.49,-14.47 -16.27,-23.88 -5.7,-6.1 -27.76,-20.58 -27.94,-26.95 7.39,-3.09 9.07,2.11 20.07,9.08 5.48,3.47 14.36,9.18 18.24,12.93 8.4,8.1 8.21,17.33 17.52,28.04 2.12,2.43 5.27,5.99 8.63,7.28l-11.37 -17.48c-1.45,-2.6 -3.77,-6.73 -4.74,-9.61 -1.3,-3.85 2.67,-6.34 6.84,-6.03 1.18,1.49 2.55,10.09 3.52,13.08 4.93,15.07 15.54,20.44 17.65,32.68 0.86,4.99 0.3,9.94 2.27,14.12 1.91,4.04 3.64,7.13 4.93,11.49 1.18,3.96 2.42,8.95 2.93,13.02 0.97,7.72 0.81,5.09 6.3,8.94 0.82,0.58 0.4,0.21 1.01,0.85 -1.19,1.72 -9.74,8.31 -15.04,15.21 -3.34,4.34 -6.03,8.22 -8.15,13.48 -0.66,1.64 -1.11,3.5 -2.73,4.61 -2.23,-1.63 -4.47,-4.76 -6.88,-6.87 -9.81,-8.62 -13.79,-7.53 -24.19,-15.79 -22.57,-17.9 -20.42,-29.17 -29.59,-48.17 -4.52,-9.36 -25.3,-47.66 -19.66,-53.51 4.44,0.34 14.27,17.21 15.61,20.1 2.23,4.81 9.13,18.87 15.62,20.01 -1.12,-3.62 -6.03,-10.06 -8.35,-14.13 -1.39,-2.42 -7.29,-12.45 -7.54,-14.4zm2.32 45.22c4.74,10.37 2.57,14.12 11.62,28.72 5.9,9.52 12.85,15.86 20.61,21.34 2.29,1.61 4.27,2.74 6.94,4.12 2.7,1.39 4.19,2.04 2.35,5.63 -2.52,4.89 -6.25,8 -10.29,10.69 -8.88,5.91 -26.68,8.45 -28.82,-4.65 -1.24,-7.57 4.77,-7.38 2.83,-16.4 -1.04,-4.85 -5.46,-7.78 -8.62,-11.94 -15.08,-19.91 -11.62,-33.29 -17.49,-42.61 -2.7,-4.28 -7.63,-7.67 -8.67,-12.17 -1.13,-4.9 3.12,-29.71 5.61,-32.85 1.13,1.06 9.44,20.06 11.03,23.37 1.95,4.06 3.9,8.12 5.78,11.82 1.23,2.42 6,9.26 4.53,11.22 -3.28,-1.33 -10.61,-13.6 -12.64,-17.46 -1.09,-2.08 -1.61,-4.67 -3.66,-5.71 -1.06,6.03 4.27,12.19 6.85,16.04 9.07,13.58 3.49,6.84 1.64,14.25 3.37,-0.14 5.28,-3.23 10.42,-3.4zm-64.05 -262.65c-1.25,2.44 -6.43,12.24 -6.16,15.77 0.19,2.49 2.5,5.9 3.92,6.9 4.75,3.32 12.75,-12.25 15.85,-14.15 -1,11.86 7.84,21.08 21.27,8.79 5.57,-5.09 14.29,-16.82 16.28,-26.75l5.26 -0.35c-2.27,5.55 -16.19,16.97 -9.6,29.18 3.54,6.58 6.07,2.68 7.85,2.35 0.9,-1.61 2.1,-2.4 3.34,-3.6 1.15,-1.12 2.44,-2.44 3.53,-3.66 1.75,-1.95 4.71,-5.88 6.5,-7.38 -2.32,6.71 -4.6,7.55 -0.27,13.78 0.79,1.14 0.53,0.52 1.16,1.87 3.89,0.88 3.83,0.52 8.83,-5.12 1.98,-2.22 5.53,-7.59 7.46,-8.88 -0.78,10.06 5.55,14.89 10.5,14.51 11.18,-1.44 23.74,-19.65 27.14,-32.81 2.78,-0.05 10.77,0.32 10.52,-3.37l-10.56 -0.12c-0.55,-3.89 -1.8,-7.19 -3.79,-9.51 -3.39,-3.95 -8.62,-0.85 -11.76,2.2 -2.33,2.27 -4.57,2.07 -10.33,8.23 -4.48,4.8 -17.33,23.28 -23.72,26.93 0.96,-5.13 22.78,-44.33 26.95,-51.73 1.41,-2.51 4.2,-6.07 3.08,-9.43 -1.11,-3.32 -3.2,-7.33 -6.08,-7.42 0.48,6.56 -2.91,11.5 -6.31,18.14 -2.14,4.18 -6.73,13.67 -8.65,15.69 -4.57,-7.18 -9.17,-4.57 -15.06,-0.18 -6.93,5.17 -5.19,8.43 -16.02,6.87 -1.82,-12.38 -8.58,-13.72 -15.4,-7.2 -4,3.82 -6.55,2.32 -15.81,15.03 -3,4.12 -15.43,18.78 -18.23,19.94 1.38,-6.12 17.98,-34.72 22.46,-43.44 2.45,-4.76 1.86,-4.57 7.22,-4.98l20.53 -0.31c2.77,-0.71 -2.45,1.54 1,-0.52 0.09,-0.05 0.22,-0.15 0.31,-0.25 -0.62,-1.07 0.05,-0.32 -0.95,-1.03 -1.49,-1.06 -7.87,-2.14 -9.55,-2.4 -4.13,-0.63 -8.15,-0.87 -12.33,-1.05 0.25,-3.53 3.52,-2.59 0.62,-8.48 -1.16,-2.36 -2.49,-6.08 -5.5,-5.7 0.36,5.02 0.23,4.89 -2.7,11.01 -1.07,2.24 -1.05,3.23 -3.16,3.73 -1.77,0.41 -3.13,0.52 -4.99,1.16 -9.52,3.29 -10.86,12.07 -2.29,14.29 -1.04,3.67 -9.82,18.6 -12.37,23.49zm11.25 -27.07c0.7,-1.92 2.76,-2.71 4.88,-3.37 -0.58,2.28 -1.68,3.37 -2.47,5.26 -1.38,-0.58 -1.56,-0.83 -2.41,-1.88zm40.09 42.55c0.9,-5.14 9.55,-17.38 11.91,-20.57 2.26,-3.06 11.03,-14.7 16.53,-13.6 0.8,7.71 -20.44,31.3 -28.43,34.17zm-10.69 -31.81c0.13,-2.25 2.1,-4.88 4.1,-4.5 2.35,0.45 1.66,4.97 0.86,6.78 -2.28,-0.1 -3.6,-0.69 -4.95,-2.28zm71.68 0c0.23,-3.23 2.65,-5.27 5.08,-4.07 0.63,1.71 0.72,3.92 0.05,6.14 -2.13,0.42 -3.94,-0.59 -5.13,-2.07zm-93.06 34.13c-1.14,-6.39 6.32,-17.28 8.3,-19.96 8.41,-11.39 9.98,-8.63 16.32,-7.67 0.13,4.6 -18.5,30.45 -24.62,27.64zm71.7 0.11c-1.69,-7.22 8.69,-22.15 14.88,-27.19 3.71,-3.02 5.2,-1.23 9.85,-0.53 -0.39,5.02 -18.38,29.84 -24.73,27.72zm194.4 -26.17c-0.95,2.77 -7.63,10.36 -9.71,12.51 -2.09,2.17 -7.73,9.25 -10.53,10.59 0.93,-3.6 4.33,-8.96 6.05,-11.82 5.82,-9.72 5.06,-5.67 3.26,-12.11 0.51,-0.7 -0.16,0.1 0.67,-0.83l2.09 -1.7c1.15,-4.55 0.91,-7.34 -2.21,-10.43 -13.93,-13.84 -37.75,31.39 -48.27,36.85 0.71,-4.37 8.34,-16.67 10.49,-20.11 0.87,-1.39 5.43,-8.04 5.61,-9.13 0.52,-3.04 -3.53,-8.76 -4.93,-9.72 -3.35,-1.1 -14.24,13.6 -16.81,15.52l3.63 -5.63c-0.13,-3.38 -2.25,-7.09 -3.58,-8.59 -2.35,-2.67 -4.9,0.38 -6.49,1.91 -1.99,1.91 -3.53,3.68 -5.47,5.77 -1.88,2.04 -3.4,4.6 -5.32,6.02 1.13,-3.14 3.52,-4.61 2.03,-8.68 -0.88,-2.43 -2.65,-5.78 -5.11,-6.12 -0.48,2.73 -0.08,3.11 -1.09,5.67 -0.85,2.15 -1.09,2.95 -2.25,4.03 -0.21,2.21 -3.47,7.04 -4.5,8.88 -1.83,3.24 -8.68,15.08 -9.22,18.67 -0.4,2.74 1.32,9.78 4.76,9.08 0.87,-2.22 -0.39,-0.9 0.5,-3.37l4.37 -7.25 0.96 -0.97 2.4 -3.95c1,-1.56 1.21,-1.85 2.51,-3.45 1.8,-2.22 3.28,-4.54 5.04,-6.85 2.09,-2.73 8.61,-10.89 11.62,-12.47 -1.22,3.63 -13.28,22.25 -13.42,28.65 -0.06,2.98 2.82,9.48 4.89,7.67l0.82 -3.14c1.91,-5.78 20.21,-30.36 25.78,-33.19l-10.09 18.01c-4.61,8.16 -6.72,11.94 -2.89,18.33l1.55 2.38c3.84,0.54 3.84,0.27 7.72,-4.05 1.67,-1.86 4.66,-6.05 6.15,-7.08 0.13,4.94 1.76,7.97 3.7,10.09 2.95,3.2 5.59,0.1 7.89,-2.02l12.62 -13.47c-1.07,2.25 -3.97,5.82 -3.17,9.8 0.59,2.93 3.36,7.56 6.09,7.19 3.45,-0.47 10.86,-12.25 13.12,-13.79 -0.62,2.73 -2.17,4.79 -1.16,7.83 0.58,1.74 2.58,5.01 4.02,5.69 4.17,1.98 14.64,-14.24 18.02,-18.55 1.72,-2.19 2.36,-3.41 3.77,-5.42 1.18,-1.68 3.16,-3.79 2.92,-6.53 -2.88,0.24 -16.65,19.91 -21.31,22.33 0.81,-4.37 23.07,-45.32 24.68,-46.59 0.13,-0.82 0.02,-0.61 0.41,-1.41 0.54,-1.11 0.77,-0.98 0.87,-1.06 0.95,-2.99 5.11,-7.9 4.71,-10.91 -0.12,-0.87 -2.86,-9.03 -6.58,-8.56 0.39,3.94 0.36,3.86 -1.06,7.51 -0.77,1.97 -1.86,4.04 -2.73,5.73 -5.51,10.66 -10.96,19.79 -16.31,29.91l-1.51 2.32zm-42.46 23.75c1.24,-7.54 16.59,-26.92 23.76,-31.86 4.33,-2.98 9.5,-5.85 6.25,4 -1.55,-0.25 -0.74,-0.8 -2.66,-0.71 -1.06,2.81 -0.21,2.98 -2.17,5.31 -5.63,6.72 -18.6,20.65 -25.18,23.26zm13 -141.61c-2.6,3.78 -18.07,22.52 -21.26,23.83 1.19,-5.35 8.57,-16.99 11.65,-21.78 1.7,-2.65 2.44,-4.63 4.61,-6.48 -0.37,-2.06 -0.26,-3.16 -1.16,-5.11 -3.43,-7.42 -4.87,-6.52 -8.83,-2.71l-11.34 12.06c1.8,-3.29 4.62,-4.04 2.06,-9.4 -1.39,-2.91 -3.25,-6.84 -6.41,-4.63 -4.53,3.17 -10.12,11.14 -12.74,13.14 1,-3.93 3.24,-3.89 0.87,-8.89 -1.07,-2.27 -2.58,-5.28 -4.9,-4.94 -0.48,3.58 0.69,2.64 -1.33,7.03l-8.91 16.31c-1.79,3.27 -4.31,7.61 -5.85,11.52 -1.79,4.55 0.38,11.84 4.1,11.49 0.97,-2.68 -1.08,-1.01 2.16,-6.38 4.35,-7.19 20.13,-29.94 25.06,-31.67 -0.98,3.25 -12.99,21.58 -13.22,28.24 -0.17,5.01 4.37,10.12 5.01,7.47l0.2 -0.84c1.36,-6.29 8.24,-14.62 11.55,-19.05 2.92,-3.91 9.86,-13.62 14.7,-16.13 -0.78,2.14 -2.95,5.37 -4.06,7.29 -2.36,4.07 -10.57,18.13 -10.97,21.89 -0.22,2.09 2.23,14.68 9.33,7.58l10.02 -11.53c-0.32,4.62 0.71,6.84 2.38,9.36 1.11,1.67 3.34,4.49 5.84,4.66 7.88,0.53 31.88,-25.3 32.63,-29.86 -1.69,-1.98 -3.71,1.76 -7.61,5.36 -2.53,2.33 -5.28,4.73 -8.13,6.94 -3.77,2.94 -13.36,10.87 -18.49,10.37 -0.27,-3.69 1.98,-8.46 3.21,-10.58 6.57,-0.59 12.38,-3.6 17.13,-7.15 4.5,-3.36 12.16,-8.74 10.27,-15.62 -2.39,-8.69 -8.85,-7.9 -14.91,-4.02 -5.95,3.81 -8.37,7.47 -12.68,12.22zm3.55 9.75c0.99,-2.82 6.45,-8.79 8.67,-11.18 2.74,-2.96 6.83,-7.06 11.11,-7.82 -1.48,5.98 -14.14,17.21 -19.78,19zm-314.93 96.27c-2.94,-3.35 -4.2,-5.72 -9.5,-3.56 -9.85,4 -28.65,26.72 -27.98,37.33 0.26,4.12 3.82,10.18 7,9.4 3.64,-0.89 12.91,-12.58 16.18,-15.95 -0.92,2.89 -3.56,6.43 -2.3,10.2 0.87,2.63 3.79,7.29 6.88,5.47 3.34,-1.96 9.62,-11.52 12.15,-13.78 -0.31,4.64 0.3,6.32 2.08,9.15 1.09,1.72 3.16,4.55 5.55,5.1 5.92,1.35 19.78,-13.21 24.05,-17.62 1.87,-1.93 3.25,-3.77 4.97,-5.91 1.4,-1.75 4.05,-3.83 4.04,-6.96 -2.06,-0.22 -2.82,1.38 -4.33,2.94 -6.11,6.29 -23.36,21.05 -29.62,20.43 -0.67,-3.71 1.87,-8.47 3.02,-10.61 9.12,-0.79 17.68,-6.83 23.19,-12.22 3.01,-2.94 6.89,-6.82 3.01,-13.42 -2.87,-4.88 -6.7,-5.14 -11.53,-2.43 -9,5.05 -13.1,11.73 -18.44,18.3 -3.56,4.38 -13.82,16.76 -17.54,19.09 0.96,-5.47 15.15,-29.92 17.9,-35.22 2.97,-5.73 6.15,-11.23 9.25,-16.9 1.54,-2.81 4.21,-5.78 2.77,-9.47 -1.24,-3.15 -2.9,-6.93 -5.98,-7.12 0.56,6.6 -11.06,29.29 -14.82,33.76zm-31.05 35.65c0.43,-4.45 9.72,-17.63 11.76,-20.42 2.18,-2.97 11.07,-14.89 16.74,-13.82 0.25,2.54 -3.84,9.35 -4.94,11.15 -4.16,6.82 -17.81,21.13 -23.56,23.1zm46.45 -14.79c1.14,-2.83 6.59,-8.79 8.62,-10.97 2.54,-2.71 6.94,-7.47 11.35,-8 -1.41,5.6 -13.94,17.21 -19.97,18.96zm62 -76.93c0.16,-6.18 -2.77,-13.46 -5.52,-15.36 -3.04,-2.09 -10.2,-3.11 -13.84,-3.33 -5.66,-0.34 -11.33,-0.25 -17,-0.03 -5.03,0.19 -10.07,1.44 -15.06,1.83 0.83,-2.08 3.48,-5.02 5.01,-7.04 3.34,-4.4 11.44,-17.24 14.11,-21.92 8.38,-14.68 17.49,-32.67 27.77,-43.89 1.79,-1.95 11.55,-10.99 12.63,-2.21 0.85,6.95 -8.09,19.83 -11.67,24.71 -1.73,2.35 -4.11,5.2 -3.79,7.54 3.06,0.41 30.05,-21.1 17.82,-36.35 -3.26,-4.07 -7.11,-5.83 -13,-5.15 -5.92,3.46 -6.38,2.94 -11.95,9.75 -14.79,18.09 -31.52,60.23 -43.73,72.74 -6.99,7.17 -19.53,3.97 -22.38,16.24 -3.01,12.97 16.52,-1.9 18.67,-3.44 3.8,-2.72 3.91,-3.47 9.09,-4.69 3.73,-0.88 7.45,-1.32 11.37,-1.48 7.66,-0.31 31.68,0.56 38.21,7.71 0.8,0.87 0.8,1.06 1.4,2.3 1.09,2.25 0.1,1.47 1.87,2.06zm88.4 -33.69c-1.08,3.06 -3.71,5.73 -2.12,10.19 0.81,2.28 3.65,6.93 6.49,5.55 3.47,-1.68 10.36,-12.01 12.03,-13.27 -0.76,2.52 -2.18,4.39 -1.12,7.67 0.56,1.72 2.62,4.8 3.88,5.46 4.02,2.11 11.47,-9.49 13.99,-12.91 1.53,-2.07 11.9,-14.96 10.67,-16.91 -0.51,-0.81 -0.35,-1.48 -2.68,1.49 -3.3,4.21 -15.12,18.51 -18.5,20.5 0.58,-5.98 14.62,-26.91 14.94,-29.96 0.22,-2.09 -1.12,-4.47 -1.89,-5.8 -0.99,-1.72 -1.98,-3.33 -3.94,-3.24 -0.81,5.38 1.24,2.31 -4.07,12.25 -2.76,5.17 -3.5,5.96 -6.72,9.83 -3.79,4.55 -11.56,13.82 -15.69,16.88 0.63,-4 7.09,-13.47 9.34,-16.94 2.02,-3.11 0.85,-3.52 -0.03,-7.21 1.35,-1.72 3.44,-2.6 3.53,-5.69 0.15,-5.65 -5.98,-13.17 -15.02,-7.93 -3.9,2.26 -6.7,4.98 -9.78,7.89 -4.64,4.38 -12.39,14.72 -15.31,21.86 -2.62,6.41 -0.82,11.74 2.34,14.95 3.4,3.44 8.48,-2.72 10.7,-5.04l8.98 -9.61zm13.01 -19.56c-1.75,-0.36 -0.78,-0.84 -2.72,-0.77 -1.5,5.06 -0.17,2.86 -5.15,9.06 -3.67,4.56 -18.25,18.33 -22.18,19.49 1.55,-7.64 16.7,-27.02 23.57,-31.64 1.37,-0.92 4.07,-2.7 5.81,-2.78 3.57,-0.16 1.36,4.59 0.68,6.64zm-51.48 -7.54c-0.69,-3.72 -2.93,-8.17 -5.81,-8.61 0.16,4.46 1.04,3.63 -0.39,8.79 -3.23,11.66 -19.5,37.28 -24.6,37.19 -0.25,-5.4 9.15,-23.38 12.12,-28.69 0.96,-1.72 2.56,-3.22 2.06,-5.4 -0.61,-2.65 -4.41,-8.58 -6.82,-7.74 -0.43,0.4 -0.14,0.9 -0.15,1.84 -0.02,1.02 0.37,-0.65 -0.08,1.61l-6.74 14.51c-1.5,2.48 -16.54,19.68 -19.26,21.22 1.17,-5.58 7.96,-16.45 10.22,-20.64 1.05,-1.95 4.94,-7.69 4.78,-10.06 -0.06,-0.86 -2.5,-8.69 -5.95,-8.06 -0.34,2.66 0.72,1.88 -0.79,5.66 -1.52,3.82 -4.79,9.39 -6.91,13.24 -5.27,9.6 -13.92,21.48 -4.98,27.77 4.71,3.31 14.93,-15.46 18.56,-18.29 -1.14,3.64 -3,8.04 -1.31,12.73 1,2.77 3.7,7.37 7.43,5.23 4.38,-2.52 16.11,-16.93 19.73,-22.31 3.42,-5.09 10.07,-13.63 8.9,-19.98zm95.88 141.19c0.41,-1.71 2.27,-4.41 3.16,-6.39 1.24,-2.75 1.63,-4.55 2.52,-7.41l8.62 -0.46 1.29 -1.27c0.68,-0.98 0.29,0.42 0.57,-1.42 -1.75,-1.34 -7.72,-0.14 -10.38,-0.57 -2.01,-4.41 -3.29,-18.47 -16.18,-6.67 -1.04,0.95 -1.47,1.05 -2.64,1.73 -6.71,3.88 -13.53,13.25 -16.8,20.43 -7.15,15.72 4.48,23.36 11.49,20.3 5.41,-2.36 10.75,-7.77 14.33,-12.82 0.75,-1.07 2.8,-4.16 3.48,-4.91l0.53 -0.54zm-4.92 -20.58c0.25,-2.96 2.19,-5.07 4.85,-4.27 1.34,2.65 0.72,3.64 0.39,6.59 -2.37,-0.1 -3.91,-0.58 -5.24,-2.31zm3.35 6.58c-0.08,3.59 -8.96,14.66 -10.61,17.03 -0.35,0.5 -12.56,15.25 -14.27,9.9 -1.52,-4.75 7.37,-17.95 8.76,-19.73 7.66,-9.82 8.59,-8.81 16.12,-7.19zm-88.35 -131.24c-0.52,6.64 0.4,3.97 -4.26,12.62 -2.46,4.56 -10.06,18.57 -11.78,22.86 -1.69,4.2 0.77,11.5 4.35,10.75 0.81,-2.15 0.11,-5.08 5.5,-13.93 3.36,-5.52 19.21,-28.28 25.31,-23.3 0.92,0.75 1.03,2.3 1.57,3.37 3.35,-2.57 2.63,-17.6 -4.17,-12.48 -4.52,3.4 -8.5,9.21 -10.89,10.86 1.35,-4.91 -2.91,-11.24 -5.63,-10.77zm149 259.62c1.12,-2.39 -1.42,-0.77 4.66,-12.69l18.09 -34.12c-0.68,-3.66 -4.17,-9.6 -6.83,-9.61 -0.61,3.23 1.33,0.58 -1.47,7.82 -3.33,8.6 -17.46,36.36 -18.23,42.4 -0.44,3.4 1.38,6.25 3.79,6.2zm-66.33 -232.97c2.57,-0.47 1.98,-7.96 23.29,-8.69 1.71,-0.06 3.43,-0.07 5.14,0.01 1.62,0.08 3.65,0.63 4.95,-0.67 -1.43,-4.79 -16.28,-6.08 -20.74,-5.86 -3.89,0.19 -7.76,0.47 -9.57,3.69 -1.27,2.27 -4.29,8.63 -3.06,11.52zm-18.71 204c1.73,0.73 19.1,-2.41 20.53,-9.65 0.82,-4.17 0.42,-8.57 -2.21,-9.27 -1.11,2.5 0.56,2.05 -3.5,6.33 -4.35,4.59 -7.99,7.15 -13.08,9.8 -1.37,0.72 -1.9,0.62 -1.74,2.79zm158.36 -65.42c-0.48,3.75 -5.61,8.79 -6.06,11.7 3.47,0.96 8.24,-5.94 11.43,-9.62 0.9,-1.03 0.59,-0.92 1.51,-1.39 1.27,-3.1 4.02,-3.99 2.57,-8.94 -0.91,-3.08 -2.46,-6.42 -5.27,-6.26 0.02,2.5 0.87,0.99 0.41,4.17 -0.36,2.5 -3.07,8.88 -4.6,10.36zm-153.24 -168.46c2.21,1.25 3.68,-1.48 5.15,-3.01 4.77,-4.96 6.44,-5.99 3.18,-12.1 -1.11,-2.07 -2.34,-4 -5.16,-3.96 0.62,3.65 1.41,3.24 -0.83,10.31 -0.84,2.64 -2.85,5.94 -2.35,8.75zm-110.72 0.21c2.36,0.69 3.78,-1.78 5.22,-3.36 1.26,-1.39 3.51,-3.43 4.26,-4.8 1.92,-3.53 -2.56,-11.57 -6.38,-10.97 0.24,1.76 0.89,2.4 0.53,4.88 -0.27,1.8 -0.67,3.18 -1.14,4.78 -0.75,2.57 -3,6.51 -2.48,9.48zm183.4 285.73c0.2,-5.33 0.91,-6.48 2.93,-10.27 1.8,-3.37 -2.15,-7.15 -4.55,-5.98 -1.65,0.8 -3.91,5.46 -3.88,9.1 0.03,3.29 2.69,7.35 5.49,7.15zm-170.36 -41.01c-0.68,1.94 -4.43,6.44 -6.01,8.43 -2.07,2.61 -3.49,4.5 -6.09,8.07 -3.85,5.28 -8.72,10.52 -13.03,15.56 -34.17,40.03 -40.85,14.45 -27.03,-2.34 2.39,-2.91 3.69,-4.86 6.42,-7.64 11.06,-11.26 29.63,-23.08 45.75,-22.08z"/>
 </g>
</svg>
