<?xml version="1.0" encoding="UTF-8"?>
<!DOCTYPE svg PUBLIC "-//W3C//DTD SVG 1.1//EN" "http://www.w3.org/Graphics/SVG/1.1/DTD/svg11.dtd">
<!-- Creator: CorelDRAW -->
<svg xmlns="http://www.w3.org/2000/svg" xml:space="preserve" width="471.313mm" height="433.203mm" version="1.1" style="shape-rendering:geometricPrecision; text-rendering:geometricPrecision; image-rendering:optimizeQuality; fill-rule:evenodd; clip-rule:evenodd"
viewBox="0 0 19757.09 18159.56"
 xmlns:xlink="http://www.w3.org/1999/xlink"
 xmlns:xodm="http://www.corel.com/coreldraw/odm/2003">
 <defs>
  <style type="text/css">
   <![CDATA[
    .fil0 {fill:black}
    .fil1 {fill:#D9D9D9}
    .fil2 {fill:red}
   ]]>
  </style>
 </defs>
 <g id="Camada_x0020_1">
  <metadata id="CorelCorpID_0Corel-Layer"/>
  <path class="fil0" d="M14199.65 1647.1c52.28,-49.36 98.95,-61.4 167.2,-84.52 146.48,-49.62 557.57,-144.21 631.74,-276.29 20.24,-36.05 8.56,-60.94 -17.61,-88.4 -75.23,-69.72 -150.65,-1.48 -247.09,-5.78 -626.97,-28 -1253.03,-27.6 -1880.33,-35.83 -143.49,-1.91 -254.78,-62.15 -294.53,-207.42 -50.16,-183.28 78.45,-279.66 211.61,-374.03 237.85,-166.26 500.17,-247.06 748.57,-384.23 48.49,-26.77 137.94,-94.1 78.26,-153.94 -57.45,-57.61 -220.94,-31.45 -297.08,-26.05 -3292.6,292.11 -6586.64,626.82 -9879.24,918.92 -93.19,15.11 -186.71,27.91 -280.3,40.23 -360.79,47.49 -674.48,84.84 -1022.91,204.98 -351.15,121.14 -684.82,244.47 -1030.56,380.21 -166.39,65.33 -325.88,127.31 -491.2,196.48 -158.1,66.14 -325.28,112.42 -474.78,197.86 -197.49,119.28 -132.7,264.58 41.79,368.44 273.4,158.07 546.85,308.79 820.24,466.87 7.24,4.19 12.68,9.08 17.62,15.83 820.63,1120.52 1710.34,2197.27 2526.6,3316.3 371.86,532.34 476.26,1339.72 602.66,1976.51 90.48,455.86 175.58,912.8 261.63,1369.51 152.72,809.52 289.12,1632.91 423.36,2445.7 4.59,52.61 80.63,132.91 140.27,134.55 55.25,1.52 108.27,-73.17 109.8,-126.97 16.56,-162.32 18.51,-321.42 27.96,-484.23 14.89,-256.63 27.14,-522.36 38.62,-779.16 29.65,-663.04 65.84,-1326.35 89.54,-1989.62 22.24,-632.55 44.84,-1278.59 57.16,-1910.83 9.08,-1015.94 -335.39,-1237.96 -1000.21,-1916.62 -761.37,-776.75 -1568.32,-1516.47 -2372.89,-2248.31 -64.87,-59.01 -174,-135.71 -208.9,-211.89 -81.96,-178.85 148.46,-184.42 264.48,-191.84 1.85,-0.13 3.42,-0.16 5.27,-0.11 2046.46,50.74 4090.6,69.69 6137.72,76.41 1593.82,5.28 3177.66,7.64 4771.58,-27.8 673.92,-14.99 622.03,34.97 1141.53,-417.87 62.21,-54.22 122.36,-110.46 182.41,-167.04z"/>
  <path class="fil0" d="M5464.17 4885.3c-169.72,-44.77 412.25,-432.54 296.13,-500.91 -83.98,-64.05 -595.33,-208.57 -720.35,-243.37 -92.3,-25.7 -181.58,-56.87 -264.09,-106.45 -83.36,-50.09 -138.46,-120.69 -34.19,-183.03 53.01,-31.69 140.75,16.14 201.54,11.39 648.21,-50.66 1299.2,-68.63 1948.63,-98.35 1.84,-0.08 3.42,-0.23 5.24,-0.49 77.23,-10.66 146.33,-51.66 191.63,-115.22 40.88,-57.35 61.52,-166.62 43.96,-235.82 -9.44,-37.2 -28.84,-70.24 -56.59,-96.75 -208.55,-199.21 -453.43,-285.67 -710.61,-396.05 -88.06,-37.79 -175.96,-76.86 -260.96,-121.21 -26.46,-22.11 -69.07,-61.39 -61.28,-97.55 22.08,-102.61 240.08,-70.62 315.03,-68.79 3309.69,189.98 6622.16,422.62 9931.86,612.6 93.89,12.24 188.04,22.15 282.23,31.57 363.1,36.33 678.83,64 1031.8,173.53 427.45,133.07 867.51,281.75 1287.97,435.48 144.35,52.77 281.21,104.84 427.52,153.46 117.74,39.13 419.35,128.7 436.57,274.88 11.15,94.72 -87.35,173.76 -156.89,220.89 -235.83,145.55 -475.2,285.42 -710.96,430.37 -155.12,95.37 -176.36,169.94 -274.91,313.75 -286.12,417.53 -584.74,826.53 -881.84,1236.26l-8.77 12.09c-461.85,636.98 -926.79,1271.47 -1374.95,1918.25 -328.81,474.96 -409.17,1204.83 -506.18,1772.84 -91.54,536.02 -174.17,1073.58 -258.21,1610.81 -127.8,816.26 -238.82,1645.9 -348.01,2464.84 -2.95,52.88 -76.67,135.75 -136.4,139.26 -55.34,3.24 -110.82,-69.97 -114.03,-123.85 -21.67,-162.19 -28.59,-321.62 -43.16,-484.53 -22.94,-256.79 -43.52,-522.77 -63.05,-779.84 -50.43,-663.72 -107.43,-1327.5 -151.91,-1991.64 -41.36,-617.59 -72.84,-1238.54 -113.69,-1856.16 -30.55,-520.06 0.21,-946.2 354.6,-1350.81 904.07,-1031.05 1885.39,-2016.74 2873.26,-2967.72 78.52,-75.59 230.03,-183.77 237.77,-295.13 9.08,-130.73 -199.2,-124.81 -286.05,-127.2 -1.85,-0.07 -3.44,-0.05 -5.29,0.05 -2049.82,114.78 -4100.11,151.63 -6151.98,222.29 -1794.09,40.49 -4342.54,173.2 -6171.4,206.25l-0.01 0z"/>
  <path class="fil1" d="M19568.88 4222.9l-2273.78 119.29 -3669.46 128.14 -5197.19 205.42 -1679.92 47.68 -1111.25 52.17 444.72 -498.02 -304.9 -16.69 -737.94 -203.45c-72.22,-20.46 -214.07,-70.47 -269.12,-128.24 33.02,-26.08 86.04,18.49 179.41,13.62 657.95,-17.18 1325.33,-34.73 1941.75,-61.92l997.17 232.63 727.81 -318.52 -2483.29 -1078.93c55.91,-16.8 162.55,-5.68 220.77,-3.35 3310.52,190.02 6618.45,422.38 9928.98,612.42 93.72,12.17 187.71,22.06 281.74,31.47 356.33,35.65 669.83,62.9 1016.01,170.33 350.04,108.61 667.4,212.28 1012.49,337.41 161.88,58.7 327.08,108.97 485.97,175.66 141.72,59.49 361.69,118.3 490.04,182.87l0 0z"/>
  <path class="fil2" d="M6882.4 2743.43l3101.42 1120.02 2922.3 -78.31 5144.43 -108.84c-676.66,-222.55 -774.8,-248.5 -1486.17,-319.68 -94.02,-9.41 -188.02,-19.3 -281.74,-31.47 -3134.28,-179.93 -6266.22,-397.78 -9400.24,-581.72zm6691.03 1145.98l4872.59 -77.73c49.01,17.39 97.97,34.95 146.86,52.68 161.88,58.7 327.08,108.97 485.97,175.66 89.33,37.49 186.88,67.56 278.93,99.57l-5604.05 121.79 -180.3 -371.97z"/>
  <path class="fil1" d="M6237.58 4196.68l-395.32 1.85 -877.55 -220.02c3213.63,-174.41 6432.21,-264.14 9647.42,-423.38 150.58,-7.46 292.47,-6.16 442.86,-3.78 -138.84,75.69 -244.45,136.52 -392.15,198.73 -412.17,173.57 -430.16,384.24 -742.72,594.33 -164.71,84.53 -486.48,114.64 -673.83,127.98 -423.27,23.89 -838.62,33.04 -1262.07,41.35 -299.76,5.89 -614.72,26.2 -915.89,39.49 -78.28,3.45 -156.55,6.9 -234.83,10.36 -351.22,20.55 -712.09,36.9 -1078.49,50.99l-552.04 -240.31 -342.56 99.21 -156.95 176.78c-929.8,28.94 -1870.24,55.5 -2758.49,110.05l-194.37 9.7 486.98 -573.33z"/>
  <path class="fil1" d="M15111.22 14149.51c124.18,-1153.53 337.72,-2061.64 510.46,-3081.8 22.5,-142.24 45.23,-284.45 68.39,-426.59 37.54,-249.53 71.81,-508.02 101.11,-780.18 92.44,-1005.03 129.43,-1145.3 869.15,-2053.17 601.98,-761.69 1109.93,-1732.9 1711.91,-2494.6 361.49,-440.84 344.64,-482.87 772.66,-687.41 229.51,-116.36 372.23,-194.4 526.08,-271.4 4.96,-11 7.31,-21.79 5.87,-31.92 -0.43,-3.03 -1.2,-6.06 -2.26,-9.08l-726.43 278.61c-428.02,204.55 -411.16,246.58 -772.66,687.41 -601.98,761.69 -1188.25,1546.46 -1790.23,2308.15 -739.72,907.87 -754.36,1047.28 -846.8,2052.3 -170.05,1579.7 -265.47,2836.91 -435.13,4414.95 2.57,67.25 5.18,101.22 7.89,94.72l0 -0z"/>
  <path class="fil2" d="M15102.03 14066.96c170.49,-1583.77 265.94,-2843.35 436.44,-4427.12 92.44,-1005.02 107.08,-1144.43 846.8,-2052.3 601.98,-761.69 1188.25,-1546.46 1790.23,-2308.15 361.5,-440.83 344.64,-482.87 772.66,-687.41l726.43 -278.61c-3.85,-10.95 -11.55,-21.74 -21.11,-31.81 -362.76,77.22 -744.41,152.67 -1096.29,230.9 -350.15,91.9 -522.52,298.21 -717.95,495.78 -958.03,902.9 -1859.93,1835.69 -2723.03,2789.1 -23.5,27.18 -46.92,54.43 -70.29,81.73 -275.69,343.08 -416.22,774.61 -304.28,1371.37 52.94,1359.39 335.36,4876.57 360.39,4816.52l0 0z"/>
  <path class="fil0" d="M14748.38 4128.88c-51.9,5.45 -104.02,9.67 -155.91,11.7 -31.2,1.22 -48.68,-35.46 -28.07,-58.93l62.24 -70.9c6.03,-6.86 13.48,-10.78 22.55,-11.84 112.53,-13.2 234.84,-30.39 344.09,-60.4l317.74 -13.31c31.2,-1.22 48.68,35.46 28.07,58.93l-423.17 482.01c-6.67,7.6 -15.21,11.67 -25.31,12.06l-382.19 14.89c-31.2,1.22 -48.68,-35.46 -28.07,-58.93l268.01 -305.29zm1460.68 -86.09c65.78,24.15 99.85,74.9 49.31,132.48l-116.46 132.66c-117.97,134.37 -824.2,191.43 -1023.82,108.79 -53.28,-22.06 -78.67,-68.44 -36.52,-116.43l63.47 -72.3c10.93,-12.46 21.71,-11.92 35.81,-12.47 -4.68,-12.34 -2.28,-25.72 6.61,-35.84l216.87 -247.03c6.67,-7.59 15.21,-11.66 25.31,-12.06l1006.96 -39.23c31.2,-1.22 48.68,35.46 28.07,58.93l-74.06 84.35c-6.67,7.6 -15.21,11.67 -25.31,12.06l-156.23 6.09zm-614.98 181.07c10.19,26.89 -16.27,46.85 -40.65,74.63 37.69,2.08 133.79,-8.33 151.42,-28.4l87.24 -99.37c-46.41,-1.95 -131.87,6.11 -162.21,40.68 -10.93,12.45 -21.7,11.92 -35.8,12.47l0 0zm1692.16 39.39c-128.64,146.54 -860.89,186.94 -1030.82,107.29 -50.88,-23.85 -68.87,-70.11 -29.51,-114.93l222.07 -252.95c129.95,-148.03 869.16,-198.79 1037.81,-109.34 49.9,26.47 60.25,74 22.52,116.98l-222.07 252.95zm-243.72 -258.05c-46.23,-2.25 -132.12,6.4 -162.6,41.12l-181.48 206.73c37.18,3.24 131.41,-5.62 150.75,-27.64l193.33 -220.21z"/>
  <path class="fil1" d="M14507.05 4457.59l329.01 -374.76c-95.4,12.16 -177.09,19.6 -244.98,22.25l62.24 -70.89c70.62,-8.28 134.14,-17.25 190.79,-26.83 56.67,-9.58 109.57,-21.14 158.56,-34.59l309.72 -12.06 -423.17 482.01 -382.19 14.89zm1053.73 -221.34c-54.85,62.47 -78.15,74.02 -46.58,89.97 38.33,19.35 185.71,3.32 217.33,-32.71l100.51 -114.48c58.03,-66.1 -116.93,-40.9 -161.27,-29.89 -28.63,7.03 -51.1,20.03 -67.58,38.81l-389.05 15.15 216.87 -247.03 1006.96 -39.23 -74.06 84.35 -617.9 24.07 -52.98 60.35c121.6,-21.06 141.5,-25.97 282.15,-31.45 74.68,-2.91 205.74,0.33 256.62,40.43 19.83,15.62 19.71,34.63 -0.13,57.22l-116.46 132.66c-48.36,55.09 -233.41,92.68 -328.89,107.76 -153.46,24.23 -510.53,51.31 -654.64,-8.35 -37.3,-15.42 -45.1,-35.48 -23.42,-60.18l63.48 -72.3 389.05 -15.16zm1698.76 3.55c-135.42,154.27 -1138.8,189.4 -1006.96,39.23l222.07 -252.96c139,-158.33 1148.55,-200.5 1006.96,-39.22l-222.07 252.95zm-176.5 -226.96c59.82,-68.16 -174.22,-53.31 -229.83,10.02l-203.56 231.87c-44.45,50.64 183.15,43.15 226.21,-5.91l207.18 -235.98z"/>
  <path class="fil0" d="M5940.79 4676.19c159.85,-188.2 319.71,-376.4 479.56,-564.6 -189.29,0.89 -378.59,1.78 -567.88,2.67 -108.94,-27.31 -217.88,-54.63 -326.83,-81.95 1692.89,-92.16 3385.77,-184.31 5078.67,-276.47 89.73,3.71 86.38,29.1 -27.34,80.2 -301.45,94.88 -602.92,189.76 -904.37,284.64 188.01,91.46 376.02,182.91 564.03,274.37 176.85,-220.08 272.07,-340.34 536.74,-517.96 140.91,-87.4 250.93,-94.49 477.05,-112.47 1186.69,-94.33 2362.06,-78.26 3533.69,-161.83 -77.7,53.71 -207.19,74.15 -284.89,127.86 -361.73,13.27 -686.26,34.45 -1123.71,71.01 -70.93,52.01 -155.81,112.88 -198.71,176.87 342.61,-13.89 716.69,-39.98 1059.32,-53.88 -116.37,123.87 -211.88,254.8 -360.81,348.46 -171.26,69.72 -402.6,98.73 -634.97,115.27 -285.33,11.89 -570.65,23.78 -855.97,35.67 -141.6,1.87 -283.19,3.74 -424.79,5.6 72.97,-32.4 145.95,-64.78 218.92,-97.18 385.49,-30.76 770.97,-61.52 1156.45,-92.27 105.06,-46.63 149.03,-99.15 166.87,-154.23 -3.56,-24.74 -47.86,-34.86 -125.41,-33.03 -265.86,8.37 -533.63,43.47 -799.49,51.84 83.11,-91.97 186.35,-212.51 227.76,-300.12 -69.97,-11.66 -153.03,4.76 -233.39,15.4 -100.56,100.72 -201.11,201.43 -301.67,302.14 -214.57,127.81 -538.81,270.83 -796.18,313.47 -528.42,51.39 -1111.21,62.48 -1648.89,87.13 -209.55,-79.3 -419.1,-158.59 -628.65,-237.89 -89.12,20.19 -309.67,86.97 -398.78,107.16 -87.25,66.61 -89.69,106.22 -176.95,172.82 -177.85,15.56 -309.09,11.54 -486.93,27.1 163.27,-193.51 326.53,-387.03 489.81,-580.54 -31.43,-6.64 -62.86,-13.28 -94.29,-19.92 -233.94,48.18 -519.83,130.96 -753.78,179.14 72.72,69.75 197.37,104.93 270.09,174.69 2.25,21.58 4.49,43.16 6.74,64.74 -92.1,58.18 -184.2,116.37 -276.3,174.55 -611.57,30.51 -1223.13,61.03 -1834.7,91.53l-0.01 0zm4859.78 -318.49c66.26,-110.65 206.31,-286.36 284.81,-348.63 93.45,-74.26 197.8,-125.59 317.07,-145.59 123.07,-7.76 246.13,-15.51 369.2,-23.26 174.95,-11.02 200.27,40.82 126.63,134.22 -50.16,55.25 -100.31,110.51 -150.47,165.76 -159.62,103.83 -336.53,157.29 -522.87,183.21 -137.73,11.29 -294.7,44.05 -424.37,34.3zm-3449.29 -95.11c101.62,37.73 128.92,100.31 136.88,169.36 -33.14,49.22 -91.17,78.99 -177.23,86.85 -261.79,19.08 -523.57,38.16 -785.36,57.24 37.65,-46.87 75.3,-93.74 112.96,-140.6 237.59,-57.62 475.17,-115.24 712.76,-172.85zm1607.52 -44.86c74.24,-95.67 151.9,-179.62 226.14,-275.29 137.97,-5.37 272.51,-22.46 410.48,-27.84 167.1,0.43 150.09,58.27 14.44,104.56 -225.34,67.99 -425.72,130.57 -651.06,198.57zm-1500.97 -184.31c117.42,-1.14 128.59,33.02 -8.38,89.15 -222.65,60.98 -442.8,110.02 -665.45,171.01 59.24,-75.34 118.49,-150.69 177.73,-226.03 165.37,-11.38 330.73,-22.75 496.1,-34.12z"/>
  <path class="fil0" d="M8236.72 12155.53l-2.33 -99.21 -625.47 -4044.69c-11.67,-75.4 54.6,-128.37 127.63,-45.47l1708.94 1939.81c42.2,44.6 109.37,50.88 159.1,14.87 49.44,-35.79 65.34,-101.6 35.79,-155.37l-2381.03 -4331.78c-27.31,-49.69 -123.44,-141.86 -167.12,-134.41 -49.7,8.48 -102.39,42.2 -110.57,95.53l-262.29 1710.75c-67.78,442.11 -79.51,887.45 -21.85,1331.42 0.13,1.06 0.25,2.12 0.33,3.19l294.39 3563.94c0.05,0.57 0.08,1.14 0.12,1.71l345.04 5992.84c3.7,64.24 60.08,157.78 120.53,158.45 66.51,0.74 107.98,-79.45 115.03,-141.98l663.74 -5859.6 0 0z"/>
  <path class="fil1" d="M7295.85 6757.34l792.92 5172.15c21.27,107.73 27.83,215.06 14.35,321.88l-580.91 4938.2 399.62 -5108.67 -626 -5323.56 0 0zm-181.66 -1319.93l2323.5 4195.4 -478.02 -500.81 -1880.32 -3478.9 34.84 -215.69z"/>
  <path class="fil2" d="M8962.22 9136.72l-1423.01 -1504.02 -249.49 -927.51 632.13 5375.71 -468.98 5995.21 -339.63 -6079.46 -294.97 -3570.93c-66.71,-509.7 -34.21,-945.8 20.75,-1300.81l235.15 -1481.41 1888.06 3493.22z"/>
  <path class="fil1" d="M183.84 2005.64l2269.79 48.29 3661.03 13.76 5185.99 43.34 1675.72 -4.65 762.97 -235.97 359.69 -348.26 560.25 -132.58c76.11,-24.75 150.92,-54.7 218.42,-98.18 9.39,-6.04 33.66,-24.41 45.8,-37.97 -4,-2.96 -8.46,-5.82 -11.61,-7.66 -11.93,-2.23 -45.59,6.66 -56.73,9.5 -36.03,9.18 -72.49,19.07 -110.04,17.31 -614.7,-28.82 -1248.13,1.22 -1863.31,-6.74l-1060.37 268.12 -735.24 -294.84 2440.98 -1151.95 0.41 -0.44c-25.71,-6.86 -75.19,-6.72 -90.37,-6.3 -25.77,0.72 -51.52,2.65 -77.19,5.01 -17.81,1.63 -36.05,3.93 -52.58,4.81 -3293.43,292.18 -6582.94,626.47 -9876.36,918.67 -93.03,15.04 -186.39,27.82 -279.81,40.11 -166.87,21.97 -334.04,42.56 -499.76,72.29 -171.99,30.86 -342.24,72.02 -507.53,129.01 -167.73,57.83 -335.26,116.25 -501.84,177.29 -166.52,61.01 -332,124.81 -496.74,190.42 -159.51,63.52 -322.59,118.76 -478.87,190.15 -85.21,38.94 -174.01,69.34 -261.45,102.75 -46.38,17.72 -92.66,35.77 -138.25,55.47 -27.91,12.06 -56.12,24.67 -83,39.26z"/>
  <path class="fil2" d="M12781.46 137.24l-3056.15 1212.54 -2914.83 12.7 -5130.41 51.27c154.08,-56.05 308.92,-110 463.92,-163.44 165.29,-56.99 335.53,-98.15 507.53,-129.01 165.72,-29.73 332.89,-50.32 499.76,-72.29 93.42,-12.29 186.78,-25.08 279.81,-40.11 3118.08,-276.65 6232.66,-591.01 9350.37,-871.65zm-6632.8 1349.87l-4858.52 73.84c-48.3,18.86 -96.55,37.88 -144.73,57.06 -159.51,63.52 -322.59,118.76 -478.87,190.15 -85.21,38.94 -174.01,69.34 -261.45,102.75l-13.44 5.15 5588.87 -52.64 168.14 -376.31z"/>
  <path class="fil1" d="M5918.97 1506.75l-393.83 -16.56 -863.8 -260.02c3177.64,-23.8 6356.32,37.17 9534.97,27.92 182.37,-0.53 356.83,11.76 535.82,13.63 73.49,0.77 118.24,-24.01 179.75,-25.96 3.15,1.84 7.61,4.7 11.61,7.66 -273,246.15 -640.67,82.44 -1035.19,483.48 -109.06,110.86 -187.73,194.43 -324.31,274.78 -167.99,76.52 -489.88,91.53 -677.1,96.09 -433.29,4.45 -851.73,-4.11 -1282.44,-18.56l-1124.97 -2.98c-350.78,4.11 -710.96,3.58 -1076.57,0.56l-538.65 -265.06 -345.81 82.86 -164.56 168.76c-927.44,-14.47 -1865.37,-31.82 -2752.62,-18.86l-194.05 0.61 511.73 -548.36z"/>
  <path class="fil1" d="M4934.66 11760.25c-159.58,-1145.77 -400.6,-2044.17 -604.43,-3055.51 -26.84,-141.07 -53.9,-282.08 -81.4,-423.02 -45.16,-247.52 -87.34,-504.08 -124.99,-774.4 -123.34,-998.76 -164.55,-1137.41 -929.96,-2019.24 -623.6,-740.42 -1159.98,-1692.57 -1783.58,-2433 -373.97,-428.12 -358.46,-470.54 -791.39,-661.1 -232.35,-108.84 -377.01,-182.19 -532.73,-254.14 -4.62,-4.51 -9.51,-26.14 -4.87,-40.75l732.62 255.11c432.92,190.56 417.42,232.98 791.39,661.1 623.6,740.42 1232.25,1504.33 1855.85,2244.75 765.41,881.83 784.33,1020.31 907.67,2019.06 218.53,1569.07 352.66,2819.07 570.76,4386.5 -0.47,67.1 -2.02,101.03 -4.93,94.64z"/>
  <path class="fil2" d="M4941.26 11677.7c-219.1,-1573.12 -353.34,-2825.48 -572.44,-4398.59 -123.34,-998.76 -142.25,-1137.24 -907.67,-2019.06 -623.6,-740.42 -1232.25,-1504.33 -1855.85,-2244.75 -373.96,-428.12 -358.46,-470.54 -791.39,-661.1l-732.62 -255.11c3.49,-11.03 10.84,-22.02 20.04,-32.36 363.93,65.69 746.63,129.04 1099.76,196.08 351.82,80.72 530.01,280.98 730.91,471.81 982.83,870.09 1910.64,1771.72 2800.43,2695.11 24.26,26.37 48.45,52.79 72.6,79.27 285.4,333.36 438.87,759.07 345.83,1357.29 -10.56,1356.43 -182.8,4870.48 -209.6,4811.41z"/>
  <path class="fil0" d="M2494.7 1742.86c-51.95,3.01 -104.05,4.79 -155.83,4.39 -14.47,-0.11 -26.77,-8.35 -32.37,-21.69 -5.61,-13.33 -2.89,-27.89 7.16,-38.31l65.29 -67.72c6.33,-6.56 13.93,-10.11 23.01,-10.75 63.27,-4.44 126.53,-10.02 189.5,-17.66 52.36,-6.35 104.56,-14.89 156.04,-26.46 2.78,-0.63 5.2,-0.89 8.04,-0.86l309.05 2.41c14.47,0.11 26.77,8.35 32.37,21.69 5.61,13.33 2.89,27.89 -7.16,38.31l-443.92 460.38c-6.99,7.26 -15.69,10.91 -25.77,10.83l-381.36 -2.97c-14.47,-0.11 -26.77,-8.35 -32.37,-21.69 -5.61,-13.33 -2.89,-27.89 7.16,-38.31l281.17 -291.59zm1458.87 -17.72c16.08,6.77 31.11,15.23 43.43,25.91 37.13,32.18 31.75,74.89 -0.49,108.34l-122.17 126.71c-30.31,31.43 -89.4,50.67 -130.45,62.32 -72.19,20.49 -149.27,32.09 -223.77,40.31 -92.42,10.2 -185.57,14.26 -278.54,13.54 -73.56,-0.57 -147.04,-5.11 -220.08,-13.92 -55.33,-6.67 -121.21,-17.72 -171.97,-41.57 -52.04,-24.45 -75.17,-71.83 -30.95,-117.67l66.59 -69.06c6.99,-7.25 15.69,-10.91 25.77,-10.83l10.47 0.08c-4.08,-12.51 -1.07,-25.73 8.25,-35.39l227.5 -235.94c6.99,-7.26 15.69,-10.91 25.77,-10.83l1004.77 7.83c14.47,0.11 26.77,8.35 32.37,21.69 5.61,13.34 2.89,27.89 -7.16,38.31l-77.69 80.57c-6.99,7.25 -15.69,10.91 -25.77,10.83l-155.89 -1.22zm-620.96 151.71c4.08,12.51 1.07,25.73 -8.25,35.39l-35.72 37.05c11.98,1.22 24.96,1.53 31.18,1.58 27,0.21 53.89,-2.5 80.3,-8.03 8.88,-1.87 34.09,-7.98 40.66,-14.78l91.52 -94.92c-11.62,-1.03 -23.68,-1.3 -28.82,-1.36 -28.18,0.65 -56.43,3.45 -84.09,8.97 -19.01,3.79 -36.91,11.21 -50.55,25.35 -6.99,7.26 -15.7,10.91 -25.77,10.84l-10.47 -0.08zm1683.57 118.04c-24.7,25.62 -61.67,42.33 -94.82,53.85 -46.32,16.1 -95.42,26.66 -143.71,34.8 -58.35,9.83 -117.24,16.44 -176.25,20.61 -62.25,4.39 -124.59,7.36 -187.02,7.25 -86.68,-0.15 -174.1,-4.19 -260.18,-14.82 -53.09,-6.56 -122,-17.67 -169.74,-42.83 -49.57,-26.12 -65.33,-73.04 -24.04,-115.85l232.97 -241.6c36.47,-37.83 99.81,-59.02 149.45,-71.95 75.93,-19.77 155,-31.12 233.05,-38.36 88.35,-8.2 177.03,-12.04 265.76,-11.15 78.14,0.78 157.1,5.07 234.5,16.06 49.62,7.04 112.41,19.04 156.01,44.84 48.46,28.68 56.57,76.51 16.99,117.56l-232.97 241.6zm-230.73 -268.37c-11.67,-1.12 -24.11,-1.44 -29.86,-1.5 -28.38,-0.3 -56.64,2.72 -84.15,9.76 -17.28,4.43 -37.2,12 -49.86,25.12l-190.39 197.46c13.31,1.79 27.1,2.28 38.56,2.37 25.74,-0.29 51.51,-2.68 76.67,-8.27 9.39,-2.08 29.22,-7.37 36.21,-14.61l202.82 -210.33z"/>
  <path class="fil1" d="M2239.03 2059.02l345.15 -357.94c-95.59,7.66 -177.3,11.27 -245.03,10.74l65.29 -67.71c70.72,-4.96 134.41,-10.93 191.28,-17.84 56.89,-6.9 110.12,-15.95 159.54,-27.07l309.05 2.41 -443.93 460.38 -381.35 -2.97zm1059.84 -171.38l-62.8 65.13c-4.37,7.7 -0.44,15.17 12.22,22.32 12.66,7.16 36.26,10.91 71.26,11.18 29.69,0.23 59,-2.73 87.85,-8.79 29.33,-6.15 48.79,-14.4 58.88,-24.86l105.44 -109.34c29.59,-30.69 6.72,-46.33 -69.04,-46.92 -31.36,0.73 -61.62,3.87 -90.19,9.64 -28.84,5.67 -51.83,17.57 -69.12,35.51l-388.2 -3.02 227.51 -235.94 1004.77 7.82 -77.69 80.57 -616.56 -4.8 -55.58 57.64c4.36,-0.54 15.15,-2.2 32.31,-4.87 17.12,-2.67 36.66,-5.03 58.68,-7.17 21.54,-2.06 48.42,-3.68 80.24,-4.88 31.84,-1.2 69.02,-1.59 111.27,-1.26 58.23,0.45 110.11,5.11 156.31,14.07 45.8,8.96 78.4,21.68 97.4,38.15 19.02,16.48 18.03,35.41 -2.79,56.99l-122.17 126.71c-18.03,18.7 -56.09,36.28 -114.62,52.84 -58.13,16.55 -130.93,29.61 -217.98,39.18 -87.16,9.66 -178.84,14.07 -274.37,13.32 -73.07,-0.57 -145.01,-5.09 -216.12,-13.66 -71.1,-8.58 -125,-21.46 -161.15,-38.47 -36.43,-17.1 -43.27,-37.45 -20.53,-61.03l66.59 -69.06 388.21 3.02zm1691.82 82.66c-16.28,16.88 -43.35,31.84 -80.95,44.98 -37.98,13.14 -83.52,24.18 -137.97,33.33 -54.06,9.15 -111.54,15.85 -172.85,20.21 -60.88,4.26 -122.25,6.68 -184.46,7.16 -97.8,-0.76 -183.25,-5.58 -255.9,-14.55 -72.65,-8.97 -125.22,-22.05 -157.57,-39.01 -32.24,-17.07 -37.17,-37.01 -15.06,-59.93l232.97 -241.61c23.68,-24.55 67.82,-45.28 132.88,-62.26 65,-16.89 140.66,-29.34 227.39,-37.36 86.34,-8.03 173.45,-11.7 262.14,-11 87.18,1.06 163.8,6.3 229.88,15.7 65.8,9.31 113.37,22.82 142.94,40.25 29.49,17.52 32.84,38.33 9.53,62.5l-232.97 241.61zm-165.22 -234.27c13.59,-14.1 15.1,-25.2 4.2,-33.4 -10.87,-8.2 -35.44,-12.55 -73.7,-13.04 -32.72,-0.25 -63.82,3.37 -93.31,10.87 -29.09,7.5 -51.4,19.12 -66.57,34.85l-213.55 221.46c-11.56,11.99 -7.97,21.39 10.56,28.01 18.55,6.61 44.32,10.11 77.06,10.36 30.24,-0.34 58.04,-3.32 83.93,-9.11 25.82,-5.69 43.77,-13.96 54.03,-24.61l217.34 -225.4z"/>
  <path class="fil0" d="M5601.02 1970.53c167.98,-180 335.97,-360.01 503.94,-540.01 -188.58,-7.93 -377.16,-15.86 -565.74,-23.79 -107.24,-32.28 -214.48,-64.56 -321.71,-96.84 1690.43,-12.94 3380.86,-25.89 5071.28,-38.85 89.2,7.87 84.68,33.01 -30.96,78.6 -304.68,80.47 -609.36,160.92 -914.03,241.38 183,99.85 366,199.69 549.01,299.55 186.39,-210.97 286.84,-326.32 558.71,-490.9 144.42,-80.48 254.34,-82.43 480.39,-89.8 1186.35,-38.68 2356.28,32.06 3527.13,3.39 -79.89,49.88 -209.81,64.21 -289.7,114.08 -360.91,-3.62 -685.13,2.35 -1122.53,18.39 -73.07,48.5 -160.45,105.18 -206.16,166.91 341.9,2.12 715.7,-6.44 1057.6,-4.33 -121.67,117.95 -222.9,243.92 -375.6,330.26 -173.82,61.47 -405.59,79.58 -637.81,85.23 -284.74,-1.44 -569.48,-2.89 -854.22,-4.33 -141.13,-4.74 -282.24,-9.47 -423.36,-14.2 74.19,-28.87 148.38,-57.72 222.57,-86.6 385.38,-12.68 770.76,-25.37 1156.13,-38.05 106.81,-41.55 153.06,-91.82 173.39,-145.84 -2.4,-24.81 -46.05,-36.95 -123.37,-38.74 -265.19,-4.05 -533.53,18.44 -798.71,14.4 87.06,-87.73 195.5,-202.98 240.83,-288.31 -69.15,-14.87 -152.64,-2.39 -233.18,4.47 -104.84,95.63 -209.69,191.26 -314.54,286.88 -219.67,117.31 -549.27,244.66 -807.6,275.14 -528.7,26.57 -1109.69,10.49 -1646.37,9.99 -205.02,-88.74 -410.05,-177.48 -615.06,-266.22 -89.7,15.96 -312.47,72.2 -402.18,88.16 -90.01,62.28 -94.28,101.61 -184.29,163.89 -177.86,7.22 -308.4,-2.9 -486.26,4.32 171.63,-185.13 343.26,-370.28 514.89,-555.41 -31,-8.08 -61.99,-16.16 -92.99,-24.23 -235.26,37.09 -523.86,106.22 -759.11,143.31 69.18,72.86 191.7,113.7 260.88,186.57 1.23,21.61 2.47,43.2 3.71,64.8 -94.45,53.66 -188.88,107.33 -283.33,160.99 -610.55,1.9 -1221.1,3.82 -1831.65,5.72l0 0zm4855.23 -90.89c71.15,-107.12 218.83,-275.61 299.91,-333.98 96.54,-69.61 202.87,-115.87 322.59,-130.25 122.94,-1.99 245.87,-3.98 368.81,-5.97 174.76,-2.83 197.57,49.98 119.87,139.59 -52.53,52.69 -105.06,105.39 -157.59,158.09 -163.82,95.98 -342.51,141 -529.31,158.13 -137.7,4.82 -295.58,30.15 -424.28,14.4zm-3431.1 -255.37c99.46,42.31 123.73,105.91 128.44,175.06 -35.3,47.48 -94.49,74.43 -180.57,78.25 -261.63,6.81 -523.26,13.62 -784.9,20.44 39.68,-44.93 79.37,-89.85 119.05,-134.78 239.33,-46.32 478.64,-92.65 717.97,-138.97zm1603.2 30.18c78.4,-91.83 159.66,-171.83 238.06,-263.66 137.67,1.07 272.48,-9.68 410.14,-8.61 166.42,8.21 146.78,65.02 9.51,104.81 -227.6,57.23 -430.1,110.23 -657.7,167.46zm-1486.4 -253.49c117.01,4.33 126.54,38.88 -12.5,88.41 -224.6,50.37 -446.16,88.96 -670.76,139.33 62.51,-72.28 125.03,-144.57 187.54,-216.85 165.24,-3.63 330.47,-7.26 495.71,-10.89z"/>
  <path class="fil0" d="M12097.74 12188.79l-1.14 -99.23 483.7 -4064.09c9.02,-75.76 -59.06,-126.38 -129.14,-40.98l-1640.1 1998.36c-40.61,46.05 -107.52,54.68 -158.48,20.43 -50.66,-34.05 -68.85,-99.25 -41.19,-154.02l2228.15 -4412.37c25.56,-50.6 118.4,-146.09 162.32,-140.17 49.97,6.74 103.8,38.59 113.84,91.6 111.35,588.19 233.25,1186.7 335.32,1775.12 125.15,721.42 46.64,1288.72 16.27,2006.86 -9.11,215.49 -17.61,430.96 -27.73,646.4 -10.23,215.46 -20.46,430.92 -30.69,646.37 -24.23,510.3 -48.47,1020.59 -72.7,1530.88 -0.03,0.57 -0.05,1.14 -0.07,1.71l-135.34 6001.25c-1.45,64.33 -54.53,159.78 -114.92,162.57 -66.41,3.06 -110.79,-75.7 -119.93,-137.87l-868.16 -5832.82 0 0.01z"/>
  <path class="fil1" d="M12849.32 6761.04l-611.64 5196.69c-17.49,108.4 -20.3,215.9 -3.09,322.18l753.18 4914.88 -577.97 -5091.58 439.52 -5342.17 0 0zm135.41 -1325.49l-2175.43 4274.05 460.21 -517.21 1757.57 -3542.5 -42.36 -214.34z"/>
  <path class="fil2" d="M11267.15 9197.19l1369.57 -1552.84 216.92 -935.66 -443.82 5394.53 678.27 5975.15 126.91 -6087.62 169.97 -3579.05c48.85,-511.73 1.13,-946.42 -66.2,-1299.29l-286.8 -1472.28 -1764.8 3557.08 0 -0z"/>
 </g>
</svg>
