<?xml version="1.0" encoding="UTF-8"?>
  <!DOCTYPE svg PUBLIC "-//W3C//DTD SVG 1.1//EN" "http://www.w3.org/Graphics/SVG/1.1/DTD/svg11.dtd">
  <!-- Creator: CorelDRAW 2020 (64 Bit) -->
  <svg xmlns="http://www.w3.org/2000/svg" xml:space="preserve" width="1010.35mm" height="444.247mm" version="1.1" style="shape-rendering:geometricPrecision; text-rendering:geometricPrecision; image-rendering:optimizeQuality; fill-rule:evenodd; clip-rule:evenodd"
  viewBox="0 0 137494.21 60455.71"
   xmlns:xlink="http://www.w3.org/1999/xlink"
   xmlns:xodm="http://www.corel.com/coreldraw/odm/2003">
   <defs>
    <style type="text/css">
     <![CDATA[
      .fil1 {fill:#000000}
      .fil0 {fill:#ff0000}
      .fil2 {fill:#d9d9d9}
     ]]>
    </style>
   </defs>
   <g id="Camada_x0020_1">
    <metadata id="CorelCorpID_0Corel-Layer"/>
    <path class="fil0" d="M105355.39 3669.77c-6.44,-43.28 -72.23,-109.54 -147.79,-216.63 -209.94,-297.81 -313.34,-552.33 -728.62,-717.65 -222.95,-88.82 -539.72,-153.41 -1340.05,-317.05 -800.35,-163.44 -2084.53,-425.96 -2961.58,-587.56 -877.26,-161.3 -1347.51,-221.87 -1774.26,-256.47 -426.71,-34.59 -809.96,-43.34 -1170.35,-88.81 -360.26,-45.41 -697.81,-127.72 -969.45,-143.53 -271.68,-15.84 -477.72,34.58 -681.98,46.57 -204.17,12.22 -406.42,-13.96 -648,-13.32 -241.59,0.61 -522.13,27.76 -835.32,5.62 -313.26,-21.81 -659.1,-93.11 -910.21,-194.63 -250.97,-101.33 -406.96,-232.99 -543.74,-324.92 -420.06,-282.2 -374.25,30.48 -540.19,159.02 -83.71,64.83 -208.91,49.59 -383.98,39.41 -171.02,-10.04 -1033.34,-42.12 -1138.3,-139.64 -75.38,-70.03 439.41,-104.38 542.17,-287.36 48.22,-85.84 31.64,-211.99 -63.42,-284.84 -94.88,-72.78 -268.08,-92.27 -385.72,-70.36 -267.23,49.68 -346.87,372.62 -1085.67,300.46 -203.75,-19.81 -492.18,461.74 -723.55,442.06 -231.2,-19.61 -415.2,-15.94 -616.35,-48.22 -201.13,-32.28 -419.29,-100.47 -656.12,-166.68 -236.83,-66.06 -547.84,171.74 -768.14,202.89 -421.06,59.33 -605.13,405.33 -1243.1,381.19 -275.94,-10.44 -639.26,-85.48 -1036.17,-190.79 -290.13,-76.86 -806.31,182.5 -1192.71,291.03 -46.61,-8.37 -93.98,-16.86 -142.06,-25.22 -209.35,-36.23 -432.55,-69.38 -628.85,-43.79 -140.18,-27.19 -267.67,-40.57 -399.32,-37.68 -248.76,5.36 -512.35,68.6 -687.18,116.3 -174.86,47.73 -260.99,79.91 -289.56,144.4 -50.79,114.24 55.75,251.11 249.04,275.38 -595.25,97.98 -1772.27,-173.43 -2400.21,-284.41 -662.68,-117.12 -931.17,-91.33 -1496.7,123.92 -169.35,64.44 -251.89,104.77 -273.97,171.39 -48.81,146.61 143.03,311.08 466.77,223.22 200.25,-54.34 452.8,-238.63 479.35,-92.91 7.62,41.75 -10.21,96.32 57.39,167.43 84.69,89.08 475.62,300.27 286.3,308.55 -220.51,9.63 -401.78,-232.94 -554.71,-274.91 -102.31,-28.07 -209.11,15.53 -375.26,20.56 -166.01,5.05 -391.21,-28.44 -562.62,-1.99 -171.22,26.48 -288.83,112.9 -375.9,111.82 -87.23,-1.27 -144.07,-89.83 -131.2,-211.01 24.03,-226.49 259.79,-482.68 -411.95,-654.35 -211.01,-53.82 -443.53,-75.62 -599.31,-53.65 -155.76,21.98 -234.95,88.05 -196.67,180.76 59.67,144.54 469.71,398.43 273.3,429.7 -67.24,10.64 -197.38,-11.34 -285.54,-59.77 -88.14,-48.41 -134.4,-123.31 -221.55,-181.1 -87.15,-57.77 -215.17,-98.46 -312.21,-62.98 -171.06,62.55 -223.24,335.72 -388.32,255.09 -60,-29.34 -130.7,-100.81 -297.44,-146.18 -166.58,-45.34 -429.36,-64.59 -629.25,-54.16 -323.86,16.79 -524.08,129.99 -773.13,-30.76 -90.06,-58.14 -165.44,-142.77 -291.89,-142.4 -229.45,0.67 -501.34,230.26 -778.7,220.38 -278.2,-9.92 -346.83,-108.07 -664.56,79.95 -106.01,62.82 -222.83,143.12 -332.02,151.78 -109.39,8.8 -211.01,-53.84 -209.45,-126.03 3.05,-133.38 364.41,-303.63 403.77,-486.07 68.66,-318.28 -962.98,-205.31 -1183.52,-162.35 -480.52,93.6 -796.56,384.55 -1233.64,310.04 -345.92,-58.97 -545.57,-315.3 -981.82,-219.6 -368.9,80.92 -371.41,203.71 -869.87,143.31 -246.68,-29.9 -630.31,-101.71 -884.46,-116.8 -566.42,-33.46 -485.15,228.68 -708.12,263.56 -216.65,33.9 -475.32,-145.86 -911.26,-62.99 -171.89,32.61 -383.87,101.37 -499.71,87.34 -145.54,-17.64 -216.66,-226.12 162.76,-370.68 125.36,-47.71 279.86,-85.53 388.52,-173.2 281.21,-226.8 116,-549.6 -180.65,-566.35 -310.78,-17.54 -540.93,301.24 -753.41,292.72 -199.18,-7.99 -522.15,-257.88 -906.93,-216.91 -152.04,16.22 -285.43,81.92 -267.97,172.11 37.65,194.63 589.9,380.69 675.9,437.47 75.92,50.22 104.98,116.65 192.74,196.56 87.9,79.94 234.41,173.18 268.81,246.46 34.24,73.45 -43.64,127.08 -172.34,120.79 -128.87,-6.12 -308.44,-72 -475.51,-114.31 -166.92,-42.09 -321.49,-60.83 -445.6,-110.5 -124.1,-49.68 -217.87,-130.33 -307.42,-109.66 -89.35,20.56 -174.49,142.6 -286.91,235.85 -333.21,277.06 -517.23,91.82 -393.04,-94.84 71.61,-107.67 251.75,-218.04 353.74,-328.4 102.06,-110.53 125.8,-220.89 43.56,-296.87 -335.83,-310.6 -1751.48,122.74 -2156.95,248.51 -211.65,65.54 -343.06,112.71 -499.24,81.19 -302.68,-61.06 -575.37,-346.66 -811.86,-375.32 -343.71,-41.64 -531.14,246.33 -876.12,315.43 -461.15,92.38 -1063.36,-121.58 -1438.4,-142.73 -557.68,-31.45 -884.53,350.82 -1443.26,187.09 -128.37,-37.61 -218.25,-98.83 -311.99,-94.5 -93.78,4.49 -191.5,74.36 -213.25,166.16 -40.64,171.4 198.49,447.69 130.53,557.18 -87.82,141.46 -539.06,-33.38 -669.23,-74.71 -396.1,-125.77 -419.63,-23.58 -747.11,-21.39 -147.59,1.08 -312.73,-31.5 -388.28,-113.05 -75.57,-81.54 -61.73,-212.06 -102.7,-336.65 -41.02,-124.57 -136.71,-243.21 -225.89,-367.24 -153.93,-214.28 -316.9,-498.26 -563.86,-584.54 -268.43,-93.78 -466.43,80.05 -443.61,210.66 11.15,64.25 85.14,104.77 135.31,170.65 150.4,197.42 -14.94,321.38 -153.42,226.85 -205.83,-140.49 -164.08,-570.58 -1011.96,-673.28 -174.35,-21.12 -1069.54,-75.65 -1172.64,-10.06 -58.18,37.08 17.85,115.59 117.58,168.5 271.15,144.16 425.19,50.79 344.62,608.3 -11.17,77.41 -24.47,145.08 9.28,224.66 127.39,300.42 526.3,197.71 724.67,232.57 192.06,33.75 161.75,230.5 -2.94,254.56 -82.55,12.06 -206.66,-9.35 -321.23,-7.54 -360.87,5.96 -694.58,203.75 -761.7,-535.93 -13.77,-152.84 -7.25,-271.64 -80.89,-343.48 -73.62,-71.83 -227.52,-96.85 -364.74,-78.83 -241.43,31.67 -475.78,215.7 -758.95,203.8 -212.08,-8.91 -415.57,-149.54 -614.45,-52.2 -140.63,68.83 -257.64,276.16 -497.07,175.73 -187.84,-78.79 -302.02,-268.95 -620.12,-169.56 -351.51,109.82 -361.8,409.18 -260.44,497.23 145.41,126.31 567.68,-59.02 707.9,-5.43 113.86,43.52 91.6,325.98 326.84,322.78 240.9,-3.28 416.87,-300.34 605.7,-348.37 231.65,-58.91 1144.67,250.07 857.03,431.15 -83.69,52.75 -267.98,87.14 -448.29,84.25 -180.16,-3.02 -356.5,-43.21 -526.08,-32.37 -169.75,11 -332.88,72.91 -522,68.95 -189.1,-3.95 -404.47,-74.14 -596.83,-75.39 -344.28,-2.26 -630.72,222.85 -1012.6,154.28 -162.36,-29.15 -328.27,-112.16 -422.56,-186.49 -94.58,-74.53 -117.59,-140.24 -186.12,-230.42 -121.18,-159.06 -378.81,-379.41 186.42,-310.92 181.27,21.96 392.42,72.7 549.01,44.46 321.79,-58.11 520.61,-502.18 -412.03,-484.25 -534.37,10.27 -811.17,90.05 -1301.33,182.21 -628.36,118.14 -831.4,6.48 -1163.15,41.62 -272.73,28.89 -273.87,193.6 -516.99,-34.2 -84.82,-79.57 -187.19,-192.62 -336.04,-235.99 -262.2,-76.25 -833.89,81.45 -910.89,273.63 -40.81,102.11 42.31,225.58 106.99,296.31 83.31,91.12 209.2,113.58 -224.17,183.65 -122.42,19.81 -237.97,30.97 -300.56,111.47 -62.95,80.62 -72.57,230.43 -21.77,318.45 102.81,178.39 586.75,135.19 730.48,35.07 104.09,-72.52 135.66,-200.73 201.62,-227.37 66.08,-26.65 166.41,48.42 290.54,69.84 124.31,21.26 272.12,-11.15 276.1,-76.7 3.84,-65.7 -135.96,-164.51 -139.15,-221.6 -2.84,-56.88 131.11,-72.19 271.67,-36.21 280.31,71.76 540.66,316.75 969.76,334.68 353.71,14.78 756.5,-129.53 1083.76,-60.71 365.68,76.89 448.97,293.1 147.94,335.75 -155.76,22.15 -411.22,-8.79 -717.61,-42.83 -859.99,-95.52 -1124.69,-85 -1959.77,61.61 -275.91,48.43 -496.48,84.63 -782.72,87.71 -286.12,3.08 -638.22,-27.01 -858.31,6.14 -390.93,58.86 -343.79,304.51 -825.65,293.46 -192.17,-4.49 -458.19,-49.32 -618.14,-74.89 -159.75,-25.73 -213.12,-32.2 -560.35,290.77 -347.28,323.16 -988.38,975.57 -1306.85,1311.54 -318.62,335.91 -314.74,355.33 -296.27,407.92 78.49,223.4 236.3,309.53 514.84,396.05 659.65,204.89 1065.12,76 1610.68,191.85 180.19,38.27 395.27,101.41 571.18,34.57 136.41,-51.84 344.99,-274.24 421.92,-203.61 35.57,32.57 31.08,132.67 -9.61,231.67 -40.65,98.84 -117.28,196.59 -212.14,298.52 -95.16,101.7 -208.73,207.56 -409.77,230.42 -200.99,22.7 -489.47,-37.23 -783.13,-79.19 -1186.26,-169.13 -1140.1,74.47 -1789.35,16.24 -236.3,-21.19 -947.17,-178.95 -1087.98,-154.05 -9.08,1.65 -2725.06,2708.65 -2968.21,2957.73 -574,588.33 -660.59,609.2 -538.11,646.11 122.48,36.91 453.91,89.64 658.22,149.03 204.48,59.42 386.62,156.99 534.94,206.5 148.2,49.33 262.46,50.57 414.42,65.89 249.61,25.15 604.7,101.13 812.36,29.12 87.41,-30.27 165.28,-83.73 279.56,-110.91 425.69,-100.99 1127.57,215.23 1586.47,280.46 584.35,83.05 1324.89,-313.54 1818.31,-119.76 279.66,109.83 -212.67,242.14 -354.39,275.06 -527.39,122.52 -907.2,-50.66 -1398.02,101.22 -265.78,82.25 -412.2,279.7 -516.94,164.02 -107.4,-118.63 -94.42,-361.44 -531.2,-382.18 -129.21,-6.14 -627.36,31.65 -703.28,103.53 -50.03,47.52 -10.6,127.8 67.43,187.58 77.87,59.77 194.18,99.02 219.79,168.31 41.19,111.13 -158.84,299.77 36.72,391.55 54.48,25.57 120.54,27.19 196.55,48.99 169.21,48.56 438.29,220.32 622.55,172.97 205.09,-52.71 300.7,-359.23 724.75,-418.91 192.4,-27.01 448.5,-2.19 768.08,20.67 319.57,23.04 702.64,44.28 1047.3,57.78 344.51,13.28 650.91,19.05 853.65,-47.75 307.05,-101.04 457.55,-426.37 37.44,-382.56 -139.8,14.59 -308.14,69.7 -446.78,71.68 -336.43,4.99 -367.84,-264.28 -138.74,-422.7 348.67,-241.09 1458.77,-174.8 1885.67,-130.38 181.58,18.89 341.37,44.46 469.58,56.88 128.07,12.41 224.19,11.47 306.87,27.71 82.5,16.37 151.14,49.85 215.8,7.17 64.8,-42.3 125.54,-160.92 200.28,-211.7 180.54,-122.72 336.34,148.16 259.15,308.4 -81.07,168.27 -462.45,160.27 -659.16,168.66 -153.97,6.7 -329.72,16.75 -463.96,-21.39 -246.44,-70.15 -320.18,-276.78 -438.86,-147.63 -44.15,48.08 -95.7,136.29 -189.2,194.26 -201.9,125.29 -406.88,68.61 -467.01,204.52 -87.67,198.18 22.39,402.15 285.89,396.58 342.2,-7.23 549.95,-287.98 641.17,-340.96 67.24,-38.91 138.51,-30.28 276.95,-0.91 386.58,81.98 1009.58,222.53 1438.43,227.7 398.83,4.82 241.54,-176.23 230.76,-444.14 -14.37,-357.25 263.73,-446.25 611.03,-426.3 197.38,11.32 414.57,62.8 491.46,131.92 76.87,68.97 13.58,155.91 -75.47,201.65 -195.49,100.44 -546.77,5.14 -681.08,122.07 -123.36,107.4 -29.75,326.39 -192.45,423.62 -48.2,28.8 -110.23,46.43 -167.11,99.34 -110.28,102.79 -219.3,357.7 48.45,396.09 139.3,19.98 383.45,-13.35 562.73,-86.09 363.99,-147.5 455,-453.21 770.84,-570.51 159.74,-59.42 377.64,-70.76 506.12,-33.14 128.23,37.44 167.34,124.04 128.46,207.59 -82.13,175.63 -432.03,282.47 -328.78,403.79 113.62,133.53 540.86,236.73 799.56,93.78 326.57,-180.45 221.41,-500.99 254.06,-608.15 23.2,-75.79 99.11,-110.72 135.36,-197.66 97.71,-234.2 -72.49,-464.83 201.99,-513.63 147.35,-26.26 429.19,-17.28 688.62,-51.86 259.65,-34.73 496.52,-113.07 653.67,-175.89 157.1,-62.65 234.49,-110 275.6,-73.47 41.45,36.39 46.64,156.63 27.48,251.87 -41.59,207.57 -194.81,284.31 -260.78,415.33 -34.29,68.22 -42.85,149.05 -136.66,181.81 -170.58,59.43 -494.9,-41.36 -674.65,204.55 -52.86,72.36 -73.31,151.76 -14.51,250.04 58.6,98.44 196.77,215.86 327.52,288.39 130.57,72.53 254.19,100.09 480.94,89.65 525.77,-23.8 802.17,-123.53 1433.72,-125.17 280.06,-0.72 706.58,6.85 1055.54,-20.17 348.94,-26.85 620.31,-88.41 870.46,-92.74 250.28,-4.33 479.33,48.58 783.12,79.19 303.8,30.42 682.01,38.5 976.43,14.36 294.6,-24.11 505.23,-80.47 893.04,-77.43 387.98,2.89 953.23,65.16 1291.89,77.76 338.77,12.78 450.95,-23.96 1035.04,-25.58 583.88,-1.65 1639.68,31.8 2284.47,24.97 644.62,-6.89 878.39,-54.23 1254.98,-87.19 376.79,-32.95 896.42,-51.86 1399.18,-82.29 502.73,-30.27 988.72,-72.22 1459.75,-115.81 471.2,-43.75 927.42,-89.14 1379.35,-94.18 451.93,-5.06 899.55,30.39 1170.68,28.59 454.36,-3.01 405.3,-114.9 687.93,-17.47 259.99,89.63 438.51,156.87 693.68,-70.03 205.31,-182.56 281.58,-378.88 647.89,-377.91 408.19,1.08 797.03,397.08 1143.35,626.28 323.8,214.28 212.82,-73.27 475.74,-285.36 111.93,-90.36 278.96,-133.04 470.14,-91.08 191.13,42.12 406.42,169.02 838.52,265.33 432.09,96.47 1081.16,162.53 1507.68,170.09 426.53,7.72 630.69,-43.21 1106.36,-45.4 475.7,-2.15 1223.07,44.43 1798.14,69.99 575.1,25.54 977.86,30.39 1508.99,72.67 876.99,69.83 2248.27,246.3 3038.63,462.61 350.88,95.94 634.21,205.92 905.9,282.77 271.64,77.05 531.81,121.16 663.72,70.94 131.53,-50.07 134.83,-194.45 -22.98,-323.87 -157.7,-129.25 -476.65,-243.38 -811.78,-318.63 -713.38,-160 -1877.13,-169.14 -2712.03,-249.81 -998.53,-96.48 -1753.04,-274.73 -2767.51,-350.98 -1305.57,-98.12 -2376.45,0.15 -3637.71,-91.34 -388.25,-28.25 -750.76,-72.18 -953.1,-150.13 -202.5,-78.13 -244.67,-190.1 -340.79,-334.12 -96.16,-143.67 -245.93,-319.35 -300.8,-426.66 -103.79,-202.99 125.12,-162.64 300.37,33.27 72.63,81.19 116.92,174.64 213.76,170.71 96.66,-3.99 245.87,-105.53 385.12,-170.53 139.39,-64.98 268.8,-93.25 406.69,-145.83 138.09,-52.56 284.68,-129.25 411.02,-186.33 408.67,-184.59 199.26,-16.02 128.89,119.54 -168.76,325.11 210.14,416.5 326.52,524.24 54.77,50.76 -13.92,73.79 -122.91,51.1 -219.15,-45.45 -518.84,-238.12 -803.79,-223.19 -178.05,9.34 -446.09,123.96 -417.36,301.89 32.2,199.38 294.61,213.87 466.52,169.77 108.42,-27.71 204.01,-79.04 317.26,-68.42 194.34,18.06 420.14,214.73 824.39,143.83 280.3,-49.17 568.69,-247.64 1053.97,-290.8 421.06,-37.45 1186.33,85.67 1713.39,46.98 242.68,-17.83 374.74,-70.94 533.61,-92.73 179.7,-24.56 685.74,-15.68 828.26,50.03 138.33,63.77 248.89,256.66 595.87,283.14 378.7,28.9 523.05,-153.44 677.52,-144.55 193.11,11.1 353.44,185.57 641.39,-32.43 75.28,-57.06 123.54,-114.12 225.45,-139.53 286.53,-71.34 672.94,116.15 910.59,295.96 133.62,101.15 219.57,199.65 337.17,254.92 219.63,103.11 514.85,57.44 402.66,-165.29 -42.21,-83.71 -141.34,-171.21 -152.65,-235.66 -11.15,-64.25 65.42,-105.3 152.58,-75.96 182.1,61.47 236.61,259.73 444.1,126.19 45.11,-29.01 77.54,-50.42 117.5,-1.44 39.97,48.96 87.49,167.94 170.71,234.75 83.23,66.78 202.01,81.16 246.98,26.81 44.85,-54.53 15.73,-177.51 19.31,-296.69 15.61,-519.85 454.68,-249.98 267.87,114.33 -60.86,118.45 -187.47,235.31 -208.24,317.76 -20.96,82.43 64.26,130.51 153.1,144.36 88.81,14.03 181.28,-6.29 305.01,-38.54 123.73,-32.23 279.03,-76.32 475.35,-112.34 196.48,-36.01 434.11,-63.76 655.38,-134.67 437.57,-140.14 608.07,-341.49 891.74,-65.02 73.62,71.84 127.05,135.02 213.59,170.68 86.54,35.64 205.97,43.9 288.87,0.34 197.62,-103.75 174.63,-521.64 995.59,-335.76 398.35,90.2 543.49,198.64 868.89,-133.96 104.61,-106.77 195.12,-221.81 324.52,-250.25 129.39,-28.28 297.74,29.87 397.74,108.16 221.17,172.99 103.78,467.29 201.19,798.44 50.86,172.99 159.13,343.64 178.33,474.9 19.19,131.42 -50.76,223.6 15.23,395.34 66,171.73 268.1,422.68 493.92,591.73 225.78,169.03 475.47,255.8 651.69,267.84 176.39,11.89 279.37,-51.29 320.81,-272.74 41.66,-221.6 21.84,-601.65 -56.48,-913.45 -78.34,-311.62 -215.02,-554.66 -302.14,-754.12 -184.25,-421.5 -135.11,-504.76 -609.13,-583.63 -139.09,-23.22 -263.26,-44.47 -273.12,-92.89 -22.33,-109.79 387.4,-244.03 498.8,-333.06 88.95,-70.91 160.88,-181.99 390.92,-251.68 196.3,-59.46 507.87,-88.89 828.01,-89.56l987.51 819.4c-4.98,-49.47 106.24,-114.8 216.01,-157.72 109.6,-42.95 -105.71,59.59 -10.34,-2.79 95.55,-62.15 178.11,-166.23 413.89,-213.14 235.75,-46.92 624.91,-36.82 996.83,11.21 372.02,48.24 1899.36,-1136.14 2265.86,-1076.45 366.52,59.7 744.78,93.12 1120.3,64.7 375.64,-28.37 748.72,-118.57 1180.87,-124.74 432.13,-6.01 923.03,71.91 1321.88,64.95 398.72,-7.14 704.95,-99.45 1036.01,-134.67 799.2,-84.89 1429.7,153.3 1874.01,114.64 258.17,-22.49 488.58,-131.81 674.01,-186.86 185.72,-54.95 326.43,-55.66 510.74,-75.49 503.63,-54.09 623.86,-109.62 1123.8,33.19 158.59,45.48 313.76,93.01 415.69,58.04 211.91,-72.87 197.56,-531.69 -118.14,-654.65 -330.27,-128.64 -903.57,52.65 -1154.78,-30.65 -120.3,-39.86 -210.08,-137.28 -141.12,-263.64 68.76,-126.21 296.41,-281.13 546.59,-308.75 427.49,-47.21 946.23,286.51 1369.25,249.35 164.98,-14.47 290.43,-89.5 412.49,-161.96 599.88,-356.31 500.26,-346.8 799.56,34.67 198.3,252.77 302,205.41 479.62,-43.86 73.09,-102.66 138.22,-210.44 232.69,-179.54 166.08,54.19 413.05,532.59 669.16,517.29 212.62,-12.7 353.22,-360.15 450.69,-288.47 115.69,85.08 41.36,328.1 775.93,547.79 272.23,81.41 397.33,99.12 601.8,15.85 86.59,-35.25 201.19,-86.78 258.13,-51.43 56.79,35.16 55.96,157.4 -8.03,275.15 -64,117.74 -191.46,230.79 -171.26,325.64 35.94,169 639.13,338.08 803.79,206.01 87.87,-70.41 83.34,-225.94 35.63,-349.55 -89.65,-231.93 -293.51,-320.41 156.31,-312.59 299.97,5.21 652.35,48.96 954.32,-4.84 183.96,-32.78 393.83,-101.74 585.02,-110.34 386.35,-17.32 806.29,239.1 -22.66,-762 -481.62,-581.73 -1406.24,-1607.43 -1913.6,-2169 -507.22,-561.56 -596.99,-658.97 -652.99,-713.54 -56.01,-54.38 -78.06,-65.85 -170.49,-76.89 -635.83,-75.98 -853.48,100.76 -1184.08,110.96 -126.14,3.96 -248.79,-23.57 -384.21,-18.52 -247.98,9.23 -613.08,144.16 -859.12,61.69 -169.84,-56.92 -334.13,-257.83 45.64,-279.77 114.34,-6.61 239.51,8.63 308.03,-27.5 68.72,-36.08 80.63,-123.54 37.23,-194.51 -43.41,-70.94 -142.1,-125.36 -222.43,-194.92 -283.4,-245.38 50.22,-226.65 306.19,-121.24 351.4,144.7 375.8,300.27 937.89,355.36 203.69,19.96 453.25,24.48 604.63,16.66 151.42,-7.99 204.46,-28.18 198.2,-71.55zm-21707.73 7061.3c-213.76,-484.17 -338.61,-220.42 -798.67,-257.39 -217.51,-17.47 -384.22,-102.57 -599.39,-9.54 -70.98,30.7 -126.7,74.28 -199.19,104.98 -111.74,47.19 -413.46,115.36 -541.54,97.95 -323.75,-44.01 -541.5,-336.13 -874.91,-206.66 -95.75,37.18 -196.41,106.84 -252.87,199.12 -148.55,242.89 59.13,421.97 282.5,386.67 219.3,-34.66 344.01,-306.08 414.39,-303.8 84.69,2.75 47.18,251.21 108.42,326.29 113.52,139.19 513.41,105.1 721.92,115.74 157.21,8.02 299.06,31.57 437.26,19.87 138.18,-11.51 272.5,-58.16 369.47,-49.67 96.84,8.61 156.29,72.55 280.43,107.92 195.41,55.82 665.51,59.8 728,-182.4 25.65,-99.11 -23.61,-231.06 -75.83,-349.09zm-9603.78 -317.61c-64.93,-345.55 -759.59,-382.92 -1048.83,-297.88 -258.14,75.9 -149.45,264.41 131.81,360.52 164.13,56.07 406.87,93.41 567.14,114.39 160.43,20.97 238.04,25.72 288.86,-5.87 50.83,-31.59 74.51,-99.57 61.02,-171.17zm-18802.24 -694.89c368.07,39.91 594,165.04 1057.92,92.67 180.91,-28.22 135.77,-136.07 271.6,-234.6 52.13,-37.8 105.66,-31.31 134.07,13.15 59.88,93.49 5.31,283.29 23.76,342.77 32.05,103.28 325.05,109.86 474.44,95.22 158.05,-15.5 355.5,-60.69 486.19,-73.3 130.87,-12.41 194.81,7.92 278.3,-13.51 83.52,-21.24 186.6,-84.25 326.93,-102.06 382.07,-48.04 648,183.99 819.15,165.43 109.54,-11.89 221.78,-105.33 396.98,-169.06 175.36,-63.73 413.66,-97.78 596.23,-88.24 395.96,20.69 508.35,241.67 850.14,354.82 180.2,59.58 423.96,89.1 598.9,85.14 647.28,-14.63 28.41,-429.54 -61.48,-611.73 -70.7,-143.27 148.2,-133.28 282.53,2.69 70.7,71.49 113.67,177.51 183.55,255.09 70.03,77.79 167.13,127.28 216.95,82.99 102.06,-90.65 -13.92,-366.72 374.11,-319.72 112.75,13.66 235.74,47.34 319.84,76.49 249.25,86.35 227.43,267.61 353.85,294.68 123.74,26.5 239.01,-200.28 401.49,-237.81 216.91,-50.11 507.15,85.56 708.46,73.25 216.7,-13.24 446.93,-219.72 706.23,-188.3 118.76,14.38 225.74,84.05 332.96,93.93 164.09,15 404.24,-138.07 551.32,-90.55 66.14,21.37 50.43,125.78 348.3,92.51 94.4,-10.63 181.67,-37.79 228.15,5.58 50.95,47.55 103.77,327.56 -153.74,315.05 -126.71,-6.15 -422.76,-104.53 -591.03,-131.4 -117.66,-18.79 -419.12,-38.02 -528.88,-7.54 -265.68,73.77 -417.7,534.79 -862.8,559.56 -142.41,7.91 -332.46,-15.11 -510.51,-11.35 -177.88,3.59 -343.59,33.86 -534.15,42.31 -414.05,18.21 -802.18,-62.14 -1130.95,-61.54 -469.26,0.86 -594.07,160.88 -1343.66,70.07 -175.25,-21.23 -340.38,-53.82 -498.78,-120.23 -277.29,-116.22 -506.32,-332.2 -732.7,-299.73 -94.73,13.68 -196.36,64.45 -222.49,111.62 -44.08,79.61 175.33,202.51 62.71,202.7 -172.31,0.3 -641.13,-252.87 -894.31,-306.56 -173.56,-36.89 -309.01,-9.19 -499.15,24.5 -190.1,33.49 -435.08,73.11 -632.84,93.27 -300.72,30.66 -569.57,6.15 -741.75,212.28 -128.68,154.06 -120.9,297.57 -556.99,200.02 -554.14,-123.96 -404.45,-362.38 -453.59,-560.13 -35.87,-144.32 -240.12,-119.17 -442.43,-219.6 -82.32,-40.87 -189.51,-132.59 7.16,-110.81zm-66.93 667.88c-99.91,-136.03 -295.67,-133.66 -475.39,-86.05 -142.63,37.79 -482.23,178.69 -209.54,286.24 250.52,98.81 888.82,77.47 684.93,-200.2zm-9025.68 284.99c-118.41,-139.13 54.69,-301.4 172.88,-381.86 74.59,-50.76 150.51,-85.69 217.6,-121.69 222.35,-119.27 223.1,-41.48 489.53,93.97 361.14,183.59 423,-77.28 600.3,-97.22 264.95,-29.79 429.13,534.42 1087.08,134.81 223.59,-135.8 510.16,-424.08 803.5,-283.38 131.73,63.18 247.89,215.66 421.92,277.76 174.04,61.93 405.67,33.3 558.88,-20.54 270.81,-95.14 292.97,-271.42 697.26,-189.23 153.25,31.15 338.69,97.56 564.17,156.43 437.22,113.97 863.57,170.71 1278.93,113.93 134.44,-18.19 209.03,-40.69 248.14,-132.82 39.08,-91.97 42.72,-253.53 -71.62,-353.2 -114.34,-99.7 -346.52,-137.13 -395.87,-218.77 -49.2,-81.47 84.43,-206.96 187.85,-203.04 170.96,6.46 311.42,445.45 462,651.63 160.66,220 198.58,-21.72 238.37,-204.14 23.42,-107.3 45.85,-205.24 143.54,-246.83 97.7,-41.76 270.65,-27.03 428.82,-14.25 158.17,12.81 301.39,23.95 353.32,102.62 51.84,78.67 12.23,225.05 -81.94,317.38 -199.26,195.73 -509.22,116.68 -595.74,198.59 -90.37,85.57 -81.64,343.96 -720.45,350.18 -240.86,2.34 -531.44,-39.25 -822.9,-43 -600.94,-7.96 -1112.5,133.36 -1682.12,167.45 -982.08,58.78 -948.76,-279.75 -1239.93,-338.95 -324.67,-66.02 -790.15,389.79 -1145.53,358.46 -332.58,-29.33 -491.66,-371.26 -822.03,-194.06 -76.55,41.06 -129.36,85.18 -254.21,126.56 -196.59,65.36 -657.08,158.65 -858.62,122.64 -109.36,-19.46 -212.28,-69.84 -263.15,-129.44zm-5241.75 -5039.61c92.1,-8.55 323.45,-173.88 374.36,-294.71 116.26,-275.93 -199.46,-412.84 -425.74,-440.25 -133.75,-16.19 -227.54,16.55 -377.13,51.86 -149.78,35.46 -355.36,73.47 -531.17,99.4 -440.48,64.95 -427.79,46.79 -684.27,321.45 -83.12,89.2 -182.84,177.77 -171.55,242.06 11.16,64.44 133.32,104.39 266.43,112.6 471.7,29.05 953.54,-365.66 1230.41,-321.48 150.5,24.02 173.09,242.25 318.67,229.07zm65467.43 60.68c-46.94,-68.38 -97.19,-150.58 -232.15,-177.7 -252.11,-50.49 -994.2,131.61 -1203.09,-195.98 -151.45,-237.51 -56.64,-534.49 -326.1,-594.98 -140.22,-31.49 -387.72,-16.14 -607.5,-17.32 -387.71,-1.95 -974.48,-76.45 -1303.97,-18.79 -554.89,97.1 -927.22,544.81 -613.62,780.22 355.78,267.08 1452.5,262.09 1598,104.38 125.5,-136.29 -837.05,-212.61 -1065.85,-490.63 -58.57,-71.2 -44.6,-138.79 33.86,-179.21 225.41,-115.74 742.48,40.36 997.58,111.22 182.15,50.58 321.14,88.16 430.1,167.29 206.13,149.97 238.86,362.87 594.08,510.34 330.72,137.28 1184.35,285.05 1536.34,254.71 124.36,-10.7 210.5,-42.88 231.71,-86.44 21.22,-43.56 -22.47,-98.53 -69.38,-167.1zm-37734.92 -4887.14c-257.72,38.58 -546.74,231.54 -414.94,435.94 127.19,197.26 554.6,280.17 829.59,150.85 507.65,-238.75 37.25,-655.05 -414.65,-586.79zm-3050.06 -539.66c162.66,27.65 408.64,92.1 622.88,157.34 214.42,65.27 396.88,131.5 535.54,143.65 209.68,18.25 425.53,-120.82 830.48,-26.93 142.35,33.1 247.4,92.89 337.68,107.1 90.31,14.04 165.85,-17.65 225.24,-10.45 245.96,29.79 -79.92,624.35 -511.66,597.27 -134.58,-8.37 -272.16,-72.28 -407.69,-85.58 -371.58,-36.27 -676.22,280.26 -1327.34,142.88 -192.79,-40.59 -422.3,-118.73 -533.27,-250.23 -110.92,-131.51 -103.4,-316.22 -98.96,-455.81 8.67,-283.21 4.26,-373.75 327.1,-319.23zm-2595.59 42.83c323.83,-191.24 480.76,80.58 605.15,40.4 100.2,-32.36 168.27,-186.34 280.36,-202.17 149.25,-21.08 415.52,140.78 -58.56,339.17 -78.83,32.86 -143.45,47.1 -205.67,78.85 -61.88,31.98 -121.33,81.31 -230.58,104.26 -167.79,35.23 -503.65,18.22 -500.77,-202.35 0.93,-64.34 39.53,-116.2 110.07,-158.16zm-496.2 -244.18c113.32,9.65 338.57,181.4 297.96,368.22 -37.14,170.83 -330.13,111.7 -385.39,44.49 -61.46,-74.75 75.88,-193.84 69.1,-325.31 -2.37,-47.36 -24.93,-91.08 18.33,-87.39zm-8942.13 421.81c-480.03,-298.61 -808.46,18.39 -640.16,261.64 115.44,166.85 493.95,361.55 682.55,217.98 78.52,-59.78 114.63,-173.31 109.14,-262.89 -5.48,-89.6 -52.75,-155.14 -151.53,-216.73zm2208.39 161.38c-13.06,-173.67 -229.7,-371.42 -290.8,-491.47 -32.47,-63.74 -27.18,-113.58 -81.67,-138.97 -54.45,-25.57 -168.69,-26.82 -246.56,26.65 -141.76,97.51 -148.27,342.96 -248.85,360.23 -42.98,7.39 -106.23,-19.24 -173.63,-8.44 -364.81,58.01 -87.52,723.47 210.96,308.74 95.27,-132.37 64.21,-219.76 230.38,-72.75 119.31,105.56 312.71,254.14 487.94,194.43 75.06,-25.56 118.61,-95.78 112.23,-178.41zm1841.78 -56.95c-37.86,-340.19 -580.17,-330.95 -845.04,-288 -177.76,28.8 -297.77,83.54 -370.14,169.03 -262.66,311.02 226.16,650.88 704.61,620.55 136.39,-8.66 266.46,-43.22 363.42,-135.39 97.12,-92.16 161.14,-241.78 147.15,-366.19zm2067.47 1588.15c3.36,-87.67 -68.04,-209.74 -173.92,-260.32 -106.04,-50.58 -246.68,-29.88 -249.88,57.97 -3.37,87.67 130.64,242.31 236.69,292.91 105.89,50.58 183.89,-2.89 187.1,-90.57z"/>
    <path class="fil0" d="M167.9 38398.68c11317.75,7427.02 22772.1,14739.98 34666.27,21686.55 2083.01,1152.44 4142.34,-569.71 3807.65,-2611.24 -1520.06,-5136.22 -3039.8,-10272.37 -4559.72,-15408.47 -596.63,-1907.36 1043.89,-2956.01 2587.11,-3598.96 10058.97,-3620.82 20118.09,-7241.8 30177.21,-10862.62 16.58,-5.91 33.68,-11.66 50.26,-18.07 513.67,-201.28 369.72,-168.26 -60.94,-106.64 -15.79,2.3 -31.9,5.09 -47.66,7.39 -12506.06,1958.29 -24723.46,4478.7 -35996.86,7832.67 -2861.2,872.5 -3481.96,1576.43 -2543.08,4595.36 1325.69,4529.27 2651.86,9058.6 3977.87,13587.84 182.56,772.4 -63.1,1262.32 -882.87,940.43 -10355.85,-4814.13 -20711.61,-10567.32 -31067.56,-16263.26 -301.47,-107.13 -382.28,-29.57 -107.68,219.03z"/>
    <path class="fil1" d="M33665.07 34487.81l-11.16 2.3 -3123.11 888.33c-2742.69,984.4 -3122.58,1596.5 -2282.65,4536.2 1345.06,4522.93 2632.78,9064.92 3977.87,13587.84 197.02,753.25 -47.98,1262.77 -882.87,940.43 -10055.51,-4803.49 -19872.64,-10201.18 -29686.69,-15533.86 -442.51,-234.88 -949.16,-496.56 -1380.88,-729.39 -85.5,-46.99 26.14,127.04 127.44,188.82 294.82,175.59 175.59,117.16 470.37,292.71 3010.76,1793.17 6393.69,3670.27 9404.49,5463.3 6687.5,4069.97 13851.24,7842.36 22008.93,11669.97 1138.37,681.2 1592.53,-53.97 1087.26,-1621.11 -1504.8,-4931.41 -2493.74,-10096.75 -3998.7,-15028.29 -523.98,-1662.21 -192.07,-2262.6 543.23,-2713.48l3747.58 -1907.24 12.17 -9.36 -13.28 -27.15zm-28755.3 4693.83c777.54,406.35 1555.12,812.69 2332.61,1219.04 12.13,6.41 13.23,22.02 -1.09,29.41 -93.72,35.33 -187.36,70.66 -281,105.98 -38.85,14.63 -89.87,-16.92 -102.06,-23.33 -739.98,-386.63 -1479.99,-773.43 -2219.9,-1160.06 -12.18,-6.41 -12.83,-21.35 1.02,-29.57 75.11,-45.02 150.27,-90.05 225.34,-135.07 13.69,-8.22 32.88,-12.82 45.09,-6.41zm-1320.1 -2155.63c2189.35,1141.81 4378.75,2283.63 6568.1,3425.44 88.78,43.22 127.42,115.35 83.52,167.6 -104.43,123.89 -552.63,287.06 -690.49,272.59 -232.75,-24.81 -407.71,-93.49 -585.07,-106.64 -12.37,-0.83 -3.65,28.35 36.85,50.11 337.18,180.75 517.02,207.53 399.23,463.7 -134.72,210.65 -1129.96,497.87 -1466.05,325.5 -1913.54,-997.55 -3684.41,-1908 -5597.96,-2905.72 -53.55,-28.1 9.42,-95.8 42.3,-107.3 460.41,-163.33 920.66,-326.66 1381.07,-489.81 117.78,-41.57 229.73,-37.3 306.03,0.49 627.93,308.57 3154.11,1636.4 3445.6,1787.73 79.51,-26.29 159.18,-52.58 238.63,-79.04 -1232.15,-642.95 -2464.31,-1286.08 -3696.42,-1929.21 -168.41,-271.94 -336.77,-543.72 -505.2,-815.64 -16.74,-26.46 10.72,-75.09 39.87,-59.81zm7565.73 3955.36c1701.51,888.76 3386.36,1755.19 5087.65,2644.13 182.23,95.3 173.52,224.28 65.85,426.06 -147.82,266.62 -1083.96,525.73 -1509.06,280.66 -98.16,-48.58 -196.1,-97.17 -294.15,-145.76 127.14,363.23 254.28,726.45 381.42,1089.73 -573.29,-302.06 -1146.45,-604.03 -1719.69,-906.03 -164.69,-369.87 -329.48,-739.73 -494.29,-1109.6 -479.35,-246.14 -958.6,-492.45 -1437.94,-738.59 -313.8,117.48 -627.68,234.8 -941.4,352.29 -577.1,-302.16 -1154.18,-604.18 -1731.2,-906.34 561.1,-204.09 1122.41,-408.33 1683.49,-612.56 1226.91,633.42 2453.95,1266.85 3680.83,1900.12 58.8,-33.86 117.73,-67.7 176.52,-101.55 -1210.73,-634.09 -2421.44,-1268.18 -3632.12,-1902.26 227.98,-90.05 456.04,-180.26 684.08,-270.29zm5161.52 3324.15c246.71,-85.11 493.52,-170.2 740.16,-255.27 1725.61,901.88 3451.24,1803.74 5176.88,2705.74 97.76,51.09 20.69,203.34 -141.64,271.11 -587.1,225.81 -1174.2,451.6 -1761.45,677.48 -163.18,62.95 -547.66,124.64 -692.1,50.12 -1360.01,-710.08 -2720.03,-1420.16 -4080.11,-2130.22 -78.83,-213.55 -157.72,-427.04 -236.67,-640.58 -45.19,-166.68 -37.04,-234.27 229.03,-347.43 181.57,-77.34 363.08,-154.68 544.74,-232.09 560.88,288.19 1121.52,576.38 1682.17,864.58 -286.39,143.64 -572.96,287.28 -859.52,430.93 633.08,330.93 1266.02,661.88 1899.13,992.81 154.61,80.81 394.17,46.66 561.63,-22.85 290.34,-102.31 580.5,-204.62 871.02,-306.93 -1311.06,-685.75 -2622.28,-1371.58 -3933.26,-2057.4zm5824.85 3811.88c-82.33,-129.46 -127.85,-215.97 -135.41,-403 -2.8,-70.29 9.53,-212.53 115.85,-157.07 1740.89,910.59 3367.12,1728.87 5100.29,2660.34 611.41,321.56 -1210.99,862.25 -1869.56,527.73 -1680.6,-878.77 -3361.36,-1757.38 -5042.14,-2636.08 221.17,-99.49 442.35,-198.97 663.66,-298.46 1208.21,626.39 2416.41,1252.68 3624.45,1879.07 10.85,5.96 383.04,-62.07 357.36,-79.84 -965.32,-517.02 -1849.84,-975.6 -2814.51,-1492.68zm796.59 -975.08c1809.91,946.01 3619.81,1891.96 5429.73,2837.91 -400.91,-6.53 -801.68,-13.02 -1202.59,-19.57 -1662.7,-864.83 -3325.38,-1729.65 -4988.07,-2594.53 119.28,-135.42 603.19,-306.03 760.94,-223.81z"/>
    <path class="fil0" d="M67343.61 57577.11c-3277.41,-2395.63 -6419.98,-4896.13 -9359.12,-7554.88 -737.52,-840.3 -817.34,-1461.13 -1085.39,-2656.91 -1042.65,-4020.82 -1734.07,-8119.65 -2100.17,-12290.84 899.76,4008.19 1999.09,7888.1 3425.07,11557.94 339.1,897.84 535.85,1420.04 923.37,2295.52 181.84,507.08 5461.98,5807.09 8196.24,8649.18z"/>
    <path class="fil0" d="M68396.31 57321.65c3277.41,-2395.61 6419.97,-4896.13 9359.11,-7554.87 737.5,-840.3 817.34,-1461.13 1085.39,-2656.91 1042.63,-4020.82 1734.1,-8119.65 2100.17,-12290.84 -899.76,4008.19 -1999.07,7888.09 -3425.06,11557.93 -339.11,897.84 -535.85,1420.04 -923.38,2295.52 -181.81,507.08 -5461.98,5807.09 -8196.23,8649.18z"/>
    <path class="fil2" d="M57067.59 6045.51l7181.27 -25 -2098.66 873.11c-509.86,212.44 -512.98,256.02 -1084.39,257.64l-4924.22 16.48 926 -1122.23zm-14855.65 -3497.1l9145.55 -43.17 -4942.95 6249.89 -7011.97 24.5 3193.32 -4485.45 -4813 2.53 3514.28 -1537.35c343.1,-124.07 498.47,-199.86 914.77,-210.95zm32730.14 -105.38l-18023.8 49.55 -3802.92 1264.89c-1038.4,344.56 -1227.67,303.51 -1774.97,1056.6 -703.69,970.07 -1417.16,1933.29 -2125.1,2900.1 -631.03,630.38 -745.82,1025.81 30.71,1014.94l17967.08 -61.77c475.59,-1.33 930,-135.19 1384.75,-230.72 696.02,-236.44 1936.31,-511.19 2432.11,-960.6 868.93,-781.85 3114.96,-2716.07 1404.62,-2722.3l-14656.84 12.27 513.38 -716c90.59,-119.31 125.5,-139.04 307.09,-140.48l12147.93 -79.26 4195.95 -1387.22zm15042.1 4107.69c-1277.97,433.92 -8418.67,547.11 -10293.73,541.39l1808.16 -2519.17c361.91,-480.34 1087.34,-778.81 1671.84,-837.46l4837.4 -422.31 6319.77 292.19 -1209.45 1397.36 -3133.99 1548zm-9692.04 -4133.37l-3847.88 1294.08c-1568.16,528.56 -1280.84,394.47 -2204.66,1668.63l-2063.13 2838.14c-164.24,268.1 81.92,448.73 255.5,435.66l15292.43 -110.15c1964.02,-185.87 4393.31,-134.74 6207.88,-521.86 2174.88,-417.66 4275.69,-409.73 5861,-2009.82l2542.31 -2876.12c97.83,-139.79 382.26,-338.87 -9.7,-360.91l-14379.99 -672.06 -7653.76 314.41z"/>
    <path class="fil0" d="M137326.31 38398.68c-11317.75,7427.02 -22772.1,14739.98 -34666.27,21686.55 -2083.01,1152.44 -4142.34,-569.71 -3807.65,-2611.24 1520.06,-5136.22 3039.8,-10272.37 4559.72,-15408.47 596.63,-1907.36 -1043.89,-2956.01 -2587.11,-3598.96 -10058.97,-3620.82 -20118.09,-7241.8 -30177.21,-10862.62 -16.58,-5.91 -33.68,-11.66 -50.26,-18.07 -513.67,-201.28 -369.72,-168.26 60.94,-106.64 15.79,2.3 31.9,5.09 47.66,7.39 12506.06,1958.29 24723.46,4478.7 35996.86,7832.67 2861.2,872.5 3481.96,1576.43 2543.08,4595.36 -1325.69,4529.27 -2651.86,9058.6 -3977.87,13587.84 -182.56,772.4 63.1,1262.32 882.87,940.43 10355.85,-4814.13 20711.61,-10567.32 31067.56,-16263.26 301.47,-107.13 382.28,-29.57 107.68,219.03z"/>
    <path class="fil1" d="M103829.14 34487.81l11.16 2.3 3123.11 888.33c2742.69,984.4 3122.58,1596.5 2282.65,4536.2 -1345.06,4522.93 -2632.78,9064.92 -3977.87,13587.84 -197.02,753.25 47.98,1262.77 882.87,940.43 10055.51,-4803.49 19872.64,-10201.18 29686.69,-15533.86 442.51,-234.88 949.16,-496.56 1380.88,-729.39 85.5,-46.99 -26.14,127.04 -127.44,188.82 -294.82,175.59 -175.59,117.16 -470.37,292.71 -3010.76,1793.17 -6393.69,3670.27 -9404.49,5463.3 -6687.5,4069.97 -13851.24,7842.36 -22008.93,11669.97 -1138.37,681.2 -1592.53,-53.97 -1087.26,-1621.11 1504.8,-4931.41 2493.74,-10096.75 3998.7,-15028.29 523.98,-1662.21 192.07,-2262.6 -543.23,-2713.48l-3747.58 -1907.24 -12.17 -9.36 13.28 -27.15zm25279.44 5014.01c1806.42,-952.68 3612.76,-1905.38 5419.13,-2858.1 -233.02,326.29 -465.94,652.52 -698.96,978.81 -1656,877.59 -3311.97,1755.17 -4968.01,2632.74 -43.74,-175.07 90.59,-670.29 247.85,-753.45zm350.33 1209.38c-153.31,-5.74 -250.37,-17.39 -408.62,-117.37 -59.44,-37.6 -169.54,-128.51 -63.51,-184.55 1738.06,-915.98 3335.04,-1789.98 5085.91,-2687.75 611.86,-320.69 22.15,1486.44 -627.16,1838.6 -1677.65,884.41 -3355.24,1769.05 -5032.91,2653.65 43.68,-238.53 87.38,-477.09 131.16,-715.76 1201.66,-638.88 2403.23,-1277.78 3604.78,-1916.52 11.09,-5.55 166.42,-350.56 137.2,-339.49 -973.71,501.03 -1853.42,968.74 -2826.83,1469.2zm-6445.23 2630.31c70.03,-251.4 140.14,-502.89 210.14,-754.21 1722.22,-908.32 3444.44,-1816.72 5166.77,-2725.01 97.56,-51.47 179.13,98.43 142.74,270.54 -147.49,611.49 -294.99,1222.96 -442.51,1834.63 -40.85,170.08 -208.37,521.59 -351.74,598.16 -1356.75,716.31 -2713.5,1432.63 -4070.24,2149 -220.54,-56.37 -441.09,-112.64 -661.69,-168.92 -162.87,-57.44 -213.89,-102.54 -155.94,-385.8 39.44,-193.38 78.83,-386.7 118.27,-580.19 555.69,-298.07 1111.25,-595.92 1666.83,-893.76 -44.38,317.3 -88.85,634.74 -133.32,952.19 631.89,-333.22 1263.69,-666.3 1895.61,-999.54 154.29,-81.38 262.22,-297.97 300.1,-475.28 80.63,-297.09 161.17,-594.03 241.92,-891.27 -1308.93,689.83 -2617.99,1379.75 -3926.93,2069.46zm-5667.09 2361.22c1697.74,-895.95 3367.62,-1790.88 5065.37,-2686.54 181.92,-95.9 283.17,-15.5 388.13,187.72 135.53,273.06 -182.75,1190.78 -625.86,1401.55 -95.72,53.21 -191.32,106.26 -287,159.37 371.2,101.57 742.38,203.18 1113.6,304.8 -574.16,300.38 -1148.18,600.71 -1722.27,901.09 -397.97,-74.44 -796.01,-148.81 -1194.03,-223.17 -474.79,254.81 -949.69,509.45 -1424.46,764.27 -81.47,325 -163.13,649.99 -244.56,974.95 -576.42,303.47 -1152.7,607 -1729.06,910.4 150.61,-577.74 301.21,-1155.76 451.68,-1733.6 1218.06,-650.27 2436.21,-1300.64 3654.13,-1950.98 5.51,-67.62 11.12,-135.34 16.63,-202.94 -1209.42,636.55 -2418.86,1273.11 -3628.22,1909.65 55.32,-238.79 110.56,-477.74 165.93,-716.57zm-7551.81 3981.86c2183.02,-1153.83 4366.09,-2307.72 6549.14,-3461.56 85.98,-48.53 167.29,-39.4 185.38,26.43 42.68,156.31 -77.5,617.9 -167.68,723.17 -152.57,177.48 -308.45,282.5 -419.99,421.04 -7.7,9.72 21.26,19.11 62.16,-1.86 340.26,-174.94 464.41,-307.76 608.39,-65.35 96.91,230.52 -231.77,1212.84 -564.5,1391.61 -1907.69,1008.71 -3662.67,1949.44 -5570.47,2958.07 -53.55,28.12 -73.53,-62.15 -64.31,-95.74 126.97,-471.73 253.88,-943.33 381,-1414.97 32.66,-120.54 99.74,-210.27 174.18,-251.62 610.56,-341.67 3137.97,-1667.15 3428.05,-1821.17 23.49,-80.37 47.09,-160.88 70.42,-241.29 -1228.88,649.17 -2457.93,1298.24 -3686.92,1947.29 -319.47,-15.79 -638.8,-31.52 -958.26,-47.28 -31.29,-1.25 -55.74,-51.47 -26.59,-66.78zm2523.98 137.34c775.99,-409.31 1551.98,-818.65 2327.95,-1227.9 12.17,-6.34 25.64,1.61 23.58,17.6 -24.13,97.22 -48.22,194.36 -72.32,291.5 -10,40.28 -64.95,64.37 -77.15,70.78 -738.44,389.59 -1477.02,779.08 -2215.42,1168.61 -12.18,6.38 -24.86,-1.56 -23.76,-17.64 5.61,-87.38 11.2,-174.83 16.78,-262.2 1.01,-15.94 8.12,-34.33 20.33,-40.74z"/>
    <path class="fil0" d="M105355.39 15892.38c-6.44,-43.28 -72.23,-109.54 -147.79,-216.63 -209.94,-297.81 -313.34,-552.33 -728.62,-717.65 -222.95,-88.82 -539.72,-153.41 -1340.05,-317.05 -800.35,-163.44 -2084.53,-425.96 -2961.58,-587.56 -877.26,-161.3 -1347.51,-221.87 -1774.26,-256.47 -426.71,-34.59 -809.96,-43.34 -1170.35,-88.81 -360.26,-45.41 -697.81,-127.72 -969.45,-143.53 -271.68,-15.84 -477.72,34.58 -681.98,46.57 -204.17,12.22 -406.42,-13.96 -648,-13.32 -241.59,0.61 -522.13,27.76 -835.32,5.62 -313.26,-21.81 -659.1,-93.11 -910.21,-194.63 -250.97,-101.33 -406.96,-232.99 -543.74,-324.92 -420.06,-282.2 -374.25,30.48 -540.19,159.02 -83.71,64.83 -208.91,49.59 -383.98,39.41 -171.02,-10.04 -1033.34,-42.12 -1138.3,-139.64 -75.38,-70.03 439.41,-104.38 542.17,-287.36 48.22,-85.84 31.64,-211.99 -63.42,-284.84 -94.88,-72.78 -268.08,-92.27 -385.72,-70.36 -267.23,49.68 -346.87,372.62 -1085.67,300.46 -203.75,-19.81 -492.18,461.74 -723.55,442.06 -231.2,-19.61 -415.2,-15.94 -616.35,-48.22 -201.13,-32.28 -419.29,-100.47 -656.12,-166.68 -236.83,-66.06 -547.84,171.74 -768.14,202.89 -421.06,59.33 -605.13,405.33 -1243.1,381.19 -275.94,-10.44 -639.26,-85.48 -1036.17,-190.79 -290.13,-76.86 -806.31,182.5 -1192.71,291.03 -46.61,-8.37 -93.98,-16.86 -142.06,-25.22 -209.35,-36.23 -432.55,-69.38 -628.85,-43.79 -140.18,-27.19 -267.67,-40.57 -399.32,-37.68 -248.76,5.36 -512.35,68.6 -687.18,116.3 -174.86,47.73 -260.99,79.91 -289.56,144.4 -50.79,114.24 55.75,251.11 249.04,275.38 -595.25,97.98 -1772.27,-173.43 -2400.21,-284.41 -662.68,-117.12 -931.17,-91.33 -1496.7,123.92 -169.35,64.44 -251.89,104.77 -273.97,171.39 -48.81,146.61 143.03,311.08 466.77,223.22 200.25,-54.34 452.8,-238.63 479.35,-92.91 7.62,41.75 -10.21,96.32 57.39,167.43 84.69,89.08 475.62,300.27 286.3,308.55 -220.51,9.63 -401.78,-232.94 -554.71,-274.91 -102.31,-28.07 -209.11,15.53 -375.26,20.56 -166.01,5.05 -391.21,-28.44 -562.62,-1.99 -171.22,26.48 -288.83,112.9 -375.9,111.82 -87.23,-1.27 -144.07,-89.83 -131.2,-211.01 24.03,-226.49 259.79,-482.68 -411.95,-654.35 -211.01,-53.82 -443.53,-75.62 -599.31,-53.65 -155.76,21.98 -234.95,88.05 -196.67,180.76 59.67,144.54 469.71,398.43 273.3,429.7 -67.24,10.64 -197.38,-11.34 -285.54,-59.77 -88.14,-48.41 -134.4,-123.31 -221.55,-181.1 -87.15,-57.77 -215.17,-98.46 -312.21,-62.98 -171.06,62.55 -223.24,335.72 -388.32,255.09 -60,-29.34 -130.7,-100.81 -297.44,-146.18 -166.58,-45.34 -429.36,-64.59 -629.25,-54.16 -323.86,16.79 -524.08,129.99 -773.13,-30.76 -90.06,-58.14 -165.44,-142.77 -291.89,-142.4 -229.45,0.67 -501.34,230.26 -778.7,220.38 -278.2,-9.92 -346.83,-108.07 -664.56,79.95 -106.01,62.82 -222.83,143.12 -332.02,151.78 -109.39,8.8 -211.01,-53.84 -209.45,-126.03 3.05,-133.38 364.41,-303.63 403.77,-486.07 68.66,-318.28 -962.98,-205.31 -1183.52,-162.35 -480.52,93.6 -796.56,384.55 -1233.64,310.04 -345.92,-58.97 -545.57,-315.3 -981.82,-219.6 -368.9,80.92 -371.41,203.71 -869.87,143.31 -246.68,-29.9 -630.31,-101.71 -884.46,-116.8 -566.42,-33.46 -485.15,228.68 -708.12,263.56 -216.65,33.9 -475.32,-145.86 -911.26,-62.99 -171.89,32.61 -383.87,101.37 -499.71,87.34 -145.54,-17.64 -216.66,-226.12 162.76,-370.68 125.36,-47.71 279.86,-85.53 388.52,-173.2 281.21,-226.8 116,-549.6 -180.65,-566.35 -310.78,-17.54 -540.93,301.24 -753.41,292.72 -199.18,-7.99 -522.15,-257.88 -906.93,-216.91 -152.04,16.22 -285.43,81.92 -267.97,172.11 37.65,194.63 589.9,380.69 675.9,437.47 75.92,50.22 104.98,116.65 192.74,196.56 87.9,79.94 234.41,173.18 268.81,246.46 34.24,73.45 -43.64,127.08 -172.34,120.79 -128.87,-6.12 -308.44,-72 -475.51,-114.31 -166.92,-42.09 -321.49,-60.83 -445.6,-110.5 -124.1,-49.68 -217.87,-130.33 -307.42,-109.66 -89.35,20.56 -174.49,142.6 -286.91,235.85 -333.21,277.06 -517.23,91.82 -393.04,-94.84 71.61,-107.67 251.75,-218.04 353.74,-328.4 102.06,-110.53 125.8,-220.89 43.56,-296.87 -335.83,-310.6 -1751.48,122.74 -2156.95,248.51 -211.65,65.54 -343.06,112.71 -499.24,81.19 -302.68,-61.06 -575.37,-346.66 -811.86,-375.32 -343.71,-41.64 -531.14,246.33 -876.12,315.43 -461.15,92.38 -1063.36,-121.58 -1438.4,-142.73 -557.68,-31.45 -884.53,350.82 -1443.26,187.09 -128.37,-37.61 -218.25,-98.83 -311.99,-94.5 -93.78,4.49 -191.5,74.36 -213.25,166.16 -40.64,171.4 198.49,447.69 130.53,557.18 -87.82,141.46 -539.06,-33.38 -669.23,-74.71 -396.1,-125.77 -419.63,-23.58 -747.11,-21.39 -147.59,1.08 -312.73,-31.5 -388.28,-113.05 -75.57,-81.54 -61.73,-212.06 -102.7,-336.65 -41.02,-124.57 -136.71,-243.21 -225.89,-367.24 -153.93,-214.28 -316.9,-498.26 -563.86,-584.54 -268.43,-93.78 -466.43,80.05 -443.61,210.66 11.15,64.25 85.14,104.77 135.31,170.65 150.4,197.42 -14.94,321.38 -153.42,226.85 -205.83,-140.49 -164.08,-570.58 -1011.96,-673.28 -174.35,-21.12 -1069.54,-75.65 -1172.64,-10.06 -58.18,37.08 17.85,115.59 117.58,168.5 271.15,144.16 425.19,50.79 344.62,608.3 -11.17,77.41 -24.47,145.08 9.28,224.66 127.39,300.42 526.3,197.71 724.67,232.57 192.06,33.75 161.75,230.5 -2.94,254.56 -82.55,12.06 -206.66,-9.35 -321.23,-7.54 -360.87,5.96 -694.58,203.75 -761.7,-535.93 -13.77,-152.84 -7.25,-271.64 -80.89,-343.48 -73.62,-71.83 -227.52,-96.85 -364.74,-78.83 -241.43,31.67 -475.78,215.7 -758.95,203.8 -212.08,-8.91 -415.57,-149.54 -614.45,-52.2 -140.63,68.83 -257.64,276.16 -497.07,175.73 -187.84,-78.79 -302.02,-268.95 -620.12,-169.56 -351.51,109.82 -361.8,409.18 -260.44,497.23 145.41,126.31 567.68,-59.02 707.9,-5.43 113.86,43.52 91.6,325.98 326.84,322.78 240.9,-3.28 416.87,-300.34 605.7,-348.37 231.65,-58.91 1144.67,250.07 857.03,431.15 -83.69,52.75 -267.98,87.14 -448.29,84.25 -180.16,-3.02 -356.5,-43.21 -526.08,-32.37 -169.75,11 -332.88,72.91 -522,68.95 -189.1,-3.95 -404.47,-74.14 -596.83,-75.39 -344.28,-2.26 -630.72,222.85 -1012.6,154.28 -162.36,-29.15 -328.27,-112.16 -422.56,-186.49 -94.58,-74.53 -117.59,-140.24 -186.12,-230.42 -121.18,-159.06 -378.81,-379.41 186.42,-310.92 181.27,21.96 392.42,72.7 549.01,44.46 321.79,-58.11 520.61,-502.18 -412.03,-484.25 -534.37,10.27 -811.17,90.05 -1301.33,182.21 -628.36,118.14 -831.4,6.48 -1163.15,41.62 -272.73,28.89 -273.87,193.6 -516.99,-34.2 -84.82,-79.57 -187.19,-192.62 -336.04,-235.99 -262.2,-76.25 -833.89,81.45 -910.89,273.63 -40.81,102.11 42.31,225.58 106.99,296.31 83.31,91.12 209.2,113.58 -224.17,183.65 -122.42,19.81 -237.97,30.97 -300.56,111.47 -62.95,80.62 -72.57,230.43 -21.77,318.45 102.81,178.39 586.75,135.19 730.48,35.07 104.09,-72.52 135.66,-200.73 201.62,-227.37 66.08,-26.65 166.41,48.42 290.54,69.84 124.31,21.26 272.12,-11.15 276.1,-76.7 3.84,-65.7 -135.96,-164.51 -139.15,-221.6 -2.84,-56.88 131.11,-72.19 271.67,-36.21 280.31,71.76 540.66,316.75 969.76,334.68 353.71,14.78 756.5,-129.53 1083.76,-60.71 365.68,76.89 448.97,293.1 147.94,335.75 -155.76,22.15 -411.22,-8.79 -717.61,-42.83 -859.99,-95.52 -1124.69,-85 -1959.77,61.61 -275.91,48.43 -496.48,84.63 -782.72,87.71 -286.12,3.08 -638.22,-27.01 -858.31,6.14 -390.93,58.86 -343.79,304.51 -825.65,293.46 -192.17,-4.49 -458.19,-49.32 -618.14,-74.89 -159.75,-25.73 -213.12,-32.2 -560.35,290.77 -347.28,323.16 -988.38,975.57 -1306.85,1311.54 -318.62,335.91 -314.74,355.33 -296.27,407.92 78.49,223.4 236.3,309.53 514.84,396.05 659.65,204.89 1065.12,76 1610.68,191.85 180.19,38.27 395.27,101.41 571.18,34.57 136.41,-51.84 344.99,-274.24 421.92,-203.61 35.57,32.57 31.08,132.67 -9.61,231.67 -40.65,98.84 -117.28,196.59 -212.14,298.52 -95.16,101.7 -208.73,207.56 -409.77,230.42 -200.99,22.7 -489.47,-37.23 -783.13,-79.19 -1186.26,-169.13 -1140.1,74.47 -1789.35,16.24 -236.3,-21.19 -947.17,-178.95 -1087.98,-154.05 -9.08,1.65 -2725.06,2708.65 -2968.21,2957.73 -574,588.33 -660.59,609.2 -538.11,646.11 122.48,36.91 453.91,89.64 658.22,149.03 204.48,59.42 386.62,156.99 534.94,206.5 148.2,49.33 262.46,50.57 414.42,65.89 249.61,25.15 604.7,101.13 812.36,29.12 87.41,-30.27 165.28,-83.73 279.56,-110.91 425.69,-100.99 1127.57,215.23 1586.47,280.46 584.35,83.05 1324.89,-313.54 1818.31,-119.76 279.66,109.83 -212.67,242.14 -354.39,275.06 -527.39,122.52 -907.2,-50.66 -1398.02,101.22 -265.78,82.25 -412.2,279.7 -516.94,164.02 -107.4,-118.63 -94.42,-361.44 -531.2,-382.18 -129.21,-6.14 -627.36,31.65 -703.28,103.53 -50.03,47.52 -10.6,127.8 67.43,187.58 77.87,59.77 194.18,99.02 219.79,168.31 41.19,111.13 -158.84,299.77 36.72,391.55 54.48,25.57 120.54,27.19 196.55,48.99 169.21,48.56 438.29,220.32 622.55,172.97 205.09,-52.71 300.7,-359.23 724.75,-418.91 192.4,-27.01 448.5,-2.19 768.08,20.67 319.57,23.04 702.64,44.28 1047.3,57.78 344.51,13.28 650.91,19.05 853.65,-47.75 307.05,-101.04 457.55,-426.37 37.44,-382.56 -139.8,14.59 -308.14,69.7 -446.78,71.68 -336.43,4.99 -367.84,-264.28 -138.74,-422.7 348.67,-241.09 1458.77,-174.8 1885.67,-130.38 181.58,18.89 341.37,44.46 469.58,56.88 128.07,12.41 224.19,11.47 306.87,27.71 82.5,16.37 151.14,49.85 215.8,7.17 64.8,-42.3 125.54,-160.92 200.28,-211.7 180.54,-122.72 336.34,148.16 259.15,308.4 -81.07,168.27 -462.45,160.27 -659.16,168.66 -153.97,6.7 -329.72,16.75 -463.96,-21.39 -246.44,-70.15 -320.18,-276.78 -438.86,-147.63 -44.15,48.08 -95.7,136.29 -189.2,194.26 -201.9,125.29 -406.88,68.61 -467.01,204.52 -87.67,198.18 22.39,402.15 285.89,396.58 342.2,-7.23 549.95,-287.98 641.17,-340.96 67.24,-38.91 138.51,-30.28 276.95,-0.91 386.58,81.98 1009.58,222.53 1438.43,227.7 398.83,4.82 241.54,-176.23 230.76,-444.14 -14.37,-357.25 263.73,-446.25 611.03,-426.3 197.38,11.32 414.57,62.8 491.46,131.92 76.87,68.97 13.58,155.91 -75.47,201.65 -195.49,100.44 -546.77,5.14 -681.08,122.07 -123.36,107.4 -29.75,326.39 -192.45,423.62 -48.2,28.8 -110.23,46.43 -167.11,99.34 -110.28,102.79 -219.3,357.7 48.45,396.09 139.3,19.98 383.45,-13.35 562.73,-86.09 363.99,-147.5 455,-453.21 770.84,-570.51 159.74,-59.42 377.64,-70.76 506.12,-33.14 128.23,37.44 167.34,124.04 128.46,207.59 -82.13,175.63 -432.03,282.47 -328.78,403.79 113.62,133.53 540.86,236.73 799.56,93.78 326.57,-180.45 221.41,-500.99 254.06,-608.15 23.2,-75.79 99.11,-110.72 135.36,-197.66 97.71,-234.2 -72.49,-464.83 201.99,-513.63 147.35,-26.26 429.19,-17.28 688.62,-51.86 259.65,-34.73 496.52,-113.07 653.67,-175.89 157.1,-62.65 234.49,-110 275.6,-73.47 41.45,36.39 46.64,156.63 27.48,251.87 -41.59,207.57 -194.81,284.31 -260.78,415.33 -34.29,68.22 -42.85,149.05 -136.66,181.81 -170.58,59.43 -494.9,-41.36 -674.65,204.55 -52.86,72.36 -73.31,151.76 -14.51,250.04 58.6,98.44 196.77,215.86 327.52,288.39 130.57,72.53 254.19,100.09 480.94,89.65 525.77,-23.8 802.17,-123.53 1433.72,-125.17 280.06,-0.72 706.58,6.85 1055.54,-20.17 348.94,-26.85 620.31,-88.41 870.46,-92.74 250.28,-4.33 479.33,48.58 783.12,79.19 303.8,30.42 682.01,38.5 976.43,14.36 294.6,-24.11 505.23,-80.47 893.04,-77.43 387.98,2.89 953.23,65.16 1291.89,77.76 338.77,12.78 450.95,-23.96 1035.04,-25.58 583.88,-1.65 1639.68,31.8 2284.47,24.97 644.62,-6.89 878.39,-54.23 1254.98,-87.19 376.79,-32.95 896.42,-51.86 1399.18,-82.29 502.73,-30.27 988.72,-72.22 1459.75,-115.81 471.2,-43.75 927.42,-89.14 1379.35,-94.18 451.93,-5.06 899.55,30.39 1170.68,28.59 454.36,-3.01 405.3,-114.9 687.93,-17.47 259.99,89.63 438.51,156.87 693.68,-70.03 205.31,-182.56 281.58,-378.88 647.89,-377.91 408.19,1.08 797.03,397.08 1143.35,626.28 323.8,214.28 212.82,-73.27 475.74,-285.36 111.93,-90.36 278.96,-133.04 470.14,-91.08 191.13,42.12 406.42,169.02 838.52,265.33 432.09,96.47 1081.16,162.53 1507.68,170.09 426.53,7.72 630.69,-43.21 1106.36,-45.4 475.7,-2.15 1223.07,44.43 1798.14,69.99 575.1,25.54 977.86,30.39 1508.99,72.67 876.99,69.83 2248.27,246.3 3038.63,462.61 350.88,95.94 634.21,205.92 905.9,282.77 271.64,77.05 531.81,121.16 663.72,70.94 131.53,-50.07 134.83,-194.45 -22.98,-323.87 -157.7,-129.25 -476.65,-243.38 -811.78,-318.63 -713.38,-160 -1877.13,-169.14 -2712.03,-249.81 -998.53,-96.48 -1753.04,-274.73 -2767.51,-350.98 -1305.57,-98.12 -2376.45,0.15 -3637.71,-91.34 -388.25,-28.25 -750.76,-72.18 -953.1,-150.13 -202.5,-78.13 -244.67,-190.1 -340.79,-334.12 -96.16,-143.67 -245.93,-319.35 -300.8,-426.66 -103.79,-202.99 125.12,-162.64 300.37,33.27 72.63,81.19 116.92,174.64 213.76,170.71 96.66,-3.99 245.87,-105.53 385.12,-170.53 139.39,-64.98 268.8,-93.25 406.69,-145.83 138.09,-52.56 284.68,-129.25 411.02,-186.33 408.67,-184.59 199.26,-16.02 128.89,119.54 -168.76,325.11 210.14,416.5 326.52,524.24 54.77,50.76 -13.92,73.79 -122.91,51.1 -219.15,-45.45 -518.84,-238.12 -803.79,-223.19 -178.05,9.34 -446.09,123.96 -417.36,301.89 32.2,199.38 294.61,213.87 466.52,169.77 108.42,-27.71 204.01,-79.04 317.26,-68.42 194.34,18.06 420.14,214.73 824.39,143.83 280.3,-49.17 568.69,-247.64 1053.97,-290.8 421.06,-37.45 1186.33,85.67 1713.39,46.98 242.68,-17.83 374.74,-70.94 533.61,-92.73 179.7,-24.56 685.74,-15.68 828.26,50.03 138.33,63.77 248.89,256.66 595.87,283.14 378.7,28.9 523.05,-153.44 677.52,-144.55 193.11,11.1 353.44,185.57 641.39,-32.43 75.28,-57.06 123.54,-114.12 225.45,-139.53 286.53,-71.34 672.94,116.15 910.59,295.96 133.62,101.15 219.57,199.65 337.17,254.92 219.63,103.11 514.85,57.44 402.66,-165.29 -42.21,-83.71 -141.34,-171.21 -152.65,-235.66 -11.15,-64.25 65.42,-105.3 152.58,-75.96 182.1,61.47 236.61,259.73 444.1,126.19 45.11,-29.01 77.54,-50.42 117.5,-1.44 39.97,48.96 87.49,167.94 170.71,234.75 83.23,66.78 202.01,81.16 246.98,26.81 44.85,-54.53 15.73,-177.51 19.31,-296.69 15.61,-519.85 454.68,-249.98 267.87,114.33 -60.86,118.45 -187.47,235.31 -208.24,317.76 -20.96,82.43 64.26,130.51 153.1,144.36 88.81,14.03 181.28,-6.29 305.01,-38.54 123.73,-32.23 279.03,-76.32 475.35,-112.34 196.48,-36.01 434.11,-63.76 655.38,-134.67 437.57,-140.14 608.07,-341.49 891.74,-65.02 73.62,71.84 127.05,135.02 213.59,170.68 86.54,35.64 205.97,43.9 288.87,0.34 197.62,-103.75 174.63,-521.64 995.59,-335.76 398.35,90.2 543.49,198.64 868.89,-133.96 104.61,-106.77 195.12,-221.81 324.52,-250.25 129.39,-28.28 297.74,29.87 397.74,108.16 221.17,172.99 103.78,467.29 201.19,798.44 50.86,172.99 159.13,343.64 178.33,474.9 19.19,131.42 -50.76,223.6 15.23,395.34 66,171.73 268.1,422.68 493.92,591.73 225.78,169.03 475.47,255.8 651.69,267.84 176.39,11.89 279.37,-51.29 320.81,-272.74 41.66,-221.6 21.84,-601.65 -56.48,-913.45 -78.34,-311.62 -215.02,-554.66 -302.14,-754.12 -184.25,-421.5 -135.11,-504.76 -609.13,-583.63 -139.09,-23.22 -263.26,-44.47 -273.12,-92.89 -22.33,-109.79 387.4,-244.03 498.8,-333.06 88.95,-70.91 160.88,-181.99 390.92,-251.68 196.3,-59.46 507.87,-88.89 828.01,-89.56l987.51 819.4c-4.98,-49.47 106.24,-114.8 216.01,-157.72 109.6,-42.95 -105.71,59.59 -10.34,-2.79 95.55,-62.15 178.11,-166.23 413.89,-213.14 235.75,-46.92 624.91,-36.82 996.83,11.21 372.02,48.24 1899.36,-1136.14 2265.86,-1076.45 366.52,59.7 744.78,93.12 1120.3,64.7 375.64,-28.37 748.72,-118.57 1180.87,-124.74 432.13,-6.01 923.03,71.91 1321.88,64.95 398.72,-7.14 704.95,-99.45 1036.01,-134.67 799.2,-84.89 1429.7,153.3 1874.01,114.64 258.17,-22.49 488.58,-131.81 674.01,-186.86 185.72,-54.95 326.43,-55.66 510.74,-75.49 503.63,-54.09 623.86,-109.62 1123.8,33.19 158.59,45.48 313.76,93.01 415.69,58.04 211.91,-72.87 197.56,-531.69 -118.14,-654.65 -330.27,-128.64 -903.57,52.65 -1154.78,-30.65 -120.3,-39.86 -210.08,-137.28 -141.12,-263.64 68.76,-126.21 296.41,-281.13 546.59,-308.75 427.49,-47.21 946.23,286.51 1369.25,249.35 164.98,-14.47 290.43,-89.5 412.49,-161.96 599.88,-356.31 500.26,-346.8 799.56,34.67 198.3,252.77 302,205.41 479.62,-43.86 73.09,-102.66 138.22,-210.44 232.69,-179.54 166.08,54.19 413.05,532.59 669.16,517.29 212.62,-12.7 353.22,-360.15 450.69,-288.47 115.69,85.08 41.36,328.1 775.93,547.79 272.23,81.41 397.33,99.12 601.8,15.85 86.59,-35.25 201.19,-86.78 258.13,-51.43 56.79,35.16 55.96,157.4 -8.03,275.15 -64,117.74 -191.46,230.79 -171.26,325.64 35.94,169 639.13,338.08 803.79,206.01 87.87,-70.41 83.34,-225.94 35.63,-349.55 -89.65,-231.93 -293.51,-320.41 156.31,-312.59 299.97,5.21 652.35,48.96 954.32,-4.84 183.96,-32.78 393.83,-101.74 585.02,-110.34 386.35,-17.32 806.29,239.1 -22.66,-762 -481.62,-581.73 -1406.24,-1607.43 -1913.6,-2169 -507.22,-561.56 -596.99,-658.97 -652.99,-713.54 -56.01,-54.38 -78.06,-65.85 -170.49,-76.89 -635.83,-75.98 -853.48,100.76 -1184.08,110.96 -126.14,3.96 -248.79,-23.57 -384.21,-18.52 -247.98,9.23 -613.08,144.16 -859.12,61.69 -169.84,-56.92 -334.13,-257.83 45.64,-279.77 114.34,-6.61 239.51,8.63 308.03,-27.5 68.72,-36.08 80.63,-123.54 37.23,-194.51 -43.41,-70.94 -142.1,-125.36 -222.43,-194.92 -283.4,-245.38 50.22,-226.65 306.19,-121.24 351.4,144.7 375.8,300.27 937.89,355.36 203.69,19.96 453.25,24.48 604.63,16.66 151.42,-7.99 204.46,-28.18 198.2,-71.55zm-21707.73 7061.3c-213.76,-484.17 -338.61,-220.42 -798.67,-257.39 -217.51,-17.47 -384.22,-102.57 -599.39,-9.54 -70.98,30.7 -126.7,74.28 -199.19,104.98 -111.74,47.19 -413.46,115.36 -541.54,97.95 -323.75,-44.01 -541.5,-336.13 -874.91,-206.66 -95.75,37.18 -196.41,106.84 -252.87,199.12 -148.55,242.89 59.13,421.97 282.5,386.67 219.3,-34.66 344.01,-306.08 414.39,-303.8 84.69,2.75 47.18,251.21 108.42,326.29 113.52,139.19 513.41,105.1 721.92,115.74 157.21,8.02 299.06,31.57 437.26,19.87 138.18,-11.51 272.5,-58.16 369.47,-49.67 96.84,8.61 156.29,72.55 280.43,107.92 195.41,55.82 665.51,59.8 728,-182.4 25.65,-99.11 -23.61,-231.06 -75.83,-349.09zm-9603.78 -317.61c-64.93,-345.55 -759.59,-382.92 -1048.83,-297.88 -258.14,75.9 -149.45,264.41 131.81,360.52 164.13,56.07 406.87,93.41 567.14,114.39 160.43,20.97 238.04,25.72 288.86,-5.87 50.83,-31.59 74.51,-99.57 61.02,-171.17zm-18802.24 -694.89c368.07,39.91 594,165.04 1057.92,92.67 180.91,-28.22 135.77,-136.07 271.6,-234.6 52.13,-37.8 105.66,-31.31 134.07,13.15 59.88,93.49 5.31,283.29 23.76,342.77 32.05,103.28 325.05,109.86 474.44,95.22 158.05,-15.5 355.5,-60.69 486.19,-73.3 130.87,-12.41 194.81,7.92 278.3,-13.51 83.52,-21.24 186.6,-84.25 326.93,-102.06 382.07,-48.04 648,183.99 819.15,165.43 109.54,-11.89 221.78,-105.33 396.98,-169.06 175.36,-63.73 413.66,-97.78 596.23,-88.24 395.96,20.69 508.35,241.67 850.14,354.82 180.2,59.58 423.96,89.1 598.9,85.14 647.28,-14.63 28.41,-429.54 -61.48,-611.73 -70.7,-143.27 148.2,-133.28 282.53,2.69 70.7,71.49 113.67,177.51 183.55,255.09 70.03,77.79 167.13,127.28 216.95,82.99 102.06,-90.65 -13.92,-366.72 374.11,-319.72 112.75,13.66 235.74,47.34 319.84,76.49 249.25,86.35 227.43,267.61 353.85,294.68 123.74,26.5 239.01,-200.28 401.49,-237.81 216.91,-50.11 507.15,85.56 708.46,73.25 216.7,-13.24 446.93,-219.72 706.23,-188.3 118.76,14.38 225.74,84.05 332.96,93.93 164.09,15 404.24,-138.07 551.32,-90.55 66.14,21.37 50.43,125.78 348.3,92.51 94.4,-10.63 181.67,-37.79 228.15,5.58 50.95,47.55 103.77,327.56 -153.74,315.05 -126.71,-6.15 -422.76,-104.53 -591.03,-131.4 -117.66,-18.79 -419.12,-38.02 -528.88,-7.54 -265.68,73.77 -417.7,534.79 -862.8,559.56 -142.41,7.91 -332.46,-15.11 -510.51,-11.35 -177.88,3.59 -343.59,33.86 -534.15,42.31 -414.05,18.21 -802.18,-62.14 -1130.95,-61.54 -469.26,0.86 -594.07,160.88 -1343.66,70.07 -175.25,-21.23 -340.38,-53.82 -498.78,-120.23 -277.29,-116.22 -506.32,-332.2 -732.7,-299.73 -94.73,13.68 -196.36,64.45 -222.49,111.62 -44.08,79.61 175.33,202.51 62.71,202.7 -172.31,0.3 -641.13,-252.87 -894.31,-306.56 -173.56,-36.89 -309.01,-9.19 -499.15,24.5 -190.1,33.49 -435.08,73.11 -632.84,93.27 -300.72,30.66 -569.57,6.15 -741.75,212.28 -128.68,154.06 -120.9,297.57 -556.99,200.02 -554.14,-123.96 -404.45,-362.38 -453.59,-560.13 -35.87,-144.32 -240.12,-119.17 -442.43,-219.6 -82.32,-40.87 -189.51,-132.59 7.16,-110.81zm-66.93 667.88c-99.91,-136.03 -295.67,-133.66 -475.39,-86.05 -142.63,37.79 -482.23,178.69 -209.54,286.24 250.52,98.81 888.82,77.47 684.93,-200.2zm-9025.68 284.99c-118.41,-139.13 54.69,-301.4 172.88,-381.86 74.59,-50.76 150.51,-85.69 217.6,-121.69 222.35,-119.27 223.1,-41.48 489.53,93.97 361.14,183.59 423,-77.28 600.3,-97.22 264.95,-29.79 429.13,534.42 1087.08,134.81 223.59,-135.8 510.16,-424.08 803.5,-283.38 131.73,63.18 247.89,215.66 421.92,277.76 174.04,61.93 405.67,33.3 558.88,-20.54 270.81,-95.14 292.97,-271.42 697.26,-189.23 153.25,31.15 338.69,97.56 564.17,156.43 437.22,113.97 863.57,170.71 1278.93,113.93 134.44,-18.19 209.03,-40.69 248.14,-132.82 39.08,-91.97 42.72,-253.53 -71.62,-353.2 -114.34,-99.7 -346.52,-137.13 -395.87,-218.77 -49.2,-81.47 84.43,-206.96 187.85,-203.04 170.96,6.46 311.42,445.45 462,651.63 160.66,220 198.58,-21.72 238.37,-204.14 23.42,-107.3 45.85,-205.24 143.54,-246.83 97.7,-41.76 270.65,-27.03 428.82,-14.25 158.17,12.81 301.39,23.95 353.32,102.62 51.84,78.67 12.23,225.05 -81.94,317.38 -199.26,195.73 -509.22,116.68 -595.74,198.59 -90.37,85.57 -81.64,343.96 -720.45,350.18 -240.86,2.34 -531.44,-39.25 -822.9,-43 -600.94,-7.96 -1112.5,133.36 -1682.12,167.45 -982.08,58.78 -948.76,-279.75 -1239.93,-338.95 -324.67,-66.02 -790.15,389.79 -1145.53,358.46 -332.58,-29.33 -491.66,-371.26 -822.03,-194.06 -76.55,41.06 -129.36,85.18 -254.21,126.56 -196.59,65.36 -657.08,158.65 -858.62,122.64 -109.36,-19.46 -212.28,-69.84 -263.15,-129.44zm-5241.75 -5039.61c92.1,-8.55 323.45,-173.88 374.36,-294.71 116.26,-275.93 -199.46,-412.84 -425.74,-440.25 -133.75,-16.19 -227.54,16.55 -377.13,51.86 -149.78,35.46 -355.36,73.47 -531.17,99.4 -440.48,64.95 -427.79,46.79 -684.27,321.45 -83.12,89.2 -182.84,177.77 -171.55,242.06 11.16,64.44 133.32,104.39 266.43,112.6 471.7,29.05 953.54,-365.66 1230.41,-321.48 150.5,24.02 173.09,242.25 318.67,229.07zm65467.43 60.68c-46.94,-68.38 -97.19,-150.58 -232.15,-177.7 -252.11,-50.49 -994.2,131.61 -1203.09,-195.98 -151.45,-237.51 -56.64,-534.49 -326.1,-594.98 -140.22,-31.49 -387.72,-16.14 -607.5,-17.32 -387.71,-1.95 -974.48,-76.45 -1303.97,-18.79 -554.89,97.1 -927.22,544.81 -613.62,780.22 355.78,267.08 1452.5,262.09 1598,104.38 125.5,-136.29 -837.05,-212.61 -1065.85,-490.63 -58.57,-71.2 -44.6,-138.79 33.86,-179.21 225.41,-115.74 742.48,40.36 997.58,111.22 182.15,50.58 321.14,88.16 430.1,167.29 206.13,149.97 238.86,362.87 594.08,510.34 330.72,137.28 1184.35,285.05 1536.34,254.71 124.36,-10.7 210.5,-42.88 231.71,-86.44 21.22,-43.56 -22.47,-98.53 -69.38,-167.1zm-37734.92 -4887.14c-257.72,38.58 -546.74,231.54 -414.94,435.94 127.19,197.26 554.6,280.17 829.59,150.85 507.65,-238.75 37.25,-655.05 -414.65,-586.79zm-3050.06 -539.66c162.66,27.65 408.64,92.1 622.88,157.34 214.42,65.27 396.88,131.5 535.54,143.65 209.68,18.25 425.53,-120.82 830.48,-26.93 142.35,33.1 247.4,92.89 337.68,107.1 90.31,14.04 165.85,-17.65 225.24,-10.45 245.96,29.79 -79.92,624.35 -511.66,597.27 -134.58,-8.37 -272.16,-72.28 -407.69,-85.58 -371.58,-36.27 -676.22,280.26 -1327.34,142.88 -192.79,-40.59 -422.3,-118.73 -533.27,-250.23 -110.92,-131.51 -103.4,-316.22 -98.96,-455.81 8.67,-283.21 4.26,-373.75 327.1,-319.23zm-2595.59 42.83c323.83,-191.24 480.76,80.58 605.15,40.4 100.2,-32.36 168.27,-186.34 280.36,-202.17 149.25,-21.08 415.52,140.78 -58.56,339.17 -78.83,32.86 -143.45,47.1 -205.67,78.85 -61.88,31.98 -121.33,81.31 -230.58,104.26 -167.79,35.23 -503.65,18.22 -500.77,-202.35 0.93,-64.34 39.53,-116.2 110.07,-158.16zm-496.2 -244.18c113.32,9.65 338.57,181.4 297.96,368.22 -37.14,170.83 -330.13,111.7 -385.39,44.49 -61.46,-74.75 75.88,-193.84 69.1,-325.31 -2.37,-47.36 -24.93,-91.08 18.33,-87.39zm-8942.13 421.81c-480.03,-298.61 -808.46,18.39 -640.16,261.64 115.44,166.85 493.95,361.55 682.55,217.98 78.52,-59.78 114.63,-173.31 109.14,-262.89 -5.48,-89.6 -52.75,-155.14 -151.53,-216.73zm2208.39 161.38c-13.06,-173.67 -229.7,-371.42 -290.8,-491.47 -32.47,-63.74 -27.18,-113.58 -81.67,-138.97 -54.45,-25.57 -168.69,-26.82 -246.56,26.65 -141.76,97.51 -148.27,342.96 -248.85,360.23 -42.98,7.39 -106.23,-19.24 -173.63,-8.44 -364.81,58.01 -87.52,723.47 210.96,308.74 95.27,-132.37 64.21,-219.76 230.38,-72.75 119.31,105.56 312.71,254.14 487.94,194.43 75.06,-25.56 118.61,-95.78 112.23,-178.41zm1841.78 -56.95c-37.86,-340.19 -580.17,-330.95 -845.04,-288 -177.76,28.8 -297.77,83.54 -370.14,169.03 -262.66,311.02 226.16,650.88 704.61,620.55 136.39,-8.66 266.46,-43.22 363.42,-135.39 97.12,-92.16 161.14,-241.78 147.15,-366.19zm2067.47 1588.15c3.36,-87.67 -68.04,-209.74 -173.92,-260.32 -106.04,-50.58 -246.68,-29.88 -249.88,57.97 -3.37,87.67 130.64,242.31 236.69,292.91 105.89,50.58 183.89,-2.89 187.1,-90.57z"/>
    <path class="fil2" d="M57067.59 18268.13l7181.27 -25 -2098.66 873.11c-509.86,212.44 -512.98,256.02 -1084.39,257.64l-4924.22 16.48 926 -1122.23zm-14855.65 -3497.1l9145.55 -43.17 -4942.95 6249.89 -7011.97 24.5 3193.32 -4485.45 -4813 2.53 3514.28 -1537.35c343.1,-124.07 498.47,-199.86 914.77,-210.95zm32730.14 -105.38l-18023.8 49.55 -3802.92 1264.89c-1038.4,344.56 -1227.67,303.51 -1774.97,1056.6 -703.69,970.07 -1417.16,1933.29 -2125.1,2900.1 -631.03,630.38 -745.82,1025.81 30.71,1014.94l17967.08 -61.77c475.59,-1.33 930,-135.19 1384.75,-230.72 696.02,-236.44 1936.31,-511.19 2432.11,-960.6 868.93,-781.85 3114.96,-2716.07 1404.62,-2722.3l-14656.84 12.27 513.38 -716c90.59,-119.31 125.5,-139.04 307.09,-140.48l12147.93 -79.26 4195.95 -1387.22zm15042.1 4107.69c-1277.97,433.92 -8418.67,547.11 -10293.73,541.39l1808.16 -2519.17c361.91,-480.34 1087.34,-778.81 1671.84,-837.46l4837.4 -422.31 6319.77 292.19 -1209.45 1397.36 -3133.99 1548zm-9692.04 -4133.37l-3847.88 1294.08c-1568.16,528.56 -1280.84,394.47 -2204.66,1668.63l-2063.13 2838.14c-164.24,268.1 81.92,448.73 255.5,435.66l15292.43 -110.15c1964.02,-185.87 4393.31,-134.74 6207.88,-521.86 2174.88,-417.66 4275.69,-409.73 5861,-2009.82l2542.31 -2876.12c97.83,-139.79 382.26,-338.87 -9.7,-360.91l-14379.99 -672.06 -7653.76 314.41z"/>
   </g>
  </svg>
  