<?xml version="1.0" encoding="UTF-8"?>
  <!DOCTYPE svg PUBLIC "-//W3C//DTD SVG 1.1//EN" "http://www.w3.org/Graphics/SVG/1.1/DTD/svg11.dtd">
  <!-- Creator: CorelDRAW 2020 (64 Bit) -->
  <svg xmlns="http://www.w3.org/2000/svg" xml:space="preserve" width="1055.46mm" height="313.543mm" version="1.1" style="shape-rendering:geometricPrecision; text-rendering:geometricPrecision; image-rendering:optimizeQuality; fill-rule:evenodd; clip-rule:evenodd"
  viewBox="0 0 21738.34 6457.74"
   xmlns:xlink="http://www.w3.org/1999/xlink"
   xmlns:xodm="http://www.corel.com/coreldraw/odm/2003">
   <defs>
    <style type="text/css">
     <![CDATA[
      .fil2 {fill:#d9d9d9}
      .fil0 {fill:#000000}
      .fil1 {fill:#ff0000}
     ]]>
    </style>
   </defs>
   <g id="Camada_x0020_1">
    <metadata id="CorelCorpID_0Corel-Layer"/>
    <path class="fil0" d="M1235.7 899.25l538.52 -677.24 5375.7 -222.01c-243.8,78.85 -307.91,386.25 -342.56,731.08l-80.68 -5.67c-135.68,-66.96 -273.64,-68.54 -389.14,61.87l-5101.84 111.96zm243.25 235.84l4862.43 -1.04c104.51,108.91 229.62,140.32 390.41,53.24l80.54 -7.46c42.29,343.99 113.19,649.89 358.68,723.32l-5379.3 -102.86 -553.4 -665.14 240.64 -0.05zm0 0l0 0z"/>
    <path class="fil1" d="M1238.32 1135.14l553.4 665.14 5379.3 102.86c-82.26,-24.59 -145.57,-75.82 -194,-145.66l-5118.21 -100.34 -453.46 -522.04 -167.02 0.04zm-2.61 -235.89l538.52 -677.24 5375.7 -222.01c-81.67,26.39 -143.88,79.04 -190.73,149.92l-5114.73 213.71 -441.79 531.96 -166.97 3.66z"/>
    <path class="fil0" d="M10572.88 1623.93c-2299.63,1232.28 -3449.45,1848.42 -3449.45,1848.42 1023.03,-732.39 1534.54,-1098.59 1534.54,-1098.59 274.5,41.22 460.5,-34.34 558.01,-226.69 142.41,-235.41 213.62,-353.12 213.62,-353.12 80.06,-160.85 100.01,-274.36 43.56,-372.54 -38.58,-99.4 -171.15,-297.59 -361.81,-556.03 -132.94,-63.98 -272.08,-81.41 -417.42,-52.31 -23.25,-264.48 -34.88,-396.71 -34.88,-396.71 492.74,165.65 1142.3,507.14 1948.69,1024.48 92.15,66.74 80.52,127.77 -34.88,183.1zm-579.79 2678.58c-205.87,-282.16 -481.97,-650.29 -620.02,-834.36 -138.05,-184.07 -138.05,-184.07 -299.11,-116.25 -161.06,67.81 -483.18,203.44 -647.87,278.52 -164.69,75.08 -171.96,89.61 -175.59,102.93 -3.63,13.32 -3.63,25.43 -3.63,31.49 0,6.06 0,6.06 259.15,205.87 259.15,199.81 777.44,599.43 1036.59,799.24 259.15,199.81 259.15,199.81 370.56,201.02 111.41,1.21 334.23,3.63 445.64,4.84 111.41,1.21 111.41,1.21 43.59,-96.88 -67.81,-98.09 -203.44,-294.27 -409.31,-576.42z"/>
    <path class="fil0" d="M707.28 4476.16l-707.28 247.81 1944.42 194.7c732.23,33.51 1723.42,146.03 2445.57,-238.07 995.55,-529.5 1983.38,-1076.37 2953.15,-1657.55l-1109.9 -182.36 -1890.03 1198.02c-969.17,584.64 -1308.07,598.91 -2407.41,522.66l-1228.52 -85.21z"/>
    <path class="fil0" d="M21031.06 4414.77l707.28 247.81 -1944.42 194.7c-732.23,33.51 -1723.42,146.03 -2445.57,-238.07 -995.54,-529.5 -1983.38,-1076.37 -2953.15,-1657.55l1109.9 -182.36 1890.03 1198.02c969.17,584.64 1308.07,598.91 2407.41,522.66l1228.52 -85.21z"/>
    <path class="fil1" d="M1509.72 4195.01l-395.84 138.69 847.15 63.64c1099.34,76.26 1438.23,61.98 2407.41,-522.66l1674.96 -1065.18 -254.24 -41.77 -1469.49 933.8c-969.18,584.64 -1308.06,598.91 -2407.41,522.66l-402.55 -29.18z"/>
    <path class="fil1" d="M20228.62 4133.62l395.84 138.69 -847.15 63.64c-1099.34,76.26 -1438.23,61.98 -2407.41,-522.66l-1674.96 -1065.18 254.24 -41.77 1469.49 933.8c969.18,584.64 1308.06,598.91 2407.41,522.66l402.55 -29.18z"/>
    <path class="fil2" d="M16117.37 3667.11l-350.78 90.74 370.53 209.95 515.74 -128.38 -441.67 -215.14 -215.64 -28.17 121.81 71zm1508.71 705.8l-724.04 -396.43c-35.39,-19.38 -102.71,-24.71 -149.63,-11.85l-327.85 89.83c-46.92,12.87 -56.36,39.23 -20.97,58.6l724.04 396.44c35.39,19.37 102.7,24.7 149.62,11.85l327.86 -89.84c46.92,-12.86 56.36,-39.23 20.98,-58.59zm-440.04 -93.54l-202.81 -111.04c-9.91,-5.43 -28.77,-6.92 -41.9,-3.32l-91.84 25.16c-13.13,3.6 -15.77,10.98 -5.87,16.41l202.8 111.04c9.91,5.43 28.76,6.92 41.9,3.32l91.83 -25.16c13.14,-3.6 15.78,-10.99 5.88,-16.41zm-1638.14 -927.13l-350.78 90.74 370.53 209.95 515.74 -128.38 -441.66 -215.15 -215.65 -28.17 121.82 71z"/>
    <path class="fil2" d="M4367.36 4412.43l-112.35 344.47 376.38 -199.26 169.42 -503.76 -419.06 256.41 -139.82 166.58 125.41 -64.44zm1978.83 -1202.02l-723.84 396.8c-35.38,19.4 -76.11,73.26 -90.53,119.72l-100.77 324.66c-14.41,46.47 2.72,68.61 38.1,49.21l723.84 -396.8c35.37,-19.4 76.1,-73.25 90.52,-119.72l100.77 -324.67c14.42,-46.46 -2.72,-68.61 -38.09,-49.22zm-315.7 320.5l-202.75 111.15c-9.91,5.43 -21.32,20.52 -25.35,33.53l-28.23 90.94c-4.03,13 0.76,19.2 10.67,13.78l202.75 -111.14c9.91,-5.43 21.31,-20.52 25.36,-33.53l28.22 -90.94c4.04,-13.01 -0.76,-19.22 -10.67,-13.79zm-1091.24 571.07l-112.35 344.46 376.39 -199.26 169.42 -503.75 -419.06 256.41 -139.81 166.57 125.41 -64.44z"/>
    <path class="fil2" d="M2407.79 1146.91l-106.99 -9.67 554.69 493.79 99.01 2.56 -546.7 -486.69zm-25.03 -287.21l-106.76 11.95 544.05 -505.49 98.93 -4.67 -536.22 498.21zm-895.38 30.89l96.09 -2.02 526.13 -488.84 -98.93 4.67 -523.29 486.19zm208.44 -4.39l68.26 -1.44 531.47 -493.82 -70.25 3.32 -529.48 491.94zm180.6 -3.81l96.08 -2.02 537.69 -499.56 -98.95 4.67 -534.83 496.92zm208.45 -4.4l76.21 -1.61 543.26 -504.76 -78.47 3.71 -541.01 502.66zm4639.13 -503.95l-106.75 11.95 202.66 -188.31 83.48 9.7 -179.38 166.66zm-231.6 25.91l-84.92 9.5 241.24 -224.15 46 -2.17 27.59 3.2 -229.91 213.62zm-209.76 23.47l-106.76 11.94 258.21 -239.92 98.93 -4.67 -250.39 232.65zm-231.6 25.91l-75.82 8.48 272.92 -253.58 70.27 -3.32 -267.37 248.42zm-200.66 22.45l-106.77 11.94 289.92 -269.35 98.93 -4.67 -282.08 262.09zm-231.6 25.91l-84.68 9.47 305.25 -283.62 78.47 -3.7 -299.05 277.85zm-209.52 23.43l-106.76 11.95 322.23 -299.39 98.94 -4.67 -314.42 292.12zm-231.6 25.91l-75.82 8.48 336.95 -313.06 70.25 -3.32 -331.38 307.9zm-200.65 22.44l-106.77 11.95 353.92 -328.83 98.94 -4.67 -346.1 321.55zm-231.61 25.91l-58.54 6.55 367.35 -341.31 54.25 -2.56 -363.06 337.33zm-183.38 20.52l-106.76 11.94 384.33 -357.08 98.93 -4.67 -376.49 349.82zm-231.61 25.91l-75.81 8.48 399.03 -370.76 70.26 -3.31 -393.48 365.59zm-200.66 22.44l-106.76 11.95 416.01 -386.52 98.93 -4.68 -408.18 379.25zm-231.59 25.91l-84.68 9.48 431.36 -400.79 78.46 -3.71 -425.14 395.02zm-209.52 23.44l-106.76 11.95 448.33 -416.56 98.93 -4.68 -440.5 409.29zm-231.6 25.91l-75.81 8.48 463.03 -430.22 70.27 -3.32 -457.48 425.06zm-200.65 22.45l-106.77 11.95 480 -446 98.95 -4.67 -472.18 438.72zm-231.6 25.91l-84.92 9.5 495.38 -460.27 78.69 -3.72 -489.15 454.49zm-209.77 23.47l-106.76 11.94 512.36 -476.05 98.93 -4.68 -504.53 468.79zm-231.6 25.9l-75.81 8.49 527.05 -489.71 70.27 -3.33 -521.51 484.55zm-1071.46 297.83l96.11 -0.02 536.42 477.53 -99.01 -2.56 -533.52 -474.95zm208.49 -0.05l68.27 -0.01 541.86 482.4 -70.31 -1.82 -539.83 -480.56zm180.64 -0.04l96.11 -0.02 548.2 488.01 -99.02 -2.57 -545.29 -485.42zm208.49 -0.04l76.23 -0.02 553.88 493.08 -78.53 -2.03 -551.59 -491.03zm4648.81 405.09l-106.98 -9.67 206.62 183.95 83.25 -11.48 -182.89 -162.8zm-232.1 -20.97l-85.1 -7.69 245.96 218.96 46.03 1.19 27.52 -3.79 -234.41 -208.67zm-210.21 -19l-106.99 -9.66 263.26 234.37 99.01 2.56 -255.28 -227.26zm-232.09 -20.97l-75.98 -6.87 278.25 247.71 70.33 1.83 -272.6 -242.67zm-201.1 -18.17l-107 -9.67 295.59 263.12 99.01 2.57 -287.6 -256.02zm-232.09 -20.97l-84.86 -7.67 311.22 277.06 78.54 2.03 -304.9 -271.43zm-209.97 -18.97l-106.99 -9.67 328.53 292.47 99.02 2.56 -320.56 -285.36zm-232.1 -20.98l-75.98 -6.87 343.53 305.82 70.31 1.82 -337.86 -300.77zm-201.09 -18.17l-107 -9.67 360.84 321.22 99.02 2.57 -352.86 -314.11zm-232.11 -20.98l-58.66 -5.3 374.53 333.42 54.29 1.41 -370.16 -329.53zm-183.78 -16.61l-106.99 -9.66 391.84 348.82 99 2.56 -383.85 -341.72zm-232.11 -20.97l-75.97 -6.87 406.83 362.18 70.32 1.82 -401.17 -357.13zm-201.09 -18.17l-106.99 -9.67 424.14 377.58 99.01 2.57 -416.16 -370.47zm-232.09 -20.97l-84.87 -7.67 439.8 391.52 78.53 2.04 -433.46 -385.88zm-209.97 -18.97l-106.99 -9.67 457.09 406.92 99.01 2.57 -449.11 -399.82zm-232.1 -20.97l-75.98 -6.86 472.08 420.26 70.33 1.82 -466.42 -415.22zm-201.09 -18.17l-107 -9.67 489.39 435.68 99.03 2.57 -481.42 -428.57zm-232.1 -20.97l-85.1 -7.69 505.06 449.63 78.75 2.04 -498.71 -443.97zm-210.22 -19l-106.99 -9.66 522.37 465.03 99 2.57 -514.39 -457.94zm-232.1 -20.97l-75.98 -6.87 537.36 478.38 70.33 1.83 -531.71 -473.34z"/>
    <path class="fil0" d="M5523.83 6011.8c130.24,65.04 288.74,122.84 368.38,152.88 79.64,30.04 80.44,32.33 633.19,73.8 552.75,41.47 1657.47,122.12 2209.82,162.45 552.36,40.33 552.36,40.33 760.1,-70.22 207.74,-110.55 623.24,-331.64 830.98,-442.19 207.74,-110.55 207.74,-110.55 151.63,-157.73 -56.11,-47.18 -168.33,-141.55 -224.44,-188.73 -56.11,-47.18 -56.11,-47.18 -790.65,-47.36 -734.54,-0.18 -2203.62,-0.53 -2938.16,-0.71 -734.54,-0.18 -734.54,-0.18 -834.63,51.22 -100.09,51.4 -300.28,154.19 -400.36,205.59 -100.09,51.4 -100.09,51.4 -49.1,87.54 51,36.14 152.99,108.42 283.23,173.46z"/>
    <path class="fil0" d="M16147.67 6115.11c-131.49,62.47 -291.09,117.15 -371.31,145.63 -80.22,28.48 -81.06,30.75 -634.52,61.38 -553.46,30.63 -1659.54,89.61 -2212.58,119.1 -553.04,29.49 -553.04,29.49 -758.58,-85.1 -205.54,-114.6 -616.62,-343.79 -822.16,-458.39 -205.54,-114.6 -205.54,-114.6 -148.52,-160.67 57.02,-46.07 171.07,-138.22 228.09,-184.3 57.02,-46.07 57.02,-46.07 791.43,-31.85 734.4,14.22 2203.21,42.66 2937.61,56.89 734.4,14.22 734.4,14.22 833.46,67.57 99.07,53.35 297.19,160.05 396.26,213.4 99.06,53.35 99.06,53.35 47.37,88.48 -51.69,35.13 -155.08,105.4 -286.57,167.87z"/>
    <path class="fil2" d="M9057.63 5627.18c0.72,-23.12 85.59,-55.89 107.97,-57.31 12.19,-0.77 29.28,-0.33 42.62,-0.32l861.4 1.04c21.82,0.02 31.65,-0.69 50.4,7.53l83.87 39.91c12.96,9.22 9.3,19.85 -1.41,25.94l-72.22 43.26c-15.38,7.85 -39.1,7.4 -62.33,7.38l-785.12 0.16c-65.13,-0.04 -108.99,4.04 -166.05,-16.05 -11.9,-4.19 -24.8,-10.59 -33.46,-16.51 -8.08,-5.53 -23.04,-19.25 -25.01,-26.43 -0.98,-3.58 -0.77,-4.99 -0.65,-8.58zm-2373.11 129.17l261.23 -124.14 402.54 -4.39 -156.67 71.24 194.77 -2.42c12.8,0.41 24.78,-1.37 35.5,-6.3l174.16 -79.85c7.28,-3.95 7.62,-5.87 0.83,-5.63l-477.15 5.24 -83.64 -38.35 2017.46 -22.39c29.1,-0.33 13.1,20.64 -24.33,36.94l-277.68 120.92c-33.56,14.61 -76.72,26.4 -110.12,26.82l-513.71 6.34 -108.35 47.83 -371.66 2.98 389.34 -171.03 359.3 -4 -158 71.13 188.94 -2.1c9.29,-0.43 17.88,-1.9 25.82,-5.37l163.54 -76.03c25.63,-12.09 2.53,-10.25 -14.4,-10.06l-575.77 6.36 -294.21 128.31c-25.26,11.6 -62.13,17.69 -74.89,17.15l-972.85 10.8zm-438.26 -116.23l-454.04 5.05 -372.37 170.98 466.38 -5.11 104.53 -47.03 604.56 -6.66c24.02,0 43.17,-8.05 73.2,-21.17l322.47 -153.6c9.33,-6.25 8.49,-10.27 -10.53,-10.31l-1232.38 13.81 43.99 38.79 651.35 -7.2c23.32,-0.26 49.15,-2.2 22.78,14.59l-157.27 72.32c-7.77,3.32 -13.26,4.27 -18.2,4.32l-197.47 2.14 153.02 -70.93zm3889.09 -40.82l-88.01 -0.14c-8.81,-0.02 -16.48,8.31 -24.81,14.96 -2.22,1.77 -1.31,3.23 2.03,3.23l88.01 0.14c8.8,0.01 16.5,-8.31 24.81,-14.96 2.22,-1.78 1.31,-3.23 -2.03,-3.24zm-23.93 21.81l-89.23 -0.14c-4.01,-0.01 -9.13,1.74 -11.36,3.87l-42.67 40.73c-2.24,2.14 -0.78,3.89 3.23,3.89l89.23 0.14c4.02,0 9.13,-1.73 11.36,-3.87l42.67 -40.73c2.23,-2.13 0.78,-3.88 -3.23,-3.89zm-150.9 -7.22l-49.31 -0.31c-2.53,-0.01 -5.84,1.16 -7.35,2.61l-35.13 33.61c-1.51,1.45 -0.69,2.65 1.85,2.66l49.31 0.31c2.53,0.02 5.84,-1.16 7.35,-2.61l35.13 -33.61c1.52,-1.45 0.69,-2.65 -1.85,-2.66zm-98.98 -14.5l-249.27 -0.91c-12.18,-0.05 -28.84,5.2 -37.03,11.66l-57.22 45.14c-8.19,6.46 -4.92,11.78 7.26,11.83l249.27 0.91c12.18,0.05 28.84,-5.2 37.03,-11.66l57.22 -45.14c8.19,-6.46 4.92,-11.78 -7.26,-11.82zm-121.04 24.38l-69.82 -0.25c-9.11,-0.03 -17.6,8.97 -26.4,15.91 -2.29,1.81 -1.38,3.3 2.03,3.31l69.82 0.25c9.11,0.04 17.6,-8.96 26.4,-15.91 2.29,-1.81 1.38,-3.3 -2.03,-3.31zm-570.21 -7.17l-62.33 47.39 129.02 1.66 92.68 -68.82 -146.54 3.96 -55.66 14.93 42.83 0.88zm196.69 1.23l-62.33 47.39 129.03 1.66 92.68 -68.82 -146.54 3.96 -55.66 14.93 42.83 0.88zm503.5 -64.42l222.62 0.63c40.39,3.27 55.66,15.72 89.39,30.67l43.87 20.91c21.77,11.97 24.26,33.28 3.25,47.32l-75.35 45.33c-12.86,7.14 -28.88,10.62 -48.56,12.12l-140.56 1.09 -725.18 -0.06c-66.78,-0.08 -119.71,-3.11 -176.15,-35.05 -12.34,-6.98 -20.5,-15.26 -29.12,-24.87 -33.89,-37.83 32.01,-68.11 61.28,-79.31 28.31,-10.83 44.01,-19.42 79.76,-19.38l694.75 0.61z"/>
    <path class="fil2" d="M11467.12 5649.89c0.73,-23.12 85.59,-55.87 107.98,-57.29 12.19,-0.77 29.29,-0.32 42.62,-0.31l861.39 1.17c21.82,0.03 31.65,-0.69 50.4,7.54l83.86 39.93c12.96,9.22 9.29,19.85 -1.41,25.94l-72.22 43.25c-15.38,7.84 -39.1,7.39 -62.33,7.37l-785.12 0.04c-65.14,-0.05 -108.97,4.02 -166.05,-16.08 -11.9,-4.19 -24.8,-10.59 -33.45,-16.52 -8.08,-5.54 -23.04,-19.25 -25.01,-26.44 -0.98,-3.58 -0.76,-4.99 -0.65,-8.58zm4482.15 -5.44l130.31 72.51 -201.87 80.61c-33.99,13.58 -77.5,24.03 -110.9,23.42l-513.66 -9.47 -109.77 44.47 -371.57 -8.45 394.42 -158.97 359.25 7.05 -160.11 66.23 188.92 3.71c9.3,-0.14 17.93,-1.35 25.97,-4.57l165.81 -70.97c25.98,-11.29 2.84,-10.17 -14.08,-10.5l-575.69 -11.36 -298.02 119.2c-25.6,10.81 -62.64,15.77 -75.38,14.83l-972.72 -19.15 264.92 -116.04 402.49 8 -158.78 66.39 194.75 3.57c12.78,0.8 24.81,-0.6 35.67,-5.21l176.54 -74.45c7.4,-3.73 7.79,-5.64 1,-5.6l-477.09 -9.44 -82.42 -40.9 1782.02 35.07zm-2573.58 8.96l-453.98 -8.92 -377.46 159.44 466.31 9.25 105.93 -43.79 604.48 11.94c24.01,0.74 43.4,-6.72 73.82,-18.91l327.05 -143.61c9.52,-5.96 8.8,-10 -10.21,-10.63l-1232.22 -24.12 42.78 40.13 651.26 12.84c23.31,0.46 49.19,-0.68 22.31,15.29l-159.42 67.45c-7.87,3.08 -13.39,3.86 -18.33,3.76l-197.45 -3.94 155.13 -66.19zm-830.85 -31.22l-88.01 -0.15c-8.8,-0.02 -16.49,8.31 -24.81,14.96 -2.22,1.77 -1.31,3.23 2.03,3.24l88.01 0.15c8.8,0.01 16.49,-8.31 24.81,-14.96 2.22,-1.78 1.31,-3.23 -2.03,-3.24zm-23.93 21.8l-89.23 -0.15c-4.01,-0.01 -9.13,1.73 -11.36,3.87l-42.68 40.72c-2.23,2.13 -0.78,3.88 3.23,3.89l89.23 0.16c4.02,0 9.13,-1.73 11.36,-3.87l42.68 -40.72c2.24,-2.13 0.78,-3.88 -3.23,-3.89zm-150.9 -7.25l-49.31 -0.32c-2.53,-0.02 -5.84,1.16 -7.36,2.61l-35.13 33.6c-1.52,1.45 -0.69,2.65 1.84,2.67l49.31 0.32c2.53,0.02 5.84,-1.16 7.35,-2.61l35.14 -33.6c1.52,-1.45 0.69,-2.65 -1.85,-2.67zm-98.98 -14.51l-249.27 -0.95c-12.18,-0.05 -28.85,5.2 -37.04,11.66l-57.22 45.13c-8.19,6.46 -4.92,11.78 7.26,11.83l249.27 0.95c12.18,0.05 28.84,-5.2 37.03,-11.66l57.23 -45.13c8.19,-6.46 4.92,-11.78 -7.26,-11.83zm-121.04 24.36l-69.82 -0.26c-9.11,-0.04 -17.6,8.96 -26.4,15.91 -2.29,1.81 -1.38,3.3 2.03,3.31l69.82 0.26c9.11,0.04 17.59,-8.96 26.4,-15.9 2.29,-1.81 1.38,-3.3 -2.03,-3.31zm-570.21 -7.25l-62.34 47.38 129.02 1.68 92.69 -68.81 -146.54 3.93 -55.67 14.92 42.83 0.89zm196.69 1.26l-62.34 47.38 129.03 1.68 92.69 -68.81 -146.54 3.94 -55.66 14.93 42.83 0.89zm503.51 -64.34l222.62 0.67c40.37,3.27 55.67,15.74 89.38,30.68l43.86 20.92c21.77,11.98 24.25,33.29 3.25,47.32l-75.36 45.32c-30.55,17.67 -101.16,12.98 -142.04,12.94l-772.26 0.06c-66.79,-0.09 -119.71,-3.13 -176.14,-35.08 -12.33,-6.98 -20.5,-15.27 -29.11,-24.88 -33.88,-37.83 32.02,-68.11 61.29,-79.3 28.31,-10.82 44.01,-19.41 79.76,-19.37l694.75 0.71z"/>
    <path class="fil1" d="M9271.3 6295.93l167.99 -85.6 413.04 -410.32 -83.64 1.82 -497.39 494.1zm364.42 -185.69l119.31 -60.79 254.53 -252.84 -59.42 1.28 -314.41 312.35zm315.74 -160.88l167.98 -85.59 71.57 -71.1 -83.65 1.81 -155.9 154.88zm-4573.91 -52.31l43.46 -0.94 -11.7 11.62 -31.76 -10.68zm141.27 -3.07l66.35 -1.44 -55.9 55.53 -48.48 -16.31 38.03 -37.78zm164.16 -3.55l83.64 -1.82 -104.75 104.05 -61.12 -20.56 82.23 -81.68zm181.47 -3.94l59.4 -1.28 -147.06 146.09 -43.42 -14.6 131.08 -130.2zm157.21 -3.41l83.64 -1.81 -195.9 194.62 -61.14 -20.56 173.4 -172.25zm181.46 -3.93l66.53 -1.44 -233.2 231.66c-33.85,-2.54 -26.49,0.34 -55.58,-9.44l222.24 -220.78zm164.35 -3.57l83.64 -1.81 -249.6 247.96 -76.08 -5.7 242.04 -240.45zm181.46 -3.93l59.4 -1.29 -263.81 262.08 -54.04 -4.05 258.45 -256.74zm157.22 -3.42l83.65 -1.81 -280.24 278.38 -76.08 -5.7 272.67 -270.88zm181.46 -3.93l66.35 -1.44 -295.06 293.13 -60.36 -4.52 289.08 -287.17zm164.16 -3.55l83.64 -1.81 -311.49 309.43 -76.09 -5.71 303.93 -301.91zm181.46 -3.94l59.41 -1.29 -325.71 323.56 -54.02 -4.05 320.32 -318.22zm157.21 -3.4l83.66 -1.82 -342.11 339.85 -76.09 -5.7 334.54 -332.33zm181.47 -3.94l45.87 -0.99 -355.1 352.75 -41.72 -3.12 350.95 -348.64zm143.68 -3.12l83.65 -1.81 -371.5 369.05 -76.08 -5.7 363.94 -361.54zm181.47 -3.93l59.4 -1.29 -385.72 383.19 -54.03 -4.05 380.35 -377.85zm157.21 -3.4l83.65 -1.82 -402.13 399.48 -76.08 -5.7 394.56 -391.96zm181.45 -3.94l66.35 -1.44 -416.97 414.22 -60.35 -4.51 410.97 -408.27zm164.17 -3.56l83.65 -1.82 -433.38 430.53 -76.08 -5.69 425.81 -423.02zm181.46 -3.93l59.4 -1.29 -447.58 444.64 -54.05 -4.05 442.23 -439.3zm157.21 -3.41l83.66 -1.82 -464 460.95 -76.1 -5.7 456.43 -453.44zm181.46 -3.93l66.53 -1.44 -478.85 475.71 -60.52 -4.54 472.84 -469.73zm164.36 -3.57l83.64 -1.81 -495.27 492.01 -76.08 -5.69 487.7 -484.5zm181.46 -3.93l59.4 -1.29 -509.48 506.13 -54.04 -4.05 504.12 -500.79zm157.22 -3.41l83.65 -1.81 -525.9 522.43 -76.08 -5.7 518.33 -514.92zm181.46 -3.94l66.34 -1.43 -540.73 537.17 -60.34 -4.52 534.73 -531.22z"/>
    <path class="fil1" d="M12395.35 6325.74l-166.28 -88.87 -404.92 -418.34 83.6 3.46 487.6 503.76zm-360.71 -192.8l-118.09 -63.12 -249.52 -257.78 59.38 2.45 308.23 318.46zm-312.53 -167.04l-166.27 -88.87 -70.16 -72.49 83.6 3.45 152.84 157.9zm4574.06 37.35l-43.43 -1.79 11.47 11.85 31.96 -10.05zm-141.19 -5.84l-66.31 -2.74 54.8 56.61 48.79 -15.36 -37.28 -38.52zm-164.06 -6.77l-83.6 -3.46 102.69 106.08 61.52 -19.36 -80.61 -83.27zm-181.35 -7.49l-59.36 -2.45 144.17 148.94 43.7 -13.75 -128.5 -132.75zm-157.11 -6.49l-83.59 -3.45 192.05 198.42 61.53 -19.35 -169.99 -175.61zm-181.35 -7.49l-66.49 -2.74 228.61 236.19c33.89,-1.87 26.48,0.86 55.75,-8.35l-217.87 -225.09zm-164.25 -6.79l-83.59 -3.45 244.69 252.8 76.18 -4.21 -237.28 -245.15zm-181.35 -7.48l-59.36 -2.45 258.63 267.2 54.11 -2.99 -253.37 -261.76zm-157.12 -6.5l-83.6 -3.45 274.73 283.82 76.18 -4.2 -267.31 -276.17zm-181.35 -7.49l-66.3 -2.74 289.26 298.86 60.43 -3.34 -283.39 -292.79zm-164.06 -6.77l-83.59 -3.45 305.36 315.48 76.19 -4.21 -297.95 -307.81zm-181.35 -7.5l-59.37 -2.46 319.3 329.88 54.09 -2.99 -314.02 -324.44zm-157.11 -6.49l-83.61 -3.46 335.38 346.49 76.19 -4.21 -327.96 -338.83zm-181.36 -7.49l-45.84 -1.89 348.12 359.65 41.77 -2.3 -344.05 -355.45zm-143.59 -5.94l-83.6 -3.45 364.2 376.26 76.18 -4.21 -356.78 -368.61zm-181.36 -7.49l-59.36 -2.46 378.14 390.68 54.1 -2.99 -372.87 -385.23zm-157.12 -6.48l-83.6 -3.46 394.22 407.28 76.18 -4.21 -386.8 -399.62zm-181.34 -7.5l-66.31 -2.74 408.78 422.32 60.42 -3.33 -402.89 -416.25zm-164.06 -6.77l-83.6 -3.46 424.85 438.94 76.18 -4.2 -417.43 -431.28zm-181.35 -7.49l-59.37 -2.45 438.78 453.33 54.11 -2.99 -433.53 -447.89zm-157.12 -6.5l-83.61 -3.46 454.87 469.96 76.2 -4.21 -447.46 -462.3zm-181.35 -7.49l-66.49 -2.75 469.44 485.01 60.6 -3.35 -463.54 -478.91zm-164.26 -6.79l-83.59 -3.45 485.53 501.62 76.17 -4.2 -478.11 -493.97zm-181.35 -7.49l-59.37 -2.45 499.46 516.02 54.11 -2.99 -494.21 -510.58zm-157.12 -6.49l-83.6 -3.45 515.56 532.64 76.18 -4.21 -508.14 -524.98zm-181.35 -7.5l-66.3 -2.73 530.1 547.67 60.42 -3.34 -524.22 -541.6z"/>
    <path class="fil0" d="M11745.25 4241.12c205.87,-282.16 481.97,-650.29 620.02,-834.36 138.05,-184.07 138.05,-184.07 299.11,-116.25 161.06,67.81 483.18,203.44 647.87,278.52 164.69,75.08 171.96,89.61 175.59,102.93 3.63,13.32 3.63,25.43 3.63,31.49 0,6.06 0,6.06 -259.15,205.87 -259.15,199.81 -777.44,599.43 -1036.59,799.24 -259.15,199.81 -259.15,199.81 -370.56,201.02 -111.41,1.21 -334.23,3.63 -445.64,4.84 -111.41,1.21 -111.41,1.21 -43.59,-96.88 67.81,-98.09 203.44,-294.27 409.31,-576.42zm-579.79 -2678.58c2299.64,1232.28 3449.45,1848.42 3449.45,1848.42 -1023.03,-732.39 -1534.54,-1098.59 -1534.54,-1098.59 -274.5,41.22 -460.5,-34.34 -558.01,-226.69 -142.41,-235.41 -213.62,-353.12 -213.62,-353.12 -80.06,-160.85 -100.01,-274.36 -43.56,-372.54 38.58,-99.4 171.15,-297.59 361.81,-556.03 132.94,-63.98 272.08,-81.41 417.42,-52.31 23.25,-264.48 34.88,-396.71 34.88,-396.71 -492.74,165.65 -1142.3,507.14 -1948.69,1024.48 -92.15,66.74 -80.52,127.77 34.88,183.1z"/>
    <path class="fil1" d="M9243.82 3321.17l482.05 619.03c-19.68,89.11 -37.85,171.37 -54,244.49 -129.26,585.25 -129.26,585.25 -215.64,518.64l-431.91 -333.02 219.51 -1049.15zm233.54 -1110.2l715.08 -383.18c125.74,-569.35 124.9,-569.84 33.62,-623.71 -92.13,-54.37 -276.39,-163.09 -368.52,-217.46 -92.13,-54.37 -92.13,-54.37 -103.06,-19.63 -10.93,34.73 -32.79,104.2 -156.3,677.21 -34.05,157.94 -75.81,354.14 -120.82,566.77z"/>
    <path class="fil1" d="M12494.52 3259.79l-482.05 619.03c19.68,89.11 37.85,171.37 54,244.49 129.26,585.25 129.26,585.25 215.64,518.64l431.91 -333.02 -219.51 -1049.15zm-233.54 -1110.2l-715.08 -383.18c-125.74,-569.35 -124.91,-569.84 -33.62,-623.71 92.13,-54.37 276.39,-163.09 368.52,-217.46 92.13,-54.37 92.13,-54.37 103.06,-19.63 10.93,34.73 32.79,104.2 156.3,677.21 34.05,157.94 75.81,354.14 120.82,566.77z"/>
    <path class="fil0" d="M20790.96 899.25l-538.52 -677.24 -5375.7 -222.01c243.8,78.85 307.91,386.25 342.56,731.08l80.68 -5.67c135.68,-66.96 273.64,-68.54 389.14,61.87l5101.84 111.96zm-243.25 235.84l-4862.43 -1.04c-104.51,108.91 -229.62,140.32 -390.41,53.24l-80.54 -7.46c-42.29,343.99 -113.19,649.89 -358.68,723.32l5379.3 -102.86 553.4 -665.14 -240.64 -0.05zm0 0l0 0z"/>
    <path class="fil1" d="M20788.35 1135.14l-553.4 665.14 -5379.3 102.86c82.26,-24.59 145.57,-75.82 194,-145.66l5118.21 -100.34 453.46 -522.04 167.02 0.04zm2.61 -235.89l-538.52 -677.24 -5375.7 -222.01c81.67,26.39 143.88,79.04 190.73,149.92l5114.73 213.71 441.79 531.96 166.97 3.66z"/>
    <path class="fil2" d="M19618.88 1146.91l106.99 -9.67 -554.69 493.79 -99.01 2.56 546.7 -486.69zm25.03 -287.21l106.76 11.95 -544.05 -505.49 -98.93 -4.67 536.22 498.21zm895.38 30.89l-96.09 -2.02 -526.13 -488.84 98.93 4.67 523.29 486.19zm-208.44 -4.39l-68.26 -1.44 -531.47 -493.82 70.25 3.32 529.48 491.94zm-180.6 -3.81l-96.08 -2.02 -537.69 -499.56 98.95 4.67 534.83 496.92zm-208.45 -4.4l-76.21 -1.61 -543.26 -504.76 78.47 3.71 541.01 502.66zm-4639.13 -503.95l106.75 11.95 -202.66 -188.31 -83.48 9.7 179.38 166.66zm231.6 25.91l84.92 9.5 -241.24 -224.15 -46 -2.17 -27.59 3.2 229.91 213.62zm209.76 23.47l106.76 11.94 -258.21 -239.92 -98.93 -4.67 250.39 232.65zm231.6 25.91l75.82 8.48 -272.92 -253.58 -70.27 -3.32 267.37 248.42zm200.66 22.45l106.77 11.94 -289.92 -269.35 -98.93 -4.67 282.08 262.09zm231.6 25.91l84.68 9.47 -305.25 -283.62 -78.47 -3.7 299.05 277.85zm209.52 23.43l106.76 11.95 -322.23 -299.39 -98.94 -4.67 314.42 292.12zm231.6 25.91l75.82 8.48 -336.95 -313.06 -70.25 -3.32 331.38 307.9zm200.65 22.44l106.77 11.95 -353.92 -328.83 -98.94 -4.67 346.1 321.55zm231.61 25.91l58.54 6.55 -367.35 -341.31 -54.25 -2.56 363.06 337.33zm183.38 20.52l106.76 11.94 -384.33 -357.08 -98.93 -4.67 376.49 349.82zm231.61 25.91l75.81 8.48 -399.03 -370.76 -70.26 -3.31 393.48 365.59zm200.66 22.44l106.76 11.95 -416.01 -386.52 -98.93 -4.68 408.18 379.25zm231.59 25.91l84.68 9.48 -431.36 -400.79 -78.46 -3.71 425.14 395.02zm209.52 23.44l106.76 11.95 -448.33 -416.56 -98.93 -4.68 440.5 409.29zm231.6 25.91l75.81 8.48 -463.03 -430.22 -70.27 -3.32 457.48 425.06zm200.65 22.45l106.77 11.95 -480 -446 -98.95 -4.67 472.18 438.72zm231.6 25.91l84.92 9.5 -495.38 -460.27 -78.69 -3.72 489.15 454.49zm209.77 23.47l106.76 11.94 -512.36 -476.05 -98.93 -4.68 504.53 468.79zm231.6 25.9l75.81 8.49 -527.05 -489.71 -70.27 -3.33 521.51 484.55zm1071.46 297.83l-96.11 -0.02 -536.42 477.53 99.01 -2.56 533.52 -474.95zm-208.49 -0.05l-68.27 -0.01 -541.86 482.4 70.31 -1.82 539.83 -480.56zm-180.64 -0.04l-96.11 -0.02 -548.2 488.01 99.02 -2.57 545.29 -485.42zm-208.49 -0.04l-76.23 -0.02 -553.88 493.08 78.53 -2.03 551.59 -491.03zm-4648.81 405.09l106.98 -9.67 -206.62 183.95 -83.25 -11.48 182.89 -162.8zm232.1 -20.97l85.1 -7.69 -245.96 218.96 -46.03 1.19 -27.52 -3.79 234.41 -208.67zm210.21 -19l106.99 -9.66 -263.26 234.37 -99.01 2.56 255.28 -227.26zm232.09 -20.97l75.98 -6.87 -278.25 247.71 -70.33 1.83 272.6 -242.67zm201.1 -18.17l107 -9.67 -295.59 263.12 -99.01 2.57 287.6 -256.02zm232.09 -20.97l84.86 -7.67 -311.22 277.06 -78.54 2.03 304.9 -271.43zm209.97 -18.97l106.99 -9.67 -328.53 292.47 -99.02 2.56 320.56 -285.36zm232.1 -20.98l75.98 -6.87 -343.53 305.82 -70.31 1.82 337.86 -300.77zm201.09 -18.17l107 -9.67 -360.84 321.22 -99.02 2.57 352.86 -314.11zm232.11 -20.98l58.66 -5.3 -374.53 333.42 -54.29 1.41 370.16 -329.53zm183.78 -16.61l106.99 -9.66 -391.84 348.82 -99 2.56 383.85 -341.72zm232.11 -20.97l75.97 -6.87 -406.83 362.18 -70.32 1.82 401.17 -357.13zm201.09 -18.17l106.99 -9.67 -424.14 377.58 -99.01 2.57 416.16 -370.47zm232.09 -20.97l84.87 -7.67 -439.8 391.52 -78.53 2.04 433.46 -385.88zm209.97 -18.97l106.99 -9.67 -457.09 406.92 -99.01 2.57 449.11 -399.82zm232.1 -20.97l75.98 -6.86 -472.08 420.26 -70.33 1.82 466.42 -415.22zm201.09 -18.17l107 -9.67 -489.39 435.68 -99.03 2.57 481.42 -428.57zm232.1 -20.97l85.1 -7.69 -505.06 449.63 -78.75 2.04 498.71 -443.97zm210.22 -19l106.99 -9.66 -522.37 465.03 -99 2.57 514.39 -457.94zm232.1 -20.97l75.98 -6.87 -537.36 478.38 -70.33 1.83 531.71 -473.34z"/>
   </g>
  </svg>
  