<?xml version="1.0" encoding="UTF-8"?>
<!DOCTYPE svg PUBLIC "-//W3C//DTD SVG 1.1//EN" "http://www.w3.org/Graphics/SVG/1.1/DTD/svg11.dtd">
<!-- Creator: CorelDRAW -->
<svg xmlns="http://www.w3.org/2000/svg" xml:space="preserve" width="386.797mm" height="196.31mm" version="1.1" style="shape-rendering:geometricPrecision; text-rendering:geometricPrecision; image-rendering:optimizeQuality; fill-rule:evenodd; clip-rule:evenodd"
viewBox="0 0 74450.64 37785.79"
 xmlns:xlink="http://www.w3.org/1999/xlink"
 xmlns:xodm="http://www.corel.com/coreldraw/odm/2003">
 <defs>
  <style type="text/css">
   <![CDATA[
    .fil0 {fill:black}
    .fil1 {fill:#D9D9D9}
    .fil2 {fill:red}
   ]]>
  </style>
 </defs>
 <g id="Camada_x0020_1">
  <metadata id="CorelCorpID_0Corel-Layer"/>
  <path class="fil0" d="M33748.2 3.31c-501.93,-3.46 -1017.47,-10.12 -1518.82,17.34 -351.87,19.36 -854.09,51.47 -911.35,507.72 -60.13,479.68 483.43,638.4 830.11,755.21 464.07,156.72 937.38,295.5 1404.89,442.67 766.78,241.14 3998.14,1002.15 3480.31,2314.8 -1778.75,-272.36 -3603.77,-441.8 -5379.05,-540.1 -1245.88,-69.1 -2498.7,-100.61 -3746.32,-70.54 -2923.71,70.26 -5717.91,500.49 -8531.75,1284.63 -1894.39,527.66 -5297.78,1403.16 -6066.59,3438.1 -291.16,771.11 -76.34,1247.91 357.38,1661.95 -4598.39,812.46 -8912.27,1870.41 -13352.78,3288.6 1247.91,258.19 3528.58,645.35 6196.43,1183.42 2667.83,537.79 6755.89,1355.46 12199.4,2022.48 5443.53,667.04 12242.5,1183.42 17944.22,1398.54 5701.72,215.12 10306.17,129.25 15684.93,-128.96 4638.27,-223.51 9409.56,-510.03 14024.71,-1011.39 2272.59,-248.95 4650.72,-648.81 6876.18,-1173.3 662.4,-156.14 1507.83,-381.36 1106.8,-1260.34 -254.73,-558.33 -1441.91,-1494.82 -1940.08,-1905.11 -7877.17,-6354.86 -19392.77,-9806.84 -29280.85,-11397.07 -3156.77,-507.44 -6179.94,-784.41 -9377.76,-828.38l0 -0.29z"/>
  <path class="fil0" d="M40702.73 19959.29c501.93,-3.46 1017.47,-10.12 1518.82,17.34 351.87,19.36 854.09,51.47 911.35,507.72 60.13,479.68 -483.43,638.4 -830.11,755.21 -464.07,156.72 -937.38,295.5 -1404.89,442.67 -801.78,252.13 -4296.52,1072.11 -3386.92,2496.39 247.49,387.15 806.97,752.9 1484.69,957.32 273.23,82.4 565.26,138.49 868.85,178.97 649.1,-130.98 1299.37,-253.57 1953.67,-372.12 2515.46,-455.68 5113.62,-856.42 7675.06,-869.14 2335.05,-11.57 4685.39,322.67 6954.8,861.33 857.86,203.55 2284.74,512.63 2876.88,1223.33 320.94,385.13 417.22,826.34 445.84,1290.69 205.86,0 411.73,0 617.59,0l542.12 0 -18.79 541.83c-21.69,627.43 -43.08,1254.84 -64.77,1882.26 5835.59,994.62 7903.19,1466.2 13289.46,3186.26 -1247.91,258.19 -3528.58,645.35 -6196.43,1183.42 -2667.83,537.79 -6755.89,1355.46 -12199.42,2022.48 -5443.51,667.04 -12242.48,1183.42 -17944.2,1398.54 -5701.72,215.12 -10306.17,129.25 -15684.93,-128.96 -4638.27,-223.51 -9409.56,-510.03 -14024.71,-1011.39 -2272.59,-248.95 -4650.72,-648.81 -6876.18,-1173.3 -662.4,-156.14 -1507.83,-381.36 -1106.8,-1260.34 254.73,-558.02 1441.91,-1494.82 1940.08,-1905.11 7877.17,-6354.86 19392.77,-9806.84 29280.85,-11397.07 3156.77,-507.44 6179.94,-784.41 9377.76,-828.38l0.29 0.04z"/>
  <path class="fil1" d="M26137.04 29435.37c-1353.73,-208.17 -2939.05,-426.48 -3872.95,-685.83 537.79,-94.26 1075.87,-188.23 1983.45,-295.78 907.87,-107.56 2185.26,-228.7 2911.28,-282.48 950.68,-70.54 1270.16,-75.76 403.34,457.41 -349.56,215.12 -887.35,510.9 -1425.43,806.68l0.31 0zm20493.81 -866.83c578.27,-100.92 1156.54,-201.53 1808.52,-272.36 652.28,-70.54 1378.58,-111.02 1771.82,-130.98 609.78,-31.22 492.98,-54.93 174.93,433.7 -137.91,211.65 -312.84,514.36 -487.47,816.81 -780.08,-161.34 -1559.88,-322.67 -2104.6,-463.76 -544.72,-141.4 -853.8,-262.23 -1163.18,-383.4l-0.02 0zm-39888.31 4774.76c3985.41,224.09 10194.57,57.82 14175.92,150.06 4340.19,100.61 8325.03,-137.91 12659.14,-283.06 1981.43,-708.1 4048.45,-1305.44 6314.38,-1830.22 -957.9,680.05 -1753.59,943.15 -3421.02,2031.74 6456.65,-379.34 14315.88,-778.35 21148.95,-1455.5 1229.1,-121.72 3050.65,-131.56 4199.38,-272.94l-3535.53 -376.16 647.66 -2416.3c-392.06,-8.1 -895.46,-9.26 -1687.38,7.24 -1287.52,26.89 -3338.34,100.92 -5389.15,174.93l-342.9 887.64c351.87,85.58 1890.94,429.08 1919.56,658.94 41.34,331.35 -3578.03,-215.4 -4531.88,-379.92 -1502.63,-259.06 -3177,-621.92 -4145.31,-867.39 -968.02,-245.47 -1230.26,-373.28 -1206.85,-581.73 23.42,-208.46 332.8,-497.6 1068.92,-756.66 736.14,-258.77 1899.6,-487.47 3065.98,-625.39 2012.38,-237.67 4491.41,-215.4 6297.02,-37.01 947.48,93.68 812.17,168.86 1008.5,645.64 47.14,114.2 100.92,161.34 548.2,67.37 447.29,-94.26 1287.52,-329.62 1795.22,-501.06 456.54,-154.1 643.9,-256.75 748,-371.26 -189.38,-278.73 -694.8,-403.92 -2002.25,-714.16 -5241.12,-1244.13 -8728.35,-924.37 -13972.66,25.45 -898.92,171.46 -2232.11,438.05 -2943.96,686.4 -651.12,226.97 -1149.3,520.16 -1579.82,774.31 -430.52,254.15 -793.67,469.27 -968.6,704.61 -174.93,235.35 -161.34,490.65 60.73,705.77 221.76,215.12 651.99,390.04 1082.51,564.68 -174.93,40.48 -349.56,80.67 -927.83,168.29 -1315.27,198.93 -4751.33,658.65 -6118.36,780.08 -833.86,74.03 -1129.65,46.83 -2723.05,-208.46 -1593.41,-255.59 -4484.75,-739.6 -6212.62,-1089.17 -1727.85,-349.85 -2292.82,-564.97 -2380.44,-793.38 -87.31,-228.7 302.73,-470.71 1290.98,-732.94 988.25,-262.23 2575.02,-544.72 4134.89,-672.53 1559.88,-127.81 3093.15,-100.92 4054.51,-26.89 961.65,74.03 1351.4,195.17 1485.85,383.4 134.45,188.23 13.3,443.82 -302.73,712.72 -316.01,268.89 -826.91,551.38 -1338.1,833.86 470.71,-13.3 941.42,-26.89 2205.51,-262.23 1264.09,-235.35 3321.57,-692.47 4565.41,-1169.84 937.67,-359.98 1413,-731.21 1774.7,-1105.36 -379.63,-148.04 -775.17,-301.27 -1120.39,-401.32 -3465.85,-1005.32 -9656.49,-1079.04 -13312.01,-753.19 -2791.88,248.95 -5433.38,833.86 -8075.77,1758.81 -1278.26,447.29 -3204.18,1165.79 -4286.99,1990.69 -1759.38,1341.01 1079.62,2000.23 2126.58,2304.39 -2213.91,858.73 -3686.45,1027 -5852.93,1666.86l0.04 0.21zm-4043.24 358.24c6481.51,376.45 12963.32,752.9 18194.31,874.05 5231.01,120.86 9211.52,-13.59 13192.02,-148.04 376.45,-134.45 752.9,-268.89 1129.65,-403.34 349.56,161.34 699.41,322.67 1048.98,484.01 5486.6,-322.67 10973.21,-645.64 15612.36,-995.2 4639.42,-349.85 8431.7,-726.02 10878.93,-1062.28 2087.25,-286.53 3196.38,-544.14 4161.78,-797.14 -2112.7,-462.32 -4237.83,-876.65 -6609.01,-1341.01 26.89,-780.08 53.78,-1559.88 80.67,-2339.96 -376.45,0 -752.9,0 -1129.65,0 0,-537.79 0,-1075.87 -336.26,-1479.21 -336.26,-403.63 -1008.5,-672.53 -2595.55,-1048.98 -1586.77,-376.45 -4087.76,-860.46 -6831.06,-847.16 -2743.3,13.3 -5728.61,524.49 -7584.27,860.75 -1855.66,336.26 -2581.97,497.6 -3307.98,658.94 -1317.87,-537.79 -2635.74,-1075.87 -5405.65,-1412.13 -2770.19,-336.26 -6992.7,-470.71 -10462.31,-161.34 -3469.32,309.37 -6185.71,1062.28 -8337.45,1815.47 -1648.07,576.82 -5006.35,1661.95 -5589.83,3573.7 -283.06,926.96 302.42,1247.33 990.87,1670.9l-7100.55 2097.96z"/>
  <path class="fil1" d="M35864.65 35152.7l1858.84 4.04 1115.19 1321.05 425.03 0.58 -6.64 436.58 -2066.16 -3.18 8.1 -430.23 355.05 -0.58 -80.96 -93.1 -964.84 -1.44 -85.29 85.29 426.48 2.02 -8.1 436.58 -1553.22 -2.31 6.64 -429.08 354.18 0.58 795.4 -912.51 -587.53 -0.87 7.81 -413.18 0 -0.25zm1137.46 651.12l-213.09 247.78 413.47 -0.58 -200.37 -246.91 0 -0.29zm-5250.66 -654.59l2209.27 2.02c486.32,22.85 831.55,111.31 1036.25,265.72 204.7,154.39 320.08,323.54 344.94,508.01 -0.29,229.57 -74.03,417.22 -221.18,562.08 -344.65,286.53 -766.49,426.19 -1263.23,418.95l-2133.24 -3.18 6.64 -444.98 298.67 0.58 13.59 -890.24 -298.67 -0.58 6.35 -418.37 0.6 -0.02zm1334.35 422.71l-13.3 885.33 632.91 0.87 65.64 -8.68c261.08,-52.62 393.22,-187.65 396.68,-405.07 19.94,-207.01 -85.58,-358.82 -316.61,-454.23 -42.21,-14.74 -135.31,-20.54 -278.44,-17.63l-486.61 -0.87 -0.27 0.29zm-5513.78 -426.48l1493.95 2.31 1151.63 902.96 7.53 -491.54 -291.74 -1.73 6.06 -408.25 1570.29 2.31 -6.06 409.41 -321.81 -0.58 -13.88 914.82 268.89 0.29 -6.35 427.92 -1248.19 -1.73 -1311.21 -1033.08 -9.26 601.98 343.5 0.58 -6.35 427.92 -1675.83 -2.6 6.35 -426.48 344.94 0.58 13.88 -912.51 -321.81 0.87 6.35 -413.18 -0.89 -0.27zm-2119.65 334.24c-154.1,-0.29 -286.53,52.91 -396.68,159.32 -110.45,106.4 -166.82,234.77 -169.15,385.42 -2.31,149.77 50.03,278.15 157.29,384.56 106.98,106.69 237.67,160.18 391.77,160.47 152.37,0.29 284.22,-52.91 395.24,-159.32 110.16,-106.4 166.82,-234.19 169.15,-384.27 2.31,-150.63 -50.6,-279.31 -157.29,-386 -107.85,-106.69 -237.96,-160.18 -390.33,-160.47l0 0.29zm-10.11 -355.63c529.97,0.87 979.88,90.5 1351.4,269.18 371.54,178.68 555.42,394.08 551.67,645.64 -3.75,252.13 -194.29,466.67 -571.03,643.61 -377.03,177.24 -829.53,265.43 -1359.51,264.85 -529.11,-0.87 -979.59,-90.5 -1351.69,-268.61 -371.83,-178.1 -555.71,-393.22 -551.96,-645.35 3.75,-251.84 194.29,-466.38 571.61,-644.19 377.32,-177.52 830.69,-266.01 1359.79,-265.14l-0.29 0zm-5936.51 9.53l1694.32 2.6 -6.06 406.81 -352.45 -0.58 -2.89 198.35 1018.91 2.89 2.89 -196.91 -261.08 -0.29 7.81 -408.25 1706.76 2.6 -6.06 409.41 -449.31 -0.58 -13.59 902.38 443.24 0.58 -6.64 440.36 -1756.5 -1.44 6.64 -435.43 313.99 -0.87 4.62 -305.62 -1024.69 -1.44 -4.62 303.02 359.69 0.58 -6.64 437.76 -1694.32 -2.6 6.64 -440.36 359.69 0.58 12.15 -901.23 -358.24 -0.58 6.35 -412.02 -0.62 0.29z"/>
  <path class="fil2" d="M39363.46 16255.23c-12441.14,-224.09 -20427.6,-1172.72 -31700.61,-3172.96l-3350.77 -644.19c818.54,-194.87 1654.42,-390.91 2549.88,-591.57l711.85 243.45c7722.18,1674.36 20708.33,2533.38 32496.6,2843.05l-1068.34 16.48 2.31 1218.71 358.82 -5.49 0.29 92.53 -0.02 0z"/>
  <path class="fil2" d="M39759 36085.73c9915.26,-364.31 17230.91,-1308.33 27029.07,-3047.19l3350.77 -644.19c-818.54,-194.87 -1654.42,-390.91 -2549.59,-591.57l-712.14 243.45c-7254.36,1572.89 -19154.23,2384.77 -30342.55,2704.56l1445.08 3.18 1114.9 1321.05 664.71 0.87 -0.29 9.84 0.04 0.02z"/>
  <path class="fil2" d="M34235.67 24850.58c-50.89,-808.99 909.33,-1402.01 2207.53,-1999.94 4531.88,-2087.54 8852.41,-2452.72 4262.7,-2420.63 -7663.78,53.78 -16351.39,1946.17 -24312.96,4625.85 -6146.12,2068.76 -10937.06,4741.21 -14886.35,8203.02 -1843.52,1616.25 -1203.37,1485.27 1694.32,1869.25 5112.46,677.14 10374.69,988.54 15798.55,1109.4l2.89 -195.17 358.82 0.58 1.44 -94.26 -358.82 -0.58 16.19 -1082.22c-1241.52,-22.56 -2406.15,-51.76 -3474.78,-87.62 -3214.01,-107.56 -7248.01,-268.89 -9466.82,-457.12 -3159.66,-268.03 -2339.09,-559.48 -3379.68,-619.9 2366.85,-699.41 4733.41,-1398.54 7100.26,-2097.67 -688.42,-423.57 -1273.93,-743.94 -990.87,-1670.9 583.46,-1911.75 3941.76,-2996.88 5589.83,-3573.7 4617.73,-1616.25 8680.35,-2064.69 13658.94,-1979.98 2044.18,34.7 4178.28,161.05 6178.2,471.29l0.6 0.31z"/>
  <path class="fil2" d="M40158.59 5061.13c66.21,-997.8 -872.61,-1577.8 -2150.87,-2166.77 -4531.6,-2087.54 -8852.41,-2452.72 -4262.7,-2420.63 7663.78,53.78 16351.39,1946.17 24312.96,4625.85 6146.12,2068.76 10937.06,4741.21 14886.35,8203.02 1843.52,1615.97 1203.37,1485.27 -1694.32,1869.25 -3748.05,496.44 -7576.75,796.27 -11490.75,968.6l-0.29 -197.48 -664.71 10.41 -863.06 -987.96c228.42,-6.64 453.66,-13.88 674.26,-21.12 3213.72,-107.56 7271.14,-351.3 9491.11,-518.71 2376.69,-178.97 2795.06,-394.95 3576.3,-536.35 -138.49,-40.77 -283.64,-78.07 -434.27,-111.89l6.06 -1.15c-2077.71,-598.5 -4172.49,-1149.88 -6508.12,-1766.89 77.49,-776.62 154.98,-1553.22 232.17,-2329.84 -375.87,-24.29 -751.46,-48.87 -1127.05,-73.14 34.99,-536.92 69.68,-1073.56 -239.41,-1497.71 -309.37,-424.46 -962.82,-736.43 -2521.82,-1215.22 -1559.01,-478.81 -4023.58,-1123.87 -6761.98,-1288.67 -2738.37,-164.51 -5750.57,151.79 -7624.15,366.91 -1873.58,215.12 -2608.86,329.03 -3343.84,442.95 -958.76,-466.09 -1917.83,-932.16 -3491.01,-1353.44l-0.87 -0.02z"/>
  <path class="fil1" d="M30993.9 8917c-1337.81,-295.78 -2904.64,-616.15 -3820.32,-935.65 542.99,-58.98 1085.7,-118.26 1998.5,-166.53 912.8,-48.58 2195.39,-86.44 2923.71,-92.81 953.28,-8.68 1272.2,6.64 372.99,482.57 -362.86,191.98 -918.57,452.21 -1474.59,712.72l-0.29 -0.29zm20506.82 464.36c583.46,-63.04 1167.24,-126.06 1822.4,-154.39 655.45,-28.04 1382.62,-21.12 1776.42,-15.9 609.49,8.39 496.44,-24.29 146.3,444.11 -151.21,202.39 -345.52,492.98 -539.52,783.55 -767.94,-211.65 -1535.57,-423.28 -2069.89,-599.38 -534.32,-176.37 -835.02,-317.19 -1136,-457.99l0.29 0zm-40114.11 2176.89c3962.3,481.99 10169.39,719.07 14136.31,1069.21 4324.58,381.94 8316.35,402.48 12651.06,538.94 2023.06,-577.98 4124.79,-1040.01 6419.92,-1416.75 -999.82,616.44 -1810.85,827.51 -3545.66,1805.64 6467.64,40.48 14336.1,152.08 21198.98,-80.38 1234.32,-41.63 3052.68,66.5 4208.06,0l-3503.71 -604.87 803.22 -2369.16c-390.91,-33.53 -892.84,-67.37 -1684.49,-102.36 -1286.65,-56.67 -3337.76,-115.95 -5389.17,-175.21l-399.88 863.64c345.81,108.14 1859.13,551.09 1872.72,782.1 19.65,333.38 -3556.34,-447.29 -4497.74,-673.1 -1482.67,-355.91 -3129.88,-826.91 -4080.25,-1134.55 -950.1,-307.64 -1203.65,-452.21 -1166.66,-658.65 37.01,-206.43 364.31,-475.04 1115.77,-685.54 751.46,-210.5 1927.36,-363.15 3100.08,-425.03 2023.62,-106.69 4496.01,76.34 6286.03,371.54 939.11,154.98 799.45,221.18 964.56,709.54 39.61,117.1 90.22,167.69 542.41,102.65 452.21,-65.06 1306.3,-245.47 1824.15,-383.4 465.51,-124.32 659.22,-214.54 770.25,-321.81 -170.88,-290.3 -667.33,-448.15 -1951.65,-842.54 -5149.48,-1581.57 -8649.99,-1488.76 -13944.91,-880.98 -907,112.75 -2258.14,293.19 -2982.13,493.85 -664.42,184.18 -1180.54,444.4 -1626.67,670.22 -446.13,225.53 -822.29,416.64 -1012.25,640.44 -189.67,223.51 -192.85,479.1 14.74,708.38 207.59,228.99 625.39,431.39 1043.49,633.78 -176.95,28.91 -354.18,57.82 -936.8,107.56 -1325.4,113.04 -4784.01,348.99 -6156.24,381.36 -836.75,19.65 -1130.22,-26.31 -2703.98,-384.56 -1573.47,-358.53 -4427.21,-1029.04 -6128.78,-1489.91 -1701.56,-461.16 -2251.48,-712.43 -2323.77,-946.33 -72.28,-233.9 332.51,-450.17 1335.79,-647.66 1003.3,-197.48 2605.1,-376.45 4169.89,-402.76 1565.07,-26.31 3093.15,100.03 4047.59,236.23 954.72,136.18 1336.08,282.19 1458.09,478.81 122.01,196.62 -15.32,443.82 -348.12,691.6 -332.8,247.78 -861.04,496.44 -1389.28,745.09 470.71,17.05 941.13,34.13 2217.66,-118.55 1276.53,-152.66 3359.45,-475.62 4631.63,-871.16 959.05,-298.38 1457.52,-638.11 1842.65,-987.96 -369.22,-172.33 -754.06,-351.01 -1092.05,-473.31 -3393.27,-1228.23 -9566.28,-1703.29 -13235.1,-1615.1 -2802.28,67.37 -5475.9,479.68 -8172.95,1231.43 -1304.57,363.44 -3273.26,955.59 -4407.25,1708.49 -1842.65,1224.19 947.48,2066.16 1972.48,2437.68 -2264.78,713.29 -3745.43,785.86 -5948.63,1283.75l0.62 -0.29zm-4058 95.12c6443.63,796.27 12887.25,1592.54 18099.19,2052.57 5212.21,460.01 9193,584.04 13173.8,708.1 384.56,-109.58 768.8,-219.45 1153.36,-329.31 338.28,183.61 676.86,367.48 1015.14,551.09 5495.86,33.84 10992,67.66 15644.14,19.94 4652.17,-48 8460.92,-177.52 10924.92,-354.18 2101.42,-150.63 3225,-335.69 4204.59,-525.35 -2077.71,-598.5 -4172.49,-1149.88 -6508.12,-1766.89 77.49,-776.62 154.98,-1553.22 232.17,-2329.84 -375.87,-24.29 -751.46,-48.87 -1127.05,-73.14 34.99,-536.92 69.68,-1073.56 -239.41,-1497.71 -309.37,-424.46 -962.82,-736.43 -2521.82,-1215.22 -1559.01,-478.81 -4023.58,-1123.87 -6761.98,-1288.67 -2738.37,-164.51 -5750.57,151.79 -7624.15,366.91 -1873.58,215.12 -2608.86,329.03 -3343.84,442.95 -1280.28,-622.21 -2560.27,-1244.44 -5302.71,-1759.67 -2742.44,-515.23 -6947.3,-923.5 -10429.63,-839.93 -3482.04,83.56 -6241.82,658.65 -8437.5,1270.73 -1681.87,468.69 -5103.76,1333.77 -5809.84,3203.6 -342.61,906.72 220.89,1264.09 880.4,1731.63 -2407.04,544.43 -4814.08,1088.59 -7221.41,1632.73l-0.27 -0.33z"/>
  <path class="fil1" d="M55848.98 15086.26l1858.84 -27.76 1137.46 1301.97 425.03 -6.64 0.87 436.58 -2065.87 32.09 0.87 -430.52 355.05 -6.64 -82.69 -91.95 -964.84 15.03 -83.84 86.73 426.48 -5.49 -0.58 436.58 -1552.93 24 -0.87 -429.08 354.18 -5.49 779.79 -925.81 -587.53 8.97 0.87 -413.18 -0.29 0.58zm1148.43 631.76l-209.05 251.26 413.47 -7.81 -204.41 -243.45zm-5261.06 -565.26l2208.96 -35.57c486.61,14.46 833.28,97.14 1040.87,248.07 207.3,150.92 325.56,318.05 353.61,502.22 3.46,229.57 -67.08,418.66 -211.36,565.54 -339.73,292.32 -759.26,439.2 -1255.99,440.36l-2132.93 33.24 -0.87 -444.98 298.67 -4.62 -1.73 -890.24 -298.67 4.62 -0.87 -418.37 0.31 -0.27zm1341.3 399.88l1.73 885.33 632.91 -9.84 65.35 -9.84c260.19,-57.24 390.02,-194.29 389.73,-411.73 16.48,-207.3 -91.37,-357.09 -324.12,-448.73 -42.48,-13.88 -135.58,-18.21 -278.71,-12.72l-486.61 7.53 -0.29 0zm-5520.13 -332.51l1493.66 -23.14 1166.66 883.02 -0.87 -491.82 -291.74 3.18 -0.87 -408.25 1570 -24.29 0.87 409.41 -321.81 4.91 1.73 915.11 268.61 -4.04 0.87 427.92 -1248.19 19.36 -1328.57 -1010.52 1.15 601.98 343.5 -5.2 0.87 427.92 -1675.54 26.02 -0.87 -426.48 344.94 -5.49 -1.73 -912.51 -321.81 6.35 -0.87 -413.18 0 -0.27zm-2113.85 370.08c-154.1,2.31 -285.66,57.82 -393.79,165.96 -108.71,108.14 -162.78,237.67 -162.49,388.31 0.29,149.77 54.93,277 163.94,381.94 108.71,104.67 240.56,156.14 394.37,153.81 152.37,-2.31 283.35,-57.82 392.35,-165.96 108.42,-108.14 162.78,-237.1 162.49,-386.87 -0.29,-150.63 -55.22,-278.44 -163.94,-383.09 -109.58,-104.67 -240.56,-156.14 -392.93,-153.81l0 -0.29zm-16.21 -355.34c529.69,-8.1 981.03,73.72 1355.75,246.05 374.43,172.33 562.08,384.56 562.66,636.38 0.58,252.13 -186.21,470.13 -560.06,653.16 -373.85,183.61 -824.89,279.6 -1354.6,287.68 -529.11,8.1 -981.03,-73.72 -1356.04,-245.76 -375.01,-171.75 -562.37,-383.69 -562.95,-635.8 -0.58,-251.84 186.21,-469.56 560.64,-653.74 374.43,-183.9 826.05,-279.89 1355.17,-288.26l-0.58 0.29zm-5935.33 110.45l1694.04 -26.31 0.87 407.1 -352.45 5.49 0.29 198.35 1018.91 -14.46 -0.29 -196.91 -261.08 4.04 0.87 -408.25 1706.47 -26.6 0.87 409.41 -449.31 6.95 1.73 902.38 442.95 -6.95 0.87 440.36 -1756.21 28.62 -0.87 -435.43 313.99 -6.06 -0.58 -305.62 -1024.4 15.9 0.58 303.02 359.69 -5.49 0.87 437.76 -1694.04 26.31 -0.87 -440.36 359.69 -5.49 -3.18 -901.23 -358.24 5.49 -0.87 -412.02 -0.31 0z"/>
 </g>
</svg>
