<?xml version="1.0" encoding="UTF-8"?>
  <!DOCTYPE svg PUBLIC "-//W3C//DTD SVG 1.1//EN" "http://www.w3.org/Graphics/SVG/1.1/DTD/svg11.dtd">
  <!-- Creator: CorelDRAW -->
  <svg xmlns="http://www.w3.org/2000/svg" xml:space="preserve" width="751.854mm" height="544.959mm" version="1.1" style="shape-rendering:geometricPrecision; text-rendering:geometricPrecision; image-rendering:optimizeQuality; fill-rule:evenodd; clip-rule:evenodd"
  viewBox="0 0 73983.23 53624.59"
   xmlns:xlink="http://www.w3.org/1999/xlink"
   xmlns:xodm="http://www.corel.com/coreldraw/odm/2003">
   <defs>
    <style type="text/css">
     <![CDATA[
      .fil0 {fill:#000000}
      .fil2 {fill:#ff0000}
      .fil1 {fill:#d9d9d9}
     ]]>
    </style>
   </defs>
   <g id="Camada_x0020_1">
    <metadata id="CorelCorpID_0Corel-Layer"/>
    <g>
     <path class="fil0" d="M39698.13 3635.68l0 0.17c546.33,-189.29 1042.79,-427.04 1474.1,-703.82l-1424.18 22261.21 -49.92 0.18 0 -74.19 -145.87 -122.68 145.87 -122.67 0 -423.36 -183.37 -154.21 183.37 -154.18 0 -495.69 -229.83 -193.28 229.83 -193.24 0 -915.79 -349.98 -294.28 349.98 -294.29 0 -783.22 -435.96 -366.55 435.96 -366.55 0 -614.37 -474.34 -398.83 474.34 -398.82 0 -605.84 -517.26 -434.93 517.26 -434.9 0 -351.64 -596.41 -501.49 596.41 -501.43 0 -347.24 -668.76 -562.31 668.76 -562.28 0 -4714.14 -208.83 154.84 4.87 4.08 -723.6 608.4 -11.56 -2014.11 -105.86 0 -13.75 2032.19 -939.13 -780.94 -8.72 -1251.25 -105.84 0 -8.49 1220.29 -220.02 184.94 0.55 0.47 -723.58 608.4 -11.58 -2014.11 -105.86 0 -14.05 2021.88 -17.35 -14.4 0 6.63 -925.64 -775.17 -8.98 -1238.94 -105.85 0 -8.46 1220.35 -219.44 184.84 0.63 0.52 -723.59 608.4 -11.57 -2014.11 -105.85 0 -13.63 2024.17 -18.39 -15.38 0 5.32 -723.6 -608.4 1.25 -1.05 -155.27 -129.86 0 283.22 678.17 570.2 -678.17 570.18 0 303.91 678.17 570.19 -678.17 570.21 0 303.88 678.17 570.19 -678.17 570.21 0 401.89 635.49 534.31 -635.49 534.34 0 403.21 563.13 473.44 -563.13 473.47 0 412.4 478.34 402.17 -478.34 402.19 0 666.57 441.07 370.82 -441.07 370.85 0 670.33 402.68 338.57 -402.68 338.57 0 839.19 316.71 266.3 -316.71 266.29 0 943.77 229.85 193.24 -229.85 193.28 0 495.69 183.37 154.18 -183.37 154.21 0 423.36 145.87 122.67 -145.87 122.68 0 95.93 -20.24 0.07 -1424.18 -22283.2c2115.95,1357.8 5304.88,1525 7675.63,703.66zm-6231.21 6203.34l0 -6213.58 0 6213.58zm5203.35 15034.86l-145.89 122.67 145.89 122.68 0 -245.34zm47.63 0l145.87 122.67 -145.87 122.68 0 -245.34zm-1115.8 0l-145.88 122.67 145.88 122.68 0 -245.34zm47.62 0l145.89 122.67 -145.89 122.68 0 -245.34zm-1115.8 0l-145.87 122.67 145.87 122.68 0 -245.34zm47.64 0l145.88 122.67 -145.88 122.68 0 -245.34zm-1115.81 0l-145.88 122.67 145.88 122.68 0 -245.34zm47.64 0l145.87 122.67 -145.87 122.68 0 -245.34zm-1115.8 0l-145.89 122.67 145.89 122.68 0 -245.34zm47.62 0l145.88 122.67 -145.88 122.68 0 -245.34zm4272.7 -731.76l183.37 154.18 -183.37 154.21 0 -308.4zm-47.63 0l-183.39 154.18 183.39 154.21 0 -308.4zm-1020.56 0l183.39 154.18 -183.39 154.21 0 -308.4zm-47.62 0l-183.39 154.18 183.39 154.21 0 -308.4zm-1020.55 0l183.37 154.18 -183.37 154.21 0 -308.4zm-47.64 0l-183.37 154.18 183.37 154.21 0 -308.4zm-1020.54 0l183.37 154.18 -183.37 154.21 0 -308.4zm-47.64 0l-183.37 154.18 183.37 154.21 0 -308.4zm-1020.55 0l183.39 154.18 -183.39 154.21 0 -308.4zm-47.62 0l-183.39 154.18 183.39 154.21 0 -308.4zm1076.16 -882.2l-229.84 193.24 229.84 193.28 0 -386.52zm47.62 0l229.86 193.24 -229.86 193.28 0 -386.52zm2092.93 0l-229.84 193.24 229.84 193.28 0 -386.52zm47.62 0l229.86 193.24 -229.86 193.28 0 -386.52zm1024.75 0l-229.83 193.24 229.83 193.28 0 -386.52zm47.63 0l229.86 193.24 -229.86 193.28 0 -386.52zm-2188.17 0l-229.83 193.24 229.83 193.28 0 -386.52zm47.63 0l229.86 193.24 -229.86 193.28 0 -386.52zm-2188.17 0l-229.83 193.24 229.83 193.28 0 -386.52zm47.63 0l229.86 193.24 -229.86 193.28 0 -386.52zm4226.92 -822.2l-293.25 246.55 293.25 246.58 0 -493.14zm60.75 0l293.27 246.55 -293.27 246.58 0 -493.14zm-2201.3 0l-293.25 246.55 293.25 246.58 0 -493.14zm60.75 0l293.27 246.55 -293.27 246.58 0 -493.14zm-2201.3 0l-293.25 246.55 293.25 246.58 0 -493.14zm60.75 0l293.27 246.55 -293.27 246.58 0 -493.14zm953.67 -12353.67l-723.59 608.4 723.59 608.37 0 -1216.78zm-1024.12 10918.21l-386.65 325.1 386.65 325.12 0 -650.21zm-8.02 -1509.57l-464.6 390.62 464.6 390.63 0 -781.26zm-3.58 -1409.03l-499.41 419.9 499.41 419.94 0 -839.83zm-6.55 -1470.14l-535.77 450.45 535.77 450.52 0 -900.97zm-4.83 -1350.53l-610.12 512.98 610.12 512.95 0 -1025.94zm-6.73 -1466.15l-675.72 568.13 675.72 568.14 0 -1136.27zm-15.06 -1546.67l-723.6 608.37 723.6 608.39 0 -1216.77zm0 -1444.28l-723.6 608.37 723.6 608.37 0 -1216.75zm124.88 10196.38l386.69 325.1 -386.69 325.12 0 -650.21zm8.03 -1509.57l464.63 390.62 -464.63 390.63 0 -781.26zm3.58 -1409.03l499.43 419.9 -499.43 419.94 0 -839.83zm0.92 -1470.14l535.77 450.45 -535.77 450.52 0 -900.97zm10.45 -1350.53l610.13 512.98 -610.13 512.95 0 -1025.94zm6.77 -1466.15l675.72 568.13 -675.72 568.14 0 -1136.27zm-5.2 -1546.67l723.59 608.37 -723.59 608.39 0 -1216.77zm0 -1444.28l723.59 608.37 -723.59 608.37 0 -1216.75zm5196.06 2166.76l-723.61 608.38 723.61 608.39 0 -1216.78zm0 -1444.3l-723.61 608.39 723.61 608.39 0 -1216.79zm0 -1444.29l-723.61 608.4 723.61 608.37 0 -1216.78zm-944 10918.21l386.66 325.1 -386.66 325.12 0 -650.21zm-79.55 0l-386.65 325.1 386.65 325.12 0 -650.21zm87.55 -1509.57l464.63 390.62 -464.63 390.63 0 -781.26zm-95.56 0l-464.61 390.62 464.61 390.63 0 -781.26zm99.15 -1409.03l499.41 419.9 -499.41 419.94 0 -839.83zm-102.72 0l-499.41 419.9 499.41 419.94 0 -839.83zm103.63 -1470.14l535.78 450.45 -535.78 450.52 0 -900.97zm-110.2 0l-535.77 450.45 535.77 450.52 0 -900.97zm120.67 -1350.53l610.11 512.98 -610.11 512.95 0 -1025.94zm-125.5 0l-610.09 512.98 610.09 512.95 0 -1025.94zm132.27 -1466.15l675.71 568.13 -675.71 568.14 0 -1136.27zm-138.99 0l-675.73 568.13 675.73 568.14 0 -1136.27zm133.79 -1546.67l723.6 608.37 -723.6 608.39 0 -1216.77zm-148.84 0l-723.59 608.37 723.59 608.39 0 -1216.77zm148.84 -1444.28l723.6 608.37 -723.6 608.37 0 -1216.75zm-148.84 0l-723.59 608.37 723.59 608.37 0 -1216.75zm-943.15 10918.86l386.69 325.12 -386.69 325.11 0 -650.22zm-79.51 0l-386.66 325.12 386.66 325.11 0 -650.22zm87.54 -1509.59l464.63 390.64 -464.63 390.64 0 -781.28zm-95.57 0l-464.6 390.64 464.6 390.64 0 -781.28zm99.15 -1409l499.42 419.9 -499.42 419.91 0 -839.8zm-102.72 0l-499.41 419.9 499.41 419.91 0 -839.8zm103.65 -1470.14l535.77 450.45 -535.77 450.49 0 -900.94zm-110.22 0l-535.76 450.45 535.76 450.49 0 -900.94zm120.67 -1350.51l610.13 512.93 -610.13 512.97 0 -1025.9zm-125.49 0l-610.11 512.93 610.11 512.97 0 -1025.9zm132.25 -1466.17l675.73 568.11 -675.73 568.15 0 -1136.26zm-138.99 0l-675.71 568.11 675.71 568.15 0 -1136.26zm133.81 -1546.69l723.59 608.38 -723.59 608.39 0 -1216.78zm-148.84 0l-723.6 608.38 723.6 608.39 0 -1216.78zm148.84 -1444.3l723.59 608.39 -723.59 608.39 0 -1216.79zm-148.84 0l-723.6 608.39 723.6 608.39 0 -1216.79zm148.84 -1444.29l723.59 608.4 -723.59 608.37 0 -1216.78zm-148.84 0l-723.6 608.4 723.6 608.37 0 -1216.78zm-944.68 10918.21l386.68 325.1 -386.68 325.12 0 -650.21zm-79.53 0l-386.66 325.1 386.66 325.12 0 -650.21zm87.55 -1509.57l464.61 390.62 -464.61 390.63 0 -781.26zm-95.57 0l-464.59 390.62 464.59 390.63 0 -781.26zm99.14 -1409.03l499.44 419.9 -499.44 419.94 0 -839.83zm-102.71 0l-499.41 419.9 499.41 419.94 0 -839.83zm103.63 -1470.14l535.79 450.45 -535.79 450.52 0 -900.97zm-110.19 0l-535.76 450.45 535.76 450.52 0 -900.97zm120.65 -1350.53l610.13 512.98 -610.13 512.95 0 -1025.94zm-125.49 0l-610.1 512.98 610.1 512.95 0 -1025.94zm132.27 -1466.15l675.72 568.13 -675.72 568.14 0 -1136.27zm-139 0l-675.7 568.13 675.7 568.14 0 -1136.27zm133.81 -1546.67l723.58 608.37 -723.58 608.39 0 -1216.77zm-148.84 0l-723.61 608.37 723.61 608.39 0 -1216.77zm148.84 -1444.28l723.58 608.37 -723.58 608.37 0 -1216.75zm-148.84 0l-723.61 608.37 723.61 608.37 0 -1216.75zm-947.59 10918.86l386.68 325.12 -386.68 325.11 0 -650.22zm-79.52 0l-386.67 325.12 386.67 325.11 0 -650.22zm87.54 -1509.59l464.61 390.64 -464.61 390.64 0 -781.28zm-95.56 0l-464.6 390.64 464.6 390.64 0 -781.28zm99.13 -1409l499.45 419.9 -499.45 419.91 0 -839.8zm-102.71 0l-499.41 419.9 499.41 419.91 0 -839.8zm103.65 -1470.14l535.78 450.45 -535.78 450.49 0 -900.94zm-110.2 0l-535.77 450.45 535.77 450.49 0 -900.94zm120.65 -1350.51l610.13 512.93 -610.13 512.97 0 -1025.9zm-125.5 0l-610.1 512.93 610.1 512.97 0 -1025.9zm132.27 -1466.17l675.72 568.11 -675.72 568.15 0 -1136.26zm-139 0l-675.7 568.11 675.7 568.15 0 -1136.26zm133.81 -1546.69l723.59 608.38 -723.59 608.39 0 -1216.78zm-148.85 0l-723.59 608.38 723.59 608.39 0 -1216.78zm148.85 -1444.3l723.59 608.39 -723.59 608.39 0 -1216.79zm-148.85 0l-723.59 608.39 723.59 608.39 0 -1216.79zm148.85 -1444.29l723.59 608.4 -723.59 608.37 0 -1216.78z"/>
    </g>
    <path class="fil1" d="M34149.41 5992.72c-52.84,31.6 -90.83,70.12 -115.3,114.83l-207.17 403.43c-16.84,47.79 17.76,89.5 56.4,91.17 838.63,-7.12 1683.65,-0.8 2530.18,1.56 846.51,2.37 1695.06,-7.21 2551.34,2.83 70.62,-8.57 132.46,-36.12 177.93,-96.09 66.33,-89.33 57.13,-99.16 97.1,-206.51 30.82,-79.43 -14.21,-177.64 -81.22,-192.45 -65.4,-12.65 -77.04,-14.58 -142.35,-26.92 270.05,21.54 276.32,-48.6 318.92,-233.06 38.45,-157.19 -76.23,-226.68 -344.5,-208.77 -483.36,-6.92 -965.05,-6.15 -1446.74,-5.5 -122.97,-2.82 -223.72,24.42 -320.13,58.28 -184.35,63.98 -369.22,125.63 -554.65,184.72 -112.93,32.59 -177.02,81.69 -206.9,141.44l-188.23 336.12c-261.98,0.43 -523.51,0.35 -785.28,-0.8 -261.75,-1.16 -523.56,-2.53 -785.33,-3.68 -43.01,2.15 -63.58,-9.69 -49.06,-44.25 28.97,-61.24 58.48,-122.71 87.98,-184.16 24.68,-38.42 55.51,-72.57 99.35,-97.55 89.08,-48.9 178.15,-97.79 267.82,-146.59 40.64,-18.38 83.14,-33.54 130.65,-33.78 365.98,0.47 731.88,0.63 1097.41,-1.04 191.16,-69.97 383.14,-136.21 574.54,-205.11 -319.88,0.81 -639.51,2.88 -959.07,2.6 -319.56,-0.28 -640.01,-2.05 -959.54,-2.2 -125.78,-10.4 -227.48,12.49 -318.41,50.18l-525.75 301.29zm3036.97 312.8c-20.55,36.06 -24.76,64.67 34.9,66.98 306.13,2.51 611.81,3 917.24,2.32 137.66,4.71 121.86,-31.38 179.06,-117.53 29.82,-41.41 25.12,-62.95 -16.73,-63.47 -277.35,-0.81 -554.2,-2.07 -831.41,-4.94 123.23,-49.12 246.92,-98.78 370.45,-149.2 36.14,-15.06 75.57,-23.07 117.06,-24.26 138.42,-0.71 276.83,-1.53 415.81,-2.34 91.65,5.85 89.93,-14.79 141.81,-99.58 20.94,-34.26 12.02,-61.88 -30.36,-64.75 -186.93,-1.08 -373.84,-1.96 -560.73,-2.83 -229.57,-6.5 -304.77,69.85 -505.6,162.39 -138.25,63.7 -158.95,152.57 -231.5,297.2z"/>
    <path class="fil2" d="M32022.5 2932.03l1424.18 22283.2 20.24 -0.07 0 -21589.72c-534.62,-187.57 -1020.94,-421.67 -1444.42,-693.41zm7675.63 22261.39l49.92 -0.18 1424.18 -22261.21c-431.31,276.78 -927.76,514.53 -1474.1,703.82l0 21557.57z"/>
    <g>
     <path class="fil2" d="M22983.6 36131.01l-858.42 446.97 628.9 662.98 229.52 -1109.94zm-4397.19 -4268.74l10685.72 2011.54 1348.68 -1793.39 -9845.12 -1626.6 -2189.27 1408.44zm12030.67 4008.19l46.54 -149.17c-606.68,-120.35 -1894.65,-197.04 -1824.79,-814.74l-11715.34 -2239.71c-268.04,-89.18 -838.07,546.55 -791.96,739.41 54.89,220.52 78.09,332.5 146.65,567.03l114.32 407.85 485.51 549.12 116.98 -526.76 59.35 10.12 -108.08 525.97 801.07 -407.72 211.82 36.14 -857.02 452.16 614.16 694.68 254.26 -1144.89 89.25 15.22 -231.94 1128.63 861.14 -438.29 -624.12 -689.49 205.71 35.1 -51.33 27.08 614.18 694.65 133.86 -602.83 58.14 9.91 -123.75 602.27 861.12 -438.29 -40.85 -45.15 523.41 89.32 591.99 669.58 121.64 -547.82 107.87 18.42 -114.16 555.47 846.02 -430.6 459.55 78.42 575.62 651.07 118.3 -532.65 108.09 18.43 -111.03 540.3 822.87 -418.82 480.31 81.95 582.53 658.89 119.71 -539.08 108 18.43 -112.35 546.72 832.66 -423.79 139.8 23.86 -861.38 442.53 652.2 685.56 254.2 -1120.43 79.16 13.53 -221.46 1095.45 822.76 -418.76 -570.3 -671.42 302.38 51.59 493.55 558.24 101.42 -456.72 109.31 18.67 -95.38 464.12 706.89 -359.78 181.36 30.95 -820.77 433.04 614.17 694.67 248.83 -1120.51 89.64 15.3 -226.91 1104.19 861.14 -438.29 -597.01 -659.55 212.41 36.24 496.84 561.95 102.1 -459.76 109.25 18.66 -96.02 467.18 711.55 -362.15 183.76 31.36 -838.71 442.49 614.18 694.67 251.51 -1132.56 381.35 65.05 30.12 -102.05 212.15 -679.86zm-13807.76 -715.9l85.47 304.9 91.27 -397.78 -176.74 92.88zm1674.79 5974.58l156.79 559.31 167.35 -729.65 -324.14 170.34zm-1490.9 -5318.65l97.31 347.17 664.25 -346.46 -637.04 -685.19 -124.52 684.48zm-5.92 -21.08l5.92 21.08 -5.92 -21.08zm1772.04 6321.47l163.93 584.83 334.55 -129.74 -487.63 -526.79 -10.85 71.7zm-1645.42 -7017.35l-126.61 695.88 126.61 -695.88zm0 1147.5l66.39 236.9 448.85 470.32 255.07 -1112.07 -770.3 404.85zm276 984.59l115.28 411.25 118.74 -534.73 -234.02 123.48zm170.46 608.17l77.64 276.9 660.2 -336.04 -591.41 -653.35 -146.43 712.49zm121.68 434.03l11.5 41.05 529.67 556.87 168.66 -967.54 -709.84 369.61zm277.56 990.17l79.88 284.97 85.27 -371.76 -165.16 86.79zm297.11 1059.9l140.99 502.95 269.66 -115.96 -410.65 -386.99zm722.75 2578.29l61.97 221.11 211.84 213.38 128.84 -616.75 -402.65 182.26zm8516.91 3511.49l5.25 -17.87 -283.33 -272.18 -107.84 455.77 385.91 -165.73zm70.22 -237.97l74.04 -250.93 -217.07 108.26 143.04 142.67zm266.09 -901.82l122.62 -415.57 -377.81 161.01 255.19 254.55zm277.29 -939.76l180.56 -611.95 -560.09 271.91 379.53 340.03zm295.88 -1002.79l219.24 -743.05 -650.19 314.55 430.95 428.5zm-5763.68 -6048.26l-649.9 -667.33 -238.84 1126.18 888.74 -458.85zm-1017.98 395.4l255.07 -1112.07 -876.65 460.73 621.58 651.34zm-719.75 -730.59l204.52 -1124.13 637.05 685.2 -841.57 438.94zm1006.93 -502.84l-614.18 -694.67 870.43 -459.23 -256.25 1153.9zm111.56 -1.03l861.14 -438.28 -628.41 -694.23 -232.73 1132.51zm364.02 2184.41l-728.26 379.21 559.59 588.34 168.67 -967.55zm-283.59 1117.38l-649.37 -666.81 -232.35 1028.28 881.72 -361.47zm-995.8 333.34l240.08 -1046.59 -825.06 433.59 584.98 613zm-660.93 -777.85l176.03 -967.69 529.89 602.1 -705.92 365.59zm931.2 -382.96l-578.01 -653.77 819.18 -432.21 -241.17 1085.97zm104.99 -0.97l810.44 -412.49 -591.41 -653.34 -219.03 1065.83zm411.17 1977.47l-615.34 295.14 455.95 467.78 159.39 -762.92zm-366.87 928.33l-503.31 -467.19 -158.89 778.55 662.2 -311.36zm-903.21 275.72l179.04 -795.49 -658.63 318.61 479.59 476.88zm-605.61 -734.14l163.72 -748.4 494.03 465.58 -657.75 282.81zm827.33 -275.14l-509.05 -506.25 697.29 -338.53 -188.24 844.78zm219.7 71.7l683.72 -340.5 -503.99 -544.46 -179.73 884.96zm325.48 1929.66l-511.36 231.46 382.52 385.29 128.84 -616.75zm-412.4 839.42l-388.67 -365.31 -178.65 649.01 567.32 -283.7zm-841.39 197.24l149.13 -618.92 -539.24 229.78 390.11 389.15zm-541.13 -676.35l144.25 -659.38 376.55 411.78 -520.8 247.6zm781.75 -309.97l-477.78 -428.05 674.68 -327.54 -196.9 755.59zm286.09 35.46l602.78 -233.75 -487.64 -526.8 -115.14 760.55zm21.84 1745.2l-314.44 -307.9 -138.25 502.32 452.69 -194.42zm-786.29 135.76l130.61 -523.44 -436.9 217.91 306.29 305.54zm1237.84 -933.63l-440.42 175.9 305.23 364.47 135.19 -540.37zm-1281.11 70.71l-324.02 -353.86 -92.3 536.76 416.32 -182.9zm529.7 -2032.64l-426.07 -397.87 -131.48 648.94 557.55 -251.07zm1249.99 -139.63l-545.57 239.04 375.17 430.35 170.39 -669.38zm3343.25 -5561.49l-858.39 446.96 628.9 662.99 229.49 -1109.94zm-341.42 1146.07l-649.9 -667.33 -238.85 1126.19 888.75 -458.86zm-1017.98 395.4l255.07 -1112.07 -876.65 460.72 621.58 651.35zm-719.75 -730.6l204.52 -1124.12 637.03 685.2 -841.55 438.93zm1006.91 -502.82l-614.16 -694.68 870.42 -459.23 -256.26 1153.91zm111.57 -1.03l861.14 -438.29 -628.4 -694.22 -232.74 1132.51zm364.02 2184.41l-728.27 379.21 559.6 588.33 168.67 -967.54zm-283.61 1117.37l-649.37 -666.8 -232.33 1028.27 881.7 -361.47zm-995.78 333.36l240.06 -1046.62 -825.03 433.61 584.97 613.01zm-660.95 -777.87l176.05 -967.69 529.89 602.11 -705.94 365.58zm931.22 -382.96l-578.01 -653.78 819.16 -432.2 -241.15 1085.97zm104.99 -0.96l810.44 -412.5 -591.41 -653.35 -219.03 1065.85zm411.15 1977.46l-615.32 295.14 455.95 467.79 159.37 -762.93zm-366.87 928.33l-503.31 -467.17 -158.87 778.52 662.18 -311.35zm-903.19 275.71l179.02 -795.46 -658.6 318.61 479.58 476.85zm-605.61 -734.12l163.71 -748.39 494.04 465.56 -657.75 282.83zm827.32 -275.15l-509.06 -506.25 697.31 -338.53 -188.25 844.78zm219.7 71.7l683.73 -340.5 -504 -544.47 -179.73 884.97zm325.48 1929.66l-511.35 231.46 382.51 385.28 128.84 -616.74zm-412.39 839.42l-388.69 -365.31 -178.65 649.03 567.34 -283.72zm-841.39 197.26l149.13 -618.95 -539.26 229.79 390.13 389.17zm-541.14 -676.37l144.24 -659.38 376.55 411.8 -520.79 247.58zm781.74 -309.97l-477.76 -428.03 674.68 -327.54 -196.92 755.57zm286.12 35.46l602.77 -233.76 -487.63 -526.78 -115.14 760.54zm21.83 1745.2l-314.44 -307.9 -138.27 502.32 452.71 -194.42zm-786.29 135.76l130.59 -523.44 -436.88 217.91 306.29 305.54zm1237.82 -933.61l-440.39 175.88 305.22 364.47 135.17 -540.35zm-1281.11 70.7l-324 -353.87 -92.3 536.75 416.3 -182.88zm529.72 -2032.65l-426.08 -397.87 -131.49 648.94 557.57 -251.07zm1249.98 -139.62l-545.56 239.03 375.16 430.35 170.39 -669.37zm3316.83 -5584.58l-807.94 434.9 604.05 633.35 203.89 -1068.25zm-341.42 1146.06l-616.27 -675.37 -229.27 1111.91 845.54 -436.55zm-982.55 417.15l242.55 -1119.74 -899.56 446.63 657.01 673.1zm-755.17 -752.34l204.5 -1124.12 637.04 685.19 -841.54 438.94zm1482.49 1680.54l-728.27 379.2 559.59 588.33 168.68 -967.53zm-334.49 1065.1l-553.8 -568.68 -184.56 944.49 738.36 -375.81zm-933.5 335.88l219.69 -957.7 -714.69 406.77 495 550.93zm-672.34 -728.12l176.04 -967.69 529.9 602.09 -705.94 365.6zm931.21 -382.96l-578.01 -653.79 819.18 -432.19 -241.17 1085.97zm173.7 -35.94l764.79 -415.06 -543.72 -579.64 -221.08 994.7zm342.47 2012.43l-615.33 295.13 455.95 467.79 159.38 -762.92zm-366.87 928.32l-503.32 -467.17 -158.88 778.54 662.2 -311.37zm-903.21 275.73l179.04 -795.49 -658.62 318.61 479.58 476.88zm-605.59 -734.15l163.71 -748.39 494.03 465.58 -657.74 282.8zm827.31 -275.13l-509.05 -506.26 697.29 -338.52 -188.24 844.78zm219.7 71.7l683.72 -340.5 -503.99 -544.48 -179.73 884.98zm325.47 1929.66l-511.35 231.44 382.51 385.31 128.84 -616.75zm-412.39 839.42l-388.67 -365.3 -178.65 649 567.32 -283.7zm-841.38 197.24l149.13 -618.94 -539.25 229.81 390.12 389.14zm-541.15 -676.35l144.25 -659.39 376.56 411.79 -520.81 247.6zm781.76 -309.97l-477.78 -428.04 674.7 -327.54 -196.92 755.58zm286.11 35.46l602.77 -233.76 -487.63 -526.8 -115.14 760.56zm21.82 1745.19l-314.43 -307.9 -138.27 502.32 452.7 -194.42zm-786.28 135.77l130.59 -523.44 -436.88 217.9 306.29 305.55zm1237.82 -933.63l-440.41 175.9 305.23 364.45 135.18 -540.35zm-1281.11 70.71l-324.01 -353.86 -92.3 536.74 416.31 -182.88zm529.7 -2032.65l-426.05 -397.86 -131.5 648.92 557.55 -251.06zm1249.99 -139.62l-545.55 239.04 375.16 430.33 170.38 -669.36zm3343.26 -5561.5l-858.41 446.98 628.9 662.98 229.51 -1109.95zm-341.44 1146.09l-649.89 -667.34 -238.84 1126.19 888.73 -458.85zm-1017.98 395.39l255.07 -1112.07 -876.64 460.73 621.57 651.34zm-719.74 -730.6l204.52 -1124.12 637.04 685.2 -841.56 438.93zm1482.49 1680.54l-728.25 379.21 559.59 588.34 168.66 -967.55zm-283.59 1117.38l-649.37 -666.8 -232.34 1028.27 881.71 -361.47zm-995.8 333.34l240.07 -1046.6 -825.04 433.6 584.97 613zm-660.93 -777.86l176.04 -967.68 529.89 602.1 -705.93 365.58zm931.21 -382.95l-578.01 -653.77 819.16 -432.21 -241.15 1085.97zm104.98 -0.96l810.45 -412.5 -591.41 -653.35 -219.04 1065.85zm411.16 1977.45l-615.33 295.15 455.96 467.78 159.37 -762.93zm-378.13 881.22l-474.13 -449.24 -163.77 743.81 637.89 -294.57zm-879.63 263.69l159.49 -766.6 -624.49 305.1 465 461.5zm-617.92 -674.98l163.71 -748.39 494.04 465.56 -657.75 282.82zm827.33 -275.15l-509.07 -506.25 697.31 -338.54 -188.24 844.79zm219.7 71.7l683.72 -340.51 -503.99 -544.45 -179.73 884.96zm325.47 1929.66l-511.36 231.46 382.52 385.28 128.84 -616.74zm-453.75 800.54l-347.34 -326.44 -130.45 544.21 477.79 -217.77zm-813.9 178.08l188.02 -601.63 -543.67 236.98 355.64 364.65zm-508.34 -649.13l125.33 -628.55 366.04 367.91 -491.38 260.63zm773.63 -320.58l-425.18 -417.39 611.3 -296.76 -186.12 714.15zm275.3 76.9l595.08 -265.94 -479.94 -494.61 -115.14 760.55zm10.28 1696.85l-315.84 -313.74 -118.11 524.54 433.95 -210.79zm-774.75 184.11l121.48 -561.59 -439.31 207.73 317.84 353.86zm1237.84 -933.62l-440.41 175.9 305.22 364.47 135.19 -540.37zm-1289.5 35.62l-315.63 -318.77 -128.54 514.48 444.17 -195.71zm528.43 -2037.91l-392.09 -397.13 -155.81 688.55 547.9 -291.42zm1259.64 -99.28l-545.57 239.04 375.18 430.35 170.38 -669.38zm1859.56 -4012.3l255.07 -1112.06 -876.65 460.72 621.58 651.34zm-618.04 -720.86l204.51 -1124.11 637.04 685.19 -841.55 438.93zm101.4 3121.55l240.07 -1046.61 -825.04 433.59 584.97 613.02zm-660.95 -777.87l176.04 -967.69 529.9 602.11 -705.94 365.58zm931.21 -382.96l-578.01 -653.77 819.18 -432.21 -241.17 1085.97zm-1359.51 2446.41l163.71 -748.39 494.02 465.56 -657.73 282.82zm827.31 -275.15l-509.05 -506.24 697.29 -338.54 -188.24 844.78zm-1249.74 2361.68l144.25 -659.37 376.56 411.79 -520.81 247.58zm260.11 743.56l-324.02 -353.88 -92.3 536.76 416.32 -182.88zm529.69 -2032.65l-426.05 -397.87 -131.5 648.94 557.55 -251.06zm-7241.33 -7677.04l-858.41 446.97 628.9 662.99 229.51 -1109.95zm-341.44 1146.08l-649.89 -667.33 -238.84 1126.19 888.73 -458.86zm-1017.98 395.39l255.07 -1112.06 -876.64 460.72 621.57 651.34zm-719.74 -730.59l204.52 -1124.12 637.04 685.19 -841.56 438.94zm1006.92 -502.84l-614.17 -694.66 870.43 -459.24 -256.26 1153.9zm111.56 -1.02l861.14 -438.29 -628.41 -694.23 -232.73 1132.52zm364.02 2184.41l-728.25 379.21 559.59 588.34 168.66 -967.55zm-283.59 1117.36l-649.37 -666.79 -232.34 1028.26 881.71 -361.48zm-995.8 333.36l240.07 -1046.6 -825.04 433.59 584.97 613.01zm-660.93 -777.86l176.04 -967.68 529.89 602.1 -705.93 365.58zm931.21 -382.95l-578.01 -653.78 819.16 -432.21 -241.15 1085.98zm104.98 -0.96l810.45 -412.5 -591.41 -653.35 -219.04 1065.85zm411.16 1977.45l-615.33 295.15 455.96 467.79 159.37 -762.94zm-366.87 928.34l-503.29 -467.19 -158.89 778.55 662.18 -311.36zm-681.48 -733.56l-509.07 -506.25 697.31 -338.54 -188.24 844.79zm219.7 71.7l683.72 -340.51 -503.99 -544.46 -179.73 884.97zm570.35 861.24l-545.57 239.04 375.18 430.35 170.38 -669.38zm-638.45 -6238.71l-858.39 446.96 628.9 662.99 229.49 -1109.94zm-341.43 1146.07l-649.9 -667.33 -238.83 1126.19 888.73 -458.86zm-430.6 3501.83l175.06 -863.49 501.51 539.22 -676.57 324.27zm1753.04 290.51l-487.07 -537.65 646.24 -296.25 -159.17 833.9zm901.59 -292.06l-651.99 321.95 149.48 -828.49 502.5 506.54zm1099.19 615.05l-487.08 -537.64 646.26 -296.27 -159.18 833.91zm901.58 -292.06l-651.99 321.96 149.48 -828.49 502.5 506.53zm1080.87 606l-487.08 -537.65 646.26 -296.25 -159.18 833.9zm901.58 -292.05l-651.98 321.94 172.52 -865.99 479.46 544.05zm1071.8 570.71l-460.79 -508.64 619.98 -325.25 -159.18 833.9zm901.58 -292.04l-651.98 321.95 149.47 -828.49 502.5 506.54zm1069.06 692.68l-487.08 -537.64 646.25 -296.26 -159.17 833.9zm901.57 -292.05l-651.98 321.95 149.48 -828.49 502.49 506.54zm-10104.26 -4619.93l-799.78 374.43 574.2 636.4 225.58 -1010.82zm171.88 42.24l-232.84 984.3 778.54 -375.34 -545.7 -608.95zm1818.75 300.94l-799.76 374.42 574.2 636.41 225.56 -1010.82zm171.9 42.24l-232.86 984.3 778.55 -375.35 -545.69 -608.95zm1858.86 286.07l-799.76 374.44 574.2 636.39 225.56 -1010.82zm171.9 42.25l-232.86 984.3 778.54 -375.35 -545.68 -608.95zm1817.05 268.63l-799.78 374.43 574.2 636.4 225.58 -1010.82zm171.88 42.24l-232.85 984.3 778.54 -375.34 -545.69 -608.95zm1810.72 241.5l-799.78 374.43 574.2 636.4 225.58 -1010.82zm171.88 42.24l-232.85 984.29 778.55 -375.34 -545.7 -608.95zm1780 311.49l-799.76 374.42 574.2 636.4 225.56 -1010.82zm171.9 42.24l-232.85 984.3 778.54 -375.35 -545.69 -608.95zm-7221.78 7086.71l-294.55 -282.95 -107.84 455.77 402.39 -172.82zm-1078.17 -174.2l369.71 -164.8 -103.73 424.46 -265.98 -259.66zm3037.77 489.77l-294.55 -282.96 -107.85 455.78 402.4 -172.82zm-1078.17 -174.2l369.69 -164.8 -103.72 424.45 -265.97 -259.65zm3111.04 443.62l-294.56 -282.94 -107.84 455.76 402.4 -172.82zm-1078.18 -174.2l369.71 -164.78 -103.72 424.43 -265.99 -259.65zm1931.38 317.35l361.39 -199.63 -95.4 459.28 -265.99 -259.65z"/>
    </g>
    <path class="fil0" d="M16478.33 33973.74l13976.17 2417.63 209.12 -670.07c-606.68,-120.35 -1894.65,-197.04 -1824.78,-814.74l-11715.36 -2239.71c-268.02,-89.18 -838.06,546.55 -791.95,739.41l146.79 567.49z"/>
    <g>
     <path class="fil2" d="M55396.82 31862.27l-10685.72 2011.54 -1348.68 -1793.39 9845.13 -1626.6 2189.27 1408.44zm-4397.18 4268.74l858.41 446.97 -628.9 662.98 -229.51 -1109.94zm-7633.48 -260.55l-46.54 -149.17c606.66,-120.35 1894.64,-197.04 1824.78,-814.74l11715.34 -2239.71c268.05,-89.18 838.07,546.55 791.97,739.41 -54.68,219.74 -78.36,333.97 -146.74,567.25l-114.25 407.63 -485.49 549.12 -116.99 -526.76 -59.35 10.12 108.08 525.97 -801.07 -407.72 -211.83 36.14 857.03 452.16 -614.17 694.68 -254.25 -1144.89 -89.25 15.22 231.94 1128.63 -861.14 -438.29 624.12 -689.49 -205.71 35.1 51.33 27.08 -614.18 694.65 -133.87 -602.83 -58.14 9.91 123.76 602.27 -861.12 -438.29 40.85 -45.15 -523.41 89.32 -591.99 669.58 -121.64 -547.82 -107.87 18.42 114.16 555.47 -846.01 -430.6 -459.56 78.42 -575.61 651.07 -118.29 -532.65 -108.11 18.43 111.04 540.3 -822.88 -418.82 -480.31 81.95 -582.53 658.89 -119.7 -539.08 -108.01 18.43 112.35 546.72 -832.66 -423.79 -139.8 23.86 861.37 442.53 -652.19 685.56 -254.2 -1120.43 -79.15 13.53 221.44 1095.45 -822.75 -418.76 570.3 -671.42 -302.37 51.59 -493.56 558.24 -101.41 -456.72 -109.32 18.67 95.39 464.12 -706.9 -359.78 -181.37 30.95 820.79 433.04 -614.18 694.67 -248.83 -1120.51 -89.65 15.3 226.91 1104.19 -861.12 -438.29 597 -659.55 -212.41 36.24 -496.83 561.95 -102.11 -459.76 -109.25 18.66 96.02 467.18 -711.55 -362.15 -183.75 31.36 838.7 442.49 -614.17 694.67 -251.53 -1132.56 -381.34 65.05 -30.12 -102.05 -212.14 -679.86zm13807.75 -715.9l-85.46 304.9 -91.28 -397.78 176.74 92.88zm-1674.78 5974.58l-156.8 559.31 -167.35 -729.65 324.15 170.34zm1490.89 -5318.65l-97.3 347.17 -664.26 -346.46 637.04 -685.19 124.52 684.48zm5.92 -21.08l-5.92 21.08 5.92 -21.08zm-1772.04 6321.47l-163.94 584.83 -334.54 -129.74 487.63 -526.79 10.85 71.7zm1645.42 -7017.35l126.61 695.88 -126.61 -695.88zm0 1147.5l-66.4 236.9 -448.83 470.32 -255.07 -1112.07 770.29 404.85zm-276 984.59l-115.28 411.25 -118.74 -534.73 234.02 123.48zm-170.46 608.17l-77.64 276.9 -660.2 -336.04 591.41 -653.35 146.43 712.49zm-121.68 434.03l-11.5 41.05 -529.67 556.87 -168.66 -967.54 709.84 369.61zm-277.56 990.17l-79.89 284.97 -85.27 -371.76 165.17 86.79zm-297.11 1059.9l-140.98 502.95 -269.68 -115.96 410.66 -386.99zm-722.75 2578.29l-61.97 221.11 -211.83 213.38 -128.84 -616.75 402.64 182.26zm-8516.9 3511.49l-5.27 -17.87 283.34 -272.18 107.84 455.77 -385.9 -165.73zm-70.22 -237.97l-74.04 -250.93 217.05 108.26 -143.02 142.67zm-266.11 -901.82l-122.61 -415.57 377.82 161.01 -255.21 254.55zm-277.27 -939.76l-180.56 -611.95 560.08 271.91 -379.52 340.03zm-295.89 -1002.79l-219.24 -743.05 650.18 314.55 -430.94 428.5zm5763.68 -6048.26l649.9 -667.33 238.85 1126.18 -888.75 -458.85zm1017.99 395.4l-255.08 -1112.07 876.66 460.73 -621.58 651.34zm719.74 -730.59l-204.51 -1124.13 -637.04 685.2 841.55 438.94zm-1006.92 -502.84l614.18 -694.67 -870.43 -459.23 256.25 1153.9zm-111.57 -1.03l-861.12 -438.28 628.4 -694.23 232.72 1132.51zm-364.02 2184.41l728.27 379.21 -559.59 588.34 -168.68 -967.55zm283.6 1117.38l649.37 -666.81 232.34 1028.28 -881.71 -361.47zm995.79 333.34l-240.07 -1046.59 825.06 433.59 -584.99 613zm660.95 -777.85l-176.03 -967.69 -529.91 602.1 705.94 365.59zm-931.21 -382.96l578.01 -653.77 -819.18 -432.21 241.17 1085.97zm-105 -0.97l-810.43 -412.49 591.42 -653.34 219.01 1065.83zm-411.16 1977.47l615.33 295.14 -455.94 467.78 -159.39 -762.92zm366.87 928.33l503.32 -467.19 158.88 778.55 -662.2 -311.36zm903.21 275.72l-179.04 -795.49 658.63 318.61 -479.59 476.88zm605.6 -734.14l-163.72 -748.4 -494.02 465.58 657.74 282.81zm-827.32 -275.14l509.05 -506.25 -697.29 -338.53 188.24 844.78zm-219.7 71.7l-683.72 -340.5 503.99 -544.46 179.73 884.96zm-325.47 1929.66l511.35 231.46 -382.51 385.29 -128.84 -616.75zm412.39 839.42l388.67 -365.31 178.65 649.01 -567.32 -283.7zm841.38 197.24l-149.12 -618.92 539.24 229.78 -390.12 389.15zm541.15 -676.35l-144.25 -659.38 -376.56 411.78 520.81 247.6zm-781.76 -309.97l477.78 -428.05 -674.69 -327.54 196.91 755.59zm-286.09 35.46l-602.79 -233.75 487.65 -526.8 115.14 760.55zm-21.84 1745.2l314.44 -307.9 138.26 502.32 -452.7 -194.42zm786.29 135.76l-130.61 -523.44 436.9 217.91 -306.29 305.54zm-1237.84 -933.63l440.42 175.9 -305.23 364.47 -135.19 -540.37zm1281.12 70.71l324.01 -353.86 92.3 536.76 -416.31 -182.9zm-529.7 -2032.64l426.05 -397.87 131.5 648.94 -557.55 -251.07zm-1249.99 -139.63l545.55 239.04 -375.16 430.35 -170.38 -669.38zm-3343.26 -5561.49l858.4 446.96 -628.89 662.99 -229.51 -1109.94zm341.44 1146.07l649.89 -667.33 238.84 1126.19 -888.73 -458.86zm1017.97 395.4l-255.06 -1112.07 876.64 460.72 -621.58 651.35zm719.75 -730.6l-204.52 -1124.12 -637.04 685.2 841.56 438.93zm-1006.91 -502.82l614.16 -694.68 -870.43 -459.23 256.27 1153.91zm-111.57 -1.03l-861.14 -438.29 628.41 -694.22 232.73 1132.51zm-364.02 2184.41l728.26 379.21 -559.6 588.33 -168.66 -967.54zm283.59 1117.37l649.38 -666.8 232.33 1028.27 -881.71 -361.47zm995.8 333.36l-240.07 -1046.62 825.04 433.61 -584.97 613.01zm660.93 -777.87l-176.04 -967.69 -529.88 602.11 705.92 365.58zm-931.21 -382.96l578.01 -653.78 -819.16 -432.2 241.15 1085.97zm-104.98 -0.96l-810.45 -412.5 591.41 -653.35 219.04 1065.85zm-411.16 1977.46l615.33 295.14 -455.95 467.79 -159.38 -762.93zm366.87 928.33l503.3 -467.17 158.88 778.52 -662.18 -311.35zm903.19 275.71l-179.02 -795.46 658.6 318.61 -479.58 476.85zm605.61 -734.12l-163.71 -748.39 -494.03 465.56 657.74 282.83zm-827.33 -275.15l509.07 -506.25 -697.31 -338.53 188.24 844.78zm-219.69 71.7l-683.73 -340.5 503.99 -544.47 179.74 884.97zm-325.48 1929.66l511.35 231.46 -382.51 385.28 -128.84 -616.74zm412.39 839.42l388.69 -365.31 178.65 649.03 -567.34 -283.72zm841.4 197.26l-149.13 -618.95 539.25 229.79 -390.12 389.17zm541.13 -676.37l-144.25 -659.38 -376.54 411.8 520.79 247.58zm-781.74 -309.97l477.76 -428.03 -674.68 -327.54 196.92 755.57zm-286.11 35.46l-602.77 -233.76 487.62 -526.78 115.15 760.54zm-21.84 1745.2l314.45 -307.9 138.25 502.32 -452.7 -194.42zm786.29 135.76l-130.6 -523.44 436.89 217.91 -306.29 305.54zm-1237.83 -933.61l440.4 175.88 -305.22 364.47 -135.18 -540.35zm1281.11 70.7l324.01 -353.87 92.3 536.75 -416.31 -182.88zm-529.71 -2032.65l426.08 -397.87 131.48 648.94 -557.56 -251.07zm-1249.98 -139.62l545.57 239.03 -375.18 430.35 -170.38 -669.37zm-3316.83 -5584.58l807.93 434.9 -604.03 633.35 -203.9 -1068.25zm341.42 1146.06l616.28 -675.37 229.25 1111.91 -845.53 -436.55zm982.55 417.15l-242.55 -1119.74 899.55 446.63 -657 673.1zm755.17 -752.34l-204.51 -1124.12 -637.03 685.19 841.54 438.94zm-1482.49 1680.54l728.27 379.2 -559.6 588.33 -168.67 -967.53zm334.5 1065.1l553.79 -568.68 184.55 944.49 -738.34 -375.81zm933.48 335.88l-219.67 -957.7 714.67 406.77 -495 550.93zm672.35 -728.12l-176.05 -967.69 -529.89 602.09 705.94 365.6zm-931.22 -382.96l578.01 -653.79 -819.16 -432.19 241.15 1085.97zm-173.68 -35.94l-764.8 -415.06 543.72 -579.64 221.09 994.7zm-342.47 2012.43l615.32 295.13 -455.95 467.79 -159.37 -762.92zm366.87 928.32l503.31 -467.17 158.87 778.54 -662.18 -311.37zm903.19 275.73l-179.02 -795.49 658.6 318.61 -479.58 476.88zm605.61 -734.15l-163.71 -748.39 -494.04 465.58 657.75 282.8zm-827.31 -275.13l509.05 -506.26 -697.31 -338.52 188.26 844.78zm-219.7 71.7l-683.74 -340.5 504 -544.48 179.74 884.98zm-325.48 1929.66l511.34 231.44 -382.5 385.31 -128.84 -616.75zm412.38 839.42l388.69 -365.3 178.65 649 -567.34 -283.7zm841.39 197.24l-149.13 -618.94 539.26 229.81 -390.13 389.14zm541.14 -676.35l-144.24 -659.39 -376.55 411.79 520.79 247.6zm-781.74 -309.97l477.76 -428.04 -674.68 -327.54 196.92 755.58zm-286.12 35.46l-602.77 -233.76 487.63 -526.8 115.14 760.56zm-21.83 1745.19l314.44 -307.9 138.27 502.32 -452.71 -194.42zm786.29 135.77l-130.59 -523.44 436.88 217.9 -306.29 305.55zm-1237.82 -933.63l440.4 175.9 -305.23 364.45 -135.17 -540.35zm1281.11 70.71l324 -353.86 92.3 536.74 -416.3 -182.88zm-529.71 -2032.65l426.07 -397.86 131.49 648.92 -557.56 -251.06zm-1249.98 -139.62l545.55 239.04 -375.16 430.33 -170.38 -669.36zm-3343.26 -5561.5l858.41 446.98 -628.9 662.98 -229.51 -1109.95zm341.44 1146.09l649.88 -667.34 238.85 1126.19 -888.73 -458.85zm1017.98 395.39l-255.07 -1112.07 876.65 460.73 -621.58 651.34zm719.73 -730.6l-204.5 -1124.12 -637.05 685.2 841.55 438.93zm-1482.49 1680.54l728.26 379.21 -559.58 588.34 -168.68 -967.55zm283.6 1117.38l649.37 -666.8 232.33 1028.27 -881.7 -361.47zm995.8 333.34l-240.08 -1046.6 825.05 433.6 -584.97 613zm660.93 -777.86l-176.03 -967.68 -529.91 602.1 705.94 365.58zm-931.2 -382.95l578.01 -653.77 -819.18 -432.21 241.17 1085.97zm-104.99 -0.96l-810.44 -412.5 591.41 -653.35 219.03 1065.85zm-411.17 1977.45l615.34 295.15 -455.97 467.78 -159.37 -762.93zm378.13 881.22l474.15 -449.24 163.76 743.81 -637.9 -294.57zm879.64 263.69l-159.48 -766.6 624.49 305.1 -465.01 461.5zm617.91 -674.98l-163.71 -748.39 -494.04 465.56 657.75 282.82zm-827.32 -275.15l509.06 -506.25 -697.3 -338.54 188.24 844.79zm-219.7 71.7l-683.71 -340.51 503.98 -544.45 179.73 884.96zm-325.46 1929.66l511.35 231.46 -382.51 385.28 -128.84 -616.74zm453.74 800.54l347.33 -326.44 130.45 544.21 -477.78 -217.77zm813.9 178.08l-188.02 -601.63 543.68 236.98 -355.65 364.65zm508.34 -649.13l-125.32 -628.55 -366.05 367.91 491.38 260.63zm-773.62 -320.58l425.16 -417.39 -611.29 -296.76 186.13 714.15zm-275.31 76.9l-595.07 -265.94 479.93 -494.61 115.14 760.55zm-10.27 1696.85l315.83 -313.74 118.11 524.54 -433.94 -210.79zm774.74 184.11l-121.49 -561.59 439.33 207.73 -317.85 353.86zm-1237.84 -933.62l440.41 175.9 -305.22 364.47 -135.19 -540.37zm1289.51 35.62l315.62 -318.77 128.55 514.48 -444.17 -195.71zm-528.44 -2037.91l392.09 -397.13 155.81 688.55 -547.9 -291.42zm-1259.63 -99.28l545.56 239.04 -375.18 430.35 -170.37 -669.38zm-1859.58 -4012.3l-255.07 -1112.06 876.66 460.72 -621.59 651.34zm618.05 -720.86l-204.52 -1124.11 -637.03 685.19 841.55 438.93zm-101.4 3121.55l-240.07 -1046.61 825.04 433.59 -584.97 613.02zm660.95 -777.87l-176.04 -967.69 -529.9 602.11 705.94 365.58zm-931.21 -382.96l578.01 -653.77 -819.18 -432.21 241.17 1085.97zm1359.51 2446.41l-163.71 -748.39 -494.03 465.56 657.74 282.82zm-827.3 -275.15l509.04 -506.24 -697.29 -338.54 188.25 844.78zm1249.73 2361.68l-144.25 -659.37 -376.56 411.79 520.81 247.58zm-260.1 743.56l324 -353.88 92.3 536.76 -416.3 -182.88zm-529.7 -2032.65l426.05 -397.87 131.5 648.94 -557.55 -251.06zm7241.33 -7677.04l858.41 446.97 -628.9 662.99 -229.51 -1109.95zm341.44 1146.08l649.88 -667.33 238.86 1126.19 -888.74 -458.86zm1017.98 395.39l-255.07 -1112.06 876.65 460.72 -621.58 651.34zm719.73 -730.59l-204.5 -1124.12 -637.04 685.19 841.54 438.94zm-1006.91 -502.84l614.18 -694.66 -870.44 -459.24 256.26 1153.9zm-111.57 -1.02l-861.12 -438.29 628.4 -694.23 232.72 1132.52zm-364.02 2184.41l728.26 379.21 -559.58 588.34 -168.68 -967.55zm283.6 1117.36l649.37 -666.79 232.33 1028.26 -881.7 -361.48zm995.8 333.36l-240.08 -1046.6 825.04 433.59 -584.96 613.01zm660.93 -777.86l-176.03 -967.68 -529.91 602.1 705.94 365.58zm-931.2 -382.95l578.01 -653.78 -819.18 -432.21 241.17 1085.98zm-104.99 -0.96l-810.44 -412.5 591.41 -653.35 219.03 1065.85zm-411.17 1977.45l615.33 295.15 -455.96 467.79 -159.37 -762.94zm366.87 928.34l503.31 -467.19 158.89 778.55 -662.2 -311.36zm681.49 -733.56l509.06 -506.25 -697.3 -338.54 188.24 844.79zm-219.7 71.7l-683.71 -340.51 503.98 -544.46 179.73 884.97zm-570.34 861.24l545.56 239.04 -375.18 430.35 -170.37 -669.38zm638.43 -6238.71l858.41 446.96 -628.9 662.99 -229.51 -1109.94zm341.44 1146.07l649.9 -667.33 238.83 1126.19 -888.73 -458.86zm430.6 3501.83l-175.06 -863.49 -501.51 539.22 676.57 324.27zm-1753.05 290.51l487.08 -537.65 -646.24 -296.25 159.16 833.9zm-901.58 -292.06l651.99 321.95 -149.48 -828.49 -502.5 506.54zm-1099.19 615.05l487.08 -537.64 -646.26 -296.27 159.18 833.91zm-901.57 -292.06l651.98 321.96 -149.48 -828.49 -502.49 506.53zm-1080.88 606l487.08 -537.65 -646.26 -296.25 159.18 833.9zm-901.59 -292.05l651.98 321.94 -172.52 -865.99 -479.46 544.05zm-1071.79 570.71l460.79 -508.64 -619.98 -325.25 159.18 833.9zm-901.59 -292.04l651.98 321.95 -149.46 -828.49 -502.51 506.54zm-1069.05 692.68l487.09 -537.64 -646.26 -296.26 159.17 833.9zm-901.57 -292.05l651.99 321.95 -149.48 -828.49 -502.5 506.54zm10104.26 -4619.93l799.78 374.43 -574.2 636.4 -225.58 -1010.82zm-171.88 42.24l232.83 984.3 -778.52 -375.34 545.69 -608.95zm-1818.76 300.94l799.78 374.42 -574.2 636.41 -225.58 -1010.82zm-171.88 42.24l232.85 984.3 -778.55 -375.35 545.7 -608.95zm-1858.87 286.07l799.78 374.44 -574.2 636.39 -225.58 -1010.82zm-171.88 42.25l232.85 984.3 -778.54 -375.35 545.69 -608.95zm-1817.05 268.63l799.76 374.43 -574.19 636.4 -225.57 -1010.82zm-171.89 42.24l232.84 984.3 -778.53 -375.34 545.69 -608.95zm-1810.72 241.5l799.78 374.43 -574.2 636.4 -225.58 -1010.82zm-171.88 42.24l232.85 984.29 -778.54 -375.34 545.69 -608.95zm-1780.01 311.49l799.78 374.42 -574.21 636.4 -225.57 -1010.82zm-171.89 42.24l232.86 984.3 -778.55 -375.35 545.69 -608.95zm7221.78 7086.71l294.54 -282.95 107.84 455.77 -402.38 -172.82zm1078.16 -174.2l-369.69 -164.8 103.73 424.46 265.96 -259.66zm-3037.77 489.77l294.56 -282.96 107.84 455.78 -402.4 -172.82zm1078.18 -174.2l-369.69 -164.8 103.72 424.45 265.97 -259.65zm-3111.04 443.62l294.56 -282.94 107.84 455.76 -402.4 -172.82zm1078.18 -174.2l-369.71 -164.78 103.72 424.43 265.99 -259.65zm-1931.38 317.35l-361.38 -199.63 95.4 459.28 265.98 -259.65z"/>
    </g>
    <path class="fil0" d="M57504.89 33973.74l-13976.16 2417.63 -209.12 -670.07c606.66,-120.35 1894.65,-197.04 1824.76,-814.74l11715.37 -2239.71c268.03,-89.18 838.06,546.55 791.96,739.41l-146.8 567.49z"/>
    <path class="fil2" d="M24516.54 27198.32l259.18 -836.49 379.77 643.15 -638.95 193.34zm-6636.36 -10077.06l11687.01 5794.32 168.7 1970.64 -10361.36 -4944.93c-506.7,-846.23 -1013.4,-1692.49 -1520.09,-2538.73 -68.38,-131.45 -33.71,-226.8 25.74,-281.3zm2301.5 4129.54l9639.19 4593.56 132.87 1566.98 -91.35 -41.03 56.53 767.83 -334.33 145.91 154.75 -716 -133.37 -59.69 -188.54 625.81 -308.25 -617.61 283.38 -103.7 -223.09 -99.82 -190.57 76.76 34.73 -146.54 -123.27 -55.16 -40.16 131.69 -123.9 -205.1 -97.12 -43.47 140.34 249.15 -605.7 243.98 150.32 -634.12 -144.15 -64.5 -185.13 607.07 -402.62 -666.52 251.2 -91.17 -172.97 -77.41 -170.83 68.8 31.13 -131.32 -124.18 -55.57 -35.65 116.89 -109.97 -182.06 -240.62 -107.7 154.2 273.76 -605.7 243.98 154.25 -650.75 -143.13 -64.07 -190.1 623.28 -402.6 -666.52 273.93 -99.42 -211.21 -94.51 -154.8 62.37 28.21 -119.04 -157.92 -70.66 -24.65 80.83 -76.04 -125.89 -248.92 -111.39 124.48 263.41 -659.73 254.15 220.99 -658.21 -226.55 -101.37 -221.67 661.68 -368.2 -640.71 311.27 -145.64 -223.62 -100.09 -243.36 98.03 44.35 -187.08 -188.06 -84.17 -44.49 145.84 -137.21 -227.16 -268.04 -119.94 195.42 367.17 -668.55 229.06 -24.33 -36.36 251.01 -670.16 -226.19 -101.25 -169.36 555.34 -353.29 -528.08 322.23 -116.94 -252.34 -112.93 -176.19 70.98 -143.05 -213.83 -209.6 -356.99 -269.34 -121.98 -1620.78 -2500.64zm3036.09 4379.27l353.62 528.61 261.08 -717.25 -614.7 188.63zm503.13 752.08l18.06 27.02 674.18 -251.42 -386.43 -647.29 -305.8 871.7zm1160.1 1585.36l93.81 50.84 279.25 -767.13 -668.68 205.18 295.63 511.11zm344.04 186.49l9.08 4.92 627.24 -189.8 -379.75 -643.16 -256.57 828.04zm327.75 177.67l257.01 139.31 86.94 -263.87 -343.95 124.57zm492.24 266.82l439.45 238.21 24.2 -11.39 -362.5 -539.18 -101.15 312.35zm943.66 511.51l395.75 214.52 133.86 -406.33 -529.61 191.8zm631.66 342.41l448.82 243.29 61.08 -14.77 -362.49 -683.67 -147.4 455.15zm877.54 475.67l392.54 212.78 173.76 -547.72 -610.86 253.38 44.57 81.55zm580.35 314.6l351 190.26 185.84 -44.93 -362.49 -683.69 -174.35 538.36zm1052.77 488.04l-18.13 -268.25 -182.34 38.43 200.46 229.83zm-36.82 -545.27l-17.63 -261.29 -31.29 -266.69 -193.28 665.85 242.2 -137.87zm-150.78 -1813.91l-299.07 157.04 299.07 594.09 59.54 0 -59.54 -751.12zm-585.91 18.84l-526.4 265.31 312.71 598.66 213.69 -863.97zm190.04 112.05l287.2 550.53 -500.51 268.07 213.3 -818.61zm383.01 868.34l-543.28 248.41 340.34 608 202.94 -856.41zm-1265.37 -596.24l316.38 609.12 -529.7 273.81 213.32 -882.93zm-180.28 -62.7l-556.15 235.53 340.35 571.02 215.8 -806.55zm234.39 -136.35l209.48 -936.32 345.94 683.05 -555.41 253.26zm-165.57 -107.52l-350.9 -622.74 566.7 -280.88 -215.8 903.62zm-699.74 171.56l229.04 -837.01 326.4 624.39 -555.43 212.62zm-654.72 -785.48l605.72 -243.99 -385.6 -684.53 -220.11 928.51zm-240.92 133.66l-610.87 221.24 335.64 614.25 275.24 -835.49zm717.27 543.9l-361.04 -585.03 598.83 -248.74 -237.79 833.77zm-768.2 386.6l229.04 -803.48 326.39 590.87 -555.42 212.62zm112.88 -1155.69l-402.6 -666.54 681.27 -247.22 -278.67 913.76zm-768.87 172.3l259.19 -836.51 379.77 643.16 -638.96 193.35zm-721.08 -757.55l690.46 -278.11 -385.59 -684.53 -304.87 962.64zm513.05 641.86l-371.15 -594.85 632.94 -229.69 -261.79 824.54zm-1495.22 -1532.05l-668.67 205.18 364.55 630.31 304.13 -835.48zm789.35 741.5l-371.15 -635.1 681.27 -247.22 -310.12 882.32z"/>
    <polygon class="fil0" points="20181.67,21250.8 29820.87,25844.36 29953.74,27411.34 21802.46,23751.44 "/>
    <path class="fil1" d="M19324.48 19285.78l435.73 217.35 1127.28 -208.89 97.99 607.37 -659.48 -328.98 -289.75 68.2 1422.29 709.5 -180.81 -1120.66 -447.07 -223.03 -1506.18 279.13zm5067.88 1497.43l1425.82 711.23 -303.36 54.23 -1213.29 -605.25 -89.89 158.48c344.56,171.89 780.64,389.41 1125.2,561.29 141.94,47.01 -105.91,348.89 -184.18,422.07 -57.81,69.91 -138.79,45.4 -193.78,11.43l-298.74 -149.02 0.03 -0.1 -1425.8 -711.25 303.38 -54.18 1211.24 604.2 91.14 -165.44c-345.24,-172.22 -690.51,-344.46 -1035.77,-516.69 -111.28,-85.34 86.47,-344.68 173.64,-419.73 41.38,-36.31 106.72,-53.21 167.64,-24.47l246.8 123.1 -0.07 0.09zm-2858.53 -395.77l1516.42 756.46c55.37,27.58 93.7,30.81 155.62,-36.69 79.26,-89.44 158.47,-178.68 237.71,-268.03 28.71,-33.57 41.06,-88.43 -20.13,-118.92 144.84,42.19 218.28,-83.48 288.66,-167.62 25.12,-30.47 37.25,-88.52 -21.79,-119.7l-298.74 -149.02 -0.07 0.07 -1425.82 -711.24 72.19 242.86 1213.61 605.39 -144.51 141.38 -1167.31 -582.31 -405.84 407.36zm1335.56 459.26l-789.96 -394.06 120.45 -135.84 792.89 395.53 -123.38 134.37z"/>
    <path class="fil2" d="M49466.69 27198.32l-259.18 -836.49 -379.77 643.15 638.95 193.34zm6636.35 -10077.06l-11687.01 5794.32 -168.68 1970.64 10361.35 -4944.93c506.7,-846.23 1013.39,-1692.49 1520.09,-2538.73 68.38,-131.45 33.7,-226.8 -25.75,-281.3zm-2301.49 4129.54l-9639.2 4593.56 -132.85 1566.98 91.34 -41.03 -56.53 767.83 334.33 145.91 -154.76 -716 133.39 -59.69 188.54 625.81 308.25 -617.61 -283.39 -103.7 223.09 -99.82 190.57 76.76 -34.74 -146.54 123.28 -55.16 40.17 131.69 123.9 -205.1 97.11 -43.47 -140.35 249.15 605.72 243.98 -150.33 -634.12 144.15 -64.5 185.13 607.07 402.62 -666.52 -251.21 -91.17 172.98 -77.41 170.83 68.8 -31.13 -131.32 124.17 -55.57 35.65 116.89 109.97 -182.06 240.64 -107.7 -154.21 273.76 605.71 243.98 -154.26 -650.75 143.13 -64.07 190.09 623.28 402.62 -666.52 -273.94 -99.42 211.21 -94.51 154.8 62.37 -28.21 -119.04 157.92 -70.66 24.65 80.83 76.04 -125.89 248.92 -111.39 -124.48 263.41 659.73 254.15 -220.99 -658.21 226.55 -101.37 221.66 661.68 368.22 -640.71 -311.28 -145.64 223.62 -100.09 243.36 98.03 -44.35 -187.08 188.06 -84.17 44.5 145.84 137.19 -227.16 268.05 -119.94 -195.41 367.17 668.54 229.06 24.33 -36.36 -251.01 -670.16 226.19 -101.25 169.37 555.34 353.28 -528.08 -322.23 -116.94 252.34 -112.93 176.2 70.98 143.03 -213.83 209.62 -356.99 269.33 -121.98 1620.78 -2500.64zm-3036.08 4379.27l-353.64 528.61 -261.08 -717.25 614.72 188.63zm-503.14 752.08l-18.06 27.02 -674.18 -251.42 386.42 -647.29 305.81 871.7zm-1160.09 1585.36l-93.83 50.84 -279.24 -767.13 668.67 205.18 -295.61 511.11zm-344.06 186.49l-9.06 4.92 -627.25 -189.8 379.75 -643.16 256.56 828.04zm-327.74 177.67l-257.01 139.31 -86.94 -263.87 343.95 124.57zm-492.24 266.82l-439.45 238.21 -24.2 -11.39 362.49 -539.18 101.16 312.35zm-943.66 511.51l-395.75 214.52 -133.86 -406.33 529.61 191.8zm-631.67 342.41l-448.82 243.29 -61.07 -14.77 362.48 -683.67 147.4 455.15zm-877.53 475.67l-392.53 212.78 -173.77 -547.72 610.86 253.38 -44.57 81.55zm-580.35 314.6l-351 190.26 -185.83 -44.93 362.48 -683.69 174.35 538.36zm-1052.76 488.04l18.11 -268.25 182.34 38.43 -200.44 229.83zm36.81 -545.27l17.63 -261.29 31.3 -266.69 193.27 665.85 -242.2 -137.87zm150.77 -1813.91l299.08 157.04 -299.08 594.09 -59.53 0 59.53 -751.12zm585.92 18.84l526.41 265.31 -312.71 598.66 -213.7 -863.97zm-190.04 112.05l-287.21 550.53 500.52 268.07 -213.3 -818.61zm-383.02 868.34l543.3 248.41 -340.34 608 -202.96 -856.41zm1265.39 -596.24l-316.4 609.12 529.71 273.81 -213.31 -882.93zm180.26 -62.7l556.16 235.53 -340.34 571.02 -215.82 -806.55zm-234.38 -136.35l-209.49 -936.32 -345.94 683.05 555.42 253.26zm165.58 -107.52l350.88 -622.74 -566.7 -280.88 215.82 903.62zm699.72 171.56l-229.03 -837.01 -326.39 624.39 555.41 212.62zm654.72 -785.48l-605.7 -243.99 385.59 -684.53 220.1 928.51zm240.94 133.66l610.86 221.24 -335.63 614.25 -275.24 -835.49zm-717.28 543.9l361.04 -585.03 -598.82 -248.74 237.78 833.77zm768.19 386.6l-229.03 -803.48 -326.39 590.87 555.41 212.62zm-112.87 -1155.69l402.6 -666.54 -681.26 -247.22 278.66 913.76zm768.87 172.3l-259.2 -836.51 -379.76 643.16 638.96 193.35zm721.08 -757.55l-690.47 -278.11 385.6 -684.53 304.87 962.64zm-513.05 641.86l371.14 -594.85 -632.94 -229.69 261.8 824.54zm1495.21 -1532.05l668.68 205.18 -364.55 630.31 -304.14 -835.48zm-789.34 741.5l371.15 -635.1 -681.27 -247.22 310.12 882.32z"/>
    <polygon class="fil0" points="53801.55,21250.8 44162.35,25844.36 44029.5,27411.34 52180.77,23751.44 "/>
    <path class="fil1" d="M48433.19 22374.64l436.49 -215.85 514.71 -1024.44 543.18 288.93 -660.63 326.69 -120.76 272.09 1424.75 -704.55 -1002.2 -533.1 -447.84 221.46 -687.71 1368.78zm4255.42 -3133.25l1428.25 -706.3 -140.1 274.46 -1215.37 601.03 71.96 167.39c345.15,-170.69 781.97,-386.72 1127.13,-557.39 123.23,-84.7 214.02,295.2 225.02,401.78 20.77,88.31 -47.7,138.03 -107.99,161.33l-299.26 147.99 -0.04 -0.1 -1428.26 706.31 140.14 -274.49 1213.31 -600 -76.75 -172.6c-345.86,171.03 -691.71,342.06 -1037.55,513.09 -135.25,37.1 -222.41,-277.19 -229.53,-391.97 -3.93,-54.93 22.08,-117.2 81.79,-148.38l247.21 -122.26 0.03 0.11zm-2042.6 2038.54l1519.03 -751.2c55.4,-27.44 81.17,-55.99 64.81,-146.16 -23.38,-117.2 -46.62,-234.24 -69.95,-351.35 -9.41,-43.18 -45.64,-86.14 -106.92,-55.82 121.14,-89.92 65.4,-224.37 40.88,-331.29 -9.1,-38.45 -48.03,-83.19 -108.55,-54.97l-299.24 147.98 0.01 0.12 -1428.27 706.3 237.14 89.24 1215.71 -601.18 25.32 200.55 -1169.32 578.26 79.37 569.53zm1172.93 -786.68l-791.32 391.32 -35.43 -178.05 794.23 -392.77 32.52 179.49z"/>
    <polygon class="fil0" points="28414.99,16559.76 -0,3074.52 5891.1,13022.51 3999.38,6538.29 24886.22,16546.12 "/>
    <path class="fil2" d="M11428.48 5068.09l1127.58 -517.5 2059.16 965.21 -1.05 0.52 3910.05 1814.06 1.41 -0.64c360,167.09 720,334.21 1080,501.3 197.31,99 93.42,201.27 26.4,234.52l-968.19 452.59c-151.24,103.16 305.79,314.83 410.67,223.28 950.7,-453.24 1521.37,-447.34 2682.89,92.03l4669.13 2172.58c765.55,356.14 490.19,1084.74 134.36,1237.66l-188.94 81.19 3411.9 1651.95c281.46,591.11 584.6,1142.59 866.04,1733.71 133.21,264.73 -6.54,538.86 -306.99,574.98l-6214.71 -3008.97c-512.61,167.73 -966.06,206.65 -1460.93,-23.58l-5242.05 -2438.87c-251.06,-116.78 -708.81,-349.85 -749.85,-646.51 -15.34,-110.74 28.49,-208.97 100.83,-286.34 155.16,-243.82 -198.69,-451.18 -374.85,-361.82 -683.71,312.75 -1194.7,291.01 -1944.21,-92.54l-352 -156.45 1.82 -0.83 -4617.48 -2147.46 -0.67 0.41c-295.5,-137.49 -591.03,-274.99 -886.51,-412.5 -174.58,-92.11 -191.12,-203.47 -69.08,-279.66l643.36 -359.67c118.09,-50.71 147.99,-117.24 48.11,-170.84 -56.02,-30.07 -114.74,-55.55 -172.13,-83.34 -159.56,-62.12 -223.8,-27.92 -345.82,25l-645.06 360.62c-113.54,61.72 -229.57,145.44 -475,35.36l-958.04 -445.73 1.54 -0.75 -3889.98 -1814.87 -1.26 0.66 -1679.08 -781.19 2289.38 -1120.78c536.26,-173.32 953.38,-33.58 1416.18,181.13l149.12 -106.12 -835 -375.43 1233.17 -592.07 5013.78 2327.04 1.6 -0.78c336.5,156.83 957.23,452.94 1070.92,785.49 79.33,232.08 -66.09,442.39 -263.32,617.9 -87.08,77.5 166.49,211.66 292.8,156.01z"/>
    <path class="fil1" d="M22023.43 9257.04c-1409.41,-636.02 -1783.48,-673.02 -2506.77,-455.99l-2378.94 1013.97c-372.55,208.75 -141.58,526 415.13,758.58l5242.06 2438.86c481.71,224.1 910.02,146.45 1402.75,-32.27l2274.25 -977.39c140.9,-60.57 390.02,-494.28 -173.05,-756.29l-4275.79 -1989.29 0.36 -0.2zm-2681.44 -1247.53l-840.43 -391.04 -1.22 0.53 -4510.42 -2092.54 1.82 -0.82 -1379.1 -647.39 -2236.01 1026.22 5309.12 2465.23 -842.88 375.76 -5319.84 -2481.85 -569.82 309.85 543.39 252.82 0.55 -0.34 4822.04 2236.82 -1.21 0.58 211.81 98.48c833.66,427.47 1398.34,395.39 2214.59,-68.37l12.5 -6.6c175.19,-83.55 512.72,-275.84 506.56,-488.43 -7.11,-244.01 -429.04,-436.69 -623.91,-523.84l-4075.11 -1890.18 667.91 -307.84 4492.86 2090.26 -1.51 0.67 832.01 386.81 786.3 -344.82zm-10942.61 -2270.1l-5002.06 -2333.64 744.65 -399.43 4350.71 2015.82c201.11,71.7 440.24,117.03 654.68,142.25 433.76,51.06 900.06,22.16 1303.37,-167.52 171.67,-94.88 715.72,-401.59 638.05,-628.83 -72.62,-212.42 -623.73,-496.54 -834.38,-594.77l-1.46 0.76 -4953.58 -2297.78 -690.38 351.03 4994.82 2323.81 -673.98 340.69 -4253.47 -1977.48c-404.24,-187.52 -804.2,-337.45 -1263.25,-189.14l-1741.6 855.15 1082.3 503.55 1.41 -0.74 4486.99 2093.43 -0.88 0.43 586.84 273.02 571.21 -310.63zm12417.62 3747.54l4213.96 1960.36 -2301.35 962.85 -4269.6 -1986.4 2356.99 -936.81z"/>
    <path class="fil2" d="M4203.03 7236.37l451.96 -73.01 216.11 101.53 -627.39 110.88 116.23 398.44 411.93 351.62 207.87 -809.88 124.38 58.43 -171.82 748.75 974.53 -157.45 -522.87 -459.84 456.53 214.47 157.7 134.62 13.86 -54.01 133.39 62.66 -15.15 66 115.8 -18.72 212.39 99.79 -230.23 40.69 784.48 669.66 114.68 -396.08 125.08 58.75 -101.26 385.97 686.67 -110.93 207.97 97.7 -821.57 145.18 798.06 681.28 213.46 -737.23 127.85 60.07 -183.88 700.85 934.23 -150.95 -481.85 -423.77 561.4 263.74 70.19 59.93 7.13 -23.59 130.09 61.12 -4.66 16.97 30.37 -4.92 206.56 97.05 -163.8 28.96 756.21 645.52 104.79 -346.93 128.44 60.34 -100.95 367.31 656.88 -106.14 205.83 96.69 -755.17 133.46 699.05 596.73 200.1 -662.53 120.66 56.67 -195.84 712.51 13.5 11.52 1019.61 -164.72 -405.08 -356.26 872.63 409.98 -76.74 13.55 777.56 663.75 87.72 -306.85 125.8 59.1 -83.35 322.16 572.3 -92.45 202.01 94.89 -674.78 119.25 698.93 596.64 177.56 -621.12 124.45 58.48 -173.85 672.05 16.22 13.85 981.4 -158.56 -342.58 -301.28 773.31 363.3 707.94 604.34 68.49 -239.56 131.64 61.84 -73.85 285.52 8.48 7.22 512.33 -82.76 198.47 93.23 -578.72 102.28 700.37 597.88 170.13 -563.08 136.19 63.98 -169.34 616 57.44 49.03 942.13 -152.2 -299.73 -263.61 886.44 416.44 647.11 552.41 71.36 -214.87 118.89 55.85 -77.78 255.02 23.73 20.27 476.21 -76.94 195.12 91.66 -541.89 95.76 534.22 456.06 191.65 -465.39 118.52 55.68 -195.28 507.78 142.66 121.78 901.74 -145.68 -207.42 -182.41 998.09 468.91 156.13 133.26 20.66 -50.21 127.37 59.84 -33.82 87.9 130.46 111.35 243.69 -39.36 194.97 91.6 -312.72 55.27 517.1 441.42 138.26 -335.72 128.19 60.23 -115.99 301.55 194.5 0 419.22 -67.73 111 52.16 273.68 3.83 -66.47 11.74 681.13 0 -6.91 -3.24 231.88 3.24 -86.79 -42.26 -830.75 -3.21 -20886.84 -10007.83 203.65 698.08zm-1744.34 9097.18l249.48 219.4 -320.63 51.82 71.15 -271.22zm490.48 84.4l-305.95 -261.17 406.54 -71.85 -100.6 333.02zm386.78 -263.07l324.23 285.15 -421.32 68.07 97.09 -353.22zm1146.96 -7959.16l116.5 -18.81 -164.08 -144.32 47.59 163.13zm144.17 494.16l95.62 -372.48 -194.27 34.33 98.66 338.15zm135.84 465.59l801.89 -129.55 -698.69 -614.49 -141.02 614.43 37.82 129.6zm98.19 336.59l588.02 501.96 209.37 -815.73 -845.34 149.39 47.96 164.38zm790.59 522.91l876.67 -141.64 -702.42 -617.72 -174.26 759.36zm-609.32 98.43l203.76 -32.92 -287.01 -252.4 83.25 285.31zm200.07 685.78l140.1 -545.85 -284.68 50.32 144.58 495.53zm170.26 257.08l796.6 -128.7 -638.24 -561.31 -158.36 690.01zm185.28 961.66l293.49 -47.42 -413.37 -363.54 119.88 410.96zm230.97 791.62l181.28 -626.16 -346.12 61.18 164.83 564.98zm222.96 150.26l814.79 -131.63 -633.97 -557.56 -180.82 689.19zm-32.14 520.28l27.41 93.8 -190.55 130.33 -77 293.5 700.11 -113.1 -459.98 -404.53zm-520.66 468.64l-49.38 33.78 31.76 27.1 17.61 -60.88zm-750.58 513.38l-88.27 60.36 539.41 460.48 183.27 -632.96 -634.42 112.12zm760.68 566.41l573.16 -92.61 -445.97 -392.22 -127.18 484.82zm-1302.01 -196.16l-240.09 164.21 162.36 138.61 77.73 -302.82zm255.08 365.28l416.01 -67.2 -333.32 -293.15 -82.69 360.34zm-775.04 -9.64l-258.19 176.57 415.22 -35.16 -157.03 -141.41zm1296.95 1403.6l299.04 0 -172.03 -194.25 -127.01 194.25zm851.42 0l157.39 0 84.2 -290.78 -482.37 85.24 240.78 205.54zm511.55 0l192.59 0 -156.49 -137.6 -36.1 137.6zm1075.31 0l542.54 0 -436.93 -384.27 -105.61 384.27zm-195.01 -494.06l-598.23 105.73 450.23 384.33 148 -490.06zm1389.53 494.06l124.67 0 689.47 -111.38 -631.02 -554.94 -183.12 666.32zm-111.4 -719.92l-698.22 123.39 525.48 448.58 172.74 -571.97zm1970.48 719.92l389.56 0 20.74 -72.5 -410.3 72.5zm1200.86 0l404.88 0 85.44 -298.87 -696.3 123.06 205.97 175.81zm688.31 0l284.43 0 -231.72 -203.78 -52.7 203.78zm812.6 0l59.25 0 146.91 -513.88 -669.55 118.31 463.39 395.57zm328.15 0l661.46 0 -538.86 -473.9 -122.6 473.9zm2726.75 0l608.98 0 53.97 -178.67 -722.67 127.71 59.71 50.95zm850.93 0l144.4 0 -116.3 -102.27 -28.1 102.27zm656.78 0l310.46 0 127.19 -405.29 -755.93 133.6 318.28 271.7zm525.46 0l492.48 0 -393.33 -345.92 -99.15 345.92zm999.13 0l105.31 0 207.63 -625.06 -26.15 -23.01 -866.57 153.15 579.78 494.92zm300.37 0l47.76 0 570.71 -92.19 -465.5 -409.39 -152.97 501.58zm1224.85 0l745.79 0 69.32 -168.32 -838.67 148.2 23.56 20.11zm920.52 0l108.25 0 -80.89 -71.13 -27.37 71.13zm607.58 0l286.42 0 153.18 -372.01 -725.25 128.17 285.65 243.84zm459.45 0l571.54 0 -427.09 -375.59 -144.45 375.59zm-652.87 -1076.82l644.58 566.89 -881.65 142.45 -26.9 -22.97 263.98 -686.37zm-385.43 582.71l-524.64 -447.86 764.7 -135.12 -240.07 582.99zm-17497.14 173.39l91.6 -514.12 382.25 336.15 -473.85 177.97zm-313.62 -353.57l-293 -250.1 424.11 -66.14 -131.11 316.23zm1319.8 104.84l120.68 -459.97 438.47 385.61 -559.14 74.35zm-296.28 -184.6l-391.11 -333.88 514.1 -90.84 -122.98 424.73zm1256.99 7.2l-613.72 -523.88 769.86 -136.06 27.85 24.49 -183.99 635.44zm441.21 -409.21l395.31 347.63 -504.1 67.03 108.79 -414.66zm720.46 186.98l-597.27 -509.86 793.63 -140.25 -196.36 650.11zm467.2 -543.26l591.22 519.95 -761.97 101.3 170.75 -621.26zm-1348.59 -209.13l-694.59 -592.93 915 -161.72 -218.42 754.33 -1.99 0.31zm459.54 -572.75l478.87 421.16 -615.46 99.43 136.59 -520.59zm2927.9 2110.81l-41.05 -35.04 206.66 -751.9 730.23 642.21 -895.84 144.73zm-280.28 -239.24l-475.63 -406.03 632 -111.7 -156.37 517.73zm-938.84 -801.46l-570.49 -486.98 758.02 -133.96 -187.53 620.94zm451.41 -567.06l661.79 582.01 -859.93 138.93 198.14 -720.95zm-1413.3 -254.06l-587.3 -501.34 780.36 -137.9 -193.06 639.24zm451.32 -591.97l622.39 547.37 -808.73 130.67 186.34 -678.03zm-1341.94 -168.32l-684.54 -584.35 899.76 -159.02 -215.22 743.37zm441.51 -623.6l574.62 505.36 -738.52 119.31 163.9 -624.67zm3777.93 2872.44l-590.5 -504.08 773.7 -136.75 -183.19 640.83zm417.22 -505.41l601.18 528.71 -770.17 124.43 168.98 -653.14zm-1259.44 -213.55l-45.4 -38.75 198.16 -720.97 706.08 620.98 -858.83 138.75zm-260.95 -222.76l-521.02 -444.77 692.33 -122.35 -171.31 567.12zm-938.85 -801.45l-560.9 -478.81 745.3 -131.7 -184.4 610.51zm419.24 -556.33l638.02 561.11 -829.06 133.92 191.04 -695.04zm-1381.13 -264.8l-586.87 -500.97 779.81 -137.81 -192.93 638.78zm419.14 -581.24l651.8 573.23 -846.97 136.84 195.17 -710.06zm-1320.55 -188.23l-692.73 -591.34 910.56 -160.93 -217.83 752.27zm409.29 -613.18l608.32 534.98 -781.8 126.3 173.48 -661.27zm-1418.87 -248.67l-667.94 -570.18 877.94 -155.15 -210.01 725.32zm404.77 -643.21l647.19 569.17 -831.77 134.38 184.58 -703.55zm5782.16 4643.42l-619.06 -528.45 811.1 -143.34 -192.04 671.79zm402.45 -539.12l626.15 550.66 -802.15 129.59 176 -680.26zm-1380.06 -295.39l-675.15 -576.34 884.61 -156.33 -209.46 732.67zm404.1 -562.91l600.33 527.96 -769.06 124.25 168.74 -652.21zm-1494.03 -367.51l-563.92 -481.39 749.3 -132.42 -185.39 613.81zm401.51 -593.34l691.45 608.13 -898.5 145.16 207.05 -753.29zm-1340.37 -208.12l-612.94 -523.23 814.45 -143.94 -201.51 667.17zm407.04 -612.7l676.6 595.03 -879.16 142.03 202.57 -737.06zm-1368.94 -208.41l-658.3 -561.96 874.73 -154.59 -216.42 716.55zm406.96 -637.61l683.83 601.4 -888.59 143.56 204.76 -744.96zm-1318.54 -140.57l-731.52 -624.46 961.54 -169.91 -230.01 794.37zm396.39 -670.45l630.75 554.73 -810.66 130.97 179.91 -685.7zm-1406 -191.4l-717.92 -612.87 943.66 -166.77 -225.73 779.64zm391.87 -700.49l692.37 608.92 -889.83 143.75 197.46 -752.67zm7754.55 6364.57l-587.27 -501.3 769.44 -135.98 -182.17 637.28zm404.7 -549.85l572.75 503.72 -733.7 118.53 160.94 -622.25zm-1215.83 -142.55l-22.63 -19.34 195.42 -755.42 717.4 630.93 -890.2 143.82zm-220.69 -188.41l-592.12 -505.46 775.81 -137.1 -183.7 642.56zm-928.65 -792.73l-697.15 -595.13 913.43 -161.42 -216.28 756.55zm392.83 -610.91l644.96 567.2 -826.22 133.48 181.26 -700.68zm-1370.42 -223.63l-698.28 -596.06 914.9 -161.68 -216.62 757.75zm394.48 -634.68l619.5 544.83 -793.62 128.22 174.12 -673.04zm-1293.95 -133.15l-6.61 -5.64 222.45 -809.38 749.41 659.08 -965.25 155.94zm-177.15 -151.22l-609.53 -520.32 809.92 -143.14 -200.39 663.46zm-938.84 -801.45l-677.95 -578.72 900.82 -159.19 -222.87 737.91zm398.52 -683.16l727.98 640.23 -945.96 152.83 217.98 -793.05zm-1360.42 -137.97l-700.84 -598.27 931.23 -164.56 -230.39 762.82zm398.43 -708.06l714.76 628.6 -928.76 150.03 214 -778.63zm-1320.3 -78.87l-775.02 -661.59 1018.71 -180.02 -243.69 841.61zm387.02 -741.92l695.52 611.68 -893.89 144.42 198.37 -756.1zm-1396.64 -119.93l-761.43 -650 1000.83 -176.87 -239.4 826.86zm382.5 -771.95l746.46 656.49 -959.37 154.98 212.91 -811.47zm-1368.57 -69.81l-771.39 -658.49 985.08 -174.1 -213.7 832.59zm365.14 -812.69l786.32 691.55 -981.43 158.57 195.11 -850.13zm9704.1 8090.51l-544.61 -464.9 713.58 -126.1 -168.96 591zm381.73 -551.07l637.73 560.86 -816.97 131.99 179.24 -692.84zm-1315.18 -245.77l-647.84 -553.02 848.82 -150 -200.97 703.03zm382.35 -574.63l672.17 591.16 -861.09 139.1 188.92 -730.26zm-1225.51 -145.12l-14.16 -12.09 196.63 -760.08 713.44 627.43 -895.91 144.74zm-188.65 -161.04l-649.71 -554.63 851.28 -150.45 -201.56 705.07zm-928.64 -792.73l-699.78 -597.36 916.88 -162.04 -217.1 759.4zm370.45 -635.7l641.38 564.05 -821.64 132.74 180.26 -696.8zm-1348.04 -198.82l-710.08 -606.14 930.36 -164.42 -220.28 770.56zm372.08 -659.5l669.11 588.47 -857.16 138.48 188.05 -726.95zm-1255.4 -94.52l-32.25 -27.54 223.65 -813.67 778.36 684.54 -969.76 156.67zm-179.71 -153.41l-654.32 -558.55 869.42 -153.65 -215.1 712.21zm-938.85 -801.46l-700.25 -597.78 930.46 -164.43 -230.21 762.2zm376.65 -707.17l736.46 647.7 -956.97 154.61 220.51 -802.3zm-1338.54 -113.95l-734.41 -626.92 975.83 -172.45 -241.43 799.37zm376.55 -732.08l745.92 656.02 -969.28 156.59 223.36 -812.61zm7898.37 6508.88l-21.14 -18.05 201.23 -732.01 692.54 609.07 -872.63 140.98zm-203.68 -173.86l-531.46 -453.68 706.23 -124.82 -174.77 578.5zm-717.56 -612.55l-49.78 -42.49 196.72 -760.47 748.54 658.29 -895.48 144.67zm-222.64 -190.07l-627.94 -536.02 822.72 -145.4 -194.78 681.42zm-933.47 -796.84l-728.15 -621.58 928.66 -164.12 19.24 16.92 -219.75 768.79zm370.21 -636.48l679.61 597.71 -870.61 140.66 191.01 -738.37zm-1402.02 -244.3l-675.07 -576.29 884.52 -156.3 -209.45 732.59zm359.01 -672.98l721.24 634.3 -923.95 149.28 202.71 -783.59zm-1287.65 -119.75l-734.3 -626.84 962.11 -170.03 -227.81 796.87zm358.34 -697.55l702.35 617.69 -899.76 145.37 197.41 -763.06zm-1335.92 -136.98l-763.98 -652.16 1000.97 -176.89 -237 829.05zm359.97 -721.33l723.54 636.35 -926.92 149.76 203.38 -786.11zm5937.37 4795.58l-49.28 -42.06 210.84 -735.58 721.92 634.9 -883.48 142.73zm-204.17 -174.27l-549.85 -469.36 738.07 -130.44 -188.22 599.8zm-717.07 -612.12l-92.08 -78.6 209.42 -761.72 789.02 693.89 -906.35 146.43zm-251.82 -214.99l-617.63 -527.21 820.71 -145.03 -203.08 672.25zm-775.41 -661.92l-28.72 -24.52 204.59 -790.84 755.95 664.84 -931.81 150.52zm-178.31 -152.21l-697.59 -595.48 914.02 -161.55 -216.42 757.03zm-933.48 -796.85l-742.83 -634.12 963.78 -170.32 7.19 6.33 -228.14 798.11zm354.79 -686.73l687.44 604.57 -880.65 142.28 193.21 -746.84zm4796.81 3782.36l-44.28 -37.8 259.27 -674.13 8.16 -1.43 650.62 572.18 -873.76 141.17zm-178.92 -152.72l-475.14 -405.61 692.57 -122.4 -217.43 528.01zm-740.01 -631.71l-662.78 -565.8 899.87 -159.03 2.84 2.5 -239.93 722.32zm358.01 -618.48l645.89 568.04 -861.58 139.2 215.69 -707.24zm-1169.14 -73.95l-110.72 -94.51 219.1 -764.43 808.28 710.84 -916.66 148.1zm-243.19 -207.59l-645.15 -550.74 866.01 -153.04 -220.86 703.78z"/>
    <path class="fil2" d="M69780.2 7236.37l-451.96 -73.01 -216.11 101.53 627.39 110.88 -116.23 398.44 -411.93 351.62 -207.87 -809.88 -124.38 58.43 171.82 748.75 -974.52 -157.45 522.86 -459.84 -456.53 214.47 -157.7 134.62 -13.86 -54.01 -133.39 62.66 15.15 66 -115.8 -18.72 -212.39 99.79 230.23 40.69 -784.48 669.66 -114.68 -396.08 -125.08 58.75 101.26 385.97 -686.67 -110.93 -207.97 97.7 821.57 145.18 -798.06 681.28 -213.46 -737.23 -127.84 60.07 183.87 700.85 -934.23 -150.95 481.85 -423.77 -561.4 263.74 -70.19 59.93 -7.12 -23.59 -130.09 61.12 4.65 16.97 -30.37 -4.92 -206.56 97.05 163.8 28.96 -756.21 645.52 -104.79 -346.93 -128.44 60.34 100.95 367.31 -656.88 -106.14 -205.83 96.69 755.17 133.46 -699.05 596.73 -200.1 -662.53 -120.66 56.67 195.84 712.51 -13.5 11.52 -1019.61 -164.72 405.08 -356.26 -872.64 409.98 76.75 13.55 -777.56 663.75 -87.71 -306.85 -125.81 59.1 83.34 322.16 -572.3 -92.45 -202 94.89 674.78 119.25 -698.93 596.64 -177.56 -621.12 -124.45 58.48 173.85 672.05 -16.22 13.85 -981.4 -158.56 342.58 -301.28 -773.31 363.3 -707.94 604.34 -68.49 -239.56 -131.64 61.84 73.86 285.52 -8.49 7.22 -512.33 -82.76 -198.47 93.23 578.72 102.28 -700.37 597.88 -170.13 -563.08 -136.2 63.98 169.35 616 -57.44 49.03 -942.13 -152.2 299.73 -263.61 -886.44 416.44 -647.11 552.41 -71.36 -214.87 -118.89 55.85 77.78 255.02 -23.73 20.27 -476.21 -76.94 -195.12 91.66 541.89 95.76 -534.22 456.06 -191.66 -465.39 -118.51 55.68 195.28 507.78 -142.66 121.78 -901.74 -145.68 207.42 -182.41 -998.1 468.91 -156.11 133.26 -20.67 -50.21 -127.37 59.84 33.82 87.9 -130.46 111.35 -243.69 -39.36 -194.97 91.6 312.72 55.27 -517.1 441.42 -138.26 -335.72 -128.19 60.23 115.99 301.55 -194.5 0 -419.22 -67.73 -111 52.16 -273.68 3.83 66.47 11.74 -681.13 0 6.91 -3.24 -231.88 3.24 86.79 -42.26 830.75 -3.21 20886.84 -10007.83 -203.65 698.08zm-25580.8 6740.47c-281.46,591.11 -584.6,1142.59 -866.04,1733.71 -133.22,264.73 6.54,538.86 306.99,574.98l5136.96 -2497.07 -200.55 833.13 1695.84 -803.93 0.3 -1.37 3863.9 -1826.67 -0.37 1.67 1200.07 -568.93 179.24 -909.48 528.44 -256.89 -180.67 916.55 1145 -542.76 0.11 -0.79 4158.94 -1977.36 -0.26 1.04 715.49 -339.95c827.62,-357.51 1237.86,-808.28 1442.34,-1596.04l347.48 -168.92c-9.35,268.98 131.63,493.75 427.67,539.04 265.83,40.68 579.22,-83.43 811.64,-204.62l5219.67 -2474.45c551.83,-261.62 807.26,-694.81 1006.48,-1249.6l2.58 -7.21 702.28 -2381.62c107.58,-364.82 -290.58,-1027.67 -1059.18,-663.33l-3779.3 1791.64 1.7 -8.09c-580.02,283.23 -1459.36,684.67 -1928.73,1087.01 -313.1,268.4 -477.36,547.1 -636.65,922.71l-61.69 201.17c-106.48,51.17 -212.96,102.39 -319.4,153.6l318.99 -1111.96 -1474.17 698.81 -0.42 1.45 -4079.07 1939.12 -1791.92 841.98 -326.35 1215.07 -415.26 204.35c6.87,-997.33 -853.92,-643.68 -1459.6,-383.05l-161.62 76.32 -0.45 2.02 -4930.83 2343.99 -302.29 1337.53c-1743.21,856.62 -3488.2,1710.33 -5237.3,2557.19zm27325.14 2356.71l-249.48 219.4 320.62 51.82 -71.14 -271.22zm-490.48 84.4l305.95 -261.17 -406.54 -71.85 100.6 333.02zm-386.78 -263.07l-324.23 285.15 421.32 68.07 -97.09 -353.22zm-1146.96 -7959.16l-116.5 -18.81 164.08 -144.32 -47.59 163.13zm-144.17 494.16l-95.62 -372.48 194.27 34.33 -98.66 338.15zm-135.84 465.59l-801.89 -129.55 698.69 -614.49 141.02 614.43 -37.82 129.6zm-98.19 336.59l-588.02 501.96 -209.37 -815.73 845.34 149.39 -47.96 164.38zm-790.59 522.91l-876.67 -141.64 702.42 -617.72 174.26 759.36zm609.32 98.43l-203.76 -32.92 287.01 -252.4 -83.25 285.31zm-200.07 685.78l-140.1 -545.85 284.68 50.32 -144.58 495.53zm-170.26 257.08l-796.6 -128.7 638.24 -561.31 158.36 690.01zm-185.29 961.66l-293.48 -47.42 413.37 -363.54 -119.89 410.96zm-230.96 791.62l-181.28 -626.16 346.12 61.18 -164.83 564.98zm-222.96 150.26l-814.79 -131.63 633.97 -557.56 180.82 689.19zm32.14 520.28l-27.41 93.8 190.55 130.33 77 293.5 -700.11 -113.1 459.98 -404.53zm520.66 468.64l49.38 33.78 -31.76 27.1 -17.61 -60.88zm750.59 513.38l88.26 60.36 -539.41 460.48 -183.27 -632.96 634.43 112.12zm-760.69 566.41l-573.16 -92.61 445.97 -392.22 127.18 484.82zm1302 -196.16l240.1 164.21 -162.36 138.61 -77.74 -302.82zm-255.07 365.28l-416.02 -67.2 333.33 -293.15 82.69 360.34zm775.04 -9.64l258.19 176.57 -415.22 -35.16 157.03 -141.41zm-1296.95 1403.6l-299.03 0 172.02 -194.25 127.01 194.25zm-851.42 0l-157.38 0 -84.21 -290.78 482.37 85.24 -240.78 205.54zm-511.55 0l-192.59 0 156.49 -137.6 36.1 137.6zm-1075.31 0l-542.54 0 436.93 -384.27 105.61 384.27zm195.01 -494.06l598.23 105.73 -450.23 384.33 -148 -490.06zm-1389.53 494.06l-124.67 0 -689.47 -111.38 631.02 -554.94 183.12 666.32zm111.4 -719.92l698.22 123.39 -525.48 448.58 -172.74 -571.97zm-1970.48 719.92l-389.56 0 -20.74 -72.5 410.3 72.5zm-1200.86 0l-404.88 0 -85.44 -298.87 696.3 123.06 -205.97 175.81zm-688.31 0l-284.43 0 231.72 -203.78 52.7 203.78zm-812.6 0l-59.25 0 -146.91 -513.88 669.55 118.31 -463.39 395.57zm-328.15 0l-661.46 0 538.87 -473.9 122.59 473.9zm-2726.75 0l-608.97 0 -53.98 -178.67 722.67 127.71 -59.71 50.95zm-850.93 0l-144.4 0 116.3 -102.27 28.1 102.27zm-656.78 0l-310.46 0 -127.19 -405.29 755.93 133.6 -318.28 271.7zm-525.46 0l-492.48 0 393.32 -345.92 99.16 345.92zm-999.13 0l-105.31 0 -207.63 -625.06 26.15 -23.01 866.57 153.15 -579.78 494.92zm-300.37 0l-47.76 0 -570.71 -92.19 465.5 -409.39 152.97 501.58zm-1224.85 0l-745.79 0 -69.32 -168.32 838.67 148.2 -23.56 20.11zm-920.52 0l-108.25 0 80.89 -71.13 27.37 71.13zm-607.58 0l-286.42 0 -153.18 -372.01 725.25 128.17 -285.65 243.84zm-459.45 0l-571.54 0 427.09 -375.59 144.45 375.59zm652.87 -1076.82l-644.58 566.89 881.65 142.45 26.9 -22.97 -263.98 -686.37zm385.43 582.71l524.64 -447.86 -764.7 -135.12 240.07 582.99zm17497.15 173.39l-91.61 -514.12 -382.25 336.15 473.86 177.97zm313.61 -353.57l293 -250.1 -424.1 -66.14 131.1 316.23zm-1319.8 104.84l-120.68 -459.97 -438.47 385.61 559.14 74.35zm296.28 -184.6l391.11 -333.88 -514.1 -90.84 122.98 424.73zm-1256.99 7.2l613.71 -523.88 -769.86 -136.06 -27.85 24.49 184 635.44zm-441.22 -409.21l-395.31 347.63 504.1 67.03 -108.79 -414.66zm-720.46 186.98l597.27 -509.86 -793.63 -140.25 196.36 650.11zm-467.2 -543.26l-591.22 519.95 761.97 101.3 -170.75 -621.26zm1348.59 -209.13l694.59 -592.93 -915 -161.72 218.41 754.33 2 0.31zm-459.54 -572.75l-478.87 421.16 615.46 99.43 -136.59 -520.59zm-2927.9 2110.81l41.05 -35.04 -206.66 -751.9 -730.23 642.21 895.84 144.73zm280.28 -239.24l475.63 -406.03 -632 -111.7 156.37 517.73zm938.84 -801.46l570.49 -486.98 -758.02 -133.96 187.53 620.94zm-451.41 -567.06l-661.78 582.01 859.92 138.93 -198.14 -720.95zm1413.3 -254.06l587.3 -501.34 -780.36 -137.9 193.06 639.24zm-451.32 -591.97l-622.39 547.37 808.73 130.67 -186.34 -678.03zm1341.94 -168.32l684.54 -584.35 -899.76 -159.02 215.22 743.37zm-441.51 -623.6l-574.62 505.36 738.52 119.31 -163.9 -624.67zm-3777.93 2872.44l590.5 -504.08 -773.7 -136.75 183.19 640.83zm-417.22 -505.41l-601.18 528.71 770.17 124.43 -168.98 -653.14zm1259.44 -213.55l45.41 -38.75 -198.17 -720.97 -706.08 620.98 858.83 138.75zm260.95 -222.76l521.02 -444.77 -692.33 -122.35 171.31 567.12zm938.85 -801.45l560.9 -478.81 -745.29 -131.7 184.39 610.51zm-419.24 -556.33l-638.02 561.11 829.06 133.92 -191.04 -695.04zm1381.13 -264.8l586.87 -500.97 -779.81 -137.81 192.93 638.78zm-419.14 -581.24l-651.8 573.23 846.97 136.84 -195.17 -710.06zm1320.55 -188.23l692.72 -591.34 -910.55 -160.93 217.83 752.27zm-409.29 -613.18l-608.32 534.98 781.8 126.3 -173.48 -661.27zm1418.87 -248.67l667.94 -570.18 -877.94 -155.15 210.01 725.32zm-404.77 -643.21l-647.19 569.17 831.77 134.38 -184.58 -703.55zm-5782.16 4643.42l619.06 -528.45 -811.1 -143.34 192.04 671.79zm-402.45 -539.12l-626.15 550.66 802.15 129.59 -176 -680.26zm1380.06 -295.39l675.15 -576.34 -884.61 -156.33 209.46 732.67zm-404.1 -562.91l-600.33 527.96 769.06 124.25 -168.74 -652.21zm1494.03 -367.51l563.92 -481.39 -749.3 -132.42 185.39 613.81zm-401.51 -593.34l-691.45 608.13 898.5 145.16 -207.05 -753.29zm1340.37 -208.12l612.94 -523.23 -814.45 -143.94 201.51 667.17zm-407.04 -612.7l-676.6 595.03 879.17 142.03 -202.58 -737.06zm1368.94 -208.41l658.3 -561.96 -874.73 -154.59 216.42 716.55zm-406.96 -637.61l-683.83 601.4 888.59 143.56 -204.76 -744.96zm1318.54 -140.57l731.52 -624.46 -961.54 -169.91 230.01 794.37zm-396.39 -670.45l-630.75 554.73 810.66 130.97 -179.91 -685.7zm1406 -191.4l717.93 -612.87 -943.68 -166.77 225.74 779.64zm-391.87 -700.49l-692.37 608.92 889.83 143.75 -197.46 -752.67zm-7754.55 6364.57l587.27 -501.3 -769.44 -135.98 182.17 637.28zm-404.71 -549.85l-572.74 503.72 733.7 118.53 -160.95 -622.25zm1215.84 -142.55l22.63 -19.34 -195.42 -755.42 -717.4 630.93 890.2 143.82zm220.69 -188.41l592.12 -505.46 -775.81 -137.1 183.7 642.56zm928.65 -792.73l697.15 -595.13 -913.43 -161.42 216.28 756.55zm-392.83 -610.91l-644.96 567.2 826.22 133.48 -181.26 -700.68zm1370.42 -223.63l698.28 -596.06 -914.9 -161.68 216.62 757.75zm-394.48 -634.68l-619.5 544.83 793.62 128.22 -174.12 -673.04zm1293.95 -133.15l6.62 -5.64 -222.46 -809.38 -749.41 659.08 965.25 155.94zm177.15 -151.22l609.53 -520.32 -809.92 -143.14 200.39 663.46zm938.84 -801.45l677.94 -578.72 -900.81 -159.19 222.87 737.91zm-398.52 -683.16l-727.98 640.23 945.96 152.83 -217.98 -793.05zm1360.42 -137.97l700.84 -598.27 -931.24 -164.56 230.4 762.82zm-398.43 -708.06l-714.76 628.6 928.76 150.03 -214 -778.63zm1320.3 -78.87l775.02 -661.59 -1018.71 -180.02 243.69 841.61zm-387.02 -741.92l-695.52 611.68 893.89 144.42 -198.37 -756.1zm1396.65 -119.93l761.42 -650 -1000.83 -176.87 239.41 826.86zm-382.51 -771.95l-746.46 656.49 959.37 154.98 -212.91 -811.47zm1368.58 -69.81l771.38 -658.49 -985.08 -174.1 213.71 832.59zm-365.15 -812.69l-786.32 691.55 981.43 158.57 -195.11 -850.13zm-9704.1 8090.51l544.61 -464.9 -713.58 -126.1 168.96 591zm-381.73 -551.07l-637.73 560.86 816.97 131.99 -179.24 -692.84zm1315.18 -245.77l647.83 -553.02 -848.81 -150 200.97 703.03zm-382.35 -574.63l-672.17 591.16 861.09 139.1 -188.92 -730.26zm1225.51 -145.12l14.16 -12.09 -196.63 -760.08 -713.44 627.43 895.91 144.74zm188.65 -161.04l649.71 -554.63 -851.28 -150.45 201.56 705.07zm928.64 -792.73l699.78 -597.36 -916.88 -162.04 217.1 759.4zm-370.45 -635.7l-641.38 564.05 821.64 132.74 -180.26 -696.8zm1348.04 -198.82l710.08 -606.14 -930.36 -164.42 220.28 770.56zm-372.08 -659.5l-669.11 588.47 857.16 138.48 -188.05 -726.95zm1255.4 -94.52l32.24 -27.54 -223.64 -813.67 -778.36 684.54 969.76 156.67zm179.7 -153.41l654.33 -558.55 -869.42 -153.65 215.09 712.21zm938.86 -801.46l700.25 -597.78 -930.46 -164.43 230.21 762.2zm-376.64 -707.17l-736.47 647.7 956.97 154.61 -220.5 -802.3zm1338.54 -113.95l734.4 -626.92 -975.82 -172.45 241.43 799.37zm-376.56 -732.08l-745.92 656.02 969.28 156.59 -223.36 -812.61zm-7898.37 6508.88l21.14 -18.05 -201.23 -732.01 -692.54 609.07 872.63 140.98zm203.68 -173.86l531.46 -453.68 -706.23 -124.82 174.77 578.5zm717.56 -612.55l49.78 -42.49 -196.73 -760.47 -748.53 658.29 895.48 144.67zm222.64 -190.07l627.94 -536.02 -822.72 -145.4 194.78 681.42zm933.47 -796.84l728.15 -621.58 -928.66 -164.12 -19.25 16.92 219.76 768.79zm-370.21 -636.48l-679.61 597.71 870.61 140.66 -191.01 -738.37zm1402.02 -244.3l675.07 -576.29 -884.52 -156.3 209.45 732.59zm-359.01 -672.98l-721.24 634.3 923.95 149.28 -202.71 -783.59zm1287.65 -119.75l734.3 -626.84 -962.11 -170.03 227.81 796.87zm-358.34 -697.55l-702.35 617.69 899.76 145.37 -197.41 -763.06zm1335.92 -136.98l763.98 -652.16 -1000.97 -176.89 237 829.05zm-359.97 -721.33l-723.54 636.35 926.92 149.76 -203.38 -786.11zm-5937.37 4795.58l49.28 -42.06 -210.84 -735.58 -721.92 634.9 883.48 142.73zm204.18 -174.27l549.83 -469.36 -738.06 -130.44 188.23 599.8zm717.05 -612.12l92.09 -78.6 -209.42 -761.72 -789.02 693.89 906.34 146.43zm251.83 -214.99l617.63 -527.21 -820.72 -145.03 203.09 672.25zm775.41 -661.92l28.73 -24.52 -204.6 -790.84 -755.95 664.84 931.81 150.52zm178.31 -152.21l697.59 -595.48 -914.02 -161.55 216.42 757.03zm933.48 -796.85l742.82 -634.12 -963.77 -170.32 -7.19 6.33 228.14 798.11zm-354.79 -686.73l-687.44 604.57 880.65 142.28 -193.21 -746.84zm-4796.81 3782.36l44.28 -37.8 -259.27 -674.13 -8.16 -1.43 -650.62 572.18 873.76 141.17zm178.92 -152.72l475.14 -405.61 -692.57 -122.4 217.43 528.01zm740.01 -631.71l662.78 -565.8 -899.87 -159.03 -2.84 2.5 239.93 722.32zm-358.01 -618.48l-645.89 568.04 861.58 139.2 -215.69 -707.24zm1169.14 -73.95l110.72 -94.51 -219.1 -764.43 -808.29 710.84 916.66 148.1zm243.19 -207.59l645.15 -550.74 -866.01 -153.04 220.86 703.78z"/>
    <polygon class="fil0" points="45568.24,16559.76 73983.23,3074.52 68092.13,13022.51 69983.85,6538.29 49097.01,16546.12 "/>
    <path class="fil1" d="M66635.74 2364.52c-1389.47,678.48 -1656.82,942.7 -1951.67,1637.91l-738.85 2478.24c-77.25,420.01 314.38,444.83 848.89,164.95l5224.32 -2476.65c480.05,-227.61 693.81,-606.81 870.92,-1100.09l700.12 -2374.3c43.38,-147.14 -131.33,-615.79 -692.51,-349.79l-4261.32 2020.14 0.1 -0.41zm-2672.35 1266.85l-837.62 397.07 -0.37 1.28 -4490.59 2134.76 0.53 -1.91 -1378.84 647.87 -638.14 2376.05 5287.42 -2511.41 -249.06 888.6 -5307.08 2509.05 -125.43 636.37 541.57 -256.72 0.08 -0.63 4800.63 -2282.45 -0.33 1.31 211.03 -100.1c861.33,-368.58 1197.22,-823.62 1361.59,-1747.92l2.9 -13.85c47.59,-188.17 115.14,-570.71 -52.4,-701.72 -186.41,-145.66 -606.94,44.08 -797.22,143.4l-4.33 2.2 -4056.89 1929.01 189.62 -710.57 4477.63 -2122.7 -0.45 1.58 829 -393.26 236.76 -825.32zm-8734.72 6971.31l-4990.09 2359.17 168.15 -828.12 4329.56 -2060.85c183.63,-108.98 371.2,-264.05 527.53,-412.99 316.29,-301.19 591.82,-678.49 703.4,-1109.98 36.62,-192.68 148,-807.23 -76.47,-892.58 -209.75,-79.73 -780.59,162.89 -990.53,262.32l-0.34 1.59 -4931.53 2344.73 -170.73 755.44 4977.88 -2359.85 -168.2 736.24 -4237.96 2010.51c-402.45,191.34 -773.25,403.38 -952.25,851.36l-454.06 1886.33 1078.65 -511.33 0.31 -1.54 4476.33 -2116.18 -0.24 0.93 584.86 -277.25 125.71 -637.94zm10813.59 -7162.95l4199.55 -1991.04 -728.63 2385.88 -4255.13 2017.23 784.21 -2412.08z"/>
    <path class="fil2" d="M35434.32 40626.98l-121.81 -439.86 -0.99 -2729.8c2.66,-20.96 14.8,-21.18 32.89,-8.34l401.99 345.34 -0.5 -260.94c-2.43,-52.31 -24.76,-100.06 -62.29,-131.05l-295.68 -259.61 0.97 -239.02c1.29,-22.67 13.99,-20.56 32.15,-6.52l324.55 275.31 0.92 -312.86c-0.6,-32.5 -19.07,-45.7 -39.54,-63.22l-394.63 -345.99 -0.16 -573.93c1.89,-12.27 8.26,-15.71 20.91,-6.69l538.83 451.41c37.09,33.67 54.71,87.86 54.49,160.78l-0.08 939.16c-2.54,22.03 -18.8,34.83 -40.89,32.43 19.36,13.01 41.19,36.67 41.18,72.61l-1.36 920.74c-7.27,46.06 -32.87,50.08 -63.97,41.46l-427.23 -377.12 -0.25 641.17c-1.49,55.52 10.29,72.78 35.53,97.02l419.76 367.93c24.84,16.46 34.47,38.9 37.51,63.91l-0.02 689.71c-0.02,28.98 -9.75,41.03 -31.33,32.44l-424.04 -362.3c-23.89,-20.18 -36.86,-19.84 -36.52,5.42l-0.41 980.42zm492.79 -8842.53l-415.97 -346.13 -203.8 -764.92 4.45 -2920.99c3.7,-76.78 32.92,-71.28 74.36,-26.44l234.54 247.71c30.16,37.16 35.04,59.54 35.22,136.96l-0.39 318.35 270.75 -682.98 1.21 1047.61 -346.41 623.1c-14.46,18.47 -22.36,15.35 -25.53,-3.13l0 -857.75c0,-60.83 -6.33,-49.18 -107.11,-122.39 -8.44,-6.09 -15.05,2.88 -14.29,24.2l-0.12 2145.41 15.1 50.45 103.85 93.99 2.4 -1099.92 100.15 383.21 -0.2 809.57 136.38 125.39 -0.11 -1391.96c-0.89,-31.69 17.92,-29.28 23.18,-11.61l112.68 448.27 -0.36 1774.01zm-1.12 3696.46l-138.38 -357.47 0.91 -1097.29c-0.76,-27.6 -4.8,-50.52 -15.65,-63.69l-118.01 -97.07 0.66 1109.71c-4.87,41.21 -32.95,66.65 -72.47,36.86l-227.67 -212.26c-24.34,-31.93 -43.39,-67.55 -43.35,-116.13l0.66 -3684.48 121.3 441.25 -0.15 420.73 493.16 426.88 -0.84 624.35 -24.82 14.57 -467.33 -379.74 0 1631.28c0.27,60.48 12.73,54.89 89.19,120.63l-1.91 -1109.57c2.11,-48 16.14,-71.74 52.28,-50.58l258.87 219.11c56.04,48.3 83.69,112.75 93.85,187.08l-0.31 1935.81zm0.65 696.65l-614.25 -509.64 0.27 -613.46 614.34 501.96 -0.35 621.14z"/>
    <path class="fil0" d="M35229.33 46636.5c36.68,69.55 81.56,123.02 133.59,162.58l455.58 333.72c57.34,32.36 106.49,2.72 107.71,-41.49l0.39 -5860.46c-7.75,-84.11 -38.17,-162.31 -106.94,-230.47 -105.39,-102.72 -174.85,-187.33 -296.73,-258.13 -56.82,-22.35 -93.63,4.7 -111.84,77.92l-47.43 217.1c17.14,-172.51 -122.37,-436.18 -317.03,-532.86 -175.72,-100.91 -233.1,34.84 -232.34,567.22l1.59 1563.78c-7.89,141.21 21.32,264.78 59,384.34l184.66 676.62c41.13,138.48 99.15,225.48 169.4,275.12l413.3 321.78 -0.13 1795.67c3.29,50.41 -10.11,71.41 -50.16,45.36l-213.84 -148.96c-44.61,-38.45 -84.51,-82.65 -113.86,-139.71l-181.26 -354.08c-22.09,-52.04 -40.61,-104.62 -41.93,-159.67l-0.84 -1294.08 -226.7 -645.22 2.76 2178.7c-9.6,142.27 18.51,265.67 63.14,380.8l349.89 684.4zm333.13 -3428.28c42.58,32.87 76.46,44.87 80.02,-23.31l-0.73 -1072.96c0.51,-162.03 -18.54,-139.29 -123.48,-235.83 -47.23,-45.4 -86.37,-58.22 -88.59,-9.76l1.17 984.99 -163.34 -466.48c-16.23,-45.94 -24.03,-93.25 -23.74,-141.87l0.2 -485.59c-0.39,-99.02 -3.65,-102.07 -95.67,-184.73 -39.19,-32.62 -106.38,-63.84 -106.78,4.04l-0.77 659.35c1.21,307.23 68.39,364.95 175.13,628.38 27.02,70.5 69.62,131.59 125.25,184.88l221.32 158.89z"/>
    <path class="fil2" d="M36679.47 40928.67l-121.81 -439.88 -0.99 -2729.8c2.66,-20.96 14.8,-21.16 32.89,-8.34l401.99 345.34 -0.51 -260.94c-2.44,-52.31 -24.76,-100.05 -62.3,-131.05l-295.66 -259.59 0.95 -239.04c1.31,-22.67 13.99,-20.54 32.16,-6.5l324.54 275.31 0.93 -312.87c-0.61,-32.51 -19.08,-45.69 -39.56,-63.23l-394.61 -345.99 -0.18 -573.91c1.91,-12.29 8.28,-15.71 20.93,-6.71l538.81 451.42c37.09,33.68 54.73,87.85 54.51,160.78l-0.08 939.15c-2.54,22.04 -18.8,34.85 -40.89,32.43 19.36,13.02 41.19,36.69 41.16,72.63l-1.34 920.74c-7.27,46.06 -32.88,50.06 -63.97,41.44l-427.25 -377.12 -0.24 641.17c-1.49,55.52 10.28,72.78 35.54,97.04l419.74 367.93c24.86,16.44 34.48,38.88 37.53,63.9l-0.04 689.71c0,28.99 -9.75,41.02 -31.31,32.45l-424.05 -362.31c-23.88,-20.17 -36.85,-19.85 -36.53,5.43l-0.39 980.42zm492.78 -8842.54l-415.97 -346.13 -203.79 -764.91 4.43 -2921.01c3.72,-76.77 32.93,-71.28 74.37,-26.42l234.53 247.69c30.16,37.18 35.04,59.55 35.23,136.97l-0.38 318.34 270.73 -682.98 1.23 1047.63 -346.42 623.08c-14.46,18.48 -22.35,15.35 -25.52,-3.12l0 -857.74c-0.02,-60.73 -6.28,-49.29 -107.11,-122.41 -8.44,-6.07 -15.05,2.9 -14.29,24.22l-0.14 2145.41 15.1 50.43 103.87 94.01 2.4 -1099.93 100.15 383.2 -0.22 809.57 136.38 125.39 -0.11 -1391.94c-0.87,-31.7 17.94,-29.28 23.19,-11.61l112.69 448.25 -0.37 1774.02zm-1.11 3696.46l-138.4 -357.47 0.92 -1097.29c-0.75,-27.59 -4.79,-50.51 -15.64,-63.7l-118.02 -97.07 0.65 1109.72c-4.85,41.2 -32.93,66.66 -72.45,36.85l-227.67 -212.26c-24.34,-31.92 -43.39,-67.55 -43.35,-116.12l0.66 -3684.49 121.3 441.25 -0.17 420.73 493.16 426.9 -0.84 624.34 -24.82 14.57 -467.33 -379.74 0 1631.28c0.28,60.5 12.75,54.91 89.19,120.65l-1.9 -1109.59c2.1,-47.99 16.13,-71.73 52.29,-50.58l258.87 219.11c56.02,48.31 83.68,112.77 93.85,187.09l-0.31 1935.81zm0.65 696.64l-614.25 -509.64 0.26 -613.46 614.33 501.97 -0.33 621.13z"/>
    <path class="fil0" d="M36474.48 46938.17c36.66,69.55 81.56,123.04 133.59,162.58l455.56 333.72c57.36,32.36 106.51,2.73 107.71,-41.49l0.41 -5860.46c-7.77,-84.09 -38.18,-162.29 -106.94,-230.47 -105.39,-102.72 -174.85,-187.31 -296.73,-258.11 -56.82,-22.37 -93.65,4.7 -111.85,77.9l-47.43 217.1c17.13,-172.49 -122.36,-436.16 -317.02,-532.86 -175.72,-100.91 -233.1,34.86 -232.36,567.24l1.59 1563.78c-7.89,141.21 21.34,264.76 59.02,384.33l184.66 676.62c41.13,138.48 99.15,225.48 169.38,275.12l413.3 321.8 -0.13 1795.65c3.31,50.43 -10.09,71.41 -50.14,45.38l-213.86 -148.96c-44.59,-38.46 -84.5,-82.65 -113.84,-139.71l-181.26 -354.08c-22.09,-52.06 -40.62,-104.62 -41.95,-159.67l-0.84 -1294.09 -226.68 -645.21 2.75 2178.7c-9.59,142.25 18.5,265.65 63.13,380.8l349.91 684.38zm333.13 -3428.28c42.56,32.89 76.44,44.87 80,-23.29l-0.73 -1072.98c0.51,-161.98 -18.45,-139.2 -123.48,-235.82 -47.23,-45.4 -86.35,-58.23 -88.59,-9.75l1.17 984.99 -163.34 -466.48c-16.21,-45.94 -24.01,-93.25 -23.73,-141.88l0.21 -485.58c-0.39,-99.02 -3.69,-102.1 -95.69,-184.75 -39.19,-32.62 -106.36,-63.82 -106.77,4.06l-0.77 659.33c1.21,307.21 68.39,364.97 175.13,628.39 27.02,70.49 69.62,131.6 125.25,184.87l221.32 158.89z"/>
    <path class="fil0" d="M53919.99 24376.2c0,143.04 -7.83,111.14 25.83,245.15 60.91,242.44 281.62,456.63 462.57,616.05 88.62,78.08 180.04,183.94 267.97,268.2 14.69,14.05 22.55,17.1 37.14,30.63 104.2,96.77 198.41,205.09 304.94,299.03 45.03,39.68 89.43,89.22 132.64,132.4l172.54 166.4c62.7,58.49 263.46,280.94 306.69,297.27 29.54,11.13 601.73,3.42 662.44,3.16l-1419.05 -1292.57c-102.88,-98.87 -276.85,-239.92 -354.49,-323.45 -119.13,-128.18 -196.68,-333.05 -61.61,-477.85 161.6,-173.24 490.76,-280.49 724.96,-359.71l1405.18 -492.92 2401.91 -845.97c268.63,-88.79 534.04,-189.86 801.2,-283.51 69.6,-24.41 134.86,-46.13 200.47,-70.58 189.05,-70.47 426.26,-143.12 601.22,-212.43l401.51 -140.72 601.14 -212.42c200.03,-68.97 398.93,-145.63 600.84,-212.63 66.23,-21.97 130.07,-47.8 200.23,-70.96 470.33,-155.18 676.79,-298.94 848.95,-778.09l208.7 -592.29c-57.48,19.06 -106.3,42.5 -162.86,65.11l-3531.37 1442.1 -1841.73 752.72c-1023.2,412.58 -2045.14,839.74 -3068.35,1251.86 -192.14,77.4 -418.85,159.82 -580.96,281.86 -176.1,132.56 -300.77,282.61 -342.83,495.25l-5.8 18.91zm9774.28 3408.01l0 -228.02 -215.7 0.02 -529.63 -875.1 -912.42 0.14 0.22 221.6 240 0.19 -357.35 659.37 -228.01 0.3 0.36 221.44 732.97 0.35 -0.01 -228.28 -203.45 0.06 67.87 -129.49 579.49 0.06c8.42,31.79 77.76,103.89 86.22,135.56l-209.57 -0.02 0 221.77 949.03 0.07zm-1269.61 -591.44l338.94 -0.23 -184.78 -277.24 -154.16 277.46zm-4634.39 -289.66l209.71 -0.08 -0.15 659.66 -209.47 -0.31 -0.12 222.11 696.8 -0.19 -0.48 -228.04 -215.61 -0.05 0 -554.33 590.46 758.83c30.24,39.44 82.41,23.44 173.77,23.44 172.36,0 345.25,-1.35 517.55,0.16l0.23 -887.41 221.64 -0.16 0.1 -215.68 -715.02 0 0.17 221.74 222.04 0.19 -8.75 563.14c-4.86,-5.85 -6.94,-8.46 -10.91,-13.77l-597.36 -770.92 -874.62 -0.35 0.03 222.03zm-3845.62 0.03l203.69 -0.16 -0.31 659.55 -203.32 -0.2 -0.03 222.15 881.01 -0.31 0.22 -227.97 -215.66 0.01 0 -209.65 652.88 0.37 0.43 215.46 -215.92 0 0.11 221.82 875.53 0.09 -0.44 -228.04 -209.47 -0.04 -0.22 -659.33 210.13 -0.05 -0.4 -215.68 -875.61 -0.04 0.25 221.72 215.62 0.13 0.43 215.71 -653.31 -0.03 -0.06 -221.93 215.5 0.07 0.05 -215.55 -881.09 -0.14 0 222.03zm5965.68 -0.08l215.54 -0.19 0.17 659.88 -215.62 -0.37 -0.11 222 831.97 -0.24c207.36,-0.03 202.19,7.92 405.86,-13.23 242.79,-24.68 437.33,-88.21 509.86,-334.26 22.09,-75.11 21.02,-147.71 21,-219.42 -0.1,-361.82 -289.55,-536.16 -603.95,-536.16l-1164.71 0.03 0 221.95zm659.4 653.16c234.73,-0.01 614.01,44.67 662.2,-274.52 26.34,-174.14 -61.12,-328.37 -257.04,-364.91 -140.76,-26.27 -267.89,-20.05 -405.78,-20.05l0.62 659.48zm-2900.58 -102.65c75.81,-157 68.58,-393.83 -45.19,-550.75 -182.29,-251.37 -643.51,-307.75 -927.08,-267.4 -28.23,4.02 -53.75,0.73 -81.37,4.89 -283.42,42.71 -580.81,157.41 -637.23,484.34 -17.84,103.44 -3.69,230.44 25.53,307.51 219.55,579.14 1439.62,489.08 1665.33,21.41zm-724.35 -574.21c-380.63,-102.94 -637.17,383.06 -317.49,644.2 416.23,340.01 917.28,-482.01 317.49,-644.2zm1658.99 -1202.82c-58.27,0.01 -524.04,57.91 -652.76,68.38 -119.72,9.7 -272.29,34.77 -394.73,42.8l-260.87 28.74 -912.98 97.75 -398.16 39.66c1.36,0.83 3.73,-0.06 4.38,1.83 56.2,24.7 79.36,78.66 143.83,127.6 58.48,44.39 272.93,279.52 352.64,343.71 26.13,17.7 95.96,7.52 134.17,7.55l3352.67 0c-17.04,-23.38 -1128.17,-669.39 -1249.17,-741.48 -60.94,-36.68 -54.43,-23.24 -119.02,-16.54zm1793.36 -1158.56l-4998.05 893.57 121.65 118.62 64.93 58.37c21.35,20.64 39.44,42.96 61.71,61.55l92.07 86.62c14.02,12.98 19.92,14.48 34.06,27.55 22.28,20.54 39.15,41.85 61.65,61.62 12.76,11.23 25.45,15.32 34.67,27.89 19.43,26.54 3.62,1.85 1.79,12.98 -1.31,7.74 -21.02,0.11 2.01,6.97 5.43,0.16 33.02,-11.82 73.97,-12.34l951.7 -108.24c193.14,-26.3 437.73,-48.33 637.13,-71.67 180.34,-21.11 462.23,-57.82 636.12,-72.63 108.03,-9.19 215.43,-28.23 320.26,-37.1 -24.51,-45.75 -56.27,-96.85 -1.84,-143.63 58.38,-50.15 331.61,-65.53 445.08,-78.73l753.51 -96.97c141.9,-17.49 173.6,-11.23 333.25,-42.73 249.11,-49.17 561.7,-201.54 739.57,-382.07 115.37,-117.08 159.63,-162.82 252.2,-308.57 16.11,-25.3 61.02,-99.62 66.58,-124.72l-684.01 123.65zm-5509.41 425.35c73.16,64.57 410.95,345.28 406.56,369.62 156.69,-36.3 446.33,-80.64 602.21,-106.58l1584.35 -270.61c10.1,-2.79 19.26,-0.94 10.23,-19.72 -20.04,-41.63 -53.75,-108.72 38.32,-147.53 73.26,-30.89 143.72,-21.15 226.37,-38.51 271.83,-57.11 3004.45,-618.86 3072.76,-618.83 128.32,0.05 423.41,-118.69 546.01,-199.69l232.32 -174.38c34.61,-29.17 75.54,-64.08 103.85,-99.61 115.38,-144.8 181.13,-209.78 276.33,-401.41 13.8,-27.73 35.26,-65.36 43.23,-98.62 -44.53,0.99 -6756.01,1707.88 -7142.55,1805.87zm1756.1 -585.65c-22.14,-34.66 -42.7,-89.87 -7.12,-130.54 34.86,-39.87 152.43,-54.27 226.51,-75.46l526.52 -139.03 1909.11 -506.77 422.77 -113.39c478.87,-117.91 994.56,-275.32 1474.2,-393.14l787.03 -217.46 165.48 -105.71c196.89,-141.85 406.1,-453.26 526.82,-674.87 34.35,-68.55 82.38,-147.62 113.85,-225.02l42.58 -93.15 -4271.84 1398.09 -3122.93 1018.32c-198.12,66.2 -646.41,197.83 -789.78,301.09 -91.43,65.9 -93.43,204.71 -4.56,294.5 37.17,37.55 70.62,70.28 107.95,107.81 42.31,42.48 23.95,46.49 159.14,8.16 116.22,-32.96 232.38,-56.63 346.98,-90.56 149.9,-44.39 1355.5,-343.19 1387.28,-362.87z"/>
    <path class="fil0" d="M19705.71 24376.2c0,143.02 7.79,111.13 -25.88,245.15 -60.92,242.43 -281.61,456.66 -462.56,616.05 -88.34,77.83 -180.03,183.87 -267.98,268.2 -14.66,14.05 -22.53,17.1 -37.13,30.63 -104.15,96.77 -198.39,205.09 -304.93,299.03 -45,39.68 -89.45,89.22 -132.65,132.4l-172.53 166.4c-62.71,58.49 -263.5,280.94 -306.74,297.27 -29.46,11.13 -601.7,3.42 -662.41,3.16l1419.08 -1292.57c102.37,-98.4 277.76,-240.77 354.46,-323.45 119.01,-128.3 196.85,-333 61.63,-477.85 -161.85,-173.37 -490.59,-280.44 -725,-359.71l-1405.17 -492.92 -2401.89 -845.97c-268.63,-88.79 -534.02,-189.86 -801.17,-283.51 -69.59,-24.41 -134.88,-46.13 -200.46,-70.58 -189.05,-70.47 -426.31,-143.12 -601.27,-212.43l-401.52 -140.72 -601.08 -212.42c-200.09,-68.97 -398.96,-145.63 -600.9,-212.63 -66.21,-21.97 -130.01,-47.8 -200.22,-70.96 -470.41,-155.16 -676.75,-299.02 -848.92,-778.09l-208.7 -592.29c57.44,19.06 106.28,42.5 162.84,65.11l3531.34 1442.1 1841.78 752.72c1023.16,412.58 2045.1,839.74 3068.31,1251.86 192.16,77.4 418.85,159.82 580.99,281.86 176.09,132.56 300.81,282.61 342.82,495.25l5.83 18.91zm221.25 3408.01l0 -228.02 -215.7 0.02 -529.65 -875.1 -912.43 0.14 0.22 221.6 240.01 0.19 -357.35 659.37 -227.99 0.3 0.36 221.44 732.96 0.35 0 -228.28 -203.5 0.06 67.9 -129.49 579.48 0.06c8.45,31.79 77.76,103.89 86.21,135.56l-209.55 -0.02 -0.04 221.77 949.09 0.07zm-1269.62 -591.44l338.9 -0.23 -184.79 -277.24 -154.12 277.46zm-4634.4 -289.66l209.71 -0.08 -0.18 659.66 -209.44 -0.31 -0.1 222.11 696.79 -0.19 -0.48 -228.04 -215.6 -0.05 -0.03 -554.33 590.48 758.83c30.2,39.44 82.42,23.44 173.73,23.44 172.37,0 345.29,-1.35 517.59,0.16l0.19 -887.41 221.66 -0.16 0.1 -215.68 -715.06 0 0.24 221.74 222.01 0.19 -8.75 563.14c-4.9,-5.85 -6.93,-8.46 -10.89,-13.77l-597.36 -770.92 -874.61 -0.35 0.01 222.03zm-3845.64 0.03l203.73 -0.16 -0.35 659.55 -203.29 -0.2 -0.05 222.15 880.99 -0.31 0.24 -227.97 -215.7 0.01 0 -209.65 652.93 0.37 0.42 215.46 -215.91 0 0.08 221.82 875.56 0.09 -0.46 -228.04 -209.44 -0.04 -0.23 -659.33 210.13 -0.05 -0.41 -215.68 -875.61 -0.04 0.28 221.72 215.6 0.13 0.42 215.71 -653.34 -0.03 -0.01 -221.93 215.46 0.07 0.08 -215.55 -881.11 -0.14 0 222.03zm5965.72 -0.08l215.49 -0.19 0.19 659.88 -215.66 -0.37 -0.08 222 831.98 -0.24c207.4,-0.03 202.2,7.92 405.87,-13.23 242.81,-24.68 437.35,-88.21 509.86,-334.26 22.11,-75.11 21.01,-147.71 20.98,-219.42 -0.11,-361.82 -289.53,-536.16 -603.91,-536.16l-1164.71 0.03 0 221.95zm659.35 653.16c234.78,-0.01 614.03,44.67 662.27,-274.52 26.28,-174.14 -61.14,-328.37 -257.06,-364.91 -140.84,-26.27 -267.84,-20.05 -405.78,-20.05l0.57 659.48zm-2900.53 -102.65c75.76,-157 68.6,-393.83 -45.23,-550.75 -182.35,-251.37 -643.46,-307.75 -927.04,-267.4 -28.24,4.02 -53.75,0.73 -81.37,4.89 -283.49,42.7 -580.76,157.35 -637.23,484.34 -17.87,103.44 -3.72,230.44 25.5,307.51 219.53,579.14 1439.65,489.08 1665.36,21.41zm-724.34 -574.21c-380.66,-102.94 -637.19,383.06 -317.5,644.2 416.19,340.01 917.25,-482.01 317.5,-644.2zm1844.43 -1202.82c58.21,0.01 524,57.91 652.7,68.38 119.79,9.7 272.32,34.77 394.76,42.8l260.85 28.74 912.98 97.75 398.17 39.66c-1.37,0.83 -3.69,-0.06 -4.41,1.83 -56.13,24.7 -79.43,78.73 -143.8,127.6 -58.31,44.27 -273.32,279.9 -352.61,343.71 -26.16,17.7 -96,7.52 -134.22,7.55l-3352.66 0c17.03,-23.37 1128.23,-669.42 1249.19,-741.48 60.96,-36.68 54.43,-23.24 119.05,-16.54zm-1793.4 -1158.56l4998.09 893.57 -121.7 118.62 -64.93 58.37c-21.33,20.64 -39.4,42.96 -61.68,61.55l-92.07 86.62c-14.04,12.98 -19.92,14.48 -34.06,27.55 -22.31,20.54 -39.15,41.85 -61.65,61.62 -12.79,11.23 -25.48,15.32 -34.69,27.89 -19.44,26.54 -3.61,1.85 -1.78,12.98 1.31,7.74 21.01,0.11 -1.97,6.97 -5.43,0.16 -33.08,-11.82 -73.97,-12.34l-951.75 -108.24c-193.14,-26.3 -437.72,-48.33 -637.1,-71.67 -180.31,-21.11 -462.23,-57.82 -636.09,-72.63 -108.03,-9.19 -215.42,-28.23 -320.27,-37.1 24.48,-45.75 56.25,-96.85 1.78,-143.63 -58.36,-50.15 -331.58,-65.53 -445.01,-78.73l-753.56 -96.97c-141.88,-17.49 -173.55,-11.23 -333.25,-42.73 -249.02,-49.15 -561.78,-201.59 -739.58,-382.07 -115.31,-117.08 -159.61,-162.82 -252.2,-308.57 -16.08,-25.3 -61,-99.62 -66.59,-124.72l684.04 123.65zm5509.45 425.35c-73.31,64.65 -410.81,344.94 -406.61,369.62 -156.7,-36.3 -446.34,-80.64 -602.19,-106.58l-1584.35 -270.61c-10.1,-2.79 -19.3,-0.94 -10.26,-19.72 90.36,-187.76 -137.16,-159.25 -264.67,-186.05 -271.92,-57.13 -3004.42,-618.86 -3072.77,-618.83 -128.31,0.05 -423.31,-118.65 -545.96,-199.69l-232.37 -174.38c-34.57,-29.17 -75.47,-64.08 -103.8,-99.61 -115.37,-144.8 -181.18,-209.78 -276.36,-401.41 -13.79,-27.73 -35.31,-65.36 -43.24,-98.62 44.5,0.99 6756.07,1707.89 7142.59,1805.87zm-1756.1 -585.65c22.11,-34.66 42.66,-89.87 7.11,-130.54 -34.84,-39.86 -152.44,-54.25 -226.53,-75.46l-526.49 -139.03 -1909.17 -506.77 -422.75 -113.39c-478.87,-117.91 -994.57,-275.32 -1474.19,-393.14l-787.04 -217.46 -165.49 -105.71c-196.92,-141.89 -406.03,-453.25 -526.8,-674.87 -34.37,-68.55 -82.4,-147.62 -113.85,-225.02l-42.61 -93.15 4271.86 1398.09 3122.92 1018.32c198.17,66.2 646.44,197.83 789.78,301.09 91.43,65.9 93.44,204.71 4.55,294.5 -37.15,37.55 -70.59,70.28 -107.92,107.81 -42.34,42.48 -23.97,46.49 -159.15,8.16 -116.23,-32.96 -232.4,-56.63 -346.95,-90.56 -187.4,-55.51 -1321.15,-333.39 -1383.19,-360.86 -0.9,-0.39 -2.81,-1.2 -4.07,-2.02z"/>
    <path class="fil2" d="M23323.4 49316.9l-248.93 394.01 341.7 -42.47 -92.77 -351.54zm-2693.17 193.6l6454.02 4034.24 -3675.71 79.84 -5876.37 -3455.48c1042.76,-234.53 2076.79,-454.45 3098.07,-658.6zm11677.64 -1131.57c-84.76,83.25 -171.32,168.5 -259.46,255.46l-148.16 50.06 242.01 -641.87 165.62 336.35zm-693.67 685.13c-115.48,114.56 -232.9,231.2 -351.92,349.62l-118.57 -311.6 517.46 -121.33 -46.97 83.31zm-677.74 674.04l-159.23 158.72 -296.6 57.86 324.94 -603.36 130.89 386.78zm-824.92 822.79l-183.16 182.69 -118.18 -310.63 430.37 -100.92 -129.02 228.86zm1832.25 -2628.92l-254.3 636.97 -241.83 -448.22 496.13 -188.75zm-785.33 284.74l-241.99 641.86 478.49 -161.62 -236.51 -480.24zm-198.44 -110.59l-254.31 636.95 -241.82 -448.22 496.13 -188.73zm-678.35 166.01l-242 641.89 478.49 -161.65 -236.5 -480.24zm-198.46 -110.58l-254.29 636.93 -241.84 -448.18 496.13 -188.75zm539.94 1054.13l-336.52 596.84 -180.92 -475.5 517.44 -121.34zm-1189.99 -789.22l-241.98 641.87 478.49 -161.63 -236.51 -480.24zm-166.39 -109.96l-254.29 636.94 -241.84 -448.19 496.13 -188.75zm-665.81 201.45l-242 641.88 478.49 -161.64 -236.5 -480.24zm-252.58 -104.93l-254.3 636.94 -241.83 -448.19 496.13 -188.75zm1604.69 974.07l-324.94 603.35 496.36 -96.82 -171.42 -506.53zm-236.89 -137.19l-336.52 596.83 -180.92 -475.5 517.44 -121.33zm-1975.48 -503.73l-270.25 501.8 412.82 -80.51 -142.57 -421.28zm-208.27 -132.43l-279.89 496.39 -150.48 -395.49 430.38 -100.9zm1429.44 991.26l-270.28 501.8 412.82 -80.51 -142.54 -421.28zm-208.28 -132.43l-279.89 496.39 -150.47 -395.47 430.37 -100.92zm826.4 1040.08l-270.28 501.81 412.83 -80.51 -142.55 -421.29zm-282.85 -194.95l-279.91 496.4 -150.47 -395.49 430.38 -100.91zm-2415.22 -1502.45l-270.25 501.79 412.82 -80.51 -142.57 -421.27zm-208.27 -132.45l-279.89 496.4 -150.48 -395.49 430.38 -100.91zm1465.45 968.07l-270.27 501.79 412.82 -80.51 -142.55 -421.27zm-208.28 -132.46l-279.88 496.41 -150.48 -395.49 430.37 -100.92zm952.86 1921.02l-256.48 389.07 -100.69 -330.95 357.18 -58.12zm-338.12 -740.79l-304.29 481.63 417.7 -51.9 -113.42 -429.74zm-198.83 -146.33l-313.55 475.61 -123.09 -404.57 436.64 -71.05zm-1138.78 -731.92l-304.31 481.64 417.72 -51.9 -113.42 -429.75zm-198.85 -146.32l-313.54 475.61 -123.11 -404.57 436.64 -71.05zm-1052.43 -654.36l-304.29 481.65 417.7 -51.92 -113.42 -429.74zm-198.84 -146.33l-313.55 475.61 -123.09 -404.57 436.64 -71.05zm-648.51 239.74l-248.94 394.01 341.7 -42.47 -92.76 -351.54zm-261.39 -164.26l-256.49 389.07 -100.69 -330.95 357.19 -58.12zm1543.69 964.1l-248.94 394.01 341.7 -42.45 -92.76 -351.56zm-261.41 -164.25l-256.49 389.07 -100.69 -330.95 357.19 -58.12zm1563.31 998.32l-248.94 394.01 341.71 -42.45 -92.76 -351.56zm-261.39 -164.25l-256.49 389.07 -100.69 -330.96 357.19 -58.11zm729.59 1223.33l-248.93 394.01 341.7 -42.45 -92.77 -351.56zm-261.4 -164.24l-256.49 389.07 -100.69 -330.97 357.19 -58.1zm-1125.05 -697.57l-248.94 394.01 341.7 -42.47 -92.76 -351.54zm-261.41 -164.25l-256.49 389.07 -100.69 -330.97 357.19 -58.1zm-1038.73 -670.04l-248.94 394.01 341.7 -42.45 -92.76 -351.56zm-261.39 -164.25l-256.5 389.07 -100.69 -330.95 357.2 -58.12zm-1036.22 -639.56l-248.94 394.01 341.7 -42.45 -92.76 -351.56zm-261.41 -164.25l-256.49 389.08 -100.68 -330.97 357.18 -58.11zm-827.06 25.47l-256.49 389.07 -100.68 -330.97 357.18 -58.1zm4194.16 2649.49l-248.94 394 341.7 -42.44 -92.76 -351.56zm-334.93 -227.1l-256.48 389.07 -100.69 -330.97 357.18 -58.1zm-1011.8 -639.67l-248.95 394.01 341.71 -42.44 -92.75 -351.57zm-328.06 -189.7l-256.49 389.07 -100.68 -330.95 357.18 -58.12zm-1011.81 -639.64l-248.94 393.99 341.7 -42.45 -92.75 -351.54zm-261.4 -164.25l-256.5 389.07 -100.69 -330.96 357.2 -58.11z"/>
    <path class="fil2" d="M51915.71 49398.55l-6454.02 4034.24 3675.71 79.84 5876.37 -3455.48c-1042.76,-234.53 -2076.79,-454.45 -3098.07,-658.6zm-2693.17 -193.6l248.93 394.01 -341.7 -42.47 92.77 -351.54zm-8984.47 -937.97c84.76,83.25 171.32,168.5 259.46,255.46l148.16 50.06 -242.01 -641.87 -165.62 336.35zm693.67 685.13c115.48,114.56 232.9,231.2 351.92,349.62l118.57 -311.6 -517.46 -121.33 46.97 83.31zm677.74 674.04l159.23 158.72 296.6 57.86 -324.94 -603.36 -130.89 386.78zm824.92 822.79l183.16 182.69 118.18 -310.63 -430.37 -100.92 129.02 228.86zm-1832.25 -2628.92l254.3 636.97 241.83 -448.22 -496.13 -188.75zm785.33 284.74l241.99 641.86 -478.49 -161.62 236.51 -480.24zm198.44 -110.59l254.3 636.95 241.83 -448.22 -496.13 -188.73zm678.35 166.01l242 641.89 -478.49 -161.65 236.5 -480.24zm198.46 -110.58l254.29 636.93 241.84 -448.18 -496.13 -188.75zm-539.94 1054.13l336.52 596.84 180.92 -475.5 -517.44 -121.34zm1189.99 -789.22l241.99 641.87 -478.49 -161.63 236.51 -480.24zm166.39 -109.96l254.29 636.94 241.84 -448.19 -496.13 -188.75zm665.81 201.45l241.99 641.88 -478.49 -161.64 236.5 -480.24zm252.58 -104.93l254.29 636.94 241.84 -448.19 -496.13 -188.75zm-1604.69 974.07l324.94 603.35 -496.36 -96.82 171.42 -506.53zm236.89 -137.19l336.52 596.83 180.93 -475.5 -517.45 -121.33zm1975.48 -503.73l270.25 501.8 -412.82 -80.51 142.57 -421.28zm208.27 -132.43l279.89 496.39 150.48 -395.49 -430.38 -100.9zm-1429.44 991.26l270.28 501.8 -412.82 -80.51 142.54 -421.28zm208.28 -132.43l279.89 496.39 150.47 -395.47 -430.37 -100.92zm-826.4 1040.08l270.28 501.81 -412.83 -80.51 142.55 -421.29zm282.85 -194.95l279.91 496.4 150.47 -395.49 -430.38 -100.91zm2415.22 -1502.45l270.25 501.79 -412.82 -80.51 142.57 -421.27zm208.27 -132.45l279.89 496.4 150.48 -395.49 -430.38 -100.91zm-1465.45 968.07l270.27 501.79 -412.82 -80.51 142.55 -421.27zm208.28 -132.46l279.88 496.41 150.49 -395.49 -430.38 -100.92zm-952.86 1921.02l256.48 389.07 100.69 -330.95 -357.18 -58.12zm338.12 -740.79l304.29 481.63 -417.7 -51.9 113.42 -429.74zm198.83 -146.33l313.55 475.61 123.09 -404.57 -436.64 -71.05zm1138.78 -731.92l304.31 481.64 -417.72 -51.9 113.42 -429.75zm198.84 -146.32l313.55 475.61 123.11 -404.57 -436.65 -71.05zm1052.44 -654.36l304.29 481.65 -417.7 -51.92 113.42 -429.74zm198.84 -146.33l313.55 475.61 123.09 -404.57 -436.64 -71.05zm648.51 239.74l248.94 394.01 -341.7 -42.47 92.76 -351.54zm261.39 -164.26l256.49 389.07 100.69 -330.95 -357.19 -58.12zm-1543.69 964.1l248.94 394.01 -341.7 -42.45 92.76 -351.56zm261.41 -164.25l256.49 389.07 100.69 -330.95 -357.19 -58.12zm-1563.31 998.32l248.94 394.01 -341.71 -42.45 92.76 -351.56zm261.39 -164.25l256.49 389.07 100.69 -330.96 -357.19 -58.11zm-729.59 1223.33l248.94 394.01 -341.71 -42.45 92.77 -351.56zm261.39 -164.24l256.5 389.07 100.69 -330.97 -357.2 -58.1zm1125.06 -697.57l248.94 394.01 -341.7 -42.47 92.76 -351.54zm261.41 -164.25l256.49 389.07 100.69 -330.97 -357.19 -58.1zm1038.73 -670.04l248.94 394.01 -341.7 -42.45 92.76 -351.56zm261.39 -164.25l256.49 389.07 100.7 -330.95 -357.2 -58.12zm1036.22 -639.56l248.94 394.01 -341.7 -42.45 92.76 -351.56zm261.41 -164.25l256.49 389.08 100.69 -330.97 -357.19 -58.11zm827.07 25.47l256.48 389.07 100.68 -330.97 -357.17 -58.1zm-4194.17 2649.49l248.94 394 -341.71 -42.44 92.76 -351.56zm334.93 -227.1l256.49 389.07 100.68 -330.97 -357.18 -58.1zm1011.8 -639.67l248.95 394.01 -341.71 -42.44 92.75 -351.57zm328.06 -189.7l256.49 389.07 100.68 -330.95 -357.18 -58.12zm1011.81 -639.64l248.94 393.99 -341.7 -42.45 92.75 -351.54zm261.4 -164.25l256.49 389.07 100.7 -330.96 -357.2 -58.11z"/>
   </g>
  </svg>
  