<?xml version="1.0" encoding="UTF-8"?>
  <!DOCTYPE svg PUBLIC "-//W3C//DTD SVG 1.1//EN" "http://www.w3.org/Graphics/SVG/1.1/DTD/svg11.dtd">
  <!-- Creator: CorelDRAW 2020 (64 Bit) -->
  <svg xmlns="http://www.w3.org/2000/svg" xml:space="preserve" width="812.799mm" height="348.19mm" version="1.1" style="shape-rendering:geometricPrecision; text-rendering:geometricPrecision; image-rendering:optimizeQuality; fill-rule:evenodd; clip-rule:evenodd"
  viewBox="0 0 30038.79 12868.13"
   xmlns:xlink="http://www.w3.org/1999/xlink"
   xmlns:xodm="http://www.corel.com/coreldraw/odm/2003">
   <defs>
    <style type="text/css">
     <![CDATA[
      .fil2 {fill:#d9d9d9}
      .fil0 {fill:#000000}
      .fil1 {fill:#ff0000}
     ]]>
    </style>
   </defs>
   <g id="Camada_x0020_1">
    <metadata id="CorelCorpID_0Corel-Layer"/>
    <path class="fil0" d="M8231.25 7295.28c359.05,-287.21 1076.3,-374.52 1525.24,-439.63 498.5,-72.28 1000.39,-140.01 1500.64,-198.87 262.93,-36.13 460.29,-97.33 688.45,77.88 220.83,169.59 259.87,208.57 554.19,161.03 611.73,-97.01 1265.41,-157.69 1884.08,-222.27 591.34,-61.73 597.51,200.23 823.13,609.05 189.95,344.13 388.79,263.79 725.23,226.12 212.59,-23.83 425.16,-47.64 637.75,-71.47 367.54,-40.56 716.05,-78.05 961.29,-102.26 505.85,-49.92 572.4,-43.26 609,-13.32 143.11,117.08 -227.02,260.93 -459.25,372.73 -269.55,129.78 -688.86,336.11 -1108.17,542.44 -53.24,59.9 -106.48,119.8 -133.11,216.31 -26.62,96.52 -26.62,229.63 26.62,332.79 20.26,39.26 48.24,74.15 88.68,105.65l2090.71 238.61c254.61,2.49 1560.29,-249.31 1724.21,-281.02 551.43,-106.73 469.78,-94.9 848.62,302.85 174.67,161.48 344.98,89.37 576.51,87.47 348.22,-2.87 194.16,181.46 634.67,243.49 373.56,52.62 778.22,89.15 1156.58,133.71 739.61,87.12 1479,175.66 2218.04,267.45 1204.69,149.77 2416.03,309.49 3124.86,399.33 708.84,89.86 915.17,109.84 1021.65,136.46 106.5,26.62 113.16,59.9 36.62,99.83 -293.34,153.03 -3107.15,470.68 -4056.69,579.05 -2568.53,293.15 -5714.72,554.62 -8323.01,708.84 -1294.54,76.54 -2213.04,109.83 -2808.74,123.13 -595.68,13.32 -868.56,6.68 -1044.95,10 -222.19,4.19 -379.01,18.19 -415.97,202.99 -58.43,292.11 198.46,351.56 349.41,502.51 49.92,49.92 69.9,96.52 -422.63,146.42 -1855.69,188.06 -4456.85,17.68 -6595.85,-429.29 -1337.8,-279.54 -2635.67,-685.54 -3677.3,-1078.23 -712.24,-272.04 -1436.28,-590.91 -2137.53,-894.41 -345.54,-149.54 -751.38,-369.94 -696.77,-815.59 46.05,-375.84 603.11,-373.81 889.21,-402.58 588.75,-64.81 1186.09,-154.42 1777.9,-223.68 1101.53,-128.9 2205.16,-238.91 3308.8,-347.94 909.54,-89.82 975.22,-304.73 1468.79,-754.61 208.31,-189.86 408.89,-373.94 629.09,-550.97z"/>
    <path class="fil1" d="M16821.77 7653.13c-2356.14,252.93 -4712.27,505.83 -6682.38,732.12 -1970.09,226.3 -3554.16,425.99 -4765.51,582.39 -1211.34,156.4 -2049.96,269.57 -2755.48,352.75 -705.5,83.2 -1277.9,136.46 -1584.06,186.36 -306.17,49.92 -346.09,96.52 -356.09,139.78 -9.98,43.26 10,83.18 296.19,262.89 286.21,179.71 838.62,499.2 1923.51,895.21 1084.89,396.01 2702.24,868.58 4153.18,1144.79 1450.96,276.21 2735.53,356.09 3564.16,389.35 828.64,33.28 1201.37,19.98 1574.09,6.66 -359.41,-106.48 -718.82,-212.98 -1091.55,-402.67 -372.71,-189.69 -758.74,-462.57 -1144.78,-735.46 -692.2,-33.28 -1384.39,-66.56 -2076.6,-99.84 212.98,193.02 425.97,386.03 569.06,519.15 143.11,133.12 216.33,206.33 289.53,279.55 -745.44,-113.14 -1490.88,-226.3 -2312.87,-399.35 -821.98,-173.04 -1720.51,-406.01 -2386.08,-635.64 -665.58,-229.61 -1098.19,-455.91 -1264.6,-635.62 -166.39,-179.71 -66.56,-312.81 43.26,-389.35 109.82,-76.54 229.63,-96.52 1011.67,-196.36 782.06,-99.83 2226.36,-279.53 3544.2,-452.57 1317.83,-173.04 2509.23,-339.45 3607.42,-482.55 1098.19,-143.08 2103.22,-262.89 3108.23,-382.69 -499.17,239.61 -998.37,479.22 -1510.86,768.74 -512.47,289.53 -1038.29,628.96 -1564.08,968.41 612.32,179.7 1224.65,359.41 2519.19,312.81 1294.53,-46.58 3271.31,-319.47 4808.77,-402.67 1537.48,-83.18 2635.69,23.3 3657.34,116.49 1021.65,93.18 1966.77,173.06 2602.39,236.29 635.62,63.22 961.76,109.82 1287.89,156.4 -1231.31,86.52 -2462.63,173.04 -3783.8,262.89 -1321.16,89.86 -2732.18,183.05 -4079.98,246.27 -1347.78,63.24 -2632.35,96.52 -3660.66,113.16 -1028.31,16.64 -1800.37,16.64 -2572.43,16.64 -46.6,86.52 -93.18,173.04 -139.78,259.57 845.29,26.62 1690.57,53.26 2665.63,56.58 975.07,3.32 2079.92,-16.64 3560.82,-83.2 1480.9,-66.56 3337.87,-179.7 4868.69,-302.85 1530.82,-123.12 2735.5,-256.23 3547.5,-362.73 812,-106.48 1231.31,-186.37 1650.62,-266.23 -898.52,-99.84 -1797.05,-199.67 -2988.42,-339.45 -1191.37,-139.76 -2675.61,-319.47 -4159.83,-499.18 -1138.13,-113.14 -2276.28,-226.3 -3347.85,-349.43 -1071.57,-123.13 -2076.6,-256.25 -3081.6,-389.35 519.15,-239.61 1038.29,-479.23 1447.62,-678.92 409.33,-199.67 708.84,-359.39 1008.35,-519.13zm-2233.08 109.22c130.24,-147.76 253.89,-288.75 322.37,-372.64 77.79,-95.26 84.43,-116.88 77.77,-132.69 -6.66,-15.81 -26.64,-25.79 -218.82,2.7 -192.17,28.51 -556.56,95.5 -867.94,149.16 -311.36,53.65 -569.7,93.99 -833.02,139.12 -263.32,45.13 -531.64,95.07 -679.11,123.35 -147.46,28.3 -174.1,34.96 -200.72,41.62 119.8,-99.84 239.6,-199.67 435.95,-281.21 196.35,-81.54 469.23,-144.77 698.86,-189.71 229.63,-44.92 415.99,-71.54 602.35,-98.16 -23.3,69.88 -46.58,139.78 -69.88,209.67 216.31,-49.92 432.63,-99.84 564.08,-129.8 131.44,-29.94 178.04,-39.94 218.4,-76.12 40.36,-36.19 74.47,-98.58 98.18,-146.42 23.72,-47.83 37.04,-81.11 -23.3,-93.18 -60.32,-12.06 -194.27,-2.9 -482.55,26.62 -288.28,29.55 -730.9,79.47 -1085.32,119.39 -354.41,39.94 -620.66,69.9 -793.7,99.84 -173.04,29.96 -252.92,59.9 -377.73,148.09 -33.71,23.83 -70.71,51.9 -109.46,82.75 -255.3,41.81 -522.49,86.35 -857.74,146.8 -405.99,73.22 -911.83,169.74 -1249.62,241.29 -337.77,71.56 -507.49,118.14 -677.22,164.74 163.07,-146.42 326.13,-292.87 447.6,-384.39 121.46,-91.51 201.34,-128.12 452.59,-178.05 251.27,-49.9 673.9,-113.14 1096.55,-176.37 -33.28,53.24 -66.56,106.5 -98.18,151.42 -31.6,44.92 -61.56,81.54 -91.5,118.14 242.93,-56.58 485.87,-113.14 633.96,-169.72 148.08,-56.58 201.34,-113.14 247.93,-174.73 46.6,-61.56 86.52,-128.1 84.86,-173.04 -1.66,-44.92 -44.92,-68.22 -94.84,-81.54 -49.92,-13.3 -106.48,-16.64 -474.23,26.62 -367.73,43.28 -1046.61,133.12 -1494.22,198.02 -447.59,64.9 -663.92,104.82 -818.66,143.08 -154.74,38.28 -247.92,74.9 -455.93,241.29 -207.99,166.4 -530.78,462.57 -853.59,758.76 432.63,6.66 865.25,13.3 1178.07,24.94 312.83,11.66 505.83,28.3 698.86,44.94 392.69,-136.45 785.38,-272.89 1173.07,-404.35 301.64,-102.26 600.24,-201.51 898.19,-300.09 -23.62,21.53 -46.79,42.92 -69.09,63.88 -138.1,129.78 -244.59,242.95 -319.47,326.13 -58.26,64.73 -97.39,111.33 -132.26,153.91 392.6,-44.22 785.25,-87.94 1177.96,-131.31l20.89 -4.3c342.77,-71.54 585.71,-164.73 777.06,-239.61 191.35,-74.88 331.13,-131.44 470.89,-188.02l-218.72 316.77c423.42,-46.13 846.9,-91.94 1270.39,-137.6z"/>
    <path class="fil1" d="M13122.68 9305.04c405.86,-89.19 811.72,-178.39 1217.58,-267.59 148.45,-32.62 295.62,42.47 356.34,181.8 9.73,22.34 16.75,45.17 21.15,68.13 170.75,-42.67 341.51,-85.37 512.25,-128.06 31.11,-7.78 58.64,-10.53 90.67,-9.08 591.73,26.87 1183.49,53.71 1775.22,80.58 160.16,7.28 288.02,131.56 299.83,291.43 4.68,63.33 -9.49,123.82 -38.07,175.68 198.27,-69.03 397.45,-137.06 597.81,-199.46 128.91,-40.17 338.01,-109.03 471.51,-108.05 101.94,0.75 191.65,46.71 249.53,125.07 193.81,-104.6 386.99,-210.42 580.19,-316.13 34.03,-18.64 65.94,-29.4 104.31,-35.17 464.23,-69.88 928.49,-139.76 1392.72,-209.65 130.05,-19.58 252.32,38.89 318.73,152.4 66.41,113.5 57.47,248.74 -23.32,352.52 -8.62,11.08 -17.26,22.17 -25.9,33.24 182.87,-44.64 365.6,-89.86 548.53,-134.24 160.33,-38.9 322.64,51.66 373.73,208.53 51.09,156.89 -26.75,325.67 -179.25,388.65 -644.52,266.19 -1311.22,470.25 -1968.64,700.8 -176.82,62.01 -352.88,125.99 -529.47,188.53 -121.97,43.19 -247.42,88.24 -372.44,121.46 -207.2,55.06 -451.82,72.05 -578.89,-144.65 -35.13,-59.88 -49.53,-119.82 -49.43,-178.87 -208.63,91.65 -417.18,183.5 -624,279.19 -140.27,64.92 -278,136.39 -417.93,202.44 -249.83,117.94 -670.01,329.74 -929.28,146.75 -60.45,-42.67 -106.3,-101.43 -130.6,-171.63 -3.74,-10.81 -6.89,-21.53 -9.47,-32.13l-404.52 179.78c-115.78,54.24 -229.66,114.5 -344.5,170.97 -254.44,125.1 -706.61,371.35 -922.66,56.96 -25.36,-36.88 -41.75,-74.62 -50.75,-112.82 -138.82,39.81 -277.71,79.24 -416.67,118.33 -238.34,67.05 -477.25,133.4 -716.99,195.27 -131.07,33.83 -339.64,94.46 -472.87,98.71 -227.78,7.23 -405.92,-119.5 -473.89,-285.51 -353.87,75.32 -705.42,161.48 -1054.48,257.04 -75.16,20.56 -149.71,45.03 -224.57,66.97 -230.95,67.68 -542.49,150.84 -716.54,-79.77 -40.73,-53.98 -63.35,-113.71 -70.69,-175.27 -305,34.36 -610.58,62.77 -917.34,80.92 -453.93,26.87 -906.77,30.58 -1361.3,20.91 -232.38,-4.94 -566.94,22.79 -645.77,-269.66 -11.55,-42.9 -14.19,-84.92 -9.25,-125.16 -235.36,-7.43 -470.68,-16.05 -705.97,-27.09 -358.16,-16.83 -717.01,-38.6 -1073.91,-73.26 -302.15,-29.36 -614.19,-67.06 -910.22,-135.07 -215.99,-49.62 -471.2,-140.31 -478.87,-408.41 -6.36,-222.3 169.63,-336.09 346.6,-413.52 128.69,-56.3 263.47,-103.37 394.46,-154.5 17.55,-6.85 35.07,-13.7 52.6,-20.57 -375.26,-76.45 -750.52,-152.88 -1125.78,-229.32 -154.14,-31.4 -260.21,-168.72 -251.62,-325.79 8.56,-157.06 128.95,-282.04 285.6,-296.47 505.81,-46.6 1011.67,-93.18 1517.5,-139.78 23.47,-2.15 43.69,-1.85 67.11,1 1194.92,146.07 2382.99,235.97 3587.12,244.23 1255.01,8.6 2508.72,-66.21 3759.97,-155.93 123.63,-8.87 234.25,50.07 295.85,157.63 3.15,5.51 6.13,11.08 8.94,16.66z"/>
    <path class="fil0" d="M12905.29 9529.76c-36.6,53.24 -73.2,106.5 -199.67,199.69 -126.45,93.18 -342.77,226.29 -559.08,359.41 -519.34,135.82 -1106.34,316.87 -1637.32,379.37 107.18,-57.71 251.72,-113.52 289.53,-239.6 -971.75,-6.66 -1943.47,-13.3 -2915.22,-19.96 -585.7,173.04 -1171.41,346.09 -1757.11,519.13 26.62,23.3 53.24,46.6 212.97,64.9 774,88.68 1631.23,4.38 2412.73,-44.92 46.58,-13.32 93.18,-26.62 354.41,-38.28 261.25,-11.64 737.12,-21.62 1213.01,-31.6 -93.43,146.76 -583.43,406.07 -848.6,559.08 486.93,47.11 1184.81,-78.67 1677.25,-139.78 169.22,-199.95 324.64,-354.09 519.15,-529.12 -401.8,39.17 -790.13,103.41 -1188.05,169.73 419.95,-270.12 1117.28,-432.24 1617.35,-509.17 219.83,-140.48 439.67,-280.94 659.5,-421.43 572.21,-125.74 1144.39,-251.51 1716.6,-377.26 -259.57,179.7 -519.16,359.41 -778.72,539.11 559.07,-139.76 1118.17,-279.55 1677.25,-419.31 591.73,26.86 1183.48,53.71 1775.22,80.58 -867.96,169.48 -1735.9,338.98 -2603.86,508.46 182.78,-219.5 170.46,-195.61 -257.93,-73.22 -244.59,69.88 -657.24,186.37 -1069.89,302.83 -369.39,242.93 -738.8,485.87 -1108.19,728.8 383.28,-85.18 761.74,-159.95 1148.11,-229.61 64.92,-27.03 363.07,-304.04 888.54,-477.55 456.57,-150.76 2125.92,-421.88 2925.24,-560.74 -178.4,207.56 -363.75,407.71 -549.1,609.02 295.98,-101.9 1768.26,-649.54 1970.11,-648.05l-482.55 548.21c496.49,-246.94 979.46,-511.79 1465.79,-777.95 464.23,-69.88 928.49,-139.76 1392.72,-209.65 -170.78,219.38 -341.58,438.74 -433.63,560.08 -129.84,171.14 -140.29,175.93 57.54,131.59 407.75,-91.35 815.29,-194.55 1221.51,-293.11 -636.7,262.94 -1302.29,466.63 -1952.66,694.71 -415.16,145.6 -706.35,257.06 -878.56,302.81 -335.34,89.11 -244.21,-60.18 -118.98,-245.42 79.88,-118.14 199.69,-287.87 319.49,-457.59 -497.63,238.83 -1004.37,445.93 -1504.22,677.24 -296.08,137.01 -900.71,471.29 -1033.31,377.69 -28.28,-19.96 -18.28,-43.24 23.3,-104.82l407.67 -520.8 -1287.89 572.4c-265.12,123.92 -810.06,433.35 -876.89,336.11 -38.92,-56.64 191.91,-338.73 258.85,-428.27 -307.64,91.09 -1996.83,585.34 -2185.7,591.34 -141.72,4.51 -252.28,-108.39 -114.82,-219.64 69.9,-56.56 206.35,-129.79 342.79,-202.99 -617.22,102.86 -1225.9,239.94 -1829.5,405.18 -239.36,65.54 -700.59,244.85 -603.17,14.15 31.62,-74.86 131.45,-179.7 231.29,-284.53 -1078.32,142.73 -1778.11,195.42 -2828.7,173.04 -530.13,-11.28 -432.31,-6.89 133.12,-372.71 -1030.95,-27.6 -2593.79,-61.09 -3414.41,-249.61 -479.06,-110.05 -147.18,-199.14 306.17,-376.05 272.89,-106.48 652.28,-259.57 1031.65,-412.65 -718.82,-146.42 -1437.64,-292.85 -2156.46,-439.27 505.83,-46.6 1011.67,-93.18 1517.5,-139.78 2762.93,337.73 4605.44,290.77 7407.84,89.8z"/>
    <path class="fil2" d="M12840.41 9444.89c-36.6,53.24 -73.2,106.5 -199.67,199.68 -126.45,93.18 -342.77,226.29 -559.08,359.41 -519.34,135.82 -1106.34,316.86 -1637.32,379.37 107.18,-57.71 251.72,-113.52 289.53,-239.6 -971.75,-6.66 -1943.47,-13.3 -2915.22,-19.96 -585.69,173.04 -1171.41,346.09 -1757.11,519.13 26.62,23.3 53.24,46.6 212.97,64.9 774,88.67 1631.23,4.38 2412.73,-44.92 46.58,-13.32 93.18,-26.62 354.41,-38.28 261.25,-11.64 737.12,-21.62 1213.01,-31.6 -93.43,146.76 -583.43,406.07 -848.6,559.08 486.93,47.11 1184.81,-78.67 1677.25,-139.78 169.22,-199.95 324.64,-354.09 519.15,-529.12 -401.8,39.17 -790.13,103.41 -1188.05,169.72 419.95,-270.11 1117.28,-432.23 1617.34,-509.17 219.84,-140.48 439.67,-280.94 659.51,-421.43 572.21,-125.75 1144.39,-251.51 1716.6,-377.26 -259.57,179.7 -519.16,359.41 -778.72,539.11 559.07,-139.76 1118.17,-279.55 1677.24,-419.31 591.74,26.87 1183.49,53.71 1775.22,80.58 -867.96,169.48 -1735.9,338.98 -2603.86,508.46 182.78,-219.5 170.46,-195.61 -257.93,-73.22 -244.59,69.88 -657.24,186.36 -1069.89,302.83 -369.39,242.93 -738.8,485.88 -1108.19,728.8 383.28,-85.18 761.74,-159.95 1148.11,-229.61 64.92,-27.04 363.07,-304.04 888.54,-477.55 456.57,-150.76 2125.92,-421.88 2925.24,-560.74 -178.4,207.55 -363.75,407.71 -549.1,609.02 295.98,-101.9 1768.26,-649.54 1970.11,-648.05l-482.55 548.21c496.5,-246.94 979.47,-511.79 1465.79,-777.95 464.23,-69.88 928.49,-139.76 1392.72,-209.65 -170.78,219.38 -341.58,438.74 -433.63,560.08 -129.84,171.14 -140.29,175.93 57.54,131.59 407.75,-91.35 815.29,-194.55 1221.51,-293.11 -636.7,262.94 -1302.29,466.63 -1952.66,694.71 -415.16,145.59 -706.35,257.06 -878.57,302.81 -335.33,89.11 -244.21,-60.18 -118.97,-245.42 79.88,-118.14 199.69,-287.87 319.49,-457.59 -497.63,238.83 -1004.36,445.93 -1504.22,677.24 -296.08,137.01 -900.71,471.29 -1033.31,377.69 -28.28,-19.96 -18.28,-43.24 23.3,-104.82l407.67 -520.8 -1287.89 572.4c-265.12,123.91 -810.06,433.35 -876.89,336.11 -38.92,-56.64 191.91,-338.73 258.85,-428.27 -307.64,91.09 -1996.83,585.34 -2185.7,591.34 -141.72,4.51 -252.28,-108.39 -114.82,-219.65 69.9,-56.56 206.35,-129.78 342.79,-202.98 -617.22,102.86 -1225.9,239.94 -1829.5,405.18 -239.36,65.54 -700.59,244.85 -603.17,14.15 31.62,-74.86 131.45,-179.71 231.29,-284.53 -1078.32,142.73 -1778.11,195.42 -2828.7,173.04 -530.13,-11.28 -432.31,-6.89 133.12,-372.71 -1030.95,-27.6 -2593.79,-61.09 -3414.41,-249.61 -479.06,-110.05 -147.18,-199.14 306.17,-376.05 272.89,-106.48 652.28,-259.57 1031.65,-412.65 -718.82,-146.42 -1437.64,-292.85 -2156.46,-439.27 505.83,-46.6 1011.67,-93.18 1517.5,-139.78 2762.93,337.73 4605.44,290.78 7407.84,89.81z"/>
    <path class="fil0" d="M13377.54 1030.44c-368.54,-30.15 -717.97,-57.75 -963.8,-74.99 -507.06,-35.58 -573.39,-27.03 -609.13,3.92 -94.77,98.73 79.85,179.18 155.71,219.14 203.87,107.39 744.55,366.96 632.54,665.86 -70.01,186.78 -431.93,158.59 -597.88,154.82 -301.62,-6.89 -605.09,-33.75 -905.79,-58.82 -217.89,-18.09 -435.63,-38.05 -653.43,-57.22 -487.53,-42.81 -1077.91,2.47 -1572.48,34.36 -133.31,8.59 -261.08,18.3 -392.43,43.75 -252.19,76.73 -427.8,356.52 -407.88,614 11.32,146.22 54.81,377.03 -66.83,467.76 -332.13,247.78 -1145.11,303.02 -1570.44,364.66 -736.86,108.03 -1473.43,217.46 -2209.59,330.13 -1199.96,183.82 -2406.29,377.77 -3112.3,487.65 -706.01,109.9 -911.69,135.71 -1017.38,165.33 -105.69,29.64 -111.41,63.09 -33.77,100.82 297.55,144.67 3119.23,382.54 4071.46,463.97 2575.79,220.32 5728.12,392.61 8339.74,472.93 1296.18,39.85 2215.25,47.11 2811.1,43.54 595.81,-3.55 868.39,-17.91 1044.81,-19.58 222.21,-2.11 379.37,7.45 421.54,191.12 66.67,290.34 -188.42,357.05 -335.04,512.21 -48.49,51.32 -67.15,98.47 426.61,134.41 1860.25,135.44 4455.55,-108.52 6581.03,-615.87 1329.34,-317.32 2615.2,-759.89 3645.3,-1181.9 704.25,-292.09 1418.98,-631.34 2111.35,-954.58 341.19,-159.25 740.61,-391.07 673.41,-834.98 -56.68,-374.39 -613.45,-356.58 -900.24,-377.24 -590.35,-48.13 -1190,-120.78 -1783.52,-173.27 -1227.33,-107.12 -2463.29,-170.8 -3687.36,-282.02 -305.15,-27.71 -704.93,-42.45 -765.32,-400.92 -35.81,-255.23 -31.47,-679.52 -265.46,-823.33 -391.44,-240.57 -1934.02,-128.56 -2476.21,-183.7 -513.95,-52.28 -299.45,-394.8 -1126.64,-433.88 -495.51,-23.41 -1021.27,-20.96 -1520.39,-26.17 -281.36,-2.72 -577.68,-7.78 -858.19,17.22 -241.3,21.49 -389.03,82.75 -600.87,204.35 -316.26,183.57 -557.3,320.26 -830.45,570.07 -486.55,445.03 -726.22,332.37 -1332.82,266.89 -106.16,-11.45 -212.59,-21.3 -318.98,-30.43z"/>
    <path class="fil1" d="M13131.95 1253.49c2362.36,186.12 4724.7,372.22 6700.43,542.64 1975.71,170.44 3564.79,325.19 4780.09,447.24 1215.27,122.05 2056.77,211.42 2764.36,274.6 707.57,63.2 1281.25,100.23 1588.71,141.44 307.46,41.23 348.68,86.69 359.9,129.65 11.2,42.96 -7.64,83.43 -288.62,271.17 -281.01,187.74 -824.16,522.73 -1897.4,949.3 -1073.24,426.57 -2676.56,944.74 -4119.1,1261.92 -1442.56,317.17 -2724.36,433.39 -3551.71,490.1 -827.37,56.73 -1200.33,53.99 -1573.26,51.22 356.25,-116.61 712.5,-233.25 1079.71,-433.41 367.19,-200.16 745.34,-483.87 1123.49,-767.58 690.98,-52.87 1381.96,-105.73 2072.94,-158.59 -207.44,198.98 -414.87,397.93 -554.13,535.06 -139.28,137.12 -210.4,212.37 -281.5,287.63 741.94,-134.21 1483.88,-268.43 2300.63,-464.67 816.75,-196.25 1708.32,-454.56 2367.14,-702.94 658.81,-248.36 1084.84,-486.82 1246.09,-671.17 161.23,-184.34 57.68,-314.57 -54.26,-387.97 -111.95,-73.4 -232.27,-89.98 -1016.82,-167.65 -784.58,-77.64 -2233.38,-216.38 -3555.59,-352.05 -1322.21,-135.67 -2517.84,-268.27 -3619.64,-380.23 -1101.8,-111.94 -2109.82,-203.24 -3117.81,-294.54 505.76,225.38 1011.53,450.76 1532.02,725.66 520.46,274.9 1055.68,599.31 1590.87,923.74 -606.99,196.97 -1213.99,393.94 -2509.32,384.01 -1295.34,-9.92 -3279.04,-226.73 -4818.25,-266.37 -1539.22,-39.62 -2633.97,97.91 -3652.58,219.98 -1018.6,122.07 -1961.09,228.68 -2594.66,309.87 -633.57,81.19 -958.27,137.01 -1282.95,192.8 1233.27,51.63 2466.54,103.25 3789.73,155.66 1323.17,52.42 2736.26,105.62 4085.31,130.66 1349.03,25.06 2634.03,21.96 3662.4,9.48 1028.37,-12.48 1800.12,-34.34 2571.87,-56.2 49.03,85.17 98.04,170.34 147.08,255.51 -844.19,50.54 -1688.38,101.1 -2662.96,132.03 -974.58,30.93 -2079.56,42.25 -3561.75,17.65 -1482.19,-24.61 -3341.62,-85.13 -4875.32,-164.88 -1533.69,-79.74 -2741.66,-178.68 -3556.35,-262.15 -814.69,-83.45 -1236.1,-151.43 -1657.5,-219.39 895.34,-125.24 1790.68,-250.47 2977.62,-423.92 1186.94,-173.44 2665.49,-395.09 4144.03,-616.75 1134.47,-145.32 2268.96,-290.66 3336.62,-444.07 1067.65,-153.41 2068.51,-314.94 3069.34,-476.44 -525.73,-224.81 -1051.44,-449.64 -1466.26,-637.66 -414.82,-188 -718.73,-339.18 -1022.64,-490.38z"/>
    <path class="fil1" d="M21955.06 1674.12c151.31,-126.09 295.08,-246.5 375.6,-318.92 91.45,-82.23 101.32,-102.58 97.16,-119.23 -4.16,-16.64 -22.38,-29.56 -216.65,-30.81 -194.28,-1.23 -564.63,9.22 -880.55,14.59 -315.9,5.38 -577.37,5.72 -844.5,10.02 -267.13,4.31 -539.93,12.6 -689.98,17.98 -150.05,5.4 -177.4,7.91 -204.72,10.41 133.67,-80.33 267.33,-160.65 473.85,-211.19 206.51,-50.54 485.86,-71.26 719.66,-80.53 233.79,-9.26 422.04,-7.05 610.28,-4.84 -33.72,65.49 -67.42,131.01 -101.14,196.5 221.4,-16.24 442.81,-32.47 577.29,-41.96 134.48,-9.48 182.06,-12.23 227.48,-41.81 45.42,-29.58 88.67,-86.02 119.43,-129.68 30.75,-43.64 49.01,-74.48 -8.77,-95.65 -57.76,-21.14 -191.54,-32.6 -480.94,-47.53 -289.41,-14.92 -734.45,-33.31 -1090.81,-48.09 -356.35,-14.76 -624.04,-25.89 -799.63,-22.78 -175.59,3.13 -259.11,20.49 -395.94,88.54 -36.96,18.39 -77.82,40.47 -120.84,65.02 -258.69,2.25 -529.55,5.39 -870.09,13.83 -412.42,10.24 -927.06,28.22 -1271.82,47.24 -344.74,19.03 -519.6,39.1 -694.45,59.18 183.55,-119.75 367.1,-239.52 501.14,-311.38 134.03,-71.84 218.58,-95.81 474.5,-106.7 255.94,-10.87 683.28,-8.7 1110.62,-6.5 -41.04,47.52 -82.07,95.07 -120.2,134.62 -38.1,39.56 -73.32,71.16 -108.5,102.75 248.72,-18.74 497.46,-37.47 652.46,-70.72 155,-33.25 216.29,-81 271.74,-134.73 55.47,-53.71 105.11,-113.36 110.34,-158.02 5.23,-44.64 -33.95,-74.29 -81.25,-95.09 -47.3,-20.78 -102.68,-32.74 -472.72,-46.26 -370.02,-13.5 -1054.66,-28.59 -1506.93,-32.94 -452.25,-4.35 -672.14,2 -830.92,16.13 -158.78,14.15 -256.47,36.08 -487.48,168.68 -231,132.62 -595.31,375.91 -959.63,619.21 426.52,72.78 853.02,145.54 1160.38,204.91 307.36,59.39 495.55,105.36 683.75,151.35 408.95,-74.75 817.89,-149.5 1221.13,-220.09 313.73,-54.9 624.01,-107.29 933.52,-159.12 -26.64,17.66 -52.8,35.26 -78.05,52.56 -156.34,107.12 -278.88,202.66 -365.61,273.41 -67.48,55.06 -113.28,95.12 -154.25,131.86 394.74,16.37 789.46,33.25 1184.18,50.48l21.3 -1.05c349.68,-18.25 604.02,-73.16 804.57,-117.88 200.55,-44.72 347.34,-79.23 494.12,-113.76l-264.61 279.57c425.5,19.2 851,38.73 1276.48,58.41z"/>
    <path class="fil1" d="M17830.16 2648.7c408.95,-73.71 817.91,-147.43 1226.86,-221.16 149.58,-26.96 293.8,53.67 349.18,195.2 8.88,22.69 15.03,45.77 18.55,68.88 172.24,-36.16 344.5,-72.34 516.74,-108.52 31.38,-6.59 58.99,-8.29 90.95,-5.62 590.29,49.31 1180.59,98.61 1770.88,147.92 159.77,13.36 282.82,142.4 288.55,302.61 2.27,63.47 -14.18,123.37 -44.72,174.11 200.75,-61.46 402.36,-121.88 604.95,-176.61 130.35,-35.25 341.91,-96.12 475.28,-90.07 101.84,4.62 189.74,53.95 244.6,134.45 197.65,-97.16 394.71,-195.57 591.77,-293.87 34.72,-17.34 67.01,-26.87 105.58,-31.18 466.55,-52.21 933.12,-104.41 1399.67,-156.62 130.7,-14.63 250.66,48.44 312.72,164.4 62.05,115.94 47.98,250.74 -36.69,351.39 -9.04,10.74 -18.09,21.49 -27.15,32.23 184.44,-37.66 368.75,-75.91 553.23,-113.31 161.69,-32.79 320.44,63.87 365.54,222.57 45.1,158.72 -39.1,324.43 -193.88,381.57 -654.16,241.53 -1328.12,420.13 -1993.83,625.55 -179.05,55.26 -357.41,112.5 -536.25,168.3 -123.53,38.52 -250.59,78.78 -376.79,107.24 -209.14,47.15 -454.23,54.84 -572.98,-166.53 -32.83,-61.18 -44.94,-121.62 -42.6,-180.62 -211.96,83.67 -423.85,167.53 -634.15,255.3 -142.64,59.55 -282.98,125.73 -425.32,186.42 -254.13,108.37 -682.05,304.06 -934.18,111.36 -58.78,-44.94 -102.37,-105.39 -123.98,-176.46 -3.32,-10.94 -6.06,-21.77 -8.25,-32.47l-411.05 164.29c-117.76,49.8 -233.85,105.7 -350.75,157.77 -259,115.35 -720.2,344.25 -924.15,21.88 -23.94,-37.82 -38.89,-76.15 -46.43,-114.67 -140.23,34.51 -280.53,68.64 -420.86,102.43 -240.72,57.95 -481.97,115.19 -723.88,167.9 -132.26,28.83 -342.98,81.5 -476.28,80.68 -227.89,-1.43 -401.09,-134.83 -462.71,-303.3 -356.47,61.83 -711.05,134.58 -1063.47,216.82 -75.89,17.7 -151.31,39.32 -226.95,58.4 -233.35,58.86 -547.83,130.13 -712.99,-106.92 -38.65,-55.48 -58.99,-116.03 -63.99,-177.83 -306.08,22.75 -612.53,39.54 -919.75,46.03 -454.63,9.61 -907.28,-3.87 -1361.12,-30.8 -232.03,-13.76 -567.4,1.25 -635.07,-293.98 -9.91,-43.31 -10.95,-85.4 -4.49,-125.42 -234.91,-16.36 -469.74,-33.92 -704.43,-53.88 -357.27,-30.42 -715.03,-65.79 -1070.35,-113.98 -300.82,-40.81 -611.2,-90.32 -904.44,-169.53 -213.95,-57.78 -465.53,-158.1 -463.02,-426.29 2.09,-222.39 182.27,-329.41 362.05,-400.06 130.73,-51.37 267.21,-93.29 400.04,-139.41 17.79,-6.18 35.57,-12.35 53.34,-18.55 -372.09,-90.64 -744.17,-181.26 -1116.26,-271.91 -152.84,-37.22 -253.62,-178.48 -239.07,-335.11 14.52,-156.63 139.57,-276.94 296.66,-285.41 507.22,-27.36 1014.48,-54.7 1521.71,-82.07 23.54,-1.26 43.74,-0.19 67.03,3.55 1188.51,191.33 2372.31,326.28 3575.26,380.25 1253.78,56.25 2509.42,29.1 3763.18,-13.06 123.88,-4.17 232.18,58.93 289.65,168.75 2.94,5.62 5.71,11.3 8.3,16.99z"/>
    <path class="fil0" d="M17604.4 2865.01c-38.59,51.81 -77.19,103.65 -207.1,191.96 -129.89,88.31 -351.12,213.11 -572.32,337.92 -524.13,116 -1117.57,274.63 -1650.55,316.93 109.3,-53.6 255.85,-103.88 298.42,-228.44 -970.8,-43.55 -1941.57,-87.08 -2912.36,-130.63 -591.85,150.68 -1183.71,301.36 -1775.55,452.05 25.72,24.3 51.43,48.59 210.35,72.94 770.08,118 1629.89,66.31 2412.69,46.72 47.05,-11.54 94.13,-23.06 355.61,-24.8 261.5,-1.71 737.41,6.38 1213.34,14.48 -98.93,143.11 -598.43,383.62 -869.22,526.45 484.79,65.56 1186.94,-33.63 1681.35,-76 176.69,-193.38 337.85,-341.51 538.87,-509.02 -403,23.88 -793.49,73.33 -1193.64,124.49 429.9,-253.98 1132.89,-389.5 1635.51,-447.4 225.01,-132.03 450.02,-264.05 675.03,-396.08 576.57,-103.93 1153.12,-207.88 1729.69,-311.81 -266.21,169.72 -532.43,339.44 -798.63,509.16 563.98,-118.44 1127.98,-236.89 1691.96,-355.33 590.29,49.31 1180.59,98.61 1770.88,147.92 -873.77,136.4 -1747.52,272.82 -2621.29,409.22 190.98,-212.4 177.76,-189 -254.96,-82.96 -247.07,60.54 -663.84,161.28 -1080.62,261.99 -378.35,228.72 -756.72,457.47 -1135.06,686.2 386.23,-70.57 767.26,-130.91 1156,-185.85 65.9,-24.55 374.35,-290.03 906.04,-443.47 461.97,-133.32 2140.4,-340.86 2944.42,-449.27 -186.15,200.63 -378.97,393.61 -571.82,587.73 299.64,-90.59 1791.65,-581.94 1993.3,-572.78l-503.02 529.49c505.51,-227.92 998.19,-474.24 1494.27,-721.73 466.55,-52.21 933.12,-104.41 1399.68,-156.61 -178.99,212.74 -357.99,425.46 -454.58,543.21 -136.25,166.09 -146.87,170.48 52.51,133.68 410.92,-75.8 822.08,-163.45 1231.75,-246.52 -646.22,238.58 -1319.07,416.84 -1977.63,620.06 -420.39,129.73 -715.6,230.05 -889.43,269.24 -338.48,76.31 -241.75,-69.42 -109.57,-249.76 84.31,-115.02 210.47,-280.08 336.63,-445.13 -506.34,219.77 -1020.57,407.48 -1528.85,619.64 -301.06,125.67 -917.96,436.75 -1046.9,338.19 -27.5,-21.02 -16.63,-43.91 27.26,-103.86l427.15 -504.94 -1308.7 523.08c-269.63,113.76 -825.93,402.28 -889.02,302.57 -36.74,-58.07 204.64,-331.2 274.92,-418.13 -310.87,79.34 -2017.61,509.1 -2206.58,507.92 -141.79,-0.88 -247.99,-117.89 -106.4,-223.85 72,-53.87 211.13,-121.86 350.25,-189.82 -620.68,79.35 -1234.12,193.23 -1843.56,335.42 -241.68,56.41 -709.39,218.07 -603.27,-8.76 34.44,-73.61 138.17,-174.59 241.92,-275.54 -1082.96,101.68 -1784.25,127.77 -2833.23,65.52 -529.32,-31.4 -431.74,-23.29 147.18,-367.38 -1029.16,-66.73 -2589.6,-159.53 -3402.47,-379.07 -474.54,-128.16 -139.51,-204.58 320.23,-364.15 276.73,-96.04 661.66,-234.61 1046.57,-373.18 -712.74,-173.61 -1425.48,-347.22 -2138.23,-520.83 507.24,-27.36 1014.48,-54.7 1521.72,-82.06 2748.11,442.39 4591.09,465.42 7399.09,371.01z"/>
    <path class="fil2" d="M17542.79 2777.75c-38.6,51.81 -77.2,103.65 -207.1,191.96 -129.89,88.31 -351.12,213.11 -572.32,337.92 -524.12,116 -1117.57,274.63 -1650.55,316.93 109.3,-53.6 255.85,-103.88 298.42,-228.44 -970.79,-43.55 -1941.57,-87.08 -2912.36,-130.63 -591.84,150.68 -1183.71,301.36 -1775.55,452.05 25.72,24.29 51.43,48.59 210.35,72.94 770.08,118 1629.89,66.31 2412.69,46.72 47.05,-11.54 94.13,-23.06 355.61,-24.79 261.5,-1.71 737.41,6.38 1213.34,14.48 -98.93,143.11 -598.43,383.62 -869.22,526.46 484.79,65.56 1186.94,-33.63 1681.34,-76 176.69,-193.38 337.85,-341.51 538.87,-509.02 -403,23.89 -793.49,73.33 -1193.64,124.49 429.91,-253.97 1132.89,-389.5 1635.51,-447.4 225.01,-132.03 450.02,-264.05 675.03,-396.08 576.57,-103.93 1153.12,-207.88 1729.69,-311.81 -266.2,169.72 -532.42,339.44 -798.63,509.16 563.98,-118.44 1127.98,-236.89 1691.96,-355.33 590.28,49.31 1180.59,98.61 1770.88,147.92 -873.77,136.4 -1747.52,272.83 -2621.29,409.23 190.98,-212.4 177.76,-189 -254.96,-82.96 -247.06,60.54 -663.84,161.27 -1080.62,261.99 -378.35,228.73 -756.71,457.47 -1135.06,686.2 386.24,-70.57 767.26,-130.91 1156,-185.85 65.9,-24.55 374.35,-290.03 906.04,-443.47 461.97,-133.32 2140.4,-340.85 2944.42,-449.26 -186.16,200.63 -378.97,393.6 -571.82,587.73 299.63,-90.59 1791.64,-581.94 1993.3,-572.78l-503.02 529.49c505.52,-227.92 998.19,-474.24 1494.27,-721.73 466.55,-52.21 933.12,-104.41 1399.67,-156.62 -178.99,212.74 -357.99,425.46 -454.58,543.21 -136.24,166.09 -146.87,170.48 52.51,133.69 410.92,-75.8 822.08,-163.46 1231.75,-246.52 -646.22,238.58 -1319.07,416.85 -1977.63,620.07 -420.39,129.73 -715.6,230.05 -889.43,269.23 -338.48,76.31 -241.75,-69.41 -109.57,-249.76 84.31,-115.03 210.47,-280.08 336.63,-445.13 -506.34,219.77 -1020.57,407.48 -1528.85,619.64 -301.06,125.67 -917.96,436.75 -1046.91,338.18 -27.5,-21.02 -16.63,-43.91 27.26,-103.86l427.15 -504.94 -1308.7 523.08c-269.63,113.76 -825.93,402.28 -889.01,302.57 -36.74,-58.07 204.63,-331.2 274.92,-418.14 -310.88,79.34 -2017.61,509.1 -2206.58,507.93 -141.8,-0.88 -247.99,-117.89 -106.4,-223.85 72,-53.87 211.13,-121.86 350.25,-189.83 -620.69,79.35 -1234.13,193.23 -1843.57,335.43 -241.68,56.4 -709.39,218.07 -603.27,-8.76 34.44,-73.61 138.18,-174.59 241.93,-275.54 -1082.97,101.68 -1784.25,127.77 -2833.23,65.52 -529.33,-31.4 -431.74,-23.29 147.18,-367.39 -1029.16,-66.73 -2589.6,-159.53 -3402.48,-379.07 -474.54,-128.16 -139.51,-204.58 320.23,-364.15 276.73,-96.04 661.66,-234.62 1046.57,-373.18 -712.74,-173.61 -1425.48,-347.22 -2138.23,-520.83 507.24,-27.36 1014.48,-54.7 1521.71,-82.06 2748.12,442.39 4591.09,465.42 7399.1,371.01z"/>
   </g>
  </svg>
  