<?xml version="1.0" encoding="UTF-8"?>
<!DOCTYPE svg PUBLIC "-//W3C//DTD SVG 1.1//EN" "http://www.w3.org/Graphics/SVG/1.1/DTD/svg11.dtd">
<!-- Creator: CorelDRAW -->
<svg xmlns="http://www.w3.org/2000/svg" xml:space="preserve" width="1178.99mm" height="539.232mm" version="1.1" style="shape-rendering:geometricPrecision; text-rendering:geometricPrecision; image-rendering:optimizeQuality; fill-rule:evenodd; clip-rule:evenodd"
viewBox="0 0 39029.94 17851.11"
 xmlns:xlink="http://www.w3.org/1999/xlink"
 xmlns:xodm="http://www.corel.com/coreldraw/odm/2003">
 <defs>
  <style type="text/css">
   <![CDATA[
    .fil1 {fill:black}
    .fil0 {fill:#D9D9D9}
    .fil2 {fill:red}
   ]]>
  </style>
 </defs>
 <g id="Camada_x0020_1">
  <metadata id="CorelCorpID_0Corel-Layer"/>
  <path class="fil0" d="M13422.81 8309.73c295.92,93.27 591.84,186.53 887.76,279.8 75.56,23.81 156.03,47.09 229.46,76.54 79.7,31.96 148.84,79.1 166.2,170.32 12.14,63.76 -7.44,112.15 -36.96,165.84 -55.99,101.82 -111.96,203.65 -167.95,305.46 -14.91,27.11 -29.66,50.04 -52.52,71.63 -91.62,86.53 -215.35,63 -325.87,38.49 -216.48,-48.03 -437.69,-114.84 -651.59,-174.23 -1061.88,-294.86 -2123.77,-589.71 -3185.65,-884.57 -154.53,-42.91 -313.57,-84.41 -465.59,-135.18 -116.66,-38.95 -270.81,-96.5 -262.79,-248.56 4.49,-85.12 61.91,-143.09 135.64,-175.22 40.96,-17.85 86.86,-29.83 130.28,-40.14 134.41,-31.91 274.58,-54.76 410.65,-79.18 972.49,-174.54 1944.98,-349.06 2917.47,-523.59 0.21,-0.04 0.42,-0.08 0.64,-0.12 -630.73,-172.77 -1261.47,-345.55 -1892.21,-518.32 -152.94,-41.89 -305.86,-83.83 -458.81,-125.71 -124.92,63.46 -249.82,126.94 -374.74,190.41 -576.55,292.95 -1153.11,585.91 -1729.66,878.85 -153.31,77.9 -363.23,199.56 -537.87,203.77 -109.71,2.65 -219.37,-33.86 -323.26,-65.39 -405.62,-123.06 -811.24,-246.12 -1216.85,-369.18 -101.37,-30.75 -202.72,-61.58 -304.11,-92.27l-404 -122.3 377.94 -187.97c154.88,-77.03 309.78,-154.04 464.67,-231.06 619.55,-308.08 1239.1,-616.14 1858.65,-924.22 25.9,-12.87 51.88,-25.72 77.85,-38.63 -398.57,-113.8 -797.14,-227.6 -1195.71,-341.4 -77.11,-22.01 -156.82,-43.26 -232.65,-69.17 -91.23,-31.18 -176.27,-82.37 -175.88,-194.55 0.31,-91 57.93,-139.72 128.21,-179.58 104.73,-59.38 209.46,-118.75 314.18,-178.13 24.06,-13.64 46.93,-25.94 73.33,-34.85 69.66,-23.51 135.49,-15.29 205.46,0.65 103.12,23.49 208.66,57.37 310.18,87.45 820.6,243.17 1643.59,475.27 2469.27,700.7 1393.04,380.33 2789.93,748.17 4186.22,1116.39 317.27,83.67 634.5,167.46 951.8,251l223.36 58.81 -125.29 194c-25.75,39.98 -51.43,79.96 -77.15,119.96 -103.07,160.25 -206.15,320.49 -309.22,480.74 -25.29,39.33 -49.38,76.2 -83.77,108.59 -56.27,53 -122.78,78.38 -196.18,97.96 -103.55,27.63 -214.54,46.3 -319.93,66.41 -471,89.91 -942,179.83 -1413,269.73z"/>
  <path class="fil0" d="M5400.2 5911.33c82.95,-111.28 272.25,-126.89 397.22,-139.37 266.72,-26.65 545.44,-32.4 813.61,-40.64 152.83,-4.69 305.67,-8.77 458.51,-13.26 275.46,-8.09 550.75,-17.96 826.07,-29.74 23.08,-0.98 46.52,-2.2 69.61,-1.52 79.45,2.34 151.22,39.75 177.97,121.26 27.81,84.72 -11.61,160.29 -79.28,207.69 -24.28,17.01 -51.25,31.87 -77.31,45.98 -95.07,51.48 -193.24,99.53 -289.84,148.16 -557.54,280.63 -1115.08,561.24 -1672.62,841.87 -96.2,48.42 -196.88,102.1 -296.47,142.71 -92.32,37.65 -193.09,60.58 -279.94,-6.75 -83.87,-65.02 -86.83,-160.57 -89.33,-256.21 -1.46,-55.82 -3.02,-111.75 -4.56,-167.75 -7.6,76.28 -26.48,149.66 -91.3,202.28 -118.55,96.26 -297.93,28.6 -428.39,-7.36 -403.01,-111.09 -806.03,-222.18 -1209.05,-333.28 -77.98,-21.49 -161.51,-42.3 -237.39,-69.98 -71.58,-26.11 -133.37,-62.45 -166.8,-134.77 -18.65,-40.34 -21.67,-76.91 -22.38,-120.13 -1.2,-72.73 -2.39,-145.47 -3.59,-218.2 -7.36,1.42 -14.25,2.73 -20.43,3.82 -285.05,50.33 -570.11,100.65 -855.16,150.98 -74.4,13.14 -150.97,28.15 -226.77,26.97 -113.13,-1.75 -240.1,-42.54 -348.77,-72.73 -383.73,-106.61 -767.46,-213.22 -1151.19,-319.83 -123.53,-34.32 -322.82,-67.11 -315.85,-238.77 3.52,-86.55 63.98,-144.01 141.06,-168.78 31.67,-10.18 65.84,-16.63 98.59,-22.36 108.44,-18.97 219.49,-32.47 328.63,-47.17 690.35,-93.02 1380.7,-186.05 2071.05,-279.08 57.78,-7.79 297.23,-34.78 381.89,-60.9 1.28,-14.95 1.72,-31.44 2.36,-42.23 15.07,-252.49 30.14,-504.99 45.21,-757.48 1.5,-25.22 5.89,-67.97 5.97,-100.73 -0.24,-0.18 -0.47,-0.36 -0.71,-0.54 -94.88,-72.92 -189.79,-145.83 -284.67,-218.74 -72.11,-55.41 -131.55,-125.43 -90.75,-229.14 32.1,-81.6 110.2,-115.84 191.47,-107.48 24.09,2.48 48.54,7.47 72.22,12.48 85.22,18.05 170.49,39.45 255.22,59.79 483.23,116.04 966.58,231.76 1449.45,349.29 116.04,28.24 232.26,56.37 347.96,86.02 28.7,7.35 57.87,14.62 86.14,23.53 26.62,8.39 49.59,20.45 70.53,39.39 79.78,72.14 59.23,161.27 43.81,251.63 -15.37,90.08 -30.74,180.15 -46.11,270.23 497.08,-55.71 994.78,-107.63 1492.12,-160.18 90.2,-9.53 182.15,-20.61 272.64,-25.97 103.83,-6.14 218.65,4.71 257.54,124.95 48.92,151.25 -101.43,232.95 -202.76,299.92 -277.57,183.45 -555.14,366.9 -832.71,550.35 -214.77,141.94 -248.98,159.91 -502.99,194.07 -173.81,23.38 -347.61,46.75 -521.42,70.12 -1.88,27.33 -2.45,56.97 -3.43,75.38 -1.64,30.74 -3.27,61.48 -4.91,92.23z"/>
  <path class="fil1" d="M4953.78 4166.38c-374.46,-91.15 -1090.78,-263.17 -1448.95,-349.17 -358.16,-86.01 -358.16,-86.01 -287,-31.32 71.17,54.69 213.52,164.05 284.67,218.74 71.17,54.69 71.17,54.69 59.87,244.06 -11.31,189.37 -33.91,568.11 -45.21,757.48 -11.31,189.37 -11.31,189.37 -529.07,259.14 -517.76,69.76 -1553.28,209.3 -2071.05,279.07 -517.76,69.76 -517.76,69.76 -229.97,149.72 287.8,79.95 863.4,239.87 1151.19,319.82 287.8,79.95 287.8,79.95 501.59,42.2 213.79,-37.75 641.37,-113.23 855.16,-150.98 213.79,-37.75 213.79,-37.75 215.15,45.12 1.36,82.85 4.09,248.58 5.45,331.44 1.36,82.85 1.36,82.85 303.62,166.17 302.27,83.31 906.79,249.95 1209.05,333.28 302.27,83.31 302.27,83.31 313.66,-130.75 11.39,-214.06 34.15,-642.18 45.54,-856.24 11.39,-214.06 11.39,-214.06 159.55,-236.62 148.18,-22.56 444.54,-67.69 592.71,-90.25 148.18,-22.56 148.18,-22.56 343.15,-152.87 194.97,-130.3 584.92,-390.9 779.9,-521.2 194.97,-130.3 194.97,-130.3 -149.13,-96.45 -344.1,33.83 -1032.3,101.5 -1376.41,135.35 -344.1,33.83 -344.1,33.83 -327.39,-64.15 16.71,-97.98 50.16,-293.95 66.87,-391.93 16.72,-97.98 16.72,-97.98 0.41,-103.12 -16.3,-5.14 -48.89,-15.41 -423.36,-106.55zm5637.68 1525.31c-1332.07,-363.69 -2092.52,-589.03 -2472.74,-701.69 -380.22,-112.68 -380.22,-112.68 -458.77,-68.14 -78.54,44.54 -235.63,133.59 -314.18,178.13 -78.54,44.54 -78.54,44.54 243.68,136.54 322.23,91.99 966.68,275.99 1288.89,368 322.23,91.99 322.23,91.99 -142.43,323.05 -464.65,231.05 -1393.99,693.16 -1858.65,924.22 -464.65,231.05 -464.65,231.05 -464.65,231.05 0,0 0,0 304.21,92.3 304.22,92.29 912.64,276.88 1216.85,369.19 304.22,92.29 304.22,92.29 736.64,-127.42 432.42,-219.71 1297.25,-659.14 1729.66,-878.86 432.42,-219.71 432.42,-219.71 432.42,-219.71 0,0 0,0 521.25,142.79 521.26,142.78 1563.77,428.34 2085.02,571.13 521.26,142.78 521.26,142.78 521.26,142.78 0,0 0,0 -729.37,130.91 -729.36,130.9 -2188.1,392.69 -2917.47,523.59 -729.36,130.9 -729.36,130.9 67.05,352.04 796.41,221.15 2389.24,663.42 3185.65,884.57 796.41,221.15 796.41,221.15 838.4,144.79 41.99,-76.37 125.96,-229.11 167.95,-305.46 41.99,-76.37 41.99,-76.37 -262.29,-172.26 -304.27,-95.91 -912.81,-287.71 -1217.09,-383.6 -304.27,-95.91 -304.27,-95.91 108.84,-174.76 413.11,-78.86 1239.32,-236.59 1652.43,-315.44 413.11,-78.87 413.11,-78.87 490.41,-199.05 77.31,-120.19 231.92,-360.56 309.22,-480.74 77.31,-120.19 77.31,-120.19 77.31,-120.19 0,0 0,0 -951.86,-251.01 -951.85,-251.03 -2855.55,-753.07 -4187.63,-1116.76zm-3467.39 177.74c-417.81,12.27 -979.76,25.11 -1260.37,53.14 -280.61,28.04 -279.9,71.27 -285.09,83.97 -5.2,12.7 -16.3,-5.14 -17.01,171.45 -0.7,176.58 9,547.58 13.85,733.08 4.85,185.5 4.85,185.5 423.01,-24.97 418.16,-210.47 1254.47,-631.4 1672.62,-841.87 418.16,-210.47 418.16,-210.47 281.31,-204.62 -136.83,5.85 -410.5,17.54 -828.31,29.81z"/>
  <path class="fil0" d="M35692.97 5579.29c302.5,-68.99 605,-137.99 907.51,-206.98 77.24,-17.62 158.45,-38.18 236.7,-49.86 84.93,-12.68 168.41,-6.93 229.48,63.03 42.68,48.9 50.23,100.55 51.88,161.8 3.11,116.15 6.25,232.31 9.36,348.46 0.83,30.92 -0.31,58.17 -9.14,88.35 -35.36,120.96 -154.03,163.16 -261.79,197.83 -211.09,67.9 -435.75,122 -650.35,178.79 -1065.38,281.94 -2130.77,563.9 -3196.15,845.84 -155.04,41.03 -313.26,85.56 -470.11,118.54 -120.36,25.31 -282.47,53.51 -352.36,-81.77 -39.12,-75.72 -18.85,-154.75 28.55,-219.74 26.33,-36.09 59.89,-69.62 92.16,-100.45 99.88,-95.44 209.3,-185.97 314.4,-275.78 751.12,-641.89 1502.24,-1283.77 2253.36,-1925.66 0.16,-0.14 0.33,-0.28 0.49,-0.42 -631.62,169.51 -1263.24,339.03 -1894.86,508.54 -153.15,41.1 -306.32,82.16 -459.47,123.29 -75.74,117.87 -151.48,235.75 -227.22,353.63 -349.6,544.08 -699.19,1088.15 -1048.79,1632.23 -92.96,144.67 -212.67,355.71 -361.26,447.56 -93.35,57.7 -206.43,81.59 -312.01,106.87 -412.23,98.69 -824.45,197.39 -1236.68,296.08 -103.02,24.67 -206.06,49.26 -309.07,73.99l-410.44 98.54 231.21 -353.14c94.76,-144.72 189.53,-289.43 284.3,-434.14 379.07,-578.85 758.13,-1157.69 1137.19,-1736.54 15.85,-24.2 31.78,-48.4 47.66,-72.66 -401.46,103.13 -802.93,206.26 -1204.39,309.39 -77.67,19.95 -157.19,41.88 -235.72,57.83 -94.48,19.18 -193.74,17.95 -250.06,-79.05 -45.7,-78.7 -20.59,-149.85 19.94,-219.75 60.38,-104.15 120.78,-208.29 181.16,-312.44 13.87,-23.92 27.4,-46.09 45.68,-67.12 48.24,-55.48 109.21,-81.63 177.64,-103.23 100.86,-31.82 209.06,-55.89 311.87,-81.21 831.04,-204.68 1658.55,-420.1 2485.01,-642.65 1394.35,-375.47 2785.73,-763.67 4176.77,-1151.23 316.07,-88.06 632.18,-176 948.22,-264.19l222.47 -62.08 -10.13 230.72c-2.03,47.51 -3.99,94.99 -5.99,142.5 -8,190.37 -16.02,380.73 -24.01,571.1 -1.96,46.71 -4.12,90.71 -17.44,136.03 -21.79,74.16 -66.37,129.67 -119.82,183.64 -75.41,76.16 -161.77,148.33 -242.55,218.93 -361.07,315.52 -722.13,631.05 -1083.2,946.58z"/>
  <path class="fil0" d="M24319.39 9710.1l-223.09 -864.45c305.15,-238.55 610.29,-477.1 915.44,-715.64 45.94,-35.91 238.95,-180.17 298.82,-245.47 -6.45,-13.55 -14.4,-28 -19.3,-37.64 -114.54,-225.52 -229.08,-451.04 -343.62,-676.57 -11.44,-22.52 -29.26,-61.63 -45.74,-89.95 -0.3,-0.04 -0.59,-0.07 -0.88,-0.11 -118.73,-15 -237.46,-29.99 -356.18,-44.98 -90.22,-11.39 -176.89,-41.79 -194.07,-151.9 -13.52,-86.64 36.58,-155.64 110.95,-189.48 22.04,-10.03 45.66,-18.08 68.64,-25.71 82.67,-27.48 167.06,-52.08 250.46,-77.32 475.66,-143.97 951.27,-288.26 1427.37,-430.75 114.41,-34.25 228.93,-68.68 343.75,-101.54 28.48,-8.15 57.33,-16.62 86.23,-23.21 27.21,-6.21 53.13,-7.4 80.78,-1.64 105.29,21.96 132.58,109.26 164.92,195.03 32.24,85.5 64.48,171.01 96.72,256.51 400.85,-299.18 804.15,-595.4 1206.83,-892 73.03,-53.79 146.78,-109.8 222.18,-160.14 86.51,-57.75 191.08,-106.38 285.38,-22.27 118.62,105.82 30.14,252.28 -23.48,361.26 -146.88,298.54 -293.76,597.08 -440.64,895.61 -113.65,230.99 -134.1,263.78 -336.06,421.57 -138.19,107.97 -276.38,215.94 -414.57,323.91 12.18,24.54 26.66,50.4 35.11,66.79 14.12,27.36 28.23,54.71 42.36,82.07 15.37,-137.94 170.86,-247.04 272.41,-320.94 216.72,-157.73 454.36,-303.5 681.63,-446.08 129.52,-81.26 259.38,-161.98 389,-243.06 233.64,-146.14 466.24,-293.71 697.9,-442.96 19.42,-12.51 39.04,-25.4 59.3,-36.48 69.75,-38.12 150.58,-42.08 214.85,14.74 66.8,59.07 70.95,144.2 36.49,219.29 -12.36,26.93 -28.14,53.39 -43.49,78.73 -56.04,92.46 -116.5,183.52 -175.3,274.28 -339.41,523.84 -678.83,1047.66 -1018.24,1571.49 -58.57,90.39 -118.34,187.58 -183.77,272.93 -60.65,79.12 -136.03,149.82 -245.01,135.59 -105.22,-13.75 -156.05,-94.72 -206.52,-176 -29.45,-47.43 -59.06,-94.92 -88.68,-142.47 31.98,69.68 52.75,142.54 23.39,220.7 -53.69,142.96 -242.67,175.18 -373.43,210.05 -403.93,107.71 -807.87,215.43 -1211.8,323.14 -78.16,20.84 -160.76,45.09 -240.23,59.53 -74.97,13.62 -146.64,13.48 -212.03,-32.05 -36.48,-25.4 -57.55,-55.44 -80,-92.38 -37.78,-62.17 -75.55,-124.33 -113.32,-186.5 -5.63,4.95 -10.92,9.55 -15.7,13.62 -220.58,187.44 -441.18,374.86 -661.76,562.3 -57.58,48.93 -116.07,100.55 -182.09,137.83 -98.51,55.63 -228.71,84.58 -337.73,113.42 -74.72,19.76 -149.45,39.53 -224.17,59.29z"/>
  <path class="fil1" d="M31926.92 4750.13c-1333.33,359.03 -2103.45,548.71 -2488.51,643.55 -385.06,94.83 -385.06,94.83 -430.35,172.95 -45.28,78.11 -135.86,234.32 -181.16,312.44 -45.28,78.11 -45.28,78.11 279.28,-5.26 324.57,-83.38 973.69,-250.13 1298.25,-333.5 324.56,-83.38 324.56,-83.38 40.27,350.75 -284.29,434.13 -852.89,1302.4 -1137.19,1736.54 -284.29,434.13 -284.29,434.13 -284.29,434.13 0,0 0,0 309.17,-74.02 309.17,-74.03 927.51,-222.07 1236.67,-296.08 309.17,-74.03 309.17,-74.03 571.37,-482.09 262.2,-408.06 786.58,-1224.17 1048.78,-1632.23 262.2,-408.06 262.2,-408.06 262.2,-408.06 0,0 0,0 521.98,-140.08 521.99,-140.1 1565.96,-420.28 2087.94,-560.36 521.99,-140.1 521.99,-140.1 521.99,-140.1 0,0 0,0 -563.34,481.42 -563.33,481.41 -1690.01,1444.23 -2253.35,1925.66 -563.34,481.41 -563.34,481.41 235.7,269.95 799.04,-211.46 2397.11,-634.39 3196.15,-845.85 799.04,-211.46 799.04,-211.46 796.7,-298.57 -2.34,-87.12 -7.03,-261.35 -9.36,-348.46 -2.34,-87.12 -2.34,-87.12 -313.38,-16.17 -311.04,70.93 -933.12,212.82 -1244.16,283.77 -311.04,70.93 -311.04,70.93 5.66,-205.81 316.69,-276.75 950.05,-830.24 1266.74,-1106.97 316.69,-276.75 316.69,-276.75 322.68,-419.51 6,-142.78 18.02,-428.33 24.01,-571.1 6,-142.78 6,-142.78 6,-142.78 0,0 0,0 -948.28,264.21 -948.28,264.19 -2844.84,792.58 -4178.18,1151.62zm-7656.56 4769.96l-130.93 -507.34c366.22,-286.3 762.64,-596.19 1010.19,-789.7 411.6,-321.77 411.6,-321.77 325.7,-490.91 -85.91,-169.14 -257.72,-507.43 -343.63,-676.57 -85.91,-169.14 -85.91,-169.14 -174.96,-180.39 -89.04,-11.25 -267.13,-33.73 -356.18,-44.98 -89.04,-11.25 -89.04,-11.25 263.51,-117.95 352.55,-106.71 1057.66,-320.11 1426.87,-430.61 369.22,-110.51 402.54,-118.11 419.2,-121.91 16.66,-3.8 16.66,-3.8 51.74,89.2 35.07,93 105.2,279.02 140.27,372.03 35.07,93 35.07,93 314.95,-110.02 279.87,-203.03 839.62,-609.08 1119.5,-812.11 279.87,-203.04 279.87,-203.04 177.43,7.91 -102.44,210.95 -307.34,632.83 -409.78,843.78 -102.44,210.95 -102.44,210.95 -218.93,305.27 -116.48,94.32 -349.45,282.97 -465.93,377.3 -116.48,94.32 -116.48,94.32 -18.17,284.81 98.3,190.49 294.93,571.48 393.24,761.97 98.3,190.49 98.3,190.49 -204.65,271.28 -302.95,80.78 -908.85,242.34 -1211.8,323.13 -302.95,80.78 -302.95,80.78 -345.98,9.96 -43.03,-70.82 -129.1,-212.48 -172.13,-283.29 -43.03,-70.82 -43.03,-70.82 -208.47,69.75 -165.44,140.58 -496.32,421.72 -661.76,562.29 -165.44,140.58 -165.44,140.58 -454.2,216.96 -73.02,19.31 -164.49,43.5 -265.09,70.11zm4753.9 -2865c-354.38,221.65 -832.87,516.6 -1060.9,682.55 -228.01,165.95 -205.56,202.9 -203.63,216.48 1.93,13.58 -16.66,3.8 71.93,156.55 88.59,152.75 284.38,468.04 382.28,625.68 97.89,157.64 97.89,157.64 352.45,-235.23 254.56,-392.88 763.69,-1178.62 1018.24,-1571.5 254.56,-392.87 254.56,-392.87 139.41,-318.69 -115.13,74.17 -345.41,222.51 -699.79,444.16z"/>
  <path class="fil0" d="M9239.44 3822.6c-1192.87,-103.26 -2602.95,-195.85 -3308,-242.13 -705.03,-46.29 -705.03,-46.29 -705.03,-46.29 0,0 0,0 487.82,167.36 487.84,167.35 1463.5,502.07 1951.32,669.42 487.84,167.36 487.84,167.36 1192.87,103.27 705.05,-64.1 2115.13,-192.3 2820.16,-256.38 705.04,-64.1 705.04,-64.1 217.21,-121.06 -487.82,-56.98 -1463.49,-170.93 -2656.35,-274.19z"/>
  <path class="fil0" d="M29790.49 3776.08c1192.87,-103.26 2602.95,-195.85 3308,-242.13 705.03,-46.29 705.03,-46.29 705.03,-46.29 0,0 0,0 -487.82,167.36 -487.84,167.35 -1463.5,502.07 -1951.32,669.42 -487.84,167.36 -487.84,167.36 -1192.87,103.27 -705.05,-64.1 -2115.13,-192.3 -2820.16,-256.38 -705.04,-64.1 -705.04,-64.1 -217.21,-121.06 487.82,-56.98 1463.49,-170.93 2656.35,-274.19z"/>
  <path class="fil0" d="M14630.45 4424.37c-729.96,185.16 -2118.68,534.13 -2813.04,708.61 -694.35,174.48 -694.35,174.48 -694.35,174.48 0,0 0,0 861.7,270.62 861.72,270.61 2585.16,811.86 3446.87,1082.49 861.72,270.61 861.72,270.61 1278.33,35.6 416.62,-235.02 1249.83,-705.03 1666.45,-940.05 416.62,-235.02 416.62,-235.02 -131.74,-455.79 -548.36,-220.77 -1645.09,-662.3 -2193.46,-883.07 -548.36,-220.77 -548.36,-220.77 -583.97,-210.09 -35.61,10.68 -106.82,32.04 -836.79,217.2z"/>
  <path class="fil0" d="M24399.48 4377.86c729.96,185.16 2118.68,534.13 2813.04,708.61 694.35,174.48 694.35,174.48 694.35,174.48 0,0 0,0 -861.7,270.62 -861.72,270.61 -2585.16,811.87 -3446.87,1082.49 -861.72,270.61 -861.72,270.61 -1278.33,35.6 -416.62,-235.02 -1249.83,-705.03 -1666.45,-940.05 -416.62,-235.02 -416.62,-235.02 131.75,-455.79 548.36,-220.77 1645.09,-662.3 2193.46,-883.07 548.36,-220.77 548.36,-220.77 583.97,-210.09 35.61,10.68 106.82,32.04 836.79,217.2z"/>
  <path class="fil0" d="M10840.15 8960.24c-162.01,-39.17 -411.26,-96.14 -535.9,-124.63 -124.62,-28.49 -124.62,-28.49 -39.17,820.77 85.47,849.25 256.38,2547.76 341.84,3397.01 85.46,849.25 85.46,849.25 183.38,929.38 97.93,80.11 293.78,240.36 391.7,320.48 97.93,80.11 97.93,80.11 76.56,-810.08 -21.37,-890.2 -64.09,-2670.61 -85.45,-3560.8 -21.37,-890.21 -21.37,-890.21 -58.76,-900.89 -37.39,-10.68 -112.17,-32.06 -274.2,-71.23z"/>
  <path class="fil0" d="M28189.79 8913.73c162.01,-39.17 411.26,-96.14 535.9,-124.63 124.62,-28.49 124.62,-28.49 39.17,820.77 -85.47,849.25 -256.38,2547.76 -341.84,3397.01 -85.46,849.25 -85.46,849.25 -183.38,929.38 -97.93,80.11 -293.78,240.36 -391.7,320.48 -97.93,80.11 -97.93,80.11 -76.56,-810.08 21.37,-890.2 64.09,-2670.61 85.45,-3560.8 21.37,-890.21 21.37,-890.21 58.76,-900.89 37.39,-10.68 112.17,-32.06 274.2,-71.23z"/>
  <path class="fil0" d="M2263.67 6685.48c1570.31,459.34 4312.14,1271.2 5683.05,1677.13 1370.91,405.93 1370.91,405.93 1370.91,405.93 0,0 0,0 121.06,715.73 121.07,715.72 363.21,2147.16 484.28,2862.89 121.07,715.72 121.07,715.72 -210.09,74.77 -331.15,-640.95 -993.45,-1922.83 -1324.62,-2563.78 -331.15,-640.95 -331.15,-640.95 -1691.39,-1175.07 -1360.23,-534.13 -4080.68,-1602.36 -5440.91,-2136.48 -1360.23,-534.12 -1360.23,-534.12 -1160.82,-480.71 199.41,53.4 598.21,160.23 2168.53,619.58z"/>
  <path class="fil0" d="M36766.27 6638.97c-1570.31,459.34 -4312.14,1271.2 -5683.05,1677.13 -1370.9,405.93 -1370.9,405.93 -1370.9,405.93 0,0 0,0 -121.06,715.73 -121.07,715.72 -363.21,2147.16 -484.28,2862.89 -121.07,715.72 -121.07,715.72 210.09,74.77 331.15,-640.95 993.45,-1922.83 1324.62,-2563.78 331.15,-640.95 331.15,-640.95 1691.38,-1175.07 1360.23,-534.13 4080.68,-1602.36 5440.92,-2136.48 1360.23,-534.12 1360.23,-534.12 1160.82,-480.71 -199.41,53.4 -598.21,160.23 -2168.53,619.58z"/>
  <path class="fil0" d="M17150.26 964.58c-381.01,-211.87 -1078.93,-592.88 -1427.88,-783.38 -348.96,-190.5 -348.96,-190.5 62.32,74.78 411.28,265.27 1233.82,795.84 1645.1,1061.12 411.27,265.27 411.27,265.27 381.01,211.87 -30.27,-53.41 -90.81,-160.24 -121.07,-213.65 -30.27,-53.41 -30.27,-53.41 -62.32,-74.78 -32.05,-21.37 -96.14,-64.1 -477.14,-275.97z"/>
  <path class="fil0" d="M21759.25 918.07c381.01,-211.87 1078.93,-592.88 1427.88,-783.38 348.96,-190.5 348.96,-190.5 -62.32,74.78 -411.28,265.27 -1233.82,795.84 -1645.1,1061.12 -411.27,265.27 -411.27,265.27 -381.01,211.87 30.27,-53.41 90.81,-160.24 121.07,-213.65 30.27,-53.41 30.27,-53.41 62.32,-74.78 32.05,-21.37 96.14,-64.1 477.14,-275.97z"/>
  <path class="fil0" d="M17027.53 3982.84c-343.35,-189.94 -813.06,-443.47 -1047.92,-570.22 -234.84,-126.76 -234.84,-126.76 -284.1,-55.09 -49.26,71.66 -147.8,214.98 -198.84,283.09 -51.04,68.1 -54.6,60.97 325.21,222.39 379.82,161.42 1143.03,491.4 1524.63,656.38 381.6,164.98 381.6,164.98 404.75,138.87 23.15,-26.12 69.43,-78.33 82.22,-121.46 12.79,-43.14 -7.91,-77.19 -126.77,-157.4 -118.85,-80.22 -335.83,-206.61 -679.18,-396.56z"/>
  <path class="fil0" d="M22002.41 3936.33c343.35,-189.94 813.06,-443.47 1047.92,-570.22 234.84,-126.76 234.84,-126.76 284.1,-55.09 49.26,71.66 147.8,214.98 198.84,283.09 51.04,68.1 54.6,60.97 -325.21,222.39 -379.82,161.42 -1143.03,491.4 -1524.63,656.38 -381.6,164.98 -381.6,164.98 -404.75,138.87 -23.15,-26.12 -69.43,-78.33 -82.22,-121.46 -12.79,-43.14 7.91,-77.19 126.77,-157.4 118.85,-80.22 335.83,-206.61 679.18,-396.56z"/>
  <path class="fil1" d="M18897.46 8844.31c-377.32,269.68 -962.62,703.54 -1255.26,920.48 -292.65,216.93 -292.65,216.93 -849.62,1429.49 -556.98,1212.56 -1670.92,3637.65 -2227.89,4850.2 -556.98,1212.55 -556.98,1212.55 -236.55,939.99 320.41,-272.58 961.26,-817.73 1281.68,-1090.29 320.42,-272.58 320.42,-272.58 934.3,-1482.25 613.87,-1209.67 1841.61,-3629 2455.49,-4838.67 613.87,-1209.67 613.87,-1209.67 529.21,-1156.91 -84.68,52.75 -254.04,158.27 -631.36,427.97z"/>
  <path class="fil1" d="M21682.14 8931.7c331.66,324.19 843.77,842.41 1099.82,1101.53 256.05,259.12 256.05,259.12 621.14,1542.56 365.09,1283.44 1095.27,3850.3 1460.35,5133.74 365.1,1283.44 365.1,1283.44 90.1,965.1 -274.99,-318.35 -824.98,-955.04 -1099.98,-1273.38 -274.99,-318.35 -274.99,-318.35 -696.76,-1607.64 -421.76,-1289.29 -1265.27,-3867.85 -1687.04,-5157.14 -421.76,-1289.29 -421.76,-1289.29 -346.15,-1224.2 75.62,65.07 226.86,195.24 558.52,519.45z"/>
  <path class="fil2" d="M18153.36 5251.63c-265.62,-110.09 -663,-268.89 -861.69,-348.29 -198.69,-79.4 -198.69,-79.4 -311.52,-57.56 -112.81,21.83 -338.45,65.49 -451.27,87.33 -112.82,21.83 -112.82,21.83 71.94,101.95 184.75,80.11 554.25,240.35 735.42,348.96 181.16,108.6 173.99,165.58 -127.36,108.61 -301.34,-56.98 -896.85,-227.9 -1194.61,-313.36 -297.75,-85.47 -297.75,-85.47 -391.03,-65.88 -93.27,19.58 -279.81,58.75 -373.09,78.34 -93.27,19.58 -93.27,19.58 129.15,99.71 222.42,80.11 667.25,240.34 886.09,345.39 218.84,105.04 211.67,154.88 -95.06,97.92 -306.72,-56.98 -912.99,-220.77 -1216.14,-302.66 -303.13,-81.9 -303.13,-81.9 -405.38,-55.2 -102.24,26.71 -306.72,80.11 -408.97,106.82 -102.23,26.71 -102.23,26.71 138.13,122.85 240.36,96.14 721.07,288.42 947.08,395.25 226.01,106.82 197.31,128.19 -152.48,53.42 -349.77,-74.78 -1020.61,-245.71 -1356.04,-331.16 -335.42,-85.47 -335.42,-85.47 -433.98,-53.4 -98.55,32.06 -295.65,96.2 -394.21,128.26 -98.55,32.06 -98.55,32.06 302.45,157.07 401.01,125 1203.02,375 1724.42,536.85 521.42,161.85 762.23,235.55 913.13,279.93 150.91,44.38 211.93,59.45 269.9,70.45 57.98,10.98 112.94,17.91 168.97,17.36 56.05,-0.56 113.19,-8.57 165.08,-10.51 51.9,-1.95 98.56,2.19 428.61,-179.12 330.05,-181.31 943.5,-548.07 1298.14,-762.84 354.64,-214.77 450.45,-277.57 495.26,-322.84 44.82,-45.28 38.63,-73.03 35.53,-86.91 -3.1,-13.88 -3.1,-13.88 -70.05,-44.57 -66.93,-30.69 -200.8,-92.07 -466.43,-202.16z"/>
  <path class="fil2" d="M20854.13 5205.12c266.74,-110.09 665.8,-268.89 865.33,-348.29 199.53,-79.4 199.53,-79.4 312.83,-57.56 113.29,21.83 339.88,65.49 453.18,87.33 113.29,21.83 113.29,21.83 -72.24,101.95 -185.53,80.11 -556.59,240.35 -738.52,348.96 -181.93,108.6 -174.72,165.58 127.9,108.61 302.61,-56.98 900.63,-227.9 1199.65,-313.36 299.01,-85.47 299.01,-85.47 392.68,-65.88 93.66,19.58 280.99,58.75 374.67,78.34 93.66,19.58 93.66,19.58 -129.7,99.71 -223.36,80.11 -670.07,240.34 -889.82,345.39 -219.76,105.04 -212.56,154.88 95.46,97.92 308.01,-56.98 916.84,-220.77 1221.27,-302.66 304.41,-81.9 304.41,-81.9 407.09,-55.2 102.67,26.71 308.01,80.11 410.69,106.82 102.67,26.71 102.67,26.71 -138.71,122.85 -241.37,96.14 -724.11,288.42 -951.07,395.25 -226.96,106.82 -198.14,128.19 153.12,53.42 351.24,-74.78 1024.91,-245.71 1361.76,-331.16 336.83,-85.47 336.83,-85.47 435.81,-53.4 98.97,32.06 296.9,96.2 395.88,128.26 98.97,32.06 98.97,32.06 -303.72,157.07 -402.7,125 -1208.09,375 -1731.7,536.85 -523.62,161.85 -765.44,235.55 -916.98,279.93 -151.55,44.38 -212.82,59.45 -271.04,70.45 -58.22,10.98 -113.41,17.91 -169.68,17.36 -56.28,-0.56 -113.67,-8.57 -165.78,-10.51 -52.12,-1.95 -98.98,2.19 -430.42,-179.12 -331.44,-181.31 -947.48,-548.07 -1303.62,-762.84 -356.13,-214.77 -452.36,-277.57 -497.35,-322.84 -45.01,-45.28 -38.8,-73.03 -35.68,-86.91 3.11,-13.88 3.11,-13.88 70.34,-44.57 67.22,-30.69 201.64,-92.07 468.39,-202.16z"/>
  <path class="fil2" d="M13669.22 9693.79c-537.68,-138.88 -1527.58,-395.25 -2022.54,-523.43 -494.94,-128.2 -494.94,-128.2 -494.94,-128.2 0,0 0,0 21.37,890.21 21.37,890.19 64.09,2670.6 85.45,3560.8 21.37,890.2 21.37,890.2 21.37,890.2 0,0 0,0 302.66,277.74 302.68,277.74 908.01,833.22 1210.67,1110.97 302.68,277.74 302.68,277.74 302.68,277.74 0,0 0,0 213.65,-1029.06 213.65,-1029.08 640.94,-3087.22 854.58,-4116.29 213.65,-1029.08 213.65,-1029.08 170.92,-1039.76 -42.72,-10.68 -128.18,-32.05 -665.86,-170.92z"/>
  <path class="fil2" d="M25360.72 9647.27c537.68,-138.88 1527.58,-395.25 2022.54,-523.43 494.94,-128.2 494.94,-128.2 494.94,-128.2 0,0 0,0 -21.37,890.21 -21.37,890.19 -64.09,2670.6 -85.45,3560.8 -21.37,890.2 -21.37,890.2 -21.37,890.2 0,0 0,0 -302.66,277.74 -302.68,277.74 -908.01,833.22 -1210.67,1110.97 -302.68,277.74 -302.68,277.74 -302.68,277.74 0,0 0,0 -213.65,-1029.06 -213.65,-1029.08 -640.94,-3087.22 -854.58,-4116.29 -213.65,-1029.08 -213.65,-1029.08 -170.92,-1039.76 42.72,-10.68 128.18,-32.05 665.86,-170.92z"/>
  <path class="fil2" d="M18441.06 2477.92c-119.28,-226.11 -236.78,-443.32 -295.54,-551.92 -58.76,-108.61 -58.76,-108.61 -521.66,-389.91 -462.9,-281.31 -1388.71,-843.91 -1851.62,-1125.21 -462.9,-281.31 -462.9,-281.31 -208.3,-56.98 254.6,224.33 763.79,672.99 1057.55,938.27 293.77,265.28 372.11,347.18 437.98,464.69 65.88,117.5 119.29,270.62 149.56,381.02 30.27,110.38 37.38,178.03 40.94,211.86 3.56,33.83 3.56,33.83 261.73,165.59 258.16,131.75 774.47,395.24 1032.63,527 258.16,131.74 258.16,131.74 197.63,14.24 -60.53,-117.51 -181.6,-352.53 -300.9,-578.64z"/>
  <path class="fil2" d="M20468.46 2431.4c119.28,-226.11 236.78,-443.32 295.54,-551.92 58.76,-108.61 58.76,-108.61 521.67,-389.91 462.9,-281.31 1388.71,-843.91 1851.62,-1125.21 462.9,-281.31 462.9,-281.31 208.3,-56.98 -254.6,224.33 -763.79,672.99 -1057.55,938.27 -293.77,265.28 -372.11,347.18 -437.98,464.69 -65.88,117.5 -119.29,270.62 -149.56,381.02 -30.27,110.38 -37.38,178.03 -40.94,211.86 -3.56,33.83 -3.56,33.83 -261.73,165.59 -258.16,131.75 -774.47,395.24 -1032.63,527 -258.16,131.74 -258.16,131.74 -197.63,14.24 60.53,-117.51 181.6,-352.53 300.9,-578.64z"/>
  <path class="fil2" d="M18016.53 3954.41c-231.44,-160.25 -566.17,-381.01 -733.52,-491.38 -167.35,-110.39 -167.35,-110.39 -883.08,-381.01 -715.72,-270.63 -2147.15,-811.88 -2862.88,-1082.49 -715.72,-270.62 -715.72,-270.62 128.18,178.04 843.91,448.65 2531.74,1345.98 3379.2,1808.89 847.48,462.9 854.6,491.39 822.55,541.24 -32.05,49.85 -103.26,121.06 -138.87,156.67 -35.61,35.61 -35.61,35.61 174.48,103.27 210.09,67.65 630.25,202.95 875.95,259.93 245.7,56.96 316.91,35.61 242.12,-99.7 -74.77,-135.32 -295.53,-384.57 -470,-559.04 -174.48,-174.49 -302.67,-274.19 -534.13,-434.42z"/>
  <path class="fil2" d="M21013.41 3907.9c231.44,-160.25 566.17,-381.01 733.52,-491.38 167.35,-110.39 167.35,-110.39 883.08,-381.01 715.72,-270.63 2147.15,-811.88 2862.88,-1082.49 715.72,-270.62 715.72,-270.62 -128.18,178.04 -843.91,448.65 -2531.74,1345.98 -3379.2,1808.89 -847.48,462.9 -854.6,491.39 -822.55,541.24 32.05,49.85 103.26,121.06 138.87,156.67 35.61,35.61 35.61,35.61 -174.48,103.27 -210.09,67.65 -630.25,202.95 -875.95,259.93 -245.7,56.96 -316.91,35.61 -242.12,-99.7 74.77,-135.32 295.53,-384.57 470,-559.04 174.48,-174.49 302.68,-274.19 534.13,-434.42z"/>
  <path class="fil2" d="M17142.13 10886.36c-439.4,955.85 -1287.85,2784.71 -1712.07,3699.15 -424.22,914.43 -424.22,914.43 -424.22,914.43 0,0 0,0 530.29,-1023.06 530.27,-1023.06 1590.82,-3069.18 2121.1,-4092.24 530.28,-1023.06 530.28,-1023.06 439.4,-955.85 -90.89,67.2 -272.65,201.61 -363.53,268.82 -90.9,67.2 -90.9,67.2 -106.06,108.62 -15.17,41.42 -45.5,124.27 -484.89,1080.14z"/>
  <path class="fil2" d="M23104.72 11218.06c288.13,1011.78 847.07,2948.83 1126.54,3917.37 279.46,968.52 279.46,968.52 279.46,968.52 0,0 0,0 -367.68,-1092.09 -367.67,-1092.09 -1103,-3276.28 -1470.68,-4368.37 -367.67,-1092.09 -367.67,-1092.09 -288.13,-1011.78 79.56,80.3 238.63,240.92 318.17,321.22 79.56,80.3 79.56,80.3 88.22,123.56 8.66,43.26 25.97,129.77 314.09,1141.57z"/>
  <path class="fil2" d="M6300.26 8118.21l-696.58 242.72 1406.89 453.6 349.54 -92.17 510.39 363.91 1081.1 242.06 -262.05 -153.55 -642.68 -137.92 -239.42 -165.36 606.08 -103.73 -215.05 -145.5 -952.45 -234.48 3.62 98.4 -536.84 160.85 -587.84 -199.13 157.45 -41.82 387.55 139.46 188.68 -50.35 -413.34 -149.31 143.72 -30.89 303.35 109.94 230.43 -63.1 -838.16 -253.52 15.61 9.89zm1318.26 438.78l-259.04 119.15 49.18 24.73 379.69 -3.12 4.99 -49.23 -174.82 -91.53zm-2618.86 -802.96l-610.72 240.54 674.13 227.8c0,0 267.35,100.15 465.74,47.25l380.45 -142.41c0,0 -271.22,-176.85 -399.02,-214.45l-404.79 -117.67 -105.78 -41.06zm300.03 164.65l-394.43 129.14 -6.78 45.91c0,0 186.57,70.6 239.01,60.28l290.53 -103.5c0,0 44.59,-32.79 8.21,-55.93l-117.24 -70.19 -19.3 -5.72zm-1471.62 -507.91l-539.58 290.15 240.14 100.31 283.96 -125.15 39.67 199.92 349.23 77.97 1274.62 -556.44 -241.33 8.12 -1010.48 331.34 -81.47 -204.68 -314.75 -121.56zm-796.07 -178.73l-1434.72 458.99 218.37 82.09 953.73 -262.61 130.91 87.62 -31.52 58.57 302.47 48.23 169.32 -359.65 129.88 -9.12 -438.44 -104.12zm-193.12 239.71l108.02 75.25 77.07 -132.25 -185.09 56.99zm-1087.93 -573.97l-916.74 277.39 -123.45 -4.26 1215.23 322.97 471.73 -162.97 -409.68 40.83 -574.54 -195.04 605.71 -117.07 393.99 5.97 -662.23 -167.82z"/>
  <path class="fil2" d="M35429.54 7264.42l-449.01 585.25 1424.96 -393.14 241.57 -268.92 626.39 24 1036.52 -391.12 -303.33 15.5 -612.9 237.51 -290.9 -6.8 449.66 -419.4 -259.62 -3.57 -924.83 326.84 57.04 80.26 -360.43 429.14 -600.67 156.24 108.65 -121.38 400.49 -96.17 130.08 -145.65 -427.46 102.09 103.18 -104.71 313.91 -74.63 157.97 -179.24 -839.76 248.19 18.47 -0.3zm1342.75 -356.87l-151.12 241.79 54.68 -6.33 315.66 -211.03 -22.86 -43.89 -196.37 19.46zm-2629.79 766.41l-378.45 536.3 688.53 -179.64c0,0 278.44,-63.05 415.23,-216.17l239.83 -327.87c0,0 -323.78,1.06 -451.24,39.79l-402.94 123.85 -110.96 23.74zm341.17 -27.07l-258.8 324.46 19.54 42.1c0,0 194.71,-43.41 232.87,-80.82l186.03 -245.99c0,0 19.27,-51.88 -23.84,-51.26l-136.52 5.69 -19.27 5.82zm-1508.89 383.28l-291.74 538.72 255.79 -47.97 168.66 -260.48 142.9 145.33 334.71 -126.54 759.97 -1164.79 -197.26 139.26 -662.75 831.65 -180.45 -126.36 -329.82 71.17zm-763.52 287.6l-947.28 1171.22 227.58 -51.25 653.04 -743.04 157.52 1.38 5.81 66.26 279.29 -125.72 -55.89 -393.57 103.55 -78.91 -423.63 153.64zm-29.83 306.37l131.6 3.61 -8.17 -152.85 -123.42 149.24zm-1224.43 117.44l-614 735.1 -105.53 64.21 1193.05 -397.12 304.84 -395.17 -320.02 259.02 -587.3 152.35 442.03 -430.34 332.6 -211.28 -645.66 223.24z"/>
  <path class="fil0" d="M17352.91 10858.47l142.73 502.89 458.11 -885.08 -48.2 -248.25 323.85 -293.5 267.8 -694.86 -139.94 155.3 -154.47 413.9 -147.69 138.42 -39.21 -422.68 -130.25 124.75 -252.72 609.23 78.07 11.18 89.28 383.94 -199.01 368.49 -21.95 -111.87 137.67 -241.8 -26.48 -134.09 -147.29 257.82 -14.27 -101.11 108.37 -189.16 -33.62 -163.98 -259.7 529.61 8.93 -9.15zm440.13 -827.42l75.93 191.01 23.03 -29.71 24.36 -256.24 -38.58 -10.17 -84.73 105.11zm-820.02 1653.26l147.07 444.75 227.78 -422.65c0,0 98.09,-166.26 70.26,-307.24l-85.73 -276.02c0,0 -159.02,158.25 -197.78,239.14l-121.66 256.44 -39.95 65.58zm151.4 -179.35l74.26 283.6 35.83 10.92c0,0 69.01,-115.93 64.55,-152.69l-61.32 -210.06c0,0 -22.79,-34.57 -43.65,-13.27l-63.79 69.27 -5.89 12.21zm-505.64 921.17l191.33 403.68 96.29 -147.91 -78.9 -208.63 160.91 0.94 86.33 -224.5 -349.98 -935.75 -10.63 163.72 190.64 726.64 -167.62 26.57 -118.37 195.23zm-197.58 511.59l261.61 1030.12 80.35 -135.76 -140.29 -678.89 78.54 -76.07 44.09 29.34 59.51 -197.1 -272.45 -163.85 1.97 -88.76 -113.32 280.97zm175.92 163.28l67.15 -62.36 -99.14 -70.22 31.99 132.59zm-530.76 653.52l154.6 656.02 -12.09 82.58 341.27 -774.02 -95.56 -340.36 3.35 281.66 -194.84 360.08 -49.78 -424.28 32.56 -264.61 -179.5 422.93z"/>
  <path class="fil0" d="M23320.31 13037.13l-442.85 -277.75 252.78 964.02 202.08 152.02 -43.83 434.86 266.65 695.3 -0.13 -209.05 -162.58 -410.78 16.93 -201.7 312.26 287.55 13.14 -179.87 -220.49 -621.62 -65.45 44 -323.49 -225.25 -99.09 -406.9 91.23 68.35 59.77 271.75 109.48 81.81 -63.36 -290.08 78.33 65.5 46.26 213.04 134.81 99.22 -161.96 -567.18 -0.5 12.77zm227.51 909.16l-184.33 -90.95 2.8 37.48 153.57 206.57 35.46 -18.29 -7.5 -134.81zm-498.69 -1776.79l-407.12 -231.69 114.01 466.39c0,0 38.55,189.15 153.65,275.18l248.56 147.5c0,0 12.05,-224.02 -13.36,-310.05l-81.46 -271.89 -14.28 -75.45zm7.74 234.58l-245.12 -160.82 -33.92 15.89c0,0 26.42,132.3 54.35,156.61l186.24 114.88c0,0 40.08,10.41 41.29,-19.39l0.96 -94.17 -3.81 -13.01zm-241.68 -1022.65l-412.48 -171.54 27.59 174.32 198.34 102.04 -120.09 107.09 86.29 224.52 886.7 460.29 -101.78 -128.67 -628.31 -411.79 106.66 -132.01 -42.9 -224.25zm-196.02 -512.2l-884.31 -589.56 31.29 154.62 558.95 410.06 -7.36 109.09 -52.39 7.75 87.86 186.2 312.04 -60.87 58 67.22 -104.09 -284.52zm-240 -3.38l-8.07 91.28 120.65 -14.27 -112.57 -77.01zm-43.72 -840.77l-554.24 -383.5 -46.35 -69.41 265.14 803.3 298.96 188.69 -191.17 -206.87 -96.56 -397.87 321.18 281.66 153.09 218.27 -150.05 -434.26z"/>
  <path class="fil1" d="M13059.19 10039.41l36.24 -30.08c55.28,-45.87 118.27,-79.72 189.46,-92.42 90.38,-16.13 196.32,-0.46 285,19.31l98.45 21.95c51.54,11.49 178.02,40.89 205.11,92.74 24.91,47.66 -35.33,102.43 -67.4,129.05l-82.57 68.53c-55.44,46.01 -118.62,80.14 -190.03,92.88 -90.36,16.14 -196.33,0.46 -285,-19.31l-98.45 -21.95c-51.54,-11.49 -178.03,-40.89 -205.11,-92.74 -11.6,-22.19 -4.66,-45.97 9.28,-67.75 -50.63,37.78 -111.11,53.36 -174.18,55.35 -76.61,2.41 -165.82,-14.93 -240.34,-31.55l-76.95 -17.16c-54.96,-12.26 -130.03,-31.53 -177.28,-63.12 -45.87,-30.64 -53.75,-68.09 -9.34,-104.97l30.44 -25.27 251.44 56.07 -27.51 22.82c-1.29,1.06 -5.41,4.55 -5.66,6.33 0.57,1.3 4.16,3.13 5.33,3.73 13.3,6.77 40.77,12.3 55.48,15.58l30.54 6.81c19.62,4.38 49.25,11.18 69.34,10.49 16.97,-0.58 31.68,-7.47 44.64,-18.23l39.06 -32.41c2.58,-2.13 12.37,-10.82 11.5,-14.88 -6.56,-5.49 -48.93,-15.02 -57.9,-17.02l-30.16 -6.73c-14.79,-3.3 -31.84,-7.77 -46.79,-9.87 -16.24,-2.29 -35.03,-2.16 -49.23,7.18l-3.43 2.25 -242.85 -54.15 248.2 -205.97 636.17 141.85 -107.6 89.3 -392.67 -87.56 -24.58 20.39c40.17,-0.51 80.79,5.13 119.69,13.81l47.52 10.59c46.82,10.44 136.27,32.12 171.55,66.89 19.29,19.78 19.43,40.33 10.63,59.22zm-1216.25 -159.32l423.64 94.46 -117.11 97.17 -687.09 -153.21 113.42 -94.13c72.05,-59.78 168.46,-70.09 258.55,-61.93l274.39 24.86c19.18,1.74 60.78,4.28 76.83,-9.05l15.63 -12.97c4.23,-3.5 11.32,-8 4.76,-12.74 -8.79,-7.19 -39.83,-14.28 -50.94,-16.76l-36.22 -8.08c-19.58,-4.37 -43.44,-8.97 -63.55,-8.05 -16.13,0.74 -31.61,4.96 -44.19,15.41l-31.02 25.73 -250.3 -55.81 55.94 -46.44c99.65,-82.71 271.05,-59.73 387.01,-33.87l119.94 26.75c52.34,11.67 123.91,30.92 167.09,64.03 42.25,32.37 43.03,69.08 2.06,103.09l-32.92 27.31c-75.82,62.91 -183.43,69.07 -277.24,59.46l-263.23 -26.97c-10.29,-1.05 -32.4,-2.75 -45.46,1.75zm1636.12 298.19l75.87 -62.97c6.8,-5.64 34.97,-28.79 38.85,-36.06 6.23,-11.72 -54.8,-26.05 -60.09,-27.24l-35.08 -7.82c-29.51,-6.58 -71.52,-13.35 -101.04,-3.91 -18.27,5.85 -44.16,26.85 -58.8,39.01l-75.89 62.97c-6.35,5.26 -35.96,30.34 -37.68,38.12 -0.81,10.75 53.15,23.89 60.05,25.43l35.09 7.82c26.14,5.83 66.61,13.13 93.01,6.02 21.25,-5.71 49.04,-27.52 65.73,-41.37z"/>
  <polygon class="fil1" points="12692.54,10713.75 12757.76,10435.22 12822.67,10450.42 12797.66,10557.18 12868.74,10573.82 12893.74,10467.07 12960.1,10482.6 12894.87,10761.13 12828.51,10745.59 12857.15,10623.29 12786.08,10606.65 12757.44,10728.95 "/>
  <polygon class="fil1" points="11768.31,10383.67 11736.24,10196 11801,10211.16 11819.96,10330.07 11894.41,10233.04 11955.11,10247.25 11841.71,10395.01 11815.18,10508.28 11743.08,10491.4 "/>
  <polygon class="fil1" points="12128.65,10581.69 12186.78,10595.31 12235.95,10385.36 12242.8,10579.49 12297.08,10592.2 12384.51,10417.03 12334.65,10629.94 12402.79,10645.89 12468.01,10367.37 12362.4,10342.63 12300.27,10467.84 12295.23,10326.9 12193.88,10303.17 "/>
  <path class="fil1" d="M13035.34 10676.69l56.8 -118.09 -2.37 130.84 -54.43 -12.75zm122.55 -147.76l-100.38 -23.51 -132.99 262.66 60.09 14.07 29.56 -61.44 74.73 17.5 -1.23 68.08 66.17 15.5 4.06 -292.85z"/>
  <path class="fil1" d="M12543.27 10561.45l56.8 -118.09 -2.37 130.84 -54.44 -12.75zm122.55 -147.76l-100.38 -23.51 -132.98 262.66 60.09 14.07 29.56 -61.45 74.73 17.5 -1.23 68.08 66.17 15.5 4.06 -292.85z"/>
  <path class="fil1" d="M11979.38 10429.4l56.8 -118.09 -2.36 130.84 -54.44 -12.75zm122.57 -147.76l-100.39 -23.51 -132.99 262.66 60.09 14.07 29.55 -61.45 74.73 17.5 -1.22 68.08 66.17 15.5 4.06 -292.85z"/>
  <path class="fil1" d="M26734.16 9805.21l18.3 -43.4c27.92,-66.19 68.23,-125.26 125.55,-169.33 72.77,-55.96 174.01,-90.89 261.83,-114.2l97.49 -25.89c51.03,-13.55 176.83,-45.76 224.77,-12.23 44.07,30.81 15.85,107.18 -0.34,145.59l-41.7 98.87c-27.99,66.38 -68.34,125.79 -125.84,170 -72.76,55.96 -174.02,90.89 -261.83,114.2l-97.49 25.89c-51.03,13.55 -176.84,45.76 -224.77,12.23 -20.51,-14.35 -25.33,-38.64 -22.98,-64.4 -27.52,56.86 -74.02,98.56 -129.08,129.39 -66.88,37.44 -154.04,63.17 -227.84,82.77l-76.2 20.23c-54.42,14.45 -129.93,31.94 -186.42,25.69 -54.82,-6.05 -79.08,-35.66 -56.67,-88.85l15.37 -36.45 248.98 -66.12 -13.9 32.93c-0.65,1.54 -2.7,6.53 -2.11,8.23 1.11,0.9 5.13,0.86 6.45,0.85 14.93,-0.13 41.85,-7.87 56.42,-11.74l30.24 -8.03c19.43,-5.16 48.86,-12.78 66.37,-22.64 14.79,-8.33 24.67,-21.23 31.21,-36.75l19.73 -46.77c1.31,-3.08 6,-15.31 3.35,-18.5 -8.35,-1.85 -50.34,9.22 -59.22,11.58l-29.87 7.94c-14.65,3.89 -31.84,7.77 -46.08,12.8 -15.47,5.45 -32.08,14.23 -40.38,29.06l-2.01 3.58 -240.48 63.86 125.35 -297.17 629.96 -167.29 -54.34 128.84 -388.84 103.26 -12.42 29.42c35.41,-18.97 74.07,-32.67 112.58,-42.9l47.05 -12.49c46.36,-12.31 135.74,-34.29 183.07,-19.7 26.23,8.66 35.84,26.84 36.73,47.66zm-1152.82 419.12l419.5 -111.4 -59.15 140.21 -680.38 180.68 57.28 -135.82c36.39,-86.26 117.2,-139.84 200.92,-174.11l254.97 -104.39c17.83,-7.3 55.91,-24.21 64.01,-43.44l7.89 -18.71c2.14,-5.06 6.37,-12.32 -1.65,-13.51 -11.12,-2.33 -41.93,5.68 -52.93,8.6l-35.87 9.53c-19.39,5.15 -42.69,12.06 -60.12,22.14 -13.97,8.09 -25.77,18.97 -32.12,34.05l-15.67 37.13 -247.85 65.82 28.24 -66.99c50.32,-119.33 213.03,-177.92 327.86,-208.42l118.77 -31.54c51.83,-13.76 124.22,-29.66 177.8,-20.18 52.42,9.26 70.03,41.48 49.34,90.54l-16.63 39.41c-38.29,90.77 -130.96,145.83 -218.64,180.53l-246.03 97.37c-9.61,3.81 -30.02,12.49 -39.54,22.5zm1589.44 -489.38l38.32 -90.85c3.43,-8.14 17.77,-41.67 17.86,-49.91 0.13,-13.27 -60.64,2.13 -65.88,3.53l-34.74 9.23c-29.22,7.76 -69.63,21.11 -91.47,43.09 -13.52,13.61 -26.82,44.19 -34.2,61.72l-38.33 90.86c-3.21,7.59 -17.93,43.5 -15.87,51.2 4.23,9.91 58.18,-3.29 65.01,-5.1l34.74 -9.23c25.89,-6.88 65.16,-19.05 85.32,-37.52 16.23,-14.87 30.84,-47.03 39.27,-67z"/>
  <polygon class="fil1" points="26688.3,10492.24 26627.85,10212.64 26693,10198.56 26716.17,10305.73 26787.52,10290.3 26764.35,10183.13 26830.96,10168.73 26891.41,10448.33 26824.8,10462.73 26798.25,10339.96 26726.91,10355.39 26753.45,10478.16 "/>
  <polygon class="fil1" points="25711.8,10590.17 25602.37,10434.36 25667.39,10420.3 25735.49,10519.61 25761.16,10400.03 25822.09,10386.85 25782.97,10568.95 25807.55,10682.67 25735.18,10698.32 "/>
  <polygon class="fil1" points="26122.24,10614.63 26180.59,10602.02 26135.02,10391.25 26224.42,10563.71 26278.91,10551.93 26282.82,10356.19 26329.03,10569.92 26397.43,10555.13 26336.98,10275.53 26230.96,10298.45 26228.49,10438.21 26163.53,10313.03 26061.78,10335.03 "/>
  <path class="fil1" d="M26982.13 10311.82l0.7 -131.04 53.94 119.22 -54.64 11.82zm47.39 -186.03l-100.77 21.79 -7.58 294.31 60.32 -13.04 0.37 -68.18 75.02 -16.22 28.07 62.03 66.42 -14.36 -121.86 -266.32z"/>
  <path class="fil1" d="M26488.15 10418.63l0.71 -131.04 53.94 119.22 -54.65 11.82zm47.39 -186.03l-100.77 21.79 -7.57 294.31 60.32 -13.04 0.36 -68.18 75.02 -16.22 28.07 62.03 66.42 -14.36 -121.86 -266.33z"/>
  <path class="fil1" d="M25922.09 10541.01l0.7 -131.04 53.95 119.22 -54.65 11.82zm47.4 -186.03l-100.78 21.79 -7.57 294.31 60.33 -13.04 0.36 -68.18 75.02 -16.22 28.07 62.03 66.43 -14.36 -121.86 -266.32z"/>
 </g>
</svg>
