<?xml version="1.0" encoding="UTF-8"?>
<!DOCTYPE svg PUBLIC "-//W3C//DTD SVG 1.1//EN" "http://www.w3.org/Graphics/SVG/1.1/DTD/svg11.dtd">
<!-- Creator: CorelDRAW -->
<svg xmlns="http://www.w3.org/2000/svg" xml:space="preserve" width="851.725mm" height="499.066mm" version="1.1" style="shape-rendering:geometricPrecision; text-rendering:geometricPrecision; image-rendering:optimizeQuality; fill-rule:evenodd; clip-rule:evenodd"
viewBox="0 0 29421.09 17239.2"
 xmlns:xlink="http://www.w3.org/1999/xlink"
 xmlns:xodm="http://www.corel.com/coreldraw/odm/2003">
 <defs>
  <style type="text/css">
   <![CDATA[
    .fil2 {fill:black}
    .fil1 {fill:#D9D9D9}
    .fil0 {fill:red}
   ]]>
  </style>
 </defs>
 <g id="Camada_x0020_1">
  <metadata id="CorelCorpID_0Corel-Layer"/>
  <path class="fil0" d="M9446.71 4053.44l3633.69 3236.68 -2366.97 0 -3633.69 -3236.68 2366.96 0 0.01 0 -0 0zm12002.71 3232.91c610.56,-6.6 1270.56,-35.89 1864.63,-8.93 204.7,9.29 406.01,55.55 576.09,181.67 189.22,140.29 428.15,421.38 596.41,596.49 415.63,432.58 864.08,862.45 1291.19,1286.81 864.49,858.95 3177.84,3122.38 3511.02,4237.87 32.01,107.14 35.75,147.92 48.72,254.01 32.61,-43.44 51.13,-64.39 67.21,-124.91 169.79,-639.32 -1027.32,-2334.16 -1396.19,-2831.89 -1363.28,-1839.53 -3229.78,-3784.87 -4859.64,-5352.84l-839.29 -786.2 -750.3 1476.67 434.95 0 -544.81 1071.25 0.01 -0zm-3914.83 -3232.91c-432.4,473.58 -800.25,1032.32 -1360.64,1233.39l-1187.23 426.06 1770.69 1577.23 -2342.9 0 -2152 -1915.16c253.36,-154.63 383.42,-219.41 670.25,-229.04l1523.22 -4.78c212.52,-1.17 366.65,-232.6 515.05,-394.82l-2776.92 0 -1012.93 637.48 -879.07 -783.04 869.71 -547.33 6362.74 0 0.01 0 0.01 0zm271.77 0l2119.6 0 -1493.58 3236.68 -1450.37 0 -556.36 -495.58 1380.72 -2741.1 0 -0.01 -0.01 0.01zm3686.75 1841.46l367.59 -729.8 -2292.96 0 -336.76 729.8 2262.13 0zm-1412.36 -1841.46l1016.62 0c313.76,124.52 657.12,287.82 941.73,480.49 62.5,42.32 122.17,86.06 179.56,130.93l-2420.08 0 263.99 -572.11 18.17 -39.32 0 0.01 0.01 0zm1138.86 3236.68l-2632.44 0 402.33 -871.87 2673.53 0 -443.41 871.87 0 0zm-13067.4 0c-707.77,0 -1415.51,0 -2123.27,0l2603.84 -1638.72 879.07 783.04 -1359.64 855.69 0 -0.02 0 0.01z"/>
  <path class="fil1" d="M2327.71 4541.99c-29.79,-110.29 -69.94,-273.71 -109.84,-442.83l194.67 -326.98 573.76 -410.26 -319.68 204.22 159.18 -161.22 855.21 -491.57 -711.91 346.42 224.98 -227.9 318.53 -128.72 -57.22 72.44 74.43 -79.41 550.5 -222.48 -513.26 182.77 248 -264.69 374.03 -43.6 -355.56 23.93 199.56 -212.97 172.43 -49.6 -102.3 155.66 284.64 -208.12 6.69 -1.92 -169.79 235.13 223.44 -250.55 271.6 -78.16 -256.45 61.15 53.42 -59.85 1145.43 -853.82 -1044.87 741.07 410.55 -460.4c324.07,-155.04 620.52,-298.84 821.37,-396.24 421.81,-204.55 421.81,-204.55 421.81,-204.55 0,0 0,0 0.84,8.86 0.81,8.89 2.47,26.61 3.34,35.51 0.84,8.86 0.84,8.86 -313.16,253.08 -314.01,244.17 -941.98,732.58 -1466.72,1143.64 -524.78,411.04 -946.29,744.78 -1210.96,959.95 -264.66,215.21 -372.46,311.9 -455.95,404.91 -83.46,93.03 -142.65,182.39 -179.68,264.66 -37.02,82.28 -51.85,157.54 -85.45,275.02 -33.6,117.46 -85.98,277.07 -120.93,356.89 -34.95,79.84 -52.54,79.8 -114.55,-149.48l-0.05 -0.01 -0.04 -0zm-111.49 -449.82c-12.08,-51.31 -24.15,-103.09 -35.87,-154l184.68 -132.07 -148.81 286.06 0 0.01zm-48.15 -207.46c-6.99,-30.59 -13.84,-60.7 -20.41,-89.98l61.17 -35.17 -28.38 117.24 -12.38 7.91 0 0 0 -0.01zm-47.62 -212c-6.32,-28.68 -9.9,-45.01 -17.73,-81.33 -7.8,-36.27 -16.51,-77.01 -23.55,-112.81l19.29 -3.87 198.71 -80.34 -52.75 218.03 -123.98 60.32 0 0 0.02 0zm-57.28 -280.75c-17.04,-103.36 -15.17,-152.61 1.2,-205.96l303.11 -82.14 -47.58 196.7 -256.73 91.4 0 -0.01zm37.71 -293.3c21.57,-41.85 48.98,-84.79 79.84,-125.18l227.77 -39.11 -27.97 115.74 -279.63 48.54 0 0.02 -0.01 -0.01zm147.04 -203.19c45.91,-46.63 101.71,-88.78 204.67,-143.26l-29.36 121.39 -175.29 21.89 0 -0.01 -0.01 -0.01zm330.4 -205.07c17.32,-8.04 35.53,-16.31 54.73,-24.92 107.58,-48.21 246.18,-106.1 418.38,-178.71l-74.39 143 -172.05 11.59 -206.34 92.34 345.28 -40.25 -64.14 123.24 -356.27 44.43 54.8 -170.71 -0.01 0 0 -0.01zm640.69 -272.57c225.6,-95.27 551.08,-241.15 729.71,-322.25 178.62,-81.13 37.06,-16.87 55.86,-25.46l-299.89 333.46 -556.46 132.68 70.78 -118.44 0 0.01zm1040.6 -465.21l5.41 -2.5 -311.12 394.08 -105.75 25.26 411.47 -416.82 0 -0.01zm89.59 -41.72c90.32,-42.18 182.05,-85.27 273.76,-128.64l-118.1 86.95 -155.66 41.68 0 0.01zm355.73 -167.41c30.05,-14.21 60.02,-28.47 89.93,-42.69l-356.7 493.94 -59.74 48.2 -112.22 26.76 438.76 -526.22 -0.02 0.01 -0 0zm-601.75 721.71l138.48 -166.08 104.37 -30.04 -242.85 196.11 0 0zm122.05 -185.7l-151.35 36.05 430.95 -446.33 -279.61 410.28 0.01 0 -0 0zm-1575.74 1297.61l-195.02 124.61 75.43 -126.73 251.41 -144.5 -131.82 146.63 0 0 0 -0.01zm258.65 -287.67l-293.19 142.68 130.25 -218.78 363.48 -146.91 -200.57 223.05 0.02 -0.01 0 -0.01zm880.76 -860l-154.1 156.05 135.81 -9.11 144.73 -183.34 -126.44 36.42 0 0 0 -0.02zm-184.59 186.97l-123.8 125.35 176.93 -22.06 95.22 -120.61 -148.35 17.32 0 0 0 0zm-134.11 135.8l-211.25 213.98 283.62 -101.01 114.52 -145.04 -186.89 32.07 0.01 0 -0.01 -0zm-299.66 245.47l206.34 -229.43 -408.38 70.03 -72.82 122.36 0.92 -0.17 -0.98 0.25 -101.83 171.13 376.79 -134.18 -0.01 0 -0.01 0.01zm220.01 -244.7l112.2 -124.71 -439.73 51.28 -73.49 123.46 401.05 -49.99 -0.02 -0.02 -0 -0.01zm144.59 -160.79l108.88 -121.11 -516.13 148.52 407.25 -27.41 0 0 0.01 0zm-1333.45 1271.01l39.22 -122.11 225.32 -129.53 -64.35 123.74 -200.19 127.91 0 -0.01zm339.18 -395.07l-251.63 122.45 71.24 -221.78 293.87 -118.76 -113.49 218.08 0.01 0 -0.01 0.01zm157.27 -302.24l-307.69 109.51 62.52 -194.73 336.96 -91.32 -91.8 176.55 0 -0.01zm97.76 -187.93l-328.23 56.97 37.64 -117.2 353.45 -60.65 -62.86 120.86 0 0.01 0 0.01z"/>
  <path class="fil1" d="M26404.77 7190.49c-75.26,-31.4 -149.05,-64.3 -221.4,-98.65l-361.37 -127.46 62.19 57.89 520.58 168.2 0 0.02 0 -0.01zm-532.96 -260.37c-86.36,-48.98 -170.21,-100.18 -251.61,-153.6l118.95 110.76 132.67 42.85 0 0 0 -0.01zm-390.85 -248.84c-739.13,-526.56 -1252.85,-1241.83 -1497.05,-2082.12l-387.84 -926.21c125.18,1215.82 600.6,2252.69 1579.57,3032.28l31.27 10.11 -773.51 -906.77 1126.91 1020.94 106.74 34.48 -186.12 -182.71 0.04 0 0 -0.02zm-104.92 174.86c1.74,1.26 3.53,2.5 5.29,3.74l230.44 74.43 -73.1 -69.84 -227.24 -80.14 64.61 71.77 0 0.02 0.01 0.01zm112.51 77.94c109.76,73.67 225.01,144.59 345.6,212.72l-150.71 -143.99 -194.88 -68.72 -0 -0.01zm535.32 315.41c24.54,12.67 49.27,25.22 74.25,37.68l-219.54 -215.52 -83.56 -29.45 228.84 207.31 0 0 0.01 -0.02zm220.53 108.19c93.99,43.95 190.75,86.5 290.55,127.51l37.75 -168.77 -599.84 -211.54 271.55 252.8 0 0 0 -0zm-504.53 -422.23l-102.52 -36.17 74.25 67.26 89.37 28.88 -61.09 -59.99 0 0.01 -0.01 0zm-473.18 -200.83l205.56 66.45 -1038.86 -992.5 833.31 926.06 0 -0.01 -0.01 0z"/>
  <path class="fil1" d="M23724.5 8017.42l150.97 157.71c8.55,8.93 11.17,17.12 7.96,24.57l-26.22 62.15c-2.8,7 0.04,14.97 8.56,23.88l210.68 220.09c8,8.34 13.98,9.78 17.87,3.74l198.77 -424.55c3.22,-7.48 0.29,-15.97 -8.81,-25.47l-214.46 -221.33c-28.72,-29.78 -18.25,40.3 -53.57,43.08 -333.02,19.32 -499.93,29.45 -500.75,30.39 -2.47,2.84 -0.86,7.24 4.83,13.19l67.39 70.38c9.1,9.49 18.38,13.78 27.87,12.83l80.19 -4.41c10.05,-0.35 19.62,4.22 28.72,13.73l-0.01 0.01 0.01 0.01zm4418.48 4099.3c-26.58,-27.78 6.63,46.11 -13.84,62.86 -10.81,8.85 -349.9,193.87 -356.48,201.47 -3.69,4.27 -1.86,10.26 5.54,17.99l353.13 368.87c17.67,18.46 51.65,26.3 79.59,35.66 11.02,3.69 12.19,0.5 3.85,-8.19l-209.83 -219.18c-7.4,-7.71 -9.03,-13.97 -4.92,-18.69 0.42,-0.47 43.95,-25.11 130.59,-73.85 7.07,-4.4 15.13,-1.83 24.22,7.67l162.91 170.17c22.15,23.13 50.45,23.88 81.07,35.83 11.87,4.63 10.6,0.24 3.22,-7.48l-209.81 -219.18c-7.4,-7.71 -9.04,-13.97 -4.92,-18.72 0.84,-0.95 44.56,-25.8 131.2,-74.58 6.63,-3.91 14.5,-1.11 23.6,8.38l209.81 219.18c14.21,14.85 28.52,13.97 42.92,-2.65 4.12,-4.75 2.47,-10.97 -4.92,-18.69l-446.94 -466.89 0.02 0.02 -0.01 0zm-56.63 35.33c32.2,-37.18 -1.05,-97.42 -32.97,-130.76l-412.82 -431.25c-26.59,-27.78 6.66,46.13 -13.84,62.86 -11,8.97 -349.84,193.83 -356.48,201.47 -3.69,4.27 -1.86,10.26 5.55,18.01l163.08 170.36c8.55,8.93 16.39,11.73 23.59,8.43l91.15 -52.74c14.18,-7.36 35.33,15.6 31.3,31.34l-35.24 113.78c-2.25,7.6 1.17,16.14 10.25,25.63l162.81 170.07c18.05,18.86 16.72,1.96 30.68,-63.6 9.53,-44.76 15.04,-68.63 16.52,-71.6 36.57,29.17 111.66,67.61 153.71,43.89l149.89 -84.9c4.84,-3.08 9.1,-6.76 12.82,-11.05l0.01 0.02 -0.01 0.01zm-470.95 -166.39c-12.25,-12.79 -6.65,-16.31 -3.01,-19.32l203.88 -115.31c6.69,-3.97 14.54,-1.2 23.62,8.29l68.06 71.08c8.95,9.35 9.61,17.87 2.8,19.2l-203.87 115.34c-6.63,3.93 -14.49,1.15 -23.55,-8.3l-67.94 -70.98 0 0 0 -0zm-506.95 -291.29c41.84,43.72 120.05,84.97 169.44,57.6l329.05 -186.68c3.7,-4.27 2.12,-9.99 -4.7,-17.12l-163.08 -170.36c-9.11,-9.52 -16.98,-12.32 -23.59,-8.44l-354 198.63c-7.08,4.41 -15.16,1.9 -24.23,-7.6l-67.26 -70.24c-8.14,-8.51 -9.37,-15.69 -3.05,-20.81 11.74,-9.49 349.07,-192.98 355.86,-200.75 3.69,-4.27 1.86,-10.26 -5.54,-17.99l-209.81 -219.18c-26.61,-27.8 8.09,44.89 -13.22,62.15l-289.83 163.91c-51.39,26.33 -19.06,99.47 19.92,140.2l284.03 296.69 0 -0.01 0.01 -0.02zm-758.57 -806.42c-3.69,4.27 -1.86,10.26 5.54,18l162.91 170.17c8.52,8.93 16.39,11.71 23.6,8.38l353.77 -200.22c6.65,-3.93 14.53,-1.14 23.6,8.38l115.15 120.29c14.21,14.86 28.52,13.97 42.92,-2.65 3.7,-4.27 1.86,-10.26 -5.54,-18l-494.71 -516.79c-16.87,-17.63 -9.11,4.7 -4.53,42.75 0.85,9.03 5.81,18.29 14.92,27.8l115.15 120.29c7.85,8.22 9.39,15.46 3.69,20.14 -10.47,8.59 -350,193.96 -356.48,201.45l-0.01 0 0.02 0.02zm-314.16 -915.01c-1.23,1.43 -2.25,2.62 -3.08,3.56 -11.06,9.04 -349.88,193.83 -356.48,201.47 -3.69,4.27 -1.86,10.26 5.55,17.99l68.24 71.28c8.52,8.93 16.39,11.71 23.6,8.39l258 -149.69c8.7,-4.5 8.94,2.7 8.05,5.69l-84.15 335.37c-2.25,7.6 1.17,16.14 10.26,25.66l162.91 170.17c9.1,9.49 16.98,12.31 23.6,8.38l393.86 -222.12c4.11,-4.74 2.47,-10.97 -4.92,-18.69l-68.24 -71.28c-9.1,-9.49 -17.16,-12.05 -24.23,-7.67l-258.86 148.79c-8.52,5.58 -8.44,-2.96 -7.44,-6.41l84.98 -334.47c1.69,-8.19 -2.03,-17.04 -11.11,-26.56l-209.83 -219.18c-25.46,-26.61 3.4,42.95 -10.76,59.31l0.01 0.01 0.04 -0.01zm-467.05 -560.18c-26.59,-27.77 6.66,46.11 -13.84,62.86 -10.85,8.86 -349.9,193.87 -356.48,201.46 -3.69,4.27 -1.86,10.26 5.55,18l353.1 368.89c17.7,18.47 51.64,26.29 79.6,35.66 11.01,3.69 12.19,0.5 3.85,-8.19l-209.83 -219.18c-7.4,-7.71 -9.03,-13.94 -4.92,-18.69 0.42,-0.47 43.95,-25.11 130.59,-73.85 7.07,-4.4 15.13,-1.83 24.23,7.67l162.91 170.17c22.12,23.12 50.45,23.89 81.07,35.83 11.86,4.63 10.63,0.25 3.22,-7.48l-209.83 -219.18c-7.4,-7.71 -9.03,-13.97 -4.92,-18.69 0.84,-0.95 44.56,-25.82 131.2,-74.58 6.65,-3.93 14.53,-1.14 23.6,8.38l209.83 219.18c14.21,14.85 28.52,13.98 42.92,-2.65 4.11,-4.75 2.47,-10.97 -4.92,-18.69l-446.94 -466.88 -0.01 -0.02 0.02 -0.01zm-587.18 46.83c8.52,8.9 17.73,12.65 27.63,11.23 352.56,-53.15 529.27,-80.19 530.09,-81.16 2.88,-3.31 1.48,-7.96 -4.22,-13.89l-68.24 -71.28c-9.1,-9.49 -18.1,-13.48 -27.03,-11.94l-433.54 65.35c-9.58,1.95 -11.15,-1.61 -6.83,-7.14l210.91 -297.91c4.37,-6.28 2,-14.18 -7.11,-23.69l-209.83 -219.18c-27.95,-29.19 -6.65,45.63 -23.71,74.26l-205.96 331.57c-3.8,6.89 -1.44,14.78 7.11,23.69l210.68 220.09 0.02 0 0.01 0zm-502.17 -1123.55c-1.23,1.43 -2.28,2.62 -3.08,3.55 -11.01,8.99 -349.84,193.81 -356.48,201.47 -3.7,4.27 -1.86,10.26 5.54,17.99l365.91 382.24c40.74,42.56 118.85,85.27 169.19,56l262.64 -147.54c49.69,-29.77 18.94,-100.95 -20.16,-141.78l-412.82 -431.25c-25.47,-26.61 3.43,42.95 -10.76,59.31l0.01 0.02 0.01 -0.01zm210.1 210l68.03 71.07c8.93,9.29 9.64,17.82 2.8,19.2l-315.78 178.85c-7.62,3.8 -15.69,1.24 -24.23,-7.66l-68.24 -71.28c-8.47,-8.85 -9.37,-15.26 -2.88,-20.55l316.68 -177.92c6.66,-3.97 14.54,-1.2 23.62,8.29l-0.02 0 0.01 -0zm-778.09 -406.69c-4.11,4.75 -9.58,3.56 -16.39,-3.56l-116.85 -122.07c-7.37,-7.7 -6.73,-13.41 1.43,-14.79l192.53 -15.93c6.57,-0.8 12.82,2.77 9.39,9.8l-70.09 146.56 -0.01 0 0 0z"/>
  <path class="fil1" d="M1061.65 8983.77l151.82 -156.9c8.58,-8.86 16.17,-11.31 22.78,-7.36l54.9 32.31c6.19,3.5 13.59,0.8 22.16,-8.05l211.84 -218.95c7.95,-8.22 9.73,-14.75 4.44,-19.43l-373.9 -242.26c-6.61,-3.97 -14.49,-1.23 -23.62,8.23l-213.2 223.05c-28.71,29.87 35.53,22.34 36.01,61.26 -1.61,366.82 -2,550.71 -1.19,551.67 2.45,2.88 6.52,1.35 12.24,-4.56l67.77 -70.03c9.15,-9.45 13.57,-19.43 13.26,-29.9l0.59 -88.31c0.27,-11.06 4.95,-21.31 14.11,-30.78l0 0.01 0 0zm3974.44 -4621.08c-26.82,27.73 42.09,-4.78 56.28,18.76l160.54 400.71c4.06,6.77 10.05,5.78 18.49,-2.92l355.09 -366.98c17.95,-18.54 27.54,-57.36 36.94,-85.39 3.65,-10.89 1.81,-14.02 -7.21,-4.69l-211 218.07c-7.44,7.67 -13.19,9.14 -17.27,4.34 -0.42,-0.49 -20.25,-49.68 -59.52,-147.58 -3.56,-7.99 -0.8,-16.72 8.36,-26.17l163.81 -169.31c22.25,-22.99 25.17,-55.57 37.19,-87.01 4.56,-11.93 1.44,-12.29 -6.61,-3.97l-210.98 218.07c-7.42,7.7 -13.19,9.14 -17.27,4.34 -0.81,-0.95 -20.87,-50.4 -60.15,-148.3 -3.17,-7.51 -0.18,-16 8.97,-25.46l211 -218.07c14.28,-14.78 14.31,-30.54 0.05,-47.28 -4.07,-4.79 -9.82,-3.34 -17.27,4.34l-449.46 464.5 -0.01 -0.01 0.03 0.02zm28.84 64.18c-31.48,-36.97 -88.06,-4.78 -120.57,28.83l-415.12 429.04c-26.93,27.83 41.93,-4.91 56.28,18.73l160.54 400.72c4.11,6.76 10.05,5.8 18.49,-2.93l164 -169.47c8.59,-8.86 11.6,-17.35 9.03,-25.42l-42.63 -103.09c-5.77,-15.72 15.94,-38.02 30.24,-32.6l101.24 45.11c6.77,2.91 14.72,-0.38 23.85,-9.82l163.71 -169.18c18.01,-18.63 3.34,-18.08 -55.95,-37.29 -40.1,-13 -61.42,-20.39 -64.04,-22.2 29.9,-40.29 67.39,-119.76 48.67,-166.33l-68.42 -169.42c-2.51,-5.48 -5.62,-10.38 -9.28,-14.69l0 -0.01 -0.03 0.02zm-178.08 507.83c-13.26,13.69 -16,4.99 -17.7,2.2l-92.93 -230.43c-3.21,-7.55 -0.25,-16.04 8.89,-25.47l68.42 -70.72c9.32,-9.64 16.77,-9.26 17.61,-2l92.95 230.4c3.18,7.51 0.21,15.97 -8.9,25.38l-68.32 70.61 -0.01 0.02 -0 0zm-293.51 540.29c43.67,-45.15 83.57,-128.22 62.01,-182.82l-150.54 -371.92c-3.65,-4.31 -8.94,-2.91 -15.8,4.2l-163.98 169.47c-9.15,9.45 -12.16,17.95 -9.03,25.42l159.92 399.99c3.6,8.01 0.85,16.76 -8.29,26.19l-67.61 69.89c-8.34,8.63 -14.75,9.29 -19.06,2.16l-159.92 -399.99c-4.12,-6.83 -10.15,-5.71 -18.49,2.92l-210.98 218.07c-26.9,27.8 40.81,-6.48 55.66,18.04l132.11 327.56c20.54,56.68 87.5,28.3 128.39,-13.97l285.62 -295.17 0 -0.04 -0 0zm-775.5 787.57c3.68,4.31 9.2,2.63 16.65,-5.07l163.81 -169.31c8.58,-8.86 11.56,-17.35 8.97,-25.46l-161.4 -399.83c-3.17,-7.51 -0.18,-16 8.97,-25.46l115.8 -119.67c14.28,-14.78 14.31,-30.53 0.05,-47.28 -3.65,-4.31 -9.23,-2.62 -16.65,5.07l-497.46 514.12c-16.85,17.42 3.02,10.34 38.54,7.4 8.23,-0.42 16.94,-5.35 26.08,-14.82l115.8 -119.67c8.04,-8.3 14.61,-9.33 18.49,-2.91l160.54 400.71c0.42,0.47 1.02,1.19 1.83,2.15l-0.02 0.02 -0.01 -0.01zm-848.53 293.34c1.2,1.44 2.24,2.63 3.05,3.59l160.54 400.71c4.12,6.74 10.04,5.81 18.49,-2.92l68.61 -70.91c8.58,-8.86 11.56,-17.35 8.97,-25.46l-121.02 -291.8c-3.48,-9.52 2.67,-9.78 5.64,-8.52l299.55 111.35c6.77,2.91 14.72,-0.38 23.88,-9.83l163.81 -169.3c9.15,-9.45 12.15,-17.95 8.97,-25.46l-178.97 -445.08c-4.07,-4.79 -9.82,-3.34 -17.27,4.34l-68.61 70.91c-9.15,9.45 -11.94,18.18 -8.36,26.17l120.16 292.67c4.63,9.74 -3.3,9.06 -6.26,7.8l-298.7 -112.22c-7.33,-2.31 -15.59,1.26 -24.74,10.72l-211 218.07c-25.72,26.58 39.07,-1.44 53.21,15.16l0.05 0.02 -0.02 -0.01zm-535.26 481.3c-26.95,27.83 41.98,-4.91 56.28,18.73l160.54 400.71c4.11,6.76 10.04,5.81 18.49,-2.92l355.09 -366.98c17.96,-18.56 27.53,-57.31 36.94,-85.39 3.65,-10.89 1.82,-14.02 -7.21,-4.69l-211 218.07c-7.44,7.67 -13.19,9.14 -17.27,4.34 -0.39,-0.47 -20.25,-49.68 -59.52,-147.58 -3.59,-8 -0.8,-16.72 8.36,-26.18l163.81 -169.31c22.27,-23.01 25.15,-55.57 37.19,-87.01 4.58,-11.96 1.39,-12.24 -6.61,-3.97l-211 218.05c-7.44,7.7 -13.19,9.14 -17.27,4.36 -0.81,-0.95 -20.87,-50.4 -60.15,-148.3 -3.17,-7.51 -0.18,-16 8.97,-25.46l211 -218.07c14.31,-14.78 14.31,-30.54 0.05,-47.28 -4.07,-4.78 -9.82,-3.34 -17.27,4.36l-449.43 464.5 -0.01 0 0.01 0.01zm8.76 647.51c8.58,-8.86 12.5,-18.77 11.78,-29.73 -27.97,-390.21 -42.37,-585.78 -43.21,-586.75 -2.84,-3.35 -7.14,-2.07 -12.84,3.84l-68.61 70.91c-9.15,9.45 -13.27,19.11 -12.4,29.01l34.39 479.8c1.09,9.49 -1.52,12.78 -6.86,7.11l-258.26 -248.47c-5.46,-5.16 -12.75,-3.01 -21.91,6.45l-211 218.07c-28,28.93 41.17,9.99 66.04,30.24l289.09 244.91c6.03,4.56 13.34,2.41 21.91,-6.47l211.84 -218.95 0.04 0.02 0 0.01zm-1048.59 488.06c1.23,1.44 2.24,2.63 3.06,3.59l160.54 400.71c4.07,6.76 10.05,5.78 18.47,-2.92l367.96 -380.28c42.81,-44.26 83.67,-127.03 60.56,-182.66l-118.81 -296.79c-23.78,-55.32 -89.26,-27.82 -129.86,14.15l-415.12 429.04c-25.72,26.58 39.07,-1.44 53.21,15.16l0 0.01 0 -0zm202.66 -218.9l68.41 -70.7c9.28,-9.58 16.74,-9.29 17.58,-2l144.19 356.89c3.01,8.59 0.21,17.32 -8.36,26.17l-68.61 70.91c-8.67,8.95 -14.45,9.26 -18.81,2.02l-143.29 -357.81c-3.21,-7.55 -0.25,-16.04 8.89,-25.47l0 0 -0 -0.01zm-413.81 831.56c4.07,4.78 2.68,10.72 -4.18,17.82l-117.51 121.44c-7.91,8.18 -12.59,6.02 -13.34,-2.41l-3.4 -212.34c-0.3,-6.73 2.97,-14.11 9.44,-9.74l128.99 85.24 0 0 -0 -0z"/>
  <path class="fil2" d="M11611.94 11950.88l1703.54 0 11.48 -9.06 19.83 9.06 900.54 0 4.36 -12.34 16.38 12.34 478.1 0 92.88 -351.25 196.36 138.1 0 -347.42 -80.53 -51.26 80.53 -48.39 0 -171.59 -100.61 74.19 54.89 -374.96 45.73 23.64 0 -635.8 -58.75 -152.07 -249.28 300.08 -204.16 -186.59 132.2 -777.63 -123.22 122.64 -98.37 569.52 -182.41 -136.7 146.99 -501.73 -92.72 106.23 -91.17 255.64 -92.58 -237.16 140.39 -265.47 321.92 -208.62 -81.67 -84.45 -458.36 351.99 -453.99 -1094.71 -35.38 107.69 386.92 1079.69 -123.83 102.1 -272.84 -203.92 -508.55 -1602.82 -42.18 88.41 226.74 1258.73 -337.56 -245.18 97.18 135.56 256.27 220.09 35.91 256.2 -423.81 -375.25 197.3 314.5 168.71 141.8 -427.22 183.59 -67.93 -697.56 -60.83 95.65 6.61 666.48 -145.17 68.45 -214.2 -264.86 55.61 -925.62 -62.69 75.3 -243.94 522.69 -266.73 -320.81 60.78 155.33 194.13 276.43 -28.34 257.16 -318.28 -468.11 113.73 353.41 215.8 300.4 26.45 224.55 -164.82 49.65 166.3 79.75 8.38 162.69 -203.37 123.72 138.88 182.27 3.08 86.37 -166.34 -158.34 106.36 271.83 -132.99 -151.55 -26.38 183.72 98.32 251.32 -115.55 61.66 16 29.28 68.34 -36.76 -121.22 -59.99 -98.36 -179.95 -17.51 61.31 0 163.55 47.58 78.71 -47.58 25.38 0 203.2 169.51 -81.09 24.79 63.42 -18.86 140.43 -6.98 7 -67.19 14.99 -101.28 -117.38 0 238.75 4.06 -0.94 12.45 17.27 -16.51 16.6 0 176.8 -0.06 -0.02 -0.03 0.07zm1600.91 -50.43l-13.01 -13.82 21.02 7.85 -8.04 5.97 0.01 0 0.01 0zm282.05 -221.53l-2.03 -4.27 3.59 2.99 -1.55 1.28zm-59.3 -52.19l-235.93 96.02 8.9 -21.39 195.62 -100.9 31.4 26.27 0.01 0zm-166.89 -69.85l22.49 -54.05 31.55 30.62 -54.04 23.46 0 -0.01 0 -0.01zm76.36 -183.53l0.21 -0.49 3.36 2.99 -3.59 -2.5 0.01 0zm147.53 -130.64l-17.13 -15.49 3.8 -3.17 13.35 18.63 -0.02 0.02 0 0zm2.65 -595.03l-1.86 1.35 -160.68 -110.3 19.71 184.56 13.3 18.56 -132.25 96.16 -12.68 -13.64 -0.68 23.35 -14.69 10.68 -151.89 -231.15 296.63 -669 93.6 18.8 48.2 155.62 -166.63 170.02 179.51 142.42 24.27 82.95 -200.23 -112.46 166.38 232.1 0 -0.01 -0.01 0.01zm-193.58 -699.17l-78.03 46.14 -235.67 527.74 -143.12 -177.44 266.09 -450.05 -116.03 80.12 -151.36 225.31 -31.3 -252.66 201.49 -222.71 296.5 -100.26 19.24 16.17 80.98 211.11 -147.51 88.74 38.72 7.79 0.01 0 -0.01 0.02zm-218.1 1391.14l-14.9 11.94 -34.07 -192.28 136.99 -120.82 78.75 159.07 -56.55 50.45 -105.95 -118.35 -4.25 209.99 -0.01 0zm-215.61 172.87l-63.53 50.94 -86.87 -100.05 -0.54 -119.19 62.65 -36.01 88.28 204.31 0.01 0zm-658.25 -265.29l21.74 37.15 -34.31 143.88 -16.19 -12.45 -12.54 -21.82 41.3 -146.77 0 0.01 0 0zm1799.89 -1717.89l-99.68 118.61 69.09 54.64 72.38 -112.51 -41.77 -60.75 -0.01 0.01 -0.01 0zm-155.32 161.27l-188.3 144.66 55.02 101.37 191.58 -189.21 -58.3 -56.81 0 -0.01 -0.01 0zm-231.4 30.58l-76.06 -277.88 200.24 161.52 -124.2 116.37 0 -0.01 0.01 0zm718.14 574.84l-77.02 -235.09 191.31 173.62 -51.75 129.06 -62.52 -67.6 -0.02 0.01 0.01 0zm147.59 -10.02l190.36 191.9 -97.75 143.4 -122.77 -186 30.16 -149.31 0 0 0 0.01zm250.33 251.01l-102.98 150.84 203.87 451.29 49.42 -426.8 -150.29 -175.33 -0.01 0 -0.01 0zm-544.18 -337.07l-69.42 133.85 173.46 197.85 45.29 -89.03 -149.31 -242.68 -0.01 0zm-109.62 -309.97l-94.75 -83.11 -158.09 221.23 215.55 232.05 75.15 -273.13 -37.87 -97.03 0.01 0zm-94.02 462.8l-217.21 -234.33 51.85 469.93 165.34 -235.6 0.01 -0zm462.26 168.77l-64.38 121.26 248.68 273.27 -184.29 -394.53 -0.01 0zm-260.37 404.88l37.02 -313.97 -165.37 -162.03 -172.37 309.27 300.71 166.73 0 0 0 0zm180.67 18.92l29.9 115.38 322.25 223.74 -300.29 -389.48 -51.84 50.34 0 0 -0.02 0.01zm206.07 945.25l143.04 -330.52 -283.97 182.99 140.92 147.53 0.01 0zm-274.86 -295.12l72.69 -350.13 298.42 205.27 -317.17 210.3 -53.95 -65.44 0 0 0.01 0zm-220.17 -204.05l53.21 -230.05 -143.28 148.57 90.05 81.48 0.02 0zm28.3 -333.54l-252.89 -161.42 -5.88 232.29 67.22 69.24 191.56 -140.1 -0.01 0 0 -0.01zm-1011.56 479l88.56 -71.15 -57.22 150.08 -16.1 6.99 -15.23 -85.93 0 0.01zm497.63 401.7l-55.53 -178.07 -126.18 101.29 181.71 76.77 0 0 0 0.01zm276.43 -338.32l69.22 283.11 74.3 -151.6 -143.54 -131.52 0 0 0.01 0zm-1162.53 -1718.13l-125.85 90.4 53.5 69.99 97.86 -91.2 -25.51 -69.17 0 -0.02 0 0.01zm-190.27 118.04l-218.14 93.79 28.37 111.79 232.3 -136.15 -42.52 -69.42 0 -0.01 0 0zm-231.79 -27.38l-5.22 -288.07 154.28 205.89 -149.05 82.18 -0.01 0zm554.37 734.08l-16.74 -246.82 142.62 215.4 -81.96 112.34 -43.95 -80.91 0.02 0 0 0zm145.51 26.65l137.2 232.88 -130.07 114.89 -73.15 -210.52 66.01 -137.28 0 0.02 0.01 -0zm-263.58 -155.82l-100.27 112.62 119.37 234.48 65.83 -75.11 -84.92 -271.99 -0.01 0.01 0 -0.01zm-29.86 -327.42l-71.34 -103.91 -207.71 175.45 151.73 278.01 140.12 -246.19 -12.79 -103.36 0 0 0 -0zm-205.14 425.36l-152.78 -280.64 -65.53 468.23 218.3 -187.58 0 -0.01zm406.42 277.45l-92.26 101.66 173.67 326.12 -81.41 -427.78zm-352.12 328.26l113.24 -295.16 -120.34 -197.78 -243.26 257.28 250.35 235.67 0 0 0.01 -0.01z"/>
  <path class="fil2" d="M6442.01 10139.93l-332 322.21 1176.83 94.89 -484.13 48.84 -231.31 95.98 429.06 46.54 362.76 101.06 -692.18 -26.9 -529.48 427.61 245.84 129.02 863.55 -763.51 -407.59 602.42 -356.97 302.92 -160.55 43.15c-1521.81,-32.31 -3002.13,24.27 -4595.07,-0.59 -175.99,2.91 -401.63,-91.19 -586.05,-189.08 -80.78,-75.6 -63.58,-158.41 68.25,-240.86 971.92,-489.84 1915.85,-926.26 2816.9,-1366.91l304.44 41.22 161.81 -85.44 -400.54 6.61 436.33 -194.34 266.82 1.23 654.07 -278.82 -531.48 -74.29 73.08 -282.71 860.61 151.99 219.45 -282.88 245.58 -5.94 -213.36 223.44 613.83 -230.06 -264.79 -68.84 412.06 -104.3 149.56 37.62 340.28 -150.71 653.33 -110.04 -426.73 303.43 378.15 20.02 1267.38 -487.76 -167.74 136.38 -927.62 358.18 287.37 33.75 798.25 -350.57 -149.67 110.04 -401.66 188.08 428.3 -71.51 402.71 -221.91 249.99 -297.32 167.78 2.83 -448.37 452.39 1985.23 -314.73 -170.23 77.48 -1938.84 345.74 -132.89 125.93 428.89 50.78 2857.61 -551.52 -135.58 71.24 -2189.89 533.43 518.84 66.59 -258.77 15.2 -450.96 -32.61 -442.51 114.54 764.75 47.96 -591.24 51.56 -489.55 -38.81 -380.73 64.52 -103.06 132.61 -117.9 -85.89 -277.07 54.23 -233.8 186.67 -296.16 -29.02 -147.25 29.73 252.32 56.92 -452.82 26.56 244.27 36.29 -316.84 86.11 -470.02 27.57 -114.88 99.55 456.19 2.79 -299.95 97.75 -236.56 -7.23 -168.03 149.07 232.41 -0.97 -352.06 113.44 -0.02 0 -0.01 -0.06zm2755.99 -1494.79l-168.3 120.61 -113.68 -11.24 166.64 -101.53 115.35 -7.84 -0.01 0 0 0zm-222.64 175.46l-184.25 185.87 -187.9 21.57 258.17 -211.29 113.98 3.87 0 -0.01zm21.25 150.61l491.62 -102.64 -334.77 -31.01 -156.86 133.65 0 0zm-1193.24 -113.53l419.95 -79.46 -352.35 -19.4 -200.95 98.26 133.37 0.59 -0.01 0.01 -0.01 -0zm-29.55 -91.06l-382.8 -9.2 -210.62 132.61 351.62 -26.97 241.79 -96.44 0.01 0 -0 0zm-501.09 -12.81l-221.53 139.58 -823.67 120.01 702.85 -254.27 342.35 -5.33 0 0 0 0.01zm738.34 138.09l-203.45 111.1 -387.58 3.7 135.68 -73.33 455.32 -41.49 0.01 0.01 0.01 -0zm556.16 -100.13l169.76 11.15 -322.74 208.77 -458.33 -2.63 436.14 -188.02 175.15 -29.26 0.01 -0.01 -0 0zm-749.41 299.18l462.65 2.4 -807.19 218.19 344.51 -220.6 0.01 0.01 0.01 0zm-429.27 -179.4l-183.89 101.47 -538.09 -0.08 721.96 -101.4 0.01 0 0 0.01zm-599.68 365.29l516.83 -187.45 324.67 10.47 -466.38 263.6 -375.11 -86.63 0 0.01 -0 0zm-88.59 -94.98l-203.63 43.59 -477.89 -68.99 749.92 -31.34 -68.4 56.76 0 -0.01zm-1655.81 379.75l511.4 -257.79 -218.82 261.72 -292.57 -3.93 -0.02 0 0.01 0zm583.12 3.77l566.46 -227.29 -439.21 -64.93 -254.29 295.45 127.07 -3.22 -0.01 -0zm412.65 20.11l370.47 -152.52 -205.07 161.77 -165.41 -9.26 0 0.01zm552.44 -192.72l351.15 61.66 -389.11 126.15 -137.62 -2.45 175.58 -185.37 0 0.01 0 -0zm-253.27 618.1l172.77 -162.02 -105.65 6.22 -251.69 67.49 -36.13 56.96 220.69 31.35 0 0 0 0zm-386.7 369.68l279.36 -270.55 -191.34 -6.73 -145.2 282.73 57.19 -5.46 0 0zm-50.45 -289.18l-158.92 -12.83 -188.33 178.75 197.07 65.44 150.16 -231.35 0.02 -0.01 0 0zm-630.44 65.44l317.19 -61.84 -130.88 126.85 -186.32 -65.01 0 0 0.01 0zm-143.67 89.66l223.83 70.18 -120.9 118.87 -169.6 -14.31 66.64 -174.76 0.01 0 0.02 0.01zm212.34 236.45l468.91 10.47 -344.41 -140.1 -124.5 129.66 0 -0.01 0 -0.01zm-382.58 -230.66l-68.91 143.26 -161.84 -58.02 230.72 -85.24 0.01 0 0.01 0zm796.53 -434.83l-498.31 109.37 231.92 -123.27 266.39 13.9 0 0zm-1157.78 -3.81l273.84 55.66 196.42 -91.67 -338.84 -39.18 -131.41 75.21 0 -0.01 -0.01 -0.01zm-317.31 246.43l-179.8 107.56 97.17 61.8 507.47 -126.79 37.52 -103.45 -462.37 60.88 0.01 0zm-203.96 -89.29l-210.78 138.94 -202.86 -123.07 413.67 -15.84 -0.01 -0.01 -0.01 -0.01z"/>
  <path class="fil0" d="M4461.7 11470.27l642.29 0 324.1 -208.24 374.49 -580.13 -65.76 -247.92 -606.19 0 -193.63 299.98 287.02 0 -253.52 436.33 -315.16 0 -193.63 299.98 0 0.01 -0.01 -0zm-663.28 0l581.75 0 193.63 -299.98 -173.28 0 253.52 -436.33 201.41 0 193.63 -299.98 -617.89 0 -324.1 208.24 -374.49 580.13 65.78 247.92 0.04 -0.01 -0 0zm-2410.04 -299.98l1080.73 0 -193.63 299.98 -529.18 0c-157.49,0 -357.93,-183.89 -357.93,-299.98l0.01 0zm1162.26 0l334.08 0c41.55,0 77.39,-68.17 37.19,-68.17 -270.25,0 -526.11,0 -796.38,0l193.63 -299.98c320.01,0 486.2,0 806.21,0 41.55,0 77.39,-68.17 37.19,-68.17l-330.31 0 -887.87 0 193.65 -299.98 806.35 0 -192.31 297.94c26.72,0.67 53.46,1.35 80.19,2.03l193.63 -299.98 750.65 0c107.26,47.44 143.18,112.08 94.54,243.6 -42.25,114.2 -218.82,214.7 -315.13,270.66 147.89,287.23 -196.07,522.02 -385.71,522.02l-813.28 0 193.63 -299.98 0.02 0 0.02 -0.01zm3266.05 299.98l581.75 0 193.63 -299.98 -173.28 0 253.52 -436.33 201.41 0 193.63 -299.98 -617.89 0 -324.1 208.24 -374.49 580.13 65.78 247.92 0.04 -0.01 -0 0zm663.26 0l642.29 0 324.12 -208.24 374.49 -580.13 -65.76 -247.92 -606.19 0 -193.63 299.98 287.02 0 -253.52 436.33 -315.16 0 -193.63 299.98 -0.01 0.01 -0.02 -0z"/>
  <path class="fil0" d="M18630.85 12391.92l229.52 -0.69c12.97,-0.04 21.11,5.08 24.48,15.37l28.29 84.88c3.3,9.42 11.43,14.12 24.37,14.09l320.3 -0.98c11.24,-0.04 16.57,-3.91 16,-11.64l-0.2 -2.55 -179 -599.32c-3.35,-10.29 -11.94,-15.41 -25.76,-15.37l-324 3.59c-11.23,0.04 -16.54,4.34 -15.91,12.92 0.46,6 3.08,15.45 7.92,28.3 4.84,12.84 7.48,22.29 7.92,28.29 0.63,8.58 -1.36,16.74 -5.98,24.48 -226.79,349.13 -340.11,524.54 -340,526.26 0.38,5.16 4.88,7.71 13.53,7.67l102.45 -0.33c13.84,-0.04 23.81,-5.22 29.98,-15.55l54.8 -83.83c7.03,-10.3 17.46,-15.5 31.27,-15.55l-0.01 -0.02 0.02 -0.01zm6324.37 -509.66c-7.79,0.01 -11.52,2.17 -11.19,6.47 0.18,2.58 8.14,10.71 23.84,24.37 15.71,13.68 23.94,25.67 24.7,35.96 0.2,2.58 0.34,4.73 0.47,6.44l-105.44 540.97c0.05,0.86 0.17,2.15 0.29,3.87 0.58,7.71 6.47,11.56 17.71,11.53l536.85 -1.68c12.97,-0.04 24.79,-3.94 35.46,-11.69l49.4 -33.62c4.93,-3.44 7.33,-6.03 7.23,-7.75 -0.2,-2.58 -3.74,-3.85 -10.67,-3.84l-319 0.98c-11.24,0.04 -17.16,-4.23 -17.8,-12.82 -0.08,-0.86 12.75,-67.42 38.48,-199.65 1.77,-11.17 9.57,-16.76 23.41,-16.81l247.67 -0.77c13.84,-0.04 26.08,-3.94 36.76,-11.69l49.31 -34.91c4.99,-2.59 7.42,-4.74 7.29,-6.47 -0.2,-2.58 -3.74,-3.85 -10.67,-3.82l-319 0.98c-11.24,0.04 -17.16,-4.23 -17.8,-12.83 -0.13,-1.72 12.67,-68.7 38.39,-200.94 1.83,-10.3 9.66,-15.49 23.5,-15.51l319 -0.98c21.62,-0.08 31.31,-15.12 29.1,-45.15 -0.63,-8.58 -6.56,-12.84 -17.8,-12.82l-679.49 2.11 0 0.05 -0.01 0.02zm-14.16 89.7c-1.96,-26.59 -14.6,-48.43 -37.88,-65.53 -23.31,-17.1 -51.81,-25.59 -85.53,-25.47l-627.62 1.95c-7.79,0.01 -11.52,2.17 -11.2,6.47 0.2,2.58 8.14,10.71 23.84,24.37 15.71,13.68 23.94,25.67 24.7,35.96 0.2,2.58 0.34,4.73 0.47,6.44l-105.44 540.97c0.05,0.86 0.17,2.15 0.29,3.87 0.56,7.71 6.48,11.56 17.73,11.53l247.94 -0.76c12.97,-0.04 20.83,-5.18 23.52,-15.45l25.96 -140.47c2.7,-10.3 10.09,-15.49 22.18,-15.51 11.23,-0.04 19.35,4.66 24.36,14.09l61.04 142.7c4.15,9.42 13.13,14.12 26.95,14.07l247.51 -0.77c10.37,-0.04 15.3,-3.48 14.78,-10.34 -0.13,-1.72 -13.77,-28.48 -40.92,-80.32 -27.18,-51.84 -41.33,-79.89 -42.52,-84.2 34.14,-6.11 65.57,-19.73 94.26,-40.84 28.71,-21.11 45.57,-44.56 50.59,-70.31l44.09 -229.28c1.15,-7.74 1.45,-15.46 0.88,-23.17l0.01 -0.01 0 0zm-468.16 310.41c-11.19,0.04 -17.06,-3.77 -17.62,-11.36 0.56,-1.74 0.81,-3.05 0.73,-3.93l60.08 -311.71c1.82,-10.37 9.62,-15.57 23.44,-15.62l103.45 -0.33c11.2,-0.04 17.1,3.8 17.67,11.53 0.13,1.72 -0.21,3.01 -1.01,3.85l-60.07 311.71c-1.82,10.3 -9.62,15.49 -23.41,15.53l-103.29 0.33 0.02 0zm-589.34 227.92c40.63,-0.13 77,-11.4 109.07,-33.8 32.07,-22.41 51.3,-49.09 57.66,-80l96.8 -499.78c-0.13,-1.72 -0.21,-2.99 -0.29,-3.85 -0.58,-7.74 -6.06,-11.56 -16.43,-11.53l-247.92 0.76c-13.84,0.04 -21.69,5.18 -23.52,15.45l-105.55 539.7c-1.77,11.23 -9.54,16.85 -23.35,16.87l-102.23 0.33c-11.23,0.04 -17.13,-4.23 -17.76,-12.82 -0.08,-0.86 -0.17,-2.15 -0.29,-3.85l105.53 -539.7c-0.13,-1.72 -0.21,-3.01 -0.29,-3.85 -0.58,-7.71 -6.47,-11.56 -17.71,-11.53l-319 0.98c-7.79,0.04 -11.55,1.77 -11.3,5.18 0.18,2.55 8.13,10.71 23.84,24.37 15.71,13.68 23.94,25.67 24.7,35.96 0.2,2.58 0.34,4.73 0.47,6.44l-85.42 443.08c-2.02,7.74 -2.76,15.46 -2.17,23.18 1.96,26.59 14.57,48.24 37.86,64.89 23.29,16.67 51.76,24.94 85.49,24.83l431.81 -1.33 0.02 0 0 0.03zm-1163.89 -9.64c0.56,7.71 6.47,11.56 17.71,11.53l247.67 -0.77c12.97,-0.04 20.81,-5.21 23.5,-15.53l104.13 -540.97c1.83,-10.3 9.67,-15.49 23.5,-15.53l175.06 -0.54c21.62,-0.05 31.31,-15.12 29.1,-45.15 -0.58,-7.74 -6.47,-11.56 -17.71,-11.53l-752.11 2.34c-7.79,0.01 -11.55,1.74 -11.3,5.18 0.13,1.72 13.64,14.97 40.54,39.78 7.48,7.7 18.14,11.53 31.98,11.49l175.06 -0.54c11.23,-0.04 17.16,4.23 17.8,12.83 0.05,0.86 0.13,1.72 0.2,2.55l-105.44 541c0.05,0.85 0.17,2.15 0.29,3.85l0.01 -0.01 0 0.04zm-924.28 -553.98c0.2,2.58 0.34,4.73 0.47,6.44l-105.44 541c0.08,0.86 0.17,2.15 0.29,3.85 0.56,7.74 6.47,11.56 17.71,11.53l103.74 -0.33c12.97,-0.04 20.79,-5.21 23.5,-15.51l73.17 -397.99c1.35,-5.16 2.88,-7.74 4.63,-7.75 2.65,0.85 4.5,2.55 5.58,5.13l194.25 401.03c4.15,9.42 13.13,14.12 26.97,14.07l247.67 -0.77c13.84,-0.04 21.65,-5.22 23.5,-15.51l115.52 -597.65c0.73,-1.72 1.09,-3.01 1.01,-3.87 -0.63,-8.58 -6.56,-12.84 -17.8,-12.82l-103.74 0.33c-13.84,0.04 -21.64,5.64 -23.41,16.81l-74.47 398.01c-0.49,5.16 -2.02,7.74 -4.61,7.74 -2.72,-1.72 -4.61,-3.84 -5.66,-6.41l-192.95 -401.03c-5.01,-9.42 -14.45,-14.11 -28.26,-14.07l-319 0.98c-7.79,0.01 -11.52,2.17 -11.19,6.47 0.18,2.58 8.13,10.71 23.84,24.37 15.71,13.68 23.94,25.67 24.7,35.96l0 0 -0.02 -0.01zm-765.08 -66.21c-7.79,0.01 -11.52,2.17 -11.2,6.47 0.2,2.58 8.14,10.71 23.85,24.37 15.71,13.68 23.93,25.67 24.7,35.96 0.18,2.58 0.34,4.73 0.47,6.44l-105.44 540.97c0.05,0.86 0.17,2.15 0.29,3.87 0.56,7.71 6.47,11.56 17.71,11.53l536.85 -1.68c12.97,-0.04 24.79,-3.94 35.46,-11.69l49.4 -33.62c4.93,-3.46 7.33,-6.03 7.21,-7.75 -0.18,-2.58 -3.74,-3.84 -10.64,-3.82l-319 0.98c-11.24,0.04 -17.16,-4.23 -17.8,-12.82 -0.05,-0.85 12.75,-67.4 38.48,-199.65 1.77,-11.15 9.57,-16.76 23.41,-16.81l247.68 -0.77c13.84,-0.04 26.08,-3.94 36.76,-11.71l49.31 -34.9c4.99,-2.59 7.44,-4.74 7.29,-6.45 -0.18,-2.58 -3.74,-3.85 -10.64,-3.84l-319 0.98c-11.24,0.04 -17.16,-4.23 -17.8,-12.82 -0.13,-1.72 12.67,-68.7 38.39,-200.94 1.83,-10.3 9.66,-15.49 23.5,-15.51l319 -0.98c21.6,-0.08 31.31,-15.12 29.1,-45.15 -0.63,-8.58 -6.56,-12.84 -17.8,-12.82l-679.49 2.11 -0.04 0 -0.02 0.04zm-390.17 627.68c12.97,-0.04 22.5,-5.64 28.59,-16.83 215.22,-400.58 322.77,-601.74 322.64,-603.44 -0.43,-6 -4.99,-8.99 -13.61,-8.97l-103.74 0.33c-13.84,0.04 -23.41,5.21 -28.68,15.53l-264.65 492.56c-2.21,5.16 -4.18,7.74 -5.92,7.75 -2.59,0.01 -4.07,-2.55 -4.47,-7.71l-73.8 -491.5c-1.62,-10.29 -9.35,-15.42 -23.17,-15.37l-319 0.98c-9.52,0.04 -14.07,2.62 -13.69,7.76 0.2,2.58 8.43,14.78 24.74,36.61 16.31,21.84 25.72,38.33 28.29,49.48l103.01 518.46c2.49,10.29 10.21,15.41 23.18,15.37l320.3 -0.98 -0.02 -0.01 0 -0.01zm-1219.35 -564.55c0.2,2.58 0.34,4.73 0.47,6.44l-105.44 541c0.05,0.86 0.17,2.15 0.29,3.85 0.58,7.74 6.47,11.56 17.71,11.53l556.29 -1.73c39.77,-0.13 75.91,-11.39 108.41,-33.8 32.5,-22.41 51.47,-49.51 56.92,-81.28l78.16 -400.58c1.15,-7.74 1.45,-15.46 0.88,-23.17 -1.96,-26.59 -14.6,-48.43 -37.88,-65.53 -23.31,-17.1 -51.81,-25.59 -85.53,-25.47l-627.62 1.95c-7.79,0.04 -11.52,2.17 -11.19,6.47 0.18,2.58 8.14,10.71 23.84,24.37 15.71,13.68 23.94,25.67 24.7,35.96l0 0 -0.01 -0zm312.21 -9.97l103.44 -0.33c11.2,-0.04 17.1,3.8 17.67,11.53 0.13,1.72 -0.21,3.01 -1.01,3.87l-92.84 483.01c-2.63,11.17 -10.43,16.77 -23.41,16.81l-103.73 0.33c-11.24,0.04 -17.16,-4.22 -17.8,-12.74 0.17,-0.86 0.2,-2.15 0.05,-3.84l94.21 -483.01c1.82,-10.38 9.62,-15.59 23.44,-15.62l-0.04 -0.01 0.02 0.01zm-873.8 388.1c0.63,8.58 -4.23,12.88 -14.61,12.92l-177.65 0.56c-7.79,0.04 -11.86,-2.54 -12.24,-7.7 -0.13,-1.72 0.54,-4.29 2.02,-7.74l127.47 -206.36c2.29,-4.29 5.16,-6.45 8.61,-6.47 2.59,0 4.49,2.12 5.66,6.41l60.74 208.33 0 0.02 -0 0.03z"/>
  <path class="fil1" d="M9326.8 14849.65l3421.36 2389.54 -2228.68 0 -3421.35 -2389.54 2228.66 0 0 0 0 0zm7615.27 0c-407.12,349.64 -753.49,762.12 -1281.11,910.58l-1117.84 314.55 1667.22 1164.41 -2205.97 0 -2026.23 -1413.9c238.56,-114.16 361.02,-161.98 631.08,-169.09l1434.22 -3.53c200.1,-0.86 345.22,-171.72 484.96,-291.48l-2614.64 0 -953.74 470.64 -827.7 -578.1 818.91 -404.07 5990.93 0 -0.04 0.01 -0.03 -0.02zm255.89 0l1995.74 0 -1406.3 2389.54 -1365.62 0 -523.84 -365.86 1300.04 -2023.68 -0.01 0 0 0zm3471.32 1359.51l346.12 -538.79 -2158.99 0 -317.09 538.79 2129.96 0zm-1329.84 -1359.51c771.18,0 1542.38,0 2313.58,0l-289.99 451.41 -2289.25 0 248.57 -422.36 17.1 -29.05 0 0 -0.01 -0zm1072.31 2389.54l-2478.63 0 378.82 -643.68 2517.33 0 -417.5 643.68 0 0 -0.02 0zm-12303.82 0c-666.4,0 -1332.79,0 -1999.21,0l2451.68 -1209.82 827.7 578.1 -1280.2 631.73 0.01 0 0.01 -0.01z"/>
  <path class="fil2" d="M20107.48 10139.93l331.81 322.21 -1176.21 94.89 483.87 48.84 231.19 95.98 -428.84 46.54 -362.59 101.06 691.82 -26.9 529.19 427.61 -245.7 129.02 -863.1 -763.51 407.37 602.42 356.78 302.92 160.49 43.15c1521.01,-32.31 3000.57,24.27 4592.67,-0.59 175.88,2.91 401.42,-91.19 585.74,-189.08 80.72,-75.6 63.55,-158.41 -68.21,-240.86 -971.42,-489.84 -1914.87,-926.26 -2815.42,-1366.91l-304.29 41.22 -161.73 -85.44 400.32 6.61 -436.09 -194.34 -266.7 1.23 -653.73 -278.82 531.19 -74.29 -73.05 -282.71 -860.15 151.99 -219.34 -282.88 -245.46 -5.94 213.25 223.44 -613.52 -230.06 264.65 -68.84 -411.85 -104.3 -149.48 37.62 -340.11 -150.71 -652.97 -110.04 426.5 303.43 -377.96 20.02 -1266.73 -487.76 167.65 136.38 927.14 358.18 -287.23 33.75 -797.83 -350.57 149.6 110.04 401.47 188.08 -428.1 -71.51 -402.49 -221.91 -249.88 -297.32 -167.69 2.83 448.15 452.39 -1984.22 -314.73 170.14 77.48 1937.84 345.74 132.83 125.93 -428.67 50.78 -2856.12 -551.52 135.51 71.24 2188.73 533.43 -518.56 66.59 258.62 15.2 450.73 -32.61 442.27 114.54 -764.36 47.96 590.94 51.56 489.28 -38.81 380.54 64.52 103.01 132.61 117.85 -85.89 276.93 54.23 233.66 186.67 296.01 -29.02 147.19 29.73 -252.19 56.92 452.57 26.56 -244.14 36.29 316.68 86.11 469.77 27.57 114.83 99.55 -455.95 2.79 299.8 97.75 236.42 -7.23 167.96 149.07 -232.29 -0.97 351.88 113.44 0.09 0 0.02 -0.06zm-2754.55 -1494.79l168.21 120.61 113.62 -11.24 -166.56 -101.53 -115.27 -7.84 0 0zm222.52 175.46l184.16 185.87 187.82 21.57 -258.05 -211.29 -113.91 3.87 -0.02 -0.01zm-21.24 150.61l-491.36 -102.64 334.59 -31.01 156.77 133.65 0 0zm1192.62 -113.53l-419.73 -79.46 352.17 -19.4 200.85 98.26 -133.3 0.59 0.01 0.01 -0 -0zm29.53 -91.06l382.6 -9.2 210.52 132.61 -351.44 -26.97 -241.69 -96.44 0 0 0.01 0zm500.81 -12.81l221.41 139.58 823.24 120.01 -702.48 -254.27 -342.17 -5.33 0 0.01zm-737.94 138.09l203.35 111.1 387.37 3.7 -135.64 -73.33 -455.09 -41.49 0 0.01 0 -0zm-555.86 -100.13l-169.67 11.15 322.57 208.77 458.07 -2.63 -435.91 -188.02 -175.06 -29.26 0 -0.01 0.01 0zm749.01 299.18l-462.42 2.4 806.76 218.19 -344.33 -220.6 0 0.01zm429.05 -179.4l183.78 101.47 537.8 -0.08 -721.58 -101.4 0 0 0 0.01zm599.38 365.29l-516.56 -187.45 -324.5 10.47 466.15 263.6 374.91 -86.63 0 0.01 -0 0zm88.56 -94.98l203.53 43.59 477.64 -68.99 -749.53 -31.34 68.36 56.76 0 -0.01 0 0zm1654.95 379.75l-511.14 -257.79 218.71 261.72 292.42 -3.93 0.02 0zm-582.82 3.77l-566.15 -227.29 438.98 -64.93 254.15 295.45 -126.99 -3.22 0.01 -0zm-412.44 20.11l-370.29 -152.52 204.97 161.77 165.32 -9.26 0 0.01zm-552.15 -192.72l-350.96 61.66 388.91 126.15 137.54 -2.45 -175.49 -185.37 0 0.01 0 -0zm253.14 618.1l-172.68 -162.02 105.6 6.22 251.56 67.49 36.1 56.96 -220.59 31.35 0 0 0.01 0zm386.51 369.68l-279.22 -270.55 191.25 -6.73 145.13 282.73 -57.15 -5.46 -0.02 0 0.01 0zm50.42 -289.18l158.83 -12.83 188.23 178.75 -196.98 65.44 -150.07 -231.35 0 -0.01 -0.01 0zm630.11 65.44l-317.03 -61.84 130.81 126.85 186.22 -65.01 0 0 -0 0zm143.6 89.66l-223.73 70.18 120.82 118.87 169.51 -14.31 -66.61 -174.76 0 0.01zm-212.22 236.45l-468.65 10.47 344.22 -140.1 124.43 129.66 0 -0.01 0 -0.01zm382.38 -230.66l68.87 143.26 161.74 -58.02 -230.61 -85.24 0 0zm-796.12 -434.83l498.06 109.37 -231.79 -123.27 -266.25 13.9 -0.01 0 0 0zm1157.16 -3.81l-273.67 55.66 -196.34 -91.67 338.66 -39.18 131.35 75.21 0 -0.01 0 -0.01zm317.14 246.43l179.7 107.56 -97.12 61.8 -507.21 -126.79 -37.49 -103.45 462.13 60.88 -0.02 0 0.01 0zm203.84 -89.29l210.68 138.94 202.75 -123.07 -413.45 -15.84 0.01 -0.01 0.01 -0.01z"/>
  <path class="fil0" d="M22086.76 11470.27l-641.97 0 -323.93 -208.24 -374.29 -580.13 65.73 -247.92 605.87 0 193.53 299.98 -286.85 0 253.38 436.33 314.99 0 193.53 299.98 0.02 0.01 -0.01 -0zm662.94 0l-581.46 0 -193.54 -299.98 173.19 0 -253.4 -436.33 -201.3 0 -193.54 -299.98 617.56 0 323.93 208.24 374.29 580.13 -65.75 247.92 0.01 -0.01 -0 0zm2408.78 -299.98l-1080.17 0 193.53 299.98 528.89 0c157.4,0 357.76,-183.89 357.76,-299.98zm-1161.64 0l-333.92 0c-41.52,0 -77.35,-68.17 -37.18,-68.17 270.12,0 525.84,0 795.96,0l-193.54 -299.98c-319.85,0 -485.95,0 -805.8,0 -41.52,0 -77.35,-68.17 -37.18,-68.17l330.14 0 887.42 0 -193.54 -299.98 -805.92 0 192.23 297.94c-26.72,0.67 -53.44,1.35 -80.15,2.03l-193.54 -299.98 -750.25 0c-107.21,47.44 -143.12,112.08 -94.49,243.6 42.23,114.2 218.71,214.7 314.97,270.66 -147.82,287.23 195.98,522.02 385.5,522.02l812.86 0 -193.54 -299.98 -0.01 0 -0.02 -0.01zm-3264.37 299.98l-581.46 0 -193.54 -299.98 173.19 0 -253.4 -436.33 -201.29 0 -193.54 -299.98 617.56 0 323.93 208.24 374.29 580.13 -65.75 247.92 0 -0.01 0 0zm-662.92 0l-641.97 0 -323.93 -208.24 -374.29 -580.13 65.73 -247.92 605.87 0 193.54 299.98 -286.88 0 253.4 436.33 314.99 0 193.54 299.98 -0.01 0.01 0.02 -0z"/>
  <path class="fil1" d="M26734.54 6893.97c-75.26,-31.4 -149.05,-64.3 -221.4,-98.65l-361.37 -127.46 62.19 57.89 520.58 168.2 0 0.02 0 -0.01zm-532.96 -260.37c-86.36,-48.98 -170.21,-100.18 -251.61,-153.61l118.95 110.76 132.67 42.85 0 0.01 0 -0.01zm-390.85 -248.86c-739.13,-526.56 -1252.85,-1241.83 -1497.05,-2082.12l-387.84 -926.21c125.18,1215.82 600.6,2252.69 1579.57,3032.28l31.27 10.11 -773.51 -906.77 1126.91 1020.94 106.74 34.48 -186.12 -182.71 0.04 0 0 -0.02zm-104.92 174.86c1.74,1.26 3.53,2.5 5.29,3.77l230.44 74.43 -73.1 -69.84 -227.24 -80.14 64.61 71.77 0 0 0.01 0.01zm112.51 77.94c109.76,73.66 225.01,144.57 345.6,212.72l-150.71 -143.99 -194.88 -68.72 -0 -0.01zm535.32 315.41c24.54,12.67 49.27,25.22 74.25,37.68l-219.54 -215.52 -83.56 -29.45 228.84 207.31 0 0 0.01 -0.02zm220.53 108.19c93.99,43.95 190.75,86.5 290.55,127.51l37.75 -168.77 -599.84 -211.54 271.55 252.8 0 0 0 -0zm-504.53 -422.23l-102.52 -36.17 74.25 67.26 89.37 28.88 -61.09 -59.98 -0.01 0zm-473.18 -200.84l205.56 66.45 -1038.86 -992.5 833.31 926.06 0 -0.01 -0.01 0z"/>
  <path class="fil1" d="M27064.31 6597.48c-75.26,-31.39 -149.05,-64.29 -221.4,-98.65l-361.37 -127.46 62.19 57.89 520.58 168.2 0 0.02 0 -0.01zm-532.96 -260.37c-86.36,-48.98 -170.21,-100.18 -251.61,-153.6l118.95 110.76 132.67 42.85 0 0 0 -0.01zm-390.85 -248.86c-739.13,-526.56 -1252.85,-1241.83 -1497.05,-2082.12l-387.84 -926.21c125.18,1215.82 600.6,2252.69 1579.57,3032.28l31.27 10.11 -773.51 -906.77 1126.91 1020.94 106.74 34.48 -186.12 -182.71 0.04 0 0 -0.02zm-104.92 174.86c1.74,1.24 3.53,2.5 5.29,3.74l230.44 74.43 -73.1 -69.84 -227.24 -80.14 64.61 71.8 0.01 0.01zm112.52 77.94c109.76,73.66 225.01,144.59 345.6,212.72l-150.71 -143.99 -194.88 -68.72 -0 -0.01zm535.32 315.41c24.54,12.67 49.27,25.22 74.25,37.68l-219.54 -215.52 -83.56 -29.45 228.84 207.31 0 0 0.01 -0.02zm220.53 108.19c93.99,43.96 190.75,86.53 290.55,127.51l37.75 -168.77 -599.84 -211.54 271.55 252.8 0 0 0 -0zm-504.53 -422.23l-102.52 -36.17 74.25 67.26 89.37 28.88 -61.09 -59.99 0 0.01 -0.01 0zm-473.18 -200.82l205.56 66.43 -1038.86 -992.5 833.31 926.06 0 0 -0.01 0.01z"/>
  <path class="fil1" d="M27394.1 6300.96c-75.26,-31.39 -149.05,-64.29 -221.4,-98.65l-361.37 -127.46 62.19 57.89 520.58 168.2 0 0.02 0 -0.01zm-532.96 -260.37c-86.36,-48.98 -170.21,-100.18 -251.61,-153.6l118.95 110.76 132.67 42.85 0 0 0 -0.01zm-390.85 -248.85c-739.13,-526.58 -1252.85,-1241.83 -1497.05,-2082.12l-387.84 -926.21c125.18,1215.82 600.6,2252.69 1579.57,3032.28l31.27 10.11 -773.51 -906.77 1126.91 1020.94 106.74 34.48 -186.12 -182.71 0.04 0 0 -0.02zm-104.92 174.86c1.74,1.24 3.53,2.5 5.29,3.74l230.44 74.43 -73.1 -69.84 -227.24 -80.14 64.61 71.77 0 0.02 0.01 0.01zm112.51 77.94c109.76,73.66 225.01,144.59 345.6,212.72l-150.71 -143.99 -194.88 -68.72 -0 -0.01zm535.32 315.41c24.54,12.67 49.27,25.22 74.25,37.68l-219.54 -215.52 -83.56 -29.45 228.84 207.31 0 0 0.01 -0.02zm220.53 108.19c93.99,43.96 190.75,86.53 290.55,127.51l37.75 -168.77 -599.84 -211.54 271.55 252.8 0 0 0 -0zm-504.53 -422.23l-102.52 -36.17 74.25 67.26 89.37 28.88 -61.09 -59.99 0 0.01 -0.01 0zm-473.18 -200.82l205.56 66.45 -1038.86 -992.51 833.31 926.06 -0.01 0z"/>
  <path class="fil2" d="M13782.24 14232.39l10319.53 15.01 -667.04 -301.77 -2512.87 -81.19 1845.56 -390.5 -1680.92 225.27 303.26 -165.2 -935.78 307.89 -814.47 -7.51 2720.69 -683.36 -1823 403.38 -646.09 -16.79 268.29 -116.26 -416.42 113.06 -578.66 26.05 193.29 -147.73 697.82 -96.5 2018.85 -352.94 -2552.78 324.19 473.28 -361.74 -649.29 384.08 -641.72 81.49 -199.34 15.71 415.97 -143.37 60.65 -105.13 -697.49 245.31 -66.88 25.88 -785.21 61.85 726.46 -603.37 -155.96 -7.51 -831.3 628.64 -406.96 -107.17 545.08 -130.98 -648.4 80.11 -51.89 9.58 -420.53 -113.84 20.41 -13.41 251.27 -397.99 -225.27 -15.03 -329.25 330.4 -10.41 14.88 -2155.72 -645.66 43.33 1712.13 -0.09 0.02 0 0.04zm6454.61 -611.49l-727.3 160.93 -164.62 -7.51 450.77 -195.32 441.18 41.9 -0.02 0zm-834.43 19.14l-265.46 164.32 -242.6 -37.54 159.6 -121.98 348.46 -4.79 0 0 0 -0zm-1247.46 -75.96l773.85 49.22 233.64 -177.45 -903.22 80 -104.25 48.25 -0.02 -0.01 0 -0.01zm733.4 81.34l-838.5 -32.16 -134.61 63.42 831.8 82.61 141.3 -113.87 0.02 0 -0.01 0zm-910.19 -106.32l-166.88 107.55 -480.11 -64.04 646.99 -43.51 0 0 0 0zm-1071.63 8.99l-576.91 -36.61 286.84 -72.48 290.07 109.1 0 0 0 -0.01zm-449.27 -154.98l-335.57 88.32 -199.29 -60.07 186.41 -122.39 348.46 94.15 0 0 -0 -0.01zm-606.92 -163.98l-92.58 132.16 -545.88 -247.81 61.79 -40.16 576.67 155.82 0 -0.01z"/>
  <path class="fil0" d="M13765.45 13568.44l1245.73 511.07c3030.21,55.96 6060.42,111.92 9090.62,167.91 -2729.97,-189.4 -5459.95,-378.82 -8189.9,-568.22 -724.33,-386.31 -1448.65,-772.61 -2172.96,-1158.93l26.52 1048.17 0 0 -0 0.01z"/>
  <path class="fil2" d="M13268.78 14232.39l-10319.53 15.01 667.04 -301.77 2512.87 -81.19 -1845.56 -390.5 1680.92 225.27 -303.26 -165.2 935.78 307.89 814.47 -7.51 -2720.69 -683.36 1823 403.38 646.09 -16.79 -268.29 -116.26 416.42 113.06 578.66 26.05 -193.29 -147.73 -697.82 -96.5 -2018.85 -352.94 2552.78 324.19 -473.28 -361.74 649.29 384.08 641.72 81.49 199.34 15.71 -415.97 -143.37 -60.65 -105.13 697.49 245.31 66.88 25.88 785.21 61.85 -726.46 -603.37 155.96 -7.51 831.3 628.64 406.96 -107.17 -545.08 -130.98 648.4 80.11 51.89 9.58 420.53 -113.84 -20.41 -13.41 -251.27 -397.99 225.27 -15.03 329.25 330.4 10.41 14.88 2155.72 -645.66 -43.33 1712.13 0.09 0.02 0 0.04zm-6454.59 -611.49l727.3 160.93 164.62 -7.51 -450.77 -195.32 -441.18 41.9 0.02 0zm834.43 19.14l265.46 164.32 242.6 -37.54 -159.6 -121.98 -348.46 -4.79 0 0 0 -0zm1247.46 -75.96l-773.85 49.22 -233.64 -177.45 903.22 80 104.25 48.25 0.02 -0.01 0 -0.01zm-733.4 81.34l838.5 -32.16 134.61 63.42 -831.8 82.61 -141.3 -113.87 -0.02 0 0.01 0zm910.2 -106.32l166.88 107.55 480.11 -64.04 -646.99 -43.51 0 0 -0 0zm1071.63 8.99l576.91 -36.61 -286.84 -72.48 -290.07 109.1 0 0 0 -0.01zm449.27 -154.98l335.57 88.32 199.29 -60.07 -186.41 -122.39 -348.46 94.15 0 0 0 -0.01zm606.92 -163.98l92.58 132.16 545.88 -247.81 -61.79 -40.16 -576.67 155.82 -0 -0.01z"/>
  <path class="fil0" d="M13285.59 13568.44l-1245.73 511.07c-3030.21,55.96 -6060.42,111.92 -9090.61,167.91 2729.97,-189.4 5459.95,-378.82 8189.9,-568.22 724.33,-386.31 1448.65,-772.61 2172.96,-1158.93l-26.52 1048.17 0 0 0 0.01z"/>
  <path class="fil0" d="M10652.3 0.01l3633.69 3236.68 -2366.97 0 -3633.69 -3236.68 2366.96 0 0.01 0 -0 0zm-950.58 1510.48l-2688.36 1721.12 -705.28 38.99c-423.05,50.65 -725.49,271.02 -1021.82,560.02l-180.71 185.67c-1068.63,1085.65 -2224.97,2118.92 -3268.85,3231.6 -488.39,520.58 -1606.54,1730.58 -1734.67,2413.72l-13.17 113.34c-35.66,-38.72 -49.58,-49.42 -69.46,-108.81 -113.4,-338.83 301.01,-1077.25 458.76,-1348.19 1014.33,-1742.22 3272.84,-4106.47 4784.35,-5577.66 290.7,-282.95 591.91,-575.54 889.22,-850.7 624.79,-567.05 1443.51,-1164.73 2112.57,-1725.56l1437.41 1346.43 0 0.02 0.02 0.01zm9038.43 -1510.48c-432.4,473.58 -800.25,1032.32 -1360.64,1233.39l-1187.23 426.06 1770.69 1577.23 -2342.9 0 -2152 -1915.16c253.36,-154.63 383.42,-219.41 670.25,-229.04l1523.22 -4.78c212.52,-1.17 366.65,-232.6 515.05,-394.82l-2776.92 0 -1012.93 637.48 -879.07 -783.04 869.71 -547.33 6362.74 0 0.01 0 0.01 0zm271.78 0l2119.6 0 -1493.58 3236.68 -1450.37 0 -556.36 -495.58 1380.72 -2741.1 0 -0.01 -0.01 0.01zm3686.74 1841.46l367.59 -729.8 -2292.96 0 -336.76 729.8 2262.13 0zm-1412.36 -1841.46c819.05,0 1638.1,0 2457.16,0l-307.99 611.44 -2431.32 0 263.99 -572.11 18.17 -39.32 0 0 0 -0.01zm1138.85 3236.68l-2632.44 0 402.33 -871.87 2673.53 0 -443.41 871.87 0 0zm-13067.4 0c-707.77,0 -1415.51,0 -2123.27,0l2603.84 -1638.72 879.07 783.04 -1359.63 855.69 0 -0.02 0 0.01z"/>
  <path class="fil1" d="M27861.65 4865.36c29.79,-110.29 69.94,-273.71 109.84,-442.83l-194.67 -326.98 -573.76 -410.26 319.68 204.22 -159.18 -161.22 -855.21 -491.57 711.91 346.42 -224.98 -227.9 -318.53 -128.72 57.22 72.44 -74.43 -79.41 -550.5 -222.48 513.26 182.77 -248 -264.69 -374.03 -43.6 355.56 23.93 -199.56 -212.97 -172.43 -49.6 102.3 155.66 -284.64 -208.12 -6.69 -1.92 169.79 235.13 -223.44 -250.55 -271.6 -78.16 256.45 61.15 -53.42 -59.85 -1145.43 -853.82 1044.87 741.07 -410.55 -460.4c-324.07,-155.04 -620.52,-298.84 -821.37,-396.24 -421.81,-204.55 -421.81,-204.55 -421.81,-204.55 0,0 0,0 -0.84,8.86 -0.81,8.89 -2.47,26.61 -3.34,35.51 -0.84,8.86 -0.84,8.86 313.16,253.08 314.01,244.17 941.98,732.58 1466.72,1143.64 524.78,411.04 946.29,744.78 1210.96,959.95 264.66,215.21 372.46,311.9 455.95,404.91 83.46,93.03 142.65,182.39 179.68,264.66 37.02,82.28 51.85,157.54 85.45,275.02 33.6,117.46 85.98,277.07 120.93,356.89 34.95,79.84 52.54,79.8 114.55,-149.48l0.05 -0.01 0.04 -0zm111.49 -449.83c12.08,-51.31 24.15,-103.09 35.87,-154l-184.68 -132.07 148.81 286.06 0 0.01zm48.15 -207.46c6.99,-30.59 13.84,-60.7 20.41,-89.98l-61.17 -35.17 28.38 117.24 12.38 7.91 0 0 0 -0.01zm47.62 -212c6.32,-28.68 9.9,-45.01 17.73,-81.33 7.8,-36.27 16.51,-77.01 23.55,-112.81l-19.29 -3.87 -198.71 -80.34 52.75 218.03 123.98 60.32 0 0 -0.02 0zm57.28 -280.75c17.04,-103.36 15.17,-152.61 -1.2,-205.96l-303.11 -82.14 47.58 196.7 256.73 91.4 0 -0.01zm-37.71 -293.3c-21.57,-41.85 -48.98,-84.79 -79.84,-125.18l-227.77 -39.11 27.97 115.74 279.63 48.54 0 0.02 0.01 -0.01zm-147.04 -203.19c-45.91,-46.63 -101.71,-88.78 -204.67,-143.26l29.36 121.39 175.29 21.89 0 -0.01 0.01 -0.01zm-330.4 -205.07c-17.32,-8.04 -35.53,-16.31 -54.73,-24.92 -107.58,-48.21 -246.18,-106.1 -418.38,-178.71l74.39 143 172.05 11.59 206.34 92.34 -345.28 -40.25 64.14 123.24 356.27 44.43 -54.8 -170.71 0.01 0 0 -0.01zm-640.68 -272.57c-225.6,-95.27 -551.08,-241.15 -729.71,-322.25 -178.62,-81.13 -37.06,-16.87 -55.86,-25.46l299.89 333.46 556.46 132.68 -70.78 -118.44 0 0.01zm-1040.61 -465.22l-5.41 -2.5 311.12 394.08 105.75 25.26 -411.47 -416.82 0 -0.01zm-89.59 -41.71c-90.32,-42.18 -182.05,-85.27 -273.76,-128.64l118.1 86.95 155.66 41.68 0 0.01zm-355.73 -167.41c-30.05,-14.21 -60.02,-28.47 -89.93,-42.69l356.7 493.94 59.74 48.2 112.22 26.76 -438.76 -526.22 0.02 0.01 0 0zm601.75 721.71l-138.48 -166.08 -104.37 -30.04 242.85 196.11 0 0zm-122.05 -185.71l151.35 36.05 -430.95 -446.33 279.61 410.28 -0.01 0 0 0zm1575.74 1297.61l195.02 124.61 -75.43 -126.73 -251.41 -144.5 131.82 146.63 0 0 0 -0.01zm-258.66 -287.66l293.19 142.68 -130.25 -218.78 -363.48 -146.91 200.57 223.05 -0.02 -0.01 0 -0.01zm-880.75 -860l154.1 156.05 -135.81 -9.11 -144.73 -183.34 126.44 36.42 0 0 0 -0.02zm184.59 186.97l123.8 125.35 -176.93 -22.06 -95.22 -120.61 148.35 17.32 0 0 0 0zm134.11 135.8l211.25 213.98 -283.62 -101.01 -114.52 -145.04 186.89 32.07 -0.01 0 0.01 -0zm299.67 245.47l-206.34 -229.43 408.38 70.03 72.82 122.36 -0.92 -0.17 0.98 0.25 101.83 171.13 -376.79 -134.18 0.01 0 0.01 0.01zm-220.01 -244.7l-112.2 -124.71 439.73 51.28 73.49 123.46 -401.05 -49.99 0.02 -0.02 0 -0.01zm-144.58 -160.79l-108.88 -121.11 516.13 148.52 -407.25 -27.41 0 0 -0.01 0zm1333.44 1271.01l-39.22 -122.11 -225.32 -129.53 64.35 123.74 200.19 127.91 0 -0.01zm-339.17 -395.07l251.63 122.45 -71.24 -221.78 -293.87 -118.76 113.49 218.08 -0.01 0 0.01 0.01zm-157.28 -302.25l307.69 109.51 -62.52 -194.73 -336.96 -91.32 91.8 176.55 0 -0.01zm-97.76 -187.92l328.23 56.97 -37.64 -117.2 -353.45 -60.65 62.86 120.86 0 0.01 0 0.01z"/>
 </g>
</svg>
