<?xml version="1.0" encoding="UTF-8"?>
  <!DOCTYPE svg PUBLIC "-//W3C//DTD SVG 1.1//EN" "http://www.w3.org/Graphics/SVG/1.1/DTD/svg11.dtd">
  <!-- Creator: CorelDRAW -->
  <svg xmlns="http://www.w3.org/2000/svg" xml:space="preserve" width="423.469mm" height="207.759mm" version="1.1" style="shape-rendering:geometricPrecision; text-rendering:geometricPrecision; image-rendering:optimizeQuality; fill-rule:evenodd; clip-rule:evenodd"
  viewBox="0 0 42332.6 20768.9"
   xmlns:xlink="http://www.w3.org/1999/xlink"
   xmlns:xodm="http://www.corel.com/coreldraw/odm/2003">
   <defs>
    <style type="text/css">
     <![CDATA[
      .fil1 {fill:#000000}
      .fil0 {fill:#ff0000}
     ]]>
    </style>
   </defs>
   <g id="Camada_x0020_1">
    <metadata id="CorelCorpID_0Corel-Layer"/>
    <path class="fil0" d="M3834.6 19796.21c1768.57,-323.1 3633.09,-819.47 5383.71,-1248.99 385.58,-92.5 767.77,-185.56 1153.37,-279.07 -1078.56,274.89 -2166.45,548.28 -3252.38,810.29 -1091.11,263.28 -2190.41,512.5 -3277.91,718.4 -272.61,45.29 -548.57,88.02 -817.75,131.88 -119.48,31.98 -238.99,64.5 -358.48,97.01 2498.25,307.72 4999.08,473.26 7503.84,609.22 61.41,-13.97 122.8,-27.43 184.24,-42.88 392.32,-97.4 993.99,-304.6 1523.65,-464.32 256.22,-77.75 509.21,-165.13 768.81,-242.82 122.21,5.24 309.5,168.44 550.62,359.77 227.82,176.52 495.98,375.86 792.77,495.83 1375.64,15.45 2754.79,24.92 4134.05,28.37 139.67,-21.06 245.44,-45.78 296.94,-75.51 109.8,-59.31 216.19,-118.17 322.59,-178.07l-103.12 -308.41c-57.83,-182.98 -77.98,-195.92 -231.91,-324.84 -591.04,-379.11 -1178.68,-758.64 -1769.67,-1140.74l358.86 -117.61c92.26,-29.51 191.24,-66.66 280.24,-91.41 163.67,-45.53 373.13,32.41 511.21,99.23 202.03,99.16 433.85,242.08 628.8,357.68 418.49,254.03 2754.69,1743.98 2944.19,1755.11 1560.4,-56.09 3121.69,-135.45 4679.2,-245.15 1561.85,-110.03 3123.01,-234.75 4684.48,-349.61 197.29,-13.49 394.58,-27 591.89,-41.52 815.84,-587.21 1632.04,-1167.76 2443.85,-1746.64 979.75,-698.64 1972.88,-1409.31 2946.75,-2124.95 -163.24,8.58 -326.46,16.67 -486.28,24.32 -1434.92,68.42 -2869.66,135.67 -4301.1,190.72 -1434.52,55.18 -2869.16,99.14 -4303.54,137.89 -3.43,1.95 -3.47,3.46 -6.9,5.41 -3.37,-1.57 -6.74,-3.12 -10.1,-5.21 -1553.23,35.11 -3109.6,65.59 -4659.08,73.16 -1615.25,7.89 -3286.67,-6.6 -4905.08,-37.37l-1619.99 -29.92c-392.17,81.3 -836.09,205.91 -1235.6,316.75 -536.09,149.07 -983.45,276.62 -1088.29,250.6 -164.93,-84.4 -343.03,-192.18 -531.27,-303.13 -221.87,-130.17 -453.79,-267.57 -692.96,-379.96 -3.39,-0.05 -3.39,-0.54 -3.38,-1.07 -1941.85,-78.99 -3886.86,-170.12 -5828.29,-271.72 1109.91,689.15 2218.56,1382.72 3336.11,2061.23 -1429.78,364.52 -2848.88,712.71 -4292.95,1050.7 1444.07,-337.99 2863.18,-686.18 4292.95,-1050.7 -1078.56,274.89 -2166.45,548.28 -3252.38,810.29 -1091.11,263.28 -2190.41,512.5 -3277.91,718.4 -3.4,-0.07 -6.79,-0.63 -6.79,-0.63zm21809.61 -1423.44c-644.62,140.05 -1285.85,278.66 -1923.63,414.82 433.08,166.55 680.67,259.61 1022.02,406.52 110.62,-105.02 217.94,-214.64 314.63,-301.84 196.78,-172.82 390.2,-346.7 586.98,-519.5z"/>
    <path class="fil1" d="M31261.13 19808.05c406.15,-290.12 815.68,-578.19 1225.21,-866.72 -1237.85,66.45 -2475.77,136.92 -3710.31,209.48 90.5,-493.36 812.43,-399.84 1237.56,-425.78 1006.7,-59.6 2016.75,-117.14 3026.76,-171.66 337.25,-237.09 674.47,-472.7 1011.71,-709.3 -347.93,-109.83 -3389.49,128.88 -3943.57,145.97 37.4,-188.3 286.02,-408.91 531.22,-441.64 698.15,-93.87 3042.99,-130.66 4124.72,-205.97 320.07,-226.87 643.56,-455.18 963.68,-684.03 -2628.15,111.03 -5259.55,212.48 -7890.64,297.87 -68.61,24.11 -2004.86,1806.76 -2210.52,1993.1 -151.98,137.43 -622.22,589.18 -828.79,552.3 -297.99,-53.18 -1474.75,-543.93 -1671.87,-727.4 1510.5,-315.9 2742.33,-449.08 3934.64,-1524.58 331.79,-299.28 206.09,-307.89 -188.29,-294.89 -961.99,31.72 -1927.48,65.23 -2889.24,82.69 -47.58,0.87 -91.77,1.35 -135.94,1.55 -2245.88,13.48 -4494.55,-7.88 -6746.2,-50.2 -149.43,-2.79 -295.45,-6.37 -441.47,-10.04 -1045.85,157.9 -2301.16,812.01 -2762.35,577.99 -414.04,-210.53 -860.37,-515.16 -1278.16,-706.16 -1405.48,-57.2 -2804.01,-120.81 -4209.24,-191.07 70.37,54.05 144.12,108.14 217.89,162.26 219.32,150.05 2320.3,1376.72 2468.03,1596.69 -1826.81,464.33 -3659.22,909.11 -5497.31,1331.84 -300.21,68.43 -562.06,82.77 -665.8,182.91 1819.13,100.88 3645.35,185.84 5471.84,256.7 348.31,-98.21 741.6,-240.83 1373.51,-427.34 263.02,-78.62 516.01,-165.99 765.38,-241.39 450.95,-138.04 949.69,460.49 1467.31,767.41 1399.21,26.93 2798.58,45.81 4198.04,59.69 -28.79,-98.53 -12.68,-50.48 -109.7,-133.17 -389.56,-249.29 -779.6,-498.86 -1168.64,-750.42 -386.62,-249.98 -779.03,-503.61 -1171.93,-756.5 -6.4,-21.73 -23.4,-21.02 -33.38,-32.76 41.47,-38.45 31.18,-33.63 106.7,-76.46 464.72,-147.86 929.47,-297.21 1390.82,-446.62 625.03,-181.63 801.25,-344.75 1592.47,-325.36 1228.91,51.47 2461.37,93.98 3690.68,123.35 -164.5,78.91 -631.56,355.38 -801.71,370.36 -421.7,38.1 -1272.57,-16.63 -1715,-35.67 -241.02,-10.92 -1374.48,-80.25 -1540.24,68.5 -17.25,14.77 11.16,133.87 27.64,161.34 39.52,68.56 161.1,108.94 235.03,152.5 331.31,199.93 2669.23,1656.42 2768.95,1677.02 1631.56,-46.23 3260.69,-116.68 4889.33,-217.21 1629.67,-100.61 3258.56,-215.68 4891.17,-319.19z"/>
    <path class="fil0" d="M4928.89 15142.39c1768.41,-323.07 3633.22,-819.48 5383.72,-1249 385.57,-92.51 767.76,-185.55 1153.36,-279.07 -1078.56,274.89 -2166.45,548.29 -3252.38,810.3 -1091.11,263.28 -2190.41,512.5 -3277.91,718.39 -272.61,45.29 -548.57,88.03 -817.75,131.88 -119.48,32 -238.99,64.5 -358.48,97.02 2498.25,307.72 4999.08,473.25 7503.84,609.21 61.41,-13.97 122.8,-27.41 184.24,-42.88 392.37,-97.44 993.97,-304.54 1523.66,-464.31 256.21,-77.75 509.2,-165.13 768.8,-242.82 122.21,5.23 309.5,168.44 550.62,359.77 227.82,176.51 495.98,375.85 792.77,495.82 1375.65,15.46 2754.79,24.92 4134.05,28.38 139.68,-21.06 245.44,-45.78 296.94,-75.51 109.8,-59.32 216.19,-118.18 322.59,-178.07l-103.12 -308.43c-57.83,-182.97 -77.97,-195.9 -231.91,-324.83 -591.04,-379.1 -1178.68,-758.63 -1769.67,-1140.74l358.86 -117.61c92.26,-29.5 191.24,-66.65 280.24,-91.4 163.67,-45.53 373.13,32.41 511.21,99.24 202.03,99.16 433.85,242.06 628.8,357.67 418.48,254.02 2754.72,1743.98 2944.19,1755.1 1560.4,-56.09 3121.69,-135.44 4679.2,-245.15 1561.85,-110.02 3123.01,-234.75 4684.48,-349.6 197.29,-13.49 394.58,-27.01 591.89,-41.52 815.84,-587.21 1632.04,-1167.77 2443.85,-1746.65 979.74,-698.64 1972.89,-1409.32 2946.75,-2124.95 -163.24,8.59 -326.46,16.67 -486.28,24.33 -1434.92,68.42 -2869.66,135.65 -4301.1,190.72 -1434.52,55.18 -2869.16,99.13 -4303.54,137.89 -3.43,1.95 -3.47,3.46 -6.9,5.41 -3.37,-1.56 -6.74,-3.13 -10.1,-5.21 -1553.23,35.11 -3109.59,65.58 -4659.08,73.15 -1615.25,7.9 -3286.67,-6.6 -4905.08,-37.36l-1619.99 -29.93c-392.17,81.31 -836.09,205.93 -1235.6,316.76 -536.08,149.06 -983.45,276.62 -1088.29,250.59 -164.93,-84.39 -343.03,-192.17 -531.27,-303.13 -221.87,-130.16 -453.79,-267.56 -692.96,-379.95 -3.39,-0.06 -3.39,-0.55 -3.38,-1.07 -1941.85,-79 -3886.86,-170.13 -5828.29,-271.71 1109.91,689.14 2218.57,1382.7 3336.11,2061.21 -1429.78,364.53 -2848.88,712.71 -4292.95,1050.71 1444.07,-338 2863.18,-686.18 4292.95,-1050.71 -1078.56,274.89 -2166.45,548.29 -3252.38,810.3 -1091.11,263.28 -2190.41,512.5 -3277.91,718.39 -3.4,-0.06 -6.79,-0.62 -6.79,-0.62zm21809.61 -1423.45c-644.62,140.05 -1285.85,278.67 -1923.63,414.82 433.08,166.56 680.67,259.61 1022.02,406.53 110.62,-105.03 217.94,-214.64 314.63,-301.84 196.78,-172.82 390.2,-346.71 586.98,-519.51z"/>
    <path class="fil1" d="M32355.42 15154.22c406.15,-290.12 815.68,-578.2 1225.21,-866.72 -1237.85,66.45 -2475.77,136.92 -3710.31,209.48 90.5,-493.36 812.43,-399.84 1237.56,-425.78 1006.7,-59.62 2016.76,-117.14 3026.76,-171.66 337.25,-237.09 674.47,-472.7 1011.71,-709.3 -347.93,-109.85 -3389.49,128.88 -3943.57,145.96 37.4,-188.3 286.02,-408.91 531.22,-441.63 698.15,-93.87 3042.99,-130.67 4124.72,-205.97 320.07,-226.87 643.56,-455.18 963.68,-684.03 -2628.15,111.03 -5259.55,212.48 -7890.64,297.86 -68.61,24.12 -2004.86,1806.78 -2210.52,1993.11 -151.98,137.43 -622.22,589.18 -828.79,552.29 -297.99,-53.17 -1474.75,-543.92 -1671.87,-727.39 1510.5,-315.9 2742.33,-449.08 3934.64,-1524.59 331.79,-299.27 206.09,-307.89 -188.29,-294.89 -961.99,31.72 -1927.48,65.24 -2889.24,82.7 -47.58,0.87 -91.77,1.35 -135.94,1.55 -2245.88,13.48 -4494.55,-7.88 -6746.2,-50.21 -149.43,-2.79 -295.45,-6.38 -441.47,-10.03 -1045.85,157.9 -2301.16,812.02 -2762.35,577.98 -414.04,-210.54 -860.37,-515.15 -1278.16,-706.15 -1405.47,-57.2 -2804.01,-120.81 -4209.24,-191.08 70.37,54.06 144.13,108.15 217.89,162.27 219.32,150.04 2320.3,1376.71 2468.03,1596.69 -1826.81,464.32 -3659.22,909.1 -5497.31,1331.84 -300.21,68.42 -562.06,82.76 -665.8,182.91 1819.13,100.87 3645.35,185.84 5471.84,256.69 348.31,-98.2 741.6,-240.82 1373.51,-427.34 263.02,-78.61 516.01,-165.98 765.38,-241.38 450.96,-138.05 949.69,460.49 1467.31,767.41 1399.21,26.93 2798.58,45.82 4198.04,59.69 -28.79,-98.53 -12.68,-50.48 -109.69,-133.18 -389.57,-249.28 -779.61,-498.85 -1168.65,-750.41 -386.62,-249.99 -779.03,-503.61 -1171.93,-756.5 -6.4,-21.73 -23.4,-21.03 -33.38,-32.77 41.47,-38.44 31.18,-33.63 106.7,-76.46 464.72,-147.85 929.48,-297.2 1390.82,-446.61 625.03,-181.63 801.25,-344.76 1592.47,-325.37 1228.91,51.47 2461.37,93.99 3690.68,123.36 -164.5,78.9 -631.56,355.37 -801.71,370.36 -421.7,38.1 -1272.57,-16.64 -1715,-35.67 -241.02,-10.93 -1374.48,-80.26 -1540.24,68.49 -17.25,14.78 11.16,133.88 27.64,161.34 39.52,68.56 161.1,108.95 235.04,152.51 331.3,199.93 2669.22,1656.42 2768.94,1677.02 1631.57,-46.23 3260.69,-116.69 4889.33,-217.21 1629.67,-100.61 3258.56,-215.69 4891.17,-319.19z"/>
    <path class="fil0" d="M-0 235.75c48.01,192.3 19.24,98.65 322.32,337.42l4123.19 3219.98c560.91,445.67 798.78,769.93 1242.46,772.3l3761.09 -13.09c-43.5,-178.62 -470.95,-458 -637.92,-587.79l-2096.05 -1669.05c-492.09,-388.71 -928.67,-725.54 -1407.11,-1118.01 -235.92,-193.52 -435.95,-348.49 -690.47,-548.53 -262.68,-206.4 -424.42,-446.17 -834.83,-446.1l-3636.26 3.85c-322.74,53.86 199.26,-59.87 -76.89,19.18l-69.54 29.83zm5730.2 8340.73c-12.39,592.1 308.47,1946.77 397.96,2605.38 757.16,26.81 1550.7,4.72 2311.72,3.76 305.28,-0.36 883.3,91.24 1088.02,-70.42l2461.24 -2328.48c873.42,-882.62 1345.64,-616.44 2347.06,146.16 450.19,342.88 908.16,691.43 1357.94,1027.74l1350.91 1034.97c331.97,276.96 329.86,189.25 975.3,189.34 347.73,0.08 854.74,33.21 1182.68,-14.47 -108.29,-224.55 -3551.21,-2755.87 -3929.72,-3059.93 -979.95,-787.27 -778.48,-715.57 -1599.65,-713.07 -1509.44,4.64 -3014.78,1.84 -4524.15,-4.65 -378.88,-1.61 -1981.45,-66.72 -2197.08,70.37 -165.28,105.03 -419.46,390.95 -600.38,550.62 -192.27,169.6 -415.29,401.8 -621.87,562.66zm13443.38 1920.51c133.91,-196.81 627.57,-2093.17 665.7,-2431.55 -64.17,-78.05 -650.35,-639.11 -801.14,-669.32 -296.53,-59.35 -3683.06,-14.64 -4048.84,-13.13 55.46,96.63 -3.76,23.29 90.29,119.5 27.09,27.69 82.6,71.16 126.95,105.08l1832.9 1376.52c311.63,231.23 1883.13,1495.12 2134.14,1512.9zm-1483.11 -5950.52l600.17 -645.71c0.47,-4.71 0.9,-9.47 1.28,-14.38 -254.05,-243.21 -1298.08,-775.03 -1668.81,-983.52 -578.58,-325.31 -1114.79,-651.12 -1685.38,-962.11 -696.31,-379.45 -360.75,-384.51 -1517.85,613.87 -126.18,108.83 -204.51,180.21 -352.29,291.02 -134.73,101.04 -718.89,725 -1217.31,852 -602.38,153.51 -1506.1,-518.15 -1842.85,-788.66l-2996.39 -2326.62c-557.52,-418.04 -259.67,-408.25 -921.78,-402.25 -447.75,4.06 -901.02,-6.93 -1347.72,9.64 104.33,148.79 537.87,461.01 681.77,574.65l4134.31 3304.63c197.92,158.08 511.87,491.99 789.46,491.9l6342.64 -3.27c246.32,0 751.26,56.52 1000.74,-11.2z"/>
    <path class="fil1" d="M18147.25 6465.97c2.84,-112.07 299.07,-815.84 367.38,-972.27l501.61 8.15c-19.56,128.76 -82.22,282.95 -120.78,393.1 -72.21,206.14 -46.27,183.64 -193.36,289.81 -178.56,128.86 -312.86,315.52 -554.84,281.22zm-12431.81 -1231.52l1137.7 1.4c91.78,76.85 186.96,173.37 275.76,244.29 110.04,88.19 380.16,-135.39 634.67,-243.25l2847.15 3.43c105.47,0.2 139.74,6.97 52.63,141.41 -309.83,478.39 -636.93,513.78 -1045.02,635.17 54.32,86.33 377.13,331.91 458.39,362.92 56.38,21.49 177.19,-175.86 216.47,-235.92 152.63,-233.92 302.39,-472.23 455.89,-704.98 35.24,-53.42 96.92,-148.02 133.73,-195.15l2142.06 3.59 -288.63 358.38c-290.5,10.37 -920.27,-30.53 -1108.33,-2.49 -65.44,9.84 -129.85,109.99 -138.55,199.81 148.4,6.09 964.83,-32.62 1059.25,29.14l-265.85 320.77 -812.59 1.66c-114.32,0.37 -309.35,-64.78 -328.63,168.33l995.98 5.3 -320.93 387.27 -2617.99 -9.36 -766.96 -757.8c-20.33,-19.18 -52.87,-36.77 -64.14,-67.79 -4.37,-12.07 -13.6,-65.3 -9.27,-72.03 43.84,-67.15 338.15,-40.16 418.81,-42.46 194.51,-2.7 296.21,28.01 471.41,5.84 45.14,-5.66 203.83,-169.25 247.05,-203.19l-1042.42 3.13c-212.49,-6.4 -259.69,67.08 -425.89,151.06l-369.68 207.4c-19.81,19.49 -17.08,17.27 -28.37,34.85 26.45,44.48 582.3,585.93 661.69,678.65 27.06,36.38 21.14,15.14 31.24,59.11l-1126.02 -4.12c-144.51,-132.4 -289.06,-394.56 -407.46,-328.21l-559.87 324.93 -1467.69 -5.35c25.53,-47.51 95.04,-60.78 174.61,-98.08l1447.24 -694.74c-38.89,-91.73 -548.23,-551.48 -667.45,-662.93zm7907.59 257.36l1212 8.92 -100.29 298.08 -1089.86 18.45c-36.51,68.73 -75.17,145.88 -87.48,256.84l1029.58 -0.22c-59.68,94.78 -174.45,171.88 -258.33,247.26 -160.19,143.94 -135.96,120.78 -380.59,118.77 -250.23,-2.02 -716.36,-33.62 -942.69,10.26 -39.19,82.72 -77.47,153.61 -65.48,241.84 297.24,35.25 1024.11,14.19 1413.25,23.31 266.56,6.22 358.68,-163.13 676.18,-351.18 120.45,-71.37 201.61,-100.08 268.83,-264.36 53.3,-130.33 356.05,-758.05 345.48,-856.02 -373.54,-5.1 -1343.63,-16.5 -1673.76,6.67 -113.57,8.01 -287.63,152.15 -346.85,241.39zm2431.7 977.65c-7.11,-104.28 298.12,-848.69 366.92,-970.7l485.71 9.76c4.36,76.92 -125.74,551.43 -289.41,664.24 -184.45,127.16 -315.74,318.34 -563.21,296.71zm-823.79 273.48c283.84,23.68 597.8,14.99 881.4,15.4 533.87,0.85 503.22,-68.28 1018.8,-437 105.4,-75.37 201.13,-107.57 264.34,-254.41 79.81,-185.53 268.11,-632.37 311.7,-824.27l-1873.7 0 -602.55 1500.28zm2114.15 8.73c293.85,-2.12 589.76,14.5 884.11,10.06 606.28,-9.04 479.33,-93.51 1011.34,-455.68 108.74,-74.07 197.37,-94.32 266.65,-257.34 63.55,-149.53 294.83,-633.38 290.04,-801.89l-1884.99 -4.19c-90.26,322.51 -518.81,1244.53 -567.15,1509.04z"/>
    <path class="fil0" d="M36602.42 8399.54c12.38,592.1 -308.47,1946.78 -397.96,2605.39 -757.17,26.8 -1550.7,4.71 -2311.72,3.75 -305.29,-0.35 -883.31,91.24 -1088.03,-70.42l-2461.24 -2328.48c-873.42,-882.62 -1345.64,-616.44 -2347.05,146.17 -450.2,342.88 -908.17,691.42 -1357.94,1027.73l-1350.92 1034.98c-331.96,276.95 -329.85,189.24 -975.3,189.33 -347.73,0.08 -854.73,33.22 -1182.67,-14.47 108.29,-224.55 3551.2,-2755.86 3929.72,-3059.93 979.94,-787.27 778.48,-715.56 1599.64,-713.07 1509.45,4.64 3014.79,1.84 4524.15,-4.65 378.89,-1.61 1981.45,-66.72 2197.08,70.37 165.29,105.03 419.47,390.95 600.39,550.63 192.26,169.6 415.28,401.79 621.87,562.65zm-11960.28 -4030.01c-66.48,-71.54 -598.93,-627.68 -601.44,-660.08 254.05,-243.21 1298.08,-775.04 1668.81,-983.53 578.57,-325.31 1114.78,-651.12 1685.37,-962.11 696.31,-379.45 360.76,-384.5 1517.86,613.88 126.18,108.82 204.51,180.2 352.29,291.01 134.72,101.04 718.88,725.01 1217.3,852 602.38,153.51 1506.1,-518.15 1842.85,-788.66l2996.4 -2326.61c557.51,-418.05 259.67,-408.26 921.78,-402.26 447.74,4.06 901.02,-6.92 1347.71,9.65 -104.33,148.78 -537.86,461 -681.77,574.65l-4134.3 3304.62c-197.92,158.08 -511.88,491.99 -789.47,491.9l-6342.63 -3.27c-246.32,0 -751.27,56.52 -1000.75,-11.2zm17690.47 -4310.72c-48.01,192.3 -19.23,98.65 -322.32,337.43l-4123.19 3219.97c-560.9,445.67 -798.77,769.93 -1242.46,772.31l-3761.09 -13.09c43.51,-178.62 470.95,-458 637.93,-587.8l2096.05 -1669.04c492.09,-388.72 928.67,-725.55 1407.11,-1118.02 235.92,-193.52 435.95,-348.49 690.46,-548.53 262.68,-206.39 424.42,-446.17 834.84,-446.09l3636.25 3.84c322.75,53.86 -199.26,-59.87 76.89,19.18l69.54 29.83zm-19173.57 10261.25c-133.91,-196.82 -627.57,-2093.18 -665.71,-2431.56 64.17,-78.05 650.35,-639.11 801.14,-669.32 296.53,-59.35 3683.07,-14.64 4048.85,-13.13 -55.46,96.64 3.75,23.29 -90.29,119.5 -27.1,27.69 -82.6,71.16 -126.96,105.08l-1832.9 1376.53c-311.63,231.22 -1883.13,1495.11 -2134.13,1512.9z"/>
    <path class="fil1" d="M35921.52 6289.03c2.84,-112.07 299.07,-815.83 367.39,-972.27l501.6 8.15c-19.56,128.76 -82.21,282.95 -120.78,393.1 -72.21,206.14 -46.27,183.64 -193.36,289.81 -178.56,128.86 -312.86,315.52 -554.84,281.22zm-12431.81 -1231.52l1137.7 1.4c91.78,76.85 186.96,173.37 275.76,244.3 110.04,88.18 380.16,-135.4 634.67,-243.26l2847.15 3.43c105.47,0.2 139.74,6.97 52.63,141.42 -309.83,478.38 -636.93,513.77 -1045.02,635.16 54.32,86.33 377.13,331.91 458.39,362.93 56.39,21.48 177.19,-175.87 216.47,-235.92 152.63,-233.93 302.39,-472.23 455.89,-704.99 35.24,-53.41 96.92,-148.02 133.73,-195.15l2142.06 3.59 -288.63 358.39c-290.5,10.37 -920.27,-30.54 -1108.33,-2.5 -65.44,9.85 -129.85,109.99 -138.55,199.82 148.4,6.08 964.83,-32.63 1059.25,29.13l-265.85 320.77 -812.59 1.66c-114.32,0.37 -309.35,-64.78 -328.63,168.33l995.98 5.3 -320.93 387.28 -2617.99 -9.37 -766.96 -757.8c-20.33,-19.18 -52.87,-36.77 -64.13,-67.79 -4.38,-12.06 -13.61,-65.29 -9.28,-72.03 43.84,-67.15 338.15,-40.16 418.81,-42.45 194.51,-2.7 296.21,28 471.41,5.84 45.14,-5.67 203.84,-169.26 247.05,-203.2l-1042.42 3.14c-212.49,-6.4 -259.69,67.07 -425.89,151.05l-369.68 207.4c-19.81,19.49 -17.07,17.27 -28.37,34.86 26.45,44.47 582.3,585.92 661.69,678.64 27.06,36.38 21.14,15.15 31.24,59.11l-1126.02 -4.12c-144.51,-132.4 -289.06,-394.55 -407.46,-328.2l-559.87 324.93 -1467.69 -5.36c25.54,-47.51 95.04,-60.77 174.61,-98.08l1447.24 -694.74c-38.89,-91.73 -548.23,-551.48 -667.45,-662.93zm7907.59 257.36l1212 8.92 -100.29 298.08 -1089.86 18.45c-36.51,68.73 -75.17,145.89 -87.48,256.84l1029.58 -0.21c-59.67,94.77 -174.45,171.87 -258.33,247.26 -160.19,143.93 -135.96,120.77 -380.59,118.76 -250.23,-2.01 -716.36,-33.61 -942.69,10.26 -39.19,82.72 -77.47,153.61 -65.48,241.84 297.24,35.26 1024.11,14.2 1413.25,23.32 266.56,6.22 358.68,-163.14 676.18,-351.19 120.45,-71.37 201.61,-100.08 268.83,-264.35 53.3,-130.33 356.05,-758.06 345.48,-856.03 -373.54,-5.1 -1343.62,-16.49 -1673.76,6.68 -113.57,8 -287.63,152.15 -346.85,241.38zm2431.7 977.65c-7.11,-104.27 298.12,-848.69 366.92,-970.69l485.71 9.75c4.36,76.93 -125.74,551.43 -289.4,664.24 -184.46,127.17 -315.75,318.34 -563.22,296.71zm-823.79 273.48c283.84,23.69 597.8,14.99 881.4,15.4 533.87,0.85 503.22,-68.28 1018.8,-436.99 105.4,-75.38 201.13,-107.58 264.34,-254.42 79.81,-185.52 268.11,-632.36 311.71,-824.26l-1873.71 0 -602.55 1500.27zm2114.15 8.73c293.85,-2.11 589.76,14.5 884.11,10.06 606.28,-9.04 479.33,-93.51 1011.35,-455.68 108.73,-74.07 197.36,-94.32 266.64,-257.34 63.55,-149.53 294.83,-633.38 290.05,-801.89l-1885 -4.19c-90.26,322.51 -518.81,1244.54 -567.15,1509.04z"/>
   </g>
  </svg>
  