<?xml version="1.0" encoding="UTF-8"?>
<!DOCTYPE svg PUBLIC "-//W3C//DTD SVG 1.1//EN" "http://www.w3.org/Graphics/SVG/1.1/DTD/svg11.dtd">
<!-- Creator: CorelDRAW -->
<svg xmlns="http://www.w3.org/2000/svg" xml:space="preserve" width="570mm" height="287.072mm" version="1.1" style="shape-rendering:geometricPrecision; text-rendering:geometricPrecision; image-rendering:optimizeQuality; fill-rule:evenodd; clip-rule:evenodd"
viewBox="0 0 76776.79 38667.48"
 xmlns:xlink="http://www.w3.org/1999/xlink"
 xmlns:xodm="http://www.corel.com/coreldraw/odm/2003">
 <defs>
  <style type="text/css">
   <![CDATA[
    .fil1 {fill:black}
    .fil2 {fill:#D9D9D9}
    .fil0 {fill:red}
   ]]>
  </style>
 </defs>
 <g id="Camada_x0020_1">
  <metadata id="CorelCorpID_0Corel-Layer"/>
  <path class="fil0" d="M61657.54 4870.38c3972.5,-1644.11 7944.99,-3288.24 9936,-4100.8 1991,-812.55 2000.49,-793.55 2005.25,-755.54 4.75,38.01 4.75,95.04 -2318.86,2371.15 -144.96,142 -298.97,292.63 -461.46,451.35l-10224.49 4317.54 1063.56 -2283.71zm5001.48 2008.87c-2106.8,2042.02 -4551.94,4407.12 -6997.24,6772.43 -883.84,399.15 -1767.66,798.3 -2651.49,1197.45l2350.11 -5046.27 7298.62 -2923.61z"/>
  <path class="fil1" d="M24290.66 8164.53c0,195.79 -10.72,152.14 35.36,335.57 83.38,331.86 385.5,625.06 633.19,843.28 121.31,106.88 246.45,251.79 366.8,367.13 20.11,19.23 30.87,23.41 50.83,41.93 142.63,132.46 271.59,280.73 417.42,409.33 61.64,54.31 122.41,122.13 181.57,181.23l236.18 227.77c85.83,80.06 360.64,384.57 419.81,406.92 40.44,15.23 823.68,4.69 906.77,4.32l-1942.47 -1769.33c-140.82,-135.34 -378.97,-328.42 -485.24,-442.76 -163.08,-175.46 -269.23,-455.89 -84.33,-654.1 221.21,-237.15 671.77,-383.95 992.36,-492.38l1923.47 -674.73 3287.85 -1158.01c367.71,-121.54 731.02,-259.88 1096.72,-388.09 95.27,-33.42 184.6,-63.15 274.42,-96.62 258.78,-96.46 583.49,-195.92 822.98,-290.78l549.6 -192.63 822.87 -290.77c273.81,-94.41 546.07,-199.35 822.45,-291.06 90.66,-30.08 178.04,-65.44 274.08,-97.13 643.81,-212.42 926.43,-409.21 1162.08,-1065.08l285.68 -810.75c-78.68,26.09 -145.51,58.18 -222.94,89.13l-4833.91 1974.01 -2521.05 1030.36c-1400.61,564.75 -2799.48,1149.48 -4200.11,1713.6 -263.01,105.95 -573.35,218.77 -795.25,385.82 -241.05,181.45 -411.71,386.85 -469.28,677.93l-7.93 25.89zm13379.5 4665.05l0 -312.13 -295.27 0.03 -724.99 -1197.88 -1248.97 0.19 0.3 303.34 328.52 0.26 -489.16 902.57 -312.1 0.4 0.5 303.12 1003.32 0.48 -0.01 -312.48 -278.5 0.08 92.9 -177.25 793.24 0.08c11.53,43.52 106.44,142.21 118.02,185.56l-286.88 -0.03 0 303.56 1299.08 0.09zm-1737.9 -809.59l463.96 -0.31 -252.93 -379.49 -211.03 379.8zm-6343.78 -396.51l287.06 -0.11 -0.2 902.98 -286.73 -0.43 -0.16 304.04 953.81 -0.26 -0.66 -312.16 -295.13 -0.07 0 -758.8 808.24 1038.72c41.39,53.99 112.81,32.08 237.86,32.08 235.93,0 472.59,-1.85 708.45,0.22l0.31 -1214.73 303.39 -0.22 0.13 -295.23 -978.76 0 0.23 303.52 303.94 0.26 -11.97 770.85c-6.65,-8 -9.5,-11.58 -14.94,-18.84l-817.7 -1055.28 -1197.22 -0.48 0.04 303.93zm-5264.07 0.04l278.82 -0.22 -0.43 902.83 -278.31 -0.27 -0.04 304.09 1205.98 -0.43 0.3 -312.05 -295.2 0.01 0 -286.98 893.7 0.51 0.59 294.93 -295.56 0 0.15 303.63 1198.47 0.12 -0.61 -312.16 -286.73 -0.05 -0.3 -902.52 287.63 -0.07 -0.55 -295.23 -1198.58 -0.05 0.34 303.5 295.15 0.18 0.59 295.28 -894.29 -0.04 -0.08 -303.79 294.98 0.09 0.07 -295.05 -1206.08 -0.19 0 303.93zm8166.12 -0.11l295.04 -0.26 0.23 903.27 -295.15 -0.51 -0.15 303.89 1138.84 -0.32c283.85,-0.04 276.77,10.84 555.55,-18.1 332.35,-33.78 598.64,-120.74 697.91,-457.55 30.24,-102.81 28.77,-202.19 28.74,-300.36 -0.13,-495.28 -396.34,-733.92 -826.71,-733.92l-1594.32 0.04 0 303.82zm902.61 894.07c321.3,-0.01 840.49,61.15 906.45,-375.78 36.06,-238.37 -83.66,-449.49 -351.85,-499.51 -192.68,-35.96 -366.7,-27.45 -555.45,-27.45l0.85 902.73zm-3970.45 -140.52c103.77,-214.91 93.87,-539.09 -61.85,-753.89 -249.52,-344.08 -880.87,-421.26 -1269.03,-366.04 -38.64,5.51 -73.57,1 -111.38,6.69 -387.97,58.46 -795.04,215.47 -872.27,662.99 -24.42,141.59 -5.05,315.43 34.94,420.94 300.53,792.75 1970.62,669.48 2279.58,29.31zm-991.53 -786.01c-521.02,-140.91 -872.18,524.35 -434.6,881.82 569.75,465.42 1255.62,-659.8 434.6,-881.82zm2270.91 -1646.47c-79.77,0.01 -717.34,79.27 -893.53,93.6 -163.88,13.28 -372.72,47.6 -540.32,58.59l-357.09 39.34 -1249.74 133.81 -545.02 54.28c1.86,1.13 5.1,-0.08 5.99,2.51 76.92,33.81 108.63,107.68 196.89,174.66 80.05,60.76 373.59,382.62 482.71,470.49 35.76,24.23 131.36,10.29 183.66,10.33l4589.3 0c-23.33,-32 -1544.29,-916.3 -1709.93,-1014.98 -83.42,-50.21 -74.5,-31.82 -162.91,-22.64zm2454.84 -1585.9l-6841.57 1223.16 166.52 162.38 88.87 79.9c29.23,28.26 53.99,58.81 84.47,84.25l126.04 118.57c19.19,17.77 27.26,19.83 46.62,37.71 30.5,28.11 53.6,57.29 84.39,84.35 17.47,15.37 34.83,20.97 47.45,38.17 26.6,36.33 4.96,2.53 2.45,17.77 -1.79,10.6 -28.77,0.15 2.75,9.54 7.44,0.22 45.2,-16.18 101.25,-16.89l1302.73 -148.17c264.38,-36 599.18,-66.16 872.13,-98.1 246.86,-28.89 632.72,-79.15 870.76,-99.42 147.88,-12.58 294.89,-38.64 438.38,-50.78 -33.55,-62.62 -77.02,-132.57 -2.52,-196.6 79.92,-68.64 453.93,-89.69 609.24,-107.77l1031.44 -132.74c194.25,-23.94 237.63,-15.37 456.18,-58.49 341,-67.31 768.89,-275.87 1012.36,-523 157.92,-160.26 218.5,-222.88 345.23,-422.38 22.05,-34.63 83.53,-136.37 91.14,-170.73l-936.3 169.26zm-7541.54 582.24c100.15,88.39 562.53,472.64 556.52,505.96 214.49,-49.69 610.95,-110.38 824.34,-145.89l2168.73 -370.43c13.82,-3.83 26.36,-1.29 14.01,-26.99 -27.44,-56.99 -73.57,-148.83 52.45,-201.95 100.28,-42.28 196.74,-28.95 309.87,-52.72 372.1,-78.18 4112.64,-847.13 4206.14,-847.09 175.66,0.07 579.58,-162.47 747.4,-273.34l318.02 -238.7c47.37,-39.92 103.41,-87.71 142.16,-136.35 157.93,-198.21 247.94,-287.16 378.25,-549.47 18.88,-37.96 48.26,-89.47 59.17,-134.99 -60.95,1.36 -9247.95,2337.83 -9777.07,2471.96zm2403.84 -801.67c-30.31,-47.44 -58.44,-123.02 -9.75,-178.69 47.72,-54.58 208.66,-74.28 310.06,-103.3l720.73 -190.31 2613.28 -693.69 578.71 -155.21c655.5,-161.41 1361.4,-376.87 2017.95,-538.15l1077.33 -297.67 226.52 -144.7c269.51,-194.18 555.89,-620.45 721.14,-923.8 47.02,-93.83 112.77,-202.07 155.84,-308.02l58.28 -127.5 -5847.5 1913.78 -4274.81 1393.93c-271.2,90.62 -884.83,270.79 -1081.08,412.14 -125.16,90.21 -127.89,280.22 -6.24,403.13 50.87,51.4 96.67,96.2 147.76,147.57 57.92,58.15 32.79,63.64 217.84,11.17 159.09,-45.12 318.1,-77.52 474.97,-123.96 205.2,-60.76 1855.48,-469.78 1898.97,-496.72z"/>
  <path class="fil1" d="M22088.36 8164.53c0,195.77 10.67,152.13 -35.43,335.57 -83.39,331.85 -385.49,625.1 -633.18,843.28 -120.93,106.53 -246.44,251.69 -366.82,367.13 -20.07,19.23 -30.85,23.41 -50.82,41.93 -142.56,132.46 -271.56,280.73 -417.4,409.33 -61.6,54.31 -122.44,122.13 -181.58,181.23l-236.16 227.77c-85.84,80.06 -360.69,384.57 -419.87,406.92 -40.33,15.23 -823.64,4.69 -906.73,4.32l1942.51 -1769.33c140.12,-134.7 380.21,-329.57 485.2,-442.76 162.9,-175.62 269.46,-455.83 84.36,-654.1 -221.55,-237.32 -671.54,-383.88 -992.41,-492.38l-1923.46 -674.73 -3287.83 -1158.01c-367.72,-121.54 -731,-259.88 -1096.68,-388.09 -95.26,-33.42 -184.63,-63.15 -274.4,-96.62 -258.78,-96.46 -583.56,-195.92 -823.05,-290.78l-549.61 -192.63 -822.79 -290.77c-273.89,-94.41 -546.11,-199.35 -822.54,-291.06 -90.64,-30.08 -177.96,-65.44 -274.07,-97.13 -643.91,-212.39 -926.37,-409.31 -1162.04,-1065.08l-285.68 -810.75c78.62,26.09 145.49,58.18 222.91,89.13l4833.87 1974.01 2521.12 1030.36c1400.56,564.75 2799.43,1149.48 4200.05,1713.6 263.03,105.95 573.35,218.77 795.29,385.82 241.04,181.45 411.77,386.85 469.27,677.93l7.97 25.89zm302.86 4665.05l0 -312.13 -295.27 0.03 -725.02 -1197.88 -1248.98 0.19 0.3 303.34 328.54 0.26 -489.16 902.57 -312.08 0.4 0.5 303.12 1003.31 0.48 0 -312.48 -278.57 0.08 92.94 -177.25 793.23 0.08c11.57,43.52 106.44,142.21 118.01,185.56l-286.85 -0.03 -0.05 303.56 1299.16 0.09zm-1737.92 -809.59l463.91 -0.31 -252.95 -379.49 -210.96 379.8zm-6343.8 -396.51l287.06 -0.11 -0.24 902.98 -286.69 -0.43 -0.13 304.04 953.8 -0.26 -0.66 -312.16 -295.12 -0.07 -0.04 -758.8 808.27 1038.72c41.34,53.99 112.82,32.08 237.81,32.08 235.95,0 472.65,-1.85 708.5,0.22l0.26 -1214.73 303.42 -0.22 0.13 -295.23 -978.81 0 0.32 303.52 303.9 0.26 -11.97 770.85c-6.71,-8 -9.48,-11.58 -14.91,-18.84l-817.7 -1055.28 -1197.21 -0.48 0.01 303.93zm-5264.1 0.04l278.87 -0.22 -0.48 902.83 -278.27 -0.27 -0.07 304.09 1205.95 -0.43 0.32 -312.05 -295.25 0.01 0 -286.98 893.76 0.51 0.58 294.93 -295.55 0 0.11 303.63 1198.51 0.12 -0.63 -312.16 -286.69 -0.05 -0.31 -902.52 287.63 -0.07 -0.57 -295.23 -1198.58 -0.05 0.38 303.5 295.12 0.18 0.58 295.28 -894.33 -0.04 -0.01 -303.79 294.93 0.09 0.11 -295.05 -1206.11 -0.19 0 303.93zm8166.17 -0.11l294.97 -0.26 0.26 903.27 -295.2 -0.51 -0.11 303.89 1138.86 -0.32c283.9,-0.04 276.79,10.84 555.57,-18.1 332.38,-33.78 598.67,-120.74 697.91,-457.55 30.27,-102.81 28.76,-202.19 28.72,-300.36 -0.15,-495.28 -396.32,-733.92 -826.66,-733.92l-1594.32 0.04 0 303.82zm902.55 894.07c321.37,-0.01 840.52,61.15 906.55,-375.78 35.98,-238.37 -83.69,-449.49 -351.88,-499.51 -192.79,-35.96 -366.63,-27.45 -555.45,-27.45l0.78 902.73zm-3970.38 -140.52c103.7,-214.91 93.9,-539.09 -61.91,-753.89 -249.61,-344.08 -880.81,-421.26 -1268.97,-366.04 -38.66,5.51 -73.57,1 -111.38,6.69 -388.06,58.44 -794.98,215.39 -872.27,662.99 -24.46,141.59 -5.09,315.43 34.9,420.94 300.51,792.75 1970.66,669.48 2279.62,29.31zm-991.51 -786.01c-521.07,-140.91 -872.21,524.35 -434.61,881.82 569.7,465.42 1255.57,-659.8 434.61,-881.82zm2524.74 -1646.47c79.69,0.01 717.27,79.27 893.45,93.6 163.98,13.28 372.76,47.6 540.36,58.59l357.07 39.34 1249.74 133.81 545.03 54.28c-1.87,1.13 -5.05,-0.08 -6.03,2.51 -76.83,33.81 -108.73,107.77 -196.84,174.66 -79.82,60.6 -374.13,383.14 -482.67,470.49 -35.82,24.23 -131.41,10.29 -183.73,10.33l-4589.29 0c23.32,-31.99 1544.37,-916.34 1709.95,-1014.98 83.44,-50.21 74.5,-31.82 162.96,-22.64zm-2454.89 -1585.9l6841.62 1223.16 -166.59 162.38 -88.89 79.9c-29.2,28.26 -53.93,58.81 -84.43,84.25l-126.04 118.57c-19.22,17.77 -27.26,19.83 -46.62,37.71 -30.54,28.11 -53.6,57.29 -84.39,84.35 -17.51,15.37 -34.87,20.97 -47.48,38.17 -26.62,36.33 -4.94,2.53 -2.44,17.77 1.79,10.6 28.76,0.15 -2.69,9.54 -7.44,0.22 -45.28,-16.18 -101.25,-16.89l-1302.81 -148.17c-264.38,-36 -599.17,-66.16 -872.09,-98.1 -246.82,-28.89 -632.72,-79.15 -870.72,-99.42 -147.88,-12.58 -294.88,-38.64 -438.4,-50.78 33.51,-62.62 76.99,-132.57 2.44,-196.6 -79.89,-68.64 -453.89,-89.69 -609.15,-107.77l-1031.5 -132.74c-194.22,-23.94 -237.56,-15.37 -456.18,-58.49 -340.88,-67.28 -768.99,-275.95 -1012.38,-523 -157.84,-160.26 -218.48,-222.88 -345.23,-422.38 -22.01,-34.63 -83.5,-136.37 -91.15,-170.73l936.34 169.26zm7541.6 582.24c-100.35,88.5 -562.34,472.18 -556.59,505.96 -214.5,-49.69 -610.97,-110.38 -824.31,-145.89l-2168.73 -370.43c-13.82,-3.83 -26.41,-1.29 -14.05,-26.99 123.69,-257.01 -187.75,-217.99 -362.29,-254.67 -372.22,-78.2 -4112.6,-847.13 -4206.16,-847.09 -175.63,0.07 -579.45,-162.42 -747.33,-273.34l-318.08 -238.7c-47.32,-39.92 -103.31,-87.71 -142.09,-136.35 -157.92,-198.21 -248,-287.16 -378.29,-549.47 -18.87,-37.96 -48.33,-89.47 -59.19,-134.99 60.91,1.36 9248.04,2337.84 9777.12,2471.96zm-2403.84 -801.67c30.27,-47.44 58.39,-123.02 9.74,-178.69 -47.7,-54.57 -208.67,-74.26 -310.08,-103.3l-720.69 -190.31 -2613.36 -693.69 -578.68 -155.21c-655.5,-161.41 -1361.41,-376.87 -2017.94,-538.15l-1077.34 -297.67 -226.53 -144.7c-269.55,-194.23 -555.8,-620.44 -721.11,-923.8 -47.05,-93.83 -112.79,-202.07 -155.84,-308.02l-58.32 -127.5 5847.52 1913.78 4274.8 1393.93c271.26,90.62 884.87,270.79 1081.08,412.14 125.16,90.21 127.91,280.22 6.22,403.13 -50.85,51.4 -96.63,96.2 -147.72,147.57 -57.96,58.15 -32.81,63.64 -217.86,11.17 -159.1,-45.12 -318.13,-77.52 -474.93,-123.96 -256.53,-75.98 -1808.46,-456.36 -1893.38,-493.96 -1.23,-0.54 -3.85,-1.64 -5.58,-2.76z"/>
  <path class="fil2" d="M60171.07 7820.39l1869.31 -785.06c15.19,-6.38 31.18,-4.7 43.12,4.63 12,9.29 16.45,23.44 12.06,38.24l-104.4 351.92c-2.73,9.25 0.07,18.14 7.53,23.95 7.48,5.81 17.44,6.91 26.94,2.92l140.77 -59.12c12.66,-5.32 21.54,-14.82 25.43,-27.06l111.74 -356.33c1.76,-5.59 5.47,-9.64 10.84,-11.89l174.42 -73.26c7.04,-2.95 14.57,-1.67 20.26,3.48 5.6,5.12 7.62,12.57 5.35,19.84l-93.03 296.49c-2.83,9.2 -0.15,18.24 7.34,24.12 7.44,5.91 17.58,7.03 27.09,3.04l170.04 -71.42c13.07,-5.48 22.12,-15.44 25.7,-28.19l122.72 -439.54c1.66,-5.83 5.43,-10.2 11.05,-12.55l423.62 -177.92c6.88,-2.9 14.39,-1.66 20.03,3.33 5.63,5 7.85,12.27 5.75,19.48l-139.81 500.45c-11.62,41.47 -41.06,73.87 -83.57,91.73l-647.94 272.3 -0.2 0.82 -58.98 24.96c-15.49,6.61 -36.79,11.07 -46.66,0.7 -4.19,-4.49 -9.81,-6.52 -15.96,-5.89 -6.06,0.67 -11.03,3.89 -14.24,9.15 -10.18,16.77 -30.25,40.17 -46.71,47.08l-243.84 102.41 -0.24 0.77 -391.09 164.26c-15.13,6.34 -31.17,4.69 -43.09,-4.63 -11.93,-9.33 -16.39,-23.48 -12.07,-38.25l107.18 -361.27c2.18,-7.25 0.11,-14.59 -5.55,-19.64 -5.67,-5.09 -13.17,-6.3 -20.14,-3.38l-384.67 161.55c-5.32,2.24 -9.04,6.2 -10.83,11.69l-149.04 464.28c-1.76,5.58 -5.48,9.58 -10.79,11.8l-474.7 199.36c-7.04,2.96 -14.67,1.68 -20.35,-3.46 -5.64,-5.19 -7.6,-12.74 -5.23,-19.99l128.94 -401.91c2.34,-7.3 0.34,-14.75 -5.29,-19.92 -5.63,-5.19 -13.23,-6.47 -20.29,-3.5l-565.19 237.38c-8.47,3.56 -18.04,0.69 -23.22,-7 -5.16,-7.64 -4.24,-17.6 2.24,-24.15l131.5 -132.61c1.82,-1.89 3.7,-3.15 6.16,-4.19zm4403.12 -1714.53l-9.78 18.91c-3.74,7.26 -2.6,15.72 2.92,21.78 5.6,6.02 13.99,7.81 21.51,4.66l767.53 -325.04c16.06,-6.75 33.15,-4.44 45.11,6.09 11.93,10.65 15.17,26.33 8.46,41.43 -42.36,96.29 -73.29,187.16 -116.22,285.65 -15.56,35.67 -42.81,61.95 -80.64,77.84l-1247.14 523.77c-8.23,3.45 -17.5,0.9 -22.84,-6.26 -5.25,-7.19 -4.92,-16.82 0.75,-23.68l101.12 -119.85c2.05,-2.44 4.27,-4.04 7.18,-5.27l745.61 -315.54c34.19,-14.47 66.28,-37.81 70.88,-71.69l5.62 -41.39c0.97,-7 -1.76,-13.51 -7.29,-17.81 -5.62,-4.24 -12.51,-5.16 -18.99,-2.44l-764.62 321.13c-16.07,6.75 -33.2,4.34 -45.08,-6.22 -11.92,-10.64 -15.07,-26.36 -8.38,-41.47 35.01,-78.96 64.68,-153.35 101.75,-231.8 22.58,-47.83 59.87,-82.77 111.16,-104.31l2374.73 -997.33c8.71,-3.66 18.57,-0.55 23.64,7.48 4.93,7.99 3.48,18.28 -3.66,24.54l-169.52 148.58c-1.56,1.4 -3.17,2.45 -5.13,3.27l-284.3 119.41c-5.54,2.32 -9.28,6.49 -11,12.15l-141.34 476.41c-1.64,5.62 -5.46,9.85 -10.92,12.14l-453.32 190.38c-6.96,2.92 -14.59,1.64 -20.2,-3.34 -5.58,-5.12 -7.72,-12.41 -5.59,-19.72l123.56 -416.32c2.18,-7.26 0.12,-14.59 -5.55,-19.64 -5.67,-5.09 -13.17,-6.3 -20.14,-3.38l-994.42 417.64c-29.61,12.43 -51.27,32.04 -65.37,59.21l-0.08 0.03zm4357.73 -1673.95l-198.56 83.38c-8.39,3.53 -13.04,12.18 -11.41,21.17 1.72,8.96 9.25,15.4 18.37,15.58l376.8 8.63c9.12,0.19 16.65,6.6 18.28,15.6 1.71,8.96 -3,17.66 -11.38,21.19l-648.49 270.29c-3.33,1.4 -6.51,1.8 -10.17,1.29l-520.36 -76.59c-8.66,-1.31 -15.15,-7.91 -16.2,-16.59 -1.06,-8.57 3.58,-16.57 11.65,-19.95l517.09 -216.15c0.65,-0.28 1.17,-0.59 1.85,-0.97 31.29,-17.05 47.95,-24.23 54.98,-59.78l5.55 -28.7c1.39,-7.1 -1,-13.91 -6.61,-18.44 -5.67,-4.61 -12.8,-5.62 -19.45,-2.83l-1263.84 529.67c-27.99,11.66 -50.32,25.4 -73.11,44.77l-153.2 130.17 -1.35 4.58 655.43 -275.28c8.47,-3.56 18.18,-0.65 23.29,7.09 5.16,7.64 4.14,17.65 -2.42,24.2l-135.76 134.41c-1.86,1.8 -3.66,3.04 -6.03,4.04l-566.55 237.93c-5.44,2.29 -9.2,6.47 -10.91,12.11l-12.35 41.15c-4.39,14.79 0.09,29.03 12,38.35 11.93,9.35 28.03,11.05 43.24,4.66l731.27 -307.11c8.63,-3.64 18.36,-0.63 23.41,7.21 5.13,7.72 3.91,17.91 -2.9,24.33l-147.02 139.14c-1.72,1.64 -3.49,2.76 -5.7,3.69l-716.39 300.87 -0.7 1.04 -435.65 182.96c-6.73,2.83 -13.86,1.82 -19.48,-2.71 -5.67,-4.61 -8.07,-11.42 -6.75,-18.51l48.1 -250.23c12.78,-66.28 44.49,-121.13 97.86,-169.25l300.99 -271.06 1.41 -0.59 30.17 -27.48c1.7,-1.54 3.31,-2.57 5.44,-3.48l2107.36 -887.28c15.29,-6.43 31.48,-4.66 43.48,4.84 11.96,9.4 16.24,23.81 11.61,38.71l-73.38 232.45c-9.75,30.63 -31.83,54.16 -63.5,67.47zm-5466.43 2004.9l423.07 -177.68c6.95,-2.92 14.53,-1.72 20.14,3.37 5.66,5.09 7.72,12.42 5.54,19.65l-167.25 563.95c-1.72,5.66 -5.46,9.85 -10.92,12.14l-423.08 177.68c-6.95,2.92 -14.56,1.64 -20.2,-3.33 -5.58,-5.12 -7.64,-12.46 -5.58,-19.73l167.37 -563.89c1.72,-5.66 5.46,-9.85 10.92,-12.15zm0 0z"/>
  <path class="fil1" d="M66678.68 4612.89c993.98,-415.48 1987.97,-830.95 2502.49,-1046.02 514.53,-215.07 549.61,-229.74 729.57,-398.96 179.95,-169.22 504.79,-492.99 664.9,-677.04 160.1,-184.06 155.47,-228.38 99.18,-258.47 -56.3,-30.09 -164.29,-45.96 -276.77,-29.43 -112.48,16.53 -229.5,65.42 -346.49,114.33 34.78,-74.26 69.56,-148.5 84.21,-201.67 14.65,-53.18 9.2,-85.25 3.73,-117.33 -82.41,-44.77 -164.8,-89.56 -230.79,-101.59 -65.99,-12.03 -115.54,8.69 -165.11,29.4 -1376.62,575.42 -2753.26,1150.83 -4129.88,1726.25 144.3,18.91 288.6,37.81 432.9,56.72 -142.1,377.86 -284.22,755.71 -426.33,1133.58 -919.03,384.14 -1838.08,768.29 -2757.11,1152.43 -42.81,17.89 -85.6,35.79 -117.5,12.93 -31.9,-22.86 -52.87,-86.47 138.84,-325.83 191.7,-239.37 596.08,-654.48 1000.48,-1069.6 518.32,-216.66 1036.64,-433.3 1554.96,-649.96 -141.74,-19.98 -283.49,-39.94 -425.24,-59.91 -575.02,240.35 -1150.05,480.72 -1482.56,619.71 -332.52,138.98 -422.54,176.61 -722.25,419.04 -299.71,242.41 -809.13,689.64 -1073.8,935.91 -264.66,246.28 -284.59,291.62 -324.77,425.53 -40.18,133.93 -100.6,356.43 -161.04,578.95 1809.45,-756.33 3618.91,-1512.65 5428.36,-2268.98zm1007.07 -1123.73c94.38,-100.44 188.75,-200.87 283.13,-301.32 302.18,-126.3 604.35,-252.62 776.42,-346.92 172.06,-94.31 213.99,-156.62 239.54,-214.34 25.54,-57.72 34.7,-110.84 43.84,-163.97 -609.59,254.8 -1219.2,509.62 -1828.8,764.43 -142.12,377.86 -284.22,755.71 -426.34,1133.58 570.64,-238.52 1141.29,-477.05 1492.38,-640.9 351.09,-163.84 482.62,-253.03 601.84,-362.94 119.22,-109.93 226.14,-240.61 273.19,-324.86 47.05,-84.27 34.25,-122.13 3.92,-131.05 -30.35,-8.92 -78.23,11.09 -324.33,113.97 -246.1,102.87 -690.45,288.59 -1134.79,474.32z"/>
  <path class="fil2" d="M68500.33 5093.05l-8695.59 3755.75 -267.13 573.56 7987.63 -3383c336.35,-326.26 662.06,-642.33 975.09,-946.31z"/>
  <path class="fil0" d="M51218.28 4870.38c-3972.5,-1644.11 -7944.99,-3288.24 -9936,-4100.8 -1991,-812.55 -2000.49,-793.55 -2005.25,-755.54 -4.75,38.01 -4.75,95.04 2318.86,2371.15 144.96,142 298.97,292.63 461.46,451.35l10224.49 4317.54 -1063.56 -2283.71zm-5001.48 2008.87c2106.8,2042.02 4551.94,4407.12 6997.24,6772.43 883.84,399.15 1767.66,798.3 2651.49,1197.45l-2350.11 -5046.27 -7298.62 -2923.61z"/>
  <path class="fil2" d="M43929.4 4019.02l1864.6 796.18c15.17,6.47 25.08,19.11 26.68,34.19 1.68,15.09 -5.39,28.12 -19.07,35.26l-325.39 169.92c-8.55,4.47 -12.98,12.67 -11.96,22.08 1.04,9.4 7.18,17.34 16.63,21.38l140.42 59.95c12.63,5.4 25.63,5.16 37.14,-0.57l333.66 -167.71c5.24,-2.61 10.74,-2.77 16.08,-0.48l173.99 74.28c7.03,3 11.34,9.31 11.61,16.97 0.23,7.58 -3.73,14.21 -10.53,17.65l-277.66 139.5c-8.58,4.36 -13.21,12.58 -12.22,22.06 0.92,9.44 7.17,17.52 16.65,21.56l169.61 72.43c13.05,5.56 26.49,5.15 38.15,-1.16l401.06 -217.74c5.35,-2.86 11.1,-3.19 16.7,-0.81l422.56 180.43c6.87,2.94 11.21,9.19 11.56,16.7 0.32,7.52 -3.35,14.18 -9.98,17.69l-456.71 247.83c-37.86,20.53 -81.61,21.93 -124.03,3.81l-646.43 -275.83 -0.73 0.43 -58.98 -25c-15.52,-6.52 -33.54,-18.72 -32.96,-33.01 0.31,-6.14 -2.16,-11.58 -6.88,-15.57 -4.7,-3.87 -10.47,-5.2 -16.47,-3.85 -19.14,4.35 -49.9,6.22 -66.32,-0.78l-243.22 -103.86 -0.71 0.36 -390.12 -166.57c-15.09,-6.45 -25.05,-19.11 -26.67,-34.17 -1.59,-15.06 5.47,-28.11 19.09,-35.28l334.03 -174.43c6.72,-3.49 10.56,-10.08 10.24,-17.66 -0.28,-7.61 -4.63,-13.83 -11.58,-16.81l-383.7 -163.83c-5.29,-2.26 -10.74,-2.17 -15.93,0.36l-437.16 216.04c-5.23,2.61 -10.67,2.73 -15.97,0.47l-473.5 -202.18c-7.03,-3.02 -11.41,-9.37 -11.68,-17.04 -0.2,-7.66 3.87,-14.32 10.72,-17.66l378.36 -187.07c6.87,-3.41 10.83,-10.02 10.63,-17.67 -0.2,-7.65 -4.57,-13.99 -11.61,-17l-563.76 -240.72c-8.45,-3.61 -13.05,-12.49 -11.14,-21.56 1.9,-9.01 9.7,-15.29 18.9,-15.19l186.76 2.17c2.61,-0.01 4.84,0.46 7.29,1.51zm4295.31 1969.08l-20.38 6.14c-7.81,2.36 -13.09,9.07 -13.6,17.25 -0.42,8.22 4.12,15.48 11.62,18.68l767.53 325.04c16.03,6.84 26.25,20.72 27.02,36.62 0.66,15.99 -8.36,29.23 -23.87,34.91 -98.64,36.6 -185.41,77.6 -286.01,115.31 -36.45,13.66 -74.28,12.37 -112.03,-3.76l-1243.99 -531.17c-8.2,-3.5 -12.84,-11.93 -11.41,-20.76 1.51,-8.78 8.66,-15.23 17.54,-15.93l156.44 -10.79c3.18,-0.23 5.86,0.26 8.77,1.5l745.48 315.9c34.16,14.48 73.27,21.28 100.79,1.01l33.63 -24.77c5.71,-4.18 8.47,-10.67 7.72,-17.62 -0.86,-6.99 -5,-12.58 -11.48,-15.34l-762.69 -325.67c-16.03,-6.84 -26.21,-20.81 -26.9,-36.69 -0.66,-15.96 8.45,-29.16 23.95,-34.87 81.06,-29.81 155.14,-60.28 237.28,-88.24 50.05,-17.08 101.1,-14.59 152.26,7.26l2368.75 1011.43c8.7,3.72 13.33,12.96 11.09,22.18 -2.3,9.09 -10.71,15.22 -20.16,14.44l-224.67 -18.35c-2.09,-0.15 -3.96,-0.57 -5.91,-1.4l-283.6 -121.09c-5.51,-2.36 -11.13,-2.14 -16.39,0.55l-440.48 230.01c-5.19,2.73 -10.87,2.94 -16.33,0.61l-452.16 -193.07c-6.95,-2.96 -11.34,-9.33 -11.66,-16.84 -0.22,-7.57 3.54,-14.18 10.26,-17.74l384.96 -200.97c6.73,-3.49 10.57,-10.06 10.25,-17.66 -0.28,-7.61 -4.63,-13.83 -11.58,-16.81l-991.93 -423.54c-29.53,-12.61 -58.69,-14.52 -88.01,-5.74l-0.08 -0.04zm4234.6 1964.72l-198.06 -84.56c-8.38,-3.57 -17.81,-0.89 -23.13,6.55 -5.25,7.46 -4.62,17.36 1.59,24.03l255.99 276.61c6.21,6.67 6.84,16.55 1.52,23.99 -5.24,7.46 -14.78,10.13 -23.14,6.56l-645.38 -277.64c-3.31,-1.41 -5.83,-3.41 -8,-6.4l-307.11 -427.01c-5.08,-7.11 -4.86,-16.37 0.65,-23.17 5.41,-6.72 14.4,-8.96 22.44,-5.52l515.05 220.94c0.65,0.28 1.24,0.43 1.98,0.66 34.01,10.6 50.77,17.56 81.18,-2.11l24.49 -15.99c6.06,-3.93 9.29,-10.4 8.63,-17.59 -0.65,-7.27 -4.88,-13.09 -11.5,-15.92l-1259.85 -539.08c-27.86,-11.99 -53.26,-18.45 -83.04,-21.35l-200.09 -19.45 -4.22 2.22 653.79 279.16c8.45,3.61 13.12,12.61 11.11,21.65 -1.89,9.02 -9.78,15.26 -19.06,15.11l-191.01 -3.97c-2.59,-0.08 -4.73,-0.51 -7.09,-1.51l-565.13 -241.31c-5.43,-2.32 -11.05,-2.11 -16.28,0.59l-38.15 19.76c-13.69,7.14 -20.77,20.27 -19.19,35.3 1.6,15.07 11.57,27.81 26.74,34.29l729.43 311.46c8.62,3.68 13.23,12.74 11.11,21.83 -1.98,9.05 -10.16,15.26 -19.48,14.84l-202.25 -8.77c-2.38,-0.09 -4.42,-0.57 -6.63,-1.51l-714.59 -305.13 -1.21 0.22 -434.57 -185.56c-6.71,-2.87 -10.94,-8.69 -11.6,-15.88 -0.65,-7.27 2.59,-13.73 8.59,-17.71l213.17 -139.59c56.51,-36.95 117.95,-52.34 189.65,-47.49l404.1 27.55 1.41 0.61 40.75 2.55c2.28,0.13 4.15,0.58 6.28,1.48l2103.67 896.01c15.25,6.51 25.24,19.36 26.78,34.59 1.56,15.13 -5.79,28.23 -19.72,35.26l-217.99 109.06c-28.8,14.3 -61.04,14.83 -92.64,1.33zm-5243.79 -2530.64l422.02 180.18c6.92,2.96 11.34,9.25 11.58,16.81 0.3,7.61 -3.54,14.18 -10.26,17.66l-521.38 272.3c-5.27,2.69 -10.87,2.94 -16.33,0.61l-422 -180.2c-6.94,-2.96 -11.33,-9.32 -11.66,-16.84 -0.22,-7.57 3.62,-14.14 10.29,-17.73l521.44 -272.19c5.25,-2.71 10.86,-2.94 16.31,-0.61zm0 0z"/>
  <path class="fil1" d="M47221.63 5044.8c991.42,421.55 1982.85,843.12 2496.04,1061.32 513.21,218.22 548.2,233.09 794.99,243.79 246.79,10.69 705.38,17.2 948.92,3.34 243.56,-13.89 272.05,-48.14 254.29,-109.45 -17.77,-61.31 -81.8,-149.7 -172.17,-218.69 -90.35,-68.99 -207.05,-118.63 -323.76,-168.25 77.44,-26.94 154.87,-53.88 203.18,-80.51 48.3,-26.63 67.46,-52.94 86.61,-79.24 -25.48,-90.26 -50.94,-180.52 -88.4,-236.16 -37.46,-55.63 -86.89,-76.66 -136.33,-97.67 -1373.08,-583.84 -2746.16,-1167.68 -4119.24,-1751.52 87.22,116.53 174.43,233.02 261.63,349.54 -369.74,162.07 -739.48,324.13 -1109.21,486.2 -916.66,-389.77 -1833.34,-779.54 -2750,-1169.31 -42.69,-18.16 -85.38,-36.3 -91.28,-75.09 -5.91,-38.79 25,-98.22 330.21,-128.08 305.21,-29.88 884.72,-30.17 1464.27,-30.48 516.99,219.82 1033.95,439.65 1550.95,659.47 -84.66,-115.42 -169.33,-230.84 -254,-346.28 -573.52,-243.87 -1147.09,-487.73 -1478.73,-628.75 -331.66,-141.04 -421.45,-179.21 -804.27,-224.53 -382.79,-45.33 -1058.64,-97.8 -1419.74,-115.35 -361.09,-17.54 -407.47,-0.15 -531.39,64.59 -123.93,64.73 -325.43,176.83 -526.93,288.91 1804.79,767.4 3609.57,1534.81 5414.35,2302.21zm1507.61 -63.55c137.81,-2.56 275.6,-5.1 413.4,-7.66 301.4,128.15 602.81,256.3 790.45,313.65 187.65,57.34 261.53,43.86 320.7,21.85 59.15,-22.01 103.58,-52.54 147.99,-83.08 -608.02,-258.54 -1216.06,-517.07 -1824.08,-775.61 -369.75,162.07 -739.48,324.13 -1109.22,486.2 569.17,242.01 1138.36,484.03 1500.77,620.99 362.41,136.96 518.1,168.87 680.03,177.49 161.93,8.59 330.14,-6.09 423.31,-31.22 93.17,-25.15 111.35,-60.75 96.55,-88.68 -14.8,-27.96 -62.55,-48.28 -308.02,-152.64 -245.47,-104.38 -688.66,-292.84 -1131.87,-481.28z"/>
  <path class="fil2" d="M44375.49 5093.05l8695.59 3755.75 267.13 573.56 -7987.63 -3383c-336.35,-326.26 -662.06,-642.33 -975.09,-946.31z"/>
  <path class="fil0" d="M3123.06 26340.3l17116.84 0 11756.37 -7209.1 -21707.58 0 904.92 1287.04 12213.87 0 -2098.31 1286.7 -9521.78 0 -2623.19 1608.57 9521.77 0 -2098.31 1286.7 -10626.88 0 -2837.71 1740.1zm19383.18 0l18590.71 0 11756.37 -7209.1 -18590.71 0 -11756.37 7209.1zm8753.18 -1579.29l6235.25 0 6510.15 -3992.07 -6235.25 0 -6510.15 3992.07zm12047.22 1579.29l18590.71 0 11756.37 -7209.1 -18590.71 0 -11756.37 7209.1zm8753.16 -1579.29l6235.25 0 6510.16 -3992.07 -6235.25 0 -6510.16 3992.07z"/>
  <rect class="fil2" y="17206.11" width="76776.8" height="809.88"/>
  <path class="fil0" d="M3123.06 38667.48l17116.84 0 11756.37 -7209.1 -21707.58 0 904.92 1287.02 12213.87 0 -2098.31 1286.71 -9521.78 0 -2623.19 1608.55 9521.77 0 -2098.31 1286.71 -10626.88 0 -2837.71 1740.1zm19383.18 0l18590.71 0 11756.37 -7209.1 -18590.71 0 -11756.37 7209.1zm8753.18 -1579.29l6235.25 0 6510.15 -3992.07 -6235.25 0 -6510.15 3992.07zm12047.22 1579.29l18590.71 0 11756.37 -7209.1 -18590.71 0 -11756.37 7209.1zm8753.16 -1579.29l6235.25 0 6510.16 -3992.07 -6235.25 0 -6510.16 3992.07z"/>
  <rect class="fil2" y="29521.35" width="76776.8" height="809.88"/>
 </g>
</svg>
