<?xml version="1.0" encoding="UTF-8"?>
  <!DOCTYPE svg PUBLIC "-//W3C//DTD SVG 1.1//EN" "http://www.w3.org/Graphics/SVG/1.1/DTD/svg11.dtd">
  <!-- Creator: CorelDRAW 2020 (64 Bit) -->
  <svg xmlns="http://www.w3.org/2000/svg" xml:space="preserve" width="1051.7mm" height="368.974mm" version="1.1" style="shape-rendering:geometricPrecision; text-rendering:geometricPrecision; image-rendering:optimizeQuality; fill-rule:evenodd; clip-rule:evenodd"
  viewBox="0 0 105156.24 36892.43"
   xmlns:xlink="http://www.w3.org/1999/xlink"
   xmlns:xodm="http://www.corel.com/coreldraw/odm/2003">
   <defs>
    <style type="text/css">
     <![CDATA[
      .fil1 {fill:#ff0000}
      .fil0 {fill:#000000}
     ]]>
    </style>
   </defs>
   <g id="Camada_x0020_1">
    <metadata id="CorelCorpID_0Corel-Layer"/>
    <path class="fil0" d="M23440.04 13112.11c1978.37,-1888.88 7624.15,-2826.59 10256.44,-3520.24 -3119.06,120.81 -14505.7,778.75 -16873.85,2047.57 -558.01,298.95 -1012.76,762.79 -1295.02,1522.21l-5763.17 15506.3c-509.06,1369.69 -704.28,4059.5 -881.2,6073.29l12817.22 -19446c574.44,-871.53 1075.49,-1549.11 1739.58,-2183.13zm25351.44 5102.64c-5554.5,1850.7 -14087.01,4679.72 -29655.39,9855.85l10459.93 1905.32c1088.83,198.32 1154.66,216.15 2175.38,-257.15l19567.13 -9073.16c664.44,-308.06 563.78,-456.33 -2.94,-816.04l-2544.11 -1614.83zm-15900.8 13666.04l15065.08 1903.74 -3779.55 3107.04c-302.68,12.05 -597.65,-104.3 -884.01,-254.43 -3415.91,-1790.89 -6681.9,-3260.62 -10273.2,-4678.16 -88.72,-35.03 -127.59,-60.9 -128.32,-78.2zm39374.86 0l-15065.07 1903.74 3779.55 3107.04c302.67,12.05 597.64,-104.3 884,-254.43 3415.9,-1790.89 6681.9,-3260.62 10273.2,-4678.16 88.72,-35.03 127.59,-60.9 128.32,-78.2zm-21964.33 -31704.21l-5292.43 3277.38 610.4 1516.12 4882.87 -2827.57 1067.9 -1902.54 -1268.73 -63.39zm31415 12935.54c-1978.38,-1888.88 -7624.16,-2826.59 -10256.45,-3520.24 3119.06,120.81 14505.71,778.75 16873.87,2047.57 558.01,298.95 1012.74,762.79 1295,1522.21l5763.18 15506.3c509.05,1369.69 704.28,4059.5 881.2,6073.29l-12817.21 -19446c-574.44,-871.53 -1075.51,-1549.11 -1739.59,-2183.13zm-25351.44 5102.64c5554.51,1850.7 14087.02,4679.72 29655.4,9855.85l-10459.93 1905.32c-1088.83,198.32 -1154.66,216.15 -2175.38,-257.15l-19567.13 -9073.16c-664.44,-308.06 -563.79,-456.33 2.94,-816.04l2544.1 -1614.83zm733.39 -15009.28l-1745.81 -1017.03 -983.28 -1762.53 1192.37 -56.46 1788.63 1005.93c625.61,351.85 1251.03,704 1876.21,1056.59l-2128.11 773.51zm262.9 174.66l2470.82 -898.07c-785.41,-443.35 -1571.25,-885.93 -2357.32,-1328.03l-1471.04 -827.32 8195.11 -71.76 577.12 407.23 1116.87 -422.07 19650.39 -172.1c1946.1,-17.04 3892.18,-34.11 5838.28,-51.13l1932.68 -16.89 -5193.88 3316.61 681.76 1796.62c-9958,38.94 -18909.45,42.58 -28126.21,66.69 -3314.57,-1799.79 0,0 -3314.57,-1799.79zm47559.61 5012.94c-4565.14,-3005.91 -10576.92,-2893.81 -15832.93,-3242.23l-656.94 -1731.29 1559.37 -995.78 6.49 -2.57c5937.46,420.68 9603.03,1820.17 15057.01,5844.44 196.18,144.75 88.29,273.13 -132.99,127.42zm-96186.86 -3349.23l7520.2 -2672.45c-782.19,-448.97 -1564.84,-897.18 -2347.75,-1344.92l-1465.04 -837.85 8195.41 -12.97 574.19 411.36 1119.86 -414.05 19651.11 -31.12c1946.17,-3.09 3892.35,-6.2 5838.5,-9.25l1932.74 -3.04 -5217.51 3279.29 668.81 1801.44c-12925.65,-42.14 -24155.04,-131.64 -36470.51,-166.45zm-8498.25 3219.64c2913.02,-1918.08 6919.26,-2540.93 10017.89,-2920.64 -795.4,-69.58 -1697.99,-148.54 -2591.3,-117.13 321.98,-219.82 613.17,-310.42 973.23,-447.53l6544.19 -2492.01c-5937.46,420.68 -9623.05,1825.62 -15077.03,5849.9 -196.17,144.75 -88.29,273.13 133.01,127.42z"/>
    <path class="fil1" d="M88333.64 11639.44c-2368.16,-1268.82 -13754.82,-1926.76 -16873.87,-2047.57l6309.47 -2632.25c2733.5,439.77 11387.04,1442.57 13358.82,2367.48 785.87,368.64 1253.2,743.3 1531.84,1906.83l3852.56 16087.79c197.73,825.73 214.54,1362.62 152.61,2219.66l-377.31 5222.22 -14.73 -22.36c-176.92,-2013.79 -372.15,-4703.59 -881.2,-6073.29l-5763.18 -15506.3c-282.26,-759.43 -736.99,-1223.26 -1295,-1522.21zm-71511.01 0c2368.15,-1268.82 13754.8,-1926.76 16873.85,-2047.57l-6309.46 -2632.25c-2733.49,439.77 -11387.05,1442.57 -13358.81,2367.48 -785.89,368.64 -1253.2,743.3 -1531.84,1906.83l-3852.58 16087.79c-197.73,825.73 -214.54,1362.62 -152.61,2219.66l377.31 5222.22 14.74 -22.36c176.92,-2013.79 372.14,-4703.59 881.2,-6073.29l5763.17 -15506.3c282.26,-759.43 737.01,-1223.26 1295.02,-1522.21zm27834.77 25114.25l4970.45 -2757.87 2386.61 -1324.21 -18970.05 -816.52c-95.73,-4.15 -154.64,4.04 -153.72,25.7l15065.08 1903.74 -3779.55 3107.04c158.33,-6.32 318.77,-47.75 481.18,-137.88zm15841.43 0l-4970.46 -2757.87 -2386.6 -1324.21 18970.05 -816.52c95.73,-4.15 154.63,4.04 153.72,25.7l-15065.07 1903.74 3779.55 3107.04c-158.35,-6.32 -318.78,-47.75 -481.19,-137.88zm-43679.17 -34109.36l-5506.61 1956.89 5090.11 14.38 135.88 -47.89 2244.03 -791.97c-653.78,-378.33 -1308.47,-755.08 -1963.4,-1131.41zm2316.43 25426.27c15568.38,-5176.14 24100.89,-8005.16 29655.39,-9855.85l-10396.42 -6598.97 3095.01 3908.86c918.57,1160.16 495.71,1637.97 -742.32,2228.99l-21611.66 10316.97zm41259.64 -25320.17l-1907.38 693.28 2033.95 1090.03 1844.88 -666.02c-656.46,-373.63 -1313.86,-745.67 -1971.45,-1117.29zm4765 -1758.36l1726.27 1244.02 2317.23 -852.71 5236.91 8.53 -13.97 89.71 -1260.09 482.49 -3435.67 -41.82 -881.6 362.01 4208.57 2440.09 5548.1 -21.71 -4181.41 -2205.53 3693.81 -814.28 1433.59 -1112.98 -13589.48 119 -802.24 303.18zm17529.4 2763.86c-290.45,326.81 -573.8,643.76 -835.69,934.04l6282.61 -24.59 -352.65 -929.39 -5094.27 19.94zm1421.83 -1611.29c-266.22,303.43 -547.73,623.5 -831.58,944.92l4371.62 -17.1 1483.75 -947.48 -5023.79 19.66zm731.77 -836.05c1810.49,-7.08 3621.01,-14.16 5431.5,-21.25l173.31 -0.68 388.2 -247.9 605.27 -386.5 296.12 -189.09 -366.66 3.21c-1946.08,17.03 -3892.17,34.09 -5838.27,51.12 -166.47,191.42 -405.21,465.6 -689.47,791.08zm-4384.01 -746.65l-3114.34 3040.45c0,0 1552.62,767.19 2060.82,1097.16l1770.43 -6.93 3807.87 -4170.3 -4524.79 39.62zm-22778.37 199.48c2181.48,1226.87 6329.55,3565.19 7023.65,3995.66l5052.32 -19.78 -5713.42 -4031.59 -6362.55 55.71zm-36084.18 158.78l1717.3 1256.37 2323.27 -836.08 5236.74 46.1 -14.62 89.61 -1263.53 473.44 -3435.27 -66.46 -884.17 355.67 4190.94 2470.22 5548.11 18.09 -4165.47 -2235.47 3699.56 -787.76 1441.53 -1102.66 -13590 21.52 -804.39 297.42zm17509.12 2889.53c-292.78,324.72 -578.38,639.63 -842.36,928.02l6282.62 20.49 -345.97 -931.9 -5094.29 -16.61zm1433.35 -1601.04c-268.37,301.51 -552.17,619.54 -838.34,938.92l4371.65 14.26 1490.49 -936.8 -5023.8 -16.38zm737.76 -830.79c1810.51,5.91 3621.01,11.82 5431.52,17.72l173.31 0.56 389.97 -245.1 608.01 -382.15 297.48 -186.96 -366.66 0.58c-1946.17,3.07 -3892.33,6.17 -5838.5,9.25 -167.85,190.22 -408.54,462.67 -695.13,786.1zm-4378.55 -778.07l-3136.07 3018.03c0,0 1547.09,778.3 2052.9,1111.91l1770.43 5.78 3837.69 -4142.88 -4524.96 7.16zm-22779.2 36.08c2172.63,1242.49 6303.81,3610.5 6994.81,4045.94l5052.3 16.47 -5684.32 -4072.48 -6362.79 10.07zm71900.54 27434.7c-15568.38,-5176.14 -24100.89,-8005.16 -29655.4,-9855.85l10396.43 -6598.97 -3095 3908.86c-918.58,1160.16 -495.71,1637.97 742.31,2228.99l21611.66 10316.97z"/>
   </g>
  </svg>
  