<?xml version="1.0" encoding="UTF-8"?>
  <!DOCTYPE svg PUBLIC "-//W3C//DTD SVG 1.1//EN" "http://www.w3.org/Graphics/SVG/1.1/DTD/svg11.dtd">
  <!-- Creator: CorelDRAW -->
  <svg xmlns="http://www.w3.org/2000/svg" xml:space="preserve" width="350.81mm" height="186.348mm" version="1.1" style="shape-rendering:geometricPrecision; text-rendering:geometricPrecision; image-rendering:optimizeQuality; fill-rule:evenodd; clip-rule:evenodd"
  viewBox="0 0 35693.51 18960.17"
   xmlns:xlink="http://www.w3.org/1999/xlink"
   xmlns:xodm="http://www.corel.com/coreldraw/odm/2003">
   <defs>
    <style type="text/css">
     <![CDATA[
      .fil1 {fill:#000000}
      .fil0 {fill:#ff0000}
      .fil2 {fill:#d9d9d9}
     ]]>
    </style>
   </defs>
   <g id="Camada_x0020_1">
    <metadata id="CorelCorpID_0Corel-Layer"/>
    <path class="fil0" d="M18448.08 11058.59c366.1,-526.58 784.91,-772.17 1404.49,-772.17l3084.85 0c221.52,0 485.56,60.25 578.38,372.88 27.07,91.15 31.99,185.33 21,279.89 175.53,-223.43 351.45,-390.53 579.99,-506.65 266.36,-135.32 581.16,-135.88 862.4,-143.1 636.79,-16.33 1280.1,-4.65 1917.09,9.31 193.07,4.23 593.8,6.9 777.99,49.69 135,31.36 253.43,91.18 346.39,231.25 172.25,259.44 98.24,573.07 -11.13,844.7 -6.13,15.22 -12.38,30.45 -18.74,45.67l7702.72 27.42 -1673.78 531.52 -6386.82 154.68c-69.17,124.94 -140.4,248.34 -213.78,368.47 -146.03,239.01 -286.9,449.29 -501.58,576.14 -269.29,159.13 -688.38,159.36 -977.14,168.48 -386.68,12.21 -774.52,12.14 -1161.31,11.75l-1507.71 -10.37c-126.19,-20.46 -229.1,-53.61 -330.78,-167.08 -146.6,-163.62 -99.65,-308.82 -270.69,-320.43 -132.69,-8.98 -140.96,-1.8 -222.25,118.99 -140.99,209.56 -393.38,387.72 -605.59,387.72l-3575.06 0c-157.31,0 -147.96,8.1 -240.83,-130.47 -462.79,-690.45 -597.31,115.98 -810.82,182.35 -1096.45,-24.74 -1798.05,16.3 -2881.91,-11.56 -477.41,-11.56 -954.81,-23.11 -1432.21,-34.66 -212.64,-5.14 -323.07,-335.17 -189.53,-551.74l138.38 -224.44 -2505.82 90.1 4523.47 2437.29 -4303.79 2063.79 4822.08 401.43 5246.16 -2155.06 4222.38 -125.28 -8698.53 3701.06 -4771.4 -667.55 -10207.56 -1316.53 -1177.09 -485.34 7583.67 479.92 3781.95 -1998.82 -5603.56 -3558.14 7786.85 0 595 -964.9c48.85,-79.18 114.49,-121.22 191.18,-122.41l3060.52 -47.55c175.9,-3.03 351.71,-14.46 527.64,-13.13 217.53,1.65 390.37,95.25 496.52,365.42 53.07,135.04 59.99,286.03 28.31,427.45z"/>
    <path class="fil0" d="M5178.54 7223.45c7.76,-100.03 0.96,-350.62 0.96,-467.42 0,-97.04 7.32,-1364.77 -2.84,-1396.09l-721.84 -0.1 -211.79 876.32c-13.18,-16.23 -29.35,-87.56 -34.79,-107.17l-153.95 -550.75c-18.2,-65.7 -36.11,-156.73 -62.28,-218.47l-692.19 0.1 -2.19 1863.71c53.36,-9.06 324.93,-2.72 398.16,-1.95l0.88 -1396.88 340.22 1212.35 372.3 1.07 149.72 -610.87c16.52,-67.66 139.86,-594.61 152.35,-612.2l0.76 1406.13c73.86,1.41 431.72,-4.22 466.52,2.22zm-4526.49 0.19c34.15,-4.88 460.63,-4.94 492.35,0.11 8.91,-64.28 1.88,-572.01 1.87,-696.77 -0.01,-66.48 1.08,-66.29 26.6,-120.99 42.17,-90.41 481.17,-1022.53 482.17,-1046.28l-411.99 0.16 -334.06 719.18c-15.64,-11.5 -16.51,-23.97 -23.85,-41.86 -45.52,-111.08 -284.39,-667.16 -280.5,-677.01l-444.72 -0.33c2.43,21.72 359.24,835.67 362.82,843.41 21.26,46.13 128.67,278.48 128.62,319.59l-0.18 418.75c0,92.06 -4.61,190.78 0.89,282.02zm1444.95 -746.14c-1.85,-16 174.87,-799.64 185.97,-819.92 10.27,12.13 20.39,73.22 26.65,102.86 24.19,114.58 159.97,688.66 155.72,717.26l-368.34 -0.19zm-583.94 744.07l412.95 -0.22 97.64 -433.43 512.73 0.08 95 432.35 451.31 1.07c1.64,-28.19 -16.65,-87.03 -22.86,-117.47l-288.48 -1277.67c-8.33,-38.09 -95.48,-438.73 -107.18,-466.58l-684.24 0.23 -466.86 1861.63zm4639.92 -1568.89c15.38,25.26 178.27,785.94 185.69,824.95l-374.44 0.37 188.75 -825.31zm-768.43 1546.4l0.59 22.32 407.24 -1.8c12.62,-18.37 90.94,-380.36 101.46,-431.25 76.15,-1.71 466.31,-7.09 513.19,1.98l97.43 431 435.7 0.17 15.17 -1.94c-19.66,-119.03 -75.41,-336.18 -104.78,-465.9 -40.84,-180.45 -305.84,-1382.14 -316.49,-1390.26 -6.27,-4.77 -25.68,-3.78 -36.06,-3.71 -14.54,0.1 -28.99,0.25 -43.56,0.25l-605.86 0.99c-39.47,134.05 -78.28,315.31 -114.29,457.24l-330.67 1322.65c-2.38,9.65 -4.7,19.05 -7.19,29.56l-11.87 28.7zm4149.3 -1548.11l180.4 826.65 -371.44 0 191.05 -826.65zm800.65 1570.35l0 -15.2c-13.63,-17.78 -406.71,-1783.97 -419.38,-1845.2l-689.16 -1.01 -466.1 1861.8 412.18 -0.43 100.25 -432.94c58.13,-1.86 483.51,-3.17 514.4,1.76l93.41 431.33 454.39 -0.11zm-3167.03 -26.95l-0.12 26.78 445.18 0.16 0.28 -817.95 488.39 -0.35 0.47 817.53 454.63 0.76 0.04 -1860.64 -453.12 -0.81 -1.63 712.72 -488.58 0.36 -0.24 -712.37 -441.96 -0.77c-9.96,29.59 -3.34,865.25 -3.34,918.44 0,305.34 1.17,610.82 0,916.14z"/>
    <path class="fil1" d="M20743.37 14245.81c7.08,-56.53 60.17,-158.75 86.5,-211.87 64.48,-130.04 101.68,-150.57 268.25,-124.8 25.08,71.51 25.06,34.14 -48.59,192.17 -21.3,45.69 -50.89,88.8 -52.77,144.5l236.51 0c2,-59.67 72.34,-199.43 100.73,-247.31 82.01,-138.33 254.04,-107.24 254.04,-55.69 0,48.85 -94.44,270.01 -118.26,303l236.51 0c21.89,-30.3 118.26,-252.25 118.26,-291.78 0,-87.61 -73.99,-134.66 -219.62,-134.66 -273.37,0 -289.71,39.69 -334.54,37.48 -46.92,-2.3 -86.34,-37.48 -189.16,-37.48 -220.03,0 -373.36,-4.45 -458.56,155.49 -31.04,58.3 -107.48,204.44 -115.82,270.95l236.51 0zm2598.45 0.16l219.62 0 174.58 -398.39 -219.62 0 -174.58 398.39zm324.14 -424.33c67.64,0 122.47,-23.24 122.47,-51.9 0,-28.66 -54.83,-51.9 -122.47,-51.9 -67.64,0 -122.48,23.24 -122.48,51.9 0,28.66 54.84,51.9 122.48,51.9zm-4383.85 -9.12c-51.38,-1.17 -102.77,-2.34 -154.16,-3.51 -10.56,29.92 -21.12,59.86 -31.67,89.78 49.98,0.23 99.95,0.47 149.93,0.7 -48.22,113.86 -96.43,227.72 -144.65,341.58 74.61,2.1 149.22,4.2 223.83,6.31l158.38 -352.1c67.22,1.64 134.45,3.28 201.67,4.91 24.28,-30.17 48.56,-60.33 72.85,-90.48 -79.19,-0.47 -158.38,-0.94 -237.57,-1.4 15.84,-33.43 31.67,-66.87 47.52,-100.3 -80.25,-2.56 -160.48,-5.14 -240.73,-7.71 -15.13,37.41 -30.27,74.81 -45.4,112.23zm-2546.68 419.43c283.67,-158.04 567.34,-316.09 733.46,-403.52 198.08,-104.26 260.74,-133.39 422.69,-139.35 89.04,-3.27 231.94,-2.33 374.82,-1.39 -78.83,188.43 -157.67,376.88 -236.51,565.31 -81.65,-2.8 -163.3,-5.61 -244.95,-8.41 15,-36.28 67.16,-148.56 52.8,-160.15 -4.93,-3.98 -14.08,-5.38 -102.43,-5.15 -88.34,0.23 -255.86,2.11 -423.39,3.98 -90.11,55.64 -180.19,111.29 -270.3,166.93 -102.06,-6.08 -204.13,-12.16 -306.19,-18.24zm814.58 -271.66c45.86,-28.42 216.75,-131.73 265.72,-153.84 26.92,-12.16 43.48,-14.97 68.28,-16.14 24.82,-1.17 57.89,-0.7 75.14,1.64 17.25,2.34 18.66,6.54 5.98,39.4 -12.67,32.84 -39.42,94.33 -54.9,125.67 -15.49,31.33 -19.71,32.5 -82.53,32.61 -25.08,0.05 -312.83,0.09 -313.95,-3.39 -0.53,-1.64 2.29,-4.91 36.25,-25.95zm1292.89 -150.57c-42.23,99.13 -84.47,198.26 -111.22,252.74 -26.74,54.47 -38,64.29 -55.26,73.88 -41.72,23.19 -91.16,33.2 -148.16,26.88 -29.57,-3.27 -61.24,-10.75 -79.89,-19.17 -18.66,-8.41 -24.29,-17.76 -20.42,-36.93 4.63,-22.93 96.53,-235.59 119.32,-290.38 -78.83,-1.86 -157.68,-3.73 -236.51,-5.61 -35.43,83.09 -118.09,264.15 -117.2,318.43 1.17,71.49 105.03,102.99 202.36,112.68 69.31,6.91 233.47,13.01 303.39,5.61 97.88,-10.36 177.59,-54.78 228.41,-111.05 51.18,-56.66 109.83,-220.64 137.27,-285 16.54,-38.81 18.65,-39.74 20.77,-40.68 -80.95,-0.47 -161.9,-0.94 -242.85,-1.4zm4137.83 2.81c-51.38,-1.17 -102.76,-2.34 -154.15,-3.51 -10.56,29.92 -21.12,59.86 -31.68,89.78 49.99,0.23 99.96,0.47 149.93,0.7 -48.22,113.86 -96.43,227.72 -144.64,341.58 74.61,2.1 149.22,4.2 223.83,6.31l158.38 -352.1c67.22,1.64 134.44,3.28 201.66,4.91 24.29,-30.17 48.57,-60.33 72.86,-90.48 -79.19,-0.47 -158.38,-0.94 -237.57,-1.4 15.83,-33.43 31.67,-66.87 47.52,-100.3 -80.25,-2.56 -160.49,-5.14 -240.73,-7.71 -15.14,37.41 -30.27,74.81 -45.41,112.23zm1411.62 85.4c29.62,-29.38 42.05,-46.52 67.57,-78.55 -50.91,-7.16 -380.55,-18.95 -512.46,18.68 -299.69,85.49 -366.66,407.76 5.66,407.76 411.86,0 373.4,25.3 456.13,-78.56 -114.99,0 -242.56,3.61 -355.79,0.68 -133.49,-3.45 -145.76,-43.88 -111.27,-119.56 85.76,-188.15 236.4,-150.45 450.17,-150.45zm-4392.28 269.33c-163.01,0 -115.34,-104.04 -73.05,-171.96 44.69,-71.78 96.01,-108.59 241.98,-108.59 203.42,0 97.15,179.66 46.62,221.76 -63.43,52.84 -105.21,58.8 -215.55,58.8zm135.14 78.56c250.05,0 388.56,-134.67 388.56,-303 0,-105.5 -164.83,-129.65 -321.53,-133.27l-201.63 9.89c-214.88,20.05 -330.25,115.89 -348.37,273.29 -20.86,181.13 300.36,153.09 482.97,153.09zm1959.64 -134.66c0,-61.94 49.01,-137.2 96.04,-171.87 71.57,-52.76 153.95,-41.36 292.51,-41.36 -5.81,46.4 -54.69,130.93 -76.62,184.77 -17.26,42.38 -13.94,59.81 -69.33,77.39 -58.24,18.47 -149.92,29.24 -207.79,-4.72 -18.74,-11.01 -34.81,-19.3 -34.81,-44.21zm439.23 134.66c51.15,0 41.5,-12.83 56.05,-41.32l163.56 -385.12c-322.04,0 -625.31,-32.04 -781.92,86.57 -54.74,41.46 -118.83,152.17 -105.21,222.01 35.71,183.21 465.95,113.82 484.01,95.44l17.85 20.82 165.66 1.61z"/>
    <path class="fil2" d="M19848.35 11543.45l1716.9 17.01c92.51,0.91 168.23,-99.41 168.23,-220.95 0,-121.52 -75.75,-224.49 -168.23,-220.93l-1391.21 53.82c-73.46,2.83 -198.44,117.82 -325.69,371.05zm-1551.34 1427.47l3575.02 0c128.01,0 316.35,-124.3 418.58,-276.26l176.19 -261.88 -2827.5 0c-87.76,0 -159.61,-94.33 -159.61,-209.6 0,-115.3 71.82,-208.64 159.61,-209.63l3044.77 -33.99c376.73,-560.02 1056.15,-1365.34 283.26,-1365.34l-3084.8 0c-966.01,0 -1247.1,663.04 -1722.87,1547.22 -261.03,485.11 -237.73,809.48 137.34,809.48zm6256.88 -535.9c-29.75,-6.14 -59.51,-12.25 -86.17,-50.03 -26.66,-37.77 -50.2,-107.22 -53.92,-174.6 -3.71,-67.4 12.4,-132.73 72.52,-271.6 95.81,-221.29 267.38,-594.1 457.45,-716.73 60.12,-38.81 115.9,-59.22 335.33,-66.38 178.12,-5.81 1017.79,-6.81 1141.13,29.61 118.99,35.12 124.31,140.58 67.56,319.57 -50.83,160.31 -164.87,425.77 -242.97,588.11 -140.93,292.92 -185.19,325.13 -556,339.99 -254.76,10.22 -694.84,6.13 -1134.95,2.05zm-1222.33 519.13c-69.02,-11.18 -138.04,-22.37 -199.87,-91.38 -61.84,-69.01 -116.47,-195.84 -125.1,-318.93 -8.63,-123.1 28.74,-242.48 168.23,-496.12 139.48,-253.64 381.05,-641.6 576.6,-887.78 195.57,-246.19 345.1,-350.66 484.58,-421.51 139.48,-70.89 268.9,-108.19 777.92,-121.24 411.92,-10.56 2360.81,-12.45 2647.21,54.09 96.34,22.39 156.73,55.95 201.3,123.1 44.57,67.14 73.33,167.85 -44.57,460.68 -117.9,292.83 -382.48,777.75 -563.66,1074.31 -339.05,554.97 -461.11,594.91 -1289.81,621.07 -590.98,18.66 -1611.9,11.19 -2632.82,3.73zm-10395.73 22.49c477.38,-774.17 954.78,-1548.31 1432.17,-2322.48l3060.83 -47.55c173.19,-3.01 350.58,-14.42 522.99,-13.1 121.82,0.92 213.9,29.38 275.16,185.29 51.92,132.14 -17.31,260.37 -65.82,372.19 -160.57,374.6 -353.36,754.46 -532.47,1114.44 -125.84,252.95 -252.49,505.17 -379.11,757.43 -511.9,-11.56 -1023.8,-23.12 -1535.7,-34.66 270.33,-466.04 540.66,-932.07 687.32,-1209.39 146.67,-277.31 169.68,-365.89 176.87,-437.14 20.32,-201.47 -66.44,-194.5 -287.57,-194.5 -185.49,0 -510.47,7.7 -835.44,15.4 -362.36,616.23 -724.71,1232.49 -1087.06,1848.74 -477.38,-11.56 -954.78,-23.11 -1432.17,-34.66z"/>
    <path class="fil0" d="M13292.31 792.98c366.1,-526.58 784.9,-772.17 1404.49,-772.17l3084.8 0c221.52,0 485.56,60.25 578.4,372.88 27.06,91.15 31.98,185.33 20.99,279.89 176.26,-223.82 350.63,-390.1 579.99,-506.65 266.35,-135.32 581.16,-135.88 862.39,-143.09 636.78,-16.34 1280.08,-4.65 1917.06,9.3 193.05,4.23 593.84,6.9 778,49.69 135,31.36 253.42,91.18 346.39,231.25 170,256.04 100.12,564.87 -6.87,834.01l7073.36 0 -5603.49 3558.14 3781.89 1998.82 7583.61 -479.92 -1177.08 485.35 -10207.45 1316.52 -4771.38 667.55 -8698.43 -3701.06 4222.33 125.29 5246.12 2155.05 4822.04 -401.44 -4303.75 -2063.78 4523.42 -2437.29 -3100.53 -60.85c-140.88,229.08 -279.43,429.61 -486.91,552.21 -269.28,159.12 -688.38,159.36 -977.13,168.48 -386.68,12.21 -774.52,12.14 -1161.31,11.75l-1507.69 -10.37c-126.2,-20.46 -229.1,-53.61 -330.77,-167.08 -146.62,-163.62 -99.65,-308.82 -270.69,-320.43 -132.7,-8.98 -140.97,-1.79 -222.24,119 -140.99,209.55 -393.38,387.71 -605.59,387.71l-3575.02 0c-157.31,0 -147.98,8.1 -240.84,-130.46 -462.78,-690.46 -597.31,115.97 -810.81,182.34 -1096.44,-24.74 -1798.04,16.3 -2881.89,-11.56 -477.37,-11.55 -954.77,-23.11 -1432.17,-34.66 -212.66,-5.15 -323.06,-335.19 -189.54,-551.74l386.68 -627.04 -6268.78 -115.25 -1673.75 -531.52 8356.14 -23.95 631.88 -1024.72c48.85,-79.18 114.49,-121.22 191.18,-122.41l3060.49 -47.55c175.91,-3.03 351.71,-14.45 527.65,-13.13 217.51,1.65 390.36,95.25 496.5,365.42 53.01,134.88 60.03,286.16 28.31,427.45z"/>
    <path class="fil2" d="M14625.6 1309.73l1716.91 17.01c92.52,0.91 168.23,-99.41 168.23,-220.96 0,-121.51 -75.74,-224.48 -168.23,-220.92l-1391.22 53.82c-73.46,2.83 -198.45,117.82 -325.69,371.05zm-1551.37 1427.48l3575.06 0c128.03,0 316.36,-124.31 418.58,-276.27l176.21 -261.88 -2827.52 0c-87.77,0 -159.62,-94.33 -159.62,-209.6 0,-115.3 71.82,-208.64 159.62,-209.63l3044.78 -33.99c376.75,-560.03 1056.16,-1365.34 283.28,-1365.34l-3084.85 0c-966.02,0 -1247.1,663.04 -1722.88,1547.22 -261.02,485.11 -237.73,809.49 137.33,809.49zm6256.95 -535.91c-29.76,-6.14 -59.51,-12.25 -86.16,-50.02 -26.67,-37.78 -50.21,-107.23 -53.93,-174.61 -3.71,-67.4 12.39,-132.73 72.52,-271.6 95.82,-221.28 267.38,-594.1 457.45,-716.73 60.14,-38.81 115.91,-59.22 335.34,-66.38 178.06,-5.8 1017.88,-6.8 1141.16,29.61 118.96,35.13 124.28,140.59 67.54,319.57 -50.83,160.31 -164.87,425.77 -242.97,588.11 -140.94,292.92 -185.18,325.13 -556.01,339.99 -254.77,10.22 -694.84,6.13 -1134.96,2.05zm-1222.34 519.13c-69.01,-11.18 -138.03,-22.37 -199.86,-91.38 -61.85,-69.01 -116.48,-195.83 -125.12,-318.93 -8.62,-123.1 28.76,-242.48 168.24,-496.12 139.47,-253.65 381.05,-641.6 576.6,-887.78 195.58,-246.19 345.11,-350.66 484.59,-421.51 139.49,-70.88 268.9,-108.18 777.93,-121.24 411.94,-10.57 2360.79,-12.46 2647.23,54.09 96.35,22.39 156.73,55.94 201.31,123.1 44.59,67.14 73.33,167.85 -44.59,460.68 -117.9,292.83 -382.48,777.74 -563.66,1074.31 -339.05,554.97 -461.12,594.91 -1289.81,621.07 -590.99,18.66 -1611.93,11.19 -2632.86,3.73zm-10395.83 22.49c477.41,-774.17 954.81,-1548.32 1432.19,-2322.49l3060.86 -47.54c173.19,-3.02 350.58,-14.41 522.99,-13.1 121.82,0.93 213.9,29.38 275.17,185.29 51.91,132.14 -17.3,260.36 -65.83,372.18 -160.56,374.61 -353.36,754.47 -532.48,1114.46 -125.84,252.94 -252.48,505.16 -379.12,757.42 -511.89,-11.56 -1023.8,-23.11 -1535.71,-34.66 270.33,-466.04 540.69,-932.07 687.36,-1209.39 146.66,-277.31 169.66,-365.89 176.87,-437.14 20.36,-201.5 -66.55,-194.51 -287.59,-194.51 -185.5,0 -510.48,7.7 -835.44,15.41 -362.39,616.23 -724.73,1232.49 -1087.09,1848.74 -477.38,-11.55 -954.77,-23.11 -1432.19,-34.66z"/>
    <path class="fil1" d="M16188.44 3957.24c7.08,-56.54 60.17,-158.75 86.5,-211.87 64.48,-130.05 101.68,-150.58 268.26,-124.8 25.07,71.5 25.05,34.13 -48.6,192.16 -21.3,45.69 -50.89,88.8 -52.77,144.51l236.51 0c2,-59.67 72.34,-199.43 100.73,-247.31 82.01,-138.33 254.04,-107.24 254.04,-55.69 0,48.84 -94.43,270.01 -118.26,303l236.51 0c21.89,-30.31 118.26,-252.25 118.26,-291.78 0,-87.61 -73.99,-134.67 -219.62,-134.67 -273.37,0 -289.71,39.69 -334.54,37.49 -46.92,-2.3 -86.34,-37.49 -189.16,-37.49 -220.03,0 -373.36,-4.45 -458.55,155.5 -31.05,58.3 -107.49,204.43 -115.83,270.95l236.51 0zm2598.46 0.16l219.62 0 174.58 -398.39 -219.62 0 -174.58 398.39zm324.13 -424.33c67.64,0 122.47,-23.24 122.47,-51.91 0,-28.66 -54.83,-51.9 -122.47,-51.9 -67.64,0 -122.47,23.24 -122.47,51.9 0,28.67 54.83,51.91 122.47,51.91zm-4383.85 -9.13c-51.38,-1.16 -102.77,-2.34 -154.16,-3.5 -10.56,29.92 -21.11,59.85 -31.67,89.77 49.98,0.23 99.96,0.47 149.93,0.7 -48.22,113.86 -96.43,227.72 -144.65,341.58 74.61,2.11 149.22,4.21 223.83,6.31l158.38 -352.09c67.22,1.63 134.45,3.28 201.67,4.9 24.28,-30.16 48.57,-60.32 72.85,-90.47 -79.19,-0.47 -158.38,-0.94 -237.57,-1.4 15.84,-33.43 31.68,-66.87 47.52,-100.3 -80.25,-2.57 -160.48,-5.15 -240.73,-7.71 -15.13,37.4 -30.27,74.81 -45.4,112.22zm-2546.68 419.44c283.68,-158.05 567.35,-316.09 733.46,-403.53 198.08,-104.26 260.74,-133.39 422.69,-139.34 89.05,-3.28 231.94,-2.34 374.83,-1.4 -78.84,188.44 -157.68,376.88 -236.51,565.32 -81.66,-2.81 -163.31,-5.62 -244.96,-8.41 15,-36.28 67.16,-148.56 52.8,-160.15 -4.92,-3.98 -14.08,-5.38 -102.42,-5.15 -88.35,0.23 -255.87,2.11 -423.4,3.98 -90.1,55.63 -180.19,111.28 -270.29,166.92 -102.07,-6.07 -204.13,-12.16 -306.2,-18.23zm814.58 -271.67c45.87,-28.41 216.75,-131.72 265.72,-153.84 26.93,-12.16 43.48,-14.97 68.28,-16.13 24.82,-1.17 57.89,-0.7 75.14,1.63 17.25,2.34 18.66,6.54 5.98,39.4 -12.67,32.85 -39.41,94.34 -54.9,125.67 -15.49,31.33 -19.71,32.5 -82.53,32.62 -25.08,0.04 -312.82,0.09 -313.95,-3.39 -0.52,-1.64 2.29,-4.91 36.25,-25.96zm1292.89 -150.56c-42.22,99.12 -84.47,198.25 -111.22,252.73 -26.74,54.47 -38,64.29 -55.25,73.88 -41.72,23.19 -91.17,33.2 -148.17,26.89 -29.57,-3.28 -61.24,-10.75 -79.89,-19.17 -18.65,-8.42 -24.29,-17.78 -20.42,-36.94 4.64,-22.92 96.53,-235.58 119.32,-290.37 -78.83,-1.87 -157.67,-3.74 -236.51,-5.62 -35.43,83.09 -118.09,264.16 -117.2,318.43 1.17,71.5 105.03,102.99 202.37,112.68 69.3,6.91 233.46,13.02 303.38,5.62 97.88,-10.37 177.59,-54.79 228.41,-111.06 51.19,-56.66 109.83,-220.63 137.27,-284.99 16.54,-38.82 18.65,-39.75 20.77,-40.69 -80.95,-0.47 -161.9,-0.94 -242.85,-1.39zm4137.84 2.8c-51.38,-1.16 -102.77,-2.34 -154.16,-3.5 -10.56,29.92 -21.12,59.85 -31.67,89.77 49.98,0.23 99.96,0.47 149.93,0.7 -48.22,113.86 -96.43,227.72 -144.65,341.58 74.61,2.11 149.22,4.21 223.83,6.31l158.38 -352.09c67.22,1.63 134.45,3.28 201.67,4.9 24.28,-30.16 48.56,-60.32 72.85,-90.47 -79.19,-0.47 -158.38,-0.94 -237.57,-1.4 15.84,-33.43 31.68,-66.87 47.52,-100.3 -80.25,-2.57 -160.48,-5.15 -240.73,-7.71 -15.13,37.4 -30.27,74.81 -45.4,112.22zm1411.61 85.41c29.62,-29.38 42.05,-46.52 67.57,-78.56 -50.91,-7.16 -380.55,-18.93 -512.46,18.69 -299.69,85.48 -366.66,407.76 5.66,407.76 411.86,0 373.4,25.29 456.13,-78.56 -114.99,0 -242.56,3.61 -355.79,0.68 -133.48,-3.45 -145.76,-43.88 -111.27,-119.56 85.76,-188.15 236.4,-150.45 450.17,-150.45zm-4392.28 269.33c-163.01,0 -115.34,-104.05 -73.05,-171.96 44.69,-71.78 96.01,-108.59 241.98,-108.59 203.42,0 97.16,179.65 46.62,221.75 -63.42,52.85 -105.21,58.81 -215.55,58.81zm135.15 78.56c250.05,0 388.55,-134.68 388.55,-303 0,-105.51 -164.82,-129.65 -321.53,-133.27l-201.62 9.89c-214.89,20.05 -330.26,115.88 -348.38,273.29 -20.86,181.13 300.36,153.09 482.98,153.09zm1959.63 -134.67c0,-61.94 49.01,-137.19 96.05,-171.86 71.56,-52.77 153.95,-41.36 292.5,-41.36 -5.81,46.4 -54.69,130.92 -76.62,184.76 -17.26,42.38 -13.94,59.81 -69.33,77.39 -58.24,18.48 -149.92,29.25 -207.79,-4.72 -18.74,-11 -34.81,-19.29 -34.81,-44.21zm439.23 134.67c51.15,0 41.5,-12.84 56.06,-41.32l163.56 -385.13c-322.05,0 -625.32,-32.04 -781.92,86.58 -54.75,41.46 -118.84,152.17 -105.22,222.01 35.72,183.21 465.96,113.82 484.01,95.44l17.86 20.81 165.65 1.62z"/>
    <path class="fil0" d="M5178.54 10238.52c7.76,-100.04 0.96,-350.62 0.96,-467.43 0,-97.03 7.32,-1364.76 -2.84,-1396.09l-721.84 -0.09 -211.79 876.32c-13.18,-16.23 -29.35,-87.57 -34.79,-107.17l-153.95 -550.75c-18.2,-65.71 -36.11,-156.74 -62.28,-218.47l-692.19 0.1 -2.19 1863.71c53.36,-9.06 324.93,-2.72 398.16,-1.95l0.88 -1396.88 340.22 1212.35 372.3 1.07 149.72 -610.87c16.52,-67.66 139.86,-594.61 152.35,-612.2l0.76 1406.13c73.86,1.4 431.72,-4.22 466.52,2.22zm-4526.49 0.19c34.15,-4.88 460.63,-4.94 492.35,0.11 8.91,-64.29 1.88,-572.02 1.87,-696.77 -0.01,-66.48 1.08,-66.29 26.6,-120.99 42.17,-90.41 481.17,-1022.53 482.17,-1046.28l-411.99 0.16 -334.06 719.17c-15.64,-11.49 -16.51,-23.96 -23.85,-41.85 -45.52,-111.08 -284.39,-667.16 -280.5,-677.01l-444.72 -0.34c2.43,21.73 359.24,835.68 362.82,843.42 21.26,46.13 128.67,278.48 128.62,319.58l-0.18 418.75c0,92.07 -4.61,190.79 0.89,282.03zm1444.95 -746.15c-1.85,-15.99 174.87,-799.63 185.97,-819.91 10.27,12.12 20.39,73.22 26.65,102.84 24.19,114.59 159.97,688.67 155.72,717.27l-368.34 -0.2zm-583.94 744.08l412.95 -0.22 97.64 -433.44 512.73 0.09 95 432.35 451.31 1.07c1.64,-28.19 -16.65,-87.03 -22.86,-117.47l-288.48 -1277.67c-8.33,-38.09 -95.47,-438.73 -107.18,-466.58l-684.24 0.23 -466.86 1861.63zm4639.92 -1568.89c15.38,25.25 178.27,785.94 185.69,824.95l-374.44 0.37 188.75 -825.31zm-768.43 1546.4l0.59 22.32 407.24 -1.8c12.62,-18.37 90.94,-380.37 101.46,-431.26 76.15,-1.7 466.31,-7.08 513.19,1.99l97.43 431 435.7 0.17 15.17 -1.94c-19.66,-119.03 -75.41,-336.18 -104.78,-465.91 -40.84,-180.44 -305.84,-1382.13 -316.49,-1390.25 -6.27,-4.77 -25.68,-3.8 -36.06,-3.71 -14.54,0.1 -28.99,0.24 -43.56,0.24l-605.86 1c-39.47,134.05 -78.28,315.31 -114.29,457.24l-330.67 1322.65c-2.38,9.65 -4.7,19.05 -7.19,29.55l-11.87 28.71zm4149.3 -1548.11l180.4 826.65 -371.44 0 191.05 -826.65zm800.65 1570.34l0 -15.19c-13.63,-17.78 -406.71,-1783.98 -419.38,-1845.2l-689.16 -1.01 -466.1 1861.8 412.18 -0.43 100.25 -432.95c58.13,-1.85 483.51,-3.16 514.4,1.77l93.41 431.33 454.39 -0.12zm-3167.03 -26.94l-0.12 26.78 445.18 0.15 0.28 -817.94 488.39 -0.36 0.47 817.54 454.63 0.76 0.04 -1860.64 -453.12 -0.81 -1.63 712.71 -488.58 0.37 -0.24 -712.37 -441.96 -0.77c-9.96,29.59 -3.34,865.24 -3.34,918.43 0,305.35 1.17,610.83 0,916.15z"/>
   </g>
  </svg>
  