<?xml version="1.0" encoding="UTF-8"?>
  <!DOCTYPE svg PUBLIC "-//W3C//DTD SVG 1.1//EN" "http://www.w3.org/Graphics/SVG/1.1/DTD/svg11.dtd">
  <!-- Creator: CorelDRAW 2020 (64 Bit) -->
  <svg xmlns="http://www.w3.org/2000/svg" xml:space="preserve" width="562.186mm" height="130.572mm" version="1.1" style="shape-rendering:geometricPrecision; text-rendering:geometricPrecision; image-rendering:optimizeQuality; fill-rule:evenodd; clip-rule:evenodd"
  viewBox="0 0 11695.67 2716.42"
   xmlns:xlink="http://www.w3.org/1999/xlink"
   xmlns:xodm="http://www.corel.com/coreldraw/odm/2003">
   <defs>
    <style type="text/css">
     <![CDATA[
      .fil1 {fill:#ff0000}
      .fil0 {fill:#000000} 
     ]]>
    </style>
   </defs>
   <g id="Camada_x0020_1">
    <metadata id="CorelCorpID_0Corel-Layer"/>
    <path class="fil0" d="M4167.1 87.32c58.76,9.33 84.11,1.72 83.71,64.86l-1.81 286.02c-0.41,64.96 -22,59.92 -85.34,66.41l-0.48 76.56 339.34 3.9 0.79 -76.68c-97.24,-10.37 -85.06,-9.46 -83.6,-153.24l261.68 3.02c-4.34,57.59 10.21,132.14 -25.05,140.52 -17.32,4.12 -43.63,7.19 -61.43,8.63l-0.5 78.81 339.51 3.91 0.68 -78.72c-18.11,-2.08 -40.42,-5.48 -58.5,-9.39 -19.61,-4.25 -26.21,-23.82 -26.03,-52.84l1.82 -288c0.42,-66.86 25.27,-57.22 85.16,-64.76l0.65 -77.55c-38.83,-0.45 -326.59,-5.06 -339.73,-3.22 -0.49,94.02 -8.97,74.01 33.84,81.73 58.92,10.63 50.85,14.24 49.14,146.34l-260.56 -3.06c-1.7,-24.11 -1.63,-107.68 5.87,-123.72 7.6,-16.26 17.45,-16.63 34.3,-19.03 15.13,-2.15 30.15,-4.54 45.19,-6.45l0.66 -77.56 -338.86 -3.89 -0.47 77.4zm3213.3 254.6l81.61 -174.2 81.52 176.07 -163.13 -1.88zm-130.16 -219.08c23.59,3.41 47.78,7.69 70.98,11.96 37,6.81 20.67,44.32 12.47,62.86l-138.75 298.42c-5.41,11.96 -10.36,22.53 -18.78,28.42 -11.63,8.14 -53.88,11.96 -70.05,13.67l-0.48 76.73 271.37 3.12 -0.01 -77.61c-85.49,-13.59 -82.27,-16.02 -44.61,-97.95l260.38 2.96c50.74,94.51 17.43,84.25 -51.54,97.1l-1.04 77.08 367.25 4.51 0.46 -78.66c-101.88,-10.09 -75.04,-16.21 -144.45,-151.69 -17.58,-34.3 -32.9,-69.89 -49.96,-105.13l-74.79 -156.84c-45.05,-95.83 -32.08,-82.3 -131.81,-83.45 -85.16,-0.98 -171.09,-3.51 -256.15,-2.87l-0.47 77.38zm-1977.17 -11.17c90.82,-10.08 167.06,20.96 176.32,159.88 8.57,128.59 -20.53,222.29 -124.71,232.8 -91.79,9.27 -166.34,-20.89 -176.13,-160.96 -9.01,-128.9 20.23,-220.13 124.52,-231.71zm-16.47 -110.14c-86.58,6.04 -164.1,28.92 -222.22,84.32 -52.53,50.08 -95.69,144.2 -78.07,274.74 28.1,208.08 211.63,263.91 386.88,252.6 83.52,-5.4 166.44,-30.7 221.05,-84.79 62.95,-62.35 92.31,-163.3 77.77,-273.67 -27.23,-206.75 -210.62,-265.39 -385.42,-253.19zm1433.49 498.02l2.22 -351.18c23.69,-4.04 69.32,0.14 95.34,0.42 98.13,1.07 159.15,13.1 158.29,177.41 -0.84,162.08 -58.03,176.16 -159.04,174.95 -29.03,-0.35 -69.14,2.32 -96.8,-1.6zm-243.84 -457.19l-0.42 71.34c51.75,5.65 80.15,0.93 79.76,62.66l-1.87 295.95c-0.44,69.31 -40.43,46.4 -80.54,60.07l-0.82 73.46c9.09,3.57 328.49,5.2 346.79,5.41 80.23,0.92 158.37,7.38 232.21,-36.88 123.67,-74.14 147.68,-273.07 91.16,-392.74 -44.3,-93.8 -132.29,-139.36 -246.14,-140.67l-419.63 -4.83 -0.49 6.23zm-780.66 54.58l0.08 7.8c65.02,7.83 83.9,4.8 83.5,68.65l-1.78 282.05c-0.4,63.94 -22.64,60.18 -84.49,66.42l-0.48 76.56 271.45 3.12 0.48 -76.63c-93.27,-9.82 -84.89,-14.3 -84.25,-115.96 0.48,-76.6 0.76,-153.25 1.47,-229.83l215.73 388.07c11.17,19.99 18.66,36.1 46.02,36.42l209.08 2.41 2.93 -427.98c0.48,-73.76 30.48,-52.63 85.16,-65.17l0.63 -76.68 -271.43 -2.78c-0.43,89.72 -10.96,73.46 33.9,81.68 37.51,6.88 50.51,5.65 50.14,63.76 -0.51,80.53 0.41,200.23 -1.95,276.07l-214.55 -387.1c-10.13,-19.48 -19.37,-36.96 -44.89,-37.25l-296.32 -3.41 -0.42 69.79z"/>
    <path class="fil1" d="M797.69 744.48l4819.37 261.35c-340.78,84.21 -681.57,168.42 -1022.35,252.64l-1378.26 10.29c110.89,-43.28 211.85,-82.75 270.44,-105.97 76.51,-30.33 80.75,-32.96 78.96,-38.2 -1.79,-5.25 -9.6,-13.11 -18.08,-18.12 -8.48,-5.01 -17.63,-7.15 -56.09,-15.57 -38.46,-8.42 -106.22,-23.1 -173.98,-37.79 49.5,-25.8 99,-51.61 117.16,-67.27 18.15,-15.65 4.96,-21.16 -41.06,-30.75 -46.03,-9.59 -124.89,-23.26 -203.75,-36.93 -458.18,8.4 -916.35,16.81 -1374.53,25.21 53.57,18.6 107.14,37.2 160.71,55.79 -108.26,80.81 -216.53,161.63 -324.79,242.44 -301.28,-1.87 -602.57,-3.74 -754.35,-4.94 -151.79,-1.2 -154.07,-1.74 -155.29,-6.85 -1.21,-5.11 -1.36,-14.8 3.82,-21.43 5.18,-6.63 15.67,-10.2 95.14,-42.86 79.47,-32.66 227.91,-94.39 312.49,-128.26 84.58,-33.87 105.3,-39.87 129.49,-42.65 24.19,-2.78 51.84,-2.33 142.2,-1.65 90.36,0.67 243.42,1.57 396.49,2.47 -62.72,-20.74 -125.44,-41.49 -188.16,-62.23 -248.27,-1.5 -496.54,-3.01 -634.69,2.01 -138.16,5.01 -166.2,16.54 -262.9,50.58 -96.69,34.05 -262.03,90.61 -427.36,147.18l-103.94 158.27 -157.93 1.18c250.42,-182.65 500.84,-365.29 751.27,-547.94zm2285.01 229.97c-87.78,29.5 -175.56,59 -263.34,88.49 -92.98,5.35 -185.95,10.7 -242.75,14.88 -56.8,4.18 -77.42,7.19 -111.05,16.8 -33.63,9.61 -80.28,25.82 -126.93,42.04 219.3,-1.07 438.6,-2.13 657.9,-3.2 -81.39,27.98 -162.78,55.96 -231.28,73.99 -68.49,18.03 -124.1,26.11 -230.85,29.74 -106.76,3.63 -264.66,2.8 -422.57,1.97 86.87,-82.21 173.74,-164.43 223.42,-206.48 49.69,-42.06 62.2,-43.95 180.58,-46.96 118.38,-3.01 342.62,-7.14 566.87,-11.27z"/>
    <path class="fil0" d="M2384.46 1549.3l210.3 -2.26 129.47 -156.3 143.01 -1.54 182.29 -43.15 -1247.41 13.42c-15.61,4.37 -31.77,13.17 -41.06,23.19l-62.26 67.05c-13.13,14.14 -7.82,25.54 11.81,25.33 121.71,-1.31 243.41,-2.62 365.11,-3.93l-32.84 35.36 -332.06 3.58 -132.36 47.93 585.69 -6.31c19.63,-0.21 46.43,-11.95 59.56,-26.09l62.26 -67.05c13.14,-14.14 7.82,-25.54 -11.81,-25.33 -121.7,1.31 -243.41,2.62 -365.11,3.93l35.29 -38 569.6 -6.13 -129.48 156.3zm-2384.46 -129.25c22.84,-13.92 45.63,-27.9 68.33,-41.93l877.6 -9.43c-17.58,21.39 -34.81,42.92 -52.55,64.24 -21.51,25.83 -80.89,74.88 -31.24,82.88 44.8,5.51 92.43,-31.2 114.48,-55.09 18.68,-21.06 36.73,-44.56 54.66,-66.21l83.61 -0.9 -87.31 105.27c6.67,12.2 16.18,14.14 33.26,15.01 51.73,2.62 68.42,-3.2 95.08,-34.56 32.02,-37.68 62.94,-75.95 94.34,-113.91l181.23 -1.95c-28.69,34.55 -58,69.02 -85.91,103.86 -43.83,54.93 -54.71,89.04 -142.11,94.69l-187.15 2.02c-29.71,-1.53 -49.08,-7.66 -70.36,-29.75 -38.31,32.2 -62.06,32.44 -111.95,31.71 -77,-1.12 -145.11,1.56 -233.24,2.51l129.48 -156.3 -218.48 2.35 -129.48 156.3 -210.3 2.26 129.47 -156.3 -301.47 3.24zm4098.63 -80.45c-7.53,-3.33 -17.82,-5.11 -25.33,-4.58l-159.72 1.72 -776.35 8.66 -255.79 75.63 -111.99 124.11 530.44 -5.71 129.13 -44.68 -409.83 4.41 24.32 -26.95 249.19 -2.68 129.13 -44.68 -338.88 3.65 40.07 -44.41 668.7 -7.2c27.86,-0.3 15.04,35.3 -12.24,35.59 -86.37,0.93 -172.73,1.86 -259.1,2.79l212.14 119.5 336.83 -3.63 -221.92 -85.39 136.56 -1.47c21.17,-0.23 39.62,-9.51 52.27,-21.38l61.9 -58.09c2.8,-2.63 5.03,-5.17 6.69,-7.45 5.58,-7.67 5.26,-12.72 -6.21,-17.79zm-2771.36 221.08l210.3 -2.27 163.9 -197.86 -210.3 2.26 -163.91 197.86z"/>
    <path class="fil1" d="M10727.03 988.21c-87.78,29.5 -175.56,59 -263.34,88.49 -92.98,5.35 -185.96,10.7 -242.75,14.88 -56.8,4.18 -77.42,7.19 -111.05,16.8 -33.63,9.61 -80.28,25.82 -126.93,42.04 219.3,-1.07 438.6,-2.13 657.9,-3.2 -81.39,27.98 -162.78,55.96 -231.28,73.99 -68.49,18.03 -124.1,26.11 -230.85,29.74 -106.75,3.63 -264.66,2.8 -422.57,1.97 86.87,-82.21 173.74,-164.43 223.43,-206.48 49.69,-42.05 62.2,-43.95 180.58,-46.96 118.38,-3.01 342.62,-7.14 566.87,-11.27zm170.86 -243.73l-4819.37 261.35c340.78,84.21 681.57,168.42 1022.35,252.64l774.58 5.78 77.17 -117.51c165.33,-56.57 330.67,-113.13 427.36,-147.18 96.69,-34.05 124.74,-45.57 262.9,-50.58 138.16,-5.01 386.42,-3.51 634.69,-2.01 62.72,20.75 125.44,41.49 188.16,62.23 -153.06,-0.9 -306.13,-1.8 -396.49,-2.47 -90.36,-0.68 -118.01,-1.13 -142.2,1.65 -24.18,2.78 -44.9,8.78 -129.49,42.65 -84.58,33.87 -233.02,95.61 -312.49,128.26 -79.47,32.66 -89.96,36.23 -95.14,42.86 -5.18,6.63 -5.03,16.32 -3.82,21.43 1.21,5.11 3.5,5.65 155.29,6.85 151.79,1.2 453.07,3.07 754.36,4.94 108.26,-80.81 216.53,-161.63 324.79,-242.44 -53.57,-18.6 -107.14,-37.2 -160.71,-55.8 458.18,-8.4 916.35,-16.81 1374.53,-25.21 78.86,13.67 157.73,27.34 203.75,36.93 46.03,9.59 59.22,15.1 41.06,30.75 -18.15,15.66 -67.65,41.46 -117.16,67.27 67.76,14.69 135.53,29.37 173.98,37.79 38.46,8.42 47.61,10.56 56.09,15.57 8.48,5.01 16.29,12.87 18.08,18.12 1.79,5.25 -2.45,7.87 -78.96,38.2 -58.59,23.23 -159.55,62.7 -270.44,105.97l185.19 -1.38c-13.66,2.23 -27.86,4.39 -42.64,6.47l645.83 4.82c-250.42,-182.64 -500.84,-365.29 -751.27,-547.94z"/>
    <path class="fil0" d="M9970.19 1537.48l210.32 -0.55 130.74 -155.24 143.01 -0.38 182.63 -41.67 -1247.48 3.28c-15.64,4.24 -31.87,12.92 -41.25,22.86l-62.8 66.54c-13.25,14.03 -8.03,25.47 11.6,25.42 121.71,-0.32 243.43,-0.64 365.14,-0.96l-33.13 35.1 -332.08 0.88 -132.74 46.85 585.72 -1.54c19.63,-0.05 46.52,-11.57 59.78,-25.61l62.8 -66.54c13.25,-14.03 8.03,-25.47 -11.6,-25.42 -121.71,0.32 -243.42,0.64 -365.14,0.96l35.6 -37.71 569.63 -1.5 -130.74 155.24zm-2383.33 -148.63c22.96,-13.74 45.85,-27.52 68.67,-41.37l877.65 -2.3c-17.76,21.24 -35.16,42.64 -53.08,63.81 -21.72,25.65 -81.49,74.22 -31.91,82.62 44.75,5.87 92.68,-30.45 114.93,-54.16 18.85,-20.91 37.09,-44.26 55.2,-65.76l83.62 -0.22 -88.16 104.55c6.57,12.25 16.07,14.28 33.14,15.28 51.71,3.04 68.44,-2.64 95.35,-33.79 32.33,-37.42 63.55,-75.43 95.26,-113.14l181.24 -0.48c-28.97,34.31 -58.55,68.55 -86.75,103.16 -44.27,54.57 -55.44,88.59 -142.88,93.53l-187.16 0.5c-29.7,-1.77 -49.02,-8.05 -70.12,-30.32 -38.57,31.89 -62.32,31.94 -112.2,30.8 -76.98,-1.75 -145.12,0.38 -233.25,0.62l130.74 -155.24 -218.49 0.57 -130.74 155.24 -210.31 0.55 130.74 -155.24 -301.49 0.78zm4099.14 -47.13c-7.5,-3.39 -17.78,-5.25 -25.29,-4.78l-159.73 0.42 -776.4 2.36 -256.4 73.55 -112.99 123.2 530.47 -1.4 129.49 -43.63 -409.86 1.08 24.53 -26.75 249.2 -0.66 129.49 -43.63 -338.89 0.89 40.43 -44.08 668.74 -1.76c27.86,-0.07 14.75,35.42 -12.53,35.49 -86.37,0.23 -172.75,0.46 -259.11,0.68l211.17 121.22 336.85 -0.89 -221.22 -87.19 136.57 -0.36c21.17,-0.05 39.69,-9.19 52.44,-20.96l62.37 -57.58c2.82,-2.61 5.07,-5.13 6.75,-7.39 5.64,-7.63 5.36,-12.68 -6.07,-17.84zm-2773.06 198.55l210.32 -0.56 165.51 -196.52 -210.31 0.56 -165.51 196.52z"/>
    <path class="fil1" d="M6587.41 2425.3c-24.53,20.92 -159.7,139.25 -161.85,163.35 -1.1,12.29 4.78,12.67 47.46,13.23 35.09,0.45 98.96,-0.14 135.54,-3.01 36.58,-2.87 45.88,-7.99 78.62,-37.95 24.66,-22.56 146.1,-135.2 149.64,-159.5 0.68,-4.61 0.11,-6.14 -32.12,-7.11l-170.2 -1.03c-4.95,0.78 -12.24,2.32 -47.09,32.03zm-289.2 -47.64c-43.39,37.17 -270.97,223.23 -280.34,271.16 -4.73,24.22 13.24,40.18 30.57,48.79 23.32,11.58 606.65,5.25 674.28,5.15 131.94,-0.2 136.14,0.31 202.31,-54.49 66.16,-54.82 194.27,-164.95 260.02,-225.63 117.33,-108.29 79.03,-94.76 -99.03,-95.48l-721.81 -0.22c-8.08,1.55 -12.18,4.62 -66,50.72zm-734.81 54.93c-24.52,20.9 -159.7,139.26 -161.85,163.35 -1.1,12.29 4.74,12.67 47.46,13.23 35.1,0.46 98.96,-0.14 135.54,-3 36.58,-2.87 45.88,-7.99 78.63,-37.96 24.65,-22.55 146.13,-135.22 149.64,-159.51 0.67,-4.59 0.11,-6.13 -32.12,-7.1l-170.2 -1.04c-4.96,0.78 -12.25,2.33 -47.1,32.03zm-289.19 -47.64c-43.42,37.18 -270.95,223.21 -280.34,271.17 -4.73,24.16 13.25,40.19 30.56,48.78 23.34,11.58 606.64,5.26 674.29,5.16 131.95,-0.2 136.14,0.31 202.31,-54.5 66.16,-54.81 194.27,-164.93 260.02,-225.62 117.29,-108.27 79.12,-94.76 -99.03,-95.48l-721.8 -0.22c-8.08,1.55 -12.2,4.62 -66,50.72zm-1157.21 -49.73l971.52 -1.4c109.08,-0.15 119.92,35.6 36.69,111.71l-226.68 207.29c-47.1,43.07 -94.12,62.53 -136.34,62.11l-1046.58 1.49 101.5 -96.4 688.34 -0.98c13,-0.02 62.66,-13.65 74.48,-33.55 11.83,-19.91 22.92,-33.48 9.93,-33.47l-508.82 0.73 77.97 -74.05 510.61 -0.73c42.39,-0.06 87.42,-67.02 67.12,-66.99l-700.57 1.01 80.82 -76.76z"/>
    <path class="fil1" d="M6954.19 2715.7c151.75,-122.01 303.49,-244.03 455.24,-366.04 256.8,1.22 513.59,2.45 770.39,3.67 -47.4,39.75 -94.8,79.51 -142.19,119.26 -171.91,-1.22 -343.81,-2.45 -515.72,-3.67 -30.07,23.09 -60.14,46.17 -90.21,69.26 135.12,1.99 270.24,3.98 405.36,5.97 -36.54,28.86 -73.09,57.72 -109.63,86.57 -130.52,0.56 -261.03,1.13 -391.54,1.69 -37.74,26.85 -75.48,53.69 -113.22,80.54 -89.49,0.92 -178.98,1.83 -268.48,2.75z"/>
    <path class="fil1" d="M6587.41 1912.51c-24.53,20.92 -159.7,139.25 -161.85,163.35 -1.1,12.29 4.78,12.67 47.46,13.23 35.09,0.45 98.96,-0.14 135.54,-3.01 36.58,-2.87 45.88,-7.99 78.62,-37.95 24.66,-22.57 146.1,-135.21 149.64,-159.51 0.68,-4.61 0.11,-6.14 -32.12,-7.11l-170.2 -1.03c-4.95,0.78 -12.24,2.32 -47.09,32.03zm-289.2 -47.64c-43.39,37.17 -270.97,223.23 -280.34,271.16 -4.73,24.22 13.24,40.18 30.57,48.79 23.32,11.58 606.65,5.26 674.28,5.15 131.94,-0.2 136.14,0.31 202.31,-54.49 66.16,-54.82 194.27,-164.95 260.02,-225.63 117.33,-108.29 79.03,-94.76 -99.03,-95.48l-721.81 -0.22c-8.08,1.55 -12.18,4.62 -66,50.72zm-734.81 54.93c-24.52,20.9 -159.7,139.26 -161.85,163.35 -1.1,12.29 4.74,12.67 47.46,13.23 35.1,0.46 98.96,-0.14 135.54,-3 36.58,-2.87 45.88,-7.99 78.63,-37.96 24.65,-22.55 146.13,-135.22 149.64,-159.51 0.67,-4.59 0.11,-6.13 -32.12,-7.1l-170.2 -1.04c-4.96,0.78 -12.25,2.33 -47.1,32.03zm-289.19 -47.64c-43.42,37.18 -270.95,223.21 -280.34,271.17 -4.73,24.16 13.25,40.19 30.56,48.78 23.34,11.58 606.64,5.26 674.29,5.16 131.95,-0.2 136.14,0.31 202.31,-54.5 66.16,-54.81 194.27,-164.93 260.02,-225.62 117.29,-108.27 79.12,-94.76 -99.03,-95.48l-721.8 -0.22c-8.08,1.55 -12.2,4.62 -66,50.72zm-1157.21 -49.73l971.52 -1.4c109.08,-0.15 119.92,35.6 36.69,111.71l-226.68 207.29c-47.1,43.07 -94.12,62.53 -136.34,62.11l-1046.58 1.49 101.5 -96.4 688.34 -0.98c13,-0.02 62.66,-13.65 74.48,-33.55 11.83,-19.91 22.92,-33.48 9.93,-33.47l-508.82 0.73 77.97 -74.05 510.61 -0.73c42.39,-0.06 87.42,-67.03 67.12,-66.99l-700.57 1.01 80.82 -76.76z"/>
    <path class="fil1" d="M6954.19 2202.91c151.75,-122.01 303.49,-244.03 455.24,-366.04 256.8,1.22 513.59,2.45 770.39,3.67 -47.4,39.75 -94.8,79.51 -142.19,119.26 -171.91,-1.22 -343.81,-2.45 -515.72,-3.67 -30.07,23.09 -60.14,46.17 -90.21,69.26 135.12,1.99 270.24,3.98 405.36,5.97 -36.54,28.86 -73.09,57.72 -109.63,86.57 -130.52,0.56 -261.03,1.13 -391.54,1.69 -37.74,26.85 -75.48,53.69 -113.22,80.54 -89.49,0.92 -178.98,1.83 -268.48,2.75z"/>
   </g>
  </svg>
  