<?xml version="1.0" encoding="UTF-8"?>
  <!DOCTYPE svg PUBLIC "-//W3C//DTD SVG 1.1//EN" "http://www.w3.org/Graphics/SVG/1.1/DTD/svg11.dtd">
  <!-- Creator: CorelDRAW 2020 (64 Bit) -->
  <svg xmlns="http://www.w3.org/2000/svg" xml:space="preserve" width="1810.51mm" height="351.268mm" version="1.1" style="shape-rendering:geometricPrecision; text-rendering:geometricPrecision; image-rendering:optimizeQuality; fill-rule:evenodd; clip-rule:evenodd"
  viewBox="0 0 173293.08 33621.68"
   xmlns:xlink="http://www.w3.org/1999/xlink"
   xmlns:xodm="http://www.corel.com/coreldraw/odm/2003">
   <defs>
    <style type="text/css">
     <![CDATA[
      .fil2 {fill:#000000}
      .fil0 {fill:#ff0000}
      .fil1 {fill:#d9d9d9}
     ]]>
    </style>
   </defs>
   <g id="Camada_x0020_1">
    <metadata id="CorelCorpID_0Corel-Layer"/>
    <path class="fil0" d="M153448.61 28553.54l617.22 -33.3c119.72,-8.27 189.97,-12.52 396.11,-116.93l2378.01 -1197.51c247.78,-122.05 301.09,24.3 309.25,51.02l-2568.69 1293.65c-337.54,173.14 -316.76,178.82 -404.18,394.63l-424.58 1016.22 4562.56 -2300.9c32.28,-16.12 160.94,-108.42 219.15,-243.97l283.96 -661.37c93.3,-273.64 -61.79,-268.34 -306.46,-146.71l342.59 -282.56 60.31 -164.58c40.1,-162.95 -84.28,-318.28 -242.64,-235.74l-5222.61 2628.06zm-15782.42 -12908.33c-4641.05,-1194.02 -9282.09,-2388.1 -13923.14,-3582.12 -1269.83,-798.42 -2539.72,-1596.83 -3373.92,-2046.86 -834.25,-450.03 -1232.87,-551.74 -3970.68,-896.92 -2737.87,-345.25 -7814.95,-933.99 -12892.03,-1522.77 -165.07,-212.16 -330.12,-424.38 -495.18,-636.53 9183.98,-172.6 18367.9,-345.22 27551.88,-517.82 2367.7,3067.7 4735.36,6135.33 7103.06,9203.01zm-12953.63 -2724.06c4693.88,1192.27 9387.71,2384.48 14081.59,3576.76 128.78,103.65 257.55,207.37 451.35,392.52 390.88,373.44 723.23,757.6 1193.15,992.03 144.8,72.22 265.77,116.04 2005.71,733.13 1739.99,617.09 5098.92,1807.51 6980.89,2453.86 1882.04,646.3 2287.22,748.59 2717.24,830.1 430.03,81.44 884.95,142.1 1239.62,183.95 354.73,41.79 609.14,64.7 1026.9,26.68 417.83,-38.02 998.92,-136.92 3851.57,-1103.33 2852.73,-966.45 7976.95,-2800.36 13101.22,-4634.27 -7.49,24.98 -15,50.02 -38.41,90.69 -23.4,40.6 -62.66,96.91 -101.97,153.2 -5629.53,2551.32 -11259,5102.65 -14208.67,6415.52 -2949.66,1312.83 -3219.4,1387.15 -3517.37,1445.86 -891.56,175.59 -1548.63,120.99 -2760.89,-163.16 -911.39,-213.63 -2284.63,-593.78 -5275.29,-1455.05 -2990.59,-861.27 -7598.58,-2203.67 -9995.12,-2906.21 -2396.54,-702.53 -2581.63,-765.19 -2754.9,-849.83 -173.2,-84.69 -334.64,-191.33 -1645.26,-1193.94 -1310.56,-1002.65 -3770.43,-2901.33 -5015.16,-3873.72 -1244.73,-972.45 -1274.4,-1018.67 -1294.59,-1050.08 -20.2,-31.4 -30.87,-48.06 -41.6,-64.71zm30802.45 15512.91l-136.31 283.7 1790.92 -900.64 98.6 -268.87 -1753.2 885.81zm3228.75 -985.54l570.13 -1251.26 2576.9 -1297.27c163.98,-77.15 204.32,-283.49 104.08,-236.41l-2651.95 1335.41 243.87 -535.08c1296.32,-643.07 2515.78,-1275.28 3812.08,-1918.38 225.01,-109.78 322.62,-19.25 257.55,142.63l-304.09 675.15c-109.43,203.83 -159.81,250.48 -428.77,382.98l840.03 186.2 -1497.27 753.29 -779.75 -154.54 -990.73 498.87 -314.14 694.57 -1437.95 723.86zm5466.73 -2750.29l-560.18 -116.75c-70.26,-11.05 -79.43,-51.23 -48.39,-119.88l196.99 -500.44 1377.47 -691.55 -187.13 443.04c-42.6,96.23 5.17,133.74 114.54,84.86l1033.67 -520.8c155.66,-81.64 285.7,-155.29 389.82,-320.07l247.75 -542.18c34.29,-95.25 13.72,-129.86 -71.2,-87.82l-2850.75 1435.32 206.95 -550.91 4105.2 -2066.55c149.69,-77.33 259.9,28.85 200.63,150.93 -168.17,376.3 -336.36,752.59 -504.53,1128.88 -159.61,351.75 -324.74,577.33 -525.4,681.96l-3125.42 1591.95zm4162.83 -3092.66c-5.58,31.16 -11.17,62.3 -16.74,93.46 5.82,252.05 175.44,274.93 409.8,158.52l2284.87 -1152.31 -56.29 181.5 -2901.62 1461.02 -300.52 544.28 4174.07 -2102.08c160.44,-93.93 254.63,-206.61 330.44,-395.97l480.18 -1001.11 -4404.2 2212.68zm95.87 -200.09l4172.68 -2104.61 651.22 -738.82 -4624.3 2326.7 -199.59 516.73z"/>
    <path class="fil1" d="M75338.08 10943.21c-26.13,232.06 -52.22,464.06 -78.35,696.13 701.07,3139.14 1402.1,6278.33 1772.2,7912.31 370.14,1633.97 409.31,1762.79 488.96,1886.47 79.65,123.67 199.78,242.25 1868.32,1351 1668.58,1108.8 4885.58,3207.83 6520.8,4257.34 1635.26,1049.52 1688.72,1049.52 1742.82,1049.52 54.15,0 108.87,0 1733.44,-1062.42 1624.57,-1062.42 4818.94,-3187.21 6453.9,-4311.49 1634.95,-1124.28 1710.42,-1247.95 1770.82,-1356.2 60.41,-108.24 105.71,-201.05 525.64,-1796.36 419.92,-1595.26 1214.47,-4693.02 2009.02,-7790.83 -31.87,-252.81 -63.76,-505.59 -95.64,-758.4 -1091.16,2123.75 -2182.37,4247.47 -2759.44,5325.41 -577.07,1077.9 -640.01,1109.97 -2101.28,1892.55 -1461.23,782.62 -4320.8,2315.79 -5809.43,3098.32 -1488.63,782.58 -1606.4,814.52 -1738.61,806.01 -132.21,-8.46 -278.91,-57.47 -1765.66,-840.61 -1486.71,-783.13 -4313.48,-2300.45 -5760.84,-3075.12 -1447.33,-774.68 -1515.3,-806.66 -2081.52,-1896.8 -566.22,-1090.19 -1630.68,-3238.5 -2695.16,-5386.81z"/>
    <path class="fil2" d="M75450.13 11786.34c717.74,3063.16 1435.52,6126.27 1799.86,7679.09 364.35,1552.8 375.28,1595.26 410.96,1657.73 35.67,62.46 96.08,144.95 1700.28,1195.72 1604.23,1050.78 4752.23,3069.85 6390.47,4099.03 1638.27,1029.21 1766.79,1068.54 1855,1081.72 88.25,13.24 136.18,0.37 204.05,-24.46 67.91,-24.83 155.71,-61.53 1743.81,-1094.64 1588.14,-1033.05 4676.59,-3062.4 6235.89,-4113.18 1559.34,-1050.78 1589.55,-1122.97 1642.38,-1231.21 52.87,-108.24 128.38,-252.58 544.95,-1775.32 416.6,-1522.74 1174.24,-4423.94 1931.9,-7325.08 -11.33,-47.69 -22.63,-95.34 -33.97,-143.03 -263.33,748.72 -526.62,1497.44 -987.61,2936.49 -460.98,1439 -1119.59,3568.33 -1778.23,5697.65 -3156.42,2029.41 -6312.8,4058.76 -9469.23,6088.17 -3178.23,-1988.16 -6356.43,-3976.28 -9534.67,-5964.45 -851.94,-2908.91 -1703.85,-5817.77 -2555.79,-8726.68 -33.35,-12.53 -66.73,-25.02 -100.09,-37.55z"/>
    <path class="fil0" d="M36485.48 15827.36c4611.63,-1224.81 9223.25,-2449.66 13834.89,-3674.46 1258.13,-804.79 2516.31,-1609.58 3343.39,-2064.12 827.14,-454.54 1223.23,-558.89 3946.49,-923.79 2723.29,-364.96 7773.76,-990.49 12824.21,-1616.06 162.7,-212.52 325.39,-425.1 488.1,-637.62 -9145.42,-100.67 -18290.79,-201.35 -27436.21,-302.03 -2333.64,3072.72 -4667.23,6145.37 -7000.87,9218.09zm-35607.12 4324.79l424.31 449.45c83.67,86.02 132.32,136.86 345.22,226.71l2450.72 1040.67c253.27,110.18 176.05,245.45 160.93,268.92l-2647.29 -1124.03c-350.27,-145.66 -341.21,-126.14 -562.35,-53.36l-1049.9 332.78 4704.57 1994.53c33.16,14.21 186.76,52.75 327.8,9.58l688.21 -210.77c269.11,-105.64 164.81,-220.57 -86.12,-328.66l437.04 78.8 164.57 -60.35c150.27,-74.72 188.42,-270.02 23.07,-337.51l-5380.78 -2286.77zm1426.67 1499.62l-304.57 79.33 1844.72 784.53 268.89 -98.54 -1809.04 -765.32zm2838.79 1826.85l1323.29 -373.62 2655.38 1127.95c164.85,75.26 348.37,-27.3 247.65,-73.38l-2732.96 -1160.59 565.9 -159.72c1328.55,573.59 2599.1,1095.52 3927.65,1669.11 229.19,100.76 223.18,233.76 57.61,288.72l-711.71 204.29c-226.27,48.2 -294.42,39.93 -569.38,-79.67l400.82 761.34 -1542.49 -655.71 -386.02 -694.87 -1020.98 -433.62 -733.04 209.21 -1481.71 -629.45zm5631.83 2394.08l-272.95 -502.93c-36.97,-60.75 -12.25,-93.71 60.21,-114.4l509.19 -173.14 1417.98 604.2 -459.02 143.52c-100.99,29.7 -98.73,90.4 9.25,142.26l1065.48 452.2c162.89,66 303.16,117.62 496.19,90.58l573.85 -161.34c94.85,-35.41 107.97,-73.47 20.99,-111.1l-2937.7 -1247.72 554.13 -198.13 4230.14 1797.01c155.75,64.23 145.95,216.96 14.47,250.63 -395.84,114.91 -791.68,229.74 -1187.5,344.62 -371.57,105.51 -650.43,125.29 -859.96,39.79l-3234.76 -1356.05zm5050.42 1177.78c-27.39,15.89 -54.78,31.76 -82.16,47.66 -188.56,167.34 -96.4,311.55 143.9,415.14l2356.04 998.82 -174.91 74.35 -2990.2 -1269.92 -609.55 122.43 4301.75 1826.63c175.38,61.73 322.22,60.76 515.73,-3.76l1074.29 -280.63 -4534.88 -1930.72zm214.63 -56.17l4302.79 1823.92 984.68 19.44 -4764.17 -2025.01 -523.29 181.65zm33321.02 -13979.58c-4664.25,1223.47 -9328.45,2446.88 -13992.7,3670.36 -127.42,104.2 -254.82,208.46 -446.35,394.31 -386.35,374.92 -714.14,759.86 -1180.28,996.96 -143.6,73.03 -263.71,117.61 -1991.3,745.51 -1727.65,627.89 -5062.76,1839.17 -6931.55,2497.29 -1868.85,658.07 -2271.47,763.06 -2698.99,847.55 -427.53,84.42 -880.01,148.34 -1232.81,192.75 -352.86,44.36 -605.99,69.14 -1022.23,34.52 -416.3,-34.62 -995.64,-128.58 -3843.4,-1068.69 -2847.82,-940.14 -7963.99,-2726.37 -13080.22,-4512.58 7.67,24.81 15.33,49.68 38.96,89.99 23.61,40.25 63.13,96 102.71,151.75 5624.85,2496.61 11249.64,4993.22 14196.67,6277.53 2947.02,1284.26 3216.16,1356.17 3513.29,1412.32 889.01,167.91 1542.89,108.45 2747.64,-183.85 905.77,-219.76 2270.11,-608.9 5241.09,-1489.61 2970.93,-880.71 7548.5,-2252.99 9929.19,-2971.04 2380.68,-718.05 2564.48,-781.89 2736.34,-867.48 171.79,-85.66 331.7,-193.11 1628.86,-1201.5 1297.09,-1008.46 3731.55,-2917.95 4963.34,-3895.77 1231.8,-977.86 1260.97,-1024.12 1280.84,-1055.55 19.86,-31.43 30.36,-48.1 40.92,-64.76z"/>
    <path class="fil2" d="M42365.34 14849.92c-1082.51,1180.17 -2165.08,2360.28 -2768.05,2989.16 -603.02,628.89 -726.44,706.54 -1017.11,842.06 -290.68,135.52 -748.54,329.02 -990.8,431.39 -242.32,102.38 -268.99,113.6 -2697.12,857.05 -2428.2,743.39 -7257.81,2218.99 -12087.43,3694.54 -62.92,-6.98 -125.89,-13.89 -188.82,-20.87 4197.64,-1538.21 8395.22,-3076.41 10558.7,-3887.86 2163.48,-811.52 2292.8,-896.23 2459.4,-993.63 166.53,-97.39 370.36,-207.4 861.78,-694.47 491.42,-487.11 1270.44,-1351.22 2049.44,-2215.38 1273.32,-333.98 2546.68,-668.02 3820,-1002zm-2953.19 52.2c2095.35,-2662.7 4190.75,-5325.45 6286.1,-7988.14 -913.72,-28.48 -1827.46,-57.01 -2741.19,-85.48 863.19,-1323.12 1726.43,-2646.3 2589.62,-3969.43 -778.18,17.23 -1556.36,34.45 -2334.54,51.68 132.71,-452.06 265.35,-904.17 398.06,-1356.23 1324.26,-463.92 2648.52,-927.79 3972.78,-1391.71 12669.09,-54.3 25338.18,-108.52 38007.27,-162.81 241.66,192.6 483.38,385.2 725.04,577.79 -552.89,912.64 -1105.78,1825.29 -1658.67,2737.93 -4549.65,1389.17 -9099.3,2778.33 -13648.94,4167.49 -6623.76,84.95 -13247.59,169.9 -19871.35,254.85 -458.2,5.51 -916.45,11.08 -1261.76,31.82 -800.57,48 -1220.96,205.45 -1973.51,927.2 -563.15,540.1 -1389.29,1472.9 -2164.3,2392.55 -775.06,919.65 -1498.93,1826.09 -2222.86,2732.54 -1367.24,359.99 -2734.49,719.94 -4101.75,1079.94z"/>
    <path class="fil1" d="M56867.39 6662.76c81.31,-197.37 89.87,-178.54 -79.66,-179.63 -117.38,-0.76 -651.16,-7.03 -738,22.24 -96.72,32.6 -191.29,247.54 -148.4,335.64 32.64,67.05 131.05,68.27 244.42,72.09 89.99,3.02 213.66,3.42 337.36,3.81 -25.43,58.74 -21.56,57.61 -151.28,56.9 -107.08,-0.6 -309.71,-6.06 -415.38,-7.55 -105.67,-1.5 -114.42,0.99 -133.69,30.23 -19.27,29.24 -49.02,85.25 -61.52,121.26 -12.47,35.98 -7.66,51.99 130.24,61.26 103.36,6.94 673.46,24.26 745.81,-1.46 117.98,-41.95 209.33,-208.43 225.21,-321.75 15.21,-108.5 -75.03,-116.78 -162.89,-119.92 -140.54,-2.17 -281.05,-4.33 -421.59,-6.5 -19.91,-26.15 -28.11,-54.63 10.1,-70.33 26.9,-11.06 478.49,1.25 619.27,3.7zm12479.24 -5071.42c-704.4,1373.08 -1408.78,2746.22 -2113.17,4119.31 -8.57,46.73 -17.08,93.39 -8.05,118.72 9.02,25.33 35.63,29.33 62.22,33.26 3044.76,-160.5 6089.54,-321.01 9134.31,-481.51 2589.93,-856.49 5179.92,-1713.03 7769.84,-2569.51 381.18,-725.46 762.28,-1450.86 1143.46,-2176.32 8.62,-32.87 -10.86,-69.57 -28.96,-95.43 -4234.82,54.17 -8469.57,108.38 -10641.51,147.4 -2171.95,38.97 -2281.07,62.72 -2823.63,210.9 -542.49,148.18 -1518.54,420.65 -2494.52,693.18zm-679.18 -813.05c-3991.4,63.14 -7982.87,126.24 -11974.26,189.38 -1037.88,376.85 -2075.74,753.77 -2655.81,987.53 -815.44,328.59 -914.13,408.47 -1439.3,1163.21 -396.37,569.66 -1080.03,1619.59 -1419.95,2164.04 -339.86,544.45 -336.05,583.42 -332.24,622.34 4282.12,-39.18 8564.3,-78.3 10743.67,-108.19 2179.37,-29.93 2255.99,-50.52 2672.98,-209.28 416.97,-158.83 1174.29,-455.84 1606.31,-661.98 432.02,-206.13 538.67,-321.37 645.39,-436.68 426.96,-592.33 853.92,-1184.6 1280.88,-1776.93 -3470.86,25.26 -6941.72,50.58 -10412.58,75.84 170.57,-265.72 341.13,-531.5 511.7,-797.22 2790.24,15.11 5580.53,30.16 8370.77,45.27 800.83,-419.1 1601.6,-838.24 2402.43,-1257.33zm-11953.62 2905.26c1793.87,-18.35 3587.74,-36.7 5381.61,-55.05 -692.86,319.71 -1385.78,639.42 -2078.63,959.13 -1319.7,8.42 -2639.4,16.79 -3959.09,25.21 218.68,-309.78 437.44,-619.52 656.12,-929.3zm-13137.92 -1352.88c1096.4,-448.15 2192.86,-896.25 3289.27,-1344.4 1940.47,6.59 3880.94,13.24 5821.4,19.83 -1059.89,1624.21 -2119.85,3248.37 -3179.75,4872.58 -1651.03,4.36 -3302.1,8.74 -4953.13,13.09 798.18,-1218.42 1596.41,-2436.92 2394.59,-3655.36 -1124.13,31.42 -2248.25,62.84 -3372.38,94.26zm28527.24 1778.35c298.28,-501.08 927.74,-1434.3 1260.37,-1919.07 332.63,-484.77 368.44,-521.03 404.18,-557.28 2011.25,-6.88 4022.51,-13.76 6033.76,-20.65 3.18,32.45 6.36,64.89 -120.66,273.97 -126.96,209.01 -384.11,594.61 -641.26,980.27 -1151.69,486.32 -2303.34,972.57 -3455.03,1458.89 -1237.94,140.89 -2475.83,281.78 -3713.77,422.66 -32.96,-68.88 -65.86,-137.71 232.42,-638.79zm-4078.09 2982.21c103.12,-5.64 206.28,-11.25 309.41,-16.88 72.41,-117.96 144.83,-235.9 217.24,-353.86 140.32,124.02 280.67,248.06 420.99,372.09 76.06,-5.58 152.16,-11.17 228.22,-16.75 95.82,-230.4 191.65,-460.76 287.47,-691.16 -99.35,-0.82 -198.7,-1.65 -298.06,-2.46 -60.84,127.19 -121.71,254.35 -182.56,381.54 -130.73,-119.11 -261.49,-238.18 -392.22,-357.28 -85.66,0.63 -171.31,1.26 -256.97,1.9 -111.17,227.62 -222.37,455.22 -333.54,682.85zm-122.99 -650.62c-97.97,-1.25 -580.92,-12.65 -641.18,2.43 -112.45,28.15 -150.93,81.77 -208.11,188.14 -34.42,64.02 -193.26,346.1 -189.1,403.34 3.98,54.84 54.71,111.94 112.04,122.44 105.31,19.28 610.68,-7.14 745.31,-13.52 156.21,-7.4 159.22,-20.11 211.01,-87.02 74.8,-96.62 166.22,-280.09 221.01,-397.48 34.47,-73.86 45.07,-102.52 14.17,-154.23 -45.89,-76.77 -149.53,-62.65 -265.15,-64.1zm-248.57 224.03c-289.89,-3.77 -266.07,-33.99 -367.96,175.95 -15.02,30.94 -25.14,55.2 6.3,78.98 17.97,13.59 29.54,9.77 87.04,7.59 33.06,-1.25 254.52,-4.81 268.41,-15.99 30.33,-24.4 113.11,-180.93 110.6,-203.17 -5.69,-50.42 -62.43,-42.83 -104.4,-43.36zm-1456.69 -12.31c-81.89,167.17 -163.8,334.32 -245.69,501.49 -113.38,-5.26 -226.8,-10.5 -340.18,-15.77 82.55,-162.29 165.08,-324.59 247.63,-486.88 -115.44,1.16 -230.88,2.32 -346.34,3.47 28.13,-62.35 56.27,-124.68 84.4,-187.04 341.72,-2.52 683.44,-5.06 1025.16,-7.58 -28.93,63.42 -57.88,126.82 -86.81,190.25 -112.71,0.68 -225.46,1.38 -338.17,2.06zm537.8 -212.91c99.7,4.14 199.42,8.28 299.12,12.41 -117.09,228.29 -234.21,456.56 -351.31,684.86 -102.82,-4.94 -205.66,-9.89 -308.48,-14.82 120.22,-227.48 240.46,-454.98 360.67,-682.46zm-1514.46 13.51c99.71,4.13 199.43,8.27 299.13,12.41 -117.1,228.29 -234.22,456.56 -351.32,684.85 -102.82,-4.93 -205.66,-9.89 -308.48,-14.82 120.22,-227.47 240.46,-454.97 360.67,-682.45zm-1162.37 10.93c-115.95,225.14 -231.93,450.28 -347.88,675.41 41.39,24.28 702.1,17.81 796.44,16.37 170,-2.61 188.12,-2.57 247.1,-58.17 64.77,-61.06 189.31,-326.46 229.1,-416.29 31.53,-71.15 40.97,-107.82 3.13,-157.51 -51.61,-67.77 -109.87,-70.92 -253.2,-71.26 -143.63,-0.35 -409.15,5.55 -674.7,11.45zm203.83 212.1c-44.68,86.71 -89.35,173.44 -134,260.13 13.48,7.93 357.81,12.22 381.08,-0.69 52.56,-29.16 123.01,-199.23 119.43,-214.61 -11.08,-47.69 -51.56,-49.11 -106.67,-49.25 -55.31,-0.13 -157.57,2.15 -259.84,4.41zm-364.01 -181.67c-280.24,-4.47 -560.47,-8.94 -840.71,-13.42 -114.13,227.96 -228.29,455.9 -342.43,683.86 289.31,4.96 578.64,9.9 867.94,14.85 28.61,-66.39 57.21,-132.8 85.81,-199.19 -179.38,-3.82 -358.8,-7.61 -538.18,-11.44 10.48,-24.86 20.93,-49.72 31.41,-74.59 182.74,4.57 365.49,9.12 548.24,13.69 28.93,-63.43 57.87,-126.86 86.81,-190.28 -175.18,0.61 -350.36,1.23 -525.52,1.84 7.95,-16.03 15.88,-32.07 23.84,-48.12 174.46,-0.42 348.92,-0.85 523.38,-1.27 26.47,-58.64 52.93,-117.27 79.41,-175.91zm-2007.08 -18.29c-122.38,234.89 -244.76,469.78 -367.14,704.67 289.48,3.65 578.96,7.27 868.45,10.92 37.82,-75.18 75.66,-150.34 113.48,-225.51 -185.34,-3.15 -370.7,-6.3 -556.05,-9.45 75.49,-157.4 150.96,-314.82 226.45,-472.22 -95.07,-2.8 -190.12,-5.61 -285.19,-8.41zm-480.76 696.73c-103.13,3.6 -206.29,7.19 -309.44,10.78l123.14 -242.21 -414.5 -13.08c-46.39,93.17 -88.97,167.82 -135.37,261 -109,3.1 -218.03,6.24 -327.03,9.35 89.37,-169.52 328.47,-641.93 378.55,-678.01 71.5,-51.5 143.45,-41.39 288.36,-40.92 101.68,0.33 553.62,-9.46 611.44,34.13 94.15,70.98 46.98,149.83 -2.79,248.5 -44.24,87.68 -128.31,249.1 -212.36,410.46zm-512.79 -432.23c150.91,4.14 260.06,7.13 410.97,11.28 29.75,-68.57 49.38,-88.06 -45.38,-92.64 -46.08,-2.23 -290.2,-14.86 -318.2,-1.74 -24.31,11.39 -39.1,53.22 -47.4,83.11zm-602.27 -251.23c99.7,4.14 199.42,8.27 299.12,12.41 -117.1,228.29 -234.22,456.56 -351.31,684.85 -102.82,-4.93 -205.67,-9.88 -308.48,-14.82 120.21,-227.47 240.46,-454.97 360.67,-682.45zm-113.74 -9.62c-35.43,77.5 -70.89,155.01 -106.31,232.51 -222.7,-6.63 -445.44,-13.26 -668.14,-19.88 -45.24,88.37 -90.5,176.73 -135.75,265.1 228.17,5.47 456.36,10.93 684.53,16.4 -33.88,73.01 -67.75,146 -101.64,219.02 -198.7,0.09 -760.19,7.64 -817.53,-14.5 -66.37,-25.63 -131.84,-83.32 -120.71,-164.6 6.32,-46.13 180.74,-346.85 217.06,-406.5 59.67,-97.99 82.4,-115.4 171.86,-136.71 125.68,-29.93 691.04,1.96 876.64,9.17zm-1110.64 18c-280.25,-4.47 -560.47,-8.95 -840.72,-13.42 -114.13,227.96 -228.29,455.89 -342.42,683.86 289.3,4.95 578.64,9.9 867.93,14.85 28.61,-66.39 57.21,-132.8 85.82,-199.2 -179.39,-3.82 -358.8,-7.61 -538.19,-11.43 10.48,-24.87 20.93,-49.72 31.41,-74.59 182.75,4.56 365.49,9.12 548.24,13.68 28.93,-63.42 57.88,-126.85 86.81,-190.28 -175.18,0.61 -350.35,1.23 -525.52,1.85 7.95,-16.04 15.89,-32.07 23.84,-48.12 174.46,-0.43 348.92,-0.85 523.38,-1.28 26.48,-58.64 52.93,-117.26 79.41,-175.91zm-1844.75 406.47c-44.47,96.91 -86.22,187.78 -130.7,284.69 -109.11,-7.22 -218.21,-14.47 -327.32,-21.69 121.23,-231.76 231.37,-466.77 352.61,-698.54 208.75,0.58 791.7,-0.52 860.75,22.45 168.58,56.07 61.35,231.31 -8.95,334.12 -68.96,100.85 -161.03,103.13 -293.6,97.72 -98.33,-4.02 -276.95,-8.37 -452.8,-18.75zm125.2 -259.24c-14.06,31.38 -28.09,62.73 -42.15,94.11 95.89,5.78 374.17,27.79 399.51,13.17 28.91,-16.67 40.49,-64.58 1.59,-86.26 -25.6,-14.27 -271.52,-18.1 -358.94,-21.02z"/>
    <path class="fil2" d="M131719.54 14769.73c1096.4,1176.79 2192.85,2353.52 2803.33,2980.39 610.53,626.89 735.08,703.91 1028.07,837.74 292.98,133.83 754.33,324.59 998.44,425.5 244.16,100.92 271.03,111.99 2715.42,839.65 2444.46,727.61 7306.38,2171.81 12168.31,3615.94 63.13,-7.49 126.33,-14.93 189.47,-22.43 -4227.73,-1512.01 -8455.39,-3024.01 -10634.53,-3822.05 -2179.13,-798.09 -2309.66,-882.16 -2477.75,-978.67 -168.02,-96.51 -373.58,-205.4 -870.92,-690.72 -497.34,-485.38 -1286.46,-1347.11 -2075.57,-2208.9 -1281.4,-325.46 -2562.87,-651 -3844.27,-976.46zm2966.3 29.35c-2125.16,-2657.78 -4250.39,-5315.6 -6375.57,-7973.36 917.43,-35.75 1834.88,-71.55 2752.31,-107.28l-2001.65 -3016.61 392.45 -126.53 396.17 -740.35 57.81 -61.6c308.96,-587.38 600.15,-1168.11 912.06,-1751.06 19.05,-512.74 -73.15,-559.14 -342.21,-949.59 -13007.62,64.52 -26028.6,64.24 -39043.35,109.79l-2591.03 1066.73 -1234.66 479.67 800.47 1186.87 1908.99 -57.52 -2410.66 3620.02 6583.98 32.2 324.34 -488.92 47.3 524.52 4478.74 -6.09 3555.04 1055.3c6652.93,33.54 13305.92,67.08 19958.84,100.59 460.22,1.96 920.48,3.98 1267.44,22.1 804.41,41.93 1227.84,196.84 1989.25,915.77 569.8,538.01 1406.79,1468.36 2192.33,2385.91 785.59,917.55 1519.65,1822.23 2253.77,2726.92 1375.95,350.87 2751.89,701.67 4127.83,1052.53z"/>
    <path class="fil1" d="M114123.16 1621.21c-717.82,1373.65 -1435.62,2747.38 -2153.44,4121.04 -8.95,46.86 -17.85,93.67 -8.99,119.17 8.86,25.51 35.56,29.72 62.24,33.87 3059.09,-138.15 6118.18,-276.3 9177.27,-414.46 2607.57,-840.56 5215.19,-1681.2 7822.75,-2521.77 388.31,-725.69 776.55,-1451.33 1164.85,-2177.03 8.92,-32.97 -10.39,-69.94 -28.36,-96.06 -4253.45,22.35 -8506.85,44.76 -10688.44,67.5 -2181.59,22.69 -2291.37,45.73 -2837.38,190.44 -545.95,144.7 -1528.26,410.96 -2510.51,677.28zm-8520.64 4964.04c83.71,-197.36 92.14,-178.36 -78.12,-181.23 -117.93,-1.99 -653.83,-13.87 -741.4,14.63 -97.34,31.67 -194.75,246.48 -152.53,335.52 32.09,67.69 130.86,69.93 244.71,74.95 90.35,3.97 214.54,5.67 338.76,7.36 -26.2,58.7 -22.18,57.64 -152.53,55.56 -107.53,-1.72 -310.96,-9.32 -417.07,-11.94 -106.12,-2.61 -114.93,-0.2 -134.58,28.96 -19.65,29.16 -50.11,85.1 -63.04,121.14 -12.9,36 -8.24,52.14 130.15,62.88 103.74,8.05 676.07,31.4 749.01,6.33 118.94,-40.89 212.41,-207.16 229.54,-320.76 16.41,-108.81 -74.13,-118.07 -162.33,-122.14 -141.11,-3.66 -282.21,-7.28 -423.32,-10.94 -19.75,-26.46 -27.63,-55.17 10.87,-70.52 27.14,-10.83 480.51,6.26 621.88,10.19zm11200.92 547.04c103.63,-4.58 207.28,-9.13 310.91,-13.72 73.96,-117.71 147.92,-235.39 221.88,-353.1 139.62,126.03 279.28,252.08 418.9,378.09 76.45,-4.81 152.92,-9.63 229.37,-14.43 98.64,-230.38 197.3,-460.73 295.94,-691.11 -99.77,-1.87 -199.54,-3.72 -299.31,-5.59 -62.43,127.1 -124.89,254.17 -187.32,381.26 -130.05,-120.97 -260.12,-241.93 -390.17,-362.9 -86.03,-0.26 -172.05,-0.52 -258.08,-0.78 -114.03,227.43 -228.09,454.85 -342.11,682.28zm-116.71 -654.69c-98.34,-2.28 -583.32,-18.77 -643.94,-4.27 -113.22,27.09 -152.44,80.55 -210.98,186.77 -35.23,63.94 -197.7,345.57 -194.13,403.09 3.42,55.08 53.75,112.98 111.24,124.13 105.55,20.46 613.37,-0.78 748.65,-5.78 156.97,-5.8 160.1,-18.54 212.83,-85.2 76.1,-96.2 169.88,-279.6 226.11,-396.86 35.41,-73.84 46.35,-102.46 15.83,-154.73 -45.28,-77.59 -149.49,-64.48 -265.61,-67.15zm-251.98 222.39c-291.19,-6.89 -266.89,-36.78 -371.36,172.85 -15.4,30.91 -25.85,55.15 5.49,79.39 17.9,13.84 29.58,10.12 87.33,8.53 33.21,-0.92 255.67,-2.15 269.73,-13.25 30.8,-24.29 115.5,-180.57 113.2,-202.89 -5.22,-50.69 -62.21,-43.67 -104.4,-44.63zm-1462.79 -27.6c-83.99,167.02 -167.99,334.05 -251.98,501.06 -113.81,-6.47 -227.66,-12.92 -341.47,-19.39 84.6,-162.13 169.19,-324.25 253.79,-486.39 -115.95,-0.04 -231.9,-0.09 -347.86,-0.12 28.91,-62.33 57.82,-124.63 86.73,-186.95 343.21,1.04 686.41,2.06 1029.62,3.1 -29.72,63.39 -59.45,126.77 -89.18,190.16 -113.2,-0.49 -226.43,-0.98 -339.64,-1.46zm542.34 -208.19c100.08,5.2 200.19,10.39 300.27,15.59 -119.98,228.04 -240,456.06 -359.98,684.11 -103.2,-6.03 -206.44,-12.08 -309.65,-18.11 123.12,-227.19 246.26,-454.41 369.36,-681.6zm-1521.08 -2.29c100.09,5.2 200.2,10.39 300.28,15.59 -119.99,228.05 -240.01,456.07 -359.98,684.11 -103.21,-6.03 -206.45,-12.08 -309.65,-18.11 123.11,-227.19 246.25,-454.41 369.35,-681.6zm-1167.46 -1.18c-118.8,224.88 -237.63,449.77 -356.44,674.66 41.4,24.83 704.86,25.24 799.68,24.77 170.76,-0.84 188.94,-0.62 248.76,-55.83 65.64,-60.58 193.56,-325.94 234.44,-415.67 32.42,-71.15 42.25,-107.87 4.79,-158.15 -51.13,-68.6 -109.58,-72.38 -253.53,-74.22 -144.24,-1.86 -410.96,1.29 -677.7,4.44zm202.47 215.14c-45.77,86.61 -91.54,173.24 -137.28,259.85 13.48,8.11 359.18,16.01 382.72,3.29 53.05,-28.68 125.62,-198.77 122.19,-214.28 -10.6,-48.02 -51.36,-49.86 -106.62,-50.58 -55.55,-0.72 -158.26,0.51 -261.01,1.71zm-363.66 -186.25c-281.4,-7.42 -562.78,-14.85 -844.17,-22.27 -117.01,227.74 -234.04,455.46 -351.05,683.2 290.5,7.99 581.01,15.99 871.5,23.99 29.42,-66.38 58.84,-132.78 88.26,-199.15 -180.12,-5.71 -360.25,-11.4 -540.37,-17.11 10.79,-24.86 21.55,-49.71 32.33,-74.58 183.48,6.49 366.96,12.99 550.44,19.48 29.73,-63.39 59.45,-126.79 89.18,-190.19 -175.93,-1.22 -351.86,-2.43 -527.79,-3.65 8.15,-16.02 16.29,-32.05 24.45,-48.08 175.22,1.4 350.42,2.8 525.64,4.2 27.2,-58.63 54.39,-117.21 81.59,-175.84zm-2015.48 -39.38c-125.36,234.63 -250.73,469.24 -376.08,703.86 290.69,6.69 581.36,13.35 872.05,20.04 38.76,-75.11 77.57,-150.19 116.33,-225.28 -186.11,-5.1 -372.24,-10.2 -558.33,-15.3 77.46,-157.29 154.91,-314.59 232.37,-471.88 -95.46,-3.81 -190.88,-7.62 -286.33,-11.44zm-490.1 694.69c-103.61,2.53 -207.25,5.05 -310.87,7.58l126.2 -241.96 -416.14 -17.48c-47.57,93.09 -91.1,167.62 -138.68,260.7 -109.5,1.98 -219.02,3.99 -328.53,5.96 91.53,-169.3 336.6,-641.23 387.27,-676.94 72.37,-50.99 144.46,-40.06 290.03,-38.08 124.66,1.69 342.25,5.08 460.61,11.83 125.34,7.14 155.13,14.63 189.61,68.88 38.94,61.26 5.51,117.83 -41.92,209.49 -45.35,87.61 -131.46,248.82 -217.57,410.01zm-510.47 -439.45c151.52,5.73 261.1,9.88 412.61,15.62 30.6,-68.55 50.52,-87.91 -44.59,-93.5 -46.25,-2.73 -291.27,-17.98 -319.54,-5.08 -24.56,11.21 -39.81,53 -48.48,82.97zm-602.21 -258.6c100.08,5.2 200.19,10.39 300.27,15.58 -119.99,228.05 -240,456.07 -359.98,684.11 -103.21,-6.02 -206.44,-12.08 -309.65,-18.11 123.11,-227.19 246.25,-454.41 369.36,-681.59zm-114.13 -10.85c-36.39,77.46 -72.81,154.92 -109.19,232.39 -223.59,-8.99 -447.21,-17.97 -670.79,-26.95 -46.37,88.29 -92.74,176.54 -139.11,264.81 229.08,7.88 458.2,15.75 687.28,23.63 -34.79,72.97 -69.57,145.92 -104.36,218.89 -199.56,-1.99 -763.53,-0.29 -820.89,-23.12 -66.39,-26.44 -131.53,-85.05 -119.49,-166.56 6.84,-46.33 185.12,-346.39 222.25,-405.97 60.95,-97.8 83.92,-115.02 174.01,-135.5 126.46,-28.75 694.06,9.21 880.29,18.39zm-1115.58 6.45c-281.4,-7.42 -562.78,-14.85 -844.17,-22.26 -117.01,227.73 -234.04,455.45 -351.05,683.2 290.5,7.99 581.01,15.99 871.5,23.99 29.42,-66.37 58.84,-132.78 88.26,-199.14 -180.12,-5.71 -360.25,-11.4 -540.37,-17.11 10.79,-24.87 21.55,-49.72 32.33,-74.59 183.48,6.5 366.96,12.99 550.44,19.48 29.73,-63.39 59.45,-126.78 89.18,-190.19 -175.93,-1.22 -351.87,-2.43 -527.79,-3.65 8.15,-16.02 16.29,-32.05 24.45,-48.07 175.22,1.4 350.42,2.79 525.64,4.19 27.2,-58.63 54.39,-117.21 81.59,-175.84zm-1856.89 388.92c-45.68,96.86 -88.57,187.69 -134.24,284.55 -109.5,-8.4 -219,-16.82 -328.49,-25.22 124.17,-231.48 237.25,-466.34 361.43,-697.83 209.57,2.77 795.15,7.77 864.2,31.55 168.71,58.1 59.2,232.88 -12.49,335.46 -70.27,100.56 -162.83,101.88 -295.87,95.05 -98.7,-5.06 -278.04,-11.29 -454.53,-23.57zm128.44 -259.05c-14.44,31.38 -28.86,62.71 -43.31,94.08 96.24,6.81 375.47,31.82 401.08,17.4 29.16,-16.42 41.35,-64.42 2.49,-86.61 -25.54,-14.59 -272.53,-21.02 -360.26,-24.87zm7359.08 -5772.83c-4009.05,33.2 -8018.18,66.36 -12027.24,99.57 -1045.19,370.62 -2090.38,741.29 -2674.71,971.68 -821.46,323.84 -921.12,403.3 -1454.29,1157.32 -402.39,569.1 -1096.93,1618.38 -1442.44,2162.61 -345.45,544.22 -341.91,583.39 -338.38,622.51 4300.84,-6.94 8601.75,-13.83 10790.74,-27.34 2188.98,-13.58 2266.09,-33.66 2686.06,-189.97 419.98,-156.35 1182.8,-448.91 1618.25,-652.66 435.44,-203.75 543.42,-318.68 651.47,-433.68 433.27,-591.65 866.56,-1183.24 1299.84,-1774.88 -3485.99,-0.9 -6971.97,-1.75 -10457.96,-2.65 173.31,-265.57 346.62,-531.2 519.93,-796.77 2802.14,36.3 5604.33,72.52 8406.46,108.82 807.44,-414.84 1614.83,-829.73 2422.28,-1244.56zm-12027.06 2827.3c1801.73,-4.85 3603.46,-9.71 5405.19,-14.56 -698.26,315.84 -1396.59,631.69 -2094.85,947.53 -1325.43,-1.53 -2650.88,-3.12 -3976.32,-4.65 221.97,-309.46 444,-618.86 665.98,-928.32zm-13184.23 -1458.15c1104.51,-441.78 2209.09,-883.51 3313.61,-1325.29 1948.77,21.31 3897.55,42.67 5846.32,63.98 -1076.76,1623.17 -2153.57,3246.3 -3230.33,4869.49 -1658.16,-8.12 -3316.38,-16.22 -4974.55,-24.33 810.84,-1217.64 1621.73,-2435.35 2432.57,-3652.98 -1129.21,23.05 -2258.41,46.09 -3387.61,69.13zm28636.58 2001.92c303.35,-500.98 942.58,-1433.46 1280.31,-1917.8 337.73,-484.34 373.96,-520.48 410.13,-556.62 2019.97,8.31 4039.93,16.63 6059.89,24.93 2.95,32.61 5.9,65.22 -123.25,274.23 -129.08,208.96 -390.26,594.27 -651.44,979.63 -1160.33,479.7 -2320.61,959.33 -3480.94,1439.03 -1244.34,132.13 -2488.63,264.24 -3732.96,396.37 -32.58,-69.42 -65.1,-138.8 238.25,-639.78z"/>
    <path class="fil1" d="M64403.84 30095.63c-2.41,2.21 4.83,6.35 143.18,86.48 138.29,80.08 407.67,236.09 677.12,392.11 1159.67,-20.83 2319.34,-41.59 2900.8,-46.78 581.47,-5.25 584.78,5.2 586.29,19.06 5.27,49.33 -37.67,154.09 -43.7,159.09 -2.92,2.39 -6.93,2.51 -595.49,19.65 -588.62,17.14 -1761.73,51.31 -2372.66,80.08 -610.99,28.7 -659.66,51.99 -698.07,78.92 -38.47,26.92 -66.62,57.47 -204.5,243.05 -137.88,185.57 -385.42,526.26 -514.72,715.43 -124.25,181.78 -180.08,271.4 -105.42,300.02 55.47,21.27 4376.75,-118.35 4767.31,-132.66 951.17,-34.86 979.07,-51.57 1013.82,-66.48 34.75,-14.9 76.42,-28 201.67,-182.76 110,-135.94 542.35,-713.61 553.37,-851.01 11.36,-141.69 -123.18,-137.67 -232.23,-136.95 -161.19,1.06 -301.42,4.49 -457.56,21.16 1.16,-65.12 33.84,-84.55 176.59,-131.38 119.75,-39.31 331.23,-97.64 447.66,-143.83 116.43,-46.26 137.7,-80.43 173.22,-135.01 64.71,-99.51 139.37,-202.6 153.85,-309.49 12.4,-91.51 -40.47,-111.19 -130.61,-124.81 -130.96,-19.78 -6439.17,145.42 -6439.92,146.12zm22352.71 110.23c-209.57,144.63 -419.2,289.31 -628.77,433.93 -1282.52,-53.85 -2565.12,-107.69 -3847.64,-161.53 83.65,-129.92 274.61,-446.19 343.28,-483.82 24.4,-13.4 52.06,-19.79 741.5,16.63 689.39,36.41 2040.5,115.57 3391.63,194.79zm-4319.91 940.3c-96.22,-119.01 -192.44,-238.01 -238.52,-314.7 -54.14,-90.13 -46.87,-158.49 -1.11,-180.36 15.65,-7.48 36.39,-8.81 715.64,17.1 679.24,25.84 2017.05,78.92 2699.69,107.45 682.64,28.53 710.18,32.46 733,48.01 109.44,74.55 21.42,214.52 -45.51,338.58 -66.36,122.98 -310.78,579.75 -386.84,655.55 -77.47,77.2 -168.11,122.23 -269.26,153.95 -28.64,8.94 -54.67,15.43 -762.5,-0.59 -277.21,-6.29 -3483.33,-82.99 -3493.74,-108.47 -12.54,-30.67 273.03,-438.95 295.78,-444.99l3112.19 86.11c162.29,-336.01 159.1,-287.32 -353.41,-302.98 -405.2,-12.4 -1205.33,-33.57 -2005.4,-54.67zm-4651.71 -750.36c547.61,5.41 1608.36,17.31 2144.74,26.85 536.32,9.53 548.28,16.69 554.11,29.76 20.41,45.76 -8.94,95.11 -90.19,218.29 -87.74,133.02 -259.54,381.84 -353.25,512.18 -97.51,135.57 -118.36,162 -204.24,182.65 -56.18,13.51 -1311.54,2.59 -1456.85,-0.86 -489.64,-11.64 -395.42,9.26 -20.51,-592.94 57.56,-92.46 74.8,-123.38 50.22,-156.16 -18.94,-25.26 -1024.25,-27.07 -1131.21,-26.98 -260.5,0.22 -287.19,-6.58 -431.51,108.75 -75.46,60.3 -222.17,283.55 -280.22,378.91 -85.8,140.97 -83,174.48 29.03,311.05 91.16,111.15 272.35,302.41 368.95,399.9 96.61,97.42 108.62,101.08 710.68,102.32 602.07,1.19 1794.13,-0.1 2428.38,-13.79 634.27,-13.76 710.59,-39.95 797.01,-95.31 238.3,-152.8 394.95,-387.29 589.5,-700.34 147.37,-237.18 360.74,-592.17 467.64,-781.74 106.07,-188.19 143.22,-253.52 61.62,-315.51 -54.28,-41.23 -29.6,-30.8 -825.58,-44.03 -757.97,-12.6 -2260.12,-35.85 -3021.63,-43.32 -761.57,-7.52 -782.43,0.68 -800.69,10.75 -49.36,27.07 -63.66,52.09 -109.24,127.44 -27.36,45.24 -188.54,295.93 -162.93,334.36 23.32,34.98 152.53,22.45 686.15,27.79zm-5971.68 1549.27c-268.53,14.19 -793.08,22.08 -1061.35,21.64 -268.27,-0.45 -280.2,-9.24 -285.96,-23.12 -5.82,-13.94 -5.48,-32.95 135.09,-226.25l742.88 -980.41c83.06,-76.58 153.33,-70.25 738.86,-77.44 573.74,-7.07 1676.25,-13.4 2229.87,-19.64 553.56,-6.31 558.37,-12.67 565.42,-22 38.65,-51.29 69.03,-176.78 51.28,-215.98 -17.37,-38.38 -22.05,-27.41 -596.62,-14.99 -552.92,11.95 -1648.42,36.11 -2199.52,44.66 -551.11,8.55 -557.92,1.47 -562.84,-10.69 -18.51,-45.51 7.69,-74.62 59.86,-159.74 46.29,-75.54 126.51,-207.82 167.87,-274.68 41.38,-66.87 44.03,-68.32 842.77,-74.41 798.74,-6.08 2393.63,-16.73 3203.92,-17.54 810.3,-0.81 836.05,8.22 859.97,21.6 70.95,39.74 69.77,114.89 55.22,193.33 -7.69,41.23 -20.25,72.12 -110.54,204.22 -87.35,127.75 -413.37,596.08 -507.14,672.45 -141.56,115.3 -291.77,81.8 -483.76,90.55 -54.44,2.48 -59.7,9.33 52.87,131.26 112.5,121.86 342.96,358.81 458.02,485.1 108.29,118.84 133.42,152.15 96,180.22 -21.51,16.14 -1453.75,41.88 -1506.49,24.11 -16.31,-5.48 -29.98,-14.3 -135.69,-131.72 -105.76,-117.49 -303.54,-343.59 -426.43,-465.64 -176.6,-175.41 -224.49,-175.4 -510.92,-181.65 -133.72,-2.92 -1001.39,-17.98 -1061.29,18.25 -50.38,30.49 -388.34,557.47 -445.29,644.19 -85.12,129.62 -97.56,150.05 -366.09,164.3zm-5462.58 -663.75l2311.12 -37.23c25.48,-0.42 36.38,20.49 24.47,46.01l-93.04 198.33c-11.91,25.52 -42.64,46.5 -68,46.86l-2311.13 37.29c-25.42,0.36 -36.44,-20.43 -24.46,-46l93.03 -198.33c11.97,-25.58 42.58,-46.51 68.01,-46.93z"/>
    <path class="fil2" d="M78613.59 32825.26c-117.14,184.26 -234.26,368.46 -351.4,552.72 -3252.23,-78.52 -6504.45,-156.98 -9756.68,-235.5 -6.64,-13.96 -13.34,-27.84 -19.98,-41.8 3376,-91.78 6752.06,-183.63 10128.05,-275.42zm916.61 10.87l-72.69 102.7 -278 -5.35 85.39 -121.48c33.18,-47.86 -55.13,-48.83 -87.99,-1.69l-371.7 530.42c-30.86,44.12 53.81,51.38 88,1.69l143.15 -204.47 278 5.35c-214.5,306.62 -196.68,344.57 -559,337.61 -68.86,-1.32 -215.18,-5.91 -249.58,-30.84 -24.72,-19.16 -12.27,-63.97 37.36,-134.42l345.05 -491.88c109.49,-156.4 192.95,-158.47 432.04,-153.86 253.46,4.88 313.29,16.36 209.96,166.22zm322.75 88.31c-22.61,-0.44 -41.4,3.06 -55.43,20.94l-297.01 423.75c-29.88,42.64 39.96,52.91 76.01,1.46l297 -423.75 -2 -0.04c8.28,-14.51 2.1,-21.98 -18.57,-22.37zm-293.43 16.37c81.39,-107.51 185.39,-111.56 356.41,-108.25 154.47,2.98 269.71,8.39 197.59,118.92l-295.76 422.76c-84.44,120.71 -186.07,121.55 -368.9,118.03 -184.04,-3.55 -269.11,-8.63 -185.11,-128.69l295.76 -422.76zm1146.88 573.67l-234 -4.51 379.15 -544.28c8.8,-21.05 -53.46,-22.58 -72.01,-1.39l-383.14 544.21 -234.01 -4.5 383.16 -544.22 -3.99 -0.08c4.62,-25.05 -56.55,-19.06 -72.01,-1.39l-383.15 544.22 -234 -4.51 383.15 -544.21 -2.01 -0.05 77.42 -109.62 234.01 4.51 -22.9 31.6c77.85,-31.56 230.53,-58.35 289.51,7.57 97.9,-37.99 380.96,-80.46 273.97,82.35l-379.15 544.29zm698.63 -799.41l238.01 4.58 -123.98 175.8c99.96,-34.91 363.05,-72.61 248.02,97.88 -50.91,75.45 -275.05,406.95 -329.01,457.65 -65.06,61.12 -129.09,77.1 -217.15,75.4 -54,-1.04 -94.54,-11.82 -121.59,-32.37l-18.92 27.66 -238.01 -4.58 383.15 -544.22 -2 -0.04 181.49 -257.78zm130.52 263.79l-2 -0.04c7.79,-24.6 -56.21,-16.69 -69.99,-1.35l-294.52 417.79c-32.88,46.63 46.96,43.24 75.99,1.46l290.52 -417.86zm547.49 -250.74l238.01 4.58 -66.46 93.82 -238.01 -4.58 66.46 -93.83zm-104.05 148.15l238.01 4.58 -458.58 653.88 -238.01 -4.58 458.58 -653.89zm860.08 -133.59c114.41,2.2 493.55,-4.54 558.6,40.78 28.31,19.72 24.08,57.79 -17.17,113.79 -104.23,141.47 -114.45,195.34 -280.59,223.85 78.12,23.08 87.61,52.47 34.87,126.8 -183.45,258.56 -177.97,309.91 -542.35,302.89l-315.99 -6.09 562.63 -802.03zm-23.49 435.02l-186.71 266.69c33,7.48 86.17,3.26 111.65,-32.9 171.23,-243.21 186.32,-231.55 75.06,-233.79zm180.36 -135.68c134.5,-185.72 158.73,-187.13 46.95,-189.31l-144.88 207.43c33.32,0.67 70.81,5.92 97.94,-18.13zm993.18 -99.01c23.82,44.32 -90.05,185.5 -126.55,238.82l-226.01 -4.35 107.06 -156.12c4.62,-25.05 -56.54,-19.06 -72.01,-1.38l-383.15 544.21 -238.01 -4.58 383.15 -544.21 -2.01 -0.04 76.19 -108.65 238.01 4.58 -18.67 26.67c69.59,-25.69 233.29,-52.62 262.01,5.04zm622.48 5.98c20.72,16.42 18.05,46.07 -7.98,88.93l-381.15 544.26 -240.01 -4.62 18.67 -26.67c-63.26,21.69 -238.71,47.48 -276,-5.31 -25.76,-36.46 85.44,-177.58 122.07,-228.89 44.36,-62.15 108.79,-81.07 183.96,-97.56l240.33 -53.44 92.13 -132.37 -2.01 -0.04c18.74,-32.82 -52.23,-27.43 -74,-1.43l-77.68 110.63 -238 -4.58c131.41,-187.16 139.83,-224.55 434.09,-218.88 110.68,2.13 179.2,12.13 205.58,29.99zm-417.77 327.32c-120.3,27.19 -94.43,24.49 -203.23,179.27 -30.36,43.33 40.55,51.76 76.01,1.46l127.22 -180.74zm374.64 312.53l-223.99 -4.32 562.63 -802.03 224.01 4.31 -271.87 387.19 13.99 0.28 259.81 -237.27 226.01 4.36 -329.91 284.96 -100.66 369.45 -244.01 -4.7 114.32 -311.13 -13.99 -0.27 -216.34 309.17zm944.59 -385.24l76.01 1.46 102.57 -146.19 -2.01 -0.04c18.42,-32.24 -52,-29.42 -74,-1.43l-102.57 146.19zm418.58 -140.1l-166.31 237.06 -316 -6.08c-21.33,30.48 -147.15,197.62 -139.74,213.02 3.46,7.21 50.72,23.86 85.04,-24.88l85.4 -121.49 240.01 4.62c-146.95,210.45 -145.6,244.45 -453.04,238.53 -184.07,-3.54 -269.09,-8.66 -185.12,-128.69l295.76 -422.77c78.39,-107.66 190.86,-111.43 356.42,-108.24 171.36,3.29 263.08,11.07 197.59,118.92z"/>
    <path class="fil1" d="M111262.47 30205.86c-209.57,144.63 -419.2,289.31 -628.77,433.93 -1282.52,-53.85 -2565.12,-107.69 -3847.64,-161.53 83.65,-129.92 274.61,-446.19 343.28,-483.82 24.4,-13.4 52.06,-19.79 741.5,16.63 689.39,36.41 2040.5,115.57 3391.63,194.79zm-22352.71 -110.23c-2.41,2.21 4.83,6.35 143.18,86.48 138.29,80.08 407.67,236.09 677.12,392.11 1159.67,-20.83 2319.34,-41.59 2900.8,-46.78 581.47,-5.25 584.78,5.2 586.29,19.06 5.27,49.33 -37.67,154.09 -43.7,159.09 -2.92,2.39 -6.93,2.51 -595.49,19.65 -588.62,17.14 -1761.73,51.31 -2372.66,80.08 -610.99,28.7 -659.66,51.99 -698.07,78.92 -38.47,26.92 -66.62,57.47 -204.5,243.05 -137.88,185.57 -385.42,526.26 -514.72,715.43 -124.25,181.78 -180.08,271.4 -105.42,300.02 55.47,21.27 4376.75,-118.35 4767.31,-132.66 951.17,-34.86 979.07,-51.57 1013.82,-66.48 34.75,-14.9 76.42,-28 201.67,-182.76 110,-135.94 542.35,-713.61 553.37,-851.01 11.36,-141.69 -123.18,-137.67 -232.23,-136.95 -161.19,1.06 -301.42,4.49 -457.56,21.16 1.16,-65.12 33.84,-84.55 176.59,-131.38 119.75,-39.31 331.23,-97.64 447.66,-143.83 116.43,-46.26 137.7,-80.43 173.22,-135.01 64.71,-99.51 139.37,-202.6 153.85,-309.49 12.4,-91.51 -40.47,-111.19 -130.61,-124.81 -130.96,-19.78 -6439.17,145.42 -6439.92,146.12zm1946.82 1185.7l2311.12 -37.23c25.48,-0.42 36.38,20.49 24.47,46.01l-93.04 198.33c-11.91,25.52 -42.64,46.5 -68,46.86l-2311.13 37.29c-25.42,0.36 -36.44,-20.43 -24.46,-46l93.03 -198.33c11.97,-25.58 42.58,-46.51 68.01,-46.93zm5462.58 663.75c-268.53,14.19 -793.08,22.08 -1061.35,21.64 -268.27,-0.45 -280.2,-9.24 -285.96,-23.12 -5.82,-13.94 -5.48,-32.95 135.09,-226.25l742.88 -980.41c83.06,-76.58 153.33,-70.25 738.86,-77.44 573.74,-7.07 1676.25,-13.4 2229.87,-19.64 553.56,-6.31 558.37,-12.67 565.42,-22 38.65,-51.29 69.03,-176.78 51.28,-215.98 -17.37,-38.38 -22.05,-27.41 -596.62,-14.99 -552.92,11.95 -1648.42,36.11 -2199.52,44.66 -551.11,8.55 -557.92,1.47 -562.84,-10.69 -18.51,-45.51 7.69,-74.62 59.86,-159.74 46.29,-75.54 126.51,-207.82 167.87,-274.68 41.38,-66.87 44.03,-68.32 842.77,-74.41 798.74,-6.08 2393.63,-16.73 3203.92,-17.54 810.3,-0.81 836.05,8.22 859.97,21.6 70.95,39.74 69.77,114.89 55.22,193.33 -7.69,41.23 -20.25,72.12 -110.54,204.22 -87.35,127.75 -413.37,596.08 -507.14,672.45 -141.56,115.3 -291.77,81.8 -483.76,90.55 -54.44,2.48 -59.7,9.33 52.87,131.26 112.5,121.86 342.96,358.81 458.02,485.1 108.29,118.84 133.42,152.15 96,180.22 -21.51,16.14 -1453.75,41.88 -1506.49,24.11 -16.31,-5.48 -29.98,-14.3 -135.69,-131.72 -105.76,-117.49 -303.54,-343.59 -426.43,-465.64 -176.6,-175.41 -224.49,-175.4 -510.92,-181.65 -133.72,-2.92 -1001.39,-17.98 -1061.29,18.25 -50.38,30.49 -388.34,557.47 -445.29,644.19 -85.12,129.62 -97.56,150.05 -366.09,164.3zm5971.68 -1549.27c547.61,5.41 1608.36,17.31 2144.74,26.85 536.32,9.53 548.28,16.69 554.11,29.76 20.41,45.76 -8.94,95.11 -90.19,218.29 -87.74,133.02 -259.54,381.84 -353.25,512.18 -97.51,135.57 -118.36,162 -204.24,182.65 -56.18,13.51 -1311.54,2.59 -1456.85,-0.86 -489.64,-11.64 -395.42,9.26 -20.51,-592.94 57.56,-92.46 74.8,-123.38 50.22,-156.16 -18.94,-25.26 -1024.25,-27.07 -1131.21,-26.98 -260.5,0.22 -287.19,-6.58 -431.51,108.75 -75.46,60.3 -222.17,283.55 -280.22,378.91 -85.8,140.97 -83,174.48 29.03,311.05 91.16,111.15 272.35,302.41 368.95,399.9 96.61,97.42 108.62,101.08 710.68,102.32 602.07,1.19 1794.13,-0.1 2428.38,-13.79 634.27,-13.76 710.59,-39.95 797.01,-95.31 238.3,-152.8 394.95,-387.29 589.5,-700.34 147.37,-237.18 360.74,-592.17 467.64,-781.74 106.07,-188.19 143.22,-253.52 61.62,-315.51 -54.28,-41.23 -29.6,-30.8 -825.58,-44.03 -757.97,-12.6 -2260.12,-35.85 -3021.63,-43.32 -761.57,-7.52 -782.43,0.68 -800.69,10.75 -49.36,27.07 -63.66,52.09 -109.24,127.44 -27.36,45.24 -188.54,295.93 -162.93,334.36 23.32,34.98 152.53,22.45 686.15,27.79zm4651.71 750.36c-96.22,-119.01 -192.44,-238.01 -238.52,-314.7 -54.14,-90.13 -46.87,-158.49 -1.11,-180.36 15.65,-7.48 36.39,-8.81 715.64,17.1 679.24,25.84 2017.05,78.92 2699.69,107.45 682.64,28.53 710.18,32.46 733,48.01 109.44,74.55 21.42,214.52 -45.51,338.58 -66.36,122.98 -310.78,579.75 -386.84,655.55 -77.47,77.2 -168.11,122.23 -269.26,153.95 -28.64,8.94 -54.67,15.43 -762.5,-0.59 -277.21,-6.29 -3483.33,-82.99 -3493.74,-108.47 -12.54,-30.67 273.03,-438.95 295.78,-444.99l3112.19 86.11c162.29,-336.01 159.1,-287.32 -353.41,-302.98 -405.2,-12.4 -1205.33,-33.57 -2005.4,-54.67z"/>
    <path class="fil2" d="M96124.84 32825.26c117.14,184.26 234.26,368.46 351.4,552.72 3252.23,-78.52 6504.45,-156.98 9756.68,-235.5 6.64,-13.96 13.34,-27.84 19.98,-41.8 -3376,-91.78 -6752.06,-183.63 -10128.05,-275.42zm-6614.61 120.1l-68.47 105.56 -277.99 5.9 80.4 -124.84c31.33,-49.32 -57.24,-46.29 -87.99,1.87l-349.93 545.03c-29.14,45.46 55.96,48.97 88,-1.87l134.76 -210.09 277.99 -5.91c-201.87,315.01 -182.58,352.27 -544.88,359.96 -68.86,1.46 -215.24,2.79 -250.62,-20.72 -25.47,-18.14 -14.85,-63.41 31.89,-135.82l324.86 -505.44c103.08,-160.7 186.39,-166.14 425.46,-171.22 253.45,-5.38 313.7,3.67 216.52,157.59zm326.05 75.17c-22.61,0.47 -41.24,4.75 -54.53,23.17l-279.62 435.42c-28.19,43.89 42.14,51.13 76,-1.62l279.62 -435.42 -2.01 0.05c7.7,-14.85 1.22,-22.04 -19.46,-21.6zm-292.53 28.23c77.01,-110.71 180.7,-118.95 351.75,-122.59 154.46,-3.28 269.81,-2.51 202.25,110.83l-278.42 434.38c-79.47,124.01 -180.97,128.98 -363.81,132.86 -184.02,3.91 -269.24,2.25 -190.18,-121.1l278.41 -434.38zm1169.16 526.79l-233.99 4.97 356.81 -559.19c7.94,-21.39 -54.33,-20.4 -72,1.53l-360.8 559.27 -234 4.97 360.81 -559.27 -3.99 0.09c3.62,-25.31 -57.36,-16.64 -72,1.52l-360.82 559.27 -233.99 4.97 360.81 -559.27 -2 0.05 72.92 -112.68 234 -4.97 -21.6 32.5c76.51,-34.69 227.99,-67.63 289.57,-4.15 96.27,-41.91 377.41,-95.81 277.09,71.2l-356.81 559.19zm665.72 -827.03l238 -5.05 -116.76 180.67c98.42,-38.91 359.85,-87.22 251.77,87.76 -47.96,77.65 -258.29,417.64 -310.22,470.59 -62.49,63.71 -125.9,82.27 -213.92,84.13 -53.99,1.14 -94.93,-7.99 -122.79,-27.43l-17.78 28.42 -238 5.04 360.81 -559.26 -2 0.04 170.91 -264.91zm141.07 258.29l-1.99 0.04c6.78,-24.89 -56.84,-14.41 -69.99,1.49l-277.38 429.36c-30.96,47.92 48.68,41.3 75.99,-1.61l273.37 -429.28zm536.9 -272.68l238 -5.05 -62.62 96.44 -238 5.05 62.62 -96.44zm-97.97 152.24l238 -5.05 -431.74 671.9 -238 5.05 431.74 -671.9zm853.96 -168.3c114.38,-2.43 492.99,-24.5 559.8,18.15 29.09,18.57 26.4,56.78 -12.56,114.4 -98.41,145.55 -106.43,199.79 -271.29,235.01 78.99,19.91 89.64,48.88 39.97,125.29 -172.8,265.87 -165.47,316.86 -529.66,324.59l-315.98 6.71 529.72 -824.15zm-5.86 435.62l-175.77 274.02c33.14,6.15 86.21,-0.18 110.24,-37.39 160.68,-249.04 177.16,-239.19 65.54,-236.64zm174.72 -142.86c126.82,-190.95 151.06,-193.44 39.24,-191.05l-136.37 213.12c33.35,-0.67 71.01,3.04 97.13,-22.07zm988.35 -139.12c25.6,43.31 -82.47,188.99 -116.79,243.75l-225.99 4.8 100.64 -160.31c3.62,-25.31 -57.36,-16.64 -72,1.53l-360.82 559.27 -238 5.04 360.82 -559.27 -2.01 0.05 71.72 -111.64 238.01 -5.05 -17.58 27.4c68.5,-28.46 230.95,-62.05 262,-5.56zm622.21 -19.21c21.37,15.56 19.91,45.3 -4.37,89.19l-358.82 559.22 -240 5.09 17.58 -27.4c-62.33,24.24 -236.59,57.11 -275.99,5.87 -27.21,-35.4 78.18,-180.86 112.71,-233.65 41.8,-63.88 105.43,-85.42 179.85,-104.92l237.99 -63.12 86.69 -135.99 -2.01 0.04c17.42,-33.63 -53.43,-25.13 -74,1.57l-73.15 113.68 -237.98 5.05c123.72,-192.34 130.62,-230.01 424.87,-236.26 110.67,-2.35 179.54,4.86 206.62,21.64zm-404.19 343.95c-119.13,32.05 -93.34,28.28 -195.8,187.36 -28.66,44.63 42.74,49.89 76.01,-1.62l119.8 -185.74zm386.99 297.12l-223.98 4.75 529.72 -824.14 224 -4.76 -255.98 397.87 14 -0.3 249.99 -247.58 225.99 -4.8 -318.1 298.09 -85.64 373.22 -244 5.18 101.65 -315.51 -13.99 0.3 -203.66 317.68zm928.24 -423.16l76 -1.61 96.58 -150.22 -2.01 0.04c16.98,-32.77 -52.98,-27.57 -74,1.57l-96.57 150.22zm412.56 -156.92l-156.58 243.6 -315.99 6.71c-20.11,31.35 -139.05,203.4 -131.01,218.51 3.75,7.05 51.64,21.78 83.97,-28.3l80.41 -124.84 239.99 -5.1c-138.3,216.22 -135.58,250.14 -443.02,256.67 -184.01,3.91 -269.24,2.26 -190.17,-121.1l278.41 -434.38c73.96,-110.74 186.18,-119.07 351.74,-122.58 171.33,-3.64 263.33,0.41 202.25,110.82z"/>
    <path class="fil1" d="M102668.91 10742.02c-19.38,22.23 -56.58,30.79 -111.6,25.7l-640.87 -59.42c-123.17,-11.42 -324.09,-71.59 -231.58,-177.73l422.53 -484.84c88.37,-101.42 344.23,-124.31 483.54,-111.39l640.87 59.42c107.46,9.95 58.97,34.66 -57.99,168.89 -19.38,22.24 -56.57,30.81 -111.6,25.72l-462.08 -42.85c-69.22,-6.42 -73.59,16.2 -122.84,72.72 -12.92,14.84 -1.05,23.95 35.63,27.36l462.08 42.84c107.54,9.98 58.86,34.78 -58,168.9 -19.37,22.24 -56.58,30.81 -111.59,25.71l-462.08 -42.84c-67.35,-6.26 -72.13,14.52 -114.12,62.72 -12.92,14.85 -1.05,23.95 35.63,27.35l462.07 42.86c107.48,9.95 59,34.65 -57.98,168.9zm1392.41 8.91c-89.24,102.41 -343.21,124.42 -483.54,111.42l-723.4 -67.1c-107.49,-9.96 -58.9,-34.72 58,-168.88 19.38,-22.24 56.58,-30.83 111.58,-25.73l544.62 50.51c68.69,6.37 73.06,-15.64 119.93,-69.41 49.63,-56.95 -384.16,-10.87 -522.37,-116.93 -45.13,-34.64 -50.26,-71.98 -15.36,-112.01l169.59 -194.6c88.38,-101.42 344.23,-124.34 483.55,-111.42l723.4 67.08c107.43,9.96 58.98,34.7 -57.99,168.91 -19.4,22.24 -56.59,30.81 -111.59,25.7l-544.62 -50.5c-68.44,-6.35 -72.91,15.45 -118.97,68.29 -49.68,57.01 384.02,10.74 522.38,116.94 45.13,34.64 50.25,71.97 15.36,112.01l-170.56 195.71zm1517.43 -134.52c-88.38,101.42 -344.22,124.31 -483.55,111.39l-269.55 -24.98c-36.68,-3.41 -61.48,2.31 -74.39,17.13l-173.47 199.06c-19.38,22.23 -56.58,30.8 -111.58,25.72l-316.32 -29.34c-55.01,-5.1 -72.82,-18.78 -53.45,-41.01l616.36 -707.26c19.37,-22.24 56.58,-30.8 111.58,-25.7l723.4 67.07c126.11,11.71 322.11,73.83 231.58,177.71l-200.6 230.2zm-418.35 -116.92c105.9,-121.53 120.21,-105.46 -51.78,-121.4 -74.12,-6.87 -79.02,22.49 -149.01,102.78 -27.99,32.11 86.42,32.04 126.4,35.75 36.68,3.41 61.47,-2.31 74.39,-17.13zm1312.5 595.25c-19.38,22.23 -56.58,30.81 -111.59,25.7l-640.88 -59.42c-123.19,-11.43 -324.09,-71.58 -231.57,-177.71l422.52 -484.84c88.37,-101.41 344.24,-124.33 483.55,-111.41l640.87 59.42c107.49,9.97 58.93,34.74 -57.98,168.9 -19.38,22.24 -56.59,30.82 -111.6,25.71l-462.09 -42.84c-69.25,-6.42 -73.58,16.19 -122.84,72.72 -12.91,14.83 -1.04,23.96 35.63,27.35l462.08 42.85c107.52,9.96 58.91,34.74 -57.98,168.91 -19.38,22.23 -56.58,30.79 -111.6,25.7l-462.08 -42.85c-67.36,-6.25 -72.16,14.58 -114.13,62.74 -12.92,14.83 -1.04,23.93 35.63,27.35l462.08 42.85c107.48,9.95 58.98,34.67 -57.99,168.89zm1023.19 94.87c-19.38,22.24 -56.58,30.81 -111.58,25.72l-451.1 -41.83c-123.11,-11.42 -324.09,-71.57 -231.58,-177.72l422.52 -484.85c88.37,-101.41 344.25,-124.31 483.55,-111.39l451.1 41.83c107.46,9.95 58.94,34.69 -58,168.88 -19.39,22.25 -56.59,30.83 -111.58,25.73l-272.32 -25.27c-36.68,-3.39 -61.47,2.33 -74.39,17.15l-296.53 340.28c-12.93,14.83 -1.06,23.94 35.63,27.34 418.83,38.82 381,2.84 214.3,194.15zm613.37 56.88c-19.39,22.23 -56.58,30.8 -111.58,25.7l-316.33 -29.33c-55.01,-5.1 -72.82,-18.77 -53.44,-41l616.35 -707.26c19.38,-22.23 56.58,-30.81 111.58,-25.72l316.32 29.34c55.01,5.11 72.82,18.79 53.44,41.01l-616.34 707.26zm1295.49 120.12c-19.38,22.23 -56.58,30.81 -111.58,25.72l-316.33 -29.34c-108.56,-10.08 -58.8,-34.85 67.71,-180.02 27.99,-32.1 -86.34,-32.03 -126.4,-35.75 -36.68,-3.41 -61.47,2.32 -74.39,17.14l-121.14 139c-19.39,22.23 -56.58,30.82 -111.58,25.71l-316.33 -29.33c-55,-5.1 -72.81,-18.78 -53.43,-41.01l519.43 -596.06c88.37,-101.38 344.26,-124.31 483.56,-111.4l448.34 41.58c126.08,11.7 322.11,73.83 231.58,177.71l-519.44 596.05zm-205.95 -360.64l180.88 -207.57c28.24,-32.37 -85.64,-32.16 -126.23,-35.93 -36.69,-3.42 -61.47,2.3 -74.56,17.32l-180.88 207.56c-28.21,32.37 85.58,32.2 126.23,35.96 36.69,3.39 61.47,-2.32 74.56,-17.34zm1229.14 455.53c-19.38,22.23 -56.58,30.81 -111.59,25.72l-726.13 -67.35c-55.02,-5.08 -72.83,-18.75 -53.45,-41l616.35 -707.25c19.38,-22.23 56.58,-30.8 111.58,-25.71l316.33 29.33c55.01,5.1 72.82,18.78 53.45,41.01l-456.46 523.76c-12.91,14.83 -1.04,23.95 35.63,27.35 418.59,38.84 381.15,2.69 214.31,194.15zm2123.42 196.9c-19.39,22.24 -56.58,30.82 -111.6,25.71l-640.88 -59.43c-123.21,-11.42 -324.08,-71.57 -231.57,-177.71l422.52 -484.84c88.37,-101.39 344.25,-124.33 483.55,-111.41l640.87 59.43c107.49,9.97 58.94,34.73 -57.98,168.9 -19.39,22.24 -56.59,30.82 -111.6,25.71l-462.09 -42.84c-69.27,-6.42 -73.57,16.18 -122.84,72.73 -12.92,14.83 -1.04,23.94 35.63,27.34l462.09 42.85c107.49,9.95 58.92,34.72 -57.99,168.91 -19.38,22.23 -56.58,30.8 -111.59,25.7l-462.09 -42.86c-67.42,-6.24 -72.17,14.63 -114.12,62.75 -12.93,14.82 -1.05,23.93 35.63,27.34l462.08 42.84c107.48,9.97 58.95,34.71 -57.98,168.9zm1392.41 8.94c-89.24,102.4 -343.2,124.42 -483.55,111.39l-723.4 -67.07c-55.01,-5.1 -72.82,-18.77 -53.44,-41l616.35 -707.27c19.39,-22.24 56.58,-30.8 111.58,-25.71l723.4 67.08c126.08,11.7 322.11,73.83 231.58,177.73l-422.52 484.84zm-418.35 -116.93l296.53 -340.28c28,-32.11 -86.37,-32.05 -126.39,-35.76 -36.69,-3.4 -61.47,2.32 -74.4,17.14l-296.53 340.27c-27.99,32.11 86.36,32.06 126.4,35.78 36.68,3.39 61.47,-2.33 74.39,-17.15zm934.8 285c-19.37,22.23 -56.58,30.81 -111.58,25.7l-316.32 -29.34c-55,-5.09 -72.81,-18.76 -53.44,-41l616.35 -707.24c19.38,-22.24 56.58,-30.82 111.58,-25.71l316.33 29.32c55.01,5.11 72.82,18.78 53.44,41.02l-616.35 707.25zm1781.15 -461.03c-63.67,73.03 -331.43,-32.45 -381.27,24.75l-456.46 523.76c-19.37,22.23 -56.57,30.8 -111.58,25.7l-316.32 -29.33c-55.01,-5.1 -72.82,-18.76 -53.45,-41l456.45 -523.76c50.04,-57.42 -345.73,-12.62 -281.59,-86.23l111.44 -127.88c19.37,-22.23 56.57,-30.79 111.58,-25.69l979.2 90.8c107.46,9.95 58.93,34.71 -58,168.89zm105.72 635.99c-19.39,22.23 -56.59,30.82 -111.59,25.72l-316.32 -29.33c-55.01,-5.12 -72.82,-18.79 -53.44,-41.02l616.35 -707.25c19.38,-22.24 56.58,-30.82 111.58,-25.71l316.32 29.34c55,5.09 72.82,18.76 53.44,41l-616.34 707.25zm1392.41 8.94c-89.24,102.39 -343.22,124.41 -483.55,111.39l-448.34 -41.57c-123.15,-11.43 -324.11,-71.55 -231.59,-177.71l422.52 -484.84c88.37,-101.39 344.26,-124.33 483.55,-111.42l448.35 41.58c126.09,11.7 322.12,73.83 231.57,177.73l-422.52 484.84zm-418.35 -116.92l296.53 -340.3c27.99,-32.1 -86.33,-32.04 -126.39,-35.75 -36.69,-3.4 -61.47,2.32 -74.4,17.14l-296.53 340.27c-28.02,32.13 86.39,32.05 126.39,35.77 36.69,3.41 61.47,-2.32 74.4,-17.13zm1616.93 348.24c-19.38,22.23 -56.58,30.81 -111.58,25.72l-316.32 -29.34c-55.01,-5.1 -72.81,-18.78 -53.44,-41.01l456.45 -523.76c28,-32.12 -86.42,-32.05 -126.4,-35.77 -36.68,-3.4 -61.47,2.31 -74.39,17.14l-456.45 523.78c-19.38,22.23 -56.58,30.79 -111.58,25.7l-316.32 -29.34c-55.01,-5.09 -72.82,-18.77 -53.44,-41l568.86 -652.77c23.77,-35.42 12.93,-93.71 139.83,-81.99 411.8,38.06 394.82,13.74 345.86,122.21 295.31,-130.17 757.68,-24.01 628.36,124.38l-519.44 596.05z"/>
    <path class="fil1" d="M54682.45 12205.4c-14.01,25.96 -48.4,42.5 -103.21,49.65l-638.22 83.12c-122.66,15.97 -331.9,1.52 -265.04,-122.39l305.43 -565.96c63.88,-118.39 308.42,-197.05 447.16,-215.12l638.22 -83.13c107.03,-13.95 65.16,20.84 -19.38,177.51 -14.01,25.98 -48.4,42.52 -103.2,49.66l-460.18 59.94c-68.94,8.98 -68.22,32.01 -103.82,97.98 -9.34,17.31 4.25,23.59 40.77,18.84l460.18 -59.94c107.11,-13.94 65.08,20.97 -19.39,177.52 -14,25.97 -48.4,42.52 -103.19,49.65l-460.18 59.94c-67.08,8.72 -67.16,30.04 -97.51,86.32 -9.34,17.31 4.24,23.58 40.77,18.83l460.18 -59.92c107.03,-13.96 65.18,20.81 -19.38,177.51zm1360.22 -297.84c-64.51,119.53 -307.4,196.91 -447.16,215.13l-720.42 93.82c-107.04,13.94 -65.1,-20.9 19.4,-177.51 14.01,-25.97 48.4,-42.53 103.19,-49.66l542.37 -70.64c68.41,-8.91 67.82,-31.34 101.71,-94.11 35.87,-66.48 -377.13,73.96 -535.3,0.94 -51.65,-23.85 -64.87,-59.14 -39.65,-105.87l122.59 -227.16c63.88,-118.39 308.4,-197.08 447.16,-215.14l720.41 -93.83c106.98,-13.93 65.17,20.87 -19.39,177.53 -14.02,25.97 -48.41,42.51 -103.2,49.64l-542.36 70.64c-68.16,8.87 -67.73,31.12 -101.03,92.81 -35.9,66.53 376.96,-74.07 535.32,-0.94 51.65,23.85 64.86,59.15 39.64,105.88l-123.28 228.46zm1450.57 -465.29c-63.88,118.39 -308.4,197.05 -447.15,215.12l-268.45 34.97c-36.52,4.75 -59.46,15.78 -68.79,33.09l-125.4 232.37c-14,25.95 -48.4,42.5 -103.18,49.65l-315.02 41.02c-54.78,7.13 -75.17,-2.29 -61.16,-28.25l445.52 -825.59c14,-25.97 48.4,-42.51 103.19,-49.64l720.41 -93.83c125.61,-16.35 330.47,1.11 265.04,122.37l-145.01 268.71zm-433.82 -21.95c76.54,-141.86 94.04,-129.34 -77.24,-107.01 -73.82,9.61 -72.13,39.33 -122.73,133.05 -20.23,37.49 91.36,12.22 131.18,7.04 36.52,-4.75 59.45,-15.78 68.79,-33.09zm1411.34 291.7c-14,25.96 -48.4,42.51 -103.19,49.64l-638.24 83.13c-122.69,15.97 -331.9,1.52 -265.02,-122.37l305.41 -565.97c63.88,-118.37 308.42,-197.07 447.16,-215.14l638.23 -83.12c107.05,-13.94 65.13,20.9 -19.38,177.51 -14.01,25.98 -48.4,42.53 -103.2,49.66l-460.19 59.94c-68.96,8.98 -68.21,32 -103.81,97.98 -9.34,17.31 4.25,23.6 40.77,18.83l460.18 -59.93c107.07,-13.95 65.11,20.93 -19.38,177.53 -14,25.96 -48.4,42.5 -103.21,49.64l-460.18 59.93c-67.09,8.74 -67.17,30.11 -97.51,86.33 -9.34,17.31 4.24,23.57 40.77,18.83l460.18 -59.93c107.04,-13.96 65.16,20.84 -19.39,177.51zm1018.99 -132.71c-14.02,25.96 -48.42,42.51 -103.19,49.65l-449.24 58.51c-122.61,15.97 -331.9,1.54 -265.03,-122.38l305.42 -565.97c63.88,-118.38 308.43,-197.06 447.16,-215.12l449.24 -58.5c107.01,-13.96 65.13,20.85 -19.4,177.5 -14.01,25.97 -48.41,42.53 -103.19,49.66l-271.19 35.31c-36.52,4.77 -59.45,15.79 -68.79,33.11l-214.34 397.2c-9.35,17.31 4.23,23.59 40.77,18.83 417.1,-54.33 372.27,-81.1 251.79,142.21zm610.83 -79.55c-14.01,25.96 -48.4,42.5 -103.19,49.64l-315.02 41.02c-54.79,7.14 -75.17,-2.27 -61.15,-28.24l445.52 -825.59c14.01,-25.95 48.4,-42.51 103.19,-49.65l315.02 -41.02c54.79,-7.12 75.17,2.29 61.15,28.25l-445.52 825.59zm1290.15 -168.04c-14.01,25.97 -48.4,42.52 -103.18,49.66l-315.02 41.02c-108.12,14.07 -65.03,-21.05 26.41,-190.5 20.22,-37.48 -91.27,-12.24 -131.17,-7.05 -36.52,4.75 -59.45,15.79 -68.79,33.1l-87.57 162.26c-14.01,25.97 -48.4,42.52 -103.19,49.65l-315.02 41.02c-54.78,7.13 -75.16,-2.28 -61.15,-28.24l375.46 -695.79c63.89,-118.34 308.44,-197.05 447.17,-215.13l446.49 -58.14c125.57,-16.35 330.47,1.1 265.03,122.37l-375.47 695.77zm-280.29 -306.45l130.76 -242.29c20.41,-37.8 -90.62,-12.52 -131.05,-7.26 -36.53,4.74 -59.45,15.77 -68.91,33.32l-130.76 242.28c-20.4,37.79 90.57,12.57 131.04,7.28 36.53,-4.77 59.45,-15.79 68.91,-33.33zm1299.27 173.76c-14,25.95 -48.4,42.5 -103.19,49.65l-723.15 94.16c-54.79,7.15 -75.17,-2.27 -61.16,-28.24l445.52 -825.6c14,-25.95 48.4,-42.49 103.18,-49.63l315.02 -41.03c54.78,-7.14 75.17,2.29 61.16,28.24l-329.94 611.4c-9.34,17.31 4.24,23.59 40.77,18.84 416.87,-54.26 372.39,-81.28 251.79,142.21zm2114.67 -275.42c-14.01,25.98 -48.4,42.52 -103.21,49.66l-638.24 83.11c-122.71,15.99 -331.88,1.54 -265.02,-122.36l305.42 -565.97c63.88,-118.36 308.42,-197.07 447.15,-215.14l638.24 -83.11c107.04,-13.94 65.14,20.89 -19.38,177.51 -14.01,25.98 -48.41,42.52 -103.21,49.66l-460.19 59.94c-68.97,8.98 -68.19,31.98 -103.8,97.98 -9.34,17.31 4.24,23.59 40.77,18.83l460.19 -59.93c107.04,-13.96 65.12,20.89 -19.39,177.53 -14,25.96 -48.4,42.5 -103.2,49.64l-460.19 59.92c-67.13,8.76 -67.17,30.17 -97.5,86.33 -9.35,17.3 4.24,23.57 40.77,18.83l460.18 -59.94c107.03,-13.94 65.14,20.88 -19.38,177.51zm1360.21 -297.82c-64.5,119.53 -307.38,196.91 -447.15,215.12l-720.43 93.83c-54.78,7.14 -75.17,-2.28 -61.15,-28.24l445.52 -825.6c14.01,-25.97 48.4,-42.5 103.19,-49.64l720.42 -93.84c125.56,-16.34 330.47,1.11 265.03,122.39l-305.42 565.97zm-433.83 -21.96l214.35 -397.21c20.23,-37.49 -91.31,-12.25 -131.17,-7.06 -36.53,4.77 -59.45,15.79 -68.8,33.11l-214.34 397.2c-20.23,37.48 91.3,12.27 131.18,7.07 36.52,-4.77 59.45,-15.8 68.78,-33.11zm974.62 72.21c-14,25.96 -48.4,42.52 -103.19,49.64l-315.02 41.02c-54.78,7.14 -75.17,-2.27 -61.15,-28.24l445.52 -825.58c14,-25.96 48.4,-42.52 103.18,-49.64l315.02 -41.04c54.79,-7.12 75.17,2.29 61.15,28.26l-445.52 825.58zm1635.94 -841.84c-46.02,85.25 -330.43,41.31 -366.46,108.08l-329.94 611.4c-14,25.97 -48.4,42.51 -103.18,49.64l-315.02 41.02c-54.79,7.15 -75.17,-2.26 -61.16,-28.23l329.94 -611.4c36.17,-67.03 -340.03,63.79 -293.67,-22.11l80.55 -149.29c14,-25.96 48.4,-42.5 103.18,-49.63l975.16 -127c107.02,-13.95 65.13,20.89 -19.4,177.51zm243.15 597.12c-14.01,25.96 -48.41,42.52 -103.19,49.66l-315.02 41.02c-54.79,7.12 -75.17,-2.3 -61.15,-28.26l445.52 -825.58c14.01,-25.97 48.4,-42.52 103.19,-49.64l315.02 -41.02c54.78,-7.14 75.16,2.26 61.15,28.23l-445.52 825.59zm1360.21 -297.83c-64.49,119.53 -307.4,196.92 -447.15,215.12l-446.5 58.15c-122.64,15.97 -331.9,1.56 -265.03,-122.37l305.42 -565.96c63.88,-118.36 308.43,-197.07 447.15,-215.14l446.5 -58.15c125.57,-16.35 330.48,1.11 265.03,122.39l-305.42 565.96zm-433.83 -21.95l214.35 -397.23c20.23,-37.48 -91.27,-12.24 -131.17,-7.04 -36.53,4.76 -59.45,15.79 -68.8,33.1l-214.34 397.21c-20.25,37.5 91.33,12.24 131.17,7.05 36.52,-4.75 59.45,-15.78 68.79,-33.09zm1653.94 -16.27c-14.01,25.96 -48.4,42.51 -103.18,49.65l-315.03 41.02c-54.77,7.14 -75.16,-2.29 -61.15,-28.24l329.95 -611.4c20.23,-37.5 -91.36,-12.24 -131.18,-7.06 -36.53,4.76 -59.45,15.78 -68.79,33.09l-329.94 611.42c-14.01,25.96 -48.4,42.5 -103.19,49.64l-315.02 41.02c-54.78,7.14 -75.17,-2.28 -61.15,-28.23l411.19 -761.99c15.39,-39.79 -8.01,-94.27 118.35,-110.77 410.09,-53.53 388.17,-73.51 364.28,43.07 259.41,-191.99 733.8,-190.22 640.32,-17.01l-375.47 695.78z"/>
   </g>
  </svg>
  