<?xml version="1.0" encoding="UTF-8"?>
<!DOCTYPE svg PUBLIC "-//W3C//DTD SVG 1.1//EN" "http://www.w3.org/Graphics/SVG/1.1/DTD/svg11.dtd">
<!-- Creator: CorelDRAW -->
<svg xmlns="http://www.w3.org/2000/svg" xml:space="preserve" width="498.879mm" height="247.704mm" version="1.1" style="shape-rendering:geometricPrecision; text-rendering:geometricPrecision; image-rendering:optimizeQuality; fill-rule:evenodd; clip-rule:evenodd"
viewBox="0 0 5448.32 2705.21"
 xmlns:xlink="http://www.w3.org/1999/xlink"
 xmlns:xodm="http://www.corel.com/coreldraw/odm/2003">
 <defs>
  <style type="text/css">
   <![CDATA[
    .fil0 {fill:black}
    .fil1 {fill:#D9D9D9}
    .fil2 {fill:red}
   ]]>
  </style>
 </defs>
 <g id="Camada_x0020_1">
  <metadata id="CorelCorpID_0Corel-Layer"/>
  <path class="fil0" d="M82.14 1145.32l1099.86 -19.53 -75.91 66.42 542.94 -49.41 -181.54 98.46c486.75,-36.45 567.76,-21.85 627.76,-58.11 108.8,-72.64 630.09,-433.32 645.54,-481.78 3.78,-9.05 1.56,-22.63 -0.54,-31.4 -21.53,-62.13 -329.69,-301.15 -388.38,-347.47l-404.36 -322.5c-621.79,381.78 -1243.59,763.55 -1865.38,1145.32z"/>
  <path class="fil1" d="M1571.56 1016.4c-14.14,3.6 -28.94,2.22 -45.03,2.37l-0.17 0 -82.07 0.27 -0.12 0.36 -86.01 -0.08 -75.56 0.25 0.23 -0.32 -65.56 -0.06c-5.8,-0.01 -11.53,-0.08 -17.32,-0.55 -17.57,-1.41 -36.19,-7.07 -41.63,-26.49 -1.97,-7.03 -1.42,-14.03 1.08,-20.36 -20.47,11.18 -52.89,13.22 -74.16,13.23l-312.26 0.31 -91 89.16 -90.47 -80.64 67.23 -66.22 -105.66 0.11 131.71 -104.54 10.22 0c161.04,0.05 322.08,0.5 483.11,0.9 21.81,-0.36 48.95,-0.1 70.05,5.76 13.88,3.86 26.92,11.76 32.79,24.03 18.07,-9.62 36.98,-7.19 58.08,-7.39l0.17 -0 85.54 -0.28 0.18 -0.35 82.47 0.08 87.01 -0.29 -0.35 0.37 54.24 0.05c5.8,0 11.53,0.08 17.32,0.55 11.34,0.91 23.13,3.59 31.52,10.61l17.18 0.03c155.28,0.28 310.56,0.83 465.83,1.22 21.81,-0.36 48.95,-0.1 70.05,5.76 19.84,5.51 37.98,19.3 35.87,42.28 -1.25,13.64 -10.14,24.8 -21.74,31.3l-86.45 57.53 3.61 0.01c4.32,0.01 8.37,0.33 12.59,1.38 19.94,4.94 31.56,23.95 25.35,44.09l-0.05 0.14 -7.55 23.65 0.04 0 -15.8 49.74 -36.74 25.24c-1.77,0.13 -3.58,0.2 -5.4,0.24l-0.21 0 -0.21 0c-32.67,0.26 -65.34,0.39 -98.01,0.32 -4.31,-0.01 -8.37,-0.33 -12.59,-1.38 -12.14,-3.01 -21.2,-11.23 -25.02,-21.75 -3.59,8.38 -9.46,15.18 -17.79,19.2 -8.93,4.31 -14.38,3.4 -23.32,3.6l-0.21 0 -0.21 0c-32.67,0.26 -65.34,0.39 -98.01,0.32 -4.32,-0.01 -8.37,-0.33 -12.59,-1.38 -19.95,-4.94 -31.57,-23.95 -25.36,-44.09l0.04 -0.12 7.79 -24.52 -71.33 70.11 -120.33 0 122.54 -120.46 -27.88 0.03 34.28 -34.79 -9.11 0.01 -117.9 115.51 -90.47 -80.64 3.51 -3.45zm281.25 8.12l-36.75 0 -87.88 86.38 36.76 0 87.88 -86.38zm328.62 0.16c2.2,0.01 12.42,-0.24 10.02,7.55l-12.19 38.15 -27.93 -0.04 5.25 -20.57 -63.14 0.02 -15.02 44.14c31.11,-0.12 62.23,0.01 93.43,0.01l-3.6 11.34c-2.81,6.87 -6.68,5.12 -14.94,5.3 -32.61,0.26 -65.05,0.39 -97.71,0.32 -2.2,-0.01 -12.42,0.24 -10.02,-7.55l23.21 -73.06c2.81,-6.87 5.05,-5.63 13.31,-5.81l34.29 0.25 0 -0.21 20.48 0.05 5.74 -0.05 -0.01 0.06 38.85 0.09zm-177.15 0c2.2,0.01 12.42,-0.24 10.02,7.55l-12.19 38.15 -27.93 -0.04 5.24 -20.57 -63.14 0.02 -15.03 44.14c31.11,-0.12 62.23,0.01 93.43,0.01l-3.61 11.34c-2.81,6.87 -6.68,5.12 -14.94,5.3 -32.61,0.26 -65.06,0.39 -97.71,0.32 -2.2,-0.01 -12.42,0.24 -10.02,-7.55l23.21 -73.06c2.81,-6.87 5.05,-5.63 13.31,-5.81l34.28 0.25 0 -0.21 20.48 0.05 5.74 -0.05 -0.01 0.06 38.84 0.09zm-1119.66 -95.08l-96.7 0.13 -106.87 104.71 -46.7 -41.62 98.46 -96.97 185.84 -0.78 -34.03 34.54zm-155.54 -54.03l-22.99 22.75 -68.85 0.07 57.78 -45.86c161.54,0.05 321.73,0.5 483.33,0.9 91.44,-1.55 80.63,18.97 68.88,24.89l-98.6 65.61c-10.53,9.07 -43.08,11.81 -63.4,11.81l-265.93 0.27 22.6 -22.94 202.35 -0.02 57.56 -57.14c-124.38,-0.29 -248.39,-0.48 -372.74,-0.36zm985.44 34.39l-0.24 -23.37c155.78,0.28 310.2,0.84 466.09,1.22 91.43,-1.55 80.63,18.97 68.88,24.89l-98.6 65.61c-10.53,9.06 -43.07,11.81 -63.4,11.81l-265.93 0.27 22.6 -22.93 202.35 -0.02 57.56 -57.14c-129.81,-0.3 -259.51,-0.37 -389.31,-0.35zm146.63 45.63l-96.69 0.13 -106.87 104.71 -46.7 -41.62 98.46 -96.97 185.84 -0.78 -34.04 34.54zm-643.83 34.33c-6.95,-0.01 -39.34,0.32 -28.76,-10.02l72.6 -69.4 85.81 0 -41.45 46.11c70.87,-0.6 141.73,-0.91 212.61,-1.26l51.46 -57.39c-98.37,0.16 -196.68,-0.01 -295.3,-0.01l15.76 -15.07c11.54,-9.12 23.09,-6.8 49.26,-7.04l103.26 -0.34 0.14 -0.27 64.72 0.06 18.14 -0.06 -0.07 0.08 122.76 0.11c6.95,0.01 39.34,-0.32 28.76,10.02l-101.51 97.02c-11.54,9.12 -23.09,6.8 -49.26,7.04l-103.32 0.34 -0.09 0.27 -64.72 -0.06 -18.15 0.06 0.06 -0.08 -122.74 -0.11z"/>
  <path class="fil2" d="M1625.59 197.66l805.15 492.9c33,22.26 20.93,72.63 -28.58,92.13l-164.75 78.78c-18.57,-3.14 -39.65,-3.25 -57.25,-2.96 -36.58,-0.09 -73.16,-0.19 -109.74,-0.29l-50.34 -0.14 -1227.72 -148.82 355.43 -218.23 531.76 165.69c99.97,25.63 2.67,62.33 36.22,71.71l407.92 102.35 183.8 -86.08c13.32,-6.3 5.02,-15.88 -8.59,-23.22l-821.12 -433.07 147.81 -90.75zm32.99 940.59l-9.53 4.56 -154.78 14.09 144.52 -73.99 19.74 17.6 59.22 -58.02 44.39 -22.73 17 -0.02 -120.56 118.52z"/>
  <path class="fil0" d="M5417.74 1146.14l-1099.86 -19.53 75.91 66.42 -542.94 -49.41 181.54 98.45c-486.75,-36.44 -567.76,-21.85 -627.76,-58.11 -108.8,-72.63 -630.09,-433.32 -645.54,-481.78 -3.79,-9.05 -1.56,-22.63 0.54,-31.4 21.53,-62.13 329.69,-301.15 388.38,-347.47l404.37 -322.5c621.79,381.77 1243.58,763.55 1865.37,1145.32z"/>
  <path class="fil1" d="M4227.16 1008.72c-14.14,3.6 -28.94,2.23 -45.03,2.37l-0.17 0 -82.06 0.27 -0.12 0.36 -86 -0.08 -75.56 0.25 0.23 -0.32 -65.56 -0.06c-5.8,-0.01 -11.53,-0.08 -17.32,-0.55 -17.57,-1.41 -36.19,-7.08 -41.63,-26.49 -1.97,-7.03 -1.42,-14.03 1.07,-20.36 -20.47,11.18 -52.89,13.22 -74.16,13.23l-312.26 0.32 -91 89.15 -90.47 -80.64 67.23 -66.22 -105.66 0.11 131.71 -104.53 10.22 0c161.04,0.05 322.08,0.5 483.12,0.9 21.81,-0.36 48.95,-0.1 70.05,5.76 13.88,3.86 26.92,11.76 32.79,24.03 18.07,-9.62 36.98,-7.19 58.08,-7.39l0.17 -0 85.54 -0.28 0.18 -0.35 82.47 0.08 87.01 -0.29 -0.35 0.37 54.24 0.05c5.8,0.01 11.53,0.08 17.32,0.55 11.35,0.91 23.13,3.59 31.52,10.61l17.18 0.03c155.28,0.28 310.55,0.84 465.83,1.22 21.81,-0.36 48.95,-0.1 70.05,5.76 19.84,5.51 37.98,19.3 35.87,42.28 -1.25,13.64 -10.14,24.8 -21.75,31.3l-86.45 57.53 3.61 0.01c4.32,0.01 8.37,0.33 12.59,1.38 19.94,4.94 31.56,23.95 25.35,44.09l-0.04 0.14 -7.56 23.65 0.04 0 -16.09 50.64 -0.45 1.1c-3.51,8.56 -9.35,15.55 -17.7,19.7l-146.65 -2.49c-6.11,-4.08 -10.66,-9.84 -13.09,-16.52 -2.79,6.5 -6.95,12.05 -12.56,16.09l-155.46 -2.64c-9.55,-8.57 -13.74,-21.92 -9.46,-35.8l0.04 -0.12 7.79 -24.53 -60.42 59.39 -118.29 -2.01 109.6 -107.74 -27.88 0.03 34.28 -34.79 -9.11 0.01 -117.9 115.51 -90.47 -80.64 3.51 -3.45zm285.11 15.39l-36.75 0 -87.88 86.39 36.75 0 87.88 -86.39zm328.62 0.16c2.2,0.01 12.42,-0.24 10.02,7.54l-12.19 38.15 -27.93 -0.04 5.24 -20.57 -63.14 0.02 -15.02 44.14c31.11,-0.12 62.23,0.01 93.43,0.01l-3.61 11.34c-2.81,6.87 -6.68,5.12 -14.94,5.3 -32.62,0.26 -65.06,0.39 -97.71,0.32 -2.2,-0 -12.42,0.24 -10.02,-7.55l23.21 -73.06c2.81,-6.87 5.05,-5.63 13.31,-5.81l34.29 0.25 0 -0.21 20.48 0.05 5.74 -0.05 -0.01 0.06 38.84 0.08zm-177.15 0c2.2,0.01 12.42,-0.24 10.02,7.54l-12.19 38.15 -27.93 -0.04 5.25 -20.57 -63.14 0.02 -15.02 44.14c31.11,-0.12 62.23,0.01 93.43,0.01l-3.61 11.34c-2.81,6.87 -6.68,5.12 -14.94,5.3 -32.61,0.26 -65.06,0.39 -97.71,0.32 -2.2,-0 -12.42,0.24 -10.02,-7.55l23.21 -73.06c2.81,-6.87 5.05,-5.63 13.31,-5.81l34.29 0.25 0 -0.21 20.48 0.05 5.74 -0.05 -0.01 0.06 38.85 0.08zm-1119.67 -95.08l-96.7 0.13 -106.87 104.71 -46.7 -41.62 98.46 -96.97 185.84 -0.78 -34.03 34.54zm-155.54 -54.03l-22.99 22.75 -68.85 0.07 57.78 -45.86c161.54,0.05 321.73,0.5 483.33,0.9 91.44,-1.55 80.63,18.97 68.88,24.89l-98.6 65.61c-10.52,9.07 -43.07,11.81 -63.41,11.81l-265.93 0.27 22.6 -22.94 202.35 -0.02 57.56 -57.14c-124.37,-0.29 -248.39,-0.48 -372.73,-0.36zm985.44 34.39l-0.24 -23.36c155.78,0.28 310.21,0.83 466.09,1.22 91.44,-1.55 80.63,18.97 68.88,24.89l-98.59 65.61c-10.53,9.07 -43.08,11.81 -63.41,11.82l-265.93 0.27 22.6 -22.94 202.35 -0.02 57.56 -57.14c-129.81,-0.3 -259.51,-0.36 -389.31,-0.35zm146.63 45.63l-96.7 0.13 -106.87 104.71 -46.7 -41.62 98.46 -96.97 185.84 -0.78 -34.03 34.54zm-643.84 34.33c-6.95,-0 -39.34,0.32 -28.76,-10.02l72.6 -69.4 85.81 0 -41.45 46.11c70.87,-0.6 141.74,-0.91 212.61,-1.27l51.46 -57.39c-98.37,0.16 -196.68,-0.02 -295.29,-0.02l15.76 -15.07c11.54,-9.12 23.09,-6.8 49.26,-7.04l103.27 -0.34 0.14 -0.27 64.72 0.06 18.15 -0.06 -0.07 0.08 122.76 0.11c6.95,0.01 39.34,-0.32 28.76,10.02l-101.51 97.02c-11.54,9.12 -23.09,6.8 -49.26,7.04l-103.32 0.34 -0.09 0.27 -64.72 -0.06 -18.14 0.06 0.06 -0.08 -122.74 -0.11z"/>
  <path class="fil2" d="M3874.31 198.44l-805.15 492.9c-33,22.25 -20.93,72.63 28.58,92.13l184.78 88.36 61.74 -49 10.22 0 3.07 0 -165.14 -77.34c-13.32,-6.3 -5.01,-15.88 8.59,-23.22l821.12 -433.07 -147.81 -90.75zm-355.4 786.42l331.95 158.73 154.78 14.09 -337.84 -172.96 -148.89 0.15zm252.12 -161.3l936.51 -113.52 -355.43 -218.23 -531.76 165.7c-99.98,25.63 -2.67,62.33 -36.23,71.71l-373.22 93.64c120.04,0.1 240.08,0.4 360.12,0.7z"/>
  <path class="fil0" d="M1902.39 1378.79c255.95,206.64 491.96,430.19 690.76,693.4 85.59,110.54 75.19,214.92 -39.91,297.91l-0.69 0.5 -0.72 0.45c-172.59,109.13 -345.18,218.25 -517.77,327.38l-6.85 4.33 -8.11 -0.01c-236.05,-0.14 -496.77,-2.6 -732.82,-2.74 -29.4,-100.89 -81.99,-171.08 -250.97,-209.53 -102.2,-13.53 -147.09,-20.71 -249.53,-32.07 -243.62,-27.01 -488.61,-47.19 -733.69,-54.03l-52.1 -1.46 3.67 -1.84c525.48,-219.79 1399.59,-697.51 1898.72,-1022.3z"/>
  <path class="fil2" d="M1581 1578.43c187.8,118.17 371.78,247.15 552.12,386.47 -23.79,2.83 -47.57,5.66 -71.35,8.49 91.06,70.83 182.13,141.67 273.19,212.5 30.79,30.11 28.7,57.11 -6.26,81.02l-288.3 115.42 17.55 6.37 0.23 0.09c40.88,15.69 51.53,65.69 13.53,90.51l-1.24 0.81 -1.32 0.67c-34.78,17.81 -69.56,35.61 -104.34,53.42l63.9 22.05 0.38 0.14c14.3,5.39 25.8,17.09 27.01,32.95 0.99,12.89 -5.43,24.59 -15.66,32.09l-1.83 1.34 -2.02 1.03c-21.98,11.18 -43.96,22.37 -65.93,33.55l-10.68 5.43 -128.73 -45.32 -0.44 -0.17c-6.26,-2.44 -11.51,-6 -15.65,-10.25l-5.16 2.62 -128.72 -45.32 -0.44 -0.17c-8.84,-3.45 -15.67,-9.11 -20.21,-15.83 -11.18,1.98 -22.34,1.59 -33.4,-0.59l-316.26 126.62c236.05,0.14 472.1,0.28 708.15,0.42 172.59,-109.13 345.18,-218.25 517.76,-327.38 103.37,-74.53 109.15,-161.3 34.04,-258.2 -191.39,-253.45 -429.21,-481.19 -693.24,-694.39 -89.16,57.5 -189.26,119.4 -296.68,183.62zm-511.56 292.79c205.66,66.77 400.82,140.59 585.49,221.46 -26.8,10.38 -53.6,20.76 -80.39,31.15 166.17,65.37 330.88,134.62 493.37,209.76 74.65,-28.92 149.31,-57.84 223.96,-86.76 25.81,-11.84 22.94,-29.56 1.53,-45.5 -279.49,-197.74 -565.08,-380.43 -862.26,-534.57 -116.2,67.59 -238.1,136.52 -361.69,204.46zm-1008.45 505.44c471.73,13.74 980.59,78.52 1500.63,158.68l17.23 -6.9 -35.84 -18.6 39.49 -22.11 -2.4 -1.4c-4.11,-2.39 -13.11,-4.73 -17.85,-6.38 -13.63,-4.74 -26.39,-10.97 -35.4,-22.73 -12.53,-16.36 -12.29,-36.03 -5.57,-54.57 -13.59,0.02 -27.34,-2.11 -41.15,-6.5 -92.09,-29.05 -184.15,-58.1 -276.24,-87.16l-59.43 -18.75 0.91 -0.54 -247.76 -77.03 -105.46 64.25 -13.88 -7c-36.79,-18.55 -37.93,-59.93 -30.07,-95.38l2.58 -11.61 75.56 -46.19 -78.83 -21.84 148.41 -92.59 408.94 121.23 0.24 0.08c21.93,6.93 39.52,24.84 39.93,48.79 0,0.29 0,0.58 0,0.87 27.99,-12.52 58.43,-12.89 88.21,-7.07l1.98 0.39 1.9 0.67c90.26,31.6 180.51,63.2 270.77,94.8l35.78 12.53 0.09 -0.04 5.61 2.03 15.85 5.55 -0.22 0.13 227.16 82.52c9.41,-3.76 18.81,-7.52 28.19,-11.28 -336.96,-141.28 -718.54,-269.23 -1130.02,-385.13 -297.8,159.3 -593.33,306.2 -829.32,408.27zm1673.24 104.71c-20.6,11.22 -41.2,22.45 -61.8,33.67 -23.22,12.01 -46.78,6.17 -70.48,-6.13 20.26,-11.34 40.52,-22.68 60.79,-34.03 17.83,-9.84 42.03,-6.95 71.49,6.49zm13.68 6.23l-16.16 9.13 92.3 33.4 -41.17 23.92 -46.34 -17.37 24.86 -16.11 -45.32 -14.41 -28.88 14.69c-8.14,4.78 -5.98,13.43 3.81,17.25l116.98 41.19c21.98,-11.18 43.95,-22.36 65.93,-33.55 7.8,-5.72 4.33,-12.89 -4.69,-16.3l-121.32 -41.85zm149.98 53.11l-16.16 9.13 92.29 33.4 -41.16 23.92 -46.34 -17.36 24.86 -16.11 -45.32 -14.41 -28.88 14.69c-8.14,4.78 -5.98,13.43 3.82,17.26l116.97 41.18c21.98,-11.18 43.96,-22.36 65.93,-33.54 7.8,-5.72 4.33,-12.89 -4.69,-16.29l-121.32 -41.86z"/>
  <path class="fil1" d="M1815.15 2607.04l-5.16 2.62 -128.72 -45.32 -0.44 -0.17c-8.84,-3.45 -15.67,-9.11 -20.21,-15.83 -24.24,4.29 -48.38,-2.56 -71.56,-14.59l-46.06 -23.91 39.49 -22.11 -2.4 -1.4c-4.11,-2.39 -13.11,-4.73 -17.85,-6.38 -13.63,-4.74 -26.39,-10.97 -35.4,-22.73 -12.53,-16.36 -12.29,-36.03 -5.57,-54.57 -13.59,0.02 -27.34,-2.11 -41.15,-6.5 -92.09,-29.05 -184.15,-58.1 -276.24,-87.16l-59.43 -18.75 0.91 -0.54 -247.76 -77.03 -105.46 64.25 -13.88 -7c-36.79,-18.55 -37.93,-59.93 -30.07,-95.38l2.58 -11.61 75.56 -46.19 -78.83 -21.84 148.41 -92.59 408.94 121.23 0.24 0.08c21.93,6.93 39.52,24.84 39.93,48.79 0,0.29 0,0.58 0,0.87 27.99,-12.52 58.43,-12.89 88.21,-7.07l1.98 0.39 1.9 0.67c90.26,31.6 180.51,63.2 270.77,94.8l35.78 12.53 0.09 -0.04 5.61 2.03 15.85 5.55 -0.22 0.13 292.96 106.42 0.23 0.09c40.88,15.69 51.53,65.69 13.53,90.51l-1.24 0.81 -1.32 0.67c-34.78,17.81 -69.56,35.61 -104.34,53.42l63.9 22.05 0.38 0.14c14.3,5.39 25.8,17.09 27.01,32.95 0.99,12.89 -5.43,24.59 -15.66,32.09l-1.83 1.34 -2.02 1.03c-21.98,11.18 -43.96,22.37 -65.93,33.55l-10.68 5.43 -128.73 -45.32 -0.44 -0.17c-6.26,-2.44 -11.51,-6 -15.65,-10.25zm-949.66 -508.45l52.81 -32.33 296.24 90.14 -97.13 62.7 -170.06 -50.6 -31.65 20.51 258.47 80.36c44.4,-26.22 88.8,-52.44 133.19,-78.65 16.15,-12 11.78,-33.3 -10.7,-40.4l-396.62 -117.58 -83.7 52.22 49.16 13.62zm214.47 34.06l-152.64 -44.81 -151.8 92.8c-7.08,31.93 -3.59,54.77 15.35,64.33l156.17 -95.14 69.94 20.42 62.98 -37.59zm132.34 149.68c40.05,-23.92 80.09,-47.84 120.14,-71.77 30.77,10.26 61.54,20.52 92.3,30.79 -26.31,15.69 -52.63,31.37 -78.95,47.06 44.13,14.97 88.25,29.94 132.37,44.91 31.86,-19.53 63.71,-39.06 95.57,-58.6 -72.95,-25.05 -145.91,-50.11 -218.86,-75.16 18.95,-8.93 42.57,-11.82 73,-5.88 90.26,31.6 180.52,63.2 270.77,94.8 -41.22,23.97 -82.45,47.93 -123.67,71.89 -29.53,15.77 -58.29,18.03 -86.41,9.1 -92.09,-29.06 -184.17,-58.11 -276.25,-87.16zm496.87 39.47l264.34 98.67 -98.15 53.28 -166.1 -57.92 -32.77 18.58 251.06 87.44c45.89,-23.5 82.96,-42.47 128.85,-65.97 16.84,-11.01 13.76,-32.52 -8.25,-40.97l-303.01 -110.07 -35.97 16.95zm140.13 68.06l-154.43 -55.66 -146.9 76.94c-15.57,40.71 27.87,40.34 46.2,51.02l114.48 -63.82 73.51 27.4 67.14 -35.88zm-115.07 91.51c-20.6,11.22 -41.2,22.45 -61.8,33.67 -23.22,12.01 -46.78,6.17 -70.48,-6.13 20.26,-11.34 40.52,-22.68 60.79,-34.03 17.83,-9.84 42.03,-6.95 71.49,6.49zm13.68 6.23l-16.16 9.13 92.3 33.4 -41.17 23.92 -46.34 -17.37 24.86 -16.11 -45.32 -14.41 -28.88 14.69c-8.14,4.78 -5.98,13.43 3.81,17.25l116.98 41.19c21.98,-11.18 43.95,-22.36 65.93,-33.55 7.8,-5.72 4.33,-12.89 -4.69,-16.3l-121.32 -41.85zm149.98 53.11l-16.16 9.13 92.29 33.4 -41.16 23.92 -46.34 -17.36 24.86 -16.11 -45.32 -14.41 -28.88 14.69c-8.14,4.78 -5.98,13.43 3.82,17.26l116.97 41.18c21.98,-11.18 43.96,-22.36 65.93,-33.54 7.8,-5.72 4.33,-12.89 -4.69,-16.29l-121.32 -41.86z"/>
  <path class="fil0" d="M3551.99 1376.35c-258.29,208 -496.45,433 -696.81,698.29 -85.59,110.54 -75.19,214.92 39.9,297.91l0.69 0.5 0.72 0.46c172.59,109.12 345.17,218.25 517.76,327.38l6.86 4.34 8.11 -0c236.05,-0.14 496.77,-2.61 732.82,-2.74 29.4,-100.89 81.99,-171.08 250.97,-209.53 102.2,-13.53 147.09,-20.71 249.53,-32.07 243.62,-27.01 488.61,-47.19 733.68,-54.03l52.1 -1.45 -2.26 -1.13c-567.77,-245.14 -1442.51,-721.31 -1894.07,-1027.9z"/>
  <path class="fil2" d="M3870.36 1578.96c-188.85,118.69 -373.84,248.31 -555.15,388.38 23.78,2.83 47.56,5.66 71.34,8.49 -91.06,70.83 -182.12,141.67 -273.19,212.5 -30.79,30.11 -28.7,57.11 6.26,81.02l289.94 116.08 -62.55 158.74 76.33 -29.37 -33.21 82.08 4.84 10.86c14.78,33.17 40.33,65.73 80.93,58.74l15.32 -2.64 46.5 -114.41 150.29 -52.52 449.33 179.9c-236.05,0.14 -472.1,0.28 -708.15,0.42 -172.59,-109.13 -345.18,-218.25 -517.76,-327.38 -103.37,-74.54 -109.15,-161.31 -34.04,-258.21 192.75,-255.24 432.57,-484.41 698.85,-698.91 85.7,57.42 185.24,120.31 294.11,186.23zm510.99 293.9c-206.57,66.98 -402.55,141.06 -587.95,222.26 26.8,10.38 53.6,20.76 80.4,31.14 -166.17,65.37 -330.88,134.62 -493.37,209.76 -74.65,-28.92 -149.31,-57.84 -223.96,-86.76 -25.81,-11.83 -22.94,-29.56 -1.53,-45.5 280.29,-198.31 566.72,-381.48 864.82,-535.9 114.83,67.27 236.8,136.39 361.6,204.99zm1007.13 506.2c-472.04,13.67 -981.31,78.49 -1501.78,158.72 -48.89,-19.61 -98.21,-39.17 -147.67,-58.71l43.62 -15.24 -0.4 0.99 58.91 -20.31c91.28,-31.47 182.56,-62.93 273.85,-94.4 13.71,-4.7 26.02,-11.18 36.93,-19.28 5.64,18.89 17.15,34.84 36.96,40.53 14.24,4.09 28.2,1.49 41.98,-2.81 4.79,-1.49 13.42,-4.97 18.14,-5.49l2.76 -0.31 -18.57 41.26 51.23 -8.2c25.79,-4.13 49.26,-13 66.19,-30.88 7.65,2.7 16.51,3.18 25.67,0.69l0.46 -0.12 130.41 -40.21 2.58 -5.18c5.86,0.96 12.2,0.68 18.68,-1.08l0.46 -0.12 130.41 -40.21 5.35 -10.72c10.99,-22.07 22,-44.13 33,-66.2l1.02 -2.04 0.67 -2.16c3.76,-12.12 1.95,-25.34 -6.52,-35.11 -10.42,-12.02 -26.61,-14.57 -41.31,-10.39l-0.39 0.11 -64.46 20.32c17.35,-35.01 34.69,-70.02 52.04,-105.03l0.66 -1.32 0.51 -1.38c15.75,-42.57 -22.57,-76.41 -64.75,-64.68l-0.24 0.07 -298.75 88.89 0.1 -0.24 -16.03 4.98 -5.72 1.7 -0.05 0.09 -36.21 11.23c-91.33,28.34 -182.66,56.68 -274,85.02l-1.92 0.59 -1.82 0.87c-27.4,13.05 -51.64,31.47 -66.67,58.19 -0.17,-0.24 -0.34,-0.46 -0.52,-0.7 -14.58,-19.01 -39.38,-22.92 -61.12,-15.44l-0.24 0.08 -358.64 130.68c-8.43,-3.37 -16.86,-6.74 -25.26,-10.11 337.7,-141.59 720.22,-269.79 1132.74,-385.89 289.81,154.8 583.24,300.74 827.75,409zm-1018.58 -111.77c-9.87,21.28 -19.74,42.56 -29.61,63.84 -11.51,23.47 -33.92,32.81 -60.28,37.03 9.52,-21.18 19.06,-42.35 28.59,-63.53 8.46,-18.52 29.63,-30.6 61.3,-37.34zm14.7 -3.14l-7.56 16.96 94.04 -28.11 -18.83 43.72 -47.58 13.63 10.39 -27.74 -45 15.41 -14.46 28.99c-3.7,8.68 3.18,14.34 13.34,11.59l118.51 -36.55c11,-22.06 22,-44.13 33,-66.2 2.87,-9.24 -4.19,-12.93 -13.46,-10.3l-122.4 38.59zm152.13 -46.6l-7.55 16.96 94.04 -28.11 -18.83 43.73 -47.58 13.64 10.39 -27.75 -45 15.41 -14.46 29c-3.69,8.67 3.19,14.34 13.35,11.59l118.5 -36.55c11.01,-22.06 22.01,-44.13 33,-66.19 2.87,-9.24 -4.19,-12.94 -13.46,-10.31l-122.4 38.59z"/>
  <path class="fil1" d="M4509.73 2320.1l-2.58 5.18 -130.41 40.21 -0.46 0.12c-9.16,2.49 -18.02,2.01 -25.67,-0.69 -16.93,17.88 -40.39,26.74 -66.19,30.88l-51.23 8.2 18.57 -41.26 -2.76 0.31c-4.72,0.52 -13.35,4 -18.14,5.49 -13.78,4.3 -27.73,6.9 -41.98,2.81 -19.8,-5.68 -31.32,-21.64 -36.96,-40.53 -10.91,8.1 -23.22,14.58 -36.93,19.28 -91.29,31.47 -182.56,62.94 -273.85,94.4l-58.91 20.31 0.4 -0.99 -244.92 85.59 -46.5 114.41 -15.32 2.64c-40.6,6.99 -66.16,-25.57 -80.93,-58.74l-4.84 -10.86 33.21 -82.08 -76.33 29.37 64.13 -162.75 400.76 -146.02 0.24 -0.08c21.75,-7.48 46.54,-3.57 61.12,15.44 0.18,0.23 0.35,0.46 0.52,0.7 15.04,-26.72 39.27,-45.14 66.67,-58.19l1.82 -0.87 1.92 -0.59c91.33,-28.34 182.67,-56.68 274,-85.02l36.21 -11.23 0.05 -0.09 5.72 -1.7 16.03 -4.98 -0.1 0.24 298.75 -88.89 0.24 -0.07c42.18,-11.73 80.51,22.11 64.75,64.68l-0.51 1.38 -0.66 1.32c-17.35,35.01 -34.69,70.02 -52.04,105.03l64.46 -20.32 0.39 -0.11c14.7,-4.17 30.9,-1.63 41.31,10.39 8.46,9.77 10.27,22.99 6.52,35.11l-0.67 2.16 -1.02 2.04c-11,22.07 -22.01,44.13 -33,66.2l-5.35 10.72 -130.41 40.21 -0.46 0.12c-6.48,1.76 -12.82,2.04 -18.68,1.08zm-1065.74 156.77l23.19 -57.42 291.69 -103.92 -40.71 108.2 -166.77 60.58 -13.22 35.32 255.52 -89.29c20.06,-47.5 40.13,-94.98 60.19,-142.48 5.83,-19.26 -10.36,-33.76 -32.65,-26.1l-388.68 141.63 -36.18 91.79 47.61 -18.32zm192.6 -100.31l-149.32 54.86 -66.73 164.92c13.32,29.88 29.72,46.15 50.63,42.55l68.85 -169.41 68.35 -25.23 28.23 -67.7zm195.45 41.5c17.94,-43.06 35.88,-86.12 53.82,-129.19 30.83,-10.07 61.66,-20.14 92.5,-30.21 -11.81,28.27 -23.62,56.54 -35.43,84.81 44.37,-14.24 88.73,-28.47 133.1,-42.71 13.97,-34.66 27.94,-69.31 41.91,-103.98 -73.53,23.31 -147.06,46.6 -220.59,69.9 9.91,-18.46 27.16,-34.84 55.15,-48.17 91.33,-28.33 182.66,-56.68 274,-85.01 -18.86,43.79 -37.72,87.58 -56.58,131.39 -14.34,30.25 -36.1,49.19 -64.01,58.74 -91.29,31.47 -182.57,62.95 -273.86,94.42zm422.74 -264.07l271.14 -78.07 -47.16 101.24 -167.94 52.34 -15.27 34.44 253.78 -79.19c22.89,-46.2 41.37,-83.51 64.26,-129.71 6.99,-18.87 -8.31,-34.32 -31.02,-28.01l-308.99 91.94 -18.81 35.03zm153.11 -28.73l-157.22 47.21 -72.23 149.27c11.72,41.97 46.41,15.83 67.5,13.49l53.99 -119.42 75.38 -21.74 32.59 -68.81zm-37.99 142.04c-9.87,21.28 -19.74,42.56 -29.61,63.84 -11.51,23.47 -33.92,32.81 -60.28,37.03 9.52,-21.18 19.06,-42.35 28.59,-63.53 8.46,-18.52 29.63,-30.6 61.3,-37.34zm14.7 -3.14l-7.56 16.96 94.04 -28.11 -18.83 43.72 -47.58 13.63 10.39 -27.74 -45 15.41 -14.46 28.99c-3.7,8.68 3.18,14.34 13.34,11.59l118.51 -36.55c11,-22.06 22,-44.13 33,-66.2 2.87,-9.24 -4.19,-12.93 -13.46,-10.3l-122.4 38.59zm152.13 -46.6l-7.55 16.96 94.04 -28.11 -18.83 43.73 -47.58 13.64 10.39 -27.75 -45 15.41 -14.46 29c-3.69,8.67 3.19,14.34 13.35,11.59l118.5 -36.55c11.01,-22.06 22.01,-44.13 33,-66.19 2.87,-9.24 -4.19,-12.94 -13.46,-10.31l-122.4 38.59z"/>
 </g>
</svg>
