<?xml version="1.0" encoding="UTF-8"?>
  <!DOCTYPE svg PUBLIC "-//W3C//DTD SVG 1.1//EN" "http://www.w3.org/Graphics/SVG/1.1/DTD/svg11.dtd">
  <!-- Creator: CorelDRAW 2020 (64 Bit) -->
  <svg xmlns="http://www.w3.org/2000/svg" xml:space="preserve" width="1129.28mm" height="286.23mm" version="1.1" style="shape-rendering:geometricPrecision; text-rendering:geometricPrecision; image-rendering:optimizeQuality; fill-rule:evenodd; clip-rule:evenodd"
  viewBox="0 0 24531.97 6217.94"
   xmlns:xlink="http://www.w3.org/1999/xlink"
   xmlns:xodm="http://www.corel.com/coreldraw/odm/2003">
   <defs>
    <style type="text/css">
     <![CDATA[
      .fil0 {fill:#d9d9d9}
      .fil1 {fill:#000000}
      .fil2 {fill:#ff0000}
     ]]>
    </style>
   </defs>
   <g id="Camada_x0020_1">
    <metadata id="CorelCorpID_0Corel-Layer"/>
    <path class="fil0" d="M12188.82 737.28c-194.47,98.54 -239.24,106.84 -394.03,238.17 -884.52,112.91 -1792.59,227.63 -2677.11,340.55 32.25,-29.75 584.75,-533.25 584.75,-533.25l2513.72 -75.7c-6.81,15.28 -18.23,27.68 -27.33,30.24z"/>
    <path class="fil1" d="M3363.22 1160.7c245.37,-237.08 227.2,-443.98 -85.39,-501.97l-2187.33 -445.52c-190.61,-44.03 11.32,-50.88 66.86,-50.62 436.41,0.85 894.95,-3.05 1364.39,-8.24 1126.23,-3.58 2387.54,1.08 3501.28,27.66l-1683.11 1152.14 2.55 1.61c-257.64,88.25 -489.42,225.51 -694.38,434.57 -844.12,862.93 -1688.24,1725.85 -2532.35,2588.8 -109.83,110.46 -229.69,209.19 -374.4,248.58 -203.31,40.42 -406.66,80.85 -609.96,121.26 -40.99,8.16 -58.94,14.94 -56.47,7.97l3287.68 -3575.6 0.62 -0.65zm3144.69 -965.39l-1335.49 963.12c-175.33,29.94 -350.17,62.2 -524.56,96.6 -69.75,13.64 -137.89,29.87 -204.39,48.98l1637.07 -1120.63c145.35,3.58 287.95,7.56 427.38,11.92zm448.51 16.02l-1203.95 857.02c-162.84,22.72 -325.24,47.58 -487.19,74.45l1310.73 -945.3c129.91,4.23 256.97,8.83 380.41,13.82zm423.57 19.51l-1081.41 769.79c-123.29,13.36 -246.32,28.02 -369.08,43.92l1162.47 -827.5c98.55,4.33 194.6,8.92 288.01,13.8zm454.05 27.55l-970.08 690.53c-132.8,9.88 -265.26,21.35 -397.41,34.36l1046.83 -745.18c111.41,6.34 218.48,13.08 320.66,20.3zm449.62 38.19l-897.74 622c-121.24,5.05 -242.21,11.51 -362.86,19.3l940.98 -669.84c113.71,8.87 220.54,18.35 319.62,28.54zm468.75 64.5l-873.2 544.78c-98.64,0.96 -197.12,2.87 -295.34,5.72l861.54 -596.9c116.8,14.25 219.74,29.69 307.01,46.39z"/>
    <path class="fil2" d="M108.56 4698.52c1084.7,-1179.05 2169.36,-2358.12 3254.04,-3537.18 244.61,-248.68 219.29,-451.99 -84.77,-502.61 -729.16,-148.51 -1458.32,-297.03 -2187.48,-445.55 -95.73,-22.73 -119.91,-46.01 11.92,-50.16 2700.17,-23.57 7546.67,-30.35 7953.85,297.75 62.06,-34.2 97.98,-54 160.03,-88.2 -523.77,-471.68 -6064.48,-322.22 -9068.29,-372.13 -179.12,-6.89 -197.97,68.83 -43,116.58 947.04,223.97 1894.08,447.95 2841.11,671.92 202.6,35.17 231.04,126.49 63.94,280.86 -921.23,952.25 -1842.47,1904.5 -2763.72,2856.75 -45.44,45.97 -79.02,102.19 -87.46,175.63 -28.18,201.12 -56.37,402.25 -84.55,603.36 -7.78,55.41 1.81,28.41 34.38,-7.02z"/>
    <path class="fil2" d="M11790.31 968.28c-886.3,97.97 -1796.19,197.31 -2682.48,295.28 -53.38,48.19 -106.76,96.39 -160.14,144.58 -69.91,69.13 -140.86,169.04 -29.25,311.27 492.95,583.49 985.88,1166.99 1478.83,1750.48 119.57,138.81 204.02,247.29 374.19,318.3 115.08,48.35 230.18,96.69 345.28,145.04 123,62.25 137.05,30.75 143.97,-35.68 18.82,-507.04 79.18,-2557.46 529.6,-2929.26z"/>
    <path class="fil2" d="M9643.11 786.88c873,-27.09 1700.04,-52.75 2573.04,-79.84 24.02,-47.17 -18.98,-72.8 -49.43,-70.77 -759.31,10.11 -1514.78,17.64 -2274.09,27.75 -134.11,0.3 -154.78,43.01 -249.52,122.85z"/>
    <path class="fil1" d="M9214.03 1408.21l57.12 -3.73c16.66,25.56 -144.97,265.84 -130.54,289.31 37.44,-1.57 252.33,-24.55 281.47,-31.18 4.68,-1.44 184.52,-342.32 177.32,-352.56 -23.21,-2.16 -286.08,26.6 -335.87,33.39 -30.33,4.15 -26.71,6.26 -32.8,17.86 -5.25,9.98 -21.86,36.93 -16.69,46.9zm-106.2 -144.65l261.51 -28.91 514.1 -455.23 -240.35 7.46 -535.27 476.68zm435.75 -48.16l261.83 -28.94 498.29 -420.08 -262.23 8.14 -497.89 440.88zm494.81 -54.7l236.83 -26.17 446.49 -381.14 -207.84 6.45 -475.48 400.85zm487.84 -53.91l219.13 -24.22 361.48 -341.12 -158.37 4.91 -422.24 360.43zm518.25 -57.28l209 -23.09 300.31 -298.83 -173.88 5.4 -335.43 316.52zm573.82 -63.41l148.41 -16.4 271.64 -257.13 -149.82 4.64 -270.23 268.9zm-743.49 459.42c-26.27,2.86 -33.22,3.98 -31.52,-8.96l112.02 -211.74c10.98,-7.37 183.68,-26.73 212.92,-25.41 14.7,7.82 -11.98,46.86 -17.65,58.05l-58.64 116.39c-30.47,62.8 3.35,47.73 -217.13,71.66zm-150.83 77.48l394.24 -42.8c106.99,-11.62 204.01,-40.25 230.64,-72.21l120.38 -232.19c8.62,-18.71 25.57,-43 -25.27,-53.35 -77.34,-15.75 -383.78,26.05 -475.23,35.98 -341.93,37.13 -284.59,62.02 -409.27,299.4 -8.5,15.55 -33.72,48.55 6.17,62.77 27.48,9.8 110.94,7.56 158.33,2.41zm-824.99 27.21c-6.51,-13.77 9.54,-32.22 15.29,-44.48 27.86,-59.49 10.76,-50.65 124.05,-62.95 38.91,-4.22 80.36,-10.66 118.46,-10.49 4.89,11.62 -29.47,73.14 -37.59,85.47 -7.09,10.74 -6.55,10.62 -37.99,14.11l-182.22 18.35zm-126.77 76.13l394.93 -42.88c96.32,-10.46 189.29,-36.79 223.2,-63.42 19.33,-15.18 47.89,-82.35 60.64,-105.48 34.01,-61.76 -16.13,-67.84 -146.84,-60.75 -66.5,3.6 -278.71,34.65 -321.51,31.27 -5.23,-6.36 10.6,-53.01 31.96,-61.05 28.03,-8.92 487.37,-48.45 510.03,-58.09 8.99,-8.65 31.25,-48.99 24.35,-60.5 -41.89,0.81 -424.02,44.6 -497.51,52.58 -353.37,38.36 -319.88,68.09 -379.75,177.62l-42.6 82.95c-21.82,51.51 -118.86,136.19 143.1,107.75z"/>
    <path class="fil1" d="M21150.38 1296.65c-244.18,-244.07 -214.57,-451.71 93.68,-500.41l2194.73 -408.53c192.11,-39.76 -10.8,-51.04 -66,-51.75 -436.36,-6.52 -894.77,-18.17 -1364.07,-31.28 -1126.01,-22.62 -2387.22,-39.26 -3501.24,-31.51l1663.42 1180.42 -2.59 1.57c256.11,92.59 485.54,233.75 686.94,446.23 829.41,877.08 1658.84,1754.14 2488.25,2631.22 107.93,112.3 226.12,213.04 370.12,254.86 202.62,43.85 405.24,87.7 607.85,131.54 40.84,8.86 58.68,15.95 56.32,8.92 -4.98,-2.46 -15.62,-19.42 -33,-38.97 -1064.61,-1197.21 -2129.19,-2394.44 -3193.8,-3591.66l-0.63 -0.65zm-3127.93 -1018.38l1319.02 985.55c174.82,32.9 349.08,68.11 522.85,105.44 69.52,14.82 137.38,32.19 203.56,52.43l-1617.92 -1148.13c-145.39,1.13 -288.04,2.7 -427.51,4.71zm-448.72 8.45l1189.3 877.24c162.44,25.46 324.39,53.06 485.88,82.66l-1294.59 -967.3c-129.96,2.04 -257.07,4.49 -380.59,7.4zm-423.83 12.34l1068.24 787.96c123.07,15.43 245.83,32.17 368.29,50.13l-1148.32 -847.02c-98.63,2.65 -194.72,5.63 -288.21,8.92zm-454.45 19.88l958.25 706.83c132.62,12.12 264.87,25.82 396.78,41.06l-1034.08 -762.76c-111.49,4.44 -218.68,9.39 -320.95,14.87zm-450.21 30.6l887.1 637.07c121.15,7.1 242,15.6 362.51,25.43l-929.54 -685.64c-113.83,6.95 -220.83,14.64 -320.06,23.14zm-469.78 56.57l863.89 559.45c98.61,2.62 197.03,6.2 295.21,10.7l-851.33 -611.36c-117.01,12.27 -220.2,25.97 -307.76,41.2z"/>
    <path class="fil2" d="M24344.8 4888.97c-1064.61,-1197.21 -2129.19,-2394.44 -3193.8,-3591.66 -240.4,-252.78 -211.65,-455.63 93.23,-501.1 731.56,-136.18 1463.11,-272.36 2194.68,-408.53 96.12,-21.11 120.69,-43.97 -11.05,-50.36 -2699.4,-69.19 -7545.09,-157.84 -7957.74,163.34 -61.47,-35.25 -97.07,-55.65 -158.54,-90.9 531.69,-462.77 6069.07,-219.72 9073.3,-218.87 179.2,-3.88 196.79,72.16 41.02,117.29 -950.69,207.94 -1901.37,415.88 -2852.07,623.83 -203.18,31.74 -233.16,122.56 -68.68,279.73 905,967.68 1810.04,1935.36 2715.05,2903.04 44.67,46.73 77.3,103.5 84.48,177.08 24.79,201.56 49.58,403.14 74.34,604.7 6.85,55.53 -2.27,28.37 -34.24,-7.59z"/>
    <path class="fil0" d="M12342.2 723.8c194.47,98.54 239.24,106.84 394.03,238.17 884.52,112.91 1792.59,227.63 2677.11,340.55 -32.25,-29.75 -527.14,-485.66 -527.14,-485.66l-2571.33 -123.29c6.81,15.28 18.23,27.68 27.33,30.24z"/>
    <path class="fil2" d="M12736.23 961.97c884.52,112.91 1792.59,227.63 2677.11,340.55 52.56,49.09 105.12,98.17 157.69,147.26 68.72,70.29 137.96,171.4 23.98,311.72 -502.73,575.09 -1005.47,1150.16 -1508.2,1725.24 -121.89,136.77 -208.15,243.8 -379.49,311.94 -115.9,46.4 -231.8,92.77 -347.7,139.17 -124.02,60.16 -137.55,28.44 -143.34,-38.1 -10.26,-507.29 -35.98,-2558.43 -480.05,-2937.78z"/>
    <path class="fil1" d="M15413.34 1302.52l-260.99 -33.32 -506.33 -463.85 240.18 11.51 527.14 485.66zm-2217.3 -113.4l56.43 9.47c10.34,28.71 -202.13,225.44 -193.47,251.62 36.8,7.06 251.23,34.05 281.11,34.28 4.9,-0.34 258.18,-290.81 253.53,-302.42 -22.09,-7.42 -284.53,-39.8 -334.58,-44.61 -30.48,-2.94 -27.42,-0.05 -36.02,9.84 -7.4,8.5 -29.77,30.93 -27.01,41.83zm634.06 295.45c-3.17,-14.9 16.69,-29.16 25.09,-39.79 40.78,-51.49 22.13,-46.83 135.19,-32.77 38.85,4.82 80.66,8.07 117.72,16.99 2.09,12.43 -45.47,64.42 -56.21,74.54 -9.37,8.83 -8.83,8.85 -40.21,5.02l-181.58 -23.99zm-140.85 44.99l394.21 48.95c96.16,11.93 192.69,7.64 231.79,-10.49 22.32,-10.34 65.54,-69.15 83.25,-88.75 47.29,-52.3 -0.12,-69.72 -128.96,-92.83 -65.56,-11.77 -279.23,-30.28 -320.12,-43.38 -3.62,-7.39 22.53,-49.17 45.14,-52.09 29.32,-2.24 485.48,64.74 509.75,60.56 10.74,-6.35 41.65,-40.51 37.58,-53.29 -40.96,-8.83 -422.92,-53.94 -496.3,-63.05 -352.73,-43.8 -326.96,-7.18 -410.37,85.69l-60.52 70.95c-33.07,45.13 -146.96,105.26 114.54,137.72zm1114.62 77.17c-26.22,-3.26 -33.22,-3.76 -28.6,-15.96l157.63 -180.36c12.38,-4.66 184.9,16.15 213.07,24.16 12.52,10.99 -22.41,42.86 -30.49,52.45l-83.82 99.82c-44.07,54.12 -7.69,47.22 -227.79,19.9zm-164.57 40.78l393.53 48.86c106.81,13.26 207.79,7.66 241.07,-17.33l170.47 -198.36c12.69,-16.23 34.77,-35.98 -12.33,-57.72 -71.67,-33.08 -379.53,-62.76 -470.82,-74.09 -341.46,-42.39 -291.25,-4.87 -467.06,197.44 -11.85,13.18 -43.96,39.51 -8.43,62.51 24.53,15.86 106.26,32.82 153.57,38.7zm339.16 -400.51l-261.29 -33.35 -491.14 -428.44 262.05 12.56 490.38 449.23zm-493.8 -63.03l-236.36 -30.17 -439.99 -388.62 207.71 9.96 468.65 408.83zm-486.88 -62.16l-218.69 -27.92 -355.65 -347.18 158.26 7.59 416.09 367.51zm-517.2 -66.03l-208.58 -26.63 -295.22 -303.86 173.75 8.34 330.04 322.14zm-572.68 -73.1l-148.09 -18.91 -267.28 -261.68 149.73 7.17 265.64 273.43z"/>
    <path class="fil2" d="M14886.2 816.86c-872.43,-41.84 -1698.91,-81.46 -2571.34,-123.29 -23.22,-47.56 20.23,-72.45 50.64,-69.92 759.03,22.94 1514.27,43.23 2273.3,66.16 134.08,2.57 153.98,45.6 247.4,127.05z"/>
    <path class="fil2" d="M1832.31 6217.94c2961.61,-145.41 5923.24,-188.16 8884.88,-436.21 116.94,-49.87 169.95,-101.26 230.93,-173.21 149.58,-176.64 45.3,-210.54 104.58,-356.73 22.86,-56.44 45.75,-112.88 68.63,-169.31 147.76,-32.27 275.62,-73.12 373.14,-161.64 79.17,-71.88 97.6,-110.99 -21.84,-120.09 -449.51,-34.36 -2648.62,-202.51 -2679.95,-205.81 -34.89,-3.67 -149.23,-8.92 -216.7,-50.83 -67.46,-41.91 -411.52,-302.72 -479.34,-364.55 -67.8,-61.84 -162.73,-112.38 -285.48,-123.5 -122.74,-11.12 -2974.6,-313.16 -3035.94,-319.15 -61.35,-5.99 -109.55,-4.67 -16.03,75.37 409.51,361.97 838.11,710.74 1249.29,1071.56 51.78,45.44 61.64,40 40.54,92.54 -47.2,117.6 -100.62,264.44 -154.58,383.71 -30.58,67.61 -14.77,62.09 -85.89,65.92 -1292.72,70.22 -2610.51,91.61 -3902.49,163.27 -80.54,-2 -115.3,10.94 -153.97,30.46 -110.67,52.93 -221.36,105.86 -332.02,158.77 -77.01,30.4 -60.93,89.09 22.45,88.21 164.13,2.7 328.25,5.41 492.37,8.11 -52.7,84.65 -105.4,169.3 -158.12,253.95 -65.89,105.82 -71.22,85.54 55.55,89.14z"/>
    <path class="fil2" d="M6163.99 3951.31c320.75,248.05 641.5,496.1 962.27,744.15 179.35,123.17 376.52,191.76 592.72,202.28 1290.96,16.15 2518.72,27.66 3756.71,15.84 13.34,-11.77 26.69,-23.55 40.04,-35.32 -1072.39,-41.69 -2143.17,-104.23 -3215.57,-145.93 -213.24,-16.47 -347.6,-87.68 -482.74,-210.1 -181.77,-151.82 -347.32,-290.09 -529.09,-441.92 -369.36,-38.48 -754.97,-90.51 -1124.33,-128.99z"/>
    <path class="fil0" d="M8758.44 5511.65c41.6,-33.47 70.3,-50.25 119.25,-74.32 7.77,-2.73 813.78,-38.15 887.63,-41.7 -17.49,13.19 -36.15,31.26 -55.66,40.74l-574.02 32.21c-12.43,0.31 -80.15,44.9 -102.04,84.87 16.96,32.23 68.89,72.57 105.06,74.57l631.77 -24.47c-78.75,-74.79 -95.57,-77.71 -24.39,-134.91 23.27,-19.03 80.66,-65.42 120.76,-65.44 95.07,-2.2 758.84,-42.78 791.84,-30.21l83.73 32.7 -603.06 27.75c-19.31,3.14 -85.82,49.37 -115.38,83.67 2.29,11.2 40.67,65.39 67.29,68.85l320.02 -9.23c17.97,-6.49 91.93,-51.08 65.15,-52.16 -81.38,3.69 -162.83,6.28 -241.02,9.56 16.88,-13.41 37.02,-36.58 59.5,-41.12l513.92 -28.28c21.38,-2.22 40.03,8.47 24.04,26.62 -28.46,25.58 -112.37,108.43 -142.77,120.92l-1653.56 67.7c-70.92,0.4 -122.65,7.47 -188.74,-19.92 -64.92,-26.48 -169.1,-84.28 -89.36,-148.42zm-79.14 42.11c-2.22,-58.45 154.35,-148.57 197.57,-153.97 23.2,-2.89 55.96,-3.05 81.49,-4.03l1648.18 -62.54c90.6,-3.47 107.55,19.92 204.25,75.02 121.92,69.48 96.32,67.86 -22.68,175.66 -64.41,58.36 -63.77,61.04 -165.32,64.94l-1502.08 59.82c-134.15,5.18 -278.62,21.47 -386.81,-67.76 -30.97,-25.54 -53.25,-52.06 -54.6,-87.14zm1543.56 -249.13l426.01 -15.24c78.3,5.27 109.64,36.15 175.84,71.25 58.17,30.84 124.83,59.74 125.31,116.06 0.39,45.28 -79.72,103.85 -115.86,134.61 -49.06,41.77 -60.03,64.07 -136.63,74.89l-905.4 38.57 -750.77 29.54c-152.77,5.77 -304.86,-8.19 -402.11,-136.9 -66.01,-87.36 34.08,-166.39 104.77,-206.4 52.46,-29.68 81.15,-52.72 149.55,-55.35l1329.29 -51.02zm-5418.86 -1532.93c453.33,59.87 906.66,119.75 1360,179.62 320.75,248.05 641.5,496.1 962.27,744.15 215.82,153.82 435.19,200.8 667.16,205.29 1214.58,4.28 2467.66,8.55 3682.26,12.83 -71.44,62.71 -261.89,105.24 -442.65,109.06 -1351.45,64.15 -2658,202.07 -4054.34,192.45 -354.07,-21.27 -574.22,-149.66 -757.01,-307.94 -472.58,-378.49 -945.14,-756.97 -1417.7,-1135.45zm-1049.44 1973.8c43.08,-48.81 86.17,-97.62 129.24,-146.43 474.26,-21.8 948.52,-43.58 1422.78,-65.39 -110.49,52.87 -220.98,105.75 -331.48,158.62 -108.78,5.02 -217.6,10.01 -326.38,15.03 -94.98,109.63 -189.94,219.27 -284.92,328.9 -143.39,5.45 -286.8,10.88 -430.22,16.33 91.86,-108.39 183.71,-216.8 275.57,-325.19 -151.53,6.04 -303.06,12.11 -454.6,18.14zm-799.15 353.94c136.89,-158.79 273.84,-317.61 410.74,-476.41 136.69,-6.43 273.38,-12.89 410.06,-19.32l-403.2 478.23c-139.21,5.84 -278.4,11.65 -417.6,17.5zm3024.07 -144.95c-143.49,8.81 -286.96,17.61 -430.44,26.43 -7.72,-103.76 19.05,-266.63 21.71,-372.19 -99.63,75.65 -282.61,173.71 -401.47,230.12 91.23,-5.75 244.19,-17.87 335.42,-23.59 -38.23,50.84 -68.96,88.58 -97.52,120.32 -182.4,9.65 -328.01,17.32 -510.42,26.97 -31.97,17.93 -63.93,35.87 -95.91,53.81 -106.95,4.97 -213.93,9.94 -320.89,14.91 196.21,-93.99 392.37,-187.95 588.58,-281.94 603.46,-298.95 249.67,-203.62 922.22,-242.72 0,0 -11.3,447.89 -11.3,447.89zm1079.92 -276.21c76.83,-81.92 153.63,-163.79 230.46,-245.71 184.27,-8.61 368.55,-17.19 552.83,-25.81 -93.88,55.22 -187.72,110.44 -281.6,165.67 -94.33,106.61 -188.64,213.19 -282.96,319.8 -100.48,1.84 -200.67,4.03 -298.07,9.94 0,0 -71.42,-118.07 -209.73,-306.34 -95.79,111.27 -191.56,222.55 -287.34,333.82 -140.99,6.85 -282,13.74 -423,20.6 136.45,-155.69 272.94,-311.42 409.39,-467.1 135.51,-7.37 271.03,-14.72 406.54,-22.1 61.17,72.4 122.31,144.8 183.47,217.22zm-4843.65 118.1c-238.6,7.74 -477.18,5.83 -715.77,23.19 124.17,-49.37 248.38,-98.79 372.55,-148.16 459.65,-13.32 919.29,-26.61 1378.94,-39.94 -40.69,46.79 -81.42,93.55 -122.11,140.33 -154.17,6.98 -308.32,13.95 -462.48,20.94 -97.14,109.83 -194.26,219.68 -291.41,329.51 -144.05,3.83 -288.12,7.66 -432.16,11.49 90.82,-112.46 181.61,-224.89 272.44,-337.36z"/>
    <path class="fil2" d="M21269.23 6201.64c-2944.99,-144.59 -5625.28,-242.08 -8601.99,-408.22 -45.17,-2.5 -49.78,-1.03 -91.04,-21.42 -89.59,-44.3 -136.92,-91.55 -190.37,-154.61 -149.58,-176.64 -45.29,-210.54 -104.57,-356.74 -22.87,-56.43 -45.76,-112.88 -68.63,-169.3 -147.76,-32.27 -275.62,-73.12 -373.15,-161.64 -79.15,-71.89 -97.59,-110.99 21.84,-120.09 449.52,-34.36 2648.62,-202.51 2679.96,-205.82 34.89,-3.68 149.22,-8.92 216.7,-50.83 67.47,-41.92 411.53,-302.72 479.34,-364.55 67.8,-61.84 162.73,-112.38 285.47,-123.5 122.75,-11.12 2974.61,-313.16 3035.95,-319.16 61.35,-5.98 109.55,-4.66 16.04,75.38 -409.52,361.97 -838.13,710.74 -1249.3,1071.56 -51.77,45.43 -61.63,40 -40.54,92.54 47.19,117.6 100.62,264.44 154.57,383.71 30.59,67.61 14.8,62.07 85.91,65.92 1456.02,79.04 3002.74,181.95 4463.45,242.65 -117.27,73.87 -395.33,204.64 -395.33,204.64 -131.34,135.63 -194.6,190.37 -324.32,319.46z"/>
    <path class="fil2" d="M17169.97 3960.19c-320.76,248.05 -641.52,496.1 -962.27,744.15 -179.35,123.18 -376.54,191.76 -592.74,202.28 -1290.96,16.15 -2518.72,27.66 -3756.71,15.84 -13.34,-11.77 -26.69,-23.55 -40.04,-35.32 1072.39,-41.69 2143.18,-104.24 3215.58,-145.93 213.23,-16.47 347.6,-87.69 482.74,-210.1 181.77,-151.82 347.31,-290.1 529.09,-441.92 369.36,-38.48 754.97,-90.51 1124.34,-128.98z"/>
    <path class="fil1" d="M7288.32 4080.3l570.03 477.39c158.28,135.09 337.17,173.42 557.52,179.21 1033.4,47.13 2068.44,94.63 3101.86,141.75 21.82,-23.6 33.07,-35.59 2.65,-37.34 -917.9,-71.36 -1835.79,-142.73 -2753.7,-214.09 -136.09,-19.15 -201.7,-52.48 -317.54,-137.92 -145.42,-107.98 -290.8,-215.99 -436.23,-323.97 -38.07,-29.43 -76.52,-37.26 -121.88,-41.69 -200.91,-14.45 -401.81,-28.89 -602.72,-43.34z"/>
    <path class="fil1" d="M16045.63 4089.17l-570.03 477.39c-158.28,135.09 -337.18,173.42 -557.51,179.21 -1033.41,47.13 -2068.46,94.63 -3101.87,141.75 -21.86,-23.61 -33.03,-35.59 -2.66,-37.34 917.91,-71.36 1835.8,-142.73 2753.7,-214.09 136.09,-19.14 201.71,-52.48 317.55,-137.92 145.4,-107.99 290.8,-215.99 436.22,-323.97 38.08,-29.43 76.53,-37.27 121.88,-41.69 200.91,-14.45 401.81,-28.89 602.73,-43.34z"/>
    <path class="fil0" d="M18529.97 3780.57c-453.34,59.87 -906.67,119.75 -1360,179.62 -320.76,248.05 -641.52,496.1 -962.27,744.15 -215.84,153.82 -435.2,200.81 -667.18,205.29 -1214.58,4.28 -2467.66,8.55 -3682.26,12.83 71.44,62.7 261.89,105.24 442.66,109.06 1351.44,64.15 2657.99,202.07 4054.33,192.45 354.08,-21.27 574.22,-149.66 757.01,-307.95 472.58,-378.48 945.14,-756.96 1417.72,-1135.44zm-777.83 1888.61c47.44,-44.59 94.87,-89.19 142.29,-133.78 474.24,22.43 948.48,44.87 1422.7,67.29 -114.93,42.35 -229.86,84.73 -344.79,127.09 -108.8,-5.14 -217.59,-10.28 -326.38,-15.42 -104.75,100.33 -209.51,200.65 -314.29,300.97 -143.27,-7.92 -286.57,-15.86 -429.85,-23.78 101.55,-99.37 203.09,-198.76 304.64,-298.13 -151.43,-8.09 -302.88,-16.16 -454.32,-24.24zm-5304.56 -217.43c3.6,-58.36 168.44,-132.35 211.99,-133.39 23.38,-0.56 56,2.57 81.48,4.15l1646.14 102.97c91.02,5.64 104.48,30.57 195.72,95.11 114.93,81.31 88.07,77.93 -40.18,172.5 -69.96,51.59 -69.51,54.34 -170.99,48.05l-1500.52 -91.02c-133.98,-8.33 -279.39,-6.55 -378.07,-106.2 -28.26,-28.54 -47.78,-57.12 -45.58,-92.17zm1560.74 -93.18l425.38 27.53c77.39,13.09 105.48,46.97 167.81,88.53 54.84,36.55 118.19,71.91 113.06,128.04 -4.11,44.95 -89.75,95.46 -128.78,122.31 -52.9,36.39 -65.63,57.72 -143.43,60.83l-904.73 -52.37 -749.96 -45.85c-152.8,-9.55 -302.38,-38.76 -386.35,-176.52 -56.97,-93.47 50.66,-162.16 124.94,-194.86 55.15,-24.27 86.03,-44.33 154.34,-40.08l1327.7 82.45zm-1477.78 59.21c44.73,-29.12 74.98,-42.95 126.09,-62 8.01,-1.93 813.51,43.61 887.36,47.48 -18.72,11.37 -39.13,27.48 -59.48,34.95l-574.36 -25.47c-12.39,-0.94 -84.24,36.64 -110.03,74.21 13.66,33.77 61.28,79.11 97.07,84.73l631.05 38.98c-69.03,-80.15 -88.6,-86.04 -10.75,-136.68 25.05,-16.6 86.81,-57.01 126.73,-53.01 94.78,7.34 759.32,33.49 790.87,49.31l80.04 40.93 -602.8 -32.84c-19.54,1.19 -90.35,40.52 -123.19,71.69 1.16,11.37 33.92,69.12 60.06,75.25l319.33 22.89c18.53,-4.65 96.59,-41.6 70.05,-45.36 -81.34,-4.47 -162.64,-10.08 -240.76,-14.64 18.14,-11.66 40.5,-32.7 63.3,-34.95l514.16 23.36c21.5,-0.06 38.98,12.45 21.25,28.91 -30.89,22.59 -122.68,96.62 -154.17,105.99l-1652.02 -98.37c-70.61,-6.71 -122.77,-4.86 -185.81,-38.73 -61.92,-32.85 -159.8,-100.81 -74.01,-156.64zm4392.98 529.43c151.09,-145.36 302.21,-290.76 453.3,-436.11 136.69,6.31 273.39,12.6 410.08,18.92l-445.96 438.63c-139.14,-7.14 -278.27,-14.3 -417.42,-21.44zm3024.44 137.07c-143.69,-4.58 -287.37,-9.16 -431.03,-13.74 1.95,-104.03 43.77,-263.7 56.25,-368.55 -106.24,66.04 -297.56,146.66 -421.15,191.75 91.38,2.76 244.8,4.93 336.15,7.72 -42.78,47.06 -76.9,81.78 -108.27,110.73 -182.54,-7.36 -328.21,-13.28 -510.74,-20.64 -33.5,14.88 -67,29.77 -100.49,44.65 -106.97,-5 -213.92,-10.01 -320.89,-15.02 204.1,-75.32 408.17,-150.62 612.26,-225.95 628.7,-241.51 267.54,-179.51 940.82,-155.85 0,0 -52.93,444.89 -52.93,444.89zm1100.93 -174.53c84.12,-74.41 168.2,-148.78 252.33,-223.19 184.27,8.57 368.56,17.17 552.82,25.74 -98.59,46.25 -197.17,92.5 -295.78,138.75 -103.83,97.37 -207.66,194.71 -311.48,292.08 -100.22,-7.52 -200.18,-14.65 -297.7,-17.84 0,0 -60.12,-124.2 -180.31,-324.53 -105.74,101.88 -211.44,203.76 -317.15,305.63 -141.03,-6.29 -282.06,-12.56 -423.09,-18.84 150.35,-142.32 300.71,-284.66 451.07,-426.98 135.6,5.27 271.22,10.55 406.83,15.83 54.16,77.79 108.3,155.56 162.46,233.35zm-4833.63 -333.1c-238.29,-14.5 -475.65,-38.59 -714.82,-43.51 128.23,-37.61 256.49,-75.24 384.72,-112.85 458.9,29.5 917.78,59.03 1376.68,88.53 -44.89,42.79 -89.78,85.57 -134.66,128.36 -154.14,-7.39 -308.27,-14.79 -462.41,-22.18 -106.95,100.31 -213.87,200.65 -320.82,300.96 -143.78,-9.59 -287.57,-19.18 -431.35,-28.76 100.89,-103.53 201.75,-207.03 302.65,-310.55z"/>
   </g>
  </svg>
  