<?xml version="1.0" encoding="UTF-8"?>
  <!DOCTYPE svg PUBLIC "-//W3C//DTD SVG 1.1//EN" "http://www.w3.org/Graphics/SVG/1.1/DTD/svg11.dtd">
  <!-- Creator: CorelDRAW 2020 (64 Bit) -->
  <svg xmlns="http://www.w3.org/2000/svg" xml:space="preserve" width="714.681mm" height="356.344mm" version="1.1" style="shape-rendering:geometricPrecision; text-rendering:geometricPrecision; image-rendering:optimizeQuality; fill-rule:evenodd; clip-rule:evenodd"
  viewBox="0 0 107869.88 53784.51"
   xmlns:xlink="http://www.w3.org/1999/xlink"
   xmlns:xodm="http://www.corel.com/coreldraw/odm/2003">
   <defs>
    <style type="text/css">
     <![CDATA[
      .fil2 {fill:#d9d9d9}
      .fil1 {fill:#000000}
      .fil0 {fill:#ff0000}
     ]]>
    </style>
   </defs>
   <g id="Camada_x0020_1">
    <metadata id="CorelCorpID_0Corel-Layer"/>
    <path class="fil0" d="M94391.77 23425c198.84,-3113.05 397.67,-6226.11 544.66,-10004.08 146.98,-3777.93 242.08,-8220.77 287.74,-10441.48 45.66,-2220.71 41.87,-2219.29 104.7,-2357.07 62.85,-137.74 192.34,-414.71 259.62,-553.17 67.3,-138.45 72.37,-138.45 88.07,669.6 65.58,3374.27 132.51,11464.86 115.86,15328.24 -11.88,2754.28 -65.28,3996.03 -192.89,4805.13 -127.6,809.11 -329.38,1185.6 -543.05,1538.99 -213.65,353.35 -439.19,683.6 -664.71,1013.84z"/>
    <path class="fil1" d="M94560.94 16668.38c-100.88,1621.53 -281.92,4408.84 -372.42,5802.49 -90.52,1393.65 -90.52,1393.65 -942.18,2473.57 -851.66,1079.92 -2554.99,3239.76 -3417.05,4327.94 -862.05,1088.16 -882.81,1104.69 -787.86,572.98 94.97,-531.7 305.64,-1611.62 522.26,-2742.73 216.64,-1131.09 439.2,-2313.4 550.47,-2904.55 111.28,-591.13 111.28,-591.13 378.36,-1283 267.06,-691.88 801.2,-2075.62 1068.28,-2769.15 267.08,-693.54 267.08,-696.83 287.85,-9.92 20.78,686.92 62.32,2064.07 83.09,2752.63 20.78,688.58 20.78,688.58 108.33,445.84 87.54,-242.75 262.61,-728.2 350.15,-970.93 87.54,-242.75 87.54,-242.75 232.97,-1263.23 145.39,-1020.47 436.2,-3061.4 795.27,-6311.06 359.06,-3249.66 786.38,-7708.03 1000.03,-9943.82 213.66,-2235.8 213.66,-2249 293.78,-2528.04 80.12,-279.06 240.38,-824 319,-908.2 78.64,-84.22 75.68,292.27 43.03,1514.19 -32.63,1221.93 -94.95,3289.28 -161.73,5298.85 -66.77,2009.58 -137.97,3961.36 -183.99,5165.12 -45.97,1203.76 -66.76,1659.51 -167.66,3281.02z"/>
    <path class="fil0" d="M102481.18 23425c-198.84,-3113.05 -397.67,-6226.11 -544.65,-10004.08 -146.99,-3777.93 -242.1,-8220.77 -287.76,-10441.48 -45.66,-2220.71 -41.85,-2219.29 -104.7,-2357.07 -62.85,-137.74 -192.34,-414.71 -259.62,-553.17 -67.3,-138.45 -72.37,-138.45 -88.07,669.6 -65.58,3374.27 -132.51,11464.86 -115.86,15328.24 11.88,2754.28 65.29,3996.03 192.89,4805.13 127.61,809.11 329.38,1185.6 543.05,1538.99 213.65,353.35 439.19,683.6 664.71,1013.84z"/>
    <path class="fil1" d="M102312.01 16668.38c100.88,1621.53 281.92,4408.84 372.42,5802.49 90.52,1393.65 90.52,1393.65 942.18,2473.57 851.66,1079.92 2554.99,3239.76 3417.05,4327.94 862.05,1088.16 882.81,1104.69 787.86,572.98 -94.97,-531.7 -305.64,-1611.62 -522.26,-2742.73 -216.62,-1131.09 -439.2,-2313.4 -550.47,-2904.55 -111.28,-591.13 -111.28,-591.13 -378.36,-1283 -267.06,-691.88 -801.2,-2075.62 -1068.28,-2769.15 -267.08,-693.54 -267.08,-696.83 -287.83,-9.92 -20.8,686.92 -62.34,2064.07 -83.1,2752.63 -20.78,688.58 -20.78,688.58 -108.31,445.84 -87.56,-242.75 -262.63,-728.2 -350.17,-970.93 -87.54,-242.75 -87.54,-242.75 -232.95,-1263.23 -145.41,-1020.47 -436.22,-3061.4 -795.27,-6311.06 -359.07,-3249.66 -786.4,-7708.03 -1000.05,-9943.82 -213.66,-2235.8 -213.66,-2249 -293.78,-2528.04 -80.12,-279.06 -240.38,-824 -319,-908.2 -78.64,-84.22 -75.68,292.27 -43.03,1514.19 32.63,1221.93 94.95,3289.28 161.73,5298.85 66.77,2009.58 137.98,3961.36 183.99,5165.12 45.97,1203.76 66.76,1659.51 167.66,3281.02z"/>
    <path class="fil1" d="M-0 5588.98l60.77 42.35c460.55,549.55 970.22,1044.71 1520.6,1477.03l2554.06 36634.98 -939.07 -633.58 -3196.37 -37520.78zm13522.87 1564.51l-2338.2 36578.38 885.29 -597.31 3023.47 -37495.02c-474.69,565.26 -1000.98,1073.4 -1570.56,1513.95z"/>
    <path class="fil0" d="M3275.14 21336.13c-402.03,-6065.85 -599.69,-9925.24 -797.37,-13784.62 642.04,371.31 1284.1,742.6 2317.19,1044.71 1033.12,302.11 2457.27,535.03 3754.96,453.97 1297.69,-81.07 2468.91,-476.12 3228.76,-776.66 759.85,-300.54 1108.34,-506.58 1456.85,-712.64 -234.67,3978.7 -661.97,11289.9 -1105.91,18340.48 -381.86,6064.27 -783.56,12054.77 -1185.24,18045.25 -1002.19,798.22 -2004.36,1596.4 -3006.55,2394.62 -1015.97,-798.22 -2031.97,-1596.4 -3047.94,-2394.62 -606.36,-8272.32 -1212.71,-16544.65 -1614.74,-22610.48z"/>
    <path class="fil2" d="M8327.89 13467.44c17.8,0 94.5,-126.03 106.98,-148.11 -7.85,-6.02 -1292.56,1.46 -1414.19,3.03 -19.35,3.08 -37.57,10.49 -52.9,21.81 -103.27,76.39 -340.58,482.01 -295.39,593.9 5.86,14.52 43.88,60.81 55.12,69.2 60.8,2.1 999.05,1.25 1178.83,0.97 47.03,-4.08 153.17,-64.52 186,-116.94 51.98,-82.97 226.55,-299.56 48.04,-317.9l-912.64 -13.7c-0.02,-0.11 30.78,-99.22 126.08,-99.06l974.08 6.81zm-4157.05 -1979.1c-218.54,176.53 -437.03,353.04 -566.83,475.67 -129.79,122.63 -170.81,191.41 -58.67,323.84 112.13,132.44 377.46,328.54 642.77,524.66 2409.03,10.08 4818.02,20.13 7227.05,30.22 232.62,-203.13 465.21,-406.27 580.86,-518.87 115.68,-112.6 114.36,-134.66 111.99,-174.39 -10.57,-178.42 -34.52,-147.34 -512.26,-146.3 -383.37,0.83 -1090.33,-1.22 -1797.28,-3.32 -112.17,108.9 -224.32,217.84 -277.64,273.31 -53.29,55.44 -47.68,57.52 116.49,59.57 164.2,2.04 486.97,4.09 809.75,6.17 -43.97,41.43 -184.2,147.93 -229.45,160.07 -356.39,0 -712.73,0 -1069.11,0 -115.69,-92.34 -231.37,-184.71 -291.09,-240.12 -87.12,-80.86 -85.13,-107.33 5.6,-185.74 65.31,-56.42 192.17,-150.81 319.06,-245.21 861.96,-0.3 1723.97,-0.62 2585.94,-0.92 -125.73,-112.37 -251.43,-224.73 -377.15,-337.1 -1107.63,1.01 -2215.25,2.05 -3322.88,3.06 -228.12,199.04 -456.21,398.04 -570.95,511.7 -142.8,141.43 -142.96,152.81 38.93,329.32 55.53,53.87 116.13,108.96 176.74,164.07 -834.89,4.42 -1669.85,8.83 -2504.75,13.25 -123.15,-104.66 -246.28,-209.35 -303.2,-272.95 -56.92,-63.63 -47.56,-86.21 19.58,-148.81 67.18,-62.59 192.2,-165.2 317.2,-267.8 738.33,2.04 1476.64,4.05 2214.95,6.08 118.02,-108.78 236.02,-217.57 354.05,-326.35 -1213.21,-4.38 -2426.48,-8.74 -3639.67,-13.13zm2229.5 2521.03c6.61,-2.02 332.48,-679.57 332.48,-684.91 -97.17,-17.86 -560.21,-5.33 -697.01,-5.99 -20.89,0 -41.88,-6.13 -51.62,11.64 -13.16,24.01 -83.38,116.39 -69.91,129.55 4.35,4.24 165.98,5.64 190.86,4.2 0.24,15.4 -218.66,491.58 -243,545.36l538.22 0.17zm2347.96 -169.44c-11.34,-68.04 147.55,-330.74 149.65,-332.93 12.24,-12.62 28.47,-23.68 44.9,-29.63 68.61,-24.8 500.35,-18.9 558.73,-2.81 24.45,6.75 25.02,20.66 27.47,35.38 -20.36,32.28 -99.81,274.66 -175.54,352.93l-550.68 5.39c-19.61,0.36 -50.32,-2.94 -54.53,-28.33zm1254.7 -450.45c-9.22,-19.95 -23.62,-37.78 -42.02,-46.83 -81.2,-39.92 -1234.87,-20.01 -1341.78,-10.85 -20.62,4.66 -45.58,9.4 -62.26,22.43 -67.23,52.59 -265.92,457.12 -252.12,539.26 20.86,124.25 137.15,107.75 221.47,109.5l1031.26 -3.94c87.27,-1.16 131.93,-23.53 190.12,-73.26 61.52,-73.63 247.97,-436.94 255.34,-536.3zm-2899.25 430.96c0,30.02 17.16,34.43 39.51,35.98l519.76 -1.15c68.69,-17.66 107.72,-149.14 91.22,-156.07 -42.02,-5.45 -519.27,-1.46 -586.92,-2.01 -31.47,-0.08 -63.57,123.22 -63.57,123.24z"/>
    <path class="fil1" d="M58581.17 24406.65c-2457.33,443.55 -5060.43,973.15 -7794.43,1605.16l-25974.92 -7711.26 12468.08 -356.16 21301.27 6462.27z"/>
    <path class="fil0" d="M84904.11 19266.66c-2.01,0.27 -45996.58,-3057.61 -45903.52,-3031.94 2076.45,573.6 26670.96,7175.19 26626.97,7181.32 -1969.63,273.92 -4049.97,602.57 -6215.35,993.4l-32123.34 -9745.34 44669.17 -53.88 -14282.84 1095.9 22636.81 1423.43 6234.25 877.71 -1642.13 1259.4z"/>
    <polygon class="fil2" points="40685.94,16530.88 84448.14,19478.87 80220.11,21758.66 66892.78,23230.96 "/>
    <path class="fil1" d="M27911.61 41723.22l0.39 37.52c1.22,121.38 224.3,302.7 303.08,353.46l2392.79 -629.59c-14.19,-20.83 -56.86,-62.82 -56.96,-74.77 -1.68,-161.67 353.96,-190.24 488.98,-223.59 562.59,-139.03 1164.1,-318.23 1719.14,-459.25 772.93,-196.34 1526.81,-411.58 2291.33,-600.76 765.18,-189.36 1519.3,-397.91 2295.62,-596.6 508.33,-130.14 599.42,-214.61 863.59,-578.55 135.89,-187.14 481.74,-666.81 534.28,-903.33 -179.42,4.91 -2343.84,752.15 -2753.63,869.29 -455.93,130.27 -919.34,281.61 -1367.86,434.16 -463.35,157.53 -913.5,285.55 -1377.44,443.31 -915.97,311.53 -1831.69,565.93 -2745.95,876.87 -465.53,158.31 -918.36,280.48 -1382.38,438.46 -315.62,107.44 -1208.59,259.88 -1204.98,613.37zm17030.04 3611.59c-2.34,-228.36 250.05,-414.04 483.04,-415.22l131.16 -0.63c190.66,-0.94 433.5,239.5 435.64,448.14l0.38 37.55c2.52,245.34 -243.47,451.54 -501.4,452.83l-56.18 0.29c-244.11,1.21 -489.21,-188.61 -491.7,-429.12l-0.94 -93.84zm758.81 896.91c514.82,-2.61 990.67,-254.64 985.36,-774.25l-1.34 -131.36c-5.98,-587.56 -552.54,-766.58 -1150.99,-763.56l-187.4 0.91c-576.06,2.88 -1160.28,163.3 -1154.62,718.81l2.11 206.39c5.57,544.6 508.21,748.02 1057.13,745.3l449.75 -2.23zm5216 -1245.69l412.28 -2.05c241.99,-1.22 469.63,108.73 472.17,354.17l0.94 93.84c2.16,211.46 -112.72,375.83 -333.49,376.9l-543.45 2.76 -8.44 -825.61zm-1011.97 5.06l299.86 -1.49 8.41 825.57 -299.83 1.46 3.44 337.78 1686.63 -8.42c477.96,-2.38 859.77,-225.21 855.12,-679.76l-1.92 -187.61c-4.42,-434.95 -322.73,-655.15 -756.3,-652.97l-1799.03 8.98 3.62 356.48zm3987.8 -59.79l156.78 282.76 -346.02 -3.59 189.24 -279.17zm-483.2 61.05c-52.74,102 -485.9,828.07 -553.78,828.4l-318.58 1.57 3.44 337.73 1161.86 -5.78 -3.43 -337.75 -318.56 1.6c11.65,-52.54 115.4,-225.74 166.36,-225.98l730.84 -3.68 122.79 219.73 -326.62 6.49 3.46 337.73 1442.98 -7.21 -3.44 -337.73 -318.58 1.58 -694.78 -1192.82 -1435.1 2.57 3.82 375.27 337.32 -1.72zm-10282.75 595.45l2.32 225.15 -356.08 1.77 3.47 337.75 1349.28 -6.73 -3.46 -337.72 -318.59 1.57 -8.44 -825.58 318.61 -1.57 -3.83 -375.25 -1368.02 6.81 3.82 375.27 374.82 -1.89 2.88 281.45 -937 4.68 -2.9 -281.45 337.32 -1.65 -3.82 -375.3 -1368.04 6.82 3.85 375.25 281.08 -1.39 8.44 825.6 -281.08 1.37 3.43 337.73 1349.28 -6.72 -3.43 -337.75 -299.85 1.51 -2.29 -225.18 918.24 -4.56zm3993.74 186.48l-337.13 20.47 3.83 375.27 1086.91 -5.45 -3.82 -373.59 -262.54 -19.12 -5.95 -581.66c94.85,107.53 779.21,990.6 834.7,990.33l974.51 -4.84 -12.07 -1182.07 356.04 -1.78 -4 -394.04 -1105.67 5.54 4.01 394.03 281.13 -1.4 3.43 337.73 24.19 243.5c-147.27,-95.04 -760.48,-971.61 -856.22,-971.16l-1330.55 6.64 3.82 375.25 337.34 -1.69 8.03 788.06zm4073.7 -1610.62l-4558.47 18.1c212.33,-187.51 1145.97,-715.75 1519.21,-972.15 189.5,-130.18 442,-16.32 701.53,-15.27 188.25,0.74 554.8,61.16 735.03,86.86 445.68,63.6 1061.69,85.14 1485.72,157.94 167.19,28.69 597.68,76.27 747.64,83.42l-630.66 641.11zm2741.68 -2682.78c-2.97,-291.03 -423.45,-370.98 -649.36,-458.36 -269.43,-104.22 -548.03,-165.11 -814.06,-271.97 -503.44,-202.24 -1103.33,-364.9 -1630.41,-541.66 -1090.3,-365.62 -2188.11,-719.17 -3267.49,-1095.44 -1082.76,-377.43 -2173.3,-737.95 -3267.05,-1095.83 -470.48,-153.92 -1204.76,-366.71 -1620.29,-570.86 -184.09,-90.45 -742.29,-1151.49 -745.25,-1441.45l-0.6 -56.3c131.55,10.29 1415.45,533.64 1642.59,624.08 547.56,217.99 1090.39,417.53 1631.18,635.63 1083.44,436.89 2177.32,831.01 3268.17,1265.3 1091.41,434.51 2175.02,832.37 3266.58,1266.96 547.89,218.16 1092.22,422.4 1633.82,632.97 504.91,196.29 1182.19,402.56 1189.15,1084.99 4.75,460.15 -191.7,585.7 -436.64,832.42 -202.07,203.53 -389.11,414.57 -593.32,622.21 -278.43,283 -943.07,1058.12 -1210.18,1239.79l-824.55 4.12c117.49,-179.02 460.98,-457.54 626.15,-626.97 211.38,-216.97 420.88,-408.93 630.81,-622.39 211.93,-215.53 421.02,-409.08 630.83,-622.36 106.53,-108.33 199.47,-202.9 305.99,-311.21 200.59,-203.96 237.46,-144.81 233.95,-493.68zm-5364.61 1377.76c-1.16,-115.54 -875.72,-164.97 -1024.83,-190.42 -359.18,-61.26 -702.93,-85.05 -1066.77,-147.72 -376.6,-64.93 -576.48,-204.71 -807.12,-411.78 -151.81,-136.34 -508.86,-441.94 -563.8,-640.1l7453.17 1276.56c-14.67,57.19 -592.27,603.28 -593.52,603.15l-3433.47 -355.9c14.79,-67.88 37.05,-65.64 36.34,-133.79zm1323.27 -719.65c126.81,-271.02 -499.12,-266.26 -685.82,-307.53 -256.41,-56.69 -617.96,-124.51 -872.4,-155.81 -285.19,-35.09 -586.68,-118.02 -867.74,-160.55 -282.1,-42.74 -593.81,-93.58 -872.45,-155.75 -466.85,-104.16 -1355.84,-179.45 -1710.95,-345.99 -323,-151.48 -321.51,-253.84 -522.37,-511.61 -116.88,-150.01 -349.29,-450.19 -432.06,-603.48l9317.55 2207.43 -533.61 530.04 -2820.16 -496.75zm3798.88 -544.31l0.38 37.55c1.24,121.37 -218.08,304.86 -295.83,356.42l-2405.42 -605.67c13.78,-20.96 55.59,-63.38 55.44,-75.35 -1.65,-161.65 -357.8,-186.66 -493.49,-218.69 -565.69,-133.52 -1170.25,-306.53 -1728.33,-442.04 -776.89,-188.62 -1535.05,-396.32 -2303.38,-577.88 -768.98,-181.72 -1527.27,-382.68 -2307.56,-573.64 -510.96,-125.06 -603.77,-208.58 -875.36,-569.84 -139.66,-185.77 -495.28,-661.94 -552.65,-897.91 179.42,3.11 2359.34,728.79 2771.14,841.7 458.51,125.74 924.99,272.42 1376.58,420.47 466.48,152.91 919.2,276.45 1386.3,429.57 922.28,302.35 1843.1,547.57 2763.62,849.37 468.7,153.67 923.99,271.29 1391.18,424.64 317.75,104.3 1213.77,247.8 1217.39,601.29zm-23719.7 3814.79c-2.35,-228.39 250.07,-414.06 483.04,-415.24l131.15 -0.65c190.68,-0.94 433.48,239.49 435.66,448.17l0.38 37.52c2.48,245.34 -243.47,451.54 -501.42,452.85l-56.19 0.27c-244.09,1.19 -489.19,-188.59 -491.67,-429.12l-0.94 -93.81zm758.79 896.85c514.84,-2.55 990.67,-254.58 985.36,-774.23l-1.33 -131.31c-5.99,-587.6 -552.56,-766.57 -1151.02,-763.61l-187.38 0.95c-576.06,2.87 -1160.26,163.3 -1154.6,718.79l2.11 206.36c5.55,544.62 508.21,748.06 1057.1,745.3l449.77 -2.25zm5216.02 -1245.63l412.28 -2.07c241.99,-1.22 469.63,108.75 472.15,354.15l0.94 93.82c2.17,211.46 -112.73,375.83 -333.46,376.96l-543.47 2.7 -8.44 -825.57zm-1011.98 5.01l299.86 -1.48 8.44 825.57 -299.85 1.51 3.44 337.76 1686.62 -8.47c477.98,-2.35 859.78,-225.18 855.13,-679.76l-1.92 -187.6c-4.44,-434.95 -322.73,-655.16 -756.3,-652.97l-1799.05 8.97 3.62 356.48zm3987.82 -59.75l156.76 282.73 -346 -3.56 189.24 -279.17zm-483.2 61.07c-52.74,102 -485.9,828.06 -553.78,828.4l-318.59 1.57 3.46 337.72 1161.86 -5.77 -3.43 -337.75 -318.58 1.57c11.65,-52.48 115.39,-225.74 166.36,-225.98l730.82 -3.67 122.82 219.73 -326.62 6.46 3.43 337.75 1443.01 -7.2 -3.46 -337.72 -318.58 1.57 -694.78 -1192.83 -1435.1 2.57 3.82 375.25 337.34 -1.68zm-10282.73 595.42l2.29 225.16 -356.07 1.77 3.46 337.73 1349.28 -6.73 -3.46 -337.73 -318.58 1.61 -8.42 -825.6 318.58 -1.58 -3.85 -375.25 -1367.99 6.81 3.8 375.28 374.82 -1.9 2.88 281.46 -937.02 4.68 -2.88 -281.43 337.32 -1.69 -3.82 -375.27 -1368.04 6.82 3.85 375.27 281.12 -1.42 8.41 825.58 -281.08 1.39 3.43 337.75 1349.29 -6.72 -3.44 -337.76 -299.86 1.49 -2.28 -225.15 918.27 -4.57zm3993.71 186.48l-337.13 20.45 3.83 375.25 1086.92 -5.4 -3.83 -373.64 -262.54 -19.09 -5.95 -581.64c94.83,107.5 779.23,990.61 834.74,990.34l974.46 -4.89 -12.07 -1182.07 356.05 -1.75 -4 -394 -1105.67 5.49 4 394 281.13 -1.37 3.44 337.73 24.18 243.47c-147.27,-95.03 -760.47,-971.59 -856.2,-971.11l-1330.55 6.63 3.82 375.24 337.32 -1.69 8.03 788.06zm-1688.71 -1581.88l4558.43 -27.33c-216.47,-185.65 -1160.61,-704.33 -1538.96,-956.92 -192.12,-128.25 -442.27,-11.92 -701.72,-8.3 -188.23,2.64 -553.54,66.7 -733.22,94.21 -443.76,67.94 -1060.8,95.83 -1482.33,172.7 -166.6,30.41 -596.07,82.27 -745.84,90.89l643.64 634.75zm-2796.15 -2655.16c-2.99,-291.06 415.82,-375.21 639.93,-464.79 267.29,-106.89 544.6,-170.56 808.42,-280.09 499.26,-207.22 1095.8,-375.83 1619.18,-557.84 1082.74,-376.45 2173.2,-740.89 3244.76,-1127.89 1074.95,-388.23 2158.03,-759.58 3244.36,-1128.31 467.28,-158.59 1197.17,-378.69 1608.48,-586.95 182.22,-92.31 718.72,-1158.78 715.76,-1448.76l-0.59 -56.28c-131.3,11.58 -1404.38,547.68 -1629.64,640.37 -543.06,223.44 -1081.78,428.38 -1618.05,651.82 -1074.4,447.69 -2160.13,852.67 -3242.01,1297.82 -1082.4,445.35 -2157.79,853.94 -3240.38,1299.38 -543.36,223.58 -1083.47,433.23 -1620.72,649.17 -500.88,201.33 -1173.83,414.36 -1166.87,1096.76 4.72,460.26 203.76,583.86 453.6,827.98 206.19,201.48 397.55,410.65 606,616.22 284.13,280.19 964.56,1048.6 1235.34,1227.61l824.58 -4.12c-121.17,-177.8 -470.31,-452.86 -638.89,-620.67 -215.82,-214.78 -429.23,-404.67 -643.46,-616.01 -216.35,-213.41 -429.35,-404.82 -643.49,-616.02 -108.75,-107.21 -203.6,-200.86 -312.31,-308.1 -204.77,-201.98 -240.39,-142.42 -244,-491.31zm5392.17 1324.1c-1.16,-115.56 872.26,-173.68 1020.84,-200.56 357.9,-64.87 701.15,-92.09 1063.65,-158.41 375.25,-68.64 572.25,-210.43 798.62,-419.75 149.03,-137.86 499.8,-446.96 550.7,-645.68l-7426.36 1350.76c15.86,57.02 604.54,597.32 605.77,597.17l3425.88 -390.09c-16.2,-67.69 -38.38,-65.26 -39.11,-133.44zm-1337.82 -706.34c-132.32,-269.7 493.65,-271.24 679.48,-314.37 255.23,-59.26 615.34,-130.63 869.12,-164.47 284.45,-37.94 584.22,-123.84 864.37,-169.18 281.19,-45.55 591.84,-99.48 869.17,-164.41 464.7,-108.85 1352.05,-193 1703.69,-363.06 319.88,-154.66 316.31,-257.01 511.89,-516.77 113.8,-151.13 340.07,-453.63 419.69,-607.68l-9271.52 2300.04 544.37 524.66 2809.73 -524.77z"/>
    <path class="fil0" d="M17183.64 45729.83l869.44 -32989.22 -2954.73 33107.86 2085.29 -118.63zm6835.45 -280.15l-2230.17 -39766.05c-1937.68,2303.57 -3202.67,6756.32 -3441.11,14488.38l-384.6 25479.23c1712.06,-37.96 3874.03,-229.93 6055.88,-201.56z"/>
    <path class="fil1" d="M22946.81 43301.16c-141.3,-2276.63 -261.86,-4350.15 -384.67,-6631.39 -738.79,-1295 -1266.93,-1132.91 -1880.87,224.79 141.02,2334.92 287.33,4666.16 440.5,7000.29 1011.94,1333.19 1309.7,921.82 1825.04,-593.68zm-283.95 -118.79c-127.71,-2099.36 -261.27,-4227.08 -374.82,-6330.77 -629.73,-1405.65 -1236.12,-343.8 -1263.12,394.45 119.15,2151.3 242.97,4305.7 370.98,6456.41 747.2,1005.49 827.06,807.48 1266.96,-520.09zm-550.52 -5872.4c43.64,970.84 88.34,1944.88 134.63,2915.64 -56.43,-77.05 -113.77,-154.09 -168.23,-224.61 -36.15,-645.85 -68.64,-1288.62 -102.06,-1931.31 -69.07,-112.75 -137.35,-228.82 -206.39,-341.59 -101.43,-184 -308.24,196.98 -291.61,304.87 34.07,691.91 69.99,1387.09 105.04,2082.29 49.23,-67.27 99.39,-134.56 147.04,-198.43 50.13,-37.73 108.28,-19.89 141.38,18.5 192.23,342.03 377.65,523.33 390.83,716.73 41.57,875.65 82.67,1642.69 128.67,2518.17 -52.31,83.83 -99.5,282.52 -153.44,369.64 -42.19,-698.27 -85.34,-1396.47 -127.54,-2094.74 -66.61,-119.42 -133.15,-235.53 -200.53,-351.63 -73.05,-111.86 -130.21,42.77 -246.43,191.78 -47.79,57.37 -57.85,386.11 2.85,939.26 15.56,101.32 94.35,213.78 182.98,329.2 -12.75,-265.6 -23.61,-528.03 -34.59,-793.73 52.83,73.85 105.59,147.69 159.18,218.27 30.59,609.94 61.99,1216.56 94.33,1826.47 -0.12,108.42 -34.1,125.88 -92.1,84.99 -191.45,-204.11 -417.06,-564.77 -432.68,-695.67 -94.95,-2016.97 -187.31,-4033.96 -274.32,-6051.11 25.98,-243.86 103.81,-331.77 240.63,-516.77 127.6,-168.23 207.26,-141.21 286.93,0.78 105.93,213.44 272.68,447.88 315.44,682.99zm-577.73 -19517.96l-513.43 -913.91 -69.99 -1462.02 -1354.44 -1053.66 -102.3 -1732.38 1350 1057.93 -138.86 -2622.42 530.13 1511.82 298.9 5214.64zm406.38 7178.28l-510.05 -797.27 -74.91 -1511.32 -1328.86 -1041.17 -99.59 -1682.65 1345.75 1067.59 -105.04 -2091.66 -1365.31 -1077.82 -99.15 -1678.48 1332.55 1049.96 512.92 874.97 67.53 1191.94 -153.21 -132.1 180.83 616.04 296.53 5211.97zm11.85 208.02l134.94 2369.88 -1414.19 -16.41 1482.94 1223.94 98.54 1691.34 -1089.01 695.97 1176.94 887.09 160.82 2823.77 -522.47 -1492.15 -1323.45 -1022.31 -94.06 -1689.15 1114.77 -722.28 -1213.75 -941.89 -174.54 -2937.45 509.69 62.62 -249.43 -448.24 -30.47 -1153.45 -349.31 -472.33 -104.05 -1751c457.98,694.27 1428.09,2197.8 1886.11,2892.07zm-278.4 998.4l-688.34 -65.93 -53.2 -967.99 741.54 1033.91z"/>
    <path class="fil0" d="M52514.82 35465.6l31562.41 -8858.5 -31170.44 10924.76 -391.98 -2066.26zm-1389.67 -6746.67l38842.03 -7475.23c-1748.29,2452.49 -5729.81,4769.48 -13119.06,6879.62l-24446.87 6561.52c-379.15,-1682 -719.1,-3841.01 -1276.1,-5965.9z"/>
    <path class="fil1" d="M59535.37 28074.79c-2221.98,441.57 -4246.73,835.59 -6475.62,1259.31 -1177,908.52 -947.75,1414.44 469.47,1848.18 2279.33,-448.97 4554.34,-902.75 6831.3,-1363.75 1178.51,-1186.27 734.37,-1429.27 -825.14,-1743.73zm-79.47 299.15c-2049.25,404.59 -4125.65,818.77 -6181.03,1209.81 -1300.27,814.25 -175.2,1279.52 554.91,1209.04 2101.49,-402.9 4205.44,-810.89 6305.23,-1222.58 890.95,-878.71 685.5,-932.26 -679.11,-1196.27zm-5706.73 1324.74c949.71,-171.7 1902.44,-344.88 2851.66,-519.23 -68.36,66.49 -136.61,133.91 -198.8,197.6 -630.91,121.34 -1259.18,238.63 -1887.27,356.79 -101.87,83.83 -207.05,167.33 -308.93,251.14 -167.72,125.58 234.54,281.75 338.52,250.9 676.46,-125.37 1355.89,-252.98 2035.42,-379.69 -72.67,-40.33 -145.52,-81.47 -214.66,-120.61 -43.79,-45.07 -33.88,-105.49 -0.48,-143.61 311.24,-237.04 465.22,-446.12 653.8,-484.79 856.3,-157.09 1605.79,-299.35 2461.33,-460.86 89.4,41.21 291.18,62.05 384.04,104.42 -681.62,134.33 -1363.09,269.52 -2044.75,403.81 -108.72,82.29 -214.22,164.02 -319.57,246.64 -100.42,87.68 58.95,124.17 221.24,220.71 62.76,40.13 387.66,6.79 924.03,-126.81 97.67,-28.9 197.92,-122.41 299.85,-226.14 -259.74,47.79 -516.59,93.26 -776.59,139.28 65.69,-62.46 131.42,-124.88 193.78,-187.69 596.24,-111.07 1189.11,-222.46 1785.07,-335.27 106.73,-14.17 128.41,17.45 95.84,80.72 -175.63,218.1 -500.8,490.94 -627.55,523.83 -1972.48,361.02 -3945.36,719.44 -5919.08,1072.54 -243.44,6.28 -340.22,-59.85 -540.34,-172.05 -182.4,-105.16 -166.34,-188.26 -37.1,-286.55 196.05,-133.92 404.81,-331.33 630.54,-405.08zm14546.67 -3328.7l-831.66 633.18 -1429.65 262.87 -858.18 1491.35 -1691.48 330.8 863 -1487.49 -2562.55 484.77 1417.91 -728.83 5092.61 -986.66zm7010.99 -1353.19l-717.33 614.45 -1477.5 274.28 -849.28 1464.14 -1642.87 321.51 873.05 -1484.48 -2044.68 380.93 -880.49 1505.34 -1638.83 320.57 857.4 -1469.01 793.42 -627.57 1164.17 -224.73 -109.79 170.4 582.43 -261.86 5090.3 -983.97zm203.17 -39.29l2314.53 -447.54 170.53 1414.12 1008.83 -1642.13 1651.54 -321.58 828.7 995.38 717.69 -1292.15 2757.84 -533.24 -1399.57 718.55 -831.44 1456.26 -1650 316.84 -858 -1017.64 -766.76 1336.12 -2867.89 562 -5.63 -517.12 -408.26 308.16 -1131.15 182.66 -418.77 411.11 -1709.56 334.98c622.86,-548.87 1974.52,-1715.93 2597.35,-2264.8zm1019.3 146.16l25.98 695.96 -945.62 180.86 919.64 -876.82z"/>
    <path class="fil1" d="M52776.89 11930.48c2457.3,443.58 5060.42,973.15 7794.41,1605.17l25974.95 -7711.25 -12468.08 -356.17 -21301.28 6462.25z"/>
    <path class="fil0" d="M26453.94 6790.5c2.01,0.27 45996.58,-3057.64 45903.52,-3031.92 -2076.42,573.6 -26670.96,7175.19 -26626.97,7181.32 1969.63,273.92 4049.97,602.57 6215.38,993.4l32123.34 -9745.36 -44669.17 -53.87 14282.84 1095.9 -22636.81 1423.43 -6234.25 877.73 1642.1 1259.37z"/>
    <polygon class="fil2" points="70672.14,4054.71 26909.94,7002.73 31137.94,9282.52 44465.27,10754.78 "/>
    <path class="fil1" d="M90260.43 44683.31l-9904.55 -8943.64 11805.57 9257.89 -1901.02 -314.25zm2001.89 -4075.33c-263.26,343.41 -437.69,425.82 -697.59,296.04l-12239.55 -7040.93 14470.54 10316c759.4,322.55 1416.52,794.32 1715.26,-295.74l1561.88 -17036.92c154.48,-984.3 -364.07,-2562.77 -1189.24,-4772.74 129.85,1104.51 833.84,3064.07 437.23,4338.47l-4058.53 14195.82zm-3422.81 -1777.78l1456.18 -1305.46 490.69 363.78 -1074.7 963.44 237.96 176.46 -619.45 165.56 -490.69 -363.78zm-1247.68 -2582.44c-120.08,107.63 -249.48,211.46 -251.76,392.47 -1.46,116.51 61.73,217.92 159.07,289.37l1154.71 847.45c-134.8,112.36 -159.11,172.65 -301.33,67.2l-1368.64 -1014.72 -381.5 341.99 1491.29 1105.67c536.72,397.92 891.52,84.79 1302.73,-283.8 366.95,-328.93 664.64,-642.65 153.45,-1021.61l-986.25 -731.23c-371.22,-275.23 -624.26,-257.39 -971.78,7.21zm458 389.11c79.98,-71.71 148.73,-42.14 235.34,22.08l770.35 571.15c90.55,67.17 65.34,171.16 -51.45,247.61l-913.12 -680.82c-47.29,-35.26 -97.93,-109.08 -41.11,-160.02zm-2215.69 -34.94c536.72,397.91 891.45,84.79 1302.73,-283.82 366.97,-328.9 664.52,-642.68 153.45,-1021.61l-978.9 -725.8c-540.21,-400.44 -891.19,-89.17 -1305.19,282.02 -373.29,334.7 -662.33,644.32 -150.99,1023.43l978.9 725.78zm-477.21 -978.64c-113.65,-84.31 -79.12,-210.37 2.73,-283.73l344.28 -308.65c83.72,-75.07 236.7,-110.27 346.18,-29.05l745.83 552.96c96.55,71.54 73.05,199.73 -12.53,276.44l-344.28 308.63c-95.62,85.72 -233.43,112.69 -346.2,29.09l-736.02 -545.69z"/>
    <path class="fil0" d="M77021.04 32696.23l16537.76 12553.37 2832.6 399.36c700.23,52.03 961.99,-572.78 942.01,-1632.48l270.91 -17586.83c54.74,-661.68 -704.94,-2233.8 -1563.62,-4018.05 561.35,1639.13 1082.14,3133.94 1068.96,4028.53l-1513.04 16702.61c-92.43,443.4 142.77,2229.8 -1983.87,928.64l-15601.75 -11147.25 -989.98 -227.9zm11197.48 11531.17l-12034.73 -11697.72 391.87 102.17 3230.34 2611.3 10454.42 9440.17 -2041.9 -455.91z"/>
    <path class="fil1" d="M59953.39 44189.61l11561.14 6626.86 -12459.57 -8343.27 898.42 1716.41zm10226.66 2589.2l1432.22 -1332.09 497.19 354.68 -1056.99 983.13 241.13 172 -616.33 176.97 -497.22 -354.7zm-1294.41 -2558.99c-118.11,109.83 -245.59,216.02 -244.6,397.05 0.63,116.49 65.67,216.77 164.31,286.4l1169.92 826.02c-132.69,114.79 -155.93,175.55 -300.06,72.75l-1386.86 -989.34 -375.21 348.99 1511.15 1078.02c543.89,387.92 893.02,68.25 1297.36,-307.83 360.81,-335.59 652.85,-654.71 134.84,-1024.29l-999.37 -712.91c-376.32,-268.39 -628.84,-245.8 -971.49,25.15zm464.98 380.6c78.62,-73.17 147.9,-44.9 235.7,17.72l780.62 556.87c91.77,65.49 68.37,169.97 -46.96,248.48l-925.35 -663.85c-47.95,-34.4 -99.92,-107.33 -44.01,-159.22zm-2215.97 5.95c543.97,387.9 892.93,68.27 1297.36,-307.8 360.82,-335.53 652.84,-654.78 134.84,-1024.27l-991.91 -707.63c-547.47,-390.48 -892.78,-72.55 -1299.85,306.05 -367.1,341.41 -650.51,656.46 -132.37,1026.04l991.93 707.61zm-494.9 -969.68c-115.16,-82.21 -82.95,-208.85 -2.41,-283.76l338.58 -314.91c82.33,-76.58 234.69,-114.59 345.64,-35.45l755.74 539.11c97.91,69.87 76.57,198.46 -7.5,276.62l-338.62 314.97c-93.99,87.41 -231.37,116.94 -345.59,35.42l-745.83 -532zm-3483.28 -2651.09c-239.94,360.31 -262.23,553.07 -57.67,760.26l10509.52 9460.44 -14300.63 -10553.66c-544.42,-623.19 -1196.98,-1101.38 -265.18,-1732.24l15548.03 -6891.86c877.91,-459.55 2528.69,-464.52 4871.28,-376.67 -1081.28,226.04 -3149.62,174.6 -4223.97,957.39l-12081.38 8376.34z"/>
    <path class="fil0" d="M75437.38 53037.49l-17062.68 -11819.23 -1273.84 -2579.36c-270.91,-652.38 234.48,-1100.49 1238.67,-1417.29l16475.05 -5832.87c605.7,-262.01 2326.92,-34.62 4279.21,220.17 -1721.42,-16.77 -3294.1,-40.48 -4132.31,255.64l-15248.74 6739.25c-388.22,228.82 -2144.93,570.37 -245.65,2189.48l15441.89 11370.77 528.39 873.44zm-14407.51 -7041.85l14829.72 7788.87 -220.39 -341.94 -3482.84 -2258.23 -12202.96 -6994.73 1076.48 1806.03z"/>
   </g>
  </svg>
  