<?xml version="1.0" encoding="UTF-8"?>
  <!DOCTYPE svg PUBLIC "-//W3C//DTD SVG 1.1//EN" "http://www.w3.org/Graphics/SVG/1.1/DTD/svg11.dtd">
  <!-- Creator: CorelDRAW 2020 (64 Bit) -->
  <svg xmlns="http://www.w3.org/2000/svg" xml:space="preserve" width="178.798mm" height="110.901mm" version="1.1" style="shape-rendering:geometricPrecision; text-rendering:geometricPrecision; image-rendering:optimizeQuality; fill-rule:evenodd; clip-rule:evenodd"
  viewBox="0 0 3172.46 1967.75"
   xmlns:xlink="http://www.w3.org/1999/xlink"
   xmlns:xodm="http://www.corel.com/coreldraw/odm/2003">
   <defs>
    <style type="text/css">
     <![CDATA[
      .fil0 {fill:#000000}
      .fil1 {fill:#ff0000}
     ]]>
    </style>
   </defs>
   <g id="Camada_x0020_1">
    <metadata id="CorelCorpID_0Corel-Layer"/>
    <path class="fil0" d="M1593.03 527.95c12.05,-1.26 12.7,2.8 24.49,-4.31 7.68,-4.63 15.5,-8.8 22.92,-13.22 7.08,-4.22 40.96,-24.1 46.23,-24.21 -4.02,10 -3.35,21.07 7.32,28.55l9.16 6.42c6.22,4.36 42.51,-2.65 50.54,0.28 7.58,-2.94 187.3,-12.95 206.64,-12.49 28.21,0.67 73.52,-4.68 103.17,-7.13 27.96,-2.32 24.41,-2.89 49.87,-16.56 12.87,-6.92 36.62,-22.44 48.32,-25.35 -3.45,8.58 -2.66,21.55 6.01,27.63 26.18,18.34 88.68,4.56 119.18,-0.89 37.12,-6.64 77.07,-12.11 114.04,-17.06 18.82,-2.52 36.93,-5.22 55.72,-9.4 7.73,-1.72 44.08,-19.61 54.24,-24.31 18.08,-8.38 98.1,-43.1 107.79,-52.86l-293.56 35.24 24.49 -31.61c9.04,-12.26 19.41,-27.38 7.48,-35.74 -11.97,-8.39 -102.03,5.3 -120.43,6.83 -24.08,2.02 -89.7,31.22 -113.95,43.63 -3.92,-10.13 -1.85,-14.96 -14.52,-23.83 -28.73,-20.14 -83.55,-10.54 -117.54,-9.36 -27.81,0.97 -55.09,4.08 -82.85,5.2 -10.43,0.42 -16.43,9.97 -25.99,15.34 -2.42,-4.73 -1.95,-5.27 -7.33,-9.04 -7.69,-5.39 -88.86,-0.95 -100.78,1.12 -33.7,5.86 -64.36,20.05 -96.41,32.47 -2.64,-6.81 -2.26,-11.34 -11.12,-17.55 -23.47,-16.44 -185.45,-3.88 -224.15,-8.71l-213.18 -3.48 52.98 -20.56c-110.4,-27.98 -493.52,-67.26 -536.33,4.43 -8.81,12.57 -9.02,22.95 4.57,32.47 25.26,17.7 47.24,18.91 71.29,26.89 14.78,4.91 56.32,12.95 66.43,18.85l-389.41 -15.29 91.9 69.68c80.51,6.8 193,10.15 262.09,11.75 23.96,0.55 193.06,7.14 200.48,4.62 37.62,0.79 63.66,-4.54 85.51,-35.72 8.5,-12.13 -13.11,-32.18 -25.64,-41.38l68.21 2.89 -73.61 77.24c8.27,3.32 133.21,6.26 152.67,6.85 25.85,0.77 51.56,0.43 75.96,1.27 85.27,2.92 171.88,3.73 257.11,0.42zm-418.87 36.34l0.34 -12.45c-0.29,-4.4 -4.77,-6.34 -12.71,-6.25l0.26 -8.77 52.95 0.56 -0.27 8.75c-8.06,-0.3 -12.87,0.98 -12.92,4.59l-1.12 38.64c-0.02,6.19 5.31,6.24 12.83,6.32l-0.17 9.33 -52.97 -0.43 0.19 -9.41c9.19,0.86 13.47,-1.13 12.85,-5.96l0.42 -11.63 -40.18 -0.39 -0.3 12.66c-0.39,4.84 5.34,5.81 13.55,5.21l-0.21 9.36 -52.98 -0.52 0.21 -9.42c7.81,0.65 12.85,-0.67 12.97,-5.48l0.97 -38.21c0.16,-4.03 -3.79,-6.11 -12.7,-5.81l0.14 -8.88 52.23 0.61 -0.19 8.8c-8.48,-0.24 -12.82,1.62 -13.01,5.58l-0.24 12.84 40.07 0.33zm97.52 -29.11c61.14,0.59 63.38,46.89 37.45,63.73 -10.75,6.98 -24.54,9.62 -39.27,9.48 -25.32,-0.24 -53.6,-9.31 -52.91,-37.17 0.25,-10.27 4.67,-20.16 15.42,-27.11 10.75,-6.95 24.58,-9.08 39.31,-8.93zm0.1 12.38c-8.74,-0.08 -14.71,0.82 -19.6,6.81 -3.95,4.85 -4.76,10.47 -4.93,17.14 -0.17,6.72 0.3,11.95 3.96,16.78 4.55,6 10.67,7.04 19.49,7.12 8.74,0.08 14.44,-0.93 19.27,-6.86 3.91,-4.8 4.31,-10.2 4.47,-16.86 0.17,-6.66 -0.09,-11.44 -3.78,-16.39 -4.52,-6.06 -10.16,-7.65 -18.89,-7.74zm172.26 -7.97l-0.22 8.74c-8.06,-0.2 -12.65,1.23 -13.04,4.64l-1.26 54.18 -35.91 -0.29 -36.41 -50.24 -0.92 35.71c0.97,6.16 7.65,4.53 12.68,4.98l-0.03 9.26 -41.93 -0.39 0.23 -9.41c3.74,-0.69 11.48,1.45 12.96,-4.68l0.95 -38.73c0.2,-4.83 -4.97,-5.78 -12.82,-5.92l0.33 -8.92 49.43 0.48 35.66 48.87 0.86 -34.49c-0.34,-4.43 -5.23,-5.8 -12.66,-5.43l0.22 -8.76 41.89 0.42zm2.56 67.7l0.26 -9.37c7.99,0.55 13.92,-0.31 13.79,-5.3l0.99 -37.67c0.26,-5.14 -5.21,-6.55 -12.76,-6.6l0.26 -8.72c0,0 16.49,0.17 49.04,0.48 15.86,0.15 31.71,-0.21 43.01,6.25 20.67,11.8 20.47,43.99 -2.18,55.83 -11.59,6.06 -26.64,5.66 -42.51,5.51 -5.41,-0.05 -13.52,-0.17 -24.34,-0.36 -10.82,-0.19 -20.25,0.01 -25.57,-0.04zm41.16 -54.97l-0.95 42.42c2.88,0.14 5.09,0.11 6.08,0.12 11.09,0.11 20.88,1.72 26.42,-2.82 4.95,-4.05 6.61,-10.58 6.79,-17.8 0.57,-22.81 -9.73,-21.73 -28.46,-21.91 -3.76,-0.04 -7.2,-0.16 -9.88,-0.01zm63.12 56l0.22 -9.42c4.66,-0.22 9.81,1.06 13.1,-4.31l24.5 -38.52c3.28,-4.82 -3.98,-6.16 -14.2,-6.54l0.22 -8.77 53.09 0.54 34.21 54.56c3.31,5.26 11.36,3.97 13.89,4.22l-0.27 9.43 -57.23 -0.56 0.23 -9.4c18.42,0.72 12.47,-4.67 8,-11.4l-40.1 -0.36c-4.1,6.37 -9.82,12.04 6.45,11.52l-0.24 9.41 -41.87 -0.4zm43.51 -32.89l24.82 0.26 -12.82 -19.62 -12.01 19.37zm-229.66 -125.46c-3.56,5.08 -40.01,35.51 -47.7,41.9 -5.64,4.69 -18.85,22.96 -23.38,20.9 -2.38,-1.08 -19.99,-21.92 -18.48,-24.07 6.63,-9.46 33.78,-33.8 41.51,-38.01 3.88,-2.11 42.19,-1.45 48.07,-0.72z"/>
    <path class="fil1" d="M2023.82 482.82c55.19,1.16 58.31,-12.87 105.68,-38.49 16.21,-8.77 91.63,-50.05 102.54,-49.82 -9.74,13.91 -57.99,72.56 -46.65,80.51 15.88,11.14 140.43,-13.82 168.06,-16.55 27.2,-2.69 54.94,-9.53 82.75,-12.28 9.83,-0.97 80.19,-25.71 79.31,-32.22l-245.6 32.91 57.05 -70.75c16.15,-20.03 -61.51,-3.96 -76.73,-2.05 -18.38,0.31 -58.45,17.4 -76.74,26.89 -25.7,13.34 -49.73,23.92 -75.83,38.56 -18.69,10.48 -58.86,29.85 -73.85,43.29zm-134.2 -6.2c8.62,-7.72 18.02,-20.41 26.95,-29.44 8.8,-8.9 47.41,-44.64 57.36,-45.73 4.41,-0.48 30.88,-2.21 33.17,-0.61 6.02,1.63 9.05,7.07 5.49,11.65 -15.61,13.99 -110.03,64.39 -122.97,64.12zm-376.08 15.89l-20.47 12.73c34.34,0.46 76.37,4.58 109.93,-1.12 4.58,-0.78 43.8,-24.52 52.26,-29.06 22.09,-11.84 85.79,-47.56 104.76,-48.34l-47.41 54.68c-3.64,4.67 -9.25,13.04 -3.94,16.76l1.31 0.92c9.33,6.54 175.09,-7.12 198.08,-9.02 47.37,-3.9 50.52,1.25 95.35,-25.44 16.71,-9.95 77.79,-44.21 89.19,-60.48 6.44,-9.19 1.37,-12.7 -5.36,-17.42 -12.94,-9.06 -117.76,0.52 -138.63,1.24 -36.6,1.27 -34.65,-1.27 -65.08,27.93 -16.36,15.7 -45.97,40.33 -59.5,59.71l-31.03 0.07 -1.49 -1.64 67.64 -79.27c-6.57,-3.83 -62.18,0.42 -73.27,0.98 -17.16,0.86 -52.11,16.46 -70.8,21.55 -19.12,5.2 -49.27,22.26 -69.19,30.64 -22,9.24 -47.09,23.36 -68.54,34.34 -11.47,-9.55 -20.7,-16.05 -34.03,-23.84 8.08,-6.79 83.24,-10.79 110.52,-43.57 0.04,-1.75 0.62,-5.42 -1.17,-6.68 -10.43,-7.31 -146.96,-4.56 -168.26,-4.13 -18.45,0.37 -29.06,0.71 -40.18,6.45 -11.13,7.48 -26.33,19.65 -37.3,29.27 -11.96,10.48 -24.65,22.09 -36.82,32.04 -6.99,5.72 -31.86,30.05 -36.72,33.87l75.32 2.85c18.41,-26.28 49.81,-55.14 71.11,-71.92 19.85,-15.64 16.78,-12.96 39.03,-12.92 7.59,0.01 37.19,-1.39 42.56,0.57 -21.97,19.7 -61.2,28.67 -85.12,37.94 13.94,8.13 26.08,18.75 37.25,30.29zm-274.87 -69.91c-12.04,10.79 -29.08,20.93 -43.44,33.52 -11.25,9.86 -32.96,30.46 -43.01,42.68l116.09 3.78 -16.83 -20.27c11.37,-16.23 25.35,-30.73 40.55,-43.44 20.22,-16.91 17.76,-13.25 41.36,-12.75 14.71,0.31 29.38,1.79 43.87,1.53 6.79,-0.12 34.89,-16.33 40.95,-22.36l-234.38 -7.44c-9.98,-0.21 -50.6,12.83 -58.54,19.49l113.38 5.27zm-168.8 71.04c11.24,-1.82 36.88,-5.29 48.85,-22.37 16.34,-23.33 -93.12,-50.17 -113.15,-56.1 -13.29,-3.93 -83.85,-21.42 -89.36,-25.28 -4.03,-2.82 -2.56,-4.7 -0.26,-7.99 7.87,-11.24 160.67,-2.86 177.27,3.2l-21.77 19.86 126.4 -38.29c-20.67,-8.31 -186.48,-20.17 -218.93,-21.18 -38.58,1.81 -180.96,-6.85 -202.79,24.32 -3.95,5.63 -3.42,11.26 2.74,15.58 59.24,36.15 134.06,36.28 207.52,62.73 7.76,5.43 10.16,11.16 6.65,13.15 -16.28,17.42 -251.31,2.85 -438.77,-8.47l34.9 25.99c253.53,17.12 436.4,19.4 480.71,14.85z"/>
    <path class="fil0" d="M483.07 89.98l176.46 77.66c125.65,1.35 274.65,25.09 400.47,21.63 27.05,-0.74 35.09,-5.39 59.11,-10.06l-12.1 12.85 169.06 4.3c90.91,3.31 181.95,3.81 272.9,6.32 13.54,-0.71 58.41,2.35 67.94,-3.03 17.36,-9.79 49.4,-26.71 63.63,-38.19 3.56,10.84 -3.78,19.36 11.84,31.57 13.7,8.05 31.46,9.39 51.99,6.14l220.79 -10.05c33.83,-2.63 68.85,-7.26 102.72,-7.29 9.86,-0.01 16.17,-7.39 25.77,-12.65 17.15,-9.4 35.47,-22.11 52.16,-29.58 1.9,6.73 -2.44,20.4 8.07,28.61l6.3 4.92c51.34,22.31 275.09,-15.47 320.35,-20.12l96.44 -67.84 -268.32 18.31c15.03,-20.23 57.29,-65.72 40.53,-78.82 -13.44,-10.5 -104.03,2.69 -119.13,3.46 -18.31,2.06 -104.61,35.57 -113.95,45.67 -3.12,-4.13 -4.9,-11.26 -7.57,-16.15 -8.59,-15.76 -25.77,-17.94 -42.26,-18.75 -45.19,-2.21 -90.76,2.99 -135.76,7.05 -20.92,1.89 -34.38,-3.85 -51.69,14.88 -4.68,-4.33 -2.05,-3.63 -5.31,-6.18 -8.41,-6.57 -70.01,-1.88 -83.4,-2.28 -15.89,-0.47 -24.7,1.48 -40.31,5.58 -25.52,6.7 -46.53,14.02 -70.62,24.31 -7.37,-10.29 -7.5,-10.84 -17.5,-18.66 -14.83,-11.59 -85.38,-8.16 -104.62,-8.2 -34.8,-0.06 -69.09,-1.16 -103.71,-0.78 -19.88,0.22 -203.64,-1.96 -207.67,-3.68l51.08 -20.68c-84.56,-17.13 -449.18,-55.77 -525.61,-4.99 -26.15,17.38 -31.28,38.19 -4.09,59.43 15.37,12 72.86,17.9 85.13,26.65 -123.07,-6.71 -245.79,-18.93 -369.13,-21.36zm993.54 155.3l-0.07 -12.46c-0.44,-4.39 -4.98,-6.19 -12.91,-5.83l-0.03 -8.77 52.94 -1.16 0.01 8.75c-8.07,-0.04 -12.83,1.4 -12.76,5.01l0.14 38.66c0.18,6.18 5.51,6.07 13.03,5.9l0.13 9.33 -52.96 1.3 -0.12 -9.41c9.21,0.56 13.43,-1.57 12.65,-6.37l0.04 -11.63 -40.17 0.92 0.11 12.66c-0.23,4.85 5.53,5.64 13.71,4.76l0.09 9.37 -52.97 1.21 -0.09 -9.42c7.82,0.39 12.82,-1.09 12.78,-5.9l-0.27 -38.22c0.03,-4.04 -3.99,-5.98 -12.88,-5.39l-0.15 -8.88 52.22 -1.09 0.1 8.8c-8.49,0.04 -12.76,2.04 -12.82,6.01l0.18 12.84 40.06 -0.97zm96.52 -32.28c14.73,-0.34 28.46,1.77 39.09,8.59 10.63,6.81 14.93,16.48 15.01,26.75 0.32,40.86 -67.02,45.71 -92.94,29.1 -10.63,-6.81 -14.6,-16.3 -14.69,-26.63 -0.08,-10.27 4.01,-20.3 14.53,-27.6 10.52,-7.3 24.27,-9.87 39,-10.21zm0.51 12.38c-8.73,0.2 -14.68,1.3 -19.36,7.45 -3.79,4.98 -4.42,10.62 -4.37,17.29 0.05,6.72 0.69,11.94 4.51,16.64 4.74,5.85 10.89,6.68 19.71,6.48 8.73,-0.2 14.4,-1.4 19.04,-7.48 3.75,-4.92 3.97,-10.34 3.92,-17 -0.05,-6.66 -0.46,-11.43 -4.31,-16.26 -4.71,-5.91 -10.4,-7.32 -19.13,-7.12zm171.91 -13.58l0.07 8.74c-8.06,0.06 -12.6,1.64 -12.89,5.06l0.5 54.19 -35.9 0.88 -38.03 -49.02 0.24 35.72c1.17,6.13 7.79,4.28 12.83,4.57l0.27 9.25 -41.92 0.98 -0.08 -9.41c3.71,-0.81 11.52,1.07 12.8,-5.1l-0.31 -38.74c0.04,-4.84 -5.16,-5.62 -13.01,-5.49l0.04 -8.93 49.42 -1.14 37.24 47.68 -0.27 -34.5c-0.49,-4.42 -5.41,-5.62 -12.83,-5.02l-0.06 -8.76 41.88 -0.95zm4.76 67.59l-0.05 -9.38c8.01,0.29 13.91,-0.76 13.61,-5.74l-0.24 -37.69c0.1,-5.15 -5.42,-6.37 -12.96,-6.18l-0.02 -8.72c0,0 16.49,-0.37 49.03,-1.11 15.86,-0.36 31.69,-1.24 43.2,4.84 21.04,11.12 21.89,43.3 -0.37,55.87 -11.39,6.43 -26.44,6.52 -42.3,6.89 -5.41,0.13 -13.52,0.27 -24.33,0.43 -10.82,0.16 -20.24,0.67 -25.56,0.79zm39.35 -56.29l0.44 42.43c2.89,0.05 5.09,-0.06 6.08,-0.08 11.09,-0.26 20.92,1.04 26.32,-3.67 4.81,-4.21 6.26,-10.79 6.2,-18.01 -0.18,-22.81 -10.41,-21.4 -29.16,-20.97 -3.77,0.09 -7.2,0.08 -9.88,0.31zm64.91 53.91l-0.08 -9.43c4.65,-0.37 9.84,0.74 12.95,-4.73l23.23 -39.29c3.12,-4.92 -4.18,-6.03 -14.4,-6.07l-0.07 -8.77 53.08 -1.19 35.97 53.42c3.48,5.15 11.49,3.59 14.02,3.76l0.03 9.43 -57.22 1.31 -0.08 -9.41c18.44,0.11 12.31,-5.07 7.62,-11.66l-40.09 0.95c-3.89,6.49 -9.42,12.35 6.82,11.3l0.07 9.41 -41.86 0.96zm42.42 -34.29l24.82 -0.55 -13.45 -19.19 -11.37 19.75zm-715.21 -128.1l-33.98 36.35c-1.17,-16.86 -3.7,-23.23 -21.9,-38.59l55.88 2.25zm170.3 5.23l11.49 0.79 -65.86 60.05 -16.69 -21.63c10.81,-14.01 22.97,-21.9 34.39,-31.85 17.83,-13.52 26.48,-6.6 36.67,-7.37z"/>
    <path class="fil1" d="M2518 104.77c-58,1.83 -240.19,22.4 -266.93,17.79l61.99 -79.35c-8.12,-5.32 -67.1,1.98 -79.28,3.48 -30.53,3.75 -47.88,13.67 -76.39,27 -21.35,9.98 -136.44,70.94 -150.03,85.64l49.63 -3.82c8.75,-3.92 30.34,-18.58 39.13,-24.45 20.19,-13.47 104.92,-63.67 118.62,-63.25 -23.98,30.7 -37.26,48.84 -50.77,77.97 5.17,35.33 243.17,-2.41 301.58,-7.47l52.45 -33.54zm-1928.44 8.36l69.11 29.1c70.81,6.04 142.2,9.9 213.18,14.3 61.36,4.49 123.58,3.35 185.13,5.49 16.63,0.58 47.06,-4.16 60.07,-20.81 4.85,-6.21 2.69,-11.92 0.59,-13.74 -67.22,-52.51 -188.06,-62.6 -200.82,-67.25 -2.3,-1.09 -0.98,-5.16 1.52,-7.32 6.18,-7.91 29.67,-8.14 53.43,-6.83l121.17 7.82 -19.78 20.47 0.86 1.73 126.67 -41.93c-104.92,-15.73 -222.66,-16.59 -323.84,-13.2 -23.37,1.63 -80.38,1.23 -97.39,22.83 -2.71,3.47 -4.69,10.54 -0.59,13.74 9.97,10.35 71.84,25.02 94.41,27.11 27.3,6.13 99.16,14.59 121.18,31.79 2.95,2.3 5.02,6.56 2.36,9.96 -9.51,12.18 -28.76,8.24 -42.34,7.51 -121.7,-6.51 -243.3,-14.37 -364.9,-20.75zm706.99 -12.2c13.13,-14.2 42.43,-8.33 58.33,-7.17 15.64,1.14 18,1.77 32.39,-5.12 7.14,-3.41 25.34,-11.75 31.02,-16.33 -17.67,-3.15 -53.51,-3.28 -73.33,-3.78 -24.5,-0.61 -50.15,0.39 -74.2,-1.56 -21.65,-1.76 -50.23,-0.88 -73.02,-1.21 -17.84,-0.26 -18.69,-1.68 -35.87,4.58 -7.75,2.82 -30.16,10.6 -35.75,16.12l109.91 3.69c-8.74,9.46 -28.79,20.76 -40.3,33.45 -12.73,14.04 -27.05,26.79 -39.22,43l109.23 2.15 -17.68 -20.71 48.5 -47.11zm62.42 44.71l-25.44 25 74.43 3.14 16.73 -21.41c13.3,-17.02 48.31,-46.8 63.48,-57.99 7.52,-5.56 61.84,-5.35 70.38,-1.72 -19.51,15.73 -65.36,29.62 -87.69,36.96 17.49,11.47 24.44,14.48 38.5,32.62l-19.53 10.59c7.3,3.11 87.36,0.96 102.65,1.45 17.27,0.55 74.79,-38.97 96.5,-48.69 21.88,-10.41 37,-18.75 60.94,-25.33 -7.84,8 -62.13,60.91 -49.69,70.63 21.69,16.97 237.17,7.43 253.82,-9.94 14.36,-8.07 27.31,-14.36 41.49,-23.77 20.4,-13.54 66.97,-40.65 82.52,-60.54 7.47,-9.55 -0.03,-14.22 -6.96,-19.64 -14.45,-11.29 -144.19,10.36 -169.62,5.22l-89.91 88.12 -26.49 -2.4c19.04,-29.04 41.29,-53.61 64.24,-79.62 -6.67,-4.37 -55.33,0.24 -65.96,0.68 -58.18,1.94 -152.64,57.62 -209.66,82.15l-12.39 -10.15 -22.6 -15.15c7.01,-3.14 40.64,-7.38 55.42,-12.27 11.77,-3.9 44.91,-14.91 53.72,-26.19 3.15,-3.78 1.21,-8.95 -2.36,-9.96 -5.11,-5.87 -161.06,-16.3 -193.29,-5.12 -29.34,10.17 -73.74,57.62 -93.23,73.34zm596.47 -69.26c8.87,0.13 34.33,-5.83 41.74,-0.04 4.48,3.5 -2.85,11.44 -5.08,14.29 -8.54,10.93 -101.35,58.36 -112.13,60.46 23.38,-27.02 47.71,-52.3 75.46,-74.71z"/>
    <path class="fil1" d="M3034.63 1322.11c102.2,43 80.32,143.52 39.32,193.1l-166.95 166.41c-24.68,21.69 -36.81,43.39 -44.41,65.08l-128.3 0 277.69 -261.65c22.18,-23.15 40.03,-74.9 -26.21,-99.49l-1222.48 -433.7c-96.65,-34.91 -116.9,-141.04 -146.35,-210.92 -4.7,-11.95 0.38,-15.04 10.49,-10.91l1407.19 592.07zm-2961.07 8.92c-102.2,43 -80.32,143.52 -39.32,193.1l166.95 166.41c24.68,21.69 36.81,43.39 44.4,65.08l128.3 0 -277.68 -261.65c-22.18,-23.15 -40.03,-74.9 26.21,-99.49l1222.48 -433.7c96.65,-34.91 116.9,-141.04 146.35,-210.92 4.7,-11.95 -0.38,-15.04 -10.49,-10.91l-1407.19 592.07zm672.8 295.58l-424.47 49.52 84.72 79.52 548.61 -0.27 -208.87 -128.77zm-610.47 -124.83l281.63 -71.84c4.49,-0.77 5.89,-2.48 2.81,-4.91 -12.3,-9.37 -3.89,-18.11 6.42,-20.47l804.06 -216.33c79.2,-23.72 117.15,-119.95 153.38,-176.87 5.34,-10.74 0.49,-14.3 -6.33,-11.92l-1256.76 420.23c-25.86,10.78 -26.98,41.62 -14.81,54.26l29.6 27.84zm1119.46 -271.99l-1106.63 283.95 69.62 65.34c71.16,-19.35 272.68,-46.73 339.27,-65.95 2.68,-0.73 2.98,-2.67 -0.17,-4.25 -4.98,-1.54 -13.61,-14.3 -0.63,-17.61l522.39 -101.85c103.55,-10.83 140.37,-85.36 181.96,-152.82 2.58,-4.47 0.62,-8.17 -5.82,-6.81zm-142.7 193.06l-883.58 166.26 79.45 74.56 406.84 -50.93c3.84,-0.35 3.67,-3.07 1.42,-4.91 -3.74,-3.06 -14.17,-14.73 0.46,-17.45l219.74 -30.19c55.77,-8.3 101.08,-30.48 130.76,-65.87l53.33 -63.64c3.51,-6.33 0.14,-10.34 -8.42,-7.85zm204.32 453.8l64.86 0.04 -34.74 -49.24 -30.12 49.2zm-111.55 84.12l-0.03 -23.8c12.15,-0.66 25.7,2.44 33.95,-11.2l61.52 -97.86c8.26,-12.25 -10.8,-15.47 -37.52,-16.17l-0 -22.16 138.75 0.08 92.91 136.95c8.98,13.21 29.94,9.74 36.55,10.31l-0.1 23.82 -149.55 -0.01 -0.02 -23.75c22.85,0.64 37.43,-2.06 31.66,-12.96l-11.5 -16.03 -104.78 0.07 -9.89 15.54c-5.48,11.27 6.93,14.22 27.47,13.39l-0.01 23.76 -109.41 0.01zm-168.51 -139.89l0.28 107.16c7.54,0.28 13.3,0.15 15.89,0.15 28.98,0 54.65,3.84 68.85,-7.75 12.66,-10.34 16.57,-26.88 16.57,-45.12 0,-15.96 -1.01,-32.14 -12.25,-43.55 -13.32,-13.52 -38.96,-11.09 -63.52,-11.09 -9.84,0 -18.82,-0.22 -25.82,0.21zm-103.98 139.83l0.07 -23.68c20.91,1.19 36.35,-1.12 35.69,-13.71l0.14 -95.17c0.36,-12.99 -14.03,-16.4 -33.75,-16.36l0.12 -22.03c0,0 43.1,0.03 128.14,0.03 41.46,0 82.83,-1.3 112.78,14.73 31.3,16.74 41.29,46.27 41.29,70.91 0,24.79 -12.02,53.79 -43.38,70.12 -29.9,15.58 -69.23,14.94 -110.69,14.94 -14.13,0 -35.34,-0.11 -63.61,-0.32 -28.27,-0.21 -52.91,0.52 -66.81,0.52zm-11.06 -170.92l-0.01 22.08c-21.07,-0.32 -32.96,3.41 -33.78,12.03l0.21 136.85 -93.84 0.13 -98.38 -125.98 -0.1 90.2c2.93,15.54 20.28,11.25 33.44,12.27l0.53 23.38 -109.56 0.03 -0.02 -23.78c9.73,-1.83 30.09,3.37 33.55,-12.13l-0.01 -97.83c0.21,-12.21 -13.36,-14.48 -33.87,-14.63l0.29 -22.53 129.16 0 96.33 122.55 0.01 -87.12c-1.18,-11.19 -14.03,-14.51 -33.43,-13.42l0.02 -22.13 109.47 0.03zm-449.51 24.31c-22.83,0 -38.39,2.43 -50.75,17.68 -10.01,12.35 -11.76,26.56 -11.76,43.39 0,16.98 1.55,30.18 11.43,42.28 12.28,15.04 28.31,17.51 51.36,17.51 22.82,0 37.67,-2.7 49.92,-17.78 9.91,-12.21 10.59,-25.87 10.59,-42.7 0,-16.83 -0.96,-28.9 -10.92,-41.3 -12.19,-15.19 -27.03,-19.08 -49.86,-19.08zm-1.07 -31.27c38.49,0 74.34,6.12 101.98,23.94 27.64,17.82 38.67,42.48 38.67,68.41 0,25.93 -11.03,49.79 -38.67,67.69 -27.64,17.89 -63.49,24.89 -101.98,24.89 -38.49,0 -75.18,-6.68 -102.81,-24.49 -27.64,-17.82 -37.83,-42 -37.83,-68.08 0,-25.93 10.89,-51.02 38.53,-68.83 27.64,-17.82 63.63,-23.52 102.12,-23.52zm-252.88 75.89l0.07 -31.45c-1.05,-11.11 -12.88,-15.91 -33.63,-15.48l0.12 -22.15 138.37 0.14 -0.14 22.1c-21.08,-0.57 -33.55,2.8 -33.45,11.9l-0.43 97.61c0.35,15.62 14.26,15.63 33.93,15.64l0.15 23.57 -138.41 0.2 -0.12 -23.78c24.06,1.94 35.12,-3.18 33.18,-15.36l0.35 -29.37 -104.99 0 0.02 31.98c-0.7,12.24 14.32,14.55 35.74,12.83l0.05 23.65 -138.44 -0.03 -0.05 -23.78c20.43,1.44 33.53,-2.01 33.52,-14.16l0.07 -96.51c0.16,-10.2 -10.29,-15.33 -33.54,-14.36l-0.22 -22.42 136.48 0.28 0.07 22.24c-22.17,-0.4 -33.39,4.4 -33.63,14.42l0.21 32.42 104.71 -0.14zm2143.41 -241.02l424.47 49.52 -84.72 79.52 -548.61 -0.27 208.87 -128.77zm610.47 -124.83l-281.64 -71.84c-4.49,-0.78 -5.89,-2.48 -2.81,-4.91 12.3,-9.37 3.89,-18.11 -6.42,-20.47l-804.06 -216.33c-79.2,-23.72 -117.15,-119.95 -153.38,-176.87 -5.34,-10.74 -0.5,-14.3 6.33,-11.92l1256.76 420.23c25.86,10.78 26.98,41.62 14.81,54.26l-29.6 27.84zm-1119.47 -271.99l1106.63 283.95 -69.62 65.34c-71.16,-19.35 -272.68,-46.73 -339.27,-65.95 -2.68,-0.73 -2.98,-2.67 0.17,-4.25 4.98,-1.54 13.61,-14.3 0.64,-17.61l-522.39 -101.85c-103.55,-10.83 -140.37,-85.36 -181.96,-152.82 -2.58,-4.47 -0.63,-8.17 5.81,-6.81zm142.7 193.06l883.58 166.26 -79.45 74.56 -406.84 -50.93c-3.84,-0.35 -3.67,-3.07 -1.43,-4.9 3.74,-3.06 14.17,-14.73 -0.46,-17.45l-219.74 -30.19c-55.77,-8.3 -101.08,-30.48 -130.76,-65.87l-53.33 -63.63c-3.5,-6.33 -0.14,-10.34 8.42,-7.85zm962.34 453.8l64.86 0.04 -34.74 -49.24 -30.12 49.2zm-111.55 84.11l-0.03 -23.8c12.15,-0.66 25.7,2.44 33.95,-11.2l61.52 -97.86c8.26,-12.25 -10.8,-15.47 -37.52,-16.17l-0.01 -22.16 138.75 0.08 92.91 136.95c8.98,13.21 29.95,9.74 36.56,10.31l-0.11 23.82 -149.55 -0.01 -0.02 -23.75c22.85,0.64 37.43,-2.05 31.66,-12.96l-11.5 -16.03 -104.78 0.07 -9.89 15.54c-5.48,11.27 6.93,14.22 27.47,13.39l-0.01 23.76 -109.41 0zm-168.51 -139.89l0.28 107.16c7.54,0.29 13.3,0.15 15.89,0.15 28.98,0 54.65,3.84 68.85,-7.75 12.66,-10.34 16.57,-26.88 16.57,-45.12 0,-15.96 -1.01,-32.14 -12.24,-43.55 -13.32,-13.52 -38.96,-11.09 -63.52,-11.09 -9.84,0 -18.81,-0.22 -25.82,0.21zm-103.98 139.83l0.07 -23.68c20.91,1.19 36.35,-1.12 35.69,-13.71l0.14 -95.17c0.35,-12.99 -14.03,-16.4 -33.75,-16.36l0.12 -22.03c0,0 43.1,0.03 128.14,0.03 41.46,0 82.83,-1.3 112.78,14.73 31.3,16.74 41.29,46.27 41.29,70.91 0,24.79 -12.02,53.79 -43.38,70.12 -29.9,15.58 -69.23,14.94 -110.69,14.94 -14.14,0 -35.34,-0.11 -63.61,-0.32 -28.27,-0.21 -52.91,0.52 -66.81,0.52zm-11.06 -170.92l-0.01 22.08c-21.07,-0.32 -32.96,3.41 -33.78,12.03l0.21 136.85 -93.84 0.13 -98.38 -125.98 -0.1 90.2c2.93,15.54 20.28,11.25 33.44,12.27l0.53 23.38 -109.56 0.04 -0.02 -23.78c9.73,-1.83 30.09,3.37 33.55,-12.14l-0.02 -97.83c0.21,-12.21 -13.36,-14.48 -33.87,-14.63l0.29 -22.53 129.16 0 96.33 122.55 0.01 -87.12c-1.18,-11.19 -14.03,-14.51 -33.43,-13.42l0.02 -22.13 109.46 0.03zm-449.51 24.32c-22.83,0 -38.39,2.43 -50.75,17.68 -10.01,12.35 -11.76,26.56 -11.76,43.39 0,16.98 1.55,30.18 11.43,42.28 12.28,15.04 28.31,17.51 51.37,17.51 22.82,0 37.67,-2.7 49.91,-17.78 9.91,-12.21 10.59,-25.87 10.59,-42.7 0,-16.83 -0.96,-28.9 -10.92,-41.3 -12.19,-15.19 -27.03,-19.07 -49.86,-19.07zm-1.06 -31.27c38.49,0 74.34,6.12 101.98,23.94 27.64,17.82 38.67,42.48 38.67,68.41 0,25.93 -11.03,49.79 -38.67,67.69 -27.64,17.89 -63.49,24.89 -101.98,24.89 -38.49,0 -75.18,-6.68 -102.81,-24.49 -27.64,-17.82 -37.83,-42 -37.83,-68.08 0,-25.93 10.89,-51.02 38.53,-68.83 27.64,-17.82 63.63,-23.52 102.12,-23.52zm-252.88 75.89l0.07 -31.45c-1.05,-11.11 -12.88,-15.91 -33.63,-15.48l0.12 -22.15 138.37 0.14 -0.14 22.1c-21.08,-0.57 -33.55,2.8 -33.45,11.91l-0.43 97.61c0.35,15.62 14.26,15.63 33.93,15.64l0.15 23.56 -138.41 0.2 -0.12 -23.78c24.06,1.94 35.12,-3.18 33.18,-15.36l0.36 -29.37 -104.99 0 0.02 31.98c-0.7,12.24 14.32,14.55 35.74,12.83l0.05 23.65 -138.45 -0.03 -0.05 -23.78c20.43,1.44 33.53,-2.01 33.52,-14.16l0.07 -96.51c0.16,-10.2 -10.29,-15.33 -33.54,-14.36l-0.22 -22.42 136.48 0.28 0.07 22.24c-22.18,-0.4 -33.39,4.4 -33.63,14.42l0.21 32.43 104.71 -0.14z"/>
   </g>
  </svg>
  