<?xml version="1.0" encoding="UTF-8"?>
<!DOCTYPE svg PUBLIC "-//W3C//DTD SVG 1.1//EN" "http://www.w3.org/Graphics/SVG/1.1/DTD/svg11.dtd">
<!-- Creator: CorelDRAW -->
<svg xmlns="http://www.w3.org/2000/svg" xml:space="preserve" width="399.197mm" height="545.94mm" version="1.1" style="shape-rendering:geometricPrecision; text-rendering:geometricPrecision; image-rendering:optimizeQuality; fill-rule:evenodd; clip-rule:evenodd"
viewBox="0 0 21393.08 29257.08"
 xmlns:xlink="http://www.w3.org/1999/xlink"
 xmlns:xodm="http://www.corel.com/coreldraw/odm/2003">
 <defs>
  <style type="text/css">
   <![CDATA[
    .fil1 {fill:black}
    .fil2 {fill:#D9D9D9}
    .fil0 {fill:red}
   ]]>
  </style>
 </defs>
 <g id="Camada_x0020_1">
  <metadata id="CorelCorpID_0Corel-Layer"/>
  <path class="fil0" d="M6040.58 11518.38c-67.2,-14.31 -303.3,-211.64 -362.14,-258.96 -127.94,-102.88 -254.91,-207.06 -381.72,-311.33 -828.07,-680.9 -1650.58,-1368.73 -2476.4,-2052.36 -112.63,-93.25 -273.96,-229.8 -392.18,-311.45 -61.37,-42.38 -162.3,-110.32 -239.1,-70.74 -84.59,43.58 -85.77,198.44 -88.47,287.36 -1.62,53.55 -1.94,107.2 -2.23,160.77 -3.97,720.8 4.31,1454.95 10.11,2176.61l4.73 584.45c641.12,189.78 1350.48,378.32 1941.2,693.39 98.45,52.51 193.61,108.49 288.65,166.81 51.62,31.67 125.25,88.1 177.93,58.69 34.73,-19.38 40.19,-59.15 46.52,-94.41 18.32,-101.88 36.07,-204.73 57.14,-306.07 72.94,46.53 215.43,166.75 282.96,222.1l1514.14 1258.6c258.39,217.76 524.71,450.35 786,662.19 77.05,62.46 209.82,170.43 299.32,207.01 148.16,60.55 212,-56.77 250.6,-177.73 31.5,-98.7 55.65,-203.65 79.34,-304.47 52.37,-222.98 100.58,-447.3 148.5,-671.28 86.31,-403.36 170.29,-807.26 253.93,-1211.17 271.9,-1313.04 539.4,-2627.09 806.38,-3941.13 273.95,-1348.32 547.14,-2696.84 817.1,-4045.96 76.37,-381.68 160.74,-788.74 225.95,-1171.47 16.56,-97.19 34.01,-198.92 41.62,-297.23 3.86,-49.86 12.67,-140.61 -49.3,-159.67 -56.32,-17.32 -95.63,45.86 -119.87,85.8 -111.44,183.67 -384.29,827.88 -476.61,1041.38 -696.33,1610.3 -1384.3,3224.17 -2081.98,4834.03 -314.99,726.82 -637.91,1477.29 -969.44,2196.49 -43.99,95.43 -319.69,698.76 -392.65,749.75l0 -0.01zm-622.04 13626.04c-243.26,-1120.17 -703.86,-3134.99 -956.71,-4383.71 -252.85,-1248.72 -297.96,-1731.32 -298.37,-2837.95 -0.41,-1106.64 43.86,-2837.31 64.89,-3710.12 21.03,-872.81 18.8,-887.78 17.13,-898.99 -1.67,-11.22 -2.78,-18.7 -475.03,-122.31 -391.02,-85.79 -1105.02,-237.49 -1683.39,-355.21 8.39,82.91 18.14,186.93 29.87,319.81 38.98,441.46 99.85,1201.11 160.95,1838.22 61.11,637.11 122.45,1151.7 177.78,1600.28 55.34,448.58 104.66,831.16 205.71,1278.67 101.04,447.51 253.81,959.95 581.66,1916.52 327.85,956.57 830.79,2357.29 1287.9,3604.25 443.68,1210.36 817.26,2311.45 1065.06,2907.58 7.49,18.01 22.83,60.26 30.03,77.41 5.65,13.48 40.81,3.93 35.71,-20.61 -31.49,-201.94 -99.33,-551.45 -243.18,-1213.85l0 0.01z"/>
  <path class="fil1" d="M1693.64 12757.31c-568.29,-111.6 -825.83,-149.89 -956.58,-169.33 -134.87,-20.06 -134.87,-20.06 -134.79,-6.69 0.08,13.37 0.24,40.1 123.79,856.98 123.56,816.88 370.52,2423.89 560.15,3427.82 189.63,1003.91 321.95,1404.71 456.38,1755.51 134.43,350.79 270.97,651.57 906.99,1996.14 636.02,1344.56 1771.53,3732.91 2352.73,4940.38 581.2,1207.46 617.5,1232.64 634.28,1230.14 16.78,-2.5 20.55,-13.89 13.98,-30.95 -419.42,-1080.34 -1563.79,-3978.1 -2293.05,-5878 -886.69,-2310.06 -1075.64,-2856.37 -1328.96,-4894.06 -115.96,-932.7 -245.87,-2190.16 -304.9,-2856.09 -13.55,-152.88 -23.36,-274.51 -30.01,-371.85l-0.01 -0.01zm-109.86 -1946.62c-17.83,-658.47 -52.97,-1920.65 -65.82,-2562.78 -12.81,-642.13 -3.36,-664.26 35.57,-673.72 38.95,-9.5 107.4,-6.37 477.49,300.38 370.13,306.74 1041.95,917.08 1702.67,1476.93 660.73,559.8 1310.42,1069.09 1655.76,1321.64 345.37,252.53 386.41,248.33 433.26,220.43 46.84,-27.93 99.44,-79.52 703.8,-1368.73 604.38,-1289.22 1760.53,-3816.02 2337,-5091.02 576.46,-1274.99 573.32,-1298.14 -72.73,-303.67 -646.06,994.44 -1934.96,3006.54 -2600.49,4021.03 -665.51,1014.45 -707.61,1031.3 -752.35,1033.95 -44.74,2.64 -92.08,-8.9 -979.73,-777.07 -887.66,-768.2 -2615.62,-2293.02 -3492.22,-3041.2 -876.57,-748.2 -901.85,-719.76 -932.37,-658.69 -30.49,61.06 -66.24,154.75 22.53,1276.37 88.77,1121.62 302.06,3271.14 408.71,4345.93 106.67,1074.75 106.67,1074.75 105.1,1078.42 -7.28,17 -2.04,38.29 7.89,54.13 4.22,6.73 6.87,5.66 176.23,22.6 169.37,16.9 505.43,51.78 674.65,70.31 169.24,18.48 171.62,20.61 172.53,-5.72 0.92,-26.33 0.35,-81.08 -17.47,-739.52z"/>
  <path class="fil0" d="M15763.83 11294.79c66.16,-18.5 289.4,-230.29 345.15,-281.21 121.22,-110.72 241.39,-222.67 361.4,-334.71 783.63,-731.59 1561.29,-1469.75 2342.52,-2203.93 106.56,-100.15 258.96,-246.55 371.84,-335.48 58.58,-46.15 155.05,-120.29 234.18,-85.63 87.15,38.18 98.08,192.66 106.35,281.23 4.98,53.34 8.68,106.86 12.34,160.3 49.26,719.13 87.14,1452.34 126.7,2172.95l32.01 583.59c-627.86,229.66 -1324.1,462.48 -1893.78,814.01 -94.95,58.6 -186.4,120.44 -277.59,184.61 -49.53,34.84 -119.46,95.8 -173.9,69.76 -35.88,-17.16 -43.83,-56.51 -52.36,-91.3 -24.68,-100.52 -48.86,-202.06 -76.27,-301.88 -69.91,51.06 -204.48,179.92 -268.44,239.45l-1432.05 1351.27c-244.21,233.58 -495.35,482.41 -742.83,710.28 -72.98,67.2 -198.68,183.27 -285.72,225.41 -144.07,69.74 -215.14,-43.32 -261.27,-161.63 -37.64,-96.52 -68.34,-199.75 -98.32,-298.88 -66.29,-219.24 -128.49,-440.1 -190.4,-660.62 -111.48,-397.14 -220.68,-794.96 -329.54,-1192.82 -353.88,-1293.36 -703.44,-2587.99 -1052.48,-3882.66 -358.14,-1328.43 -715.54,-2657.13 -1069.76,-3986.61 -100.21,-376.12 -209.99,-777.09 -299.12,-1154.96 -22.63,-95.95 -46.45,-196.39 -60.22,-294.02 -6.98,-49.52 -21.48,-139.54 39.17,-162.46 55.12,-20.82 98.33,39.76 125.03,78.1 122.76,176.3 435.57,802.1 541.12,1009.37 796.15,1563.36 1584.19,3130.79 2381.66,4693.62 360.07,705.64 729.48,1434.2 1105.57,2131.23 49.9,92.48 362.96,677.29 438.99,723.6l0.01 -0.01zm1477.15 13560.01c172.39,-1133.24 505.45,-3173.03 679.32,-4435.16 173.87,-1262.14 188.56,-1746.63 119.42,-2851.1 -69.14,-1104.47 -222.09,-2828.93 -297.92,-3698.7 -75.84,-869.77 -74.55,-884.85 -73.6,-896.14 0.96,-11.31 1.61,-18.84 466.41,-151.92 384.85,-110.2 1087.91,-306.46 1657.73,-460.3 -3.16,83.27 -6.35,187.69 -9.71,321.05 -11.16,443.03 -24.16,1205.01 -45.11,1844.71 -20.95,639.7 -49.83,1157.12 -76.86,1608.29 -27.03,451.18 -52.21,836.09 -124.94,1289.07 -72.72,452.98 -192.98,974.01 -460.07,1949.29 -267.09,975.28 -681,2404.84 -1058.83,3678.06 -366.74,1235.86 -670.38,2358.25 -880.23,2968.77 -6.34,18.45 -19,61.58 -25.11,79.14 -4.8,13.8 -40.49,6.48 -36.93,-18.32 18.74,-203.53 64.48,-556.61 166.41,-1226.73l-0.01 -0.01z"/>
  <path class="fil1" d="M20180.05 12258.07c560.16,-147.1 814.77,-201.49 944.05,-229.11 133.34,-28.5 133.34,-28.5 134.1,-15.15 0.76,13.34 2.28,40.03 -69.69,863.06 -71.97,823.03 -217.45,2442.39 -343.62,3456.24 -126.17,1013.84 -233.04,1422.18 -345.15,1780.72 -112.12,358.55 -229.48,667.31 -779.74,2049.19 -550.26,1381.88 -1533.43,3836.87 -2037.59,5078.47 -504.17,1241.61 -538.81,1269.01 -555.72,1267.58 -16.9,-1.44 -21.38,-12.57 -15.9,-30.01 350.68,-1104.57 1310.69,-4068.5 1919.11,-6010.5 739.75,-2361.23 893.99,-2918.3 1018.77,-4967.9 57.11,-938.14 107.73,-2201.27 124.8,-2869.61 3.91,-153.43 6.06,-275.44 6.58,-372.99l0 0.02zm-12.7 -1949.68c-23.59,-658.29 -67.84,-1920.19 -95.37,-2561.84 -27.56,-641.67 -38.39,-663.16 -77.84,-670.16 -39.47,-7.04 -107.58,0.39 -457.67,329.79 -350.11,329.4 -982.26,980.75 -1606.48,1581.02 -624.25,600.23 -1240.64,1149.33 -1569.42,1423.1 -328.82,273.74 -370.04,272.12 -418.55,247.22 -48.5,-24.93 -104.24,-73.11 -788.41,-1321.79 -684.21,-1248.69 -1996.88,-3697.84 -2652.32,-4934.08 -655.45,-1236.25 -653.77,-1259.55 53.5,-307.64 707.29,951.87 2120.09,2878.99 2848.06,3849.65 727.94,970.62 771.02,984.79 815.84,984.62 44.82,-0.17 91.34,-14.67 928.96,-837.11 837.63,-822.47 2466.35,-2452.87 3294.19,-3254.67 827.82,-801.81 854.83,-775.02 889.14,-715.99 34.27,59.02 75.83,150.28 57.72,1275.26 -18.11,1124.98 -95.88,3283.66 -134.78,4363.02 -38.92,1079.32 -38.92,1079.32 -37.12,1082.9 8.33,16.52 4.45,38.07 -4.47,54.52 -3.78,6.98 -6.5,6.08 -174.46,33.64 -167.97,27.51 -501.17,83.45 -668.9,112.56 -167.74,29.08 -169.98,31.36 -172.55,5.13 -2.57,-26.22 -5.45,-80.9 -29.05,-739.16l-0.01 0.01z"/>
  <path class="fil1" d="M15168.2 22328.25c35.7,-315.73 150.51,-1187.34 172.18,-1245.44 2.64,-7.08 2.64,-7.08 -75.72,-246.13 -78.35,-239.04 -235.07,-717.12 -307.79,-1014.59 -72.72,-297.47 -61.44,-414.32 65.58,-1085.25 82.77,-437.16 214.67,-1109.53 329.07,-1697.63 -15.25,-42.98 -41.66,-14.04 -107.37,201.34 -171.11,560.84 -488.48,1912.08 -589.62,2537.44 -63.4,392 -73.53,646.48 -34.29,909.28 39.24,262.79 127.84,533.9 248.42,865.35 91.3,250.96 200.92,536.49 299.53,775.63l-0.01 0z"/>
  <path class="fil0" d="M14927.07 25720.61c26.96,-581.11 84.55,-1677.41 156.33,-2530.33 4.77,-56.71 9.62,-112.31 14.5,-166.86 -136.95,-329.1 -317.33,-768.92 -444.82,-1157.71 -168.06,-512.58 -244.13,-936.39 -262.71,-1276.23 -18.59,-339.84 20.29,-595.71 124.48,-1059.25 104.2,-463.55 273.71,-1134.78 422.69,-1664.36 148.99,-529.57 277.44,-917.5 456.51,-1452 55.34,-165.19 115.51,-344.38 175.85,-524.37 53.53,-304.89 47.51,-318.27 27.42,-307.78 -20.1,10.49 -112.94,155.87 -136.29,207.69 -23.35,51.83 -20.9,55.02 -256.68,694.99 -235.78,639.96 -830.68,2244.66 -1138.23,3269.98 -307.54,1025.31 -371.5,1586.58 -356.94,2126.68 14.56,540.09 107.63,1059.01 267.54,1701.72 159.91,642.71 386.67,1409.19 552.93,1904.96 166.27,495.77 272.03,720.81 323.08,800.37 51.04,79.56 47.37,13.62 74.34,-567.49l0 -0.02z"/>
  <path class="fil1" d="M15495.23 22297.57c15.03,-317.44 40.46,-1196.09 28.31,-1256.96 -1.48,-7.42 -1.48,-7.42 113.94,-230.94 115.42,-223.51 346.25,-670.54 465.4,-952.64 119.15,-282.1 126.62,-399.25 108.05,-1081.85 -12.11,-444.76 -35.27,-1129.55 -54.58,-1728.37 21.9,-39.99 43.37,-7.22 73.94,215.87 79.63,580.9 177.81,1965.49 178.09,2598.95 0.18,397.09 -30.34,649.94 -110.92,903.14 -80.58,253.19 -211.22,506.73 -383.03,814.77 -130.09,233.22 -283.78,497.65 -419.21,718.04l-0.01 0z"/>
  <path class="fil0" d="M15193.16 25685.04c65.91,-577.99 183.6,-1669.48 248.53,-2522.94 4.32,-56.76 8.39,-112.42 12.26,-167.05 187.59,-303.1 435.71,-708.59 623.46,-1072.12 247.53,-479.28 390.1,-885.57 462.56,-1218.12 72.46,-332.54 74.81,-591.34 45.76,-1065.56 -29.07,-474.23 -89.54,-1163.88 -152.3,-1710.42 -62.77,-546.55 -127.82,-949.97 -219.51,-1506.17 -28.33,-171.9 -59.21,-358.39 -90.11,-545.68 -4.31,-309.52 3.77,-321.78 21.93,-308.22 18.17,13.55 86.68,171.86 101.48,226.75 14.8,54.88 11.88,57.64 142.75,726.98 130.88,669.34 462.69,2348.29 603.07,3409.5 140.37,1061.2 114.15,1625.49 13.78,2156.38 -100.36,530.89 -274.87,1028.37 -535.07,1637.42 -260.2,609.04 -606.11,1329.64 -849.18,1792.62 -243.08,462.97 -383.33,668.3 -446.39,738.72 -63.07,70.41 -48.94,5.91 16.96,-572.09l0.01 0.01z"/>
  <path class="fil1" d="M12588.62 23993.9c-131.88,-740.7 -336.63,-2012.11 -418.23,-3775.63 -81.6,-1763.52 -40.05,-4019.15 25.11,-5512.38 65.16,-1493.22 153.92,-2224.02 192.98,-2623.88 39.06,-399.86 28.41,-468.76 23.08,-503.21 -5.32,-34.45 -5.32,-34.45 -168.78,-767.37 -163.46,-732.92 -490.37,-2198.75 -663.27,-2914.86 -172.9,-716.11 -191.77,-682.48 -202.44,-646.8 -10.67,35.68 -13.13,73.41 -22.12,1599.86 -8.98,1526.45 -24.47,4541.62 41.38,6974.04 65.85,2432.42 213.05,4282.09 463.67,5802.04 250.63,1519.95 604.68,2710.19 785,3243.4 180.32,533.19 186.92,409.34 160.71,242.42 -26.21,-166.92 -85.21,-376.92 -217.09,-1117.63l0 0.01z"/>
  <path class="fil0" d="M12962.39 23343.14c3.42,-584.83 14.73,-1556.39 102.13,-2584.74 87.4,-1028.34 250.89,-2113.47 373.87,-2765.12 122.99,-651.65 205.48,-869.81 249.18,-999.19 43.71,-129.38 48.64,-169.99 -117.5,-867.84 -166.13,-697.85 -503.33,-2052.96 -680.54,-2737.9 -177.21,-684.94 -194.43,-699.71 -207.56,-678.59 -13.12,21.12 -22.16,78.12 -60.24,683.03 -38.08,604.92 -105.21,1757.74 -153.71,2996.28 -48.48,1238.54 -78.33,2562.81 -57.66,3601.63 20.67,1038.83 91.84,1792.24 177.8,2476.13 85.96,683.89 186.7,1298.26 246.09,1618.17 59.39,319.91 77.43,345.34 92.81,336.11 15.39,-9.22 28.11,-53.1 32.24,-174.08 4.13,-120.99 -0.34,-319.07 3.09,-903.9l0 0.01z"/>
  <path class="fil1" d="M9830.76 24040.83c89.01,-747.07 220.22,-2028.16 200.14,-3793.45 -20.07,-1765.3 -191.44,-4014.79 -342.46,-5501.78 -151.03,-1486.99 -281.72,-2211.48 -343.73,-2608.42 -62.02,-396.95 -55.35,-466.35 -52.02,-501.05 3.33,-34.7 3.33,-34.7 124.32,-775.82 120.99,-741.12 362.96,-2223.34 494.34,-2948.22 131.38,-724.88 152.15,-692.39 164.86,-657.39 12.71,35.01 17.34,72.53 114.2,1595.93 96.85,1523.4 285.93,4532.68 360.24,6964.86 74.31,2432.17 33.86,4287.24 -128.84,5819.11 -162.69,1531.86 -447.63,2740.52 -596.95,3283.21 -149.32,542.69 -163.04,419.42 -146.48,251.27 16.55,-168.16 63.37,-381.2 152.38,-1128.27l0 0.01z"/>
  <path class="fil0" d="M9420.14 23412.67c-115.75,-1821.19 -330.17,-3494.88 -783.24,-5313.58 -160.31,-643.49 -255.22,-856.53 -306.31,-983.18 -51.08,-126.65 -58.34,-166.91 67.34,-873.17 125.67,-706.26 384.29,-2078.53 521.77,-2772.53 185.48,-936.3 159.47,-904.22 267.61,-10.98 206.27,1703.8 520.38,4705.84 590.91,6574.79 56.56,1498.75 -36.98,2923.57 -187.45,4111.92 -40.88,322.79 -57.42,349.22 -73.31,340.9 -54.08,-28.33 -64.98,-565.16 -97.33,-1074.16l0 -0.02z"/>
  <path class="fil2" d="M7985.45 28727.24l-1587.99 -28.2c-127.38,-2.76 -372.3,-1.58 -493.63,-29.27 -68.15,-15.57 -136.32,-32.3 -204.09,-49.47 -74.46,-18.87 -159.11,-48.05 -163.59,-146.82 -3.55,-78.24 54.23,-131.42 125.16,-143.39l86.96 -7.67c-250.88,3.51 -502.43,5.09 -753.15,4.12 -66.95,-0.26 -138.54,0.75 -205.22,-4.84 -48.66,-4.07 -89,-14.44 -124.97,-50.12 -36.99,-36.69 -60.32,-86.69 -60.88,-139.16 -0.79,-73.03 40.42,-126.7 92.71,-172.45 81.78,-71.56 240.11,-172.81 338.88,-222.8 71.13,-35.99 92.5,-31.66 166.45,-32.38l1877.73 -17.02c62.14,-0.56 393.77,-6.8 440,0.03 48.6,7.18 93.6,27.61 124.58,67.13l62.04 -75.16 1059.57 -8.86c66.62,-0.56 138.26,9.75 186.86,53.14 59.24,-46.98 83.78,-55.08 153.05,-56.04l712.27 -3.55c68.23,-0.23 165.5,-10.58 223.87,19.51 42.58,-27.31 68.94,-29.55 117.66,-30.22l712.27 -3.55c107.16,-0.35 259.75,-24.44 299.78,109.6 28.42,95.18 -46.44,160.91 -110.63,215.5l-279.41 223.29c42.37,13.78 84.84,31.04 118.76,60.62 96.27,83.93 78.11,219.42 -48.84,293.72 -95.43,55.86 -306.09,116.63 -415.57,148.41 190.08,67.26 380.79,134.29 569.64,204.8 55.21,20.62 155.79,54.06 202.67,91.26 76.26,60.52 81.92,169.49 1,229.09 -37.94,27.94 -77.87,31.49 -123,30.48 -68.5,-1.54 -140.26,-9.59 -208.4,-16.6 -287.75,-29.59 -576.3,-65.3 -863.33,-101.56 -189.13,-23.89 -253.62,-29.32 -430.65,-89.22 -90.48,-30.62 -534.49,-184.46 -608.91,-221.87 -33.5,29.74 -67.04,59.4 -100.73,88.84 -118.19,103.26 -159.7,128.53 -316.92,145.28 -73.69,7.86 -582.55,53.09 -648.6,44.88 -103.31,-12.83 -177.32,-137.75 -66.18,-249.71l142.78 -129.73z"/>
  <path class="fil0" d="M8470.55 28479.91c-108.64,97.38 -335.19,293.11 -446.38,391.95 -111.2,98.85 -107.06,100.84 -98.8,101.86 36.58,4.56 546.14,-37.51 617.9,-45.15 123.53,-13.16 139.91,-22.93 242.96,-112.96 103.05,-90.04 292.79,-260.35 394.86,-346.46 102.07,-86.1 116.48,-87.99 278.82,-88.16 162.32,-0.18 472.59,1.36 594.79,6.4 122.19,5.03 56.32,13.56 -20.77,31.88 -77.09,18.32 -165.4,46.42 -281.11,66.51 -115.73,20.09 -258.85,32.18 -360.28,40.04 -101.44,7.86 -161.17,11.5 -197.71,16.24 -36.53,4.74 -49.86,10.58 -78.95,35.52 -29.08,24.96 -73.91,69.02 -95.81,92.54 -21.89,23.51 -20.83,26.47 101.32,71.85 122.16,45.39 365.39,133.2 505.59,180.65 140.22,47.44 177.41,54.52 404.49,83.21 115.66,14.61 1064.47,137.79 1098.49,112.73 18.78,-13.83 -38.09,-37.3 -171.09,-86.96 -140.26,-52.37 -404.16,-146.19 -583.22,-209.58 -137.38,-48.63 -388.41,-133.43 -379.93,-143.61 2.04,-2.44 13.38,-1.4 74.02,-15.87 136.31,-32.51 603.99,-160.73 714.24,-225.27 89.37,-52.33 25.93,-89.17 -48.72,-112.94 -163.56,-52.07 -268.58,-59.92 -560.41,-64.79 -376.33,-6.28 -1318.77,-9.63 -1668.19,0.08 -119.84,3.32 -113.94,-2.85 -32.37,52 22.86,15.37 49.84,32.23 64.94,44.61 15.09,12.37 18.27,20.26 24.5,23.74 6.23,3.47 15.49,2.55 -93.15,99.92zm-2362.72 -30.93c464.29,-3.6 1412.58,1.11 1884.18,5.42 471.59,4.31 466.48,8.22 442.53,31.72 -23.94,23.5 -66.75,66.6 -98.43,88.58 -31.69,21.99 -52.3,22.87 -432.7,17.04 -380.38,-5.82 -1120.57,-18.36 -1503.05,-26.66 -382.48,-8.3 -407.26,-12.36 -466.69,-25.93 -50.19,-11.47 -234.31,-52.26 -260,-68.22 -10.39,-6.45 -30.11,-18.37 434.17,-21.96l0.01 0z"/>
  <path class="fil1" d="M10359.31 27880.04c-25.24,19.84 -164.35,132.12 -166.56,154.8 -1.13,11.56 4.92,11.88 48.84,12.1 36.11,0.17 101.84,-0.85 139.48,-3.81 37.65,-2.96 47.22,-7.85 80.91,-36.26 25.37,-21.39 150.35,-128.23 154,-151.09 0.7,-4.34 0.11,-5.77 -33.05,-6.46l-175.15 0.26c-5.09,0.77 -12.59,2.27 -48.46,30.46zm-297.61 -42.71c-44.66,35.27 -278.85,211.89 -288.49,257.04 -4.88,22.82 13.62,37.7 31.46,45.66 24,10.72 624.29,0.56 693.9,-0.03 135.78,-1.14 140.11,-0.69 208.19,-52.71 68.08,-52.03 199.92,-156.53 267.59,-214.07 120.73,-102.68 81.34,-89.68 -101.91,-89.07l-742.8 5.01c-8.31,1.51 -12.54,4.43 -67.93,48.18zm-756.19 56.97c-25.23,19.84 -164.34,132.13 -166.55,154.8 -1.13,11.56 4.85,11.89 48.84,12.1 36.12,0.18 101.84,-0.85 139.48,-3.8 37.65,-2.96 47.22,-7.85 80.92,-36.26 25.38,-21.4 150.36,-128.22 154,-151.09 0.69,-4.32 0.11,-5.77 -33.05,-6.44l-175.15 0.25c-5.1,0.77 -12.6,2.28 -48.47,30.46zm-297.6 -42.71c-44.67,35.27 -278.85,211.88 -288.5,257.05 -4.87,22.8 13.61,37.69 31.45,45.65 24.02,10.72 624.28,0.56 693.9,-0.03 135.79,-1.14 140.11,-0.7 208.19,-52.72 68.09,-52.02 199.92,-156.52 267.58,-214.07 120.71,-102.66 81.41,-89.69 -101.91,-89.07l-742.8 5.01c-8.31,1.52 -12.55,4.44 -67.92,48.18zm-1237.91 -38.39l997.13 -8.34c111.96,-0.93 133.77,32.62 71.04,104.79l-170.86 196.58c-35.5,40.85 -77.97,59.49 -121.45,59.39l-1074.16 8.98 75.44 -91.39 706.48 -5.91c13.34,-0.12 60.26,-13.29 66.46,-32.1 6.2,-18.81 13.54,-31.66 0.2,-31.54l-522.24 4.37 57.94 -70.2 524.07 -4.38c44.09,-0.37 69.2,-63.66 48.92,-63.49l-719.03 6.02 60.06 -72.77 -0.01 0zm-1135.13 225.28c-7.92,6.63 -83.84,73.58 -76.85,79.35 12.84,10.59 272.99,-1.05 307.8,-3.36 63.25,-4.21 72.33,-9.53 96.85,-23.64 144.77,-83.3 126.99,-66.63 -8.32,-67.09l-292.85 -0.96c-3.69,0.56 -8.6,0.59 -26.63,15.7zm-1538.72 -181.79c-83.1,42.05 -238.05,140.12 -311.17,204.08 -48.15,42.13 -64.23,77.45 -25.71,115.65 10.75,10.66 21.95,15.29 236.37,16.12 214.42,0.84 632.06,-2.13 841.76,-5.46 209.68,-3.33 211.42,-7.02 215.52,-14.66 7.66,-14.29 22.93,-43.39 18.32,-60.23 -1.73,-6.28 -6.67,-7.3 -151.22,-6.61 -144.55,0.69 -428.71,3.07 -570.83,2.67 -164.69,-0.44 -168.38,6.43 -94.31,-50.89 42.16,-32.62 123.57,-92.08 174.45,-120.84 50.87,-28.76 71.23,-26.83 340.33,-28.55 269.09,-1.71 786.95,-7.1 1047.43,-9.28 260.47,-2.18 263.58,-1.15 262.14,2.53 -6.03,15.46 -116.97,68.04 -138.71,78.29 -29.45,13.89 -40.42,17.65 -76.94,20.32 -36.54,2.66 -98.63,4.24 -129.72,3.45 -51.99,-1.32 -19.39,-12.24 0.92,-55.62 4.93,-10.54 1.18,-12.6 -68.04,-13.07 -69.23,-0.47 -203.92,0.66 -274.31,2.03 -70.41,1.38 -76.52,3.01 -117.08,37.97 -22.95,19.79 -195.11,169.24 -193.51,187.11 2.32,25.91 4.59,26.97 202.83,26.9 195.62,-0.07 586.1,-6.48 782.79,-12.59 196.69,-6.09 199.61,-11.88 244.19,-34.83 44.65,-22.97 223.98,-100.84 237.13,-133.93 5.44,-13.68 -1.5,-29 -13.88,-35.05 -23.76,-11.62 -161.18,-4.42 -193.97,-6.25 -48.62,-2.71 174.9,-50.95 199.87,-91.39 15.92,-25.79 -3.38,-48.74 -40.57,-54.23l-1954.98 15.3c-385.02,3.48 -393.01,3.55 -400.99,3.88 -8,0.33 -15.98,0.92 -48.13,17.2l0.01 0z"/>
  <path class="fil2" d="M15141.62 28727.24l-1587.99 -28.2c-127.38,-2.76 -372.3,-1.58 -493.63,-29.27 -68.15,-15.57 -136.32,-32.3 -204.09,-49.47 -74.46,-18.87 -159.11,-48.05 -163.59,-146.82 -3.55,-78.24 54.23,-131.42 125.16,-143.39l86.96 -7.67c-250.88,3.51 -502.43,5.09 -753.15,4.12 -66.95,-0.26 -138.54,0.75 -205.22,-4.84 -48.66,-4.07 -89,-14.44 -124.97,-50.12 -36.99,-36.69 -60.32,-86.69 -60.88,-139.16 -0.79,-73.03 40.42,-126.7 92.71,-172.45 81.78,-71.56 240.11,-172.81 338.88,-222.8 71.13,-35.99 92.5,-31.66 166.45,-32.38l1877.73 -17.02c62.14,-0.56 393.77,-6.8 440,0.03 48.6,7.18 93.6,27.61 124.58,67.13l62.04 -75.16 1059.57 -8.86c66.62,-0.56 138.26,9.75 186.86,53.14 59.24,-46.98 83.78,-55.08 153.05,-56.04l712.27 -3.55c68.23,-0.23 165.5,-10.58 223.87,19.51 42.58,-27.31 68.94,-29.55 117.66,-30.22l712.27 -3.55c107.16,-0.35 259.75,-24.44 299.78,109.6 28.42,95.18 -46.44,160.91 -110.63,215.5l-279.41 223.29c42.37,13.78 84.84,31.04 118.76,60.62 96.27,83.93 78.11,219.42 -48.84,293.72 -95.43,55.86 -306.09,116.63 -415.57,148.41 190.08,67.26 380.79,134.29 569.64,204.8 55.21,20.62 155.79,54.06 202.67,91.26 76.26,60.52 81.92,169.49 1,229.09 -37.94,27.94 -77.87,31.49 -123,30.48 -68.5,-1.54 -140.26,-9.59 -208.4,-16.6 -287.75,-29.59 -576.3,-65.3 -863.33,-101.56 -189.13,-23.89 -253.62,-29.32 -430.65,-89.22 -90.48,-30.62 -534.49,-184.46 -608.91,-221.87 -33.5,29.74 -67.04,59.4 -100.73,88.84 -118.19,103.26 -159.7,128.53 -316.92,145.28 -73.69,7.86 -582.55,53.09 -648.6,44.88 -103.31,-12.83 -177.32,-137.75 -66.18,-249.71l142.78 -129.73z"/>
  <path class="fil0" d="M15626.73 28479.91c-108.64,97.38 -335.19,293.11 -446.38,391.95 -111.2,98.85 -107.06,100.84 -98.8,101.86 36.58,4.56 546.14,-37.51 617.9,-45.15 123.53,-13.16 139.91,-22.93 242.96,-112.96 103.05,-90.04 292.79,-260.35 394.86,-346.46 102.07,-86.1 116.48,-87.99 278.82,-88.16 162.32,-0.18 472.59,1.36 594.79,6.4 122.19,5.03 56.32,13.56 -20.77,31.88 -77.09,18.32 -165.4,46.42 -281.11,66.51 -115.73,20.09 -258.85,32.18 -360.28,40.04 -101.44,7.86 -161.17,11.5 -197.71,16.24 -36.53,4.74 -49.86,10.58 -78.95,35.52 -29.08,24.96 -73.91,69.02 -95.81,92.54 -21.89,23.51 -20.83,26.47 101.32,71.85 122.16,45.39 365.39,133.2 505.59,180.65 140.22,47.44 177.41,54.52 404.49,83.21 115.66,14.61 1064.47,137.79 1098.49,112.73 18.78,-13.83 -38.09,-37.3 -171.09,-86.96 -140.26,-52.37 -404.16,-146.19 -583.22,-209.58 -137.38,-48.63 -388.41,-133.43 -379.93,-143.61 2.04,-2.44 13.38,-1.4 74.02,-15.87 136.31,-32.51 603.99,-160.73 714.24,-225.27 89.37,-52.33 25.93,-89.17 -48.72,-112.94 -163.56,-52.07 -268.58,-59.92 -560.41,-64.79 -376.33,-6.28 -1318.77,-9.63 -1668.19,0.08 -119.84,3.32 -113.94,-2.85 -32.37,52 22.86,15.37 49.84,32.23 64.94,44.61 15.09,12.37 18.27,20.26 24.5,23.74 6.23,3.47 15.49,2.55 -93.15,99.92zm-2362.72 -30.93c464.29,-3.6 1412.58,1.11 1884.18,5.42 471.59,4.31 466.48,8.22 442.53,31.72 -23.94,23.5 -66.75,66.6 -98.43,88.58 -31.69,21.99 -52.3,22.87 -432.7,17.04 -380.38,-5.82 -1120.57,-18.36 -1503.05,-26.66 -382.48,-8.3 -407.26,-12.36 -466.69,-25.93 -50.19,-11.47 -234.31,-52.26 -260,-68.22 -10.39,-6.45 -30.11,-18.37 434.17,-21.96l0.01 0z"/>
  <path class="fil1" d="M17515.48 27880.04c-25.24,19.84 -164.35,132.12 -166.56,154.8 -1.13,11.56 4.92,11.88 48.84,12.1 36.11,0.17 101.84,-0.85 139.48,-3.81 37.65,-2.96 47.22,-7.85 80.91,-36.26 25.37,-21.39 150.35,-128.23 154,-151.09 0.7,-4.34 0.11,-5.77 -33.05,-6.46l-175.15 0.26c-5.09,0.77 -12.59,2.27 -48.46,30.46zm-297.61 -42.71c-44.66,35.27 -278.85,211.89 -288.49,257.04 -4.88,22.82 13.62,37.7 31.46,45.66 24,10.72 624.29,0.56 693.9,-0.03 135.78,-1.14 140.11,-0.69 208.19,-52.71 68.08,-52.03 199.92,-156.53 267.59,-214.07 120.73,-102.68 81.34,-89.68 -101.91,-89.07l-742.8 5.01c-8.31,1.51 -12.54,4.43 -67.93,48.18zm-756.19 56.97c-25.23,19.84 -164.34,132.13 -166.55,154.8 -1.13,11.56 4.85,11.89 48.84,12.1 36.12,0.18 101.84,-0.85 139.48,-3.8 37.65,-2.96 47.22,-7.85 80.92,-36.26 25.38,-21.4 150.36,-128.22 154,-151.09 0.69,-4.32 0.11,-5.77 -33.05,-6.44l-175.15 0.25c-5.1,0.77 -12.6,2.28 -48.47,30.46zm-297.6 -42.71c-44.67,35.27 -278.85,211.88 -288.5,257.05 -4.87,22.8 13.61,37.69 31.45,45.65 24.02,10.72 624.28,0.56 693.9,-0.03 135.79,-1.14 140.11,-0.7 208.19,-52.72 68.09,-52.02 199.92,-156.52 267.58,-214.07 120.71,-102.66 81.41,-89.69 -101.91,-89.07l-742.8 5.01c-8.31,1.52 -12.55,4.44 -67.92,48.18zm-1237.91 -38.39l997.13 -8.34c111.96,-0.93 133.77,32.62 71.04,104.79l-170.86 196.58c-35.5,40.85 -77.97,59.49 -121.45,59.39l-1074.16 8.98 75.44 -91.39 706.48 -5.91c13.34,-0.12 60.26,-13.29 66.46,-32.1 6.2,-18.81 13.54,-31.66 0.2,-31.54l-522.24 4.37 57.94 -70.2 524.07 -4.38c44.09,-0.37 69.2,-63.66 48.92,-63.49l-719.03 6.02 60.06 -72.77 -0.01 0zm-1135.13 225.28c-7.92,6.63 -83.84,73.58 -76.85,79.35 12.84,10.59 272.99,-1.05 307.8,-3.36 63.25,-4.21 72.33,-9.53 96.85,-23.64 144.77,-83.3 126.99,-66.63 -8.32,-67.09l-292.85 -0.96c-3.69,0.56 -8.6,0.59 -26.63,15.7zm-1538.72 -181.79c-83.1,42.05 -238.05,140.12 -311.17,204.08 -48.15,42.13 -64.23,77.45 -25.71,115.65 10.75,10.66 21.95,15.29 236.37,16.12 214.42,0.84 632.06,-2.13 841.76,-5.46 209.68,-3.33 211.42,-7.02 215.52,-14.66 7.66,-14.29 22.93,-43.39 18.32,-60.23 -1.73,-6.28 -6.67,-7.3 -151.22,-6.61 -144.55,0.69 -428.71,3.07 -570.83,2.67 -164.69,-0.44 -168.38,6.43 -94.31,-50.89 42.16,-32.62 123.57,-92.08 174.45,-120.84 50.87,-28.76 71.23,-26.83 340.33,-28.55 269.09,-1.71 786.95,-7.1 1047.43,-9.28 260.47,-2.18 263.58,-1.15 262.14,2.53 -6.03,15.46 -116.97,68.04 -138.71,78.29 -29.45,13.89 -40.42,17.65 -76.94,20.32 -36.54,2.66 -98.63,4.24 -129.72,3.45 -51.99,-1.32 -19.39,-12.24 0.92,-55.62 4.93,-10.54 1.18,-12.6 -68.04,-13.07 -69.23,-0.47 -203.92,0.66 -274.31,2.03 -70.41,1.38 -76.52,3.01 -117.08,37.97 -22.95,19.79 -195.11,169.24 -193.51,187.11 2.32,25.91 4.59,26.97 202.83,26.9 195.62,-0.07 586.1,-6.48 782.79,-12.59 196.69,-6.09 199.61,-11.88 244.19,-34.83 44.65,-22.97 223.98,-100.84 237.13,-133.93 5.44,-13.68 -1.5,-29 -13.88,-35.05 -23.76,-11.62 -161.18,-4.42 -193.97,-6.25 -48.62,-2.71 174.9,-50.95 199.87,-91.39 15.92,-25.79 -3.38,-48.74 -40.57,-54.23l-1954.98 15.3c-385.02,3.48 -393.01,3.55 -400.99,3.88 -8,0.33 -15.98,0.92 -48.13,17.2l0.01 0z"/>
  <path class="fil2" d="M19449.26 2327.46c422.03,168.54 331.67,562.54 162.39,756.87l-689.43 652.26c-101.92,85.03 -152.02,170.05 -183.37,255.09l-529.83 0 1146.71 -1025.56c91.58,-90.75 165.31,-293.59 -108.23,-389.96l-5048.27 -1699.89c-399.12,-136.84 -482.74,-552.8 -604.34,-826.71 -19.4,-46.84 1.56,-58.94 43.33,-42.75l5811.04 2320.65 0 0.01zm-2778.36 1158.55l1752.85 194.1 -349.86 311.68 -2265.51 -1.05 862.52 -504.73zm2520.94 -489.29l-1163.02 -281.58c-18.54,-3.04 -24.32,-9.72 -11.6,-19.23 50.8,-36.74 16.08,-70.98 -26.51,-80.25l-3320.38 -847.9c-327.07,-92.98 -483.77,-470.15 -633.38,-693.25 -22.07,-42.11 -2.04,-56.05 26.14,-46.72l5189.82 1647.11c106.8,42.24 111.42,163.12 61.16,212.69l-122.24 109.14 0.01 0zm-4622.87 -1066.07l4569.85 1112.95 -287.51 256.11c-293.87,-75.84 -1126.04,-183.16 -1401.03,-258.48 -11.06,-2.88 -12.32,-10.48 0.71,-16.68 20.55,-6.03 56.21,-56.06 2.62,-69.02l-2157.23 -399.21c-427.62,-42.46 -579.67,-334.57 -751.43,-598.97 -10.66,-17.53 -2.58,-32 24.01,-26.7l0.01 0zm589.27 756.7l3648.76 651.66 -328.1 292.25 -1680.07 -199.62c-15.87,-1.38 -15.17,-12.02 -5.88,-19.22 15.45,-11.99 58.53,-57.73 -1.9,-68.38l-907.43 -118.32c-230.28,-32.54 -417.39,-119.46 -539.96,-258.18l-220.21 -249.42c-14.47,-24.81 -0.58,-40.53 34.79,-30.77zm3974.04 1778.69l267.84 0.16 -143.48 -193 -124.36 192.84zm-460.64 329.69l-0.11 -93.28c50.19,-2.6 106.12,9.58 140.19,-43.91l254.05 -383.58c34.12,-48.01 -44.6,-60.64 -154.92,-63.37l-0.02 -86.84 572.97 0.3 383.68 536.8c37.1,51.78 123.66,38.17 150.96,40.42l-0.43 93.38 -617.56 -0.04 -0.1 -93.1c94.37,2.51 154.57,-8.06 130.74,-50.79l-47.49 -62.85 -432.71 0.27 -40.84 60.91c-22.62,44.18 28.63,55.76 113.45,52.51l-0.02 93.13 -451.83 0.02zm-695.88 -548.29l1.15 420c31.13,1.12 54.92,0.58 65.62,0.58 119.66,0 225.68,15.07 284.3,-30.39 52.28,-40.54 68.45,-105.36 68.45,-176.84 0,-62.55 -4.16,-125.97 -50.57,-170.69 -55.01,-53.01 -160.89,-43.47 -262.31,-43.47 -40.62,0 -77.7,-0.87 -106.64,0.8zm-429.41 548.07l0.29 -92.81c86.34,4.66 150.11,-4.38 147.39,-53.74l0.58 -373.01c1.47,-50.92 -57.95,-64.3 -139.39,-64.11l0.5 -86.33c0,0 177.97,0.13 529.16,0.13 171.22,0 342.05,-5.09 465.74,57.73 129.24,65.63 170.49,181.33 170.49,277.95 0,97.18 -49.65,210.81 -179.13,274.85 -123.46,61.06 -285.88,58.56 -457.1,58.56 -58.37,0 -145.92,-0.42 -262.66,-1.26 -116.74,-0.84 -218.48,2.03 -275.88,2.03l-0.01 0.01zm-45.67 -669.94l-0.02 86.54c-87.01,-1.25 -136.11,13.38 -139.49,47.14l0.86 536.4 -387.5 0.54 -406.26 -493.81 -0.4 353.56c12.08,60.9 83.72,44.1 138.1,48.09l2.17 91.63 -452.44 0.14 -0.08 -93.2c40.17,-7.17 124.28,13.22 138.54,-47.57l-0.06 -383.47c0.86,-47.84 -55.17,-56.74 -139.88,-57.33l1.18 -88.32 533.37 0 397.8 480.35 0.04 -341.49c-4.89,-43.86 -57.95,-56.88 -138.04,-52.59l0.07 -86.73 452.03 0.11 0.01 -0.01zm-1856.27 95.3c-94.26,0 -158.52,9.53 -209.58,69.31 -41.34,48.4 -48.58,104.11 -48.58,170.08 0,66.57 6.42,118.3 47.19,165.72 50.71,58.96 116.93,68.61 212.12,68.61 94.26,0 155.56,-10.58 206.12,-69.7 40.92,-47.86 43.72,-101.39 43.72,-167.36 0,-65.97 -3.98,-113.26 -45.11,-161.89 -50.35,-59.54 -111.63,-74.77 -205.89,-74.77zm-4.39 -122.58c158.95,0 306.99,24 421.11,93.84 114.13,69.83 159.69,166.49 159.69,268.13 0,101.63 -45.56,195.17 -159.69,265.3 -114.13,70.13 -262.16,97.56 -421.11,97.56 -158.95,0 -310.44,-26.16 -424.57,-96 -114.12,-69.83 -156.23,-164.63 -156.23,-266.86 0,-101.64 44.98,-199.96 159.1,-269.8 114.13,-69.83 262.74,-92.17 421.7,-92.17l0 0.01zm-1044.28 297.46l0.28 -123.28c-4.34,-43.54 -53.17,-62.35 -138.85,-60.66l0.48 -86.79 571.38 0.54 -0.58 86.61c-87.04,-2.23 -138.54,10.96 -138.12,46.66l-1.77 382.59c1.46,61.22 58.91,61.28 140.12,61.32l0.64 92.37 -571.57 0.79 -0.48 -93.2c99.33,7.6 145.02,-12.46 137.01,-60.18l1.47 -115.11 -433.55 0 0.1 125.33c-2.89,47.98 59.14,57.05 147.58,50.28l0.2 92.71 -571.71 -0.1 -0.2 -93.2c84.39,5.63 138.45,-7.87 138.44,-55.5l0.27 -378.28c0.65,-39.97 -42.49,-60.1 -138.5,-56.29l-0.9 -87.89 563.61 1.09 0.29 87.15c-91.57,-1.59 -137.86,17.25 -138.89,56.51l0.86 127.09 432.4 -0.55z"/>
  <path class="fil2" d="M1737.08 2327.46c-429.12,168.54 -337.24,562.54 -165.12,756.87l701 652.26c103.64,85.03 154.58,170.05 186.45,255.1l538.72 0 -1165.95 -1025.56c-93.12,-90.75 -168.09,-293.58 110.04,-389.96l5133 -1699.89c405.83,-136.84 490.84,-552.8 614.49,-826.71 19.73,-46.84 -1.59,-58.94 -44.06,-42.75l-5908.56 2320.65 -0.01 0.01zm2824.99 1158.55l-1782.27 194.1 355.73 311.68 2303.54 -1.05 -877 -504.73zm-2563.24 -489.29l1182.54 -281.58c18.85,-3.04 24.73,-9.72 11.8,-19.24 -51.66,-36.73 -16.35,-70.97 26.95,-80.24l3376.11 -847.9c332.56,-92.98 491.89,-470.15 644.01,-693.26 22.43,-42.11 2.07,-56.04 -26.58,-46.71l-5276.93 1647.11c-108.59,42.23 -113.29,163.12 -62.19,212.68l124.29 109.14 -0.01 0zm4700.46 -1066.07l-4646.55 1112.94 292.33 256.11c298.8,-75.83 1144.95,-183.16 1424.55,-258.48 11.24,-2.87 12.53,-10.47 -0.72,-16.67 -20.89,-6.03 -57.15,-56.06 -2.66,-69.02l2193.44 -399.21c434.79,-42.46 589.39,-334.56 764.04,-598.97 10.84,-17.53 2.63,-32 -24.42,-26.7l-0.01 0zm-599.16 756.7l-3710 651.66 333.61 292.25 1708.27 -199.62c16.14,-1.38 15.43,-12.01 5.99,-19.22 -15.71,-11.99 -59.51,-57.73 1.92,-68.38l922.66 -118.32c234.15,-32.53 424.4,-119.46 549.02,-258.17l223.91 -249.42c14.72,-24.81 0.58,-40.52 -35.37,-30.77zm857.88 1778.69l272.34 0.16 -145.88 -193 -126.46 192.84zm-468.36 329.69l-0.12 -93.28c51.03,-2.6 107.9,9.58 142.54,-43.91l258.32 -383.57c34.68,-48.01 -45.36,-60.65 -157.53,-63.37l-0.02 -86.83 582.59 0.3 390.12 536.8c37.72,51.77 125.74,38.16 153.49,40.42l-0.44 93.38 -627.92 -0.04 -0.1 -93.1c95.95,2.51 157.16,-8.06 132.93,-50.8l-48.28 -62.84 -439.98 0.27 -41.52 60.92c-23,44.17 29.11,55.74 115.35,52.5l-0.03 93.13 -459.4 0.02zm-707.56 -548.29l1.16 420c31.66,1.12 55.85,0.58 66.72,0.58 121.67,0 229.47,15.07 289.08,-30.39 53.15,-40.54 69.59,-105.36 69.59,-176.84 0,-62.55 -4.23,-125.96 -51.42,-170.69 -55.92,-53.01 -163.59,-43.47 -266.71,-43.47 -41.3,0 -79,-0.87 -108.42,0.81zm-436.63 548.07l0.29 -92.8c87.8,4.66 152.64,-4.38 149.87,-53.75l0.58 -373.01c1.5,-50.92 -58.92,-64.29 -141.72,-64.11l0.51 -86.33c0,0 180.97,0.13 538.05,0.13 174.09,0 347.79,-5.09 473.56,57.72 131.41,65.64 173.35,181.34 173.35,277.95 0,97.18 -50.49,210.81 -182.13,274.85 -125.53,61.06 -290.68,58.56 -464.77,58.56 -59.35,0 -148.37,-0.42 -267.07,-1.26 -118.7,-0.84 -222.14,2.03 -280.51,2.03l0 0.01zm-46.44 -669.94l-0.03 86.54c-88.47,-1.25 -138.4,13.38 -141.83,47.14l0.88 536.4 -394.01 0.53 -413.07 -493.8 -0.41 353.55c12.29,60.9 85.13,44.1 140.42,48.09l2.2 91.63 -460.04 0.14 -0.06 -93.2c40.83,-7.17 126.36,13.23 140.86,-47.57l-0.06 -383.47c0.87,-47.84 -56.09,-56.74 -142.22,-57.33l1.21 -88.32 542.32 0 404.48 480.35 0.04 -341.49c-4.97,-43.86 -58.93,-56.88 -140.36,-52.59l0.07 -86.73 459.63 0.11 -0.01 -0.01zm-1887.42 95.3c-95.85,0 -161.18,9.54 -213.1,69.31 -42.04,48.4 -49.39,104.11 -49.39,170.08 0,66.57 6.53,118.3 47.99,165.72 51.55,58.97 118.89,68.62 215.67,68.62 95.84,0 158.17,-10.58 209.59,-69.71 41.61,-47.85 44.45,-101.38 44.45,-167.36 0,-65.97 -4.05,-113.26 -45.87,-161.89 -51.19,-59.54 -113.5,-74.77 -209.33,-74.77zm-4.49 -122.58c161.62,0 312.14,24 428.18,93.84 116.04,69.83 162.36,166.49 162.36,268.13 0,101.63 -46.32,195.17 -162.36,265.3 -116.04,70.14 -266.57,97.56 -428.18,97.56 -161.61,0 -315.65,-26.16 -431.69,-96 -116.04,-69.83 -158.85,-164.62 -158.85,-266.86 0,-101.64 45.73,-199.96 161.78,-269.79 116.04,-69.84 267.16,-92.18 428.77,-92.18l0 0.01zm-1061.8 297.46l0.29 -123.28c-4.42,-43.54 -54.07,-62.35 -141.19,-60.66l0.49 -86.8 580.98 0.55 -0.59 86.6c-88.5,-2.22 -140.87,10.96 -140.44,46.67l-1.81 382.59c1.48,61.22 59.89,61.28 142.48,61.32l0.65 92.36 -581.17 0.79 -0.49 -93.2c101.01,7.6 147.45,-12.46 139.31,-60.18l1.49 -115.12 -440.82 0 0.1 125.33c-2.94,47.98 60.14,57.05 150.06,50.28l0.21 92.71 -581.3 -0.1 -0.2 -93.2c85.8,5.64 140.77,-7.87 140.75,-55.5l0.28 -378.27c0.67,-39.97 -43.21,-60.09 -140.83,-56.28l-0.92 -87.9 573.08 1.1 0.3 87.15c-93.11,-1.59 -140.18,17.25 -141.23,56.51l0.88 127.08 439.65 -0.55z"/>
 </g>
</svg>
