<?xml version="1.0" encoding="UTF-8"?>
<!DOCTYPE svg PUBLIC "-//W3C//DTD SVG 1.1//EN" "http://www.w3.org/Graphics/SVG/1.1/DTD/svg11.dtd">
<!-- Creator: CorelDRAW -->
<svg xmlns="http://www.w3.org/2000/svg" xml:space="preserve" width="491.514mm" height="372.258mm" version="1.1" style="shape-rendering:geometricPrecision; text-rendering:geometricPrecision; image-rendering:optimizeQuality; fill-rule:evenodd; clip-rule:evenodd"
viewBox="0 0 4399.09 3331.74"
 xmlns:xlink="http://www.w3.org/1999/xlink"
 xmlns:xodm="http://www.corel.com/coreldraw/odm/2003">
 <defs>
  <style type="text/css">
   <![CDATA[
    .fil1 {fill:black}
    .fil0 {fill:red}
    .fil2 {fill:white}
   ]]>
  </style>
 </defs>
 <g id="Camada_x0020_1">
  <metadata id="CorelCorpID_0Corel-Layer"/>
  <path class="fil0" d="M1669.41 716.71c42.65,-0.59 22.61,56.27 -8.84,80.68 -19.92,15.47 -45.55,18.8 -70.41,20.74 -20.43,1.59 -30.14,22.51 -46.05,44.49l-27.43 39.57c-12.03,22.68 36.19,10.88 55.03,10.58 123.15,-2.39 261.48,-30.46 314.38,-157.17 15.08,-36.12 19.13,-87.76 -18.03,-112.16 -50.22,-29.99 -148.87,-21.64 -207.22,-18.38 -47.5,2.65 -97.95,4.75 -145.44,5.66 -17.07,0.33 -58.4,1.34 -73.72,-4.66 -31.38,-14.39 -3.15,-55.96 15.02,-70.13 29.67,-23.14 69.7,-15.85 104.59,-19.26 36.67,-6.25 40.04,-30.47 60.37,-58.16 16.78,-22.85 18.89,-31.08 -11.29,-43.37 -17.88,-7.28 -49.78,-4.29 -69.61,-3.91 -118.97,2.28 -241.28,12.81 -313.8,120.61 -30.78,48.37 -47.83,116.7 10.52,152.85 43.17,26.74 134.16,21.14 184.42,19.22 82.22,-3.13 165.25,-6 247.5,-7.21zm-534.12 212c19.4,-0.46 303.9,-3.82 328.35,-12.41 3.49,-15.96 0.73,-24.78 1.47,-39.36 0.8,-15.68 7.51,-55.36 -4.74,-55.01l-110.84 4.72c-64.84,10.16 -80.51,-6.34 -170.3,36.16 -10.85,5.13 -54.85,28.17 -62.05,40.6 -9.17,15.81 0.43,25.55 18.1,25.31zm-242.9 -494.37c-6.44,29.45 -1.63,72.35 0.15,104.29 15.92,9.7 38.62,3.5 57.63,4.02 53.46,1.45 112.73,3.01 163.01,-17.48 25.45,-10.37 98.36,-45.49 104.33,-74.38 4.04,-19.58 -42.24,-16.56 -53.96,-16.54 -36.84,0.04 -73.53,-1.66 -110.68,-1.56 -42.39,0.14 -83.64,0.13 -126.03,-0.82 -10.75,-0.24 -24.2,-0.89 -34.45,2.47zm4.14 298.97c0.27,19.22 -14.42,52.09 -21.24,68.61 -12.44,30.12 -12.64,28.68 -62.06,28.9 -9,0.04 -12.68,-0.89 -18.86,3 -12.5,7.86 -32.85,35.91 -42.18,48.22 -10.45,13.78 -25.09,27.67 -26.12,42.49 7.33,8.21 10.43,8.86 31.53,9.43l122.05 0.09c49.48,-3.76 99.83,-1.02 138.96,-31.53 17.51,-13.65 28.31,-23.27 38.77,-45.71 8.7,-19.78 54.88,-129.58 59.99,-149.24 4.96,-19.1 8.64,-23.57 8.38,-42.36 -6.64,-29.82 -26.49,-26.19 -52.02,-26.53 -46.85,-0.62 -91.97,-1.34 -138.92,-0.82 -67.79,0.66 -136.63,-0.39 -204.52,-0.9 -19.83,-0.15 -57.07,-4.39 -73.38,5.14 -19.72,11.53 -10.57,33.2 2.12,46.09 17.32,15.9 43.21,28.7 66.19,34.21 54.45,13.04 108.37,1.52 160.85,9.03 3.58,0.51 6.93,1.14 10.47,1.87zm-592.43 64.53c2.86,13.06 5.36,12.69 17.27,16.16l61.57 18.37c81.58,25.85 178.07,50.76 259.78,78.13 44.42,14.88 29.86,6.53 29.35,-48.17 -0.45,-47.8 -8.85,-24.58 -72.78,-32.89 -79.23,-13.13 -81.89,-79.13 -57.88,-142.12 20.68,-54.25 62.32,-104.31 117.96,-124.35 29.05,-10.05 64.77,-14.04 95.3,-18.04 18.64,-2.44 17.09,-0.47 27.46,-12.2 1.62,-1.84 57.58,-81.82 57.94,-90.28 0.42,-9.77 -7.68,-9.07 -12.55,-9.27 -6.8,-0.27 -13.05,-1.7 -17.8,-1.63 -65.02,0.76 -116.86,-0.96 -181.9,10.58 -93.98,16.79 -160.35,40.07 -230.68,108.09 -44.16,43.24 -67.86,78.35 -86.1,137.92 -10.08,32.92 -13.8,75.75 -6.95,109.7z"/>
  <path class="fil1" d="M584.67 1891.18l-4.54 4c-5.61,2.62 -11.81,9.55 -15.52,15.29l1.39 5.87c9.47,3.67 11.76,1.52 20.12,-2.31l272.46 -130.92c387.46,-194.4 787.52,-461.26 1113.88,-746.75 70.18,-61.39 141.85,-134.1 104.14,-235.54 -15.1,-40.62 -145.99,-177.74 -181.39,-183.3 -12.91,-2.03 -4.7,8.43 0.73,16.32 29.74,43.15 30.45,66.45 11.87,119.56 -53.44,152.79 -214.97,177.48 -355.71,185l-7.4 0.39c-58.35,3.15 -34.32,-12.54 -70.18,-0.26 -25.96,8.89 -120.67,10.77 -152.07,11.2 -53.77,0.74 -104.84,2.81 -159.37,4.11 -15.69,0.37 -20.37,2.45 -36.88,0.18 -20.77,-2.86 -40,-15.97 -38.02,-39.95 1.32,-16.04 7.29,-18.16 7.09,-32.01 -20.62,-13.4 -21.89,2.96 -35.62,17.73l-43.82 35.05c-9.36,5.29 -18.87,8.28 -28.03,11.57 -67.92,24.41 -131.92,-7.02 -120.04,31.9 95.23,35.71 210.67,71.56 279.21,153.87 87.43,113.37 19.98,243.24 -67.79,331.62 -76.53,77.07 -173.77,160.97 -256.4,233.28 -56.79,49.7 -114.07,98.01 -174.22,143.63 -22.22,16.46 -40,34.66 -63.9,50.47z"/>
  <path class="fil0" d="M2800.61 931.69c32.38,3.09 26.24,-8.75 25.59,-63.46 -0.56,-47.8 -8.91,-24.56 -72.86,-32.72 -106.29,-13.57 -73.78,-137.05 -27.57,-198.11 54.89,-71.43 97.53,-75.47 182.26,-86.76 18.63,-2.48 17.09,-0.51 27.43,-12.27 1.62,-1.84 57.39,-81.96 57.73,-90.42 0.4,-9.77 -7.7,-9.05 -12.57,-9.24 -6.8,-0.26 -13.05,-1.66 -17.81,-1.59 -38.2,0.62 -78.16,0.7 -116.17,2.41 -48.84,2.19 -127.38,18.29 -172.97,36.78 -63.67,25.82 -119.74,68.86 -162.16,122.94 -35.03,44.66 -60.11,119.54 -40.5,175.19 6.02,17.08 14.52,30.67 25.45,44.98 70.73,90.17 189.82,110.11 304.14,112.28zm1022.59 -211.46c42.64,-0.69 22.74,56.21 -8.65,80.71 -19.88,15.51 -45.51,18.91 -70.36,20.91 -20.42,1.64 -30.09,22.58 -45.94,44.6l-27.33 39.64c-11.98,22.71 36.21,10.79 55.06,10.45 63.19,-1.12 129.1,-8.69 185.92,-32.92 40.86,-17.43 70.79,-40.05 97.96,-73.66 26.51,-36.89 47.95,-75.58 38.37,-126.2 -17.46,-65.39 -114.29,-58.94 -166.97,-57.97 -42.31,0.78 -82.51,4.94 -124.65,5.32 -32.35,0.3 -63.45,3.28 -96.22,3.47 -15.45,0.09 -53.41,1.62 -66.8,-5.5 -32.39,-17.25 6.69,-68.76 31.49,-78.66l3.07 -1.23c19.08,-6.51 47.91,-7.57 68.22,-7.89 47.34,-0.58 43.4,-7.47 77.64,-58.44 8.4,-12.5 16.05,-18.94 15.32,-31.6 -8.7,-4.43 -34.29,-17.15 -43.55,-17 -116.91,1.84 -256.89,-1.42 -342.88,92.68 -43.16,47.23 -79.08,129.26 -17.98,178.16 42.04,33.65 154.63,23.49 207.93,22.7 42.26,-0.48 84.11,-2.89 126.42,-4.17 34.68,-1.05 69.22,-2.78 103.94,-3.39zm-533.62 213.27c19.4,-0.5 303.89,-4.54 328.32,-13.2 3.45,-15.97 0.67,-24.78 1.38,-39.36 0.77,-15.68 7.37,-55.38 -4.87,-55l-110.82 4.99c-64.81,10.31 -80.53,-6.14 -170.21,36.56 -10.84,5.16 -54.78,28.31 -61.95,40.75 -9.13,15.83 0.49,25.55 18.16,25.26zm-244.08 -493.79c-6.37,29.47 -1.46,72.35 0.4,104.29 18.49,10.93 38.62,1.82 59.22,4.01 19.11,2.03 61.39,0.35 81.55,-1.11 54.12,-3.94 87.8,-16.25 134.45,-44.31 13.17,-7.92 26.02,-16.58 36.96,-27.44 38.33,-39.81 -16.58,-36.48 -50.96,-35.72 -14.66,0.32 -20.72,-1.77 -35.38,-1.44l-169.31 -0.06c-14.27,-0.16 -45.67,-2.81 -56.93,1.79zm4.85 298.96c0.31,19.22 -14.29,52.13 -21.08,68.67 -12.37,30.14 -12.57,28.71 -61.99,29.05 -9,0.06 -12.68,-0.86 -18.86,3.04 -12.49,7.89 -32.76,35.99 -42.07,48.32 -10.42,13.81 -25.03,27.73 -26.02,42.55 7.35,8.2 10.45,8.83 31.55,9.36l122.05 -0.2c60.32,-4.5 117.14,-1.43 160.84,-51.56 16.68,-19.14 33.75,-65.51 44.02,-90.48 9.81,-23.85 19.22,-47.75 28.02,-71.99 5.85,-16.2 17.24,-49.91 10.57,-65.76 -14.72,-22.12 -48.26,-15.98 -71.2,-16.34 -35.11,-0.56 -67.02,-1.16 -102.3,-0.29 -72.34,1.62 -147.02,0.89 -219.44,-0.21 -24.3,-0.37 -100.51,-10.34 -82.11,35.69 10.32,25.82 52.21,43.56 77.53,49.88 57.39,13.32 116.62,-0.55 170.48,10.28z"/>
  <path class="fil1" d="M3801.42 1887.55c8.13,6.73 13.49,8.35 20.63,18.68l-1.22 5.91c-9.36,3.95 -11.7,1.87 -20.18,-1.7 -204.41,-90.76 -393.97,-173.56 -591.1,-281.34 -100.26,-54.81 -197.84,-112.66 -294.03,-174.33 -125.12,-81.16 -553.89,-371.52 -622.39,-476.4 -63.67,-97.48 5.25,-185.67 75.67,-256.34 11.95,-11.99 70.74,-75.55 90.88,-68.61 -46.53,36.28 -24.16,131.36 1.62,173.56 47.71,78.11 148.51,125.11 241.43,131.54 111.96,7.75 222.63,10.18 333.15,10.24l-0.14 -0.05c27.61,-3.62 55.22,-7.24 79.52,-10.51 24.3,-3.28 45.29,-6.21 62.06,-12.1 16.77,-5.89 29.3,-14.74 38.44,-20.22 9.13,-5.48 14.86,-7.59 18.09,-4.04 3.23,3.55 3.95,12.76 7.54,20.92 3.59,8.16 10.05,15.26 21.93,19.53 4.78,1.72 10.44,2.98 16.39,3.96 51.58,-0.85 103.31,-1.73 155.3,-2.37 37.82,-0.41 63.09,-6.27 56,19.74 -119.7,48.49 -300.55,110.46 -313.72,264.3 -11.92,139.22 156,263.52 249.69,343.52 117.55,101.06 230.03,189.51 353.87,281.98 6.96,5.2 13.31,9.43 20.58,14.15z"/>
  <path class="fil1" d="M2855.35 1654.2l-193.4 -75.83c-69.57,-27.39 -210.37,-103 -282.13,-59.1 -22.22,13.59 -53.13,37.54 -75.31,53.97 -44.27,32.8 -32.55,24.07 -10.79,69.63 13.36,27.97 26.38,52.62 40.44,80.65 24.5,48.83 82.16,146.69 111.05,194.1 21.1,34.63 0.71,2.69 96.94,-98.16 22.58,-23.66 47.58,-43.1 72.84,-62.13 40.71,-30.67 75.2,-45.59 117.09,-65.15 20.11,-9.39 79.54,-28.11 103.65,-32 11.04,-1.78 12.79,2.74 19.62,-5.98zm1508.76 1435.82c36.25,22.83 31.17,18.59 29.67,-55.55 -1.01,-49.77 -6.2,-235.97 3.53,-276.05 0.99,-4.06 4.97,-7.01 -3.66,-20.3 -4.08,-6.28 -9.88,-8.74 -16.87,-12.88 -101.47,-60.17 -197.09,-122.55 -298.19,-183.69 -96.81,-58.54 -198,-125.26 -294.76,-183.46 -75.45,-45.39 -142.18,-84.63 -207.2,-141.52 -15.15,-13.26 -42.52,-41.55 -57.83,-49.29 5.26,10.24 1.78,99.44 -1.35,118.3 -8.75,52.75 -6.52,67.38 -29.96,129.64 -26.8,71.22 -65.8,138.89 -120.35,197.16 -16.23,17.34 -33.5,30.97 -47.7,46.39 5.68,2.57 88.52,0.29 106.17,1.98 122.33,11.67 165.13,39.59 181.2,42.65 44.64,8.48 148,70.01 200,94.07 27.37,12.66 219.16,113.98 365.69,192.19 59.27,31.64 138.93,67.19 191.6,100.36zm-3340.29 -1096.62c-2.46,8.09 -1.36,10.84 -8.56,14.02 -3.33,19.39 -23.23,76.48 -21.41,98.31 1.83,21.94 0.41,-12.86 -3.92,33.11 -12.51,132.83 41,276.39 132.05,375.23 26.75,29.03 67.71,63.7 101.33,83.24 9.06,5.27 30.45,15.9 34.19,21.14 -6.74,-2.23 -34.47,-5.52 -44.86,-6.7 -16.91,-1.92 -32.17,-2.29 -49.43,-5.62 -21.66,-4.18 -65.29,-48.86 -82.56,-67.89 -76.5,-84.28 -131.47,-207.87 -137.39,-321.32 -1.82,-34.83 -1.81,-70.99 1.75,-101.99l8.63 -48.6c3.02,-14.84 -1.63,-8.75 11.5,-22.46 12.64,-13.21 45.33,-49.8 51.68,-62.06 3.07,-5.92 0.67,-0.9 1.79,-4.8 0.05,-0.19 0.12,-0.93 0.15,-1.09l0.08 -1.38c0.09,-0.27 4.02,-3.7 4.23,-3.87 4.03,-3.38 12.11,-12.43 16.59,-17.76 -4.68,7.09 -15.02,31.69 -15.83,40.49zm2165.94 -204.45l24.84 14.22c75.85,52.14 92.51,72.41 149.24,145.23l-42.02 -106.61c-28.25,-17.09 -40.9,-17.54 -72.21,-30.69 -17,-7.14 -48.87,-15.57 -59.84,-22.14zm226.5 271.2c12.56,49.18 24.71,93.62 27.31,146.82 6.52,133.25 -53.41,274.27 -148.82,368.9 -28.03,27.8 -70.51,60.58 -104.98,78.6 -9.29,4.85 -31.14,14.51 -35.1,19.58 15.63,-4.41 73.72,-4.99 94.75,-8.07 21.82,-3.2 67.43,-45.87 85.54,-64.1 80.22,-80.75 140.7,-201.74 151.73,-314.81 3.39,-34.71 5,-70.83 2.84,-101.96l-6.43 -48.94c-2.35,-14.96 2.02,-8.67 -10.47,-22.96 -12.03,-13.76 -43.04,-51.79 -48.83,-64.32 -4.25,-9.2 1.83,-4.46 -5.74,-11.41 -3.87,-3.56 -11.54,-12.97 -15.78,-18.49 4.36,7.29 13.58,32.33 13.99,41.16zm-570.84 -369.29c-74.25,21.29 -115.14,32.41 -182.72,71.46 -67.02,38.71 -134.02,107.57 -180.86,184.98 -11.21,18.53 -6.58,21.21 10.46,47.39 4.64,7.13 6.61,19.81 16.81,1.8l25.57 -44.28c58.47,-96.62 163.86,-167.02 242.79,-195.09 24.13,-8.58 41.29,-12.48 66.98,-19.03 40.2,-10.24 102.74,-14.56 145.08,-9.77 14.02,1.59 63.15,5.47 74.41,11.53 -22.15,-13.41 -32.99,-14.84 -56.75,-24.74 -25.03,-10.43 -78.28,-35.28 -100.6,-32.77 -38.83,4.37 -24.23,-0.06 -61.16,8.52zm-1261.9 -45.97c9.77,-0.24 17.57,2.62 27.2,5.31l91.31 30.7c46.49,23.86 25.57,9 88,48.92 65.21,41.69 129.04,113.5 172.35,192.94 10.37,19.02 5.62,21.49 -12.58,46.87 -4.96,6.91 -7.49,19.49 -16.87,1.04l-23.55 -45.39c-54.06,-99.15 -156.17,-174.23 -233.76,-205.83 -23.72,-9.66 -40.69,-14.33 -66.06,-22.03 -39.69,-12.05 -101.98,-19.17 -144.5,-16.29 -14.08,0.95 -63.33,2.62 -74.85,8.16 22.74,-12.4 33.63,-13.34 57.81,-22.16 25.47,-9.29 79.79,-31.72 101.97,-28.2 30.16,4.78 13.42,2.71 32.98,1.06 6.26,-0.53 1.07,0.03 0.54,4.89zm-431.5 162.84l21.52 -18.87c73.95,-54.8 98.53,-63.97 185.83,-93.97l-114.48 5.11c-25.34,21.16 -29.87,32.99 -52.49,58.33 -12.28,13.76 -30.6,41.16 -40.38,49.4zm1594.68 175.09c-44.76,38.06 -77.16,85.46 -95.05,140.83 -5.37,16.61 -16.34,61.61 -14.84,75.16 1.65,14.85 168.23,226.11 185.32,236.8 1.48,-10.29 79.14,-133.58 95.38,-160.42 47.82,-79.03 -8.76,-68.02 252.21,81.1 19.37,11.07 22.99,6.22 -6.66,43.37 -11.04,13.83 -24.05,25.69 -37.16,36.7 -26.51,22.24 -51.75,36.14 -81.4,46.77 -28.6,10.26 -57.04,16.64 -88.78,16.35 -13.29,-0.12 -58.91,-3.88 -72.03,-7.96 -17.08,-5.32 -1.9,-4.89 -24.05,-6.15 8.89,6.6 29.92,34.55 37.69,43 8.89,9.67 57.64,7.66 67.35,6.6 6.52,-0.71 11.72,-0.25 18.66,-1.25 45.02,-6.5 94.7,-22.35 133.78,-47.55 100.48,-64.78 144.85,-158.27 144.9,-276.57 0.01,-23.37 -4.76,-47.9 -10.02,-69.35 -16.97,-69.18 -67.05,-139.1 -134.83,-183.78 -66.89,-44.09 -118.48,-43.99 -183.35,-49.49 -6.21,-0.06 -32.26,4.38 -35.74,5.17 -77.21,22.69 -92.19,20.34 -151.37,70.66zm-33.88 94.11c22.04,-36.43 47.01,-63.5 78.39,-84.43 85.73,-57.15 203.35,-68.04 292.39,-14.15 15.96,9.66 2.69,15.11 -7.07,31.23l-112.35 185.65c-7.51,12.41 -9.39,29.82 -21.91,22.24 -38.36,-23.19 -206.97,-122.42 -229.46,-140.54zm648.93 52.81c-7.53,-4.65 -30.87,-4.35 -41.25,-6.36 8.9,-8.56 16.7,-7.25 29.37,-12.66 16.75,-10.67 39.28,-12.79 54.63,-22.75 -0.67,-11.43 3.91,-19.83 -6.85,-27.82 -7.21,6.79 -73.78,28.98 -88.2,36.22 -24.4,12.24 -9.73,-3.26 -25.05,8.09 -10.34,7.67 -10.83,4.21 -17.71,10.04 1.36,7.83 -2.15,21.58 5.63,28.18 6.88,5.83 76.16,7.3 98.67,14.65 -12.48,11.99 -60.16,27.27 -65.97,28.75l-26.49 15.07c0.44,5.43 2.4,22.9 5.24,27.68 9.38,4.59 135.34,14.53 142.74,12.82 1.98,-22.39 -5.22,-25.39 -18.7,-30.57l-5.56 1.42c-4.62,4.22 -68.23,-4.12 -71.63,-5.2 6.13,-5.89 15.25,-9.79 22.91,-11.26 11.26,-2.16 2.57,2.63 14.88,-5.42l49.07 -22.07c-3.84,-10.77 -3.58,-21.28 -6.45,-32.66l-49.26 -6.13zm-293.03 -216.21l11.73 5.87 51.67 -82.49c0.55,4.59 1.21,2.02 -0.21,10.77l-19.42 63.35c-7.7,27.72 -10.09,22.88 8.22,33.95 13.01,7.87 22.48,-9.16 39.93,-26.55 8.86,-8.83 28.65,-25.89 35.23,-36.18 7.86,14.89 -30.52,50.91 -41.01,81.72 23.95,20.73 22.74,13.59 44.01,-22.41l48.48 -83.98 -30.97 -20.41c-17.99,0.15 -57.13,57.93 -73.66,60.26 4.31,-13.22 24.62,-78.68 24.66,-88.23l-27.73 -18.46c-10.05,-6.08 -6.41,-6.08 -11.7,0.96 -1.09,1.46 -8.64,15.89 -10.65,19.25l-45.16 72.87c-8.79,11.98 -18.2,20.77 -3.42,29.72zm-267.09 17.6c1.4,-0.95 46.74,-22.32 50.71,-23.78 14.69,-5.42 29.5,-12.58 33.88,-31.07 10.05,-42.35 -35.71,-50.91 -37.47,-51.91 19.01,-25.18 -5.46,-60.22 -36.11,-52.57 -13.04,3.25 -68.02,22.81 -75.22,32.55l51.37 127.48 12.84 -0.69zm-27.27 -117.96c3.72,-3.35 42.44,-26.74 53.48,-7.3 11.02,19.39 -25.47,27.21 -38.95,36.36 -11.46,-10.18 -13.89,-17.61 -14.53,-29.07zm19.15 52.17c18.87,-8.8 51.89,-26.81 61.85,-4.88 10.77,23.69 -32.08,29.4 -46.35,37.93 -7.21,-8.72 -1.32,0.05 -5.98,-10.37l-9.51 -22.68zm-1177.55 21.51l2.71 -3.1c-6.52,12.19 -1.18,-8.68 -1.86,8.68 11.56,0.67 9.71,4.47 22.93,7.82l-1.96 -1.87c9.77,12.21 42.1,31.52 59.16,47.4 43,40.04 73.23,88.84 88.61,144.97 4.61,16.84 13.55,62.28 11.44,75.76 -2.31,14.76 -178.24,218.3 -195.8,228.21 -1.01,-10.35 -73.04,-137.01 -88.05,-164.55 -44.21,-81.1 11.81,-67.55 -255.6,69.66 -15.52,7.97 -19.07,6.6 -12.31,19.36 1.76,3.32 13.27,19.12 17.01,24.27 10.4,14.31 22.87,26.75 35.47,38.33 25.47,23.42 50.07,38.43 79.21,50.39 28.11,11.54 56.24,19.19 87.95,20.33 13.28,0.48 59.02,-1.22 72.32,-4.71 17.31,-4.54 2.12,-4.8 24.3,-5.06 -9.18,6.19 -31.44,33.17 -39.59,41.26 -9.32,9.26 -57.93,5.06 -67.58,3.56 -6.48,-1.01 -11.69,-0.78 -18.59,-2.09 -44.68,-8.52 -93.59,-26.59 -131.5,-53.53 -97.46,-69.24 -137.58,-164.63 -132.29,-282.81 1.04,-23.34 6.92,-47.64 13.14,-68.82 20.07,-68.35 73.24,-135.94 142.97,-177.52 68.81,-41.03 120.35,-38.6 185.39,-41.17l8.2 0.92c0.41,0.11 1.25,0.43 1.71,0.54l25.56 5.32c10.75,3.69 60.19,21.75 67.06,18.47zm110.58 154.47c-20.38,-37.38 -44.1,-65.56 -74.51,-87.87 -83.07,-60.96 -200.08,-77.13 -291.46,-27.31 -16.38,8.93 -3.36,14.97 5.65,31.51l103.87 190.52c6.94,12.73 8.03,30.22 20.88,23.21 39.37,-21.44 212.27,-112.97 235.56,-130.06zm-196.34 -285.58c-6.84,5.61 -14.14,27.78 -19.41,36.95 -5.2,-11.2 -1.43,-18.15 -2.43,-31.89 -4.65,-19.31 0.66,-41.3 -3.77,-59.06 -5.34,-1.49 -6.42,-2.12 -10.93,-4.06 -3.9,-1.73 -2.83,-1.27 -6.68,-1.96 -5.03,0.59 -5.85,-0.03 -10.93,3.47 4.08,9.03 3.44,79.19 5.6,95.18 3.65,27.05 -6.25,8.14 -0.49,26.31 3.89,12.27 0.47,11.61 3.74,20.01 7.85,1.25 19.72,9.04 28.48,3.83 7.75,-4.61 31.65,-69.66 45.9,-88.56 7.29,15.69 6.25,65.76 5.76,71.74l5.64 29.95c5.28,1.35 22.43,5.17 27.88,4.04 7.39,-7.38 57.7,-123.28 58.49,-130.84 -20.54,-9.15 -25.7,-3.31 -34.98,7.76l-0.47 5.72c2.49,5.74 -26.06,63.19 -28.19,66.06 -3.58,-7.71 -4.3,-17.6 -3.2,-25.33 1.29,-9.1 3.15,-3.78 0.24,-14.12 -0.12,-0.42 -0.42,-1.26 -0.54,-1.72 -0.13,-0.5 -0.39,-1.37 -0.51,-1.91l-4.38 -49.77c-0.02,-0.36 -0.04,-1.26 -0.04,-1.89 -11.44,0.13 -21.29,-3.53 -32.98,-4.51l-21.8 44.59zm-299.67 206.91l9.37 -9.19 -61.23 -75.66c4.52,0.97 2.3,-0.49 10.12,3.7l53.6 38.95c23.71,16.29 18.36,16.97 34.78,3.26 11.67,-9.75 -1.36,-24.24 -12.14,-46.39 -5.47,-11.24 -15.18,-35.5 -22.77,-45.07 16.63,-2.59 38.23,45.4 63.97,65.33 27.38,-15.92 20.24,-17.09 -6.9,-48.91l-63.68 -73.13 -29.36 22.66c-5.7,17.06 36.24,72.85 33.06,89.24 -11.1,-8.37 -66.41,-48.84 -75.44,-51.98l-26.47 20.23c-9.02,7.53 -7.83,4.09 -2.89,11.38 1.02,1.51 12.22,13.33 14.74,16.32l54.25 66.38c8.48,12.21 13.73,23.96 26.99,12.88zm-70.11 258.33c-2.15,-8.02 -2.2,-10.28 -2.4,-18.36 -0.03,-1.23 -0.22,-8.27 -0.21,-8.43 0.45,-9.16 -0.51,-1.86 1.77,-9.55 -6.48,-7.96 -4.89,-8.56 -5.21,-17.23 -0.02,-0.64 0.05,-1.47 0.03,-2.11 -0.09,-3.87 0.02,-5.13 -0.33,-8.34 -1.34,-12.3 -4.54,-25.26 -18.05,-33.8 -36.79,-23.26 -59.75,17.24 -61.27,18.58 -17.64,-26.16 -58.73,-14.4 -61.45,17.07 -1.16,13.39 -0.52,71.74 6.35,81.71l137.25 -7.18 3.52 -12.37zm-120.42 -12.52c-1.96,-4.6 -11.51,-48.82 10.47,-52.95 21.91,-4.12 17.46,32.93 21.74,48.65 -13.35,7.53 -21.17,7.41 -32.21,4.3zm55.57 -1.17c-2.2,-20.7 -8.5,-57.79 15.47,-60.08 25.91,-2.48 17.39,39.89 20.82,56.16 -10.59,3.98 -0.38,1.27 -11.75,2.29l-24.55 1.63zm-1043.87 765.35l-0.4 -2.57c-0.15,-0.17 -1.16,-0.76 -1.66,-1.25 -57.88,31.56 -51.77,38.65 -46.24,-46.12 0.88,-13.46 5.6,-5.19 -3.29,-17.51 4.41,-6.66 3.62,-8.55 4.57,-19.85l0.04 -42.5c-3.36,-14.77 8.74,-0.83 1.16,-39.73 -2.64,-13.58 -1.12,5.49 -0.55,-2.98 0.59,-8.74 -2.98,10.95 1.41,-3.71 1.83,-6.13 2.09,-9.6 2.23,-16.44l0.77 -85.3c-0.09,-0.48 0.02,-2.93 0.15,-3.38 4.39,-14.28 5.22,-30.14 2.41,-44.52 -0.8,-4.1 -4.65,-7.23 4.57,-20.11 4.35,-6.09 10.26,-8.28 17.43,-12.11 104.08,-55.54 202.41,-113.55 306.16,-170.07 99.34,-54.12 203.44,-116.21 302.72,-170 77.42,-41.95 145.85,-78.14 213.37,-132.04 15.74,-12.56 44.35,-39.6 60,-46.64 -5.72,10 -6.26,99.26 -3.99,118.24 6.36,53.08 3.48,67.6 24.09,130.86 23.57,72.36 59.48,141.71 111.35,202.38 15.43,18.05 32.07,32.45 45.56,48.49 -11.21,4.46 -39.58,-4.02 -55.69,-1.77l-26.07 1.15c-5.19,0.62 -6.93,-3.06 -24.38,-2.19 -122.73,6.15 -166.75,32.12 -182.94,34.44 -44.98,6.46 -151.01,63.28 -204.03,84.96 -45.92,18.78 -547.1,257.17 -548.74,260.26zm1550.74 -1359.52l196.62 -67.04c70.74,-24.23 214.8,-93.41 284.5,-46.34 21.59,14.58 51.39,39.89 72.81,57.31 42.74,34.76 31.43,25.51 7.65,70.05 -14.6,27.34 -28.72,51.38 -44.03,78.75 -26.68,47.68 -88.68,142.84 -119.68,188.9 -22.64,33.64 -0.83,2.66 -92.42,-102.43 -21.49,-24.66 -45.59,-45.2 -69.97,-65.35 -39.29,-32.47 -73.07,-48.93 -114.04,-70.36 -19.67,-10.28 -78.19,-31.67 -102.11,-36.63 -10.95,-2.27 -12.9,2.16 -19.33,-6.85z"/>
  <path class="fil1" d="M3457.67 3154.93l0 6.11c-3.5,8.51 -19.23,23 -52.2,47.36 -26.38,19.49 -33.82,23.21 -74.09,29.16l-98.66 5.07c-34.28,-0.02 -65.27,2.16 -101.66,2.12 -19.82,-0.02 -31.08,2.23 -49.73,2.14 -32.73,-0.17 -135.74,-1.95 -154.84,0.88 -26.81,3.98 -85.61,3.47 -109.74,-4.47 -8.52,-2.8 -3.38,1.48 -7.75,-5.13 -2.33,-3.53 -4.9,-13.91 -7.06,-18.61l-4.87 -8.31c-5.74,-17.78 27.16,11.82 82.49,-11.63 19.93,-8.45 29.42,-16.2 39.53,-18.51 12.31,8.09 26.95,19.1 43.26,19.1 66.98,0 62.73,1.06 62.73,-25.46 15.38,3.51 20.06,14.05 33.88,19.81 56.96,23.76 75.74,5.4 113.18,5.62 24.08,0.14 99.18,1.71 117.76,-3.3 22.04,-5.94 11.87,-25.89 33.68,-26.37l0 -4.24c-3.18,0 -6,0.04 -8.54,0.12 5.86,-5.04 10.67,-11.24 14.01,-18.14 59.21,7.32 121.11,-5.21 128.63,6.69zm-1949.77 -313.3c0,18.87 -6.51,36.96 -15.26,50.53 -44.93,69.68 -41.15,-0.33 -54.83,-59.02 -8.04,3.85 -9.03,1.41 -17.97,7.51 -23.89,16.34 -44.6,57.49 -47.59,86.12 -1.91,18.28 1.48,33.98 -2.41,50.64 -14.96,-10.01 -10.75,-49.53 -13.89,-66.75 -1.64,-9 -3.43,-14.65 -5.23,-22.36 -16.22,4.33 -16.11,16.97 -38.23,16.97 -19.19,0 -8.59,-44.57 -8.41,-59.32 0.37,-29.95 -0.17,-35.22 -20.84,-59.97 -5.6,-6.7 -6.74,-9.42 -11.16,-16.43 -20.97,-33.22 -48.36,8.83 -56.03,30.9 -2.73,7.86 -4.43,12.71 -6.38,21.21 -16.58,72.44 -5,107.84 -59.13,161.59 -14.57,14.47 -37.7,49.91 -37.7,72.67 0,15.07 31.17,36.3 40.92,46.12 7.26,7.31 39.59,38.75 48.29,38.75 5.15,0 9.4,-4.45 15.37,-5.86 30.12,-7.13 35.84,-6.64 44.1,-23.84 -8.6,-5.75 -21.22,-8.25 -31.86,-8.49 6.17,-12.84 -8.67,-13.39 9.26,-20.45 13.56,-5.34 16.22,-13.26 16.22,-30.47 15.24,-8.05 8.09,-12.11 14.61,-27.84 5.98,-14.41 8.35,-29.72 10.87,-33.69 4.75,20.37 -2.5,47.28 7.52,62.5 14.39,21.85 54.64,46.44 3.1,58.44 0,8.38 0.67,8.61 2.12,14.85 19.5,4.54 79.59,-3.39 49.16,25.77 -4.71,4.52 -0.85,-1.18 -5.44,5.18 -6.03,8.35 -0,16.58 -14.06,17.81 -8.82,0.77 -14.22,-3.09 -14.09,5.65 0.29,19.74 39.84,29.17 54.52,32.59 0,29.93 -11.43,20.31 -12.74,36.07 9.58,2.23 19.46,9.19 29.11,13.35 29.76,12.82 68.59,30.45 102.57,31.2 0,-23.14 4.25,-38.92 4.25,-61.53l6.37 0c7.03,30.13 -9.08,61.52 21.13,70.12 19.15,5.45 56.29,10.5 80.81,10.5 0.14,-6.46 0.96,-7.73 2.12,-12.73 24.05,0 26.57,-2.17 44.6,-6.37 -3.6,-13.46 -20.85,-12.33 -21.24,-29.7l40.35 -10.61c-2.29,-6.33 -8.03,-7.25 -14.85,-10.63 -25.51,-12.64 -33.12,-4.1 -63.75,-4.21 -22.21,-0.09 -12.95,2.23 -30.71,-3.22 -3.07,-0.94 -7.51,-1.51 -10.8,-1.99l-25.54 -6.31c-56.12,-22.91 -92.23,-56.65 -92.23,-134.89 0,-51.62 10.53,-60.37 43.01,-92.82 44.04,-44 70.23,-45.09 131.15,-45.09 33.58,0 62.6,12.73 85.55,33.35 5.05,4.54 3.39,6 12.15,6.96 6.25,-13.01 3.38,-29.51 10.64,-42.42 6.43,-11.45 19.12,-13.95 26.25,-26.82 14.48,-26.15 9.72,-45.69 45.31,-60.82 34.57,-14.69 51.71,-9.78 91.98,-9.99 19.1,-0.1 32.53,0.75 43.08,10.01 9.89,8.69 14.26,21.11 14.26,38.8l4.25 0c9.86,-36.91 65.99,-53.04 101.95,-53.04 16.46,0 47.38,2.39 59.29,6.55 18.32,6.39 25.67,19.73 25.67,40.13l0 112.45c0,11.99 -5.4,7.37 -6.37,19.1 24.32,2.02 22.67,26.28 11.95,41.64 -5.73,8.22 -10.02,6.42 -16.2,15.64 10.28,-0.85 3.04,-0.8 11.2,-3.67 8.69,-3.06 12.05,-2.58 20.66,-0.58 0,16.19 -7.46,22.92 -20.51,30.43 -5.6,3.22 -11.55,5.51 -17.35,8.12 -9.83,4.42 -11.76,1.9 -17.36,10.25 10.34,2.76 12.24,11.3 23.4,12.69 35.94,4.48 53.75,1.91 89.17,-6.33 -3.3,39.58 -2.81,46.72 -57.35,59.41 4.53,6.17 1.27,3.1 8.9,5.96 7.86,2.95 3.01,-0.18 10.22,4.65 -11.39,16.99 -57.68,4.61 -74.34,4.24 0.86,38.37 82.89,28.11 114.11,32.41 18.97,2.61 26.01,-0.58 45.18,-0.58 -2.79,7.71 -12.25,10.52 -17.6,16.36 -6.24,6.81 -7.6,15.42 -14.08,22 -18.69,18.98 -43.14,11.23 -46.9,25.29 11.4,0 18.29,3.74 30.55,5.55 11.69,1.73 24.86,-1.04 33.17,2.94 16.09,9.63 -11.52,16.97 31.86,16.97 14.13,0 18.39,-2.12 31.86,-2.12 0,-19.51 -2.54,-21.77 18.35,-28.34 13.29,-4.18 14.14,-5.38 19.88,-16.21 -13.65,-1.13 -40.16,0.24 -48.85,-12.73 3.96,-14.83 65.8,-35.22 78.59,-38.19l0 -4.24c-12.36,-1.03 -14.83,-4.39 -31.81,-4.29 -15.31,0.09 -24.12,-1.07 -36.16,-2.07 -0.21,-9.45 -2.22,-14.9 -2.15,-27.55l0.1 -89.21c-0.5,-16.65 -4.14,-36.82 -1.88,-56.91 2.33,-20.77 1.81,-47.02 1.81,-70.33 -7.3,0.16 -3.97,-0.89 -8.84,1.78l-6.15 6.58c-1.93,2.92 0.12,-1.89 -2.32,4.05 -1.43,3.49 -0.87,1.88 -1.39,4.98 -1.34,10.51 -2.4,35.03 -4.32,44.48 -2.02,9.95 2.8,5.16 -4.6,8.14 -1.95,0.69 2.07,6.1 -4.66,-3.52 -9.08,-12.99 -14.02,-29.69 -19.92,-44.06 -3.67,-8.94 -3.37,-9.5 -8.76,-16.71 -22.65,-30.26 -52.71,-55.55 -60.35,-94.6 -8,-40.88 -9.86,-35.17 -32.03,-69.85 -8.33,-13.03 -16.59,-19.02 -16.59,-36.47 -24.68,0 -12.83,20.38 -27.61,42.43 -17.94,-14.07 -26.28,-42.99 -42.15,-62.22 -16.73,-20.81 -16.54,-27.11 -28.12,-48.44 -12.07,-22.22 -20.44,-6.2 -29.56,9.1 -10.79,18.11 -29.26,52.52 -54.05,30.16 -27.42,-24.73 -30.94,-117.1 -67.3,-37.08 -5.74,13.61 -17.72,43.56 -37.38,29.19 -23.42,-17.12 -27.94,-111.11 -57.4,-104.53l-3.02 0.99c-16.36,9.52 -23.15,74.4 -37.78,98.49 -5.45,8.97 -3.19,4.49 -4.25,15.39 -1.44,14.9 -7.85,58.38 -16.74,68.98l-4.55 4.21c-18.96,-13.88 -4.77,-46.68 -40.36,-46.68 -5.12,21.95 -9.94,39.23 -24.92,55.73 -4.3,4.74 -9.9,9.4 -17.56,10.04 -3.31,-6.25 -5.3,-11.79 -7.66,-19.94l-9.4 -45.78c-1.34,-7.76 -3.56,-18 -4.19,-25.52 -20.7,0 -37.97,-2.95 -51.97,-4.24l-19.41 0c-13.02,2.11 -21.22,10.35 -24.88,33.27 -4.75,29.77 -1.45,26.64 -1.45,53.72zm1411.92 64.7c4.96,-7.44 9.92,-14.88 16.74,-23.26 6.82,-8.37 15.5,-17.67 23.87,-15.5 14.94,3.87 27.08,40.54 32.56,49.3 3.1,4.96 6.82,7.44 15.81,-7.13 8.99,-14.57 23.26,-46.2 34.73,-65.42 11.47,-19.22 20.15,-26.05 24.19,-15.81 4.03,10.23 3.41,37.52 8.68,53.02 5.27,15.5 16.43,19.22 30.08,22.33 13.64,3.1 29.77,5.58 35.97,8.99 6.2,3.41 2.48,7.75 -1.24,12.09 -21.7,3.1 -43.41,6.2 -62.01,15.19 -18.6,8.99 -34.11,23.87 -44.34,30.08 -10.23,6.2 -15.19,3.72 -26.98,-5.58 -36.2,-28.58 -44.03,-39.42 -88.06,-58.29zm-1660.42 266.28c-2.47,-9.24 -13.22,-14.38 -21.89,-18.45 -5.92,-2.78 -24.1,-8.98 -31.21,-9.13 1.62,6.04 0.52,2.93 4.16,6.45l31.3 24.02c6.75,2.26 10.36,-1.19 17.64,-2.89zm1202.15 -246.12c-14.72,7.78 -24.31,11.3 -25.49,25.46 19.86,0 28.68,-4.24 53.1,-4.24 36.82,0 9.94,42.99 27.08,41.97 5.28,-0.32 9.7,-6.84 11.15,-12.26 -8.15,-2.17 -10.81,-6.55 -12.74,-14.85 8.23,-3.95 15.29,-2.91 9.7,-13.67 -4.96,-9.55 -9.05,-10.84 -13.95,-18.16 0.84,-10.13 2.12,-16.3 2.12,-29.7l-31.86 -21.22c-5.71,8.52 -18.16,17.44 -22.17,24.8 -3.68,6.76 -0.41,14.66 3.06,21.88zm-760.37 254.61l0 8.49c36.44,0 4.47,25.16 4.25,25.46 6.88,3.63 10.68,4.74 19.39,6.1 5.59,0.87 18.85,1.67 18.85,6.64 0,11.37 -7.26,13.94 -15.16,16.68 -5.83,2.02 -24.3,8.61 -12.26,12.5 8.2,2.65 52.11,-2.95 61.41,-3.73 -0.31,14.09 -10.45,33.79 -20.13,39.3 -12.92,7.35 -31.13,9.28 -43.59,15.86 1.48,4.09 3.02,6.12 8.71,8.42 8.09,3.25 4.95,0.07 16.78,0.07 19.45,0 29.73,18.86 29.73,-6.37 21.36,0 15.75,1.52 33.47,4.96 15.33,2.98 12.36,-1.89 23.88,-4.96 -4.46,-16.67 -17.59,-7.08 -23.36,-31.83 7.89,-2.1 20.91,-14.61 27.61,-19.1 -3.88,-7.32 -7.55,-14.48 -11.44,-22.52 -11.27,-23.26 11.97,-24.16 -31.04,-24.16 -33.62,0 -17.94,9.66 -59.47,0 0,-25.49 -2.12,-42.87 -2.12,-67.9 -7.14,5.23 -13.48,18.61 -17.59,26.99 -3.73,7.61 -3.8,7.6 -7.9,9.08zm161.42 -89.11l9.35 94.63c7.1,35.73 23.52,42.59 37.38,68.75 -6.46,3.41 -12.61,8.87 -19.12,10.61l0 4.24c29.13,6.78 32.49,7.1 62.17,-5.79 6.37,-2.77 6.21,-3.5 13.76,-5.35 4.49,-1.1 13.38,-2.2 17.99,-3.24 16.68,-3.78 45.78,-13.21 46.26,-34.42l-25.39 6.46c-6.3,2.71 -1.76,4.14 -8.59,4.14l-50.98 0c-10.17,0 -4,-9.68 -11.98,-15.61 -10.48,-7.77 -7.47,8.34 -13.89,-43.41l-2.3 -21.78 9.14 -50.67c4.37,-16.99 -0.77,-33.78 -2.2,-50.99 -14.74,-3.43 -51.52,-4.36 -57.5,6.22 -1.57,2.79 -4.1,30.21 -4.1,36.22zm543.73 133.67c7.26,10.83 15.55,5.4 31.94,6.28 10.7,0.57 8.1,2.19 15.44,3.67 8.87,1.79 8.72,-0.87 16.33,2.78 -8.4,12.53 -35.07,12.73 -50.97,12.73 0.2,8.95 -0.14,9.17 7.14,11.96 37.08,14.23 45.5,18.69 75.74,11.43 8.69,-2.09 18.35,-6.21 27.56,-6.42 -3.11,37.32 -55.82,33.88 -70.09,55.16 10.51,0 67.84,1.22 75.4,-1.06 15.59,-4.7 8.03,-32.69 17.2,-59.2 4.54,-13.11 8.34,-26.07 11.47,-39.47 -9.09,-2.12 -41.2,-22.67 -49.76,-30.92 -17.96,-17.32 -26.11,-29.26 -33.35,-53.67 -8.54,-28.8 1.18,-42.71 -18.84,-42.71 -25.24,0 -29.22,41.85 -29.8,61.46 -0.47,15.74 2.14,31.63 -2.57,44.11 -7.13,18.85 -2.59,19.14 -22.85,23.86z"/>
  <path class="fil0" d="M2920.43 3107.02l0 -36.2c-16.62,-4.09 -38.23,-3.29 -50.52,7.22 -14.34,12.27 -14.3,39.07 -2.89,51.42 11.62,12.57 36.38,10.69 45.81,1.15 5.09,-5.15 7.6,-12.99 7.6,-23.6zm-1474.13 -19.28c0,26.82 -0.01,39.31 12.7,63.69 20.13,38.59 66.29,63.61 114.73,63.61 39.11,0 34.26,1.11 68.71,-16.23 107.07,-53.91 80.56,-223.52 -64.46,-223.52 -45.32,0 -73.65,19.25 -104.6,46.15 -17.2,14.96 -27.09,42.19 -27.09,66.3zm138.06 53.04c-66.33,0 -56.3,-85.02 -10.39,-86.24 61.18,-1.62 52.89,86.24 10.39,86.24zm356.82 -186.71c-15.25,3.55 -18.82,2.32 -23.27,17.07 -3.78,12.56 -4.34,27.64 -4.34,42.34 0,8.79 15.53,9.5 22.83,15.38 5.42,4.37 14.28,16.92 18.99,19.21 13.26,6.47 54.5,-5.68 60.12,18.44l-46.73 6.37c18.07,0 41.16,7.67 61.59,-2.12 -3.6,-6.79 -4.76,-7.16 -8.5,-12.73 2.48,-3.7 21.95,-26.82 27.62,-29.7 10.49,-5.33 42.47,-2.84 42.47,-14.86 0,-60.69 5.8,-50.99 -29.73,-50.92 -14.62,0.03 -24.21,0.65 -36.11,-2.12 1.95,-23.39 8.61,-24.58 20.19,-26.51 8.58,-1.44 13.58,-0.65 22.29,-1.07 9.66,-0.47 11.54,-2.12 23.37,-2.12 0.38,-16.95 10.04,-48.16 -15.6,-52.31 -19.89,-3.22 -36.69,-2.85 -56.61,-2.85 -29.19,0 -52.53,12.84 -63.6,34.06 -1.41,2.71 -1.32,3.01 -2.69,5.8 -7.74,15.7 -3.21,5.16 -7.79,21.93 -1.58,5.78 -3.13,10.84 -4.5,16.72zm95.58 233.39c0,-12.73 1.64,-67.32 -2.44,-76.07 -7.08,-15.16 -74.54,-9.56 -80.27,-6.56 -12.59,6.6 -8.86,50.12 -8.7,65.73 0.17,16.13 2.5,19.83 17.34,21.03l74.07 -4.14zm-284.61 -44.56c0,21.4 -0.71,27.55 4.25,48.8l42.45 -0.03c41.25,0.17 25.58,-2.63 44.63,-4.22 4.29,-18.38 2.7,-52.97 -0.72,-69.3 -4.37,-20.86 -44.65,-15.57 -71.49,-15.57 -18.46,0 -19.11,22.66 -19.11,40.31zm-29.74 -140.03c0,34.14 12.4,11.92 27.93,33.63 5.88,8.21 1.2,12.06 33.84,14.99 12.93,1.16 37.56,1.2 37.91,10.99 0.55,15.34 -32.65,-1.74 -48.91,5.97 -8.96,4.25 -4.11,0.85 -6.18,6.56 12.74,0 25.49,-0.01 38.23,0 17.25,0.01 24.2,2.05 36.11,-4.24 -4.4,-6.56 -6.35,-4.71 -8.5,-12.73 4.82,-7.19 19.66,-27.3 27.48,-29.83 44.85,-14.53 44,4.2 38.36,-63.52 -33.08,-7.7 -42.44,-0 -50.98,-12.73 4.24,-15.86 34.19,-14.85 48.85,-14.85 7.29,-13.77 9.34,-36.32 0.02,-50.95 -8.7,-13.66 -70.42,-11.83 -90.16,-7.26 -9.88,2.28 -13.27,5.58 -20.35,9.37 -29.1,15.61 -24.35,35.93 -33.25,55.89 -9.8,21.96 -30.43,4.71 -30.43,58.72zm775.24 82.75c0,21.78 1.39,46.51 12.68,63.72 31.11,47.45 72.23,63.59 129.63,63.59 22.57,0 66.34,-20.64 83.41,-37.62 36.32,-36.14 46.22,-92.61 23.43,-141.25 -9.67,-20.64 -44.83,-47.68 -66.18,-54.83 -12.65,-4.24 -37.54,-7.64 -53.14,-7.29 -17.52,0.39 -35.48,3.58 -49.21,9.63 -43.19,19.04 -39.15,27.52 -54.48,36.81 -19.19,11.62 -26.14,43.55 -26.14,67.25zm91.33 16.97c0,-77.04 78.59,-54.63 78.59,-14.85 0,73.31 -78.59,49.28 -78.59,14.85zm-269.74 -127.3c0,8.5 -2.63,25.22 -3.6,32.47 -2.14,15.97 -4.08,45.77 -2.66,62.89 3.31,39.89 -0.11,21.97 -0.11,59.52 0,31.47 4.25,55.12 4.25,70.02l41.92 2.72c45.69,6.61 18.92,-27.97 17.71,-83.49 -0.32,-14.86 -2.27,-5.09 -8.32,-29.99 -3.24,-13.32 -3.62,-21.79 10.29,-25.03 3.04,6.33 1.41,6.02 2.98,13.99l13.63 41.55c2.78,10.09 4.74,19.05 4.67,31.4 -0.07,12.55 -1.2,26.36 6.33,31.87l4.49 -59.17c5.18,-29.52 16.72,-44.28 43.9,-51.62l23.89 -7.96c2.78,-3.02 2.33,-5.9 3.14,-11.71 0.9,-6.47 0.96,-8.96 1.02,-15.96 0.13,-16.69 4.27,-11.04 4.27,-36.04 0,-12.91 -2.12,-15.48 -2.12,-27.58 -38.89,0 -27.55,3.37 -70.09,31.83 -3.14,-6.53 -5.64,-18.77 -6.37,-27.58 -6.47,-0.14 -14.75,-1.57 -22.98,-2.51 -38.87,-4.42 -39.42,0.38 -66.22,0.38zm601.65 62.33c0,-15.78 1.32,-41.89 -5.47,-52.34 -3.65,-5.61 -9.95,-8.46 -19.07,-8.46 -9.65,0 -20.28,5.69 -31.83,17.06l-4.94 4.54c-15.88,15.14 -29.93,22.67 -42.31,22.67 -15.51,0 -25.37,-8.93 -25.37,-24.52 0,-16.06 10.86,-30.13 32.51,-42.19 21.65,-12.07 48.39,-18.14 80.15,-18.14 57.79,0 92,19.08 92,77.4l-1.75 56.34c0,8.96 -0.64,41.3 1.06,48.11 1.8,7.18 7.01,8.19 18.61,11.99 8.13,2.69 12.16,6.76 12.16,12.3 0,19.56 -27.52,34.15 -44.21,39.27 -17.45,5.35 -29.36,5 -43.3,-9.76 -8.13,-8.69 -12.69,-12.99 -13.52,-12.99 -4.04,0 -26.89,25.9 -68.83,25.9 -45.81,0 -79.92,-25.89 -79.92,-72.02 0,-57.42 50.58,-77.86 105.75,-77.86 11.44,0 26,1.17 38.29,2.69zm282.15 130.04c0,-10.62 1.53,-19.27 -13.6,-4.69 -14.36,13.84 -35.81,20.91 -56.06,20.91 -27.58,0 -50.9,-11.3 -69.97,-33.97 -19.07,-22.67 -28.56,-50.73 -28.56,-84.16 0,-34.22 11.61,-65.72 35.63,-89.77 22.22,-22.26 49.62,-34.66 80.75,-34.66 31.89,0 46.98,15.29 49.15,15.29 2.71,0 2.66,-12.48 2.66,-18.06 0,-16.43 0.32,-39.51 -9.34,-43.35 -8.34,-3.31 -23.47,-5.13 -23.47,-18.37 0,-11.52 13.34,-17.32 27.2,-23.13 21.28,-8.93 46.65,-17.06 67.69,-17.06 14.63,0 16.71,7.01 16.71,23.21 0,4.61 -0.53,25.44 -1.59,62.33 -1.21,43.41 -2.87,154.12 0.23,182.77 1.22,10.84 3.27,17.52 6.23,19.91 0.61,0.46 5.01,2 13.29,4.61 13.99,4.42 15.7,16.88 7.98,24.9 -2.96,3.07 -7.52,5.92 -13.75,8.61 -13.6,6.61 -27.27,11.76 -40.79,15.37 -12.16,3.27 -40.09,9.45 -47.18,2.15 -2.13,-2.23 -3.19,-6.53 -3.19,-12.84zm0 -131.81c0,-18.91 -2.74,-32.05 -8.21,-39.35 -5.54,-7.3 -14.97,-10.91 -28.26,-10.91 -14.74,0 -26.51,6.38 -35.4,19.21 -8.89,12.83 -13.37,29.97 -13.37,51.26 0,22.83 4.48,40.89 13.45,54.26 8.96,13.37 20.89,20.06 35.7,20.06 25.93,0 36.08,-18 36.08,-43.42l0 -51.11z"/>
  <path class="fil1" d="M1590.88 169.72l-5.85 33.15c-3.63,22.37 -14.84,38.17 -28.54,48.63 -12.97,9.9 -27.12,14.54 -41.78,14.59l-153.98 0.53c-3.94,0.01 -7.77,-0.9 -11.31,-2.65 -3.07,1.35 -6.34,2.07 -9.72,2.08l-88.66 0.31c-12.75,0.04 -24.43,-8.5 -29.86,-25.73l-0.17 -0.57 -2.61 -8.68 -46.44 0.16 -10.16 17.2c-6.87,12.18 -16.96,17.98 -27.76,18.02l-28.35 0.1c-14.68,0.05 -27.56,-13.39 -29.02,-35.46 -1.11,-16.81 5.26,-26.38 11.6,-37.38 5.88,-10.21 11.82,-20.36 17.76,-30.51 21.11,-36.11 42.29,-72.14 63.45,-108.19 -0.7,-3.21 -1.2,-6.51 -1.43,-9.92 -1.71,-25.62 12.43,-43.84 29.4,-44.05l89.68 -1.1c13.23,-0.16 25.34,8.9 30.66,26.99l0.15 0.5 28.09 104.05 10.91 -61.94c-5.68,-6.68 -10.01,-14.65 -10.84,-27.2 -1.63,-24.52 12.1,-42.01 28.25,-42.07l173.72 -0.6c9.03,-0.03 17.96,1.77 26.36,6.09 4.02,-2.62 8.56,-4.04 13.29,-4.06l88.3 -0.3c14.81,-0.05 28.15,11.88 31.29,33.93l9.66 71.17 41.24 -84.94c6.59,-13.88 17.25,-20.51 28.72,-20.55l28.71 -0.1c2.8,-0.01 5.54,0.48 8.14,1.44 2.07,-0.62 4.22,-0.95 6.41,-0.96l188.08 -0.65c2.65,-0.01 5.23,0.4 7.7,1.21 1.84,-0.48 3.73,-0.74 5.65,-0.75l88.29 -0.3c11.37,-0.04 22.04,6.2 28.69,20.02l0.34 0.7 23.87 54.9 7.18 -42.48c3.35,-21.31 16.35,-33.4 31.09,-33.45l28.71 -0.1c4.02,-0.01 7.89,0.94 11.45,2.77 1.72,-0.41 3.48,-0.62 5.27,-0.63l208.18 -0.72c2.96,-0.01 5.86,0.5 8.62,1.5 2.19,-0.68 4.46,-1.04 6.78,-1.05l88.3 -0.3c10.25,-0.03 19.63,6.14 25.17,17.12 5.91,-11.28 15.59,-17.26 26.09,-17.29l68.62 -0.24c3.16,-0.01 6.24,0.59 9.13,1.76 2.37,-0.83 4.84,-1.27 7.38,-1.27l173.72 -0.6c8.28,-0.03 16.49,1.49 24.28,5.07 4.13,-3 8.85,-4.65 13.81,-4.67l188.08 -0.65c15.38,-0.05 28.68,14.11 30.2,37.01 2.01,30.21 -11.96,53.84 -33.21,53.91l-0.79 0c8.92,4.89 15.65,15.7 16.69,31.27 1.17,17.42 -5.82,31.44 -16.03,38.36l-12.53 9.81c-3.12,2.51 -6.39,4.42 -9.77,5.76 11.92,2.67 21.7,14.63 22.97,33.69 1.11,16.63 -5.58,30.64 -15.25,38.12l-13.68 10.3c-6.69,5.27 -14.08,7.88 -21.71,7.91l-148.6 0.51c-4.42,0.01 -8.67,-1.12 -12.53,-3.3 -3.48,1.84 -7.27,2.83 -11.2,2.85l-68.51 0.24c-10.01,0.03 -19.46,-4.9 -25.92,-15.47 -6.03,10.26 -15.18,15.61 -25.02,15.65l-68.63 0.23c-10.55,0.04 -20.2,-6.51 -25.66,-18.11 -1.1,0.95 -2.22,1.86 -3.35,2.74 -13.04,10.09 -27.33,14.64 -42.08,14.69l-119.52 0.41c-12.51,0.04 -24.86,-3.37 -35.9,-12.11 -12.94,-10.25 -22.07,-26.86 -23.51,-48.45 -0.46,-6.96 0.04,-13.93 1.44,-20.61l16.42 -94.26 -31.77 0.11 -25.11 144.31 -0.34 1.44c-4.54,19.16 -16.76,29.46 -30.41,29.51l-68.55 0.24c-15.28,0.05 -28.65,-13.7 -30.18,-36.63 -0.03,-0.4 -0.06,-0.81 -0.08,-1.21l-0.42 -6.32 23.05 -130.88 -21.61 0.08c-3.93,0.01 -7.79,-0.63 -11.49,-2.04l-24.97 142.93c-3.55,21.08 -16.52,32.55 -31.04,32.6l-68.56 0.24c-11.82,0.04 -22.85,-6.83 -29.11,-21.75l-23.49 -53.66 -7.41 44.6 -0.39 1.63c-4.54,19.15 -16.77,29.45 -30.41,29.49l-28.71 0.1c-9.24,0.03 -17.79,-4.99 -23.44,-14.03l-7.69 5.79c-6.69,5.27 -14.08,7.89 -21.71,7.91l-148.59 0.51c-15.28,0.05 -28.65,-13.7 -30.18,-36.62 -0.03,-0.42 -0.05,-0.84 -0.08,-1.26l-0.41 -6.3 13.6 -77.2c-16.19,33.37 -32.4,66.71 -48.6,100.06 -6.63,13.65 -17.14,20.69 -28.59,20.73l-88.65 0.31c-13.89,0.05 -26.33,-10.6 -30.63,-30.28l-0.2 -0.91 -11.95 -66.55zm404.46 8.2l0.35 -1.99c-0.94,0.48 -1.89,0.9 -2.86,1.29 0.85,0.19 1.68,0.43 2.5,0.71zm-829.24 17.05l63.53 -0.22c3.59,-0.01 5.85,1.56 6.78,4.71l7.83 26c0.91,2.89 3.16,4.33 6.75,4.31l88.66 -0.3c3.11,-0.01 4.59,-1.2 4.43,-3.57l-0.05 -0.79 -49.55 -183.57c-0.93,-3.15 -3.3,-4.72 -7.13,-4.71l-89.68 1.1c-3.11,0.01 -4.58,1.33 -4.4,3.96 0.12,1.84 0.85,4.73 2.19,8.67 1.34,3.94 2.07,6.82 2.19,8.67 0.17,2.63 -0.38,5.13 -1.66,7.5 -62.77,106.94 -94.14,160.67 -94.11,161.19 0.1,1.58 1.35,2.36 3.75,2.35l28.35 -0.1c3.83,-0.01 6.6,-1.6 8.3,-4.76l15.17 -25.68c1.94,-3.16 4.83,-4.75 8.66,-4.76zm1750.54 -156.11c-2.15,0.01 -3.19,0.67 -3.1,1.98 0.05,0.79 2.25,3.28 6.6,7.47 4.35,4.19 6.62,7.86 6.83,11.02 0.05,0.79 0.1,1.45 0.13,1.97l-29.18 165.7c0.02,0.26 0.04,0.66 0.08,1.18 0.16,2.36 1.79,3.54 4.9,3.53l148.6 -0.51c3.59,-0.01 6.86,-1.2 9.81,-3.58l13.67 -10.3c1.37,-1.06 2.03,-1.85 2,-2.37 -0.05,-0.79 -1.04,-1.18 -2.95,-1.17l-88.3 0.3c-3.11,0.01 -4.75,-1.3 -4.93,-3.92 -0.02,-0.26 3.53,-20.65 10.65,-61.15 0.49,-3.42 2.65,-5.13 6.48,-5.15l68.55 -0.24c3.83,-0.01 7.22,-1.21 10.17,-3.58l13.65 -10.69c1.38,-0.79 2.06,-1.45 2.02,-1.98 -0.05,-0.79 -1.04,-1.18 -2.95,-1.17l-88.3 0.31c-3.11,0.01 -4.75,-1.3 -4.93,-3.93 -0.03,-0.53 3.51,-21.04 10.62,-61.55 0.51,-3.15 2.68,-4.74 6.5,-4.75l88.3 -0.31c5.98,-0.02 8.67,-4.63 8.05,-13.83 -0.17,-2.63 -1.82,-3.94 -4.93,-3.92l-188.08 0.65zm-3.92 27.47c-0.54,-8.15 -4.04,-14.84 -10.49,-20.07 -6.45,-5.24 -14.34,-7.84 -23.67,-7.81l-173.72 0.6c-2.15,0.01 -3.19,0.67 -3.1,1.98 0.05,0.79 2.25,3.28 6.6,7.47 4.35,4.19 6.63,7.86 6.84,11.02 0.05,0.79 0.09,1.44 0.13,1.97l-29.18 165.7c0.02,0.26 0.04,0.66 0.08,1.18 0.16,2.36 1.79,3.54 4.91,3.53l68.63 -0.23c3.59,-0.01 5.76,-1.59 6.51,-4.73l7.18 -43.03c0.75,-3.16 2.8,-4.74 6.14,-4.75 3.11,-0.01 5.36,1.43 6.74,4.31l16.9 43.71c1.15,2.89 3.64,4.32 7.46,4.31l68.51 -0.24c2.87,-0.01 4.23,-1.06 4.09,-3.17 -0.03,-0.53 -3.81,-8.73 -11.33,-24.6 -7.52,-15.88 -11.44,-24.47 -11.77,-25.79 9.45,-1.87 18.15,-6.04 26.09,-12.51 7.95,-6.47 12.61,-13.65 14.01,-21.54l12.2 -70.23c0.32,-2.37 0.4,-4.73 0.24,-7.1zm-129.59 95.07c-3.09,0.01 -4.72,-1.15 -4.88,-3.48 0.16,-0.53 0.22,-0.94 0.21,-1.2l16.63 -95.47c0.5,-3.18 2.67,-4.77 6.49,-4.78l28.63 -0.1c3.1,-0.01 4.73,1.17 4.89,3.53 0.03,0.53 -0.06,0.92 -0.28,1.18l-16.62 95.48c-0.51,3.16 -2.66,4.74 -6.48,4.75l-28.59 0.1zm-163.12 69.81c11.25,-0.04 21.31,-3.49 30.19,-10.35 8.88,-6.87 14.2,-15.03 15.96,-24.5l26.79 -153.08c-0.03,-0.52 -0.06,-0.92 -0.08,-1.18 -0.16,-2.37 -1.67,-3.54 -4.55,-3.53l-68.62 0.23c-3.83,0.01 -6,1.59 -6.51,4.73l-29.21 165.31c-0.49,3.44 -2.64,5.16 -6.47,5.17l-28.3 0.1c-3.1,0.01 -4.74,-1.3 -4.92,-3.93 -0.02,-0.26 -0.04,-0.66 -0.08,-1.18l29.21 -165.31c-0.03,-0.53 -0.06,-0.92 -0.08,-1.18 -0.16,-2.36 -1.79,-3.54 -4.9,-3.53l-88.3 0.3c-2.15,0.01 -3.2,0.54 -3.13,1.59 0.05,0.79 2.25,3.28 6.6,7.47 4.35,4.19 6.63,7.86 6.84,11.02 0.05,0.79 0.1,1.45 0.13,1.97l-23.64 135.71c-0.56,2.37 -0.76,4.73 -0.6,7.1 0.54,8.15 4.03,14.77 10.48,19.87 6.44,5.1 14.33,7.64 23.66,7.61l119.52 -0.41zm-322.16 -2.95c0.16,2.37 1.79,3.54 4.9,3.53l68.55 -0.24c3.59,-0.01 5.76,-1.6 6.5,-4.76l28.83 -165.7c0.51,-3.16 2.68,-4.74 6.5,-4.75l48.45 -0.17c5.98,-0.02 8.67,-4.63 8.06,-13.83 -0.16,-2.37 -1.79,-3.54 -4.9,-3.53l-208.18 0.72c-2.15,0.01 -3.2,0.54 -3.13,1.59 0.03,0.53 3.78,4.59 11.22,12.18 2.07,2.36 5.02,3.53 8.85,3.52l48.46 -0.17c3.11,-0.01 4.75,1.3 4.93,3.93 0.02,0.26 0.03,0.52 0.05,0.79l-29.19 165.7c0.02,0.26 0.04,0.66 0.08,1.18zm-255.83 -169.68c0.05,0.79 0.09,1.45 0.13,1.97l-29.19 165.7c0.02,0.26 0.04,0.66 0.08,1.18 0.16,2.36 1.79,3.54 4.9,3.53l28.71 -0.1c3.59,-0.01 5.76,-1.6 6.51,-4.75l20.25 -121.9c0.37,-1.58 0.8,-2.37 1.28,-2.37 0.73,0.26 1.25,0.79 1.54,1.57l53.77 122.83c1.15,2.89 3.64,4.32 7.47,4.31l68.56 -0.24c3.83,-0.01 6,-1.6 6.5,-4.75l31.98 -183.06c0.2,-0.53 0.3,-0.92 0.28,-1.18 -0.17,-2.63 -1.82,-3.94 -4.93,-3.93l-28.71 0.1c-3.83,0.01 -5.99,1.73 -6.48,5.15l-20.61 121.91c-0.13,1.58 -0.56,2.37 -1.28,2.37 -0.75,-0.52 -1.27,-1.18 -1.57,-1.97l-53.41 -122.83c-1.39,-2.89 -4,-4.32 -7.83,-4.31l-88.3 0.3c-2.15,0.01 -3.19,0.67 -3.1,1.98 0.05,0.79 2.25,3.28 6.6,7.47 4.35,4.19 6.62,7.86 6.84,11.01zm-211.77 -20.28c-2.15,0.01 -3.19,0.67 -3.1,1.98 0.05,0.79 2.25,3.28 6.6,7.47 4.35,4.19 6.63,7.86 6.84,11.01 0.05,0.79 0.1,1.45 0.13,1.97l-29.19 165.7c0.02,0.26 0.04,0.66 0.08,1.18 0.16,2.37 1.79,3.54 4.9,3.53l148.6 -0.51c3.59,-0.01 6.86,-1.21 9.81,-3.58l13.68 -10.3c1.36,-1.06 2.03,-1.85 1.99,-2.37 -0.05,-0.79 -1.04,-1.18 -2.95,-1.17l-88.29 0.3c-3.11,0.01 -4.75,-1.3 -4.93,-3.93 -0.02,-0.26 3.53,-20.65 10.65,-61.15 0.49,-3.42 2.65,-5.13 6.48,-5.15l68.56 -0.24c3.83,-0.01 7.22,-1.21 10.17,-3.58l13.65 -10.69c1.38,-0.79 2.06,-1.45 2.02,-1.98 -0.05,-0.79 -1.04,-1.18 -2.95,-1.17l-88.3 0.3c-3.11,0.01 -4.75,-1.3 -4.93,-3.93 -0.04,-0.53 3.51,-21.04 10.62,-61.55 0.51,-3.16 2.68,-4.74 6.5,-4.75l88.3 -0.3c5.98,-0.02 8.67,-4.63 8.06,-13.83 -0.17,-2.63 -1.82,-3.94 -4.93,-3.92l-188.08 0.65zm-108 192.25c3.59,-0.01 6.23,-1.73 7.91,-5.15 59.57,-122.7 89.34,-184.31 89.3,-184.84 -0.12,-1.84 -1.38,-2.76 -3.77,-2.75l-28.72 0.1c-3.83,0.01 -6.47,1.6 -7.94,4.76l-73.25 150.87c-0.61,1.58 -1.16,2.37 -1.64,2.37 -0.72,0 -1.13,-0.78 -1.24,-2.36l-20.43 -150.55c-0.45,-3.15 -2.59,-4.72 -6.42,-4.71l-88.3 0.3c-2.63,0.01 -3.9,0.8 -3.79,2.38 0.05,0.79 2.34,4.53 6.85,11.22 4.51,6.69 7.13,11.74 7.83,15.15l28.51 158.8c0.69,3.15 2.83,4.72 6.42,4.71l88.65 -0.31zm-337.51 -172.92c0.05,0.79 0.1,1.45 0.13,1.97l-29.19 165.7c0.02,0.26 0.04,0.66 0.08,1.18 0.16,2.37 1.79,3.54 4.9,3.53l153.98 -0.53c11.01,-0.04 21.01,-3.49 30.01,-10.35 9,-6.87 14.25,-15.16 15.75,-24.9l21.64 -122.7c0.32,-2.37 0.4,-4.73 0.25,-7.1 -0.54,-8.15 -4.04,-14.84 -10.49,-20.07 -6.45,-5.24 -14.34,-7.84 -23.68,-7.81l-173.72 0.6c-2.15,0.01 -3.19,0.67 -3.1,1.98 0.05,0.79 2.25,3.28 6.6,7.47 4.35,4.19 6.63,7.86 6.84,11.01zm86.41 -3.06l28.63 -0.1c3.1,-0.01 4.73,1.17 4.89,3.53 0.03,0.53 -0.06,0.92 -0.28,1.18l-25.7 147.94c-0.73,3.42 -2.89,5.14 -6.48,5.15l-28.71 0.1c-3.11,0.01 -4.75,-1.29 -4.93,-3.9 0.05,-0.26 0.05,-0.66 0.02,-1.18l26.08 -147.95c0.5,-3.18 2.66,-4.77 6.49,-4.79zm-241.86 118.87c0.17,2.63 -1.17,3.95 -4.05,3.96l-49.17 0.17c-2.15,0.01 -3.28,-0.78 -3.39,-2.35 -0.03,-0.53 0.15,-1.31 0.56,-2.37l35.29 -63.21c0.63,-1.32 1.42,-1.98 2.38,-1.98 0.72,-0 1.24,0.65 1.57,1.97l16.81 63.82z"/>
  <path class="fil2" d="M1254.83 1077.53l88.72 -0.69c39.89,3.08 -13.78,30 -72.02,16 -14.89,-3.58 -15.5,-13.06 -16.7,-15.31zm3.55 -33.11c4.54,-12.81 22.08,-15.05 30.44,-16.08l75.39 -1.21 31 -41.33c-23.1,-0.44 -110.66,0.38 -128.78,4.49 -12.58,2.86 -22,5.69 -29.94,9.61 -36.7,18.11 -48.65,59.01 -30.96,96.13 8.09,16.98 23.08,28.9 48.43,34.23 33.52,7.05 85.54,8.51 116.02,-3.02l4.15 -1.65c11.83,-4.56 23.78,-11.04 28.71,-23.53 7.79,-19.78 3.92,-46.9 -27.83,-54.28 -17.31,-4.02 -29.77,-3.88 -47.04,-3.85 -23.2,0.04 -46.43,0.42 -69.57,0.48zm419.2 17.89c-0.67,-48.47 33.11,-43.02 70.27,-40.56 25.17,1.67 25.48,29.61 17.01,48.89 -10.09,22.95 -86.76,29 -87.28,-8.33zm133.1 22.58c15.45,-32.86 5.69,-76.48 -18.55,-91.06 -25.98,-15.63 -81.98,-15.2 -109.05,-9.09 -33.63,7.59 -49.26,27.33 -54.56,60.77 -5.37,33.87 8.46,66.47 50.21,77.61 26.34,7.03 76.92,3.81 101.31,-7 12.43,-5.51 22.87,-14.7 30.64,-31.22zm-376.23 -12.37l127.27 -0.59c-0.07,8.02 -0.21,12.19 -5.63,15.08 -3.33,1.92 -10.34,3.01 -18.23,3.62 -20.45,1.56 -47.58,1.55 -68.38,1.33 -20.51,-0.21 -15.52,0.04 -26.93,11.43 -16.47,16.45 -19.27,21.4 -12.93,24.12 4.76,2.05 14.92,2.61 31.45,2.66 21.95,0.07 44.01,-0.25 65.92,-1.04 24.78,-0.9 44.55,-0.77 62.35,-10.2 14.73,-7.8 26.9,-28.52 19.49,-52.03 -11.34,-35.97 -73.79,-23.95 -124.32,-25.56l2.63 -14.86c15.48,-0.68 87.87,-1.4 92.28,-3.04l26.62 -29.5c4.19,-6.48 1.71,-10.43 -4.32,-10.34l-162.26 2.41 -5 86.5z"/>
  <path class="fil2" d="M2597.39 1102.69l88.72 -0.9c39.89,2.98 -13.71,30.04 -71.98,16.17 -14.9,-3.55 -15.53,-13.03 -16.74,-15.27zm3.47 -33.12c4.51,-12.82 22.04,-15.11 30.4,-16.15l75.38 -1.39 30.9 -41.41c-23.1,-0.38 -110.66,0.64 -128.77,4.8 -12.58,2.89 -21.99,5.74 -29.92,9.68 -36.66,18.2 -48.51,59.13 -30.73,96.21 8.13,16.96 23.15,28.84 48.52,34.12 33.54,6.97 85.55,8.31 116.02,-3.3l4.14 -1.66c11.82,-4.59 23.76,-11.09 28.65,-23.59 7.75,-19.79 3.81,-46.91 -27.96,-54.21 -17.32,-3.98 -29.78,-3.81 -47.05,-3.74 -23.2,0.09 -46.42,0.54 -69.57,0.65zm419.24 16.89c-0.79,-48.46 33.01,-43.1 70.17,-40.73 25.17,1.61 25.55,29.55 17.13,48.85 -10.04,22.98 -86.69,29.21 -87.3,-8.12zm133.16 22.26c15.37,-32.9 5.5,-76.49 -18.77,-91.02 -26.02,-15.57 -82.01,-15.01 -109.07,-8.83 -33.61,7.67 -49.19,27.44 -54.41,60.9 -5.29,33.88 8.62,66.44 50.4,77.49 26.36,6.97 76.93,3.63 101.29,-7.25 12.42,-5.54 22.83,-14.75 30.56,-31.29zm-376.26 -11.47l127.26 -0.89c-0.05,8.02 -0.18,12.19 -5.59,15.1 -3.33,1.93 -10.33,3.04 -18.23,3.66 -20.45,1.61 -47.58,1.66 -68.38,1.5 -20.51,-0.16 -15.52,0.08 -26.9,11.49 -16.44,16.49 -19.22,21.45 -12.88,24.15 4.77,2.04 14.93,2.58 31.46,2.59 21.95,0.02 44.01,-0.36 65.92,-1.2 24.78,-0.95 44.55,-0.88 62.32,-10.35 14.71,-7.84 26.84,-28.58 19.36,-52.08 -11.43,-35.94 -73.85,-23.78 -124.38,-25.26l2.6 -14.87c15.48,-0.72 87.86,-1.61 92.28,-3.26l26.55 -29.57c4.18,-6.49 1.69,-10.43 -4.34,-10.33l-162.26 2.8 -4.79 86.51z"/>
 </g>
</svg>
