<?xml version="1.0" encoding="UTF-8"?>
<!DOCTYPE svg PUBLIC "-//W3C//DTD SVG 1.1//EN" "http://www.w3.org/Graphics/SVG/1.1/DTD/svg11.dtd">
<!-- Creator: CorelDRAW -->
<svg xmlns="http://www.w3.org/2000/svg" xml:space="preserve" width="600.447mm" height="237.367mm" version="1.1" style="shape-rendering:geometricPrecision; text-rendering:geometricPrecision; image-rendering:optimizeQuality; fill-rule:evenodd; clip-rule:evenodd"
viewBox="0 0 8256.54 3263.95"
 xmlns:xlink="http://www.w3.org/1999/xlink"
 xmlns:xodm="http://www.corel.com/coreldraw/odm/2003">
 <defs>
  <style type="text/css">
   <![CDATA[
    .fil0 {fill:black}
    .fil1 {fill:red}
   ]]>
  </style>
 </defs>
 <g id="Camada_x0020_1">
  <metadata id="CorelCorpID_0Corel-Layer"/>
  <g id="_2050941616832">
   <path class="fil0" d="M7726.62 1932.11c15.88,17.19 31.76,34.37 47.65,51.56l46.35 50.16 -48.57 44.6c-67.92,62.37 -135.84,124.74 -203.75,187.11l-16.94 15.55 -17.38 -14.3c-74.96,-61.69 -149.91,-123.38 -224.87,-185.07l-18.9 50.68 -29.56 -22.85c-118.55,-91.6 -237.1,-183.21 -355.65,-274.82l-28.65 -22.13 2.81 -12.28c-206.51,176.79 -413.02,353.57 -619.54,530.35l-16.28 13.94 -16.57 -13.07c-4.49,-3.55 -8.99,-7.1 -13.49,-10.65 -73.68,59.97 -147.36,119.93 -221.05,179.9l-11.71 9.53 -12.82 -4.82c-77.79,-29.24 -155.59,-58.47 -233.39,-87.7l-90.4 -33.97 79.52 -68.08 -24.99 -76.52 29.56 -26.66c24.96,-22.51 49.93,-45.03 74.88,-67.54l-36.19 -31.74 58.96 -48.04 406.41 -331.17c21.81,-0.13 43.62,-0.54 65.44,-0.55 4.06,0.2 8.13,0.35 12.2,0.43l-467.74 381.15c11.11,9.75 22.23,19.49 33.35,29.24 -43.22,38.98 -86.44,77.96 -129.66,116.94l722.46 -526.85c3,-0.02 6.01,-0.06 9.01,-0.13l-734.56 628.91c77.8,29.24 155.59,58.47 233.39,87.7 79.03,-64.32 158.06,-128.63 237.1,-192.95 9.88,7.8 19.76,15.6 29.63,23.39l640.14 -548 28.16 0c10.9,0 20.22,-9.75 24.46,-25.61 5.77,-21.58 11.63,-43.1 17.54,-64.58l-32.35 141.18c118.55,91.6 237.09,183.21 355.65,274.82 -81.51,-89.66 -163.01,-179.31 -244.51,-268.97 172.88,142.28 345.76,284.56 518.65,426.84 67.92,-62.37 135.84,-124.74 203.75,-187.11 -43.22,-46.78 -86.44,-93.56 -129.66,-140.33 43.22,-5.85 86.44,-11.69 129.66,-17.55 -44.45,-37.03 -88.91,-74.06 -133.37,-111.1 33.35,0 66.69,0 100.03,0l0 -29.77 4.74 0.02c11.1,0.04 20.58,-10.06 24.71,-26.32 2.01,-7.92 4.05,-15.83 6.1,-23.73l0 129.28c4.8,4 9.6,7.99 14.39,11.98l107.08 89.2 -120.64 16.32c-10.19,1.38 -20.38,2.76 -30.58,4.14zm-1468.4 -620.66l-282.11 -268.4 -27.8 -26.44 28.33 -92.17 0.54 0.29c-19.96,-24.06 -39.92,-48.17 -59.88,-72.28l-197.17 -237.99 231.56 141.06c67.86,41.38 135.74,82.71 203.6,124.04 28.18,-3.54 56.36,-7.08 84.54,-10.67l7.74 -0.97 7.29 4.22c61.01,35.17 122.01,70.34 183.02,105.51 13.95,-4.71 27.89,-9.41 41.84,-14.12l11.29 -3.83 10.56 7.37c114.6,80.19 229.19,160.37 343.79,240.56 76.46,-62.19 152.92,-124.33 229.38,-186.52l10.84 -8.78 11.99 3.54c15.84,4.66 31.68,9.36 47.52,14.07 169.32,-133.64 338.64,-267.24 507.95,-400.88l17.45 -13.78 16.74 15.86c0.68,0.63 1.35,1.26 2.02,1.89 78.2,-59.86 156.4,-119.77 234.61,-179.68l7.35 -5.63 8.17 0c59.28,0 118.55,0 177.82,0l139.32 0 -122.29 105.36c-34.15,29.4 -68.31,58.84 -102.46,88.24l18.1 52.63 -29.29 27.6c-71.1,67.04 -142.2,134.03 -213.29,201.07l34.97 30.08 -44.74 52.29 -263.62 308.03c-1.92,-0.73 -3.92,-1.12 -5.98,-1.12l-52.09 -0.83 300.54 -351.21c-13.58,-11.69 -27.17,-23.38 -40.75,-35.07 88.91,-83.82 177.82,-167.6 266.73,-251.42 -271.67,210.48 -543.35,421.01 -815.02,631.49 309.96,-266.99 619.91,-534.04 929.87,-801.08 -59.27,0 -118.55,0 -177.82,0 -83.98,64.32 -167.95,128.65 -251.91,192.97 -6.17,-5.82 -12.35,-11.69 -18.52,-17.51 -172.88,136.41 -345.76,272.86 -518.65,409.27 -19.76,-5.82 -39.52,-11.69 -59.27,-17.51 -81.51,66.26 -163.01,132.53 -244.51,198.79 -119.78,-83.82 -239.57,-167.65 -359.35,-251.42 -17.29,5.82 -34.57,11.69 -51.87,17.51 -64.21,-37.01 -128.43,-74.03 -192.64,-111.09 -30.87,3.88 -61.74,7.81 -92.62,11.69 -70.39,-42.88 -140.77,-85.76 -211.16,-128.65 83.97,101.38 167.94,202.72 251.91,304.05 -65.45,-38.95 -130.9,-77.95 -196.34,-116.91l331.74 315.6c-8.04,-0.05 -16.08,-0.1 -24.12,-0.1 -13.72,0 -29.42,-1.7 -43.86,0.92z"/>
   <path class="fil0" d="M7633.14 1684.28c2.95,7.47 -1.36,2.35 4.36,4.72l88.12 0.34c20.69,-81.47 46.03,-168.69 68.27,-250.16 17.69,-64.81 -3.97,-91.05 -45.6,-89.69 -28.88,0.87 -64.56,23.84 -93.59,30.46 -5.74,-7.26 -3.21,-8.75 -11.03,-16.15 -34.94,-33.08 -74.85,1.2 -115.26,5.97l-0.71 -15.96 -90.79 -1.36c-7.72,6.01 -10.57,28.59 -14.1,40.96 -13.73,48.14 -80.82,285.85 -80.98,297.48l89.35 -0.17c5.27,-9.17 62.42,-211.26 73.24,-249.98 4.64,-16.6 7.76,-25.61 20.62,-27.19 14.5,-1.78 22.83,-1.12 31.74,8.86 5.66,13.92 -42.58,172.32 -51.93,205.43 -5.47,19.35 -13.2,43.52 -17.33,63.6l92.13 0.07c8.88,-25.01 56.56,-205.13 69.82,-251.05 4.59,-15.86 8.05,-25.09 20.78,-26.95 13.88,-2.03 23.11,-0.85 31.93,8.13 1.6,25.71 -39.55,159.82 -50.82,199.29 -5.79,20.28 -11.38,44.53 -18.22,63.37zm-1305.13 7.37l-0.03 0c-9.85,0.74 -20.09,0.49 -30.09,0 -29.78,0.01 -59.64,0.66 -89.38,0.55 -15.6,-0.22 -51.46,-3.26 -53.99,-35.93 -2.48,-32.19 18.07,-90.44 26.9,-120.61 12.37,-42.97 25.24,-84.08 38.53,-126.03 20.94,-66.12 35.29,-57.2 82.12,-57.2 39.31,0 79.25,1.07 118.47,-0.29 47.52,-1.6 46.64,55.25 29.18,105.35l-96.07 0.21c-2.37,-3.03 -4.06,4.28 -1.29,-4.54 3.79,-32.29 26.41,-60.46 -17.89,-58.87 -11.45,0.41 -17.38,5.46 -21.95,19.52 -7.94,24.43 -14,50.02 -21.74,74.27 -6.7,21.01 -44.69,136.64 -37.64,151.93 6.69,8.23 18.47,7.02 27.93,6.52 12.11,-0.64 15.81,-3.92 20.05,-18.72 5.29,-18.44 16.68,-54.02 19.29,-71.61l96.75 0c-3.82,18.95 -12.76,43.58 -19.39,64.06 -9.18,28.34 -8.87,38.39 -24.9,54.32 -11.49,11.41 -27.58,15.76 -44.88,17.06l0 0zm763.84 -183.59l-101.63 0.62 -15.67 60.34 101.75 -0.17 15.54 -60.79zm-418.52 179.74l90.86 0.84c21.94,-83.2 48.34,-165.3 71.39,-248.29 4.66,-16.79 8.06,-25.24 20.79,-26.81 50.35,-6.21 32.02,26.54 -1.83,147l-36.15 130.95 92.59 0c21.5,-80.42 43.42,-156.7 65.05,-237.46 14.67,-54.77 18.56,-89.69 -24,-102.17 -24.74,-7.28 -64.94,12.84 -92.67,17.93l-0.38 -17.35 -93.41 0c-14.38,59.11 -50.4,183.55 -69.6,250.23 -5.03,17.46 -20.96,69.66 -22.63,85.13zm534.42 -142.69c10.3,-24.93 40.56,-25.75 58.14,-22.71 -6.75,23.37 -13.35,46.64 -20.17,69.99 -4.94,16.9 -10.35,43.35 -23.1,48.7 -7.11,2.67 -33.57,5.89 -34.31,-10.87 -0.54,-12.3 6.79,-43.95 10.06,-56.22 2.74,-10.08 5.72,-19.55 9.37,-28.89zm-61.02 -89.74c8.55,7 71.46,3.51 85.68,1.65 17.5,-53.08 11.84,-62.9 40.19,-62.63 35.96,0.35 23.69,24.17 8.8,80.18 -12.93,5.96 -51.2,6.62 -67.35,8.27 -77.88,7.93 -82.15,-9.01 -103.5,65.69 -7.46,26.11 -15.16,52.72 -21.85,79.97 -8.3,33.86 5.13,63.41 25.32,63.4l144.27 -0.08c23.12,-0.01 44.08,-8.34 55.51,-24.87 9.59,-13.88 56.65,-193.01 68.2,-235.53 8.79,-32.32 5.4,-62.86 -15.04,-74.18 -14.71,-8.15 -117.99,-3.88 -142.19,-3.98 -23,-0.15 -41.78,10.62 -53.79,28.72 -8.31,12.54 -21.07,49.05 -24.26,73.39zm-572.57 69.12c4.74,-4.84 17.19,-5.18 24.78,-4.11l-2.65 6.52c-5,24.13 -16.3,57.98 -24.16,82.29 -4.87,15.07 -7.4,29.49 -17.9,32.71 -11.28,3.46 -26.72,1.87 -33.86,-7.04 -3.02,-20.81 9.95,-57.07 14.6,-75.25 6.7,-26.28 17.76,-37.11 39.19,-35.11zm-11.27 -65.23c7.41,-15.53 10.36,-41.06 18.39,-55.23 8.24,-14.52 32.91,-11.21 44.22,-4.33 6.59,26.83 -7.32,49.75 -12.01,76.49 -22.74,1.96 -45.56,4.58 -68.75,6.73 -76.88,7.12 -82.48,-7.49 -102.7,65.91 -7.69,27.92 -14.98,52.48 -21.74,80.07 -8.03,32.8 5.03,61.54 25.06,62.98 22.57,1.63 49.46,-0.41 72.61,-0.41 153.48,0 117.08,20.77 196.31,-261.55 9.18,-32.72 2.1,-65 -17.41,-73.56 -18.17,-7.96 -116.18,-3.35 -142.6,-3.15 -22.31,0.19 -41.6,12.05 -52.86,30.27 -5.89,9.53 -23.03,55.89 -23.09,75.78l84.56 0z"/>
   <path class="fil0" d="M3373.36 2477.23c-119.77,0 -81.87,-20.82 -49.64,-84.85 21.2,-42.13 45.27,-80.29 69.11,-122.5 43.24,-76.54 46.8,-61.03 131.66,-68.24l203.9 -4.8c151.2,0 108.32,16.53 65.28,102.31l-54.75 102.2c-39.23,72.18 -44.2,76.51 -169.37,75.27l-196.21 0.61zm0 642.13c-119.77,0 -81.87,-20.81 -49.64,-84.85 21.2,-42.13 45.27,-80.29 69.11,-122.49 43.24,-76.54 46.8,-61.03 131.66,-68.24l203.9 -4.8c151.2,0 108.32,16.54 65.28,102.32l-54.75 102.2c-39.23,72.18 -44.2,76.51 -169.37,75.27l-196.21 0.6zm-3099.28 -256.06l59.71 -1.49 -259.35 400.84 310.12 -0.57 366.6 -547.44 -381.11 0 -95.99 148.66zm1044.27 237c-22.01,18.3 -50.16,19.13 -87.69,19.06l-269.47 -1.35c-31.86,-0.16 -50.31,-3.82 -31.97,-34.41 10.75,-17.93 25.53,-37.86 37.17,-56.38 27.27,-43.38 53.81,-84.74 83.2,-127.3 14.02,-20.3 29.5,-40.42 60.2,-46.43l283.66 -5.44c32.14,-0.62 64.6,2.57 71.93,10.61 11.78,16.07 -23.39,59.24 -33.77,75.77 -20.17,32.09 -86.35,142.65 -113.25,165.87zm-747.53 30.06c-37.6,66.91 -44.92,110.8 66.71,126.97 64.01,9.27 155.43,5.56 222.24,5.42 152.8,0.18 305.59,0.46 458.39,-0.09 69.05,-0.25 151.55,-10.93 213.04,-35.78 80.33,-33.45 117.62,-111.06 158.28,-175.27l129.85 -205.83c22.96,-38.77 67.4,-102.46 -46.41,-121.24 -33.76,-5.56 -91.88,-8.25 -160,-9.45 -175.53,-0.01 -352.66,-1.55 -527.98,0 -46.61,0.41 -121.66,7.41 -165.44,18.79 -80.46,21.71 -119.94,55.84 -158.22,112.34 -34.54,50.99 -68.75,103.64 -104.12,154.08 -29.76,42.43 -57.95,86.95 -86.36,130.06zm1606.61 -9.18c-20.68,0 -67.01,0.49 -76.59,-11.72 -9.92,-12.65 11.75,-39.57 18.89,-52.04 19.68,-34.39 43.23,-66.95 61.59,-99.06 63.36,-110.78 57.33,-112.12 223.85,-112.12 289.8,0 259.45,-9.87 195.65,100.55 -8.84,15.31 -19.08,29.86 -27.18,44.47 -61.5,110.86 -61.61,129.92 -168.86,129.92l-227.35 0zm-460.14 60.71c-0.16,35.89 5.49,50.06 53.31,65.48 63.43,20.46 138.32,15.27 206.39,15.4 187.86,0.36 375.68,1.25 563.53,-0.06 59.63,-0.43 108.97,-6.84 163.52,-25.92 104.62,-38.88 126.5,-110.83 182.94,-205.67l94.56 -162.87c50.59,-85.86 76.77,-138.41 -77.73,-151.73 -54.07,-4.66 -131.01,-1.46 -187.78,-1.43 -166.84,0.09 -333.69,0.01 -500.53,0.01 -43.93,2.6 -79.85,6.14 -102.82,10.94 -108.76,22.72 -159.1,50.44 -212.83,146.54 -35.06,58.84 -182.57,277.11 -182.57,309.31zm1468.27 -429.96c-70.91,34.91 -105.53,122.05 -147.83,190.08 -15.92,25.6 -113.87,197.96 -119.59,214.82 -16.9,62.91 4.15,89.35 88.53,101.75 60.19,8.85 160.64,4.06 225.64,4.06 169.01,0 338.41,0.63 507.36,0.03 63.36,-0.22 146.84,-16.44 200.55,-42.47 74.72,-37.66 105.35,-117.88 144.45,-192.92l115.81 -218.11c25.3,-57.16 -7.38,-95.79 -90.93,-94.59 -165.95,2.38 -335.5,0.74 -501.78,0.64 -90.9,-0.13 -185.27,-2.61 -275.71,-0.36 -48.22,1.19 -105.78,17.75 -146.5,37.08zm-2911.49 -530.76l59.71 -1.49 -259.35 400.84 310.12 -0.57 366.6 -547.44 -381.11 0 -95.99 148.66zm1044.27 237.01c-22.01,18.3 -50.16,19.13 -87.69,19.05l-269.47 -1.35c-31.86,-0.16 -50.31,-3.82 -31.97,-34.41 10.75,-17.93 25.53,-37.86 37.17,-56.38 27.27,-43.38 53.81,-84.74 83.2,-127.3 14.02,-20.3 29.5,-40.42 60.2,-46.43l283.66 -5.44c32.14,-0.62 64.6,2.57 71.93,10.61 11.78,16.08 -23.39,59.24 -33.77,75.77 -20.17,32.09 -86.35,142.66 -113.25,165.88zm-747.53 30.06c-37.6,66.91 -44.92,110.8 66.71,126.97 64.01,9.27 155.43,5.56 222.24,5.42 152.8,0.18 305.59,0.46 458.39,-0.09 69.05,-0.25 151.55,-10.93 213.04,-35.78 80.33,-33.46 117.62,-111.06 158.28,-175.27l129.85 -205.82c22.96,-38.77 67.4,-102.46 -46.41,-121.24 -33.76,-5.56 -91.88,-8.25 -160,-9.45 -175.53,-0 -352.66,-1.55 -527.98,0 -46.61,0.41 -121.66,7.41 -165.44,18.79 -80.46,21.71 -119.94,55.83 -158.22,112.34 -34.54,50.99 -68.75,103.64 -104.12,154.08 -29.76,42.44 -57.95,86.95 -86.36,130.06zm1606.61 -9.18c-20.68,0 -67.01,0.5 -76.59,-11.72 -9.92,-12.66 11.75,-39.57 18.89,-52.04 19.68,-34.39 43.23,-66.94 61.59,-99.06 63.36,-110.78 57.33,-112.12 223.85,-112.12 289.8,0 259.45,-9.87 195.65,100.55 -8.84,15.31 -19.08,29.86 -27.18,44.47 -61.5,110.87 -61.61,129.92 -168.86,129.92l-227.35 0zm-460.14 60.71c-0.16,35.89 5.49,50.06 53.31,65.48 63.43,20.46 138.32,15.27 206.39,15.4 187.86,0.36 375.68,1.25 563.53,-0.06 59.63,-0.43 108.97,-6.84 163.52,-25.92 104.62,-38.88 126.5,-110.83 182.94,-205.67l94.56 -162.87c50.59,-85.87 76.77,-138.4 -77.73,-151.73 -54.07,-4.66 -131.01,-1.45 -187.78,-1.43 -166.84,0.09 -333.69,0.01 -500.53,0 -43.93,2.6 -79.85,6.14 -102.82,10.93 -108.76,22.72 -159.1,50.44 -212.83,146.54 -35.06,58.84 -182.57,277.11 -182.57,309.31zm1468.27 -429.96c-70.91,34.91 -105.53,122.04 -147.83,190.08 -15.92,25.6 -113.87,197.96 -119.59,214.82 -16.9,62.91 4.15,89.35 88.53,101.75 60.19,8.85 160.64,4.06 225.64,4.06 169.01,0 338.41,0.63 507.36,0.04 63.36,-0.22 146.84,-16.45 200.55,-42.48 74.72,-37.66 105.35,-117.88 144.45,-192.92l115.81 -218.11c25.3,-57.15 -7.38,-95.79 -90.93,-94.59 -165.95,2.37 -335.5,0.74 -501.78,0.64 -90.9,-0.13 -185.27,-2.61 -275.71,-0.36 -48.22,1.19 -105.78,17.75 -146.5,37.07z"/>
   <path class="fil1" d="M4099.02 2597.53c8.54,6.79 7.48,8.43 21.74,8.43l202.34 0c76.5,0 77.64,-41.27 110.2,-108.58 7.7,-15.92 15.64,-29.66 24.04,-47.25 14.42,-30.18 32.81,-63.65 47.86,-94.62l72.87 -143.84c10,-14.84 41.47,-15.47 59.62,-15.43l311.51 -1.75c42.71,0.05 114.01,-10.57 145.29,7.52 7.57,24.64 -15.24,29.83 -31.02,36.48 -63.15,26.58 -228.07,68.75 -297.31,81.43 -20.45,3.75 -111.98,6.93 -51.75,54.53 7.5,5.92 14.14,7.39 22.35,13.23l281.56 195.69c15.6,11.52 32.16,24.42 49.23,24.42l345.7 0c17.14,0 27.62,-0.79 34.58,-12.98 -3.52,-17.01 -26.36,-25.84 -40.64,-35.74 -42.89,-27.93 -98.57,-58.99 -143.19,-87.49 -49.31,-30.83 -152.48,-87.47 -184.61,-125.51 34.63,-6.98 75.59,-16.76 110.36,-24.86 73.65,-17.14 147.68,-42.84 210.85,-79.03 62.65,-35.9 105.54,-114.63 -12.63,-136.55 -36.53,-6.74 -77.47,-13.1 -117.99,-13.1 -212.54,0 -433.03,0.78 -647.79,5.48 -68.22,1.5 -148.23,4.03 -213.57,2.33 -42.67,-1.12 -51.82,6.31 -67.48,34.64l-70.03 129.91c-33.68,61.26 -72.98,141.84 -104.99,197.55 -13.26,23.08 -21.42,41.72 -35.5,64.49 -6.75,10.92 -32.01,57.93 -31.59,70.62zm0 642.13c8.54,6.79 7.48,8.43 21.74,8.43l202.34 0c76.5,0 77.64,-41.27 110.2,-108.58 7.7,-15.92 15.64,-29.66 24.04,-47.25 14.42,-30.18 32.81,-63.65 47.86,-94.62l72.87 -143.85c10,-14.82 41.47,-15.47 59.62,-15.39l311.51 -1.78c42.71,0.06 114.01,-10.58 145.29,7.51 7.57,24.66 -15.24,29.87 -31.02,36.51 -63.15,26.58 -228.07,68.74 -297.31,81.42 -20.45,3.74 -111.98,6.93 -51.75,54.52 7.5,5.92 14.14,7.39 22.35,13.23l281.56 195.69c15.6,11.52 32.16,24.42 49.23,24.42l345.7 0c17.14,0 27.62,-0.79 34.58,-12.98 -3.52,-17.01 -26.36,-25.84 -40.64,-35.74 -42.89,-27.93 -98.57,-58.99 -143.19,-87.49 -49.31,-30.83 -152.48,-87.47 -184.61,-125.51 34.63,-6.98 75.59,-16.76 110.36,-24.86 73.65,-17.14 147.68,-42.84 210.85,-79.03 62.65,-35.9 105.54,-114.64 -12.63,-136.54 -36.53,-6.77 -77.47,-13.12 -117.99,-13.12 -212.54,0 -433.03,0.82 -647.79,5.51 -68.22,1.49 -148.23,4.02 -213.57,2.33 -42.67,-1.11 -51.82,6.29 -67.48,34.62l-70.03 129.94c-33.68,61.24 -72.98,141.81 -104.99,197.53 -13.26,23.09 -21.42,41.72 -35.5,64.49 -6.75,10.92 -32.01,57.94 -31.59,70.62z"/>
   <path class="fil0" d="M4942.31 805.96c9.85,17.98 -4.56,5.67 14.55,11.35l294.55 0.82c69.08,-196.08 153.77,-406 228.09,-602.1 59.13,-155.98 -13.24,-219.08 -152.37,-215.91 -96.53,2.2 -215.77,57.42 -312.79,73.36 -19.21,-17.48 -10.77,-21.06 -36.92,-38.88 -116.76,-79.61 -250.13,2.9 -385.17,14.4l-2.4 -38.4 -303.42 -3.32c-25.81,14.52 -35.34,68.83 -47.14,98.6 -45.9,115.86 -270.09,687.99 -270.64,715.99l298.62 -0.43c17.61,-22.06 208.61,-508.46 244.79,-601.67 15.5,-39.94 25.92,-61.62 68.91,-65.44 48.45,-4.3 76.31,-2.71 106.06,21.33 18.92,33.49 -142.3,414.72 -173.56,494.42 -18.27,46.57 -44.09,104.75 -57.92,153.07l307.93 0.17c29.66,-60.19 189,-493.7 233.39,-604.23 15.28,-38.18 26.87,-60.4 69.42,-64.88 46.37,-4.87 77.23,-2.04 106.72,19.58 5.38,61.89 -132.19,384.68 -169.83,479.65 -19.36,48.81 -38.03,107.18 -60.88,152.52zm0 888.39c9.85,17.98 -4.56,5.67 14.55,11.35l294.55 0.82c69.08,-196.08 153.77,-406 228.09,-602.1 59.13,-155.99 -13.24,-219.08 -152.37,-215.92 -96.53,2.2 -215.77,57.42 -312.79,73.36 -19.21,-17.48 -10.77,-21.06 -36.92,-38.89 -116.76,-79.6 -250.13,2.9 -385.17,14.4l-2.4 -38.4 -303.42 -3.32c-25.81,14.52 -35.34,68.83 -47.14,98.59 -45.9,115.87 -270.09,688 -270.64,715.99l298.62 -0.43c17.61,-22.06 208.61,-508.46 244.79,-601.67 15.5,-39.94 25.92,-61.62 68.91,-65.44 48.45,-4.3 76.31,-2.71 106.06,21.33 18.92,33.5 -142.3,414.72 -173.56,494.42 -18.27,46.57 -44.09,104.75 -57.92,153.07l307.93 0.16c29.66,-60.18 189,-493.7 233.39,-604.22 15.28,-38.18 26.87,-60.4 69.42,-64.88 46.37,-4.88 77.23,-2.04 106.72,19.58 5.38,61.89 -132.19,384.68 -169.83,479.65 -19.36,48.81 -38.03,107.18 -60.88,152.52zm-4761.2 19.08c-52.11,0.02 -171.99,-7.83 -180.42,-86.47 -8.3,-77.45 60.39,-217.68 89.9,-290.28 41.35,-103.43 84.36,-202.37 128.75,-303.33 69.98,-159.15 117.95,-137.43 274.46,-137.68l395.91 -0.65c158.87,-0.26 155.9,132.94 97.54,253.54l-321.06 0.5c-7.91,-7.29 -13.55,10.3 -4.3,-10.93 12.67,-77.72 88.26,-145.52 -59.79,-141.69 -38.27,0.99 -58.1,13.14 -73.37,46.98 -26.52,58.8 -46.79,120.39 -72.64,178.76 -22.39,50.56 -149.36,328.87 -125.79,365.66 22.35,19.79 61.74,16.89 93.36,15.68 40.48,-1.55 52.84,-9.45 67.02,-45.05 17.68,-44.39 55.73,-130.03 64.45,-172.36l323.36 0c-12.78,45.6 -42.66,104.87 -64.82,154.18 -30.66,68.21 -29.63,92.41 -83.2,130.74 -53.35,36.25 -124.39,42.17 -192.31,42.2l-357.06 0.2zm2952.18 -443.2l-339.63 1.49 -52.37 145.22 340.07 -0.4 51.93 -146.31zm-1398.73 432.61l303.68 2.02c73.3,-200.26 161.56,-397.86 238.56,-597.59 15.58,-40.42 26.93,-60.76 69.48,-64.54 168.26,-14.93 107.02,63.89 -6.12,353.8l-120.84 315.17 309.45 0c71.85,-193.55 145.09,-377.14 217.4,-571.52 49.04,-131.82 62.05,-215.86 -80.21,-245.92 -82.66,-17.47 -217.04,30.92 -309.68,43.18l-1.27 -41.78 -312.19 0c-48.06,142.3 -168.42,441.79 -232.6,602.28 -16.81,42.03 -70.05,167.67 -75.66,204.89zm1786.06 -343.42c34.41,-60.01 135.53,-61.99 194.32,-54.65 -22.56,56.25 -44.6,112.24 -67.41,168.46 -16.5,40.66 -34.58,104.32 -77.21,117.2 -23.76,6.44 -112.21,14.18 -114.66,-26.16 -1.8,-29.61 22.68,-105.78 33.63,-135.31 9.15,-24.24 19.13,-47.05 31.32,-69.54zm-203.95 -215.99c28.58,16.83 238.83,8.46 286.34,3.96 58.5,-127.76 39.58,-151.37 134.35,-150.72 120.19,0.82 79.17,58.18 29.39,192.98 -43.22,14.33 -171.1,15.93 -225.07,19.89 -260.29,19.08 -274.56,-21.68 -345.91,158.11 -24.93,62.84 -50.69,126.88 -73.03,192.47 -27.77,81.49 17.13,152.61 84.62,152.59l482.17 -0.18c77.27,-0.03 147.34,-20.08 185.51,-59.87 32.03,-33.4 189.34,-464.55 227.95,-566.88 29.36,-77.8 22.15,-177.11 -50.26,-178.57l-475.2 -9.56c-76.84,-1.55 -139.61,25.54 -179.76,69.15 -27.79,30.18 -70.45,118.05 -81.09,176.64zm-1913.57 166.35c15.86,-11.64 57.44,-12.46 82.82,-9.9l-8.84 15.7c-16.71,58.08 -54.5,139.55 -80.76,198.05 -16.28,36.28 -24.74,70.97 -59.83,78.72 -37.71,8.33 -89.3,4.49 -113.16,-16.95 -10.08,-50.09 33.29,-137.36 48.79,-181.13 22.38,-63.24 59.37,-89.31 130.99,-84.48zm-37.68 -157.01c24.76,-37.36 34.61,-98.81 61.48,-132.92 27.53,-34.94 109.99,-26.97 147.77,-10.41 22.01,64.59 -24.46,119.74 -40.13,184.1 -76.01,4.72 -152.27,11.03 -229.76,16.19 -256.93,17.13 -275.67,-18.04 -343.23,158.64 -25.69,67.18 -50.07,126.31 -72.66,192.72 -26.86,78.93 16.73,151.72 83.73,151.59l472.99 -0.91c250.47,-0.48 211.19,-78.93 425.79,-629.59 30.69,-78.75 7.02,-156.43 -58.19,-177.01 -10.85,-3.43 -30.15,-7.61 -55.18,-7.61l-421.39 0.03c-74.55,0.01 -139.01,28.95 -176.66,72.79 -19.69,22.93 -76.96,134.5 -77.15,182.37l282.61 0zm-1184.32 -327.72c-52.11,0.02 -171.99,-7.83 -180.42,-86.46 -8.3,-77.46 60.39,-217.68 89.9,-290.29 41.35,-103.42 84.36,-202.37 128.75,-303.33 69.98,-159.15 117.95,-137.43 274.46,-137.68l395.91 -0.65c158.87,-0.26 155.9,132.94 97.54,253.54l-321.06 0.5c-7.91,-7.28 -13.55,10.3 -4.3,-10.93 12.67,-77.72 88.26,-145.52 -59.79,-141.68 -38.27,0.99 -58.1,13.14 -73.37,46.98 -26.52,58.8 -46.79,120.39 -72.64,178.76 -22.39,50.56 -149.36,328.87 -125.79,365.66 22.35,19.79 61.74,16.89 93.36,15.68 40.48,-1.55 52.84,-9.44 67.02,-45.05 17.68,-44.39 55.73,-130.03 64.45,-172.36l323.36 0c-12.78,45.6 -42.66,104.88 -64.82,154.18 -30.66,68.21 -29.63,92.41 -83.2,130.73 -53.35,36.25 -124.39,42.17 -192.31,42.21l-357.06 0.2zm2952.18 -443.2l-339.63 1.48 -52.37 145.22 340.07 -0.4 51.93 -146.31zm-1398.73 432.61l303.68 2.02c73.3,-200.26 161.56,-397.86 238.56,-597.59 15.58,-40.42 26.93,-60.76 69.48,-64.54 168.26,-14.93 107.02,63.89 -6.12,353.8l-120.84 315.17 309.45 0c71.85,-193.56 145.09,-377.14 217.4,-571.52 49.04,-131.82 62.05,-215.86 -80.21,-245.92 -82.66,-17.47 -217.04,30.92 -309.68,43.18l-1.27 -41.78 -312.19 0c-48.06,142.3 -168.42,441.79 -232.6,602.28 -16.81,42.02 -70.05,167.66 -75.66,204.89zm1786.06 -343.42c34.41,-60.01 135.53,-61.99 194.32,-54.65 -22.56,56.25 -44.6,112.24 -67.41,168.46 -16.5,40.66 -34.58,104.32 -77.21,117.2 -23.76,6.44 -112.21,14.18 -114.66,-26.16 -1.8,-29.61 22.68,-105.78 33.63,-135.31 9.15,-24.24 19.13,-47.05 31.32,-69.54zm-203.95 -215.99c28.58,16.82 238.83,8.46 286.34,3.96 58.5,-127.76 39.58,-151.37 134.35,-150.72 120.19,0.83 79.17,58.18 29.39,192.98 -43.22,14.34 -171.1,15.94 -225.07,19.89 -260.29,19.08 -274.56,-21.68 -345.91,158.12 -24.93,62.83 -50.69,126.87 -73.03,192.47 -27.77,81.49 17.13,152.61 84.62,152.58l482.17 -0.17c77.27,-0.03 147.34,-20.08 185.51,-59.87 32.03,-33.4 189.34,-464.55 227.95,-566.88 29.36,-77.8 22.15,-177.11 -50.26,-178.57l-475.2 -9.57c-76.84,-1.55 -139.61,25.55 -179.76,69.15 -27.79,30.18 -70.45,118.05 -81.09,176.64zm-1913.57 166.35c15.86,-11.64 57.44,-12.46 82.82,-9.9l-8.84 15.7c-16.71,58.08 -54.5,139.55 -80.76,198.05 -16.28,36.28 -24.74,70.97 -59.83,78.72 -37.71,8.33 -89.3,4.49 -113.16,-16.95 -10.08,-50.09 33.29,-137.36 48.79,-181.13 22.38,-63.24 59.37,-89.31 130.99,-84.48zm-37.68 -157.01c24.76,-37.36 34.61,-98.81 61.48,-132.91 27.53,-34.94 109.99,-26.97 147.77,-10.41 22.01,64.58 -24.46,119.74 -40.13,184.1 -76.01,4.72 -152.27,11.03 -229.76,16.19 -256.93,17.13 -275.67,-18.04 -343.23,158.64 -25.69,67.19 -50.07,126.31 -72.66,192.72 -26.86,78.93 16.73,151.72 83.73,151.59l472.99 -0.91c250.47,-0.49 211.19,-78.93 425.79,-629.59 30.69,-78.74 7.02,-156.43 -58.19,-177 -10.85,-3.43 -30.15,-7.61 -55.18,-7.61l-421.39 0.03c-74.55,0.01 -139.01,28.95 -176.66,72.79 -19.69,22.93 -76.96,134.5 -77.15,182.36l282.61 0z"/>
  </g>
 </g>
</svg>
