<?xml version="1.0" encoding="UTF-8"?>
<!DOCTYPE svg PUBLIC "-//W3C//DTD SVG 1.1//EN" "http://www.w3.org/Graphics/SVG/1.1/DTD/svg11.dtd">
<!-- Creator: CorelDRAW -->
<svg xmlns="http://www.w3.org/2000/svg" xml:space="preserve" width="748.111mm" height="506.578mm" version="1.1" style="shape-rendering:geometricPrecision; text-rendering:geometricPrecision; image-rendering:optimizeQuality; fill-rule:evenodd; clip-rule:evenodd"
viewBox="0 0 49933.07 33811.79"
 xmlns:xlink="http://www.w3.org/1999/xlink"
 xmlns:xodm="http://www.corel.com/coreldraw/odm/2003">
 <defs>
  <style type="text/css">
   <![CDATA[
    .fil0 {fill:black}
    .fil1 {fill:#D9D9D9}
    .fil2 {fill:red}
   ]]>
  </style>
 </defs>
 <g id="Camada_x0020_1">
  <metadata id="CorelCorpID_0Corel-Layer"/>
  <path class="fil0" d="M12779.96 15808.73l-1960.6 16816.75 -213.05 146.54 -1170.28 1039.77 -1142.64 -952.05 -215.13 -147.19 -1972.86 -16922.05c1738.79,2602.05 4925.14,2613.23 6674.56,18.21l-0.01 0.01z"/>
  <path class="fil1" d="M9366.7 19343.38c-512.1,-6.06 -1037.47,2.96 -1549.31,-3.48 -52.36,-0.67 -97.27,19.94 -143.42,57.75 -94.75,77.66 -181.77,192.45 -253.39,291.42 -18.07,24.99 -16.45,59.36 2.94,84.6 87.6,113.97 178.76,211.22 274.05,289.27 31.08,25.44 61.21,36.98 96.3,36.82l3283.91 -13.98c40.46,-0.16 75.01,-12.26 111.45,-39 104.29,-76.49 193.74,-180.27 274.82,-299.44 27.89,-40.98 8.46,-113.92 -30.24,-113.07l-927.55 20.66c-68.03,1.52 -101.8,37.92 -148.07,83.47 -7.14,7.01 -3.82,24.11 4.6,24.18l453.24 3.9c-53.75,70.14 -128.34,133.12 -230.74,186.51 -27.97,14.58 -53.21,21.04 -82.8,21.21l-308.83 1.7c-32.85,0.18 -61.34,-9.56 -89.92,-34.93 -65.63,-58.22 -124.75,-129.7 -179.52,-209.95 -10.87,-15.92 -10.87,-42.93 0.81,-58.35 48.54,-64.1 101.89,-124.11 164.85,-175.85 24.76,-20.3 48.68,-29.79 76.78,-30.42l1080.96 -24.98c8.74,-0.2 11.49,-18.36 3.73,-24.68 -61.67,-50.33 -104.9,-87.96 -188.26,-87.54l-1353.93 6.45c-54.96,0.27 -100.61,15.31 -149.24,54.27 -87.32,69.92 -168.55,159.74 -244.5,266.51 -23.55,33.11 -28.61,77.1 -5.37,105.1l185.59 224.05 -1231.44 -12.6c-100.07,-41.26 -170.99,-121.76 -223.28,-227.41 -14.24,-28.78 -16.71,-35.6 0.43,-65.7 73.41,-128.69 149.98,-189.86 228.49,-208.91l963.02 -13.58c61.36,-0.87 97.55,-47.17 138.86,-90.35 6.45,-6.76 3.32,-23.6 -5.03,-23.65l-0.01 0zm692.64 827.82l759.48 -0.69c47.51,0.05 47.8,15.43 9.25,29.95l-155.1 56.76 -555.46 6.74c-52.13,-0.57 -58.38,26.04 -82.62,69.11l732.63 -11.59c28.31,-0.47 41.36,9.25 27.46,29.19l-79.3 125.88 -184.17 96.97 -966.35 -0.27 47.28 -84.53 606.36 -5.53 166.42 -76.92 -709.59 5.84c17.47,-69.26 14.4,-107.83 80.85,-134.11 81.97,-35.78 217.65,-111.02 302.85,-106.78l0.01 -0.02zm-2144.35 99.87c89.79,-47.82 126.9,-80.4 233.12,-82.28l336.53 -1.35c35.3,-2.72 38.71,14.16 29.08,29.32l-199.76 372.61 -364.3 1.64 158.21 -290.68 -181.25 1.19c-55.14,1.82 -32.95,-19.4 -11.65,-30.46l0.01 0.01zm1533.13 -76.61l-850.12 -2.96c-18.79,-2.04 -19.71,8.18 -3.88,16.25l121.92 67.56 570.09 7.99c55.45,-0.36 31.7,26.07 10.24,66.5l-744.61 -13.06c-30.67,-4.29 -58.69,8.33 -63.05,24.02l-57.1 124.79 85.36 93.46 1004.85 2.42 43.34 -81.21 -624.28 -6.96 -88.84 -74.23 731.26 7.54 69.84 -80.48c12.98,-25.19 10.89,-38.84 -7.09,-48.38 -46.05,-34.55 -104.78,-107.05 -197.94,-103.24l0.01 0z"/>
  <path class="fil1" d="M6768.86 16594.3l1588.84 15628.46c3.55,34.89 45.6,29.5 43.33,-5.66l-788.73 -12144.89c-81.97,-74.47 -157.75,-159.79 -227.93,-251.1 -39.53,-51.43 -41.18,-126.68 -4.06,-178 58.26,-80.51 120.61,-163.09 188.98,-233.36l-148.54 -2287.26c-230.17,-152.04 -448.28,-328.92 -651.87,-528.18l-0.03 0zm5328.87 29.88l-1575.17 15581.2c-3.5,34.85 -45.6,29.53 -43.33,-5.68l782.54 -12129.24c91.9,-76.81 171.92,-173.2 243.74,-278.72 57.79,-84.93 14.1,-227.75 -72.63,-225.84l-138.75 3.1 6.22 -96.34c4.29,-8.58 7.36,-18.28 8.92,-28.69 2.45,-16.35 0.95,-33.03 -3.98,-47.91l145.58 -2256.34c228.13,-148.24 444.45,-321.04 646.86,-515.54l-0.01 0z"/>
  <path class="fil2" d="M45045.96 22454.69c-9429.85,-7982.25 -20091.75,6992.28 -29025.17,9105.31 918.73,504.7 1791.1,908.2 2624.71,1222.16 9397.35,-2823.97 21678.05,-11020.14 27797.22,-7735.99 -581.95,-826.61 -1044.91,-1681.21 -1396.77,-2591.48zm-18171.79 8334.4c2550.59,1073.49 7132.23,-1975.04 11582.94,-1999.13 3218.85,-183 6363.05,113.41 10668.25,668.88 594.48,243.97 1217.52,-374.18 453.82,-1055.01 -508.22,-439.31 -1673.94,-1408.62 -2105.35,-1846.13 -591.35,-166.6 -1191.5,-293.27 -1806.68,-380.24 -4582.05,-648.05 -9996.6,907.89 -18792.96,4611.61l-0.03 0.01z"/>
  <path class="fil1" d="M28919.67 28737.5l-2169.29 1373.22 1247.56 -2744.92 -816.26 -141.35 6812.47 -2417.3 -496.21 653.02 -3677.9 1281.08 -152.47 319.02 1973.63 -627.46 -552.13 648.31 -1724.86 551.22 -444.55 1105.17 0 -0.02zm5103.79 -2132.36l-1675.09 535.86 2173.85 -2528.5 3367.1 -1087.88 -678.23 556.56 928.97 792.46 661.48 -1639.86 1725.69 -583.95 1036.2 574.51 385.56 -978.24 2223.13 -736.71 -543.52 428.07 -687.54 1767.65 -2022.57 609.81 -802.21 -450.51 -322.7 828.4 -3018.92 980.94 -380.02 -351.57 -1778.48 589.4 -592.68 693.53 0 0.03zm1085.95 -1356.42l626.21 -584.08 345.56 274.84 -971.78 309.23 0.01 0z"/>
  <polygon class="fil2" points="3478.22,9023.18 24222.28,14902.04 -0,5589.38 3311.8,8115.97 2237.52,7785.84 "/>
  <polygon class="fil0" points="6235.54,10646.02 25245.23,15338.93 5383.39,9731.83 "/>
  <path class="fil0" d="M25264.04 11428.51l-12131.3 -8885.04c561.5,-548.27 780.74,-807.39 894.68,-1489.05l4829.52 3805.54c1036.2,2380.88 4359.02,4564.01 6705.59,5997.16 113.29,69.2 145.71,282.47 -29.86,405.34 -86.44,60.49 -176.13,115.62 -268.62,166.06l0 -0.01z"/>
  <path class="fil2" d="M23207.86 11112.59l-12209.18 -8747.59c-1452.36,1204.2 -3735.06,2052.39 -5651.42,2544.37 -111.18,28.54 -138.24,257.59 22.11,322.93 5518.7,2249.09 10986.84,4741.55 16825.91,6040.91 223.56,49.75 426.66,41.08 645.17,-27.57 125.46,-39.41 248.14,-83.36 367.4,-133.07l0.01 0.03z"/>
  <path class="fil1" d="M18282.81 5189.08l-1128.25 -897.94c-54.76,-43.58 -113.99,-64.7 -183.77,-65.5l-201.95 -2.34c-32.95,-0.38 -56.71,32.18 -48.3,64.32l41.96 160.73c18.79,72.03 55.41,127.73 112.93,171.8l487.52 373.51 125.31 -14.66 -418.23 -312.37 -65.47 -94.37 289.65 -34.08 1127.02 883.82c60.67,47.6 28.17,159.58 -56.67,162.55l-491.81 17.2c-73.62,2.58 -137.09,-17.99 -195.31,-63.31l-3554.66 -2767.28c-55.79,-43.44 -91.41,-97.58 -110.35,-167.68l-121.8 -451.17c-21,-77.79 35.9,-157.3 115.88,-157.21l467.74 0.54c70.28,0.07 130.07,21.02 185.56,64.42l1713.21 1340.6c13.27,10.37 23.95,37.12 32.96,54.94 18.43,36.42 -10.75,80.41 -50.7,75.44 -124.03,-15.42 -242.1,-17.67 -343.56,-101.17l-905.98 -745.61c-48.9,-40.23 -100.94,-61.67 -163.67,-67.42l-236.24 -21.64c-35.43,-3.24 -62.21,32.59 -51.23,66.83l59.68 185.72c20.21,62.89 53.3,111.07 103.82,151.14l1198.2 950 -35.81 -131.46c-25.89,-94.99 41.02,-192.79 138.62,-197.06l386.94 -16.95c74.74,-3.26 139.38,17.43 198.39,63.58l1517 1185.57c97.58,76.25 123.17,153.88 170.95,260.62 12.26,27.41 -1.13,60.35 -29.43,70.68 -30.35,11.09 -54.56,25.53 -80.13,5.17l-0.04 0.05zm-1476.41 2280.25c-133.75,-5.16 -392.84,-26.4 -529.35,-43.38 -139.42,-17.35 -177.64,-24.9 -199.57,-120.68 -21.57,-94.23 -11.57,-171.51 -83.67,-258.04 -69.38,-83.29 -244.56,-173.02 -384.67,-224.1 -222.9,-81.25 -553.51,-146.79 -790.95,-161.07 -126.83,-7.63 -253.63,-4.63 -317.43,-3.42 -63.81,1.23 -64.62,0.69 -3.78,14.57 292.83,66.84 798.1,196.72 1079.29,314.77 108.76,45.65 286.35,138.68 358.35,184.82 25.6,16.41 42.52,29.99 55.81,72.95 13.29,42.97 22.97,115.32 27.81,151.51 4.83,36.17 4.83,36.17 -25.35,49.71 -30.18,13.54 -90.53,40.61 -120.7,54.13 -30.18,13.54 -30.18,13.54 16.48,11.54 607.36,-26.11 1856.03,296.36 2404.19,571.74 40.19,20.18 40.19,20.18 51.03,66.83 10.85,46.65 32.55,139.94 43.38,186.59 14.03,60.4 21.29,43.87 -153.69,90.53 -32.91,8.76 -32.91,8.76 1.54,18.09 467.47,126.5 856.87,285.18 1337.53,513.83 171.67,81.66 408.3,198.81 461.92,264.75 56.71,69.71 55.63,248.21 -12.96,315.81 -22.13,21.82 -50.94,36.84 -138.39,52.4 -375.42,66.77 -438.8,3.14 -266.8,133.21 685.64,518.53 2810.41,2021 3581.83,2568.47 601.58,426.92 601.58,426.92 594.93,434.27 -41.1,45.47 -15.42,50.23 -147.69,-32.06 -599.44,-372.91 -1390.28,-864.76 -2191.59,-1375.58 -816.58,-520.55 -1938.96,-1251.71 -2590.04,-1672.98 -141.69,-91.67 -141.69,-91.67 -158.65,-142.39 -117.94,-352.4 -132.85,-364.24 204.18,-470.9 40.26,-12.75 40.26,-12.75 12.31,-28.33 -141.72,-79.1 -390.41,-192.48 -567.76,-263.16 -158.73,-63.25 -346.22,-115.6 -486.84,-139.4 -127.62,-21.6 -168.07,21.71 -315.2,79.3 -74.77,29.28 -164.51,58.04 -217.27,70.12 -52.78,12.08 -68.55,7.48 -90.08,-7.99 -103.73,-74.5 -177.41,-242.01 -204.18,-371 -13.72,-66.1 -22.56,-210.76 22.09,-240.86 44.27,-29.86 136.85,-8.74 144.8,-46.97 11.07,-53.12 -608.47,-189.25 -720.18,-213.59 -327.69,-71.4 -678.54,-132.69 -978.78,-129.12 -111.58,1.31 -198.09,11.03 -250.72,16.71 -76.86,8.3 -96.61,12.75 -145.11,-33.31 -67.2,-63.81 -148.45,-235.88 -181.5,-327.12 -21.62,-59.68 -19.22,-82.82 1.28,-107.48 58.94,-70.95 184.08,-86.35 265.67,-95.11 33.59,-3.6 33.59,-3.6 9.77,-12.95 -300.94,-117.98 -688.1,-248.21 -1022.71,-248.34 -108.29,-0.05 -242.99,9.48 -322.29,14.55 -104.44,6.67 -146.21,12.44 -201.12,-81.07 -59.2,-100.83 -115.24,-374.27 -126.76,-495.65 -10.1,-106.49 11.09,-139.63 92.98,-164.95 189.25,-58.53 731.62,13.74 999.71,55.88 238.31,37.45 424.81,81.16 518.05,102.99 93.24,21.85 93.24,21.85 22.34,-45.22 -70.88,-67.06 -212.66,-201.19 -425.28,-382.93 -1082.38,-925.13 -2295.65,-1778.95 -3445.9,-2627.8 -158.47,-116.95 -158.47,-116.95 -148.16,-130.72 57.92,-77.32 42.82,-73.64 89,-48.07 37.47,20.74 112.37,62.23 348.88,213.29 1709.28,1091.83 3457.22,2286.13 5049.17,3545.82 272.16,215.36 285.79,233.82 295.66,263.32 20.72,61.99 27.27,206 20.84,271.11 -3.6,36.48 -12.03,47.37 -145.77,42.21l0.07 -0.09zm-3379.65 -3016.62c372.07,55.32 744.39,164.67 1120.96,202.29 96.09,9.59 154.29,3.48 192.91,-1.5 38.63,-4.99 57.68,-8.84 1046.84,675.93 989.18,684.74 2948.5,2058.07 3928.15,2744.74 979.66,686.67 979.66,686.67 817.33,608.39 -162.33,-78.31 -487.02,-234.9 -722.35,-348.7 -235.34,-113.79 -381.32,-184.8 -484.27,-228.38 -102.94,-43.6 -162.84,-59.81 -279.98,-124.59 -117.15,-64.78 -291.52,-178.16 -800,-526.23 -508.49,-348.05 -1351.06,-930.79 -1841.28,-1265.54 -558.78,-381.57 -782.4,-535.31 -1139.85,-649.33 -116.37,-37.12 -331.59,-93.62 -453.59,-118.5 -460.51,-317.41 -924.36,-651.14 -1384.87,-968.55l-0.01 -0.01zm386.26 849.82c-564.93,-14.62 -1129.85,-29.21 -1446.59,-34.55 -332.53,-5.59 -463.34,-16.23 -549.53,65.09 -107.09,101.05 -51.98,117.37 -151.33,109.18 -166.57,-13.74 -309.19,-23.98 -469.35,-105.42 -132.67,-67.47 -184.26,-121.89 -249.78,-251.73 -102.7,-203.5 -175.53,-498.4 -192.3,-744.63 -8.98,-131.95 7.72,-210.35 32.13,-254.22 24.4,-43.85 56.47,-53.18 348.26,-13.78 291.8,39.4 770.6,115.88 1046.34,159.96 275.75,44.05 275.75,44.05 489.72,213.13 213.94,169.07 714.51,518.84 1142.42,856.99l0.01 -0.01z"/>
  <path class="fil0" d="M28050.11 11213.52l11406.42 -9798.25c-602.3,-503.12 -840.97,-744.48 -1007.37,-1415.27l-4520.16 4168.29c-848.63,2454.01 -3992.29,4888.01 -6220.77,6498.68 -107.57,77.77 -123.39,292.91 61.18,401.8 90.87,53.6 184.56,101.62 280.68,144.75l0.01 -0.01z"/>
  <path class="fil2" d="M28377.34 11339.6l11494.72 -9667.24c1541.3,1088.04 3882.84,1756.83 5831.57,2098.86 113.05,19.85 157.77,246.1 2.98,323.68 -5327.86,2669.91 -10586.45,5578.54 -16307.28,7326.41 -219.02,66.91 -422.19,74 -645.36,22.5 -128.12,-29.57 -253.86,-63.88 -376.61,-104.2l-0.01 0z"/>
  <path class="fil1" d="M38092.12 1148.82l-1073.47 962.74c-52.09,46.72 -82.8,101.61 -95.22,170.27l-35.97 198.72c-5.86,32.42 22.29,61.27 55.35,58.35l165.49 -14.57c74.16,-6.53 135.18,-33.34 188.22,-82.69l449.56 -418.43 6.43 -126 -377.71 360.29 -103.97 48.81 14.68 -291.27 1059.35 -963.88c57.05,-51.89 162.02,-1.17 150.83,82.98l-65.04 487.81c-9.74,73.01 -40.61,132.18 -94.99,182.02l-3321.2 3043.54c-52.13,47.76 -111.45,73.87 -183.74,80.85l-465.16 44.88c-80.2,7.74 -149.12,-61.63 -135.68,-140.46l78.51 -461.12c11.79,-69.3 42.41,-124.74 94.46,-172.22l1607.48 -1465.72c12.44,-11.34 40.61,-17.42 59.66,-23.33 38.99,-12.1 77.5,24 65.94,62.57 -35.88,119.73 -57.79,235.77 -157.03,321.89l-886.22 769c-47.82,41.51 -77.63,89.25 -93.76,150.14l-60.73 229.34c-9.1,34.39 21.75,66.79 57.35,61.65l193.07 -27.87c65.4,-9.45 118.41,-34.03 166.34,-77.17l1136.48 -1023.04 -135.59 13.38c-97.96,9.68 -183.25,-72.57 -171.19,-169.55l47.8 -384.35c9.25,-74.23 40.44,-134.51 95.76,-185.02l1421.91 -1298.12c91.45,-83.5 172.27,-95.78 285.46,-125.1 29.07,-7.54 59.32,11.18 64.78,40.8 5.86,31.77 16.07,58.06 -8.26,79.87l-0.01 0.02zm-2428.97 6087.76c-39.69,127.84 -127.44,372.54 -179.27,499.96 -52.94,130.13 -70.14,165.09 -168.34,161.41 -96.61,-3.62 -168.65,-33.32 -270.91,13.85 -98.43,45.4 -230.56,191.27 -316.25,313.34 -136.29,194.18 -285.41,496.47 -360.82,722.07 -40.28,120.48 -70.28,243.72 -85.68,305.66 -15.38,61.93 -16.12,62.59 13.09,7.43 140.53,-265.45 397.1,-719.72 584.06,-960.65 72.33,-93.18 208.24,-240.55 271.49,-298.11 22.5,-20.48 39.99,-33.29 84.93,-34.96 44.95,-1.68 117.35,7.76 153.53,12.46 36.19,4.73 36.19,4.73 41.44,37.38 5.25,32.65 15.73,97.96 20.95,130.61 5.25,32.65 5.25,32.65 15.42,-12.93 132.38,-593.33 767.85,-1715.54 1176.04,-2173.47 29.92,-33.57 29.92,-33.57 77.79,-31.93 47.87,1.62 143.58,4.89 191.45,6.53 61.97,2.11 47.89,-9.18 47.55,171.92 -0.07,34.04 -0.07,34.04 17.87,3.21 243.47,-418.64 497.76,-753.52 843.31,-1158.38 123.41,-144.61 297.96,-342.71 375.55,-377.41 82.04,-36.68 254.15,10.69 301.64,94.46 15.32,27.03 22.36,58.74 14.7,147.24 -32.93,379.9 -110.84,424.57 59.41,292.23 678.69,-527.6 2681.06,-2189.68 3409.96,-2792.62 568.4,-470.18 568.4,-470.18 573.78,-461.85 33.27,51.49 44.5,27.91 -69.3,134.31 -515.7,482.15 -1195.92,1118.24 -1897.18,1759.55 -714.62,653.53 -1711.97,1547.72 -2287.78,2067.18 -125.29,113.03 -125.29,113.03 -178.68,116.26 -370.93,22.45 -386.22,33.77 -401.78,-319.38 -1.86,-42.18 -1.86,-42.18 -24.16,-19.26 -113.16,116.34 -287.2,327.08 -401.47,480.02 -102.29,136.88 -201.48,304.35 -260.96,433.97 -53.98,117.63 -22.65,167.94 -5.21,324.99 8.87,79.81 13.36,173.95 11.34,228.02 -2.04,54.09 -10.57,68.15 -31.08,84.93 -98.88,80.85 -279.75,108.53 -411.29,100.92 -67.4,-3.91 -209.39,-32.91 -226.88,-83.83 -17.35,-50.49 27.07,-134.42 -7.79,-152.04 -48.43,-24.47 -340.68,538.51 -393.16,640.08 -154,297.95 -304.22,620.86 -378.69,911.74 -27.68,108.09 -40.75,194.16 -48.92,246.46 -11.92,76.38 -12.75,96.63 -69.82,131.5 -79.07,48.32 -266.31,82.15 -363,90.41 -63.25,5.39 -84.96,-2.92 -103.46,-29.12 -53.23,-75.34 -35.63,-200.16 -22.92,-281.25 5.23,-33.37 5.23,-33.37 -9.97,-12.8 -192.03,260.01 -418.26,600.11 -505.23,923.22 -28.15,104.58 -53.9,237.13 -69.58,315.02 -20.66,102.59 -25.93,144.44 -130.49,173.18 -112.75,31 -391.34,14.17 -511.57,-6.22 -105.46,-17.89 -131.97,-46.94 -135.16,-132.6 -7.41,-197.96 203.12,-703.01 313.38,-950.97 98.02,-220.43 188.62,-389.18 233.9,-473.57 45.29,-84.37 45.29,-84.37 -37.86,-33.32 -83.16,51.05 -249.49,153.17 -480.18,311.34 -1174.32,805.22 -2313.71,1755.37 -3431.99,2645.95 -154.08,122.7 -154.08,122.7 -164.69,109.16 -59.63,-76 -59.99,-60.46 -23.33,-98.43 29.75,-30.8 89.25,-92.38 296.52,-281.59 1498,-1367.4 3104.97,-2745.54 4734.62,-3956.07 278.6,-206.96 299.98,-215.33 331.03,-217.2 65.24,-3.93 206.02,27.14 267.24,50.23 34.29,12.95 42.64,23.91 2.94,151.73l-0.02 -0.02zm-3790.29 2481.08c149.96,-344.97 352.22,-676.16 486.24,-1030.06 34.19,-90.3 43.4,-148.11 48.63,-186.71 5.21,-38.59 6.43,-57.99 924.41,-835.57 917.97,-777.61 2752.7,-2313.45 3670.06,-3081.35 917.38,-767.92 917.38,-767.92 799.64,-631.45 -117.76,136.44 -353.24,409.38 -524.21,607.12 -170.97,197.75 -277.41,320.32 -346.23,408.42 -68.82,88.1 -100.02,141.74 -192.99,238.06 -92.97,96.3 -247.71,235.3 -715.81,636.04 -468.07,400.74 -1249.49,1063.23 -1699.99,1449.8 -513.51,440.62 -719.98,616.7 -922.88,932.29 -66.04,102.74 -176.47,295.94 -232.15,407.3 -426.06,362.37 -868.69,723.73 -1294.75,1086.1l0.03 0zm920.93 -152.49c-160.71,541.77 -321.4,1083.55 -408.74,1388.08 -91.69,319.67 -135.92,443.26 -79.73,547.6 69.8,129.64 99.84,80.66 66.16,174.49 -56.49,157.3 -103.39,292.37 -223.6,425.91 -99.58,110.6 -165.52,146.32 -307.92,175.91 -223.19,46.37 -526.86,40.19 -769.02,-7.52 -129.77,-25.57 -201.14,-62.05 -237.18,-96.99 -36.02,-34.93 -36.69,-68.33 77.06,-339.92 113.75,-271.57 311.88,-714.14 425.98,-968.98 114.1,-254.87 114.1,-254.87 332.91,-417.63 218.81,-162.75 686.48,-555.41 1124.09,-880.9l0 -0.03z"/>
  <polygon class="fil2" points="45774.25,7288.4 25548.04,14756.82 48975.99,3595.45 45869.89,6371.02 46915.37,5958.65 "/>
  <polygon class="fil0" points="46588.99,8986.61 28000.04,15138.27 47367.73,8009.13 "/>
  <path class="fil2" d="M13240.02 23368.12c3420.99,-11871.62 20597.16,-5322.37 29203.02,-8517.72 -484.67,929.46 -986.91,1748.99 -1506.51,2472.49 -9386.17,2860.93 -24150.75,2850.15 -27421.84,8976.3 25.91,-1010.58 -62.71,-1978.48 -274.66,-2931.08l-0.01 0zm19743.64 -3140.88c-1527.28,2307.65 -7030.45,2311.35 -10747.57,4759.29 -2780.1,1632.62 -5232.27,3622.8 -8506.93,6472.34 -359.41,532.69 -1220.68,363.76 -962.67,-626.31 179.34,-647.38 611.92,-2100.44 728.31,-2703.74 399.73,-466.55 828.9,-904.78 1292.62,-1318.26 3453.69,-3080.12 8822.35,-4787.74 18196.23,-6583.32l0.01 0z"/>
  <path class="fil0" d="M15251.97 26009.02c3704.03,-5943.11 18687.03,-5895.85 27856.74,-8921.47l-477.55 826.45c-4594.74,3089.32 -21489.2,3021.72 -27422.68,10348.88l43.49 -2253.87z"/>
  <path class="fil1" d="M19453.27 22184.95l-2291.07 1158.67 1505.26 -2612.51 -798.92 -219.04 7013.03 -1752.28 -556.6 602.4 -3783.88 922.16 -182.38 302.9 2024.75 -435.14 -611.81 592.32 -1769.79 383.12 -548.57 1057.41 -0.02 -0.01zm1522.1 4559.59c-8.96,27.32 -28.58,51.75 -56.45,68.46l-2360.67 1420.46c-33.57,20.21 -70.03,24.65 -103.98,12.65l-323.55 -114.08 29.12 304.56c4.18,43.67 -18.86,86.12 -60.44,111.56l-851.8 521.6c-71.89,43.98 -161.54,10.59 -168.59,-67.67l-73.37 -820.52 -267.44 164.57c-72.69,47.24 -167.47,83.9 -233.25,23.06 -59.28,-54.78 -36.5,-144.97 0.99,-214.28 142.54,-263.58 198.45,-435.57 463.88,-594.88l783.05 -478.85c66.1,-46.52 134.44,-59 187.9,-42.32 7.9,-49.17 46.25,-89.92 94.68,-114.34l1990.74 -1194.5c188.37,-118.63 366.09,-106.33 572.3,-60.82 44.09,9.74 89.05,21.37 134,28.71 13.31,0.45 25.73,1.86 37.25,4.06 11.77,-53.19 34.94,-103.88 73.55,-155.82 70.86,-109.81 134.64,-223.35 205.84,-333.29 91.41,-141.35 223.44,-329.82 378.95,-414.42l1777.29 -1078.39c203.39,-123.46 306.31,-5.55 265.27,116.7 -15.63,46.58 -30.9,59.36 -51.39,93.24l-275.15 369.7 177.41 -111.77c139.25,-87.61 281.88,-45.26 280.91,111.9l12.8 439c0.56,19.82 -3.8,37.45 -13.86,55.97l-278.9 514.44c-11.33,20.86 -26.54,36.68 -47.55,49.39l-2266.96 1371.43c-10.67,6.38 -21.62,11.2 -32.64,14.52l0.03 -0.02zm-156.52 -399.08c1.98,-10.62 5.53,-21.04 10.51,-30.8l-1496.57 882.8 22.88 4.78 607.75 -351.42 823.13 -491.09c10.48,-6.35 21.33,-11.11 32.29,-14.26zm49.19 -75.48c3.26,-2.34 6.6,-4.67 10.1,-6.74l789.69 -482.06 595.87 -375.71 26.5 -43.18 -1276.27 789.57c-39.27,24.42 -87.09,27.53 -125.39,4.51 -4.09,34.71 -6.35,85.72 -20.52,113.59l0.01 0.02zm-2828.92 899.64l24.76 261.88c28.22,-26.56 61.23,-48.66 95.83,-64.21l328.47 -190.19c-67.37,-0.47 -407.81,1.82 -449.06,-7.48l0.01 0zm-1232.52 -1404.36c-2.8,14.89 -17.02,28.23 -42.64,40.25l-298.56 139.58c-57.43,26.83 -161.68,52.24 -148.3,-18.57l61.23 -323.62c12.82,-67.63 119.92,-143.94 184.84,-174.27l298.56 -139.56c50.36,-23.57 34.71,0.56 18.03,89.59 -2.76,14.86 -17.02,28.22 -42.64,40.25l-215.29 100.61c-32.02,14.98 -28.33,26.16 -35.4,63.98 -1.82,9.92 5.71,10.77 22.81,2.81l215.25 -100.67c50.09,-23.4 35.03,0.18 18.09,89.69 -2.8,14.78 -16.99,28.29 -42.64,40.26l-215.2 100.63c-31.75,14.8 -28.09,25.12 -34.21,57.23 -1.91,9.9 5.7,10.85 22.81,2.83l215.27 -100.61c49.97,-23.39 34.98,-0.05 18.03,89.59l-0.03 0zm617.49 -356.33c-12.78,68.27 -119.49,143.83 -184.76,174.36l-337 157.48c-49.67,23.24 -35.34,0.65 -18.1,-89.63 2.85,-14.78 17.09,-28.2 42.7,-40.13l253.68 -118.7c32.4,-15.11 28.11,-25.84 35,-61.7 7.25,-37.76 -172.77,94.59 -261.02,83.56 -28.92,-3.6 -40.82,-18.81 -35.78,-45.51l24.58 -129.82c12.82,-67.78 119.87,-144.01 184.85,-174.34l336.91 -157.63c50.51,-23.51 34.69,0.75 18.07,89.65 -2.74,14.88 -16.99,28.27 -42.62,40.3l-253.69 118.55c-32.06,14.95 -28.09,25.94 -34.83,61.02 -7.27,37.79 172.7,-94.61 261.02,-83.57 28.92,3.62 40.82,18.82 35.78,45.53l-24.74 130.6 -0.03 -0.02zm635.64 -452.05c-12.67,67.58 -120.02,144.08 -184.76,174.36l-125.6 58.64c-17.07,8.06 -26.54,16.97 -28.38,26.89l-25.16 132.85c-2.87,14.78 -17.04,28.17 -42.72,40.15l-147.29 68.97c-25.66,11.97 -37.11,10.48 -34.24,-4.33l89.29 -472c2.87,-14.8 17.04,-28.18 42.64,-40.25l336.98 -157.52c58.74,-27.45 161.4,-50.74 148.3,18.56l-29.07 153.66 0.01 0.02zm-215.07 56.59c15.4,-81.43 25.73,-77.52 -54.31,-40.19 -34.53,16.1 -29.12,30.11 -39.27,83.9 -4.38,23.26 89.33,-21.23 93.58,-43.7zm733.95 -76.58c-2.83,14.84 -17.02,28.22 -42.64,40.25l-298.56 139.58c-57.23,26.68 -161.72,52.16 -148.34,-18.64l61.25 -323.55c12.75,-67.65 119.94,-144 184.78,-174.38l298.56 -139.56c50.27,-23.47 34.85,0.61 18.09,89.71 -2.78,14.82 -17.02,28.22 -42.64,40.25l-215.23 100.58c-32.15,15 -28.41,25.96 -35.52,63.88 -1.82,9.92 5.79,10.87 22.86,2.92l215.25 -100.67c50.07,-23.46 35.07,0.11 18.09,89.69 -2.8,14.78 -17.04,28.18 -42.7,40.15l-215.2 100.63c-31.57,14.78 -28.09,25.35 -34.17,57.29 -1.91,9.9 5.7,10.85 22.81,2.83l215.25 -100.67c50.09,-23.39 35,0.31 18.09,89.71l-0.02 0zm476.62 -222.8c-2.8,14.76 -17.02,28.22 -42.62,40.17l-210.15 98.25c-57.39,26.83 -161.68,52.31 -148.3,-18.57l61.18 -323.58c12.82,-67.73 119.96,-143.94 184.89,-174.29l210.08 -98.27c49.89,-23.39 35.14,-0.18 18.14,89.67 -9.7,51.21 -190.4,86.1 -197.98,126.29l-42.91 227.11c-7.72,40.84 193.78,-104.22 183.84,-52.16l-16.14 85.41 -0.03 -0.04zm285.68 -133.66c-2.76,14.88 -16.99,28.29 -42.64,40.26l-147.33 68.91c-25.58,11.99 -37.04,10.49 -34.22,-4.27l89.27 -472.05c2.83,-14.86 17.02,-28.22 42.68,-40.19l147.35 -68.88c25.66,-11.95 37.04,-10.59 34.24,4.33l-89.35 471.89 0.01 0.01zm603.5 -282.09c-2.76,14.86 -16.99,28.27 -42.59,40.21 -217.87,101.71 -190.59,112.41 -164.06,-28.18 4.37,-23.17 -89.29,21.24 -93.54,43.76 -26.3,139.04 6.58,101.91 -207.54,201.86 -25.6,11.95 -36.98,10.57 -34.24,-4.31l75.32 -397.71c12.8,-67.69 119.87,-144.01 184.8,-174.31l208.83 -97.69c58.91,-27.53 161.5,-50.69 148.3,18.57l-75.26 397.82 -0.01 -0.01zm-184.28 -106.01c33.09,-175.13 46.58,-162.13 -38.87,-121.84 -17.07,8.08 -26.54,16.97 -28.47,26.96 -33.85,176.87 -45.57,161.36 38.89,121.74 17.04,-7.99 26.52,-16.89 28.45,-26.87zm660.94 -116.82c-2.83,14.84 -16.99,28.29 -42.64,40.26l-338.28 158.13c-25.57,12.01 -36.98,10.57 -34.24,-4.31l89.29 -472c2.85,-14.78 17.02,-28.22 42.7,-40.13l147.33 -68.93c25.62,-12.03 37.04,-10.59 34.24,4.33l-66.14 349.49c-7.72,40.85 193.8,-104.29 183.84,-52.16l-16.1 85.34 -0.01 -0.01zm989.14 -462.41c-2.81,14.76 -17.06,28.17 -42.68,40.19l-298.5 139.54c-57.57,26.94 -161.72,52.18 -148.34,-18.61l61.25 -323.44c12.82,-67.78 119.78,-144.03 184.74,-174.41l298.56 -139.58c49.79,-23.24 35.32,-0.36 18.14,89.67 -2.85,14.78 -17.04,28.31 -42.64,40.25l-215.31 100.58c-32.18,15.13 -28.31,26.47 -35.43,64.05 -1.86,9.84 5.75,10.82 22.81,2.81l215.29 -100.61c50.13,-23.47 34.93,0.07 18.07,89.56 -2.8,14.91 -17.07,28.27 -42.68,40.21l-215.23 100.71c-31.41,14.66 -28.13,24.9 -34.22,57.19 -1.86,9.86 5.75,10.82 22.86,2.92l215.21 -100.72c50.11,-23.4 35,0.31 18.09,89.71l0.01 -0.01zm617.51 -356.41c-12.9,68.28 -119.51,143.89 -184.82,174.41l-336.94 157.55c-25.62,11.9 -37.04,10.46 -34.27,-4.37l89.35 -471.9c2.8,-14.89 16.99,-28.27 42.62,-40.3l337 -157.47c59.02,-27.64 161.46,-50.69 148.3,18.57l-61.23 323.5 0 0.01zm-215.11 56.63l43.02 -227.03c4.4,-23.33 -89.35,21.33 -93.62,43.65l-42.88 227.16c-4.38,23.06 89.23,-21.33 93.47,-43.78zm486.8 -115.92c-2.8,14.78 -17.02,28.22 -42.64,40.26l-147.39 68.82c-25.57,11.97 -36.96,10.6 -34.22,-4.27l89.33 -471.94c2.8,-14.89 17.02,-28.23 42.64,-40.26l147.33 -68.91c25.66,-11.97 37.11,-10.48 34.24,4.33l-89.29 472 0 -0.01zm667.69 -664.61c-9.14,48.76 -154.88,71.4 -162.04,109.65l-66.14 349.49c-2.85,14.8 -17.04,28.18 -42.68,40.19l-147.33 68.91c-25.6,11.95 -36.98,10.57 -34.24,-4.31l66.14 -349.49c7.36,-38.39 -156.08,83.93 -146.7,34.75 15.22,-79.86 6.83,-101.33 58.76,-125.59l456.17 -213.18c50.05,-23.42 35.03,0 18.09,89.56l-0.02 0.01zm211.29 253.62c-2.8,14.91 -17.07,28.27 -42.64,40.26l-147.33 68.91c-25.66,11.97 -37.07,10.51 -34.22,-4.27l89.27 -472.05c2.78,-14.82 17.02,-28.23 42.59,-40.21l147.39 -68.82c25.66,-11.97 37.04,-10.59 34.29,4.29l-89.35 471.89 0 -0.01zm617.5 -356.33c-12.8,68.32 -119.45,143.82 -184.78,174.36l-208.89 97.58c-57.57,26.99 -161.68,52.29 -148.29,-18.57l61.23 -323.48c12.82,-67.76 119.87,-144.03 184.85,-174.36l208.78 -97.66c58.73,-27.45 161.5,-50.74 148.3,18.57l-61.2 323.55 -0.01 0zm-215.03 56.64l42.91 -227.1c4.37,-23.19 -89.25,21.26 -93.49,43.72l-43.02 227.03c-4.4,23.31 89.27,-21.28 93.62,-43.65l-0.01 0zm804.52 -264.5c-2.87,14.78 -17.02,28.23 -42.7,40.13l-147.33 68.93c-25.66,11.97 -37.04,10.59 -34.24,-4.33l66.14 -349.49c4.4,-23.26 -89.33,21.37 -93.47,43.78l-66.16 349.44c-2.83,14.86 -17.07,28.25 -42.64,40.26l-147.33 68.93c-25.66,11.97 -37.11,10.46 -34.24,-4.33l82.44 -435.59c1.33,-22.11 -18.66,-44.65 40.57,-72.41 192.12,-90.1 177.91,-95.78 184.42,-35.5 96.81,-134 328.49,-206.54 309.81,-107.7l-75.22 397.87 -0.03 0zm352.8 -1669.93l-1718.78 372.63 2406.5 -2308.18 3455.98 -759.68 -728.54 488.91 848.63 877.96 815.81 -1568.8 1773.76 -415.63 976.29 671.31 477.66 -936.71 2283.58 -519.92 -582.09 373.93 -854.02 1693.5 -2071.77 412.87 -755.28 -525.42 -400.72 793.6 -3099.13 686.66 -344.52 -386.42 -1826.84 415.99 -656.51 633.45 0 -0.05zm1211.12 -1245.93l679.39 -521.3 317.6 306.74 -996.98 214.55z"/>
  <path class="fil0" d="M21490.81 24907.33l1780.28 -1080.16c111.54,-67.33 136.49,-27.61 68.97,64.96l-274.18 368.3 -1292.19 806.27c-124.34,73.21 -95.44,155.66 -84.58,297.64l1700.05 -1070.52c65.65,-41.42 111.63,-34.55 110.51,37.2l12.78 440.95 -278.83 514.46 -2267 1371.36 -22.57 -287.65 790.59 -482.52 622.84 -392.86 268.88 -436.94 -1655.12 1022.69 -82.8 -248.77c-6.09,-89.81 11.29,-150.9 60.64,-215.85 135.77,-209.72 335.18,-598.68 541.71,-708.52l0.01 -0.04zm-4871.8 3305.2c67.45,-125.98 130.72,-263.65 206.7,-366.07 51.13,-63.72 100.59,-107.99 210.15,-179.61l787.18 -481.34c78.49,-57.27 113.16,-18.03 114.52,35.16l119.87 1255.68 -851.82 521.54 -87.97 -982.89 -423.24 260.44c-126.47,83.03 -107.91,-3.82 -75.39,-62.91l0.01 -0.02zm3474.94 -2376.67l-1998.66 1199.33c-47.24,21.37 -33.29,49.31 16.55,47.89l392.66 3.08 1349.76 -788.54c38.43,-24.9 104.9,-51.55 114.88,17.04l14.14 141.9 -1767.05 1023.2c-78.73,32.34 -124.49,105.03 -110.02,152.13l63.14 406.63 347.8 122.57 2360.68 -1420.42 -26.58 -273.42 -823.93 491.63 -651.3 376.58 -325.55 -67.51 1727.08 -1018.64 36.71 -309.09c-9.32,-84.15 -35.79,-116.8 -93,-116.12 -162.55,-24.74 -414.84,-130.53 -627.31,11.72l0.01 0.03z"/>
  <path class="fil0" d="M47764.6 24881.71c-6377.95,-2891.75 -18820.21,5455.88 -28128.74,8022.78l855.68 422.95c5536.69,23.01 19558.34,-9401.49 28559.05,-6594.23l-1285.99 -1851.51z"/>
  <path class="fil1" d="M38384.15 27005.01c-6.04,13.9 -22.85,23.75 -50.51,29.79l-322.09 69.89c-61.95,13.42 -169.24,15.09 -140.5,-50.99l131.46 -301.98c27.5,-63.11 148.86,-113.77 218.88,-128.94l322.07 -69.89c54.32,-11.83 33.72,8.26 -2.29,91.36 -5.99,13.88 -22.85,23.75 -50.51,29.79l-232.22 50.38c-34.55,7.5 -33.43,19.22 -48.7,54.52 -3.98,9.25 3.19,11.77 21.6,7.81l232.2 -50.41c54.04,-11.7 34.13,7.95 -2.26,91.45 -6.02,13.8 -22.83,23.82 -50.51,29.8l-232.15 50.41c-34.24,7.4 -32.98,18.27 -46.03,48.23 -4.06,9.21 3.16,11.83 21.6,7.81l232.24 -50.38c53.9,-11.72 34.11,7.72 -2.29,91.36l0 -0.01zm6010.6 1605.78c-20.41,20.23 -49.01,33.07 -81.43,35.25l-2748.55 189.74c-39.09,2.7 -73.57,-9.95 -98.34,-36.08l-236.11 -248.9 -112.77 284.4c-16.15,40.79 -56.01,68.09 -104.62,71.8l-995.87 76.52c-84.03,6.42 -148.65,-64.14 -119.27,-137.02l308.29 -763.92 -313.04 24.74c-86.22,8.96 -187.31,-1.57 -218.16,-85.67 -27.84,-75.78 33.52,-145.69 98.45,-190.33 246.92,-169.76 375.01,-297.44 683.88,-318.39l915.19 -69.76c80.04,-11.33 146.57,8.69 186.57,47.89 29.41,-40.17 82.13,-59 136.37,-58.69l2316.31 -156.98c221.73,-19.85 374.34,72.03 537.21,206.46 34.81,28.74 69.56,59.56 106.24,86.57 11.65,6.45 22.07,13.36 31.3,20.57 34.69,-42 78.42,-76.58 136.42,-105.23 113.09,-65.49 221.58,-137.54 335.04,-202.99 145.75,-84.21 349.11,-191.89 526.11,-196.41l2073.4 -150.83c237.29,-17.29 275.25,134.53 183.05,224.7 -35.12,34.35 -54.54,38.79 -88.19,59.61l-413.32 203.87 208.85 -18.74c163.87,-14.58 271.57,88.04 199.14,227.54l-188.5 396.68c-8.53,17.89 -20.43,31.61 -37.83,43.51l-482.56 331.01c-19.58,13.42 -40.33,20.56 -64.82,22.31l-2642.78 188.73c-12.41,0.83 -24.34,0.13 -35.66,-1.93l0.01 -0.03zm42.36 -426.58c6.6,-8.54 14.5,-16.21 23.39,-22.63l-1734.4 104.49 18.19 14.68 701.09 -36.14 956.47 -62.41c12.21,-0.88 24.06,-0.18 35.25,2zm78.15 -44.79c3.96,-0.61 8,-1.15 12.06,-1.41l922.57 -69.6 701.58 -63.18 43.26 -26.38 -1495.79 121.82c-46.09,3.86 -90.07,-15.13 -113.69,-53.08 -19.46,29.05 -44.68,73.42 -70,91.82l0.01 0.02zm-2928.26 -487.2l-97.21 244.43c37.22,-10.8 76.67,-15.43 114.55,-13.52l379.05 -19.76c-59.77,-31.08 -363.9,-184.06 -396.39,-211.14l0.01 0zm-2521.72 -857.75c-27.61,63.74 -148.42,113.74 -218.84,129.05l-363.54 78.83c-53.59,11.65 -34.6,-7.22 2.22,-91.41 6.06,-13.8 22.92,-23.71 50.54,-29.66l273.69 -59.48c34.94,-7.56 33.14,-18.97 47.8,-52.42 15.45,-35.21 -189.45,53.91 -273.04,23.6 -27.41,-9.93 -35.63,-27.41 -24.79,-52.33l52.74 -121.15c27.53,-63.23 148.81,-113.85 218.91,-129.01l363.48 -78.99c54.47,-11.74 33.65,8.44 -2.27,91.41 -5.97,13.9 -22.83,23.82 -50.49,29.84l-273.68 59.36c-34.58,7.46 -33.16,19.06 -47.51,51.77 -15.47,35.25 189.38,-53.95 273.04,-23.6 27.41,9.95 35.63,27.41 24.79,52.33l-53.08 121.87 0.02 0zm720.06 -299.85c-27.33,63.07 -148.96,113.88 -218.84,129.05l-135.49 29.32c-18.43,4.08 -29.64,10.67 -33.63,19.92l-53.98 123.98c-6.06,13.78 -22.88,23.69 -50.56,29.68l-158.93 34.58c-27.68,5.99 -38.5,2 -32.44,-11.81l191.74 -440.44c6.06,-13.81 22.88,-23.69 50.51,-29.79l363.52 -78.87c63.36,-13.72 168.63,-13.67 140.48,50.99l-62.42 143.38 0.03 -0.01zm-222.25 7.5c33.07,-75.98 42.28,-69.87 -44.03,-51.23 -37.25,8.04 -35.09,22.9 -56.91,73.1 -9.43,21.71 91.82,-0.88 100.94,-21.87zm732.65 88.08c-6.04,13.85 -22.85,23.75 -50.51,29.79l-322.07 69.89c-61.72,13.34 -169.25,15 -140.51,-51.07l131.48 -301.91c27.43,-63.14 148.88,-113.81 218.84,-129.07l322.07 -69.89c54.22,-11.74 33.85,8.33 -2.26,91.47 -5.99,13.83 -22.85,23.75 -50.51,29.79l-232.17 50.36c-34.67,7.5 -33.47,19 -48.79,54.42 -3.98,9.25 3.21,11.88 21.64,7.92l232.2 -50.41c54.04,-11.77 34.17,7.88 -2.26,91.47 -6.02,13.8 -22.88,23.69 -50.54,29.68l-232.15 50.41c-34.06,7.43 -33.01,18.48 -46.03,48.28 -4.06,9.23 3.16,11.87 21.6,7.82l232.22 -50.43c54.04,-11.7 34.06,8.06 -2.26,91.49l-0.01 -0.01zm514.15 -111.56c-6.02,13.78 -22.85,23.75 -50.47,29.72l-226.7 49.2c-61.92,13.44 -169.27,15.14 -140.5,-50.99l131.41 -301.96c27.51,-63.2 148.9,-113.77 218.93,-128.96l226.65 -49.24c53.84,-11.72 34.31,7.63 -2.2,91.45 -20.8,47.78 -204.76,41.74 -221.06,79.25l-92.21 211.94c-16.59,38.12 212.06,-58.66 190.82,-10.1l-34.67 79.71 0.01 -0.01zm308.22 -66.98c-5.99,13.88 -22.85,23.82 -50.51,29.8l-158.94 34.55c-27.61,6.02 -38.43,2.02 -32.42,-11.75l191.72 -440.49c6.04,-13.85 22.85,-23.75 50.52,-29.74l158.96 -34.49c27.68,-5.97 38.46,-2.11 32.44,11.81l-191.78 440.31 0.01 0.01zm651.03 -141.24c-5.99,13.88 -22.85,23.8 -50.45,29.77 -235,50.87 -210.78,67.35 -153.73,-63.87 9.39,-21.62 -91.78,0.9 -100.92,21.93 -56.47,129.75 -16.17,100.83 -247.13,150.81 -27.61,5.97 -38.41,2.09 -32.44,-11.79l161.63 -371.11c27.5,-63.16 148.81,-113.85 218.86,-128.99l225.3 -48.95c63.54,-13.78 168.73,-13.62 140.48,50.99l-161.59 371.21 0 0.01zm-156.18 -144.23c71.1,-163.43 81.38,-147.76 -10.89,-127.42 -18.43,4.09 -29.64,10.67 -33.73,19.98 -72.21,164.97 -80.22,147.24 10.93,127.35 18.39,-4 29.61,-10.59 33.7,-19.89l0 -0.01zm670.39 32.66c-6.04,13.85 -22.83,23.82 -50.51,29.79l-364.93 79.17c-27.61,6.02 -38.41,2.09 -32.44,-11.79l191.74 -440.46c6.06,-13.78 22.85,-23.73 50.54,-29.66l158.94 -34.55c27.66,-6.04 38.48,-2.11 32.44,11.81l-141.99 326.13c-16.59,38.14 212.1,-58.71 190.84,-10.1l-34.63 79.66 0.01 0.01zm1067.05 -231.55c-6.02,13.78 -22.88,23.67 -50.52,29.74l-322.01 69.87c-62.1,13.49 -169.27,15.02 -140.51,-51.05l131.46 -301.8c27.53,-63.23 148.76,-113.88 218.83,-129.1l322.09 -69.89c53.7,-11.61 34.53,7.48 -2.2,91.45 -6.06,13.78 -22.9,23.82 -50.51,29.77l-232.24 50.33c-34.75,7.61 -33.47,19.53 -48.74,54.6 -4,9.2 3.21,11.83 21.6,7.81l232.24 -50.38c54.09,-11.75 34.04,7.81 -2.24,91.35 -6.02,13.92 -22.9,23.78 -50.52,29.74l-232.2 50.47c-33.88,7.32 -32.95,18.05 -46.05,48.18 -4,9.2 3.21,11.83 21.64,7.92l232.2 -50.49c54.04,-11.72 34.06,8.06 -2.26,91.49l-0.06 0.01zm681.17 -210.62c-27.71,63.72 -148.45,113.79 -218.9,129.09l-363.5 78.92c-27.64,5.91 -38.44,1.98 -32.46,-11.87l191.76 -440.33c6.04,-13.92 22.85,-23.82 50.51,-29.84l363.52 -78.81c63.67,-13.86 168.68,-13.62 140.5,50.99l-131.45 301.86 0.02 0zm-222.3 7.52l92.3 -211.84c9.46,-21.78 -91.85,0.99 -100.95,21.82l-92.2 211.99c-9.38,21.53 91.74,-1.01 100.85,-21.96l0 -0.01zm500.38 -5.08c-6.01,13.8 -22.85,23.75 -50.51,29.79l-158.98 34.42c-27.59,6.02 -38.39,2.14 -32.42,-11.75l191.74 -440.39c6.04,-13.9 22.85,-23.75 50.51,-29.79l158.94 -34.53c27.66,-5.99 38.5,-1.98 32.42,11.79l-191.74 440.44 0.04 0.01zm798.44 -500c-19.72,45.51 -166.88,35.27 -182.33,70.97l-141.99 326.15c-6.07,13.81 -22.88,23.69 -50.52,29.74l-158.94 34.55c-27.63,5.97 -38.41,2.09 -32.44,-11.79l141.99 -326.13c15.67,-35.81 -170.81,47.22 -150.76,1.35 32.55,-74.5 29.14,-97.31 85.14,-109.43l492.08 -106.71c53.98,-11.75 34.15,7.77 -2.24,91.35l0 -0.05zm149.78 294.16c-6.02,13.92 -22.9,23.78 -50.51,29.79l-158.94 34.53c-27.68,5.99 -38.48,2.04 -32.42,-11.75l191.72 -440.49c5.99,-13.85 22.85,-23.75 50.45,-29.77l158.98 -34.42c27.68,-5.99 38.46,-2.11 32.49,11.77l-191.78 440.33 0 0.01zm681.14 -210.53c-27.64,63.78 -148.38,113.74 -218.84,129.05l-225.33 48.83c-62.13,13.54 -169.25,15.11 -140.5,-50.99l131.45 -301.86c27.51,-63.23 148.81,-113.87 218.91,-129.01l225.23 -48.94c63.36,-13.74 168.75,-13.67 140.5,50.99l-131.43 301.93 0.01 0zm-222.25 7.56l92.21 -211.94c9.39,-21.65 -91.74,0.93 -100.87,21.91l-92.3 211.84c-9.45,21.77 91.78,-0.95 100.95,-21.82l0.01 0.01zm843.14 -79.5c-6.07,13.78 -22.85,23.75 -50.54,29.66l-158.94 34.55c-27.68,5.99 -38.46,2.09 -32.44,-11.81l141.99 -326.13c9.45,-21.71 -91.83,1.03 -100.85,21.96l-142.01 326.07c-6.06,13.85 -22.92,23.77 -50.51,29.79l-158.94 34.55c-27.68,5.99 -38.51,1.98 -32.44,-11.79l176.98 -406.47c6.2,-21.26 -8.3,-47.68 55.61,-61.61 207.32,-45.26 194.72,-53.95 187.7,6.27 124.11,-109.2 366.1,-128.56 325.97,-36.32l-161.58 371.29 0 -0.01z"/>
  <path class="fil0" d="M45690.22 27209.81l2076.86 -151.03c129.97,-9.16 134.1,37.58 31.82,89.23l-411.81 203.07 -1517.59 129.45c-144.05,8.56 -155.86,95.13 -210.84,226.47l2001.04 -178.99c77.32,-6.97 115.13,20.08 81.44,83.43l-189.4 398.41 -482.51 331.06 -2642.8 188.68 110.89 -266.39 923.58 -69.62 733.43 -66.16 438.35 -266.59 -1939.26 156.87 39.56 -259.19c35.47,-82.74 78.76,-129.21 152.27,-164.57 216.37,-124.9 571.02,-380.4 804.92,-384.15l0.03 0.01zm-5842.44 724.3c117.42,-81.44 236.44,-175.21 350.72,-231.79 74.54,-33.45 138.73,-50.33 268.88,-64.23l920.03 -70.1c95.96,-15.25 108.94,35.47 85.93,83.45l-465.06 1172.52 -995.87 76.47 369.24 -915.14 -495.4 39.15c-150.41,16.34 -94.34,-52.54 -38.48,-90.33l0.01 0.01zm4176.01 -533.68l-2325.53 157.68c-51.8,-2.49 -52.09,28.76 -7.07,50.18l348.18 181.53 1560.76 -87.45c45.55,-4.67 116.88,1.88 94.52,67.47l-52.02 132.78 -2039.16 106.35c-84.82,-7.05 -158.65,36.82 -167.22,85.36l-128.94 390.78 253.84 267.49 2748.55 -189.68 100.85 -255.54 -957.42 62.53 -751.33 38.71 -259.11 -208.35 2001.47 -120.48 173.42 -258.46c30.02,-79.17 21.31,-120.28 -29.92,-145.75 -133.46,-96.03 -309.9,-305.1 -563.85,-275.21l-0.03 0.04z"/>
 </g>
</svg>
