<?xml version="1.0" encoding="UTF-8"?>
<!DOCTYPE svg PUBLIC "-//W3C//DTD SVG 1.1//EN" "http://www.w3.org/Graphics/SVG/1.1/DTD/svg11.dtd">
<!-- Creator: CorelDRAW -->
<svg xmlns="http://www.w3.org/2000/svg" xml:space="preserve" width="568.703mm" height="567.123mm" version="1.1" style="shape-rendering:geometricPrecision; text-rendering:geometricPrecision; image-rendering:optimizeQuality; fill-rule:evenodd; clip-rule:evenodd"
viewBox="0 0 59380.56 59215.62"
 xmlns:xlink="http://www.w3.org/1999/xlink"
 xmlns:xodm="http://www.corel.com/coreldraw/odm/2003">
 <defs>
  <style type="text/css">
   <![CDATA[
    .fil0 {fill:black}
    .fil2 {fill:#D9D9D9}
    .fil1 {fill:red}
   ]]>
  </style>
 </defs>
 <g id="Camada_x0020_1">
  <metadata id="CorelCorpID_0Corel-Layer"/>
  <path class="fil0" d="M28295.93 54383.29l-1950.27 -65.97c-94.69,-3.17 -175.9,33.57 -252.13,114.12l-220.47 233.1c-17.28,18.21 -26.56,45.23 -26.6,77.01 -0.04,31.83 9.29,59.53 26.48,79.04l175.85 199.37c78.84,89.36 163.67,132.58 261.7,133.27l831 6.11 123.74 -169.58 -706.32 7.22 -147.5 -69.23 285.91 -392.21 1937.51 45.64c25.26,0.62 47.02,12.43 66.91,36.3l2.29 2.73c29.75,35.73 45.67,84.39 45.96,140.53 0.28,56.1 -15.2,103.99 -44.57,138.17l-518.44 603.06c-77.62,90.26 -162.98,132.87 -262.81,131.08l-6094.41 -112.5c-95.67,-1.75 -178.21,-43.72 -255.6,-129.89l-498.11 -554.87c-42.09,-46.9 -65.07,-113.84 -65.48,-191.02 -0.45,-77.17 21.76,-143.02 63.32,-187.91l506.74 -547.49c76.11,-82.23 157.84,-119.91 253.15,-117.83l2942.89 64.82c10.07,0.21 18.74,3.22 27.95,9.66l52.35 36.67c23.47,16.42 38.02,48.41 39.4,86.47 1.39,38.1 -10.84,71.26 -33.05,89.64l-153.98 127.57c-96.04,79.53 -188.85,125.09 -300,118.69l-1586.04 -90.99c-85.61,-4.89 -159.36,22.98 -231.92,87.6l-273.27 243.45c-19.47,17.35 -30.48,46.05 -30.72,80.11 -0.24,34.06 10.35,63.89 29.54,83.28l215.37 217.21c72.93,73.55 147.86,109.28 235.1,112l2068.3 64.54 -145.5 -161.31c-51.62,-57.21 -80.3,-138.29 -82.31,-232.82 -1.99,-94.48 23.22,-176.18 72.4,-234.41l405.08 -479.73c78.27,-92.62 165.02,-136.38 266.39,-134.26l2604.63 55.13c98.53,2.08 183.11,34.43 271,103.69l125.62 98.93c17.6,13.9 29.3,35.73 34.35,64.21 5.1,28.44 2.08,55.54 -8.8,79.62l-26.89 59.53c-12.72,28.12 -32.6,43.23 -55.65,42.45l-0.13 0 0.02 -0.03zm-3317.42 -720.66l-3371.45 -81.98c-67.19,-1.63 -126.18,22.32 -184.53,80.3l-789.8 784.46c-43.19,42.9 -70.28,108.47 -71.39,193.99 -1.14,87.48 25.34,156.87 67.27,204.58l691.33 786.99c60.3,68.65 123.66,100.8 196.84,102.8l6578.74 179.81c65.52,1.8 123.14,-20.82 180.54,-75.78l886.93 -848.55c44.85,-42.9 73.09,-110.38 73.78,-198.15 0.69,-90 -27.78,-160.82 -71.74,-207.64l-734.43 -782.1c-59.37,-63.19 -120.53,-92.33 -191.13,-93.3l-3260.99 -45.43 0.04 0.04 -0.03 -0.04z"/>
  <path class="fil0" d="M38014.84 54161.15l-1951.28 18.34c-94.73,0.9 -174.35,41.15 -246.99,124.88l-210.21 242.43c-16.47,18.95 -24.61,46.33 -23.26,78.11 1.35,31.78 11.82,59.08 29.86,77.82l184.37 191.58c82.63,85.85 169.3,125.37 267.25,121.87l830.47 -29.79 116.29 -174.76 -705.3 37.72 -150.35 -62.78 268.67 -404.19 1937.67 -38.1c25.26,-0.49 47.51,10.39 68.45,33.41l2.4 2.65c31.29,34.43 49.3,82.34 51.99,138.45 2.69,56.03 -10.67,104.55 -38.55,140l-491.87 624.91c-73.62,93.51 -157.07,139.8 -256.9,142.28l-6093.58 150.96c-95.67,2.36 -179.93,-35.98 -260.97,-118.73l-521.62 -532.78c-44.08,-45.02 -69.92,-110.91 -73.66,-188 -3.83,-77.05 15.53,-143.83 55.13,-190.44l482.62 -568.84c72.53,-85.4 152.51,-126.63 247.82,-128.67l2942.93 -62.38c10.07,-0.21 18.87,2.4 28.32,8.44l53.87 34.39c24.12,15.36 40.09,46.74 43.11,84.71 3.02,37.98 -7.78,71.67 -29.13,90.99l-148.31 134.09c-92.49,83.6 -183.23,133.12 -294.63,131.56l-1588.48 -22.32c-85.72,-1.18 -158.21,29.82 -227.88,97.54l-262.52 255.02c-18.7,18.17 -28.48,47.31 -27.26,81.33 1.22,34.06 13.08,63.4 33.13,81.9l224.54 207.72c76.03,70.32 152.47,102.75 239.75,101.74l2069.15 -24.93 -152.35 -154.87c-54.07,-54.92 -86.21,-134.7 -92.29,-229.03 -6.07,-94.37 15.61,-176.99 62.22,-237.34l383.98 -496.8c74.15,-95.96 159.03,-143.38 260.33,-145.63l2604.59 -57.49c98.53,-2.16 184.46,26.48 275.24,91.84l129.78 93.43c18.17,13.08 30.8,34.43 37.08,62.67 6.32,28.19 4.44,55.41 -5.38,79.9l-24.33 60.63c-11.49,28.6 -30.64,44.62 -53.78,44.78l0.13 0 -0.23 -0.24zm-3345.5 -576.58l-3371.85 63.81c-67.19,1.26 -125.09,27.78 -180.87,88.21l-755.16 817.83c-41.32,44.74 -65.52,111.4 -62.95,196.88 2.61,87.44 32.07,155.57 76.03,201.49l724.7 756.35c63.19,65.97 127.9,95.38 201.12,94.16l6580.33 -104.68c65.56,-1.05 122.11,-26.16 177.12,-83.53l849.45 -886.08c42.99,-44.81 68.29,-113.44 65.15,-201.12 -3.17,-89.92 -34.68,-159.47 -80.64,-204.34l-767.56 -749.67c-62.01,-60.59 -124.4,-87.03 -195,-84.91l-3259.93 95.55 0.04 0 0.02 0.04z"/>
  <path class="fil0" d="M45997.65 51347.41c381.54,799.41 1095.43,653.51 1575.13,-2160.46l1545.46 -9018.88 -2366.39 -9693.78 -247.89 -787.35 -241.42 -332.77 -283.18 -630.08 -1387.5 -6594.55c-38.55,-280.21 -195.94,-510.38 -477.86,-688.03 -1469.75,-672.91 -1508.67,-2161.68 -541.38,-3303.12 192.88,-129.48 315.25,-332.11 298.86,-678.61l-2507.37 -16352.71c-146.64,-576.42 -472.6,-507.96 -624.63,90.86l-1136.38 28466.77c19.51,377.43 -58.02,696.41 -204.7,973.57 -339,423.63 -308.97,889.22 -138.2,1370.83 2352.58,7637.7 3849.63,12625.22 6737.4,19338.3l0 -0.04 0.03 0.03z"/>
  <path class="fil0" d="M13087.83 50372.83c-416.25,781.89 -1123.06,604.78 -1478.72,-2227.54l-1147.91 -9078.08 2789.82 -9580.55 282.24 -775.65 255.79 -321.85 310.52 -617.05 1675.76 -6527.23c50.85,-278.25 218.15,-501.28 507.64,-666.35 1497.91,-607.75 1602.18,-2093.31 685.91,-3276.15 -187.06,-137.84 -300.37,-345.68 -268.83,-691.07l3223.05 -16226.81c171.87,-569.49 494.44,-486.69 620.02,118.2l-114.82 28489.23c-36.1,376.22 27.34,698.2 161.76,981.58 320.05,438.09 269.57,901.93 77.9,1375.55 -2685.71,7527.04 -4400.34,12443.99 -7580.13,19023.74l-0.04 0 0.05 0.02z"/>
  <path class="fil0" d="M26752.95 21418.96c1892.53,1068.5 4273.42,1035.21 6194.75,-87.48l-687.54 21852.26 -2429.38 1920.19 -2388.99 -1822.61 -688.87 -21862.37 0.03 0z"/>
  <path class="fil1" d="M0.93 54994.3c1207.15,554.18 2414.43,1108.26 3621.62,1662.44 6895.08,852.96 13790.21,1705.92 20685.33,2558.87 1277.19,-983.06 2554.38,-1966.12 3831.59,-2949.16 -515.43,-8.8 -1030.93,-17.52 -1561.1,-26.93l-3233.93 2489.16 -114.7 -14.22 -98.03 -12.14 -107.2 -13.24 -7.54 -0.94 -107.2 -13.24 -98.03 -12.14 -114.7 -14.14 3147.18 -2422.37c-255.23,-4.73 -515.14,-9.66 -781.29,-14.83l-3055.59 2351.93 -114.7 -14.22 -98.03 -12.14 -107.16 -13.2 -7.54 -0.98 -107.16 -13.2 -98.03 -12.14 -114.7 -14.22 2970.6 -2286.49c-253.15,-5.21 -512.54,-10.67 -779.25,-16.42l-2881.13 2217.59 -114.7 -14.22 -98.03 -12.14 -107.16 -13.2 -7.58 -0.94 -107.16 -13.2 -98.03 -12.14 -114.7 -14.22 2798.13 -2153.71c-252.05,-5.74 -510.82,-11.74 -777.13,-18.09l-2710.77 2086.52 -114.7 -14.22 -98.03 -12.14 -107.16 -13.2 -7.58 -0.94 -107.12 -13.2 -98.03 -12.14 -114.7 -14.22 2629.77 -2024.13 -299.44 -7.41 -475.9 -12.1 -2544.2 1958.29 -114.7 -14.22 -98.03 -12.14 -107.16 -13.2 -7.54 -0.98 -107.16 -13.2 -98.03 -12.14 -114.7 -14.22 2464.79 -1897.13c-253.67,-6.77 -511.88,-13.65 -773.47,-20.82l-2380.97 1832.63 -114.7 -14.22 -98.03 -12.14 -107.16 -13.2 -7.54 -0.98 -107.16 -13.2 -98.03 -12.14 -114.7 -14.22 2303.15 -1772.74 -771.83 -22.17 -2221.05 1709.54 -114.74 -14.22 -98.03 -12.14 -107.16 -13.2 -7.58 -0.94 -107.16 -13.2 -98.03 -12.14 -114.7 -14.14 2144.82 -1650.91c-256.13,-7.71 -513.06,-15.53 -770.17,-23.51l-2064.52 1589.06 -114.7 -14.22 -98.03 -12.14 -107.16 -13.2 -7.58 -0.94 -107.16 -13.2 -98.03 -12.14 -114.7 -14.14 1989.99 -1531.69c-256.86,-8.23 -513.06,-16.62 -768.05,-25.1l-1911.76 1471.47 -114.7 -14.22 -98.03 -12.14 -107.16 -13.2 -7.58 -0.94 -107.16 -13.2 -98.03 -12.14 -114.7 -14.14 1839.36 -1415.73c-257.55,-8.93 -512.98,-17.89 -765.56,-26.97l-1763.56 1357.38 -114.7 -14.22 -98.03 -12.14 -107.2 -13.24 -7.54 -0.94 -107.2 -13.24 -98.03 -12.14 -114.7 -14.14 1693.69 -1303.64c-258.49,-9.66 -512.98,-19.47 -762.46,-29.34l-1621 1247.7 -114.7 -14.22 -98.03 -12.14 -107.16 -13.2 -7.58 -0.94 -107.16 -13.2 -98.03 -12.14 -114.74 -14.22 1554.71 -1196.64c-259.22,-10.88 -511.8,-21.76 -758.02,-32.8l-1486.46 1144.12 -114.74 -14.22 -98.03 -12.14 -107.2 -13.24 -7.54 -0.94 -107.2 -13.24 -98.03 -12.14 -114.74 -14.22 1424.94 -1096.78c-258.08,-12.34 -508.66,-24.85 -751.95,-37.44l-1362.76 1048.94 -114.7 -14.22 -98.03 -12.14 -107.16 -13.24 -7.58 -0.9 -107.16 -13.24 -98.03 -12.14 -114.7 -14.22 1307.88 -1006.65c-256.49,-14.42 -504.22,-28.97 -743.76,-43.76l-1253.85 965.09 -114.7 -14.22 -98.03 -12.14 -107.16 -13.24 -7.54 -0.94 -107.16 -13.24 -98.03 -12.14 -114.7 -14.22 1207.97 -929.81c-253.97,-17.24 -497.91,-34.76 -732.31,-52.52l-1165.43 897 -114.74 -14.22 -98.03 -12.14 -107.16 -13.2 -7.54 -0.98 -107.16 -13.2 -98.03 -12.14 -114.7 -14.22 1132.46 -871.66c-250.13,-21.31 -488.33,-43.11 -715.69,-65.35l-926.47 713.07 -83.41 -38.26 -31.33 24.12 -71.3 -32.72 -26.73 20.58 -83.41 -38.26 -31.33 24.12 -232.61 -106.75 825.2 -635.17c-243.04,-27.3 -472.96,-55.17 -692.06,-83.57l-545.33 419.75 -83.41 -38.26 -31.33 24.12 -71.26 -32.72 -26.77 20.58 -83.41 -38.26 -31.33 24.12 -198.67 -91.18 -34.35 -15.23 468.44 -360.55c-232.04,-33.95 -452.96,-68.33 -666.59,-103.17l-223 171.61 -84.42 -37.48 -30.23 23.31 -72.16 -32.02 -25.83 19.88 -84.39 -37.48 -30.27 23.31 -235.42 -104.59 169.62 -130.55c-188.32,-32.72 -373.64,-65.56 -558.81,-98.4 -187.22,48.2 -374.41,96.41 -561.59,144.56l0.49 0.13 0.44 -0.42z"/>
  <path class="fil1" d="M22350 46378.97c76.56,-1.02 128.11,27.01 195.58,38.42 205.97,34.83 384.18,81.86 598.46,117.96l385.61 79.57c61.32,10.47 127.94,28.56 196.92,40.09 66.94,11.2 135.84,26.24 204.75,39.4l1549.73 315.21c97.54,33.2 261.3,22.7 320.95,118.32 -0.17,65.6 -10.56,39.2 -26.52,77.66l523.25 100.8c209.27,47.72 547.94,99.45 788.98,150.35l654.98 125.99c190.4,31.05 100.6,69.51 419.67,-187.8l164.08 -127.33c-25.26,-25.18 -180.46,-52.73 -244.67,-70.32l-895.09 -225.61c-49.42,-10.92 -80.75,-23.31 -131.45,-33.54l-511.96 -131.45c-64.54,-21.35 -155.61,-29.58 -227.07,-55.33l-38.71 -17.65c-49.59,2.44 -302.29,-66.13 -367.23,-85.36 -15.12,-4.44 -50.61,-13 -67.92,-17.52l-297.36 -72.61c-235.14,-60.59 -685.21,-184.57 -885.56,-225.89l-3089.78 -775.99c11.29,36.8 197.9,311.99 231.07,364.71l79.94 119.71c125.54,180.09 57.49,82.18 143.59,161.55 47.18,43.48 129.44,89.07 184.78,114.38 44.45,20.33 130.71,48.56 141.11,62.26l-0.04 0.04 -0.08 -0.02zm2339.46 1257.8c111.96,5.91 197.33,39.11 104.18,133.81 19.43,12.68 1.31,1.71 26.93,10.71 42.71,15.12 453.17,59.65 513.38,65.72l233.88 29.62c42.05,7.54 39.03,6.72 82.27,9.38 491.47,60.34 988.31,121.26 1478.6,187.76 197.66,27.38 157.52,39.65 222.59,-19.36 24.12,-21.76 38.38,-25.02 61.9,-44.17 35.49,-28.81 70.81,-75.09 109.24,-101.74l231.15 -190.69c-38.79,-34.35 -59.89,-26.86 -123.87,-37.53l-1233.47 -242.88c-127.12,-33.01 -280.25,-44.94 -409.45,-79.45 -422.08,-82.55 -848.19,-176.06 -1270.55,-248.63 -55.17,-9.49 -103.54,-17.24 -150.88,-28.53 -55.33,-13.16 -114.25,-10.8 -125.45,-32.39 -71.71,-3.87 -859.77,-154.18 -1025.19,-192.44l-503.33 -100.64c-95.02,-15.72 -170.31,-32.64 -259.06,-48.08 -74.77,-13 -177.16,-42.74 -260.97,-49.14 15.4,40.78 124.4,190.24 155.44,233.84l161.59 219.82c38.3,35.94 58.99,55.78 104.63,87.84l115.75 76.56c159.96,100.15 254.74,107.48 437.48,134.42 62.14,9.13 110.67,19.88 166.24,28.68 31.21,5.25 1155.4,190.81 1157.03,197.53l-0.13 0.04 0.06 -0.07zm-240.28 340.59c-113.76,72.97 -876.84,539.14 -949.11,569 -13.9,29.54 -53.98,20.78 -68.9,60.71 321.07,9.86 1461.97,-21.23 1649.44,10.22 67.8,11.37 1079.54,3.34 1240.2,3.34 123.66,0 289.05,20.65 396.65,-11.74 58.22,-92.7 373.43,-295.52 479.57,-409.81 -46.2,-30.07 -551.69,-80.11 -646.91,-93.59l-1151.46 -151.49c-96.32,-18.38 -225.81,-24.57 -330.61,-40.05 -77.09,-5.29 -391.68,-54.72 -421.67,-49.67 -28.15,4.77 -169.83,95.51 -197.25,113.11l0 -0.08 0.04 0.05zm-3166.98 -3556.84c-21.76,-32.15 -452.96,-159.76 -480.26,-157.24 9.98,41.92 109,213.59 138.94,269.28l107.03 209.67c22.21,50.57 90.74,146.85 129.93,191.62 22.53,25.63 22.7,32.68 48.16,57 420.74,400.65 1910.99,655.88 2494.9,809.93 425.22,112.26 951.92,267.74 1367.97,366.83l800.68 217.79c105.28,30.11 743.03,175.77 773.75,239.54 13.49,70.62 -14.54,38.51 -31.42,95.02 95.83,36.26 240.97,57.08 351.3,89.4 110.67,30.93 249.6,55.69 350.78,88.33 276.54,89.15 614.39,155.69 898.71,231.31 63.32,16.83 135.28,31.9 198.64,48.2 24.78,-17.07 134.7,-149.29 163.51,-167.79 12.47,-29.41 38.79,-37.98 49.59,-71.88 30.07,-94 -73.17,-172.55 -146.81,-209.27 -294.95,-147.13 -1147.26,-378.07 -1551.12,-509.15 -137.06,-42.26 -288.88,-89.15 -437.32,-137.19 -275.68,-89.27 -593.57,-199.65 -867.99,-278.28 -908.61,-290.59 -1816.66,-583.55 -2726.21,-871.58 -101.01,-40.54 -224.58,-73.47 -321.64,-105.21 -110.67,-36.22 -216.76,-70.66 -332.44,-104.35 -144.88,-42.21 -923.98,-311.13 -978.9,-302.08l0.04 -0.04 0.18 0.15zm-1170.77 4745.09l805.04 0 0 226.75 -167.42 0 0 110.42 484.05 0.69 0 -109.77 -124.06 0 0.73 -227.4 810.83 0 0 228.09 -213.46 0 0 502.75 210.57 0 0 245.36 -834.62 0.69 0 -242.55 149.33 -0.69 0 -170.28 -486.86 0 0 168.85 170.88 0 0 243.94 -805.04 0 0 -245.36 170.93 0 -0.73 -502.06 -170.15 0 0 -229.55 0 0.08 -0.01 0.05zm2820.58 -10.22c251.64,0 466.21,49.5 644.02,148.8 177.73,99.3 266.63,219.05 266.63,359.29 0,140.49 -88.91,260.24 -266.63,359.09 -177.81,99.05 -392.34,148.6 -644.02,148.6 -251.44,0 -466.13,-49.5 -644.18,-148.6 -178.06,-98.85 -266.97,-218.6 -266.97,-359.09 0,-140.21 88.91,-259.95 266.97,-359.29 178.06,-99.3 392.74,-148.8 644.18,-148.8zm7.41 198.14c-73.1,0 -135.69,29.75 -187.46,89.07 -51.66,59.33 -77.54,130.96 -77.54,214.89 0,83.49 25.83,154.87 77.54,214.19 51.79,59.33 114.33,89.07 187.46,89.07 72.36,0 134.7,-29.79 186.45,-89.07 51.71,-59.33 77.54,-130.71 77.54,-214.19 0,-83.94 -25.83,-155.57 -77.54,-214.89 -51.79,-59.33 -114.08,-89.07 -186.45,-89.07zm1004.69 -187.91l709.94 0 553.36 502.11 0 -273.97 -138.45 -0.69 0 -227.43 745.92 0 0 228.13 -152.96 0 0 509.76 127.77 0 0 238.36 -593.12 0 -630.45 -574.38 0 335.34 163.02 0 0 238.36 -795.92 0 0 -237.71 163.75 0 0 -508.37 -152.96 0.69 0 -230.25 0.08 0 0 0.07zm2622.6 233.02l0 493.22 300.9 0 31.05 -4.84c123.58,-29.5 185.39,-104.87 185.39,-226.06 8.14,-115.3 -43.14,-199.73 -153.61,-252.74 -20.17,-8.14 -64.3,-11.37 -132.3,-9.53l-231.48 0 0 -0.04 0.05 0zm-637.01 -234.37l1049.8 -0.73c231.22,12.34 396.21,61.41 494.44,147.21 98.53,85.77 154.39,180.01 167.67,282.82 1.46,127.9 -32.27,232.53 -100.93,313.21 -162,160 -361.24,238.2 -597.4,234.41l-1013.58 0 0 -247.93 142.08 0 0 -496.03 -142.08 0 0 -232.98 0 0.04 0 -0.02zm2499.71 360.44l-99.54 138.13 196.27 -0.69 -96.73 -137.39 0 -0.04 0 -0.01zm-545.22 -361.86l883.03 0.69 539.54 735.13 201.94 0 0 243.21 -981.78 0 0.73 -239.75 168.68 -0.73 -38.87 -51.83 -458.71 0 -39.65 47.63 202.67 0.73 -0.73 243.24 -738.06 0 0 -239.09 168.27 0 371.31 -509.07 -278.98 0 0.73 -230.25 -0.08 0 -0.02 0.08zm-7231.84 -5364.82c12.55,46.65 128.19,83.85 149.49,117.14 53.5,4.2 138.86,54.51 189.26,77.58 119.3,54.56 432.22,139.96 578,199.61 288.56,96.69 588.36,211.63 875.24,299.1 157.24,47.87 327.1,118.69 487.03,165.3 64.86,18.91 120.57,44.78 189.18,64.38 1178.23,401.38 2356.33,809.24 3536.3,1213.43 42.13,14.05 85.61,21.63 122.97,35.45 571.32,210.61 1155.81,398.4 1733.42,594.75 127.61,43.31 242.02,88.95 280.74,222.35 27.74,95.38 22.9,100.52 -22,188.61 -83.41,163.35 -775.17,704.69 -948.66,853.94 -76.08,53.91 -897.57,775.3 -904.34,790.7 103.13,0.86 648.99,15.12 698.08,-6.77 39.28,-17.52 876.67,-770.73 1080.97,-963.82 261.06,-233.3 746.93,-554.66 667.23,-947.61 -15.81,-78.23 -96.41,-241.01 -146.72,-289.33 -172.3,-165.46 -366.82,-197.81 -589.98,-291.28 -1306.69,-512.33 -2611.8,-1020.33 -3921.06,-1530.58 -179.88,-71.43 -635.21,-237.87 -791.4,-306.04 -1034.72,-451.41 -2232.1,-873.74 -3276.31,-1282.16l-248.75 -92.25c-43.07,-18.17 -89.4,-49.26 -144.88,-48.45l134.86 437.6c10.56,47.38 27.99,85.24 41.19,142.44 26,111.85 96.81,208.58 172.47,300.66 30.31,36.95 12.63,36.26 57.66,55.09l-0.08 0.13 0.1 0.04z"/>
  <path class="fil1" d="M37346.26 46620.02c-76.51,-0.98 -128.11,27.05 -195.49,38.42 -206.05,34.83 -384.18,81.86 -598.54,117.96l-385.53 79.53c-61.32,10.47 -127.94,28.56 -197,40.14 -66.87,11.2 -135.84,26.2 -204.7,39.36l-1549.66 315.25c-97.54,33.16 -261.38,22.66 -321.07,118.28 0.24,65.6 10.56,39.2 26.52,77.66l-523.17 100.8c-209.35,47.72 -547.94,99.5 -788.98,150.39l-655.06 126.03c-190.4,31.01 -100.6,69.47 -419.59,-187.83l-164.16 -127.29c25.26,-25.18 180.46,-52.76 244.67,-70.32l895.17 -225.61c49.42,-10.92 80.67,-23.31 131.45,-33.54l511.88 -131.41c64.62,-21.39 155.61,-29.58 227.07,-55.33l38.71 -17.65c49.71,2.44 302.29,-66.13 367.23,-85.36 15.12,-4.44 50.61,-13 68.05,-17.52l297.28 -72.65c235.14,-60.59 685.29,-184.57 885.56,-225.89l3089.78 -775.99c-11.29,36.8 -197.9,311.99 -231.07,364.71l-79.94 119.71c-125.45,180.09 -57.41,82.23 -143.59,161.55 -47.18,43.44 -129.44,89.07 -184.7,114.38 -44.53,20.37 -130.79,48.56 -141.18,62.26l0.04 0 0.03 -0.04zm-2339.43 1257.83c-111.89,5.91 -197.25,39.11 -104.18,133.81 -19.43,12.63 -1.31,1.71 -26.86,10.71 -42.78,15.12 -453.17,59.61 -513.47,65.72l-233.79 29.62c-42.13,7.54 -39.11,6.72 -82.27,9.33 -491.55,60.34 -988.39,121.26 -1478.6,187.8 -197.74,27.38 -157.64,39.56 -222.67,-19.36 -24.04,-21.76 -38.3,-25.02 -61.9,-44.17 -35.49,-28.81 -70.73,-75.09 -109.15,-101.78l-231.22 -190.69c38.79,-34.35 59.89,-26.89 123.99,-37.57l1233.39 -242.88c127.12,-33.05 280.25,-44.94 409.45,-79.45 422.08,-82.55 848.19,-176.06 1270.55,-248.59 55.25,-9.49 103.54,-17.28 150.96,-28.56 55.25,-13.16 114.17,-10.75 125.37,-32.35 71.8,-3.87 859.84,-154.18 1025.19,-192.44l503.4 -100.64c94.97,-15.72 170.31,-32.68 259.06,-48.08 74.69,-12.96 177.16,-42.74 260.97,-49.14 -15.4,40.78 -124.4,190.24 -155.52,233.84l-161.52 219.86c-38.3,35.94 -58.99,55.78 -104.63,87.84l-115.75 76.56c-160.05,100.15 -254.82,107.53 -437.56,134.42 -62.14,9.13 -110.67,19.88 -166.15,28.72 -31.33,5.21 -1155.4,190.81 -1157.12,197.53l0.08 0 -0.05 -0.08zm240.28 340.5c113.76,73.02 876.91,539.14 949.11,569 13.9,29.54 53.98,20.78 68.9,60.71 -321.07,9.86 -1461.89,-21.23 -1649.36,10.22 -67.8,11.37 -1079.62,3.34 -1240.28,3.34 -123.58,0 -288.97,20.65 -396.65,-11.74 -58.22,-92.7 -373.43,-295.52 -479.49,-409.81 46.12,-30.07 551.61,-80.06 646.91,-93.59l1151.37 -151.49c96.41,-18.38 225.81,-24.57 330.69,-40.09 77.05,-5.25 391.6,-54.72 421.59,-49.67 28.15,4.77 169.9,95.51 197.25,113.07l-0.05 0.05zm3166.99 -3556.79c21.76,-32.15 452.96,-159.76 480.26,-157.24 -9.98,41.92 -109,213.59 -138.94,269.28l-107.03 209.67c-22.21,50.57 -90.66,146.85 -129.93,191.62 -22.41,25.66 -22.62,32.68 -48.16,57 -420.65,400.65 -1910.9,655.88 -2494.82,809.97 -425.22,112.21 -952.01,267.7 -1368.05,366.79l-800.68 217.75c-105.21,30.11 -742.95,175.77 -773.67,239.58 -13.56,70.57 14.54,38.47 31.33,94.97 -95.71,36.26 -240.97,57.08 -351.19,89.4 -110.67,30.93 -249.69,55.69 -350.78,88.33 -276.61,89.11 -614.52,155.69 -898.71,231.27 -63.4,16.83 -135.35,31.94 -198.75,48.24 -24.69,-17.03 -134.58,-149.29 -163.51,-167.79 -12.38,-29.38 -38.71,-37.93 -49.59,-71.84 -30.07,-93.96 73.17,-172.55 146.81,-209.27 295.03,-147.13 1147.26,-378.11 1551.21,-509.15 136.98,-42.3 288.88,-89.19 437.19,-137.27 275.68,-89.27 593.57,-199.61 867.99,-278.28 908.69,-290.59 1816.78,-583.55 2726.21,-871.62 101.01,-40.54 224.67,-73.47 321.72,-105.21 110.67,-36.18 216.76,-70.62 332.36,-104.31 144.88,-42.26 924.05,-311.17 978.9,-302.08l0 0.04 -0.18 0.15zm-8226.47 4745.09l805.04 0 0 226.7 -167.42 0 0 110.42 484.05 0.73 0 -109.77 -124.06 0 0.73 -227.43 810.91 0 0 228.13 -213.55 0 0 502.75 210.57 0 0 245.36 -834.58 0.69 0 -242.51 149.33 -0.69 0 -170.28 -486.86 0 0 168.89 170.93 0 0 243.94 -805.04 0 0 -245.36 170.88 0 -0.73 -502.06 -170.15 0 0 -229.55 -0.04 0 -0.01 0.04zm2820.58 -10.26c251.68,0 466.13,49.5 643.93,148.8 177.81,99.3 266.72,219.05 266.72,359.29 0,140.45 -88.91,260.2 -266.72,359.05 -177.81,99.05 -392.25,148.6 -643.93,148.6 -251.4,0 -466.21,-49.5 -644.27,-148.6 -178.06,-98.85 -266.88,-218.6 -266.88,-359.05 0,-140.25 88.83,-259.99 266.88,-359.29 178.06,-99.3 392.87,-148.8 644.27,-148.8zm7.41 198.14c-73.1,0 -135.69,29.75 -187.35,89.07 -51.79,59.33 -77.62,130.96 -77.62,214.89 0,83.45 25.83,154.87 77.62,214.19 51.66,59.33 114.25,89.07 187.35,89.07 72.36,0 134.66,-29.75 186.37,-89.07 51.79,-59.33 77.62,-130.71 77.62,-214.19 0,-83.94 -25.83,-155.57 -77.62,-214.89 -51.71,-59.33 -114.01,-89.07 -186.37,-89.07zm1004.69 -187.87l709.94 0 553.36 502.06 0 -273.93 -138.45 -0.69 0 -227.4 745.92 0 0 228.09 -152.96 0 0 509.76 127.77 0 0 238.36 -593.25 0 -630.37 -574.42 0 335.34 163.02 0 0 238.36 -795.88 0 0 -237.71 163.75 0 0 -508.37 -152.96 0.69 0 -230.21 0.04 0 0.04 0.08zm2622.6 233.02l0 493.26 300.9 0 30.97 -4.89c123.66,-29.5 185.47,-104.87 185.47,-226.01 8.14,-115.35 -43.07,-199.73 -153.61,-252.79 -20.17,-8.14 -64.3,-11.41 -132.3,-9.53l-231.48 0 0.05 -0.04zm-637.01 -234.41l1049.8 -0.69c231.22,12.3 396.13,61.41 494.44,147.21 98.53,85.81 154.34,180.01 167.75,282.82 1.43,127.9 -32.35,232.53 -101.01,313.25 -162,160 -361.24,238.2 -597.4,234.41l-1013.58 0 0 -247.89 142.08 0 0 -496.03 -142.08 0 0 -233.02 0 -0.04 0 -0.02zm2499.7 360.44l-99.54 138.13 196.35 -0.73 -96.81 -137.39 0 -0.01zm-545.21 -361.82l883.03 0.69 539.55 735.13 201.94 0 0 243.24 -981.79 0 0.73 -239.79 168.68 -0.69 -38.87 -51.87 -458.78 0 -39.65 47.63 202.75 0.69 -0.73 243.24 -738.06 0 0 -239.09 168.2 0 371.39 -509.07 -278.98 0 0.73 -230.21 -0.08 0 -0.04 0.09zm1083.62 -5364.87c-12.43,46.65 -128.11,83.85 -149.49,117.14 -53.42,4.2 -138.73,54.51 -189.18,77.58 -119.39,54.6 -432.22,140 -578.09,199.61 -288.56,96.69 -588.36,211.67 -875.24,299.1 -157.11,47.87 -327.1,118.69 -487.03,165.3 -64.79,18.87 -120.57,44.78 -189.18,64.38 -1178.23,401.38 -2356.33,809.24 -3536.22,1213.43 -42.21,14.1 -85.68,21.63 -123.05,35.45 -571.32,210.61 -1155.81,398.4 -1733.34,594.79 -127.7,43.31 -242.02,88.95 -280.81,222.31 -27.67,95.38 -22.9,100.56 22.13,188.64 83.32,163.3 775.17,704.65 948.66,853.94 76.03,53.91 897.49,775.3 904.22,790.7 -103.13,0.86 -648.99,15.12 -698.08,-6.77 -39.2,-17.48 -876.67,-770.69 -1080.84,-963.82 -261.14,-233.26 -746.94,-554.63 -667.32,-947.61 15.89,-78.19 96.49,-240.97 146.72,-289.29 172.31,-165.46 366.83,-197.81 589.99,-291.28 1306.69,-512.33 2611.8,-1020.33 3921.14,-1530.58 179.81,-71.43 635.13,-237.82 791.4,-306 1034.64,-451.45 2232.1,-873.78 3276.23,-1282.2l248.83 -92.25c43.07,-18.17 89.4,-49.26 144.81,-48.45l-134.79 437.6c-10.63,47.38 -27.99,85.24 -41.32,142.44 -26,111.85 -96.73,208.58 -172.39,300.7 -30.31,36.91 -12.72,36.22 -57.74,55.09l0.13 0 -0.16 0.05z"/>
  <path class="fil1" d="M41793.17 32536.77l5255.95 16414.96 -433.57 1521.13c-103.65,336.88 -222.22,367.4 -367.19,-143.75l-5709.98 -17472.58c-113.03,-69.87 566.35,-26490.63 624.22,-28980.04l94.44 -60.96 1844.37 12878.78 -153.49 676.74 -1345.2 -7230.21 190.44 22395.84 0 -0.04 0.04 0.08 -0.04 0.04z"/>
  <path class="fil1" d="M33600.76 20893.1c330.61,-252.79 634.85,-537.47 907.6,-848.52l-1089.36 22223.28 -760.02 600.99 941.78 -21975.8 0 0.05z"/>
  <path class="fil1" d="M25111.17 20045.45l0.08 0c289.57,351.59 620.88,668.34 986.72,944.35l944.31 21986.8 -692.06 -528.35 -1239.02 -22402.8 -0.04 0z"/>
  <path class="fil1" d="M18114.27 31764.97l-5971.72 16168.38 366.34 1538.74c88.78,341.08 205.88,376.81 373.14,-127.45l6471.78 -17205.05c115.92,-64.82 597.45,-26489.94 649.03,-28979.47l-91.68 -65.03 -2408.11 12785.39 123.66 682.85 1661.38 -7164.12 -1173.78 22365.85 -0.04 -0.04 0 -0.05z"/>
  <path class="fil1" d="M59379.63 54994.3c-1207.15,554.18 -2414.43,1108.26 -3621.62,1662.44 -6895.08,852.96 -13790.21,1705.92 -20685.33,2558.87 -1277.19,-983.06 -2554.38,-1966.12 -3831.59,-2949.16 515.43,-8.8 1030.93,-17.52 1561.1,-26.93l3233.93 2489.16 114.7 -14.22 98.03 -12.14 107.2 -13.24 7.54 -0.94 107.2 -13.24 98.03 -12.14 114.7 -14.14 -3147.18 -2422.37c255.23,-4.73 515.14,-9.66 781.29,-14.83l3055.59 2351.93 114.7 -14.22 98.03 -12.14 107.16 -13.2 7.54 -0.98 107.16 -13.2 98.03 -12.14 114.7 -14.22 -2970.6 -2286.49c253.15,-5.21 512.54,-10.67 779.25,-16.42l2881.13 2217.59 114.7 -14.22 98.03 -12.14 107.16 -13.2 7.58 -0.94 107.16 -13.2 98.03 -12.14 114.7 -14.22 -2798.13 -2153.71c252.05,-5.74 510.82,-11.74 777.13,-18.09l2710.77 2086.52 114.7 -14.22 98.03 -12.14 107.16 -13.2 7.58 -0.94 107.12 -13.2 98.03 -12.14 114.7 -14.22 -2629.77 -2024.13 299.44 -7.41 475.9 -12.1 2544.2 1958.29 114.7 -14.22 98.03 -12.14 107.16 -13.2 7.54 -0.98 107.16 -13.2 98.03 -12.14 114.7 -14.22 -2464.79 -1897.13c253.67,-6.77 511.88,-13.65 773.47,-20.82l2380.97 1832.63 114.7 -14.22 98.03 -12.14 107.16 -13.2 7.54 -0.98 107.16 -13.2 98.03 -12.14 114.7 -14.22 -2303.15 -1772.74 771.83 -22.17 2221.05 1709.54 114.74 -14.22 98.03 -12.14 107.16 -13.2 7.58 -0.94 107.16 -13.2 98.03 -12.14 114.7 -14.14 -2144.82 -1650.91c256.13,-7.71 513.06,-15.53 770.17,-23.51l2064.52 1589.06 114.7 -14.22 98.03 -12.14 107.16 -13.2 7.58 -0.94 107.16 -13.2 98.03 -12.14 114.7 -14.14 -1989.99 -1531.69c256.86,-8.23 513.06,-16.62 768.05,-25.1l1911.76 1471.47 114.7 -14.22 98.03 -12.14 107.16 -13.2 7.58 -0.94 107.16 -13.2 98.03 -12.14 114.74 -14.14 -1839.36 -1415.73c257.55,-8.93 512.98,-17.89 765.56,-26.97l1763.56 1357.38 114.7 -14.22 98.03 -12.14 107.2 -13.24 7.54 -0.94 107.2 -13.24 98.03 -12.14 114.7 -14.14 -1693.69 -1303.64c258.49,-9.66 512.98,-19.47 762.46,-29.34l1621 1247.7 114.7 -14.22 98.03 -12.14 107.16 -13.2 7.58 -0.94 107.16 -13.2 98.03 -12.14 114.74 -14.22 -1554.71 -1196.64c259.22,-10.88 511.8,-21.76 758.02,-32.8l1486.46 1144.12 114.74 -14.22 98.03 -12.14 107.2 -13.24 7.54 -0.94 107.2 -13.24 98.03 -12.14 114.74 -14.22 -1424.94 -1096.78c258.08,-12.34 508.66,-24.85 751.95,-37.44l1362.76 1048.94 114.7 -14.22 98.03 -12.14 107.16 -13.24 7.58 -0.9 107.16 -13.24 98.03 -12.14 114.7 -14.22 -1307.88 -1006.65c256.49,-14.42 504.22,-28.97 743.76,-43.76l1253.85 965.09 114.7 -14.22 98.03 -12.14 107.16 -13.24 7.54 -0.94 107.16 -13.24 98.03 -12.14 114.7 -14.22 -1207.97 -929.81c253.97,-17.24 497.91,-34.76 732.31,-52.52l1165.43 897 114.7 -14.22 98.03 -12.14 107.16 -13.2 7.54 -0.98 107.16 -13.2 98.03 -12.14 114.7 -14.22 -1132.46 -871.66c250.13,-21.31 488.33,-43.11 715.69,-65.35l926.47 713.07 83.41 -38.26 31.33 24.12 71.3 -32.72 26.73 20.58 83.41 -38.26 31.33 24.12 232.61 -106.75 -825.2 -635.17c243.04,-27.3 472.96,-55.17 692.06,-83.57l545.33 419.75 83.41 -38.26 31.33 24.12 71.26 -32.72 26.77 20.58 83.41 -38.26 31.33 24.12 198.67 -91.18 34.35 -15.23 -468.44 -360.55c232.04,-33.95 452.96,-68.33 666.59,-103.17l223 171.61 84.42 -37.48 30.23 23.31 72.16 -32.02 25.83 19.88 84.39 -37.48 30.27 23.31 235.42 -104.59 -169.62 -130.55c188.32,-32.72 373.59,-65.56 558.81,-98.4 187.22,48.2 374.41,96.41 561.59,144.56l-0.49 0.13 -0.44 -0.42z"/>
  <path class="fil2" d="M8964.59 54873.62l2682.81 -1566.77 2360.4 41.6 -830.62 467.43 607.02 1123.22 -1438.63 -19.51 -465.92 -1132.42 -899.93 522.18 856.34 -7.46 165.55 402.28 -1590.15 -39.93 -153.65 226.99 -1293.17 -17.56 0 -0.04 -0.06 0zm8226.8 -1491.44l-510.7 893.38 -577.48 -908.13 -1381.83 -18.78 -821.86 1592.07 1296.68 17.6 586.73 -1099.06 661.49 829.69 -162.41 284.15 1487.27 20.17 538.53 -1147.43 686.79 -439.11 -1803.21 -24.53 0.04 0 -0.05 -0.03zm-6216.27 -74.84l-779.58 456.96c0,0 -2393.97,-32.51 -2614.44,-35.49l-483.03 501.57 2151.59 36.43 -649.15 382.44 -1691.37 -73.38 -389.28 329.26 -1845.38 42.45 1494.53 -1237.95 -798.36 -487.96 5604.53 85.72 0 0.04 -0.05 -0.09z"/>
  <path class="fil2" d="M44727.01 55043.48l2584.62 -1723.96 2358.69 -99.26 -801.25 516.16 672.91 1085.04 -1437.24 66.29 -532.62 -1102.64 -867.22 574.96 854.38 -58.51 189.22 391.72 -1589.71 54.92 -139.87 235.75 -1291.95 59.61 0.04 -0.08 0 0.01zm8123.18 -1979.44l-456.55 922.23 -630.61 -872.07 -1380.48 63.68 -725.47 1638.19 1295.37 -59.78 520.15 -1132.1 709.78 788.79 -145.18 293.32 1485.85 -68.58 469.14 -1177.49 659.37 -479.28 -1801.47 83.08 0.04 0 0.04 0zm-6209.67 296.01l-750.94 502.63c0,0 -2391.66,110.29 -2611.92,120.53l-452.23 529.48 2149.92 -91.92 -625.23 420.49 -1692.71 27.63 -368.95 351.88 -1839.56 152.42 1418.01 -1324.91 -826.03 -439.48 5599.63 -248.7 0 -0.04z"/>
  <path class="fil2" d="M31416.26 24168.56l-900.75 -17.6c-43.72,-0.86 -81,16.66 -115.64,54.36l-100.24 109.07c-7.86,8.52 -11.98,21.03 -11.74,35.73 0.21,14.71 4.69,27.42 12.72,36.3l82.51 90.86c36.99,40.7 76.48,60.14 121.66,59.82l383.66 -2.65 55.99 -79.08 -326 7.99 -68.58 -30.97 129.37 -182.94 894.72 8.31c11.65,0.13 21.8,5.46 31.13,16.34l1.05 1.26c13.97,16.3 21.63,38.66 22.17,64.58 0.49,25.92 -6.36,48.08 -19.68,64.09l-235.34 281.83c-35.24,42.21 -74.36,62.42 -120.44,62.22l-2814.08 -11.74c-44.17,-0.17 -82.55,-18.98 -118.85,-58.26l-233.64 -252.83c-19.72,-21.35 -30.76,-52.11 -31.49,-87.76 -0.73,-35.62 9.08,-66.17 27.95,-87.2l230.33 -256.09c34.59,-38.47 72.08,-56.39 116.09,-56.07l1358.96 10.51c4.69,0.04 8.68,1.35 13,4.32l24.4 16.58c10.92,7.41 17.89,22.13 18.74,39.69 0.9,17.56 -4.52,32.96 -14.67,41.6l-70.24 59.89c-43.8,37.32 -86.38,58.99 -137.72,56.76l-732.75 -31.53c-39.52,-1.71 -73.38,11.61 -106.47,41.96l-124.56 114.21c-8.89,8.14 -13.73,21.44 -13.65,37.16 0.13,15.72 5.21,29.41 14.14,38.26l100.84 98.85c34.19,33.5 68.99,49.46 109.28,50.16l955.18 16.17 -68.25 -73.51c-24.24,-26.07 -37.98,-63.32 -39.52,-106.92 -1.5,-43.63 9.53,-81.45 31.9,-108.66l183.88 -224.14c35.53,-43.27 75.29,-64.05 122.11,-63.72l1202.76 8.27c45.47,0.32 84.75,14.71 125.78,46.05l58.63 44.86c8.23,6.32 13.73,16.3 16.26,29.41 2.53,13.08 1.31,25.63 -3.51,36.8l-12.02 27.63c-5.7,13.04 -14.75,20.17 -25.42,19.92l0.13 0 -0.08 -0.16zm-1536.21 -310.84l-1556.85 -15.61c-31.01,-0.28 -58.11,11.12 -84.67,38.26l-359.41 367.36c-19.64,20.09 -31.74,50.57 -31.66,90 0.04,40.38 12.72,72.24 32.43,93.96l324.33 358.76c28.28,31.29 57.74,45.71 91.55,46.16l3038.1 39.65c30.27,0.41 56.68,-10.43 82.83,-36.18l403.82 -397.55c20.41,-20.09 33.05,-51.47 32.75,-91.96 -0.24,-41.56 -13.9,-74.03 -34.51,-95.38l-344.17 -356.23c-27.78,-28.77 -56.23,-41.85 -88.87,-41.81l-1505.69 0.53 0.01 0.03z"/>
  <path class="fil2" d="M42364.61 32335.04l0 -0.08 -6.11 -19.32 1.67 -68.58 1.8 -0.65 -223.85 -7525.77 174.51 336.27 669.16 7141.42 4133.18 11754.14 805.77 -3979.81 -1217.75 -7232.7c-125.37,-756.19 1.14,-682.81 133.89,-147.86l1688.76 7375.1 -1164.01 7976.7c-18.87,63.85 -39.77,62.83 -62.59,4.11l-4934.47 -15613.02 0 0.04 0.04 0.01z"/>
  <path class="fil2" d="M17552.23 31538.31l0 -0.08 6.96 -19.02 1.35 -68.58 -1.8 -0.73 554.09 -7508.61 -189.14 328.32 -982.08 7105.07 -4645.35 11561.28 -630.2 -4011.39 1534.13 -7172.23c158.5,-749.91 28.85,-682.2 -127.29,-153.57l-2010.97 7293.81 812.62 8020.14c16.05,64.62 36.99,64.54 62.34,6.88l5615.32 -15381.3 0.04 0 0.04 0.04 -0.08 -0.02z"/>
  <path class="fil2" d="M18068.99 33065.76l389.93 673.55 -151.41 404.31 -267.49 -66.21 177.48 306.53 -144.64 386.34 -389.93 -673.55 144.69 -386.3 272.22 44.81 -175.45 -303.15 144.64 -386.3 -0.04 0 0 -0.04zm-523.53 1840.33c-18.21,-31.49 -31.29,-46.61 -40.05,-46.98 -8.31,0.45 -17.48,14.14 -27.59,41.15 -9.25,24.74 -14.05,46.08 -15.12,66.33 0.24,18.91 9.53,46.05 29.75,81l181.89 314.18c22.7,39.16 38.14,58.51 46.93,58.92 7.95,2.65 17.97,-13.36 28.93,-42.54 11.78,-31.49 16.38,-56.76 12.47,-74.56 -2.53,-19.19 -15.2,-48.41 -38.3,-88.42l-178.96 -309.06 -0.04 0 0.08 -0.04zm301.47 -241.33c38.92,67.32 64.86,119.46 77.78,156.51 13.69,34.87 18.91,88.17 15.44,156.1 -2.65,65.65 -15.04,144.15 -35.37,231.07 -21.19,89.11 -50.57,182.66 -87.6,281.51 -36.18,96.56 -71.59,175.98 -106.26,238.2 -35.49,64.41 -68.09,108.06 -98.68,129.12 -31.46,23.31 -56.31,24.69 -75.5,6.47 -19.64,-19.11 -49.42,-63.16 -89.36,-132.18l-67.02 -115.8c-38.92,-67.27 -64.86,-119.43 -77.78,-156.51 -14.26,-35.69 -18.91,-88.21 -15.44,-156.1 2.65,-65.65 15.04,-144.15 36.22,-233.3 20.37,-86.91 49.75,-180.42 87.6,-281.51 35.32,-94.37 70.73,-173.73 105.41,-235.91 35.49,-64.45 68.09,-108.1 99.54,-131.45 30.6,-21.06 55.5,-22.45 74.65,-4.24 19.64,19.15 49.42,63.19 89.36,132.14l67.02 115.8 -0.04 0.08 0.04 0zm-692.17 842.49l389.93 673.55 -173.24 462.7 -389.93 -673.55 173.24 -462.66 0 -0.04zm-212.82 568.27l77.9 134.54 -101.74 271.77 312.06 539.02 -173.24 462.66 -312.03 -539.02 -102.64 274.06 -77.9 -134.54 377.67 -1008.44 -0.08 -0.04 0.01 0zm-417.14 1114.06l389.93 673.55 -173.24 462.66 -389.93 -673.55 173.24 -462.66zm-398.57 1357.01l256.86 443.68c24.4,-65.11 36.59,-110.67 36.54,-136.62 0,-25.96 -13.24,-59.93 -39.36,-105.04l-151.86 -262.28c-17.76,-30.64 -29.9,-48 -36.54,-52.03 -7.46,-1.75 -15.12,3.51 -24.33,17.24 -9.17,13.65 -22.77,45.67 -41.32,95.1l0.01 -0.05zm-239.83 347.8l129.53 -345.92c83.24,-222.35 141.59,-369.44 175.98,-439.52 33.9,-70.94 63.97,-118.81 89.47,-141.39 25.02,-23.43 46.93,-29.95 62.63,-17.6 17.03,10.88 43.35,48.98 80.3,112.9l136.53 235.83c35,60.47 55.65,107.2 61.6,143.34 5.95,36.14 6.07,77.05 -1.31,127.17 -7.05,46.98 -20.25,101.82 -37.53,160.86 -18.54,60.42 -48.2,146.03 -89.43,256.17l-217.82 581.75 -389.89 -673.55 -0.04 0 -0.03 -0.03zm-349.91 934.37l288.52 -770.45 77.9 134.54 -115.23 307.71 74.44 128.55 107.65 -287.49 73.96 127.74 -107.69 287.49 85.77 148.19 127 -339.2 77.9 134.54 -300.29 801.9 -389.89 -673.55 -0.04 0 0.02 0.03zm-294.38 786.09l312.03 538.97 104.31 -278.53 77.9 134.54 -277.55 741.28 -389.93 -673.55 173.29 -462.66 -0.04 -0.04zm-142.73 1484.59c-52.8,-54.19 -115.92,-126.27 -190.24,-213.95 57.25,176.59 101.05,300.29 131.36,371.15l58.92 -157.24 -0.04 0.04zm-159.23 -678.28l489.19 408.51 -177.48 473.95 -79.25 -96.2 -62.26 166.15 60.75 145.63 -179.15 478.38 -302.45 -907.15 250.62 -669.36 0.04 0 -0.01 0.08zm-367.56 981.54l389.89 673.55 -173.24 462.66 -389.89 -673.55 173.24 -462.66zm-65.44 922.68l-173.24 462.7 -67.56 -116.65c-19.72,-34.06 -33.74,-50.89 -42.05,-50.36 -9.13,2.69 -19.15,18.66 -31.78,52.35 -14.3,38.17 -20.62,68 -18.05,87.2 1.71,21.44 12.83,48.08 32.56,82.14l180.91 312.51c19.23,33.2 33.25,49.95 42.86,48.12 9.29,1.26 21.47,-18.34 34.1,-52.03 12.59,-33.69 18.05,-61.28 16.34,-82.72 -1.22,-20.58 -13.36,-48.9 -35.04,-86.38l-48.81 -84.3 173.24 -462.66 15.28 26.41c40.46,69.83 63.93,132.71 71.47,186.37 6.68,55.9 0.45,137.6 -20.37,249.6 -20.78,111.96 -54.77,230.86 -103.58,361.13 -50.48,134.79 -97.95,237.75 -141.63,306.61 -43.63,68.86 -80.3,101.7 -109.97,98.53 -30.15,-3.96 -63.81,-39.89 -102.23,-106.35l-113.88 -196.67c-28.12,-48.53 -47.14,-88.78 -58.11,-122.48 -10.43,-32.84 -14.99,-81.41 -10.96,-148.48 3.13,-64.79 15.53,-143.34 36.71,-232.49 21.55,-92.21 50.93,-185.79 88.78,-286.89 50.48,-134.75 98.4,-236.85 143.42,-307.13 44.17,-68 80.8,-100.84 108.96,-100.24 27.34,2.81 59.04,35.32 95.51,98.36l36.95 63.85 0.17 -0.13 0.01 0.07zm-923.69 1718.79l288.48 -770.45 77.9 134.54 -115.23 307.75 74.44 128.55 107.65 -287.49 73.96 127.74 -107.65 287.49 85.77 148.19 127 -339.2 77.9 134.54 -300.29 801.86 -389.89 -673.55 -0.08 0 0.06 0.03zm-182.42 779.77l99.09 171.17c5.54,-12.63 9.74,-23.88 13.08,-32.88 16.02,-42.71 24.44,-76.11 25.87,-99.54 1.46,-23.39 -5.05,-49.42 -19.32,-74.07l-32.02 -55.37c-13.28,-23.02 -25.55,-29.3 -37.08,-15.89 -10.63,11.12 -26.93,45.88 -49.67,106.59l0.04 0zm-239.86 347.76l174.1 -464.99c47.1,-125.74 85.24,-218.92 114.94,-278.69 29.62,-59.69 55.41,-100.27 75.95,-120.36 20.99,-19.19 40.14,-26.89 55.65,-18.54 16.05,9.17 36.8,33.95 61,75.63l34.02 58.75c24.65,42.58 38.66,85.27 40.74,129.57 2.89,42.05 -4.2,100.07 -21.8,173.17 -17.16,73.96 -44.45,159.96 -82.31,261.01l-46.24 123.54 157.28 271.6 -173.24 462.66 -389.93 -673.55 -0.08 0.13 -0.06 0.07zm49.38 388.5l-160.66 429.01 -29.05 -50.23c-13.28,-23.02 -23.43,-33.01 -31.49,-28.56 -7.66,5.29 -16.34,19.8 -25.63,44.53 -10.92,29.22 -16.05,53.66 -16.17,75.63 -0.98,24.29 3.87,43.76 14.26,61.65 12.79,22.17 26.04,30.15 38.34,25.55 12.27,-4.69 36.63,-32.88 72.93,-88.54 103.17,-158.42 174.1,-250.37 210.7,-272.22 37.44,-24.08 75.14,-3.34 113.11,62.22 27.59,47.68 42.41,99.13 44.78,151.33 1.88,51.38 -7.82,127.08 -30.93,227.77 -23.11,100.68 -55.65,207.15 -97.71,319.49 -46.29,123.54 -90.74,220.6 -133.89,290.31 -42.33,67.43 -77.54,102.84 -103.33,102.6 -25.87,-0.28 -53.57,-25.96 -82.68,-76.19l-25.63 -44.29 160.66 -429.05 47.31 81.74c14.8,25.55 26.69,35 34.83,30.56 8.64,-3.54 19.02,-22.62 30.76,-54.07 10.92,-29.17 16.9,-55.95 17.31,-81 0.49,-25.1 -4.84,-45.47 -15.23,-63.36 -22.7,-39.16 -43.03,-52.07 -60.83,-34.83 -17.84,17.31 -56.59,68.74 -116.2,154.3 -59.69,85.65 -100.6,140.7 -121.46,163.84 -21.72,25.42 -43.84,38.99 -66.33,40.7 -21.76,-0.49 -44.04,-16.87 -64.75,-52.65 -29.54,-51.09 -45.02,-107.36 -46.2,-164.89 -0.32,-59.78 9.81,-134.66 31.01,-223.81 21.55,-92.25 52.11,-191.13 93.3,-301.19 44.57,-119.01 87.69,-214.73 127.21,-283.38 40.29,-70.86 72.24,-108.3 95.14,-113.11 22.86,-4.8 50.12,20.05 81.2,73.71l15.28 26.41 0 0.04 0.04 0.01z"/>
  <path class="fil2" d="M46598.39 48511.03l-724.45 -284.52 -133.16 -410.71 250.58 -114.66 -329.71 -129.44 -127.21 -392.46 724.4 284.52 127.21 392.46 -240.97 134.34 326 128.06 127.21 392.42 0.04 0 0.04 -0.01zm-735.61 -1766.3c33.9,13.28 53.5,17.03 60.63,11.82 6.19,-5.54 4.84,-21.96 -3.99,-49.39 -8.14,-25.1 -17.72,-44.81 -29.46,-61.32 -11.93,-14.71 -36.14,-30.11 -73.71,-44.9l-337.98 -132.75c-42.13,-16.54 -66.25,-22.04 -73.38,-16.87 -7.86,2.85 -5.78,21.59 3.83,51.26 10.39,31.98 22.53,54.64 36.63,66.13 13.97,13.49 42.01,28.44 85.08,45.35l332.44 130.59 0 0.04 -0.1 0.05zm-85.77 376.49c-72.33,-28.4 -125.13,-53.14 -158.29,-74.11 -32.47,-18.74 -69.72,-57.25 -109.24,-112.62 -38.75,-53.05 -77.99,-122.2 -116.12,-202.91 -38.83,-82.92 -74.11,-174.47 -106.67,-274.87 -31.83,-98.12 -53.5,-182.3 -65.07,-252.54 -12.3,-72.53 -14.01,-126.93 -3.1,-162.49 10.07,-37.85 28.68,-54.43 55.05,-52.07 27.26,2.73 77.99,18.7 152.18,47.83l124.56 48.9c72.36,28.4 125.13,53.14 158.33,74.11 33.37,19.07 69.72,57.25 109.2,112.62 38.75,53.05 77.99,122.2 116.86,205.19 38.14,80.67 73.38,172.15 106.67,274.87 31.05,95.83 52.76,179.97 64.34,250.26 12.3,72.53 13.97,126.96 3.83,164.78 -10.84,35.53 -29.41,52.15 -55.78,49.8 -27.26,-2.73 -77.99,-18.7 -152.18,-47.83l-124.56 -48.9 -0.01 -0.02zm17.44 -1090.25l-724.4 -284.52 -152.38 -470 724.4 284.52 152.35 470 0.04 0 -0.01 0zm-187.14 -577.24l-144.69 -56.8 -89.47 -276.09 -579.72 -227.69 -152.35 -470 579.76 227.69 -90.21 -278.33 144.64 56.8 332.07 1024.42 -0.04 0 0.01 0zm-366.83 -1131.61l-724.4 -284.52 -152.35 -470 724.4 284.52 152.35 470zm-532.63 -1310.24l-477.12 -187.42c21.44,66.13 40.22,109.36 56.39,129.69 16.17,20.29 47.72,38.62 96.24,57.7l282.07 110.78c32.96,12.96 53.29,18.91 60.96,17.97 6.92,-3.26 9.66,-12.14 8.31,-28.6 -1.35,-16.42 -10.56,-49.91 -26.86,-100.11l0 -0.01zm-28.72 -421.47l113.93 351.38c73.17,225.85 119.09,377.3 135.84,453.53 17.65,76.6 23.88,132.83 17.97,166.36 -4.97,33.86 -18.09,52.65 -38.06,52.76 -20.13,2.04 -64.41,-11.37 -133.12,-38.34l-253.67 -99.62c-64.99,-25.55 -110.29,-49.3 -137.39,-73.87 -27.18,-24.61 -52.69,-56.51 -78.11,-100.35 -23.75,-41.19 -47.51,-92.29 -70.77,-149.29 -23.11,-58.84 -53.17,-144.28 -89.4,-256.13l-191.55 -590.96 724.4 284.52 -0.04 0 -0.03 0.01zm-307.62 -949.11l253.67 782.59 -144.69 -56.8 -101.29 -312.55 -138.29 -54.32 94.69 292.06 -137.36 -53.95 -94.69 -292.01 -159.36 -62.59 111.68 344.5 -144.69 -56.8 -264.03 -814.53 724.4 284.52 -0.04 -0.13 -0.02 0.01zm-258.85 -798.53l-579.72 -227.69 91.72 282.89 -144.69 -56.8 -244.07 -752.93 724.4 284.52 152.38 470 -0.04 0 0.01 0.01zm-812.25 -1250.83c75.01,9.57 169.3,26.69 282,49.01 -154.71,-102.6 -265.98,-172.15 -333.78,-208.73l51.79 159.72 -0.01 0zm546.75 431.77l-637.13 -15.32 -156.06 -481.44 121.91 25.96 -54.72 -168.85 -138.17 -76.11 -157.52 -485.96 801.34 521.82 220.39 679.91 0.04 0 -0.07 -0.01zm-323.19 -997.03l-724.4 -284.52 -152.35 -470 724.4 284.56 152.38 470 -0.04 -0.04 0.01 0zm-523.04 -762.95l-152.35 -470 125.45 49.3c36.63,14.42 58.11,18.87 64.26,13.28 5.5,-7.82 3.38,-26.52 -7.71,-60.75 -12.55,-38.79 -26.2,-66.05 -40.18,-79.49 -14.71,-15.72 -39.97,-29.66 -76.6,-44.04l-336.11 -132.01c-35.73,-14.05 -57.12,-18.46 -63.48,-11.01 -8.03,4.84 -5.38,27.74 5.7,61.97 11.08,34.23 23.99,59.16 38.66,74.93 13.73,15.4 40.91,29.95 81.16,45.8l90.66 35.62 152.38 470 -28.4 -11.12c-75.05,-29.5 -132.67,-64.05 -171.91,-101.38 -40.05,-39.65 -85.97,-107.44 -139.43,-208.04 -53.38,-100.56 -100.76,-214.81 -143.71,-347.1 -44.38,-136.91 -71.3,-247.03 -79.98,-328.12 -8.68,-81.05 -0.45,-129.57 24.78,-145.54 26.11,-15.64 74.77,-8.48 146.23,19.6l211.55 83.08c52.2,20.5 92.12,40.18 121.62,59.74 28.6,19.23 62.38,54.4 100.97,109.36 37.85,52.69 77.05,121.83 115.96,204.83 40.54,85.61 75.74,177.12 109.07,279.76 44.38,136.82 70.36,246.63 78.88,329.67 7.78,80.67 -0.45,129.2 -22.9,146.27 -23.18,14.8 -68.2,9.08 -135.93,-17.56l-68.69 -26.97 -0.04 -0.08 0.06 0.02zm-346.7 -1920.19l253.67 782.55 -144.69 -56.8 -101.29 -312.55 -138.24 -54.32 94.65 292.06 -137.36 -53.95 -94.69 -292.06 -159.36 -62.59 111.64 344.5 -144.69 -56.8 -264.03 -814.53 724.4 284.52 0 -0.04 -0.02 0.01zm-342.51 -723.87l-184.08 -72.29c3.51,13.28 7.26,24.74 10.19,33.86 14.1,43.35 28.23,74.77 41.68,94 13.41,19.23 34.72,35.53 61.28,45.96l59.53 23.39c24.74,9.7 38.26,7.05 38.92,-10.6 1.39,-15.36 -7.5,-52.69 -27.46,-114.29l0 -0.04 -0.05 0zm-28.72 -421.47l153.12 472.32c41.4,127.77 69.55,224.43 83.49,289.65 13.97,65.2 19.02,113.03 15.53,141.47 -4.48,28.08 -14.67,46 -32.02,49.1 -18.25,2.77 -49.95,-3.66 -94.85,-21.31l-63.19 -24.81c-45.75,-18.01 -83.36,-42.71 -112.58,-76.03 -28.48,-31.08 -59.04,-80.96 -90.69,-149.17 -32.64,-68.54 -64.75,-152.83 -98.03,-255.47l-40.7 -125.5 -292.14 -114.78 -152.35 -470 724.4 284.56 0.04 0 -0.02 -0.03zm-280.4 -273.37l-141.26 -435.77 54.02 21.23c24.74,9.7 38.79,11.25 42.45,2.73 2.73,-8.89 0.45,-25.71 -7.66,-50.81 -9.62,-29.66 -20.86,-52.03 -34.43,-69.31 -14.38,-19.56 -30.27,-31.83 -49.5,-39.32 -23.84,-9.33 -39.16,-7.46 -45.88,3.87 -6.77,11.29 -8.27,48.49 -1.95,114.74 17.8,188.21 19.51,304.33 4.44,344.21 -14.3,42.17 -56.68,49.42 -127.21,21.72 -51.3,-20.13 -94.93,-51.26 -129.29,-90.58 -33.45,-39.03 -72.97,-104.35 -117.59,-197.53 -44.57,-93.15 -85.36,-196.8 -122.35,-310.88 -40.66,-125.5 -66.25,-229.11 -75.91,-310.52 -8.84,-79.17 -3.34,-128.75 17.07,-144.64 20.41,-15.85 58.11,-13.04 112.17,8.23l47.63 18.7 141.26 435.85 -87.93 -34.55c-27.5,-10.8 -42.71,-10.8 -46.29,-2.24 -4.52,8.14 -0.81,29.54 9.53,61.49 9.62,29.66 21.55,54.27 36.84,74.2 15.23,19.92 32.07,32.51 51.38,40.09 42.13,16.54 66.05,14.01 69.31,-10.6 3.17,-24.61 1.5,-88.99 -5.1,-193.13 -6.6,-104.18 -8.84,-172.68 -6.92,-203.81 1.18,-33.41 10.02,-57.81 26.65,-73.17 17.31,-13.12 44.94,-14.22 83.41,0.9 54.92,21.59 102.02,55.99 138.78,100.31 37.48,46.57 76.11,111.51 115.02,194.51 40.54,85.65 78.19,182 114.45,293.85 39.16,120.93 64.95,222.63 76.81,300.94 12.55,80.56 10.84,129.69 -4.07,147.7 -14.91,18.01 -51.71,15.53 -109.41,-7.13l-28.4 -11.12 -0.08 -0.21 0 0.06z"/>
 </g>
</svg>
