<?xml version="1.0" encoding="UTF-8"?>
  <!DOCTYPE svg PUBLIC "-//W3C//DTD SVG 1.1//EN" "http://www.w3.org/Graphics/SVG/1.1/DTD/svg11.dtd">
  <!-- Creator: CorelDRAW 2020 (64 Bit) -->
  <svg xmlns="http://www.w3.org/2000/svg" xml:space="preserve" width="786.873mm" height="334.506mm" version="1.1" style="shape-rendering:geometricPrecision; text-rendering:geometricPrecision; image-rendering:optimizeQuality; fill-rule:evenodd; clip-rule:evenodd"
  viewBox="0 0 28732.17 12214.28"
   xmlns:xlink="http://www.w3.org/1999/xlink"
   xmlns:xodm="http://www.corel.com/coreldraw/odm/2003">
   <defs>
    <style type="text/css">
     <![CDATA[
      .fil1 {fill:#d9d9d9}
      .fil0 {fill:#ff0000}
      .fil2 {fill:#000000}
     ]]>
    </style>
   </defs>
   <g id="Camada_x0020_1">
    <metadata id="CorelCorpID_0Corel-Layer"/>
    <path class="fil0" d="M13276.08 5208.89l-809.65 53.46 -232.51 -149.26 1042.54 60.26c22.36,1.29 22.05,34.06 -0.38,35.54zm-10631 -4345.5l-2207.1 -101.48 -437.98 -761.91 1550.18 323.2 1094.89 540.19zm5504.97 189.84l-3737.42 -248.85 -779.36 -402.65 3829.63 340.84 687.14 310.66zm3202.58 1787.85l453.37 278.24 -190.13 367.06 258.48 -10.6 100.19 -222.87 406.47 256.41 -214.22 466.33 -270.6 19.24 -196.34 739.5 -500.16 -255.67 139.62 -470.86 -86.73 7.53 -210.96 356.98 -481.03 -237.03 792.06 -1294.28zm-4710.7 -878.46l1263.14 726.6 366.63 -604.21 -1629.77 -122.39zm3345.03 275.27l-477.2 833.98 -583.05 -56.85 150.43 -255.72 -298.42 -14.7 -178.1 314.01 -482.83 -262.63 394.24 -679.59 1474.93 121.51zm222.04 -1.79l173.5 5.45 891.09 544.65 -742.56 -7.75 -269.71 477.02 700.92 1.25 -330.35 527.04 -704.48 -49.05 -8.59 42.77 -488.87 -253.19 779.06 -1288.2zm-8864.36 2357.88l9695.58 551.2 239.09 114.57c17.36,8.31 10.45,34.23 -8.5,33.84l-9936.19 -204.1 10.02 -495.51zm1595.95 -953.86l-104.01 -10.1 -470.52 884.35 -475.28 -26.8c178.54,-346.32 368.56,-718.83 541.84,-1057.51l-1063.71 -46.68 22.03 -835.97 135.5 -342.36 455.32 -301.34 1063.32 41.94 -505.23 961.54 -497.27 -47.28 238.34 -465.13 -356.94 -16.63 -320.96 683.06 967.18 100.5c141.57,-275.42 286.43,-554.66 439.93,-844.54l522.13 -328.87 1072.95 20.5 -700.76 1291.55 208.59 21.67 710.32 -1330.72 1250.69 639.31 -472.89 846.03 619.09 64.33 21.83 1.44 -246.41 -367.81 261.06 -469.37 291.61 145.13 575.01 851.59 -585.25 1072.72 -1400.26 -86.5 422.67 -772.22 556.75 24.6 -175.62 322.52 300.03 16.4 212.7 -420.17 -179.54 -268.01 -721.29 -29.49 -627.17 1121.1 -1495.63 -100.18 586.57 -1083.78 -216.23 -8.96 -103.54 189.9 -272.63 -16.28 -174.54 911.92 -501.82 -32.41 192.08 -902.98zm1610.11 -119.35l431.17 17.63 -366.2 666.06 -437.94 -21.28 372.96 -662.41zm4335.8 523.15l-474.94 846.48 1327.59 82.01 221.66 -394.62 -327.68 -157.58 -375.25 44.88 120.59 -175.53 -491.98 -245.63zm1643.23 821.82l-70.95 151.12 -595.01 -36.76 191.5 -355.96 474.46 241.59zm-2720.98 -1360.82l903.49 448.7 -512.18 923.71 -1420.19 -87.73 402.14 -775.56 572.26 39.86 -170.54 310.69 289.75 26.56 220.62 -419.54 -285.35 -466.68zm-5670.47 158.72l-456.71 -40.43 -122.63 283.83 -174.45 -14.46 -23.91 562.24 551.69 -309.81 226.01 -481.37zm1296.19 -1188.72l391.99 17.38 -367.06 674.2 -381.54 -20.88 356.61 -670.7zm1613 944.19l-415.22 -43.15 439.09 -779.86 414.47 25.74 -438.33 797.27z"/>
    <path class="fil1" d="M9974.61 2037.25l-3646.55 -259.91 -1592.52 -830.61 3522.81 169.11 1716.25 921.41zm-8917.04 -259.54l-547.59 -903.8 2316.34 89.1 1841.98 942.17 -3610.73 -127.47z"/>
    <path class="fil1" d="M18757.57 2037.25l3646.55 -259.91 1592.51 -830.61 -3522.8 169.11 -1716.25 921.41zm8917.04 -259.54l547.58 -903.8 -2316.34 89.1 -1841.97 942.17 3610.73 -127.47z"/>
    <line class="fil1" x1="20224.03" y1="4008.78" x2="20224.03" y2= "4008.78" />
    <path class="fil0" d="M18154.61 5054.68l569.59 -35.19 -15.19 -392.81 -558.82 279.96 4.41 148.04zm2427.5 -4001.46l3737.42 -248.85 779.36 -402.65 -3829.63 340.84 -687.14 310.66zm5504.99 -189.84l2207.09 -101.48 437.98 -761.91 -1550.18 323.2 -1094.89 540.19zm1300.43 3730.59l-9695.59 551.2 -239.09 114.57c-17.36,8.32 -10.45,34.23 8.5,33.84l9936.19 -204.1 -10.01 -495.51zm-11931.45 614.92l809.65 53.46 232.51 -149.26 -1042.54 60.26c-22.37,1.29 -22.04,34.06 0.38,35.54zm1704.06 -1859.94l503.94 37.68 255.14 -874.39 -615.4 377.61 -143.68 459.1zm4463.11 -1120.91l96.39 -299.12 501.96 -46.69 -598.34 345.81zm-2277.53 1260.74l751.14 -444.67 180.4 -468.52 504.54 -70.64 -92.46 235.28 733.84 -419.69 145.83 -371.57 -1782.51 196.58 -440.78 1343.24zm-1813.38 1002.76l460.35 -1742.24 577.04 -493.42 1038.71 -76.12 -449.14 1424.25 -870.7 478.67 -0.63 -208.48 -137.2 16.05 -85.92 316.46 -532.52 284.82zm719.02 -1013.35l177.59 -669.41 453.32 -41.33 -215.07 693.86 -415.84 16.88zm-2212.55 1508.73l350.71 -1521.68 552.73 -357.18 -327.46 1315.07 289.31 12.15 73.83 -286.89 496.85 -12.8 -105.91 452.46 -829.99 441.19 -500.08 -42.33zm6389.52 -1320.25l836.79 -6.85 144.25 172.54 -195.03 410.39 -295.67 12.2 147.43 -313.59 -539.29 24.59 -414.4 844.23 1415.98 -87.47 521.13 -1106.9 33.21 37.31 182.62 -1.5 -496.68 1056.24 1255.25 -77.55 253.23 -572.51 -681.14 48.94 217.23 -476.23 876.98 -35.83 -495.28 1025.08 529.51 -32.71 455.7 -970.22 104.03 2.03c-6.02,35.93 -24.94,163.87 -33.02,189.23l-131.65 754.55 515.6 -31.85 146.27 -961.53 261.49 -22.26 21.43 -85.58 238.33 -9.28 0.15 54.4 1.04 -151.89 -0.5 0.03 7.17 -995.03 301.7 -482.41 -835.85 35.81 -516.38 426.89 -424.98 907.69 -229.74 12.44 144.09 -332.67 -626.57 34.22 243.99 -546.14 697.8 -49.53 148.05 -385.74 0.44 -0.02 21.35 -55.47 -1178.18 40.6 -669.39 1428.01 -469.45 37.42 -392.98 -469.88 204.86 -427.2 332.54 -20.36 -137.68 276.33 504.59 -24.71 364.98 -790.56 -945.48 32.58 -558.35 282.09 -405.59 915.19 242.07 289.56 -787.34 62.75 -346.14 -391.93 -0.34 0.7 -153.71 -160.04 9.63 -4.19 -0.44 -0.5 -605.22 309.14 539.74 585.59 -195.03 410.39 -295.69 12.2 147.45 -313.58 -539.3 24.58 -432.03 882.88 117.86 -6.91 0.31 -0.39 1297.24 -80.14 545.02 -1157.66zm-185.63 -589.42l482.64 -36.39 273.27 -599.96 -594.52 285.92 -53.87 116.97 1.21 -0.59 -44.03 94.78 -0.53 -0.09 -64.18 139.36zm4196.58 31.6l303.74 -663.62 341.48 -25.3 -309.2 668.58 -336.01 20.33zm-7646.68 1815.68l178.1 -408.85 612.7 -296.24 -94.86 190.25 452.06 -15.79 245.48 -510.1 704.4 -345.98 -681.84 1389.98 -1456.65 89.99 40.61 -93.25zm9.6 90.14l0 0z"/>
    <path class="fil1" d="M21957.13 3670.53l2347.16 -19.22 2998.36 -122.51 1.2 -174.16 -5346.7 279.67c-23.22,1.28 -23.64,36.77 -0.02,36.21z"/>
    <path class="fil1" d="M1373.16 3222.36l-4.24 161.01 3181.79 137.39 2167.16 88.62c23.53,0.96 25.89,-34.02 2.58,-35.55l-5347.3 -351.47z"/>
    <path class="fil2" d="M12825.64 9328.25l-976.43 2886.03 -688.09 -91.63 -3761.98 -4155.47c-12.29,-13.44 -33.54,2.11 -24.58,17.81l1605.47 2813.09 -4179.35 -3663.97 8024.95 2194.15zm-5431.1 -1364.53c0.28,0.14 0.57,0.29 0.86,0.45 -0.29,-0.16 -0.58,-0.31 -0.86,-0.45z"/>
    <path class="fil0" d="M8211.64 8066.7l3676.11 4033.68 -38.53 113.9 -426.76 -56.83 -3771.11 -4243.94 560.3 153.19zm-3410.95 -932.6l4179.35 3663.97 -1605.47 -2813.09c-8.96,-15.7 12.29,-31.25 24.58,-17.81l3761.98 4155.47 -3757.05 -489.18 -6317.51 -5352.22c-74.61,-63.21 -10.51,-184.21 83.7,-157.98l3630.42 1010.83zm2593.85 829.62c0.28,0.14 0.57,0.29 0.86,0.45 -0.29,-0.16 -0.58,-0.31 -0.86,-0.45z"/>
    <polygon class="fil1" points="4105.46,7293.18 4253.89,7416.48 4162.03,7705.05 4428.27,7561.34 4575.49,7683.65 4098.18,7916.95 3874.92,8185.69 3740.97,8074.41 3964.23,7805.67 "/>
    <path class="fil1" d="M4382.48 8428.67l-151.45 -125.81 -109.53 87.66 -136.36 -113.28 695.74 -506.06 146.01 121.3 -371.12 775.73 -139.99 -116.29 66.7 -123.25zm4192.71 -262.57l3438.3 3562.64 -124.39 367.66 -3671.03 -4027.94 357.12 97.64zm404.86 2631.97l-1605.79 -2812.8c-9.48,-16.61 14.58,-32 25.63,-16.51l2747.93 3853.08 -1167.77 -1023.78zm-4510.58 -2531.8l144.18 -269.32 -238.91 190.62 94.73 78.7zm560.16 -205.37l176.19 146.36 -257.48 446.21 392.04 -334.43 174.98 145.36 -532.83 641.39 -109.21 -90.72 406.32 -489.11 -490.79 418.93 -98.95 -82.2 322.45 -558.78 -406.32 489.11 -109.21 -90.72 532.83 -641.4zm391.86 1230.91l-151.45 -125.81 -109.54 87.66 -136.36 -113.28 695.74 -506.06 146.02 121.3 -371.12 775.73 -139.99 -116.29 66.7 -123.25zm86.99 -162.4l144.18 -269.32 -238.92 190.62 94.73 78.7zm561.97 -203.86l133.35 110.77 -186.04 223.95 146.01 121.3 186.04 -223.95 133.95 111.28 -532.83 641.39 -133.95 -111.27 215.81 -259.79 -146.01 -121.3 -215.81 259.78 -133.35 -110.77 532.83 -641.39zm323.08 1173.77l-151.44 -125.81 -109.54 87.66 -136.37 -113.28 695.74 -506.06 146.01 121.3 -371.12 775.73 -139.98 -116.29 66.69 -123.25zm86.98 -162.41l144.19 -269.32 -238.92 190.62 94.73 78.7z"/>
    <path class="fil2" d="M16336.27 9328.25l976.43 2886.03 688.08 -91.63 3761.99 -4155.47c12.06,-13.41 33.59,1.99 24.58,17.81l-1605.47 2813.09 4179.35 -3663.97 -8024.95 2194.15zm5431.1 -1364.53c-0.29,0.14 -0.58,0.29 -0.86,0.45 0.28,-0.16 0.57,-0.31 0.86,-0.45z"/>
    <path class="fil0" d="M20950.28 8066.7l-3676.1 4033.68 38.53 113.9 426.76 -56.83 3771.11 -4243.94 -560.3 153.19zm3410.95 -932.6l-4179.35 3663.97 1605.47 -2813.09c9.02,-15.81 -12.52,-31.22 -24.58,-17.81l-3761.99 4155.47 3757.05 -489.18 6317.51 -5352.22c74.62,-63.21 10.52,-184.21 -83.69,-157.98l-3630.42 1010.83zm-2593.85 829.62c-0.29,0.14 -0.58,0.29 -0.86,0.45 0.28,-0.16 0.57,-0.31 0.86,-0.45z"/>
    <path class="fil1" d="M20586.73 8166.1l-3438.29 3562.64 124.39 367.66 3671.02 -4027.94 -357.12 97.64zm1605.81 1597.92l143.73 -128.75 271.99 133.16 -103.14 -284.43 142.56 -127.71 160.83 506.36 233.12 260.23 -129.71 116.2 -233.12 -260.23 -486.26 -214.82zm1163.84 -107.6l-146.65 131.38 70.66 121.2 -132.04 118.28 -398.62 -762.39 141.39 -126.66 712.95 480.81 -135.55 121.43 -112.14 -84.05zm-147.9 -109.85l-245.28 -182.1 153.55 264.27 91.73 -82.17zm-121.05 -584.2l170.6 -152.84 403.65 320.1 -273.36 -436.82 169.44 -151.79 556.37 621.08 -105.75 94.74 -424.28 -473.61 342.48 546.89 -95.82 85.83 -505.48 -400.86 424.28 473.61 -105.75 94.74 -556.38 -621.08zm1275.05 -207.23l-146.65 131.37 70.66 121.2 -132.04 118.29 -398.63 -762.4 141.39 -126.66 712.96 480.81 -135.55 121.43 -112.14 -84.04zm-147.91 -109.85l-245.28 -182.1 153.55 264.28 91.73 -82.18zm-119.3 -585.78l129.12 -115.67 194.26 216.86 141.39 -126.66 -194.27 -216.86 129.71 -116.2 556.37 621.08 -129.71 116.19 -225.35 -251.55 -141.39 126.66 225.35 251.55 -129.12 115.67 -556.37 -621.08zm1208.44 -147.55l-146.65 131.37 70.66 121.2 -132.04 118.29 -398.62 -762.4 141.39 -126.66 712.96 480.81 -135.55 121.43 -112.14 -84.04zm-147.91 -109.85l-245.28 -182.1 153.55 264.28 91.73 -82.18zm-4973.94 2995.97l1605.79 -2812.8c9.48,-16.61 -14.58,-32 -25.62,-16.51l-2747.94 3853.08 1167.77 -1023.78z"/>
    <polygon class="fil1" points="13021.48,2775.65 13149.6,2771.36 13155.35,2806.4 13227.38,2770.14 13814.63,2758.28 13591.8,2884.37 13718.4,2880.6 13688.52,2918.39 13425.98,2924.72 13454.11,2890.9 13644.51,2795.02 13471.03,2800.55 13348.67,2924.52 13235.67,2928.2 13361.29,2800.32 13274.77,2802.66 13168.73,2852.08 13183.56,2929.19 13074.39,2931.86 13068.46,2899.7 12999.87,2935.21 12881.78,2935.84 13060.42,2853.05 13053.92,2799.85 12999.86,2783.5 "/>
    <path class="fil0" d="M13202.4 3010.24l-210.4 377.08 211.52 -0.16 92.17 -54.87 45.8 -80.79 -95.22 0 -32.17 56.73 -82.76 0 151.17 -270.93 84.02 0 -51.19 91.75 95.22 0 95.23 -170.68 -215.81 0 -87.58 51.87zm2061.43 221.91l-20.59 154.97 95.22 0 20.59 -154.97c18.47,0 36.52,-0.19 54.88,-0.19l129.19 -237.36 110.04 -36.23 -291.91 0 -101.41 59.51 -206.13 369.43 95.22 0 86.58 -155.17 28.32 0zm80.4 -194.85l80.43 0 -63.12 115.97 -82.02 0 64.7 -115.97zm-444.78 -78.93l-74.64 133.77 -95.22 0 30.61 -54.85 -63.48 0 -32.51 58.26 106.19 114.24 -109.03 177.32 -260.75 0 76.89 -135.62 95.22 0 -32.17 56.73 70.11 0 36.16 -63.63 -91.61 -115.55 90.3 -170.68c84.67,0 169.22,0 253.92,0zm75.85 172.1l134.88 0 -50.97 78.89 -127.92 0 -55.17 98.87 149.39 0 -50.97 78.89c-79.36,0 -158.45,0.2 -237.77,0.2l239.34 -428.95c78.86,0 157.61,0.04 236.5,0.04l-48.62 78.89 -136.7 0 -51.99 93.17zm-419.61 -172.1l-74.64 133.77 -95.22 0 30.6 -54.85 -63.48 0 -32.51 58.26 106.19 114.24 -109.03 177.32 -260.75 0 76.89 -135.62 95.22 0 -32.17 56.73 70.11 0 36.16 -63.63 -91.61 -115.55 90.31 -170.68c84.65,0.03 169.27,0 253.92,0zm-339.46 0l-239.34 428.95c-92.56,0 -184.58,0 -277.29,0l239.34 -428.95c92.46,0 184.81,0 277.29,0zm-139.25 78.93l-86.86 0 -151.17 270.93 86.85 0 151.17 -270.93zm-523.86 194.85l-20.59 154.97 95.21 0 20.59 -154.97c18.47,0 36.51,-0.19 54.89,-0.19l148.9 -273.59 -201.59 0 -101.41 59.51 -206.13 369.43 95.22 0 86.58 -155.17 28.32 0zm80.4 -194.85l80.44 0 -63.12 115.97 -82.02 0 64.7 -115.97z"/>
    <path class="fil2" d="M1330.87 5276.04l5127.08 6.25c22.24,0.03 23.96,33.58 0.12,35.58l-5136.71 431.17 9.5 -473zm10414.23 -1794.96l164.85 -299.78 -209.83 -126.98 105.88 64.98 -190.13 367.06 129.23 -5.3zm-2763.77 -558.91l-132.36 -41.03 -136.59 238.53 -322.82 -175.87 211.06 114.81 178.1 -314.01 298.42 14.7 -95.82 162.88zm-829.02 -640.41l133.42 26.49 -248.93 459.78 -382.69 -223.18 250.97 144.36 247.24 -407.46zm995.08 754.77l-80.96 152.05 501.47 38.71 489.4 -811.87 -164.6 -12.8 -382.93 669.24 -362.37 -35.33zm1275.81 219.22l193.73 -328.92 675.05 13.35 60.65 -99.11 168.89 103.65 -252.78 -158.58 -737.71 -7.7 -269.71 477.02 161.88 0.29zm-470.37 480.73l-2.99 62.57 161.5 79 567.37 21.1 300.96 -470.44 -118.62 -10.55 -229.15 365.6 -679.06 -47.28zm1329.49 463.56l-121.22 194.92 -109.17 -40.07 200.64 -339.5 86.73 -7.53 -56.98 192.17zm1097.17 -687.4l67.29 45.31 -241.85 534.88 -256.72 22.54 -158.35 643.54 -86.56 -37.52 192.89 -726.5 270.6 -19.24 212.7 -463.02zm-1753.04 1400.21l-96.72 -47.13 -70.95 151.12 -400.93 -24.77 -45.21 94.67 521.11 29.63 92.7 -203.53zm-6075.74 -1392.1l-372.97 662.41 192.82 9.37 361.4 -664.37 -181.25 -7.41zm1002.82 41.01l-627.17 1121.1 -1316.22 -88.16 -62.16 124.53 1489.64 84.69 677.4 -1235.55 -161.49 -6.6zm-3476.77 235.23l129.64 32.61 -194.79 410.98 -666.96 353.4 15.92 -139.17 551.69 -309.81 164.49 -348zm1659.65 -309.73l64.57 2.83 -103.46 189.75 -272.63 -16.28 -174.54 911.92 -362.84 -26.36 -12.18 131.86 480.35 27.31 156.46 -890.71 293.19 2.79 174.96 -322.95 95.06 3.89 -338.93 -14.05zm-0.54 -828.6l-219.03 -11.55 -272.12 507.62 -166.86 -9.13 356.61 -670.7 391.99 17.38 -90.58 166.38zm-1602.67 354.23l468.23 31.12 569.91 -1094.58 -126.24 -3.79 -505.23 961.54 -335.72 -31.92 -70.95 137.64zm-413.85 60.38l284.84 -544.11 204.33 6.9 72.4 -141.3 -356.94 -16.63 -320.96 683.06 116.32 12.09zm2886.57 -1064.95l173.32 9.89 -701.9 1300.07 -172.87 -17.97 701.46 -1292zm818.14 725.8l-247.77 -22.78 -371.29 682.56 -172.75 -17.95 439.09 -779.86 414.47 25.74 -61.74 112.31zm332.4 758.63l438.51 -798.47 -120.92 -63.71 -472.89 846.03 155.3 16.14zm1354.98 231l94.03 141.27 -568.92 1029.79 -1393.67 -79.23 55.63 -120.24 1239.6 79.29 573.34 -1050.89zm-1076.98 368.83l187.42 17.69 -104.96 162.35 -175.28 -9.58 92.83 -170.46zm-3144.52 -214.3l-430.94 779.04 -493.39 -28.05 76.63 -133.18 323.83 18.26 470.52 -884.35 104.01 10.1 -50.66 238.18zm4779.33 330.41l182.56 32.02 -75.6 141.49 -192.51 -17.65 85.55 -155.87zm1042.96 -255.1l143.64 75.36 -542.07 961.22 -1421.66 -80.82 59.1 -109.19 1248.81 77.14 512.18 -923.71zm611.51 414.99l118.84 75.47 -184.69 21.01 65.85 -96.47zm637.08 209.18l89.41 43.72 -242.58 453.62 -1227.07 -69.76 68.41 -100.29 1090.15 67.34 221.66 -394.62zm-8882.92 -3593.53l353.8 15.01 2.94 125.78 211.3 -111.74 1306.77 77.9 186.06 94.07 -532.93 319.65 349.37 16.5 -96 127.11 -724 -39.47 89.72 -113.44 558.54 -295.53 -478.88 -21.32 -381.82 411.31 -312 -13.59 392.21 -424.43 -238.69 -12.12 -309.62 150.46 12.48 277.31 -301.08 -16.28 -4.49 -115.62 -200.42 109.31 -63.02 -152.03 258.45 -124.79 1.64 -190.46 -142.59 -70.81 62.28 -22.76z"/>
    <path class="fil2" d="M27401.3 5276.04l-5127.09 6.25c-22.24,0.03 -23.96,33.58 -0.11,35.58l5136.71 431.17 -9.51 -473zm-7304.43 -2231.93l307.81 -183.42 60 -118.61 247.15 -37.76 69.97 -199.38 -504.54 70.64 -180.4 468.52zm-2657.76 1243.93l116.51 0.61 -56.66 220.81 -128.87 73.49 69.03 -294.92zm-717.26 139.59l372.39 -1420.79 -151.98 101.22 -327.46 1315.07 107.05 4.49zm621.51 -1031.41l-36.83 131.59 455.67 -13.37 307.68 -1099.59 -150.65 97.38 -255.14 874.39 -320.73 9.6zm1268.95 -421.66l-149.52 495.04 -211.43 8.58 177.59 -669.41 453.33 -41.33 -58.69 189.33 -211.28 17.79zm-323.8 1072.08l-7.75 25.64 -208.9 108.69 78.93 -290.71 137.2 -16.05 0.52 172.42zm1262.34 -1684.19l164.94 -21.45 -370.07 1147.78 -169.81 62.61 374.93 -1188.94zm1879.96 -61.34l206.68 -128.84 53.54 -166.16 -161.74 6.48 -98.48 288.52zm3948.73 2307.24l-47.17 102.46c168.47,-11.26 333.95,-16.37 502.43,-28.56l418.41 -878.45 30.98 -184.95 -104.03 -2.03 -454.78 970.16 -345.83 21.36zm-7106.63 439.02l5.17 64.48 532.54 -30.28 -8.4 -66.91 -50.21 3.1 40.65 -90.24 -3.73 -341.16 -79.92 40.32 15.19 392.81 -451.3 27.88zm1617.41 -990.84l-306.9 162.9 -94.86 190.25 226.66 -7.92 175.11 -345.23zm-939.9 948.99l-8.94 68.62c489.32,-8.13 964.12,-70.47 1453.49,-82.63l794.68 -1630.15 -299.16 176.45 -681.84 1389.98 -1258.24 77.73zm2415.69 -845.65l167.43 -9.82 -71.75 160.83 -169.99 7.01 74.31 -158.03zm1054.21 -476.13l118.92 111.88 -559.93 1105.82 -1457.91 82.88 64.67 -79.85 1297.24 -80.14 536.99 -1140.6zm1741.87 58.63l-112.67 -126.55 -521.13 1106.9 -1268.57 78.37 -31.09 86.18 1422.14 -80.85 511.32 -1064.04zm-1077.32 505.73l66.69 -166.74 -155.97 9.99 -76.92 163.6 166.2 -6.85zm-758.49 -1021.16l70.46 -161.31 328.51 -24.77 273.27 -599.96 229.84 -116.18 -430.18 859.16 -471.89 43.06zm25.06 -383.74l-156.05 76.19 112.02 18.59 44.03 -94.78zm-358.93 322.12l140.96 -288.22 -294.67 128.18 153.71 160.04zm1638.07 -77.49l202.09 -412.44 156.86 -17.04 72.27 -145.04 -332.54 20.36 -204.86 427.2 106.18 126.96zm434.33 -164.45l461.94 -32.15 441.79 -922.89 -174.96 6.03 -364.98 790.56 -319.57 15.65 -44.22 142.8zm-94.96 1772.06l-48.09 95.57 1198.72 -68.15 247.44 -513.18 -156.15 -4.26 -187.95 424.91 -1053.97 65.11zm775.16 -599.4l200.74 -401.38 681.59 -55.82 16.53 -38.47 -830.72 30.15 -217.23 476.23 149.1 -10.71zm1029.43 -845.14l79.2 -184.26 -170.58 13.54 -77.91 179.89 169.28 -9.17zm-502.13 -297.46l195.23 -404.38 670.02 -42.68 227.73 -534.02 -152.78 7.84 -148.05 385.74 -697.8 49.53 -243.99 546.14 149.63 -8.17zm1316.11 146.38l247.68 -520 181.68 -15.8 66.63 -144.08 -341.48 25.3 -303.74 663.62 149.23 -9.03zm-270.55 1450.57l-2.17 104.52 486.57 -27.66 96.52 -937.25 404.32 -35.47 -0.57 -202.38 -238.33 9.28 -21.43 85.58 -261.49 22.26 -146.27 961.53 -317.15 19.59zm-626.69 -3455.85l354.51 -15.55 15.9 127.03 199.3 -131.44 1624.81 -43.01 -616.5 457.09 350.25 -13.67 -82.68 136.97 -726.38 22.97 77.82 -122.58 526.79 -347.59 -479.96 20.04 -338.55 449.39 -312.67 13.35 347.56 -463.58 -239.38 8.48 -293.39 179.16 41.01 279.54 -302.05 9.69 -16.4 -116.61 -189.77 128.76 -326.75 2.25 494.27 -300.09 -18 -192.87 -149.55 -59.27 59.79 -28.45z"/>
   </g>
  </svg>
  