<?xml version="1.0" encoding="UTF-8"?>
<!DOCTYPE svg PUBLIC "-//W3C//DTD SVG 1.1//EN" "http://www.w3.org/Graphics/SVG/1.1/DTD/svg11.dtd">
<!-- Creator: CorelDRAW -->
<svg xmlns="http://www.w3.org/2000/svg" xml:space="preserve" width="227.456mm" height="332.914mm" version="1.1" style="shape-rendering:geometricPrecision; text-rendering:geometricPrecision; image-rendering:optimizeQuality; fill-rule:evenodd; clip-rule:evenodd"
viewBox="0 0 13888.19 20327.38"
 xmlns:xlink="http://www.w3.org/1999/xlink"
 xmlns:xodm="http://www.corel.com/coreldraw/odm/2003">
 <defs>
  <style type="text/css">
   <![CDATA[
    .fil0 {fill:black}
    .fil1 {fill:red}
    .fil2 {fill:#D9D9D9;fill-rule:nonzero}
   ]]>
  </style>
 </defs>
 <g id="Camada_x0020_1">
  <metadata id="CorelCorpID_0Corel-Layer"/>
  <path class="fil0" d="M1258.28 15874.4c3325.04,-109.48 4987.56,-164.22 4987.56,-164.22 -2350.13,2968.9 -3525.2,4453.34 -3525.2,4453.34 -180.12,141.06 -382.59,191.04 -607.41,149.93 -1408.82,-1700.66 -2113.24,-2550.97 -2113.24,-2550.97 101.79,-490.52 152.67,-735.77 152.67,-735.77 752.07,-196.71 1120.61,-580.8 1105.62,-1152.31z"/>
  <path class="fil0" d="M2860.1 11182.7c-81.31,-1484.59 -162.65,-2969.19 -211.32,-4770.07 -48.69,-1800.79 -64.74,-3918.02 -71.77,-4976.28 -7.01,-1058.03 -5.01,-1057.31 -37.27,-1123.6 -32.24,-66.05 -98.74,-199.11 -133.34,-265.64 -34.6,-66.53 -37.29,-66.77 -51.86,318.1 -14.59,384.86 -41.04,1154.36 -78.64,2555.28 -37.61,1400.92 -86.34,3433.17 -101.37,4745.24 -15.02,1312.08 3.7,1904.04 65.08,2290.55 61.4,386.51 165.46,567.59 275.99,737.75 110.52,170.17 227.54,329.43 344.52,488.67z"/>
  <path class="fil0" d="M11004.29 11147.67c129.5,-1481.19 258.98,-2962.35 366.12,-4760.7 107.16,-1798.26 191.96,-3913.83 233.33,-4971.14 41.39,-1057.55 39.36,-1056.83 73.75,-1121.93 34.36,-65.1 105.16,-196.01 141.9,-261.35 36.75,-65.33 39.44,-65.33 41.51,319.77 2.08,385.1 3.53,1155.07 -4.38,2556.47 -7.92,1401.4 -25.18,3434.13 -52.8,4746.01 -27.59,1311.88 -65.52,1902.91 -139.42,2287.23 -73.92,384.32 -183.78,561.92 -299.79,728.41 -116.01,166.46 -238.12,321.84 -360.23,477.22z"/>
  <path class="fil0" d="M12629.9 15874.4c-3325.03,-109.48 -4987.56,-164.22 -4987.56,-164.22 2350.13,2968.9 3525.19,4453.34 3525.19,4453.34 180.12,141.06 382.59,191.04 607.41,149.93 1408.82,-1700.66 2113.24,-2550.97 2113.24,-2550.97 -101.79,-490.52 -152.67,-735.77 -152.67,-735.77 -752.08,-196.71 -1120.61,-580.8 -1105.62,-1152.31z"/>
  <path class="fil1" d="M2822.71 7962.78c40.94,773.26 115.32,2102.55 152.54,2767.17 37.2,664.64 37.2,664.64 480.33,1186.38 443.13,521.77 1329.39,1565.24 1777.97,2091.01 448.57,525.77 459.44,533.83 413.23,279.73 -46.23,-254.1 -149.56,-770.33 -255.65,-1310.98 -106.08,-540.67 -214.92,-1105.76 -269.34,-1388.3 -54.42,-282.54 -54.42,-282.54 -190.66,-614.41 -136.22,-331.88 -408.68,-995.62 -544.9,-1328.26 -136.22,-332.67 -136.19,-334.24 -152.52,-7.2 -16.33,327.01 -49,982.67 -65.35,1310.48 -16.33,327.83 -16.33,327.83 -60.86,211.43 -44.54,-116.39 -133.59,-349.12 -178.11,-465.51 -44.52,-116.39 -44.52,-116.39 -113.72,-603.74 -69.19,-487.33 -207.56,-1462.01 -372.78,-3013.07 -165.21,-1551.05 -357.23,-3678.45 -453.21,-4745.3 -95.98,-1066.85 -95.86,-1073.04 -136.19,-1206.82 -40.3,-133.54 -121.04,-394.4 -162.07,-435.18 -41.04,-41.01 -42.37,138.54 -34.53,720.85 7.87,582.31 24.89,1567.6 44.73,2525.47 19.87,957.87 42.52,1888.11 57.59,2461.9 15.04,573.8 22.56,791.07 63.5,1564.34z"/>
  <path class="fil1" d="M11146.24 7930.66c-66.03,771.52 -183.54,2097.69 -242.32,2760.75 -58.76,663.07 -58.76,663.07 -518.62,1170.17 -459.83,507.07 -1379.5,1521.22 -1844.92,2032.16 -465.42,510.91 -476.55,518.62 -422.09,266.16 54.43,-252.47 174.5,-765.06 298.09,-1302.01 123.56,-536.93 250.71,-1098.18 314.28,-1378.82 63.57,-280.61 63.57,-280.61 210.48,-607.89 146.94,-327.28 440.81,-981.82 587.75,-1309.88 146.96,-328.04 146.98,-329.61 152.68,-2.22 5.7,327.37 17.07,983.72 22.74,1311.91 5.7,328.16 5.7,328.16 53.96,213.3 48.31,-114.86 144.86,-344.59 193.15,-459.48 48.29,-114.86 48.29,-114.86 133.27,-599.71 84.98,-484.85 254.93,-1454.53 470.42,-2999.4 215.49,-1544.85 476.5,-3664.79 607.06,-4728.05 130.57,-1063.27 130.67,-1069.47 175.31,-1201.81 44.61,-132.11 133.79,-390.36 176.12,-429.7 42.35,-39.58 37.87,139.73 11.11,721.56 -26.76,581.83 -75.78,1565.93 -126.74,2522.61 -50.93,956.68 -103.78,1885.87 -137.49,2458.89 -33.69,573.01 -48.24,789.91 -114.27,1561.45z"/>
  <path class="fil1" d="M7485.08 15534.08l-317.43 -285.22c3286.01,0.4 5724.48,-62.57 5724.48,-62.57 -132.79,157.62 -212.65,360.91 -243.99,515.47l-5163.06 -167.67z"/>
  <path class="fil1" d="M6403.41 15534.08l317.13 -285.22c-3282.93,0.4 -5719.13,-62.57 -5719.13,-62.57 132.67,157.62 212.45,360.91 243.76,515.47l5158.23 -167.67z"/>
  <path class="fil2" d="M5364.12 16135l15.52 -28.39c11.03,-20.19 16.64,-33.09 17,-38.99 0.35,-5.9 -3.94,-8.8 -12.83,-8.8 -10.98,0 -19.13,2.5 -24.48,7.5 -5.34,4.99 -13.96,18.4 -25.93,40.29l-15.52 28.39 46.24 0zm119.99 62.98l-200.65 0 -46.06 84.27c-9.62,17.6 -14.15,28.99 -13.67,34.09 0.62,5.1 5.65,7.6 15.19,7.6 11.89,0 21.72,-3.4 29.3,-10.1 7.75,-6.8 16.88,-19.89 27.48,-39.29l28.09 -51.39 146.57 0 -15.73 28.79c-13.17,24.09 -25.24,42.59 -36.2,55.48 -11.09,12.9 -27.92,26.69 -50.45,41.39 -22.53,14.69 -47.08,25.69 -73.47,33.09 -26.32,7.3 -56.3,11 -90,11 -32.67,0 -59.56,-3.6 -80.66,-10.9 -21.01,-7.2 -35.07,-17.09 -42.17,-29.69 -7.09,-12.6 -9.02,-26.49 -6.08,-41.69 2.88,-15.09 12.16,-37.09 28.01,-66.08l62.01 -113.47c18.57,-33.99 39.22,-60.78 62,-80.48 22.74,-19.6 50.58,-34.69 83.57,-45.09 33.16,-10.49 67.36,-15.7 102.89,-15.7 43.37,0 75.73,6.31 97.05,18.9 21.33,12.6 32.07,29.29 32.07,50.09 0.05,20.69 -10.34,49.98 -30.94,87.67l-28.14 51.48zm-282.07 -200.94l-147.45 155.05 -46.96 233.64 -147.74 0 43.9 -169.25 -92.9 169.25 -154.41 0 259.31 -474.46 154.41 0 -108.65 199.54 110.77 -113.76 129.72 0zm-652.09 203.84c-32.54,13.9 -53.38,25.49 -62.44,34.89 -9.18,9.4 -18.46,22.79 -28.08,40.38 -11.03,20.2 -16.38,33.09 -16.08,38.99 0.18,5.9 5.51,8.8 15.83,8.8 9.8,0 17.32,-2.3 22.85,-6.9 5.52,-4.6 13.51,-16.59 24.22,-36.19l43.71 -79.97zm-20.27 -53.29l-144.99 0 14.26 -26.09c16.45,-30.1 33.69,-53.29 51.67,-69.68 17.91,-16.3 44.07,-30.69 78.21,-43.19 34.13,-12.49 72.97,-18.8 116.74,-18.8 52.25,0 87.82,7.1 106.58,21.3 18.82,14.09 25.24,31.49 19.34,52.08 -5.9,20.6 -26.38,63.09 -61.51,127.37l-106.65 195.14 -150.48 0 18.95 -34.69c-17.06,13.99 -35.01,24.39 -53.73,31.39 -18.71,7 -38.39,10.5 -59.16,10.5 -27.04,0 -48.69,-5.79 -64.95,-17.4 -16.22,-11.7 -13.57,-37.09 7.91,-76.38l17.48 -31.99c15.9,-29.09 32.73,-48.88 50.53,-59.48 17.82,-10.6 54.32,-22.9 109.52,-36.89 59.18,-15.3 91.92,-25.49 98.48,-30.8 6.42,-5.29 14.09,-15.99 23,-32.29 11.09,-20.3 16.34,-33.49 15.67,-39.69 -0.58,-6.09 -5.56,-9.2 -14.83,-9.2 -10.58,0 -18.53,2.6 -23.85,7.8 -5.4,5.1 -14.09,18.59 -25.95,40.29l-22.24 40.68zm-182.51 -150.55l-33.46 51.18c42.7,-36.79 85.97,-56.18 129.88,-58.38l-74.75 136.77c-28.34,0 -50.83,2.9 -67.38,8.8 -16.54,5.9 -29.07,13.99 -37.94,24.49 -8.68,10.39 -23.42,34.49 -44.07,72.28l-83.92 153.55 -154.42 0 212.43 -388.68 153.63 0zm-515.64 174.55l-72.77 133.16c22.52,-0.6 38.24,-3.3 47.06,-8.19 8.82,-4.9 18.43,-17 28.92,-36.19l24.26 -44.39c11.14,-20.39 15.11,-32.69 12.03,-37.09 -3.14,-4.3 -16.33,-6.7 -39.51,-7.3zm98.02 -179.35l-57.69 105.57c6.91,-0.21 12.18,-0.31 15.97,-0.31 15.41,0 26.98,-3 34.38,-8.9 7.6,-6 19.03,-23.09 34.37,-51.18 8.15,-14.9 12.13,-25.3 11.88,-31.29 -0.3,-5.9 -2.8,-9.7 -7.54,-11.3 -4.81,-1.5 -15.27,-2.4 -31.37,-2.6zm-117.21 -80.98l160.41 0c50.7,0 87.45,3 110.25,9.1 22.84,6 37.16,18.29 43.17,36.69 5.96,18.49 -2.29,48.18 -24.69,89.17 -15.14,27.69 -31.3,46.98 -48.62,57.88 -17.38,11 -44.38,19.29 -81.04,25.19 33.8,6.5 53.3,17.19 58.48,32.09 5.14,14.99 -0.72,37.89 -17.65,68.87l-24.04 43.99c-17.54,32.09 -35.32,55.78 -53.33,71.27 -17.95,15.4 -38.89,25.99 -62.91,31.7 -24.01,5.69 -68.4,8.49 -133.19,8.49l-186.15 0 259.31 -474.46zm-245.44 85.78l-212.43 388.68 -159.11 0 212.42 -388.68 159.12 0zm46.87 -85.78l-33.77 61.79 -159.11 0 33.77 -61.79 159.11 0zm-471.27 196.15c10.98,-20.09 16.45,-33.19 16.43,-39.39 0.07,-6.09 -4.9,-9.2 -14.7,-9.2 -9.67,0 -17.28,2.7 -23.11,8.1 -5.77,5.3 -14.64,18.9 -26.43,40.49l-91.63 167.65c-11.42,20.89 -17.17,34.29 -17.07,40.09 0.04,5.9 4.85,8.8 14.53,8.8 9.79,0 17.84,-3 24.17,-9.1 6.28,-6 15.7,-20.6 28.26,-43.58l89.55 -163.86zm59.39 -196.15l-61.47 112.47c19.03,-11.39 37.91,-19.89 56.78,-25.49 18.73,-5.6 37.37,-8.4 55.8,-8.4 21.16,0 38.22,2.5 51.11,7.6 12.76,5.1 20.77,12.19 23.97,21.4 3.21,9.2 3.13,18.19 0.01,26.99 -3.11,8.8 -12.6,27.59 -28.28,56.28l-95.83 175.35c-15.58,28.49 -29.7,49.78 -42.25,63.68 -12.75,13.99 -30.98,26.09 -55.03,36.39 -24.17,10.29 -48.77,15.39 -74.12,15.39 -18.15,0 -33.44,-3.1 -45.92,-9.2 -12.35,-6.1 -21.87,-15.2 -28.27,-27.39l-25.99 29.39 -144.22 0 259.31 -474.46 154.42 0zm-652.75 85.78l-22.57 36.98c20.05,-14.69 40.35,-25.79 60.92,-33.09 20.51,-7.4 41.48,-11.1 62.64,-11.1 41.28,0 65.64,14.7 73.3,44.19 20.96,-14.69 41.67,-25.79 61.98,-33.09 20.37,-7.4 40.42,-11.1 60.41,-11.1 26.13,0 45.26,4.9 57.02,14.7 11.95,9.7 16.36,21.69 13.44,35.89 -2.86,14.09 -12.95,37.08 -30.38,68.98l-151.01 276.32 -149.71 0 138.51 -253.43c18.14,-33.19 27.9,-53.68 29.22,-61.58 1.45,-7.9 -3.16,-11.9 -14.01,-11.9 -10.97,0 -20.16,3.9 -27.56,11.69 -7.52,7.8 -20.35,28.4 -38.6,61.79l-138.51 253.43 -149.7 0 134.95 -246.93c20.81,-38.09 32.15,-60.98 33.82,-68.58 1.8,-7.59 -2.92,-11.39 -13.89,-11.39 -6.91,0 -13.77,2 -20.91,6 -7.02,3.99 -12.31,8.9 -16,14.69 -3.63,5.7 -10.61,17.99 -20.83,36.69l-147.3 269.52 -149.7 0 212.43 -388.68 152.06 0zm-416.9 107.16c10.87,-19.89 16.32,-32.49 16.38,-37.59 -0.04,-5.2 -4.63,-7.8 -13.9,-7.8 -9.27,0 -16.83,2.6 -22.81,7.8 -5.79,5.1 -14.25,17.69 -25.11,37.59l-95.89 175.45c-10.06,18.39 -15.04,30.39 -15.04,35.89 0.07,5.59 4.55,8.4 13.57,8.4 9.27,0 16.65,-2.5 22.44,-7.6 5.79,-5.1 13.18,-16 22.36,-32.79l98.02 -179.35zm138.4 29.3l-52.06 95.26c-19.12,34.99 -35.46,60.59 -49,76.98 -13.48,16.3 -31.58,31.49 -54.35,45.68 -22.79,14.2 -47.8,24.59 -75.16,31.39 -27.3,6.7 -56.2,10.1 -86.77,10.1 -34.23,0 -61.64,-2.9 -82.17,-8.6 -20.6,-5.8 -34.27,-14.5 -40.99,-26.09 -6.8,-11.7 -8.51,-25.8 -5.1,-42.29 3.39,-16.49 14.21,-41.29 32.23,-74.28l54.48 -99.67c19.78,-36.19 40.27,-64.38 61.61,-84.77 21.28,-20.3 48.61,-36.59 81.84,-48.88 33.24,-12.3 70.59,-18.5 111.87,-18.5 34.62,0 62.21,4 82.84,11.9 20.5,7.89 34.08,18.2 40.73,30.89 6.51,12.69 8.63,25.79 6.22,39.29 -2.41,13.49 -11.13,33.99 -26.21,61.58zm-394.25 -15.3l-161.46 0 45.02 -82.38c13.12,-24 19.56,-38.89 19.45,-44.88 -0.19,-5.9 -6.11,-8.9 -17.74,-8.9 -13.07,0 -23.4,3.6 -30.85,10.79 -7.52,7.3 -17.87,22.9 -30.98,46.89l-120.31 220.13c-12.62,23.1 -18.99,38.09 -19.34,45.19 -0.3,7 5.76,10.5 18.04,10.5 11.88,0 21.63,-3.5 29.17,-10.6 7.47,-7 18.37,-23.59 32.64,-49.68l32.62 -59.69 161.46 0 -10.11 18.49c-26.88,49.19 -50.52,84.07 -70.74,104.57 -20.27,20.6 -50.21,38.59 -89.65,54.08 -39.56,15.5 -81.92,23.2 -127.37,23.2 -47.16,0 -82.54,-6.5 -106.08,-19.59 -23.41,-13.1 -33.91,-31.19 -31.15,-54.39 2.75,-23.19 16.79,-57.98 42.2,-104.47l75.73 -138.55c18.68,-34.19 34.24,-59.78 46.59,-76.87 12.47,-17.1 30.5,-33.59 54.42,-49.39 23.78,-15.8 51.64,-28.29 83.53,-37.39 31.87,-9.1 65.3,-13.59 100.3,-13.59 47.43,0 82.79,7 106.05,21.1 23.18,13.99 33.86,31.49 32.18,52.48 -1.8,21 -14.78,53.59 -38.99,97.87l-24.64 45.09z"/>
  <path class="fil2" d="M12302.4 16143.36l15.52 -28.39c11.03,-20.19 16.64,-33.09 17,-38.99 0.35,-5.9 -3.94,-8.8 -12.83,-8.8 -10.98,0 -19.13,2.5 -24.48,7.5 -5.34,4.99 -13.96,18.4 -25.93,40.29l-15.52 28.39 46.24 0zm119.99 62.98l-200.65 0 -46.06 84.27c-9.62,17.6 -14.15,28.99 -13.67,34.09 0.62,5.1 5.65,7.6 15.19,7.6 11.89,0 21.72,-3.4 29.3,-10.1 7.75,-6.8 16.88,-19.89 27.48,-39.29l28.09 -51.39 146.57 0 -15.73 28.79c-13.17,24.09 -25.24,42.59 -36.2,55.48 -11.09,12.9 -27.92,26.69 -50.45,41.39 -22.53,14.69 -47.08,25.69 -73.47,33.09 -26.32,7.3 -56.3,11 -90,11 -32.67,0 -59.56,-3.6 -80.66,-10.9 -21.01,-7.2 -35.07,-17.09 -42.17,-29.69 -7.09,-12.6 -9.02,-26.49 -6.08,-41.69 2.88,-15.09 12.16,-37.09 28.01,-66.08l62.01 -113.47c18.57,-33.99 39.22,-60.78 62,-80.48 22.74,-19.6 50.58,-34.69 83.57,-45.09 33.16,-10.49 67.36,-15.7 102.89,-15.7 43.37,0 75.73,6.31 97.05,18.9 21.33,12.6 32.07,29.29 32.07,50.09 0.05,20.69 -10.34,49.98 -30.94,87.67l-28.14 51.48zm-282.07 -200.94l-147.45 155.05 -46.96 233.64 -147.74 0 43.9 -169.25 -92.9 169.25 -154.41 0 259.31 -474.46 154.41 0 -108.65 199.54 110.77 -113.76 129.72 0zm-652.09 203.84c-32.54,13.9 -53.38,25.49 -62.44,34.89 -9.18,9.4 -18.46,22.79 -28.08,40.38 -11.03,20.2 -16.38,33.09 -16.08,38.99 0.18,5.9 5.51,8.8 15.83,8.8 9.8,0 17.32,-2.3 22.85,-6.9 5.52,-4.6 13.51,-16.59 24.22,-36.19l43.71 -79.97zm-20.27 -53.29l-144.99 0 14.26 -26.09c16.45,-30.1 33.69,-53.29 51.67,-69.68 17.91,-16.3 44.07,-30.69 78.21,-43.19 34.13,-12.49 72.97,-18.8 116.74,-18.8 52.25,0 87.82,7.1 106.58,21.3 18.82,14.09 25.24,31.49 19.34,52.08 -5.9,20.6 -26.38,63.09 -61.51,127.37l-106.65 195.14 -150.48 0 18.95 -34.69c-17.06,13.99 -35.01,24.39 -53.73,31.39 -18.71,7 -38.39,10.5 -59.16,10.5 -27.04,0 -48.69,-5.79 -64.95,-17.4 -16.22,-11.7 -13.57,-37.09 7.91,-76.38l17.48 -31.99c15.9,-29.09 32.73,-48.88 50.53,-59.48 17.82,-10.6 54.32,-22.9 109.52,-36.89 59.18,-15.3 91.92,-25.49 98.48,-30.8 6.42,-5.29 14.09,-15.99 23,-32.29 11.09,-20.3 16.34,-33.49 15.67,-39.69 -0.58,-6.09 -5.56,-9.2 -14.83,-9.2 -10.58,0 -18.53,2.6 -23.85,7.8 -5.4,5.1 -14.09,18.59 -25.95,40.29l-22.24 40.68zm-182.51 -150.55l-33.46 51.18c42.7,-36.79 85.97,-56.18 129.88,-58.38l-74.75 136.77c-28.34,0 -50.83,2.9 -67.38,8.8 -16.54,5.9 -29.07,13.99 -37.94,24.49 -8.68,10.39 -23.42,34.49 -44.07,72.28l-83.91 153.55 -154.42 0 212.42 -388.68 153.63 0zm-515.64 174.55l-72.77 133.16c22.52,-0.6 38.24,-3.3 47.06,-8.19 8.82,-4.9 18.43,-17 28.92,-36.19l24.26 -44.39c11.14,-20.39 15.11,-32.69 12.03,-37.09 -3.14,-4.3 -16.33,-6.7 -39.51,-7.3zm98.02 -179.35l-57.69 105.57c6.91,-0.21 12.18,-0.31 15.97,-0.31 15.41,0 26.98,-3 34.38,-8.9 7.6,-6 19.03,-23.09 34.37,-51.18 8.15,-14.9 12.13,-25.3 11.88,-31.29 -0.3,-5.9 -2.8,-9.7 -7.54,-11.3 -4.81,-1.5 -15.27,-2.4 -31.37,-2.6zm-117.21 -80.98l160.41 0c50.7,0 87.45,3 110.25,9.1 22.84,6 37.16,18.29 43.17,36.69 5.96,18.49 -2.29,48.18 -24.69,89.17 -15.14,27.69 -31.3,46.98 -48.62,57.88 -17.38,11 -44.38,19.29 -81.04,25.19 33.8,6.5 53.3,17.19 58.48,32.09 5.14,14.99 -0.72,37.89 -17.65,68.87l-24.04 43.99c-17.54,32.09 -35.32,55.78 -53.33,71.27 -17.95,15.4 -38.89,25.99 -62.91,31.7 -24.01,5.69 -68.4,8.49 -133.19,8.49l-186.15 0 259.31 -474.46zm-245.44 85.78l-212.43 388.68 -159.11 0 212.42 -388.68 159.12 0zm46.87 -85.78l-33.77 61.79 -159.11 0 33.77 -61.79 159.11 0zm-471.27 196.15c10.98,-20.09 16.45,-33.19 16.43,-39.39 0.07,-6.09 -4.9,-9.2 -14.7,-9.2 -9.67,0 -17.28,2.7 -23.11,8.1 -5.77,5.3 -14.64,18.9 -26.43,40.49l-91.63 167.65c-11.42,20.89 -17.17,34.29 -17.07,40.09 0.04,5.9 4.85,8.8 14.53,8.8 9.79,0 17.84,-3 24.17,-9.1 6.28,-6 15.7,-20.6 28.26,-43.58l89.55 -163.86zm59.39 -196.15l-61.47 112.47c19.03,-11.39 37.91,-19.89 56.78,-25.49 18.73,-5.6 37.37,-8.4 55.8,-8.4 21.16,0 38.22,2.5 51.11,7.6 12.76,5.1 20.77,12.19 23.97,21.4 3.21,9.2 3.13,18.19 0.01,26.99 -3.11,8.8 -12.6,27.59 -28.28,56.28l-95.83 175.35c-15.58,28.49 -29.7,49.78 -42.25,63.68 -12.75,13.99 -30.98,26.09 -55.03,36.39 -24.17,10.29 -48.77,15.39 -74.12,15.39 -18.15,0 -33.44,-3.1 -45.92,-9.2 -12.35,-6.1 -21.87,-15.2 -28.27,-27.39l-25.99 29.39 -144.22 0 259.31 -474.46 154.42 0zm-652.75 85.78l-22.57 36.98c20.05,-14.69 40.35,-25.79 60.92,-33.09 20.51,-7.4 41.48,-11.1 62.64,-11.1 41.28,0 65.64,14.7 73.3,44.19 20.96,-14.69 41.67,-25.79 61.98,-33.09 20.37,-7.4 40.42,-11.1 60.41,-11.1 26.13,0 45.26,4.9 57.02,14.7 11.95,9.7 16.36,21.69 13.44,35.89 -2.86,14.09 -12.95,37.08 -30.38,68.98l-151.01 276.32 -149.71 0 138.51 -253.43c18.14,-33.19 27.9,-53.68 29.22,-61.58 1.45,-7.9 -3.16,-11.9 -14.01,-11.9 -10.97,0 -20.16,3.9 -27.56,11.69 -7.52,7.8 -20.35,28.4 -38.6,61.79l-138.51 253.43 -149.7 0 134.95 -246.93c20.81,-38.09 32.15,-60.98 33.82,-68.58 1.8,-7.59 -2.92,-11.39 -13.89,-11.39 -6.91,0 -13.77,2 -20.91,6 -7.02,3.99 -12.31,8.9 -16,14.69 -3.63,5.7 -10.61,17.99 -20.83,36.69l-147.3 269.52 -149.7 0 212.43 -388.68 152.06 0zm-416.9 107.16c10.87,-19.89 16.32,-32.49 16.38,-37.59 -0.04,-5.2 -4.63,-7.8 -13.9,-7.8 -9.27,0 -16.83,2.6 -22.81,7.8 -5.79,5.1 -14.25,17.69 -25.11,37.59l-95.89 175.45c-10.06,18.39 -15.04,30.39 -15.04,35.89 0.07,5.59 4.55,8.4 13.57,8.4 9.27,0 16.65,-2.5 22.44,-7.6 5.79,-5.1 13.18,-16 22.36,-32.79l98.02 -179.35zm138.4 29.3l-52.06 95.26c-19.12,34.99 -35.46,60.59 -49,76.98 -13.48,16.3 -31.58,31.49 -54.35,45.68 -22.79,14.2 -47.8,24.59 -75.16,31.39 -27.3,6.7 -56.2,10.1 -86.77,10.1 -34.23,0 -61.64,-2.9 -82.17,-8.6 -20.6,-5.8 -34.27,-14.5 -40.99,-26.09 -6.8,-11.7 -8.51,-25.8 -5.1,-42.29 3.39,-16.49 14.21,-41.29 32.23,-74.28l54.48 -99.67c19.78,-36.19 40.27,-64.38 61.61,-84.77 21.28,-20.3 48.61,-36.59 81.84,-48.88 33.24,-12.3 70.59,-18.5 111.87,-18.5 34.62,0 62.21,4 82.84,11.9 20.5,7.89 34.08,18.2 40.73,30.89 6.51,12.69 8.63,25.79 6.22,39.29 -2.41,13.49 -11.13,33.99 -26.21,61.58zm-394.25 -15.3l-161.46 0 45.02 -82.38c13.12,-24 19.56,-38.89 19.45,-44.88 -0.19,-5.9 -6.11,-8.9 -17.74,-8.9 -13.07,0 -23.4,3.6 -30.85,10.79 -7.52,7.3 -17.87,22.9 -30.98,46.89l-120.31 220.13c-12.62,23.1 -18.99,38.09 -19.34,45.19 -0.3,7 5.76,10.5 18.04,10.5 11.88,0 21.63,-3.5 29.17,-10.6 7.47,-7 18.37,-23.59 32.64,-49.68l32.62 -59.69 161.46 0 -10.11 18.49c-26.88,49.19 -50.52,84.07 -70.74,104.57 -20.27,20.6 -50.21,38.59 -89.65,54.08 -39.56,15.5 -81.92,23.2 -127.37,23.2 -47.16,0 -82.54,-6.5 -106.08,-19.59 -23.41,-13.1 -33.91,-31.19 -31.15,-54.39 2.75,-23.19 16.79,-57.98 42.2,-104.47l75.73 -138.55c18.68,-34.19 34.24,-59.78 46.59,-76.87 12.47,-17.1 30.5,-33.59 54.42,-49.39 23.78,-15.8 51.64,-28.29 83.53,-37.39 31.87,-9.1 65.3,-13.59 100.3,-13.59 47.43,0 82.79,7 106.05,21.1 23.18,13.99 33.86,31.49 32.18,52.48 -1.8,21 -14.78,53.59 -38.99,97.87l-24.64 45.09z"/>
 </g>
</svg>
