<?xml version="1.0" encoding="UTF-8"?>
    <!DOCTYPE svg PUBLIC "-//W3C//DTD SVG 1.1//EN" "http://www.w3.org/Graphics/SVG/1.1/DTD/svg11.dtd">
    <!-- Creator: CorelDRAW -->
    <svg xmlns="http://www.w3.org/2000/svg" xml:space="preserve" width="521.396mm" height="413.4mm" version="1.1" style="shape-rendering:geometricPrecision; text-rendering:geometricPrecision; image-rendering:optimizeQuality; fill-rule:evenodd; clip-rule:evenodd"
    viewBox="0 0 52125.34 41328.67"
    xmlns:xlink="http://www.w3.org/1999/xlink"
    xmlns:xodm="http://www.corel.com/coreldraw/odm/2003">
    <defs>
      <style type="text/css">
      <![CDATA[
        .fil1 {fill:#000000}
        .fil0 {fill:#ff0000}
        .fil2 {fill:#d9d9d9}
      ]]>
      </style>
    </defs>
    <g id="Camada_x0020_1">
      <metadata id="CorelCorpID_0Corel-Layer"/>
      <g id="_2908553761568">
      <path class="fil0" d="M2226.42 881.8l8.11 52.65 6160.99 1354.19 -8312.37 1900.59c32.37,112.12 134.44,306.6 271.28,303.83l8216.75 -165.3c535.67,-10.78 1530.61,-312.97 2022.83,-439.64 319.98,-82.32 1780.75,-432.24 2025.4,-437.15 745.19,-15 2016.44,631.21 2839.76,606.52 1170.39,-35.11 2302.22,39.98 3402.62,20.63 2253.17,-39.56 4496.02,40.5 6860.22,-37.89l-7164.58 -1990.13 -1.77 -88.33c548.41,-11.05 2858.33,-620.4 3508.81,-788.43 692.54,-178.89 3265.54,-54.85 4163.63,-72.92 2789.63,-56.11 5714.13,-153.81 8308.67,9.6 -156.11,113.16 -2188.24,574.25 -2551.55,581.56l-5124.44 103.1c-558.54,11.24 -1098.65,21.71 -1593.83,-9.48 -694.44,-43.73 -1045.81,35.05 -1540.9,160.92l1.78 88.33c384.45,-7.73 2572,565.43 3058.3,694.7 996.55,264.94 2068.05,453.87 3103.66,692.56 924.61,213.12 2108.76,585.98 3023.11,731.32 505.39,80.34 978.2,280.66 1514.44,362.65 2840.42,434.29 5767.26,512.33 8626.82,805.74 1134.45,116.42 2301.66,211.7 3453.94,327.99 970.99,97.99 2502.22,339.11 3470.67,284.15l-12459.09 -3111.37 8264.26 -2822.19c-2691.2,54.17 -5570.2,23.69 -8395.27,80.53 -5639.1,113.47 -11282.2,94.44 -16922.15,207.92 -1563.86,31.47 -2708.84,30.64 -4046.37,272.15 -287.18,51.86 -1597.99,347.62 -1801.56,317.1 -381.65,-57.24 -1361.31,-451.48 -1706.16,-436.53l-10686 440.63z"/>
      <path class="fil0" d="M14040.04 7593.35l-14040.04 3446.32c3127.89,-62.93 6190.83,-521.3 9314.08,-627.51 1477.42,-50.24 3234.09,-170.47 4478.1,-507.25 732.25,-198.25 3371.18,-1022.19 3930.22,-1033.44 384.69,-7.74 2168.34,933.31 2671.33,962.21 1119.29,64.27 2515.94,-6.1 3667.19,-29.26 2459.15,-49.49 4918.3,-98.96 7388.03,-180.81l-7352.1 -2426.87 2947.35 -870.12 12473.2 555.07 -2.17 49.03c-94.16,62.4 -2140.45,545.72 -2435.62,606.41 -453.63,93.28 -2239.45,-96.57 -2858.66,-101.08 -1267.3,-9.2 -5427.92,-459.72 -5524.44,-66.75 547.05,34.46 2054.92,400 2680.65,546.67 2695.47,631.75 5476.65,960.9 8152.7,1659.99 1711.61,447.16 3952.39,432.12 6014.89,503.21l3103.48 151.64 3125.18 113.87 351.94 -437.28 -9363.6 -1577.09 6781.48 -1601.34c-949.62,19.1 -2347.22,-108.24 -3281.04,-192.28l-3348.63 -167.03c-5533.27,-289.46 -11064.78,-584.52 -16599.19,-849.75 -1107.78,-69.76 -2314,-88.64 -3445.81,-65.86l-88.36 1.77c-528.57,10.65 -1848.29,611.59 -2506.48,624.84 -468.16,9.42 -2024.74,-656.96 -2721.54,-729.56 -1061.21,-110.58 -2265.95,-22.37 -3312.73,-114.24 -1069.25,-93.79 -2244.35,-9.4 -3297.92,-129.6 -793.07,-90.49 -2505.68,-158.17 -3334.8,-129.2l6433.33 2615.32z"/>
      <path class="fil0" d="M12123.28 36102.88c-1812.28,16.49 -1778.48,251.85 -3045.31,768.6 -342.85,139.84 -2496.14,1090.02 -2639.02,1208.35l29837.65 952.86c118,3.85 455.06,-534.24 579.66,-657.7 149.95,-148.57 521.39,-437.12 695.49,-543.39 508.23,-310.23 1100.46,-588.17 1656.04,-869.05 492.54,-249 3103.07,-1497.56 3318.26,-1701.77 -8746.57,242.39 -17493.16,484.81 -26239.72,727.2l-0.03 0.05 -17.32 0.47c0.1,5.3 0.31,10.55 0.35,15.82 6.58,958.71 -916.92,1742.55 -2062.26,1750.42 -1117.27,7.67 -2033.44,-725.94 -2083.8,-1651.85z"/>
      <path class="fil1" d="M8205.67 38497.31l28617.04 2831.37c-165.25,-243.32 -579.79,-765.97 -582.4,-1145.87l-3.29 -539 -28028.19 -1214.41 -3.16 67.91z"/>
      <path class="fil2" d="M33856.57 36829.89l131.13 -175.53 945.46 4.68c137.32,0.69 237.77,22.95 302.92,66.79 31.03,20.79 40.27,39 28.48,54.66l-398.25 527.87 -487.38 302.97c-51.14,4.18 -107.42,6.18 -168.62,5.87l-315.67 -1.56 0 0 -987.61 -4.9 -186.12 -0.91 -419.74 -2.08 87.77 -118.56 0.58 -0.81 1 -1.31 311.68 -421.06 5.18 0.04 313.5 -416.55c268.1,1.33 535.71,2.74 803.81,4.07 -194.31,260.1 -386.15,521.13 -578.67,782.68 238.37,1.17 390.75,-0.3 629.13,0.89 169.54,-185.58 352.94,-359.95 504.96,-561.42 4.25,-5.63 0.9,-12.28 -10.31,-19.76 -23.66,-15.96 -60.14,-24.01 -109.97,-24.26l-119.59 -0.59 0.03 0.22 -283.71 -1.42zm-1626.44 790.75l-771.93 -3.82 73.87 -740.27 -492.45 343.52 417.31 10.73 -876.38 309.55 -0.02 0 -102.69 71.63 -771.93 -3.82 1280.08 -928.8 565.96 -2.06 0.57 -5.76c85.79,-0.49 175.13,1.76 265.57,4.82l1 -0.01 -0.05 0.02c175.32,5.93 354.77,15.02 520.89,14.08l-109.79 930.2zm-4213.27 -20.86l125.16 0.62 327.98 -421.34 323.78 424.58 18.83 0.08 62.58 0.31 617.84 3.06 18.83 0.11 62.58 0.31 736.85 -946.63 -694.65 -10.81 -0.51 0.66 -62.07 -0.97 -399.05 513.43 -393.95 -517.36 -288.39 1.63 -288.46 -4.5 -1.01 1.31 -124.15 -1.93 -679.56 874.35 -361.62 -249.95 286.12 -84.86 511.07 -551.93 -694.65 -10.8 -1.61 1.72 -1043.23 -2.72 -394.54 -6.13 -741.47 953.97 699.27 3.47 562.89 -723.14 703.98 3.87 -242.5 260.96 -561.24 11.36 623.72 485.89c470.36,0.33 839.22,-10.86 1291.19,-8.62zm7087.79 16.56l3.07 0.01c32.79,3.63 68.49,5.56 107.08,5.75l0.03 -5.21 1721.22 8.52 637.57 -819.09 -860.57 202.86 -301.44 387.82 -741.22 -1.93 389.16 -499.95 619.12 3.43 938.72 -220.65c-692.9,-10.77 -1385.11,-12.8 -2078.53,-17.07l-550.46 708.23 -5.12 -0.02 -99.3 131.62c-11.8,15.64 -2.56,33.86 28.48,54.64 46.15,31.05 110,51.29 192.11,60.68l0.08 0.35zm-12178.01 -60.29l3.08 0.01c32.79,3.63 68.48,5.54 107.08,5.76l0.02 -5.24 1721.22 8.54 637.57 -819.09 -860.56 202.85 -301.45 387.83 -741.21 -1.93 389.15 -499.95 619.12 3.42 938.72 -220.64c-692.89,-10.77 -1385.1,-12.81 -2078.53,-17.07l-550.46 708.23 -5.12 -0.03 -99.3 131.62c-11.8,15.65 -2.56,33.85 28.48,54.65 46.15,31.06 110,51.28 192.11,60.69l0.08 0.34zm-1303.93 -6.46l846.95 4.18 833 -1070.16 1289.26 23.82 510.77 -251.84 -3548.85 -67.98 -349.2 257.25 1258.64 23.24 -840.56 1081.48z"/>
      <path class="fil0" d="M36841.75 29174.8c1812.28,16.47 1778.48,251.83 3045.31,768.6 342.85,139.84 2496.14,1090 2639.02,1208.33l-29837.65 952.88c-118,3.83 -455.06,-534.26 -579.66,-657.72 -149.95,-148.57 -521.39,-437.1 -695.49,-543.37 -508.23,-310.23 -1100.46,-588.17 -1656.04,-869.05 -492.54,-249.02 -3103.07,-1497.57 -3318.26,-1701.78 8746.57,242.4 17493.17,484.81 26239.72,727.19l0.03 0.05 17.32 0.49c-0.1,5.28 -0.31,10.53 -0.35,15.82 -6.58,958.69 916.92,1742.53 2062.26,1750.4 1117.27,7.67 2033.44,-725.94 2083.8,-1651.83z"/>
      <path class="fil1" d="M40759.36 31569.22l-28617.04 2831.34c165.25,-243.3 579.79,-765.96 582.4,-1145.84l3.29 -539.02 28028.19 -1214.41 3.16 67.93z"/>
      <path class="fil2" d="M24463.31 29823.34l128.01 -177.85 945.4 -12.06c137.31,-1.76 238.12,18.71 304.05,61.4 31.4,20.23 40.96,38.29 29.44,54.15l-388.82 534.82 -481.94 311.56c-51.05,5.09 -107.29,8.09 -168.49,8.87l-315.64 4.02 0 0 -987.55 12.62 -186.1 2.38 -419.72 5.36 85.66 -120.09 0.56 -0.82 0.98 -1.34 304.17 -426.49 5.19 -0.07 306.08 -422.03c268.08,-3.42 535.67,-6.77 803.75,-10.18 -189.67,263.5 -376.87,527.89 -564.71,792.8 238.34,-3.06 390.68,-7.23 629.04,-10.27 166.23,-188.54 346.52,-366.14 494.93,-570.25 4.15,-5.73 0.68,-12.3 -10.66,-19.58 -23.94,-15.55 -60.56,-22.94 -110.38,-22.31l-119.58 1.52 0.03 0.23 -283.69 3.62zm-1612.17 819.44l-771.87 9.86 60.73 -741.45 -486.28 352.17 417.43 3.34 -870.76 325.02 -0.02 0 -101.4 73.43 -771.88 9.86 1263.43 -951.31 565.83 -12.09 0.47 -5.78c85.77,-2.01 175.13,-1.34 265.61,0.1l1 -0.02 -0.05 0.03c175.4,2.82 354.98,8.74 521.06,4.83l-93.29 932.01zm-4212.99 53.81l125.16 -1.59 320.45 -427.09 331.26 418.76 18.83 -0.24 62.57 -0.79 617.81 -7.9 18.82 -0.23 62.58 -0.81 719.95 -959.52 -694.73 1.48 -0.5 0.69 -62.07 0.12 -389.9 520.42 -403.05 -510.3 -288.32 6.76 -288.49 0.62 -0.99 1.33 -124.17 0.26 -663.96 886.25 -365.99 -243.51 284.57 -89.9 501.2 -560.9 -694.73 1.51 -1.57 1.75 -1043.12 15.78 -394.59 0.85 -724.44 966.96 699.22 -8.92 549.99 -733.01 703.94 -8.6 -237.84 265.21 -560.95 21.3 632.24 474.75c470.29,-8 838.89,-25.7 1290.82,-31.48zm7086.99 -109.06l3.07 -0.03c32.85,3.04 68.57,4.34 107.16,3.86l-0.06 -5.24 1721.1 -21.96 622.95 -830.26 -856.85 218.08 -294.52 393.11 -741.13 11.22 380.24 -506.77 619.09 -7.56 934.66 -237.24c-692.98,1.51 -1385.12,11.73 -2078.51,19.76l-537.82 717.85 -5.12 0.07 -96.95 133.36c-11.52,15.87 -1.96,33.9 29.44,54.15 46.7,30.23 110.89,49.31 193.16,57.26l0.09 0.33zm-12177.18 155.53l3.07 -0.05c32.85,3.04 68.58,4.34 107.17,3.86l-0.07 -5.23 1721.1 -21.97 622.95 -830.24 -856.84 218.06 -294.52 393.12 -741.13 11.21 380.24 -506.77 619.08 -7.56 934.67 -237.24c-692.98,1.5 -1385.12,11.74 -2078.52,19.76l-537.81 717.87 -5.12 0.07 -96.96 133.36c-11.51,15.86 -1.95,33.88 29.45,54.14 46.69,30.22 110.89,49.32 193.16,57.25l0.08 0.35zm-1303.84 16.64l846.89 -10.82 813.91 -1084.75 1289.48 0.97 506.23 -260.84 -3549.5 -5.1 -344.6 263.4 1258.86 0.95 -821.27 1096.19z"/>
      <path class="fil0" d="M6617.3 25961.5l3.99 -206.93c2707.3,-3087.56 5480.53,-6211.59 8072.61,-9396.86 388.08,-413.54 899.34,-931.39 524.71,-1424.18 -370.84,-487.78 -2775.36,-1468.76 -3173.04,-1910.29 457.27,-205.02 5568.75,-1311.98 6041.41,-1315.14 710.37,-4.76 5560.74,2.82 5832.02,213.13l-2073.02 1798.67c-5000.39,4177.17 -10118.47,8199.79 -15228.67,12241.6z"/>
      <path class="fil2" d="M20594.58 12886.26l615.61 -7.08 320.73 -412.35 -615.61 7.08 -320.73 412.35zm-2103.62 -589.28l1845.71 -21.21 -160.75 206.65 -1229.49 14.14 -96.17 123.64 922.83 -10.62c98.79,-1.13 169.66,16.77 211.94,53.88 20.09,17.35 24.77,32.54 14.74,45.46l-225.31 289.66c-53.33,68.56 -182.22,104.01 -386.66,106.36l-1539.03 17.71 467.4 -210.18 925.15 -10.63 96.02 -123.46 -925.15 10.63c-204.43,2.34 -280.15,-30.57 -226.97,-98.94l305.75 -393.07zm-765.39 827.05l-1845.71 21.21 305.3 -392.5c53.34,-68.56 182.23,-104.01 386.66,-106.36l925.15 -10.64 96.17 -123.64 -925.15 10.63 -145.93 -203.13 1539.04 -17.7c204.44,-2.35 280,30.76 226.67,99.32l-216.61 278.49c-37,47.57 -111.88,81.65 -224.06,102.22 -53.56,9.57 -110.56,14.81 -171.44,15.52l-922.84 10.6 -96.02 123.46 1229.5 -14.13 -160.74 206.64zm2398.74 -27.56c-90.74,1.05 -156.76,-7.75 -198.79,-26.15 -42.02,-18.42 -51.57,-42.73 -27.89,-73.16l482.22 -619.97c32.21,-41.4 107.12,-71.85 225,-90.96 59.87,-9.67 114.01,-14.87 161.67,-15.42l1232.37 -14.16c99.91,-1.15 170.39,16.56 212.53,53.1 20.09,17.34 24.62,32.73 14.14,46.23l-482.22 619.96c-32.06,41.21 -99.92,71.38 -204.32,90.72 -52.4,9.58 -113.43,14.87 -182.34,15.65l-1232.36 14.17z"/>
      <path class="fil1" d="M11410.88 17882.56l-39.85 54.77c-35.58,48.26 -71.97,96.13 -108.6,143.48l4.07 0.12 -4620.64 6348.5 -46.86 730.24 5600.77 -7481.71 -0.07 0c480.71,-621.45 1176,-1590.89 921.46,-1925.7l-26.7 -35.13c-221.85,-291.82 -2581.57,-1421.77 -3021.3,-1637.71 -897.3,-440.59 -565.69,-481.53 -1570.85,-264.63 -388.56,83.85 -1347.15,253.42 -1661.12,394.18 421.06,467.51 4363.51,1723.89 4791.55,2286.93 338.89,445.74 104.31,932.49 -221.86,1386.65z"/>
      <path class="fil0" d="M42529.6 25961.5l-3.99 -206.93c-2707.3,-3087.56 -5480.53,-6211.59 -8072.61,-9396.86 -388.08,-413.54 -899.34,-931.39 -524.71,-1424.18 370.84,-487.78 2775.36,-1468.76 3173.04,-1910.29 -457.27,-205.02 -5568.75,-1311.98 -6041.41,-1315.14 -710.36,-4.76 -5560.73,2.82 -5832.01,213.13l2073.02 1798.67c5000.38,4177.17 10118.46,8199.79 15228.66,12241.6z"/>
      <path class="fil2" d="M31724.23 12930.99l596.2 13.53 324.13 -388.57 -596.2 -13.53 -324.13 388.57zm-2016.96 -640.04l1787.47 40.51 -162.45 194.74 -1190.7 -26.98 -97.19 116.52 893.71 20.25c95.67,2.17 163.7,21.83 203.39,59.14 18.88,17.46 22.91,32.34 12.77,44.49l-227.7 272.98c-53.9,64.61 -179.83,94.67 -377.83,90.19l-1490.48 -33.77 459.43 -188.02 895.96 20.3 97.05 -116.34 -895.97 -20.3c-197.99,-4.48 -270.2,-38.86 -216.46,-103.27l309 -370.43zm-768.32 775.34l-1787.48 -40.51 308.54 -369.88c53.9,-64.59 179.85,-94.67 377.85,-90.18l895.96 20.3 97.19 -116.53 -895.96 -20.28 -134.55 -201.48 1490.48 33.78c198,4.48 270.05,39.04 216.15,103.64l-218.91 262.45c-37.39,44.82 -111.01,75.33 -220.29,91.53 -52.16,7.5 -107.52,10.69 -166.47,9.36l-893.73 -20.25 -97.05 116.34 1190.72 26.97 -162.45 194.74zm2323.08 52.66c-87.88,-1.99 -151.5,-12.69 -191.57,-31.9 -40.07,-19.22 -48.52,-43.07 -24.59,-71.74l487.34 -584.22c32.55,-39.04 106.07,-66.02 220.82,-80.63 58.27,-7.38 110.86,-10.61 157.02,-9.57l1193.49 27.04c96.76,2.2 164.41,21.67 203.99,58.44 18.88,17.43 22.75,32.49 12.15,45.22l-487.33 584.22c-32.39,38.83 -99.08,65.79 -200.8,81.07 -51.04,7.52 -110.3,10.62 -177.04,9.1l-1193.48 -27.03z"/>
      <path class="fil1" d="M37736.02 17882.56l39.85 54.77c35.58,48.26 71.97,96.13 108.6,143.48l-4.07 0.12 4620.64 6348.5 46.86 730.24 -5600.77 -7481.71 0.07 0c-480.71,-621.45 -1176,-1590.89 -921.46,-1925.7l26.7 -35.13c221.85,-291.82 2581.57,-1421.77 3021.3,-1637.71 897.3,-440.59 565.69,-481.53 1570.85,-264.63 388.56,83.85 1347.15,253.42 1661.12,394.18 -421.06,467.51 -4363.51,1723.89 -4791.55,2286.93 -338.89,445.74 -104.31,932.49 221.86,1386.65z"/>
      </g>
    </g>
    </svg>
  