<?xml version="1.0" encoding="UTF-8"?>
<!DOCTYPE svg PUBLIC "-//W3C//DTD SVG 1.1//EN" "http://www.w3.org/Graphics/SVG/1.1/DTD/svg11.dtd">
<!-- Creator: CorelDRAW -->
<svg xmlns="http://www.w3.org/2000/svg" xml:space="preserve" width="649.411mm" height="302.993mm" version="1.1" style="shape-rendering:geometricPrecision; text-rendering:geometricPrecision; image-rendering:optimizeQuality; fill-rule:evenodd; clip-rule:evenodd"
viewBox="0 0 75991.51 35455"
 xmlns:xlink="http://www.w3.org/1999/xlink"
 xmlns:xodm="http://www.corel.com/coreldraw/odm/2003">
 <defs>
  <style type="text/css">
   <![CDATA[
    .fil0 {fill:black}
    .fil2 {fill:#D9D9D9}
    .fil1 {fill:red}
   ]]>
  </style>
 </defs>
 <g id="Camada_x0020_1">
  <metadata id="CorelCorpID_0Corel-Layer"/>
  <path class="fil0" d="M26121.73 1075.56l-636.15 954.89 9463.16 0c-246.72,617.35 -251.74,687.35 -837.38,687.35l-9068.63 0 -2076.49 3094.34 2419.96 57.05 1438.09 0 1765.71 -2158.07 3370.57 0 2296.15 2158.07 4430.18 0 -1745.04 -1913.28c301.85,-14.11 603.71,-28.22 916.36,-163.8 312.64,-135.56 636.03,-392.57 1006.89,-868.84 367.37,-471.79 781.25,-1158.73 1195.62,-1847.7l-13939.03 0 0.01 0 -0.01 0zm-17322.83 1642.24l-2122.38 3151.4 14461.96 0c633.07,-870.04 1259.98,-1732.46 1566.6,-2197.59 312.61,-474.2 292.31,-535.43 210.32,-628.34 -81.95,-92.93 -225.51,-217.52 -369.06,-342.11 348.08,-223.22 696.13,-446.46 922.18,-725.08 215.65,-265.78 320.28,-581.98 419.83,-900.5l-15935.62 0 798.15 954.89 9700.81 1.71c-1.67,481.18 56.41,317.79 -240.16,685.64l-9412.66 0 0.01 -0.01 0.01 -0.01zm60234.02 0c-548.71,1241.47 -1256.62,2414.11 -2599.58,2918.43 -302.77,113.72 -637.27,186.49 -1050.68,232.97l-11511.82 0 730.73 -993.33 6895.79 0c1370.56,0 1343.84,-40.89 1502.4,-140.3 399.41,-250.39 638.25,-593.84 874.24,-1024.46l-5915.17 0c-383.01,-13.95 -2594.26,20.22 -1963.42,-993.33l13037.5 0 0 0.01 0.01 0.01zm-21453.54 2158.08l-3458 0c-500.54,0 -782.87,-177.16 -532.12,-796.36 140.69,-347.39 599.46,-1005.33 814.44,-1361.7l-3887.24 0c-274.7,434.4 -565.57,914.32 -714.32,1235.72 -148.74,321.4 -159.66,521.21 47.52,820.19 722.57,1042.68 1652.41,1050.18 3056.93,1095.48l6932.57 0c775.51,-90.85 1443.93,-313.52 2166.49,-908.01 977.29,-827.28 2044.47,-2353.88 3111.63,-3880.52l-13623.33 -5.11 -567.12 953.65 9291.99 1.25c314.95,0.05 527.59,179.44 482.11,578.2 -55.99,490.64 -499.61,1237.12 -850.55,1594 -258.8,263.27 -541.26,410.78 -956.34,529.78 -453.14,129.9 -849.84,107.42 -1314.7,143.41l0.07 0.01 -0.04 0.01zm-35764.29 -1164.77l6212.02 0c-233.04,434.68 -462.69,809.96 -897.54,1064.48 -192.49,112.65 -283.59,100.28 -1259.78,100.28l-4579.26 0c176.46,-391.82 348.1,-772.94 524.56,-1164.77l0 0.01 0 -0.01zm59005.19 -2604.61c-4207.73,-6.94 -8417.04,-27.71 -12624.58,-22.54 -463.7,0.57 -1160.37,128.52 -1526.07,470.81 -138,133.54 -237.84,299.03 -333.51,472.38l13011.22 -1.71 1472.92 -918.94 0.02 -0.01zm-48746.92 5305.91c-21.78,29.84 -43.53,59.7 -65.27,89.58 -206.39,283.66 -518.85,442.71 -869.65,442.71l-14461.96 0c-403.89,0 -759.7,-213.72 -949.45,-570.27 -189.1,-355.33 -167.46,-772.18 57.36,-1106.05l1905.83 -2829.85 -562.73 -673.25c-271.59,-324.93 -328.45,-761.58 -149.11,-1145.21 179.4,-383.75 550.71,-620.06 974.32,-620.06l15935.62 0c348.94,0 659.85,157.3 866.54,438.46 102.21,139.02 167.92,293.94 195.56,455.29l276.16 -414.52c203.16,-304.96 528.62,-479.23 895.08,-479.23l13939.03 0c272.96,0 523.83,97.37 716.71,271.21 193.23,-174.23 443.97,-271.31 716.97,-271.21l13623.33 5.11c407.11,0.14 765.45,217.63 953.49,578.7 8.53,16.37 16.62,32.88 24.26,49.49 573.73,-439.06 1399.8,-624.02 2098.92,-624.87 4209.24,-5.2 8418.45,15.59 12627.67,22.54 484.01,0.8 899.55,314.87 1032.42,780.27 132.75,465 -54.61,951.76 -464.9,1207.73l-1284.23 801.22c-11.54,113.74 -41.56,225.64 -88.72,332.34 -678.1,1534.22 -1569.96,2876.44 -3205.19,3490.51 -422.05,158.47 -861.66,244.66 -1308.6,294.89 -40.08,4.51 -79.82,6.73 -120.16,6.73l-11511.82 0c-411.8,0 -773.86,-222.62 -959.74,-590.09 -107.23,-212.01 -140.71,-443.28 -102.87,-664.66 -37.22,32.51 -74.71,64.58 -112.52,96.23 -823.01,688.36 -1670.24,1026.9 -2731.37,1151.22 -41.74,4.88 -83.09,7.3 -125.15,7.3l-6932.57 0c-11.57,0 -23.12,-0.2 -34.68,-0.57 -1231.71,-39.73 -2282.6,-84.09 -3157.77,-755.62 -12.18,38.71 -26.62,77.08 -43.35,114.96 -174.4,395.08 -552.07,641.21 -983.93,641.21l-4430.18 0c-280.24,0 -532.36,-99.87 -736.57,-291.81l-1985.68 -1866.25 -2434.8 0 -1442.98 1763.62c-208.59,254.94 -502.99,394.45 -832.41,394.45l-1438.09 0c-8.45,0 -16.89,-0.09 -25.35,-0.3l-2419.96 -57.05c-357.72,-8.44 -673.64,-183.45 -867.5,-474.93l-0.04 0 0.05 0.04zm32762.14 -3074.84c-115.38,157.19 -231.95,313.52 -350.11,468.7 38.17,-3.93 76.94,-5.92 116.16,-5.92l417.55 0c-91.05,-147.09 -151.5,-302.9 -183.6,-462.78l-0.01 0 0.01 0zm-7295.18 462.76c335.17,-22.81 737.96,-10.2 1057.36,-101.77 186.87,-53.57 346.99,-108.77 485.8,-249.96 79.5,-80.85 172.81,-205.89 259.96,-342.78l-3935.72 -0.51c-22.75,57.9 -50.55,114.1 -83.09,168.06 -107.5,178.18 -221.55,352.14 -334.27,526.98l2549.97 0 0 -0.01 -0.01 -0.01zm-6820.61 -2707.71l209.79 -352.77c121.79,-204.8 326.49,-321.16 564.74,-321.07l13623.33 5.11c251.08,0.09 466.26,130.72 582.25,353.39 115.96,222.67 99.65,473.88 -44.21,679.65 -524.23,749.92 -1047.09,1504.78 -1605.88,2229.45 -479.46,621.79 -1019.15,1273.8 -1622.67,1778.56 -764.29,639.25 -1534.79,942.1 -2511.42,1056.51 -26.67,3.14 -49.57,4.45 -76.43,4.45l-6932.57 0c-7.43,0 -13.74,-0.09 -21.17,-0.34 -1457.51,-47.02 -2664.61,-63.27 -3575.57,-1377.83 -341.32,-492.56 -350.8,-936.23 -103.73,-1470.11 53.91,-116.49 113.53,-233.63 176.88,-350.56 -323.29,415.15 -705.92,802 -1184.83,1031.63l973.96 1067.88c179.23,196.53 223,464.44 115.58,707.78 -107.42,243.36 -334.82,391.56 -600.83,391.56l-4430.18 0c-173.72,0 -323.19,-59.22 -449.79,-178.18l-2106.56 -1979.87 -2799.13 0 -1568.64 1917.2c-129.08,157.74 -304.46,240.88 -508.31,240.88l-1438.09 0c-5.43,0 -10.06,-0.07 -15.48,-0.2l-2419.96 -57.05c-246.11,-5.79 -454.36,-135.81 -567.64,-354.42 -113.27,-218.61 -99.42,-463.69 37.77,-668.14l2076.49 -3094.34c84.01,-125.16 198.46,-212.89 332.49,-257.32 -15.46,-147.37 21.22,-296.19 109.15,-428.19l636.15 -954.89c125.52,-188.44 320.18,-292.62 546.57,-292.62l13939.03 0c243.21,0 451.96,121.78 571.69,333.47 61.3,108.43 90.38,224.72 87.29,340.35l-0.05 0.04 0 -0.05zm-451.59 912.77c-29.61,48.77 -59.36,97.53 -89.28,146.29 29.8,-17.86 61.07,-33.2 93.58,-45.89 -4.14,-33.38 -5.57,-66.92 -4.29,-100.39l0 -0.01zm7286.83 2213.71c378.54,-27.19 793.29,-13.39 1158.14,-118 264.43,-75.79 474.92,-161.51 669,-358.91 206.58,-210.09 524.7,-704.19 632.43,-1055.03l-4952.39 -0.67c6.44,126.58 -25.64,253.81 -96.05,370.53 -141.55,234.61 -295.64,463.25 -441.86,695.2 -86.35,136.94 -198.54,308.77 -277.47,466.84l3308.2 0 0 0.01 0 0.02zm22124.76 -1627.14c25.9,128.66 10.8,262.6 -46.09,391.33 -628.01,1420.91 -1446.51,2695.9 -2969.38,3267.76 -389.87,146.4 -795.42,224.39 -1208.19,270.79 -25.64,2.87 -47.6,4.11 -73.38,4.11l-11511.82 0c-253.9,0 -471.48,-133.78 -586.06,-360.34 -114.58,-226.57 -93.44,-481.1 57.02,-685.61l730.73 -993.33c127.79,-173.72 313.36,-267.58 529.04,-267.58l1804.83 0c-336.41,-81.85 -679.44,-220.22 -914.14,-483.09 -360.15,-403.41 -330.31,-922.05 -54.45,-1365.25 64.07,-102.95 148.96,-182.46 248.5,-235.18 -24.98,-142.82 -0.13,-289.98 74.8,-425.74 128.6,-233.03 262.48,-448.21 457.51,-632.46 489.24,-462.19 1318.07,-649.36 1976.27,-650.14 4208.83,-5.2 8417.64,15.59 12626.48,22.54 297.31,0.49 548.83,190.6 630.45,476.48 81.62,285.89 -31.65,580.13 -283.89,737.49l-1472.92 918.94c-5.09,3.18 -10.2,6.28 -15.29,9.29l0.01 -0.01 -0.02 0.01zm-61466.32 -180.51l-764.57 -914.7c-167.39,-200.28 -201.6,-462.86 -91.05,-699.32 110.55,-236.48 333.95,-378.64 594.97,-378.64l15935.62 0c215.74,0 401.35,93.92 529.13,267.74 127.79,173.8 162.08,379 97.73,584.94 -127.95,409.39 -261.95,779.74 -536.68,1118.36 -127.17,156.75 -274.82,293.96 -432.88,419.36 210.96,419.57 -38.66,839.16 -292.27,1223.86 -496.15,752.64 -1052.97,1492.88 -1583.88,2222.52 -127.59,175.36 -314.18,270.33 -531.05,270.33l-14461.96 0c-249.12,0 -462.75,-128.31 -579.78,-348.23 -117.02,-219.91 -104.12,-468.78 35.05,-675.41l2081.61 -3090.85 0 -0.01 0.01 0.05z"/>
  <path class="fil0" d="M26121.73 8915.33l-636.15 954.89 9463.16 0c-246.72,617.35 -251.74,687.35 -837.38,687.35l-9068.63 0 -2076.49 3094.34 2419.96 57.05 1438.09 0 1765.71 -2158.07 3370.57 0 2296.15 2158.07 4430.18 0 -1745.04 -1913.28c301.85,-14.11 603.71,-28.22 916.36,-163.8 312.64,-135.56 636.03,-392.57 1006.89,-868.84 367.37,-471.79 781.25,-1158.73 1195.62,-1847.7l-13939.03 0 0.01 0 -0.01 0zm-17322.83 1642.25l-2122.38 3151.4 14461.96 0c633.07,-870.04 1259.98,-1732.46 1566.6,-2197.59 312.61,-474.2 292.31,-535.43 210.32,-628.34 -81.95,-92.93 -225.51,-217.52 -369.06,-342.11 348.08,-223.22 696.13,-446.46 922.18,-725.08 215.65,-265.78 320.28,-581.98 419.83,-900.5l-15935.62 0 798.15 954.89 9700.81 1.71c-1.67,481.18 56.41,317.79 -240.16,685.64l-9412.66 0 0.01 -0.01 0.01 -0.01zm60234.02 0c-548.71,1241.47 -1256.62,2414.11 -2599.58,2918.43 -302.77,113.72 -637.27,186.49 -1050.68,232.97l-11511.82 0 730.73 -993.33 6895.79 0c1370.56,0 1343.84,-40.89 1502.4,-140.3 399.41,-250.39 638.25,-593.84 874.24,-1024.46l-5915.17 0c-383.01,-13.95 -2594.26,20.22 -1963.42,-993.33l13037.5 0 0 0.01 0.01 0.01zm-21453.54 2158.07l-3458 0c-500.54,0 -782.87,-177.16 -532.12,-796.36 140.69,-347.39 599.46,-1005.33 814.44,-1361.7l-3887.24 0c-274.7,434.4 -565.57,914.32 -714.32,1235.72 -148.74,321.4 -159.66,521.21 47.52,820.19 722.57,1042.68 1652.41,1050.18 3056.93,1095.48l6932.57 0c775.51,-90.85 1443.93,-313.52 2166.49,-908.01 977.29,-827.28 2044.47,-2353.88 3111.63,-3880.52l-13623.33 -5.11 -567.12 953.65 9291.99 1.25c314.95,0.05 527.59,179.44 482.11,578.2 -55.99,490.64 -499.61,1237.12 -850.55,1594 -258.8,263.27 -541.26,410.78 -956.34,529.78 -453.14,129.9 -849.84,107.42 -1314.7,143.41l0.07 0.01 -0.04 0.01zm-35764.29 -1164.75l6212.02 0c-233.04,434.68 -462.69,809.96 -897.54,1064.48 -192.49,112.65 -283.59,100.28 -1259.78,100.28l-4579.26 0c176.46,-391.82 348.1,-772.94 524.56,-1164.77l0 0.01 0 -0.01zm59005.19 -2604.59c-4207.73,-6.94 -8417.04,-27.71 -12624.58,-22.54 -463.7,0.57 -1160.37,128.52 -1526.07,470.81 -138,133.54 -237.84,299.03 -333.51,472.38l13011.22 -1.71 1472.92 -918.94 0.02 -0.01zm-48746.92 5305.9c-21.78,29.84 -43.53,59.7 -65.27,89.58 -206.39,283.66 -518.85,442.71 -869.65,442.71l-14461.96 0c-403.89,0 -759.7,-213.72 -949.45,-570.27 -189.1,-355.33 -167.46,-772.18 57.36,-1106.05l1905.83 -2829.85 -562.73 -673.25c-271.59,-324.93 -328.45,-761.58 -149.11,-1145.21 179.4,-383.75 550.71,-620.06 974.32,-620.06l15935.62 0c348.94,0 659.85,157.3 866.54,438.46 102.21,139.02 167.92,293.94 195.56,455.29l276.16 -414.52c203.16,-304.96 528.62,-479.23 895.08,-479.23l13939.03 0c272.96,0 523.83,97.37 716.71,271.21 193.23,-174.23 443.97,-271.31 716.97,-271.21l13623.33 5.11c407.11,0.14 765.45,217.63 953.49,578.7 8.53,16.37 16.62,32.88 24.26,49.49 573.73,-439.06 1399.8,-624.02 2098.92,-624.87 4209.24,-5.2 8418.45,15.59 12627.67,22.54 484.01,0.8 899.55,314.87 1032.42,780.27 132.75,465 -54.61,951.76 -464.9,1207.73l-1284.23 801.22c-11.54,113.74 -41.56,225.64 -88.72,332.34 -678.1,1534.22 -1569.96,2876.44 -3205.19,3490.51 -422.05,158.47 -861.66,244.66 -1308.6,294.89 -40.08,4.51 -79.82,6.73 -120.16,6.73l-11511.82 0c-411.8,0 -773.86,-222.62 -959.74,-590.09 -107.23,-212.01 -140.71,-443.28 -102.87,-664.66 -37.22,32.51 -74.71,64.58 -112.52,96.23 -823.01,688.36 -1670.24,1026.9 -2731.37,1151.22 -41.74,4.88 -83.09,7.3 -125.15,7.3l-6932.57 0c-11.57,0 -23.12,-0.2 -34.68,-0.57 -1231.71,-39.73 -2282.6,-84.09 -3157.77,-755.62 -12.18,38.71 -26.62,77.08 -43.35,114.96 -174.4,395.08 -552.07,641.21 -983.93,641.21l-4430.18 0c-280.24,0 -532.36,-99.87 -736.57,-291.81l-1985.68 -1866.25 -2434.8 0 -1442.98 1763.62c-208.59,254.94 -502.99,394.45 -832.41,394.45l-1438.09 0c-8.45,0 -16.89,-0.09 -25.35,-0.3l-2419.96 -57.05c-357.72,-8.44 -673.64,-183.45 -867.5,-474.93l-0.04 0 0.05 0.04zm32762.14 -3074.84c-115.38,157.19 -231.95,313.52 -350.11,468.7 38.17,-3.93 76.94,-5.92 116.16,-5.92l417.55 0c-91.05,-147.09 -151.5,-302.9 -183.6,-462.78l-0.01 0 0.01 0zm-7295.18 462.79c335.17,-22.81 737.96,-10.2 1057.36,-101.77 186.87,-53.57 346.99,-108.77 485.8,-249.96 79.5,-80.85 172.81,-205.89 259.96,-342.78l-3935.72 -0.51c-22.75,57.9 -50.55,114.1 -83.09,168.06 -107.5,178.18 -221.55,352.14 -334.27,526.98l2549.97 0 0 -0.01 -0.01 -0.01zm-6820.61 -2707.72l209.79 -352.77c121.79,-204.8 326.49,-321.16 564.74,-321.07l13623.33 5.11c251.08,0.09 466.26,130.72 582.25,353.39 115.96,222.67 99.65,473.88 -44.21,679.65 -524.23,749.92 -1047.09,1504.78 -1605.88,2229.45 -479.46,621.79 -1019.15,1273.8 -1622.67,1778.56 -764.29,639.25 -1534.79,942.1 -2511.42,1056.51 -26.67,3.14 -49.57,4.45 -76.43,4.45l-6932.57 0c-7.43,0 -13.74,-0.09 -21.17,-0.34 -1457.51,-47.02 -2664.61,-63.27 -3575.57,-1377.83 -341.32,-492.56 -350.8,-936.23 -103.73,-1470.11 53.91,-116.49 113.53,-233.63 176.88,-350.56 -323.29,415.15 -705.92,802 -1184.83,1031.63l973.96 1067.88c179.23,196.53 223,464.44 115.58,707.78 -107.42,243.36 -334.82,391.56 -600.83,391.56l-4430.18 0c-173.72,0 -323.19,-59.22 -449.79,-178.18l-2106.56 -1979.87 -2799.13 0 -1568.64 1917.2c-129.08,157.74 -304.46,240.88 -508.31,240.88l-1438.09 0c-5.43,0 -10.06,-0.07 -15.48,-0.2l-2419.96 -57.05c-246.11,-5.79 -454.36,-135.81 -567.64,-354.42 -113.27,-218.61 -99.42,-463.69 37.77,-668.14l2076.49 -3094.34c84.01,-125.16 198.46,-212.89 332.49,-257.32 -15.46,-147.37 21.22,-296.19 109.15,-428.19l636.15 -954.89c125.52,-188.44 320.18,-292.62 546.57,-292.62l13939.03 0c243.21,0 451.96,121.78 571.69,333.47 61.3,108.43 90.38,224.72 87.29,340.35l-0.05 0.04 0 -0.05zm-451.59 912.77c-29.61,48.77 -59.36,97.53 -89.28,146.29 29.8,-17.86 61.07,-33.2 93.58,-45.89 -4.14,-33.38 -5.57,-66.92 -4.29,-100.39l0 -0.01zm7286.83 2213.71c378.54,-27.19 793.29,-13.39 1158.14,-118 264.43,-75.79 474.92,-161.51 669,-358.91 206.58,-210.09 524.7,-704.19 632.43,-1055.03l-4952.39 -0.67c6.44,126.58 -25.64,253.81 -96.05,370.53 -141.55,234.61 -295.64,463.25 -441.86,695.2 -86.35,136.94 -198.54,308.77 -277.47,466.84l3308.2 0 0 0.01 0 0.02zm22124.76 -1627.14c25.9,128.66 10.8,262.6 -46.09,391.33 -628.01,1420.91 -1446.51,2695.9 -2969.38,3267.76 -389.87,146.4 -795.42,224.39 -1208.19,270.79 -25.64,2.87 -47.6,4.11 -73.38,4.11l-11511.82 0c-253.9,0 -471.48,-133.78 -586.06,-360.34 -114.58,-226.57 -93.44,-481.1 57.02,-685.61l730.73 -993.33c127.79,-173.72 313.36,-267.58 529.04,-267.58l1804.83 0c-336.41,-81.85 -679.44,-220.22 -914.14,-483.09 -360.15,-403.41 -330.31,-922.05 -54.45,-1365.25 64.07,-102.95 148.96,-182.46 248.5,-235.18 -24.98,-142.82 -0.13,-289.98 74.8,-425.74 128.6,-233.03 262.48,-448.21 457.51,-632.46 489.24,-462.19 1318.07,-649.36 1976.27,-650.14 4208.83,-5.2 8417.64,15.59 12626.48,22.54 297.31,0.49 548.83,190.6 630.45,476.48 81.62,285.89 -31.65,580.13 -283.89,737.49l-1472.92 918.94c-5.09,3.18 -10.2,6.28 -15.29,9.29l0.01 -0.01 -0.02 0.01zm-61466.32 -180.5l-764.57 -914.7c-167.39,-200.28 -201.6,-462.86 -91.05,-699.32 110.55,-236.48 333.95,-378.64 594.97,-378.64l15935.62 0c215.74,0 401.35,93.92 529.13,267.74 127.79,173.8 162.08,379 97.73,584.94 -127.95,409.39 -261.95,779.74 -536.68,1118.36 -127.17,156.75 -274.82,293.96 -432.88,419.36 210.96,419.57 -38.66,839.16 -292.27,1223.86 -496.15,752.64 -1052.97,1492.88 -1583.88,2222.52 -127.59,175.36 -314.18,270.33 -531.05,270.33l-14461.96 0c-249.12,0 -462.75,-128.31 -579.78,-348.23 -117.02,-219.91 -104.12,-468.78 35.05,-675.41l2081.61 -3090.85 0 -0.01 0.01 0.05z"/>
  <path class="fil0" d="M34992.72 29942.4c5336.61,975.83 7431.83,329.38 12739.2,-1272.91 4749.4,-1433.81 9873.06,-3033.17 14864.35,-3936.37 2056.1,-372.12 3407.26,-470.05 4758.86,-567.98l5974.7 -4267.74c-6293.21,1173.89 -11160.69,2043.07 -16732.05,3774.39 -2639.47,820.2 -5741.5,1808.87 -8534.51,2754.78 -4295.1,1454.57 -7742.04,3452.41 -12455.4,2453.79l-5707.14 -1209.23 151.68 -486.79c2691.56,705.78 5749.67,1525.07 8520.03,1461.76 1450.51,-33.15 2112.08,-209.67 3876.26,-835.13 9631.62,-3414.7 16574.51,-6186.89 27297.51,-8017.1 1672.6,-285.48 3201.97,-498 4701.47,-695.08l1543.83 -1102.51c-4987.79,487.92 -8267.1,1062.97 -13571.61,2418.62 -6020.89,1538.73 -10812.66,3365.63 -16526.23,5605.6 -4448.87,1744.16 -6070.47,2541.47 -10096.74,1943.38 -3864.54,-574.05 -7638.15,-1883.67 -11880.29,-3402.43l-7438.09 -2627.33 -1256.04 226.38c83.01,34.5 611.14,404.4 728.62,483.83l-808.27 876.7 7462.98 2964.86c3509.53,1394.26 8812.21,2802.9 12386.84,3456.51l0 0.04 0.02 -0.02z"/>
  <path class="fil0" d="M41548.06 34982.11c4405.85,-805.66 8214.8,-1965.61 12552.91,-3502.85 2043.99,-724.36 3889.67,-1419.02 5735.36,-2113.64 337.32,-357.19 674.63,-714.49 1011.96,-1071.68 -19.6,-575.56 -39.65,-1151.06 -59.27,-1726.62 -5921.42,2220.57 -14264.51,5549.56 -20056.04,6409.75 -4080.27,606.01 -5723.51,-201.9 -10232.05,-1969.47 -8437.71,-3307.99 -15635.37,-5849.4 -24537.14,-7377.59 -2312.09,-396.9 -4137.91,-575.5 -5963.78,-754.15l1564.2 1117.26c1519.58,199.78 3069.79,415.08 4764.8,704.45 10830.45,1848.87 18085.06,4728.71 27663.15,8124.5 1787.7,633.78 2458.36,812.72 3928.15,846.3 2807.86,64.14 5906.66,-766.05 8634.19,-1481.33 10.17,187.54 20.35,375.07 30.42,562.67 -3193.5,681.78 -6150.61,1424.61 -8676.4,1418.5 -2994.25,-7.29 -6749.02,-1781.58 -9606.15,-2749.12 -5490.5,-1859.4 -10932.29,-3654.49 -16607.26,-4861.32 -2508.52,-533.45 -5683.24,-1137.08 -8997.83,-1755.32l6054.94 4324.96c1369.35,99.17 2738.78,198.46 4822.63,575.58 5058.22,915.33 10250.2,2536.1 15063.26,3989.09 5557.5,1677.74 7563.99,2267.5 12909.97,1289.96l-0.01 0.01 0 0.06z"/>
  <path class="fil1" d="M40164.01 20122.82c-21.24,-36.51 -40.86,-94.72 -6.81,-137.62 30.4,-38.28 100.68,-45.8 165.02,-65.32 15.79,-4.79 32.33,-8.07 51.92,-14.24 36.13,-11.39 67.31,-19.28 102.87,-29.73 66.8,-19.47 132.88,-38.66 200.68,-58.45 66.28,-19.28 134.05,-39.1 200.73,-58.45l1828.4 -534.41c63.34,-18.97 133.39,-37.88 199.8,-59.37l205.09 -60.15c458.69,-124.36 952.56,-290.38 1411.94,-414.65 36.73,-9.88 67.87,-19.52 102.8,-29.73 33.15,-9.67 66.57,-18.85 102.39,-30.35 134.33,-42.99 447.74,-121.12 548.63,-169.18l158.47 -111.5c169.11,-150.66 268.32,-296.59 386.32,-490.96l118.22 -220.7c32.93,-72.3 78.92,-155.67 109.08,-237.32 6.05,-16.43 12.59,-30.01 20.96,-48.56 8.64,-18.85 12.36,-33.3 19.78,-49.65 -31.72,2.55 -563.76,204.44 -628.25,224.55 -108.44,33.81 -210.09,75.9 -315.41,114.15 -941.89,342.52 -1890.82,677.14 -2831.78,1021.95 -108.43,39.7 -212.01,75.72 -315.94,113.72l-2990.94 1073.86c-189.8,69.82 -619.13,208.6 -756.43,317.53 -87.59,69.45 -89.44,215.88 -4.35,310.55 35.57,39.59 67.64,74.13 103.37,113.72 40.52,44.76 22.94,48.98 152.43,8.58 111.29,-34.75 222.59,-59.73 332.33,-95.51 156.37,-51.02 497.81,-144.89 665.37,-190.26 135.81,-36.85 445.09,-121.09 581.35,-165.78l69.85 -20.56c1.26,-0.55 3.02,-1.38 4.12,-1.86 1.1,-0.49 3.19,-1.64 4,-2.05 0.89,-0.43 2.71,-1.33 3.98,-2.21l0.01 0 0.01 -0.01zm-1681.91 617.65l75.05 72.91c11.94,11.43 14.79,11.21 26.56,22.86l203.88 197.87c19.19,19.68 84.09,79.1 84.63,91.87l-0.71 4.21c150.1,-38.33 427.42,-85.06 576.77,-112.38l1517.42 -285.38c9.67,-2.97 18.43,-0.99 9.78,-20.85 -19.19,-43.88 -51.46,-114.64 36.66,-155.55 70.16,-32.57 137.67,-22.33 216.81,-40.64 900.66,-208.32 1822.85,-409.12 2727.94,-609.95 42.94,-9.56 182.83,-42.65 214.98,-42.61 47.13,0 162.87,-34.81 211.8,-52.84 62.79,-23.15 126.35,-50.09 185.74,-81.49 32.59,-17.22 53.61,-32.66 84.44,-49.87 19.03,-10.54 23.5,-13.68 40.97,-26.38 15.56,-11.33 24.78,-16.01 40.3,-27.16 29.1,-21.06 48.77,-37.16 75.9,-59.37l106.29 -97.31c33.15,-30.79 72.36,-67.58 99.46,-105.08 110.51,-152.69 173.48,-221.21 264.69,-423.27 13.21,-29.27 33.78,-68.95 41.42,-103.99 -34.65,0.83 -1206.42,332 -1284.44,353.52l-5556.37 1550.84 0.01 0.01 0.02 0.02zm5276.63 -448.56l-4786.84 942.33c31.23,49.28 63.66,66.37 87.2,92.37 11.39,12.65 17.88,20.23 29.27,32.72 10.93,11.88 18.48,21.54 29.71,32.27 13.78,13.3 18.69,14.52 32.5,29.27 20.5,21.78 37.77,45.31 59.08,64.93 13.07,12.01 16,11.83 29.42,26.12 11.33,12.04 18.14,20.5 29.3,32.72 10.93,12.04 18.31,21.24 29.48,32.5 13.42,13.68 19.07,15.28 32.66,29.1 21.29,21.66 37.5,44.12 59.01,64.93 12.26,11.88 24.35,16.2 33.21,29.42 18.64,27.99 3.45,1.98 1.71,13.68 -1.26,8.16 -20.14,0.13 1.92,7.36 5.22,0.16 31.62,-12.47 70.88,-13.02l911.43 -114.15c185.03,-27.71 419.27,-50.96 610.2,-75.56 172.76,-22.28 442.74,-60.99 609.29,-76.59 103.48,-9.74 206.3,-29.73 306.69,-39.14 -23.5,-48.22 -53.87,-102.11 -1.76,-151.43 55.92,-52.89 317.59,-69.11 426.29,-83.01l721.63 -102.27c135.93,-18.48 166.28,-11.88 319.18,-45.09 116.01,-25.18 234.68,-73.14 335.64,-124.21l116.23 -67.13c79.79,-54.11 189.92,-137.19 256.51,-211.52 110.46,-123.5 152.87,-171.73 241.53,-325.4 15.4,-26.67 58.4,-105.08 63.73,-131.53 -18.43,10.36 -127.68,26.62 -158.81,33.42l-496.28 96.94 0.01 0 -0.01 -0.02zm-1717.62 1221.76c-55.8,0 -501.89,61.08 -625.16,72.15 -114.7,10.22 -260.79,36.66 -378.03,45.09 -38.28,2.78 -80.87,8.85 -122.46,14.72 -36.85,5.2 -91,10.54 -127.45,15.62 -86.03,11.88 -164.95,18.52 -250.89,29.08 -192.37,23.5 -440.54,45.98 -623.46,74.01l-381.32 41.79c1.26,0.88 3.5,-0.05 4.17,1.93l16.55 8.03c10.61,6.39 12.01,8.79 19.64,17.26 12.04,13.3 19.9,22.58 32.21,36.08 23.98,26.38 43.57,51.63 69.34,73.25 60.09,50.15 177.37,201.35 231.87,251.55l105.84 110.86c25.08,18.71 91.95,7.92 128.55,7.97l3210.98 0c-10.22,-15.38 -55.54,-41.84 -74.94,-53.83l-1121.47 -728.05c-58.34,-38.71 -52.14,-24.57 -113.99,-17.49l0 -0.01 0.02 0zm-1588.89 1268.44c-364.54,-108.53 -610.2,403.97 -304.07,679.34 398.63,358.56 878.54,-508.28 304.07,-679.34zm693.75 605.55c72.63,-165.61 65.7,-415.29 -43.27,-580.79 -96.27,-146.15 -264.69,-225.22 -424.49,-260.47 -134.05,-29.57 -317.82,-44.3 -463.41,-21.54 -27.04,4.24 -51.46,0.78 -77.91,5.2 -115.96,19.24 -222.08,47.61 -321.05,101.44 -141.24,76.8 -258.03,210.31 -289.26,409.31 -17.1,109.08 -3.5,243.03 24.47,324.3 210.25,610.72 1378.8,515.77 1594.95,22.58l0.01 -0.01 -0.05 -0.02zm2778.04 108.22c224.8,0 588.06,47.13 634.2,-289.5 25.24,-183.59 -58.51,-346.3 -246.17,-384.77 -33.81,-6.97 -148.17,-21.17 -181.22,-21.5 -68.9,-0.62 -138.38,0.33 -207.4,0.33l0.62 695.46 0 -0.01 -0.04 -0.01zm-631.56 -688.79l206.39 -0.16 0.22 695.84 -206.52 -0.39 -0.09 234.13 796.84 -0.28c83.3,0 190.79,6.6 271.17,-0.16l117.5 -13.74c232.53,-26 418.88,-93.04 488.32,-352.51 21.17,-79.17 20.14,-155.71 20.14,-231.38 -0.09,-381.53 -277.34,-565.4 -578.43,-565.4l-1115.53 0.05 0 234.02 0.01 0 -0.02 -0.01zm-5713.61 0.12l195.09 -0.16 -0.33 695.5 -194.7 -0.16 0 234.24 843.79 -0.34 0.16 -240.39 -206.52 0 0 -221.08 625.29 0.39 0.43 227.25 -206.79 0 0.13 233.89 838.5 0.13 -0.43 -240.5 -200.58 -0.07 -0.22 -695.3 201.23 -0.05 -0.39 -227.42 -838.62 -0.07 0.29 233.8 206.46 0.09 0.43 227.53 -625.73 -0.05 -0.05 -234.02 206.39 0.07 0.07 -227.3 -843.91 -0.13 0 234.13 -0.01 0 0 0.04zm3683.16 0l200.87 -0.09 -0.16 695.65 -200.59 -0.39 -0.09 234.24 667.34 -0.16 -0.49 -240.5 -206.46 -0.07 0 -584.54 432.23 609c10.33,13.63 15.28,21.93 25.5,36.9l107.77 154.29c28.91,41.61 78.92,24.69 166.39,24.69 165.11,0 330.68,-1.38 495.68,0.22l0.29 -935.82 212.23 -0.16 0.13 -227.41 -684.84 0 0.16 233.79 212.69 0.22 -8.43 593.84c-4.62,-6.14 -6.6,-8.9 -10.45,-14.5l-572.11 -812.95 -837.65 -0.39 0 234.16 -0.04 0 0.02 -0.01zm4438.58 305.44l324.64 -0.29c-5.22,-22.09 -27.83,-53.06 -39.94,-72.91 -15.93,-26.21 -28.59,-46.65 -44.97,-73.84 -17.88,-29.52 -74.89,-131.85 -92.12,-145.6 -17.05,13.63 -62.3,116.34 -76.54,143.12l-35.69 71.32c-6.2,13.07 -11.3,26.06 -18.02,38.59 -7.43,13.81 -13.3,20.24 -17.39,39.6l0.04 0.01 -0.01 0zm1215.97 623.71l0 -240.46 -206.63 0 -507.25 -922.81 -873.89 0.13 0.22 233.68 229.82 0.22 -259.35 519.98c-17.49,32.78 -77.7,150.93 -82.88,175.35l-218.4 0.33 0.34 233.47 702.03 0.39 0 -240.73 -194.87 0.07c4.56,-21.67 20.67,-45.64 31.45,-69.45 11.33,-25.14 22,-43.33 33.54,-67.09l555.01 0.07c8.07,33.54 74.43,109.53 82.59,142.96l-200.75 -0.07 0 233.87 908.95 0.09 0.05 -0.01 0.04 0zm-9361.27 -3593.89l0 143.02c0.78,1.36 1.36,3.58 1.76,4.62l22.99 110.86c65.82,263.91 239.08,433.98 407.44,617.41 14.79,16.11 21,18.15 35.57,32.28 67.41,65.37 128.33,141.16 191.85,211.25 22.81,25.18 41.56,47.01 64.83,71.59 14.02,14.79 21.59,18.02 35.53,32.27 99.86,102.05 190.08,216.3 292.1,315.33 43.16,41.84 85.66,94.08 127.07,139.6l165.23 175.51c60.04,61.63 252.32,296.25 293.73,313.46 28.26,11.71 576.28,3.64 634.46,3.36 -18.31,-29.52 -104.25,-104.53 -134.33,-138.13l-544.51 -544.24c-48.16,-40.36 -87.54,-92.48 -136.69,-135.42l-543.57 -545.34c-90.08,-100.46 -214.12,-206.58 -307.1,-305.33 -11.88,-12.52 -21.38,-22.64 -32.44,-35.74 -86.37,-102.44 -164.81,-273.38 -109.59,-416.55 13.07,-33.86 29.8,-62.79 50.59,-87.32 118.65,-140.09 335.09,-242.91 502.49,-304.57 66.15,-24.35 126.8,-51.36 191.85,-74.77l481.16 -185.11c34.25,-13.36 60.09,-23.98 95.94,-37.35 257.72,-96.11 511.42,-202.94 768.69,-297.36l2300.38 -892.06c257.29,-93.69 511.48,-200.26 767.38,-299.02 66.65,-25.73 129.15,-48.67 192.01,-74.43 181.06,-74.29 408.26,-150.93 575.79,-224.02 64.22,-27.99 128.39,-46.13 192.33,-74.15 65.11,-28.43 126.87,-47.18 192.23,-74.23 29.52,-12.2 65.77,-25.18 96.06,-37.22l479.68 -186.78c191.57,-72.7 382.08,-153.57 575.41,-224.23 63.45,-23.15 124.59,-50.42 191.78,-74.86 172.6,-62.67 340.47,-130.24 482.55,-254.97 173.52,-152.38 255.83,-336.3 330.56,-565.55l137.4 -420.42c10.4,-29.36 61.59,-184.08 62.46,-204.15 -55.09,20.07 -101.82,44.81 -156.01,68.68l-440.04 197.72c-197.83,87.32 -388.19,176.23 -586.91,263.77 -52.29,23.04 -99.3,45.09 -151,67.73 -49.54,21.72 -96.77,42.99 -146.81,65.77l-439.5 198.42c-48.5,23.81 -100.39,45.52 -146.42,66.3 -485.09,218.89 -986.75,449.17 -1471.5,661.01l-585.92 264.53c-49.87,23.43 -96.22,43.82 -146.74,66.09l-1031.24 463.11c-980.01,435.1 -1958.71,885.53 -2938.71,1320.14 -184.02,81.65 -401.17,168.53 -556.43,297.24 -168.63,139.79 -288.02,298.02 -328.32,522.22l-5.55 19.95 0.01 0.01 0.01 0.04z"/>
  <path class="fil1" d="M33609.38 20122.82c21.17,-36.51 40.92,-94.72 6.81,-137.62 -30.47,-38.28 -100.89,-45.8 -165.38,-65.32 -15.79,-4.79 -32.38,-8.07 -52.03,-14.24 -36.16,-11.39 -67.41,-19.28 -103.03,-29.73 -66.99,-19.47 -133.18,-38.66 -201.08,-58.45 -66.37,-19.28 -134.33,-39.1 -201.08,-58.45l-1832.09 -534.41c-63.45,-18.97 -133.6,-37.88 -200.2,-59.37l-205.53 -60.15c-459.5,-124.36 -954.37,-290.38 -1414.64,-414.65 -36.85,-9.88 -68.02,-19.52 -102.95,-29.73 -33.28,-9.67 -66.8,-18.85 -102.6,-30.35 -134.6,-42.99 -448.62,-121.12 -549.72,-169.18l-158.81 -111.5c-169.4,-150.66 -268.82,-296.59 -387.03,-490.96l-118.5 -220.7c-32.99,-72.3 -79.08,-155.67 -109.25,-237.32 -6.12,-16.43 -12.59,-30.01 -21.06,-48.56 -8.58,-18.85 -12.36,-33.3 -19.78,-49.65 31.77,2.55 564.85,204.44 629.44,224.55 108.65,33.81 210.59,75.9 316.05,114.15 943.76,342.52 1894.48,677.14 2837.32,1021.95 108.58,39.7 212.4,75.72 316.55,113.72l2996.77 1073.86c190.19,69.82 620.35,208.6 757.89,317.53 87.77,69.45 89.68,215.88 4.4,310.55 -35.65,39.59 -67.73,74.13 -103.58,113.72 -40.63,44.76 -22.99,48.98 -152.74,8.58 -111.5,-34.75 -223.02,-59.73 -332.95,-95.51 -156.75,-51.02 -498.82,-144.89 -666.7,-190.26 -136.09,-36.85 -445.98,-121.09 -582.51,-165.78l-69.94 -20.56c-1.26,-0.55 -3.08,-1.38 -4.17,-1.86 -1.1,-0.49 -3.14,-1.64 -4,-2.05 -0.88,-0.43 -2.68,-1.33 -3.91,-2.21l0.01 -0.01zm1685.16 617.65l-75.22 72.91c-12.01,11.43 -14.74,11.21 -26.59,22.86l-204.27 197.87c-19.19,19.68 -84.18,79.1 -84.73,91.87l0.67 4.21c-150.39,-38.33 -428.34,-85.06 -577.91,-112.38l-1520.38 -285.38c-9.67,-2.97 -18.52,-0.99 -9.85,-20.85 19.24,-43.88 51.58,-114.64 -36.73,-155.55 -70.33,-32.57 -137.95,-22.33 -217.24,-40.64 -902.43,-208.32 -1826.42,-409.12 -2733.3,-609.95 -43,-9.56 -183.21,-42.65 -215.44,-42.61 -47.23,0 -163.19,-34.81 -212.19,-52.84 -62.9,-23.15 -126.62,-50.09 -186.11,-81.49 -32.72,-17.22 -53.66,-32.66 -84.63,-49.87 -19.07,-10.54 -23.52,-13.68 -40.97,-26.38 -15.67,-11.33 -24.95,-16.01 -40.46,-27.16 -29.14,-21.06 -48.88,-37.16 -75.99,-59.37l-106.54 -97.31c-33.16,-30.79 -72.42,-67.58 -99.65,-105.08 -110.67,-152.69 -173.87,-221.21 -265.17,-423.27 -13.21,-29.27 -33.88,-68.95 -41.45,-103.99 34.71,0.83 1208.78,332 1286.91,353.52l5567.26 1550.84 -0.04 0.01 0.01 0.02zm-5286.97 -448.56l4796.31 942.33c-31.35,49.28 -63.89,66.37 -87.43,92.37 -11.43,12.65 -17.93,20.23 -29.36,32.72 -11,11.88 -18.48,21.54 -29.76,32.27 -13.78,13.3 -18.73,14.52 -32.59,29.27 -20.45,21.78 -37.77,45.31 -59.16,64.93 -13.07,12.01 -16,11.83 -29.48,26.12 -11.33,12.04 -18.21,20.5 -29.3,32.72 -11,12.04 -18.43,21.24 -29.57,32.5 -13.47,13.68 -19.13,15.28 -32.66,29.1 -21.45,21.66 -37.59,44.12 -59.16,64.93 -12.26,11.88 -24.47,16.2 -33.33,29.42 -18.64,27.99 -3.45,1.98 -1.71,13.68 1.29,8.16 20.2,0.13 -1.86,7.36 -5.22,0.16 -31.73,-12.47 -71.01,-13.02l-913.3 -114.15c-185.42,-27.71 -420.1,-50.96 -611.37,-75.56 -173.04,-22.28 -443.62,-60.99 -610.43,-76.59 -103.7,-9.74 -206.73,-29.73 -307.31,-39.14 23.5,-48.22 53.93,-102.11 1.71,-151.43 -56.02,-52.89 -318.19,-69.11 -427.05,-83.01l-723.1 -102.27c-136.2,-18.48 -166.6,-11.88 -319.85,-45.09 -116.13,-25.18 -235.11,-73.14 -336.22,-124.21l-116.47 -67.13c-79.95,-54.11 -190.3,-137.19 -257,-211.52 -110.67,-123.5 -153.16,-171.73 -242.04,-325.4 -15.4,-26.67 -58.55,-105.08 -63.89,-131.53 18.48,10.36 127.91,26.62 159.17,33.42l497.22 96.94 0.01 0 -0.02 -0.02zm1721.03 1221.76c55.86,0 502.84,61.08 626.33,72.15 114.96,10.22 261.34,36.66 378.84,45.09 38.28,2.78 81.01,8.85 122.62,14.72 36.94,5.2 91.16,10.54 127.68,15.62 86.26,11.88 165.33,18.52 251.5,29.08 192.73,23.5 441.31,45.98 624.63,74.01l382.08 41.79c-1.31,0.88 -3.5,-0.05 -4.21,1.93l-16.57 8.03c-10.61,6.39 -12.04,8.79 -19.68,17.26 -11.99,13.3 -19.95,22.58 -32.27,36.08 -23.98,26.38 -43.59,51.63 -69.51,73.25 -60.15,50.15 -177.7,201.35 -232.31,251.55l-106.08 110.86c-25.06,18.71 -92.08,7.92 -128.76,7.97l-3217.33 0c10.22,-15.38 55.65,-41.84 75.11,-53.83l1123.67 -728.05c58.51,-38.71 52.22,-24.57 114.27,-17.49l-0.01 -0.01 0.01 0zm-1769.97 1268.44c-365.31,-108.53 -611.49,403.97 -304.73,679.34 399.41,358.56 880.24,-508.28 304.73,-679.34zm695.08 605.55c72.7,-165.61 65.82,-415.29 -43.38,-580.79 -96.5,-146.15 -265.25,-225.22 -425.31,-260.47 -134.33,-29.57 -318.42,-44.3 -464.33,-21.54 -27.07,4.24 -51.52,0.78 -78.01,5.2 -116.24,19.24 -222.54,47.61 -321.76,101.44 -141.43,76.8 -258.51,210.31 -289.77,409.31 -17.1,109.08 -3.52,243.03 24.47,324.3 210.7,610.72 1381.54,515.77 1598.12,22.58l0.01 -0.01 -0.05 -0.02zm2783.44 108.22c225.24,0 589.21,47.13 635.49,-289.5 25.24,-183.59 -58.66,-346.3 -246.67,-384.77 -33.92,-6.97 -148.52,-21.17 -181.61,-21.5 -69.07,-0.62 -138.68,0.33 -207.8,0.33l0.55 695.46 0 -0.01 0.04 -0.01zm-632.72 -688.79l206.79 -0.16 0.16 695.84 -206.95 -0.39 -0.09 234.13 798.44 -0.28c83.51,0 191.18,6.6 271.75,-0.16l117.72 -13.74c233.03,-26 419.7,-93.04 489.24,-352.51 21.22,-79.17 20.16,-155.71 20.16,-231.38 -0.09,-381.53 -277.84,-565.4 -579.55,-565.4l-1117.68 0.05 0 234.02 0.01 0 0 -0.01zm-5724.89 0.12l195.52 -0.16 -0.33 695.5 -195.09 -0.16 -0.05 234.24 845.44 -0.34 0.22 -240.39 -207.02 0 0 -221.08 626.61 0.39 0.39 227.25 -207.19 0 0.07 233.89 840.22 0.13 -0.43 -240.5 -200.96 -0.07 -0.22 -695.3 201.63 -0.05 -0.39 -227.42 -840.29 -0.07 0.29 233.8 206.9 0.09 0.39 227.53 -627 -0.05 0 -234.02 206.79 0.07 0.07 -227.3 -845.56 -0.13 0 234.13 -0.01 0 0 0.04zm3690.41 0l201.23 -0.09 -0.18 695.65 -201.02 -0.39 -0.05 234.24 668.61 -0.16 -0.43 -240.5 -206.9 -0.07 0 -584.54 433.11 609c10.33,13.63 15.35,21.93 25.56,36.9l107.94 154.29c28.97,41.61 79.1,24.69 166.71,24.69 165.38,0 331.33,-1.38 496.67,0.22l0.22 -935.82 212.68 -0.16 0.09 -227.41 -686.22 0 0.22 233.79 213.05 0.22 -8.35 593.84c-4.72,-6.14 -6.71,-8.9 -10.51,-14.5l-573.21 -812.95 -839.34 -0.39 0.07 234.16 0.05 0 0 -0.01zm4447.27 305.44l325.23 -0.29c-5.2,-22.09 -27.88,-53.06 -39.94,-72.91 -16.07,-26.21 -28.75,-46.65 -45.14,-73.84 -17.86,-29.52 -75.01,-131.85 -92.24,-145.6 -17.05,13.63 -62.42,116.34 -76.7,143.12l-35.74 71.32c-6.21,13.07 -11.33,26.06 -18.02,38.59 -7.43,13.81 -13.36,20.24 -17.42,39.6l0.01 0.01 -0.04 0zm1218.35 623.71l0 -240.46 -206.95 0 -508.28 -922.81 -875.62 0.13 0.21 233.68 230.32 0.22 -259.92 519.98c-17.49,32.78 -77.8,150.93 -83.01,175.35l-218.8 0.33 0.39 233.47 703.36 0.39 0 -240.73 -195.3 0.07c4.62,-21.67 20.78,-45.64 31.56,-69.45 11.39,-25.14 22.05,-43.33 33.58,-67.09l556.12 0.07c8.07,33.54 74.6,109.53 82.7,142.96l-201.08 -0.07 -0.07 233.87 910.76 0.09 0 -0.01 0.04 0zm-212.3 -3593.89l0 143.02c-0.88,1.36 -1.43,3.58 -1.81,4.62l-23.04 110.86c-65.94,263.91 -239.58,433.98 -408.2,617.41 -14.85,16.11 -21.06,18.15 -35.69,32.28 -67.52,65.37 -128.6,141.16 -192.16,211.25 -22.88,25.18 -41.68,47.01 -65,71.59 -14.08,14.79 -21.59,18.02 -35.63,32.27 -99.91,102.05 -190.37,216.3 -292.58,315.33 -43.21,41.84 -85.89,94.08 -127.36,139.6l-165.52 175.51c-60.2,61.63 -252.88,296.25 -294.38,313.46 -28.28,11.71 -577.4,3.64 -635.68,3.36 18.36,-29.52 104.46,-104.53 134.55,-138.13l545.55 -544.24c48.27,-40.36 87.8,-92.48 137.08,-135.42l544.62 -545.34c90.18,-100.46 214.51,-206.58 307.64,-305.33 11.88,-12.52 21.51,-22.64 32.5,-35.74 86.6,-102.44 165.12,-273.38 109.8,-416.55 -13.07,-33.86 -29.8,-62.79 -50.64,-87.32 -118.86,-140.09 -335.73,-242.91 -503.49,-304.57 -66.3,-24.35 -127.01,-51.36 -192.23,-74.77l-482.05 -185.11c-34.36,-13.36 -60.27,-23.98 -96.22,-37.35 -258.15,-96.11 -512.41,-202.94 -770.16,-297.36l-2304.89 -892.06c-257.76,-93.69 -512.46,-200.26 -768.85,-299.02 -66.75,-25.73 -129.42,-48.67 -192.33,-74.43 -181.45,-74.29 -409.12,-150.93 -577.01,-224.02 -64.32,-27.99 -128.55,-46.13 -192.67,-74.15 -65.27,-28.43 -127.07,-47.18 -192.67,-74.23 -29.52,-12.2 -65.8,-25.18 -96.15,-37.22l-480.62 -186.78c-192.01,-72.7 -382.84,-153.57 -576.62,-224.23 -63.56,-23.15 -124.76,-50.42 -192.11,-74.86 -172.95,-62.67 -341.11,-130.24 -483.48,-254.97 -173.87,-152.38 -256.34,-336.3 -331.18,-565.55l-137.74 -420.42c-10.45,-29.36 -61.7,-184.08 -62.56,-204.15 55.15,20.07 102,44.81 156.26,68.68l440.94 197.72c198.16,87.32 389.01,176.23 588.06,263.77 52.4,23.04 99.51,45.09 151.27,67.73 49.65,21.72 97.01,42.99 147.14,65.77l440.38 198.42c48.56,23.81 100.58,45.52 146.63,66.3 486.01,218.89 988.75,449.17 1474.37,661.01l587.12 264.53c49.93,23.43 96.4,43.82 147.03,66.09l1033.26 463.11c981.86,435.1 1962.51,885.53 2944.43,1320.14 184.42,81.65 401.94,168.53 557.55,297.24 168.97,139.79 288.68,298.02 328.98,522.22l5.59 19.95 -0.05 0.01 0.02 0.04z"/>
  <path class="fil2" d="M22442.4 25998.75l939.18 309.79c324.6,108.26 630.63,203.75 956.38,312.4l1432.24 470.94c119.93,39.97 353.19,136.28 498.11,136.28l1209.23 0c56.75,0 186.36,-151.92 221.02,-195.35 108.09,-135.52 177.36,-180.11 291.46,-323.16 35.06,-43.96 66.08,-70.46 107.02,-111.07 67,-66.43 143.2,-148.32 193.25,-223.1 -117.98,-56.64 -335.47,-115.24 -473.25,-161.15 -152.45,-50.81 -319.85,-100.63 -475.41,-158.98 -304.11,-114.03 -624.81,-211.87 -947.15,-321.63l-946.59 -322.2c-1076.34,-376.49 -824.81,-285.3 -2073.81,-285.3 -66.49,0 -181.22,158.39 -234.92,201.23 -95.6,76.28 -149.66,133.88 -235.88,220.12l-460.9 451.13 -0.01 0.01 0.01 0.05zm-4777.44 -1705.33l3337.97 1221.79c218.16,75.79 268.43,106.79 547.41,106.79 237.36,0 1209.23,-60.45 1209.23,-337.1 0,-174.32 -718.9,-381.45 -889.73,-438.55 -68.34,-22.84 -134.52,-51.93 -202.86,-74.68 -136.24,-45.38 -266.81,-91.65 -396.67,-138.59l-1184.59 -421.25c-128.55,-42.83 -257.03,-103.45 -398.78,-136.51 16.16,-60.57 17.44,-45.44 61.94,-76.86 156.05,-110.09 136.58,-58.32 544.91,84.51 502.99,175.93 1769.9,640.52 2204.63,769.13 183.21,54.19 843.87,-62.94 1093.74,-62.94l-2406.11 -825.35c-208.39,-69.51 -1362.92,-483.38 -1479.27,-483.38l-1189.41 0c-60.59,0 -178.93,149.24 -223.02,193.33l-629.42 619.66 0.01 0 0.02 0zm3424.87 555.23c-164.69,198.35 -1667.96,-363.62 -1957.63,-438.49 61.94,-57.36 129.02,-87.83 200.93,-133.89 102.95,-65.95 103.15,-90.06 231.31,-40 172.08,67.2 349.13,127.29 521.33,193.67 175.61,67.68 344.47,124.55 526.33,187.31 154.86,53.43 420.81,108.57 477.74,231.43l0.01 -0.01 -0.01 -0.02zm-5030.56 -2300.2c10.29,94 18.22,61.64 240.32,136.35 72.56,24.42 218.73,75.43 294.88,81.77 -18.14,67.94 -27.99,62.02 -78.73,99.7 -49.65,36.86 -58.36,50.63 -104.46,93.8l-320.74 274.02c-54.67,42.49 -57.9,46.65 -105.37,92.88 -77.59,75.58 -140.69,99.42 -203.43,193.11 193.33,45.07 1431.01,594.89 1506.57,594.89 40,0 132.78,-86.11 163.72,-113.87 54.69,-49.06 104.58,-85.4 164.72,-132.66 114.83,-90.21 201.88,-167.18 317.18,-257.76 114.83,-90.21 201.88,-167.2 317.17,-257.8 71.59,-56.23 264.12,-206.63 305.92,-269.03 -77.93,-37.41 -192.81,-65.35 -277.53,-99.15l-1487.12 -495.48 -3.44 -0.25 -80.51 0c-193.52,5.64 -607.59,39.55 -649.15,59.49l0.01 -0.01 -0.01 0.01zm18814.85 6848.2c1.67,-32.66 -4.88,-57.79 -19.28,-75.29 -14.43,-17.51 -35.19,-29.31 -62.64,-35.53 -31.58,-7.15 -58.66,-2.45 -81.22,13.95 -14.22,10.19 -25.16,27.65 -32.93,52.51l196.08 44.36 -0.01 0zm188.04 123.73l-398.12 -90.06c-0.85,27.01 4.21,48.53 15.8,64.53 15.93,22.84 39.46,37.69 70.37,44.7 19.64,4.42 38.93,4.67 57.79,0.7 11.7,-2.63 24.87,-8.9 39.39,-18.86l193.02 59.06c-37.35,36.01 -78.73,58.66 -124.21,67.6 -45.46,9.08 -107.77,4.69 -186.75,-13.21 -68.71,-15.54 -121.21,-35.65 -157.82,-60.61 -36.51,-24.78 -64.72,-57.5 -84.65,-98.06 -19.76,-40.64 -25.66,-84.43 -17.58,-131.3 11.54,-66.75 46.85,-115.02 105.88,-144.55 58.86,-29.56 134.1,-34.04 225.43,-13.39 74.18,16.78 130.93,39.31 170.64,67.52 39.72,28.22 67.83,62.33 84.2,102.65 16.38,40.18 19.6,88.49 9.88,144.8l-3.22 18.51 -0.01 0 -0.05 -0.02zm-1134.27 -688.97l202.57 45.81 -52.42 303.18 172.58 -107.65 243.99 55.17 -211.45 107.44 148.59 321.88 -223.35 -50.52 -75.52 -194.83 -85.08 43.28 -19.18 110.88 -202.57 -45.81 101.82 -588.82 -0.01 -0.01 0.05 0zm-379 315.07c-28.68,1.92 -58.34,2.63 -89.2,2.19 -41.79,-0.21 -68.92,2.76 -81.06,9.02 -12.68,6.39 -19.93,15.28 -21.88,26.64 -2.26,13.02 1.39,24.95 10.78,35.64 9.56,10.7 24.82,18.43 45.93,23.2 22.09,5 43.53,5.15 64.18,0.57 20.5,-4.62 35.84,-12.39 46.06,-23.5 10.2,-11.07 17.1,-26.88 20.67,-47.45l4.53 -26.32 0 -0.01zm-156.85 -124.35l-186.75 -59.35c11.89,-25.81 25.93,-44.99 42.08,-57.56 16.21,-12.73 37.85,-21.93 65.27,-27.7 19.58,-4.25 45.65,-5.07 78.2,-2.39 32.53,2.66 67.39,8.11 104.46,16.49 59.36,13.43 106.46,26.94 141.59,40.59 35,13.6 63.1,31.93 84.02,54.74 14.9,15.9 25.23,36.05 31.06,60.3 6.01,24.29 7.17,46.5 3.7,66.65l-32.61 188.59c-3.5,20.15 -4.72,36.24 -3.52,48.35 1.02,12.08 5.36,28.14 12.6,48.14l-185.76 -42.01c-5.57,-12.65 -8.99,-21.96 -10.32,-28.25 -1.17,-6.26 -1.94,-15.67 -2.19,-28.41 -29.48,14.7 -57.81,23.52 -85.09,26.48 -37.14,3.85 -78.92,0.51 -125.3,-9.98 -61.7,-13.95 -106.58,-36.35 -134.39,-67.28 -28.01,-30.85 -38.92,-63.65 -32.93,-98.19 5.62,-32.48 21.72,-56.6 48.43,-72.36 26.75,-15.75 72.05,-21.74 135.82,-17.84 76.46,4.48 126.17,6.73 149.16,6.68 22.97,0.07 47.53,-1.08 73.56,-3.58 3.5,-20.14 0.91,-35.26 -7.84,-45.64 -8.58,-10.36 -25.5,-18.3 -50.8,-24.02 -32.44,-7.34 -57.44,-8.58 -75.24,-3.64 -13.82,4 -26.14,14.35 -37.19,31.2l-0.04 -0.01 0.02 0zm-615.74 -282.83l185.94 42.06 -12.04 69.64c23.2,-26.21 45.26,-42.87 66.17,-49.99 21.09,-7.04 45.51,-7.36 73.44,-1.04 29.44,6.65 60.22,21.46 92.37,44.38l-81.58 102.18c-22.07,-13.39 -40,-21.58 -53.64,-24.66 -25.95,-5.86 -47.78,-1.52 -65.14,12.9 -24.77,20.35 -43.17,64.74 -55,133.15l-24.78 143.36 -199.57 -45.14 73.81 -426.82 -0.01 0.01 0.04 -0.02zm-593.55 177.65l112.59 25.47c38.08,8.61 65.83,9.06 83.39,1.47 17.52,-7.57 27.92,-20.61 31.16,-39.39 3.02,-17.41 -2.22,-33.12 -15.86,-47.16 -13.66,-14.05 -39.83,-25.53 -78.59,-34.3l-112.08 -25.36 -20.62 119.24 -0.01 0.01 0.01 0zm39.94 -231.1l96.3 21.78c34.41,7.78 59.37,8.28 74.53,1.63 15.19,-6.81 24.43,-19.42 27.63,-37.9 2.97,-17.14 -1.52,-32.09 -13.34,-44.76 -11.8,-12.79 -34.58,-22.92 -68,-30.48l-97.81 -22.09 -19.34 111.87 0.01 -0.01 0.02 -0.02zm-182.56 -281.44l413.61 93.57c68.85,15.57 119.32,41.65 151.37,78.1 32.07,36.45 44.51,75.43 37.32,116.96 -6.01,34.81 -24.32,61.73 -55.07,80.55 -20.35,12.79 -48.37,19.95 -83.83,22.07 49.65,21.75 84.22,47.66 104.2,77.97 19.85,30.26 26.59,64.14 20.14,101.55 -5.29,30.56 -18.65,56 -40.02,76.54 -21.51,20.49 -48.43,34.34 -80.66,41.87 -20.14,4.56 -49.19,4.7 -87.29,0.21 -50.64,-5.91 -84.05,-10.59 -100.36,-14.29l-381.18 -86.22 101.8 -588.84 0 -0.01 -0.02 -0.02zm-700.07 9.98l198.59 44.91 -73.81 426.83 -198.56 -44.91 73.79 -426.83zm28.01 -162l198.58 44.91 -19.21 111.01 -198.56 -44.91 19.19 -111.01 0.01 0zm-537.08 266.9c-6.39,36.87 -2.68,65.49 11.28,85.73 13.77,20.35 33.45,33.36 59.08,39.14 23.63,5.36 44.96,1.76 63.74,-10.93 18.94,-12.67 31.65,-38.15 38.29,-76.51 5.86,-33.86 2.34,-60.58 -10.72,-79.92 -12.9,-19.45 -30.63,-31.72 -52.93,-36.77 -26.95,-6.1 -50.31,-2.82 -70.15,9.93 -19.97,12.57 -32.8,35.74 -38.59,69.3l0 0.01 0 0.01zm-134.44 -418.8l200.58 45.37 -35.15 203.41c22.72,-12.65 47.4,-20.33 74.15,-23.23 26.59,-2.82 55.09,-0.8 85.69,6.12 63.02,14.24 111.87,44.68 146.63,91.42 34.79,46.74 46.1,105.15 33.99,175.2 -8.05,46.57 -24.63,85.59 -49.59,116.95 -24.92,31.27 -55.65,51.94 -91.95,61.97 -36.29,10 -74.73,10.43 -115.3,1.26 -34.75,-7.86 -65.62,-21.27 -92.24,-40.1 -20.08,-14.66 -40.76,-38.15 -61.73,-70.67l-10.93 63.19 -185.94 -42.06 101.8 -588.82 0.01 -0.01 -0.04 0zm-1024.87 -63.48l184.94 41.84 -10.74 62.08c31.11,-20 61.25,-32.44 90.27,-37.27 29,-4.83 62.71,-2.9 101.14,5.78 41.24,9.35 72.8,22.75 94.84,40.27 22.01,17.52 38.55,39.91 49.72,67.21 35.9,-20.79 67.47,-33.45 94.81,-37.67 27.36,-4.21 59.8,-2.13 97.43,6.35 55.36,12.52 96.26,35.87 122.66,70.2 26.41,34.18 34.67,80.34 24.66,138.17l-46.39 268.25 -198.56 -44.91 42.16 -243.84c3.37,-19.47 1.36,-34.88 -6.18,-46.29 -10.57,-17.79 -25.93,-28.93 -45.54,-33.37 -23.29,-5.28 -43.27,-2.55 -60.01,8.24 -16.57,10.78 -27.59,31.64 -32.93,62.47l-38.19 220.95 -198.58 -44.91 40.65 -235.19c3.24,-18.79 4.14,-31.82 2.63,-39.14 -2.32,-11.63 -8.16,-21.92 -17.49,-30.87 -9.16,-8.93 -20.9,-14.98 -34.88,-18.14 -22.78,-5.15 -42.79,-2.28 -59.88,8.52 -17.1,10.93 -28.43,32.59 -34.08,65.07l-37.69 217.95 -198.56 -44.92 73.81 -426.83 -0.04 -0.01 0.02 0zm-529.99 102.89c-6.62,38.25 -2.18,68.59 13.28,91.02 15.48,22.43 37.16,36.91 65.44,43.3 28.43,6.44 53.28,2.66 74.68,-11.16 21.38,-13.82 35.55,-40.67 42.43,-80.43 6.41,-37.14 2.05,-66.78 -13.27,-89.18 -15.35,-22.28 -36.57,-36.45 -63.84,-42.64 -28.76,-6.51 -54.14,-2.71 -76.11,11.41 -21.99,14.26 -36.13,40.12 -42.64,77.68l0.04 0.01zm-198.61 -44.65c11.28,-65.25 47.18,-112.94 107.69,-143.16 60.51,-30.18 136.03,-35.02 226.48,-14.56 103.62,23.43 177.49,65.94 221.8,127.51 35.48,49.61 48.27,103.64 38.16,162.02 -11.39,65.8 -46.95,113.59 -106.94,143.73 -59.96,30.01 -136.58,34.5 -229.73,13.42 -83,-18.77 -147.16,-51.36 -192.33,-97.91 -55.57,-57.42 -77.21,-121.17 -65.14,-191.05l0.01 0 -0.01 -0.01zm-258.28 -88.34l185.26 91.9c-20.7,41.74 -47.64,74.52 -80.89,98.06 -33.15,23.71 -71.65,38.5 -115.86,44.29 -44.03,5.86 -98.08,1.63 -162.1,-12.86 -77.84,-17.6 -139.59,-41.24 -185.8,-70.94 -46,-29.79 -82.75,-72.15 -110.42,-126.95 -27.67,-54.83 -35.26,-118.95 -22.64,-191.86 16.83,-97.31 61.21,-165.04 133.13,-203.2 72.05,-37.96 165.57,-44.01 280.65,-17.97 89.96,20.35 158.24,51.31 204.59,92.99 46.19,41.63 76.65,96.36 90.84,164.24l-200.72 -8.5c-3.71,-19.37 -8.64,-33.99 -14.7,-43.92 -10.09,-16.67 -23.36,-30.78 -39.89,-42.22 -16.66,-11.6 -35.97,-19.81 -58.08,-24.82 -50.22,-11.36 -91.52,-3.45 -123.84,23.58 -24.35,19.95 -41.19,56.33 -50.26,108.81 -11.28,65.27 -7.01,112.51 12.92,142.23 19.94,29.57 51.63,49.28 95.2,59.1 42.23,9.56 75.85,7.04 100.84,-7.65 25.01,-14.58 45.51,-39.41 61.78,-74.34l-0.01 0.01 -0.02 -0.01zm-4112.69 -2119.02c44.28,-35.73 68.74,-66.55 114.54,-102.95 80.18,-63.73 149.2,-177.76 264.25,-156.42 174.72,32.38 1317.3,386.22 1655.45,470.6 -84.35,99.67 -314.31,244.89 -432.46,340.34 -121.11,97.85 -163.61,65.29 -341.68,60.3 -125.53,-3.5 -251.1,-6.75 -376.65,-10.06 -509.32,-13.36 -771.49,-192.33 -1232.16,-289.84l348.7 -312.01 0 0.01 0.01 0.02z"/>
  <path class="fil2" d="M55443.45 29285.02c0,469.56 19.82,903.48 19.82,1389.23 100.34,-8.37 655.85,-234.68 805.42,-285.17 500.91,-169.09 1101.69,-432.26 1600.38,-600.62l1400.07 -523.31c64.32,-25.39 144.33,-49.25 201.67,-75.93l447.39 -385.6c57.89,-58.93 92.51,-73.69 149.17,-128.5 373.76,-361.35 486.15,-322.22 439.13,-628.93l-67.87 -1043.49 -665.59 226.67c-690.04,267.52 -1623.42,587.84 -2344.9,847.51 -164.54,59.23 -898.94,296.82 -989,379.19l-859.86 726.78c-57.26,46.72 -62.3,82.46 -135.87,102.13l0.01 0 0.01 0.04zm-5233.05 1905.21l20.48 1231.63c16.97,91.61 79.63,34.94 284.35,-33.41l3508.62 -1170.82c147.59,-48.29 173.31,-73.71 286.03,-150.23 196.98,-133.73 386.41,-336.57 530.76,-520.45 112.23,-142.98 430.01,-510.8 301.73,-682.15 -139.89,-186.83 -724.24,76.67 -965,157l-2539.78 870.7c0,-108.1 31.82,-163.82 39.65,-258.01 88.8,-7.42 170.16,-53.93 255.02,-82.06l500.72 -173.43c91.58,-33.15 162.04,-60.71 262.67,-94.28 349.78,-116.65 670.44,-231.69 1015.61,-352.53 92.43,-32.37 160.09,-53.27 253.09,-84.01l495.33 -178.85c143.73,-47.91 130.09,-33.33 225.78,-131.16 136.99,-140.02 589.77,-606.34 658.89,-709.69l-3437.62 1241.92c-63.13,24.47 -97.91,33.22 -162.8,55.3l-347.07 128.81c-58.34,21.8 -126.95,36.57 -174.85,63.11 -97.83,54.2 -155.46,138.49 -246.93,209.24l-254.65 221.36c-53.75,52.27 -62.5,64.53 -125.07,112.92 -55.07,42.57 -73.81,72.43 -122.5,115.51 -52.39,46.34 -76.14,55 -128.92,109.08 -47.58,48.77 -66.8,86.56 -133.57,104.41l0.01 0.01 0 0.07zm1375.8 -31.59c264.96,-114.56 628.81,-207.38 908.52,-301.04 232.53,-77.86 790.17,-324.57 935.72,-248.96 35.84,208.98 -657.34,457.02 -893.23,549.61l-1040.19 405.03 89.18 -404.62 0.01 0 -0.01 -0.02zm-4190.54 984.21c134.17,-31.29 618.28,-248.4 733.41,-258.01 0,415.84 -39.65,780.53 -39.65,1190.76 59.95,-5 168.08,-40.8 220.49,-57.08 73.22,-22.72 137.28,-42.22 213.26,-64.32l1290.76 -374.73 64.87 -887.65c15.32,-113.48 32.8,-310.02 33.91,-442.37l39.96 -456.13c-71.01,5.91 -589,207.17 -721.11,250.47 -94.2,30.87 -1160.12,403.04 -1226.83,458.57l-366.26 387.44c-79.01,79 -184.59,165.96 -242.82,253.02l0.01 0 -0.01 0.02zm-1265.99 1326.01c-12.02,-30.42 -28.41,-50.55 -48.8,-60.5 -20.37,-9.93 -44.17,-12.09 -71.72,-6.34 -31.72,6.62 -54.4,22.09 -68.09,46.4 -8.72,15.15 -11.43,35.61 -8.18,61.43l196.81 -41 -0.02 0.01zm222.44 34.53l-399.59 83.25c10.41,24.94 23.96,42.41 41.14,52.15 23.96,14.16 51.52,17.93 82.59,11.47 19.69,-4.12 37.35,-11.91 52.84,-23.36 9.56,-7.23 18.93,-18.43 28.01,-33.5l200.1 -26.38c-19.03,48.25 -47.29,86.05 -84.94,113.06 -37.59,27.12 -96.11,48.98 -175.41,65.48 -68.95,14.37 -125.09,17.81 -168.74,10.33 -43.49,-7.4 -82.74,-25.45 -117.72,-54.08 -34.84,-28.79 -58.4,-66.16 -70.48,-112.16 -17.2,-65.51 -5.09,-124.1 36.36,-175.44 41.29,-51.33 107.9,-86.64 199.55,-105.72 74.43,-15.5 135.43,-18.55 183.29,-9.36 47.85,9.2 87.57,28.58 119.22,58.45 31.56,29.76 54.53,72.37 69.05,127.65l4.77 18.17 -0.01 0 -0.05 -0.01zm-1317.91 -156.23l203.33 -42.35 78.1 297.61 112.35 -169.57 244.89 -51.02 -147.81 185.47 268.77 231.22 -224.17 46.71 -149.58 -145.93 -59.44 74.68 28.55 108.85 -203.32 42.36 -151.69 -578 0.01 0 0.01 -0.04zm-214.12 443.91c-25.31,13.66 -52,26.59 -80.26,39.01 -38.11,17.14 -61.55,31.11 -70.01,41.84 -8.9,11.07 -11.8,22.17 -8.86,33.34 3.36,12.79 11.62,22.09 24.61,27.93 13.13,5.78 30.21,6.47 51.42,2.05 22.2,-4.62 41.73,-13.36 58.64,-26.12 16.75,-12.71 27.49,-26.15 32.17,-40.48 4.69,-14.31 4.4,-31.56 -0.91,-51.73l-6.79 -25.85 -0.01 0.01 0.01 -0.01zm-194.31 -48.06l-194.54 23.5c0.13,-28.41 4.93,-51.69 14.43,-69.85 9.48,-18.3 25.35,-35.64 47.89,-52.26 16.07,-12.01 39.43,-23.54 70.16,-34.63 30.69,-11.08 64.66,-20.57 101.89,-28.33 59.58,-12.42 108.03,-19.66 145.67,-21.82 37.48,-2.14 70.65,2.87 99.16,14.94 20.15,8.28 37.9,22.33 53.27,41.97 15.56,19.61 25.81,39.33 31,59.1l48.59 185.11c5.2,19.78 10.74,34.94 16.86,45.44 5.93,10.54 16.53,23.38 31.44,38.57l-186.45 38.84c-10.33,-9.2 -17.31,-16.28 -21.11,-21.41 -3.66,-5.21 -8.27,-13.45 -13.77,-24.95 -20.74,25.6 -42.85,45.41 -66.43,59.4 -32.19,18.92 -71.58,33.22 -118.14,42.91 -61.91,12.92 -112.04,11.14 -150.2,-5.45 -38.28,-16.43 -61.83,-41.74 -70.72,-75.66 -8.37,-31.88 -3.74,-60.51 14.05,-85.92 17.8,-25.43 56.51,-49.67 116.17,-72.6 71.44,-27.66 117.6,-46.22 138.49,-55.8 20.93,-9.48 42.79,-20.7 65.44,-33.79 -5.2,-19.76 -13.81,-32.45 -26.07,-38.25 -12.1,-5.87 -30.79,-6.07 -56.18,-0.8 -32.57,6.8 -55.84,16.03 -69.98,27.92 -10.92,9.36 -17.84,23.86 -20.88,43.8l0.01 0.01 -0.05 0.02zm-677.57 -1.86l186.62 -38.88 17.94 68.34c10.22,-33.49 23.38,-57.79 39.49,-72.94 16.28,-15.15 38.36,-25.58 66.38,-31.43 29.55,-6.14 63.72,-5.49 102.47,2.06l-31.85 126.82c-25.61,-3.03 -45.34,-3.03 -59.02,-0.2 -26.04,5.43 -44.12,18.43 -53.91,38.76 -14.1,28.79 -12.42,76.8 5.21,143.96l36.93 140.72 -200.31 41.73 -109.94 -418.96 -0.01 0.01 0 0.01zm-466.34 407.91l113 -23.54c38.22,-7.95 63.66,-19.07 76.49,-33.24 12.84,-14.16 16.86,-30.34 12.02,-48.77 -4.49,-17.08 -15.77,-29.21 -34,-36.35 -18.27,-7.13 -46.84,-6.71 -85.73,1.39l-112.51 23.44 30.73 117.05 0 0.01 0 0.01zm-59.55 -226.84l96.66 -20.15c34.54,-7.17 57.48,-17.07 68.51,-29.44 10.99,-12.51 14.16,-27.79 9.41,-45.94 -4.4,-16.83 -14.72,-28.58 -30.69,-35.19 -16.03,-6.73 -40.97,-6.51 -74.52,0.49l-98.16 20.45 28.81 109.78 -0.01 0 0 -0.01zm-282.89 -180.3l415.15 -86.51c69.1,-14.39 125.83,-11.6 170.14,8.26 44.3,19.86 71.79,50.16 82.48,90.93 8.98,34.18 3.5,66.28 -16.67,96.14 -13.21,20.07 -35.73,38.25 -67.12,54.87 54.19,-0.81 96.42,8.44 127.17,27.71 30.6,19.28 50.81,47.31 60.44,84.04 7.86,30 6.25,58.72 -4.67,86.24 -11.07,27.58 -29.84,51.35 -56.04,71.57 -16.43,12.52 -42.79,24.69 -79.35,36.43 -48.54,15.65 -80.87,25.22 -97.24,28.63l-382.57 79.71 -151.69 -577.99 -0.01 -0.04 -0.02 0zm-632.8 299.56l199.3 -41.53 109.94 418.98 -199.3 41.53 -109.95 -418.98 0.01 0zm-41.73 -159.01l199.3 -41.53 28.59 108.95 -199.3 41.53 -28.6 -108.95 0.01 0zm-377.95 465.69c9.5,36.19 24.73,60.7 45.81,73.31 20.96,12.79 44.29,16.46 70.01,11.09 23.71,-4.95 41.63,-17.05 53.45,-36.39 12.01,-19.4 13,-47.85 3.1,-85.5 -8.72,-33.24 -23.01,-56.09 -42.91,-68.26 -19.79,-12.35 -41.03,-16.15 -63.39,-11.49 -27.07,5.64 -46.95,18.31 -59.73,38.15 -12.94,19.72 -15,46.1 -6.35,79.08l-0.01 0.01 0.01 0zm-296.1 -325.27l201.31 -41.93 52.4 199.66c15.43,-20.96 34.68,-38.16 57.84,-51.92 23.02,-13.6 49.8,-23.58 80.52,-29.97 63.24,-13.18 120.32,-5.78 171.36,22.34 51.04,28.12 85.59,76.54 103.62,145.3 12.01,45.73 13.09,88.08 3.41,126.99 -9.71,38.78 -29.08,70.36 -57.95,94.54 -28.84,24.15 -63.66,40.5 -104.38,48.99 -34.88,7.25 -68.52,7.86 -100.59,1.79 -24.35,-5.01 -52.9,-17.79 -85.48,-38.67l16.28 62.02 -186.62 38.87 -151.69 -577.99 -0.01 -0.04 -0.02 0.01zm-958.82 367.48l185.63 -38.67 15.98 60.93c20,-31.08 42.27,-54.92 66.65,-71.36 24.36,-16.43 55.86,-28.67 94.41,-36.72 41.4,-8.61 75.66,-9.5 102.99,-2.71 27.3,6.81 51.63,20.33 73.14,40.52 24.05,-33.81 47.51,-58.43 70.64,-73.6 23.13,-15.17 53.53,-26.77 91.27,-34.63 55.59,-11.57 102.47,-7.3 140.72,12.94 38.21,20.15 64.87,58.72 79.77,115.49l69.1 263.3 -199.3 41.53 -62.81 -239.34c-5.01,-19.11 -13.23,-32.3 -24.82,-39.54 -17,-11.78 -35.61,-15.56 -55.3,-11.46 -23.36,4.86 -40.42,15.65 -51.15,32.37 -10.59,16.67 -11.99,40.23 -4.04,70.5l56.92 216.89 -199.3 41.53 -60.59 -230.88c-4.83,-18.44 -9.45,-30.66 -13.85,-36.72 -6.94,-9.64 -16.51,-16.58 -28.72,-20.85 -12.05,-4.28 -25.24,-4.95 -39.28,-2.05 -22.86,4.79 -39.89,15.7 -50.94,32.61 -11.01,17.05 -12.36,41.45 -3.99,73.33l56.14 213.95 -199.3 41.51 -109.95 -418.96 -0.01 0 -0.01 0.09zm-439.54 313.51c9.85,37.54 26.48,63.31 49.86,77.3 23.41,14.01 49.15,18.15 77.51,12.25 28.55,-5.93 49.58,-19.69 63.34,-41.14 13.73,-21.45 15.46,-51.77 5.22,-90.79 -9.57,-36.45 -25.85,-61.6 -49.06,-75.64 -23.2,-13.9 -48.37,-18.01 -75.78,-12.31 -28.86,6.01 -50.38,20 -64.51,41.95 -14.08,22.09 -16.24,51.5 -6.58,88.36l0 -0.01 0 0.04zm-199.23 41.79c-16.8,-64.05 -3.93,-122.36 38.59,-174.93 42.56,-52.56 109.23,-88.3 200.02,-107.22 104.02,-21.69 188.84,-13.66 254.71,23.98 52.87,30.42 86.93,74.27 101.94,131.58 16.93,64.58 4.41,122.81 -37.67,175.15 -42.08,52.19 -109.98,88.04 -203.46,107.53 -83.3,17.35 -155.23,14.31 -215.65,-9.28 -74.4,-29.21 -120.53,-78.2 -138.54,-146.81l0.01 0 0.04 0zm-271.66 26.78l206.69 6.75c-1.51,46.57 -12.39,87.57 -32.92,122.78 -20.31,35.32 -49.22,64.74 -87.01,88.37 -37.66,23.59 -88.58,42.16 -152.87,55.54 -78.12,16.29 -144.09,20.37 -198.45,12.57 -54.23,-8.02 -105.22,-31.29 -153.14,-69.69 -47.93,-38.42 -81.43,-93.59 -100.22,-165.17 -25.06,-95.51 -12.79,-175.56 36.82,-240.09 49.8,-64.44 132.38,-108.74 247.89,-132.79 90.3,-18.84 165.27,-18.97 224.74,-0.29 59.29,18.72 109.74,55.91 150.8,111.76l-186.16 75.53c-11.43,-16.07 -21.96,-27.36 -31.58,-33.86 -16.09,-10.99 -34.04,-18.3 -53.83,-21.86 -19.94,-3.66 -40.94,-3.1 -63.14,1.52 -50.42,10.5 -84.71,34.81 -102.89,72.81 -13.89,28.28 -14.11,68.34 -0.59,119.86 16.83,64.05 40.3,105.28 70.77,124.06 30.42,18.63 67.42,23.41 111.15,14.29 42.39,-8.85 71.94,-25.06 88.59,-48.82 16.7,-23.65 25.05,-54.74 25.35,-93.27l0.01 -0.01 -0.01 0.02zm17157.28 -6096.05c65.49,-49.72 1652.01,-725.98 1780.41,-758.03 -5.49,135.97 -27.08,280.83 -41.99,415.16 -16.91,152.31 0.78,264.81 -93.94,345.27l-482.63 390.56c-89.52,68.61 -138.15,135.68 -252.78,183.1 -211.39,87.46 -803.37,340.69 -948.19,379.17l39.12 -955.21 0 -0.01z"/>
 </g>
</svg>
