<?xml version="1.0" encoding="UTF-8"?>
<!DOCTYPE svg PUBLIC "-//W3C//DTD SVG 1.1//EN" "http://www.w3.org/Graphics/SVG/1.1/DTD/svg11.dtd">
<!-- Creator: CorelDRAW -->
<svg xmlns="http://www.w3.org/2000/svg" xml:space="preserve" width="100mm" height="250mm" version="1.1" style="shape-rendering:geometricPrecision; text-rendering:geometricPrecision; image-rendering:optimizeQuality; fill-rule:evenodd; clip-rule:evenodd"
viewBox="0 0 9985.76 24964.4"
 xmlns:xlink="http://www.w3.org/1999/xlink"
 xmlns:xodm="http://www.corel.com/coreldraw/odm/2003">
 <defs>
  <style type="text/css">
   <![CDATA[
    .fil1 {fill:black}
    .fil0 {fill:red}
   ]]>
  </style>
 </defs>
 <g id="Camada_x0020_1">
  <metadata id="CorelCorpID_0Corel-Layer"/>
  <g id="_1967957270528">
   <path id="DIABINHA_x0020_E_x0020_ANJINHA.cdr" class="fil0" d="M7483.86 23781.69l778.22 -369.46c574.56,-7804.07 1149.13,-15608.14 1723.68,-23412.22 -336.13,134.44 -674.9,254.78 -1015.67,361.38l-1486.23 23420.3z"/>
   <path id="DIABINHA_x0020_E_x0020_ANJINHA.cdr_0" class="fil1" d="M3035.64 24035.12l1957.24 929.28 1957.25 -929.28 1345.12 -23481.23c-2178.77,560.65 -4425.95,560.69 -6604.72,0l1345.12 23481.23 -0.01 0z"/>
   <path id="DIABINHA_x0020_E_x0020_ANJINHA.cdr_1" class="fil0" d="M14.06 5.61c-0.1,-0.46 0,-0.81 -0.24,-1.33 -0.09,-0.18 -0.43,-0.71 -0.6,-0.82 -0.17,-0.12 -0.27,-0.18 -0.45,-0.32 -0.46,-0.38 -0.86,-0.5 -1.45,-0.59 -0.95,-0.15 -1.7,-0.09 -2.39,0.36l-0.56 0.43 -8.38 -3.35 0.49 6.74c-0.28,0.06 -0.47,0.25 -0.49,0.71 0.01,0.62 0.09,1.4 0.33,1.97 0.15,0.33 0.28,0.66 0.42,1.01l0.02 0.05 1722.91 23401.75 778.22 369.46 -1486.23 -23420.3c-328.83,-102.87 -655.8,-218.5 -980.33,-347.29l0.3 -0.2c0.42,-0.26 0.18,-0.34 -0.18,-0.27l-0.82 0.19 -4.54 -1.81 -0.01 -0.54c-0.02,-0.4 0.09,-0.32 0.38,-0.25 0.3,0.09 0.14,-0.32 0.03,-0.46 -0.3,-0.36 -0.24,-0.73 -0.23,-1.21 0.01,-0.3 -0.03,-0.38 -0.06,-0.62 -0.07,-0.64 -0.01,-0.13 0.23,-0.49 -0.24,-0.4 -0.88,-0.6 -0.93,-1.4 -0.03,-0.42 0.05,-0.73 -0.09,-1.11 -0.04,-0.13 -0.14,-0.28 -0.12,-0.45 0.02,-0.14 0,-0.11 0.18,-0.24l-0.83 -1.53c-0.56,-0.91 -0.97,-1.58 -1.94,-2.09 -0.69,-0.36 -0.52,-0.61 -0.96,-1.05 -0.27,-0.27 -1.27,-1.06 -0.57,-0.07 0.66,0.93 -0.43,0.71 -1.25,0.93 -0.51,0.13 -1.01,0.51 -1.35,0.53 -0.09,-0.25 -0.13,-0.97 -0.2,-1.1 -0.29,0.14 -0.26,0.66 -0.26,0.94 -0.01,0.53 -0.02,0.64 -0.27,1.1 -0.29,0.51 -0.24,0.82 -0.3,1.37 -0.07,0.64 -0.4,0.88 -0.41,1.18 0.48,0.04 0.08,-0.26 0.67,-0.25 0.06,0.45 -0.09,1.13 -0.09,1.31 0,0.11 0.3,1.2 0.36,1.22l0.09 0.47c0.04,0.15 0.01,0.07 0.08,0.17 0.29,-0.13 0.21,-0.16 0.21,-0.55l0.25 0.03c0.01,0.38 0.14,0.64 0,1.13l-0.03 0.07 -8.63 -3.44z"/>
  </g>
 </g>
</svg>
