<?xml version="1.0" encoding="UTF-8"?>
<!DOCTYPE svg PUBLIC "-//W3C//DTD SVG 1.1//EN" "http://www.w3.org/Graphics/SVG/1.1/DTD/svg11.dtd">
<!-- Creator: CorelDRAW -->
<svg xmlns="http://www.w3.org/2000/svg" xml:space="preserve" width="100mm" height="250mm" version="1.1" style="shape-rendering:geometricPrecision; text-rendering:geometricPrecision; image-rendering:optimizeQuality; fill-rule:evenodd; clip-rule:evenodd"
viewBox="0 0 9985.76 24964.4"
 xmlns:xlink="http://www.w3.org/1999/xlink"
 xmlns:xodm="http://www.corel.com/coreldraw/odm/2003">
 <defs>
  <style type="text/css">
   <![CDATA[
    .fil1 {fill:black}
    .fil0 {fill:red}
   ]]>
  </style>
 </defs>
 <g id="Camada_x0020_1">
  <metadata id="CorelCorpID_0Corel-Layer"/>
  <g id="_1967955593664">
   <path class="fil0" d="M-0 0l39.39 25.95c298.11,336.63 628.01,639.98 984.24,904.74l1642.89 22303.77 -616.44 -458.4 -2049.98 -22776.07 -0.1 0z"/>
   <path class="fil1" d="M1458.97 1202.28c2263.2,1238.41 4804.62,1238.41 7067.82,0 -403.36,7452.45 -984.95,14853.65 -1561.22,22295.19 -657.52,488.98 -1315.15,977.96 -1972.69,1466.94 -657.53,-488.98 -1315.16,-977.96 -1972.69,-1466.94 -576.28,-7441.54 -1157.86,-14842.73 -1561.22,-22295.19z"/>
   <path class="fil0" d="M9985.76 0l-39.39 25.95c-298.11,336.63 -628.01,639.98 -984.24,904.74l-1642.89 22303.77 616.44 -458.4 2049.98 -22776.07 0.1 0z"/>
  </g>
 </g>
</svg>
