<?xml version="1.0" encoding="UTF-8"?>
<!DOCTYPE svg PUBLIC "-//W3C//DTD SVG 1.1//EN" "http://www.w3.org/Graphics/SVG/1.1/DTD/svg11.dtd">
<!-- Creator: CorelDRAW -->
<svg xmlns="http://www.w3.org/2000/svg" xml:space="preserve" width="66.1069mm" height="23.6549mm" version="1.1" style="shape-rendering:geometricPrecision; text-rendering:geometricPrecision; image-rendering:optimizeQuality; fill-rule:evenodd; clip-rule:evenodd"
viewBox="0 0 165.2 59.11"
 xmlns:xlink="http://www.w3.org/1999/xlink"
 xmlns:xodm="http://www.corel.com/coreldraw/odm/2003">
 <defs>
  <style type="text/css">
   <![CDATA[
    .fil0 {fill:#070909}
    .fil3 {fill:#C40A35}
    .fil4 {fill:#C50733}
    .fil2 {fill:#D3B6C6}
    .fil5 {fill:#D8BAC9}
    .fil6 {fill:#DCC4D0}
    .fil1 {fill:#FEFEFE}
   ]]>
  </style>
 </defs>
 <g id="Camada_x0020_1">
  <metadata id="CorelCorpID_0Corel-Layer"/>
  <g id="_2087242002240">
   <path class="fil0" d="M138.97 55.74c0.91,1.26 -0.81,3 1.39,2.99l9.94 -0.07c2.09,0.04 4.09,0.82 6.15,0.23 1.62,-0.47 3.63,-1.84 4.28,-3.29 1.53,-3.44 -1.51,-3.04 -0.47,-6.44 0.53,-1.75 1.41,-5.05 1.72,-6.91 0.45,-2.7 3.32,-12.34 3.23,-13.93l-10.92 -0.14c-0.4,-2.41 1.4,-1.5 2.79,-1.66 0.41,-1.51 2.46,-7.25 2.29,-8.68l-4.5 0.02c0.2,-0.24 0.2,-0.29 0.78,-0.33 1.99,-0.17 2.39,0.88 2.75,-2.08 0.18,-1.49 0.97,-5.35 0.42,-5.9 -0.88,-0.44 -2.29,0.22 -3.13,-0.37 0.1,-0.92 0.11,-0.75 0.9,-0.78 0.97,-0.04 3.25,0.21 3.91,-0.1 0.21,-1.23 -0.37,-6.84 -0.55,-8.28l-151.82 0.04c-0.25,0.77 -0.45,1.33 -0.72,2.32 -0.26,0.93 -2.23,4.99 -2.16,6.05l3.23 0.08c0.02,1.89 -1.66,16.2 -1.56,18 0.9,0.16 4.21,-0.6 4.26,0.9 0.06,1.64 -1.4,0.49 -3.95,1.12 -1.68,0.42 -3.71,1.73 -4.54,3.59 -0.3,0.67 -0.37,1.81 -0.51,2.61 -0.46,2.57 -1.88,8.75 -0.67,10.9 1.65,2.94 6.63,1.64 7.77,2.34 0.15,0.63 0.08,0.69 -0.14,1.46 -2.35,0.52 -7.25,-0.47 -9.12,0.25 -0.21,1.54 0.52,7.77 0.99,8.88 1.07,0.57 8.92,0.16 10.76,0.15 3.8,-0.03 4.07,0.03 6.79,-1.98 2.1,-1.56 1.07,1.82 6.13,1.95l10.72 0.04c2.2,-0.05 2.75,-0.86 4.45,-1.35l0.29 1.36 53.44 -0.05c0.3,-0.54 0.5,-1.13 0.78,-1.96 0.7,-2.13 1.4,-1.34 1.52,0.22 0.11,1.5 -0.11,1.67 0.83,1.8l19.7 -0.02c2.1,-0 20.09,0.21 20.49,-0.08 0.61,-0.94 0.94,-3.73 2.07,-2.89z"/>
   <path class="fil1" d="M32.76 52.01c-0.98,0.18 -3.09,0.5 -3.8,-0.2 -0.28,-0.57 -0.21,-0.11 -0.14,-1.04l2.04 -13.36c0.42,-2.84 0.31,-2.55 2.52,-2.58 2.28,-0.03 2.24,-0.41 1.79,2.66 -0.51,3.49 -1.6,12.13 -2.4,14.52zm15.64 -37.63c0.73,-2.86 0.39,-3.04 1.26,-2.96l-0.01 6.57 -1.93 0.05c-0.04,-1.19 0.39,-2.5 0.68,-3.66zm7.35 25.47c-0.26,-0.24 -0.15,-0.07 -0.34,-0.48 -0.02,-0.04 -0.14,-0.41 -0.15,-0.46 -0.4,-1.35 -0.9,-5.69 -1.57,-7.73 -0.36,-1.11 -0.32,-0.43 -0.94,-0.91 -0.39,-0.3 -0.08,0.33 -0.24,-0.31 -0.28,-1.13 1.06,-0.46 1.31,-0.34 1.21,0.6 2.66,0.55 3.45,0.94 0.21,1.12 -1.06,8.55 -1.52,9.29zm-6.99 -11.07c0.01,-0.75 0.18,-0.2 -0.1,-0.61 -1.86,0 -6.48,1.53 -6.92,1.53 -1.18,-0.15 -2.58,0.39 -4.48,-0.07 -0.6,-0.14 -0.64,-0.11 -0.91,-0.69 0.29,-0.89 0.35,-0.53 1.05,-1.02 1.77,-1.26 6.78,-5.09 8.43,-3.2l-3.15 2c-1.67,1.25 -2.79,1.28 -2.95,2.22 0.62,0.29 1.25,0.02 1.79,-0.17 0.22,-0.23 -0.14,0 0.37,-0.28l0.26 -0.12c0.04,-0.01 0.46,-0.11 0.54,-0.13 1.59,-0.48 -0.02,-1.45 2.36,-2.18 0.57,0.1 2.55,-0.64 2.98,-1.11 -0.44,-0.91 -0.7,-0.65 -1.54,-1.11 -0.5,-3.18 1.91,-2.14 3.29,-2.35 0.51,0.68 0.16,1.78 0.45,2.57 0.4,0 1.78,-0.07 2.07,0.05 1.05,0.42 0.04,1.12 1.64,0.84 1.11,-0.08 1.89,-0.26 2.91,-0.52 0.79,-0.2 2.13,-0.85 2.52,0.28 -1.31,0.5 -1.81,0.69 -2.99,1.34l-3.94 2.66c-1,1.07 -1.39,1.65 -2.61,1.44 -0.48,-0.08 -1.16,-0.18 -1.54,-0.53 0.15,-0.63 0.11,-0.55 0.48,-0.82zm9.67 1.04c0.19,-0.55 0.31,-0.66 0.94,-0.66 0.49,0 0.72,0.13 0.92,0.66 -0.57,0.72 -1.36,0.6 -1.86,0zm-2.61 -2.12c1.26,-0.87 3.48,-2.15 4.81,-1.44 -0.12,1.61 -1.42,1.83 -2.43,2.32 -0.98,0.48 -2.19,1.1 -3.31,0.68 -0.16,-1.2 0.4,-1.2 0.93,-1.57zm11.25 -0.99c-0.1,1.14 -1.11,1.13 -2.62,2.3 -1.45,1.12 -4.47,0.48 -2.61,-0.82 0.97,-0.68 0.88,-0.92 1.88,-1.78 0.63,-0.54 2.75,-0.56 3.35,0.31zm-2.13 -20.59c0.42,-0.13 1.74,-0.25 2.13,-0.04 0.63,0.35 0.3,1.4 0.2,2.45 -0.16,1.56 -0.29,3.9 -0.6,5.14 -0.63,0.12 -1.75,0.38 -2.26,-0.05 -0.49,-0.65 0.4,-6.79 0.54,-7.51zm2.77 23.04c0.2,-0.61 3.42,-4.46 6.02,-2.89 -0.16,0.67 0.01,0.4 -0.54,0.83l-2.22 1.54c-0.76,0.54 -1.83,1.77 -3.25,0.51zm15.76 -2c-0.52,-0.14 -1.92,0.91 -2.87,1.09 -0.11,0.36 -0.06,0.28 -0.15,0.68 -0.02,0.11 -0.13,0.33 -0.09,0.37 0.04,0.03 -0.03,0.13 -0.04,0.19 -0.85,0.05 -2.3,-0 -2.99,-0.55 0.09,-0.88 -0.18,-0.31 0.43,-0.76 0.86,-0.63 3.95,-1.94 4.93,-2 0.37,-0.56 0.29,-0.35 0.92,-0.41l2.65 -0.08c-0.06,0.45 -0.05,0.72 -1.08,1.02 -0.68,0.2 -0.97,0.14 -1.7,0.45zm3.85 -12.98c0.23,-1.22 0.49,-2.88 0.99,-3.14 0.28,0.34 0.25,6 0.14,7.03l-1.68 -0.06c-0.04,-0.56 0.42,-3.18 0.55,-3.83zm6.45 10.49c-0.21,0.77 0.05,0.4 -0.62,0.82l-5.05 3.31c-1.31,0.99 -1.73,1.26 -3.28,0.24 -0.83,-0.55 -2.28,0.41 -3.48,0.41l0.81 -0.58c2.89,-1.12 1.18,0.23 5.27,-2.15 0.52,-0.3 1,-0.41 1.58,-0.69 1.62,-0.77 2.05,-1.51 4.77,-1.37zm3.14 0.14c0.7,-0.46 2.15,-0.46 2.6,0.14 -0.79,0.69 -1.75,0.1 -2.55,1.02 -0.42,0.49 -0.3,0.63 -0.96,1.11 -0.38,0.27 -0.64,0.37 -1.09,0.67 -1.73,1.15 -3.1,2.66 -4.8,1.42 0.25,-0.91 0.8,-0.77 2.04,-1.74 0.69,-0.54 1.65,-1.12 2.42,-1.28 2.86,-0.58 1.16,-0.56 2.33,-1.33zm0.84 19.67c0.3,0.64 0.39,4.1 0.16,4.8l-3.27 -0.18c0,-1.39 0.94,-3.26 1.36,-4.51 0.28,-0.83 0.46,-1.38 0.79,-2.22 0.21,-0.53 0.17,-0.59 0.31,-1.1 0.32,-1.22 -0.05,-0.73 0.61,-0.75l0.04 3.96zm5.09 -15.41l-0.45 -0.22c-1.28,1.09 -3.13,0.92 -4.57,0.94l-1.42 -0.29c0.02,-0.02 -0.1,-0.07 -0.15,-0.11l-0.9 -0.22c0.04,-1.14 0.77,-1.03 1.55,-1.54 1.93,-1.27 4.37,-1.82 6.65,-1.61 -0.52,0.81 -1.66,0.79 -2.44,1.11 -0.94,0.38 -1.29,0.79 -2.02,1.16 -0.06,0.46 -0.27,0.19 0.31,0.45 0.55,0.25 1.27,-0.01 1.79,-0.22 0.58,-0.24 1.52,-0.61 2.21,-0.61 0.97,-0.11 1.67,-1.05 2.79,-1.42 0.54,-0.18 1.07,-0.25 1.65,-0.34 0.63,-0.1 1.23,-0.35 1.73,0.14 -0.32,0.92 -1.45,0.96 -3.08,2.43 -1.85,1.66 -1.92,0.63 -3.63,0.36zm3.8 -3.93c-1.39,-0.01 -4.95,0.38 -5.96,-0.41 0.92,-0.99 1.16,0.81 1.56,-1.48 0.18,-1.04 0.67,-1.96 0.59,-2.9l-3.81 -0.12c-0.14,-1.07 0.23,-3.32 0.34,-4.43l0.83 -8.99c0.08,-0.72 0.16,-1.59 0.24,-2.32 0.04,-0.33 0.13,-0.96 0.14,-1.15 0.05,-1.01 0.1,-0.53 -0.15,-0.94 -0.46,-0.53 -3.26,-0.32 -3.88,-0.1 -0.8,3.16 -1.97,20.56 -2.5,21.56 -1.66,0.38 -1.37,-2.52 -1.51,-4.59 -0.13,-1.91 -0.38,-4.16 -0.43,-6.06l-0.5 -9.23c-0.16,-2.51 -0.46,-1.83 -3.71,-1.83 -1.47,0 -1.56,2.56 -2.21,4.62 -0.98,3.09 -2.05,7.69 -3.2,11.46 -0.33,1.08 -0.32,1.88 -0.69,3.02 -0.26,0.82 -0.71,2.11 -0.7,3.04 0.62,0.32 3.14,0.37 3.64,0.02 0.89,-0.78 0.29,-1.69 1.12,-2.59 0.48,-0.36 2.65,-0.52 2.77,0.41 0.05,0.39 0.03,0.16 0.06,0.63 0.1,1.72 0.23,0.99 0.8,2.19 -1.81,0.78 -1.9,0.27 -3.62,0.13 -1.4,-0.11 -2.74,0.02 -4.07,0.37 -1.61,0.42 -3.19,1.1 -4.6,2.2 -0.82,0.64 -0.96,0.54 -0.94,1.79 0.74,0.7 1.78,0.69 2.72,1.22 0.12,0.82 -1.37,9.83 -1.71,10.86l-3.68 0.05c-0.23,-1.85 1.41,-8.45 1.3,-11.16 -0.94,-0.51 -2.66,-0.19 -3.72,-0.24 0.08,-1.24 1.2,-1.64 2.03,-1.97 0.88,-0.34 1.8,-0.89 2.1,-1.67 -0.75,-2.91 -5.44,-0.67 -7.23,-0.96 -0.99,-0.16 -1.53,-0.48 -2.7,-0.48 -0.78,0 -2.87,0.48 -3.39,0.1 0.45,-1.38 0.85,0.39 1.27,-3.47 0.11,-1 0.18,-3.75 0.7,-4.37 1.48,0.56 0.66,5.89 1.76,6.95 0.77,0.36 3.34,0.55 3.84,-0.1 0.4,-0.66 -1.04,-5.52 -1.18,-6.81 1.72,-0.59 1.93,-1.31 2.22,-3.95 0.21,-1.97 1.1,-7.48 0.84,-9.25 -0.4,-2.76 -4.43,-2.06 -6.07,-2.06 -1.89,0.01 -4.03,-0.78 -4.36,1.12l-1.04 9.4c-0.19,2.22 -0.55,9.15 -1.18,10.59 -0.9,0.09 -1.6,0.08 -2.44,0.31 -3.1,0.83 -2.15,2.22 -3.13,-10.73 -0.14,-1.82 -0.28,-3.72 -0.42,-5.6 -0.44,-5.91 0.41,-5.06 -3.19,-5.07 -2.06,-0.01 -1.73,0.07 -2.25,2.54 -0.59,2.8 -1.86,5.51 -2.34,8.32 -0.51,2.9 -1.53,5.62 -2.35,8.42 -0.25,0.85 -0.17,1.41 -0.47,2.23 -0.13,0.36 -0.23,0.53 -0.4,0.74 -0.48,0.55 -1.95,0.82 -3.76,2.06 -0.34,0.23 -2.5,1.81 -2.74,2.07 -0.02,1.04 0.18,0.87 0.27,1.74 -2.82,0.29 -5.93,-0.51 -8.66,0.45 -3.15,1.11 -2.75,3.63 -3.52,7.96 -0.6,3.4 -0.95,7.03 -1.55,10.47 -0.22,1.27 -0.88,4.11 -0.45,5.39 0.39,1.15 1.82,2.06 3.16,2.06l11.19 0c1.08,0 1.84,-0.3 2.71,-0.92 2.36,-1.7 2.38,-6.78 2.95,-10.33 0.44,-2.74 0.83,-5.1 1.11,-7.92 0.12,-1.25 0.57,-2.74 0.6,-4 0.06,-2.48 -1.1,-1.4 -1.32,-2.88l5.4 -1.48c-0.13,1.13 -0.58,1.81 -0.82,3.17l-1.11 6.82c-0.24,1.33 -0.24,2.47 -0.44,3.64 -0.59,3.45 -2.02,10.72 -2.09,13.91l6.74 -0.01c0.76,-2.58 0.47,-7.27 1.57,-9.98 0.51,0.23 0.52,1.14 0.69,2.03l1.53 7.87c2.29,0.34 5.25,0.22 7.58,0.05 1.16,-5.33 3.2,-23.14 4.21,-27.13 1,-0.23 2,0.02 2.45,1.06 0.52,1.59 -1.31,10.75 -1.65,12.87l-1.88 13.16c2.01,0.33 5.13,0.21 7.21,0.02 0.69,-3.04 0.87,-8.21 1.49,-10.39l3.92 -0.06c0.21,2.43 -1.44,7.73 -1.4,10.4 1.63,0.42 5.53,0.22 7.36,0.08 0.72,-3.6 1.6,-9.02 2.08,-12.83 0.32,-2.58 1.4,-11.5 2.14,-12.97 1.99,-0.31 5.85,-0.3 8,0.03 -0.03,1.49 -1.91,5.15 -2.4,6.48l-1.84 4.74c-0.72,1.6 -0.86,2.43 -1.26,3.33 -0.75,1.7 -4.29,10.12 -4.53,11.23l7.28 -0.03c0.7,-3.44 0.91,-3.28 3.29,-3.27 3.84,0 2.21,-0.4 3.08,3.31 2.37,0.07 4.79,0.21 7.15,-0.05 0.06,-1.56 -0.4,-4.91 -0.58,-6.57 -0.23,-2.06 -0.32,-4.3 -0.54,-6.41 -0.26,-2.48 -1.41,-11.26 -1.24,-13.03l4.81 0.33c-0.26,-0.92 -0.55,-0.53 -0.91,-1.42 0.68,-1.82 3.36,-1.38 4.36,-2.66 -0.59,-2.04 -3.19,-1.58 -4.77,-1.58z"/>
   <path class="fil1" d="M122.12 34.84c0.15,2.12 -2.2,16.45 -2.55,17.16l-3.89 -0.08c-0.1,-0.56 2.18,-16.1 2.51,-16.94l3.93 -0.14zm-2.73 -6.07c0.25,0.42 0.32,0.55 0.44,1.21l-2.56 0.23c0.15,-0.58 -0.03,-0.58 0.85,-1.12 0.53,-0.32 0.63,-0.46 1.27,-0.32zm4.12 -3.72c-0.33,0.04 -5.53,2.95 -6.07,3.3 -0.37,0.24 -0.94,0.92 -1.34,1.25 -2.43,2.02 -1.38,2.56 -4.63,1.84 0.41,-1.96 3.83,-3.32 4.9,-4.35 1.47,-1.42 3.9,-2.14 5.9,-2.67 0.34,-0.54 0.1,-0.3 0.75,-0.32 1.68,-0.04 1.93,-0.56 2.06,0.65l-1.57 0.3zm5.67 -14.04c0.69,0.95 0.18,5.72 -0.1,7.24l-1.45 -0.28c-0.1,-1.42 0.73,-6.45 1.55,-6.96zm11.42 14.29c-0.65,0.25 -1.12,-0.06 -1.8,0.75 -0.78,0.92 -1.03,1.05 -1.96,1.7l-2.19 1.56c-0.83,0.67 -1.86,0.34 -2.65,-0.09 0.22,-1.14 0.55,-0.82 1.34,-1.32 2.27,-1.42 1.63,-1.65 4.67,-2.11 0.42,-0.97 0.14,-1.1 1.25,-1.25 0.61,-0.08 1.35,-0.15 1.9,0.18 -0.16,0.74 0.25,0.27 -0.56,0.58zm0.45 -19.17c2.99,-0.9 2.26,1.21 2.14,2.31l-1.1 10.04c-0.1,1.02 0.08,1.85 -0.51,2.11 -0.26,0.11 -1.58,0.03 -1.89,-0.02 -0.3,-1.48 0.97,-13.06 1.36,-14.44zm-9.05 19.26c-2.83,-0.77 -3.8,0.86 -6.66,2.16 -1.79,0.81 -1.56,0.57 -1.61,1.39 0.81,0.99 3.92,-0.47 4.82,-0.92 1.35,-0.68 2.2,-3.58 4,-1.3 -0.24,1.57 -1.21,1.45 -2.46,1.89 -1.03,0.36 -1.92,0.64 -3.02,0.85 -1.47,0.27 -5.67,0.76 -6.48,-0.74 0.15,-0.73 0.37,-0.58 1.46,-1.39 0.55,-0.41 1.08,-0.69 1.75,-0.9 2.5,-0.78 4.03,0.24 3.75,-1.42 -1.35,-0.93 -2.24,-3.37 0.05,-3.42 0.63,-0.01 1.27,-0.01 1.89,0.06l0.09 2.72c0.72,0.31 3.28,0.17 4.08,-0.01 0.17,-1.1 -0.54,-9.16 -0.68,-10.95 -0.93,-12.53 -0.05,-11.26 -3.01,-11.28 -0.54,-0 -1.63,-0.17 -2.08,0.15 -0.66,0.45 -0.98,3.27 -1.36,4.48l-3.82 13.76c-0.69,2.43 -0.21,2.64 -2.03,3.55 -1.44,0.72 -2.18,0.84 -3.79,1.04 -1.48,0.18 -2.96,-0.24 -3.79,1.18 0.15,1.13 0.26,0.57 0.57,1.55 -0.71,1.05 -3.37,2.07 -3.5,3.55l1 0.74c0.21,1.61 -1.42,9.64 -1.59,12.32 -0.18,2.78 -2.05,9.75 -1.91,11.96 1.14,0.45 7.99,0.15 9.71,0.15 2.89,0 6.86,0.73 8.68,-1.85 1.08,-1.53 0.97,-2.64 1.34,-5.03 0.3,-1.91 0.58,-3.97 0.86,-5.89 0.45,-3.1 1.76,-8.94 1.42,-12 -0.83,-0.74 -1.33,-0.9 -1.55,-1.52 1.51,-1.18 2.52,-0.41 3.97,0.07l3.56 0.39c0.14,0.01 0.51,0.02 0.63,0 1.06,-0.21 -0.74,0.3 0.28,-0.09l0.26 -0.15c-0.47,-0.8 -0.42,-0.17 -0.91,-0.89 0.2,-0.68 0.2,-0.59 0.66,-0.94 0.84,-0.65 1.92,-0.9 2.91,-1.44 0.62,-0.34 1.14,-0.89 1.68,-1.17 1.61,-0.82 0.6,-0.98 1.56,-1.55 0.9,-0.53 2.49,-0.23 3.23,-2.84 0.52,-1.84 0.97,-10.11 1.29,-12.82 0.26,-2.17 0.96,-4.68 -0.15,-6.01 -0.97,-1.17 -3.22,-0.73 -4.66,-0.75 -1.26,-0.01 -4.22,-0.15 -5.2,0.22l-1.13 10.79c-0.2,1.86 -1.26,9.89 -1.08,11.17 0.75,0.42 1.14,-0.15 1.7,0.44 -0.44,0.62 -1.47,0.89 -2.23,1.26 -0.84,0.42 -1.71,-0.3 -2.49,-0.59z"/>
   <path class="fil1" d="M141 40.41c0.27,0.64 0.16,0.27 0.21,1.17l0.14 7.65 -3.38 -0.06c0.1,-1.58 1.03,-3.13 1.45,-4.51 0.33,-1.08 0.81,-3.69 1.59,-4.25zm-2.3 -10.08c-0.4,0.44 -3.82,8.69 -4.07,9.57 -0.43,1.5 -0.77,1.95 -1.32,3.27l-3.88 9.83c-0.4,1.05 -1.13,2.15 -1.21,3.49l7.13 0.05c0.67,-1.75 0.57,-3.3 2.03,-3.33 1.26,-0.03 3.42,-0.36 4.19,0.47 0.14,1.15 -0.15,1.52 0.18,2.6l7.18 0.25c0.04,-1.9 -1.46,-14.92 -1.79,-17.81l-0.55 -6.79c-0.11,-1.04 -0.04,-1.51 -0.69,-1.71 -0.84,-0.27 -6.56,-0.18 -7.19,0.12z"/>
   <path class="fil1" d="M11.99 45.78c0.21,0.61 -0.31,3 -0.46,3.89 -0.36,2.05 -0.38,2.04 -2.1,2.05 -1.99,0.01 -4.98,-0.31 -6.84,0.01 -0.24,1.05 0.17,3.66 0.43,4.73 1.84,0.24 8.51,0.1 10.82,0.1 1.01,0 2,-0.37 2.73,-0.89 0.81,-0.58 0.98,-1.23 1.41,-2.46 0.5,-1.42 1,-5.07 1.33,-6.99 0.61,-3.58 0.58,-4.73 -2.31,-4.87 -1.3,-0.06 -5.26,0.14 -6.1,-0.28 -0.25,-1.17 0.34,-4.92 0.83,-5.82 1.75,0 7.32,0.25 8.82,-0.15 0.09,-1.04 -0.06,-1.96 -0.17,-3.01 -0.14,-1.36 -0.03,-1.93 -1.03,-1.93 -2.44,0 -9.9,-0.21 -11.46,0.22 -0.65,0.18 -2.05,1.07 -2.47,1.54 -1.1,1.22 -2.31,10.99 -2,12.12 0.69,2.53 5.6,1.42 8.58,1.74z"/>
   <path class="fil1" d="M38.52 6.14c0.24,1.07 -0.7,8.65 -0.92,10.6 -0.12,1.01 -0.16,3.03 -0.34,3.68 -0.49,0.28 -1.57,0.34 -2.22,0.17 -0.33,-1.41 0.77,-13.16 1.19,-14.49 0.74,-0.17 1.58,-0.28 2.29,0.04zm-5.84 -3.93c-0.42,1.35 -1.71,15.55 -2.21,19.32 -0.05,0.4 -0.12,0.88 -0.16,1.35 -0.01,0.07 -0.04,0.67 -0.04,0.73 0.12,1.42 2.04,0.91 4.05,0.92 3.07,0.01 6.15,0.57 6.94,-3.1 0.28,-1.29 0.46,-3.74 0.61,-5.1 0.19,-1.78 0.48,-3.74 0.57,-5.42 0.17,-3.5 1.62,-8.36 -1.25,-8.68 -1.99,-0.22 -6.61,-0.37 -8.5,-0.01z"/>
   <path class="fil1" d="M118.25 6.15c0.33,1.18 -0.53,6.78 -0.73,8.54 -0.58,5 -0.01,5.67 -1.08,5.88 -0.38,0.07 -1.37,0.01 -1.78,-0.03 -0.14,-1.68 0.84,-13.43 1.4,-14.31 0.5,-0.38 1.66,-0.37 2.19,-0.08zm-8.1 18.09c0.6,0.55 3.54,0.3 4.69,0.29 6.86,-0.02 5.96,-0.92 7.23,-12.79 0.15,-1.44 0.14,-2.68 0.33,-4.19 0.84,-6.55 -0.19,-5.43 -8.51,-5.44 -1.93,-0 -1.58,-1.07 -2.25,6.17 -0.26,2.78 -0.63,5.41 -0.89,8.04l-0.78 6.9c-0.03,0.95 -0.13,0.48 0.19,1.01z"/>
   <path class="fil1" d="M25.27 14.17c-0.21,1.69 -0.23,3.26 -0.39,4.83 -0.09,0.92 -0.05,1.46 -0.67,1.61 -0.5,0.12 -1.26,0.07 -1.7,-0.11 -0.46,-1.08 0.21,-6.33 0.36,-7.92 0.67,-6.91 0.19,-6.58 2.31,-6.58 1.48,0 0.81,1.93 0.62,3.63 -0.17,1.52 -0.33,2.98 -0.53,4.54zm5.05 -9.94c-0.42,-1.49 -0.66,-2.01 -2,-2.14 -1.09,-0.1 -2.5,0.03 -3.62,0.06 -2.63,0.06 -4.62,-0.67 -5.06,3.01 -2.5,20.68 -3.06,19.39 3.96,19.23 2.57,-0.06 4.5,0.62 5.1,-2.95 0.36,-2.13 1.95,-16.03 1.62,-17.22z"/>
   <path class="fil1" d="M149.67 2.29l-1.11 11.05c-0.19,1.76 -1.28,9.75 -1.02,11.04 0.94,0.23 7.22,0.27 7.82,-0.05 0.16,-0.15 1.13,-3.05 1.03,-3.97l-4.11 -0.12c-0.1,-1.1 0.1,-3.87 0.4,-4.62 0.87,-1.31 3.36,1.61 3.74,-2.03 0.07,-0.66 0.14,-1.25 0.11,-1.86 -1.64,-0.84 -3.41,1.05 -3.31,-1.31 0.25,-6.05 0.69,-3.49 4.79,-4.19 0.14,-0.7 0.07,-3.02 -0.17,-3.65 -0.28,-0.75 -1.74,-0.44 -2.48,-0.45 -1.06,-0.01 -4.98,-0.29 -5.67,0.16z"/>
   <path class="fil1" d="M81.63 2.26c-0.74,-0.22 -7.4,-0.3 -7.85,0.05 -0.66,0.69 -1.75,15 -1.91,16.49 -0.14,1.3 -0.64,4.47 -0.42,5.55l7.79 0.12c0.42,-0.76 0.35,-1.39 0.77,-2.91l0.1 -0.8c-0.11,-1.34 -3.31,0.08 -3.87,-0.71 -0.34,-0.89 0.11,-3.6 0.33,-4.66l3.19 -0.14c0.33,-0.92 0.53,-2.5 0.45,-3.67 -3.7,-0.53 -3.1,1.32 -3.06,-2.87 0,-0.41 -0.01,-0.89 0.04,-1.3 0.27,-1.98 1.88,-0.93 4.11,-1.1 1.06,-0.08 0.95,-0.63 0.33,-4.07z"/>
   <path class="fil1" d="M153.4 49.43l4.4 0.1c0.69,-1.76 1.33,-5.06 1.76,-7.14 0.16,-0.79 0.41,-1.63 0.61,-2.45 0.38,-1.52 2.28,-8.34 2.19,-9.57l-7.03 -0.09c-1.23,0.03 -0.82,0.25 -1.12,4.32 -0.18,2.49 -1.01,13.17 -0.8,14.83z"/>
   <path class="fil1" d="M9.97 2.19c-0.33,0.49 -1.1,2.34 -1.33,3.05 -0.54,1.7 1.16,1 2.28,1.15 0.3,1.27 -0.61,7.14 -0.79,8.87 -0.13,1.18 -0.75,8.61 -0.64,9.2l3.99 -0.07c0.24,-0.68 1.49,-11.86 1.56,-13.47l0.48 -4.3c0.05,-0.03 0.05,-0.1 0.07,-0.23l2.46 -0.2c0.13,-1.03 -0.26,-3.04 -0.52,-4.05l-7.55 0.05z"/>
   <path class="fil1" d="M106.51 2.29c-0.41,0.94 -2.51,20.96 -2.29,22.07 0.72,0.21 3.2,0.2 3.86,-0.09 0.38,-1.08 1.45,-11.55 1.51,-13.32 0.07,-2.06 0.47,-4.84 0.72,-6.79 0.24,-1.87 0.27,-2.11 -1.11,-2.07 -0.75,0.02 -2.03,-0.12 -2.68,0.2z"/>
   <path class="fil1" d="M158.65 52.99c-1.55,-2.09 -4.97,-2.11 -6.69,-0.4 -0.58,0.57 -1.37,1.14 -0.88,2.55 0.6,1.76 2.96,1.81 4.7,1.52 2.71,-0.45 3.61,-2.68 2.87,-3.67z"/>
   <path class="fil2" d="M49.76 21.48l0.26 2.87c0.5,0.1 0.83,0.04 1.33,0.03 0.71,-0.02 0.83,-0.03 1.08,0.35l-7.24 2.06c-0.26,-0.3 -0.26,0.54 -0.16,-0.74 -2.37,0.73 -0.77,1.69 -2.36,2.18 -0.08,0.02 -0.51,0.12 -0.54,0.13l-0.26 0.12c-0.51,0.29 -0.15,0.05 -0.37,0.28l1.37 0.04c-0.08,0.32 -0.37,0.46 -0.55,0.57l-0.58 0.33c0.44,-0 5.06,-1.53 6.92,-1.53 0.28,0.41 0.12,-0.13 0.1,0.61 0.94,-0.49 1.79,-1.14 2.71,-1.87 0.88,-0.7 1.62,-1.13 2.45,-1.98 -1.6,0.28 -0.59,-0.42 -1.64,-0.84 -0.3,-0.12 -1.67,-0.05 -2.07,-0.05 -0.29,-0.79 0.06,-1.89 -0.45,-2.57z"/>
   <path class="fil3" d="M132 25.38c-0.62,-0.42 -1.3,-0.39 -2.11,-0.26 -0.92,0.15 -1.25,-0.2 -2.33,-0.12 0.28,1.66 -1.25,0.64 -3.75,1.42 -0.67,0.21 -1.2,0.49 -1.75,0.9 -1.1,0.82 -1.32,0.66 -1.46,1.39 0.81,1.5 5.01,1.01 6.48,0.74 1.1,-0.2 1.99,-0.49 3.02,-0.85 1.25,-0.44 2.22,-0.32 2.46,-1.89 -1.8,-2.28 -2.65,0.62 -4,1.3 -0.9,0.45 -4.01,1.91 -4.82,0.92 0.05,-0.82 -0.17,-0.57 1.61,-1.39 2.86,-1.3 3.83,-2.93 6.66,-2.16z"/>
   <path class="fil4" d="M122.27 24.42c-2,0.53 -4.43,1.25 -5.9,2.67 -1.06,1.03 -4.48,2.39 -4.9,4.35 3.25,0.73 2.21,0.18 4.63,-1.84 0.4,-0.33 0.97,-1.01 1.34,-1.25 0.54,-0.35 5.74,-3.26 6.07,-3.3l-0.1 -0.62 -1.15 -0.01z"/>
   <path class="fil4" d="M53.93 24.93c-0.83,0.85 -1.57,1.28 -2.45,1.98 -0.92,0.73 -1.78,1.37 -2.71,1.87 -0.37,0.27 -0.32,0.19 -0.48,0.82 0.38,0.35 1.06,0.45 1.54,0.53 1.22,0.21 1.61,-0.37 2.61,-1.44l3.94 -2.66c1.18,-0.65 1.68,-0.84 2.99,-1.34 -0.39,-1.13 -1.73,-0.49 -2.52,-0.28 -1.02,0.26 -1.8,0.45 -2.91,0.52z"/>
   <path class="fil3" d="M41.74 29.7l0.58 -0.33c0.18,-0.11 0.47,-0.25 0.55,-0.57l-1.37 -0.04c-0.54,0.19 -1.17,0.46 -1.79,0.17 0.17,-0.94 1.28,-0.97 2.95,-2.22l3.15 -2c-1.65,-1.89 -6.66,1.93 -8.43,3.2 -0.69,0.49 -0.75,0.13 -1.05,1.02 0.26,0.59 0.31,0.55 0.91,0.69 1.9,0.46 3.29,-0.08 4.48,0.07z"/>
   <path class="fil3" d="M81.36 29.44c1.2,-0.01 2.65,-0.96 3.48,-0.41 1.55,1.03 1.97,0.75 3.28,-0.24l5.05 -3.31c0.67,-0.43 0.41,-0.05 0.62,-0.82 -2.72,-0.14 -3.15,0.6 -4.77,1.37 -0.58,0.27 -1.06,0.39 -1.58,0.69 -4.1,2.37 -2.38,1.03 -5.27,2.15l-0.81 0.58z"/>
   <path class="fil4" d="M138.01 25.78c-3.03,0.46 -2.4,0.69 -4.67,2.11 -0.79,0.5 -1.12,0.18 -1.34,1.32 0.79,0.43 1.82,0.76 2.65,0.09l2.19 -1.56c0.92,-0.65 1.18,-0.78 1.96,-1.7 0.68,-0.81 1.15,-0.5 1.8,-0.75 0.81,-0.31 0.4,0.16 0.56,-0.58 -0.55,-0.33 -1.29,-0.26 -1.9,-0.18 -1.11,0.15 -0.83,0.28 -1.25,1.25z"/>
   <path class="fil3" d="M90.13 29.15c1.7,1.24 3.07,-0.26 4.8,-1.42 0.45,-0.3 0.71,-0.4 1.09,-0.67 0.66,-0.47 0.54,-0.62 0.96,-1.11 0.79,-0.92 1.75,-0.33 2.55,-1.02 -0.45,-0.6 -1.9,-0.59 -2.6,-0.14 -1.17,0.76 0.53,0.75 -2.33,1.33 -0.77,0.16 -1.73,0.74 -2.42,1.28 -1.25,0.98 -1.79,0.84 -2.04,1.74z"/>
   <path class="fil4" d="M67.08 26.71c-0.6,-0.87 -2.72,-0.85 -3.35,-0.31 -1,0.86 -0.91,1.1 -1.88,1.78 -1.86,1.3 1.16,1.94 2.61,0.82 1.51,-1.17 2.52,-1.15 2.62,-2.3z"/>
   <path class="fil4" d="M103.4 27.89l-0.75 0.6c0,0 0.18,0.51 0.2,0.57 1.71,0.27 1.78,1.3 3.63,-0.36 1.63,-1.46 2.76,-1.5 3.08,-2.43 -0.5,-0.49 -1.1,-0.25 -1.73,-0.14 -0.58,0.1 -1.11,0.16 -1.65,0.34 -1.12,0.37 -1.82,1.31 -2.79,1.42z"/>
   <path class="fil4" d="M96.25 29.37l2.08 0.12c0.34,-0.98 0.04,-0.86 0.76,-1.23 0.73,-0.36 1.08,-0.78 2.02,-1.16 0.78,-0.31 1.92,-0.29 2.44,-1.11 -2.28,-0.21 -4.71,0.33 -6.65,1.61 -0.77,0.51 -1.51,0.4 -1.55,1.54l0.9 0.22z"/>
   <path class="fil4" d="M67.72 29.15c1.43,1.25 2.49,0.03 3.25,-0.51l2.22 -1.54c0.55,-0.43 0.39,-0.16 0.54,-0.83 -2.6,-1.57 -5.82,2.27 -6.02,2.89z"/>
   <path class="fil4" d="M54.89 29.27c1.11,0.42 2.33,-0.2 3.31,-0.68 1.01,-0.5 2.31,-0.71 2.43,-2.32 -1.33,-0.71 -3.54,0.57 -4.81,1.44 -0.53,0.37 -1.09,0.37 -0.93,1.57z"/>
   <path class="fil3" d="M82.7 26.17c-0.98,0.06 -4.07,1.37 -4.93,2 -0.61,0.45 -0.34,-0.12 -0.43,0.76 0.68,0.55 2.14,0.6 2.99,0.55 0.02,-0.06 0.08,-0.15 0.04,-0.19 -0.04,-0.04 0.06,-0.26 0.09,-0.37 0.09,-0.4 0.04,-0.33 0.15,-0.68 0.95,-0.18 2.35,-1.24 2.87,-1.09l0.65 -0.89c-0.47,-0.27 -0.87,-0.21 -1.43,-0.09z"/>
   <path class="fil5" d="M99.09 28.27c-0.72,0.37 -0.41,0.25 -0.76,1.23l-2.08 -0.12c0.05,0.04 0.18,0.09 0.15,0.11l1.42 0.29c1.44,-0.01 3.29,0.16 4.57,-0.94l0.45 0.22c-0.02,-0.06 -0.2,-0.56 -0.2,-0.57l0.75 -0.6c-0.69,0 -1.63,0.37 -2.21,0.61 -0.52,0.21 -1.23,0.47 -1.79,0.22 -0.58,-0.26 -0.37,0.01 -0.31,-0.45z"/>
   <path class="fil6" d="M82.7 26.17c0.56,-0.11 0.97,-0.17 1.43,0.09l-0.65 0.89c0.73,-0.31 1.02,-0.25 1.7,-0.45 1.04,-0.3 1.02,-0.57 1.08,-1.02l-2.65 0.08c-0.64,0.06 -0.55,-0.15 -0.92,0.41z"/>
   <path class="fil5" d="M122.27 24.42l1.15 0.01 0.1 0.62 1.57 -0.3c-0.13,-1.21 -0.38,-0.69 -2.06,-0.65 -0.66,0.02 -0.42,-0.22 -0.75,0.32z"/>
  </g>
 </g>
</svg>
