<?xml version="1.0" encoding="UTF-8"?>
<!DOCTYPE svg PUBLIC "-//W3C//DTD SVG 1.1//EN" "http://www.w3.org/Graphics/SVG/1.1/DTD/svg11.dtd">
<!-- Creator: CorelDRAW -->
<svg xmlns="http://www.w3.org/2000/svg" xml:space="preserve" width="25.4mm" height="19.05mm" version="1.1" style="shape-rendering:geometricPrecision; text-rendering:geometricPrecision; image-rendering:optimizeQuality; fill-rule:evenodd; clip-rule:evenodd"
viewBox="0 0 49.86 37.39"
 xmlns:xlink="http://www.w3.org/1999/xlink"
 xmlns:xodm="http://www.corel.com/coreldraw/odm/2003">
 <defs>
  <style type="text/css">
   <![CDATA[
    .fil0 {fill:black}
    .fil3 {fill:blue}
    .fil1 {fill:red}
    .fil2 {fill:white}
   ]]>
  </style>
 </defs>
 <g id="Camada_x0020_1">
  <metadata id="CorelCorpID_0Corel-Layer"/>
  <g id="_2482572062784">
   <path class="fil0" d="M15.08 34.65c0.11,-0.21 0.17,-0.37 0.27,-0.58l1.64 -3.5c0.35,-0.78 0.38,-0.59 0.66,-0.59 0.13,0 0.18,-0.03 0.38,-0.03 0.68,-0.02 2,0.03 2.7,-0.06 0.34,-0.04 0.47,-0.07 0.77,0.06 0,1.55 -0.05,2.96 -0.05,4.53 0,2.12 0.18,1.69 -0.59,1.76l-2.4 0.09c-0.09,-0.34 -0.09,-0.11 0,-0.63 -0.11,-0.05 -0.16,-0.1 -0.33,-0.1 -0.85,0 -0.84,-0.05 -0.99,0.47 -0.12,0.41 -0.19,0.31 -0.74,0.31 -0.45,-0 -1.83,0.1 -2.06,-0l0.74 -1.72zm-3.95 0.46c0.35,0 0.37,-0.18 0.44,-0.43 0.19,-0.66 0.1,-0.85 0.37,-0.94l1.26 -0.09c1.8,0.01 1.56,-0.27 1.27,0.9 -0.06,0.25 -0.1,0.39 -0.16,0.63 -0.11,0.41 -0.38,0.74 -0.76,0.97 -0.33,0.2 -0.87,0.36 -1.38,0.37 -1.25,0.02 -3.07,0.18 -3.86,-0.05 -1.03,-0.3 -0.54,-1.42 -0.31,-2.42 0.03,-0.13 0.06,-0.19 0.09,-0.35l0.41 -1.63c0.11,-0.34 0.14,-0.85 0.47,-1.23 0.6,-0.72 1.85,-0.73 2.81,-0.74 0.85,-0.01 2.69,-0.27 3.32,0.33 0.32,0.31 0.09,1.16 0,1.48 -0.15,0.53 -0.04,0.35 -0.28,0.67 -0.33,0 -0.65,0 -0.98,-0 -0.4,-0 -0.57,0.05 -0.92,0.05 -0.57,0 -0.78,0.08 -0.81,-0.14l0.16 -0.74c0,-0.32 -0.38,-0.25 -0.52,-0.18 -0.13,0.07 -0.1,0.06 -0.13,0.17l-0.55 2.28c-0.14,0.57 -0.43,1.08 0.07,1.08zm35.08 -1.56l-0.09 0.24c-0.24,-0.03 -0.14,-0.06 -0.33,-0.08 0.05,0.29 0.18,0 0.2,0.37l-0.06 0.04c-0.13,0.1 -0.12,0.11 -0.16,0.25l-0.16 0.25 -0.13 0.08c-0.09,0.07 -0.28,0.35 -0.62,0.56 -0.72,0.44 -0.58,0.11 -0.62,-0.09l-0.04 -0.11c-0,0.36 0.01,0.68 -0.43,0.49 -0.19,-0.07 -0.23,0.09 -0.56,-0.08 -0.17,-0.09 -0.28,-0.17 -0.42,-0.26 -0.26,-0.05 -0.35,-0.14 -0.28,-0.39 -0.22,-0.02 -0.27,-0.1 -0.36,-0.26 -0.12,-0.22 -0.09,-0.19 -0.07,-0.41l-0.17 -0 0.05 -0.26c-0.13,-0.13 -0.02,-0.09 -0.11,-0.24 -0.19,-0.38 0.15,-0.46 0.23,-0.58 -0.24,-0.06 -0.19,-0.12 -0.11,-0.32l0.22 -0.02c-0.08,-0.1 -0,-0.06 -0.16,-0.1 0.04,-0.15 0.07,-0.22 0.14,-0.36 0.08,-0.14 0.14,-0.19 0.18,-0.32 0.03,-0.05 0.08,-0.16 0.11,-0.19 0.12,-0.13 -0.01,-0.08 0.22,-0.1l0 -0.24c-0.02,-0.17 -0.15,-0.5 -0.24,-0.62 -0.19,-0.24 -0.33,-0.09 -0.36,-0.46 0.8,-0.38 0.93,-0.43 1.3,-1.13 0.08,-0.15 0.08,-0.12 0.17,-0.24 0.16,-0.22 0.33,-0.48 0.53,-0.64 0.45,-0.35 1.38,-0.64 1.59,0.06 0.29,0 0.17,0.03 0.35,-0.08 0.2,-0.12 0.54,-0.35 0.85,-0.36 1.22,-0.02 0.73,1.23 1.78,2.06 0.61,0.48 0.6,0.24 0.08,0.82 -1.33,1.48 -0.85,1.23 -1.62,2.59 -0.17,0.3 -0.53,0.75 -0.94,0.76 0.05,-0.19 0.14,-0.43 0.16,-0.63l-0.11 0zm-12 2.34c-0.11,-0.2 0.57,-2.69 0.63,-2.94l0.72 -2.96c0.11,-0.62 0.14,-0.53 1.42,-0.53 0.58,0 3.5,-0.14 3.89,-0.08 0.87,0.13 1,0.16 1.27,0.66 -0.16,0.2 -0.23,0.02 -0.2,0.32 0.07,0.76 0.19,0.99 -0.34,1.68 -0.28,0.36 -0.72,0.36 -0.87,0.54 0.34,0.45 0.94,-0.17 0.47,1.98 -0.02,0.1 -0.07,0.46 -0.08,0.56 -0.02,0.17 0.1,0.43 0.06,0.51 -0.1,0.23 -0.94,0.09 -1.26,0.13 -0.42,0.05 -1.19,0.04 -1.7,0.04 -0.49,0 -0.05,-1.44 0.02,-1.68 0.05,-0.16 0.24,-0.7 -0.13,-0.7 -0.5,0 -0.4,0.11 -0.63,1.14 -0.31,1.42 -0.23,1.3 -1,1.29 -0.35,-0 -2.04,0.15 -2.28,0.05zm-4.51 -6.24c0.77,0 1.38,-0.05 2.17,-0.05 0.45,0 0.69,-0.05 1.08,-0.05 0.49,0 0.92,-0.09 0.92,0.15l-0.05 6.14c-0.43,0.19 -0.85,0.05 -1.4,0.1 -0.45,0.05 -0.95,0.04 -1.47,0.04 -0.4,0 0.08,-0.73 -0.33,-0.73l-0.65 0c-0.53,0 -0.29,0.53 -0.6,0.73 -0.18,0.08 -1.24,0.1 -1.57,0.1l-3.16 0.08c-0.42,0.05 -1.16,0.01 -1.62,0.01 -1.44,-0.01 -1.21,0.4 -0.98,-0.88l1.02 -4.25c0.45,-1.72 -0.07,-1.16 1.86,-1.25 0.26,-0.01 1.38,-0.16 1.45,0.05 0.04,0.13 -0.76,3.06 -0.88,3.58 -0.09,0.39 -0.25,0.8 -0.25,1.24l1.63 0c0,0.76 -0.28,0.87 -0.05,1.02l0.74 -1.53c0.09,-0.16 0.11,-0.23 0.17,-0.38l1.75 -3.79c0.06,-0.11 0.14,-0.23 0.21,-0.35zm-26.83 -7.36c0.51,-0.11 3.12,-0.08 3.7,-0.14 0.55,-0.06 1.43,0.01 1.86,0.07 0.54,0.08 0.96,0.31 0.96,0.84 0,0.44 -0.18,1.04 -0.36,1.33 -0.23,0.37 -0.58,0.62 -1.05,0.71l0 0.1c0.78,0.06 0.75,0.76 0.62,1.29 -0.18,0.72 -0.28,1.49 -1.26,1.8 -0.33,0.1 -0.68,0.12 -1.04,0.19l-2.45 0.09c-0.87,-0 -1.59,0.05 -2.5,0.05 0.01,-0.38 1.48,-5.84 1.52,-6.33zm20.42 4.58c0.1,-0.19 0.18,-0.39 0.27,-0.58l1.93 -4.07c0.3,-0.64 0.18,-0.61 1.16,-0.61l2.72 -0.05c0.22,-0.01 0.65,-0.17 0.65,0.1 0,0.81 -0.07,2.08 -0.01,2.69 0.02,0.21 -0.04,0.29 -0.05,0.48l0.01 2.68c0,0.29 0.05,0.31 -0.22,0.34 -0.61,0.08 -1.12,0.05 -1.74,0.05 -0.45,-0 -0.68,0.05 -1.14,0.05 0,-0.8 0.14,-0.76 -0.24,-0.72 -0.83,0.1 -0.77,-0.14 -0.96,0.37 -0.06,0.15 -0.11,0.27 -0.21,0.4 -0.95,0 -1.74,0.05 -2.72,0.05l0.54 -1.17zm-14.45 0.68c0,-0.43 0.14,-0.9 0.24,-1.3 0.18,-0.73 0.64,-3.05 1.02,-3.52 0.84,-1.04 3.52,-0.82 5.03,-0.83 0.33,-0 0.15,-0.01 0.46,0.06 0.42,0.1 0.86,0.11 1,0.61 0.14,0.52 -0.6,3.08 -0.74,3.66 -0.21,0.9 -0.36,1.53 -1.24,1.86 -0.54,0.2 -1.49,0.27 -2.14,0.27 -0.85,0 -1.84,0.16 -2.87,-0.06 -0.44,-0.09 -0.77,-0.29 -0.77,-0.77zm14.34 -2.24c-0.3,1.17 -0.32,2.15 -1.4,2.6 -0.38,0.16 -0.73,0.15 -1.16,0.22l-2.7 0.1c-0.32,-0.02 -0.97,-0.07 -1.23,-0.17 -0.31,-0.12 -0.56,-0.4 -0.54,-0.73 0.05,-0.67 0.19,-0.99 0.32,-1.61 0.05,-0.22 0.08,-0.36 0.13,-0.52 0.17,-0.64 0.43,-2.05 0.72,-2.52 0.03,-0.05 0.25,-0.29 0.31,-0.36 0.39,-0.39 1.59,-0.57 2.19,-0.57 0.96,-0.01 3.15,-0.25 3.75,0.34 0.48,0.48 -0.02,1.87 -0.16,2.14 -3.58,0 -2.86,0.36 -2.68,-0.7 0.09,-0.55 -0.52,-0.32 -0.61,-0.1l-0.35 1.44c-0.39,1.68 -0.72,1.85 -0,1.85 0.33,0 0.3,-0.9 0.54,-1.36 1.03,0 1.87,-0.05 2.88,-0.05zm8.04 -1.85c0,-0.45 0.16,-0.9 0.36,-1.19 0.26,-0.39 0.44,-0.47 0.89,-0.66 0.83,-0.34 3.54,-0.37 4.73,-0.15 0.5,0.09 0.75,0.31 0.75,0.83 0,0.34 -0.15,0.99 -0.27,1.22 -1.01,0 -1.84,0.05 -2.82,0.05 0.02,-0.21 0.26,-0.73 -0.05,-0.73 -0.78,0 -0.57,0.58 -0.27,0.78 0.45,0.3 1.14,0.49 1.62,0.74 0.18,0.09 0.36,0.18 0.51,0.28 0.78,0.5 0.57,1.55 0.15,2.23 -0.41,0.67 -1,0.77 -1.71,0.86 -0.87,0.11 -1.8,0.13 -2.74,0.13 -2.07,0 -2.2,-0.46 -1.81,-1.87 0.16,-0.59 -0.04,-0.4 0.65,-0.49l2.3 -0.08c0,0.37 -0.11,0.5 -0.11,0.93 0.41,0 0.67,0.08 0.68,-0.45 0.02,-0.74 -1.81,-0.85 -2.56,-1.61l-0.09 -0.11c-0.22,-0.29 -0.2,-0.35 -0.2,-0.7zm8.2 4.14c0.02,-0.22 0.29,-0.69 0.4,-0.91 0.05,-0.11 0.06,-0.17 0.11,-0.29 0.18,-0.41 0.36,-0.76 0.55,-1.16 0.11,-0.23 0.16,-0.36 0.26,-0.59 0.09,-0.22 0.19,-0.34 0.29,-0.57l1.1 -2.27c0.32,-0.66 0.1,-0.64 1.08,-0.63 0.69,0 2.99,-0.15 3.48,-0.05 0,0.82 -0.05,1.47 -0.05,2.29 0,0.78 0,1.56 0,2.34 -0,0.32 -0.06,0.5 -0.06,1.12 0.01,0.69 0.05,0.53 -0.71,0.53 -0.29,0 -0.32,0.04 -0.59,0.05l-1.31 -0c-0.23,0.01 -0.43,0.11 -0.43,-0.1 0,-0.72 0.45,-0.54 -1.09,-0.54 -0.01,0.13 -0.2,0.6 -0.29,0.67 -0.18,0.12 -2.38,0.11 -2.75,0.11zm-35.36 -6.33c-0.75,0 -1.29,-0.26 -1.45,-0.89 -0.14,-0.53 0.06,-1.43 0.13,-1.95 0.09,-0.67 0.17,-1.29 0.3,-1.93 0.21,-1.08 0.18,-2.77 0.98,-3.46 0.36,-0.3 1.14,-0.5 1.83,-0.5 0.63,0 1.87,-0.07 2.3,0.03 0.09,0.02 0.37,0.1 0.44,0.14 0.88,0.44 0.53,1.92 0.38,2.68 -0.03,0.18 -0.08,0.28 -0.09,0.46l-2.5 0.05c0,-0.71 0.33,-1.36 -0.05,-1.36 -0.36,0 -0.34,0.01 -0.41,0.46 -0.04,0.23 -0.06,0.34 -0.08,0.56 -0.07,0.8 -0.49,2.82 -0.49,3.46 0,0.16 -0.02,0.24 0.16,0.24 0.75,0 0.21,-1.11 0.76,-1.85 2.43,0 2.48,-0.36 2.31,0.66 -0.09,0.57 -0.28,1.84 -0.58,2.31 -0.23,0.37 -0.81,0.68 -1.28,0.75 -0.98,0.14 -1.68,0.13 -2.68,0.13zm21.23 -9.16c0.45,-0.09 1.17,-0.03 1.64,-0.08l1.67 -0.06c0.45,0 1.29,0.01 1.61,0.12 0.24,0.08 0.38,0.14 0.53,0.3 0.52,0.54 0.13,2.22 0.04,2.76 -0.29,1.82 -0.37,2.5 -2.62,2.67 -0.33,0.02 -0.79,-0.05 -1.03,0.05 -0.08,0.07 -0.32,2.23 -0.43,2.68 -0.32,0.14 -0.83,0.1 -1.3,0.1 -0.51,-0 -0.81,0.05 -1.3,0.05 -0.05,-0.52 0.02,-0.56 0.09,-1.04 0.06,-0.39 0.09,-0.7 0.16,-1.08 0.26,-1.52 0.4,-2.87 0.64,-4.3 0.05,-0.32 0.13,-0.72 0.15,-1.09 0.02,-0.37 0.15,-0.72 0.16,-1.07zm5.54 5.36c0.21,-0.91 0.27,-1.95 0.45,-2.91l0.24 -1.49c0.04,-0.28 0.05,-0.47 0.09,-0.75 0.05,-0.34 -0.01,-0.45 0.41,-0.46 0.58,-0.02 2.16,-0 2.69,-0.07 0.55,-0.07 1.76,-0.04 2.21,0.26 0.82,0.55 0.4,2.18 0.18,2.86 -0.12,0.37 -0.13,0.44 -0.36,0.7 -0.04,0.05 -0.01,0.02 -0.07,0.08 -0.23,0.23 -0.33,0.16 -0.52,0.41 0.1,0.13 0.11,0.11 0.24,0.22 0.58,0.5 0.31,1.46 0.25,2.07 -0.03,0.36 -0.11,0.58 -0.11,0.97 0,0.44 0.11,0.75 0.05,0.97 -0.71,0 -2.07,0.13 -2.72,0 -0.01,-0.22 -0.05,-0.19 -0.05,-0.44 0,-0.45 0.06,-0.79 0.12,-1.21 0.1,-0.71 0.39,-1.57 -0.23,-1.57 -0.24,0 -0.41,1.92 -0.46,2.26 -0.09,0.53 -0.03,1 -0.35,1.05 -0.28,0.04 -0.75,0 -1.01,0.02l-1.44 0.03 0.38 -3.02zm9.57 0.89c0.04,-0.26 0.09,-0.65 0.13,-0.91l0.8 -5.27c0.07,-0.48 -0.07,-0.57 0.52,-0.56 0.19,0 0.41,0.01 0.6,0 0.24,-0.01 0.23,-0.04 0.49,-0.05 0.36,-0.01 0.73,0.01 1.09,0 0.67,-0.01 1.11,-0.14 2.09,0.02 0.2,0.03 0.29,0.07 0.44,0.14l0.31 0.21c0.58,0.62 0.08,2.95 -0.41,3.42l-0.28 0.24c-0.1,0.07 -0.22,0.15 -0.31,0.21 0.09,0.12 0.11,0.12 0.24,0.22 0.83,0.67 0.14,2.05 0.14,3.23 0,0.65 0.45,0.83 -0.71,0.83 -2.21,0 -1.95,0.22 -1.95,-0.83 0,-1.25 0.58,-2.39 -0.11,-2.39 -0.28,0 -0.32,1.09 -0.4,1.54 -0.04,0.24 -0.12,0.59 -0.14,0.85 -0.03,0.29 -0.11,0.58 -0.11,0.82 -0.44,0.09 -2.27,0.18 -2.66,0.1l0.23 -1.84zm-24.78 -6.01c0,0.38 -0.06,0.61 -0.11,0.93l-0.27 1.8c-0.13,1.03 -0.52,4.46 -0.96,5.13 -0.47,0.73 -1.42,0.87 -2.41,0.86 -0.81,-0 -2.03,0.18 -2.66,-0.3 -0.25,-0.19 -0.39,-0.52 -0.39,-0.87 0,-0.59 0.14,-1.44 0.23,-2.08l0.8 -5.28c0.17,-0.07 1.2,-0.1 1.52,-0.1 1.2,0 1.18,-0.08 1.11,0.3 -0.03,0.18 -0.05,0.28 -0.07,0.43l-0.87 5.79c0.11,0.07 0.14,0.15 0.27,0.15 0.38,0 0.4,-0.31 0.44,-0.63l0.62 -4.41c0.07,-0.44 0.14,-1.4 0.3,-1.68l2.44 -0.05zm5.21 -0.15c0.36,0 0.52,-0.04 0.81,-0.05 0.28,-0.01 0.59,0.02 0.87,0 0.28,-0.01 0.46,-0.05 0.81,-0.05 1.65,0.01 1.35,-0.19 1.19,1.02 -0.12,1 -0.43,2.48 -0.49,3.26 -0.04,0.48 -0.51,3.81 -0.65,4.34 -0.55,0 -1.5,-0.05 -1.99,0.02 -0.49,0.07 -0.66,0.12 -0.59,-0.28l0.46 -3.89c-0.03,0.12 -0.05,0.15 -0.1,0.25l-0.6 1.85c-0.16,0.49 -0.46,1.72 -0.66,2.09 -1.89,0 -1.85,0.44 -1.85,-0.93 0,-0.37 0,-0.75 0,-1.12 0,-0.84 -0.11,-1.4 -0.11,-2.14 -0.18,0.12 -0.08,-0.01 -0.11,0.24l-0.59 4c-0.28,0.02 -0.45,0.05 -0.82,0.05 -0.35,-0 -0.44,0.05 -0.76,0.05 -1.15,0.02 -0.64,-0.1 -0.55,-1.42l1.03 -7.16c0.46,-0.1 3.02,-0.1 3.69,-0.1 0,0.54 0.05,1.84 -0.03,2.27l-0.03 1.14 0.3 -0.9c0.08,-0.29 0.17,-0.6 0.23,-0.86l0.5 -1.7zm17.32 -0.49c3.08,0 2.76,-0.42 2.54,0.97 -0.05,0.34 -0.11,0.7 -0.16,1.08 -0.08,0.64 -0.89,6.36 -0.97,6.44 -0.13,0.12 -2.25,0.1 -2.61,0.1 0,-0.67 0.48,-3.62 0.59,-4.3l0.5 -3.79c0.02,-0.18 0.1,-0.27 0.1,-0.49zm-12.75 -10.32c0.1,-0.21 0.25,-0.16 0.59,-0.15 0.41,0 3,-0.07 3.09,-0.04 0.16,0.05 0.12,0.06 0.12,0.28 0,0.11 -0.01,0.23 -0.01,0.35l0 7.75 -2.66 0.1c-0.08,-0.31 -0.05,-0.65 -0.05,-1.02 -0.21,0.09 -0.63,0.05 -0.92,0.05 -0.09,0.34 -0.16,0.75 -0.33,1.02 -0.35,-0.07 -1.8,0 -2.39,0l2.56 -8.32zm17.32 -0.49c1.07,0 1.15,-0.26 1.14,0.34l0.01 1.5c0.04,0.28 0.09,3.78 0.03,4.24 -0.03,0.21 -0.06,0.41 -0.05,0.69 0.02,0.32 0.07,0.3 0.02,0.65 -0.19,1.18 0.56,0.94 -1.38,0.96 -0.39,0 -1.36,0.2 -1.36,-0.1 0,-0.94 0.35,-0.83 -0.76,-0.83 -0.24,0 -0.36,0.78 -0.38,0.97l-2.44 0.1c-0.05,-0.2 0.01,-0.27 0.08,-0.52l2.14 -6.94c0.06,-0.19 0.1,-0.37 0.16,-0.54l0.23 -0.48 2.55 -0.05zm-12.49 2.78c0,-0.54 0.27,-1.5 0.51,-1.83 0.37,-0.5 0.89,-0.67 1.68,-0.78 0.61,-0.08 2.84,-0.17 3.39,0.24 0.69,0.51 0.33,2.02 0.18,2.62 -0.9,0 -1.61,0.05 -2.5,0.05 0,-0.55 0.24,-0.97 -0.11,-0.97 -0.14,0 -0.38,-0.03 -0.38,0.19 0,0.62 -0.06,0.72 0.67,1.2 1.54,1.02 2.32,1.32 1.65,3.75 -0.11,0.39 -0.31,0.78 -0.66,1.02 -0.17,0.12 -0.39,0.22 -0.62,0.27 -0.29,0.07 -1.74,0.17 -2.07,0.17 -0.13,0 -0.17,-0.03 -0.38,-0.03l-0.48 0.03c-0.64,-0.01 -1.4,-0.19 -1.52,-0.86 -0.13,-0.78 0.14,-1.55 0.21,-2.28 0.91,0 1.63,-0.05 2.55,-0.05 -0.01,0.55 -0.36,1.22 0,1.22 0.29,0 0.43,-0 0.43,-0.54 0,-0.48 -0.08,-0.63 -0.66,-1.02 -0.45,-0.3 -0.93,-0.54 -1.28,-0.9 -0.44,-0.44 -0.61,-0.8 -0.61,-1.5zm-19.82 -2.05c0.7,0 1.23,-0.05 1.96,-0.05 2.21,0 1.94,-0.44 1.71,1.09l-1.11 7.29 -2.66 0.05c0,-0.94 0.6,-3.55 0.6,-4.24 -0.14,0.18 -0.63,1.83 -0.74,2.11 -0.09,0.24 -0.13,0.43 -0.21,0.69 -0.6,1.89 -0.39,1.44 -1.44,1.49 -0.3,0.01 -0.54,0.05 -0.92,0.05 -0.15,-0.58 -0.05,-1.51 -0.05,-2.19 0,-0.74 -0.05,-1.37 -0.05,-2.14 -0.07,0.09 0,-0.08 -0.08,0.13l-0.58 3.81c-0.04,0.37 0.02,0.38 -0.37,0.4l-2.07 0.04 0.23 -1.45c0.04,-0.18 0.07,-0.53 0.09,-0.74l0.59 -3.52c0.07,-0.51 0.14,-1.01 0.21,-1.47 0.23,-1.55 0.09,-1.17 0.87,-1.27 0.53,-0.06 0.76,-0.04 1.32,-0.04 0.29,0 0.63,0.01 0.92,0 0.54,-0.03 0.88,-0.23 0.81,0.38 -0.08,0.8 -0.06,1.34 -0.05,2.15 0,0.34 -0.05,0.49 -0.05,0.78l0.11 0c0,-0.22 0.85,-3.15 0.98,-3.36zm9.02 -0.19c0,0.36 -0.08,0.66 -0.14,0.99 -0.06,0.37 -0.1,0.64 -0.19,0.95 -0.4,0 -0.8,-0.01 -1.2,-0 -0.42,0 -0.59,0.02 -0.66,0.19 -0,0.01 -0.04,0.2 -0.04,0.21 -0.12,0.86 -0.3,0.83 0.65,0.73 0.79,-0.08 0.68,0.06 0.59,0.48 -0.04,0.18 -0.04,0.31 -0.08,0.52 -0.05,0.33 -0.12,0.7 -0.19,0.99l-1.36 0c-0.11,0.2 -0.22,1.03 -0.22,1.36 0,0.11 0.06,0.06 0.11,0.07l1.68 -0.03c0,0.27 -0.24,1.78 -0.33,1.95l-1.9 0.05c-0.6,0.02 -1.3,-0.06 -1.88,0.02 -0.13,0.02 -0.3,0.04 -0.46,0.04 -0.21,-0.01 -0.26,-0.01 -0.27,-0.19l1.31 -8.24 4.56 -0.1zm0.22 0c0.47,0 0.75,-0.05 1.25,-0.05 0.21,0 0.44,0.01 0.65,0 0.27,-0.01 0.3,-0.05 0.59,-0.05 0.41,-0 2.25,-0.05 2.5,0 -0.04,0.44 -0.16,0.97 -0.24,1.44 -0.07,0.41 0.3,0.51 -1.23,0.51l-0.5 3.21c-0.01,0.12 -0.07,0.31 -0.09,0.41 -0.02,0.16 -0.01,0.29 -0.04,0.46 -0.06,0.4 -0.3,2.2 -0.41,2.41l-2.66 0.05 0.33 -2.48c0.11,-0.59 0.59,-3.61 0.59,-4l-1.09 0c0,-0.35 0.08,-0.66 0.13,-1 0.05,-0.32 0.07,-0.67 0.19,-0.9zm18.25 1.66c-0.25,-0.47 -0.34,-0.96 -0.71,-1.41 -0.11,-0.14 -0.21,-0.21 -0.35,-0.37 -0.26,-0.3 -0.69,-0.67 -1.11,-0.71 -0.18,-0.02 -0.15,-0.01 -0.32,-0.05 -0.68,-0.15 -1.4,-0.08 -2.13,-0.09 -0.47,-0 -0.97,0.05 -1.4,0.11 -0.34,0.05 -0.83,0.23 -1.09,0.38 -0.44,0.26 -0.6,0.62 -0.82,0.67 0,-0.59 -0.04,-1.01 -0.82,-1.02l-0.92 0.05c-0.33,-0 -0.65,0 -0.98,-0 -0.39,-0 -0.59,0.05 -0.92,0.05 -0.28,0 -0.71,-0.03 -0.97,0 -0.7,0.08 -0.06,0.04 -0.82,0.04l-3.86 0.05c-0.39,-0 -0.59,0.05 -0.92,0.05 -0.63,0.01 -1.38,-0.03 -1.92,0.03 -0.6,0.07 -1.38,-0.05 -1.98,0.03 -1.07,0.13 -2.83,-0.02 -3.78,0.11 -0.51,0.07 -1.47,-0.06 -1.89,0.06 -0.44,0.13 -0.31,0.03 -0.75,0.01 -0.3,-0.01 -0.67,0 -0.98,0 -0.68,-0 -1.19,0.05 -1.9,0.05 -1.95,0 -1.53,0.21 -1.92,2.66l-0.37 2.35c-0.14,1.25 -0.7,3.55 -0.7,4.64 0,0.58 -0.14,0.98 -0.26,1.52 -0.25,1.21 -0.69,1.23 -0.78,2.81 -0.02,0.44 -0.18,1.13 -0.25,1.57l-0.23 1.45c-0.26,1.29 -0.22,1.82 -0.22,3.21 0,0.29 0,0.57 0.02,0.85 0.02,0.3 -0.11,0.76 -0.2,1.08l-0.96 3.87c-0.11,0.42 -0.33,1.07 -0.33,1.51 0,0.29 0.34,0.4 0.63,0.45 0.33,0.06 2.22,0 2.79,-0.01 0.27,-0.01 0.27,-0.04 0.54,-0.05 0.37,-0.01 0.77,0 1.14,0 0.58,-0 1.48,-0.12 2.04,-0.26 0.27,-0.07 0.67,-0.27 0.89,-0.27 0.1,0 0.6,0.27 0.92,0.29l-0.24 0.22c-0.03,0.03 -0.05,0.05 -0.08,0.08l-0.56 0.66c-0.68,0.74 -0.69,1.23 -0.94,2.08l-0.49 1.9c-0.09,0.34 -0.13,0.63 -0.23,0.96 -0.15,0.52 -0.34,1.27 0.11,1.71 0.19,0.19 0.4,0.3 0.66,0.38 1.28,0.39 2.63,0.22 3.99,0.23 0.35,0 0.71,-0.05 0.99,-0.08 0.09,-0.01 0.17,-0.01 0.25,-0.02 0.28,-0.04 0.37,-0.14 0.66,-0.14 0.04,0 0.66,0.15 1.14,0.15l2.77 -0.15c0.12,-0.02 0.29,-0.07 0.37,-0.06l0.66 0.07c1.12,0 2.06,-0.05 3.15,-0.05l5.43 -0.15c0.31,-0 0.41,-0.05 0.76,-0.05 0.85,0 1.47,-0.02 2.2,-0.13 0.3,-0.05 0.45,0.03 0.74,0.03 1.06,0 1.93,-0.05 2.99,-0.05l5.93 -0.19c0.45,-0.05 2.6,0.15 2.6,-0.49 0,-0.23 -0.06,-0.35 -0.11,-0.54 0.18,0.04 0.28,0.14 0.45,0.23 0.48,0.25 0.9,0.6 1.5,0.6 0.09,0 0,-0.06 0.27,-0.1 0.73,-0.09 1.15,-0.55 1.68,-1.02l0.3 -0.27c0.35,-0.18 0.38,-0.13 0.68,-0.42 0.22,-0.21 0.39,-0.59 0.56,-0.86l0.08 -0.12c0.01,-0.01 0.02,-0.02 0.02,-0.03 0.01,-0.01 0.04,-0.04 0.05,-0.05 0.13,-0.15 0.16,-0.27 0.24,-0.46 0.17,-0.37 0.38,-0.52 0.47,-0.95 0.09,-0.43 0.31,-0.56 0.6,-0.82 0.07,-0.06 0.12,-0.12 0.19,-0.17 0.46,-0.35 0.29,-0.13 0.29,-0.72 -0.47,-0.28 -0.97,-0.59 -1.12,-1.09 -0.05,-0.16 -0.08,-0.21 -0.15,-0.35 -0.06,-0.13 -0.09,-0.27 -0.15,-0.4 -0.12,-0.31 -0.27,-0.37 -0.52,-0.59 0.15,-0.33 0.09,-0.97 0.09,-1.36 0,-0.5 -0,-1.01 -0,-1.51 0,-0.3 0.06,-0.38 0.06,-0.68l-0 -2.88c0,-0.51 -0.64,-0.43 -0.81,-0.63 0.72,-0.15 0.38,-0.67 0.38,-1.17 0,-1.06 0.22,-1.53 0.22,-2.44 0,-0.94 -0.57,-0.76 -0.11,-1.27 0.54,-0.6 0.89,-2.63 0.72,-3.27 -0.07,-0.27 -0.3,-0.62 -0.49,-0.78 -0.65,-0.54 -1.68,-0.58 -2.51,-0.58l-0.44 -2.09c-0.04,-0.79 0,-1.69 0,-2.49 0,-1.67 -0,-3.35 0,-5.02 0,-0.75 0.09,-1.35 -1.44,-1.14l-2.75 0.07c-1.17,-0.01 -1.15,0.63 -2.01,1.95 -0.14,0.21 -0.35,0.66 -0.55,0.78z"/>
   <path class="fil1" d="M20.85 12.2l-0.5 1.7c-0.06,0.27 -0.15,0.57 -0.23,0.86l-0.3 0.9 0.03 -1.14c0.08,-0.43 0.03,-1.73 0.03,-2.27 -0.67,0 -3.24,0 -3.69,0.1l-1.03 7.16c-0.09,1.32 -0.6,1.43 0.55,1.42 0.32,-0 0.41,-0.05 0.76,-0.05 0.36,0 0.54,-0.03 0.82,-0.05l0.59 -4c0.03,-0.25 -0.07,-0.12 0.11,-0.24 0,0.75 0.11,1.3 0.11,2.14 0,0.37 0,0.75 0,1.12 0,1.36 -0.05,0.93 1.85,0.93 0.2,-0.37 0.5,-1.59 0.66,-2.09l0.6 -1.85c0.05,-0.1 0.07,-0.14 0.1,-0.25l-0.46 3.89c-0.07,0.39 0.1,0.34 0.59,0.28 0.49,-0.07 1.44,-0.02 1.99,-0.02 0.14,-0.52 0.61,-3.85 0.65,-4.34 0.06,-0.79 0.37,-2.26 0.49,-3.26 0.15,-1.21 0.45,-1.02 -1.19,-1.02 -0.36,-0 -0.53,0.04 -0.81,0.05 -0.28,0.01 -0.59,-0.01 -0.87,-0 -0.29,0.01 -0.45,0.05 -0.81,0.05z"/>
   <path class="fil2" d="M10.43 1.63c-0.13,0.22 -0.98,3.14 -0.98,3.36l-0.11 0c0,-0.29 0.06,-0.44 0.05,-0.78 -0,-0.81 -0.03,-1.35 0.05,-2.15 0.06,-0.61 -0.27,-0.41 -0.81,-0.38 -0.29,0.01 -0.63,-0 -0.92,-0 -0.56,0 -0.79,-0.03 -1.32,0.04 -0.78,0.09 -0.64,-0.28 -0.87,1.27 -0.07,0.46 -0.14,0.96 -0.21,1.47l-0.59 3.52c-0.03,0.21 -0.05,0.56 -0.09,0.74l-0.23 1.45 2.07 -0.04c0.39,-0.02 0.32,-0.04 0.37,-0.4l0.58 -3.81c0.08,-0.21 0.01,-0.04 0.08,-0.13 0,0.78 0.05,1.4 0.05,2.14 0,0.68 -0.1,1.61 0.05,2.19 0.39,0 0.62,-0.03 0.92,-0.05 1.05,-0.05 0.84,0.4 1.44,-1.49 0.08,-0.26 0.12,-0.44 0.21,-0.69 0.11,-0.28 0.6,-1.94 0.74,-2.11 0,0.69 -0.6,3.3 -0.6,4.24l2.66 -0.05 1.11 -7.29c0.24,-1.53 0.5,-1.09 -1.71,-1.09 -0.73,0 -1.26,0.05 -1.96,0.05z"/>
   <path class="fil1" d="M30.25 33.93c0.12,-0.44 0.29,-0.91 0.45,-1.35 0.18,-0.48 0.28,-1.12 0.58,-1.19 0,0.45 -0.11,1.1 -0.19,1.59 -0.15,0.95 0.07,0.95 -0.4,0.95 -0.14,0 -0.3,-0.01 -0.44,-0.01zm-0.54 -4.29c-0.07,0.12 -0.15,0.24 -0.21,0.35l-1.75 3.79c-0.06,0.15 -0.09,0.22 -0.17,0.38l-0.74 1.53c-0.23,-0.15 0.05,-0.26 0.05,-1.02l-1.63 0c0,-0.43 0.15,-0.85 0.25,-1.24 0.13,-0.52 0.92,-3.45 0.88,-3.58 -0.07,-0.22 -1.19,-0.07 -1.45,-0.05 -1.93,0.09 -1.41,-0.47 -1.86,1.25l-1.02 4.25c-0.24,1.28 -0.47,0.87 0.98,0.88 0.45,0 1.2,0.04 1.62,-0.01l3.16 -0.08c0.33,0 1.39,-0.02 1.57,-0.1 0.31,-0.2 0.07,-0.73 0.6,-0.73l0.65 0c0.4,0 -0.08,0.73 0.33,0.73 0.53,0 1.02,0 1.47,-0.04 0.55,-0.06 0.97,0.08 1.4,-0.1l0.05 -6.14c0,-0.23 -0.44,-0.15 -0.92,-0.15 -0.4,-0 -0.64,0.05 -1.08,0.05 -0.8,-0 -1.4,0.05 -2.17,0.05z"/>
   <path class="fil2" d="M37.91 3.09c0.2,-0.12 0.41,-0.57 0.55,-0.78 0.85,-1.32 0.83,-1.96 2.01,-1.95l2.75 -0.07c1.53,-0.21 1.44,0.39 1.44,1.14 -0,1.67 0,3.35 0,5.02 0,0.8 -0.04,1.7 -0,2.49l0.44 2.09c0.83,0 1.85,0.04 2.51,0.58 0.19,0.15 0.42,0.51 0.49,0.78 0.17,0.65 -0.18,2.67 -0.72,3.27 -0.46,0.51 0.11,0.33 0.11,1.27 0,0.91 -0.22,1.38 -0.22,2.44 0,0.5 0.34,1.02 -0.38,1.17 0.17,0.21 0.81,0.12 0.81,0.63l0 2.88c-0,0.3 -0.06,0.38 -0.06,0.68 -0,0.5 0,1.01 0,1.51 0,0.39 0.06,1.03 -0.09,1.36 0.25,0.22 0.4,0.28 0.52,0.59 0.05,0.13 0.09,0.28 0.15,0.4 0.07,0.14 0.1,0.19 0.15,0.35 0.15,0.5 0.65,0.8 1.12,1.09 0,0.59 0.18,0.37 -0.29,0.72 -0.07,0.05 -0.12,0.11 -0.19,0.17 -0.29,0.27 -0.51,0.39 -0.6,0.82 -0.09,0.42 -0.3,0.57 -0.47,0.95 -0.09,0.2 -0.12,0.32 -0.24,0.46 -0.01,0.01 -0.04,0.04 -0.05,0.05 -0.01,0.01 -0.02,0.02 -0.02,0.03l-0.08 0.12c-0.17,0.27 -0.34,0.65 -0.56,0.86 -0.29,0.28 -0.33,0.24 -0.68,0.42l-0.3 0.27c-0.53,0.47 -0.95,0.94 -1.68,1.02 -0.27,0.03 -0.18,0.1 -0.27,0.1 -0.6,0 -1.02,-0.35 -1.5,-0.6 -0.17,-0.09 -0.27,-0.18 -0.45,-0.23 0.05,0.18 0.11,0.3 0.11,0.54 0,0.65 -2.14,0.45 -2.6,0.49l-5.93 0.19c-1.05,-0 -1.93,0.05 -2.99,0.05 -0.29,0 -0.44,-0.08 -0.74,-0.03 -0.73,0.11 -1.34,0.13 -2.2,0.13 -0.35,-0 -0.44,0.05 -0.76,0.05l-5.43 0.15c-1.09,-0 -2.03,0.05 -3.15,0.05l-0.66 -0.07c-0.08,-0.01 -0.25,0.04 -0.37,0.06l-2.77 0.15c-0.48,0 -1.1,-0.15 -1.14,-0.15 -0.28,0 -0.37,0.11 -0.66,0.14 -0.08,0.01 -0.16,0.01 -0.25,0.02 -0.28,0.03 -0.65,0.09 -0.99,0.08 -1.35,-0 -2.71,0.17 -3.99,-0.23 -0.26,-0.08 -0.47,-0.2 -0.66,-0.38 -0.45,-0.45 -0.26,-1.19 -0.11,-1.71 0.1,-0.34 0.14,-0.62 0.23,-0.96l0.49 -1.9c0.24,-0.85 0.25,-1.34 0.94,-2.08l0.56 -0.66c0.03,-0.03 0.05,-0.05 0.08,-0.08l0.24 -0.22c-0.32,-0.02 -0.82,-0.29 -0.92,-0.29 -0.22,0 -0.62,0.2 -0.89,0.27 -0.56,0.14 -1.46,0.26 -2.04,0.26 -0.38,0 -0.77,-0.01 -1.14,-0 -0.27,0.01 -0.27,0.04 -0.54,0.05 -0.57,0.02 -2.46,0.07 -2.79,0.01 -0.3,-0.05 -0.63,-0.16 -0.63,-0.45 0,-0.44 0.21,-1.09 0.33,-1.51l0.96 -3.87c0.09,-0.32 0.22,-0.78 0.2,-1.08 -0.01,-0.28 -0.02,-0.56 -0.02,-0.85 0,-1.39 -0.04,-1.92 0.22,-3.21l0.23 -1.45c0.07,-0.44 0.23,-1.13 0.25,-1.57 0.08,-1.58 0.52,-1.6 0.78,-2.81 0.11,-0.54 0.26,-0.94 0.26,-1.52 -0,-1.08 0.56,-3.38 0.7,-4.64l0.37 -2.35c0.4,-2.44 -0.03,-2.66 1.92,-2.66 0.71,0 1.22,-0.05 1.9,-0.05 0.31,0 0.67,-0.02 0.98,-0 0.43,0.02 0.3,0.12 0.75,-0.01 0.42,-0.12 1.38,0.01 1.89,-0.06 0.95,-0.13 2.71,0.02 3.78,-0.11 0.6,-0.07 1.38,0.05 1.98,-0.03 0.54,-0.07 1.29,-0.03 1.92,-0.03 0.33,-0 0.53,-0.05 0.92,-0.05l3.86 -0.05c0.76,-0 0.12,0.04 0.82,-0.04 0.26,-0.03 0.69,-0 0.97,-0 0.33,-0 0.53,-0.05 0.92,-0.05 0.33,0 0.65,-0 0.98,0l0.92 -0.05c0.77,0.01 0.82,0.43 0.82,1.02 0.23,-0.05 0.39,-0.42 0.82,-0.67 0.26,-0.15 0.76,-0.34 1.09,-0.38 0.43,-0.06 0.93,-0.11 1.4,-0.11 0.73,0.01 1.44,-0.06 2.13,0.09 0.17,0.04 0.14,0.03 0.32,0.05 0.42,0.04 0.85,0.41 1.11,0.71 0.14,0.16 0.24,0.23 0.35,0.37 0.37,0.46 0.45,0.94 0.71,1.41zm0.05 -0.73c-0.38,-0.23 0.05,-0.47 -1.07,-1.47 -0.62,-0.56 -1.06,-0.63 -1.97,-0.72 -0.9,-0.09 -1.7,0.09 -2.5,0.1 -0.54,0.01 -0.68,-0.02 -1.18,0.16 -0.19,0.07 -0.31,0.12 -0.5,0.19 -0.26,0.1 -0.23,0.19 -0.44,0.24 -0.11,-0.07 -0.12,-0.1 -0.24,-0.17 -0.11,-0.07 -0.18,-0.11 -0.29,-0.18 -0.22,-0.14 -0.31,-0.22 -0.71,-0.18 -1.09,0.12 -4.25,-0.01 -5.4,0.13 -0.54,0.07 -1.24,-0.01 -1.79,0.05 -0.82,0.09 -3.63,-0.04 -4.57,0.09 -0.7,0.09 -1.08,0.02 -1.36,0.05 -0.19,0.02 -0.32,0.02 -0.52,0.02 -0.24,-0 -0.35,0.02 -0.51,0.04l-4 0.06c-0.35,-0 -0.73,-0.03 -1.06,0.02l-4.15 0.08c-0.27,0.01 -0.57,0.13 -0.75,0.26 -0.38,0.27 -0.41,1.04 -0.48,1.47l-1.15 7.54c-0.04,0.3 0.01,0.59 -0.04,0.89l-0.15 0.84c-0.05,0.23 -0.11,0.47 -0.17,0.77 -0.1,0.53 -0.48,0.85 -0.6,1.36 -0.05,0.22 -0.06,0.66 -0.09,0.9 -0.03,0.27 -0.07,0.52 -0.12,0.82 -0.04,0.26 -0.12,0.52 -0.15,0.84 -0.03,0.29 -0.11,0.53 -0.15,0.79 -0.05,0.3 -0.12,0.59 -0.16,0.83 -0.06,0.42 -0.29,1.37 -0.29,1.64 0,0.18 0.06,0.33 0.06,0.58l0.06 1.22c0.03,0.76 -0.05,1.04 -0.2,1.73l-0.38 1.61c-0.06,0.23 -0.11,0.24 -0.17,0.48 -0.1,0.4 -0.17,0.69 -0.27,1.08l-0.36 1.58c-0.02,0.08 -0.15,0.49 -0.15,0.55 0,0.19 0.2,0.51 0.32,0.59 0.02,0.01 0.69,0.24 0.71,0.24l4.29 -0.15c1.09,-0.05 0.46,0.09 1.76,-0.13 0.46,-0.08 0.43,-0.04 0.81,-0.2 0.29,-0.11 0.48,-0.15 0.79,-0.02 -0.06,0.2 -0.72,0.8 -0.93,1.21 -0.06,0.13 -0.11,0.19 -0.18,0.32 -0.28,0.49 -0.52,1.8 -0.73,2.46l-0.49 2.19 0.05 0.93c0.03,0.28 0.03,0.27 0.24,0.42 0.16,0.12 0.23,0.18 0.38,0.29l0.39 0.29c0.46,0.27 1.27,0.26 1.83,0.26l1.36 0.05c2,0 1.9,-0.49 3.62,-0.18 0.39,0.07 0.57,0.02 0.94,-0.01 0.68,-0.05 1.32,-0.02 2.01,-0.05 0.46,-0.02 0.23,-0.2 0.81,-0.2 0.41,-0 0.59,0.05 0.98,0.05 0.5,-0 0.98,-0.01 1.47,0.05 0.05,0.01 0.23,0.03 0.23,0.03 0.3,0.01 0.04,-0.03 0.2,-0.03l1.96 -0.01c0.5,0.05 1.03,-0.1 1.51,-0.08l2.78 -0.06c0.41,0 0.64,-0.05 0.98,-0.05 0.3,-0 0.68,0.02 0.97,-0.01 0.88,-0.09 0.41,-0.14 1.59,-0.14 0.54,0 1,0.09 1.47,0.05l1.46 -0.05c0.8,-0.01 1.49,-0.15 2.28,-0.15l2.45 -0.05c0.58,0 2.89,0.07 3.28,-0.03 0.21,-0.05 0.33,-0.18 0.52,-0.27 0.22,-0.1 0.41,-0.12 0.43,-0.39 0.46,0.01 0.94,0.78 1.97,0.36 0.38,-0.15 0.94,-0.24 1.15,-0.57 0.45,-0.7 1.69,-0.96 1.85,-1.56 0.08,-0.3 0.24,-0.58 0.43,-0.84 0.28,-0.38 0.7,-0.82 0.81,-1.27 0.16,-0.66 0.23,-0.59 0.73,-0.95 0.41,-0.29 0.39,-0.37 0.39,-0.82 0,-0.35 -0.84,-0.82 -1.1,-1.06 -0.25,-0.23 -0.09,-0.22 -0.2,-0.55 -0.16,-0.47 -0.14,-0.59 -0.46,-0.95 -0.36,-0.42 -0.19,-0.48 -0.19,-1.14 -0,-0.55 -0.05,-1.14 0.02,-1.69 0,-0.03 0.01,-0.05 0.01,-0.11 0.06,-0.63 0.02,-2.1 0.02,-2.79l0.06 -0.83c0,-0.31 -0.08,-0.3 -0.25,-0.46 -0.16,-0.16 -0.1,-0.21 -0.12,-0.47l-0.06 -1.55c0,-0.33 0.2,-0.6 0.2,-0.94 -0.01,-0.45 0.07,-0.98 -0.05,-1.44 -0.02,-0.06 -0.1,-0.25 -0.1,-0.31 0,-0.22 0.71,-0.57 0.71,-2.63 -0,-0.88 0.22,-1.02 -0.38,-1.75 -0.14,-0.16 -0.49,-0.37 -0.69,-0.5 -0.45,-0.28 -1.42,-0.22 -1.97,-0.33 -0.41,-1.58 -0.33,-1.36 -0.33,-2.97 0,-0.62 -0.06,-1.08 -0.05,-1.66l0 -2.14c0,-0.12 0.05,-0.16 0.05,-0.29l-0.05 -1.42c-0.04,-0.42 0.13,-1.59 -0.12,-1.84 -0.57,-0.56 -0.7,-0.32 -1.77,-0.32l-0.44 0.02c-0.39,0.01 -0.67,0.02 -0.98,0.05 -0.51,0.04 -1.51,-0.11 -1.92,0.03 -0.19,0.07 -0.45,0.26 -0.57,0.41 -0.17,0.22 -0.22,0.37 -0.35,0.61 -0.12,0.22 -0.22,0.39 -0.34,0.62 -0.12,0.22 -0.18,0.5 -0.45,0.57z"/>
   <path class="fil1" d="M34.11 13.81c0.16,-0.05 0.24,0 0.49,0 0.02,0.25 0.04,0.15 0,0.44 -0.11,0.91 -0.02,0.88 -0.65,0.88 -0.07,-0.29 0.09,-1.18 0.16,-1.32zm-3.64 6.67l1.44 -0.03c0.25,-0.02 0.73,0.02 1.01,-0.02 0.33,-0.05 0.27,-0.52 0.35,-1.05 0.06,-0.34 0.23,-2.26 0.46,-2.26 0.62,0 0.33,0.86 0.23,1.57 -0.06,0.42 -0.12,0.76 -0.12,1.21 0,0.24 0.05,0.22 0.05,0.44 0.64,0.13 2,0 2.72,0 0.06,-0.22 -0.05,-0.53 -0.05,-0.97 0,-0.39 0.08,-0.61 0.11,-0.97 0.06,-0.61 0.33,-1.57 -0.25,-2.07 -0.13,-0.11 -0.14,-0.09 -0.24,-0.22 0.19,-0.25 0.29,-0.18 0.52,-0.41 0.06,-0.06 0.03,-0.03 0.07,-0.08 0.23,-0.26 0.24,-0.33 0.36,-0.7 0.21,-0.68 0.64,-2.31 -0.18,-2.86 -0.46,-0.31 -1.66,-0.34 -2.21,-0.26 -0.53,0.07 -2.1,0.06 -2.69,0.07 -0.42,0.01 -0.36,0.12 -0.41,0.46 -0.04,0.28 -0.05,0.46 -0.09,0.75l-0.24 1.49c-0.18,0.96 -0.24,2 -0.45,2.91l-0.38 3.02z"/>
   <path class="fil1" d="M43.83 14.88c-0.2,0 -0.18,-0.15 -0.15,-0.32 0.05,-0.34 0.04,-1.04 0.32,-1.04 0.5,0 0.38,0.15 0.29,0.7 -0.08,0.49 -0.06,0.66 -0.46,0.66zm-3.64 5.31c0.39,0.08 2.22,-0.01 2.66,-0.1 0.01,-0.25 0.08,-0.53 0.11,-0.82 0.03,-0.25 0.1,-0.61 0.14,-0.85 0.07,-0.46 0.12,-1.54 0.4,-1.54 0.69,0 0.11,1.14 0.11,2.39 0,1.05 -0.26,0.83 1.95,0.83 1.15,0 0.71,-0.18 0.71,-0.83 0,-1.18 0.68,-2.57 -0.14,-3.23 -0.13,-0.1 -0.15,-0.1 -0.24,-0.22 0.09,-0.06 0.21,-0.14 0.31,-0.21l0.28 -0.24c0.49,-0.48 0.99,-2.8 0.41,-3.42l-0.31 -0.21c-0.15,-0.07 -0.24,-0.11 -0.44,-0.14 -0.99,-0.16 -1.43,-0.02 -2.09,-0.02 -0.36,0 -0.73,-0.01 -1.09,-0 -0.26,0.01 -0.25,0.04 -0.49,0.05 -0.19,0.01 -0.41,-0 -0.6,-0 -0.59,-0.01 -0.44,0.08 -0.52,0.56l-0.8 5.27c-0.04,0.26 -0.09,0.65 -0.13,0.91l-0.23 1.84z"/>
   <path class="fil1" d="M13.2 12.4c-0.15,0.28 -0.23,1.25 -0.3,1.68l-0.62 4.41c-0.04,0.32 -0.06,0.63 -0.44,0.63 -0.13,0 -0.16,-0.08 -0.27,-0.15l0.87 -5.79c0.02,-0.15 0.04,-0.25 0.07,-0.43 0.07,-0.38 0.09,-0.3 -1.11,-0.3 -0.32,0 -1.35,0.02 -1.52,0.1l-0.8 5.28c-0.09,0.64 -0.23,1.49 -0.23,2.08 0,0.35 0.14,0.68 0.39,0.87 0.63,0.48 1.84,0.29 2.66,0.3 0.99,0.01 1.93,-0.13 2.41,-0.86 0.44,-0.68 0.83,-4.11 0.96,-5.13l0.27 -1.8c0.05,-0.32 0.11,-0.55 0.11,-0.93l-2.44 0.05z"/>
   <path class="fil1" d="M4.07 21.27c1,0 1.7,0.01 2.68,-0.13 0.47,-0.07 1.05,-0.38 1.28,-0.75 0.3,-0.47 0.48,-1.74 0.58,-2.31 0.17,-1.02 0.12,-0.66 -2.31,-0.66 -0.55,0.74 -0.01,1.85 -0.76,1.85 -0.18,0 -0.16,-0.09 -0.16,-0.24 0,-0.65 0.41,-2.66 0.49,-3.46 0.02,-0.22 0.04,-0.34 0.08,-0.56 0.07,-0.44 0.05,-0.46 0.41,-0.46 0.39,0 0.05,0.66 0.05,1.36l2.5 -0.05c0,-0.18 0.05,-0.28 0.09,-0.46 0.14,-0.76 0.49,-2.25 -0.38,-2.68 -0.07,-0.04 -0.35,-0.12 -0.44,-0.14 -0.43,-0.1 -1.68,-0.03 -2.3,-0.03 -0.7,-0 -1.48,0.2 -1.83,0.5 -0.8,0.68 -0.77,2.38 -0.98,3.46 -0.12,0.64 -0.2,1.26 -0.3,1.93 -0.07,0.52 -0.27,1.42 -0.13,1.95 0.16,0.63 0.7,0.89 1.45,0.89z"/>
   <path class="fil2" d="M30.25 3.68c0,0.7 0.17,1.05 0.61,1.5 0.35,0.35 0.83,0.6 1.28,0.9 0.58,0.39 0.66,0.53 0.66,1.02 0,0.53 -0.15,0.54 -0.43,0.54 -0.36,0 -0.01,-0.67 0,-1.22 -0.92,0 -1.64,0.05 -2.55,0.05 -0.07,0.74 -0.34,1.51 -0.21,2.28 0.12,0.67 0.89,0.85 1.52,0.86l0.48 -0.03c0.21,0 0.25,0.03 0.38,0.03 0.33,-0 1.78,-0.1 2.07,-0.17 0.23,-0.06 0.44,-0.16 0.62,-0.27 0.35,-0.24 0.55,-0.63 0.66,-1.02 0.67,-2.43 -0.11,-2.72 -1.65,-3.75 -0.73,-0.49 -0.67,-0.59 -0.67,-1.2 0,-0.22 0.24,-0.19 0.38,-0.19 0.34,0 0.11,0.42 0.11,0.97 0.89,0 1.6,-0.05 2.5,-0.05 0.16,-0.6 0.51,-2.11 -0.18,-2.62 -0.55,-0.41 -2.78,-0.32 -3.39,-0.24 -0.8,0.11 -1.32,0.28 -1.68,0.78 -0.25,0.33 -0.51,1.29 -0.51,1.83z"/>
   <path class="fil2" d="M40.73 6.6c0,-0.28 0.12,-0.62 0.19,-0.91l0.59 -2.44c0,-0.01 0.02,-0.01 0.02,-0.03 0,-0.02 0.01,-0.02 0.02,-0.03 0,0.84 -0.22,2.55 -0.22,3.36l-0.6 0.05zm-0.54 -5.65l-0.23 0.48c-0.06,0.17 -0.1,0.35 -0.16,0.54l-2.14 6.94c-0.07,0.25 -0.12,0.32 -0.08,0.52l2.44 -0.1c0.02,-0.19 0.14,-0.97 0.38,-0.97 1.11,0 0.76,-0.11 0.76,0.83 0,0.29 0.96,0.1 1.36,0.1 1.93,-0.02 1.19,0.22 1.38,-0.96 0.05,-0.34 0.01,-0.32 -0.02,-0.65 -0.02,-0.28 0.02,-0.48 0.05,-0.69 0.06,-0.46 0.01,-3.96 -0.03,-4.24l-0.01 -1.5c0.01,-0.6 -0.08,-0.34 -1.14,-0.34l-2.55 0.05z"/>
   <path class="fil2" d="M26.01 6.94c0.01,-0.28 0.14,-0.63 0.2,-0.89l0.42 -1.76c0.05,-0.19 0.13,-0.65 0.25,-0.8 0,0.67 -0.11,1.16 -0.11,1.75 0,0.32 -0.03,0.59 -0.06,0.92 -0.08,0.93 0.06,0.78 -0.7,0.78zm-3.15 2.78c0.59,0 2.04,-0.07 2.39,0 0.16,-0.28 0.24,-0.68 0.33,-1.02 0.29,0 0.72,0.04 0.92,-0.05 0,0.37 -0.02,0.72 0.05,1.02l2.66 -0.1 0 -7.75c0,-0.11 0.01,-0.24 0.01,-0.35 -0,-0.22 0.04,-0.23 -0.12,-0.28 -0.08,-0.03 -2.68,0.04 -3.09,0.04 -0.34,-0 -0.49,-0.06 -0.59,0.15l-2.56 8.32z"/>
   <path class="fil2" d="M4.78 27.11c0.01,-0.21 0.09,-0.43 0.14,-0.65 0.11,-0.52 0.04,-0.6 0.67,-0.47 0,0.32 -0.04,0.51 -0.12,0.77 -0.1,0.36 -0.28,0.35 -0.7,0.35zm0.81 -3.46c0.23,0 0.59,-0.07 0.61,0.14 0,0.06 -0.15,0.5 -0.29,0.68l-0.54 0 0.22 -0.83zm-2.72 -1.36c-0.05,0.49 -1.51,5.95 -1.52,6.33 0.9,0 1.63,-0.05 2.5,-0.05l2.45 -0.09c0.36,-0.07 0.71,-0.08 1.04,-0.19 0.97,-0.3 1.08,-1.08 1.26,-1.8 0.13,-0.53 0.16,-1.23 -0.62,-1.29l0 -0.1c0.47,-0.1 0.82,-0.35 1.05,-0.71 0.18,-0.29 0.36,-0.9 0.36,-1.33 0,-0.53 -0.42,-0.77 -0.96,-0.84 -0.43,-0.06 -1.3,-0.13 -1.86,-0.07 -0.58,0.06 -3.19,0.03 -3.7,0.14z"/>
   <path class="fil1" d="M38.34 31.89c-0.28,0 -0.12,-0.31 -0.08,-0.51 0.05,-0.21 0.03,-0.52 0.24,-0.52 0.35,0 0.49,-0.04 0.49,0.15 0,0.5 -0.12,0.88 -0.65,0.88zm-4.13 4c0.25,0.11 1.93,-0.05 2.28,-0.05 0.77,0.01 0.69,0.12 1,-1.29 0.23,-1.03 0.13,-1.14 0.63,-1.14 0.37,0 0.18,0.55 0.13,0.7 -0.07,0.24 -0.51,1.68 -0.02,1.68 0.51,0 1.28,0.02 1.7,-0.04 0.31,-0.04 1.16,0.1 1.26,-0.13 0.03,-0.08 -0.08,-0.33 -0.06,-0.51 0.01,-0.1 0.06,-0.46 0.08,-0.56 0.46,-2.15 -0.14,-1.53 -0.47,-1.98 0.15,-0.18 0.59,-0.18 0.87,-0.54 0.53,-0.69 0.42,-0.92 0.34,-1.68 -0.03,-0.29 0.04,-0.12 0.2,-0.32 -0.27,-0.51 -0.4,-0.54 -1.27,-0.66 -0.39,-0.06 -3.31,0.08 -3.89,0.08 -1.28,0 -1.31,-0.09 -1.42,0.53l-0.72 2.96c-0.06,0.25 -0.74,2.74 -0.63,2.94z"/>
   <path class="fil2" d="M12.64 24.28c0.07,-0.32 0.16,-0.54 0.23,-0.82l0.54 0c0,0.38 -0.07,0.67 -0.19,1.04l-0.43 1.7c-0.06,0.25 -0.07,0.71 -0.35,0.71 -0.14,0 -0.38,0.03 -0.38,-0.1l0.58 -2.54zm-3.79 3.28c0,0.48 0.33,0.67 0.77,0.77 1.03,0.22 2.02,0.06 2.87,0.06 0.65,-0 1.6,-0.07 2.14,-0.27 0.88,-0.33 1.03,-0.96 1.24,-1.86 0.14,-0.58 0.88,-3.14 0.74,-3.66 -0.14,-0.5 -0.59,-0.52 -1,-0.61 -0.32,-0.07 -0.14,-0.06 -0.46,-0.06 -1.51,0.01 -4.19,-0.21 -5.03,0.83 -0.38,0.47 -0.84,2.79 -1.02,3.52 -0.1,0.4 -0.24,0.86 -0.24,1.3z"/>
   <path class="fil1" d="M27.48 15.86c-0.05,-0.56 0.13,-1.35 0.27,-1.9 0.58,0 0.62,-0.04 0.47,0.76 -0.17,0.91 0.03,1.14 -0.74,1.14zm-2.17 -3.75c-0.01,0.35 -0.15,0.7 -0.16,1.07 -0.02,0.37 -0.1,0.77 -0.15,1.09 -0.23,1.43 -0.38,2.78 -0.64,4.3 -0.06,0.37 -0.1,0.69 -0.16,1.08 -0.07,0.48 -0.14,0.52 -0.09,1.04 0.5,0 0.79,-0.05 1.3,-0.05 0.47,0 0.98,0.04 1.3,-0.1 0.12,-0.45 0.35,-2.61 0.43,-2.68 0.24,-0.1 0.7,-0.03 1.03,-0.05 2.24,-0.17 2.33,-0.85 2.62,-2.67 0.09,-0.54 0.48,-2.22 -0.04,-2.76 -0.15,-0.16 -0.3,-0.22 -0.53,-0.3 -0.32,-0.11 -1.16,-0.12 -1.61,-0.12l-1.67 0.06c-0.47,0.06 -1.2,-0.01 -1.64,0.08z"/>
   <path class="fil1" d="M11.13 35.1c-0.5,0 -0.2,-0.51 -0.07,-1.08l0.55 -2.28c0.04,-0.11 0.01,-0.1 0.13,-0.17 0.14,-0.08 0.52,-0.15 0.52,0.18l-0.16 0.74c0.03,0.22 0.24,0.14 0.81,0.14 0.36,-0 0.52,-0.05 0.92,-0.05 0.33,0 0.65,0 0.98,0 0.24,-0.32 0.13,-0.14 0.28,-0.67 0.09,-0.31 0.32,-1.17 -0,-1.48 -0.63,-0.6 -2.47,-0.34 -3.32,-0.33 -0.97,0.01 -2.21,0.02 -2.81,0.74 -0.33,0.39 -0.36,0.9 -0.47,1.23l-0.41 1.63c-0.03,0.17 -0.07,0.23 -0.09,0.35 -0.23,1 -0.72,2.12 0.31,2.42 0.79,0.23 2.61,0.07 3.86,0.05 0.51,-0.01 1.05,-0.17 1.38,-0.37 0.39,-0.24 0.65,-0.57 0.76,-0.97 0.07,-0.24 0.1,-0.38 0.16,-0.63 0.28,-1.17 0.53,-0.89 -1.27,-0.9l-1.26 0.09c-0.26,0.09 -0.17,0.28 -0.37,0.94 -0.07,0.25 -0.09,0.43 -0.44,0.43z"/>
   <path class="fil2" d="M23.19 25.31c-1.01,0 -1.85,0.05 -2.88,0.05 -0.25,0.46 -0.21,1.36 -0.54,1.36 -0.71,0 -0.38,-0.16 0,-1.85l0.35 -1.44c0.09,-0.23 0.7,-0.45 0.61,0.1 -0.18,1.07 -0.9,0.7 2.68,0.7 0.15,-0.27 0.64,-1.66 0.16,-2.14 -0.59,-0.59 -2.79,-0.35 -3.75,-0.34 -0.59,0 -1.79,0.18 -2.19,0.57 -0.06,0.06 -0.28,0.3 -0.31,0.36 -0.29,0.47 -0.55,1.88 -0.72,2.52 -0.04,0.16 -0.08,0.3 -0.13,0.52 -0.13,0.62 -0.27,0.94 -0.32,1.61 -0.02,0.33 0.23,0.61 0.54,0.73 0.26,0.1 0.9,0.14 1.23,0.17l2.7 -0.1c0.43,-0.07 0.78,-0.06 1.16,-0.22 1.08,-0.45 1.09,-1.43 1.4,-2.6z"/>
   <path class="fil2" d="M31.23 23.46c0,0.34 -0.02,0.41 0.2,0.7l0.09 0.11c0.75,0.76 2.58,0.88 2.56,1.61 -0.01,0.53 -0.27,0.45 -0.68,0.45 0,-0.42 0.11,-0.55 0.11,-0.93l-2.3 0.08c-0.69,0.09 -0.49,-0.1 -0.65,0.49 -0.39,1.41 -0.26,1.87 1.81,1.87 0.93,0 1.86,-0.01 2.74,-0.13 0.71,-0.09 1.3,-0.19 1.71,-0.86 0.42,-0.69 0.63,-1.74 -0.15,-2.23 -0.15,-0.09 -0.33,-0.18 -0.51,-0.28 -0.48,-0.25 -1.17,-0.44 -1.62,-0.74 -0.3,-0.2 -0.51,-0.78 0.27,-0.78 0.31,0 0.07,0.52 0.05,0.73 0.99,0 1.81,-0.05 2.82,-0.05 0.12,-0.23 0.27,-0.87 0.27,-1.22 0,-0.53 -0.26,-0.74 -0.75,-0.83 -1.19,-0.22 -3.9,-0.19 -4.73,0.15 -0.46,0.19 -0.63,0.27 -0.89,0.66 -0.2,0.3 -0.36,0.74 -0.36,1.19z"/>
   <path class="fil2" d="M43.85 24.45c-0.16,0.97 0.09,0.95 -0.34,1.02 -0.08,0.01 -0.33,0.06 -0.42,0.01 -0.15,-0.08 -0.05,-0.18 -0,-0.29 0.17,-0.43 0.84,-2.12 0.85,-2.32l0.11 0 -0.19 1.58zm-4.42 3.15c0.37,0 2.58,0.01 2.75,-0.11 0.09,-0.06 0.28,-0.53 0.29,-0.67 1.53,0 1.09,-0.18 1.09,0.54 0,0.2 0.2,0.1 0.43,0.1l1.31 0c0.27,-0.01 0.3,-0.05 0.59,-0.05 0.76,-0.01 0.72,0.16 0.71,-0.53 -0.01,-0.62 0.06,-0.8 0.06,-1.12 0,-0.78 -0,-1.56 -0,-2.34 0,-0.82 0.05,-1.47 0.05,-2.29 -0.48,-0.1 -2.78,0.05 -3.48,0.05 -0.99,-0 -0.77,-0.02 -1.08,0.63l-1.1 2.27c-0.1,0.23 -0.19,0.35 -0.29,0.57 -0.1,0.24 -0.16,0.36 -0.26,0.59 -0.19,0.4 -0.37,0.75 -0.55,1.16 -0.05,0.11 -0.06,0.18 -0.11,0.29 -0.11,0.23 -0.38,0.69 -0.4,0.91z"/>
   <path class="fil1" d="M17.92 34.18c0,-0.14 0.03,-0.24 0.07,-0.37 0.06,-0.18 0.08,-0.15 0.13,-0.27l0.22 -0.63c0.14,-0.34 0.25,-0.95 0.5,-1.21 0,1.12 -0.18,1.51 -0.27,2.53 -0.42,0 -0.33,0.1 -0.65,-0.05zm-3.58 2.19c0.23,0.1 1.61,-0 2.06,0 0.55,0 0.62,0.1 0.74,-0.31 0.15,-0.52 0.15,-0.47 0.99,-0.47 0.17,0 0.22,0.05 0.33,0.1 -0.09,0.53 -0.09,0.3 0,0.63l2.4 -0.09c0.76,-0.07 0.59,0.36 0.59,-1.76 0,-1.57 0.05,-2.98 0.05,-4.53 -0.31,-0.13 -0.43,-0.11 -0.77,-0.06 -0.71,0.09 -2.02,0.04 -2.7,0.06 -0.2,0.01 -0.25,0.03 -0.38,0.03 -0.27,-0 -0.31,-0.18 -0.66,0.59l-1.64 3.5c-0.1,0.21 -0.17,0.37 -0.27,0.58l-0.74 1.72z"/>
   <path class="fil2" d="M27.08 23.83c0.1,-0.25 0.16,-0.4 0.23,-0.67 0.19,0.12 0.06,0.11 0.03,0.34l-0.25 2.15c-0.03,0.41 -0.28,0.29 -0.76,0.29l0.74 -2.11zm-4.33 4.2c0.97,0 1.76,-0.05 2.72,-0.05 0.1,-0.13 0.15,-0.25 0.21,-0.4 0.19,-0.5 0.13,-0.26 0.96,-0.37 0.38,-0.05 0.24,-0.08 0.24,0.72 0.46,0 0.69,-0.05 1.14,-0.05 0.62,0 1.13,0.03 1.74,-0.05 0.27,-0.03 0.22,-0.05 0.22,-0.34l-0.01 -2.68c0.01,-0.19 0.07,-0.26 0.05,-0.48 -0.07,-0.6 0.01,-1.88 0.01,-2.69 0,-0.27 -0.43,-0.11 -0.65,-0.1l-2.72 0.05c-0.98,-0 -0.86,-0.03 -1.16,0.61l-1.93 4.07c-0.09,0.2 -0.17,0.4 -0.27,0.58l-0.54 1.17z"/>
   <path class="fil2" d="M14.88 1.53l-1.31 8.24c0.01,0.19 0.06,0.19 0.27,0.19 0.16,0.01 0.33,-0.02 0.46,-0.04 0.58,-0.08 1.28,-0 1.88,-0.02l1.9 -0.05c0.09,-0.17 0.33,-1.68 0.33,-1.95l-1.68 0.03c-0.04,-0.01 -0.11,0.04 -0.11,-0.07 0,-0.33 0.11,-1.16 0.22,-1.36l1.36 0c0.08,-0.3 0.14,-0.66 0.19,-0.99 0.03,-0.21 0.04,-0.34 0.08,-0.52 0.09,-0.42 0.2,-0.56 -0.59,-0.48 -0.96,0.1 -0.77,0.13 -0.65,-0.73 0,-0.01 0.04,-0.2 0.04,-0.21 0.07,-0.17 0.24,-0.19 0.66,-0.19 0.4,-0 0.8,0 1.2,0 0.08,-0.32 0.12,-0.59 0.19,-0.95 0.06,-0.34 0.14,-0.63 0.14,-0.99l-4.56 0.1z"/>
   <path class="fil2" d="M19.66 1.44c-0.12,0.23 -0.14,0.58 -0.19,0.9 -0.06,0.34 -0.13,0.65 -0.13,1l1.09 0c0,0.39 -0.48,3.41 -0.59,4l-0.33 2.48 2.66 -0.05c0.11,-0.21 0.35,-2 0.41,-2.41 0.03,-0.16 0.01,-0.3 0.04,-0.46 0.01,-0.1 0.07,-0.29 0.09,-0.41l0.5 -3.21c1.52,0 1.16,-0.1 1.23,-0.51 0.08,-0.47 0.2,-1 0.24,-1.44 -0.25,-0.05 -2.09,-0.01 -2.5,-0 -0.29,0 -0.32,0.04 -0.59,0.05 -0.21,0.01 -0.44,-0 -0.65,-0 -0.5,-0 -0.78,0.05 -1.25,0.05z"/>
   <path class="fil1" d="M38.18 11.72c-0.01,0.22 -0.08,0.31 -0.1,0.49l-0.5 3.79c-0.11,0.68 -0.59,3.63 -0.59,4.3 0.35,0 2.48,0.02 2.61,-0.1 0.08,-0.07 0.89,-5.8 0.97,-6.44 0.05,-0.37 0.1,-0.74 0.16,-1.08 0.22,-1.39 0.54,-0.97 -2.54,-0.97z"/>
   <path class="fil1" d="M47.19 28.72c-0.18,-0.04 -0.18,-0.08 -0.31,-0.11 -0.31,-0.08 -0.14,0.03 -0.35,0.01 -0.36,-0.03 -0.07,-0.34 0.1,-0.4 0.42,-0.15 1.13,0.06 0.56,0.5zm-2.72 -0.1c-0.26,0 0.03,-0.35 0.21,-0.45 0.7,-0.37 1.03,0.52 0.5,0.53 -0.12,0 -0.24,-0.1 -0.34,-0.11 -0.17,-0.03 -0.12,0.03 -0.37,0.03zm-1.79 2.78c0.26,0.06 0.08,0.09 0.33,0.24l0 -0.19c0.04,0.01 0.12,0.03 0.14,0.03 -0.05,-0.07 -0.18,-0.25 -0.19,-0.28 -0.05,-0.12 -0.03,-0.1 0.06,-0.24l-0.11 -0.14c-0.21,-0.29 -0.34,-0.45 0,-0.69 0.34,-0.23 0.88,-0.82 1.41,-0.83 -0.01,0 -0.1,0.09 -0.11,0.1 0.49,0 0.49,0.04 0.81,0.19l0 -0.1c0.09,0.02 0.34,0.08 0.39,0.09 0.29,0.02 0.04,-0.02 0.22,-0.03 0.25,-0.01 0.09,-0.02 0.14,0.04 0.63,-0.12 0.92,-0.44 1.48,0.34 0.19,0.26 0.14,0.08 0.16,0.3l0.05 -0.1c0.54,0.32 0.37,0.08 0.81,0.34 -0.04,0.14 -0.29,0.36 -0.43,0.49 -0.46,0.43 -0.45,0.57 -0.82,0.58 0.01,-0.01 0.1,-0.09 0.12,-0.1 -0.31,0.02 -0.45,0.16 -0.7,0.26 -0.13,0.05 -0.24,0.09 -0.35,0.13 -0.14,0.06 -0.18,0.04 -0.27,0.15 0.12,-0.03 0.12,-0.04 0.27,-0.05l0 0.1c0.3,-0.06 0.5,-0.24 0.74,-0.22l0.07 0.02 0.1 -0.11c0.06,-0.06 0.06,-0.05 0.12,-0.09 -0.06,0.25 -0.14,0.33 -0.25,0.56l-0.15 0.26c-0.07,0.14 -0.01,0.12 -0.15,0.26 0,-0.17 0.02,-0.17 -0.04,-0.29 -0.06,0.68 -0.44,-0.02 -1.48,-0.05 -0.27,-0.01 -0.49,0.06 -0.4,-0.21l1.06 -1.6c-0.4,0.08 0.08,-0.02 -0.33,-0.09 -0.2,-0.04 -0.25,0.04 -0.48,0.04 -0.06,0.15 -0.2,0.26 -0.3,0.41 -0.11,0.14 -0.16,0.22 -0.27,0.39 -0.18,0.28 -0.33,0.56 -0.51,0.81 -0.31,-0.01 -0.47,-0.11 -0.71,-0.14 -0.29,-0.03 -0.53,0.04 -0.75,-0.05 -0.04,0.14 -0.11,0.19 -0.18,0.32 -0.08,0.13 -0.11,0.21 -0.14,0.36 0.16,0.03 0.08,-0.01 0.16,0.1 0.72,0 0.67,-0.06 1.25,0.1 0,0.23 -0.22,0.9 -0.3,1.19l-0.35 1.2c0.14,0.09 0.25,0.17 0.42,0.26 0.33,0.17 0.37,0.02 0.56,0.08 0,-0.63 0.31,-2.14 0.54,-2.53 0.61,0 0.6,0 1.1,0.13 0.27,0.07 0.65,0.22 0.8,0.4l0.11 0c-0.02,0.2 -0.11,0.44 -0.16,0.63 0.41,-0.01 0.77,-0.46 0.94,-0.76 0.77,-1.36 0.29,-1.12 1.62,-2.59 0.52,-0.58 0.54,-0.34 -0.08,-0.82 -1.05,-0.83 -0.56,-2.07 -1.78,-2.06 -0.31,0 -0.65,0.23 -0.85,0.36 -0.18,0.11 -0.06,0.08 -0.35,0.08 -0.21,-0.71 -1.14,-0.42 -1.59,-0.06 -0.21,0.16 -0.38,0.43 -0.53,0.64 -0.09,0.12 -0.09,0.09 -0.17,0.24 -0.37,0.7 -0.49,0.75 -1.3,1.13 0.03,0.37 0.17,0.21 0.36,0.46 0.09,0.12 0.22,0.45 0.24,0.62z"/>
   <path class="fil2" d="M47.41 30.23c-0.02,-0.22 0.03,-0.04 -0.16,-0.3 -0.56,-0.77 -0.85,-0.46 -1.48,-0.34 -0.25,0.16 -0.52,0.08 -0.75,0 -0.32,-0.15 -0.32,-0.19 -0.81,-0.19 -0.26,0.09 -0.45,0.13 -0.54,0.34 0.15,0.34 0.29,0.2 0.65,0.19 0.17,0.62 0.89,0.27 1.14,0.15 0.49,0.66 1.05,0.1 1.25,0.05 0.12,0.09 0.11,0.06 0.16,0.19 0.28,0.01 0.41,0.07 0.54,-0.1z"/>
   <path class="fil2" d="M43.77 35.54c0.44,0.19 0.43,-0.13 0.43,-0.49 0.03,-0.35 0.16,-1.16 0.27,-1.36 0.4,0.1 0.76,0.88 1.14,0.93l0.16 -0.25 -0.1 -0.11c-0.04,-0.04 -0.05,-0.06 -0.1,-0.1 -0.25,-0.23 -0.47,-0.36 -0.61,-0.63l-0.08 -0.14 0.32 0.08 0.45 0.43c0.12,0.13 0.07,0.05 0.13,0.18l0.22 0c-0.02,-0.37 -0.15,-0.08 -0.2,-0.37 0.18,0.02 0.09,0.05 0.33,0.08l0.09 -0.24c-0.15,-0.18 -0.53,-0.33 -0.8,-0.4 -0.5,-0.13 -0.49,-0.13 -1.1,-0.13 -0.23,0.39 -0.54,1.9 -0.54,2.53z"/>
   <path class="fil0" d="M43.01 30.96l0.21 -0.16c0.19,0.03 0.06,-0 0.17,0.05 0.04,-0.38 0.75,-0.58 0.81,-0.57l0.3 0.26c0,0 0.02,0.02 0.02,0.02 0.21,-0.1 0.14,-0.14 0.38,-0.04 0.23,-0 0.28,-0.08 0.48,-0.04 0.41,0.07 -0.07,0.17 0.33,0.09l0.33 0 0.06 0.1c0.27,-0.06 0.2,-0.23 0.64,-0.19 0.42,0.03 0.4,0.05 0.83,0 0.63,-0.07 0.27,0.27 0.06,0.45 -0.2,0.17 -0.18,0.1 -0.21,0.31 -0.14,0.13 -0.13,0.11 -0.29,0.21 -0.02,0.01 -0.11,0.09 -0.12,0.1 0.37,-0.01 0.36,-0.15 0.82,-0.58 0.14,-0.13 0.39,-0.35 0.43,-0.49 -0.44,-0.27 -0.28,-0.02 -0.81,-0.34l-0.05 0.1c-0.13,0.17 -0.27,0.11 -0.54,0.1 -0.05,-0.13 -0.05,-0.1 -0.16,-0.19 -0.2,0.05 -0.76,0.61 -1.25,-0.05 -0.25,0.12 -0.97,0.48 -1.14,-0.15 -0.36,0.01 -0.5,0.15 -0.65,-0.19 0.09,-0.21 0.28,-0.25 0.54,-0.34 0.01,-0 0.1,-0.09 0.11,-0.1 -0.54,0.01 -1.07,0.59 -1.41,0.83 -0.34,0.23 -0.22,0.39 -0,0.69l0.11 0.14z"/>
   <path class="fil0" d="M12.06 26.82c0,0.13 0.24,0.1 0.38,0.1 0.28,0 0.29,-0.46 0.35,-0.71l0.43 -1.7c0.12,-0.37 0.19,-0.66 0.19,-1.04l-0.54 0c-0.07,0.27 -0.16,0.5 -0.23,0.82l-0.58 2.54z"/>
   <path class="fil2" d="M46.56 32.42l-0.07 -0.09c0.23,-0.22 0.29,-0.13 0.44,-0.49l-0.07 -0.02c-0.24,-0.02 -0.44,0.16 -0.74,0.22 -0.26,0.04 -0.14,0.1 -0.54,0.1 0.09,-0.14 0.07,-0.08 0.27,-0.15 0.09,-0.11 0.13,-0.09 0.27,-0.15 0.11,-0.04 0.22,-0.08 0.35,-0.13 0.25,-0.1 0.39,-0.24 0.7,-0.26 0.16,-0.1 0.15,-0.08 0.29,-0.21l0 -0.08c-0.22,0.01 -0.81,0.24 -1.02,0.33 -0.31,0.12 -0.63,0.28 -0.94,0.38l-0.27 0.06c0.03,-0.08 0.05,-0.1 0.09,-0.17 0.11,-0.24 0.25,-0.4 0.39,-0.58 0.08,-0.11 0.13,-0.19 0.21,-0.3 0.11,-0.15 0.14,-0.08 0.16,-0.3l-0.33 0 -1.06 1.6c-0.09,0.27 0.13,0.2 0.4,0.21 1.04,0.03 1.42,0.72 1.48,0.05z"/>
   <path class="fil3" d="M46.05 30.57c-0.02,0.21 -0.04,0.14 -0.16,0.3 -0.08,0.1 -0.13,0.19 -0.21,0.3 -0.14,0.19 -0.29,0.35 -0.39,0.58 0.17,0.03 0.14,0.05 0.18,0.11 0.31,-0.1 0.63,-0.26 0.94,-0.38 0.21,-0.08 0.8,-0.31 1.02,-0.33l0 0.08c0.03,-0.21 0.01,-0.13 0.21,-0.31 0.21,-0.18 0.57,-0.52 -0.06,-0.45 -0.44,0.05 -0.41,0.03 -0.83,-0 -0.44,-0.03 -0.37,0.13 -0.64,0.19l-0.06 -0.1z"/>
   <path class="fil2" d="M41.86 33.64l0.93 -0.63c0.23,0 0.44,0.01 0.21,0.18l-0.34 0.23c-0.19,0.13 -0.51,0.42 -0.69,0.46l-0.05 0.26 0.17 0c0.11,-0.17 0.36,-0.35 0.55,-0.45l0.21 -0.1 -0.11 0.39c-0,0.16 -0.18,0.75 -0.23,0.83 -0.07,0.25 0.02,0.33 0.28,0.39l0.35 -1.2c0.08,-0.28 0.3,-0.96 0.3,-1.19 -0.58,-0.15 -0.53,-0.1 -1.25,-0.1l-0.22 0.02c-0.08,0.2 -0.13,0.26 0.11,0.32 -0.07,0.13 -0.42,0.21 -0.23,0.58z"/>
   <path class="fil2" d="M44.53 30.56c-0.05,0.19 -0.22,0.34 -0.34,0.49 -0.11,0.16 -0.22,0.35 -0.37,0.45 -0.13,-0.09 -0.39,-0.47 -0.43,-0.65 -0.11,-0.05 0.02,-0.02 -0.17,-0.05l-0.21 0.16c-0.08,0.14 -0.11,0.12 -0.06,0.24 0.01,0.03 0.14,0.21 0.19,0.28l0.06 0.15 -0.2 0.01c-0.25,-0.15 -0.07,-0.18 -0.33,-0.24l0 0.24c-0.23,0.02 -0.09,-0.03 -0.22,0.1 -0.03,0.04 -0.08,0.14 -0.11,0.19 0.23,0.1 0.46,0.02 0.75,0.05 0.24,0.03 0.4,0.14 0.71,0.14 0.18,-0.25 0.33,-0.53 0.51,-0.81 0.11,-0.17 0.16,-0.25 0.27,-0.39 0.11,-0.14 0.25,-0.26 0.3,-0.41 -0.24,-0.1 -0.17,-0.06 -0.38,0.04z"/>
   <path class="fil3" d="M44.21 35.05l0.04 0.11c0.04,0.21 -0.09,0.53 0.62,0.09 0.34,-0.21 0.53,-0.49 0.62,-0.56l0.13 -0.08c-0.38,-0.05 -0.74,-0.83 -1.14,-0.93 -0.11,0.21 -0.24,1.02 -0.27,1.36z"/>
   <path class="fil0" d="M26.01 6.94c0.77,0 0.62,0.15 0.7,-0.78 0.03,-0.33 0.06,-0.61 0.06,-0.92 -0.01,-0.59 0.11,-1.08 0.11,-1.75 -0.12,0.15 -0.2,0.61 -0.25,0.8l-0.42 1.76c-0.06,0.27 -0.19,0.61 -0.2,0.89z"/>
   <path class="fil0" d="M30.25 33.93c0.15,0 0.3,0.01 0.44,0.01 0.47,-0 0.25,-0 0.4,-0.95 0.08,-0.49 0.19,-1.14 0.19,-1.59 -0.3,0.07 -0.4,0.71 -0.58,1.19 -0.16,0.43 -0.34,0.9 -0.45,1.35z"/>
   <path class="fil0" d="M27.48 15.86c0.77,0 0.57,-0.23 0.74,-1.14 0.15,-0.81 0.1,-0.76 -0.47,-0.76 -0.14,0.55 -0.32,1.34 -0.27,1.9z"/>
   <path class="fil0" d="M26.34 25.94c0.48,0 0.73,0.11 0.76,-0.29l0.25 -2.15c0.03,-0.23 0.15,-0.21 -0.03,-0.34 -0.07,0.27 -0.14,0.42 -0.23,0.67l-0.74 2.11z"/>
   <path class="fil0" d="M40.73 6.6l0.6 -0.05c0,-0.81 0.22,-2.53 0.22,-3.36 -0.01,0.01 -0.02,0.01 -0.02,0.03 -0,0.02 -0.02,0.02 -0.02,0.03l-0.59 2.44c-0.07,0.28 -0.19,0.62 -0.19,0.91z"/>
   <path class="fil0" d="M44.04 22.87l-0.11 0c-0,0.2 -0.67,1.89 -0.85,2.32 -0.05,0.11 -0.15,0.21 0,0.29 0.1,0.05 0.34,0 0.42,-0.01 0.42,-0.07 0.18,-0.04 0.34,-1.02l0.19 -1.58z"/>
   <path class="fil0" d="M17.92 34.18c0.32,0.15 0.23,0.05 0.65,0.05 0.1,-1.03 0.27,-1.42 0.27,-2.53 -0.25,0.26 -0.36,0.87 -0.5,1.21l-0.22 0.63c-0.05,0.12 -0.07,0.09 -0.13,0.27 -0.04,0.13 -0.07,0.23 -0.07,0.37z"/>
   <path class="fil3" d="M43.39 30.85c0.04,0.18 0.3,0.56 0.43,0.65 0.15,-0.1 0.26,-0.29 0.37,-0.45 0.11,-0.15 0.28,-0.3 0.34,-0.49 -0.01,-0.01 -0.02,-0.02 -0.02,-0.02l-0.3 -0.26c-0.06,-0.01 -0.77,0.19 -0.81,0.57z"/>
   <path class="fil0" d="M34.11 13.81c-0.07,0.14 -0.24,1.03 -0.16,1.32 0.64,0 0.54,0.03 0.65,-0.88 0.04,-0.28 0.02,-0.19 -0,-0.44 -0.25,0 -0.33,-0.05 -0.49,0z"/>
   <path class="fil0" d="M43.83 14.88c0.4,0 0.38,-0.18 0.46,-0.66 0.09,-0.56 0.2,-0.7 -0.29,-0.7 -0.27,0 -0.26,0.7 -0.32,1.04 -0.03,0.18 -0.05,0.32 0.15,0.32z"/>
   <path class="fil0" d="M4.78 27.11c0.42,0 0.6,0.01 0.7,-0.35 0.07,-0.26 0.12,-0.45 0.12,-0.77 -0.64,-0.13 -0.56,-0.05 -0.67,0.47 -0.05,0.22 -0.14,0.45 -0.14,0.65z"/>
   <path class="fil0" d="M38.34 31.89c0.53,0 0.65,-0.38 0.65,-0.88 0,-0.19 -0.14,-0.15 -0.49,-0.15 -0.21,0 -0.19,0.31 -0.24,0.52 -0.05,0.2 -0.2,0.51 0.08,0.51z"/>
   <path class="fil0" d="M5.38 24.48l0.54 0c0.14,-0.19 0.29,-0.63 0.29,-0.68 -0.02,-0.21 -0.39,-0.14 -0.61,-0.14l-0.22 0.83z"/>
   <path class="fil3" d="M42.09 34.14c-0.02,0.21 -0.06,0.19 0.07,0.41 0.09,0.16 0.14,0.24 0.36,0.26 0.05,-0.08 0.22,-0.67 0.23,-0.83l-0.1 -0.29c-0.19,0.11 -0.45,0.28 -0.55,0.45z"/>
   <path class="fil2" d="M44.48 28.62c0.24,0 0.19,-0.06 0.37,-0.03 0.1,0.02 0.22,0.11 0.34,0.11 0.53,-0 0.2,-0.9 -0.5,-0.53 -0.18,0.1 -0.46,0.45 -0.21,0.45z"/>
   <path class="fil2" d="M47.19 28.72c0.57,-0.45 -0.14,-0.65 -0.56,-0.5 -0.17,0.06 -0.46,0.36 -0.1,0.4 0.21,0.02 0.04,-0.09 0.35,-0.01 0.14,0.04 0.13,0.08 0.31,0.11z"/>
   <path class="fil1" d="M41.86 33.64c0.09,0.15 -0.02,0.11 0.11,0.24 0.18,-0.04 0.51,-0.33 0.69,-0.46l0.34 -0.23c0.23,-0.18 0.02,-0.18 -0.21,-0.18l-0.93 0.63z"/>
   <path class="fil1" d="M44.97 33.53c0.14,0.27 0.36,0.4 0.61,0.63 0.05,0.04 0.06,0.06 0.1,0.1l0.1 0.11c0.04,-0.14 0.03,-0.15 0.16,-0.25l0.06 -0.04 -0.22 0c-0.06,-0.13 -0,-0.05 -0.13,-0.18l-0.45 -0.43 -0.07 0.07 -0.16 -0.01z"/>
   <path class="fil0" d="M46.92 31.84c-0.15,0.36 -0.22,0.27 -0.44,0.49l0.07 0.09c0.06,0.12 0.04,0.13 0.04,0.29 0.13,-0.14 0.07,-0.12 0.15,-0.26l0.15 -0.26c0.11,-0.22 0.18,-0.31 0.25,-0.56 -0.06,0.04 -0.06,0.03 -0.12,0.09l-0.1 0.11z"/>
   <path class="fil0" d="M45.02 29.6c0.24,0.08 0.5,0.16 0.75,0 -0.05,-0.06 0.11,-0.05 -0.14,-0.04 -0.18,0.01 0.07,0.05 -0.22,0.03 -0.05,-0 -0.3,-0.07 -0.39,-0.09l0 0.1z"/>
   <path class="fil0" d="M45.84 31.98c-0.2,0.06 -0.18,0 -0.27,0.15 0.41,-0 0.28,-0.06 0.54,-0.1l0 -0.1c-0.15,0.01 -0.15,0.02 -0.27,0.05z"/>
   <polygon class="fil0" points="42.64,33.69 42.74,33.98 42.85,33.59 "/>
   <path class="fil0" d="M43.01 31.64l0.2 -0.01 -0.06 -0.15c-0.02,-0 -0.1,-0.02 -0.14,-0.03l0 0.19z"/>
   <path class="fil0" d="M45.47 31.86c-0.04,-0.06 -0.01,-0.08 -0.18,-0.11 -0.05,0.07 -0.06,0.09 -0.09,0.17l0.27 -0.06z"/>
   <polygon class="fil0" points="44.97,33.53 45.13,33.54 45.2,33.47 44.88,33.39 "/>
  </g>
 </g>
</svg>
