<?xml version="1.0" encoding="UTF-8"?>
<!DOCTYPE svg PUBLIC "-//W3C//DTD SVG 1.1//EN" "http://www.w3.org/Graphics/SVG/1.1/DTD/svg11.dtd">
<!-- Creator: CorelDRAW -->
<svg xmlns="http://www.w3.org/2000/svg" xml:space="preserve" width="49.8503mm" height="43.1997mm" version="1.1" style="shape-rendering:geometricPrecision; text-rendering:geometricPrecision; image-rendering:optimizeQuality; fill-rule:evenodd; clip-rule:evenodd"
viewBox="0 0 94.35 81.76"
 xmlns:xlink="http://www.w3.org/1999/xlink"
 xmlns:xodm="http://www.corel.com/coreldraw/odm/2003">
 <defs>
  <style type="text/css">
   <![CDATA[
    .fil0 {fill:black}
    .fil5 {fill:black}
    .fil2 {fill:#8AB532}
    .fil3 {fill:#EEF3F1}
    .fil1 {fill:#FECB00}
    .fil4 {fill:#FEFEFE}
    .fil6 {fill:black;fill-rule:nonzero}
   ]]>
  </style>
 </defs>
 <g id="Camada_x0020_1">
  <metadata id="CorelCorpID_0Corel-Layer"/>
  <g id="_2014807202816">
   <path class="fil0" d="M94.35 39.18l0 3.42c-0.02,1.59 -0.11,3.19 -0.38,4.73 -0.38,2.12 -0.78,3.97 -1.42,5.93 -0.21,0.65 -0.42,1.22 -0.63,1.81 -1.06,2.93 -2.7,6.23 -4.58,8.76l-2.06 2.84 -2.8 3.2c-0.67,0.67 -1.77,1.91 -2.51,2.39 -1.45,0.95 -2.79,2.09 -4.26,3.01 -0.54,0.34 -0.96,0.61 -1.49,0.96 -0.99,0.67 -2.08,1.13 -3.15,1.67 -0.31,0.16 -0.53,0.26 -0.85,0.42 -0.32,0.16 -0.45,0.27 -0.76,0.43 -0.92,0.45 -2.54,0.94 -3.61,1.29 -1.98,0.65 -3.88,0.97 -6.03,1.23 -3.83,0.47 -3.46,0.49 -7.43,0.49l-0.19 0c-3.67,0 -8.36,-0.97 -11.79,-2.15l-4.09 -1.82c-0.83,-0.48 -1.73,-0.88 -2.57,-1.4l-3.05 -1.93c-0.21,-0.15 -0.35,-0.23 -0.56,-0.37 -0.41,-0.27 -0.76,-0.49 -1.14,-0.8 -0.4,-0.32 -0.75,-0.57 -1.14,-0.89l-1.57 -1.38c-0.19,-0.19 -0.32,-0.32 -0.51,-0.51l-2.8 -3.12c-0.17,-0.22 -0.28,-0.3 -0.47,-0.54 -0.17,-0.22 -0.24,-0.28 -0.42,-0.51l-1.64 -2.33c-0.54,-1.04 -1.42,-2.3 -2.15,-3.76 -0.25,-0.5 -2.41,-4.95 -2.51,-5.35 -0.64,0 -0.94,0.08 -1.6,0.08l-9.54 -0.08c-1.06,0 -1.94,-0.1 -2.72,-0.75 -0.96,-0.79 -1.93,-1.64 -1.93,-3.14l0.1 -19.42c0.13,-1.15 -0.01,-2.2 -0.01,-3.48 0,-1.39 0.16,-2.23 1.12,-3.19 0.77,-0.77 1.29,-1.24 2.42,-1.47 1.17,-0.24 4.21,-0.12 5.59,0.01 0.43,0.04 0.64,-0.04 0.94,-0.07 0.93,-0.1 1.92,-0.01 2.86,-0.01 0.45,0 0.63,0.04 0.94,0.08 0.42,0.04 0.48,-0.06 0.91,-0.08 1.87,-0.06 2.4,0.47 3.1,-0.95l1.38 -2.6c0.71,-1.24 1.59,-2.36 2.33,-3.58 0.51,-0.85 1.17,-1.52 1.76,-2.29 0.28,-0.36 0.67,-0.7 1,-1.03 0.52,-0.52 0.89,-1.04 1.46,-1.49l2.59 -2.39c0.29,-0.29 0.75,-0.65 1.08,-0.86 0.84,-0.53 1.63,-1.04 2.46,-1.59 0.43,-0.29 0.78,-0.52 1.22,-0.81 0.41,-0.27 0.75,-0.53 1.19,-0.76 0.91,-0.46 1.77,-0.84 2.68,-1.29 2.74,-1.37 7.7,-2.61 10.73,-3.2 3.43,-0.67 7.08,-0.71 10.52,-0.03 1.41,0.28 2.71,0.59 4.06,0.92 1.97,0.49 3.83,1.14 5.71,1.81 1.05,0.37 5.92,2.63 6.81,3.16 1.54,0.93 3.06,1.85 4.5,2.94 1.79,1.35 2.37,2.15 3.87,3.65 0.23,0.23 0.37,0.44 0.59,0.68 1.34,1.53 2.54,3.3 3.77,4.93 1.74,2.3 3.18,5.63 4.14,8.28l0.94 2.86c0.83,2.99 1.61,5.82 1.61,9.46z"/>
   <path class="fil1" d="M40.41 25.61c0.11,-0.71 -0.12,-1.74 -0.15,-2.48 -0.04,-0.83 0.15,-1.59 0.29,-2.36 0.38,-2.2 0.67,-6.58 2.62,-7.86 0.34,-0.22 0.41,-0.4 0.67,-0.68 0.63,-0.69 3.18,-2.1 4.09,-2.5 1.83,-0.81 3.77,-1.42 5.57,-2.29 1.18,-0.52 6.52,-2.01 7.61,-1.91 1.08,0.1 3.09,1.54 4.05,2.12 1.19,0.7 2.07,1.37 3.12,2.12 0.52,0.37 1.1,0.62 1.61,1.01l2.64 2.59c0.51,0.55 0.85,0.8 1.35,1.27 2.13,1.98 3.18,3.4 4.12,6.43 1.07,3.48 -0.22,5.67 -1.13,8.56 -0.56,1.77 0.38,2.65 1,3.98 0.81,1.75 1.78,3.48 2.68,5.18 1.13,2.15 0.82,1.92 0.88,4.36 0.02,0.82 -0.33,1.36 -0.71,1.9 -0.84,1.19 -2.02,1.44 -3.92,1.37 -4.16,-0.16 -6.41,-4.54 -8.12,-2.85 -1.52,1.51 -2.95,3.39 -3.7,5.51 -0.56,1.61 -0.59,2.71 -0.67,4.53 -0.08,1.82 -0.15,5.89 0.11,7.73 0.13,0.9 1.31,2.84 1.92,3.39 1.86,1.69 2.69,1.75 4.96,2.89 1.2,0.6 2.24,1.21 3.41,1.83 1.43,0.77 2.04,2.12 2.75,2.51 0.54,-0.28 2.47,-1.94 2.91,-2.36 5.46,-5.77 8.97,-10.87 11,-18.7 1.36,-5.23 1.8,-11.11 0.89,-16.45l-0.07 -0.38c-2.62,-14.18 -12.45,-25.87 -26.2,-30.39l-0.42 -0.14c-8.55,-2.72 -15.41,-2.68 -23.94,0.01 -5.52,1.74 -12.06,6.04 -16.11,10.21 -2.8,2.89 -5.2,6.33 -6.7,10.07 -0.53,1.32 -1.64,1.05 -3.02,1.04 -2.77,-0.03 -9.94,-0.29 -11.97,0.19 -0.97,0.23 -1.89,1.05 -2.05,2.09 -0.36,2.41 -0.19,9.61 -0.14,12.16 0.05,2.75 -0,5.45 -0.04,8.2 -0.04,2.82 -0.19,5.19 2.51,5.69 1.19,0.22 2.76,0.14 4,0.14 1.66,0 7.13,-0.12 8.28,-0.03 0.85,0.07 0.8,0.3 1.05,1 1.52,4.12 2.66,6.01 4.95,9.49 0.43,0.65 1.18,1.95 1.78,2.26 0.45,-0.2 0.78,-0.61 1.13,-0.93 1.13,-1.02 2.21,-1.89 3.51,-2.74 2.36,-1.54 3.11,-1.71 6.58,-1.73 2.78,-0.01 1.47,-0.83 3.07,-1.03 1.15,-0.14 2.91,-0.08 4.11,-0.07 0.89,0.01 3.29,-0.12 3.92,0.24 0.64,0.37 0.55,0.64 1.37,0.01l2.19 -1.95c1.76,-1.52 1.32,-2.07 2.17,-4.01 0.36,-0.81 0.34,-0.85 -0.36,-1.28 -1.18,-0.72 -2.84,-1.5 -3.66,-2.5 -2.21,-2.69 -3.12,-4.82 -4.32,-8.1 -0.3,-0.81 -0.53,-2.38 -1.26,-2.94 -0.29,1.01 -0.04,2.42 -0.03,3.57 0.01,1.24 -0.01,2.48 -0.01,3.72 0,2.02 0.56,5.48 -1.37,6.08 -1.14,0.35 -5.8,0.15 -7.34,0.14l-22.38 0.02c-2.27,0 -5.17,0.17 -7.35,-0.06 -1.19,-0.13 -1.64,-0.75 -1.77,-1.96 -0.12,-1.16 -0.08,-2.36 -0.05,-3.53 0.18,-6.19 -0.1,-12.47 0.04,-18.68 0.03,-1.3 0.24,-2.1 1.21,-2.51 0.93,-0.39 5.82,-0.27 7.15,-0.25 0.73,0.01 28.43,0.17 29.68,-0z"/>
   <path class="fil2" d="M63.87 27.49c1.33,-0.19 2.06,0.14 2.82,0.75 0.51,0.42 1.31,1.31 1.59,2.04 0.65,1.69 0.22,4.73 -0.58,6.05 -0.46,0.76 -1.04,1.51 -1.56,2.15 -0.34,0.42 -0.58,0.53 -0.91,0.95 -0.74,0.92 -2.13,1.66 -3.33,2.08 -1.21,0.42 -1.5,0.64 -3.02,0.62 -1.1,-0.01 -2.38,-0.04 -3.33,-0.39 -0.4,-0.15 -0.78,-0.59 -1.01,-0.85 -0.37,-0.4 -0.46,-0.62 -0.47,-1.3 -0.02,-1.77 0.82,-4.47 1.58,-5.69 0.5,-0.8 0.95,-1.47 1.47,-2.24 0.71,-1.05 0.74,-1.18 1.7,-1.94 0.72,-0.57 1.15,-1.03 2.22,-1.41 1.09,-0.38 1.52,-0.65 2.83,-0.84zm-29.5 47.33c0.7,-1.45 1.73,-4.29 2,-6.1 0.19,-1.23 0.27,-2.35 0.49,-3.57 0.2,-1.14 0.41,-2.55 -0.06,-3.56 -2.76,-0.28 -5.46,-0.13 -7.37,1.2 -0.4,0.28 -0.83,0.66 -1.22,0.98 -0.55,0.45 -3.52,2.55 -3.38,3.21 0.13,0.58 3.57,3.59 4.39,4.31 0.74,0.66 1.57,1.32 2.48,1.91 0.77,0.51 2.09,1.62 2.67,1.62zm22.58 -5.5c0.03,-0.86 0.27,-1.53 0.54,-2.22 0.26,-0.67 0.41,-1.37 0.67,-2.03 0.56,-1.43 0.99,-2.34 1.42,-3.99 0.37,-1.43 0.92,-2.76 1.24,-4.18 0.31,-1.41 -0.72,-0.79 -1.44,-0.59 -1.68,0.47 -3.4,0.35 -5.14,0.35 -2.92,-0.01 -0.41,0.4 -4.64,3.47 -0.56,0.41 -1.02,0.75 -1.56,1.14 -0.51,0.37 -1.01,0.3 -0.6,1.84l1.25 4.16c0.5,1.32 1.08,2.87 1.98,3.51 0.72,0.52 2.65,1.47 3.6,1.8 0.71,0.25 1.49,0.38 2.32,0.32 1.08,-0.08 1.21,-0.33 1.94,-0.73 1.37,-0.74 3.72,-1.35 5.02,-3.09 0.7,-0.94 1.12,-1.13 1.31,-1.4 1.25,-1.7 -0.1,-2.17 -0.74,-3.62 -0.54,-1.22 -0.82,-2.95 -0.93,-4.47 -0.14,-1.99 0.15,-2.83 0.11,-4.65l-0.13 -0.61c-0.82,-0.24 -0.92,0.8 -1.05,1.49 -0.35,1.8 -0.9,2.76 -1.27,4.14 -0.59,2.22 -1.1,3.83 -1.93,6.01 -0.25,0.65 -0.52,1.24 -0.76,1.94 -0.24,0.71 -0.34,1.36 -1.21,1.38zm-12.38 -29.01c0.24,1.94 1.16,3.18 1.9,4.68 0.69,1.39 1.65,3.02 2.58,3.84 0.57,0.51 1.14,1.02 1.71,1.51 0.31,0.27 0.52,0.5 0.85,0.75 2.18,1.64 3.73,1.02 6.05,0.04 5.26,-2.21 7,-4.52 10.24,-9.03 1.6,-2.23 1.33,-1.44 2.37,-4.05 0.49,-1.23 0.34,-0.27 0.9,-2.31 0.42,-1.54 1.71,-3.5 1.26,-4.88 -0.25,-0.79 -1.54,-2.14 -2.17,-2.64 -1.07,-0.86 -1.74,-1.2 -2.94,-1.88 -2.77,-1.58 -6.56,-2.33 -9.88,-2.96 -2.79,-0.53 -5.68,-1.2 -8.57,-0.8 -2.15,0.3 -2.24,0.55 -3.61,1.18 -0.36,0.16 -0.7,0.37 -1.02,0.58 -0.63,0.41 -1.21,0.83 -1.3,1.89 1.39,1.01 2.97,1.68 3.91,2.93 0.81,1.07 1.79,2.99 2.37,4.39 0.68,1.62 0.91,3.91 0.14,5.64 -1.11,2.5 -3.53,1.32 -4.78,1.12z"/>
   <path class="fil3" d="M60.08 6.25c0.12,0.21 0.19,0.4 0.35,0.63 0.16,0.25 0.27,0.34 0.42,0.62 -2.34,-0.19 -0.39,-1.32 -5.78,0.34 -4.09,1.26 -4.66,1.54 -8.17,3.66l-2.93 1.8c-0.7,0.54 -0.82,0.71 -1.05,1.32 -1.03,2.85 -0.84,2.77 -1.33,5.76 -0.26,1.59 -0.76,2.87 0.05,4.01 1.27,0.04 0.96,-0.93 3.6,-1.71 0.75,-0.22 1.26,-0.47 1.97,-0.65 0.35,-0.09 0.8,-0.14 1.11,-0.25 0.72,-0.25 0.15,-0.26 1.43,-0.26 2.16,-0 4.42,0.14 6.41,0.61 0.95,0.23 1.85,0.52 2.88,0.67 0.63,0.09 0.99,0.26 1.36,-0.08 0.24,-0.23 0.15,-0.21 0.45,-0.39 0.25,-0.15 0.32,-0.16 0.55,-0.37 0.11,-1.05 -0.08,-1.51 -1.04,-1.68 0.02,0.82 0.41,1.61 -0.49,1.68l-0.18 -2.02 -0.48 -0.01c-0.49,0.75 0.22,1.46 -0.71,1.63l-0.24 -0.79c-0.23,0.21 -0.56,0.81 -1,0.6 -0.17,-0.34 -0.17,-1.32 -0.24,-1.77 0.51,0 0.45,0.07 0.66,-0.26 -0.35,-0.32 -1.25,-0.37 -1.72,-0.47 -0.7,-0.15 -1.03,-0.44 -1.83,-0.4 -0.34,1.29 -0.26,0.86 -0.21,2.31 -0.32,0.18 -0.32,0.17 -0.67,0.1 -0.37,-1.04 -0.06,-1.83 -0.02,-2.89 -1.95,-0.46 -0.7,0.77 -1.25,2.48l-0.83 0.03 0.04 -2.34c-0.8,-0.43 -1.57,-0.35 -0.79,-1.36 0.38,-0.49 0.49,-1.23 2,-2.74 0.61,-0.61 1,-1.31 1.97,-1.75 0.45,-0.21 0.99,-0.25 1.44,-0.42 2.62,-1.02 5.75,0.61 6.36,2.45 0.36,1.06 0.78,3.68 0.66,4.91 -0.09,0.98 -0.61,0.27 -0.76,1.18 0.68,0 1,0.12 1.08,0.78 0.06,0.54 -0.11,1.11 -0.22,1.6 -0.55,-0.03 -0.86,-0.19 -1.32,0.03 0.13,0.42 0.23,0.34 0.73,0.45 0.57,0.13 0.21,0.18 1.05,0.32 1.57,0.26 4.11,1.74 5.42,2.51 1.62,1.01 4.95,3.46 6.54,4.02 0.47,-0.59 0.44,-0.92 0.72,-1.71 0.82,-2.3 1.81,-3.28 1.35,-6.02 -0.29,-1.71 -0.74,-2.36 -1.41,-3.66 -0.6,-1.15 -1.39,-1.87 -2.3,-2.77 -1.68,-1.62 -3.52,-3.1 -5.3,-4.76 -0.88,-0.82 -1.81,-1.45 -2.88,-2.2 -0.98,-0.69 -1.9,-1.46 -3.48,-1.61 0.18,-0.77 0.29,-0.76 -0.46,-1.12 -0.61,-0.29 -0.92,-0.35 -1.51,-0.05zm-15.02 56.37c-0.05,0.12 -0.34,0.19 -0.03,0.55 0.19,0.22 0.38,0.2 0.73,0.14 0.17,-0.39 0.01,-1.94 -0.56,-2.11 -0.6,0.48 0.05,0.98 -0.14,1.42zm2.18 4.8c-0.1,-0.67 -0.22,-0.91 -0.51,-1.46 -0.13,-0.24 -0.19,-0.4 -0.28,-0.65 -0.14,-0.36 -0.12,-0.4 -0.51,-0.47 -0.19,0.63 0.01,1.13 0.3,1.61 0.28,0.47 0.46,0.86 1,0.97zm19.17 1.98c0.8,0.03 0.73,-0.26 1.08,-0.74 0.15,-0.2 0.77,-0.84 0.42,-1.16 -0.49,-0.45 -1.61,1.19 -1.5,1.9zm-17.75 2.48c-0.08,-1.23 -0.56,-2.76 -1.59,-3.02 -0.01,0.84 0.44,1.05 0.71,1.62 0.29,0.64 0.08,1.26 0.88,1.4zm14.7 0.36c0.98,0.49 2.58,0.1 2.12,-1.21 -0.62,-0.04 -0.59,0.34 -1.2,0.51 -0.58,0.17 -0.87,0.02 -0.93,0.7zm-7.75 3.01c0.4,0.27 3.05,0.56 2.64,-0.36 -0.17,-0.38 -1.11,-0.34 -1.56,-0.3 -0.6,0.05 -0.91,0.21 -1.08,0.66zm6.48 -1.61c-0.81,-0.16 -0.9,0.03 -1.52,0.27 -0.37,0.14 -1.2,0.29 -0.82,0.8 0.31,0.43 1.09,0.1 1.47,-0.07 0.55,-0.24 0.85,-0.33 0.87,-1zm-11.01 -0.31c-0.72,-0.27 -1.06,0.41 0.94,1.6 0.52,0.31 1.41,0.56 1.66,-0.32 -0.42,-0.29 -1.35,-0.51 -1.83,-0.79 -0.28,-0.16 -0.42,-0.36 -0.78,-0.5zm-1.22 5.04c1.28,0.6 2.38,1.47 3.9,1.45 -0.08,-0.72 -0.52,-0.55 -1.12,-0.78 -0.4,-0.16 -0.81,-0.38 -1.19,-0.58 -0.35,-0.19 -2.15,-1.26 -2.55,-0.84 -0.29,0.31 0.71,0.63 0.96,0.75zm-7.16 0.31c0.58,0.1 1,-0.58 1.33,-0.85 0.23,-0.2 0.35,-0.34 0.56,-0.53 0.73,-0.66 2.13,-1.78 2.33,-3.34 -0.71,0.12 -0.7,0.47 -1.17,1.21 -0.27,0.43 -0.58,0.92 -0.91,1.28 -0.19,0.21 -0.4,0.36 -0.65,0.53 -0.31,0.21 -0.33,0.24 -0.61,0.49 -0.36,0.32 -1.01,0.62 -0.88,1.22zm2.59 -5.28c0.89,0.03 2.15,-0.68 2.18,0.52 0.02,0.74 -0.79,1.52 -1.1,2.02 -0.46,0.73 -0.78,1.35 -1.25,1.96 -1.53,1.96 -0.27,1.3 -0.06,1.04l2.58 -3.76c0.33,-0.55 0.53,-2.16 -0.05,-2.46 -0.35,-0.18 -1.03,0.02 -1.4,0.07 -0.62,0.08 -0.81,-0.01 -0.89,0.61zm-7.47 3.57c0.73,-0.03 1.23,-0.44 1.68,-0.79 0.81,-0.63 1.82,-1.62 2.52,-2.38 0.51,-0.56 0.87,-0.55 1.65,-0.23 0,0.67 -0.08,1 -0.39,1.49 -1.2,1.89 -2.55,1.94 -2.54,3.01 1.2,-0.08 4.53,-3.82 4.27,-5.03 -0.71,-0.03 -2.14,-0.37 -2.65,-0.25 -0.58,0.13 -2.67,2.08 -3.25,2.57 -0.9,0.75 -1.31,0.78 -1.28,1.62zm32.51 -4.74c0.05,1.34 -0.1,2.78 -0.09,4.14 1.26,-0.29 1.7,-0.69 2.73,-1.27 0.43,-0.24 0.83,-0.43 0.93,-1.01 0.12,-0.7 0.1,-3.09 -0.02,-3.77 -0.13,-0.72 -1.7,-1.29 -2.37,-1.52 -1.2,-0.41 -0.37,-0.57 -1.42,-0.53 -0.03,1.4 0.18,2.61 0.23,3.97zm10.16 -28.99c0.53,-1.74 -0.13,-2.74 -0.69,-4.02 -0.51,-1.16 -1.1,-2.36 -1.68,-3.47l-1.93 -3.23c-0.59,-0.82 -1.77,-2.5 -2.92,-2.16 -0.22,0.94 1.36,1.35 2.15,2.76 1.98,3.54 2.92,4.54 4.2,8.48 0.19,0.57 0.29,1.48 0.88,1.64zm-7.05 -10.65c-0.23,0.64 -0.66,1.21 -0.87,1.89 -0.22,0.7 -0.42,1.35 -0.64,2.06 -1.34,4.35 -2.77,4.45 -0.3,6.53 1.29,1.09 2.51,1.9 4.62,2.16 3.19,0.39 3.32,-0.03 2.86,-1.94 -0.61,-2.5 -1.39,-3.46 -1.52,-3.88 -0.35,-1.14 -2.07,-4.29 -2.87,-5.33 -0.93,-1.22 -0.34,-1.4 -1.27,-1.49zm-12.76 -13.97l0.13 0.29 0.67 0c0.43,-0.77 -0.02,-3.67 -0.46,-4.34 -0.62,-0.94 -1.89,-1.93 -3.12,-2.03 -1.71,-0.14 -3.03,0.33 -3.88,1.17 -0.57,0.56 -0.73,0.53 -1.22,1.31 -0.39,0.62 -0.84,0.88 -0.88,1.81l1.72 0.3c0.97,0.3 2.47,0.47 3.54,0.68 0.84,0.16 2.92,0.78 3.5,0.8z"/>
   <path class="fil4" d="M35.35 28.69c0.23,-0.41 0.56,-0.74 0.97,-0.98 0.48,-0.28 1.03,-0.39 1.58,-0.39 0.55,0 1.09,0.11 1.57,0.39 0.48,0.28 0.84,0.68 1.08,1.19 0.24,0.51 0.33,1.07 0.33,1.63l0 5.22c0,0.56 -0.09,1.12 -0.34,1.63 -0.24,0.5 -0.6,0.9 -1.07,1.18 -0.48,0.28 -1.02,0.4 -1.58,0.4 -0.56,0 -1.1,-0.12 -1.58,-0.4 -0.12,-0.07 -0.24,-0.15 -0.34,-0.24 -0.03,0.06 -0.06,0.12 -0.11,0.18 -0.17,0.23 -0.42,0.35 -0.71,0.35l-1.49 0c-0.32,0 -0.6,-0.16 -0.76,-0.42 -0.16,0.25 -0.44,0.42 -0.76,0.42l-1.35 0c-0.17,0 -0.32,-0.05 -0.46,-0.13 -0.13,0.08 -0.29,0.13 -0.46,0.13l-1.38 0c-0.11,0 -0.22,-0.02 -0.31,-0.06 -0.1,0.04 -0.2,0.06 -0.31,0.06l-3.66 0c-0.4,0 -0.74,-0.26 -0.85,-0.63 -0.1,0.1 -0.21,0.19 -0.34,0.27 -0.47,0.32 -1.01,0.45 -1.58,0.45 -0.56,0 -1.09,-0.13 -1.56,-0.44 -0.09,-0.06 -0.17,-0.12 -0.24,-0.18 -0.03,0.06 -0.06,0.12 -0.11,0.18 -0.17,0.23 -0.42,0.35 -0.71,0.35l-1.49 0c-0.32,0 -0.6,-0.16 -0.76,-0.42 -0.16,0.25 -0.44,0.42 -0.76,0.42l-1.35 0c-0.11,0 -0.21,-0.02 -0.3,-0.05 -0.1,0.04 -0.2,0.05 -0.31,0.05l-1.38 0c-0.44,0 -0.8,-0.31 -0.88,-0.74l-0.13 -0.76 -0.15 0 -0.13 0.76c-0.07,0.43 -0.44,0.74 -0.88,0.74l-1.38 0c-0.28,0 -0.51,-0.11 -0.69,-0.33 -0.17,-0.21 -0.24,-0.47 -0.18,-0.74l0.67 -3.27c-0.1,0.08 -0.2,0.15 -0.31,0.21 -0.42,0.24 -0.88,0.36 -1.36,0.37l0 2.86c0,0.49 -0.4,0.89 -0.89,0.89l-1.38 0c-0.49,0 -0.89,-0.4 -0.89,-0.89l0 -9.66c0,-0.49 0.4,-0.89 0.89,-0.89l2.15 0c0.52,0 1.04,0.11 1.49,0.38 0.46,0.27 0.8,0.66 1.02,1.15 0.12,0.27 0.2,0.55 0.25,0.84l0.34 -1.65c0.09,-0.42 0.44,-0.71 0.87,-0.71l0.97 0c0.43,0 0.79,0.29 0.87,0.71l0.83 4.07 0 -3.9c0,-0.49 0.4,-0.89 0.89,-0.89l2.05 0c0.54,0 1.08,0.11 1.55,0.37 0.4,0.22 0.73,0.54 0.96,0.93 0.21,-0.38 0.49,-0.7 0.85,-0.95 0.47,-0.31 1,-0.45 1.56,-0.45 0.56,0 1.11,0.13 1.58,0.45 0.12,0.08 0.23,0.17 0.34,0.27 0.11,-0.36 0.45,-0.63 0.85,-0.63l3.66 0c0.11,0 0.22,0.02 0.31,0.06 0.1,-0.04 0.2,-0.06 0.31,-0.06l1.38 0c0.16,0 0.32,0.05 0.45,0.12 0.13,-0.08 0.29,-0.13 0.46,-0.13l2.05 0c0.54,0 1.08,0.11 1.55,0.37 0.4,0.22 0.72,0.53 0.95,0.91zm-7.73 2.12l-1.12 0 0 0.67 1.1 0c0.01,0 0.02,0 0.03,0l0 -0.67zm0 4.05c-0.01,0 -0.02,0 -0.03,0l-1.1 0 0 0.61 1.12 0 0 -0.61zm-4.28 -2.51l-1.3 0c-0.09,0 -0.17,-0.01 -0.25,-0.04l0 1.66c0.08,-0.02 0.16,-0.04 0.25,-0.04l1.3 0 0 -1.58z"/>
   <path class="fil5" d="M6.24 34.27l0 3.7c0,0.03 -0.02,0.05 -0.05,0.05l-1.38 0c-0.03,0 -0.05,-0.02 -0.05,-0.05l0 -9.66c0,-0.03 0.02,-0.05 0.05,-0.05l2.15 0c0.37,0 0.74,0.07 1.06,0.26 0.31,0.18 0.53,0.45 0.68,0.77 0.17,0.38 0.23,0.8 0.23,1.21l0 1.56c0,0.41 -0.06,0.82 -0.24,1.19 -0.15,0.32 -0.38,0.57 -0.68,0.75 -0.32,0.19 -0.69,0.26 -1.06,0.26l-0.72 0zm5.95 2.25l-1.57 0 -0.25 1.46c-0,0.02 -0.02,0.04 -0.05,0.04l-1.38 0c-0.01,0 -0.03,-0.01 -0.04,-0.02 -0.01,-0.01 -0.01,-0.03 -0.01,-0.04l1.97 -9.66c0,-0.02 0.02,-0.04 0.05,-0.04l0.97 0c0.02,0 0.04,0.02 0.05,0.04l1.98 9.66c0,0.01 -0,0.03 -0.01,0.04 -0.01,0.01 -0.02,0.02 -0.04,0.02l-1.38 0c-0.02,0 -0.04,-0.02 -0.05,-0.04l-0.25 -1.46zm4.09 -2.58l-0.4 0 0 4.03c0,0.03 -0.02,0.05 -0.05,0.05l-1.35 0c-0.03,0 -0.05,-0.02 -0.05,-0.05l0 -9.67c0,-0.03 0.02,-0.05 0.05,-0.05l2.05 0c0.4,0 0.79,0.07 1.14,0.27 0.33,0.18 0.57,0.45 0.73,0.78 0.18,0.38 0.25,0.8 0.25,1.22l0 1.09c0,0.43 -0.07,0.86 -0.25,1.25 -0.16,0.34 -0.4,0.62 -0.73,0.81l-0.02 -0.01 0.93 3.22c0,0.01 0,0.03 -0.01,0.04 -0.01,0.01 -0.02,0.02 -0.04,0.02l-0.46 0c-0.29,0 -0.52,0.24 -0.52,0.52l0 0.51c0,0.03 -0.02,0.05 -0.05,0.05l-0.15 0c-0.02,0 -0.04,-0.01 -0.05,-0.04l-1.02 -4.04zm5.17 4.18c-0.39,0 -0.76,-0.09 -1.09,-0.3 -0.07,-0.04 -0.13,-0.09 -0.19,-0.14 -0.01,-0.01 -0.02,-0.02 -0.02,-0.04l0 -0.18c0,-0.27 -0.2,-0.49 -0.46,-0.52 -0.02,-0 -0.03,-0.01 -0.04,-0.03 -0.17,-0.42 -0.23,-0.89 -0.23,-1.34l0 -4.86c0,-0.46 0.06,-0.94 0.24,-1.37 0.15,-0.36 0.37,-0.66 0.69,-0.88 0.33,-0.22 0.7,-0.31 1.09,-0.31 0.39,0 0.78,0.08 1.11,0.31 0.33,0.22 0.54,0.54 0.69,0.91 0.18,0.45 0.23,0.97 0.23,1.45l0 0.63c0,0.03 -0.02,0.05 -0.05,0.05l-1.41 0c-0.03,0 -0.05,-0.02 -0.05,-0.05l0 -0.63c0,-0.16 -0.01,-0.34 -0.06,-0.5 -0.03,-0.11 -0.09,-0.22 -0.18,-0.3 -0.08,-0.07 -0.18,-0.1 -0.29,-0.1 -0.1,0 -0.19,0.03 -0.28,0.09 -0.09,0.06 -0.14,0.16 -0.18,0.26 -0.05,0.14 -0.06,0.29 -0.06,0.43l0 4.86c0,0.14 0.02,0.29 0.06,0.42 0.04,0.1 0.09,0.19 0.18,0.26 0.08,0.06 0.17,0.09 0.27,0.09 0.11,0 0.21,-0.03 0.29,-0.1 0.09,-0.07 0.14,-0.18 0.17,-0.29 0.05,-0.16 0.06,-0.34 0.06,-0.5l0 -0.63c0,-0.03 0.02,-0.05 0.05,-0.05l1.41 0c0.03,0 0.05,0.02 0.05,0.05l0 0.63c0,0.48 -0.05,1 -0.23,1.45 -0.14,0.36 -0.36,0.68 -0.69,0.91 -0.33,0.22 -0.71,0.31 -1.11,0.31zm4.19 -8.15l0 2.35 1.94 0c0.03,0 0.05,0.02 0.05,0.05l0 1.6c0,0.03 -0.02,0.05 -0.05,0.05l-1.94 0 0 2.29 2.23 0c0.03,0 0.05,0.02 0.05,0.05l0 1.61c0,0.03 -0.02,0.05 -0.05,0.05l-3.66 0c-0.03,0 -0.05,-0.02 -0.05,-0.05l0 -9.66c0,-0.03 0.02,-0.05 0.05,-0.05l3.66 0c0.03,0 0.05,0.02 0.05,0.05l0 1.61c0,0.03 -0.02,0.05 -0.05,0.05l-2.23 0zm4.24 8.05l-1.38 0c-0.03,0 -0.05,-0.02 -0.05,-0.05l0 -9.66c0,-0.03 0.02,-0.05 0.05,-0.05l1.38 0c0.03,0 0.05,0.02 0.05,0.05l0 9.66c0,0.03 -0.02,0.05 -0.05,0.05zm2.71 -4.08l-0.4 0 0 4.03c0,0.03 -0.02,0.05 -0.05,0.05l-1.35 0c-0.03,0 -0.05,-0.02 -0.05,-0.05l0 -9.67c0,-0.03 0.02,-0.05 0.05,-0.05l2.05 0c0.4,0 0.79,0.07 1.14,0.27 0.33,0.18 0.57,0.45 0.73,0.78 0.18,0.38 0.25,0.8 0.25,1.22l0 1.09c0,0.43 -0.07,0.86 -0.25,1.25 -0.16,0.34 -0.4,0.62 -0.73,0.81l-0.02 -0.01 1.23 4.3c0,0.01 0,0.03 -0.01,0.04 -0.01,0.01 -0.02,0.02 -0.04,0.02l-1.49 0c-0.02,0 -0.04,-0.01 -0.05,-0.04l-1.02 -4.04zm5.3 4.18c-0.4,0 -0.81,-0.08 -1.16,-0.28 -0.33,-0.19 -0.57,-0.47 -0.74,-0.81 -0.19,-0.39 -0.25,-0.84 -0.25,-1.27l0 -5.22c0,-0.43 0.06,-0.88 0.25,-1.27 0.16,-0.35 0.41,-0.63 0.74,-0.82 0.35,-0.2 0.76,-0.28 1.16,-0.28 0.4,0 0.8,0.08 1.15,0.28 0.33,0.19 0.57,0.47 0.74,0.82 0.19,0.4 0.25,0.84 0.25,1.27l0 5.22c0,0.43 -0.07,0.88 -0.25,1.27 -0.17,0.35 -0.41,0.62 -0.74,0.81 -0.35,0.2 -0.75,0.28 -1.15,0.28zm-31.66 -5.53l0.69 0c0.1,0 0.19,-0.03 0.27,-0.09 0.09,-0.07 0.14,-0.16 0.18,-0.26 0.05,-0.13 0.06,-0.27 0.06,-0.41l0 -1.1c0,-0.15 -0.02,-0.3 -0.06,-0.43 -0.03,-0.1 -0.09,-0.2 -0.17,-0.27 -0.08,-0.06 -0.17,-0.09 -0.27,-0.09l-0.69 0 0 2.64zm5.67 2.29l-0.5 -2.96 -0.5 2.96 1.01 0zm3.97 -2.62l0.72 0c0.1,0 0.2,-0.02 0.29,-0.07 0.08,-0.05 0.14,-0.12 0.18,-0.21 0.05,-0.1 0.06,-0.22 0.06,-0.33l0 -1.04c0,-0.12 -0.02,-0.25 -0.06,-0.36 -0.04,-0.09 -0.1,-0.17 -0.18,-0.23 -0.09,-0.06 -0.18,-0.08 -0.29,-0.08l-0.72 0 0 2.32zm16.32 0l0.72 0c0.1,0 0.2,-0.02 0.29,-0.07 0.08,-0.05 0.14,-0.12 0.18,-0.21 0.05,-0.1 0.06,-0.22 0.06,-0.33l0 -1.04c0,-0.12 -0.02,-0.25 -0.06,-0.36 -0.04,-0.09 -0.1,-0.17 -0.18,-0.23 -0.09,-0.06 -0.18,-0.08 -0.29,-0.08l-0.72 0 0 2.32zm5.7 4.11c0.12,0 0.24,-0.03 0.35,-0.09 0.1,-0.07 0.17,-0.16 0.22,-0.27 0.06,-0.14 0.08,-0.3 0.08,-0.45l0 -4.82c0,-0.15 -0.02,-0.3 -0.08,-0.44 -0.05,-0.11 -0.12,-0.21 -0.22,-0.28 -0.11,-0.07 -0.23,-0.09 -0.35,-0.09 -0.12,0 -0.25,0.02 -0.35,0.09 -0.1,0.07 -0.17,0.16 -0.22,0.28 -0.06,0.14 -0.08,0.29 -0.08,0.44l0 4.82c0,0.15 0.02,0.31 0.08,0.45 0.05,0.11 0.12,0.21 0.22,0.27 0.1,0.07 0.23,0.09 0.35,0.09z"/>
   <path class="fil4" d="M35.35 41.38c0,-0 0,-0 0,-0 0.23,-0.48 0.57,-0.87 1.03,-1.13 0.46,-0.27 0.99,-0.37 1.52,-0.37 0.53,0 1.05,0.11 1.51,0.37 0.46,0.26 0.8,0.65 1.03,1.13 0.23,0.49 0.32,1.04 0.32,1.58l0 5.22c0,0.54 -0.09,1.09 -0.32,1.58 -0.23,0.48 -0.57,0.86 -1.02,1.13 -0.46,0.27 -0.98,0.38 -1.52,0.38 -0.53,0 -1.06,-0.11 -1.52,-0.38 -0.17,-0.1 -0.33,-0.22 -0.46,-0.35 -0.02,0.11 -0.07,0.22 -0.15,0.32 -0.15,0.2 -0.36,0.3 -0.61,0.3l-1.49 0c-0.36,0 -0.66,-0.23 -0.74,-0.58l-0.01 -0.05c-0.06,0.36 -0.38,0.63 -0.76,0.63l-1.35 0c-0.17,0 -0.33,-0.06 -0.46,-0.15 -0.13,0.1 -0.29,0.15 -0.46,0.15l-1.38 0c-0.11,0 -0.22,-0.02 -0.31,-0.07 -0.1,0.04 -0.2,0.07 -0.31,0.07l-3.66 0c-0.42,0 -0.77,-0.34 -0.77,-0.77l0 -0c-0.14,0.17 -0.3,0.31 -0.49,0.44 -0.45,0.3 -0.97,0.43 -1.51,0.43 -0.53,0 -1.04,-0.13 -1.49,-0.42 -0.13,-0.09 -0.26,-0.19 -0.37,-0.3 -0.02,0.11 -0.07,0.22 -0.14,0.32 -0.15,0.2 -0.36,0.3 -0.61,0.3l-1.49 0c-0.36,0 -0.66,-0.23 -0.74,-0.58l-0.01 -0.05c-0.06,0.36 -0.38,0.63 -0.76,0.63l-1.35 0c-0.11,0 -0.21,-0.02 -0.31,-0.06 -0.1,0.04 -0.2,0.06 -0.31,0.06l-1.38 0c-0.38,0 -0.69,-0.27 -0.76,-0.64l-0.15 -0.86 -0.35 0 -0.15 0.86c-0.06,0.37 -0.38,0.64 -0.76,0.64l-1.38 0c-0.24,0 -0.44,-0.1 -0.59,-0.28 -0.15,-0.18 -0.2,-0.41 -0.16,-0.64l0.74 -3.65c-0.16,0.18 -0.35,0.33 -0.57,0.46 -0.43,0.25 -0.92,0.36 -1.42,0.36l0 2.98c0,0.42 -0.34,0.77 -0.77,0.77l-1.38 0c-0.42,0 -0.77,-0.34 -0.77,-0.77l0 -9.66c0,-0.42 0.34,-0.77 0.77,-0.77l2.15 0c0.5,0 0.99,0.11 1.43,0.36 0.44,0.26 0.76,0.63 0.97,1.09 0.22,0.47 0.3,0.99 0.3,1.51l0 0.2 0.52 -2.55c0.07,-0.36 0.38,-0.61 0.75,-0.61l0.97 0c0.37,0 0.68,0.25 0.75,0.61l1.07 5.25 0 -5.11c0,-0.42 0.34,-0.77 0.77,-0.77l2.05 0c0.52,0 1.03,0.1 1.49,0.36 0.45,0.25 0.8,0.62 1.02,1.08 0.2,-0.45 0.5,-0.83 0.92,-1.11 0.45,-0.3 0.96,-0.43 1.49,-0.43 0.54,0 1.06,0.13 1.51,0.43 0.19,0.13 0.35,0.27 0.49,0.44l0 -0c0,-0.42 0.34,-0.77 0.77,-0.77l3.66 0c0.11,0 0.22,0.02 0.31,0.07 0.1,-0.04 0.2,-0.07 0.31,-0.07l1.38 0c0.17,0 0.32,0.05 0.45,0.15 0.13,-0.1 0.29,-0.15 0.46,-0.15l2.05 0c0.52,0 1.03,0.1 1.49,0.36 0.44,0.25 0.78,0.61 1.01,1.06zm-0.32 4.76c-0.07,0.08 -0.14,0.16 -0.22,0.23l0.22 0.76 0 -1zm-7.29 -3.02l-1.37 0 0 0.91 1.22 0c0.05,0 0.1,0.01 0.15,0.01l0 -0.93zm0 4.03c-0.05,0.01 -0.1,0.01 -0.15,0.01l-1.22 0 0 0.85 1.37 0 0 -0.87zm-4.28 -2.5c-0.01,0 -0.01,0 -0.02,0l-1.41 0c-0.13,0 -0.26,-0.04 -0.37,-0.1l0 2.02c0.11,-0.06 0.24,-0.1 0.37,-0.1l1.41 0c0.01,0 0.01,0 0.02,0l0 -1.83zm-4.74 1.48c-0.07,0.08 -0.14,0.16 -0.22,0.23l0.22 0.76 0 -1z"/>
   <path class="fil5" d="M6.24 46.7l0 3.7c0,0.03 -0.02,0.05 -0.05,0.05l-1.38 0c-0.03,0 -0.05,-0.02 -0.05,-0.05l0 -9.66c0,-0.03 0.02,-0.05 0.05,-0.05l2.15 0c0.37,0 0.74,0.07 1.06,0.26 0.31,0.18 0.53,0.45 0.68,0.77 0.17,0.38 0.23,0.8 0.23,1.21l0 1.56c0,0.41 -0.06,0.82 -0.24,1.19 -0.15,0.32 -0.38,0.57 -0.68,0.75 -0.32,0.19 -0.69,0.26 -1.06,0.26l-0.72 0zm5.95 2.25l-1.57 0 -0.25 1.46c-0,0.02 -0.02,0.04 -0.05,0.04l-1.38 0c-0.01,0 -0.03,-0.01 -0.04,-0.02 -0.01,-0.01 -0.01,-0.03 -0.01,-0.04l1.97 -9.66c0,-0.02 0.02,-0.04 0.05,-0.04l0.97 0c0.02,0 0.04,0.02 0.05,0.04l1.98 9.66c0,0.01 -0,0.03 -0.01,0.04 -0.01,0.01 -0.02,0.02 -0.04,0.02l-1.38 0c-0.02,0 -0.04,-0.02 -0.05,-0.04l-0.25 -1.46zm4.09 -2.58l-0.4 0 0 4.03c0,0.03 -0.02,0.05 -0.05,0.05l-1.35 0c-0.03,0 -0.05,-0.02 -0.05,-0.05l0 -9.67c0,-0.03 0.02,-0.05 0.05,-0.05l2.05 0c0.34,0 0.68,0.05 0.99,0.19 0.02,0.01 0.03,0.02 0.03,0.04l0 0.66c0,0.29 0.24,0.52 0.52,0.52l0.44 0c0.02,0 0.04,0.01 0.05,0.04 0.07,0.26 0.1,0.54 0.1,0.81l0 1.09c0,0.43 -0.07,0.86 -0.25,1.25 -0.16,0.34 -0.4,0.62 -0.73,0.81l-0.02 -0.01 1.23 4.3c0,0.01 0,0.03 -0.01,0.04 -0.01,0.01 -0.02,0.02 -0.04,0.02l-1.49 0c-0.02,0 -0.04,-0.01 -0.05,-0.04l-1.02 -4.04zm5.17 4.18c-0.39,0 -0.76,-0.09 -1.09,-0.3 -0.32,-0.21 -0.54,-0.52 -0.69,-0.88 -0.18,-0.43 -0.24,-0.91 -0.24,-1.37l0 -4.86c0,-0.34 0.03,-0.68 0.11,-1 0.01,-0.02 0.02,-0.04 0.05,-0.04l0.04 0c0.29,0 0.52,-0.24 0.52,-0.52l0 -0.51c0,-0.01 0.01,-0.03 0.02,-0.04 0.06,-0.05 0.12,-0.1 0.19,-0.14 0.33,-0.22 0.7,-0.31 1.09,-0.31 0.39,0 0.78,0.08 1.11,0.31 0.33,0.22 0.54,0.54 0.69,0.91 0.18,0.45 0.23,0.97 0.23,1.45l0 0.63c0,0.03 -0.02,0.05 -0.05,0.05l-1.41 0c-0.03,0 -0.05,-0.02 -0.05,-0.05l0 -0.63c0,-0.16 -0.01,-0.34 -0.06,-0.5 -0.03,-0.11 -0.09,-0.22 -0.18,-0.3 -0.08,-0.07 -0.18,-0.1 -0.29,-0.1 -0.1,0 -0.19,0.03 -0.28,0.09 -0.09,0.06 -0.14,0.16 -0.18,0.26 -0.05,0.14 -0.06,0.29 -0.06,0.43l0 4.86c0,0.14 0.02,0.29 0.06,0.42 0.04,0.1 0.09,0.19 0.18,0.26 0.08,0.06 0.17,0.09 0.27,0.09 0.11,0 0.21,-0.03 0.29,-0.1 0.09,-0.07 0.14,-0.18 0.17,-0.29 0.05,-0.16 0.06,-0.34 0.06,-0.5l0 -0.63c0,-0.03 0.02,-0.05 0.05,-0.05l1.41 0c0.03,0 0.05,0.02 0.05,0.05l0 0.63c0,0.48 -0.05,1 -0.23,1.45 -0.14,0.36 -0.36,0.68 -0.69,0.91 -0.33,0.22 -0.71,0.31 -1.11,0.31zm4.19 -8.15l0 2.35 1.94 0c0.03,0 0.05,0.02 0.05,0.05l0 1.6c0,0.03 -0.02,0.05 -0.05,0.05l-1.94 0 0 2.29 2.23 0c0.03,0 0.05,0.02 0.05,0.05l0 1.61c0,0.03 -0.02,0.05 -0.05,0.05l-3.66 0c-0.03,0 -0.05,-0.02 -0.05,-0.05l0 -9.66c0,-0.03 0.02,-0.05 0.05,-0.05l3.66 0c0.03,0 0.05,0.02 0.05,0.05l0 1.61c0,0.03 -0.02,0.05 -0.05,0.05l-2.23 0zm4.24 8.05l-1.38 0c-0.03,0 -0.05,-0.02 -0.05,-0.05l0 -9.66c0,-0.03 0.02,-0.05 0.05,-0.05l1.38 0c0.03,0 0.05,0.02 0.05,0.05l0 9.66c0,0.03 -0.02,0.05 -0.05,0.05zm2.71 -4.08l-0.4 0 0 4.03c0,0.03 -0.02,0.05 -0.05,0.05l-1.35 0c-0.03,0 -0.05,-0.02 -0.05,-0.05l0 -9.67c0,-0.03 0.02,-0.05 0.05,-0.05l2.05 0c0.4,0 0.79,0.07 1.14,0.27 0.33,0.18 0.57,0.45 0.73,0.78 0.18,0.38 0.25,0.8 0.25,1.22l0 1.09c0,0.43 -0.07,0.86 -0.25,1.25 -0.16,0.34 -0.4,0.62 -0.73,0.81l-0.02 -0.01 1.23 4.3c0,0.01 0,0.03 -0.01,0.04 -0.01,0.01 -0.02,0.02 -0.04,0.02l-1.49 0c-0.02,0 -0.04,-0.01 -0.05,-0.04l-1.02 -4.04zm5.3 4.18c-0.4,0 -0.81,-0.08 -1.16,-0.28 -0.33,-0.19 -0.57,-0.47 -0.74,-0.81 -0.19,-0.39 -0.25,-0.84 -0.25,-1.27l0 -5.22c0,-0.43 0.06,-0.88 0.25,-1.27 0.16,-0.35 0.41,-0.63 0.74,-0.82 0.35,-0.2 0.76,-0.28 1.16,-0.28 0.4,0 0.8,0.08 1.15,0.28 0.33,0.19 0.57,0.47 0.74,0.82 0.19,0.4 0.25,0.84 0.25,1.27l0 5.22c0,0.43 -0.07,0.88 -0.25,1.27 -0.17,0.35 -0.41,0.62 -0.74,0.81 -0.35,0.2 -0.75,0.28 -1.15,0.28zm-31.66 -5.53l0.69 0c0.1,0 0.19,-0.03 0.27,-0.09 0.09,-0.07 0.14,-0.16 0.18,-0.26 0.05,-0.13 0.06,-0.27 0.06,-0.41l0 -1.1c0,-0.15 -0.02,-0.3 -0.06,-0.43 -0.03,-0.1 -0.09,-0.2 -0.17,-0.27 -0.08,-0.06 -0.17,-0.09 -0.27,-0.09l-0.69 0 0 2.64zm5.67 2.29l-0.5 -2.96 -0.5 2.96 1.01 0zm3.97 -2.62l0.72 0c0.1,0 0.2,-0.02 0.29,-0.07 0.08,-0.05 0.14,-0.12 0.18,-0.21 0.05,-0.1 0.06,-0.22 0.06,-0.33l0 -1.04c0,-0.12 -0.02,-0.25 -0.06,-0.36 -0.04,-0.09 -0.1,-0.17 -0.18,-0.23 -0.09,-0.06 -0.18,-0.08 -0.29,-0.08l-0.72 0 0 2.32zm16.32 0l0.72 0c0.1,0 0.2,-0.02 0.29,-0.07 0.08,-0.05 0.14,-0.12 0.18,-0.21 0.05,-0.1 0.06,-0.22 0.06,-0.33l0 -1.04c0,-0.12 -0.02,-0.25 -0.06,-0.36 -0.04,-0.09 -0.1,-0.17 -0.18,-0.23 -0.09,-0.06 -0.18,-0.08 -0.29,-0.08l-0.72 0 0 2.32zm5.7 4.11c0.12,0 0.24,-0.03 0.35,-0.09 0.1,-0.07 0.17,-0.16 0.22,-0.27 0.06,-0.14 0.08,-0.3 0.08,-0.45l0 -4.82c0,-0.15 -0.02,-0.3 -0.08,-0.44 -0.05,-0.11 -0.12,-0.21 -0.22,-0.28 -0.11,-0.07 -0.23,-0.09 -0.35,-0.09 -0.12,0 -0.25,0.02 -0.35,0.09 -0.1,0.07 -0.17,0.16 -0.22,0.28 -0.06,0.14 -0.08,0.29 -0.08,0.44l0 4.82c0,0.15 0.02,0.31 0.08,0.45 0.05,0.11 0.12,0.21 0.22,0.27 0.1,0.07 0.23,0.09 0.35,0.09z"/>
   <path class="fil4" d="M19.8 38.69c0.17,0.1 0.29,0.28 0.29,0.5l0 0.68c0,0.2 -0.1,0.38 -0.26,0.48 0.22,0.08 0.38,0.29 0.38,0.54l0 0.69c0,0.32 -0.26,0.57 -0.57,0.57l-1.56 0c-0.32,0 -0.57,-0.26 -0.57,-0.57l0 -4.13c0,-0.32 0.26,-0.57 0.57,-0.57l1.56 0c0.32,0 0.57,0.26 0.57,0.57l0 0.69c0,0.26 -0.17,0.48 -0.41,0.55z"/>
   <path class="fil6" d="M18.08 37.46l0.59 0 0 4.13 -0.59 0 0 -4.13zm0.26 3.44l1.3 0 0 0.69 -1.3 0 0 -0.69zm0 -1.7l1.18 0 0 0.68 -1.18 0 0 -0.68zm0 -1.73l1.3 0 0 0.69 -1.3 0 0 -0.69z"/>
  </g>
 </g>
</svg>
