<?xml version="1.0" encoding="UTF-8"?>
<!DOCTYPE svg PUBLIC "-//W3C//DTD SVG 1.1//EN" "http://www.w3.org/Graphics/SVG/1.1/DTD/svg11.dtd">
<!-- Creator: CorelDRAW -->
<svg xmlns="http://www.w3.org/2000/svg" xml:space="preserve" width="25.4mm" height="19.05mm" version="1.1" style="shape-rendering:geometricPrecision; text-rendering:geometricPrecision; image-rendering:optimizeQuality; fill-rule:evenodd; clip-rule:evenodd"
viewBox="0 0 45.61 34.21"
 xmlns:xlink="http://www.w3.org/1999/xlink"
 xmlns:xodm="http://www.corel.com/coreldraw/odm/2003">
 <defs>
  <style type="text/css">
   <![CDATA[
    .fil0 {fill:#282829}
    .fil8 {fill:black}
    .fil4 {fill:black}
    .fil5 {fill:#959597}
    .fil3 {fill:#F9AD08}
    .fil2 {fill:white}
    .fil7 {fill:black;fill-rule:nonzero}
    .fil1 {fill:red;fill-rule:nonzero}
    .fil6 {fill:white;fill-rule:nonzero}
   ]]>
  </style>
 </defs>
 <g id="Camada_x0020_1">
  <metadata id="CorelCorpID_0Corel-Layer"/>
  <g id="_2483693383728">
   <path class="fil0" d="M35.75 0.22c0.1,-0.05 0.21,-0.08 0.34,-0.08l3.13 0c0.36,0 0.65,0.24 0.66,0.55l0.19 6.94c0,0.16 -0.06,0.29 -0.19,0.4 -0.13,0.11 -0.29,0.17 -0.47,0.17l-2.21 0c-0.19,0 -0.35,-0.06 -0.48,-0.17 -0.01,-0.01 -0.02,-0.02 -0.03,-0.02 -0.12,0.12 -0.3,0.2 -0.51,0.2l-2.24 0c-0.16,0 -0.31,-0.04 -0.43,-0.13 -0.12,0.08 -0.26,0.13 -0.42,0.13l-2.17 0c-0.2,0 -0.37,-0.06 -0.5,-0.19 -0.13,-0.12 -0.18,-0.28 -0.16,-0.44l0.74 -4.92 -0.44 0 -0.77 5.06c-0.04,0.28 -0.32,0.49 -0.66,0.49l-2.17 0c-0.11,0 -0.22,-0.02 -0.31,-0.06 -0.09,0.04 -0.2,0.06 -0.31,0.06l-3.75 0c-0.2,0 -0.37,-0.06 -0.5,-0.19 -0.13,-0.12 -0.18,-0.28 -0.16,-0.44l0.39 -2.56c-0.13,0.07 -0.27,0.14 -0.41,0.19 -0.44,0.16 -0.94,0.21 -1.42,0.21l-0.35 2.31c-0.04,0.28 -0.32,0.49 -0.66,0.49l-2.17 0c-0.2,0 -0.37,-0.06 -0.5,-0.19 -0.1,-0.1 -0.16,-0.21 -0.17,-0.33 -0.22,0.16 -0.48,0.28 -0.75,0.39 -0.53,0.2 -1.11,0.29 -1.69,0.29 -0.61,0 -1.23,-0.09 -1.77,-0.35 -0.19,-0.09 -0.37,-0.2 -0.52,-0.33l-0.01 0.04c-0.04,0.28 -0.32,0.49 -0.66,0.49l-3.75 0c-0.16,0 -0.3,-0.04 -0.42,-0.12 -0.11,0.08 -0.26,0.12 -0.42,0.12l-2.01 0c-0.12,0 -0.23,-0.02 -0.33,-0.07 -0.1,0.05 -0.21,0.07 -0.32,0.07l-2.17 0c-0.2,0 -0.37,-0.06 -0.5,-0.19 -0.13,-0.12 -0.18,-0.28 -0.16,-0.44l1.05 -6.94c0.04,-0.28 0.32,-0.49 0.66,-0.49l1.53 0c0.44,0 0.88,0 1.32,0.03 0.29,0.01 0.6,0.03 0.88,0.09 0.53,0.1 0.94,0.36 1.22,0.74l0.06 -0.37c0.04,-0.28 0.32,-0.49 0.66,-0.49l3.61 0c0.2,0 0.37,0.06 0.5,0.19 0.08,0.08 0.14,0.17 0.16,0.27 0.21,-0.14 0.44,-0.26 0.69,-0.35 0.51,-0.18 1.06,-0.25 1.6,-0.25 0.57,0 1.16,0.07 1.69,0.28 0.35,0.14 0.66,0.34 0.87,0.61l0.04 -0.26c0.04,-0.28 0.32,-0.49 0.66,-0.49l2.18 0c0.49,0 1.06,0.02 1.53,0.14 0.33,0.09 0.66,0.22 0.9,0.43l0.01 -0.08c0.04,-0.28 0.32,-0.49 0.66,-0.49l3.61 0c0.14,0 0.27,0.03 0.38,0.1 0.11,-0.06 0.24,-0.1 0.38,-0.1l2.17 0c0.09,0 0.17,0.01 0.25,0.04 0.08,-0.03 0.16,-0.04 0.25,-0.04l4.72 0c0.12,0 0.24,0.03 0.34,0.08zm-0.95 2.43l-0.29 0 -0.27 1.81 0.56 -1.81zm-7.73 0c-0,0 -0.01,0 -0.01,0l-0.86 0 -0.03 0.21 0.59 0c0.1,0 0.19,0.02 0.27,0.05l0.04 -0.25zm-0.4 2.63c-0.03,0 -0.07,0.01 -0.11,0.01l-0.76 0 -0.06 0.41 0.83 0c0.01,0 0.02,0 0.03,0l0.06 -0.41zm-9.35 -1.92c-0.04,0.01 -0.07,0.01 -0.11,0.01l-0.67 0c0.27,0.19 0.52,0.39 0.7,0.59l0.09 -0.6zm-5.5 -0.71l-0.69 0 -0.03 0.21 0.59 0c0.04,0 0.08,0 0.12,0.01 0,-0.07 0.01,-0.14 0.01,-0.21zm0.42 1.54l-0.06 0.41 0.53 0c-0.11,-0.08 -0.21,-0.16 -0.3,-0.23 -0.06,-0.05 -0.12,-0.11 -0.17,-0.17zm-0.76 1.1l-0.75 0 -0.06 0.41 0.75 0c0.01,-0.05 0.01,-0.1 0.02,-0.15l0.04 -0.25z"/>
   <path class="fil1" d="M2.92 0.7l1.53 0c1.02,0 1.71,0.03 2.06,0.1 0.35,0.07 0.62,0.23 0.81,0.5 0.19,0.27 0.24,0.7 0.15,1.29 -0.08,0.54 -0.22,0.9 -0.41,1.09 -0.19,0.19 -0.52,0.3 -1,0.33 0.41,0.09 0.69,0.21 0.81,0.36 0.12,0.15 0.2,0.29 0.21,0.41 0.02,0.12 -0.02,0.47 -0.1,1.03l-0.28 1.83 -2.01 0 0.35 -2.31c0.06,-0.37 0.06,-0.6 -0,-0.69 -0.05,-0.09 -0.23,-0.13 -0.53,-0.13l-0.47 3.13 -2.17 0 1.05 -6.94zm1.99 1.18l-0.23 1.54c0.24,0 0.41,-0.03 0.52,-0.08 0.1,-0.06 0.18,-0.24 0.23,-0.54l0.06 -0.38c0.03,-0.22 0.01,-0.37 -0.07,-0.43 -0.08,-0.07 -0.25,-0.1 -0.5,-0.1zm3.67 -1.18l3.61 0 -0.21 1.39 -1.44 0 -0.2 1.32 1.35 0 -0.2 1.32 -1.35 0 -0.23 1.53 1.59 0 -0.21 1.39 -3.75 0 1.05 -6.94zm8.62 2.11l-2.01 0 0.08 -0.51c0.04,-0.24 0.03,-0.39 -0.01,-0.46 -0.04,-0.07 -0.12,-0.1 -0.24,-0.1 -0.13,0 -0.23,0.04 -0.31,0.13 -0.08,0.09 -0.13,0.22 -0.16,0.4 -0.03,0.23 -0.02,0.4 0.04,0.52 0.06,0.12 0.24,0.26 0.55,0.42 0.89,0.48 1.43,0.87 1.63,1.18 0.2,0.31 0.25,0.8 0.15,1.48 -0.07,0.49 -0.2,0.86 -0.37,1.09 -0.17,0.23 -0.47,0.43 -0.89,0.59 -0.42,0.16 -0.89,0.24 -1.42,0.24 -0.58,0 -1.06,-0.09 -1.44,-0.27 -0.38,-0.18 -0.61,-0.42 -0.7,-0.7 -0.08,-0.28 -0.09,-0.69 -0.01,-1.2l0.07 -0.45 2.01 0 -0.13 0.84c-0.04,0.26 -0.04,0.43 0.01,0.5 0.04,0.07 0.14,0.11 0.28,0.11 0.14,0 0.26,-0.05 0.34,-0.14 0.08,-0.09 0.14,-0.23 0.17,-0.42 0.06,-0.41 0.04,-0.68 -0.08,-0.8 -0.12,-0.13 -0.42,-0.34 -0.92,-0.63 -0.49,-0.3 -0.81,-0.51 -0.97,-0.65 -0.15,-0.13 -0.27,-0.32 -0.35,-0.56 -0.08,-0.24 -0.09,-0.54 -0.03,-0.91 0.08,-0.53 0.22,-0.92 0.42,-1.17 0.2,-0.25 0.49,-0.44 0.87,-0.58 0.38,-0.14 0.83,-0.21 1.34,-0.21 0.56,0 1.03,0.08 1.4,0.23 0.37,0.15 0.6,0.34 0.7,0.57 0.09,0.23 0.1,0.62 0.02,1.17l-0.04 0.27zm1.18 -2.11l2.18 0c0.59,0 1.03,0.04 1.34,0.12 0.3,0.08 0.53,0.19 0.66,0.33 0.14,0.15 0.22,0.32 0.24,0.53 0.02,0.21 0,0.53 -0.06,0.96l-0.09 0.6c-0.07,0.44 -0.17,0.76 -0.31,0.97 -0.14,0.2 -0.36,0.36 -0.67,0.47 -0.31,0.11 -0.7,0.16 -1.17,0.16l-0.58 0 -0.42 2.8 -2.17 0 1.05 -6.94zm1.99 1.18l-0.27 1.77c0.06,0 0.11,0 0.16,0 0.2,0 0.34,-0.04 0.43,-0.12 0.09,-0.08 0.15,-0.25 0.19,-0.51l0.09 -0.57c0.04,-0.24 0.02,-0.39 -0.06,-0.46 -0.08,-0.07 -0.26,-0.11 -0.53,-0.11zm3.29 -1.18l3.61 0 -0.21 1.39 -1.44 0 -0.2 1.32 1.35 0 -0.2 1.32 -1.35 0 -0.23 1.53 1.59 0 -0.21 1.39 -3.75 0 1.05 -6.94zm6.53 0l-1.05 6.94 -2.17 0 1.05 -6.94 2.17 0zm5.22 0l-0.21 1.39 -1.27 0 -0.84 5.55 -2.17 0 0.84 -5.55 -1.28 0 0.21 -1.39 4.72 0zm3.8 0l0.19 6.94 -2.21 0 0.07 -1.25 -0.78 0 -0.31 1.25 -2.24 0 2.15 -6.94 3.13 0zm-1.82 4.46c0.02,-0.79 0.05,-1.76 0.11,-2.92 -0.42,1.33 -0.7,2.31 -0.85,2.92l0.73 0z"/>
   <path class="fil2" d="M20.07 5.89l18.52 10.92c0.84,0.49 -0.23,0.9 -0.8,1.67l-11.05 14.86c-0.95,1.28 -3.05,0.91 -3.87,0.38l-15.51 -9.88c-0.82,-0.52 -0.96,-1.64 -0.41,-2.42l10.64 -15.15c0.55,-0.78 1.63,-0.88 2.47,-0.39z"/>
   <path class="fil3" d="M20.25 6.85l17.26 10.17c0.78,0.46 -0.21,0.84 -0.74,1.55l-10.3 13.85c-0.89,1.2 -2.84,0.85 -3.6,0.36l-14.45 -9.2c-0.76,-0.49 -0.89,-1.52 -0.38,-2.25l9.91 -14.12c0.51,-0.73 1.52,-0.82 2.3,-0.36z"/>
   <path class="fil4" d="M36.63 17.79c-0.14,0.13 -0.27,0.27 -0.38,0.43l-10.1 13.59c-0.7,0.94 -1.94,1.09 -2.92,0.47l-14.45 -9.2c-0.48,-0.31 -0.51,-0.97 -0.21,-1.4l9.91 -14.12c0.33,-0.47 0.98,-0.45 1.44,-0.18l16.63 9.8c0.11,0.07 0.18,0.17 0.2,0.29 0.02,0.12 -0.02,0.24 -0.12,0.33zm-0.3 -0.28l-16.63 -9.8c-0.26,-0.15 -0.67,-0.22 -0.87,0.06l-9.91 14.12c-0.17,0.24 -0.19,0.67 0.09,0.85l14.45 9.2c0.8,0.51 1.79,0.39 2.35,-0.37l10.1 -13.59c0.13,-0.17 0.27,-0.33 0.42,-0.48z"/>
   <path class="fil0" d="M7.73 21.8c0.01,-0.21 0.04,-0.42 0.08,-0.6 0.03,-0.16 0.08,-0.3 0.17,-0.44 0.28,-0.42 0.92,-0.55 1.39,-0.65 0.61,-0.14 1.24,-0.25 1.86,-0.36 0.63,-0.11 1.27,-0.22 1.91,-0.31 0.3,-0.04 0.63,-0.1 0.94,-0.11 0.22,-0.01 0.41,0.02 0.59,0.15 0.02,0.02 0.04,0.03 0.06,0.05 0.2,0.18 0.34,0.45 0.41,0.71 0.06,0.22 0.08,0.46 0.08,0.68 0,0.06 -0,0.12 -0.01,0.17 -0.03,0.2 -0.19,0.36 -0.4,0.39 -0.88,0.17 -1.76,0.33 -2.64,0.5 -0.13,0.02 -0.25,0 -0.36,-0.07 -0.11,-0.07 -0.17,-0.17 -0.19,-0.3 -0.02,-0.1 -0.03,-0.21 -0.06,-0.32 -0.09,0 -0.18,0.02 -0.27,0.03 -0,0.26 0.02,0.58 0.06,0.85 0.24,-0.03 0.49,-0.07 0.73,-0.12 0.51,-0.1 1.02,-0.24 1.54,-0.32 0.46,-0.07 0.91,-0.09 1.26,0.25 0.3,0.3 0.43,0.78 0.47,1.18 0.04,0.4 0.01,0.85 -0.07,1.25 -0.06,0.34 -0.15,0.59 -0.41,0.84 -0.34,0.33 -0.82,0.51 -1.28,0.63 -0.7,0.18 -1.53,0.31 -2.25,0.38 -0.34,0.04 -0.61,0.05 -0.95,0.02 -0.01,-0 -0.02,-0 -0.03,-0 -0.2,-0.01 -0.4,0.01 -0.59,0.04 -0.34,0.06 -0.74,0.16 -1.09,0.16 -0.43,0 -0.69,-0.2 -0.82,-0.58 -0.05,-0.17 -0.09,-0.37 -0.11,-0.55 -0.01,0.86 -0.71,1.67 -1.6,1.83l-4.38 0.78c-0.96,0.17 -1.77,-0.49 -1.77,-1.42l0 -3.32c0,-0.87 0.7,-1.7 1.6,-1.86l4.38 -0.78c0.88,-0.16 1.63,0.39 1.75,1.19zm0.02 1.2l0 2.14c0.05,-0.41 0.43,-0.54 0.83,-0.64 0.33,-0.08 0.66,-0.15 0.99,-0.21 0.43,-0.08 0.87,-0.17 1.3,-0.25 0.14,-0.03 0.27,0 0.38,0.09 0.11,0.08 0.17,0.2 0.18,0.33 0,0.03 0,0.05 0,0.08 0.08,-0.01 0.16,-0.01 0.25,-0.02 0.02,-0.12 0.04,-0.24 0.04,-0.36 0,-0.1 -0.02,-0.3 -0.06,-0.42 -0.11,0.01 -0.26,0.04 -0.33,0.05 -0.63,0.12 -1.26,0.28 -1.9,0.37 -0.44,0.06 -0.92,0.1 -1.28,-0.21 -0.28,-0.25 -0.37,-0.61 -0.4,-0.96zm21.89 -1.73c0.12,0.01 0.29,-0.01 0.4,-0.03 0,-0 0.01,-0 0.01,-0 0,0 0,-0 0,-0 0.07,-0.25 0.08,-0.61 0.08,-0.87 0.01,-0.44 -0.02,-0.88 -0.04,-1.32 -0.03,-0.45 -0.07,-0.9 -0.11,-1.35 -0.03,-0.33 -0.06,-0.66 -0.08,-0.99 -0.01,-0.23 0.15,-0.42 0.38,-0.46l2.41 -0.42c0.14,-0.02 0.26,0.01 0.37,0.09 0.11,0.08 0.17,0.19 0.18,0.33l0.26 4.59c0.05,0.78 -0.56,1.53 -1.37,1.68 -1.43,0.25 -2.85,0.54 -4.28,0.79 -0.79,0.14 -1.49,-0.4 -1.53,-1.16l-0.27 -4.71c-0.01,-0.23 0.15,-0.42 0.38,-0.46l2.41 -0.42c0.14,-0.02 0.26,0.01 0.37,0.09 0.11,0.08 0.17,0.19 0.18,0.33l0.25 4.33zm-4.38 -1.73c-0.08,0.01 -0.17,0.02 -0.23,0.03 -0.69,0.11 -1.4,0.25 -2.09,0.38 -0.13,0.03 -0.26,-0 -0.37,-0.08 -0.11,-0.08 -0.17,-0.18 -0.19,-0.31 -0.01,-0.06 -0.01,-0.18 -0.03,-0.27 -0.1,0.01 -0.2,0.03 -0.29,0.05 -0.02,0.01 -0.06,0.02 -0.09,0.03 -0,0.05 0,0.13 0,0.17 0.01,0.21 0.02,0.42 0.03,0.62 0,0.05 0,0.09 0.01,0.14 0.05,-0.03 0.11,-0.05 0.17,-0.07 1.07,-0.2 2.13,-0.41 3.2,-0.61 0.13,-0.03 0.26,0 0.36,0.08 0.11,0.08 0.17,0.18 0.19,0.31 0.05,0.4 0.1,0.8 0.12,1.2 0.03,0.46 0.06,0.99 0.01,1.44 -0.05,0.45 -0.22,0.72 -0.66,0.9 -0.42,0.17 -0.99,0.27 -1.44,0.36 -0.81,0.16 -1.61,0.3 -2.42,0.46 -0.3,0.06 -0.59,0.12 -0.89,0.18 -0.21,0.04 -0.42,0.08 -0.64,0.09 -0.32,0.02 -0.61,-0.03 -0.87,-0.21 -0.01,-0.01 -0.03,-0.02 -0.04,-0.03 -0.16,-0.12 -0.24,-0.28 -0.28,-0.46 -0.06,-0.25 -0.09,-0.55 -0.11,-0.8 -0.04,-0.54 -0.07,-1.09 -0.09,-1.64 -0.02,-0.53 -0.03,-1.06 -0.01,-1.59 0.04,-0.98 0.25,-1.35 1.24,-1.65 0.53,-0.16 1.09,-0.29 1.64,-0.42 0.46,-0.1 0.92,-0.2 1.38,-0.3 0.33,-0.07 0.67,-0.14 1,-0.21 0.2,-0.04 0.41,-0.07 0.62,-0.08 0.34,-0.01 0.64,0.07 0.89,0.3 0.22,0.19 0.36,0.45 0.44,0.72 0.07,0.27 0.07,0.56 0.07,0.83 0,0.2 -0.12,0.36 -0.32,0.42 -0.11,0.03 -0.22,0.03 -0.32,-0.01zm-3.19 2.22c0.01,0.26 0.02,0.52 0.04,0.77 0,0.03 0,0.07 0.01,0.12 0.13,-0.02 0.27,-0.04 0.38,-0.08 0,-0 0,-0 0,-0 0.01,-0.03 0.01,-0.05 0.01,-0.07 0.02,-0.17 0.02,-0.36 0.02,-0.54 -0,-0.07 -0,-0.15 -0,-0.22 -0,0 -0.01,0 -0.01,0 -0.06,0.03 -0.13,0.04 -0.21,0.04 -0.1,0 -0.18,-0.01 -0.24,-0.03zm19.19 -7.71l2.67 -0.43c0.13,-0.02 0.26,0.01 0.37,0.09 0.11,0.08 0.17,0.19 0.18,0.32l0.44 5.73c0.02,0.23 -0.15,0.43 -0.39,0.47l-2.67 0.43c-0.13,0.02 -0.26,-0.01 -0.36,-0.09 -0.11,-0.08 -0.17,-0.19 -0.18,-0.32l-0.44 -5.73c-0.02,-0.23 0.15,-0.43 0.39,-0.47zm-0.73 3.52c0.34,0.21 0.57,0.58 0.6,1.01l0.1 1.83c0.01,0.23 -0.15,0.42 -0.39,0.46l-2.69 0.44c-0.14,0.02 -0.26,-0.01 -0.37,-0.09 -0.11,-0.08 -0.17,-0.19 -0.17,-0.32 -0.01,-0.16 -0,-0.33 -0,-0.48 0,-0.23 0,-0.47 -0.01,-0.7 -0,-0.15 -0.02,-0.55 -0.07,-0.79 -0.11,0.01 -0.23,0.04 -0.31,0.05 -0.01,0 -0.02,0 -0.03,0.01l0.14 2.18c0.01,0.23 -0.15,0.43 -0.39,0.47l-2.68 0.42c-0.13,0.02 -0.26,-0.01 -0.37,-0.09 -0.11,-0.08 -0.17,-0.19 -0.17,-0.32l-0.36 -5.62c-0.01,-0.23 0.15,-0.43 0.39,-0.47 1.94,-0.31 3.89,-0.64 5.83,-0.93 0.83,-0.13 1.29,0.44 1.33,1.18l0.02 0.37c0.03,0.51 -0.11,1.01 -0.41,1.39zm-3.49 -0.96l0.05 0.83c0.13,-0.02 0.26,-0.06 0.38,-0.1 0,-0.12 -0.04,-0.36 -0.05,-0.44 -0.01,-0.07 -0.01,-0.2 -0.02,-0.31 -0.12,0 -0.25,0.01 -0.37,0.03z"/>
   <path class="fil4" d="M27.48 17.97l2.41 -0.42 0.26 4.56c0.13,0.13 0.22,0.17 0.37,0.19 0.17,0.02 0.42,0 0.6,-0.04 0.18,-0.04 0.29,-0.11 0.35,-0.31 0.27,-0.91 -0.08,-3.8 -0.13,-4.68l2.41 -0.42 0.26 4.59c0.03,0.57 -0.41,1.11 -0.99,1.21 -1.44,0.25 -2.86,0.54 -4.28,0.79 -0.51,0.09 -0.95,-0.25 -0.98,-0.75l-0.27 -4.71zm-24.84 4.44l4.38 -0.78c0.67,-0.12 1.22,0.32 1.22,0.99l0 3.32c0,0.66 -0.55,1.3 -1.22,1.42l-4.38 0.78c-0.67,0.12 -1.22,-0.32 -1.22,-0.99l0 -3.32c0,-0.66 0.55,-1.3 1.22,-1.42zm17.41 -1.9c-0.03,0.85 0.03,2.37 0.1,3.17 0.06,0.81 0.13,0.89 0.24,0.97 0.11,0.08 0.27,0.14 0.57,0.12 0.3,-0.02 0.74,-0.12 1.46,-0.26 0.72,-0.14 1.72,-0.32 2.42,-0.46 0.7,-0.14 1.1,-0.23 1.35,-0.33 0.25,-0.1 0.34,-0.2 0.38,-0.54 0.04,-0.34 0.02,-0.9 -0.01,-1.37 -0.03,-0.46 -0.08,-0.82 -0.12,-1.18 -1.07,0.2 -2.13,0.41 -3.2,0.61 0.01,0.23 0.02,0.47 0.02,0.58 0,0.11 0,0.09 0,0.08 0.23,-0.04 0.46,-0.09 0.69,-0.13 0.02,0.52 0.03,1.05 -0.01,1.35 -0.04,0.3 -0.13,0.38 -0.34,0.44 -0.21,0.06 -0.54,0.11 -0.72,0.12 -0.19,0.02 -0.23,0.01 -0.27,-0.56 -0.04,-0.57 -0.07,-1.71 -0.1,-2.38 -0.03,-0.67 -0.06,-0.86 0,-1 0.06,-0.14 0.21,-0.22 0.39,-0.27 0.18,-0.05 0.37,-0.07 0.52,-0.08 0.14,-0.01 0.24,0 0.29,0.12 0.06,0.12 0.08,0.34 0.1,0.57 0.84,-0.16 1.68,-0.32 2.11,-0.39 0.43,-0.07 0.45,-0.04 0.48,-0.01 0,-0.26 0,-0.51 -0.06,-0.73 -0.06,-0.21 -0.17,-0.39 -0.3,-0.51 -0.13,-0.12 -0.29,-0.19 -0.56,-0.18 -0.27,0.01 -0.66,0.09 -1.53,0.27 -0.87,0.19 -2.23,0.48 -2.98,0.71 -0.75,0.23 -0.88,0.4 -0.92,1.24zm-10.39 5c0.46,-0.12 1.36,-0.28 2.26,-0.45 0.01,0.18 0.02,0.36 0.02,0.55 0.36,-0.03 0.72,-0.06 1.07,-0.09 0.06,-0.25 0.12,-0.5 0.12,-0.77 0,-0.28 -0.06,-0.58 -0.17,-0.74 -0.11,-0.16 -0.27,-0.16 -0.77,-0.07 -0.5,0.09 -1.35,0.29 -1.88,0.37 -0.53,0.08 -0.74,0.03 -0.89,-0.1 -0.15,-0.13 -0.23,-0.35 -0.27,-0.8 -0.03,-0.45 -0.02,-1.14 0.06,-1.54 0.08,-0.4 0.24,-0.53 1.21,-0.74 0.98,-0.21 2.77,-0.52 3.73,-0.66 0.96,-0.14 1.08,-0.12 1.2,-0.02 0.11,0.1 0.22,0.28 0.28,0.5 0.06,0.21 0.06,0.45 0.06,0.57 0,0.12 -0.01,0.12 -0.02,0.12 -0.88,0.17 -1.77,0.34 -2.65,0.5 -0.03,-0.18 -0.06,-0.36 -0.1,-0.49 -0.04,-0.12 -0.08,-0.19 -0.26,-0.2 -0.17,-0.01 -0.47,0.02 -0.65,0.06 -0.18,0.04 -0.24,0.08 -0.25,0.37 -0.01,0.28 0.04,0.81 0.08,1.08 0.04,0.27 0.08,0.28 0.27,0.27 0.19,-0.01 0.52,-0.05 1,-0.14 0.48,-0.09 1.09,-0.25 1.52,-0.32 0.43,-0.07 0.66,-0.05 0.84,0.12 0.18,0.18 0.3,0.52 0.34,0.91 0.04,0.39 -0.01,0.84 -0.06,1.13 -0.05,0.3 -0.11,0.44 -0.28,0.6 -0.17,0.16 -0.44,0.35 -1.07,0.51 -0.63,0.16 -1.61,0.31 -2.18,0.37 -0.57,0.06 -0.72,0.03 -0.9,0.02 -0.18,-0.01 -0.38,-0 -0.71,0.05 -0.32,0.05 -0.75,0.16 -1.01,0.16 -0.25,0 -0.32,-0.1 -0.37,-0.27 -0.05,-0.16 -0.09,-0.39 -0.1,-0.54 -0,-0.15 0.03,-0.21 0.49,-0.33zm-4.69 -2.2l0.07 0c0.14,0 0.25,0.11 0.25,0.24l0.07 3.09c0,0.13 -0.11,0.24 -0.24,0.24l-0.07 0c-0.14,0 -0.25,-0.11 -0.25,-0.24l-0.07 -3.09c-0,-0.13 0.11,-0.24 0.24,-0.24zm37.33 -8.25l2.67 -0.43 0.44 5.73 -2.67 0.43 -0.44 -5.73zm-7.51 1.51c1.98,-0.31 3.85,-0.63 5.83,-0.93 0.52,-0.08 0.76,0.26 0.8,0.76l0.02 0.37c0.04,0.71 -0.32,1.39 -1.05,1.5 -0.67,0.1 -1.14,0.2 -1.78,0.35 -0.17,0.04 -0.18,0.04 0.02,0.03 0.68,-0.03 1.31,-0.16 1.98,-0.26 0.53,-0.09 0.98,0.26 1.01,0.78l0.1 1.83 -2.69 0.44c-0.02,-0.36 0.08,-2.34 -0.28,-2.39 -0.14,-0.02 -0.35,-0 -0.66,0.06 -0.13,0.03 -0.28,0.06 -0.43,0.09l0.16 2.56 -2.68 0.42 -0.36 -5.62zm2.72 0.24l0.11 1.68c0.14,0 0.29,-0.01 0.44,-0.03 0.24,-0.04 0.47,-0.11 0.63,-0.17 0.31,-0.12 0.2,-0.51 0.16,-0.87 -0.04,-0.37 -0,-0.71 -0.21,-0.72 -0.19,-0.01 -0.49,0.01 -0.73,0.04 -0.15,0.02 -0.28,0.05 -0.4,0.07z"/>
   <path class="fil5" d="M26.52 17.39l2.41 -0.42 0.26 4.56c0.13,0.13 0.22,0.17 0.37,0.19 0.17,0.02 0.42,0 0.6,-0.04 0.18,-0.04 0.29,-0.11 0.35,-0.31 0.27,-0.91 -0.08,-3.8 -0.13,-4.68l2.41 -0.42 0.26 4.59c0.03,0.57 -0.41,1.11 -0.99,1.21 -1.44,0.25 -2.86,0.54 -4.28,0.79 -0.51,0.09 -0.95,-0.25 -0.98,-0.75l-0.27 -4.71zm-24.84 4.44l4.38 -0.78c0.67,-0.12 1.22,0.32 1.22,0.99l0 3.32c0,0.66 -0.55,1.3 -1.22,1.42l-4.38 0.78c-0.67,0.12 -1.22,-0.32 -1.22,-0.99l0 -3.32c0,-0.66 0.55,-1.3 1.22,-1.42zm17.41 -1.9c-0.03,0.85 0.03,2.37 0.1,3.17 0.06,0.81 0.13,0.89 0.24,0.97 0.11,0.08 0.27,0.14 0.57,0.12 0.3,-0.02 0.74,-0.12 1.46,-0.26 0.72,-0.14 1.72,-0.32 2.42,-0.46 0.7,-0.14 1.11,-0.23 1.35,-0.33 0.25,-0.1 0.34,-0.2 0.38,-0.54 0.04,-0.34 0.02,-0.9 -0.01,-1.37 -0.03,-0.46 -0.08,-0.82 -0.12,-1.18 -1.07,0.2 -2.13,0.41 -3.2,0.61 0.01,0.23 0.02,0.47 0.02,0.58 0,0.11 0,0.09 0,0.08 0.23,-0.04 0.46,-0.09 0.69,-0.13 0.02,0.52 0.03,1.05 -0.01,1.35 -0.04,0.3 -0.13,0.38 -0.34,0.44 -0.21,0.06 -0.54,0.11 -0.72,0.12 -0.19,0.02 -0.23,0.01 -0.27,-0.56 -0.04,-0.57 -0.07,-1.71 -0.1,-2.38 -0.03,-0.67 -0.06,-0.86 0,-1 0.06,-0.14 0.21,-0.22 0.39,-0.27 0.18,-0.05 0.37,-0.07 0.52,-0.08 0.14,-0.01 0.24,0 0.29,0.12 0.06,0.12 0.08,0.34 0.1,0.57 0.84,-0.16 1.68,-0.32 2.11,-0.39 0.43,-0.07 0.45,-0.04 0.48,-0.01 0,-0.25 0,-0.51 -0.06,-0.72 -0.06,-0.21 -0.17,-0.39 -0.3,-0.51 -0.13,-0.12 -0.29,-0.19 -0.56,-0.18 -0.27,0.01 -0.66,0.09 -1.53,0.27 -0.87,0.19 -2.23,0.48 -2.98,0.71 -0.75,0.23 -0.88,0.4 -0.92,1.24zm-10.39 5c0.46,-0.12 1.36,-0.28 2.26,-0.45 0.01,0.18 0.02,0.36 0.02,0.55 0.36,-0.03 0.72,-0.06 1.07,-0.09 0.06,-0.25 0.12,-0.5 0.12,-0.77 0,-0.28 -0.06,-0.58 -0.17,-0.74 -0.11,-0.16 -0.27,-0.16 -0.77,-0.07 -0.5,0.09 -1.35,0.29 -1.88,0.37 -0.53,0.08 -0.74,0.03 -0.89,-0.1 -0.15,-0.13 -0.23,-0.35 -0.27,-0.8 -0.03,-0.45 -0.02,-1.14 0.06,-1.54 0.08,-0.4 0.24,-0.53 1.21,-0.74 0.98,-0.21 2.77,-0.52 3.73,-0.66 0.96,-0.14 1.08,-0.12 1.2,-0.02 0.11,0.1 0.22,0.28 0.28,0.5 0.06,0.21 0.06,0.45 0.06,0.57 0,0.12 -0.01,0.12 -0.02,0.12 -0.88,0.17 -1.77,0.34 -2.65,0.5 -0.03,-0.18 -0.06,-0.36 -0.1,-0.49 -0.04,-0.12 -0.08,-0.19 -0.26,-0.2 -0.17,-0.01 -0.47,0.02 -0.65,0.06 -0.18,0.04 -0.24,0.08 -0.25,0.37 -0.01,0.28 0.04,0.81 0.08,1.08 0.04,0.27 0.08,0.28 0.27,0.27 0.19,-0.01 0.52,-0.05 1,-0.14 0.48,-0.09 1.09,-0.25 1.52,-0.32 0.43,-0.07 0.66,-0.05 0.84,0.12 0.18,0.18 0.3,0.52 0.34,0.91 0.04,0.39 -0.01,0.84 -0.06,1.13 -0.05,0.3 -0.11,0.44 -0.28,0.6 -0.17,0.16 -0.44,0.35 -1.07,0.51 -0.63,0.16 -1.61,0.31 -2.18,0.37 -0.57,0.06 -0.72,0.03 -0.9,0.02 -0.18,-0.01 -0.38,-0 -0.7,0.05 -0.32,0.05 -0.75,0.16 -1.01,0.16 -0.25,0 -0.32,-0.1 -0.37,-0.27 -0.05,-0.16 -0.09,-0.39 -0.1,-0.54 -0,-0.15 0.03,-0.21 0.49,-0.33zm-4.69 -2.2l0.07 0c0.14,0 0.25,0.11 0.25,0.24l0.07 3.09c0,0.13 -0.11,0.24 -0.24,0.24l-0.07 0c-0.14,0 -0.25,-0.11 -0.25,-0.24l-0.07 -3.09c-0,-0.13 0.11,-0.24 0.24,-0.24zm37.33 -8.25l2.67 -0.43 0.44 5.73 -2.67 0.43 -0.44 -5.73zm-7.51 1.51c1.98,-0.31 3.85,-0.63 5.83,-0.93 0.52,-0.08 0.76,0.26 0.8,0.76l0.02 0.37c0.04,0.71 -0.32,1.39 -1.05,1.5 -0.67,0.1 -1.14,0.2 -1.78,0.35 -0.17,0.04 -0.18,0.04 0.02,0.03 0.68,-0.03 1.31,-0.16 1.98,-0.26 0.53,-0.09 0.98,0.26 1.01,0.78l0.1 1.83 -2.69 0.44c-0.02,-0.36 0.08,-2.34 -0.28,-2.39 -0.14,-0.02 -0.35,-0 -0.66,0.06 -0.13,0.03 -0.28,0.06 -0.43,0.09l0.16 2.56 -2.68 0.42 -0.36 -5.62zm2.72 0.24l0.11 1.68c0.14,0 0.29,-0.01 0.44,-0.03 0.24,-0.04 0.47,-0.11 0.63,-0.17 0.31,-0.12 0.2,-0.51 0.16,-0.87 -0.04,-0.37 -0,-0.71 -0.21,-0.72 -0.19,-0.01 -0.49,0.01 -0.73,0.04 -0.15,0.02 -0.28,0.05 -0.4,0.07z"/>
   <path class="fil2" d="M26.52 17.39l2.41 -0.42 0.17 2.87 -2.4 0.48 -0.17 -2.92zm4.07 2.15c-0.05,-1.11 -0.19,-2.34 -0.22,-2.86l2.41 -0.42 0.16 2.82 -2.35 0.47zm-26.14 5.27c0.86,-0.18 1.81,-0.38 2.83,-0.59l0 -2.18c0,-0.66 -0.55,-1.1 -1.22,-0.99l-4.38 0.78c-0.67,0.12 -1.22,0.76 -1.22,1.42l0 2.41c0.94,-0.21 2.04,-0.44 3.34,-0.72l-0.04 -1.96c-0,-0.13 0.11,-0.24 0.24,-0.24l0.07 0c0.14,0 0.25,0.11 0.25,0.24l0.04 1.84 0.08 -0.02zm7.29 -1.5c0.97,-0.2 1.97,-0.4 3.02,-0.61 -0.06,-0.16 -0.13,-0.29 -0.22,-0.38 -0.18,-0.18 -0.42,-0.19 -0.84,-0.12 -0.43,0.07 -1.04,0.22 -1.52,0.32 -0.48,0.09 -0.81,0.13 -1,0.14 -0.19,0.01 -0.22,-0 -0.27,-0.27 -0.04,-0.27 -0.09,-0.79 -0.08,-1.08 0.01,-0.28 0.07,-0.33 0.25,-0.37 0.18,-0.04 0.48,-0.08 0.65,-0.06 0.17,0.01 0.22,0.08 0.26,0.2 0.04,0.12 0.07,0.31 0.1,0.49 0.88,-0.17 1.77,-0.34 2.65,-0.5 0.01,0 0.02,0 0.02,-0.12 0,-0.12 -0.01,-0.36 -0.06,-0.57 -0.06,-0.21 -0.16,-0.39 -0.28,-0.5 -0.11,-0.1 -0.24,-0.12 -1.2,0.02 -0.96,0.14 -2.76,0.45 -3.73,0.66 -0.98,0.21 -1.13,0.34 -1.21,0.74 -0.08,0.4 -0.1,1.09 -0.06,1.54 0.03,0.45 0.12,0.67 0.27,0.8 0.15,0.13 0.36,0.17 0.89,0.1 0.53,-0.08 1.38,-0.27 1.88,-0.37 0.24,-0.04 0.4,-0.07 0.51,-0.06zm7.37 -1.48c0.81,-0.16 1.64,-0.33 2.48,-0.5 -0.01,-0.41 -0.03,-0.83 -0.04,-1.14 -0.03,-0.67 -0.06,-0.86 0,-1 0.06,-0.14 0.21,-0.22 0.39,-0.27 0.18,-0.05 0.37,-0.07 0.52,-0.08 0.14,-0.01 0.24,0 0.29,0.12 0.06,0.12 0.08,0.34 0.1,0.57 0.84,-0.16 1.68,-0.32 2.11,-0.39 0.43,-0.07 0.45,-0.04 0.48,-0.01 0,-0.25 0,-0.51 -0.06,-0.72 -0.06,-0.21 -0.17,-0.39 -0.3,-0.51 -0.13,-0.12 -0.29,-0.19 -0.56,-0.18 -0.27,0.01 -0.66,0.09 -1.53,0.27 -0.87,0.19 -2.23,0.48 -2.98,0.71 -0.75,0.23 -0.88,0.4 -0.92,1.24 -0.02,0.49 -0.01,1.21 0.02,1.89zm3.18 -0.64c1.06,-0.21 2.14,-0.43 3.24,-0.65 -0.02,-0.16 -0.04,-0.32 -0.06,-0.47 -1.07,0.2 -2.13,0.41 -3.2,0.61l0.02 0.51zm11.72 -2.33c1.35,-0.27 2.71,-0.54 4.08,-0.81 -0.14,0.01 -0.28,0.02 -0.43,0.03 -0.2,0.01 -0.19,0.01 -0.02,-0.03 0.64,-0.15 1.11,-0.25 1.78,-0.35 0.73,-0.11 1.09,-0.79 1.05,-1.5l-0.02 -0.37c-0.03,-0.51 -0.27,-0.84 -0.8,-0.76 -1.98,0.3 -3.85,0.62 -5.83,0.93l0.18 2.87zm7.54 -1.49l2.66 -0.53 -0.22 -2.79 -2.67 0.43 0.22 2.88zm-5.01 -1.13l0.11 1.68c0.14,0 0.29,-0.01 0.44,-0.03 0.24,-0.04 0.47,-0.11 0.63,-0.17 0.31,-0.12 0.2,-0.51 0.16,-0.87 -0.04,-0.37 -0,-0.71 -0.21,-0.72 -0.19,-0.01 -0.49,0.01 -0.73,0.04 -0.15,0.02 -0.28,0.05 -0.4,0.07z"/>
   <path class="fil0" d="M40.9 21.36c-0,-0.01 -0,-0.01 -0.01,-0.02 -0.04,-0.1 -0.03,-0.2 0.03,-0.3 0.06,-0.09 0.14,-0.15 0.26,-0.17 0.31,-0.05 0.8,-0.08 1.09,0.1 0.25,-0.23 0.56,-0.42 0.86,-0.47 0.25,-0.05 0.51,-0.01 0.7,0.15 0.25,-0.21 0.54,-0.39 0.83,-0.44 0.27,-0.05 0.57,-0.01 0.75,0.21 0,0 0,0 0,0.01 0.26,0.32 0.14,0.89 0.09,1.27 -0.02,0.13 -0.08,0.62 0.01,0.72 0.08,0.08 0.11,0.18 0.09,0.28 -0.02,0.11 -0.07,0.19 -0.17,0.25 -0.17,0.1 -0.36,0.18 -0.56,0.22 -0.3,0.06 -0.59,0.01 -0.8,-0.16 -0.02,0.1 -0.07,0.18 -0.16,0.23 -0.17,0.1 -0.36,0.18 -0.56,0.22 -0.29,0.05 -0.58,0.01 -0.78,-0.15 -0.02,0.09 -0.08,0.17 -0.17,0.22 -0.17,0.1 -0.36,0.18 -0.55,0.21 -0.35,0.07 -0.69,-0.01 -0.89,-0.26 -0.25,0.32 -0.63,0.53 -1.04,0.61 -0.54,0.12 -1.15,0.09 -1.55,-0.3 -0.16,0.88 -0.42,1.67 -1.47,1.87 -0.45,0.09 -1.01,0.03 -1.36,-0.27 -0.14,-0.12 -0.24,-0.28 -0.27,-0.46 -0,-0.02 -0.01,-0.05 -0.01,-0.07 -0.02,0.01 -0.04,0.03 -0.06,0.04 -0.17,0.1 -0.36,0.18 -0.55,0.21 -0.28,0.05 -0.55,0.01 -0.75,-0.12 -0.17,0.18 -0.38,0.32 -0.64,0.38 -0.44,0.1 -0.82,-0.01 -1.09,-0.25 0.01,0.04 0.01,0.09 0.01,0.13 -0.02,0.11 -0.07,0.19 -0.17,0.25 -0.17,0.1 -0.36,0.18 -0.56,0.22 -0.32,0.06 -0.64,-0 -0.84,-0.21 -0,0.01 -0,0.03 -0,0.04 -0.02,0.11 -0.08,0.19 -0.17,0.25 -0.17,0.1 -0.36,0.18 -0.55,0.21 -0.26,0.05 -0.51,0.02 -0.71,-0.1 -0.03,0.06 -0.08,0.12 -0.15,0.15 -0.17,0.1 -0.36,0.18 -0.55,0.21 -0.28,0.05 -0.55,0.01 -0.75,-0.12 -0.17,0.18 -0.38,0.32 -0.64,0.38 -0.42,0.09 -0.79,0 -1.06,-0.21 0,0.03 0,0.07 -0,0.1 -0.02,0.11 -0.08,0.19 -0.17,0.25 -0.17,0.1 -0.36,0.18 -0.55,0.21 -0.38,0.07 -0.75,-0.03 -0.95,-0.33 -0.25,0.36 -0.65,0.62 -1.13,0.71 -0.15,0.03 -0.29,0.04 -0.43,0.01 -0,0.14 0.01,0.26 0.04,0.3 0.08,0.08 0.11,0.18 0.09,0.29 -0.02,0.11 -0.08,0.19 -0.17,0.25 -0.17,0.1 -0.36,0.18 -0.55,0.21 -0.44,0.08 -0.88,-0.07 -1.03,-0.5 -0.02,-0.06 -0.03,-0.12 -0.04,-0.19 -0.11,0.05 -0.23,0.09 -0.34,0.11 -0.28,0.05 -0.55,0.01 -0.75,-0.12 -0.17,0.18 -0.38,0.32 -0.64,0.38 -0.78,0.17 -1.38,-0.3 -1.5,-1 -0.18,0.09 -0.4,0.12 -0.56,-0.06 -0.01,-0.01 -0.01,-0.01 -0.02,-0.02 -0.06,0.27 -0.05,0.73 0.02,0.87 0.07,0.08 0.09,0.17 0.08,0.27 -0.02,0.11 -0.08,0.19 -0.17,0.25 -0.17,0.1 -0.36,0.18 -0.55,0.21 -0.44,0.08 -0.88,-0.07 -1.03,-0.5 -0.06,-0.17 -0.06,-0.39 -0.04,-0.61 -0.19,0.12 -0.45,0.19 -0.63,-0.02 -0.01,-0.01 -0.01,-0.01 -0.02,-0.02 -0.06,0.27 -0.05,0.73 0.02,0.87 0.07,0.08 0.09,0.17 0.08,0.27 -0.02,0.11 -0.08,0.19 -0.17,0.25 -0.17,0.1 -0.36,0.18 -0.55,0.21 -0.35,0.07 -0.69,-0.01 -0.9,-0.26 -0,0 -0,0 -0,0.01 -0.25,0.32 -0.63,0.53 -1.04,0.61 -0.58,0.13 -1.24,0.08 -1.63,-0.39 -0.07,-0.09 -0.13,-0.19 -0.17,-0.29 -0.01,0.18 -0,0.36 0.04,0.42 0.08,0.08 0.11,0.18 0.09,0.29 -0.02,0.11 -0.08,0.19 -0.17,0.25 -0.17,0.1 -0.36,0.18 -0.55,0.21 -0.44,0.08 -0.88,-0.07 -1.03,-0.5 -0.11,-0.33 0,-0.98 0.05,-1.33 0.02,-0.15 0.06,-0.36 0.07,-0.56 -0.13,0.04 -0.25,0.08 -0.3,0.13 -0.12,0.13 -0.33,0.15 -0.48,0.05 -0.51,-0.35 -0.46,-0.92 0.03,-1.24 0.2,-0.13 0.52,-0.2 0.76,-0.24 0.5,-0.09 1,-0.15 1.5,-0.24 0.12,-0.02 0.34,-0.06 0.44,-0.12 0.16,-0.09 0.37,-0.04 0.47,0.11 0.18,0.25 0.21,0.49 0.12,0.71 0.17,-0.08 0.36,-0.14 0.55,-0.17 0.4,-0.09 0.88,-0.05 1.2,0.21 -0,-0.01 -0.01,-0.02 -0.01,-0.03 -0.04,-0.1 -0.03,-0.2 0.03,-0.3 0.06,-0.09 0.14,-0.15 0.26,-0.17 0.23,-0.04 0.56,-0.06 0.84,0.01 0.14,-0.13 0.31,-0.22 0.52,-0.26 0.24,-0.05 0.49,-0.04 0.7,0.05 0.01,-0.03 0.02,-0.05 0.03,-0.07 0.06,-0.09 0.14,-0.15 0.26,-0.17 0.23,-0.04 0.56,-0.06 0.84,0.01 0.14,-0.13 0.31,-0.22 0.52,-0.26 0.35,-0.08 0.72,-0.01 0.95,0.23 0.28,-0.31 0.66,-0.53 1.08,-0.61 0.17,-0.03 0.33,-0.04 0.49,-0.02 0.06,-0.06 0.13,-0.1 0.22,-0.12 0.31,-0.05 0.83,-0.09 1.11,0.12 -0,-0.02 -0.01,-0.03 -0.01,-0.05 -0.03,-0.1 -0.02,-0.2 0.04,-0.29 0.06,-0.09 0.14,-0.14 0.25,-0.16 0.27,-0.04 0.73,-0.08 1.04,0.06 0.16,-0.12 0.34,-0.21 0.54,-0.25 0.53,-0.12 1.01,0.05 1.3,0.39 0,-0.04 0.01,-0.09 0.01,-0.13 0.03,-0.31 0.04,-0.68 -0.05,-0.98 -0.03,-0.1 -0.02,-0.2 0.04,-0.29 0.06,-0.09 0.14,-0.14 0.25,-0.16 0.38,-0.06 1.15,-0.1 1.32,0.34 0.07,0.2 0.1,0.42 0.11,0.65 0.27,-0.29 0.64,-0.49 1.04,-0.57 0.17,-0.03 0.33,-0.04 0.49,-0.02 0.06,-0.06 0.13,-0.1 0.22,-0.12 0.31,-0.05 0.81,-0.08 1.1,0.11 -0.01,-0.07 0.01,-0.14 0.05,-0.21 0.06,-0.09 0.14,-0.15 0.26,-0.17 0.32,-0.05 0.85,-0.09 1.13,0.13 0.29,-0.25 0.63,-0.47 0.94,-0.53 0.27,-0.05 0.57,-0.01 0.75,0.21 0.03,0.04 0.06,0.08 0.08,0.13 0.28,-0.36 0.7,-0.63 1.16,-0.71 0.17,-0.03 0.33,-0.04 0.49,-0.02 0.06,-0.06 0.13,-0.1 0.22,-0.12 0.37,-0.06 1.01,-0.1 1.24,0.25 0.01,0.01 0.02,0.03 0.03,0.04 0.28,-0.38 0.71,-0.66 1.19,-0.75 0.17,-0.03 0.33,-0.04 0.49,-0.02 0.05,-0.06 0.13,-0.1 0.22,-0.12 0.37,-0.06 1.01,-0.1 1.24,0.24 0.01,0.01 0.01,0.02 0.02,0.02 0.32,-0.39 0.8,-0.65 1.32,-0.75 0.4,-0.09 0.87,-0.05 1.19,0.2zm-30.01 5.77c-0.05,0.01 -0.09,0.02 -0.14,0.03 0,0.05 0,0.11 0,0.17 0.04,-0.07 0.09,-0.13 0.14,-0.2zm-6.38 1.17c0.28,-0.34 0.68,-0.6 1.14,-0.68 0.17,-0.03 0.33,-0.04 0.49,-0.02 0.06,-0.06 0.13,-0.1 0.22,-0.12 0.37,-0.06 1.01,-0.1 1.24,0.25 0.22,0.32 0.11,0.83 0.06,1.19 -0.02,0.13 -0.08,0.57 0.01,0.67 0.08,0.08 0.11,0.18 0.09,0.29 -0.02,0.11 -0.08,0.19 -0.17,0.25 -0.17,0.1 -0.36,0.18 -0.55,0.21 -0.28,0.05 -0.55,0.01 -0.75,-0.12 -0.17,0.18 -0.38,0.32 -0.64,0.38 -0.6,0.13 -1.1,-0.12 -1.34,-0.55 -0.41,0.67 -1.17,1.1 -2.03,1.26 -0.17,0.03 -0.34,0.05 -0.52,0.07 -0.42,0.05 -0.96,-0.19 -1.1,-0.59 -0.1,-0.29 0.01,-0.82 0.05,-1.13 0.08,-0.56 0.13,-1.1 0.1,-1.67 -0.01,-0.15 0.09,-0.29 0.24,-0.34 0.28,-0.1 0.71,-0.11 1.03,0.03 0.22,-0.17 0.47,-0.29 0.74,-0.34 0.12,-0.02 0.23,-0.03 0.35,-0.02 0.26,0.01 0.51,0.09 0.73,0.23 0.3,0.19 0.51,0.46 0.63,0.77zm-2.15 1.59c0.24,-0.15 0.44,-0.35 0.52,-0.63 0.01,-0.05 0.02,-0.1 0.02,-0.15 0,-0.08 -0.03,-0.31 -0.12,-0.35 -0,-0 -0.02,-0 -0.02,0 -0.14,0.03 -0.32,0.28 -0.33,0.41 -0.01,0.06 -0.01,0.11 -0.02,0.17 -0.02,0.18 -0.03,0.36 -0.05,0.55zm3.39 -0.73c0.07,-0.11 0.14,-0.27 0.19,-0.41 -0.12,0.09 -0.19,0.27 -0.19,0.4 0,0.01 0,0.01 0,0.02zm13.77 -2.61c0.07,-0.11 0.14,-0.27 0.19,-0.41 -0.12,0.09 -0.19,0.27 -0.19,0.4 0,0.01 0,0.01 0,0.02zm3.4 -0.49c0.07,-0.11 0.13,-0.27 0.14,-0.34 0.01,-0.05 0.01,-0.13 0.01,-0.21 -0.09,0.11 -0.14,0.32 -0.14,0.42 -0,0.03 -0,0.07 -0,0.12zm4.28 -0.97c0.07,-0.11 0.14,-0.27 0.19,-0.41 -0.12,0.09 -0.19,0.27 -0.19,0.4 0,0.01 0,0.01 0,0.02zm6.18 -1.17c0.07,-0.11 0.14,-0.27 0.19,-0.41 -0.12,0.09 -0.19,0.27 -0.19,0.4 0,0.01 0,0.01 0,0.02zm3.16 -0.6c0.07,-0.11 0.14,-0.27 0.19,-0.41 -0.12,0.09 -0.19,0.27 -0.19,0.4 0,0.01 0,0.01 0,0.02z"/>
   <path class="fil6" d="M0.99 30.67c0.08,0.23 0.45,0.39 0.71,0.35 0.17,-0.01 0.34,-0.03 0.49,-0.06 1.23,-0.23 1.99,-0.98 2.06,-1.95 0.05,-0.72 -0.44,-1.32 -1.12,-1.36 -0.09,-0.01 -0.17,0 -0.26,0.02 -0.3,0.06 -0.58,0.24 -0.79,0.45 -0.12,-0.24 -0.69,-0.24 -0.92,-0.16 0.07,1.36 -0.28,2.35 -0.16,2.7zm1.07 -1.53c0.02,-0.25 0.29,-0.66 0.62,-0.72 0.44,-0.08 0.66,0.49 0.55,0.92 -0.12,0.48 -0.5,0.85 -1.26,1.11 -0.01,-0.23 0.04,-0.79 0.09,-1.31zm4.28 0.59c0.08,0.25 0.33,0.32 0.61,0.27 0.14,-0.03 0.29,-0.09 0.44,-0.17 -0.39,-0.42 0.16,-1.53 -0.1,-1.91 -0.08,-0.13 -0.46,-0.16 -0.87,-0.1 0.02,0.07 0.03,0.18 0.03,0.29 -0.18,-0.18 -0.42,-0.21 -0.72,-0.15 -0.76,0.14 -1.25,0.81 -1.23,1.42 0.01,0.61 0.45,1.01 1.07,0.88 0.33,-0.07 0.57,-0.37 0.75,-0.73 0.01,0.08 0.01,0.14 0.03,0.2zm-0.38 -1.37c0.28,-0.05 0.44,0.03 0.4,0.24 -0.13,0.48 -0.37,0.97 -0.62,1.02 -0.23,0.04 -0.36,-0.21 -0.36,-0.47 -0,-0.3 0.2,-0.71 0.58,-0.79zm4.89 -1.58c0.44,-0.11 0.61,-0.43 0.39,-0.74 -0.12,0.06 -0.31,0.11 -0.55,0.15 -0.45,0.09 -1.05,0.15 -1.5,0.24 -0.28,0.05 -0.51,0.11 -0.63,0.19 -0.21,0.14 -0.38,0.42 -0.02,0.66 0.16,-0.17 0.53,-0.27 0.93,-0.33 0.08,0.55 -0.27,1.82 -0.14,2.21 0.08,0.25 0.33,0.32 0.61,0.27 0.14,-0.03 0.29,-0.09 0.44,-0.17 -0.39,-0.42 0.19,-1.97 -0.06,-2.35 -0.01,-0.02 -0.04,-0.04 -0.07,-0.06 0.25,-0.03 0.47,-0.05 0.6,-0.08zm1.63 1.63c-0.28,0.05 -0.48,-0 -0.6,-0.15 0.59,-0.09 1.36,-0.48 1.46,-0.92 0.1,-0.46 -0.4,-0.77 -1.05,-0.62 -0.91,0.17 -1.42,0.83 -1.4,1.45 0.01,0.61 0.55,1.01 1.45,0.8 0.86,-0.16 1.15,-0.93 0.88,-0.97 -0.16,0.19 -0.37,0.35 -0.73,0.42zm-0.21 -1.25c0.14,-0.03 0.25,0.01 0.29,0.12 0.11,0.29 -0.45,0.5 -0.77,0.6 0.03,-0.24 0.14,-0.65 0.49,-0.72zm2.64 -0.29c0.27,-0.05 0.37,0.28 0.37,0.28 0.02,0.07 0.67,-0.34 0.52,-0.72 -0.09,-0.23 -0.36,-0.33 -0.69,-0.26 -0.23,0.04 -0.39,0.17 -0.49,0.36 -0.09,-0.13 -0.47,-0.17 -0.89,-0.11 0.17,0.45 -0.22,1.48 -0.07,1.9 0.08,0.25 0.33,0.32 0.61,0.27 0.14,-0.03 0.29,-0.09 0.44,-0.17 -0.21,-0.23 -0.21,-1.48 0.2,-1.57zm2.35 -0.44c0.27,-0.05 0.37,0.28 0.37,0.28 0.02,0.07 0.67,-0.34 0.52,-0.72 -0.09,-0.23 -0.36,-0.33 -0.69,-0.26 -0.23,0.04 -0.39,0.17 -0.49,0.36 -0.09,-0.13 -0.47,-0.17 -0.89,-0.11 0.17,0.45 -0.22,1.48 -0.07,1.9 0.08,0.25 0.33,0.33 0.61,0.27 0.14,-0.03 0.29,-0.09 0.44,-0.17 -0.21,-0.23 -0.21,-1.48 0.2,-1.57zm2.85 0.69c0.08,0.25 0.33,0.32 0.61,0.27 0.14,-0.03 0.29,-0.09 0.44,-0.17 -0.39,-0.42 0.16,-1.53 -0.1,-1.91 -0.08,-0.13 -0.46,-0.16 -0.87,-0.1 0.02,0.07 0.03,0.18 0.03,0.29 -0.18,-0.18 -0.42,-0.21 -0.72,-0.15 -0.76,0.14 -1.25,0.81 -1.23,1.42 0.01,0.61 0.45,1.01 1.07,0.88 0.33,-0.07 0.57,-0.37 0.75,-0.73 0.01,0.08 0.01,0.14 0.03,0.2zm-0.38 -1.37c0.28,-0.05 0.44,0.03 0.4,0.24 -0.13,0.48 -0.37,0.97 -0.62,1.02 -0.23,0.04 -0.36,-0.21 -0.36,-0.47 -0,-0.3 0.2,-0.71 0.58,-0.79zm4.58 -0.24c-0.01,-0.61 -0.5,-1 -1.14,-0.85 -0.26,0.05 -0.49,0.22 -0.65,0.45 -0.01,-0.05 -0.03,-0.1 -0.04,-0.15 -0.05,-0.13 -0.49,-0.18 -0.91,-0.11 0.29,0.91 -0.19,2.43 -0.05,2.86 0.08,0.25 0.33,0.32 0.61,0.27 0.14,-0.03 0.29,-0.09 0.44,-0.17 -0.18,-0.19 -0.15,-0.63 -0.09,-1.14 0.15,0.2 0.38,0.31 0.67,0.25 0.79,-0.15 1.17,-0.8 1.16,-1.41zm-1.43 1.02c-0.34,0.06 -0.33,-0.43 -0.32,-0.6 0.02,-0.33 0.18,-0.74 0.55,-0.81 0.27,-0.05 0.37,0.36 0.31,0.68 -0.05,0.23 -0.23,0.67 -0.54,0.73zm1.82 -3.04c0.29,0.91 -0.22,2.35 -0.08,2.78 0.08,0.25 0.33,0.32 0.61,0.27 0.14,-0.03 0.29,-0.09 0.44,-0.17 -0.39,-0.42 0.25,-1.96 -0.06,-2.77 -0.05,-0.13 -0.49,-0.18 -0.91,-0.11zm3.1 2.18c0.08,0.25 0.33,0.32 0.61,0.27 0.14,-0.03 0.29,-0.09 0.44,-0.17 -0.39,-0.42 0.16,-1.53 -0.1,-1.91 -0.08,-0.13 -0.46,-0.16 -0.87,-0.1 0.02,0.07 0.03,0.18 0.03,0.29 -0.18,-0.18 -0.42,-0.21 -0.72,-0.15 -0.76,0.14 -1.25,0.81 -1.23,1.42 0.01,0.61 0.45,1.01 1.07,0.88 0.33,-0.07 0.57,-0.37 0.75,-0.73 0.01,0.08 0.01,0.14 0.03,0.2zm-0.38 -1.37c0.28,-0.05 0.44,0.03 0.4,0.24 -0.13,0.48 -0.37,0.97 -0.62,1.02 -0.23,0.04 -0.36,-0.21 -0.36,-0.47 -0,-0.3 0.2,-0.71 0.58,-0.79zm3.45 -0.43c-0.02,0.51 -0.2,0.9 -0.09,1.23 0.08,0.25 0.33,0.33 0.61,0.28 0.14,-0.03 0.29,-0.09 0.44,-0.17 -0.39,-0.41 0.23,-1.65 -0.07,-2.01 -0.08,-0.09 -0.22,-0.12 -0.39,-0.09 -0.41,0.08 -0.93,0.56 -1.14,0.82 0,-0.13 -0.01,-0.25 -0.07,-0.33 -0.09,-0.13 -0.46,-0.16 -0.88,-0.09 0.17,0.45 -0.22,1.48 -0.07,1.9 0.08,0.25 0.33,0.33 0.61,0.27 0.14,-0.03 0.29,-0.09 0.44,-0.17 -0.15,-0.15 -0.19,-0.42 -0.14,-0.69 0.1,-0.51 0.54,-0.97 0.7,-1 0.03,-0.01 0.05,0.01 0.05,0.05zm3.12 0.63c0.08,0.25 0.33,0.33 0.61,0.27 0.14,-0.03 0.29,-0.09 0.44,-0.17 -0.39,-0.42 0.16,-1.53 -0.1,-1.91 -0.08,-0.13 -0.46,-0.16 -0.87,-0.1 0.02,0.07 0.03,0.18 0.03,0.29 -0.18,-0.18 -0.42,-0.21 -0.72,-0.15 -0.76,0.14 -1.25,0.81 -1.23,1.42 0.01,0.61 0.45,1.01 1.07,0.88 0.33,-0.07 0.57,-0.37 0.75,-0.73 0.01,0.08 0.01,0.14 0.03,0.2zm-0.38 -1.37c0.28,-0.05 0.44,0.03 0.4,0.24 -0.13,0.48 -0.37,0.97 -0.62,1.02 -0.23,0.04 -0.36,-0.21 -0.36,-0.47 -0,-0.3 0.2,-0.71 0.58,-0.79zm3.61 -1.13c0.03,0.07 0.04,0.18 0.03,0.29 -0.18,-0.18 -0.42,-0.21 -0.72,-0.15 -0.76,0.14 -1.25,0.81 -1.23,1.42 0.01,0.61 0.45,1.01 1.07,0.88 0.39,-0.08 0.66,-0.47 0.84,-0.92 -0.06,0.43 -0.04,1.22 -0.67,1.34 -0.23,0.04 -0.48,0.04 -0.86,-0.13 -0.05,0.04 -0.07,0.25 0.12,0.41 0.23,0.19 0.64,0.27 1.05,0.19 0.9,-0.17 1.07,-0.89 1.21,-1.74 0.11,-0.68 0.16,-1.31 0.04,-1.49 -0.08,-0.13 -0.46,-0.16 -0.87,-0.1zm-0.45 0.53c0.28,-0.05 0.44,0.03 0.4,0.24 -0.13,0.48 -0.37,0.97 -0.62,1.02 -0.23,0.04 -0.36,-0.21 -0.36,-0.47 -0,-0.37 0.26,-0.72 0.58,-0.79zm3.23 0.68c-0.28,0.05 -0.48,-0 -0.6,-0.15 0.59,-0.09 1.36,-0.48 1.46,-0.92 0.1,-0.46 -0.4,-0.77 -1.05,-0.62 -0.91,0.17 -1.42,0.83 -1.4,1.45 0.01,0.61 0.55,1.01 1.45,0.8 0.86,-0.16 1.15,-0.93 0.88,-0.97 -0.16,0.19 -0.37,0.35 -0.73,0.42zm-0.21 -1.25c0.14,-0.03 0.25,0.01 0.29,0.12 0.11,0.29 -0.45,0.5 -0.77,0.6 0.03,-0.24 0.14,-0.65 0.49,-0.72zm2.93 -0.33c-0.02,0.51 -0.15,0.89 -0.04,1.23 0.08,0.25 0.33,0.33 0.61,0.28 0.14,-0.03 0.29,-0.09 0.44,-0.17 -0.04,-0.05 -0.08,-0.11 -0.1,-0.17 -0.21,-0.65 0.63,-1.75 0.61,-1.44 -0.03,0.51 -0.16,0.89 -0.04,1.23 0.08,0.25 0.33,0.33 0.61,0.28 0.14,-0.03 0.29,-0.09 0.44,-0.17 -0.39,-0.41 0.17,-1.64 -0.12,-2 -0.08,-0.09 -0.22,-0.12 -0.39,-0.09 -0.42,0.08 -0.85,0.5 -1.04,0.78 0,-0.17 -0.02,-0.32 -0.09,-0.41 -0.08,-0.09 -0.22,-0.12 -0.39,-0.09 -0.4,0.08 -0.83,0.49 -1.02,0.75 -0,-0.11 -0.02,-0.21 -0.07,-0.28 -0.09,-0.13 -0.46,-0.16 -0.88,-0.09 0.17,0.45 -0.22,1.48 -0.07,1.9 0.08,0.25 0.33,0.33 0.61,0.27 0.14,-0.03 0.29,-0.09 0.44,-0.17 -0.1,-0.11 -0.14,-0.26 -0.15,-0.43 0.03,-0.64 0.65,-1.45 0.64,-1.18z"/>
   <path class="fil7" d="M12.06 18.08l5.04 -0.96c0.01,0.01 0.02,0.02 0.03,0.04 -0,0.01 -0,0.01 -0,0.02 0,0.12 0.02,0.19 0.09,0.28l-5.44 1.04 0.29 -0.41zm12.68 -7.12l0.45 0.27 -4.95 0.95c-0.06,-0.02 -0.12,-0.04 -0.17,-0.05 -0.02,-0.01 -0.05,-0.02 -0.08,-0.03 -0.01,-0 -0.02,-0.01 -0.02,-0.01l-0.06 -0.02c-0.04,-0.03 -0.09,-0.04 -0.14,-0.05 -0.05,-0.04 -0.12,-0.07 -0.19,-0.07 -0,-0 -0,-0 -0.01,-0l-0.01 -0 5.17 -0.99zm1.2 0.71l0.45 0.27 -4.4 0.84c-0.06,-0.02 -0.11,-0.04 -0.18,-0.06l-0.17 -0.06c-0.01,-0 -0.01,-0 -0.02,-0.01 -0.03,-0.01 -0.06,-0.02 -0.1,-0.03 -0,-0 -0,-0 -0.01,-0l-0.2 -0.05 -0.03 -0.01 4.64 -0.89zm1.2 0.71l0.45 0.27 -2.97 0.57c-0.05,-0.01 -0.11,-0.02 -0.17,-0.03 -0.04,-0 -0.08,-0.02 -0.12,-0.02 -0.11,-0.02 -0.23,-0.03 -0.34,-0.04 -0.07,-0.01 -0.18,-0.02 -0.25,-0.03 -0.05,-0.01 -0.1,-0.02 -0.15,-0.03l3.55 -0.68zm1.2 0.71l0.45 0.27 -3.49 0.67c-0.05,-0.02 -0.09,-0.03 -0.12,-0.04 -0.06,-0.01 -0.11,-0.01 -0.16,-0.01l-0 -0.01c-0.01,-0.07 -0.02,-0.16 -0.03,-0.24l3.35 -0.64zm1.2 0.71l0.45 0.27 -4.24 0.81c-0.01,-0.05 -0.01,-0.1 -0.02,-0.15 -0.01,-0.05 -0.02,-0.12 -0.03,-0.19l3.83 -0.73zm1.2 0.71l0.45 0.27 -5.12 0.98c-0.02,-0.12 -0.06,-0.23 -0.12,-0.33l4.78 -0.91zm-18.23 2.89l0.29 -0.41 4.03 -0.77c-0.03,0.12 -0.04,0.24 -0.02,0.36l-4.3 0.82zm0.76 -1.09l0.29 -0.41 3.87 -0.74c-0,0.01 -0,0.02 -0,0.03 0,0.07 -0,0.13 0,0.2 0,0.04 0.01,0.08 0.02,0.11l-0.01 0 -4.16 0.79zm0.76 -1.09l0.29 -0.41 2.98 -0.57c-0,0.03 -0,0.06 -0,0.09 0,0.09 0.02,0.18 0.06,0.25l-3.33 0.63zm0.76 -1.09l0.29 -0.41 2.19 -0.42c0,0.01 0,0.03 0.01,0.05l0.01 0.31 -2.49 0.47zm0.76 -1.09l0.29 -0.41 1.35 -0.26c0.02,0.07 0.04,0.13 0.06,0.2l0.01 0.14 -1.7 0.32zm3.65 3.65l1.24 -0.24c-0.02,0.12 -0.01,0.24 0.02,0.35l-1.31 0.25c-0.02,-0.06 -0.04,-0.11 -0.06,-0.17 0.01,-0.01 0.01,-0.02 0.02,-0.03 0,-0 0,-0 0,-0l0.09 -0.16zm-0.1 -2.8l0.68 -0.13c0.03,0.03 0.07,0.06 0.1,0.08 0.01,0.01 0.01,0.01 0.02,0.02 0.01,0.01 0.01,0.01 0.02,0.02 0,0 0.01,0.01 0.01,0.01l0.19 0.16 -0.98 0.19 -0.04 -0.35zm0.11 0.92l1.49 -0.28c0.04,0.03 0.08,0.06 0.12,0.08 0.06,0.03 0.12,0.03 0.19,0.04 0.05,0.04 0.11,0.09 0.15,0.13l0.01 0.01 -1.93 0.37 -0.02 -0.11c-0,-0.05 -0,-0.1 -0.01,-0.15l-0.01 -0.08zm3.71 -0.71l0.13 -0.02c0,0.04 0.01,0.08 0.01,0.12 0.01,0.05 0.01,0.11 0.02,0.16 -0.06,0.01 -0.12,0.02 -0.18,0.03 -0,-0.01 -0,-0.03 -0,-0.04 0,-0.01 0,-0.02 0,-0.03 0.01,-0.07 0.01,-0.15 0.02,-0.22zm-3.41 1.59l1.82 -0.35c0.04,0.11 0.09,0.22 0.18,0.3 -0.03,0 -0.06,0.01 -0.09,0.01 -0.01,0 -0.02,0 -0.04,0 -0.03,0 -0.05,0 -0.08,0.01l-0.3 0.08c-0.02,0.01 -0.03,0.01 -0.05,0.02l-0.01 0.01 -1.39 0.27c0.04,-0.12 0.02,-0.24 -0.03,-0.35z"/>
   <path class="fil8" d="M17.62 17.31c0.07,0.04 0.1,0.15 0.12,0.2 0.04,0.09 0.05,-0.01 0.05,0.16l-0.1 -0.16c-0.03,-0.08 -0.07,-0.09 -0.07,-0.2zm5.21 -3.78l0.03 -0.02c0,-0.23 0.02,-0.18 -0.14,-0.24 -0.06,-0.02 -0.03,-0.02 -0.09,-0l0.08 0.11 -0.05 0.12c0.13,0 0.07,-0.03 0.16,0.03 -0.03,0.12 -0.27,0.08 -0.33,0.31 -0.04,-0.01 -0.02,0 -0.04,-0.02l-0.3 -0.53c-0,-0 -0.01,-0.02 -0.01,-0.02 -0.03,-0.05 -0.05,-0.09 -0.11,-0.13l-0.02 -0.01c-0.09,-0.07 -0.19,-0.11 -0.3,-0.14l-0.19 -0.07c-0.03,-0.01 -0.07,-0.02 -0.09,-0.03l-0.2 -0.05c-0.03,-0.01 -0.06,-0.02 -0.1,-0.03l-0.28 -0.09c-0.03,-0.01 -0.02,-0.01 -0.05,-0.02l-0.23 -0.08c-0.07,-0.03 -0.56,-0.22 -0.65,-0.22l0 0.05 0.1 0.02c0,0 0.01,0 0.01,0l0.44 0.17c0.03,0.01 0.03,0.01 0.07,0.01l0.35 0.14c-0.04,0.06 -0.06,0.01 -0.14,-0.02l-0.15 -0.06c-0.23,-0.09 -0.55,-0.18 -0.81,-0.29l-0.07 -0.03c-0.08,-0.03 -0.03,0.02 -0.07,-0.04l0.16 0.04c0.07,0.02 0.02,0.03 0.1,0.01 -0.03,-0.04 -0,-0.01 -0.05,-0.03 -0,-0 -0.01,-0 -0.01,-0l-0.08 -0.03c-0,-0 -0.01,-0 -0.01,-0 -0,-0 -0.01,-0 -0.01,-0.01 -0.03,-0.01 0,-0.02 -0.09,-0.02l0 0.05c-0.04,0 -0.04,0.01 -0.08,0.02 0.02,0.09 0.11,0.09 0.19,0.11 0.04,0.01 0.01,0 0.04,0.01l0.07 0.02c0.04,0.01 0.06,0.02 0.09,0.05 -0.08,0.02 -0.01,0.01 -0.09,-0l-0.85 -0.18c-0.05,-0.01 -0.06,-0.01 -0.11,-0.02 -0.11,-0.03 -0.33,-0.04 -0.39,-0.12 -0.03,-0.04 -0.07,-0.1 -0.09,-0.15 0.05,0 0.08,0.01 0.12,0.03l0.31 0.11c0.08,0.03 0.12,0.04 0.2,0.07 0.15,0.05 0.06,-0.01 0.2,-0.02 0.04,0.01 0.11,0.11 0.28,0.11 -0.02,-0.06 -0,-0.05 -0.05,-0.06l0 -0.03c0.06,-0.01 0.05,0.01 0.07,-0.05 -0.08,0 -0.05,0 -0.1,-0.02 -0,-0 -0.01,-0 -0.01,-0 -0,-0 -0.01,-0 -0.01,-0 -0.25,-0.09 -0.17,-0.13 -0.3,-0.17l-0.51 -0.18c-0.11,-0.03 -0.21,-0.07 -0.32,-0.11 -0.33,-0.11 -0.08,-0.35 -0.67,0.08l-0.07 0.05c-0.24,0.16 -0.05,0.47 -0.01,0.68l0.03 0.61c-0.01,0.1 -0.01,0.09 0,0.18l0.02 0.81c0.01,0.1 -0.03,0.26 0.05,0.34 0.08,0.08 0.06,0.02 0.06,0.16 0,0.12 -0.02,0.46 0.06,0.52l-0.02 -0.27c-0,-0.09 0.03,-0.09 0.03,-0.23l0.02 0c0,0.3 0.02,0.56 0.02,0.87 -0,-0 -0,-0.01 -0.01,-0.01l-0.04 -0.17c-0.01,-0.08 0,-0.13 -0.05,-0.17 0,0.06 -0,0.13 0,0.19 0,0.07 0.02,0.09 0.02,0.17 -0,0.18 -0.03,0.15 -0.16,0.21l-0.28 0.18c-0,0 -0.01,0.01 -0.01,0.01 -0.02,0.02 -0.03,0.03 -0.05,0.05 -0.04,0.04 -0.01,0.01 -0.04,0.06 -0.11,0.19 -0.17,0.42 -0.06,0.63 0.02,0.04 0.04,0.08 0.07,0.12 0.03,0.05 0.04,0.06 0.07,0.1 0.03,0.04 0.05,0.07 0.08,0.11 0.02,0.02 0.03,0.03 0.04,0.06 0.01,0.01 0.01,0.01 0.02,0.03l0.01 0.02c-0.03,0.03 -0,0.02 -0.05,0.03 0,0.07 0.01,0.08 0.04,0.12l0.31 0.44c0,0 0,0.01 0.01,0.01 0.04,0.06 0.06,0.12 0.14,0.13 0,-0.15 -0.04,-0.13 -0.06,-0.24l-0.07 -0.21c0.08,0.02 0.11,0.11 0.16,0.18 0.06,0.08 0.11,0.17 0.2,0.23 0.02,-0.1 -0.08,-0.46 0.03,-0.36 0.01,0.01 0.02,0.03 0.04,0.05 0.06,0.08 0.12,0.22 0.21,0.27 0.02,-0.02 0.02,-0.02 0.05,-0.03 -0.01,-0.11 -0.03,-0.21 -0.03,-0.33 0.06,0.02 0.1,0.11 0.13,0.15 0.03,0.04 0.07,0.14 0.12,0.16 0.12,0.03 0.01,-0.29 0.01,-0.43 0.05,0.01 0.02,0 0.05,0.03 0.07,0.06 0.12,0.16 0.17,0.23 0.04,0.06 0.02,0.05 0.09,0.07 0,-0.12 -0.03,-0.12 -0.03,-0.2 -0.04,0.02 -0.02,0.02 -0.06,0.03l-0.02 -0.06c0.05,-0.02 0.02,0.02 0.04,-0.04 0.02,-0.07 -0.09,-0.33 -0.11,-0.4 -0.02,-0.1 0.01,-0.13 0.05,-0.21l0.31 -0.56c0.09,-0.16 0.18,-0.23 0.06,-0.39 -0.05,0.03 -0.08,0.1 -0.12,0.17l-0.1 0.17c-0.04,0.06 -0.07,0.11 -0.1,0.17 -0.04,0.06 -0.08,0.11 -0.1,0.17l-0.03 0c0.01,-0.1 0.27,-0.57 0.32,-0.68 0.05,-0.11 0.05,-0.09 -0.04,-0.19 -0,-0 -0.01,-0.01 -0.01,-0.01 -0.04,-0.05 -0.04,-0.08 -0.05,-0.16 -0.01,-0.05 -0.01,-0.1 -0.02,-0.17l-0.03 -0.15c-0,-0.03 -0,-0.12 -0.01,-0.16l-0.18 -1.48c-0.01,-0.12 -0.03,-0.2 -0.03,-0.33 0.08,0 0.37,0.08 0.46,0.1l0.45 0.12c0.3,0.08 0.21,0.11 0.44,0.27 0.04,0.03 0.04,0.03 0.07,0.06l0.61 0.51c0.03,0.02 0.05,0.03 0.08,0.06 0.18,0.15 0.07,0.1 0.29,0.13 0.07,0.01 0.37,0.3 0.46,0.36 -0.01,0.16 -0.01,0.19 0.01,0.36 0.09,0.63 0.54,0.4 0.72,0.43 -0.01,0.07 -0.02,0.05 -0.01,0.13 0.01,0.06 0.01,0.08 0.01,0.15 -0.12,0.05 -0.67,0.11 -0.85,0.13 -0.03,0 -0.05,0 -0.06,0l-0.3 0.08c-0.06,0.03 -0.06,0.02 -0.11,0.05 -0.31,0.21 -0.32,0.62 -0.14,0.86 0.09,0.11 0.07,0.08 0.18,0.12l0.04 0.03c0.04,0.03 0.14,0.04 0.19,0.05 0.17,0.02 0.38,-0.03 0.56,-0.07l0.76 -0.19c-0.02,-0.07 -0.09,-0.11 -0.13,-0.17 -0.08,-0.13 -0.1,-0.33 -0.07,-0.5 0.01,-0.08 0.07,-0.13 0.08,-0.21 -0.14,0 -0.53,0.05 -0.65,0.13 -0.08,0.05 -0.16,0.11 -0.18,0.2 -0.05,0.21 0.02,0.41 0.2,0.53 0.06,0.04 0,0.03 0.08,0.03l0 0.03c-0.27,0 -0.42,-0.32 -0.38,-0.55 0.05,-0.3 0.29,-0.35 0.56,-0.4 0.17,-0.03 0.39,-0.08 0.56,-0.08 -0.06,0.09 -0.14,0.12 -0.17,0.26 -0.03,0.12 -0.03,0.27 0,0.37 0.03,0.1 0.07,0.21 0.15,0.27 0.09,0.06 0.16,0.1 0.3,0.11 0.16,0.02 0.59,-0.05 0.75,-0.1l0.51 -0.14c0.11,-0.03 0.08,-0.01 0.12,-0.09 0.06,0.04 0.02,0.04 0.08,0.03 0.02,-0 0.07,-0.02 0.1,-0.03l0.8 -0.23c0.07,-0.03 0.14,-0.03 0.2,-0.06l0.09 -0.04c0.05,-0.02 0.04,-0.02 0.08,-0.05 0.06,-0.06 0.07,-0.07 0.1,-0.15 0.03,-0.07 0.04,-0.15 0.02,-0.24 -0.06,-0.39 -0.22,-0.42 -0.61,-0.37 -0.09,0.01 -0.14,0.02 -0.23,0.03 -0.11,0.02 -0.23,0.04 -0.34,0.05 -0.07,0 -0.04,0 -0.07,-0.04 0.02,-0.08 0.11,-0.09 0.19,-0.09 0.05,-0 0,0.01 0.07,-0.01 0.09,-0.02 0.23,-0.03 0.33,-0.04 0.29,-0.04 0.4,0 0.38,-0.17 -0.02,-0.12 -0.1,-0.74 -0.13,-0.78 -0.02,-0.03 -0.2,-0.13 -0.25,-0.14 -0.1,-0.02 -0.24,0.01 -0.36,0.01l-0.05 -0.27c-0.06,-0.48 -0.02,-0.51 -0.31,-0.54 -0.07,-0.01 -0.08,-0.02 -0.13,-0.03 -0.16,-0.03 -0.49,-0.05 -0.62,-0.08 -0.45,-0.12 -0.37,0.17 -0.37,-0.22l-0.2 -0.09c-0.04,0.07 -0.04,0 0.01,0.1l0.01 0.06c-0,0.02 -0.01,0.05 -0.01,0.07 -0.08,0.03 -0.04,-0.04 -0.07,0.03 0.04,0 0.05,0 0.09,-0.01 0.07,-0.02 0.09,-0.02 0.1,0.08 -0.07,0.02 -0.03,0.02 -0.09,0.05 -0.04,0.02 -0.06,0.01 -0.11,0.04 -0.1,0.05 -0.07,0.05 -0.22,0.05zm-4.93 3.73l0.11 0.18c0.03,0.1 0.1,0.14 0.04,0.18 -0.02,-0.08 -0.05,-0.09 -0.07,-0.12l-0.07 -0.12c-0.01,-0.03 -0.01,-0.07 -0.01,-0.11zm0.33 -0.03c0.06,0.04 0.01,0 0.04,0.07 0.02,0.05 0.03,0.03 0.05,0.06 0.02,0.03 0.01,0.05 0.03,0.08 0.03,0.09 0.05,-0 0.05,0.14 -0.04,-0.03 -0.2,-0.3 -0.16,-0.36zm0.26 -0.06c0.09,0.02 0.03,0.01 0.06,0.07 0.02,0.04 0.03,0.03 0.06,0.09 0.06,0.16 0.07,0.09 0.07,0.2 -0.06,-0.04 -0.01,-0.02 -0.05,-0.07 -0.08,-0.11 -0.03,-0.05 -0.07,-0.12 -0.03,-0.05 -0.06,-0.05 -0.06,-0.17zm0.41 0.22c-0.07,-0.02 -0.04,-0 -0.06,-0.07l-0.09 -0.18c-0.03,-0.05 -0.03,-0.03 -0.03,-0.11l0.01 0.02c0,0 0.01,0.02 0.01,0.02l0.08 0.13c0.02,0.04 0.06,0.05 0.08,0.19zm2.25 -0.31l0 -0.08c0.07,-0.01 0.08,-0.02 0.14,-0.04 0.11,-0.03 0.2,-0.03 0.3,-0.01 -0.03,0.02 0.03,-0 -0.04,0.02 -0.03,0.01 -0.02,0 -0.05,0.01 -0.04,0.01 -0.07,0.01 -0.13,0.02 -0.3,0.04 -0.08,0.04 -0.22,0.07zm-0.13 -0.23c0.05,-0 0.07,-0.01 0.12,-0.02l0.4 -0.04c-0.05,0.06 -0.32,0.07 -0.41,0.08 -0.08,0.01 -0.07,0.04 -0.11,-0.02zm1.85 -0.05c0.08,-0.1 0.31,-0.08 0.41,-0.08l0 0.03c-0.09,0 -0.22,0.05 -0.41,0.05zm-1.93 -0.06l0.26 -0.07c0.09,-0.01 0.19,-0.01 0.3,-0.01l0 0.02c-0.07,0 -0.2,0.03 -0.27,0.04 -0.1,0.01 -0.17,0.02 -0.29,0.02zm1.8 -0.09c0.04,-0.05 0.08,-0.04 0.2,-0.06 0.09,-0.01 0.15,-0.02 0.26,-0.02 -0.06,0.08 -0.36,0.08 -0.46,0.08zm-1.83 -0.09c0.12,-0 0.26,-0.06 0.54,-0.06 -0.04,0.05 -0.01,0.02 -0.09,0.04l-0.32 0.05c-0.14,0 -0.1,0.01 -0.13,-0.03zm1.97 -0.1c0.1,-0.02 0.19,-0.02 0.27,-0.01 -0.01,0.01 -0.01,0.01 -0.03,0.02 -0.07,0.03 -0.41,0.06 -0.48,0.06l0.23 -0.07zm1.9 -0.05c-0.02,0.06 -0.01,0.05 -0.07,0.03 0.01,-0.03 0.03,-0.03 0.07,-0.03zm-3.84 0.03c0.08,-0.06 0.4,-0.08 0.49,-0.08l0 0.03c-0.15,0 -0.21,0.05 -0.49,0.05zm1.33 0.07c-0,-0.15 0.03,-0.06 -0.04,-0.17 0.05,-0.05 0.14,0.03 0.15,0.14 -0.04,0.01 -0.1,0.13 -0.1,0.03zm2.44 -0.23l0.07 0 -0 0.04 -0.06 0.02 0 -0.06zm-2.11 0.08c0.09,-0.06 0.41,-0.08 0.51,-0.08l-0.04 0.02c-0,0 -0.01,0 -0.01,0 -0.19,0.06 -0.25,0.05 -0.45,0.05zm-0.52 0.03c0,0.17 0.03,0.18 0.08,0.23l0.05 0.06c-0.05,-0 -0.05,-0.01 -0.09,-0.03 -0.03,-0.02 -0.04,-0.03 -0.06,-0.05 -0,-0 -0.04,-0.06 -0.04,-0.07 -0.07,-0.13 0.03,-0.29 0.14,-0.32 -0.03,0.04 -0.08,0.11 -0.08,0.17zm-1.05 -0.16c0.07,-0 0.14,-0.02 0.21,-0.03 0.04,-0.01 0.2,-0.02 0.23,0 -0.03,0.1 -0.05,0.05 -0.13,0.05 -0.13,0 -0.12,0.06 -0.31,0.02l0 -0.03zm1.63 -0.05c0.06,-0.01 0.13,-0.02 0.21,-0.04 0.07,-0.01 0.14,-0.01 0.23,-0.01 -0.02,0.01 0.01,0 -0.04,0.03 -0.01,0 -0.04,0.01 -0.05,0.01l-0.35 0.01zm1.27 0.02c-0.01,-0.05 -0.02,-0.04 -0.05,-0.08 0.04,-0.04 0.12,0.01 0.15,0.03 -0.01,0.06 -0.04,0.22 -0.1,0.16 -0.02,-0.02 0.01,-0.05 0,-0.11zm-0.29 -0.11c0.02,-0 0.02,0 0.04,-0l0.04 -0.02c0,-0 0.01,-0.01 0.01,-0.01 0,-0 0.01,-0.01 0.01,-0.01 0.03,-0.03 0.04,-0.04 0.1,-0.05 -0,0 -0.02,0.02 -0.02,0.02 -0.06,0.07 0.04,-0.06 -0.01,0.02 -0.01,0.01 -0.03,0.04 -0.03,0.05 -0.06,0.11 -0.03,0.23 0.07,0.32 0.04,0.03 0.01,-0 0.05,0.04 -0.04,0.02 0.01,0.02 -0.05,0.02 -0.01,0 -0.11,-0.06 -0.15,-0.14 -0.02,-0.05 -0.05,-0.17 -0.05,-0.23zm-0.9 -0.06c0.04,-0.05 0.02,-0.03 0.16,-0.05 0.06,-0.01 0.09,-0.01 0.18,-0.01l0 0.05c-0.08,0.01 -0.26,0.06 -0.34,0.02zm0.51 -0.19l0 0.06 -0.07 0 0 -0.06 0.07 0zm-0.41 0.03c0.02,-0.07 0.01,-0.08 0.1,-0.08 -0.02,0.07 -0.01,0.08 -0.1,0.08zm2.63 -0.1c0.04,-0.04 0.19,0.15 0.02,0.19 0,-0.04 0,-0.08 -0.01,-0.12 -0.01,-0.03 -0.03,-0.05 -0.01,-0.07zm-0.01 0.3c-0.05,0 -0.04,0.01 -0.09,-0.01 -0.15,-0.06 -0.17,-0.36 0.02,-0.38 -0.02,0.06 -0.07,0.09 -0.07,0.12 0,0.24 0.07,0.16 0.11,0.16 -0.02,0.02 -0.01,0.01 -0.02,0.03 -0.01,0.05 0.02,-0.01 0.03,0.08zm-2.06 0.06c-0.04,0.02 -0.03,0.01 -0.08,0l0 0.08c0.05,0.01 0.04,-0 0.05,0.05 -0.04,0.01 -0.05,0 -0.05,0.05 0,0.21 0.12,0.35 0.29,0.39l0 0.03c-0.12,0 -0.16,-0.03 -0.24,-0.1 -0.05,-0.04 -0.09,-0.09 -0.11,-0.16 -0.06,-0.18 -0.08,-0.38 0.06,-0.52 0.06,-0.06 0.11,-0.09 0.2,-0.12 0.2,-0.07 0.35,-0.07 0.55,-0.1 0.21,-0.04 0.99,-0.14 1.16,-0.14l0 0.02c-0.15,0 -0.82,0.15 -1.03,0.18 -0.18,0.03 -0.75,0.08 -0.82,0.24 -0.02,0.05 0,0.05 0.02,0.11zm-5.37 0.12c0,0.25 0.08,0.33 0.22,0.49 0,0 0.01,0.01 0.01,0.01l0.16 0.2c-0.15,-0.01 0,-0.12 -0.34,-0.1 -0.03,0 -0.1,0.01 -0.15,0.01 -0.13,-0 -0.2,0.02 -0.31,0.02l0 -0.03c0.13,0 0.37,-0.07 0.52,-0.08 -0.02,-0.18 -0.24,-0.11 -0.29,-0.11 -0.16,0 -0.27,0.02 -0.43,0.02 0.04,-0.05 0.04,-0.03 0.12,-0.04 0.1,-0.01 0.39,-0.06 0.45,-0.08 -0.01,-0.05 -0.04,-0.09 -0.07,-0.12 -0.11,0.03 -0.43,0.03 -0.57,0.03 0.04,-0.03 0.05,-0.03 0.12,-0.04l0.45 -0.07c0,-0.21 -0,-0.13 -0.29,-0.12l-0.28 0.02c0.04,-0.05 -0,-0.02 0.17,-0.05 0.08,-0.01 0.13,-0.02 0.21,-0.03 0.04,-0.01 0.17,-0.03 0.19,-0.04 0.04,-0.02 0.09,-0.14 0.03,-0.14 -0.17,0 -0.27,0.02 -0.44,0.02 0.06,-0.05 0.27,-0.06 0.36,-0.08 0.19,-0.04 0.18,-0.02 0.31,-0.13 0.07,-0.06 0.07,-0.04 0.13,-0.08 0.04,-0.02 0.03,-0.02 0.07,-0.04 0.16,-0.06 0.11,-0.06 0.25,-0.08 0.08,-0.01 0.12,-0.02 0.2,-0.02 -0.04,0.05 -0.05,0.04 -0.13,0.05 -0.09,0.02 -0.06,0.04 -0.13,0.06 -0.17,0.06 -0.33,0.11 -0.45,0.26 -0.06,0.08 -0.11,0.2 -0.11,0.32zm4.36 -0.64c0.07,-0.04 0.04,-0.06 0.15,-0.08l1.34 -0.14c-0.05,0.04 -0.08,0.03 -0.17,0.04l-1.26 0.17c-0.04,0.15 0.02,0.09 -0.03,0.16 -0.01,-0.05 -0.03,-0.11 -0.03,-0.16zm2.19 -0.28c-0.01,0.07 0.02,0.03 -0.04,0.07l-0.03 -0.03c0.01,-0.03 0.03,-0.03 0.07,-0.03zm-1.75 0.05c0.02,-0.02 0.13,-0.14 0.13,-0.03 0,0.04 -0.08,0.03 -0.13,0.03zm0.41 -0.06c0,-0.05 0.03,-0.04 0.07,-0.06 0.09,0.16 -0.07,0.13 -0.07,0.06zm0.44 -0.34l-0.04 0.03c-0.05,-0.03 -0.03,0.01 -0.03,-0.06 0.08,0.01 0.03,-0.02 0.07,0.03zm-1.02 -0.1c0,-0.05 0.11,-0.06 0.17,-0.07 0.14,-0.02 0.52,-0.09 0.61,-0.07 0.06,0.26 0.05,0.23 -0.18,0.27 -0.22,0.03 -0.08,0.07 -0.2,0.08 -0.02,-0.08 -0.05,-0.04 -0.15,-0.03 -0.19,0.02 -0.26,0.06 -0.26,-0.17zm-4.74 -0.36c0.13,-0.03 0.06,-0.11 0.1,-0.28 0.04,0.04 0.06,0.19 0.1,0.3l0.12 0.44c0.02,0.06 0.02,0.1 0.03,0.16l0.09 0.29c-0.15,0.1 -0.14,0.07 -0.3,0.15 -0.06,0.03 -0.11,0.08 -0.12,-0.02 -0.01,-0.06 0.01,-0.14 -0,-0.22 -0.04,-0.27 -0.01,-0.53 -0.01,-0.82zm5.81 0.37c-0.02,-0.07 -0.03,-0.15 -0.04,-0.21 -0,-0.02 -0.02,-0.1 -0.02,-0.1 0.01,-0.05 0.01,-0.03 0.07,-0.04 0.06,-0.01 0.4,-0.07 0.4,0.04 0,0.1 0.01,0.12 -0.04,0.19 -0.07,0.11 -0.09,0.12 -0.37,0.12zm0.59 -0.33c0,-0 0,-0.01 0.01,-0.01l0.04 -0.04c0.03,-0.01 0.05,-0.01 0.09,-0.01 0.09,-0.01 0.06,-0.02 0.15,0l0.05 0.17c0,0.03 -0.08,0.08 -0.13,0.08 -0,0 -0.17,-0.09 -0.2,-0.19zm-2.61 0.27c0,-0.06 0.04,-0.04 -0.03,-0.11 -0.06,-0.06 -0.24,-0.19 -0.26,-0.27l0.18 0.12c0.06,0.04 0.1,0.09 0.18,0.11 0.15,-0.13 0.16,-0.11 0.44,-0.11 -0.11,0.09 -0.29,-0.01 -0.41,0.17 -0.09,0.14 -0.02,0.28 -0.02,0.48 -0.05,-0.06 -0.08,-0.33 -0.08,-0.41zm-3.38 -0.33c0,-0.06 0.01,-0.06 0.03,-0.09 0.06,0.02 0.07,0.07 0.07,0.06 0,-0 0.01,0 0.01,0.01 -0.07,0 -0.07,0.01 -0.11,0.03zm6.8 -0.11c-0.01,-0.02 0,-0.01 -0.01,-0.03l-0.16 0c0.08,-0.11 0.3,-0 0.36,0.04 0.08,0.06 0.11,0.62 0.11,0.74l-0.02 0c0,-0.06 -0.01,-0.22 -0.08,-0.22 -0.13,0 -0.21,0.03 -0.26,0 0.06,-0.01 0.09,-0.02 0.16,-0.04 0.08,-0.01 0.12,0.01 0.13,-0.06 -0.12,0 -0.19,0.02 -0.29,0.02 0.03,-0.04 0.06,-0.03 0.13,-0.05 0.05,-0.01 0.07,-0.03 0.13,-0.03l0 -0.06c-0.15,0 -0.22,0.02 -0.28,-0.02 0.05,-0 0.25,-0.03 0.28,-0.05 -0.02,-0.08 -0.04,-0.04 -0.28,-0.02l0 -0.03c0.07,-0.01 0.3,-0.03 0.25,-0.12 -0.03,-0.06 -0.1,-0.06 -0.16,-0.05 -0,-0 -0,-0.01 -0,-0.01l-0 -0.02c-0,-0 -0,-0.01 -0,-0.01zm-1.02 0.02c-0.54,0.04 -0.44,0.1 -0.48,-0.15l-0.03 -0.29c0.01,-0.23 -0.07,-0.44 0.29,-0.39 0.14,0.02 0.11,0.09 0.13,0.22l0.08 0.61zm-1.47 0.08c0,-0.1 -0.01,-0.08 -0,-0.17 0.04,-0.37 -0.04,-0.46 0.24,-0.55 0.08,-0.03 0.37,-0.18 0.43,-0.18 0.1,0 0.04,0.31 0.06,0.41 0.01,0.07 0.02,0.15 0.02,0.2 0.06,0.5 0.06,0.44 -0.13,0.46 -0.19,0.02 -0.44,0.07 -0.61,0.07l0 -0.23zm1.68 -0.12c-0.01,-0.02 -0.11,-0.66 -0.09,-0.72 0.07,0 0.21,0 0.25,0.04 0.03,0.03 0.04,0.18 0.05,0.24l0.06 0.37c0.01,0.05 0.01,0.07 -0.03,0.09 -0,0 -0.19,0.06 -0.23,-0.02zm-2.62 0.21c-0.04,0 -0.05,-0.03 -0.08,-0.05 -0.03,-0.02 -0.03,-0.02 -0.06,-0.05l-0.26 -0.22c-0.06,-0.07 0.02,-0.09 -0.06,-0.17 -0.09,-0.1 -0.47,-0.35 -0.5,-0.45 0.05,0 0.15,0.04 0.21,0.05 0.07,0.02 0.12,0.03 0.19,0.05 0.3,0.07 0.29,0.05 0.41,0.2 0.03,0.04 0.03,0.03 0.05,0.07l0.19 0.29c0.09,0.14 0.15,0.16 0.01,0.22 -0.13,0.06 -0.02,0.05 -0.1,0.05zm-0.77 -0.59c-0.06,-0.01 -0.43,-0.25 -0.46,-0.28 -0.12,-0.1 -0.22,-0.11 -0.24,-0.19 0.07,0 0.19,0.04 0.23,0.07 0.16,0.13 0.2,0.13 0.25,0.19 0.05,0.06 0.04,0.05 0.15,0.13 0.05,0.04 0.04,0.02 0.07,0.07zm1.49 0.42c0,-0.04 0.02,-0.04 0.04,-0.07 0.05,-0.07 0.03,-0.12 0.04,-0.24 0,-0.05 0.05,-0.26 0.08,-0.31 0.07,-0.1 0.46,-0.25 0.58,-0.29 0.05,-0.02 0.03,-0.02 0.08,-0.05 0.03,-0.01 0.04,-0.01 0.08,-0.02 0.2,-0.06 0.01,-0.05 0.22,-0.02l0.7 0.1c0.2,0.04 0.03,0.01 0.15,0.01 0.05,0 -0.04,0.03 0.16,0.03l0 0.03c-0.1,0 -0.19,-0.01 -0.28,-0.03 -0.23,-0.04 -0.11,0.06 -0.11,0.12 0,0.06 -0.02,0.07 -0.01,0.12 0.03,0.22 0.03,0.04 0.03,0.35l-0.03 -0.07c-0.04,-0.17 -0.06,-0.36 -0.1,-0.56 -0.28,0 -0.4,-0.06 -0.56,-0.06 -0.04,0.15 -0,0.44 0.03,0.58l0.06 0.59c-0.05,-0.05 -0.02,-0.06 -0.04,-0.14l-0.11 -0.72c-0.03,-0.33 0.04,-0.34 -0.25,-0.22l-0.43 0.18c-0.09,0.03 -0.12,0.06 -0.15,0.15l-0.06 0.26c-0.01,0.1 -0.02,0.17 -0.02,0.28 0,0.13 -0.02,0.15 -0.01,0.27 0.01,0.1 0.02,0.17 0.02,0.28l-0.02 0c0,-0.1 -0.04,-0.22 -0.05,-0.31 -0.01,-0.05 0.01,-0.13 0,-0.15 -0.01,-0.04 -0.07,-0.04 -0.07,-0.1zm-4.67 -0.25c-0.04,-0.03 -0.04,-0.06 -0.05,-0.11l-0.02 -0.74c-0.01,-0.09 -0.01,-0.17 -0.01,-0.28 0.06,0.05 0.08,0.14 0.1,0.23 0.02,0.1 -0.02,0.72 -0.02,0.91zm1.6 -0.92c0,-0.04 0.01,-0.04 0.02,-0.08 0.05,0.03 0.08,0.07 -0.02,0.08zm-0.18 -0.41c0,-0.07 0.05,-0.03 0.08,-0.02l0 0.03 0 0.05 -0.08 0 0 -0.06zm-1.26 0.02c0,-0.07 -0,-0.07 0.07,-0.08 -0.01,0.06 -0.01,0.06 -0.07,0.08zm1.62 -0.02c0,-0 0.02,-0.04 0.02,-0.04 0.02,-0.02 0.08,-0.02 0.11,-0.02 -0.02,0.06 -0.04,0.07 -0.09,0.09l-0.04 -0.03zm-0.15 -0.19l0 -0.03c0.15,0 0.47,0.09 0.61,0.12 0.05,0.01 0.09,0.01 0.12,0.02 0.26,0.07 0.72,0.14 0.95,0.2 0.3,0.09 0.69,0.09 0.87,0.26 0.07,0.06 0.08,0.08 0.12,0.16l0.24 0.41c0.06,0.11 0.15,0.23 0.15,0.32 0,0.14 -0.08,-0.02 -0.11,-0.07 -0.03,-0.06 -0.07,-0.11 -0.1,-0.17 -0.02,-0.03 -0.03,-0.06 -0.05,-0.09 -0.01,-0.02 -0.02,-0.03 -0.03,-0.05l-0.11 -0.19c-0,-0 -0.01,-0.02 -0.01,-0.02 -0.03,-0.05 -0.03,-0.05 -0.06,-0.09l-0.1 -0.15c-0,-0 -0.01,-0.01 -0.02,-0.01 -0.03,-0.03 -0.04,-0.03 -0.08,-0.05 -0.05,-0.03 -0.14,-0.06 -0.22,-0.07 -0.22,-0.03 -0.19,-0.05 -0.21,-0.01 -0.07,-0.05 0.01,-0.03 -0.09,-0.07l-0.26 -0.06c-0.06,-0.01 -0.05,-0.02 -0.12,-0.03 -0.08,-0.02 -0.17,-0.03 -0.25,-0.06 -0.05,-0.01 -0.08,-0.02 -0.13,-0.03l-0.18 -0.05c-0.03,-0.01 -0.04,-0.01 -0.07,-0.01l-0.74 -0.18c-0.04,-0.01 0.02,-0.01 -0.06,-0.02 -0.02,-0 -0.05,-0 -0.07,-0zm-0.8 0.3c0.03,0.23 0.3,2.08 0.29,2.2l-0.01 0.02 -0.1 -0.39c-0,-0.04 -0.01,-0.06 -0.02,-0.1 -0.01,-0.05 -0.01,-0.07 -0.01,-0.12l-0.17 -1.1c-0.03,-0.22 -0.08,-0.77 -0.19,-0.96 -0.03,-0.04 -0.01,-0 -0.03,-0.04 -0.05,-0.07 -0.01,-0.06 -0.06,-0.13l-0.12 -0.26c-0.03,-0.06 -0.06,-0.09 -0.06,-0.19l0.03 0c0.02,0.07 0.02,0.05 0.05,0.09 0.02,0.03 0.02,0.05 0.05,0.08 0.02,0.03 0.03,0.04 0.05,0.08 0.14,0.25 0.12,0.09 0.14,0.22 0.02,0.13 0.11,0.07 0.17,0.59zm0.31 -0.89c-0.08,0 -0.12,-0.01 -0.19,-0.04l-0.07 -0.02c-0.18,-0.04 -0.3,-0.04 -0.34,-0.17 0.08,0 0.12,0.03 0.19,0.05l0.2 0.07c0.03,0.01 0.01,0 0.03,0.02l0.02 0.01c0.08,0.03 0.1,0.05 0.16,0.05l0 0.03z"/>
  </g>
 </g>
</svg>
