<?xml version="1.0" encoding="UTF-8"?>
<!DOCTYPE svg PUBLIC "-//W3C//DTD SVG 1.1//EN" "http://www.w3.org/Graphics/SVG/1.1/DTD/svg11.dtd">
<!-- Creator: CorelDRAW -->
<svg xmlns="http://www.w3.org/2000/svg" xml:space="preserve" width="33.8667mm" height="16.9333mm" version="1.1" style="shape-rendering:geometricPrecision; text-rendering:geometricPrecision; image-rendering:optimizeQuality; fill-rule:evenodd; clip-rule:evenodd"
viewBox="0 0 94.18 47.09"
 xmlns:xlink="http://www.w3.org/1999/xlink"
 xmlns:xodm="http://www.corel.com/coreldraw/odm/2003">
 <defs>
  <style type="text/css">
   <![CDATA[
    .fil4 {fill:#00DB03}
    .fil0 {fill:#010001}
    .fil5 {fill:#020203}
    .fil2 {fill:#FD0001}
    .fil6 {fill:#FDFDFD}
    .fil3 {fill:#FEFE00}
    .fil1 {fill:#FEFEFE}
   ]]>
  </style>
 </defs>
 <g id="Camada_x0020_1">
  <metadata id="CorelCorpID_0Corel-Layer"/>
  <g id="_2475191110432">
   <path class="fil0" d="M72.51 37.93c-1.01,-3.75 2.14,-6.91 6.25,-7.69 4.87,-0.93 9.17,1.89 9.93,4.77 2.32,8.77 -14.1,10.6 -16.18,2.92zm-36.35 -12.29l-7.12 0.72 -1.21 3.39 6.39 -0.87 -0.65 3.99c-0.03,0.05 -0.07,0.14 -0.13,0.2l-6.67 1.1 -0.56 2.36 7.23 -0.78 -0.36 5.72c-3.86,0.2 -11.27,1.37 -14.35,2.14 -0.18,-3.13 2.59,-10.71 2.8,-14.71 -1.45,0.73 -3.59,3.01 -7.67,5.17 -2.42,1.28 -2.29,0.7 -2.8,3.26 -0.3,1.55 -0.6,3.16 -0.81,4.9l-6.26 1.38 4.92 -21.82c2.88,-1.11 10.2,-2.04 13.56,-0.88 1.51,0.52 0.92,0.58 3.25,0.32 2.56,-0.28 8.9,-1.21 10.57,-1.1 0.46,0.74 -0.04,3.91 -0.12,5.5zm33.48 16.62l-8.28 1.49 0.37 -3.77c-2.03,0.41 -1.89,-0.36 -2.69,0.74 -1.44,2 1.43,2.08 -4.69,2.79 -1.52,0.18 -2.57,0.39 -4.21,0.42l2.54 -5.7c-1.98,1.37 -6.06,7.06 -12.96,6.05 -12.14,-1.77 -3.33,-24.03 9.25,-24 3.05,0.01 5.51,1.8 5.94,3.77l-3.89 3.28c-1.59,-0.19 -2.22,-0.85 -4.04,-0.3 -3.12,0.94 -5.43,5.07 -6.17,7.24 -2.47,7.27 7.1,5.78 8.23,1.22l-4.68 0.64c-0.76,-1.33 0.85,-4.23 0.9,-4.26 0.32,-0.22 8.54,-1.72 10,-1.64l0.43 0.06c1.28,0.13 -0.86,0.52 0.48,0.04l3.31 -8.59c2.52,-0.36 9.98,-1.55 12.08,-1.41 -1.65,3.64 -1.62,17.34 -1.92,21.96zm-18.28 -27.31c-3.39,7.84 -14.89,6.94 -10.99,-2.51 3.14,-7.61 12.36,-10.07 12.6,-1.49 2.25,-1.77 3.82,-4.82 8.73,-4.6 1.06,1.33 0.88,1.93 0.82,3.83l-2.86 1c-1.72,-0.38 0.02,-0.02 -0.89,-0.4 -0.61,-0.25 -0.17,-0.23 -1.06,-0.37 -0.95,0.62 -1.6,0.85 -1.5,2.13 2.33,0.1 3.2,-0.54 5.11,0.02 3.73,2.11 -3.69,9.01 -8.76,7.39 -0.56,-0.34 -0.38,-0.8 0.06,-1.58 1.07,-1.91 1.35,-1.54 2.18,-1.58l1.75 -0.1c1.31,-0.28 1.68,-0.54 1.98,-1.39 -2.98,-0.81 -1.68,1.05 -7.17,-0.37zm-23.03 -6.93c0.3,-1.19 0.08,-1.1 1.53,-1.4 1.12,-0.23 5.45,-0.59 6.82,-0.57l-0.47 3.28c-3.85,0.28 -4.27,-0.19 -4.73,2.29l3.59 -0.38 -0.08 2.44c-4.41,0.68 -4.16,0.21 -4.4,1.65 0.48,0.2 0,0.12 0.9,0.21 1.13,0.11 1.65,-0.18 3.17,-0.22 -0.03,1.13 0.2,2.51 -0.43,3.34l-8.35 1.08 2.44 -11.72zm2.72 -1.96c0.57,-1.87 0.46,-2.36 3.13,-2.68 -0.19,0.63 -0.51,1.11 -0.96,1.75 -0.6,0.85 -0.63,0.85 -2.18,0.93zm58.78 10.62c-0.69,-0.53 -1.46,-2.02 -1.61,0.69 1.67,0.06 0.89,-0.15 1.2,0.29 -2.7,-0.69 -4.28,-1.62 -4.99,-0.7 10.66,4.53 4.44,12.43 -2.4,12.54 -4.53,0.08 -8.01,-2.65 -8.36,-5.45 -0.51,-3.98 1.98,-5.8 5.59,-7.1 -0.78,-1.47 0.03,0.36 -2.13,-1.2l-4.58 -6.94c0.06,0.05 0.21,0.24 0.25,0.19 0.05,-0.05 0.17,0.14 0.27,0.2 0.11,-1.76 0.15,-0.36 0.91,-1.96l3.07 -2.95c-0.1,-1.06 0.33,-0.93 -0.7,-1.36 2.81,0.87 3.07,-0.28 5.51,-0.36 1.69,-0.06 4.09,-0.35 5.77,0.17 -0.12,-0.01 -0.44,-0.17 -0.06,0.57 0.48,0.92 0.67,0.5 1.7,1.33 0.91,0.73 0.01,-0.08 0.39,0.49 1.07,1.58 -0.72,-0.84 0.28,0.44l1.3 1.53c0.04,0.06 0.09,0.13 0.13,0.18l0.91 2.36c-0.24,0.97 -0.65,3.16 -1.3,3.91l-1.3 1.17c-0.04,-0.05 -0.16,0.13 -0.23,0.2 1.73,0.97 -0.23,0.51 1.43,0.96 2.44,-0.53 4.57,-5.8 2.49,-9.64 -3.8,-7.04 -17.52,-7.32 -21.46,0.25 -2.26,4.34 0.1,6.9 2.51,9.69 -2.53,1.88 -2.36,1.24 -7.72,2.03 -1.4,0.21 -1.81,0.38 -2.58,0.14 -0.32,-0.68 1.97,-1.96 1.48,-5.1 -0.28,-1.79 2.32,-8.69 -4.03,-9.5 -3.07,-0.39 -5.05,1.03 -6.6,1.78 -2.12,-1.01 -3.18,-3.35 -8.46,-2.23 -4.04,0.85 -4.38,2.68 -6.76,3.87l0.46 -3.8c-1.18,-0.58 -1.14,-0.05 -1.36,-0.46 -0.04,-0.08 -0.19,-0.05 -0.38,-0.11l1.71 -2.77 -10.32 1.41c-0.7,0.75 -0.71,1.25 -1.12,1.99 -0.91,1.64 -0.64,0.59 -2.31,1.14 -1.4,0.47 -1.26,2.88 -1.53,4.12 -0.67,3.05 -1.58,6.3 -1.9,9.34 -1.68,0.08 -3.33,-0.29 -5.49,-0.2 -3.76,0.15 -10.1,1.55 -13.47,2.48 1.83,2.51 1.26,2.81 0.53,6.09 -1.21,5.38 -4.48,16.53 -4.56,20.72l13.14 -2.89c0.47,-0.84 0.64,-3.68 0.83,-4.87 0.39,-2.4 0.24,-2.55 2.84,-3.55l-2.44 11.12c1.98,0.02 6.97,-1.23 9.11,-1.6 3.09,-0.54 6.44,-1.09 10.08,-1.12 0.85,1.02 2.26,1.87 4.36,2.39 3.06,0.75 4.79,-0.09 6.5,0.15 0.09,0.01 0.19,0.05 0.28,0.06 3.36,0.65 6.44,-0.7 12.23,-0.99 0.06,0.06 0.12,0.15 0.15,0.19l0.65 0.94c2.29,-0.16 6.01,-1.01 8.28,-1.42 9.32,-1.68 5.13,-1 7.65,-1.89 10.8,6.02 24.95,-3.98 15.27,-13.49 5.1,-3.39 6.53,-9.38 0.9,-13.45zm-8.6 -12.77c1.68,-0.25 3.73,-0.16 4.78,0.58 7.95,2.3 4.59,12.33 -4.26,11.31 -8.93,-1.03 -9.33,-10.38 -0.52,-11.89zm-1.99 13.03c1.71,-0.3 3.47,-0.28 5.17,0.01 0.71,-0.92 2.3,0.01 4.99,0.7 -0.3,-0.44 0.48,-0.23 -1.2,-0.29 0.16,-2.71 0.92,-1.22 1.61,-0.69 0.93,-0.32 0.53,-0.11 1.01,-0.8 -1.66,-0.45 0.3,0.01 -1.43,-0.96 0.07,-0.07 0.19,-0.25 0.23,-0.2l1.3 -1.17c0.65,-0.75 1.06,-2.95 1.3,-3.91l-0.91 -2.36c-0.04,-0.06 -0.09,-0.13 -0.13,-0.18l-1.3 -1.53c-1,-1.28 0.79,1.14 -0.28,-0.44 -0.39,-0.57 0.52,0.24 -0.39,-0.49 -1.03,-0.83 -1.22,-0.41 -1.7,-1.33 -0.38,-0.74 -0.05,-0.58 0.06,-0.57 -1.68,-0.52 -4.08,-0.23 -5.77,-0.17 -2.44,0.08 -2.7,1.23 -5.51,0.36 1.03,0.43 0.6,0.3 0.7,1.36l-3.07 2.95c-0.76,1.59 -0.8,0.19 -0.91,1.96 -0.1,-0.06 -0.22,-0.25 -0.27,-0.2 -0.04,0.05 -0.2,-0.15 -0.25,-0.19l4.58 6.94c2.16,1.56 1.35,-0.26 2.13,1.2z"/>
   <path class="fil1" d="M63.56 26.66c0.02,-0.1 0.09,-0.12 0.3,-0.16l-1.38 9.21 -1.83 0.23 2.92 -9.28zm6.07 15.59c0.3,-4.61 0.27,-18.32 1.92,-21.96 -2.1,-0.14 -9.56,1.05 -12.08,1.41l-3.31 8.59c-1.34,0.47 0.8,0.08 -0.48,-0.04l-0.43 -0.06c-1.45,-0.07 -9.68,1.42 -10,1.64 -0.05,0.04 -1.66,2.93 -0.9,4.26l4.68 -0.64c-1.13,4.57 -10.7,6.05 -8.23,-1.22 0.74,-2.17 3.05,-6.3 6.17,-7.24 1.82,-0.55 2.45,0.11 4.04,0.3l3.89 -3.28c-0.43,-1.98 -2.89,-3.77 -5.94,-3.77 -12.58,-0.02 -21.39,22.24 -9.25,24 6.9,1.01 10.98,-4.68 12.96,-6.05l-2.54 5.7c1.63,-0.02 2.68,-0.24 4.21,-0.42 6.12,-0.71 3.24,-0.79 4.69,-2.79 0.8,-1.1 0.66,-0.33 2.69,-0.74l-0.37 3.77 8.28 -1.49z"/>
   <path class="fil1" d="M13.85 26.74c1.14,-0.3 2.45,-0.7 3.69,-0.24 0.65,1.35 -3.03,3.02 -4.66,3.48l0.97 -3.24zm22.31 -1.1c0.08,-1.59 0.59,-4.76 0.12,-5.5 -1.67,-0.11 -8.01,0.83 -10.57,1.1 -2.33,0.25 -1.74,0.19 -3.25,-0.32 -3.37,-1.15 -10.68,-0.23 -13.56,0.88l-4.92 21.82 6.26 -1.38c0.21,-1.74 0.51,-3.34 0.81,-4.9 0.5,-2.56 0.38,-1.98 2.8,-3.26 4.08,-2.16 6.22,-4.44 7.67,-5.17 -0.21,4 -2.98,11.58 -2.8,14.71 3.08,-0.78 10.49,-1.94 14.35,-2.14l0.36 -5.72 -7.23 0.78 0.56 -2.36 6.67 -1.1c0.06,-0.06 0.1,-0.16 0.13,-0.2l0.65 -3.99 -6.39 0.87 1.21 -3.39 7.12 -0.72z"/>
   <path class="fil1" d="M48.56 10.16c2.39,2.59 -0.63,8.3 -4.02,6.85 -1.67,-0.71 -0.87,-2.79 -0.17,-4.01 0.83,-1.42 1.68,-2.76 4.18,-2.85zm2.8 4.79c5.49,1.41 4.19,-0.44 7.17,0.37 -0.3,0.86 -0.67,1.11 -1.98,1.39l-1.75 0.1c-0.84,0.03 -1.11,-0.33 -2.18,1.58 -0.44,0.78 -0.62,1.24 -0.06,1.58 5.08,1.62 12.5,-5.28 8.76,-7.39 -1.92,-0.56 -2.78,0.08 -5.11,-0.02 -0.09,-1.27 0.55,-1.51 1.5,-2.13 0.89,0.14 0.45,0.12 1.06,0.37 0.91,0.37 -0.83,0.02 0.89,0.4l2.86 -1c0.06,-1.9 0.24,-2.5 -0.82,-3.83 -4.91,-0.22 -6.48,2.83 -8.73,4.6 -0.23,-8.58 -9.45,-6.13 -12.6,1.49 -3.9,9.45 7.6,10.35 10.99,2.51z"/>
   <path class="fil2" d="M72.51 37.93c2.07,7.68 18.5,5.85 16.18,-2.92 -0.76,-2.89 -5.06,-5.7 -9.93,-4.77 -4.1,0.78 -7.26,3.94 -6.25,7.69z"/>
   <path class="fil3" d="M79.25 16.94c-3.61,1.31 -6.09,3.12 -5.59,7.1 0.36,2.8 3.83,5.53 8.36,5.45 6.84,-0.11 13.06,-8.01 2.4,-12.54 -1.7,-0.29 -3.47,-0.31 -5.17,-0.01z"/>
   <path class="fil1" d="M25.88 19.74l8.35 -1.08c0.63,-0.83 0.4,-2.21 0.43,-3.34 -1.52,0.04 -2.05,0.33 -3.17,0.22 -0.9,-0.09 -0.42,-0.01 -0.9,-0.21 0.23,-1.44 -0.01,-0.97 4.4,-1.65l0.08 -2.44 -3.59 0.38c0.46,-2.48 0.88,-2.01 4.73,-2.29l0.47 -3.28c-1.36,-0.02 -5.7,0.35 -6.82,0.57 -1.45,0.29 -1.23,0.21 -1.53,1.4l-2.44 11.72z"/>
   <path class="fil4" d="M86.02 4.48c-1.05,-0.73 -3.1,-0.83 -4.78,-0.58 -0.53,1.27 0.26,0.29 -1.13,1.3 1.22,0.01 1.34,0.14 2.2,0.5 0.48,-1.09 0.2,-0.76 0.13,-0.77 2.33,0.6 -1.55,-0.5 0.7,0.23 2.1,0.68 1.53,1.04 1.7,0.64 0.01,-0.03 0.07,0.05 0.12,0.09l-6.9 -0.1 1.18 2.88c0.27,0.9 0.12,1.96 0.12,2.91 -0.02,-0.48 -0.12,-2.47 -0.12,-3.62l-2.46 0.41c-1.13,0.28 -0.82,0.33 -1.22,2.04 1.64,-0.27 1.04,-0.13 2.1,-0.59 0,2.7 -1.6,0.65 -0.8,3.12 1.33,-0.18 0.57,0.46 1.59,-0.78 1.7,1.29 1.69,0.63 2.02,0.61 1.91,-0.11 -0.11,0.22 2.07,0.29 -0.19,0.17 -0.56,0.34 -0.56,0.34 -0.31,0.29 -0.17,-0.19 -0.51,0.66 0.57,0.14 1.08,0.2 1.54,0.47l0.5 0.53c0.02,-0.04 0.06,0.11 0.1,0.17 4.07,-1.26 2,-1.73 1.76,-2.1l-0.28 -4.98c0.53,1.26 0.83,-0.72 0.23,1.66l2.8 -0.03c-0.69,0.94 -1.08,1.92 -0.13,2.77 0.9,-0.5 0.1,0.41 0.97,-0.83 0.91,-1.29 0.45,-1.95 -0.58,-2.93 -0.85,-0.81 -1.53,-2.04 -3.29,-1.45 1.89,-0.84 -0.76,0.96 0.78,-0.91 0.61,-0.74 -0.93,-0.06 0.86,-0.69l-0.73 -1.27zm0 0l0.73 1.27c-1.79,0.63 -0.26,-0.05 -0.86,0.69 -1.54,1.87 1.11,0.07 -0.78,0.91 1.76,-0.59 2.43,0.64 3.29,1.45 1.04,0.98 1.49,1.64 0.58,2.93 -0.87,1.24 -0.07,0.33 -0.97,0.83 -0.95,-0.85 -0.57,-1.83 0.13,-2.77l-2.8 0.03c0.61,-2.38 0.31,-0.4 -0.23,-1.66l0.28 4.98c0.24,0.37 2.31,0.84 -1.76,2.1 -0.04,-0.05 -0.09,-0.21 -0.1,-0.17l-0.5 -0.53c-0.47,-0.28 -0.97,-0.34 -1.54,-0.47 0.34,-0.85 0.2,-0.37 0.51,-0.66 0,-0 0.37,-0.17 0.56,-0.34 -2.18,-0.07 -0.17,-0.41 -2.07,-0.29 -0.33,0.02 -0.32,0.68 -2.02,-0.61 -1.02,1.25 -0.26,0.6 -1.59,0.78 -0.8,-2.47 0.8,-0.43 0.8,-3.12 -1.06,0.47 -0.47,0.32 -2.1,0.59 0.4,-1.71 0.1,-1.76 1.22,-2.04l2.46 -0.41c0,1.14 0.1,3.14 0.12,3.62 0,-0.95 0.15,-2.02 -0.12,-2.91l-1.18 -2.88 6.9 0.1c-0.05,-0.04 -0.11,-0.12 -0.12,-0.09 -0.17,0.4 0.4,0.04 -1.7,-0.64 -2.24,-0.73 1.64,0.37 -0.7,-0.23 0.07,0.01 0.36,-0.32 -0.13,0.77 -0.86,-0.37 -0.97,-0.49 -2.2,-0.5 1.39,-1.01 0.6,-0.03 1.13,-1.3 -8.81,1.51 -8.41,10.86 0.52,11.89 8.86,1.02 12.21,-9.01 4.26,-11.31z"/>
   <path class="fil0" d="M48.56 10.16c-2.5,0.09 -3.36,1.43 -4.18,2.85 -0.7,1.21 -1.51,3.29 0.17,4.01 3.39,1.44 6.41,-4.26 4.02,-6.85z"/>
   <path class="fil0" d="M13.85 26.74l-0.97 3.24c1.63,-0.47 5.31,-2.13 4.66,-3.48 -1.24,-0.45 -2.55,-0.05 -3.69,0.24z"/>
   <path class="fil5" d="M60.64 35.94l1.83 -0.23 1.38 -9.21c-0.2,0.05 -0.28,0.07 -0.3,0.16l-2.92 9.28z"/>
   <path class="fil6" d="M31.05 6.05c1.55,-0.08 1.58,-0.08 2.18,-0.93 0.44,-0.64 0.77,-1.12 0.96,-1.75 -2.67,0.32 -2.57,0.81 -3.13,2.68z"/>
  </g>
 </g>
</svg>
