<?xml version="1.0" encoding="UTF-8"?>
<!DOCTYPE svg PUBLIC "-//W3C//DTD SVG 1.1//EN" "http://www.w3.org/Graphics/SVG/1.1/DTD/svg11.dtd">
<!-- Creator: CorelDRAW -->
<svg xmlns="http://www.w3.org/2000/svg" xml:space="preserve" width="64.3349mm" height="48.2455mm" version="1.1" style="shape-rendering:geometricPrecision; text-rendering:geometricPrecision; image-rendering:optimizeQuality; fill-rule:evenodd; clip-rule:evenodd"
viewBox="0 0 156.28 117.2"
 xmlns:xlink="http://www.w3.org/1999/xlink"
 xmlns:xodm="http://www.corel.com/coreldraw/odm/2003">
 <defs>
  <style type="text/css">
   <![CDATA[
    .fil0 {fill:#0E0E0D}
    .fil10 {fill:#898714}
    .fil7 {fill:#932188}
    .fil11 {fill:#959313}
    .fil5 {fill:#B81F93}
    .fil4 {fill:#BA1C6B}
    .fil9 {fill:#C1B72E}
    .fil3 {fill:#C2B82F}
    .fil6 {fill:#C3B92E}
    .fil2 {fill:#DD1C9C}
    .fil8 {fill:#F11B90}
    .fil1 {fill:yellow}
   ]]>
  </style>
 </defs>
 <g id="Camada_x0020_1">
  <metadata id="CorelCorpID_0Corel-Layer"/>
  <g id="_2076161279728">
   <path class="fil0" d="M108.91 16.03l-0.49 0.71 -0.37 -0.72c-1.24,-8.25 -14.68,-9.67 -22.23,-6.52 -1.73,0.72 -5.31,3.25 -5.73,4.56l-0.86 0.55 0.39 -1.24 0.93 -4.96c-4.63,0.01 -30.11,0.48 -33.26,0.87 -1.85,-3.99 -2.47,-5.81 -6.27,-7.72 -3.27,-1.64 -7.81,-1.85 -11.89,-1.31 -8.77,1.14 -12.74,5.44 -15.73,12.14 -2.68,6.03 -5.06,14.47 -6.13,21.69 -0.57,3.87 -1.8,8.55 0.04,11.94 1.7,3.13 4.3,4.38 8.06,5.71 0.87,3.91 1.44,5.33 5.83,5.8 3.75,0.4 7.88,-0.25 11.45,0.11 0.17,1.8 -3.31,13.33 -4.04,15.98 -0.53,1.92 -0.98,1.82 -2.63,2.64 -1.77,0.88 -4.98,2.26 -6.06,3.84 -0.84,1.23 -0.73,1.81 -1.02,2.84 -0.86,3.11 -8.18,0.05 -10.2,1.63 -0.65,0.51 -1.14,3.21 -1.43,4.4l-3.42 13.67c-0.82,3.3 -1.3,5.87 -2.89,8.41 -2.21,3.53 -0.48,5.98 3.61,6.12 6.42,0.21 15.04,-0.61 21.55,-0.93 7.4,-0.36 14.63,-0.51 22.03,-0.78 14.54,-0.53 29.49,-0.87 44.1,-0.99 3.76,-0.03 31,0.03 33.42,-0.54 3.82,-0.9 3.43,-4.13 0.97,-6.98 0.43,-1.56 1.53,-2.47 1.93,-4.5 0.48,-2.41 -0.63,-3.6 -0.16,-5.38 1.68,-6.39 -1.59,-6.73 -1.28,-10.08 4.06,-0.48 12.79,0.53 15.74,-0.26 1.23,-2.54 7.02,-27.3 7.44,-29.79 0.55,-3.23 1.12,-5.5 -1.02,-7.59 -1.15,-1.12 -0.76,-1.64 -0.31,-3.37l4.7 -18.19c1,-3.88 3.62,-11.6 2.11,-15.55 -1.67,-4.37 -7.44,-6.02 -12.89,-4.06 -5.62,2.02 -1.51,1.89 -6.55,0.05 -2.93,-1.07 -4.85,-0.86 -8.02,-0.51 -5.69,0.63 -11.91,0.02 -17.63,0.84l-1.83 7.48z"/>
   <path class="fil1" d="M125.12 12.54c-0.12,-0.51 -0.31,-1.2 -0.35,-1.76 -2,0 -4,0 -6,0 -2.17,0 -3.67,0.18 -5.82,0.18l-3 11.45c-1.32,5.38 -3.22,11.56 -4.59,17.08 -0.2,0.81 -2.12,8.21 -1.83,8.75 0.29,0.53 6.1,0.25 6.6,0.24 0.86,-0.03 0.82,-0.16 1.59,-0.19 1.76,-0.08 -0.1,0.36 2.99,0.36 0.71,0 1.17,-2.75 1.45,-3.84 0.32,-1.3 0.69,-2.76 1.1,-4.19 1.55,-5.45 2.96,-11.85 4.49,-17 0.57,-1.91 0.87,-4.2 2.03,-5.9 0.52,-0.76 0.87,-0.77 2.05,-0.77 0.24,0.89 1,1.16 0.42,3.77 -0.68,3.12 -2.18,8.15 -3.03,11.59 -0.91,3.67 -2.14,7.92 -2.87,11.57l-0.64 3.06c-0.33,0.83 -0.4,-0.03 -0.4,1.36l3.1 0.25c0.95,0.14 2.19,0.19 3.22,0.08 3.98,-0.45 5.02,0.53 5.44,-1.27 0.85,-3.64 1.77,-7.22 2.67,-10.72l4.09 -15.99c0.23,-0.87 0.52,-1.73 0.88,-2.47 0.5,-1.03 0.6,-1.23 2.12,-1.23 1.33,1.71 0.54,3.91 -0.07,6.09 -1.7,6 -2.96,12.27 -4.59,17.97 -0.49,1.73 -1.65,5.72 -1.69,7.3l5.47 0c2.17,0 3.67,-0.18 5.82,-0.18 0.44,-1.87 1.58,-5.06 2.29,-7.93l4.09 -16.35c0.32,-1.3 0.66,-2.73 1.05,-4.06 0.32,-1.14 0.6,-2.31 0.68,-3.45l0 -1.32c-0.11,-1.3 -0.57,-2.51 -1.63,-3.49 -2.79,-2.59 -8.42,-1.47 -11.55,0.89 -0.55,0.41 -1.15,1.01 -1.81,1.18 -0.47,-0.34 -1.61,-1.91 -2.21,-2.37 -2.19,-1.68 -5.97,-1.31 -8.3,-0.37 -1.08,0.43 -2.39,1.46 -3.25,1.69zm-29.99 40.16c-0.78,0.02 -1.25,0.18 -2.29,0.18l-1.69 5.35c-0.53,1.24 -0.78,0.37 -0.78,2.4 1.91,0 1.26,0.08 2.47,0.18 -0.07,3.09 -4.76,17.44 -4.76,20.61 0,1.02 0.24,1.69 0.75,2.25 2.26,2.47 5.54,-0.58 6.43,-1.24 1.9,-1.42 2.4,-2.06 4.46,-2.06 0.89,0 1.82,2.28 2.23,3.05 1.16,2.16 3.09,0.8 6.58,0.82 1.07,0.01 1.76,-0.03 2.48,-0.34 1.33,-0.58 1.73,-1.77 2.22,-3.24 0.7,-2.13 4.65,-14.98 4.65,-17.2 -1.84,-0.43 -4.56,-0.18 -6.71,-0.17 -1.25,0.01 -1.92,-0.33 -3.08,-0.09 -1.35,0.28 -1.23,0.71 -1.58,1.95 -0.86,3.07 -1.95,8.66 -3.1,10.82 -1.11,0 -1.59,0.18 -2.47,0.18 0.16,-1.95 1.1,-5.98 1.65,-7.86l1.39 -5.65c0.04,-0.22 0.14,-0.69 0.26,-0.97 0.25,-0.57 0.23,-0.21 0.4,-0.83l12.53 0.01c2.02,-0.04 1.7,-0.46 2.22,-2.01 0.37,-1.11 0.66,-2.23 0.91,-3.32 0.31,-1.36 0.26,-2.32 -1.14,-2.65 -1.12,-0.27 -6.17,0.05 -8.17,0.05 -5.35,0 -4.45,0.31 -4.41,-1.59 -2.08,-0.05 -3.88,-0.51 -6.88,-0.35 -0.81,0.04 -0.96,0.18 -1.94,0.18 -1.93,-0.01 -2.27,-0.03 -2.65,1.58zm-21.7 23.25c-1.3,0.11 -1.06,0.37 -2.65,0 0,-3.28 2.65,-10.55 3.42,-14.55 0.59,-3.04 0.78,-2.72 3.45,-2.72 -0.17,2.01 -1.4,6.83 -1.9,8.84l-2.33 8.42zm-7.58 8.45l6 0.18c1.01,0.05 1.76,-0.19 2.99,-0.18 1.78,0.01 4.67,-0.01 5.83,-0.52 1.46,-0.64 2.11,-2.06 2.54,-3.81 0.98,-4 3.01,-10.44 4.2,-14.65 1.24,-4.41 2.43,-7.5 2.43,-12.02 0,-2.96 -5.27,-2.29 -7.23,-2.29 -3.31,0 -6.22,-0.17 -9.35,-0.18 -2.83,-0.01 -5.65,0.03 -7.45,2.07 -0.77,0.87 -0.99,2.23 -1.34,3.41l-5.21 18.75c-0.45,1.6 -1.9,6.11 -1.27,7.75 0.84,2.19 5.27,1.48 7.87,1.48zm65.97 -9.16l-3 0 1.75 -4.94c0.3,-0.45 1.08,-0.16 2.66,-0.16 -0.41,1.76 -0.66,3.69 -1.41,5.11zm-10.58 -15.15c0.9,0 1.49,0.18 2.64,0.18l8.64 0.18c0.48,-0.9 1.03,-2.99 3.35,-1.76 0,1.05 -0.03,1.37 -0.22,2.25 -0.47,2.18 0.52,2 -5.78,1.97l-4.77 0.35c-0.73,0.13 -1.39,0.37 -1.96,0.68 -1.22,0.67 -1.82,1.43 -2.58,2.53 -1.21,1.75 -2.7,7.37 -3.4,9.63 -0.62,2 -2.27,6.08 0.34,7.46 2.4,1.27 13.27,0.49 16.62,0.49 2.35,0 4.7,0 7.06,0l5.86 -22.68c0.39,-1.64 1.55,-6.43 1.55,-7.96 0,-3.02 -3.48,-2.82 -5.47,-2.82 -4.52,0 -15.32,-1.13 -18.83,1.81 -1.72,1.44 -1.98,3.7 -2.5,5.43 -0.19,0.64 -0.49,1.58 -0.55,2.27zm-76.2 15.5c-1.07,0 -1.41,0.18 -2.29,0.18 0.06,-0.68 0.38,-1.74 0.59,-2.4 0.29,-0.88 0.62,-1.52 0.82,-2.35 1,-0.02 2.29,-0.6 2.29,0.35 0,0.97 -1.04,3.52 -1.41,4.23zm0.13 9.51l-11.95 0c-1.6,0 -2.48,-0.18 -4.06,-0.18 1.24,-1.85 4.94,-1.83 4.94,-4.23 0,-2.05 -0.77,-5.04 -3,-5.64 0.02,-0.86 6.07,-22.02 6.53,-23.95 2.17,0 3.82,-0.18 5.82,-0.18 2.05,0 3.64,0.18 5.82,0.18 2.81,0 5,-0.17 7.76,-0.18 2.13,-0.01 1.76,-0.06 3.28,0.6 0.93,0.4 0.56,-0.05 1.05,0.89 1.05,1.99 0.65,2.05 -0.17,5.31 -0.74,2.93 -1.3,6.23 -2.89,8.57 -0.53,0.78 -0.68,0.57 -1.1,1.19 0.23,0.85 0.88,1.01 0.88,1.94 0,1.39 -2.78,9.95 -3.35,11.1 -0.84,1.69 -1.58,3.09 -3.35,3.88 -0.93,0.41 -3.38,0.61 -6.22,0.7zm2.16 -20.78c-2.22,0 -1.93,-0.1 -1.17,-2.4 0.31,-0.93 0.81,-1.91 0.99,-2.71 0.6,0.34 1.59,0.18 2.29,0.18 0,1.07 -1.06,4.93 -2.12,4.93zm45.33 -39.63l-2.82 0c0,-1.27 0.73,-4.14 1.21,-5.31 0.19,-0.47 0.24,-0.45 0.49,-0.92 1.46,-2.76 4.28,-0.64 2.51,4.09 -0.19,0.5 -0.78,2.14 -1.39,2.14zm-17.99 15.68c0,2.84 0.31,5.07 2.97,6.9 4.82,3.31 13.1,1.96 17.84,-0.92 1.05,-0.64 3.53,-3.03 4.24,-4.04 1.33,-1.88 3.35,-6.9 3.35,-9.34l-10.58 0c-0.67,0 -0.73,1.12 -1.1,2.43l-1.62 5.43c-0.97,2.46 -4.16,2.39 -4.16,0.6 0,-2.14 0.79,-4.37 1.31,-6.45 0.24,-0.95 0.44,-1.9 0.76,-2.76l1.17 -1.48c0.72,-0.18 6.11,0.1 8.05,-0.06l6.89 -0.34c1.31,-5.63 5.73,-16.85 -4.23,-19.2 -4.95,-1.17 -13.38,-0.37 -16.16,3.25 -1.62,2.11 -2.06,1.75 -3.65,5.86 -1.8,4.64 -5.06,14.92 -5.06,20.13zm-19.05 2.64l-1.06 0c-0.02,-0.8 -0.18,-0.7 -0.18,-1.59 0,-2.67 0.73,-5.57 1.3,-7.86 1.26,-5 2.73,-9.63 3.92,-14.41 0.57,-2.3 1.48,-5.03 1.48,-7.68 -0.89,0.07 -1.48,0.18 -2.65,0.18l-8.64 0.18 -4.2 15.71c-0.68,2.74 -1.33,5.3 -2.01,8.03 -0.98,3.93 -3.31,9.52 -0.1,12.68 3.53,3.48 9.23,0.61 12.31,-1.02 0,0.98 -0.12,1.22 -0.18,1.94 2.01,0 5.52,0.2 7.33,-0.07 3.51,-0.53 4.4,1.06 5.29,-2.11l3.04 -11.94c0.69,-2.75 5.85,-21.75 6.03,-23.92l-9.88 0.18c-2.18,0.12 -2.56,0.46 -3.1,3.6 -0.2,1.16 -0.37,1.66 -0.67,2.68 -1.5,5.2 -2.74,10.71 -4.07,16.02 -0.48,1.92 -0.86,3.46 -1.45,5.25 -0.34,1.03 -1.56,4.16 -2.54,4.16zm-32.28 -0.53c-3.14,0 -1.75,-3.33 -1,-5.93 1.5,-5.15 2.74,-10.81 4.37,-16.07 0.69,-2.22 1.34,-5.91 2.33,-7.89 0.71,-1.41 0.88,-2.17 2.94,-2.17 0.08,0.97 0.26,0.94 0.08,2.19 -0.14,0.95 -0.15,1.43 -0.33,2.32l-1.94 8.28c-1.63,5.71 -2.99,10.3 -4.4,16.04 -0.26,1.05 -1.02,3.24 -2.05,3.24zm-14.46 -1.59c0,6.48 4.54,7.57 9.88,8.81 -0.08,3.6 -2.59,4.93 4.94,4.93 3.81,0 7.05,0.18 10.76,0.18 1.44,-6.16 2.17,-5.22 -2.12,-5.28 -0.91,-0.01 -0.97,-0.14 -1.76,-0.18 -0.61,-0.03 -1.32,0 -1.94,0 -1.53,-2.89 0.39,-1.81 5.35,-4.52 3.52,-1.93 5.16,-8.03 6.15,-12 0.6,-2.38 1.31,-4.85 1.9,-7.26 1.03,-4.13 2.88,-10.79 2.64,-15.14 -0.27,-5.08 -5.8,-7.75 -10.58,-7.75 -5.16,0 -9.56,0.74 -13.66,3.8 -1.63,1.22 -1.52,1.93 -2.51,3.13 -1,1.2 -2.54,4.93 -3.18,6.51 -1.18,2.95 -2.02,5.6 -2.8,8.65 -0.21,0.82 -0.16,0.79 -0.25,1.69l-1.23 4.41c-0.68,2.72 -1.59,7.25 -1.59,10.04z"/>
   <path class="fil2" d="M8.44 95.85l-0.04 0.93c1.95,0.56 1.08,0.97 2.39,2.03 0.7,0.57 2.59,1.08 3.61,1.29l18.04 -0.56 1.02 -4.5c-3.69,-1.01 -13.51,0.84 -17.5,-0.02 -1,-4.59 4.7,-3.64 8.21,-3.68l9.11 -0.13c1.18,-0.01 1.92,0.12 2.48,-0.53 0.56,-0.86 0.76,-3.11 0.4,-4.25 -1.24,-0.23 -24.63,0.42 -25.47,0.67 -0.56,0.91 -2.2,7.48 -2.25,8.76z"/>
   <path class="fil3" d="M111.8 15.31c1.36,-0.96 3.49,-0.37 5.55,-0.41 4.11,-0.08 3.08,-0.22 4.41,1.27 1.31,-0.19 5.5,-3.65 11,-1.02 1.68,0.8 1.1,1.29 2.24,2.4 1.18,-0.13 1.43,-0.73 2.19,-1.34 0.98,-0.79 1.5,-0.8 2.66,-1.19 2.1,-0.71 3,-1.9 6.12,-1.21 1.46,0.32 3.55,1.93 4.1,3.36 1.19,3.09 -1.4,9.35 -1.91,12.48 -0.88,5.38 -3.82,14.2 -4.28,18.06 -1.7,0.27 -3.62,0.06 -4.62,0.57l6.36 -0.2c0.96,-1.4 5.91,-22.24 6.79,-25.74 1.11,-4.43 3.13,-9.33 -1.47,-11.56 -2.09,-1.01 -4.71,-0.85 -6.87,-0.12 -1.13,0.38 -1.84,0.73 -2.81,1.34 -1.04,0.65 -1.45,1.25 -2.39,1.76 -1.37,-1.16 -1.82,-3.7 -6.34,-3.65 -3.72,0.05 -5.04,1.2 -7.45,2.57 -0.3,-0.44 -0.27,-1.36 -0.38,-1.85l-11.8 0.12 -1.09 4.36z"/>
   <path class="fil4" d="M124.26 109.57c-32.39,0.06 -67.91,0.76 -99.54,1.94l-17.64 0.76c-1.18,0.05 -5.31,-0.29 -4.07,1.44 0.77,0.93 5.8,0.23 7.1,0.2 2.62,-0.06 5.11,-0.24 7.72,-0.29 5.15,-0.1 10.28,-0.43 15.44,-0.58l89.89 -1.67c1.85,0.01 2.69,0.3 2.8,-1.47l-1.7 -0.32z"/>
   <path class="fil2" d="M57.44 96.25c1.61,0.6 5.26,0.18 6.95,-0.23 0.24,-0.51 0.53,0.62 0.16,-0.88 -0.07,-1.1 -3.4,-8.14 -4.39,-9.26l-11.68 0c-0.75,1.08 -5.51,19.5 -5.65,21.69l6.5 0.08c0.73,-3.07 3.68,-15.78 4.9,-16.94 1.3,1.17 2.08,4.59 3.22,5.54z"/>
   <path class="fil5" d="M64.55 95.14c0.37,1.5 0.07,0.37 -0.16,0.88 -1.69,0.41 -5.35,0.83 -6.95,0.23 0.6,1.53 5.13,10.5 5.88,11.24l11.07 0.07c0.8,-2.59 5.79,-20.3 5.42,-21.72l-6.41 -0.06c-1.11,3.35 -2.66,15.22 -4.29,16.55 -2.2,-0.53 -2.87,-5.74 -4.55,-7.19z"/>
   <path class="fil6" d="M18.4 9.07c4.63,-2.83 6.84,-2.08 10.76,-1.71 1.49,0.14 2.64,-0.17 4.1,-0.17 5.25,-0.01 8.58,4.23 7.97,9.84 -0.5,4.57 -2.51,9.85 -3.53,14.14 -1.15,4.85 -2.68,9.11 -4.25,13.84 4.33,-1.76 5.74,-9.04 7.11,-14.27 1.37,-5.25 3.34,-12.23 4.01,-17.58 1.87,-15.04 -23.26,-11.55 -26.17,-4.1z"/>
   <path class="fil3" d="M130.58 50.84c1.95,-0.19 4.36,-0.03 6.35,-0.01l4.7 0.04c1.74,0.2 0.53,-0.1 1.13,0.39 -0.59,1.06 -1.28,0.92 -2.79,0.95l-7.21 0.07c-1.5,-0.02 -1.96,0.02 -2.2,-1.44zm-9.19 8.43c0.2,-0.26 0.45,-0.24 0.66,-0.41 0.75,0.48 0.23,0.21 0.69,0.54 0.79,0.55 -0.15,0.07 0.81,0.5 -0.29,-1.23 -0.68,-1.43 -0.61,-2.86 2.38,-1.61 2.33,-2.05 6.55,-2.28 2.91,-0.16 5.95,0.25 8.83,0.12 3.33,-0.16 5.89,-0.93 6.29,2.49 0.13,1.07 0.03,3.05 -0.31,4.01l-1.74 7.37c-0.26,2.21 -0.53,8.93 -2.17,11.06 -0.41,0.54 -1.86,1.4 -2.52,1.89 -1.95,1.44 -9.73,1.21 -12.41,1.16 -0.12,0.28 -0.06,0.19 -0.28,0.49l-0.46 0.55c-0.05,0.05 -0.12,0.13 -0.19,0.2l16.45 -0.03c1.14,-4.11 7.63,-28.09 7.5,-30.59 -0.18,-3.35 -3.56,-2.82 -6.59,-2.88 -4.98,-0.1 -14.62,-0.9 -17.58,1.81 -2.15,1.97 -1.9,3.71 -2.93,6.85z"/>
   <path class="fil7" d="M14.4 100.1c-1.01,-0.21 -2.9,-0.73 -3.61,-1.29 -1.31,-1.06 -0.44,-1.47 -2.39,-2.03l0.04 -0.93c-0.51,0.79 -3.46,12.26 -3.25,13.53 2.58,0.13 25.01,-0.83 25.89,-1.27 0.54,-0.42 0.58,-1.66 0.72,-2.38 0.17,-0.87 0.42,-1.47 0.19,-2.47 -5.32,-0.55 -12.59,0.97 -18.36,0.43 -0.15,-1.54 0.1,-2.36 0.76,-3.58z"/>
   <path class="fil3" d="M64.75 55.39c1.69,-0.89 11.91,-0.24 14.56,-0.19 9.65,0.18 7.79,0.73 4.86,11.89 -1.98,7.55 -1.85,8.98 -4.71,17.06 2.91,-0.49 3.17,-2.35 3.94,-5.1 8.62,-30.71 9.94,-27.9 -4.36,-27.89 -7.84,0 -13.04,-1.39 -14.28,4.24z"/>
   <path class="fil2" d="M119.53 101.04c2.44,0.07 2.98,1.3 6.41,1.04l-0.07 -1.78c0.01,-2.65 -4.44,-2.62 -6.85,-2.7 -1.57,-0.05 -3.15,0.02 -4.71,-0.04 -5.12,-0.18 -4.47,-3.9 3.88,-3.51 2.03,0.09 2.1,0.48 3.69,0.93l4.35 -0.12c1.85,-3.77 -5.46,-3.58 -8.05,-3.6 -4.81,-0.04 -11.95,-0.07 -12.57,5.51 -0.26,2.29 0.45,3.04 2.28,3.64 1.64,0.54 9.74,0.72 11.64,0.61z"/>
   <path class="fil6" d="M64.16 15.96l0.81 -0.72 8.37 0.1c-0.08,3.16 -2.47,9.29 -3,12.98l-4.94 19.3c-0.25,0.76 0.16,0.22 -0.52,0.76l-1.01 0.65c4.97,-0.07 3.43,0.92 6.11,-9.34l4.85 -18.85c0.72,-2.79 2.05,-6.85 2.38,-9.59 -1.95,-0.02 -10.41,-0.19 -11.56,0.32 -0.98,0.58 -1.31,3.33 -1.49,4.4z"/>
   <path class="fil3" d="M60.27 51.66c-1.01,-1.06 -3.86,-0.66 -5.22,-0.61 -5.64,0.24 -11.72,-0.2 -17.45,0.13l-1.05 4.2c1.61,-0.51 11.39,0.02 14.09,-0.03 6.43,-0.11 8.59,-0.84 7.05,6 -0.46,2.03 -1.3,3.42 -1.7,5.41 -0.21,1.06 -0.24,1.99 -0.64,2.93 -0.59,1.41 -0.93,0.79 -0.94,2.76 -0.01,2.47 -0.59,3.81 -1.17,5.88 -1.13,4.06 -1.98,3.7 -1.62,5.85 -1.97,-0.03 -0.26,-0.08 -0.99,0.42 4.1,-1.12 4.92,-6.74 6.63,-12.15 1.41,-4.48 0.35,-3.47 -0.27,-4.97 2.51,-1.58 3.21,-6.42 4.31,-10.58 0.19,-0.71 0.39,-1.35 0.48,-2.09 0.04,-0.3 0.09,-0.81 0.04,-1.1 -0.11,-0.7 0.11,0.14 -0.14,-0.5 -0.25,-0.66 0.01,-0.22 -0.41,-0.63 -0.4,1.02 -5.33,0.48 -6.48,0.41 -3,-0.18 -2.7,-1.35 -5.68,-0.25 -4.23,1.57 -7.08,1.58 -10.78,-1.24 3.62,-0.01 19.73,-0.28 21.93,0.13z"/>
   <path class="fil7" d="M96.48 99.22c-1.36,1.89 0.07,3.95 -3.65,4.23 -6.54,0.48 -8.1,0.36 -7.57,-3.02 0.12,-0.76 0.45,-1.59 0.66,-2.45 -0.7,0.32 -2.48,0.8 -3.33,0.43 -1.08,-0.46 -1.29,-1.05 -1.49,-2.45 -0.05,0.06 -0.03,0.15 -0.12,0.18 -0.09,0.03 -0.09,0.14 -0.11,0.19 -0.84,1.76 -2.08,6.81 -1.86,8.39 0.5,3.58 4.49,2.9 8.02,2.87 10.77,-0.07 13.18,0.88 14.58,-7.52 -1.12,0.56 -0.73,0.63 -2.45,-0.65l-0.61 0.58c-0.8,0.74 -0.75,0.48 -2.31,0.79l0.24 -1.55z"/>
   <path class="fil6" d="M48.75 15.96c1.29,-0.5 7.03,-0.76 8.45,-0.47 0.71,2.36 -1.72,7.48 -2.51,11.45 -0.3,1.52 -0.8,2.14 -1.18,3.68 -0.66,2.63 -0.84,5.38 -1.36,8.14 -0.38,2.03 -1.18,3.66 -1.31,5.88 -0.19,3.49 1.63,2.89 2.7,0.7 1.18,-2.41 1.24,-1.46 2.33,-2.31l-1.36 -0.03c-1.8,-3.91 6.37,-25.66 6.56,-31.37l-11.21 0.24c-0.56,1.06 -0.87,2.9 -1.12,4.11z"/>
   <path class="fil3" d="M82.79 15.19c2.87,-0.8 5.4,-0.83 8.44,-1.1 4.74,-0.42 10.27,4.16 10.88,7.79 0.38,2.26 -0.05,6.94 -0.78,8.59l2.31 -0.12c1.96,-6.43 4.37,-15.1 -1.86,-18.39 -3.53,-1.86 -11.74,-1.57 -15.46,0.25 -1.34,0.66 -2.77,1.67 -3.53,2.97z"/>
   <path class="fil8" d="M81.1 95.95c0.2,1.4 0.41,1.99 1.49,2.45 0.86,0.37 2.63,-0.11 3.33,-0.43 1.62,-2.5 2.45,-2.23 6.06,-2.31 1.2,-0.03 3.15,-0.12 3.95,0.44 1.12,0.79 0.51,1.7 0.54,3.11l-0.24 1.55c1.55,-0.31 1.51,-0.04 2.31,-0.79l0.61 -0.58c1.72,1.28 1.33,1.22 2.45,0.65 2.35,-7.67 1.18,-8.81 -6.86,-8.54 -2.27,0.08 -6.96,-0.13 -8.8,0.28 -2.15,0.48 -4.8,2.07 -4.84,4.15z"/>
   <path class="fil6" d="M106.41 52.39c-1.61,0.44 -5.81,0.81 -7.01,-0.88l6.64 -0.19 0.18 0.76c0.29,-0.36 0.34,0.58 0.25,-0.72 -1.16,-0.48 -7.96,-0.31 -9.83,-0.15 -1.64,0.14 -1.01,0.46 -1.63,1.61l-2.19 0.09 -1.07 3.31 0.54 -0.5c1.19,-0.87 4.02,-0.63 5.48,-0.65 6.64,-0.09 4,0.28 5.61,1.31 1.04,0.66 11.05,0.06 13.38,0.4l0.04 3.38c-2.11,0.58 -8.17,0.12 -10.78,0.28 -0.32,0.02 -0.44,0.02 -0.75,0.1 -0.75,0.2 -0.09,-0.12 -0.6,0.27l13.98 -0.15c3.23,-9.39 2.11,-7.75 -5.44,-7.78l-5.55 0.01c-1.06,-0.05 -1.07,0.23 -1.26,-0.5z"/>
   <path class="fil3" d="M23.37 42.62c-3.56,0.1 -1.6,-4.16 -1.04,-6.38 0.65,-2.55 1.3,-4.81 1.98,-7.44 0.7,-2.72 1.35,-4.97 2.01,-7.35 0.63,-2.26 1.65,-5.29 2,-7.69 -2.59,1.18 -2.19,1.08 -3.12,3.8 -1.94,5.7 -1.6,4.81 -2.95,10.05 -0.26,0.99 -0.64,1.31 -0.84,2.45 -0.2,1.17 -0.31,1.59 -0.52,2.51 -0.76,3.33 -1.92,6.76 -2.81,10.12 -0.34,1.28 -1.4,4.3 1.12,4.28 1.76,-0.01 1.84,-2.22 2.58,-3.93 1.37,-0.26 0.62,0.31 1.6,-0.43z"/>
   <path class="fil7" d="M119.53 101.04c0.28,0.37 2.34,2.09 -1.13,3.07 -5.35,1.52 -8.08,-1.04 -9.63,-1.3 -1.56,-0.26 -4.1,-0.1 -5.17,0.56 -0.75,4.77 9.01,4.12 12.91,3.82 3.61,-0.28 7.37,-0.6 8.92,-3.47 0.62,-1.15 1.18,-2.29 0.44,-3.41l0.07 1.78c-3.43,0.26 -3.97,-0.97 -6.41,-1.04z"/>
   <path class="fil3" d="M115.86 63.3c-0.37,2.77 -4.47,0.61 -8.88,1.49l-0.06 -0.92c-0.04,0.07 -0,0.18 -0.09,0.21l-0.91 3.03c2.71,1.11 4.77,-0.39 7.85,0.13 0.4,2.74 -0.87,6.19 -1.48,8.75 -0.5,2.09 -1.56,5.98 -2.31,7.81 -2.21,0 -5.91,0.79 -7.81,0 0.52,1.14 1.63,0.64 4.15,0.51 5.5,-0.28 5.72,0.57 7.64,-6.4 0.78,-2.83 3.79,-12.25 3.87,-14.46l-1.98 -0.15z"/>
   <path class="fil6" d="M115.09 48.5l7.57 -28.75c-4.31,1.9 -3.7,5.93 -5.76,13.42 -0.29,1.05 -0.59,2.63 -1.04,3.61 -1.36,2.96 -0.34,-0.45 -1.07,3.63 -0.21,1.19 -0.42,2.8 -0.74,3.94 -0.42,1.5 -0.96,2.63 -1.28,4.15l2.31 0z"/>
   <path class="fil6" d="M119.7 47.17c-0.48,0.48 -0.36,-0.17 -0.4,1.05 1.19,0.55 9.62,0.28 11.37,0.08l7.12 -28.03c-3.06,0.68 -3.12,2.53 -3.58,5.61l-5.59 22.11 -9.11 0.15 0.18 -0.95z"/>
   <path class="fil3" d="M90.97 36.89c2.46,0.03 6.25,-0.32 8.42,0.07 0.08,1.9 -1.25,5.43 -1.72,7.43 2.86,-1.94 4.99,-8.21 5.38,-11.36l-11 0.05 -1.08 3.82z"/>
   <path class="fil3" d="M73.32 76c-1.16,0.21 -1.58,0.38 -2.69,-0.06 -0.19,-2.01 2.77,-10.88 3.31,-13.7 -3.71,0.83 -3.26,2.16 -4.5,7.85 -0.43,1.95 -2.51,8.54 -2.05,9.62 1.52,1.13 2.35,0.03 2.86,-1.42 0.83,-2.36 0.56,-1.31 2.14,-1.78l0.93 -0.51z"/>
   <path class="fil5" d="M31.34 77.21c-1.81,-0.19 -8.78,3.88 -9.04,4.16 -0.47,0.49 -1.36,2.29 -0.4,3.07 1.39,0.73 9.25,-2.56 10.41,-3.49 0.17,-1.43 -0.36,-2.93 -0.96,-3.73z"/>
   <path class="fil6" d="M97.84 80.41l2.12 -0.07c0.03,-1.22 0.67,-2.4 1.03,-3.73 0.25,-0 1.03,0.03 1.21,-0.01l1.19 -0.59 -2.54 0.11c-0.13,-1.74 2.28,-10.38 2.87,-12.46 -1.49,0.65 -2.79,0.71 -3.22,2.4 -0.37,1.47 -0.71,3.17 -1.07,4.75 -0.56,2.48 -2.05,7.56 -1.6,9.58z"/>
   <path class="fil9" d="M28.63 49.4c-0.35,1.7 -2.72,0.67 -3.73,2.68 1.92,3.34 5.13,-0.1 7.54,2.21l-1.28 0.32c-0.35,0.01 -1.07,-0.04 -1.47,-0.05 -1.1,-0.02 -2.21,-0 -3.31,-0 -2.21,0 -4.56,0.08 -6.6,-0.14l14.57 0.35c0.33,-0.94 1.19,-3.94 1.05,-5.11l-6.76 -0.27z"/>
   <path class="fil2" d="M99.36 81.97c-1.29,0.01 -5.69,3.69 -7.31,4.91 -2.74,2.05 -1.62,3.81 1.28,2.4 1.81,-0.88 6.13,-2.68 7.17,-3.55 -0.03,-1.36 -0.44,-2.95 -1.13,-3.76z"/>
   <path class="fil6" d="M87 34.16c-3.59,1.23 -2.86,0.55 -3.67,4.66 -0.36,1.85 -1.47,5.45 -1.28,6.94 2.37,1.13 3.84,0.45 4.33,-2.36l1.47 -0.53c0.08,-0.04 0.19,-0.09 0.27,-0.16 -2.83,0.37 -3.03,-0.9 -2.44,-3.31 0.42,-1.72 0.95,-3.58 1.32,-5.25z"/>
   <path class="fil3" d="M119.99 67.39c0.87,0.31 1.8,-0.64 3.18,-0.92 2.33,-0.47 6.98,-0.14 8.23,-0.6 1.32,-0.48 1.34,-1.85 1.98,-2.92 -6.88,0.38 -10.31,-1.06 -13.39,4.43z"/>
   <path class="fil6" d="M90.49 20.91c-2.74,0.76 -2.68,2.03 -3.58,5.17 -0.12,0.42 -0.67,1.94 -0.2,2.35 1.55,0.57 2.67,-0.02 3.27,-1.26 0.24,-0.5 0.42,-1.46 0.72,-1.75 0.71,-0.7 0.06,-0.08 1.75,-0.54 0.07,-0.02 0.17,-0.06 0.23,-0.08 0.06,-0.02 0.15,-0.04 0.22,-0.09l-3.07 -0.02c-0.31,-1.38 0.42,-2.47 0.68,-3.79z"/>
   <path class="fil10" d="M43.18 73.44c-0.66,0.99 -0.85,1.56 -0.7,2.52 0.85,0.35 1.96,0.51 2.6,-0.36l-2.52 0.24 0.63 -2.41z"/>
   <path class="fil11" d="M90.99 58.68c-0.4,0.47 -0.03,-0.52 -0.51,0.72 -0.34,0.87 -0.16,0.5 -0.15,1.21l2.58 0.07c-0.42,-0.25 0.49,-0.19 -0.9,-0.3 -0.29,-0.02 -1.14,0.04 -1.49,0.05l0.47 -1.74z"/>
  </g>
 </g>
</svg>
