<?xml version="1.0" encoding="UTF-8"?>
<!DOCTYPE svg PUBLIC "-//W3C//DTD SVG 1.1//EN" "http://www.w3.org/Graphics/SVG/1.1/DTD/svg11.dtd">
<!-- Creator: CorelDRAW -->
<svg xmlns="http://www.w3.org/2000/svg" xml:space="preserve" width="66.1069mm" height="39.6918mm" version="1.1" style="shape-rendering:geometricPrecision; text-rendering:geometricPrecision; image-rendering:optimizeQuality; fill-rule:evenodd; clip-rule:evenodd"
viewBox="0 0 165.33 99.27"
 xmlns:xlink="http://www.w3.org/1999/xlink"
 xmlns:xodm="http://www.corel.com/coreldraw/odm/2003">
 <defs>
  <style type="text/css">
   <![CDATA[
    .fil0 {fill:#0F0F0F}
    .fil7 {fill:#5D2E1F}
    .fil9 {fill:#784F53}
    .fil10 {fill:#87585D}
    .fil6 {fill:#8D8D8D}
    .fil11 {fill:#905E63}
    .fil8 {fill:#966166}
    .fil5 {fill:#F8F8F8}
    .fil4 {fill:#FC9FA9}
    .fil3 {fill:#FCFCFC}
    .fil2 {fill:#FDA0AA}
    .fil1 {fill:#FDFDFD}
   ]]>
  </style>
 </defs>
 <g id="Camada_x0020_1">
  <metadata id="CorelCorpID_0Corel-Layer"/>
  <g id="_2086861648752">
   <path class="fil0" d="M155.71 46.87c2.16,-1.44 4.02,-0.83 6.91,-5.2 3.41,-5.16 3.32,-12.43 1.27,-17.96 -0.51,-1.36 -1.27,-2.35 -1.83,-3.83 -1.8,-4.81 -10.93,-11.62 -16.43,-13.48 -5.09,-1.73 -3.22,-1.7 -9.15,-3.25 -11.89,-3.11 -23.07,-3.53 -35.84,-2.9 -5.19,0.26 -5.89,-0.19 -11.85,1.12 -2.3,0.51 -3.06,0.62 -5.54,0.84 -4.91,0.43 -7.25,2.24 -9.97,2.8 -6.27,1.28 -5.48,2.5 -9.37,3.08 -2.15,0.32 -3.06,0.88 -4.4,1.76 -3.61,2.35 -0.6,0.8 -4.52,1.67 -3.12,0.7 -3.58,2.25 -8.21,4 -6.4,2.43 -3.2,2.64 -5.78,3.48 -3.81,1.22 -3.12,-0.31 -8.19,1.37 -5.89,1.96 -6.19,8.62 -10.74,12.57 -2.51,2.18 -7.47,6.13 -9.43,8.5 -2.24,2.72 0.29,2.45 -2.78,3.03 -3,0.57 -6.38,2.8 -5.48,5.96 0.54,1.88 2.14,2.29 2.52,3.29 0.29,0.77 -0.5,3.43 -0.72,4.42 -0.66,2.95 -1.37,5.99 -2.04,8.94 -0.69,3.06 -1.42,6 -2.16,9.04 -0.65,2.71 -1.78,6.32 -1.98,9.05 -0.28,3.93 3.29,4.32 7.73,4.32 3.62,-0 16.78,0.14 19.81,-0.1 0.97,-0.08 1.85,-0.23 2.62,-0.56 3.07,-1.28 -0.4,-1.48 7.05,0.22 7.14,1.63 15.39,0.9 21.12,-2.52 1.52,-0.91 2.99,-2.26 3.59,-2.46 0.08,1.98 -0.16,3.61 1.64,4.51 1.45,0.72 4.73,0.72 5.54,1.15 -1.01,0.62 -6.28,0.75 -6.8,4.76 -0.4,3.07 2.89,4.77 6.63,4.76 4.51,-0.01 16.48,-2.04 21.62,-2.79 12.86,-1.87 10.49,-1.36 23.3,-1.09 3.38,0.07 15.37,0.83 18.09,0.05 2.26,-0.66 1.97,-1.14 3.26,-2.3 4.28,-0.17 5.98,0.99 9.63,-1.14 2.16,-1.26 4.86,-4.42 6.94,-5.73 1.73,-1.09 2.84,-1.97 3.97,-3.71 3,-4.66 4.85,-17.26 5.6,-22.66 0.63,-4.57 0.52,-7.4 -2.82,-10.88 -1.78,-1.85 -2.31,-1.26 -2.81,-2.14z"/>
   <path class="fil1" d="M137.47 54.46c0.98,-0.39 3.79,-0.34 5.13,-0.19 2.31,0.26 2.49,0.41 2.12,2.3 -0.5,2.53 -0.95,5.16 -1.42,7.69l-2.84 15.61c2.41,0.76 2.51,-0.32 4.03,1.92 1.69,0.07 2.42,-0.3 3.2,0.8 0.35,1.11 -0.42,1.35 -0.76,2.17 1.61,-0.45 3.44,-2.12 4.29,-3.37 1.01,-1.5 1.54,-3.18 2.15,-4.99 0.95,-2.83 0.96,-4.42 1.4,-5.74 0.29,-0.89 0.79,-1.62 1.01,-2.53 1.07,-4.35 0.07,-4.01 0.38,-6.25 0.41,-2.99 1.16,-6.2 -0.16,-8.89 -3.13,-6.39 -17.5,-5.99 -23.36,-1.13 -3.16,2.63 -3.62,5.25 -4.6,9.72 -0.86,3.94 -1.66,7.66 -2.51,11.53 -0.39,1.77 -1.12,4.12 -1.02,5.87 0.11,1.96 1.92,4.56 2.39,4.7 2.12,-0.05 2.99,-2.68 4.05,-4.07 0.57,-0.75 1.49,-1.28 3.01,-1.01 1.81,0.32 1.52,0.73 1.97,1.99l1.48 -0.03c-0.7,-0.87 -0.35,-2.31 0.17,-3.4 0.49,-1.04 0.34,-2.38 0.52,-3.63 0.61,-4.13 1.86,-9.95 2.69,-14.24 0.96,-5.01 0.13,-3.58 -3.31,-4.82z"/>
   <path class="fil1" d="M25.61 54.85c-0.25,-0.7 -1,-1.48 -0.05,-2.16 0.64,-0.46 1.58,-0.33 2.24,-0.88 -0.84,-0.35 -7.18,-0.33 -8.14,0.03 -1.86,0.69 -1.63,0.02 -2.92,-0.35 -0.66,-0.19 -3.05,-0.26 -3.84,-0.13 -0.69,1.22 -1.78,6.92 -2.18,8.66 -0.96,4.16 -5.87,23.64 -5.96,26.03l22.77 -0.05c0.42,-0.67 1.91,-6.81 1.74,-7.73l-9.34 -0.07c-0.2,-0.81 1.33,-6.81 1.71,-7.82 2.18,-0.02 3.07,-0.33 5.03,-0.58 7.07,-0.92 3.48,-0.6 4.02,-4.37 0.16,-1.11 0.6,-2.24 0.64,-3.41l-7.47 -0.03c-0.39,-1.29 0.93,-3.89 0.72,-5.01 -0.22,-1.18 -3.35,-1.41 -4.71,-1.98 1.08,-0.4 4.23,-0.09 5.72,-0.14z"/>
   <path class="fil1" d="M36.02 63.63c2.6,4.71 9.83,5.72 11.93,9.94 1.23,2.47 0.17,6.45 -3.22,6.28 -2.84,-0.15 -0.31,-4.54 -0.49,-7.9 -2.45,-0.29 -8.72,-0.12 -11.41,-0.03l-1.67 1.42c0.64,1.08 0.63,0.71 0.27,2.05 -0.32,1.19 0.31,5.7 0.94,6.97 2.62,5.23 14.73,4.66 20.07,3 3.25,-1.01 5.23,-2.79 6.44,-5.41 1.23,-2.68 2.25,-6.03 1.51,-9.32 -1.39,-6.21 -10.79,-9.29 -12.22,-11.34 -1.14,-1.64 -0.11,-3.38 -0.83,-4.61 -0.42,-0.73 -2.92,-1.94 -4.4,-1.5 -0.93,0.47 -2.89,4.16 -3.46,5.22 -0.53,0.98 -0.96,1.82 -1.51,2.85 -1.26,2.35 -1.25,1.37 -1.96,2.4z"/>
   <path class="fil2" d="M33.97 51.64c0.04,-0.83 2.08,-0.63 2.74,-0.35 -0.51,0.4 -2.13,0.65 -2.74,0.35zm10.4 -2.71c0.07,-0.59 0.55,-1.13 0.9,-1.61 0.51,-0.71 0.62,-1.03 1.33,-1.36 -0.02,2.99 -0.16,0.39 0.2,3.1l-2.43 -0.12zm-6.02 -3.26c0,-1.5 2.56,-4.36 3.93,-4.61 -0.12,1.13 -0.81,1.83 -1.51,2.66 -0.64,0.77 -1.31,1.69 -2.42,1.95zm-17.26 3.22c0.08,-0.67 7.87,-10.37 9.38,-12.37 0.59,-0.79 2.39,-3.55 3.4,-4.01l-1.59 16.47 -11.19 -0.09zm13.56 0.05c-0.42,-1.92 3.67,-20.39 3.69,-23.42 0.02,-1.87 -2.58,-2.22 -3.72,-0.85 -0.7,0.84 -1.56,2.57 -2.15,3.57 -3.39,5.7 -7.39,11.86 -11.15,17.35 -0.61,0.9 -1.7,2.96 -2.63,3.2 -1.98,0.52 -9.48,-0.8 -8.15,1.14 0.47,0.68 4.34,0.5 5.8,0.61 1.5,0.11 1.22,0.36 2.18,0.75 1.31,-0.42 0.17,-0.67 3.08,-0.54 2.84,0.13 8.21,0.09 10.41,0.35l-0.14 1.05c-1.86,0.82 -4.9,0.37 -5.54,1.45 0.96,1.13 2.41,0.05 5.33,0.06 0.42,1.88 -0.98,5.42 -0.38,7.2 2.04,0.02 1.55,-4.3 2.48,-7.42 0.72,-0.22 2.22,-0.45 3.15,-0.46 0.1,1.6 -4.29,7.05 -3.8,9.07 2.03,1.17 2.89,0.68 3.72,-1.01l3.87 -6.96c1.2,-1.87 0.71,-1.65 3.57,-2.05 1.93,-0.27 3.9,-0.42 5.96,-0.4 1.34,0.02 4.95,0.37 5.96,-0.15 1.12,-0.59 0.63,-2.95 -1.15,-3.14 -1.17,-0.12 -3.74,0.6 -5.26,0.69 0.15,-0.49 2.78,-2.76 2.88,-2.8 0.6,0.46 0.48,0.71 1.07,1.17 2.25,0.12 2.2,-1.11 3.31,-1.54 0.2,1.58 -0.46,1.61 0.86,2.79 1.37,0.53 3.78,-2.45 4.94,-3.65 1.14,-1.17 3.93,-3.32 3.76,-4.18 -1.16,-0.53 -1.64,-0.01 -2.23,0.64 -0.89,0.97 -4.27,4.53 -5.08,4.86 0.12,-1.99 4.55,-6.53 0.63,-6.63 -2.87,-0.07 -0.56,1.99 -4.15,5.45 -0.62,0.59 -0.18,0.36 -1.03,0.61 0.03,-1.22 0.98,-2.96 0.72,-3.93 -0.34,-1.25 -2.54,-1.38 -3.2,-0 -0.66,1.38 -1.91,5.22 -3.88,5.85 0.18,-3.14 3.48,-6.28 2.92,-7.16 -0.46,-0.74 -2.6,-1.11 -3.28,0.04 -0.33,0.56 -0.23,0.94 -0.7,1.55l-3.15 3.47c-0.51,0.6 -1.51,1.94 -2.07,2.35 -0,-2.1 3.16,-6.77 3.29,-9.16 -1.46,-0.07 -0.92,0.3 -2.56,-0.06 -3.98,-0.87 -6.7,5.28 -6.32,7.15 0.47,2.3 3.54,0.55 3.85,0.46 -0.21,0.75 -0.98,2.12 -1.41,2.65l-4.3 -0z"/>
   <path class="fil1" d="M100.36 85.98c0.76,-2.03 7.38,-37.38 7.26,-37.98 -1.49,-0.2 -11.62,-0.24 -12.47,0.12 -0.68,1.12 -2.08,10.31 -2.51,12.32 -0.84,3.98 -1.83,8.41 -2.02,12.61 1.61,-0.13 3.75,-0.68 5.19,-0.61 1.49,0.07 2.66,1.1 2.3,2.42 -0.65,2.39 -6.64,1.09 -8.38,2.07 -0.58,0.38 -1.08,4.24 -1.05,4.43 0.78,0.2 3.87,0.5 2.98,2.62 -0.67,1.6 -3.36,0.94 -3.94,1.91 0.67,0.38 11.17,0.32 12.65,0.11z"/>
   <path class="fil2" d="M127.73 30.81c-0.14,1.31 0.4,3.36 0.38,4.95 -0.02,1.83 -0.59,3.31 -0.73,5.01 6.86,0.28 16.13,0.07 23.01,-0.24 1.65,-0.07 3.87,-0.04 5.37,-0.32 1.67,-0.31 1.8,-1.7 2.17,-3.01 1.11,-3.94 1,-8.34 -0.36,-12.31 -0.8,-2.34 -3.23,-1.28 -8.06,-0.09 -0.69,0.17 -1.52,0.42 -2.21,0.49 -1.27,0.12 -1.78,-0.23 -2.87,0.2 -3.73,1.48 -1.77,1.29 -7.99,2.96 -2.64,0.71 -6.26,1.53 -8.7,2.36z"/>
   <path class="fil1" d="M76.87 80.04l0.54 -1.94c-0.07,-0.02 -0.16,-0.08 -0.18,-0.04l-1.46 -0c-1.18,0.1 -1.42,0.21 -2.03,-0.16 -0.84,-0.32 -1.08,-0.7 -0.85,-1.74 0.88,-0.87 2.42,-0.84 4.14,-1.08 1.02,-0.15 3.5,-0.39 4.37,-0.76 0.97,-2.66 1.48,-6.26 2.06,-9.29 0.31,-1.59 0.61,-3.15 0.91,-4.73 1.05,-5.48 0.05,-4.5 4.8,-4.52 4.54,-0.02 3.5,0.62 4.43,-3.97 0.14,-0.67 0.27,-1.34 0.4,-1.97 0.08,-0.39 0.46,-1.47 0,-1.76 -1,-0.29 -8.4,-0.22 -9.9,-0.1 -0.78,0.6 -1.18,1.36 -1.74,2.09 -2.41,3.15 -4.68,4.35 -5.69,5.45 0.62,0.37 0.51,0.09 1.22,0.3 -2.09,0.51 -2.61,0.46 -4.53,1.32 -1.77,0.79 -1.49,1.89 -1.79,3.53l-3.29 16.89c-0.47,2.26 -1.53,6.34 -1.57,8.5l5.95 -0.06c0.42,-0.89 0.04,-1.06 1.1,-1.54 0.57,-0.25 1.59,-0.31 2.04,-0.66 0.54,-0.41 1.25,-3.16 1.04,-3.75z"/>
   <path class="fil1" d="M120.47 56.05c0.28,-1.42 0.56,-2.85 0.84,-4.27 0.36,-1.85 1.14,-3.6 0.03,-3.83 -1,-0.2 -11.22,-0.07 -11.88,0.13l-0.17 0.27c-0.39,0.79 -3.52,17.87 -3.66,18.6 -0.61,3.11 -1.22,6.31 -1.83,9.37 -0.35,1.75 -1.86,8.36 -1.66,9.74l4.49 -0.03c1.12,-1.73 4.71,-11.46 5.64,-12.74 1.26,-1.74 2.87,-1.14 4.69,-0.45l3.53 -16.79z"/>
   <path class="fil2" d="M120.31 21.47c0.7,0.83 2.26,1.58 3.93,3.5 1.33,1.53 1.82,2.76 2.89,4.36 1.39,-0.03 7.63,-1.99 9.37,-2.42 4.49,-1.09 4.11,-0.3 9.58,-2.57 1.55,-0.64 8.5,-1.99 9.25,-2.63 2.15,-1.84 -8.84,-9.4 -11.33,-10.64 -1.8,-0.9 -3.27,-0.75 -4.92,0.09 -2.42,1.24 -18.39,9.89 -18.77,10.31z"/>
   <path class="fil2" d="M139.83 85.35c-0.27,-0.56 0.04,-0.87 0.61,-1.17 0.23,0.79 -0,0.94 -0.61,1.17zm-10.15 -0.5c0.31,-0.21 -0.52,-0.29 0.68,-0.2 -0.04,0.6 -0.05,0.33 -0.25,0.52 -0.24,0.98 -1.09,2.39 -0.55,3.28 1.07,0.09 1.85,-1.11 2.39,-1.67 0.39,-0.4 1.68,-1.53 2.38,-1.74 1.71,1.19 0.53,0.79 3.09,0.65 -0.02,1.14 -0.65,2.87 0.8,3.44 2.13,0.83 5.2,-2.42 6.3,-3.57 0.62,-0.64 2.07,-1.88 1.85,-2.8 -1.44,-0.38 -1.4,0.63 -3.51,2.87 -0.68,0.73 -2.62,2.62 -3.93,2.71l0.08 -1.59c0.84,-0.44 1.27,-0.14 2.13,-0.73 1.24,-0.85 3.25,-4.08 1.32,-4.89 -1.63,-0.69 -3.17,0.6 -3.73,1.36 -0.73,1 -0.86,2.59 -2.74,2.42 0.12,-1.15 2,-1.33 1.92,-2.99 -2.77,-1.13 -3.35,1.23 -5.3,2.01 0.37,-1.09 2.33,-3.23 1.63,-4.13 -1.12,-1.44 -2.75,1.27 -3.23,1.96 -1.29,1.83 -1.31,1.87 -3.31,3.01 -1.01,0.57 -3.09,1.98 -4.19,2.22 0.27,-1.04 1.78,-3.43 1.18,-4.27 -1.6,-1.77 -2.37,0.71 -3.03,1.43 -0.49,0.53 -2.26,2.39 -2.96,2.61 0.24,-1.55 1.75,-2.74 1.59,-4.29 -2.2,-0.76 -2.39,0.05 -2.76,1.68 -0.27,1.19 -0.71,3.15 -0.25,4.3 2.22,0.52 2.85,-2.23 4.56,-2.81l-0.95 3.96c-0.52,0.28 -8.44,0.2 -10.08,0.21 -2.09,0.01 -2.3,0.35 -2.79,-0.11 -0.47,-0.44 5.62,-10.76 6.28,-11.98 0.58,-1.08 2.03,-2.98 1.74,-4.16 -0.58,-0.34 -1.08,-0.55 -2.08,-0.47 -0.65,0.26 -4.95,10.79 -5.8,12.76 -0.49,1.14 -1.09,3.66 -2.2,4.04 -0.41,-0.84 0.32,-1.45 -0.92,-1.7 -1.13,-0.22 -28.56,4.99 -32.09,5.65 -1.85,0.35 -4.08,0.47 -4.35,1.21 0.86,0.47 6.16,-0.62 7.5,-0.82l22.76 -3.27c4.12,-0.6 2.85,-0.05 8.22,0.06l17.39 0.52c2.4,0.05 7.08,0.84 5.29,-1.79 -1.73,-0.4 -4.96,0.12 -7.04,-0.17 0.39,-1.02 5.48,-4.02 6.99,-4.72z"/>
   <path class="fil2" d="M108.42 15.98c0.12,0.58 -0.12,0.13 0.31,0.64 1.2,0.13 3.79,1.08 4.88,1.51 6.19,2.47 3.03,2.87 9.86,-0.6 1.77,-0.9 3.39,-1.73 5.13,-2.59 0.7,-0.35 10.12,-4.78 10.11,-5.46 -0.55,-1.12 -2.37,-1.34 -3.8,-1.71 -2.9,-0.74 -13.17,-3.1 -15.23,-2.44 -0.57,0.18 -10.08,9.18 -11.27,10.66z"/>
   <path class="fil1" d="M85.45 45.81c5.39,0.01 11.83,-0.54 17.36,-0.82 5.58,-0.28 11.53,-0.62 17.22,-0.9 5.76,-0.28 11.44,-0.59 17.17,-0.92 3.15,-0.18 15.25,-0.52 17.16,-1.07 -0.7,-0.47 -10.58,-0.28 -11.45,-0.29l-55.47 -0.47c-0.47,0.86 -1.84,3.61 -1.99,4.47z"/>
   <path class="fil2" d="M96.5 14.51c2.59,0.25 5.13,0.57 7.62,1.01 2.62,0.46 1.4,0.52 4.91,-2.52 1.46,-1.26 2.77,-2.46 4.12,-3.76 0.82,-0.79 3.85,-3.19 4.02,-4.02 -1.37,-1.08 -13.35,-0.94 -15.49,-0.23 -1.09,0.36 -1.21,1.11 -1.65,2l-3.53 7.51z"/>
   <path class="fil2" d="M84.26 38.58c-0.74,6.37 -7.18,16.6 -13.99,17.45 -4.69,0.59 -5.09,-2.71 -4.32,-5.93 1.28,-5.36 6.16,-12.01 10.26,-15.58 0.49,-0.42 0.95,-0.73 1.41,-1.16 0.8,-0.77 0.67,-0.76 2.34,-0.64 2.25,0.16 3.02,0.55 3.72,1.82 0.7,1.27 0.75,2.59 0.58,4.05zm-1.2 -7.94c0.85,-0.43 2.37,-0.11 2.35,-1.23 -0.02,-0.89 -1.14,-1.18 -2.31,-1.03 -9.06,1.16 -21.79,21.15 -18.1,26.76 0.89,1.35 2.88,2.09 5.47,1.78 7.64,-0.92 14.69,-11.45 16.12,-17.47 1.73,-7.29 -3.01,-8.09 -3.52,-8.82z"/>
   <path class="fil1" d="M50.48 52.59l-4.48 0.2c0.83,0.24 3.3,-0.04 3.8,0.61 3.46,-0.88 1.41,3.83 1.61,5.41 1.36,0.18 10,0.28 11.15,0.05 0.84,-1.77 0.76,-3.72 0.56,-5.7 -0.24,-2.33 -0.5,-3.39 -2.32,-4.34 -0.73,0.2 -0.54,0.27 -1.13,0.5 -1.07,0.42 -1.22,0.05 -1.41,0.62 -0.01,0.04 -0.03,0.1 -0.05,0.14 -1.16,3.9 -3.74,2.18 -7.73,2.5z"/>
   <path class="fil2" d="M85.9 14.36l6.93 -0.03c0.79,-0.71 5.91,-8.59 6.06,-9.26 -2.12,-0.38 -8.3,0.75 -10.48,1.3 -1.9,0.47 -1.66,1.77 -1.92,3.42 -0.17,1.07 -0.77,3.71 -0.59,4.57z"/>
   <path class="fil1" d="M78.88 47.93l-10.78 0.02c-1.47,2.48 -2.67,9.2 3.51,6.68 2.71,-1.11 7.15,-5.15 7.28,-6.7z"/>
   <path class="fil2" d="M80.9 83.83c-0.62,0.41 -0.33,0.32 -1.16,0.34 -0.16,-0.28 -0.34,-0.02 -0.14,-0.69 0.27,-0.88 0.17,-0.28 0.39,-0.52 0.45,-1.45 2.14,-4.89 1.64,-5.65 -0.36,-0.56 -1.27,-0.65 -1.99,-0.2 -1.47,0.9 -1.57,6.1 -2.57,7.28 -0.32,0.33 -0.23,0.31 -1.42,0.51 -0.49,0.08 -1.04,0.13 -1.28,0.41 -0.95,1.1 1.55,0.68 2.39,0.63 -0.35,2.04 -1.67,5.02 -1.68,6.82 1.48,0 1.26,-0.24 1.67,-1.38 2.66,-7.44 1.11,-5.64 8.59,-6.5 2.04,-0.24 4.72,-0.08 5.2,-1.48 -0.7,-1.6 -2.61,-0.87 -4.53,-0.49 -1.22,0.24 -4.13,0.93 -5.09,0.93z"/>
   <path class="fil1" d="M77.69 14.97c0,0 -0.04,0.24 1.15,0.19l3.37 -0.53c0.61,-1.49 1.01,-3.34 1.43,-4.84 0.97,-3.5 1.84,-3.77 -4.33,-1.72 -0.8,0.27 -2.06,0.44 -2.2,1.23 -0.16,0.87 0.22,5.14 0.58,5.68z"/>
   <path class="fil3" d="M117.76 79.04c-2.64,-0.38 -1.45,0 -1.4,-2.25l-0.55 0.57c-0.13,0.18 -0.24,0.44 -0.33,0.61l-4.44 8.08 4.8 -0.03c0.35,-1.93 0.24,-4.6 2.86,-4.82 1.87,-0.16 2.09,0.9 3.45,0.39 1.01,-0.38 1.36,-1.2 1.1,-2.37 -1.08,0.26 -0.66,1.52 -2.79,1.6 -1.78,0.07 -2.27,-0.7 -2.7,-1.79z"/>
   <path class="fil4" d="M74.26 77.04c0.76,0.27 10.57,-0.74 12.3,-0.88 2.05,-0.17 4.09,-0.34 6.13,-0.54 1.33,-0.13 5.54,-0.16 3.94,-1.87 -0.8,-0.86 -4.32,-0.01 -5.82,0.2l-11.54 1.7c-2.78,0.39 -5.15,0.33 -5.01,1.39z"/>
   <path class="fil1" d="M68.68 11.89c0,0.93 0.78,3.69 1.13,4.47 1.09,0.04 3.41,-0.43 4.16,-0.72l0.59 -5.99c-1.48,-0.15 -4.72,1.76 -5.88,2.24z"/>
   <path class="fil1" d="M80.17 46.04c0.67,-0.63 2.13,-3.6 2.04,-4.69 -7.63,-1.06 -7.59,4.98 -2.04,4.69z"/>
   <path class="fil1" d="M61.41 15.47c0.21,0.69 1.27,2.04 1.81,2.49 0.99,-0.05 2.82,-0.55 3.54,-0.86 -0.05,-1.02 -0.93,-3.81 -1.56,-4.48 -1,0.03 -3.25,2.13 -3.79,2.84z"/>
   <path class="fil3" d="M39.08 28.62l6.71 -4.1c-0.46,-0.52 -1.52,-0.96 -2.38,-1.19 -1.03,0.44 -2.12,1.33 -3.11,1.99 -0.73,0.48 -0.82,0.34 -1.04,1.27 -0.16,0.69 -0.37,1.36 -0.18,2.02z"/>
   <path class="fil3" d="M56.18 20.12c0.82,-0.05 2.44,-0.62 3.01,-0.95 -0.07,-0.59 -1.9,-2.9 -2.57,-3.21 -0.87,0.34 -1.3,1.38 -1.7,2.05 -0.66,1.07 0.38,1.65 1.26,2.11z"/>
   <path class="fil2" d="M61.47 33.6c-2.58,1.09 -1.38,3.95 0.91,3.09 2.08,-0.79 1.59,-4.14 -0.91,-3.09z"/>
   <path class="fil4" d="M83.02 73.38l-0.06 0.51 0.66 -0.01c1.24,-0.18 2.43,-0.46 3.65,-0.66 0.95,-0.15 3.24,-0.64 1.85,-1.77 -1.16,-0.94 -5.15,1.51 -6.11,1.92z"/>
   <path class="fil3" d="M48.21 22.23c1.29,0.37 1.23,0.73 2.95,-0.02 0.85,-0.37 0.46,-0.06 0.84,-0.56 -0.25,-0.37 -2.35,-1.94 -3.29,-2.08 -0.41,0.62 -0.55,1.79 -0.5,2.67z"/>
   <path class="fil5" d="M18.17 43.65c1.54,-0.24 3.24,-1.95 4.08,-2.62 1.01,-0.81 2.9,-2.32 3.18,-3.71 -1.15,0.45 -7.16,6.1 -7.26,6.34z"/>
   <path class="fil4" d="M121.65 79.16c0.89,-1.56 -1.63,-2.45 -2.32,-0.75 -0.64,1.57 1.47,2.23 2.32,0.75z"/>
   <path class="fil6" d="M73.75 77.9c0.6,0.38 0.85,0.26 2.03,0.16l1.46 0c0.03,-0.04 0.11,0.03 0.18,0.04l-0.54 1.94c0.35,-0.28 0.24,-0.1 0.44,-0.53 0.05,-0.11 0.09,-0.36 0.11,-0.44 0.12,-0.45 0.19,-0.71 0.23,-1.14 -1,-0.33 -2.64,0.04 -3.9,-0.03z"/>
   <path class="fil7" d="M139.83 85.35c0.61,-0.23 0.84,-0.37 0.61,-1.17 -0.57,0.3 -0.88,0.6 -0.61,1.17z"/>
   <path class="fil8" d="M80.9 83.83l-1.19 0.16 0.28 -1.02c-0.22,0.24 -0.12,-0.36 -0.39,0.52 -0.2,0.66 -0.02,0.4 0.14,0.69 0.83,-0.02 0.55,0.07 1.16,-0.34z"/>
   <path class="fil9" d="M83.63 73.88l-0.66 0.01 0.06 -0.51c-0.19,0.28 -0.46,-0.47 -0.16,0.62l0.6 -0.04c0.03,-0.06 0.11,-0.05 0.17,-0.08z"/>
   <path class="fil10" d="M130.11 85.17c0.2,-0.19 0.21,0.08 0.25,-0.52 -1.2,-0.09 -0.38,-0.01 -0.68,0.2l0.46 -0.12 -0.03 0.44z"/>
   <path class="fil11" d="M108.73 16.62c-0.43,-0.5 -0.19,-0.05 -0.31,-0.64 -0.34,0.19 -0.29,-0.31 -0.26,0.37l0.56 0.27z"/>
  </g>
 </g>
</svg>
