<?xml version="1.0" encoding="UTF-8"?>
<!DOCTYPE svg PUBLIC "-//W3C//DTD SVG 1.1//EN" "http://www.w3.org/Graphics/SVG/1.1/DTD/svg11.dtd">
<!-- Creator: CorelDRAW -->
<svg xmlns="http://www.w3.org/2000/svg" xml:space="preserve" width="61.1881mm" height="45.8712mm" version="1.1" style="shape-rendering:geometricPrecision; text-rendering:geometricPrecision; image-rendering:optimizeQuality; fill-rule:evenodd; clip-rule:evenodd"
viewBox="0 0 141.54 106.11"
 xmlns:xlink="http://www.w3.org/1999/xlink"
 xmlns:xodm="http://www.corel.com/coreldraw/odm/2003">
 <defs>
  <style type="text/css">
   <![CDATA[
    .fil1 {fill:#0F100F}
    .fil0 {fill:#11A149}
    .fil6 {fill:#12CA52}
    .fil9 {fill:#4C2313}
    .fil4 {fill:#4E2413}
    .fil11 {fill:#636363}
    .fil14 {fill:#6C6C6C}
    .fil15 {fill:#838383}
    .fil12 {fill:#89595E}
    .fil13 {fill:#939393}
    .fil7 {fill:#E20607}
    .fil10 {fill:#FAFAFA}
    .fil8 {fill:#FDA0AA}
    .fil3 {fill:#FDFDFD}
    .fil5 {fill:#FEA0AA}
    .fil2 {fill:#FED3A8}
   ]]>
  </style>
 </defs>
 <g id="Camada_x0020_1">
  <metadata id="CorelCorpID_0Corel-Layer"/>
  <g id="_2015399782448">
   <path class="fil0" d="M97.84 12.15c-2.83,0.37 -4.45,0.39 -7.05,1.11 -2.3,0.64 -4.8,0.6 -6.93,1.21 -0.89,0.26 -2.24,0.86 -3.06,1 -1.63,0.28 -3.51,-1.85 -6.5,-0.65 -1.26,0.51 -1.36,1.02 -2.21,1.88 -0.89,-0.1 -2.59,-1.24 -4.03,-1.63 -3.19,-0.86 -7.09,-0.63 -10.43,-0.35 -2.63,0.22 -2.38,0.63 -3.83,1.87 -2.56,-0.54 -2,-1.94 -11.07,-1.72 -4.1,0.1 -8.48,0.69 -12.44,0.69 0,-2.23 0.76,-3.2 -0.77,-5.08 -1.58,-1.93 -3.15,-0.83 -4.85,-1.46 -0.4,-0.59 -0.45,-1.56 -0.74,-2.21 -0.29,-0.64 -0.86,-1.49 -1.22,-1.94 -0.84,-1.07 -2.08,-2.08 -3.34,-2.76 -6.06,-3.24 -13.13,1.04 -16.23,6.16 -2.75,4.53 0.24,6.48 0.11,10.23 -0.25,7.52 -1.58,14.92 -2.4,22.28 -0.42,3.75 -0.65,7.76 -0.83,11.59 -0.25,5.31 3.95,4.11 8.19,4.29 0.31,3.84 -3.38,26.04 -2.96,31.17 0.39,4.68 2.04,4.92 6.28,5.22 0.13,2.23 -1.22,6.65 1.85,10.14 4.72,5.38 13.42,2.19 18.85,-0.8 1.27,-0.7 2.78,-1.72 4.2,-2.13 0.88,-0.25 1.64,-0.34 2.37,-0.78 0.81,-0.48 0.88,-0.98 1.43,-1.66 1.51,-0.04 2.71,1.07 4.98,1.1 2.31,0.03 3.6,0 5.85,0.47 0.61,2.19 0.84,3.11 2.57,4.21 1.47,0.94 3.77,1.36 5.71,0.62 1.55,-0.6 2.93,-1.93 3.9,-2.87l3.2 -3.74c2.46,0.14 2.82,0.87 5.45,-0.47 2.74,-1.39 3.02,-0.38 6.08,-0.66 1.1,-0.1 1.82,-0.53 2.75,-0.65 1.12,-0.14 2.14,0.14 3.13,0.16 3.68,0.05 0.32,-1.47 4.74,1.55 9.26,6.32 10.98,0.39 15.34,0.51 8.15,0.23 10.18,0.35 18.74,-1.16 1.41,-0.25 4.55,-1.1 5.68,-0.71 4.13,1.43 14.52,0.35 13.04,-6.26 -0.57,-2.54 -4.17,-3.45 -6.54,-3.67 -1.34,-0.13 -2.22,0.25 -2.76,-0.66 0.88,-1.01 2.81,-0.14 4.42,-2.2 1.12,-1.44 1.19,-3.37 0.64,-5.28 -1,-3.47 -4.41,-4.01 -4.22,-8.98 0.08,-2.15 0.57,-3.65 0.11,-5.87 -0.33,-1.57 -1.24,-3.94 -0.82,-5.39 0.43,-1.49 1.46,-3.66 1.07,-5.46 -0.46,-2.09 -2.24,-2.1 -4.3,-2.52l-1.03 -4.98c6.9,-1.99 4.39,-6.34 5.12,-8.99 0.35,-1.26 6.37,-1.9 7.83,-6.41 1.37,-4.23 -3.17,-6.57 -5.69,-7.97 -2.69,-1.49 -1.99,-1.02 -2.78,-4.22 -3.02,-12.21 -1.01,-9.67 -12.16,-16.31 -1.81,-1.08 -3.43,-1.32 -5.78,-0.6 -4.88,1.49 -7.45,0.1 -10.75,3.47 -1.97,2.01 -4.31,5.19 -5.91,8.27z"/>
   <path class="fil1" d="M79.03 18.26c-1.12,-2.05 -3.09,-2.05 -4.31,-1.43 -1.45,0.75 -0.66,3.72 -0.94,5.42 -0.59,-0.25 -0.92,-1.3 -1.31,-1.87 -2.96,-4.34 -8.93,-4.01 -13.95,-3.76 -3.44,0.17 -2.8,0.76 -3.02,4.3 -1.06,-0.32 -1.09,-2.33 -4.62,-3.35 -4.24,-1.24 -11.03,-0.54 -15.77,-0.3 -3.32,0.16 -4.37,0.82 -7.1,1.28l-0.91 -2.75c0.71,-0.71 1.43,-1.01 1.56,-2.09 0.29,-2.36 -2.64,-4.08 -5.91,-0.95 -0.27,0.25 -0.12,0.14 -0.41,0.36 -0.04,-1.66 0.31,-3.47 -0.13,-5.04 -1.14,-4.11 -6.71,-6.21 -10.32,-4.42 -2.37,1.17 -4.87,2.5 -6.25,4.38 -1.28,1.74 -2.09,3.98 -1.32,6.2 0.37,1.05 0.55,0.97 1.04,1.67 0.71,1.02 -0.11,2.94 -0.13,4.38 -0.06,4.78 -4.36,31.61 -2.9,33.62 0.48,0.63 0.46,0.57 1.55,0.62l6.67 0.01c0.27,1.69 -2.46,22.8 -3,27.47 -1.3,11.33 0.84,8.48 7.1,8.86 -0.07,0.81 -0.49,1.26 -0.8,2.18 -0.83,2.5 -0.72,6.19 0.71,8.29 3.92,5.76 14.46,0.79 18.94,-1.97 3.85,-2.37 3.27,-0.61 4.66,-1.9 1.09,-1 1.83,-3.06 3.01,-3.71 0.94,0.9 0.32,2.03 2.07,2.85 1.89,0.89 2.84,-0.27 4.2,-0.14 1.71,0.17 1.61,1.01 4.15,0.44 1.23,-0.27 2.75,-1.27 3.46,-1.28 -0.31,1 -2.95,2.01 -1.67,4.82 0.76,1.69 2.88,2.41 4.97,1.85 4.77,-1.26 6.88,-7.48 6.99,-7.6 2.84,0.91 4,3.16 8.13,-1.78 1.12,0.42 0.83,1.8 3.16,1.79 2.07,-0.02 2.72,-1.11 3.93,-1.38 1.16,-0.26 2.19,0.94 4.07,0.49 1.45,-0.35 2.29,-1.37 3.6,-1.81 -0.33,1.33 -1.33,2.34 1.7,4 2.79,1.53 6.06,3.89 10.09,0.99 2.61,-1.87 0.29,-1.49 4.82,-0.97 3.8,0.44 8.82,0.16 12.66,-0.28 3.92,-0.44 7.81,-1.88 11.34,-2.3 0.57,1.31 1.19,1.28 2.92,1.31 1.22,0.02 2.75,-0.08 3.87,-0.31 2.89,-0.58 6.97,-4.34 0.89,-5.94 -3.62,-0.95 -6.56,1.23 -6.54,-1.78 0.01,-1 0.31,-2.92 0.85,-3.64 2.11,-0.23 3.39,0.57 4.42,-1.22 2.08,-3.63 -2.71,-6.13 -3.19,-7.46 -0.28,-0.77 -1.27,-3.71 -1.33,-4.26 -0.21,-2.12 1.56,-5.45 -0.41,-9.58 -1.07,-2.26 -0.85,-1.39 0.18,-3.79 0.6,-1.4 1.22,-2.86 0.79,-4.44 -1.06,-0.33 -2.57,-0.17 -3.84,-0.24 -0.3,-0.62 -1.88,-8.49 -1.76,-9.13 4.93,-0.29 6.78,-3.06 5.46,-6.72 -0.55,-1.51 -1.23,-1.7 -1.74,-2.91 2.6,0.06 4.19,0.07 6.37,-0.87 1.4,-0.6 3.4,-2.13 3.59,-3.84 0.38,-3.32 -5.51,-5.15 -7.74,-6.87 -1.03,-0.79 -0.39,-2.03 -1.53,-5.68 -1.94,-6.22 0.49,-6.58 -5.07,-9.85 -1.71,-1.01 -2.94,-1.74 -4.61,-2.84 -1.73,-1.15 -2.92,-2 -5.55,-1.05 -0.89,0.32 -1.69,0.8 -2.63,0.96 -3.92,0.65 -5.12,-1.66 -11.24,7.31 -0.45,0.66 -0.92,1.55 -1.26,2.33 -0.9,2.09 -0.9,1.17 -5.57,1.66 -1.45,0.15 -1.74,0.51 -3.06,0.8 -3.08,0.68 -5.46,0.72 -6.45,0.99 -1.71,0.47 -4.06,1.63 -5.63,1.88z"/>
   <path class="fil2" d="M112.35 41.6c0.34,-2.73 5.86,-0.02 6.45,2.22 -1.24,-0.15 -1.21,-0.74 -2.51,-0.98 -0.23,1.06 -0.5,2.38 -1.08,3.26 -1.5,0.08 -2.7,-0.39 -3.76,0.43 0.05,1.57 1.66,1.12 4.1,4.17 5.32,6.65 -1.92,10.25 -4.28,6.99 -1.29,-1.78 -0.67,-4.91 -1.93,-6.72 -1.63,0.84 -0.72,2.56 -4.15,1.28 -2.74,-1.02 -1.7,1.73 -4.25,0.93 -1.37,-0.43 -2.84,-1.58 -3.98,-2.16 -1.72,-0.88 -3.01,-1.11 -4.6,-1.72 0.08,-0.99 1.6,-3.33 2.41,-3.76 0.01,1.58 -0.46,1.71 -0.58,3.08 1.82,0.78 3.98,1.9 5.87,2.89 2.11,1.1 1.67,-0.09 2.99,-0.51 1.67,-0.54 2.68,0.47 4.03,0.44 1.21,-0.95 2.88,-5 4.29,-6.52 1.3,-0.2 1.97,0.4 2.93,0.03 0.48,-0.75 0.65,-2.11 0.43,-3.13l-2.39 -0.2zm9.81 16.23l0.58 -0.42c0.89,-0.22 2.15,-0.9 2.6,-1.49 0.28,-1.79 -1.5,-10.97 -2.28,-13.4 -0.62,-1.92 -1.67,-2.42 -1.96,-3.54 1.5,0.17 2.51,1.44 4.5,1.67 2.14,0.25 3.79,-0.53 3.63,-2.71 -0.4,-5.46 -7.94,-2.79 -8.33,-2.77l0.23 -3.48 -2.62 0c-1.17,3.07 -2.58,4.3 -6.45,4.36 -0.94,0.02 -2.54,-0.39 -3.06,0.06 1.55,1.43 3.31,0.49 4.86,1.13 -0.06,0.14 0.29,0.61 -1.56,0.77 -2.68,0.23 -6.43,-1.79 -8.45,-3.62 -1.37,-1.24 -0.89,-1.18 -3.3,-1.42 -3.23,-0.32 -15.46,-0.26 -18.61,0.05 -3.08,0.3 -5.4,1.37 -4.18,4.84 0.86,2.44 3.14,3.48 6.31,3.45 5.31,-0.05 11.08,-3.06 13.37,-5.87 -0.6,-1.22 -0.28,0.21 -1.06,-1.02 0.93,-0.27 1.82,-0.42 2.84,-0.31 0.33,2.83 -5.3,5.5 -7.73,6.71 -1.81,0.9 -1.81,0.75 -1.7,3.22 0.09,1.97 2.22,16.02 2.7,16.87 1.01,1.79 4.96,2.15 7.14,2.55 8.37,1.54 8.71,0.64 15.8,-2.5 2.31,-1.02 4.34,-1.93 6.75,-3.12z"/>
   <path class="fil3" d="M12 32.82c0,-1.08 0.13,-3.76 0.3,-4.79 0.14,-0.88 0.3,-1.13 1.26,-1.12 3.94,0.03 3.08,6.01 -1.56,5.91zm18.88 -2.14c-0.13,0.06 -0.03,0.1 -0.57,0.22 -0.08,0.02 -0.35,0.05 -0.44,0.06 -0.97,0.11 -2.04,0.23 -2.85,-0.14 -0.28,-0.82 -0.19,-0.85 -0.12,-1.71l0.33 -1.31c0.22,-0.56 -0.29,0.04 0.23,-0.53 2.17,-0.09 7.47,0.26 9.16,-0.41 0.29,-0.96 0.5,-2.8 0.42,-3.99l0.16 -4.14 -3.11 -0c-2.79,-0.13 -9.46,2.67 -12.13,3.67l-0.14 -0.36c-0.37,-1.13 0.09,-1.12 -2.34,-2.39l-2.51 2.67c-1.54,1.59 -4.42,3.64 -6.77,3.77 -2.3,0.12 -2.55,-0.99 -3.82,-1.53 -0.44,0.87 -2.92,21.74 -3,24.07 1.46,-0.21 6.18,-1.41 7.06,-2.12 0.66,-1.09 0.74,-4.45 0.85,-5.96 6.26,0.52 4.97,-0.5 7.9,-1.7 0.44,3.62 -1.23,10.35 -0.58,13.51 1.42,0.31 9.71,0.07 12.09,-0.02l3.01 -0.05c0.1,-0.01 0.69,-0.04 0.94,-0.34 0.59,-1.25 0.77,-6.66 0.7,-8.41l-9.7 0.3c-0.02,-1.27 0.25,-3.88 0.67,-4.91l8.51 -0.2c0.45,-1.13 1.1,-6.79 0.84,-7.98 -1.54,-0.39 -3.26,0.16 -4.79,-0.07z"/>
   <path class="fil4" d="M92.65 18.43l-1.97 -0.57c-0.21,1.59 0.99,3 1.81,3.52 2.64,1.68 2.37,1.39 3.55,0.36 1.11,0.34 2.17,1.2 3.68,1.65 1.48,0.44 2.77,0.59 4.2,1.22 1.21,0.53 2.73,1.09 3.68,1.75 1.18,0.83 1.59,1.44 3.15,2.27 4.66,2.45 15.88,2.86 18.56,0.94 -0.28,-1.77 -3.81,-3.43 -4.1,-5.42l5.09 4.35c1.02,1.09 0.33,1.38 0.75,2.51 0.98,0.01 9.01,-1.21 4.86,-4.05 -1.68,-1.15 -5.95,-3.27 -6.86,-4.65 -0.06,-0.09 -1.84,-8.54 -1.95,-9.29 -0.33,-2.24 -0.08,-2.94 -1.76,-3.94 -1.26,-0.75 -2.42,-1.45 -3.73,-2.14 -3.48,-1.85 -2.92,-3.53 -7.73,-1.78 -2.15,0.79 -3.17,0.22 -5.02,0.63 -1.92,0.43 -4.64,4.22 -5.71,5.81 -3.05,4.51 -0.08,4.76 -6.44,5.09 -0.85,0.04 -1.88,0.04 -2.59,0.32 -0.79,0.32 -0.89,0.82 -1.46,1.41z"/>
   <path class="fil5" d="M43.58 81.59l0.13 -2.92 -4.1 0.25 -5.17 0.18 0.44 -4.75c8.22,-1.16 9.59,1.51 8.94,-7.97 -1.86,-0.33 -6.94,0.68 -8.59,0.07 -0.14,-1.87 -0.18,-2.93 0.78,-4.09l9.21 0.01 -0.9 13.51c0.93,-0.27 4.04,-1.55 5.15,-2.06 1.81,-0.84 1.56,-1.2 1.74,-5.39 0.18,-4.14 1.09,-9.94 0.86,-13.84 -2.49,-0.05 -4.12,0.12 -6.48,-0.27 -2,-0.34 -4.37,-0.1 -6.07,0.46 -1.6,0.52 -8.41,3.03 -9.57,3.79 -0.85,0.56 -0.72,1.34 -0.82,2.62l-0.87 9.04c-0.19,2.23 -1.28,10.57 -1,12.09 2.03,0.2 3.34,-0.78 5.51,0.59 1.81,1.15 1.5,2.59 1.55,4.98 2.04,0 1.56,-0.55 2.11,-2.29 0.41,-1.31 1.03,-1.7 2.52,-1.56 1.38,1.35 0.85,1.54 0.78,3.63l3.25 -0.11c0.39,-0.81 0.74,-4.92 0.63,-5.97z"/>
   <path class="fil3" d="M43.47 31.31c-0.19,-0.73 -0.06,-3.93 0.22,-4.61 0.56,-1.32 3,-0.09 3.52,0.44 1.82,1.86 -0.19,5.4 -3.74,4.17zm-7.99 17.3c1.3,-0 5.72,-1.95 6.83,-2.47 0.21,-1.72 -0.01,-5.45 0.65,-6.89 1.68,0.38 1.97,4.1 2.25,5.48 1.12,-0.02 5.97,-2.03 6.97,-2.52 0.13,-2.38 -1.36,-3.68 -1.94,-5.18 1.38,-1.77 2.49,-2.62 3.61,-5.35 0.93,-2.27 1.31,-5.41 0.78,-8.1 -1.26,-6.4 -8.62,-5.4 -15.08,-5.06 -1.09,0.06 -1.2,-0.03 -1.41,0.86 -0.21,0.86 -0.3,3.1 -0.39,4.11 -0.36,3.99 -2.38,22.89 -2.27,25.12z"/>
   <path class="fil5" d="M59.95 66.32c-0.18,-0.72 -0.06,-3.71 0.12,-4.47 0.23,-0.97 0.62,-0.84 1.84,-0.64 2.76,0.46 2.78,3.16 1.86,4.31 -0.82,1.01 -2.2,1.16 -3.82,0.8zm6.76 5.71c1.29,-1.6 2.77,-3.05 3.67,-5.53 0.81,-2.24 1.25,-5.61 0.69,-8.11 -1.27,-5.65 -7.09,-5.26 -13.04,-4.97 -3.54,0.17 -3.29,-0.04 -3.43,1.42l-1.95 20.58c-0.18,2.05 -0.86,6.54 -0.66,8.33 0.9,-0.22 5.45,-1.91 6.21,-2.35 1.29,-0.74 0.45,-4.58 1.08,-7.24 2.09,0.47 1.44,3.82 2.64,5.55 1.06,-0.12 5.62,-1.98 6.74,-2.51 0.23,-2.44 -1.58,-3.79 -1.95,-5.16z"/>
   <path class="fil5" d="M20.04 67.29l-2.16 0.24c-0.1,-0.8 -0.09,-1.18 0.27,-1.78l0.23 -2.32 8.28 -0.22c0.38,-1.4 1.01,-7.45 0.73,-8.84 -0.98,-0.28 -14.26,0.33 -15.35,0.72 -0.52,1.34 -3.78,31.86 -3.55,32.65 0.71,0.04 6.57,-2.38 7.05,-2.91 1.06,-1.16 0.5,-7.37 1.5,-8.63 0.37,-0.39 0.41,-0.3 1.72,-0.39 0.62,-0.04 1.19,-0.08 1.83,-0.11 1.07,-0.06 2.53,-0.12 3.57,-0.34 0.48,-0.89 1.13,-6.88 0.91,-8.37l-5.03 0.3z"/>
   <path class="fil3" d="M72.53 50.83c1.88,0.35 13.48,-0.05 15.76,-0.34 1.28,-2.03 0.62,-6.18 0.57,-8.86 -1.59,0.11 -2.65,0.51 -4.34,0.53 -1.53,0.02 -3.25,0.05 -4.75,0.04 -1.01,-2.8 -1.41,-0.86 -2.63,-3.68 -0.79,-1.83 -0.56,-3.77 0.6,-4.88 2.92,-2.81 9.34,-0.97 10.96,-1.85 0.74,-0.47 0.82,-1.58 0.77,-2.66 -2.31,-0.43 -5.83,0.44 -8.37,0.21 -1.12,-6.23 3.61,-2.78 8.57,-3.73 0.98,-0.19 1.01,-2.17 1.05,-3.27 0.06,-1.51 -0.49,-2.32 -0.95,-3.44 -0.63,-1.52 -0.81,-1.59 -2.77,-1.53 -2.4,0.07 -7.52,2.34 -9.81,3.28 -2.54,1.04 -2,0.47 -2.52,6.17 -0.33,3.67 -2.41,21.97 -2.15,23.99z"/>
   <path class="fil5" d="M80.11 72.37c0.14,-1.5 1.12,-4.74 1.55,-6.53 0.49,-2.04 0.39,-1.51 0.96,-1.79l0.79 8.07 -3.31 0.25zm-3.41 13.28c0.4,-1.32 0.89,-4.44 1.55,-5.39 1.03,-0.09 2.07,-0.04 3.1,-0.04 0.84,0 2.12,-0.15 2.63,0.25 0.73,0.97 0.06,3.36 0.53,4.64 1.47,0.33 3.51,0.11 5.07,0.08 -0.02,-1.14 -0.23,-2.11 -0.23,-3.24 0.03,-5.66 -0.52,-3.52 -1.07,-8.24 -0.31,-2.68 -0.75,-9.3 -1.38,-11.29 -0.95,-0.36 -2.96,0.57 -3.8,0.95 -2.21,0.98 -6.33,1.65 -6.99,2.76l-3.25 11.21c-0.32,1.13 -1.58,6.75 -2.45,7.43 -0.28,-1.88 -0.24,-4.79 -1.27,-6.28 -0.96,0.08 -5.38,1.85 -6.31,2.34 -0.17,0.95 0.46,4.41 0.89,5.37 1.25,0.17 4.96,-0.18 6.31,-0.35 2.27,-0.28 4.36,-0.03 6.65,-0.2z"/>
   <path class="fil3" d="M61.56 42.81l0.56 -7.74c-1.35,0.23 -2.36,0.75 -3.44,1.18 -0.7,0.27 -2.8,0.96 -3.14,1.41 -1.08,2.11 -0.22,8.43 -1.31,10.43l-1.26 -4.59c-1.23,0.01 -5.46,1.69 -6.66,2.34 -0.16,1.29 0.8,4.53 1.13,5.93 2.76,0.41 8.5,0.02 11.55,-0.03 4.09,-0.07 6.76,-0.41 9.16,-2.61 1.92,-1.76 3.33,-4.45 4.05,-7.75 0.49,-2.23 1.33,-8.18 0.94,-10.6 -0.91,0.06 -3.29,1.09 -4.24,1.46 -2.76,1.08 -2.35,0.22 -2.48,3.44 -0.07,1.61 -0.38,3.59 -0.88,4.99 -0.63,1.75 -1.83,1.97 -3.98,2.15z"/>
   <path class="fil3" d="M55.48 36.5l5.86 -2.33c2.42,-1.18 0.31,-4.9 1.71,-7.56 3.7,-0.2 3.25,3.44 3.61,4.98 1.03,0.09 5.62,-1.97 6.53,-2.46 0.12,-3.41 -0.76,-7.12 -2.74,-8.99 -2.79,-2.65 -8.14,-2.46 -12.4,-2.1 -1.26,0.11 -1.06,0.42 -1.15,1.83 -0.34,5.31 -1.21,11.4 -1.43,16.65z"/>
   <path class="fil5" d="M8.1 13.61c-0.76,-1.78 0.22,-3.13 1.31,-4.26 3.98,-4.13 10.98,-3.35 8.95,4.01 -1.76,6.38 -7.79,10.08 -9.04,8.97 -0.71,-0.63 -0.14,-4.42 0.34,-5.28 1.33,-0.27 2.79,0.51 4.42,-0.07 0.64,-2.34 -1.25,-1.8 -2.91,-2.38 0.08,-0.63 2.39,-3.02 0.13,-3.34 -1.76,-0.25 -1.13,2.23 -3.2,2.34zm5.34 -8.94c-5.84,1.02 -9.65,6.95 -7.41,9.9 0.97,1.28 1.72,0.82 1.07,2.61 -1.53,4.24 -0.02,9.52 4.86,7.34 3.8,-1.7 7.04,-5.32 8.44,-9.81 0.59,-1.89 0.68,-6.38 -0.41,-7.8 -1.39,-1.8 -3.54,-2.78 -6.55,-2.25z"/>
   <path class="fil6" d="M127.67 88.58c-0.12,-2.03 0.43,-3.36 0.5,-5.11 -1.6,-0.33 -12.88,1.81 -14.74,2.33 -0.03,0.88 0.24,1.6 0.48,2.23 2.43,0.34 7.67,-1.62 9.45,-0.65l-0.92 0.47c-0.26,0.08 -0.62,0.15 -0.9,0.23 -1.6,0.41 -4.63,0.85 -5.31,1.42l1.95 0.6c-1.03,0.58 -2.81,0.15 -4.11,0.21 0.05,1.26 0.63,2.62 1.16,3.36 2.93,0.2 12.76,-1.95 13.98,-3.57 -0.26,-0.64 -0.94,-1.02 -1.54,-1.52z"/>
   <path class="fil5" d="M87.82 59.61c0.24,-1.51 -0.63,-5.52 -0.76,-7.39l-7.9 0.48c-0.64,1.3 -3.07,9.93 -3.29,11.64l11.95 -4.73z"/>
   <path class="fil6" d="M108.73 88.22l-0.5 -2.51 -10.14 -0.08c-0.01,0.74 0.83,2.36 1.12,3.09 0.83,2.08 0.25,2.04 0.42,3.86 2.26,1.43 10.74,1.44 13.76,1.1 0.09,-1.09 -0.24,-2.97 -0.92,-3.56 -1.15,-0.61 -6.05,0.8 -8.05,0.42 0.39,-0.47 0.3,-0.38 1.16,-0.62 0.97,-0.26 0.81,-0.08 1.27,-0.51 -0.81,-0.41 -3.03,-0.41 -4.59,-0.76 -1.04,-0.24 -0.73,0.05 -1.07,-0.6 1.62,-0.78 5.53,0.12 7.54,0.16z"/>
   <path class="fil5" d="M44.27 87.18c1.6,0 3.19,-0.15 4.81,-0.21 2.24,-0.08 1.6,-0.98 1.8,-3.2 0.19,-2.03 0.88,-7.4 0.65,-9.02 -1.04,0.08 -2.71,0.89 -3.7,1.27 -1.52,0.58 -2.57,0.48 -2.77,2.1 -0.26,2.13 -0.94,7.17 -0.79,9.06z"/>
   <path class="fil3" d="M103.48 30.45c-2.52,1.02 1.87,3.84 5.27,4.41 3.53,0.59 7.78,-0.05 8.34,-3.03l-0.32 -0.2c-0.33,-0.15 -0.09,-0.09 -0.52,-0.2 -0.32,-0.09 -0.79,-0.12 -1.13,-0.18 -4.13,-0.77 -4.17,-2.55 -8.08,-2.2 -1.45,0.13 -1.58,-0.08 -1.42,1.08 0.12,0.88 0.26,1.73 -0.8,1.75 -1.02,0.02 -0.68,-0.69 -1.35,-1.42z"/>
   <path class="fil3" d="M10.3 53.15l0.77 -5.82c-1.45,0.18 -4.56,1.18 -6.25,1.65 -1.17,0.33 -1.08,0.24 -1.25,1.54 -0.35,2.64 -0.89,2.7 1.66,2.66 1.65,-0.02 3.44,0.07 5.07,-0.04z"/>
   <path class="fil3" d="M101 31.85c0.6,-0.89 0.61,-1.39 1.25,-2.16 0.63,-0.76 1.1,-1.18 0.91,-2.51 -1.03,0.12 -0.63,0.7 -2.09,0.28 -0.35,-0.82 -0.23,-1.27 0.12,-1.93 1.51,0.02 0.53,0.29 1.54,0.62 -0.04,-0.87 -0.14,-0.91 -0.94,-1.23 -2.22,-0.87 -4.22,-1.45 -4.81,1.08 -0.7,2.96 0.9,6.47 4.01,5.86z"/>
   <path class="fil7" d="M110.87 48.26c0.35,3 -0.59,0.04 0.77,5.94 0.48,2.1 1.16,4.36 3.64,3.01 3.08,-1.68 -1.34,-8.48 -4.41,-8.95z"/>
   <path class="fil3" d="M36.23 49.49l-0.25 2.61 6.48 -0.13 0.4 -4.89c-1.64,0.15 -5,1.76 -6.63,2.4z"/>
   <path class="fil8" d="M24.42 18.22c-1.9,-0.08 -3.54,-1.64 -3.92,0.51 0.95,1.36 4.45,2.08 5.91,0.68 0.52,-2.26 -1.17,-2.7 -1.31,-4.55 0.86,-0.42 2.25,-0.54 2.19,-1.54 -0.08,-1.28 -2.08,-0.79 -2.77,-0.37 -2.69,1.65 -0.45,3.98 -0.11,5.26z"/>
   <path class="fil0" d="M11.3 9.42c0.91,1.37 1.73,0.49 2.33,3.21 0.33,1.52 0.19,0.87 1.19,1.49 0.68,0.42 0.31,0.05 0.61,0.75l0.42 1 0.6 -1.25c1.72,-4.92 1.22,-8.14 -5.16,-5.2z"/>
   <path class="fil8" d="M58.85 86.55c0.39,-0.94 0.41,-3.34 0.45,-4.47 -1.4,0.2 -5.15,1.8 -6.62,2.43l-0 2.2 6.18 -0.17z"/>
   <path class="fil9" d="M96.66 75.68c-0.71,-0.19 -6.14,-0.33 -5.88,1.95 0.21,1.82 1.59,1.25 2.72,0.93 1.22,-0.35 2.08,-0.3 3.37,-0.5 0.18,-0.84 -0,-1.72 -0.21,-2.38z"/>
   <path class="fil9" d="M108.05 69.61c0.24,-2.02 -0.89,-2.37 -2.76,-2.38 -2.04,-0.01 -3.52,-0.56 -3.17,1.9 1.45,0.76 4.2,1.15 5.92,0.48z"/>
   <path class="fil8" d="M16.63 85.92c-1.28,0.27 -4.22,1.79 -5.67,2.47 -1.73,0.8 -1.22,0.42 -1.55,1.08l6.98 -0.02 0.24 -3.52z"/>
   <path class="fil9" d="M122.76 75.42c0.04,0.78 1.92,1.12 2.79,1.42 1.19,0.42 2.65,1.33 2.61,-0.49 -0.06,-2.9 -5.46,-2.18 -5.4,-0.93z"/>
   <path class="fil3" d="M99.25 94.61c-0.52,-1.31 -1.2,-1.19 -2.58,-0.69 -0.54,0.19 -2.46,0.71 -2.71,1.12 -0.91,1.46 4.22,1.59 5.29,-0.43zm-8.83 -0.7c0.77,0.38 1.4,0.19 2.04,-0.17l-0.06 -0.94c-1.02,-0.71 -2.26,-0.47 -1.98,1.11zm-33.93 5.22c0.27,-0.64 0.28,-0.53 0.88,-0.95 1.1,-0.77 2.84,-2.15 3.78,-2.52 -0.3,1.66 -2.68,3.45 -4.66,3.48zm13.83 -7.45c-0.76,1.05 -2.79,1.72 -2.51,-0.67 0.57,-0.02 0.97,0 1.55,0.11 0.96,0.18 0.86,0.42 0.97,0.57zm-13.9 0.77c0.28,-1.04 1.81,-2.36 3.03,-1.9 -0.29,1.14 -1.54,1.81 -3.03,1.9zm-7.04 -0.65c0.27,-0.96 1.21,-1.95 2.31,-1.47 -0.27,1.02 -1.06,1.34 -2.31,1.47zm20.26 -2.83c0.67,-0.33 0.48,-0.33 1.08,0 -0.11,0.1 0.4,0.33 -0.62,0.3 -0.98,-0.03 -0.18,-0.04 -0.45,-0.3zm-31.87 3.19c0.21,-1.75 0.74,-3.6 1.11,-5.22 0.58,-2.55 -1.17,-3.01 -1.83,-0.72 -0.75,2.61 -2.18,7.97 -1.18,10.5 2.98,-0.05 2.76,-4.62 6.94,-5.51 0.03,1.57 -0.45,3.35 0.85,4.1 1.54,0.89 2.64,-0.24 3.61,-0.71 1.55,0.54 1.61,1.6 4.14,1.01 1.42,-0.33 3.17,-1.74 3.5,-1.73 1.35,0.05 1.56,1.32 4.12,-0.16 2.26,-1.3 1.43,-2.26 2.97,-2.5 0.61,1.7 -0.57,2.01 -1.64,2.7 -0.98,0.63 -1.98,1.23 -2.89,1.85 -1.71,1.17 -4.89,3.61 -1.78,5.12 2.22,1.08 5.44,-1.76 6.25,-2.68 2.71,-3.05 0.86,-4.12 3.85,-5.35 1.33,0.71 1.99,2.88 4.78,1.12 2.09,-1.32 1.05,-3.21 4.03,-2.94 0.65,1.54 0.7,2.79 3.07,2.16 1.47,-0.39 2.13,-1.59 3.25,-2.05 1.53,0.95 2.07,2.28 4.62,0.87 0.89,-0.5 2.99,-1.6 2.84,-2.77 -0.29,-2.26 -3.35,1.44 -5.1,1.42 -0.43,-1.39 0.22,-1.57 0.07,-2.78 -0,-0.04 -0.05,-0.08 -0.05,-0.17 -0,-0.09 -0.03,-0.12 -0.06,-0.17 -1.9,-1.03 -4.19,3.89 -6.59,3.66 -0.18,-1.49 2.05,-3.79 -0.05,-3.98 -1.39,-0.12 -0.94,2.03 -3.81,1.77 -0.55,-1.04 -0.37,-1.86 -1.69,-2.15 -3.61,-0.79 -4.33,3.9 -6.89,4.38 -0.95,-2.43 -0.92,-1.34 -3.2,-2.43 -4.7,-2.24 -6.66,4.47 -10.31,4.89 1.19,-0.98 2.51,-0.96 2.88,-2.75 0.42,-2 -1.06,-2.8 -2.9,-2.6 -3.31,0.35 -3.38,4.82 -5.96,5.23 -0.08,-2.51 0.73,-5 -2.71,-4.19 -2.36,0.56 -2.73,1.99 -4.23,2.77zm-7.06 -2.23c1.37,0.43 1.88,-0.4 2.41,-1.56 3.15,-6.98 -7.42,-7.69 -15.47,1.25 -5.96,6.61 -3.81,17.99 11.53,10.63 9.05,-4.34 5.1,-5.14 4.19,-4.65 -0.78,0.42 -1.69,1.09 -2.53,1.57 -2.49,1.43 -9.39,4.73 -12.52,3.17 -1.89,-0.95 -2.18,-3.84 -1.34,-6.18 1.47,-4.07 10.34,-11.29 14.69,-8.58 0.24,2.3 -1.59,2.65 -0.96,4.36zm63.54 -10.91c0.29,0.55 -0.18,0.8 0.75,0.47 -0.29,-0.63 0.5,-0.43 -0.75,-0.47zm8.13 -12.91l1.42 -0.39c-0.46,-0.59 -0.31,-0.39 -1.22,-0.54l-7.47 -1.31c0.46,0.92 4.4,4.06 5.9,4.12 0.6,-0.86 0.57,-1.6 1.36,-1.87zm-9.35 -2.34c-4.39,-3.29 -1.73,-3.52 -3.53,-3.65 -0.71,1.1 1.69,2.73 1.98,3.79 -1.07,0.87 -1.11,0.58 -1.54,2.21 -0.23,0.89 -0.5,2.1 -0.24,3.06 0.4,1.48 2.51,2.9 4.45,3.17 -0.58,-1.87 -2.32,-2.45 -2.58,-5.07 1.06,0.39 1.65,1.65 2.39,2.34 2,1.86 2.13,1.13 2.92,1.16 0.95,1.37 1.16,2.54 2.55,3.38 1.88,0.07 5.73,-0.5 6.73,-1.67 -0.51,-0.61 -3.82,-1.9 -4.83,-2.57l-8.3 -6.15zm0.75 10.31c-0.13,-0.92 -0.83,-1.33 -1.61,-1.39l-0.76 0.14c-0.35,0.72 -0.15,0.89 0.38,1.89 0.95,0.1 1.35,-0.03 1.99,-0.64zm15.59 -5.41c-0.34,0.65 -0.4,1.42 0,2.12 0.53,-0.68 0.45,-1.48 0,-2.12zm1.41 -1.89c0.71,0.39 2.22,0.32 3.12,0.29 2.82,-0.1 3.14,-0.69 4.77,-1.99 1.95,-1.55 3.42,-3.21 5.03,-5.13 0.51,-0.61 1.07,-1.1 1.27,-2.01 -1.86,0.41 -13.42,6.42 -16.15,7.24l1.96 1.6zm16.91 -10.88c-1.53,3.87 -6.04,8.02 -8.69,10.19 -1.84,1.5 -3.37,2.68 -5.45,4.03l-5.97 3.49c1.19,-0.07 2.28,-0.48 3.48,-0.33 -0.47,0.94 -3.2,1.1 -4.33,1.7 0.61,0.33 2.04,0.11 2.95,0.14l-0.91 0.59c-0.2,0.08 -0.25,0.06 -0.5,0.17 -0.59,0.24 -0.19,0.02 -0.5,0.27 2.91,0.86 13.7,-1.63 16.25,-2.77 7.11,-3.17 5.28,-11.97 3.42,-12.83 -0.77,0.47 -2.02,2.22 -2.78,3.08 -0.64,0.72 -2.15,2.29 -3.26,2.58 0.5,-1.09 1.51,-1.66 2.28,-2.66 1.57,-2.01 5.18,-6.56 5.17,-9.12 -1.18,0.01 -1.84,0.1 -2.25,1.03l0.57 -0.06 0.56 -0.06 -0.04 0.58zm-22.56 22.3c1.28,0.03 3.04,0.47 4.48,0.6 3.31,0.3 12.15,0.45 14.47,-0.66 -0.17,-0.58 -0.04,-0.66 -1.44,-1.3 -2.29,-1.04 -4.26,-0.6 -7.02,-0.29 -2.63,0.3 -7.5,0.98 -9.86,0.84 -0.91,0.01 -1.24,-0.14 -1.66,0.57l1.01 0.24zm23.91 3.21l0.14 -0.6c-4.45,-1.57 -3.14,-2.33 -8.51,-0.67 -1.26,0.39 -6.93,2.23 -8.34,2.02 -0.59,-0.09 -0.11,0.08 -0.47,-0.25l3.97 -1.51c-0.63,-0.35 -13.32,-1.85 -15.04,-1.87 -0.67,0.52 -0.37,0.54 -0.97,1.13 -0.36,0.35 -0.77,0.5 -1.19,0.79 -0.09,2.69 2.71,1.17 3.53,2.95 -2.67,0.01 -4.24,-1.96 -4.29,0.82 4.35,0.57 12.41,0.47 16.81,-0.07 2.56,-0.31 5,-0.69 7.41,-1.16 1.81,-0.35 5.57,-1.54 6.95,-1.58zm-35.69 9.59c0.82,-1.19 1.92,-4.11 2.61,-5.72 0.42,-0.98 0.9,-1.92 1.26,-2.84 0.61,-1.55 -0.35,-2.34 -1.7,-1.65 -0.68,0.35 -2.23,4.58 -2.68,5.65 -0.79,1.85 -3.13,5.11 0.51,4.55zm35.61 -12.39c-1.1,0.45 -0.58,0.06 -0.83,0.71l0.9 0.3c0.69,-0.33 0.21,0.01 0.41,-0.54 0.44,-2 1.31,-4.9 -1.32,-5.08l1.07 0.77c0,0 0.48,3.99 -0.22,3.84zm-0.59 -6.61c-0.43,0.08 -0.3,0.2 -0.48,0.51 0.08,0.06 -0.33,0.43 0.65,0.28 0.73,-0.11 0.31,-0.16 0.47,-0.5 -0.16,-0.14 0.34,-0.46 -0.64,-0.28zm2.88 20.38c1.17,0.12 2.23,0.18 3.41,0.02 1.07,-0.14 1.93,-0.27 2.25,-1.15 -0.7,-0.61 -2.21,-0.77 -3.39,-0.7 -1.55,0.09 -2.17,0.33 -2.27,1.83z"/>
   <path class="fil9" d="M99.86 77.45c1.56,0.26 4.02,-0.24 4.07,-2.08 -1,-0.66 -3.01,-0.66 -4.28,0.05 -0.21,0.96 -0.02,1.26 0.22,2.03z"/>
   <path class="fil8" d="M30.05 88.02c0.39,-0.64 0.97,-1.28 0.7,-2.2 -1.39,-0.3 -3.15,0.19 -4.03,0.63 -0.14,1.2 -0.34,1.57 0.85,1.73 0.53,0.08 1.93,-0.06 2.48,-0.16z"/>
   <path class="fil9" d="M130.95 77.14c-0.67,2.17 0.34,3.69 2.31,3.67 0.42,-1.15 0.13,-1.62 -0.49,-2.38 -0.49,-0.59 -0.79,-1.39 -1.82,-1.29z"/>
   <path class="fil3" d="M10.05 21.37c0.56,-0.03 3.39,-1.33 3.56,-2.41 -0.66,-0.32 -2.15,-0.4 -2.96,-0.25 -0.72,0.13 -0.62,0.11 -0.7,0.9 -0.05,0.48 0.02,1.28 0.1,1.75z"/>
   <polygon class="fil6" points="109.82,88.08 112.61,88.1 111.83,85.49 109.46,85.77 "/>
   <path class="fil8" d="M30.14 56.6c0.86,0.03 1.15,-0.35 1.8,-0.78 0.64,-0.42 1.19,-0.5 1.29,-1.41 -0.53,-0.37 -1.97,-0.57 -2.68,-0.27 -0.82,0.35 -0.66,1.68 -0.41,2.46z"/>
   <path class="fil10" d="M75.24 19.87c1.17,0.07 2.07,-0.66 2.21,-1.58 -1.61,-1.16 -2.45,-0.26 -2.21,1.58z"/>
   <path class="fil11" d="M98.74 79.14c0.97,-0.8 0.09,-3.49 -1.03,-3.94 0.13,0.69 0.34,1.19 0.44,1.89 0.15,1.03 -0.14,1.51 0.59,2.04z"/>
   <path class="fil12" d="M43.58 81.59l0.26 -0.74c0.01,-0.08 0.04,-0.57 0.04,-0.68 0.03,-0.64 0.04,-0.99 -0.03,-1.62 -0.84,-0.14 -3.86,-0.2 -4.25,0.38l4.1 -0.25 -0.13 2.92z"/>
   <path class="fil13" d="M37.04 22.87c0.03,-0.05 0.08,-0.19 0.09,-0.16 0.01,0.03 0.07,-0.13 0.08,-0.17 0.21,-0.88 0.31,-3.27 0.04,-3.95 -1.08,-0.2 -2.22,-0.2 -2.99,0.07 -0.04,0.01 -0.11,0.06 -0.16,0.09l3.11 0 -0.16 4.14z"/>
   <path class="fil14" d="M30.88 30.68l-3.7 0.15 0.06 -3.02 -0.33 1.31c-0.07,0.86 -0.15,0.89 0.12,1.71 0.8,0.37 1.87,0.24 2.85,0.14 0.09,-0.01 0.36,-0.04 0.44,-0.06 0.54,-0.12 0.44,-0.16 0.57,-0.22z"/>
   <path class="fil12" d="M20.04 67.29l-2.02 0.07 0.14 -1.6c-0.36,0.6 -0.38,0.98 -0.27,1.78l2.16 -0.24z"/>
   <path class="fil15" d="M129.02 81.39c0.22,-0.14 0.95,-0.56 0.14,-0.6l-0.14 0.6z"/>
  </g>
 </g>
</svg>
