<?xml version="1.0" encoding="UTF-8"?>
<!DOCTYPE svg PUBLIC "-//W3C//DTD SVG 1.1//EN" "http://www.w3.org/Graphics/SVG/1.1/DTD/svg11.dtd">
<!-- Creator: CorelDRAW -->
<svg xmlns="http://www.w3.org/2000/svg" xml:space="preserve" width="25.5mm" height="19.2498mm" version="1.1" style="shape-rendering:geometricPrecision; text-rendering:geometricPrecision; image-rendering:optimizeQuality; fill-rule:evenodd; clip-rule:evenodd"
viewBox="0 0 48.14 36.34"
 xmlns:xlink="http://www.w3.org/1999/xlink"
 xmlns:xodm="http://www.corel.com/coreldraw/odm/2003">
 <defs>
  <style type="text/css">
   <![CDATA[
    .str0 {stroke:black;stroke-width:0.38;stroke-miterlimit:22.9256}
    .str1 {stroke:black;stroke-width:0.38;stroke-miterlimit:22.9256}
    .fil1 {fill:none}
    .fil0 {fill:#282829}
    .fil18 {fill:black}
    .fil2 {fill:#010101}
    .fil10 {fill:#353335}
    .fil11 {fill:#434142}
    .fil16 {fill:#444243}
    .fil13 {fill:#454344}
    .fil15 {fill:#494748}
    .fil3 {fill:#4A4849}
    .fil6 {fill:#4B494A}
    .fil9 {fill:#656565}
    .fil8 {fill:#7B7B7B}
    .fil5 {fill:#A1A1A1}
    .fil4 {fill:#C8C8C8}
    .fil19 {fill:#D60000}
    .fil12 {fill:#EEEEEE}
    .fil7 {fill:#FB6500}
    .fil14 {fill:#FEFEFE}
    .fil17 {fill:white}
   ]]>
  </style>
 </defs>
 <g id="Camada_x0020_1">
  <metadata id="CorelCorpID_0Corel-Layer"/>
  <g id="_2483693355360">
   <path class="fil0 str0" d="M6.93 11.44c-0.16,0.12 -0.36,0.19 -0.58,0.21 -0.04,0 -0.08,0 -0.11,0 -0.16,0.02 -0.35,0.09 -0.62,-0.02 -0.26,-0.11 -0.35,-0.32 -0.36,-0.55 -0.05,0.05 -0.1,0.09 -0.15,0.13 -0.17,0.12 -0.38,0.18 -0.58,0.16 -0.05,0.02 -0.1,0.03 -0.15,0.03 -0.16,0.33 -0.39,0.66 -0.85,0.7 -0.04,0 -0.09,0 -0.13,0 -0.06,0.02 -0.13,0.03 -0.2,0.04 -0.35,0.03 -0.64,-0.14 -0.78,-0.42 -0.09,-0.17 -0.1,-0.39 -0.08,-0.62 -0.06,0.05 -0.12,0.09 -0.19,0.12 -0.14,0.06 -0.29,0.09 -0.45,0.08 -0.31,0.09 -0.68,0.02 -0.9,-0.2 -0.24,-0.24 -0.23,-0.58 -0.19,-0.87 0.06,-0.5 0.25,-1.05 0.41,-1.53 0.45,-1.35 0.94,-2.68 1.37,-4.04 0.13,-0.4 0.24,-0.95 0.66,-1.15 0.14,-0.06 0.28,-0.09 0.42,-0.08 0.24,-0.08 0.51,-0.04 0.72,0.09 0.2,0.12 0.31,0.3 0.36,0.5 0.12,-0.16 0.24,-0.31 0.38,-0.42 0.19,-0.16 0.44,-0.25 0.68,-0.23 0.28,-0.09 0.58,-0.05 0.78,0.2 0.35,0.42 0.05,1.15 -0.11,1.58 -0.12,0.34 -0.25,0.67 -0.37,1.01 0.47,-0.9 0.83,-1.6 1.41,-2.48 0.17,-0.26 0.4,-0.62 0.75,-0.72 0.21,-0.06 0.22,-0.01 0.33,-0.04 0.45,-0.13 0.77,0.16 0.89,0.5 0.09,-0.09 0.2,-0.17 0.33,-0.22 0.12,-0.05 0.25,-0.06 0.37,-0.05 0.2,-0.06 0.41,-0.06 0.6,0.04 0.03,0.02 0.06,0.03 0.09,0.05 0.34,-0.22 0.81,-0.46 1.23,-0.5 0.05,-0 0.09,-0.01 0.14,-0.01 0.06,-0.01 0.13,-0.03 0.19,-0.03 0.29,-0.03 0.54,0.04 0.74,0.19 0.13,-0.05 0.26,-0.07 0.39,-0.06 0.36,-0.12 0.74,0.02 0.93,0.34 0.02,0.03 0.03,0.06 0.05,0.09 0.35,-0.21 0.74,-0.38 1.11,-0.56 0.3,-0.15 0.63,-0.33 0.99,-0.31 0.14,-0.04 0.29,-0.05 0.43,-0.03 0.41,0.06 0.69,0.37 0.8,0.69 0.34,0.03 0.54,0.26 0.66,0.52 0.2,-0.39 0.59,-1.08 0.97,-1.33 0.16,-0.11 0.35,-0.16 0.54,-0.14 0.17,-0.06 0.35,-0.06 0.53,0.01 0.29,0.12 0.39,0.37 0.47,0.62 0.16,0.46 0.26,0.54 0.14,1.11 -0.05,0.23 -0.12,0.46 -0.19,0.69 0.73,-0.8 1.55,-1.51 2.48,-2.12 0.36,-0.24 0.78,-0.5 1.24,-0.54 0.04,-0 0.09,-0.01 0.13,-0.01 0.07,-0.01 0.13,-0.03 0.2,-0.03 0.99,-0.09 1.42,0.66 1.35,1.46 -0.04,0.38 -0.27,1.24 -0.72,1.4 0.13,0.14 0.26,0.28 0.4,0.41l1.71 -2.71c0.12,-0.19 0.24,-0.4 0.38,-0.57 0.22,-0.26 0.53,-0.44 0.86,-0.41 0.21,-0.07 0.45,-0.06 0.69,0.08 0.33,0.19 0.52,0.58 0.58,0.91 0.04,0.23 0.02,0.45 -0.04,0.68l0.12 -0.41c0.11,-0.25 0.34,-0.56 0.56,-0.74 0.21,-0.17 0.51,-0.32 0.8,-0.3 0.2,-0.06 0.41,-0.06 0.6,0.04 0.22,0.12 0.27,0.28 0.29,0.45 0.39,-0.26 0.82,-0.46 1.28,-0.62 0.27,-0.1 0.54,-0.17 0.82,-0.18 0.22,-0.04 0.45,-0.06 0.7,-0.01 0.42,0.08 0.86,0.32 1.1,0.63 0.28,0.37 0.25,0.78 0.14,1.19 -0.22,0.83 -0.83,1.96 -1.32,2.73l0.89 -0.57c0.06,-0.06 2,-2.97 2.57,-3.64 0.23,-0.27 0.49,-0.53 0.86,-0.64 0.13,-0.04 0.27,-0.06 0.4,-0.06 0.29,-0.07 0.6,-0.05 0.84,0.12 0.3,0.2 0.36,0.52 0.35,0.83 -0.02,0.7 -0.56,2.15 -0.83,2.89 0.05,0.01 0.09,0.01 0.14,0.02 0.44,-0.53 3.59,-2.97 4.23,-3.4 0.33,-0.22 0.69,-0.41 1.02,-0.63 0.25,-0.17 0.53,-0.42 0.84,-0.5 0.2,-0.05 0.26,-0.02 0.33,-0.04 0.48,-0.13 0.86,0.14 1.02,0.51 0.11,0.25 0.15,0.57 0.17,0.84 0.04,0.6 -0.24,1.26 -0.47,1.82 -0.16,0.39 -0.45,1.11 -0.81,1.39 0.6,0.27 0.73,0.76 0.78,1.3 0.04,0.46 0.04,0.98 -0.03,1.44 -0.07,0.45 -0.22,0.79 -0.47,1.18 -0.27,0.4 -0.6,0.79 -1,1.11 -0.25,0.2 -0.53,0.37 -0.82,0.53 -0.69,1.18 -1.58,2.52 -2.38,3.71 -1.02,1.51 -1.89,2.78 -2.33,4.02 -0.43,1.24 -0.43,2.46 -0.46,3.43 -0.03,0.97 -0.08,1.71 -1.18,2.08 -1.09,0.37 -3.22,0.37 -5.93,0.71 -2.71,0.34 -6,1.02 -8.47,1.46 -2.47,0.44 -4.13,0.64 -6.02,0.63 -1.89,-0.01 -4.03,-0.23 -5.06,-0.87 -1.03,-0.64 -0.95,-1.7 -0.26,-3.55 0.69,-1.85 1.99,-4.49 1.71,-6.05 -0.28,-1.56 -2.15,-2.03 -3.43,-2.33 -1.29,-0.3 -1.99,-0.43 -2.83,-0.94 -0.44,-0.26 -0.91,-0.63 -1.2,-1.11l-0.35 -0.09zm3.96 -5.72c0.03,-0.05 0.07,-0.11 0.1,-0.16l-0.29 0.28 0.19 -0.12z"/>
   <path class="fil1 str0" d="M5.8 32.57c0.1,-0.4 0.29,-1.02 0.48,-1.5 0.19,-0.48 0.4,-0.82 0.57,-1.07 0.17,-0.25 0.31,-0.41 0.51,-0.53 0.19,-0.12 0.43,-0.2 0.72,-0.37 0.29,-0.17 0.62,-0.41 0.91,-0.63 0.29,-0.22 0.55,-0.41 0.81,-0.52 0.26,-0.11 0.52,-0.15 0.75,-0.15 0.23,0 0.42,0.04 0.59,0.12 0.17,0.08 0.3,0.2 0.38,0.39 0.08,0.19 0.1,0.43 0,0.79 -0.1,0.36 -0.31,0.83 -0.65,1.4 -0.34,0.57 -0.81,1.25 -1.26,1.78 -0.45,0.53 -0.89,0.92 -1.27,1.2 -0.37,0.28 -0.68,0.45 -0.94,0.54 -0.26,0.09 -0.47,0.1 -0.68,0.06 -0.21,-0.04 -0.41,-0.13 -0.58,-0.26 -0.17,-0.13 -0.3,-0.31 -0.37,-0.49 -0.06,-0.18 -0.06,-0.35 0.04,-0.75z"/>
   <g>
    <path class="fil2" d="M44.26 9.49l0.53 0c0.7,0.05 1.33,0.31 1.91,1.05 0.64,0.81 0.74,1.55 0.75,2.4l0 0.74c0,1.24 -1.09,3.2 -1.82,3.84 -0.75,0.65 -0.8,0.71 -1.72,1.22 -1.25,0.69 -1.31,0.54 -1.31,1.5 0.38,-0.16 1.2,-0.07 1.72,-0.07 0.11,0.14 0.23,0.18 0.23,0.34 0,0.63 -0.43,1.15 -1.09,1.29 0.11,0.18 0.15,0.2 0.16,0.47 0.95,0 1.25,0.45 1.25,1.08 0,1.08 -2.9,1.53 -3.94,1.73 -1.64,0.31 -3.28,0.51 -5.01,0.73 -5.18,0.66 -10.08,1.24 -15.14,2.12 -3.38,0.58 -6.31,1.18 -9.63,1.81 -0.86,0.16 -1.57,0.3 -2.43,0.46l-2.38 0.44 0 -0.61c-0.42,0.18 -0.59,0.05 -0.9,0.44 -0.21,0.27 -0.26,0.57 -0.75,0.57 -0.4,0 -0.49,-0.21 -0.58,-0.51 -0.18,-0.61 -0.2,-2.49 -0.05,-3.07 -0.83,0 -2.35,-0.35 -2.35,-1.35 0,-1.04 2.09,-1.21 2.78,-1.31 0.46,-0.07 0.77,-0.22 1.13,-0.24 0.14,-1.43 0.36,-1.32 -0.87,-1.75 -1.1,-0.39 -1.9,-0.85 -2.82,-1.49 -0.33,-0.23 -0.48,-0.43 -0.75,-0.7 -0.96,-0.94 -1.19,-2.24 -1.19,-3.5 0,-1.21 1.16,-3.04 2.09,-3.87 1.13,-1.01 2.45,-1.62 3.96,-2.12 0.86,-0.28 2.38,-0.7 3.49,-0.7 3.68,0 6.33,0.05 8.77,2.62 0.4,0.41 1.06,1.28 1.08,1.98 0.26,-0.26 0.45,-0.62 0.7,-0.95 0.24,-0.32 0.49,-0.59 0.77,-0.89l2.33 -1.9c0.18,-0.12 0.32,-0.2 0.51,-0.31 2.72,-1.51 6.53,-1.63 9.04,-0 0.3,0.19 0.49,0.35 0.71,0.6 1.08,1.21 1.02,0.84 1.02,2.64 0.18,-0.11 0.26,-0.36 0.36,-0.56 1.29,-2.45 3.1,-3.19 6.17,-3.73 0.58,-0.1 1.1,-0.16 1.67,-0.24 0.57,-0.08 1.1,-0.18 1.58,-0.2z"/>
    <g>
     <path class="fil3" d="M6.04 22.82c-0.38,-0.42 -6.52,-1.48 -4.75,-6.87 0.74,-2.26 2.86,-3.52 5.09,-4.32 0.78,-0.28 1.76,-0.48 2.47,-0.76 -1.2,-0.07 -4.29,1.16 -5.09,1.61 -2.18,1.22 -3.91,3.8 -3.27,6.14 0.57,2.09 2.65,3.37 4.87,4.11l0.53 0.13c0.15,-0 0.08,0.01 0.15,-0.03z"/>
     <path class="fil3" d="M4.02 21.12c-0.64,-0.74 -1.09,-0.98 -1.38,-2.22 -0.23,-0.98 -0.06,-2.03 0.29,-2.89 0.96,-2.37 3.07,-3.21 3.57,-3.69 -0.91,0.13 -2.07,1 -2.61,1.41 -1.72,1.32 -2.47,3.32 -1.79,5.36 0.28,0.84 1.14,1.78 1.92,2.03z"/>
    </g>
    <g>
     <path class="fil4" d="M7.42 25.19c1.02,0.22 4.84,-0.48 6.09,-1.09 -0.05,-0.41 -0.14,-0.46 -0.27,-0.77 -0.97,0.06 -2.03,0.23 -3,0.19 -1.54,-0.06 -1.85,-0.29 -2.64,-0.35 -0.08,0.49 -0.34,1.65 -0.19,2.01z"/>
     <path class="fil4" d="M5.87 25.58c0.08,0.45 0.37,0.44 0.93,0.43 0.42,-0 0.88,-0.02 1.3,-0.05 1.28,-0.08 6.33,-0.51 6.89,-0.99 -0.93,-1.07 -1.75,-0.4 -1.87,-0.35 -1.09,0.38 -3.57,0.79 -4.77,0.86 -1.04,0.06 -1.6,-0.29 -2.48,0.1z"/>
     <path class="fil4" d="M36.2 20.45c0.86,0 1.65,-0.07 2.55,-0.04 0.84,0.03 1.7,0.1 2.53,0.12l-0.09 -1.23c-1.01,0.02 -1.81,0.23 -2.94,0.17 -1.38,-0.07 -1.86,-0.24 -2.05,0.98z"/>
     <path class="fil4" d="M23.74 22.22c1.95,0 3.22,-0.06 5.05,-0.34 0.05,-0.29 -0.01,-0.49 -0.14,-0.71 -0.55,-0.09 -2.22,-0 -2.93,0 -1.24,0.01 -1.91,-0.13 -1.98,1.04z"/>
     <path class="fil4" d="M22.18 23.09c0.63,0 7.03,0.13 7.26,-0.72 -0.35,-0.3 -1.34,-0.09 -1.78,-0.04 -0.6,0.07 -1.27,0.18 -1.86,0.21 -1.06,0.06 -3.24,-0.28 -3.62,0.55z"/>
     <path class="fil4" d="M35.5 20.99c0.5,0.34 2.14,0.34 2.88,0.32 0.99,-0.02 2.02,-0.07 2.81,-0.4 -0.27,-0.2 -0.97,-0.15 -1.32,-0.16 -1.08,-0.04 -3.85,-0.23 -4.37,0.24z"/>
    </g>
    <g>
     <path class="fil5" d="M15.47 25.11c1.85,-0.23 3.73,-0.57 5.59,-0.85 1.84,-0.27 3.7,-0.54 5.55,-0.81 1.59,-0.23 9.24,-1.39 10.74,-1.9 -2.19,-0.2 -1.72,-0.37 -3.88,-0.01 -1.19,0.2 -2.51,0.42 -3.75,0.54 -0.01,0.83 -0.17,0.88 -1.11,1.01 -0.62,0.08 -1.32,0.17 -1.95,0.19 -1.4,0.05 -2.83,0.01 -4.22,0.15 -0.99,0.09 -7.12,0.77 -7.64,0.95 0.37,0.37 0.39,0.12 0.67,0.73z"/>
     <path class="fil5" d="M3.04 25.97c0.11,0.16 0.06,0.14 0.29,0.26 0.31,0.15 0.94,0.21 1.29,0.23 0.69,0.04 1.36,-0.03 2.05,-0.06 -0.68,-0.31 -0.96,0.01 -1.19,-0.8 -0.91,0.03 -1.73,0.12 -2.43,0.38z"/>
    </g>
    <g>
     <path class="fil6" d="M43.72 9.98c0.56,0.38 1.71,0.6 2.17,2.15 0.94,3.18 -3.02,7.19 -6.32,6.41 -1.05,-0.25 -2.04,-1.1 -2.38,-2 -0.55,-1.43 0.29,-3.58 1.42,-4.5 0.72,-0.57 3.89,-1.09 4.62,-2.09 -1.35,0.03 -3.39,0.49 -4.55,0.87 -1.34,0.43 -2.45,1.25 -3.05,2.17 -0.65,1 -1.37,2.32 -1.04,3.83 0.18,0.8 0.36,1.13 1.03,1.48 0.34,0.18 0.62,0.23 0.94,0.41 0.28,0.16 0.49,0.36 0.92,0.42 1.47,0.22 3.61,0.02 4.68,-0.56 1.03,-0.55 2.47,-1.5 3.02,-2.19 0.73,-0.91 1.21,-2.43 1.11,-3.86 -0.09,-1.2 -1.26,-2.52 -2.58,-2.55z"/>
     <path class="fil6" d="M25.49 20.79c-0.51,-0.25 -2.05,-0.27 -3.06,-1.82 -1.83,-2.81 0.51,-6.98 3.54,-8.24 0.3,-0.12 0.65,-0.24 0.86,-0.44 -2.71,0.15 -6.29,3.15 -6.96,4.9 -0.7,1.82 0,3.01 1.02,4.09 0.79,0.84 2.73,1.58 4.6,1.51z"/>
     <path class="fil6" d="M7 22.19c-1.25,-0.66 -2.31,-1.37 -2.8,-2.74 -0.55,-1.53 0,-3.15 0.76,-4.25 0.81,-1.17 1.71,-1.92 2.98,-2.64 0.58,-0.33 1.32,-0.67 2.07,-0.84 0.71,-0.16 2.15,-0.16 2.64,-0.31 -5.32,-0.78 -11.57,4.07 -9.35,8.28 0.34,0.65 0.9,1.19 1.47,1.56 0.33,0.21 1.72,0.95 2.23,0.93z"/>
     <path class="fil6" d="M24.31 20.1c-0.49,-0.42 -0.93,-0.9 -1.19,-1.52 -0.59,-1.46 -0.3,-2.87 0.48,-4.22 0.18,-0.32 0.33,-0.54 0.53,-0.82 0.26,-0.36 0.37,-0.47 0.69,-0.75 1,-0.89 2.28,-1.65 3.8,-1.86 1.36,-0.18 2.51,0.1 3.65,0.54 0.42,0.16 0.62,0.36 0.96,0.52 -0.24,-0.56 -4.74,-3.66 -9.04,0.32 -0.92,0.85 -1.88,2.32 -2.04,3.98 -0.16,1.68 0.75,3.41 2.15,3.83z"/>
    </g>
    <g>
     <path class="fil7" d="M12.08 20.88c-0.04,-0.31 2.69,-4.18 3.07,-4.77l1.01 -1.51 0.24 0.11c-0.09,0.31 -3.18,4.88 -3.67,5.59 -0.2,0.3 -0.3,0.66 -0.65,0.57zm-2.02 0.18c0.02,-0.41 1.05,-1.69 1.35,-2.1l2.84 -3.97c0.17,-0.24 1.27,-1.92 1.45,-1.77 0.2,0.17 -0.38,0.8 -0.53,1.01l-4.3 5.95c-0.36,0.49 -0.46,0.81 -0.82,0.87zm1.32 -7.68c-0.32,0.27 -0.48,0.28 -0.79,0.6l-3.13 3.38c-0.29,0.32 -1.15,1.42 -1.28,1.12 -0.11,-0.25 2.11,-2.49 2.39,-2.8 0.81,-0.89 1.54,-1.91 2.66,-2.51 0.16,0.16 0.03,-0 0.15,0.2zm-3.46 6.72c-0.01,-0.33 1.13,-1.59 1.41,-1.93l2.95 -3.67c0.25,-0.29 0.51,-0.58 0.75,-0.91 0.43,-0.57 0.45,-0.78 0.9,-0.79 -0.03,0.41 -1.09,1.54 -1.43,1.95l-2.95 3.67c-0.24,0.3 -0.49,0.6 -0.74,0.92 -0.35,0.46 -0.47,0.77 -0.88,0.77zm4.09 -8.36c-3.08,0.22 -4.88,1.31 -6.44,3.17 -0.45,0.53 -0.86,1.29 -1.06,2.06 -1.78,6.94 11.93,7.81 14.26,0.23 1.08,-3.53 -2.78,-5.75 -6.77,-5.46z"/>
     <path class="fil7" d="M28.8 18.27c0.44,-0.62 1.87,-2.23 2.51,-3 0.26,-0.32 0.51,-0.82 0.97,-0.87 -0.03,0.49 -1.09,1.48 -1.59,2.09 -0.29,0.35 -1.44,1.76 -1.73,1.89 -0.04,-0.02 -0.14,-0.1 -0.16,-0.11zm3.22 -4.97c-0.03,0.36 -2.11,2.65 -2.51,3.12l-2.31 2.68c-0.1,0.1 -0.2,0.31 -0.38,0.15 -0.11,-0.1 0.41,-0.62 0.53,-0.76 1.21,-1.39 2.75,-3.37 3.89,-4.62 0.12,-0.13 0.22,-0.23 0.35,-0.37 0.19,-0.2 0.1,-0.23 0.42,-0.19zm-6.3 4.79c0.03,-0.39 0.8,-1.04 1.25,-1.5l3.36 -3.52c0.51,-0.52 0.45,-0.56 0.74,-0.51 -0.02,0.39 -3.37,3.72 -3.9,4.27 -0.43,0.45 -0.95,1.22 -1.45,1.26zm-1.38 -0.59c-0.02,-0.33 0.8,-1.07 1.15,-1.45l2.56 -2.79c0.65,-0.71 0.97,-1.32 1.39,-1.12 -0.36,0.52 -0.78,0.93 -1.21,1.41 -0.41,0.46 -0.81,0.9 -1.25,1.35 -0.45,0.46 -0.85,0.91 -1.29,1.39 -0.44,0.49 -0.96,1.24 -1.35,1.2zm4.41 -6.29c-7.15,1.11 -7.51,10.82 -0.51,9.05 4.75,-1.2 7.15,-6.21 4.69,-8.08 -0.89,-0.68 -2.57,-1.21 -4.17,-0.96z"/>
     <path class="fil7" d="M42.2 17.07c0.13,-0.52 2.56,-3.89 2.98,-4.25 0.21,0.1 0.08,0.01 0.21,0.15l-2.27 3.19c-0.52,0.75 -0.45,0.9 -0.91,0.91zm-1.42 0c-0.14,-0.28 0.09,-0.48 0.25,-0.68l2.22 -3.08c0.17,-0.23 0.29,-0.4 0.45,-0.63 0.12,-0.16 0.27,-0.53 0.52,-0.43 0.26,0.11 -0.12,0.47 -0.22,0.61 -0.18,0.25 -0.29,0.42 -0.44,0.64 -0.3,0.4 -0.59,0.78 -0.88,1.2l-1.35 1.88c-0.38,0.56 -0.22,0.46 -0.54,0.5zm-1.15 -0.34c-0.02,-0.4 0.64,-1.17 0.87,-1.49l1.96 -2.77c0.16,-0.22 0.31,-0.43 0.48,-0.66 0.09,-0.13 0.18,-0.25 0.25,-0.33 0.11,-0.11 0.24,-0.16 0.37,-0.09 0.02,0.18 -1.6,2.37 -1.86,2.73 -0.34,0.47 -0.66,0.92 -0.98,1.39 -0.34,0.51 -0.65,1.17 -1.09,1.23zm-1.16 -0.73c0.25,-1.02 3.02,-4 3.27,-4.8 -0.67,0.21 -1.21,0.44 -1.95,0.65 -1.96,0.54 -2.9,3.15 -2.13,4.83 0.48,1.04 1.76,1.98 3.54,1.61 2.26,-0.47 4.82,-3.11 4.41,-5.72 -0.12,-0.77 -0.37,-1.18 -0.87,-1.62 -0.27,-0.23 -0.45,-0.35 -0.82,-0.51 -0.52,-0.22 -0.52,-0.12 -0.93,0.13 -0.22,0.13 -0.71,0.3 -0.86,0.41 -0.34,0.25 0.33,-0.06 -0.26,0.72 -0.39,0.51 -0.73,1 -1.1,1.49l-1.87 2.57c-0.13,0.2 -0.08,0.24 -0.43,0.25z"/>
    </g>
    <path class="fil8" d="M5.88 29.78c0.97,0.02 3.64,-0.63 4.71,-0.84 9.5,-1.81 18.86,-3.16 28.43,-4.62 1.6,-0.24 3.11,-0.62 4.62,-0.87 -0.1,-0.81 -0.35,-1.43 -0.86,-1.87 -0.95,-0.81 -1.53,-0.33 -2.16,-0.2 -0.81,0.18 -1.71,0.2 -2.54,0.37 -7.25,1.51 -14.81,2.49 -22.21,3.59 -3.33,0.5 -6.71,0.93 -10.03,1.46l0.03 2.98z"/>
    <path class="fil9" d="M43.77 22.61l0.24 1.01c-0.74,0.11 -1.52,0.34 -2.26,0.48 -2.09,0.42 -4.98,0.87 -7.09,1.17 -6.7,0.97 -12.28,1.79 -18.97,3l-6.96 1.28c-0.64,0.11 -1.84,0.11 -2.05,0.62 0.1,0.05 0.02,0.03 0.2,0.05 0.23,0.03 4.33,-0.83 4.65,-0.89 1.64,-0.32 3.22,-0.64 4.85,-0.94 7.1,-1.34 13.15,-2.07 20.28,-3.02 1.57,-0.21 5.95,-0.76 7.27,-1.42 0.65,-0.33 0.98,-1.16 -0.18,-1.36z"/>
    <path class="fil10" d="M41.51 19.2l0.11 1.34c0.2,0.25 0.98,0.69 1.4,0.92 0.47,0.26 1.2,-0.32 1.16,-0.87 -0.44,-0.17 -1.36,-0.13 -1.88,-0.14 -0.13,-0.91 -0.16,-1.12 1.11,-1.8 0.86,-0.46 1.25,-0.72 1.9,-1.27 0.97,-0.84 1.83,-2.71 1.83,-4.37 0,-1.49 -0.93,-3.33 -2.61,-3.21 0.29,0.11 1.01,0.66 1.2,0.85 1.31,1.22 0.96,3.37 0.4,4.73 -0.48,1.17 -1.04,1.62 -1.92,2.27 -0.6,0.44 -1.97,1.27 -2.7,1.56z"/>
    <path class="fil11" d="M5.48 26.84c-0.5,-0.12 -3.55,-0.31 -2.69,-1.07 0.31,-0.28 2.53,-0.44 3.5,-0.64l-0.14 -1.35c-0.36,0.88 0.21,1.03 -1.14,1.26 -0.65,0.11 -1.52,0.2 -2.12,0.4 -0.63,0.21 -1.22,0.88 -0.45,1.29 0.43,0.23 1.36,0.44 1.93,0.56 0.04,0.96 -0.24,2.67 0.25,3.44 0.58,-0.13 0.97,-0.83 0.98,-1.55 0,-0.6 0.02,-1.85 -0.12,-2.33z"/>
    <path class="fil12" d="M3.81 21.46c-0.82,-0.77 -1.65,-1.04 -2.03,-2.41 -0.7,-2.51 0.29,-4.53 2.53,-5.97 0.48,-0.31 0.97,-0.57 1.52,-0.78 0.29,-0.12 1.49,-0.55 1.7,-0.71 -1.78,0.17 -4.91,2.1 -5.66,3.78 -0.83,1.85 -0.87,3.5 0.55,5.1 0.22,0.25 0.97,0.91 1.4,1z"/>
    <path class="fil13" d="M9.7 11.18c1.64,-0 3.07,-0.24 4.88,0.17 0.42,0.09 0.99,0.34 1.34,0.36 -1.22,-0.86 -4.34,-1 -6.25,-0.95l0.03 0.42z"/>
    <path class="fil14" d="M6.59 25.09c0.49,0.04 0.42,0.01 0.55,-0.89 0.06,-0.39 0.14,-0.93 0.12,-1.34l-0.88 -0.26 0.2 2.5z"/>
    <path class="fil15" d="M27.26 20.83c1.34,0.06 2.43,-0.15 3.42,-0.62 0.61,-0.29 1.87,-1.27 2.11,-1.87 -0.33,0.16 -0.27,0.21 -0.54,0.45 -0.08,0.07 -0.17,0.13 -0.24,0.19 -0.14,0.12 -0.14,0.13 -0.28,0.23 -0.78,0.59 -1.7,1.01 -2.73,1.29 -0.61,0.17 -1.17,0.19 -1.74,0.32z"/>
    <path class="fil16" d="M11.37 22.89c-0.66,-0.01 -1.33,0.02 -1.99,-0 -0.67,-0.02 -1.18,-0.13 -1.83,-0.17l0.38 0.21c0.14,0.04 0.3,0.07 0.43,0.1 0.72,0.14 2.36,0.24 3,-0.14z"/>
   </g>
   <path class="fil1 str0" d="M5.87 32.57c0.1,-0.4 0.29,-1.02 0.48,-1.5 0.19,-0.48 0.4,-0.82 0.57,-1.07 0.17,-0.25 0.31,-0.41 0.51,-0.53 0.19,-0.12 0.43,-0.2 0.72,-0.37 0.29,-0.17 0.62,-0.41 0.91,-0.63 0.29,-0.22 0.55,-0.41 0.81,-0.52 0.26,-0.11 0.52,-0.15 0.75,-0.15 0.23,0 0.42,0.04 0.59,0.12 0.17,0.08 0.3,0.2 0.38,0.39 0.08,0.19 0.1,0.43 0,0.79 -0.1,0.36 -0.31,0.83 -0.65,1.4 -0.34,0.57 -0.81,1.25 -1.26,1.78 -0.45,0.53 -0.89,0.92 -1.27,1.2 -0.37,0.28 -0.68,0.45 -0.94,0.54 -0.26,0.09 -0.47,0.1 -0.68,0.06 -0.21,-0.04 -0.41,-0.13 -0.58,-0.26 -0.17,-0.13 -0.3,-0.31 -0.37,-0.49 -0.06,-0.18 -0.06,-0.35 0.04,-0.75z"/>
   <path class="fil0 str0" d="M10.71 34.04c-0.4,0.38 -0.85,0.74 -1.3,1.08 -0.4,0.3 -0.88,0.65 -1.36,0.85 -0.4,0.17 -0.78,0.22 -1.22,0.17 -0.37,-0.04 -0.68,-0.13 -1,-0.28 -0.43,-0.21 -0.8,-0.51 -1.08,-0.87 -0.37,-0.48 -0.57,-1.04 -0.59,-1.61 -0.03,-0.56 0.09,-1.1 0.19,-1.65 0.06,-0.37 0.07,-0.55 0.25,-0.91 0.24,-0.46 0.56,-0.93 0.85,-1.38 0.32,-0.49 0.65,-0.99 1.04,-1.45 0.38,-0.45 0.83,-0.87 1.34,-1.21 0.45,-0.3 0.94,-0.53 1.47,-0.69 0.4,-0.12 0.81,-0.21 1.23,-0.25 0.41,-0.04 0.75,-0.03 1.15,0.08 0.41,0.11 0.85,0.32 1.16,0.57 0.1,0.08 0.19,0.16 0.26,0.25 0.05,-0.2 0.1,-0.39 0.16,-0.59 0.09,-0.33 0.19,-0.67 0.4,-0.96 0.14,-0.2 0.32,-0.37 0.54,-0.51 0.31,-0.21 0.7,-0.31 1.08,-0.17 0.37,0.13 0.58,0.45 0.7,0.76 0.12,0.32 0.15,0.69 0.18,1.03 0.02,0.3 0.04,0.6 0.05,0.9 0.13,-0.38 0.26,-0.76 0.4,-1.13 0.14,-0.38 0.32,-0.83 0.57,-1.17 0.17,-0.23 0.37,-0.39 0.66,-0.49 0.4,-0.12 0.8,-0.09 1.13,0.15 0.15,0.11 0.27,0.25 0.36,0.4 0.23,-0.39 0.52,-0.75 0.91,-0.95 0.33,-0.16 0.72,-0.26 1.08,-0.12 0.38,0.14 0.54,0.46 0.56,0.8 0.02,0.24 -0.02,0.49 -0.07,0.72 -0.08,0.35 -0.22,0.72 -0.35,1.07 -0.32,0.89 -0.65,1.78 -0.96,2.68 -0.42,1.2 -0.83,2.4 -1.22,3.61 -0.01,0.03 -0.02,0.06 -0.03,0.09 0.26,-0.13 0.51,-0.28 0.72,-0.4 0.5,-0.29 0.99,-0.6 1.49,-0.89 0.3,-0.17 0.65,-0.37 1.02,-0.35 0.21,0.01 0.36,0.07 0.48,0.17 0.13,-0.41 0.25,-0.82 0.37,-1.23 0.05,-0.17 0.1,-0.35 0.14,-0.52 0.01,-0.07 0.02,-0.12 0.04,-0.19 0.04,-0.1 0.08,-0.2 0.12,-0.3 0.12,-0.31 0.24,-0.63 0.36,-0.95 0.45,-1.23 0.87,-2.47 1.32,-3.7 0.12,-0.34 0.24,-0.69 0.4,-1.02 0.1,-0.21 0.21,-0.39 0.4,-0.55 0.28,-0.23 0.7,-0.38 1.08,-0.34 0.33,0.03 0.58,0.19 0.74,0.42 0.02,-0.03 0.04,-0.06 0.06,-0.09 0.2,-0.28 0.49,-0.53 0.8,-0.72 0.28,-0.18 0.63,-0.34 0.98,-0.37 0.54,-0.05 0.91,0.21 1.14,0.61 0.22,0.36 0.37,0.83 0.51,1.23 0.2,0.57 0.36,1.12 0.4,1.72 0.04,0.57 -0.05,1.11 -0.06,1.68 -0,0.12 0,0.21 0.01,0.3 0.09,-0.32 0.18,-0.64 0.27,-0.96 0.16,-0.59 0.31,-1.18 0.47,-1.77 0.12,-0.46 0.25,-0.93 0.41,-1.38 0.19,-0.52 0.4,-1.01 0.97,-1.3 0.35,-0.18 0.78,-0.31 1.19,-0.26 0.49,0.06 0.84,0.35 1.03,0.73 0.17,0.35 0.22,0.76 0.19,1.13 -0.02,0.24 -0.07,0.47 -0.13,0.7 -0.07,0.28 -0.16,0.57 -0.24,0.85 0.01,-0.02 0.02,-0.04 0.03,-0.05 0.31,-0.54 0.62,-1.09 0.96,-1.62 0.26,-0.4 0.53,-0.82 0.82,-1.21 0.28,-0.37 0.49,-0.55 0.97,-0.72 0.24,-0.09 0.5,-0.16 0.74,-0.23 0.43,-0.13 0.87,-0.25 1.3,-0.38 1.27,-0.37 2.54,-0.77 3.82,-1.12 0.47,-0.13 1.14,-0.32 1.63,-0.25 0.29,0.04 0.54,0.14 0.73,0.33 0.21,0.2 0.28,0.44 0.32,0.7 0.05,0.29 0.07,0.64 0.03,0.93 -0.05,0.31 -0.18,0.55 -0.41,0.79 -0.26,0.27 -0.56,0.43 -0.93,0.57 -0.65,0.25 -1.42,0.44 -2.11,0.63 -0.98,0.27 -1.96,0.53 -2.94,0.79 -0.19,0.05 -0.37,0.1 -0.56,0.15 -0.05,0.01 -0.11,0.03 -0.16,0.05 -0.1,0.06 -0.29,0.31 -0.35,0.39 -0.39,0.49 -0.74,1.02 -1.09,1.54 -0.31,0.46 -0.61,0.93 -0.9,1.4 0.74,-0.22 1.47,-0.48 2.21,-0.71 0.88,-0.27 1.78,-0.51 2.68,-0.73 0.39,-0.09 0.85,-0.21 1.25,-0.24 0.4,-0.03 0.74,0.06 0.99,0.35 0.21,0.23 0.33,0.55 0.36,0.85 0.03,0.29 -0.04,0.63 -0.17,0.9 -0.11,0.23 -0.24,0.37 -0.45,0.54 -0.27,0.22 -0.53,0.34 -0.87,0.46 -0.56,0.21 -1.16,0.38 -1.74,0.55 0.24,0.05 0.43,0.18 0.62,0.34 0.21,0.18 0.42,0.38 0.6,0.59 0.21,0.26 0.37,0.55 0.34,0.87 -0.03,0.37 -0.3,0.64 -0.6,0.89 -0.39,0.33 -0.83,0.65 -1.27,0.94 -0.54,0.36 -1.09,0.69 -1.68,0.99 -0.58,0.29 -1.18,0.55 -1.78,0.8 -0.34,0.14 -0.7,0.28 -1.06,0.38 -0.33,0.09 -0.61,0.11 -0.95,0.04 -0.4,-0.09 -0.76,-0.3 -1.08,-0.52 -0.45,-0.31 -0.93,-0.7 -1.29,-1.08 -0.18,-0.19 -0.32,-0.36 -0.43,-0.55 -0.11,0.44 -0.24,0.98 -0.47,1.36 -0.22,0.35 -0.56,0.62 -0.97,0.8 -0.32,0.15 -0.73,0.26 -1.1,0.26 -0.37,0 -0.67,-0.11 -0.92,-0.34 -0.26,-0.23 -0.4,-0.5 -0.52,-0.8 -0.23,-0.58 -0.36,-1.23 -0.45,-1.84 -0.08,-0.57 -0.12,-1.15 -0.17,-1.73 -0.09,0.28 -0.17,0.55 -0.26,0.83 -0.16,0.52 -0.33,1.04 -0.51,1.55 -0.14,0.39 -0.3,0.82 -0.65,1.11 -0.35,0.28 -0.84,0.41 -1.31,0.35 -0.49,-0.06 -0.86,-0.31 -1.07,-0.69 -0,-0 -0,-0 -0,-0 -0.15,0.46 -0.37,1.01 -0.76,1.25 -0.43,0.27 -0.95,0.21 -1.37,-0.04 -0.34,-0.21 -0.61,-0.53 -0.72,-0.87 -0.01,-0.03 -0.02,-0.06 -0.03,-0.1 -0.02,0.01 -0.05,0.03 -0.07,0.04 -0.53,0.29 -1.1,0.55 -1.65,0.82 -0.35,0.17 -0.76,0.38 -1.14,0.49 -0.36,0.11 -0.66,0.11 -1.02,0.01 -0.35,-0.1 -0.66,-0.27 -0.92,-0.5 -0.26,-0.23 -0.48,-0.53 -0.64,-0.82 -0.05,-0.09 -0.09,-0.17 -0.13,-0.26 -0.06,0.15 -0.12,0.3 -0.18,0.45 -0.11,0.26 -0.24,0.53 -0.44,0.75 -0.27,0.31 -0.65,0.5 -1.1,0.53 -0.42,0.02 -0.75,-0.13 -0.98,-0.43 -0.31,-0.4 -0.36,-1.03 -0.4,-1.5 -0.01,-0.18 -0.02,-0.36 -0.03,-0.55 -0.14,0.41 -0.31,0.86 -0.53,1.21 -0.2,0.31 -0.49,0.58 -0.89,0.69 -0.48,0.13 -0.92,-0.04 -1.16,-0.42 -0.18,-0.28 -0.26,-0.67 -0.27,-0.99 -0,-0.01 -0,-0.01 -0,-0.02zm30 -3.9c-0.5,0.14 -1,0.28 -1.5,0.43 -0.76,0.23 -1.56,0.47 -2.3,0.75 -0.12,0.05 -0.44,0.16 -0.52,0.27 -0.06,0.07 -0.08,0.14 -0.1,0.23 -0.02,0.15 -0.01,0.36 0.04,0.51 0.01,0.02 0.02,0.06 0.04,0.07 0,0 0,0 0,0 0.11,0.03 0.35,-0 0.47,-0.03 0.28,-0.06 0.54,-0.18 0.79,-0.3 0.44,-0.22 0.86,-0.48 1.26,-0.74 0.57,-0.37 1.12,-0.77 1.7,-1.13 0.04,-0.02 0.07,-0.05 0.11,-0.07zm-34.17 2.56c-0.02,0.09 -0.09,0.35 -0.06,0.44 0.03,0.08 0.11,0.17 0.18,0.23 0.07,0.06 0.16,0.1 0.26,0.12 0.1,0.02 0.18,-0 0.28,-0.03 0.26,-0.09 0.53,-0.28 0.74,-0.43 0.43,-0.32 0.82,-0.7 1.16,-1.1 0.45,-0.52 0.86,-1.12 1.2,-1.7 0.23,-0.38 0.48,-0.85 0.59,-1.27 0.03,-0.12 0.08,-0.33 0.02,-0.45 -0.02,-0.04 -0.03,-0.05 -0.07,-0.07 -0.07,-0.03 -0.17,-0.04 -0.24,-0.04 -0.15,0 -0.3,0.03 -0.43,0.09 -0.23,0.1 -0.48,0.3 -0.68,0.45 -0.31,0.23 -0.63,0.47 -0.98,0.67 -0.14,0.08 -0.29,0.16 -0.45,0.23 -0.08,0.04 -0.17,0.08 -0.25,0.13 -0.13,0.08 -0.24,0.23 -0.32,0.35 -0.21,0.3 -0.37,0.63 -0.51,0.96 -0.18,0.46 -0.34,0.96 -0.46,1.43z"/>
   <path class="fil17 str1" d="M19.58 26.01c-0.53,1.19 -1.31,3.38 -1.74,4.58 -0.44,1.21 -0.53,1.43 -0.58,1.79 -0.05,0.36 -0.05,0.87 -0.03,1.2 0.03,0.34 0.09,0.5 0.22,0.72 0.12,0.22 0.3,0.48 0.52,0.66 0.21,0.18 0.45,0.29 0.64,0.35 0.19,0.06 0.34,0.06 0.57,-0.01 0.23,-0.07 0.54,-0.22 1.04,-0.45 0.5,-0.24 1.19,-0.57 1.62,-0.8 0.43,-0.23 0.61,-0.37 0.69,-0.47 0.08,-0.1 0.07,-0.18 0.07,-0.45 0,-0.27 0.01,-0.74 0,-1.01 -0.01,-0.26 -0.05,-0.32 -0.14,-0.33 -0.09,-0.01 -0.22,0.04 -0.59,0.25 -0.37,0.21 -0.96,0.59 -1.49,0.89 -0.52,0.31 -0.98,0.54 -1.31,0.65 -0.33,0.11 -0.54,0.08 -0.63,0.02 -0.09,-0.07 -0.07,-0.18 0.2,-1.01 0.27,-0.83 0.8,-2.39 1.22,-3.62 0.43,-1.23 0.76,-2.12 0.96,-2.68 0.2,-0.56 0.28,-0.78 0.33,-1 0.05,-0.22 0.07,-0.42 0.06,-0.57 -0.01,-0.15 -0.05,-0.25 -0.15,-0.28 -0.1,-0.04 -0.25,-0.01 -0.47,0.09 -0.22,0.1 -0.49,0.29 -1.02,1.48zm17.03 -0.7c-0.52,0.91 -1.4,2.43 -1.9,3.36 -0.5,0.93 -0.62,1.27 -0.69,1.55 -0.07,0.28 -0.09,0.5 -0.1,0.9 -0.01,0.41 -0.02,1 0.06,1.43 0.07,0.43 0.23,0.7 0.55,1.04 0.32,0.34 0.82,0.74 1.19,0.99 0.37,0.25 0.63,0.36 0.83,0.41 0.2,0.04 0.35,0.03 0.57,-0.03 0.22,-0.06 0.5,-0.16 0.98,-0.35 0.47,-0.19 1.13,-0.47 1.73,-0.77 0.59,-0.3 1.12,-0.62 1.6,-0.95 0.49,-0.33 0.93,-0.66 1.21,-0.9 0.28,-0.23 0.38,-0.36 0.39,-0.5 0.01,-0.14 -0.06,-0.3 -0.21,-0.48 -0.15,-0.18 -0.37,-0.38 -0.52,-0.52 -0.16,-0.13 -0.25,-0.2 -0.41,-0.19 -0.16,0.01 -0.4,0.1 -0.85,0.38 -0.46,0.28 -1.14,0.76 -1.69,1.12 -0.55,0.36 -0.97,0.6 -1.33,0.78 -0.36,0.18 -0.66,0.3 -0.97,0.36 -0.31,0.07 -0.63,0.08 -0.86,0.01 -0.24,-0.07 -0.39,-0.23 -0.48,-0.46 -0.08,-0.23 -0.1,-0.53 -0.06,-0.76 0.03,-0.23 0.11,-0.38 0.22,-0.51 0.11,-0.13 0.26,-0.25 0.8,-0.46 0.53,-0.21 1.45,-0.5 2.35,-0.77 0.9,-0.27 1.77,-0.51 2.59,-0.75 0.82,-0.24 1.58,-0.47 2.02,-0.63 0.44,-0.16 0.56,-0.26 0.66,-0.34 0.11,-0.09 0.2,-0.17 0.28,-0.33 0.08,-0.16 0.14,-0.41 0.12,-0.63 -0.02,-0.22 -0.12,-0.42 -0.21,-0.53 -0.1,-0.11 -0.19,-0.13 -0.38,-0.12 -0.19,0.01 -0.47,0.06 -1.12,0.22 -0.65,0.16 -1.68,0.43 -2.64,0.72 -0.95,0.29 -1.83,0.6 -2.37,0.75 -0.55,0.16 -0.77,0.16 -0.91,0.15 -0.15,-0.01 -0.22,-0.04 -0.23,-0.12 -0.01,-0.08 0.04,-0.22 0.28,-0.62 0.24,-0.41 0.67,-1.08 1.09,-1.72 0.42,-0.63 0.84,-1.22 1.11,-1.58 0.28,-0.36 0.42,-0.48 0.54,-0.55 0.12,-0.07 0.22,-0.09 0.9,-0.27 0.69,-0.18 1.96,-0.52 2.93,-0.78 0.97,-0.26 1.63,-0.45 2.03,-0.6 0.4,-0.15 0.55,-0.28 0.68,-0.41 0.12,-0.13 0.22,-0.26 0.26,-0.49 0.04,-0.23 0.01,-0.55 -0.03,-0.76 -0.04,-0.21 -0.08,-0.32 -0.16,-0.39 -0.07,-0.07 -0.18,-0.11 -0.33,-0.13 -0.15,-0.02 -0.35,-0.03 -1.31,0.23 -0.96,0.26 -2.68,0.78 -3.81,1.11 -1.13,0.33 -1.67,0.48 -2,0.6 -0.33,0.12 -0.44,0.21 -0.65,0.5 -0.22,0.29 -0.54,0.78 -0.79,1.17 -0.25,0.39 -0.42,0.69 -0.95,1.6zm-7.39 3.48c0.16,0.03 0.27,0.59 0.36,1.38 0.08,0.8 0.14,1.83 0.25,2.63 0.11,0.8 0.28,1.37 0.41,1.72 0.14,0.35 0.24,0.47 0.35,0.57 0.11,0.1 0.23,0.16 0.43,0.16 0.21,0 0.51,-0.07 0.78,-0.19 0.27,-0.12 0.52,-0.3 0.68,-0.56 0.16,-0.26 0.24,-0.59 0.44,-1.33 0.2,-0.74 0.52,-1.88 0.96,-3.38 0.43,-1.5 0.98,-3.36 1.3,-4.47 0.32,-1.11 0.43,-1.47 0.45,-1.8 0.03,-0.33 -0.03,-0.63 -0.14,-0.85 -0.11,-0.22 -0.28,-0.35 -0.5,-0.38 -0.22,-0.03 -0.49,0.05 -0.73,0.17 -0.23,0.12 -0.43,0.29 -0.67,0.97 -0.24,0.68 -0.52,1.87 -0.87,3.12 -0.34,1.25 -0.75,2.56 -0.99,3.2 -0.25,0.64 -0.34,0.62 -0.35,0.42 -0.01,-0.2 0.05,-0.58 0.03,-1.01 -0.02,-0.43 -0.12,-0.9 -0.21,-1.22 -0.08,-0.32 -0.15,-0.49 -0.14,-0.89 0.01,-0.4 0.1,-1.04 0.06,-1.62 -0.04,-0.58 -0.21,-1.11 -0.37,-1.58 -0.16,-0.47 -0.32,-0.89 -0.46,-1.13 -0.14,-0.24 -0.27,-0.31 -0.45,-0.29 -0.18,0.02 -0.41,0.12 -0.65,0.26 -0.23,0.15 -0.47,0.34 -0.62,0.55 -0.15,0.21 -0.21,0.45 -0.3,0.9 -0.08,0.45 -0.19,1.11 -0.32,1.75 -0.14,0.64 -0.3,1.25 -0.55,1.99 -0.25,0.73 -0.57,1.59 -0.87,2.35 -0.3,0.76 -0.57,1.43 -0.74,1.91 -0.17,0.48 -0.23,0.76 -0.23,1.06 0,0.3 0.06,0.63 0.19,0.85 0.12,0.22 0.3,0.33 0.54,0.36 0.24,0.03 0.54,-0.03 0.75,-0.2 0.21,-0.17 0.32,-0.45 0.47,-0.85 0.14,-0.4 0.31,-0.91 0.51,-1.53 0.19,-0.62 0.41,-1.33 0.62,-1.94 0.21,-0.61 0.4,-1.12 0.56,-1.09zm-5.2 1.52c-0.19,0.66 -0.63,2.05 -0.86,2.87 -0.23,0.82 -0.27,1.07 -0.19,1.3 0.07,0.23 0.26,0.43 0.45,0.55 0.19,0.12 0.4,0.15 0.57,0.04 0.17,-0.11 0.31,-0.35 0.6,-1.25 0.29,-0.9 0.74,-2.44 1.22,-3.93 0.48,-1.48 1,-2.91 1.33,-3.77 0.33,-0.86 0.47,-1.15 0.56,-1.38 0.08,-0.23 0.11,-0.39 0.09,-0.53 -0.02,-0.14 -0.08,-0.25 -0.14,-0.34 -0.06,-0.09 -0.11,-0.15 -0.15,-0.23 -0.04,-0.08 -0.06,-0.17 -0.11,-0.27 -0.05,-0.09 -0.11,-0.18 -0.26,-0.2 -0.15,-0.01 -0.37,0.05 -0.53,0.18 -0.16,0.13 -0.26,0.33 -0.61,1.31 -0.35,0.97 -0.96,2.72 -1.32,3.7 -0.35,0.97 -0.45,1.18 -0.48,1.25 -0.03,0.07 0.02,0.02 -0.18,0.68zm-12.44 2.76c-0.13,0.36 -0.19,0.68 -0.18,0.98 0.01,0.3 0.1,0.58 0.19,0.73 0.09,0.15 0.2,0.17 0.34,0.13 0.14,-0.04 0.32,-0.14 0.5,-0.41 0.18,-0.27 0.34,-0.71 0.55,-1.31 0.21,-0.6 0.45,-1.37 0.64,-1.88 0.18,-0.51 0.31,-0.76 0.38,-0.91 0.07,-0.15 0.1,-0.2 0.13,-0.18 0.03,0.03 0.07,0.13 0.09,0.88 0.02,0.76 0.01,2.17 0.06,2.99 0.06,0.82 0.17,1.06 0.28,1.2 0.11,0.14 0.2,0.18 0.37,0.17 0.16,-0.01 0.39,-0.06 0.59,-0.29 0.2,-0.23 0.39,-0.63 0.92,-2.17 0.54,-1.53 1.43,-4.19 1.9,-5.63 0.47,-1.44 0.52,-1.66 0.48,-1.86 -0.04,-0.2 -0.16,-0.39 -0.29,-0.48 -0.13,-0.1 -0.28,-0.1 -0.45,-0.04 -0.18,0.06 -0.39,0.17 -0.81,1.28 -0.42,1.1 -1.05,3.19 -1.38,4.23 -0.33,1.03 -0.37,1.01 -0.38,0.93 -0.01,-0.08 0.02,-0.22 0.03,-0.81 0.01,-0.59 0.01,-1.62 0,-2.44 -0.01,-0.81 -0.04,-1.4 -0.07,-1.82 -0.03,-0.42 -0.07,-0.68 -0.15,-0.88 -0.07,-0.2 -0.18,-0.35 -0.31,-0.39 -0.12,-0.04 -0.26,0.01 -0.39,0.1 -0.13,0.09 -0.26,0.2 -0.37,0.35 -0.11,0.15 -0.19,0.33 -0.31,0.78 -0.12,0.45 -0.29,1.18 -0.59,2.16 -0.31,0.98 -0.76,2.21 -1.09,3.03 -0.33,0.82 -0.54,1.21 -0.67,1.57zm-6.55 -1.25c-0.06,0.36 -0.2,1 -0.18,1.54 0.03,0.54 0.22,0.97 0.48,1.3 0.26,0.33 0.57,0.55 0.85,0.68 0.27,0.13 0.5,0.19 0.74,0.21 0.24,0.03 0.5,0.03 0.84,-0.11 0.34,-0.14 0.75,-0.42 1.21,-0.76 0.45,-0.34 0.95,-0.75 1.34,-1.13 0.4,-0.39 0.7,-0.76 0.99,-1.24 0.29,-0.48 0.55,-1.07 0.82,-1.73 0.27,-0.66 0.54,-1.4 0.66,-1.92 0.12,-0.52 0.1,-0.81 0.03,-1.06 -0.07,-0.25 -0.19,-0.47 -0.43,-0.66 -0.24,-0.19 -0.6,-0.36 -0.91,-0.44 -0.3,-0.08 -0.55,-0.08 -0.86,-0.05 -0.3,0.03 -0.67,0.09 -1.07,0.22 -0.4,0.13 -0.85,0.32 -1.28,0.6 -0.43,0.29 -0.85,0.67 -1.21,1.09 -0.36,0.42 -0.67,0.89 -1,1.38 -0.32,0.5 -0.66,1.02 -0.82,1.33 -0.16,0.31 -0.14,0.39 -0.2,0.75zm0.83 0.76c0.1,-0.4 0.29,-1.02 0.48,-1.5 0.19,-0.48 0.4,-0.82 0.57,-1.07 0.17,-0.25 0.31,-0.41 0.51,-0.53 0.19,-0.12 0.43,-0.2 0.72,-0.37 0.28,-0.17 0.62,-0.41 0.91,-0.63 0.29,-0.22 0.55,-0.41 0.81,-0.52 0.26,-0.11 0.52,-0.15 0.75,-0.15 0.23,0 0.42,0.04 0.59,0.12 0.17,0.08 0.3,0.2 0.38,0.39 0.08,0.19 0.1,0.43 0,0.79 -0.1,0.36 -0.31,0.83 -0.65,1.4 -0.34,0.57 -0.81,1.25 -1.26,1.78 -0.45,0.53 -0.89,0.92 -1.27,1.2 -0.37,0.28 -0.68,0.45 -0.94,0.54 -0.26,0.09 -0.47,0.1 -0.68,0.06 -0.21,-0.04 -0.41,-0.13 -0.58,-0.26 -0.17,-0.13 -0.3,-0.31 -0.37,-0.49 -0.06,-0.18 -0.06,-0.35 0.04,-0.75z"/>
   <path class="fil18" d="M18.71 10.09c-0.1,0.29 -0.2,0.58 -0.3,0.86 -0.07,0.18 -0.14,0.37 -0.24,0.53 -0.15,0.24 -0.41,0.43 -0.74,0.41 -0.26,-0.02 -0.49,-0.18 -0.57,-0.4 -0.09,-0.23 0,-0.62 0.06,-0.85 0.09,-0.38 0.22,-0.77 0.35,-1.14 0.07,-0.19 0.14,-0.38 0.21,-0.58 -0.07,0.1 -0.14,0.19 -0.21,0.29 -0.29,0.4 -0.59,0.81 -0.9,1.2 -0.12,0.16 -0.25,0.31 -0.38,0.46 -0.09,0.1 -0.19,0.22 -0.3,0.31 -0.23,0.19 -0.51,0.26 -0.76,0.06 -0.21,-0.16 -0.3,-0.48 -0.37,-0.71 -0.04,-0.12 -0.07,-0.24 -0.1,-0.36 -0.03,-0.08 -0.05,-0.18 -0.09,-0.26 -0.05,-0.09 -0.08,-0.09 -0.19,-0.11 -0.52,-0.1 -1.33,-0.11 -1.86,-0.04 -0.03,0 -0.13,0.02 -0.16,0.03 -0.01,0.01 -0.02,0.04 -0.03,0.05 -0.05,0.1 -0.08,0.22 -0.11,0.33 -0.05,0.17 -0.1,0.34 -0.16,0.5 -0.11,0.31 -0.28,0.75 -0.58,0.96 -0.17,0.12 -0.39,0.14 -0.58,0.04 -0.12,-0.07 -0.21,-0.17 -0.28,-0.28 -0.1,-0.16 -0.18,-0.41 -0.17,-0.6 0.01,-0.27 0.15,-0.48 0.28,-0.72 0.1,-0.19 0.17,-0.36 0.19,-0.57 0.02,-0.18 0.01,-0.33 0.08,-0.51 0.05,-0.1 0.12,-0.19 0.22,-0.26 0.03,-0.02 0.08,-0.05 0.11,-0.08 0.02,-0.03 0.03,-0.08 0.04,-0.11 0.02,-0.07 0.04,-0.14 0.06,-0.21 -0.18,0.26 -0.37,0.52 -0.58,0.77 -0.45,0.53 -1,1.01 -1.55,1.47 -0.24,0.2 -0.51,0.45 -0.8,0.59 -0.28,0.14 -0.6,0.23 -0.9,0.09 -0.14,-0.06 -0.24,-0.16 -0.32,-0.28 -0.01,0.03 -0.02,0.06 -0.04,0.09 -0.13,0.25 -0.37,0.38 -0.68,0.41 -0.19,0.02 -0.36,-0.03 -0.47,-0.17 -0.11,-0.15 -0.1,-0.34 -0.08,-0.51 0.04,-0.25 0.11,-0.51 0.18,-0.75 0.06,-0.19 0.11,-0.39 0.17,-0.58 -0.01,0 -0.03,0.01 -0.04,0.01 -0.08,0.03 -0.17,0.05 -0.25,0.08 -0.19,0.46 -0.51,1.28 -0.85,1.51 -0.21,0.14 -0.49,0.18 -0.7,0.06 -0.04,0.09 -0.08,0.18 -0.12,0.27 -0.12,0.23 -0.32,0.49 -0.63,0.53 -0.28,0.04 -0.52,-0.11 -0.63,-0.33 -0.07,-0.14 -0.08,-0.29 -0.08,-0.45 0.02,-0.28 0.09,-0.58 0.17,-0.86 0.14,-0.52 0.3,-1.03 0.46,-1.54 0.06,-0.18 0.12,-0.36 0.18,-0.54 -0.1,0.06 -0.2,0.11 -0.32,0.11 -0.11,0 -0.19,-0.02 -0.26,-0.06 -0.15,0.61 -0.29,1.23 -0.46,1.84 -0.06,0.21 -0.12,0.44 -0.22,0.64 -0.07,0.14 -0.16,0.26 -0.32,0.33 -0.26,0.12 -0.6,0.08 -0.8,-0.12 -0.2,-0.2 -0.18,-0.51 -0.15,-0.76 0.04,-0.31 0.14,-0.65 0.23,-0.95 0.13,-0.43 0.27,-0.86 0.41,-1.29 0.26,-0.78 0.55,-1.55 0.81,-2.33 0.11,-0.33 0.21,-0.65 0.32,-0.98 0.05,-0.17 0.11,-0.35 0.17,-0.53 0.06,-0.16 0.15,-0.34 0.29,-0.46 0.22,-0.18 0.5,-0.17 0.74,-0.03 0.32,0.2 0.34,0.59 0.33,0.9 -0,0.17 -0.01,0.35 -0.02,0.52 0.16,-0.27 0.32,-0.54 0.5,-0.8 0.13,-0.19 0.31,-0.45 0.49,-0.6 0.11,-0.09 0.24,-0.17 0.38,-0.19 0.18,-0.03 0.35,0.03 0.46,0.16 0.15,0.17 0.16,0.43 0.13,0.63 -0.02,0.16 -0.09,0.35 -0.14,0.51 -0.08,0.24 -0.17,0.48 -0.25,0.72 -0.16,0.45 -0.34,0.9 -0.49,1.36 -0.08,0.25 -0.15,0.49 -0.22,0.74 -0.04,0.16 -0.08,0.33 -0.13,0.49 0,-0 0,-0 0.01,-0 0.1,-0.01 0.21,-0.17 0.26,-0.23 0.31,-0.4 0.57,-0.86 0.8,-1.3 0.26,-0.48 0.5,-0.97 0.77,-1.45 0.26,-0.47 0.53,-0.93 0.83,-1.38 0.12,-0.18 0.28,-0.43 0.47,-0.56 0.16,-0.11 0.38,-0.15 0.56,-0.05 0.17,0.09 0.25,0.26 0.29,0.42 0.1,0.36 0.01,0.81 -0.07,1.17 -0.09,0.37 -0.2,0.75 -0.31,1.12 -0.14,0.47 -0.3,0.93 -0.46,1.39 -0.17,0.48 -0.34,0.96 -0.51,1.44 -0.01,0.04 -0.03,0.08 -0.04,0.12 0.05,-0.11 0.09,-0.23 0.14,-0.34 0.37,-0.92 0.76,-1.83 1.11,-2.75 0.1,-0.26 0.2,-0.52 0.27,-0.79 0.04,-0.14 0.07,-0.28 0.11,-0.42 0.06,-0.27 0.15,-0.62 0.31,-0.86 0.08,-0.12 0.2,-0.22 0.35,-0.28 0.15,-0.06 0.33,-0.06 0.47,0.01 0.13,0.07 0.19,0.18 0.23,0.29 0.4,-0.34 1.04,-0.71 1.54,-0.76 0.33,-0.03 0.59,0.08 0.77,0.32 0.01,0.02 0.03,0.04 0.04,0.06 0.06,-0.07 0.12,-0.13 0.2,-0.18 0.21,-0.14 0.48,-0.15 0.69,-0 0.2,0.14 0.3,0.39 0.33,0.63 0.48,-0.39 0.98,-0.6 1.58,-0.9 0.28,-0.14 0.64,-0.34 0.97,-0.29 0.34,0.05 0.57,0.32 0.66,0.59 0.01,0.04 0.02,0.08 0.03,0.11 0.16,-0.03 0.31,0.02 0.43,0.13 0.32,0.29 0.36,0.87 0.31,1.25 -0.01,0.09 -0.03,0.17 -0.06,0.25 0.06,-0.13 0.13,-0.27 0.19,-0.4 0.15,-0.31 0.3,-0.63 0.47,-0.94 0.14,-0.27 0.3,-0.53 0.48,-0.78 0.18,-0.25 0.48,-0.61 0.87,-0.49 0.27,0.08 0.37,0.34 0.44,0.55 0.05,0.14 0.12,0.29 0.16,0.43 0.05,0.2 0.02,0.4 -0.02,0.6 -0.03,0.16 -0.08,0.31 -0.12,0.47 -0.07,0.23 -0.14,0.46 -0.21,0.69 -0.1,0.32 -0.21,0.65 -0.32,0.97 0.48,-0.63 1.01,-1.28 1.59,-1.85 0.59,-0.59 2.24,-2.03 3.12,-2.11 0.42,-0.04 0.78,0.11 0.98,0.42 0.16,0.26 0.2,0.58 0.17,0.86 -0.02,0.21 -0.1,0.46 -0.17,0.67 -0.09,0.23 -0.23,0.6 -0.56,0.62 -0.31,0.03 -0.47,-0.18 -0.59,-0.39 -0.02,-0.04 -0.1,-0.19 -0.15,-0.23 -0.04,0.01 -0.12,0.05 -0.15,0.07 -0.05,0.03 -0.11,0.08 -0.16,0.12 -0.1,0.08 -0.19,0.16 -0.29,0.24 -0.26,0.22 -0.52,0.45 -0.77,0.68 -0.27,0.24 -0.53,0.48 -0.79,0.72 -0.18,0.17 -0.36,0.34 -0.53,0.51 -0.42,0.43 -0.82,0.9 -1.16,1.38 0.09,-0.01 0.17,-0.03 0.26,-0.05 0.49,-0.1 0.98,-0.21 1.46,-0.32 0.26,-0.06 0.62,-0.14 0.89,-0.14 0.32,0 0.56,0.14 0.61,0.43 0.02,0.09 0.01,0.19 -0,0.3 0.24,-0.05 0.49,-0.09 0.72,-0.15 0,-0 0.01,-0 0.02,-0 0.92,-1.4 1.86,-2.79 2.75,-4.2 0.23,-0.37 0.46,-0.73 0.68,-1.1 0.11,-0.18 0.23,-0.39 0.37,-0.55 0.13,-0.16 0.3,-0.3 0.53,-0.34 0.21,-0.04 0.41,0.03 0.56,0.15 0.22,0.18 0.35,0.48 0.4,0.73 0.04,0.22 0.01,0.42 -0.03,0.63 -0.09,0.4 -0.24,0.81 -0.37,1.2 -0.25,0.71 -0.51,1.41 -0.77,2.11 -0.27,0.73 -0.55,1.46 -0.84,2.19 -0.1,0.25 -0.2,0.5 -0.3,0.75 0.01,-0 0.02,-0 0.02,-0.01 0.18,-0.05 0.31,-0.08 0.43,-0.22 0.11,-0.13 0.2,-0.32 0.28,-0.47 0.18,-0.37 0.34,-0.76 0.51,-1.14 0.27,-0.62 0.53,-1.25 0.78,-1.87 0.24,-0.58 0.47,-1.16 0.69,-1.75 0.1,-0.27 0.2,-0.55 0.27,-0.82 0.03,-0.11 0.05,-0.23 0.1,-0.34 0.1,-0.23 0.31,-0.51 0.52,-0.68 0.21,-0.17 0.56,-0.35 0.85,-0.2 0.22,0.12 0.22,0.38 0.24,0.58 0.01,0.08 0.02,0.16 0.04,0.24 0.21,-0.18 0.44,-0.36 0.68,-0.51 0.54,-0.33 1.51,-0.78 2.18,-0.66 0.38,0.07 0.77,0.28 0.98,0.56 0.25,0.33 0.21,0.7 0.11,1.07 -0.19,0.7 -0.57,1.45 -0.95,2.1 -0.43,0.74 -0.93,1.48 -1.48,2.15 -0.43,0.52 -0.89,1.03 -1.37,1.51 -0.42,0.43 -0.86,0.86 -1.33,1.26 -0.3,0.26 -0.61,0.51 -0.95,0.72 -0.22,0.14 -0.45,0.25 -0.69,0.37 -0.35,0.17 -0.71,0.34 -1.07,0.49 -0.28,0.12 -0.52,0.19 -0.78,-0.03 -0.25,-0.22 -0.48,-0.67 -0.59,-1.1 -0.02,0.05 -0.04,0.11 -0.06,0.16 -0.07,0.18 -0.13,0.36 -0.2,0.54 -0.05,0.13 -0.09,0.27 -0.14,0.4 -0.04,0.11 -0.1,0.23 -0.2,0.32 -0.14,0.13 -0.34,0.16 -0.53,0.1 -0.25,-0.08 -0.49,-0.29 -0.62,-0.48 -0.2,-0.29 -0.24,-0.63 -0.07,-0.94 0.13,-0.23 0.31,-0.41 0.46,-0.63 0.15,-0.21 0.24,-0.41 0.29,-0.64 -0.3,0.06 -0.59,0.12 -0.89,0.18 -0.17,0.27 -0.33,0.53 -0.51,0.8 -0.15,0.24 -0.31,0.48 -0.47,0.7 -0.1,0.13 -0.22,0.3 -0.36,0.39 -0.17,0.11 -0.37,0.13 -0.56,0.05 -0.28,-0.13 -0.46,-0.43 -0.43,-0.71 0.04,-0.36 0.42,-0.72 0.62,-1.09 -0.05,-0 -0.09,-0.01 -0.14,-0.02 -0.1,-0.02 -0.18,-0.06 -0.25,-0.11 -0.49,0.49 -1.1,0.98 -1.69,1.31 -0.56,0.31 -1.58,0.59 -2.13,0.12 -0.23,-0.2 -0.37,-0.56 -0.47,-0.95zm1.38 -1.52c-0.15,0.3 -0.27,0.6 -0.24,0.82 0.01,0.08 0.03,0.19 0.07,0.28 0.23,-0.07 0.62,-0.27 0.95,-0.45 -0.25,0.04 -0.46,0.01 -0.6,-0.2 -0.08,-0.12 -0.14,-0.29 -0.17,-0.45zm-4.15 -2.64c-0.12,0.12 -0.23,0.23 -0.35,0.35 -0.34,0.33 -0.68,0.66 -1.03,0.98 -0.17,0.16 -0.35,0.32 -0.53,0.48 -0.1,0.09 -0.21,0.19 -0.31,0.29 0.15,0.06 0.29,0.12 0.43,0.18 0.09,0.04 0.48,0.22 0.61,0.24 0.1,-0.11 0.35,-0.7 0.4,-0.81 0.26,-0.57 0.51,-1.14 0.77,-1.71zm21.91 4.5c-0.08,0.21 -0.17,0.43 -0.25,0.64 -0.08,0.21 -0.17,0.42 -0.26,0.63 -0.13,0.28 -0.31,0.57 -0.71,0.51 -0.28,-0.04 -0.53,-0.22 -0.64,-0.44 -0.21,-0.4 0.05,-1.11 0.19,-1.51 0.09,-0.24 0.19,-0.48 0.29,-0.72 0.04,-0.09 0.07,-0.17 0.11,-0.26 0.01,-0.02 0.01,-0.03 0.02,-0.05 -0.07,0.01 -0.15,0.03 -0.19,0.04 -0.47,0.12 -0.82,0.31 -1.15,0.62 -0.26,0.25 -0.49,0.55 -0.7,0.83 -0.2,0.26 -0.39,0.54 -0.6,0.8 -0.13,0.15 -0.3,0.35 -0.53,0.39 -0.24,0.05 -0.42,-0.07 -0.53,-0.25 -0.29,-0.46 -0.28,-0.94 -0.02,-1.4 0.09,-0.16 0.2,-0.31 0.31,-0.46 0.02,-0.03 0.07,-0.1 0.11,-0.15 -0.04,-0.02 -0.08,-0.03 -0.11,-0.04 -0.1,-0.04 -0.18,-0.06 -0.26,-0.14 -0.11,-0.11 -0.14,-0.24 -0.12,-0.38 0.03,-0.22 0.14,-0.55 0.24,-0.75 0.11,-0.24 0.24,-0.37 0.52,-0.46 0.22,-0.07 0.47,-0.11 0.7,-0.17 0.2,-0.05 0.4,-0.11 0.6,-0.16 0,-0 0.01,-0 0.02,-0 0.04,-0.03 0.09,-0.1 0.12,-0.13 0.13,-0.16 0.26,-0.34 0.38,-0.51 0.78,-1.08 1.52,-2.18 2.27,-3.27 0.28,-0.41 0.56,-0.82 0.85,-1.22 0.17,-0.24 0.35,-0.49 0.54,-0.71 0.2,-0.24 0.44,-0.49 0.78,-0.59 0.28,-0.09 0.59,-0.08 0.81,0.12 0.19,0.17 0.23,0.43 0.22,0.66 -0,0.2 -0.04,0.4 -0.09,0.59 -0.09,0.37 -0.21,0.74 -0.33,1.1 -0.2,0.6 -0.42,1.2 -0.64,1.8 -0.24,0.66 -0.49,1.32 -0.74,1.98 -0.05,0.13 -0.1,0.26 -0.15,0.39 0.05,-0.03 0.11,-0.07 0.16,-0.09 0.41,-0.19 0.82,0 0.87,0.4 0.04,0.34 -0.13,0.89 -0.24,1.22 -0.03,0.1 -0.22,0.56 -0.21,0.68 0.04,0.02 0.13,0.03 0.17,0.03 0.41,0.03 1.01,-0.17 1.39,-0.3 1.34,-0.46 3.63,-1.43 4.4,-2.51 0.03,-0.04 0.11,-0.16 0.11,-0.22 -0.01,-0.01 -0.02,-0.01 -0.02,-0.02 -0.2,-0.13 -0.65,-0.16 -0.88,-0.17 -0.28,-0.01 -0.57,0.01 -0.86,0.03 -0.35,0.02 -0.71,0.05 -1.06,0.09 -0.66,0.07 -1.33,0.14 -1.99,0.22 -0.1,0.01 -0.19,-0.01 -0.27,-0.07 -0.08,-0.06 -0.11,-0.14 -0.11,-0.23 0.01,-0.26 0.03,-0.53 0.05,-0.79 0.02,-0.23 0.06,-0.47 0.13,-0.7 0.13,-0.4 0.35,-0.6 0.68,-0.88 0.34,-0.29 0.68,-0.58 1.03,-0.86 0.45,-0.37 0.91,-0.73 1.38,-1.08 0.26,-0.2 0.52,-0.4 0.78,-0.6 0.2,-0.15 0.4,-0.3 0.6,-0.43 0.19,-0.12 0.38,-0.24 0.57,-0.36 0.15,-0.09 0.31,-0.18 0.45,-0.28 0.22,-0.15 0.52,-0.41 0.78,-0.48 0.23,-0.06 0.45,-0.01 0.61,0.14 0.12,0.11 0.19,0.25 0.23,0.39 0.07,0.22 0.1,0.45 0.12,0.68 0.03,0.36 -0.04,0.62 -0.16,0.96 -0.1,0.28 -0.21,0.57 -0.32,0.85 -0.11,0.27 -0.24,0.55 -0.38,0.81 -0.15,0.26 -0.33,0.53 -0.66,0.6 0.71,0.16 0.96,0.52 1.03,1.29 0.04,0.45 0.04,0.96 -0.03,1.4 -0.07,0.43 -0.21,0.75 -0.45,1.12 -0.69,1.04 -1.31,1.34 -2.45,1.97 -1.44,0.79 -2.61,1.44 -4.37,1.49 -0.86,0.03 -1.7,-0.17 -2.01,-0.94 -0.09,-0.21 -0.12,-0.46 -0.13,-0.72zm7.46 -7.14c-0.02,0.02 -0.04,0.04 -0.05,0.05 -0.19,0.16 -0.36,0.34 -0.55,0.5 -0.4,0.32 -0.86,0.61 -1.26,0.94 0.24,-0.03 0.48,-0.06 0.72,-0.08 0.48,-0.03 0.98,-0.03 1.46,0.01 -0.26,-0.14 -0.4,-0.41 -0.43,-0.71 -0.02,-0.25 0.01,-0.48 0.11,-0.71zm-38.48 4.42c0.04,-0.04 0.07,-0.11 0.1,-0.19 -0.04,0.06 -0.07,0.13 -0.1,0.19zm30.43 -0.48c0.14,-0.36 0.29,-0.73 0.42,-1.09 -0.27,0.36 -0.54,0.73 -0.79,1.1 -0.01,0.01 -0.01,0.02 -0.02,0.03 0.13,-0.01 0.26,-0.02 0.39,-0.04zm-8 2.38c0.17,-0.12 0.38,-0.29 0.45,-0.35 0.88,-0.69 1.7,-1.42 2.45,-2.22 0.76,-0.81 1.41,-1.68 2.01,-2.58 0.18,-0.27 0.36,-0.55 0.51,-0.83 0.04,-0.07 0.13,-0.27 0.17,-0.4 -0.06,0.02 -0.13,0.04 -0.16,0.06 -0.22,0.09 -0.44,0.2 -0.65,0.3 -0.25,0.12 -0.49,0.25 -0.73,0.38 -0.43,0.23 -0.7,0.39 -1.04,0.73 -1.17,1.16 -1.91,2.77 -2.62,4.17 -0.11,0.21 -0.22,0.41 -0.32,0.62 -0.02,0.03 -0.04,0.08 -0.06,0.12zm-2.23 -3.11c-0,0 -0.01,0.01 -0.01,0.01 -0.07,0.11 -0.14,0.22 -0.21,0.32 -0.09,0.13 -0.19,0.26 -0.28,0.38 -0.05,0.07 -0.11,0.14 -0.15,0.22 0.03,-0 0.06,-0.01 0.08,-0.01 0.02,-0 0.08,-0 0.09,-0.01 0.07,-0.04 0.16,-0.2 0.19,-0.26 0.11,-0.2 0.2,-0.43 0.28,-0.65zm-18.04 2.45c0.03,-0.02 0.05,-0.05 0.08,-0.07 0.24,-0.22 0.47,-0.45 0.67,-0.7 0.18,-0.21 0.34,-0.43 0.5,-0.66 0.2,-0.28 0.39,-0.56 0.58,-0.85 0.32,-0.49 0.64,-0.98 0.94,-1.49 0.05,-0.09 0.2,-0.34 0.27,-0.52 -0.47,0.19 -1.13,0.78 -1.4,1.04 -0.12,0.12 -0.18,0.23 -0.27,0.38 -0.53,0.92 -0.96,1.89 -1.36,2.86z"/>
   <path class="fil19" d="M2.87 5.73c-0.34,1.01 -1.34,3.7 -1.44,4.52 -0.03,0.26 -0.02,0.44 0.07,0.54 0.09,0.1 0.27,0.11 0.4,0.05 0.13,-0.06 0.2,-0.18 0.37,-0.78 0.17,-0.6 0.42,-1.67 0.56,-2.22 0.21,-0.82 0.17,-0.62 0.29,-0.07 0.08,0.39 0.2,0.4 0.61,-0.04 0.2,-0.21 0.44,-0.52 0.69,-0.83 -0.45,1.35 -0.89,2.7 -1.1,3.48 -0.21,0.78 -0.18,0.99 -0.11,1.12 0.11,0.21 0.41,0.28 0.66,-0.2 0.15,-0.3 0.33,-0.83 0.43,-1.22 0.09,-0.38 0.1,-0.61 0.11,-0.83 0.14,0.07 0.29,0.13 0.43,0.2 -0.17,0.34 -0.62,1.16 -0.4,1.41 0.08,0.09 0.23,0.09 0.36,-0 0.28,-0.19 0.63,-1.12 0.8,-1.51 0.27,-0.1 0.54,-0.19 0.71,-0.22 0.17,-0.03 0.22,0 0.28,0.04 -0.21,0.67 -0.41,1.33 -0.47,1.68 -0.05,0.34 0.05,0.37 0.19,0.36 0.14,-0.01 0.31,-0.06 0.41,-0.24 0.09,-0.18 0.11,-0.5 0.3,-1.17 0.2,-0.67 0.58,-1.69 0.92,-2.66 0.34,-0.97 0.63,-1.89 0.77,-2.48 0.14,-0.59 0.13,-0.86 0.07,-1.04 -0.16,-0.54 -0.47,-0.1 -0.71,0.27 -0.22,0.33 -0.53,0.83 -0.82,1.36 -0.48,0.87 -1.03,2.06 -1.59,2.78 -0.2,0.26 -0.33,0.34 -0.49,0.36 -0.16,0.02 -0.35,-0.01 -0.43,-0.04 -0.07,-0.03 -0.03,-0.07 0.04,-0.31 0.07,-0.24 0.17,-0.67 0.36,-1.25 0.2,-0.62 0.82,-2.18 0.87,-2.54 0.05,-0.37 -0.08,-0.63 -0.41,-0.36 -0.45,0.38 -1.54,2.38 -1.74,2.89 0.1,-0.87 0.21,-1.74 0.21,-2.23 0,-0.49 -0.09,-0.6 -0.19,-0.66 -0.26,-0.16 -0.42,0.05 -0.52,0.34 -0.09,0.24 -0.19,0.63 -0.48,1.5zm38 -0.31c-0.12,0.35 -0.14,0.89 -0.17,1.42 1.03,-0.12 2.97,-0.36 3.96,-0.34 0.56,0.01 0.9,0.1 1.08,0.23 0.18,0.13 0.22,0.29 -0.02,0.61 -0.81,1.13 -3.1,2.12 -4.56,2.63 -0.83,0.29 -1.25,0.34 -1.54,0.32 -0.73,-0.05 -0.45,-0.51 -0.25,-1.07 0.13,-0.37 0.26,-0.86 0.23,-1.11 -0.05,-0.41 -0.63,-0.25 -1.01,0.56 -0.31,0.66 -0.57,1.74 -0.31,2.4 0.24,0.59 0.88,0.77 1.68,0.75 1.69,-0.05 2.81,-0.68 4.21,-1.45 1.16,-0.64 1.69,-0.9 2.34,-1.87 0.22,-0.33 0.35,-0.61 0.41,-1.02 0.06,-0.41 0.06,-0.95 0.03,-1.34 -0.07,-0.78 -0.29,-1 -1.21,-1.1 -0.43,-0.05 -1,-0.06 -1.55,-0.03 -0.55,0.04 -1.08,0.13 -1.33,0.15 -0.24,0.01 -0.2,-0.05 -0.08,-0.18 0.48,-0.51 1.12,-0.88 1.68,-1.34 0.38,-0.3 0.79,-0.8 1.09,-0.81 0.12,-0.01 0.22,0.07 0.21,0.18 -0.01,0.21 -0.3,0.46 -0.25,0.98 0.03,0.32 0.2,0.56 0.58,0.56 0.15,-0 0.29,-0.05 0.52,-0.45 0.22,-0.4 0.53,-1.15 0.68,-1.61 0.16,-0.46 0.16,-0.64 0.15,-0.87 -0.02,-0.25 -0.09,-1.08 -0.53,-0.96 -0.17,0.05 -0.4,0.24 -0.68,0.43 -0.28,0.19 -0.63,0.37 -1.02,0.63 -0.57,0.39 -2.15,1.63 -2.73,2.1 -0.42,0.34 -0.75,0.62 -1.02,0.85 -0.27,0.23 -0.48,0.4 -0.59,0.76zm-5.88 4.28c-0.5,0.48 -1.02,1.28 -1.33,1.65 -0.31,0.37 -0.4,0.32 -0.5,0.17 -0.62,-0.98 0.63,-1.72 0.46,-1.99 -0.05,-0.08 -0.22,-0.16 -0.34,-0.2 -0.12,-0.04 -0.19,-0.05 -0.17,-0.22 0.02,-0.17 0.13,-0.48 0.22,-0.67 0.09,-0.19 0.16,-0.24 0.33,-0.3 0.17,-0.05 0.43,-0.1 0.68,-0.16 0.24,-0.06 0.46,-0.13 0.6,-0.16 0.13,-0.03 0.18,-0.03 0.72,-0.77 0.54,-0.75 1.57,-2.25 2.28,-3.28 0.71,-1.03 1.1,-1.58 1.38,-1.91 0.28,-0.33 0.46,-0.44 0.62,-0.49 0.41,-0.13 0.6,0.09 0.59,0.5 -0.01,0.26 -0.08,0.64 -0.4,1.62 -0.33,0.98 -0.91,2.55 -1.38,3.77 -0.47,1.22 -0.83,2.09 -1.1,2.79 -0.28,0.7 -0.48,1.23 -0.62,1.53 -0.14,0.29 -0.22,0.35 -0.35,0.33 -0.13,-0.02 -0.31,-0.11 -0.4,-0.28 -0.27,-0.52 0.61,-2.17 0.66,-2.45 0.05,-0.33 -0.27,-0.29 -0.63,-0.2 -0.31,0.08 -0.8,0.23 -1.3,0.71zm3.05 -3.61c-0.13,0.35 -0.34,0.88 -0.54,1.41 -1.28,0.13 -1.29,0.16 -0.9,-0.41 0.22,-0.32 1.62,-2.25 1.84,-2.46 0.08,-0.08 0.1,-0.05 0.06,0.09 -0.04,0.14 -0.14,0.4 -0.21,0.62 -0.07,0.22 -0.12,0.4 -0.25,0.75zm-7.44 -2.15c-0.33,0.89 -1.03,2.58 -1.48,3.63 -0.45,1.05 -0.64,1.46 -0.83,1.68 -0.36,0.44 -0.89,0.2 -0.98,0.67 -0.07,0.39 0.24,1.26 0.56,1.54 0.1,0.09 0.16,0.08 0.4,-0.03 0.24,-0.1 0.65,-0.29 1.06,-0.48 0.41,-0.19 0.82,-0.39 1.57,-1.04 0.75,-0.65 1.85,-1.75 2.66,-2.73 1.01,-1.24 2.08,-3.02 2.37,-4.15 0.1,-0.38 0.09,-0.63 -0.07,-0.85 -0.16,-0.21 -0.48,-0.39 -0.77,-0.44 -0.55,-0.1 -1.45,0.32 -1.92,0.61 -0.33,0.2 -0.62,0.45 -0.78,0.6 -0.17,0.15 -0.21,0.21 -0.28,0.09 -0.24,-0.4 -0.17,-0.94 -0.28,-1 -0.08,-0.04 -0.26,0.01 -0.44,0.16 -0.18,0.15 -0.36,0.4 -0.43,0.57 -0.07,0.17 -0.03,0.26 -0.36,1.15zm1.4 0.57c-1.19,1.18 -1.96,2.85 -2.68,4.24 -0.3,0.59 -0.42,0.76 -0.44,0.92 -0.02,0.16 0.06,0.31 0.18,0.34 0.12,0.03 0.28,-0.08 0.86,-0.53 1.94,-1.53 3.19,-2.86 4.52,-4.87 0.43,-0.64 0.92,-1.41 0.66,-1.62 -0.08,-0.06 -0.2,-0.1 -0.57,0.05 -0.37,0.14 -0.97,0.46 -1.42,0.7 -0.44,0.24 -0.72,0.39 -1.11,0.78zm-11.01 3.4c2.48,-0.49 2.77,-0.84 2.46,0.36 0.5,-0.1 1,-0.19 1.23,-0.25 0.24,-0.06 0.21,-0.07 0.18,-0.09 1.08,-1.62 2.15,-3.25 2.79,-4.26 0.64,-1.01 0.84,-1.4 1.03,-1.62 0.46,-0.55 0.81,0.03 0.88,0.42 0.05,0.27 -0,0.58 -0.4,1.71 -0.39,1.12 -1.12,3.06 -1.61,4.29 -0.49,1.23 -0.73,1.75 -0.89,2.17 -0.17,0.42 -0.26,0.74 -0.34,0.94 -0.08,0.2 -0.15,0.29 -0.3,0.25 -0.26,-0.08 -0.77,-0.53 -0.51,-1.03 0.23,-0.44 0.68,-0.65 0.81,-1.51 0.03,-0.17 0.01,-0.21 -0.01,-0.25 -0.49,0.1 -0.97,0.2 -1.46,0.3 -0.4,0.63 -0.79,1.25 -1.04,1.6 -0.25,0.34 -0.35,0.4 -0.48,0.34 -0.13,-0.06 -0.28,-0.23 -0.26,-0.43 0.03,-0.31 0.56,-0.78 0.7,-1.23 0.14,-0.44 -0.63,0.16 -0.73,-0.53 -0.47,0.53 -1.22,1.19 -1.93,1.59 -0.52,0.29 -1.34,0.47 -1.71,0.16 -0.35,-0.3 -0.48,-1.25 -0.49,-1.7 -0.01,-0.32 0.03,-0.6 0.21,-1.01 0.46,-1.06 1.84,-2.85 2.83,-3.83 0.69,-0.69 2.22,-1.95 2.91,-2.01 0.65,-0.06 0.83,0.47 0.78,0.98 -0.03,0.25 -0.25,1.01 -0.43,1.03 -0.34,0.03 -0.3,-0.96 -1.06,-0.5 -0.34,0.21 -2.16,1.87 -2.6,2.31 -0.72,0.74 -2.16,2.49 -2.05,3.32 0.02,0.16 0.08,0.36 0.14,0.46 0.06,0.1 0.12,0.11 0.22,0.09 0.38,-0.05 1.21,-0.55 1.64,-0.77 0.33,-0.17 0.53,-0.26 0.63,-0.35 0.1,-0.09 0.09,-0.17 -0.05,-0.18 -0.21,-0.01 -1,0.21 -1.26,0.25 -0.14,0.03 -0.22,0.03 -0.29,-0.06 -0.07,-0.1 -0.13,-0.29 -0.13,-0.43 -0.01,-0.16 0.1,-0.41 0.16,-0.45 0.04,-0.02 0.1,-0.02 0.42,-0.08zm6.71 -2.4c-0.14,0.47 -0.44,1.32 -0.66,1.75 -0.23,0.43 -0.38,0.43 -0.55,0.44 -0.28,0.02 -0.69,0.1 -0.44,-0.36 0.09,-0.17 0.28,-0.38 0.47,-0.67 0.14,-0.2 1.1,-1.78 1.27,-1.72 0.04,0.01 0.06,0.09 -0.08,0.55zm-15.58 0.93c-0.15,0.49 -0.41,1.33 -0.54,1.8 -0.13,0.47 -0.15,0.56 -0.22,0.63 -0.07,0.07 -0.21,0.12 -0.27,0.25 -0.12,0.26 0.05,0.51 -0.28,1.09 -0.1,0.19 -0.24,0.39 -0.25,0.6 -0.01,0.21 0.22,0.81 0.48,0.61 0.41,-0.3 0.6,-1.35 0.76,-1.68 0.07,-0.16 0.16,-0.22 0.44,-0.26 0.57,-0.08 1.44,-0.06 1.98,0.04 0.2,0.04 0.32,0.08 0.42,0.27 0.17,0.32 0.25,1.04 0.49,1.24 0.08,0.06 0.17,0.06 0.31,-0.06 0.54,-0.45 2.75,-3.68 2.89,-3.73 0.05,-0.02 0.07,0.06 -0.07,0.46 -0.19,0.57 -1.28,3.22 -1.1,3.7 0.07,0.2 0.45,0.35 0.71,-0.06 0.13,-0.2 0.25,-0.56 0.61,-1.6 0.35,-1.03 1.8,-5.17 1.97,-5.98 0.1,-0.48 -0,-0.54 -0.13,-0.9 -0.12,-0.35 -0.25,-0.61 -0.71,0.01 -0.61,0.84 -1.21,2.41 -1.91,3.66 -0.51,0.91 -1.25,2.1 -1.65,2.7 -0.39,0.6 -0.43,0.62 -0.48,0.59 -0.05,-0.03 -0.1,-0.12 0.27,-0.93 0.37,-0.81 1.16,-2.34 1.58,-3.17 0.42,-0.83 0.46,-0.97 0.49,-1.15 0.04,-0.3 0.01,-0.81 -0.22,-1.02 -0.09,-0.08 -0.18,-0.07 -0.33,0.14 -0.24,0.36 -1.64,3.5 -1.89,4.06 -0.52,1.14 -0.43,1.17 -1.47,0.72 -0.75,-0.32 -0.86,-0.29 -0.62,-0.54 0.18,-0.19 0.57,-0.54 0.92,-0.86 0.45,-0.42 1.62,-1.54 1.96,-1.94 0.28,-0.33 0.75,-1.06 0.86,-1.37 0.06,-0.18 0.08,-0.38 0.02,-0.57 -0.06,-0.18 -0.21,-0.36 -0.4,-0.39 -0.19,-0.03 -0.41,0.09 -0.75,0.26 -0.73,0.35 -1.22,0.55 -1.74,1.06 -0.15,0.14 -0.26,0.26 -0.34,0.31 -0.08,0.05 -0.13,0.03 -0.11,-0.04 0.02,-0.06 0.1,-0.17 0.12,-0.36 0.06,-0.61 -0.35,-1.23 -0.83,-0.26 -0.09,0.18 -0.16,0.38 -0.25,0.64 0.11,-0.4 0.11,-0.73 -0.13,-1.04 -0.1,-0.14 -0.23,-0.22 -0.45,-0.19 -0.49,0.05 -1.19,0.51 -1.5,0.82 -0.14,0.14 -0.15,0.21 -0.19,0.18 -0.17,-0.11 -0.17,-0.52 -0.28,-0.58 -0.08,-0.04 -0.24,-0.01 -0.37,0.17 -0.12,0.18 -0.21,0.5 -0.27,0.76 -0.06,0.27 -0.1,0.49 -0.39,1.25 -0.29,0.76 -0.83,2.06 -1.11,2.76 -0.44,1.07 -0.28,0.8 -0.74,1.01 -0.43,0.2 -0.34,0.64 -0.21,1.03 0.16,0.47 0.41,0.63 0.9,0.38 0.19,-0.1 0.35,-0.23 0.74,-0.55 1.41,-1.18 1.73,-1.6 2.66,-3.09 0.35,-0.56 0.56,-0.86 0.8,-1.41 -0.05,0.13 -0.1,0.29 -0.19,0.56zm2.78 -1.69c0.44,-0.36 0.67,-0.46 0.8,-0.49 0.45,-0.09 -0.48,0.93 -0.71,1.17 -0.27,0.28 -1.69,1.6 -1.98,1.55 -0.11,-0.02 -0.06,-0.22 -0,-0.36 0.05,-0.14 0.1,-0.2 0.45,-0.54 0.35,-0.34 1.01,-0.97 1.45,-1.33zm-4.87 1.2c-0.57,0.98 -1.03,2.06 -1.46,3.1 -0.18,0.43 -0.27,0.64 -0.27,0.74 -0,0.1 0.09,0.08 0.15,0.04 0.06,-0.04 0.08,-0.09 0.33,-0.31 0.25,-0.22 0.73,-0.6 1.22,-1.18 0.59,-0.7 1.65,-2.37 2.04,-3.02 0.13,-0.22 0.64,-1.07 0.11,-0.99 -0.57,0.08 -1.42,0.83 -1.79,1.19 -0.1,0.1 -0.15,0.14 -0.32,0.44zm-2.63 0.37c-0.24,0.26 -0.98,1.19 -0.96,1.56 0.01,0.2 0.34,0.18 0.45,0.14 0.34,-0.13 0.41,-0.6 0.47,-0.95 0.04,-0.24 0.08,-0.48 0.12,-0.65 0.04,-0.17 0.08,-0.27 -0.07,-0.1z"/>
  </g>
 </g>
</svg>
