<?xml version="1.0" encoding="UTF-8"?>
<!DOCTYPE svg PUBLIC "-//W3C//DTD SVG 1.1//EN" "http://www.w3.org/Graphics/SVG/1.1/DTD/svg11.dtd">
<!-- Creator: CorelDRAW -->
<svg xmlns="http://www.w3.org/2000/svg" xml:space="preserve" width="60.7561mm" height="21.7403mm" version="1.1" style="shape-rendering:geometricPrecision; text-rendering:geometricPrecision; image-rendering:optimizeQuality; fill-rule:evenodd; clip-rule:evenodd"
viewBox="0 0 139.76 50.01"
 xmlns:xlink="http://www.w3.org/1999/xlink"
 xmlns:xodm="http://www.corel.com/coreldraw/odm/2003">
 <defs>
  <style type="text/css">
   <![CDATA[
    .fil0 {fill:black}
    .fil9 {fill:#F59BA5}
    .fil8 {fill:#F99DA8}
    .fil7 {fill:#FAFAFA}
    .fil5 {fill:#FB9EA9}
    .fil6 {fill:#FC9FAA}
    .fil3 {fill:#FDA0AB}
    .fil4 {fill:#FDFBFC}
    .fil1 {fill:#FDFDFD}
    .fil2 {fill:#FFA0AC}
   ]]>
  </style>
 </defs>
 <g id="Camada_x0020_1">
  <metadata id="CorelCorpID_0Corel-Layer"/>
  <g id="_2070808598400">
   <path class="fil0" d="M21 48.27c1.52,-0.01 14.94,0.09 15.92,0.35 1.78,0.49 0.9,1.22 3.77,1.28 1.41,0.21 2.08,0.07 3.33,-0.2 1.19,-0.25 1.66,0.36 3.39,0.18 1.32,-0.14 1.67,-0.82 2.44,-1.12 1.08,-0.42 16.84,-0.22 18.97,-0.24 1.26,-0.01 2.72,-0.09 3.95,-0.03 1.31,0.06 1.88,0.48 2.95,0.71 2.11,0.45 4.43,-0.43 6.46,-0.71 1.5,-0.2 9.58,-0.28 11.62,-0.15l3.37 -0.05c0.91,0.02 1.47,-0.39 2.29,-0.75 3.28,-1.44 1.94,-1.56 6.2,0.36 0.61,0.27 3.92,1.15 4.78,1.31 1.79,0.34 3.69,0.53 5.61,0.42 4.29,-0.24 9.06,-1.76 11.74,-3.49 2.24,-1.45 4.11,-3.73 5.56,-4.99 2.02,-1.76 2.71,-1.98 4.33,-3.27 1.46,-1.17 1,-1.32 1.32,-2.5 0.42,-1.54 1.9,-0.28 -1.01,-4.34 -0.37,-0.52 -0.41,-0.91 -0.7,-1.41 -2.97,-5.18 -3.57,-11.54 -3.16,-17.17 0.14,-1.88 1.08,-5.75 0.07,-7.14 -0.67,-0.92 -2.38,-1.21 -3.66,-0.31 -1.73,1.22 -4.02,2.55 -5.64,3.83 -0.55,0.44 -2.11,1.6 -2.74,1.79 -0.96,-0.31 -2.21,-1.11 -3.31,-1.15 -0.3,-0.2 -0.01,-0.06 -0.53,-0.26 -5.27,-1.73 -7.19,0.17 -8.33,-2.13 -0.38,-0.76 -1.72,-1.93 -2.26,-3l-3.03 -4.1 -3.63 0 -2.57 5.87 -0.34 0.89c-0.67,0.11 -1.19,-0.15 -1.99,-0.28 -0.71,-0.11 -1.57,-0.07 -2.37,-0.08 -1.66,-2.16 -0.69,-2.24 -6.58,-2.34 -1.28,-0.02 -3.67,-0.17 -4.72,0.17 -1.29,0.41 -1.33,0.99 -1.59,1.45 -0.51,0.88 -2.38,0.78 -2.79,0.16 -0.03,-0.05 -0.12,-0.25 -0.15,-0.32 -0.96,-2.24 -3.55,-1.63 -6.91,-1.66 -1.35,-0.01 -4.04,-0.32 -5.05,0.14 -1.46,0.67 -1.75,1.57 -2.28,2.15 -1.1,0.09 -5.47,0.5 -6.25,0.34 -5.27,-1.09 -3.13,-0.58 -4.38,-1.73 -1.56,-1.44 -2.28,-1.11 -5.35,-1.19 -3.26,-0.08 -2.22,3.36 -6.22,2.49 -2.34,-0.51 -5.87,0.15 -9.44,-0.25 -2.24,-0.25 -10.2,0.07 -13.46,-0.07 -3.87,-0.2 -1.31,-2.11 -5.04,-2.59 -1.77,-0.23 -6.54,-0.44 -7.88,0.16 -2.21,0.98 -1.73,2.64 -1.94,4.75l-1.04 11.54c-0.07,0.99 0.24,2.1 -0.26,3 -0.26,0.46 -0.5,0.54 -0.75,0.96 -0.28,0.47 -0.17,0.58 -0.59,1.08 -2.85,3.43 0.19,5.73 2.01,6.01 1.34,0.21 2.22,-0.36 3.09,-0.65 0.16,1.1 0.02,3.03 -0.14,4.13 -0.42,2.86 -3.01,2.77 -2.83,6.29 0.07,1.41 0.7,2.24 1.34,3.1 0.96,1.3 -0.26,4.26 5.21,4.54 3.8,0.2 7.34,0.16 11.15,0.21z"/>
   <path class="fil1" d="M111.07 31.99c2.01,-0.32 3.39,0.42 4.82,1.21 0.43,0.24 0.75,0.51 0.99,0.92 2.39,4.19 -3.4,4.76 -6.05,3.45 -0.59,-0.29 -1.84,-1.19 -2.18,-1.69 -1.35,-1.95 -0.02,-3.51 2.41,-3.89zm-13.35 7.47c1.02,-0.03 0.97,-0.52 1.72,-0.02 0.68,0.45 0.32,0.84 1.45,0.79 -0.04,-0.92 -1.7,-2.24 -2.64,-4.42 -0.37,-0.86 -0.82,-1.53 -1.24,-2.39 -0.41,-0.83 -0.64,-1.66 -1.01,-2.55l-1.17 0.33c-0.05,-0.59 0.53,-1.77 0.86,-2.22l2.52 1.69c-0.54,0.24 -0.48,-0.09 -1.32,-0.1 0.04,0.6 1.52,2.89 1.95,3.41l2.27 2.04c0.34,0.27 0.65,0.34 1.01,0.66 0.06,0.92 -0.23,2.01 0.14,2.87 0.79,-0.07 1.58,-1 2.63,-1.72 0.64,0.11 2.17,0.76 2.86,1.01 4.31,1.59 8.4,0.95 11.77,1.15 0.23,0.97 -0.42,1.61 -0.28,2.68 1.06,-0.31 2.02,-0.97 2.67,-1.52 2.04,-1.75 0.57,-1.14 3.54,-2.76 0.21,-0.12 0.38,-0.21 0.6,-0.38 0.95,-0.71 2.41,-1.83 2.46,-2.84l-0.9 -0.38c0.5,-0.37 1.49,-0.74 2.38,-0.67 0.42,0.8 0.37,1.72 0.29,2.61 -0.41,-0.25 -0.58,-0.59 -0.98,-0.77 -0.48,0.39 -0.67,0.68 -0.95,1.25 -0.55,1.12 -4.19,4.72 -5.82,5.77 -3.17,2.05 -7.36,3.68 -11.88,2.81 -4.71,-0.9 -5.42,-2.47 -6.9,-2.92 -0.33,0.16 -0.5,0.17 -0.69,0.52 0.73,0.99 6.71,2.92 9.49,3.08 5.7,0.33 7.25,-0.02 11.33,-1.68 2.68,-1.09 5.04,-3.37 6.61,-5.18 0.28,-0.32 0.83,-1.29 1.09,-1.67 0.33,-0.48 0.82,-1.39 1,-1.87 0.55,-1.42 0.84,-3.11 -0.47,-4.07 -1.39,-0.07 -1.81,0.59 -2.87,0.96 -3.49,1.21 -7.84,3.22 -11.71,-0.3l-1.49 -2.05c-1.54,-2.7 -1.45,-4.18 -1.81,-4.85 -1.35,1.12 -1.75,2.9 -3.55,4.04 -1.11,0.7 -2.39,2.37 -6.26,1.73 -3.11,-0.51 -5.87,-2.74 -7.73,-4.48 -0.77,-0.72 -1.16,-1.49 -2.5,-1.56 -2.48,1.73 -1.74,4.89 -0.61,7.38 0.57,1.26 0.56,1.92 1.81,3.49 0.41,0.52 0.7,1.19 1.03,1.58 0.38,0.46 0.94,0.95 1.31,1.49z"/>
   <path class="fil1" d="M60.58 20.53c-0.25,-1.14 -0.38,-4.32 1.3,-4.94 0.55,0.6 0.07,2.04 -0.03,2.77 -0.14,1.01 0.26,2.27 -1.27,2.17zm-6.79 -0.15c-1.68,0.19 -1.21,-0.87 -1.12,-1.9 0.08,-0.87 0.15,-1.72 0.23,-2.6 0.12,-1.21 0.08,-4.28 0.71,-5.04l1 0.02c0.29,1.35 -0.24,8.86 -0.82,9.52zm-8.76 -0.3c-0.33,-0.54 0.25,-8.13 0.56,-9.14l1.03 0.04c0.33,0.59 -0.35,8.38 -0.76,9.15l-0.83 -0.05zm-2.01 -11.05c0.04,0.42 -0.65,2.96 -0.75,3.92 -0.15,1.42 -0.24,2.82 -0.37,4.23 -0.06,0.65 -0.22,3.97 -0.04,4.4 0.12,0.27 0.91,1.03 1.38,1.16 1.08,0.31 1.82,-0.18 2.31,-0.46 0.87,0.34 0.2,0.36 1.49,0.41 0.7,0.03 1.41,0.11 1.8,-0.17 0.69,-0.59 0.57,-6.39 0.84,-7.73 0.56,0.39 0.2,1.52 0.17,2.05 -0.11,1.69 -0.65,4.71 1.26,5.66 1.59,0.8 3.34,0.55 4.48,-0.26 1.01,-0.72 1.42,-2.01 1.68,-3.33 0.04,1.26 0.06,2.07 0.36,3.21 0.95,-0.25 0.85,-0.47 1.75,-0.82 0.58,-0.23 1.51,-0.44 2.01,-0.21 2.5,0.61 0.81,1.99 3.15,1.79 0.42,-1.44 1.11,-10.22 0.9,-11.77 -0.65,-4.68 -8.52,-3.22 -7.21,1.68 4.6,0.49 1.75,-0.68 3.48,-1.94 0.79,0.26 1.32,1.5 -0.33,2.46 -3.06,1.79 -1.85,0.03 -3.98,3.67 -0.1,-2.44 1.12,-5.99 -0.66,-7.89 -1.27,-1.36 -4.96,-1.27 -6.14,1.42 -0.04,0.1 -0.14,0.36 -0.18,0.42l-0.22 -4.83c-0.56,-0.08 -0.94,-0.09 -1.45,-0.09l-1.2 0.1c-0.44,0.1 -0.34,1.03 -0.35,1.42 -0,0.18 -0,0.45 -0.03,0.62 -0.02,0.11 -0.05,0.22 -0.09,0.33 -0.19,0.42 -0.04,0.15 -0.2,0.31 -0.54,-0.25 -0.98,-0.74 -2.02,-0.67 -1.04,0.07 -1.12,0.54 -1.81,0.91z"/>
   <path class="fil2" d="M121.44 14.09c-1.95,0.51 -3.42,1.39 -4.32,2.64 -3.13,4.35 -2.85,10.02 -0.09,14.42 0.83,1.33 3.88,3.53 6.69,2.86 1.28,-0.31 2.44,-0.99 3.07,-1.58 3.62,-3.37 4.33,-8.42 2.75,-12.61l-1.45 -2.91c-0.29,-0.43 -0.71,-0.71 -1.11,-1.1 -1.24,-1.19 -3.24,-2.31 -5.55,-1.71zm-14.86 -2.64c-2.69,0.32 -4.92,2.13 -5.91,3.55 -1.58,2.25 -2.21,3.26 -2.44,6.24 -0.19,2.47 0.04,5.01 1.46,6.81 0.33,0.41 0.66,0.71 1.02,1.18 0.75,0.96 3.16,2.18 5.66,1.85 1.05,-0.14 2.78,-0.97 3.38,-1.37 0.37,-0.25 2.14,-1.78 2.4,-2.22 1.03,-1.8 2.37,-3.89 2.38,-6.24 0.01,-2.62 0.04,-4.7 -1.6,-6.68 -1.27,-1.54 -0.11,-0.81 -2.39,-2.23 -0.98,-0.61 -2.14,-1.1 -3.94,-0.88z"/>
   <path class="fil3" d="M41.68 33.89c-0.09,-0.49 0.15,-0.78 0.36,-1.23 0.25,-0.53 0.18,-0.74 0.81,-0.81 0.17,0.74 -0.72,1.55 -1.17,2.04zm-10.98 -4.68c-0.19,-0.18 -0.38,0.38 -0.19,-0.55 0,-0 0.19,-0.39 0.21,-0.42l0.71 -1.67c0.32,-0.79 -0.13,-0.28 0.4,-0.86 0.13,0.17 0.33,-0.27 0.11,0.53 -0.21,0.75 -0.73,2.49 -1.23,2.98zm-0.19 6.16l-0.38 -0.73c-0.32,-1.41 -0.17,-1.84 0.6,-2.57 0.7,-0.66 1.39,-1.94 1.81,-2.77 0.77,-1.53 2.26,-5.66 -0.53,-6.19 -2.1,0.73 -2.63,4.05 -3.03,6.08 -0.3,1.51 -0.27,1.95 -1.06,3.32 -0.29,0.5 -0.64,0.89 -0.87,1.42 -0.31,0.7 -0.11,1.01 -1.03,1.28 -0.02,-1.45 1.1,-4.69 -0.4,-5.23 -1.33,0.51 -1,2.84 -1.07,3.99 -0.09,1.48 -0.02,3.4 1.82,3.57 0.39,-0.2 0.93,-0.81 1.25,-1.15 0.42,-0.43 0.55,-0.93 1,-1.3 0.62,0.71 0.26,1.85 1.69,2.45 1.12,0.16 2.59,-2.1 3.1,-2.28 0.09,0.57 -0.05,1.26 0.32,1.94 0.4,0.73 -0.11,0.25 0.52,0.52 1.57,-0.69 1.55,-5.33 3.12,-5.8 0.18,1.35 -0.04,3.26 0.5,4.58 0.18,0.44 0.38,0.78 0.88,1.07 1.14,-0.14 0.84,-0.41 1.5,-1.01 0.38,0.17 0.07,0 0.39,0.26l0.27 0.24c0.02,0.02 0.06,0.06 0.09,0.08 0.49,-0.18 1.22,-0.73 1.53,-1.1 0.59,-0.71 0.25,-1.12 1.15,-1.44 0.26,1.14 0.2,2.23 1.64,2.56 1.03,-0.37 0.93,-0.8 1.69,-1.14 0.39,0.5 0.3,0.61 0.79,1.04 1.33,-0.64 0.88,-2.9 2.53,-4.9 1.22,0.16 0.29,0.4 1.58,0.43 1.15,-1.68 -1.5,-2.58 -1.52,-2.58 -0.73,0.09 -0.97,0.37 -1.72,0.55 -0.21,-0.57 -0.16,-0.5 -0.64,-0.87 -1.38,0.35 -0.27,0.81 -1.19,2.64l-1.58 2.48c-0.11,-1.48 0.61,-3.49 -0.32,-4.56 -0.74,-0.1 -0.77,0.05 -1.39,-0.1 -0.47,-0.11 -0.56,-0.34 -1.21,-0.28 -0.76,0.07 -1.31,0.76 -1.54,1.35 -0.3,0.72 -0.47,1.02 -0.88,1.68 -0.36,0.58 -0.46,1.33 -0.8,1.84 -0.22,-0.17 -0.07,0.08 -0.2,-0.27 -0.13,-0.36 0.02,-2.06 -0.29,-3.47 -0.21,-0.95 0.04,-1.31 -1.39,-1.51 -0.92,0.07 -1.33,1.16 -1.7,1.72l-0.63 0.72c-0.08,-2.01 1.05,-8.17 0.04,-8.8 -1.48,-0.91 -1.13,1.44 -1.13,2.05 0,2.02 -0.21,4.04 -0.33,6.03 -0.07,1.28 -0.61,1.26 -1.34,2.18 -0.57,0.73 -0.7,1.51 -1.68,1.95z"/>
   <path class="fil1" d="M29.35 12.05c0,-0.74 0.21,-1.29 0.79,-1.65 0.82,0.26 0.78,0.87 0.78,1.65 -0,1.3 0.18,1.41 -1.51,1.33l-0.06 -1.33zm-3.59 7.61l-3.24 0c-0.2,-0.71 1.39,-3.09 1.8,-3.9 0.54,-1.07 1.21,-3.31 2.07,-3.97 -0.1,0.72 -0.45,1 -0.44,1.76 0.02,1.69 0.32,4.15 -0.19,6.11zm-5.79 -8.71l3.13 0.06c0.33,1.38 -4.51,7.12 -4.03,11.32l6.36 0.07c0.5,-0.12 0.16,-0.23 0.51,-1.13 0.01,-0.03 0.03,-0.08 0.06,-0.12 0.74,0.61 0.99,1.28 2.33,1.48 4.69,0.69 5.34,-3.5 5.16,-5.79l-2.97 -0.03c-0.4,1.01 0.01,2.86 -1.11,3.4 -0.94,-0.88 -0.44,-3.1 -0.2,-4.33l4.22 -0.05c0.97,-0.2 0.59,-5.53 -0.12,-6.54 -1.17,-1.69 -4.39,-1.73 -5.75,-0.36l-0.71 0.59c0.04,-1.78 0.25,-1.4 -2.37,-1.43 -1.38,-0.01 -3.13,-0.1 -4.47,-0l-0.06 2.85z"/>
   <path class="fil1" d="M15.28 19.98c-1.1,0.07 -1.03,-0.15 -1.07,-0.93 -0.07,-1.42 -0.03,-3.19 1.54,-4.18 0.03,0.79 -0.23,4.65 -0.47,5.11zm-2.57 -7.63c1.5,-0.16 1.84,0.39 2.02,-0.7 0.12,-0.71 0.07,-1.22 0.94,-1.35 0.95,0.77 0.43,1.96 -0.36,2.45 -0.35,0.22 -1.06,0.39 -1.55,0.65 -0.8,0.42 -0.4,0.56 -1.24,0.69 -0.09,-0.62 -0.1,-1.2 0.18,-1.74zm-3.05 -3.65l3.08 0.03 -0.91 2.62 -2.51 -0.05 0.35 -2.6zm-4.25 13.42c5.23,0.87 2.47,-4.63 3.72,-7.45l2.75 -0.02c-0.27,1.02 -0.66,1.49 -0.79,2.74 -0.09,0.96 -0.34,2.3 0.03,3.15 0.04,0.02 0.12,-0 0.14,0.04 0.14,0.23 2.2,-0.29 3.6,0.14 1.11,0.34 1.46,0.96 2.08,1.58l1.26 0c0.49,-3.04 0.71,-6.25 0.96,-9.35 0.2,-2.48 0.26,-4.98 -3.31,-5.05 -1.33,-0.02 -2.14,0.12 -2.83,0.56l0.09 -2.88c-1.28,-0.05 -5.63,-0.22 -6.55,-0.05l-1.16 16.58z"/>
   <path class="fil3" d="M70.75 41.5c0.03,-0.29 -0.06,-0.09 0.1,-0.31 0.02,-0.03 0.25,-0.25 0.27,-0.27 -0.16,-0.18 -0.14,-0.05 -0.08,-0.42 0,-0.01 0.14,-0.44 0.18,-0.55 0.81,-2.52 1.66,-6.18 2.44,-8.38 0.65,-1.84 3.2,-8.13 1.36,-9.54 -1.73,-0.6 -4.35,3.21 -4.81,3.77 -1.57,1.95 -2.05,2.89 -3.46,4.7l-0.09 -0.45c0.18,-1.18 1.78,-3.41 -0.29,-4.2 -2.34,0.58 -4.72,5.25 -5.47,5.77l1.33 -5.36c0.4,-1.71 1.11,-4.93 -2.05,-4.74 -0.15,0.12 -0.77,0.38 -1.14,0.65 -1.17,0.87 -1.52,0.9 -2.17,1.71 -0.38,0.47 -0.66,0.67 -1.03,1.02 -0.77,0.75 -3.44,4.21 -1.11,4.7 0.84,-0.39 0.59,-1.02 1.08,-1.84 0.36,-0.61 0.82,-1.19 1.29,-1.79 0.62,-0.79 2.71,-2.65 3.88,-2.73 0.13,1.93 -0.83,4.89 -1.48,6.82 -0.28,0.83 -0.29,1.45 -0.56,2.33 -0.42,1.34 -0.97,2.8 -1.47,4.11 -0.32,0.84 -0.42,1.33 -0.6,2.19 -0.21,1.04 -0.83,1.49 0.3,2.14 0.97,-0.35 1.68,-2.1 2.05,-3.03 0.34,-0.85 1.33,-2.42 1.88,-3.16 0.51,-0.68 0.61,-1.48 1.96,-3.09 0.2,-0.23 0.37,-0.37 0.57,-0.67 0.22,-0.34 0.88,-1.74 1.74,-2.11 -0.19,1.83 -2.85,7.06 -1.26,8.31 1.45,-0.42 1.75,-1.99 2.43,-3.12 1.75,-2.9 3.57,-5.62 5.92,-8.29 0.52,-0.6 0.75,-1.22 1.62,-1.47 -0.09,0.77 -0.31,1.47 -0.58,2.22 -0.32,0.87 -0.38,1.56 -0.58,2.35 -0.36,1.39 -0.94,2.99 -1.41,4.3l-1.88 6.58c-0.33,1.18 0.07,1.35 1.1,1.83z"/>
   <path class="fil3" d="M38.51 41.12c-1.85,-0.22 -15.48,0.03 -18.52,0.05 -1.57,0.01 -3.13,0.03 -4.7,0.04 -2.35,0.02 -2.27,-0.05 -3.7,0.74 -0.46,0.26 -0.83,0.55 -1.31,0.83 -0.32,0.18 -0.98,0.45 -1.3,0.69 -0.18,0.14 -0.79,0.87 -0.82,1.09 -0.06,0.42 -0.45,0.21 0.41,0.43 0.31,0.08 26.57,0.8 28.4,0.53 1.67,-0.25 1.77,-0.69 2.17,-1.84 0.25,-0.71 -0.18,-0.36 -0.5,-1.01 -0.21,-0.43 -0.1,-1.07 -0.15,-1.56z"/>
   <path class="fil1" d="M65.91 14.76c0.33,1.83 -1.01,6.83 -0.4,8.07 0.76,0.19 2.05,0.1 3.02,0.1 0.05,-0.99 0.19,-6.1 0.67,-6.56 0.28,0.4 0.69,2.62 0.85,3.25 0.15,0.58 0.27,1.19 0.43,1.81 0.06,0.24 0.12,0.52 0.18,0.79l0.33 0.73c0.02,0.02 0.05,0.07 0.09,0.1 1.74,-0.22 2.58,-1.72 2.66,-2.91 0.14,-1.91 1.3,-12.93 1.08,-13.8l-3.13 -0.01 -0.72 7.44 -1.52 -7.47c-0.9,-0.06 -2.03,-0.19 -2.83,0.06l-0.46 6.38c0,0.55 0.16,1.62 -0.24,2.02z"/>
   <path class="fil3" d="M7.47 40.39c-0.01,-0.54 0.29,-0.78 0.6,-1.15 0.69,-0.81 0.31,-0.52 1.66,-0.56 0.33,-1.01 1.6,-1.85 3.4,-1.63 0.05,0.63 -1.5,1.74 -2.05,2.19 -0.81,0.66 -2.2,1.39 -3.62,1.15zm-3.81 -12.31c0.99,-1.17 -0.35,-0.63 1.86,-1.94 1.01,-0.6 0.49,-0.72 2.47,-1.47 1.93,-0.73 4.18,-2.11 6.95,-1.41 0.29,1.04 -2.11,4.26 -2.99,5.24 -3.32,3.66 2.72,2.39 3.42,4.05 0.58,1.38 -1.01,2.9 -1.48,3.94 -0.5,-0.38 -0.39,-0.79 -0.83,-1.41 -1.82,-0.31 -1.59,0.19 -2.87,0.44 -0.05,-2.1 0.47,-5.91 0.61,-8.55 0.05,-0.87 0.47,-1.96 -0.37,-2.5 -1.06,0.11 -0.92,0.66 -1.07,1.99 -0.1,0.87 -0.19,1.71 -0.29,2.57 -0.19,1.7 -0.43,3.49 -0.51,5.2 -0.07,1.51 0.3,1.84 -0.45,2.43 -0.42,0.33 -1.4,1.15 -1.69,1.64 -2.01,3.42 1.9,6.09 6.03,2.34 2.64,-2.4 6.35,-6.75 3.45,-9.84 -1.19,-1.27 -1.25,-0.63 -2.24,-1.22 0.14,-0.92 4.8,-5.37 1.91,-7.86 -0.83,-0.71 -2.74,-0.59 -4.01,-0.38 -2.53,0.42 -4.68,1.42 -6.33,2.39 -0.8,0.47 -1.66,1.14 -2.23,1.94 -0.65,0.91 -0.73,2.23 0.67,2.41z"/>
   <path class="fil1" d="M86.29 9.66l-0.3 -0.75 -2.89 -0.04c-0.29,0.55 -1.27,13.51 -1.05,14.21 3.78,0.11 2.81,0.23 3.06,-2.51l0.81 -8.48c1.14,0.14 0.61,1.03 0.47,2.97 -0.1,1.4 -0.65,5.91 -0.41,6.94 0.44,1.89 2.9,1.22 3.06,1.1 0.45,-0.46 0.09,-3.28 0.14,-4.19 0.05,-1.01 -0,-5.81 0.53,-6.55 1.55,-2.13 0.11,-2.54 0.17,-3.71 0.04,-0.76 0.22,-1.44 0.16,-2.18l-3.1 -0.03c0,0.64 0.01,1.22 -0.01,1.8 -0.03,0.78 0.12,1.24 -0.63,1.44z"/>
   <path class="fil1" d="M33.86 16.16l-0.39 6.32c1.07,-0.1 2.42,0.15 2.78,-0.08 0.6,-0.51 0.32,-2.17 0.47,-2.94 0.5,-2.67 0.29,-5.09 0.71,-7.69 0.1,-0.64 0.21,-0.93 0.97,-0.98 0.81,1.44 -0.74,10.18 -0.4,11.66 0.82,0.2 1.87,0.22 2.77,0.11 0.59,-2.04 0.66,-5.18 0.75,-7.37 0.09,-2.21 1.12,-5.79 -1.05,-7.01 -1.83,-0.24 -1.65,0.16 -2.63,0.51 -0.43,-0.33 -0,-0.59 -2.46,-0.51 -1.33,0.04 -0.85,0.46 -1.25,2.92l-0.26 5.04z"/>
   <path class="fil1" d="M93.55 14.16c-0.33,-0.56 -0.07,-1.09 0.02,-1.7 0.12,-0.76 -0,-1.24 1.1,-1.17 0.23,0.44 0.18,1.27 0.23,1.87 0.07,0.92 -0.03,1.15 -1.35,1zm4.01 3.51l-3 -0.03c-0.61,1.35 0.07,2.96 -1.13,3.36 -0.68,-0.48 -0.48,-1.28 -0.42,-2.09 0.06,-0.76 0.07,-1.66 0.21,-2.34 1.23,-0.08 2.42,0.04 3.61,0.02 1.3,-0.03 0.86,-0.26 1.04,-1.96 0.16,-1.52 0.36,-3.66 -0.66,-4.76 -1.42,-1.53 -6.49,-2.24 -6.88,3.46 -0.35,5.09 -2.29,10.52 3.66,10.01 1.48,-0.13 1.86,-0.3 2.36,-1.06 0.83,-1.26 1.25,-2.96 1.21,-4.59z"/>
   <path class="fil1" d="M77.48 20.66c-0.51,-0.72 0.04,-4.07 0.13,-5.19 0.16,-1.98 -0.34,-5.11 1.4,-4.31 0.63,0.29 0.02,4.35 -0.07,5.1 -0.31,2.65 0.22,4.61 -1.47,4.39zm-0.78 2.38c1.04,0.31 2.71,0.14 3.45,-0.55 0.71,-0.66 1.27,-1.34 1.47,-2.38 0.59,-3.18 0.63,-5.27 0.63,-8.34 0,-4.12 -5.22,-3.82 -6.7,-1.81 -0.8,1.09 -2.01,10.77 -0.89,11.38 0.58,0.31 0.67,-0.09 1.25,0.6 0.27,0.32 0.36,0.81 0.79,1.1z"/>
   <path class="fil3" d="M56.71 41.93c0.55,0.42 0.11,0.48 0.75,0.75 0.44,0.18 0.81,0.07 1.39,0.3 0.38,1.78 -1.66,1.39 -2.37,2.68l5.47 -0.02c-0.35,-1.47 -1,-2.07 0.54,-3.41 1.17,-1.02 2.76,-0.9 3.52,0.37 1.13,0.13 1.35,-0.17 1.87,0.43 0.59,0.78 -0.57,1.05 -1.47,1.25 -1.01,0.23 -1.76,0.4 -1.93,1.34 3.5,0.67 2.17,0.13 4.15,0.01 1.53,-0.09 3.33,-0.01 4.89,-0.03 0.83,-0.01 1.36,0.02 1.8,-0.45 0.57,-0.61 1.99,-3.31 2.18,-4l-2.87 0.04c-0.62,0.09 -1.37,0.23 -1.89,0.44 -1.69,0.68 -0.76,1.23 -2.56,0.23 -1.82,-1.01 -1.83,-0.81 -4,-0.79 -2.24,0.02 -4.58,-0.08 -6.77,-0.04 -1.48,0.03 -1.72,0.57 -2.6,0.33 -1.42,-0.4 -1.39,-0.34 -3.03,-0.33 -4.68,0.01 -5.37,-0.43 -5.5,0.93 0.8,-0.14 0.67,-0.25 1.57,-0.18l0.56 1.07c0.79,-0.22 0.74,-0.6 1.41,-0.77 0.97,-0.25 0.9,0.16 1.6,0.41 0.7,-0.27 0.84,-0.62 1.41,-0.81 0.41,-0.13 0.77,-0.17 1.22,-0.1 0.27,0.04 0.22,0.04 0.42,0.13 0.38,0.17 0.12,-0.04 0.23,0.22z"/>
   <path class="fil3" d="M87.42 34.06c0.4,0.17 0.2,-0.14 0.54,0.5 0.13,0.25 0.14,0.32 0.21,0.57l-1.11 -0.2c-0.16,-0.63 -0.18,-0.49 0.36,-0.87zm-10.04 -0.98c0.1,-0.35 0.23,-0.67 0.48,-1.01 0.4,-0.56 0.56,-0.48 0.82,-0.58 -0.12,0.63 -0.63,1.29 -1.3,1.59zm7.17 1.24c0.22,-2.66 1.81,-3.73 0.43,-4.48 -0.8,0.11 -1.1,0.95 -1.99,2.14 -0.52,0.7 -1.17,1.84 -1.97,2.15 0.08,-1.15 1.13,-3.28 0.27,-4.03 -0.72,-0.23 -0.37,-0.01 -1.14,-0.1 -1.1,-0.13 -0.01,-0.23 -2.36,-0.16 -1.42,1.78 -2.38,2.13 -2.53,4.56 -0.19,3.02 2.07,1.21 3.23,0.06 0.38,-0.38 0.24,-0.45 0.86,-0.57 0.39,0.96 -0.07,1.38 0.94,2.17 1.79,0.16 1.64,-0.72 2.44,-1.08 0.3,0.33 0.49,0.92 0.83,1.15 0.7,0.48 1.32,0.04 1.98,-0.06 1.49,0.86 4.02,1.32 4.42,-0.2 0.24,-0.9 -0.33,-1.34 -0.62,-2.03 -0.34,-0.8 -0.18,-1.55 -0.14,-2.43 0.72,-0.29 0.95,-0.03 1.32,-0.65 0.66,-1.09 -0.23,-2.48 -1.36,-1.56 -0.3,0.24 -0.77,0.66 -1,0.95 -0.58,0.72 -1.95,3.56 -3.61,4.17z"/>
   <path class="fil4" d="M119.37 20.02c-1.09,1.61 1.8,4.21 1.2,5.37 -0.21,0.4 -0.71,0.63 -1.14,0.95 -1.19,0.92 -2.78,2.77 -0.46,3.06 0.71,-0.39 2.22,-2.21 2.82,-2.4l2.04 3.01c0.16,0.37 0.25,0.84 0.63,1.04 1.14,0.6 1.84,-0.35 1.18,-1.4 -2.74,-4.33 -2.67,-3.81 -0.18,-6.03 0.68,-0.6 1.13,-1.15 1.76,-1.73 0.18,-0.16 2.01,-1.27 0.91,-2.04 -0.87,-0.6 -1.85,0.95 -2.27,1.32 -0.36,0.32 -0.29,0.17 -0.68,0.46 -0.81,0.6 -1.55,1.88 -2.72,2.23 -0.2,-0.37 -0.5,-0.69 -0.73,-1.11 -0.21,-0.38 -0.25,-0.8 -0.44,-1.18 -0.73,-1.44 -0.91,-1.65 -1.94,-1.57z"/>
   <path class="fil4" d="M40.47 42.32c-1.72,-2.38 6.79,-5.38 6.27,-1.37 -0.12,0.9 -1.34,3.04 -1.9,3.6 -0.18,0.18 -1.47,1.32 -1.54,1.35 -0.65,0.3 -2.31,0.09 -2.84,-0.14 -0.29,-0.22 0.29,-1.92 0.83,-2.17 0.72,-0.33 0.84,0.39 2.11,0.07 0.06,-0.43 -0.07,-0.49 -0.48,-0.63 -0.59,-0.21 -0.36,0.04 -0.98,-0.29 0.2,-0.67 1.17,-0.78 0.71,-1.19 -0.91,-0.69 -1.83,0.64 -2.19,0.77zm-2.72 4.09c1.68,0.19 1.02,0.35 1.9,1.03 1.6,1.24 2.98,-0.61 4.65,-0.39 1.01,0.14 2.16,0.78 2.61,0.36 0.46,-0.95 -1.38,-0.72 -2.12,-1.12 0.13,-0.41 0.3,-0.49 0.53,-0.83 0.43,-0.64 0.08,-0.48 0.84,-0.71 0.09,-1.21 2.13,-1.62 1.73,-4.61 -0.26,-1.9 -2.71,-2.56 -5.23,-1.71 -1.5,0.51 -3.81,1.92 -3.78,3.33 0.03,1.35 1.31,0.81 0.61,2.32 -0.58,1.26 -0.22,1.29 -1.81,1.67 -0.05,0.32 0.01,0.52 0.05,0.64z"/>
   <path class="fil4" d="M76.74 46.16c0.48,-0.47 3.65,-1.84 4.79,-1.37 -1.11,0.45 -3.25,1.48 -4.79,1.37zm1.02 -1.59c0.15,-1.62 1.73,-2.49 1.85,-4.77 1.69,-0.05 4.62,-0.21 5.48,0.68 0.66,0.68 0.19,1.22 -0.23,1.89 -0.59,0.93 -0.73,0.69 -1.31,1.36 -1.4,0.07 -1.77,-0.02 -3.06,0.27 -0.91,0.2 -1.69,0.48 -2.72,0.58zm-6.64 -3.64c-0.02,0.02 -0.25,0.24 -0.27,0.27 -0.16,0.22 -0.06,0.02 -0.1,0.31l0.33 0.47c0.43,-0.1 1.25,-0.47 1.66,-0.63 1.59,-0.65 3.77,-1.11 5.58,-1.38 -0.01,0.49 -0.14,1.03 -0.48,1.32 -0.49,2.74 -3.09,4.63 -2.6,5.3 1.09,0.76 2.48,0.24 3.88,-0 1.45,-0.26 4.28,-1.62 4.94,-2.04 0.56,-0.35 3.05,-2.49 2.6,-3.82 -0.28,-0.83 -1.71,-1.4 -2.94,-1.61 -3.25,-0.56 -5.97,0.17 -9.03,0.69 -1.31,0.22 -2.44,0.76 -3.57,1.13z"/>
   <path class="fil3" d="M118.27 44.69c0.38,-0.75 0.46,-1.05 -0.31,-1.62 -0.52,-0.38 -0.98,-0.75 -1.84,-1 -2.89,-0.85 -3.99,0.59 -4.66,0.85 -0.86,-0.3 -1.71,-2.08 -4.89,-2.17 -2.52,-0.07 -3.39,1.29 -0.53,2.52 2.19,0.95 2.01,1.35 5.31,1.75 2.15,0.26 5.1,0.17 6.91,-0.34z"/>
   <path class="fil4" d="M102.45 25.65c1.08,-0.12 1.82,-1.72 2.82,-1.96 0.42,0.63 0.73,1.32 1.05,1.99 0.18,0.38 0.89,1.91 1.05,2.11 0.74,0.92 1.84,0.18 1.21,-1.01 -0.32,-0.6 -1.9,-4.03 -1.81,-4.44 0.11,-0.51 2.85,-2.81 3.31,-3.37 0.55,-0.67 1.46,-1.11 0.41,-1.95 -1.37,0.03 -3.44,3.09 -4.66,3.48 -0.33,-0.29 -1.23,-2.66 -1.52,-3.37 -0.23,-0.57 -0.22,-0.71 -1.11,-0.73 -1.06,1.34 0.97,3.61 0.98,4.96 0,0.58 -0.3,0.68 -0.7,1.02 -0.99,0.85 -2.71,2.29 -1.03,3.26z"/>
   <path class="fil4" d="M47.84 43.62c-0.18,2.84 2.89,0.79 3.15,0.68 0.92,0.69 0.27,0.72 1.96,0.58 1.22,-0.1 1.14,0.54 2.3,0.43 1.36,-0.13 3.31,-1.32 3.14,-2.09 -1.64,-0.24 -2.5,1.8 -3.68,1.15 1.46,-0.7 2.79,-0.72 1.92,-2.26 -3.42,-0.27 -2.44,1.35 -3.95,1.98 -0.58,-0.72 0.7,-0.96 -0.24,-1.61 -0.11,-0.06 0.13,-0.43 -0.78,0.16 -0.32,0.21 -0.33,0.25 -0.71,0.46 -1.64,0.91 -0.4,0.62 -1.6,0.93 0.1,-0.77 0.7,-1.25 0.32,-1.83 -1.3,-0.11 -1.42,0.88 -1.83,1.4z"/>
   <path class="fil3" d="M19.62 37.06c0.54,-0.36 0.76,-2.03 0.99,-2.63 0.3,-0.78 0.8,-1.79 1.45,-2.32 0.88,0.23 0.09,0.53 1.31,0.6 1.08,-1.06 -0.23,-2.27 -1.31,-2.64 -1.58,0.09 -0.68,0.41 -1.69,0.76 -0.22,-0.29 -0.78,-2.08 -1.47,-0.68 -0.25,0.51 -0.12,1.81 -0.16,2.45 -0.07,1.18 -0.84,4.3 0.88,4.46z"/>
   <path class="fil4" d="M90.8 44.16c0.35,0.27 0.39,0.49 0.94,0.89 0.96,0.01 1.69,-0.22 2.27,-0.67 1.71,-1.35 1.18,-2.09 -0.38,-0.96 -0.48,0.35 -0.75,0.61 -1.33,0.69 0.08,-0.86 0.57,-0.83 0.35,-1.64 -4.59,-1.12 -3.77,1.65 -5.58,1.76 0.23,-1.02 1.23,-1.33 0.35,-1.95 -0.52,0.05 -0.88,0.17 -1.33,1.09 -0.32,0.65 -0.18,1.42 0.41,1.68 0.43,0.19 1.89,0.02 2.5,-0.09 0.95,-0.17 1.18,-0.56 1.8,-0.81z"/>
   <path class="fil3" d="M78.53 43.99c1.48,-0.23 1.94,-0.59 3.92,-0.74 1.2,-0.09 1.1,-0.05 1.65,-0.61 0.41,-0.41 0.61,-0.76 0.58,-1.47l-4.7 -0.01c-0.4,0.67 -1.32,1.99 -1.46,2.82z"/>
   <path class="fil3" d="M42.91 45.61c0.46,-0.39 0.82,-0.63 1.17,-0.93 0.78,-0.67 2.07,-2.76 2.04,-3.63l-2.87 -0.01 -0.31 1.56c1.06,0.33 1.45,0.64 0.66,1.45 -1.25,0.3 -1.05,-0.1 -2.22,-0.11 -0.27,0.56 -0.56,0.63 -0.55,1.39 0.04,0.02 0.1,0.05 0.13,0.06 0.47,0.17 0.61,0.27 1.96,0.21z"/>
   <path class="fil4" d="M63.57 43.74c0.02,0.01 0.34,-0.07 0.26,0.36 -0.1,0.61 -0.07,0.19 -0.45,0.33 -0.01,-0.01 -0.84,-0.22 0.19,-0.69zm4.04 -0.55l-1.85 -0.06c-0.46,-0.89 -0.93,-1.64 -2.45,-0.87 -2.78,1.4 -1.04,4.37 1.49,2.46 0.55,-0.42 0.22,-0.65 1.1,-0.82 0.32,-0.06 0.71,-0.04 0.97,-0.1 0.82,-0.18 0.57,-0.08 0.75,-0.61z"/>
   <path class="fil3" d="M96.9 45.11c1.2,-0.24 2.44,-0.99 3.35,-1.5 0.49,-0.28 1.03,-0.58 1.45,-0.86 0.54,-0.35 1.14,-0.53 1.33,-1.11 -0.6,-0.22 -1.69,-0.17 -2.47,-0.18 -2.41,-0.05 -1.54,0.32 -2.69,2.18 -0.35,0.57 -0.72,0.98 -0.97,1.47z"/>
   <path class="fil5" d="M92.89 42.04l0.48 0.93c1.21,-0.43 0.7,-0.9 2.15,-0.24 0.42,0.19 -0.44,-0.07 0.46,0.2l0.58 -1.51c-2.15,-0.25 -9.95,-0.29 -8.4,0.91 0.95,0.74 -0.08,-1.08 4.72,-0.29z"/>
   <path class="fil4" d="M95.73 44.76c1.08,0.16 1.09,-0.09 2.3,-2.1 0.33,-0.54 0.39,-0.9 0.72,-1.4 0.24,-0.37 0.94,-1.15 0.54,-1.46 -0.88,-0.69 -1.31,0.67 -2.22,2.01 -0.42,0.61 -1.53,2.21 -1.33,2.95z"/>
   <path class="fil4" d="M83.12 8.13c3.64,0.28 3.16,-0.04 3.22,-1.7l-3.14 0 -0.08 1.7z"/>
   <path class="fil3" d="M26.19 28.08c0.83,-0.3 0.72,-0.52 0.72,-1.37 0,-0.69 0.04,-0.69 -0.53,-1 -1.47,0.2 -1.38,1.95 -0.19,2.37z"/>
   <path class="fil6" d="M85.35 28.12c0.92,0.02 1.1,-0.14 1.33,-0.7 0.25,-0.62 0.08,-0.88 -0.24,-1.22 -1.63,-0.14 -1.98,1.27 -1.09,1.92z"/>
   <path class="fil5" d="M46.26 44.84c-0.18,0.4 -0.25,0.36 -0.35,0.78l2.29 0.02 -0.61 -1.22c-0.33,-0.67 0.02,-0.22 -0.48,-0.48 -0.14,0.41 -0.35,0.73 -0.86,0.89z"/>
   <path class="fil5" d="M83.28 45.49l2.52 0.03c-0.1,-0.52 -0.28,-0.92 -0.82,-1.2 -0.54,0.37 -0.2,0.25 -0.82,0.57 -0.51,0.27 -0.54,0.23 -0.87,0.6z"/>
   <path class="fil7" d="M87.38 41.53c0.94,0.03 1.01,-0.04 1.52,-0.44 -0.48,-0.81 -1.66,-0.74 -1.52,0.44z"/>
   <path class="fil5" d="M93.53 45.43l1.64 -0.3 -0.07 -0.83c-0.89,0.05 -1.36,0.63 -1.57,1.13z"/>
   <path class="fil8" d="M49.85 45.6c0.35,0.03 0.58,0.07 0.95,0.05 0.64,-0.05 0.65,-0.21 0.79,-0.31l-0.78 -0.46c-0.75,0.18 -0.88,0.22 -0.96,0.73z"/>
   <path class="fil7" d="M94.97 45.64l-0.05 0.63c0.46,0.12 0.69,0.11 1.08,-0.01l0.06 -0.72c-0.78,-0.09 -0.52,-0.12 -1.1,0.11z"/>
   <path class="fil9" d="M89.47 45.48l1.67 -0.01 -0.23 -0.6c-0.5,-0.04 -0.42,-0.1 -0.88,0.05 -0.47,0.16 -0.44,0.19 -0.56,0.56z"/>
  </g>
 </g>
</svg>
