<?xml version="1.0" encoding="UTF-8"?>
<!DOCTYPE svg PUBLIC "-//W3C//DTD SVG 1.1//EN" "http://www.w3.org/Graphics/SVG/1.1/DTD/svg11.dtd">
<!-- Creator: CorelDRAW -->
<svg xmlns="http://www.w3.org/2000/svg" xml:space="preserve" width="25.4mm" height="19.05mm" version="1.1" style="shape-rendering:geometricPrecision; text-rendering:geometricPrecision; image-rendering:optimizeQuality; fill-rule:evenodd; clip-rule:evenodd"
viewBox="0 0 45.81 34.36"
 xmlns:xlink="http://www.w3.org/1999/xlink"
 xmlns:xodm="http://www.corel.com/coreldraw/odm/2003">
 <defs>
  <style type="text/css">
   <![CDATA[
    .fil0 {fill:black}
    .fil5 {fill:blue}
    .fil4 {fill:#FEFE00}
    .fil1 {fill:red}
    .fil3 {fill:#FF6600}
    .fil2 {fill:white}
   ]]>
  </style>
 </defs>
 <g id="Camada_x0020_1">
  <metadata id="CorelCorpID_0Corel-Layer"/>
  <g id="_2482281786640">
   <path class="fil0" d="M17.78 32.52c1.58,0 0.5,-0.92 1.92,-1.33 0.29,1.33 2.16,1.09 3.4,0.9l3.93 -0.49c1.71,-0.14 2.07,-0.54 3.79,0.06 1.01,0.35 2.12,0.7 3.12,0.69 2.42,-0.04 6.3,-2.32 8.2,-3.88 2.75,-2.25 1.66,-2.21 3.07,-4.2 1.23,-1.73 0.07,-1.27 0.53,-4.45 0.35,-2.42 -1.48,-5.49 -1.66,-6.39 -0.09,-0.43 -0.06,-0.59 -0.23,-0.94 -0.45,-0.93 -1.73,-1.29 -2.22,-2.18 1.5,-0.43 1.79,-1.99 2.16,-3.58 0.19,-0.81 0.34,-1.73 0.35,-2.74 0,-3.86 -5.48,-2.57 -7.33,-1.62 -0.73,0.38 -0.64,0.75 -1.51,1.31 -0.95,-0.62 -0.67,-1.05 -1.92,-1.22 -2.47,-0.33 -6.28,0.81 -8,0.81 0.06,-0.93 0.33,-0.39 0.33,-2.04 -0.88,0.57 -0.67,0.97 -2.17,1.12 0.02,1.25 0.73,1.12 1.25,1.12 -0.01,0.56 -0.22,1.97 -0.92,2.04 0,-0.57 -0.05,-0.7 -0.08,-1.12 0.36,-0.04 0.47,-0.06 0.5,-0.51 -1.27,0 -1.24,0.71 -2.42,0.71l0 -0.1c0.54,0 0.82,-0.18 1.17,-0.41 -0.16,-0.4 -0.06,-0.72 -0.32,-1.14 -0.24,-0.4 -0.4,-0.3 -0.52,-0.9 0.65,-0.53 1.23,-0.71 1.25,-2.04 -0.34,0.11 -0.32,0.28 -0.5,0.62 -0.43,0.79 -2.11,0.4 -2.26,1.7 0,0.81 0.15,0.76 0,1.56 -0.46,0.13 -0.73,-0 -1.09,-0.3 -0.6,-0.51 -0.41,-0.4 -1.08,-0.2 0.05,-0.66 0.36,-0.29 0.73,-0.74 0.29,-0.35 0.26,-0.81 -0.04,-1.13 -0.46,-0.51 -1.42,-0.58 -2.28,-0.58 0.03,-0.4 0.08,-0.27 0.08,-0.71 -0.42,0.14 -0.74,0.68 -0.75,1.33 0.31,0.4 0.6,0.61 1.25,0.61 0.05,0.27 0.08,0.3 0.17,0.51 -0.89,0.25 -0.15,0.61 -2,0.61 0.18,-0.94 0.39,-1.62 -0.41,-1.54 -0.43,0.05 -0.11,0.02 -0.43,0.21 -0.37,0.21 -0.55,0.02 -0.99,-0 -0.93,-0.04 -1.43,0.13 -2.17,0.21 -0.3,-0.25 -0.49,-0.52 -0.58,-1.02l-0.33 0c0,0.62 -0.15,0.93 0,1.33 -0.48,-0.01 -0.85,-0.22 -1.32,-0.32 -1.36,-0.3 -4.66,0.71 -6.11,2.05 -1.78,1.65 -2.27,5.21 -2.88,8.1 -0.14,0.66 -0.62,2.33 -0.42,3.28 0.18,0.84 1,1.58 1.38,2.29 -0.49,0.14 -0.18,0.12 -0.5,0.41 0.89,1.63 1.04,0.82 2.59,0.82 -0.01,0.63 -0.71,2.63 -0.92,3.16 -1.99,0 -1.87,0.89 -2.59,1.12 0.31,1.63 1.96,0.82 2.59,0.82l-2 9.99 7.84 -0.71c0.04,-0.59 0.11,-1.25 0.42,-1.53 0.1,0.51 -0.09,1 -0.33,1.63 -0.35,0.1 -1.79,0.5 -2.09,0.82 4.36,0 3.12,0.19 3.09,-1.43 0.69,-0.44 3.63,-0.08 5.51,-0.61 0.07,0.17 0.08,0.18 0.17,0.31l0.25 0c-0.15,0.34 -0.01,0.19 -0.25,0.41 -0.35,0.89 0.06,0.36 1.36,0.59 0.64,0.11 1.38,-0.18 2.06,-0.18 -0.16,-0.84 -0.52,-0.4 -0.83,-0.92zm12.68 -5.71c0.22,-0.55 0.24,-1.12 0.42,-1.73 -0.58,0.06 -0.96,0.86 -1,1.53 0.2,0.12 0.28,0.18 0.58,0.2zm-10.68 2.75c0.24,-0.56 0.25,-1.23 0.47,-1.87 0.32,-0.92 0.72,-0.81 0.95,-1.19 -0.18,-0.08 -0.34,-0.06 -0.58,-0.11l-0.26 -0.09c-0.02,-0.01 -0.04,-0.03 -0.06,-0.03l-0.11 -0.07c-0.25,0.5 -0.41,1.2 -0.57,1.75 -0.42,1.43 -0.31,1.49 0.16,1.62zm-3.84 -9.89c0,1.05 0.17,0.46 0.17,1.73 1.06,0.45 0.97,-0.43 1.5,-0.61l0 -0.31c-0.25,-0.07 -0.25,-0.1 -0.58,-0.1 0.12,-0.54 0.38,-0.37 0.5,-0.92 -0.8,-0.03 -0.97,0.03 -1.58,0.2zm-2.25 1.53c0.51,0.41 0.48,0.09 0.88,0.18 0.28,0.07 0.72,0.53 0.86,-0 0.19,-0.69 -0.83,-1.32 -1.21,-1.37 -0.17,0.47 0.09,0.22 -0.14,0.64 -0.26,0.47 -0.27,-0 -0.39,0.55zm-3.09 -2.34c0.38,0 1.22,-0.18 0.51,0.72 -0.66,0.84 -1.02,-0.03 -1.09,-0.11 -0.15,0.13 -0.37,0.35 -0.54,0.57 -0.25,0.31 -0.37,0.37 -0.38,0.86 1.72,0 3.09,-1.65 3.09,-2.45 0,-0.39 0.03,-0.04 -0.08,-0.31 -0.24,0.12 -0.17,-0.07 -0.17,0.51 -0.38,-0.04 -0.42,-0.31 -0.5,-0.71 -0.35,0.22 -0.62,0.53 -0.83,0.92zm-5.84 2.24c0.7,0 1.4,-0.59 1.87,-0.98 0.42,-0.34 1.22,-1.11 1.22,-1.78 0,-0.77 -1.86,-0.14 -2.09,0.29 -0.24,0.45 -0.97,2.07 -0.99,2.46z"/>
   <path class="fil1" d="M7.52 22.22c-0.18,0.46 -0.31,1.31 -0.45,1.9 -0.28,1.17 -0.08,1.15 -0.41,1.34 -0.58,0.34 -0.8,0.1 -0.68,-0.62l0.53 -3.04c-0.45,0.01 -1.24,0.51 -1.57,0.84 -1.54,1.57 -1.41,0.1 -1.75,1.83l-1.08 5.4c-0.16,0.74 -0.26,1.38 -0.39,2.18 -0.15,0.95 -0.59,1.47 0.67,1.22 0.88,-0.17 1.23,0.16 1.87,-0.37 -0,-0.01 -0.1,-0.27 -0.11,-0.28 -0.01,-0.02 -0.03,-0.04 -0.04,-0.06l-0.08 -0.11c-0.11,-0.16 -0.2,-0.1 -0.2,-0.37 0,-0.47 0.28,-0.87 0.48,-1.15 0.57,-0.77 0.36,-0.49 0.68,-1.72 0.06,-0.23 0.07,-0.42 0.14,-0.65 0.09,-0.33 0.06,-0.3 0.35,-0.4 0.89,-0.3 0.4,0.58 0.53,1.26l0.51 -0.39c0.19,-0.13 0.27,-0.23 0.47,-0.35 0.5,-0.28 0.63,-0.22 0.81,-0.95 0.37,-1.51 0.88,-2.26 0.89,-2.69 -0.25,-0.11 -0.09,0.02 -0.42,-0.61 -0.78,-1.49 0.88,-2.2 -0.75,-2.25z"/>
   <path class="fil2" d="M19.78 21.99l0.33 -0.08c0.23,-0.1 0.12,-0 0.3,-0.34 0.24,-0.44 0.82,-1.67 1.1,-1.95 0.41,-0.41 0.31,0.02 0.29,0.35 -0.14,1.91 0.01,1.83 0.69,1.69l1.4 -0.23c0.4,-0.09 0.29,-0 0.33,-0.11 0.01,-0.03 0.04,-0.02 0.06,-0.03 0.29,-0.18 0.11,-0.12 0.29,-0.46 0.37,-0.73 0.66,-0.17 0.54,-1.26 -0.04,-0.38 -0.11,-0.93 -0.15,-1.27 -0.08,-0.69 0,-0.74 0.23,-1.09 0.37,-0.58 1.93,-2.97 2,-3.36 -0.63,0 -1.05,0.04 -1.64,0.14 -0.89,0.14 -1.2,-0.06 -1.31,0.57 0.32,0 0.52,-0.04 0.67,0.23 0.06,0.1 0.33,1.09 -0.18,0.95 -0.02,-0.01 -0.24,-0.16 -0.28,-0.19 -0.72,-0.57 -0.54,-0.7 -1.44,0.94 -0.15,0.27 -0.05,0.21 -0.33,0.3l0 -2.45c-0.6,0 -0.94,0.09 -1.42,0.11l-1.42 0.1c0,0.71 0.09,1.21 0.16,1.85 0.04,0.36 0.2,1.42 0.17,1.71 -0.04,0.45 -0.48,0.88 -0.73,1.15 -1.31,1.47 -0.68,0.8 -0.44,1.91 -0.21,0.17 -0.2,0.24 -0.49,0.11 -0.2,-0.09 -0.27,-0.2 -0.51,-0.31 -0.14,0.25 -0.45,0.84 -0.5,1.22 0.77,0 1.46,-0.14 2.25,-0.23zm20.1 -14.86c-0.06,0.95 -0.29,2.01 -1.08,2.24l0 0.01c0.69,0.22 1.38,0.47 2.05,0.77 0.36,-0.11 0.72,-0.47 0.98,-0.74 0.11,-0.11 0.08,-0.08 0.18,-0.19 0.56,-0.59 0.95,-1.53 0.95,-2.4l-3.09 0.31zm-29.86 0.31c-0.01,-0.02 -0.02,-0.09 -0.03,-0.07l-0.22 -0.54c-0.39,-0.42 -1.63,-0.34 -1.8,0.04 -0.07,0.16 -0.12,0.64 -0.12,0.88 0.36,-0.02 1.39,-0.69 1.03,0.21 -0.21,0.5 -0.77,0.68 -0.85,0.72 -0.26,0.14 -0.16,0.07 -0.26,0.29 0.88,0 2.72,0 3.25,-0.31 -0.17,-0.77 -0.98,0.02 -1,-1.22zm-2.92 6.42c0.22,-0.29 0.33,-0.25 0.56,-0.54 0.29,-0.36 0.74,-0.9 1.19,-0.07 -0.12,0.32 0,0.04 -0.29,0.36 -0.24,0.26 -0.93,1.14 -1.47,0.25zm2.11 -10.26c0.42,-0.83 1.97,-0.27 1.97,0.78 0,0.58 -1.25,-0.2 -1.58,-0.2 -0.07,0 -0.3,0.38 -0.64,0.48l0.25 -1.05zm-8.29 10.98c0,1.06 0.02,1.73 0.99,2.36 0.88,0.58 0.89,0.33 1.22,0.12 0.44,-0.28 0.22,-0.04 0.47,-0.04 0.32,0 0.78,-0.15 1.16,-0.21l1.84 -0.19c0.63,0.03 0.22,0.3 0.89,-0.15 0.02,-0.01 0.04,-0.02 0.06,-0.04 0.02,-0.01 0.04,-0.02 0.06,-0.03 0.77,-0.48 0.2,-0.81 0.51,-1.42 0.46,-0.9 1.82,0.1 2.24,-0.41 0.12,-0.25 0.26,-0.96 0.26,-1.33 -0.35,-0.04 -0.27,-0.12 -0.58,-0.2 0.29,-0.39 0.86,-0.17 0.67,-0.92 -0.53,0.11 -0.28,0.42 -0.94,0.45 -0.79,0.04 -0.56,-0.65 -1.19,-0.84l-1.46 0.28c-0.13,0.13 -0.49,2.13 -0.6,2.53 -0.25,0.98 -1.4,1.5 -1.4,-0.08 0,-0.65 0.87,-4.59 1.01,-5.4 0.16,-0.94 0.39,-1.7 0.54,-2.7 0.1,-0.64 0.01,-0.91 0.48,-1.04 0.46,-0.14 0.86,-0.25 0.97,0.27 1.07,0 2.36,-2.2 2.91,0.11 0.12,0.48 0.33,1.11 0.84,0.81 -0.16,-0.36 -0.26,-0.32 -0.42,-0.61l0.42 -0.2c0.13,-0.08 -0.05,0.02 0.16,-0.11 -0.02,-1.02 -0.35,-1.74 -1,-2.24 -0.99,-0.76 -2.54,-0.59 -3.62,-0.35 -1.46,0.32 -2.43,0.61 -3.62,1.8 -0.18,0.18 -0.26,0.21 -0.42,0.41 -0.9,1.09 -1.31,3.72 -1.64,5.13l-0.73 3.39c-0.05,0.26 -0.07,0.47 -0.07,0.83zm25.15 -8.09l0.54 -0.58c0.39,0.01 0.66,0.12 0.83,0.41 -0.23,0.8 -1.36,1.05 -1.89,0.36l0.51 -0.19zm-0.63 -2.62c-0.12,0.42 -0.17,0.59 -0.17,1.12 0.63,-0 1.32,-0.11 1.53,0.51 -0.51,0.01 -1.05,0.19 -1.45,0.51 -0.51,0.41 -0.56,0.6 -0.71,1.38 -0.13,0.68 -0.27,1.1 -0.38,1.78l-0.76 3.66c-0.27,1.46 -0.53,1.01 2.19,0.64 0.46,-0.06 1.35,-0.13 1.66,-0.31 0.13,-0.34 0.5,-1.78 0.5,-2.24 0,-0.24 -0.11,-0.2 -0.33,-0.2 -0.71,0 -1.1,1.84 -2.24,0.7 -0.04,-0.04 -0.04,-0.05 -0.14,-0.14 -0.13,-0.11 -0.04,-0.07 -0.21,-0.15l0 -0.2c0.47,-0 0.75,-0.16 1.08,-0.32 1.86,-0.92 0.79,-0.33 2.01,-0.29l0.98 -4.41c0.21,-0.93 0.37,-1 1.02,-1 0.5,0 0.14,1.27 0.03,1.88l-0.87 4.24c0.05,-0.01 0.11,-0.03 0.17,-0.06l0.03 -0.03c0.66,-0.7 1.44,-1.26 2.2,-1.79 0.89,-0.63 1.28,-0.76 2.06,-0.79 0.14,-0.08 0.11,-0.28 0.29,-1.19 0.53,-2.7 1.26,-3.93 -1.5,-4.09 -0.38,-0.02 -0.2,-0.04 -0.59,-0 -1.27,0.12 -2.12,1.05 -2.34,1.15 -0.59,0.25 0.29,-0.84 -0.36,-0.79l-3.72 0.47zm14.6 1.22c-0.87,0.09 -1.27,0.54 -1.1,-0.41 0.11,-0.64 0.24,-1.32 0.85,-1.32 0.59,0 0.27,0.79 0.25,1.73zm-2.13 4.02c0.03,-0 0.06,-0.01 0.07,-0.01 0.32,-0.2 0.28,-1.53 0.56,-2.27 0.32,-0.82 3.31,-0.55 4.23,-0.74 0.4,-0.08 0.44,-0.27 0.53,-0.79 0.13,-0.76 0.16,-0.79 0.16,-1.64 0,-1.17 -1.58,-1.83 -2.67,-1.83 -1.26,0 -3.35,0.69 -4.42,1.63 -0.66,0.58 -0.81,1.17 -1.06,2.17 -0.15,0.58 -0.47,2.03 -0.51,2.78l1.81 0.34 0.01 0c0.43,0.12 0.87,0.24 1.3,0.36zm-8.88 10.66c-0.22,-0.54 -0.07,-1.01 0.32,-1.55 0.14,-0.19 0.94,-0.79 1.21,-0.74 0.15,0.03 0.26,-0.06 -0.02,0.75 -0.53,1.55 -0.45,1.62 -1.5,1.53zm3.17 -5.5c-0.78,0 -1.13,-0.2 -2.09,-0.2 -0.56,0 -0.72,0.27 -1.07,0.54 -0.68,0.52 -1,-0.95 -2.02,0.88 -0.13,0.23 -0.44,1.02 -0.5,1.33 1.26,0 2.53,-0.41 3.5,-0.41 0.02,-0.31 0.39,-1.73 1.08,-1.73 0.44,0 0.5,-0.04 0.5,0.41 0,1.05 -0.44,1.41 -1.2,1.59l-2.06 0.64c-1.3,0.51 -2.1,0.34 -2.85,1.92 -0.14,0.29 -0.14,0.22 -0.15,0.64 0.41,0.04 0.39,0.35 0.38,0.68 0.02,0.03 0.04,0.06 0.05,0.1 0.1,0.2 0.15,0.42 0.2,0.64 0.23,0.15 0.65,0.21 1.43,0.09 0.54,-0.08 0.86,-0.17 1.39,-0.44 0.35,-0.18 0.83,-0.65 1.19,-0.63 -0.08,0.19 -0.12,0.29 -0.14,0.58 2.57,0 1.86,-0.52 2.42,-2.55 2.26,-0.44 1.99,0.06 2.3,-1.07 0.15,-0.53 0.85,-2.59 0.79,-2.91 -0,-0.02 -0.01,-0.03 -0.01,-0.05l-0.9 -0.56 -0.09 -0c-0.45,0 -1.87,0.51 -2.17,0.51zm-3.59 -0.1c2.36,-1.53 1.52,0.31 4.75,-0.61 -0.01,-0.02 -0.04,-0.06 -0.05,-0.05 -0.01,0.02 -0.04,-0.04 -0.05,-0.05l-0.33 -0.31c-0.33,-0.29 -0.12,-0.2 -0.66,-0.22 -0.47,-0.02 -1.1,-0.21 -1.5,-0.2 -0.02,0 -0.04,0 -0.06,0 -0.3,0.16 -0.57,0.31 -0.69,0.37 -0.55,0.26 -0.93,0.61 -1.4,0.9 -0.01,0.04 -0.02,0.1 -0.02,0.16z"/>
   <path class="fil2" d="M14.08 30.13c-0.2,0.2 -0.38,0.45 -0.55,0.45 -0.52,0 -2.06,-1.35 -1.64,-1.57l1.11 0.48c0.49,0.23 0.77,0.17 1.36,0.17 -0.04,0.3 0.04,0.16 -0.28,0.47zm0.04 -1.49l-0.1 0 -0.33 0c-0.08,-0.3 -0.14,-0.28 -0.03,-0.58 -0.45,0.07 -0.52,0.71 -1.48,0.69 -1.08,-0.03 -1.01,-1.22 -0.41,-2.35 0.48,-0.9 1.07,-1.23 2,-1.23 0.09,-0.47 0.08,-0.46 0.25,-0.82 0.14,-0.3 0.2,-0.38 0.14,-0.88 -0.42,-0.11 -0.26,-0.14 -0.67,0.02 -1.33,0.54 -2.49,2.15 -2.81,3.82 0.23,0.14 0.16,0.1 0.5,0.1l-0.5 0.31c0,1.07 -0.07,1.82 0.4,2.67 0.13,0.23 0.2,0.38 0.38,0.56 1.3,1.24 2.39,0.68 2.51,0.7 0.36,0.06 -0.14,0.12 0.32,0.06 0.18,-0.02 0.21,-0.05 0.33,-0.1l0.59 -0.3c0.85,-0.53 1.69,-1.67 1.93,-2.84 0.08,-0.4 0.01,-0.53 0.13,-0.85 -0.2,-0.16 -0.09,-0.12 -0.33,-0.2l0.33 -0.31c-0.06,-0.88 -0.4,-1.88 -0.77,-2.42 -0.35,-0.51 -1.08,-1.1 -1.81,-1.15 0,0.86 0.5,0.9 0.17,1.73 2.52,0 1.74,3.31 0.31,2.79 -0.03,-0.01 -0.11,-0.05 -0.13,-0.06 -0.01,-0.01 -0.05,-0 -0.06,-0.04 -0.01,-0.03 -0.04,-0.02 -0.06,-0.04 1.76,-0.16 1.53,-1.65 0.61,-2.34 -0.39,0.7 -0.5,0.43 -0.5,1.63 -0.25,0.08 -0.14,0.04 -0.33,0.2 0.09,0.61 0.15,0.02 0.11,0.47 -0.03,0.3 -0.07,-0.07 -0.11,0.45 0.66,0.4 1.25,0.34 1.25,1.43 -1.33,0 -1.03,-0.3 -1.82,-1.12z"/>
   <path class="fil1" d="M22.95 29.97c-0.73,0 -0.28,-1.45 -0.14,-1.8 0.22,-0.57 0.46,-1.19 1.06,-1.25 0,0.63 -0.18,1.21 -0.27,1.81 -0.08,0.51 -0.11,1.25 -0.65,1.25zm2.59 1.02c0.38,-1.99 0.4,-1.72 -0.27,-2.52 -0.24,-0.28 -0.33,-0.46 -0.49,-0.83l-0.57 -2.16 -2.09 1.12c-1.17,0.7 -1.92,1.18 -1.92,3.67 0,2.55 2.74,0.46 2.92,0.41 0.11,0.27 0.08,0.11 0.08,0.51 0.28,0 0.38,-0.04 0.56,-0.05l1.78 -0.15z"/>
   <path class="fil1" d="M19.78 21.99c-0.14,0.15 0.1,0.02 -0.22,0.16 -0.2,0.09 -0.06,0.03 -0.28,0.07l-1.02 0.18c-0.89,0.12 -0.2,0.36 -0.62,1.48 -0.17,0.45 -0.3,0.54 -0.11,1.09 0.28,0.83 0.53,1.24 0.44,2.26 -0.08,0.95 0.26,1.65 0.9,1.72 0.15,-0.77 0.24,-1.36 0.46,-2.08 0.23,-0.77 0.34,-1.07 0.93,-1.41 0.85,-0.49 0.21,-0.68 1.23,-2.47 0.17,-0.3 0.29,-0.39 0.3,-0.86 -0.41,0.01 -0.83,0.18 -1.06,0.43 -0.21,0.21 -0.33,0.55 -0.52,0.69 -0.18,0.13 0.2,0.04 -0.25,0.1 0.33,-0.83 0.19,-1.09 0.17,-1.43l-0.33 0.08z"/>
   <path class="fil2" d="M5.77 17.63c0.31,0 0.64,-0.05 0.81,-0.04 4.37,0.2 0.42,2.74 -1.1,3.77 -0.4,0.27 -0.84,0.62 -1.32,0.69 0.06,-0.96 0.4,-1.66 0.73,-2.33l0.88 -2.08zm-3.75 1.22c0.31,0 0.47,-0.03 0.7,-0.17 0.14,-0.08 0.02,-0.15 0.56,-0.24 0.31,-0.05 0.42,-0.06 0.75,-0.1 0.53,-0.06 0.18,-0.07 0.58,-0.21 -0.02,1.06 -0.87,2.34 -1.11,3.02 -0.47,1.33 0.42,1.35 -0.96,2.09 -0.21,0.11 -0.31,0.21 -0.65,0.16 0.3,-0.7 0.3,-1.01 -0.33,-0.44 -0.38,0.35 -0.68,0.51 -0.64,0.75 0.02,0.09 0.11,0.23 0.19,0.23 1.51,0 2.72,-0.84 3.97,-1.67 1.08,-0.72 2.28,-1.41 3.14,-2.38 0.9,-1.01 1.52,-1.62 0.75,-2.29 -0.84,-0.72 -2.27,-0.46 -3.2,-0.3 -0.35,0.06 -0.49,0.05 -0.75,0.21 -0.76,0.45 -1.39,0.13 -2.82,0.73 -0.36,0.15 -0.39,0.01 -0.42,0.5 0.22,0.13 -0.07,0.1 0.25,0.1z"/>
   <path class="fil1" d="M29.63 26.2c0.17,-0.87 0.24,-1.59 0.98,-1.86 1.06,-0.39 0.82,-0.25 1.16,-1.64 0.12,-0.48 0.33,-1.02 0.36,-1.49 -1.22,0 -0.99,0.84 -1.84,1.12 0.01,-0.37 0.07,-0.56 0.17,-0.82 -0.32,-0.19 -0.55,-0.16 -1.07,-0.09 -1.43,0.19 -1.2,0.12 -1.51,1.42 -0.36,1.5 -0.61,1.12 1.17,2.93 0.26,0.26 0.2,0.38 0.57,0.42z"/>
   <path class="fil1" d="M33.88 22.42c0,-0.88 1.37,-1.79 -0.31,-1.5 -0.25,0.04 -0.67,0.1 -0.94,0.17 -1.06,5.54 -0.87,2.97 -1.27,4.06l-0.4 1.96c0.72,0.42 1.08,0.36 2,0.1 0.52,-0.15 0.48,-0.45 0.62,-1.08l0.31 -1.45c0.06,-0.25 0.1,-0.39 0.16,-0.72 0.04,-0.26 0.07,-0.5 0.16,-0.72 -0.36,-0.29 -0.33,-0.28 -0.33,-0.82z"/>
   <path class="fil2" d="M7.44 21.3c0,0.64 0.67,0.82 1.17,0.82 0.71,0 1.76,-0.71 2.42,-0.71 0.44,0 0.31,0.2 0.58,0.2l1 -0.44c0.17,-0.37 -0.27,-0.3 -0.42,-0.37l0.68 -0.6c1.06,-0.91 1.57,-3.29 0.07,-3.58 0.06,0.84 0.65,1.79 -0.74,3.18 -0.32,0.32 -0.26,0.54 -0.76,0.59l0 0.31c-0.26,0.02 -0.4,0.07 -0.6,0.18 -0.4,0.22 -1.51,0.84 -1.82,0.84 -0.31,0 -0.16,-0.07 -0.5,-0.1 0,-1.01 0.2,-0.8 0.64,-1.46l0.94 -1.2c1.08,-1.21 2.4,-3.05 3.92,-3.05 0.58,0 0.79,0.53 1.17,-0.1 -0.18,-0.23 -0.16,-0.2 -0.43,-0.29 -0.86,-0.31 -1.58,-0.01 -2.28,0.44 -0.71,0.45 -0.73,0.54 -1.31,1.05 -0.16,0.14 -0.26,0.24 -0.42,0.4l-1.61 1.7c-0.02,0.02 -0.07,0.07 -0.09,0.09 -0.11,0.11 -0.12,0.13 -0.22,0.24 -0.14,0.16 -0.19,0.24 -0.34,0.4 -0.2,0.22 -1.06,1.18 -1.06,1.46z"/>
   <path class="fil1" d="M9.86 28.44c0,-3.14 2.45,-4.02 0.46,-3.61 -1.1,0.23 -1.4,0.54 -1.81,1.77 -0.06,0.18 -0.11,0.37 -0.18,0.59 -0.74,2.26 1.28,-0.37 1.28,1.25 0,0.02 -0.22,0.55 -0.59,0.61l-0.91 0c0,0.69 0.05,0.93 0.4,1.65 0.19,0.39 0.65,0.8 0.77,1.2 0.36,-0.01 1.4,-0.88 1.23,-0.05 -0.06,0.29 -0.02,0 -0.23,0.35 0.49,0 0.76,0.1 1.33,0.1l0 -0.31c-0.38,-0.04 -0.13,0.03 -0.41,-0.21 -0.12,-0.1 -0.2,-0.19 -0.32,-0.32 -0.71,-0.81 -1.02,-1.67 -1.02,-3.03z"/>
   <path class="fil3" d="M13.53 16.21l0 0.31c0.45,0.05 0.47,0.23 0.74,0.42 0.29,0.19 0.43,0.12 0.76,0.4 -0.06,0.91 -0.69,1.38 -0.83,2.04 0.49,0.89 1.12,0.25 1.42,1.83 0.7,-0.6 -1.11,-1.93 1,-2.04 0.16,-0.01 1.34,0.13 1.34,-0.41 0,-0.44 -0.13,-0.31 -0.17,-0.82 1.06,0 0.62,-0.24 1.17,1.02 0.74,-0.24 0.5,-0.99 0.5,-1.02 0,-0.45 0.47,-0.89 -0.91,-0.7 -0.27,0.04 -0.44,0.12 -0.84,0.09 -1.2,-0.12 -2.07,-0.61 -2.85,-0.8 -1.05,-0.26 -0.5,-0.42 -1.33,-0.32z"/>
   <path class="fil3" d="M16.87 3.87c1.41,0.4 2.14,0.48 3.53,0.98 1.81,0.65 0.38,0.39 2.11,0.39 0.31,0 0.6,0.05 1.03,0.05 -0.02,-0.31 -0.08,-0.49 -0.17,-0.71 -0.21,0.02 -1.92,1.12 -1.92,0 0,-0.69 1.55,-0.19 1.14,-1.17 -0.34,-0.82 -0.72,-0.04 -0.72,-1.79 -1.66,0.04 -0.1,2.65 -1.33,2.65 -0.6,0 -1.06,-0.42 -1.42,-0.71 -0.51,0.42 -0.49,0.42 -1,0 0.07,-1.05 0.58,-0.66 1,-1.63 -0.75,-0.61 -0.42,-0.45 -1.55,-0.66 -1.69,-0.31 -0.65,0.34 -0.42,0.41 0.23,0.08 1.52,0.28 0.88,1.04 -0.44,0.53 -1.11,0.38 -1.16,1.14zm-2.25 -0.41c0.21,0.15 0.25,0.2 0.58,0.2 0,-0.53 -0.09,-0.8 -0.33,-1.02 -0.07,0.39 -0.18,0.43 -0.25,0.82zm-1.5 2.34c0.41,-0.48 1.18,-1.44 1.75,-1.63 -0.2,-0.45 -0.14,-0.21 -0.5,-0.51 0,-1.29 0.74,-1.74 -1.66,-1.32 -1.14,0.2 -0.64,0.24 -1.51,-0.01 0.07,1.05 0.73,0.75 1.64,0.96 0.49,0.11 0.31,0.12 0.62,0.37l0 0.61c-0.21,0.17 -0.39,0.35 -0.58,0.51 0.21,0.39 0.25,0.36 0.25,1.02 -0.68,-0.02 -0.57,-0.39 -1.17,0 0.05,0.74 0.32,0.17 0.33,1.02 -1.94,0.55 -1.06,-1.14 -1.84,-1.73 -0.68,-0.5 -2.35,1.2 -2.41,1.32 0.21,0 1.51,-0.27 1.75,0.19 0.13,0.25 0.07,0.06 -0,0.22l0.22 0.54c0,-0.02 0.02,0.05 0.03,0.07 0.15,-0.55 0.05,0.1 0.45,0.47 0.24,0.22 0.62,0.29 0.89,0.45 -0.16,0.85 -0.57,0.39 -0.33,1.63 -0.5,0.41 -0.62,0.88 -2.03,-0.27 -0.39,-0.31 -0.6,-0.5 -1.02,-0.11 -0.27,0.25 -0.61,0.57 -0.7,0.99 0.94,0 0.94,-0.38 1.5,0.41l0.02 -0.43c0.46,0.65 0.17,0.6 0.15,0.63 0.94,2.17 1.2,0.92 1.83,0.41 0.3,0.69 0.13,0.51 0.08,1.22 0.21,0.12 0.27,0.06 0.41,0.32 0.28,0.52 0.04,1.28 -0.55,1.65 -1.23,0.78 -1.16,0.17 -2.28,0.17 -0.12,0.22 -0.19,0.3 -0.25,0.61 0.4,0.23 0.52,0.01 1,0.4 2.01,1.64 1.51,-1.06 2.33,-1.32 0.6,0.06 0.49,0.36 1,0.41 -0.11,-0.6 -1.07,-1.51 -1.34,-3.36 -0.39,-2.71 1.05,-4.32 1.92,-5.92z"/>
   <path class="fil4" d="M8.36 23.75c0,1.36 1.32,1.07 2,0.8l1.07 -0.63c0.17,-0.12 0.38,-0.26 0.5,-0.41 0.86,-1.04 -0.5,-2.19 -2.02,-1.5 -0.13,0.56 0,0.26 -0.29,0.69 -0.44,-0.04 -0.35,-0.18 -0.67,-0.28 -0.31,0.25 -0.58,0.69 -0.58,1.33z"/>
   <path class="fil1" d="M23.29 25.48c0.18,-0.47 0.24,-0.81 0.37,-1.39 0.46,-1.98 0.47,-0.72 0.22,-2.08 -0.66,0.07 -1.47,0.73 -1.86,1.19 -0.45,0.55 -0.81,1.52 -0.81,2.37 0.82,0 1.31,-0.1 2.09,-0.1z"/>
   <path class="fil2" d="M17.2 11.38l0 0.85c-0.41,-0.36 -0.06,-0.8 -0.74,-0.73 -0.52,0.06 -0.36,0.47 -0.84,0.63 -0.06,-0.29 -0.15,-0.43 -0.38,-0.56 -0.97,-0.55 -0.75,0.75 -0.25,0.92 0.23,0.08 0.37,-0 0.6,0.08 0.29,0.1 0.14,0.26 0.53,0.26 0.53,0 0.63,-0.2 1.17,-0.2 0.31,0 2.17,0.6 2.17,-0.92 0,-0.51 -0.65,-0.66 -1.02,-0.69 -0.35,-0.03 -0.96,0.23 -1.23,0.35z"/>
   <path class="fil2" d="M6.52 31.9c0.44,-0.48 0.37,-0.21 0.49,-0.18 0.68,0.18 0.55,-0.76 -0.3,-1.08 -1.28,-0.47 -2.37,0.4 -2.37,1.36 0,0.66 0.29,0.04 0.83,0.61 0.22,-0.18 0.17,-0.05 0.25,-0.41 0.4,0.26 0.37,0.41 0.58,0.41 0.78,0 0.45,0.01 0.83,-0.31 -0.1,-0.33 -0.23,-0.11 -0.33,-0.41z"/>
   <path class="fil4" d="M16.06 13.82c-0.86,-0.09 -0.66,-0.47 -1.53,-1.18 0.07,0.96 1.65,2.09 2.49,2.17 0.89,0.08 0.82,0.32 2.34,0.17l0.02 -0.97c0.57,-0.14 1.41,0.05 1.65,-0.36 -1.13,-0.32 -2.38,0.41 -3.84,0.41 -0.51,-0.07 -0.83,-0.22 -1.14,-0.25zm-1.95 4.94c0.17,-0.16 0.68,-0.93 0.5,-1.31 -0.43,0.1 -0.49,0.85 -0.5,1.31zm-2.84 -2.96c0.52,-0.1 0.58,-0.32 0.58,-0.61 -0.34,-0.2 -0.53,-0.18 -0.58,0.61zm-3.42 0.92c0.6,0 0.82,0.04 1.1,-0.41 -0.13,-0.27 -0.27,-0.3 -0.51,-0.41 -0.4,0.84 -0.33,0.39 -0.58,0.82zm10.43 2.65c0.2,0.19 0.23,0.19 0.41,0.31 -0.01,-0.46 -0.03,-1.24 -0.42,-1.43l0 1.12zm7.25 -8.15c0.69,0.2 0.62,0.42 1.07,-0.12 0.19,-0.23 0.23,-0.2 0.27,-0.59 -0.33,0.11 0.01,-0.01 -0.29,0.15 -0.14,0.08 -0.22,0.11 -0.37,0.17 -0.36,0.15 -0.51,0.12 -0.68,0.39zm-0.75 4.08c-0.07,-1.1 -0.9,-0.09 0,0zm-7.17 4.69c0.02,0.02 0.04,0.02 0.05,0.05l0.5 0.51c0.13,0.15 0.01,0.08 0.2,0.16 0,-1.16 -0.51,-1.27 -0.75,-0.71zm-4.42 0.71c0.37,-0.06 0.82,-0.27 0.58,-0.82 -0.45,0.06 -0.08,-0.13 -0.36,0.27 -0.18,0.25 -0.18,0.17 -0.22,0.54zm-2.9 -1.33c0.09,0.28 0.17,0.33 0.38,0.21 0.25,-0.13 0.23,-0.25 0.35,-0.52 -0.45,0 -0.52,-0.05 -0.73,0.31zm-2.69 -5.5c1.17,0 0.65,-1.31 0.22,-0.45 -0.1,0.19 -0.12,0.28 -0.22,0.45zm-0.5 -5.71l0.26 0.39c0.75,0.02 0.8,0.04 1.07,-0.6 -0.4,0.01 -0.43,0.14 -0.69,0.19 -0.45,0.09 -0.32,-0.15 -0.65,0.02zm2.34 -4.18c0.88,0 0.84,0.19 1.34,0.2 -0.15,-0.51 -1.26,-1.28 -1.34,-0.2zm5.76 -1.33c0.3,-0.05 0.32,-0.03 0.31,-0.51l-0.19 -0.14c-0.26,0.22 -0.28,0.24 -0.12,0.65zm8.84 0.1c0.24,0.83 1.09,0.31 1.29,-0.61 -0.33,0.09 -0.29,0.17 -0.6,0.34 -0.24,0.13 -0.44,0.15 -0.69,0.27zm2.04 3.74c0,0.31 0.02,0.13 -0.04,0.44 0.47,0 0.96,-0.06 1,-0.71 -0.24,-0.08 -0.15,-0 -0.42,-0.31l-0.54 0.58zm-1.96 -0.48c0,0.31 0.09,0.53 0.17,0.71 0.25,-0.08 0.7,-0.63 1.3,-1.06 0.2,-0.15 0.3,-0.18 0.37,-0.47 -0.45,0 -1.84,0.07 -1.84,0.82zm-11.43 5.81c0,-1.3 0.87,-1.57 1.7,-1.89 0.51,-0.2 2.16,-0.75 2.55,-0.76 -0.32,1.06 -3.67,0.48 -4.09,2.65l-0.17 0zm2.84 3.87c-0.1,0.47 -0.13,0.09 -0.17,0.61 0.53,0.15 0.36,-0.1 0.82,-0.07 0.45,0.03 1.98,0.38 3.02,0.38l0.33 0c-0,-0.51 -0,-0.9 -0.17,-1.33 -2.09,0 -3.51,0.12 -4.58,-1.54 -0.27,-0.42 -0.64,-1.01 -0.68,-1.62l-0.17 0c0,0.4 0.02,0.58 0.1,0.9 0.17,0.73 0.2,0.27 0.24,0.83 -0.3,-0.12 -1.73,-1.95 -0.25,-3.16 0.33,0.3 0.04,0.37 0.59,0.5 1.04,0.26 1.69,0.02 2.73,-0.22 0.93,-0.22 2.49,-0.65 3.35,-0.27 0.27,0.12 0.4,0.29 0.59,0.4 0.32,0.18 0.42,0 0.83,-0l0 0.2c-0.94,0.31 -0.74,0.83 -0.42,2.55 1.2,-0.12 1.9,-2.2 1.98,-3.2 0.06,-0.75 -1.63,-2.56 -2.56,-2.31 -0.19,0.98 0.57,1.25 1.49,1.95 0.29,0.22 0.41,0.29 0.47,0.85 -0.39,-0.23 -0.19,-0.26 -0.53,-0.58 -0.37,-0.35 -1.09,-0.45 -1.29,-0.66 -0.24,-0.24 -0.07,-0.38 -0.39,-0.64 -0.36,0.12 -0.18,0.21 -0.48,0.54 -0.72,0.81 -1.39,-0.22 -1.63,-0.52 -0.48,-0.6 -0.26,-0.53 -1.15,-0.53 0.01,-0.47 0.22,-0.45 0.42,-0.82 -0.45,-0.3 -1.26,-0.06 -1.79,0.06 -1.75,0.38 -3.12,1.12 -4.41,2.56 -0.29,0.32 -0.31,0.33 -0.23,0.83 0.05,0.31 0.11,0.74 0.2,1.09 0.19,0.81 0.34,1.14 0.74,1.74 0.68,1.02 0.28,0.6 1.48,0.62 0.74,0.01 1.2,0.3 1.5,0.84zm3.17 -7.75c0.41,-0.13 0.06,-0.19 0.58,-0.2 -0.29,0.33 -0.49,0.41 -0.5,1.07 0.41,0.46 0.58,0.65 1.3,0.32 0.72,-0.34 0.77,-1 0.62,-1.8l-1.08 0.21 -0.09 -0.41c-0.51,-0 -0.74,0.01 -1.16,-0.11 0.03,0.33 0.21,0.68 0.33,0.92zm-5.84 -0.26c-0.19,-0.12 -0.04,-0.02 -0.18,-0.22 -0.42,-0.62 0.24,0.21 -0.11,-0.18 -0.45,0.92 -1.02,1.89 -1.04,3.21l1.18 -1.1c0.62,-0.53 0.84,-0.33 0.91,-1.44 0.09,-1.37 1.14,-2.66 2.08,-2.66 1.44,0 0.98,-0.09 1.44,0.38 0.3,0.31 0.25,0.14 0.61,0.28 0.51,0.21 0.47,0.77 1.12,0.77 0.26,0 0.26,-0.09 0.58,-0.13l0.04 0.15c0.06,0.26 -0.06,-0.12 0.04,0.18 0.23,-0.1 0.11,-0.17 0.42,-0.36 0.02,0.32 -0.03,0.61 0.91,0.5 0.32,-0.04 0.29,-0.23 0.88,-0.6 1.15,-0.73 1.83,0.02 2.13,0.05 -0.64,-1.49 -2.16,-1.01 -3.17,-0.41 -0.31,-0.78 0.2,-0.52 -0.71,-0.96 -0.39,-0.19 -0.79,-0.36 -1.29,-0.36l0 0.51c-0.29,-0.09 -0.65,-0.44 -0.92,-0.61 -1.22,-0.79 -2.86,-0.4 -3.87,0.68 -0.23,0.24 -0.15,0.14 -0.32,0.42 -0.28,0.46 -0.65,1.34 -0.73,1.91z"/>
   <path class="fil1" d="M32.71 19.06c-0.21,1.1 -0.45,1.16 0.57,1 0.19,-0.03 1.43,-0.09 1.63,-0.24 0.15,-0.11 0.29,-0.6 0.28,-0.78 -0.02,-0.44 -0.35,-0.29 -0.68,-0.23 -0.64,0.13 -1.23,0.09 -1.8,0.25z"/>
   <path class="fil2" d="M13.06 27.28c0.04,-0.15 0.06,-0.42 0.06,-0.68 -0.7,-0.45 -0.23,-0.49 -0.83,-0.51 -0.09,0.41 -0.95,1.57 -0.47,2.11 0.27,0.31 1.46,0.16 1.64,-0.68 -0.36,-0.04 -0.16,0.07 -0.39,-0.24z"/>
   <path class="fil1" d="M7.11 30.17c0,0.95 1.73,0.47 -0.42,2.75 0.58,0 0.89,0.14 1.14,-0.34 0.07,-0.13 0.36,-1.16 0.36,-1.29l-0.58 -1.83c-0.31,0.1 -0.5,0.31 -0.5,0.71z"/>
   <path class="fil1" d="M16.45 31.9c0.47,0 0.64,-0.05 1.01,-0.09 0.43,-0.05 0.65,0.01 0.74,-0.42 -0.82,-0.48 -0.67,0.59 -1,-1.12l-0.39 0.34c-0.16,0.18 -1.28,1.29 -0.37,1.29z"/>
   <path class="fil2" d="M20.95 11.52c-0.46,-0.37 -0.42,-0.35 -1.17,-0.31 -0.17,0.41 -0.31,1.21 0.26,1.27 0.49,0.06 0.9,-0.22 0.91,-0.96z"/>
   <path class="fil4" d="M16.03 21.81c-0.24,0 -0.37,0.37 -0.42,0.61 0.86,0.31 1.21,0.51 1.84,1.02 -0,-1.04 -0.69,-1.63 -1.42,-1.63z"/>
   <path class="fil2" d="M19.03 30.49c0.01,-0.02 0,-0.05 0,-0.06l-0 -0.13c0.01,-0.17 -0.11,0.25 0.01,-0.14 0.09,-0.3 -0.2,-0.14 0.23,-0.2l0.09 0.4c-0.15,0.26 -0.08,0.27 -0.42,0.31l0 0.2c0.52,0.15 0.83,-0.06 0.83,-0.82 -0.46,-0.37 -0.42,-0.33 -1.17,-0.31 -0.45,0.01 -0.81,0.07 -1,0.45 0.3,0.13 0.39,-0.08 0.89,0 -0.29,0.27 -0.16,-0.03 -0.22,0.39l0.75 -0.1z"/>
   <path class="fil1" d="M26.37 29.76c-0.04,0.09 -0.19,0.73 -0.21,0.89 -0.04,0.41 0.12,0.31 0.38,0.26 0.45,-0.07 1.07,-0.22 1.5,-0.23l0 -0.2c-0.97,-0.28 -1.04,-0.65 -1.67,-0.71z"/>
   <path class="fil4" d="M23.2 8.97c0,0.39 0.38,0.75 0.58,0.92 0.15,-0.95 -0.02,-0.55 -0.17,-1.22 0.01,-0.11 0.6,-1.41 -0.08,-1.63 0,0.36 0.03,0.75 -0.03,1.08l-0.3 0.85z"/>
   <path class="fil1" d="M12.69 25.79c0.16,0.29 0.82,0.91 1.08,1.12 0,-0.72 0.12,-1.38 -0.37,-1.44 -0.01,-0 -0.03,-0.01 -0.04,-0.01 -0.3,-0.01 -0.47,0.17 -0.67,0.33z"/>
   <path class="fil1" d="M15.2 7.75c0.44,0 1.39,-0.15 1.67,-0.31 -0.28,-0.5 -1.02,-0.72 -1.4,-0.28 -0.11,0.14 -0.23,0.39 -0.27,0.59z"/>
   <path class="fil4" d="M14.53 6.37c0.1,0.11 -0.14,0.24 0.32,0.05 0.54,-0.22 0.34,-0.41 1.6,-0.41 0.27,0 0.11,0.19 0.54,-0.1 -0.53,-0.12 -0.89,-0.27 -1.45,-0.08 -0.27,0.09 -1,0.28 -1.02,0.54z"/>
   <path class="fil4" d="M14.45 22.83c0.22,0.02 0.44,0.09 0.7,0.16 0.37,0.09 0.34,0.12 0.63,0.05l0 -0.41c-0.36,-0.01 -0.4,-0.13 -0.74,-0.09 -0.37,0.04 -0.47,0.1 -0.59,0.3z"/>
   <path class="fil4" d="M22.97 7.54c0.01,0.19 -0.32,0.2 -0.43,0.72 0.29,-0.09 0.19,-0.04 0.33,-0.31 0.17,0.11 0.2,0.14 0.42,0.2 0,-0.74 -0.05,-1.13 -0.42,-1.43l0.1 0.81z"/>
   <path class="fil2" d="M17.78 13.76l0.89 -0.13c0.46,-0.11 0.32,0.03 0.44,-0.31 -0.15,-0.15 -0.63,0 -0.84,0.02 -0.42,0.04 -0.46,-0.12 -0.5,0.42z"/>
   <path class="fil1" d="M21.45 7.54c0.04,0.53 0.41,0.6 0.75,0.51 0,-0.37 0.03,-0.88 -0.75,-0.51z"/>
   <path class="fil4" d="M14.53 22.42c0.38,0 0.66,-0.05 0.93,-0.21l-0.05 -0.36c-0.58,0.04 -0.73,0.23 -0.88,0.56z"/>
   <path class="fil2" d="M17.03 13.85l0.21 0.03 0.29 -0.02c-0.02,-0.32 -0.06,-0.49 -0.33,-0.5 -0.28,-0 -0.36,0.13 -0.42,0.4l0.25 0.08z"/>
   <path class="fil2" d="M25.54 18.04c0.21,-0.06 0.11,-0.01 0.3,-0.14 0.16,-0.11 0.08,-0.06 0.27,-0.18 0.12,-0.07 0.16,-0.1 0.28,-0.17l0.32 -0.22c-0.59,0 -1.04,0.15 -1.17,0.71z"/>
   <path class="fil4" d="M17.03 23.85c-0.03,-0.46 -0.39,-0.75 -0.75,-0.87 0.07,0.59 -0.01,0.25 0.75,0.87z"/>
   <path class="fil1" d="M14.03 28.64l0.1 0c0.12,-0.54 -0.02,0.09 0.17,-0.3 0.01,-0.02 0.14,-0.02 0.04,-0.27 -0.13,-0.32 -0.36,-0.02 -0.47,0.06 0.08,0.38 0.08,0.13 0.17,0.51z"/>
   <path class="fil1" d="M14.61 26.6c0.28,-0.23 0.41,-0.35 0.42,-0.92 -0.3,0.24 -0.32,0.43 -0.42,0.92z"/>
   <path class="fil2" d="M18.7 31.09c-0.16,-0.28 -0.24,-0.44 -0.58,-0.2 0.15,0.2 0.35,0.44 0.58,0.2z"/>
   <path class="fil2" d="M19.53 13.14c0.1,0.18 0.01,0.21 0.25,0.21l0.08 0c0.31,0 0.28,-0.08 0.33,-0.31l-0.67 0.09z"/>
   <path class="fil4" d="M8.77 11.01l0.02 0.16 0.15 0.05c0.08,-0.14 0.08,0.22 0.08,-0.31l-0.23 -0.33 -0.02 0.43z"/>
   <path class="fil2" d="M17.75 30.95c0.23,-0.11 0.01,-0.28 -0.14,-0.37 -0.02,0.18 -0.16,0.5 0.14,0.37z"/>
   <path class="fil0" d="M36.3 21.1c0.06,-0.14 0.05,-0.11 0.08,-0.31l-0.25 0c0.05,0.28 -0.03,0.16 0.17,0.31z"/>
   <path class="fil2" d="M8.4 11.31l0.28 0.03c-0.13,-0.15 0.25,-0.15 -0.14,-0.11 -0.29,0.03 -0.03,-0.02 -0.13,0.08z"/>
   <path class="fil4" d="M35.88 18.14c0.18,0.27 1.02,0.5 1.17,-0.2 -0.22,-0.15 -1.02,-0.23 -1.17,0.2zm4.5 -0.41c0.51,0.3 1.3,0.27 1.75,0 -0.2,-0.93 -1.49,-0.44 -1.75,0z"/>
   <path class="fil2" d="M38.62 25c2.2,0.61 0.98,-0.13 1.94,-0.13 0.25,0 0.09,0.64 1.1,-0.38 1.43,-1.45 0.49,-1.29 0.15,-1.86 0.07,-0.3 0.21,-0.44 0.36,-0.68 0.67,-1.07 0.48,-1.47 0.48,-2.27l-0.97 0.35c-0.24,0.17 -0.1,0.03 -0.24,0.26 0.11,1.3 0.04,1.02 -0.46,1.93 0.22,0.37 0.16,0.07 0.42,0.41 -0.44,0 -0.37,-0.11 -0.52,0.28l-0.39 1.27c-0.07,0.14 -0.46,0.52 -0.34,-0.03 0.03,-0.15 0,-0.04 0.07,-0.2 0.7,-1.86 0.25,-1.58 0.7,-2.22 0.5,-0.7 0.59,-2.6 -0.89,-1.49 -0.49,0.36 -0.21,0.5 -0.21,0.86 0,0.4 -0.11,0.6 -0.14,0.96 -0.06,0.68 0.22,0.3 0.22,0.77 0,0.64 -0.08,0.84 -0.22,1.16 -0.21,0.46 -0.12,0.67 -0.45,0.78 0,-1.27 0.92,-2.04 -0.17,-2.04 0.16,-0.73 0.68,-0.86 0.25,-1.94 -0.3,0.13 -0.53,0.25 -0.82,0.42 -0.12,0.07 -0.08,0.05 -0.22,0.13 -0.61,0.35 -0.53,0.09 -0.37,1.28 0.43,0 0.32,-0.09 0.5,0.2 -1.22,0.35 -0.45,0.71 -1.08,1.22 0.1,-0.53 0.57,-1.71 0.08,-2.14 -0.48,0.16 -0.18,0.4 -0.08,0.92 -0.49,0.41 -0.37,0.26 -0.53,1.11 -0.15,0.8 0.31,0.63 1.84,1.06z"/>
   <path class="fil1" d="M41.22 19.77c0.78,0 0.36,-0.16 1.34,-0.4 0.51,-0.12 0.33,-0.13 0.41,-0.21 -0.77,-0.23 -1.49,0.14 -1.75,0.61z"/>
   <path class="fil5" d="M34.35 25.86c0.16,-0.02 0.94,-0.59 0.94,-0.84 0,-0.61 -0.59,-0.86 0.69,-1.22 0.35,-1.84 -0.41,-0.99 -0.62,-0.91 -0.92,0.32 -0.59,-0.06 -0.97,1.73 -0.1,0.47 -0.06,0.86 -0.04,1.25zm2.25 4.36c0.22,0 0.34,-0.42 0.69,-0.46 0,1.55 -1.56,0.63 -1.19,0.08 0.3,0.1 0.2,0.38 0.5,0.38zm-3.57 -0.84c0.08,-0.35 0.2,-0.3 0.44,-0.23l0 0.23c-0.13,0.04 -0.3,0.14 -0.44,0zm-4.19 -1.53c0.28,0.03 0.36,0.15 0.58,0.09 0.33,-0.1 0.2,-0.19 0.55,-0.09 -0.01,0.78 -0.88,0.67 -1.16,0.42l0.03 -0.42zm11.14 -0.69c-0.24,-0.02 -0.33,-0.05 -0.44,-0.23 0.04,-0.29 0.25,-0.05 0.44,0l0 0.23zm-14.08 -1.53c-0.02,0.18 0.1,0.31 -0.38,0.31 -0.21,0 -0.18,-0.14 -0.19,-0.38 0.3,0 0.39,-0.04 0.56,0.08zm12.64 -12.01c0,-0.43 0.41,-0.72 0.81,-0.46 -0.16,0.29 -0.79,0.54 0,0.77l-0.63 0.23c-0.09,-0.17 -0.19,-0.25 -0.19,-0.54zm2.88 -1.61c-1.71,0 -0.07,-1.05 0,0zm-11.64 -0.23c0,-0.2 0.63,-0.54 0.63,0 0,0.16 -0.46,0.33 -0.63,0.15l0 -0.15zm5.26 -1.15c-1.21,-0.34 -0.46,0.09 -1.69,-0.54 0.39,-0.71 0.95,0 1.06,0 0.31,0 0.28,-0.07 0.55,-0.06l0.2 0.3 -0.13 0.3zm-3.26 -1.14c-2.07,1.45 -2.2,1.75 -3.66,3.63 -0.16,0.21 -0.41,0.6 -0.47,0.88 1.07,-0.3 1.45,-0.9 2.27,-1.28 2.51,-1.19 1.26,-1.33 4.61,0.61l2.2 1.37 -0.36 0.94c-0.69,0.87 -0.49,0.97 -1,1.69 -0.23,0.33 -0.43,0.56 -0.27,0.97 0.26,-0.03 0.57,-0.58 1.07,-0.68 0.29,-0.06 1.34,0.17 1.28,-0.27 -0.08,-0.56 -0.42,-0.33 -0.72,-0.51 0.21,-0.49 0.24,-0.03 0.99,-0.17l2.76 -0.61c0.18,-0.09 0.28,-0.27 0.45,0.02 -0.27,0.45 -1.98,0.63 -2.5,0.77 -0.35,0.09 -0.59,-0.1 -0.62,0.38 0.38,0.11 0.21,0 0.63,0 0.02,0.3 0.06,0.2 0.06,0.54 -0.7,0.18 -0.09,0.08 -0.87,0.69l-2.33 2.05c-0.43,0.6 -0.07,-0.24 -0.82,1.29 -0.59,1.2 0.62,0.75 1.39,0.24 1.23,-0.82 2.47,-2.12 3.78,-2.65 0.38,-0.15 0.4,-0.29 0.8,-0.4 -0.02,-1.08 -1.74,-0.01 -1.95,-0.01 -0.38,-0 0.18,-0.89 0.26,-1.06 0.28,-0.61 -0.08,-0.84 0.81,-0.84 -0.11,0.25 -0.45,0.68 0.04,0.67 0.84,-0.01 1.33,-1.26 2.65,-0.52 0.24,0.13 0.31,-0.01 0.62,0.01 0.29,0.01 0.37,0.15 0.38,-0.39 -0.24,-0.14 -0.49,-0.15 -0.76,-0.09 -0.56,0.14 -0.36,0.08 -0.39,-0.36 -0.04,-0.51 -0.5,-1.01 0.72,-1.01 -0.13,0.59 -0.31,-0.03 -0.31,0.77 0.72,0.59 0.88,-0.14 0.89,-0.14 0.13,-0.23 -0.07,-0.15 0.3,-0.17 0.14,0.76 -0.15,1.17 -0.06,1.68 0.09,0.53 1.59,-0.4 0.84,2.02 -0.16,0.5 -0.28,1.13 -0.28,1.73 -0.34,-0.28 -0.29,-1.35 -0.19,-1.77 0.2,-0.82 1.02,-1.5 -0.9,-1.25 -0.44,0.06 -0.27,-0.2 -0.6,-0.27 -0.23,-0.05 -1.27,0.2 -1.56,0.23 0.18,0.3 1.06,0.43 1.38,0.46 0.51,0.04 1.62,-0.56 1.28,2.34 -0.07,0.58 -0.22,1.37 -0.22,1.87 0.13,-0.16 0.26,-0.36 0.5,-0.38 0,0.55 -0.7,2.19 -1.42,2.85 -0.46,0.42 -0.84,0.91 -1.52,0.98l0 0.31c0.2,0.09 0.09,-0.17 0.13,0.23 -0.87,0.09 -0.28,0.03 -0.87,-0.32 -0.34,-0.2 -0.75,0.1 -0.89,-0.52 1.39,0 1.94,0.5 3.34,-1.58l0.6 -1.25 -1.91 2.26c-0.89,0.74 -4.87,-0.47 -4.91,-1.03l0.44 -1.3 0.01 0.34 0.19 -0.47c-0.04,-0.54 -0.06,-0.54 -0.14,-0.94 -0.74,0.02 -0.3,0.64 -0.5,1.38 -0.36,1.36 -0.49,0.46 -0.82,1.07 0.12,0.56 1.19,0.65 1.38,0.99l-0.77 -0.21c-0.77,-0.13 -0.61,0.18 -1.26,0.72 -0.21,0.17 -0.35,0.34 -0.47,0.57 0.17,0.32 0.72,0.64 1.03,0.81 1.18,0.65 1.04,0.3 1.37,0.47 0.26,0.13 0.08,0.21 0.34,0.22 0.14,0.01 0.31,-0.13 0.51,0.03 -2.12,0.6 -2.86,-1.22 -3.97,-0.72 -1.57,0.71 -1.88,0.59 -2.91,0.1 -1.95,-0.95 -3.45,-2.79 -4.65,-4.79 -0.69,-1.14 -0.47,-1.65 -0.86,-2 -0.22,0.07 -0.25,0.22 -0.44,0.69 -0.48,1.24 -0.52,1.6 -0.32,3.07 0.58,4.21 1.38,4.91 5.05,6.37 1.27,0.5 3.19,0.78 4.2,1.07 1.46,0.42 7.5,-2.82 8.25,-3.65 0.37,-0.41 0.31,-0.63 0.78,-0.88 0.19,-0.1 0.21,-0.09 0.38,-0.23 -0.01,-0.54 -0.27,-0.39 -0.13,-0.77 0.34,0.15 0.58,1.22 0.85,-0.8 0.14,-1.07 0.05,-0.87 0.53,-0.73 1.11,-1.56 1.21,-1.23 0.81,-3.29 -0.34,0.11 -0.41,0.65 -0.75,0.77 0.04,-0.64 1.35,-2.26 0.94,-3.98l-0.35 -1.33c-0.72,-2.64 -1.26,-2.91 -1.41,-3.55 -0.19,-0.81 0.32,-0.92 -1.59,-2.11 -1.76,-1.09 -3.69,-1.6 -5.58,-2.12l-2.21 -0.41c-1.35,-0.01 -1.56,0.04 -2.56,0.73zm3.76 10.02l1.25 -0.84c-0.81,-0.48 -1.61,0.02 -1.25,0.84zm3.12 1.34c0.16,-0.09 0.36,-0.16 0.43,-0.21 0.07,-0.05 1.41,-0.89 1.45,-0.91 0.34,-0.17 0.12,-0.28 0.52,-0.43 0.26,-0.1 0.22,-0 0.36,-0.25 -0.21,-0.17 -0.38,-0.24 -0.58,0.05l-1.3 0.85 -1.81 1.31c0.09,0 0.15,0.03 0.19,0l0.74 -0.43z"/>
  </g>
 </g>
</svg>
