<?xml version="1.0" encoding="UTF-8"?>
<!DOCTYPE svg PUBLIC "-//W3C//DTD SVG 1.1//EN" "http://www.w3.org/Graphics/SVG/1.1/DTD/svg11.dtd">
<!-- Creator: CorelDRAW -->
<svg xmlns="http://www.w3.org/2000/svg" xml:space="preserve" width="49.536mm" height="43.2307mm" version="1.1" style="shape-rendering:geometricPrecision; text-rendering:geometricPrecision; image-rendering:optimizeQuality; fill-rule:evenodd; clip-rule:evenodd"
viewBox="0 0 93.24 81.38"
 xmlns:xlink="http://www.w3.org/1999/xlink"
 xmlns:xodm="http://www.corel.com/coreldraw/odm/2003">
 <defs>
  <style type="text/css">
   <![CDATA[
    .fil0 {fill:black}
    .fil1 {fill:#FDFDFD}
    .fil2 {fill:red}
   ]]>
  </style>
 </defs>
 <g id="Camada_x0020_1">
  <metadata id="CorelCorpID_0Corel-Layer"/>
  <g id="_2051437968480">
   <path class="fil0" d="M20.67 68.18c-0.89,0.28 -1.91,0.18 -2.84,0.27 -1.4,0.13 -1.98,0.53 -3.79,0.09 -1.14,-0.28 -1.89,-1.36 -1.74,-2.53 0.37,-2.85 1.32,-9.69 1.3,-12.53 -1.77,0.07 -4.27,-0.34 -3.98,-2.72 0.64,-5.28 2.39,-3.23 6.07,-5.84 0.48,-0.34 0.95,-0.72 1.44,-1.07l-1.04 -1.19c-1.57,-0.14 -3.53,-1.86 -4.87,-2.72 -2.94,-1.88 -5.71,-4.09 -8.76,-5.79 -1.23,-0.68 -1.94,-1.12 -2.37,-2.6 -0.43,-1.49 0.68,-2.95 2.23,-2.94 4.09,0.03 9.97,-0.15 13.68,0.32 0.08,-0.52 0.17,-1.03 0.26,-1.55 1.64,-9.51 16.54,-10.92 20.41,-4.68 0.41,-3.74 0.96,-2.64 1.32,-3.67l6.08 -17.5c0.88,-2.53 4.52,-1.64 5.03,0.69 0.77,2.68 6.04,15.81 5.97,17.11 0.21,0.13 0.42,0.28 0.61,0.43 0.52,-2.61 3.11,-2.58 5.72,-2.69l14.61 -1.01c1.31,-0.12 2.45,0.86 2.52,2.17 0.1,1.94 -2.25,8.95 -2.95,11.2l15.36 0.1c1.84,0.01 2.93,2.06 1.9,3.59 -0.88,1.3 -2.33,1.9 -3.73,2.84 -2.14,1.44 -5.36,3.7 -7.53,4.89 -0.33,0.18 -0.6,0.35 -0.87,0.6l-2.11 20.15c-0.1,0.96 -0.75,1.73 -1.68,1.98 -1.02,0.28 -3.44,0.54 -5.16,0.56l5.16 14.16c0.76,2.1 -1.52,4.46 -4.97,2.07l-20.47 -13.71c-0.33,-0.22 -0.59,-0.51 -0.77,-0.84 -3.15,0.18 -6.26,0.69 -9.36,0.88 -0.14,0.63 -0.55,1.19 -1.16,1.52l-17.86 11.58c-0.56,0.91 -1.72,1.36 -2.82,0.94 -0.48,-0.15 -1.2,-0.07 -1.85,-1.05 -0.37,-0.56 -0.48,-1.17 -0.32,-1.82 0.86,-3.51 2.33,-6.36 3.31,-9.69z"/>
   <path class="fil1" d="M58.88 42.09l-2.28 20.91c1.36,0.09 3.97,-0.12 5.29,-0.32 1.2,-5.41 0.42,-8.41 1.31,-12.09 1.71,1.32 0.78,8.02 1.47,11.83l3.57 -0.37c1.32,-0.77 1.95,-10.58 3.56,-12.07 0.31,0.84 -0.91,10.04 -1.06,11.83 0.94,0.16 4.66,-0.19 5.57,-0.43l2.19 -21 -8.18 0.69c-0.98,2.14 -1.22,7.67 -2.68,8.98 -0.51,-0.88 -0.2,-3.38 -0.31,-4.48l-0.56 -4.24 -7.91 0.79z"/>
   <path class="fil1" d="M47.8 24.24c0.74,1.94 -0.07,5.34 -0.39,7.63 -0.35,2.56 0.2,6.02 -2.59,6.24 -1.19,-0.28 0.17,-5.08 0.27,-7.63 0.05,-1.42 0.5,-2.8 0.58,-4.22 0.1,-1.64 -0.12,-2.82 2.13,-2.02zm-8.72 -2.38l-2.21 20.17c1.69,0.24 10.25,-0.45 12.3,-0.91 5.36,-1.2 4.61,-4.28 5.5,-10.09 0.25,-1.65 0.65,-5.46 0.63,-7.01 -0.04,-4.45 -6.22,-3.76 -10.54,-3.42l-4.59 0.32c-0.86,0.21 -0.92,-0.13 -1.1,0.94z"/>
   <path class="fil1" d="M18.53 27.78c-0.51,2.94 -2.12,12.02 -0.25,13.99 1.72,1.82 5.06,2.31 7.87,1.12 1.34,-0.57 1.1,-0.8 2.09,-1.38 1.26,1.4 0.59,1.2 3.44,0.95 1.04,-0.09 1.28,0.1 1.88,-0.56l1.2 -10.84c-2.01,-0.01 -3.47,0.36 -5.27,0.44 -3.18,0.15 -3.04,-0.79 -3.47,2.9l1.65 0.5c-0.18,1.03 -0.65,6.38 -2.62,4.93 -1.43,-1.06 0.59,-12.04 0.93,-14.01 0.24,-1.4 1.73,-1.59 2.29,-0.16 0.38,0.96 -0.1,2.47 -0.13,3.63 2.04,0.2 4.27,-0.58 6.62,-0.3 1.15,-2.21 1.32,-6.58 -4.53,-7.59 -3.73,-0.64 -10.7,0.66 -11.69,6.4z"/>
   <path class="fil1" d="M69.04 18.92c-1.42,3.56 -2.01,9.14 -3.08,13.18 -0.03,0 -0.07,-0.05 -0.08,-0.03l-0.35 -0.09c-0.39,-0.18 -0.15,0.59 -0.31,-0.31l0.04 -12.26c-1.1,-0.18 -6.53,-0.08 -7.17,0.41 -0.71,0.55 0.6,12.01 0.72,13.58 0.17,2.25 0.15,4.95 0.54,7.17l8.02 -0.58c2.26,-0.04 2.53,0.17 3.23,-1.44l2.68 -9.4c0.57,-1.86 3.04,-9.48 2.97,-10.8l-7.2 0.56z"/>
   <path class="fil1" d="M30.08 56.96c0.2,-1.16 1.11,-1.64 2.13,-1.77 0.42,0.88 0.61,3 0.39,4.27 -0.85,4.94 -2.64,2.55 -2.8,1.95 -0.03,-0.13 0.24,-4.28 0.27,-4.46zm1.66 -4.81c-1,-0.66 -1.69,-5.55 1.35,-5.39 0.58,1.25 0.84,4.55 -1.35,5.39zm5.01 0.64c0.8,-1.71 1.66,-0.87 2.24,-2.86 1.61,-5.53 -2.23,-6.89 -6.91,-6.18 -7.46,1.12 -7.63,6.75 -6.35,8.66l1.03 1.32c-1.17,1.1 -1.87,1.2 -2.34,3.43 -1.15,5.4 -0.37,9.52 6.69,8.43 5.92,-0.92 7.29,-3.03 7.42,-9.3 0.05,-2.53 -0.41,-2.21 -1.78,-3.5z"/>
   <path class="fil1" d="M48.5 48.81l0.72 -0.37c-0.26,3.18 -0.42,4.96 -0.11,7.71 -0.93,0.15 -1.36,0.46 -2.36,0.32l1.26 -7.36 0.49 -0.3zm0.27 11.3c-0.1,3.64 -0.36,3.61 1.32,3.45 1.38,-0.13 3.23,0.03 4.95,-0.53 0.09,-2.75 -1.28,-15.44 -1.3,-20.54 -1.4,-0.23 -3.28,0.15 -4.67,0.29 -3.21,0.31 -1.13,-0.25 -4.66,0.74 -1.2,4.59 -4.73,16.92 -5.2,20.83 1.22,0.28 4.8,-0.25 6.17,-0.38 0.32,-1.22 0.72,-3.26 1.02,-3.99l2.38 0.14z"/>
   <path class="fil1" d="M11.91 51.04c4.03,0.98 5.16,-4 2.68,15.26 1.29,0.31 1.78,-0.02 3.03,-0.14 3.13,-0.29 2.58,0.57 3.07,-2.83 0.82,-5.65 2.13,-13.37 1.97,-18.61 -3.42,0.55 -1.57,-0.82 -5.64,2.07 -4.39,3.11 -4.67,0.51 -5.12,4.24z"/>
   <path class="fil2" d="M40.17 19.78l12.6 -0.59 -5.71 -15.85c-0.47,-1.21 0.1,-0.55 -0.82,-1.06l-6.08 17.5zm-14.34 25.23c1.5,-0.85 1.58,-0.76 2.16,-1.55 -1.31,0.1 -1.13,0.26 -2.05,0.88l-2.09 0.57c0.19,0.76 0.4,0.78 0.84,1.23 0.76,-0.51 0.72,-0.21 1.15,-1.12zm-23.53 -14.1c0.22,0.77 0.61,0.86 1.28,1.23 2.48,1.38 11.59,7.97 12.68,8.23 -0.48,-4.33 0.72,-7.1 0.55,-8.93 -1.16,-0.59 -8.51,-0.34 -10.59,-0.33 -1.44,0.01 -2.48,-0.19 -3.93,-0.2zm33.66 0.46c-0.39,2.25 -0.2,2.92 -0.8,6.36 -0.28,1.61 -1.04,3.94 0.03,4.64 0.99,-0.82 0.37,-1.84 0.73,-3.91 0.16,-0.94 0.39,-1.95 0.51,-2.89 0.17,-1.23 -0.04,-1.38 0.13,-2.61 0.15,-1.08 0.39,-2.14 0.53,-3.24 -0.52,0.26 -0.16,-0.2 -0.68,0.54 -0.19,0.27 -0.4,0.77 -0.46,1.1zm2.45 12c1.56,1.89 1.96,1.37 2.07,4.47 0.1,2.94 -0.74,3.15 -1.97,4.95 1.17,1.7 0.63,1.28 1.28,3.07 1.15,-1.5 1.16,-4.24 1.64,-6.41 0.45,-2.06 1.43,-4.27 1.78,-6.34 -0.82,-0.43 -3.88,-0.07 -4.8,0.26zm16.26 -1.52l0.9 11.99c0.03,1.81 -0.18,2.02 0.69,3.38 0.45,-1.78 0.18,-5.14 0.45,-7.2 0.17,-1.3 0.57,-2.72 0.66,-4.01 0.34,-4.67 1.03,-5.6 0.26,-10.79 -0.29,-1.97 0.18,-4.65 -1.47,-6.05 -0.44,2.55 -0.54,4.82 -0.89,7 -0.57,3.51 -1.1,3.27 -2.66,5.01l2.05 0.67zm13.69 0.6c0.14,-0.13 0.2,0.4 0.37,-0.47 0.37,-1.8 0.14,-0.25 -0.13,-0.95 -0.78,0.43 -0.84,0.26 -0.24,1.42zm3.44 -4.32l-0.2 1.61 5.83 -0.55c1,-0.05 1.22,-0.43 1.63,0.66l8.77 -5.8c1.54,-1.11 2.49,-1.31 3.1,-2.21l-14.52 -0.1c-3.38,0.05 -2.03,-0.45 -2.72,0.5 -0.07,0.09 -1.85,5.64 -1.89,5.9zm0.2 39.42c1.11,0.71 1.36,1.26 2.76,1.54l-5.84 -15.81c-1.15,-0.09 -2.08,0.09 -3.15,0.27 -1.76,0.28 -1.07,-0.1 -2.42,-0.62 -2.7,2.26 -7.94,0.32 -10.59,1.8l19.24 12.81zm-52.41 0.86c1.48,0.23 0.18,0.39 1.32,-0.43l18.2 -11.79c-0.41,-1.25 -0.3,-0.04 -1.4,-2.33 -1.06,0.63 -1.06,1.12 -2.54,1.78 -3.62,1.6 -6.69,1.53 -10.27,0.13 -1.55,-0.61 -1.25,1.38 -2.95,5.79 -0.74,1.93 -1.89,4.91 -2.37,6.86z"/>
  </g>
 </g>
</svg>
