<?xml version="1.0" encoding="UTF-8"?>
<!DOCTYPE svg PUBLIC "-//W3C//DTD SVG 1.1//EN" "http://www.w3.org/Graphics/SVG/1.1/DTD/svg11.dtd">
<!-- Creator: CorelDRAW -->
<svg xmlns="http://www.w3.org/2000/svg" xml:space="preserve" width="25.4mm" height="19.05mm" version="1.1" style="shape-rendering:geometricPrecision; text-rendering:geometricPrecision; image-rendering:optimizeQuality; fill-rule:evenodd; clip-rule:evenodd"
viewBox="0 0 45.8 34.35"
 xmlns:xlink="http://www.w3.org/1999/xlink"
 xmlns:xodm="http://www.corel.com/coreldraw/odm/2003">
 <defs>
  <style type="text/css">
   <![CDATA[
    .fil0 {fill:#282829}
    .fil4 {fill:black}
    .fil5 {fill:#E1E1E1}
    .fil6 {fill:red}
    .fil3 {fill:red}
    .fil1 {fill:fuchsia}
    .fil2 {fill:white}
   ]]>
  </style>
 </defs>
 <g id="Camada_x0020_1">
  <metadata id="CorelCorpID_0Corel-Layer"/>
  <g id="_2484032777520">
   <path class="fil0" d="M43.43 22.83l-0.56 2.11 -2.04 0 -0.59 2.09c-0.02,0.09 -0.07,0.19 -0.08,0.28 -0.01,0.13 0.01,0.11 0.17,0.12l2.18 -0.02 -0.51 1.94c-0.07,0.26 -0.02,0.47 -0.41,0.36 0.03,-0.12 0.05,-0.07 0.08,-0.21 -0.36,-0.29 -0.82,-0.08 -1.02,-0.17 0.06,-0.08 0.05,-0.06 0.13,-0.13 0.24,-0.21 -0.05,-0.35 -0.24,-0.4 -0.45,-0.12 -0.81,-0.03 -1.15,-0.03 -0.2,0 -0.37,-0.03 -0.56,-0.02 -0.84,0.06 -1.34,0.23 -1.99,0.43 -0.11,0.03 -0.14,0.04 -0.25,0.09 -0.45,0.2 -0.3,-0.01 -0.23,-0.28 0.16,-0.58 0.05,-0.42 0.49,-0.66l1.51 -0.87 0 -0.21c-0.24,-0.15 -0.23,-0.19 -0.65,-0.21 -0.29,-0.01 -0.48,0 -0.8,0l0.6 -2.22c0.09,-0.37 0.2,-0.74 0.31,-1.1 0.27,-0.95 0.62,-2.38 0.91,-3.29l0.61 -2.17 4.74 0.07c0.16,0 0.45,-0.02 0.59,0.01 0.01,0 0.02,0.02 0.03,0.01 0,-0 0.07,-0.02 0.04,0.15l-0.59 2.11 -2.15 -0 -0.57 2.11c0.25,0.05 0.6,0.03 0.91,0.03 0.2,0 0.75,-0.04 0.89,-0.02l-0 -0.03c0,-0 0,-0.01 0,-0.01 0,-0 0.01,-0.02 0.01,-0.02l0.01 -0.02c-0.16,0 -0.25,-0.01 -0.35,-0.02 -0.18,-0.02 -0.24,0.03 -0.28,-0.09 -0.02,-0.07 0.09,-0.51 0.11,-0.58l0.27 -1.11c0.13,0 0.29,0.01 0.42,0 0.21,-0.01 0.15,-0.03 0.28,-0.09 0.13,-0.06 0.08,-0.01 0.29,-0.01 0.13,-0 0.21,-0.02 0.28,-0.09 0.07,-0.07 0.17,-0.42 0.2,-0.55 0.01,-0.06 0.01,-0.09 0.03,-0.15l0.2 -0.72c0.03,-0.11 0.03,-0.19 0.06,-0.29 0.05,-0.2 0.17,-0.31 0.16,-0.56 -0.01,-0.18 -0.04,-0.17 -0.23,-0.17l-1.03 -0.03c0,-0.3 0.27,-1.67 0.42,-1.9 0.05,-0.09 0.14,-0.12 0.23,-0.17 0.06,-0.04 0.05,-0.03 0.1,-0.08 0.01,-0.01 0.05,-0.06 0.05,-0.06 0.44,-0.42 0.21,0.02 0.79,-0.87 0.29,-0.44 0.35,-0.51 0.52,-1.02 0.12,-0.37 -0.02,-1.01 -0.1,-1.34 -0.05,-0.17 -0.18,-0.37 -0.26,-0.53 -0.08,-0.17 -0.24,-0.26 -0.38,-0.38 -0.43,-0.39 -1.01,-0.63 -1.58,-0.81 -0.17,-0.05 -0.44,-0.14 -0.56,-0.22 0.01,-0.46 0.95,-1.1 0.35,-2.12 -0.23,-0.39 -0.65,-0.65 -1.05,-0.87 -0.36,-0.2 -1.07,-0.38 -1.49,-0.44 -0.12,-0.02 -0.25,-0.06 -0.41,-0.08 -0.2,-0.03 -0.27,0.02 -0.33,-0.14 -0.09,-0.23 -0.17,-1.39 -0.51,-1.86l-0.2 -0.27c-0.2,-0.27 -0.55,-0.45 -0.85,-0.61 -0.59,-0.29 -1.5,-0.29 -2.14,-0.21 -0.28,0.04 -0.54,0.09 -0.88,0.09 -0.18,-0.35 -0.09,-1.02 -0.89,-1.75 -0.01,-0.01 -0.01,-0.01 -0.02,-0.02 -0.02,-0.02 -0.05,-0.05 -0.07,-0.07 -0.27,-0.27 -0.58,-0.41 -0.99,-0.49 -0.45,-0.08 -0.87,-0.07 -1.37,-0.02 -0.23,0.02 -0.42,0.05 -0.68,0.07 -0.32,0.03 -0.94,0.33 -1.15,0.07 -0.12,-0.15 -0.14,-0.29 -0.23,-0.44 -0.21,-0.35 -0.72,-0.86 -1.06,-1.11 -0.85,-0.63 -2.02,-0.22 -2.95,0.06 -0.29,0.09 -0.84,0.4 -1.12,0.25 -0.08,-0.04 -0.05,-0.02 -0.1,-0.08l-0.09 -0.09c-1.05,-0.8 -2.01,-0.99 -3.28,-0.33 -0.09,0.05 -0.17,0.06 -0.26,0.11 -0.1,0.06 -0.11,0.08 -0.22,0.14 -0.34,0.19 -0.83,0.65 -1.04,0.75 -0.18,-0.14 -0.13,-0.18 -0.24,-0.37 -0.58,-0.94 -1.26,-0.79 -2.17,-0.24l-1.12 0.96c-0.16,0.08 -0.37,-0.03 -0.51,-0.06l-1.58 -0.25c-0.45,0.02 -1.07,0.19 -1.46,0.4l-0.34 0.24c-0.24,0.18 -0.43,0.38 -0.53,0.66 -0.43,1.26 0.61,0.89 -1.4,0.94 -0.34,0.01 -0.72,0.14 -1.02,0.21 -0.54,0.14 -1.05,0.7 -1.2,1.19l-0.14 0.74c-0.04,0.41 -0.55,-0.02 -1.12,-0.15 -0.81,-0.19 -1.12,0.54 -1.36,1.04 -0.05,0.11 -0.07,0.09 -0.12,0.2 -0.16,0.33 -0.03,0.21 -0.4,0.29 -0.4,0.08 -0.77,0.1 -1.19,0.2 -0.36,0.09 -0.66,0.25 -0.91,0.48 -0.07,0.07 -0.1,0.12 -0.17,0.2 -0.07,0.07 -0.09,0.08 -0.13,0.19 -0.15,0.36 -0.21,0.73 -0.13,1.11 0.1,0.51 0.35,0.43 -0.04,0.91l-0.58 0.78c-0.05,0.08 -0.08,0.14 -0.13,0.23l-0.25 0.43c-0.04,0.07 -0.03,0.04 -0.06,0.12l-0.41 1.08c-0.11,0.53 0.03,0.92 0.21,1.34 0.04,0.09 0.05,0.14 0.09,0.23 0.08,0.17 0.19,0.25 0.27,0.41 0.1,0.19 0.48,0.59 0.64,0.74l0.58 0.47c0.08,0.05 0.12,0.08 0.19,0.13 0.18,0.14 0.71,0.35 0.96,0.4 0.05,0.19 0.05,0.41 0.08,0.62 0.03,0.22 0.1,0.3 0.2,0.48 0.12,0.22 0.03,0.32 -0.02,0.53 -0.12,0.52 -0.33,1.06 -0.48,1.57l-0.93 3.13c-0.05,0.16 -0.1,0.33 -0.15,0.52 -0.04,0.15 -0.09,0.36 -0.15,0.52l-0.63 2.09c-0.09,0.37 -0.22,0.68 -0.31,1.03l-0.61 2.07c-0.03,0.07 -0.06,0.18 -0.11,0.25 -0.11,0.14 -0.6,0.47 -0.85,0.89 -0.19,0.33 -0.18,0.81 0.09,1.08l0.14 0.12c0.2,0.15 0.39,0.29 0.64,0.39l0.11 0.04c0.13,0.05 0.27,0.11 0.44,0.12 -0.1,-0.14 -0.33,-0.16 -0.49,-0.25 -0.27,-0.14 -0.61,-0.39 -0.72,-0.66 -0.21,-0.51 0.13,-1 0.51,-1.35l0.78 -0.61c0.34,-0.27 1.42,-0.79 1.87,-0.96 1.36,-0.51 1.31,-0.51 2.68,-0.87 1.22,-0.33 3.06,-0.63 4.36,-0.63 0.23,-0 0.5,-0.01 0.72,0 0.17,0.01 0.16,0.03 0.34,0.04 0.6,0.01 1.51,0.13 1.93,0.53 0.42,0.39 0.28,0.08 1.11,0.16 0.32,0.03 0.32,0.05 0.45,0.24 -0.08,0.16 0.02,0.07 -0.13,0.19l-1.07 0.58c-0.31,0.12 -0.61,0.25 -0.88,0.44l-0.9 0.6c-0.03,0.02 -0.06,0.04 -0.09,0.06 -0.11,0.07 -0.12,0.03 -0.16,0.17 0.16,-0.01 0.32,-0.09 0.45,-0.14 0.29,-0.11 0.65,-0.18 1.02,-0.13 0.68,0.1 0.01,0.57 -0.14,0.79 0.15,-0 0.62,-0.17 0.76,-0.24 0.1,-0.05 0.1,-0.06 0.24,-0.1 0.41,-0.12 0.61,-0.28 1.05,-0.19 -0.02,0.18 -0.15,0.18 -0.3,0.25l-2.66 1c-0.34,0.12 -0.68,0.37 -1.06,0.14 0.13,-0.18 0.51,-0.49 0.53,-0.69 -0.08,0.04 -0.15,0.05 -0.25,0.08l-2.41 1.02c-0.44,0.2 -0.46,0.25 -0.95,0.24 0,-0.29 0.2,-0.37 0.37,-0.53 0.1,-0.09 0.13,-0.11 0.24,-0.19 0.25,-0.18 0.48,-0.44 0.71,-0.63 0.07,-0.06 0.18,-0.12 0.26,-0.18 0.07,-0.06 0.16,-0.16 0.21,-0.23 -0.2,0 -0.33,-0.03 -0.42,-0.14 0.03,-0.11 0.06,-0.12 0.15,-0.17l2.33 -1.16c0.2,-0.14 0.51,-0.44 0.75,-0.49 -0.03,-0.33 -1.03,-0.54 -1.3,-0.58 -0.57,-0.07 -1.21,-0.09 -1.81,-0.04 -1.2,0.09 -3.09,0.42 -4.23,0.82 -0.52,0.18 -1.03,0.36 -1.53,0.57 -0.12,0.05 -0.21,0.08 -0.32,0.13 -0.44,0.2 -1.67,0.85 -2.01,1.28 -0.46,0.59 -0.48,1 0.21,1.37l0.51 0.23c0.04,0.02 0.11,0.03 0.17,0.05 0.55,0.14 1.07,0.22 1.63,0.28 0.29,0.03 0.6,0.05 0.87,0.07 0.32,0.03 0.65,-0.02 0.97,0.02 0.27,0.04 0.63,0.04 0.91,0.01 0.56,-0.08 1.3,0.01 1.86,-0.07 0.18,-0.02 0.29,-0.02 0.47,-0.02 0.21,-0 0.24,-0.03 0.45,-0.04l3.45 -0.35c0.21,-0.01 0.26,-0.04 0.43,-0.05 0.09,-0.01 0.26,0.03 0.37,0.05 -0,0.18 -0.05,0.2 -0.2,0.23l-2.04 0.21c-0.16,0.01 -0.27,-0 -0.43,0.02 -0.76,0.11 -1.49,0.09 -2.09,0.17l-1.73 0.12c0.17,0 0.39,0.03 0.49,0.02 0.11,-0.01 0.28,-0.02 0.46,-0.02 0.65,0 2.37,-0.14 2.82,-0.08 0.68,0.08 2.02,0.02 2.87,0.08 0.31,0.02 0.72,-0.01 0.84,0.14 -0.08,0.1 -0.05,0.05 -0.17,0.12l-0.77 0.51c-0.07,0.04 -0.1,0.05 -0.17,0.09l-0.8 0.48c-0.35,0.24 -0.06,0.39 0.36,0.39l-0.19 -0.1c0,-0.12 -0.02,-0.13 0.03,-0.21 0,-0 0.13,-0.1 0.14,-0.11 0.1,-0.07 0.18,-0.11 0.29,-0.18l1.09 -0.67c0.35,-0.18 0.69,-0.44 1.05,-0.64 0.51,-0.28 1,-0.62 1.49,-0.92l2.13 -1.31c0.11,-0.06 0.2,-0.11 0.3,-0.17 0.06,-0.04 0.09,-0.06 0.15,-0.1 0.05,-0.03 0.08,-0.04 0.14,-0.08l0.9 -0.56c0.18,-0.11 0.4,-0.29 0.66,-0.3 0.18,-0.01 0.38,-0.03 0.4,0.11 0.01,0.09 -0.4,0.37 -0.49,0.43 -0.13,0.09 -0.21,0.07 -0.25,0.22 0.21,-0 0.39,-0.13 0.61,-0.17 0.48,-0.1 0.84,-0.16 1.33,-0.14 0.31,0.01 0.4,0.03 0.53,0.21 -0.11,0.42 -0.8,0.45 -1.02,0.73 0.2,0 0.19,-0.02 0.33,-0.08l1.4 -0.55c0.25,-0.08 0.44,-0.06 0.62,0.05 -0.06,0.19 -0.25,0.21 -0.44,0.29l-2.44 0.89c-0.49,0.19 -1.01,0.28 -1.56,0.28l0 0.03c0.52,0 0.92,0.05 1.37,0.01 0.6,-0.06 0.91,-0.18 1.25,-0.18 0.13,0.25 0.28,0.38 0.61,0.31l-0.11 -0.07c-0.04,-0.02 -0.07,-0.04 -0.12,-0.07 0,-0.25 0,-0.18 0.13,-0.33 0.15,-0.17 0.34,-0.27 0.54,-0.41 0.11,-0.07 0.18,-0.14 0.28,-0.2 0.16,-0.11 0.42,-0.27 0.61,-0.34 0.24,-0.09 0.38,-0.21 0.62,-0.3 0.14,-0.05 0.21,-0.08 0.34,-0.14 0.13,-0.06 0.2,-0.09 0.35,-0.13 2.68,-0.86 2.78,0.02 1.52,0.21 -0.25,0.04 -0.74,0.03 -0.9,0.22 0.13,0 0.25,0.03 0.34,0.07 0.12,0.05 0.19,0.06 0.23,0.17 0.31,-0.01 0.66,-0.21 0.95,-0.31 0.34,-0.11 0.63,-0.29 0.98,-0.07 -0.03,0.11 -0.06,0.13 -0.11,0.21 0.11,-0.01 0.4,-0.12 0.51,-0.16 0.49,-0.22 0.96,-0.38 1.55,-0.42 0.72,-0.05 0.58,0.07 1.12,-0.22 0.29,-0.16 0.53,-0.31 0.83,-0.46l0.63 -0.36c0.59,-0.3 1.27,-0.93 1.91,-1.03 0.35,-0.05 0.84,-0.11 1.09,0.12 -0.02,0.23 -0.11,0.21 -0.28,0.3l-0.37 0.22c-0.74,0.38 -2.8,1.59 -3.47,2.03l-0.53 0.32c-0.3,0.2 -0.74,0.46 -0.94,0.73 0.23,-0.02 2.5,-0.91 2.99,-1.15 0.33,-0.16 0.75,-0.32 1.08,-0.16 -0.03,0.12 -0.13,0.16 -0.23,0.21l-3.42 1.34c-0.26,0.1 -1.13,0.34 -1.25,0.49 0.15,0 0.4,0.05 0.54,0.07 0.17,0.02 0.41,-0.03 0.53,-0.06 0.2,-0.04 0.29,-0.07 0.46,-0.13 0.35,-0.14 0.73,-0.23 1.07,-0.38 0.39,-0.16 0.21,0.19 1.16,0.19l-0.32 -0.09c-0.46,-0.15 0.14,-0.56 0.34,-0.69l0.61 -0.38c0.23,-0.12 0.44,-0.22 0.66,-0.33 0.58,-0.29 1.19,-0.53 1.82,-0.72 0.08,-0.03 0.14,-0.04 0.2,-0.06 0.44,-0.09 1.52,-0.41 1.81,-0.01 -0.08,0.29 -0.47,0.35 -0.77,0.4l-0.53 0.07c-0.18,0.04 -0.35,0.02 -0.4,0.19 0.36,0.01 0.39,0.18 0.49,0.21 0.36,0.11 1.34,-0.7 2.01,-0.38 -0.06,0.22 -1.02,0.48 -1.28,0.6 -0.56,0.26 -1.62,0.54 -2.11,0.84 -0.01,0 -0.02,0.01 -0.02,0.01 -0.02,0.01 -0.06,0.05 -0.08,0.07 0.6,0 0.98,0.11 1.47,-0.11l1.73 -0.67c0.94,-0.34 0.84,-0.42 1.96,-0.42 0.18,-0.24 0.26,-0.65 0.32,-0.95 0.02,-0.11 0.05,-0.2 0.09,-0.3 0.07,-0.2 0.12,-0.42 0.18,-0.63 0.18,-0.73 0.21,-0.52 -0.37,-0.7 -0.51,-0.16 -0.6,-0.01 -0.57,-0.29 0.06,-0.58 0.37,-1.35 0.42,-1.9 0.21,-0 0.21,-0.05 0.48,-0.02 0.51,0.06 0.49,-0.12 0.52,-0.21 0.02,-0.08 0.03,-0.1 0.06,-0.19 0.12,-0.47 0.26,-0.9 0.36,-1.37 0.04,-0.2 0.15,-0.36 0.1,-0.56 -0.09,0.04 -0.06,0.02 -0.1,0.1z"/>
   <path class="fil1" d="M28.19 17.47c0.17,-0.07 0.51,0.08 0.76,0.17 0.52,0.19 0.87,0.18 1.31,-0.15 0.09,-0.07 0.17,-0.16 0.26,-0.18 0.12,-0.02 0.16,0.03 0.14,0.1 -0.03,0.08 -0.22,0.19 -0.31,0.27 -0.01,0.01 -0.01,0.01 -0.02,0.02 -0.33,0.3 -0.92,0.31 -1.24,0.19 -0.04,-0.01 -0.1,-0.04 -0.16,-0.06 -0.08,-0.03 -0.09,-0.03 -0.16,-0.06 -0.34,-0.12 -0.53,-0.13 -0.58,-0.3zm-22.09 -8.71c1.18,0 2.15,0.48 3.15,0.93 0.24,0.11 0.48,0.2 0.71,0.32 0.53,0.27 0.66,0.26 1.1,0.42 0.14,0.05 0.22,0.09 0.39,0.09 1.24,0.06 1.45,-0.35 2.17,-0.79 0.43,-0.26 0.79,-0.49 1.26,-0.72 0.98,-0.48 0.64,-0.26 1.51,-0.53 0.76,-0.24 1.84,-0.33 2.69,-0.24l0.42 0.07c0.12,0.02 0.06,0.01 0.18,0.05 0.55,0.15 1.1,0.26 1.63,0.45 0.97,0.35 0.51,0.2 1.29,0.56 0.39,0.18 0.86,0.43 1.43,0.43 1,0 1.71,-0.41 1.94,-0.41 0.19,0 0.16,0.07 0.05,0.14 -0.11,0.08 -0.59,0.21 -0.75,0.26 -1.42,0.42 -2.12,0.08 -3.28,-0.52 -0.27,-0.14 -1.02,-0.36 -1.35,-0.46 -0.12,-0.04 -0.23,-0.08 -0.34,-0.11 -1.3,-0.4 -2.65,-0.41 -3.96,-0.02 -0.16,0.05 -0.3,0.08 -0.44,0.12 -0.17,0.04 -0.23,0.07 -0.39,0.13l-2.2 1.28c-0.51,0.37 -1.01,0.49 -1.66,0.49 -0.84,0 -2.46,-0.84 -3.24,-1.2l-0.63 -0.26c-1.24,-0.4 -2.01,-0.44 -3.34,0.01 -0.42,0.14 -0.53,0.25 -0.73,0.13 0.19,-0.24 1.83,-0.62 2.39,-0.62zm27.06 -0.82c0.36,0.3 0.65,0.96 0.61,1.38 -0.28,-0.01 -0.26,-0.14 -0.33,-0.36 -0.14,-0.46 -0.31,-0.91 -0.85,-1.13 -0.65,-0.26 -1.6,-0.13 -2.29,-0.16 -0.18,-0.01 -0.15,-0 -0.22,-0.11 0.55,-0.12 1.82,-0.09 2.35,0.03 0.33,0.08 0.5,0.17 0.71,0.35zm-7.21 -0.48c0.11,-0.16 0.12,-0.42 0.17,-0.64 0.07,-0.29 0.08,-0.44 0.21,-0.61 0.85,0 0.8,-0.06 1.25,-0.07 0.22,-0.01 0.45,0.01 0.65,-0.01 0.27,-0.03 0.39,-0.08 0.49,0.05 -0.42,0 -0.8,0.04 -1.18,0.07l-1.17 0.07c-0.03,0.12 -0.06,0.18 -0.09,0.33 -0.03,0.13 -0.05,0.22 -0.08,0.34 -0.24,1.12 -0.21,0.45 -0.37,0.87 -0.24,0.64 -0.42,0.62 -0.44,0.81 0.58,0 1.16,0.14 1.65,0.33 0.9,0.34 0.74,0.09 1.41,0.23 0.1,0.02 0.14,0.01 0.27,0.03 0.13,0.02 0.11,0.04 0.27,0.06 0.13,0.02 0.17,0.04 0.27,0.06 0.15,0.04 0.68,0.16 0.54,0.37 -0.07,0.11 -0.46,-0.04 -0.76,-0.11 -0.28,-0.06 -0.86,-0.17 -1.14,-0.14 -0.24,0.03 -0.4,0.03 -0.6,0.08 -0.39,0.09 -0.47,0.15 -0.62,0.02 -0.57,-0.47 -0.52,-0.6 -1.61,-0.74 -0.34,-0.05 -1,0.01 -1.28,-0.04l-2.19 -1.36c-0.07,-0.04 -0.12,-0.07 -0.19,-0.11 -1.03,-0.57 -2.66,-0.63 -3.93,-0.57 -0.31,0.02 -0.63,0.02 -0.81,0.16 -0.05,0.04 -0,0.01 -0.06,0.05 -0.1,0.07 -0,0.06 -0.16,0.06 -0.25,0.01 -0.13,-0.11 -0.49,0.01l-1.93 0.66c-1.12,0.48 -2.56,1.46 -3.95,1.12 -0.8,-0.2 -0.25,-0.02 -0.98,-0.31l-0.69 -0.3c-0.27,-0.14 -0.84,-0.34 -1.16,-0.43l-0.56 -0.11c-0.36,-0.03 -0.9,-0.04 -1.22,0.03 -0.18,0.04 -0.34,0.07 -0.51,0.12 -0.31,0.09 -0.67,0.24 -0.89,0.4 -0.63,0.45 -0.75,1.02 -0.41,1.66 0.13,-0.03 0.16,-0.05 0.3,-0.07 0.11,-0.02 0.2,-0.03 0.32,-0.06 1.07,-0.27 2.14,-0.21 3.2,0.07 0.11,0.03 0.19,0.04 0.3,0.07 0.1,0.03 0.18,0.07 0.27,0.1 0.15,0.04 0.42,0.07 0.54,0.16 0.18,0 0.26,0.06 0.41,0.11l0.68 0.28c0.13,0.06 0.22,0.08 0.34,0.14 1.11,0.5 1.97,0.94 3.17,0.13l1.41 -0.79c0.56,-0.3 1.55,-0.59 2.19,-0.74 0.76,-0.17 1.49,-0.24 2.28,-0.2 0.35,0.02 0.76,0.13 1.07,0.2 0.08,0.02 0.11,0.02 0.19,0.04 1.6,0.41 1.45,0.52 2.52,0.92 0.7,0.26 1.31,0.39 2.1,0.22 0.62,-0.13 1.23,-0.38 1.79,-0.65 0.44,-0.21 1.18,0.06 1.56,0.27 0.5,0.27 0.94,0.48 1.55,0.42 0.75,-0.08 1.39,-0.81 1.86,-1.32 0.14,-0.15 0.18,-0.25 0.43,-0.2 0.05,0.2 0.07,0.24 -0.04,0.42 -0.27,0.41 -0.7,0.77 -1.14,1.04 -0.06,0.04 -0.03,0.01 -0.1,0.05 -0.05,0.03 -0.06,0.03 -0.1,0.05 -0.3,0.17 -0.64,0.28 -1.07,0.27 -0.75,-0.01 0.29,0.34 0.12,1.88 -0.03,0.23 0.04,0.26 0.26,0.27 0.7,0.04 1.14,-0.11 1.65,-0.47l0.23 -0.17c0.01,-0 0.01,-0.01 0.02,-0.02 0.38,-0.32 0.5,-0.87 0.91,-0.83 0.35,0.03 0.05,0.33 -0.11,0.56l-0.5 0.59c-0.11,0.12 -0.46,0.35 -0.63,0.43 -0.45,0.22 -1.24,0.29 -1.92,0.29 -0.18,0.31 -0.07,0.33 -0.49,0.24 0,-0.43 0.29,-0.95 0.08,-1.35 -0.2,0.06 -0.38,0.29 -0.53,0.41l-0.68 0.46c-0.48,0.31 -1.19,0.31 -1.79,0.31 -0.11,0.16 -0.24,0.38 -0.34,0.55 -0.48,0.85 -0.88,0.54 -0.68,0.21l1.27 -2.2c0.05,-0.08 0.12,-0.18 0.18,-0.25 0.08,-0.1 0.15,-0.12 0.33,-0.12 0.16,0.63 -0.3,0.97 -0.42,1.42 0.81,0 1.42,-0.18 1.88,-0.64 0.14,-0.14 0.29,-0.28 0.38,-0.45 0.03,-0.05 0.03,-0.05 0.05,-0.1 0.01,-0.02 0.03,-0.07 0.04,-0.07 0.07,-0.15 0.09,-0.35 0.03,-0.54l-0.19 -0.28c-0.16,-0.15 -0.32,-0.31 -0.53,-0.42l-0.64 -0.32c-1.02,-0.39 -1.6,0.37 -2.51,0.57 -0.3,0.07 -1.04,0.07 -1.35,0.04 -0.44,-0.05 -0.5,0.06 -0.86,-0.11 -0.06,-0.03 -0.1,-0.05 -0.17,-0.09 -0.05,-0.03 -0.1,-0.05 -0.15,-0.07 -0.13,-0.06 -0.22,-0.1 -0.32,-0.16 -0.36,-0.21 -0.76,-0.35 -1.15,-0.51 -0.08,-0.03 -0.09,-0.04 -0.14,-0.08 -0.23,-0 -0.15,-0.06 -0.38,-0.07l0.59 0.29c0.47,0.19 0.6,0.34 0.88,0.48 0.39,0.19 0.88,0.73 1.12,1.05 0.76,1.04 0.71,1.75 0.39,2.89 -0.27,0.94 -0.67,0.75 0.71,0.91 0.21,0.02 0.32,0.02 0.52,0.05l1.01 0.12c0.33,0.06 0.66,0.09 0.97,0.15 0.4,0.09 1.92,0.31 1.9,0.86 -0.01,0.32 -0.72,0.53 -0.99,0.66l0.46 0.45c0.01,0.01 0.03,0.03 0.06,0.05 0.16,0.16 -0.13,-0.13 0.04,0.04l0.05 0.06c0.17,0.18 0.18,0.15 0.37,0.16 0.05,0 0.11,0.01 0.17,0.01 0.8,0.02 1.13,0.08 1.69,-0.33l0.18 -0.14c0.21,-0.17 -0.16,0.14 0.04,-0.03l0.1 -0.08c0.06,-0.06 0.03,-0.03 0.09,-0.09 0.52,-0.58 0.55,-0.26 0.55,-0.98 0.57,0 0.79,-0 1.14,-0.21l0.6 -0.39c0.08,-0.07 0.66,-0.85 0.55,-0.26 -0.16,0.83 -0.38,0.8 -0.54,1.07l0.73 0.13c0.38,0.06 0.88,0.14 1.19,0.34 0.62,0.39 1.79,-0.01 2.61,0.59 0.08,0.06 0.18,0.1 0.17,0.22 -0.03,0.33 -0.83,-0.42 -2.04,-0.27 -0.1,0.01 -0.28,0.02 -0.42,0.03 -0.1,0.01 -0.2,0.04 -0.35,0.06 -0.39,0.05 -0.35,0.01 -0.58,-0.2 -0.25,-0.23 -0.69,-0.51 -1.09,-0.6 -0.51,-0.11 -0.36,-0.04 -0.77,-0.09 -0.32,-0.04 -0.54,0.03 -0.79,0.03 -0.01,0.16 -0.24,0.39 -0.35,0.51 -0.04,0.05 -0.06,0.09 -0.1,0.15 -0.22,0.3 -0.49,0.41 -0.54,0.58 2.66,0 5.18,0.06 7.82,0.07 0.28,0 0.6,0.08 0.99,0 0,-0.27 0.08,-0.51 0.08,-0.83 -0,-0.15 0.01,-0.3 0,-0.45 -0.01,-0.18 -0.04,-0.19 -0.04,-0.38 0.38,-0.23 0.48,-0.04 0.87,-0.03 0.13,0 0.84,-0.11 0.91,-0.14 -0.07,-0.08 -0.85,-0.33 -1.01,-0.39l-0.11 -0.04c-0.15,-0.05 -0.07,-0.05 -0.24,-0.06 -0.05,0.16 -0.35,0.35 -0.51,0.44 -0.41,0.23 -0.99,0.48 -1.5,0.43 -0.21,-0.02 -0.59,-0.13 -0.61,-0.34 0.34,0 0.96,-0.05 1.3,-0.13 0.15,-0.04 0.38,-0.14 0.47,-0.23 0.09,-0.09 0.23,-0.31 0.24,-0.44l-1.58 -0.56c-0.19,-0.07 -0.29,-0.16 -0.54,-0.16l-0.15 0.28c-0,0.01 -0.01,0.01 -0.02,0.02 -0.17,0.2 -0.22,0.22 -0.48,0.22 -0.19,-0.37 0.13,-0.44 0.15,-0.73l-1.98 -0.72c-0.2,-0.02 -0.45,0.3 -1.28,0.3 0.1,0.18 0.62,0.54 0.82,0.81 0.11,0.15 0.09,0.21 0.01,0.37 -0.19,0 -0.24,-0.02 -0.33,-0.11l-0.3 -0.35c-0.06,-0.07 -0.03,-0.04 -0.12,-0.1l-0.72 -0.52c-0.09,-0.08 -0.17,-0.12 -0.24,-0.2 -0.08,-0.08 -0.11,-0.12 -0.11,-0.28 0.19,-0.08 0.27,-0.06 0.52,-0.02 0.16,0.02 0.4,0.03 0.62,0.02 0.98,-0.04 1.47,-0.64 1.95,-1.2l0.11 -0.14c0.05,-0.09 0.06,-0.09 0.06,-0.22 -0.37,-0.09 -0.65,-0.79 -0.75,-1.12l-0.12 -0.47c-0.15,-0.01 -1.02,-0.12 -1.14,-0.17l0.03 -0.46c0.17,-1.5 -0.18,-2.29 -1.74,-2.72 -0.51,-0.14 -1.05,-0.17 -1.57,-0.23 -1.21,-0.15 -0.87,0.16 -1.07,-0.41l-0.25 -0.57c-0.3,0.01 -0.16,0.13 -0.49,0.03 0.06,0.1 0.04,0.05 0.09,0.1 0.09,0.11 0.08,0.16 0.17,0.3 0.05,0.08 0.24,0.36 0.01,0.37 -0.16,0.01 -0.23,-0.24 -0.28,-0.37 -0.09,-0.25 -0.18,-0.11 -0.18,-0.42l-2.54 0.14c-0.02,0.17 -0.1,0.47 -0.14,0.63l-0.12 0.62z"/>
   <path class="fil1" d="M34.34 5.72c0.02,-0.2 0.1,-0.15 0.42,-0.2 0.88,-0.16 1.86,-0.33 2.68,0.04 0.52,0.23 0.75,0.79 0.93,1.23 0.09,0.22 0.34,0.7 0.07,0.7 -0.13,0 -0.16,-0.11 -0.19,-0.21l-0.32 -0.81c-0.16,-0.34 -0.39,-0.62 -0.73,-0.79 -0.34,-0.17 -0.23,-0.09 -0.65,-0.13 -0.35,-0.04 -1.05,0.03 -1.42,0.1 -0.24,0.05 -0.55,0.13 -0.79,0.08zm-1.24 -2.78c-0.19,0.26 -0.36,0.13 -0.62,0.29 0.3,0 0.48,0.06 0.69,0.23l0.27 0.24c0.27,0.23 0.27,0.32 0.41,0.46 0.11,0.11 0.1,0.12 0.19,0.24 0.06,0.09 0.11,0.16 0.18,0.25 0.08,0.11 0.12,0.14 0.12,0.31 -0.17,0.04 -0.19,0.01 -0.29,-0.11 -0.07,-0.08 -0.11,-0.16 -0.18,-0.25 -0.07,-0.1 -0.12,-0.14 -0.19,-0.24 -0.26,-0.34 -0.27,-0.36 -0.62,-0.68 -0.2,-0.18 -0.33,-0.2 -0.54,-0.33 -0.13,-0.08 -0.17,-0.09 -0.41,-0.07 -0.27,0.03 -1.7,0.29 -1.83,0.39 -0.05,0.04 -0.03,0.23 -0.61,0.23 0.09,-0.13 0.09,-0.1 0.23,-0.17 0.09,-0.05 0.02,-0 0.07,-0.04 -0.2,0 -0.32,-0.03 -0.46,0.08l0.15 -0.01c-0.03,0.07 -0.02,0.03 -0.04,0.07 -0.01,0.01 -0.03,0.03 -0.03,0.04 -0,0.01 -0.01,0.01 -0.02,0.02l-0.07 0.08c-0,0.01 -0.01,0.01 -0.02,0.02l-0.14 0.22c-0.11,0.2 -0.4,0.69 -0.41,0.91 0.23,0.05 0.23,-0.09 0.35,-0.24 0.21,-0.25 0.07,-0.72 0.48,-0.88 0.22,-0.09 0.33,0.01 0.58,0.01 0.03,0.13 0.04,0.14 0.04,0.31 -0.09,0.06 -0.23,0.1 -0.24,0.23 -0.03,0.28 0.41,-0.3 0.47,-0.33 0.16,-0.09 0.27,0 0.38,0.07 -0.03,0.33 -0.42,0.54 -0.59,0.81 -0.19,0.29 0.01,0.25 -0.42,0.62 -0.09,0.08 -0.14,0.09 -0.2,0.16 0.08,0.3 0.37,0.5 0.46,0.8 0.17,-0 0.21,-0.05 0.31,-0.1 0.12,-0.07 0.15,-0.05 0.25,-0.15 0.15,-0.17 0.23,-0.29 0.35,-0.48 0.03,-0.04 0.04,-0.06 0.07,-0.11 0.05,-0.07 0.05,-0.08 0.08,-0.14 0.13,-0.27 0.32,-0.58 0.39,-0.86l0.11 0c0.09,0.35 -0.11,1.41 -0.11,1.87 0.25,0.11 0.6,0.16 0.87,0.25 0.11,0.04 0.27,0.1 0.4,0.16 0.15,0.06 0.25,0.09 0.39,0.16 0.1,0.05 0.08,0.05 0.16,0.1 0.07,0.05 0.11,0.06 0.18,0.11 0.18,0.13 0.76,0.67 0.81,0.85 0.22,0 0.3,-0.03 0.48,-0.08 0.62,-0.17 1.41,-1.05 1.53,-0.99 0.12,0.06 0.07,0.12 0,0.31 -0.08,0.22 -0.19,0.41 -0.34,0.59 -0.09,0.11 -0.15,0.11 -0.23,0.24 0.22,0 0.17,-0 0.33,0.04 0.15,0.04 0.97,0.07 1.52,0.34 0.19,0.1 0.29,0.16 0.58,0.17 0.92,0.02 1.18,-0.01 1.98,0.27 0.17,0.06 0.36,0.17 0.42,0.35 -0.13,0.06 -0.79,-0.12 -0.99,-0.17 -0.82,-0.2 -1.1,-0.05 -1.82,0.1 0.01,0.25 0.52,0.93 0.68,1.21 0.18,0.32 0.35,0.69 0.59,0.98 0.16,0.2 1.3,0.36 1.75,0.76 0.45,0.41 0.07,0.57 0.46,0.62 0.59,0.07 1.53,0.27 1.93,0.69 0.35,0.37 0.12,0.74 -0.44,0.22 -0.85,-0.78 -1.1,-0.34 -2.06,-0.54 -0.13,-0.51 -0.31,-0.88 -0.86,-1.08l-0.05 -0.02c-0.06,-0.02 -0.08,-0.03 -0.17,-0.06 -0.23,-0.07 -0.56,-0.11 -0.78,-0.19 -0.12,-0.05 -0.17,-0.11 -0.3,-0.17 -0.03,0.31 -0.46,0.79 -0.77,0.89 -0.42,0.14 -0.87,-0.04 -1.26,-0.14 -0.1,-0.02 -0.1,-0.02 -0.21,-0.02 -0.03,0.11 -0.08,0.16 -0.15,0.25l-0.39 0.44c-0.09,0.08 -0.13,0.15 -0.26,0.18 0.02,0.19 0.13,0.15 0.32,0.23 0.57,0.25 1.87,0.82 2.5,0.97 0.1,0.02 0.14,0.03 0.24,0.06 0.14,0.05 0.04,0.05 0.25,0.05 0.05,-0.19 0.24,-0.51 0.4,-0.63 0.12,-0.09 0.12,-0.06 0.32,-0.06 0.13,0.18 0.14,0.25 0.03,0.47l-0.25 0.43c0.19,0.09 0.44,0.15 0.64,0.24 0.12,0.05 0.2,0.06 0.33,0.11l1.68 0.62c0.34,0.13 0.35,-0 0.6,-0.15 0.1,-0.06 0.18,-0.09 0.29,-0.15 0.12,-0.07 0.2,-0.1 0.28,-0.19 0.27,-0.31 0.52,-0.69 0.72,-1.03 0.29,-0.48 0.72,-1.29 0.29,-1.88 -0.29,-0.39 -0.71,-0.65 -1.11,-0.92 -0.31,-0.21 -0.67,-0.36 -1.02,-0.52 -0.32,-0.14 -0.49,-0.16 -0.43,-0.41 -0.18,0.15 -0.03,0.18 -0.34,0.11 0,-0.33 0.53,-1.09 0.31,-1.7 -0.05,-0.14 -0.21,-0.31 -0.34,-0.38 -0.46,-0.29 -0.63,-0.24 -1.05,-0.39l-0.9 -0.22c-0.1,-0.03 -0.22,-0.04 -0.3,-0.07l0 -0.17c0.23,0 0.43,0.07 0.63,0.12 0.23,0.06 0.42,0.08 0.64,0.14 0.58,0.17 0.24,-0.02 0.87,0.28 0.08,0.04 0.24,0.08 0.29,0.11 0.17,0.1 -0.1,-0.08 0.04,0.03l0.15 0.14c0.46,0.41 0.37,0.74 0.22,1.39 -0.04,0.17 -0.16,0.38 -0.2,0.55 0.13,-0.11 0.21,-0.35 0.28,-0.48 0.24,-0.41 0.32,-0.8 0.05,-1.17l-0.22 -0.25c-0.12,-0.11 -0.11,-0.06 -0.16,-0.18 -0.2,-0.15 -0.31,-0.19 -0.56,-0.31 -0.84,-0.38 -1.28,-0.37 -2.14,-0.54l-0.07 -0.78c-0.14,-0.55 -0.44,-1.02 -0.84,-1.44l-0.49 -0.35c-0.26,-0.15 -0.76,-0.27 -1.09,-0.27 -0.9,-0.01 -1.52,0.14 -1.77,0.14 -0.19,-0.36 -0.27,-0.62 -0.44,-0.99 -0.06,-0.14 -0.11,-0.19 -0.18,-0.32 -0.08,-0.15 -0.09,-0.14 -0.2,-0.27 -0.1,-0.12 -0.13,-0.14 -0.26,-0.24 -0.12,-0.08 -0.17,-0.14 -0.31,-0.2l-0.28 -0.1z"/>
   <path class="fil1" d="M17.76 2.16c0.07,-0.25 0.99,-0.4 1.4,-0.24 0.25,0.1 0.62,0.39 0.69,0.62 -0.1,0.05 0.03,0.03 -0.11,0.03 -0.28,0 -0.42,-0.55 -0.95,-0.55 -0.54,0 -0.85,0.27 -1.02,0.14zm2.43 0.48c0,-0.12 0.41,-0.34 0.51,-0.4 0.64,-0.39 1.25,-0.84 2.11,-0.84 0.59,0 1.34,0.48 1.77,0.85 0.16,0.13 0.07,0.34 -0.48,-0.09l-0.19 -0.14c-0.34,-0.22 -0.79,-0.44 -1.22,-0.44 -0.62,0 -1.43,0.54 -1.97,0.9 -0.1,0.07 -0.18,0.11 -0.29,0.18 -0.08,0.05 -0.24,0.16 -0.24,-0.02zm5.8 0.8c0.01,-0.01 0.01,-0.03 0.02,-0.02 0,0.01 0.01,-0.02 0.01,-0.02l0.06 -0.16c0,0 -0.17,0.05 -0.19,-0.18 -0.01,-0.13 0.05,-0.15 0.19,-0.17 0.06,0.12 0.01,0.16 0.08,0.28 0.11,-0.06 0.08,-0.02 0.11,-0.15 -0.2,-0.02 -0.02,-0.13 0.15,-0.45 0.03,-0.06 0.05,-0.12 0.08,-0.17 0.22,-0.34 0.57,-0.2 0.76,-0.1 0,0.66 -0.3,1.24 -0.26,1.58 0.06,0.54 0.05,0.51 0.27,0.15 0.16,-0.26 0.41,-0.23 0.67,-0.11l0 0.31c0.36,-0.08 0.39,-0.05 0.65,0.07 0.33,-0.58 -0,-0.36 0.08,-0.59 0.07,-0.09 0.05,-0.06 0.17,-0.12l0.09 -0.06c0.03,-0.02 0.06,-0.07 0.08,-0.1 0.16,-0.25 0.12,-0.3 0.3,-0.31l-0.05 0.1c0.12,-0.07 0.07,0.01 0.09,-0.14 -0.13,-0.03 -0.15,-0.05 -0.21,-0.15 -0.18,-0.28 -0.22,-0.36 -0.48,-0.63 -0.49,-0.53 -0.95,-0.56 -1.66,-0.39 -0.22,0.05 -0.37,0.14 -0.57,0.2 -0.38,0.12 -0.68,0.29 -0.81,0.34 -0.17,0.06 -0.18,0.05 -0.29,-0.02 0.09,-0.16 0.18,-0.15 0.49,-0.28 0.08,-0.03 0.2,-0.09 0.28,-0.13 0.63,-0.26 1.65,-0.56 2.3,-0.21 0.43,0.24 0.73,0.63 0.98,1.01 0.15,0.22 0.07,0.14 0.13,0.26l0.2 0c-0.1,-0.1 0.02,-0.06 -0.16,-0.07 0.04,-0.02 0.01,-0.02 0.08,-0.03 0.03,-0.01 0.08,-0 0.11,-0 -0.02,-0.18 -0.21,-0.44 -0.29,-0.6 -0.07,-0.13 -0.08,-0.15 -0.17,-0.26 -0.11,-0.13 -0.11,-0.18 -0.25,-0.3l-0.18 -0.15c-0.54,-0.46 -1.56,-0.34 -2.22,-0.17 -0.35,0.09 -1.61,0.54 -1.72,0.51 -0.11,-0.03 -0.79,-0.87 -1.75,-0.93 -0.53,-0.04 -1.07,0.05 -1.51,0.28 -0.05,0.03 -0.09,0.05 -0.14,0.08l-0.41 0.24c-1.37,0.9 -0.9,0.87 -1.4,0.34l-0.22 -0.25c-0.01,-0.01 -0.01,-0.01 -0.02,-0.02 -0.39,-0.37 -0.71,-0.37 -1.19,-0.19 -0.43,0.16 -0.75,0.37 -1.06,0.66l-0.35 0.37c-0.07,0.07 -0.09,0.1 -0.15,0.18 -0.47,0 -0.49,-0.2 -0.39,0.18 0.05,0.22 0.05,0.46 0.05,0.72 0.1,0.02 0.28,0.1 0.38,0.14l1.02 0.42c0.9,0.39 0.7,0.21 1.2,-0.02 0.08,-0.04 0.07,-0.03 0.16,-0.07 0.32,-0.13 0.77,-0.29 1.12,-0.36 0.27,-0.05 0.32,-0.15 0.44,-0.29 0.61,-0.68 0.31,-0.75 0.31,-1.13 0.14,-0.09 0.13,-0.13 0.38,-0.14 0.15,0.28 0.09,0.69 -0.02,1.02 -0.04,0.13 -0.08,0.18 -0.09,0.3 0.29,0.06 0.86,0.03 1.18,0.06 0.5,0.05 0.54,0.01 1.09,0.11l0.61 0.17c0.33,0.1 0.4,0.17 0.62,0.26 0.26,0.1 0.35,0.19 0.51,0.23 0.12,-0.2 0.23,-0.35 0.35,-0.55 0.09,-0.14 0.27,-0.46 0.37,-0.52l-0.01 0.14z"/>
   <path class="fil1" d="M22.39 17.92l-0.08 -0.03c0.09,-0.11 0.26,-0.14 0.42,-0.14 0.03,0.1 0.02,0.06 0.08,0.14 -0.19,0 -0.06,-0 -0.11,0.03 0.1,0 0.25,-0.01 0.34,-0 0.14,0.01 0.16,0.01 0.19,0.11 0.14,-0.01 0.18,-0.06 0.28,-0.12 1.01,-0.62 0.23,-0.36 1.42,-0.54 0.76,-0.12 1.2,-0.14 2.04,-0.32l1.12 -0.43c-0.22,-0.3 -0.78,-0.43 -1.24,-0.53l-2.78 -0.37 -2.96 -0.17 -1.66 0.15c-0.12,0.03 -0.26,0.06 -0.36,0.09 -0.31,0.09 -0.88,0.44 -1.1,0.62 -0.25,0.2 -0.44,0.5 -0.48,0.81 -0.02,0.17 0.05,0.54 0.19,0.62 0.14,0.08 3.51,0.07 4.18,0.07 0.24,-0 0.34,0.03 0.53,0.03z"/>
   <path class="fil1" d="M0.37 30.78c0,0.45 0.29,0.71 0.68,0.9 0.04,0.02 0.08,0.04 0.12,0.06 0.3,0.18 0.65,0.23 1,0.34 0.15,0.05 -0.03,0.01 0.14,0.04 0.07,0.01 0.1,0 0.17,0.02l0.32 0.06c0.27,0.01 0.12,0.03 0.31,0.06 0.12,0.02 0.28,0.02 0.38,0.03 0.23,0.03 0.52,0.04 0.73,0.07 0.88,0.1 2.47,0.04 3.41,0.04 0.32,0 0.52,-0.03 0.8,-0.03l0.83 -0.04c0.77,-0.08 1.6,-0.11 2.33,-0.19 0.14,-0.02 0.27,-0 0.4,-0.01 0.12,-0.01 0.25,-0.05 0.39,-0.06 0.29,-0.02 1.09,-0.07 1.32,-0.14 0.13,-0.04 0.03,0.05 0.12,-0.1 -0.37,0 -0.5,0.02 -0.81,0.06 -0.07,0.01 -0.1,0.01 -0.17,0.01 -0.32,0.03 0.01,0.05 -0.61,0.07 -0.16,0.01 -0.24,0.05 -0.35,0.06 -0.16,0.02 -0.27,-0.01 -0.42,0.03 -0.45,0.11 -1.14,0.07 -1.6,0.13 -0.31,0.04 -0.46,0.06 -0.81,0.05 -0.31,-0 -0.53,0.05 -0.8,0.07 -0.27,0.02 -0.63,0 -0.91,0 -0.19,0 -0.23,0.02 -0.38,0.03l-0.87 0c-0.2,-0 -0.22,-0.03 -0.41,-0.04 -0.48,-0.01 -0.79,0.01 -1.27,-0.05 -0.16,-0.02 -0.29,-0 -0.44,-0.01 -0.17,-0.01 -0.18,-0.06 -0.34,-0.06 -0.31,-0.01 -0.56,-0.09 -0.87,-0.14 -0.49,-0.09 -1.01,-0.27 -1.36,-0.59 -0.04,-0.04 -0.06,-0.05 -0.09,-0.09l-0.08 -0.13c-0.31,-0.68 0.52,-1.34 1.05,-1.66 0.54,-0.32 1.09,-0.63 1.69,-0.85 0.31,-0.11 0.6,-0.26 0.93,-0.36 0.12,-0.04 0.22,-0.06 0.34,-0.1l2.78 -0.68c1.2,-0.21 2.58,-0.35 3.77,-0.1 0.28,0.06 0.38,0.05 0.6,0.18 0.04,0.02 0.08,0.04 0.12,0.07l0.1 0.05c0.12,0.05 0.19,0.13 0.32,0.16l0 0.17c-0.2,0.05 -0.83,0.52 -1.3,0.75l-1.83 0.93c-0.08,0.05 -0.14,0.07 -0.17,0.15 0.11,0 0.23,0.01 0.33,-0.01 0.15,-0.03 0.08,-0.06 0.31,-0.06 -0.01,0.16 -0.03,0.1 -0.13,0.19l-0.08 0.07c-0.08,0.06 0.04,0.04 -0.14,0.05 -0.01,0.15 -0.07,0.12 -0.18,0.21 -0.08,0.07 -0.15,0.12 -0.22,0.18 -0.28,0.27 -0.57,0.47 -0.86,0.74 -0.13,0.12 -0.36,0.26 -0.41,0.42 0.41,0 0.66,-0.15 1.02,-0.31l2.34 -1.01c0.21,-0.1 0.24,-0.16 0.54,-0.16 -0.01,0.14 -0.04,0.11 -0.13,0.2l-0.42 0.41c-0.01,0.01 -0.01,0.01 -0.02,0.02l-0.15 0.17c-0.07,0.07 -0.04,0 -0.12,0.1 0.44,0.09 1.24,-0.32 1.7,-0.49l2.17 -0.86c-0.49,0 -0.58,0.17 -0.87,0.17 0.03,0.07 0.05,0.06 0.11,0.1 -0.54,0 -0.22,0 -0.83,0.21l-0.36 0.12c-0.01,0 -0.02,0.01 -0.02,0.01 -0.01,0 -0.02,0.01 -0.03,0.01 -0.01,0 -0.02,0.01 -0.03,0.01 -0.15,0.05 0.13,-0.03 -0.06,0.02 -0.08,0.02 -0.13,0.03 -0.23,0.03 0.01,-0.12 0.25,-0.28 0.44,-0.47 0.07,-0.07 0.04,-0.03 0.1,-0.08 0.05,-0.05 0.15,-0.16 0.15,-0.24 0,-0.15 -0.03,-0.07 -0.07,-0.09 -0.35,-0.17 -0.78,0.01 -1.13,0.1 -0.15,0.04 -0.17,0.06 -0.3,0.11 -0.27,0.1 -0.6,0.32 -0.89,0.33l0 -0.1c0.17,-0.04 1.33,-0.86 1.5,-0.98 0.05,-0.03 0.06,-0.04 0.11,-0.07 0.69,-0.46 0.92,-0.44 1.53,-0.78l0.5 -0.27c0.39,-0.27 0.11,-0.33 -0.18,-0.4 -0.29,-0.06 -0.67,0.08 -0.96,0.08 -0.05,-0.07 -0.1,-0.14 -0.15,-0.21 -0.11,-0.12 -0.31,-0.23 -0.47,-0.29l-0.62 -0.16c-1,-0.16 -1.04,-0.13 -2.09,-0.13 -0.33,0 -0.52,0.06 -0.8,0.07 -0.27,0.01 -0.36,0 -0.62,0.05l-0.96 0.13c-0.27,0.05 -0.49,0.08 -0.76,0.14l-3.04 0.86c-0.04,0.01 -0.14,0.06 -0.16,0.06l-0.78 0.32c-0.22,0.07 -0.36,0.18 -0.57,0.28 -0.39,0.17 -0.74,0.41 -1.08,0.64l-0.26 0.21c-0.36,0.34 -0.52,0.32 -0.81,0.89 -0.06,0.11 -0.1,0.18 -0.1,0.32z"/>
   <path class="fil1" d="M18.69 5.24l0.31 0c0.02,-0.19 -0.05,-0.04 0.11,-0.14 0.46,-0.3 0.33,-0.26 0.99,-0.62 0.69,-0.37 1.61,-0.48 2.39,-0.28 0.26,0.06 2.05,0.54 2.13,0.7 0.16,0.29 -0.85,-0.16 -0.97,-0.19l-0.53 -0.17c-0.44,-0.13 -0.91,-0.26 -1.38,-0.26 -0.74,0 -1.04,0.14 -1.53,0.37 -0.23,0.11 -0.37,0.21 -0.58,0.33 -0.37,0.21 -0.31,0.3 -0.62,0.3l0 0.17c0.04,-0.04 0.04,-0.05 0.08,-0.1 0.14,0.08 0.19,0.09 0.38,0.13 0.31,0.07 0.08,-0.23 0.56,-0.23 0.07,0.09 0.12,0.08 0.1,0.2 -0.01,0.08 -0.47,0.56 -0.57,0.66 -0.28,0.29 -0.25,0.29 -0.59,0.28l-0.04 -0.14c-0.18,0.01 -0.25,0.05 -0.27,0.21 0.64,0 0.56,0.05 0.85,0.06 0.13,0 0.15,-0.05 0.31,-0.1 0.33,-0.11 0.74,-0.13 1.1,-0.17 0.32,-0.04 0.48,-0.11 0.74,0.01 -0.01,0.28 -0.18,0.25 -0.48,0.29 -0.13,0.02 -0.25,0.01 -0.37,0.04 -0.17,0.04 -0.11,0.05 -0.33,0.05 0.03,0.02 0.02,0.02 0.07,0.04 0.18,0.09 0.44,0.1 0.83,0.28 0.46,0.21 0.73,0.34 1.16,0.6 0.13,0.08 0.24,0.14 0.36,0.22 0.76,0.47 1.05,0.96 1.79,0.58l0.51 -0.37c0.33,-0.3 0.36,-0.2 0.4,-0.46l0.14 -0.7c0.02,-0.11 0.02,-0.17 0.03,-0.25 0.02,-0.11 0.04,-0.13 0.05,-0.23 -0.23,-0.05 -0.76,0.03 -1.16,0.04 -0.07,0 -0.04,-0 -0.08,-0 -0.37,-0.01 -0.12,0.09 -0.44,0.09 -0.01,0 -0.02,-0 -0.03,-0 -0.23,-0.01 -0.19,-0.05 -0.43,-0.03 -0.58,0.05 -0.41,0.01 -0.72,-0.06 0,-0.53 0.82,-0.24 1.14,-0.41l0.16 -0.16c0.18,-0.26 0.7,-0.91 0.7,-1.16 -0.21,-0.04 -0.65,-0.33 -1.09,-0.46l-0.59 -0.19c-0.58,-0.12 -1.09,-0.16 -1.7,-0.15 -0.58,0.01 -1.77,0.22 -2.27,0.59l-0.29 0.22c-0.07,0.05 -0.08,0.06 -0.14,0.11 -0.14,0.14 -0.11,0.2 -0.26,0.25l0 0.1c0.22,-0.02 0.17,-0.11 0.3,0.07 -0.12,-0 -0.14,-0.02 -0.24,-0.04l-0.03 0.08z"/>
   <path class="fil1" d="M4.65 16.44c-0.07,0.29 -0.16,0.57 -0.04,0.97 0.03,0.11 0.08,0.18 0.11,0.29l0.32 0c0.05,-0.29 -0.24,-0.4 -0.07,-1.02 0.08,-0.29 0.33,-0.49 0.6,-0.63 0.13,-0.06 0.36,-0.13 0.53,-0.14 0.46,-0.02 1.33,0.04 1.79,0.14 -0.02,0.2 -0.11,0.16 -0.45,0.1 -0.18,-0.03 -0.36,-0.01 -0.56,-0.04 -0.49,-0.06 -1.19,-0.09 -1.5,0.31 -0.09,0.12 -0.15,0.22 -0.19,0.38 -0.07,0.35 0.03,0.64 0.2,0.87l-0.07 0.04c0.92,-0.07 0.8,0 1.52,0l2.35 0.03c0.53,-0 0.4,-0.03 0.64,0.14 0.23,0.16 0.41,0.03 0.66,0.13 0.16,0.06 0.05,0.05 0.29,0.09 0.13,0.02 0.18,0.02 0.32,-0.01 0.06,-0.24 0.08,-0.32 0.36,-0.34 0.01,-0 0.02,-0 0.03,-0 0.2,-0.01 0.19,0.02 0.37,0.03 0.62,0.03 1.25,-0.03 2.05,0.03 -0.05,-0.17 -0.55,-0.33 -0.73,-0.4l-1.67 -0.62c-0.11,-0.04 -0.16,-0.06 -0.27,-0.1l-1.7 -0.56c-0.36,-0.13 -0.8,-0.22 -1.22,-0.3 -1.01,-0.2 -2.68,-0.35 -3.45,0.42l-0.16 0.17c-0,-0.01 -0.01,0.01 -0.02,0.02z"/>
   <path class="fil2" d="M26.28 4.65c0.01,0.25 -0.1,0.09 -0.08,0.29 -0.06,0.17 -0,0.15 -0.09,0.26l0 0.08c-0.01,-0 -0.24,-0.16 -0.46,0.1 0.18,0.09 0.19,0.07 0.39,0l0.01 -0.05c0.08,0.12 0.07,0.22 0.02,0.41 -0.04,0.19 -0.17,0.18 -0.36,0.2 -0.39,0.04 -0.73,0.08 -1.14,0.08l0.07 -0.14c0.05,-0.08 0.05,-0.07 0.11,-0.14 0.09,-0.11 0.14,-0.21 0.23,-0.31l0.44 -0.6c0.05,-0.14 0.04,-0.14 0.17,-0.2 0.04,-0.04 0.06,-0.06 0.1,-0.11 0.03,-0.04 0.04,-0.05 0.07,-0.1 0.06,-0.1 0.14,-0.16 0.22,-0.26 0.05,-0.06 0.04,-0.06 0.09,-0.12 0.09,-0.13 -0.04,-0.03 0.11,-0.11 0.04,-0.07 0.05,-0.09 0.1,-0.18 0.06,-0.12 0.06,-0.07 0.1,-0.15 0,0.38 -0.12,0.69 -0.11,1.05zm2.97 -1.42c-0.13,0.27 -0.16,0.35 -0.36,0.45l-0.1 0.05c0.03,0.16 0.01,0.09 0.11,0.19 -0.07,0.1 -0.06,0.16 -0.13,0.28 -0.22,0.4 -0.13,0.25 -0.44,0.66 -0.12,0.07 -0.08,0.14 -0.3,0.11l-0.02 -0.08c0.04,-0.12 0.17,-0.14 0.26,-0.23 0.12,-0.11 0.15,-0.13 0.15,-0.35 -0.34,-0.07 -0.6,0.1 -0.76,0.35l-0.05 0.07c-0,-0.01 -0.01,0.01 -0.02,0.02 -0.05,0.04 -0.05,0.03 -0.12,0.07 -0.12,0.07 -0.06,0.03 -0.11,-0.02 0.01,-0.07 0.63,-0.63 0.42,-0.83 -0.04,-0.04 -0.07,-0.05 -0.17,-0.04 -0.15,0.01 -0.05,-0 -0.13,0.04l-0.42 0.55 -0.01 0.19 -0.05 0.16c-0,0.01 -0.01,0.02 -0.01,0.03 -0,0.01 -0.01,0.02 -0.01,0.03 -0.03,0.09 -0.02,0.08 -0.07,0.16 -0.06,0.05 0.08,0.04 -0.08,0.04 -0.11,-0.07 -0.05,-0.06 -0.2,-0.03 -0.07,0.09 -0.07,0.09 -0.01,0.19 0.01,0 0.02,-0.01 0.03,0 0,0 0.14,0.01 0.16,-0.11 0.07,0.23 -0.13,0.38 -0.04,0.59 0.3,-0.04 0.25,-0.28 0.66,-0.53l0.08 -0.07c0.04,-0.04 0.02,-0.02 0.05,-0.06 0.05,-0.05 0.02,-0.08 0.12,-0.1 0.14,-0.03 0.15,0.1 -0.1,0.15 0.05,0.16 0.02,0.07 0.34,0.18 0.26,0.09 0.07,0.15 0.32,0.17l0.02 -0.22 -0.02 -0.08 -0.3 0c0.05,-0.1 0.04,-0.05 0.16,-0.09 0.19,-0.07 0.01,0.02 0.16,-0.12 0.08,-0.06 0.13,-0.13 0.28,-0.06 -0.01,0.09 -0.02,0.11 -0.07,0.16 -0.03,0.05 -0.01,0.03 -0.06,0.09 -0.01,0.24 -0.03,0.09 -0.09,0.24 -0.03,0.08 -0.02,0.2 -0.07,0.26 -0.32,0.1 -0.95,0.09 -1.32,0.13 -0.54,0.05 -0.64,0.14 -0.55,-0.15 0.04,-0.15 0.02,-0.21 0.11,-0.35 0.13,-0.2 -0.01,-0.47 0.1,-0.68 0.03,-0.18 0.13,-0.31 0.1,-0.51 0.08,-0.23 0.08,-0.42 0.18,-0.65 0.1,-0.23 0.11,-0.38 0.17,-0.61 0.04,-0.19 0.21,-0.54 -0.1,-0.58 -0.14,-0.02 -0.26,0.04 -0.31,0.12 -0.09,0.14 -0.02,0.14 0.03,0.26 -0.09,-0.13 0.02,-0.02 -0.11,-0.07 -0.08,0.14 -0.07,0.09 -0.16,0.2 -0.05,0.07 -0.08,0.14 -0.13,0.22 -0.03,0.13 -0.01,0.08 -0.11,0.15 -0.06,-0.12 -0.01,-0.16 -0.08,-0.28 -0.14,0.01 -0.19,0.03 -0.19,0.17 0.01,0.23 0.19,0.18 0.19,0.18l-0.06 0.16c-0,0.01 -0.01,0.03 -0.01,0.02 -0,-0.01 -0.01,0.02 -0.02,0.02l-0.1 0.18c-0,0.01 -0.01,0.02 -0.01,0.02 -0,0.01 -0.01,0.02 -0.01,0.02 -0.17,0.3 -0.46,0.58 -0.52,0.92 -0.04,0.01 0.01,-0 -0.06,0.04 -0.06,0.04 0,0.01 -0.06,0.04 -0.06,0.09 -0.11,0.13 -0.18,0.25 -0.06,0.09 -0.03,0.05 -0.09,0.12l-0.47 0.71c-0.19,0.29 -0.12,0.29 -0.57,0.36 -0.21,0.03 -0.55,-0.03 -0.75,0.1l-0.06 0.05c0.04,0.08 0.04,0.02 0.08,0.14 0.28,0 0.49,-0.07 0.7,-0.07 0.28,0 0.13,0.08 0.3,0.07 0.14,-0.01 0.02,-0.07 0.66,-0.08 0.12,-0 0.15,-0.05 0.33,-0.06 0.13,-0.01 0.29,0 0.42,0l0.36 -0c0,0.01 0,0.01 0,0.02 0,0.28 -0.05,0.12 -0.08,0.62 -0.02,0.31 -0.14,0.43 -0.07,0.71 0.22,-0.04 0.1,0.01 0.17,-0.15l0.12 -0.62c0.04,-0.16 0.13,-0.45 0.14,-0.63l2.54 -0.14c0,0.32 0.09,0.17 0.18,0.42 0.05,0.13 0.11,0.38 0.28,0.37 0.23,-0.01 0.04,-0.29 -0.01,-0.37 -0.09,-0.14 -0.07,-0.19 -0.17,-0.3 -0.05,-0.05 -0.03,-0 -0.09,-0.1l0.03 -0.04c0.1,-0.01 0.16,-0.01 0.22,-0.03 0.11,-0.04 0.12,-0.06 0.15,-0.2 0.04,-0.01 0.01,0.09 0.05,-0.08 -0.09,-0.04 -0.24,-0.09 -0.33,-0.16 0.02,-0.11 0.01,-0.07 0.08,-0.13l0.03 -0.09c0,-0.01 0.01,-0.02 0.01,-0.02l-0.08 0c-0.03,0.05 -0.04,0.07 -0.08,0.1 -0.01,0.01 -0.02,0 -0.03,0.01 -0.02,0.05 -0.02,-0.02 -0.12,0.07 -0.13,0.12 0.04,0.1 -0.26,0.11 -0.07,-0.11 -0.05,-0.16 0.04,-0.28 -0.02,-0.14 -0,-0.2 0.03,-0.28 0.07,-0.09 0.05,-0.05 0.07,-0.07 0.01,-0.01 0.01,-0.02 0.02,-0.02l0.11 -0.19c0.09,-0.19 0.47,-0.97 0.62,-1.04 0.13,-0.11 0.25,-0.08 0.46,-0.08 -0.05,0.04 0.02,-0 -0.07,0.04 -0.14,0.07 -0.14,0.04 -0.23,0.17 0.58,0 0.56,-0.18 0.61,-0.23 0.12,-0.1 1.56,-0.36 1.83,-0.39 0.24,-0.03 0.28,-0.02 0.41,0.07 0.22,0.14 0.35,0.15 0.54,0.33 0.35,0.32 0.36,0.34 0.62,0.68 0.07,0.1 0.12,0.14 0.19,0.24 0.07,0.09 0.11,0.18 0.18,0.25 0.11,0.13 0.12,0.15 0.29,0.11 -0,-0.17 -0.04,-0.19 -0.12,-0.31 -0.06,-0.09 -0.11,-0.16 -0.18,-0.25 -0.09,-0.12 -0.08,-0.13 -0.19,-0.24 -0.14,-0.14 -0.14,-0.22 -0.41,-0.46l-0.27 -0.24c-0.21,-0.17 -0.39,-0.23 -0.69,-0.23 0.26,-0.16 0.43,-0.03 0.62,-0.29 -0.02,-0.11 0,-0.07 -0.08,-0.12 -0.19,0 -0.36,-0.01 -0.52,0.02l-2 0.46c-0.22,0.05 -0.6,0.16 -0.78,0.16l-0.05 -0.36 -0.2 0c-0.07,-0.12 0.01,-0.04 -0.13,-0.26 -0.25,-0.38 -0.54,-0.78 -0.98,-1.01 -0.66,-0.36 -1.67,-0.05 -2.3,0.21 -0.08,0.03 -0.2,0.09 -0.28,0.13 -0.31,0.13 -0.39,0.12 -0.49,0.28 0.11,0.07 0.11,0.08 0.29,0.02 0.13,-0.04 0.43,-0.21 0.81,-0.34 0.21,-0.07 0.36,-0.15 0.57,-0.2 0.71,-0.16 1.17,-0.14 1.66,0.39 0.26,0.28 0.3,0.36 0.48,0.63 0.06,0.1 0.08,0.12 0.21,0.15 -0.01,0.15 0.03,0.07 -0.09,0.14z"/>
   <path class="fil2" d="M16.29 5.88c-0.02,0.12 -0.16,0.27 -0.23,0.38 -0.05,0.07 -0.22,0.31 -0.27,0.26 -0.05,-0.05 0.15,-0.29 0.21,-0.36 0.06,-0.08 0.21,-0.24 0.3,-0.28zm-3.99 -1.69c-0.07,0.01 -0.43,0.13 -0.5,0.16 -0.15,0.05 -0.4,0.14 -0.59,0.14 -0.04,0.05 -0.01,0.02 -0.08,0.07l-0.46 0.24c-0.1,0.05 -0.07,0.05 -0.16,0.1 -0.22,0.27 -0.27,-0.31 -1.05,0.64 -0.23,0.27 0.1,0.3 0.22,0.13 0.08,-0.12 0.02,-0.13 0.16,-0.21 0.1,-0.11 0.26,-0.31 0.39,-0.33 -0.09,0.17 -0.44,0.37 -0.34,0.8 0.11,-0.03 0.09,-0 0.17,-0.12 0.15,-0.2 0.06,-0.3 0.64,-0.62 0.16,-0.09 0.16,-0.1 0.34,-0.17 0.29,-0.23 0.69,0.17 0.8,-0.18l-0.34 -0.07c0.14,-0.01 0.61,-0.19 0.72,-0.24 -0.04,-0.09 0.02,-0.01 -0.15,-0.1 0.23,0 0.13,0.02 0.25,0.05 0.1,0.03 0.14,0.02 0.25,0.02 0.18,-0.06 0.35,-0.08 0.55,-0.09l0.37 -0.08c0.15,-0.07 0.11,-0.04 0.27,-0 0.23,0.05 0.59,-0 0.66,0.23 -0.21,0 -0.2,0 -0.33,0.08 -0.03,0.02 -0.92,0.53 -0.56,0.51 0.15,-0.01 0.34,-0.16 0.47,-0.25 0.43,-0.28 0.44,-0.19 0.46,-0.35 0.36,0.01 0.54,0.4 0.49,0.65l-0.03 0.08c-0,-0 -0.01,0.02 -0.01,0.02 -0.06,0.12 -0.12,0.24 -0.2,0.33 -0.15,0.18 -0.45,0.42 -0.64,0.55 -0.01,0 -0.05,0.03 -0.07,0.04 -0.09,0.05 -0.08,0.02 -0.18,0.09 -0.1,0.05 -0.05,0.03 -0.14,0.08l-0.45 0.15c-0.09,0.03 -0.05,0.04 -0.14,0.08 0.38,0.11 0.1,-0.05 0.47,-0.01 0.07,-0.11 0.54,-0.3 0.72,-0.41 0.09,-0.05 0.07,-0.05 0.15,-0.1 0.08,-0.06 0.19,-0.16 0.25,-0.19 0,0.35 -0.32,0.78 -0.19,1.07 0.11,0.1 0.4,-0.05 0.53,-0.2 0.06,-0.07 0.08,-0.08 0.11,-0.18l0.15 0c0.03,0.1 -0,0.08 0.13,0.09 0.16,0.02 -0.04,-0.05 0.19,0.01 0.05,0.01 -0,0.06 0.18,0.03 0.17,-0.03 0.42,-0.36 0.51,-0.48 0.06,-0.08 0.04,-0.09 0.16,-0.13 -0.02,0.46 -0.16,0.1 -0.06,0.65 0.01,0.07 -0,0.12 0.02,0.21 0.27,-0.07 0.04,-0.12 0.25,-0.22 0.05,-0.08 0.08,-0.1 0.14,-0.14 0.08,-0.06 0.11,-0.1 0.2,-0.13 0.14,0.17 0.08,0.35 0.51,-0.05 0.12,-0.11 0.03,-0.11 0.17,-0.18l0.03 0.06c0.02,0.19 -0.07,0.08 -0.1,0.32 0.23,-0.03 -0.04,0.04 0.31,-0.22 0.1,-0.07 0.16,-0.18 0.25,-0.28 0.05,-0.05 0.1,-0.09 0.15,-0.14 0.11,-0.1 0.05,-0.08 0.22,-0.11 -0.04,0.18 -0.1,0.29 -0.12,0.43l-0.01 0.08 0.17 -0.02c0.02,-0.12 0.3,-0.34 0.42,-0.35l0.02 0.09c0.02,0.15 -0.04,0.09 0.11,0.22 0.04,-0.03 0.08,-0.04 0.12,-0.08 0.01,-0.01 0.04,-0.04 0.06,-0.05l0.67 -0.71c0.11,-0.11 0.09,-0.05 0.04,-0.09l-0.19 -0.07c-0.04,0.13 -0.15,0.24 -0.23,0.35 -0.11,-0.03 -0.05,-0.02 -0.12,-0.06 -0.17,-0.11 -0.11,-0.1 -0.43,-0.04 -0.06,-0.07 -0.05,0.07 -0.04,-0.12l0 -0.17c0.31,0 0.25,-0.09 0.62,-0.3 0.21,-0.12 0.35,-0.23 0.58,-0.33 0.5,-0.23 0.79,-0.37 1.53,-0.37 0.47,-0 0.95,0.13 1.38,0.26l0.53 0.17c0.12,0.04 1.13,0.48 0.97,0.19 -0.08,-0.15 -1.87,-0.63 -2.13,-0.7 -0.78,-0.2 -1.7,-0.08 -2.39,0.28 -0.67,0.35 -0.53,0.31 -0.99,0.62 -0.16,0.1 -0.09,-0.04 -0.11,0.14l-0.31 0c-0.19,0.07 -0.1,0.01 -0.24,0.15 -0.18,0.03 -0.24,0.01 -0.35,0.17 -0.21,0.29 -0.2,0.42 -0.73,0.73 0.04,-0.06 0.05,-0.1 0.09,-0.19 0.04,-0.1 0.04,-0.1 0.07,-0.22 0.03,-0.1 0.22,-0.33 0.05,-0.4 -0.51,0 -0.18,0.14 -0.49,0.53 -0.1,0.12 -0.42,0.45 -0.45,0.56 -0,-0.21 0.07,-0.32 0.13,-0.48 0.06,-0.17 0.12,-0.31 0.19,-0.48 0.07,-0.16 0.13,-0.32 0.21,-0.46 0.15,-0.28 0.09,-0.31 0.17,-0.44 0.03,-0.08 0.04,-0.11 0.08,-0.18 0.04,-0.09 0.04,-0.04 0.07,-0.14l-0.02 -0.17 -0.18 0c-0.13,0.12 -0.06,0.03 -0.15,0.2 -0.27,0.39 -0.3,0.5 -0.3,0.5 -0,-0.01 -0.01,0.02 -0.01,0.03 -0.03,0.15 -0.24,0.45 -0.28,0.57 -0.18,0 -0.3,0.03 -0.4,0.12 -0.06,0.05 -0.18,0.19 -0.22,0.25l-0.44 0.56c0,-0.13 0.05,-0.2 0.1,-0.29 0,-0.16 0.05,-0.28 -0.08,-0.32 -0.13,-0.04 -0.18,0.05 -0.27,0.1 -0.03,0.14 -0.17,0.35 -0.24,0.47 -0.05,0.1 -0.19,0.33 -0.3,0.37 0,-0.11 -0.01,-0.07 0.03,-0.16l0.07 -0.15c0.05,-0.1 0.09,-0.18 0.15,-0.28 0.11,-0.2 0.15,-0.16 0.17,-0.27 0.04,-0.19 -0.06,-0.22 -0.22,-0.22 0.02,-0.12 -0,-0.02 0.06,-0.12 0.38,-0.61 0.11,-0.78 0.06,-1.09 -0.11,-0.05 -0.04,0.09 -0.09,-0.12 0.33,0.06 0.3,-0.02 0.61,0l0.48 0.11c0.46,0.11 0.54,0.3 0.85,0.3 -0.01,-0.25 -0.14,-0.21 -0.35,-0.3 -0.5,-0.22 -0.83,-0.31 -1.36,-0.26 -0.2,0.02 -0.18,-0.04 -0.22,0.11 -0.32,-0.02 -0.2,-0.16 -0.83,-0.25l-0.12 -0.03 -0.08 0c-0.22,0 -0.25,-0.03 -0.42,-0.05 -0.22,-0.02 -0.97,0.07 -1.17,0.17z"/>
   <path class="fil1" d="M37.45 9.36c-0.11,-0.15 -0.94,-0.45 -1.13,-0.52 -0.2,-0.08 -0.25,-0.1 -0.54,-0.13 -0.12,-0.02 -0.31,-0.02 -0.37,-0.02 -0.25,-0.01 -0.6,-0.05 -0.83,0.05 0,0.15 0.04,0.16 0.04,0.34 0,0.12 -0.01,0.26 -0,0.38l0.04 0.69c0.19,0.08 0.32,0.07 0.54,0.13 0.16,0.04 0.1,0.03 0.29,0.05 0.45,0.04 0.1,0.49 0.57,1.24 0.2,0.31 0.15,0.22 0.43,0.48 0.15,0.14 0.17,0.15 0.38,0.24 0.29,0.12 0.76,0.16 1.06,-0.02 0.48,-0.28 0.19,-1.04 0.11,-1.46 -0.01,-0.08 -0.01,-0.07 -0.03,-0.15l-0.4 -1.02c-0,-0.01 -0.01,-0.02 -0.01,-0.02 -0,-0.01 -0.01,-0.02 -0.01,-0.02l-0.13 -0.23z"/>
   <path class="fil1" d="M10.47 14.91l-0.08 0c-0.03,0.13 -0.2,0.35 -0.28,0.48 -0.19,0.29 -0.27,0.27 -0.29,0.43 0.32,0.07 2.16,0.71 2.49,0.85 0.3,0.13 0.78,0.27 1.19,0.47 0.12,0.06 0.22,0.12 0.37,0.18 1.2,0.54 0.14,0.51 1.72,0.51 0.57,0 0.59,-0.08 0.84,0.24 0.2,0 0.22,0 0.38,0.03 0.12,-0.17 0.08,-0.25 0.38,-0.28 -0.08,-0.15 -0.1,-0.3 -0.14,-0.5 -0.04,-0.24 -0.01,-0.32 -0.2,-0.4l-0.46 -0.17c-0.15,-0.06 -0.28,-0.12 -0.44,-0.19 -0.17,-0.07 -0.27,-0.14 -0.45,-0.22 -0.16,-0.07 -0.26,-0.14 -0.4,-0.23 -0.13,-0.08 -0.25,-0.16 -0.38,-0.24 -0.55,-0.32 -0.12,0.11 -1.56,0.11 -0.66,0 -1.05,-0.09 -1.58,-0.33 -0.38,-0.17 -0.53,-0.27 -0.84,-0.52 -0.15,-0.13 -0.18,-0.08 -0.28,-0.24z"/>
   <path class="fil1" d="M13.16 34.14c0.07,0 0.71,0.2 1.18,-0.07l1.12 -0.75c0.01,-0 0.01,-0.01 0.02,-0.02l2.57 -1.74c0.49,-0.28 0.59,-0.37 1.17,-0.66 0.43,-0.22 1.68,-0.82 2.14,-0.82l0 0.1c-0.33,0.08 -0.73,0.39 -1.01,0.56 -0.13,0.08 -0.04,0.02 -0.15,0.11 -0.1,0.1 -0.18,0.15 0.02,0.19 0.17,0.03 0.4,0 0.57,0 0.31,0 0.55,-0.07 0.84,-0.14 0.56,-0.13 1.07,-0.33 1.6,-0.52l0.28 -0.12c0.01,-0 0.02,-0.01 0.02,-0.01l1.07 -0.41c0.12,-0.05 0.21,-0.06 0.25,-0.15 -0.34,-0.15 -1.25,0.37 -1.65,0.5 -0.1,0.03 -0.11,0.03 -0.19,0.07 -0.24,0.09 -0.35,0.16 -0.61,0.24 -0.21,0.06 -0.41,0.16 -0.62,0.19 -0.1,0.02 -0.92,0.3 -0.64,0.04 0.08,-0.07 0.09,-0.06 0.2,-0.1 0.46,-0.13 1.1,-0.46 1.56,-0.66 0.23,-0.1 0.56,-0.22 0.63,-0.46 -0.47,-0.23 -1.2,-0.1 -1.7,0.04 -0.4,0.11 -0.74,0.25 -1.1,0.42 -0.3,0.14 -0.27,0.22 -0.46,0.13 0.08,-0.14 0.23,-0.18 0.36,-0.29 0.3,-0.25 0.66,-0.43 0.98,-0.66 0.09,-0.07 0.14,-0.09 0.17,-0.19 -0.35,-0.18 -0.79,0.23 -1.06,0.38l-2.08 1.29c-0.39,0.22 -1,0.65 -1.34,0.82 -0.24,0.12 -0.53,0.32 -0.76,0.49 -0.09,0.07 -0.17,0.07 -0.29,0.15l-0.15 0.1c-0.01,0 -0.02,0.01 -0.02,0.01l-0.34 0.21c-0.46,0.32 -1.23,0.66 -1.63,1 -0.15,0.13 -0.56,0.34 -0.75,0.46 -0.04,0.02 -0.03,0.02 -0.07,0.04 -0.1,0.06 -0.12,0.08 -0.13,0.19z"/>
   <path class="fil1" d="M10.65 14.47c0.14,0.03 0.02,-0.01 0.14,0.06l0.41 0.32c0.3,0.22 0.48,0.39 0.89,0.57 0.23,0.1 0.7,0.23 0.97,0.17 0.16,-0.04 0.41,-0.04 0.77,-0.13 0.12,-0.03 0.12,-0.04 0.24,-0.05 -0.01,-0.15 -0.05,-0.13 -0.21,-0.33 -0.57,-0.68 -0.66,-1.04 -0.77,-1.89 -0.03,-0.21 0.02,-0.31 0.03,-0.48 0.01,-0.18 0.04,-0.26 0.04,-0.45 -0.09,-0.05 -0.17,-0.09 -0.26,-0.14 -0.12,-0.07 -0.63,-0.41 -0.69,-0.49 -0.15,0.03 -0.07,-0.01 -0.28,0.28l-0.46 0.61c-0.85,1.18 -0.56,0.13 -0.77,1.45 -0.03,0.18 -0.08,0.28 -0.05,0.5z"/>
   <path class="fil1" d="M9.37 7.76c-0.21,0 -0.06,-0.18 -0.01,-0.29l0.41 -0.63 0.48 -0.36c0.11,-0.05 0.93,-0.2 1.03,-0.05 0.04,0.07 0.02,0.03 0.02,0.11 -0.42,0.09 -0.73,-0.25 -1.38,0.47 -0.32,0.36 -0.39,0.74 -0.56,0.74zm4.17 -1.15l-0.15 0.11c-0.08,0.03 -0.08,0.03 -0.18,0.04 0,0.24 -0.1,0.57 -0.19,0.73 -0.16,-0.1 -0.12,-0.1 -0.19,-0.28 -0.04,-0.11 -0.1,-0.21 -0.15,-0.31l-0.79 0.02c-0.08,-0 -0.18,-0.02 -0.28,-0.02 -0.04,0.17 -0.07,0.11 -0.13,0.23l-0.12 0.24c-0.27,0.41 -0.07,0.34 -0.32,0.4 0.05,-0.08 0.07,-0.11 0.12,-0.2l0.05 -0.09c0.02,-0.07 0.02,-0.04 0.02,-0.13 -0.15,0.18 -0.11,0.3 -0.3,0.32 0.06,-0.11 0.08,-0.24 0.15,-0.38 0.27,-0.49 0.25,-0.69 0.29,-0.78 0.04,-0.1 0.13,-0.1 0.18,-0.33 -0.12,0.1 -0.07,0.16 -0.2,0.21l0.09 -0.24c0.04,-0.12 0.06,-0.12 -0.12,-0.14 -0.23,-0.02 -0.99,0.06 -1.21,0.12 -0.39,0.1 -0.14,0.09 -0.35,0.58 -0,0.01 -0.01,0.02 -0.01,0.02l-0.04 0.1c-0.03,0.06 0,0.01 -0.05,0.09 -0.49,0.75 -0.81,0.46 -0.81,1.06 0.42,0.26 0.51,0.32 0.98,0.49 0.67,0.26 1.58,0.09 2.07,-0.1 0.31,-0.12 2.21,-1.15 2.64,-1.19l-0.19 -0.14c0,-0.71 0,-0.34 0.11,-0.66 0.04,-0.14 -0.02,-0.08 0.08,-0.17 -0.32,0.01 -0.59,0.41 -1,0.41z"/>
   <path class="fil1" d="M28.16 30.92c0.03,-0.08 0,-0.03 0.07,-0.08l0.62 -0.37 1.87 -0.68c0.1,-0.03 0.13,-0.04 0.2,-0.06 0.17,-0.05 0.32,-0.01 0.43,0.01 -0.01,0 -0.02,0.01 -0.03,0.01l-1.02 0.49c-0.21,0.12 -1.02,0.45 -1.28,0.53 -0.07,0.02 -0.11,0.04 -0.19,0.07 -0.38,0.12 -0.34,0.15 -0.67,0.08zm2.96 0.24c-0.28,0 0.06,-0.23 0.12,-0.27 0.49,-0.35 0.94,-0.7 1.47,-1.01l1.15 -0.68c0.27,-0.14 0.49,-0.33 0.78,-0.47 0.41,-0.2 0.78,-0.47 1.18,-0.69 0.1,-0.05 0.13,-0.06 0.22,-0.11 0.3,-0.17 0.83,-0.39 0.9,-0.6 -0.07,-0.03 -0.35,-0.1 -0.46,-0.1 -0.81,0 -1.07,0.26 -1.66,0.63l-2.3 1.3c-0.03,0.01 -0.05,0.02 -0.08,0.04l-0.32 0.16c-0.11,0.04 -0.74,-0.11 -1.69,0.22l-1.91 0.89c-0.2,0.1 -0.26,0.15 -0.44,0.26 -0.15,0.1 -0.32,0.16 -0.33,0.35l0.49 0c0.34,-0.01 0.6,-0.14 0.9,-0.22 0.52,-0.14 1.04,-0.36 1.53,-0.57 0.09,-0.04 0.04,-0.02 0.07,-0.04 0.23,-0.12 0.55,-0.21 0.79,-0.32 0.07,-0.03 0.15,-0.08 0.2,-0.03 0.1,0.09 -0.36,0.34 -0.41,0.39 -0.01,0.01 -0.01,0.01 -0.02,0.02l-0.32 0.26c-0.01,0.01 -0.01,0.01 -0.02,0.02l-0.48 0.42c-0.06,0.06 -0.36,0.37 -0.35,0.46 0,0.05 0.03,0.1 0.13,0.1 0.4,0 0.19,0.01 0.39,-0.06 0.08,-0.03 0.09,-0.03 0.17,-0.05l0.82 -0.29c0.06,-0.02 0.1,-0.03 0.14,-0.04l0.32 -0.12c0.1,-0.04 0.06,-0.02 0.16,-0.06l0.45 -0.18c0.12,-0.05 0.19,-0.06 0.3,-0.11l1.85 -0.74c0.3,-0.14 0.52,-0.15 0.56,-0.28 -0.19,-0.04 -0.38,0.02 -0.58,0.09l-0.53 0.21c-0.22,0.1 -0.69,0.32 -0.91,0.38 -0.21,0.06 -0.4,0.17 -0.61,0.24l-1.26 0.48c-0.12,0.05 -0.3,0.15 -0.41,0.15z"/>
   <path class="fil3" d="M15.86 12.57c0.11,0.15 0.52,0.28 0.76,0.38 0.89,0.33 0.73,0.25 0.65,0.67 -0.02,0.11 -0,0.22 -0.01,0.34 -0.02,0.22 -0.12,0.32 -0.07,0.52 0.2,-0 0.4,-0.18 0.7,-0.37 0.92,-0.58 0.59,-0.44 1.89,0.05 0.18,0.07 0.2,0.11 0.45,0.11 -0.03,-0.35 -0.61,-0.79 -0.61,-1.14 0,-0.26 1.07,-0.57 1.1,-0.9 -0.35,0 -1.67,0.16 -1.86,0.07 -0.24,-0.11 -0.58,-0.97 -0.87,-1.04 -0.29,0.49 -0.09,1.1 -0.5,1.17 -0.14,0.02 -0.22,0.03 -0.38,0.04 -0.38,0 -0.9,0.08 -1.25,0.1z"/>
   <path class="fil3" d="M6.6 14.29c0,-0.37 -0.56,-0.94 -0.25,-1.16l0.84 -0.45c0.14,-0.08 0.14,-0.07 0.21,-0.19 -0.16,-0 -0.18,-0.03 -0.38,-0.04l-1.25 0c-0.13,-0.18 -0.21,-0.33 -0.31,-0.55 -0.12,-0.27 -0.13,-0.44 -0.34,-0.49 -0.04,0.14 -0.05,0.05 -0.14,0.25 -0.05,0.11 -0.07,0.14 -0.1,0.25 -0.06,0.17 -0.11,0.43 -0.25,0.5 -0.14,0.07 -0.55,0.03 -0.76,0.03l-0.76 0.03 0 0.1c0.11,0.03 0.13,0.06 0.22,0.11 0.88,0.51 1.05,0.26 0.7,1.14 -0.31,0.77 -0.03,0.46 0.51,0.19 0.09,-0.04 0.14,-0.06 0.23,-0.1 0.38,-0.19 0.4,-0.32 0.86,-0.04 0.07,0.04 0.97,0.59 0.97,0.39z"/>
   <path class="fil4" d="M20.03 30.96c0,-0.17 0.46,-0.39 0.57,-0.52 -0.16,0.01 -0.06,0.01 -0.15,0.03 -0.05,0.01 -0.05,0.01 -0.12,0.03l-0.7 0.29c-0.15,0.08 -0.29,0.16 -0.43,0.23 -0.15,0.08 -0.3,0.12 -0.44,0.22 -0.15,0.1 -0.25,0.16 -0.42,0.24 -0.3,0.16 -0.25,0.18 -0.39,0.26 -0.49,0.29 -0.39,0.26 -0.76,0.52l-1.96 1.29c-0.14,0.1 -0.25,0.17 -0.38,0.27 -0.08,0.06 -0.12,0.08 -0.2,0.13 -0.08,0.05 -0.11,0.09 -0.19,0.14 -0.19,0.11 -0.36,0.09 -0.42,0.21 0.1,0.05 -0.03,0.03 0.11,0.03 0.42,0 0.56,0.03 0.9,-0.05 0.48,-0.11 0.26,0 0.77,-0.33l0.95 -0.62c0.08,-0.04 0.08,-0.06 0.15,-0.11 0.21,-0.15 0.43,-0.26 0.64,-0.42 0.22,-0.17 0.46,-0.25 0.71,-0.39 0.4,-0.24 0.23,-0.17 0.58,-0.47l0.65 -0.41c0.2,-0.13 0.43,-0.31 0.73,-0.34l-0.12 -0.09c-0.06,-0.06 -0.07,-0.03 -0.07,-0.15z"/>
   <path class="fil2" d="M6.1 8.76c-0.56,0 -2.2,0.39 -2.39,0.62 0.19,0.12 0.3,0.01 0.73,-0.13 1.33,-0.45 2.1,-0.41 3.34,-0.01l0.63 0.26c0.78,0.35 2.4,1.2 3.24,1.2 0.65,0 1.15,-0.13 1.66,-0.49l2.2 -1.28c0.15,-0.06 0.22,-0.09 0.39,-0.13 0.14,-0.04 0.28,-0.07 0.44,-0.12 1.31,-0.39 2.66,-0.38 3.96,0.02 0.11,0.03 0.22,0.07 0.34,0.11 0.33,0.11 1.08,0.32 1.35,0.46 1.16,0.59 1.85,0.94 3.28,0.52 0.16,-0.05 0.64,-0.18 0.75,-0.26 0.11,-0.08 0.14,-0.14 -0.05,-0.14 -0.23,0 -0.93,0.41 -1.94,0.41 -0.57,0 -1.04,-0.25 -1.43,-0.43 -0.78,-0.35 -0.31,-0.2 -1.29,-0.56 -0.53,-0.19 -1.08,-0.3 -1.63,-0.45 -0.12,-0.03 -0.06,-0.03 -0.18,-0.05l-0.42 -0.07c-0.85,-0.1 -1.93,0 -2.69,0.24 -0.87,0.27 -0.52,0.05 -1.51,0.53 -0.46,0.23 -0.83,0.46 -1.26,0.72 -0.72,0.44 -0.93,0.85 -2.17,0.79 -0.17,-0.01 -0.25,-0.04 -0.39,-0.09 -0.44,-0.16 -0.57,-0.15 -1.1,-0.42 -0.24,-0.12 -0.48,-0.21 -0.71,-0.32 -1,-0.46 -1.97,-0.93 -3.15,-0.93z"/>
   <path class="fil1" d="M33.92 31.1c0.32,0.19 0.66,0.08 1.02,-0 0.05,-0.01 0.06,-0.01 0.12,-0.03l0.75 -0.25c0.04,-0.02 0.08,-0.03 0.14,-0.05 0.39,-0.13 0.16,0.16 0.4,0.16 0.32,0 0.29,0.02 0.54,-0.06 0.45,-0.15 1.32,-0.56 1.6,-0.65 0.01,-0 0.02,-0.01 0.03,-0.01 0.04,-0.01 0.08,-0.02 0.12,-0.03l1.32 -0.49c0.16,-0.05 0.15,-0.01 0.19,-0.14 -0.75,0.02 -0.35,0.05 -0.79,0.14 -0.38,0.08 -0.45,0.16 -0.77,0.27 -0.06,0.02 -0.08,0.03 -0.11,0.04 -0.01,0 -0.02,0.01 -0.03,0.01l-0.23 0.1c-0.13,0.05 -0.11,0.07 -0.26,0 0.03,-0.11 0.08,-0.08 0.15,-0.21 -0.3,-0.18 -0.89,-0.08 -1.18,0.07 -0.47,0.25 -0.87,0.55 -1.38,0.74l-0.2 0.09c-0.01,0 -0.02,0.01 -0.03,0.01 -0.22,0.09 -1.16,0.43 -0.48,-0.09 0.26,-0.2 0.87,-0.47 1.2,-0.6 0.7,-0.29 1.17,-0.43 1.91,-0.61 0.67,-0.16 1.23,-0.11 1.45,-0.4 -0.09,-0.1 -0.14,-0.13 -0.32,-0.16 -0.26,-0.04 -0.63,0.05 -0.86,0.08l-0.43 0.09c-0.12,0.03 0.02,-0 -0.09,0.03l-1.68 0.65c-0.12,0.05 -0.23,0.08 -0.35,0.13 -0.17,0.08 -0.17,0.11 -0.29,0.18 -0.1,0.06 -0.24,0.12 -0.34,0.17l-0.6 0.36c-0.12,0.07 -0.19,0.12 -0.28,0.19 -0.11,0.09 -0.19,0.15 -0.23,0.28z"/>
   <path class="fil1" d="M23.56 31.16c0.49,0.21 1.13,-0.07 1.64,-0.23 0.37,-0.12 0.23,-0.15 0.41,-0.15 0.25,0 -0.04,0.21 0.53,0.21 0.18,0 1.64,-0.67 2.01,-0.8 0.06,-0.02 0.12,-0.04 0.19,-0.07 0.22,-0.1 0.84,-0.37 1.03,-0.41l0 -0.07c-0.41,-0.03 -0.44,-0 -0.91,0.17l-0.85 0.34c-0.11,0.04 -0.2,0.1 -0.26,0.05 -0.09,-0.08 -0,-0.09 0,-0.1 0.07,-0.13 0.05,0.09 0.08,-0.14 -0.28,-0.13 -0.73,-0.08 -1.03,0.03l-0.96 0.57c-0.13,0.07 -0.17,0.1 -0.31,0.16 -0.07,0.03 -0.11,0.05 -0.17,0.08l-0.17 0.09c-0.01,0 -0.02,0.01 -0.03,0.01l-0.16 0.06c-0.32,0.13 -0.37,0.17 -0.51,-0.01 0.14,-0.03 0.32,-0.2 0.44,-0.29 0.1,-0.07 0.14,-0.08 0.24,-0.13 0.21,-0.11 0.37,-0.23 0.63,-0.32l0.41 -0.18c0.06,-0.02 0.07,-0.03 0.13,-0.05 0.01,-0 0.02,-0.01 0.03,-0.01 0.01,-0 0.02,-0.01 0.03,-0.01l0.08 -0.03c0.43,-0.17 1.08,-0.37 1.54,-0.43 0.28,-0.03 0.39,-0.03 0.66,-0.12 0.15,-0.05 0.17,-0.09 0.29,-0.12l0 -0.14c-0.19,-0.04 -0.09,-0.07 -0.34,-0.09 -0.58,-0.03 -0.21,0.04 -0.57,0.05 -0.29,0.01 -0.76,0.14 -0.99,0.24l-0.43 0.16c-0.41,0.11 -0.01,0.05 -0.44,0.19 -0.35,0.11 -1.02,0.51 -1.37,0.72 -0.09,0.06 -0.16,0.1 -0.25,0.15l-0.56 0.46c-0.05,0.07 -0.05,-0.03 -0.05,0.16z"/>
   <path class="fil1" d="M27.13 20.25c0.15,0.01 0.3,0.02 0.45,0 0.38,-0.04 0.27,-0.06 0.46,-0.71 0.04,-0.15 0.05,0 0.05,-0.2l-0.24 -0.1c0,-0.22 0.2,-0.87 0.27,-1l-0.58 -0.58c-0.36,-0.33 -0.36,-0.3 -1.35,-0.11l-0.47 0.09c-0.06,0.01 -0.59,0.05 -0.75,0.15 -0.1,0.06 -0.08,0.03 -0.11,0.14 0.1,0.04 0.14,0.01 0.42,0.03 0.4,0.03 1.15,-0.05 1.56,0.04 0.04,0.08 0.02,0.05 0.05,0.13 0.09,0.25 0.13,0.38 0.14,0.66 0,0.1 -0.01,0.21 0,0.31 0.02,0.14 0.06,0.41 0.07,0.56l0.04 0.6z"/>
   <path class="fil2" d="M10.13 27.58c-0.12,0.29 -0.57,1.78 -0.57,2 0.14,-0.02 0.26,-0.12 0.38,-0.17 0.73,-0.35 1.48,-0.7 2.15,-1.16 0.18,-0.13 0.27,-0.13 0.32,-0.26 -0.27,-0.34 -1.33,-0.48 -1.9,-0.45l-0.38 0.04zm33.3 -4.75c-0.07,-0.12 -0.03,-0.09 -0.19,-0.09 -0.14,-0.02 -0.68,0.02 -0.89,0.02 -0.31,0 -0.66,0.02 -0.91,-0.03l0.57 -2.11 2.15 0 0.59 -2.11c0.03,-0.17 -0.04,-0.15 -0.04,-0.15 -0,0.01 -0.02,-0.01 -0.03,-0.01 -0.15,-0.03 -0.43,-0.01 -0.59,-0.01l-4.74 -0.07 -0.61 2.17c-0.29,0.91 -0.64,2.34 -0.91,3.29 -0.1,0.36 -0.21,0.73 -0.31,1.1l-0.6 2.22c0.32,0 0.51,-0.02 0.8,-0 0.42,0.02 0.41,0.06 0.65,0.21l0 0.21 -1.51 0.87c-0.44,0.25 -0.32,0.08 -0.49,0.66 -0.08,0.27 -0.22,0.47 0.23,0.28 0.1,-0.04 0.14,-0.06 0.25,-0.09 0.66,-0.2 1.15,-0.37 1.99,-0.43 0.19,-0.01 0.36,0.02 0.56,0.02 0.33,-0 0.7,-0.1 1.15,0.03 0.19,0.05 0.47,0.19 0.24,0.4 -0.08,0.07 -0.07,0.04 -0.13,0.13 0.21,0.09 0.66,-0.12 1.02,0.17 -0.02,0.14 -0.04,0.09 -0.08,0.21 0.39,0.12 0.34,-0.1 0.41,-0.36l0.51 -1.94 -2.18 0.02c-0.15,-0.01 -0.18,0.01 -0.17,-0.12 0.01,-0.09 0.06,-0.19 0.08,-0.28l0.59 -2.09 2.04 -0 0.56 -2.11zm-12.2 -2.28l1.82 0c0,0.17 -0.01,0.13 -0.05,0.27l-1.44 5.15c-0.04,0.15 -0.09,0.36 -0.14,0.53l-0.76 2.73c0.22,0.06 0.52,-0.06 0.8,-0.07 0.45,-0.01 0.46,0.03 0.78,-0.15l2.05 -1.17c0.31,-0.19 0.2,-0.2 0.32,-0.57l1.86 -6.68 1.82 0c0.23,-0.02 0.21,-0.18 0.26,-0.35 0.11,-0.4 0.52,-1.63 0.49,-1.95 -0.16,-0.03 -7.01,-0.12 -7.28,-0.09 -0.11,0.17 -0.54,1.82 -0.63,2.13 -0.03,0.12 -0.07,0.23 0.1,0.23zm-10.63 8.49c0.17,0.13 0.09,-0.16 0.83,-0.23 0.23,-0.02 0.29,-0.01 0.52,0.02 0.18,0.02 0.99,-0.19 1.27,0.16 -0.03,0.07 -0.03,0.06 -0.07,0.11 -0.09,0.12 -0.05,-0.01 -0.1,0.14l0.43 0.03c0.09,-0.16 0.28,-0.89 0.34,-1.11 0.05,-0.2 0.1,-0.34 0.15,-0.55 0.19,-0.77 0.54,-1.78 0.73,-2.55 0.03,-0.12 0.04,-0.18 0.14,-0.25 0,0.44 0.03,0.81 0.04,1.21l0.08 1.17c0.01,0.36 -0,0.86 0.05,1.2 0.06,0.35 -0.01,0.88 0.09,1.17 0.32,0.06 1.21,-0.34 1.53,-0.43 0.67,-0.19 0.98,-0.25 1.82,-0.24 0.09,-0.16 0.15,-0.44 0.21,-0.64l0.56 -2.01c0.38,-1.31 0.75,-2.74 1.13,-4.01l1.04 -3.68c0.14,-0.47 0.25,-0.37 -1.35,-0.37 -1.75,0 -1.31,-0.46 -1.8,1.23l-0.28 0.96c-0.26,0.78 -0.53,2.04 -0.78,2.75l-0.06 0.15c-0.09,-0.35 -0.08,-0.87 -0.12,-1.28 -0.02,-0.18 -0.07,-0.43 -0.08,-0.62l-0.08 -1.31c-0.02,-0.16 -0.07,-0.46 -0.07,-0.63 -0,-0.21 -0.06,-1.11 -0.11,-1.28l-2.81 -0.04c-0.22,0.02 -0.17,0.11 -0.23,0.31 -0.04,0.14 -0.08,0.25 -0.12,0.41 -0.23,0.89 -0.58,1.97 -0.82,2.88l-1.18 4.11c-0.01,0.04 -0.93,3.2 -0.91,3.24zm-6.15 -2.03c0,0.06 0.16,0.1 0.31,0.23 0.21,0.19 0.07,0.08 0.6,0.08 0.26,0 0.99,0.08 0.99,0.31 0,0.33 -0.43,0.47 -0.9,0.7l-1.03 0.48c-0.48,0.29 -0.97,0.56 -0.27,0.55 0.62,-0.01 0.61,0.21 0.87,0.24 0.9,0.09 0.3,-0.08 1.29,-0.2 0.17,-0.02 0.35,-0.03 0.53,-0.01 0.36,0.03 0.88,-0.13 1.42,0.09 0.26,0.11 0.2,0.11 0.55,0.07 0.46,-0.06 0.81,0.09 1.21,-0.08 0.08,-0.14 0.14,-0.49 0.2,-0.69 0.08,-0.25 0.14,-0.33 -0.35,-0.07 -0.45,0.24 -0.56,0.26 -1.11,0.31 -0.22,0.02 -0.27,-0.02 -0.45,-0.03 -0.29,-0.01 -0.55,0.05 -0.89,0.01 -1.05,-0.12 -0.24,-0.69 -0.04,-0.79 0.59,-0.28 1.55,-0.19 2.22,-0.19 0.5,-0 0.56,0.16 0.76,0.21 0.07,-0.13 0.11,-0.3 0.15,-0.46 0.07,-0.24 -0.11,-0.17 -0.42,-0.17 -0.23,0 -0.46,0 -0.68,-0 -0.24,-0 -0.42,0.03 -0.64,0.03 -1.08,0 -0.92,0.26 -0.48,-1.27 0.07,-0.25 0.12,-0.44 0.19,-0.69 0.05,-0.17 0.15,-0.55 0.21,-0.67 0.58,0 1.78,0.06 2.24,-0.03l0.3 -1.08c0.06,-0.18 0.11,-0.36 0.16,-0.55 0.07,-0.27 0.28,-0.66 0.03,-0.66l-2.05 0 0.57 -2.11c0.04,-0.08 0.04,-0.14 0.34,-0.14l0.8 0.04c1.51,0 1.25,0.13 1.43,-0.53 0.05,-0.16 0.52,-1.7 0.5,-1.79 -0.01,-0.08 0.01,-0.03 -0.04,-0.09l-4.71 -0.06c-0.28,-0.01 -0.52,-0.02 -0.8,-0.03 -0.57,-0 -0.35,-0.17 -0.7,0.92 -0.04,0.12 -0.05,0.19 -0.08,0.31l-2.26 7.79zm-13.18 2.14l0.05 0.01c0.04,-0.01 0.01,0.01 0.07,-0.01 0,-0 0.1,-0.06 0.11,-0.07 0.25,-0.18 0.98,-0.56 1.26,-0.68 0.65,-0.28 1.23,-0.55 1.95,-0.75 0.46,-0.13 0.41,-0.06 0.55,-0.6 0.18,-0.72 0.46,-1.53 0.67,-2.29 0.04,-0.13 0.67,-2.11 0.67,-2.3l-0.05 0.85c-0.03,0.25 -0.06,0.59 -0.12,0.86l-0.37 2.98c0.03,0.15 0.15,0.07 0.34,0.03 0.59,-0.14 1.12,-0.24 1.72,-0.33l1.38 -0.16c0.19,-0.03 0.19,-0.12 0.25,-0.26l1.79 -3.94c0.04,-0.07 0.02,-0.04 0.06,-0.08 -0,0.14 -0.87,3.01 -0.94,3.25 -0.05,0.18 -0.1,0.36 -0.15,0.55l-0.09 0.27c-0.03,0.11 -0.01,0.14 0.16,0.14l2.05 0c0.14,0.01 0.37,0.05 0.5,0.06 0.1,0.01 0.15,0.01 0.24,0.03 0.03,0 0.08,0.02 0.12,0.02l0.07 -0c0.1,-0.01 0.18,-0.43 0.21,-0.52 0.06,-0.18 0.11,-0.35 0.16,-0.55l0.32 -1.09c0.11,-0.37 0.19,-0.74 0.31,-1.1 0.16,-0.48 0.25,-0.96 0.4,-1.37l0.4 -1.37c0.03,-0.11 0.05,-0.16 0.08,-0.27l0.4 -1.37c0.08,-0.32 0.28,-0.85 0.29,-1.13l-2.59 -0.03c-0.45,0 -2,-0.05 -2.23,-0.01l-1.78 4.03c-0.07,0.18 -0.57,1.24 -0.58,1.37 -0.13,-0.08 -0.06,-0.08 -0.04,-0.28 0.01,-0.16 0.02,-0.2 0.04,-0.34 0.12,-0.75 0.2,-1.68 0.32,-2.44 0.1,-0.6 0.18,-1.72 0.25,-2.12 0.03,-0.16 0.1,-0.23 -0.11,-0.25l-4.64 -0.06c-0.26,0.03 -0.3,0.46 -0.41,0.84l-0.91 3.07c-0.36,1.09 -0.77,2.56 -1.11,3.69 -0.08,0.28 -1.1,3.6 -1.07,3.7zm1.49 1.11c0.59,0 0.99,0.01 1.56,-0.03 0.01,-0.14 0.08,-0.26 0.12,-0.41 0.04,-0.15 0.09,-0.28 0.13,-0.43 0.12,-0.42 0.04,-0.36 -0.48,-0.09 -0.22,0.12 -1.28,0.7 -1.33,0.97zm5.28 -0.07l0.69 -1.48c0.52,-1.16 0.7,-1.07 -0.37,-0.86 -0.3,0.06 -0.56,0.13 -0.88,0.2l-1.24 0.36c-0.17,0.06 -0.3,0.05 -0.35,0.2 -0.04,0.11 -0.04,0.3 -0.06,0.43l-0.11 0.87c-0.02,0.22 -0.13,0.3 0.15,0.32 0.35,0.02 0.78,-0 1.07,-0.03 0.3,-0.03 0.78,-0.01 1.1,-0.01z"/>
   <path class="fil5" d="M10.13 27.58c-0.12,0.29 -0.57,1.78 -0.57,2 0.14,-0.02 0.26,-0.12 0.38,-0.17 0.73,-0.35 1.48,-0.7 2.15,-1.16 0.18,-0.13 0.27,-0.13 0.32,-0.26 -0.27,-0.34 -1.33,-0.48 -1.9,-0.45l-0.38 0.04zm-7.24 -3.99l3.4 0c-0.16,0.54 -0.34,1.09 -0.36,1.16 -0.21,0.76 -0.49,1.57 -0.67,2.29 -0.14,0.54 -0.09,0.48 -0.55,0.6 -0.72,0.2 -1.3,0.47 -1.95,0.75 -0.28,0.12 -1.01,0.5 -1.26,0.68 -0.01,0.01 -0.11,0.07 -0.11,0.07 -0.06,0.02 -0.03,0.01 -0.07,0.01l-0.05 -0.01c-0.03,-0.1 0.99,-3.42 1.07,-3.7 0.17,-0.57 0.36,-1.22 0.55,-1.86zm3.63 0l4.53 0 -1.29 2.85c-0.06,0.14 -0.06,0.22 -0.25,0.26l-1.38 0.16c-0.6,0.09 -1.14,0.19 -1.72,0.33 -0.19,0.04 -0.31,0.12 -0.34,-0.03l0.37 -2.98c0.03,-0.18 0.06,-0.39 0.08,-0.58zm4.77 0l3.25 0c-0.1,0.32 -0.18,0.66 -0.28,0.99l-0.32 1.09c-0.05,0.2 -0.1,0.36 -0.16,0.55 -0.03,0.09 -0.11,0.51 -0.21,0.52l-0.07 0c-0.03,-0 -0.09,-0.02 -0.12,-0.02 -0.09,-0.02 -0.14,-0.01 -0.24,-0.03 -0.14,-0.01 -0.36,-0.05 -0.5,-0.06l-2.05 -0c-0.18,0 -0.19,-0.03 -0.16,-0.14l0.09 -0.27c0.05,-0.19 0.1,-0.37 0.15,-0.55 0.05,-0.15 0.37,-1.21 0.62,-2.08zm4.16 0l5.89 0c-0.03,0.1 -0.06,0.21 -0.1,0.31l-0.3 1.08c-0.46,0.1 -1.66,0.03 -2.24,0.03 -0.06,0.12 -0.17,0.5 -0.21,0.67 -0.07,0.25 -0.12,0.44 -0.19,0.69 -0.44,1.53 -0.6,1.27 0.48,1.27 0.23,0 0.4,-0.04 0.64,-0.03 0.23,0 0.46,0 0.68,0 0.31,-0 0.49,-0.07 0.42,0.17 -0.05,0.15 -0.08,0.33 -0.15,0.46 -0.19,-0.05 -0.26,-0.21 -0.76,-0.21 -0.67,0 -1.62,-0.08 -2.22,0.19 -0.21,0.1 -1.02,0.66 0.04,0.79 0.34,0.04 0.59,-0.03 0.89,-0.01 0.18,0.01 0.23,0.05 0.45,0.03 0.54,-0.05 0.66,-0.07 1.11,-0.31 0.49,-0.26 0.43,-0.17 0.35,0.07 -0.06,0.19 -0.12,0.54 -0.2,0.69 -0.4,0.17 -0.75,0.02 -1.21,0.08 -0.35,0.04 -0.29,0.03 -0.55,-0.07 -0.54,-0.22 -1.06,-0.05 -1.42,-0.09 -0.19,-0.02 -0.36,-0.01 -0.53,0.01 -0.99,0.12 -0.39,0.29 -1.29,0.2 -0.27,-0.03 -0.25,-0.25 -0.87,-0.24 -0.7,0.01 -0.21,-0.26 0.27,-0.55l1.03 -0.48c0.47,-0.23 0.9,-0.37 0.9,-0.7 0,-0.23 -0.73,-0.31 -0.99,-0.31 -0.53,0 -0.39,0.12 -0.6,-0.08 -0.15,-0.14 -0.31,-0.18 -0.31,-0.23l0.99 -3.42zm6.7 0l7.82 0c-0.25,0.88 -0.49,1.79 -0.74,2.64l-0.56 2.01c-0.05,0.2 -0.12,0.48 -0.21,0.64 -0.85,-0.01 -1.16,0.05 -1.82,0.24 -0.32,0.09 -1.21,0.49 -1.53,0.43 -0.09,-0.29 -0.03,-0.82 -0.09,-1.17 -0.06,-0.34 -0.04,-0.84 -0.05,-1.2l-0.08 -1.17c-0,-0.4 -0.04,-0.77 -0.04,-1.21 -0.11,0.07 -0.11,0.13 -0.14,0.25 -0.19,0.77 -0.54,1.79 -0.73,2.55 -0.05,0.21 -0.1,0.36 -0.15,0.55 -0.06,0.22 -0.25,0.95 -0.34,1.11l-0.43 -0.03c0.05,-0.16 0.01,-0.02 0.1,-0.14 0.04,-0.05 0.04,-0.04 0.07,-0.11 -0.28,-0.35 -1.08,-0.13 -1.27,-0.16 -0.23,-0.03 -0.29,-0.04 -0.52,-0.02 -0.74,0.07 -0.66,0.37 -0.83,0.23 -0.03,-0.04 0.89,-3.2 0.91,-3.24l0.64 -2.21zm10.08 0l3.41 0 -1.02 3.67c-0.12,0.37 -0.01,0.38 -0.32,0.57l-2.05 1.17c-0.32,0.18 -0.33,0.14 -0.78,0.15 -0.27,0.01 -0.58,0.13 -0.8,0.07l0.76 -2.73c0.05,-0.16 0.1,-0.38 0.14,-0.53l0.66 -2.38zm5.65 0l5.35 0 -0.36 1.35 -2.04 0 -0.59 2.09c-0.02,0.09 -0.07,0.18 -0.08,0.28 -0.01,0.13 0.01,0.11 0.17,0.12l2.18 -0.02 -0.51 1.94c-0.07,0.26 -0.02,0.47 -0.41,0.36 0.03,-0.12 0.05,-0.07 0.08,-0.21 -0.36,-0.29 -0.82,-0.08 -1.02,-0.17 0.06,-0.08 0.05,-0.06 0.13,-0.13 0.24,-0.21 -0.05,-0.35 -0.24,-0.4 -0.45,-0.12 -0.81,-0.03 -1.15,-0.03 -0.2,0 -0.37,-0.03 -0.56,-0.02 -0.84,0.06 -1.34,0.23 -1.99,0.43 -0.11,0.03 -0.14,0.04 -0.25,0.09 -0.45,0.2 -0.3,-0.01 -0.23,-0.28 0.16,-0.58 0.05,-0.42 0.49,-0.66l1.51 -0.87 0 -0.21c-0.24,-0.15 -0.23,-0.19 -0.65,-0.21 -0.29,-0.01 -0.48,0 -0.8,0l0.6 -2.22c0.09,-0.37 0.2,-0.74 0.31,-1.1l0.04 -0.14zm-35.11 6.67c0.59,0 0.99,0.01 1.56,-0.03 0.01,-0.14 0.08,-0.26 0.12,-0.41 0.04,-0.15 0.09,-0.28 0.13,-0.43 0.12,-0.42 0.04,-0.36 -0.48,-0.09 -0.22,0.12 -1.28,0.7 -1.33,0.97zm5.28 -0.07l0.69 -1.48c0.52,-1.16 0.7,-1.07 -0.37,-0.86 -0.3,0.06 -0.56,0.13 -0.88,0.2l-1.24 0.36c-0.17,0.06 -0.3,0.05 -0.35,0.2 -0.04,0.11 -0.04,0.3 -0.06,0.43l-0.11 0.87c-0.02,0.22 -0.13,0.3 0.15,0.32 0.35,0.02 0.78,-0 1.07,-0.03 0.3,-0.03 0.78,-0.01 1.1,-0.01z"/>
   <path class="fil1" d="M12.52 3.82c0.01,-0.14 -0,-0.06 0.07,-0.14 0.2,-0.21 0.58,-0.51 0.84,-0.62 0.37,-0.15 1.08,-0.35 1.59,-0.24l0 0.07c-0.64,0.14 -0.78,0.07 -1.41,0.31 -0.49,0.18 -0.57,0.45 -0.98,0.7 -0.06,-0.07 -0,-0.04 -0.11,-0.07zm3.3 -0.24c0,-0.13 0.02,-0.29 0.02,-0.35 0,-0.1 -0.02,-0.53 -0.12,-0.64 -0.07,-0.08 0,-0.03 -0.13,-0.06 -0.03,-0.01 -0.13,-0.02 -0.16,-0.02 -0.15,-0.01 -0.24,-0 -0.39,-0.02 -0.24,-0.04 -0.86,0.05 -1.06,0.11l-0.47 0.16c-0.06,0.02 -0.02,0 -0.08,0.03l-0.53 0.31c-0.07,0.06 -0.14,0.12 -0.21,0.19l-0.18 0.22c-0.4,0.76 0.11,0.45 0.3,0.44 0.34,-0.01 0.72,0.02 1.04,-0.13 0.88,-0.4 1.6,-0.18 1.96,-0.25z"/>
   <path class="fil1" d="M13.96 4.06l0.12 0.03c0.63,0.08 0.51,0.22 0.83,0.25 0.04,-0.15 0.02,-0.09 0.22,-0.11 0.53,-0.05 0.86,0.04 1.36,0.26 0.21,0.09 0.35,0.05 0.35,0.3 -0.31,0 -0.39,-0.19 -0.85,-0.3l-0.48 -0.11c-0.3,-0.02 -0.28,0.06 -0.61,0 0.06,0.21 -0.02,0.07 0.09,0.12 0.13,-0 0.05,-0.1 0.19,0.21 0.08,0.17 0.09,0.34 0.05,0.53 -0.02,0.13 -0,0.02 -0.03,0.08l-0.02 0.05c-0,0.01 -0.01,0.02 -0.01,0.02 -0.07,0.15 -0.09,0.15 -0.09,0.3 0.1,0.02 0.11,0.03 0.19,0.07 -0.01,0.1 -0.01,0.09 -0.05,0.17 0.09,-0.05 0.14,-0.14 0.27,-0.1 0.13,0.04 0.08,0.15 0.08,0.32 0.02,-0.03 0.02,-0 0.06,-0.1 0.08,-0.22 -0.1,-0.23 -0.17,-0.32 0.22,-0.09 0.01,0.01 0.34,0.17 0.04,-0.13 0.03,-0.05 0.09,-0.16 0.07,-0.11 0.03,-0.12 0.25,-0.25 0.1,-0.06 0.07,-0.04 0.19,-0.07 0.18,-0.04 0.06,0.07 0.25,-0.25 0.08,-0.13 0.07,-0.22 0.2,-0.3 0.05,0.04 0.02,-0.01 0.03,0.07 0.01,-0.01 0.01,-0.03 0.01,-0.03 0,0 0.03,-0.11 0.3,-0.5l-0.13 0.02c-0.26,-0.37 -0.9,-0.5 -1.34,-0.57 -0.23,-0.04 -0.68,0.01 -0.89,0.04 -0.41,0.06 -0.28,0.14 -0.83,0.16z"/>
   <path class="fil1" d="M13.49 4.31l0.15 0.01c-0.06,0.26 -0.25,0.12 -0.59,0.63 -0.18,0.27 -0.02,0.5 0.05,0.92 0.03,0.17 0.01,0.28 0.06,0.49l0.06 0.19 0.45 -0.15c0.09,-0.05 0.04,-0.03 0.14,-0.08 0.01,-0.18 0.08,-0.15 0.39,-0.34l0.43 -0.4c0.41,-0.61 0.02,-0.8 -0.1,-0.96 0.19,0.01 0.24,0.15 0.32,0.29l0.05 0.12c0.02,0.09 0,0.19 -0.01,0.27 0.01,-0.01 0.01,-0.03 0.01,-0.02l0.03 -0.08c0.05,-0.26 -0.13,-0.65 -0.49,-0.65 -0.02,0.16 -0.03,0.07 -0.46,0.35 -0.13,0.09 -0.32,0.24 -0.47,0.25 -0.36,0.02 0.52,-0.49 0.56,-0.51 0.13,-0.08 0.12,-0.08 0.33,-0.08 -0.07,-0.23 -0.43,-0.18 -0.66,-0.23 -0.16,-0.04 -0.12,-0.07 -0.27,0z"/>
   <path class="fil1" d="M15.36 30.96c0.01,-0.14 0.07,-0.15 0.18,-0.22 0.3,-0.2 0.87,-0.6 1.17,-0.73l0.47 -0.26c-0.07,-0.13 -0.03,-0.12 -0.2,-0.17 -0.36,-0.09 -0.91,0 -1.14,0.16l-0.99 0.97c-0.11,0.1 -0.13,0.13 -0.23,0.24 -0.1,0.11 -0.13,0.13 -0.14,0.32 0.22,0.05 0.26,0.14 0.77,-0.03 0.01,-0 0.02,-0.01 0.03,-0.01l0.52 -0.18c0.47,-0.2 0.87,-0.31 1.39,-0.53l0.28 -0.09c0.07,-0.02 0.08,-0.03 0.13,-0.05l1.09 -0.39c0.16,-0.05 0.39,-0.13 0.54,-0.2 -0.12,-0.14 -0.35,-0.08 -0.52,-0.02 -0.01,0 -0.02,0.01 -0.03,0.01l-1.34 0.54c-0.11,0.03 -0.14,0.06 -0.23,0.1l-1.23 0.43c-0.25,0.07 -0.2,0.12 -0.52,0.12z"/>
   <path class="fil4" d="M27.66 31.1c0,-0.26 0.11,-0.31 0.3,-0.42 0.23,-0.14 1.19,-0.66 1.34,-0.79 -0.29,0.01 -0.95,0.35 -1.15,0.41 -0.22,0.06 -0.19,0.08 -0.36,0.16 -0.13,0.05 -0.25,0.08 -0.38,0.14l-0.72 0.31c-0.12,0.07 -0.18,0.13 -0.35,0.13 0.16,0.19 0.96,0.1 1.05,0.12 0.15,0.03 0.18,0.05 0.36,0.06 0.28,0.01 0.58,-0.02 0.86,0.01 0.3,0.04 0.56,0.02 0.82,-0.01 0.62,-0.07 0.3,0.02 0.3,0.27 0,0.2 0.26,0.21 0.53,0.21l-0.21 -0.16c-0.11,-0.26 0.44,-0.64 0.61,-0.78 0.1,-0.08 0.08,-0.11 0.17,-0.19 0.08,-0.07 0.28,-0.17 0.33,-0.35l-2.81 0.97c-0.67,0 -0.31,0.01 -0.68,-0.07z"/>
   <path class="fil2" d="M8.52 7.33c0.04,-0.01 0.06,-0.03 0.11,-0.07 0.1,-0.08 0.08,-0.04 0.1,-0.16 0.21,-0 0.15,-0 0.17,0.24 -0.08,0.06 -0.13,0.11 -0.27,0.14l-0.44 0.02c-0.29,-0.26 -0.04,-0.71 0.13,-0.73 -0.01,0.2 -0.34,0.61 0.2,0.55zm0.34 -0.42c-0.08,0.11 -0.04,0.04 -0.09,0.1 -0.05,0.07 -0.02,0.01 -0.04,0.1 -0.11,-0 -0.16,0.03 -0.25,-0.02 0.09,-0.11 0.06,-0.15 0.18,-0.24 0.02,-0.14 0.05,-0.21 0.11,-0.29 0.07,-0.08 0.12,-0.14 0.27,-0.08 0.02,0.22 -0.13,0.3 -0.18,0.44zm-0.46 -0.31c-0.02,-0.16 0.06,-0.18 0.21,-0.19 -0.03,0.11 -0.07,0.19 -0.21,0.19zm0.99 -0.33c-0.04,0.35 -0.09,0.66 -0.29,0.85 -0.1,-0.09 -0.02,-0.27 0.04,-0.4 0.19,-0.41 -0.01,-0.09 0.21,-0.4 -0.11,0 -0.15,-0.01 -0.19,-0.12 0.06,-0.04 0.07,-0.06 0.18,-0.05 0.08,0.1 0.06,-0.01 0.05,0.12zm-0.45 -0.38c-0.11,0.06 -0.31,0.18 -0.4,0.24 -0.13,0.09 -0.26,0.27 -0.4,0.3l-0.16 0.14c-0.03,0.26 -0.08,0.34 -0.12,0.53 -0.04,0.24 -0,0.31 0.11,0.49 0.14,0.1 0.36,0.13 0.56,0.04l0.22 -0.08c0,-0 0.08,-0.1 0.19,-0.02 0.12,-0.42 0.35,0.01 0.74,-0.87 0.16,-0.36 -0.02,-0.5 -0.07,-0.74 -0.11,-0.05 -0.17,-0.09 -0.32,-0.1 -0.09,0.03 -0.09,0.01 -0.18,0.02 -0.16,0.02 -0.03,-0.01 -0.17,0.05z"/>
   <path class="fil2" d="M41.74 10.72l0.03 -0.06c0.03,-0.17 0.16,-0.38 0.2,-0.55 0.15,-0.64 0.24,-0.98 -0.22,-1.39l-0.15 -0.14c-0.14,-0.12 0.13,0.07 -0.04,-0.03 -0.06,-0.03 -0.21,-0.07 -0.29,-0.11 -0.64,-0.29 -0.3,-0.1 -0.87,-0.28 -0.22,-0.07 -0.41,-0.09 -0.64,-0.14 -0.2,-0.05 -0.4,-0.12 -0.63,-0.12l0 0.17c0.08,0.03 0.2,0.05 0.3,0.07l0.9 0.22c0.43,0.15 0.59,0.1 1.05,0.39 0.13,0.08 0.29,0.25 0.34,0.38 0.21,0.61 -0.31,1.37 -0.31,1.7 0.31,0.07 0.16,0.03 0.34,-0.11z"/>
   <path class="fil6" d="M15.36 30.96c0.32,0 0.27,-0.05 0.52,-0.12l1.23 -0.43c0.1,-0.04 0.12,-0.07 0.23,-0.1l1.34 -0.54c0.01,-0 0.02,-0.01 0.03,-0.01 0.17,-0.06 0.4,-0.12 0.52,0.02 -0.15,0.07 -0.38,0.15 -0.54,0.2l-1.09 0.39c-0.05,0.02 -0.07,0.03 -0.13,0.05l-0.28 0.09c-0.52,0.22 -0.92,0.33 -1.39,0.53l-0.52 0.18c-0.01,0 -0.02,0.01 -0.03,0.01 -0.51,0.17 -0.55,0.07 -0.77,0.03 0,-0.19 0.04,-0.21 0.14,-0.32 0.1,-0.11 0.13,-0.14 0.23,-0.24l0.99 -0.97c0.23,-0.16 0.78,-0.25 1.14,-0.16 0.16,0.04 0.12,0.04 0.2,0.17l-0.47 0.26c-0.3,0.13 -0.87,0.53 -1.17,0.73 -0.1,0.07 -0.16,0.07 -0.18,0.22zm-0.95 0.24c0,0.6 2.05,-0.32 2.51,-0.48l2.16 -0.8c0.14,-0.06 0.19,-0.05 0.23,-0.21 -0.28,-0.17 -0.58,-0.03 -0.84,0.06l-0.76 0.28c-0.14,0.05 -0.19,0.1 -0.36,0.16 -0.22,0.08 -1.35,0.52 -1.57,0.54 0.04,-0.13 0.02,-0.08 0.13,-0.16l0.58 -0.37c0.12,-0.08 0.26,-0.16 0.4,-0.22 0.79,-0.39 0.07,-0.5 0.02,-0.5 -0.59,0 -0.95,-0.05 -1.3,0.34 -0.05,0.05 -0.08,0.08 -0.13,0.12l-0.7 0.68c-0.08,0.09 -0.16,0.14 -0.23,0.24 -0.05,0.07 -0.14,0.22 -0.14,0.32z"/>
   <path class="fil1" d="M10.66 12.63c0.2,-0.1 0.03,0.02 0.13,-0.12 0.17,-0.23 0.58,-0.63 0.59,-0.95 -0.15,-0 -0.22,-0.03 -0.34,-0.07l-1.04 -0.44c-0.23,-0.11 -0.26,-0.17 -0.56,-0.28l-0.19 -0.07c0.04,0.06 0.05,0.06 0.1,0.11l0.09 0.09c0.56,0.48 1.03,1.03 1.21,1.73z"/>
   <path class="fil2" d="M34.34 5.72c0.24,0.06 0.55,-0.03 0.79,-0.08 0.36,-0.08 1.07,-0.14 1.42,-0.1 0.42,0.04 0.32,-0.04 0.65,0.13 0.34,0.17 0.57,0.45 0.73,0.79l0.32 0.81c0.03,0.1 0.06,0.21 0.19,0.21 0.27,0 0.02,-0.48 -0.07,-0.7 -0.18,-0.44 -0.41,-0.99 -0.93,-1.23 -0.82,-0.37 -1.8,-0.2 -2.68,-0.04 -0.32,0.06 -0.4,0 -0.42,0.2z"/>
   <path class="fil1" d="M11.04 5l0.15 -0.01c-0.01,0.01 -0.02,0.01 -0.02,0.02 -0.01,0.03 -0.84,0.37 -0.93,0.68 0.15,0.07 0.19,-0.04 0.64,-0.03 0.28,0 0.49,-0.01 0.72,0.03 0.29,-0.39 0.24,-0.91 0.66,-0.95 0.18,-0.02 0.32,0.03 0.36,0.19 0.07,-0.05 0.35,-0.36 0.38,-0.45 -0.22,0.02 -0.02,0.01 -0.17,0.05l-0.66 0.09c0.17,-0.21 0.21,0.05 0.39,-0.14 -0.12,0 -0.15,0.01 -0.25,-0.02 -0.12,-0.03 -0.02,-0.05 -0.25,-0.05 0.17,0.1 0.11,0.01 0.15,0.1 -0.11,0.05 -0.58,0.23 -0.72,0.24l0.34 0.07c-0.1,0.35 -0.5,-0.05 -0.8,0.18z"/>
   <path class="fil2" d="M29.18 5.34c0.16,-0.01 0.1,0.01 0.17,-0.09 0.09,-0.11 0.17,-0.34 0.32,-0.38l0.08 0.11c0,0.01 0.01,0.02 0.01,0.02 0.03,0.04 0.06,0.08 0.08,0.12 -0.15,0.2 0.02,0.04 -0.22,0.27 -0.14,0.13 -0.08,0.1 -0.14,0.22 -0.03,0.06 -0.01,0.03 -0.05,0.07 -0.06,0.07 -0.03,0.05 -0.06,0.12 0.12,-0 0.15,0.02 0.22,-0.03 0.18,-0.04 0.22,-0.08 0.35,-0.18 0.36,-0.27 0.18,-0.43 0.38,-0.62l0.48 -0.51c0.1,-0.21 -0.06,-0.27 -0.21,-0.11 -0.14,0.16 -0.29,0.41 -0.49,0.49 -0.06,-0.09 -0.13,-0.3 -0.08,-0.39 0.1,-0.16 0.3,-0.14 0.19,-0.37 -0.18,-0.07 -0.37,-0.05 -0.51,0.06 -0.27,0.22 -0.03,0.38 -0.22,0.64 -0.16,0.22 -0.36,0.36 -0.32,0.57z"/>
   <path class="fil2" d="M20.18 2.64c0,0.18 0.16,0.07 0.24,0.02 0.11,-0.07 0.19,-0.12 0.29,-0.18 0.54,-0.36 1.35,-0.9 1.97,-0.9 0.43,0 0.88,0.22 1.22,0.44l0.19 0.14c0.54,0.43 0.63,0.22 0.48,0.09 -0.43,-0.36 -1.19,-0.85 -1.77,-0.85 -0.86,0 -1.47,0.45 -2.11,0.84 -0.1,0.06 -0.51,0.29 -0.51,0.4z"/>
   <path class="fil2" d="M11.73 5.81c-0.03,0.11 -0.05,0.13 -0.1,0.19 -0.06,0.11 -0.06,0.05 -0.09,0.17 -0.05,0.23 -0.14,0.23 -0.18,0.33 -0.04,0.09 -0.01,0.29 -0.29,0.78 -0.08,0.14 -0.09,0.27 -0.15,0.38 0.2,-0.02 0.16,-0.14 0.3,-0.32 0.09,-0.1 0.08,-0.06 0.13,-0.17 0,-0.01 0.01,-0.02 0.01,-0.03l0.31 -0.52c0.01,-0.03 0.06,-0.15 0.06,-0.16 0.05,-0.17 0.08,-0.16 0.16,-0.37l0.04 -0.08c0.03,-0.14 0.08,-0.19 0.17,-0.26 0.1,-0.27 0.34,-0.54 0.42,-0.8 -0.04,-0.11 -0.15,-0.21 -0.33,-0.14 -0.14,0.06 -0.17,0.21 -0.26,0.39l-0.12 0.3c-0.18,0.38 0.05,0.17 -0.1,0.29z"/>
   <path class="fil2" d="M30.09 7.55c0.08,0.1 0.05,0.1 0.22,0.11 0.68,0.03 1.64,-0.1 2.29,0.16 0.53,0.22 0.7,0.67 0.85,1.13 0.07,0.22 0.05,0.35 0.33,0.36 0.04,-0.41 -0.25,-1.08 -0.61,-1.38 -0.22,-0.18 -0.39,-0.28 -0.71,-0.35 -0.54,-0.12 -1.8,-0.15 -2.35,-0.03z"/>
   <path class="fil2" d="M5.04 17.7l0.08 0.01 0.19 0.01 0.07 -0.04c-0.17,-0.22 -0.27,-0.52 -0.2,-0.87 0.03,-0.16 0.1,-0.26 0.19,-0.38 0.31,-0.4 1.01,-0.37 1.5,-0.31 0.21,0.03 0.38,0.01 0.56,0.04 0.34,0.06 0.43,0.1 0.45,-0.1 -0.45,-0.1 -1.33,-0.16 -1.79,-0.14 -0.17,0.01 -0.41,0.07 -0.53,0.14 -0.27,0.13 -0.52,0.33 -0.6,0.63 -0.17,0.62 0.13,0.73 0.07,1.02z"/>
   <path class="fil1" d="M26.04 5.38c-0.2,0.07 -0.21,0.09 -0.39,0 0.21,-0.26 0.45,-0.11 0.46,-0.1l0 -0.08c-0.2,0.02 -0.02,-0.19 0,-0.27 -0.57,-0.12 -0.62,0.02 -0.82,0.29 -0.18,0.24 -0.34,0.45 -0.51,0.68 0.13,0.01 0.08,0.01 0.17,0.01l0.82 -0.07c0.27,-0.04 0.14,0.01 0.19,-0.28 0.02,-0.13 0.02,-0.05 0.08,-0.18z"/>
   <path class="fil1" d="M17.3 28.71c0.27,0.26 0.91,0.14 1.21,-0.04l0.46 -0.24c-0.01,-0.25 -0.06,-0.17 -0.38,-0.25 -0.15,-0.04 -0.22,0.02 -0.53,0.04 -0.13,0.01 -0.37,0.09 -0.46,0.17 -0.05,0.05 -0.02,0.02 -0.07,0.08l-0.23 0.24z"/>
   <path class="fil1" d="M6.66 7.31l0.09 0.03c0.17,0.04 0.36,0.04 0.66,0.12 0.1,0.03 0.11,0.05 0.23,0.07 0.15,0.02 0.1,-0.01 0.1,-0.09 -0.01,-0.21 -0.07,-0.58 0.14,-0.72 -0,0.17 -0.27,0.75 0.08,0.87 -0.11,-0.18 -0.15,-0.25 -0.11,-0.49 0.03,-0.19 0.09,-0.27 0.12,-0.53 -0.2,0.19 -0.15,0.09 -0.43,0.08 -0.43,-0.02 -0.53,0.27 -0.7,0.47 -0.13,0.16 -0.06,0.12 -0.18,0.19z"/>
   <path class="fil1" d="M9.28 5.82c0.15,0.01 0.21,0.06 0.32,0.1l-0.05 -0.1c0.15,-0 0.09,0.01 0.19,-0.03 -0.06,-0.12 -0.05,-0.04 0.01,-0.16 0.06,-0.12 0.04,0.02 0.07,-0.19 -0.14,0.08 -0.08,0.09 -0.16,0.21 -0.12,0.18 -0.44,0.15 -0.22,-0.13 0.78,-0.95 0.83,-0.37 1.05,-0.64l-0.04 -0.07 0.35 -0.2c0.08,-0.05 0.03,0.01 0.07,-0.08 -0.44,0 -0.91,0.12 -1.25,0.38 -0.01,0 -0.01,0.01 -0.02,0.02 -0.19,0.15 -0.27,0.26 -0.4,0.46 -0.29,0.44 -0.03,0.35 0.16,0.35l-0.09 0.07z"/>
   <path class="fil6" d="M28.53 30.78c0.04,-0.03 -0.01,0 0.06,-0.05l0.91 -0.45c0.19,-0.08 0.35,-0.14 0.55,-0.19 0.39,-0.11 0.25,-0.14 0.56,-0.14l-0.22 0.14c-0.39,0.18 -1.45,0.69 -1.87,0.69zm-0.38 0.14c0.33,0.07 0.29,0.04 0.67,-0.08 0.08,-0.03 0.12,-0.04 0.19,-0.07 0.25,-0.08 1.07,-0.41 1.28,-0.53l1.02 -0.49c0.01,-0 0.02,-0.01 0.03,-0.01 -0.1,-0.02 -0.26,-0.06 -0.43,-0.01 -0.07,0.02 -0.1,0.03 -0.2,0.06l-1.87 0.68 -0.62 0.37c-0.06,0.05 -0.03,-0 -0.07,0.08z"/>
   <path class="fil2" d="M28.19 17.47c0.05,0.17 0.24,0.18 0.58,0.3 0.07,0.03 0.08,0.03 0.16,0.06 0.06,0.02 0.12,0.05 0.16,0.06 0.33,0.12 0.92,0.11 1.24,-0.19 0.01,-0.01 0.01,-0.01 0.02,-0.02 0.09,-0.08 0.28,-0.19 0.31,-0.27 0.02,-0.07 -0.02,-0.12 -0.14,-0.1 -0.1,0.02 -0.17,0.11 -0.26,0.18 -0.45,0.34 -0.79,0.34 -1.31,0.15 -0.25,-0.09 -0.59,-0.25 -0.76,-0.17z"/>
   <path class="fil2" d="M12.52 3.82c0.11,0.02 0.05,-0 0.11,0.07 0.41,-0.25 0.49,-0.51 0.98,-0.7 0.63,-0.23 0.77,-0.17 1.41,-0.31l0 -0.07c-0.51,-0.11 -1.23,0.09 -1.59,0.24 -0.26,0.11 -0.63,0.41 -0.84,0.62 -0.07,0.08 -0.06,-0 -0.07,0.14z"/>
   <path class="fil2" d="M9.37 7.76c0.16,0 0.24,-0.38 0.56,-0.74 0.65,-0.73 0.96,-0.38 1.38,-0.47 -0.01,-0.08 0.02,-0.05 -0.02,-0.11 -0.09,-0.15 -0.92,0 -1.03,0.05l-0.48 0.36 -0.41 0.63c-0.05,0.11 -0.2,0.29 0.01,0.29z"/>
   <path class="fil4" d="M34.57 31.34c0.9,0 1.18,0.06 1.98,-0.27l0.1 -0.04c-0.46,0 -0.39,-0.1 -0.56,-0.15 -0.16,-0.05 -0.81,0.2 -1.05,0.27 -0.51,0.16 -0.42,0 -0.48,0.19z"/>
   <path class="fil4" d="M24.09 31.34c2.01,0.15 1.5,-0.21 2.24,-0.21l0 -0.03c-0.75,0 -0.56,-0.17 -0.76,-0.17l-1.48 0.41z"/>
   <path class="fil2" d="M17.76 2.16c0.17,0.13 0.49,-0.14 1.02,-0.14 0.53,0 0.67,0.55 0.95,0.55 0.15,0 0.01,0.01 0.11,-0.03 -0.07,-0.23 -0.44,-0.52 -0.69,-0.62 -0.4,-0.16 -1.33,-0.02 -1.4,0.24z"/>
   <path class="fil2" d="M6.66 7.31c0.12,-0.07 0.05,-0.03 0.18,-0.19 0.17,-0.2 0.27,-0.49 0.7,-0.47 0.27,0.01 0.23,0.11 0.43,-0.08 -0.01,-0.02 -0.02,-0.08 -0.03,-0.11 -0.09,0 -0.19,0 -0.29,0 -0.2,-0.01 -0.21,-0.06 -0.37,-0.02l-0.31 0.15c-0.13,0.09 -0.19,0.14 -0.28,0.27 -0.08,0.11 -0.15,0.26 -0.16,0.4 0.13,0.03 0.01,-0.03 0.12,0.05z"/>
   <path class="fil1" d="M12.82 11.42c0.02,0.03 0.35,0.32 0.46,0.35l0.76 -0.93c-0.13,0.03 -0.46,0.22 -0.6,0.29 -0.17,0.09 -0.43,0.26 -0.62,0.3z"/>
   <path class="fil1" d="M27.43 5.25c0.11,0.01 0.05,-0.04 0.08,0.06 -0.08,0.1 -0.18,0.11 -0.27,0.24 -0.15,0.2 -0.03,0.15 0.19,0.14 0.27,-0.01 0.31,-0.03 0.51,-0.06l0.23 -0.04c0.08,-0.02 -0.01,-0.09 0.07,0 0.05,0.06 0.02,-0 0.02,0.1 0.05,-0.06 0.04,-0.18 0.07,-0.26 0.06,-0.15 0.09,-0 0.09,-0.24 -0.04,0.06 0.01,-0.03 -0.04,0.07 -0.01,0.01 -0.02,0.05 -0.03,0.07l-0.08 -0.04 -0.02 0.22c-0.25,-0.03 -0.06,-0.08 -0.32,-0.17 -0.31,-0.11 -0.29,-0.01 -0.34,-0.18 0.25,-0.05 0.24,-0.18 0.1,-0.15 -0.1,0.02 -0.07,0.04 -0.12,0.1 -0.04,0.04 -0.02,0.02 -0.05,0.06l-0.08 0.07z"/>
   <path class="fil4" d="M28.53 30.78c0.41,0 1.48,-0.51 1.87,-0.69l0.22 -0.14c-0.31,0 -0.17,0.04 -0.56,0.14 -0.2,0.06 -0.35,0.11 -0.55,0.19l-0.91 0.45c-0.07,0.05 -0.03,0.02 -0.06,0.05z"/>
   <path class="fil1" d="M31.99 2.89l0 -0.07c-0.7,0 -1.06,0.14 -1.66,0.25 -0.11,0.02 -0.5,0.06 -0.41,0.22 0.05,0.09 0.07,0.04 0.2,0.01l1.3 -0.31c0.31,-0.06 0.28,-0.1 0.58,-0.1z"/>
   <path class="fil6" d="M17.53 28.47c0.05,-0.05 0.02,-0.03 0.07,-0.08 0.09,-0.08 0.33,-0.16 0.46,-0.17 0.32,-0.02 0.38,-0.08 0.53,-0.04 0.32,0.08 0.37,-0 0.38,0.25l-0.46 0.24c-0.3,0.18 -0.93,0.3 -1.21,0.04l0.23 -0.24zm-0.27 0.21l0 0.1c0.5,0.3 1.05,0.07 1.51,-0.15 0.31,-0.15 0.28,-0.22 0.28,-0.37 -0.34,-0.21 -0.71,-0.15 -1.07,-0.08 -0.28,0.06 -0.35,0.06 -0.55,0.26 -0.05,0.05 -0.16,0.17 -0.16,0.23z"/>
   <path class="fil2" d="M19.86 6.58l0.02 -0.01c0.27,0.03 0.64,-0.05 0.88,-0.09 0.19,-0.03 0.74,0.02 0.77,-0.19 -0.2,-0.1 -0.51,0.01 -0.63,0.03 -0.09,0.01 -0.16,0 -0.25,0.02l-0.87 0.16c0.1,0.04 0.05,0.04 0.08,0.08z"/>
   <path class="fil1" d="M11.74 6.46c-0,0 -0.04,0.13 -0.06,0.16 0.01,0.01 0.01,0.01 0.01,0.02 0.02,0.24 0.08,0.23 0.33,0.22 0.03,-0 0.08,-0 0.11,-0.01 0.08,-0.02 0.04,-0 0.08,-0.03 -0.39,0 -0.44,0.04 -0.45,-0.12l0.01 -0.12c0.06,-0.16 0.25,0.02 0.33,0.07 0.11,0.06 0.26,0.04 0.43,0.03l-0.01 -0.03 -0.05 -0.03c-0.05,-0.21 -0.29,-0.41 -0.53,-0.41 -0.01,0.1 0,0.04 -0.03,0.11l-0.04 0.07c-0.07,0.11 -0,0.07 -0.14,0.08z"/>
   <path class="fil4" d="M24.55 30.85c0.21,-0 0.56,-0.2 0.74,-0.3l0.49 -0.28c0.12,-0.06 0.1,-0 0.14,-0.15l-0.38 0.14c-0.07,0.03 -0.1,0.05 -0.17,0.09l-0.68 0.35c-0.11,0.07 -0.1,0.04 -0.13,0.15z"/>
   <path class="fil2" d="M12.21 6.83c0.2,0 0.2,-0.02 0.4,-0.02l0.06 -0.09c0.1,0.04 0.03,0.03 0.06,-0.03l-0.2 -0.01c-0.17,0.01 -0.32,0.03 -0.43,-0.03 -0.08,-0.04 -0.27,-0.23 -0.33,-0.07l-0.01 0.12c0.01,0.16 0.06,0.12 0.45,0.12z"/>
   <path class="fil4" d="M34.99 30.78c0.15,-0.01 0.24,-0.08 0.39,-0.12 0.15,-0.05 0.93,-0.4 1.05,-0.57 -0.24,0 -0.42,0.13 -0.57,0.21l-0.85 0.47c-0,0 -0.01,0.01 -0.02,0.02z"/>
   <path class="fil1" d="M10.43 19.13l0.11 -0.07c0.03,0.05 0.05,0.13 0.07,0.18l0.01 -0.07c0,-0.15 0.05,-0.24 0.11,-0.35l0.07 -0.18c0.05,-0.11 0.03,-0.01 0.05,-0.16l-0.27 0c-0.11,0.19 -0.04,0.22 -0.15,0.66z"/>
   <path class="fil1" d="M25.76 4.42c0.13,-0.05 0.06,-0.05 0.19,-0.08 -0.04,0.06 -0.15,0.15 -0.08,0.21 0.08,0.07 0.22,0 0.26,-0.06 0.09,-0.14 0.06,-0.5 0.06,-0.57 -0.15,0.09 -0.02,-0.01 -0.11,0.11 -0.05,0.07 -0.04,0.06 -0.09,0.12 -0.08,0.1 -0.16,0.16 -0.22,0.26z"/>
   <path class="fil2" d="M17.72 4.99c0.2,0 0.27,-0.19 0.27,-0.38 -0.28,0 -0.36,0.09 -0.38,0.35 0.05,0.02 0.08,0.03 0.11,0.03z"/>
   <path class="fil2" d="M22.39 17.92l0.3 0c0.05,-0.03 -0.08,-0.03 0.11,-0.03 -0.06,-0.08 -0.05,-0.04 -0.08,-0.14 -0.16,0 -0.33,0.03 -0.42,0.14l0.08 0.03z"/>
   <path class="fil1" d="M15.02 6.97c0.2,-0.02 0.21,-0.1 0.49,-0.1 -0.04,-0.14 0.06,-0.07 -0.34,-0.1 -0.08,0.11 -0.11,0.08 -0.15,0.21z"/>
   <path class="fil1" d="M26.63 5.1c0.15,-0.03 0.08,-0.03 0.2,0.03 0.15,0 0.02,0.01 0.08,-0.04 -0.03,-0.02 -0.04,-0 -0.08,-0.03 0.01,-0.15 0.1,-0.19 -0.11,-0.21 -0.06,0.12 -0.01,0.13 -0.09,0.24z"/>
   <path class="fil1" d="M18.4 6.39l0.01 -0.08 -0.12 0.04c0.02,-0.08 0.03,-0.09 0.04,-0.18 -0.15,0.04 -0.15,0.1 -0.23,0.21 0.16,0.03 0.1,-0.01 0.3,0.01z"/>
  </g>
 </g>
</svg>
