<?xml version="1.0" encoding="UTF-8"?>
<!DOCTYPE svg PUBLIC "-//W3C//DTD SVG 1.1//EN" "http://www.w3.org/Graphics/SVG/1.1/DTD/svg11.dtd">
<!-- Creator: CorelDRAW -->
<svg xmlns="http://www.w3.org/2000/svg" xml:space="preserve" width="67.18mm" height="32.9121mm" version="1.1" style="shape-rendering:geometricPrecision; text-rendering:geometricPrecision; image-rendering:optimizeQuality; fill-rule:evenodd; clip-rule:evenodd"
viewBox="0 0 1728.17 846.65"
 xmlns:xlink="http://www.w3.org/1999/xlink"
 xmlns:xodm="http://www.corel.com/coreldraw/odm/2003">
 <defs>
  <style type="text/css">
   <![CDATA[
    .fil23 {fill:black}
    .fil14 {fill:#070606}
    .fil1 {fill:#090705}
    .fil31 {fill:#1C1B1B}
    .fil10 {fill:#1E120A}
    .fil19 {fill:#23150C}
    .fil3 {fill:#2C1706}
    .fil15 {fill:#2C1A0C}
    .fil22 {fill:#3B3329}
    .fil37 {fill:#56422C}
    .fil13 {fill:#564837}
    .fil29 {fill:#584836}
    .fil34 {fill:#66533B}
    .fil25 {fill:#671D11}
    .fil42 {fill:#685A46}
    .fil32 {fill:#723717}
    .fil48 {fill:#75644A}
    .fil36 {fill:#877B65}
    .fil45 {fill:#888787}
    .fil46 {fill:#95876A}
    .fil44 {fill:#969089}
    .fil47 {fill:#A5987A}
    .fil12 {fill:#B56425}
    .fil24 {fill:#C48B66}
    .fil17 {fill:#C58A65}
    .fil39 {fill:#C87626}
    .fil40 {fill:#CB986F}
    .fil41 {fill:#D0AB77}
    .fil35 {fill:#D28824}
    .fil7 {fill:#D98C24}
    .fil28 {fill:#E2BC84}
    .fil11 {fill:#E8C389}
    .fil16 {fill:#EAC489}
    .fil18 {fill:#EAC58C}
    .fil38 {fill:#EDB26D}
    .fil21 {fill:#F1AF67}
    .fil0 {fill:#F48534}
    .fil43 {fill:#F7E99B}
    .fil27 {fill:#F7F3E6}
    .fil33 {fill:#F8ECC3}
    .fil4 {fill:#F9EEC4}
    .fil26 {fill:#F9F2D4}
    .fil30 {fill:#FAFAFA}
    .fil6 {fill:#FCF5D6}
    .fil9 {fill:#FDC121}
    .fil2 {fill:#FDFDFD}
    .fil5 {fill:#FEC221}
    .fil8 {fill:#FEFCED}
    .fil20 {fill:#FFDB86}
   ]]>
  </style>
 </defs>
 <g id="Camada_x0020_1">
  <metadata id="CorelCorpID_0Corel-Layer"/>
  <path class="fil0" d="M1566.54 39.09c-11.5,-54.71 -76.29,-43.46 -115.32,-17.74 -3.91,2.56 -8.12,7.52 -12.03,7.22 -3.16,-0.3 -8.57,-4.81 -12.93,-5.71 -5.26,-1.05 -11.58,-1.05 -18.04,-2.41 -27.86,-5.67 -43.94,32.08 -44.2,35.03 1.65,6.32 0.6,16.09 1.65,22.85 1.5,9.32 -1.8,12.03 -5.11,18.79 -8.57,17.59 -5.71,22.1 -9.02,41.2 -6.62,3.46 -9.02,0.75 -17.29,6.92 -20.9,15.64 -17.89,44.35 -19.7,54.28 -1.05,6.01 -7.67,8.72 -12.78,11.88 -7.67,4.66 -11.28,3.01 -20.9,3.91 -43.15,3.91 -43.45,15.34 -41.5,-6.32 1.5,-16.24 -5.56,-25.11 -23.91,-25.11 -21.2,0 -42.4,0.75 -63.6,1.2 -25.86,0.45 -36.69,-5.11 -44.8,18.34l-74.58 213.35c-2.41,6.91 -4.96,18.34 -7.67,24.51 -13.08,-7.82 4.81,-30.52 9.02,-44.95 4.96,-17.59 8.57,-35.93 12.78,-53.68 5.71,-24.36 24.06,-87.96 20.3,-109.61 -8.87,-50.97 -46.01,-44.35 -86.6,-44.2 -19.7,0.15 -76.98,0 -95.17,3.01 -8.12,1.35 -21.8,-1.2 -31.88,-1.05l-97.43 1.35c-38.04,0.3 -32.02,6.92 -43.15,55.93l-36.99 160.43c-8.42,35.18 -18.04,72.62 -24.81,107.5 -9.77,-0.15 -52.02,1.05 -56.53,0.15 -1.35,-9.17 57.13,-250.03 65.7,-285.37 11.73,-47.21 -26.01,-36.24 -61.19,-35.93 -52.47,0.3 -40.29,3.31 -60.59,92.32l-37.89 161.03c-1.35,2.41 -0.45,1.2 -2.1,3.01 -0.15,-25.86 13.08,-132.46 16.39,-166.89 9.92,-101.49 20.75,-88.26 -84.8,-86.3 -41.65,0.75 -35.48,1.96 -49.01,41.35 -7.67,22.25 -67.36,196.81 -71.27,202.67 -3.46,-4.21 4.36,-27.96 5.86,-34.13l25.26 -108.55c5.26,-23 20.45,-58.49 -13.53,-59.84 -22.7,-0.9 -69.01,4.36 -87.36,0.9 -2.1,-7.22 6.01,-33.68 7.97,-42.1 1.94,-8.39 5.08,-37.69 12.18,-41.35 3.16,-1.35 58.19,-1.2 67.21,-1.35 29.92,-0.6 26.61,-8.87 33.23,-35.33 19.28,-77.45 26.52,-85.67 -26.61,-85.1 -30.07,0.3 -108.55,-0.9 -130.96,8.42 -36.69,15.19 -41.95,44.05 -52.02,87.5 -25.56,111.56 -53.83,226.13 -78.78,338.59 -6.77,30.22 -15.04,60.14 -13.23,91.41 0.6,9.02 4.96,24.51 4.06,30.82 -10.37,4.21 -11.13,4.96 -13.83,17.14l-42.7 181.78c-14.73,59.99 -7.37,56.53 60.74,53.38 9.92,-0.45 18.34,-1.2 27.36,-3.16 14.88,-3.16 60.89,8.87 69.91,-6.01 4.32,-7.27 -0.52,-8.14 5.86,-10.07 1.8,6.01 0.6,8.87 5.71,12.78 9.17,6.92 41.95,4.96 50.82,1.96 10.52,-3.61 10.82,-13.38 11.88,-25.86 3.76,-40.44 17.14,-149 16.99,-177.72l45.56 0 5.86 2.26c-4.81,5.86 -23.6,7.97 -35.93,24.06 -10.68,13.83 -8.42,35.48 3.91,44.05 24.06,16.69 80.59,-23.46 90.06,-21.2 1.96,2.26 16.69,66.16 16.54,71.42 -13.98,-1.35 -4.51,-10.68 -36.38,1.5 -23.46,8.87 -46.01,17.89 -68.26,29.02 -31.88,15.94 -30.07,49.62 -6.46,57.44 25.56,8.57 98.33,-13.08 121.48,-20.9 81.94,-27.66 177.41,-76.83 242.37,-134.87 3.46,-3.01 3.46,-4.51 8.87,-4.81 1.2,10.68 -5.56,14.13 -8.27,22.85 -9.02,29.17 8.57,52.62 41.95,51.72 23.3,-0.75 56.08,-9.32 77.28,-18.79 8.72,-3.91 14.88,-10.82 20.15,-12.78 6.62,10.52 1.8,30.97 5.56,43.45 3.46,11.73 14.73,22.55 29.92,14.13 17.59,-9.62 16.39,-52.77 26.46,-71.87 10.98,1.5 27.97,56.23 77.43,58.94 17.44,0.9 20.45,-7.67 26.61,-18.19 23.46,-0.75 74.88,-9.77 94.12,-25.41 16.54,-13.53 7.37,-2.41 12.33,28.42 2.41,14.73 6.01,17.29 12.18,24.66 43.6,6.46 29.62,-48.71 46.61,-73.52 9.02,2.41 30.52,58.34 75.63,58.79 20.15,0.15 18.64,-9.47 28.12,-17.74 2.3,-1.27 100.95,-9.2 136.37,-43.45 3.31,-3.16 9.32,-10.52 12.63,-12.63 5.41,2.1 32.02,35.48 39.24,42.85 32.63,33.38 67.36,38.19 79.08,45.41l32.78 29.32c11.73,9.02 45.41,0.15 52.47,-3.61 9.77,-5.26 11.13,-12.93 15.94,-24.81 30.87,-76.43 1.47,-52.46 -13.38,-86 -12.18,-27.51 -47.21,-92.32 -50.67,-117.28 13.83,4.51 47.81,53.83 120.28,47.36 62.11,-5.43 102.98,-65.78 92.47,-112.61 -11.73,-52.32 -51.42,-22.55 -85.85,-39.99 -10.98,-5.56 -16.09,-12.63 -22.25,-19.55 -12.03,-13.98 -4.36,-16.09 -5.56,-35.93 -1.5,-25.56 -14.73,-29.32 -26.76,-35.93 -3.16,-1.65 -7.52,-6.46 -11.43,-9.92 6.59,-8.31 92.98,-20.73 74.58,-70.52 -4.66,-12.48 -27.06,-29.77 -38.49,-37.29 -28.12,-18.79 -64.8,-22.55 -72.62,-28.42 -0.75,-8.87 19.1,-78.03 22.85,-92.32 5.71,-21.2 13.53,-85.55 4.66,-104.8l0.9 0.46z"/>
  <path class="fil1" d="M669.24 718.68c-5.87,-18.16 67.16,-19.01 79.24,-19.24 -4.81,10.22 -70.52,23 -79.24,19.24zm268.08 -4.21c2.26,-11.88 21.95,-15.64 35.78,-17.14 9.32,-0.9 38.49,-6.46 43.45,-1.96 -7.07,9.47 -61.8,19.7 -79.39,19.1l0.15 0zm-132.46 -2.55c7.81,-13.03 25.91,-65.98 57.43,-22.55 23,31.72 23.46,40.6 63.15,49.16 0.6,6.92 -0.75,10.82 -3.01,14.88 -59.09,8.87 -69.91,-89.76 -94.72,-54.13 -12.98,18.63 -15.16,51.7 -19.55,64.2 -3.31,9.47 -11.88,7.82 -13.53,-4.81 -2.26,-16.54 -3.16,-32.78 -6.46,-49.16 -3.31,-15.64 -15.34,-44.5 1.35,-38.19 9.77,3.76 9.77,32.93 15.49,40.44l-0.15 0.15zm-64.5 0.15c5.41,-2.1 15.94,-9.02 20.75,-5.41 22.55,17.59 -92.02,43.45 -107.65,27.97 -7.52,-7.52 -4.96,-21.2 0.45,-29.32 13.38,-20.45 59.69,-26.16 83.45,-27.36 -4.96,-3.31 -39.39,-4.51 -44.8,-4.66 -18.79,-1.05 -44.35,3.61 -40.29,-9.77 3.96,-13.1 77.99,-4.76 90.81,-1.8 9.77,2.26 31.12,9.92 26.01,22.25 -4.81,11.58 -58.79,7.22 -84.5,15.79 -9.17,3.01 -28.42,11.73 -21.65,24.21 7.67,9.02 63,-5.86 77.58,-11.73l-0.15 -0.15zm288.98 -9.92c16.24,13.08 -33.38,24.21 -43.6,26.76 -15.34,3.91 -49.92,12.93 -63.3,1.8 -7.52,-6.32 -6.01,-19.7 -1.2,-28.42 14.13,-26.01 79.39,-27.82 83.14,-29.77 -7.82,-5.56 -33.98,-3.91 -45.41,-4.06 -20.9,-0.3 -42.7,4.51 -38.79,-10.37 3.31,-12.62 123.92,-8.67 117.73,19.1 -4.51,20.75 -115.02,-0.45 -107.05,42.25 12.48,4.51 40.14,-1.5 52.92,-4.51 19.63,-4.67 41.06,-17.2 45.56,-12.78zm-897.75 56.84c-1.96,-3.16 -1.8,-4.36 -1.35,-9.32 0.95,-5.82 26.03,-114.35 29.92,-119.53 6.9,8.63 -5.82,21.61 -2.1,36.38 2.1,8.57 4.96,5.11 1.35,15.94 -5.26,15.34 -22.85,70.97 -27.51,76.53l-0.3 0zm91.86 63.3c-6.62,1.5 -29.62,3.01 -35.18,0.3 -0.83,-15.6 3.75,-31.65 1.66,-36.99 -31.05,-7.88 -25.53,10.58 -34.88,35.93 -1.05,2.1 -0.6,1.35 -1.8,2.56l-36.24 1.05c-0.11,-2.69 68,-203.76 75.33,-217.41l52.32 -1.2 -21.2 215.76zm-62.39 -203.88c2.71,-3.91 17.59,-8.12 22.4,-7.37l-15.34 47.96c-1.8,-2.1 -1.8,1.65 -1.5,-5.26 0.3,-5.41 7.67,-26.01 5.41,-33.68l-10.98 -1.65zm-8.72 2.26c2.71,15.79 -29.92,141.48 -37.89,173.96 -3.46,14.13 -4.96,21.05 -16.39,26.91 -10.82,5.56 -66.61,7.67 -81.19,4.96 -1.52,-8.29 37.87,-171.93 43.9,-197.87 2.26,-9.62 2.41,-22.25 13.98,-18.34 -1.05,4.96 -13.83,13.98 -7.22,27.51 5.11,10.68 20.3,3.16 28.57,0.3 7.82,-2.71 50.67,-17.89 56.38,-17.59l-0.15 0.15zm96.83 -30.07l6.77 -1.95c1.5,16.3 -0.77,1.44 -2.55,15.04 -6.01,-1.05 -4.66,-3.46 -12.18,-4.21 -4.96,-0.45 -11.13,0.45 -16.54,0.3 2.79,-4.26 21.38,-8.81 24.66,-9.02l-0.15 -0.15zm14.88 8.72c-2.64,-4.15 -1.54,-11.88 4.51,-15.04 0.5,7.97 -2.47,15.04 -4.51,15.04zm4.36 17.44c-0.3,-5.71 6.16,-21.35 8.42,-27.51 3.46,-9.77 5.71,-9.32 20.75,-14.28 9.02,-3.01 48.71,-17.74 53.68,-16.69 3.91,15.04 -8.42,43.6 -12.18,57.74l-70.67 0.75zm370.92 -26.01c-2.73,-7.64 10.45,-40.84 12.63,-43.45 1.5,8.12 -4.21,27.21 -6.46,37.29 -1.5,6.16 -0.45,7.52 -6.01,6.32l-0.15 -0.15zm-285.97 -92.32c9.02,0.6 11.43,21.65 13.08,28.42 9.62,0.15 146.89,-38.19 166.29,4.21 12.33,26.91 -44.35,58.19 -50.37,68.86 26.76,-1.65 52.62,-10.68 92.77,-10.68 26.76,0 68.86,3.76 80.14,21.95 22.4,36.54 -66.61,94.57 -87.96,108.7 -63,41.35 -132.91,75.33 -209.14,96.38 -16.99,4.66 -74.42,20 -87.96,8.42 -3.46,-13.38 7.52,-17.29 17.59,-21.95 10.68,-4.96 79.99,-39.24 86.91,-29.77 9.04,18.67 -39.54,21.8 -47.36,32.33 40.14,-2.41 112.61,-37.59 144.19,-54.13 21.5,-11.28 179.52,-102.39 163.13,-131.11 -19.1,-33.23 -235.9,20.6 -242.67,34.13 -1.8,5.56 6.92,49.02 10.37,56.08 7.82,-0.3 2.1,-2.26 9.47,-3.46 11.43,8.57 12.33,43.9 1.35,55.03 -11.43,1.5 -14.58,-6.16 -17.29,-16.69l-19.24 -82.99c-12.33,0.3 -83.6,45.71 -95.02,26.76 -15.19,-25.26 85.1,-50.22 88.86,-57.58 0.45,-3.31 -12.63,-77.73 -14.28,-82.84l-213.65 67.06c-11.88,3.61 -24.21,7.22 -35.93,11.43 -12.93,4.66 -29.02,13.83 -33.38,6.77 -5.56,-14.43 13.53,-17.74 24.36,-21.2 59.7,-19.94 119.05,-42.97 179.97,-60.74 12.93,-3.76 68.56,-17.89 74.27,-21.5 1.96,-10.98 -6.77,-23.6 1.8,-31.88l-0.3 -0.01zm-58.19 39.24c3.61,-14.88 11.73,-34.28 17.14,-49.47l86.15 -244.92c9.92,-28.42 2.56,-23 42.4,-24.36 15.79,-0.45 49.47,-3.01 63.3,-1.5l-20.9 214.25c-2.1,21.65 -3.61,50.52 -7.52,71.27 -5.71,1.8 -20.6,1.5 -27.66,2.26 -24.51,2.71 -64.95,12.48 -76.23,13.23 -3.46,-10.07 -5.86,-26.76 -17.29,-26.91 -16.99,-0.15 -8.87,23.3 -10.52,33.38 -4.06,2.26 -43.45,12.48 -48.86,12.48l-0 0.3zm349.42 -322.35c0,12.68 -45.42,201.6 -54.28,241.01 -4.06,17.89 -16.24,66.46 -18.04,79.99 15.04,1.35 63.6,-2.56 72.47,0.3 -0.45,8.57 -10.98,44.66 -15.34,50.97 -6.62,0.15 -20.6,-3.76 -28.87,-4.66 -33.83,-3.61 -60.74,3.01 -90.06,5.71 2.86,-10.37 26.46,-22.1 30.22,-43.75 4.96,-28.12 -21.35,-33.23 -34.58,-38.04 1.65,-19.1 11.73,-53.07 16.54,-73.37 7.52,-32.02 47.66,-210.79 51.42,-216.81l70.82 -1.2 -0.3 -0.15zm130.51 392.27c-9.92,1.35 -108.55,4.21 -113.37,1.2 -0.9,-0.6 -9.92,-10.98 -10.37,-12.63 -1.64,-5.78 70.08,-308.33 77.43,-339.34 11.38,-47.97 4.85,-43.78 26.16,-44.06 35.93,-0.3 80.44,-2.71 113.67,-1.5l-17.44 71.12 -59.09 1.05c-3.31,8.87 -19.7,79.84 -19.55,87.5l57.13 -1.8c0.45,7.97 -13.38,65.25 -16.24,70.81 -12.63,1.65 -48.56,-1.2 -57.13,2.1 -4.66,2.71 -5.71,16.69 -6.77,21.8 -3.16,13.68 -16.39,63.3 -13.98,70.06l59.69 -0.6 -20.15 74.28zm-443.09 -347.46l-58.19 254.24c-1.8,7.67 -5.11,30.67 -9.77,33.68l-133.51 44.8c-24.96,8.87 -43.6,20.6 -52.77,-20.9 -5.71,-26.46 1.5,-52.92 7.07,-77.28l83.9 -360.54c18.34,-79.69 34.43,-74.42 101.94,-76.38 13.53,-0.3 78.03,-3.16 85.4,-0.6 2.71,6.32 -15.17,72.49 -15.94,74.12 -1.5,3.16 -0.15,1.2 -2.56,3.01 -5.71,3.31 -64.5,1.5 -76.53,1.8 -14.28,0.3 -17.59,6.16 -20.6,18.49l-80.59 347.76c-1.96,8.27 -8.12,26.76 -2.71,33.53 4.66,5.71 24.96,5.41 33.68,3.76 2.86,-5.26 46.01,-190.5 45.56,-196.96l-14.58 0.15c-1.05,-7.97 15.64,-70.82 18.79,-80.89l91.42 -1.8zm86.91 505.48c5.95,-13.46 9.03,-23.35 6.77,-39.84 -4.06,-29.62 -17.14,-22.85 -20.9,-27.66 -2.86,-6.92 -7.67,-33.53 -6.46,-40.29 13.68,-10.68 80.29,-25.56 104.34,-30.52 17.84,-3.69 121.11,-11.89 126.6,-3.16 7.97,14.13 -77.28,71.27 -92.92,81.34 -16.09,10.37 -100.28,61.8 -113.82,62.55 -4.66,4.81 -36.99,15.49 -41.35,15.94 0.3,-17.89 -6.46,-23.46 -23.6,-17.89 -20.3,6.62 -89.31,33.53 -93.22,48.86 -8.12,31.88 49.47,17.59 67.81,13.53 26.76,-5.71 49.62,-12.63 73.82,-20.75 60.59,-20.3 163.43,-74.58 213.2,-118.18l24.81 -21.35c4.51,3.91 2.26,8.87 11.88,11.28 7.82,1.96 12.63,-0.9 20.15,0 -1.2,8.42 -31.42,11.28 -32.93,38.94 -2.71,47.66 72.32,24.66 99.08,15.79 39.54,-13.23 24.96,-28.57 21.05,-37.44 3.16,-3.31 8.42,-7.67 13.23,-7.97 2.56,4.06 9.17,41.05 10.22,47.96 1.96,13.68 -2.71,43.15 16.09,38.94 18.79,-4.21 12.33,-58.19 34.58,-78.33 13.86,2.99 28.06,54.81 71.42,61.95 22.85,3.76 16.69,-5.11 24.06,-16.99 11.28,-1.8 24.66,-1.05 37.44,-3.16 16.69,-2.86 46.91,-10.68 59.84,-19.85 15.79,-11.28 2.41,-24.81 1.65,-26.46 3.31,-3.46 7.52,-8.27 13.83,-7.82 4.21,9.47 7.67,32.33 9.17,43.3l3.16 -1.5c7.4,-27.1 -20.76,-56.72 -1.5,-61.35 10.52,7.82 12.33,28.72 16.24,42.1 2.88,-1.27 1.57,2.44 5.41,-9.32 5.57,-17.05 25.75,-30.69 14.58,-30.52 -9.02,2.71 -9.77,14.73 -17.14,19.85 -7.55,-14.41 -8.18,-31.14 -22.55,-27.97 -5.56,1.2 -4.66,3.91 -9.92,6.46 -5.71,-3.16 -8.87,-7.52 -16.09,-11.13 -16.99,-8.27 -50.37,-9.77 -69.01,-9.32 -20.9,0.45 -38.94,-2.26 -42.4,10.37 -5.41,20.45 13.53,19.24 29.77,19.55 -3.53,12.35 -30.94,-2.15 -33.23,52.47 -37.84,-5.3 -46.3,-74.99 -81.64,-59.84 -15.79,6.77 -16.39,20.15 -23.91,24.21 -3.91,-6.92 -4.51,-16.69 -10.22,-23.3 -7.67,-8.87 -15.64,-4.66 -20.6,2.1 -10.68,-4.06 -9.02,-14.73 -51.72,-19.1 -40.75,-4.21 -39.24,0.15 -66,-0.3 -0.75,-6.32 2.41,-9.62 4.21,-15.49 1.65,-5.26 1.96,-12.03 3.31,-16.69 16.99,-2.56 107.5,0 113.06,-3.46 4.39,-3.58 28.48,-83.28 24.66,-89.31 -9.32,-7.37 -44.05,-1.05 -59.39,-3.16l17.29 -72.02c12.48,-1.65 28.12,-1.2 41.35,-1.35 21.2,-0.15 17.74,0.15 22.4,-19.24l13.68 -59.99c0.6,-19.85 -32.02,-6.92 -55.93,-9.62 0.15,-7.22 13.08,-63.3 15.94,-67.51 8.12,-2.26 37.89,-1.35 48.71,-1.5 18.04,-0.3 12.78,-16.39 18.49,-29.02 1.5,-10.07 3.91,-19.55 6.46,-29.62 1.8,-7.07 8.57,-22.4 3.31,-28.72 -5.11,-6.46 -24.51,-2.71 -33.68,-2.71 -20.6,0 -96.38,0 -107.2,2.41 -7.34,13.53 -65.71,285.5 -78.18,327.01 -6.32,-2.41 -2.86,-5.56 -14.58,-6.01 -16.84,-0.6 -39.84,2.56 -58.64,1.35 1.35,-12.78 6.01,-28.12 8.87,-40.9 9.62,-42.7 65.55,-269.43 60.14,-276.95 -8.27,-5.56 -29.17,-2.86 -40.9,-2.56 -33.68,1.05 -43.15,-4.36 -46.61,10.22l-63.9 275.59c-1.35,6.32 -1.5,13.98 -10.22,12.93 -7.52,-1.05 -4.96,-8.72 -4.21,-15.49 3.93,-37.33 28.88,-268.21 24.96,-280.1 -9.62,-3.16 -55.03,-0.15 -69.31,0.15 -46.15,0.75 -37.89,-3.91 -47.81,24.21l-93.37 264.62c-4.36,12.78 -12.18,44.5 -23.46,46.16 -1.24,-7.84 51.95,-230.54 60.89,-269.73 8.27,-35.78 -0.9,-23.3 -76.08,-23.3 -19.1,0 -24.66,-3.16 -28.27,8.57 -4.81,15.64 -21.2,79.24 -20.15,88.71 10.33,6.27 15.9,-2.71 11.28,15.94 -7.22,29.32 -34.43,152.3 -39.39,164.48 -5.86,1.35 -14.58,2.56 -20.75,-0.45 -2.1,-8.87 67.96,-302.66 78.33,-347.01 10.07,-43.15 1.5,-35.78 48.71,-36.54 59.09,-0.9 52.17,4.66 59.69,-26.01 19.7,-80.44 21.05,-72.77 -10.98,-72.32l-79.69 1.2c-40.9,0.9 -61.8,1.2 -79.99,27.66 -14.13,20.6 -38.34,139.83 -45.56,172.15 -19.55,87.81 -42.25,176.96 -61.34,264.32 -4.81,21.95 -8.72,48.71 -0.3,71.12 1.35,3.76 9.92,16.84 4.96,18.34 -12.33,3.46 -14.88,-5.26 -20.3,16.54l-35.63 153.66c-17.44,75.18 -22.85,60.59 40.75,59.69 24.51,-0.3 23.91,-0.6 44.66,-7.22 4.81,3.01 4.06,5.41 10.68,6.62 3.31,0.6 36.54,1.35 40.9,-4.51 8.87,-12.03 3.01,-37.44 23.6,-34.73 4.06,11.28 -5.71,27.82 0.6,35.93 6.01,3.76 26.76,1.96 35.18,1.5 13.83,-0.75 11.58,-10.22 12.78,-23.76l13.68 -132.01c1.5,-16.69 -0.6,-54.13 12.63,-58.94 2.1,3.16 1.05,4.36 5.41,11.58 16.54,2.26 46.91,0 64.95,-0.15 14.13,-0.15 15.64,0 19.85,-12.03 2.26,-6.16 4.06,-19.24 8.42,-23.76 2.41,5.11 8.27,31.12 7.82,37.44 -17.44,10.22 -89.01,26.31 -89.61,55.48 -0.83,42.96 84.58,-10.67 98.18,-12.03 6.63,21.02 14.3,72.33 23.15,88.86 7.22,13.53 17.74,7.97 23.46,5.41l-1.06 -0.15z"/>
  <path class="fil2" d="M331.85 260.11l-91.11 1.65c-3.16,10.07 -19.85,72.92 -18.79,80.89l14.58 -0.15c0.3,6.46 -42.7,191.7 -45.56,196.96 -8.72,1.65 -29.02,1.96 -33.68,-3.76 -5.41,-6.62 0.75,-25.26 2.71,-33.53l80.59 -347.76c3.01,-12.33 6.32,-18.19 20.6,-18.49 12.03,-0.3 70.82,1.35 76.53,-1.8 5.16,-3.33 15.67,-57.11 18.19,-67.66 0.9,-3.76 1.8,-6.32 0.3,-9.47 -7.37,-2.56 -72.02,0.3 -85.4,0.6 -67.51,1.8 -83.6,-3.31 -101.94,76.38l-83.9 360.54c-5.56,24.36 -12.93,50.97 -7.07,77.28 9.17,41.65 27.82,29.77 52.77,20.9l133.51 -44.8c4.51,-3.01 7.97,-26.01 9.77,-33.68l58.19 -254.24 -0.3 0.14z"/>
  <path class="fil3" d="M1490.92 772.81c11.28,-4.81 28.72,-0.3 42.55,-11.28 10.22,-7.97 14.73,-21.5 21.5,-33.68 7.22,-0.15 11.73,3.91 16.24,7.67 0.45,6.92 -11.58,39.99 -14.88,44.8l-10.52 9.77c-6.77,4.66 -27.21,6.16 -34.88,1.96 -3.16,-1.8 -18.64,-16.69 -20.15,-19.24l0.15 0zm-283.41 -66.76c2.03,-6.98 15.86,-9.33 22.7,-11.13 15.19,-4.06 18.79,-7.82 20,8.87 -10.98,1.8 -33.98,9.32 -42.7,2.26l0 0zm70.51 10.82c-15.94,6.46 -78.18,23.46 -89.31,5.26 -9.02,-14.73 4.81,-32.02 13.08,-36.84 6.46,-3.91 33.38,-14.73 43,-12.48l0.45 11.13c-13.38,4.06 -20.75,1.65 -33.38,8.72 -16.84,9.47 -30.52,34.88 31.72,19.85 8.42,-2.1 9.32,-3.61 17.59,-0.45 5.11,1.96 12.63,2.56 16.84,4.96l0 -0.15zm10.83 -15.64c-13.87,-0.4 -32.73,2.09 -31.88,-18.19 0.6,-13.83 18.34,-31.57 26.61,-44.5 12.06,-18.85 15,-31.47 20.9,-50.67 5.26,3.95 6.85,18.34 10.98,27.21 9.56,20.54 31.85,40.12 22.85,52.32 -11.58,15.79 -24.81,27.06 -49.46,33.68l0 0.15zm-51.42 -38.49c2.1,-3.91 12.18,-12.03 17.74,-13.23 -0.6,7.82 -8.72,18.64 -17.74,13.23zm25.71 -5.86c0.15,-9.62 18.49,-42.4 24.96,-44.8 0.19,8.12 -17.76,41.4 -24.96,44.8zm222.22 -80.44c11.21,40.97 26.68,67.16 42.7,103.44l14.58 23.76c7.67,12.48 4.66,16.24 -1.35,29.32 -4.81,10.37 -8.27,17.59 -17.74,21.65 -7.37,3.16 -27.36,6.62 -34.13,0.9 -16.13,2.17 -47.94,-10.25 -53.07,-17.59 -16.63,-1.94 -56.92,-49.17 -69.16,-64.35 -4.51,-5.56 -17.14,-21.05 -18.34,-27.06 -4.66,-3.76 -9.32,-14.28 -12.33,-19.24 -2.56,-4.36 -10.07,-15.04 -10.68,-19.85l-8.42 -13.98c-10.52,-20.9 -11.28,-11.13 8.72,-41.65 11.13,-16.99 22.4,-42.7 39.54,-44.96 28.3,-3.63 34.11,30.23 39.24,46.76l16.24 37.74c2.63,-3.72 0.27,-9.08 -1.96,-15.49 -4.51,-12.93 -13.83,-33.23 -12.48,-47.51 -3.46,-5.56 -6.16,-32.33 12.18,-35.33 17.74,-3.01 26.91,5.26 36.69,12.78 24.96,19.24 24.06,29.77 29.77,71.12l0.01 -0.46zm-286.72 88.56c3.01,-6.77 14.43,-5.86 30.07,-19.1 45.6,-38.74 93.33,-155.86 131.86,-160.43 13.23,-1.5 27.97,11.43 27.82,19.85 -9.02,-5.86 -21.5,-13.53 -32.63,-4.06 -24.81,21.2 -65.25,99.38 -98.93,130.81 -9.17,8.42 -38.94,33.68 -58.04,33.08l-0.15 -0.15zm209.14 -175.31c3.31,-19.1 29.47,-14.88 43.15,-7.97 47.3,23.78 99.34,128.75 193.65,112.16 53.98,-9.47 55.93,-51.42 68.41,-54.13 -4.21,30.82 -34.43,55.48 -61.64,63.9 -50.07,15.79 -104.5,-15.49 -132.76,-46.31 -16.39,-17.74 -60.74,-67.66 -83.9,-71.57 -13.23,-2.26 -16.24,2.26 -26.91,3.91zm-159.22 124.04c-9.92,22.79 -70.02,74.13 -109.61,33.98 -3.01,-3.01 -1.35,-0.9 -3.31,-4.51 -1.52,-0.43 -22.83,-14.62 -1.8,-35.48 11.59,-11.5 14.84,-10.36 29.17,-27.66 22.85,-27.36 32.93,-48.26 47.21,-65.85 1.2,-3.16 2.86,-9.02 4.81,-11.73 12.33,-2.71 20.15,0.15 30.22,3.91 19.7,7.52 14.13,1.8 27.82,0 4.51,-4.36 11.58,-4.36 17.74,-10.98 6.32,-6.77 5.56,-11.13 8.27,-17.29 1.5,-3.46 3.01,-1.96 7.07,-3.61 3.31,-1.2 3.76,-2.26 5.56,-3.01 7.52,-3.16 18.04,6.46 36.38,7.97 0.6,5.26 0.6,1.35 -2.26,3.16 -1.8,2.71 -11.58,10.37 -14.88,13.68 -26.05,26.12 -70.07,111.47 -82.39,117.42zm340.39 -103.74c-1.96,-2.71 0.9,-2.56 -8.27,-0.75 -8.12,1.65 -25.11,1.96 -30.67,-3.31 2.41,-3.61 9.02,-7.07 12.33,-9.62 2.56,-6.32 5.26,-7.22 11.73,-10.68 18.75,-9.93 15.63,-18.61 21.65,-27.37l19.85 23.6c11.43,14.43 19.1,16.39 22.85,20.75 7.82,0.15 19.85,5.11 31.57,5.56 10.07,0.3 27.36,-1.65 36.08,0.9 13.68,36.24 -51.57,117.42 -141.78,62.1 -53.83,-33.08 -67.51,-61.64 -97.88,-86 -16.09,-12.93 -20.75,-14.58 -47.06,-14.13 3.97,-11 46.95,-32.67 47.96,-32.18 9.17,7.07 15.64,18.19 14.73,34.58 -1.35,25.56 12.48,18.04 28.72,18.94 8.27,15.49 13.38,13.38 33.23,17.74 34.63,7.51 34.68,1.21 44.95,0l0 -0.15zm-100.44 -58.49c11.28,1.65 20.9,0.9 22.1,12.48 -4.66,6.01 -10.52,8.27 -20.75,6.62l-1.35 -19.24 0 0.15zm-271.99 -97.58l32.93 34.43c-2.26,3.91 -33.98,30.67 -39.99,33.07l7.22 -67.51 -0.15 0zm287.32 0.75c-2.26,-6.01 9.77,-51.57 12.33,-59.24 7.52,-0.6 36.69,9.32 45.11,11.58 -2.56,3.46 -4.36,3.46 -9.17,5.41 -16.85,7.06 -40.48,38.46 -48.26,42.25zm-264.62 -70.22c4.66,-4.06 38.79,-10.07 46.91,-9.77 -4.36,22.55 -8.12,31.12 3.91,51.57 5.86,9.77 11.58,7.07 9.77,22.85 -0.9,7.07 -2.71,20.9 -4.51,26.76 -4.96,-1.35 -4.51,-4.81 -7.36,-10.98 -6.62,-14.58 -24.81,-48.11 -33.23,-59.99 -4.51,-6.46 -14.58,-15.19 -15.49,-20.45l-0 0zm26.91 -20.15c-20.15,1.05 -30.67,8.27 -39.54,9.47 -6.01,-4.96 -3.91,-7.97 -11.43,-10.22 3.58,11.05 5.48,5.13 6.31,11.43 -8.95,4.37 -1.17,-4.33 -19.4,-3.01 41,25.92 38.74,32.3 65.85,85.7 10.22,20.3 14.43,22.85 18.94,31.12 42.7,-0.75 30.07,-5.11 37.29,21.2 1.8,6.32 4.36,10.97 5.86,16.39 1.35,1.2 2.26,0.75 3.01,4.36 1.35,6.32 -14.88,15.04 -20.15,17.29 -6.63,-4.09 -12.95,-9.15 -18.79,-3.31 1.35,1.96 -1.5,1.65 2.26,1.05 12.45,-0.45 21.77,15.51 8.42,20.3 -6.05,-3.7 -8.24,-12.93 -12.63,-12.93 1.31,8.78 5.53,6.57 6.77,12.93 -6.36,-0.93 -11.74,-5.92 -12.18,-14.28 -1.2,-11.43 1.65,-9.47 2.26,-9.92 3.91,-9.32 12.48,-13.08 14.43,-17.14 -3.31,-3.61 -1.35,4.06 -2.71,-3.31 -4.29,3.57 -11.22,2.04 -14.13,3.76 -5.06,2.98 -18.55,43.5 -21.05,51.12 4.96,-4.51 -0.9,-4.51 5.41,-9.47 5.26,2.26 1.65,2.1 4.06,7.67 2.71,-4.36 -0.3,-14.28 5.41,-19.55 6.99,12.39 19.02,26.1 2.41,37.14 -10.07,6.77 -34.13,-4.66 -38.64,-9.47 -0.75,-10.52 6.46,-22.7 7.67,-32.63 1.2,-8.72 -3.76,-7.67 -2.86,-17.14 0.75,-7.22 4.66,-8.42 6.77,-13.53 -16.84,4.36 -5.71,27.96 -13.68,45.56 -10.07,22.1 0.9,26.61 16.54,35.33 -4.47,2.24 -6.2,-1.88 -23,-5.11 -31.57,-6.01 -2.26,-34.73 -6.46,-52.92l-2.86 -12.78c-3.16,3.46 -3.76,26.31 -5.26,32.78 -3.16,14.28 -5.41,15.34 -5.41,31.27 -9.77,-1.8 -21.5,-12.78 -18.64,-25.11 4.06,-17.74 15.49,-12.63 13.53,-29.62 -1.65,-14.28 10.22,-17.59 18.34,-25.11l23 -20.6c6.01,2.86 1.2,4.06 8.12,5.56 -1.07,-19.8 -48.77,-61.47 -49.92,-67.51 -7.07,-3.76 -22.55,-21.05 -25.71,-28.42 5.71,-3.01 2.56,-1.5 7.82,-3.31l0.15 -3.91c-9.17,-0.45 -23.76,-1.35 -24.81,-12.18 -6.92,-17.59 8.12,-21.2 17.74,-27.21 33.71,-21 80.38,-28.44 120.73,-26.76 0.45,-1.96 -1.2,-0.75 -2.56,-5.26 22.17,-17.24 22.77,11.07 2.56,29.77 -9.62,8.87 -24.35,8.57 -40.29,9.62l0.46 0.9zm154.56 -185.99l0.6 1.2c12.63,-7.82 11.58,-17.29 31.27,-28.72 137.12,-79.84 105.7,36.69 81.64,126.15 -4.36,16.24 -8.57,31.88 -13.08,47.66 -4.06,14.58 -1.5,12.63 -12.18,18.94 -5.26,3.16 -11.88,9.32 -13.08,15.94 4.51,-3.31 7.97,-8.57 15.49,-10.82 11.58,-3.61 8.87,3.46 19.1,6.32 34.28,9.32 47.36,8.12 78.78,29.32 8.81,5.87 30,20.13 31.73,29.02 3.15,16.23 -20.61,23.37 -23.6,25.56 -3.76,2.71 -1.96,2.86 -5.56,5.41 -9.32,6.32 -47.36,7.97 -81.19,29.47 1.35,1.96 -2.56,1.5 3.91,1.5 13.23,-3.76 10.98,4.21 18.49,9.62 10.74,7.74 10.69,-2.85 22.7,12.48 2.26,3.01 -0.6,0.75 2.41,3.01 2.71,2.1 24.81,2.1 20.9,30.82l-6.46 14.43 -14.43 -15.04c-4.66,-8.72 -7.37,-17.89 -12.48,-26.76l-3.16 -0.75 6.77 19.24c3.46,8.12 -1.05,4.06 4.21,9.32 0.9,3.61 1.65,2.26 2.56,6.62 11.73,10.68 12.93,33.38 -5.26,37.29 -3.16,-4.81 -7.67,-13.83 -9.47,-19.4 -14.2,-19.24 -7.49,-41.01 -27.21,-40.74 3.76,6.76 10.07,4.96 11.58,14.13 2.41,2.26 0.75,-1.2 1.96,3.76 0.3,1.2 0.15,3.61 0.3,4.96l11.88 32.47c4.18,9.96 -1.61,16.92 -13.38,23.15 -12.18,6.32 -20.6,4.96 -29.62,-1.35 -1.8,-9.02 3.16,-16.39 5.41,-24.36 5.26,2.56 1.2,2.1 6.77,4.06 1.42,-7.57 -13.66,-25.16 -20.75,-40.9l-6.46 -12.48c-5.41,11.28 14.43,29.62 14.73,44.05 0.46,25.86 -28.27,29 -28.27,13.23 1.35,-0.6 34.88,-2.1 19.4,-21.8 -6.62,-8.42 -19.24,-2.71 -26.31,-10.07 -1.65,-1.8 -3.31,-4.96 -4.96,-7.22 -7.07,-10.37 -15.64,-14.43 -15.79,-33.53 -0.15,-14.73 9.02,-24.96 17.29,-30.67 15.19,-10.22 14.13,3.91 33.98,-14.73 57.28,-53.68 87.81,-43.15 95.92,-46.61 -1.81,-8.41 -17.95,-4.46 -34.73,-9.17 -6.77,-2.1 -1.05,0 -3.76,-2.1 -16.39,0.75 -47.96,-17.44 -66.16,-12.78 -4.96,9.17 0.3,12.93 -5.86,19.85 0.75,7.07 -8.12,52.77 -11.58,55.78 -4.21,3.76 -16.09,6.01 -21.8,11.88 -10.3,10.44 -12.8,31.72 -7.67,45.86l3.46 12.33c-15.04,8.72 -27.97,12.63 -39.99,23.15 -19.7,17.29 -18.04,32.48 -23.15,40.14 -4.51,-1.96 -8.57,-10.22 -15.04,-14.43 -15.19,-9.62 -57.74,-19.7 -62.7,-23.6 -0.45,-6.77 0.15,-5.86 3.91,-7.82 13.7,-10.6 21.69,-9.83 13.38,-26.46l-6.16 -14.43c-7.09,-18.7 6.95,-26.23 -25.71,-28.72 -1.5,-5.71 0.9,-13.68 1.96,-19.4 5.41,-30.22 1.35,-13.53 19.55,-23.76 4.51,-2.56 8.27,-5.71 10.82,-10.52 -14.73,2.26 -23.91,10.68 -36.24,-1.65 -6.92,-6.77 -12.33,-19.7 -11.28,-32.93 1.8,-22.55 28.71,-24.96 35.18,-53.98 4.66,-20.6 1.96,-61.19 12.18,-76.53 13.98,-21.05 45.11,19.24 55.03,22.1 -3.91,-10.82 -26.01,-18.94 -25.71,-27.97 9.77,0.3 16.39,12.93 24.21,12.93 5.31,0 21.55,-13.77 17.74,-19.1 -8.42,2.86 -16.24,16.09 -32.33,5.56 -24.81,-16.24 -4.51,-81.79 34.58,-70.52 4.09,-8.16 -3.68,-26.87 -17.29,-25.86 9.62,3.46 15.19,13.38 12.03,19.1 -4.21,0.75 -8.27,0.3 -12.93,1.65 -5.56,1.65 -3.61,3.01 -9.77,2.71 -15.14,-24.85 22.18,-63.85 33.98,-37.74 4.21,9.32 16.09,15.04 11.58,23.3 -3.01,5.71 -6.01,3.31 -7.22,10.22l0.45 -0.3zm11.73 -32.03c2.71,6.01 3.01,9.32 1.2,15.34 -4.36,-2.56 -1.2,0.9 -4.21,-5.71 -5.26,-12.33 -9.47,-5.56 -8.57,-17.29 6.92,0.15 8.87,2.1 11.43,7.67l0.15 -0zm-311.38 153.06l7.22 -0.15c-0.6,3.91 -2.26,4.81 -3.76,7.37l96.23 -1.65c2.1,7.97 -0.15,18.94 -0.6,27.51l-44.66 25.41c-9.92,6.01 -14.73,6.01 -14.73,21.2 0,16.54 4.81,16.99 13.98,23.3l32.02 39.84c2.56,4.96 -6.92,104.19 -10.37,112.01 -1.35,3.16 -4.66,8.12 -5.56,11.88 -3.31,13.68 10.22,34.28 -5.26,61.04 -9.92,17.29 -53.07,72.62 -68.71,75.03 -1.2,-13.83 4.36,-45.11 5.86,-60.89l-6.91 4.66c-0.9,-0.9 0.96,-3.06 -3.46,-6.32 2.1,10.37 -3.31,40.6 -4.96,53.07 -2.56,20.6 4.51,13.23 6.16,21.8 2.41,12.03 -0.75,12.48 5.41,24.66 9.92,19.4 28.57,29.77 49.02,37.59 6.77,2.56 16.39,3.91 23,6.46 -1.8,11.28 -10.37,0.9 -11.43,38.49 -30.67,1.96 -46.91,-74.88 -81.04,-59.54l-6.46 5.26c4.66,1.2 2.71,-2.26 2.71,4.06 17.74,-6.32 18.79,-5.41 29.02,5.86 13.23,14.43 23.91,36.99 38.19,45.71 7.52,4.51 27.36,8.12 29.92,12.03 10.59,16.03 -19.89,21.69 -46.61,-4.66 -14.43,-14.28 -27.97,-41.05 -38.04,-45.71 -29.6,12.36 -24.78,87.41 -40.29,78.49 -7.2,-4.14 -4.36,-31.68 -8.87,-39.84l-0.9 3.31 -3.16 1.5c0.75,11.73 0.45,30.22 5.71,38.94 8.87,14.28 19.4,-1.05 22.7,-10.82 6.01,-18.19 7.82,-56.98 24.66,-63.3 5.26,2.41 30.22,41.35 40.14,49.02 8.57,6.62 18.04,11.43 30.82,13.68 17.59,3.16 18.79,-4.96 23.3,-18.04 23.76,0 46.31,-3.76 68.71,-10.07 7.07,-1.96 11.88,-4.96 18.79,-6.92 16.99,-4.81 24.96,-4.06 39.24,-13.38 18.94,-12.33 19.24,-20.75 26.31,-24.66 9.58,3.19 40.23,57.61 94.12,79.99 11.88,4.96 21.95,5.71 30.22,13.08 29.17,25.86 25.86,33.23 53.98,29.47 31.66,-4.25 32.82,-11.76 43.75,-44.35 15.79,-47.66 -5.11,-25.86 -18.19,-55.03 -12.63,-28.42 -31.27,-63.6 -41.35,-88.41 -5.11,-12.78 -18.94,-52.77 -20.15,-65.85 13.02,6.77 51.5,62.3 113.52,67.06 93.07,7.07 124.49,-74.42 108.55,-107.2 -20,-40.75 -57.13,0.15 -95.92,-39.24 -32.93,-33.38 -16.09,-17.14 -15.49,-45.26 0.6,-29.17 -21.95,-30.67 -29.02,-37.13 -12.05,-11.08 -23.25,-7.95 -26.92,-18.94 19.24,-8.86 88.71,-20.61 95.32,-49.47 0.9,-10.07 -2.71,-13.38 -7.07,-18.79 -18.19,-22.55 -45.71,-36.99 -74.13,-46.16 -48.41,-15.49 -41.35,7.67 -11.88,-107.5 4.66,-18.19 6.32,-30.97 9.32,-50.07 3.46,-22.1 0.9,-33.83 -0.3,-54.43 -7.22,-15.34 -6.01,-18.79 -20.15,-27.21 -40.54,-24.07 -97.64,22.72 -105.7,25.56 -8.12,-6.16 -3.46,-7.97 -18.94,-9.02 -9.17,-0.6 -12.18,-5.41 -22.55,-1.05 -12.18,5.11 -22.25,16.54 -22.85,33.38 -0.45,12.18 6.46,16.24 2.26,24.36 -2.86,5.11 -7.07,8.87 -10.37,16.84 -7.07,16.54 -1.35,31.42 -10.07,43.75 -19.1,1.8 -23,4.06 -28.87,19.7 -6.32,16.84 -2.56,26.91 -4.81,43.9 -14.28,0.3 -12.03,1.65 -21.05,7.37 -5.71,3.61 -16.84,1.5 -24.81,2.26 -12.03,1.2 -37.74,7.97 -46.91,7.37 -1.5,-8.87 4.66,-26.91 0.45,-32.78 -4.21,-5.71 -26.61,-3.01 -34.73,-2.71l-55.33 1.05c-10.22,0.15 -15.34,-1.65 -17.59,2.56l0.31 -0.3z"/>
  <path class="fil2" d="M921.53 378.43c-1.5,-6.46 19.24,-92.32 22.85,-104.64 9.17,-1.5 25.26,-3.01 30.82,2.41 4.81,7.52 -8.42,54.73 -10.98,66.3 -6.32,29.02 -5.71,41.05 -42.7,35.78l0 0.15zm-29.77 -167.64c-1.96,3.31 -92.47,387.46 -92.02,396.48l67.21 -1.2c7.97,-15.34 31.88,-151.11 40.14,-168.24 6.62,-2.1 24.66,-2.41 28.87,2.26 6.46,8.27 -38.04,159.07 -33.38,164.49 3.21,3.07 24.5,0.79 32.02,0.6 21.8,-0.3 32.63,3.61 35.78,-6.46l31.72 -135.92c8.47,-36.71 -3.68,-36.36 -7.67,-45.86 8.87,-6.46 19.1,-5.11 24.51,-27.97l30.22 -129.15c3.46,-15.79 1.8,-33.08 -7.07,-42.1 -9.92,-10.37 -27.51,-9.47 -45.11,-9.17 -34.73,0.45 -70.36,0.9 -104.95,2.26l-0.3 -0z"/>
  <path class="fil4" d="M1357.25 376.63c0.3,-2.26 -0.45,-0.6 2.26,-4.36l1.35 4.51 -0.75 0.3c4.31,3.77 1.2,3.94 16.54,19.7 4.96,5.11 16.84,11.13 21.65,12.33 5.56,-2.56 8.27,-5.11 15.19,-6.16 -3.66,7.46 -17.14,14.02 -23.46,15.94 -11.13,0.9 -20,-6.77 -24.36,-12.63 -6.62,-9.17 -6.77,-16.84 -8.42,-29.62zm-37.44 -16.69c7.67,-33.38 74.13,-35.18 81.34,0 -6.01,-4.06 -14.58,-20.9 -40.75,-19.4 -27.21,1.5 -34.28,15.19 -40.6,19.4zm-16.54 -59.09c7.52,-14.13 3.31,-9.92 17.89,-16.24l15.94 -84.8c0.45,-6.16 1.65,-21.05 4.96,-25.71 4.93,-6.97 12.59,-6.53 20.6,0.75 32.3,29.4 70.19,12.28 84.65,35.03 18.64,29.32 32.78,94.27 13.83,119.83 -6.16,8.27 -9.77,5.86 -19.55,1.8 -47.06,-19.4 -61.94,-33.68 -119.68,-26.31 -7.22,0.9 -23,5.56 -18.64,-4.21l0 -0.15zm132.01 47.96c-7.22,-5.11 -10.22,-4.51 -14.88,-11.28 21.8,2.56 48.71,40.29 58.79,0.45 3.61,-14.13 5.26,-27.36 4.66,-42.7 -0.3,-6.16 -4.51,-39.69 -4.51,-39.99 5.26,2.71 6.16,13.08 7.22,20.75 3.61,24.96 7.67,45.41 -2.71,72.32 -11.58,29.77 -31.57,12.48 -48.56,0.45l-0 0zm84.8 -290.33c5.86,-3.46 10.22,-11.73 16.39,-1.8l-6.92 2.1c3.76,2.71 3.16,1.5 8.57,2.1 -0.9,4.06 -3.76,8.57 -8.72,9.62l-9.32 -12.03zm-69.76 7.82c1.05,-3.01 41.2,-37.29 45.11,-22.4 -6.32,4.21 -12.03,-1.5 -24.81,10.22 -3.91,3.61 -12.63,11.43 -20.45,12.18l0.15 0zm-29.02 13.38c-1.65,6.32 -3.76,11.73 1.2,16.39 5.26,0.3 2.1,2.71 3.31,-2.86 -1.35,-10.07 4.51,-15.94 10.37,-20.15 23.15,-0.6 15.94,4.36 33.08,-8.12 7.52,-5.41 15.19,-13.23 27.66,-12.78 11.58,0.45 18.64,9.17 22.4,18.19 4.96,11.88 -0.3,19.4 -7.52,28.87 -5.56,0.75 -6.16,1.05 -9.47,-2.1 -5.76,-6.86 9.62,-10.63 -13.68,-9.47 4.36,14.28 11.28,10.07 3.01,28.12 0.75,13.53 3.61,13.38 8.12,23.76 6.92,15.94 -4.81,10.68 -6.32,19.7 0.75,16.09 3.31,8.42 -6.32,23.76 -9.62,15.19 -17.59,20.9 -33.68,14.88 -1.2,2.1 -2.41,-3.16 -0.6,3.91l-0.9 3.91c-9.32,-5.71 -10.07,-11.58 -26.01,-14.28 1.65,-2.86 -1.8,-1.5 1.65,-2.41 3.91,-2.41 7.07,-1.05 9.62,-3.76 -8.78,-7.08 -26.75,-15.61 -28.12,-22.25 14.76,-1.26 49.26,28.62 70.52,-9.17 6.91,-0.57 9.28,-0.44 9.62,-4.96 -46.16,-2.26 -51.12,11.13 -65.7,12.93 -16.24,1.96 -5.56,-12.33 -15.04,-10.37 -0.6,6.01 -11.88,17.89 -18.49,18.04 -7.97,0 -14.43,-12.63 -24.21,-12.93 -0.3,9.02 21.8,17.14 25.71,27.97 -9.92,-3.01 -41.05,-43.15 -55.03,-22.1 -10.22,15.49 -7.52,55.93 -12.18,76.53 -6.62,29.02 -33.53,31.27 -35.18,53.98 -1.05,13.23 4.36,26.16 11.28,32.93 12.33,12.33 21.5,3.91 36.24,1.65 -2.56,4.81 -6.32,7.97 -10.82,10.52 -18.04,10.22 -14.13,-6.46 -19.55,23.76 -1.05,5.86 -3.46,13.68 -1.96,19.4 13.83,1.05 21.05,0.45 23.46,13.08 6.46,2.86 12.03,0 14.73,-4.36 4.21,-6.92 -0.6,-8.72 1.65,-14.13 9.91,2.79 6.78,34.7 6.77,34.73l-12.48 13.38 1.05 6.46c63.15,18.19 73.82,-1.05 110.96,-30.07 3.46,-2.71 0.15,-0.6 3.76,-2.56 3.16,-9.77 4.06,-16.39 10.22,-22.7 5.86,-5.86 17.74,-8.12 21.8,-11.88 3.31,-3.01 12.33,-48.86 11.58,-55.78 -1.25,-9.95 -3.25,-6.53 2.71,-20.6 2.1,-4.66 18.79,-7.07 24.81,-6.32 24.06,2.41 44.2,21.5 65.1,16.24l8.57 -1.35c0.94,7.55 -3.45,2.9 -7.07,10.68 6.16,0.75 15.19,-1.8 16.69,5.86 -8.12,3.46 -38.79,-7.07 -95.92,46.61 -19.85,18.49 -18.79,4.36 -33.98,14.73 -8.27,5.56 -17.44,15.79 -17.29,30.67 0.15,19.09 8.72,23.15 15.79,33.53 1.65,2.41 3.31,5.56 4.96,7.22 7.07,7.37 19.7,1.65 26.31,10.07 15.49,19.7 -18.04,21.2 -19.4,21.8 0.24,15.91 28.73,12.37 28.27,-13.23 -0.3,-14.43 -20,-32.93 -14.73,-44.05l6.46 12.48c13.08,6.77 17.74,15.79 28.12,29.32 7.22,9.47 2.56,6.46 5.86,14.43 3.87,0.73 17.9,1.62 17.59,-4.36l-8.12 -23.6c-6.01,-1.8 -6.92,-0.15 -13.23,-0.9 -0.05,-0.03 -10.27,-9.94 -10.07,-16.54 7.97,0 -2.1,3.91 16.84,3.16 2.12,-12.18 -6.61,-10.04 -10.97,-17.59 25.95,-0.35 15.01,58.53 36.99,35.63 9.66,-10.06 3.23,-15.45 2.41,-19.4 -6.77,2.41 -5.41,5.71 -11.28,2.86 3.01,-7.82 5.86,-2.41 6.16,-13.53l-4.96 -15.33c-1.96,-1.65 -1.5,2.86 -2.1,-3.76 6.92,0.15 2.26,0 4.21,2.1 5.11,8.72 7.82,18.04 12.48,26.76 10.98,-1.92 10.36,-19.5 9.17,-25.11l-13.23 -2.56 -1.35 -8.87c-5.26,-8.42 -11.88,-3.31 -20,-9.17 -7.52,-5.56 -5.26,-13.53 -18.49,-9.62 -0.04,0.03 -3.56,7.22 -12.63,5.71 -0.9,-5.26 5.86,-10.07 9.62,-12.93 19.7,-15.94 5.86,-11.43 44.35,-27.36 12.03,-4.96 23.3,-8.87 30.22,-16.99 11.98,-14.23 34.88,-3.76 32.33,-14.88 -1.8,-4.36 -23.6,-20.6 -29.17,-24.36 -31.42,-21.05 -44.5,-20 -78.78,-29.32 -10.37,-2.86 -7.52,-9.77 -19.1,-6.32 -7.52,2.26 -11.13,7.52 -15.49,10.82 1.2,-6.46 7.82,-12.78 13.08,-15.94 10.68,-6.32 8.12,-4.36 12.18,-18.94 4.51,-15.94 8.72,-31.42 13.08,-47.66 24.06,-89.46 55.33,-206.13 -81.64,-126.15 -19.7,11.43 -18.64,20.9 -31.27,28.72l-0.61 -0.31z"/>
  <path class="fil2" d="M1098.8 471.65c-1.27,-6.22 51.61,-169.79 55.03,-173.66 -2.15,17.29 -19.16,168.32 -23.91,172.3 -3.48,2.92 -28.29,1.31 -31.12,1.36zm25.86 -265.22c-0.57,10.03 -137.9,385.53 -138.32,396.63 7.07,1.8 63.45,1.05 68.26,-1.05 7.37,-4.06 18.94,-66.46 26.16,-70.52 6.16,-2.41 34.28,-1.05 43,-0.75 -1.63,18.74 -8,58.62 -6.77,71.27 15.64,-2.41 58.79,-57.74 68.71,-75.03 15.49,-26.76 1.96,-47.36 5.26,-61.04 0.9,-3.76 4.21,-8.87 5.56,-11.88 3.31,-7.82 12.78,-107.05 10.37,-112.01l-32.02 -39.84c-9.02,-6.32 -13.83,-6.92 -13.98,-23.3 0,-15.34 4.66,-15.34 14.73,-21.2 7.67,-4.66 14.13,-8.72 22.1,-13.08 7.22,-4.06 17.29,-7.07 22.55,-12.33 0.45,-8.57 2.71,-19.55 0.6,-27.51l-96.23 1.65z"/>
  <path class="fil2" d="M774.94 607.57c3.76,-16.09 19.85,-61.94 20,-74.13l-59.69 0.6c-2.26,-6.77 10.98,-56.38 13.98,-70.06 1.2,-5.11 2.1,-18.94 6.77,-21.8 8.72,-3.31 44.5,-0.6 57.13,-2.1 2.86,-5.56 16.69,-62.84 16.24,-70.81l-57.13 1.8c-0.15,-7.67 16.24,-78.63 19.55,-87.5l59.09 -1.05c0.6,-1.35 1.35,-1.65 2.26,-3.91l15.19 -67.36c-33.23,-1.2 -77.73,1.2 -113.67,1.5 -21.21,0.09 -14.91,-3.68 -26.16,44.06 -7.34,31.13 -79.1,333.47 -77.43,339.34 0.45,1.65 9.47,12.03 10.37,12.63 6.44,4.26 105.36,-1.2 113.52,-1.2z"/>
  <path class="fil2" d="M432.44 315.59l3.31 -6.32c3.81,7.08 -0.22,6.36 -0.3,6.61 -1.35,15.49 -20.9,163.28 -23.15,168.39l-32.33 0.75c0.59,-16.42 51.53,-155.66 52.77,-169.3l-0.3 -0.15zm-137.42 222.07c5.41,-0.15 44.8,-10.22 48.86,-12.48 1.65,-10.22 -6.32,-33.53 10.52,-33.38 11.43,0.15 13.83,16.84 17.29,26.91 11.28,-0.75 51.57,-10.52 76.23,-13.23 7.07,-0.75 21.95,-0.45 27.66,-2.26 3.91,-20.75 5.41,-49.47 7.52,-71.27l20.9 -214.25c-13.68,-1.65 -47.51,0.9 -63.3,1.5 -39.84,1.2 -32.47,-4.06 -42.4,24.36l-86.15 244.92c-5.41,15.19 -13.53,34.58 -17.14,49.47l0 -0.3z"/>
  <path class="fil5" d="M370.19 543.52c18.94,-6.46 62.09,-11.58 83.59,-13.38 107.2,-8.87 54.13,39.39 0.75,69.31 -9.02,5.11 -58.34,27.66 -68.86,27.21 -3.6,-5.05 -15.49,-72.66 -15.49,-83.14zm284.77 67.81c-11.13,-18.34 -53.38,-21.95 -80.14,-21.95 -39.99,0 -65.85,9.02 -92.77,10.68 5.86,-10.52 62.7,-41.95 50.37,-68.86 -19.4,-42.4 -156.66,-4.06 -166.29,-4.21 -1.65,-6.77 -4.06,-27.82 -13.08,-28.42 -8.57,8.12 0.15,20.9 -1.8,31.88 -5.71,3.61 -61.34,17.74 -74.27,21.5 -60.39,17.61 -120.58,40.77 -179.97,60.74 -10.68,3.46 -29.92,6.77 -24.36,21.2 4.36,7.07 20.45,-2.26 33.38,-6.77 11.58,-4.21 24.06,-7.67 35.93,-11.43l213.65 -67.06c1.65,5.11 14.73,79.54 14.28,82.84 -3.76,7.22 -104.05,32.18 -88.86,57.58 11.43,18.94 82.69,-26.46 95.02,-26.76l19.24 82.99c2.71,10.52 5.86,18.04 17.29,16.69 10.82,-11.13 10.07,-46.46 -1.35,-55.03 -7.37,1.35 -1.65,3.16 -9.47,3.46 -3.31,-6.92 -12.03,-50.37 -10.37,-56.08 6.77,-13.53 223.57,-67.51 242.67,-34.13 16.54,28.72 -141.63,119.83 -163.13,131.11 -31.57,16.54 -104.04,51.87 -144.19,54.13 7.88,-10.6 56.32,-13.56 47.36,-32.33 -6.77,-9.47 -76.23,24.66 -86.91,29.77 -9.92,4.66 -20.9,8.57 -17.59,21.95 13.53,11.58 70.97,-3.76 87.96,-8.42 76.23,-21.05 146.14,-55.03 209.14,-96.38 21.5,-13.98 110.36,-72.17 87.96,-108.7l0.3 0.01z"/>
  <path class="fil2" d="M573.62 216.5c-3.76,6.01 -43.9,184.78 -51.42,216.81 -4.66,20.3 -14.88,54.28 -16.54,73.37 13.23,4.81 39.69,9.92 34.58,38.04 -3.91,21.65 -27.36,33.38 -30.22,43.75 29.32,-2.71 56.38,-9.32 90.06,-5.71 8.27,0.9 22.25,4.96 28.87,4.66 4.51,-6.32 14.88,-42.25 15.34,-50.97 -8.87,-2.86 -57.44,1.05 -72.47,-0.3l36.54 -160.42c5.56,-23.6 35.78,-147.34 35.78,-160.58l-70.82 1.2 0.3 0.15z"/>
  <path class="fil1" d="M891.76 210.79c34.73,-1.35 70.22,-1.8 104.95,-2.26 17.59,-0.3 35.18,-1.05 45.11,9.17 8.72,9.02 10.52,26.31 7.07,42.1l-30.22 129.15c-5.41,22.85 -15.64,21.5 -24.51,27.97 4.02,9.57 16.31,9.75 7.67,45.86l-31.72 135.92c-3.16,9.92 -14.13,6.16 -35.78,6.46 -5.13,0.13 -28.7,2.69 -32.02,-0.6 -4.66,-5.41 39.99,-156.22 33.38,-164.49 -4.06,-4.51 -22.1,-4.36 -28.87,-2.26 -8.27,16.99 -32.02,152.76 -40.14,168.24l-67.21 1.2c-0.3,-9.02 90.21,-393.17 92.02,-396.48l0.3 0zm-22.4 52.77c1.77,12.63 -81.74,335.97 -76.98,350.92 7.37,3.01 70.36,3.31 78.48,0.3 7.97,-5.71 36.69,-162.08 42.7,-167.34l13.08 -0.9c7.38,0.94 -38.36,156.37 -32.33,164.94 4.94,7.02 67.81,3.8 76.68,1.35 9.32,-2.56 6.01,-0.6 14.73,0.45l68.86 -0.6c10.22,-1.05 10.52,-9.92 13.53,-19.85 22.85,-72.02 10.82,-47.51 44.2,-53.07 4.24,3.35 2.68,5.54 3.46,6.32 8.37,-1.67 7.24,-8.39 7.82,-15.03 -8.72,-0.45 -36.84,-1.65 -43,0.75 -7.22,4.06 -18.79,66.46 -26.16,70.52 -4.81,2.1 -61.19,2.86 -68.26,1.05 0.67,-11.73 125.5,-351.99 138.32,-396.63 1.5,-2.56 3.01,-3.46 3.76,-7.37 -10.07,0.3 -8.27,-0.45 -10.37,3.76 -10.69,21.7 -126.04,363.8 -132.16,373.47l6.16 -35.63c6.77,-29.02 24.51,-89.31 19.1,-111.56 -4.21,-16.99 5.71,-8.57 12.78,-29.62l25.41 -107.2c5.56,-24.06 15.49,-50.52 3.31,-73.52 -12.03,-22.85 -37.89,-20 -69.61,-19.7 -29.17,0.3 -58.79,0.75 -87.96,1.8 -16.99,0.6 -12.48,15.34 -20.45,45.26l-4.96 16.09c-0.15,-0.15 -0.3,0.75 -0.6,1.05l0.46 0z"/>
  <path class="fil4" d="M1258.93 443.83c0.15,-4.66 2.26,-13.68 6.62,-15.79 4.51,7.07 0.75,14.13 -6.62,15.79zm-91.12 -159.67c9.47,-2.56 19.24,-10.52 29.02,-4.96 2.86,6.01 -1.2,13.08 -1.2,21.2 0.75,4.96 11.58,24.96 14.73,31.42 2.71,7.67 48.71,47.51 49.92,67.51 -6.92,-1.5 -2.1,-2.86 -8.12,-5.56l-23 20.6c-8.12,7.51 -20,10.82 -18.34,25.11 1.96,16.99 -9.47,11.88 -13.53,29.62 -2.86,12.33 8.87,23.3 18.64,25.11 -0.15,-16.09 2.26,-16.99 5.41,-31.27 1.5,-6.46 1.96,-29.32 5.26,-32.78l2.86 12.78c4.21,18.19 -24.96,46.91 6.46,52.92 16.81,3.24 18.54,7.34 23,5.11 -15.64,-8.72 -26.61,-13.23 -16.54,-35.33 7.97,-17.59 -3.16,-41.2 13.68,-45.56 -2.1,5.11 -6.01,6.32 -6.77,13.53 -1.05,9.47 4.06,8.57 2.86,17.14 -1.35,9.92 -8.42,22.25 -7.67,32.63 4.66,4.81 28.57,16.24 38.64,9.47 5.26,-3.61 9.77,-10.52 8.12,-18.49l-10.52 -18.64c-5.71,5.26 -2.71,15.34 -5.41,19.55 -2.41,-5.56 1.2,-5.41 -4.06,-7.67 -6.32,4.96 -0.45,4.96 -5.41,9.47 8.06,-24.59 8.22,-27.79 21.05,-51.12 0.15,-0.45 0.45,-1.35 0.6,-1.2l4.06 -8.57c4.21,1.35 2.56,0.15 4.06,5.26l3.46 0.15c1.5,-4.81 0.6,-3.91 4.96,-6.01l-0.45 9.77c-1.96,4.21 -10.37,7.82 -14.43,17.14l0.3 4.51c1.2,-0.3 4.36,-1.65 4.66,-1.8 4.06,-4.21 6.01,-3.01 11.73,-1.05 8.87,-1.05 5.86,-5.86 18.79,-12.33 9.64,-4.82 5.26,-1.6 -0.45,-21.5 -7.37,-26.16 5.41,-21.95 -37.29,-21.2 -4.51,-8.27 -8.72,-10.68 -18.94,-31.12 -26.86,-53.51 -25.32,-60.08 -65.85,-85.7 8.95,-0.65 7.89,1.22 18.19,3.16l-4.96 -11.58c7.52,2.26 5.41,5.11 11.43,10.22 8.87,-1.2 19.4,-8.42 39.54,-9.47l13.53 -5.26c15.93,-9.02 16.23,-10.37 24.2,-24.66l-4.81 -4.51c-32.47,0.45 -52.17,2.26 -81.04,12.18 -11.88,4.06 -22.4,8.87 -32.48,14.88 -9.62,5.86 -24.66,9.62 -17.74,27.21l-0.15 -0.29z"/>
  <path class="fil4" d="M177.14 752.36c0,-5.26 26.31,-87.36 29.47,-93.22 0.3,10.52 -9.17,86.91 -12.18,92.47l-17.29 0.75zm46.16 69.91c2.26,-9.17 21.5,-204.48 21.2,-215.6l-52.32 1.2 -75.33 217.41 36.24 -1.05c4.23,-4.84 6.96,-24.88 12.33,-35.34 4.36,-8.27 24.36,-3.16 24.36,-3.16 2.12,5.4 -2.52,20.75 -1.66,36.99 5.56,2.71 28.57,1.2 35.18,-0.3l0.01 -0.15z"/>
  <path class="fil4" d="M62.57 789.95c-3.01,-8.27 13.23,-67.51 16.39,-81.04l13.98 -60.29c2.56,-6.16 12.93,-6.92 18.34,-3.31 2.71,3.31 -29.47,139.98 -31.27,141.93 -5.91,4.94 -17.41,2.71 -17.44,2.71zm89.76 -169.45c-5.71,-0.3 -48.41,14.88 -56.38,17.59 -8.27,2.71 -23.46,10.22 -28.57,-0.3 -6.46,-13.53 6.16,-22.55 7.22,-27.51 -11.58,-3.91 -11.88,8.72 -13.98,18.34 -5.97,26.53 -45.5,189.17 -43.9,197.87 14.58,2.71 70.36,0.6 81.19,-4.96 11.58,-5.86 12.93,-12.63 16.39,-26.91 7.97,-32.48 40.6,-158.17 37.89,-173.96l0.15 -0.15z"/>
  <path class="fil6" d="M1638.41 502.92c-7.52,-1.2 -4.51,-1.05 -10.22,1.8 -17.74,8.86 -4.53,-3.2 -17.89,17.29 -11.74,18 -44.45,13.47 -45.41,1.96 8.66,-0.76 40.16,5.64 42.7,-30.97 -10.27,4.02 -8.12,29.12 -63.6,17.14 -19.7,-4.21 -24.96,-2.1 -33.23,-17.74 -16.24,-0.75 -30.07,6.62 -28.72,-18.94 0.75,-16.39 -5.56,-27.51 -14.73,-34.58 -1.07,-0.52 -44.03,21.3 -47.96,32.18 26.31,-0.45 30.97,1.2 47.06,14.13 30.37,24.21 44.2,52.92 97.88,86 90.21,55.48 155.46,-25.71 141.78,-62.1 -8.57,-2.41 -26.01,-0.45 -36.08,-0.9 -11.73,-0.45 -23.76,-5.41 -31.57,-5.56l-0.01 0.3z"/>
  <path class="fil6" d="M1272.76 506.68c-7.37,6.62 -7.22,16.39 -26.61,13.53 -11.58,-1.65 -24.51,-5.41 -36.08,-5.71 -13.43,16.54 -38.23,60.52 -61.04,80.44 -18.31,15.99 -34.38,23.28 -17.44,45.41l3.91 3.16c27.66,-1.05 37.59,4.36 64.95,-5.11 11.73,-4.06 39.09,-20.9 47.96,-24.36 21.2,-19.24 54.57,-89.46 82.09,-117.28 11.32,-11.38 25.02,-17.32 6.61,-15.19 -16.54,2.1 -25.56,0.3 -29.92,6.77 -11.74,17.27 -18.55,37.15 -47.51,52.77 -7.52,3.91 -19.85,7.97 -29.17,9.02l-10.98 -1.96c8.12,-4.51 26.61,1.35 51.27,-25.86 4.06,-4.51 9.02,-7.82 8.57,-16.69l-6.77 1.2 0.15 -0.15z"/>
  <path class="fil5" d="M1349.13 646.51c2.29,11.47 66.45,87.99 87.51,91.41 20.96,3.41 31.41,7.46 57.13,0.15 19.67,-5.59 6.32,-18.86 -0.9,-23.45l-2.1 2.1c-6.92,-6.62 -34.28,-34.73 -30.52,-44.96 3.31,-0.15 3.76,0.6 6.16,1.8l-12.33 -18.94 -2.41 2.56c-9.17,-6.16 -11.88,-7.22 -17.14,-18.04 -4.66,-9.47 -8.57,-13.38 -13.38,-23.15l-16.39 -37.74c-3.16,-9.47 -2.41,-11.28 6.32,-11.13l-5.71 -13.83c-27.97,-7.37 -37.89,10.37 -45.56,28.57 -9.02,21.2 -12.63,38.19 -10.22,64.35l-0.45 0.3z"/>
  <path class="fil7" d="M1406.87 528.18c-2.16,22.77 20.51,55.52 14.43,63 4.96,14.73 32.48,63.3 32.48,63.6l16.54 25.71 2.71 -1.8c3.32,5.6 41.91,54.95 48.26,55.93l2.41 0.3c4.36,-16.54 6.32,-36.54 4.51,-54.88l-23.76 -50.22c-6.62,-14.58 -14.58,-36.69 -19.1,-53.22 -5.71,-4.36 -11.28,-12.48 -15.94,-18.64 -16.09,-20.45 -30.52,-39.69 -62.85,-36.84l0.3 7.07z"/>
  <path class="fil8" d="M1340.71 214.4l-0.9 11.58c6.32,2.41 3.46,-1.5 9.32,2.41 8.57,5.86 4.06,5.86 25.11,8.42 6.76,-8.64 -1.14,-1.82 7.07,-13.38l-1.35 23.46c6.16,6.01 8.42,5.86 18.34,6.32 9.02,0.45 12.48,3.76 20.15,5.71 5.41,0.82 3.55,-2.33 9.02,-27.97 3.61,21.5 -1.96,23.3 15.34,21.5 2.56,3.16 10.52,18.94 16.39,8.87 1.62,-6.42 -12,-38.78 -18.04,-47.81 -6.77,-9.77 -9.17,-0.15 -14.28,2.1 -1.65,-9.02 0.3,-2.86 3.91,-9.47 -3.91,-1.8 -3.91,-0.6 -7.37,-1.8 -3.31,-1.2 -3.16,-2.26 -7.67,-3.16 -5.26,-1.05 -15.64,-0.6 -21.35,-0.6 -7.07,3.16 -3.91,6.77 -11.13,10.37 0,-13.98 0.6,-13.53 -7.97,-20.6 -5.11,-4.36 -9.92,-8.12 -17.44,-10.82 -7.52,5.41 -17.44,21.65 -16.99,35.03l-0.15 -0.15z"/>
  <path class="fil5" d="M1004.38 672.37c-3.91,1.96 -69.01,3.76 -83.14,29.77 -4.81,8.87 -6.32,22.25 1.2,28.42 13.23,11.13 47.81,1.96 63.3,-1.8 10.22,-2.56 59.84,-13.53 43.6,-26.76 -5.9,-4.59 -69.19,27.98 -98.33,17.44 -7.97,-42.7 102.54,-21.5 107.05,-42.25 6.13,-27.86 -114.41,-31.65 -117.73,-19.1 -3.91,14.73 17.89,10.07 38.79,10.37 11.43,0.15 37.59,-1.5 45.41,4.06l-0.15 -0.15z"/>
  <path class="fil5" d="M737.2 677.93c-23.76,1.05 -70.06,6.92 -83.45,27.36 -5.41,8.12 -7.97,21.8 -0.45,29.32 15.64,15.49 130.2,-10.37 107.65,-27.97 -4.81,-3.61 -15.34,3.16 -20.75,5.41 -14.58,5.86 -69.91,20.75 -77.58,11.73 -6.77,-12.48 12.63,-21.2 21.65,-24.21 25.71,-8.57 79.69,-4.06 84.5,-15.79 5.11,-12.33 -16.24,-20 -26.01,-22.25 -13.03,-3 -86.87,-11.14 -90.81,1.8 -4.06,13.38 21.5,8.72 40.29,9.77 4.34,0.24 41.57,1.43 44.96,4.81z"/>
  <path class="fil5" d="M922.29 753.41c2.26,-4.06 3.61,-7.97 3.01,-14.88 -39.54,-8.57 -39.99,-17.44 -63.15,-49.16 -31.69,-43.61 -49.69,9.64 -57.43,22.55 -5.71,-7.52 -5.56,-36.69 -15.49,-40.44 -16.69,-6.32 -4.51,22.4 -1.35,38.19 3.31,16.39 4.36,32.63 6.46,49.16 1.65,12.63 10.37,14.28 13.53,4.81 4.57,-13.34 6.54,-45.53 19.55,-64.2 24.81,-35.63 35.48,63 94.72,54.13l0.15 -0.15z"/>
  <path class="fil2" d="M467.77 584.41c1.05,-9.77 5.11,-39.09 3.91,-46.76 -5.71,-1.8 -60.29,4.21 -63.9,6.62 -4.81,3.61 -5.86,29.77 -6.77,35.93 -6.18,44.31 -11.66,40.94 32.17,21.05 9.47,-4.36 27.21,-11.58 34.58,-16.69l-0 -0.15z"/>
  <path class="fil5" d="M1058.66 723.34c4.51,8.16 1.67,35.7 8.87,39.84 15.41,8.86 10.8,-66.17 40.29,-78.49 9.92,4.66 23.6,31.42 38.04,45.71 26.83,26.69 57.22,20.42 46.61,4.66 -2.56,-3.76 -22.4,-7.37 -29.92,-12.03 -14.28,-8.72 -24.96,-31.12 -38.19,-45.71 -10.37,-11.28 -11.28,-12.18 -29.02,-5.86 -4.66,7.52 -11.43,10.52 -17.29,26.46 -4.8,12.08 -1.04,7.64 -5.41,9.32 -3.91,-13.38 -5.71,-34.28 -16.24,-42.1 -18.79,4.51 7.37,33.53 2.41,58.04l-0.15 0.15z"/>
  <path class="fil1" d="M378.16 554.34l16.69 -1.05c1.35,8.42 -3.31,48.86 -6.62,54.43 -3.61,-4.81 -10.68,-51.27 -10.07,-53.38zm113.51 10.37l5.71 -26.61c4.51,0.45 8.72,1.96 12.03,3.61 -1.05,9.47 -10.37,19.55 -17.74,23zm-12.78 10.97c-3.67,-4.73 -1.43,-34.66 4.06,-40.15l4.66 0.6c0.75,4.66 2.56,0.15 0,10.98 -1.8,7.67 -3.76,22.4 -8.72,28.42l0 0.15zm-11.13 8.87l-67.21 30.67c-8.12,-0.45 -1.2,-22.55 0.45,-35.03 0.75,-6.16 1.96,-32.33 6.77,-35.93 3.76,-2.41 58.34,-8.27 63.9,-6.62 1.51,9.8 -3.98,42.78 -3.91,46.91zm-97.58 -41.05c-1.2,6.32 12.48,78.78 15.49,82.99 10.52,0.45 59.84,-22.1 68.86,-27.21 53.38,-29.92 106.45,-78.03 -0.75,-69.31 -21.5,1.8 -64.65,6.92 -83.59,13.38l0 0.15z"/>
  <path class="fil9" d="M1407.77 489.84c10.68,-1.65 13.68,-6.16 26.91,-3.91 23.15,3.91 67.51,53.83 83.9,71.57 28.42,30.82 82.69,62.1 132.76,46.31 27.06,-8.57 57.28,-33.23 61.64,-63.9 -12.48,2.71 -14.43,44.66 -68.41,54.13 -94.34,16.59 -146.75,-88.64 -193.65,-112.16 -13.83,-6.92 -39.84,-10.98 -43.15,7.97z"/>
  <path class="fil7" d="M1325.98 607.42l23.01 39.09c-2.26,-26.16 1.35,-43.15 10.22,-64.35 7.82,-18.34 17.74,-35.93 45.56,-28.57 -1.8,-9.17 -5.86,-24.21 -10.82,-29.77 -22.4,-12.93 -41.95,15.04 -49.02,25.26 -6.46,9.17 -24.36,43.45 -19.1,58.49l0.15 -0.15z"/>
  <path class="fil10" d="M1459.34 261.01l2.56 18.19c-9.9,-0.79 -8.15,-7.9 -10.82,-1.5 4.66,0.6 10.68,7.67 11.58,14.73 1.05,8.42 -2.41,16.54 -2.56,23.91 -4.51,15.49 -10.07,11.58 -22.85,6.16 -13.53,-5.86 -13.08,-8.27 -18.64,-16.69 -15.94,-0.3 0.6,6.32 -26.91,-1.35 -16.24,-4.51 -9.77,-5.11 -19.1,-13.68 -5.56,3.31 0,4.36 -7.22,6.32l-39.84 0.15 8.27 -51.57c0.27,-15.23 2.69,-14.77 2.86,-15.49 0,-0.15 1.2,-9.17 2.71,-13.08 4.08,-10.75 3.57,-26.99 18.49,-37.74 7.37,2.56 12.33,6.46 17.44,10.82 8.42,7.07 7.97,6.62 7.97,20.6 7.22,-3.61 4.21,-7.22 11.13,-10.37 5.71,0 16.09,-0.45 21.35,0.6 4.51,0.9 4.36,1.96 7.67,3.16 3.46,1.2 3.61,0.15 7.37,1.8 -3.61,6.77 -5.41,0.45 -3.91,9.47 7.13,-3.15 8.02,-17.99 21.8,12.03 3.31,7.07 10.07,24.81 10.52,33.68l0.15 -0.14zm-122.24 -61.04l-17.59 99.08c-6.62,3.46 -8.12,2.1 -16.09,1.96 -4.36,9.77 11.43,5.11 18.64,4.21 57.74,-7.37 72.62,7.07 119.68,26.31 9.77,4.06 13.38,6.32 19.55,-1.8 18.94,-25.56 4.81,-90.51 -13.83,-119.83 -12.03,-18.94 -52.62,-13.08 -66.61,-22.7 -4.96,-3.46 -13.68,-8.72 -18.04,-12.33 -18.79,-0.9 -16.54,17.29 -25.56,24.96l-0.15 0.15z"/>
  <path class="fil11" d="M1339.51 430.3c1.65,14.43 -9.62,12.93 -16.39,20.3 0.66,4.12 4.26,5.09 14.13,9.77 44.09,20.92 61,-0.49 92.01,-17.59 8.72,-4.81 24.36,-17.44 25.56,-26.16l-0.75 -18.94c-29.53,14.75 -36.11,55.41 -114.72,32.62l0.15 0z"/>
  <path class="fil2" d="M268.25 616.74l70.52 -0.75c3.76,-14.13 16.09,-42.85 12.18,-57.74 -4.96,-1.05 -44.66,13.68 -53.68,16.69 -14.88,4.96 -17.29,4.51 -20.75,14.28 -2.1,6.16 -8.72,21.8 -8.42,27.51l0.15 0z"/>
  <path class="fil7" d="M1198.63 665.3c19.24,0.75 49.02,-24.51 58.04,-33.08 33.83,-31.42 74.12,-109.61 98.93,-130.81 11.13,-9.47 23.76,-1.8 32.63,4.06 0.15,-8.42 -14.58,-21.35 -27.82,-19.85 -38.62,4.58 -86.11,121.57 -131.86,160.43 -15.64,13.23 -27.06,12.33 -30.07,19.1l0.15 0.15z"/>
  <path class="fil8" d="M1420.85 117.27l5.56 1.35c1.8,6.16 1.05,10.98 -5.71,9.77l0.15 -11.13zm-3.16 -4.36c-4.73,5.59 -1.8,6.51 -1.8,16.09 -0.75,9.77 0.9,21.5 5.71,27.97 5.41,0.3 28.42,-9.62 47.51,-12.63 7.82,-1.2 14.58,0.45 18.19,-3.46 8.57,-9.47 -3.31,-35.18 -15.94,-44.2 -19.4,3.16 -14.28,13.83 -42.85,10.37 -9.61,-1.15 -8.53,5.86 -10.83,5.86z"/>
  <path class="fil8" d="M1408.07 150.2c5.61,-10.66 3.95,-15.59 3.16,-29.32l-5.86 2.26c-2.44,-10.27 2.88,-5.16 12.48,-12.63 0.9,-7.37 3.46,-6.16 -1.2,-13.23 -2.1,-3.31 -4.81,-7.52 -6.32,-12.03 -39.24,-11.28 -59.39,54.28 -34.58,70.52 16.09,10.52 23.91,-2.71 32.33,-5.56l0 -0z"/>
  <path class="fil1" d="M415.3 406.1c0.6,5.71 -9.47,67.96 -9.77,68.71l-14.88 0.45 24.66 -69.16zm16.99 -90.51c-1.17,13.06 -51.98,153.04 -52.77,169.3l32.33 -0.75 23.3 -172.6c-1.96,4.96 -1.05,2.1 -3.01,3.91l0.15 0.15z"/>
  <path class="fil1" d="M1110.68 461.27c-0.3,-6.46 18.34,-64.8 21.35,-68.56 1.35,11.28 -2.56,30.07 -4.21,41.95 -2.1,14.88 0.9,30.67 -17.29,26.76l0.15 -0.15zm-11.88 10.37c4.96,0.9 28.57,0.6 30.97,-1.35 4.73,-3.89 21.76,-155.06 23.91,-172.3 -2.92,3.42 -56.52,167.03 -55.03,173.66l0.15 -0z"/>
  <path class="fil12" d="M1406.87 528.18l-0.3 -6.92c46.76,-4.13 60.95,41.87 78.78,55.48 -5.71,-41.35 -4.81,-51.87 -29.77,-71.12 -47.27,-36.4 -57.75,8.27 -48.86,22.55l0.15 0z"/>
  <path class="fil13" d="M1490.92 772.81c1.35,2.56 16.84,17.44 20.15,19.24 7.67,4.36 28.12,2.71 34.88,-1.96l10.52 -9.77c3.16,-4.81 15.19,-37.89 14.88,-44.8 -4.51,-3.76 -9.02,-7.82 -16.24,-7.67 -24.11,44.93 -17.67,35.47 -64.05,44.96l-0.15 0z"/>
  <path class="fil14" d="M932.36 369.26c-2.26,-7.67 12.48,-61.64 15.94,-76.68 1.35,-6.16 2.41,-15.64 19.85,-9.32 1.65,8.72 -12.48,59.99 -15.94,75.48 -1.35,6.01 -0.3,7.22 -5.71,9.02 -4.21,1.5 -9.77,2.26 -13.98,1.35l-0.15 0.15zm-10.82 9.17c36.99,5.26 36.24,-6.77 42.7,-35.78 2.56,-11.73 15.79,-58.79 10.98,-66.3 -5.56,-5.41 -21.65,-4.06 -30.82,-2.41 -3.46,12.18 -24.36,98.18 -22.85,104.64l0 -0.15z"/>
  <path class="fil15" d="M1493.32 146.29c-0.45,-6.01 1.8,-5.41 5.71,-4.36 1.2,5.11 0.6,5.86 -5.71,4.36zm-81.79 -63.6l-1.2 2.41c1.65,4.36 4.21,8.72 6.32,12.03 4.57,7.13 2.19,5.33 0.9,15.64 3.76,-3.76 3.16,-6.92 10.82,-5.86 28.57,3.61 23.46,-7.07 42.85,-10.37 12.63,9.02 24.51,34.73 15.94,44.2 -3.61,3.91 -10.37,2.26 -18.19,3.46 -19.1,3.01 -42.1,12.78 -47.51,12.63 -7.58,-10.51 -4.45,-23.77 -6.32,-29.32 -4.45,25.04 -0.77,10.18 -7.22,22.4l0.75 1.05c9.62,-1.96 -1.2,12.48 15.04,10.37 14.58,-1.8 19.7,-15.19 65.7,-12.93 -0.3,3.91 0,2.41 -4.21,4.51 0.9,11.73 0,10.68 -7.37,17.59 -22.62,21.27 -46.45,12.7 -54.43,-4.96 -6.77,-0.6 -9.02,-3.46 -14.28,-3.01 1.09,5.3 22.87,19.21 28.12,22.25 7.08,4.1 25.66,7.23 43.6,-9.92l12.93 -15.94c1.5,-9.02 13.08,-3.76 6.32,-19.7 -4.51,-10.37 -7.37,-10.22 -8.12,-23.76 -1.49,-4.83 -19.8,-23.16 -3.16,-28.12l6.92 -1.8 -8.12 -1.65c-10.98,2.1 -22.85,8.12 -32.02,12.93 -13.68,7.07 -21.95,11.28 -33.08,-1.05 -7.04,-7.18 0.37,-13.25 -1.81,-17.59 -4.06,3.61 0.45,0 -4.81,8.12 -2.56,-1.65 -2.41,-1.5 -4.36,-3.61l0 0.01z"/>
  <path class="fil16" d="M1587.14 476.61c15.04,4.06 5.11,20.6 -11.73,23 -15.64,2.26 -12.93,-1.8 -13.23,-3.16 -3.16,2.56 -9.92,5.86 -12.33,9.62 5.56,5.41 22.55,4.96 30.67,3.31 9.17,-1.8 6.32,-1.96 8.27,0.75 4.06,-3.31 7.52,-6.01 10.37,-8.57 3.46,-3.01 4.81,-7.22 8.27,-8.57 -2.54,36.6 -33.96,30.2 -42.7,30.97 0.9,10.68 25.11,12.33 34.88,7.07l-9.47 0.3c2.71,-6.46 11.13,-5.11 16.24,-11.73 4.06,-5.26 4.81,-13.68 6.32,-20.6 4.21,1.5 5.41,0.6 4.51,10.22 2.86,-1.5 7.67,-3.01 10.82,-4.66 5.71,-2.86 2.71,-3.01 10.22,-1.8 -3.76,-4.21 -11.28,-6.32 -22.85,-20.75l-19.85 -23.6c-5.22,7.6 -0.22,3.29 -8.57,18.04l0.15 0.15z"/>
  <path class="fil9" d="M1278.02 717.02c-4.21,-2.26 -11.73,-3.01 -16.84,-4.96 -8.27,-3.16 -9.17,-1.65 -17.59,0.45 -62.25,15.04 -48.56,-10.37 -31.72,-19.85 12.63,-7.07 20,-4.66 33.38,-8.72l-0.45 -11.13c-9.62,-2.26 -36.54,8.57 -43,12.48 -8.12,4.81 -22.1,22.1 -13.08,36.84 11.28,18.19 73.37,1.2 89.31,-5.26l-0 0.15z"/>
  <path class="fil12" d="M1325.98 607.42c-7.02,-20.05 32.66,-104.35 68.11,-83.75 -4.06,-9.47 -12.78,-18.94 -28.42,-16.99 -17.14,2.26 -28.42,27.97 -39.54,44.96 -21.44,32.74 -19.37,18.78 -5.11,48.86l4.96 6.92z"/>
  <path class="fil1" d="M104.37 650.72c2.71,5.41 -18.34,87.05 -22.25,104.8 -1.35,6.01 -5.56,35.03 -12.93,27.66 -2.71,-2.71 18.79,-89.61 22.4,-104.64 2.1,-8.87 4.06,-30.97 12.78,-27.82l-0 0zm-41.8 139.23c4.96,1.5 12.63,0.45 17.44,-2.71 1.8,-1.96 33.98,-138.62 31.27,-141.93 -5.41,-3.61 -15.79,-2.86 -18.34,3.31l-13.98 60.29c-3.16,13.38 -19.24,72.62 -16.39,81.04l0 0z"/>
  <path class="fil16" d="M1534.82 375.27c-6.62,-0.15 -2.56,0.3 -3.91,-1.5 33.83,-21.5 71.87,-23.15 81.19,-29.47 3.61,-2.56 1.96,-2.71 5.56,-5.41 2.83,-2.11 26.8,-9.34 23.6,-25.56 -0.9,-4.66 -0.75,-2.71 -2.56,-4.66 0.45,5.11 0.9,3.91 -5.41,5.41 -12.03,2.71 -19.4,0.6 -26.91,9.47 -6.92,8.12 -18.19,12.03 -30.22,16.99 -38.49,15.94 -24.66,11.58 -44.35,27.36 -3.61,3.01 -10.52,7.67 -9.62,12.93 5.84,0.97 9.91,-1.36 12.63,-5.71l0 0.15z"/>
  <path class="fil7" d="M1295.61 617.04c2.41,-1.65 3.16,-0.6 1.96,-1.35 2.41,19.1 -1.05,31.57 -7.37,46.01l-17.14 39.24 15.64 0.45c4.66,-13.83 13.38,-21.8 18.79,-38.19 4.36,-13.23 8.42,-32.33 7.67,-47.81 -0.9,-4.7 -7.33,-24.79 -10.98,-27.21l-8.87 28.87 0.3 0z"/>
  <path class="fil12" d="M1288.85 701.39c24.51,-6.62 37.74,-17.74 49.46,-33.68 6.92,-9.47 -1.65,-16.69 -7.37,-26.61l-15.49 -25.71c2.18,44.91 -21.25,70.02 -26.46,86l-0.15 -0z"/>
  <path class="fil8" d="M1376.35 263.11c0.3,19.24 -1.05,31.27 17.29,35.18 21.62,4.66 23.48,-8.56 27.66,-21.8 6.33,-20.04 -30.34,-21.76 -43.3,-22.7l-1.8 9.47 0.15 -0.15z"/>
  <path class="fil16" d="M1135.64 643.35c4.27,8.55 18.74,16.12 28.12,18.79 27.82,7.82 74.72,-25.26 84.8,-48.26 -8.87,3.46 -36.24,20.3 -47.96,24.36 -27.36,9.47 -37.29,4.06 -64.95,5.11l0 0.01z"/>
  <path class="fil16" d="M1331.24 260.4l-5.86 36.84 39.84 -0.15c7.37,-1.8 1.65,-2.86 7.22,-6.32 9.32,8.57 2.86,9.17 19.1,13.68 27.51,7.67 10.98,1.2 26.91,1.35 5.56,8.27 5.11,10.82 18.64,16.69 12.63,5.41 18.19,9.17 22.85,-6.16 -0.61,-11.05 -48.31,5.43 -37.14,-38.04l-1.35 -1.96c-3.16,5.78 -2.01,27.33 -27.66,21.8 -18.34,-3.91 -16.99,-15.94 -17.29,-35.18 -3.31,-0.6 -1.05,-0.15 -3.46,-4.96 0.6,23.76 -18.49,48.11 -37.74,24.51 -6.92,-8.57 -2.26,-12.03 -3.91,-22.25l-0.15 0.15z"/>
  <path class="fil8" d="M1331.24 260.4c1.65,10.37 -3.01,13.68 3.91,22.25 18,22.26 39.37,3.26 37.44,-29.62 -18,-7.71 -18.74,-9.29 -38.94,-7.37 0.45,4.06 -2.86,7.82 -2.41,14.73z"/>
  <path class="fil6" d="M1411.53 82.84c1.96,2.1 1.8,2.1 4.36,3.61l1.2 -1.96c3.76,-6.46 -0.3,-2.71 3.61,-6.16 1.35,-6.92 4.21,-4.66 7.22,-10.22 4.36,-8.27 -7.37,-13.98 -11.58,-23.3 -11.79,-25.97 -49.15,12.85 -33.98,37.74 6.16,0.3 4.21,-1.05 9.77,-2.71 4.66,-1.35 8.72,-0.75 12.93,-1.65 3.16,-5.71 -2.41,-15.64 -12.03,-19.1 13.13,-0.73 18.41,13.26 18.5,23.75z"/>
  <path class="fil6" d="M1430.32 85.09c0.51,4.36 -3.09,11.96 17.74,8.27 5.41,-0.9 13.53,-4.51 18.94,-6.46 23.46,-8.72 26.31,-2.71 49.32,-6.01 -0.72,-9.89 -3.46,-21.79 -15.49,-23.75 -14.73,-2.41 -21.95,13.83 -46.46,18.64 -10.07,1.96 -22.55,-0.45 -24.21,9.32l0.15 -0z"/>
  <path class="fil17" d="M1323.12 450.6c-3.76,1.96 -4.36,1.05 -3.91,7.82 4.96,4.06 47.36,13.98 62.7,23.6 6.46,4.21 10.52,12.48 15.04,14.43 5.26,-7.67 3.46,-22.7 23.15,-40.14 12.03,-10.52 25.11,-14.43 39.99,-23.15l-5.26 -16.54c-1.35,8.72 -16.99,21.35 -25.56,26.16 -30.75,17.1 -48.47,38.53 -92.01,17.59 -10.11,-4.86 -13.47,-5.62 -14.13,-9.77l-0 0z"/>
  <path class="fil9" d="M1295.61 617.04c-2.86,3.01 -8.27,15.94 -12.03,21.8 -8.27,12.93 -26.16,30.67 -26.61,44.5 -0.45,11.13 6.01,17.44 16.24,17.74l17.14 -39.24c6.32,-14.43 9.62,-26.91 7.37,-46.01 1.2,0.75 0.45,-0.3 -1.96,1.35l-0.15 -0.15z"/>
  <path class="fil6" d="M1422.81 278.45c-11.21,42.4 32.22,26.57 37.14,38.04 0,-13.64 9.97,-30.33 -9.02,-38.64 -8.27,-6.92 -5.56,-4.36 -15.04,-6.32l-10.07 -1.35 -3.01 8.27z"/>
  <path class="fil18" d="M1272.76 506.68l6.77 -1.2c0.45,8.87 -4.51,12.18 -8.57,16.69 -24.66,27.21 -43.15,21.35 -51.27,25.86l10.98 1.96c13.05,0.42 32.77,-10.43 43.75,-18.95 19.09,-14.73 23.3,-28.87 32.92,-42.85 4.5,-6.49 32.54,-7.49 35.63,-6.91 5.41,1.05 3.46,-0.6 2.56,1.65 2.86,-1.8 2.86,2.1 2.26,-3.16 -18.34,-1.5 -28.87,-11.13 -36.38,-7.97 -1.96,0.75 -2.26,1.8 -5.56,3.01 -10.17,3.85 -4.69,-1.52 -9.62,11.58 -5.71,15.49 -17.89,14.88 -23.45,20.15l0 0.15z"/>
  <path class="fil12" d="M1521.29 734.61l2.56 8.27 -5.41 -1.65c4.28,21.38 -22.73,12.89 -28.87,14.28 6.77,5.71 26.76,2.26 34.13,-0.9 9.47,-4.06 12.93,-11.13 17.74,-21.65 10.23,-22.3 6.87,-20.32 -13.23,-53.07 1.8,18.34 -0.15,38.34 -4.51,54.88l-2.41 -0.3 -0.01 0.15z"/>
  <path class="fil7" d="M1436.49 737.92c5.59,7.45 38.21,20.4 53.07,17.59 7.97,-1.8 11.28,2.56 20.3,0.15 7.22,-1.96 10.22,-6.16 8.57,-14.43l-14.89 -14.88c2.29,12.37 -15.91,14.14 -28.27,15.33 -16.54,1.65 -24.51,-0.6 -38.79,-3.61l0.01 -0.15z"/>
  <path class="fil19" d="M1420.4 337.54c4.66,6.77 7.52,6.16 14.88,11.28 17.14,12.03 37.14,29.17 48.56,-0.45 10.37,-26.91 6.32,-47.36 2.71,-72.32 -1.05,-7.52 -1.96,-18.04 -7.22,-20.75 -0.15,0.3 4.21,33.83 4.51,39.99 0.6,15.34 -1.05,28.57 -4.66,42.7 -10.07,39.84 -36.99,1.96 -58.79,-0.45l0 -0z"/>
  <path class="fil20" d="M1453.78 654.78c-0.15,-0.3 -27.51,-48.86 -32.48,-63.6 -2.41,-6.62 -7.37,-16.39 -10.52,-23.91 -8.57,0 -9.47,1.65 -6.32,11.13l16.39 37.74c4.81,9.92 8.72,13.83 13.38,23.15 5.41,10.82 7.97,11.88 17.14,18.04l2.41 -2.56z"/>
  <path class="fil1" d="M186.91 745.44c-3.01,-5.11 -0.45,-11.28 4.06,-14.13 3.61,4.81 1.5,11.73 -4.06,14.13zm-9.77 6.92c6.16,0.6 11.28,1.05 17.29,-0.75 3.01,-5.56 12.48,-81.79 12.18,-92.47 -3.01,5.71 -29.32,87.96 -29.47,93.22l0 0z"/>
  <path class="fil21" d="M1299.07 230.03l4.81 4.51c-11.93,21.37 -17.74,21.92 -37.74,29.92 15.94,-1.05 30.52,-0.75 40.29,-9.62 20.14,-18.49 19.71,-47.07 -2.56,-29.77 1.5,4.51 3.01,3.31 2.56,5.26l-7.37 -0.3z"/>
  <path class="fil17" d="M1560.53 470.75c-1.52,6.33 -3.96,3.86 -7.07,6.77 -1.65,1.5 -5.56,11.13 -13.08,7.97 -3.91,-1.65 -6.01,-11.43 -10.22,-15.64l-0.45 2.41c-5.56,-1.8 -1.5,-1.5 -6.77,-4.06 -2.26,7.97 -7.22,15.34 -5.41,24.36 9.17,6.32 17.44,7.82 29.62,1.35 9.58,-5.07 19.09,-14.18 13.38,-23.15l-0 0z"/>
  <path class="fil21" d="M1210.06 514.5c11.58,0.3 24.51,4.06 36.08,5.71 19.4,2.86 19.4,-6.92 26.61,-13.53 -13.53,1.8 -8.12,7.52 -27.82,0 -10.07,-3.91 -17.74,-6.62 -30.22,-3.91 -1.96,2.86 -3.46,8.57 -4.81,11.73l0.15 0z"/>
  <path class="fil16" d="M1497.83 307.17c6.32,-6.92 0.9,-10.68 5.86,-19.85 21.71,-5.56 70.8,24.97 86.75,9.02 -20.75,5.41 -40.9,-13.83 -65.1,-16.24 -6.01,-0.6 -22.7,1.65 -24.81,6.32 -7.12,16.81 -2.83,13.28 -2.7,20.75z"/>
  <path class="fil16" d="M1418.45 258.75l16.54 8.27c-0.75,4.96 1.35,2.26 -4.36,3.01 13.13,4.35 10.13,-0.72 20.15,7.82 2.69,-6.41 0.8,0.7 10.82,1.5l-2.71 -18.34c-5.86,10.07 -13.83,-5.56 -16.39,-8.87 -17.29,1.8 -11.73,0 -15.34,-21.5 -6.09,28.54 -3.74,28.36 -9.02,27.97l0.3 0.14z"/>
  <path class="fil22" d="M1425.81 93.21l3.16 0.6c3.28,-20.76 4.53,-13.85 25.56,-17.89 29.02,-5.57 48.66,-39.43 61.49,-1.05 2.5,7.47 -2.97,25.17 -10.37,20.6l-3.91 -3.31c0.92,6.25 0.34,8.29 10.22,7.22 7.22,-9.47 12.48,-16.99 7.52,-28.87 -3.76,-9.02 -10.82,-17.74 -22.4,-18.19 -12.48,-0.45 -20.15,7.37 -27.66,12.78 -17.29,12.48 -10.07,7.52 -33.08,8.12 -5.86,4.21 -11.73,10.07 -10.37,20.15l-0.15 -0.15z"/>
  <path class="fil17" d="M1423.71 165.98c8.02,17.73 32.11,26.18 54.43,4.96 7.22,-6.92 8.27,-6.01 7.37,-17.59l-5.41 0.45c-19.39,34.48 -50.23,12.28 -56.38,12.18z"/>
  <path class="fil11" d="M1530.16 469.84c4.21,4.21 6.32,13.98 10.22,15.64 7.67,3.16 11.43,-6.46 13.08,-7.97 3.91,-3.76 1.05,1.2 5.41,-3.76 -5.26,1.5 -10.37,2.56 -15.94,1.35 -3.31,-7.97 1.35,-5.11 -5.86,-14.43 -10.37,-13.53 -15.04,-22.7 -28.12,-29.32 5.26,13.38 16.69,25.41 21.2,38.49l0 -0z"/>
  <path class="fil11" d="M1336.5 230.19l-0.75 11.28 9.92 -0.15c-1.2,1.96 -1.05,2.41 -2.56,3.61 5.41,0.15 10.82,0.9 14.73,1.96 4.06,-3.46 7.97,-0.3 13.38,0.45l5.71 -13.98 -2.71 3.46c-21.2,-2.56 -16.54,-2.56 -25.11,-8.42 -5.86,-3.91 -3.16,0 -9.32,-2.41l0.9 -11.58 -4.21 15.78z"/>
  <path class="fil23" d="M1376.95 233.19l-5.71 13.98c-5.26,-0.75 -9.32,-3.91 -13.38,-0.45l14.73 6.32c0.28,4.81 0.23,9.27 3.76,10.07l1.8 -9.47c55.9,4.08 38.93,16.39 44.66,24.66l3.01 -8.27c11.85,-0.36 8.72,0.85 9.32,-3.16 -37.63,-21.29 -43.13,-8.4 -55.18,-20.15l1.35 -23.46c-4.21,5.71 -3.46,3.76 -4.36,9.92l0 -0z"/>
  <path class="fil17" d="M1578.57 430.6l14.43 15.04 6.46 -14.43c4.06,-28.71 -18.19,-28.71 -20.9,-30.82l-5.11 -6.32 1.35 8.87 13.23 2.56c1.24,5.84 1,25.19 -9.47,25.1z"/>
  <path class="fil19" d="M1319.82 360.09c6.32,-4.21 13.38,-17.89 40.6,-19.4 26.01,-1.5 34.73,15.49 40.75,19.4 -7.07,-35.18 -73.52,-33.38 -81.34,0z"/>
  <path class="fil11" d="M1488.66 165.98c-2.41,6.92 -2.71,8.27 -3.61,17.74 -4.81,3.31 -8.42,7.37 -16.39,7.97 -5.41,0.45 -17.14,-0.15 -21.05,-3.91 -5.26,0 -5.26,-0.9 -10.22,-2.71 -2.41,2.86 -5.71,1.35 -9.62,3.76 15.64,-1.8 16.09,8.12 25.26,12.78 -1.8,-7.22 -0.6,-1.8 0.6,-3.91 16.09,6.01 24.06,0.3 33.68,-14.88 9.62,-15.34 7.07,-7.67 6.32,-23.76 -2.86,2.41 -3.01,5.11 -5.11,6.77l0.15 0.15z"/>
  <path class="fil11" d="M1561.88 456.16c1.8,5.71 6.32,14.58 9.47,19.4 18.19,-4.06 16.99,-26.61 5.26,-37.29 0.75,8.4 -7.35,19.2 -14.73,17.89z"/>
  <path class="fil11" d="M1327.93 393.92c1.98,24.42 6.08,18.76 6.77,25.71 10.68,0 11.28,-21.5 13.53,-28.56l3.16 3.16c0.6,-5.11 -2.41,-17.29 -7.22,-18.64 -2.26,5.41 2.71,7.22 -1.65,14.13 -2.71,4.36 -8.27,7.37 -14.73,4.36l0.15 -0.15z"/>
  <path class="fil6" d="M1562.18 496.61c0.15,1.35 -2.56,5.41 13.23,3.16 16.84,-2.41 26.61,-18.94 11.73,-23 -4.06,1.8 -7.22,6.16 -13.08,9.32 -6.46,3.46 -9.17,4.36 -11.73,10.68l-0.15 -0.15z"/>
  <path class="fil16" d="M1167.96 284.16c1.47,14.95 22.59,8.55 26.46,13.98 0.15,0.3 1.05,1.8 1.2,2.1 0,-7.97 3.91,-15.19 1.2,-21.2 -9.77,-5.41 -19.4,2.41 -29.02,4.96l0.15 0.15z"/>
  <path class="fil24" d="M1390.03 414.52l2.71 3.01c8.57,-3.61 16.84,-6.62 20.75,-14.43 -6.92,1.05 -9.62,3.61 -15.19,6.16 -4.81,-1.2 -16.69,-7.22 -21.65,-12.33 -16.15,-16.51 -11.81,-15.53 -16.54,-19.7 2.25,17.69 21.27,37.44 30.07,37.44l-0.15 -0.15z"/>
  <path class="fil21" d="M1430.32 85.09l-1.35 8.57 -3.16 -0.6c-1.2,5.56 1.96,3.16 -3.31,2.86 17.39,19.29 28.07,-2.28 65.1,-11.88 0.45,-0.15 1.8,-2.26 6.62,-2.56 4.51,-0.3 11.28,3.61 18.19,-0.15 -21.5,1.96 -24.06,-2.56 -45.41,5.41 -8.63,3.24 -22.02,9.1 -32.17,6.91 -5.26,-1.2 -3.76,-2.26 -4.51,-8.72l-0 0.15z"/>
  <path class="fil25" d="M1492.72 714.62l25.56 26.31 5.41 1.65 -2.56 -8.27c-6.71,-1.2 -44.87,-50.21 -48.26,-55.93l-2.71 1.8c4.35,9.9 15.44,19.85 22.55,34.43z"/>
  <path class="fil20" d="M1492.72 714.62c-3.16,-9.32 -18.04,-24.21 -22.4,-34.13 -3.16,-2.86 -3.01,-2.56 -4.21,-6.77 -2.41,-1.2 -2.71,-1.96 -6.16,-1.8 -3.76,10.22 23.6,38.34 30.52,44.96l2.26 -2.26z"/>
  <path class="fil26" d="M1489.71 470.9c10.22,1.65 16.09,-0.6 20.75,-6.62 -1.2,-11.58 -10.82,-10.82 -22.1,-12.48l1.35 19.24 0 -0.15z"/>
  <path class="fil19" d="M1390.03 419.03l0 -4.51c-8.8,0 -27.83,-19.75 -30.07,-37.44l0.75 -0.3 -3.61 -0.15c1.65,12.78 1.8,20.45 8.42,29.62 4.36,6.01 13.23,13.53 24.36,12.63l0.15 0.15z"/>
  <path class="fil27" d="M160.9 618.39l10.82 1.65c2.41,7.67 -5.11,28.42 -5.41,33.68 -0.3,7.07 -0.3,3.31 1.5,5.26l15.34 -47.96c-4.96,-0.75 -19.7,3.46 -22.4,7.37l0.15 0z"/>
  <path class="fil11" d="M1447.62 187.78c4.06,3.76 15.79,4.36 21.05,3.91 7.82,-0.75 11.58,-4.66 16.39,-7.97 0.9,-9.47 1.2,-10.68 3.61,-17.74 -3.91,3.01 -4.06,5.56 -7.82,9.17 -18.64,18.04 -28.57,11.88 -33.38,12.63l0.15 0z"/>
  <path class="fil28" d="M1263.28 657.18c7.22,-3.33 25.33,-36.95 24.96,-44.8 -6.46,2.41 -24.81,35.18 -24.96,44.8z"/>
  <path class="fil21" d="M1210.36 331.82l-17.59 -35.48 -0.15 3.91c-5.41,1.65 -2.1,0.15 -7.82,3.31 3.16,7.22 18.64,24.66 25.71,28.42l-0.15 -0.15z"/>
  <path class="fil24" d="M1337.11 199.96c9.17,-7.67 6.92,-25.86 25.56,-24.96 -8.21,-8.21 -16.25,-6.9 -20.6,-0.75l-4.96 25.71z"/>
  <path class="fil2" d="M491.83 564.57c7.37,-3.46 16.69,-13.53 17.74,-23 -3.46,-1.65 -7.67,-3.16 -12.03,-3.61l-5.71 26.61z"/>
  <path class="fil6" d="M1293.2 453.46c3.91,1.65 6.32,9.62 11.73,12.93 11.47,-4.12 7.32,-18.96 -8.42,-20.3 -2.86,4.81 -2.26,1.65 -3.46,7.52l0.15 -0.15z"/>
  <path class="fil17" d="M1491.97 115.77c8.12,-18.04 1.2,-13.83 -3.01,-28.12 -11.92,7.1 -7.8,9.92 3.16,28.12l-0.15 0z"/>
  <path class="fil29" d="M1599.77 531.04c6.01,-3.91 6.62,-3.01 10.52,-9.02 5.76,-9 12.63,-19.26 2.56,-22.85 -1.35,6.92 -2.1,15.34 -6.32,20.6 -5.11,6.62 -13.53,5.11 -16.24,11.73l9.47 -0.3 0 -0.15z"/>
  <path class="fil24" d="M1305.98 443.83l7.07 4.36c7.87,-3.37 27.02,-13.01 17.14,-21.65 -1.05,4.81 0.3,2.26 -5.41,5.11 -12.93,6.32 -9.92,11.28 -18.79,12.33l0 -0.15z"/>
  <path class="fil30" d="M253.97 597.79l1.05 -8.42c-6.91,1.24 -27.16,4.93 -30.52,10.07 5.41,0.15 11.58,-0.75 16.54,-0.3 7.37,0.75 6.16,3.16 12.18,4.21l0.75 -5.71 0 0.15z"/>
  <path class="fil31" d="M1450.32 66.3c7.67,-0.75 16.39,-8.57 20.45,-12.18 12.63,-11.58 18.49,-5.86 24.81,-10.22 -3.91,-14.88 -44.05,19.24 -45.11,22.4l-0.15 -0z"/>
  <path class="fil24" d="M1512.42 81.64c-9.72,5.32 -15.81,-4.02 -24.81,2.71l8.12 1.65c-3.76,1.2 -1.2,-0.45 -3.91,1.65 17.14,-1.8 6.46,3.31 10.68,9.62l-0.75 -5.11 3.91 3.31 -0.75 -4.06c4.06,-0.15 4.96,0.3 7.52,1.5 2.86,-6.16 6.77,-12.03 3.61,-18.04l0.45 6.16 -4.06 0.6z"/>
  <path class="fil29" d="M1520.08 58.48l9.32 12.03c4.96,-0.9 7.82,-5.56 8.72,-9.62 -5.26,-0.6 -4.81,0.6 -8.57,-2.1l6.92 -2.1c-7.11,-11.45 -13.35,1.8 -16.39,1.8z"/>
  <path class="fil17" d="M1303.28 301c8.12,0.15 9.62,1.5 16.09,-1.96l1.65 -14.28c-14.43,6.32 -10.37,2.1 -17.89,16.24l0.15 0z"/>
  <path class="fil32" d="M1334.7 419.63c1.96,3.91 1.2,4.96 4.36,8.57l-0.6 -4.51c15.39,-16.5 12.37,-9.29 12.93,-29.47l-3.16 -3.16c-2.1,7.07 -2.86,28.56 -13.53,28.56z"/>
  <path class="fil33" d="M1433.63 61.79c2.59,-8.63 0.04,-23.01 -12.63,-23.01 -0.9,11.73 3.16,4.96 8.57,17.29 2.86,6.77 -0.3,3.16 4.21,5.71l-0.15 0z"/>
  <path class="fil20" d="M1535.12 441.58c7.67,-0.3 9.02,0.3 13.53,-3.31l-2.26 -8.72 -0.6 3.46c-18.94,0.75 -8.87,-3.16 -16.84,-3.16 0,6.7 5.57,11.73 6.17,11.73z"/>
  <path class="fil24" d="M1590.3 296.34c-6.11,6.11 -12.79,4.63 -20.6,3.76 2.71,2.1 -3.01,0 3.76,2.1l18.04 3.31c3.7,-7.95 8.01,-3.08 7.07,-10.68l-8.57 1.35 0.3 0.15z"/>
  <path class="fil34" d="M1453.18 201.77c-9.17,-4.66 -9.77,-14.58 -25.26,-12.78 -3.46,0.9 0,-0.45 -1.65,2.41 16.09,2.71 16.69,8.57 26.01,14.28l0.9 -3.91z"/>
  <path class="fil35" d="M1237.43 662.9c9.02,5.41 17.14,-5.41 17.74,-13.23 -5.56,1.35 -15.49,9.32 -17.74,13.23z"/>
  <path class="fil36" d="M1407.77 115.92l5.71 1.05c-1.96,4.51 -1.96,1.05 -5.41,5.11l3.16 -1.2c0.3,7.97 1.5,16.54 -0.6,24.21 2.41,-1.8 1.5,2.1 2.26,-3.76l2.41 -13.53c0.15,0.45 0.3,0.9 0.6,1.35 -1.61,-21.47 1,-9.7 2.1,-18.49 -8.12,6.32 -5.11,1.35 -10.22,5.41l0 -0.15z"/>
  <path class="fil37" d="M1290.35 460.97c-0.9,-6.16 -0.15,-3.76 2.56,-4.51l-0.45 -3.01 0.9 0c1.2,-5.86 0.6,-2.56 3.46,-7.52 -3.76,0.75 -0.9,0.9 -2.26,-1.05 -0.3,0.15 -3.61,1.35 -4.66,1.8l-0.3 -4.51c-2.34,1.75 -3.85,0.78 -1.5,14.59 2.1,6.01 0.75,1.96 2.55,4.21l-0.3 -0.01z"/>
  <path class="fil38" d="M1258.93 443.83c7.52,-1.65 11.13,-8.72 6.62,-15.79 -4.51,2.1 -6.62,11.13 -6.62,15.79z"/>
  <path class="fil39" d="M1535.12 441.58c8.54,10.5 4.88,1.63 17.14,5.71 -2.1,-4.66 -2.71,-2.71 -3.76,-8.87 -4.51,3.61 -5.86,3.01 -13.53,3.31l0.15 -0.15z"/>
  <path class="fil31" d="M1420.7 128.4c6.77,1.35 7.52,-3.61 5.71,-9.77l-5.56 -1.35 -0.15 11.13z"/>
  <path class="fil34" d="M1574.06 431.65c-5.79,-5.79 -0.59,-4.13 -4.96,-10.68 -0.3,11.13 -3.31,5.71 -6.16,13.53 5.86,2.71 4.51,-0.45 11.28,-2.86l-0.15 0z"/>
  <path class="fil34" d="M1333.65 245.67c11.36,-1.08 9.18,0.11 12.03,-4.51l-9.92 0.15 0.75 -11.28 -2.86 15.64z"/>
  <path class="fil40" d="M1286.74 425.64l12.33 -2.26 0 -2.1 -3.46 -0.15c-1.5,-5.11 0.15,-4.06 -4.06,-5.26l-4.06 8.57c-0.15,-0.3 -0.45,0.75 -0.6,1.2l-0.15 0z"/>
  <path class="fil41" d="M1290.35 460.97c2.86,2.56 3.76,4.66 8.87,5.41 -0.9,-4.66 -5.41,-6.46 -6.32,-9.92 -2.56,0.75 -3.45,-1.65 -2.56,4.51l0 0z"/>
  <path class="fil15" d="M1408.22 121.93c3.46,-3.91 3.46,-0.6 5.41,-5.11 -3.8,-1.89 -10.21,-3.25 -7.97,6.16l2.71 -1.2 -0.15 0.15z"/>
  <path class="fil42" d="M1299.07 421.28l0 2.1 1.8 -1.5c1.5,7.37 -0.6,-0.3 2.71,3.31l0.45 -9.77c-4.36,2.1 -3.61,1.05 -4.96,6.01l0 -0.15z"/>
  <path class="fil28" d="M1493.32 146.29c6.32,1.5 6.92,0.75 5.71,-4.36 -3.91,-1.05 -6.16,-1.5 -5.71,4.36z"/>
  <path class="fil43" d="M1505.65 95.32c4.21,1.8 4.96,1.05 6.77,-2.56 -2.56,-1.2 -3.46,-1.5 -7.52,-1.5l0.75 4.06z"/>
  <path class="fil44" d="M253.97 597.79c0.9,-0.9 2.86,2.1 1.8,-9.32l-6.77 1.95 5.86 -1.05 -1.05 8.42 0.15 0z"/>
  <path class="fil45" d="M432.44 315.59c1.96,-1.8 1.2,1.05 3.01,-3.91l-0.15 4.21c0.01,-0.01 4.59,-0.19 0.3,-6.61l-3.31 6.32 0.15 -0z"/>
  <path class="fil46" d="M1215.47 274.39c2.71,2.26 -0.15,3.76 6.01,0.75 -0.45,-4.51 0.45,-1.65 -2.86,-4.06l1.5 4.21 -4.81 -0.9 0.15 0z"/>
  <path class="fil47" d="M1357.25 376.63l3.61 0.15 -1.35 -4.51c-2.71,3.76 -1.8,2.1 -2.26,4.36z"/>
  <path class="fil36" d="M1563.99 405.64l-1.05 -2.56 3.16 0.75c-1.8,-2.1 2.86,-1.96 -4.21,-2.1 0.6,6.62 0.15,2.1 2.1,3.76l0 0.15z"/>
  <polygon class="fil48" points="1390.03,419.03 1392.74,417.52 1390.03,414.52 "/>
 </g>
</svg>
