<?xml version="1.0" encoding="UTF-8"?>
<!DOCTYPE svg PUBLIC "-//W3C//DTD SVG 1.1//EN" "http://www.w3.org/Graphics/SVG/1.1/DTD/svg11.dtd">
<!-- Creator: CorelDRAW -->
<svg xmlns="http://www.w3.org/2000/svg" xml:space="preserve" width="25.4mm" height="19.05mm" version="1.1" style="shape-rendering:geometricPrecision; text-rendering:geometricPrecision; image-rendering:optimizeQuality; fill-rule:evenodd; clip-rule:evenodd"
viewBox="0 0 47.54 35.66"
 xmlns:xlink="http://www.w3.org/1999/xlink"
 xmlns:xodm="http://www.corel.com/coreldraw/odm/2003">
 <defs>
  <style type="text/css">
   <![CDATA[
    .fil0 {fill:#282829}
    .fil2 {fill:red}
    .fil1 {fill:white}
   ]]>
  </style>
 </defs>
 <g id="Camada_x0020_1">
  <metadata id="CorelCorpID_0Corel-Layer"/>
  <g id="_2482281818224">
   <path class="fil0" d="M40.37 6.61c0.47,-0.1 0.69,-0.22 0.81,-0.58 0.37,-1.08 -0.64,-1.14 -1.05,-2.49 0.43,0.03 0.61,0.38 0.84,0.62 0.24,0.24 0.39,0.56 0.8,0.65 0.11,-0.17 0.16,-0.68 0.16,-0.96 0,-0.75 -0.5,-1.25 -0.93,-1.69 -0.45,-0.47 -0.86,-0.92 -1.51,-1.24 -3.52,-1.76 -4.2,-0.43 -4.44,-0.43 -0.92,0 -1.24,-0.71 -3.39,0.82l-1.05 0.82c-0.48,0.36 -0.87,0.84 -1.19,1.31 -0.31,0.45 -0.5,1.09 -0.86,1.5 -0.98,-0.4 -1.14,-0.36 -2.58,-0.36 -0.22,-0.32 -0.35,-0.8 -0.86,-0.9 0.02,0.17 0.1,0.45 0.16,0.6 0.03,0.06 0.1,0.19 0.14,0.25 0.09,0.17 0.05,-0.09 0.09,0.23 -0.47,0.1 -0.89,0.46 -1.25,0.48 0,-0.41 -0.19,-0.48 -0.7,-0.48 -1.73,0 -2.44,-0.2 -2.66,0.42 -0.01,-0.01 -0.02,-0.03 -0.02,-0.04 -0.01,-0.01 -0.02,-0.03 -0.02,-0.04 -0.01,-0.01 -0.04,-0.07 -0.05,-0.08 -0.05,-0.08 -0,-0.04 -0.08,-0.12 -0.09,-0.08 -0.13,-0.13 -0.29,-0.13l-2.5 0c-0.53,0 -0.62,0.87 -0.62,1.2l-0.23 0c-0.06,-0.57 -0.67,-1.08 -1.34,-1.25 -0.77,-0.2 -1.51,-0.16 -2.28,0.03 -0.31,0.07 -0.53,0.16 -0.76,0.26 -0.6,0.27 -0.94,0.68 -1.17,0.73 0.16,-0.53 0.29,-1.42 -0.01,-1.98 -0.28,-0.52 -0.85,-0.78 -1.53,-0.93l-3.53 -0.15c-0.32,0.03 -0.51,0.05 -0.95,0.05 -0.14,0.16 -0.14,0.09 -0.25,0.29 -0.22,0.42 -0.73,2.64 -0.98,3.34 -0.45,1.27 -1.06,3.74 -1.49,5.16l-0.43 1.47c-0.1,0.26 -0.77,1.82 -0.05,1.82l2.11 0c1.27,0 2.23,-0.12 3.52,-0.12 0,0.69 -0.44,1.97 -0.64,2.63l-1.1 3.78c-0.07,0.22 -0.1,0.43 -0.18,0.64 -0.34,0.96 -0.54,2.29 -0.8,3.17l-1.48 0.25c-0.98,0.15 -2.04,0.23 -2.94,0.5 -0.95,0.28 -1.06,1.12 -0.26,1.17 0.54,0.04 3.79,-0.66 4.69,-0.77l1.95 -0.24c0,0.44 -0.14,0.78 -0.27,1.18 -0.07,0.22 -0.13,0.37 -0.19,0.57 -0.07,0.25 -0.11,0.24 -0.18,0.52l-1.03 3.36c-0.12,0.43 -0.18,0.71 -0.3,1.15 -0.05,0.17 -0.13,0.34 -0.18,0.58 -0.06,0.27 -0.08,0.31 -0.15,0.54 -0.19,0.56 -0.27,1.11 -0.27,1.66 0,0.22 0.65,0.82 1.11,-0.71l1.15 -3.68c0.29,0.16 0.11,0.34 0.31,0.6 0.39,0.52 0.98,0.22 1.41,-0 1.19,0.61 1.4,-0.22 2.03,-0.78 0.11,0.36 -0.29,1.8 0.47,1.8 0.82,0 0.63,-0.64 1.08,-0.91 0.11,-0.07 0.25,-0.08 0.39,-0.12 1.29,-0.41 2.32,-2.76 1.77,-3.75 -0.51,-0.92 -1.52,-0.02 -1.76,0.03 0.01,-0.51 0.29,-1.11 0.45,-1.58 0.28,-0.8 0.2,-1.24 0.87,-1.25 -0.06,0.21 -0.16,0.2 -0.16,0.42 0,1 2.05,-0.03 2.49,-0.19l0.67 -0.26c0.29,-0.11 0.92,-0.39 1.13,-0.39 0.41,0 0.4,0.1 0.32,0.42l-2.1 6.63c-0.09,0.35 -0.71,1.67 0.29,1.67 0.37,0 0.97,-1.79 1.15,-2.24 0.06,-0.16 0.09,-0.27 0.16,-0.42 0.09,-0.21 0.1,-0.11 0.1,-0.41l0.16 0c0.07,0.22 0.03,0.42 0.39,0.42 0.96,0 4.17,-2.4 4.88,-3.04l2.65 -2.29c0.19,-0.21 0.32,-0.36 0.49,-0.59 0.54,-0.71 0.6,-0.32 1.1,-0.71 0.63,-0.5 0.47,-1.13 1.73,-1.13 0.61,0 0.48,0.15 1.21,-0.27 0.33,-0.19 0.55,-0.54 0.98,-0.57 0,0.43 0.03,0.23 -0.16,0.48 -0.04,0.05 -0.02,0.01 -0.08,0.12 -0.01,0.02 -0.03,0.07 -0.04,0.09 -0.04,0.09 -0.04,0.1 -0.08,0.18 -0.18,0.33 -0.38,0.35 -0.67,0.57 -0.62,0.46 -0.47,0.37 -0.54,0.31 -0.12,-0.09 -0.03,-0.01 -0.06,-0.17 -0.21,-1.08 -1.04,-0.71 -1.5,-0.02 -0.3,0.46 -0.43,1.11 -0.53,1.63 -0.1,0.49 -0.49,1.05 -0.54,1.57 -0.96,-0.17 -0.84,0.18 -1.25,0.18 -0.41,0 -1.19,-0.78 -2.22,1.06 -0.31,0.54 -0.58,1.29 -0.58,1.89 -0,0.32 0.2,1.02 0.62,1.02 0.44,0 0.71,-0.12 1.02,-0.24l0.24 0.12c0.81,0.39 1.6,-0.57 1.72,-0.96 0.27,0.15 0.12,0.13 0.08,0.48 -0.18,1.83 0.95,1.52 1.17,0.9 0.31,0.06 0.39,0.18 0.7,0.18 0.77,0 1.07,-0.56 1.56,-0.84 0.45,0.09 0.01,0.19 0.62,0.3 0.4,-0.21 1.05,-1.11 1.32,-1.45 0.14,-0.18 0.2,-0.36 0.47,-0.42 0.08,0.24 0.17,0.2 0.23,0.54 0.09,0.52 0.44,1.16 1.29,0.75 0.88,-0.43 0.97,-1.34 1.45,-1.59 0.1,0.15 0.14,0.28 0.23,0.42 -0.31,0.36 -0.8,0.71 -1.02,1.14 -0.22,0.42 -0.19,1.2 0.55,1.2 0.7,0 1.09,-0.79 1.46,-1.1 0.13,-0.11 0.29,-0.1 0.51,-0.15 0.51,-0.12 0.82,-0.46 1.06,-0.81 0.1,-0.15 0.18,-0.24 0.27,-0.39 0.08,-0.13 0.13,-0.25 0.2,-0.39 0.12,-0.24 0.27,-0.61 0.31,-0.84 0.39,-1.87 0.22,-1.34 0.8,-1.31 0.06,-0.51 0.22,-1.27 0.78,-1.56 0.37,0.07 0.62,0.23 0.86,0.42l0.65 0.53c0.32,0.34 -0.8,1.73 -0.8,2.54 0,0.25 0.46,0.46 0.74,0.34 0.19,-0.08 0.23,-0.15 0.32,-0.3l0.23 -0.36c0.3,-0.51 0.49,-0.99 0.79,-1.5l0.81 -1.54c0.18,-0.35 0.68,-1.16 0.78,-1.5l0.16 0c0,0.38 0.05,0.55 0.08,0.84l-0.47 0c0.02,0.18 0.2,0.5 0.29,0.68 0.13,0.25 0.16,0.4 0.25,0.65 0.45,1.26 -0.15,1.02 0.71,1.02 0.38,0 0.23,0.82 0.94,0.96 0,-0.68 0.03,-1.14 0.19,-1.78 0.13,-0.56 0.17,-0.27 -0.03,-0.81 -0.19,-0.51 -0.24,-1.12 -0.35,-1.66 -0.08,-0.43 0.09,-0.96 0.11,-1.35 0.03,-0.42 -0.22,-0.97 -0.14,-1.42 0.04,-0.21 0.06,-0.35 0.06,-0.65 -0.18,0.02 -0.15,-0.17 -0.16,0.21 -0.55,-0.04 -0.39,-0.58 -0.39,-0.9l0.39 0c-0.01,-0.44 -0.52,-1.11 -0.7,-1.5 -0.56,-1.18 -0.6,-1.34 -0.2,-2.44 0.24,-0.66 0.43,-0.46 0.43,-0.69 0,-0.44 -0.23,-0.76 -0.23,-1.2 0.37,0.02 0.15,0.08 0.39,0 -0.01,-0.29 -0.16,-0.43 -0.16,-0.66 0,-0.16 0.05,-0.06 0.08,-0.3 -0.37,-0.08 -0.18,-0.02 -0.25,-0.29 -0.17,-0.63 -0.52,-1.27 -0.88,-1.85 -0.22,-0.34 -0.32,-0.75 0.03,-1.06l0.48 -0.53c0.14,-0.17 0.78,-0.62 0.78,-0.78 0,-0.7 -1.31,0.74 -1.46,0.86 -1.04,0.82 -0.54,0.57 -0.96,1.02 -0.17,0.18 -0.08,0.09 -0.17,0.05 -0.33,-0.12 0.19,0.17 -0.14,-0.12 0,0.39 -0.07,0.46 -0.13,0.74 -0.16,0.68 -0.42,1.2 -0.7,1.87 -0.13,0.32 -0.66,1.2 -0.58,0.34 0.04,-0.46 0.19,-1.02 0.31,-1.4 0.17,-0.57 0.41,-1.83 0.81,-2.27 0.24,-0.26 0.39,-0.46 0.75,-0.62 0.83,-0.38 0.64,-0.09 0.93,-0.85 0.09,-0.23 0.26,-0.3 0.34,-0.52 -0.14,-0.16 -0.04,-0.12 -0.31,-0.18 0.17,-0.5 0.95,-0.23 1.02,-0.84 -0.65,0 -0.97,0.47 -1.17,-0.12 -0.61,0.04 -0.26,0.42 -0.82,0.37 -0.23,-0.02 -0.32,-0.17 -0.31,0.08 0,0.11 0.11,0.29 0.12,0.45 -1.14,-0.2 -0.66,-1.81 -1.41,-1.56 -0.27,0.09 -0.14,0.23 -0.47,0.3 0,-0.41 0.06,-0.7 0.47,-0.78 0,-0.29 -0.02,-0.64 -0.39,-0.72 0,0.75 -0.17,0.68 -0.38,1.21 -0.42,1.02 -0.26,1.43 0.09,2.39 0.11,0.29 0.28,0.83 0.29,1.22 -0.49,-0.1 -0.66,-0.54 -0.82,-0.93l-0.51 -1.11c-0.52,0.03 -0.7,0.56 -0.7,-0.3zm1.09 24.05c0.93,0 1.06,-1.51 0.06,-1.6 -1.06,-0.09 -1.41,1.6 -0.06,1.6zm-12.97 -10.1c0,-0.55 0.08,-0.86 0.08,-1.38l-0 -1.09c0.03,-0.28 -0.05,-0.13 0.11,-0.28 0.17,0.07 0.24,-0.05 0.28,0.64 0.02,0.33 0.04,0.5 0.09,0.83 0.06,0.37 0.16,1.23 -0.56,1.27zm16.33 -4.27c0,0.38 -0.01,0.54 0.08,0.84l0.16 0c0,-0.49 -0.19,-0.71 -0.08,-1.08 0.41,0.01 0.45,0.08 0.53,0.31 0.3,0.85 0.23,0.37 -0.12,0.9 -0.15,0.23 -0.06,0.24 -0.13,0.5 -0.08,0.3 -0.32,0.57 -0.48,0.84 -0.49,0.81 -0.26,0.32 -0.59,0.75 -0.19,0.25 -0.37,0.45 -0.85,0.48 0.04,-0.34 0.58,-0.56 0.62,-0.96l-0.16 0c-0.05,0.18 -0.12,0.26 -0.26,0.4 -0.19,0.19 -0.19,0.16 -0.44,0.26 0.05,-0.5 0.65,-0.98 0.7,-1.44 -0.17,0.09 -0.25,0.17 -0.38,0.31 -0.06,0.07 -0.09,0.12 -0.15,0.18l-0.17 0.17c0,-0.34 0.56,-1.61 0.94,-1.8 0.09,0.3 0.35,0.67 0.39,1.02 0.06,-0.03 0.16,-0.03 0.16,-0.12 0,-0.57 -0.27,-1 -0.09,-1.33 0.08,-0.14 0.11,-0.19 0.32,-0.23zm0.39 4.39c0.37,0.19 0.73,0.58 0.78,1.02 -0.49,-0.01 -0.5,-0.12 -0.65,-0.4 -0.15,-0.27 -0.21,-0.36 -0.13,-0.62zm-2.66 0.19c0.15,0.18 0.03,0.27 0.01,0.48 -0.37,-0.02 -0.39,-0.16 -0.39,-0.42 0,-0.25 0.26,-0.15 0.31,-0.13 0.36,0.22 -0.18,-0.24 0.08,0.07zm0.9 1.23c0.27,0.15 0.31,0.27 0.59,0.33 0,0.49 -0.35,0.74 -0.39,1.14l-0.16 0c-0.18,-0.6 -0.78,-0.89 -0.78,-1.74 0.33,0.02 0.49,0.14 0.74,0.28zm-0.11 2.01l-0.38 1.03c-0.1,0.18 0.02,0.12 -0.24,0.18 -0.03,-0.28 -0.13,-0.28 -0.16,-0.6 -0.02,-0.29 -0.04,-0.37 -0.07,-0.61 -0.07,-0.46 -0.24,-0.7 -0.24,-1.2 0.45,0.18 0.68,0.5 0.91,0.87 0.16,0.25 0.19,0.18 0.19,0.34z"/>
   <path class="fil1" d="M38.03 6.49c0.63,0 0.66,0.17 0.54,0.65 -0.04,0.18 -0.19,0.22 -0.28,0.39 -0.14,0.28 0.07,0.25 -0.42,0.34l0 0.36c0.95,0.35 0.94,0.57 0.93,1.33 -0,0.24 0.03,0.12 -0.07,0.29 -0.4,-0.23 -0.12,-0.39 -0.33,-0.77 -0.15,-0.26 -0.3,-0.43 -0.68,-0.5 -0.16,0.26 0.05,0.23 -0.31,0.3 -0.05,-0.16 0.03,-0.07 -0.16,-0.12l0 -0.48c-0.21,-0.04 -0.23,-0.05 -0.39,-0.12 0,-0.18 0.04,-0.25 -0.06,-0.38 -0.11,-0.14 -0.13,-0.08 -0.28,-0.01 -1.14,0.51 -1.31,0.01 -1.85,-0.03 0,0.78 -0.53,1.69 0.29,2.3 0.25,0.18 0.45,0.32 0.49,0.65 -0.56,-0.04 -1.02,-0.51 -1.2,-0.88 -0.39,-0.78 0.17,-1.07 0.02,-1.46 -0.12,-0.31 -0.39,0.22 -1,0.11l0 -0.78c-0.61,0.13 0.04,0.24 -1.33,0.24 -0.83,0.96 0.56,0.54 0.78,0.54 0.69,0 -0.14,0.82 -0.21,1.04 -0.07,0.24 -0.04,0.55 0,0.79 0.07,0.37 0.08,0.73 -0.03,1.11 -0.67,-0.14 -0.73,-1.19 -0.86,-1.62 -0.05,-0.18 -0.14,-0.47 -0.16,-0.66l-0.23 0c0,0.26 0,0.52 0,0.78 0,0.33 0.01,0.52 -0.24,0.66 0,-0.51 0.02,-1.3 0.15,-1.69 0.04,-0.13 0.07,-0.18 0.12,-0.33 0.02,-0.06 0.04,-0.13 0.06,-0.19 0.06,-0.15 0,-0 0.09,-0.17 0.1,-0.21 0.2,-0.55 0.2,-0.81 -0.05,-0.02 -0.14,-0.04 -0.17,-0.05 -0.26,-0.1 -0.18,-0.13 -0.46,-0.19 -0.4,0.59 -0.44,1.38 -0.67,2.01 -0.36,0.96 -0.85,1.15 -1.04,1.78 0.13,0.05 0.14,0.06 0.23,0.12 0.2,-0.1 0.4,-0.21 0.47,-0.42 0.43,0.24 -0.01,0.96 0.7,0.96 0.27,0 0.61,-0.44 0.47,0.04 -0.1,0.32 -0.07,0.53 -0.07,0.92 0.33,0.06 0.21,0.11 0.62,0.12l0 0.36c-0.59,0 -0.84,0.14 -0.86,0.66 -0.55,-0.04 -0.42,-0.27 -0.86,-0.36 0,1.27 1.05,0.69 2.56,0.86 0.22,0.02 0.52,0.1 0.72,0.17 0.14,0.05 0.01,0.01 0.15,0.06 0.79,0.32 0.63,0.73 0.63,1.38l-0.16 0c-0.04,-0.14 -0.06,-0.14 -0.08,-0.3 -0.36,0 -0.57,0.08 -0.87,0.17 -0.23,0.07 0.12,0.04 -0.3,0.07 0,0.33 -0.08,0.36 -0.08,0.66 -1.61,0 -1.05,0.21 -1.76,-0.45 -0.15,-0.14 -0.37,-0.15 -0.59,-0.15 -0.11,0.98 -0.1,0.83 0.42,1.72 0.25,0.43 0.48,0.76 0.74,1.18 0.47,0.78 1.07,1.49 1.34,2.4 0.39,-0.08 0.46,-0.34 0.72,-0.52 0.23,-0.16 0.68,-0.28 0.68,-0.56 0,-0.52 -0.47,-0.5 -0.23,-1.26 0.32,0.07 0.32,0.25 0.43,0.51 0.11,0.25 0.29,0.46 0.35,0.63l0.62 0c0.17,-0.25 0.16,-0.39 0.55,-0.48 0.54,-0.13 0.63,-0.19 0.63,-0.66 0,-0.27 -0.78,-0.39 -0.78,-1.32 0,-0.16 0.11,-0.23 0.23,-0.3 0.22,0.12 0.33,0.58 0.39,0.78 0.48,0 0.42,0.02 0.52,0.32 0.54,1.51 -0.39,1.68 -0.1,2.06 0.16,0.22 0.47,0.28 0.77,0.32 0.66,0.08 0.59,0.02 0.98,0.33 0.26,0.2 0.42,0.44 0.88,0.47 0.21,-0.31 0.16,-0.39 0.16,-0.84 -0.01,-0.64 0.11,-1.16 0.39,-1.75 0.04,-0.08 0.04,-0.09 0.08,-0.18 0.21,-0.43 0.47,-0.81 0.62,-1.26 0.29,-0.86 0.78,-1.78 0.78,-2.47 0,-0.16 -0.04,-0.17 -0.08,-0.3 -0.74,-0.05 -1.13,-0.14 -1.55,0.49 -0.56,0.84 -0.78,0.65 -1.42,0.53l0 -0.36c-0.1,-0.01 -1.49,-0.36 -2.09,0.13l-0.38 0.37c-0.08,0.09 -0.03,0.01 -0.09,0.11 -0.06,0.1 -0.07,0.13 -0.1,0.23l-0.32 -0.96c-0.03,-0.3 -0.21,-0.67 0.06,-0.93 0.58,-0.56 1.72,-0.43 2.69,-0.64 0.27,-0.06 0.28,-0.04 0.6,-0.08 1.29,-0.15 1.1,-0.39 1.32,-1.15 0.11,-0.41 0.11,-0.51 0.11,-1 -0.84,0.05 -0.51,0.04 -0.48,-0.55 0.01,-0.2 -0.06,-0.2 -0.06,-0.48 0,-0.17 0.39,-0.57 0.39,-1.2 0,-0.47 -0.62,-0.47 -0.62,-0.96 0,-0.33 0.16,-0.33 0.16,-0.66 0,-0.79 -0.08,-1.56 -0.34,-2.32 -0.22,-0.64 -0.54,-1.84 -1.15,-2.18 0,0.91 0.91,1.63 0.62,2.59 -1.02,-0.21 -0.54,-2.4 -1.48,-2.89 0,1.09 0.42,1.83 0.64,2.82l0.22 0.97zm-8.05 5.41c0,0.29 0.55,0.2 0.55,0.06 0,-0.14 -0.03,-0.07 -0.08,-0.24 -0.27,0 -0.47,-0.04 -0.47,0.18zm-1.02 -0.3l0.16 0c0.17,-0.23 0.08,-0.35 -0.17,-0.53 -0.18,-0.13 -0.13,-0.12 -0.46,-0.13 0.02,0.2 0.26,0.66 0.47,0.66zm4.84 10.52l0 0.18c0.28,0.19 0.2,0.18 0.55,0.18 0.3,0 0.23,-0.17 0.23,-0.54 -0.3,-0.16 -0.26,-0.18 -0.62,-0.18 -0.08,0.12 -0.16,0.18 -0.16,0.36zm2.97 -14.79c0.4,0.17 1.03,-0.03 1.33,-0.18l0 -0.36c-0.3,0.02 -0.52,0.1 -0.77,0.19 -0.15,0.05 -0.03,0.01 -0.16,0.06 -0.55,0.19 -0.36,0.03 -0.4,0.29zm4.14 22.61c0,0.46 0.94,0.56 0.94,-0.18 0,-0.42 -0.94,-0.42 -0.94,0.18zm-3.52 -8.18c-0.11,0.37 -0.11,0.29 0,0.66 1.57,0.28 1.46,-0.32 0.87,-0.55 -0.39,-0.16 -0.54,-0.21 -0.87,-0.11zm-2.58 -0.6c0,0.36 1.17,0.45 1.17,-0.12 0,-0.23 -0.33,-0.29 -0.53,-0.37 -0.46,-0.18 -0.16,-0.32 -0.64,-0.35 0,0.18 0.03,0.3 0.04,0.44 0.02,0.23 -0.04,0.13 -0.04,0.4zm-5.39 -15.45l0.58 -0.88c0.26,-0.78 0.33,-0.39 0.57,-0.95 0.1,-0.24 0.23,-0.55 0.1,-0.76 -0.44,0.23 -0.63,0.79 -0.94,1.26 -0.34,0.53 -0.95,1 -0.31,1.32zm6.02 16.06c-0.31,0 -0.86,-0.25 -0.61,0.21 0.12,0.22 0.34,0.45 0.68,0.45 0.2,0 1.05,-0.15 1.22,-0.2 0.44,-0.14 0.6,-0.64 0.03,-0.64 -0.51,0 -0.91,0.18 -1.33,0.18zm-1.8 1.02c0,0.13 0.17,0.45 0.24,0.54 0.32,0.45 0.77,0.62 0.95,0.77 0.22,0.19 0.18,0.24 0.46,0.43 1.01,-0.18 0.46,-1.23 -0.09,-1.61 -0.26,-0.18 -0.36,-0.09 -0.75,-0.14 -0.39,-0.05 -0.18,-0.17 -0.79,-0.17l0 0.18zm4.3 0.12c-0.48,0 -1.92,-0.3 -1.41,1.08 0.1,0.28 0.19,0.39 0.47,0.54 0.33,-0.17 0.17,-0.22 0.64,-0.29 0.76,-0.12 0.1,-0.12 0.53,-0.44 0.11,-0.08 0.16,-0.05 0.35,-0.15 0.44,-0.24 0.71,-1.05 0.36,-1.05 -0.43,0 -0.58,0.3 -0.94,0.3zm4.06 5.41c0,0.11 -0,0.01 0.08,0.12 0.41,-0.08 0.66,-0.9 0.94,-1.38l1.2 -2.2c0.15,-0.29 0.27,-0.47 0.41,-0.77 0.12,-0.26 0.93,-1.42 0.11,-1.42 -0.56,0 -1.29,2.19 -1.51,2.69 -0.16,0.36 -1.23,2.65 -1.23,2.96zm-28.98 -15.81l2.34 0.12 0.42 -1c0.07,-0.2 0.08,-0.34 0.15,-0.54 0.06,-0.17 0.12,-0.38 0.13,-0.56 -3.35,0 -2.2,-0.32 -2.91,1.43 -0.08,0.19 -0.13,0.34 -0.14,0.56zm3.36 20.38c0.39,-0.08 0.37,-0.48 0.55,-0.96l2.02 -5.06c0.23,-0.56 0.84,-1.63 0.35,-2.06 -0.55,-0.48 -0.69,0.45 -0.86,1l-1.82 5.88c-0.08,0.23 -0.47,0.99 -0.24,1.2zm16.8 -30.37c0,0.36 0.22,0.59 0.23,0.96 -0.13,-0.07 -0.39,-0.32 -0.39,0 0,0.61 0.39,0.26 0.39,1.56 -0.51,-0.26 -0.13,-0.56 -0.62,-0.66 0,0.71 0.19,0.62 0.21,0.97 0.03,0.59 -0.36,0.31 -0.36,1.14 0.87,0 0.2,-0.36 0.78,-0.48 0,0.53 0.04,0.63 -0.48,0.78 -0.4,0.11 -0.81,0.16 -0.85,0.55 0.78,0 0.34,-0.08 1.03,-0.23 0.47,-0.1 0.69,-0.24 0.69,-0.67 0.65,0.01 0.56,0.24 1.49,0.3 0.43,0.03 0.45,0.05 0.82,0.1 0.2,0.03 0.16,0.07 0.37,-0.01 0.45,-0.16 -0.04,-0.31 -0.05,-0.31 -0.02,-0.01 -0.09,-0.03 -0.11,-0.04 -0.14,-0.06 -0.02,0 -0.15,-0.07 -0.08,-0.04 -0.02,-0.14 -0.5,-0.15 -0.56,-0.02 -0.86,-0.06 -1.41,-0.06 -0.22,-0.25 -0.23,-0.11 -0.23,-0.54 0.29,-0.06 0.1,-0.06 0.39,-0.12 0,-1.13 -0.23,-0.85 -0.56,-1.67 -0.33,-0.82 -0.03,-1.51 -0.61,-1.63 -0.03,0.24 -0.08,0.14 -0.08,0.3zm-19.84 5.89c0,-0.31 0.31,-1.8 0.86,-1.8 0.47,0 0.21,0.54 0.15,0.83 -0.26,1.16 -0.2,0.97 -1.01,0.97zm-3.75 4.09c2.9,0 2.49,0.26 2.79,-0.86l0.49 -1.73 3.44 0c0,-0.87 1.7,-3.89 -0.45,-4.76 -0.53,-0.22 -0.99,-0.17 -1.66,-0.17 -1.96,0 -2.96,1.68 -3.39,2.93 -0.14,0.39 -0.24,0.76 -0.35,1.12 -0.24,0.79 -0.86,2.85 -0.88,3.48zm14.53 17.74c-0.25,-0.37 -0.05,-0.78 0.14,-1.22 0.09,-0.21 0.16,-0.37 0.29,-0.56 0.15,-0.21 0.29,-0.31 0.59,-0.33 0.08,0.72 -0.24,1.95 -1.02,2.1zm9.61 -0.78c0,-0.31 -0.11,0.06 -0.01,-0.25 0.1,-0.35 0.31,-0.34 0.53,-0.55l0.66 -0.76c0,0.53 -0.2,0.99 -0.52,1.41l-0.12 0.15c-0.01,0.01 -0.05,0.06 -0.06,0.07 -0.14,0.12 0.08,0.12 -0.47,0.12l0 -0.18zm-4.61 -0.36c0.02,-0.18 0.05,-0.23 0.14,-0.37l0.2 -0.33c0.14,-0.23 0.29,-0.37 0.36,-0.62 0.25,0.14 0.18,0.14 0.1,0.37 -0.09,0.27 -0.15,0.57 -0.39,0.78 -0.14,0.12 -0.19,0.13 -0.41,0.17zm-3.67 0.96c0,-0.41 0.38,-1.1 0.59,-1.41 0.25,-0.38 0.58,-0.86 1.21,-0.87l-0.38 0.73c-0.15,0.31 -0.23,0.45 -0.4,0.71 -0.03,0.05 -1.02,1.51 -1.02,0.84zm11.72 -0.78c0,-0.3 0.58,-0.77 0.9,-1.29 0.46,-0.74 0.34,0.2 -0.06,0.86 -0.23,0.38 -0.34,0.65 -0.77,0.67 -0.11,-0.16 -0.08,0.07 -0.08,-0.24zm-9.69 -1.92c-0.32,-0.06 -0.32,-0.24 -0.62,-0.24 -0.32,0 -0.67,0.4 -0.94,0.54 -0.12,-1.08 -1.62,-0.21 -2.05,1.19 -0.12,0.39 -0.64,1.76 0.33,1.76 0.12,0 0.37,-0.14 0.45,-0.19 0.18,-0.12 0.19,-0.15 0.25,-0.35 0.36,0.2 0.07,0.3 0.55,0.54 0.61,-0.11 1.01,-0.7 1.28,-1.12l0.83 -1.52c0.12,0.41 -0.31,2.16 -0.31,2.77 0,0.45 0.05,0.34 0.08,0.6 0.28,-0 0.15,0.03 0.32,-0.05 0.03,-0.01 0.17,-0.17 0.2,-0.21 0.09,-0.13 0.22,-0.38 0.26,-0.52l0.16 0c0.13,0.44 0.09,0.54 0.55,0.54 0.97,0 1.98,-1.7 2.27,-1.86 0,0.53 -0.23,0.22 -0.23,1.26 0.27,-0.06 0.19,-0.03 0.35,-0.21 0.09,-0.09 0.17,-0.2 0.24,-0.3 0.3,-0.46 1.13,-1.47 1.6,-1.71 0,0.64 -0.07,0.6 0.39,0.84 -0.1,0.17 -0.07,0.37 -0.01,0.55 0.1,0.35 0.13,0.24 0.33,0.47 0.91,-0.16 1.57,-1.3 1.76,-1.95 0.06,-0.22 0,-0.21 0.11,-0.39 0.23,0.07 0.39,0.58 0.49,0.76 0.18,0.32 0.29,0.48 0.29,0.92 -0.63,0.13 -1.74,1.76 -0.82,1.65 0.42,-0.05 1.13,-0.81 1.29,-1.35 0.51,0.09 0.85,0.47 1.7,-0.98 1.25,-2.14 0.17,-3 -0.92,-1.73 -0.36,0.42 -0.78,1.25 -0.78,1.8 -0.32,-0.07 -0.22,-0.13 -0.31,-0.42 -0.56,-1.74 0.24,-1.17 0.24,-1.62l0 -0.48c-0.56,0 -0.77,0 -0.95,0.41 -0.06,0.14 -0.05,0.04 -0.06,0.25 -0.19,-0.1 -0.35,-0.36 -0.55,-0.36 -0.23,0 -0.29,0.07 -0.5,0.1 -0.47,0.06 -0.48,-0.19 -1.01,0.12 -0.56,0.33 -0.95,0.92 -1.36,1.36 -0.13,0.13 -0.14,0.14 -0.25,0.29 -0.04,0.06 -0.06,0.08 -0.11,0.15l-0.12 0.15c0.02,-0.65 1.95,-3.37 1.17,-3.37 -0.75,0 -1.95,1.89 -1.95,2.47l0.23 0 0.19 -0.34c0.1,-0.17 0.15,-0.21 0.28,-0.32 -0.03,0.27 -0.38,0.76 -0.55,1.02 -0.39,0.59 -0.93,1.35 -1.47,1.87 -0.07,0.07 -1.03,0.91 -1.03,0.35l0.08 -0.96 0.39 0c1.24,0 2.09,-3.01 0.86,-3.01 -0.63,0 -1.08,0.81 -1.24,1.21 -0.38,0.93 -0.54,2.31 -1.18,2.88 0,-0.31 0.05,-0.7 0.12,-0.99 0.09,-0.33 0.14,-0.62 0.24,-0.96l1.22 -4.05c0.06,-0.16 0.64,-1.22 0.13,-1.22 -0.31,0 -0.42,0.09 -0.54,0.25 -0.32,0.42 -0.74,2.06 -0.91,2.66 -0.08,0.29 -0.1,0.28 -0.2,0.51 -0.14,0.32 -0.2,0.33 -0.23,0.55zm-19.76 3.73c-0.01,-0.36 -0.07,-0.2 0.03,-0.64 0.06,-0.25 0.11,-0.39 0.19,-0.58 0.16,-0.36 0.31,-0.79 0.79,-0.89 0.05,0.06 0.16,0.14 0.16,0.18 0,0.51 -0.33,1.91 -1.17,1.92zm4.53 -0.24c0.02,-0.23 0.24,-0.52 0.37,-0.73l0.72 -1.07c0.12,0.44 -0.37,1.67 -1.09,1.8zm-3.12 0.06c0,-0.33 0.42,-1.14 0.6,-1.4 0.31,-0.46 0.6,-0.87 1.2,-0.88 -0.04,0.33 0.02,0.02 -0.13,0.32 -0.01,0.02 -0.03,0.07 -0.04,0.09l-0.83 1.41c-0.08,0.12 -0.8,1.05 -0.8,0.47zm-8.75 -4.69l0 0.18c1.13,0 1.72,-0.26 2.71,-0.44l1.38 -0.2c1.12,-0.16 2.18,-0.38 3.34,-0.38 -0.09,0.14 -0.14,0.37 -0.2,0.57 -0.3,0.93 -0.64,2.16 -0.99,3.03 -0.5,1.25 -1,3.64 -1.44,4.97 -0.1,0.3 -0.33,1.06 -0.18,1.3 0.35,-0.2 0.38,-0.76 0.5,-1.18 0.26,-0.87 0.61,-1.69 0.82,-2.55 0.27,-1.09 2.25,-6.09 2.27,-6.25 0.72,-0.13 2.98,-0.41 3.67,-0.42 -0.01,0.33 -0.16,0.58 -0.22,0.85 -0.08,0.35 -0.17,0.56 -0.24,0.9 -0.12,0.55 -0.46,1.08 -0.63,1.62 -0.31,-0.06 -0.32,-0.18 -0.62,-0.24 -0.39,0.08 -0.55,0.38 -0.86,0.54 -0.46,-0.67 -0.81,-0.66 -1.45,0.08 -0.6,0.69 -1.11,1.69 -0.86,2.54 0.05,0.19 0.18,0.26 0.36,0.38 0.57,-0.1 0.64,-0.44 1.02,-0.54 0.11,0.17 0.1,0.29 0.23,0.48 1.02,0 1.54,-1.21 1.85,-1.82l0.41 -0.82c0.19,0.63 -0.68,2.58 -0.16,3.43 0.52,-0.11 0.72,-1.05 1.04,-1.03 0.59,0.02 0.76,-0.11 1.14,-0.59 0.07,-0.09 0.11,-0.17 0.18,-0.28 0.45,-0.78 0.99,-1.7 0.45,-2.48 -0.82,0 -0.84,0.09 -1.18,0.47 -0.99,1.11 -0.67,1.8 -1.07,2.67 -0.12,0.27 -0.03,0.32 -0.33,0.47 0,-0.63 0.18,-1.21 0.32,-1.8l1.22 -3.99c0.1,-0.33 0.19,-0.85 0.53,-0.98 0.11,-0.04 2.93,-0.39 3.17,-0.39 -0.19,0.2 -0,0.05 -0.33,0.17 -0.62,0.21 -1.33,0.43 -1.87,0.73 -0.39,0.22 -0.29,0.34 0.21,0.22 0.93,-0.21 2.78,-1.03 3.86,-1.37 0.26,-0.08 0.55,-0.17 0.84,-0.25 0.51,-0.13 1.18,-0.24 1.75,-0.4 1.19,-0.34 2.35,-0.78 3.72,-0.66 0.68,0.06 1.21,0.24 1.08,0.87 -0.14,0.72 -0.72,1.28 -1.24,1.82l-2.58 2.22c-0.2,0.15 -0.35,0.27 -0.55,0.42l-0.73 0.52c-0.07,0.05 -0.09,0.06 -0.17,0.11 -0.12,0.08 -0.17,0.12 -0.28,0.21 -0.24,0.19 -0.39,0.25 -0.63,0.42 -0.33,0.24 -1.11,0.57 -1.15,0.92 0.67,-0.01 1.36,-0.55 1.84,-0.87 1.11,-0.72 2.08,-1.52 3.1,-2.3l1.48 -1.21c0.1,-0.1 0.18,-0.22 0.29,-0.32 0.43,-0.41 0.92,-0.85 1.27,-1.31 0.46,-0.63 1.01,-1.59 -0.12,-2.02 -0.76,-0.28 -2.53,-0.02 -3.37,0.17 -0.23,0.05 -0.39,0.09 -0.65,0.1 -0.09,-0.3 -0.19,-0.31 -0.54,-0.24 -1.13,0.22 -2.11,0.6 -3.21,0.84l-6.9 1.31c-0.94,0.15 -1.87,0.21 -2.79,0.38 0,-0.39 0.53,-1.35 0.72,-1.67 0.26,-0.46 0.72,-1.23 0.07,-1.57 -0.46,0.07 -0.56,0.63 -0.71,0.9 -0.37,0.7 -0.62,1.52 -0.91,2.24 -0.13,0.33 -0.57,0.3 -1.44,0.4l-2.38 0.34c-0.35,0.04 -0.53,0.08 -0.85,0.13 -0.58,0.1 -1.01,0.18 -1.56,0.3 -0.41,0.09 -0.75,0.09 -1.1,0.24 -0.23,0.1 -0.06,0.09 -0.35,0.15zm8.05 -20.69c0,0.42 -0.35,1.48 -0.45,1.94l-0.97 3.28c-0.04,0.13 -0.07,0.29 -0.12,0.45 -0.07,0.22 -0.23,0.73 -0.34,0.88 -0.1,0.14 -0.6,0.52 -0.8,0.36 -0.18,-0.14 2,-6.9 2.05,-7.39 0.67,0 0.62,0.05 0.62,0.48zm-4.69 8.96c1.01,0 2.26,0.02 3.19,-0.13 0.76,-0.12 1,-0.35 1.44,-0.75 0.19,-0.17 0.31,-0.37 0.45,-0.56l1.36 -3.71c0.34,-1.11 1.23,-3.87 1.23,-4.71 0,-0.2 -0.12,-0.58 -0.21,-0.74 -0.6,-1.09 -3.78,-0.82 -5.34,-0.82 -0.32,0 -0.36,0.4 -0.4,0.59 -0.06,0.27 -0.15,0.46 -0.23,0.78l-1.56 5.41c-0.08,0.24 -0.14,0.53 -0.24,0.78l-1.03 3.55c-0.04,0.17 -0.11,0.19 0.18,0.24 0.29,0.05 0.83,0.06 1.17,0.06zm19.76 -7.22l-0.08 0c0,-0.24 0.03,-0.35 0.07,-0.54 0.07,-0.26 0.1,-0.22 0.16,-0.48 0.1,-0.4 0.23,-0.61 0.23,-1.08l-2.58 0c-0.1,0.31 -0.17,0.65 -0.28,0.99 -0.41,1.22 -0.66,2.44 -1.02,3.54 -0.06,0.18 -0.1,0.27 -0.15,0.49l-0.62 2.05c-0.13,0.4 -0.19,0.72 -0.66,0.75 -0.24,-0.28 -0.19,-0.42 -0.06,-0.83l0.23 -0.91c0.04,-0.14 0.07,-0.34 0.12,-0.51 0.1,-0.31 0.16,-0.64 0.27,-0.93l1.4 -4.64 -2.66 0 -1.22 4.11c-0.06,0.27 -0.08,0.28 -0.15,0.49l-0.4 1.38c-0.07,0.21 -0.07,0.3 -0.12,0.51 -0.49,1.8 -0.08,0.7 0.91,1.66 0.31,0.3 0.43,0.72 0.43,1.23 1,-0.12 1,-0.65 1.48,-0.72 -0.07,0.11 -0.22,0.45 -0.23,0.6l2.73 -0.06 0.45 -1.64c0.22,-1.03 1.43,-4.47 1.43,-5.03l0.08 0c0,0.97 -0.41,1.53 0.57,2.33 0.36,0.3 0.72,0.55 1.09,0.84 0.76,0.58 0.61,0.48 0.47,1.11 -0.1,0.43 -0.18,0.99 -0.88,1.01 -0.1,-0.29 -0.16,-0.06 -0.16,-0.36 0,-0.32 0.1,-0.44 0.15,-0.73 0.06,-0.34 0.16,-0.38 0.16,-0.72l-2.11 0c-0.25,0 -0.26,0.2 -0.37,0.62 -0.24,0.92 -0.47,1.87 0.58,2.47 0.49,0.28 1.06,0.34 1.74,0.34 0.9,0 0.72,-0.42 0.9,-0.93 0.24,-0.68 0.19,-1.09 0.75,-1.16 0.33,-0.04 1.09,-0.01 1.47,-0.01l0.3 -0.79c0.41,-1.89 0.15,-1.89 -1.57,-3.04 -0.72,-0.48 -0.61,-0.63 -0.61,-1.16 0,-0.8 1.2,-1.44 0.92,-0.32 -0.03,0.1 -0.06,0.32 -0.11,0.46 -0.08,0.24 -0.1,0.16 -0.1,0.46l2.34 0c0.02,-0.56 1.12,-2.45 -0.84,-3.03 -0.6,-0.18 -1.55,-0.16 -2.19,-0.03 -0.93,0.19 -1.67,0.74 -1.99,1.42l-0.3 0.79z"/>
   <path class="fil2" d="M19.51 24.11l0 0.12c0.37,0 0.89,-0.02 1.24,0.01 1.14,0.1 0.48,-0.01 1.18,-0.01 0.01,-0.11 0.19,-0.65 0.23,-0.72 -0.46,0 -0.95,0.17 -1.36,0.28l-1.3 0.32zm-7.5 -6.37c-0.48,0 0.01,-0.91 0.2,-1.47l0.4 -1.19c0.22,-0.47 0.88,-0.06 0.9,-0.05 0.29,0.22 -0.05,1.12 -0.14,1.36 -0.28,0.77 -0.36,1.36 -1.36,1.36zm-2.42 -4.81l-3.15 11.06c-0.03,0.31 -0.15,0.24 1.2,0.24 0.31,0 0.67,-1.19 0.83,-1.59 0.08,-0.19 0.11,-0.22 0.19,-0.4 0.38,-0.89 0.33,-1.08 1.09,-1.08 0.22,0 0.25,0.1 0.34,0.22l0.28 0.32 0.7 -1.98c0.34,0 0.44,-0.04 0.68,-0.03 0.52,0.03 1.6,-0.08 2.03,-0.17 0.68,-0.15 1.67,-0.61 1.83,-1.06 0.14,0.07 0.14,0.12 0.31,0.12l2.89 0c0.69,0 0.46,-2.16 1.48,-2.16 0.82,0 0.13,1.47 0.04,1.65 -0.24,0.46 -0.42,0.48 -1.02,0.66 -0.67,0.2 -2.82,0.82 -3.3,1.07 -0.1,0.05 -0.17,0.09 -0.27,0.15 -0.17,0.11 -0.11,0.05 -0.24,0.18 -0.69,0.65 -1.24,2.42 -1.14,3.33 0.45,0 0.63,0.01 1,-0.07l1.73 -0.35c0.32,-0.06 0.58,-0.08 0.86,-0.18 -0.07,-0.67 -0.2,-0.89 0.42,-1.96 0.19,-0.33 0.77,-0.89 1.3,-0.93 0,0.74 -0.76,2.02 -0.78,2.65 0.2,-0.06 0.28,-0.02 0.69,-0.13 0.77,-0.2 1.73,-0.66 2.51,-0.66 0.18,0 0.23,0.12 0.55,0.18l0.7 -1.99c0.23,-0.63 0.94,-3.02 0.94,-3.6 0,-1.14 -1.48,-1.62 -2.89,-1.62 -3.75,0 -4.37,1.4 -4.92,1.68 0.13,-0.45 0.32,-0.93 0.41,-1.41 0.44,-2.21 -1.66,-2.2 -4.71,-2.2 -0.96,0 -1.63,0.06 -2.58,0.06zm16.01 1.44c0.33,0 0.51,0.03 0.74,0.04 0.37,0.02 0.51,-0.04 0.9,-0.05 0.65,-0.01 1.31,0 1.96,0 0.12,-0.17 0.45,-1.01 0.5,-1.25 0.05,-0.28 -0.22,-0.19 -0.73,-0.19 -0.8,0.01 -2.74,-0.12 -2.93,0.09 -0.08,0.08 -0.41,1.2 -0.43,1.36zm-0.39 7.34c0.38,0 1.2,0.12 1.48,0.24 0.17,-0.25 0.23,-0.45 0.33,-0.77 0.09,-0.29 0.18,-0.58 0.29,-0.86 0.11,-0.29 0.16,-0.56 0.28,-0.87 0.11,-0.29 0.21,-0.57 0.29,-0.86 0.25,-0.89 1.09,-2.77 1.09,-3.61 -4.24,0 -3.5,-0.25 -3.88,0.92l-1.96 5.89c0.02,0.34 0.8,-0.08 2.09,-0.08zm-2.81 2.16l0 0.36 2.73 0c0.16,-0.53 0.8,-0.87 -0.32,-1.08 -0.5,-0.09 -1.71,0.04 -2.01,0.13 -0.23,0.07 -0.41,0.34 -0.41,0.59z"/>
  </g>
 </g>
</svg>
