<?xml version="1.0" encoding="UTF-8"?>
<!DOCTYPE svg PUBLIC "-//W3C//DTD SVG 1.1//EN" "http://www.w3.org/Graphics/SVG/1.1/DTD/svg11.dtd">
<!-- Creator: CorelDRAW -->
<svg xmlns="http://www.w3.org/2000/svg" xml:space="preserve" width="25.4mm" height="19.05mm" version="1.1" style="shape-rendering:geometricPrecision; text-rendering:geometricPrecision; image-rendering:optimizeQuality; fill-rule:evenodd; clip-rule:evenodd"
viewBox="0 0 49.7 37.27"
 xmlns:xlink="http://www.w3.org/1999/xlink"
 xmlns:xodm="http://www.corel.com/coreldraw/odm/2003">
 <defs>
  <style type="text/css">
   <![CDATA[
    .str0 {stroke:#ED3237;stroke-width:0.39;stroke-miterlimit:22.9256}
    .fil0 {fill:#FEFEFE}
    .fil3 {fill:#FEFEFE}
    .fil4 {fill:#ED3237}
    .fil1 {fill:#2B2929}
    .fil2 {fill:red}
    .fil6 {fill:yellow}
    .fil5 {fill:#FEFEFE;fill-rule:nonzero}
   ]]>
  </style>
 </defs>
 <g id="Camada_x0020_1">
  <metadata id="CorelCorpID_0Corel-Layer"/>
  <g id="_2482724600528">
   <g>
    <path class="fil0" d="M25.16 0.01c5.02,0.13 9.75,1.79 13.46,4.71 2.27,1.79 4.06,3.98 5.25,6.42 1.25,2.55 1.81,5.3 1.69,8.06 -0.47,10.14 -10.24,18.37 -22.1,18.06 -5.02,-0.13 -9.75,-1.79 -13.46,-4.71 -2.27,-1.79 -4.06,-3.98 -5.25,-6.42 -1.25,-2.55 -1.81,-5.3 -1.69,-8.06 0.47,-10.14 10.24,-18.37 22.1,-18.06z"/>
   </g>
   <ellipse class="fil1" transform="matrix(0.270465 0.00712264 -0.00998859 0.215733 24.3116 18.6366)" rx="74.55" ry="82"/>
   <ellipse class="fil2" transform="matrix(0.252855 0.00665888 -0.00933823 0.201687 24.3116 18.6366)" rx="74.55" ry="82"/>
   <ellipse class="fil3 str0" transform="matrix(0.206943 0.0054498 -0.00764265 0.165066 24.3116 18.6366)" rx="74.55" ry="82"/>
   <path class="fil4" d="M35.02 6.58c-7.67,7.57 -15.33,15.14 -19.17,18.92 -3.83,3.78 -3.83,3.78 -3.83,3.78 1.03,0.45 2.06,0.91 3.09,1.36 -0.14,0.29 -0.27,0.57 -0.41,0.86 5.57,-4.99 11.14,-9.97 15,-13.96 3.86,-3.98 6.01,-6.96 8.15,-9.95 -0.94,-0.34 -1.88,-0.68 -2.82,-1.02z"/>
   <path class="fil0" d="M22.08 16.26c-0.24,0.24 -0.59,0.4 -1.02,0.42l-0.63 0.03c-0.07,0.01 -0.14,0.02 -0.21,0.02l-0.95 0.05c-0.34,0.02 -0.66,-0.06 -0.93,-0.22 -0.24,0.17 -0.54,0.28 -0.9,0.3l-0.62 0.03c-0.07,0.01 -0.14,0.02 -0.21,0.02l-1.02 0.05c-0.06,0 -0.12,0 -0.18,0 -0.06,0.01 -0.12,0.02 -0.18,0.02l-1.09 0.06c-0.16,0.01 -0.33,-0.01 -0.48,-0.04 -0.13,0.04 -0.28,0.07 -0.43,0.08l-0.62 0.03c-0.07,0.01 -0.14,0.02 -0.21,0.02l-0.99 0.05c-0.39,0.02 -0.72,-0.08 -0.97,-0.24 -0.51,0.26 -1.08,0.44 -1.7,0.47 -0.12,0.01 -0.24,0.01 -0.35,0 -0.16,0.03 -0.32,0.05 -0.48,0.06 -0.82,0.04 -1.54,-0.21 -2.03,-0.7 -0.22,-0.22 -0.37,-0.46 -0.48,-0.72l-0.3 0.66c-0.21,0.46 -0.67,0.84 -1.35,0.88l-0.62 0.03c-0.07,0.01 -0.14,0.02 -0.21,0.02l-0.99 0.05c-1.02,0.05 -1.61,-0.68 -1.39,-1.39 0.02,-0.05 0.04,-0.1 0.06,-0.15l3.07 -6.69c0.21,-0.47 0.67,-0.85 1.36,-0.89l0.62 -0.03c0.07,-0.01 0.14,-0.02 0.21,-0.02l3.15 -0.17c0.25,-0.01 0.49,0.03 0.7,0.11 0.41,-0.17 0.86,-0.28 1.34,-0.31 0.12,-0.01 0.24,-0.01 0.35,-0 0.16,-0.03 0.32,-0.05 0.48,-0.06 0.62,-0.03 1.18,0.1 1.64,0.38 0.25,-0.23 0.6,-0.39 1,-0.41l0.63 -0.03c0.07,-0.01 0.14,-0.02 0.21,-0.02l2.13 -0.11c0.72,-0.04 1.35,0.21 1.74,0.66l0.06 -0.08c0.28,-0.39 0.72,-0.7 1.33,-0.73l0.62 -0.03c0.07,-0.01 0.14,-0.02 0.21,-0.02l0.81 -0.04c0.33,-0.02 0.66,0.06 0.92,0.22 0.46,0.28 0.6,0.72 0.52,1.14l-0.64 3.35 1.85 -4.02c0.21,-0.47 0.67,-0.85 1.36,-0.89l0.62 -0.03c0.07,-0.01 0.14,-0.02 0.21,-0.02l1.6 -0.09c0.81,-0.04 1.52,0.23 2,0.72 0.04,0.04 0.08,0.08 0.12,0.13l0.21 -0.3c0.28,-0.39 0.72,-0.7 1.33,-0.73l0.62 -0.03c0.07,-0.01 0.14,-0.02 0.21,-0.02l0.81 -0.04c0.33,-0.02 0.66,0.06 0.92,0.22 0.46,0.28 0.6,0.72 0.52,1.14l-0.6 3.13 1.75 -3.82c0.08,-0.17 0.2,-0.33 0.35,-0.47 0.25,-0.23 0.6,-0.38 1,-0.4l0.63 -0.03c0.07,-0.01 0.14,-0.02 0.21,-0.02l0.99 -0.05c0.48,-0.03 0.87,0.13 1.12,0.37 0.25,-0.26 0.61,-0.45 1.08,-0.47l0.62 -0.03c0.07,-0.01 0.14,-0.02 0.21,-0.02l3.3 -0.18c0.08,-0 0.16,-0 0.24,0 0.04,-0 0.07,-0.01 0.11,-0.01l0.62 -0.03c0.07,-0.01 0.14,-0.02 0.21,-0.02l0.99 -0.05c1.02,-0.05 1.61,0.69 1.39,1.39 -0.02,0.05 -0.04,0.11 -0.06,0.16l-3.07 6.69c-0.21,0.46 -0.67,0.84 -1.35,0.88l-0.63 0.03c-0.07,0.01 -0.14,0.02 -0.21,0.02l-0.99 0.05c-0.07,0 -0.15,0 -0.22,-0 -0.02,0 -0.04,0 -0.07,0l-0.62 0.03c-0.07,0.01 -0.14,0.02 -0.21,0.02l-3.36 0.18c-0.07,0 -0.14,0 -0.21,-0l-0.62 0.03c-0.07,0.01 -0.14,0.02 -0.21,0.02l-2.97 0.16c-0.43,0.02 -0.79,-0.1 -1.04,-0.3 -0.24,0.22 -0.57,0.37 -0.99,0.39l-0.63 0.03c-0.07,0.01 -0.14,0.02 -0.21,0.02l-0.95 0.05c-0.34,0.02 -0.66,-0.06 -0.93,-0.22 -0.24,0.17 -0.54,0.28 -0.9,0.3l-0.62 0.03c-0.07,0.01 -0.14,0.02 -0.21,0.02l-1.02 0.05c-0.23,0.01 -0.46,-0.02 -0.66,-0.09 -0.3,0.09 -0.61,0.15 -0.94,0.17l-0.53 0.03c-0.1,0.01 -0.2,0.02 -0.31,0.03l-1.75 0.09c-0.45,0.02 -0.82,-0.11 -1.07,-0.32zm4.65 3.32c-0.04,-0.16 -0.03,-0.32 0.01,-0.48 0.04,-0.14 0.1,-0.27 0.18,-0.39l0.01 -0.01 0.89 -1.29c0.12,-0.18 0.27,-0.35 0.47,-0.49 0.28,-0.19 0.63,-0.3 1,-0.3l0.43 -0.01c0.13,-0.03 0.27,-0.05 0.41,-0.05l0.99 -0.02c0.59,-0.01 1.1,0.28 1.29,0.7l0.01 0.03 0.01 0.03c0.07,0.2 0.07,0.4 0.02,0.6 -0.04,0.17 -0.12,0.33 -0.24,0.47l-0.95 1.23c-0.13,0.18 -0.28,0.35 -0.47,0.48 0.02,0.05 0.04,0.11 0.05,0.16l0 -0.01c0.08,-0.18 0.2,-0.35 0.35,-0.5 0.28,-0.26 0.67,-0.44 1.13,-0.44l0.45 -0.01c0.13,-0.03 0.26,-0.05 0.39,-0.05l2.82 -0.05c0.55,-0.01 1.05,0.12 1.46,0.37 0.26,-0.22 0.62,-0.36 1.06,-0.37l0.44 -0.01c0.13,-0.03 0.26,-0.05 0.4,-0.05l1.31 -0.02c0.59,-0.01 1.03,0.24 1.25,0.58 0.76,-0.42 1.62,-0.72 2.57,-0.73 0.06,-0 0.12,-0 0.18,0 0.22,-0.03 0.44,-0.05 0.66,-0.06 0.9,-0.02 1.7,0.25 2.28,0.77 0.57,0.5 0.84,1.14 0.95,1.79 0.12,0.71 0.04,1.44 -0.15,2.14 -0.08,0.32 -0.19,0.64 -0.32,0.95 -0.36,0.89 -0.87,1.74 -1.54,2.52 -0.59,0.69 -1.3,1.33 -2.17,1.83 -0.77,0.44 -1.66,0.76 -2.64,0.78 -0.06,0 -0.12,0 -0.18,-0 -0.22,0.03 -0.44,0.05 -0.66,0.06 -0.89,0.02 -1.69,-0.25 -2.27,-0.77 -0.05,-0.04 -0.09,-0.08 -0.13,-0.13 -0.25,0.44 -0.73,0.79 -1.4,0.8l-0.44 0.01c-0.13,0.03 -0.26,0.05 -0.4,0.05l-1.31 0.02c-0.13,0 -0.27,-0.01 -0.4,-0.04l-0.33 0.01c-0.12,0.03 -0.25,0.05 -0.39,0.05l-1.44 0.03c-0.29,0.01 -0.56,-0.05 -0.78,-0.16 -0.2,0.09 -0.43,0.14 -0.69,0.15l-0.44 0.01c-0.13,0.03 -0.26,0.05 -0.4,0.05l-1.31 0.02c-0.13,0 -0.27,-0.01 -0.4,-0.04l-0.42 0.01c-0.13,0.03 -0.26,0.05 -0.4,0.05l-1.26 0.02c-0.65,0.01 -1.1,-0.27 -1.32,-0.65 -0.3,0.37 -0.76,0.65 -1.37,0.66l-0.43 0.01c-0.13,0.03 -0.26,0.05 -0.4,0.05l-1.35 0.02c-0.08,0 -0.16,-0 -0.24,-0.01 -0.08,0.01 -0.16,0.02 -0.23,0.02l-1.44 0.03c-0.29,0.01 -0.56,-0.05 -0.78,-0.16 -0.2,0.09 -0.43,0.14 -0.69,0.15l-0.44 0.01c-0.13,0.03 -0.26,0.05 -0.4,0.05l-1.31 0.02c-0.59,0.01 -1.03,-0.23 -1.25,-0.57 -0.75,0.41 -1.6,0.7 -2.53,0.72 -0.06,0 -0.12,0 -0.18,-0 -0.22,0.03 -0.44,0.05 -0.66,0.06 -0.89,0.02 -1.69,-0.25 -2.27,-0.77 -0.05,-0.04 -0.1,-0.09 -0.14,-0.13 -0.09,0.16 -0.2,0.31 -0.36,0.44 -0.28,0.23 -0.65,0.36 -1.06,0.37l-0.43 0.01c-0.13,0.03 -0.26,0.05 -0.4,0.05l-1.29 0.02c-0.37,0.01 -0.67,-0.08 -0.91,-0.23 -0.25,0.14 -0.54,0.22 -0.86,0.22l-0.43 0.01c-0.13,0.03 -0.27,0.05 -0.4,0.05l-1.29 0.02c-1,0.02 -1.57,-0.69 -1.39,-1.39 0.02,-0.07 0.04,-0.13 0.07,-0.19l3.42 -8.02c0.08,-0.19 0.21,-0.36 0.38,-0.51 0.28,-0.25 0.66,-0.41 1.1,-0.42l0.45 -0.01c0.13,-0.03 0.26,-0.05 0.39,-0.05l1.31 -0.02c0.37,-0.01 0.67,0.08 0.9,0.24 0.24,-0.14 0.52,-0.22 0.83,-0.23l0.45 -0.01c0.13,-0.03 0.26,-0.05 0.39,-0.05l1.31 -0.02c0.6,-0.01 1.03,0.24 1.25,0.59 0.76,-0.42 1.63,-0.72 2.58,-0.74 0.06,-0 0.12,-0 0.18,0 0.22,-0.03 0.44,-0.05 0.66,-0.06 0.9,-0.02 1.7,0.25 2.28,0.77 0.04,0.03 0.07,0.06 0.1,0.1 0.07,-0.11 0.16,-0.22 0.26,-0.32 0.28,-0.27 0.67,-0.44 1.13,-0.44l0.45 -0.01c0.13,-0.03 0.26,-0.05 0.39,-0.05l2.82 -0.05c0.75,-0.01 1.42,0.23 1.87,0.69 0.24,0.25 0.41,0.53 0.51,0.83l0.56 -0.78c0.17,-0.23 0.39,-0.44 0.67,-0.58z"/>
   <path class="fil1" d="M37.58 20.71l0.17 -0.39c0.13,-0.3 0.39,-0.54 0.78,-0.55l0.56 -0.01c0.08,-0.03 0.17,-0.05 0.27,-0.05l1.31 -0.02c0.46,-0.01 0.72,0.33 0.62,0.7 -0.01,0.04 -0.03,0.09 -0.05,0.13l-0.28 0.66c0.4,-0.37 0.84,-0.71 1.34,-0.99 0.66,-0.37 1.4,-0.64 2.2,-0.65 0.08,-0 0.15,0 0.22,0 0.2,-0.04 0.41,-0.06 0.61,-0.06 0.65,-0.01 1.23,0.17 1.69,0.57 0.46,0.41 0.68,0.94 0.77,1.49 0.11,0.65 0.03,1.32 -0.14,1.96 -0.08,0.3 -0.18,0.6 -0.3,0.89 -0.35,0.85 -0.83,1.65 -1.45,2.38 -0.55,0.65 -1.21,1.24 -1.99,1.68 -0.66,0.38 -1.41,0.65 -2.21,0.66 -0.08,0 -0.15,0 -0.22,-0 -0.2,0.04 -0.4,0.06 -0.61,0.06 -0.65,0.01 -1.23,-0.17 -1.68,-0.57 -0.45,-0.4 -0.68,-0.91 -0.78,-1.44l-0.58 1.37c-0.13,0.3 -0.38,0.54 -0.77,0.55l-0.57 0.01c-0.08,0.03 -0.17,0.05 -0.27,0.05l-1.31 0.02c-0.1,0 -0.19,-0.01 -0.27,-0.04 -0,0 -0.01,0 -0.01,0l-0.58 0.01c-0.08,0.03 -0.16,0.05 -0.25,0.05l-1.44 0.03c-0.25,0 -0.49,-0.1 -0.59,-0.3 -0.06,-0.11 -0.07,-0.23 -0.07,-0.35l-0.04 0.09c-0.13,0.3 -0.38,0.54 -0.77,0.55l-0.57 0.01c-0.08,0.03 -0.17,0.05 -0.27,0.05l-1.31 0.02c-0.1,0 -0.2,-0.01 -0.28,-0.04 -0.03,0 -0.06,0.01 -0.09,0.01l-0.57 0.01c-0.08,0.03 -0.17,0.05 -0.27,0.05l-1.26 0.02c-0.5,0.01 -0.73,-0.35 -0.68,-0.74l0.09 -0.61 -0.7 0.01 -0.59 0.86c-0.17,0.26 -0.44,0.47 -0.81,0.48l-0.56 0.01c-0.08,0.03 -0.18,0.05 -0.28,0.05l-1.35 0.02c-0.08,0 -0.16,-0.01 -0.24,-0.03 -0.07,0.02 -0.15,0.04 -0.23,0.04l-1.44 0.03c-0.25,0 -0.49,-0.1 -0.59,-0.3 -0.06,-0.11 -0.07,-0.23 -0.07,-0.36l-0.04 0.09c-0.13,0.3 -0.38,0.54 -0.77,0.55l-0.57 0.01c-0.08,0.03 -0.17,0.05 -0.27,0.05l-1.31 0.02c-0.46,0.01 -0.72,-0.32 -0.63,-0.7 0.01,-0.05 0.03,-0.1 0.05,-0.14l0.26 -0.62c-0.38,0.35 -0.81,0.67 -1.27,0.94 -0.66,0.38 -1.41,0.65 -2.21,0.66 -0.08,0 -0.15,0 -0.22,-0 -0.2,0.04 -0.4,0.06 -0.61,0.06 -0.65,0.01 -1.23,-0.17 -1.68,-0.57 -0.45,-0.4 -0.68,-0.92 -0.78,-1.46l-0.59 1.39c-0.06,0.13 -0.14,0.26 -0.26,0.36 -0.14,0.12 -0.33,0.18 -0.53,0.18l-0.56 0.01c-0.09,0.03 -0.18,0.05 -0.28,0.05l-1.29 0.02c-0.47,0.01 -0.73,-0.33 -0.63,-0.7 0.01,-0.04 0.03,-0.08 0.05,-0.12l1.14 -2.66 -0.28 0 -1.25 2.94c-0.06,0.13 -0.14,0.26 -0.26,0.36 -0.14,0.12 -0.33,0.18 -0.53,0.18l-0.56 0.01c-0.09,0.03 -0.18,0.05 -0.28,0.05l-1.29 0.02c-0.47,0.01 -0.73,-0.33 -0.63,-0.7 0.01,-0.05 0.03,-0.09 0.05,-0.13l3.41 -8.01c0.06,-0.12 0.13,-0.23 0.24,-0.33 0.14,-0.13 0.33,-0.21 0.54,-0.21l0.58 -0.01c0.08,-0.03 0.17,-0.05 0.26,-0.05l1.31 -0.02c0.46,-0.01 0.71,0.34 0.61,0.7 -0.01,0.04 -0.02,0.08 -0.04,0.12l-0.91 2.14 0.28 -0.01 1.02 -2.39c0.05,-0.12 0.13,-0.24 0.24,-0.34 0.14,-0.13 0.33,-0.21 0.54,-0.22l0.58 -0.01c0.08,-0.03 0.17,-0.05 0.26,-0.05l1.31 -0.02c0.47,-0.01 0.71,0.34 0.61,0.7 -0.01,0.04 -0.02,0.08 -0.04,0.12l-0 0.01 -0.29 0.68c0.4,-0.38 0.85,-0.72 1.36,-1 0.66,-0.37 1.4,-0.64 2.2,-0.65 0.08,-0 0.15,-0 0.22,0 0.2,-0.04 0.41,-0.06 0.61,-0.06 0.65,-0.01 1.23,0.17 1.69,0.57 0.43,0.38 0.65,0.87 0.75,1.38l0.56 -1.3c0.05,-0.12 0.13,-0.23 0.23,-0.32 0.14,-0.14 0.33,-0.22 0.55,-0.23l0.58 -0.01c0.08,-0.03 0.17,-0.05 0.26,-0.05l2.82 -0.05c0.49,-0.01 0.93,0.14 1.24,0.46 0.3,0.31 0.44,0.69 0.49,1.08 0.06,0.44 0,0.88 -0.11,1.31 -0.05,0.18 -0.11,0.37 -0.18,0.55 -0.01,0.02 -0.01,0.03 -0.02,0.05l2.17 -3.01c0.18,-0.25 0.45,-0.47 0.81,-0.47l0.56 -0.01c0.08,-0.03 0.18,-0.05 0.27,-0.05l1.07 -0.02c0.5,-0.01 0.72,0.36 0.67,0.74l-0.59 4.6 2.04 -4.79c0.05,-0.12 0.13,-0.23 0.23,-0.32 0.14,-0.14 0.33,-0.22 0.55,-0.23l0.58 -0.01c0.08,-0.03 0.17,-0.05 0.26,-0.05l2.82 -0.05c0.49,-0.01 0.93,0.14 1.24,0.46 0.14,0.15 0.25,0.31 0.33,0.48zm-15.04 5.55l0.63 -0.88c-0.19,0.17 -0.4,0.33 -0.63,0.46l-0.01 0.41zm12.87 -0.46l0.11 -0.25c-0.03,0.02 -0.07,0.05 -0.1,0.07l-0 0.19zm-22.77 0.75c0.05,-0.03 0.1,-0.05 0.15,-0.08 0.32,-0.2 0.6,-0.46 0.83,-0.73 0.27,-0.32 0.48,-0.67 0.64,-1.04 0.06,-0.15 0.12,-0.31 0.17,-0.47 0.06,-0.24 0.1,-0.5 0.06,-0.74 -0.02,-0.12 -0.06,-0.25 -0.15,-0.35 -0.05,0.03 -0.1,0.05 -0.15,0.08 -0.32,0.2 -0.6,0.46 -0.83,0.73 -0.27,0.32 -0.48,0.67 -0.64,1.04 -0.06,0.15 -0.12,0.31 -0.16,0.47 -0.06,0.24 -0.1,0.5 -0.07,0.74 0.02,0.12 0.06,0.25 0.15,0.35zm29.62 -0.53c0.05,-0.03 0.1,-0.05 0.15,-0.08 0.32,-0.2 0.6,-0.46 0.83,-0.73 0.27,-0.32 0.48,-0.67 0.64,-1.04 0.06,-0.15 0.12,-0.31 0.17,-0.47 0.06,-0.24 0.1,-0.5 0.06,-0.74 -0.02,-0.12 -0.06,-0.25 -0.15,-0.35 -0.05,0.03 -0.1,0.05 -0.15,0.08 -0.32,0.2 -0.6,0.46 -0.83,0.73 -0.27,0.32 -0.48,0.67 -0.64,1.04 -0.06,0.15 -0.12,0.31 -0.16,0.47 -0.06,0.24 -0.1,0.5 -0.07,0.74 0.02,0.12 0.06,0.25 0.15,0.35zm-12.4 -8.85c0.09,-0.03 0.19,-0.05 0.29,-0.05l0.99 -0.02c0.25,-0 0.47,0.12 0.56,0.32l0.01 0.01 0.01 0.02c0.04,0.11 0.04,0.22 0.01,0.34 -0.03,0.11 -0.08,0.21 -0.15,0.3l-0.96 1.24c-0.09,0.12 -0.19,0.25 -0.32,0.33 -0.14,0.09 -0.31,0.14 -0.49,0.14l-0.54 0.01c-0.09,0.03 -0.19,0.05 -0.3,0.05l-0.88 0.02c-0.2,0 -0.39,-0.07 -0.5,-0.21 -0.12,-0.13 -0.14,-0.3 -0.1,-0.46 0.02,-0.09 0.07,-0.17 0.12,-0.26l0 -0.01 0.88 -1.28c0.08,-0.12 0.18,-0.24 0.31,-0.33 0.15,-0.1 0.32,-0.15 0.51,-0.16l0.55 -0.01zm16.48 -10.2c0.05,-0.01 0.1,-0.02 0.15,-0.02l0.69 -0.04c0.05,-0.01 0.09,-0.02 0.14,-0.02l0.99 -0.05c0.46,-0.02 0.71,0.33 0.6,0.69 -0.01,0.04 -0.03,0.08 -0.04,0.11l-3.07 6.69c-0.12,0.26 -0.34,0.48 -0.69,0.5l-0.69 0.04c-0.04,0.01 -0.09,0.02 -0.14,0.02l-0.99 0.05c-0.06,0 -0.12,-0 -0.18,-0.01 -0.04,0.01 -0.07,0.01 -0.11,0.01l-0.69 0.04c-0.05,0.01 -0.09,0.02 -0.14,0.02l-3.36 0.18c-0.05,0 -0.11,0 -0.15,-0.01 -0.02,0 -0.04,0 -0.06,0l-0.69 0.04c-0.04,0.01 -0.09,0.02 -0.14,0.02l-2.97 0.16c-0.46,0.02 -0.72,-0.32 -0.6,-0.68 0.01,-0.04 0.03,-0.08 0.04,-0.11l3.07 -6.69c0.05,-0.11 0.12,-0.21 0.22,-0.3 0.13,-0.11 0.29,-0.19 0.47,-0.2l0.7 -0.04c0.04,-0.01 0.09,-0.02 0.13,-0.02l0.99 -0.05c0.46,-0.02 0.71,0.32 0.6,0.69 -0.01,0.04 -0.03,0.08 -0.04,0.11l-2.09 4.56 0.77 -0.04 2.26 -4.92c0.12,-0.26 0.35,-0.48 0.7,-0.5l0.69 -0.04c0.05,-0.01 0.09,-0.02 0.14,-0.02l3.3 -0.18c0.07,-0 0.14,0 0.2,0.01zm-1.6 2.55c-0.04,0.01 -0.09,0.02 -0.14,0.02l-1 0.05 -0.12 0.26 0.84 -0.04c0.14,-0.01 0.26,0.02 0.36,0.07l0.17 -0.37 -0.1 0.01zm-1.71 2.62c-0.05,0.01 -0.09,0.02 -0.15,0.02l-0.48 0.03 -0.14 0.3 1.24 -0.07 0.15 -0.32 -0.62 0.03zm-12.42 -2.51l1.07 -1.49c0.16,-0.22 0.39,-0.42 0.72,-0.44l0.69 -0.04c0.05,-0.01 0.09,-0.02 0.14,-0.02l0.81 -0.04c0.14,-0.01 0.28,0.02 0.39,0.09 0.24,0.15 0.29,0.38 0.24,0.62l-1.26 6.58c-0.01,0.03 -0.02,0.07 -0.03,0.1 -0.08,0.27 -0.31,0.47 -0.64,0.49l-0.7 0.04c-0.04,0.01 -0.09,0.02 -0.14,0.02l-0.95 0.05c-0.15,0.01 -0.3,-0.03 -0.42,-0.11 -0.23,-0.15 -0.27,-0.38 -0.22,-0.61l0.08 -0.38 -0.05 0 -0.5 0.73c-0.15,0.23 -0.39,0.43 -0.71,0.44l-0.69 0.04c-0.05,0.01 -0.09,0.02 -0.14,0.02l-1.02 0.05c-0.22,0.01 -0.4,-0.07 -0.5,-0.19 -0.34,0.14 -0.71,0.24 -1.09,0.26l-0.57 0.03c-0.09,0.01 -0.17,0.02 -0.26,0.03l-1.75 0.09c-0.46,0.02 -0.72,-0.32 -0.61,-0.69 0.01,-0.04 0.03,-0.07 0.04,-0.11l3.07 -6.69c0.12,-0.26 0.35,-0.48 0.7,-0.5l0.69 -0.04c0.05,-0.01 0.09,-0.02 0.14,-0.02l1.6 -0.09c0.53,-0.03 1,0.14 1.34,0.49 0.34,0.35 0.49,0.81 0.53,1.25zm-11.71 0.58l1.03 -1.44c0.16,-0.22 0.39,-0.42 0.72,-0.44l0.69 -0.04c0.05,-0.01 0.09,-0.02 0.14,-0.02l0.81 -0.04c0.14,-0.01 0.28,0.02 0.39,0.09 0.24,0.15 0.29,0.38 0.24,0.62l-1.26 6.58c-0.01,0.03 -0.02,0.07 -0.03,0.1 -0.08,0.27 -0.31,0.47 -0.64,0.49l-0.7 0.04c-0.04,0.01 -0.09,0.02 -0.14,0.02l-0.95 0.05c-0.15,0.01 -0.3,-0.03 -0.42,-0.11 -0.23,-0.15 -0.27,-0.38 -0.22,-0.61l0.08 -0.38 -0.05 0 -0.5 0.73c-0.15,0.23 -0.39,0.42 -0.71,0.44l-0.69 0.04c-0.05,0.01 -0.09,0.02 -0.14,0.02l-1.02 0.05c-0.05,0 -0.09,0 -0.14,-0l-0.08 0c-0.04,0.01 -0.09,0.02 -0.13,0.02l-1.09 0.06c-0.18,0.01 -0.34,-0.04 -0.46,-0.14 -0.12,0.1 -0.27,0.16 -0.45,0.17l-0.69 0.04c-0.04,0.01 -0.09,0.02 -0.14,0.02l-0.99 0.05c-0.41,0.02 -0.66,-0.26 -0.63,-0.58 -0.09,0.06 -0.18,0.12 -0.27,0.18 -0.52,0.32 -1.12,0.59 -1.77,0.62 -0.12,0.01 -0.24,0 -0.36,-0.01 -0.16,0.03 -0.31,0.06 -0.48,0.07 -0.54,0.03 -1.02,-0.12 -1.38,-0.48 -0.35,-0.35 -0.49,-0.8 -0.53,-1.26 -0.02,-0.2 -0.01,-0.41 0.01,-0.61l-0.24 0.01c-0.05,0.01 -0.09,0.02 -0.14,0.02l-0.32 0.02 -0.88 1.91c-0.12,0.26 -0.34,0.48 -0.69,0.5l-0.69 0.04c-0.04,0.01 -0.09,0.02 -0.14,0.02l-0.99 0.05c-0.46,0.02 -0.72,-0.32 -0.6,-0.69 0.01,-0.04 0.03,-0.07 0.04,-0.11l3.07 -6.69c0.12,-0.26 0.35,-0.48 0.7,-0.5l0.69 -0.04c0.05,-0.01 0.09,-0.02 0.14,-0.02l3.15 -0.17c0.26,-0.01 0.45,0.09 0.55,0.25 0.45,-0.24 0.95,-0.42 1.48,-0.45 0.12,-0.01 0.24,-0 0.36,0.01 0.15,-0.03 0.31,-0.06 0.48,-0.07 0.54,-0.03 1.03,0.12 1.38,0.48 0.15,0.15 0.26,0.32 0.34,0.49l0.23 -0.49c0.05,-0.1 0.11,-0.2 0.2,-0.28 0.13,-0.13 0.3,-0.21 0.5,-0.22l0.7 -0.04c0.04,-0.01 0.09,-0.02 0.14,-0.02l2.13 -0.11c0.43,-0.02 0.81,0.11 1.06,0.41 0.23,0.27 0.31,0.6 0.33,0.93 0.01,0.13 0,0.26 -0.01,0.39zm-12.09 1.9c0.11,-0.19 0.22,-0.38 0.34,-0.56l-0.49 0.03 -0.26 0.56 0.41 -0.02zm2.47 1.82c0.16,-0.13 0.3,-0.29 0.43,-0.44 0.22,-0.27 0.4,-0.56 0.54,-0.87 0.06,-0.13 0.11,-0.26 0.15,-0.39 0.05,-0.17 0.09,-0.35 0.1,-0.53 -0.16,0.13 -0.3,0.29 -0.43,0.44 -0.22,0.27 -0.4,0.56 -0.54,0.87 -0.06,0.13 -0.11,0.26 -0.15,0.39 -0.05,0.17 -0.1,0.36 -0.1,0.53z"/>
   <path class="fil5" d="M5.25 9.72c0.06,-0.14 0.15,-0.22 0.25,-0.22l3.15 -0.17c0.08,-0 0.1,0.04 0.07,0.14 -0,0.01 -0.01,0.04 -0.03,0.07l-0.56 1.23c-0.06,0.14 -0.14,0.21 -0.24,0.22l-2.02 0.11 -0.68 1.47 1.48 -0.08c0.08,-0 0.11,0.04 0.08,0.14 -0,0.01 -0.01,0.04 -0.03,0.07l-0.53 1.16c-0.06,0.14 -0.14,0.21 -0.24,0.22l-1.48 0.08 -1.01 2.19c-0.06,0.14 -0.14,0.21 -0.24,0.22l-0.99 0.05c-0.08,0 -0.11,-0.04 -0.08,-0.14 0,-0.01 0.01,-0.03 0.03,-0.06l3.07 -6.68zm2.09 3.14c0.32,-0.72 0.71,-1.36 1.19,-1.92 0.48,-0.57 0.98,-1.01 1.5,-1.34 0.53,-0.33 1.02,-0.5 1.49,-0.53 0.41,-0.02 0.73,0.09 0.96,0.32 0.24,0.24 0.37,0.57 0.4,1.01 0.03,0.44 -0.04,0.93 -0.21,1.49 -0.07,0.24 -0.16,0.47 -0.26,0.7 -0.31,0.7 -0.71,1.34 -1.18,1.9 -0.47,0.57 -0.97,1.01 -1.5,1.35 -0.53,0.33 -1.02,0.51 -1.49,0.54 -0.4,0.02 -0.72,-0.09 -0.95,-0.32 -0.24,-0.24 -0.37,-0.57 -0.41,-1.01 -0.04,-0.43 0.03,-0.93 0.2,-1.48 0.08,-0.24 0.17,-0.48 0.27,-0.71zm1.27 -0.07c-0.07,0.17 -0.13,0.31 -0.17,0.43 -0.09,0.28 -0.12,0.52 -0.11,0.74 0.01,0.22 0.08,0.38 0.19,0.5 0.11,0.12 0.27,0.17 0.48,0.16 0.24,-0.01 0.49,-0.11 0.76,-0.29 0.27,-0.18 0.52,-0.42 0.77,-0.71 0.24,-0.29 0.44,-0.62 0.6,-0.97 0.07,-0.17 0.13,-0.31 0.17,-0.44 0.09,-0.28 0.12,-0.52 0.11,-0.74 -0.01,-0.22 -0.08,-0.38 -0.19,-0.5 -0.11,-0.12 -0.27,-0.17 -0.48,-0.16 -0.24,0.01 -0.49,0.11 -0.76,0.29 -0.27,0.18 -0.52,0.42 -0.77,0.71 -0.24,0.29 -0.44,0.62 -0.6,0.97zm6.14 -3.58c0.03,-0.06 0.06,-0.11 0.11,-0.15 0.04,-0.04 0.09,-0.07 0.14,-0.07l2.13 -0.11c0.27,-0.01 0.47,0.06 0.61,0.23 0.14,0.17 0.22,0.4 0.23,0.69 0.01,0.29 -0.04,0.61 -0.15,0.96 -0.05,0.15 -0.1,0.29 -0.15,0.42 -0.19,0.44 -0.44,0.83 -0.74,1.18 -0.3,0.35 -0.63,0.62 -0.97,0.82l-0.22 2.5c-0,0.03 -0.01,0.04 -0.01,0.05 -0.01,0.04 -0.04,0.08 -0.07,0.11 -0.03,0.03 -0.06,0.05 -0.1,0.05l-1.09 0.06c-0.05,0 -0.08,-0.01 -0.09,-0.03 -0.01,-0.03 -0.01,-0.08 -0,-0.16l0.21 -2.12 -0.64 0.03 -0.99 2.15c-0.06,0.14 -0.14,0.21 -0.24,0.22l-0.99 0.05c-0.08,0 -0.11,-0.04 -0.08,-0.13 0,-0.01 0.01,-0.04 0.03,-0.07l3.07 -6.68zm-0.1 2.93l0.77 -0.04c0.11,-0.01 0.23,-0.05 0.36,-0.14 0.13,-0.09 0.25,-0.2 0.36,-0.33 0.11,-0.14 0.2,-0.28 0.27,-0.42 0.03,-0.06 0.05,-0.12 0.07,-0.19 0.06,-0.19 0.07,-0.34 0.03,-0.47 -0.04,-0.13 -0.12,-0.18 -0.26,-0.18l-0.8 0.04 -0.79 1.73zm6.12 -3.25c0.1,-0.14 0.2,-0.22 0.3,-0.22l0.81 -0.04c0.09,-0 0.13,0.06 0.1,0.2l-1.26 6.58c-0,0.01 -0.01,0.03 -0.01,0.05 -0.03,0.1 -0.09,0.16 -0.17,0.16l-0.95 0.05c-0.1,0.01 -0.13,-0.06 -0.1,-0.2l0.2 -0.92 -1.81 0.1 -0.65 0.95c-0.09,0.14 -0.19,0.21 -0.29,0.22l-1.02 0.05c-0.06,0 -0.09,-0.02 -0.07,-0.08 0.01,-0.03 0.03,-0.07 0.07,-0.12l4.86 -6.78zm-0.76 4.14l0.46 -2.14 -1.52 2.2 1.06 -0.06zm6.47 -4.45c0.07,-0.14 0.15,-0.22 0.25,-0.22l1.6 -0.09c0.38,-0.02 0.68,0.09 0.92,0.33 0.24,0.24 0.38,0.59 0.42,1.03 0.04,0.45 -0.02,0.96 -0.2,1.53 -0.05,0.15 -0.11,0.33 -0.19,0.52 -0.29,0.69 -0.66,1.31 -1.12,1.87 -0.46,0.55 -0.95,0.98 -1.46,1.3 -0.52,0.32 -1,0.49 -1.46,0.51l-1.75 0.09c-0.08,0 -0.11,-0.04 -0.08,-0.14 0,-0.01 0.01,-0.03 0.03,-0.06l3.07 -6.68zm1.5 3.18c0.06,-0.14 0.11,-0.27 0.15,-0.39 0.09,-0.28 0.12,-0.52 0.11,-0.74 -0.02,-0.22 -0.08,-0.39 -0.2,-0.5 -0.12,-0.12 -0.28,-0.17 -0.49,-0.16l-0.46 0.02 -1.7 3.72 0.46 -0.02c0.24,-0.01 0.5,-0.11 0.77,-0.29 0.27,-0.18 0.53,-0.41 0.77,-0.7 0.24,-0.29 0.44,-0.6 0.6,-0.94zm4.53 -3.5c0.1,-0.14 0.2,-0.22 0.3,-0.22l0.81 -0.04c0.09,-0.01 0.13,0.06 0.1,0.2l-1.26 6.58c-0,0.01 -0.01,0.03 -0.01,0.05 -0.03,0.1 -0.09,0.16 -0.17,0.16l-0.95 0.05c-0.1,0.01 -0.13,-0.06 -0.1,-0.2l0.2 -0.92 -1.81 0.1 -0.65 0.95c-0.09,0.14 -0.19,0.21 -0.29,0.22l-1.02 0.05c-0.06,0 -0.09,-0.02 -0.07,-0.08 0.01,-0.03 0.03,-0.07 0.07,-0.12l4.86 -6.78zm-0.76 4.14l0.46 -2.14 -1.52 2.2 1.06 -0.06zm6.41 -4.44c0.03,-0.07 0.07,-0.12 0.11,-0.16 0.04,-0.04 0.09,-0.06 0.13,-0.06l0.99 -0.05c0.08,-0 0.1,0.04 0.07,0.14 -0,0.01 -0.01,0.04 -0.03,0.07l-2.38 5.2 1.84 -0.1c0.08,-0 0.11,0.04 0.08,0.13 -0,0.01 -0.01,0.04 -0.03,0.07l-0.59 1.28c-0.06,0.14 -0.14,0.21 -0.24,0.22l-2.97 0.16c-0.08,0 -0.11,-0.04 -0.08,-0.13 0,-0.01 0.01,-0.04 0.03,-0.07l3.07 -6.68zm4.02 -0.21c0.07,-0.14 0.15,-0.22 0.25,-0.22l3.3 -0.18c0.08,-0 0.1,0.04 0.07,0.14 -0,0.01 -0.01,0.04 -0.03,0.07l-0.56 1.23c-0.06,0.14 -0.14,0.21 -0.24,0.22l-2.16 0.12 -0.54 1.18 1.64 -0.09c0.09,-0 0.12,0.04 0.09,0.15 -0,0.01 -0.01,0.03 -0.03,0.06l-0.46 0.99c-0.06,0.14 -0.15,0.21 -0.25,0.22l-1.64 0.09 -0.56 1.22 2.22 -0.12c0.08,-0 0.11,0.04 0.08,0.15 -0.01,0.02 -0.01,0.04 -0.02,0.05l-0.56 1.22c-0.06,0.14 -0.14,0.21 -0.24,0.22l-3.36 0.18c-0.08,0 -0.11,-0.04 -0.08,-0.14 0,-0.01 0.01,-0.03 0.03,-0.06l3.07 -6.68zm4.48 -0.24c0.07,-0.14 0.15,-0.22 0.25,-0.22l0.99 -0.05c0.08,-0 0.1,0.04 0.07,0.14 -0,0.01 -0.01,0.04 -0.03,0.07l-3.07 6.68c-0.06,0.14 -0.14,0.21 -0.24,0.22l-0.99 0.05c-0.08,0 -0.11,-0.04 -0.08,-0.14 0,-0.01 0.01,-0.03 0.03,-0.06l3.07 -6.68z"/>
   <path class="fil5" d="M4.82 25.7l-1.39 3.26c-0.04,0.09 -0.08,0.15 -0.13,0.19 -0.05,0.04 -0.11,0.06 -0.18,0.06l-1.29 0.02c-0.11,0 -0.15,-0.05 -0.12,-0.17 0,-0.01 0.01,-0.04 0.03,-0.08l3.41 -8c0.03,-0.07 0.07,-0.13 0.13,-0.18 0.06,-0.05 0.11,-0.08 0.17,-0.08l1.31 -0.02c0.1,-0 0.13,0.05 0.1,0.17 -0.01,0.03 -0.02,0.05 -0.02,0.07l-1.16 2.73 2.2 -0.04 1.16 -2.72c0.03,-0.07 0.07,-0.13 0.13,-0.18 0.06,-0.05 0.11,-0.08 0.17,-0.08l1.31 -0.02c0.1,-0 0.13,0.05 0.1,0.17 -0.01,0.03 -0.02,0.05 -0.02,0.07l-3.42 8.01c-0.04,0.09 -0.08,0.15 -0.13,0.19 -0.05,0.04 -0.11,0.06 -0.18,0.06l-1.29 0.02c-0.11,0 -0.15,-0.05 -0.12,-0.17 0,-0.01 0.01,-0.04 0.03,-0.08l1.39 -3.26 -2.2 0.04zm5.34 -0.83c0.35,-0.86 0.81,-1.62 1.39,-2.29 0.58,-0.67 1.2,-1.19 1.86,-1.57 0.67,-0.38 1.31,-0.57 1.92,-0.58 0.54,-0.01 0.97,0.13 1.31,0.43 0.34,0.3 0.55,0.71 0.64,1.25 0.09,0.53 0.04,1.13 -0.13,1.8 -0.08,0.29 -0.17,0.57 -0.28,0.84 -0.35,0.84 -0.81,1.6 -1.38,2.27 -0.57,0.67 -1.19,1.19 -1.86,1.57 -0.67,0.38 -1.31,0.58 -1.93,0.59 -0.53,0.01 -0.96,-0.14 -1.3,-0.43 -0.34,-0.3 -0.55,-0.71 -0.64,-1.24 -0.09,-0.53 -0.05,-1.12 0.13,-1.79 0.08,-0.29 0.17,-0.58 0.29,-0.85zm1.68 -0.03c-0.08,0.2 -0.14,0.37 -0.18,0.52 -0.09,0.33 -0.11,0.63 -0.07,0.9 0.04,0.26 0.14,0.47 0.3,0.62 0.16,0.15 0.38,0.22 0.65,0.21 0.32,-0.01 0.64,-0.11 0.98,-0.32 0.34,-0.21 0.66,-0.49 0.95,-0.83 0.29,-0.35 0.53,-0.73 0.7,-1.15 0.08,-0.2 0.14,-0.37 0.18,-0.52 0.09,-0.33 0.11,-0.63 0.07,-0.89 -0.04,-0.26 -0.14,-0.47 -0.3,-0.61 -0.16,-0.15 -0.38,-0.22 -0.65,-0.21 -0.32,0.01 -0.64,0.11 -0.98,0.32 -0.34,0.21 -0.65,0.49 -0.95,0.83 -0.29,0.35 -0.53,0.73 -0.7,1.15zm7.8 -4.1c0.03,-0.07 0.07,-0.13 0.13,-0.18 0.05,-0.05 0.11,-0.08 0.17,-0.08l2.82 -0.05c0.35,-0.01 0.63,0.09 0.84,0.31 0.21,0.21 0.33,0.49 0.38,0.85 0.05,0.35 0.01,0.74 -0.1,1.17 -0.05,0.18 -0.1,0.34 -0.16,0.5 -0.21,0.52 -0.5,0.99 -0.87,1.4 -0.37,0.41 -0.77,0.73 -1.2,0.96l-0.05 3.03c-0,0.03 -0,0.05 -0.01,0.06 -0.01,0.05 -0.04,0.1 -0.08,0.13 -0.04,0.04 -0.08,0.05 -0.13,0.06l-1.44 0.03c-0.06,0 -0.1,-0.01 -0.12,-0.05 -0.02,-0.03 -0.02,-0.09 -0.02,-0.19l0.07 -2.57 -0.84 0.02 -1.1 2.58c-0.07,0.17 -0.17,0.25 -0.3,0.25l-1.31 0.02c-0.11,0 -0.15,-0.05 -0.12,-0.16 0,-0.02 0.01,-0.04 0.03,-0.08l3.41 -8zm0.16 3.56l1.02 -0.02c0.15,-0 0.3,-0.05 0.46,-0.15 0.16,-0.1 0.31,-0.23 0.44,-0.39 0.13,-0.16 0.24,-0.33 0.31,-0.5 0.03,-0.07 0.06,-0.14 0.08,-0.23 0.06,-0.23 0.06,-0.42 -0,-0.57 -0.06,-0.15 -0.18,-0.23 -0.37,-0.23l-1.06 0.02 -0.88 2.07zm9.98 -5.19c-0.08,0.11 -0.15,0.18 -0.19,0.21 -0.05,0.03 -0.11,0.05 -0.19,0.05l-0.88 0.02c-0.03,0 -0.06,-0.01 -0.08,-0.03 -0.02,-0.02 -0.02,-0.06 -0.01,-0.11 0.01,-0.04 0.03,-0.09 0.07,-0.14l0.88 -1.28c0.06,-0.1 0.12,-0.16 0.18,-0.2 0.06,-0.04 0.12,-0.06 0.2,-0.06l0.99 -0.02c0.03,-0 0.06,0.01 0.07,0.04 0.01,0.03 0.01,0.07 -0,0.11 -0.01,0.06 -0.04,0.11 -0.08,0.15l-0.96 1.25zm-2.17 1.49c0.12,-0.17 0.25,-0.26 0.38,-0.26l1.07 -0.02c0.12,-0 0.17,0.08 0.15,0.25l-1.02 7.96c-0,0.02 -0.01,0.04 -0.01,0.06 -0.03,0.12 -0.1,0.19 -0.21,0.19l-1.26 0.02c-0.13,0 -0.18,-0.08 -0.16,-0.25l0.17 -1.12 -2.39 0.04 -0.78 1.13c-0.11,0.17 -0.23,0.25 -0.37,0.25l-1.35 0.02c-0.08,0 -0.12,-0.03 -0.1,-0.1 0.01,-0.04 0.04,-0.08 0.08,-0.14l5.79 -8.04zm-0.6 5.01l0.4 -2.59 -1.8 2.61 1.4 -0.02zm5.49 -5.09c0.03,-0.07 0.07,-0.13 0.13,-0.18 0.05,-0.05 0.11,-0.08 0.17,-0.08l2.82 -0.05c0.35,-0.01 0.63,0.09 0.84,0.31 0.21,0.21 0.33,0.49 0.38,0.85 0.05,0.35 0.01,0.74 -0.1,1.17 -0.05,0.18 -0.1,0.34 -0.16,0.5 -0.21,0.52 -0.5,0.99 -0.87,1.4 -0.37,0.41 -0.77,0.73 -1.2,0.96l-0.05 3.03c-0,0.03 -0,0.05 -0.01,0.06 -0.01,0.05 -0.04,0.1 -0.08,0.13 -0.04,0.04 -0.08,0.05 -0.13,0.06l-1.44 0.03c-0.06,0 -0.1,-0.01 -0.12,-0.05 -0.02,-0.03 -0.02,-0.09 -0.02,-0.19l0.07 -2.57 -0.84 0.02 -1.1 2.58c-0.07,0.17 -0.17,0.25 -0.3,0.25l-1.31 0.02c-0.11,0 -0.15,-0.05 -0.12,-0.16 0,-0.02 0.01,-0.04 0.03,-0.08l3.41 -8zm0.16 3.56l1.02 -0.02c0.15,-0 0.3,-0.05 0.46,-0.15 0.16,-0.1 0.31,-0.23 0.44,-0.39 0.13,-0.16 0.24,-0.33 0.31,-0.5 0.03,-0.07 0.06,-0.14 0.08,-0.23 0.06,-0.23 0.06,-0.42 -0,-0.57 -0.06,-0.15 -0.18,-0.23 -0.37,-0.23l-1.06 0.02 -0.88 2.07zm6 -3.67c0.07,-0.17 0.17,-0.26 0.31,-0.26l1.31 -0.02c0.1,-0 0.14,0.05 0.11,0.17 -0,0.02 -0.01,0.04 -0.03,0.08l-3.41 8c-0.07,0.17 -0.17,0.25 -0.29,0.25l-1.31 0.02c-0.11,0 -0.15,-0.05 -0.12,-0.17 0,-0.01 0.01,-0.04 0.03,-0.08l3.41 -8zm1.11 3.95c0.35,-0.86 0.81,-1.62 1.39,-2.29 0.58,-0.67 1.2,-1.19 1.86,-1.57 0.67,-0.38 1.31,-0.57 1.92,-0.58 0.54,-0.01 0.97,0.13 1.31,0.43 0.34,0.3 0.55,0.71 0.64,1.25 0.09,0.53 0.04,1.13 -0.13,1.8 -0.08,0.29 -0.17,0.57 -0.28,0.84 -0.35,0.84 -0.81,1.6 -1.38,2.27 -0.57,0.67 -1.19,1.19 -1.86,1.57 -0.67,0.38 -1.31,0.58 -1.93,0.59 -0.53,0.01 -0.96,-0.14 -1.3,-0.43 -0.34,-0.3 -0.55,-0.71 -0.64,-1.24 -0.09,-0.53 -0.05,-1.12 0.13,-1.79 0.08,-0.29 0.17,-0.58 0.29,-0.85zm1.68 -0.03c-0.08,0.2 -0.14,0.37 -0.18,0.52 -0.09,0.33 -0.11,0.63 -0.07,0.9 0.04,0.26 0.14,0.47 0.3,0.62 0.16,0.15 0.38,0.22 0.65,0.21 0.32,-0.01 0.64,-0.11 0.98,-0.32 0.34,-0.21 0.66,-0.49 0.95,-0.83 0.29,-0.35 0.53,-0.73 0.7,-1.15 0.08,-0.2 0.14,-0.37 0.18,-0.52 0.09,-0.33 0.11,-0.63 0.07,-0.89 -0.04,-0.26 -0.14,-0.47 -0.3,-0.61 -0.16,-0.15 -0.38,-0.22 -0.65,-0.21 -0.32,0.01 -0.64,0.11 -0.98,0.32 -0.34,0.21 -0.65,0.49 -0.95,0.83 -0.29,0.35 -0.53,0.73 -0.7,1.15z"/>
   <path class="fil0" d="M47.22 15.89c0.09,0.18 0.14,0.37 0.17,0.55 0.08,0.54 -0.03,1.08 -0.29,1.59 -0.23,0.44 -0.56,0.85 -1.02,1.17 -0.43,0.29 -0.95,0.49 -1.53,0.52 -0.18,0.01 -0.37,0 -0.55,-0.02l-0.09 -0.01 -0.09 -0.02c-0.25,-0.05 -0.48,-0.13 -0.68,-0.23 -0.49,0.42 -1.03,0.81 -1.64,1.14 -0.36,0.19 -0.74,0.36 -1.14,0.48 -0.08,0.11 -0.17,0.22 -0.28,0.32 -0.33,0.29 -0.79,0.48 -1.3,0.51 -0.53,0.03 -1.04,-0.13 -1.43,-0.4l-0.02 -0.02 -0.03 -0.02 -0.02 -0.01c-0.38,-0.31 -0.59,-0.71 -0.65,-1.13 -0.01,-0.04 -0.01,-0.07 -0.01,-0.11 -0.13,-0.19 -0.24,-0.38 -0.31,-0.59 -0.06,0.05 -0.13,0.1 -0.19,0.14 -0.43,0.3 -0.95,0.49 -1.53,0.52 -0.18,0.01 -0.37,0 -0.55,-0.02l-0.09 -0.01 -0.09 -0.02c-0.45,-0.09 -0.82,-0.27 -1.12,-0.51 -0.06,0.06 -0.13,0.11 -0.2,0.16l-0.02 0.02 -0.02 0.02c-0.32,0.21 -0.72,0.35 -1.14,0.37 -0.04,0 -0.09,0 -0.13,0 -0.31,0.35 -0.77,0.59 -1.35,0.64 -0.3,0.18 -0.66,0.29 -1.05,0.32 -0.25,0.01 -0.5,-0.01 -0.74,-0.07l-0.07 -0.02 -0.07 -0.02c-0.45,-0.15 -0.79,-0.4 -1.02,-0.71 -0.18,-0.01 -0.36,-0.03 -0.53,-0.08 -0.02,0.01 -0.04,0.02 -0.06,0.03 -0.56,0.26 -1.19,0.49 -1.86,0.53 -0.49,0.03 -0.97,-0.05 -1.38,-0.23 -0.45,0.37 -0.94,0.72 -1.49,1.01 -0.36,0.19 -0.74,0.36 -1.14,0.48 -0.08,0.11 -0.17,0.22 -0.28,0.32 -0.33,0.29 -0.79,0.48 -1.3,0.51 -0.54,0.03 -1.04,-0.13 -1.43,-0.4l-0.02 -0.01 -0.04 -0.03 -0.01 -0.01c-0.39,-0.31 -0.59,-0.71 -0.65,-1.13 -0.01,-0.04 -0.01,-0.07 -0.01,-0.11 -0.2,-0.27 -0.32,-0.57 -0.39,-0.87 -0.26,0.24 -0.57,0.45 -0.93,0.62 -0.36,0.17 -0.75,0.3 -1.18,0.32 -0.28,0.02 -0.57,-0.01 -0.83,-0.09l-0.14 -0.04 -0.13 -0.06c-0.08,-0.03 -0.15,-0.07 -0.23,-0.11 -0.01,0 -0.02,0 -0.02,0 -0.33,0.02 -0.64,-0.03 -0.94,-0.12 -0.07,0.04 -0.15,0.07 -0.23,0.1 -0.32,0.13 -0.66,0.22 -1.02,0.24 -0.17,0.01 -0.33,0 -0.5,-0.02l-0.12 -0.02c-0,0 -0,0.01 -0,0.01 -0.07,0.24 -0.12,0.47 -0.19,0.71 -0.07,0.28 -0.15,0.57 -0.25,0.84 -0.1,0.28 -0.25,0.59 -0.59,0.75 -0.36,0.17 -0.81,0.13 -1.17,-0.03 -0.38,-0.17 -0.59,-0.43 -0.73,-0.74 -0.15,-0.34 -0.24,-0.75 -0.31,-1.11 -0.01,-0.06 -0.02,-0.15 -0.04,-0.24l-0.46 0.08 0.09 -0.39c-0.13,-0.01 -0.25,-0.02 -0.38,-0.04 -0,0.01 -0.01,0.01 -0.01,0.02 -0.19,0.31 -0.38,0.63 -0.66,0.9 -0.4,0.4 -0.94,0.69 -1.61,0.73 -0.72,0.04 -1.38,-0.21 -1.8,-0.65 -0.26,-0.28 -0.42,-0.6 -0.47,-0.94l-0 -0.02 -0 -0.04 -0.01 -0.1 -0 -0.02c-0.02,-0.47 0.21,-0.91 0.61,-1.27 0.03,-0.05 0.06,-0.1 0.09,-0.14 0.18,-0.29 0.33,-0.58 0.49,-0.87 0.18,-0.35 0.37,-0.69 0.56,-1.04 0.19,-0.35 0.39,-0.7 0.6,-1.05 0.14,-0.23 0.28,-0.47 0.44,-0.69 0.39,-0.53 0.97,-0.96 1.81,-1.01 0.45,-0.03 0.89,0.07 1.25,0.26 0.07,0.03 0.13,0.07 0.19,0.11 0.22,-0.27 0.45,-0.55 0.67,-0.82 0.48,-0.59 1.06,-1.2 2.06,-1.25 0.69,-0.04 1.32,0.22 1.73,0.63 0.31,0.29 0.5,0.63 0.55,1 0.02,0.18 0.02,0.35 -0.01,0.52 -0.03,0.19 -0.08,0.37 -0.14,0.56 -0.04,0.12 -0.08,0.24 -0.12,0.36 0.36,0.05 0.69,0.16 1,0.32 0.02,-0.02 0.04,-0.04 0.06,-0.06 0.29,-0.24 0.61,-0.47 0.98,-0.64 0.35,-0.17 0.73,-0.28 1.15,-0.31 0.33,-0.02 0.67,0.03 0.97,0.13l0.07 0.02 0.07 0.03c0.18,0.07 0.34,0.17 0.49,0.27 0.35,-0.4 0.75,-0.76 1.2,-1.1 0.6,-0.45 1.28,-0.82 2.03,-1.1l0.02 -0.01 0.04 -0.01 0.03 -0.01c0.02,-0.01 0.04,-0.01 0.03,-0.01l0.03 -0.01c0.24,-0.1 0.49,-0.16 0.75,-0.21 0.3,-0.05 0.59,-0.1 0.89,-0.12 0.6,-0.03 1.21,0.05 1.76,0.24 0.86,0.28 1.42,0.84 1.72,1.5l0.01 0.02 0.01 0.02c0.02,0.05 0.04,0.09 0.05,0.14 0.36,0.02 0.7,0.11 1,0.26 0.14,-0.05 0.28,-0.09 0.43,-0.12 0.14,-0.63 0.71,-1.08 1.52,-1.3l0.09 -0.02 0.1 -0.02c0.38,-0.07 0.77,-0.12 1.15,-0.16 0.41,-0.37 0.94,-0.63 1.6,-0.67 0.43,-0.02 0.86,0.06 1.22,0.23 0.19,0.09 0.36,0.2 0.51,0.33 0.7,0.05 1.3,0.2 1.75,0.64l0.02 0.02 0.04 0.04 0.01 0.01c0.05,0.06 0.1,0.11 0.14,0.17 0.05,0 0.1,0.01 0.15,0.01 0.56,0.03 0.99,0.23 1.31,0.51 0.41,-0.54 0.91,-1.02 1.49,-1.46 0.6,-0.45 1.28,-0.82 2.03,-1.1l0.02 -0.01 0.05 -0.02 0.02 -0.01c0.02,-0.01 0.04,-0.01 0.03,-0.01l0.02 -0.01 0.02 -0.01c0.24,-0.1 0.49,-0.16 0.75,-0.21 0.3,-0.05 0.59,-0.1 0.89,-0.12 0.6,-0.03 1.21,0.05 1.76,0.24 0.86,0.28 1.42,0.84 1.72,1.5l0.01 0.02 0.01 0.02c0.02,0.04 0.04,0.09 0.05,0.13 1.04,0.14 1.56,0.86 1.72,1.61z"/>
   <path class="fil1" d="M45 14.71c0.08,0 0.16,0.01 0.25,0.01 0.85,0.05 1.26,0.64 1.38,1.29 0.08,0.15 0.13,0.32 0.15,0.49 0.07,0.47 -0.03,0.94 -0.25,1.37 -0.2,0.38 -0.48,0.73 -0.87,1 -0.33,0.23 -0.73,0.38 -1.16,0.4 -0.14,0.01 -0.27,0 -0.41,-0.01l-0.06 -0.01 -0.06 -0.01c-0.38,-0.08 -0.68,-0.24 -0.92,-0.45 -0.1,0.09 -0.19,0.18 -0.29,0.27 -0.49,0.44 -1.03,0.83 -1.63,1.15 -0.39,0.21 -0.81,0.38 -1.24,0.5 -0.07,0.14 -0.16,0.27 -0.29,0.38 -0.23,0.21 -0.55,0.33 -0.88,0.35 -0.35,0.02 -0.69,-0.08 -0.96,-0.28l-0.01 -0.01 -0.02 -0.02 -0.01 -0.01c-0.29,-0.23 -0.44,-0.53 -0.49,-0.86 -0.01,-0.06 -0.01,-0.13 -0.01,-0.19 -0.22,-0.28 -0.36,-0.6 -0.41,-0.95 -0.03,-0.21 -0.02,-0.43 0.03,-0.63 -0.07,-0.07 -0.14,-0.14 -0.19,-0.22 -0.02,0.05 -0.05,0.1 -0.07,0.15 -0.2,0.38 -0.48,0.73 -0.87,1 -0.33,0.23 -0.73,0.38 -1.16,0.4 -0.14,0.01 -0.27,0 -0.41,-0.01l-0.06 -0.01 -0.06 -0.01c-0.63,-0.13 -1.07,-0.49 -1.29,-0.96 -0.06,0.08 -0.11,0.15 -0.17,0.23 -0.12,0.18 -0.25,0.35 -0.45,0.49l-0.02 0.01 -0.02 0.01c-0.23,0.15 -0.5,0.24 -0.78,0.26 -0.14,0.01 -0.28,-0 -0.42,-0.03 -0.21,0.38 -0.6,0.65 -1.15,0.68 -0.04,0 -0.08,0 -0.12,0 -0.22,0.18 -0.52,0.29 -0.85,0.31 -0.17,0.01 -0.34,-0.01 -0.5,-0.05l-0.05 -0.01 -0.04 -0.01c-0.44,-0.14 -0.73,-0.42 -0.88,-0.77 -0.06,0.01 -0.13,0.02 -0.2,0.02 -0.27,0.01 -0.52,-0.04 -0.76,-0.14 -0.11,0.05 -0.22,0.1 -0.33,0.16 -0.48,0.22 -1.03,0.43 -1.58,0.46 -0.57,0.03 -1.07,-0.11 -1.43,-0.39 -0.04,0.04 -0.08,0.08 -0.13,0.11 -0.49,0.44 -1.03,0.83 -1.63,1.15 -0.39,0.21 -0.81,0.38 -1.24,0.5 -0.07,0.14 -0.16,0.27 -0.29,0.38 -0.23,0.21 -0.55,0.33 -0.88,0.35 -0.35,0.02 -0.69,-0.08 -0.96,-0.28l-0.01 -0.01 -0.03 -0.02 -0.01 -0.01c-0.29,-0.23 -0.44,-0.53 -0.49,-0.86 -0.01,-0.06 -0.01,-0.13 -0.02,-0.19 -0.22,-0.28 -0.36,-0.6 -0.41,-0.95 -0.03,-0.21 -0.02,-0.43 0.03,-0.63 -0.19,-0.18 -0.31,-0.39 -0.37,-0.62 -0.05,0.06 -0.11,0.12 -0.16,0.17 -0.04,0.3 -0.18,0.58 -0.38,0.82l-0.01 0.01 -0.02 0.03 -0.01 0.01c-0.25,0.26 -0.55,0.48 -0.9,0.64 -0.28,0.13 -0.58,0.23 -0.9,0.25 -0.19,0.01 -0.39,-0.01 -0.57,-0.06l-0.09 -0.03 -0.09 -0.04c-0.13,-0.06 -0.24,-0.12 -0.34,-0.2 -0.09,0.02 -0.17,0.03 -0.26,0.03 -0.29,0.02 -0.56,-0.04 -0.83,-0.14 -0.04,-0.02 -0.08,-0.03 -0.12,-0.05 -0.15,0.09 -0.3,0.16 -0.47,0.23 -0.24,0.1 -0.5,0.17 -0.77,0.19 -0.12,0.01 -0.23,0 -0.35,-0.01 -0.08,-0.13 -0.23,-0.22 -0.34,-0.26 -0.13,-0.04 -0.21,-0.02 -0.29,0.09 -0.07,0.11 -0.14,0.31 -0.2,0.52 -0.06,0.22 -0.12,0.45 -0.19,0.72 -0.07,0.27 -0.15,0.57 -0.24,0.81 -0.09,0.24 -0.18,0.41 -0.33,0.49 -0.15,0.07 -0.36,0.04 -0.53,-0.04 -0.18,-0.08 -0.33,-0.2 -0.45,-0.48 -0.13,-0.28 -0.23,-0.73 -0.29,-1.03 -0.06,-0.3 -0.08,-0.46 -0.12,-0.57 -0.04,-0.1 -0.11,-0.15 -0.23,-0.13 0.03,-0.11 0.05,-0.23 0.08,-0.34 -0.16,0.06 -0.33,0.09 -0.5,0.1 -0.07,0 -0.13,0 -0.2,0 -0.29,-0.01 -0.54,-0.08 -0.75,-0.19 -0.08,0.15 -0.17,0.29 -0.25,0.44 -0.17,0.28 -0.34,0.57 -0.59,0.82 -0.3,0.3 -0.69,0.52 -1.16,0.54 -0.49,0.03 -0.95,-0.14 -1.26,-0.46 -0.2,-0.2 -0.32,-0.45 -0.35,-0.71l-0 -0.01 -0 -0.03 -0.01 -0.1 -0 -0.01c-0.02,-0.39 0.19,-0.73 0.51,-0.99 0.05,-0.07 0.09,-0.15 0.13,-0.21 0.18,-0.29 0.34,-0.59 0.5,-0.89 0.18,-0.34 0.36,-0.69 0.55,-1.03 0.19,-0.35 0.39,-0.7 0.59,-1.04 0.13,-0.22 0.26,-0.44 0.42,-0.65 0.3,-0.41 0.72,-0.74 1.32,-0.77 0.31,-0.02 0.61,0.05 0.87,0.19 0.26,0.13 0.46,0.31 0.59,0.52 0.38,-0.46 0.76,-0.92 1.13,-1.38 0.38,-0.47 0.84,-0.99 1.58,-1.03 0.47,-0.03 0.91,0.15 1.21,0.45 0.23,0.21 0.39,0.47 0.43,0.77 0.02,0.14 0.01,0.28 -0.01,0.43 -0.02,0.17 -0.08,0.33 -0.13,0.5 -0.08,0.25 -0.16,0.49 -0.25,0.74 -0.02,0.06 -0.05,0.13 -0.07,0.19 0.08,-0.01 0.17,-0.02 0.25,-0.03 0.45,-0.02 0.88,0.09 1.25,0.3 0.14,0.08 0.26,0.18 0.37,0.28 0.14,-0.16 0.29,-0.3 0.45,-0.44 0.26,-0.22 0.54,-0.41 0.85,-0.56 0.27,-0.13 0.56,-0.22 0.86,-0.24 0.23,-0.01 0.46,0.02 0.68,0.09l0.04 0.02 0.04 0.02c0.38,0.16 0.67,0.42 0.82,0.74 0.06,-0.09 0.12,-0.17 0.18,-0.25 0.39,-0.52 0.87,-0.98 1.42,-1.39 0.56,-0.42 1.19,-0.76 1.87,-1.02l0.01 -0 0.03 -0.01 0.02 -0c0.03,-0.01 0.07,-0.02 0.1,-0.04l0.01 -0 0.01 -0c0.19,-0.08 0.39,-0.13 0.6,-0.16 0.26,-0.05 0.52,-0.09 0.79,-0.11 0.5,-0.03 1,0.04 1.47,0.2 0.67,0.22 1.13,0.66 1.39,1.23l0.01 0.01 0.01 0.01c0.07,0.16 0.11,0.32 0.14,0.48 0.07,-0.01 0.14,-0.02 0.21,-0.02 0.49,-0.03 0.93,0.11 1.26,0.37 0.22,-0.15 0.49,-0.24 0.78,-0.26 0.09,-0 0.18,-0 0.26,0.01 -0,-0.07 -0,-0.15 0.01,-0.22 0.05,-0.57 0.53,-0.92 1.14,-1.07l0.06 -0.02 0.06 -0.01c0.45,-0.08 0.9,-0.14 1.35,-0.18 0.33,-0.35 0.75,-0.61 1.31,-0.64 0.3,-0.02 0.6,0.04 0.86,0.16 0.2,0.09 0.37,0.22 0.5,0.38 0.08,0 0.15,0.01 0.23,0.01 0.51,0.04 1.01,0.11 1.37,0.47l0.01 0.01 0.02 0.02 0.01 0.01c0.11,0.12 0.19,0.25 0.23,0.38 0.05,-0.01 0.1,-0.01 0.15,-0.01 0.13,-0.01 0.24,0 0.37,0.01 0.8,0.05 1.21,0.57 1.35,1.17 0.13,-0.3 0.31,-0.59 0.51,-0.86 0.39,-0.52 0.87,-0.98 1.42,-1.39 0.56,-0.42 1.19,-0.76 1.87,-1.02l0.01 -0 0.03 -0.01 0.02 -0c0.03,-0.01 0.07,-0.02 0.1,-0.04l0.01 -0 0.01 -0c0.19,-0.08 0.39,-0.13 0.6,-0.16 0.26,-0.05 0.52,-0.09 0.79,-0.11 0.5,-0.03 1,0.04 1.47,0.2 0.67,0.22 1.13,0.66 1.39,1.23l0.01 0.01 0.01 0.01c0.06,0.14 0.1,0.28 0.13,0.42z"/>
   <path class="fil6" d="M9.49 16.58c-0.16,0.18 -0.31,0.36 -0.47,0.55 -0.42,0.49 -0.83,0.98 -1.23,1.48 -0.19,0.24 -0.39,0.48 -0.59,0.71 -0.1,0.11 -0.23,0.25 -0.36,0.33 -0.08,0.05 -0.16,0.08 -0.25,0.08 -0.02,0 -0.04,0 -0.06,-0 -0.45,-0.01 -0.56,-0.58 -0.6,-0.87 -0.04,-0.31 -0.05,-0.63 -0.04,-0.94 -0.05,0.09 -0.11,0.19 -0.16,0.28 -0.19,0.34 -0.39,0.68 -0.57,1.02 -0.23,0.43 -0.46,0.87 -0.72,1.29 -0.12,0.19 -0.27,0.46 -0.44,0.62 -0.09,0.09 -0.22,0.19 -0.36,0.2 -0.12,0.01 -0.23,-0.03 -0.31,-0.11 -0.06,-0.06 -0.1,-0.14 -0.11,-0.22l-0 -0 -0.01 -0.07c-0.01,-0.12 0.12,-0.22 0.22,-0.29 0.1,-0.1 0.23,-0.3 0.3,-0.42 0.19,-0.31 0.36,-0.63 0.53,-0.94 0.18,-0.34 0.36,-0.68 0.55,-1.02 0.19,-0.34 0.38,-0.68 0.58,-1.02 0.11,-0.19 0.23,-0.39 0.37,-0.58 0.09,-0.12 0.23,-0.3 0.42,-0.31 0.08,-0 0.15,0.02 0.22,0.05 0.17,0.08 0.24,0.24 0.26,0.4 0.03,0.2 0.01,0.44 0.01,0.64 -0.01,0.31 -0.02,0.63 -0.02,0.94 0,0.15 0,0.3 0.02,0.45 0.02,-0.03 0.05,-0.05 0.06,-0.06 0.13,-0.14 0.26,-0.3 0.38,-0.45 0.26,-0.31 0.51,-0.62 0.77,-0.93 0.59,-0.72 1.19,-1.43 1.77,-2.15 0.12,-0.15 0.47,-0.59 0.7,-0.61 0.12,-0.01 0.22,0.05 0.29,0.13 0.08,0.07 0.14,0.15 0.15,0.24 0.01,0.06 0,0.13 -0.01,0.19 -0.02,0.11 -0.06,0.25 -0.1,0.36 -0.08,0.24 -0.16,0.48 -0.24,0.71 -0.29,0.82 -0.56,1.65 -0.81,2.48 -0.28,0.94 -0.55,1.88 -0.81,2.82 -0.07,0.25 -0.14,0.5 -0.2,0.76 -0.02,0.07 -0.06,0.23 -0.06,0.3 0.02,0.03 0.03,0.05 0.04,0.08 0,0.02 0,0.04 -0,0.06 -0.01,0.04 -0.03,0.07 -0.06,0.11 -0.04,0.04 -0.09,0.07 -0.15,0.07 -0.24,0.01 -0.32,-0.2 -0.34,-0.36 -0.04,-0.26 0.02,-0.63 0.06,-0.89 0.04,-0.31 0.12,-0.62 0.19,-0.93 0.12,-0.5 0.26,-1 0.4,-1.5 0.25,-0.9 0.52,-1.81 0.83,-2.7zm3.23 2.16l0.01 0.07c0.02,0.12 0.06,0.22 0.23,0.21 0.27,-0.02 0.72,-0.3 0.92,-0.44 0.01,-0.01 0.01,-0.01 0.02,-0.02 -0,-0.01 -0,-0.02 -0,-0.03 -0.02,-0.17 0.07,-0.34 0.17,-0.48 0.13,-0.19 0.3,-0.36 0.49,-0.52 0.18,-0.15 0.38,-0.3 0.61,-0.4 0.11,-0.05 0.24,-0.1 0.37,-0.11 0.06,-0 0.13,0 0.19,0.02l0 0 0 0c0.17,0.07 0.28,0.18 0.31,0.35 0.02,0.14 -0.06,0.35 -0.12,0.48 -0.07,0.17 -0.28,0.66 -0.55,0.68 -0.06,0 -0.11,-0.01 -0.15,-0.04 -0.06,-0.04 -0.11,-0.09 -0.11,-0.16 -0.01,-0.07 0.05,-0.29 0.1,-0.47 -0.06,0.05 -0.11,0.09 -0.13,0.11 -0.14,0.12 -0.3,0.26 -0.41,0.41 0.01,0 0.01,0 0.01,0l0.01 0c0.25,0.1 0.52,0.27 0.56,0.52 0.02,0.17 -0.06,0.34 -0.18,0.47l-0 0c-0.15,0.16 -0.34,0.29 -0.55,0.4 -0.12,0.06 -0.27,0.12 -0.42,0.13 -0.05,0 -0.1,-0 -0.14,-0.01l-0.01 -0 -0.01 -0c-0.08,-0.04 -0.15,-0.09 -0.17,-0.18 -0.02,-0.17 0.23,-0.33 0.37,-0.42 0.11,-0.07 0.23,-0.14 0.32,-0.23 0.01,-0.01 0.05,-0.04 0.07,-0.07 -0.05,-0.03 -0.14,-0.06 -0.17,-0.07 -0.04,-0.01 -0.09,-0.03 -0.13,-0.05 -0.15,0.12 -0.35,0.24 -0.51,0.33 -0.25,0.14 -0.68,0.38 -0.99,0.4 -0.1,0.01 -0.22,-0.03 -0.3,-0.06 -0.14,-0.05 -0.26,-0.15 -0.35,-0.25 -0.04,-0.05 -0.09,-0.11 -0.12,-0.18 -0.08,0.05 -0.19,0.12 -0.22,0.14l-0.01 0 -0.01 0c-0.01,0 -0.01,0.01 -0.02,0.01l-0.01 0 -0.01 0c-0.24,0.16 -0.53,0.35 -0.81,0.46 -0.1,0.04 -0.22,0.08 -0.34,0.09 -0.07,0 -0.13,-0 -0.19,-0.02 -0.2,-0.06 -0.32,-0.18 -0.34,-0.36 -0.01,-0.06 -0.01,-0.13 -0.01,-0.19 -0,-0.16 0.13,-0.39 0.21,-0.53 0.15,-0.24 0.34,-0.45 0.56,-0.63 0.22,-0.18 0.48,-0.32 0.78,-0.4 0.06,-0.01 0.13,-0.02 0.19,-0.03 0.2,-0.01 0.38,0.04 0.54,0.14 0.2,0.11 0.29,0.3 0.32,0.49 0,0.03 0.02,0.05 0.03,0.07l0 0c0.04,0.07 0.07,0.14 0.08,0.21 0.01,0.04 0.01,0.09 0,0.13zm6.23 0.53c0.16,-0.41 0.33,-0.81 0.51,-1.21 0.31,-0.68 0.64,-1.36 1.02,-2.01 -0.54,0.28 -1.02,0.63 -1.43,1.05 -0.37,0.38 -0.71,0.83 -0.83,1.32 -0,0.02 -0.01,0.04 -0.02,0.07 0.17,-0.01 0.34,0.04 0.36,0.21 0.02,0.13 -0.09,0.23 -0.22,0.3l-0 0 -0 0c-0.08,0.03 -0.16,0.05 -0.24,0.06 -0.12,0.01 -0.23,-0.03 -0.32,-0.1 -0.1,-0.08 -0.14,-0.19 -0.16,-0.31 -0.01,-0.07 -0.01,-0.13 -0,-0.2 0.06,-0.45 0.28,-0.87 0.57,-1.25 0.33,-0.44 0.74,-0.83 1.2,-1.18 0.47,-0.35 1,-0.64 1.57,-0.85l0 -0c0.08,-0.02 0.16,-0.05 0.23,-0.08 0.09,-0.04 0.23,-0.07 0.33,-0.08 0.2,-0.04 0.42,-0.08 0.62,-0.09 0.34,-0.02 0.67,0.03 0.99,0.14 0.37,0.12 0.6,0.36 0.75,0.68 0.04,0.11 0.07,0.22 0.09,0.33 0.04,0.3 -0.03,0.64 -0.12,0.93 -0.14,0.43 -0.39,0.85 -0.67,1.23 -0.33,0.46 -0.72,0.89 -1.16,1.28 -0.42,0.38 -0.89,0.72 -1.41,1 -0.44,0.24 -0.94,0.42 -1.46,0.48 -0.05,0 -0.1,0.01 -0.15,0.02 -0,0 -0,0 -0.01,0 -0,0.01 -0,0.01 -0.01,0.02 -0.03,0.09 -0.05,0.19 -0.06,0.29 0.01,0.08 -0,0.17 -0.07,0.23 -0.03,0.03 -0.08,0.05 -0.13,0.05 -0.06,0 -0.11,-0.02 -0.15,-0.05l-0 -0c-0.09,-0.07 -0.13,-0.17 -0.14,-0.27 -0.02,-0.12 -0,-0.25 0.02,-0.36 0,-0.02 0,-0.04 0.01,-0.04 -0.01,-0.01 -0.03,-0.03 -0.05,-0.04 -0.23,-0.19 -0.36,-0.42 -0.4,-0.69 -0.02,-0.18 0,-0.35 0.07,-0.52 0.08,-0.19 0.24,-0.31 0.46,-0.37l0.01 -0 0.01 -0c0.04,-0.01 0.08,-0.01 0.12,-0.02 0.11,-0.01 0.23,0.02 0.28,0.09zm-0.3 0.84c0.01,-0.02 0.01,-0.04 0.02,-0.05 0.05,-0.16 0.11,-0.32 0.16,-0.48 -0.01,0.01 -0.02,0.01 -0.03,0.02 -0.11,0.06 -0.17,0.14 -0.19,0.25 -0.01,0.04 -0.01,0.08 -0,0.13 0.01,0.05 0.02,0.09 0.04,0.13zm5.62 -1.47c-0.02,0.07 -0.05,0.16 -0.05,0.21 0.01,0.07 0.04,0.09 0.12,0.09 0.32,-0.02 0.79,-0.22 1.06,-0.35 0.48,-0.23 0.93,-0.48 1.37,-0.77 0.01,-0 0.01,-0.01 0.02,-0.01 0.03,-0.08 0.06,-0.15 0.09,-0.23 0.07,-0.16 0.17,-0.41 0.3,-0.55 0.06,-0.06 0.13,-0.11 0.22,-0.12 0.06,-0 0.12,0.01 0.17,0.04 0.11,0.04 0.18,0.11 0.2,0.21 0.02,0.12 -0.04,0.26 -0.1,0.37 -0.03,0.06 -0.07,0.13 -0.1,0.19 0.23,-0.22 0.49,-0.43 0.72,-0.63l0.53 -0.47c0.1,-0.1 0.26,-0.24 0.42,-0.25 0.11,-0.01 0.21,0.04 0.28,0.11 0.05,0.05 0.09,0.11 0.1,0.18 0.02,0.13 -0.1,0.45 -0.14,0.58 -0.1,0.26 -0.18,0.54 -0.26,0.8 -0.1,0.33 -0.19,0.66 -0.27,0.99 -0.02,0.1 -0.11,0.42 -0.1,0.52l0.01 0.03 0 0c0.02,0.11 -0.07,0.18 -0.19,0.19 -0.04,0 -0.07,-0 -0.1,-0.01l-0 -0 -0 -0c-0.2,-0.06 -0.27,-0.25 -0.29,-0.42 -0.02,-0.17 -0,-0.39 0.01,-0.56 0.01,-0.19 0.07,-0.4 0.12,-0.58 0.07,-0.24 0.14,-0.48 0.22,-0.71 -0.41,0.33 -0.79,0.69 -1.12,1.08 -0.08,0.09 -0.17,0.19 -0.27,0.27 -0.06,0.05 -0.14,0.11 -0.23,0.12 -0.08,0 -0.16,-0.03 -0.22,-0.07 -0.09,-0.07 -0.13,-0.17 -0.15,-0.27 -0.01,-0.05 -0.01,-0.09 -0.01,-0.14 -0.36,0.23 -0.8,0.44 -1.18,0.62 -0.3,0.14 -0.76,0.33 -1.11,0.35 -0.44,0.02 -0.75,-0.14 -0.8,-0.53 -0.06,-0.4 0.18,-0.84 0.4,-1.18 0.17,-0.26 0.4,-0.49 0.68,-0.67 0.22,-0.14 0.47,-0.26 0.75,-0.27 0.26,-0.01 0.45,0.09 0.56,0.28l0 0 0 0c0.02,0.05 0.03,0.09 0.04,0.14 0.02,0.15 -0.04,0.32 -0.11,0.46 -0.1,0.19 -0.25,0.37 -0.42,0.52 -0.18,0.16 -0.38,0.3 -0.61,0.39 -0.1,0.04 -0.2,0.06 -0.3,0.07 -0.09,0 -0.17,-0.01 -0.25,-0.03zm7.55 -3.32c0.03,-0 0.05,-0 0.07,-0 0.37,-0.01 0.75,-0.01 1.11,0.02 0.15,0.01 0.5,0.03 0.61,0.14l0 0c0.03,0.03 0.05,0.06 0.05,0.1 0.01,0.04 -0.01,0.08 -0.04,0.11 -0.05,0.06 -0.18,0.07 -0.26,0.08 -0.18,0.02 -0.36,0.03 -0.53,0.04l-0.21 0.01c-0.16,0.01 -1.08,0.06 -1.24,0.13 -0.66,1.04 -1.18,2.14 -1.51,3.29 -0.03,0.11 -0.08,0.26 -0.24,0.27 -0.06,0 -0.11,-0.01 -0.15,-0.04l-0 -0 -0 -0c-0.1,-0.06 -0.14,-0.17 -0.15,-0.27 -0.04,-0.26 0.09,-0.71 0.16,-0.97 0.18,-0.61 0.5,-1.26 0.81,-1.83 0.03,-0.06 0.17,-0.32 0.22,-0.45 -0.44,0.06 -0.91,0.12 -1.36,0.14 -0.09,0 -0.25,0.02 -0.33,-0.03 -0.05,-0.03 -0.08,-0.08 -0.09,-0.14 -0,-0.03 -0,-0.08 0,-0.11 0.01,-0.13 0.21,-0.18 0.33,-0.21l0 -0 0.01 -0c0.56,-0.1 1.13,-0.16 1.71,-0.2 0.02,-0 0.05,-0 0.06,-0 0,-0 0.01,-0.01 0.01,-0.01 0.02,-0.02 0.05,-0.06 0.06,-0.08 0.14,-0.2 0.37,-0.48 0.66,-0.5 0.08,-0 0.16,0.01 0.24,0.05 0.08,0.04 0.14,0.09 0.15,0.17 0.01,0.1 -0.09,0.24 -0.16,0.32zm1.66 2.51c-0.05,0.03 -0.1,0.04 -0.15,0.04 -0.18,0.01 -0.34,-0.04 -0.44,-0.16 -0.06,-0.07 -0.09,-0.15 -0.1,-0.24 -0.01,-0.07 -0.01,-0.14 0,-0.22 -0.5,0.38 -0.91,0.82 -1.24,1.31 -0.05,0.07 -0.11,0.17 -0.19,0.22 -0.04,0.03 -0.09,0.05 -0.15,0.05 -0.04,0 -0.07,-0 -0.11,-0.01 -0.17,-0.05 -0.24,-0.19 -0.26,-0.34 -0.02,-0.15 0.02,-0.37 0.04,-0.52 0.06,-0.35 0.28,-0.79 0.45,-1.11 0.11,-0.2 0.36,-0.66 0.66,-0.68 0.06,-0 0.12,0.01 0.17,0.03 0.12,0.05 0.2,0.13 0.22,0.24 0.02,0.13 -0.05,0.27 -0.13,0.38 -0.03,0.05 -0.07,0.1 -0.1,0.15 0.34,-0.32 0.82,-0.74 1.04,-0.75 0.14,-0.01 0.26,0.04 0.32,0.15l0 0 0 0c0.02,0.04 0.03,0.08 0.03,0.12 0.02,0.17 -0.02,0.39 -0.05,0.56 -0.02,0.09 -0.06,0.29 -0.06,0.37 0,0.03 0.01,0.08 0.06,0.09l0.05 0.01 0.02 0.04c0.01,0.02 0.02,0.05 0.02,0.07 0.01,0.08 -0.03,0.14 -0.1,0.18zm2.08 -0.95c0.07,0.08 0.1,0.18 0.11,0.28 0.04,0.3 -0.02,0.58 -0.16,0.86 -0.13,0.24 -0.3,0.47 -0.54,0.64 -0.15,0.1 -0.32,0.18 -0.51,0.19 -0.06,0 -0.11,0 -0.17,-0.01l-0 -0 -0 -0c-0.4,-0.08 -0.56,-0.36 -0.61,-0.68 -0.03,-0.23 0.01,-0.47 0.08,-0.7 0.09,-0.31 0.28,-0.59 0.51,-0.84l0 -0c0.18,-0.18 0.43,-0.38 0.71,-0.39 0.06,-0 0.15,0.01 0.22,0.01 0.24,0.01 0.31,0.32 0.34,0.48 0.01,0.04 0.02,0.13 0.04,0.17zm3.3 1.29c0.16,-0.41 0.33,-0.81 0.51,-1.21 0.31,-0.68 0.64,-1.36 1.02,-2.01 -0.54,0.28 -1.02,0.63 -1.43,1.05 -0.37,0.38 -0.71,0.83 -0.83,1.32 -0,0.02 -0.01,0.04 -0.02,0.07 0.17,-0.01 0.34,0.04 0.36,0.21 0.02,0.13 -0.09,0.23 -0.22,0.3l-0 0 -0.01 0c-0.08,0.03 -0.16,0.05 -0.24,0.06 -0.12,0.01 -0.23,-0.03 -0.32,-0.1 -0.1,-0.08 -0.14,-0.19 -0.16,-0.31 -0.01,-0.07 -0.01,-0.13 -0,-0.2 0.06,-0.45 0.28,-0.87 0.57,-1.25 0.33,-0.44 0.74,-0.83 1.2,-1.18 0.47,-0.35 1,-0.64 1.57,-0.85l0 -0c0.08,-0.02 0.16,-0.05 0.23,-0.08 0.09,-0.04 0.23,-0.07 0.33,-0.08 0.2,-0.04 0.42,-0.08 0.62,-0.09 0.34,-0.02 0.67,0.03 0.99,0.14 0.37,0.12 0.6,0.36 0.75,0.68 0.04,0.11 0.07,0.22 0.09,0.33 0.04,0.3 -0.03,0.64 -0.12,0.93 -0.14,0.43 -0.39,0.85 -0.67,1.23 -0.33,0.46 -0.72,0.89 -1.16,1.28 -0.42,0.38 -0.89,0.72 -1.41,1 -0.44,0.24 -0.94,0.42 -1.46,0.48 -0.05,0 -0.1,0.01 -0.15,0.02 -0,0 -0,0 -0.01,0 -0,0.01 -0,0.01 -0.01,0.02 -0.03,0.09 -0.05,0.19 -0.06,0.29 0.01,0.08 -0,0.17 -0.07,0.23 -0.03,0.03 -0.08,0.05 -0.13,0.05 -0.06,0 -0.11,-0.02 -0.15,-0.05l-0 -0c-0.09,-0.07 -0.13,-0.17 -0.14,-0.27 -0.02,-0.12 -0,-0.25 0.02,-0.36 0,-0.02 0,-0.04 0.01,-0.04 -0.01,-0.01 -0.03,-0.03 -0.05,-0.04 -0.23,-0.19 -0.36,-0.42 -0.4,-0.69 -0.02,-0.18 0,-0.35 0.07,-0.52 0.08,-0.19 0.24,-0.31 0.46,-0.37l0.01 -0 0.01 -0c0.04,-0.01 0.08,-0.01 0.12,-0.01 0.11,-0.01 0.23,0.02 0.28,0.09zm-0.3 0.84c0.01,-0.02 0.01,-0.04 0.02,-0.05 0.05,-0.16 0.11,-0.32 0.17,-0.48 -0.01,0.01 -0.02,0.01 -0.03,0.02 -0.11,0.06 -0.17,0.14 -0.19,0.25 -0.01,0.04 -0.01,0.08 -0,0.13 0.01,0.05 0.02,0.09 0.04,0.13zm6.97 -2.68c0.07,0.08 0.1,0.18 0.11,0.28 0.04,0.3 -0.02,0.58 -0.16,0.86 -0.13,0.24 -0.3,0.47 -0.54,0.64 -0.15,0.1 -0.32,0.18 -0.51,0.19 -0.06,0 -0.11,0 -0.17,-0.01l-0 -0 -0 -0c-0.4,-0.08 -0.56,-0.36 -0.61,-0.68 -0.03,-0.23 0.01,-0.47 0.08,-0.7 0.09,-0.31 0.28,-0.59 0.51,-0.84l0 -0c0.18,-0.18 0.43,-0.38 0.71,-0.39 0.06,-0 0.15,0.01 0.22,0.01 0.24,0.01 0.31,0.32 0.34,0.48 0.01,0.04 0.02,0.13 0.04,0.17zm-34.76 2.86c0.15,-0.09 0.3,-0.18 0.43,-0.28 0.17,-0.12 0.34,-0.24 0.5,-0.37 0.03,-0.03 0.13,-0.11 0.16,-0.16 -0.02,-0.03 -0.05,-0.05 -0.1,-0.05 -0.04,0 -0.14,0.04 -0.18,0.05 -0.13,0.04 -0.32,0.21 -0.41,0.3 -0.16,0.15 -0.29,0.32 -0.4,0.51zm8.5 1.07c0.02,-0 0.03,-0.01 0.05,-0.01 0.49,-0.14 0.95,-0.37 1.36,-0.65 0.46,-0.31 0.88,-0.66 1.25,-1.04 0.35,-0.36 0.67,-0.75 0.92,-1.17 0.19,-0.32 0.36,-0.68 0.4,-1.04 0.01,-0.07 0.01,-0.14 -0,-0.21 -0.02,-0.17 -0.11,-0.31 -0.27,-0.41 -0.19,-0.1 -0.43,-0.14 -0.65,-0.16 -0.11,-0.01 -0.23,-0.01 -0.34,-0.01 -0.1,0.01 -0.2,0.02 -0.29,0.05 -0.08,0.06 -0.3,0.41 -0.35,0.49 -0.3,0.49 -0.57,0.99 -0.82,1.5 -0.36,0.72 -0.7,1.45 -1.04,2.18 -0.07,0.15 -0.13,0.29 -0.19,0.44 -0.01,0.02 -0.02,0.04 -0.03,0.06zm5.31 -2.15c0.33,-0.07 0.46,-0.49 0.52,-0.54 -0.27,-0.02 -0.45,0.47 -0.52,0.54zm10.37 -0.29c-0.03,0.01 -0.05,0.01 -0.08,0.01 -0.07,0 -0.14,-0.01 -0.2,-0.06 -0.05,-0.04 -0.09,-0.09 -0.1,-0.15 -0.01,-0.08 0.03,-0.17 0.07,-0.24l0 -0c0.08,-0.1 0.14,-0.21 0.18,-0.33 0.01,-0.02 0.01,-0.04 0.02,-0.05 -0.21,0.23 -0.36,0.5 -0.44,0.79 -0.03,0.12 -0.07,0.26 -0.05,0.39 0,0.03 0.02,0.13 0.07,0.13 0.12,-0.01 0.28,-0.18 0.34,-0.25 0.03,-0.03 0.11,-0.13 0.18,-0.22zm4.23 1.35c0.02,-0 0.03,-0.01 0.05,-0.01 0.49,-0.14 0.95,-0.37 1.36,-0.65 0.46,-0.31 0.88,-0.66 1.25,-1.04 0.35,-0.36 0.67,-0.75 0.92,-1.17 0.19,-0.32 0.36,-0.68 0.4,-1.04 0.01,-0.07 0.01,-0.14 -0,-0.21 -0.02,-0.17 -0.11,-0.31 -0.27,-0.41 -0.19,-0.1 -0.43,-0.14 -0.65,-0.16 -0.11,-0.01 -0.23,-0.01 -0.34,-0.01 -0.1,0.01 -0.2,0.02 -0.29,0.05 -0.08,0.06 -0.3,0.41 -0.35,0.49 -0.3,0.49 -0.57,0.99 -0.82,1.5 -0.36,0.72 -0.7,1.45 -1.04,2.18 -0.07,0.15 -0.13,0.29 -0.19,0.44 -0.01,0.02 -0.02,0.04 -0.03,0.06zm5.74 -1.9c-0.03,0.01 -0.05,0.01 -0.08,0.01 -0.07,0 -0.14,-0.01 -0.2,-0.06 -0.05,-0.04 -0.09,-0.09 -0.1,-0.15 -0.01,-0.08 0.03,-0.17 0.07,-0.24l0 -0c0.08,-0.1 0.14,-0.21 0.18,-0.33 0.01,-0.02 0.01,-0.04 0.02,-0.05 -0.21,0.23 -0.36,0.5 -0.44,0.79 -0.03,0.12 -0.07,0.26 -0.05,0.39 0,0.03 0.02,0.13 0.07,0.13 0.12,-0.01 0.28,-0.18 0.34,-0.25 0.03,-0.03 0.11,-0.13 0.18,-0.22z"/>
  </g>
 </g>
</svg>
