<?xml version="1.0" encoding="UTF-8"?>
<!DOCTYPE svg PUBLIC "-//W3C//DTD SVG 1.1//EN" "http://www.w3.org/Graphics/SVG/1.1/DTD/svg11.dtd">
<!-- Creator: CorelDRAW -->
<svg xmlns="http://www.w3.org/2000/svg" xml:space="preserve" width="64.7604mm" height="32.337mm" version="1.1" style="shape-rendering:geometricPrecision; text-rendering:geometricPrecision; image-rendering:optimizeQuality; fill-rule:evenodd; clip-rule:evenodd"
viewBox="0 0 158.33 79.06"
 xmlns:xlink="http://www.w3.org/1999/xlink"
 xmlns:xodm="http://www.corel.com/coreldraw/odm/2003">
 <defs>
  <style type="text/css">
   <![CDATA[
    .fil0 {fill:#0F0D0C}
    .fil3 {fill:#BA1A6A}
    .fil1 {fill:#F0188D}
    .fil2 {fill:#F9F9F9}
   ]]>
  </style>
 </defs>
 <g id="Camada_x0020_1">
  <metadata id="CorelCorpID_0Corel-Layer"/>
  <g id="_2015364257888">
   <path class="fil0" d="M77.74 74.6c-0.35,2.8 -0.5,2.5 -5.65,2.38 -1.48,-0.03 -1.36,0.22 -1.49,-1.14 -1.18,0.43 -1.96,1.67 -4.48,1.38 -2.48,-0.28 -2.42,-0.96 -3.25,-2.86 -1.25,0.57 -1.7,1.22 -2.81,1.86 -2.13,1.24 -5.73,1.37 -7.92,0.42 -1.16,-0.5 -2.35,-1.86 -2.78,-2.09 -1.86,0.86 -3.45,3.6 -9.12,2.48 -3.4,-0.67 -4.26,-1.98 -4.09,-4.97 0.22,-3.79 0.9,-2.9 6.12,-2.67l-0.19 3.75 1.68 0.03c0.19,-0.8 0.88,-2.1 0.6,-3.05 -0.23,-0.78 -1.27,-1.35 -1.95,-1.81 -1.55,-1.04 -3.41,-1.85 -4.14,-3.57 -0.23,-0.94 0.63,-0.5 2.79,-1.25 2.63,-0.92 1.5,0.5 3.08,0.46 2.24,-0.05 -0.8,-1.93 5.78,1.91 0.57,-0.93 0.64,-2.28 0.76,-3.54 -1.57,-0.06 -3.11,0.13 -4.6,-0.22 -0.1,-1.29 1.45,-1.76 2.8,-2.55 1.22,-0.72 2.06,-1.76 3.87,-1.54 1.95,-3.26 7.7,-3.76 10.6,-2.35 1.16,0.56 1.52,1.56 2.45,2.35 0.6,-0.74 -0.26,-0.52 0.81,-2.61 2.31,-0.16 3.74,-0.28 6.07,0.08 -0.24,3.39 -1.95,11.34 -2.77,15.34 -0.15,0.72 -0.61,1.81 0.04,2.32 0.73,0.57 1.25,-0.21 1.49,-0.84 0.03,-0.21 0.49,-2.15 0.69,-2.42 -0.09,-0.72 1.07,-6.17 1.3,-7.32 0.48,-2.43 0.95,-4.83 1.59,-7.1l1.22 -0.26c0.48,-0.06 0.99,-0.1 1.35,0.16 0.63,-0.02 1,0.33 1.62,0.48 0.75,0.18 1.31,0.16 2.1,0.17l-3.58 18.56zm-48.28 -74.6l8.01 0.12c1.59,0.1 1.05,-0.27 1.55,2.72 0.11,0.68 0.01,1.39 0.44,1.7 0.32,-1.36 0.95,-3.03 1.07,-4.41l12.17 0c-0.05,2.24 -0.94,4.24 -0.94,6.55 0.76,0 0.92,0.13 1.74,0.13l29.15 -0.13c0.83,-0 1.12,-0.13 2,-0.14 4.43,-0.04 7.41,-1.63 10.83,3.47 0.77,-0.21 1.67,-0.94 2.35,-1.39 3.81,-2.53 10.32,-3.27 14.54,-1.2 1.8,0.88 3.1,2.77 3.83,3.26 1.17,-1.02 3.48,-2.52 4.86,-3.17 4.16,-1.95 13.25,-1.94 16.39,2.25 0.95,1.26 1.32,3.03 1.13,4.97 -0.55,5.45 -1.58,10.66 -2.64,15.96 -0.34,1.68 -1.38,7.69 -1.77,9.06 -0.13,0.47 -0.27,0.65 -0.32,1.16 -2.21,0 -5.68,-0.21 -7.74,0.02 -1.89,0.21 -5.19,0.52 -6.57,1.18 0.06,2.88 1.3,1.65 -2.3,6.93 -0.52,0.76 -1.07,1.44 -1.58,2.17l-1.47 2.27c1.22,0 1.95,0.13 3.21,0.14l7.62 -0.4c0.5,-0.03 1.09,0 1.61,0 0,-5.4 1.4,-4.14 5.79,-4.51 0.5,-0.04 0.64,0.1 1.3,0.1l4.28 0c0,1.58 -0.53,2.42 -0.53,4.41l2.01 0c1.72,0 3.34,1.47 4.01,1.47 0.34,0 2.48,-0.9 2.96,-1.06 5.3,-1.71 11.89,0.79 11.89,5.6 0,2.72 -0.49,5.19 -1.01,7.81 -0.77,3.86 -1.57,7.77 -4.87,10.11 -2.87,2.04 -7.7,1.98 -11.14,1.51 -1.4,-0.19 -4.05,-0.04 -5.58,-0.04l-8.29 -0.14c-0.98,-0 -1.57,0.14 -2.67,0.14l-14.04 0c-3.42,-0 -9.04,0.9 -12.19,-0.25 -0.53,-0.19 -1.59,-0.82 -2.12,-0.82 -2.68,0 -2.95,2.32 -9.55,1.13 -5.27,-0.95 -2.93,-0.17 -7.69,-0.19 -1.52,-0.01 -3.03,0 -4.55,-0 -2.94,-0.01 -5.78,0.4 -8.69,0.4 -1.21,0 -1.88,-0.38 -2.67,-0.8 -1.86,-0.98 -2.37,-0.02 -4.79,0.57 -5.41,1.32 -7.89,-1.31 -9.41,-1.28 -0.94,0.02 -2.49,1.92 -8.15,1.66 -2.44,-0.23 -4.72,-1.19 -5.9,-3.18 -0.2,-0.34 -0.24,-0.69 -0.64,-0.69 -3.02,0 -5.41,2.82 -8.67,3.36 -3.86,0.64 -10.34,0.25 -14.86,0.25 -5.95,0 -11.24,1.62 -10.83,-6.84 0.11,-1.14 0.39,-2.24 0.76,-3.1 1.34,-3.07 0.16,-11.62 4.69,-14.43 2.06,-1.28 3.26,-1.17 6.45,-1.17 0.1,-0.44 0.25,-0.58 0.39,-0.95 0.39,-1.08 0.45,-2.33 0.68,-3.33 1.91,0 3.34,-0.13 5.21,-0.13 1.78,0 3.57,0 5.35,0 -0.26,1.1 -0.41,4 -0.8,4.81 0.98,0 2.81,-0.4 4.68,-0.4 5.05,0 4.99,1.95 7.16,3 1.07,0.52 2.7,0.44 3.59,-0.26 4.77,-3.74 4.37,-0.45 5.92,-7.72 0.28,-1.29 0.57,-2.49 0.82,-3.72 0.31,-1.5 1.29,-3.39 0.55,-4.8 -0.72,0.38 -0.42,0.49 -0.8,1.2 -2.2,0 -4.09,0.13 -6.15,0.13 -1.89,0.01 -4.06,-0.27 -5.88,-0.27 0,-1.18 -0.4,-2.13 -0.4,-3.34 -0.55,1.22 -0.56,2.41 -1.07,3.48l-12.03 0c0.09,-0.2 0.38,-2.4 0.46,-2.88 1.58,-9.42 3.89,-20.14 5.79,-29.64 0.19,-0.97 1.19,-7.38 1.73,-7.9 0.28,-0.27 1.17,-0.42 2.34,-0.49zm8.54 62.05c-0.03,-2.09 0.76,-3.66 1.74,-4.81 1.03,-1.21 2.53,-1.88 4.76,-2.06 -0.17,1.05 -0.37,1.8 -0.57,2.77 -0.27,1.28 -0.1,1.63 -1.11,2.23 -0.82,0.49 -3.72,1.7 -4.82,1.86zm-18.08 -4.28c0.74,-0.38 1.56,-2.25 5.32,-2.66 2.3,-0.53 5.09,0.09 6.54,1.25 1.8,1.44 1.85,3.43 1.36,6.32 -0.38,2.28 -0.9,4.55 -1.38,6.77 -0.44,2.04 -1.31,4.99 -2.78,5.49 -0.33,0.69 -1.64,1.37 -2.47,1.69 -2.18,0.85 -7.14,0.13 -8.78,-0.86 -0.54,-0.33 -0.44,-0.61 -1.13,-0.99 -0.53,2.56 -0.25,2.24 -3.87,2.22 -3.62,-0.03 -2.94,0.23 -3.31,-1.17 -1.64,0.58 -4.63,2.68 -6.76,0.58 -1.69,-1.66 -0.77,-5.06 -0.24,-7.42 0.56,-2.51 0.93,-5.12 1.47,-7.62 0.56,-2.59 1.11,-5.13 3.5,-5.8 2.83,-1.41 4.13,-0.22 6,0.72 0.82,-2.26 0.66,-3.01 1.28,-5.5 2.48,-0.41 4.01,-0.16 6.51,-0.11l-1.25 7.08zm135.65 -0.2c2.23,1.85 -1.29,14.08 -2.28,15.89 -1.93,3.52 -6.52,4.43 -10.64,3.49 -1.73,-0.4 -2.02,-1.08 -3.05,-1.95 -0.56,1.82 -0.28,1.96 -2.58,2.11 -1.47,0.09 -2.96,-0.12 -4.41,-0.18 0.23,-4.98 3.34,-14.31 2.93,-17.89 -1.79,-0.24 -0.92,0.36 -1.86,0.99 0.17,1.59 -0.97,5.94 -1.33,7.61l-1.84 9.12c-2.33,0.29 -11.15,0.66 -12.68,-0.22 0.02,-0.71 0.12,-0.79 0.54,-1.11 -0.16,-3.43 3.54,-14.33 2.63,-16.45 -1.66,-0.73 -1.79,1.84 -2.05,3l-2.67 13.46c-0.33,2.09 -0.48,1.57 -4.88,1.6 -2.52,0.02 -1.88,-0.96 -1.52,-2.76 -2.28,1.61 -2.69,2.64 -6.53,2.96 -3.79,0.32 -5.37,-0.72 -6.96,-2.57 -1.15,0.86 -1.91,1.69 -3.74,2.19 -2.7,0.74 -8.09,0.6 -9.11,-2.18 -0.48,-1.31 -0.33,-4.39 0.45,-5.29 0.32,-0.22 4.46,-0.51 5.25,0.14l0.29 0.1c-0.12,1.43 -0.38,1.88 -0.33,3.53l1.57 0.11c0.9,-3.51 1.67,-3.14 -2.66,-5.85 -1.91,-1.2 -2.93,-2 -3.17,-4.17 -0.2,-1.83 0.33,-1.93 0.39,-2.16 -0.11,-2.16 0.88,-3.05 1.87,-4.1 0.73,-0.78 2.73,-2.16 4.37,-1.71 0.91,0.26 0.74,1.01 2.16,0.76 0.91,-0.17 1.36,-0.72 2.42,-0.67 1.88,0.09 2.46,1.64 3.32,2.79 0.86,-0.37 2.04,-1.39 2.98,-1.97 2.38,-1.47 5.24,-1.79 7.83,-0.62 1.73,0.78 2,1.75 2.73,2.37 0.02,-0.03 0.05,-0.11 0.05,-0.09l0.61 -2.36c0.18,-0.34 0.51,-0.17 0.51,-0.17 1.2,0.07 5.15,-0.13 5.89,0.18l0.01 1.32c0.95,-0.44 2.07,-1.53 3.53,-1.81 2.18,-0.42 2.89,0.55 4.1,1.3l0.29 -0.55 1.1 -4.93c0.09,-0.35 -0.13,-0.19 0.6,-0.23l5.92 0.07 -0.97 5.41c1.28,-0.31 6.64,-3.41 7.9,1.96 1.29,-0.64 1.82,-2.63 6.37,-3.02 2.14,-0.19 5.91,0.25 6.65,2.54zm-62.28 -20.78c-0.24,0.99 -0.77,2.81 -1.94,2.65 -1.33,-0.18 -0.23,-2.64 -0.03,-3.22 0.77,0.05 1.53,0.21 1.97,0.56zm5.93 4.27c0.4,-0.82 2.05,-0.44 2.86,-0.89 1.22,-0.67 1.42,-6.64 4.85,-6.28 1.32,1.86 -0.58,3.99 -1.62,5.78 1.39,0.21 13.21,-1.92 16.35,-2.4 3.83,-0.58 2.12,1.43 1.03,1.71 -2.74,0.69 -17.83,1.67 -18.33,2.22 -1.27,1.4 -3.94,12.01 -3.92,14.16 3.01,-1.39 6.12,-10.24 9.16,-12.75 1.53,-1.26 4.18,-2.45 4.46,-0.08 -0.73,0.69 -1.92,1.04 -2.85,1.55 -1.74,0.97 -5.23,5.76 -4.84,8.02 1.83,-0.44 3.2,-3.52 3.82,-5.43 0.22,-0.69 0.21,-1.32 0.98,-1.42 2.68,-0.36 0.78,3.69 0.62,4.68 1.73,-0.7 3.17,-6.09 5.2,-6.22 -0.32,1.81 -2.89,5.4 -4.06,6.76 -0.54,0.62 -1.03,1.52 -2.14,1.37 -0.46,-0.57 -0.41,-1.07 -0.65,-1.89 -0.6,0.75 -1.61,2.05 -2.27,2.56 -2.12,1.63 -2.27,-0.34 -3.05,-0.73 -1.09,1.95 -2.43,4.78 -5.23,4.84 -1.15,-3.34 -0.16,-3.8 -0.08,-7.13 -2.37,0.4 -1.79,1.95 -2.89,3.67 -0.77,1.2 -2.31,2.61 -4.02,2.19 -0.47,-2.69 1.59,-2.93 3.28,-5.04 -0.32,-0.96 -1.46,-3.26 -2.38,-3.5 -0.32,0.21 -5.35,7.34 -7.68,6.64 -1.22,-0.37 -0.68,-2.65 -0.54,-3.74 -0.87,0.49 -0.64,1.28 -1.13,2.09 -0.65,1.07 -2.06,2.74 -3.14,3.41 -0.78,0.49 -1.92,0.46 -2.07,-0.51 -0.2,-1.26 2.21,-3 2.82,-3.7 1.14,-1.31 -0.83,-3.56 -1.36,-4.42 -0.76,0.37 -1.06,1.12 -1.55,1.78 -1.28,1.69 -2.98,3.87 -4.68,5.07 -1.37,0.97 -3.77,1.56 -4.06,-0.72 -0.41,-3.14 1.03,-7.93 2.81,-9.89 1.3,-1.43 3.09,-2.31 3.93,-0.33 0.77,1.81 -0.23,3.88 -0.93,5.2 -0.84,1.59 -1.8,2.24 -4.19,2.17l-0.16 3.25c2.71,-0.51 5.24,-3.74 6.7,-5.87 0.56,-0.81 1.12,-1.58 1.62,-2.52 0.49,-0.92 0.94,-2.04 1.7,-2.59 1.15,-0.82 2.41,0.04 1.92,1.24 -0.34,0.82 -2.46,1.01 -0.2,5.65 0.17,0.31 0.07,0.13 0.18,0.27 1.03,-0.22 2.3,-2.38 3.35,-3.66 1.6,-1.95 2.4,-2.96 4.07,-2.28 -0.09,1.04 -1.66,2.8 -2.12,3.84 -0.56,1.27 -1.01,2.99 -1.49,4.28 1.17,-0.14 3.92,-3.75 4.72,-4.79 1.23,-1.59 2.08,-5.38 4.77,-4.67 0.83,1.16 -0.65,2.02 -0.83,3.52 -0.18,1.57 0.54,2.84 1.01,3.87 0.79,-0.32 1.05,-0.96 1.57,-1.68 1.34,-1.81 3.3,-3.36 3.41,-6.24 -1.09,0.01 -2.2,0.33 -2.69,-0.4zm-55.51 -4.95c-0.18,1.1 -0.45,2.11 -0.76,3.09l-8.4 -0.18c-0.22,-1.93 -0.56,-3.29 -0.6,-5.43l6.01 -1.1c1.4,-0.28 3,-0.6 4.54,-0.51l-0.79 4.15zm6.25 -4.89c-0.38,2.76 -1.04,5.34 -1.81,7.84 -1.21,-0.19 -2.23,-1.57 -2.47,-2.87 -0.23,-1.26 -0,-3.7 0.55,-4.68l3.73 -0.28zm-15.98 1.4c0.79,-1.45 3.36,-1.49 5.25,-1.81 2,-0.34 3.97,-0.77 6.03,-1.05 1.35,-0.18 5.43,-0.3 6,-1.09 0.59,-0.81 0.74,-4.21 1.69,-5.36 2.81,-0.07 1.76,3.39 1.36,5.17 6.17,0.35 14.67,-1.31 18.57,2.54 6.04,5.96 -12.97,20.14 -17.01,23.13 -4.09,3.03 -6.08,3.94 -9.74,6.3 -2.11,1.36 -0.55,2.7 -2.27,2.92 -0.33,-0.39 -0.32,-0.88 -0.58,-1.4 -1.34,0.65 -3.5,1.69 -5.4,1.52 0.33,-1.15 1.83,-1.31 3.64,-2.04 2.04,-0.83 2.38,-0.52 2.91,-2.84 0.7,-3.04 6.33,-26.37 6.34,-28.07 -1.36,0.21 -2.89,0.26 -4.27,0.45 -3.1,0.42 -10.33,1.86 -12.52,1.64zm69.8 -17.3c0.03,3.93 -4.54,17.64 -2.48,18.7 1.74,0.55 2.34,-1.43 2.65,-2.8 0.19,-0.81 0.27,-1.59 0.44,-2.37 0.16,-0.78 0.4,-1.48 0.57,-2.25l8.04 0c0.06,3.95 -2.73,10.02 -5.45,10.79 0.25,-1.09 0.88,-2.43 0.16,-3.5 -0.69,-1.03 -2.02,-0.86 -2.88,-0.06 -1.92,1.77 -2.01,4.5 -3.06,5.49 -0.99,1.41 -7.4,-0.51 -7.85,-1.15 -0.12,-0.53 -0.07,-1.45 -0.45,-1.93 -0.77,-0.94 -2.38,0.33 -1.92,-4.82 0.24,-2.7 0.82,-5.39 1.33,-7.94 0.88,-4.43 2.05,-11.88 5.63,-12.97 2.46,-2.3 7.91,-3.15 11.95,-1.83 6.62,2.16 3.76,8.38 4.39,10.55l0.61 -1.17c-0.17,-1.28 0.95,-3.8 1.47,-4.77 2.83,-5.32 13.13,-6.97 17.84,-3.37 3.97,3.04 0.17,12.08 0.16,15.35 -0.01,1.43 -0.05,2.63 -0.3,3.85 -0.18,0.87 -0.42,2.66 -1.03,3.11l-1.21 5.61c-0.11,1.49 0.34,1.26 -3.48,1.35 -1.51,0.04 -3.15,-0.01 -4.66,-0.05 0.05,-0.97 0.75,-1.45 0.12,-2.38 -1.49,-0.74 -9.09,1.03 -11.46,1.17 -0.71,-1.31 -0.61,-1.5 -0.74,-3.18 0.13,-2.07 0.57,-4.18 1.05,-6.06 0.55,-2.18 1.24,-3.28 2.71,-4.25 0.97,-0.64 8.89,-4.06 9.93,-4.09 0.8,-1.28 2.45,-6.11 0.84,-6.67 -1.03,-0.36 -1.44,0.44 -1.94,0.76 -0.01,0.28 -1.03,5.41 -1.04,5.42 -0.3,0.61 -0.83,0.69 -1.76,0.7 -2.7,0.04 -15.64,-0.27 -16.16,-0.53 -0.3,-1.18 0.78,-3.46 0.77,-5.07 -0,-0.89 -0.5,-1.79 -1.46,-1.34 -0.59,0.27 -0.94,1.1 -1.32,1.68zm-14.1 19.72l-0.71 4.16 -9.33 -0.01c0.04,-4 5.53,-23.58 4.2,-25.43 -2.42,-0.88 -2.04,2.45 -2.93,3.25 -0.21,3.16 -3.5,19.26 -4.19,21.88l-3.6 0.17 1.65 -4.41c0.04,-4.6 -2.6,-4.54 -5.22,-6.42 -0.04,-0.56 3.41,-18.93 4.13,-19.39 1.61,-0.54 7.07,-0.27 9.03,-0.07 0.12,0.71 -0.31,1.33 -0.3,2.02 2.13,-1.45 4.51,-3.52 8.23,-2.47 3.49,0.98 3.37,4.08 2.73,7.91 -0.77,4.59 -1.84,9.48 -2.7,14.28 -0.29,1.6 -0.69,3.05 -0.99,4.54zm-18.6 -22.92c0.16,1.31 -2.44,14.82 -2.89,15.43l-0.13 0.53c-1.34,-0.04 -2.94,-0.29 -4.4,-0.37 -1.4,-0.07 -3.42,0.23 -4.58,-0.28 -0.3,-1.08 0.44,-2.15 0.59,-3.2 0.47,-3.39 1.73,-10.31 2.54,-13.5 0.43,-1.68 0.08,-1.98 1.86,-2.15 1.55,-0.15 6.4,-0.23 7.81,0.05 0.06,0.82 -0.24,3.12 -0.8,3.49zm-15.45 12.33c-0.3,-0.97 -2.04,-2.15 -3.07,-1.69 -0.97,0.86 -1.13,2.97 -1.5,4.48 -0.27,1.12 -0.48,1.09 -1.66,1.3 -3.12,0.57 -2.7,-0.06 -2.69,-0.54l1.85 -9.4c0.32,-1.52 1.28,-8.55 2.22,-9.68 0.63,-0.7 7.64,-0.31 8.98,-0.22 -0.4,3.9 -2.37,12.79 -3.24,17.31 -0.16,0.85 -0.17,1.6 -1,1.79 -0.29,-1.26 0.13,-2.06 0.12,-3.37zm-10.42 3.45l-0.03 0.89c-1.43,0.87 -3.72,1.01 -5.67,1.36 -1.25,0.23 -4.74,1.26 -5.72,1.01 -0.83,-1.37 -0.4,-5.76 -0.97,-7.73l-0.45 0.14c0.08,1.81 -0.82,5.23 -1.2,7.05 -0.59,2.83 -0.96,5.73 -1.76,8.55l-7.95 -0.04c-0.07,-0.69 0.07,-0.54 0.21,-1.16l1.46 -8.28 3.69 -18.64c0.64,-3.06 1.2,-6.15 1.98,-9.13 1.11,-0.2 5.67,-0.29 7.04,-0.05 0.42,0.07 0.45,0.1 0.65,0.34 0.59,0.12 0.54,0.94 0.62,1.62 0.47,3.92 1.39,10.53 1.57,13.78l0.39 -0.03c0.35,-1.02 1.86,-9.44 2.22,-11.3 0.74,-3.78 0.43,-4.3 2.2,-4.5 1.7,-0.19 4.78,-0.05 6.59,0.08l0.11 0.37 -4.98 25.69z"/>
   <path class="fil1" d="M29.86 37.61c0.42,-2.4 0.83,-4.64 1.32,-6.98 0.38,-1.82 1.28,-5.24 1.2,-7.05l0.07 -1.37c-0.72,-0.45 -1.67,-0.93 -2.4,-1.17 0.19,-1.23 1.02,-1.81 2.32,-1.94 2.9,-0.29 3.99,1.62 4.13,4.18 0.1,1.84 0.36,3.05 0.41,3.89 3.93,0.03 3.64,-1.43 6.52,0.43 0.76,0.49 0.94,0.84 1.78,0.3l4.98 -25.69 -7.57 0.01c0.45,1.26 2.22,2.03 2.28,3.4 0.05,1.28 -2.51,11.43 -2.87,13.94 -1.68,0.25 -2.91,-0.81 -3.35,-1.96 -0.17,-3.12 -0.95,-8.32 -1.35,-11.85 -0.07,-0.65 -0.14,-1.27 -0.22,-1.93 -0.08,-0.67 -0.03,-1.49 -0.62,-1.62 -1.4,-0.23 -5.01,0.11 -6.59,0.15 0.07,2.17 1.43,1.77 1.47,3.54 0.06,2.38 -5.6,25.69 -5.76,29.75l1.3 0.43c0.55,0.3 1.23,1.4 1.88,1.74 0.57,0.3 0.63,0.11 1.05,-0.2z"/>
   <path class="fil1" d="M123.91 33.52c-0.66,1.04 -1.2,0.53 -2.49,0.71 -0.64,-0.27 -0.72,-0.02 -1.09,-0.38 -0.1,-0.09 -0.33,-0.54 -0.48,-0.71 -1.08,-1.22 -2.03,0.38 -1.76,-1.61 0.3,-2.25 0.31,-4.12 2.09,-5.77 0.89,-0.82 4.44,-2.93 5.85,-3.19 1.18,-0.22 2.91,-0.11 2.93,1.36 0.03,2.03 -0.52,5.49 -2.33,6.66 -1.79,1.15 -0.81,1.4 -0.19,2.84 -0.67,0.36 -1.81,0.25 -2.54,0.09zm-8.44 -15.46l-0.14 1.22c2.57,-0.5 1.91,-1.92 4.49,-1.93 2.07,-0.01 1.74,1.22 3.91,2.52 0,-0 1.03,-5.14 1.04,-5.42 -0.42,-1.58 -1.05,-1.12 -1.36,-1.87 -0.73,-1.72 4.02,-2.55 6.58,-0.82 2.43,1.65 0.41,8.1 -0.74,9.41 -1.82,-0.73 -1.98,-1.37 -3.38,-0.82 -1.04,0.02 -8.96,3.44 -9.93,4.09 -1.47,0.97 -2.15,2.07 -2.71,4.25 -0.48,1.89 -0.92,4 -1.05,6.06 0.5,0.29 0.76,0.82 1.1,1.17 1.77,-0.18 0.82,-1.13 0.83,-2.47 1.17,0.14 1.5,0.47 2.39,0.62 0.93,0.16 1.65,0.14 2.62,0.45 1.98,0.63 2.5,1.19 4.88,0.51 3.33,-0.96 2.35,-0.62 4.4,0.65 0.96,0.59 2.67,1.26 3.54,2.63 0.25,-0.45 0.02,-0.23 0.47,-0.48 0.23,-0.9 0.37,-1.83 0.54,-2.79 0.19,-1.03 0.47,-1.95 0.67,-2.82l1.34 -6.95c0.01,-3.27 3.81,-12.31 -0.16,-15.35 -4.71,-3.6 -15,-1.95 -17.84,3.37 -0.52,0.97 -1.64,3.5 -1.47,4.77z"/>
   <path class="fil1" d="M73.71 8.83c-0.12,1.69 2.68,1.06 2.34,4.41 -0.1,0.93 -0.91,4.84 -1.21,5.41 -0.85,0.02 -0.83,0.04 -1.47,0.27 -0.46,1.41 -0.09,2.36 0.08,3.9 0.16,1.4 0.2,2.71 0.36,4.08 1.53,0.37 2.29,1.81 2.54,3.36 0.32,1.99 -0.02,3.06 -1.46,4.3 -0.02,-0.03 -0.06,0.05 -0.09,0.07l-1.65 4.41 3.6 -0.17c0.69,-2.61 3.98,-18.72 4.19,-21.88 0.22,-2.61 -0.19,-2.65 -0.23,-4.1 3.62,-0.39 7.57,-4.36 6.84,3.26 -0.13,1.4 -1.24,6.23 -1.65,8.23 -0.14,0.67 -0.35,2.12 -0.55,2.67 -0.23,-0.04 -2.39,-1.58 -2.84,1.16 -0.33,2.03 0.64,2.24 1.96,2.93 0.15,1.79 -0.39,2.72 -0.34,4.56 1.29,0.18 1.75,0.06 2.51,0.83 0.88,0.91 0.62,1.12 2.1,1.48 0.24,-0.97 0.47,-2.42 0.97,-2.99l3.69 -18.82c0.65,-3.83 0.76,-6.92 -2.73,-7.91 -3.71,-1.05 -6.09,1.02 -8.23,2.47 -0,-0.69 0.42,-1.31 0.3,-2.02 -1.96,-0.2 -7.42,-0.47 -9.03,0.07z"/>
   <path class="fil2" d="M72.23 48.69c0.29,-1.58 1.36,-4.27 2.78,-4.4 0.08,2.15 -0.3,4.3 -2.78,4.4zm27 -7.63c0.49,0.73 1.6,0.41 2.69,0.4 -0.11,2.87 -2.07,4.43 -3.41,6.24 -0.53,0.71 -0.78,1.36 -1.57,1.68 -0.47,-1.02 -1.19,-2.3 -1.01,-3.87 0.18,-1.5 1.66,-2.36 0.83,-3.52 -2.69,-0.71 -3.54,3.08 -4.77,4.67 -0.8,1.04 -3.56,4.65 -4.72,4.79 0.48,-1.29 0.93,-3.01 1.49,-4.28 0.46,-1.04 2.02,-2.79 2.12,-3.84 -1.67,-0.67 -2.47,0.33 -4.07,2.28 -1.05,1.28 -2.32,3.44 -3.35,3.66l-0.66 -1.4c-1.42,-3.6 0.35,-3.7 0.69,-4.52 0.5,-1.2 -0.77,-2.06 -1.92,-1.24 -0.76,0.54 -1.21,1.66 -1.7,2.59 -0.69,1.3 -2.48,3.81 -3.44,4.86 -1.2,1.31 -2.54,3.09 -4.88,3.54l0.16 -3.25c2.39,0.07 3.35,-0.59 4.19,-2.17 0.69,-1.31 1.69,-3.39 0.93,-5.2 -0.84,-1.98 -2.63,-1.1 -3.93,0.33 -1.78,1.96 -3.22,6.74 -2.81,9.89 0.3,2.29 2.69,1.69 4.06,0.72 1.7,-1.2 3.41,-3.38 4.68,-5.07 0.5,-0.66 0.79,-1.41 1.55,-1.78 0.53,0.85 2.5,3.1 1.36,4.42 -0.61,0.7 -3.02,2.44 -2.82,3.7 0.15,0.96 1.29,0.99 2.07,0.51 1.08,-0.68 2.49,-2.34 3.14,-3.41 0.49,-0.81 0.26,-1.6 1.13,-2.09 -0.14,1.1 -0.68,3.38 0.54,3.74 2.33,0.7 7.35,-6.43 7.68,-6.64 0.92,0.24 2.06,2.54 2.38,3.5 -1.69,2.12 -3.75,2.36 -3.28,5.04 1.71,0.42 3.25,-0.99 4.02,-2.19 1.1,-1.71 0.52,-3.26 2.89,-3.67 -0.08,3.33 -1.07,3.8 0.08,7.13 2.81,-0.06 4.14,-2.88 5.23,-4.84 0.78,0.39 0.93,2.36 3.05,0.73 0.66,-0.5 1.66,-1.81 2.27,-2.56 0.23,0.82 0.19,1.32 0.65,1.89 1.11,0.16 1.61,-0.74 2.14,-1.37 1.17,-1.36 3.74,-4.95 4.06,-6.76 -2.03,0.13 -3.47,5.52 -5.2,6.22 0.16,-0.99 2.06,-5.05 -0.62,-4.68 -0.77,0.1 -0.75,0.73 -0.98,1.42 -0.62,1.92 -1.99,5 -3.82,5.43 -0.38,-2.26 3.1,-7.05 4.84,-8.02 0.93,-0.52 2.12,-0.86 2.85,-1.55 -0.29,-2.38 -2.94,-1.19 -4.46,0.08 -3.04,2.52 -6.15,11.37 -9.16,12.75 -0.01,-2.15 2.65,-12.76 3.92,-14.16 0.5,-0.55 15.59,-1.53 18.33,-2.22 1.1,-0.28 2.8,-2.29 -1.03,-1.71 -3.15,0.48 -14.96,2.62 -16.35,2.4 1.04,-1.8 2.93,-3.92 1.62,-5.78 -3.43,-0.36 -3.63,5.61 -4.85,6.28 -0.81,0.44 -2.45,0.06 -2.86,0.89z"/>
   <path class="fil3" d="M75.02 55.49c0.22,0.46 -0.46,3.04 -0.57,3.6l-2.32 10.82c-0.67,1.44 -0.69,3.48 -1.1,3.94 -0.71,0.8 -4.02,1.57 -4.58,-0.37 -0.28,-0.96 -0.08,-3.31 0.07,-4.32 0.28,-1.93 0.05,-2.61 1.06,-3.25 0.09,-1.75 -0.59,-0.04 -0.03,-2.8 0.31,-1.54 1.59,-6.8 1.56,-7.57l-2.5 -0.12c-1.07,2.1 -0.21,1.87 -0.81,2.61 0.35,0.56 -0.1,1.39 -0.31,2.66 -0.12,0.73 -0.29,1.9 -0.49,2.56 -0.5,0.19 -1.68,-0.3 -2.6,0.06 -0.36,0.14 -0.56,0.35 -0.93,0.54 -2.53,1.37 -3.53,0.45 -5.87,0.83 0.04,1.16 0.45,2.32 0.4,3.26 0.21,-0.36 0.21,-0.7 0.74,-1.43l7.34 -0.03 -0.15 1.1c0.51,-0.28 0.25,-0.3 0.52,-0.72l-0.48 3.92c-4.25,-0.12 -2.9,-0.57 -5.02,-2.53 1.36,0.01 3.47,0.14 4.63,-0.45 -1.41,0.03 -4.71,-0.42 -5.15,0.78 -0.37,1 -0.12,2.41 -1.24,4.67 0.71,-0.1 1.25,-0.41 1.93,-0.09 0.41,0.28 -0.08,1.7 -2.29,1.98 -3.94,0.5 -4.06,-2.14 -5.1,-3.68 -0.6,-0.89 -2.24,-0.58 -3.51,-0.91 -0.35,-0.86 -0.71,-2.24 -1.18,-2.82 -1.06,-1.31 -7.03,-2.58 -8.77,-2.96 1.11,2.61 5.61,3.71 6.09,5.38 0.27,0.94 -0.41,2.25 -0.6,3.05 0.8,-0.07 1.63,-0.24 2.28,0.21 0.19,1.18 -2.72,2.26 -4.25,1.8l-4.2 -1.92c-0.08,-1.32 0.53,-1.61 0.44,-2.54 -0.67,-0.78 -0.56,-0.32 -1.24,-0.8l-0.06 -0.4c-0.5,0.45 -0.54,1.9 -0.58,2.53 -0.17,2.99 0.69,4.3 4.09,4.97 5.66,1.12 7.26,-1.62 9.12,-2.48 0.43,0.22 1.62,1.58 2.78,2.09 2.19,0.95 5.79,0.82 7.92,-0.42 1.11,-0.65 1.56,-1.29 2.81,-1.86 0.83,1.9 0.77,2.58 3.25,2.86 2.52,0.29 3.3,-0.95 4.48,-1.38 0.13,1.36 0.01,1.1 1.49,1.14 5.15,0.12 5.3,0.42 5.65,-2.38 -0.4,0.3 -0.52,0.63 -0.56,1.18 -1.32,-0.67 -1.73,-1.34 -2.09,-1.5 -0.38,-0.17 -0.49,-0.02 -0.9,-0.27 -0.32,-1.93 0.92,-7.4 1.36,-9.58 0.27,-1.3 1.63,-8.43 2.03,-9.04 -0.59,-0.43 -1.86,-0.09 -2.57,0.1z"/>
   <path class="fil1" d="M98.52 10.51c-0.95,1.93 -1.16,1.39 -0.55,3.68 0.46,1.74 -1.75,10.52 -2.17,12.49 -0.29,1.37 -0.53,2.71 -0.72,4.23 -0.23,1.91 0.59,2.56 1.41,3.64 1.88,2.48 0.39,1.08 2.82,2.16 1.75,0.77 1.63,2.17 2.48,2.6 1.04,-0.98 1.14,-3.72 3.06,-5.49 0.87,-0.8 2.19,-0.97 2.88,0.06 0.72,1.07 0.09,2.41 -0.16,3.5 2.72,-0.77 5.51,-6.84 5.45,-10.79l-8.04 0c-0.17,0.76 -0.41,1.46 -0.57,2.25 -0.16,0.78 -0.25,1.55 -0.44,2.37 -0.31,1.37 -0.92,3.35 -2.65,2.8 -2.06,-1.06 2.52,-14.83 2.48,-18.7 -0.02,-1.43 0.14,-1.2 -1.03,-1.73 -2.18,-1.01 -0.36,-2.74 3.01,-2.74 5.66,0.01 4.13,3.76 4.35,5.68 0.77,0.49 1.63,0.78 2.26,1.35 0.71,0.65 0.92,1.27 2.35,0.99 0.19,-4.14 1.17,-8.39 -4.28,-10.17 -4.04,-1.32 -9.48,-0.47 -11.95,1.83z"/>
   <path class="fil1" d="M130.78 74.95c0.59,-2.41 1.03,-4.85 1.58,-7.32 0.37,-1.67 1.51,-6.02 1.33,-7.61 0.31,-1.53 -0.6,-1.09 -0.72,-2.08 1.19,-0.39 3.58,-0.75 4.96,-0.31 1.72,0.55 1.44,2.2 1.06,3.97 -0.52,2.42 -1.66,7.75 -1.73,10.04 1.24,-0.08 1.35,-0.55 2.81,-0.57 -0.55,-2.19 0.92,-9.89 2.48,-12.36 0.48,-0.76 1.69,-2.07 2.67,-2.37 -0.18,0.75 -1.35,3.06 -1.96,5.59 -0.65,2.73 -1.43,7.34 -0.62,10.11 0.71,2.45 1.6,3.59 4.38,3.22 1.14,-0.15 2.26,-0.57 2.12,-1.85 -1.77,-0.79 -1.69,0.08 -3.28,-0.2 -0.52,-1.42 1.04,-6.92 1.46,-9.21l0.57 -4.67c-0.82,-0.3 -0.94,-0.47 -1.22,-1.27 1.21,-0.97 2.71,-1.47 4.61,-0.66 1.52,0.64 2.14,2.1 1.71,4.31 -0.4,2.04 -2.17,8.93 -1.56,10.8 0.17,0.23 0.51,0.28 0.93,0.06 0.86,-0.46 2.08,-4.99 2.41,-6.08 0.83,-2.72 0.94,-5.64 0.82,-8.9 -0.38,-1.16 -1.29,-1.7 -2.55,-2.1 -1.21,-0.39 -2.74,-0.55 -4.1,-0.44 -4.55,0.39 -5.08,2.38 -6.37,3.02 -1.27,-5.37 -6.63,-2.27 -7.9,-1.96l0.97 -5.41 -5.92 -0.07c-0.73,0.05 -0.51,-0.12 -0.6,0.23 0.64,0.34 1.54,1 2.13,1.2 -0.13,1.7 -1.41,8.37 -1.78,10.67 -0.59,3.63 -1.3,7.33 -1.46,10.99 1.25,0.85 0.38,2.06 2.79,1.27z"/>
   <path class="fil3" d="M113.67 55.48c0.33,0.8 -2.88,14.11 -2.67,15.15l-2.52 -0.17c0.05,-3.32 1.51,-6.56 1.71,-9.89 0.25,-4.32 -6.08,-4.44 -6.54,-2.13 0.33,0.65 0.53,0.55 1.23,0.88l-0.07 0.69c0.89,-0.67 0.15,-1.18 1.95,-1.17 0.16,4.27 -1.73,10.67 -2.68,14.46 1.07,-0.24 1.31,-0.22 2.28,0.08 -0.05,0.9 -0.36,0.93 -1.06,1.25 -0.52,0.24 -0.96,0.45 -1.63,0.53 -4,0.47 -3.72,-2.49 -5.02,-3.55 -0.99,-0.8 -2.68,-0.6 -3.19,-1.08 -0.64,-0.61 -0.3,-2.06 -1.48,-2.93 -0.77,-0.57 -1.76,-1.21 -2.54,-1.74 -1.37,-0.92 -3,-2.52 -4.04,-2.05 -0.96,0.43 -0.73,0.35 -1.79,0.11 -0.26,-1.18 -0.2,-1.63 -0.24,-2.85 -0.46,0.69 -0.51,1.06 -0.39,2.16 0.24,2.17 1.26,2.98 3.17,4.17 4.33,2.71 3.55,2.34 2.66,5.85 1.2,-0.27 1.33,-0.1 2.23,0.26 -0.23,2.39 -4.3,1.94 -5.66,1.08 -1.58,-1 -0.69,-1.21 -1.41,-2.61 -0.43,-0.85 -1.44,-1.43 -1.82,-2.32 0.97,-0.39 3.81,-0.08 5.12,-0.15 -0.79,-0.66 -4.93,-0.36 -5.25,-0.14 -0.78,0.9 -0.94,3.98 -0.45,5.29 1.02,2.78 6.41,2.92 9.11,2.18 1.83,-0.5 2.59,-1.33 3.74,-2.19 1.59,1.85 3.17,2.89 6.96,2.57 3.84,-0.32 4.25,-1.35 6.53,-2.96 -0.36,1.79 -1,2.77 1.52,2.76 4.4,-0.03 4.55,0.5 4.88,-1.6 -0.94,0.27 -1.13,0.36 -2.15,-0.87 -0.55,-0.66 -0.99,-1.47 -0.8,-2.57l2.26 -11.93c0.15,-0.77 0.7,-2.21 0.37,-2.81l-1.27 -1.4c-0.52,-0.41 -0.2,0.11 -0.49,-0.53 -0.25,-0.05 -0.26,-0.11 -0.51,0.17z"/>
   <path class="fil0" d="M46.85 57.76l0.7 -2.7c0.68,-0.14 1.92,0.19 2.43,0.67 -0.36,0.69 -2.14,1.95 -3.13,2.03zm20.55 -18.68c0.08,-1.2 0.55,-4.35 1.05,-5.54 0.25,-0.59 0.03,-0.36 0.43,-0.55 1.31,0.52 1.22,5.68 -1.48,6.09zm-1.2 -1.3l-0.21 1.24c-1.6,0.36 -6.85,0.13 -8.88,0.13 -0.19,-0.13 -0.28,-0.14 -0.48,-0.29l0.27 -1.51c-1.55,0.47 -2.8,2.16 -4.98,2.19 0.22,-1.18 1.98,-8.02 2.34,-8.66l1.08 -0.14 -0.13 3.22c1.1,0.18 1.87,0.45 2.34,-0.62 0.35,-0.79 0.44,-1.68 0.89,-2.44 2.35,-0.84 6.75,0.49 8.81,1.07 -0.04,1.56 -0.63,4.44 -1.07,5.82zm-20.44 21.32c1.7,-0.27 9.29,-5.79 10.72,-6.94 2.53,-2.03 4.78,-3.91 7.07,-6.16 0.8,-0.79 1.26,-1.43 2.12,-2.28 2.17,-2.17 7.05,-8.64 3.27,-11.57 -1.58,-1.23 -4.39,-1.76 -6.88,-1.93 -1.83,-0.13 -6.68,-0.24 -8.37,0.04l-7.93 28.84z"/>
   <path class="fil3" d="M133.69 60.02c0.94,-0.63 0.07,-1.23 1.86,-0.99 0.42,3.58 -2.7,12.91 -2.93,17.89 1.45,0.06 2.94,0.28 4.41,0.18 2.3,-0.15 2.02,-0.29 2.58,-2.11 1.04,0.87 1.32,1.55 3.05,1.95 4.11,0.94 8.7,0.03 10.64,-3.49 0.99,-1.81 4.51,-14.03 2.28,-15.89 0.12,3.26 0.01,6.18 -0.82,8.9 -0.33,1.09 -1.55,5.62 -2.41,6.08 -0.42,0.23 -0.76,0.17 -0.93,-0.06 -0.61,-1.86 1.17,-8.76 1.56,-10.8 0.43,-2.21 -0.2,-3.67 -1.71,-4.31 -1.91,-0.81 -3.41,-0.31 -4.61,0.66 0.28,0.81 0.4,0.97 1.22,1.27l-0.11 1.56c0.39,-0.82 1.03,-2.78 1.95,-1.86 0.49,0.49 -0.08,3.04 -0.2,3.73 -0.58,3.37 -1.42,7.05 -2.17,10.38 1.03,-0.1 1.03,-0.05 1.78,0.28 0.14,1.29 -0.99,1.7 -2.12,1.85 -2.78,0.37 -3.66,-0.77 -4.38,-3.22 -0.81,-2.77 -0.04,-7.38 0.62,-10.11 0.61,-2.54 1.78,-4.84 1.96,-5.59 -0.98,0.31 -2.19,1.61 -2.67,2.37 -1.56,2.48 -3.03,10.17 -2.48,12.36 -1.46,0.02 -1.57,0.49 -2.81,0.57 0.07,-2.29 1.21,-7.62 1.73,-10.04 0.38,-1.77 0.66,-3.42 -1.06,-3.97 -1.38,-0.44 -3.77,-0.08 -4.96,0.31 0.13,0.99 1.03,0.55 0.72,2.08z"/>
   <path class="fil1" d="M96.7 66.08c-0.91,-0.91 -2.18,-1.56 -3.37,-2.27 -1.73,-1.04 -1.88,-0.97 -2.29,-3.38 0.54,-1.8 -0.19,-1.5 -0.46,-2.79 0.96,-0.52 4.63,-0.55 5.89,1.01 0.6,0.74 0.83,1.51 1.96,1.8 0.58,0.15 0.93,0.17 1.51,0.36 0.51,0.17 0.92,0.34 1.42,0.46 -0.07,0.94 -0.45,1.82 -0.53,2.67 -0.17,1.77 0.96,4.87 -4.14,2.15zm-11.36 -5c0.04,1.22 -0.02,1.66 0.24,2.85 1.06,0.24 0.83,0.31 1.79,-0.11 1.04,-0.46 2.67,1.13 4.04,2.05 0.78,0.53 1.77,1.17 2.54,1.74 1.18,0.87 0.84,2.32 1.48,2.93 0.51,0.48 2.2,0.28 3.19,1.08 1.31,1.06 1.02,4.02 5.02,3.55 0.68,-0.08 1.11,-0.29 1.63,-0.53 0.7,-0.32 1.02,-0.35 1.06,-1.25 -0.97,-0.3 -1.21,-0.33 -2.28,-0.08 -2.06,0.06 -1.51,-0.65 -1.17,-2.39 0.24,-1.22 0.47,-2.35 0.71,-3.57 0.36,-1.83 1.38,-5.55 1.2,-7.34l0.07 -0.69c-0.7,-0.33 -0.9,-0.23 -1.23,-0.88 0.46,-2.31 6.79,-2.19 6.54,2.13 -0.19,3.33 -1.65,6.56 -1.71,9.89l2.52 0.17c-0.2,-1.04 3,-14.35 2.67,-15.15l-0.61 2.36c-0.01,-0.02 -0.03,0.06 -0.05,0.09 -0.72,-0.63 -1,-1.59 -2.73,-2.37 -2.58,-1.17 -5.44,-0.85 -7.83,0.62 -0.94,0.58 -2.12,1.6 -2.98,1.97 -0.86,-1.15 -1.44,-2.71 -3.32,-2.79 -1.07,-0.05 -1.51,0.5 -2.42,0.67 -1.42,0.26 -1.24,-0.5 -2.16,-0.76 -1.63,-0.46 -3.64,0.93 -4.37,1.71 -0.99,1.05 -1.97,1.95 -1.87,4.1z"/>
   <path class="fil2" d="M45.76 59.12l7.93 -28.84c1.69,-0.28 6.54,-0.17 8.37,-0.04 2.49,0.17 5.3,0.7 6.88,1.93 3.77,2.93 -1.1,9.4 -3.27,11.57 -0.86,0.86 -1.32,1.49 -2.12,2.28 -2.29,2.25 -4.55,4.13 -7.07,6.16 -1.43,1.15 -9.02,6.66 -10.72,6.94zm-11.76 -26.5c2.19,0.22 9.42,-1.22 12.52,-1.64 1.37,-0.19 2.91,-0.23 4.27,-0.45 -0.01,1.7 -5.64,25.03 -6.34,28.07 -0.53,2.32 -0.86,2.01 -2.91,2.84 -1.81,0.73 -3.31,0.89 -3.64,2.04 1.9,0.17 4.06,-0.87 5.4,-1.52 0.27,0.52 0.25,1 0.58,1.4 1.72,-0.22 0.17,-1.56 2.27,-2.92 3.66,-2.36 5.65,-3.27 9.74,-6.3 4.03,-2.99 23.04,-17.17 17.01,-23.13 -3.9,-3.85 -12.4,-2.19 -18.57,-2.54 0.39,-1.78 1.44,-5.24 -1.36,-5.17 -0.95,1.15 -1.09,4.56 -1.69,5.36 -0.58,0.78 -4.65,0.9 -6,1.09 -2.07,0.28 -4.04,0.72 -6.03,1.05 -1.89,0.32 -4.46,0.36 -5.25,1.81z"/>
   <path class="fil1" d="M8.65 73.21c-0.61,-1.64 0.64,-6 1.01,-7.68 0.28,-1.27 0.45,-2.53 0.71,-3.84 0.22,-1.13 0.33,-2.79 1.57,-2.85 0.99,-0.05 0.76,0.79 0.68,1.61 -0.35,3.57 -1.63,9.99 -2.78,12.99l-1.19 -0.22zm-1.27 -17.65c-0.37,0.77 -0.92,0.54 -1.06,1.43 -0.14,0.86 0.38,1.26 0.75,1.74 0.89,1.14 0.29,2.46 0.09,3.89 -0.31,2.21 -0.01,2.23 -1.6,3.35 -1.43,1 -1.4,1.54 -1.15,3.7 0.3,2.66 1.29,6.24 4.51,4.75 0.84,-0.39 0.76,-0.46 1.85,-0.36 2.19,0.2 2.21,-0.53 3.98,1.08 0.48,0.43 0.63,1 1.59,0.91 0.19,-0.92 0.58,-2.01 -0.51,-2.67 -0.43,-0.26 -0.96,-0.58 -1.38,-0.75 0.06,-1.22 0.67,-1.68 1.88,-1.8 0.15,-2.78 1.31,-7.42 2.23,-10.16 0.38,-1.13 1.3,-2.57 1.37,-2.91l1.25 -7.08c-2.5,-0.06 -4.03,-0.3 -6.51,0.11 -0.62,2.49 -0.46,3.24 -1.28,5.5 -1.88,-0.94 -3.17,-2.13 -6,-0.72z"/>
   <path class="fil1" d="M59.12 62.98c-1.51,0.21 -2.08,0.37 -1.7,-1.42 0.22,-1.01 0.5,-1.85 0.93,-2.72l1.35 0.11c0.38,1.34 -0.25,2.88 -0.58,4.03zm-20.85 1.78c1.74,0.38 7.71,1.66 8.77,2.96 0.48,0.58 0.84,1.96 1.18,2.82 1.27,0.33 2.9,0.02 3.51,0.91 1.04,1.53 1.16,4.17 5.1,3.68 2.21,-0.28 2.69,-1.69 2.29,-1.98 -0.77,-0.53 -2.66,0.67 -3.47,-0.01 -0.77,-0.72 0.71,-3.43 0.35,-5.2 0.05,-0.94 -0.35,-2.1 -0.4,-3.26 2.34,-0.38 3.34,0.54 5.87,-0.83 0.37,-0.2 0.56,-0.41 0.93,-0.54 0.92,-0.36 2.1,0.13 2.6,-0.06l0.77 -3.89c0.22,-1.09 0.26,-0.96 0.03,-1.33 -0.94,-0.8 -1.29,-1.79 -2.45,-2.35 -2.9,-1.41 -8.66,-0.91 -10.6,2.35 -1.81,-0.22 -2.64,0.81 -3.87,1.54 -1.35,0.8 -2.89,1.26 -2.8,2.55 1.49,0.34 3.03,0.15 4.6,0.22 -0.12,1.26 -0.18,2.62 -0.76,3.54 -6.58,-3.85 -3.54,-1.97 -5.78,-1.91 -1.59,0.04 -0.45,-1.38 -3.08,-0.46 -2.49,0.87 -2.87,0.21 -2.79,1.25z"/>
   <path class="fil1" d="M114.18 55.32c0.29,0.64 -0.03,0.11 0.49,0.53l1.27 1.4c0.33,0.6 -0.22,2.04 -0.37,2.81l-2.26 11.93c-0.18,1.1 0.25,1.92 0.8,2.57 1.03,1.23 1.21,1.14 2.15,0.87 0.34,-1.36 0.61,-3.15 0.86,-4.57l1.8 -8.89c0.27,-1.16 0.39,-3.73 2.05,-3 0.91,2.11 -2.8,13.01 -2.63,16.45l-0.13 1.04c2.36,-1.13 1.57,-2.65 6.46,-2.85 0.42,-1.49 3.39,-17.72 3.3,-17.85l-0.29 0.55c-1.21,-0.75 -1.92,-1.72 -4.1,-1.3 -1.46,0.28 -2.58,1.37 -3.53,1.81l-0.01 -1.32c-0.74,-0.32 -4.69,-0.11 -5.89,-0.18z"/>
   <path class="fil1" d="M27.09 59.33c0.2,0.79 -1.65,9.56 -2.1,11.38 -0.21,0.84 -0.48,3.17 -1.73,2.61 -0.99,-0.45 -0.28,-2.6 -0.08,-3.62 0.33,-1.69 1.91,-10.66 2.64,-10.85 0.72,0 0.9,0 1.26,0.49zm-1.85 -4.23c-0.19,0.48 -0.15,0.37 -0.44,0.69 -2.72,2.93 -4.61,8.06 -5.08,12.14 -0.26,2.21 -0.2,6.26 1.74,7.03 1.07,0.42 2.35,0.01 3.87,0.69 0.82,0.37 2.42,-0.32 3.66,-0.72 1.47,-0.49 2.34,-3.44 2.78,-5.49 0.48,-2.22 1,-4.49 1.38,-6.77 0.49,-2.9 0.44,-4.88 -1.36,-6.32 -1.45,-1.17 -4.24,-1.78 -6.54,-1.25z"/>
   <path class="fil3" d="M29.86 37.61c-0.42,0.3 -0.48,0.5 -1.05,0.2 -0.64,-0.33 -1.33,-1.44 -1.88,-1.74l-1.3 -0.43c0.16,-4.06 5.82,-27.37 5.76,-29.75 -0.05,-1.77 -1.4,-1.37 -1.47,-3.54 1.57,-0.04 5.18,-0.37 6.59,-0.15 -0.2,-0.24 -0.23,-0.26 -0.65,-0.34 -1.37,-0.23 -5.93,-0.15 -7.04,0.05 -0.78,2.97 -1.34,6.07 -1.98,9.13l-3.69 18.64 -1.46 8.28c-0.14,0.63 -0.28,0.48 -0.21,1.16l7.95 0.04 0.44 -1.56z"/>
   <path class="fil3" d="M80.93 17c0.89,-0.8 0.5,-4.13 2.93,-3.25 1.32,1.85 -4.16,21.42 -4.2,25.43l9.33 0.01 0.71 -4.16c-0.5,0.57 -0.73,2.02 -0.97,2.99 -1.48,-0.36 -1.22,-0.57 -2.1,-1.48 -0.76,-0.78 -1.22,-0.66 -2.51,-0.83 -0.05,-1.84 0.49,-2.77 0.34,-4.56 -1.32,-0.69 -2.29,-0.9 -1.96,-2.93 0.45,-2.74 2.61,-1.2 2.84,-1.16 0.21,-0.55 0.42,-2 0.55,-2.67 0.41,-2 1.52,-6.83 1.65,-8.23 0.73,-7.62 -3.22,-3.66 -6.84,-3.26 0.04,1.45 0.45,1.49 0.23,4.1z"/>
   <path class="fil3" d="M101.79 39.32c-0.85,-0.43 -0.73,-1.83 -2.48,-2.6 -2.44,-1.07 -0.94,0.32 -2.82,-2.16 -0.81,-1.08 -1.64,-1.73 -1.41,-3.64 0.19,-1.53 0.43,-2.86 0.72,-4.23 0.42,-1.98 2.63,-10.76 2.17,-12.49 -0.61,-2.3 -0.4,-1.76 0.55,-3.68 -3.58,1.1 -4.76,8.54 -5.63,12.97 -0.5,2.55 -1.09,5.24 -1.33,7.94 -0.46,5.15 1.15,3.88 1.92,4.82 0.39,0.47 0.33,1.39 0.45,1.93 0.45,0.64 6.87,2.57 7.85,1.15z"/>
   <path class="fil1" d="M68.2 27.55c0.45,-0.61 3.04,-14.12 2.89,-15.43 0.09,-1.39 0.45,-2.38 0.54,-3.24 -2.87,-0.06 -5.68,-0.36 -8.45,0.15 0.33,0.92 1.65,2.03 2.26,2.84 0.71,0.93 -0.28,2.76 -0.58,3.81 -0.59,2.03 -1.45,6.41 -1.37,8.71 1.42,0.09 1.58,0.14 2.69,1.05 0.6,0.5 1.01,1.13 1.43,1.81 0.28,0.45 0.09,0.37 0.59,0.31z"/>
   <path class="fil3" d="M128 55.76c0.09,0.13 -2.88,16.35 -3.3,17.85 -4.89,0.2 -4.11,1.72 -6.46,2.85l0.13 -1.04c-0.42,0.32 -0.52,0.4 -0.54,1.11 1.53,0.88 10.36,0.52 12.68,0.22l0.26 -1.8c-2.41,0.79 -1.54,-0.41 -2.79,-1.27 0.16,-3.66 0.87,-7.36 1.46,-10.99 0.37,-2.3 1.66,-8.97 1.78,-10.67 -0.59,-0.19 -1.49,-0.86 -2.13,-1.2l-1.1 4.93z"/>
   <path class="fil1" d="M50.79 8.93c0.34,0.47 0.37,0.67 0.75,1.06 0.31,0.31 0.58,0.47 0.93,0.81 1.83,1.77 -0.44,4.01 -0.2,8.75 2.03,0.09 2.15,0.02 2.94,1.45 0.52,0.95 0.92,2.37 0.44,3.44 0.01,1.31 -0.4,2.11 -0.12,3.37 0.83,-0.2 0.85,-0.95 1,-1.79 0.87,-4.52 2.85,-13.41 3.24,-17.31 -1.33,-0.1 -8.35,-0.48 -8.98,0.22z"/>
   <path class="fil3" d="M16.33 76.06c-0.96,0.09 -1.11,-0.48 -1.59,-0.91 -1.78,-1.61 -1.79,-0.89 -3.98,-1.08 -1.08,-0.1 -1,-0.02 -1.85,0.36 -3.22,1.49 -4.21,-2.09 -4.51,-4.75 -0.24,-2.16 -0.28,-2.7 1.15,-3.7 1.59,-1.12 1.29,-1.14 1.6,-3.35 0.2,-1.43 0.8,-2.75 -0.09,-3.89 -0.37,-0.48 -0.89,-0.88 -0.75,-1.74 0.14,-0.89 0.69,-0.67 1.06,-1.43 -2.39,0.67 -2.93,3.21 -3.5,5.8 -0.54,2.5 -0.91,5.11 -1.47,7.62 -0.53,2.36 -1.45,5.76 0.24,7.42 2.14,2.1 5.12,-0 6.76,-0.58 0.37,1.4 -0.31,1.15 3.31,1.17 2.24,0.02 3.2,0.36 3.61,-0.93z"/>
   <path class="fil1" d="M57.12 39.16c1.46,-2.01 4.31,-4.5 6.72,-2.57 0.57,0.46 1.32,1.19 1.85,1.75 0.32,-0.54 -0.09,-0.31 0.51,-0.55 0.43,-1.38 1.03,-4.26 1.07,-5.82 -2.06,-0.58 -6.46,-1.9 -8.81,-1.07 -0.45,0.75 -0.54,1.65 -0.89,2.44 -0.47,1.07 -1.24,0.81 -2.34,0.62l0.13 -3.22 -1.08 0.14c-0.37,0.64 -2.12,7.48 -2.34,8.66 2.18,-0.03 3.43,-1.71 4.98,-2.19l-0.27 1.51c0.19,0.15 0.29,0.16 0.48,0.29z"/>
   <path class="fil3" d="M55.64 24.45c0.49,-1.06 0.08,-2.49 -0.44,-3.44 -0.78,-1.44 -0.9,-1.37 -2.94,-1.45 -0.24,-4.74 2.02,-6.98 0.2,-8.75 -0.35,-0.34 -0.62,-0.5 -0.93,-0.81 -0.38,-0.39 -0.41,-0.6 -0.75,-1.06 -0.93,1.14 -1.89,8.17 -2.22,9.68l-1.85 9.4c-0.02,0.48 -0.43,1.11 2.69,0.54 1.17,-0.22 1.38,-0.18 1.66,-1.3 0.37,-1.51 0.53,-3.62 1.5,-4.48 1.02,-0.46 2.77,0.72 3.07,1.69z"/>
   <path class="fil3" d="M19.92 57.77c-0.07,0.34 -1,1.78 -1.37,2.91 -0.92,2.74 -2.08,7.38 -2.23,10.16 -1.2,0.12 -1.82,0.58 -1.88,1.8 0.43,0.18 0.95,0.5 1.38,0.75 0.55,0.33 0.59,0.55 0.77,1.39 1.22,0.66 -0.05,0.7 2.68,1.57 1.91,0.61 5.35,1.01 7.23,0.28 0.83,-0.32 2.14,-1 2.47,-1.69 -1.24,0.39 -2.83,1.08 -3.66,0.72 -1.52,-0.68 -2.8,-0.27 -3.87,-0.69 -1.94,-0.76 -1.99,-4.82 -1.74,-7.03 0.47,-4.08 2.37,-9.21 5.08,-12.14 0.3,-0.32 0.26,-0.22 0.44,-0.69 -1.26,-0.01 -3.43,0.91 -4.33,1.75 -0.38,0.35 -0.53,0.68 -0.98,0.91z"/>
   <path class="fil3" d="M68.2 27.55c-0.5,0.07 -0.31,0.14 -0.59,-0.31 -0.98,-1.59 -1.14,-1.58 -2.42,-2.54 -0.3,-0.23 -1.22,-0.29 -1.7,-0.32 -0.08,-2.3 0.78,-6.69 1.37,-8.71 0.3,-1.04 1.29,-2.88 0.58,-3.81 -0.61,-0.8 -1.93,-1.91 -2.26,-2.84 2.77,-0.51 5.58,-0.2 8.45,-0.15 -0.07,0.6 -0.25,1.06 -0.35,1.62 -0.1,0.56 -0.05,1.08 -0.19,1.61 0.56,-0.37 0.86,-2.68 0.8,-3.49 -1.41,-0.28 -6.26,-0.2 -7.81,-0.05 -1.79,0.17 -1.44,0.47 -1.86,2.15 -0.81,3.19 -2.07,10.11 -2.54,13.5 -0.14,1.05 -0.89,2.12 -0.59,3.2 1.16,0.51 3.18,0.21 4.58,0.28 1.46,0.07 3.07,0.33 4.4,0.37l0.13 -0.53z"/>
   <path class="fil3" d="M74.79 34.64c0.03,-0.02 0.08,-0.1 0.09,-0.07 1.44,-1.24 1.78,-2.31 1.46,-4.3 -0.25,-1.56 -1.01,-3 -2.54,-3.36 -0.16,-1.38 -0.21,-2.68 -0.36,-4.08 -0.17,-1.54 -0.54,-2.49 -0.08,-3.9 0.64,-0.24 0.62,-0.26 1.47,-0.27 0.3,-0.57 1.11,-4.48 1.21,-5.41 0.35,-3.34 -2.46,-2.72 -2.34,-4.41 -0.84,0.88 -4.17,18.93 -4.13,19.39 2.62,1.87 5.26,1.81 5.22,6.42z"/>
   <path class="fil3" d="M103.8 15.31c0.38,-0.58 0.74,-1.41 1.32,-1.68 0.96,-0.45 1.46,0.45 1.46,1.34 0,1.61 -1.07,3.9 -0.77,5.07 0.53,0.26 13.46,0.57 16.16,0.53 0.93,-0.01 1.46,-0.09 1.76,-0.7 -2.17,-1.3 -1.84,-2.53 -3.91,-2.52 -2.58,0.01 -1.93,1.43 -4.49,1.93l0.14 -1.22 -0.61 1.17 -0.11 -0.38c-1.44,0.28 -1.64,-0.34 -2.35,-0.99 -0.63,-0.58 -1.49,-0.87 -2.26,-1.35 -0.21,-1.92 1.31,-5.67 -4.35,-5.68 -3.37,-0 -5.2,1.73 -3.01,2.74 1.17,0.54 1.01,0.3 1.03,1.73z"/>
   <path class="fil1" d="M77.74 74.6l3.58 -18.56c-3.07,-0.01 -2.7,-0.68 -3.73,-0.64 -0.41,0.61 -1.77,7.73 -2.03,9.04 -0.44,2.18 -1.68,7.66 -1.36,9.58 0.41,0.26 0.53,0.11 0.9,0.27 0.36,0.16 0.77,0.83 2.09,1.5 0.04,-0.55 0.16,-0.89 0.56,-1.18z"/>
   <path class="fil1" d="M67.83 55.33l1.29 0.2c0.03,0.77 -1.25,6.03 -1.56,7.57 -0.56,2.76 0.12,1.05 0.03,2.8 -1.01,0.64 -0.78,1.32 -1.06,3.25 -0.15,1.01 -0.35,3.36 -0.07,4.32 0.56,1.94 3.87,1.17 4.58,0.37 0.14,-0.16 0.51,-1.34 0.4,-1.52 -0.23,0.63 -0.75,1.41 -1.49,0.84 -0.65,-0.51 -0.19,-1.6 -0.04,-2.32 0.81,-4.01 2.53,-11.95 2.77,-15.34 -1.74,-0.27 -3.02,-0.28 -4.85,-0.16z"/>
   <path class="fil3" d="M32.38 23.57l0.45 -0.14c0.57,1.97 0.14,6.36 0.97,7.73 0.99,0.25 4.47,-0.78 5.72,-1.01 1.94,-0.36 4.24,-0.49 5.67,-1.36l0.03 -0.89c-0.84,0.54 -1.02,0.18 -1.78,-0.3 -2.89,-1.86 -2.6,-0.4 -6.52,-0.43 -0.05,-0.84 -0.32,-2.05 -0.41,-3.89 -0.13,-2.56 -1.23,-4.46 -4.13,-4.18 -1.3,0.13 -2.13,0.71 -2.32,1.94 0.73,0.24 1.68,0.72 2.4,1.17l-0.07 1.37z"/>
   <path class="fil3" d="M121.42 34.23c-0.16,-2.03 0.04,-4.16 0.71,-5.86 0.44,-1.11 2.05,-3.39 3.36,-3.32 -0.51,3.02 -0.87,5.52 -1.58,8.47 0.73,0.16 1.87,0.27 2.54,-0.09 -0.62,-1.44 -1.6,-1.68 0.19,-2.84 1.81,-1.17 2.36,-4.64 2.33,-6.66 -0.02,-1.47 -1.75,-1.58 -2.93,-1.36 -1.41,0.26 -4.97,2.37 -5.85,3.19 -1.78,1.65 -1.79,3.52 -2.09,5.77 -0.27,1.99 0.69,0.39 1.76,1.61 0.15,0.17 0.39,0.61 0.48,0.71 0.37,0.36 0.44,0.11 1.09,0.38z"/>
   <path class="fil3" d="M38.69 17.59c0.44,1.15 1.67,2.22 3.35,1.96 0.36,-2.51 2.92,-12.66 2.87,-13.94 -0.06,-1.37 -1.82,-2.13 -2.28,-3.4l7.57 -0.01 -0.11 -0.37c-1.81,-0.13 -4.88,-0.27 -6.59,-0.08 -1.78,0.2 -1.46,0.71 -2.2,4.5 -0.36,1.86 -1.88,10.29 -2.22,11.3l-0.39 0.03z"/>
   <path class="fil3" d="M112.17 34.76c0.13,1.68 0.03,1.87 0.74,3.18 2.37,-0.15 9.96,-1.92 11.46,-1.17 0.63,0.93 -0.07,1.41 -0.12,2.38 1.52,0.04 3.15,0.09 4.66,0.05 3.82,-0.1 3.37,0.14 3.48,-1.35 -0.44,0.25 -0.22,0.03 -0.47,0.48 -0.87,-1.36 -2.58,-2.04 -3.54,-2.63 -2.05,-1.26 -1.06,-1.61 -4.4,-0.65 -2.38,0.69 -2.91,0.13 -4.88,-0.51 -0.97,-0.31 -1.69,-0.29 -2.62,-0.45 -0.89,-0.15 -1.21,-0.48 -2.39,-0.62 -0.01,1.33 0.94,2.29 -0.83,2.47 -0.33,-0.35 -0.6,-0.88 -1.1,-1.17z"/>
   <path class="fil3" d="M124.77 14.46c0.49,-0.32 0.91,-1.12 1.94,-0.76 1.61,0.56 -0.05,5.39 -0.84,6.67 1.4,-0.55 1.56,0.1 3.38,0.82 1.15,-1.32 3.17,-7.76 0.74,-9.41 -2.55,-1.73 -7.31,-0.9 -6.58,0.82 0.32,0.75 0.94,0.29 1.36,1.87z"/>
   <path class="fil3" d="M91.04 60.43c0.75,-0.6 0.62,-2 2.18,-1.5 0.27,0.23 0.07,3 0.06,3.24l4.39 0.11c0.22,0.7 0.03,1.5 -0.05,2.19 -0.11,1.03 0.07,1.55 -0.92,1.61 5.1,2.72 3.97,-0.38 4.14,-2.15 0.08,-0.85 0.47,-1.72 0.53,-2.67 -0.5,-0.12 -0.91,-0.29 -1.42,-0.46 -0.57,-0.19 -0.93,-0.21 -1.51,-0.36 -1.97,-0.5 -1.22,-2.55 -4.47,-3.02 -0.88,-0.13 -2.66,-0.19 -3.38,0.2 0.27,1.29 0.99,0.99 0.46,2.79z"/>
   <path class="fil1" d="M35.78 33.3l-1.25 0.56c1.44,0.71 2.1,1.92 4.14,2.07 3.61,0.25 2.18,1.85 4.23,1.99l0.6 -1.55c0.24,-0.32 -0.04,-0.02 0.24,-0.27l0.79 -4.15c-1.74,-0.11 -7,0.86 -8.73,1.34z"/>
   <path class="fil1" d="M36.73 69.55l0.06 0.4c0.68,0.48 0.58,0.02 1.24,0.8 0.09,0.93 -0.51,1.22 -0.44,2.54l4.2 1.92c1.53,0.46 4.44,-0.62 4.25,-1.8 -0.65,-0.45 -1.48,-0.29 -2.28,-0.21l-1.68 -0.03 0.19 -3.75c-0.95,-0.04 -4.95,-0.58 -5.54,0.13z"/>
   <path class="fil0" d="M8.65 73.21l1.19 0.22c1.15,-2.99 2.43,-9.41 2.78,-12.99 0.08,-0.82 0.31,-1.66 -0.68,-1.61 -1.24,0.06 -1.35,1.72 -1.57,2.85 -0.26,1.3 -0.43,2.57 -0.71,3.84 -0.37,1.69 -1.62,6.05 -1.01,7.68z"/>
   <path class="fil3" d="M43.72 36.11c-0.46,0.41 -0.56,1.03 -0.83,1.82 -2.05,-0.14 -0.61,-1.74 -4.23,-1.99 -2.04,-0.14 -2.69,-1.35 -4.14,-2.07l1.25 -0.56 -1.82 0.27c0.05,2.15 0.38,3.51 0.6,5.43l8.4 0.18c0.3,-0.98 0.58,-1.98 0.76,-3.09z"/>
   <path class="fil0" d="M27.09 59.33c-0.36,-0.48 -0.55,-0.48 -1.26,-0.49 -0.74,0.2 -2.32,9.17 -2.64,10.85 -0.2,1.02 -0.91,3.18 0.08,3.62 1.25,0.56 1.52,-1.77 1.73,-2.61 0.45,-1.82 2.3,-10.59 2.1,-11.38z"/>
   <path class="fil0" d="M147.75 60.87c-0.18,0.59 -0.31,2.33 -0.46,3.11 -0.42,2.29 -1.98,7.79 -1.46,9.21 0.68,0.12 0.85,0.07 1.5,-0.08 0.8,-3.58 1.98,-8.61 2.46,-12.23 0.06,-0.48 0.28,-1.5 -0.1,-1.88 -0.92,-0.92 -1.56,1.04 -1.95,1.86z"/>
   <path class="fil0" d="M104.8 60.01c0.18,1.78 -0.84,5.51 -1.2,7.34 -0.24,1.22 -0.47,2.35 -0.71,3.57 -0.34,1.73 -0.89,2.45 1.17,2.39 0.96,-3.8 2.84,-10.2 2.68,-14.46 -1.79,-0.01 -1.05,0.5 -1.95,1.17z"/>
   <path class="fil1" d="M90.78 73.27l-1.57 -0.11c-0.05,-1.64 0.21,-2.1 0.33,-3.53 -0.74,-0.26 -4.87,-0.17 -5.41,0.05 0.38,0.89 1.39,1.47 1.82,2.32 0.71,1.41 -0.18,1.61 1.41,2.61 1.36,0.86 5.43,1.31 5.66,-1.08 -0.9,-0.36 -1.03,-0.52 -2.23,-0.26z"/>
   <path class="fil1" d="M38 62.05c1.1,-0.15 3.99,-1.36 4.82,-1.86 1,-0.6 0.84,-0.95 1.11,-2.23 0.21,-0.98 0.4,-1.72 0.57,-2.77 -2.23,0.18 -3.72,0.85 -4.76,2.06 -0.98,1.15 -1.77,2.71 -1.74,4.81z"/>
   <path class="fil1" d="M46.24 31.5c-0.56,0.98 -0.78,3.42 -0.55,4.68 0.24,1.31 1.26,2.69 2.47,2.87 0.77,-2.5 1.44,-5.07 1.81,-7.84l-3.73 0.28z"/>
   <path class="fil0" d="M121.42 34.23c2.88,-0.4 2.23,1.71 4.07,-9.18 -1.31,-0.07 -2.92,2.21 -3.36,3.32 -0.68,1.7 -0.87,3.83 -0.71,5.86z"/>
   <path class="fil0" d="M56 67.95c0.36,1.77 -1.12,4.48 -0.35,5.2 0.5,0.38 0.84,0.19 1.54,0.1 1.11,-2.26 0.87,-3.67 1.24,-4.67 0.44,-1.2 3.74,-0.74 5.15,-0.78 0.42,-0.04 0.32,0.02 0.5,-1.31l-7.34 0.03c-0.53,0.73 -0.54,1.06 -0.74,1.43z"/>
   <path class="fil0" d="M91.04 60.43c0.41,2.41 0.56,2.34 2.29,3.38 1.19,0.71 2.46,1.36 3.37,2.27 1,-0.06 0.81,-0.59 0.92,-1.61 0.08,-0.69 0.26,-1.48 0.05,-2.19l-4.39 -0.11c0.01,-0.24 0.21,-3.01 -0.06,-3.24 -1.55,-0.5 -1.43,0.89 -2.18,1.5z"/>
   <path class="fil3" d="M57.12 39.16c2.02,-0 7.28,0.23 8.88,-0.13l0.21 -1.24c-0.6,0.24 -0.19,0.01 -0.51,0.55 -0.53,-0.57 -1.27,-1.29 -1.85,-1.75 -2.41,-1.93 -5.26,0.57 -6.72,2.57z"/>
   <path class="fil1" d="M63.94 67.58c-0.21,0.32 0.22,0 -0.75,0.42 -0.86,0.3 -3.36,0.25 -4.23,0.25 2.12,1.96 0.77,2.41 5.02,2.53l0.48 -3.92c-0.27,0.42 -0.01,0.44 -0.52,0.72z"/>
   <path class="fil3" d="M67.4 39.09c2.7,-0.41 2.8,-5.57 1.48,-6.09 -0.4,0.2 -0.18,-0.04 -0.43,0.55 -0.5,1.18 -0.97,4.34 -1.05,5.54z"/>
   <path class="fil0" d="M59.12 62.98c0.33,-1.15 0.96,-2.69 0.58,-4.03l-1.35 -0.11c-0.42,0.87 -0.71,1.71 -0.93,2.72 -0.38,1.79 0.19,1.64 1.7,1.42z"/>
   <path class="fil0" d="M72.23 48.69c2.49,-0.1 2.87,-2.25 2.78,-4.4 -1.42,0.13 -2.49,2.82 -2.78,4.4z"/>
   <path class="fil2" d="M93.3 36.79c-0.43,-0.36 -1.2,-0.52 -1.97,-0.56 -0.2,0.58 -1.3,3.04 0.03,3.22 1.17,0.16 1.7,-1.66 1.94,-2.65z"/>
   <path class="fil3" d="M46.85 57.76c0.98,-0.08 2.76,-1.34 3.13,-2.03 -0.51,-0.48 -1.75,-0.8 -2.43,-0.67l-0.7 2.7z"/>
   <path class="fil1" d="M72.13 69.9l2.32 -10.82c0.12,-0.56 0.79,-3.14 0.57,-3.6 -0.5,1.76 -3.03,13.24 -2.89,14.42z"/>
  </g>
 </g>
</svg>
