<?xml version="1.0" encoding="UTF-8"?>
<!DOCTYPE svg PUBLIC "-//W3C//DTD SVG 1.1//EN" "http://www.w3.org/Graphics/SVG/1.1/DTD/svg11.dtd">
<!-- Creator: CorelDRAW -->
<svg xmlns="http://www.w3.org/2000/svg" xml:space="preserve" width="33.8616mm" height="16.9323mm" version="1.1" style="shape-rendering:geometricPrecision; text-rendering:geometricPrecision; image-rendering:optimizeQuality; fill-rule:evenodd; clip-rule:evenodd"
viewBox="0 0 279.63 139.83"
 xmlns:xlink="http://www.w3.org/1999/xlink"
 xmlns:xodm="http://www.corel.com/coreldraw/odm/2003">
 <defs>
  <style type="text/css">
   <![CDATA[
    .fil0 {fill:black}
    .fil2 {fill:red}
    .fil1 {fill:white}
   ]]>
  </style>
 </defs>
 <g id="Camada_x0020_1">
  <metadata id="CorelCorpID_0Corel-Layer"/>
  <g id="_1896267030880">
   <path class="fil0" d="M29.25 0c4.48,0 45.9,16.69 48.84,16.69l5.8 -10.41c2.54,-3.52 9.72,-0.26 12.59,1.65 2.23,1.48 4.91,3.01 3.91,6.59 1.59,-0.03 5.53,-2.57 5.67,0.78 0.11,2.54 1.12,1.14 1.17,2.65 0.06,1.14 -1.12,1.37 -1.73,2.15 0.59,0.75 2.56,3.51 0.39,4.02 0.06,0.61 0.53,1.56 0.45,1.95 -0.11,0.5 -0.81,1.03 -0.75,1.56 0,0.02 2.03,3.9 -5.19,4.66 -2.9,0.31 -3.1,-0.78 -4.38,-1.06 -0.59,0.92 -1.34,1.67 -1.45,2.18 6.12,0 2.83,0.78 4.58,0.78 1,-0.22 0.7,-0.87 2.74,-0.92l10.24 -0.17c-1.44,-1.81 -2.73,0.81 0.28,-8.43 1.67,-5.11 2.7,-5.12 6.64,-2.87 1.32,-2.12 4.44,-4.82 8.21,-4.13 2.9,0.5 3.13,3.01 3.52,3.68 0.95,0 1.06,-0.22 2.01,-0.17 1.28,0.06 0.36,0.31 1.65,0.34 0.4,-1.23 3.97,-4.7 6.39,-0.78 1.23,-0.7 1.56,-2.54 3.82,-2.48 3.3,0.07 2.68,2.72 3.04,4.41 1.75,-0.27 0.29,-1.43 1.95,-3.13 1.65,-1.73 5.19,-1.7 5.44,0.73 0.2,2.05 -2.76,5.19 -2.76,8.21 1.73,0 3.66,-0.56 4.97,0.28 1.45,0.91 1.94,3.67 -1.65,4.07 -2.29,0.25 -5.27,0.14 -7.54,0.59 1.12,1.43 6.2,2.8 6.2,8.18 0.64,-0.39 0.73,-1.87 1.06,-2.96 1.65,-5.58 0.45,-6.17 5.89,-6.17 -0.45,-1.65 -1.95,-0.61 -0.59,-5 0.79,-2.51 2.6,-7.94 6.11,-7.09 2.51,0.61 0.64,-1.43 5.47,0.61 1.26,-1.53 3.82,-6.6 7.01,-3.46 0.98,0.95 0.61,1.56 0.5,2.82 0.98,-0.2 1.65,-0.89 2.57,-1.23 1.95,-0.67 1.76,-0.14 3.29,-0.03 3.28,0.27 6.67,-1.62 12.11,-0.95 1.73,0.2 4.3,-1.06 6.53,2.51 2.79,0 2.54,1.34 4.21,-0.92 1.68,-2.27 4.18,-0.62 4.21,-0.61 1.03,-0.2 0.95,-0.75 2.2,-0.78l6.03 2.48c1.79,-0.2 3.79,-7.41 8.43,-1.54 4.71,-2.13 4.26,-0.09 6.59,0.92 0.64,-0.28 0.84,-0.47 1.45,-0.78 2.2,1.26 1.99,0.72 5.08,-2.04 2.96,-2.64 5.27,0.78 5.64,0.89 1.51,0.47 5.33,-1.42 7.31,-0.31 0.92,0.5 4.3,3.38 4.69,3.46l6.95 -0.47 7.14 0.17c3.29,0.03 6.34,-0.89 5.22,3.18l-13.03 47.5c-0.29,1.01 0.51,8.01 -4.55,16.72 -2.02,3.48 -1.71,16.01 -5.81,19.84 -2.75,2.57 -6.14,0.03 -7.67,0.03 -3.57,4.52 -11,5.3 -11.53,6.95 0.44,0.54 11.72,3.66 6.14,10.74 -3.63,4.6 -9.32,4.63 -10.24,4.97 -1,0.36 -0.89,3.57 -3.91,5.81 -10.78,7.99 -24.46,-5.67 -10.66,-8.37l-4.19 -4.33c-0.31,1.17 -1.98,1.73 -3.63,1.2 -2.82,-0.89 -0.22,-4.72 -4.38,-7.9 -1.55,-1.23 -4.11,-3.11 -6.2,-2.68l8.57 14.29c1.84,4.55 -5.67,9.35 -10.49,9.88 -6.2,0.7 -8.12,-2.15 -10.38,-3.99 -0.56,0.34 -0.78,0.95 -2.2,1.84 -9.01,5.66 -19.74,0.51 -18.64,-4.02 -0.37,0.08 -7.83,6.21 -16.21,2.9 -3.52,-1.4 -2.46,-2.62 -4.07,-2.74 -1.83,3.2 1.84,3.27 -11.89,3.27 -6.87,0 -12.61,1.55 -12.61,-2.32 -1.28,0.25 -2.8,2.42 -8.96,2.48l-29.11 0.45c-5.16,0 -2.87,-0.31 -4.38,-1.23 -0.89,0.2 -0.75,0.47 -1.09,1.09l-12.28 0.31c-2.18,0.2 -2.4,-0.56 -2.71,-1.06 -2.56,0 -6.83,2.95 -16.24,1.51 -3.66,-0.56 -3.46,-1.76 -5.33,-1.67l-39.91 4.05c-2.9,-0.23 -1.44,-3.27 -1.28,-7.26l1.45 -17.5 0.36 -6c0.25,-3.71 0.5,-3.38 2.18,-4.33 -0.01,-0.46 -1.45,-2.32 1,-4.1l6.14 -4.24c-1.04,-0.42 -6.3,0.61 -8.54,-3.77 -1.95,-3.8 7.54,-9.1 8.18,-12 1.42,-6.47 12.81,-44.39 12.25,-46.44 -4.53,2.15 -4.77,-2.36 -1.81,-4.94l0.86 -2.12c-1.78,0.79 -3.23,1.33 -5.3,-0.47 -2.4,-2.09 0.78,-2.79 1.76,-4.47l6.64 -10.8c1.92,-2.37 -2.08,-1.33 -1.73,-3.93 0.08,-0.61 0.56,-1.31 0.45,-1.81 -0.61,-2.66 3.15,-5.37 4.88,-5.64l-0.02 -0.01z"/>
   <path class="fil1" d="M47.03 50.07l1.98 -18.84c-1.12,0.3 -1.48,2.16 -4.19,3.4 -3.15,1.45 -7.23,1.17 -7.51,-2.18 -0.17,-2.07 -0.59,0.75 -3.99,2.23 -8.44,3.68 -5.05,-6.81 -9.54,9.6l-9.13 35.05c3.03,-1.61 7.29,-6 12.36,-4.02 4.48,-3.64 3.28,-3.16 6.06,-13.06l4.35 -14.62 -2.4 22.47c-0.28,2.46 -0.45,1.06 1.48,2.15 1.42,0.81 2.26,2.4 2.62,3.82 1.93,-0.39 2.12,-2.04 5.67,-0.61 0.7,0.28 -0.25,0.17 0.87,0.28l11.22 -25.4c0.25,-0.45 0.84,-1.31 0.92,-1.48l-7.2 27.27c-1.52,5.37 -0.24,2.82 9.54,2.18 4.63,-0.08 3.96,-0.28 4.63,-2.87l8.99 -32.93 2.65 -11.08c-1.48,0.2 -1.28,1.03 -2.57,1.03 -0.95,0 -1.54,-1 -2.4,-1.14 -2.51,-0.43 -1.87,0.22 -5.92,-1.48 -2.46,-1.03 -3.43,-1.79 -5.36,-1.31 -3.46,0.87 -3.68,-0.2 -4.8,2.6l-8.29 19.03 -0.06 -0.08z"/>
   <path class="fil1" d="M101.84 35.28l-8.68 30.7c-0.61,1.9 -1.28,6.5 -3.13,6.95 -4.2,0.99 -2.86,-1.72 -2.48,-3.52l9.02 -33.69c0,-0.7 -0.47,-0.47 -2.37,-0.47l-12.45 0.17c-2.06,4.64 -4.07,13.34 -5.53,18.98 -1,3.85 -6.08,19.18 -4.72,22.63 8.31,0.14 19.69,-2.98 23.28,-1.45 1.79,0.76 1.05,2.23 5.64,4.24l4.21 0.03 11.3 -41.05c1.17,-5.3 3.38,-3.54 -14.09,-3.54l0 0.03z"/>
   <path class="fil1" d="M223.33 69.46c0,-2.56 2.12,-9.13 6.33,-11.36 0.53,-0.28 1.14,-0.59 1.67,-0.81 0.03,0.2 -2.75,12.4 -4.33,13.4 -1.45,0.92 -3.66,0.78 -3.66,-1.26l-0.03 0.03zm-9.52 -18.73c0,0.78 2.87,0.28 4.74,0.31 10.87,0.07 9.48,0.76 10.35,-2.71 0.45,-1.7 1.87,-7.67 3.54,-7.67 1.54,0 2.74,-0.31 2.74,1.7 0,11.38 -9.41,9.25 -18.47,13.93l-3.43 2.07c-2.6,2.53 -7.61,15.64 -3.38,18.95 0.7,-0.12 1.88,-1.33 4.47,-1.59 7.99,-0.79 4.28,5.22 10.58,0.7 0.5,-0.36 1,-1 1.73,-1.23 0.14,0.92 -1.37,4.1 0.5,2.2 0.7,-0.71 0.79,-1.77 3.29,-2.15 3.99,-0.61 5.37,2.58 5.41,2.62l5 0.22c1.96,-7.03 9.46,-33.15 9.49,-38.07 0,-1.17 -1.34,-3.52 -2.46,-4.52 -2.6,-2.35 -8.55,-3.26 -11.75,-2.93 -1.62,0.14 -1.76,2.96 -4.88,1.06 -2.68,-1.64 -10.25,3.35 -12.11,5.08 -3.02,2.82 -5.53,11.06 -5.53,12.03l0.17 -0z"/>
   <path class="fil1" d="M207.22 60.28c-0.03,-0.01 -12.98,-0.7 -13.76,0.81 -0.75,1.48 -1.79,8.32 -3.52,9.88 -1.26,1.12 -2.65,1.14 -3.63,-0.08 -1.09,-1.35 3.92,-18.02 5.05,-21.96 0.53,-1.73 1.34,-5.97 2.34,-6.98 0.95,-0.95 3.24,-1.4 3.66,0.36l-1.84 8.34c1.65,0.84 12.11,0.12 14.21,0.06 0.7,-1.23 1.45,-6.08 1.45,-8.04 0.02,-12.92 -25.31,-12.93 -32.68,0.08 -2.93,5.18 -6.47,20.12 -7.48,26.48 -2.39,15 28.6,13.8 33.94,-1.62l2.12 -7.37 0.14 0.03z"/>
   <path class="fil1" d="M132.04 65.58c0,8.28 -6.2,7.69 -6.2,5.89 0,-3.04 1.16,-5.24 1.65,-7.09l-13.17 -0.14c-1.17,0 -3.08,9.1 -1.12,11.92 2.29,3.24 3.38,1.84 5.13,1.84 1.12,0 1.95,0.25 2.9,0.14 10.27,-1.19 3.61,3.55 11.53,1.73 8.14,-1.87 11.19,-5.82 13.37,-12.81 4.42,-14.22 -11.2,-11.74 -14.26,-18.87 -0.1,-0.24 0.51,-4.46 2.23,-5.69 1.99,-1.42 4.54,-0.41 3.26,2.43l-0.89 4.27 12.92 -0.11c1.38,-0.21 2.23,-7.24 2.23,-8.34 0,-4.13 -8.63,-7.61 -15.35,-6.84 -10.04,1.15 -16.85,4.13 -18.53,14.54 -1.3,8.03 1.76,8.99 10.55,13.98 1.14,0.64 3.74,2.01 3.74,3.18l-0 -0.03z"/>
   <path class="fil1" d="M30.98 126.73c2.44,3.61 -5.72,10.06 -12.31,6.84 -4.33,-2.12 -2.85,-6.75 0.84,-8.12 3.54,-1.31 5.47,-0.14 6.5,-0.84l-9.8 -17.58c2.1,-1.82 3.53,-0.29 3.6,-0.25 5.09,2.7 14.21,3.46 17.05,8.34 1.28,2.2 1.06,5.13 -0.14,7.26l-0.87 -0.06c-0.82,-1.5 0.68,-4.85 -5.83,-8.2 -1.56,-0.81 -5.47,-1.56 -7.17,-1.45 -0.12,1.44 6.99,12.15 8.15,14.07l-0.03 -0zm19.81 -21.1c0,-4.03 3.72,-4.46 -8.51,-2.87 -0.87,0.14 -1.51,0.47 -2.29,0.47l-25.7 2.46c-2.48,0.67 -2.15,2.32 -6.81,0.98 -3.27,-0.92 -2.43,0.92 -2.79,4.35l-1.84 22.77c-0.14,5.02 -1.86,4.54 5.11,3.85l25.65 -2.74c12.99,-1.28 3.53,1.05 8.23,-8.68 1.62,-3.36 1.26,-2.67 6.22,-2.74 4.12,-0.06 -0.09,-2.64 -0.34,-2.85 -3.48,-2.96 -0.05,-9.4 2.34,-12 1.37,-1.49 0.49,-2.53 0.73,-3.01z"/>
   <path class="fil1" d="M143.01 90.17c0.02,-0.65 2.19,-4.22 3.66,-4.33l-1.79 4.21c-0.67,0.42 -0.98,0.11 -1.87,0.11zm-21.96 6.33c-3.22,0 -1.41,3.54 -7.7,3.54 -3.07,0 -4.01,-1.78 -5.05,-3.01 -1.15,-1.36 2.86,-5.12 3.77,-6.28 1.06,-1.34 3.46,-2.07 4.3,-3.32 3.54,-5.26 4.73,-1.64 5.44,1.65 0.45,2.09 4.97,2.54 6.28,0.2 1.43,-2.71 3.27,-1.78 -0.06,-7.48 -2.09,-3.58 -4.67,-2.64 -10.13,-2.4 -3.52,0.15 -3.62,1.81 -6.31,3.68l-4.33 3.77c-0.31,0.36 -5.5,4.08 -6.86,7.98 -0.68,1.94 -1.97,3 0.03,6.42 1.26,2.15 6.7,5.36 9.85,5.39 3.89,0.05 5.23,-1.35 7.31,-1.03 -0.13,0.43 -3.28,3.57 2.01,3.57 5.37,0 14.52,-14.09 17.58,-14.09 1.67,0 5.05,-0.17 6.17,0.06 0.31,1.98 -2.74,5.72 -1.51,7.31 2.19,2.86 6.85,0.93 7.79,-4.3 0.22,-1.26 0.84,-2.6 1.28,-3.71 1.06,-2.65 0.95,-5.66 3.32,-11.55 2.62,-6.5 -1.24,-8.58 -5.02,-6.11 -2.65,1.7 -3.54,2.46 -5.39,4.88l-16.21 14.74c-2.15,1.45 -1.87,3.1 -4.07,1.28l-2.49 -1.17z"/>
   <path class="fil1" d="M261.31 23.36l-13.06 47.53c-0.42,1.34 -1.79,5.97 -1.73,7.12 8.06,0.58 6.29,-0.74 7.87,-2.26 1.84,-1.79 1.06,-2.09 2.74,-3.4 2.9,-2.23 5.78,-0.42 6.31,-0.34l12.14 -43.2c2.01,-7.86 4.91,-5.44 -14.26,-5.44z"/>
   <path class="fil2" d="M243.81 89.73l-0.39 -6.64c-0.98,-2.74 -4.52,-2.09 -5.53,-1.14l-6.56 9.6 -0.56 0c0,-4.82 6.27,-13.16 2.18,-14.54 -3.38,-1.14 -3.71,0.17 -4.91,2.46 -3.18,6.07 -4.53,14.65 -6.25,21.32 -0.82,3.18 -2.02,6.15 0.08,8.85 2.82,3.6 6.14,-2.43 7.79,-4.66 1.62,-2.21 5.04,-8.32 6.25,-8.6 0.6,6.17 4.11,6.18 7.79,3.35 3.12,-2.4 8.65,-11.5 8.65,-9.68 0,2.55 -3.93,14.59 -1.9,16.94 1.82,2.1 6.19,0.09 6.31,-6.22l2.34 -10.72c1.4,-5.79 7.67,-14.25 2.99,-17 -3.59,-2.1 -5.08,2.79 -7.95,5.72l-9.04 10.16c-0.31,0.5 -0.59,0.81 -1.34,0.87l0.06 -0.06z"/>
   <path class="fil1" d="M83.92 99.94c-2.05,0 -2.99,-4.75 0.03,-7.56l4.94 -4.8c4.07,-3.95 3.46,-3.73 5.94,-2.76 2.33,0.91 3.28,0.01 -0.42,5.27 -2.49,3.55 -5.68,9.82 -10.52,9.82l0.03 0.03zm-18.31 -17.16c1.23,0 2.96,-0.17 3.82,0.31 -0.22,0.98 -4.21,5.05 -5.16,6.45l-5.02 8.93c-0.51,1.46 -6.6,9.54 -6.2,10.97 0.67,2.34 5.72,1.51 7.31,-1.7l2.74 -4.97c1.31,-2.74 9.85,-15.57 11.53,-17.64 4.07,-5.02 2.23,-2.93 14.23,-4.52 -0.14,1.22 -3.21,1.6 -6.81,4.44l-4.33 4.07c-5.15,3.33 -1.57,15.62 2.29,17.36 4.08,1.84 6.27,-1.96 8.76,-3.21 2.04,-1.02 5.21,-4.89 7.09,-6.84 2.51,-2.6 7.62,-6.34 7.62,-10.72 0,-1.9 -5.3,-6.61 -8.43,-6.64 -0.33,-1.17 0.3,-2.76 -3.29,-2.62l-18.87 2.01 -20.76 2.09c-2.99,0.89 -3.15,4.1 0.5,3.68l12.95 -1.42 0.03 -0.03z"/>
   <path class="fil1" d="M147.95 75.38c0.75,-0.02 7.86,-2.73 8.43,2.09 0.39,3.33 1.1,1.06 5.94,1.95l12.7 -45.1 -15.13 0.06c-1.09,0.18 -3.18,8.88 -3.57,10.55l-8.34 30.45 -0.03 -0z"/>
   <path class="fil1" d="M85.57 124.53c-2.48,0.06 -4.27,0.92 -2.87,-1.51l6.31 -10.38 -3.43 11.89zm-5.3 5.25l3.29 0.17c-0.55,6.04 -7.04,5.4 9.32,5.08l6.78 -29.69c-3.07,0 -5.22,-0.08 -8.23,0.11 -4.49,0.28 -2.6,-0.61 -4.72,1.14 -3.6,3 -2.92,-0.69 -5.83,4.05l-14.54 23.28c-0.31,0.5 -1.09,1.12 -0.59,1.34 0.36,0.17 9.43,0.03 10.33,-0.08 1.79,-0.25 2.71,-5.41 4.21,-5.41l-0.03 0.03z"/>
   <path class="fil1" d="M112.22 121.54l2.32 0.61c0.05,0.12 -0.68,6.37 -4.21,7.4 -3.2,0.93 -2.22,0.4 0.95,-7.12 0.25,-0.59 0.28,-0.73 0.95,-0.89l0 -0zm1.76 -4.49c-0.39,-1.94 3.46,-5.81 1.93,-7.34 -1.45,-1.45 -0.61,-1.17 -1.28,-2.32 -0.87,0.06 -0.75,0.25 -1.62,0.5 -3.04,0.84 -4.16,-0.34 -6.08,-0.34l-11.89 27.52 19.23 -0.45c7.53,-0.37 8.38,-5.89 9.82,-8.54 2.94,-5.4 0.95,-5.62 -2.09,-7.28 3.56,-1.29 3.83,-1.03 5.53,-3.1 1.28,-1.56 3.76,-6.46 1.87,-8.23 -3.79,-3.56 -2.77,2.27 -8.29,2.96 -2.7,0.33 -0.57,0.1 -2.99,4.6 -0.78,1.42 -1.98,2.26 -4.16,2.12l0.03 -0.11z"/>
   <path class="fil1" d="M70.39 28.91c-1.05,0 -1.71,-0.32 -0.87,-1.17 0.73,-0.75 0.36,-1.23 1.03,-2.09 2.19,0.14 1.42,3.24 -0.17,3.24l0 0.03zm-23.61 -1.23c0,2.19 -4.07,4.97 -5.16,5.3 -0.31,-0.81 -1.51,-1.73 0,-3.66 0.59,-0.78 2.6,-4.66 4.58,-5 0.76,2.42 -0.76,3.07 0.61,3.35l-0.03 0zm-12 -0.17c0.36,0.5 -0.22,0.22 0.67,0.31 -0.2,2.96 -7.42,7.49 -5.61,2.34 0.36,-1.01 3.24,-5.64 5.25,-5.92l-0.31 3.27zm18.62 -3.54c1.77,-0.06 1.53,-2.36 2.93,-4.63l8.99 3.24c3.01,2.83 1.74,0.96 4.74,2.65l-1.84 2.82c-0.9,-0.08 -6.65,-2.03 -6.84,-3.18 -0.17,-1.04 0.88,-1.32 0.28,-2.32 -2.37,0.49 -1.64,3.17 -1.95,3.6 -1.31,0 -0.22,-1.14 -5.11,-0.31 -0.89,0.17 -4.8,0.87 -5.5,0.81 -2.23,-4.19 -1.56,-2.74 1.65,-4.86 4.58,-3.01 2.6,-0.47 2.68,2.12l-0.03 0.06zm-5.5 -7.73c1.17,0.34 4.94,1.34 4.94,2.48 0,0.84 -4.74,3.13 -5.05,3.18 -0.98,0.17 -0.75,-0.59 -0.64,-2.4 0.11,-1.62 -0.08,-2.18 0.75,-3.24l0 -0.03zm-12.31 5.72c-0.82,-1.28 0.1,-7.67 0.61,-8.99 2.87,-0.34 2.37,-0.2 5.27,0.81 5.36,1.81 1.93,1.09 -1.17,5.13 -0.5,0.67 -3.38,3.29 -4.72,3.04l-0 0zm-7.45 -16.72c-0.2,-3.46 2.36,-2.42 3.66,-2.01 -0.84,0.5 -1.95,-0.08 -2.18,2.15l1.14 0.81c-1,0 -1.9,-0.59 -2.62,-0.92l0 -0.03zm-1.65 -0.78c0,1.62 0.45,0.92 0.56,1.87 -3.35,0.7 2.02,3.14 2.04,3.24l-9.4 14.99c-2.16,1.53 0.64,1.73 0.98,1.73 0.67,0 1.06,-1.59 1.28,-2.01l9.1 -14.23c0.98,0.11 2.34,0.64 2.99,1.23l-7.12 12.22 -3.46 6.67c-0.36,0.73 -1.73,2.12 -1.31,2.71 1.97,-0.41 9.87,-18.62 12.25,-18.7l-1.12 6.64c0.22,2.57 0.7,1.59 -1.65,3.85 -8.8,8.52 -2.01,12.51 3.29,7.26 4.51,-4.47 1.48,-7.69 1.48,-8.04 0,-0.73 2.07,-1.34 2.82,-1.95 2.44,-1.96 3,-4.42 5.78,-6.11 2.12,-1.31 1.09,1.67 0.95,3.13 -0.42,4.02 0.34,2.74 -2.62,5.53 -10.3,9.74 -0.23,13.28 4.21,5.75 0.59,-1 0.61,-2.37 2.29,-2.34 0.25,1.34 -0.75,1.67 5.22,0.34 1.87,-0.42 5.05,-1.2 6.98,-1.2 3.17,0 11.53,7.42 11.53,-1.45 2.68,-0.81 -1.87,-1.84 -3.82,-2.6l-41.56 -15.29c-2.54,-2.72 8.06,1.58 9.1,1.95l37.71 13.68c2.24,-2.24 -1.43,-2.78 -1.87,-2.96l-41.72 -15.07c0.22,-0.47 0.17,-0.39 0.47,-0.78l11 3.99 23.28 8.2 10.1 3.43 1.7 -0.92c-0.53,-1.47 -12.78,-5.14 -15.94,-6.25l-31.59 -11.22c-2.17,-0.19 -3.82,2.65 -3.82,2.82l-0.09 -0.08z"/>
   <path class="fil1" d="M51.16 110.29c-1.09,0 -3.1,5.64 -3.1,6.64 0,4.32 9.95,7.12 9.88,8.99l-1.06 3.13c-1.54,2.85 -4.66,2.23 -4.49,1 0.1,-0.72 1.9,-3.32 1.9,-5.22 -12.05,0.24 -9.45,-1.13 -11.72,4.94 -3.02,8.08 14.58,7.28 20.4,3.8 2.65,-1.59 3.93,-3.82 5.02,-6.73 1.85,-4.89 1.49,-6.33 -5.47,-9.8 -2.26,-1.14 -3.15,-1.51 -3.15,-3.21 0,-3.81 4.58,-4.27 4.58,-3.07 0,1.37 -1.2,2.34 -1.23,3.82l9.94 -0.36c0.34,-0.39 1.84,-4.83 1.93,-5.64l-0.56 -0.17c0.94,-2.3 -7.12,-3.38 -9.13,-3.38 -2.5,0 -2.69,7.06 -9.66,7.01 -3.54,-0.03 -3.04,-1.73 -4.05,-1.73l-0.03 -0.03z"/>
   <path class="fil2" d="M178.14 114.31c-4.86,0 -5.89,-1.45 -10.07,-1.54 -2.36,-0.06 -4.77,-0.59 -4.77,-2.18l4.6 0.31 10.27 2.12c0.34,0.22 0.98,1.26 -0.03,1.26l0 0.03zm3.13 14.23c-0.9,0.75 -1.45,-0.31 -5.14,-0.31 -3.91,0 -7.73,2.46 -7.59,4.6 0.14,2.46 3.96,5 7.23,5 3.54,0 8.36,-1.42 10.19,-4.69 0.7,-1.25 -4.3,-21.79 -4.63,-22.38 -0.62,-1.11 -0.88,-0.61 -4.07,-1.65l-16.13 -2.43c-2.23,-0.61 -2.15,0.22 -1.51,2.68l1.73 16.91c-0.75,0.15 -12.81,-2.76 -12.81,4.83 0,3 6.23,5.7 11.41,3.29 7.1,-3.3 5.71,-2.34 5.25,-7.93 -0.28,-3.33 -1.96,-8.67 -1.28,-11.28 1.37,-0.28 7.93,0.87 9.35,1.23 5.33,1.37 6.25,-0.11 6.59,3.88 0.14,1.64 2.22,7.75 1.45,8.37l-0.03 -0.14z"/>
   <path class="fil1" d="M142.28 134.57c1.37,0 1.09,-0.67 2.07,-2.74 0.31,-0.67 1.23,-2.34 1.17,-3.1 -5.8,-1.69 -9.15,2.98 -6.25,-3.4l1.59 -3.32 6.78 -0.14c2.98,-6.83 3.94,-5.53 -4.38,-5.44l2.57 -5.72c7.67,0 6.78,0.82 8.48,-2.9l1.14 -2.96c-1.7,-0.34 -12.08,0.11 -15.68,0.11 -3.54,0 -1.29,-1.43 -5.13,6.2l-10.05 22.77c-0.42,0.78 -0.14,0.73 0.87,0.73l16.88 -0.17 -0.06 0.09z"/>
   <path class="fil2" d="M27.94 76.58c-5.02,0 -2.23,-2.05 -9.43,2.06 -4.99,2.85 -8.74,7.71 -10.08,8.65 -4.49,3.16 -3.65,6.22 1.28,7.37 1.62,0.39 4.07,-0.59 6.56,0.81 -0.3,0.94 -7.72,4.6 -9.35,7.09 -1.34,2.05 2.04,3.87 4.74,2.48l14.21 -8.4c4.2,-2.56 2.54,-4.94 0.61,-5.78l-9.32 -1.23c-3.22,-0.09 -0.87,-1.51 1.09,-3.43 1.01,-0.99 3.3,-3.2 4.77,-3.24 0,5.05 3.04,5.76 6.11,1.9 5.76,-7.25 10.22,-8.12 6.84,-11 -3.6,-3.06 -6.78,2.74 -8.01,2.74l-0.03 -0.03z"/>
   <path class="fil2" d="M232.56 123.22c0.64,-1.72 0.53,-2.85 1.37,-2.85 0.01,0 6.5,0.77 2.32,5.36 -1.42,1.56 -4.69,1.84 -4.69,0.84l1 -3.35zm-12.36 -1.17c0,-3.95 7.7,-7.36 11.19,-7.09l0 1.23c-9.75,1.69 -6.99,6.81 -6,6.81 0.4,0 6.13,-5.88 4.02,-0.45 -1.67,4.3 0.31,5.22 -4.41,3.88 -1.79,-0.5 -4.72,-2.37 -4.72,-4.35l-0.08 -0.03zm16.27 -11.75c-0.43,-1.49 1.53,-3.31 2.68,-4.38 2.68,-2.49 8.6,-2.26 3.07,2.01 -0.87,0.67 -4.74,2.37 -5.78,2.4l0.03 -0.03zm-2.01 5.58c0,-3.61 8.94,-3.53 12.95,-9.46 1.6,-2.36 0.32,-8.04 -10.02,-1.84l-3.8 3.91c-1.89,2.89 1.94,1.26 -5.67,3.88l-6.92 2.68c-2.73,1.33 -5.02,4 -5.02,7.2 0,1.93 2.2,4.02 3.82,5.13 4.58,3.13 4.88,1.84 6.81,2.6 0.53,1.98 -0.78,3.79 -2.18,5 -1.17,0.92 -2.6,0.45 -2.96,0.45 0.18,-1.63 4.21,-1.98 0.87,-4.61 -2.12,-1.66 -8.66,-1.09 -7.93,2.65 1.1,5.61 10.07,4.93 12.67,2.71l3.15 -5.36c0.26,-1.42 3.78,-1.24 6.81,-2.32 5.88,-2.1 7.52,-8.56 -0.34,-11.22 -1.02,-0.35 -2.26,-0.38 -2.26,-1.4z"/>
   <path class="fil2" d="M184.17 99.77c0,-2.56 7.08,-13.89 2.99,-15.96 -3.49,-1.77 -5.16,2.55 -5.89,5.47 -0.47,1.9 -2.37,5.02 -3.01,7.2 -0.28,0.92 -0.39,1.9 -0.61,2.71 -0.78,2.6 -1.12,1.2 -0.42,4.47 0.42,1.95 2.57,3.4 4.21,3.4 1.02,0 6.3,-2.23 7.4,-3.63 1.41,-1.8 1.1,-0.62 1.28,0 0.31,1 1.09,0.73 2.62,1.03 2.69,0.53 2.82,3.45 4.97,-4.07l5.22 -16.3c0.47,-1.31 1.62,-2.76 1.23,-4.41 -0.2,-0.78 -2.37,-3.68 -4.86,-1.76 -3.14,2.42 -4.57,5.34 -6,9.02 -1.99,5.12 -3.72,8.09 -7.54,12.64 -1.18,1.41 -1.57,0.21 -1.59,0.19z"/>
   <path class="fil2" d="M159.67 97.46c0,-2.26 1.83,-5.9 3.6,-7.45 1.7,-1.48 1.81,-3.52 2.99,-3.52 2.09,0 3.4,7.28 1.84,9.29 -1.16,-0.26 -3.72,-5.32 -5.41,-0.73 -0.56,1.54 -0.14,2.01 1.06,3.13 4.99,4.66 -4.08,1.92 -4.08,-0.73zm-6.78 0.31c0,3.18 2.09,4.63 4.16,6.39 2.54,2.15 3.74,0.95 6.64,1.48 1.81,0.34 0.81,0.47 3.27,0.47 1.12,0 2.32,-1.76 3.4,-0.73 3.62,3.52 9.5,3.01 5.97,0.06 -1.54,-1.28 -1.54,-2.07 -2.34,-2.65 -3.62,-2.63 1.2,-1.1 1.2,-8.74 0,-3.92 -1.15,-10.8 -5.08,-13.34 -0.87,-0.56 -6.13,-0.87 -8.07,0.98l-5.55 7.2c-2.2,1.95 -3.65,8.23 -3.6,8.88z"/>
   <path class="fil2" d="M216.94 98.68c-0.34,0 -5.16,1.26 -6.22,1.7 -3.99,1.7 -2.65,-1.06 -2.4,-3.27 0.36,-3.02 7.91,-0.34 11.3,-2.96 2.15,-1.65 1.23,-4.6 -3.6,-4.6 -1.37,0 -8.16,2.88 -3.35,-3.15 3.58,-4.49 1.38,-3.36 3.88,-1 4.5,4.25 8.47,-3.5 1.73,-7.65 -5.47,-3.37 -10.55,3.75 -12.5,7.93 -0.44,0.94 -6.77,16.66 -4.1,19.06 3.23,2.92 7.11,2.68 11.33,0.98 0.11,-0.04 7.22,-1.24 6.73,-4.94 -0.2,-1.48 -1.94,-2.12 -2.79,-2.12l-0 0.03z"/>
   <path class="fil2" d="M189.47 106.41c0,2.25 5.83,11.54 7.31,13.76 0.78,1.2 1.31,2.62 2.07,3.66 3.69,5.07 -1.84,1.32 -5.72,3.35 -10.08,5.25 -0.65,12.19 7.09,9.52 0.56,-0.2 3.54,-1.98 4.24,-2.9 2.85,-3.76 2.65,-1.52 0.25,-6.86 -0.87,-1.95 -3.29,-4.55 -4.1,-6.45 -2.45,-5.73 -6.86,-8.49 -1.65,-7.48 3.55,0.68 9.26,2.25 10.88,5.8 0.5,1.12 1.4,3.18 1.4,4.41 3.69,-0.07 2.12,-7.61 -0.39,-9.74 -4.66,-3.96 -12.87,-4.79 -17.72,-7.28 -1.08,-0.55 -3.63,-1.12 -3.66,0.22z"/>
   <path class="fil2" d="M38.18 88.16c0,-0.47 1.26,-2.46 1.65,-3.1 2.51,-4.1 4.38,-1.06 4.38,-0.78 0,2.09 -0.78,1.51 -1.2,2.54 -0.45,1.14 0.56,0.84 -0.73,2.34 -0.7,0.84 -1.65,3.27 -2.48,3.77 -1.18,-0.67 -1.65,-3.06 -1.65,-4.8l0.03 0.03zm1.45 13.62c2.04,0 5.36,-4.88 5.36,-4.88l2.29 -4.72 2.93 -4.8c0.64,-2.76 -1.84,-2.74 -1.84,-3.71 0.18,-5.33 0.92,-3 -1.62,-5.44 -1.12,-1.09 -3.43,-2.43 -5.36,-1.7 -6.24,3.28 -8.93,9.21 -8.99,9.27 -0.73,0.73 -1.23,1 -1.03,2.48 0.46,3.38 3.47,13.48 8.23,13.48l0.03 0.03z"/>
   <path class="fil2" d="M197.34 22.58c0.03,-1.12 1.06,-1.28 1.84,-0.92 -0.14,0.39 -0.31,0.56 -0.56,0.92l-1.28 0zm-20.68 2.93c0,1.79 2.85,1.28 3.66,1.2 -0.11,1.09 -6.09,4.33 -6.98,5.5 0.08,0.36 0.14,0.36 0.2,0.78 1.95,0.14 1,0.59 4.02,-1.4 0.81,-0.54 7.87,-4.17 7.87,-5.41 0,-1.73 -4.38,-0.22 -4.38,-1.7 0,-0.61 1.34,-1.26 2.01,-1.4 1,1.28 1.45,1.45 2.32,0.39 1.14,-1.4 3.54,-2.48 3.54,-1.34l-2.23 8.32c-0.78,2.37 -0.31,2.51 1.51,2.51l2.96 -10.19c0.56,-1.31 1.98,-1.51 3.27,-1.26 0,5.02 -5.17,10.35 -1.12,10.35 1.93,0 0.67,-7.02 4.27,-3.91 2.57,2.23 2.96,3.74 4.52,3.74 0.21,0 2.85,-2.7 4.77,-2.32 0,0 0.59,3.23 2.23,1.12l2.18 -6.45c0.61,-2.2 2.26,-4.05 -0.22,-4.05 -2.5,0 -3.71,7.06 -5.83,7.73 0,-1.79 1.09,-2.99 1.28,-4.8 -3.74,-2.12 -3.01,2.96 -4.74,5.72 -1,-0.22 -3.01,-2.51 -3.49,-3.24 0.43,-0.54 6.7,-2.96 3.6,-5.05 -1.4,-0.98 -2.54,-0.45 -4.66,-0.7 -3.77,-0.43 -7.39,0.87 -12.28,0.81 -4.61,-0.06 -8.23,4.7 -8.23,5.11l-0.03 -0.08z"/>
   <path class="fil2" d="M252.6 26.9c0,-1.49 2.05,-4.63 2.74,-4.63 2.4,0 -0.19,5.69 -1.65,6.5 -0.56,-0.39 -1.09,-1 -1.09,-1.87zm-11.72 -5.41c0,0 0.41,3.16 -0.92,2.93 -0.95,-0.59 -0.73,-2.93 -2.74,-2.93 -2.85,0 -2.01,6.42 -3.96,6.22 -2.54,-0.25 -1,0.45 -3.71,0.45 -0.96,-3.62 5.13,-0.32 4.19,-3.71 -2.09,-0.42 -3.88,0.2 -2.54,-1.2 0.73,-0.75 0.5,-0.61 1.06,-0.64 0.27,0.65 1.83,1.54 2.07,-0.14 0.38,-2.66 -3.65,-4.28 -6.17,0.7 -0.57,1.13 -2.48,5.68 -1,6.67 1.7,1.12 4.27,-0.08 5.64,-0.11 0,1.51 -1.51,3.4 0.36,3.4 2.05,0 3.61,-7.89 3.66,-8.04 1.67,0.03 0.75,0.45 1.37,3.18 0.25,1.17 0.45,2.71 1.93,2.71 1.86,0 2.86,-9.39 4.94,-9.27l1.45 0.17c0.31,1.17 -3.06,8.48 -2.37,10.69 1.23,0.08 0.22,0.31 1.84,0l1.76 -6.39c0.95,-2.34 1.12,-4.88 3.74,-4.88 2.53,0 -2.43,2.67 -1.62,5.72 0.34,1.28 2.9,4.35 3.82,4.35 1.9,0 4.52,-5.81 5.08,-7.48 0.59,-1.78 -3.48,-4.44 -5.25,-4.44 -4.02,0 -3.1,0.61 -6.39,0.61 -2.2,0 -0.45,-1.87 -2.93,-1.87 -0.78,0 -0.92,1.23 -1.54,1.79 -0.6,0.55 -1.76,0.68 -1.76,1.62l-0 -0.11z"/>
   <path class="fil2" d="M136.25 30.48l2.04 -6.33c1.59,-3.6 0.59,-2.43 0.17,-3.74 -3.55,0 -3.78,6.67 -6.42,7.28 -0.19,-2.03 2.98,-4.94 0.2,-4.94 -2.15,0 -2.34,3.77 -2.87,5 -1.37,3.1 0.61,3.14 3.52,2.32 1.34,-0.39 0.84,-0.11 0.84,1.03 3.94,2.23 4.31,2.31 6.84,-2.57 0.39,-0.73 0.78,-1.14 1.76,-1.14 1.34,0 0.92,1.98 1.45,2.79l1.34 1.95c0.45,1.12 2.51,0.08 3.1,-0.08 3.24,-0.87 6.28,0.45 8.21,-1.42 -1.9,-2.57 -1.84,-0.33 -5.86,-0.95 -2.72,-0.42 2.37,-5.61 2.37,-9.29 0,-0.63 -1.87,-1.53 -3.49,3.27l-1.73 4.58c-0.28,1.14 -0.73,2.26 -1.93,2.54l0.34 -5.53c-0.8,-3.24 1.13,-10.75 -5.86,-0.36 -1.19,1.77 -2.85,5.35 -3.99,5.61l0 0z"/>
   <path class="fil1" d="M85.01 25.68l0.92 0.47c-0.03,3.24 -5.67,6.53 -5.67,4.02 0,-1.76 2.79,-7.35 4.77,-7.42 1,1.67 0.08,2.14 0,2.96l-0.03 -0.03zm-3.18 -5.83c-1.52,-1.05 -2.91,2.26 1.7,-6.08 4,-7.23 1.9,-7.57 7.17,-5.64 2.48,0.98 6.17,2.4 6.17,5.16 -0.56,0.17 -1.17,0.28 -1.65,0.47 0,9.51 -2.74,9.26 -2.74,12.06 0,0.02 1.89,2.98 -0.31,5.47l-3.1 0.5c-1.49,-2.83 3.38,-10.23 -4.27,-10.63 -4.32,-0.23 -3.46,1.61 -6.06,1.98 0.3,-0.69 3.04,-2.14 3.04,-3.29l0.03 -0zm-6.17 5.78c0.2,0.28 1.48,0.67 0.25,2.6 -0.56,0.87 -2.04,2.07 -2.09,2.71 1.7,-0.22 2.09,-2.18 3.57,-3.46l4.47 -4.63c-0.2,1.09 -2.04,1.98 -3.54,5.72 -0.95,2.32 0.64,5.89 5.25,3.49 1.95,-1.03 3.77,-3.63 3.8,-5.81 0.81,0.31 0.56,0.61 0.56,2.54 0,2.48 -2.48,4.1 3.13,3.88 2.55,-0.1 3.45,-2.66 3.82,-4.97 0,-0.73 -0.78,-1.26 -1.28,-1.51 0.14,-1.51 1.84,-4.94 3.46,-6.59 1.37,-1.37 6.39,-3.57 6.61,-3.85 -2.33,-0.61 -6.69,3.18 -7.42,3.18 -0.11,-0.78 0.39,-3.04 0.5,-3.96 1,-0.31 1.67,-0.31 1.54,-1.45 -0.28,-2.23 0.28,-1.76 -2.6,-3.85 -2.02,-1.48 -7.99,-4.67 -9.8,-2.79l-8.93 16.72 -1.28 2.04z"/>
   <path class="fil2" d="M220.03 23.97c-0.47,-0.81 -0.34,-2.48 -1.84,-2.48 -1.73,0 -1.48,2.29 -2.93,2.62 0,-1.65 1.37,-4.19 -0.2,-4.19 -1.9,0 -1.84,1.93 -2.51,4.21 -1.06,3.53 -3.28,7.67 -0.22,7.67 1.28,0 3.1,-4.1 4.02,-4.63 0.33,0.21 1.71,3.54 4.38,-0.17 0.61,-0.87 1.06,-1.93 2.2,-2.01 0,2.7 -2.03,5.89 0,5.89 1.9,0 2.04,-3.85 2.87,-6.36 0.84,-2.48 2.46,-4.24 1,-5.55 -1.34,-1.23 -2.2,0.22 -2.54,0.7l-4.24 4.27 0 0.03z"/>
   <path class="fil2" d="M172.84 24.59c-2.15,-0.05 -0.61,-2.93 -3.49,-2.93 -0.89,0 -0.84,1.12 -2.01,1.4 0,0 -0.92,-2.34 -2.48,-0.7 -0.67,0.73 -1.4,4.44 -1.81,5.72 -0.73,2.15 -1.37,3.74 1.4,3.8 0,2.23 1.96,2.31 2.96,-1.2 2.63,-9.27 3.02,-2.05 3.27,-1.56 0.7,1.42 0.7,2.26 1.84,2.48 1.93,-1.8 3.12,-6.77 4.27,-9.38 0.92,-1.9 2.23,-3.77 0.47,-3.77 -1.69,0 -4.02,4.82 -4.41,6.17l-0 -0.03z"/>
   <path class="fil2" d="M115.74 32.01c0,0.59 0.84,1.87 1.45,1.87 3.6,0 3.93,-2.76 6.39,-3.24 1.34,0.75 0.45,1.56 2.93,1.09 0.23,-0.8 0.28,-3.55 2.26,-5.53 0.67,-0.67 1.12,-2.07 0.11,-2.07 -2.87,0 -1.87,0.25 -3.91,0.56 -1.2,0.17 -2.68,-0.2 -2.68,1.14 0,1.28 3.82,0.03 -0.78,3.35 -0.59,0.42 -2.15,1.54 -2.87,1.59l4.05 -7.28c3.16,-3.46 2.54,-1.39 5.11,-1.39 1.98,0 -0.08,-5.59 -4.6,-2.04 -2.17,1.71 -5.25,5.17 -5.83,7.93 -0.11,0.53 -1.65,3.57 -1.65,4.02l0.03 0z"/>
   <path class="fil2" d="M102.4 20.12c-3.28,0.22 -6.97,9.21 -4.63,10.41 3.26,1.68 5.92,-1.05 5.92,-1.62 0,-1.28 -3.46,-0.64 -3.46,-0.64 0.06,-2.09 3.85,-1.12 3.85,-2.62 0,-1.6 -3.14,0.53 -2.54,-2.32 1.9,-0.36 1.12,0.03 2.57,0.31 0,-0 2.15,-2.65 -1.48,-3.4l1.48 -1.26c1,-1.56 -0.59,-1.23 -1.45,-0.45 -0.5,0.47 -0.59,0.89 -0.2,1.54l-0.06 0.06z"/>
   <path class="fil2" d="M113.37 31.87c2.07,0 1.81,-3.46 2.96,-6 1.31,-2.93 0.5,-2.74 0.17,-4.05 -2.12,0 -2.47,3.28 -3.27,5.92 -0.25,0.75 -1.2,4.13 0.14,4.13l0 -0z"/>
   <path class="fil1" d="M92.33 15.01l-0.73 2.99 -6.7 -3.57c-0.34,0.87 -0.08,0.67 1.34,1.54 5.96,3.62 7.37,4.37 7.37,-1.14 0,-1.4 -2.23,-1.7 -2.62,-2.79 1.12,0.2 0.67,0.47 1.7,0.61 0.17,-1.3 -1.98,-2.05 -3.29,-2.48 -3.29,2.1 2.91,2.67 2.93,4.86z"/>
   <path class="fil1" d="M62.88 25.87c1.31,-0.11 2.23,-1.56 1.84,-2.54 -1.03,0.22 -1.84,1.42 -1.84,2.54z"/>
   <path class="fil0" d="M197.34 22.58l1.28 0c0.22,-0.36 0.42,-0.53 0.56,-0.92 -0.78,-0.36 -1.81,-0.2 -1.84,0.92z"/>
   <path class="fil1" d="M31.65 30.28c0.98,-0.11 1.56,-1.03 1.59,-1.95 -0.75,0.31 -1.62,1.06 -1.59,1.95z"/>
   <path class="fil1" d="M42.93 30.31l1.65 -1.87c-1,0.2 -1.56,0.81 -1.65,1.87z"/>
   <polygon class="fil1" points="20.24,27.85 22.28,27.68 21.72,29.22 22.58,27.1 "/>
   <polygon class="fil2" points="168.63,30.17 169.55,30.17 169.18,29.08 "/>
  </g>
 </g>
</svg>
