<?xml version="1.0" encoding="UTF-8"?>
<!DOCTYPE svg PUBLIC "-//W3C//DTD SVG 1.1//EN" "http://www.w3.org/Graphics/SVG/1.1/DTD/svg11.dtd">
<!-- Creator: CorelDRAW -->
<svg xmlns="http://www.w3.org/2000/svg" xml:space="preserve" width="65.4058mm" height="61.5194mm" version="1.1" style="shape-rendering:geometricPrecision; text-rendering:geometricPrecision; image-rendering:optimizeQuality; fill-rule:evenodd; clip-rule:evenodd"
viewBox="0 0 108.26 101.83"
 xmlns:xlink="http://www.w3.org/1999/xlink"
 xmlns:xodm="http://www.corel.com/coreldraw/odm/2003">
 <defs>
  <style type="text/css">
   <![CDATA[
    .fil0 {fill:#060808}
    .fil1 {fill:#4A5C66}
    .fil2 {fill:#AC0100}
    .fil3 {fill:#FFCC00}
    .fil4 {fill:white}
   ]]>
  </style>
 </defs>
 <g id="Camada_x0020_1">
  <metadata id="CorelCorpID_0Corel-Layer"/>
  <g id="_2076567201376">
   <path class="fil0" d="M107.13 79.94c-0.18,-2.97 1.52,-14.16 1.05,-16.77 -0.42,-2.32 -1.89,-1.86 -4.47,-2 0.64,-1.8 6.41,-2.87 3.44,-6.77 -1.71,-2.23 -3.67,-4.39 -5.49,-6.54l-30.29 -36.06c-2.28,-2.77 -0.57,-1.23 -0.02,-3.74 0.42,-1.93 -0.82,-6.76 -4.13,-7.68 -2.25,-0.63 -10.09,-0.34 -12.79,-0.16 -3.2,0.22 -20.11,2.47 -23.2,3.1 -1.65,0.34 -3.61,0.78 -5.16,1.26 -3.13,0.96 -3.54,2.96 -8.03,4.43 -5.04,1.65 -4.24,3.56 -7.14,5.17 -3.12,1.73 -6.5,7.45 -7.62,10.5 -1.99,5.43 -3.05,13.34 -3.25,19.47 -0.13,3.82 0.2,6.56 1.3,9.99 1.82,5.68 2.82,3.98 2.36,8.95l-1.49 15.36c-0.29,2.8 0.71,2.46 3.7,2.47 2.18,0.01 4.31,0.05 6.49,0.07 4.7,0.06 4.76,-0.32 4.39,1.76 -0.41,2.36 -0.83,3 2.29,3.19 0.93,0.06 1.18,0.27 1.79,-0.02 0.7,-0.32 0.8,-1.04 0.88,-1.89 0.08,-0.85 0.15,-1.84 0.22,-2.82 1.71,0.12 2.71,0.29 3.88,-0.41 0.42,0.42 2.76,0.31 3.88,0.31 1.45,1.87 2.99,3.97 4.58,5.73l11.36 12.77c1.47,1.67 2.84,3.54 5.84,0.87l12.33 -9.35 4.29 -3.28 -0.11 -0.1 8.38 -5.43c1.35,-0.16 2.69,-0.31 4.19,-0.23 2.2,0.11 5.73,1.09 6.52,0.18 0.36,-0.41 0.41,-1.19 1.03,-1.22 0.62,-0.03 1.81,0.7 2.53,1.06 0.72,0.36 0.98,0.36 2.22,0.47 1.24,0.1 3.47,0.31 4.71,0.31 2.54,0 1.33,-1.11 3.88,-1.16 2.04,-0.04 4.33,0.44 5.66,-1.78z"/>
   <path class="fil1" d="M26.55 39.16l-0.05 -0.6 0.71 -0.29 -1.21 0.01c-0.11,-1.21 3.29,-4.59 4.05,-5.25 1.03,-0.89 1.92,-0.98 1.83,-2.76 -0.13,-2.49 1.45,-1.72 1.46,-3.05 -1.96,-0.83 -4.38,0.23 -4.2,-1.35 0.99,-0.33 2,0.14 2.91,-0.31 0.88,-0.67 -0.41,-3.93 1.85,-7.12 0.43,-0.61 0.78,-1.45 1.98,-1.17 -0.16,0.98 -1.49,2.03 -1.23,3.62 1.14,-0.49 4.1,-4.78 5.1,-5.91 2.56,-2.9 7.11,-6.34 11.79,-7.72 -0.48,-0.24 -1.1,-0.12 -1.77,0.02 -2.17,0.48 -4.14,1.5 -4.93,0.94 0.19,-0.56 0.66,-0.59 1.32,-0.83 0.54,-0.2 1.08,-0.4 1.61,-0.61 0.88,-0.35 2.65,-0.94 3.2,-1.39 -1.5,-0.31 -10.31,2.13 -11.92,2.63 -3.8,1.19 -4.68,1.5 -7.77,3.34 -0.78,0.46 -1.48,1.22 -2.79,0.62 0.37,-0.51 1.36,-0.87 1.96,-1.15 2.39,-1.16 3.78,-2.11 6.62,-3.32 6.72,-2.84 15.07,-5.06 22.86,-4.22 2.64,0.28 5.52,2.02 6.5,3.46 0.59,0.87 0.05,1.87 0.38,2.54 1.33,-0.14 -0.24,-3.55 -0.55,-4.19 -0.87,-1.77 -1.46,-2.23 -4.1,-2.47 -4.66,-0.42 -8.37,-0.2 -12.82,0.39 -4.19,0.55 -8.06,0.87 -12.37,1.3 -2.4,0.24 -6.07,1.14 -8.56,1.72 -0.47,0.11 -0.97,0.2 -1.39,0.3 -0.83,0.21 -0.79,0.12 -0.88,0.74 1.53,0.57 5,-1.24 6.72,-1.19 -0.7,3.51 -7.67,2.83 -8.85,3.02 -1.66,0.27 -6.18,2.4 -7.82,3.8 -1.87,1.61 -1.04,2.31 -4.05,3.65 -2.41,1.07 -5.19,6.24 -6.28,8.51 -2.64,5.51 -4.47,18.26 -3.4,24.27 0.42,2.34 2.65,8.94 3.88,10.61 0.57,0.77 1.85,1.07 3.15,0.66 2.08,-0.65 0.86,-0.61 3.14,0.01 3.6,0.98 11.52,0.09 14.25,-1.26 1.76,-0.87 2.45,-3.33 0.6,-4.84 -1.17,0.37 -0.29,1.28 -2.27,1.53 -1.56,0.2 -2.04,0.06 -3.59,0.57 -1.5,0.5 -4.94,1.67 -6.52,1.67 -3.14,-0.01 -7.1,-4.87 -8.49,-7.22 -3.59,-6.04 -2.15,-10.59 0.72,-16.93 0.46,-1.01 1.17,-1.25 1.95,-1.97 0.68,-0.63 1.09,-1.4 2.47,-1.56 -0.29,0.91 -0.62,1.17 -0.08,2.21 0.34,0.66 0.82,1.49 1.65,1.58 0.77,-1.94 -1.77,-4.38 1.16,-8.04 0.57,-0.71 1.9,-1.96 3.37,-2.13 3.04,-0.36 2.68,2.02 3.67,1.45 0.61,-0.61 -0.08,-2.03 0.06,-2.89 3.71,-0.53 1.63,2.49 1.53,8.33 -0.08,4.63 -0.24,4.1 1.27,4.12 1.69,0.02 -0.42,1.9 1.14,4.02l1.01 0.09zm5.05 3.33c0.7,-1.62 0.17,-2.62 -1.73,-2.11 -4.15,1.11 -2.9,0.27 -4.75,-0.16 -0.59,1.19 -1.56,1.45 -3.49,1.14 -1.62,-0.26 -2.43,-1.01 -3.88,-1.24 0.71,2.86 4.93,4.1 6.22,4.1 1,-0 5.07,-2.08 5.57,-2.16 1.2,-0.18 0.77,0.53 2.05,0.42zm-3.13 21.42c0.19,-0.85 -0.69,-2.64 -1.21,-3.2 -1.42,-0.04 -5.52,1.73 -10.36,1.96 -1.02,0.05 -3.51,-0.41 -3.53,0.59 -0.02,1.06 2.15,0.73 3.19,0.78 2.78,0.14 10.31,0.64 11.9,-0.13z"/>
   <path class="fil2" d="M54.5 60.87c0.8,0.44 0.73,0.29 1.06,0.8l16.57 -0.03c1.04,-0.65 1.77,-1.03 3.73,-0.98 0.73,0.02 1.57,0.22 2.15,0.19 0.97,-0.05 0.94,-0.45 1.98,-0.51 -0.16,-0.86 -2.99,-5.44 -3.64,-6.45 -1.39,-2.18 -2.58,-4.69 -4.45,-5.81l-0.56 1.45c-0.55,0.29 -0.44,0.62 -1.94,1.36 -0.88,0.44 -1.81,0.54 -2.63,1.08 -1.33,0.87 -2.8,4.46 -4.29,5.91 -0.85,0.82 -1.9,0.41 -3.32,0.5 -2.94,0.18 -3.49,1.53 -4.87,2.34 -0.02,0.46 -0.04,0.06 0.2,0.17zm-0.14 -3.99c0.57,-0.31 1.06,-0.68 1.86,-0.96 0.74,-0.26 1.66,-0.27 2.33,-0.66 -0.51,-1.48 -2.51,-0.66 -3.68,-0.35 -1.69,-0.57 -1.6,-1.57 -0.69,-2.82 1.26,-0.27 1.65,-0.71 3.44,-0.27 1.16,0.29 1.98,0.94 2.9,1.09 2.41,-1.42 0.21,-3.55 -0.69,-4.75 -0.61,-0.8 -3.61,-3.91 -1.96,-4.93 1.17,-0.39 4.22,4.46 4.91,4.93 0.97,0.66 3.49,0.65 4.75,0.2 1.43,-0.52 1.91,-1.55 3.85,-1.42 -0.08,-0.43 -0.03,-0.62 -0.09,-0.99 -0.09,-0.61 -0.04,-0.47 -0.43,-0.78 -0.27,-0.97 -2.23,-3.94 -2.89,-5.06l-6.07 -10.16c-0.93,-1.57 -3.26,-4.24 -3.27,-4.85 -1.12,0.16 -1.01,-0.05 -1.58,0.66 0.95,0.09 0.57,0.08 0.79,0.5 -7.76,1.07 -6.64,0.23 -6.95,4.85 -0.22,3.3 -0.38,6.69 -0.49,9.95 -0.09,2.83 -1.29,18.89 -0.5,20.24 0.3,-0.6 -0.16,-0.15 0.66,-0.46 1.36,-0.51 1.08,0.48 3,0.06 -0.08,-0.85 -1.37,-0.81 -0.85,-2.14 0.13,-0.34 1.31,-1.47 1.65,-1.88zm8.08 -11.74c-0.63,-3.3 3.34,-3.3 3.87,-0.3 0.57,3.21 -3.38,2.85 -3.87,0.3z"/>
   <path class="fil3" d="M70.86 45.16c0.39,0.32 0.34,0.18 0.43,0.78 0.06,0.37 0,0.55 0.09,0.99l0.52 1.13c1.87,1.12 3.05,3.63 4.45,5.81 0.65,1.01 3.48,5.59 3.64,6.45 0.2,1.15 1.31,0.86 2.74,0.81 4.8,-0.19 4.69,0.77 0.52,-4.84l-22.21 -29.55c-0.62,-0.83 -1.05,-1.84 -2.42,-1.65 0.01,0.6 2.34,3.27 3.27,4.85l6.07 10.16c0.67,1.11 2.62,4.09 2.89,5.06zm-2.99 34.37c-3.14,1.48 -5.17,2.4 -8.47,2.24 0,-0.15 0,-0.31 -0.01,-0.46l-1.56 0.14c-0.02,0.06 -0.04,0.12 -0.05,0.18 -3.18,-0.37 -3.05,-0.37 -6.63,-0.44 -1.68,-0.03 -3.86,-0.1 -4.93,-0.85 -0.63,-0.44 -0.87,-1.1 -0.97,-1.87 0.38,-2.19 0.52,-6.12 0.66,-7.53 0.12,-1.24 0.24,-3.36 0.63,-4.41 1,-2.65 2.36,-1.29 3.5,-1.99 1.08,-0.89 0.29,-2.42 -0.16,-3.25 -0.79,-1.35 0.4,-17.41 0.5,-20.24 0.11,-3.27 0.27,-6.65 0.49,-9.95 0.31,-4.62 -0.81,-3.77 6.95,-4.85 -0.21,-0.42 0.17,-0.41 -0.79,-0.5 -1.36,0.16 -2.72,0.41 -4.15,0.63 -4.12,0.64 -3.01,0.75 -4.46,9.08l-4.52 25.51c-0.18,1.12 -0.85,2.73 -0.14,3.62 1.46,1.84 0.62,4.38 0.38,7.46 -0.13,1.64 -0.59,4.17 -0.73,6.14 -0.06,0.08 -0.12,0.15 -0.17,0.23 -0.6,0.96 0.33,2.61 -2.36,3.13 -1.87,0.36 -6.5,0.05 -8.32,-0.03l5.44 5.63 9.19 10.36c0.57,0.65 0.86,1.26 1.74,1.55 0.63,0.11 15.37,-11.66 18,-13.5 0.68,-0.47 1.21,-0.68 1.58,-1.22 1.61,-0.77 3.09,-1.54 4.57,-2.31 -1,-0.25 -2.29,-0.55 -2.88,-1.06 0.17,-0.64 -0.09,-2.63 -0.02,-3.52 0.44,-5.69 0.98,-10.22 1.94,-15.83l-16.57 0.03c-0.06,0.78 -0.2,2.36 0.34,2.84 1,0.68 11.41,-0.13 12.79,0.62 1.04,0.57 0.44,3.76 0.32,4.99 -0.28,3.11 -0.35,6.58 -1.13,9.41zm23 -26.02c0.81,-0.2 2.26,0.09 2.87,-0.36 0.58,-0.42 0.35,-1.69 0.78,-2.19 1.34,0.14 0.87,1.59 1.88,2.41l2.59 0.1c-0.21,1.23 -1.36,1.18 -1.91,1.95 -0.73,1.02 0.67,1.57 0.53,2.72 -1.44,0.21 -1.47,-1.03 -2.69,-1.03 -1.09,0 -1.25,1.23 -2.7,1.05 -0.04,-1.01 1.2,-1.47 0.5,-2.71 -0.48,-0.85 -1.79,-1.08 -1.83,-1.94zm-2.45 -7.41c0.69,-0.9 0.59,-1.64 1.02,-2.22 1.27,0.08 0.75,0.95 1.48,1.79 0.65,0.76 1.72,0.44 2.96,0.64 0.02,0.89 -1.42,1.26 -1.88,1.96 -0.63,0.95 0.61,1.42 0.48,2.7 -1.41,0.16 -1.54,-1.2 -2.8,-1.01 -1.15,0.17 -1.19,1.22 -2.56,1.15 -0.09,-1.07 1.04,-1.84 0.5,-2.87 -0.52,-0.98 -2,-0.87 -1.67,-2.06l2.46 -0.08zm-8.36 -7.09c1.02,-0.16 2.24,0.26 2.86,-0.43 0.44,-0.49 0.4,-1.32 0.98,-1.96 1.15,0.37 0.7,1.44 1.39,2.35l2.64 0.05c0.29,1.05 -1.31,1.19 -1.72,1.99 -0.44,0.87 0.54,1.72 0.42,2.97 -1.1,-0.06 -1.44,-0.9 -2.33,-1.33 -1.21,0.22 -1.87,1.13 -3.03,1.09 -0.11,-1.04 1.15,-1.91 0.68,-2.69 -0.41,-0.68 -2.19,-1.08 -1.89,-2.03zm-6.23 -7.32c1.12,-0.31 2.19,0.46 2.88,-0.52 0.67,-0.94 0.16,-1.87 1.48,-2.04 0.52,0.74 0.13,1.5 0.94,2.17 0.83,0.69 1.58,0.27 2.81,0.41 -0,1.46 -1.39,0.74 -1.98,2 -0.42,0.9 0.71,1.43 0.39,2.94 -1.29,-0.21 -1.27,-1.19 -2.55,-1.42 -1.24,0.35 -0.81,1.16 -2.59,1.29 0.05,-1.27 0.8,-1.36 0.45,-2.97 -0.77,-0.64 -1.77,-0.84 -1.83,-1.85zm-5.74 -6.88c1.07,-0.15 2.15,0.29 2.75,-0.5 0.49,-0.65 0.19,-1.49 1.07,-1.93 0.67,0.33 0.59,0.49 0.87,1.29 0.67,1.89 1.44,0.88 2.62,1.09 0.82,0.15 0.83,0.58 -0.14,1.1 -2.43,1.31 -0.57,1.57 -0.68,3.69 -1.56,0.17 -1.23,-1.2 -2.64,-1.09 -1.11,0.09 -1.16,1.12 -2.47,1.04 -0.26,-0.8 0.47,-1.6 0.31,-2.87 -0.61,-0.33 -1.81,-0.97 -1.68,-1.83zm-30.44 36.35c0.21,0.91 -0.22,2.5 0.31,3.16 0.32,0.27 -0.34,0.12 0.55,0.21 1.67,0.17 1.6,-1.95 2,-3.53 2.39,-9.46 4.74,-19.89 6.95,-29.46 0.37,-1.59 1.04,-3.65 1.15,-5.23 -1.61,0.23 -0.44,0.89 -4.77,0.62 -9.02,-0.57 -7.98,-4.41 -0.2,-7.9 1.54,-0.69 2.31,-0.81 3.17,-1.93 1.34,-1.75 2.99,-3.71 6.62,-3.74 1.88,-0.02 3.15,0.28 4.39,1.03 1.98,1.21 1.33,0.95 4.06,0.83 12.6,-0.55 13.84,4.9 3.55,8.21 -1,0.32 -3.48,0.79 -4.14,1.14 0.13,0.65 3.93,4.98 4.63,5.79 1.68,1.95 3.18,3.81 4.85,5.77 6.6,7.75 12.8,15.37 19.38,23.08 1.15,1.35 0.98,2 3.36,2.01 5.15,0.03 5.08,0.55 8.86,-2.35 0.63,-0.49 2.59,-2.03 2.9,-2.46 0.09,-0.42 -11.16,-13.52 -11.73,-14.22 -7.74,-9.46 -16.12,-18.87 -23.74,-28.28 -2.26,-2.79 -1.19,-1.61 -4.15,-0.9 -4.99,1.2 -1.16,-3.12 -4.16,-5.26 -0.98,-0.7 -1.44,-0.6 -2.9,-0.28 -7.78,1.69 -5.67,1.32 -11.25,5.52 -2.24,1.69 -7.5,5.91 -9.09,7.63 -0.55,0.59 -2.8,3.05 -2.67,3.75 0.21,1.13 3.24,1.58 0.7,4.09 -2.61,2.58 0.34,2.24 -0.67,4.49 -0.77,1.72 -1.36,2.17 -1.04,5.19 0.31,2.95 1.63,4.96 -3.37,8.47 -0.9,0.63 -3.66,1.99 -3.98,2.74 -1.15,2.73 5.34,2.29 3.94,8.16 -0.22,0.91 -0.63,1.54 -0.8,2.26 -0.18,0.76 0.4,1.63 0.6,2.39 0.17,0.62 -0.05,2.13 0.88,2.24 1.19,0.15 0.59,-1.31 0.89,-2.3 0.67,-2.16 4.05,-1.43 4.9,-0.92z"/>
   <path class="fil4" d="M8.14 76.05c-0.69,0.17 -0.99,0.15 -1.68,-0.03 -0.61,-1.73 1.2,-8.18 0.32,-9.94 -0.29,-0.57 -0.51,-0.75 0.49,-0.81 0.78,-0.05 1.26,0.13 1.71,0.31 0.18,0.86 -0.57,9.68 -0.83,10.48zm80.67 -3.13c1.16,0.47 1.54,-0.61 1.02,-1.03 -0.5,-0.41 -1.19,0.05 -1.18,0.67 0.01,0.73 -0.04,0.04 0.16,0.36zm0.5 -7.11l1.13 0.11c1.18,-3.02 -1.3,-4.11 -1.34,-1.03 -0,0.21 -0.01,0.28 0.03,0.48 0.09,0.44 0.1,0.3 0.17,0.43zm-54.66 -3.82c-1.63,1.13 -0.3,3.12 1.29,2.23 1.38,-0.77 0.48,-3.45 -1.29,-2.23zm55.12 15.43c0.34,-0.63 0.47,-1.66 0.44,-2.42 -0.04,-1.05 -0.92,-1.11 -2.15,-0.92 -0.16,0.08 -2.22,4.32 1.71,3.35zm0.67 -6.8c0.52,-0.87 0.69,-2.4 0.17,-3.29 -0.99,-0.25 -2.07,-0.4 -2.41,0.42 -0.48,1.18 -0.78,3.5 2.24,2.86zm-56.69 8.62c1.62,0.08 1.53,0.34 1.7,-2.45 0.14,-2.21 0.76,-9.91 0.6,-11.07l-1.38 -0.1c-1.66,1.84 -2.67,11.56 -0.92,13.62zm-5.25 -3.11c-0.53,-0.84 0.11,-6.24 0.57,-6.81 1.14,-0.07 0.97,0.37 0.92,1.27l-0.37 4.26c-0.05,0.95 0.14,1.49 -1.12,1.28zm-2.86 1.74c0.92,0.16 2.9,-0.77 3.8,-1.1 1.93,-0.7 2.62,-0.45 2.72,-2.25 0.08,-1.55 0.95,-7.59 0.6,-8.6 -0.77,-0.23 -4.91,-0.3 -5.93,-0.13 -0.33,0.74 -1.39,11.37 -1.19,12.08zm41.77 -7.08c0.38,-0.47 0.98,-4 0.53,-4.52 -0.36,-0.41 -5.05,-0.34 -5.62,-0.09 -0.76,0.4 -0.76,2.56 -0.89,3.8 -0.08,0.73 -0.16,1.37 -0.24,2.08 -0.04,0.35 -0.14,0.83 -0.15,1.16 -0.1,2.68 5.41,-0.45 3.41,3.22 -1.28,-0.22 -1.16,-1.39 -3.27,-0.88 -0.76,0.87 -0.76,3.49 -0.33,4.57 0.61,0.12 5.59,-0.41 6.09,-1.62 0.28,-0.7 0.63,-5.83 0.33,-6.31 -0.54,-0.39 -0.86,-0.21 -1.8,-0.29 -2.21,-0.19 -1.75,-1.55 -1.2,-2.13 1.24,0.11 0.97,1.25 3.14,1.02zm-28.1 0.61c-0.31,-0.75 -0.48,-2.4 0.81,-1.67 0.6,0.34 1.52,1.37 2.52,0.55 0.54,-0.44 0.57,-1.97 0.67,-2.68 0.17,-1.21 0.22,-1.77 -1.25,-1.84 -0.69,-0.03 -3.32,-0.07 -3.88,0.03 -2.11,0.35 -1.79,7.69 -1.65,8.23 2.12,0.32 4.05,-0.22 3.3,2.11 -1.78,0.23 -0.81,-1.36 -3.33,-0.81 -0.43,0.73 -0.82,3.42 -0.51,4.38 1.15,0.16 5,0.17 5.84,-0.29 0.32,-0.67 1.05,-6.68 0.88,-7.44 -1.26,-0.84 -2.05,0.11 -3.42,-0.58zm18.09 2.96c0.41,0.7 0.6,1.94 -0.6,2.11 -0.44,-0.4 -0.5,-0.61 -0.38,-1.26 0.13,-0.68 0.27,-0.78 0.98,-0.85zm0.44 -4.76c0.89,1.63 0.34,2.28 -1.82,2.27 -2.29,-0.01 -1.88,1 -2.07,2.79 -0.83,7.84 0.37,3.42 3.5,5.21 3.06,1.76 2.53,-2.64 2.86,-5.61 0.16,-1.41 0.85,-6.88 0.56,-8.02 -0.69,-0.3 -4.91,-0.63 -5.77,-0.2 -0.31,0.19 -0.4,0.16 -0.49,1.13 -0.14,1.46 -0.52,2.93 0.25,3.43 1.4,0.89 1.69,-0.83 2.98,-1zm-42.89 1.84c-0.4,-0.38 -0.53,-0.67 -0.4,-1.33 0.1,-0.54 0.35,-0.68 0.8,-0.86 0.77,0.49 0.92,1.97 -0.39,2.19zm-0.94 4.17c-0.21,-1.13 -0.05,0.88 -0.04,-0.27 0.02,-1.72 2.21,-1.23 2.96,-1.27 1.74,-0.11 1.23,-1.84 1.36,-3.32 0.47,-5.49 1.75,-5.12 -3.15,-5.16 -2.31,-0.02 -2.73,-0.02 -2.92,1.92 -0.25,2.6 -1.31,10.69 -0.7,12.11 1.02,0.19 4.41,0.29 5.53,0.06 0.5,-0.65 0.82,-2.41 0.59,-3.37 -1.24,-0.53 -2.46,-0.01 -3.55,-0.44l-0.1 -0.26zm36.25 0.79c-1.13,0.07 -1.05,-0.32 -0.95,-1.21 0.13,-1.13 0.27,-5.22 0.89,-5.44 1.47,-0.5 0.76,2.29 0.67,3.09 -0.11,0.99 -0.03,2.89 -0.61,3.56zm-2.05 -10.38c-0.95,0.81 -1.31,8.41 -1.42,9.95 -0.13,1.9 -0.8,4.21 2.09,3.73 3.89,-0.64 3.9,1.46 4.18,-1.78 0.3,-3.46 0.67,-6.98 0.89,-10.44 0.06,-0.95 0.66,-4.72 -0.17,-5.16 -0.38,-0.2 -1.21,-0.17 -1.59,0.01 -0.9,0.43 -0.43,2.03 -0.88,3.31 -1.2,0.48 -1.88,0.14 -3.1,0.37zm53.32 0.1c1.05,-0.09 2.03,0.01 2.76,0.3 0.25,0.97 -0.57,7.05 -0.7,8.91 -0.1,1.41 -0.13,1.94 -1.91,1.26 -0.37,-1.22 0.54,-6.37 0.61,-8.29 0.05,-1.6 -0.84,-1.32 -0.75,-2.18zm3.38 13.94c0.81,-0.1 0.68,-0.01 0.79,-0.85l1.25 -13.36c0.13,-1.95 0.98,-3.45 -1.78,-3.49 -6.19,-0.08 -4.87,0.02 -5.56,5.89 -0.17,1.41 -1.08,8.83 -0.74,9.55 1.82,0.26 3.41,-0.42 5.73,0.26l0.32 2zm-20.68 -0.24c0.84,0.15 1.59,-0.52 1.97,-0.99 0.63,-0.8 0.88,-6.26 0.97,-7.43 0.7,-9.77 2.29,-9.2 -3.83,-9.21 -1.12,-0 -2.05,-0 -2.47,0.79 -0.46,0.87 -1.51,14.15 -1.46,14.96 0.81,-0 1.09,-0.23 1.73,-0.53 0.69,-0.33 0.91,-0.39 1.05,-1.12l0.7 -7.21c0.07,-0.62 0.18,-1.26 -0.02,-1.86 -0.19,-0.58 -0.57,-0.74 -0.63,-1.29 0.91,-0.07 1.97,-0.05 2.68,0.24 0.27,1.22 -0.44,5.11 -0.5,6.69 -0.07,1.75 -0.52,5.43 -0.19,6.95zm-62.92 -3.74c-0.42,-0.93 0.23,-5.97 0.66,-6.67l0.83 0.07c0.35,0.76 -0.02,2.8 -0.14,3.79 -0.14,1.18 0.18,3.08 -1.35,2.82zm-3.24 8.39c0.89,0.67 2.07,0.3 2.27,-0.69 0.19,-0.96 0.24,-2.02 0.39,-2.96 0.37,-2.22 3.65,0.48 4.1,-2.96 0.23,-1.78 1.06,-10.84 0.74,-11.86 -0.8,-0.32 -4.93,-0.62 -5.64,-0.1 -0.98,0.61 -0.73,3.42 -0.83,4.54 -0.14,1.57 -0.3,3.16 -0.42,4.73 -0.11,1.46 -1.06,8.62 -0.6,9.31zm75.52 -18.42c4.02,-1.02 2.65,2.02 2.31,6 -0.23,2.81 0.15,5.2 -1.74,4.78 -0.98,-0.22 -0.49,-1.73 -0.4,-2.5 0.11,-0.99 0.19,-1.96 0.26,-2.93 0.06,-0.92 0.16,-1.87 0.26,-2.79 0.23,-2.18 -0.64,-1.37 -0.68,-2.56zm-2.71 13.3c1.08,0.66 5.75,0.8 6.23,0.6 1.22,-0.6 0.91,-3.31 1.04,-4.61l0.95 -9.94c0.26,-2.77 0.66,-2.86 -2.81,-3.04 -4.36,-0.22 -3.99,-1.7 -4.66,6.76 -0.14,1.84 -1.13,8.98 -0.75,10.23zm-14.81 -2.67l-1.69 -0.13c-0.3,-0.88 0.23,-4.44 0.33,-5.63 0.08,-0.94 0.19,-1.85 0.25,-2.78 0.12,-1.93 -0.9,-1.08 -0.8,-2.3l2.68 0.15c0.14,0.18 0.09,0.05 0.17,0.39l-0.94 10.31zm-4.47 3.33c1.11,0.3 2,-0.37 3.14,-0.5 1.36,-0.16 2.17,0.52 3.11,0.1 1.09,-0.49 0.95,-4.03 1.08,-5.4 1.29,-13.49 1.93,-11.99 -2.88,-12.01 -1.32,-0 -2.48,-0.17 -2.97,0.68 -0.5,0.87 -1.94,16.11 -1.48,17.13zm-67.9 -0.58c0.49,0.44 0.64,0.36 1.6,0.35 1.78,-0.01 4.64,0.24 5.05,-0.59 0.25,-0.49 1.72,-16.23 1.45,-17.11 -0.91,-0.38 -5.27,-0.62 -6.34,-0.19 -0.7,0.44 -0.53,0.99 -0.62,1.96 -0.26,2.7 -1.73,14.84 -1.14,15.59z"/>
   <path class="fil4" d="M21.64 39.59c0.27,-0.44 0.85,-1.59 -0.11,-1.91l-0.31 -0.1c-2.88,-0.75 -1.22,-0.8 -1.05,-4.85 0.07,-1.59 0.06,-3.02 -0.19,-4.55 -0.2,-1.2 -0.15,-3.28 -1.88,-3.18 -1.58,0.09 -2.54,1.21 -3.05,2.28 -1.38,2.9 -0.62,5.29 0.83,7.6 1.05,1.67 3.09,5.04 5.76,4.71zm-2.97 15.54c0.9,0.23 1.05,0.96 2.55,0.52 0.72,-0.48 0.35,-0.7 0.82,-1.32 1.19,0.16 1.01,0.66 2.5,0.41 0.73,-1.13 0.35,-4.94 -0.37,-6 -0.82,-0.18 -1.02,-0.11 -1.52,0.36 -1.04,0.99 -0.25,0.5 -1.83,0.55 -1.8,0.06 -1.17,1.63 -1.96,2.62 -0.21,-0.52 0.45,-3.12 -2.67,-2.37 -0.86,0.21 -0.98,0.53 -1.17,2.03 -0.4,-1.94 0.29,-2.84 -2.63,-2.56 -0.35,-1.53 -0.35,-1.61 -1.67,-2.38 -1.22,-0.71 -1.07,-1.69 -2.29,-1.89 -1.78,1.5 0.42,4.48 1.2,5.88 0.53,0.95 0.3,1.27 1.45,1.6 2.74,0.8 -1.45,2.4 5.49,3.44 1.44,0.22 1.44,-0.3 2.08,-0.9zm-10.23 -14.4c0,3.57 -0.01,2.13 1.33,2.78 0.3,2.25 0.14,1.96 2.15,3 2.01,1.04 0.47,1.66 3.71,1.81 2.49,2.75 2.96,-0.96 3.16,-1.76l0.46 1.21c0.59,2.73 3.58,0.34 4.09,-1.2 0.89,0.41 0.32,0.53 1.41,0.89 1.61,-0.37 3.36,-1.86 3.27,-3.57 -1.92,-0.2 -3.17,1.17 -4.45,1.62 -1.61,-0.75 -0.59,-0.98 -3.62,-1.32 -1.65,-0.19 -2.57,-0.61 -3.2,-1.54 -0.36,-0.53 -0.47,-0.93 -0.86,-1.41 -0.38,-0.46 -0.79,-0.69 -1.16,-1.16 -0.35,-0.45 -0.5,-1.03 -0.85,-1.43 -0.65,-0.77 -0.84,-0.17 -1.73,-0.68 -0.88,-0.98 0.29,-2.06 -1.56,-2.53 -1.59,0.71 -2.16,3.45 -2.17,5.3zm18.78 -2.45l-0.71 0.29 0.05 0.6c1.6,0.96 3.72,0.03 4.62,-0.94 0.75,-0.82 1.13,-3.81 0.66,-4.99 -3.22,-0.39 -1.26,4.7 -4.62,5.04z"/>
  </g>
 </g>
</svg>
