<?xml version="1.0" encoding="UTF-8"?>
<!DOCTYPE svg PUBLIC "-//W3C//DTD SVG 1.1//EN" "http://www.w3.org/Graphics/SVG/1.1/DTD/svg11.dtd">
<!-- Creator: CorelDRAW -->
<svg xmlns="http://www.w3.org/2000/svg" xml:space="preserve" width="25.4273mm" height="19.0863mm" version="1.1" style="shape-rendering:geometricPrecision; text-rendering:geometricPrecision; image-rendering:optimizeQuality; fill-rule:evenodd; clip-rule:evenodd"
viewBox="0 0 349.5 262.34"
 xmlns:xlink="http://www.w3.org/1999/xlink"
 xmlns:xodm="http://www.corel.com/coreldraw/odm/2003">
 <defs>
  <style type="text/css">
   <![CDATA[
    .fil0 {fill:black}
    .fil2 {fill:#FEFEFE}
    .fil3 {fill:red}
    .fil1 {fill:yellow}
   ]]>
  </style>
 </defs>
 <g id="Camada_x0020_1">
  <metadata id="CorelCorpID_0Corel-Layer"/>
  <path class="fil0" d="M317.59 0.46c9.96,0 11.3,-1.19 18.23,3.6 5.44,3.83 6.28,8.27 3.75,13.94 -4.98,11.18 -2.45,6.44 -1.46,10.8 1.03,4.61 -3.24,14.95 -2.68,16.55 0.61,1.74 5.66,-0.48 9.5,0.46 1.61,0.38 1.3,1.61 3.29,2.07 2.31,5.23 1.18,5.61 -1.23,10.19 -3.06,0 -5.13,0.15 -7.66,0.38l0 1.07c1.53,0 1.84,0.15 2.91,0.69 1.15,1.91 1.07,1.46 3.06,2.53l-1.22 8.73 -7.2 0.69c-0.15,1.53 -0.77,3.06 -0.77,4.75 2.15,0.46 0.84,0.08 3.22,0 1.69,0.15 6.05,2.83 5.52,5.67 -1.52,8.58 -4.92,6.04 -14.4,6.89l-9.65 -0.54c-2.35,-1.66 -3.86,-0.37 -1.53,1 8.28,4.85 6.12,8.18 4.21,20.15 -0.77,4.98 -0.54,10.95 -2.91,15.47 -4.21,8.12 -18.69,7.43 -20.99,4.6 -1.15,-1.53 -1.46,-1.38 -3.22,-2.15l-3.98 3.22 1.23 1.07c-0.83,2.71 -2.37,-0.57 -2.37,3.6 4.47,2.23 8.77,4.18 10.04,9.12 -5.24,0 -11.59,-2.98 -12.87,-2.91 -3.61,0.18 3.09,3.27 5.36,7.81 1.15,2.3 1.07,4.83 1.07,8.04l-3.22 -0.69c-0.31,-1 -3.29,-3.29 -3.98,-3.6 -0.23,2.15 -1.23,4.06 -1.61,6.13 2.54,0 16.67,-2.55 21.53,1.38 6.35,5.14 16.65,7.61 15.78,23.13 -0.38,7.12 -5.21,10.19 -7.66,13.41l5.21 3.6c1.45,1.16 0.6,2.69 -0.31,4.83 -0.93,2.21 -0.48,7.01 -6.13,7.51 -2.76,-0.08 -3.37,-1.38 -5.75,-0.92 -5.13,1 -3.83,-0.54 -5.44,-0.54 -1.84,0.46 -1.15,1.15 -2.83,1.38 -0.02,0 -7.55,-0.65 -9.88,1.69 -1.07,1.07 -2.07,9.96 -2.76,12.41 -1,3.68 -3.14,8.04 -3.45,11.72 -0.38,4.21 2.45,9.65 -0.46,12.95 -2.62,2.96 -22.27,2.51 -29.42,3.22 -3.29,0.46 -5.13,0.08 -7.51,-0.54 -4.98,-1.38 -7.74,4.37 -19.61,-0.77 -0.92,1.53 -1,2.07 -3.6,2.22 -9.88,0.46 -47.25,3.13 -54.92,2.15 -5.21,-0.69 -1.53,-1.76 -6.89,-0.31l-18.08 1.07c-5.59,-3.82 -4.55,-5.23 -3.45,-12.26l4.29 -27.65c-4.29,0 -3.83,3.06 -3.98,9.42 -0.15,5.29 -3.68,15.01 -3.6,22.45 0.08,10.73 -3.6,9.42 -18.08,9.42 -8.65,0 -15.31,1.64 -19.23,0.31 -4.58,-1.56 -9.64,4.55 -19.3,-1.38 -8.14,-4.99 -6.44,-11.21 -4.52,-23.67 0.46,-3.06 1,-5.44 1.53,-8.35 2.68,-13.48 0.77,-8.5 1.76,-16.85 0.65,-4.15 6.59,-29.04 5.06,-29.88 -0.38,-0.23 -5.75,0.15 -7.05,0.15 -0.92,-0.77 -1.3,-1 -2.83,-1.07 -0.8,3.05 2.11,0.4 4.75,6.59 3.29,7.74 -1.99,12.1 -2.3,14.17 -0.15,1.38 1.3,2.22 1.15,4.98l-2.83 15.93c-4.48,0.15 -21.77,1.93 -24.9,0.77 -5.61,-2.08 -11.67,5.44 -20.53,-1 -5.97,-4.37 -5.52,-5.52 -5.52,-10.57 0.08,-0.08 0.15,-0.31 0.15,-0.23l0.31 -3.07c-1.53,0 -3.14,0.46 -4.44,0.69l-2.45 14.86c-4.55,1.18 -15.05,3.07 -16.55,-2.91l4.6 -34.4c0.89,-5.62 0.89,-5.59 11.11,-5.59l10.8 -37.31c-7.02,0 -21.43,1.86 -24.28,0.15 -5.03,-3.01 -3.75,-4.23 -1.69,-19.3 1.38,-10.19 2.3,-14.48 4.75,-23.98l22.06 -1.07c-0.61,-1.99 -2.07,-1.61 -3.22,-2.91 -3.75,-4.29 2.76,-25.66 2.76,-33.63 -1.4,-0.62 -15.36,-0.85 -16.09,-13.02 -0.56,-9.29 1.78,-9.81 10.04,-9.81 -4.7,-4.34 -6.82,-3.82 -6.82,-12.33 0,-9.68 6.46,-15.38 15.24,-15.55 6.59,-0.15 8.04,1.69 12.03,3.6 1.61,-6.13 15.7,-4.37 24.05,-4.37l14.1 -0.38c6.97,-0.08 7.35,1.46 10.42,3.6 9.58,6.59 2.53,16.01 1.53,18.77 -0.84,2.45 -0.08,3.68 0.38,5.59 1.38,5.75 -1.91,10.65 -1.91,16.93 3.68,0 6.36,-0.38 10.42,-0.38 -1.61,-6.28 -6.44,6.2 -3.22,-24.28 1.83,-17.4 6.06,-23.72 22.91,-21.68 4.94,0.6 6.56,5.85 7.12,2.15 0.69,-2.83 1.84,-3.29 3.98,-3.29 25.43,0.06 14.97,0.72 22.06,4.06 0.46,-0.92 0.77,-1.53 0.77,-2.91 0.52,-3.55 12.52,-2.4 15.32,-1.84l1.07 1.84c1.89,-1.3 0.63,-2.56 6.13,-2.99 2.15,-0.15 4.14,0.15 6.2,-0.15 8.43,-1.15 7.66,0.69 9.81,1.99l1.61 -2.53c20.1,0 10.64,-3.05 25.28,3.6 2.9,-1.72 9.84,-9.34 21.91,-3.91 13.79,6.2 6.74,15.09 6.59,28.5 -0.08,6.32 -2.74,13.11 -7.74,16.93l6.05 4.44c1.8,-3.01 -1.74,-3.95 -1.07,-7.58 0.92,-5.06 5.29,-5.52 6.13,-9.35l1.15 -6.59 4.52 -27.12c1.11,-2.12 16.46,-1.62 19.54,-1.22 2.15,0.46 4.6,1.99 6.44,2.91 6.74,-9.17 21.48,-4.4 23.67,-2.14 0.69,0.92 0.38,1 1.99,1.07 0,-4.14 0.54,-4.48 7.51,-4.75l0.31 0.46z"/>
  <path class="fil1" d="M267.72 193.28c-1.91,0.08 -5.29,2.45 -4.06,-1.46 2.55,-7.88 3.45,-5.79 -2.91,-10.8 -5.73,-4.52 -1.36,-18.37 -16.16,-21.98l-2.6 -1.3c10.45,1.79 13.72,6.13 16.47,14.86 2.3,7.43 -0.84,4.98 5.9,9.88 5.52,4.06 -0.08,7.12 0.31,10.95l2.99 -0.23 0.07 0.08zm-31.95 -35.31c0,3.95 12.66,10.37 10.49,18.54 -2.14,8.09 -8.04,14.3 -8.04,22.75 0,1.46 -0.38,0.61 2.91,1.76 3.34,1.19 0.78,1.53 7.12,1.53 0.86,0 3.2,-2.29 5.36,-0.08 1.69,1.76 -0.38,3.29 -0.54,5.13 10.65,-0.77 14.32,-14.17 19.53,-10.04 0.77,0.61 0.38,1.84 3.22,0.15 3.5,-2.08 1.11,-6.13 -1.3,-6.21 3.22,-0.23 4.21,-1.15 4.21,5.44 2.07,0.92 2.22,0.84 2.83,3.45 1.61,0 7.81,1 10.42,-1.07 1.23,-0.92 1.76,-3.14 4.52,-2.38 3.37,1 0.84,3.91 3.06,3.91 0.92,0 18.08,-6.74 18.08,-17.93 0,-7.43 0,-12.03 -7.12,-17.46 -10.77,-8.25 -21.44,-4.21 -30.41,-1.84 -10.8,2.83 -7.43,1.3 -15.47,2.68l0.46 2.15c-3.19,-0.48 -2.26,-3.83 -9.04,-9.35 -8.5,-6.91 -20.38,-7.92 -20.38,-1.23l0.08 0.08z"/>
  <path class="fil2" d="M16.68 198.18c0,-1.69 1.07,-8.43 1.61,-9.42 3.29,0 1.69,2.68 1.23,6.13 -0.31,2.07 -0.38,3.06 -2.83,3.29l0 -0zm19.69 13.02c0,-0.78 2.71,-22.27 4.52,-23.82 2.72,0.61 0.58,7.17 -0.31,13.1 -1.14,7.64 -0.82,12.71 -3.68,12.95 -0.54,-1 -0.38,0.69 -0.38,-2.15l-0.15 -0.08zm-6.82 -15.55l-0.38 0c0,-14.1 -0.73,-12.64 -14.86,-12.64 -6.59,0 -4.06,-1.91 -6.59,12.49l-3.83 24.82c13.23,0 8.27,1.5 11.42,-13.94 0.54,-2.91 0.61,-1.46 5.59,-2.6 7.97,-1.76 5.9,-6.13 8.27,-7.74 0,10.95 -8.22,23.52 8.43,23.52 8.5,0 10.04,-5.9 10.88,-11.18 1.07,-7.2 2.76,-14.1 2.76,-21.37 0,-6.68 -21.68,-11.62 -21.68,8.73l0 -0.08z"/>
  <path class="fil1" d="M137.49 56.23c-1.38,2.6 -2.6,9.58 -3.83,13.25 -1.07,-1.69 0.15,-9.88 -0.23,-12.87 -1.46,-0.23 -6.74,-0.08 -8.43,0 -5.97,0.46 -4.67,0.38 -5.06,3.06 -5.66,40.78 -8.85,34.17 2.22,34.17l5.06 -27.73 -0.92 27.35c1.3,0.46 2.99,0.08 4.83,0 3.14,-0.11 2.89,-2.95 5.06,-11.34l4.75 -16.78c0,6.74 -3.83,24.97 -3.83,27.73 11.56,-0.33 8.85,3.35 11.64,-17.31l3.14 -19.99c-1.99,-0.69 -11.18,0.38 -14.48,0.38l0.08 0.08z"/>
  <path class="fil1" d="M67.86 72.7c-1.15,-3.45 0.23,-8.81 0.23,-12.49 0,-1.46 0.15,-1.07 -4.83,-1.07 -11.44,0 -8,-2.62 -12.41,25.05 -0.84,5.13 -1.69,7.81 -1.69,12.64l7.2 -0.15 5.06 -27.96c0.69,7.2 -0.61,14.4 -0.61,22.98 0,3.24 -2.27,6.1 5.36,4.52 1.53,-0.38 1,0 1.53,-1.23l7.35 -26.66 -3.29 24.59c-0.69,4.06 -1.76,3.29 8.27,2.68l6.05 -36.08c0,-1.3 0.23,-1.07 -3.22,-1.07 -13.46,0.34 -11.35,0.31 -11.95,2.91 -0.84,3.6 -2.07,7.43 -3.06,11.34l-0 -0z"/>
  <path class="fil1" d="M117.57 233.11c-0.54,-1.99 0.23,-9.5 0.23,-13.56 -14.63,0 -13.18,-0.46 -14.02,5.13l-4.9 31.49c0,1.91 5.13,1 6.44,0.77 1.3,-0.23 1.07,0.69 1.61,-3.22l3.45 -22.6c0.38,-1.91 -0.23,-1.23 1.07,-1.53l0 -0.38 -1 27.35c9.2,0 5.54,4.26 14.25,-28.11l-3.37 27.65c9.88,0 8.81,0.69 9.42,-3.37l5.21 -33.71 -11.87 0.15c-3.83,0 -2.83,0 -4.75,7.66 -0.31,1.23 -1.84,5.52 -1.84,6.28l0.08 0z"/>
  <path class="fil2" d="M205.67 21.37c0.23,-1.91 0.61,-5.52 1.3,-6.82 1.07,0.08 1.07,0.15 1.99,0.38l-3.22 23.21c-0.54,2.99 -0.38,5.29 -3.6,4.67l3.53 -21.45zm13.71 -4.98c0,-11.3 -10.3,-8.35 -19.69,-8.35 -4.76,0 -2.79,4.61 -5.21,17.31l-3.06 19.3c-1.3,7.89 -2.22,5.29 7.89,5.36 17.77,0.08 16.01,-6.89 18.23,-20.45 0.54,-3.29 1.84,-10.42 1.84,-13.18l-0 0z"/>
  <path class="fil2" d="M320.88 19.69c0,-1.36 0.51,-9.73 2.38,-9.73 1.96,0 2.27,9.67 -2.37,9.81l-0 -0.08zm-8.04 -16.32c-1.07,4.21 -3.68,23.82 -4.9,31.03 -2.38,14.1 -2.45,11.11 3.29,10.95 2.53,-0.08 3.45,-0.08 5.67,-0.38 0,-2.38 2.53,-15.09 2.83,-18.08 5.82,0.11 -0.46,9.32 0,18.16 13.7,0 9.74,0.73 11.49,-7.81 2.13,-10.43 2.05,-9.8 -1.84,-14.32 0.67,-0.84 7.38,-4.34 5.44,-14.4 -1.54,-7.94 -15.39,-5.21 -21.91,-5.21l-0.08 0.08z"/>
  <path class="fil2" d="M76.44 29.8c0,-4.44 1.23,-7.28 1.23,-9.81 2.15,0 2.68,-0.15 2.3,2.38 -0.69,4.67 -0.46,7.12 -3.52,7.35l0 0.08zm-8.04 -16.32l-6.82 41.98c13.23,0 9.9,4.01 13.18,-18.46 3.92,0 2.5,3.32 0.54,14.63 -0.61,3.06 -2.99,4.52 9.73,2.99 1.15,-3.06 2.53,-13.56 2.53,-17.24 0,-2.68 -2.6,-2.68 -2.83,-5.06 5.91,-1.48 9.87,-17.79 -1.61,-19.15 -3.14,-0.38 -11.41,-0.38 -14.79,0.31l0.08 -0z"/>
  <path class="fil2" d="M136.65 45.73l4.06 -27.81c0.69,-1.76 1.69,-0.31 2.68,0.31l-4.21 25.97c-0.46,1.38 -0.84,1.53 -2.68,1.61l0.16 -0.08zm-11.64 7.28c25.08,0 24.09,-0.38 27.73,-26.51 0.92,-7.66 3.83,-15.09 -8.04,-16.24 -3.6,-0.31 -5.82,0.38 -9.19,0.31 -5.52,-0.08 -3.98,0.38 -4.67,4.44l-5.82 38z"/>
  <path class="fil2" d="M229.8 42.44c-1.91,-1.15 -1,-2.91 -0.23,-7.43l2.6 -16.47c0.69,-3.75 -0.08,-6.05 3.29,-5.36l-3.22 23.14c-0.77,3.45 0.31,5.52 -2.38,6.2l-0.08 -0.08zm-1.61 6.89c10.8,0 13.1,-4.52 14.32,-12.03 0.61,-3.68 1.38,-7.2 1.69,-10.8 0.69,-7.58 6.66,-20.61 -9.19,-20.61 -7.1,0 -11.95,3.6 -12.87,9.04l-3.98 26.43c0.23,4.9 4.37,7.97 10.04,7.97z"/>
  <path class="fil2" d="M292 39.91c-1.36,-2.17 2.81,-23.87 3.29,-27.12 0.23,-1.61 0.23,-2.22 1.91,-2.6 1.84,1.15 1,2.3 0.31,7.12l-3.14 19.99c-0.31,1.69 -0.38,2.38 -2.38,2.53l0 0.08zm-1.61 6.89c14.9,0 14.78,-7.79 16.85,-24.67 0.77,-6.2 3.98,-12.79 -1.53,-16.7 -4.36,-3.12 -16.24,-3.76 -19.92,4.29l-4.98 28.8c-0.18,4.71 4.58,8.27 9.58,8.27z"/>
  <path class="fil2" d="M110.22 46.12l3.98 -26.43c0.31,-1.61 0.46,-1.76 2.45,-1.76 0.61,2.22 -2.22,19.53 -2.91,22.75 -0.38,1.76 -0.23,6.59 -2.3,6.59l-1.22 -1.15zm-10.42 0.38c0,8.89 13.71,9.8 20.07,5.06 3.06,-2.3 3.45,-5.06 4.06,-9.35l2.76 -17.08c0.31,-3.22 2.45,-8.66 -1.76,-11.8 -5.13,-3.83 -15.93,-2.99 -19.23,1.91 -2.6,3.82 -3.38,13.41 -4.52,20.22 -0.61,3.75 -1.38,7.12 -1.38,11.11l-0 -0.08z"/>
  <path class="fil2" d="M178.01 36.31c-2.81,0 2.38,-12.13 3.06,-17.85 0,-0.15 0.08,-0.15 0.15,-0.23l-0.92 14.4c-0.38,2.83 0.31,3.75 -2.3,3.75l0 -0.08zm-14.48 15.24c2.38,0 8.73,-0.23 10.42,-0.69 0,-1.69 0.77,-7.58 2.83,-7.58 4.29,0 1.61,1 1.61,7.58l10.42 -0.38 1.3 -41.98c-12.93,0.3 -14.48,-1.02 -15.47,2.68 -1.23,4.67 -10.95,38.07 -11.03,40.37l-0.08 -0z"/>
  <path class="fil2" d="M18.29 29.8c0,8.27 10.8,7.51 10.8,12.33 0,1.72 -0.29,8.73 -2.45,8.73 -2.83,0 -0.38,-4.29 -0.38,-9.04 -7.98,0 -10.2,-0.71 -10.5,2.15 -0.77,6.59 -2.83,13.79 10.88,13.79 8.96,0 11.23,-4.7 12.41,-11.64 3.06,-17.97 -11.75,-10.52 -10.19,-19.3 0.33,-1.85 0.3,-6.07 2.14,-5.29 0.97,0.42 1.14,-0.78 0.54,3.37 -0.23,1.38 -0.54,2.53 -0.54,3.91 12.16,0 10.15,-0.25 10.65,-3.45 0.23,-1.53 0.61,-2.3 0.46,-3.68 -1.19,-9.29 -23.9,-13.7 -23.9,8.2l0.08 -0.08z"/>
  <path class="fil2" d="M102.56 179.33c-0.41,2.86 -1.65,16.59 -3.22,18.16 0,-2.83 -0.46,-4.29 -0.38,-6.89 0.08,-11.03 1.3,-11.8 -3.52,-11.18 -10.19,1.34 -6.74,-6.47 -12.79,33.02 -0.92,6.13 -0.92,4.6 3.06,4.6 4.14,0 3.75,1.15 4.75,-5.21 0.31,-2.3 1.91,-14.71 2.91,-16.16 0.88,24.97 -2.81,21.17 10.88,20.61 0.84,-1.69 6.05,-34.24 6.05,-37.31l-7.74 0.38z"/>
  <path class="fil2" d="M62.42 195.65c0,-1.84 0.69,-7.66 1.23,-8.66 2.45,0 1.99,1.15 1.53,5.06 -0.38,3.29 -1.07,3.52 -2.76,3.68l-0 -0.08zm-12.03 22.83c11.18,0 7.58,0.77 9.96,-11.64 0.66,-3.5 0.04,-4.67 1.69,-4.67 2.5,0 0.27,7.58 -0.46,12.26 -0.84,5.52 -1,3.22 5.67,3.29 4.06,0.08 2.99,0.69 4.37,-8.35 1.62,-10.94 0.14,-8.26 -1.99,-10.88 1,-1.23 2.68,-1.38 3.83,-4.14 5.45,-12.84 -4.12,-13.56 -11.49,-13.56 -8.81,0 -7.12,1 -7.35,2.45l-5.21 33.4c-0.34,2.39 0.01,1.35 1,1.84z"/>
  <path class="fil2" d="M216.93 180.79c3.14,-1 2.38,1.76 1.91,3.91 -0.54,2.68 0.23,4.14 -2.76,4.75 0,-3.75 0.77,-5.21 0.77,-8.66l0.08 0zm-4.83 30.87l2.83 -16.09c4.63,0.35 0,6.85 0,15.93 12.74,0.91 8.29,-1.23 9.88,-7.43 0.69,-2.6 3.29,-10.34 -1.46,-11.49l0 -1.07c5,-1.15 8.12,-13.59 1.15,-16.24 -3.6,-1.38 -5.13,-1.07 -9.19,-0.76 -5.59,0.38 -6.51,-1.15 -7.05,2.99l-5.13 34.01 9.04 0.08 -0.08 0.08z"/>
  <path class="fil1" d="M156.34 223.92c1.91,0.08 2.38,0.23 2.22,2.07 -0.35,2.88 -2.59,22.06 -4.52,22.68 -1.99,0.61 -1.07,-0.15 -1.3,-0.31l3.6 -24.44zm-12.87 31.48c18.06,-0.72 19.66,0.16 21.91,-14.33 2.86,-18.38 5.85,-23.36 -10.26,-23.36 -9.04,0 -7.01,0.31 -7.74,5.36l-4.83 30.41c-0.15,1 -0.54,1.91 1,1.91l-0.08 0z"/>
  <path class="fil2" d="M25.11 132.61l4.06 -24.97c1.84,0.15 2.15,0.54 1.91,2.38l-2.68 17.54c-0.41,3.83 -1.38,6.02 -3.29,5.06zm-10.04 5.44l0 1.07c24.9,0 20.86,-2.16 25.05,-28.5 1.53,-9.81 -7.05,-9.19 -13.41,-9.19 -8.15,0 -6.1,0.89 -6.89,5.36l-4.75 31.26z"/>
  <path class="fil1" d="M229.8 83.42c0,-2.45 3.37,-23.9 3.98,-24.9 2.99,-0.08 1.46,3.6 1.23,5.67l-2.15 14.02c-0.61,3.68 -0.08,4.98 -3.06,5.21l0 0zm-4.44 -30.72l-5.36 33.02c-0.69,4.06 -1.53,4.14 2.6,4.14 17.98,0 18.43,-3.26 19.99,-14.55 2.83,-20.76 6.51,-24.59 -17.16,-22.67l-0.08 0.07z"/>
  <path class="fil1" d="M307.48 79.98c-0.23,-1.07 3.29,-23.14 3.83,-24.82 4.03,0.29 1.02,6.43 0.08,14.56 -0.8,6.86 -0.61,10.26 -3.91,10.26zm-10.27 4.9l0 1.84c10.04,0 20.07,0.69 21.99,-8.04l3.29 -22.75c0,-9.04 -12.64,-6.59 -16.85,-6.51 -3.29,0 -2.91,0.23 -3.29,3.14l-5.06 32.33 -0.08 -0z"/>
  <path class="fil1" d="M86.93 252.03c-1.75,-2.51 4.27,-27.28 3.75,-31.25 -3.22,-0.61 -6.82,0 -9.04,0.15l-4.44 31.1c0,6.44 13.25,8.96 18.69,2.07 2.4,-3.07 6.21,-32.16 6.21,-33.94 -10.92,0 -8.74,-4.76 -13.33,28.65 -0.23,1.84 -0.31,2.68 -1.99,3.22l0.15 -0z"/>
  <path class="fil2" d="M185.6 126.48c-2.22,0 -0.84,-2.99 -0.31,-7.12l2.53 -15.86c0.23,-1.46 -0.23,-2.76 1.38,-2.76 2.38,0 0.77,2.83 0.38,7.2l-2.45 15.86c-0.15,1.15 0,2.6 -1.53,2.6l0 0.08zm4.44 -32.02c-9.61,1.09 -10.31,2.71 -11.95,11.8l-2.91 20.07c1.07,8.5 17.16,8.04 20.3,0.61 0.84,-1.99 4.44,-24.36 4.06,-26.58 -0.69,-4.44 -5.75,-6.44 -9.58,-5.97l0.08 0.08z"/>
  <path class="fil2" d="M139.1 207.6c0,-1.76 3.14,-23.06 3.75,-23.82 0.61,-0.77 1.61,-1 2.07,0l-2.91 20.3c-1,5.13 0,4.98 -2.91,4.98l0 -1.46zm-9.27 0c0,7.41 6.96,8.51 12.95,7.35 6.74,-1.3 7.58,-5.82 8.43,-10.88 1.04,-6.64 4.48,-19.88 1.84,-23.52 -3.22,-4.6 -13.87,-4.52 -17.93,0.08 -2.43,2.76 -5.36,24.14 -5.36,27.04l0.08 -0.08z"/>
  <path class="fil2" d="M242.21 107.33c0,-2.04 0.48,-7.63 2.07,-8.66 2.07,1.3 1.07,2.45 0.84,4.75 -0.31,2.53 0.08,3.91 -2.83,3.98l-0.08 -0.08zm-3.98 22.83c2.5,-4.45 0.63,-16.05 4.37,-16.32 1.53,2.45 -1.53,12.33 -1.61,15.93 1.84,0.38 6.05,-0.15 8.43,-0.38 -1.23,-1.61 -3.22,-1.61 -3.83,-2.45 -1.46,-2.22 2.76,-1.23 4.21,-1.53 1.69,-0.31 1,-0.31 1.69,-4.21 1.82,-9.66 -0.13,-8.63 -2.07,-10.95 5.76,-3.48 7.22,-12.24 2.91,-15.7 -3.29,-2.6 -9.81,-1.69 -15.78,-1.69 -2.54,0 -2.55,5.97 -3.14,10.19 -4.6,32.99 -7.7,27.04 4.83,27.04l-0 0.08z"/>
  <path class="fil2" d="M62.8 111.31c0.46,-2.76 0.38,-5.44 1.99,-5.44 1.76,0 1.15,1.76 0.92,2.6 -1.15,5.29 -2.07,15.09 -3.22,21.07 -0.31,1.69 -0.08,1.99 -2.15,2.07 -1.25,-2.14 2.38,-16.48 2.45,-20.3zm-12.03 19.53c0,9.42 17.93,9.04 20.53,0.77l3.98 -24.28c0.75,-9.21 -14.7,-9.85 -19.15,-3.91 -2.66,3.54 -5.28,23.44 -5.28,27.5l-0.08 -0.07z"/>
  <path class="fil2" d="M305.64 121.42c-2.41,0 0.16,-8.08 0.77,-13.1 0.74,-6.1 0.56,-12.42 3.6,-12.64 1.14,1.74 -1.98,17.67 -2.45,20.22 -0.31,1.46 0.08,5.44 -1.99,5.44l0.08 0.08zm14.02 -24.59c0,-6.74 -6.13,-7.28 -11.64,-7.28 -9.42,0 -9.88,10.65 -10.5,16.24 -0.92,7.66 -4.9,16.93 1,20.53 3.68,2.22 15.47,3.29 17.7,-6.59l3.45 -22.98 0 0.08z"/>
  <path class="fil1" d="M274.77 81.97c-0.77,-1.76 1.99,-16.62 2.6,-20.45 0.23,-1.23 0,-6.51 2.45,-5.29 1.53,0.82 -1.78,16.71 -2.3,20.61 -0.54,4.6 -0.23,4.98 -2.83,5.06l0.08 0.08zm-1.61 6.13c14.28,0 12.84,-7.39 15.01,-20.84 1.23,-7.2 4.75,-17.39 -8.2,-17.39 -13.64,0 -11.34,11.8 -13.79,23.98 -0.76,4.15 -3.34,14.25 6.97,14.25z"/>
  <path class="fil3" d="M204.52 165.93c-0.54,-5.82 1.91,-14.32 2.68,-19.99 0.38,-2.68 -0.46,-5.13 2.53,-5.36 1.33,2 -2.09,16.5 -2.45,20.61 -0.23,2.99 -0.46,4.52 -2.83,4.75l0.08 -0zm14.86 -23.9c0,-10.65 -16.16,-9.27 -19.53,-3.52 -1.85,3.09 -3.57,17.26 -4.14,22.6 -0.31,3.06 -2.22,7.2 3.68,10.19 2.91,1.46 11.87,1.91 15.09,-3.37l4.98 -25.97 -0.08 0.08z"/>
  <path class="fil1" d="M43.34 60.37l-4.6 29.57c-0.23,1.3 -3.91,6.59 -1.3,-6.66l3.29 -23.06c-11.46,0.4 -8.63,-1.23 -9.96,7.28 -0.61,3.91 -3.52,20.91 -3.37,23.67 0.38,9.19 15.93,8.43 19.38,1.69l5.59 -32.94c-3.22,0 -6.13,-0.08 -9.04,0.54l-0 -0.08z"/>
  <path class="fil3" d="M109.38 153.29c-2.64,-1.58 -0.08,-7.94 1.61,-8.35 0.6,2.32 0.92,6.79 -1.61,8.27l0 0.08zm-8.43 -13.79l-5.21 36.62c3.45,0 6.28,0.38 8.81,-0.69 1.07,-4.21 1.07,-11.87 2.83,-15.24 3.65,0.89 0.5,7.2 0,14.48 0,1.3 0.77,1.07 2.38,1.07 3.6,0 1.46,-2.68 4.67,-5.9 2.3,-2.22 3.75,-0.46 3.75,-8.58 0,-5.21 -4.37,-2.83 -0.31,-6.82 2.36,-2.33 3.34,-8.44 2.07,-11.8 -2.07,-5.52 -17.47,-3.83 -19,-3.14z"/>
  <path class="fil3" d="M177.63 173.59c2.91,0 3.91,-1.99 6.44,-2.15 0.55,1.74 3.97,1.5 7.2,0.69 0.84,-3.29 1.53,-6.89 1.99,-10.5 1.38,-11.49 3.91,-10.5 -5.59,-10.5 -3.83,0 -3.98,2.22 -3.98,5.44 0,1.46 1.84,-0.15 0.15,7.81 -0.38,1.99 -0.23,2.3 -2.6,2.38 0,-5.97 1.99,-11.95 1.99,-13.41 0.08,-2.6 0.69,-10.8 2.38,-11.95 2.53,1.53 0.31,2.6 1.23,6.13 10.56,0 8.81,-0.75 8.81,-5.82 0,-8.73 -16.09,-8.12 -19.08,-2.07l-4.9 25.28c-0.82,4.68 0.9,8.58 5.97,8.58l0 0.08z"/>
  <path class="fil2" d="M39.51 56.61c3.14,0 18.54,-0.46 20.45,-1.07 0,-2.53 0.77,-4.06 0.77,-6.51 -2.91,0 -9.65,0.92 -9.65,-0.38 0,-3.68 1.61,-7.89 1.61,-11.57 2.76,-0.61 6.05,-0.15 8.81,-0.69 0,-2.3 0.77,-4.06 0.77,-6.51 -8.27,0 -9.96,2.45 -6.82,-9.04 2.49,0 9.24,0.09 9.96,-1.53 0.08,-0.15 0.77,-4.29 0.77,-4.44 0.08,-1.46 -0.92,-1.61 -4.21,-1.15 -16.36,2.19 -15.81,-2.93 -17.01,5.67l-5.67 37.31 0.23 -0.07z"/>
  <path class="fil2" d="M272.7 13.1c0,2.22 -0.69,10.57 -3.45,9.27 -1.3,-0.61 1,-7.05 1,-10.34 1.61,0 2.38,-0.23 2.38,1.07l0.08 0zm-12.03 -7.58c0,4.14 -5.21,32.02 -5.21,34.78 2.07,0 4.44,0.84 5.44,0.54 1.07,-0.31 0.31,-0.61 1.99,-1.07 5.78,-1.55 1.63,2.46 4.98,-10.34 13.1,0 15.24,-6.2 15.24,-17.77 0,-8.55 -15.73,-6.98 -22.52,-6.13l0.08 -0z"/>
  <path class="fil2" d="M119.03 202.93c-3.04,0 2.07,-11.18 2.07,-15.55l0.38 0c0,1.38 0.07,18.02 -2.45,15.55zm-4.44 13.02c2.45,-4.6 -0.31,-6.89 3.98,-6.89 1.61,0 0.92,1.61 0.77,3.29 -0.23,3.75 -2.22,3.29 6.82,3.29 1.07,0 1.07,-0.15 1.99,-0.38 0,-12.41 1.23,-24.51 1.23,-36.92 -16.99,0 -12.66,-0.69 -15.55,9.12l-7.66 27.2c-0.61,2.38 -0.54,1.38 8.43,1.38l-0 -0.08z"/>
  <path class="fil3" d="M159.94 159.8l2.83 -10.88c0.61,6.44 0,4.52 0,10.88 0,0 -2.83,2.45 -2.83,0zm-11.64 13.79c2.38,1 5.67,0.54 8.43,0 0.84,-3.14 1,-6.51 3.22,-6.51 2.53,0 1.3,2.99 1.61,6.51 3.22,0 6.2,0.23 8.43,-0.69l1.15 -28.27c0,-10.95 1.23,-7.97 -8.81,-7.97 -5.72,0 -3.63,-0.04 -8.12,14.02l-5.9 22.9z"/>
  <path class="fil2" d="M103.79 122.88c-3.27,0 2.45,-12.74 2.45,-16.62l0.38 0c0,3.37 -1.15,10.19 -1.23,13.41 0,1.69 0.23,3.22 -1.61,3.22l0 0zm-2.83 -24.28l-10.42 37.31c10.65,0.38 8.96,0.23 10.04,-3.98 0.54,-1.99 0.46,-3.22 2.45,-3.22 4.44,0 -2.68,7.05 3.22,6.89l6.82 -0.46 1.3 -36.77 -13.25 0.38 -0.15 -0.16z"/>
  <path class="fil3" d="M33.08 164.86l2.99 -11.03c0,-0.15 0.15,-0.15 0.15,-0.23 -0.35,4.72 -0.01,12.33 -1.99,12.33 -0.92,0 -1.23,-0.23 -1.23,-1.07l0.08 -0zm-11.64 13.4c0,1.81 7.77,0.73 8.27,0.23 1.38,-1.38 0.23,-6.36 3.37,-6.36 2.76,0 1.23,3.68 1.23,6.51 11.79,0 7.97,3.3 9.57,-18.08 0.31,-3.14 -0.08,-6.89 0,-10.11 0.31,-9.42 3.14,-8.66 -6.82,-8.66 -7.12,0 -5.82,1 -7.35,5.97l-8.27 30.56 -0 -0.07z"/>
  <path class="fil1" d="M93.75 81.2c0,-2.07 2.76,-10.95 2.83,-13.56l1 0c0,19.06 -3.83,15 -3.83,13.56zm-1.38 -23.06l-10.26 36.46c-0.26,1.91 8.63,0.42 8.81,0.38 0.08,-1.84 0.84,-5.13 1.61,-6.51 5.75,-0.77 1.76,2.3 2.6,6.36 10.71,0.36 9.08,2.7 9.42,-15.78 0.44,-23.53 3.14,-21.66 -4.06,-21.37l-8.2 0.46 0.08 0z"/>
  <path class="fil1" d="M253.24 75.61c0.23,-3.14 2.99,-13.25 2.99,-14.86 1.92,1.28 0,7.16 -0.08,10.72 -0.08,4.44 -0.38,4.37 -2.99,4.14l0.08 0zm-1.38 -24.05l-10.42 37.31c9.58,0 8.66,1.07 9.88,-4.83 0.46,-2.15 1.07,-2.99 3.75,-2.07 0,9.04 -2.38,6.13 8.43,6.13l1.3 -36.39 -12.95 -0.15z"/>
  <path class="fil2" d="M273.16 121.42c0,9.88 15.32,8.35 18.61,3.75l3.06 -12.79 -8.81 0.38c-1.53,8.86 -0.8,9.73 -3.6,9.73l3.83 -25.28c0.32,-0.84 2.57,-2.16 1.53,3.22 -0.31,1.61 -0.54,2.45 -0.54,4.21 3.37,0 5.29,-0.38 8.81,-0.38 0.15,-1.99 1.23,-5.06 1.23,-7.2 -0.15,-8.04 -13.25,-8.35 -17.85,-4.14 -4.32,3.93 -5.31,26.47 -6.28,28.5z"/>
  <path class="fil2" d="M164.76 189.52c0,4.68 4.63,6.35 7.58,8.04 2.76,1.53 2.15,1.99 1.69,5.06 -0.31,2.53 -0.08,4.83 -2.45,5.36 -1.91,-2.6 0.54,-4.52 0,-7.28 -0.31,-1.53 -1.91,-0.69 -8.43,-0.69 -6.89,13.38 10.72,18.7 17.77,10.26 1.91,-2.3 2.76,-9.12 2.76,-12.03 0,-2.3 -2.45,-4.37 -3.91,-5.52 -5.28,-3.83 -6.28,-0.84 -5.28,-8.27 0.31,-2.07 0.08,-2.45 2.37,-2.53 0,5.13 -3.06,7.28 3.06,6.44 5.06,-0.69 5.75,1.53 5.75,-6.44 0,-6.89 -13.94,-8.5 -18.61,-2.38 -1.61,2.15 -2.22,6.51 -2.22,9.96l-0.08 0z"/>
  <path class="fil2" d="M117.42 110.16c0,5.36 3.78,6.48 7.35,8.5 3.06,1.76 2.15,1.53 1.84,4.9 -0.15,1.61 -0.23,5.44 -1.99,5.44 -2.07,0 -1,-2.53 -0.77,-3.98 1,-6.13 1.23,-3.68 -8.43,-3.68 -0.69,7.51 -3.29,13.79 9.65,13.79 8.84,0 11.26,-7.72 11.26,-15.17 0,-9 -11.81,-4.12 -9.19,-14.79 0.84,-3.29 1.53,-1.84 1.53,-1.84 2.19,0.73 0,1.43 0,6.13 9.27,0 9.65,0.77 9.65,-5.44 0,-7.8 -12.04,-9.79 -18.16,-3.68 -2.3,2.3 -2.68,6.66 -2.68,9.88l-0.07 -0.08z"/>
  <path class="fil3" d="M64.41 171.75c-2.51,0 -0.42,-2.52 -0.84,-7.58 -3.37,0 -5.36,0.38 -8.43,0.38 -0.61,2.38 -1.53,7.58 0,10.11 3.29,5.28 20.45,6.74 20.45,-9.04 0,-6.82 -0.46,-6.36 -6.74,-10.26 -3.37,-2.07 -3.22,-1.61 -2.22,-6.89l1.3 -1.76c1.77,0.59 0.38,2.59 0.38,5.44 14.17,3.15 9.51,-9.09 6.59,-10.57 -5.83,-2.96 -13.07,-1.87 -16.24,3.07 -1,1.61 -2.45,8.2 -1.3,10.95 2.76,6.97 10.57,4.14 8.96,11.11 -0.38,1.61 -0.08,5.13 -1.99,5.13l0.08 -0.08z"/>
  <path class="fil1" d="M237 236.79c0.31,2.38 -0.23,8.04 -1.38,9.27 -5.5,-0.31 2.46,-7.97 -2.99,-7.97 -2.91,0 -3.98,0.38 -6.82,0.38 -0.54,3.68 -2.83,9.65 2.3,12.41 4.52,2.45 12.56,1.61 15.63,-2.45 1.84,-2.38 3.37,-10.26 2.38,-13.41 -1.69,-5.29 -9.42,-5.36 -9.42,-8.89 0,-2.57 0.34,-6.53 2.99,-5.82 0.38,1.3 -0.61,3.14 -0.61,6.13 4.67,0 4.37,0.15 8.81,-0.46 0.46,-3.52 2.45,-11.26 -6.97,-12.1l-10.26 3.83c-1.38,1.23 -1.91,1.07 -2.38,4.37 -1.13,7.86 -1.44,8.92 5.98,13.02 0.92,0.54 1.84,1.23 2.83,1.61l-0.08 0.07z"/>
  <path class="fil2" d="M220.15 109.09c-0.69,-1.3 1,-8.96 1.23,-9.42 2.76,0.08 1.99,1.15 1.53,4.67 -0.46,3.29 -0.69,4.29 -2.76,4.75l-0 -0zm-12.03 22.06c9.81,0 7.9,2.66 10.34,-13.56 0.38,-2.68 0,-2.45 3.37,-2.76 10.5,-0.84 9.5,-7.74 10.34,-10.95 3.38,-12.53 -9.94,-10.13 -15.17,-10.04 -4.44,0.08 -4.14,-1 -4.52,2.83l-5.13 32.33c-0.23,1.3 -0.77,2.15 0.84,2.15l-0.08 -0z"/>
  <path class="fil2" d="M151.13 96.52l-4.6 28.65c-1.25,8.03 -4.02,9.68 5.9,8.27 9.19,-1.23 11.49,3.22 11.49,-6.28l-8.43 0c0,-1.3 1.23,-9.42 1.99,-10.88l7.2 -0.46c0.08,-1.84 0.84,-3.68 0.84,-5.75l-7.2 0c0,-10.05 1.87,-8.35 9.65,-8.35 0.46,-1.91 1,-3.6 0.77,-6.13l-17.62 0.84 0 0.08z"/>
  <path class="fil2" d="M188.97 175.73l-5.06 32.48c-1.31,7.78 -1.72,4.06 17.39,4.06 0,-2.22 0.77,-3.6 0.77,-5.82 -1.99,-0.38 -5.36,0 -8.43,0 0,-3.68 0.84,-5.82 1.15,-8.73 0.15,-1.91 -0.46,-1.69 1.3,-2.15 5.76,-1.55 6.31,3.29 7.66,-6.21 -9.96,0 -7.35,1 -6.82,-4.75 0.15,-1.53 0.23,-2.53 0.84,-3.6l8.04 0c0.69,-1.23 1.3,-4.29 1.07,-6.05l-17.92 0.77z"/>
  <path class="fil3" d="M82.11 139.88c-1.98,2.6 -6.05,30.99 -6.05,36.23 0,2.27 12.35,0.61 16.85,0.38 1.23,-1.61 1,-0.46 1.46,-3.14 0.66,-3.81 -1.73,-2.35 -8.27,-2.68 0,-12.38 1.31,-11.18 7.97,-11.18 1.07,-1.46 1.61,-2.6 1.61,-5.06 0,-2.07 -6.82,0.77 -6.82,-1.84 0,-11.34 3.14,-5.13 9.65,-7.97 0.31,-1.07 0.77,-3.45 0.77,-4.67 -2.73,-1.31 -14,0 -17.24,0l0.08 -0.08z"/>
  <path class="fil1" d="M171.2 217.41l-5.44 36.69c4.21,0.61 13.56,-0.23 17.85,-0.46 0,-7.99 3.6,-5.59 -6.43,-5.59 -2.92,0 0,-6.02 0,-10.88 6.65,-2.35 7.51,3.81 8.43,-6.59 -1.84,0 -5.59,0.38 -7.05,-0.15 -0.08,-0.54 0.54,-6.36 1,-7.05 1.03,-1.66 6.55,-1.07 8.43,-1.07 3.55,-7.99 -1.24,-5.82 -4.06,-5.82 -4.06,0 -9.11,0.31 -12.87,0.69l0.15 0.23z"/>
  <path class="fil1" d="M337.58 85.03c1.15,-1 1.53,-4.44 1.23,-5.82 -3.98,-0.61 -8.2,1.46 -8.2,-0.92 0,-13.7 4.03,-9.37 9.19,-10.5 0,-9.96 3.56,-3.81 -6.44,-5.75 0,-2.83 0.77,-5.06 0.77,-7.58 1.99,-0.69 6.36,-0.69 8.81,-0.69l0.77 -5.82 -11.18 0.38c-5.82,0.08 -6.51,-0.61 -6.89,2.45l-5.29 34.17c-0.03,1.85 16.09,0.06 17.24,0.08z"/>
  <path class="fil1" d="M205.29 252.87l16.47 -0.77c0.54,-0.84 1.23,-4.14 1,-5.52 -2.68,-0.38 -5.52,-0.23 -8.2,-0.15 0,-2.6 0.69,-8.73 1.61,-10.88 2.45,0 4.44,-0.38 7.2,-0.38l0.77 -5.82c-9.77,0 -7.17,1.46 -6.05,-7.97 3.06,-0.54 6.05,-0.15 8.81,-0.69 0.08,-2.07 0.84,-1.61 -0.23,-2.99 -2.38,-2.91 -1.99,-2.91 -10.19,-2.45 -9.05,0.52 -6.21,-3.15 -10.26,23.98 -0.73,4.91 -3.03,13.63 -0.92,13.63l0 0z"/>
  <path class="fil3" d="M141.09 152.6c0,-5.95 -0.02,-8.57 2.83,-8.66 0.12,0.44 1.05,7.93 -2.83,8.66zm-11.64 13.41c1.53,0.69 1.61,0.54 3.6,0.77 6.59,0.61 -0.61,7.58 2.83,7.58 2.12,0 2.85,-9.6 3.37,-12.87 0.61,-3.91 0.84,-1.61 7.66,-3.6 6.84,-2.03 11.33,-19.72 -1.76,-20.45 -2.91,-0.15 -4.21,0.46 -7.2,0.38 -4.37,-0.08 -4.06,-0.38 -4.52,3.22l-3.91 25.05 -0.08 -0.08z"/>
  <path class="fil2" d="M253.09 125.4c1.53,0.61 3.75,0.84 5.52,1.53 3.45,1.38 2.53,2.6 8.73,1.84 3.75,-0.46 2.91,0.61 3.83,-3.91 0.54,-2.68 1.23,-2.07 -8.43,-2.07 0.08,-2.15 1.61,-8.43 1.61,-10.88 6.89,0 8.43,0.69 8.43,-6.13 -8.58,0 -7.35,0.46 -6.89,-2.91 0.92,-6.44 -0.61,-5.44 9.27,-5.44 1.81,-7.1 4.55,-6.79 -14.94,-5.52 -3.41,0.22 -2.24,2.34 -3.6,10.19l-3.6 23.21 0.08 0.08z"/>
  <path class="fil2" d="M157.95 9.88c0,3.52 -5.82,35.39 -6.44,41.98l10.42 -0.31c1.15,-4.37 4.9,-30.8 6.13,-38.69 0.46,-2.83 1.84,-4.06 -2.22,-3.45 -2.91,0.38 -5.21,-0.08 -7.97,0.46l0.08 0z"/>
  <path class="fil2" d="M76.44 105.49l5.59 0c0,4.75 -4.75,27.65 -4.29,31.03 3.22,0.31 5.29,-0.08 8.66,-0.31l5.21 -31.1c6.89,-1.46 5.13,1.53 6.2,-3.83 0.38,-1.76 0.54,-1.23 0.23,-2.68l-13.64 0.77c-6.44,0 -7.28,-1.76 -8.04,6.13l0.08 0z"/>
  <path class="fil1" d="M191.27 54.08c-0.31,2.15 -0.77,3.37 -0.77,5.75 7.2,0 5.9,-2.68 2.91,16.78l-2.15 14.4c12.56,0 8.2,1.23 11.34,-14.1l2.76 -17.47c1.91,-0.08 3.29,-0.38 5.59,-0.38 0.38,-2.76 0.77,-1.76 0.77,-5.82l-20.45 0.77 0 0.08z"/>
  <path class="fil1" d="M191.27 216.33l-5.75 35.85c-0.36,2.82 3.21,1.07 10.11,1.07 1.99,0 5.97,0.23 6.82,-0.69 0.23,-0.23 1.38,-4.83 0.54,-5.21 -1.07,-0.54 -5.82,-0.15 -7.35,-0.23l4.44 -30.03c0,-1.76 -3.14,-0.69 -8.81,-0.69l-0 -0.08z"/>
  <path class="fil1" d="M172.81 83.42c0,3.37 1.23,1 1.23,3.6 0,1.69 -2.83,1.53 -2.22,4.52 3.68,0.54 14.02,0.08 17.08,-0.54 0.08,-4.75 2.53,-5.82 -1.61,-5.82 -2.38,0 -3.06,0.92 -5.59,0 0.69,-5.75 4.75,-27.65 4.83,-30.8 -11.38,0 -8.96,-2.24 -10.88,10.88l-2.83 18.16z"/>
  <path class="fil2" d="M9.02 102.19l-6.05 36.62c-0.14,1.78 6.53,0.54 9.19,0.31l5.67 -36.85c-1.91,-0.38 -5.82,0 -8.81,0l-0 -0.08z"/>
  <path class="fil2" d="M43.95 100.74l-6.05 37.31c11.01,0 9.24,0.59 9.88,-3.83l4.98 -33.93 -8.81 0.38 -0 0.08z"/>
  <path class="fil1" d="M207.74 90.24c4.52,0 5.36,0.38 9.04,-0.54l5.67 -35.55c0.31,-2.6 -1.84,-1.3 -4.29,-1.23 -6.12,0.09 -4.69,-0.56 -5.75,6.44l-4.75 30.87 0.08 0z"/>
  <path class="fil1" d="M154.73 55.62l-4.83 31.1c0,2.38 1.99,4.06 3.6,5.06 1.91,-1.15 5.06,-4.37 5.52,-6.66l3.83 -25.51c0.85,-6.28 2.13,-3.98 -8.12,-3.98z"/>
  <path class="fil1" d="M165.99 55.23c-0.84,6.82 -4.44,24.21 -4.44,29.95l8.43 -0.46 4.83 -29.95 -8.81 0.46z"/>
  <path class="fil1" d="M275.53 213.04c-0.97,6.76 -2.73,20.31 -1.84,27.65 2.38,0.38 1.61,0.23 4.44,-0.38 2.11,-8.25 6.21,-20.05 6.21,-27.73 -2.3,0 -7.12,-0.23 -8.81,0.38l-0 0.08z"/>
  <path class="fil1" d="M251.86 213.81l-1.99 27.81c5.59,0.46 4.37,0.15 5.59,-4.06 0.68,-2.43 6.21,-21.1 5.06,-23.98l-8.66 0.23z"/>
  <path class="fil1" d="M263.51 214.88c-0.92,2.76 -1.99,20.76 -1.99,25.36 0,1.38 1,1.07 3.6,1.07 1.93,0 6.19,-19.06 6.59,-21.22 1.15,-6.2 1.84,-7.05 -1,-7.05 -1.79,0 -1.15,5.12 -6.28,2.38 -0.54,-0.31 -0.23,-0.31 -1,-0.54l0.08 0z"/>
  <path class="fil3" d="M252.63 146.01c0.22,13.36 2.1,5.28 4.44,9.73l2.91 4.98 4.29 4.14c0,-26.01 -8.58,-19.04 -11.64,-18.85z"/>
  <path class="fil2" d="M274.77 204l0.54 0.84c-2.72,8.59 -6.78,3.04 -0.61,-0.77l0.08 -0.08zm-12.56 3.98c0.31,-0.69 4.44,-5.13 6.05,-5.29 -0.37,3.16 -1.3,4.49 -6.05,5.29zm-6.28 3.75c1.84,0.54 6.59,-2.91 10.42,-3.75 -0.08,3.52 -2.99,5.44 0.38,6.51l1.99 -7.2 1.23 0c0,6.51 3.29,2.49 4.37,2.22 0.08,1 0.15,1 0.38,1.84 2.17,-0.22 1.55,-1.71 2.83,-6.51 1.15,-4.37 3.29,-5.44 0.38,-6.2 -1.23,1.07 -1.3,4.37 -2.38,4.37 -2.99,0 -4.06,-0.69 -4.83,2.15 -1.53,-0.15 -1.53,0.77 -0.46,-2.53 2.74,-7.94 -2.28,-2.4 -4.44,-0.46l-9.88 9.65 -0 -0.08z"/>
  <path class="fil2" d="M304.03 207.22c0,-2.13 1.15,-5.28 3.22,-5.44 0,2.68 -1.07,5.44 -2.83,6.51 -0.54,-0.92 -0.38,0.31 -0.38,-1.07zm6.44 -6.13c0,0 6.82,7.81 -0.38,7.97 0.23,-2.45 1.07,-1.46 1.61,-3.29 -3.68,-0.77 -2.83,2.22 -2.83,-3.6 0,-2.83 -6.59,-0.69 -7.35,-0.15 -1.07,0.77 -1.91,2.68 -3.06,3.29 -1.15,-1.69 0.31,-3.37 -1.99,-3.91 -1.38,0.15 -0.69,1.23 -0.54,3.75 0.65,11.64 2.76,0.05 6.51,-0.84 -0.61,2.3 -0.61,2.45 0,4.67 3.39,0.68 3.05,0.62 5.9,-2.37 0.84,5.36 6.97,4.75 6.97,-0.15 0,-2.22 -1.84,-2.38 -1.99,-4.37 4.05,-0.81 0.72,1.56 2.91,0.38 0.54,-0.31 2.22,-3.22 -1.99,-2.15 -1.3,0.31 -1.84,0.69 -3.75,0.69l-0 0.08z"/>
  <path class="fil3" d="M232.63 184.08c-0.08,0 -0.15,-0.08 -0.15,0l-0.54 0.08 0.77 1.45c-0.09,2.06 -0.34,5.4 5.52,3.22 2.68,-1 6.05,-10.57 6.13,-12.64l-7.58 2.6c-5.52,2.38 -4.21,1.23 -4.14,5.36l0 -0.07z"/>
  <path class="fil2" d="M126.61 171.37c-0.02,-0 -12.03,-6.21 -12.26,5.28 7.66,0.77 4.75,-2.14 7.12,-2.45 0.17,-0.01 11.64,6 11.64,-5.44 -7.01,0 -3.95,0 -6.51,2.6z"/>
  <path class="fil1" d="M261.9 43.9c-2.76,0 -7.43,-4.06 -10.65,1.23 -3.29,5.29 0.31,4.6 2.22,4.6 1.84,0 1.84,-1.38 2.83,-2.53 4.32,0.36 9.55,5.98 12.41,-5.44l-4.83 0c-0.46,0.61 -1,2.15 -1.99,2.15l0 -0z"/>
  <path class="fil2" d="M233.78 202.93c17.65,0 2.15,10.33 -2.38,10.11l3.98 -9.04 -1.61 -1.07zm-0.38 0.38l-4.14 9.35c-1,1.99 -0.92,1 -2.6,1.91 2.35,3.92 1.75,1.07 6.2,0.23 12.11,-2.27 17.78,-14.77 -1.91,-12.95 -0.08,-1.91 0.38,-1.07 -0.84,-1.84 -0.61,0.38 -4.21,3.98 -3.37,5.21 1.46,2.07 1.15,-1.99 6.59,-1.99l0.08 0.08z"/>
  <path class="fil2" d="M280.74 205.07c0.23,-1.53 0.23,-1.69 1.99,-1.84 -0.77,1.07 -0.77,1.15 -1.99,1.84zm4.83 -2.53c0.38,1.91 2.38,1.38 2.38,5.44 0,1.69 -1.76,3.22 -2.83,2.22 -2.19,-1.99 6.86,-3.37 -3.14,-2.91 -2.17,4.33 -4.08,1.4 -1.23,0.08l4.6 -4.52c-2.76,-1.07 -4.21,-1.99 -6.13,1.23 -2.59,4.42 -2.6,9.36 3.6,5.75 0.48,0.21 3.93,4.26 7.2,0 1.84,0.46 0.38,0.54 2.38,0.69 0.23,-0.46 2.15,-6.97 1.99,-7.97l-1.23 0 -2.38 5.44 -2.83 -4.37c2.76,-0.84 0.84,0.31 3.06,0.61 0.69,-1.3 0.61,-1 0.54,-2.76 -0.92,0 -5.52,0.84 -6.05,1.07l0.08 -0z"/>
  <path class="fil2" d="M252.63 146.01c2.98,-0.19 11.64,-7.28 11.64,18.85 4.47,-0.23 5.83,0.25 4.83,-2.07 -3.91,-7.97 -2.53,-8.66 -5.52,-15.01 -1.84,-3.91 -6.59,-9.65 -9.35,-6.05 -1.15,1.46 -0.92,2.53 -1.61,4.37l0 -0.08z"/>
  <path class="fil2" d="M227.35 192.43c0,1.38 1.61,1.23 1.61,6.13 5.67,0 0.15,1.46 6.44,1.46 1.69,0 0.84,-1.69 1.61,-5.06 0.31,-1.38 1.46,-3.98 1.46,-4.98 -5.52,-1.25 -2.25,2.3 -4.21,3.52 -0.54,-2.07 -0.69,-2.91 -1.84,-4.44 -1.53,0.31 -4.98,1.69 -4.98,3.37l-0.08 0z"/>
  <path class="fil2" d="M219.76 172.52c5.83,0 9.56,1.73 11.26,6.97 2.99,-1.69 1.53,0.61 7.2,-2.15 -0.57,-2.28 -13.59,-10.89 -18.54,-4.82l0.08 0z"/>
  <path class="fil1" d="M247.04 251.04c9.27,0 8.04,1.23 9.27,-6.89 -0.84,-0.31 -8.2,-0.23 -8.96,0.23 -0.25,0.16 -2.48,6.66 -0.31,6.66z"/>
  <path class="fil1" d="M257.92 249.58c0,1.84 1.46,1.07 8.81,0.61 1,-1.61 1.23,-4.75 1.23,-6.82 -7.47,0.16 -10.04,-1.82 -10.04,6.2z"/>
  <path class="fil1" d="M270.71 249.96c7.51,0 8.72,1.97 9.27,-6.82 -11.47,-1.72 -9.56,2.24 -9.88,4.14 -0.31,1.53 -0.92,2.76 0.61,2.76l-0 -0.08z"/>
  <path class="fil2" d="M155.8 94c0.92,0.23 3.37,-0.08 4.98,-0.08 2.88,-0.04 9.2,-5.83 9.96,-6.89 -5.21,0 -8.2,-0.69 -10.19,1.3 -1,1 -4.98,4.67 -4.83,5.67l0.08 0z"/>
  <path class="fil2" d="M276.38 155.13c2.76,1.69 1.3,5.06 1.23,7.58 2.91,0 5.26,-7.99 5.21,-10.88 -0.08,-2.3 -0.31,-2.53 -2.83,-2.53 -0.46,1.61 -2.68,3.6 -3.6,5.82l0 -0z"/>
  <path class="fil2" d="M245.73 210.28c-0.23,-1.61 2.07,-3.91 1.76,-6.28 -1.94,0 -1.87,-0.16 -3.45,3.83 -1.23,3.29 -0.38,5.59 2.99,3.14 1.07,1.46 -0.54,1.69 2.83,1.69 0,-3.45 -0.23,-3.29 1.69,-6.82 0.77,-1.53 0.92,-4.06 -0.92,-2.3 -2.06,2.56 -3.16,6.87 -4.9,6.74z"/>
  <path class="fil2" d="M220.99 160.57c6.57,0 6.54,-1.53 6.36,-6.44l-6.36 1.3c-0.46,0.31 -1.99,5.13 0.08,5.13l-0.08 0zm-0.08 -7.51c10.31,-1.47 5.33,-8.93 1.46,-10.26l-0.69 8.12c-0.08,0.69 -0.54,0.69 -0.77,2.15l0 -0zm2.68 9.65l-0 0 -0 0 -4.21 0 -0.23 3.14c4.37,0.77 7.81,0.46 7.89,-4.21 -1.46,0.08 -1.07,0.15 -2.22,0.69l-0.08 -0.08 0 0.08 -1.23 0.46 0.08 -0.07 0 0 -0 0 0 -0z"/>
  <path class="fil3" d="M278.37 162.71l-0.77 0c0.08,-2.6 1.53,-5.9 -1.23,-7.58 -0.22,2.13 -3.07,3.76 -3.22,7.58l5.21 0z"/>
  <path class="fil2" d="M294 200.02l0 1.07c1.84,-0.15 2.22,-0.84 2.38,-2.53 -1.46,0 -2.38,0.15 -2.38,1.46z"/>
 </g>
</svg>
