<?xml version="1.0" encoding="UTF-8"?>
<!DOCTYPE svg PUBLIC "-//W3C//DTD SVG 1.1//EN" "http://www.w3.org/Graphics/SVG/1.1/DTD/svg11.dtd">
<!-- Creator: CorelDRAW -->
<svg xmlns="http://www.w3.org/2000/svg" xml:space="preserve" width="63.3973mm" height="19.1802mm" version="1.1" style="shape-rendering:geometricPrecision; text-rendering:geometricPrecision; image-rendering:optimizeQuality; fill-rule:evenodd; clip-rule:evenodd"
viewBox="0 0 152.34 46.09"
 xmlns:xlink="http://www.w3.org/1999/xlink"
 xmlns:xodm="http://www.corel.com/coreldraw/odm/2003">
 <defs>
  <style type="text/css">
   <![CDATA[
    .fil8 {fill:#051017}
    .fil0 {fill:#060908}
    .fil10 {fill:#070A09}
    .fil13 {fill:#2F586C}
    .fil1 {fill:#34AEFB}
    .fil2 {fill:#3EBBEA}
    .fil16 {fill:#6B6C6C}
    .fil11 {fill:#71C2FC}
    .fil5 {fill:#71C4FE}
    .fil15 {fill:#838484}
    .fil9 {fill:#879B9A}
    .fil7 {fill:#A7F5F6}
    .fil3 {fill:#AAF8F9}
    .fil12 {fill:#F5FAFB}
    .fil14 {fill:#FAFAFA}
    .fil6 {fill:#FDFDFD}
    .fil4 {fill:#FEFEFE}
   ]]>
  </style>
 </defs>
 <g id="Camada_x0020_1">
  <metadata id="CorelCorpID_0Corel-Layer"/>
  <g id="_2051269651520">
   <path class="fil0" d="M8.76 20.85c-0.25,0.13 -1.88,0.25 -1.48,-1.38 0.53,-2.17 1.6,-3.14 -1.51,-2.47 -0.71,0.15 -0.93,0.5 -1.16,1.16 -0.21,0.61 -0.37,1.16 -0.5,1.81 -0.15,0.77 -0.14,1.5 -0.57,1.76 -0.9,0.45 -1.61,-0.33 -1.35,-1.36 0.18,-0.71 0.63,-1.88 0.61,-2.6l-2.12 -0.03c-0.51,-1.59 1.11,-1.23 2.23,-1.56 0.73,-0.22 1.41,-1.62 1.3,-2.53 -1.25,-0.18 -2.87,0.5 -2.49,-0.71 0.19,-0.6 1.92,-0.66 2.58,-0.87 2.07,-0.65 1.29,-3.68 2.35,-4.47 1,-0.56 1.65,0.11 1.27,1.27 -0.2,0.61 -0.76,1.93 -0.68,2.48 3.3,0.52 3.28,-1.53 4.05,-3.98 0.29,-0.94 0.84,-1.1 1.72,-0.57 0.21,1.04 -1.04,3.04 -0.57,3.62 0.4,0.41 1.13,-0.15 1.54,0.28 0.66,1.05 -1.26,1 -1.98,1.41 -0.61,0.35 -1.32,1.28 -1.1,2.41 0.51,0.11 2.69,-0.48 2.05,0.72 -0.24,0.46 -1.76,0.75 -2.4,0.9 -0.57,0.14 -0.64,0.26 -0.82,0.78 -0.15,0.43 -0.25,0.77 -0.36,1.23 -0.11,0.45 -0.2,0.87 -0.26,1.32 -0.08,0.62 -0.02,1.04 -0.37,1.35zm4.76 -1.37c0.97,-0.09 2.32,-0.07 3.3,-0.03 0.99,0.04 2.2,-0.02 2.1,1.25 -0.04,0.58 -1.49,4.12 -1.78,4.86 -0.6,1.59 -1.19,3.18 -1.8,4.79 -1.2,3.16 -2.3,3.06 -6.99,2.85 -3.14,-0.14 -2.51,-0.61 -0.49,-6.07 0.59,-1.6 1.18,-3.17 1.79,-4.8 0.95,-2.53 0.91,-2.59 3.87,-2.85zm7.59 -2.41c-0.5,0.1 -2.58,0.12 -3.04,-0.02 -0.35,-0.62 0.2,-0.65 0.09,-1.6 -2.39,-0.79 -2.73,0.8 -2.94,1.1 -0.39,0.56 -0.63,0.59 -1.45,0.58 -0.6,-0 -1.47,0.07 -2.03,-0.09 0.1,-0.61 0.95,-0.73 1.47,-1.04 0.94,-0.56 0.33,-1.1 0.39,-2.01 0.04,-0.68 5.27,-9.01 5.84,-9.94 0.63,-1.04 0.91,-1.02 3,-1 0.54,0 0.81,-0.01 0.91,0.49 0.07,0.33 -1.89,12.94 -2.24,13.53zm2.54 11.92c-0.72,0.26 -1.28,2.47 -1.51,3.15 -0.22,0.67 -0.4,1.06 -1.18,1.17 -0.53,0.07 -1.79,0.19 -2.17,-0.03 -0.16,-0.13 -0.36,-0.18 -0.07,-1l1.09 -2.84c0.98,-2.59 2.52,-6.96 3.51,-9.3 0.37,-0.88 0.92,-0.65 1.91,-0.66 7.54,-0.01 7.68,-1.25 4.42,6.87 -1.11,2.76 -1.04,1.77 -2.43,2.8l-0.1 4.13c-0.53,0.14 -1.19,0.05 -1.76,0.02 -0.67,-0.03 -1.44,0.12 -1.6,-0.53 -0.18,-0.74 0.41,-2.66 -0.11,-3.78zm16.83 -9.53c0.12,0.63 -0.11,2.01 -0.38,2.47l-3.53 0.13c-0.31,0.62 -1.11,2.37 -1.16,3.25 0.73,0.11 1.88,-0.06 2.52,0.29 0.03,0.6 -0.51,1.54 -0.76,2.03 -3.25,0.11 -2.57,-0.35 -3.33,1.56 -0.2,0.51 -0.63,1.28 -0.4,1.52 0.61,0.39 2.22,0.02 3.07,0.11 0.01,0.8 -0.94,1.8 -1.32,2.5l-6.13 -0.01c-0.07,-0.68 2.07,-5.97 2.45,-6.95l2.64 -6.86 6.36 -0.02zm-11.08 -8.44l-0.02 0.46 0.28 -0.09c0.74,-1.05 3.59,-6.84 4.13,-7.52 0.51,-0.64 2.38,-0.77 3.35,-0.44 0.03,0.64 -1.81,3.4 -2.2,4.04 -0.8,1.29 -1.61,2.67 -2.39,3.96 -0.82,1.36 -1.56,2.61 -2.37,3.96 -0.32,0.54 -0.84,1.65 -1.34,1.81 -0.49,0.15 -2.76,0.15 -3.06,-0.06 -0.16,-0.19 -0.12,0.25 -0.12,-0.42l1.21 -7.93c0.21,-1.39 0.44,-2.83 0.64,-4.23 0.13,-0.93 0.17,-1.27 1.15,-1.27 0.79,0 1.79,-0.03 2.29,0.25 0.21,1.11 -1.34,5.93 -1.54,7.49zm9.53 -7.71c3.95,-0.33 3.09,0.2 2.24,2.45 -0.57,1.51 -1.16,3.06 -1.74,4.61 -0.24,0.65 -2.31,6.57 -2.72,6.79 -0.29,0.15 -2.59,0.15 -2.97,0.05 -0.23,-0.63 2.06,-6.01 2.45,-7.04 0.39,-1.03 2.33,-6.39 2.75,-6.86zm-0.3 13.89c-0.01,-0.81 2.96,-8.26 3.44,-9.55 0.29,-0.78 0.63,-1.65 0.91,-2.41 0.28,-0.75 0.46,-1.77 1.2,-1.91 1.32,-0.25 4.87,-0.1 6.33,-0.02 2.35,0.13 0.76,2.81 0.22,4.2 -0.6,1.55 -1.19,3.05 -1.76,4.58 -1.91,5.16 -1.45,5.14 -7.74,5.15l-2.6 -0.04zm8.82 4.75c-1.88,-0 -2.44,-0.23 -2.87,1.01 -0.21,0.61 -0.57,1.35 -0.56,2.05 1.1,0.44 3.64,-0.32 3.65,0.94 0,0.37 -0.93,2.8 -1.15,3.35 -1.07,2.78 -1.21,4.11 -4.93,4.11 -0.8,0 -2.46,0.08 -3.07,-0.11 -0.23,-0.6 -0.19,-1.98 0.26,-2.34 0.44,-0.35 1.91,-0.18 2.57,-0.18 1.23,0 1.39,-0.08 1.77,-1.11 0.18,-0.5 0.66,-1.47 0.52,-2.09 -1.32,-0.29 -2.5,0.34 -3.5,-0.51 -0.11,-1.03 1.53,-4.89 1.95,-5.86 0.94,-2.18 3.29,-1.83 6.22,-1.84 1.17,-0 1.33,-0.06 1.14,1.11 -0.25,1.53 0,1.47 -1.99,1.47zm3.23 -0.07c0.04,-0.63 0.86,-1.62 1.18,-2.01 0.37,-0.44 0.43,-0.5 1.19,-0.51l4.88 -0c0.78,0.22 0.39,2.05 0.13,2.6l-1.93 -0.03c-0.44,0.46 -2.07,5.11 -2.45,6.11 -0.38,1.03 -0.78,2.05 -1.18,3.09 -0.56,1.46 -0.38,2.2 -2.13,2.21 -1.25,0 -2.1,0.18 -1.7,-1.01l1.69 -4.43c0.38,-1 0.72,-1.89 1.11,-2.92 1.66,-4.37 0.89,-2.65 -0.79,-3.08zm-2.22 -4.74c-0.01,-0.74 6.2,-10.74 7.08,-12.26 0.39,-0.67 0.81,-1.48 1.5,-1.64 0.85,-0.2 2.2,-0.13 2.82,0.18 0.19,0.65 -1.8,13.42 -2.16,13.68 -0.55,0.24 -2.42,0.12 -3.08,-0.06l0.02 -1.57c-0.39,-0.05 -1.68,-0.06 -2.01,0.07 -0.95,0.37 -0.16,1.65 -2.26,1.67 -0.63,0.01 -1.3,0.07 -1.92,-0.07zm20.15 2.92c0.35,0.83 -2.9,8.51 -3.41,9.86 -0.75,1.98 -1.02,3.08 -3.42,3.29 -1.04,0.09 -2.19,0.04 -3.24,0.04 -3.66,-0 -3.14,-0.36 -1.12,-5.74 0.61,-1.62 1.21,-3.21 1.86,-4.86 0.81,-2.07 0.79,-3.12 3.4,-3.25 1.16,-0.06 5.44,-0.49 5.92,0.65zm-0.31 -4.87c-0.02,0.06 -0.2,0.34 -0.23,0.39 -0.87,1.38 -0.72,1.55 -2.2,1.54 -1.44,-0.01 -3.65,0.11 -5,-0.08 -0.01,-0.57 4.74,-13.13 5.33,-13.92 1.66,-0.16 1.04,1.83 2.79,0.82 0.86,-0.5 2.09,-1 3.31,-0.78 0.15,0.46 0.01,1.77 -0.08,2.05 -0.43,1.27 -3.03,-0.18 -3.82,0.82 -0.29,0.37 -0.97,2.39 -0.91,2.91 0.79,0.31 2.26,-0.11 2.31,0.43 0.04,0.39 -0.59,1.65 -0.73,1.97 -0.84,0.11 -2.52,-0.23 -2.97,0.57 -0.27,0.48 -0.96,2.13 -0.71,2.56 0.48,0.37 3.36,-0.51 2.9,0.71zm-0.03 -12c-0.3,-0.54 1.3,-1.06 2.17,-1.47 1.06,-0.5 2.25,-1.3 2.53,-0.76 0.29,0.55 -1.68,1.19 -2.14,1.41 -0.42,0.2 -2.26,1.37 -2.56,0.82zm0.69 26.82c0.45,-1.2 3.58,-9.99 4.08,-10.28 1.44,-0.19 1.14,0.59 1.99,1.16 0.36,-0 0.65,-0.07 0.91,-0.25l0.28 -0.32c0.37,-0.52 0.65,-0.52 1.61,-0.85 0.8,-0.28 1.21,-0.23 1.15,0.75 -0.03,0.5 -0.15,1.34 -0.32,1.72 -1.67,0.14 -1.74,-0.09 -2.99,0.39 -0.51,0.2 -0.49,0.38 -0.7,0.89l-0.72 1.73c-0.28,1.26 2.08,0.53 2.11,0.51 -0.03,3.97 -1.34,1.9 -3.07,2.65 -0.32,0.18 -0.91,1.69 -1.07,2.14 -0.25,0.69 0.03,0.66 0.06,0.68 0.44,0.32 2.24,0.08 2.96,0.19 0.07,0.57 -0.51,1.28 -0.77,1.73 -0.47,0.81 -0.68,0.82 -1.76,0.83 -6.02,0.03 -5.47,0.96 -3.75,-3.67zm5.7 -12.55c-3.39,0 -3.09,-0.87 -2.15,-3.3l3.69 -9.59c0.19,-0.85 0.55,-1.03 2.04,-1.28 1,-0.17 2.23,-0.12 3.25,-0.1 3.39,0.09 3.35,0.44 2.3,3.23 -0.56,1.48 -3.14,8.69 -3.81,9.48 -0.5,0.6 -1.21,0.89 -2.23,1.09 -1.12,0.22 -1.94,0.46 -3.1,0.46zm1.01 2.46c-0.53,0.12 -0.33,0.04 -0.51,-0.31 0.25,-0.64 0.53,-0.17 1.03,-0.78 0.23,-0.29 -0.12,-0.13 0.42,-0.44 0.14,-0.08 0.41,-0.17 0.6,-0.25 0.59,-0.26 1.97,-1.05 2.54,-0.96 0.14,0.63 0.22,0.4 -0.26,0.67l-2.04 0.9c-0.26,0.12 -0.43,0.18 -0.68,0.29 -0.86,0.39 -0.36,0.71 -1.09,0.88zm5.01 7.1c-0.09,-0.9 0.88,-3.15 1.23,-4.06 1.5,-3.94 1.92,-3.63 7.02,-3.57 1.31,0.01 1.17,0.23 1,1.44 -0.15,1.12 -0.2,1.18 -1.38,1.18 -2.78,-0 -2.97,-0.3 -3.52,1.18 -0.22,0.58 -0.6,1.23 -0.5,1.91 1.26,0.33 2.86,-0.11 3.63,0.49 0.13,0.82 -0.64,2.5 -0.96,3.39 -1.45,3.94 -1.58,4.48 -6.34,4.43 -0.7,-0.01 -1.47,0.16 -1.79,-0.33 -0.47,-0.53 0.09,-1.92 0.35,-2.22 1.03,-0.24 3.28,0.27 3.81,-0.35 0.3,-0.35 1.07,-2.4 0.99,-2.91 -1.17,-0.41 -2.8,0.26 -3.54,-0.58zm6.05 -15.01c-0.4,0.22 -0.6,1.1 -0.84,1.73 -0.44,1.13 -0.98,3.22 -1.74,3.36 -0.46,0.09 -2.02,0.09 -2.41,-0.06 -0.13,-0.73 3.1,-8.71 3.77,-10.49 0.35,-0.92 0.89,-2.58 1.37,-3.27 0.22,-0.15 2.28,-0.11 2.7,0.06 1.02,0.41 -0.42,3.53 0.09,4.66 0.36,-0.17 0.33,-0.31 0.52,-0.81 0.13,-0.34 0.22,-0.56 0.35,-0.87 0.66,-1.66 0.84,-3 1.93,-3.1 0.62,-0.06 1.86,-0.06 2.48,0.02 0.07,0.84 -3.71,10.34 -4.48,12.4 -0.28,0.73 -0.34,1.42 -1.27,1.47 -0.61,0.03 -2.2,0.23 -2.6,-0.16 -0.22,-0.45 0.21,-3.95 0.16,-4.94zm5.12 5.03c-0.07,-0.8 3.13,-8.7 3.59,-9.96 1.27,-3.42 1.03,-3.87 2.87,-3.91 6.05,-0.14 7.6,-0.53 6.19,2.87l-2.8 7.33c-0.67,1.77 -1.16,3.38 -3.17,3.67 -1.22,0.17 -5.4,0.13 -6.68,0zm6.82 2.35c0.78,-0 1.77,-0.07 2.52,0.01 -0.01,0.61 -2.87,7.81 -3.3,8.93 -1.74,4.56 -1.48,5.12 -7.27,5.04 -2.86,-0.04 -3.19,-0.48 -2.22,-3.04l3.35 -8.85c0.23,-0.61 0.58,-1.87 1.01,-2.05 0.35,-0.14 2.8,-0.26 2.91,0.12 0.29,0.99 0.06,-0.53 0.07,0.28 0,0.58 -4.01,9.9 -3.91,11.01 0.86,0.21 1.53,0.24 1.91,-0.57l3.63 -9.53c0.38,-1.01 0.18,-1.35 1.31,-1.36zm4.4 9.52c-0.95,0.67 -1.23,3.92 -2.13,4.31 -0.38,0.17 -2.6,0.31 -2.87,0.03 -0.31,-0.32 0.44,-1.85 0.6,-2.29 1.14,-3.04 2.31,-6.01 3.52,-9.18 1.21,-3.15 -0.02,-2.41 7.22,-2.45 1.04,-0.01 1.92,0.2 1.8,1.35 -0.07,0.64 -1.39,3.8 -1.71,4.64 -0.97,2.53 -0.71,2.82 -2.83,3.56l0 4.35c-0.59,0.17 -2.86,0.08 -3.39,-0.06 -0.15,-1.16 0.4,-3.41 -0.22,-4.27zm2.88 -13.49c-0.56,0.15 -0.56,0.65 -0.88,1.18 -0.39,0.65 -0.91,0.47 -1.75,0.46 -0.59,-0.01 -1.7,0.18 -1.66,-0.34l6.28 -10.55c0.35,-0.58 1.25,-2.26 1.62,-2.65 0.6,-0.64 2.65,-0.42 3.69,-0.32 0.08,0.9 -0.84,5.79 -1.03,7.03 -0.22,1.41 -0.72,6.02 -1.25,6.78l-2.41 0.1c-1.29,-0.06 -0.44,-0.59 -0.55,-1.7 -0.39,-0.11 -1.66,-0.08 -2.06,0.03zm7.78 3.88c1.14,-0.16 3.33,-0.01 4.59,-0 0.85,0 1.69,-0.25 1.72,0.55 0.01,0.39 -0.19,1.67 -0.28,1.99l-3.61 0.1c-0.36,0.37 -1.28,2.6 -1.09,3.27 2.14,0.08 2.76,-0.25 2.21,1.05 -0.19,0.46 -0.3,0.89 -0.59,1.26l-2.77 0.15c-0.45,0.96 -1.68,5.09 -2.28,5.55 -0.43,0.12 -1.09,0.08 -1.61,0.09 -0.23,0 -0.65,0.04 -0.86,0.02 -0.19,-0.01 -0.15,-0 -0.33,-0.05 -0.8,-0.23 0.35,-2.28 0.85,-3.61l2.67 -6.97c0.31,-0.84 0.97,-2.76 1.37,-3.38zm-1.42 -0.51c0.07,-0.76 0.58,-1.02 0.23,-1.57 -0.34,-0.53 -0.68,-0.5 -0.17,-1.36 0.43,-0.72 1.51,-1.57 2.81,-1.14 1.95,0.65 -0.95,3.75 -2.87,4.06zm8.27 12.24c1.1,1.53 -2.44,3.29 -3.24,1.88 -0.5,-0.88 0.42,-1.78 0.96,-2.09 0.81,-0.46 1.73,-0.56 2.28,0.21zm0.54 -8.7c0.56,0.31 0.12,0.81 1.95,2.26 -0.03,0.69 -1.01,2.55 -1.33,3.19 -0.76,1.51 -0.52,2.03 -2.7,1.72 -0.05,-0.65 1.77,-6.82 2.09,-7.17zm0.45 -1.6c0.09,-0.89 0.36,-1.4 1.25,-1.43 0.47,-0.02 2.22,-0.15 2.47,0.08 0.26,0.25 0.14,0.8 -0.18,0.96 -0.37,0.19 -0.89,-0.02 -1.31,-0.03 -0.91,-0.02 -1.48,0.27 -2.23,0.42zm9.9 12.68c-0.33,-0.61 -1,-1.69 -1.12,-2.39 2.01,-0.44 1.2,-0.93 2.98,0.29 0.86,0.41 5.79,2.79 6.2,3.2 -0.36,0.99 -5.14,2.17 -6.45,1.95 -0.5,-0.45 -1.31,-2.35 -1.6,-3.04zm6.48 -9.09c-1.36,-1.52 -3.88,-1.76 -4.37,-2.01 0.78,-0.4 2.95,-0.2 3.94,-0.05 1.1,0.17 2.05,0.81 3.08,1.17 0.62,-0.05 0.89,-0.09 1.27,-0.35 0.07,-0.9 -0.49,-0.88 -1.32,-0.98l-1.18 -0.21c-2.89,-0.45 -2.97,-1.75 -6.67,-1.02l-5.17 0.9c-1.05,0.18 -0.64,0.48 -1.25,0.61 -1.02,-1.15 0.05,-1.91 0.11,-3.19l-0.29 -0.29c-1.25,-0.29 -9.37,0.23 -11.19,-0.25 0.06,-0.89 1.93,-1.35 1.8,-3.05 -0.05,-0.64 -0.73,-0.99 -1.2,-1.23 -0.64,-0.34 -1.28,-0.21 -2.09,-0.17 -0.21,0.17 -0.32,0.36 -0.78,0.23 -0.09,-0.64 0.53,-4.02 0.67,-4.93l0.79 -4.86c0.05,-0.02 0.03,-0.08 0.04,-0.11l0 -1.44 -0.34 -0.43c-1.01,-0.06 -3.73,-0.14 -4.43,0.17 -0.24,0.3 -0.89,1.19 -1.47,1.31 -0.62,0.12 -1.8,0.16 -2.02,-0.61 -1.62,-1.34 -5,-0.9 -7.6,-0.92 -2.28,-0.02 -1.43,0.5 -2.52,0.28 -3.82,-0.8 -3.13,0.17 -4.91,0.16 -0.85,-0 -1.83,-0.64 -3.82,-0.28 -0.52,0.09 -0.7,0.2 -0.93,0.46 -0.12,0.38 -0.3,0.54 -0.74,0.58 -0.35,-0.25 -0.16,0.01 -0.32,-0.39 -2.18,-0.75 -4.93,-1.27 -7.41,-0.54 -2.26,0.67 -0.92,0.67 -1.78,1.09l-0.26 0.04c-0.26,0.26 0.21,0.1 -0.48,0.24 -0.23,0.04 -0.28,0.02 -0.49,0.01 -0.49,-0.02 -0.56,0.02 -0.82,-0.25 -0.25,-0.07 -0.15,0.07 -0.51,-0.73 -0.14,-0.32 -0.35,-0.62 -0.2,-1.03 0.23,-0.63 0.93,-0.67 0.77,-1.77 -0.61,-1.31 -3.31,0.54 -4.33,1.01l-4.47 1.91c-0.21,0.99 -1.18,0.69 -2.27,0.67 -1.42,-0.02 -1.55,0.11 -2.05,-1.02 -1.19,-0.73 -3.35,-0.73 -4.75,-0.17 -0.19,0.44 -0.79,1.09 -1.51,1.21 -1.18,0.21 -1.38,-0.35 -2.09,-0.59 -1.38,-1.04 -1.58,-1.03 -3.63,-1 -1.46,0.02 -3.01,-0.18 -4.39,-0.01 -0.57,0.29 -1.63,0.38 -2.34,0.05 -1.68,-0.15 -3.68,0.4 -5.02,0.04 -1.68,-0.46 -2.94,0.22 -3.94,0.95 -0.15,0.32 -0.29,0.35 -0.76,0.32l-0.14 -0.34c-0.42,-0.31 -0.36,-0.39 -0.97,-0.41l-4.2 0.18 -0.15 0.39c-0.45,0.12 -1.09,0.18 -1.64,0.13 -0.67,-0.06 -0.81,-0.31 -1,-0.87 -0.03,-0.01 -0.03,-0.04 -0.07,-0.04l-0.75 -0.34c-1.72,-0.55 -2.25,-0.09 -3.53,-0.01l-1.28 1.79c-0.63,1 -3.47,5.65 -3.73,5.86 -0.54,-0.09 -0.36,-0.15 -0.78,-0.29 -0.33,-0.11 -0.48,-0.06 -0.77,-0.15 -0.18,-0.98 0.82,-2.26 0.38,-3.09 -0.35,-0.67 -1.97,-1.01 -2.59,-0.3 -1.01,1.15 -0.6,4.88 -2.93,4.37 -0.2,-1.24 1.56,-3.11 -0.54,-3.73 -1.9,-0.56 -1.94,1.21 -2.36,2.58 -0.59,1.92 -0.78,2.06 -2.93,2.34 -0.76,0.1 -1.34,0.54 -1.18,1.5 0.18,1.08 1.04,0.63 1.97,0.78 0.47,0.62 0.08,1.33 -0.59,1.53 -1.09,0.32 -1.07,0.08 -2.15,0.64 -0.33,0.41 -0.56,0.87 -0.16,1.44 0.42,0.6 0.88,0.33 1.71,0.48 0.06,1.5 -1.15,3.7 0.88,4.03 2.07,0.34 1.86,-1.08 2.18,-3.28 0.34,-2.3 1.93,-1.56 1.97,-1.51 0.27,0.72 -0.58,1.76 -0.21,2.89 0.49,1.48 1.55,0.68 2.26,1.16 0.26,0.3 -1.35,4.13 -1.63,4.95 -0.5,1.41 -1.02,3 -1.51,4.47 -0.32,0.96 -0.73,1.38 -0.05,2.18 0.45,0.54 0.96,0.97 1.98,1.07 1.45,0.14 4.49,0.18 5.65,-0.31 1.56,-0.65 1.69,-2.19 3.74,-1.88l0.42 0.13c0.34,0.2 0.1,0.01 0.14,0.22 0.11,0.17 0.03,-0.02 0.11,0.29 0.02,0.09 0.06,0.32 0.08,0.42 0.14,0.99 0.21,1.12 1.43,1.17 1.58,0.07 2.05,0.16 3.06,-0.57 0.25,-0.28 0.19,-0.29 0.61,-0.47l0.18 0.17 0.17 0.24c0.21,0.25 -0.03,0.07 0.25,0.25 0.45,0.29 1.86,0.41 2.44,0.37 1.26,-0.08 2.15,-0.28 3.52,-0.2 1.21,0.07 2.42,0.1 3.67,0.1 1.69,0 2.04,-0.08 3.13,-0.78 0.14,-0.41 0.36,-0.6 0.77,-0.67 0.32,0.24 0.48,0.51 0.37,0.92 1.61,0.95 2.62,0.7 4.63,0.67 1.29,-0.04 2.25,-0.22 3.26,-0.96l0.16 -0.12c0.95,-0.7 1.72,-0.88 2.21,0.39 0.29,0.31 0.43,0.61 1,0.68 0.43,0.05 1.12,0.1 1.55,0.09 1.77,-0.04 1.92,-0.62 2.4,-0.93 0.07,-0.37 0.04,-0.43 0.42,-0.49 0.26,-0.25 0.71,-0.2 1.21,-0.18 0.93,0.04 2.03,0.89 2.44,1.33 1.3,0.16 2.93,0.19 4.27,0.17 0.84,-0.01 2.63,-0.71 3.3,-1.04 0.49,-0.38 0.87,-0.39 1.58,-0.39l0.62 0.07c0.26,0.33 0.43,0.72 0.59,1.2 0.83,0.19 4.25,0.1 5.38,0.06 1.91,0.39 2.07,-0.27 2.86,-0.97 0.26,-0.23 0.06,-0.08 0.27,-0.18l0.52 -0.35c0.58,-0.28 1.43,-0.35 1.94,0.36 0.88,1.22 0.54,1.05 2.45,0.95 3.11,-0.16 3.26,0.3 5.78,-0.97 0.54,-0.7 0.88,-0.03 1.44,0.36 0.49,0.33 1.08,0.56 1.8,0.63 0.82,0.08 4.32,0.08 5.06,-0.07 0.89,0.03 1.7,-0.89 2.49,-0.73l0.08 0.42c1.01,0.35 1.33,0.56 2.62,0.56 0.48,0 1.04,-0.03 1.51,-0.13 0.68,-0.14 0.53,-0.24 0.93,-0.64 0.42,0.16 0.48,0.37 1.02,0.55 1.25,0.41 3.07,-0.01 4.47,0.05 2.5,0.1 3.28,0.45 5.23,-0.74 0,-0.87 0.34,-0.63 1.24,-0.59 1.9,0.08 1.23,-0.37 2.63,0.77 0.39,0.32 0.58,0.36 1.03,0.6 1.44,0.07 2.37,-0.25 3.05,-1.01 1.3,-1.45 0.54,-1.94 0.22,-2.57 0.25,-0.43 0.54,-0.66 0.84,-1.14 0.65,-1.05 1.35,-3.14 1.87,-3.71 0.37,0.24 0.71,1.04 0.87,1.65 0.19,0.74 0.05,4.43 -0.13,4.81 -0.31,0.63 -1.39,0.3 -1.06,1.39 1.43,0.73 1.89,-1.59 2.48,-2.42 1.33,-1.85 0.21,-3.72 0.76,-4.49 0.55,-0.36 2.97,-0.15 3.8,-0.1 -0.09,0.49 -0.43,0.65 -0.76,0.94l-2.24 2.52c-1.16,1.51 0.82,2.23 1.81,3.88l0.27 0.38c0.67,0.68 0.75,1.76 -0.09,2.37 -1.11,0.82 -4.46,0.95 -5.99,1.07 -2.22,0.19 -2.49,-0.18 -3.26,-0.07 0.55,3.44 17.24,-1.24 20.36,-1.96 2.66,-0.61 3.38,-1 5.56,-1.64l0.71 -0.32c-0.29,-0.21 -0.52,-0.14 -0.93,-0.06 -0.29,0.06 -0.57,0.11 -0.86,0.16 -3.54,0.7 -2.31,1.09 -4.67,-0.28 -1.09,-0.64 -4.34,-2.79 -4.73,-3.61 0.19,-0.45 0.53,-0.8 0.81,-1.18 1.39,-1.85 1.55,-2.46 1.3,-4.37z"/>
   <path class="fil1" d="M141.09 16.27c-0.72,-0.1 -0.6,-0.42 -1.57,-0.52 -2.74,-0.27 -2.27,-0.6 -5.83,-0.57 -2.37,0.02 -3.72,-0.05 -6.07,0.33 -0.49,0.08 -1.5,0.04 -1.71,0.44 0.52,0 5.8,0.03 6.31,0.16l0.44 0.21c1.84,0.39 3.46,1.06 4.91,1.85 0.9,0.49 3.15,2.59 2.99,3.91 0.84,0.1 1.39,0.09 1.32,0.98 -0.38,0.26 -0.65,0.3 -1.27,0.35 1.23,0.58 1.17,-0.15 1.52,1.82 0.43,2.39 -0.19,4.6 -1.2,6.75 -0.25,0.53 -0.22,0.78 -0.92,0.79 -0.07,-0.48 0.23,-1.84 0.27,-2.45 0.15,-1.96 -0.92,-4.76 -2.33,-6.03 0.25,1.91 0.09,2.52 -1.3,4.37 -0.29,0.38 -0.62,0.73 -0.81,1.18 0.39,0.82 3.64,2.97 4.73,3.61 2.36,1.38 1.13,0.98 4.67,0.28 0.29,-0.06 0.57,-0.11 0.86,-0.16 0.41,-0.08 0.64,-0.15 0.93,0.06l-0.71 0.32c-2.18,0.64 -2.9,1.02 -5.56,1.64 -3.13,0.72 -19.81,5.4 -20.36,1.96 0.77,-0.11 1.04,0.26 3.26,0.07 1.54,-0.13 4.89,-0.26 5.99,-1.07 0.83,-0.62 0.75,-1.7 0.09,-2.37 -1.21,1.88 -5.82,2.07 -8.61,1.69 -2.71,-0.37 -5.6,-1.86 -8.06,-2.6 -1.94,1.19 -2.73,0.85 -5.23,0.74 -1.41,-0.06 -3.23,0.36 -4.47,-0.05 -0.54,-0.18 -0.6,-0.39 -1.02,-0.55 -0.4,0.41 -0.25,0.5 -0.93,0.64 -0.47,0.1 -1.03,0.13 -1.51,0.13 -1.29,-0 -1.61,-0.21 -2.62,-0.56 -1.12,0.7 -2.66,2 -3.33,3.1 -0.44,0.72 -2.08,3.49 -2.1,4.2 0.55,-0.25 0.88,-1.09 1.79,-1.59 0.74,-0.41 1.5,-0.76 2.31,-1.1 1.84,-0.76 3.19,-1.13 5.38,-1.35 7.63,-0.78 13.34,4.11 20.88,6.06 3.23,0.83 8.67,1.48 12.16,0.89 3.4,-0.58 7.86,-1.66 10.32,-3.23 6.64,-4.23 8.14,-11.96 3.95,-18.49 -1.4,-2.19 -5.68,-5.67 -7.54,-5.85z"/>
   <path class="fil2" d="M122.34 17.56c0.93,0.03 0.65,0.11 0.78,0.22 -0.42,0.57 -1.65,0.46 -2.17,0.12 0.17,-0.32 -0.19,-0.19 0.39,-0.3l-0.07 -0.67c0.32,-0.29 3.97,-1.4 4.36,-1.23 -0.5,0.87 -0.64,-0.04 -1.36,0.49 0.09,0.8 0.54,0.22 0.7,0.92 -0.99,0.16 -1.72,-0.28 -2.62,0.44zm3.38 -0.09c0.54,-0.51 2.9,-0.33 3.58,-0.31 2.01,0.07 8.19,1.05 8.11,2.87 -1.03,0.04 -1.27,-1.23 -4.62,-0.46 -0.9,0.21 -4.01,0.58 -4.88,0.44 -0.46,-0.88 0.12,-1.27 -0.69,-1.75 -0.55,-0.33 -1.07,-0.57 -1.5,-0.8zm21.67 1.2c-0.86,-0.45 -1.76,-1.28 -2.72,-1.88 -5.49,-3.43 -12.12,-3.92 -18.4,-2.3 -7.32,1.9 -5,2.49 -5.82,3.1 -0.9,0.28 -1.88,0.11 -2.72,-0.11 -0.02,0.03 -0.04,0.07 -0.06,0.1 -0.01,0.02 -0.04,0.07 -0.05,0.1 -0.29,0.51 -0.12,0.35 -0.39,0.49 -0.24,0.13 -0.51,0.11 -0.72,0.22 1.85,0.65 9.05,0.17 9.58,0.5l0.29 0.29c-0.06,1.28 -1.14,2.04 -0.11,3.19 0.62,-0.14 0.2,-0.44 1.25,-0.61l5.17 -0.9c3.7,-0.73 3.78,0.57 6.67,1.02 -0.34,-0.86 0.52,-1.35 -1.89,-3 -0.9,-0.61 -2.02,-1.21 -3.2,-1.56 -3.76,-1.09 -7.3,-0.32 -8.5,-1 0.28,-0.29 1.21,-0.18 1.69,-0.17 1.61,0.01 3.7,-0.03 5.2,0.18l-0.44 -0.21c-0.51,-0.14 -5.8,-0.16 -6.31,-0.16 0.21,-0.4 1.22,-0.36 1.71,-0.44 2.35,-0.38 3.71,-0.31 6.07,-0.33 3.55,-0.04 3.09,0.29 5.83,0.57 0.98,0.1 0.85,0.43 1.57,0.52 0.24,-0.22 -0.01,-0.11 0.37,-0.13 0.77,-0.04 3.56,1.55 4.26,2.05 4.08,2.88 6.76,8.89 5.5,14.45 -0.82,3.64 -3.23,6.46 -5.64,8.03 -4.47,2.91 -6.35,2.3 -9.96,3.71 -3.57,1.39 -1.66,0.28 -5.62,0.46 -6.41,0.29 -10.8,-1.67 -16.64,-3.8 -4.77,-1.75 -10.98,-4.28 -16.58,-1.58 -0.66,0.32 -3.97,1.99 -3.81,2.93 0.81,-0.01 2.71,-2.83 12.06,-1.18 3.47,0.61 5.29,1.58 8.28,2.45 1.68,0.49 2.44,0.38 2.45,1.14 -1.58,0.52 -9.62,-4.55 -18.22,-3.36 -3.26,0.45 -4.65,2.24 -5.34,2.01 -0.62,-0.42 -0.32,-0.46 -0.62,-1.01 -0.17,-0.3 -0.56,-0.44 -0.8,-0.64 -0.19,-1.01 1.17,-3.36 1.61,-4.05 0.45,-0.7 1.29,-1.81 1.89,-2.39 0.35,-0.33 0.5,-0.32 0.48,-0.85l-0.79 0.07 -0.42 0.73c-1.9,2.68 -1.8,2 -3.25,5.36 -0.45,1.03 -0.24,1.31 0.31,2.02 1.52,1.95 1.47,1.62 3.55,0.5 4.25,-2.28 10.23,-1.32 14.37,0.13 1.41,0.49 2.83,0.99 4.28,1.45 0.88,0.28 3.9,1.02 4.44,1.33l16.49 0c0.34,-0.21 0.79,-0.33 1.22,-0.54 3.83,-1.94 4.15,-1.03 8.24,-2.86 9.56,-4.28 11.91,-14.48 5.65,-22.38l-1.35 -1.44c-0.16,-0.2 -0.05,-0.02 -0.11,-0.19z"/>
   <path class="fil3" d="M141.09 16.27c1.86,0.18 6.14,3.66 7.54,5.85 4.19,6.53 2.69,14.26 -3.95,18.49 -2.46,1.57 -6.92,2.65 -10.32,3.23 -3.49,0.59 -8.93,-0.06 -12.16,-0.89 -7.55,-1.95 -13.25,-6.83 -20.88,-6.06 -2.18,0.22 -3.53,0.59 -5.38,1.35 -0.81,0.34 -1.57,0.69 -2.31,1.1 -0.91,0.51 -1.24,1.34 -1.79,1.59 0.02,-0.71 1.66,-3.48 2.1,-4.2 0.67,-1.1 2.21,-2.39 3.33,-3.1l-0.08 -0.42c-0.79,-0.17 -1.59,0.76 -2.49,0.73 0.11,0.03 0.13,-0.22 0.06,0.12 -1.01,0.11 -1.68,0.08 -2.68,0.05 -0.99,-0.03 -1.81,0.09 -2.78,0.12l0.3 0.16 4.37 0.18 0.79 -0.07c0.02,0.53 -0.14,0.52 -0.48,0.85 -0.6,0.57 -1.44,1.68 -1.89,2.39 -0.44,0.7 -1.8,3.04 -1.61,4.05 0.24,0.2 0.63,0.34 0.8,0.64 0.3,0.56 -0,0.59 0.62,1.01 0.7,0.23 2.09,-1.56 5.34,-2.01 8.6,-1.2 16.64,3.88 18.22,3.36 -0.01,-0.76 -0.77,-0.65 -2.45,-1.14 -2.98,-0.87 -4.8,-1.83 -8.28,-2.45 -9.35,-1.65 -11.25,1.17 -12.06,1.18 -0.16,-0.94 3.15,-2.61 3.81,-2.93 5.6,-2.7 11.81,-0.17 16.58,1.58 5.84,2.14 10.23,4.09 16.64,3.8 3.96,-0.18 2.05,0.93 5.62,-0.46 3.61,-1.41 5.49,-0.79 9.96,-3.71 2.41,-1.57 4.82,-4.39 5.64,-8.03 1.26,-5.56 -1.42,-11.57 -5.5,-14.45 -0.71,-0.5 -3.49,-2.09 -4.26,-2.05 -0.39,0.02 -0.14,-0.09 -0.37,0.13z"/>
   <path class="fil4" d="M89.65 8.01c-0.51,-1.13 0.92,-4.25 -0.09,-4.66 -0.42,-0.17 -2.48,-0.21 -2.7,-0.06 -0.48,0.68 -1.02,2.34 -1.37,3.27 -0.67,1.78 -3.9,9.76 -3.77,10.49 0.39,0.15 1.96,0.15 2.41,0.06 0.76,-0.15 1.3,-2.23 1.74,-3.36 0.25,-0.64 0.45,-1.51 0.84,-1.73 0.05,0.99 -0.38,4.48 -0.16,4.94 0.4,0.39 2,0.19 2.6,0.16 0.93,-0.05 1,-0.73 1.27,-1.47 0.78,-2.07 4.55,-11.56 4.48,-12.4 -0.61,-0.08 -1.86,-0.08 -2.48,-0.02 -1.09,0.11 -1.27,1.44 -1.93,3.1 -0.12,0.31 -0.22,0.54 -0.35,0.87 -0.19,0.5 -0.16,0.64 -0.52,0.81z"/>
   <path class="fil4" d="M105.87 21.75c2.22,-0.4 1.45,0.83 0.98,2.02 -0.26,0.65 -0.8,2.67 -1.41,2.86 -2.64,0.83 -1.14,-1.62 -0.42,-3.59 0.17,-0.46 0.28,-1.18 0.85,-1.29zm-2.81 7.17c0.62,0.87 0.07,3.11 0.22,4.27 0.54,0.14 2.8,0.23 3.39,0.06l-0 -4.35c2.12,-0.74 1.86,-1.04 2.83,-3.56 0.32,-0.84 1.64,-4 1.71,-4.64 0.12,-1.15 -0.76,-1.36 -1.8,-1.35 -7.24,0.04 -6.01,-0.7 -7.22,2.45 -1.21,3.16 -2.38,6.14 -3.52,9.18 -0.17,0.44 -0.91,1.98 -0.6,2.29 0.27,0.28 2.49,0.14 2.87,-0.03 0.89,-0.4 1.17,-3.64 2.13,-4.31z"/>
   <path class="fil4" d="M26.11 26.61c-0.37,0.15 -1.29,0.32 -1.65,-0.02 -0.26,-0.54 0.43,-1.84 0.66,-2.44 0.29,-0.76 0.6,-1.74 0.97,-2.31 2.34,-0.43 1.85,0.39 1.31,1.79 -0.22,0.57 -0.94,2.69 -1.29,2.98zm-2.46 2.38c0.52,1.11 -0.07,3.03 0.11,3.78 0.16,0.64 0.93,0.5 1.6,0.53 0.57,0.02 1.23,0.11 1.76,-0.02l0.1 -4.13c1.39,-1.03 1.33,-0.04 2.43,-2.8 3.26,-8.12 3.12,-6.88 -4.42,-6.87 -0.99,0 -1.54,-0.22 -1.91,0.66 -0.98,2.34 -2.52,6.71 -3.51,9.3l-1.09 2.84c-0.29,0.82 -0.09,0.87 0.07,1 0.38,0.23 1.64,0.11 2.17,0.03 0.77,-0.11 0.95,-0.5 1.18,-1.17 0.23,-0.69 0.78,-2.89 1.51,-3.15z"/>
   <path class="fil4" d="M96.08 14.62c-0.21,-0.5 1.5,-4.54 1.77,-5.25 0.18,-0.48 1.18,-3.54 1.61,-3.73 0.4,-0.18 1.43,-0.24 1.66,0.03 0.24,0.28 -2.33,6.61 -2.76,7.76 -0.25,0.66 -0.32,1.59 -1.88,1.34l-0.4 -0.15zm-4.24 2.42c1.28,0.13 5.46,0.17 6.68,-0 2.01,-0.29 2.5,-1.9 3.17,-3.67l2.8 -7.33c1.4,-3.4 -0.14,-3.01 -6.19,-2.87 -1.84,0.04 -1.6,0.49 -2.87,3.91 -0.47,1.26 -3.66,9.16 -3.59,9.96z"/>
   <path class="fil4" d="M42.98 14.78c-0.32,-0.7 1.31,-4.37 1.65,-5.28 0.15,-0.4 1.23,-3.54 1.54,-3.73 0.31,-0.19 1.36,-0.26 1.64,0.05 0.31,0.35 -0.55,2.14 -0.72,2.58l-1.96 5.1c-0.45,1.14 -0.48,1.65 -2.14,1.29zm-4.37 2.41l2.6 0.04c6.29,-0.01 5.83,0.01 7.74,-5.15 0.57,-1.53 1.16,-3.03 1.76,-4.58 0.54,-1.4 2.13,-4.07 -0.22,-4.2 -1.46,-0.08 -5.01,-0.22 -6.33,0.02 -0.74,0.14 -0.92,1.16 -1.2,1.91 -0.28,0.75 -0.62,1.63 -0.91,2.41 -0.48,1.29 -3.45,8.74 -3.44,9.55z"/>
   <path class="fil4" d="M64.68 21.76c0.19,0.8 -1.33,4.3 -1.71,5.32 -0.32,0.87 -0.63,1.68 -0.96,2.58 -0.19,0.52 -0.19,0.91 -0.74,1.1 -0.45,0.16 -1.13,0.22 -1.54,0.1 -0.2,-0.8 2.13,-6.32 2.72,-7.85 0.45,-1.15 0.61,-1.69 2.23,-1.26zm3.92 -1.7c-0.48,-1.14 -4.76,-0.71 -5.92,-0.65 -2.61,0.14 -2.59,1.18 -3.4,3.25 -0.64,1.65 -1.25,3.24 -1.86,4.86 -2.03,5.38 -2.54,5.74 1.12,5.74 1.05,0 2.2,0.05 3.24,-0.04 2.39,-0.21 2.67,-1.31 3.42,-3.29 0.51,-1.35 3.75,-9.04 3.41,-9.86z"/>
   <path class="fil4" d="M14.9 21.89c0.23,0.72 -0.44,1.95 -0.71,2.68 -0.29,0.77 -2.17,6.03 -2.52,6.25 -0.36,0.23 -1.25,0.24 -1.54,0.01 -0.34,-0.31 -0.23,-0.39 0.12,-1.3l1.5 -3.88c1.28,-3.25 1.15,-4.41 3.15,-3.76zm-1.38 -2.4c-2.95,0.26 -2.91,0.33 -3.87,2.85 -0.61,1.63 -1.2,3.19 -1.79,4.8 -2.02,5.46 -2.65,5.93 0.49,6.07 4.69,0.21 5.8,0.31 6.99,-2.85 0.61,-1.61 1.19,-3.2 1.8,-4.79 0.28,-0.75 1.73,-4.28 1.78,-4.86 0.1,-1.26 -1.11,-1.2 -2.1,-1.25 -0.98,-0.04 -2.33,-0.06 -3.3,0.03z"/>
   <path class="fil4" d="M91.83 30.85c-0.1,-1.11 3.92,-10.42 3.91,-11.01 -0.01,-0.81 0.22,0.7 -0.07,-0.28 -0.11,-0.39 -2.56,-0.26 -2.91,-0.12 -0.43,0.17 -0.78,1.44 -1.01,2.05l-3.35 8.85c-0.97,2.55 -0.63,3 2.22,3.04 5.78,0.08 5.52,-0.48 7.27,-5.04 0.43,-1.12 3.28,-8.32 3.3,-8.93 -0.76,-0.08 -1.74,-0.02 -2.52,-0.01 -1.13,0 -0.93,0.35 -1.31,1.36l-3.63 9.53c-0.38,0.81 -1.04,0.78 -1.91,0.57z"/>
   <path class="fil4" d="M76.02 15.05c-0.56,-0.68 -0.03,-0.58 0.22,-2.76 0.05,-0.44 2.18,-6.22 2.44,-6.47 0.26,-0.25 1.12,-0.4 1.52,-0.19 0.65,0.35 -0.19,1.91 -0.43,2.52l-1.95 5.12c-0.5,1.33 -0.41,1.29 -1.18,1.52 -0.49,0.15 -0.32,0.18 -0.63,0.26zm-1.37 2.41c1.16,0 1.98,-0.25 3.1,-0.46 1.01,-0.2 1.72,-0.5 2.23,-1.09 0.66,-0.79 3.25,-7.99 3.81,-9.48 1.05,-2.8 1.1,-3.14 -2.3,-3.23 -1.02,-0.03 -2.26,-0.07 -3.25,0.1 -1.49,0.25 -1.84,0.43 -2.04,1.28l-3.69 9.59c-0.94,2.43 -1.24,3.3 2.15,3.3z"/>
   <path class="fil4" d="M109.49 9c-0.01,0.33 -0.67,3.57 -0.94,3.9 -0.23,0.29 -0.92,0.52 -1.24,0.15 -0.36,-0.42 1.87,-4.01 1.96,-4.1 0.22,-0.29 0.06,-0.19 0.45,-0.35 -0.11,0.44 -0.03,0.22 -0.24,0.4zm-1.49 6.4c0.11,1.11 -0.75,1.64 0.55,1.7l2.41 -0.1c0.53,-0.76 1.03,-5.37 1.25,-6.78 0.2,-1.23 1.11,-6.12 1.03,-7.03 -1.04,-0.1 -3.09,-0.32 -3.69,0.32 -0.37,0.39 -1.27,2.07 -1.62,2.65l-6.28 10.55c-0.03,0.52 1.07,0.33 1.66,0.34 0.84,0.01 1.36,0.19 1.75,-0.46 0.32,-0.53 0.32,-1.03 0.88,-1.18 0.4,-0.11 1.67,-0.13 2.06,-0.03z"/>
   <path class="fil4" d="M53.86 13.29c-0.01,-0.68 0.74,-1.77 1.04,-2.32 0.17,-0.32 0.39,-0.7 0.56,-1.02 0.3,-0.58 0.25,-0.68 0.66,-0.96 0.04,0.84 -0.3,2.16 -0.5,2.95 -0.35,1.32 -0.23,1.62 -1.76,1.36zm-5.42 3.85c0.62,0.13 1.29,0.07 1.92,0.07 2.1,-0.02 1.3,-1.3 2.26,-1.67 0.32,-0.13 1.62,-0.11 2.01,-0.07l-0.02 1.57c0.66,0.18 2.52,0.29 3.08,0.06 0.35,-0.26 2.35,-13.02 2.16,-13.68 -0.62,-0.31 -1.97,-0.38 -2.82,-0.18 -0.68,0.17 -1.11,0.98 -1.5,1.64 -0.88,1.51 -7.09,11.51 -7.08,12.26z"/>
   <path class="fil4" d="M17.34 13.11c-0.11,-0.62 0.67,-1.69 0.98,-2.23 0.22,-0.38 0.36,-0.66 0.6,-1.11 0.58,-1.12 0.35,-0.78 0.75,-0.94 -0.13,1 -0.4,1.95 -0.61,2.89 -0.26,1.18 -0.32,1.89 -1.72,1.38zm5.09 -10.05c-2.09,-0.01 -2.37,-0.04 -3,1 -0.56,0.93 -5.79,9.26 -5.84,9.94 -0.06,0.91 0.55,1.45 -0.39,2.01 -0.52,0.31 -1.38,0.43 -1.47,1.04 0.56,0.16 1.43,0.09 2.03,0.09 0.82,0 1.06,-0.03 1.45,-0.58 0.21,-0.3 0.55,-1.89 2.94,-1.1 0.11,0.95 -0.44,0.98 -0.09,1.6 0.46,0.15 2.54,0.13 3.04,0.02 0.35,-0.6 2.3,-13.2 2.24,-13.53 -0.1,-0.5 -0.37,-0.48 -0.91,-0.49z"/>
   <path class="fil4" d="M29.65 11.39c-0.22,0.23 0.26,0.14 -0.27,0.2 -0.09,-0.17 -0.08,0.09 -0.1,-0.29 -0.03,-0.55 0.01,-0.1 0.11,-0.29 0.19,-1.56 1.75,-6.38 1.54,-7.49 -0.5,-0.28 -1.5,-0.25 -2.29,-0.25 -0.98,-0 -1.02,0.34 -1.15,1.27 -0.2,1.4 -0.43,2.84 -0.64,4.23l-1.21 7.93c0,0.67 -0.04,0.23 0.12,0.42 0.3,0.21 2.57,0.22 3.06,0.06 0.5,-0.16 1.02,-1.27 1.34,-1.81 0.81,-1.35 1.55,-2.6 2.37,-3.96 0.78,-1.29 1.6,-2.67 2.39,-3.96 0.39,-0.63 2.23,-3.4 2.2,-4.04 -0.98,-0.33 -2.84,-0.19 -3.35,0.44 -0.54,0.68 -3.38,6.46 -4.13,7.52z"/>
   <path class="fil5" d="M5.72 15.46c-0.21,-0.21 0.59,-2.19 0.81,-2.36 0.36,-0.28 2.48,-0.54 2.88,-0.37 0.04,0.47 -0.63,2.17 -0.92,2.36 -0.31,0.2 -2.6,0.54 -2.77,0.37zm3.05 5.39c0.35,-0.31 0.29,-0.73 0.37,-1.35 0.06,-0.46 0.15,-0.87 0.26,-1.32 0.11,-0.47 0.21,-0.81 0.36,-1.23 0.18,-0.53 0.25,-0.65 0.82,-0.78 0.64,-0.15 2.16,-0.45 2.4,-0.9 0.64,-1.2 -1.54,-0.61 -2.05,-0.72 -0.23,-1.13 0.49,-2.06 1.1,-2.41 0.72,-0.41 2.64,-0.37 1.98,-1.41 -0.41,-0.43 -1.14,0.13 -1.54,-0.28 -0.47,-0.58 0.78,-2.59 0.57,-3.62 -0.87,-0.53 -1.42,-0.37 -1.72,0.57 -0.76,2.45 -0.74,4.5 -4.05,3.98 -0.09,-0.55 0.47,-1.87 0.68,-2.48 0.38,-1.16 -0.27,-1.83 -1.27,-1.27 -1.06,0.79 -0.28,3.82 -2.35,4.47 -0.66,0.2 -2.39,0.27 -2.58,0.87 -0.38,1.21 1.24,0.53 2.49,0.71 0.12,0.9 -0.56,2.31 -1.3,2.53 -1.12,0.33 -2.75,-0.03 -2.23,1.56l2.12 0.03c0.02,0.71 -0.43,1.89 -0.61,2.6 -0.26,1.03 0.45,1.81 1.35,1.36 0.43,-0.26 0.42,-0.98 0.57,-1.76 0.13,-0.65 0.29,-1.2 0.5,-1.81 0.23,-0.66 0.44,-1.01 1.16,-1.16 3.11,-0.67 2.04,0.3 1.51,2.47 -0.4,1.63 1.23,1.51 1.48,1.38z"/>
   <path class="fil4" d="M48.29 19.37c-2.93,0 -5.28,-0.34 -6.22,1.84 -0.42,0.98 -2.06,4.83 -1.95,5.86 1.01,0.85 2.19,0.22 3.5,0.51 0.14,0.62 -0.34,1.59 -0.52,2.09 -0.38,1.03 -0.54,1.12 -1.77,1.11 -0.65,-0 -2.13,-0.18 -2.57,0.18 -0.45,0.36 -0.49,1.74 -0.26,2.34 0.61,0.19 2.27,0.11 3.07,0.11 3.72,0 3.86,-1.33 4.93,-4.11 0.21,-0.55 1.15,-2.98 1.15,-3.35 -0.01,-1.25 -2.55,-0.5 -3.65,-0.94 -0,-0.69 0.36,-1.44 0.56,-2.05 0.43,-1.24 0.99,-1.01 2.87,-1.01 2,0 1.74,0.06 1.99,-1.47 0.19,-1.17 0.03,-1.11 -1.14,-1.11z"/>
   <path class="fil4" d="M80.67 27.03c0.74,0.84 2.38,0.17 3.54,0.58 0.08,0.51 -0.69,2.57 -0.99,2.91 -0.53,0.62 -2.78,0.11 -3.81,0.35 -0.25,0.31 -0.81,1.7 -0.35,2.22 0.32,0.48 1.09,0.32 1.79,0.33 4.75,0.04 4.89,-0.49 6.34,-4.43 0.33,-0.89 1.09,-2.57 0.96,-3.39 -0.77,-0.61 -2.37,-0.16 -3.63,-0.49 -0.1,-0.68 0.28,-1.33 0.5,-1.91 0.55,-1.48 0.73,-1.18 3.52,-1.18 1.18,0 1.23,-0.06 1.38,-1.18 0.16,-1.21 0.31,-1.43 -1,-1.44 -5.11,-0.06 -5.52,-0.36 -7.02,3.57 -0.35,0.91 -1.32,3.16 -1.23,4.06z"/>
   <path class="fil4" d="M34.11 19.49l-2.64 6.86c-0.38,0.99 -2.52,6.27 -2.45,6.95l6.13 0.01c0.38,-0.7 1.33,-1.7 1.32,-2.5 -0.85,-0.09 -2.45,0.29 -3.07,-0.11 -0.23,-0.25 0.19,-1.01 0.4,-1.52 0.77,-1.9 0.09,-1.45 3.33,-1.56 0.25,-0.49 0.79,-1.43 0.76,-2.03 -0.64,-0.34 -1.78,-0.17 -2.52,-0.29 0.05,-0.88 0.85,-2.63 1.16,-3.25l3.53 -0.13c0.28,-0.46 0.51,-1.84 0.38,-2.47l-6.36 0.02z"/>
   <path class="fil4" d="M66.19 3.13c-0.59,0.78 -5.34,13.34 -5.33,13.92 1.35,0.18 3.56,0.07 5,0.08 1.48,0.01 1.33,-0.16 2.2,-1.54 0.03,-0.05 0.21,-0.33 0.23,-0.39 0.46,-1.21 -2.41,-0.33 -2.9,-0.71 -0.25,-0.43 0.45,-2.09 0.71,-2.56 0.44,-0.8 2.12,-0.46 2.97,-0.57 0.15,-0.32 0.77,-1.58 0.73,-1.97 -0.05,-0.54 -1.52,-0.13 -2.31,-0.43 -0.07,-0.52 0.62,-2.55 0.91,-2.91 0.78,-1 3.39,0.44 3.82,-0.82 0.1,-0.28 0.23,-1.59 0.08,-2.05 -1.22,-0.22 -2.45,0.29 -3.31,0.78 -1.75,1.01 -1.14,-0.98 -2.79,-0.82z"/>
   <path class="fil4" d="M75.01 20.89c-0.85,-0.57 -0.55,-1.35 -1.99,-1.16 -0.5,0.29 -3.63,9.08 -4.08,10.28 -1.72,4.63 -2.27,3.69 3.75,3.67 1.08,-0 1.29,-0.02 1.76,-0.83 0.26,-0.44 0.84,-1.16 0.77,-1.73 -0.72,-0.11 -2.52,0.13 -2.96,-0.19 -0.03,-0.03 -0.31,0.01 -0.06,-0.68 0.16,-0.44 0.75,-1.95 1.07,-2.14 1.73,-0.75 3.04,1.32 3.07,-2.65 -0.03,0.02 -2.39,0.74 -2.11,-0.51l0.72 -1.73c0.21,-0.51 0.19,-0.69 0.7,-0.89 1.26,-0.48 1.32,-0.25 2.99,-0.39 0.17,-0.38 0.29,-1.21 0.32,-1.72 0.05,-0.98 -0.35,-1.02 -1.15,-0.75 -0.96,0.33 -1.24,0.32 -1.61,0.85l-0.28 0.32c-0.25,0.18 -0.55,0.24 -0.91,0.25z"/>
   <path class="fil4" d="M113.73 19.3c-0.41,0.62 -1.06,2.54 -1.37,3.38l-2.67 6.97c-0.5,1.33 -1.65,3.38 -0.85,3.61 0.18,0.05 0.14,0.04 0.33,0.05 0.21,0.01 0.63,-0.02 0.86,-0.02 0.52,-0.01 1.18,0.03 1.61,-0.09 0.6,-0.46 1.82,-4.59 2.28,-5.55l2.77 -0.15c0.29,-0.37 0.4,-0.81 0.59,-1.26 0.55,-1.3 -0.07,-0.97 -2.21,-1.05 -0.19,-0.67 0.73,-2.9 1.09,-3.27l3.61 -0.1c0.1,-0.32 0.3,-1.6 0.28,-1.99 -0.03,-0.8 -0.87,-0.55 -1.72,-0.55 -1.26,-0 -3.46,-0.16 -4.59,0z"/>
   <path class="fil4" d="M50.67 21.88c1.68,0.43 2.45,-1.29 0.79,3.08 -0.39,1.03 -0.73,1.92 -1.11,2.92l-1.69 4.43c-0.4,1.19 0.45,1.02 1.7,1.01 1.75,-0 1.57,-0.75 2.13,-2.21 0.4,-1.04 0.8,-2.07 1.18,-3.09 0.37,-1 2.01,-5.64 2.45,-6.11l1.93 0.03c0.26,-0.55 0.65,-2.38 -0.13,-2.6l-4.88 0c-0.77,0.01 -0.82,0.07 -1.19,0.51 -0.32,0.39 -1.14,1.37 -1.18,2.01z"/>
   <path class="fil4" d="M38.92 3.31c-0.42,0.47 -2.36,5.83 -2.75,6.86 -0.39,1.03 -2.68,6.41 -2.45,7.04 0.38,0.1 2.68,0.1 2.97,-0.05 0.41,-0.22 2.48,-6.14 2.72,-6.79 0.58,-1.54 1.17,-3.1 1.74,-4.61 0.86,-2.25 1.71,-2.78 -2.24,-2.45z"/>
   <path class="fil1" d="M133.34 31.3c-0.09,0.62 -0.86,1.2 -1.27,1.69 -0.32,0.39 -0.11,0.34 -0.59,0.41 0.29,0.69 1.1,2.59 1.6,3.04 1.32,0.22 6.09,-0.96 6.45,-1.95 -0.41,-0.41 -5.34,-2.79 -6.2,-3.2z"/>
   <path class="fil4" d="M125.72 17.47c0.43,0.24 0.95,0.48 1.5,0.8 0.81,0.48 0.23,0.87 0.69,1.75 0.87,0.13 3.98,-0.24 4.88,-0.44 3.36,-0.77 3.59,0.5 4.62,0.46 0.08,-1.83 -6.1,-2.8 -8.11,-2.87 -0.68,-0.02 -3.04,-0.2 -3.58,0.31z"/>
   <path class="fil0" d="M62.44 23.02c-0.59,1.53 -2.92,7.05 -2.72,7.85 0.41,0.12 1.09,0.06 1.54,-0.1 0.55,-0.19 0.55,-0.58 0.74,-1.1 0.33,-0.9 0.63,-1.71 0.96,-2.58 0.38,-1.03 1.91,-4.52 1.71,-5.32 -1.62,-0.44 -1.79,0.1 -2.23,1.26z"/>
   <path class="fil0" d="M96.48 14.77c1.56,0.25 1.63,-0.68 1.88,-1.34 0.43,-1.15 3,-7.48 2.76,-7.76 -0.23,-0.27 -1.26,-0.21 -1.66,-0.03 -0.43,0.19 -1.43,3.25 -1.61,3.73 -0.27,0.71 -1.98,4.75 -1.77,5.25l0.4 0.15z"/>
   <path class="fil0" d="M14.9 21.89c-2,-0.65 -1.88,0.51 -3.15,3.76l-1.5 3.88c-0.36,0.91 -0.47,0.99 -0.12,1.3 0.29,0.22 1.18,0.22 1.54,-0.01 0.35,-0.22 2.23,-5.48 2.52,-6.25 0.28,-0.73 0.95,-1.96 0.71,-2.68z"/>
   <path class="fil0" d="M45.12 13.49l1.96 -5.1c0.17,-0.44 1.04,-2.23 0.72,-2.58 -0.28,-0.31 -1.33,-0.24 -1.64,-0.05 -0.31,0.19 -1.39,3.33 -1.54,3.73 -0.34,0.92 -1.97,4.58 -1.65,5.28 1.66,0.36 1.69,-0.15 2.14,-1.29z"/>
   <path class="fil0" d="M79.76 8.15c0.23,-0.6 1.08,-2.17 0.43,-2.52 -0.4,-0.22 -1.26,-0.06 -1.52,0.19 -0.26,0.25 -2.39,6.04 -2.44,6.47 -0.24,2.18 -0.77,2.08 -0.22,2.76 0.3,-0.08 0.14,-0.11 0.63,-0.26 0.76,-0.23 0.68,-0.19 1.18,-1.52l1.95 -5.12z"/>
   <path class="fil3" d="M139.68 25.64c-0.23,-0.47 -0.44,-0.93 -0.69,-1.31 -0.37,-0.56 -0.78,-0.66 -1.04,-1.16 1.36,0.01 1.1,0.37 1.86,0.61 1.19,0.26 1.6,0.3 1.78,1.6 0.11,0.83 0.2,2.51 -0.07,3.15 -0.8,0.2 -0.87,-0.36 -1.14,-1.07 -0.24,-0.63 -0.51,-1.27 -0.69,-1.82zm0.94 -2.22c-1.03,-0.35 -1.98,-1 -3.08,-1.17 -0.99,-0.15 -3.16,-0.36 -3.94,0.05 0.49,0.26 3.01,0.49 4.37,2.01 1.41,1.27 2.48,4.06 2.33,6.03 -0.05,0.61 -0.35,1.96 -0.27,2.45 0.7,-0.01 0.67,-0.27 0.92,-0.79 1.01,-2.15 1.62,-4.35 1.2,-6.75 -0.35,-1.97 -0.29,-1.24 -1.52,-1.82z"/>
   <path class="fil4" d="M121.12 22.33c-0.31,0.34 -2.14,6.52 -2.09,7.17 2.18,0.32 1.94,-0.21 2.7,-1.72 0.32,-0.64 1.3,-2.5 1.33,-3.19 -1.83,-1.46 -1.39,-1.96 -1.95,-2.26z"/>
   <path class="fil6" d="M129.46 33.8c-0.51,0.17 -0.73,0.45 -1.13,0.7 -2.42,1.54 -4.97,1.34 -7.68,0.71 -1.5,-0.35 -0.84,-0.83 -1.8,-0.95 -0.26,-0.03 -0.59,-0.01 -0.9,-0.22 -0.45,-0.24 -0.64,-0.28 -1.03,-0.6 -1.4,-1.14 -0.73,-0.69 -2.63,-0.77 -0.89,-0.04 -1.23,-0.28 -1.24,0.59 2.47,0.74 5.35,2.23 8.06,2.6 2.79,0.38 7.4,0.18 8.61,-1.69l-0.27 -0.38z"/>
   <path class="fil0" d="M105.87 21.75c-0.57,0.1 -0.69,0.83 -0.85,1.29 -0.72,1.97 -2.22,4.42 0.42,3.59 0.61,-0.19 1.15,-2.2 1.41,-2.86 0.48,-1.19 1.24,-2.42 -0.98,-2.02z"/>
   <path class="fil0" d="M26.11 26.61c0.35,-0.29 1.07,-2.42 1.29,-2.98 0.54,-1.4 1.03,-2.22 -1.31,-1.79 -0.37,0.57 -0.68,1.55 -0.97,2.31 -0.23,0.6 -0.92,1.9 -0.66,2.44 0.35,0.35 1.27,0.17 1.65,0.02z"/>
   <path class="fil7" d="M132.66 16.32c-1.5,-0.21 -3.58,-0.17 -5.2,-0.18 -0.48,-0 -1.41,-0.12 -1.69,0.17 1.2,0.68 4.74,-0.1 8.5,1 1.18,0.34 2.3,0.94 3.2,1.56 2.42,1.65 1.55,2.14 1.89,3l1.18 0.21c0.17,-1.32 -2.09,-3.41 -2.99,-3.91 -1.44,-0.8 -3.07,-1.47 -4.91,-1.85z"/>
   <path class="fil4" d="M112.31 18.79c1.92,-0.31 4.82,-3.41 2.87,-4.06 -1.3,-0.43 -2.38,0.42 -2.81,1.14 -0.51,0.86 -0.17,0.83 0.17,1.36 0.35,0.54 -0.16,0.8 -0.23,1.57z"/>
   <path class="fil4" d="M120.58 31.03c-0.55,-0.77 -1.47,-0.67 -2.28,-0.21 -0.54,0.31 -1.46,1.21 -0.96,2.09 0.8,1.41 4.34,-0.35 3.24,-1.88z"/>
   <path class="fil8" d="M9.42 12.73c-0.4,-0.17 -2.52,0.1 -2.88,0.37 -0.22,0.17 -1.02,2.15 -0.81,2.36 0.17,0.17 2.46,-0.17 2.77,-0.37 0.29,-0.19 0.96,-1.89 0.92,-2.36z"/>
   <path class="fil9" d="M139.8 23.77l0.15 0.97 -0.06 -0.54c0.34,0.15 0.56,0.29 0.7,0.59 0.35,0.72 -0.07,0.96 -0.07,0.97 -0.49,-0.05 -0.24,0.18 -0.53,-0.53l-0.09 -0.19 -0.02 0.55 -0.21 0.05c0.18,0.55 0.45,1.19 0.69,1.82 0.27,0.71 0.34,1.26 1.14,1.07 0.27,-0.64 0.18,-2.32 0.07,-3.15 -0.17,-1.3 -0.59,-1.34 -1.78,-1.6z"/>
   <path class="fil6" d="M131.59 31.17c1.03,-0.01 1.02,0.93 0.15,0.99 -0.25,-0.41 -0.28,-0.51 -0.15,-0.99zm-0.11 2.23c0.48,-0.07 0.27,-0.02 0.59,-0.41 0.41,-0.49 1.18,-1.07 1.27,-1.69 -1.78,-1.22 -0.97,-0.73 -2.98,-0.29 0.12,0.7 0.79,1.78 1.12,2.39z"/>
   <path class="fil10" d="M17.34 13.11c1.4,0.51 1.46,-0.2 1.72,-1.38 0.21,-0.94 0.48,-1.9 0.61,-2.89 -0.4,0.17 -0.17,-0.18 -0.75,0.94 -0.24,0.45 -0.38,0.73 -0.6,1.11 -0.31,0.54 -1.09,1.6 -0.98,2.23z"/>
   <path class="fil10" d="M53.86 13.29c1.53,0.26 1.41,-0.04 1.76,-1.36 0.21,-0.79 0.54,-2.11 0.5,-2.95 -0.41,0.28 -0.35,0.38 -0.66,0.96 -0.17,0.32 -0.39,0.7 -0.56,1.02 -0.3,0.55 -1.05,1.64 -1.04,2.32z"/>
   <path class="fil10" d="M109.28 8.95c-0.09,0.1 -2.33,3.69 -1.96,4.1 0.32,0.37 1.01,0.14 1.24,-0.15 0.27,-0.34 0.92,-3.57 0.94,-3.9 -0.09,-0.16 0.08,-0.19 -0.21,-0.05z"/>
   <path class="fil6" d="M121.57 20.73c0.75,-0.14 1.33,-0.44 2.23,-0.42 0.42,0.01 0.93,0.22 1.31,0.03 0.32,-0.16 0.44,-0.72 0.18,-0.96 -0.25,-0.23 -2,-0.09 -2.47,-0.08 -0.89,0.03 -1.16,0.54 -1.25,1.43z"/>
   <path class="fil11" d="M72.96 0.96c-0.28,-0.54 -1.48,0.26 -2.53,0.76 -0.87,0.41 -2.47,0.94 -2.17,1.47 0.3,0.55 2.15,-0.62 2.56,-0.82 0.46,-0.23 2.43,-0.86 2.14,-1.41z"/>
   <path class="fil12" d="M121.34 17.6l1 -0.04c0.9,-0.72 1.64,-0.29 2.62,-0.44 -0.16,-0.7 -0.61,-0.13 -0.7,-0.92 0.72,-0.53 0.86,0.38 1.36,-0.49 -0.39,-0.17 -4.04,0.94 -4.36,1.23l0.07 0.67z"/>
   <path class="fil3" d="M75.14 19.61c0.19,0.35 -0.01,0.43 0.51,0.31 0.73,-0.17 0.23,-0.49 1.09,-0.88 0.25,-0.11 0.43,-0.18 0.68,-0.29l2.04 -0.9c0.48,-0.27 0.4,-0.04 0.26,-0.67 -0.58,-0.09 -1.96,0.7 -2.54,0.96 -0.19,0.08 -0.45,0.17 -0.6,0.25 -0.54,0.31 -0.19,0.15 -0.42,0.44 -0.49,0.61 -0.78,0.14 -1.03,0.78z"/>
   <path class="fil13" d="M139.8 23.77c-0.76,-0.24 -0.5,-0.6 -1.86,-0.61 0.26,0.51 0.67,0.61 1.04,1.16 0.25,0.39 0.46,0.84 0.69,1.31l0.21 -0.05 0.02 -0.55 0.05 -0.3 -0.15 -0.97z"/>
   <path class="fil14" d="M139.95 24.75l-0.05 0.3 0.09 0.19c0.29,0.72 0.03,0.48 0.53,0.53 0,-0 0.42,-0.25 0.07,-0.97 -0.15,-0.3 -0.36,-0.44 -0.7,-0.59l0.06 0.54z"/>
   <path class="fil15" d="M29.39 11.02c-0.11,0.18 -0.14,-0.27 -0.11,0.29 0.02,0.38 0.02,0.12 0.1,0.29 0.53,-0.07 0.06,0.03 0.27,-0.2l-0.28 0.09 0.02 -0.46z"/>
   <path class="fil16" d="M109.28 8.95c0.29,-0.14 0.12,-0.11 0.21,0.05 0.21,-0.18 0.13,0.04 0.24,-0.4 -0.39,0.16 -0.23,0.06 -0.45,0.35z"/>
  </g>
 </g>
</svg>
