<?xml version="1.0" encoding="UTF-8"?>
<!DOCTYPE svg PUBLIC "-//W3C//DTD SVG 1.1//EN" "http://www.w3.org/Graphics/SVG/1.1/DTD/svg11.dtd">
<!-- Creator: CorelDRAW -->
<svg xmlns="http://www.w3.org/2000/svg" xml:space="preserve" width="25.4037mm" height="19.0581mm" version="1.1" style="shape-rendering:geometricPrecision; text-rendering:geometricPrecision; image-rendering:optimizeQuality; fill-rule:evenodd; clip-rule:evenodd"
viewBox="0 0 49.82 37.37"
 xmlns:xlink="http://www.w3.org/1999/xlink"
 xmlns:xodm="http://www.corel.com/coreldraw/odm/2003">
 <defs>
  <style type="text/css">
   <![CDATA[
    .fil0 {fill:#282829}
    .fil1 {fill:red}
    .fil2 {fill:white}
   ]]>
  </style>
 </defs>
 <g id="Camada_x0020_1">
  <metadata id="CorelCorpID_0Corel-Layer"/>
  <g id="_2486618695264">
   <path class="fil0" d="M25.05 37.37c-5.75,0 -10.16,-1.39 -14.54,-4.85l-2.41 -2.37c-1.39,0.14 -8.1,0.92 -8.1,0.58 0,-1.1 0.8,-3.85 0.8,-5.32l1.15 -5.83 1.81 -0.19 0.02 -1.97c-0.68,0.3 -1.49,0.09 -2.17,-0.03 -0.43,-0.08 -0.4,0 -0.45,-0.22 -0.16,-0.72 -0.07,-0.82 0.24,-1.68l2.4 -6.48c0.27,-0.66 0.26,-0.69 1.07,-0.69l2.08 0.37c0.15,-0.5 2.67,-3.15 3.3,-3.63 3.28,-2.5 5.21,-3.6 9.31,-4.54 6.03,-1.39 13.12,0.03 18.06,3.84 3.53,2.73 6.06,6.39 7.02,10.78 0.12,0.53 -0.05,0.41 0.77,0.3 0.66,-0.09 3.36,-0.54 3.89,-0.33 0.79,0.31 0.43,2.02 0.3,2.21l-1.08 0.21c0.52,0.71 1.09,0.7 0.6,2.4 -0.19,0.65 -0.26,0.55 -0.43,0.84 0.87,0 1.26,-0.24 0.71,1.29 -0.26,0.71 -0.94,0.19 -0.94,0.44 0,0.39 0.81,-0.4 0.46,1.09 -0.29,1.25 -0.91,0.4 -0.91,0.9 0,0.33 0.59,0.01 0.78,0.21 0.11,0.12 0.07,1.48 -0.46,1.58l-5.32 0.5 -1.36 2.17c-3.49,5.11 -10.41,8.3 -16.6,8.42z"/>
   <path class="fil1" d="M22.63 34.04c0.47,-0.29 1.18,0.25 1.44,-0.36 0.25,-0.61 0.3,-1.38 0.63,-0.34 0.39,1.22 0.78,0.3 1.6,0.7 -0.09,0.32 -0.97,0.56 -0.97,0.88 0,0.37 0.73,1.83 -0.36,0.87 -0.47,-0.42 -0.59,-0.45 -1.24,0.14 -0.9,0.82 0,-0.94 -0.27,-1.17l-0.84 -0.72zm-2.72 -22.89l11.05 2.14c0.04,-0.16 -0.31,-1.38 -1.05,-1.69 -0.4,-0.17 -1.68,-1.1 -3.01,-1.31 -2.5,-0.41 -4.22,-0.43 -6.58,0.61 -0.11,0.05 -0.37,0.15 -0.41,0.26zm-9.67 -4.01c0,-0.18 0.88,-0.16 1.12,-0.31 0.21,-0.14 0.05,-0.76 0.28,-1.07 0.41,0.1 0.29,0.92 0.89,0.92 0.27,0 1.01,-0.24 1.01,-0.04l-0.7 0.9c0,0.22 0.48,0.73 0.39,1.05 -0.83,0 -0.72,-1.02 -1.75,0.19 -0.13,0.15 -0.19,0.11 -0.27,0.11 -0.12,-1.27 0.29,-1.05 -0.46,-1.42 -0.1,-0.05 -0.51,-0.15 -0.51,-0.32zm3.34 -2.44c0.61,-0.37 1.14,-0.03 1.23,-0.55 0.02,-0.09 0.02,-1.32 0.41,-0.6 0.61,1.14 0.32,0.57 1.56,0.57l0.07 0.06c0,-0 0.01,0.01 0.01,0.01l-0.67 0.82c-0.09,0.32 1.21,1.74 -0.5,0.79 -0.51,-0.29 -0.67,0.62 -1.12,0.62 -0.21,-0.81 0.39,-1.11 -0.61,-1.45 -0.22,-0.07 -0.26,-0.12 -0.38,-0.27zm14.78 -1.87c0.4,0 0.36,-0.92 0.72,-0.99 0.48,0.83 -0.23,1.08 0.95,1.16 1.42,0.1 -0.37,0.53 -0.37,0.9 0,0.51 0.16,0.77 0.08,1.09l-1.01 -0.69c-0.16,0 -0.75,0.47 -0.97,0.47 -0.45,0 0.59,-0.84 0.08,-1.31l-0.55 -0.64c0.46,-0.1 0.55,0.02 1.07,0.02zm-10.55 0.49c0.16,-0.22 0.96,-0.17 1.16,-0.3 0.2,-0.13 0.03,-0.7 0.31,-1.07 0.32,0.04 0.37,0.92 0.8,0.92 0.36,0 1.33,-0.37 0.88,0.24 -0.28,0.37 -0.82,0.21 -0.2,1.3 0.41,0.72 -0.39,0.18 -0.78,0.02 -0.64,-0.25 -0.6,0.63 -1.15,0.63 -0.14,-1.5 0.47,-0.9 -0.74,-1.54 -0.12,-0.06 -0.2,-0.09 -0.27,-0.21zm4.8 -0.92c0.32,-0.2 1.21,0.06 1.4,-0.19 0.13,-0.18 0.15,-0.88 0.46,-1.03 0.55,0.75 -0.08,1.15 1.11,1.14 0.29,-0 0.5,-0.03 0.72,0.07 -0.31,0.59 -1.19,0.45 -0.9,1.19 0.06,0.15 0.2,0.7 0.16,0.85 -0.42,0.09 -0.85,-0.84 -1.3,-0.51 -1.64,1.17 -0.69,0.06 -0.69,-0.69l-0.95 -0.84zm-9.48 7.44c0.12,0 1.93,-1.83 2.7,-2.21 0.58,-0.29 1.86,-1.18 2.84,-1.48 3.07,-0.92 4.09,-1.02 7.11,-0.93l3.05 0.5c0.83,0.29 0.45,-0.17 1.03,-0.26 1.93,-0.29 -0.32,-0.64 3.2,-0.62 1.54,0.01 1.4,1.45 2.08,0.9 0.35,-0.29 1.14,-0.3 1.61,-0.3 0.33,0 0.3,1.65 0.25,1.78 -0.03,0.09 -0.11,0.15 -0.17,0.22 0.44,0.75 -0.23,1.83 0.87,2.31l4.42 1.36c0.14,0.05 0.35,0.12 0.49,0.06 -0.09,-0.97 -3.17,-4.75 -4.33,-5.58 -0.35,-0.25 -1.86,-1.62 -2.5,-1.91 -0.56,-0.25 -1.34,-0.9 -2.88,-1.52 -5.13,-2.09 -10.43,-2.16 -15.67,-0.46 -2.46,0.8 -5.03,2.49 -6.91,4.19l-2.43 2.74c-0.06,0.16 -0.03,0.2 0.14,0.23l5.11 0.98zm-8.53 8.66c0,0.77 -0.3,0.84 1.13,0.68 1.06,-0.12 1.15,-0.06 1.43,-1.17 0.34,-1.35 0.84,-3.46 1.38,-4.65 0.33,-0.74 0.28,-0.52 -1.15,-0.78 -2.29,-0.42 -1.52,-0.31 -2.24,1.63 -0.36,0.96 -0.55,3.15 -0.55,4.3zm26.96 15.88c0,0.22 -0.67,-0.14 -0.75,-0.18 -0.67,-0.32 -0.7,0.52 -1.21,0.63 -0.11,-0.15 -0.08,-0.12 -0.08,-0.39 0,-0.85 0.17,-0.69 -0.63,-1.02 -1.02,-0.42 0.33,-0.44 0.69,-0.57 0.2,-0.07 0.03,-0.76 0.23,-1.12 0.39,0.08 0.48,0.9 0.84,0.9 0.21,0 1.46,-0.5 0.94,0.13 -0.35,0.43 -0.63,0.59 -0.41,0.9 0.12,0.16 0.37,0.56 0.37,0.73zm-12.59 -1.82c0,0.77 0.41,0.47 1.04,0.74 0.08,0.03 0.08,0.06 0.18,0.08 -0.07,0.27 -0.52,0.22 -0.98,0.51 -0.27,0.17 0.07,1.05 -0.26,1.19 -0.63,-0.38 -0.31,-1.04 -1.31,-0.62 -0.9,0.38 -0.56,-0.11 -0.28,-0.55 0.23,-0.37 0.34,-0.24 -0.27,-1 -0.58,-0.72 0.83,0.06 1.13,-0.19 0.34,-0.28 0.75,-1.58 0.75,-0.16zm16.49 -1.42c0,0.46 1.17,1.42 -0.12,0.92 -0.9,-0.35 -0.34,-0.24 -1.36,0.58 -0.29,-0.14 0.03,-0.78 -0.13,-1.14 -0.11,-0.25 -0.95,-0.33 -1.02,-0.59 0.79,-0.48 1.15,0.08 1.22,-0.69l0.1 -0.73c0.26,0 0.41,0.49 0.64,0.77 0.25,0.32 0.97,-0.22 1.32,-0 -0.3,0.56 -0.64,0.66 -0.64,0.88zm-10.35 0.64c-3.47,0 -4.87,-0.23 -7.89,-1.6 -1.75,-0.8 -0.33,-0.86 -3.32,-0.51l-1.63 0.09 -2.09 0.2c-1.31,0.06 -1.17,0.25 0.34,1.58 3.34,2.95 6.88,4.47 11.28,5.04 3.09,0.4 7.45,-0.01 10.38,-1.21 4.23,-1.73 7.23,-4.19 9.76,-8.02 0.45,-0.68 -0.47,-0.33 -1.91,-0.22l-4.68 0.45c-0.15,0.03 -1.97,1.75 -3.05,2.25 -2.53,1.16 -2.23,1.32 -5.43,1.81l-1.76 0.14z"/>
   <path class="fil2" d="M33.65 15.78c0,0.13 -0.68,-0.03 -0.82,-0.06 -0.56,-0.08 -0.63,-0.06 -0.56,-0.32 0.05,-0.2 0.04,-0.31 0.15,-0.46 1.26,0.18 1.01,-0.03 1.24,0.84zm-21.78 2.79c0.05,-0.08 0,-0.18 0,-0.26l-0.02 0c0,0.11 -0.09,0.19 0.02,0.26zm33.71 7.65c0.52,0 0.26,-0.2 0.52,-1.36l0.56 -2.55c0.13,-0.18 0.14,0.3 0.32,-0.62 0.02,-0.1 0.01,-0.24 0.04,-0.34l-1.81 0.17 -0.14 0.62c-0.02,0.62 -0.02,0.21 0.31,0.24 0.31,0.03 -0.11,1.36 -0.19,1.91l-0.36 1.98 0.76 -0.04zm-10.51 -9.84c-0.12,0 -0.16,-0.01 -0.16,0.09l0.37 -0.13c0,-0.13 -0.01,-0.11 -0.02,-0.19l-0.04 0c-0.03,0.13 -0.08,0.12 -0.14,0.23zm2.56 -1.11c0,0.43 0.66,0.16 0.38,-0.11 -0.12,-0.11 -0.38,-0.07 -0.38,0.11zm-3.77 7.4l0 -0.07c-1.24,0 -0.84,0.06 -1.04,0.79l-0.77 4.09c0.28,0.04 0.88,0.05 0.92,-0.32l0.89 -4.49zm-14.05 6.02l1.01 -0.11 0.99 -4.84c-0.4,0 -0.22,0.04 -0.39,0.05 -1.14,0.12 -0.5,-0.09 -0.87,0.9l-0.74 4zm-4.53 0.41l1.55 -0.15 0.16 -0.94c-0.83,0 -0.23,-0.3 -0.15,-1.59l0.45 -2.27 -0.83 0.09c-0.34,0.08 -0.28,0.02 -0.27,0.15l-0.92 4.71zm19.19 -7.14l0 0.09 1.22 -0.11c0,-0.35 -0.12,-0.71 0.05,-1.3 0.27,-0.94 0.44,-3.02 0.92,-3.81 0.03,-0.06 0.03,-0.21 0.04,-0.26l-0.86 0.09c-0.6,0.04 -0.31,0.35 -0.57,1.23l-0.79 4.08zm11.81 -6.3c-0.33,0 -0.17,0.08 -0.76,0.08l-1.07 5.38 1.22 -0.15c0,-2.3 0.38,-1.91 0.43,-2.07l0.15 -1.21c-0.1,-0.34 0.2,-1.75 0.41,-1.76 0.01,-0.32 0.25,-0.26 -0.37,-0.26zm-12.16 6.92l-0.91 4.46c-0.01,0.15 0.02,0.19 -0.03,0.34l0.96 -0.07 0.33 -1.3c0.08,-0.18 0.06,-0.68 0.25,-0.71 0.73,-0.11 0.34,0.19 0.6,-0.69 0.03,-0.09 0.01,-0.22 0.04,-0.28 -0.35,0 -0.33,0.14 -0.47,-0l0.18 -0.92c0.4,-0.17 0.49,0.14 0.55,-0.32 0.13,-0.98 0.46,-0.65 -1.5,-0.5zm-10.02 5.64l1.65 -0.09 0.19 -0.94c-1.01,0 -0.39,-0.29 -0.39,-1.01 0.52,-0.32 0.68,0.32 0.8,-0.88 0.07,-0.66 -0.71,0.59 -0.46,-0.77 0.1,-0.52 0.15,-0.16 0.54,-0.3l0.29 -0.98 -1.57 0.17 -0.33 1.2 -0.71 3.6zm11.83 -5.77l-0.91 4.76 1.66 -0.16 0.19 -0.93c-0.57,0.01 -0.69,0.18 -0.45,-0.86 0.06,-0.26 0.39,-0.22 0.7,-0.29l0.16 -0.9c-0.68,0 -0.59,0.29 -0.51,-0.5 0.1,-0.95 0.84,0.38 0.84,-1.33l-1.69 0.21zm4.64 -0.49l-0.91 4.81 1.67 -0.15c0.26,-1.24 0.27,-0.91 -0.26,-0.91 -0.28,0 -0.07,-1.05 0.17,-1.1 0.08,-0.02 0.43,-0.04 0.53,-0.04l0.16 -0.92c-0.96,0 -0.54,0.03 -0.53,-0.52 0,-0.33 0,-0.17 0.14,-0.36 0.55,-0.06 0.6,0.01 0.68,-0.55l0.09 -0.45 -1.73 0.19zm-40.14 8.38l-0.02 0.17 1.73 -0.15c0.38,0 0.12,0.16 0.12,-0.94 -0.98,0 -0.45,0.01 -0.45,-0.94l0.72 -0.21 0.12 -0.9c-0.12,0 -0.58,0.21 -0.58,-0.15 0,-0.15 0.08,-0.19 0.1,-0.27 0.09,-0.37 -0.19,-0.48 0.71,-0.48 0.37,-1.46 -0.02,-0.81 -0.76,-0.84 -1.07,-0.05 -0.7,0.07 -1.04,1.37l-0.64 3.33zm5.15 -0.32l1.98 -0.17 -0.12 -0.92c-0.33,0 -0.68,0.26 -0.48,-0.44 0.12,-0.41 -0.18,-0.69 0.83,-0.69l0.12 -0.92c-0.2,0 -0.36,0.06 -0.52,0.06 -0.05,-0.09 -0.07,-0.08 -0.12,-0.15 0.35,-1.37 0.07,-0.53 0.78,-0.84 0.09,-0.34 0.06,-0.53 0.38,-0.84 0.1,-0.1 0.07,-0.04 0.08,-0.12 -0.13,0.12 -1.93,0.06 -1.99,0.33l-0.93 4.7zm42.41 -6.28c0.37,-0.13 0,0.38 0,0zm0.47 0.17l0 -0.15 0.08 -0.04 0.11 -0.72c-0.71,0.03 -0.64,0.21 -0.56,-0.4 0.09,-0.76 0.08,-0.33 0.99,-0.57l0.19 -0.92 -2.01 0.23 -0.92 4.8 1.93 -0.17 0.19 -0.99c-0.08,0.03 -0.03,0.03 -0.1,0.07 -1.03,-0.22 -0.68,0.51 -0.6,-0.99l0.7 -0.15zm-40.31 2.61c0.12,0.91 0.18,0.63 0.9,1.28 0.32,0.29 0.27,1.27 -0.34,0.95 0,-1.02 0.41,-0.56 -0.87,-0.56l-0.17 1.28 0.19 0.32c0.22,0 2,0.05 2.02,-0.41l0.06 0c0,-0.95 0.29,-1.9 0.29,-1.97 0,-0.08 -0.18,-0.12 -0.19,-0.28l-0.29 -0.18c-0.21,-0.16 -0.21,0.09 -0.14,-0.13 -0.09,-0.04 -0.09,0.01 -0.1,-0.09 -0.26,-0.02 -0.29,-0.66 -0.29,-0.66 0.24,-0.15 -0.06,-0.24 0.43,-0.24 0.36,0 -0.23,0.56 0.29,0.53l0.48 -0.02 0.35 -1.2c0.19,-0.59 -1.84,-0.21 -2.13,0.07 -0.29,0.28 -0.49,1.09 -0.49,1.34zm27.92 -12.3c0,0.94 0.13,0.97 0.21,1.67 0.06,0.53 0.21,0.29 0.55,0.3 0.06,0 0.28,0.11 0.62,-0.1 -0.02,-0.04 -0.74,-0.47 -0.48,-1.16 0.46,-1.23 2.33,-0.12 1.53,0.94 -0.05,0.07 -0.04,0.02 -0.02,0.11l0.95 -0.02c0.28,-1.08 -0.71,-5.39 -2.92,-3.11 -0.34,0.35 -0.44,0.87 -0.44,1.36zm-24.59 10.5c-0.02,0.02 -0.79,0.41 -0.81,1.56l-0.19 0.81 -0.27 1.61c-0.05,0.98 -0.05,0.94 1.77,0.75l0.49 -0.33 0.28 -1.72 -0.74 0.06c-0.12,0.23 -0.12,1.35 -0.59,1.1 -0.28,-0.15 0.26,-1.73 0.26,-2.08l0.29 -0.9c0.57,-0.26 0.19,0.72 0.23,0.79l0.75 -0.05 0.37 -1.43c0.17,-0.61 -1.41,-0.18 -1.83,-0.18zm11.13 -0.88c-0.02,0.2 -1.12,1.47 0.15,2.39 0.37,0.27 0.7,0.53 0.39,1.16 -0,0 -0.57,0.38 -0.41,-0.41 0.02,-0.09 0.07,-0.12 0.08,-0.21l-0.75 0.08c-0.07,0.02 -0.18,0.03 -0.26,0.03 0,0.81 -1.03,2.09 1.74,1.41l0.26 -0.08c0.01,-0.08 0.02,-0.06 0.1,-0.09 0,-0.47 0.48,-1.77 0.29,-2.1l-0.89 -0.82c-0.03,-0.04 -0.16,-0.54 0.13,-0.69 0.26,-0.13 0.11,0 0.34,0.05 0,0.5 -0.03,0.28 -0.08,0.45l0.82 -0.06c0,-0.29 0.45,-1.46 0.06,-1.46 -1.7,0 -1.91,0.35 -1.98,0.36zm8.72 -17c0.5,1.57 0.85,2.8 2.65,3.1 2.17,0.37 1.55,-0.06 1.41,-1.12 -0.27,-2.17 0.27,-1.13 -3.17,-1.9l-0.89 -0.09zm-11.81 17.15l-0.34 1.79c-0.85,0.54 -0.15,-1.26 -0.15,-1.79l-1.03 0.11 -0.9 4.85 1.02 -0.09 0.47 -2.07 0.42 0.06 -0.39 1.93 0.95 -0.09 0.9 -4.75 -0.94 0.05zm-5.67 4.14l0.64 -2.75c0.07,-0.07 0.51,-0.19 0.34,0.29l-0.47 2.56c-0,0 -0.52,0.27 -0.52,-0.09zm-0.21 -3.41l-0.27 0.65 -0.63 3.74 1.05 0.16c1.47,0 1.32,-0.53 1.5,-1.26l0.64 -3.61c-0.1,-0.01 -0.07,-0.02 -0.1,-0.07 -2.04,0 -1.99,0.38 -2.18,0.39zm-10.04 4.4l0.72 -3.73 -0.89 0.15c-0.07,-0.01 -0.08,-0.01 -0.12,-0.04 -0.18,0.6 -1,4.26 -0.77,4.63 0.19,0.3 1.36,0.05 1.7,0.05 0.02,-0.03 0.06,-0.08 0.06,-0.1 0.82,0.23 0.98,-2.58 1.17,-2.99l0.29 -1.81c-0.13,-0.03 -0.61,0.04 -0.76,0.07 -0.25,0.04 -0.16,-0.01 -0.26,0.55l-0.78 3.36c-0.19,0.08 -0.36,0.06 -0.36,-0.14zm27 -2.66l0.53 -2.51c0.1,-0.39 0.7,-0.32 0.38,0.57l-0.42 2.04c-0.04,0.07 -0.49,0.37 -0.49,-0.09zm-1.28 1.31l2.25 -0.31c0.13,-0.06 -0.02,-0.08 0.2,-0.08l0.91 -4.54c-0,0 -0.27,-0.19 -0.96,-0.05 -1.54,0.32 -1.35,-0.48 -1.68,1.29l-0.72 3.69zm9.25 -3.88l0.17 -0.72c0.06,-0.17 -0.03,-0.14 0.4,-0.14 0.25,0.98 -0.58,1.26 -0.58,0.86zm-0.68 -1.71l-0.97 4.85 1.03 -0.08 0.4 -1.9c0,-0 0.55,-0.4 0.38,0.44l-0.19 1.38 0.85 -0.09 0.41 -2.16 -0.25 -0.24 0.37 -0.24 0.37 -1.95c0,-0.37 -1.88,-0.02 -2.41,-0.02zm-9.77 1.89c0.33,0 0.03,0.81 0.03,0.82 -0.22,0.36 -0.72,0.27 -0.38,-0.47 0.08,-0.18 -0.15,-0.34 0.34,-0.34zm-1.03 -0.84l-0.14 0 -0.91 4.82c1.41,0 0.94,-0.11 1.15,-0.78l0.3 -1.23c0.8,0 0.18,0.7 0.19,1.48 0,0.39 -0.35,0.45 1.09,0.28l0.19 -1.98c-0.04,-0.1 -0.08,-0.06 -0.09,-0.2 -0.08,-0.01 -0.18,-0.1 -0.23,-0.15 0.14,-0.2 0.46,-0.3 0.52,-0.58 0.11,-0.54 0.91,-2.22 -0.71,-1.8l-1.36 0.13zm17.25 -1.63l-0.35 1.67c-0.05,0.16 0.07,0.45 -0.18,0.51 -0.21,-0.03 0.05,-1.91 0,-2.14 -1.14,0.24 -1.28,-0.33 -1.46,0.85l-0.81 4.08 0.91 -0.09 0.43 -2.38c0.4,-0.08 0.14,0.45 0.2,1.41 0.08,1.27 -0.51,0.92 1.11,0.82 0.21,-0.01 0.64,-3.26 0.77,-3.5 0.06,-0.11 0.04,-0.09 0.04,-0.24 -0.1,0.02 -0.02,0.03 -0.12,0.06 -0.24,-0.19 0.01,-0.56 0.06,-1.11l-0.6 0.08zm-1.42 -2.14l0.65 -2.52c0.02,-0.09 0.09,-0.25 0.18,-0.27 0.24,0.16 -0.04,0.83 -0.04,1.09l-0.15 1.18c-0.11,0.33 0.1,0.7 -0.24,0.75 -0.47,0.08 -0.39,-0.06 -0.39,-0.23zm-1.55 1.91l1.07 -0.09 0.1 -0.52 0.75 -0.08 -0.03 0.53 0.93 -0.09 0.52 -2.92 0.19 -2.4 -1.83 0.25 -1.69 5.34zm-25.88 -2.76l-0.31 0 -0.91 4.36c-0.23,0.17 -0.55,0.01 -0.39,-0.37l0.76 -3.92 -1.2 0.09 -0.91 5.04c0.17,0.59 1.39,0.23 1.81,0.13 0.21,-0.05 0.42,-0.02 0.53,-0.06 0.09,-0.04 0.02,-0.06 0.14,-0.06l0.64 -2.96 0.45 -2.32c-0.5,0 -0.12,0.07 -0.62,0.07zm33.78 -3.13l0 0.04c-0.1,0 -0.11,-0.01 -0.19,-0.02 0.05,-0.06 0.03,-0.02 0.08,-0.07 -1.17,0 -2.37,-0.13 -2.64,1.24 -0.41,2.13 0.96,1.46 1.09,2.51 0.12,0.97 -0.74,0.71 -0.57,0.41l0.11 -0.55c-1.16,0.28 -1.16,-0.25 -1.3,1.22 -0.09,0.96 0.56,0.67 0.86,0.63 0.8,-0.1 1.85,0.12 2,-1.07l0.18 -1.25c-0.26,-0.23 0.28,-0.03 -0.87,-0.95 -0.58,-0.46 -0.46,-1.09 0.11,-1.09 0,0 0.18,0.19 0.07,0.48 -0.03,0.08 -0.05,0.03 -0.05,0.16l1.11 -0.09 0.17 -1.2c-0,-0.27 -0.09,-0.22 -0.09,-0.37l-0.08 0zm-17.15 1.74c-0,0.01 -1.08,1.77 0.03,2.56 1.4,1 0.44,1.63 0.17,1.44 -0.17,-0.12 0.08,-0.74 0.07,-0.76 -0.03,-0.07 -0.03,-0 -0.03,0.03l-1.09 0.11c-0.33,1.29 -0.16,1.05 -0.14,1.65l1.07 0.04 0.34 -0.01c0.27,-0.12 0.47,-0.1 0.79,-0.1l0.43 -0.39c0,-0.08 -0.02,-0.14 0.08,-0.15 0,-0.75 0.85,-1.54 -0.41,-2.46 -1.33,-0.98 0.01,-1.63 0.01,-1.03 0,0.06 -0.08,0.17 -0.08,0.41l1.11 -0.09c0.42,-1.65 0.23,-1.77 -1.1,-1.6 -0.36,0.05 -0.72,0.01 -1.16,0.28 -0.05,0.04 -0.04,0.08 -0.12,0.08zm3.71 3.99c0,0.15 0.08,0.41 0.08,0.54 0.61,0.27 1.48,-0.07 2.29,-0.07l0.25 -0.24 0.24 -1.63 0.25 -1.22c-0.95,0.2 -1.07,-0.36 -1.2,1.03 -0.01,0.13 -0.05,0.14 0.09,0.23 -0.13,1.43 -0.7,0.9 -0.7,0.79l0.34 -1.6 0.28 -1.41c0.08,-0.13 0.08,0.01 0.12,-0.14l0.31 0c0.25,0.47 -0.42,0.85 0.65,0.59 0.06,-0.01 0.13,-0.01 0.2,-0.01l0.33 -1.59c-0.04,-0.02 -0.04,-0.04 -0.06,-0.05 -0.07,-0.05 -2.28,-0.37 -2.64,0.87l-0.82 3.92zm5.89 -5.1l-0.35 0.02 -0.86 4.28c-0.22,0.25 -0.67,0.08 -0.43,-0.33l0.75 -3.93c-0.99,0.24 -1.09,-0.12 -1.24,0.33l-0.86 4.41c0.01,1.06 0.27,0.62 1.17,0.7l1.29 -0.33 0.92 -3.25 0.37 -1.92 -0.76 0.02zm-12.15 5.39c-0.29,-0.12 -0.05,-0.35 -0.05,-0.67l0.57 -2.55 0.46 0.08 -0.68 3.11 -0.3 0.04zm0.12 -4.29c-0.05,0.16 -0.78,-0.11 -1.03,2.15 -0.07,0.61 -0.77,2.86 -0.38,3.18l1.62 -0.04c0.22,0 1.01,-0.1 0.97,-0.5 -0.06,-0.62 0.19,-1.4 0.19,-1.54 0.11,-0.07 0.08,-0.08 0.27,-0.08 0.35,-0.64 0.1,-1.24 0.1,-1.86l0.27 -1.07c0.28,-0.13 0.08,-0.49 -0.77,-0.39l-1.22 0.14zm-9.31 2.04c1,-0.61 0.25,1.3 0.23,1.65 -0.12,2.1 -0.96,1.61 -0.74,1.11l0.52 -2.75zm-0.95 -1.07l-1.03 5.38 2.46 -0.26c0.11,-0.04 0.01,-0.06 0.22,-0.06l0.21 -0.28 0.24 -1.64c0.12,-0.35 0.28,-1.87 0.65,-2.91 0.08,-0.21 -0.08,-0.19 -0.09,-0.32l-1.16 -0.02 -1.5 0.11zm7.01 3.47l0.69 -3.1c0.09,-0.03 0.27,-0.01 0.36,-0.01 0.13,0.53 -0.31,1.86 -0.37,2.46 -0.11,1.15 -0.68,0.75 -0.68,0.66zm-0.39 -4.07l-1.03 5.32 2.6 -0.24 0.19 -0.17c-0.01,-0.11 -0.03,-0.02 -0.06,-0.11 0.07,-0.01 0.06,-0.04 0.08,0.04l0.06 0 0.74 -4.03c-0,-0.36 0.74,-1.29 -0.84,-0.97l-1.73 0.17zm-7.69 0.73l-0.36 1.87c-0.05,0.24 0.06,0.52 -0.2,0.57 -0.23,0.01 0.02,-1.82 0.02,-2.4l-1.48 0.15 -1.04 5.22c-0.1,0.23 0.85,0.1 1,0.01l0.48 -2.6c0.3,-0.5 0.2,1.42 0.2,1.68 -0.01,0.82 -0.31,1.06 0.79,0.83 0.28,-0.06 0.42,0.12 0.51,-0.6l0.93 -4.74 -0.85 0.02zm-14.51 3.79c-0.3,0 -0.01,-1.32 -0.05,-2.13 -0.01,-0.11 0.03,-0.16 0.03,-0.29 -2.1,0.16 -1.38,0.11 -1.64,0.95l-0.88 4.57 1 -0.11 0.47 -2.46c0.18,-0.57 0.25,-0.01 0.25,0.24l-0.06 2.17 0.87 -0.09c0.97,-0.05 0.13,0.15 0.66,-1.85 0.3,-1.13 0.26,-2.39 0.87,-3.41 0.05,-0.08 0.03,-0.07 0.04,-0.17 -0.64,0.37 -1,-0.48 -1.18,0.93l-0.37 1.65zm1.96 1.48l0.56 -2.86c0.5,-0.7 0.64,-0.07 0.43,0.58 -0.2,0.65 -0.37,3.02 -0.94,2.44 -0.06,-0.06 -0.06,-0.09 -0.06,-0.15zm-0.14 -3.92l-0.27 0.34 -0.44 1.81 -0.47 2.57c0,0.74 0.7,0.4 1.57,0.41l1.08 -0.3c0.62,-0.82 0.9,-3.98 1.04,-4.21l0.04 -0.71c-0.08,-0.02 -0.1,-0.08 -0.1,-0.17 -0,-0 -0.58,-0.17 -1.33,-0.06l-1.01 0.24c-0.07,0.04 -0,0.06 -0.12,0.06zm17.41 1.11c0,-0.19 0.21,-1.97 0.56,-1.97 0.54,0 0.09,0.96 0.06,1.28l-0.37 1.72 0 0.22c-0,0 -0.73,0.48 -0.44,-0.38l0.2 -0.87zm-0.29 -2.83c0,0 -0.58,0.52 -0.64,1.35 -0.05,0.61 -0.84,3.48 -0.58,3.79 0.36,0.43 1.58,0 2.24,-0.08 0.43,-0.05 0.15,-0.28 0.2,-0.08l0.35 -0.34 0 -0.13c0.04,-0.02 0.03,-0.01 0.08,-0.02l0.82 -4.33 -0.29 -0.41c-1.39,0 -2.13,0.24 -2.18,0.24zm-10.92 0.99l-0.31 0 -0.72 2.4c-0.1,0.54 -0.43,0.37 -0.17,-0.44l0.13 -1.89 -1.09 0.14c-1.06,0.07 -0.51,-0.06 -0.85,0.95l-0.77 4.05c-0.06,0.27 -0.46,0.62 0.93,0.32l0.52 -2.7c0.1,-0.15 -0.04,-0.51 0.24,-0.53 0.16,0.56 -0.16,2.9 -0.1,3.13l0.8 -0.02 0.19 -0.47 0.72 -2.21c0,-0.49 0.52,-1.06 0.34,-0.25l-0.59 2.9 1.22 -0.19c0.07,-0.27 -0.04,-0.22 -0.04,-0.43l0.45 -2.55 0.44 -2.34 -1.34 0.13zm9.85 9.88l-0.27 -0.13c-0.61,0.37 -1.29,0.32 -2.08,0.37l-2.91 0.29c0.02,0.33 3.07,1.52 3.88,1.73 4.59,1.17 9.93,0.34 13.63,-2.77 1.47,-1.24 0.72,-0.56 -2.22,-0.42l-9.62 0.93c-0.16,-0.02 -0.23,0.01 -0.42,0.01zm1.59 -23.43c-2.97,0 -7.04,1.73 -9.1,3.85 -1.15,1.18 -0.96,0.43 3.29,1.45 2.98,0.72 1.49,0.12 3.48,-0.37 1.96,-0.48 3.86,-0.79 5.92,-0.29 2.34,0.57 3.23,1.42 3.37,1.45l-0.32 -1.1 -0.69 -4.32c-0.83,-0.44 -4.46,-0.86 -5.66,-0.71 -0.1,0.01 -0.19,0.04 -0.29,0.04zm7.01 9.86l0.25 -0.71 1.44 0.32c-0.07,0.79 -0.09,0.8 -1.19,0.56l-0.5 -0.16zm-2.74 -0.45l0.25 -0.77c0.08,0 2.24,0.26 2.24,0.48 -0.02,0.96 -0.45,0.67 -0.73,0.63l-1.75 -0.34zm5.19 -0.11c-0.66,0 -0.7,-0.51 -0.05,-0.37 0.43,0.1 0.14,0.37 0.05,0.37zm-0.64 -0.39c0,0.4 -0.37,0.23 -1.21,0.05 -0.35,-0.07 -0.59,-0.05 -0.31,-0.43l1.52 0.37zm-7.27 0.13c0,-0.09 0.14,-0.59 0.18,-0.75 0.07,-0.27 1.5,0.13 1.79,0.18 0.68,0.12 0.61,0.02 0.49,0.62 -0.07,0.32 0.23,0.5 -1.7,0.11 -0.23,-0.05 -0.57,-0.04 -0.76,-0.15zm5.49 -0.52c-0.02,0.53 -0.61,0.16 -2.22,-0.1 -0.4,-0.07 -0.51,-0.44 0.19,-0.34l2.03 0.44zm-5.92 0.49l-1.97 -0.32c-0.53,-0.08 -0.58,-0.05 -0.35,-0.61 0.1,-0.24 -0.23,-0.53 1.44,-0.14 1.05,0.25 1.25,-0.05 1.03,0.75 -0.04,0.17 -0.05,0.31 -0.15,0.31zm1.67 -0.98l-0.89 -0.24c-0.04,-0.39 0.36,-0.23 0.73,-0.15l1.67 0.36c0,0.46 -0.42,0.23 -1.52,0.03zm-5.35 0.35c-2,-0.54 -1.7,0.11 -1.52,-1.04 0.04,-0.26 0.13,-0.18 0.82,-0.06 2.37,0.42 1.95,0.17 1.73,1.1 -0.03,0.12 -0.05,0.08 -0.11,0.16l-0.92 -0.16zm4.11 -0.92l-0.02 0.35 -2.49 -0.47c-0.02,-0.37 -0.19,-0.49 1.3,-0.14 0.14,0.03 1.15,0.2 1.21,0.25zm-8.57 -0.9l2.62 0.49c-0.28,1.27 0.14,0.94 -2.65,0.56 -0.33,-0.05 -0.22,-0.14 0.04,-1.04zm3.09 0.28c0.04,-0.47 0.23,-0.45 1.16,-0.21 1.14,0.3 1.73,0.1 1.5,0.7l-2.66 -0.49zm-6.29 0.24l0.31 -0.99 2.6 0.49c-0.13,1.18 -0.34,0.92 -1.33,0.76l-1.57 -0.26zm5.96 -0.22l-2.23 -0.45c-0.23,-0.07 -0.5,-0.02 -0.42,-0.24 0.21,-0.56 0.19,-0.32 1.78,-0.06 1.35,0.22 1.03,0.15 0.87,0.74zm-8.66 -1.26l1.87 0.28c0.79,0.19 0.72,-0.16 0.47,1 -0.06,0.27 -0.89,0.03 -1.54,-0.08 -1.27,-0.2 -1.24,0.02 -0.96,-0.85 0.09,-0.27 -0,-0.3 0.16,-0.36zm5.56 0.66l-1.96 -0.39c-0.59,-0.09 -0.53,-0.11 -0.48,-0.36 0.1,-0.42 0.1,-0.32 0.55,-0.23l2.16 0.46 -0.27 0.52zm-6.1 -0.67c0,0.19 -0.08,0.4 -0.11,0.56 -0.1,0.55 -0.22,0.27 -1.51,0.07 -1.28,-0.2 -1.4,-0.08 -1.08,-0.99 0.09,-0.27 -0,-0.25 0.83,-0.09l1.88 0.45zm0.49 -0.34c0,-0.02 0.07,-0.58 0.27,-0.56l2.53 0.45 -0.16 0.58 -2.64 -0.47zm-4.33 -0.49c0.93,0.27 0.9,-0.17 0.6,1.06 -0.08,0.35 -0.45,0.17 -1.2,0.05 -1.57,-0.25 -1.32,-0.04 -0.96,-1.06 0.16,-0.45 -0.04,-0.38 1.56,-0.05zm3.87 0.38l-2.42 -0.44c-0.34,-0.06 -0.05,-0.54 0.02,-0.54l2.42 0.42c0.3,0.08 0.28,0.02 0.15,0.54l-0.16 0.02zm-3.85 -0.62c-1.11,-0.32 -1.46,-0.19 -1.32,-0.65 0.14,-0.46 0.22,-0.24 1.35,0.02 0.84,0.19 0.94,0.16 0.82,0.53 -0.1,0.3 0.05,0.36 -0.85,0.1zm25.35 -4.25c-1.59,0.34 -1.4,-0.6 -1.01,2.59 0.34,2.77 2.03,5.58 2.04,5.81l-8.62 -1.61 -10.08 -1.96 -8.26 -1.61c-1.43,-0.22 -0.7,-0.27 -1.38,1.12l-2.58 6.93 1.31 0.34c0.08,-0.11 0.17,-0.48 0.19,-0.62 -0.71,-0.31 -1.02,0.55 0.17,-2.34l1.09 -2.72 4.46 0.69c0.6,0.08 0.77,0.44 0.59,0.81 -1.24,2.62 -0.99,3.17 -1.82,5.73 -0.04,0.11 -0.04,0.07 0.02,0.15 0.59,0.07 0.4,-0.12 0.74,-1.23 0.64,-2.07 0.46,-2.79 1.85,-4.62l3.59 0.44 2.85 0.43c0.4,0.05 0.56,1.03 0.15,1.75 -0.04,0.06 -0.03,0.04 -0.03,0.12 0.59,-0.04 0.73,-1.48 0.78,-1.79 0.03,-0.23 0.24,-0.2 1.09,-0.06 0.21,0.04 1.04,0.08 1.21,0.16l-4.16 2.79c-0.03,-0.02 0.02,-0.01 -0.06,-0.02 -0.15,-0.59 -0.19,-1.04 -0.83,-1.59 -1.19,-1 -2.45,-0.21 -2.47,1.96 -0,0.26 0.08,0.96 0.21,1.2 0.2,0 0.72,-0.02 0.89,-0.09 0,-0 -0.98,-1.42 0.23,-1.93 1,-0.42 1.73,0.79 1.36,1.29 -0.65,0 -0.96,-0.67 -1.19,-0.43 -0.11,0.12 -0.12,0.27 -0.03,0.39 0.89,0 0.93,0.22 1.24,0.28 -0,0.17 -0.18,0.14 -0.29,0.28l0.89 -0.11 0.08 -0.58c0.01,-0.41 0.06,-0.39 0.53,-0.68l3.98 -2.59 11.21 1.47c0.21,0.03 0.45,0.05 0.64,0.09 0,0.29 -0.78,0.12 -1.58,0.34l-11.89 1.67c0.95,0 2.94,-0.34 3.55,-0.21 0.64,0.13 2.06,-0.64 3.29,-0.27 0.11,0.07 -0.01,0.09 0.16,0.06l0.08 0.17c0,-0.53 0.74,-0.43 1.12,-0.48l2.7 -0.17c0.95,-0.39 1.81,-0.23 2.28,-0.34l2.72 -0.55 -2.26 -4.07c-0.82,-1.86 -1.38,-2.96 -1.44,-5.06 -0.03,-0.93 -0.47,-0.83 2.44,-0.36l2.44 0.36c0.27,0.03 0.23,0.73 0.35,1.16l0.34 1.92c0.09,0.48 0.03,0.31 -1.4,0.48l-1.05 0.17c0.01,0.1 0.04,0.26 0.06,0.36l2.27 -0.21c0.16,0.21 0.13,0.36 1.05,0.13 0,-0.59 0.44,-0.25 1.83,0.16l3.12 0.91c0.67,0.17 0.42,0.07 0.58,1.02 0.08,0.45 0.11,0.39 -0.16,0.73l-1.27 1.81c-0.16,0.22 0.31,0.47 1.01,-0.81 0.65,-1.19 0.9,-0.81 0.77,-1.77 -0.24,-1.77 0.34,-0.85 -1.49,-1.57l-3.73 -1.15c-0.41,-0.14 -0.57,-0.07 -0.83,-0.42 -0.11,0.05 -0.1,0.05 -0.23,0.02l-0.23 -1.93c-0.33,-0.26 -0.48,0.38 -0.57,-0.66 -0.07,-0.76 0.52,-0.17 0.59,-0.51l-0.1 -0.99c-0.18,0 -0.41,0.03 -0.58,0.04 -0.04,0.17 0,0.36 0,0.56 -0.06,0.05 -1.32,0.26 -1.46,0.02 -0.69,-1.14 -1.33,-1.36 -2.89,-1.18 -0.27,0.03 -0.05,0.18 -0.12,0.38z"/>
  </g>
 </g>
</svg>
