<?xml version="1.0" encoding="UTF-8"?>
<!DOCTYPE svg PUBLIC "-//W3C//DTD SVG 1.1//EN" "http://www.w3.org/Graphics/SVG/1.1/DTD/svg11.dtd">
<!-- Creator: CorelDRAW -->
<svg xmlns="http://www.w3.org/2000/svg" xml:space="preserve" width="66.1068mm" height="30.9664mm" version="1.1" style="shape-rendering:geometricPrecision; text-rendering:geometricPrecision; image-rendering:optimizeQuality; fill-rule:evenodd; clip-rule:evenodd"
viewBox="0 0 165.33 77.45"
 xmlns:xlink="http://www.w3.org/1999/xlink"
 xmlns:xodm="http://www.corel.com/coreldraw/odm/2003">
 <defs>
  <style type="text/css">
   <![CDATA[
    .fil0 {fill:#100F0F}
    .fil16 {fill:#145736}
    .fil9 {fill:#15643D}
    .fil14 {fill:#167948}
    .fil5 {fill:#3B7A30}
    .fil18 {fill:#4B4B4B}
    .fil13 {fill:#6B3A22}
    .fil15 {fill:#746813}
    .fil17 {fill:#844628}
    .fil4 {fill:#92BC37}
    .fil8 {fill:#94B937}
    .fil11 {fill:#E8222B}
    .fil10 {fill:#F4232D}
    .fil7 {fill:#FAFAFA}
    .fil12 {fill:#FBAD1C}
    .fil2 {fill:#FDFDFD}
    .fil1 {fill:#FE8042}
    .fil6 {fill:#FEE217}
    .fil3 {fill:#FFB11C}
   ]]>
  </style>
 </defs>
 <g id="Camada_x0020_1">
  <metadata id="CorelCorpID_0Corel-Layer"/>
  <g id="_2087274976944">
   <path class="fil0" d="M57.33 15.55l-0.28 2.57c-0.45,-1.21 -0.68,-1.83 -0.65,-3.32 0.11,-2.24 -0.11,-3.44 -2.59,-3.56l-12.88 -0.01c-1.83,0.21 -1.81,2.89 -2.72,3.91 0.17,-4.19 -0.08,-3.88 -4.4,-3.92 -2.81,-0.03 -5.63,0.01 -8.45,0.04 -1.89,0.02 -2.26,0.87 -3.27,0.43 -1.64,-0.72 -1.51,-0.63 -3.6,-0.61 -12.58,0.14 -11.11,-0.48 -11.8,4.99 -0.3,2.37 -0.67,4.81 -0.99,7.14 -0.34,2.45 -0.34,5.05 -0.67,7.31 -0.34,2.37 -0.94,4.62 -1.14,7.06 -0.17,2.02 0.32,2.17 0.45,3.52 0.09,0.93 -3.49,23.42 -3.7,24.69 -1.15,6.97 -2.04,6.51 9.42,6.18 2.27,-0.07 5.79,-0.13 7.8,-0.59 5.55,-1.28 3.66,-2.26 5.52,-2.96 1.9,1.31 0.25,1.22 4.16,2.76 4.35,1.71 7.79,0.99 11.99,-0.5 1.53,-0.55 2.87,-2.11 4.27,-2.97 2.82,1.75 3.44,5.17 12.06,3.3 3.28,-0.71 35.25,0.14 38.32,-0.9 2.67,-0.91 0.41,0.15 4.68,0.1 3.88,-0.05 7.16,-0.46 10.27,0.88 2.62,1.14 1.29,0.98 2.55,2.81 1.68,2.45 9.8,4.21 13.49,3.38 2.75,-0.91 4.13,-1.04 5.27,-4.68 0.64,-2.05 1.16,-1.29 2.46,-2.45 5.79,-5.16 7.63,-15.25 8.59,-16.68 1.93,1.15 1.8,1.5 3.94,2.71 4.49,2.55 5.49,-4.93 2.39,-9.97 -1.49,-2.43 -4.35,-3.96 -4.68,-5.4 -1.04,-4.58 2.69,-4.1 6.43,-7.11 1.36,-1.1 7.82,-3.98 8.99,-4.7 6.05,-3.71 9.48,-11.96 4.03,-11.28 -1.08,0.13 -3.56,1.52 -4.79,2.01l-8.1 2.4c-0.99,0.31 -1.89,0.29 -2.89,0.64 -1.23,0.43 -4.09,1.9 -5.06,1.84 -0.25,-0.46 -0.48,-1.1 -0.8,-1.55 -0.48,-0.69 -0.74,-0.52 -1.05,-1.31 -0.23,-0.59 -0.21,-1.34 -0.41,-1.9 -0.35,-1.01 -0.59,-0.61 -0.64,-1.86 -0.13,-3.64 -0.6,-2.58 -0.98,-3.69 -0.21,-0.63 -0.11,-1.18 -0.4,-1.92 -0.23,-0.58 -0.67,-1.19 -0.87,-1.68 -0.54,-1.33 -0.17,-2.43 -1.27,-3.41 -1.22,-1.08 -1.61,-0.86 -2.04,-2.85 -0.5,-2.33 -2.82,-2.22 -4.33,-3.05 -0.59,-0.33 -0.98,-0.84 -1.54,-1.06 -1.72,-0.68 -7.98,-0.2 -10.11,1.63 -0.81,0.7 -0.28,0.51 -1.39,0.99 -3,1.29 -2.89,2.95 -3.63,3.67 -0.5,0.49 -0.8,0.43 -1.32,1.06 -1.62,1.97 -0.71,2.78 -2.8,4.45 -1.49,1.2 -1.3,3.76 -2.88,4.58 -1.14,-1.55 0.14,-4.15 -1.92,-5.07 -1.71,-0.77 -11.68,-0.25 -14.06,-0.11 -2.71,0.16 -4.56,-0.21 -7.1,-0.25 -5.68,-0.08 -16.36,-0.21 -22,-0.04 -2.6,0.08 -3.01,1.94 -2.89,4.32z"/>
   <path class="fil1" d="M95.39 58.06c0.12,-1.17 2.94,-11.12 3.38,-11.58l-0.63 11.53 -2.75 0.05zm-17.17 -13.59c1.86,-0.31 2.31,1.13 2.02,2.84 -0.21,1.27 -0.34,2.81 -1.37,3.36 -2.44,1.29 -1.74,-1.11 -1.47,-2.44 0.22,-1.08 0.42,-2.78 0.81,-3.76zm16.42 19.03c0.37,-0.42 -0.37,-0.16 0.66,-0.36 0,0 0.83,-0 0.9,-0 0.59,0.01 0.95,0.01 1.53,0.09 0.16,0.73 0.12,1.66 -0.22,2.32l-0.05 2.93 8.45 -0.17c0.49,-1.86 0.07,-11.46 0.05,-14.1 -0.03,-4.38 0.14,-9.37 -0.16,-13.68 -1.3,0.02 -2.83,0.44 -4.27,-0.12l-0.32 -0.18c-1.68,-0.1 -2.55,-1.02 -3.67,-0.97 -1.17,0.05 -1.89,1.18 -2.68,1.76 -0.98,-0.1 -1.09,-0.46 -1.96,-0.71l-3.64 12.81c-0.7,1.99 -1.45,4.27 -2.01,6.25 -0.33,1.17 -0.47,2.23 -0.85,3.38 -0.24,0.72 -0.64,2.37 -1.13,2.94 0.07,-4.28 2.39,-8.31 0.32,-10.7 -0.92,-1.07 -1.65,-0.96 -2.45,-1.62 1.5,-0.73 1.95,-0.09 3.22,-1.52 1.68,-1.88 2.68,-7.31 0.77,-10.62 -1.18,-2.06 -5.34,-1.82 -7.6,-1.82 -1.91,0 -7.57,-0.14 -9.08,0.21 -0.41,0.72 -2.44,13.03 -2.53,14.59 -0.15,2.6 -0.68,4.92 -1.07,7.49 -0.33,2.12 -1.11,5.29 -1.13,7.44l8.26 -0.23c1.1,-1.06 1.65,-11.12 2.26,-13.21 4.88,-1.08 0.83,6.69 0.56,13.24l16.42 -0.44c0.54,-1 1.03,-3.67 1.4,-5z"/>
   <path class="fil2" d="M25.97 39.14c0.77,0.4 3.62,0.17 4.74,0.17 2.57,-0 2.59,0.5 2.83,-1.78 0.41,-3.94 2.86,-23.57 2.56,-24.85 -1.34,-0.16 -10.43,-0.23 -11.08,0.09l-0.91 2.96c-0.51,2.25 -2.32,6.97 -2.59,8.57 -0.48,-2.46 -0.25,-10.13 -1.02,-11.58 -1.63,-0.2 -4.05,-0.05 -5.77,-0.04 -7.42,0.04 -5.09,-2.37 -7.14,13.6 -0.21,1.62 -1.76,12.76 -1.65,13.26 8.1,0.21 7.65,0.45 7.95,-2.14l0.87 -6.26c0.26,-1.41 0.59,-2.66 0.74,-4.2 0.11,-1.19 -0.01,-3.08 0.35,-4.14l0.22 0.99c0.01,0.31 -0.01,0.74 -0.01,1.06l0.31 6.15c0.7,8.78 -0.71,8.53 3.48,8.42 3.95,-0.1 2.37,-0.59 4.94,-8.45l1.86 -5.98c0.21,-0.63 0.23,-1.52 0.5,-2.03 0.1,2.83 -0.87,11.05 -1.36,14.57 -0.29,2.11 -0.09,1.4 0.19,1.64z"/>
   <path class="fil2" d="M12.6 65.05c-0.18,0.1 0.2,0.34 -1.19,0.23 -0.04,-0.69 -0.11,-0.6 0.24,-1.1 -0.06,-0.85 2.66,-18.19 2.85,-18.51 1.28,-0.18 1.97,-0.22 2.14,1.07l-1 8.57c-0.32,1.83 -0.59,3.63 -0.9,5.39 -0.29,1.67 -0.44,4.25 -2.14,4.34zm-10.37 5.47c4.23,0.05 9.41,0.03 13.53,-0.38 2.42,-0.24 3.3,-0.79 4.87,-1.83 1.16,-0.77 1.69,-2.85 2.04,-4.53 0.89,-4.24 1.12,-7.35 1.7,-11.38 0.49,-3.46 1.96,-7.98 -0.54,-10.3 -2.2,-2.03 -8.79,-1.57 -12.22,-1.52 -5.46,0.08 -4.95,-0.24 -5.23,1.63 -0.29,1.89 -0.58,3.7 -0.92,5.6 -0.34,1.92 -0.4,3.83 -0.73,5.76 -0.78,4.51 -2.32,13.05 -2.49,16.93z"/>
   <path class="fil2" d="M35.88 45.08c3.67,-3.05 0.92,8.41 0.75,9.52 -0.28,1.83 -0.61,3.67 -0.94,5.57 -0.25,1.42 -0.49,4.84 -1.14,5.16 -2.76,1.39 -1.81,-2.68 -1.64,-3.83l1.88 -11.16c0.28,-1.58 0.01,-4.37 1.08,-5.26zm10.01 4.75c0.23,-1.32 0.37,-4.86 0.01,-6.17 -0.28,-1.02 -2.37,-3.06 -3.27,-3.37 -4.8,-1.67 -11.73,-0.84 -14.65,4.06 -1.73,2.9 -2.86,12.4 -3.39,16.02 -0.55,3.7 -0.72,7.38 3.25,9.25 3.57,1.68 8.01,1.02 11.06,-0.62 1.96,-1.06 2.31,-1.58 3.58,-3.11 1.57,-1.9 2.93,-13.31 3.41,-16.05z"/>
   <path class="fil1" d="M115.14 63.14c-0.24,-1.47 1.25,-8.74 1.6,-10.75 0.29,-1.71 0.41,-3.6 0.69,-5.33 0.33,-2.03 0.01,-4.31 2.38,-4.13 1.07,1.5 0.53,2.02 -0.06,5.43l-1.73 11.71c-0.36,2.06 -0.22,4.68 -2.87,3.07zm13.37 -16.85c0.61,-3.69 -0.58,-7.04 -4.78,-8.12 -5.13,-1.32 -11.52,0.58 -13.8,5.55 -0.88,1.91 -1.06,3.04 -1.23,5.28 -0.26,3.42 -1.31,7.55 -1.74,11.06 -0.26,2.07 -0.37,4.16 0.77,5.63 1.05,1.36 1.68,2.18 4.01,2.69 2.48,0.54 6.91,0.37 8.97,-0.55 1.15,-0.51 1.24,-0.72 1.96,-1.29 0.82,-0.65 1.2,-0.71 1.88,-1.57 2.52,-3.18 3.31,-14.79 3.96,-18.68z"/>
   <path class="fil1" d="M55.81 57.8l1.58 0.36c-0.02,0.33 0.08,0.11 -0.07,0.61 -0.13,0.43 -0.09,0.19 -0.29,0.41 0.04,0.52 -0.22,3.31 -0.34,3.79 -0.4,1.53 -0.85,1.88 -2.73,1.69 -0.29,-3.1 1.44,-12.94 2.21,-16.8 0.21,-1.07 0.46,-4.71 2.47,-3.42 1.04,1.18 -0.2,4.51 -0.25,6.14l8.28 -0.31c0.03,-0.05 0.07,-0.12 0.08,-0.15l0.27 -0.89c1.72,-9.63 -3.99,-8.99 -5.96,-10 1.25,-0.08 4.03,0.29 4.85,-0.31 -2.56,0.42 -6.06,0.11 -8.65,0.01 -0.48,0.54 -4.16,1.07 -5.44,1.96 -0.75,0.53 -1.35,1.16 -1.97,1.71 -1.07,0.96 -0.9,0.86 -1.36,2.27 -1.2,3.63 -1.88,7.86 -2.42,11.88 -0.16,1.16 -0.1,2.1 -0.29,3.27 -0.47,2.79 -1.04,6.6 1.56,8.39 6.01,4.13 9.22,-0.33 10.9,-0.71 0.58,1.52 -0.41,1.66 1.99,1.59 1.19,-0.03 2.34,0.04 3.51,-0.15 0.64,-1.16 1.21,-6.1 1.31,-7.85 0.16,-2.7 1.04,-5.29 1.22,-7.98 -1.52,-0.17 -3.37,-0.06 -4.92,-0.04 -4.75,0.06 -5.31,-0.78 -5.53,4.53z"/>
   <path class="fil2" d="M44.93 29.14c-0.01,-1.3 0.87,-3.55 1.08,-5.14 0.17,-1.27 0.78,-3.92 1.58,-4.57l0.01 7.75 0.23 1.4c0,0.51 -0,0.67 -0.1,1.23l-3 -0.04c-0.07,-1.07 0.01,-0.36 0.2,-0.62zm-10.72 10.14c10.3,0.15 8.89,0.35 9.38,-1.92 0.21,-0.98 0.45,-1.91 0.58,-2.86l3.26 -0 0.05 4.66 8.82 -0.06c0.5,-1.06 -2.02,-22.27 -2.16,-26.4l-12.8 0.02c-0.85,4.14 -3.36,11.6 -3.6,13.33 -0.22,1.64 -1.32,4.8 -1.89,6.55l-1.66 6.68z"/>
   <path class="fil3" d="M132.46 19.72c0.3,-0.33 -0.37,-0.19 0.81,-0.4 3.44,-0.62 3.33,2.4 2.37,3.13 -1.87,1.42 -4.82,-0.91 -3.18,-2.72zm-21.25 2.82l-0.19 -0.51 0.54 0.14c0.67,1.78 0.92,3.34 2.55,3.74l0.19 -0.03c-0.47,-1.31 -0.91,-3.4 -0.07,-4.52 0.24,0.65 0.06,1.82 0.09,2.64 0.03,0.81 -0.03,0.66 0.31,1.25l0.69 0.86c0.03,0.03 0.09,0.09 0.13,0.13 1.24,0.4 3.51,-0.62 4.39,-1.15l0.82 -0.29c0.98,-0.67 1.39,-1.03 2.18,-1.63 1.18,-0.89 7.1,-4.48 8.39,-1.68 -2.23,0.69 -4.59,-0.49 -6.11,2.95 -1.43,3.24 -3.89,3.01 -6.38,2.57 -2.39,-0.43 -1.5,0.95 -5.06,-0.31 -1.67,-0.15 -2.68,-0.43 -3.94,-1.26l-0.89 -0.76c-0.72,-0.86 -0.22,-1.82 -0.8,-2.67 -0.52,-0.75 -1.32,-1.1 -1.97,-1.69 1.67,0.01 4.04,3.55 5.56,4.19l-0.45 -1.97zm-5.13 -0.39l-0.78 0.03c-0.34,-0.37 -0.12,0.05 -0.13,-0.49l0.57 -0.05c0.37,0.28 0.25,-0.4 0.33,0.51zm-1.64 -1.49c0.02,0.39 0.01,1.05 0.07,1.44 0.05,0.29 0.02,0.21 0.14,0.45 0.18,0.38 0.12,0.17 0.32,0.4 0.66,0.83 0.55,-0.17 1.01,1.05 0.38,1 -0,0.61 0.89,1.22 0.42,0.28 0.77,0.57 1.24,0.92 0.53,0.39 0.7,0.64 1.2,0.97 1.45,0.94 4.89,1.9 6.85,1.98 8.57,0.36 11.74,-3.96 13.34,-4.06 0.89,-0.96 2.3,-1.94 4.23,-2.06 1.79,-0.11 3.54,0.91 4.14,1.98 -4.29,-1.3 -3.88,1.14 -3.42,4.55l0.27 1.45c1.06,-0.33 1.05,-0.49 1.71,-0.86 0.86,-0.48 1.02,-0.29 1.2,-1.16l-1.11 -1.6c0.2,-0.85 0.16,-0.34 0.48,-1.08l-1.25 0.03 0.16 -0.63c1.59,-0.05 1.79,1.64 3.5,-0.41 -0.35,-1.5 -1.14,-1.82 -2.31,-2.53 0.12,-0.59 0.42,-1.33 0.29,-2 -0.18,-0.88 -0.48,-0.61 -0.92,-1.43 -0.64,-1.21 0.75,-2.65 -0.65,-3.62 0.19,0.76 0.35,1.64 0.05,2.27 -1.47,0.43 -4.01,0.02 -4.1,-1.48 -0.14,-2.1 2.8,-1.52 4.17,-0.82 -0.38,-1.04 -0.47,-0.42 -0.53,-1.67 -0.04,-0.69 0.14,-0.98 -0.27,-1.56 -0.6,-0.86 -1.62,-1.01 -1.33,-2.26 0.19,-0.8 0.44,-0.31 -0.1,-1.16 -1.78,-2.79 -1.97,-1.42 -2.59,-3.2 -0.42,-1.21 -0.25,-1.82 -1.61,-2.26 -2.88,-0.94 -1.22,-0.52 -2.62,-1.3 -0.29,-0.16 -6.42,-0.72 -7.28,0.4 -0.49,0.64 -0.3,0.77 -1.43,2.06 1.43,-0.07 1.9,1.19 1.76,2.47 -1.52,1.1 -3.07,0.74 -4.6,-0.08l0 -1 -0.48 0.86c-1.1,2.96 -2.87,-0.5 -3.2,5.33 -2.65,1.51 -2.13,0.39 -2.64,3.38 -0.2,1.16 -0.52,1.15 -1.23,1.76 -1.94,1.68 0.64,1.51 -3.29,1.98l-0.1 1.28zm19.97 -0.6c0.35,-0.28 -0.13,-0.13 0.41,-0.2l-0.41 0.2zm-0.24 -3.32c1.35,-0.12 1.4,0.14 2.52,0.4l-0.22 -0.53c-0.02,-0.06 -0.04,-0.12 -0.05,-0.18 -0.13,-0.72 0.16,-1.17 1.03,-1.45 2.55,-0.82 3.44,0.41 2.87,2.7 -0.95,0.37 -2.25,0.67 -3.07,-0.12l-0.18 -0.26c-0.43,1.39 -0.97,-1.09 -3.64,0.8 -0.49,0.34 -0.81,0.6 -1.09,1.05 -0.96,1.53 -3.61,4.92 -5.42,5.26 0.21,-0.59 1.3,-1.11 1.81,-1.55 1.03,-0.89 0.62,-0.79 1.36,-1.84 0.92,-1.32 1.85,-2.5 2.68,-3.79 -1.73,0.2 -3.23,0.3 -3.78,-1.35 1.1,-1.92 6.57,-1.43 5.18,0.88zm-8.59 -0.03c-1.47,0.2 -3.38,0.47 -4.5,-0.24 -2.3,-1.47 -0.09,-5.23 4.14,-3.06 1.27,0.65 1.17,1.37 0.36,3.3zm12.12 -5.91c2.99,-1.53 4.87,2.34 2.45,3.37 -2.91,1.24 -5,-2.06 -2.45,-3.37zm-4.64 -1.05c1.85,0 2.88,0.55 2.27,2.37 -0.43,1.27 -1.1,1.95 -2.84,1.72 -3.73,-0.49 -3.93,-4.09 0.56,-4.09zm-5.11 2.5c-2.02,0.18 -3.01,-0.13 -4.18,-1.03 -0.62,-0.48 -1.15,-0.82 0.15,-2.28 0.34,-0.38 -0.01,-0.23 0.65,-0.42 1.21,-0.35 3.49,-0.02 4.28,0.66 1.01,0.88 -0.45,2.48 -0.9,3.07zm9.14 -2.65c-0.61,-2.18 -0.18,-3.41 2.25,-3.03 2.13,0.33 1.99,1.75 1.04,3.19 -1.14,0.18 -2.23,0.31 -3.28,-0.16zm-1.76 -4.01c1.16,4.91 -2.89,3.84 -3.44,3.44 -0.9,-0.66 -0.9,-4.38 3.44,-3.44z"/>
   <path class="fil2" d="M94.04 27.49c0.22,-1.78 1.1,-6.15 1.67,-7.75 0.57,0.66 0.36,0.72 0.42,2.59 0.02,0.83 0.11,1.45 0.14,2.27 0.07,1.57 0.25,3.38 0.18,4.91l-2.75 0.05 0.34 -2.08zm-3.2 11.24c0.3,-0.44 0.46,-0.73 0.8,-1.1 1.78,-1.92 0.99,-2.1 1.77,-3.32 6.73,-0.68 9.07,2.32 11.64,0.72 0.23,-1.79 -1.04,-8.86 -1.36,-11.18 -0.41,-3.03 -0.51,-8.42 -1.36,-11.03 -1.45,-0.15 -11.96,-0.19 -12.43,0.23 -0.41,0.38 -0.21,0.49 -0.5,1.62 -1.01,3.93 -5.94,22.43 -5.97,24.24l7.41 -0.17z"/>
   <path class="fil2" d="M57.26 38.92c2.59,0.1 6.09,0.41 8.65,-0.01 0.62,-0.72 1.07,-9.11 1.36,-10.83 0.85,-0.21 1.84,-0.11 2.74,-0.09l1.96 -0.05c1.24,-0.28 1.14,-3.78 0.99,-4.79 -1.48,-0.49 -3.49,-0.03 -5.14,-0.27l0.18 -4.73c1.38,-0.15 5.12,0.29 5.93,-0.28 0.5,-0.61 0.64,-4.06 0.46,-5.05l-14.61 -0.09c-0.33,4.58 -0.71,8.69 -1.2,13.24 -0.46,4.17 -1.14,8.81 -1.31,12.96z"/>
   <path class="fil4" d="M137.66 28.93c-0.18,0.87 -0.34,0.68 -1.2,1.16 -0.66,0.37 -0.65,0.53 -1.71,0.86l-0.27 -1.45c0.07,2.22 0.06,2.08 -1.08,3.76 -0.86,1.27 -1.33,1.08 -2.67,1.88l-0.24 1.37c1.14,-0.36 2.16,-0.91 3.29,-1.14 -1.01,3.12 -3.72,2.54 -7.25,3l0.31 0.21c0.6,-0.33 2.05,-0.28 2.85,-0.19 -0.1,0.37 -0.17,0.72 -0.3,1.11 -0.28,0.87 -0.32,0.73 -0.63,0.97 1.33,2.23 1.06,3.61 0.96,6.32l4.83 -4.93c1.6,-1.51 3.52,-3.39 5.84,-4.37 0.69,-0.5 0.74,-0.72 1.34,-1.18 1.48,-1.15 6.35,-3.94 7.81,-4.97 1.04,-0.74 5.4,-2.77 6.8,-3.41 3.5,-1.6 6.71,-6.04 6.6,-8.24 -1.95,0.31 -4.1,1.75 -6.12,2.44 -2.01,0.69 -4.74,1.13 -6.96,1.79 -2.52,0.75 -4.33,1.24 -6.38,2.35 -0.9,0.49 -5.07,2.65 -5.82,2.67z"/>
   <path class="fil2" d="M73.66 38.88c1.23,0.24 3.43,0.08 4.78,0.07 2.45,-0.02 3.89,0.35 4.13,-0.6l1.94 -25.51 -8.51 0.13c-0.3,0.99 -2.45,25.31 -2.34,25.91z"/>
   <path class="fil5" d="M129.72 46.8l-0.73 4.37c-0.24,1.5 -0.46,2.86 -0.75,4.37 -0.29,1.54 -0.35,3 -0.61,4.37 -0.33,1.77 -0.84,2.66 -1.25,3.97 0.82,0.79 0.81,3.98 0.59,5.28 -0.29,1.73 -1.08,2.99 -3.01,3.07 -4.13,0.17 -7.22,-1.02 -10.98,-1.56 0.68,1.38 -0.05,2.23 1.72,3.07 3.17,1.5 8.03,2.99 11.34,1.39 2.9,-1.4 -0.01,-1.96 3.79,-5.39 0.37,-0.34 0.86,-0.84 1.23,-1.15 0.97,-0.78 2.18,-1.16 3.09,-3.72 -1.09,0.35 -1.57,1.14 -2.73,1.4 -3.76,0.85 -2.47,-5.93 -1.8,-8.01 2.1,-6.54 3.07,-5.26 4.79,-10.51 1.83,-0.25 1.26,0.21 2.39,-1.07 0.52,-0.59 1.08,-1.18 1.3,-2.14 2.01,0.22 0.86,-0.14 2.26,-0.5 0.35,1.17 -0.03,2.67 -0.28,3.82 -0.64,2.89 0.22,2.14 -0.25,3 2.89,-0.17 5.31,3.11 6.97,3.76 1.16,-9.82 -4.48,-10.49 -5.71,-11.92 -0.5,-0.57 -0.89,-4.36 -0.69,-5.22 -2.32,0.98 -4.25,2.86 -5.84,4.37l-4.83 4.93z"/>
   <path class="fil4" d="M134.16 64.87c1.27,-0.87 2.44,-4.81 3.17,-6.67 0.64,-1.62 1.73,-6.49 2.51,-7.33 0.47,-0.86 -0.39,-0.11 0.25,-3 0.25,-1.15 0.63,-2.65 0.28,-3.82 -1.4,0.36 -0.25,0.72 -2.26,0.5 -0.22,0.95 -0.78,1.55 -1.3,2.14 -1.13,1.28 -0.56,0.82 -2.39,1.07 -1.71,5.25 -2.68,3.97 -4.79,10.51 -0.67,2.09 -1.96,8.86 1.8,8.01 1.16,-0.26 1.64,-1.05 2.73,-1.4z"/>
   <path class="fil1" d="M102.12 39.99c1.72,0.2 1.99,0.1 3.63,-0.14 1.42,-1.26 5.8,-3.14 0.45,-4.89 -1.14,0.7 -1.4,1.64 -3.64,1.18 -1.7,-0.34 -5.29,-2.28 -8.32,-0.04 -0.72,0.53 -1.96,1.62 -2.26,2.47 0.53,0.67 1.54,1.42 2.67,1.68 1.02,-0.72 1.57,-2.01 3.6,-1.53 1.3,0.31 2.48,1.06 3.87,1.26z"/>
   <path class="fil3" d="M109.12 35.76c0.42,0.62 0.76,0.82 0.42,1.77 0.77,-0.4 0.08,-0.23 0.92,-0.23 0.22,1.76 -0.51,2.37 -1.47,3.06 -0.75,0.54 -0.82,0.8 -1.95,0.84l1.19 1.51 0.85 -0.03c0.72,-0.69 1.07,-1.45 1.84,-2.17 0.63,-0.6 1.55,-1.14 2.18,-1.77 -0.98,-0.25 -0.32,-1.25 0.88,-1.38 0.56,-0.06 1.22,-0.03 1.78,-0.07 1.1,-0.08 0.88,0.04 1.11,-0.59 -1.42,-0.79 -2.49,0.13 -3.8,-1.25 -0.33,-1.83 0.55,-2.88 2.06,-2.5 0.75,-0.5 1.29,0.01 1.92,0.46 2.02,1.43 2.84,1.67 5.04,2.75 2.06,1.01 6.25,1.77 8.42,0.35l0.24 -1.37c-2.62,0.3 -3.05,0.74 -5.98,0.23 -2.23,-0.39 -3.44,-0.39 -5.08,-1.53 -5.11,-3.53 -6.03,-2.47 -10.42,-2.73 0.56,-0.41 0.98,-0.19 1.5,-0.47 -1,0.18 -1.45,-0 -2.05,-0.3 0.29,1.33 -0.02,1.02 1.15,1.67 0.72,0.4 1.19,0.5 1.54,1.15 -0,1.01 0.13,1.51 -0.55,2.08 -0.48,0.41 -1.04,0.64 -1.74,0.53z"/>
   <path class="fil4" d="M112.99 70.66c3.76,0.53 6.85,1.73 10.98,1.56 1.93,-0.08 2.72,-1.34 3.01,-3.07 0.22,-1.3 0.23,-4.48 -0.59,-5.28 -1.96,2.9 -3.71,4.65 -8.21,5.5 -6.9,1.3 -9.77,-1.95 -11.16,-2.35 0.12,1.29 0.04,0.93 1.14,1.4 0.62,0.26 0.92,0.55 1.53,0.85 0.96,0.48 2.23,1.02 3.3,1.39z"/>
   <path class="fil2" d="M124.02 31.08l-3.4 0.08c-0.34,0.54 0,2.02 0.37,2.49 0.76,0.96 3.83,1.11 5.2,1.33 1.28,0.2 2.34,-0.03 3.3,-0.27 0.23,-0.38 0.17,-0.16 0.19,-0.68 -0.02,-0.92 -0.73,-2.99 -1.29,-3.8l-3.57 0.65c-0.12,1.2 0.4,1.2 0.2,2.47 -0.32,-0.67 -0.32,-1.84 -1,-2.27z"/>
   <path class="fil2" d="M127.59 27.63l0.22 0.98c-0.26,-0.19 -0.25,0.29 -0.41,-0.38 -0.2,-0.87 -0.34,-0.39 0.18,-0.6zm1.93 -2.6c-0.48,0.46 -0.83,0.53 -1.4,0.99 -0.45,0.37 -0.67,0.86 -1.19,1.17l-3.22 1.17c-0.03,0.88 0.3,1.28 0.76,1.78 1.18,0.37 2.14,-0.24 3.38,-0.2 0.22,-0.76 0.06,-0.37 -0.07,-1.19 0.81,0.75 -0,0.63 1.28,0.85 0.9,-0.6 1.95,-0.81 2.73,-1.65 -0.4,-0.84 -1.16,-1.22 -1.31,-2.26 0.75,0.76 1.01,1.84 2.36,1.85 0.54,-0.6 1.01,-2.51 0.42,-3.08 -0.15,-0.13 0.22,-0.48 -1.69,-0.01 -1.24,0.31 -0.84,0.05 -1.31,0.98 -0.4,-0.59 0.33,-0.26 -0.73,-0.41z"/>
   <path class="fil6" d="M113.1 38.74c1.07,-0.15 0.91,-0.49 1.9,-0.85 0.66,-0.24 1.42,-0.27 2.16,-0.47 1.85,-0.48 3.11,-0.21 4.98,-0.3 -0.49,-0.62 -0.97,-0.72 -1.69,-1.1 -2.35,-1.26 -3.07,-2.69 -5.34,-3.07 -1.51,-0.39 -2.39,0.67 -2.06,2.5 1.32,1.38 2.38,0.46 3.8,1.25 -0.22,0.63 -0,0.51 -1.11,0.59 -0.56,0.04 -1.22,0.01 -1.78,0.07 -1.2,0.13 -1.86,1.12 -0.88,1.38z"/>
   <path class="fil6" d="M108.25 32.33c0.47,0.17 1.02,0.24 1.68,0.42 -0.01,0.01 0.28,0.86 -1.51,0.01 -0.33,-0.16 -0.26,-0.14 -0.46,-0.28l-2.07 -1.26c0.22,2.88 -0.21,2.66 1.73,3.74l1.5 0.82c0.7,0.12 1.25,-0.12 1.74,-0.53 0.68,-0.57 0.55,-1.07 0.55,-2.08 -0.35,-0.65 -0.82,-0.76 -1.54,-1.15 -1.17,-0.64 -0.86,-0.34 -1.15,-1.67l-0.32 -0.41c-0.77,-0.11 -1.17,-0.63 -1.62,-1.06 -0.81,-0.78 -0.45,-1 -1.37,-1.44 0.1,3.04 1.23,3.49 2.85,4.9z"/>
   <path class="fil6" d="M115.59 16.72c0.81,-1.93 0.91,-2.65 -0.36,-3.3 -4.23,-2.17 -6.44,1.59 -4.14,3.06 1.12,0.71 3.04,0.45 4.5,0.24z"/>
   <path class="fil6" d="M123.07 9.76c-4.49,0 -4.29,3.6 -0.56,4.09 1.74,0.23 2.41,-0.45 2.84,-1.72 0.61,-1.82 -0.42,-2.37 -2.27,-2.37z"/>
   <path class="fil2" d="M129.5 29.73c-0.05,0.04 -0.11,0.1 -0.13,0.13l-0.45 0.39 1.02 3.04c0.25,0.36 0.03,-0.37 0.27,0.48 0.05,0.17 0.04,0.3 0.05,0.48l0.81 -0.24c2.51,0.11 3.47,-5.17 2.03,-6.2 -0.83,1.01 -0.12,0.79 0.1,1.71 -1.56,-1.85 -1.74,0.27 -3.69,0.22z"/>
   <path class="fil6" d="M117.96 12.26c0.45,-0.59 1.91,-2.19 0.9,-3.07 -0.78,-0.68 -3.07,-1.01 -4.28,-0.66 -0.66,0.2 -0.31,0.04 -0.65,0.42 -1.3,1.46 -0.77,1.8 -0.15,2.28 1.17,0.9 2.16,1.21 4.18,1.03z"/>
   <path class="fil6" d="M127.71 10.81c-2.55,1.3 -0.46,4.6 2.45,3.37 2.42,-1.03 0.53,-4.89 -2.45,-3.37z"/>
   <path class="fil7" d="M106.94 27.54c0.92,0.6 0.99,0.27 1.66,0.66 0.38,0.22 1.88,1.83 4.07,1.44l0.16 0.39c0.03,-0 3.78,0.3 3.79,0.3 1.11,0.32 1.56,0.25 2.71,0.15l-0.02 -0.86c-2.81,-0.24 -5.42,0.15 -7.76,-1.07 -2.61,-1.36 -2.84,-1.06 -3.27,-1.29 -0.74,-0.39 -0.92,-1.74 -2.2,-1.95 -0.06,1.25 -0.32,1.98 0.86,2.23z"/>
   <path class="fil6" d="M125.34 5.61c-4.34,-0.95 -4.35,2.78 -3.44,3.44 0.55,0.4 4.6,1.48 3.44,-3.44z"/>
   <path class="fil6" d="M132.46 19.72c-1.64,1.81 1.31,4.14 3.18,2.72 0.96,-0.73 1.07,-3.75 -2.37,-3.13 -1.18,0.21 -0.51,0.08 -0.81,0.4z"/>
   <path class="fil6" d="M115.39 6.07l-0 1c1.53,0.82 3.08,1.18 4.6,0.09 0.14,-1.27 -0.33,-2.53 -1.76,-2.47 -1.55,-0.29 -2.69,0.25 -2.83,1.38z"/>
   <path class="fil8" d="M109.08 42.69l-0.85 0.03 -1.19 -1.51 -0.32 -0.06 0.16 10.56c0.63,-0.8 1.59,-7.46 2.19,-9.02z"/>
   <path class="fil6" d="M127.1 9.62c1.06,0.46 2.15,0.33 3.28,0.16 0.96,-1.44 1.09,-2.86 -1.04,-3.19 -2.43,-0.38 -2.86,0.86 -2.25,3.03z"/>
   <path class="fil6" d="M122.79 17.21c0.8,-0.02 0.69,-0.11 1.39,-0.47 1.4,-2.31 -4.07,-2.8 -5.18,-0.88 0.55,1.65 2.05,1.54 3.78,1.35z"/>
   <path class="fil9" d="M116.41 62.32c0.24,-0.18 0.15,-0.02 0.33,-0.35 0.22,-0.41 0.03,0.19 0.18,-0.48 0.08,-0.37 0.07,-0.86 0.07,-1.23 0.01,-0.95 0.09,-1.42 0.29,-2.37 0.41,-1.98 2.41,-12.78 2.03,-13.44 -0.49,0.26 -0.36,-0.15 -0.67,1.81 -0.44,2.76 -2.77,15.18 -2.22,16.06z"/>
   <path class="fil6" d="M126.7 17.14l0.38 0.15 0.18 0.26c0.81,0.79 2.11,0.48 3.07,0.12 0.57,-2.29 -0.32,-3.52 -2.87,-2.7 -0.87,0.28 -1.15,0.73 -1.03,1.45 0.01,0.06 0.03,0.12 0.05,0.18l0.22 0.53z"/>
   <path class="fil6" d="M135.85 15.68l0.12 -0.02c-1.38,-0.7 -4.31,-1.28 -4.17,0.82 0.1,1.49 2.63,1.9 4.1,1.48 0.3,-0.63 0.14,-1.51 -0.05,-2.27z"/>
   <path class="fil10" d="M120.67 24.8l-0.82 0.29 0.46 0.01c-1.32,0.6 -1.35,0.73 -1.52,1.44 2.81,0.47 4.8,0.31 5.11,-2.94 -1.65,-0.22 -2.32,1.63 -3.23,1.2z"/>
   <path class="fil6" d="M106.73 41.15l0.32 0.06c1.13,-0.04 1.19,-0.3 1.95,-0.84 0.96,-0.7 1.69,-1.31 1.47,-3.06 -0.84,0.01 -0.15,-0.17 -0.92,0.23 -0.76,0.29 -0.75,0.91 -1.5,1.53 -0.85,0.71 -1.3,0.57 -1.32,2.08z"/>
   <path class="fil2" d="M119.88 29.63c0.24,0.37 0.07,0.07 0.22,0.56l0.08 0.49c1.1,0.06 2.73,0.14 3.62,-0.41l-0.56 -1.33c-0.96,-0.12 -2.87,0.19 -3.37,0.68z"/>
   <path class="fil7" d="M108.39 29.94l0.32 0.41c0.59,0.3 1.05,0.49 2.05,0.3l1.77 -0.13 -0.08 -0.44c-1.16,-0.2 -1.79,-0.41 -2.9,-0.67 -1.03,-0.24 -1.39,-0.52 -2.01,-1.24l-0.59 0.18c0.15,0.48 1.05,1.15 1.45,1.59z"/>
   <path class="fil2" d="M119.93 31.08c-0.88,-0.17 -3.22,-0.58 -3.71,0.07 1.03,0.47 2.19,1.37 4.06,2.04l-0.35 -2.11z"/>
   <path class="fil4" d="M86.69 20.89l0.06 -0.93 -1.61 0.12c-0.13,2.35 -0.57,2.63 0.41,3.27 0.79,-0.19 0.86,-1.16 1.14,-2.46z"/>
   <path class="fil11" d="M109.28 24.58c0.58,0.43 0.91,0.51 1.64,1.01 0.82,0.55 1.13,0.61 2.27,0.51 -0.84,-1.09 -0.85,-0.69 -2.01,-1.38 -0.35,-0.21 -0.55,-0.38 -0.84,-0.66 -0.57,-0.55 -0.21,-0.5 -1,-0.65l-0.06 1.17z"/>
   <path class="fil12" d="M128.76 40.47c0.32,-0.25 0.36,-0.1 0.63,-0.97 0.12,-0.39 0.2,-0.74 0.3,-1.11 -0.81,-0.09 -2.26,-0.14 -2.85,0.19 0.5,0.47 0.56,0.49 0.96,0.99 0.52,0.65 0.4,0.43 0.97,0.91z"/>
   <path class="fil13" d="M102.12 39.99c0.68,0.58 1.71,0.4 2.86,0.31 -1.49,0.38 -2.33,0.02 -3.75,-0.07l0.32 0.18c1.44,0.56 2.97,0.14 4.27,0.12 -0.48,-0.31 0.63,-0.28 -0.63,-0.26 0.07,-0.02 0.35,-0.16 0.38,-0.25 0.03,-0.1 0.11,-0.13 0.19,-0.17 -1.64,0.24 -1.91,0.34 -3.63,0.14z"/>
   <path class="fil14" d="M85.14 20.08l1.61 -0.12 -0.06 0.93c0.35,-0.72 0.33,-0.64 0.17,-1.48 -1.03,-0.4 -1.42,-0.1 -1.73,0.67z"/>
   <path class="fil15" d="M107.95 32.47c0.19,0.14 0.13,0.13 0.46,0.28 1.79,0.85 1.5,0.01 1.51,-0.01 -0.66,-0.18 -1.2,-0.24 -1.68,-0.42l-0.29 0.14z"/>
   <path class="fil16" d="M95.09 28.72c0.4,-0.36 0.68,-0.71 0,-1.22 -0.32,0.56 -0.42,0.63 0,1.22z"/>
   <path class="fil17" d="M57.03 59.18c0.2,-0.22 0.16,0.01 0.29,-0.41 0.15,-0.5 0.05,-0.27 0.07,-0.61l-1.58 -0.36c0.34,0.34 0.04,0.23 0.65,0.37 0,0 0.76,-0 0.78,-0l-0.21 1.01z"/>
   <path class="fil18" d="M127.59 27.63c-0.52,0.21 -0.38,-0.27 -0.18,0.6 0.15,0.67 0.15,0.18 0.41,0.38l-0.22 -0.98z"/>
  </g>
 </g>
</svg>
