<?xml version="1.0" encoding="UTF-8"?>
<!DOCTYPE svg PUBLIC "-//W3C//DTD SVG 1.1//EN" "http://www.w3.org/Graphics/SVG/1.1/DTD/svg11.dtd">
<!-- Creator: CorelDRAW -->
<svg xmlns="http://www.w3.org/2000/svg" xml:space="preserve" width="20.5295mm" height="20.5295mm" version="1.1" style="shape-rendering:geometricPrecision; text-rendering:geometricPrecision; image-rendering:optimizeQuality; fill-rule:evenodd; clip-rule:evenodd"
viewBox="0 0 153.89 153.89"
 xmlns:xlink="http://www.w3.org/1999/xlink"
 xmlns:xodm="http://www.corel.com/coreldraw/odm/2003">
 <defs>
  <style type="text/css">
   <![CDATA[
    .fil0 {fill:black}
   ]]>
  </style>
 </defs>
 <g id="Camada_x0020_1">
  <metadata id="CorelCorpID_0Corel-Layer"/>
  <path class="fil0" d="M52.08 89.43l0 0.32c0,0.91 2.73,1.75 3.51,2.34 1.13,0.85 1.82,3.35 2.49,3.35l0.16 0c0.51,0 0.95,-0.69 0.95,-1.26l0 -0.63c0,-0.57 -1.21,-1.29 -1.42,-2.21 -1.08,-0.02 -2.7,-2.37 -5.21,-2.37 -0.36,0 -0.47,0.11 -0.47,0.47zm24.86 -89.43c-42.49,0 -76.94,34.46 -76.94,76.94 0,42.49 34.46,76.94 76.94,76.94 42.49,0 76.94,-34.46 76.94,-76.94 0,-42.49 -34.46,-76.94 -76.94,-76.94zm0 6.16c39.09,0 70.79,31.7 70.79,70.79 0,39.09 -31.7,70.79 -70.79,70.79 -39.09,0 -70.79,-31.7 -70.79,-70.79 0,-39.09 31.7,-70.79 70.79,-70.79zm-52.56 100.44c1.1,-0.66 1.9,-1.1 2.4,-1.32 1.09,-0.48 2.29,-0.19 3.25,0.57 1.41,1.12 2.8,3.66 2.18,5.55 -0.19,0.56 -0.49,1.01 -0.9,1.35 -0.89,0.72 -5.53,3.5 -6.6,3.97 -1.09,0.47 -2.28,0.19 -3.25,-0.57 -1.41,-1.12 -2.8,-3.66 -2.18,-5.55 0.19,-0.56 0.49,-1.01 0.9,-1.34 0.8,-0.64 3,-1.93 4.2,-2.65zm-1.62 5.48c-0.51,0.31 -0.82,0.54 -0.92,0.69 -0.2,0.3 0.08,0.77 0.44,0.82 0.17,0.03 0.54,-0.13 1.11,-0.47l5.13 -3.08c0.64,-0.38 1.01,-0.65 1.13,-0.8 0.23,-0.31 -0.12,-0.92 -0.55,-0.84 -0.21,0.04 -0.64,0.26 -1.29,0.65l-5.05 3.03zm-7.77 -7.74l-1.46 -3.61c-0.64,-1.58 -1.35,-3.59 0.07,-4.65 0.58,-0.43 1.78,-0.88 2.63,-1.22 1.29,-0.52 2.1,-0.65 2.97,0.28 0.66,0.71 1.03,1.75 1.43,2.75l4.79 -1.93 1.45 3.58 -11.88 4.8zm0.58 -4.41l3.02 -1.22c-0.46,-1.33 -0.89,-0.97 -2.51,-0.31 -0.82,0.33 -0.88,0.64 -0.52,1.53zm-5.67 -13.3l12.31 -4.19 0.62 3.91 -2.25 0.55 0.22 1.37 2.31 -0.13 0.63 3.95 -12.97 0.06 -0.87 -5.52zm8.46 0.73c-1.4,0.42 -3.14,0.9 -5.22,1.42 2.48,0 4.29,-0.04 5.43,-0.12l-0.21 -1.31zm-9.06 -12.14l2.56 -0.04 0.04 2.29 10.25 -0.18 0.07 3.86 -10.25 0.18 0.04 2.29 -2.56 0.04 -0.15 -8.44zm0.13 -2.37c0.19,-1.79 0.5,-5.2 0.85,-6.39 0.19,-0.63 0.55,-1.12 1.09,-1.47 0.54,-0.35 1.35,-0.47 2.44,-0.36 0.99,0.1 1.64,0.32 1.95,0.64 0.31,0.32 0.46,0.9 0.44,1.75 0.24,-0.74 0.52,-1.23 0.82,-1.47 0.3,-0.23 0.57,-0.37 0.8,-0.41 0.54,-0.09 4.38,0.36 5.26,0.45l-0.37 3.57 -4.24 -0.44c-0.68,-0.07 -1.11,-0.05 -1.29,0.06 -0.17,0.11 -0.29,0.43 -0.35,0.95l5.75 0.6 -0.4 3.85 -12.75 -1.34zm2.58 -3.62l2.84 0.3c0.13,-1.28 -0.2,-1.2 -1.73,-1.36 -0.81,-0.09 -1.02,0.2 -1.11,1.07zm1.3 -15.71l12.84 2.08 -1.29 3.74 -2.24 -0.57 -0.45 1.31 2.1 0.97 -1.3 3.78 -11.48 -6.03 1.82 -5.29zm7.13 4.62c-1.44,-0.29 -3.2,-0.69 -5.28,-1.19 2.19,1.17 3.8,1.98 4.85,2.44l0.43 -1.25zm-8.58 -6.26c0.41,0.44 0.65,0.89 0.72,1.34 0.14,0.98 -0.14,1.58 -0.76,2.37 -0.3,0.39 -0.85,1.06 -0.97,1.41 -0.15,0.43 -0.02,0.87 0.38,1.32l-1.26 1.1c-1.18,-1.53 -0.99,-2.62 -0,-3.93 0.28,-0.38 0.79,-1.03 0.89,-1.32 0.17,-0.48 0.05,-0.88 -0.35,-1.19l1.34 -1.1zm14.12 -7.2c1.14,0.6 1.93,1.06 2.37,1.37 0.97,0.69 1.34,1.86 1.19,3.08 -0.23,1.78 -1.69,4.29 -3.63,4.72 -0.58,0.13 -1.12,0.1 -1.62,-0.08 -1.08,-0.39 -5.85,-2.93 -6.8,-3.61 -0.97,-0.69 -1.34,-1.86 -1.18,-3.08 0.23,-1.79 1.69,-4.29 3.63,-4.72 0.58,-0.13 1.12,-0.1 1.62,0.08 0.96,0.35 3.2,1.58 4.44,2.23zm-5.53 1.43c-0.53,-0.28 -0.88,-0.43 -1.07,-0.44 -0.36,-0.02 -0.62,0.46 -0.48,0.8 0.07,0.16 0.39,0.39 0.98,0.7l5.28 2.81c0.66,0.35 1.08,0.53 1.27,0.55 0.38,0.04 0.72,-0.58 0.43,-0.9 -0.15,-0.16 -0.55,-0.42 -1.22,-0.77l-5.2 -2.77zm11.76 -20.5l9.22 8.91 -2.35 2.43 -6.22 -6.01 5.29 6.98 -1.67 1.72 -7.07 -4.85 6.08 5.87 -2.35 2.43 -9.22 -8.9 3.48 -3.6c1.45,0.95 3.48,2.39 5,3.44l-3.69 -4.79 3.5 -3.63zm8.93 -6.32l9 9.39 -3.28 2.21 -1.45 -1.8 -1.15 0.78 1.1 2.04 -3.32 2.24 -5.54 -11.73 4.63 -3.13zm2.91 7.98c-0.98,-1.09 -2.14,-2.47 -3.5,-4.13 1.05,2.25 1.84,3.87 2.4,4.87l1.1 -0.74zm9.58 -14.17l5.01 11.8 -3.12 1.32 -4.13 -4.58 2.28 5.36 -2.97 1.26 -5.01 -11.8 2.97 -1.26 4.25 4.47 -2.26 -5.31 2.97 -1.26zm3.87 -1.44c1.81,-0.39 5.3,-1.19 6.58,-1.17 1.12,0.01 2.07,0.42 2.49,1.37 0.17,0.39 0.38,1.17 0.63,2.36l0.93 4.39c0.42,2 0.67,3.23 -1.19,4.01 -0.43,0.18 -1.1,0.37 -2,0.56l-4.77 1.01 -2.67 -12.54zm4.24 1.34l1.75 8.25c0.54,-0.12 0.86,-0.28 0.95,-0.49 0.09,-0.22 0.04,-0.74 -0.14,-1.58l-1.04 -4.87c-0.27,-1.28 -0.3,-1.57 -1.52,-1.3zm17.19 3.45c0.02,1.29 0,2.2 -0.06,2.74 -0.13,1.18 -0.98,2.07 -2.12,2.53 -1.67,0.66 -4.57,0.6 -5.89,-0.89 -0.39,-0.44 -0.63,-0.93 -0.72,-1.45 -0.18,-1.14 -0.27,-6.54 -0.14,-7.7 0.13,-1.18 0.98,-2.07 2.12,-2.53 1.68,-0.66 4.57,-0.6 5.89,0.89 0.39,0.44 0.63,0.93 0.71,1.45 0.16,1.01 0.17,3.56 0.2,4.96zm-3.94 -4.14c-0.01,-0.6 -0.05,-0.98 -0.14,-1.14 -0.16,-0.32 -0.71,-0.32 -0.93,-0.03 -0.11,0.13 -0.15,0.53 -0.14,1.19l0.1 5.98c0.01,0.75 0.06,1.2 0.13,1.38 0.15,0.35 0.85,0.36 1,-0.06 0.07,-0.2 0.1,-0.68 0.08,-1.44l-0.1 -5.89zm15.75 -2.26l-1.04 8.5c-0.12,0.96 -0.24,1.64 -0.36,2.02 -0.12,0.38 -0.39,0.76 -0.79,1.12 -0.95,0.85 -2.31,0.99 -3.64,0.83 -1.38,-0.17 -2.98,-0.74 -3.68,-1.83 -0.28,-0.45 -0.43,-0.89 -0.43,-1.35 -0.01,-0.46 0.08,-1.4 0.26,-2.84l0.92 -7.53 3.83 0.47 -1.17 9.54c-0.07,0.56 -0.08,0.92 -0.03,1.08 0.11,0.35 0.72,0.4 0.9,0.09 0.09,-0.16 0.17,-0.56 0.25,-1.19l1.15 -9.38 3.84 0.47zm13.9 4.53l-2.53 12.76 -3.69 -1.42 0.65 -2.22 -1.3 -0.5 -1.04 2.07 -3.74 -1.43 6.43 -11.26 5.22 2zm-4.86 6.96c0.34,-1.43 0.8,-3.17 1.38,-5.23 -1.24,2.15 -2.11,3.73 -2.61,4.76l1.23 0.47zm17.76 6.2l-3.2 -2.16c0.35,-0.52 1.25,-1.8 1.33,-2.17 0.08,-0.38 -0.47,-0.78 -0.82,-0.6 -0.16,0.08 -0.42,0.4 -0.79,0.94l-3.44 5.1c-0.32,0.48 -0.5,0.82 -0.53,1.02 -0.06,0.42 0.53,0.81 0.92,0.58 0.42,-0.24 1.29,-1.64 1.65,-2.17l-0.65 -0.44 1.09 -1.62 3.75 2.53 -3.85 5.7 -2.02 -1.36 0.22 -0.96c-2.16,0.89 -4.38,-1.44 -4.45,-3.28 -0.02,-0.5 0.06,-0.95 0.25,-1.36 0.19,-0.41 0.53,-0.98 1.02,-1.71l2.13 -3.16c0.68,-1.01 1.24,-1.71 1.68,-2.08 0.44,-0.38 1.09,-0.55 1.95,-0.53 1.75,0.05 3.93,1.57 4.72,3.07 0.4,0.75 0.53,1.42 0.41,2 -0.18,0.85 -0.73,1.69 -1.37,2.64zm5.08 -1.52l4.71 4.4 -1.75 1.88 -1.89 -1.76 -1.66 1.78 1.76 1.65 -1.66 1.78 -1.76 -1.64 -1.92 2.06 2.07 1.93 -1.75 1.88 -4.9 -4.57 8.74 -9.38zm12.33 14.27l-10.37 7.53 -1.99 -2.74 3.53 -5.05 -4.71 3.42 -1.9 -2.61 10.37 -7.53 1.9 2.61 -3.4 5.15 4.67 -3.39 1.9 2.61zm5.27 10.16l-2.29 1.16 -1.04 -2.04 -9.14 4.66 -1.75 -3.44 9.14 -4.66 -1.04 -2.04 2.29 -1.16 3.83 7.52zm0.78 2.32l2.2 6.06 -2.41 0.88 -0.88 -2.42 -2.28 0.83 0.83 2.27 -2.29 0.83 -0.83 -2.27 -2.65 0.96 0.97 2.66 -2.41 0.88 -2.29 -6.3 12.05 -4.38zm4.44 21.77l-2.55 0.22 -0.2 -2.28 -10.21 0.89 -0.34 -3.85 10.21 -0.89 -0.2 -2.28 2.56 -0.22 0.74 8.41zm-8.11 11.14c-1.29,-0.09 -2.19,-0.19 -2.72,-0.29 -1.17,-0.24 -1.98,-1.15 -2.33,-2.33 -0.52,-1.72 -0.2,-4.6 1.4,-5.79 0.47,-0.35 0.98,-0.55 1.51,-0.59 1.15,-0.08 6.54,0.3 7.68,0.53 1.16,0.24 1.98,1.15 2.33,2.33 0.52,1.73 0.2,4.6 -1.4,5.79 -0.47,0.35 -0.98,0.55 -1.51,0.58 -1.02,0.07 -3.57,-0.14 -4.96,-0.24zm4.47 -3.56c0.6,0.04 0.98,0.03 1.15,-0.04 0.33,-0.13 0.38,-0.68 0.11,-0.93 -0.12,-0.12 -0.52,-0.2 -1.18,-0.25l-5.97 -0.42c-0.74,-0.05 -1.21,-0.05 -1.38,0.01 -0.37,0.12 -0.42,0.82 -0.03,1 0.2,0.09 0.67,0.16 1.42,0.21l5.87 0.41zm-5.3 15.4l1.07 -3.71 2.15 0.62c0.62,0.18 1.03,0.25 1.2,0.21 0.37,-0.07 0.6,-0.85 0.27,-1.12 -0.17,-0.14 -0.56,-0.29 -1.18,-0.47l-5.72 -1.64c-0.6,-0.17 -1,-0.24 -1.21,-0.21 -0.42,0.06 -0.64,0.82 -0.32,1.1 0.34,0.29 2.15,0.76 2.79,0.94l-1.07 3.71c-1.3,-0.37 -2.44,-0.73 -3.1,-1.23 -0.47,-0.36 -0.81,-0.96 -1,-1.79 -0.4,-1.69 0.35,-4.14 1.44,-5.36 0.54,-0.61 1.15,-0.94 1.81,-1 0.67,-0.06 1.61,0.09 2.81,0.44l3.6 1.03c0.89,0.25 1.54,0.48 1.97,0.68 1,0.47 1.56,1.57 1.66,2.73 0.13,1.58 -0.56,3.7 -1.59,4.79 -0.57,0.61 -1.16,0.94 -1.77,1.01 -1.04,0.12 -2.54,-0.37 -3.81,-0.73zm1.49 10.5l-12.61 -3.19 1.61 -3.62 2.18 0.76 0.57 -1.27 -2.01 -1.15 1.63 -3.66 10.91 7.01 -2.27 5.11zm-6.7 -5.22c1.41,0.41 3.13,0.96 5.15,1.65 -2.08,-1.36 -3.62,-2.31 -4.62,-2.86l-0.54 1.21zm-2.16 18.38l-11.57 -5.95 2.38 -3.16 1.96 1.23 0.84 -1.11 -1.7 -1.57 2.41 -3.2 9.05 9.28 -3.36 4.46zm-5.35 -6.59c1.28,0.72 2.83,1.64 4.65,2.77 -1.72,-1.79 -3.01,-3.06 -3.85,-3.82l-0.8 1.06zm-7.84 18.54l-8.07 -9.96 2.63 -2.13 5.23 3.26 -3.67 -4.53 2.51 -2.03 8.07 9.96 -2.51 2.03 -5.32 -3.12 3.63 4.49 -2.51 2.03zm-14.96 -0.3c-0.59,-1.15 -0.97,-1.98 -1.15,-2.48 -0.4,-1.12 -0.03,-2.3 0.8,-3.2 1.21,-1.33 3.84,-2.54 5.68,-1.79 0.55,0.22 0.97,0.56 1.28,0.99 0.66,0.94 3.11,5.76 3.5,6.86 0.4,1.12 0.03,2.3 -0.8,3.2 -1.22,1.33 -3.84,2.54 -5.68,1.79 -0.55,-0.22 -0.97,-0.56 -1.28,-0.99 -0.59,-0.84 -1.72,-3.13 -2.35,-4.37zm5.35 2c0.27,0.53 0.48,0.85 0.62,0.97 0.28,0.22 0.78,-0.02 0.85,-0.38 0.04,-0.17 -0.1,-0.55 -0.4,-1.14l-2.72 -5.33c-0.34,-0.66 -0.58,-1.06 -0.72,-1.18 -0.29,-0.25 -0.92,0.06 -0.87,0.49 0.03,0.21 0.21,0.65 0.55,1.33l2.67 5.25zm-8.7 6.92l-4.17 -12.12 3.66 -1.26 4.17 12.12 -3.66 1.26zm-10.35 2.73l-0.58 -2.5 2.24 -0.52 -2.31 -9.99 3.77 -0.87 2.31 9.99 2.23 -0.51 0.58 2.5 -8.23 1.9zm-2.64 0.04l-6.42 0.56 -0.22 -2.56 2.57 -0.22 -0.21 -2.42 -2.4 0.21 -0.21 -2.43 2.4 -0.21 -0.25 -2.81 -2.83 0.25 -0.22 -2.56 6.68 -0.58 1.12 12.77zm-22.44 -1.24l0.49 -2.52 2.25 0.44 1.96 -10.07 3.79 0.74 -1.96 10.07 2.25 0.44 -0.49 2.52 -8.29 -1.61zm-8.63 -10.54c0.44,-1.21 0.78,-2.06 1.03,-2.54 0.55,-1.05 1.66,-1.59 2.88,-1.6 1.8,-0.02 4.48,1.08 5.18,2.94 0.21,0.55 0.26,1.09 0.15,1.61 -0.24,1.12 -2.09,6.2 -2.63,7.24 -0.55,1.05 -1.65,1.59 -2.88,1.6 -1.8,0.02 -4.48,-1.08 -5.18,-2.94 -0.21,-0.55 -0.26,-1.09 -0.14,-1.61 0.21,-1 1.12,-3.39 1.6,-4.7zm2.19 5.28c-0.2,0.56 -0.3,0.93 -0.28,1.12 0.03,0.36 0.55,0.55 0.86,0.36 0.15,-0.09 0.34,-0.44 0.56,-1.06l2.05 -5.62c0.25,-0.7 0.38,-1.15 0.37,-1.33 -0.01,-0.39 -0.67,-0.64 -0.95,-0.31 -0.14,0.17 -0.34,0.6 -0.59,1.31l-2.01 5.53zm-8.27 0.2c-1.59,-0.95 -4.68,-2.74 -5.61,-3.63 -0.81,-0.77 -1.22,-1.72 -0.88,-2.7 0.14,-0.4 0.52,-1.12 1.15,-2.16l2.31 -3.85c1.05,-1.75 1.72,-2.82 3.61,-2.12 0.44,0.16 1.05,0.48 1.84,0.96l4.18 2.51 -6.6 10.99zm-2.19 -3.87l4.34 -7.23c-0.48,-0.29 -0.82,-0.38 -1.03,-0.28 -0.21,0.1 -0.53,0.52 -0.97,1.25l-2.57 4.27c-0.67,1.12 -0.85,1.35 0.22,1.99zm-13.74 -7.12l6.74 -11.13 2.99 2.6 -1.37 1.86 1.05 0.91 1.69 -1.59 3.02 2.63 -9.89 8.38 -4.22 -3.67zm6.95 -4.88c-0.8,1.22 -1.83,2.71 -3.08,4.45 1.9,-1.59 3.26,-2.79 4.08,-3.58l-1 -0.87zm-4.44 -7.07l1.91 -1.78 1.91 2.05 -1.91 1.78 -1.91 -2.05zm42.84 -90.87c28.9,0 52.34,23.44 52.34,52.34 0,28.9 -23.44,52.34 -52.34,52.34 -28.9,0 -52.34,-23.44 -52.34,-52.34 0,-28.9 23.44,-52.34 52.34,-52.34zm0 6.01c25.58,0 46.33,20.75 46.33,46.33 0,25.58 -20.75,46.33 -46.33,46.33 -25.58,0 -46.33,-20.75 -46.33,-46.33 0,-25.58 20.75,-46.33 46.33,-46.33zm-29.29 60.07c-0.41,1.54 -2.21,1.38 -2.21,4.9l0.32 0.32c0,-1.44 0.45,-3.37 1.68,-3.49l0.22 0.02 0.32 0 0 0.95c0,0.35 -0.12,0.35 -0.3,0.63l0.14 1.11c-0.82,-0.38 -0.95,1.3 -0.95,2.21 0.6,0.16 0.93,0.32 0.99,1.02l1.22 0.56 0.04 0.75 2.49 -0.91 0 -0.63c-0.24,0.27 -0.34,0.63 -0.79,0.63 -0.62,0 -2.68,-4.93 -2.68,-5.84l0 -1.11c1.42,0.12 2.43,2.09 3,3.16l0.51 0.19 0.6 -0.67c-0.54,-0.81 -1.71,-2.2 -1.74,-3.48 1.82,0 3.28,1.9 3.79,1.9l0.63 0 0 1.11c0,0.83 0.79,1.37 0.79,2.37 0,0.66 -0.67,1.13 -1.26,1.26l-0.71 -2.09 -0.55 0.03 -1.58 1.42 -0.19 0.62 1.11 0.04 0.98 1.08 0.79 0 3.47 -1.42c0.98,-0.86 2.68,-0.9 2.68,-2.84l0 -1.11c0,-1.2 -2.05,-2.71 -2.05,-3.32 0,-1.21 2.81,-2.78 3.77,-3.48 3.4,-1.99 6.72,-4.21 9.95,-6.68l0.17 -0.62 -0.94 -0.04c-2.08,1.66 -4.51,4.15 -7.89,5.6 -0.54,0 -1.89,-2.64 -1.89,-3.16 0,-0.59 -0.01,-0.42 0.32,-0.63l1.74 -0.95 2.37 -1.42 1.42 -0.63c0.34,-0.3 5.5,-2.69 6,-2.69l0.16 0c0.42,0 0.47,0.23 0.63,0.47l0.63 0.32 1.42 -0.32 3 -0.79 0.95 -1.42 0.16 -0.47 1.89 -1.42 1.58 -0.47 5.05 -1.74 1.74 -0.32 -0 -0.33 -1.57 0.21 -0.04 -0.21 3.67 -0.77 0 -0.32 -1.26 0 -1.89 0.32 -1.11 0.47 -5.21 1.74 -2.19 0.56 -0.12 -0.16 0.59 -0.56 -0.18 -0.63 -3.32 0.16 0 -0.63 -0.18 -0.31 -0.77 -0.01c-0.76,0 -0.95,0.46 -1.58,0.63l-0.63 1.26c0,1.92 -0.21,2.96 -1.74,3.32l-1.74 0.95 -4.74 2.37 -7.58 3.95c-0.21,0.29 -0.96,0.79 -1.42,0.79 -0.54,0 -0.59,-0.59 -0.63,-1.11l-0.32 -1.11 -0.47 -1.74 -0.32 -0.63c-1.09,-1.57 -1.53,-1.93 -1.74,-4.42l-0.32 -2.21 -0.16 -1.42 -0.95 -8.06 0 -0.95c0.86,0.09 0.65,1.3 3.78,0.94 1.24,-0.15 3.32,-0.04 4.43,-0.3 0.4,-0.26 2.46,-0.44 3.76,-1.29 0.72,-0.47 2.31,-2.02 3.03,-2.02l1.23 0.01 0.19 0.46 0 0.47 0.47 0.63 -0.32 1.11c-0.07,0.04 -5.5,1.42 -5.53,1.42 -0.47,0 -0.42,-0.32 -1.11,-0.32 -0.68,0 -0.49,0.25 -1.26,0.32 -2.84,2.47 -1.41,2.07 -2.84,5.05l-0.47 1.9c0,2.42 0.08,3.17 0.65,5.03 0.22,0.72 0.43,1.36 0.83,2.01 0.39,0.64 1.2,1.08 1.2,1.48 0,0.03 -0.37,0.49 -0.47,0.95l0 0.32 1.4 0.54c0.6,-1.16 3.45,-2.79 4.92,-2.91l2.05 -1.26 1.42 -1.42 0 -0.79 -0.32 -0.47c-0.66,-0.17 -1.46,-0.77 -0.95,-1.58l0.63 -1.74 0.32 -0.47 1.42 -1.58 3.63 -3.95 0.95 -0.63 0.17 -0.31 1.72 -0.64 0 -0.63c0,-0.55 -0.27,-0.29 -0.63,-0.79l-0.32 0 -0.63 -0.16 -2.05 -0.19c-0.14,0.02 -1.13,0.64 -1.47,0.78 -0.57,0.23 -0.93,0.36 -1.69,0.36 -0.38,0 -0.46,-0.26 -0.79,-0.47l0.32 -1.26 5.37 -0.95 3 -1.26 0.63 -1.11c0,-3.99 -3.31,-1.52 -4.89,-2.53l-0.47 0 -0.47 -0.32 -1.42 -0.32 -1.89 0.16 -1.58 0.32 -7.1 1.89 -6.13 1.68c-0.36,0.1 -3.61,0.91 -3.82,1 -0.46,0.32 -1.12,0.47 -1.89,0.47l-0.63 0c-0.38,0 -0.58,-0.29 -0.79,-0.47l-0.47 -0.16 -0.32 0 -0.63 0.47c-0.06,0.78 -0.32,0.58 -0.32,1.26l0 0.63c0,3.59 2.11,7.64 3,11.21l1.58 4.9 0.32 1.26 0.61 3.18 0.3 0.46 0.2 1.73 0.64 1.79 0.35 -0.03 0.29 -2.41 0.42 0.34 0.14 1.74 0.15 0.13 -4.52 3.18 -1.74 1.42c-1.29,1.12 -6.79,5.31 -6.79,6.95 0,0.57 0.32,0.46 0.63,0.32 0.77,-1.16 4.06,-5.09 5.53,-5.21zm22.58 30.17l1.74 -0.79 5.53 -3.79 1.42 -0.47 2.53 -1.11 1.42 -1.11 2.21 -1.42 1.1 -0.34 0.16 -0.77 0.16 -0.32 0.16 -0.47 -0.32 -0.79c-0.37,-0.25 -1.58,-1.38 -1.58,-1.9l0 -0.63c0,-0.43 0.07,-0.44 0.16,-0.79 0.8,0.02 1.07,0.34 1.26,0.95 0.38,1.19 0.35,0.61 1.26,1.1 0.59,0.32 1.85,2.06 2.68,2.06l0.47 0c0.43,0 0.44,-0.08 0.79,-0.16l0.47 -1.74 -1.74 -2.21 -1.26 -1.11c-0.58,-0.15 -2.4,-1.6 -2.8,-2.09 -0.62,-0.74 -1.01,-2.5 -1.46,-3.44 -0.98,-0.26 -1.34,-1.8 -1.26,-2.69l-0.32 0 0 0.32c-0.92,-0.25 -1.17,-1.29 -1.58,-2.05l-0.32 -0.63 -0.31 -0.18 -0.09 0.36 -0.23 -0.5 -0.32 -0.47 -0.6 -0.36 -0.03 -0.43 -0.31 -0.18 0.17 -0.6 -0.62 0.36 -0.03 -0.68 -0.63 -0.95 -0.63 -0.47 -0.47 -0.47 -0.65 -0.93 -0.61 -0.01 -0.63 -0.47 -1.42 -1.26 -0.35 -0.28 -0.59 0.15 -0.01 -0.65 -0.16 -0.16 -0.47 0 0.15 0.48c-0.9,-0 -1.07,0.22 -1.25,-0.48l-1.42 0.2 0.47 -1.62 -0.95 0.32 -1.58 0.79 -1.89 1.26 -0.32 0.32 -0.79 1.11c0.04,1.75 1.23,1.32 1.26,2.69l0.51 0.01 -0.19 0.78c0.64,0.96 2.19,0.72 3.47,1.58l0 0.63 1.89 1.26 0.69 0.55 0.89 0.39 1.42 1.42c1.8,1.2 3.71,6.16 5.05,6.16l0.47 0c0.69,0 0.95,-0.47 1.74,-0.47 0.19,0 0.47,0.33 0.47,0.63 0,0.87 -0.99,1.34 -1.58,1.74l-0.47 0.32 -0.79 0.79 -1.26 1.26 -0.47 0.32 -3.47 3.63 -0.47 0.63 -0.63 0.79 -1.42 1.58 -0.48 0.31 -0.31 2.53c-0.4,0.75 -2.26,2.31 -1.74,3 0.13,0.09 0.39,0.32 0.47,0.32 0.48,0 0.54,-0.27 0.63,-0.63zm-13.1 -32.22l-1.42 -0.32 -1.42 -0.19 -1.27 0.04c-1.72,0 -2.31,1.48 -4.1,1.89l-0.47 0 -0.11 -0.16 5.8 -4.11 1.26 -0.63 2.68 0 0.95 -0.32 1.65 -1.09 0.24 0.62 0.63 1.74c-1.61,1.34 -2.34,2.32 -4.42,2.53zm32.52 -1.11l0 0.64 2.37 -0.17 1.89 -0.16 1.89 -0.47 0.47 -0.16 1.58 -0.47 2.53 -1.42 0.95 -0.79 0.63 -0.63 0.95 -1.58 0.32 -0.79 0.16 -1.42c0,-1.96 -0.02,-1.26 -1.58,-1.26 0.07,-0.82 1.17,-0.96 1.74,-1.26l0.19 -0.94 -0.51 -0.64 -2.21 -0.16c-0.74,-0.07 -2.25,0.32 -3.47,0.32l-5.53 0.63 -1.89 0.32 -5.05 0 -0.63 -0.16 -2.53 0 -0.63 0.32 -0.47 -0 -1.58 0.32 -0.32 -0.16 -0.16 0.16 -0.32 0.63 -3 1.26 -0.79 0.32c-1.18,1.02 -1.89,0.27 -1.89,2.69l0.32 0.47c0.21,0.14 0.85,0.65 1.1,0.62l0.95 0.01 0.58 -0.3 0.37 0.77 0.47 -0.16 -0.01 -0.65 1.59 -0.61 0.79 -0.16 1.42 -0.16 1.26 -0.16c-0.34,0.32 -0.65,0.22 0,0.47l0.63 -0.32 3.95 -0.63 4.8 0.2 0.25 -0.52 0.47 0c0.13,0.49 0.31,0.63 0.95,0.63l3.9 0.1 -0.74 0.69 -1.74 0.79 -4.58 2.53 -0.79 0.32 -0.63 0.47 0.16 0.32 0.47 0.16 0.95 0.16zm-27.31 -40.75l-0.53 1.09 0.84 -0.15 0.16 0.64c0.49,0.13 0.47,0.03 0.47,0.79 0,0.24 -0.65,1.15 -0.78,1.76l0.63 -0.18 0 0.32c1.03,0 0.7,-0.02 0.95,0.32l0.95 0 1.26 -3 0.95 -1.42 0.16 -0.32 0.47 0c0.11,0.19 0.16,0.17 0.16,0.47l-0 0.94 0.95 -0.15c0.02,0.92 0.73,0.94 1.42,1.11l0.32 0.16 0.95 0.16 0.79 0.32 0.47 0 3 0.16 0.95 0.47 0.47 0.95 0.63 1.58 0.95 0.16 0.32 -0.63 0.47 0c0.3,0 1.27,0.89 1.42,1.11l1.1 2.21 0.95 1.11c0.31,0.16 0.47,0.32 0.95,0.32l0.16 0c1.12,0 1.99,-1.36 2.37,-2.21 0.92,-2.03 0.24,-1.33 2.21,-2.37l1.1 -1.11c0.2,-0.3 0.82,-1.11 1.26,-1.11l0.32 0c0.72,0 0.36,3.13 0.94,4.27 0.27,0.52 2.24,2.84 2.53,2.84 0.44,0 0.38,-0.12 0.47,-0.47l0.47 0 0.01 0.35 0.46 -0.19 0 -2.38 -0.48 -0.15 0 -0.32 0.32 0c0,-1.47 -0,-2.71 -0.15,-3.96 -0.2,-1.69 0.21,-2.67 0.3,-3.78l0 -0.79c-0.64,-0.05 -1.26,-0.79 -1.26,-1.26l0 -1.11c0,-0.59 0.63,-0.95 1.26,-0.95 1.39,0 1.16,3.13 1.26,4.42l0.32 1.58 0.16 0.95 0.64 0.79 0.47 -1.58c0.68,0.18 0.47,0.23 0.47,1.11l0.32 2.37 0.79 -0.32 0.32 -0.32c0.46,-0.88 0.63,-1.5 0.63,-2.84l0.02 -0.79 -0.18 -3.79c-1.6,-0.85 -1.38,-1.69 -2.17,-2.72 -0.07,-0.1 -2.64,-1.79 -2.93,-1.96 -0.93,-0.53 -2.36,-0.87 -3.41,-1.48 -1,-0.58 -1.9,-1.42 -3.48,-1.42l0.94 0.81c0.84,-0.02 1.21,-0.02 1.27,0.77l-2.37 -0.95 0 0.32 0.51 0.65 -4.92 0.85c-0.66,0.03 -1.2,-0.67 -1.43,-1.02l-1.1 -0.63 -3.32 -0.79c-0.35,-0.08 -0.36,-0.16 -0.79,-0.16l-1.26 0c-3.45,0 -5,2.23 -7.44,3.52l2.65 -2.26 -0.82 -0.47c-2.88,1.53 -2.68,3.05 -4.49,4.26l-0.47 0.47 -4.26 5.05zm11.68 -7.26c0.24,-0.9 2.13,-1.42 3.32,-1.42l1.11 0c0.43,0 0.43,0.07 0.79,0.16l0 0.47c-0.78,0.18 -3.21,0.79 -3.95,0.79l-1.26 0zm-5.53 6.48c0.72,0.06 0.63,0.01 0.63,1.26 -0.51,-0.18 -0.61,-0.59 -0.63,-1.26z"/>
 </g>
</svg>
