<?xml version="1.0" encoding="UTF-8"?>
<!DOCTYPE svg PUBLIC "-//W3C//DTD SVG 1.1//EN" "http://www.w3.org/Graphics/SVG/1.1/DTD/svg11.dtd">
<!-- Creator: CorelDRAW -->
<svg xmlns="http://www.w3.org/2000/svg" xml:space="preserve" width="25.4mm" height="19.05mm" version="1.1" style="shape-rendering:geometricPrecision; text-rendering:geometricPrecision; image-rendering:optimizeQuality; fill-rule:evenodd; clip-rule:evenodd"
viewBox="0 0 49.71 37.28"
 xmlns:xlink="http://www.w3.org/1999/xlink"
 xmlns:xodm="http://www.corel.com/coreldraw/odm/2003">
 <defs>
  <style type="text/css">
   <![CDATA[
    .fil0 {fill:black}
    .fil3 {fill:aqua}
    .fil1 {fill:#FF3399}
    .fil2 {fill:white}
   ]]>
  </style>
 </defs>
 <g id="Camada_x0020_1">
  <metadata id="CorelCorpID_0Corel-Layer"/>
  <g id="_2485663413536">
   <path class="fil0" d="M47.15 0.01c1.43,0 2.64,-0.23 2.56,1.6 -0.07,1.66 -0.66,0.87 -0.38,1.73 0,2 0.14,0.52 -0.17,2.5 -0.13,0.81 0.55,2.5 -0.58,3.22 -0.64,0.4 -3.03,0.09 -3.67,0.11 -0.3,0.01 -0.65,0.16 -1.04,0.17 -1.35,0.07 -2.92,0.32 -3.01,-0.76l-0.28 0c-0.2,0.76 -1.93,1.36 -3.07,0.91 -0.79,-0.32 -0.26,0.14 -2.39,0.14 0.72,1.09 0.44,0.63 1.66,0.89 0.65,0.14 0.69,0.58 0.69,1.33l-1.98 3.4 0.19 0 -0.19 0.29c1.07,0 4.66,-0.5 5.53,-0.36 0.65,0.11 0.8,0.53 1.24,0.65 0.27,-1.19 2.14,-0.77 3.49,-0.76 1.54,0.01 2.51,-0.66 3.76,0.19 0,1.52 -0.19,2.83 -0.19,4.29 -0.22,0.32 -0.21,0.42 -0.09,0.67 0.02,0.07 0.22,1.96 0,2.19 -1.09,1.13 -3.38,0.59 -4.07,0.73 -1.69,0.34 -1.99,-0.34 -2.49,0.82l-1.58 3.16c-0.78,2.28 0.14,1.32 -0.73,2.5 -0.43,0.58 -1.09,0.68 -1.76,0.48 -0.89,-0.26 -0.36,0.55 -1.89,0.41 -0.58,-0.05 -0.21,-0.08 -0.66,-0.2 -0.26,0.4 -0.55,0.58 -1.22,0.57 -1.13,-0.01 -0.66,0.09 -1.3,0.59 -0.54,0.42 -1.47,0.48 -1.96,-0.15 -0.17,-0.22 -0.2,-0.39 -0.32,-0.63 -0.36,0.1 -0.41,0.31 -0.68,0.55 -1.01,0.88 -1.72,0.35 -1.88,0.34 -0.35,-0.04 -2.45,1.93 -3.25,-0.23 -0.12,-0.33 -0.09,-0.79 -0.21,-1.12 -1.55,1.6 -3.48,3.67 -5.19,5.03 -0.73,0.58 -0.25,0.76 -0.9,1.38 -0.74,0.71 -0.9,0.05 -1.66,0.41 -1.82,0.85 -2.28,-0.56 -2.23,-1.01 0.05,-0.22 0.08,-0.19 0.06,-0.44 -0.44,0.32 -1.01,0.76 -1.66,0.06l0.37 -1.44c0.17,-0.27 0.04,-0.9 -0.56,-0.95 -0.02,0.29 0,0.18 -0.09,0.38 -0.01,0.03 0.12,2.91 -0.74,2.85l-5.04 -0.62c-0.37,-0.05 -0.7,-0.02 -1.07,-0.06 -3.42,-0.44 -2.36,0.18 -3.88,0.22 -1.6,0.04 -1.77,-0.22 -2.23,-1.18l-0.41 -0.82c0,-4 4.13,-7.01 7.07,-9.05 0.23,-2.58 0.38,-2.28 -0.31,-2.64 -1.03,-0.55 -1,-0.54 -1.53,-1.6 -1.04,-2.08 -1.31,-4.33 -2.56,-5.89l-1.72 -2.54c0.02,-0.26 0.01,-0.21 0.09,-0.38l0.27 0.2c-0.02,-0.39 -0.04,-0.42 -0.27,-0.59 0.02,-0.24 0.11,-0.69 0.19,-0.86 0.7,0.17 0.83,0.09 1.25,0.64 0.5,0.63 0.54,1.11 1.1,0.79l-0.28 -0.38 0.28 -0.29c0.69,0.19 0.85,1.14 0.93,1.92 0.14,1.41 0.37,2.06 0.39,2.37 0.37,-0.03 0.3,-0.02 0.42,-0.34l0.65 -1.63 0.72 -2.23c0.26,-0.57 -0.78,-1.23 -1.04,-1.25 -0.5,-0.03 -0.91,0.45 -1.5,0.39 -0.51,-0.05 -0.8,-0.94 -1.36,-1.11 -0.36,-0.1 -0.31,0.1 -0.48,-0.18 -0.11,-0.18 0.01,-0.84 -0.09,-1.14 -0.21,-0.44 -1.06,-1.23 -0.67,-2.58 0.1,-0.33 0.59,-0.85 0.84,-1.06 3.92,-3.35 6.44,2.36 6.14,3.26l-0.33 0.9c0.27,0.07 0.63,0.43 1.09,0.71 0.9,0.55 2.57,1.16 2.68,2.43 -0.1,0.55 -0.39,0.76 0.35,1.65 0.91,1.1 0.59,1.3 0.59,3.11l8.47 -0.48c0,-1.15 0.79,-2.82 1.19,-4.03l0.42 -1.78c-0.02,-0.7 -0.86,-0.26 -2.18,-0.28 -0.62,-0.01 -0.64,-0.17 -0.94,-0.18 -0.3,-0 -1.28,0.73 -2.55,0.18 -0.34,-0.14 -0.41,-0.31 -0.74,-0.39 -0.01,-0 -2.28,1.53 -3.75,0.08 -1.05,-1.05 -0.92,-2.31 -0.77,-4.17 0.15,-1.9 0.45,-3.85 2.33,-4.5 1.69,-0.58 2.29,0.19 2.74,0.3 1.51,-1.02 1.74,-0.56 2.73,-0.48l5.83 -0.28c0.41,-0.02 0.35,-0.08 0.76,-0.1 0.98,-0.06 0.52,0.37 1.38,0.18 1.49,-0.34 3.69,-0.07 4.95,-0.24 1.04,-0.14 2.4,0.09 3.43,-0.05 1.98,-0.28 0.25,0.38 2.12,-0.15 1.95,-0.55 2.06,0.3 2.99,0.93 0.39,-1.71 2.17,-1.07 3.49,-0.96 0.42,0.04 1.37,-0.19 2.33,-0.28zm-31.71 26.67c-0.47,0 -0.42,-0.09 -0.85,-0.1l-0.2 1.33c1.11,0.72 1.65,0.45 1.81,1.05 -0.29,0.14 -0.25,0 -0.75,0 0.06,0.76 1.11,1.34 1.61,1.71 0.52,0.38 0.33,0.78 -0.35,0.35 -0.36,-0.23 -0.86,-0.62 -1.08,-0.25 -0.18,0.3 0.44,0.4 0.48,1.23 0.01,0.31 -0.03,0.62 0.02,0.93 0.11,0.7 0.34,0.69 -0.01,1.46 -0.16,0.35 -0.17,0.17 -0.2,0.56 0.3,-0.08 0.7,-0.37 0.96,-0.55 0.44,-0.29 0.51,-0.38 0.62,-0.99l1.15 -5.89c0.07,-0.46 0.38,-1.57 0.38,-2 -0.54,0 -1.34,0.37 -1.82,0.54 -0.34,0.13 -1.49,0.6 -1.76,0.6z"/>
   <path class="fil1" d="M31.45 5.94l-6.15 10.32c-0.24,0.43 -0.85,1.76 -1.2,1.85 0,-1 0.23,-3.46 0.33,-4.67 0.01,-2.63 0.48,-3.1 1.37,-5.68 0.14,-0.39 1.13,-2.55 0.27,-2.56 -0.36,-0 -0.93,2.35 -1.11,2.9 -0.07,0.57 -0.1,0.24 -0.21,0.67 -0.4,-0.3 -0.06,-0.42 -0.21,-1.73l-0.45 0.42c-0.13,0.36 -0.07,2.29 -0.03,2.8 0.07,1.13 -0.84,3.43 -1.25,4.71 -0.14,0.49 -0.72,2.53 -0.82,2.81 -0.22,0.39 -0.34,0.21 -0.34,0.68l-0.67 2.41 0.3 0c0.07,-0.86 0.51,-1.22 0.65,-1.91l1.94 -5.57c0.17,0.85 0.1,2.1 0.09,2.71 -0,0.99 -0.19,1.88 -0.33,2.86 0.5,-0.21 0.07,0.6 1.39,-1.54 0.92,-1.51 4.74,-7.92 5.29,-8.18 -0.35,1.64 -1.83,6.07 -1.98,7.62 0.54,-0.58 1.38,-3.97 1.75,-4.98l2.39 -5.88c0.44,-1.04 -0.07,-1.96 -0.72,-0.57 -0.27,0.13 -0.24,0.17 -0.31,0.5zm0.49 3.6c0.28,-0.15 0.23,0.16 0.59,0.71 0.86,-0.06 1.2,-0.61 1.32,-1.33 -0.83,0.16 -0.22,0.68 -1.08,0.76 -0.1,-0.16 -0.23,-0.41 -0.33,-0.57 -0.64,0.01 -0.98,0.26 -1.18,1.1 0.56,-0.06 -0.06,0.24 0.68,-0.67zm-1.13 5.52c-1.03,0.37 0.61,-3.04 1.74,-3.43 0.51,-0.11 0.39,-0.23 0.21,-0.57 -1.75,0 -2.8,3.24 -2.5,4.43 0.71,0.06 0.71,-0.64 1.27,-0.91 0.92,0.63 0.53,-0.45 1.37,-0.61 0,1 -0.31,1.55 0.71,1.43 0.66,-0.32 2.66,-3.27 2.68,-4 -0.59,0.23 -1.84,3.79 -3.06,3.67 0,-2.16 0.19,-0.33 1.29,-1.93 0.18,-0.27 0.36,-0.83 0.42,-1.19 0.11,-0.62 0.03,-1 -0.44,-1.12 -0.08,-0.12 0.02,-0.16 -0.31,0.07l-1.55 2.61c-0.23,0.49 0.03,0.28 -0.41,0.46 0,-0.41 0.02,-0.76 0.19,-1.05l-0.32 -0.39c-0.6,0.41 -0.21,0.33 -0.62,1.25l-0.69 1.28zm2.66 -1.57c0.35,-2.08 1.48,-1.91 0.72,-0.42 -0.15,0.29 -0.3,0.39 -0.72,0.42z"/>
   <path class="fil2" d="M43.4 6.96c0,-0.88 0.15,-1.52 0.19,-2.29l0.19 -2.38 0.28 0 -0.2 3.71c-0.08,0.99 -0.1,0.93 -0.46,0.96zm-19.1 -0.57c0.14,0.22 -0,0.18 0.42,0.24 0.3,0.05 0.29,-0.02 0.32,-0.34 -0.33,0 -0.49,-0.06 -0.74,0.1zm0.46 10.48l-0.38 0c-0.14,0.1 0.22,0.1 -0.28,0.1l0 1.14c0.33,-0.09 0.82,-0.88 0.66,-1.24zm7.16 -8.25c0.29,-0.03 0.77,0.05 0.9,-0.17 0,-0 0.45,-1.39 -0.23,-1.3 -0.41,0.06 -0.67,1.23 -0.67,1.46zm-10.64 12.25c0.26,-0.09 0.24,-0.3 0.41,-0.32 0.3,0.26 0.02,-0.06 0.21,0.65 0.29,1.09 0.13,0.25 0.13,1.29 1.1,0.04 0.78,-0.22 0.86,-1.14 0.03,-0.33 0.1,-0.52 0.02,-0.79 -0.12,-0.44 -0.2,-0.32 -0.41,-0.64 0.75,-0.2 0.8,-2.04 0.18,-2.76 -0.4,0.11 -0.19,0.03 -0.3,0.35l-0.45 1.45c-0.14,0.69 -0.58,1.05 -0.65,1.91zm9.51 -14.86c0.29,-0.1 0.44,-0.49 0.7,-1.01 0.41,-0.8 0.28,-0.47 0.9,-0.9l0.13 -2.27c0.07,-0.57 0.16,-0.49 -1.07,-0.49 -0.52,0 -0.35,0.88 -0.49,2.17 -0.07,0.65 -0.17,1.76 -0.17,2.49zm-9.81 14.86c0.11,-0.2 0.13,-0.36 0.21,-0.57 0.07,-0.2 0.12,-0.33 0.19,-0.57 0.12,-0.44 0.28,-0.7 0.28,-1.26l0 -0.24 0.34 -0.44c0.05,-0.14 0.12,-0.48 0.13,-0.63l-0.24 -0.1 -1.27 -0c-0.3,0.65 -0.27,1.96 -0.28,2.86 -0.01,0.74 -0.39,2.38 -0.07,2.92 0.05,-0.12 0.22,-0.87 0.24,-1.03 0.09,-0.65 0.09,-0.52 0.47,-0.94zm-5.26 -3.43c0,1.48 -0.28,4.13 -0.28,5.43l0 0.67c1.66,0 1.14,0.08 1.22,-1.43 0.02,-0.41 0.07,-0.35 0.1,-0.76 0.02,-0.31 -0.02,-0.65 -0,-0.95l0.12 -1.69c0.08,-0.63 0.46,-2.05 -1.16,-1.26zm-2.54 6.19l1.88 0c0.36,-1.55 -0.1,-1.33 -0.57,-1.33l0.19 -3.81c0.02,-1.15 0.46,-1.05 -1.13,-1.05 0,0.4 -0.06,1.04 -0.11,1.51l-0.17 3.07c0,0.61 -0.1,0.92 -0.1,1.62zm22.97 -7.33c0,1.18 -0.2,1.04 0.05,1.19 0.35,0.2 0.46,-0.17 0.58,0.25 0,0.01 -0.35,4.51 -0.25,4.63 0.17,0.15 -0.25,0.15 0.27,0.11 0.29,-0.02 0.07,0.04 0.22,-0.13 0.13,-0.16 0.13,-0.35 0.29,-0.58 0.34,-0.48 0.53,-0.28 0.54,-1.17 0.01,-0.57 -0.03,-1.03 0.05,-1.57l0.13 -1.58 0.66 0c0,-1.75 0.7,-1.14 -2.54,-1.14zm-11.67 4.57c0,-0.43 0.06,-1.41 0.28,-1.75l0 1.75 -0.28 0zm-0.85 -1.9c-0.02,0.41 -0.14,0.91 -0.19,1.33 -0.06,0.49 -0.14,0.85 -0.22,1.41 -0.1,0.67 0.01,0.67 0.69,0.49 2,-0.51 2.25,0.83 2,-1.54l-0.3 -3.8c-0.46,0.04 -0.35,0.16 -0.58,0.55l-0.81 1.28c-0.39,0.47 -0.21,0.11 -0.58,0.26zm22.5 2.76l0 0.29 2.07 -0.12c0,-1.35 0.43,-1.22 -0.75,-1.22 0,-1.51 -0.15,-1.33 0.75,-1.33 0,-1.22 0.46,-1.24 -0.66,-1.24l0.11 -1.14c0.8,-0 0.83,0.06 0.83,-1.24 -2.4,0 -2,-0.21 -2.07,1.24l-0.28 4.76zm-15.72 1.05c2.27,0 2.17,0.24 2.17,-1.05 0,-0.37 -0.24,-0.29 -0.85,-0.29 0,-1.96 0.15,-1.05 0.7,-1.38 0.27,-0.16 0.14,-0.33 0.14,-1.09 -0.4,-0.09 -0.16,-0.01 -0.66,0l0 -1.14c1.02,0 0.85,-0.19 0.85,-1.33 -3.08,0 -1.85,0.3 -2.1,2.16l-0.26 4.12zm-5.93 -18.95c0,0.74 0.27,1.49 0.85,1.6 0.29,-0.44 0.12,-0.65 0.85,-0.65 0.57,0 0.66,0.7 0.66,1.14 0,0.51 -1.02,2.66 -0.89,2.91 0.17,0.34 1.55,-0.22 1.55,-2.15 0,-2.49 -1.69,-2.18 -1.69,-3.24 0,-0.28 0.13,-0.49 0.19,-0.76l0.28 0 0 1.05c0.97,0 1.41,0.3 1.41,-0.86 0,-0.5 -0.23,-1.05 -0.56,-1.24 -0.98,-0.55 -2.64,-0.29 -2.64,2.19zm14.69 18.29c0.08,-0.52 0.28,-0.7 0.55,-0.96 0.33,-0.31 0.3,-0.34 0.3,-1.32 -0.01,-0.62 0.05,-0.96 0.09,-1.44 0.04,-0.57 -0.06,-1.07 0.29,-1.33 0.2,0.42 -0.09,3.23 -0.09,4 0.79,0.21 0.53,0.78 0.47,1.05 0.51,-0.14 0.69,-0.78 0.74,-1.34 0.07,-0.71 0.27,-3.34 0.11,-3.9 -0.34,-1.2 -1.82,-1.23 -2.46,-0.09 -0.4,0.71 -0.29,2.93 -0.42,3.77 -0.09,0.64 0.01,1.29 0.42,1.56zm-11.02 -13.33c1.04,0 1.15,0.1 1.51,-0.56 0.13,-0.23 0.41,-0.61 0.46,-0.96 -0.96,0 -0.89,0.05 -0.79,-0.79 0.12,-0.93 -0.16,-0.83 0.88,-0.83 0.05,-0.65 0.09,-0.3 0.09,-1.33 -1.13,0 -0.75,0.19 -0.75,-1.33l0.94 -0.1 0.09 -1.43c-3.04,0 -2.17,-0.6 -2.62,3.63l-0.21 3.14c-0.02,0.45 -0.16,0.56 0.39,0.56zm17.51 -0.57c2.46,0 2.39,0.05 2.47,-0.74 0.02,-0.25 0.07,-0.44 0.07,-0.78l-1.04 0c0,-0.67 0.09,-0.91 0.09,-1.52 1.08,-0.23 0.94,0.29 0.94,-1.43l-0.75 0c-0.06,-0.29 0,-0.72 0,-1.24 1.05,-0.51 1.04,0.48 1.04,-1.62 -3.11,0 -2.14,-0.2 -2.39,1.58 -0.1,0.73 -0.09,1.16 -0.15,1.94 -0.1,1.24 -0.28,2.44 -0.28,3.81zm-28.15 15.24c2.23,0 1.76,0.3 2.13,-2.04 0.05,-0.32 0.02,-0.53 0.1,-0.85l0.51 -3.39 -1.22 0c0,0.38 -0.26,1.45 -0.28,2.29 -0.35,-0.55 -0.28,-1.65 -0.28,-2.19 -0.29,-0.06 -0.32,-0.03 -0.76,-0.01 -0.51,0.02 -0.54,-0.07 -0.53,0.42l0.22 3.81c0.05,0.35 0.01,0.67 0.03,1.02 0.02,0.43 0.09,0.45 0.09,0.95zm17.23 -4.67c-0.01,-0.02 -0.03,-0.08 -0.03,-0.06 -0.05,0.17 -0.24,-0.83 -0.26,-0.98 -0.07,-0.51 -0.18,-0.65 -0.18,-1.24 -1.78,-0.42 -0.94,0.74 -1.25,3.02 -0.06,0.47 -0.03,1.16 -0.11,1.7 -0.23,1.52 -0.03,1.47 0.6,1.47 0.48,0 0.38,-0.57 0.38,-1.05 -0.01,-0.61 0.09,-0.84 0.09,-1.33l0.47 2.29 1.04 0 0.36 -6.08c-0.15,-0.44 -0.85,-0.14 -0.87,-0.12 -0.26,0.2 -0.25,1.97 -0.25,2.39zm9.51 2.29c-0.08,-0.17 0.03,-3.35 0.14,-3.77 0.15,-0.55 -0.07,-0.2 0.24,-0.33 0.22,0.45 -0,1.52 -0,2.19 0,0.58 0.1,1.55 -0.38,1.9zm-1.32 0.86l0 0.29 1.95 -0.12c0.58,-0.14 0.81,-0.66 0.86,-1.23 0.12,-1.3 0.2,-2.63 0.2,-3.99 0,-1.22 -1.22,-0.95 -2.45,-0.95 -0.49,0 -0.3,1.98 -0.39,2.84 -0.11,0.98 -0.17,2.03 -0.17,3.16zm-28.43 -12.57c1.01,0 1.62,-0.61 1.82,-1.5 0.2,-0.88 0.16,-0.73 0.16,-1.65 -2,0 -1.16,-0.05 -1.49,1.44 -0.08,0.35 0.09,0.26 -0.3,0.37 -0.38,-0.28 -0.11,-0.58 -0.09,-1.14l0.24 -3.47c0.09,-0.33 0.05,-0.32 0.41,-0.35l0 2c1.76,0 1.41,0.41 1.41,-2.1 0,-0.61 -0.68,-1.14 -0.94,-1.14 -2.06,0 -2.3,0.63 -2.45,3.62 -0.04,0.91 -0.48,2.78 0.22,3.5 0.22,0.23 0.59,0.41 1.01,0.41zm3.86 -1.33c-0.12,-0.54 0.12,-3.21 0.2,-4.08 0.11,-1.17 0.12,-0.94 0.46,-0.97 0,1.05 -0.19,1.75 -0.19,2.66 0,0.65 -0,2.07 -0.47,2.38zm-0.19 1.24c0.87,0 1.42,-0.46 1.72,-1.11 0.27,-0.58 0.57,-4.55 0.5,-5.04 -0.07,-0.52 -0.1,-0.73 -0.39,-1.04 -0.9,-0.93 -2.27,-0.22 -2.62,0.68 -0.27,0.72 -0.51,4.1 -0.48,4.96 0.03,0.8 0.54,1.55 1.27,1.55zm10.57 7.46c0.03,0.15 0.06,0.12 -0.09,0.09l-0.41 1.98c0,-0.73 -0.09,-1.06 -0.09,-1.81l0 -0.21 -1.51 0.02 -0.38 5.33c0.38,0.09 0.64,0.25 1.04,0.29 0,-0.77 0.19,-1.54 0.19,-2.29l0.09 0c0,0.4 0.1,2.59 0.19,2.86l0.66 0c0.18,-0.76 0.32,-2.51 0.56,-2.86 0,1.06 -0.09,1.77 -0.09,2.76 0.83,0 1.12,0.26 1.13,-1.14l0.21 -4.57c0.09,-0.77 0.04,-0.66 -1.5,-0.45zm-5.86 -12.41c-0.44,-0.3 -0.17,-0.23 -0.4,-1.22 -0.11,-0.46 -0.06,-0.93 -0.26,-1.35l-1.13 0 -0.57 7.24c1.53,0 1.16,0.3 1.32,-2.19l0.09 -0.48c0.08,-0.23 0.03,-0.09 0.09,-0.19 0,0.4 0.25,2.51 0.5,2.83l1.1 -0.06c0,-1.51 0.03,-1.14 0.23,-2.53l0.33 -4.71c-1.44,0 -1.1,-0.09 -1.26,1.1 -0.07,0.52 -0.05,1.01 -0.05,1.57zm15.63 3.05c-0.15,-0.66 0.03,-1.87 0.1,-2.66 0.04,-0.51 0.07,-0.83 0.09,-1.43 0.04,-1.16 0.27,-0.93 0.47,-0.95 0,0.94 -0.26,2.89 -0.28,3.91 -0.01,0.58 -0.08,0.69 -0.19,1.14l-0.19 0zm-0.19 1.24c1.66,0 1.8,-1.27 1.98,-2.29 0.09,-0.55 0.09,-1.31 0.16,-1.84 0.11,-0.82 0.33,-2.34 -0.26,-3.02 -0.71,-0.83 -2.15,-0.56 -2.65,0.65 -0.22,0.54 -0.58,4.48 -0.54,4.96 0.07,0.72 0.56,1.54 1.31,1.54zm-3.3 -4.67c-0.19,-0.39 0.09,-1.77 0.09,-2.48 0,-0.31 -0.62,-0.1 -1.41,-0.1 0,0.5 -0.07,0.52 -0.09,0.95 -0.02,0.4 0.02,0.7 -0.04,1.1l-0.4 4.99c0.11,0.44 0.25,0 0.72,0 0.37,0 0.01,0.14 0.57,0.19 0.37,-0.78 0.08,-2.39 0.47,-3.14 0.33,0.22 0.23,0.11 0.21,0.48 -0.02,0.33 -0.01,0.63 -0.02,0.95 -0.03,0.52 -0.19,1.09 -0.19,1.62 0.61,0.14 0.68,0 1.41,0l0.28 -2.86c0.02,-0.4 0.35,-4.15 0.24,-4.34 -0.18,-0.29 -1.26,0.03 -1.28,0.05 -0.1,0.1 -0.17,1.14 -0.18,1.34 -0.04,0.84 0.08,1.11 -0.38,1.24zm7.44 -2.86c-0.22,0.97 -0.26,3.87 -0.43,5.09l-0.14 2.15c3.95,0 3.06,-0.44 3.43,-3.01l0.24 -2.81c0.13,-1.74 -1.37,-1.51 -2.64,-1.51 -0.15,0 -0.36,0.05 -0.47,0.1z"/>
   <path class="fil3" d="M23.73 23.25c1.9,0 3.68,-0.18 2.46,2.68 -0.24,0.56 -0.43,1.03 -0.8,1.48 -2.08,2.56 -2.98,3.84 -5.38,5.99 -0.06,0.05 -1.17,1.27 -1.21,0.79l2.35 -10.11c0.12,-0.4 0.16,-0.47 0.57,-0.56 0.49,-0.11 1.4,-0.27 1.99,-0.27zm16.19 3.71c0.39,-0.26 2.2,-4.52 2.48,-5.12 0.41,-0.85 -0.28,-0.99 -0.59,-0.21l-1.89 5.33zm-10.43 2.46c-0.28,1.33 0.84,0.32 1.03,-0.43 0.03,-0.24 0.08,-0.42 0.17,-0.62 0.42,-0.97 0.17,-1.44 0.96,-1.51 -0.02,0.87 -0.68,1.83 -0.38,2.19 0.72,-0.08 1.63,-2.65 1.73,-2.82 0.11,-0.19 0.72,-0.79 0.72,-0.13 0,0.32 -0.52,0.55 -0.43,1.11l0.34 1.18c0.78,-0.07 1.16,-1.73 1.69,-2.1 -0.05,0.59 -0.93,1.8 -1.29,2.32 -0.38,0.56 -0.51,1.95 -1.54,1.97 0,-0.87 0.62,-1.38 1.04,-1.86 -0.36,-0.06 -0.56,-0.89 -0.75,-1.28 -0.32,0.3 -0.62,1.19 -1.11,1.72 -0.27,0.28 -0.6,0.57 -0.8,0.08 -0.51,0.67 -0.74,1.05 -1.17,1.19 -0.76,0.24 -0.56,-0.97 -0.5,-1.46 -0.63,0.05 -1.08,1.62 -1.91,2.07 -1.03,0.56 -0.82,-0.74 -0.82,-1.5 0,0 0.77,-2.95 1.51,-2.95 0.87,0 0.53,1.5 0.05,2.33 -0.19,0.32 -0.67,0.83 -1.06,0.59 -0.09,0.25 -0.14,0.67 -0.12,1.24 0.04,0.19 0.33,0.07 0.59,-0.14 0.25,-0.2 0.69,-0.86 0.88,-1.15l1.34 -2.12c0.15,-0.35 0.23,-0.52 0.67,-0.56l-0.83 2.65zm5.07 0.02c0.05,0.06 0.49,0.86 0.75,-0.29l-0.21 -0.17c-0.44,0.09 -0.36,0.09 -0.55,0.46zm2.17 -0.19c0.81,0.2 0.79,-0.02 0.66,-0.57l-0.47 0c-0.12,0.22 -0.16,0.25 -0.19,0.57zm2.17 -0.57c0,0.34 0.19,0.29 0.57,0.29 0.1,-0.2 0.13,-0.23 0.19,-0.48 -0.27,-0.18 -0.11,-0.19 -0.57,-0.19 -0.11,0.17 -0.19,0.17 -0.19,0.38zm-11.62 -0.42c0.13,-0.35 0.36,-0.65 0.7,-0.73 0,0.78 -0.01,1.63 -0.75,1.81 -0.17,-0.35 -0.1,-0.68 0.05,-1.08zm8.42 -0.63l1.95 -4.12c0.21,-0.48 1.04,-1.67 0.32,-1.66 -0.42,0 -0.5,0.75 -0.62,1.08 -0.14,0.4 -1.83,4.27 -1.65,4.71zm1.98 -0.29l2.57 -5.12c0.21,-0.42 0.18,-0.47 -0.03,-0.79 -0.46,0.12 -0.56,0.57 -0.82,1.27l-1.72 4.64zm-22.31 -2.1l0 0.19c0.86,0 3.83,-1.52 5.18,-1.52l-1.64 8.44c-0.66,3.28 -0.11,1.99 -2.26,3.62 -0.24,0.18 0.01,-0.01 -0.15,0.13 1,0 1.07,-0.74 1.88,-0.76l0.09 0.38c0.03,-1.13 1.41,-1.71 2.93,-3.23 1.71,-1.71 7.82,-7.59 5.77,-9.57 -1.13,-1.08 -4.72,0.13 -5.68,0.13 0,-1.08 0.39,-0.35 0.09,-1.62 -0.7,-0.16 -0.43,-0.27 -0.83,1.54 -0.11,0.49 -0.29,0.5 -1.12,0.77l-4.26 1.5z"/>
  </g>
 </g>
</svg>
