<?xml version="1.0" encoding="UTF-8"?>
<!DOCTYPE svg PUBLIC "-//W3C//DTD SVG 1.1//EN" "http://www.w3.org/Graphics/SVG/1.1/DTD/svg11.dtd">
<!-- Creator: CorelDRAW -->
<svg xmlns="http://www.w3.org/2000/svg" xml:space="preserve" width="62.5679mm" height="56.0307mm" version="1.1" style="shape-rendering:geometricPrecision; text-rendering:geometricPrecision; image-rendering:optimizeQuality; fill-rule:evenodd; clip-rule:evenodd"
viewBox="0 0 99.14 88.78"
 xmlns:xlink="http://www.w3.org/1999/xlink"
 xmlns:xodm="http://www.corel.com/coreldraw/odm/2003">
 <defs>
  <style type="text/css">
   <![CDATA[
    .fil1 {fill:black}
    .fil13 {fill:#0F0F10}
    .fil5 {fill:#131517}
    .fil7 {fill:#6181BE}
    .fil2 {fill:#622D56}
    .fil3 {fill:#6284C2}
    .fil12 {fill:#7B484E}
    .fil15 {fill:#C98637}
    .fil14 {fill:#DAAC31}
    .fil10 {fill:#EA9C35}
    .fil6 {fill:#F1A234}
    .fil8 {fill:#F5CA27}
    .fil11 {fill:#F5F3F3}
    .fil9 {fill:#F9F6F7}
    .fil4 {fill:#FACD27}
    .fil0 {fill:#FFCC00}
   ]]>
  </style>
 </defs>
 <g id="Camada_x0020_1">
  <metadata id="CorelCorpID_0Corel-Layer"/>
  <g id="_2015282647184">
   <path class="fil0" d="M46.39 13c0.69,0.51 0.54,2.25 0.46,3.08 -0.24,2.26 -0.52,2.03 -0.84,2.81 1.14,-0.11 0.35,-0.33 1.19,-0.57 0.98,0.94 0.66,2.57 -0.4,3.1 -0.33,0.29 -0.8,0.4 -1.32,0.29 -0.3,-0.06 -0.17,0 -0.32,-0.17l-0.55 -0.1c-0.53,0.47 -0.9,1.11 -1.08,1.78 -0.28,1.08 -0.54,1.31 -0.84,2.09 0.87,2.25 3.58,5.33 4.86,6.52 3.96,3.69 3.43,2.21 5.26,1.7 1.35,-0.38 2.69,0.64 2.69,-1.04 0.01,-2.16 -0.26,-4.02 -0.8,-6.1 -0.54,-2.05 -1.23,-3.84 -2.09,-5.64l-2.69 -5.05c-0.53,-1.37 0.22,-2.12 0.87,-2.69 0.63,-0.56 1.34,-1.07 2.25,-1.56 -0.12,-0.68 -1.12,-2.71 -1.63,-3.11 -0.5,-0.4 -2.57,-1.03 -3.39,-1.21 -3.12,-0.67 -4.74,1.5 -4.49,4.43 2.89,2.22 1.34,0.82 2.86,1.45zm-17.2 63.94c0.16,-0.59 0.24,-1.41 -0.19,-1.84 -0.28,0.32 -0.28,0.45 -0.25,0.97 0.04,0.64 0.02,0.66 0.44,0.87zm17.72 -1.55c0.13,-0.18 0.27,-0.02 0.17,-1.2 -0.05,-0.58 -0.02,-0.62 -0.58,-0.67 -0.14,1.69 -0.08,1.71 0.41,1.87zm19.39 -1.67l0.55 0c0.07,-0.41 0.2,0.01 0.1,-1.11 -0.05,-0.57 0.01,-0.5 -0.26,-0.82 -0.59,0.27 -0.51,1.27 -0.38,1.92zm12.42 -0.51c0.67,-0.19 0.55,-0.16 0.52,-1.01 -0.01,-0.51 -0.02,-1.03 -0.13,-1.52 -0.63,0.12 -0.51,0.17 -0.53,0.94 -0.01,0.28 -0.03,0.61 -0.03,0.88 -0,0.59 0.01,0.51 0.17,0.72zm-37.65 -0.94c-0.03,0.73 -0.15,1.81 0.1,2.35 0.86,-0.03 0.54,-0.36 0.76,-1.25 0.12,-0.5 0.35,-0.99 0.61,-1.41l-1.47 0.31zm9.43 4.8l-0.05 -1.42c-0.76,-0.22 -2.01,-0.12 -2.8,0.01 0.32,0.32 2.26,1.31 2.85,1.41zm-36.89 -6.75l0.55 0.03c4.21,0.06 3.92,2.13 4.51,2.86 1.6,-0.28 2.76,-1.17 4.76,-0.74 0.81,0.17 1.53,0.71 2.12,0.46 0.85,-0.35 1.01,-0.59 2.13,-0.89 1.52,-0.4 3.56,-0.28 4.73,0.46 1.47,0.93 1.61,2.09 1.47,4.42 0.63,-0.38 1.08,-0.19 1.91,-0.14l-0.03 -8.63c-2.39,-1.26 -1.71,-6.11 -1.79,-9.14 -0.02,-0.71 -0.37,-9.93 0.08,-10.62l5.36 -0.46 -0 5.97c0.49,-0.13 1.12,-0.57 1.49,-0.92l0.01 -5.14 5.46 -0.54 0.11 7.08c0.52,0.24 1.35,0.18 2.06,0.16l-0.05 -7.38c0.68,-0.24 3.62,-0.22 4.73,-0.45 0.24,-0.05 0.18,-0.05 0.35,-0.11 0.82,-0.3 0.48,-7.32 0.23,-8.17 -0.55,-0.01 -2.15,-0.29 -2.69,-0.54 -1,-0.46 -1.07,-0.83 -1.09,-2.12 -3.35,-2.12 -6.24,-4.88 -8.48,-7.95 -1.4,-1.92 -2.77,-4.49 -3.42,-6.89 -0.16,-0.58 -0.09,-1.13 -0.26,-1.75 -0.28,-0.98 -1.28,-2.37 0.06,-2.9 0.34,-0.25 0.26,-0.1 0.63,-0.5 0.24,-0.26 0.32,-0.4 0.51,-0.64 2.35,-2.91 2.43,-1.62 2.39,-4.3 -0.76,-6.35 -1.56,-5.5 -2.3,-7.93 1.15,0.38 1.44,1.54 2.04,1.85 0.47,-0.34 0.66,-0.76 1.03,-1.23 1.75,-2.21 2.99,-2.33 3.54,-2.92 -1.14,-0.72 -3.59,-0.33 -5.15,-0.33 -4.25,0.01 -12.8,-0.25 -16.18,0.21 -6.1,0.83 -10.51,5.02 -12.45,9.49 -1.51,3.5 -1.27,5.69 -1.26,9.87l0.25 32.49c0.18,2.81 0.94,5.7 1.25,8.51 0.31,2.89 0.96,5.72 1.36,8.66l0.05 0.79zm35.58 -70.09c0.39,0.81 -1.71,0.39 -2.7,1.82 2.29,0.07 3.62,-0.38 5.54,0.79 0.94,0.58 2.63,2.16 2.58,3.77 -0.78,-0.11 -0.84,-0.88 -1.78,-1.2 0.96,1.64 1.49,3.01 1.64,5.21l0.53 -0.08c3.13,-1.77 11.82,-2.29 15.76,-0.5 1.03,0.47 3.13,1.67 3.33,2.73l-4.76 -1.19c-0.52,-0.08 -0.53,0.03 -0.66,0.12 2.08,0.86 3.93,2.1 5.33,3.41 0.74,0.7 3.5,3.59 3.57,5.03 -0.9,-0.41 -2.19,-1.29 -3.6,-1.86 -3.83,-1.54 -7.38,-2.11 -11.46,-1.32 -0.85,0.17 -1.44,-0.05 -1.96,0.6 0.63,0.44 1.06,0.67 1.55,1.14 1.24,1.18 2.6,3.42 2.66,5.24 -0.64,-0.22 -3.48,-4.21 -5.63,-4.39 0.83,1.35 1.75,6.15 1.09,7.43 -0.39,-0.16 -0.55,-1.44 -0.92,-2.47 -0.19,-0.54 -0.52,-1.94 -1,-2.14 -0.25,1.44 0.38,5.48 -0.94,9.8 -0.14,0.47 -0.26,0.83 -0.45,1.28 -0.16,0.38 -0.25,0.92 -0.37,1.2 -0.19,1.41 -0.51,1.5 -1.07,2.41 0.51,0.69 0.44,-0.07 0.66,0.81 0.08,0.31 0.08,0.78 0.11,1.18 0.05,0.79 0.16,1.66 0.24,2.46 0.25,2.59 0.63,7.59 1.01,9.92 0.13,0.8 0.21,1.55 0.35,2.37 0.22,1.28 0.23,1.52 0.86,1.79l-0.09 -9.27c2.09,-0.33 4.31,-0.37 6.51,-0.53 6.05,-0.44 5.41,3.15 5.3,8.47 -0.02,1.1 -0.42,1.92 -0.93,2.5 -0.85,0.96 -1.77,1.02 -2.29,1.24l0.38 1.7c-0.91,0.72 -2.09,0.57 -3.37,0.56l0.02 6.57c-1.09,0.3 -4.27,0.44 -5.51,0.43l-0.03 -9.74c-4.05,-2.62 -1.78,2.97 -1.87,3.74 -0.2,1.6 -2.76,0.7 -2.66,2.15l3.24 -0.11 -0.01 4.13 -0.93 0.09c-0.27,0.58 0.07,0.1 -0.47,0.33 -0.03,0.01 -0.31,0.05 -0.42,0.08l-0.13 1.85 4.89 -0.52 0.16 0.58c0.53,-0.46 1.63,-0.97 2.34,-1.08l0.16 0.97c1.38,-0.61 1.59,-1 3.61,-1.22 2.1,-0.23 2.65,0.53 4.03,0.96 -0.01,-0.71 0.01,-1.49 -0.02,-2.19 -0.03,-0.66 -0.26,-1.18 -0.2,-1.89l1.78 -15.28c0.14,-0.95 0.41,-4.35 0.67,-4.94 0.41,-0.21 7.06,-0.78 7.82,-0.76 0.4,1.53 3.29,20.16 3.2,20.72 -0.67,0.18 -4.81,0.5 -5.43,0.39 -0.36,-1.1 0.01,-2.55 -0.43,-3.54 -0.47,-0.21 -1.34,-0.07 -1.74,0.12 -0.3,0.6 -0.35,1.73 -0.4,2.53l-0.02 3.65c1.28,-0.31 0.93,-0.73 3.73,-0.87 2.35,-0.12 2.61,0.49 3.59,1.08 0.86,-0.46 0.61,-0.96 2.73,-1.61 1.84,-3.67 1.47,-7.33 1.45,-11.92 -0.01,-4.44 -0.06,-8.89 -0.09,-13.33 -0.05,-8.75 -0.01,-17.64 -0.25,-26.38 -0.2,-7.26 -5.86,-13.25 -11.89,-14.74 -3.49,-0.86 -9.02,-0.45 -12.87,-0.41l-13.04 0.1z"/>
   <path class="fil1" d="M46.55 80.32c0.83,0.01 0.88,1.34 0.5,1.98l-0.52 -0 0.03 -1.97zm-33.71 -6.18l0.57 0.01 0.07 8.09c0.01,1.29 0.22,2.21 -0.39,2.38 -0.33,-0.61 -0.37,-9.27 -0.24,-10.47zm-0.76 -0.53l0.07 11.84c2.16,0.33 2.09,-1.28 2.09,-3.07 0,-1.36 0.26,-7.98 -0.38,-8.67 -0.35,-0.39 -1.43,-0.39 -1.79,-0.1zm54.21 0.12c-0.12,-0.66 -0.2,-1.65 0.38,-1.92 0.27,0.31 0.21,0.24 0.26,0.82 0.11,1.12 -0.02,0.7 -0.1,1.11l-0.55 -0zm-0.68 0.83l2.04 0.06c0.11,-1.25 0.25,-3.48 -0.98,-3.57 -1.4,-0.1 -1.14,2.36 -1.05,3.51zm-24.46 4.11c0.6,-0.42 3.12,0.05 4.16,0.99 -0.82,0.49 -3.12,0.11 -3.3,0.69l-0.09 0.34c-0.14,1.02 0.19,0.9 -0.61,1.01 -0.32,-0.45 -0.19,-2.4 -0.16,-3.03zm37.99 0.88c-1.07,-0.08 -0.59,-2.89 0,-3.12 0.19,0.29 0.29,2.63 0,3.12zm8.14 -2.89c0.57,0.14 0.33,0.11 0.75,0.42l-0.04 1.55 -0.66 0.1 -0.05 -2.07zm-20.75 3.86c-0.26,-0.53 -0.17,-1.38 -0.17,-2.01 -0.02,-2.19 -0.38,-1.51 3.44,-2.07l0.72 0.06c-0.63,0.32 -2.45,0.41 -3.28,0.59l-0.13 3.43 -0.58 0zm17.7 -5.38c0.71,0.18 1.5,0.66 2.04,0.96 -0.45,0.28 -1.39,0.27 -2.01,0.27l-0.03 -1.23zm-13.56 2.39c0.1,1.98 0.31,3.53 -0.91,4.49 -1.18,0.94 -2.34,1.2 -4.23,1.07 -3.98,-0.27 -3.35,-3.7 -3.42,-7.31 -0.03,-1.67 -0.1,-3.47 0.76,-4.66 1.83,-2.51 6.55,-2.34 7.58,-0.41 0.3,0.57 0.26,4.1 0.18,5 -1.54,0.32 -3.35,0.09 -4.95,0.52 -0.07,0.98 -0.3,4.64 0.57,5.08 2.37,0.37 1.18,-2.35 1.71,-3.67 0.67,-0.29 1.89,-0.24 2.72,-0.12zm-20.17 -0.45c-0.59,-0.09 -2.53,-1.09 -2.85,-1.41 0.79,-0.13 2.04,-0.23 2.8,-0.01l0.05 1.42zm-3.59 -1.68c-0.49,-0.16 -0.55,-0.18 -0.41,-1.87 0.55,0.05 0.53,0.09 0.58,0.67 0.1,1.18 -0.04,1.02 -0.17,1.2zm29.36 -1.28c0.09,-0.02 0.53,0.03 0.64,0.04 -0.12,0.19 -0.01,0.33 -0.55,0.46 -0.75,0.19 -0.43,-0.06 -0.52,-0.12 0.17,-0.23 -0.23,-0.25 0.42,-0.38zm2.45 -0.9c-0.15,-0.22 -0.17,-0.13 -0.17,-0.72 0,-0.27 0.02,-0.6 0.03,-0.88 0.02,-0.76 -0.1,-0.82 0.53,-0.94 0.11,0.49 0.11,1.02 0.13,1.52 0.02,0.85 0.15,0.82 -0.52,1.01zm-33.09 7.4c0.02,1.12 -0.06,2.6 1.28,2.5 1.09,-0.07 1.25,-1.65 0.9,-2.67 -0.4,-1.16 -3.32,-1.75 -4.48,-2.8 -0.91,-0.83 -1.31,-4.31 0.3,-5.59 1.31,-1.05 4.1,-1.35 5.85,-0.57l0.03 2.14 0.98 -0.07 -0.08 1.16 -2.67 0.22c-0,-1.08 0.22,-1.66 -0.68,-2.17 -1.21,-0.08 -1.75,1.07 -1.34,2.35 0.26,0.83 1.2,1.24 2.09,1.64 3.57,1.57 2.4,0.81 2.74,4.82 0.15,1.7 0.17,1.91 -1.1,2.61 -1.13,0.62 -1.68,0.63 -3.11,0.63 -2.98,0.01 -3.86,-0.86 -3.57,-4.02l2.86 -0.19zm5.54 -9.45c-0.01,-1.91 -0.21,-2.14 0.61,-2.23 0.8,-0.08 2.13,-0.15 2.94,-0.13l-0.01 1.97 0.64 0.26 0.06 1.2 -0.6 0.35c-0.12,1.91 -0.04,4.12 -0.02,6.05 0.04,4.18 0.14,2.44 0.56,3.91 0.04,0.13 0.08,0.54 0.08,0.68l-0.12 0.66c-0.93,0.2 -2.8,0.32 -3.44,-0.3 -1.24,-1.2 -0.18,-9.1 -0.78,-10.82 -0.59,-0.23 -0.16,0.15 -0.74,-0.14l0.02 -1.18 0.82 -0.28zm-8.62 0.8c-0.25,0.42 -0.48,0.91 -0.61,1.41 -0.22,0.88 0.11,1.21 -0.76,1.25 -0.26,-0.54 -0.13,-1.62 -0.1,-2.35l1.47 -0.31zm45.26 -0.15c-0.45,-0.17 -0.58,-0.28 -0.62,-0.91 -0.05,-0.73 -0.01,-0.93 0.59,-1.14l0.04 2.05zm-51.21 13.69c0.15,-1.62 0.04,-9.58 0.04,-11.88 0,-4.5 -0.58,-4.68 1.09,-4.67 2.04,0.01 3.59,-0.39 5.52,-0.55l-0.04 2.78c-0.9,0.13 -2.24,0.04 -2.91,0.43l0.02 3.88 1.48 -0.05c0.09,1.11 0.44,1.65 0.51,2.27l-1.95 0.38 0.06 4.31c0.47,0.07 0.44,0.02 0.85,0 1.23,-0.06 0.46,0.18 1.12,1.46 0.26,0.5 0.55,0.63 0.8,1.09 -1.9,0.03 -4.6,0.73 -6.59,0.53zm22.98 -12.67c0.04,-0.03 0.08,-0.07 0.1,-0.09l0.31 -0.39c0.16,-0.26 0.28,-0.78 0.71,-1.42 0.34,-0.51 0.85,-1.12 1.61,-0.99 0.09,1.09 -0.8,1.12 -0.92,4.14 -0.74,0.41 -1.16,0.48 -1.46,1.38 -0.3,0.94 -0.17,4.15 -0.16,5.32l-0.12 2.57c-0.46,0.27 -2.72,0.48 -3.41,0.43l-0.03 -13.26 3.4 -0.39 -0.02 2.69zm18.33 0.37c-0.73,0.08 -1.5,0.15 -2.2,0.28 -1,0.2 -1.18,0.31 -1.16,-0.86 0.04,-2.93 1.9,-4.36 4.75,-4.51 1.85,-0.1 2.42,0.13 3.53,1.07 -0.04,1.23 -0.57,2.34 -0.08,3.87 0.51,1.62 0.87,0.94 0.81,3.35l-0.82 0.23c-0.46,1.96 0.56,3.19 0.84,4.58 -0.72,0.34 -2.46,0.51 -3.43,0.5l-0.21 -6.84c-0.79,0.14 -1.82,1.38 -1.93,2.48 -0.31,3.12 0.42,2.94 1.57,2.77 -0.32,2.28 -3.07,2.41 -4.08,1.76 -1,-0.64 -1.23,-4.01 -0.64,-5.25 0.48,-1 2.91,-1.92 4.01,-2.57 1.01,-0.6 1.13,-0.72 1.04,-2.3 -0.06,-1.04 -0.21,-1.86 -1.32,-1.81 -0.83,0.74 -0.71,1.92 -0.67,3.27zm8.56 3.65c0.02,1.16 -0.06,3.2 1.59,2.53 0.97,-0.39 0.79,-2.52 0.16,-3.08 -1.35,-1.19 -4.49,-1.46 -4.82,-3.73 -0.45,-3.12 0.53,-4.7 3.37,-5.08 3.15,-0.42 5.05,0.24 4.82,3.52 -0.71,0.15 -2.38,0.39 -3.1,0.3 -0.01,-0.66 0.11,-1.51 -0.3,-1.88 -1.25,-1.14 -2.96,1.68 -0.67,3.12 2.16,1.36 4.36,1.03 4.46,4.21 0.09,3.04 -1.27,4.35 -4.22,4.44 -2.06,0.06 -3.81,-0.02 -4.21,-2.2 -0.38,-2.08 0.05,-2.13 2.92,-2.15zm-15.11 -10.69c0.04,-0.02 0.08,-0.05 0.11,-0.06 0.03,-0.01 0.08,-0.04 0.11,-0.05 0.04,-0.01 0.08,-0.03 0.12,-0.05 0.04,-0.01 0.08,-0.02 0.12,-0.04l3.18 -0.27c0.03,0.81 0.04,1.66 0.05,2.47 0.02,2.16 -1.66,1.42 -1.15,6.12 0.51,0 0.81,-0.22 1.08,0.06 0.32,0.33 0.08,0.82 -0.07,1.03 -1.19,1.58 -1.14,1.89 -1.04,4.55 0.04,1.04 0.39,1.22 0.62,2.14 -0.15,0.08 -0.04,0.05 -0.34,0.13l-2.58 0.16c-0.16,-0.47 -0.3,-14.79 -0.2,-16.21zm-0.96 -0.75c-0.06,0.71 0.17,1.23 0.2,1.89 0.03,0.7 0.01,1.48 0.02,2.19 -1.38,-0.43 -1.93,-1.19 -4.03,-0.96 -2.03,0.22 -2.23,0.61 -3.61,1.22l-0.16 -0.97c-0.71,0.11 -1.81,0.62 -2.34,1.08l-0.16 -0.58 -4.89 0.52 0.13 -1.85c-0.75,-0.15 -4.18,0.32 -5.17,0.45l0.01 2.1c-1.53,0.15 -2.29,-0.37 -3.45,-0.26l-2.99 0.61 -0.06 -2.64c-0.66,-0.74 -2.87,-0.18 -3.91,-0.09 -1.14,0.1 -3.06,0.1 -4.02,0.25 -0.43,1.8 0.09,6.25 -0.03,8.41 -0.18,0.82 -0.14,8.81 0.05,9.46 0.48,0.21 1.48,0 2.01,-0.05l6.18 -0.56c1.15,-0.3 4.78,0.87 6.77,-1.63 0.72,0.28 0.78,0.76 1.97,0.8 1.03,0.03 7.13,-0.38 7.47,-0.72 0.46,-0.47 0.03,-5.35 0.2,-7.12 0.03,-0.29 0.04,-0.72 0.08,-1.04 0.07,-0.57 0.03,-0.54 0.43,-0.8 0.68,1.15 -0.75,6.16 1.96,8.01 2.36,1.61 5.86,0.71 7.49,-0.75l0.29 0.9c1.22,0.03 2.86,-0.32 4.3,-0.35 1.33,-0.03 3.15,0.25 3.82,-0.72 1.03,0.41 4.55,0.03 5.1,-0.23 0.67,-0.32 0.14,-0.46 1.25,-0.19 2.15,0.51 4.46,0.13 5.93,-0.93 1.25,-0.91 2,-3.65 1.28,-5.55 -0.81,-2.13 -2.2,-2.08 -4.07,-3.07 0.51,-0.44 2.88,-0.32 3.71,-0.35 0.68,-3.35 -0.75,-5.07 -3.7,-5.23 -1.06,-0.06 -1.62,0.27 -2.57,0.26 -2.12,0.66 -1.87,1.15 -2.73,1.61 -0.98,-0.59 -1.23,-1.21 -3.59,-1.08 -2.8,0.15 -2.45,0.56 -3.73,0.87l0.02 -3.65c-0.88,0.09 -0.02,0.28 -1.14,0.43 -0.48,0.06 -0.87,0.06 -1.4,0.15 -1.05,0.18 -1.89,0.08 -2.93,0.18z"/>
   <path class="fil2" d="M5.85 64.27c0.05,-1.12 0.66,-7.55 0.93,-8.09 0.22,0.42 0.94,7.46 0.82,7.94l-1.75 0.15zm85.64 -21.33c2.52,-0.23 2.58,-0.17 3.92,-1.49 0.61,-0.6 2.54,-2.14 2.8,-2.69l-4.59 0.47c-0.45,0.92 -1.94,2.92 -2.13,3.71zm3.6 8.45c-0.1,-0.5 -0.27,-3.42 -0.07,-3.76 0.21,-0.36 2.86,-0.34 3.47,-0.5 0.36,-0.79 0.13,-3.13 0.07,-4.22l-9.14 0.75 0.2 21.07c1.26,0.1 3.29,-0.35 4.7,-0.42 1.67,-0.08 3.19,-0.24 4.82,-0.41l-0.09 -4.19 -4.01 0.29 0.02 -4.46 3.36 -0.45c0.06,-0.95 0.18,-3.12 -0.09,-3.89 -1.09,-0.12 -2.15,0.13 -3.26,0.17zm-18.99 7.06c-0.01,-1.37 0.51,-7.24 0.85,-8.27 0.22,0.44 1,7.2 0.95,7.97 -0.47,0.26 -1.21,0.28 -1.8,0.3zm-5.71 6.98c1.04,-0.1 1.88,-0 2.93,-0.18 0.53,-0.09 0.92,-0.09 1.4,-0.15 1.12,-0.15 0.27,-0.34 1.14,-0.43 0.05,-0.8 0.1,-1.92 0.4,-2.53 0.4,-0.19 1.27,-0.32 1.74,-0.12 0.44,0.99 0.07,2.44 0.43,3.54 0.63,0.11 4.76,-0.21 5.43,-0.39 0.1,-0.57 -2.8,-19.19 -3.2,-20.72 -0.76,-0.02 -7.41,0.55 -7.82,0.76 -0.26,0.6 -0.53,4 -0.67,4.94l-1.78 15.28zm-6.16 -5.56l-0.05 -1.6c1.58,0 3.18,-0.57 2.92,1.43 -0.76,0.33 -1.92,0.25 -2.86,0.17zm-23.48 -1.65l0.15 0.22c0.33,1.05 -0.15,1.09 -0.15,1.09 -0.4,-0.4 -0.42,-0.92 0,-1.31zm5.67 1.31l0.02 -1.95 2.01 -0.56 0.04 1.59c-0.47,0.25 -1.4,0.78 -2.07,0.93zm-5.44 0.66c0.04,1.06 0.04,2.2 0.05,3.27 0.01,1.29 0.2,2.35 -1.19,2.31 -0.61,-1.02 -0.35,-7.64 -0.36,-9.25l1.43 0.01c0.2,1.33 -0.5,1.05 -0.81,1.99 -0.36,1.08 0.38,1.24 0.88,1.68zm5.46 -3.18l0 -1.13c0.97,-0.05 2.04,-0.36 2.15,0.55 -0.41,0.48 -1.44,0.54 -2.15,0.58zm-5.5 -3.25l-0.03 2.17 -0.73 0.03 -0.14 -0.01c-0.85,0 -0.81,-0.49 -0.51,-1.2 0.2,-0.47 0.79,-0.89 1.42,-1zm23.24 1.02l-0.05 -5.44c1.33,-0.08 1.81,0.64 1.81,1.92l-0 1.58c-0,1.24 -0.47,2.02 -1.76,1.94zm-9.37 -16.78c0.22,-0.63 -0.12,-0.23 0.41,-0.61 0.59,0.2 0.14,-0.01 0.31,0.35l1.23 9.95c0.1,0.92 0.01,1.85 0.19,2.76 0.19,0.9 0.27,1.43 0.37,2.37 0.44,4.14 1.16,2.16 1.49,4.06 -0.97,0.04 -1.64,-0.51 -2.4,-0.54 -1.29,2.06 -0.09,3.03 -0.16,5.12 -0.59,0.32 -1.3,0.69 -2.22,0.72l0.01 -2.64c0.9,0.04 0.51,0.16 1.18,0.32 -0.26,-0.38 -0.61,-0.49 -1.12,-0.69 -0.34,-0.37 -0.29,-0.72 -0.24,-1.32 0.05,-0.58 0.08,-0.68 0.03,-1.29 -0.39,-4.8 0.92,-13.91 0.49,-18.06 -0.37,-0.14 -0.23,0.07 -0.23,-0.39l0.67 -0.12zm-2.84 -0.38c0.48,0.24 1.29,0.04 1.9,0.11l-0.07 0.7c0.25,0.85 0.59,7.87 -0.23,8.17 -0.17,0.06 -0.11,0.06 -0.35,0.11 -1.11,0.22 -4.05,0.21 -4.73,0.45l0.05 7.38c-0.71,0.02 -1.54,0.08 -2.06,-0.16l-0.11 -7.08 -5.46 0.54 -0.01 5.14c-0.37,0.34 -1,0.78 -1.49,0.92l0 -5.97 -5.36 0.46c-0.45,0.68 -0.1,9.91 -0.08,10.62 0.08,3.03 -0.59,7.89 1.79,9.14l0.03 8.63 0.13 0.01c0.12,-2.16 -0.4,-6.61 0.03,-8.41 0.96,-0.16 2.88,-0.15 4.02,-0.25 1.03,-0.09 3.25,-0.66 3.91,0.09 1.09,-0.5 1.92,-1.65 2.4,-2.95 0.44,-1.18 0.11,-3.68 0.17,-5.13 0.5,-0.2 1.52,-0.94 2.07,-0.89l0.09 8.84c1.67,0.21 5.8,-0.43 7.81,-0.54l0.93 -0.09 0.01 -4.13 -3.24 0.11c-0.1,-1.45 2.47,-0.54 2.66,-2.15 0.09,-0.76 -2.17,-6.36 1.87,-3.74l0.03 9.74c1.24,0.01 4.42,-0.14 5.51,-0.43l-0.02 -6.57c1.28,0.02 2.46,0.16 3.37,-0.56l-0.38 -1.7c0.52,-0.22 1.44,-0.28 2.29,-1.24 0.51,-0.58 0.9,-1.39 0.93,-2.5 0.11,-5.32 0.75,-8.91 -5.3,-8.47 -2.2,0.16 -4.42,0.19 -6.51,0.53l0.09 9.27c-0.63,-0.27 -0.63,-0.5 -0.86,-1.79 -0.14,-0.82 -0.22,-1.58 -0.35,-2.37 -0.38,-2.33 -0.75,-7.34 -1.01,-9.92 -0.08,-0.8 -0.18,-1.67 -0.24,-2.46 -0.03,-0.4 -0.03,-0.86 -0.11,-1.18 -0.22,-0.89 -0.15,-0.12 -0.66,-0.81 0.56,-0.9 0.88,-1 1.07,-2.41 -0.48,-0.26 -0.08,-0.24 -0.81,-0.48 -0.42,0.23 -1.88,-0.45 -2.94,0.89 -0.27,0.34 -0.55,0.87 -0.4,1.54 0.16,0.69 0.89,0.79 1.05,1.06l-1.46 -0.05zm-19.89 23.58c-0.52,-0.07 -4.34,0.27 -5.35,0.31 -0.47,1.71 0.36,3.51 -0.5,5.33l-1.21 0.06c-0.41,-0.94 -0.52,-12.61 -0.28,-13.74 0.18,-0.86 1.12,-1.46 1.64,-0.59 0.33,0.54 0.18,4.53 0.23,5.53 0.88,0.16 4.57,-0.22 5.38,-0.53 0.38,-1.94 -0.03,-5.99 -1,-7.16 -2.31,-2.8 -9.37,-2.45 -11.24,1.77 -0.91,2.04 -0.6,5.39 -0.57,7.83 0.06,5.56 -0.65,10.89 5.95,10.66 2.55,-0.09 4.64,-1.18 5.7,-2.51 1.41,-1.77 1.4,-4.36 1.25,-6.95zm-24.02 9.62c1.81,-0.15 3.93,0.15 5.55,-0.5l-0.05 -0.79c-0.4,-2.94 -1.05,-5.77 -1.36,-8.66 -0.31,-2.81 -1.07,-5.7 -1.25,-8.51 -0.32,-0.64 -0.3,-1.25 -0.49,-2.04 -0.86,-0 -7.54,0.61 -7.9,0.79l-2.56 21.12c6.51,-0.27 5.7,0.09 5.79,-2.33 0.02,-0.67 0.08,-1.2 0.16,-1.83 2.47,-0.53 2.09,0.05 2.11,2.75z"/>
   <path class="fil3" d="M54.56 11.31c-0.51,0.71 -0.15,1.64 -0.78,2.25 -0.69,-0.55 -0.32,-0.64 -0.72,-1.39 -0.59,0.13 -1.71,1.09 -2.16,1.53 -1.68,1.63 0.3,2.69 2.43,7.48 0.94,2.13 2.37,6.4 2.5,8.87 0.05,0.93 -0.18,3.04 0.17,3.64 0.92,-0.44 1.63,-4.43 1.68,-5.78 0.05,-1.34 -0.11,-2.61 -0.08,-3.89 0.01,-0.66 0.18,-1.05 0.25,-1.71 0.11,-1.08 -0.16,-0.92 -0.48,-1.57 1.36,0.53 1.95,2.85 2.43,3.42 0.1,-2.28 -1,-4.17 -1.21,-5.15l0.42 -0.05c2.45,0.7 4.17,2.65 4.63,2.89 -0.23,-0.94 -1.13,-2.05 -1.66,-2.59 -1.1,-1.14 -1.92,-1.41 -2.44,-1.97l1.97 -0.63 5.01 -0.48c0.56,-0.02 2.14,0.22 2.32,0.1 -1.53,-0.28 -0.11,-0.52 -3.04,-0.61 -1.14,-0.04 -2.72,0.04 -3.77,-0.07 7.13,-0.08 4.08,-0.71 11.37,1.95l3.24 1.38c-0.46,-1.1 -3.36,-3.95 -4.43,-4.77 -3.03,-2.29 -4.57,-2.3 -6.28,-3.2 0.71,0.05 0.9,0.2 1.52,0.38 1.02,0.29 0.83,-0.07 1.77,-0.06 1.05,0.02 2.49,0.45 3.46,0.55 -0.34,-0.73 -2.32,-1.72 -3.52,-1.93 -1.98,-0.35 -3.12,-0.47 -5.22,-0.43 -4.46,0.08 -5.7,0.29 -9.4,1.81z"/>
   <path class="fil1" d="M21.4 84.57c-0.15,-0.36 -0.57,-2.57 0.47,-3.07l-0.05 2.18c-0.05,1.14 -0.16,0.82 -0.42,0.9zm7.74 -0.59c-0.21,-0.21 -0.13,0.18 -0.28,-0.53l-0.05 -1.63c1.04,0.4 1.16,1.45 0.32,2.16zm-1.27 -2.48c-0.82,0.06 -0.68,0.11 -1.07,-0.13 0.1,-0.47 -0.2,-0.58 0.49,-0.34 0.3,0.11 0.43,0.23 0.58,0.46zm-6.52 -3.14c-0.25,-0.67 -0.33,-1.87 0.05,-2.56 0.26,0.14 0.37,-0.11 0.35,1.28 -0.02,1.52 -0.2,1.16 -0.4,1.28zm7.84 -1.41c-0.42,-0.21 -0.41,-0.23 -0.44,-0.87 -0.03,-0.51 -0.04,-0.65 0.25,-0.97 0.44,0.43 0.35,1.25 0.19,1.84zm-1.17 5.23c0.01,0.61 -0.08,1.55 0.17,2.02 0.24,0.44 0.86,0.74 1.55,0.37 0.9,-0.49 0.72,-2.44 0.12,-3.04 -0.89,-0.9 -4.39,-1.42 -4.87,-3.63 -1.35,-6.22 5.67,-5.49 6.97,-4.78 1.03,0.56 1.27,1.59 1.03,3.12l-2.77 0.33c-0.22,-0.61 -0.04,-1.5 -0.31,-1.84 -0.38,-0.49 -2.31,-0.77 -1.9,1.91 0.1,0.64 0.46,0.8 1.01,1.13 1.98,1.2 4.38,1.26 4.45,4.04 0.08,3.08 -1,4.28 -3.98,4.68 -2.87,0.38 -5.01,-0.95 -4.38,-3.95 0.63,-0.27 2.19,-0.42 2.9,-0.35zm-10.83 -3.59c0,-2.61 0.34,-3.75 2.19,-4.68 1.25,-0.63 4.16,-1.15 5.3,-0.13 -0.21,1 -0.49,0.81 -0.51,2.14 -0.03,1.63 -0.14,2.87 1.16,3.97 0.57,0.48 0.99,0.58 0.71,1.69l-1.64 0.2 -0.14 0.74c-0.01,2.39 0.33,2.68 1.27,4.03l-2.87 0.12 -0.07 -6.63c-0.68,-0.09 -1.93,1.35 -2.07,2.34 -0.35,2.43 0.08,3.06 1.62,2.97 -0.19,0.95 -0.89,1.71 -1.92,1.84 -3.23,0.42 -3.1,-1.68 -2.97,-4.38 0.1,-2.06 1.66,-2.22 3.94,-3.51 1.15,-0.65 1.4,-0.72 1.4,-2.37 -0,-1.07 -0.49,-2.46 -1.69,-1.65 -0.72,0.48 -0.42,1.94 -0.52,3.07l-3.19 0.23zm-8.79 -6.91c0.72,-0.26 3.4,-0.39 4.4,-0.43 1.53,-0.07 3.14,-0.19 4.2,0.63 1.81,1.39 0.12,2.92 -0.04,3.2 -0.38,0.68 -0.68,3.45 -0.39,4.41l1.28 -0.15c0.09,1.87 -1.15,0.83 -1.28,3.32 -0.08,1.6 0.15,2.89 0.15,4.31 -1.05,0.51 -6.99,1.23 -8.3,1.07l-0.03 -16.37zm-0.34 -0.84c-0.59,0.08 -0.47,0.03 -0.51,0.78 -0.13,2.92 0.09,14.54 0.16,17.15 0.75,0.17 6.88,-0.43 7.81,-0.64 2.3,-0.52 0.85,-0.66 3.27,-0.11 1.26,0.28 2.39,-0.13 3.17,-0.81 0.41,0.52 -0.22,0.28 0.56,0.38l2.41 -0.22c1.25,-0.18 1.77,-0.29 3.08,-0.18 2.3,0.18 4.02,-0.32 5.19,-1.58 1.25,-1.33 1.26,-4.16 0.74,-5.47 -0.79,-1.97 -3.38,-2.06 -3.9,-2.78l3.82 -0.43c0.14,-2.33 -0,-3.49 -1.47,-4.42 -1.17,-0.74 -3.21,-0.86 -4.73,-0.46 -1.12,0.3 -1.29,0.54 -2.13,0.89 -0.59,0.25 -1.32,-0.29 -2.12,-0.46 -1.99,-0.42 -3.15,0.47 -4.76,0.74 -0.6,-0.73 -0.31,-2.8 -4.51,-2.86l-0.55 -0.03c-1.62,0.65 -3.74,0.36 -5.55,0.5z"/>
   <path class="fil0" d="M12.08 73.61c0.35,-0.29 1.43,-0.28 1.79,0.1 0.64,0.69 0.38,7.31 0.38,8.67 0,1.79 0.07,3.4 -2.09,3.07l-0.07 -11.84zm24.51 11.91c1.99,0.19 4.69,-0.5 6.59,-0.53 -0.25,-0.46 -0.54,-0.59 -0.8,-1.09 -0.66,-1.29 0.1,-1.52 -1.12,-1.46 -0.42,0.02 -0.38,0.07 -0.85,-0l-0.06 -4.31 1.95 -0.38c-0.07,-0.62 -0.42,-1.16 -0.51,-2.27l-1.48 0.05 -0.02 -3.88c0.67,-0.39 2.01,-0.3 2.91,-0.43l0.04 -2.78c-1.92,0.15 -3.48,0.55 -5.52,0.55 -1.67,-0.01 -1.09,0.17 -1.09,4.67 -0,2.31 0.12,10.26 -0.04,11.88zm9.03 -4.9l-2.86 0.19c-0.29,3.16 0.59,4.03 3.57,4.02 1.43,-0.01 1.98,-0.02 3.11,-0.63 1.27,-0.7 1.25,-0.9 1.1,-2.61 -0.35,-4.01 0.83,-3.25 -2.74,-4.82 -0.9,-0.4 -1.83,-0.81 -2.09,-1.64 -0.41,-1.28 0.13,-2.43 1.34,-2.35 0.9,0.51 0.68,1.08 0.68,2.17l2.67 -0.22 0.08 -1.16 -0.98 0.07 -0.03 -2.14c-1.75,-0.78 -4.54,-0.48 -5.85,0.57 -1.61,1.28 -1.21,4.76 -0.3,5.59 1.16,1.05 4.08,1.64 4.48,2.8 0.35,1.02 0.19,2.59 -0.9,2.67 -1.33,0.09 -1.26,-1.38 -1.28,-2.5zm5.54 -9.45l-0.82 0.28 -0.02 1.18c0.59,0.29 0.15,-0.09 0.74,0.14 0.61,1.72 -0.46,9.63 0.78,10.82 0.64,0.62 2.51,0.5 3.44,0.3l0.12 -0.66c0,-0.14 -0.04,-0.54 -0.08,-0.68 -0.42,-1.47 -0.53,0.27 -0.56,-3.91 -0.02,-1.93 -0.09,-4.14 0.02,-6.05l0.6 -0.35 -0.06 -1.2 -0.64 -0.26 0.01 -1.97c-0.81,-0.02 -2.13,0.04 -2.94,0.13 -0.82,0.09 -0.61,0.32 -0.61,2.23zm8.41 1.67l0.02 -2.69 -3.4 0.39 0.03 13.26c0.69,0.05 2.95,-0.15 3.41,-0.43l0.12 -2.57c-0.01,-1.17 -0.14,-4.38 0.16,-5.32 0.29,-0.9 0.72,-0.98 1.46,-1.38 0.13,-3.02 1.02,-3.06 0.92,-4.14 -0.77,-0.13 -1.27,0.49 -1.61,0.99 -0.43,0.64 -0.56,1.15 -0.71,1.42l-0.31 0.39c-0.02,0.03 -0.06,0.07 -0.1,0.09zm6.04 1.71c-0.09,-1.15 -0.34,-3.61 1.05,-3.51 1.23,0.09 1.09,2.31 0.98,3.57l-2.04 -0.06zm5.06 2.97c-0.83,-0.12 -2.05,-0.17 -2.72,0.12 -0.53,1.32 0.66,4.04 -1.71,3.67 -0.87,-0.44 -0.64,-4.1 -0.57,-5.08 1.6,-0.43 3.41,-0.2 4.95,-0.52 0.08,-0.9 0.13,-4.43 -0.18,-5 -1.03,-1.94 -5.75,-2.1 -7.58,0.41 -0.86,1.18 -0.8,2.99 -0.76,4.66 0.07,3.61 -0.56,7.03 3.42,7.31 1.89,0.13 3.05,-0.14 4.23,-1.07 1.22,-0.97 1.01,-2.52 0.91,-4.49zm0.68 -11.35c-0.09,1.43 0.04,15.74 0.2,16.21l2.58 -0.16c0.3,-0.09 0.19,-0.05 0.34,-0.13 -0.23,-0.93 -0.58,-1.1 -0.62,-2.14 -0.1,-2.66 -0.15,-2.97 1.04,-4.55 0.16,-0.21 0.4,-0.69 0.07,-1.03 -0.28,-0.28 -0.58,-0.06 -1.08,-0.06 -0.51,-4.7 1.17,-3.96 1.15,-6.12 -0.01,-0.81 -0.01,-1.66 -0.05,-2.47l-3.18 0.27c-0.04,0.01 -0.08,0.02 -0.12,0.04 -0.04,0.01 -0.08,0.03 -0.12,0.05 -0.04,0.01 -0.09,0.04 -0.11,0.05 -0.03,0.01 -0.08,0.04 -0.11,0.06zm6.56 7.04c-0.05,-1.35 -0.16,-2.53 0.67,-3.27 1.11,-0.04 1.27,0.77 1.32,1.81 0.09,1.57 -0.03,1.7 -1.04,2.3 -1.11,0.65 -3.53,1.57 -4.01,2.57 -0.59,1.24 -0.36,4.62 0.64,5.25 1.01,0.65 3.75,0.52 4.08,-1.76 -1.15,0.17 -1.88,0.35 -1.57,-2.77 0.11,-1.1 1.14,-2.33 1.93,-2.48l0.21 6.84c0.97,0.01 2.71,-0.15 3.43,-0.5 -0.28,-1.39 -1.3,-2.62 -0.84,-4.58l0.82 -0.23c0.06,-2.41 -0.29,-1.73 -0.81,-3.35 -0.49,-1.53 0.04,-2.64 0.08,-3.87 -1.11,-0.93 -1.68,-1.16 -3.53,-1.07 -2.85,0.15 -4.71,1.59 -4.75,4.51 -0.02,1.17 0.16,1.06 1.16,0.86 0.7,-0.14 1.47,-0.21 2.2,-0.28zm-2.06 1.27c0.09,0.06 -0.23,0.31 0.52,0.12 0.53,-0.14 0.43,-0.27 0.55,-0.46 -0.11,-0.01 -0.55,-0.06 -0.64,-0.04 -0.66,0.13 -0.25,0.15 -0.42,0.38zm10.61 2.38c-2.86,0.02 -3.3,0.07 -2.92,2.15 0.4,2.18 2.15,2.26 4.21,2.2 2.95,-0.09 4.31,-1.39 4.22,-4.44 -0.09,-3.18 -2.29,-2.85 -4.46,-4.21 -2.29,-1.44 -0.58,-4.26 0.67,-3.12 0.41,0.37 0.29,1.22 0.3,1.88 0.71,0.08 2.39,-0.15 3.1,-0.3 0.22,-3.27 -1.68,-3.94 -4.82,-3.52 -2.84,0.38 -3.82,1.95 -3.37,5.08 0.33,2.27 3.46,2.54 4.82,3.73 0.64,0.56 0.81,2.69 -0.16,3.08 -1.65,0.66 -1.57,-1.38 -1.59,-2.53zm-58.45 5.31c-0.71,-0.07 -2.27,0.08 -2.9,0.35 -0.62,3 1.51,4.33 4.38,3.95 2.98,-0.39 4.06,-1.59 3.98,-4.68 -0.07,-2.78 -2.47,-2.83 -4.45,-4.04 -0.55,-0.33 -0.91,-0.49 -1.01,-1.13 -0.41,-2.69 1.51,-2.41 1.9,-1.91 0.27,0.34 0.09,1.24 0.31,1.84l2.77 -0.33c0.24,-1.53 -0,-2.56 -1.03,-3.12 -1.3,-0.71 -8.32,-1.44 -6.97,4.78 0.48,2.21 3.97,2.73 4.87,3.63 0.59,0.6 0.78,2.54 -0.12,3.04 -0.68,0.37 -1.31,0.07 -1.55,-0.37 -0.25,-0.47 -0.16,-1.41 -0.17,-2.02zm-10.83 -3.59l3.19 -0.23c0.1,-1.14 -0.2,-2.59 0.52,-3.07 1.2,-0.8 1.69,0.58 1.69,1.65 0.01,1.65 -0.24,1.72 -1.4,2.37 -2.29,1.29 -3.84,1.44 -3.94,3.51 -0.13,2.7 -0.27,4.8 2.97,4.38 1.03,-0.13 1.73,-0.89 1.92,-1.84 -1.54,0.08 -1.96,-0.54 -1.62,-2.97 0.14,-0.99 1.39,-2.43 2.07,-2.34l0.07 6.63 2.87 -0.12c-0.94,-1.34 -1.28,-1.64 -1.27,-4.03l0.14 -0.74 1.64 -0.2c0.27,-1.11 -0.15,-1.21 -0.71,-1.69 -1.31,-1.1 -1.19,-2.34 -1.16,-3.97 0.03,-1.33 0.3,-1.15 0.51,-2.14 -1.14,-1.03 -4.06,-0.5 -5.3,0.13 -1.84,0.93 -2.18,2.07 -2.19,4.68zm-8.79 -6.91l0.03 16.37c1.31,0.16 7.25,-0.56 8.3,-1.07 0.01,-1.42 -0.23,-2.71 -0.15,-4.31 0.13,-2.49 1.36,-1.45 1.28,-3.32l-1.28 0.15c-0.29,-0.96 0.01,-3.73 0.39,-4.41 0.16,-0.28 1.84,-1.82 0.04,-3.2 -1.07,-0.82 -2.67,-0.7 -4.2,-0.63 -1,0.04 -3.68,0.18 -4.4,0.43z"/>
   <path class="fil2" d="M42.09 17.88c-0.25,-0.23 -0.09,0.3 -0.28,-0.37 -0.09,-0.3 -0.02,-0.2 0.01,-0.43l0.29 0.05 0.02 -1.65c-0.14,0.09 -0.19,0.07 -0.18,0.1 -0.05,-0.55 0.31,-2.44 1.36,-2.78 0.8,0.64 0.72,2.73 0.52,3.75 -0.44,2.24 -1.37,2.53 -1.75,1.34zm-0.65 -7.01c0.04,2.68 -0.05,1.39 -2.39,4.3 -0.19,0.24 -0.27,0.38 -0.51,0.64 -0.37,0.4 -0.29,0.25 -0.63,0.5l0.34 0.39c0.93,-0.06 1.42,-0.1 2.06,0.32 0.66,0.43 0.94,0.51 1.42,1.02 1.67,1.76 1.62,0.27 2.94,-0.15 -0.02,-0.65 0.22,-1.76 0.38,-2.44 0.24,-1.04 0.71,-1.25 1.05,-2.02 -0.26,-0.38 0.05,-0.13 -0.46,-0.39l0.75 -0.03c-1.52,-0.63 0.03,0.77 -2.86,-1.45 -0.25,-2.93 1.37,-5.1 4.49,-4.43 0.82,0.18 2.88,0.81 3.39,1.21 0.51,0.41 1.51,2.43 1.63,3.11 0.84,-0.2 0.39,0.07 0.93,-0.01l0.11 -0.63c0.08,-0.94 -0.3,-1.08 -0.53,-1.87 -0.18,-0.64 -0.32,-1.31 -0.54,-1.95 -0.66,-1.88 -1.44,-2.17 -1.67,-3 0.63,0.25 0.66,0.61 1.41,0.62 0.02,-0.69 -0.48,-0.83 -1.1,-1.1 -0.6,-0.27 -0.96,-0.52 -1.56,-0.73 -0.89,-0.3 -3.33,-0.26 -4.22,-0.12l-0.38 -0.84c-1.45,0.08 -2.71,2.01 -3.38,3.06 -0.53,0.83 -0.52,0.41 -1.03,0.93 0.05,0.52 0.24,0.79 0.32,1.31 0.08,0.52 0.09,0.91 0.19,1.41 0.15,0.73 0.78,2.37 -0.15,2.32z"/>
   <path class="fil2" d="M17.25 24.03c0.63,-0.26 1.59,-0.08 2.31,-0.13 0.25,-0.63 0.37,-1.63 0.83,-2.15 0.44,0.41 0.53,1.42 0.86,2.1l2.36 0.08c-0.05,0.48 -1.31,1.21 -1.73,1.54l0.64 2.33c-1,-0.23 -1.26,-0.94 -2.13,-1.22 -0.75,0.41 -1.09,0.99 -1.94,1.25l0.64 -2.31 -1.47 -1c-0.46,-0.35 -0.22,0.06 -0.36,-0.48zm2.13 -3.5c-5.54,1.43 -3.46,9.7 2.11,8.33 5.39,-1.32 3.47,-9.77 -2.11,-8.33z"/>
   <path class="fil2" d="M20.21 9.22c0.23,0.19 0.07,0.02 0.25,0.26 0.09,0.13 0.07,0.1 0.16,0.3 0.06,0.14 0.14,0.42 0.21,0.64 0.43,1.28 0.21,0.99 2.81,1.05 -0.15,0.39 -1.51,1.29 -1.9,1.49l0.63 2.5 -1.98 -1.29c-0.78,0.28 -1.25,0.93 -2.1,1.24l0.6 -2.33 -1.92 -1.54 2.47 -0.13 0.76 -2.19zm-0.77 -1.13c-5.78,1.39 -3.61,9.66 1.9,8.4 2.06,-0.47 3.73,-2.62 3.19,-5.17 -0.45,-2.1 -2.65,-3.81 -5.08,-3.23z"/>
   <path class="fil2" d="M17.23 36.36l2.42 -0.03 0.69 -2.28c0.39,0.16 0.22,0.03 0.43,0.39 0.12,0.22 0.29,1.19 0.63,1.8l2.36 0.04c0.02,0.75 -0.85,0.67 -1.78,1.66l0.7 2.32c-0.97,-0.19 -1.3,-0.88 -2.14,-1.24 -0.88,0.33 -1.08,1.05 -2.08,1.29l0.67 -2.35 -1.55 -1.07c-0.58,-0.5 -0.1,-0.06 -0.35,-0.52zm2.23 -3.41c-5.48,1.72 -3.66,9.36 2.21,8.39 1.52,-0.25 3.62,-2.5 2.99,-5.35 -0.45,-2.05 -2.86,-3.77 -5.19,-3.04z"/>
   <path class="fil4" d="M43.88 68.21l0.06 2.64 2.99 -0.61c1.16,-0.11 1.92,0.4 3.45,0.26l-0.01 -2.1c0.99,-0.13 4.41,-0.6 5.17,-0.45 0.11,-0.03 0.39,-0.07 0.42,-0.08 0.54,-0.23 0.2,0.25 0.47,-0.33 -2.01,0.11 -6.14,0.75 -7.81,0.54l-0.09 -8.84c-0.55,-0.04 -1.57,0.69 -2.07,0.89 -0.06,1.44 0.27,3.94 -0.17,5.13 -0.48,1.3 -1.31,2.45 -2.4,2.95z"/>
   <path class="fil5" d="M43.52 21.25c0.64,0.11 0.47,-0.18 0.47,0.44 -0.58,0.03 -0.31,0.14 -0.47,-0.44zm2.23 -20.62c-0.55,0.59 -1.8,0.71 -3.54,2.92 -0.37,0.47 -0.56,0.9 -1.03,1.23 -0.59,-0.32 -0.88,-1.47 -2.04,-1.85 0.74,2.43 1.54,1.58 2.3,7.93 0.93,0.04 0.3,-1.59 0.15,-2.32 -0.11,-0.51 -0.11,-0.9 -0.19,-1.41 -0.08,-0.52 -0.27,-0.79 -0.32,-1.31 0.51,-0.52 0.5,-0.1 1.03,-0.93 0.67,-1.05 1.94,-2.99 3.38,-3.06l0.38 0.84c0.89,-0.15 3.33,-0.19 4.22,0.12 0.6,0.2 0.96,0.46 1.56,0.73 0.62,0.28 1.12,0.42 1.1,1.1 -0.75,-0.01 -0.78,-0.38 -1.41,-0.62 0.23,0.83 1.01,1.12 1.67,3 0.22,0.64 0.36,1.31 0.54,1.95 0.23,0.8 0.61,0.94 0.53,1.87l-0.11 0.63c-0.53,0.07 -0.09,-0.19 -0.93,0.01 -0.9,0.49 -1.61,1 -2.25,1.56 -0.65,0.58 -1.4,1.33 -0.87,2.69l2.69 5.05c0.86,1.81 1.55,3.6 2.09,5.64 0.55,2.07 0.81,3.93 0.8,6.1 -0.01,1.68 -1.34,0.66 -2.69,1.04 -1.83,0.51 -1.3,1.99 -5.26,-1.7 -1.28,-1.19 -3.99,-4.27 -4.86,-6.52 0.29,-0.78 0.55,-1.01 0.84,-2.09 0.18,-0.67 0.55,-1.31 1.08,-1.78l0.55 0.1c0.15,0.17 0.02,0.11 0.32,0.17 0.52,0.11 0.98,0 1.32,-0.29 1.06,-0.54 1.38,-2.16 0.4,-3.1 -0.84,0.24 -0.05,0.46 -1.19,0.57 0.32,-0.78 0.6,-0.54 0.84,-2.81 0.09,-0.84 0.23,-2.58 -0.46,-3.08l-0.75 0.03c0.51,0.26 0.2,0.01 0.46,0.39 -0.34,0.77 -0.81,0.98 -1.05,2.02 -0.16,0.68 -0.4,1.79 -0.38,2.44 0.25,0.4 0.16,0.61 0.48,0.78 0.04,-0.79 0.26,-0.55 0.43,-1.12 0.42,-1.39 -0.5,-2.96 0.76,-3.57 0.35,0.73 -0.09,4.2 -0.69,4.7l-0.05 0.49 0.91 0.02c-0.01,0.33 0.16,0.08 -0.26,0.45l-1.16 1.11c-0.74,0.44 -2.28,0.5 -2.92,-0.01 -0.36,-0.28 -0.59,-0.59 -0.8,-1.06 -0,-0 -0.2,-0.55 -0.2,-0.55 -0.02,-0.31 0.1,-0.23 0.12,-0.43 0.01,-0.05 0.04,-0.07 0.04,-0.11 -0.63,-0.6 -1.8,-1.34 -2.8,-0.72 0.64,0.32 0.67,-0.67 1.15,1.06 0.2,0.71 0.25,0.46 0.42,0.88 0.16,0.42 0.04,0.65 0.22,0.99 0.4,0.07 0.82,-0.2 1.38,0.57 0.39,0.53 0.31,1.02 0.26,1.65l-0.36 0.36c0.15,0.23 0.26,0.36 0.45,0.5 0.21,0.14 0.06,0.03 0.28,0.15 0.23,0.12 0.01,-0.06 0.29,0.15 -0.99,0.61 -2.85,-2.23 -3.21,-2.81 -0.72,-1.19 -1.63,-2.85 -1.81,-4.36 0.43,-0.35 0.23,-0.1 0.66,-0.31l-0.34 -0.39c-1.34,0.53 -0.35,1.92 -0.06,2.9 0.18,0.62 0.11,1.17 0.26,1.75 0.64,2.4 2.01,4.96 3.42,6.89 2.24,3.08 5.14,5.83 8.48,7.95 0.03,1.29 0.09,1.66 1.09,2.12 0.54,0.24 2.14,0.52 2.69,0.54l0.07 -0.7c-0.6,-0.07 -1.41,0.13 -1.9,-0.11 -2.06,-0.45 -0.66,-1.33 -1.48,-2.14 -0.8,-0.8 -3.46,-2.17 -6.02,-4.87 -1.19,-1.25 -5.36,-6.09 -5.5,-9.09l2.99 3.43c0.82,1.47 1.45,2.81 2.45,4 1.13,1.36 4.76,5.66 6.8,6 0.58,-0.37 0.97,-0.84 1.87,-0.99 0.81,-0.14 2.12,-0.18 2.65,0.21 0.73,0.24 0.34,0.22 0.81,0.48 0.13,-0.28 0.22,-0.83 0.37,-1.2 0.19,-0.45 0.31,-0.81 0.45,-1.28 1.33,-4.32 0.69,-8.36 0.94,-9.8 0.49,0.2 0.81,1.6 1,2.14 0.37,1.03 0.53,2.31 0.92,2.47 0.66,-1.29 -0.26,-6.08 -1.09,-7.43 2.15,0.18 4.99,4.17 5.63,4.39 -0.06,-1.82 -1.42,-4.06 -2.66,-5.24 -0.49,-0.47 -0.92,-0.7 -1.55,-1.14 0.52,-0.65 1.1,-0.43 1.96,-0.6 4.08,-0.8 7.63,-0.22 11.46,1.32 1.42,0.57 2.7,1.45 3.6,1.86 -0.07,-1.44 -2.83,-4.33 -3.57,-5.03 -1.4,-1.31 -3.25,-2.55 -5.33,-3.41 0.13,-0.1 0.13,-0.2 0.66,-0.12l4.76 1.19c-0.19,-1.06 -2.3,-2.26 -3.33,-2.73 -3.94,-1.79 -12.63,-1.28 -15.76,0.5l-0.53 0.08c-0.16,-2.2 -0.69,-3.57 -1.64,-5.21 0.94,0.32 1,1.09 1.78,1.2 0.05,-1.61 -1.64,-3.19 -2.58,-3.77 -1.92,-1.18 -3.24,-0.72 -5.54,-0.79 0.99,-1.43 3.09,-1.01 2.7,-1.82 -0.66,0 -1.32,-0.05 -1.98,0.03 -0.59,0.08 -0.98,0.29 -1.47,0.36zm1.2 18.49c0.13,-0.35 -0.14,-0.18 0.36,-0.22 0.07,1.01 -0.05,1.8 -0.86,2.06l-0.96 -0.03 1.46 -1.81zm7.85 18.88c0.46,1.06 0.31,7.64 0.31,9.39 -0,1.04 0.09,6.49 -0.08,7.27 -0.39,1.74 -0.42,1.45 -0.82,1.57 -0.17,-0.23 -0.08,-0.02 -0.17,-0.38 -0.09,-0.35 -0.01,0.06 -0.04,-0.28 -0,-0.01 0.01,-0.53 0.01,-0.58 0.01,-0.38 0,-0.77 -0,-1.15 -0.02,-2.46 0.22,-4.16 0.29,-6.59 0.03,-0.97 0.85,-7.98 0.06,-8.74 0.43,4.15 -0.88,13.26 -0.49,18.06 0.05,0.61 0.02,0.71 -0.03,1.29 -0.06,0.6 -0.1,0.96 0.24,1.32 -0.22,-1.71 -0.06,-1.35 0.67,-2.37 0.95,-1.32 0.83,-6.22 0.83,-7.84l-0.07 -8.75c-0.01,-0.39 -0.01,-0.91 -0.04,-1.29 -0.1,-1.1 -0.16,-0.46 -0.39,-1.14 0.16,-0.13 -0.18,-0.24 0.45,-0.05 -0.17,-0.36 0.28,-0.15 -0.31,-0.35 -0.53,0.38 -0.19,-0.02 -0.41,0.61zm-0.24 -26.7c3.7,-1.52 4.93,-1.73 9.4,-1.81 2.09,-0.04 3.24,0.08 5.22,0.43 1.2,0.21 3.18,1.2 3.52,1.93 -0.97,-0.1 -2.41,-0.54 -3.46,-0.55 -0.94,-0.01 -0.75,0.35 -1.77,0.06 -0.62,-0.18 -0.81,-0.33 -1.52,-0.38 1.71,0.9 3.25,0.91 6.28,3.2 1.07,0.81 3.97,3.67 4.43,4.77l-3.24 -1.38c-7.3,-2.66 -4.24,-2.03 -11.37,-1.95 1.05,0.11 2.63,0.04 3.77,0.07 2.93,0.09 1.51,0.33 3.04,0.61 -0.19,0.12 -1.76,-0.12 -2.32,-0.1l-5.01 0.48 -1.97 0.63c0.52,0.56 1.34,0.83 2.44,1.97 0.53,0.54 1.42,1.65 1.66,2.59 -0.46,-0.24 -2.18,-2.19 -4.63,-2.89l-0.42 0.05c0.21,0.98 1.31,2.87 1.21,5.15 -0.48,-0.57 -1.07,-2.9 -2.43,-3.42 0.33,0.64 0.6,0.49 0.48,1.57 -0.07,0.66 -0.24,1.05 -0.25,1.71 -0.02,1.27 0.14,2.55 0.08,3.89 -0.05,1.35 -0.76,5.33 -1.68,5.78 -0.35,-0.6 -0.12,-2.71 -0.17,-3.64 -0.13,-2.47 -1.56,-6.74 -2.5,-8.87 -2.12,-4.78 -4.11,-5.85 -2.43,-7.48 0.45,-0.44 1.57,-1.4 2.16,-1.53 0.39,0.75 0.03,0.85 0.72,1.39 0.63,-0.61 0.27,-1.54 0.78,-2.25z"/>
   <path class="fil6" d="M54.07 59.19c0.51,0.2 0.86,0.31 1.12,0.69 -0.67,-0.16 -0.28,-0.28 -1.18,-0.32l-0.01 2.64c0.92,-0.04 1.63,-0.41 2.22,-0.72 0.08,-2.09 -1.12,-3.06 0.16,-5.12 0.76,0.02 1.43,0.58 2.4,0.54 -0.33,-1.9 -1.05,0.08 -1.49,-4.06 -0.1,-0.94 -0.18,-1.47 -0.37,-2.37 -0.19,-0.91 -0.09,-1.84 -0.19,-2.76l-1.23 -9.95c-0.63,-0.19 -0.29,-0.08 -0.45,0.05 0.23,0.68 0.3,0.04 0.39,1.14 0.03,0.38 0.03,0.9 0.04,1.29l0.07 8.75c-0,1.63 0.12,6.53 -0.83,7.84 -0.73,1.01 -0.89,0.66 -0.67,2.37z"/>
   <path class="fil7" d="M51.97 37.63l1.46 0.05c-0.16,-0.27 -0.89,-0.37 -1.05,-1.06 -0.15,-0.67 0.13,-1.2 0.4,-1.54 1.06,-1.34 2.52,-0.66 2.94,-0.89 -0.53,-0.39 -1.84,-0.35 -2.65,-0.21 -0.91,0.15 -1.3,0.62 -1.87,0.99 -2.04,-0.34 -5.67,-4.64 -6.8,-6 -1,-1.2 -1.63,-2.53 -2.45,-4l-2.99 -3.43c0.14,3 4.31,7.84 5.5,9.09 2.56,2.7 5.22,4.07 6.02,4.87 0.81,0.81 -0.59,1.69 1.48,2.14z"/>
   <path class="fil6" d="M41.58 23.38c-0.67,-0.61 -0.98,-1.78 -1.27,-2.58 -0.18,-0.34 -0.05,-0.58 -0.22,-0.99 -0.17,-0.42 -0.22,-0.17 -0.42,-0.88 -0.48,-1.73 -0.51,-0.75 -1.15,-1.06 1.01,-0.62 2.17,0.12 2.8,0.72 -0.01,0.04 -0.04,0.05 -0.04,0.11 -0.02,0.2 -0.14,0.12 -0.12,0.43 0,0 0.2,0.55 0.2,0.55 0.2,0.47 0.44,0.78 0.8,1.06 0.64,0.51 2.18,0.45 2.92,0.01l1.16 -1.11c0.42,-0.37 0.25,-0.13 0.26,-0.45l-0.91 -0.02 0.05 -0.49 -0.49 -0.01c-0.32,-0.16 -0.23,-0.38 -0.48,-0.78 -1.32,0.42 -1.27,1.91 -2.94,0.15 -0.48,-0.51 -0.75,-0.59 -1.42,-1.02 -0.63,-0.41 -1.13,-0.38 -2.06,-0.32 -0.43,0.22 -0.23,-0.04 -0.66,0.31 0.19,1.51 1.09,3.16 1.81,4.36 0.35,0.58 2.22,3.41 3.21,2.81 -0.28,-0.21 -0.07,-0.03 -0.29,-0.15 -0.22,-0.12 -0.06,-0.01 -0.28,-0.15 -0.2,-0.13 -0.3,-0.26 -0.45,-0.5z"/>
   <path class="fil3" d="M17.23 36.36c0.25,0.46 -0.23,0.02 0.35,0.52l1.55 1.07 -0.67 2.35c1,-0.24 1.19,-0.95 2.08,-1.29 0.84,0.36 1.17,1.05 2.14,1.24l-0.7 -2.32c0.93,-0.99 1.8,-0.91 1.78,-1.66l-2.36 -0.04c-0.34,-0.61 -0.51,-1.58 -0.63,-1.8 -0.2,-0.36 -0.04,-0.24 -0.43,-0.39l-0.69 2.28 -2.42 0.03z"/>
   <path class="fil7" d="M19.44 11.41l-2.47 0.13 1.92 1.54 -0.6 2.33c0.85,-0.31 1.33,-0.96 2.1,-1.24l1.98 1.29 -0.63 -2.5c0.39,-0.2 1.75,-1.11 1.9,-1.49 -2.61,-0.05 -2.39,0.23 -2.81,-1.05 -0.07,-0.22 -0.15,-0.49 -0.21,-0.64 -0.09,-0.2 -0.07,-0.17 -0.16,-0.3 -0.18,-0.25 -0.02,-0.08 -0.25,-0.26l-0.76 2.19z"/>
   <path class="fil3" d="M17.25 24.03c0.14,0.54 -0.1,0.13 0.36,0.48l1.47 1 -0.64 2.31c0.85,-0.26 1.2,-0.84 1.94,-1.25 0.87,0.28 1.13,0.99 2.13,1.22l-0.64 -2.33c0.42,-0.34 1.69,-1.06 1.73,-1.54l-2.36 -0.08c-0.33,-0.68 -0.42,-1.69 -0.86,-2.1 -0.46,0.52 -0.58,1.52 -0.83,2.15 -0.72,0.05 -1.68,-0.13 -2.31,0.13z"/>
   <path class="fil6" d="M54.35 38.51c0.79,0.76 -0.03,7.77 -0.06,8.74 -0.07,2.43 -0.31,4.14 -0.29,6.59 0,0.38 0.01,0.77 0,1.15 -0,0.05 -0.01,0.57 -0.01,0.58 0.04,0.34 -0.05,-0.08 0.04,0.28 0.09,0.36 0,0.15 0.17,0.38 0.4,-0.12 0.43,0.17 0.82,-1.57 0.17,-0.78 0.08,-6.22 0.08,-7.27 0,-1.75 0.15,-8.33 -0.31,-9.39l-0.67 0.12c-0,0.46 -0.14,0.25 0.23,0.39z"/>
   <path class="fil8" d="M40.97 60.19c-0.5,-0.43 -1.24,-0.6 -0.88,-1.68 0.31,-0.93 1,-0.66 0.81,-1.99l-1.43 -0.01c0.01,1.61 -0.25,8.23 0.36,9.25 1.39,0.05 1.2,-1.02 1.19,-2.31 -0.01,-1.07 -0,-2.2 -0.05,-3.27z"/>
   <path class="fil8" d="M76.09 58.45c0.59,-0.02 1.33,-0.04 1.8,-0.3 0.05,-0.77 -0.73,-7.53 -0.95,-7.97 -0.34,1.03 -0.86,6.9 -0.85,8.27z"/>
   <path class="fil4" d="M64.17 54.78c1.29,0.09 1.76,-0.7 1.76,-1.94l0 -1.58c0,-1.28 -0.48,-2 -1.81,-1.92l0.05 5.44z"/>
   <path class="fil9" d="M42.14 15.48c-0.02,-0.87 -0.02,-0.8 0.79,-0.78 0.01,1.1 0.14,1.97 -0.29,2.84 -0.45,-0.01 -0.34,0.24 -0.53,-0.41l-0.29 -0.05c-0.03,0.23 -0.1,0.14 -0.01,0.43 0.2,0.66 0.04,0.13 0.28,0.37 0.38,1.19 1.31,0.9 1.75,-1.34 0.2,-1.02 0.28,-3.1 -0.52,-3.75 -1.05,0.34 -1.41,2.23 -1.36,2.78 -0.01,-0.02 0.03,-0 0.18,-0.1z"/>
   <path class="fil6" d="M64.22 59.87c0.94,0.08 2.1,0.17 2.86,-0.17 0.26,-2 -1.34,-1.43 -2.92,-1.43l0.05 1.6z"/>
   <path class="fil10" d="M46.41 59.53c0.67,-0.15 1.6,-0.68 2.07,-0.93l-0.04 -1.59 -2.01 0.56 -0.02 1.95z"/>
   <path class="fil11" d="M45.14 18.66l0.49 0.01c0.6,-0.5 1.05,-3.97 0.69,-4.7 -1.26,0.61 -0.34,2.18 -0.76,3.57 -0.17,0.57 -0.39,0.33 -0.43,1.12z"/>
   <path class="fil10" d="M40.93 53.76c-0.62,0.11 -1.22,0.53 -1.42,1 -0.3,0.71 -0.34,1.2 0.51,1.2l0.14 0.01 0.73 -0.03 0.03 -2.17z"/>
   <path class="fil12" d="M40.31 20.8c0.29,0.8 0.6,1.97 1.27,2.58l0.36 -0.36c0.05,-0.64 0.13,-1.12 -0.26,-1.65 -0.56,-0.77 -0.97,-0.5 -1.38,-0.57z"/>
   <path class="fil13" d="M42.14 15.48l-0.02 1.65c0.19,0.65 0.07,0.4 0.53,0.41 0.43,-0.87 0.29,-1.74 0.29,-2.84 -0.81,-0.03 -0.81,-0.09 -0.79,0.78z"/>
   <path class="fil8" d="M46.43 57.01c0.72,-0.04 1.74,-0.1 2.15,-0.58 -0.11,-0.91 -1.18,-0.6 -2.15,-0.55l-0 1.13z"/>
   <path class="fil10" d="M46.95 19.13l-1.46 1.81 0.96 0.03c0.81,-0.26 0.93,-1.05 0.86,-2.06 -0.5,0.04 -0.23,-0.13 -0.36,0.22z"/>
   <path class="fil14" d="M40.74 58.22c-0.42,0.39 -0.4,0.91 0,1.31 0,0 0.47,-0.04 0.15,-1.09l-0.15 -0.22z"/>
   <path class="fil15" d="M43.99 21.69c0,-0.62 0.17,-0.32 -0.47,-0.44 0.16,0.58 -0.11,0.47 0.47,0.44z"/>
  </g>
 </g>
</svg>
