<?xml version="1.0" encoding="UTF-8"?>
<!DOCTYPE svg PUBLIC "-//W3C//DTD SVG 1.1//EN" "http://www.w3.org/Graphics/SVG/1.1/DTD/svg11.dtd">
<!-- Creator: CorelDRAW -->
<svg xmlns="http://www.w3.org/2000/svg" xml:space="preserve" width="66.1069mm" height="34.1815mm" version="1.1" style="shape-rendering:geometricPrecision; text-rendering:geometricPrecision; image-rendering:optimizeQuality; fill-rule:evenodd; clip-rule:evenodd"
viewBox="0 0 165.33 85.49"
 xmlns:xlink="http://www.w3.org/1999/xlink"
 xmlns:xodm="http://www.corel.com/coreldraw/odm/2003">
 <defs>
  <style type="text/css">
   <![CDATA[
    .fil0 {fill:black}
    .fil18 {fill:#009494}
    .fil5 {fill:#00FCFC}
    .fil14 {fill:#2E2E2E}
    .fil13 {fill:#434300}
    .fil11 {fill:#4C4C4C}
    .fil3 {fill:#4E4E4E}
    .fil7 {fill:#6E6E6E}
    .fil1 {fill:#707070}
    .fil17 {fill:#767575}
    .fil19 {fill:#9B9B9B}
    .fil16 {fill:#B4AFAA}
    .fil15 {fill:#C4C3C3}
    .fil8 {fill:#CA6B7B}
    .fil9 {fill:#CE6D7E}
    .fil10 {fill:#E5DED6}
    .fil12 {fill:#F9F9F9}
    .fil6 {fill:#FAFAFA}
    .fil2 {fill:#FCFCFC}
    .fil4 {fill:#FDFD00}
   ]]>
  </style>
 </defs>
 <g id="Camada_x0020_1">
  <metadata id="CorelCorpID_0Corel-Layer"/>
  <g id="_2087168121456">
   <path class="fil0" d="M136.51 11.63c-0.27,-1.08 -0.53,-0.46 -0.64,-2.05 -0.19,-2.67 -1.47,-7.36 -4.52,-4.86 -1.16,0.95 -2.51,1.73 -3.32,3.04 -2.25,-0.56 -2.03,-2.28 -3.6,-2.28 -1.56,0 -1.89,0.59 -2.61,1.98 -1.35,2.61 -1.19,3.02 -0.99,5.54 -1.22,-0.11 -2.61,-0.46 -4.03,-0.46 -0.83,0 -1,1.6 -3.18,1.6 -3.16,0 -2.3,-3.19 -7.84,-3.19 -0.24,1.1 -1.58,2.42 -0.42,5.01 -5.3,3.02 -3.33,0.68 -5.94,0.68 -1.25,0 -1.64,0.47 -2.47,0.99 -5.18,3.18 -3.68,-1.44 -6.43,-1.44 -2.08,0 -2.39,0.66 -3.44,2.46 -1.91,3.28 -0.71,4.12 -4.17,2.75 -0.61,-0.24 -1.54,-0.54 -2.32,-0.72 -0.89,-0.2 -3.66,0.29 -5.34,0.29 0.61,-2.75 -1.57,-3.79 -2.93,-5.97 -0.71,-1.13 -2.58,-3.9 -3.51,-4.66 -1.55,-1.27 -6.99,-2.56 -9.25,-2.82 -3.62,-0.42 -7.42,-0.25 -11.12,-0.81 -3.5,-0.53 -7.31,-1.12 -10.78,-0.39 -6.34,1.33 -3.93,3.03 -7.81,4.6l-5.79 2.21c-1.95,0.85 -1.53,2.05 -4.06,4.07 -1.53,1.23 -2.88,2.57 -4.33,3.78 -0.78,0.66 -1.44,1.21 -2.17,2 -1.67,1.8 -2.15,1.61 -4.01,4.13 -1.8,2.44 -3.57,4.91 -4.79,7.84 -2.79,6.72 -1.55,4.57 -2.85,9.7 -0.24,0.95 -0.81,2.25 -0.81,3.46 0,1.16 0.46,2.79 0.4,3.41 -0.07,0.69 -0.22,0.6 -0.63,1.12 -0.11,0.14 -0.83,1.11 -0.83,1.16 0,2.39 3.15,6.47 4.62,8.26l2.33 2.96c2.27,2.81 5.75,7.61 8.48,9.57 3.67,2.63 13.78,6.34 17.94,7.61 5.76,1.75 13.05,2.38 20.05,2.38 1.57,0 2.19,-0.2 3.12,-0.97 0.85,-0.71 1.58,-1.32 2.39,-1.99 2.07,-1.74 4.73,-4.51 6.74,-5.98 0.87,-0.64 2.47,-0.41 3.87,-0.4 2.8,0.01 4.74,-0.92 7.63,-0.92 0.88,0 0.89,1.37 5.51,1.37 0.26,1.2 1.1,2.45 1.82,3.28l1.35 1.28c2.25,1.5 4.33,0.19 5.08,-2.29 0.22,-0.72 0.44,-5.07 0.44,-6.14 0.2,0.24 -0,-0.08 0.27,0.39l0.73 1.73c0.95,2.07 3.42,3.81 5.78,3.81 3.8,0 2.69,-0.58 5.24,-1.45 0.82,-0.28 3.47,0.71 4.35,0.95 3.14,0.84 1.47,0.63 2.43,3.31 0.92,2.55 3.99,2.91 5.92,1.66 1.55,-1.01 2.8,-1.53 3.82,-3.19 0.44,-0.73 1.16,-1.64 1.36,-2.42 0.85,0.21 1.55,0.81 2.42,1.04 1.25,0.33 2.16,-0.16 3.04,0.6 1.41,1.23 0.48,3.6 4.07,3.6 3.14,0 4.81,-3.29 6.43,-2.37 0.68,0.38 1.37,1 2.27,1 2.35,0 2.48,-1.91 4.03,-2.05 0.61,2.81 2.6,7.07 5.72,7.07 2.6,0 4.24,-0.28 4.44,-3.43 0.14,-2.16 0.27,-4.84 0.58,-6.67 0.38,-2.23 2.51,-2.22 4.13,-2.85 3.42,-1.33 4.64,-5.21 1.55,-7.66 -1.09,-0.87 -2.67,-0.9 -4.13,-1.26 0,-1.78 0.47,-2.87 0.76,-4.43 0.54,-2.87 0.6,-5.82 0.25,-8.74 -0.06,-0.47 -0.73,-3.4 -0.71,-3.49 0.16,-0.72 2.03,-0.53 2.83,-0.95 0.98,-0.52 1.11,-1.66 1.11,-3.14 1.05,-0.54 1.06,-0.32 1.06,-1.6 0,-1.39 -0.21,-1.66 -0.21,-2.96l4.45 -1.14c0,-7.29 -4.29,-4.61 -6.52,-7.58 -0.49,-0.66 -0.82,-1.61 -1.28,-2.27 -0.93,-1.32 -3.5,-1.53 -4.89,-2.04 -0.72,-0.26 -1.95,-0.81 -2.78,-0.88 0.29,-1.16 1.91,-2.49 1.91,-3.19 0,-8.9 -3.8,-6.33 -5.3,-7.3 -0.86,-0.55 -1.43,-4.59 -1.85,-5.76 -1.06,-2.97 -1.48,-8.14 -5.15,-8.14 -1.6,0 -1.28,3.92 -1.54,5.64 -0.11,0.76 -0.55,1.87 -0.71,2.88 -0.21,1.31 0.07,2.48 -0.72,3.1z"/>
   <path class="fil1" d="M59.46 77.85c-9.32,4.01 -20.44,3.17 -29.6,-1.22 -0.76,-0.37 -2.77,-1.62 -3.23,-1.73 1.74,-0.02 8.39,4.13 15.35,4.65 8.61,0.64 15.31,-2.4 17.48,-1.69zm-37.41 -5.02c-0.82,-0.32 -2.07,-1.13 -2.83,-1.63 -1.7,-1.09 -2.1,-0.8 -2.2,-1.84 1.22,0.45 4.72,2.41 5.03,3.47zm-19.06 -19.03c1.03,-1.24 1.63,0.8 1.8,1.85 -0.86,-0.26 -1.7,-0.95 -1.8,-1.85zm2.49 3.61c0.4,-2.6 -0.26,-2.3 -0.58,-4.26 1.75,0.94 1.51,2.32 1.32,4.92 0.89,0.59 1.14,0.36 1.57,1.37 -0.85,-0.3 -1.4,-0.71 -2.16,-1.2 -0.63,-0.4 -1.34,-0.63 -1.5,-1.7l1.35 0.86zm11.52 -30.59c0.21,-0.9 0.66,-1.27 1.22,-1.68 -0.02,1.27 -0.39,1.23 -1.22,1.68zm5.67 -9.5c-2.01,0.76 -10.55,8.83 -12.67,11.67 -0.51,0.68 -0.88,1.18 -1.37,1.95 -4.9,7.7 -3.98,9.69 -5.49,15.53 -0.88,3.41 0.33,3.27 0.27,5.97 -0.89,0.76 -1.03,0.96 -1.69,1.6 0.85,2.6 3.41,5.83 4.76,7.61 0.54,0.71 0.71,1.2 1.22,1.87 0.48,0.64 0.97,1.01 1.47,1.62 1.24,1.52 0.6,1.19 2.71,3.46 2.5,2.68 2.57,4 6.44,5.85l8.19 3.73c8.3,3.53 15.91,4.81 24.99,4.87 4.18,0.02 3.36,-0.26 8.01,-4.22 0.95,-0.81 2.44,-1.79 3.05,-2.91 -3.63,0.39 -4.88,1.44 -8.82,0.32 -1.18,-0.34 -6.45,-2.47 -7.28,-3.06 0.21,-2.25 1.4,-1.54 -0.35,-4.01 -1.89,-2.66 -7.07,-0.43 -13.04,-0.12 -4.86,0.26 -14.31,-0.76 -16.65,-4.06 1.34,0.49 2.32,1.34 4.05,1.89 1.52,0.48 3.05,0.72 4.71,0.9 3.52,0.39 7.05,0.44 10.65,0.37 16.4,-0.33 11.04,-7.28 7.06,-7.06l0.21 0.77c0,0.04 0,0.13 0,0.16l-0.03 0.31c-4.21,1.32 -9.57,1.4 -10.68,1.68 -2.37,0.62 -6.47,0.43 -5.7,0.07 -0.94,-0.55 -2.36,-0.57 -3.42,-0.99l-7.13 -4.58c-0.49,-0.26 0.02,-0.11 -0.71,-0.25 -1.19,-0.06 -2.4,-1.59 -3.28,-2.25 -1.94,-1.46 -5.52,-3.49 -5.61,-5.86 -0.06,-1.53 0.55,-3.8 1.28,-4.54l0.37 1.95c0.57,-1.09 0.59,-1.6 1.03,-2.77 0.71,-1.9 3.02,-5.8 4.43,-6.5l-0.29 1.59c1.67,-0.98 3.04,-3.26 5.68,-3.66 -0.38,0.71 -0.33,0.23 -0.37,1.17l7.7 6.98c1.52,1.21 2.41,2.35 3.9,3.54 0.61,0.49 1.39,1.38 1.99,1.74 0.77,0.46 1.84,0.52 2.54,0.98l-0.98 -0.01 2.97 0.86 -0.06 -0.59c1.04,-0.06 1.48,0.46 2.7,0.43 1.07,-0.02 1.65,-0.43 2.75,-0.47 0.15,0.21 0.38,-0.29 0,0.37l2.44 -0.25 0.1 -0.53c0.79,0.01 1.55,0.06 2.33,0.13 0.38,0.03 1.7,0.31 1.96,0.03 0.45,-1 0.32,-2.15 -0.34,-2.88 -0.86,-0.95 -1.96,-0.39 -3.25,-0.61 -0.74,0.63 -1.24,0.57 -2.4,0.51 -0.8,-0.04 -1.58,-0.18 -2.39,-0.32 -0.42,0.41 -0.13,0.3 -0.62,0.34 -0.34,0.03 0.02,0.75 -0.39,-0.12 -0.04,-0.09 -0.16,-0.04 -0.2,-0.11 -2.28,-0.19 -3.28,0.14 -5.46,-0.76 -0.82,-0.34 -1.42,-0.63 -2.2,-1.04 -2.34,-1.24 -2.07,-0.92 -1.55,-1.23l-2.02 -1.81c-1.08,-0.35 -2.2,-1.89 -2.89,-2.8 -1.04,-1.36 -1.86,-1.59 -1.78,-4.01 0.07,-1.84 0.18,-3.55 1.26,-4.57 0.95,-0.9 2.54,-1.41 4.25,-1.45 6.1,-0.14 2.9,2.91 3.99,7.21 0.4,1.59 1.07,2.85 1.73,4.06 0.69,1.26 1.73,2.33 2.2,3.74 -1.46,-0.52 -0.48,-0.93 -2.68,-0.81 1.11,0.69 1.74,-0.27 1.76,1.86 0.45,0.55 0.25,0.56 0.62,1.04l1.26 -0.16c0.09,-2.03 -0.64,-2.97 -1.3,-4.48 -3.84,-8.75 0.4,-11.84 -3.33,-14.02l0.24 -0.34c0.63,-0.72 0.63,-0.74 0.51,-1.92 -0.09,-0.93 -0.15,-1.45 -0.35,-2.26 -2.65,-0.41 -1.88,-0.05 -2.84,0.14 -1.23,0.24 -2.08,-1.21 -1.75,-2.79 0.16,-0.77 1.25,-2.43 1.65,-3 -1.33,0.18 -3.15,1.13 -4.38,1.67 -1.33,0.58 -2.92,1.58 -4.1,1.98 0.47,-1.54 4.82,-3.26 6.34,-4.06 0.19,-0.51 0.83,-1.21 -0.29,-1.07 -0.28,0.04 -1.28,0.56 -1.67,0.72 -1.33,0.52 -2.55,0.01 -3.99,0.06z"/>
   <path class="fil2" d="M90.42 30.23c-1.91,0.28 -1.88,-1.94 0.27,-2.01l-0.27 2.01zm5.49 5.63c-0.01,-0.03 -0.06,0.08 -0.09,0.12 -0.8,-0.58 -1.33,-3.24 -1.83,-4.69 0.59,-0.47 1.39,-0.93 2.23,-1.2l-0.66 -1.36 1.05 -0.72 -3.4 0.78c-2.81,-6.9 -0.47,-5.34 1.77,-5.54 1.01,0.98 -0.25,1.01 2.97,0.92 0.32,2.54 0.36,4.58 0.77,7.16 0.33,2.09 -1.55,2.04 -2.31,3.49l-0.49 1.04zm19.56 -10.21c0.23,-1.63 0.64,-1.89 1.12,-3.08 1,-2.49 -0,-2.31 1.16,-2.72 0.41,1.4 0.78,3.28 1.14,4.81 1.09,4.65 1.75,2.27 1.64,3.98 -1.04,0.22 -0.66,0.04 -1.34,-0.66l-3.73 -2.33zm-14.54 -1.67c6.61,-0.3 3.86,6.63 0.83,6.8 -0.11,-1.21 -0.16,-2.4 -0.26,-3.62 -0.1,-1.1 -0.48,-2.14 -0.57,-3.18zm7.73 -3.13c0.37,3.03 1.19,6.05 -0.97,6.34 -0.6,-1.52 0.44,-1.7 -0.82,-3.27 -0.43,-0.54 -6.36,-3.65 -1.88,-3.01 1.4,0.2 2.32,-0.25 3.67,-0.05zm3.69 2.45c-1.59,-1.53 -1.35,-3.72 1.84,-2.98 -0.23,0.51 -0.44,1.01 -0.76,1.59 -0.26,0.49 -0.63,1.11 -1.08,1.39zm-22.23 -2.5l-0.45 1.71 -1.69 0.11c-0.33,1.78 -0.99,3.4 -1.34,5.14 -0.4,2.04 -0.17,3.98 -2.07,4.57 -1.32,-1.5 -0.81,-4.95 -0.73,-7.25 -0.63,-0.7 -1.69,-1.27 -2.62,-1.77 -1.32,2.34 -1.17,3.77 -3.21,5.37 -0.66,-0.58 -1.26,-1.1 -1.96,-1.73 -0.72,-0.65 -1.18,-1.28 -1.87,-1.87 -0.6,-0.52 -4.05,-2.38 -4.78,-2.64 0.53,1.74 1.12,1.62 2.15,2.75 1.28,1.41 0.78,2.04 0.73,4.22 -0.03,1.68 0.13,3.51 0.31,5.17 0.22,2.04 0.22,2.98 2.33,3.04 1.11,-2.66 0.54,-3.49 0.76,-6.55 1.32,0.85 2.53,2.59 3.96,1.49 0.54,-0.41 0.47,-0.69 1.15,-1.15 0.61,3.13 0.63,6.09 1.13,9.29 2.28,0.41 2.32,-4.65 2.4,-6.93l1.35 0.42 -0.16 2.51 1.38 -0.22c0.37,0.55 0.23,0.65 0.86,0.94 0.71,-3.1 0.65,-4.61 3.87,-4.81 1.09,3.68 1.24,4.12 3.16,5.43 1.15,0.79 0.45,1.34 1.65,1.35 0.35,-0.75 0.09,-1.33 -0.11,-2.06 2.22,-1.72 3.5,-0.88 5.82,-0.26 0.02,-1.81 0.03,-2.25 1.24,-2.92 4.96,-2.74 4.7,-6.53 5.95,-5.44 0.32,0.28 0.26,2.06 0.28,2.54 0.04,0.87 0.1,1.81 0.23,2.66 1.05,-0.42 0.86,-0.12 0.99,-1.3 0.33,-2.96 0.79,0.38 2.3,-5.26 2.96,0.33 4.37,2.51 6.13,3.72 0.97,0.67 1.32,0.2 2.58,0.2 0.61,0.96 1.42,2.01 2.84,2.25 -0.51,-1.15 -1.14,-1.71 -1.72,-2.5l3.36 -0.48 -0.17 -1.61c2.53,-3.29 1.44,-3.76 1.03,-8.45 -0.36,-4.07 -0.23,-5.71 -1.42,-9.31l-0.53 -0.03 -0.37 1.67 -1.62 -0.27c0.09,3.35 2.01,12.45 -0.33,14.07 -0.79,-1.01 -1.55,-4.73 -1.89,-6.37 -0.57,-2.73 -0.81,-4.57 -3.39,-4.96l-0.36 3.43c-1.53,-0.64 0.06,-1.05 -2.03,-1.36 -2.27,-0.34 -4.85,0.15 -5.79,-0.62 -0.85,-0.7 -0.54,-1.23 -1.73,-1.64l0.47 2.68c-3.03,1.36 -3.57,2.89 -7.76,2.96 -3.45,0.06 -5.81,1.2 -9.15,1.52 -0.02,-1.28 0.17,-2.72 -1.02,-2.89l-0.18 1.41z"/>
   <path class="fil3" d="M24.59 16.75c0.03,-2.13 0.66,-2.35 2.6,-2.38 -0.35,1.44 -1.15,2.01 -2.6,2.38zm9.1 6.93c0.19,0.82 0.25,1.33 0.35,2.26 0.12,1.17 0.12,1.19 -0.51,1.92 4.15,-0.53 1.37,4.84 2.59,6.71 0.12,-0.81 -0.11,-1.24 -0.24,-2.15 2.22,0.44 0.98,0.67 2.55,1.7 1.16,0.76 1.63,0.74 1.64,2.49 -1.96,-0.18 -1.46,-0.98 -2.56,-1.7 -0.53,1.07 0.53,2.18 1.32,2.39 1.72,0.46 2.5,-0.03 3.78,-0.38 0.08,1.03 -0.13,1.19 -0.43,1.87l0.4 -0.01 -0.09 0.65 0.73 -0.33c0.18,0.41 0.24,-0.38 0.12,0.72 0.97,-0.88 1.37,-1.97 2.32,-3.01 0.95,-1.05 2.19,-1.42 2.99,-2.22 -1.43,-0.94 -3.95,-1.5 -5.77,-1.88l3.33 0.21c-0.04,-2.98 -1.12,-4.71 -0.32,-7.27 0.65,0.88 -0.06,1.83 0.54,3.24 0.56,-0.15 0.13,0.46 1.14,-1.43 1.06,-2 3.17,-4.27 2.93,-5.06 0.14,-0.61 1.29,-2.61 1.76,-3.58 1.1,-2.28 1.27,-0.73 2.71,-2.32 0.64,-0.71 0.32,-0.79 1.61,-0.89l6.49 -1.74c-1.76,-1.06 -8.34,0.52 -10.71,0.56 1.4,-1.43 7.63,-1.99 9.96,-1.47 1.3,0.29 1.96,1.29 2.93,0.75 -1.89,-0.96 -3.09,-1.85 -5.63,-2.17 -2.27,-0.29 -4.86,0.05 -7.09,0.3 -3.15,0.35 -6.46,1.05 -9.34,2.28 -1.01,0.43 -1.7,0.87 -2.82,1.15 4.04,-3.6 13.24,-4.94 18.95,-4.32 4.47,0.48 11.46,5.12 12.71,8.46 0.5,1.35 0.06,1.48 1.53,1.66 0.49,-2.09 -0.9,-3.34 -1.8,-4.57 -3.46,-4.73 -2.58,-4.73 -7.15,-5.99 -5.6,-1.54 -11.41,-2.01 -17.15,-2.58 -4.03,-0.4 -7.9,0.33 -11.73,0.81 0,0 -0.05,0.55 1.13,0.64 0.96,0.07 3.04,-0.61 3.8,-0.25 -2.69,1.62 -5.8,0.29 -6.34,0.24l-0.35 1.04c1.21,1 4.07,0.5 5.71,0.58 -1.46,0.83 -3.59,0.44 -5.31,0.13 -2,-0.37 -2.92,0.57 -4.33,1.39 -3.79,2.2 -5.73,0.06 -7.4,4.82 1.45,-0.04 2.66,0.46 3.99,-0.06 0.39,-0.15 1.39,-0.68 1.67,-0.72 1.12,-0.15 0.48,0.56 0.29,1.07 0.6,-0.11 3.25,-0.79 2.14,0.41 -0.4,0.57 -1.49,2.23 -1.65,3 -0.33,1.58 0.52,3.03 1.75,2.79 0.95,-0.18 0.19,-0.55 2.84,-0.14z"/>
   <path class="fil4" d="M121.72 40.99c0.04,2.89 -1.06,5.01 -2.29,6.53 -4.72,5.86 -7.75,1.3 -3.02,-4.15 2.47,-2.85 2.94,-2.95 5.3,-2.38zm9.67 2.19c1.2,-0.38 0.93,-0.67 1.22,-1.7 0.62,-0.05 1.25,-0.12 1.55,-0.22 -0.08,-0.71 -0.96,-0.77 -1.51,-0.9 -0.68,0.93 -0.96,1.22 -1.26,2.82zm-76.16 -2.39c1.1,-0.04 1.19,0.32 1.63,0.34l0.21 -1.01 0.64 -0 0.01 0.82 2.87 -0.42c-1.11,1.23 -1.95,1.25 -3.08,2.17 -2.23,1.8 -3.26,3.46 -4.85,5.95 -1.1,1.71 -0.68,2.25 0.28,3.86 1.46,2.45 4.09,3.18 7.05,3.58 4.73,0.65 4.74,-0.69 8.67,-1.4 -0.19,-0.91 -0.25,-0.93 0.31,-1.48 0.47,-0.47 0.88,-0.7 1.42,-0.99l1.25 0.65c1.85,-2.08 8.26,-8.67 3.84,-12.75 -3.73,-3.44 -9.93,-2.89 -15.69,-2.24 -0.16,0.83 -0.25,0.99 -1.08,1.08l-0.37 -0.73c-1.6,0.51 -2.94,1.16 -4.37,1.79 -1.45,0.64 -3.4,0.93 -3.42,2.74 1.69,-0.77 3.36,-1.81 4.69,-1.97zm8.02 14.74c-0.2,-0.33 -0.25,-0.4 -0.2,-1.02l0.72 0.43c-0.25,0.57 0.08,0.25 -0.52,0.59zm-5.2 -4.19c0.14,-3.36 2.67,-6.12 5.44,-7.45 1.42,-0.68 2.93,-1.17 4.2,-2.11 1.37,-1.01 2.95,-1.17 4.27,0.3 1.86,2.09 -3.43,6.02 -4.71,6.97 -2.42,1.8 -5.6,3.52 -9.19,2.29zm42.89 -9.24l-0.22 -1.29 -1.3 -0.04c-1.84,0.32 -1.94,1.14 -2.58,2.74 -0.46,1.16 -0.91,2.77 -1.46,3.8 -1.05,-0.04 -3.02,-0.98 -3.96,-1.57 -1.23,-0.76 -3.02,-0.82 -4.02,-1.75 0.61,-0.41 1.66,-0.55 2.45,-0.7l2.22 -0.37c0.49,-0.18 0.3,-0.11 0.57,-0.33 -0.68,-0.55 -0.89,-0.57 -1.03,-1.1 0.12,-0.04 0.77,-0.21 0.78,-0.22 1.08,-0.43 0.49,-0.09 0.67,-0.75 -1.04,-0.31 -1.19,-0.15 -2.1,0.25 -2.97,-0.02 -8.49,0.42 -9.3,4.1 0.96,1.24 5.46,2.44 7.4,2.97 -0.66,1.88 -3.88,2.95 -5.98,3.67 -1.68,0.58 -5.62,2.06 -7.26,2.12l0.42 1.85c1.48,-0.32 3.42,-0.15 7.29,-1l5.16 -1.05c0.78,-0.31 0.56,-0.25 0.8,-1.42 2.62,-0.29 3.13,-1.49 5.04,-2.31 -0.3,2.54 -0.96,4.25 -1.14,7.21 1.31,-0.38 1.5,-1.12 2.1,-2.09 0.71,0.1 0.62,0.24 1.62,0.17 1.55,-3.93 2.38,-6.97 6.71,-7.33 -0.13,1.1 -0.44,2.76 -0.4,3.85 0.13,3.54 4.29,2.78 4.76,-4.28 0.73,-0.68 1.11,-0.58 1.73,-1.53 0.57,-0.88 0.44,-1.57 1.69,-1.4 -5.38,8.84 4.88,9.72 7.7,8.53 0.98,-0.42 1.2,-0.9 2,-1.49 1.34,-0.98 0.84,-0.23 1.3,-2.25l1.37 -0.07c1.98,-4.78 2.52,-8.72 -2.23,-10.57 -2.19,-0.85 -4.28,-0.72 -6.38,0.11 -1.39,0.55 -4.11,1.63 -5.24,2.36 -0.74,-1.59 0.2,-0.92 -1.44,-1.65 -1.09,-0.49 -0.67,-1.08 -0.99,-2.38 -1.14,0.25 -0.89,0.48 -1.14,1.79 -0.33,1.79 -1.61,4.91 -2.21,6.46l-3.78 0.24c0.33,-1.78 0.67,-1.18 0.38,-3.27zm8.85 1.44c-0.1,-0.94 -0.14,-0.84 0.6,-1.19l3.87 -0.88c-0.46,1.34 -3.55,2.55 -4.46,2.07z"/>
   <path class="fil2" d="M130.89 20.33c0.94,-0.14 1.2,0.31 1.98,0.7 1.13,0.56 0.78,0.15 1.89,-0.22 -0.36,5.29 -4.11,6.04 -3.86,-0.47zm11.73 -2.77c0.72,0.37 1.17,1.14 0.98,2.15 -0,0.01 -0.12,0.39 -0.17,0.48 -0.21,0.36 -0.11,0.17 -0.35,0.37 -1.09,-0.67 -0.97,-1.72 -0.46,-3zm-2.51 -8.54c0,3.48 0.49,10.52 -0.87,13.03 -1.16,-0.35 -1.72,-1.22 -2.1,-2.45 0.39,-0.98 1.02,-0.76 0.97,-1.98 -0.09,-2.37 -0.04,-0.81 0.49,-2.59 -3.17,0.35 -5.03,2.07 -7.17,3.17 0.18,-2.53 1.44,-4.44 2.96,-5.38l0.07 -1.89 -1.64 -0.66c0.36,-1.07 0.72,-1.11 1,-2.43 -1.75,0.38 -4.47,3.46 -5.02,4.84 -1.48,3.71 -1.86,12.95 2.35,15.85 3.8,2.62 4.6,-0.55 5.68,-2.25 0.11,2.78 -0.3,7.94 2.16,8.53 0.28,-3.56 -0.03,-6.29 -0.11,-9.7 1.34,0.74 0.97,1.04 1.08,2.85 0.41,0.39 0.68,0.36 0.89,0.85 0.26,0.59 0,0.74 0.33,1.46 0.51,-0.16 0.14,0.11 0.49,-0.34 0.1,-0.12 0.23,-0.47 0.27,-0.61 0.13,-0.46 0.21,-1.09 0.26,-1.54 0.13,-1.03 0.2,-2.18 0.37,-3.18 0.71,-0.49 1.21,-0.41 1.98,-0.58 0.78,0.85 1.76,4.6 2.38,6 0.32,0.74 3.03,4.51 3.57,5.06 -0.13,-4.54 -3.06,-7.83 -3.4,-12.76l1.64 -0.49c-0,-1.31 0.31,-1.89 -0.53,-2.48 0.5,-1.13 0.28,0.26 0.78,-0.94l-2.95 0.17c-1.61,-2.01 -3.01,-12.75 -4.83,-14.22 -0.22,0.95 -0.22,1.66 -0.2,2.7 0.04,1.85 0.27,1.52 -0.9,1.95z"/>
   <path class="fil4" d="M134.17 41.26c-0.3,0.1 -0.93,0.16 -1.55,0.22 -0.29,1.03 -0.02,1.32 -1.22,1.7 -0.63,0.98 -0.88,1.96 -2.13,2.19l0 -1.38 -0.58 -1.15 0.37 -0.41 -0.21 -3.62 -2.08 -0.4c-0.24,0.7 -0.47,0.88 -0.59,1.52l-1.22 9.86c-0.3,1.77 0.18,2.41 0.55,3.77 2.96,0.03 2.53,-0.65 4.03,-2.25 1.11,-1.19 1.8,-2.68 3.17,-3.52 0.25,0.34 1.46,3.31 2.51,5.06 3.73,0.17 2.94,-2.63 5.37,-7.89 1.01,-2.2 3.49,-7.53 3.36,-10.4 -1.96,1.29 0.01,2.16 -4.27,2.43 -0.87,1.42 -1.21,2.75 -1.82,4.57 -0.36,1.06 -1.43,3.88 -2.18,4.32 -0.48,-0.68 -0.44,-1.44 -0.65,-2.32 -0.17,-0.71 -0.47,-1.65 -0.84,-2.3z"/>
   <path class="fil5" d="M85.04 65.81l0.38 -0.36c0.66,0.21 0.87,0.4 0.63,1.05 -0.19,0.23 0.39,0.32 -0.68,0.45 -0.6,0.07 -0.47,-0.11 -0.59,-0.16 -0.02,-0.48 -0.07,-0.12 0.05,-0.65 0.01,-0.05 0.08,-0.07 0.09,-0.17 0.01,-0.1 0.08,-0.11 0.11,-0.16zm-25.62 2.28c-0.73,-3.28 3.14,-7.02 4.03,-6.4 1.03,0.71 -0.43,6.87 -4.03,6.4zm12.58 -6.81l0.28 -1.76 -2.73 0.39c-1.52,0.3 -3.27,0.89 -3.13,2.74 0.13,1.62 2.03,1.67 3.05,3.01 -0.35,1.91 -1.05,2.12 -2.65,2.81 -1.42,0.6 -2.65,0.91 -4.01,1.41 0.52,-1.38 7.08,-8.45 0.4,-10.21 -1.42,-0.37 -3.33,0.13 -4.68,0.46l-0.53 -2.37c-1.14,1.49 -2.23,5.27 -3.21,6.16 -0.22,-1.3 -0.41,-2.93 -0.96,-4.02 -2.14,-0.09 -2.32,1.44 -3.46,4.56 -0.78,2.14 -1.48,4.13 -1.44,6.73 1.27,-0.35 1.66,-1.72 2.25,-3.12 0.27,-0.63 0.48,-1.28 0.76,-1.93l1.04 -1.9c0.13,0.91 0.33,2.47 0.51,3.39 0.27,1.33 0.81,1.68 2.03,1.77 1.22,-2.32 1.04,-7.13 3.8,-7.39 -0.89,1.91 -3.74,4.74 -1.61,7.45 1.17,1.49 1.86,0.88 3.27,1.73 0.81,0.49 0.63,0.67 1.8,0.77 2.65,0.24 7.2,-1.94 8.99,-3.63 2.97,-2.8 -0.61,-4.71 -2.24,-6.01 0.57,-0.94 1.18,-0.8 2.46,-1.04zm36.93 10.05c-2,-3.27 1.64,-6.66 3.21,-8.4 0.55,-0.61 1.29,-1.9 2.39,-1.49 2.54,0.95 -1.86,10.31 -5.6,9.88zm-5.04 -6.34c1.07,-1.65 2.49,-2.71 5.25,-2.77 -0.46,1.24 -0.45,0.64 -1.16,1.49 -0.37,0.44 -0.7,1.18 -0.97,1.68 -0.46,0.84 -1.38,2.66 -1.98,3.34 -0.07,0.08 -9.41,6.66 -7.41,-0.45 0.7,-2.49 2.55,-3.59 4.48,-4.63 0.83,0.52 0.67,0.92 1.79,1.33zm1.44 6.61c0.85,1.07 0.48,3.18 4.88,3.17 1.66,-0 2.41,-0.51 3.12,-1.65 0.99,-1.59 1.16,-1.47 2.27,-2.58 1.04,-1.03 2.71,-5.06 2.65,-7.39 -0.07,-2.64 -2.48,-4.75 -5.28,-4.36 -2.6,0.36 -4.71,1.88 -7.26,2.51 0.73,-1.14 0.89,-0.56 0.99,-2.25 -0.39,-0.44 -0.1,-0.11 -0.38,-0.33 -0.04,-0.03 -0.11,-0.08 -0.15,-0.11l0.24 -1.35c-1.29,0.13 -1.9,1.61 -2.89,2.34 -1,0.74 -6.03,0.95 -8.3,7.72 -0.79,2.35 -1.25,6.96 2.48,7.24 4.59,0.34 4.61,-1.92 7.64,-2.94zm27.41 0.67c0.07,-0.19 0.07,-0.64 0.52,-0.59 0.56,0.07 0.31,0.18 0.45,0.64 -0.62,0.18 -0.44,0.29 -0.97,-0.05zm-18.48 5.75l-0.08 0.53 0.42 -0.17c4.43,-1.73 6.01,-10.79 7.52,-12.37 1.19,2.32 -0.55,8.83 3.61,8.54 1.24,-1.36 2.21,-4.67 2.8,-7.17 0.91,-3.83 1.94,-3.99 5.91,-3.99 -0.52,4.02 -3.89,11.26 -3.48,14.89 0.71,-0.63 0.99,-1.5 1.23,-2.45l1.95 0.33c0.72,-1.09 2.93,-7.39 3.49,-9.02 0.61,-1.76 0.61,-3.31 2.14,-4.07 0.17,-0.08 5.66,-1.74 3.39,-1.84l-1.34 -0.17c0.79,-1.08 2.78,-0.85 4.4,-1.11 -1.03,-1.87 -5.24,-0.84 -7.1,-1.44 -0.95,-0.31 -0.86,-0.74 -2.01,-1.09 -0.98,1.56 0.18,1.63 -1.97,2.04 -1.02,0.2 -2.27,0.43 -3.1,0.68l-0.52 -0 -0.54 -0.94c-0.87,-0.74 -0.65,0.55 -0.69,-4.41 -1.52,0.74 -1.85,3.69 -2.52,5.39 -0.36,0.9 -0.9,1.74 -1.31,2.69 -0.37,0.87 -0.65,2.21 -1.31,2.88 -0.47,-2.2 -0.19,-6.44 -2.47,-6.7 -2.41,-0.27 -2.98,3.19 -3.73,5.32 -0.93,2.62 -4.51,11.56 -4.69,13.66zm31.97 -9.87c0.4,-1.18 0.38,-1.07 1.44,-1.5 0.21,0.58 0.26,1.19 0.17,2.01l-0.44 0.23 -1.21 0.06 0.04 -0.8zm-6.36 2.06c-1.53,0.11 -1.55,0.16 -1.45,1.84 0.53,0.41 0.63,0.32 1.03,0.91 -0.45,0.82 -1.14,1.57 -1.25,2.67l1.68 -0.3 -0.27 1.67c1.26,-0.64 2.12,-1.81 2.95,-3.19 0.85,-1.41 0.93,-1.76 4.51,-1.76 0.02,1.79 0.02,4.63 0.26,6.33 0.24,1.69 0.5,1.05 1.3,1.79 0.52,0.48 0.74,1.34 1.42,1.88 0.29,-2.73 0.07,-5.22 0.44,-8.38 0.51,-4.32 2.96,-1.78 5.43,-3.51 0.65,-0.46 0.22,-0.14 0.49,-0.46l-1.75 -0.42c0.82,-0.52 1.93,-0.48 2.6,-0.88 -0.91,-0.76 -3.97,-0.06 -5.55,-0 0.08,-3.66 1.52,-9.33 1.02,-12.47 -0.28,0.34 -0.99,1.93 -2.28,3.55 -2.83,-0.22 -4.13,2.11 -5.54,4.32 -0.74,1.15 -1.26,2.07 -1.93,3.17 -0.66,1.07 -1.55,2.08 -2.02,3.01l-1.1 0.23zm-50.18 -1.99c0.38,-0.41 0.2,-0.31 0.82,-0.46l-0.01 -0.58c0.21,-0.85 0.05,-0.26 0.95,-0.75 -0.79,-0.55 -1.97,-0.22 -2.98,-0.09 0.18,-3.24 0.77,-5.62 1.16,-8.67 -1.58,0.42 -0.07,0.48 -2.37,2.22 -1.51,1.15 -3.36,3.12 -4.37,4.87 -1.17,2.02 -0.92,2.37 -1.93,2.67 -1.01,-0.88 -0.07,-1.78 -1.66,-2.96 -1.02,-0.75 -1.9,-1.16 -2.34,-2.24 0.83,-0.62 2.31,-0.66 3.09,-1.37 -0.33,-0.96 -0.32,-1.63 -3.07,-1.09 -1.16,0.23 -2.39,0.9 -2.91,1.65 -1.77,2.56 2.1,3.46 3.25,4.9 -1.18,2.98 -6.77,3.3 -8.56,4.88l-1.03 1.07c6.89,1.6 9.6,-2.94 12.22,-2.79 -0.23,1.38 -0.69,1.59 -0.87,2.48 3.85,0.23 1.94,-2.23 6.31,-2.65 -0.02,1.35 -0.46,3.38 -0.12,4.68 0.42,1.62 0.35,-0.58 1.79,3.33 0.16,-0.24 0.12,-0.11 0.26,-0.53 0.26,-0.78 0.4,-3.95 0.42,-4.78 0.05,-2.34 -0.24,-3.46 1.97,-3.83z"/>
   <path class="fil6" d="M151.11 42.03c0.53,0.63 0.45,0.82 0.41,1.95 -1.06,0.08 -1.34,-0.55 -1.24,-1.81l0.83 -0.13zm1.36 -1.35c-0.91,0.06 -0.8,-0.66 -0.62,-1.61 0.67,0.41 0.88,0.67 0.62,1.61zm0.1 -4.05c2.93,0.24 3.96,5.36 3.46,5.93 -1.02,1.15 -3.2,-4.69 -3.46,-5.93zm2.83 -1.57c0.49,0.77 0.76,1.03 1.04,2.13 -1.55,-0.35 -2.7,-1.61 -2.77,-3.55 1.14,0.22 1.2,0.6 1.72,1.42zm0.99 -1.15c-1.07,-0.29 -1.73,-1.75 -1.04,-2.5 1.17,-1.27 1.13,1.67 1.04,2.5zm-2.97 -3.44l-1.61 -1c-0.13,1.43 0.32,1.4 1.02,1.94 -0.39,2.22 -0.95,3.06 -1.56,4.97 -0.93,2.9 0.43,2.93 -2.46,4.22 -0.74,-0.75 -0.09,-0.77 -1.27,-1.15 -0.08,1.29 0.23,1.74 0.18,2.69 -0.03,0.65 -0.29,1.74 -0.37,2.54 1.71,-0.03 2.21,-1.12 3.06,0.78 0.47,1.07 0.44,3.35 0.51,4.72 1.07,-0.57 0.8,-1.01 1.54,-1.62 0.62,0.94 1.44,1.82 2.01,2.79 0.36,-0.66 0.06,-1.45 -0.15,-2.12 -0.78,-2.56 -1.21,-4.24 -1.49,-7.11 0.95,0.67 0.99,1.4 1.59,1.98 0.56,0.54 1.77,0.82 2.69,0.43 1.27,-1.35 0.23,-3.96 0.2,-5.98 0.99,1.1 0.65,1.75 2.14,2.13 -0.27,-1.96 -0.92,-2.89 -1.43,-4.54 0.97,-0.11 4.64,-0.06 5.16,-0.64 1.43,-1.59 -3.43,-1.28 -4.12,-1.43 -2.04,-0.47 -1.34,-2.21 -2.11,-4.09 -0.88,-2.16 -2.64,-0.17 -3.55,0.5z"/>
   <path class="fil6" d="M64.7 28.84l-0.26 1.53c-0.76,-0.21 -0.98,-0.26 -0.97,-1.1 0.51,-0.44 0.46,-0.32 1.23,-0.44zm-4.92 4.44c-0.3,-0.51 -0.27,0.1 -0.13,-0.82 1.18,-0.02 0.87,0.67 0.79,1.62 1.38,0.05 1.56,0.02 2.33,-0.64 0.54,-1.32 0.56,-1.83 2.3,-1.65 0.84,0.47 0.61,4.16 3.82,4.9l-1.41 -5.47 0.59 -0.18 1.05 -0.5 0.02 -1.64c-0.53,0.14 -1.49,0.66 -1.89,-0.01 -0.59,-0.22 -0.52,-0.1 -0.75,-1.04 -0.36,-1.47 -0.04,-3.82 -0.59,-5.08 -0.71,0.35 -0.15,-0.33 -0.58,0.77 -0.62,1.58 -0.19,0.96 -1.48,1.38 -0.66,0.21 -0.41,-0.02 -0.79,0.51 -0.18,0.25 -0.65,1.55 -0.86,2.04 -1.54,3.68 -0.5,3.45 -2.23,3.66 0.04,-2.6 1.19,-6.23 -1.88,-7.19 -0.68,1.72 -0.18,4.18 -0.71,5.88 -0.75,-0.5 -1.56,-2.48 -2.29,-3.39 -2.6,-0.04 -2.51,2 -2.83,4.5 -0.31,2.39 -0.55,4.83 -0.35,7.34 3.28,-1.62 2.14,-3.95 3.05,-7.85 0.63,0.81 1.21,1.54 1.71,2.52 0.89,1.75 0.84,1.28 3.12,1.31l-0.03 -0.96z"/>
   <path class="fil6" d="M26.22 53.9c0.33,0.82 1.16,0.98 1.76,1.73 -0.41,0.28 -0.68,0.27 -1.11,0.63 -0.26,0.22 -0.2,0.2 -0.42,0.46 -0.36,0.42 0.04,0.06 -0.42,0.49l-0.23 -0.86c-0.02,-0.05 -0.06,-0.13 -0.07,-0.17l-0.17 -0.33c-0.18,1.33 0.01,0.19 0.1,1.15 0.1,1.13 -0.05,3.03 -0.2,2.57 -0.01,-0.04 -0.06,0.13 -0.09,0.19 0.73,0.76 0.54,3.02 3.67,2.98 1.5,-0.02 2.32,-0.85 2.76,-2.1l0.49 -1.38c0.6,-0.28 0.34,0.29 0.19,-0.73 -1.13,-1.38 0.55,-1.26 -2.59,-2.23 -0.66,-0.17 -0.37,-0.04 -0.67,-0.46 0.17,-0.12 -0.01,-0.14 0.58,-0.32 0.32,-0.1 0.47,-0.08 0.78,-0.12 0.8,-0.33 1.03,-0.81 1.43,-1.45 2.45,2.67 3.11,1.88 6.01,0.83 2.52,-0.92 5.87,0.88 6.32,-2.29l0.29 -1.51 -2.44 0.25c-1.52,0.53 -1.91,0.66 -3.18,1.42 -0.92,-0.38 -0.86,-0.86 -2.22,-1.17l-2.97 -0.86c-0.91,0.05 -1.22,-0.15 -1.88,0.37 -1.26,-0.61 -0.36,-0.96 -2.59,-1.7l-0.73 -0.05c-0.43,0.63 -0.04,0.35 -0.63,0.63l-0.02 -0.86c-0.05,0.07 -0.08,0.16 -0.1,0.23l-1.64 4.65z"/>
   <path class="fil2" d="M19.77 44.84c-0.63,1.07 -0.34,1.25 -1.47,2.62 -0.02,0.03 -0.06,0.08 -0.09,0.1 -0.03,0.03 -0.07,0.07 -0.1,0.1l-0.53 0.43c-0.29,2.73 1.22,3.64 3.66,3.63l1.02 -1.31 -0.26 2.27c0.64,0.69 2.79,2.52 4.22,1.24l1.64 -4.65c0.03,-0.07 0.06,-0.16 0.1,-0.23 0,-0.9 -0.33,-1.26 -0.61,-1.85 -0.33,-0.25 -0.54,-0.48 -1.17,-0.55l-1.14 0.4c-0.17,0.36 0.07,0.07 -0.25,0.4 -0.12,0.12 -0.24,0.12 -0.35,0.16 0,-0.81 -0.08,-0.46 0.39,-0.85 -0.09,-1.87 -0.3,-2.5 -1.85,-2.81 -0.9,-0.18 -2.87,-0.24 -3.22,0.93z"/>
   <path class="fil2" d="M28.2 42.59l2.02 1.81c2.09,0.72 3.14,2.4 5.83,1.42 -0.02,-2.13 -0.65,-1.17 -1.76,-1.86 -1.95,0.12 -2.36,-1.05 -2.45,-2.97 -0.35,-0.46 -1.56,-3.3 -1.78,-3.99 -0.48,-1.47 -0.51,-3.17 -1.21,-4.44 -1.01,-0.53 -2.38,-0.54 -3.61,-0.32 -1.37,1.06 -1.15,4.36 -0.4,6.03 0.94,2.09 2.41,2.53 3.38,4.32z"/>
   <path class="fil2" d="M14.38 53.78l0.85 0.55 0.62 -0.07 1.06 -0.46c-0.25,0.93 -0.51,1.45 -0.1,2.44 0.63,1.87 2.73,2.86 4.07,1.03l0.11 2.92c0.45,0.58 0.77,0.99 1.81,1.24 0.8,0.19 1.88,0.22 2.63,-0.1l-0.08 -1.56c0.03,-0.06 0.08,-0.22 0.09,-0.19 0.15,0.46 0.31,-1.44 0.2,-2.57 -0.09,-0.97 -0.28,0.17 -0.1,-1.15 -0.16,-0.89 -1.1,-1 -2.01,-1.18 -1.14,-0.23 -1.24,-0.17 -1.87,0.64 -0.32,-1.84 -0.26,-2.16 -1.7,-2.95 -1.31,-0.71 -2.11,-0.12 -2.72,0.69 0.22,-0.61 0.44,-0.51 0.26,-1.44 -0.36,-1.92 -2.49,-1.65 -3.8,-1.24 -0.46,2.28 -0.29,2.02 0.66,3.41z"/>
   <path class="fil2" d="M32.48 58.54c0.15,1.01 0.41,0.44 -0.19,0.73 -0.41,2.18 0.33,3.55 2.28,3.62 1.93,0.07 2.37,-1.56 2.87,-3.12 0.64,2.37 2.24,3.8 4.11,1.5 -0.09,-6.23 -3.41,-7.06 -4.56,-3.9l-0.58 -1.2c-2.12,-0.25 -4.31,-0.35 -3.91,2.37z"/>
   <path class="fil7" d="M36.12 34.57c-0.52,3.34 1.18,7.74 2.39,10.06 0.2,-1.68 -0.33,-3.2 -0.1,-4.45l0.43 -0.94c0.81,1 0.3,2.78 0.2,4.34 -0.15,2.43 0.37,2.26 1.04,3.62 -0.26,0.35 0.42,0.32 -0.66,0.25 0.05,0.06 0.16,0.02 0.2,0.11 0.4,0.86 0.04,0.14 0.39,0.12 0.5,-0.04 0.2,0.07 0.62,-0.34 0.46,-0.77 0.55,-3.01 0.89,-4.03 0.41,-1.22 0.88,-2.28 1.92,-2.72l-0.09 -0.75c0.11,-1.1 0.05,-0.31 -0.12,-0.72l-0.73 0.33c-0.47,1.15 -1.08,0.9 -1.49,2.86 -0.25,1.17 -0.23,2.67 -0.74,3.54 -0.16,-0.2 -0.33,-0.17 -0.38,-0.92 -0.12,-1.59 1.45,-5.22 2.3,-6.12 0.31,-0.68 0.51,-0.84 0.43,-1.87 -1.28,0.35 -2.06,0.84 -3.78,0.38 -0.79,-0.21 -1.85,-1.31 -1.32,-2.39 1.1,0.72 0.6,1.52 2.56,1.7 -0.02,-1.75 -0.49,-1.73 -1.64,-2.49 -1.58,-1.03 -0.33,-1.26 -2.55,-1.7 0.13,0.91 0.36,1.34 0.24,2.15z"/>
   <path class="fil8" d="M15.43 58.26c0.73,0.14 0.22,-0.01 0.71,0.25l7.13 4.58c1.06,0.43 2.48,0.44 3.42,0.99 2.31,-0.14 4.6,-0.12 6.71,-0.81 -0.42,-0.35 -0.51,-0.7 -1.21,-0.78 -0.69,-0.09 -1.06,0.24 -1.62,0.48 -1.33,0.58 -2.13,0.24 -3.25,-0.27 -2.66,-1.21 -5.4,0.14 -6.32,-2.52l-0.34 -0.34c-1.83,-2.01 -4.07,-1.31 -4.15,-2.88 -0.06,-1.25 -0.07,-0.44 0.31,-0.73 -0.41,-0.99 -0.15,-1.51 0.1,-2.44l-1.06 0.46c0.5,0.53 0.52,0.37 0.49,1.46 -0.94,-0.54 -0.46,-0.54 -1.27,-1.09l0.16 -0.3 -0.85 -0.55c-0.74,2.09 -1.24,-2.63 -1.27,-3.14 -2.36,-0.24 -2.97,1.98 -2.97,2.02 0.48,1.39 4.14,4.63 5.29,5.6z"/>
   <path class="fil6" d="M142.65 52.47c0.76,0.24 1.1,-0.17 1.69,-0.45 0.04,2.44 -0.89,2.38 1.94,2.46 0.77,1.76 0.69,0.88 0.87,3.34l2.04 0.42 1.59 -6.72 -2.34 0.19c-0.19,1.41 0.04,1.98 -0.91,2.37 -0.27,-0.62 -0.13,-1.68 -0.03,-2.38 0.14,-0.94 0.3,-1.54 0.34,-2.57 -1,0.26 -0.44,0.12 -1.17,0.78 -0.43,0.38 -0.47,0.4 -1.04,0.69 0.23,-1.14 0.81,-3.05 0.41,-4.11 -0.98,0 -1.05,0.28 -1.47,0.94 -0.46,0.72 -0.52,0.71 -1.11,1.3 -0.68,0.67 -0.51,0.52 -0.7,1.76 -0.16,1.03 -0.34,1.36 -0.11,1.98z"/>
   <path class="fil6" d="M16.88 41.25c-0.9,1.46 -1.92,2.14 -2.32,4.3 -0.2,1.06 -0.13,2.01 0.53,2.53 0.81,0.64 1.58,0.17 2.5,0l0.53 -0.43c0.03,-0.03 0.07,-0.07 0.1,-0.1 0.02,-0.03 0.06,-0.08 0.09,-0.1 1.13,-1.37 0.84,-1.55 1.47,-2.62l-0.17 -0.3c1.14,-0.84 0.95,-1.7 0.53,-3.31 -1.11,-0.53 -2.15,-0.64 -3.25,0.03z"/>
   <path class="fil9" d="M9.56 51.92c2.27,-1.27 -0.03,-0.9 4.82,-2.87 -0.47,-2.41 -0.63,-3.03 -0.02,-5.45 -1.8,0.08 -1.78,2.58 -2.62,4.2 -0.23,-1.5 0.51,-2.27 0.8,-3.53l-1.07 0.62c0.49,-1.58 1.66,-2.4 2.36,-3.81 -1.3,0.59 -3.2,3.25 -3.98,4.88 -1.64,3.42 -2.25,4.37 -0.29,5.97z"/>
   <path class="fil10" d="M25.22 32.25c1.23,-0.22 2.6,-0.21 3.61,0.32 0.7,1.26 0.73,2.97 1.21,4.44 0.23,0.69 1.43,3.53 1.78,3.99 1.63,-1.07 0.58,-2.63 0.21,-4.31 -0.37,-1.63 -0.26,-4.01 -0.21,-5.78 -2.23,-0.55 -5.84,-1.21 -6.6,1.34z"/>
   <path class="fil8" d="M16.88 41.25c1.1,-0.67 2.15,-0.55 3.25,-0.03 -0.11,-0.82 -0.09,-0.18 0.22,-0.42 0.54,0.66 0.61,1.54 1.06,2.29 2.26,0.2 2.59,0.21 3.64,2.22 0.73,1.4 0.44,0.25 1.13,1.3 0.63,0.07 0.84,0.3 1.17,0.55 -0.1,-0.94 -0.08,-0.21 0.2,-0.48 0.7,0.45 0.33,0.45 0.84,1.2 0.49,0.72 0.56,0.39 0.95,1.42 2.22,0.74 1.33,1.09 2.59,1.7 -0.58,-1.92 -0.31,-1.31 -3.23,-3.89 -1.24,-1.1 -2.5,-2.24 -3.67,-3.36 -1.06,-1.02 -6.33,-6.15 -8.29,-5.24 -0.55,0.62 -0.62,1.36 -0.6,2.3l0.73 0.44z"/>
   <path class="fil6" d="M45.09 43.69l-0.93 1.97 -2.32 -0.26c0.76,1.69 1.37,1.83 3.52,1.59l2.79 -0.82c0.02,-0.1 0.04,-0.26 0.05,-0.23l0.12 -1.26c-0.04,-0.06 -0.09,-0.15 -0.11,-0.21l-0.19 -0.39c-0.25,-0.61 -0.18,-1.01 -0.75,-1.91l-1.47 0.43c-0.27,0.21 -0.03,0.8 -0.69,1.09z"/>
   <path class="fil11" d="M43.45 40.57c-0.42,1.25 -0.96,1.71 -1.13,3.19 1.15,-0.5 1.32,-2.4 3.26,-3.21 0.22,-0.49 1.42,-0.97 2.12,-1.15 0.59,0.42 0.43,0.48 1.05,0.77 0.52,-1.39 0.72,-2.13 0.7,-3.89 -3.68,0.27 -4.05,3.23 -6,4.3z"/>
   <path class="fil12" d="M141.23 49.88c1.42,-0.15 1.77,-0.94 1.94,-2.58 0.17,-1.55 -0.02,-3.05 -1.5,-3l-0.44 5.57z"/>
   <path class="fil10" d="M45.76 40.67c-0.22,0.64 -0.45,0.79 -0.57,1.33 -0.11,0.5 -0.05,1.15 -0.1,1.69 0.66,-0.29 0.43,-0.88 0.69,-1.09l1.47 -0.43c0.57,0.9 0.5,1.3 0.75,1.91l0.19 0.39c0.03,0.06 0.07,0.14 0.11,0.21 -0.04,-1.48 -0.08,-3.04 -0.62,-4.22l-1.93 0.21z"/>
   <path class="fil8" d="M44.62 50.99l-0.29 1.51c0.97,0.43 0.39,0.94 1.7,0.44 0.71,-0.27 1.29,-0.52 1.47,-1.42 -0.28,-0.31 -0.51,-0.53 -1.34,-0.59 -0.62,-0.05 -0.93,0.08 -1.53,0.06z"/>
   <polygon class="fil13" points="74.45,54.68 75.46,54.65 75.45,55.39 76.24,55.49 75.83,53.64 "/>
   <path class="fil14" d="M81.18 79.56c-0.02,-1.09 -0.09,-1.28 -1.06,-1.37 0.07,0.92 0.33,1.16 1.06,1.37z"/>
   <path class="fil15" d="M36.93 62.46c0.08,0.07 -0.13,0.29 0.59,0.27 0.99,-0.03 0.45,-0.15 0.61,-0.27 -0.44,-0.49 -0.83,-0.66 -1.21,0z"/>
   <path class="fil16" d="M41.54 61.27l0.35 0.96c0.94,-0.5 0.83,-0.87 -0.35,-0.96z"/>
   <path class="fil17" d="M29.9 56.31l-0.21 -0.48 0.89 -0.42c-0.3,0.04 -0.46,0.03 -0.78,0.12 -0.59,0.18 -0.41,0.2 -0.58,0.32 0.3,0.42 0.01,0.29 0.67,0.46z"/>
   <path class="fil18" d="M114.63 78.37l-0.42 0.17 0.08 -0.53c-0.43,0.48 -0.28,0.25 -0.41,0.93 1.05,-0.19 0.48,0.15 0.76,-0.57z"/>
   <path class="fil19" d="M25.05 47.01l-0.21 -0.3c-0.47,0.39 -0.39,0.04 -0.39,0.85 0.11,-0.04 0.23,-0.04 0.35,-0.16 0.32,-0.33 0.08,-0.03 0.25,-0.4z"/>
  </g>
 </g>
</svg>
