<?xml version="1.0" encoding="UTF-8"?>
<!DOCTYPE svg PUBLIC "-//W3C//DTD SVG 1.1//EN" "http://www.w3.org/Graphics/SVG/1.1/DTD/svg11.dtd">
<!-- Creator: CorelDRAW -->
<svg xmlns="http://www.w3.org/2000/svg" xml:space="preserve" width="59.9223mm" height="23.6594mm" version="1.1" style="shape-rendering:geometricPrecision; text-rendering:geometricPrecision; image-rendering:optimizeQuality; fill-rule:evenodd; clip-rule:evenodd"
viewBox="0 0 136.32 53.82"
 xmlns:xlink="http://www.w3.org/1999/xlink"
 xmlns:xodm="http://www.corel.com/coreldraw/odm/2003">
 <defs>
  <style type="text/css">
   <![CDATA[
    .fil0 {fill:black}
    .fil1 {fill:#FEFE00}
    .fil2 {fill:white}
   ]]>
  </style>
 </defs>
 <g id="Camada_x0020_1">
  <metadata id="CorelCorpID_0Corel-Layer"/>
  <g id="_2051437970592">
   <path class="fil0" d="M102.05 5.58c-0.4,-0.27 -0.51,-0.49 -1.12,-0.65 -1.63,-0.42 -5.14,-0.52 -6.3,0.59 -0.93,0.9 -0.53,1.59 -0.92,2.7 -0.86,0.17 -0.88,0.19 -1.86,0.05 -0.66,-0.1 -1.14,0.1 -2.65,-0.01 -1.72,-0.12 -1.13,0.44 -1.13,-1.51 0,-0.51 -0.62,-1.31 -0.97,-1.53 -1.47,-0.89 -7.34,-0.53 -9.18,-0.53 -2.59,0 -2.87,2.37 -3.36,4.73l-2.39 11.29c-0.26,1.17 -0.91,4.76 -1.46,5.9 -2.47,-0.57 -3.92,1.03 -4.71,1.03 -0.14,0 -1.53,-1.03 -3.68,-1.03 -2.15,0 -4.33,-0.21 -6.47,0.29 -0.66,0.15 -1.29,0.74 -1.76,0.74 -0.39,0 -0.96,-0.61 -1.46,-0.74 -0.56,-0.15 -1.35,-0.07 -1.62,-0.58 1,-0.16 2.3,-0.01 2.93,-0.46 1.4,-1.01 1.4,-3.43 1.72,-5.05 0.11,-0.55 0.25,-0.84 0.32,-1.3 0.14,-0.97 -0.16,-1.06 0.62,-1.14 0.21,0.76 -2.28,5.45 1.23,7.3 2.01,1.06 7.9,0.9 9.8,-0.39 0.5,-0.34 0.9,-0.84 1.26,-1.39 0.81,-1.23 0.9,-2.73 1.29,-4.15 0.2,-0.74 0.33,-1.6 0.5,-2.29 0.19,-0.77 0.34,-1.3 0.48,-2.16 0.38,-2.33 1.12,-4.72 -1.27,-6.26 -0.48,-0.31 -1.1,-0.5 -1.74,-0.61 -2.11,-0.38 -5.56,-0.37 -7.44,0.42 -0.72,0.3 -0.33,0.12 -1.23,-0.27 -1.3,-0.56 -2.04,-0.23 -3.24,-0.14 -0.41,0.03 -1.01,-0.21 -1.42,-0.21 -3.04,0 -4.43,0.44 -4.71,0.44 -1.08,0 -0.91,-0.58 -3.26,-0.31 -0.76,0.09 -1.01,-0.13 -1.45,-0.13l-3.09 0c-1.08,0 -1.61,0.49 -2.18,0.49 -0.63,-0.01 -1.51,-0.49 -2.52,-0.49 -0.64,0 -1.49,0.48 -2.25,0.52 -0.68,0.03 -1.55,-0.52 -2.46,-0.52 -0.69,0 -0.88,0.27 -1.46,0.26 -0.32,-0 -1.3,-0.26 -1.63,-0.26l-2.35 0c-0.87,0 -1.4,0.44 -2.21,0.44 -0.66,0 -1.93,-0.78 -6.62,-0.27 -0.56,-1.22 -0.73,-2.13 -2.01,-2.88 -2.14,-1.25 -7.49,-0.94 -9.98,-0.46 -0.72,0.14 -0.87,0.27 -1.46,0.6 -1.93,1.08 -2.65,3.09 -3.07,5.17 -0.7,3.49 0.15,3.35 0.18,4.74 -1.81,0.46 -1.58,2.66 -2.03,4.15 -0.45,1.48 -0.45,3.41 0.53,4.71 0.53,0.7 1.3,1.44 2.53,1.44 0,2.33 -1.93,4.72 -0.94,7.56l0.45 1.07c-1.23,0.96 -1.53,-0.05 -2.12,2.73 -0.41,1.93 -0.99,3.63 -0.6,5.39 0.48,2.18 2.47,3.55 4.83,3.55 2.42,0 7.86,0.41 9.88,-0.71 1.56,-0.87 1.25,0.71 4.39,0.71 2.2,0 4.08,0.13 6.31,-0.16 0.47,-0.06 0.79,-0.28 1.04,-0.28 0.43,0 0.7,0.44 1.47,0.44l4.27 0c1.72,0 1.49,-0.76 1.47,2.21 -0.03,4.24 2.54,3.09 8.83,3.09 1,0 3.06,-0.11 3.92,0.05 1.17,0.22 1.85,1.06 3.1,0.35 0.54,-0.3 0.63,-0.41 1.5,-0.41l17.51 0.15c1.59,0 4.09,-0.15 6.18,-0.15l13.38 0c0.83,0 2.6,0.12 3.3,-0.08 1.25,-0.35 1.18,-1.08 1.85,-1.49 0.45,0.45 0.46,0.8 0.84,1.32 0.82,1.13 2.95,2.6 4.46,2.6 2.54,0 4.02,-0.64 6.43,-1.51l5.07 -1.71c3.31,-1.21 6.56,-2.25 9.91,-3.47 1.67,-0.61 3.35,-1.06 4.93,-1.69 4.75,-1.89 11.33,-2.23 11.33,-8.97 0,-0.45 -0.23,-1.62 -0.36,-1.99l-1.21 -3.49c-0.23,-0.58 -0.45,-1.09 -0.65,-1.7 -0.76,-2.38 -1.6,-4.72 -2.43,-7.14l-3.64 -10.63c-0.68,-1.91 -2.08,-6.63 -2.8,-7.92 -1.08,-1.92 -2.53,-3.14 -4.88,-3.51 -1.62,-0.26 -2.75,0.15 -4.09,0.58 -0.57,0.18 -1.19,0.37 -1.78,0.57 -1.19,0.41 -2.28,0.91 -3.48,1.23 -0.7,0.18 -1.11,0.45 -1.83,0.68 -0.33,0.1 -0.56,0.15 -0.91,0.26 -0.32,0.11 -0.43,0.19 -0.86,0.32 -1.5,0.47 -4.05,1.56 -5.35,1.86z"/>
   <path class="fil0" d="M44.53 48.23c0,0.95 -0.77,0.98 -1.51,0.92 -0.76,-0.06 -0.71,-0.64 -0.71,-1.51 0.02,-1.9 -0.56,-3.83 0.74,-3.83 0.65,0 1.47,-0.15 1.47,0.59l0 3.82zm44.86 0.74c-0.47,-0.97 -0.24,-2.71 -0.17,-4.13 0.02,-0.49 -0.03,-1.02 0.46,-1.02 0.8,0 0.91,-0.06 1.62,0.15 0.18,0.74 -0,1.85 -0,2.8 0,1.48 0.47,2.91 -1.91,2.21zm-40.71 -0.29l-0.18 0c-0.21,0.35 -0.01,0.68 0,1.18 -0.84,-0.34 -1.65,-0.58 -2.13,-1.1 0,-1.5 0.01,-3 -0.01,-4.5 -0.01,-0.99 -0.12,-1.28 0.8,-1.34 1.68,-0.11 1.33,0.5 1.33,0.91l0.15 -0 1.02 0.07 0.01 4.49c0.87,-0.05 0.26,0.1 0.45,-0.22 0.15,-0.26 0.01,-3.84 -0.01,-4.19l0.48 -0.1c0.25,-0.04 0.28,-0.05 0.55,-0.05 -0.02,0.84 -0.12,1.16 -0.08,1.93 0.03,0.74 0.1,1.48 0.1,2.21 -0.01,0.91 -0.16,1.18 -1.04,1.19 -0.87,0.01 -0.54,-0.08 -1.1,-0.38l-0.33 -0.09zm28.86 -4.82c0.79,-0.08 2.71,-0.15 3.41,0.11 0.18,1.65 0.13,2.14 0.13,3.83 0,1.05 0.17,1.28 -0.88,1.32l0.07 -2.65c0.01,-0.79 0.16,-2.06 -0.44,-2.06 -0.54,0 -0.29,0.91 -0.29,2.35 -0,2.08 0.3,2.27 -0.59,2.35 -0.39,-0.82 0.11,-3.5 -0.15,-4.71l-0.59 0.04c-0.15,0.44 0.01,1.95 -0,2.62 -0.04,1.6 0.26,1.96 -0.59,2.05 -0.33,-0.69 -0.29,-4.35 -0.08,-5.26zm-7.72 4.67c-0.14,0.22 -0.15,-0.33 -0.15,0.44l-0.44 0c-0.14,0.09 -0.04,0.06 -0.3,0.14 -0.04,0.01 -0.2,0.01 -0.33,0.01l0.05 -1.77 -0.66 0.08c-0.04,0.41 0.34,1.27 -0.2,1.6 -0.8,0.5 -0.58,-0.74 -0.55,-1.23 0.08,-1.34 -0.06,-2.66 -0.06,-3.98 0.61,0 1.74,-0.23 2.06,0.29l0.62 -0.15c0.45,-0.26 1.51,-0.26 1.8,0.07 0.45,0.45 0.22,4.23 0.22,5.08 -0.86,-0.03 -0.79,-0.12 -0.68,-2.35 0.13,-2.69 0.1,-2.4 -0.79,-2.35 0,0.88 0.18,1.69 0.13,2.65 -0.08,1.89 0.23,1.96 -0.58,2.06 -0.14,-0.29 -0.11,-0.16 -0.15,-0.59zm5.08 -4.72l2.35 0.09c-0.16,0.3 0.26,0.48 -1.4,0.52l0 1.4c0.48,-0.08 0.52,-0.17 0.81,0 0.08,0.59 -0.28,0.69 -0.83,0.81l0.02 1.78 1.32 0.13c-0.13,0.54 0.08,0.2 -0.28,0.44 -0.54,0.35 -1.35,0.05 -1.91,0l-0.08 -5.17zm-1.84 0.75c-0.63,-0.33 -0.71,-0.16 -0.88,-0.59 0.12,-0.14 1.19,-0.16 1.48,-0.16 0.99,0.02 0.81,0.14 1.24,0.23l-0.99 0.37 0.02 2.79c0,1.76 0.25,2.05 -0.85,1.84l-0.01 -4.49zm-21.48 4.41l-0.22 -1.03 -0 -4.05c0.41,-0.09 1.65,-0.2 2.03,0.03 0.33,0.2 0.12,0 0.25,0.36l-1.33 0.13 0 1.4c0.52,-0.03 0.6,-0.18 0.96,0.07 -0.26,0.54 -0.37,0.61 -1.04,0.74l0.09 1.76c0.67,0 0.82,-0.07 1.25,0.22 -0.19,0.8 -1.33,0.56 -1.99,0.37zm-11.91 -5.15c1.08,0 1.73,-0.15 2.28,0.29 -0.22,0.77 -0.29,0.57 -0.33,0.61l-0.18 0.13c-0.58,-0.15 -0.4,-0.26 -0.47,-0.3 -0.03,-0.01 -0.07,-0.42 -0.33,0.06 -0.18,0.31 -0.08,1.1 -0.08,1.49 0.68,-0.1 0.75,-0.33 1.38,-0.29 0.12,3.27 0.54,3.5 -2.26,3.16 0,-0.73 -0.08,-0.95 0.88,-1.03 0.13,0.47 0.06,0.31 0.45,0.52l-0.01 -1.84c-0.57,0.15 -0.66,0.53 -1.27,0.52 -0.16,-1.56 0.12,-1.13 -0.05,-2.87l0 -0.44zm45.82 5.22c-0.23,-0.94 -0.27,-4.29 -0.15,-5.2l0.96 -0.02c0,1.03 -0.13,1.89 -0.04,3 0.15,1.92 0.25,2.47 -0.77,2.22zm-24.12 -0.25c-0.08,0.63 -1.06,0.39 -1.84,0.33 -0.04,-0.95 -0.13,-1.84 -0.14,-2.94 -0.01,-2.26 -0.31,-2.35 0.43,-2.35 0.84,0 1.17,-0.1 1.58,0.15 -0.29,0.99 -0.39,0.06 -1.08,0.48 -0.38,0.23 -0.2,0.5 -0.2,1.44 0.32,-0.1 0.65,-0.22 0.96,0 -0.21,0.62 0.06,0.26 -0.39,0.57 -0.11,0.07 -0.18,0.09 -0.29,0.15 -0.29,0.16 -0.06,-0.01 -0.27,0.16 0,0.21 -0.03,1.07 -0.01,1.2 0.12,0.67 -0.03,0.36 0.6,0.45 0.39,0.06 0.73,-0.14 0.66,0.38zm25.3 0.11c-0.22,-1.05 0.25,-4.07 -0.15,-5.04l0.95 -0.04 0.08 4.12c0.55,-0.17 0.52,-0.16 0.53,-1.02 0.01,-2.74 -0.49,-3.32 0.8,-3.03l-0 3.83c-0.3,0.46 -1.48,1.21 -2.21,1.18zm-3.75 -5.96l0.77 -0 0.04 4.93c0.7,-0.14 0.57,0.08 0.57,-0.79 0,-0.38 0.01,-0.82 0.01,-1.2 0,-2.8 -0.3,-2.91 0.66,-2.94l0 4.71c0,0.56 -1.56,1.33 -2.17,1.25l0.1 -4.34 0.01 -1.62zm-19.64 3.24c-0,-0.91 -0.15,-2.53 0,-3.16 0.3,-0.17 -0.38,-0.15 0.37,-0.15 4,0 3.24,-0.34 3.24,3.6 0,2.71 0.28,2.65 -0.9,2.65l0.02 -5.15c0,-0.41 -0.11,-0.35 -0.44,-0.44 -0.11,0.18 -0.05,0.01 -0.12,0.32 -0.16,0.76 0.16,4.35 -0.1,5.27l-0.66 0c-0.16,-0.88 -0.08,-3.42 -0.06,-4.57 0.02,-1.26 -0.13,-0.92 -0.38,-1.02 -0.26,0.41 -0.15,2.13 -0.15,2.79 0,0.86 0.11,1.99 -0.07,2.76 -1.14,0.11 -0.74,0.02 -0.74,-2.91zm-24.05 2.8c-0.76,0.22 -1.1,0.23 -1.77,-0.01 -1.5,-0.53 -0.15,0.12 -1.46,0.16 0,-1.24 -0.32,-5.67 0.15,-6.25 0.29,0.1 0.34,0.1 0.59,0.22 -0.01,1.19 -0.22,2.08 0.22,3.02 0.02,-0.02 0.52,-0.15 0.28,-1.25 -0.15,-0.72 -0.54,-0.58 -0.22,-0.9 0.31,-0.31 1.78,-0.17 2.31,-0.06l0.06 0.66c-1.04,0.5 -0.84,-0.06 -1.22,-0.08 -0.45,-0.02 -0.25,0.06 -0.25,1.62 0.76,-0.1 0.89,-0.36 1.4,-0.29 0.15,0.86 0.15,2.41 -0.07,3.16zm17.05 -0.86c0.01,0.48 0.07,1.13 -0.79,0.93 -0.25,-1 -0.08,-3.01 -0.08,-4.2 0.02,-2.24 -0.28,-1.9 1.92,-1.91 2.22,-0.01 1.79,0.33 1.69,2.38 -0.05,1.17 0.18,2.8 -0,3.59 -0.35,0.13 -0.36,0.18 -0.81,0.22l0 -5.59c-1.27,0 -0.53,0.05 -0.61,0.97 -0.09,1.02 0.05,2.36 0.06,3.62 0.01,0.63 0.13,0.92 -0.78,1l0.01 -5.6 -0.81 0.09c0.35,0.64 0.31,1.87 0.3,2.87 -0,0.84 -0.1,1.22 -0.1,1.64zm33.07 -14.63c1.44,-5.01 -0.09,-4.52 3.71,-4.43 1.2,0.03 1.75,-0.57 1.77,0.8 0.59,-0.16 1.2,-0.76 2.36,-0.87 1.06,-0.1 1.81,0.14 2.28,0.78 0.74,1.02 0.38,2.73 0.2,3.91 -0.04,0.25 -0.04,0.4 -0.11,0.63 -0.18,0.57 0.13,0.17 -0.28,0.46 -0.69,0.25 -2.84,0.2 -3.75,0.11 -0.82,-0.08 -0.45,-0.48 -0.31,-1.07 0.21,-0.88 0.28,-0.77 -0.16,-1.39 -1.19,0.04 -1.08,1.11 -1.33,2.24l-1.34 5.87c-0.84,3.92 -0.34,2.44 -2.95,2.63 -1.19,0.08 -1.46,0.13 -2.27,-0.2l2.16 -9.46zm-75.34 -1.87c0.39,-0.18 0.59,-0.1 1.11,-0.08 0.36,0.01 0.79,0.01 1.14,-0.01 0.62,-0.04 1.33,-0.1 1.87,0.01 -0.16,1.5 -0.45,1.78 -0.51,2.58l-0.3 0c-0.4,-1.41 -2.8,-1.5 -3.31,-2.5zm61.85 11.33c0,-3.71 1.01,-6.21 1.78,-9.99 0.34,-1.67 0.8,-2.98 2.27,-3.61 1.05,-0.45 4.02,-0.44 5.41,-0.27 0.86,0.11 3.8,-0.42 3.29,2.48l-2.22 9.56c-0.71,1.91 -0.51,1.39 -1.34,1.2 -0.44,-0.1 -2.21,-0.15 -2.57,0.02 -0.53,0.47 -0.29,0.59 -0.39,1.5 -1.03,-0.08 -0.54,-0.8 -2.84,-0.73 -1.24,0.04 -2.31,0.21 -3.38,-0.16zm-21.47 -9.41c-0.7,0 -0.3,-1.03 -0.13,-1.6 0.82,-2.66 1.91,-2.67 3.95,-2.83 1.02,-0.08 5.26,-0.25 6.06,0.43 0.3,0.26 0.7,0.91 0.7,1.5l-1.05 4.69c-0.09,0.43 -0.14,0.44 -0.23,0.8 -0.37,1.44 -0.8,4 -1.27,5.49 -0.01,0.04 -0.03,0.07 -0.04,0.11l-0.21 1.41c-0.61,-0.16 -0.28,-0.29 -1.06,-0.39 -0.35,-0.04 -0.78,-0.03 -1.06,-0.07 -1.01,-0.16 -0.57,-0.77 -1.85,-0.88 -4.98,-0.4 -3,0.85 -3.73,1.73 -0.9,-0.23 0.07,-0.2 -0.69,-0.65 -0.29,-0.17 -0.93,-0.24 -1.22,-0.33 -0.83,-2.15 -0.23,-4.54 1.31,-6.39 0.64,-0.76 2.92,-1.65 3.95,-2.08 0.86,-0.36 1.82,-0.55 2.08,-1.45 0.1,-0.34 0.06,-0.74 0.06,-1.12 -0.33,-0.08 -0.44,-0.22 -0.79,-0.06 -0.4,0.19 -0.74,1.31 -0.98,1.67l-2.97 -0.11c-0.46,-0.02 -0.47,0.12 -0.86,0.12zm-31.72 -4.51c0.79,-0.17 2.29,0.11 3.33,0.09 1.21,-0.01 2.43,-0.16 3.12,0.41 0.97,0.82 0.6,2.24 0.31,3.31l-0.45 2.05c-0.12,0.61 -0.2,0.89 -0.35,1.41l-0.99 4.31c-0.51,2.02 -1.39,3.1 -3.7,3.21 -1.76,0.08 -5.53,0.29 -6.54,-0.53 -1.2,-0.97 -0.36,-3.14 -0.11,-4.06 0.53,-1.93 1.5,-8.32 2.82,-9.39 0.92,-0.75 1.72,-0.65 2.56,-0.83zm6.13 14.81c-0.3,0 -0.37,0.06 -0.57,-0.12 -0.34,-0.31 -0.09,0.19 0.08,-0.62l2.6 -11.4c0.73,-3.41 0.28,-2.56 2.29,-2.56l2.79 0c-0.08,0.34 -0.11,0.34 -0.15,0.74 0.92,-0.08 1.51,-0.88 2.79,-0.88 4.26,0 2.26,4.88 1.68,7.42l-1.43 6.38c-0.18,0.42 0.19,0.38 -1.33,0.32 -0.77,-1.41 -0.94,-0.77 -2.3,-0.74 0,1.05 0.14,1.47 -0.44,1.47 -0.84,0 -0.73,-0.19 -0.53,-1.11l2.11 -9.25c0.41,-1.5 -0.99,-1.28 -1.32,0.02l-1.07 4.52c-1.75,6.94 0.14,5.82 -5.21,5.82zm11.25 -15.52c0.32,-0.32 -0.24,-0.22 0.66,-0.3 0.18,-0.02 0.41,0.04 0.6,0.06 0.5,0.03 0.8,-0.07 1.27,-0.12l-0.39 2.2c-0.41,-0.3 -0.51,-0.7 -0.91,-1.14 -0.43,-0.48 -0.72,-0.39 -1.22,-0.7zm-35.37 1.99c0,-0.65 0.01,0.08 0.21,-0.52 0.48,-1.42 0.07,-1.68 1.34,-3.37 0.4,-0.53 1.06,-0.91 1.72,-1.07 2.1,-0.5 5.61,-0.43 7.75,-0.32 4.32,0.21 3.13,2.96 2.87,4.32 -0.11,0.6 -0.2,1.4 -0.8,1.4l-5.44 0 0 -0.88c0,-0.79 -0.89,-0.77 -1.27,-0.25 -0.78,1.07 0.47,1.73 1.27,2.16 5.23,2.8 5.14,2.64 3.89,7.86 -0.21,0.88 -0.65,1.92 -1.11,2.57 -1.15,1.62 -3.14,1.63 -5.57,1.63 -2.14,-0 -5.22,0.36 -6.52,-0.84 -0.89,-0.82 -0.58,-1.75 -0.41,-3 0.17,-1.24 0.59,-2.42 0.6,-2.93 1.67,-0.34 4.17,0.15 6.08,-0.05 -0.15,1.22 -0.56,1.58 -0.05,2.55 0.65,-0.05 0.92,-0.23 1.12,-0.79 0.85,-2.34 -0.23,-2.46 -1.54,-3.2 -4.45,-2.51 -4.14,-1.84 -4.14,-5.28zm69.03 -5.29l4.36 -0.01c0,1.08 -0.2,1.45 -0.39,2.4 -0.15,0.73 -3.35,15.44 -3.73,15.67 -1.15,0.21 -3.16,0.16 -4.22,0.01 -0.82,-0.12 -0.95,0.21 -1.81,0.05 -0.84,-0.16 -0.55,-0.53 -1.28,-0.79 -0.75,-0.27 -1.5,-0.01 -2.12,-0.12 -0.53,-0.1 -0.4,0.01 -0.45,-0.58 -0.12,-1.39 0.37,-3.15 0.71,-4.47 0.69,-2.68 1.15,-7.65 4.34,-8.17 2.16,-0.36 2.57,0.52 3.35,0.7l1.23 -4.7zm-33.54 18.03c-0.05,-0.45 0.82,-3.96 0.97,-4.67l2.13 -9.19c0.16,-0.82 0.63,-4.18 1.41,-4.18 4.84,0 4.24,-0.58 3.64,2.17 -0.16,0.75 -0.44,1.59 -0.41,2.54 0.88,-0.07 1.01,-0.74 2.94,-0.74 3.56,0 1.86,5.36 1.35,7.23l-0.96 4.04c-0.16,0.74 -0.35,2.7 -0.88,2.91 -0.38,0.15 -0.93,0.05 -1.23,-0.22 -1.22,-1.13 -1.12,-0.72 -2.98,-0.56 0.09,-0.6 0.01,-0.49 0.2,-1.11 0.29,-0.96 1.9,-7.64 1.91,-8.5 -0.46,-0.45 -0.19,-0.09 -0.74,-0.34 -0.49,0.45 -0.46,0.36 -0.64,1.13l-0.97 4.18c-0.27,1.2 -1.22,4.62 -1.24,5.53 -0.38,-0.05 -0.71,-0.14 -1.18,-0.15 -0.22,-0.01 -0.5,0 -0.71,0.05 -0.49,0.1 -0.04,0.05 -0.43,0.14 -0.39,0.1 -1.49,-0.12 -2.2,-0.24zm47.24 -18.41c0.65,-0.09 2.8,0.34 4.46,0.04l4.14 0.04c1.75,0 1.62,-1.53 1.95,-3.05l2.77 -12.67c0.25,-0.57 1,-0.69 1.6,-0.89l13.35 -4.6c2.16,-0.75 5.28,-2.2 7.14,1.01 1.09,1.87 1.35,3.77 2.02,5.63l7.27 20.97c1.43,4.18 3.7,8.09 -2.04,10.02 -2.58,0.86 -5.14,1.78 -7.69,2.62 -1.36,0.45 -2.51,0.92 -3.82,1.31 -0.67,0.2 -1.26,0.35 -1.91,0.61l-13.3 4.65c-1.33,0.39 -2.43,1.1 -4.12,1.04 -1.61,-0.06 -2.59,-0.93 -3.25,-1.9 -0.54,-0.8 -1.63,-4.29 -2.06,-5.59 -0.19,-0.57 -0.52,-1.27 -0.69,-1.98 -0.25,-1.1 0.49,-3.27 0.7,-4.36l1.69 0.02c0.1,0.68 -0.68,1.13 -1.21,2.1 -0.34,0.63 0.09,2.59 2.35,0.28 0.39,-0.4 0.53,-0.47 0.95,-0.81 0.74,-0.62 0.9,-1.38 2.16,-1.21 2.21,0.29 4.57,0.11 6.86,0.23 6.45,0.34 11.05,0.12 17.21,0.14l4.71 -0.16c0.83,-0.22 0.48,-0.95 -0.28,-1.02 -2.29,-0.21 -13.8,0.24 -18.39,-0 -3.98,-0.21 -9.49,-0.38 -13.24,-0.7 -0.6,-0.05 -2.1,0.09 -2.39,-0.47 0.16,-0.13 0.04,-0.24 0.87,-0.15 0.35,0.04 0.51,0.08 0.92,0.08 3.67,0.02 3.9,0.28 4.4,-2.02 0.47,-2.16 0.57,-5.64 -2.48,-5.64l-1.03 0c-0.7,0 -1.24,0.32 -1.56,0.27 -0.17,-0.03 -0.27,-0.16 -0.73,-0.24l-4.92 0.05c-0.21,0.72 -0.24,0.8 -0.59,1.32 -0.61,-0.5 -0.76,-1.5 -1.04,-2.34 -0.15,-0.45 -0.29,-0.87 -0.46,-1.3 -0.09,-0.21 -0.2,-0.49 -0.25,-0.65 -0.07,-0.25 -0.07,-0.53 -0.08,-0.64zm-62.2 -0.03c3.17,-0.13 9.01,0.03 12.49,0.03 -0.04,0.77 -0.19,1.31 -0.26,2.12 -0.11,1.27 0.19,0.69 0.55,1.41 -1.21,0.13 -0.57,0.68 -1.86,0.11 -0.59,-0.26 -1.62,-0.11 -2.34,-0.11 -4.27,0 -2.32,0.29 -3.38,1.4 -0.82,-0.54 -0.76,-1 -2.08,-1.31 -0.7,-0.17 -5.5,-0.12 -6.31,-0.03 -1.93,0.23 -1.51,0.6 -2.49,0.82 0.04,-1.26 0.39,-1.07 0.04,-2.46 -0.41,-1.63 -0.66,-0.79 -1.14,-1.95 0.96,0 1.76,-0.03 2.73,-0.09 1.92,-0.11 1.17,-0.91 2.06,-0.45 0.49,0.25 0.06,0.59 2,0.51zm-12.59 -0.33c0.2,-0.63 0.75,-0.93 1.25,-1.18 0.2,0.42 0.4,0.68 0.51,1.18 -0.73,-0.18 -1.05,-0.07 -1.77,0zm65.53 5c0.1,-0.58 0.35,-1.15 0.48,-1.8 0.13,-0.65 0.25,-1.15 0.33,-1.87 0.21,-1.85 0.5,0.22 1.2,-3.06 0.31,-1.45 0.49,-2.28 0.8,-3.59 0.23,-0.99 -0.01,-2.03 2.26,-1.44 -0.28,0.58 -0.75,4.35 -0.59,5.14 0.53,2.52 2.85,2.06 3.75,2 0.29,1.18 1.26,2.77 1.03,3.68 -0.52,0 -1.56,-0.15 -2.42,-0.15 -7.5,0.02 -4.6,0.51 -6.84,1.1zm-22.72 -17.95c0.74,-0.06 1.65,-1.06 3.03,-0.54 1.62,0.61 1.32,2.86 0.96,4.23 -0.18,0.68 -0.06,0.59 -0.51,0.87 -0.22,0.13 -3.04,0.06 -3.48,0 0.58,-2.5 0.38,-0.77 0.15,-2.21 -1.2,0.1 -1.07,2.15 -1.55,4.04 -0.1,0.41 -0.11,0.24 -0.2,0.68 -0.06,0.3 -0.09,0.55 -0.13,0.76 -0.13,0.62 -0.25,0.92 -0.37,1.54 -0.75,3.9 0.02,3.13 -4.52,3.13l1.05 -5.28c0.09,-0.54 0.32,-1.01 0.45,-1.61 0.13,-0.6 0.2,-1.09 0.33,-1.73 0.13,-0.67 0.26,-1.04 0.38,-1.68 0.27,-1.42 0.27,-2.8 1.33,-2.79 2.05,0.01 2.99,-0.28 3.09,0.59zm-40.89 10.88c0,-0.55 0.22,-1.24 0.33,-1.88l1.11 -5.07c0.59,-2.82 0.72,-4.52 3.86,-4.52 2.11,0 5.59,-0.48 5.59,1.47 0,2.41 -0.98,4.87 -1.03,5.44 -5.75,0 -4.9,-0.62 -5.44,1.77 -0.18,0.77 -0.28,1.14 -0,1.91 1.02,-0.09 1.03,-1.38 1.32,-2.65l3.82 0c0,1.12 -0.36,2.65 -0.74,3.38 -1.32,2.54 -3.41,1.75 -6.02,1.77 -0.65,0.01 -1.36,-0 -1.89,-0.17 -0.76,-0.24 -0.91,-0.7 -0.91,-1.45zm23.68 5c0,-0.78 0.22,-1.41 0.38,-2.12 0.16,-0.73 0.2,-1.37 0.4,-2.11 0.13,-0.49 0.17,-0.41 0.29,-1.02l2.46 -11.25 3.68 0.02c0.08,0.34 0.11,0.34 0.15,0.74 0.53,-0.14 1.24,-0.93 2.65,-0.79 1.3,0.13 1.69,1.12 1.8,2.37 0.05,0.58 -0.77,4 -0.9,4.63 -0.33,1.6 -0.78,3.86 -1.63,4.98 -1.9,2.53 -4.26,0.57 -4.42,0.58 -0.4,0.15 -0.07,-0.05 -0.22,0.27l-0.4 1.75c-0.5,2.53 0.12,1.95 -4.23,1.95zm-24.31 -13.19c-0.65,-0.43 -0.91,-0.26 -1.36,-0.86 0.28,-0.21 2.38,-0.13 2.94,-0 0.03,0.64 -0.22,1.03 -0.22,1.84 -0.84,-0.33 -0.89,-0.66 -1.37,-0.98zm48.58 9.9c-0.51,0 -2.26,-0.06 -2.75,-0.14 -0.85,-0.14 -1.34,-0.39 -1.41,-1.37 -0.07,-1.13 0.52,-3.03 0.83,-4.57 0.28,-1.43 0.85,-5.35 1.99,-6.4 1.08,-0.99 5.28,-0.86 6.92,-0.55 0.39,0.07 0.64,0.15 0.86,0.47 0.39,0.58 0.25,1.44 0.18,2.16l-0.97 4.13 -4.91 0c-0.19,0.41 -0.35,1.08 -0.46,1.6 -0.05,0.27 -0.09,0.54 -0.17,0.86 -0.09,0.34 -0.16,0.38 -0.26,0.77 0.67,0.24 -0.14,-0.07 0.35,0.23 0.23,0.14 0.06,0.12 0.38,0.21 0.39,-0.36 0.58,-0.77 0.72,-1.34 0.39,-1.63 -0.48,-1.31 4.14,-1.31 0,1.4 -0.71,4.35 -2.18,4.88 -1.07,0.39 -2.17,0.36 -3.27,0.36zm20.89 -2.01c0,-1.66 1.54,-7.66 1.95,-9.97 0.03,-0.17 0.09,-0.43 0.19,-0.69 0.19,-0.51 0.06,0.08 0.22,-0.53l1.32 0.06c0.97,0.02 2.35,-0.21 2.35,0.25 0,1.05 -1.91,7.85 -1.91,9.85 1.08,0 1.11,-0.48 1.43,-2.39l1.16 -5.47c0.66,-3.15 0.06,-2.07 4.33,-2.29 0,0.87 -1.74,8.71 -2.04,10.16 -0.22,1.06 -0.41,2.32 -0.9,3.07l-3.38 0c-0.19,-0.39 -0.13,-0.16 -0.15,-0.74 -0.92,0.08 -1.21,0.74 -2.5,0.74 -1.35,0 -2.06,-0.82 -2.06,-2.06zm11.03 1.91c-0.86,-0.06 -1.76,0.46 -1.58,-0.66l2.04 -9.18c0.22,-0.95 0.54,-3.25 1.16,-3.25l3.33 0.05c0.04,0.53 -2.26,10.74 -2.5,11.82 -0.28,1.24 -0.28,1.27 -0.69,1.27l-1.76 -0.05zm-63.54 -10.15c-1.14,0.09 -0.99,1.13 -1.22,2.17l-1.48 6.6c-0.11,0.38 -0.15,0.97 -0.24,1.38l-3.82 -0.01c0,-1.33 0.1,-0.66 0.44,-2.21l0.95 -4.94c0.29,-1.14 0.41,-0.99 0.81,-3.16 0.63,-3.47 0.19,-2.77 4.14,-2.77 0.15,0.36 0.1,0.12 0,0.59 1.05,0 0.47,-0.07 1.24,-0.37 2.13,-0.84 2.43,0.12 3.32,0.84 0.46,-0.15 1.56,-1.09 2.8,-1.13 3.48,-0.11 1.9,4.39 1.46,6.42 -0.23,1.07 0.21,0.74 -0.29,1.01 0,1.32 -0.84,4.26 -1.18,5.75l-3.82 -0.02 1.35 -6.6c0.09,-0.49 0.2,-0.63 0.34,-1.28 0.2,-0.96 0.61,-1.78 -0.06,-2.27 -0.5,0.13 -0.57,0.43 -0.71,0.91 -0.14,0.47 -0.14,0.86 -0.27,1.35l-1.17 5.31c-0.13,0.74 -0.4,2.05 -0.65,2.58l-3.68 0c0,-0.7 1.08,-5.19 1.34,-6.45 0.35,-1.71 0.58,-1.83 0.43,-3.69zm-22.8 6.32c0.7,0 0.67,0.14 0.94,-0.38 0.57,-1.06 0.48,-2.14 -0.51,-2.7 -3.82,-2.2 -4.79,-1.89 -3.93,-6 0.27,-1.29 0.7,-2.55 1.93,-3.22 1.06,-0.58 5.78,-0.65 7.42,-0.46 2.47,0.28 2.76,1.49 2.09,3.8 -0.47,1.6 0.53,1.18 -5.3,1.18 0.04,-0.43 0.16,-0.45 0.06,-0.81 -0.35,-1.25 -1.77,0.07 -1.04,1.04 0.25,0.33 2.37,1.53 2.88,1.83 0.48,0.28 1.01,0.54 1.41,0.95 0.61,0.63 0.54,0.71 0.52,1.84 -0.02,1.94 -0.55,4.04 -1.55,5.51 -1.35,1.99 -5.87,1.33 -7.88,1.25 -1.58,-0.06 -2.65,-0.47 -2.69,-2.06 -0.02,-0.84 0.54,-3.45 0.79,-3.97l5 0c-0.03,1.14 -0.37,0.84 -0.15,2.21zm88.25 -12.65c0.77,-0.29 2.94,-0.11 3.78,-0.1 0.06,0.42 -0.14,2.6 -0.83,2.6 -4.11,0 -3.68,0.67 -2.94,-2.5zm-22.21 15.89c0,-0.17 0.35,-1.78 0.42,-2.08 0.1,-0.42 0.22,-0.75 0.27,-1.05l1.94 -9.24c0.17,-0.83 0.61,-3.67 1.19,-3.67l7.47 0.07c0.5,0.15 0.2,0.44 0.08,1 -0.22,1.01 -0.43,1.87 -0.64,2.76l-3.09 0c-0.01,0.67 -0.24,1.14 -0.29,1.77l2.94 0c0,1.06 -0.4,2.87 -0.74,3.82 -1.24,0 -2.13,-0.03 -3.24,0.15 0,1.23 -0.41,2.53 -0.64,3.62 -0.22,1.03 -0.59,2.41 -0.83,3.44l-4.85 0 0 -0.59zm26.99 -15.74c-0.35,-1.26 -0.62,-1.11 -1.98,-1.11 -1.1,0 -2.25,-0.02 -3.24,0.08 -0.62,1.29 -0.51,1.73 -0.81,3.16 -1.88,0.63 -6.64,0.29 -8.97,0.29 0.17,-3.1 1.69,-3.53 -2.43,-3.53l-6.3 0.09c-0.67,0.2 -0.64,0.61 -0.76,1.31 -0.09,0.53 -0.2,0.76 -0.29,1.32 -0.35,2.23 -1.02,4.68 -1.47,6.91 -0.11,0.54 -0.27,0.83 -0.38,1.39l-1.4 6.96c-0.15,0.52 -0.31,0.58 -0.43,1.36 -0.08,0.54 -0.53,2.26 -0.73,2.65 -1.38,-0.18 -2.27,-0.65 -3.78,0.03 -0.5,0.22 -1.04,0.59 -1.33,0.88 -0.52,0.53 -0.41,0.77 -1.14,1.14 -0.74,-2.54 -2.53,-2.35 -4.78,-2.35 -1.97,0 -4.27,-0.14 -5.82,0.94 -0.71,0.5 -0.56,0.83 -1.09,1.27 -0.66,-0.49 -0.48,-1.25 -1.69,-1.85 -1.15,-0.56 -1.97,-0.21 -3.24,-0.21l0.73 -3.59c1.01,-0.16 2.19,0.1 3.39,-0.16 1.02,-2.58 1.11,-5.72 1.99,-7.72l3.39 0.13c-0.21,1.65 -0.74,3.17 -1.05,4.81 -0.09,0.48 0.28,1.66 0.63,2.09 1.21,1.47 7.11,0.81 7.76,0.61 0.87,-0.27 1.25,-0.72 1.66,-1.28 0.93,-1.29 1.44,-5.41 1.9,-7.07 1.56,-5.62 0.52,-6.12 -4.43,-6.12 -4.83,0 -2.99,0.65 -4.85,1.1 -2.1,-1.4 -1.08,-1.21 -3.97,-1.01 -1.57,0.11 -3.34,-0.33 -5.07,0.05l-0.52 1.1c-0.75,-0.5 -0.75,-1.09 -1.97,-1.24 -1.13,-0.13 -1.9,0.17 -2.99,0.04 -0.72,-0.08 -3.87,-0.3 -4.42,0.2 -0.18,0.17 -0.22,0.33 -0.33,0.55l-0.36 0.59c-0.62,-0.72 -0.82,-1.39 -2.28,-1.43 -1.65,-0.05 -2.83,0.82 -3.24,0.74 -0.57,-0.12 -0.51,-0.7 -1.91,-0.71 -1.02,-0 -1.59,0.19 -2.61,0.06 -0.87,-0.11 -1.8,-0.05 -2.69,-0.06 -1.49,-0 -1.24,-0.03 -1.76,0.96 -2.03,-1.07 -1.65,-0.96 -4.12,-0.96 -0.86,0 -1.73,-0.04 -2.59,0.02 -1.31,0.08 -1.48,0.45 -2.19,0.5 0.12,-0.69 0.13,-1.36 -0.14,-1.99 -0.64,-1.5 -1.59,-2.07 -3.46,-2.06 -2.43,0.01 -5.35,-0.3 -7.22,0.51 -0.68,0.3 -0.89,0.52 -1.34,1.03 -0.94,1.04 -1.14,2.6 -1.4,3.98 -0.26,1.36 -0.24,2.11 0.53,3.09 1.01,1.29 1.88,0.99 2.29,1.84 -0.98,0.1 -2.95,-0.28 -3.73,0.39 -0.4,0.34 -2.1,5.45 0.14,6.88 0.92,0.58 2.61,0.53 4.03,0.53 -0.15,0.21 -0.03,0.09 -0.23,0.33 -0.12,0.15 -0.15,0.18 -0.31,0.31 -0.67,0.52 -1.19,1.04 -1.58,1.95 -0.45,1.05 -0.58,2.43 -0.89,3.63 -0.94,3.61 2.97,3.97 3.74,5.17 -0.99,0 -1.9,0.04 -2.87,0.07 -0.96,0.03 -1.7,-0.12 -2.18,0.54 -0.31,0.43 -0.91,4.08 -0.91,4.83 0,1.18 0.36,1.93 1.23,2.45 2.02,1.21 5.66,0.79 8.05,0.79 1.45,0 3.16,-0.34 4.21,-1.21 0.6,-0.49 0.29,-0.66 1.06,-0.85 0.07,0.89 0.67,1.36 1.42,1.68 0.97,0.42 2.5,0.39 3.58,0.3l2.8 0.08c1.52,0 2.5,-0.71 3.38,-1.18 0.12,1.4 1.45,1.18 2.79,1.18 2.13,0 2.5,-0.25 3.25,-0.3 0.9,-0.06 0.23,-0.01 0.6,0.1 0.65,0.2 0.61,0.12 1.31,0.19l0 4.85c2.23,0.65 5.92,0.23 8.53,0.24 2.22,0.01 2.71,-0.18 4.78,0.87 0.44,-0.29 0.51,-0.36 0.74,-0.81l16.71 -0.07c5.47,0.25 10.98,0.06 16.45,-0.01l1.03 0.09c0.34,0.03 0.55,-0.12 0.88,-0.08 1.63,0.16 3.23,-0.09 4.85,0 3.92,0.21 2.57,-0.96 2.87,-4.79 0.04,-0.57 0.07,-0.52 0.26,-0.99 0.04,-0.1 0.15,-0.35 0.17,-0.41 0.19,-0.37 0.04,-0.14 0.23,-0.36 0.9,1.87 1.38,4.7 2.35,6.47 2.63,4.74 8.55,1.36 12.44,0.09 2.22,-0.73 4.57,-1.69 6.67,-2.3 2.27,-0.65 4.31,-1.58 6.5,-2.31l6.61 -2.23c1.75,-0.61 3.27,-0.96 4.84,-1.77 0.64,-0.33 0.74,-0.53 1.21,-1 2.91,-2.86 0.41,-6.53 -0.64,-9.87l-6.76 -19.72c-0.99,-2.74 -1.63,-7.41 -4.75,-8.65 -2.61,-1.03 -7.25,1.17 -10.07,2.18 -0.98,0.35 -2.18,0.68 -3.26,1.15l-6.84 2.22z"/>
   <path class="fil1" d="M104.17 25.96c-0.52,-1.3 -0.78,-2.05 0.08,-3.32 1.04,-1.54 4,-3.93 4.05,-4.45 0.05,-0.42 0.06,-0.08 -0.08,-0.38 -3.14,0.13 -3.3,0.03 -5.48,-1.61 -0.65,-0.48 -1.08,-0.82 -1.68,-1.26 -0.68,-0.5 -1.07,-0.68 -1.07,-1.73 0,-0.11 0.33,-0.66 0.42,-0.75 0.95,-1 1.99,-0.01 2.78,0.64 3.91,3.19 3.93,1.95 9.31,2.17 1.09,0.04 5.06,1.93 6.15,2.38 1.05,0.43 5.21,1.97 5.73,2.96 0.4,0.77 0,1.48 -0.63,1.82 -0.72,0.38 -1.66,-0.15 -2.14,-0.39 -0.63,-0.3 -1.17,-0.53 -1.91,-0.87 -0.76,-0.35 -3.44,-1.59 -4.12,-1.67 -0.4,0.33 -4.32,4 -4.34,4.67 0.47,0.31 0.95,0.32 1.5,0.56 1.43,0.63 3.4,1.29 3.95,2.23 0.33,0.56 1.25,5.35 1.52,6.56 0.6,2.7 -0.76,3.65 -2.26,3.15 -1.44,-0.48 -1.57,-3.82 -2.09,-6.01 -0.52,-2.17 0.38,-1.38 -2.87,-2.71l-2.55 -1.06c0.16,1.18 0.84,1.78 0.81,3.09 -0.02,1.03 -0.94,1.65 -1.51,2.17l-3.87 3.64c-2.21,1.53 -3.98,-1.1 -2.32,-2.76l3.72 -3.56c0.02,-0.95 -0.75,-2.6 -1.12,-3.52zm9.65 -16.12c3.56,-1.09 5.06,4.4 1.65,5.48 -2.52,0.8 -4.73,-2.04 -3.31,-4.34 0.27,-0.44 0.67,-0.8 1.19,-1.02 0.37,-0.16 0.19,-0.04 0.47,-0.12zm-26.4 14.78c0.02,0.11 0.01,0.39 0.08,0.64 0.05,0.16 0.16,0.44 0.25,0.65 0.18,0.43 0.31,0.84 0.46,1.3 0.28,0.83 0.43,1.84 1.04,2.34 0.35,-0.52 0.38,-0.6 0.59,-1.32l4.92 -0.05c0.46,0.08 0.55,0.21 0.73,0.24 0.31,0.05 0.86,-0.27 1.56,-0.27l1.03 0c3.05,0 2.95,3.47 2.48,5.64 -0.5,2.3 -0.73,2.04 -4.4,2.02 -0.41,-0 -0.57,-0.04 -0.92,-0.08 -0.83,-0.09 -0.71,0.02 -0.87,0.15 0.29,0.56 1.79,0.42 2.39,0.47 3.76,0.32 9.26,0.49 13.24,0.7 4.6,0.24 16.11,-0.21 18.39,0 0.76,0.07 1.11,0.81 0.28,1.02l-4.71 0.16c-6.17,-0.02 -10.76,0.2 -17.21,-0.14 -2.28,-0.12 -4.64,0.06 -6.86,-0.23 -1.26,-0.17 -1.42,0.59 -2.16,1.21 -0.41,0.34 -0.55,0.41 -0.95,0.81 -2.26,2.31 -2.69,0.36 -2.35,-0.28 0.53,-0.97 1.31,-1.41 1.21,-2.1l-1.69 -0.02c-0.22,1.09 -0.95,3.26 -0.7,4.36 0.16,0.72 0.5,1.42 0.69,1.98 0.43,1.31 1.52,4.8 2.06,5.59 0.66,0.97 1.64,1.84 3.25,1.9 1.7,0.06 2.8,-0.65 4.12,-1.04 6.35,-2.22 12.64,-4.46 19.03,-6.56 2.55,-0.84 5.11,-1.76 7.69,-2.62 5.74,-1.92 3.47,-5.83 2.04,-10.02l-7.27 -20.97c-0.67,-1.86 -0.93,-3.75 -2.02,-5.63 -1.87,-3.21 -4.98,-1.76 -7.14,-1.01l-13.35 4.6c-0.6,0.2 -1.36,0.32 -1.6,0.89l-2.77 12.67c-0.33,1.52 -0.2,3.05 -1.95,3.05l-4.14 -0.04c-1.66,0.31 -3.81,-0.13 -4.46,-0.04z"/>
   <path class="fil1" d="M107.93 5.27c1.08,-0.47 2.28,-0.8 3.26,-1.15 2.82,-1.01 7.46,-3.21 10.07,-2.18 3.13,1.24 3.77,5.91 4.75,8.65l6.76 19.72c1.05,3.34 3.55,7.02 0.64,9.87 -0.47,0.46 -0.58,0.67 -1.21,1 -1.57,0.82 -3.09,1.16 -4.84,1.77l-6.61 2.23c-2.19,0.74 -4.23,1.66 -6.5,2.31 -2.11,0.61 -4.45,1.57 -6.67,2.3 -3.89,1.27 -9.82,4.65 -12.44,-0.09 -0.98,-1.77 -1.46,-4.6 -2.35,-6.47 -0.19,0.22 -0.04,-0.01 -0.23,0.36 -0.03,0.06 -0.13,0.31 -0.17,0.41 -0.19,0.47 -0.22,0.41 -0.26,0.99 -0.29,3.83 1.05,5 -2.87,4.79 -1.62,-0.09 -3.23,0.16 -4.85,0 -0.33,-0.04 -0.55,0.11 -0.88,0.08l-1.03 -0.09c-5.47,0.07 -10.99,0.26 -16.45,0.01l-16.71 0.07c-0.22,0.45 -0.3,0.52 -0.74,0.81 -2.07,-1.05 -2.56,-0.86 -4.78,-0.87 -2.61,-0.01 -6.3,0.41 -8.53,-0.24l0 -4.85c-0.7,-0.07 -0.66,0.01 -1.31,-0.19 -0.36,-0.11 0.3,-0.16 -0.6,-0.1 -0.74,0.05 -1.12,0.3 -3.25,0.3 -1.35,0 -2.68,0.23 -2.79,-1.18 -0.88,0.46 -1.86,1.18 -3.38,1.18l-2.8 -0.08c-1.08,0.09 -2.61,0.12 -3.58,-0.3 -0.75,-0.32 -1.35,-0.79 -1.42,-1.68 -0.77,0.19 -0.47,0.35 -1.06,0.85 -1.06,0.87 -2.76,1.21 -4.21,1.21 -2.39,0 -6.03,0.42 -8.05,-0.79 -0.87,-0.52 -1.23,-1.26 -1.23,-2.45 0,-0.75 0.6,-4.4 0.91,-4.83 0.48,-0.66 1.21,-0.52 2.18,-0.54 0.97,-0.03 1.88,-0.07 2.87,-0.07 -0.77,-1.2 -4.67,-1.56 -3.74,-5.17 0.31,-1.2 0.44,-2.58 0.89,-3.63 0.39,-0.91 0.91,-1.43 1.58,-1.95 0.16,-0.13 0.19,-0.17 0.31,-0.31 0.2,-0.24 0.08,-0.12 0.23,-0.33 -1.42,0 -3.11,0.05 -4.03,-0.53 -2.24,-1.42 -0.54,-6.53 -0.14,-6.88 0.78,-0.67 2.74,-0.29 3.73,-0.39 -0.41,-0.85 -1.28,-0.55 -2.29,-1.84 -0.77,-0.98 -0.79,-1.73 -0.53,-3.09 0.26,-1.38 0.46,-2.94 1.4,-3.98 0.46,-0.51 0.66,-0.73 1.34,-1.03 1.87,-0.81 4.79,-0.5 7.22,-0.51 1.87,-0.01 2.82,0.56 3.46,2.06 0.27,0.62 0.26,1.3 0.14,1.99 0.71,-0.05 0.88,-0.42 2.19,-0.5 0.86,-0.05 1.73,-0.02 2.59,-0.02 2.47,-0 2.08,-0.12 4.12,0.96 0.52,-0.99 0.27,-0.97 1.76,-0.96 0.89,0 1.82,-0.05 2.69,0.06 1.02,0.13 1.59,-0.06 2.61,-0.06 1.4,0 1.34,0.59 1.91,0.71 0.41,0.09 1.59,-0.79 3.24,-0.74 1.46,0.05 1.65,0.72 2.28,1.43l0.36 -0.59c0.11,-0.23 0.15,-0.38 0.33,-0.55 0.55,-0.5 3.7,-0.28 4.42,-0.2 1.1,0.13 1.86,-0.17 2.99,-0.04 1.22,0.14 1.22,0.73 1.97,1.24l0.52 -1.1c1.73,-0.38 3.51,0.06 5.07,-0.05 2.89,-0.21 1.88,-0.39 3.97,1.01 1.86,-0.45 0.02,-1.1 4.85,-1.1 4.95,0 5.99,0.5 4.43,6.12 -0.46,1.67 -0.97,5.78 -1.9,7.07 -0.41,0.57 -0.79,1.01 -1.66,1.28 -0.65,0.2 -6.55,0.86 -7.76,-0.61 -0.35,-0.43 -0.72,-1.61 -0.63,-2.09 0.3,-1.64 0.84,-3.16 1.05,-4.81l-3.39 -0.13c-0.88,2 -0.96,5.14 -1.99,7.72 -1.2,0.26 -2.38,-0 -3.39,0.16l-0.73 3.59c1.27,0 2.09,-0.36 3.24,0.21 1.21,0.6 1.02,1.36 1.69,1.85 0.53,-0.43 0.38,-0.77 1.09,-1.27 1.55,-1.08 3.85,-0.94 5.82,-0.94 2.25,0 4.04,-0.18 4.78,2.35 0.73,-0.37 0.62,-0.62 1.14,-1.14 0.29,-0.29 0.83,-0.66 1.33,-0.88 1.51,-0.68 2.41,-0.21 3.78,-0.03 0.2,-0.39 0.65,-2.11 0.73,-2.65 0.12,-0.79 0.28,-0.85 0.43,-1.36l1.4 -6.96c0.1,-0.56 0.27,-0.85 0.38,-1.39 0.44,-2.22 1.11,-4.68 1.47,-6.91 0.09,-0.57 0.2,-0.8 0.29,-1.32 0.12,-0.69 0.09,-1.11 0.76,-1.31l6.3 -0.09c4.11,-0 2.6,0.43 2.43,3.53 2.33,0 7.09,0.34 8.97,-0.29 0.3,-1.43 0.18,-1.87 0.81,-3.16 0.99,-0.1 2.14,-0.07 3.24,-0.08 1.36,-0.01 1.62,-0.15 1.98,1.11l6.84 -2.22zm-21.25 4.06c-0.17,-1.07 1.41,-3.13 -0.82,-3.45 -1.45,-0.21 -3.61,-0.08 -5.14,-0.08 -1.15,0 -3.87,-0.37 -4.39,0.82 -0.23,0.52 -0.81,3.45 -0.97,4.19 -0.16,0.76 -3.33,15.92 -3.76,16.83 -1.04,0.21 -1.76,-0.37 -3.29,0.1 -1.25,0.38 -1.49,1.02 -2.29,1.52 -0.85,-0.57 -0.88,-1.18 -2.34,-1.49 -1.67,-0.36 -7.19,-0.32 -8.67,0.64 -0.39,0.26 -0.58,0.55 -1.05,0.78 -1.58,-1.49 -1.37,-1.54 -4.33,-1.56l0.65 -2.3c2.62,-0.87 3.37,1.83 4.32,-4.12 0.23,-1.45 0.7,-2.79 0.98,-3.99l2.28 0.2c0,2.2 -3.22,7.72 2.57,7.8 1.73,0.02 4.47,0.19 5.87,-0.39 2.24,-0.93 2.63,-3.84 3.03,-6.08l0.6 -2.5c1.46,-5.71 0.75,-6.85 -4.5,-6.85 -0.99,0 -2.13,-0.08 -3.03,0.06 -1.53,0.24 -1.12,0.23 -2.04,0.89 -0.77,-0.38 -0.65,-0.83 -1.98,-0.98l-5.9 0.02c-1.57,0.01 -1.35,0.25 -2.28,0.67 -0.72,-0.57 -1.13,-0.74 -2.43,-0.73 -1.73,0.02 -0.37,0.24 -2.75,-0.02 -0.88,-0.09 -1.7,-0.01 -2.48,-0.03 -1.28,-0.04 -1.44,0.11 -2.12,0.85 -1.04,-0.46 -1.24,-0.94 -2.63,-0.86 -0.71,0.04 -1.98,0.42 -2.67,0.72 -1.98,-1.35 -2.29,-0.24 -4.05,-0.5 -0.95,-0.14 -3.92,-0.33 -4.77,0.08 -0.38,0.18 -0.33,0.41 -0.81,0.3 -0.3,-0.07 -0.22,-0.19 -0.79,-0.34 -1.11,-0.3 -4.86,-0.22 -6.11,-0.02 -1.37,0.22 -0.71,-0.49 -1.16,-1.54 -0.18,-0.41 -0.51,-0.87 -0.78,-1.13 -0.68,-0.68 -1.61,-0.91 -2.85,-1.01 -2.68,-0.2 -7.85,-0.55 -9.39,1.82 -0.88,1.36 -1.82,4.57 -1.48,6.11 0.24,1.08 0.77,2.04 1.6,2.26 -0.4,0.96 -2.05,-0.52 -2.67,1.45 -0.83,2.62 -1.82,6.5 1.53,7.5 0.68,0.2 1.24,0.08 1.73,0.32 -0.06,0.73 -0.3,0.5 -0.68,1.22 -0.22,0.43 -0.33,0.81 -0.47,1.31 -0.49,1.77 -1.36,4.31 -0.26,5.94 0.37,0.55 1.59,1.15 1.63,1.75 -3.73,0 -3.35,0.19 -3.94,3.75 -0.17,1.05 -0.65,1.85 -0.34,3.1 0.85,3.45 5.61,2.79 8.62,2.79 5.47,0 4.3,-0.7 6.03,-1.47 0.69,0.44 0.7,0.91 1.59,1.19 0.78,0.25 1.63,0.28 2.53,0.28 1.78,-0.01 3.66,0.14 5.31,-0.11 0.86,-0.13 1.55,-0.6 2.1,-0.26 0.82,0.5 1.42,0.37 2.45,0.37 0.73,-0 3.91,-0.16 4.55,0.01 1.72,0.45 -0.34,4.43 1.11,5.08 0.94,0.42 9.1,0.08 10.82,0.13 1.69,0.05 2.13,1.76 3.67,-0.03 3.9,0.12 8.23,-0.04 12.21,-0.04l24.12 0c1.33,0 5.03,0.35 5.78,-0.26 1.21,-0.99 -0.08,-3.83 0.77,-5.26 1.41,3.81 1.85,7.63 6.4,8.07 1.1,0.11 2.98,-0.53 3.92,-0.85 1.19,-0.41 2.35,-0.83 3.56,-1.29 2.76,-1.05 8.54,-2.78 10.7,-3.7 1.14,-0.49 2.36,-0.78 3.59,-1.27 1.21,-0.48 2.5,-0.82 3.59,-1.25 3.14,-1.23 7.99,-1.69 9.88,-4.55 1.8,-2.73 0.66,-4.59 -0.25,-7.43l-3.05 -9.01c-0.23,-0.5 -0.44,-1.15 -0.62,-1.73 -0.26,-0.8 -0.37,-1.15 -0.67,-1.83 -0.64,-1.45 -1.28,-3.72 -1.77,-5.3 -0.2,-0.64 -0.41,-1.18 -0.69,-1.82l-1.78 -5.43c-0.31,-1.2 -0.65,-1.65 -1.02,-2.65 -0.15,-0.41 -0.14,-0.47 -0.34,-0.85 -0.5,-0.92 -1.43,-1.85 -2.35,-2.34 -2.97,-1.59 -6.57,0.72 -9.52,1.61l-8.85 3.05c-3.15,1.23 -1.26,-0.05 -3.03,-0.33 -0.77,-0.12 -4.16,-0.15 -4.69,0.11 -1.02,0.51 -0.72,2.32 -1.39,3.32 -0.73,0.16 -6.84,0.13 -7.65,0z"/>
   <path class="fil0" d="M99.99 13.23c0,1.05 0.39,1.22 1.07,1.73 0.6,0.44 1.03,0.78 1.68,1.26 2.18,1.63 2.34,1.74 5.48,1.61 0.14,0.29 0.13,-0.05 0.08,0.38 -0.06,0.52 -3.02,2.91 -4.05,4.45 -0.86,1.27 -0.6,2.02 -0.08,3.32 0.37,0.92 1.14,2.57 1.12,3.52l-3.72 3.56c-1.66,1.66 0.11,4.29 2.32,2.76l3.87 -3.64c0.57,-0.52 1.49,-1.14 1.51,-2.17 0.03,-1.31 -0.65,-1.91 -0.81,-3.09l2.55 1.06c3.25,1.33 2.35,0.54 2.87,2.71 0.52,2.18 0.65,5.53 2.09,6.01 1.5,0.5 2.86,-0.45 2.26,-3.15 -0.27,-1.21 -1.2,-6 -1.52,-6.56 -0.55,-0.93 -2.52,-1.6 -3.95,-2.23 -0.55,-0.24 -1.03,-0.26 -1.5,-0.56 0.02,-0.67 3.94,-4.34 4.34,-4.67 0.67,0.08 3.35,1.32 4.12,1.67 0.74,0.34 1.28,0.56 1.91,0.87 0.48,0.23 1.42,0.77 2.14,0.39 0.63,-0.34 1.03,-1.05 0.63,-1.82 -0.52,-0.99 -4.68,-2.53 -5.73,-2.96 -1.09,-0.45 -5.06,-2.33 -6.15,-2.38 -5.37,-0.22 -5.4,1.02 -9.31,-2.17 -0.79,-0.64 -1.83,-1.64 -2.78,-0.64 -0.09,0.09 -0.42,0.64 -0.42,0.75z"/>
   <path class="fil2" d="M4.67 30.29c0,3.44 -0.31,2.77 4.14,5.28 1.3,0.74 2.39,0.85 1.54,3.2 -0.2,0.56 -0.47,0.74 -1.12,0.79 -0.51,-0.97 -0.11,-1.33 0.05,-2.55 -1.91,0.2 -4.41,-0.29 -6.08,0.05 -0.01,0.52 -0.43,1.7 -0.6,2.93 -0.17,1.25 -0.48,2.18 0.41,3 1.29,1.2 4.38,0.84 6.52,0.84 2.43,0 4.42,-0.01 5.57,-1.63 0.46,-0.64 0.9,-1.69 1.11,-2.57 1.25,-5.23 1.34,-5.06 -3.89,-7.86 -0.8,-0.43 -2.05,-1.09 -1.27,-2.16 0.38,-0.52 1.27,-0.54 1.27,0.25l0 0.88 5.44 0c0.6,0 0.69,-0.8 0.8,-1.4 0.26,-1.37 1.45,-4.11 -2.87,-4.32 -2.14,-0.1 -5.65,-0.18 -7.75,0.32 -0.66,0.16 -1.32,0.54 -1.72,1.07 -1.27,1.69 -0.86,1.95 -1.34,3.37 -0.2,0.6 -0.21,-0.13 -0.21,0.52z"/>
   <path class="fil2" d="M30.41 11.31c0.1,-0.47 0.15,-0.23 0,-0.59 -3.94,0 -3.5,-0.7 -4.14,2.77 -0.4,2.18 -0.52,2.02 -0.81,3.16l-0.95 4.94c-0.34,1.55 -0.44,0.88 -0.44,2.21l3.82 0.01c0.09,-0.41 0.14,-1 0.24,-1.38l1.48 -6.6c0.23,-1.04 0.08,-2.07 1.22,-2.17 0.15,1.86 -0.08,1.99 -0.43,3.69 -0.26,1.26 -1.34,5.75 -1.34,6.45l3.68 0c0.26,-0.54 0.52,-1.84 0.65,-2.58l1.17 -5.31c0.12,-0.49 0.13,-0.88 0.27,-1.35 0.14,-0.47 0.21,-0.77 0.71,-0.91 0.67,0.49 0.27,1.31 0.06,2.27 -0.14,0.65 -0.25,0.8 -0.34,1.28l-1.35 6.6 3.82 0.02c0.33,-1.49 1.18,-4.44 1.18,-5.75 0.5,-0.27 0.06,0.05 0.29,-1.01 0.44,-2.02 2.01,-6.53 -1.46,-6.42 -1.24,0.04 -2.34,0.98 -2.8,1.13 -0.89,-0.72 -1.19,-1.68 -3.32,-0.84 -0.77,0.3 -0.19,0.37 -1.24,0.37z"/>
   <path class="fil2" d="M8.06 19.99c-0.22,-1.37 0.12,-1.06 0.15,-2.21l-5 0c-0.25,0.52 -0.81,3.14 -0.79,3.97 0.04,1.59 1.11,2 2.69,2.06 2.01,0.07 6.53,0.73 7.88,-1.25 1,-1.47 1.53,-3.58 1.55,-5.51 0.01,-1.13 0.09,-1.2 -0.52,-1.84 -0.4,-0.42 -0.93,-0.67 -1.41,-0.95 -0.52,-0.31 -2.63,-1.5 -2.88,-1.83 -0.73,-0.98 0.69,-2.29 1.04,-1.04 0.1,0.36 -0.03,0.38 -0.06,0.81 5.82,0 4.83,0.43 5.3,-1.18 0.67,-2.31 0.38,-3.51 -2.09,-3.8 -1.64,-0.19 -6.36,-0.11 -7.42,0.46 -1.23,0.67 -1.66,1.93 -1.93,3.22 -0.86,4.11 0.11,3.8 3.93,6 0.99,0.57 1.08,1.64 0.51,2.7 -0.28,0.52 -0.25,0.38 -0.94,0.38z"/>
   <path class="fil2" d="M69.58 36.66c0.08,-0.36 0.15,-0.41 0.28,-0.91 0.39,-1.6 0.47,-3.4 1.45,-3.4 1.04,0 0.1,2.41 0.01,2.8l-0.92 4.08c-0.16,0.7 -0.37,1.19 -1.29,1.21 -0.08,-0.33 -0.15,-0.34 -0.15,-0.74l0.63 -3.04zm2.9 -6.96c-0.78,-0.18 -1.19,-1.06 -3.35,-0.7 -3.19,0.52 -3.64,5.48 -4.34,8.17 -0.34,1.32 -0.84,3.09 -0.71,4.47 0.05,0.59 -0.09,0.48 0.45,0.58 0.62,0.11 1.36,-0.15 2.12,0.12 0.73,0.26 0.44,0.63 1.28,0.79 0.86,0.16 0.99,-0.17 1.81,-0.05 1.06,0.15 3.06,0.2 4.22,-0.01 0.37,-0.23 3.58,-14.94 3.73,-15.67 0.19,-0.95 0.39,-1.32 0.39,-2.4l-4.36 0.01 -1.23 4.7z"/>
   <path class="fil2" d="M40.17 43.04c0.71,0.11 1.81,0.33 2.2,0.24 0.39,-0.1 -0.06,-0.04 0.43,-0.14 0.2,-0.04 0.49,-0.05 0.71,-0.05 0.47,0.01 0.8,0.1 1.18,0.15 0.02,-0.91 0.96,-4.33 1.24,-5.53l0.97 -4.18c0.18,-0.77 0.14,-0.67 0.64,-1.13 0.54,0.25 0.28,-0.1 0.74,0.34 -0.01,0.86 -1.62,7.54 -1.91,8.5 -0.19,0.62 -0.1,0.51 -0.2,1.11 1.86,-0.15 1.76,-0.57 2.98,0.56 0.3,0.28 0.85,0.37 1.23,0.22 0.53,-0.21 0.72,-2.17 0.88,-2.91l0.96 -4.04c0.51,-1.87 2.21,-7.23 -1.35,-7.23 -1.93,0 -2.06,0.66 -2.94,0.74 -0.03,-0.95 0.25,-1.79 0.41,-2.54 0.6,-2.75 1.19,-2.17 -3.64,-2.17 -0.78,0 -1.25,3.36 -1.41,4.18l-2.13 9.19c-0.15,0.71 -1.02,4.22 -0.97,4.67z"/>
   <path class="fil2" d="M21.73 40.29c0,-0.48 0.32,-1.75 0.48,-2.32 0.47,-1.69 0.94,-6.31 2.17,-6.07 0.77,0.4 0.3,1.56 0.1,2.3l-1.43 5.92c-0.2,0.54 -0.29,0.48 -0.57,0.9 -0.31,-0.21 -0.74,-0.32 -0.74,-0.74zm0.93 -11.28c-0.84,0.18 -1.64,0.08 -2.56,0.83 -1.31,1.07 -2.29,7.46 -2.82,9.39 -0.25,0.92 -1.09,3.09 0.11,4.06 1.01,0.82 4.78,0.61 6.54,0.53 2.31,-0.11 3.19,-1.19 3.7,-3.21l0.99 -4.31c0.15,-0.52 0.23,-0.81 0.35,-1.41l0.45 -2.05c0.29,-1.07 0.67,-2.48 -0.31,-3.31 -0.68,-0.58 -1.91,-0.43 -3.12,-0.41 -1.04,0.01 -2.54,-0.26 -3.33,-0.09z"/>
   <path class="fil2" d="M28.8 43.82c5.35,0 3.46,1.12 5.21,-5.82l1.07 -4.52c0.33,-1.3 1.73,-1.52 1.32,-0.02l-2.11 9.25c-0.2,0.92 -0.31,1.11 0.53,1.11 0.59,0 0.44,-0.42 0.44,-1.47 1.36,-0.03 1.54,-0.68 2.3,0.74 1.52,0.06 1.15,0.1 1.33,-0.32l1.43 -6.38c0.58,-2.54 2.58,-7.42 -1.68,-7.42 -1.28,0 -1.88,0.8 -2.79,0.88 0.03,-0.4 0.07,-0.4 0.15,-0.74l-2.79 0c-2.01,0 -1.56,-0.84 -2.29,2.56l-2.6 11.4c-0.18,0.81 -0.43,0.31 -0.08,0.62 0.2,0.18 0.27,0.12 0.57,0.12z"/>
   <path class="fil2" d="M83.51 31.91c0.32,1.51 -0.21,2.5 -0.49,3.77l-0.52 2.42c-0.18,0.84 -0.55,3.3 -1.51,2.68 -0.63,-0.4 -0.03,-1.93 0.11,-2.47l1.09 -4.8c0.1,-0.45 0.16,-0.79 0.34,-1.13 0.27,-0.52 0.29,-0.48 0.99,-0.48zm-7.65 11.03c1.07,0.37 2.15,0.2 3.38,0.16 2.3,-0.07 1.81,0.65 2.84,0.73 0.11,-0.9 -0.14,-1.02 0.39,-1.5 0.37,-0.17 2.13,-0.12 2.57,-0.02 0.82,0.19 0.63,0.71 1.34,-1.2l2.22 -9.56c0.52,-2.9 -2.43,-2.38 -3.29,-2.48 -1.39,-0.17 -4.37,-0.18 -5.41,0.27 -1.47,0.63 -1.93,1.94 -2.27,3.61 -0.77,3.78 -1.78,6.28 -1.78,9.99z"/>
   <path class="fil2" d="M56.89 40.59c0,-1.52 0.29,-3.09 2.06,-3.09 -0.01,0.55 -0.28,1.36 -0.45,1.91 -0.36,1.2 -0.43,1.59 -1.61,1.18zm-2.5 -7.06c0.39,0 0.39,-0.14 0.86,-0.12l2.97 0.11c0.24,-0.36 0.58,-1.48 0.98,-1.67 0.34,-0.17 0.46,-0.02 0.79,0.06 0,0.38 0.04,0.77 -0.06,1.12 -0.27,0.9 -1.23,1.09 -2.08,1.45 -1.03,0.43 -3.32,1.31 -3.95,2.08 -1.54,1.85 -2.14,4.24 -1.31,6.39 0.29,0.09 0.93,0.16 1.22,0.33 0.77,0.45 -0.21,0.42 0.69,0.65 0.74,-0.88 -1.25,-2.13 3.73,-1.73 1.28,0.1 0.84,0.72 1.85,0.88 0.28,0.05 0.71,0.03 1.06,0.07 0.78,0.1 0.45,0.23 1.06,0.39l0.21 -1.41c0.01,-0.04 0.03,-0.07 0.04,-0.11 0.46,-1.5 0.9,-4.05 1.27,-5.49 0.09,-0.35 0.14,-0.36 0.23,-0.8l1.05 -4.69c0,-0.59 -0.4,-1.25 -0.7,-1.5 -0.8,-0.67 -5.04,-0.5 -6.06,-0.43 -2.04,0.16 -3.13,0.17 -3.95,2.83 -0.18,0.57 -0.58,1.6 0.13,1.6z"/>
   <path class="fil2" d="M43.65 20.87c-0.28,-1.21 0.32,-2.69 0.54,-3.88 0.15,-0.81 0.28,-1.11 0.43,-1.92 0.17,-0.9 0.21,-1.35 0.95,-1.41 0.19,0.24 -0.02,-0.22 0.21,0.37 0.3,0.77 -1.16,6.27 -1.38,6.55 -0.32,0.41 -0.05,0.27 -0.75,0.28zm-5.44 6.32c4.35,0 3.73,0.58 4.23,-1.95l0.4 -1.75c0.15,-0.32 -0.18,-0.12 0.22,-0.27 0.16,-0.01 2.52,1.95 4.42,-0.58 0.85,-1.13 1.3,-3.38 1.63,-4.98 0.13,-0.63 0.96,-4.04 0.9,-4.63 -0.11,-1.25 -0.5,-2.24 -1.8,-2.37 -1.41,-0.14 -2.12,0.65 -2.65,0.79 -0.03,-0.4 -0.07,-0.4 -0.15,-0.74l-3.68 -0.02 -2.46 11.25c-0.12,0.62 -0.16,0.53 -0.29,1.02 -0.19,0.74 -0.24,1.38 -0.4,2.11 -0.16,0.71 -0.38,1.34 -0.38,2.12z"/>
   <path class="fil2" d="M74.1 23.23l0 0.59 4.85 0c0.24,-1.03 0.61,-2.4 0.83,-3.44 0.23,-1.1 0.64,-2.4 0.64,-3.62 1.11,-0.17 2,-0.15 3.24,-0.15 0.33,-0.95 0.74,-2.76 0.74,-3.82l-2.94 0c0.05,-0.63 0.28,-1.09 0.29,-1.77l3.09 0c0.21,-0.89 0.42,-1.75 0.64,-2.76 0.12,-0.56 0.42,-0.85 -0.08,-1l-7.47 -0.07c-0.57,0 -1.02,2.83 -1.19,3.67l-1.94 9.24c-0.05,0.3 -0.17,0.63 -0.27,1.05 -0.07,0.3 -0.42,1.91 -0.42,2.08z"/>
   <path class="fil2" d="M83.37 21.9c0,1.23 0.71,2.06 2.06,2.06 1.29,0 1.58,-0.66 2.5,-0.74 0.01,0.58 -0.04,0.34 0.15,0.74l3.38 -0c0.49,-0.75 0.68,-2.01 0.9,-3.07 0.3,-1.45 2.04,-9.3 2.04,-10.16 -4.27,0.22 -3.66,-0.86 -4.33,2.29l-1.16 5.47c-0.32,1.91 -0.35,2.39 -1.43,2.39 0,-2.01 1.91,-8.81 1.91,-9.85 0,-0.46 -1.38,-0.22 -2.35,-0.25l-1.32 -0.06c-0.16,0.61 -0.02,0.02 -0.22,0.53 -0.1,0.26 -0.16,0.52 -0.19,0.69 -0.41,2.3 -1.95,8.31 -1.95,9.97z"/>
   <path class="fil2" d="M63.66 15.29c0,-1.19 0.18,-1.28 0.59,-2.06 0.59,0 0.88,-0.08 0.88,0.44 0,2.31 -1,1.66 -1.47,1.62zm-1.18 8.63c1.09,0 2.19,0.03 3.27,-0.36 1.47,-0.54 2.18,-3.49 2.18,-4.88 -4.62,0 -3.75,-0.32 -4.14,1.31 -0.14,0.57 -0.32,0.98 -0.72,1.34 -0.32,-0.08 -0.15,-0.07 -0.38,-0.21 -0.49,-0.31 0.31,0.01 -0.35,-0.23 0.09,-0.4 0.17,-0.44 0.26,-0.77 0.08,-0.32 0.12,-0.59 0.17,-0.86 0.1,-0.52 0.26,-1.2 0.46,-1.6l4.91 0 0.97 -4.13c0.07,-0.71 0.21,-1.58 -0.18,-2.16 -0.22,-0.32 -0.46,-0.39 -0.86,-0.47 -1.64,-0.3 -5.84,-0.43 -6.92,0.55 -1.14,1.04 -1.71,4.97 -1.99,6.4 -0.3,1.54 -0.9,3.44 -0.83,4.57 0.06,0.98 0.55,1.23 1.41,1.37 0.49,0.08 2.24,0.14 2.75,0.14z"/>
   <path class="fil2" d="M19.82 15.29c0.01,-0.54 0.15,-1.02 0.33,-1.43 0.29,-0.68 0.24,-0.63 1.14,-0.63l-0.15 2.06c-0.91,0.02 -0.41,0.21 -1.32,0zm-5.3 6.91c0,0.75 0.15,1.21 0.91,1.45 0.53,0.17 1.23,0.18 1.89,0.17 2.61,-0.02 4.71,0.77 6.02,-1.77 0.38,-0.73 0.74,-2.25 0.74,-3.38l-3.82 0c-0.3,1.27 -0.3,2.56 -1.32,2.65 -0.27,-0.77 -0.17,-1.13 0,-1.91 0.54,-2.38 -0.31,-1.77 5.44,-1.77 0.05,-0.57 1.03,-3.04 1.03,-5.44 0,-1.95 -3.48,-1.47 -5.59,-1.47 -3.14,0 -3.27,1.7 -3.86,4.52l-1.11 5.07c-0.1,0.64 -0.33,1.33 -0.33,1.88z"/>
   <path class="fil2" d="M87.19 42.94c0.81,0.33 1.07,0.29 2.27,0.2 2.61,-0.19 2.11,1.3 2.95,-2.63l1.34 -5.87c0.26,-1.13 0.15,-2.21 1.33,-2.24 0.44,0.61 0.37,0.51 0.16,1.39 -0.14,0.6 -0.51,0.99 0.31,1.07 0.9,0.09 3.06,0.14 3.75,-0.11 0.41,-0.28 0.09,0.12 0.28,-0.46 0.07,-0.23 0.07,-0.38 0.11,-0.63 0.18,-1.18 0.54,-2.89 -0.2,-3.91 -0.47,-0.65 -1.23,-0.89 -2.28,-0.78 -1.17,0.11 -1.77,0.72 -2.36,0.87 -0.02,-1.37 -0.57,-0.77 -1.77,-0.8 -3.8,-0.09 -2.28,-0.58 -3.71,4.43l-2.16 9.46z"/>
   <path class="fil2" d="M55.42 11.31c-0.1,-0.87 -1.03,-0.58 -3.09,-0.59 -1.06,-0.01 -1.06,1.37 -1.33,2.79 -0.12,0.64 -0.25,1.01 -0.38,1.68 -0.13,0.64 -0.2,1.13 -0.33,1.73 -0.13,0.6 -0.36,1.07 -0.45,1.61l-1.05 5.28c4.54,0 3.77,0.77 4.52,-3.13 0.12,-0.62 0.24,-0.92 0.37,-1.54 0.04,-0.21 0.07,-0.45 0.13,-0.76 0.09,-0.44 0.1,-0.27 0.2,-0.68 0.48,-1.89 0.35,-3.94 1.55,-4.04 0.23,1.44 0.44,-0.29 -0.15,2.21 0.44,0.06 3.26,0.13 3.48,0 0.45,-0.27 0.34,-0.18 0.51,-0.87 0.35,-1.37 0.66,-3.62 -0.96,-4.23 -1.38,-0.52 -2.3,0.48 -3.03,0.54z"/>
   <path class="fil2" d="M94.4 23.82l1.76 0.05c0.41,-0 0.41,-0.03 0.69,-1.27 0.24,-1.08 2.54,-11.29 2.5,-11.82l-3.33 -0.05c-0.62,0 -0.93,2.3 -1.16,3.25l-2.04 9.18c-0.17,1.12 0.73,0.6 1.58,0.66z"/>
   <path class="fil0" d="M29.1 27.93c0.59,0.22 0.59,0.11 0.72,0.59l0.44 0c0.34,-1.2 1.66,-0.88 3.09,-0.88 1.22,0 2.57,-0.13 3.46,0.22 0.2,-0.54 -0.01,-0.61 0.06,-1.2 0.06,-0.48 0.22,-0.74 0.23,-1.3 -0.93,-0.34 -11.24,-0.15 -12.72,-0.15 -0.66,0 -0.78,-0.13 -1.21,-0.36 -0.71,-0.37 -0.52,0.19 -3.28,0.36 -0.15,0.58 0.16,0.8 0.3,1.32 0.12,0.48 0.02,0.92 0.15,1.48 0.75,-0.05 1.27,-0.36 2.27,-0.37 1.66,-0.02 5.21,-0.17 6.49,0.3z"/>
   <path class="fil0" d="M78.95 28.08c0.69,-0.02 1.04,-0.26 1.7,-0.38 1.21,-0.21 4.81,0.13 6.03,-0.14 0.07,-0.5 -0.51,-1.86 -0.74,-2.21 -1.82,0 -3.45,-0.6 -3.79,-2.56 -0.18,-1 -0.09,-1.93 0.11,-2.87 0.37,-1.72 0.74,-2 -0.51,-2l-1.54 6.56c-0.42,1.06 -0.48,-0.34 -1.26,3.59z"/>
   <path class="fil0" d="M113.81 9.84c-0.28,0.08 -0.09,-0.04 -0.47,0.12 -0.52,0.22 -0.92,0.57 -1.19,1.02 -1.42,2.31 0.79,5.14 3.31,4.34 3.41,-1.08 1.91,-6.57 -1.65,-5.48z"/>
   <path class="fil1" d="M19.9 25.21c2.75,-0.17 2.57,-0.73 3.28,-0.36 0.43,0.23 0.55,0.36 1.21,0.36 1.48,0 11.79,-0.2 12.72,0.15 -0.01,0.56 -0.17,0.81 -0.23,1.3 -0.08,0.59 0.14,0.67 -0.06,1.2 -0.88,-0.35 -2.24,-0.22 -3.46,-0.22 -1.43,-0 -2.75,-0.31 -3.09,0.88l-0.44 0c-0.14,-0.48 -0.13,-0.37 -0.72,-0.59 -1.28,-0.47 -4.83,-0.32 -6.49,-0.3 -1,0.01 -1.52,0.33 -2.27,0.37 -0.12,-0.56 -0.02,-1 -0.15,-1.48 -0.13,-0.51 -0.45,-0.73 -0.3,-1.32zm-1.47 -0.59c0.48,1.16 0.73,0.32 1.14,1.95 0.35,1.4 0,1.2 -0.04,2.46 0.98,-0.22 0.56,-0.59 2.49,-0.82 0.81,-0.1 5.61,-0.14 6.31,0.03 1.32,0.31 1.27,0.76 2.08,1.31 1.06,-1.11 -0.89,-1.4 3.38,-1.4 0.71,0 1.75,-0.15 2.34,0.11 1.28,0.57 0.65,0.02 1.86,-0.11 -0.36,-0.73 -0.66,-0.14 -0.55,-1.41 0.07,-0.81 0.21,-1.35 0.26,-2.12 -3.48,0 -9.32,-0.17 -12.49,-0.03 -1.94,0.08 -1.51,-0.25 -2,-0.51 -0.89,-0.46 -0.14,0.34 -2.06,0.45 -0.97,0.06 -1.76,0.09 -2.73,0.09z"/>
   <path class="fil1" d="M78.95 28.08c0.78,-3.92 0.84,-2.53 1.26,-3.59l1.54 -6.56c1.25,0 0.88,0.27 0.51,2 -0.2,0.95 -0.29,1.87 -0.11,2.87 0.35,1.96 1.97,2.56 3.79,2.56 0.22,0.34 0.8,1.7 0.74,2.21 -1.22,0.27 -4.82,-0.07 -6.03,0.14 -0.65,0.11 -1.01,0.36 -1.7,0.38zm-0.81 1.18c2.25,-0.59 -0.66,-1.08 6.84,-1.1 0.86,-0 1.9,0.15 2.42,0.15 0.23,-0.91 -0.74,-2.5 -1.03,-3.68 -0.9,0.06 -3.22,0.52 -3.75,-2 -0.17,-0.79 0.31,-4.56 0.59,-5.14 -2.27,-0.58 -2.02,0.45 -2.26,1.44 -0.31,1.31 -0.49,2.14 -0.8,3.59 -0.7,3.28 -0.99,1.22 -1.2,3.06 -0.08,0.72 -0.2,1.22 -0.33,1.87 -0.13,0.65 -0.39,1.23 -0.48,1.8z"/>
   <path class="fil1" d="M63.29 43.01c-0.15,0.64 -0,2.25 0,3.16 0,2.93 -0.39,3.02 0.74,2.91 0.18,-0.77 0.07,-1.9 0.07,-2.76 0,-0.66 -0.11,-2.39 0.15,-2.79 0.25,0.1 0.39,-0.25 0.38,1.02 -0.02,1.15 -0.09,3.69 0.06,4.57l0.66 0c0.26,-0.92 -0.05,-4.51 0.1,-5.27 0.07,-0.32 0.01,-0.15 0.12,-0.32 0.33,0.09 0.44,0.03 0.44,0.44l-0.02 5.15c1.18,0 0.9,0.06 0.9,-2.65 -0,-3.94 0.76,-3.6 -3.24,-3.6 -0.75,0 -0.07,-0.03 -0.37,0.15z"/>
   <path class="fil1" d="M55.49 49.04c0.86,0.19 0.8,-0.45 0.79,-0.93 -0,-0.42 0.09,-0.8 0.1,-1.64 0,-1 0.05,-2.23 -0.3,-2.87l0.81 -0.09 -0.01 5.6c0.92,-0.07 0.79,-0.37 0.78,-1 -0.01,-1.26 -0.15,-2.61 -0.06,-3.62 0.08,-0.92 -0.67,-0.97 0.61,-0.97l0 5.59c0.45,-0.04 0.46,-0.09 0.81,-0.22 0.18,-0.79 -0.05,-2.41 0,-3.59 0.09,-2.04 0.53,-2.39 -1.69,-2.38 -2.2,0.01 -1.9,-0.33 -1.92,1.91 -0.01,1.19 -0.17,3.2 0.08,4.2z"/>
   <path class="fil1" d="M36.81 47.13c1,-0.01 0.78,-0.33 1.69,-0.37l0 1.54c-0.77,-0.07 -0.35,-0.07 -0.88,-0.37 -0.02,0.03 -0.05,0.07 -0.06,0.08 -0.38,0.42 -0.29,0.32 -0.77,0.43l0.02 -1.32zm-0.81 1.99c1.31,-0.04 -0.04,-0.69 1.46,-0.16 0.68,0.24 1.02,0.24 1.77,0.01 0.22,-0.76 0.22,-2.3 0.07,-3.16 -0.51,-0.07 -0.63,0.2 -1.4,0.29 0,-1.56 -0.2,-1.63 0.25,-1.62 0.38,0.01 0.18,0.58 1.22,0.08l-0.06 -0.66c-0.53,-0.11 -2,-0.26 -2.31,0.06 -0.32,0.32 0.07,0.19 0.22,0.9 0.24,1.1 -0.26,1.23 -0.28,1.25 -0.44,-0.93 -0.23,-1.82 -0.22,-3.02 -0.25,-0.12 -0.3,-0.13 -0.59,-0.22 -0.46,0.59 -0.15,5.01 -0.15,6.25z"/>
   <path class="fil1" d="M77.55 43.86c-0.21,0.91 -0.25,4.57 0.08,5.26 0.84,-0.09 0.55,-0.44 0.59,-2.05 0.02,-0.68 -0.15,-2.19 0,-2.62l0.59 -0.04c0.25,1.22 -0.25,3.89 0.15,4.71 0.89,-0.08 0.59,-0.27 0.59,-2.35 0,-1.45 -0.24,-2.35 0.29,-2.35 0.6,0 0.45,1.27 0.44,2.06l-0.07 2.65c1.05,-0.04 0.88,-0.27 0.88,-1.32 0,-1.69 0.05,-2.17 -0.13,-3.83 -0.7,-0.26 -2.62,-0.19 -3.41,-0.11z"/>
   <path class="fil0" d="M21.73 40.29c0,0.42 0.42,0.53 0.74,0.74 0.28,-0.42 0.37,-0.36 0.57,-0.9l1.43 -5.92c0.2,-0.74 0.67,-1.9 -0.1,-2.3 -1.23,-0.25 -1.71,4.37 -2.17,6.07 -0.16,0.57 -0.48,1.83 -0.48,2.32z"/>
   <path class="fil0" d="M83.51 31.91c-0.7,0 -0.72,-0.04 -0.99,0.48 -0.18,0.34 -0.24,0.69 -0.34,1.13l-1.09 4.8c-0.13,0.54 -0.73,2.06 -0.11,2.47 0.96,0.62 1.34,-1.84 1.51,-2.68l0.52 -2.42c0.28,-1.27 0.81,-2.26 0.49,-3.77z"/>
   <path class="fil0" d="M68.95 39.7c0,0.4 0.07,0.41 0.15,0.74 0.93,-0.02 1.13,-0.5 1.29,-1.21l0.92 -4.08c0.09,-0.39 1.03,-2.8 -0.01,-2.8 -0.98,0 -1.06,1.8 -1.45,3.4 -0.12,0.5 -0.19,0.55 -0.28,0.91l-0.63 3.04z"/>
   <path class="fil2" d="M96.31 7.34c-0.74,3.17 -1.17,2.5 2.94,2.5 0.7,0 0.89,-2.18 0.83,-2.6 -0.83,-0.01 -3.01,-0.19 -3.78,0.1z"/>
   <path class="fil1" d="M48.69 48.67l0.33 0.09c0.57,0.3 0.23,0.39 1.1,0.38 0.88,-0.01 1.04,-0.27 1.04,-1.19 0.01,-0.73 -0.07,-1.47 -0.1,-2.21 -0.03,-0.77 0.06,-1.09 0.08,-1.93 -0.27,0 -0.3,0.01 -0.55,0.05l-0.48 0.1c0.02,0.35 0.16,3.93 0.01,4.19 -0.19,0.32 0.42,0.17 -0.45,0.22l-0.01 -4.49 -1.02 -0.07c0.05,0.58 -0.09,0.45 0.44,0.59l-0.14 1.79c-0.01,0 -0.04,-0.01 -0.05,-0.01 -0.01,0 -0.05,-0.01 -0.05,-0.01 -0.01,-0 -0.04,-0.02 -0.05,-0.01 0,0.69 -0.11,0.97 -0.12,1.44 -0,0.33 0.13,0.67 0.01,1.06z"/>
   <path class="fil1" d="M47.04 43.82c0,-0.68 0.08,-0.35 0.79,-0.29l-0.06 4.97 -0.6 0.03 -0.14 -1.77 0 -2.94zm1.47 4.85c-0.13,-0.57 -0.37,-4.26 0,-4.85 0,-0.4 0.34,-1.01 -1.33,-0.91 -0.92,0.06 -0.81,0.35 -0.8,1.34 0.01,1.5 0.01,3 0.01,4.5 0.49,0.53 1.3,0.77 2.13,1.1 -0.01,-0.49 -0.21,-0.83 0,-1.18z"/>
   <path class="fil1" d="M43.65 47.2c0,1.55 0.15,0.99 -0.29,1.21 -0.34,-0.19 -0.18,0.05 -0.29,-0.34 -0.01,-0.03 -0.19,-3.38 -0.01,-3.71 0.64,0.03 0.66,-0.12 0.66,0.62l-0.07 2.21zm0.88 1.03l0 -3.82c0,-0.74 -0.82,-0.59 -1.47,-0.59 -1.3,0 -0.73,1.93 -0.74,3.83 -0.01,0.87 -0.05,1.45 0.71,1.51 0.74,0.06 1.51,0.03 1.51,-0.92z"/>
   <path class="fil1" d="M82.92 44.56l-0.1 4.34c0.61,0.08 2.17,-0.69 2.17,-1.25l0 -4.71c-0.97,0.03 -0.66,0.14 -0.66,2.94 0,0.38 -0.01,0.82 -0.01,1.2 -0.01,0.87 0.13,0.65 -0.57,0.79l-0.04 -4.93 -0.77 0 -0.01 1.62z"/>
   <path class="fil1" d="M68.58 46.54c-0.69,-0.14 -0.54,0 -0.52,-0.95 0.01,-0.39 0.01,-0.79 0.01,-1.18 0.79,0.07 0.62,-0.06 0.51,2.13zm0.66 2.43c0,-0.48 -0.04,-0.97 0.03,-1.44 0.24,-1.59 -0.06,-0.65 0.1,-2.26 0.06,-0.55 -0.1,-0.69 -0.14,-1.16 -0.32,-0.53 -1.45,-0.29 -2.06,-0.29 0,1.32 0.14,2.63 0.06,3.98 -0.03,0.5 -0.24,1.74 0.55,1.23 0.53,-0.34 0.15,-1.19 0.2,-1.6l0.66 -0.08 -0.05 1.77c0.13,0 0.29,0 0.33,-0.01 0.26,-0.08 0.16,-0.05 0.3,-0.14z"/>
   <path class="fil1" d="M39.68 44.26c0.18,1.74 -0.11,1.31 0.05,2.87 0.61,0.01 0.71,-0.37 1.27,-0.52l0.01 1.84c-0.39,-0.21 -0.32,-0.05 -0.45,-0.52 -0.96,0.08 -0.88,0.31 -0.88,1.03 2.81,0.33 2.39,0.11 2.26,-3.16 -0.63,-0.03 -0.7,0.19 -1.38,0.29 0,-0.39 -0.1,-1.17 0.08,-1.49 0.27,-0.47 0.3,-0.07 0.33,-0.06 0.07,0.03 -0.11,0.14 0.47,0.3l0.18 -0.13c0.04,-0.04 0.12,0.16 0.33,-0.61 -0.55,-0.45 -1.2,-0.29 -2.28,-0.29l-0 0.44z"/>
   <path class="fil1" d="M90.06 44.34c0.25,-0 0.66,0.01 0.66,0.51l-0.03 3.1c-0.15,0.6 -0.13,0.45 -0.7,0.5l0 -3.74c0.03,-0.36 0.04,-0.27 0.07,-0.37zm-0.66 4.63c2.38,0.7 1.92,-0.73 1.91,-2.21 -0,-0.95 0.18,-2.06 0,-2.8 -0.71,-0.21 -0.82,-0.15 -1.62,-0.15 -0.49,0 -0.44,0.53 -0.46,1.02 -0.07,1.42 -0.3,3.16 0.17,4.13z"/>
   <path class="fil1" d="M86.67 48.9c0.73,0.04 1.9,-0.71 2.21,-1.18l0 -3.83c-1.29,-0.29 -0.79,0.29 -0.8,3.03 -0,0.86 0.03,0.85 -0.53,1.02l-0.08 -4.12 -0.95 0.04c0.4,0.97 -0.08,3.99 0.15,5.04z"/>
   <path class="fil0" d="M43.65 20.87c0.7,-0.02 0.43,0.13 0.75,-0.28 0.22,-0.28 1.68,-5.79 1.38,-6.55 -0.23,-0.59 -0.02,-0.13 -0.21,-0.37 -0.74,0.06 -0.78,0.51 -0.95,1.41 -0.15,0.81 -0.28,1.11 -0.43,1.92 -0.22,1.19 -0.82,2.67 -0.54,3.88z"/>
   <path class="fil1" d="M69.83 48.53c0.04,0.43 0,0.3 0.15,0.59 0.81,-0.1 0.49,-0.17 0.58,-2.06 0.04,-0.95 -0.13,-1.77 -0.13,-2.65 0.89,-0.04 0.92,-0.34 0.79,2.35 -0.11,2.24 -0.18,2.33 0.68,2.35 0,-0.85 0.23,-4.63 -0.22,-5.08 -0.29,-0.34 -1.36,-0.34 -1.8,-0.07l-0.04 4.56z"/>
   <path class="fil1" d="M51.37 47.94l0.22 1.03c0.65,0.19 1.79,0.43 1.99,-0.37 -0.43,-0.29 -0.58,-0.22 -1.25,-0.22l-0.09 -1.76c0.68,-0.13 0.79,-0.2 1.04,-0.74 -0.36,-0.25 -0.43,-0.11 -0.96,-0.07l0 -1.4 1.33 -0.13c-0.13,-0.36 0.08,-0.17 -0.25,-0.36 -0.38,-0.22 -1.62,-0.12 -2.03,-0.03l0 4.05z"/>
   <path class="fil1" d="M74.99 48.97c0.56,0.05 1.37,0.35 1.91,-0 0.37,-0.24 0.15,0.1 0.28,-0.44l-1.32 -0.13 -0.02 -1.78c0.54,-0.12 0.91,-0.22 0.83,-0.81 -0.29,-0.17 -0.33,-0.08 -0.81,0l0 -1.4c1.65,-0.04 1.24,-0.21 1.4,-0.52l-2.35 -0.09 0.08 5.17z"/>
   <path class="fil1" d="M59.54 49.12c0.78,0.06 1.76,0.3 1.84,-0.33 0.06,-0.51 -0.27,-0.32 -0.66,-0.38 -0.62,-0.1 -0.48,0.22 -0.6,-0.45 -0.02,-0.13 0.01,-0.99 0.01,-1.2 0.21,-0.18 -0.02,-0.01 0.27,-0.16 0.11,-0.06 0.19,-0.08 0.29,-0.15 0.45,-0.3 0.18,0.06 0.39,-0.57 -0.31,-0.22 -0.63,-0.1 -0.96,-0 0,-0.94 -0.18,-1.21 0.2,-1.44 0.69,-0.41 0.79,0.52 1.08,-0.48 -0.41,-0.25 -0.74,-0.15 -1.58,-0.15 -0.74,0 -0.44,0.1 -0.43,2.35 0,1.11 0.09,1.99 0.14,2.94z"/>
   <path class="fil1" d="M72.19 43.97c0.17,0.43 0.25,0.26 0.88,0.59l0.01 4.49c1.1,0.21 0.86,-0.08 0.85,-1.84l-0.02 -2.79 0.99 -0.37c-0.43,-0.09 -0.25,-0.22 -1.24,-0.23 -0.29,-0 -1.36,0.02 -1.48,0.16z"/>
   <path class="fil1" d="M85.35 43.84c-0.12,0.91 -0.08,4.26 0.15,5.2 1.02,0.26 0.91,-0.3 0.77,-2.22 -0.09,-1.11 0.04,-1.98 0.04,-3l-0.96 0.02z"/>
   <path class="fil1" d="M16.83 32.84c-0.4,-0.29 -0.26,-0.3 -0.83,-0.34 0.09,-0.35 -0.04,-0.17 0.26,-0.34 0.45,-0.25 0.96,-0.04 1.32,0.19l-0.19 0.66c-0.63,-0.24 -0.13,0.15 -0.57,-0.17zm-2.82 -1.22c0.51,1 2.91,1.09 3.31,2.5l0.3 0c0.07,-0.8 0.35,-1.08 0.51,-2.58 -0.54,-0.11 -1.25,-0.05 -1.87,-0.01 -0.35,0.02 -0.79,0.02 -1.14,0.01 -0.52,-0.02 -0.72,-0.11 -1.11,0.08z"/>
   <path class="fil0" d="M56.89 40.59c1.18,0.41 1.25,0.02 1.61,-1.18 0.16,-0.55 0.44,-1.36 0.45,-1.91 -1.77,0 -2.06,1.57 -2.06,3.09z"/>
   <path class="fil0" d="M47.04 43.82l0 2.94 0.14 1.77 0.6 -0.03 0.06 -4.97c-0.72,-0.05 -0.79,-0.39 -0.79,0.29z"/>
   <path class="fil1" d="M12.54 13.15c0.44,0.6 0.71,0.43 1.36,0.86 0.47,0.32 0.53,0.65 1.37,0.98 0,-0.81 0.25,-1.2 0.22,-1.84 -0.57,-0.12 -2.67,-0.21 -2.94,0z"/>
   <path class="fil0" d="M90.06 44.34c-0.03,0.1 -0.04,0.01 -0.07,0.37l-0 3.74c0.58,-0.05 0.56,0.1 0.7,-0.5l0.03 -3.1c0,-0.5 -0.41,-0.52 -0.66,-0.51z"/>
   <path class="fil0" d="M43.36 48.42c0.44,-0.23 0.29,0.34 0.29,-1.21l0.07 -2.21c0,-0.74 -0.02,-0.59 -0.66,-0.62 -0.18,0.33 -0,3.68 0.01,3.71 0.11,0.38 -0.06,0.15 0.29,0.34z"/>
   <path class="fil0" d="M69.25 44.12c0.04,0.47 0.19,0.61 0.14,1.16 -0.16,1.6 0.14,0.67 -0.1,2.26 -0.07,0.47 -0.03,0.96 -0.03,1.44l0.44 0c0,-0.78 0,-0.22 0.15,-0.44l0.04 -4.56 -0.62 0.15z"/>
   <path class="fil0" d="M63.66 15.29c0.47,0.04 1.47,0.69 1.47,-1.62 0,-0.52 -0.29,-0.44 -0.88,-0.44 -0.41,0.78 -0.59,0.87 -0.59,2.06z"/>
   <path class="fil1" d="M40.05 28.3c0.51,0.3 0.79,0.22 1.22,0.7 0.4,0.45 0.5,0.85 0.91,1.14l0.39 -2.2c-0.46,0.04 -0.76,0.15 -1.27,0.12 -0.18,-0.01 -0.42,-0.07 -0.6,-0.06 -0.9,0.09 -0.34,-0.02 -0.66,0.3z"/>
   <path class="fil0" d="M19.82 15.29c0.91,0.21 0.41,0.02 1.32,0l0.15 -2.06c-0.9,0 -0.84,-0.06 -1.14,0.63 -0.18,0.42 -0.32,0.9 -0.33,1.43z"/>
   <path class="fil0" d="M48.51 48.68l0.18 -0c0.12,-0.39 -0.01,-0.73 -0.01,-1.06 0,-0.47 0.12,-0.75 0.12,-1.44 0.02,-0.01 0.05,0.01 0.05,0.01 0.01,0 0.05,0.01 0.05,0.01 0.01,0 0.04,0.01 0.05,0.01l0.14 -1.79c-0.53,-0.14 -0.39,-0.01 -0.44,-0.59l-0.15 0c-0.37,0.59 -0.13,4.29 0,4.85z"/>
   <path class="fil0" d="M36.81 47.13l-0.02 1.32c0.47,-0.11 0.38,-0.01 0.77,-0.43 0.01,-0.02 0.04,-0.06 0.06,-0.08 0.53,0.29 0.11,0.3 0.88,0.37l0 -1.54c-0.91,0.04 -0.69,0.36 -1.69,0.37z"/>
   <path class="fil1" d="M12.62 24.26c0.72,-0.07 1.03,-0.18 1.77,0 -0.11,-0.49 -0.32,-0.76 -0.51,-1.18 -0.5,0.25 -1.05,0.54 -1.25,1.18z"/>
   <path class="fil0" d="M68.58 46.54c0.11,-2.2 0.28,-2.07 -0.51,-2.13 0,0.39 0,0.79 -0.01,1.18 -0.02,0.95 -0.17,0.81 0.52,0.95z"/>
   <path class="fil0" d="M16 32.49c0.57,0.05 0.43,0.05 0.83,0.34 0.43,0.32 -0.06,-0.07 0.57,0.17l0.19 -0.66c-0.36,-0.24 -0.87,-0.44 -1.32,-0.19 -0.3,0.17 -0.17,-0.01 -0.26,0.34z"/>
  </g>
 </g>
</svg>
