<?xml version="1.0" encoding="UTF-8"?>
<!DOCTYPE svg PUBLIC "-//W3C//DTD SVG 1.1//EN" "http://www.w3.org/Graphics/SVG/1.1/DTD/svg11.dtd">
<!-- Creator: CorelDRAW -->
<svg xmlns="http://www.w3.org/2000/svg" xml:space="preserve" width="21.1667mm" height="25.4001mm" version="1.1" style="shape-rendering:geometricPrecision; text-rendering:geometricPrecision; image-rendering:optimizeQuality; fill-rule:evenodd; clip-rule:evenodd"
viewBox="0 0 26.1 31.32"
 xmlns:xlink="http://www.w3.org/1999/xlink"
 xmlns:xodm="http://www.corel.com/coreldraw/odm/2003">
 <defs>
  <style type="text/css">
   <![CDATA[
    .fil0 {fill:black}
    .fil3 {fill:lime}
    .fil6 {fill:aqua}
    .fil5 {fill:#E81013}
    .fil2 {fill:#F7F7F7}
    .fil1 {fill:#F8F8F8}
    .fil4 {fill:yellow}
   ]]>
  </style>
 </defs>
 <g id="Camada_x0020_1">
  <metadata id="CorelCorpID_0Corel-Layer"/>
  <g id="_2482281380080">
   <path class="fil0" d="M8.84 3.09c0.17,-0.4 0.22,-0.94 0.07,-1.39 -0.08,-0.25 -0.17,-0.32 -0.21,-0.54 -0.06,-0.38 0.01,-0.31 -0.17,-0.6 -0.53,-0.88 -1.04,-0.62 -1.51,0.23 -0.33,-0.1 -0.95,-0.12 -1.35,-0.03 -0.49,0.11 -0.59,0.43 -0.65,1.05 -0.04,0.18 -0.01,0.11 -0.22,0.17 -1.28,0.38 -1.08,-0.12 -1.32,1.57l-0.65 4.83c-0.16,1.2 -0.04,1.06 -0.42,1.34 -0.66,0.49 -0.88,1.32 -1.05,2.41 -0.41,-0.05 -0.61,-0.06 -0.87,0.27 -0.36,0.46 -0.61,1.61 -0.44,2.32 0.14,0.61 0.08,0.67 0.63,0.7 0.04,0.22 0.17,0.53 0.17,0.68 0.01,0.27 -0.08,0.46 0.16,0.59 0.19,0.09 0.35,-0.08 0.55,-0.14 0.18,0.2 0.17,0.37 0.51,0.47 0.36,0.12 0.37,0.04 0.53,0.46 0.21,0.53 0.39,0.96 0.55,1.55 0.14,0.5 0.47,1.04 0.98,0.95 0.73,-0.12 0.53,-0.73 0.99,-0.91 -0.09,0.46 -0.03,0.5 0.08,0.89 0.07,0.23 -0.03,0.12 0.04,0.39 0.07,0.29 0.11,0.03 0.09,0.31l-0.41 1.61c-0.2,0.56 -0.05,0.28 -0.33,0.71 -0.14,0.23 -0.24,0.4 -0.21,0.78 0.06,0.72 -0.04,1.29 0.52,1.46l0.15 0.12c-0.12,0.29 -0.34,0.77 -0.38,1.1 -0.04,0.04 -0,-0.01 -0.06,0.09 -0.01,0.01 -0.03,0.06 -0.03,0.07 -0.17,0.39 -0.52,1.2 -0.41,1.57 0.26,0.14 0.94,-0.07 1.13,-0.2 0.24,-0.04 0.44,-0.12 0.67,-0.2 0.17,-0.06 0.44,-0.17 0.64,-0.18l0.64 2.33c0.1,0.37 0.16,0.62 0.33,0.95 0.45,-0 1.5,-0.61 1.88,-0.86 0.89,-0.59 0.8,-0.63 1.49,-1.34 0.06,0.14 0.11,0.34 0.16,0.54 0.21,0.76 0.46,0.39 1.49,-0.07 0.33,-0.14 0.98,-0.38 1.23,-0.55 0.15,0.13 0.18,0.28 0.4,0.2l1.26 -0.77c0.3,0.32 0.28,0.15 0.36,0.79 0.04,0.37 0.07,0.7 0.22,0.91 0.04,0.96 0.15,1.82 1.29,1.52 0.38,-0.1 0.7,-0.13 1.1,-0.22 0.37,-0.08 0.53,-0.31 0.69,-0.68 0.03,-0.37 0.11,-0.29 0.33,-0.46 0.14,-0.11 0.24,-0.25 0.38,-0.33 0.24,-0.13 0.28,-0.09 0.47,-0.28 0.42,-0.41 0.35,-1.32 0.22,-1.93 -0.05,-0.23 -0.2,-0.33 -0.35,-0.42 -0.22,-0.14 -0.26,-0.06 -0.39,-0.31 0.29,-0.38 0.96,-0.95 0.77,-1.81 -0.11,-0.49 -0.27,-0.48 -0.45,-0.87 -0.34,-0.73 -0.28,-0.48 -0.47,-0.82 0.18,-0.2 0.33,-0.33 0.47,-0.57 0.09,-0.16 0.08,-0.18 0.13,-0.4 0.09,-0.37 0.04,-0.12 0.15,-0.37 0.12,-0.28 0.12,-0.66 0.04,-0.96 -0.1,-0.34 -0.23,-0.41 -0.41,-0.6 0.15,-0.26 0.36,-0.32 0.48,-0.66 0.06,-0.05 0.01,0.01 0.09,-0.11 0.2,-0.31 0.3,-0.75 0.34,-1.13 0.09,-0.82 -0.12,-0.94 -0.32,-1.37 0.57,-0.61 0.74,-1.21 0.87,-2.14 0.12,-0.88 0,-0.78 0.46,-1.11 0.19,-0.14 0.11,-0.09 0.32,-0.02 0.25,0.09 0.54,0.04 0.66,-0.19 0.25,-0.15 0.24,-0.29 0.41,-0.55 1.07,0.62 1.13,-0.17 1.48,-0.09 0.25,0.06 0.25,0.15 0.54,0.03 0.47,-0.18 0.9,-0.84 0.62,-1.52 -0.14,-0.34 -0.07,-0.28 -0.1,-0.69 -0.03,-0.4 -0.1,-1.15 -0.06,-1.54 0.2,-1.92 -2,-1.57 -1.64,0.15 -0.17,0.14 -0.42,0.06 -0.71,0.44 -0.23,0.28 -0.25,-0.01 -0.6,0.07 -0.31,0.07 -0.2,0.28 -0.55,0.05 0.02,-0.53 0.24,-2.26 0.1,-2.64 -0.07,-0.08 -0.07,-0.1 -0.2,-0.12 -0.15,-0.02 -0.45,0.1 -0.67,0.11l0.52 -2.89c0.07,-0.35 0.19,-0.69 -0.03,-0.88 -0.24,-0.18 -0.78,0.14 -1.23,0.14 -0.08,-0.24 -0.06,-0.4 -0.38,-0.37 -0.41,0.03 -1.45,0.35 -1.81,0.31 -0.7,-0.09 -0.79,0.16 -1.02,0.1 -0.22,-0.06 -0.01,-0.16 -0.35,-0.17 -0.23,-0.01 -0.54,0.17 -0.84,0.2l0.05 -0.28 0.11 -0.36c0.15,-0.26 0.4,-0.99 0.19,-1.19 -0.16,-0.11 -1.76,0.14 -1.95,0.25 -0.1,0.25 -0.14,0.58 -0.21,0.86 -0.08,0.3 -0.17,0.53 -0.27,0.78 -0.92,-0.64 -1.09,-0.24 -1.9,0.31 -0,-0.58 0.12,-1.07 -0.05,-1.52 -0.46,-1.23 -2.01,-0.66 -2.06,1.07 -0.18,0.01 -0.3,0.08 -0.4,0.03 -0.27,-0.13 0.01,-0.3 -1.05,0.04 -0.05,-0.07 -0.08,-0.13 -0.14,-0.19 0.03,-0.17 0.06,-0.18 0.09,-0.34z"/>
   <path class="fil1" d="M7.87 10.15l0.72 -0.11 0.07 -0.04c0.05,-0.02 0.06,-0.03 0.12,-0.04 0.91,-0.27 0.64,0.21 0.99,-1.49 0.09,-0.42 0.76,-3.39 0.93,-3.77l0.04 -0.08 -0 -0.24c-0.11,0.07 -0.9,0.23 -1.1,0.27 -0.07,0.59 -0.22,1.26 -0.33,1.85 -0.05,0.26 -0.28,1.67 -0.38,1.86 0.01,-0.57 0.14,-1.37 0.2,-1.97l0.19 -1.94c-0.1,0.06 -1,0.31 -1.18,0.32l0.05 -0.37 -0.8 0.19c-0.39,0.11 -0.25,0.03 -0.45,1.44l-0.18 1.23c-0,0.01 -0.02,0.04 -0.02,0.05 -0,0.01 -0.01,0.03 -0.02,0.05 -0.15,-0.65 -0.05,-2.13 -0.09,-2.95l-1.04 0.27c-0.06,0.31 -0.79,5.34 -0.8,5.81 0.27,-0.09 0.71,-0.25 0.97,-0.37l0.17 -1.52c0.18,0.22 0.38,1.23 0.46,1.52 0.32,-0.06 0.65,-0.28 0.98,-0.32 0.01,-0.32 0.09,-0.91 0.13,-1.21 0.11,-0.87 0.33,-2.42 0.52,-3.29l0.08 -0.28c-0.02,1.57 -0.01,3.81 -0.24,5.15z"/>
   <path class="fil2" d="M16.15 4.69l-0.44 0.12c0.02,0.94 0.01,3.15 -0.08,4.05l-0.11 1.23c0.08,0.06 -0.03,0.03 0.09,0.04 0.06,0 0.06,-0.01 0.14,-0.03l1.38 -0.31c0.08,-0.26 0.13,-0.67 0.2,-0.95l0.43 -1.9c0.06,-0.26 0.14,-0.73 0.26,-0.94 -0.01,0.59 -0.49,3.48 -0.49,4.1 0.71,-0.15 1.37,-0.49 2.19,-0.5l0.07 -1.5c-0.39,0.07 -0.7,0.17 -1.09,0.19l0.08 -0.52c0.15,-0.07 0.84,-0.24 1.04,-0.25l0.07 -1.13 -0.94 0.24c0.14,-0.83 0.02,-0.81 0.63,-0.87 0.21,-0.02 0.33,-0.05 0.58,-0.07l0.07 -1.5 -1.68 0.31c-0.28,-0.03 -0.06,-0.03 -0.17,-0.06 -0.22,-0.07 -0.83,0.18 -1.09,0.2 -0.05,0.47 -0.23,1.29 -0.32,1.78l-0.32 1.67c-0.04,0.13 -0.02,0.08 -0.05,0.14l0.38 -3.77 -0.82 0.23z"/>
   <path class="fil2" d="M6.64 22.18c0.02,-0.33 0.48,-2.04 0.61,-2.42 0.08,-0.25 0.14,-0.25 0.35,-0.36 0.48,-0.25 0.97,-0.43 1.49,-0.29 -0.07,0.6 -0.8,1.39 -1.09,1.75 -0.23,0.28 -1.09,1.2 -1.36,1.33zm-1.66 2.64c0.61,-0.13 0.59,-0.29 0.85,-0.39 0.35,-0.13 0.53,-0.63 0.85,-0.81 0.31,-0.18 0.06,0.15 0.23,-0.08 0.21,-0.24 -0.02,-0.23 0.34,-0.42 0.05,-0.17 0.22,-0.3 0.33,-0.42 0.16,-0.17 0.41,-0.47 0.58,-0.57 0.42,-0.26 0.53,-0.63 0.9,-1.04 0.28,-0.31 0.71,-1.17 0.79,-1.62 0,-0.47 0.14,-1.03 -0.07,-1.36 -0.19,-0.3 -0.46,-0.4 -0.86,-0.4 -0.25,-0 -0.45,0.01 -0.67,0.08 -0.42,0.13 -1.28,0.53 -1.59,0.78 -0.17,0.14 -0.21,0.26 -0.45,0.36 -0.34,0.13 -0.24,-0.01 -0.48,0.33 -0.17,0.25 -0.2,0.32 -0.06,0.62 0.01,0.01 0.01,0.03 0.02,0.04l0.04 0.08c0.03,0.05 0.03,0.08 0.06,0.12 0.1,0.15 0.18,0.14 0.22,0.17l-0.59 2.4c-0.32,1.31 -0.25,0.46 -0.54,1.19 0.09,0.3 0.16,0.2 0.11,0.51 -0.03,0.19 -0.08,0.22 -0.01,0.43z"/>
   <path class="fil1" d="M13.08 16.39l-0.73 0.44c-0.07,0.04 -0.12,0.09 -0.19,0.13l-0.44 0.24c-0.43,0.22 -0.53,-0.31 -0.86,0.47 -0.11,0.26 -0.07,0.38 -0.27,0.47 -0.15,0.07 -0.59,0.11 -0.46,0.94l0.33 0.08c-0.02,0.35 0.01,0.09 -0.08,0.19 0.06,0.48 -0.19,0.66 -0.22,1.13 -0.03,0.46 -0.13,0.81 -0.2,1.2 -0.34,1.75 -0.22,0.79 -0.43,1.59 -0.09,0.36 -0.09,0.18 -0.06,0.54 0.27,0.02 0.18,0 0.37,-0.07 0.76,-0.29 0.64,-0.23 1.24,-1.24 0.55,-0.92 0.55,-0.76 1.13,-1.37l0.71 -1.63c-0.3,-0 -0.63,0.3 -0.83,0.52 -0.16,0.17 -0.6,0.61 -0.78,0.65 0.04,-0.62 0.12,-0.49 0.42,-0.8l0.62 -0.59c0.15,-0.13 0.2,-0.13 0.29,-0.32l0.23 -0.4c0.14,-0.22 0.39,-0.55 0.41,-0.84 -0.42,0.15 -1.19,0.87 -1.6,1.01 0.06,-0.23 0.08,-0.21 0.23,-0.33 0.1,-0.08 0.18,-0.14 0.3,-0.24 0.37,-0.28 1.66,-1.1 2,-1.21 -0.05,-0.14 -0.07,-0.1 -0.06,-0.17l0.16 -0.25c0.01,-0.01 0.02,-0.02 0.03,-0.03 0.01,-0.01 0.02,-0.02 0.03,-0.03 0.1,-0.13 0.06,-0.04 0.13,-0.21l0.14 -0.38c0.06,-0.15 0.09,-0.25 -0.03,-0.48 -0.53,0.3 -0.4,0.3 -0.76,0.52 -0.13,0.08 -0.69,0.4 -0.75,0.48z"/>
   <path class="fil1" d="M11.48 9.82c-0.12,0.42 0.25,0.29 0.57,0.28 0.13,-0 0.36,0.01 0.48,-0.02 0.2,-0.05 0.15,-0.13 0.34,-0.17 0.16,-0.28 0.94,-0.81 1.15,-1.88 0.11,-0.58 0.02,-0.99 -0.34,-1.12 -0.44,-0.15 -0.87,0.2 -1.14,0.03 -0.18,-0.41 0.25,-0.79 0.54,-0.82l0.12 0.37c0.21,-0.16 0.63,-0.37 0.89,-0.44 0.01,-0.49 0.11,-1.09 -0.11,-1.48 -0.24,-0.43 -0.65,-0.25 -0.96,-0.02 -1.16,0.89 -2.73,4.1 -0.79,3.64 0.15,-0.04 0.46,-0.13 0.59,-0.13 0.71,0.04 -0.35,1.08 -0.92,0.52 -0.13,0.24 -0.34,0.89 -0.44,1.22z"/>
   <path class="fil1" d="M5.46 2.81l-0.19 -0c-0.5,0.14 -1.1,0.15 -1.19,0.47 -0.02,0.08 -0.02,0.11 -0.04,0.21l-0.17 1.29c-0.09,0.6 -0.16,1.2 -0.24,1.77 -0.08,0.59 -0.46,3.16 -0.46,3.56l1.25 -0.44c0.11,-1.3 0.24,-2.37 0.43,-3.55 0.09,-0.58 0.18,-1.09 0.28,-1.65 0.08,-0.41 0.22,-1.38 0.32,-1.65z"/>
   <path class="fil1" d="M21.18 9.71c0.02,-0.01 -0.02,-0.01 0.1,-0.05 0,-0 0.12,-0.03 0.12,-0.03 0.12,-0.03 0.19,-0.03 0.3,-0.03 0.14,-0.03 0.08,0.04 0.12,-0.12l0.1 -1.38 -1.03 0.2c0.06,-0.88 0.62,-3.64 0.63,-3.92 -0.26,0.09 -0.77,0.22 -1.06,0.26l-0.73 5.45c0.27,-0.01 0.92,-0.34 1.46,-0.38z"/>
   <path class="fil1" d="M14.89 4.6l-0.2 0.03c-0.01,0.38 -0.11,0.92 -0.17,1.35 -0.06,0.48 -0.12,0.86 -0.18,1.34l-0.37 2.73 0.13 0.02c0.27,-0.09 0.59,-0.26 0.87,-0.3 0.05,-1.02 0.43,-3.52 0.66,-4.68l0.08 -0.28 0.04 -0.41 -0.87 0.2z"/>
   <path class="fil1" d="M10.74 4.62c0,0.35 -0.11,0.98 -0.17,1.36l-0.55 4.02 0 0.09c0.12,-0.01 0.45,-0.13 0.56,-0.18 0.1,-0.05 0.12,-0.08 0.22,-0.16 0.17,-0.12 0.15,-0.01 0.23,-0.2 0.01,-0.53 0.25,-2.1 0.34,-2.67l0.44 -2.5c-0.19,0.07 -0.87,0.24 -1.07,0.24z"/>
   <path class="fil3" d="M7.52 1.99c0.54,-0.32 0.54,0.66 0.14,0.88 -0.48,0.26 -0.65,-0.58 -0.14,-0.88zm0.29 -0.87c0.21,0.14 0.11,0.19 0.35,-0 -0.01,-0.28 -0.11,-0.37 -0.25,-0.53 -0.56,0.21 -0.45,0.98 -0.1,0.53zm3.6 1.34c-0.73,0.29 -0.77,1.65 -0.01,1.4 0.67,-0.21 0.82,-1.73 0.01,-1.4zm3.56 0.97c-0.04,0.15 -0.08,0.27 -0.12,0.43 0.29,0.07 0.61,-0.02 0.92,-0.04 0.06,-0.21 0.24,-0.91 0.36,-1.06l0.03 -0.34 -0.72 0.08c-0.3,0.08 -0.22,0.07 -0.47,0.93zm-8.7 -0.37c-0.01,-0.25 0.06,-0.71 0.12,-0.85l0.02 -0.27 0.44 -0.03 0.07 -0.57 -1.3 -0 -0.08 0.51 0.37 0.08c-0.01,0.55 -0.21,1.05 -0.2,1.56l0.44 0 0.12 -0.43zm0.45 -0.76c0.03,0.69 0.06,1.16 0.65,1.22 0.24,0.02 0.47,-0.09 0.63,-0.22 0.22,-0.18 0.2,-0.3 0.36,-0.5 0.41,-1.58 -0.7,-1.74 -1.24,-1.21 -0.24,0.24 -0.23,0.36 -0.38,0.67 -0,0.01 -0.01,0.03 -0.02,0.04z"/>
   <path class="fil4" d="M16.74 25.77c0.09,0.15 0.11,0.23 0.29,0.26 0.14,0.02 0.38,0.01 0.52,-0.03 0.25,-0.07 0.59,-0.21 0.8,-0.33 0.21,-0.07 0.52,-0.3 0.72,-0.16 -0.26,0.34 -0.82,0.53 -1.31,0.57l-0.17 0.82c0.21,0.01 0.61,-0.07 0.8,-0.13 0.53,-0.17 0.94,-0.43 1.35,-0.91 0.19,-0.23 0.4,-0.42 0.37,-0.95 -0.57,-0.84 -1.71,0.42 -2.19,0.15 0.04,-0.2 0.15,-0.29 0.31,-0.39 0.34,-0.21 0.31,0 0.49,-0.02 0.11,-0.01 0.8,-0.44 0.89,-0.53 -0.08,-0.43 -0.43,-0.7 -0.87,-0.63 -0.45,0.07 -0.63,0.31 -0.96,0.51 -0.4,0.4 -1.06,1.02 -1.05,1.76l-0.21 -1.07 -0.04 -0.36 -0.34 0.08c-0.17,0.06 -0.74,0.28 -0.86,0.4l0.38 1.46 -0.49 0.3 -0.08 -0.05c-0.03,-0.28 -0.11,-0.51 -0.16,-0.81l-0.11 -0.74c-0.06,-0.24 -0.25,-0.06 -0.58,0.08 -0.21,0.09 -0.38,0.15 -0.61,0.29l0.37 1.43 0.35 1.2c0.33,-0.07 1.13,-0.68 1.53,-0.88l0.12 0.38c0.18,-0.07 0.91,-0.42 1.04,-0.56 -0.07,-0.41 -0.23,-0.66 -0.3,-1.13zm-7.62 2.94c-0.15,-0.46 -0.3,-0.99 -0.36,-1.5 0.31,-0.23 1.1,-0.23 1.04,0.35 -0.05,0.45 -0.45,0.96 -0.64,1.2l-0.03 -0.06zm3.2 -0.16l1.8 -0.76c-0.06,-0.16 -0.09,-0.21 -0.17,-0.37l-0.19 -0.31 -1.23 0.47 -0.07 -0.21 0.43 -0.21 0.72 -0.33c-0.03,-0.22 -0.13,-0.38 -0.24,-0.51l-1.03 0.44 -0.08 -0.35 0.93 -0.36c0.05,-0.02 0.1,-0.03 0.15,-0.06 0.12,-0.07 0.06,-0.04 0.14,-0.11l-0.31 -0.65 -1.38 0.57 -0.39 0.14 -0.39 0.18 -0.14 0.02 -0 0.32c-0.31,-0.52 -1.24,-0.53 -1.83,-0.39 -0.49,0.08 -1.59,0.47 -2.02,0.84 0.09,0.31 0.75,2.92 0.92,3.15 0.52,-0.1 1.6,-0.82 1.99,-1.16 1.43,-1.23 1.05,-2.17 1.12,-2.1l0.61 2.07 0.64 -0.33z"/>
   <path class="fil5" d="M12.98 12.65c0.12,-0.18 0.08,-0.29 0.06,-0.6 -0.25,-0.2 -0.15,-0.58 -0.73,-0.19 -0.22,0.15 -0.41,0.32 -0.36,0.7 0.29,0.18 0.3,0.08 0.5,-0.14 0.18,0.27 0.3,0.52 0.54,0.22zm-9.29 1.67c-0.04,0.2 -0.08,0.15 -0.08,0.44 0.52,-0.11 0.28,0.15 0.61,0.29 0.32,0.14 0.57,-0.08 0.6,-0.41 -0.05,-0.39 -0.63,-0.2 -0.67,-0.65 -0.29,-0.02 -0.41,0.02 -0.46,0.34zm20.2 -4.16c-0.91,1.14 -0.29,3.32 0.79,1.94 0.07,-0.09 0.11,-0.2 0.16,-0.31 0.12,0.29 0.23,0.7 0.59,0.4 0.45,-0.37 0.11,-0.51 0.05,-0.82 -0.06,-0.3 -0.01,-1.02 -0.03,-1.38 -0.02,-0.33 -0.08,-0.18 -0.08,-0.56 -0,-0.3 0.06,-0.38 0.03,-0.7 -0.11,-0.39 -0.82,-0.46 -0.6,0.59 0.07,0.35 0.02,0.74 0.04,1.11 0.02,0.39 0.1,0.51 0.08,0.99 -0.56,-0.18 -0.24,0.1 -0.66,0.29 0.02,-0.06 0.85,-1.2 0.24,-1.68 -0.2,-0.16 -0.35,-0.04 -0.59,0.14zm-4.32 0.47c-0.5,-0.54 -0.8,0.18 -0.53,0.62 0.26,0.43 0.57,-0.09 0.53,-0.62zm1.62 -0.9c-0.01,0.51 -0.16,0.18 -0.26,0.86 0.56,0.28 0.83,-0.57 0.78,-0.97l-0.53 0.11zm-0.01 3.16c0.05,0.28 -0.03,0.38 0.2,0.43 0.29,0.06 0.73,-0.29 0.37,-0.83 -0.27,-0.41 0.11,-0.92 -0.13,-1.35 -0.21,-0.36 -0.59,-0.12 -0.54,0.4 0.04,0.44 0.02,0.98 0.09,1.35zm-2.04 1.04c0.31,0.11 0.21,0.14 0.54,-0.03 0.28,-0.68 -0.08,-0.44 -0.09,-1.19 -0,-0.43 0.23,-0.83 -0.14,-1 -0.17,-0.08 -0.36,-0.03 -0.43,0.19 -0.05,0.15 0.08,1.85 0.11,2.03zm3.71 -3.35c-0.12,0.71 0.13,0.17 -0.22,1.65 -0.19,-0.65 -0.07,-0.99 -0.16,-1.54 -0.39,-0.25 -0.3,-0.21 -0.64,0.2 0,0.37 -0.02,0.19 0.06,0.19 -0,0 0.01,2.08 0.72,1.97 0.51,-0.09 0.84,-2.16 0.82,-2.4 -0.18,-0.14 -0.35,-0.35 -0.57,-0.07zm-0.25 2.47l0 0 0 0 -0 -0zm-2.59 0.69c0.35,0.16 0.6,-0.03 0.8,-0.28 0.16,-0.38 0.44,-0.85 -0.06,-1.2l-0.31 -0.25c0.21,-0.2 0.29,0.03 0.43,-0.28 0.33,-0.75 -0.81,-0.79 -1.01,0.12 -0.16,0.72 0.3,0.78 0.56,1.04 -0.09,0.08 -0.81,-0.11 -0.41,0.85zm-5.19 -1.82c-0.32,0.32 -0.08,0.42 -0.05,0.9 0.02,0.39 -0.03,0.83 0.05,1.18 0.07,0.32 0.03,0.79 0.04,1.22 0.02,0.77 0.78,0.67 0.71,0.02 -0.07,-0.66 -0.15,-0.66 -0.16,-1.72 -0,-0.4 0.02,-0.87 0,-1.26 -0.02,-0.37 -0.35,-0.57 -0.59,-0.34zm1.62 1.12c-0.06,0.19 -0.16,0.51 -0.26,0.61 -0.01,-0.35 0.12,-0.8 -0.13,-0.97 -0.36,-0.06 -0.28,0.03 -0.48,0.26 -0,0.27 0.08,0.58 0.09,0.97 0.01,0.34 0.02,0.73 0.05,1.06 0.1,0.14 0.34,0.19 0.46,0.05 0.31,-0.23 0.06,-0.57 0.41,-1.18 0.06,-0.11 0.04,-0.08 0.11,-0.15 0.03,0.67 -0.09,0.81 0.12,0.97 0.23,0.3 0.79,0.07 0.59,-0.54 -0.2,-0.61 -0.04,-1.34 -0.35,-1.48 -0.33,-0.15 -0.56,0.15 -0.62,0.41zm2.31 0.17c0.14,-0.57 0.39,-1.21 -0.2,-1.35l-0.26 0.22c-0.02,0.34 0.04,0.79 -0.05,1.1 -0.12,0.4 -0.02,0.19 -0.17,0.21 -0.14,-0.8 0.12,-0.81 -0.16,-1.39 -0.91,-0.09 -0.44,0.96 -0.41,1.35 0.08,1.07 0.49,1.56 0.87,1.02 0.24,-0.34 0.3,-0.83 0.39,-1.15zm5.45 -2.58c0.12,-0.22 0.39,-0.2 -0.11,0.4 -0.06,0.07 -0.05,0.07 -0.05,0.07 0.05,-0.18 0.1,-0.36 0.16,-0.47zm-14.17 -0.52c-0.72,-0 -1.38,0.11 -2.06,0.13 -0.6,0.02 -1.4,0.1 -1.76,0.51 -0.01,0.61 0.33,0.47 0.78,0.47l3.38 0.01 -0.95 3.74c-0.22,0.94 -0.78,1.5 -0.14,2.09 0.29,0.27 0.54,0.11 0.75,-0.13 0.3,-0.33 0.24,-0.58 0.3,-1.11l1.15 -4.54 1.48 -0c0.34,0.02 0.3,-0.08 0.62,-0.1 0.65,-0.04 2.64,0.04 3.03,-0.01 0.31,-0.04 0.61,-0.65 -0.19,-0.85l-0.65 -0.19c-0.08,0.03 -0.08,0.03 -0.14,0.03 -0.12,-0 -0.01,0.03 -0.09,-0.04l-1.55 -0.04c-0.43,0.01 -0.69,-0.07 -1.1,-0.14 -0.32,0 0.17,0.16 -0.82,0.18 -0.32,0.01 -0.7,0.14 -0.57,-0.28l-0.45 -0.27c-0.09,0.22 -0.77,0.52 -1.01,0.53zm1.4 5.87c-0.12,-0.81 0.65,-2.17 0.88,-2.26 0.59,0.68 -0.16,2.29 -0.88,2.26zm1.24 -0.11c0.29,-0.63 0.6,-1.24 0.31,-2.03 -0.08,-0.57 -0.76,-1.41 -1.19,-0.73 -1.99,3.16 -0.48,4.45 0.61,3.11 0.1,-0.13 0.14,-0.2 0.27,-0.35z"/>
   <path class="fil6" d="M19.55 21.68c-0.09,-0.03 -0.22,-0.03 -0.32,-0.03 -0.22,-0 -0.46,0.02 -0.64,-0.04 0.08,-0.24 0.21,-0.29 0.42,-0.34l0.1 0.25c0,0.01 0.01,0.03 0.02,0.05l0.73 -0.24c0.15,-0.04 0.08,-0.04 0.11,-0.09l0.01 -0.34c-0.06,-0.06 -0.08,-0.08 -0.16,-0.13 -0.65,-0.01 -1.35,0.21 -1.88,0.61 -0.23,0.17 -0.33,0.24 -0.33,0.64 0.4,0.23 0.61,0.14 1.12,0.19 -0.02,0.22 -0.29,0.47 -0.47,0.35l-0.15 -0.19 -0.87 0.38c0.2,1.23 3.32,-0.69 2.32,-1.06zm-2.81 8.92l1.17 -0.25c0.05,-0 0.11,-0 0.16,-0 0.25,-0.04 0.5,-0.08 0.59,-0.26 0.09,-0.18 0.02,-0.5 -0.06,-0.81l-1.44 0.55 -0.04 -0.44 0.85 -0.18 -0.06 -0.62 -0.85 0.18 -0.04 -0.43 0.94 -0.2 0.02 0c0.06,0 0.13,0.01 0.15,-0.04 0.02,-0.05 -0.01,-0.15 -0.01,-0.26 0.01,-0.11 0.05,-0.22 0.09,-0.34 -0.12,-0.01 -0.24,-0.01 -0.29,-0 -0.01,0 -0.02,0.01 -0.03,0.01l-0 -0.04 -1.43 0.3 0.28 2.84zm0.18 -3.14l0.34 -0.07 0.32 -0.6 -0.47 -0.14 -0.19 0.81zm2.09 1.84l0.6 -0.06 -0.05 -0.77 0.58 -0.06 -0.05 -0.75 -0.58 0.06 -0.05 -0.77 -0.6 0.06 0.05 0.77 -0.58 0.06 0.05 0.75 0.58 -0.06 0.05 0.77zm-11.51 -5.58c-0.56,0.48 -0.25,0.16 -1.02,0.76 -0.32,0.25 -0.23,0.14 -0.29,0.34 0.54,0 1.07,-0.45 1.52,-0.7l-0.2 -0.4zm-2.56 3.21l-0.09 0.35c0.29,0.02 1.42,-0.38 1.82,-0.52 0.26,-0.09 0.32,-0.14 0.35,-0.52l-1.01 0.3c0.23,-1.13 1.05,-0.19 1.11,-1.19l-0.76 0.23c0.09,-0.37 0.32,-0.33 0.63,-0.43 0.37,-0.12 0.56,-0.04 0.58,-0.56 -0.29,0.03 -0.63,0.18 -0.92,0.27 -1.21,0.38 -0.93,0.11 -1.32,1.15l-0.38 0.91zm9.81 -3.81l0.06 0.36 -0.37 0.1 0.31 -0.46zm-1.58 -0.4l-0.49 0.17c-0.24,0.08 -0.35,0.33 -0.49,0.52 -0.1,0.14 -0.34,0.46 -0.41,0.61 -0.07,-0.16 -0.13,-0.51 -0.16,-0.73 -0.22,-0.01 -0.99,0.16 -1.16,0.41l-0.86 2.07c0.15,-0 0.78,-0.18 0.89,-0.26 0.2,-0.15 0.3,-0.67 0.44,-0.9 0.12,0.17 0.11,0.24 0.17,0.47l0.92 -0.09 0.4 -0.84 -0.14 0.78c0.43,-0.06 1.05,-0.29 1.47,-0.43 0.42,-0.14 0.21,-0.26 0.45,-0.43 0.16,-0.12 0.42,-0.12 0.6,-0.23 0.15,0.09 -0.08,0.41 0.98,-0.06l-0.2 -1.78c-0.45,0.13 -0.81,0.23 -1.23,0.49l-0.43 0.7c-0,0.01 -0.05,0.1 -0.06,0.11 -0.08,0.19 -0.13,0.24 -0.27,0.41 -0.1,0.16 -0.09,0.19 -0.26,0.3l0.29 -1.37 -0.44 0.07zm3.78 0.05c0.1,-0.29 0.34,-0.98 0.38,-1.33l-0.91 0.25 -0.15 0.62 -0.12 0.3c-0.04,0.13 -0.07,0.25 -0.11,0.36 -0.07,0.25 -0.17,0.5 -0.21,0.79 0.33,-0.01 0.76,-0.14 0.98,-0.39l-0.02 -0.01 0.15 -0.59z"/>
   <path class="fil2" d="M4.15 13.98c0.04,0.45 0.61,0.27 0.67,0.65 -0.03,0.33 -0.27,0.55 -0.6,0.41 -0.34,-0.14 -0.09,-0.4 -0.61,-0.29 0,-0.29 0.04,-0.24 0.08,-0.44 -0.26,0.31 -0.16,0.65 -0.21,0.47 -0,-0.01 -0.01,0.03 -0.02,0.04 -0.21,0.13 -0.47,0.17 -0.61,-0.1 -0.06,-0.11 -0.08,-0.25 -0.14,-0.39 -0.08,-0.2 -0.11,-0.17 -0.18,-0.34 0.38,0.08 0.63,0.11 0.97,-0.08 0.37,-0.21 0.41,-0.45 0.66,-0.62l-0.01 0.68zm-1.32 -0.86c-0.01,0.71 -0.6,0.97 -0.59,-0.32l0.48 0.21c0.01,0.01 0.05,0.04 0.06,0.05l0.05 0.06zm0.38 -0.19c0.21,-0.02 0.25,-0.09 0.33,-0.26 0.1,-0.21 0.07,-0.25 0.21,-0.37 0.74,0.4 -0.12,1.9 -0.54,0.63zm1.52 -1.57c0.01,0.01 0.01,0.03 0.02,0.04l0.07 0.16c0.14,0.35 0.17,0.31 0.45,0.29l-0 -0.43c-0.87,-0.63 0.03,-0.45 -1.01,-1.16 -0.38,-0.26 -0.1,-0.08 -0.71,0 -0.74,0.1 -1.29,0.2 -1.59,1.6 -0.24,1.13 -0.04,1.38 -0.01,2.18 -0.2,-0.17 -0.6,-1.35 -1.06,-0.99 -0.3,0.24 -0.52,1.29 -0.31,1.86 0.34,-0 0.29,-0.11 0.55,-0.2 -0.06,0.47 -0.06,0.81 0.24,1.32 0.22,-0.06 0.08,-0.16 0.39,-0.18 0.1,0.16 0.09,0.11 0.17,0.33 0.05,0.15 0.05,0.27 0.24,0.33l0.08 0.02c0.49,0.1 0.11,0.05 0.47,0.22 0.2,0.1 0.57,1.25 0.68,1.56 0.09,0.25 0.34,1.62 0.84,1.05 0.2,-0.23 0.07,-0.68 -0.01,-0.93 -0.13,-0.41 -0.45,-1.37 -0.48,-1.8 0.22,0.33 0.3,1.01 0.63,1.66 0.08,0.16 0.14,0.36 0.3,0.37 0.68,0.08 -0.26,-1.69 -0.36,-2.14 0.14,0.11 0.12,0.13 0.23,0.3 0.58,0.87 1.73,1.11 1.79,0.08 -0.21,-0.11 -0.43,-0.12 -0.67,-0.27 -0.21,-0.13 -0.39,-0.23 -0.5,-0.43 0.18,0.05 0.23,0.13 0.43,0.2 0.43,0.14 1.13,0.13 1.34,-0.18 0.13,-0.19 0.05,-0.05 -0.01,-0.19 -0.06,-0.16 0.18,0.11 -0.03,-0.08 -0.09,-0.08 -0.31,-0.08 -0.42,-0.12 -0.41,-0.13 -0.35,-0.36 -0.78,-0.26 0.09,-0.15 0.11,-0.11 0.18,-0.27 0.22,-0.48 -0.01,-0.49 0.65,-0.48 0.01,-0.59 -0.26,-0.5 -0.3,-0.95 -0.03,-0.38 0.07,-0.3 0.14,-0.51 0.07,-0.2 -0.05,-0.24 0.01,-0.37 0.19,0.19 0.31,0.42 0.66,0.36 0.07,-0.57 -0.06,-0.4 -0.09,-0.69l0 -0.07c0.04,-0.56 -0.4,-1.1 -0.72,-1.16 -0.81,-0.15 -1.03,0.92 -1.02,1.88 -0.16,0.1 0.12,0.06 -0.04,-0.03 -0,-0 -0.01,-0.01 -0.01,-0.01 -0,-0 -0.01,-0.01 -0.02,-0.01 -0.09,-0.01 -0.14,0.16 -0.26,0.29l-0.16 -2.26z"/>
   <path class="fil2" d="M13.47 22.49c0.43,-0.01 0.47,-0.12 0.87,-0.02 0.08,-0.05 0.17,-0.1 0.25,-0.15 0.15,-0.08 0.14,-0.08 0.29,-0.14 0.32,-0.19 0.77,-0.76 0.97,-1.16 0.16,-0.31 1.13,-1.72 1.57,-2.64 0.08,-0.17 0.24,-0.52 0.35,-0.62 0.01,0.51 -0.11,1.51 0,1.76 0.15,0.38 0.68,0.07 1,0.08l0.04 -0.09 0 0c0.01,-0.08 0.02,-0.13 -0.01,-0.22l0.39 -0.07c-0.07,0.2 -0.22,0.32 -0.39,0.38l-0 0 -0.01 0c-0.22,0.42 -1.28,0.68 -1.49,0.93 -0.01,0.55 0.6,0.55 0.64,0.54 0.45,-0.14 1.79,-1.06 2.17,-1.71 0.13,-0.19 0.19,-0.27 0.25,-0.59 0.09,-0.53 0.16,-1.1 -0.49,-1.14 -0.27,-0.01 -0.46,-0.06 -0.74,-0.06 0.37,-0.75 1.38,-0.53 1.7,-1.96 0.05,-0.24 0.15,-1.06 0.19,-1.16 -0.67,-0.36 -2.97,2.14 -3.15,3.07 -0.11,-0.1 -0.05,-0.08 -0.19,-0.13l0.07 -0.41c-0.13,-0.22 -0.1,-0.31 -0.15,-0.56 -0.07,-0.3 -0.19,-0.36 -0.36,-0.47l-0.2 0.24c-0.3,0.34 -0.29,0.46 -0.39,1.07 -0.07,0.46 -0.14,0.2 -0.25,0.55 -0.33,0.99 -0.06,0.28 -0.43,1.02 -0.17,0.33 0.08,0.02 -0.33,0.58 -0.1,0.14 -0.1,0.16 -0.18,0.33l-0.79 1.1 -0.26 -0.18c0.12,-0.8 0.56,-1.82 0.7,-2.31l0.22 -0.77c-0.24,-0.21 -0.08,0.11 -0.3,-0.1 -0.16,-0.16 -0.03,-0.15 -0.29,-0.26 -0.82,-0.36 -0.91,0.45 -1.28,1.84 -0.1,0.35 -0.2,0.53 -0.19,0.93 0.01,0.5 -0.46,1.39 -0.08,2.16 0.1,0.23 -0.07,0.07 0.15,0.22 0.06,0.05 0.1,0.08 0.14,0.12z"/>
  </g>
 </g>
</svg>
