<?xml version="1.0" encoding="UTF-8"?>
<!DOCTYPE svg PUBLIC "-//W3C//DTD SVG 1.1//EN" "http://www.w3.org/Graphics/SVG/1.1/DTD/svg11.dtd">
<!-- Creator: CorelDRAW -->
<svg xmlns="http://www.w3.org/2000/svg" xml:space="preserve" width="25.3303mm" height="19.0501mm" version="1.1" style="shape-rendering:geometricPrecision; text-rendering:geometricPrecision; image-rendering:optimizeQuality; fill-rule:evenodd; clip-rule:evenodd"
viewBox="0 0 47.41 35.65"
 xmlns:xlink="http://www.w3.org/1999/xlink"
 xmlns:xodm="http://www.corel.com/coreldraw/odm/2003">
 <defs>
  <style type="text/css">
   <![CDATA[
    .fil0 {fill:black}
    .fil2 {fill:#008EC2}
    .fil3 {fill:#0FAFFC}
    .fil1 {fill:white}
   ]]>
  </style>
 </defs>
 <g id="Camada_x0020_1">
  <metadata id="CorelCorpID_0Corel-Layer"/>
  <g id="_2482726083472">
   <path class="fil0" d="M6.73 35.65l-2.22 0c-0.72,-0.12 -1.27,-0.43 -1.44,-1.11 -0.19,-0.74 0.27,-1.43 0.27,-2.24 -1.95,0 -2.84,0.54 -2.68,-0.52l0.34 -3.24c0.1,-1.11 0.22,-2.13 0.33,-3.25 0.09,-0.98 0.3,-2.15 0.3,-3.19l5.67 0c0.11,-0.49 0.22,-0.92 0.34,-1.43 0.09,-0.38 0.23,-1.15 0.36,-1.42 -0.73,0 -1.45,0 -2.18,0 -1.4,0 -3.13,0.29 -4.03,-0.01 -1.08,-0.35 -1.75,-1.22 -1.79,-2.46l0 -1.73c0.01,-1.54 0.11,-3.27 0.71,-4.35 0.61,-1.1 1.47,-1.32 3.09,-1.32 0.59,0 4.01,0.1 4.17,0.05 0.55,-0.17 0.8,-2.61 0.97,-3.47 0.26,-1.33 -0.11,-2.86 0.56,-3.89 0.33,-0.51 1.07,-0.33 1.75,-0.26 1.22,0.13 4.24,0.7 5.57,0.92 2.51,0.42 4.86,0.82 7.38,1.22 1.27,0.21 2.48,0.41 3.75,0.63 0.57,0.1 1.29,0.26 1.88,0.32 0.58,0.06 0.58,0.04 0.65,-0.45 0.09,-0.6 0.33,-2.51 0.48,-2.84 0.14,-0.31 0.27,-0.4 0.54,-0.58 0.24,-0.16 0.42,-0.25 0.65,-0.37 1.23,-0.65 1.86,-0.72 3.19,-0.66 0.08,0 0.13,0.01 0.21,0.02 0.17,0.03 0.08,0 0.17,0.07 0.64,0.91 1.11,0.49 1.9,2.33 0.18,0.43 0.7,0.88 1.06,1.58 -0.68,1.34 -0.9,0.63 -0.66,2.08 0.13,0.77 -0.14,1.5 -0.18,1.92 -0.03,0.24 -0.01,0.56 -0.01,0.81 0.49,0.12 1.46,0 2.18,0 1.04,0 2.07,-0 3.11,0 0.85,0 1.24,-0.29 2.1,-0.25l0.62 0.17c0.31,0.28 1.08,0.34 1.45,1.5 0.27,0.82 0.03,1.96 0.03,2.83l-0.08 0.16 -0.31 0c0.05,0.1 0.06,0.15 0.12,0.28 0.37,0.84 0.31,2.93 -0.4,3.91l-0.35 0.45c-0.15,0.15 -0.34,0.24 -0.46,0.41 -0.15,0.14 -0.12,0.11 -0.35,0.2 -0.12,0.05 -0.29,0.1 -0.36,0.11 -0.35,0.06 -0.55,-0.06 -0.81,0.1 -0.45,-0.25 -3.76,-0.16 -4.22,-0.16 -0.12,0.53 -0.7,2.58 -0.7,3.02l0.16 0c0.43,-0.04 0.93,-0.2 1.52,0.03l0.34 0.21c0.07,0.1 0.13,0.17 0.24,0.24 0.21,0.12 0.06,0.08 0.38,0.09 0.83,-0.58 1.66,-0.93 2.68,-0.62l0.11 0.05c0.01,0.01 0.04,0.01 0.04,0.04 0.01,0.02 0.03,0.03 0.04,0.03 0.43,0.26 1.3,0.49 1.54,1.56 0.11,0.49 0.17,0.92 0.1,1.41 -0.07,0.52 -0.07,1.06 -0.18,1.53 -0.37,0 -0.15,-0 -0.23,0.08l-0.16 0c0.04,0.5 0.31,0.41 0.31,1.71 -0,1.72 -0.3,3.14 -1.82,3.8l-0.31 0.16c-0.01,0.01 -0.03,0.02 -0.04,0.04 -0.35,0.1 -0.05,0.19 -0.3,1.47l-0.24 1.71c-0.28,0.25 -0.48,0.17 -1.09,0.17 -0.49,-0 -0.65,-0.09 -1.16,-0.09l-7.38 0 -0.38 -0.18c-0.06,0.23 0,0.08 -0.08,0.26l-0.17 0.07c-0.02,0 -0.04,0.01 -0.07,0.01l-1.63 0.01c-0.46,-0 -0.49,-0.03 -0.82,-0.21 -0.35,-0.19 -0.27,-0.11 -0.65,0.04 -0.78,0.3 -6.41,0.34 -7.34,0.2 -0.59,-0.09 -2.38,0.34 -2.38,-1.5l-0.23 0c-0.57,0.16 -0.01,0.71 -0.79,1.29l-0.45 0.26c-0.09,0.06 -0,0.03 -0.17,0.07 -0.15,0.03 0.03,0 -0.14,0.02 -0.94,0.09 -3.52,-0.13 -4.62,0.04 -0.7,0.11 -4.25,0.12 -4.79,0.04 -0.66,-0.1 -1.57,0 -2.51,0.08z"/>
   <path class="fil1" d="M4.82 18.12l1.32 0 0.11 -1.52c0.08,-0.56 0.12,-0.99 0.12,-1.58l0.16 0c0,0.49 0.44,2.64 0.54,3.1 1.58,-0.14 1.37,0.52 1.55,-1.8 0.05,-0.67 0.06,-1.21 0.09,-1.87 0.04,-0.83 0.16,-1.2 0.16,-2.36l1.09 0c0,0.56 -0.04,0.91 -0.11,1.43 -0.06,0.46 -0.05,1.05 -0.1,1.44l-0.18 2.91c0.29,-0.14 1.19,-0.06 1.63,-0.16 0,-1.03 0.16,-1.88 0.15,-2.86 -0,-0.58 0.12,-0.86 0.15,-1.31l0.08 -1.46 1.01 0 -0.29 4.18c-0.05,0.4 -0.07,1.04 -0.1,1.45l2.26 -0.01c0.44,0.03 0.25,0.05 0.54,0.25 0.07,-0.46 0.24,-1.2 -0.01,-1.29 -0.97,-0.35 -1.09,0.85 -1.01,-1.33 0.02,-0.43 0.06,-0.41 0.47,-0.4 0.4,0 0.49,0.11 0.61,-0.17 0.09,-0.2 0.09,-0.93 0.09,-1.21 -1.39,0 -0.93,0.18 -0.93,-1.47l1.09 0c0.08,-0.34 0.06,-0.39 0.08,-0.82 0.03,-0.79 0.2,-0.46 -0.96,-0.62l-5.11 -0.02c-0.27,0 -0.12,0.16 -0.39,0.16 -0.3,0 0.14,-0.16 -1.24,-0.16 -0.4,1.8 -0.13,1.49 -0.21,2.22 -0.05,0.46 0.08,0.68 -0.18,0.88 0,-0.55 -0.16,-0.56 -0.16,-1.22 0,-0.46 0,-0.93 0,-1.39 -0.28,-0.2 -0.36,-0.11 -0.39,-0.49l-1.4 0 -0.54 7.5z"/>
   <path class="fil1" d="M40.55 14.45c0,-0.36 0.09,-0.42 0.14,-0.67l0.41 -1.77c0,0.52 -0,1.03 0,1.55 0,1.31 0.13,1.22 -0.54,1.22l0 -0.33zm-2.87 -1.39c-0.25,-0.2 -0.28,-0.87 -0.41,-1.53 -0.12,-0.63 -0.15,-1.35 -0.44,-1.57 -0.12,0.26 -0.04,0.75 -0.14,1 -0.14,0.35 -0.36,0.26 -0.72,0.21 -0.73,-0.1 -0.34,0.41 -0.51,1.68l-0.27 4.45 1.24 0.01 0.24 -2.78c0.07,-0.2 0.02,-0.08 0.08,-0.17 0.03,0.36 0.17,1.07 0.26,1.44 0.11,0.45 0.13,1.15 0.28,1.5 0.3,0.01 0.56,-0.01 0.86,-0 0.44,0 0.59,0.17 0.77,0.17l1.09 0c0.69,0 -0.09,-1.39 0.78,-1.39 0.59,0 -0.12,1.39 0.47,1.39l1.4 -0.08 -0.39 -7.5c-0.73,0 -1.64,-0.09 -2.33,0.08 0,0.5 -0.04,0.39 -0.12,0.77l-1.04 5.67c0,-2.27 0.39,-4.46 0.39,-6.36 0,-0.19 -0.17,-0.11 -0.31,-0.1 -1.48,0.06 -0.81,-0.28 -1.11,1.95 -0.05,0.35 -0.05,0.7 -0.05,1.17z"/>
   <path class="fil1" d="M19.11 26.44c-0.28,0 -0.19,-0.12 -0.18,-0.33 0.04,-0.88 0.12,-1.04 0.18,-1.71 0.24,0.01 0.28,0.04 0.47,0.08 0,0.5 -0.04,0.76 -0.07,1.15 -0.03,0.37 -0.03,0.81 -0.4,0.81zm3.26 3.42c-0.16,-0.47 -0.03,-1 0,-1.47 0.03,-0.43 0.08,-1.1 0.14,-1.48l0.25 -2.19c0.04,-0.33 0.03,-0.42 0.23,-0.57 0.61,0.17 0.18,0.91 0.16,1.88l-0.26 2.82c-0.03,0.18 -0.08,0.53 -0.12,0.69 -0.07,0.28 -0.08,0.3 -0.39,0.32zm-1.32 -4.16c-0.39,-0.6 0.24,-1.56 -0.29,-2.23 -0.49,-0.62 -1.24,-0.29 -2.2,-0.3l-0.83 0.03c-0.25,0.1 -0.15,0.14 -0.3,1.23 -0.06,0.41 -0.04,0.77 -0.1,1.12 -0.07,0.41 -0.45,4.35 -0.44,4.39 0.16,0.28 0.15,0.21 0.39,0.23 0.35,0.03 0.17,0.02 0.42,0.11 0.33,0.11 0.1,0.09 0.42,-0.07 0.61,-0.3 0.38,0.09 0.54,-1.64 0.08,-0.86 0.03,-0.7 0.79,-0.8 0.48,-0.06 0.8,-0.15 1.04,-0.46 0.26,-0.34 0.34,-0.82 0.34,-1.28l0.08 0c0,1.38 -0.23,2.46 -0.23,3.59 0,0.4 0.13,0.49 0.54,0.5 0.18,0 0.36,-0.03 0.54,0.01 0.37,0.07 0.11,0.12 0.39,0.12 0.25,-0.01 0.03,-0.14 0.94,-0.13 0.36,0 0.73,0 1.09,0 0.37,-1.03 0.27,-0.72 0.4,-1.86 0.11,-0.98 0.43,-3.32 0.29,-4.16 -0.05,-0.26 -0.17,-0.57 -0.35,-0.77 -0.28,-0.32 -0.44,-0.22 -0.96,-0.22l0 -0.24c-0.18,0 -0.46,-0.02 -0.62,-0 -0.31,0.03 -0.93,0.35 -1.26,0.71 -0.48,0.52 -0.6,1.35 -0.6,2.14z"/>
   <path class="fil1" d="M34.8 26.19l0 -3.18c-0.59,-0.14 -1.46,-0.08 -2.18,-0.08 -0.02,0.22 -0.07,0.5 -0.11,0.78 -0.05,0.34 -0.02,0.59 -0.05,0.92 -0.1,1.09 -0.33,2.3 -0.38,3.52 -0.03,0.66 -0.15,1.03 -0.15,1.79l1.4 0c0,-0.74 0.31,-2.61 0.31,-3.51l0.26 3.48c0.2,0.03 0.34,0.01 0.52,0.03 0.4,0.05 0.12,0.06 0.47,0.16 0.36,-0.56 0.38,-1.14 0.56,-2.02 0.06,-0.29 0.14,-0.75 0.22,-1.07 0.03,-0.13 0.08,-0.36 0.13,-0.52 0.03,-0.1 0.05,-0.16 0.08,-0.24 0.01,-0.02 0.02,-0.04 0.02,-0.06l-0.2 2.72c-0.04,0.29 -0.11,0.75 -0.11,1.02 0.4,0 1.08,0.12 1.39,-0.08 0.11,-0.12 0.57,-5.03 0.69,-6.05 0.04,-0.35 0,-0.59 0.07,-0.96 -2.18,0.4 -1.97,-0.53 -2.3,0.82l-0.27 1.26c-0.06,0.36 -0.12,1.08 -0.35,1.26z"/>
   <path class="fil1" d="M26.57 14.94c0.01,-0.47 0.16,-0.95 0.21,-1.32l0.17 -1.37c0.16,0.09 0.16,-0.1 0.16,0.24l0 2.45c-0.41,0.01 -0.21,0.07 -0.54,0zm4.19 -1.71c-0.39,0 -0.16,-0.46 -0.15,-0.89 0.01,-0.6 -0.1,-0.67 0.15,-1.06 0.29,0.08 0.1,0.08 0.39,0.16 0,0.57 0.1,1.79 -0.39,1.79zm-4.74 -3.1c-0.49,2.2 -0.15,1.49 0.26,1.85 0.72,0.64 -0.1,2.76 -0.1,3.77 0,0.44 0.52,0.49 0.85,0.49 0.12,0.39 0.08,0.91 0.08,1.39 0.46,-0.01 0.45,-0.16 0.78,-0.16l1.32 0c0.47,0 0.57,0.08 1.01,0.08l0.16 -2.28c0.02,-0.33 0.08,-0.38 0.08,-0.73 1.46,0 1.73,-0.31 1.9,-1.43 0.14,-0.92 0.47,-2.8 -0.78,-3.01 -0.28,-0.05 -0.17,0.03 -0.42,0.2 -0.13,-0.52 -0.45,-0.12 -0.53,-0.06 -1.21,0.98 -1.45,-0.11 -1.56,1.13l-0.18 3.16c-0.06,0.54 -0.04,1.29 -0.14,1.72l-0.08 0.24c-0.04,-0.46 -0.14,-1.15 -0.16,-1.63 -0.02,-0.64 0.01,-1.2 -0.05,-1.74 -0.36,-2.9 0.44,-3.08 -1.11,-3.08 -0.56,0 -0.78,0.08 -1.32,0.08z"/>
   <path class="fil1" d="M36.12 10.38c-0.34,-0.01 -0.55,-0.08 -1.01,-0.08 0.17,-0.25 0.13,-0.19 0.5,-0.12 0.41,0.08 0.33,-0.06 0.51,0.2zm0 -0.73c-0.36,-0.27 -0.06,-0.35 0,-1.14 0.38,0.27 0.01,0.67 0,1.14zm-0.31 -1.47l0 0.08c-0.68,0 -0.96,0.02 -1.01,-0.65l0.16 0c0.03,0.42 0.06,0.11 0.16,0.49 0.39,0 0.35,0.08 0.7,0.08zm0.7 -2.2c0.41,0.31 0.18,1.17 0,1.39l0 -1.39zm-2.09 -2.27c0.43,-0.18 -0.2,-0.25 0.94,-0.02 0.79,0.16 1.08,0.23 1.08,1.24 0,1.11 0.09,1.16 -0.51,0.96 -1.83,-0.61 -1.63,-0.33 -1.64,-1.2 -0,-0.35 0.16,-0.15 -0.1,-0.25l-0.23 1.79c-0.09,0.3 -0.08,0.25 -0.08,0.65 0.27,0.08 0.21,0.14 0.62,0.24l0 0.16c-0.39,-0.03 -0.68,-0.31 -1.01,-0.41l0.09 -0.06c0,-0 0.09,0 0.19,-0.21l0.42 -2.9 0.24 0.01zm1.47 -0.25c0.37,0 0.35,0.01 0.62,0.08 0.02,0.29 0.12,0.4 0.14,0.59 0.05,0.39 -0.07,0.19 -0.07,0.55l-0.08 0c0,-0.34 0.04,-0.65 -0.1,-0.87 -0.12,-0.19 -0.23,-0.19 -0.42,-0.29 -0.01,-0.01 -0.04,-0.01 -0.05,-0.03 -0.01,-0.02 -0.03,-0.02 -0.05,-0.03zm0 0c-0.24,-0.01 -0.28,-0.04 -0.47,-0.08l0.47 0.08zm-1.63 0c0.04,-0.74 0.59,-0.27 0.64,-0.26 0.13,0.03 0.31,0.02 0.45,0.02l-0.88 0c-0.13,0.33 0.04,0.14 -0.21,0.24zm-1.94 3.83c-0.58,0.16 -0.7,1.22 -0.87,1.69 -0.1,0.27 -0.19,0.38 -0.21,0.67 0.5,-0.35 0.43,-0.88 0.72,-1.44 0.79,-1.53 2.77,-1.03 2.77,0.55l0 1.3 0.31 0c-0.27,0.38 -0.18,-0.07 -0.23,0.41l-0.31 0 0 0.24c0.45,0.04 0.14,0.14 1.01,0.16 0.38,0.01 0.7,0.16 1.01,-0 -0.16,-0.24 -0.02,-0.06 -0.18,-0.14 -0.14,-0.07 0.04,0.02 -0.11,-0.04l-0.12 -0.04c-0.01,-0 -0.04,-0.01 -0.06,-0.02 0.68,-0.17 0.36,-0.2 0.59,-0.93l0.15 -0.96c0,-0.4 -0.05,0.08 -0.05,-0.31 0,-0.69 0.36,-0.83 0.17,-2.62l-0.01 -1.54c0.46,0 0.29,0.01 0.54,-0.16 -0.18,-0.36 0.06,-0.2 -0.31,-0.24 -0.03,-0.43 -0.14,-0.38 -0.32,-0.64 -0.25,-0.36 -0.25,-1.53 -1.46,-1.56 0.36,-0.56 -0.43,-0.65 -0.85,-0.65 -0.36,0 -0.08,0.29 -0.7,0.33 -0.89,0.05 -0.71,-0.2 -1.22,2.14l-0.28 1.99c-0.03,0.28 -0.12,0.64 -0.17,0.97 -0.13,0.74 0.15,0.25 0.2,0.85z"/>
   <path class="fil1" d="M15.69 10.87c0,0.72 -0.11,1.19 -0.15,1.8 -0.05,0.67 -0.05,1.2 -0.08,1.87 -0.03,0.55 -0.16,1.2 -0.16,1.79 0,0.9 -0.07,0.79 -0.12,1.35 -0.01,0.09 -0.01,0.1 -0.01,0.2 0.02,0.17 -0.01,0.07 0.05,0.18 0.47,-0.16 0.18,-0.38 1.01,-0.45 0.37,-0.03 0.32,0.06 0.41,-0.27l0.37 -3.45 0.21 3.67c0.08,0.02 0.9,0.1 1.03,-0 0.22,-0.17 0.5,-2.6 0.61,-3.02 0.08,-0.31 0.09,-0.25 0.09,-0.67l-0 2.8c-0.02,0.33 -0.08,0.48 -0.08,0.9 0.63,0.11 0.67,0.05 1.4,0l0 -0.57c-0.22,0.11 -0.29,0.16 -0.62,0.16 -0.54,-0.84 -0.31,-3.6 -0.07,-4.31 0.17,-0.52 0.4,-0.9 1.08,-0.9l0.08 -1.3c-2.54,0 -2.04,0 -2.24,0.91l-0.29 1.49c-0.08,0.45 0.09,0.48 -0.19,0.7 -0.16,-0.7 -0.16,-2.22 -0.16,-3.1l-2.18 0 0 0.24z"/>
   <path class="fil1" d="M5.83 23.26l-1.17 0c-0.01,0.3 -0.1,1.12 -0.14,1.4 -0.08,0.48 -0.07,1.02 -0.17,1.46l-0.47 0c0,-1.03 0.23,-1.85 0.23,-2.85l-1.63 0c0,0.43 -0.03,0.6 -0.09,0.97l-0.41 3.97c-0.05,0.36 -0.03,0.7 -0.08,1.05 -0.1,0.61 -0.19,1.34 -0.19,2l1.63 0c0,-0.69 0.31,-2.64 0.31,-3.34 0.89,0 0.42,0.05 0.39,1.39 -0.02,0.69 -0.16,0.99 -0.16,1.96l0.78 -0.08c0,-0.84 0.32,-0.87 0.93,-0.9l0.57 -5.68c0.03,-0.23 0.06,-0.66 0.1,-0.98 0.08,-0.62 -0.06,-0.35 -0.43,-0.35z"/>
   <path class="fil1" d="M2.93 16.72c-0.13,0.45 -0.5,0.42 -0.51,-0.14l0.29 -4c0.03,-0.76 0.13,-0.87 0.47,-0.9 0.1,0.21 0.08,-0.07 0.08,0.24l0 0.73 -0.33 4.06zm-2.08 -0.23c0,0.44 0.06,0.73 0.29,1.09l0.14 0.18c0.69,0.76 2.01,0.66 2.75,-0.06 0.38,-0.37 0.48,-0.83 0.6,-1.49 0.1,-0.6 0.07,-1.33 0.15,-1.96 0.15,-1.13 0.41,-3.07 -0.68,-3.59 -0.81,-0.39 -1.98,-0.23 -2.51,0.49 -0.36,0.49 -0.36,0.81 -0.46,1.56 -0.14,1.02 -0.08,1.46 -0.14,1.89 -0.09,0.62 -0.12,1.25 -0.12,1.91z"/>
   <path class="fil1" d="M27.34 24.32c0.14,0.64 0.01,0.71 0,1.39l-0.39 3.5c-0.1,0.43 -0.63,0.7 -0.52,-0.13l0.53 -4.76 0.39 0zm-2.64 5.79c1.4,0 1.04,-0.12 1.55,0.24 0.34,-0.42 1.08,-0.43 1.79,-0.33l0 0.57c0.55,-0.39 0.67,-1.75 0.7,-2.61 0.02,-0.54 0.14,-0.9 0.15,-1.47 0.01,-0.62 0.16,-0.91 0.16,-1.55l0 -1.06c0,-0.17 -0.15,-0.46 -0.33,-0.63 -0.32,-0.29 -1.18,-0.19 -1.77,-0.19 -0.77,0 -0.57,-0.17 -0.85,-0.17 -0.27,0 -0.04,0.03 -0.28,0.11 -0.02,0.01 -0.04,0.01 -0.06,0.02 -0.38,0.12 -0.27,-0.27 -0.47,1.14 -0.05,0.32 -0.04,0.65 -0.09,0.97l-0.5 4.94z"/>
   <path class="fil1" d="M39.49 24.84c0.07,-0.52 0,-0.81 0.43,-0.93 0.09,0.15 0.16,0.14 0.16,0.33 0,0.71 -0.32,2.22 -0.31,2.85 0,0.58 -0.04,0.97 -0.12,1.51 -0.03,0.23 -0.06,0.52 -0.11,0.7 -0.07,0.28 -0.08,0.3 -0.39,0.32 -0.1,-0.21 -0.08,0.07 -0.08,-0.24l0 -0.73 0.42 -3.8zm-2.05 4.2l0 0.41c0,1.15 1.24,-0.22 1.5,1.06 0.4,-0.87 0.89,-0.65 1.99,-0.65 0.51,-1.01 0.45,-3.13 0.56,-3.82l0.14 -1.16c0,-0.86 0.13,-1.78 -0.95,-2.18 -0.73,-0.27 -1.64,-0.05 -2.22,0.57 -0.78,0.84 -0.8,3.31 -0.95,4.71 -0.04,0.41 -0.08,0.57 -0.08,1.06z"/>
   <path class="fil1" d="M7.69 30.03c-0.14,-0.42 0.23,-3.76 0.35,-4.53 0.09,-0.58 -0.05,-1.04 0.43,-1.18 0.39,0.61 0.01,1.43 -0,2.12l-0.37 3.28c-0.09,0.27 -0.14,0.28 -0.41,0.3zm-1.71 -0.16c0,0.05 0.14,0.39 0.16,0.43l2.02 -0.03c0.79,0 0.67,0.12 1.09,0.41 0.18,-0.71 0.32,0.27 0.65,-2.09l0.37 -3.78c-0,-0.41 -0.12,-0.84 -0.27,-1.1 -0.19,-0.33 -0.35,-0.47 -0.82,-0.5 -0.48,-0.03 -0.83,-0.11 -1.24,-0.11 -0.33,0 0,-0.01 -0.17,0.07 -0.03,0.02 -0.15,0.07 -0.16,0.08 -0.98,0.53 -1.12,1.45 -1.24,2.61 -0.03,0.24 -0.05,0.64 -0.1,0.96l-0.28 3.05z"/>
   <path class="fil1" d="M41.79 25.38c0,1.08 0.78,1.55 1.43,2.17l0.3 0.34c0.12,0.18 0.21,0.39 0.2,0.65 -0.05,0.97 -0.26,1 -0.68,1 -0.15,-1.87 0.66,-1.63 -1.24,-1.63 -0.3,0 -0.23,0.25 -0.26,0.54 -0.2,1.69 -0.02,1.33 1.27,1.33 0.32,0 0.54,0.29 0.54,0.65 0,0.5 -0.21,0.62 0.49,0.36 0.36,-0.13 0.61,-0.25 0.85,-0.5 0.53,-0.55 0.98,-2.78 0.13,-3.78 -0.01,-0.01 -0.03,-0.03 -0.04,-0.04l-0.2 -0.2c-1.7,-1.49 -1.01,-0.73 -1.01,-2.37l0.39 0 0.08 1.22c0.15,-0 0.3,-0.04 0.41,-0.04 1.15,-0.04 1.07,0.46 1.07,-1.43 0,-0.4 -0.29,-0.74 -0.56,-0.88 -0.54,-0.31 -1.54,-0.36 -2.16,-0.01 -0.19,0.11 -0.09,0.09 -0.36,0.2 -0.33,0.13 -0.21,-0.1 -0.36,0.27 -0.12,0.28 -0.29,1.65 -0.29,2.14z"/>
   <path class="fil1" d="M29.05 6.38c-0.57,0 -1.24,-0.18 -1.82,-0.29l-2.39 -0.34c-0.78,-0.19 -2.67,-0.38 -3.52,-0.54 -0.21,-0.04 -0.33,-0.09 -0.51,-0.12 -2.69,-0.36 -5.7,-0.94 -8.29,-1.25 -0.19,-0.02 -0.41,-0.1 -0.58,-0.13 -0.18,-0.03 -0.39,-0.04 -0.56,-0.07 -0.22,-0.03 -0.42,-0.03 -0.63,-0.07 -0.33,-0.08 -0.27,0.02 -0.35,-0.29 0.84,0 1.84,0.2 2.68,0.36l6.49 1.01c0.55,0.07 0.79,0.12 1.3,0.19l9.04 1.43c0.85,0.12 1.04,-0.08 1.15,0.35l-1.01 0.08c0.79,0 0.9,-0.11 0.93,0.33 -0.66,0 -0.75,-0.13 -1.32,-0.16 -0.48,-0.03 -0.81,-0.12 -1.29,-0.2 -0.26,-0.04 -0.46,-0.03 -0.72,-0.06l-7.04 -1.09c-1.23,-0.21 -4.2,-0.53 -5.2,-0.74 -0.44,-0.09 -0.85,-0.12 -1.29,-0.2 -0.18,-0.03 -0.43,-0.08 -0.66,-0.12l-3.15 -0.44 0 -0.24c0.45,0 0.84,0.05 1.29,0.12 0.42,0.06 0.8,0.16 1.13,0.2l4.63 0.69c0.36,0.06 0.71,0.1 1.17,0.16 0.11,0.02 0.47,0.1 0.58,0.12l2.94 0.42c0.48,0.05 0.64,0.12 1.14,0.19l2.3 0.36c0.4,0.08 0.78,0.08 1.19,0.14 0.76,0.11 1.6,0.3 2.35,0.3l0 -0.08zm1.86 -0.16c-0.51,0 -0.78,-0.12 -1.32,-0.17l-15.47 -2.6c-0.93,-0.09 -3.19,-0.58 -3.96,-0.58 -0.03,0.32 -0.13,0.48 -0.19,0.86 -0.25,1.49 0.07,1.2 -0.05,1.9l-0.73 3.81c-0.14,0.43 -0.35,0.24 -0.35,0.85 0,0.47 0.31,0.06 0.38,-0.09 0.22,-0.47 0.85,-2.58 0.96,-3.15l0.52 -2.63c0.42,0 0.98,-0.02 1.17,0.24 -0.34,0.15 -0.73,-0.24 -1.01,0.16 0.15,0.21 0.27,0.24 0.93,0.24l0.39 0 0 -0.41c1.71,0 1.17,0.27 1.17,0.9 0.01,-0.02 0.02,-0.07 0.02,-0.06 0,0 0.07,-0.24 0.27,-0.37 0.63,-0.42 1.14,-0.17 1.67,-0.08 0.36,0.06 0.57,0.05 0.9,0.11l3.43 0.48c0.59,0.04 1.11,0.3 1.24,0.81l0.16 0c0,-0.92 0.15,-0.51 1.4,-0.41l4.96 0.66c0.18,0.02 0.42,0.11 0.57,0.13 0.23,0.04 0.41,0.01 0.65,0.05 0.39,0.07 0.85,0.14 1.22,0.19 0.25,0.03 0.39,0.02 0.63,0.07 0.26,0.06 0.31,0.11 0.59,0.12 0.27,-0.53 0.54,-2.73 0.8,-3.8l0.21 -1.5c0,-0.31 0.02,-0.03 -0.08,-0.24 -0.27,0.21 -0.28,0.9 -0.42,1.6l-0.42 2.42c-0.03,0.27 0.03,0.47 -0.25,0.47z"/>
   <path class="fil1" d="M44.74 15.35c0,0.84 -0.17,1.01 -0.62,0.9 0,-1.8 0.25,-1.55 -1.01,-1.55 -0.21,0 -0.21,0.04 -0.39,0.08 -0.8,3.6 2.96,3.28 3.37,1.5 0.27,-1.15 0.27,-2.4 -0.69,-3.18 -1.18,-0.96 -1.05,-0.82 -1.05,-1.75 0,-0.37 0.29,-0.39 0.54,-0.33l0 1.06 1.4 0c0.15,-1.31 0.22,-2.36 -1.63,-2.36 -0.66,0 -1.26,0.32 -1.5,0.78 -0.22,0.41 -0.38,1.54 -0.29,1.99 0.32,1.78 1.88,1.58 1.88,2.85z"/>
   <path class="fil1" d="M13.05 23.26c0,0.97 -0.37,3.9 -0.46,5.06 -0.07,0.8 -0.22,1.08 -0.14,1.93 0.26,0.02 0.4,-0.03 0.6,-0.02 0.3,0.02 0.42,0.16 0.57,0.13 0.31,-0.06 0.17,-0.16 0.67,-0.17 0.3,-0.01 0.63,0 0.94,0l0.09 -0.65 -1.17 -0c0,-2.06 0.09,-1.81 0.7,-1.79 0.5,0.01 0.58,0.25 0.62,-1.47 -1.26,0 -1.02,0.07 -0.94,-0.74 0.04,-0.4 0.03,-0.59 0.16,-0.89 1.45,0 0.97,0.16 1.13,-1.03 0.08,-0.58 0.07,-0.38 -0.9,-0.43 -0.91,-0.05 -0.52,-0.25 -1.86,0.08z"/>
   <path class="fil1" d="M29.6 23.1l-0.71 6.68c0.08,0.39 0.23,0.22 0.94,0.22 0.34,0 0.35,0.08 0.52,0.12 0.01,0 0.03,0.01 0.05,0.01 0.01,0 0.03,0 0.04,0 0.17,-0.01 0.1,-0.06 0.29,-0.13 0.77,-0.29 1.04,0.46 1.04,-0.71l-1.17 0c0,-0.93 0.16,-1.3 0.16,-1.79l1.01 0c0.04,-0.51 0.16,-0.84 0.16,-1.47 -1.21,0 -1.03,0.07 -0.95,-0.66 0.05,-0.41 0.01,-0.53 0.09,-0.89l1.01 0c0.16,-0.36 0.23,-1.08 0.23,-1.63 -1.03,0 -0.01,0.26 -1.4,0.25 -0.44,-0 -0.88,-0 -1.32,-0z"/>
   <path class="fil1" d="M33.25 10.7c-0.27,0 -0.3,-0.06 -0.54,-0.08 0,0.5 -0.04,1.1 -0.11,1.6l-0.36 5.25c2.63,0.21 0.56,-0.09 2.72,-0.16l0.08 -1.22 -1.09 0c-0.11,-0.5 0.08,-1.07 0.08,-1.71 0.62,0 0.49,0.04 1.01,-0.08 0,-0.26 -0.01,-0.56 0.01,-0.82 0.02,-0.21 0.16,-0.57 -0.09,-0.57 -1.1,0 -0.79,0.44 -0.78,-0.82 0,-0.53 -0.09,-0.52 0.38,-0.58 0.45,-0.06 0.58,-0 0.79,-0.23 -0.39,-0.56 -0.56,0.25 -1.24,-0.82 -0.25,0.18 -0.43,0.24 -0.85,0.24z"/>
   <path class="fil1" d="M9.79 30.19c0.29,0.17 1.6,0.08 2.02,0.08 0.41,0 0.33,-1.13 0.39,-1.47l0.29 -2.63c0.04,-0.33 0.01,-0.59 0.06,-0.91 0.39,-2.47 0.29,-2.08 -1.05,-2.08 -0.5,0 -0.37,0.17 -0.42,0.62 -0.04,0.34 -0.11,0.63 -0.12,1.01 -0.04,1.01 -0.34,2.89 -0.39,3.99 -0.01,0.29 -0.04,0.68 -0.21,0.84 -0.36,0.37 -0.56,-0.1 -0.57,0.54z"/>
   <path class="fil2" d="M12.43 22.85c0.06,-0.28 0.04,-0.19 0.23,-0.33 0.12,0.27 0.11,0.3 -0.23,0.33zm-0.23 -0.73c0.05,-0.21 0.07,-0.24 0.16,-0.41 0.17,0.1 0.23,0.14 0.39,0.24 -0.08,0.17 -0.06,0.07 -0.08,0.33 -0.31,-0.01 -0.29,-0.04 -0.47,-0.16zm-0.85 -1.39c0.01,-0.47 0.09,-0.49 0.54,-0.49 -0.04,0.19 -0.07,0.24 -0.08,0.49l-0.47 0zm-2.33 -0.82c-0.15,0.23 -0.29,0.84 -0.16,0.98 0.46,0.23 2.48,0.08 3.18,0.08 0,0.51 0.01,0.73 -0.08,1.14l-1.4 0c-0.02,-0.28 -0.06,-0.3 -0.16,-0.49l-1.79 0c-0.18,0.39 -0.23,0.83 -0.23,1.3l5.13 0c0.35,-0.55 0.44,-1.41 0.56,-2.11 0.06,-0.35 0.18,-0.4 0.07,-0.66 -0.34,-0.15 -2.67,0.04 -3.18,-0.08 0,-0.55 0.1,-0.67 -0.31,-0.84 0.16,0.29 0.16,0.11 0.22,0.44 0.06,0.33 -0.05,0.25 0.09,0.56l-1.94 0 0 -0.33z"/>
   <path class="fil2" d="M16.88 20.16c-0.23,0.22 -0.33,0.08 -0.87,0.08 -0.36,-0 -0.69,-0.04 -0.93,0.08l0 -0.33 -0.09 0.23c-0.03,0.12 -0.03,0.16 -0.07,0.34 -0.12,0.62 -0.4,1.21 -0.39,1.89 0,0.39 -0.05,0.42 0.24,0.48l4.43 0c0.84,-0.07 0.81,-1.57 1.18,-2.69l-0.95 0c-0.42,0 -0.6,-0.06 -0.85,-0l0 -0.33c-0.01,0.02 -0.02,0.04 -0.02,0.06 -0.34,1.18 -0.13,2.11 -0.98,2.15 -1.46,0.07 -1.01,-0.16 -0.68,-1.96z"/>
   <path class="fil0" d="M29.05 6.38l0 0.08c-0.75,0 -1.6,-0.19 -2.35,-0.3 -0.41,-0.06 -0.79,-0.06 -1.19,-0.14l-2.3 -0.36c-0.5,-0.06 -0.66,-0.13 -1.14,-0.19l-2.94 -0.42c-0.11,-0.02 -0.47,-0.1 -0.58,-0.12 -0.46,-0.06 -0.8,-0.1 -1.17,-0.16l-4.63 -0.69c-0.34,-0.04 -0.72,-0.14 -1.13,-0.2 -0.45,-0.06 -0.83,-0.12 -1.29,-0.12l0 0.24 3.15 0.44c0.23,0.03 0.48,0.09 0.66,0.12 0.44,0.08 0.85,0.1 1.29,0.2 0.99,0.21 3.96,0.54 5.2,0.74l7.04 1.09c0.25,0.04 0.46,0.02 0.72,0.06 0.47,0.08 0.81,0.17 1.29,0.2 0.57,0.03 0.66,0.16 1.32,0.16 -0.03,-0.44 -0.15,-0.33 -0.93,-0.33l1.01 -0.08c-0.11,-0.43 -0.29,-0.23 -1.15,-0.35l-9.04 -1.43c-0.51,-0.07 -0.75,-0.12 -1.3,-0.19l-6.49 -1.01c-0.85,-0.16 -1.84,-0.36 -2.68,-0.36 0.08,0.31 0.01,0.21 0.35,0.29 0.21,0.05 0.41,0.04 0.63,0.07 0.17,0.02 0.38,0.04 0.56,0.07 0.17,0.03 0.38,0.11 0.58,0.13 2.59,0.31 5.6,0.88 8.29,1.25 0.18,0.02 0.3,0.08 0.51,0.12 0.85,0.16 2.75,0.35 3.52,0.54l2.39 0.34c0.57,0.11 1.25,0.29 1.82,0.29z"/>
   <path class="fil2" d="M32.39 20.16c-0.29,0.21 -0.07,0.11 -0.54,0.09l-2.43 -0.03c-0.09,-0 -0.11,0.01 -0.3,0.02l-2.1 0.01c0.04,-0.19 0.07,-0.24 0.08,-0.49 -0.14,0.21 -0.29,1.12 -0.37,1.48 -0.45,1.88 -0.47,1.54 0.55,1.58 0.23,0.01 0.7,0.04 1.07,0.04 0.02,-0.23 0.46,-1.94 0.54,-2.12l1.32 0c0.13,0.57 -0.31,1.31 -0.31,2.12 1.89,0 1.77,0.55 2.49,-2.69z"/>
   <path class="fil3" d="M33.01 20.24c0.01,0 1.61,0.06 1.86,-0.1 0.04,-0.12 0.18,-0.73 0.17,-0.81 -0.02,-0.23 -0.28,-0.36 -0.48,-0.47 -0.33,-0.03 -0.26,-0.09 -0.54,-0.16l0 -0.16c0.25,-0.06 0.12,-0.08 0.31,0l2.45 0c-0,0.51 -0.06,0.59 -0.12,1.06l-0.09 0.65 1.72 0c0.06,-0.14 0.07,-0.14 0.16,-0.24 0.07,-0.36 0.15,-0.74 0.24,-1.11 0.41,-1.73 -0.04,-1.13 -1.92,-1.28 -0.68,-0.05 -1.39,-0.02 -2.07,-0 -1.26,0.04 -1.18,0.44 -1.47,1.71 -0.08,0.37 -0.17,0.54 -0.22,0.93zm-28.28 11.48l0 0.43c0.26,-0.13 0.77,-0.08 1.17,-0.08 0.06,-0.12 0.04,-0.09 0.08,-0.27 -0.28,-0.35 -0.63,-0.25 -0.74,-0.51 0.24,-0.14 0.76,-0.08 1.13,-0.08 0.4,-0 0.75,-0.08 0.99,0.12 0.1,0.13 0.09,-0.17 0.09,0.31 0,0.24 -0.04,0.09 -0.07,0.42l1.17 0c0.06,-0.14 0.07,-0.14 0.16,-0.24 0.11,-0.64 0.22,-0.7 0.16,-0.97 -0.11,-0.56 -1.17,-0.3 -2.11,-0.3l-1.78 0.08 -0.23 1.08zm36.92 -0.88c-0.03,0.37 -0.08,0.48 -0.14,0.77l-1.09 0c-0.11,-0.29 0.01,-0.27 -0.12,-0.51 -0.2,-0.07 -0.38,-0.1 -0.54,-0.18 0.27,-0.42 0.36,-0.19 0.93,-0.25l0.86 -0.07 0.1 0.24zm-2.64 0.73c0.02,0.16 -0.01,0.12 0.06,0.24l1.98 -0.06c0.58,0.06 0.86,0.03 1.51,-0.02 0.18,-0.13 0.73,-1.07 0.35,-1.67l-2.6 0.08c-0.69,-0.01 -1.12,-0.27 -1.3,1.43zm-4.43 0l-0.02 0.33c0.56,-0.31 0.69,0.13 1.15,-0.04 0.15,-0.06 0.14,-0.09 0.23,-0.3 0.01,-0.01 0.01,-0.04 0.02,-0.06l0 -0.16c-0.45,-0.22 -0.28,0.04 -0.7,0.16 0.18,-0.35 -0.02,-0.15 0.23,-0.24 -0.12,-0.55 -0.6,-0.52 1.54,-0.48l0.11 0.16c0.04,0.42 0.06,0.5 -0.1,0.82 0.14,0.09 0.55,0.1 0.73,0.11 0.26,0.01 0.37,-0.08 0.66,-0.11 0.02,-0.46 0.13,-0.73 0.18,-1.19 0.05,-0.48 -0.41,-0.32 -0.88,-0.32 -0.89,0 -1.79,0 -2.68,0 -0.3,0.13 -0.45,1.02 -0.49,1.35zm-2.89 0l0 0.33c0.48,0 0.95,-0.07 1.24,0 0.1,-0.48 0.01,-0.43 -0.26,-0.62 -0,-0 -0.09,-0.06 -0.11,-0.08 -0.18,-0.16 0.03,0.18 -0.14,-0.16 0.55,-0.12 1.27,-0.08 1.94,-0.08 0.06,-0.25 0.24,-0.76 -0.13,-0.81l-0.99 0.08c-0.8,0.02 -1.65,-0 -2.45,-0 -0.07,0.13 -0.14,0.4 -0.16,0.57 0.48,0.34 0.59,0.06 1.09,0.16l-0.04 0.61zm-2.87 -0.08l0 0.41c0.33,0.03 1.05,0.04 1.26,-0.15l0.08 -0.09 0.21 -1.26c-0.55,-0.12 -0.69,-0.13 -1.35,-0.13 -0.03,0.4 -0.16,0.84 -0.19,1.22zm-2.64 0.24l0 0.16c0.4,0 0.96,-0.06 1.24,0.08 0.01,-0.28 0.06,-0.32 0.06,-0.57l-0.21 -0.14c-0.38,-0.07 -0.14,-0.09 -0.47,-0.18l0 -0.16c0.51,-0.12 0.3,-0.06 0.39,0l0.5 -0.05 0.07 -0.56c-1.41,-0.21 -1.39,0.25 -1.59,1.43zm-4.19 -0.24l0 0.49c0.28,0 0.42,-0.02 0.65,-0.05 0.31,-0.03 0.26,0.04 0.59,0.05 0,-0.4 0.12,-0.43 -0.05,-0.6 -0.35,-0.34 -0.37,0.12 -0.49,-0.38 0.34,-0.17 1.53,-0.17 1.86,0 0.12,0.27 0,0.5 0,0.9 0.56,0 0.8,0.08 1.09,-0.02 0.25,-0.32 0.15,-0.08 0.25,-0.59 0.23,-1.14 0.19,-0.89 -1.49,-0.89 -0.82,0 -1.99,-0.2 -2.22,0.32 -0.04,0.09 -0.16,0.63 -0.19,0.78zm-4.19 0.16l0 0.24 1.48 0.08 -0.1 -0.24 -0 -0.37c-0.25,-0.14 -0.32,-0.1 -0.4,-0.41l2.96 0c0.5,-0.8 -0.37,-0.57 -2.07,-0.57 -0.36,0 -1.26,-0.05 -1.45,0.08 -0.24,0.15 -0.36,0.8 -0.41,1.19zm-4.35 0.06l0 0.27c0.31,0.07 1.03,-0.03 1.24,0.08l0.08 -0.33c-0.07,-0.29 -0.19,-0.29 -0.42,-0.57l1.28 -0.13c0.33,0.02 0.18,-0.03 0.39,0.11 0.29,0.2 -0,0.26 1.07,0.25 0.02,-0 0.27,-0.03 0.36,-0.03 0.12,-0.54 0.36,-0.88 -0.19,-0.94l0 0.41c-0.21,-0.17 -0.21,-0.12 -0.08,-0.41 -0.2,-0.04 -1.89,0.04 -2.41,0.04 -1.4,-0.01 -0.92,0.13 -1.32,1.24zm-4.27 0.1l0 0.24 1.24 0c0.02,-0.05 0.05,-0.14 0.07,-0.17 0.07,-0.15 0.03,-0.07 0.09,-0.15 -0.15,-0.52 -0.3,0.13 -0.43,-0.61l3.01 0c0.09,-0.12 0.14,-0.32 0.17,-0.49 -0.46,-0.33 -2.04,-0.16 -2.6,-0.16 -1.27,-0.01 -1.24,0.1 -1.38,0.69 -0.05,0.22 -0.13,0.37 -0.17,0.65zm11.11 -18.59l0 -0.33c0.29,0.03 0.23,-0.02 0.33,0.24 0.12,0.41 0.16,0.42 -0.3,0.45l-0.03 -0.37zm-0.62 0.82c0.53,-0.05 0.31,-0.01 0.55,-0.15 0.23,-0.13 0.75,-0.16 1.08,-0.2 0.46,-0.17 -0.43,-1.11 -0.5,-1.41l-0.62 -0.01c-0.31,0.48 -0.49,0.99 -0.5,1.76zm2.56 -1.41c0.07,0.14 0.02,-0.08 0.06,0.2l-0.01 0.88c-0.01,0.21 -0.1,0.26 0.12,0.32 0.24,0.06 0.28,-0.05 0.37,-0.16l0.1 -0.69c0.08,-0.04 0.22,-0.13 0.4,-0.08l0.04 1.02c0.47,-0.33 0.32,-0.03 0.62,-0.16 0,-0.53 -0.02,-1.19 -0.12,-1.59l-0.56 0.29c-0.08,0.16 0,0.1 -0.14,0.2 -0.14,0.09 -0.09,0.03 -0.26,0.05 -0.05,-0.23 -0.07,-0.26 -0.1,-0.57 -0.31,-0.61 -1,-0.07 -1.18,-0.04 0.51,0 0.48,-0.05 0.66,0.35zm2.41 0.67l0 0.65c0.01,0.01 0.03,-0.01 0.04,0.01 0,0.01 0.03,0.01 0.04,0.01 0.01,0 0.03,0 0.04,0.01l0.35 0.06c0.08,-0.39 -0.01,-0.41 0.19,-0.73 0.42,0.08 0.41,0.05 0.35,0.57 0.15,0.22 0.09,0.07 0.47,0.16 0.05,-0.22 0.04,-0.18 0.16,-0.33 0,-0.43 0.13,-1.12 -0.1,-1.45 -0.29,-0.45 -0.74,-0.04 -1.11,0.03 0.23,0.01 0.35,0.02 0.48,0.15 0.4,0.42 0.02,0.53 0.01,0.53 -0.28,0.18 -0.81,-0.23 -0.92,0.33zm-9.55 6.69l0 0.33c0.25,-0.12 0.57,-0.09 0.93,-0.08 0.54,0 0.64,0.14 0.87,-0.08 0.07,-0.35 0.1,-0.32 0.1,-0.77 -0.74,-0.51 -0.89,-0.27 -0.93,-0.65 0.66,0 1.33,0.01 1.98,-0 0.8,-0.01 0.8,-0 0.54,1.19l0 0.33c0.25,-0.06 0.43,0 0.85,0l0.95 -0c0.04,-0.32 0.18,-0.72 0.25,-1.03 0.1,-0.44 0.15,-0.69 0.15,-1.21 -0.34,-0.09 -0.08,-0.12 -0.42,-0.13 -0.13,-0 -0.25,0.05 -0.46,0.05l-0.97 -0.03c-0.78,0.03 -3.04,-0.18 -3.37,0.26 -0.13,0.18 -0.46,1.55 -0.49,1.85zm-6.06 -0.08l0 0.33 1.94 0c-0.14,-0.3 -0.03,-0.23 -0.09,-0.56 -0.06,-0.33 -0.06,-0.15 -0.22,-0.44 -0.5,-0.22 -0.95,-0.3 -0.37,-0.43l2.2 -0c0.1,0.15 0.18,0.25 0.23,0.49l1.86 0c0.08,-0.34 0.27,-0.91 0.16,-1.22 -0.49,-0.18 -3.63,-0.03 -4.55,-0 -0.41,0.01 -0.56,-0.02 -0.74,0.25 -0.09,0.13 -0.4,1.32 -0.42,1.59zm12.04 0.24c0.1,0.06 -0,0.03 0.17,0.07 0.42,0.08 1.38,0.02 1.77,-0.07 0.03,-0.3 0.09,-0.39 0.12,-0.65 -0.52,-0.55 -0.59,-0.27 -0.78,-0.69 0.43,-0.19 1.34,-0.1 1.91,-0.09 0.81,0.01 0.48,0.17 0.22,1.44 0.35,0.18 1.59,0.18 1.94,0 0.11,-0.53 0.3,-1.05 0.38,-1.63 0.1,-0.77 -0.47,-0.69 -1.16,-0.7 -1.32,-0.01 -2.67,-0.01 -4,-0l-0.58 2.32zm6.06 -0.41c-0.01,0.25 -0.04,0.3 -0.08,0.49l2.1 -0.01c0.19,-0.01 0.21,-0.02 0.3,-0.02l2.43 0.03c0.46,0.02 0.24,0.12 0.54,-0.09 0.07,-0.73 0.43,-1.55 0.51,-2.24 -0.39,-0.28 -1.05,-0.16 -1.86,-0.16 -0.66,1.18 0.2,2.38 -1.68,2.09 -0.35,-0.05 -0.18,0.09 -0.31,-0.27 -0.14,-0.37 0.13,-0.15 -0.23,-0.4 -0.29,-0.07 -0.7,-0.27 -0.85,-0.49 0.39,-0.2 0.74,-0.08 1.32,-0.08 0.06,-0.31 0.31,-0.81 -0.15,-0.86 -0.13,-0.01 -1.19,-0 -1.3,0.02 -0.35,0.08 -0.38,0.47 -0.46,0.85 -0.08,0.37 -0.21,0.72 -0.26,1.14z"/>
   <path class="fil2" d="M34.88 20.14c-0.25,0.17 -1.86,0.11 -1.86,0.1l-0.09 0.23c-0.13,0.4 -0.51,1.88 -0.27,2.11 0.21,0.21 4.5,0.13 4.75,0.06 0.6,-0.17 0.6,-0.95 0.88,-2.01 0.08,-0.32 0.15,-0.32 0.17,-0.63 -0.08,0.1 -0.09,0.11 -0.16,0.24l-1.72 -0 0.09 -0.65c-0.26,0.39 -0.18,1.41 -0.54,2.2 -0.28,0.07 -1.34,0.27 -1.46,-0.1 -0.16,-0.44 0.19,-1.15 0.22,-1.56z"/>
   <path class="fil2" d="M23.94 31.84c-0.19,0.02 -0.24,0.06 -0.48,0.06 -0.17,-0.38 0.07,-0.35 -0.26,-0.63 -0.29,-0.25 -0.84,-0.26 1.04,-0.26 0.41,0 0.3,0.61 0.16,0.74 -0.13,0.13 -0.2,0.07 -0.45,0.1zm-1.96 -0.34c-0.01,0.02 -0.02,0.02 -0.03,0.05 -0.01,0.05 -0.44,1.74 -0.44,2.39 0.93,0.23 0.34,0.08 1.32,0.08 0.02,-0.29 0.12,-0.6 0.18,-0.95 0.09,-0.46 0.09,-0.52 0.59,-0.53 1.09,-0.03 0.47,0.32 0.47,1.48 0.55,0 0.95,0.03 1.4,-0.08 0,-0.59 0.07,-0.62 0.13,-1.1 0.1,-0.72 -0.33,-0.31 0.03,-0.96 -0.29,0.1 -0.53,0.02 -1.09,0.02 0,-0.39 0.12,-0.62 0,-0.9 -0.34,-0.17 -1.53,-0.17 -1.86,0 0.13,0.5 0.14,0.04 0.49,0.38 0.17,0.16 0.05,0.2 0.05,0.6 -0.33,-0.01 -0.28,-0.08 -0.59,-0.05 -0.23,0.02 -0.37,0.05 -0.65,0.05l0 -0.49z"/>
   <path class="fil2" d="M34.59 31.58l-0.41 1.63c-0.1,0.91 0.09,0.73 1.24,0.73 0.31,-1.37 0.17,-1.52 0.69,-1.56 1.11,-0.08 0.63,0.33 0.63,1.56l1.32 0c0.01,-0.36 0.12,-0.77 0.19,-1.11l0.2 -1.09c-0.3,0.03 -0.4,0.11 -0.66,0.11 -0.18,-0.01 -0.59,-0.01 -0.73,-0.11l-1.09 0 0 -0.24c-0.01,0.02 -0.02,0.05 -0.02,0.06 -0.09,0.21 -0.08,0.25 -0.23,0.3 -0.46,0.18 -0.59,-0.26 -1.15,0.04l0.02 -0.33z"/>
   <path class="fil2" d="M5.98 31.8c-0.03,0.17 -0.01,0.15 -0.08,0.27 -0.39,0 -0.9,-0.05 -1.17,0.08l0 -0.43 -0.54 2.55c4.02,0 3.77,0.48 4.32,-1.75 0.08,-0.34 0.16,-0.4 0.19,-0.7 -0.08,0.1 -0.09,0.11 -0.16,0.24l-1.17 0c0.03,-0.33 0.07,-0.18 0.07,-0.42 -0,-0.48 0.01,-0.18 -0.09,-0.31 0.03,0.3 -0.08,1.01 -0.15,1.29 -0.22,0.91 -0.02,0.51 -0.37,1.07 -0.81,0 -1.38,0.39 -0.92,-1.29 0.17,-0.59 0.17,-0.39 0.06,-0.61z"/>
   <path class="fil2" d="M26.18 31.74c-0.01,0.02 -0.02,0.03 -0.02,0.06l-0.05 0.19c-0.01,0.07 -0.03,0.21 -0.04,0.29 -0.1,0.68 -0.28,1.06 -0.28,1.67l1.94 0.08c0.45,-0 0.53,-0.07 0.93,-0.09 0.33,-0.01 0.68,0 1.01,0 0.04,-0.47 0.43,-1.84 0.49,-2.28l-0.08 0.09c-0.21,0.2 -0.93,0.18 -1.26,0.15l0 -0.41c-0.01,0.02 -0.02,0.02 -0.03,0.05 -0,0.03 -0.02,0.04 -0.03,0.05 -0.34,0.92 0.2,1.9 -0.96,1.86 -0.67,-0.02 -0.59,-0.38 -0.32,-1.41 0.01,-0.03 0.08,-0.32 0.08,-0.33 0.01,-0.49 0.02,-0.17 -0.08,-0.3 0.01,0.25 -0.05,0.29 -0.06,0.57 -0.28,-0.14 -0.84,-0.08 -1.24,-0.08l0 -0.16z"/>
   <path class="fil2" d="M14.76 31.74l-0.08 0.33c-0.22,-0.11 -0.94,-0.01 -1.24,-0.08l0 -0.27 -0.1 0.4c-0.02,0.13 -0.05,0.29 -0.05,0.52 0.43,0 0.32,0.09 0.73,0.04 0.28,-0.04 1.43,-0.15 1.57,0.08 0.13,0.21 0.01,0.65 -0.04,0.78 -0.26,0.13 -0.56,0.08 -0.93,0.08 -0.09,-0.15 -0.14,-0.31 -0.35,-0.38 -0.23,-0.07 -0.2,0.03 -0.61,-0.01 -0.28,-0.03 -0.43,-0.09 -0.56,0.1 -0.03,0.05 -0.13,0.6 -0.1,0.68 0.1,0.31 0.61,0.18 1.31,0.18 0.52,0 1.04,-0 1.55,0 1.22,0.01 0.87,0 1.19,-1.12 0.05,-0.17 0.1,-0.53 0.06,-0.76 -0.07,-0.33 -0.09,-0.26 -0.43,-0.22 -0.42,0.05 -0.24,-0 -0.66,-0.03 -1.02,-0.06 -1.2,0.23 -1.24,-0.33z"/>
   <path class="fil2" d="M42.57 31.74c-0.65,0.06 -0.93,0.08 -1.51,0.02l-1.98 0.06c-0.06,-0.12 -0.04,-0.08 -0.06,-0.24 -0.01,0.02 -0.02,0.03 -0.03,0.06l-0.39 1.74c0.01,0.49 0.06,0.18 0.16,0.57 0.26,-0.13 0.7,-0.08 1.09,-0.08l0.39 -1.55c0.38,0 0.75,-0.05 1.01,0.08 0.12,0.26 -0.12,1.27 -0.05,1.42 0.11,0.21 -0.08,0.09 0.59,0.04 0.43,-0.03 0.37,-0.08 0.7,-0 0.01,-0.38 0.12,-0.7 0.17,-1.13 0.09,-0.79 -0.31,-0.52 -0.1,-0.99z"/>
   <path class="fil2" d="M9.17 31.82l-0.09 0.31c-0.32,1.48 -0.79,2.04 0.08,2.06 1.13,0.02 2.29,-0.01 3.43,-0.01 0.19,-0.84 -0.09,-0.57 -2.41,-0.57 0,-0.45 0.02,-0.6 0.16,-0.9l2.33 0c0.11,-0.23 0.17,-0.37 0.23,-0.65 -0.39,0 -0.78,0 -1.17,0 -0.51,0 -0.67,-0.08 -1.16,-0.08l0 -0.24c-0.05,0.08 -0.01,0 -0.09,0.15 -0.01,0.03 -0.05,0.13 -0.07,0.17l-1.24 0 0 -0.24z"/>
   <path class="fil0" d="M16.88 20.16c-0.32,1.8 -0.77,2.03 0.68,1.96 0.86,-0.04 0.64,-0.97 0.98,-2.15 0,-0.01 0.01,-0.04 0.02,-0.06 0.26,-1.19 0.26,-1.2 -0.54,-1.19 -0.66,0.01 -1.32,0 -1.98,0 0.04,0.38 0.19,0.14 0.93,0.65 0,0.46 -0.03,0.42 -0.1,0.77z"/>
   <path class="fil0" d="M34.57 18.86c0.2,0.11 0.46,0.24 0.48,0.47 0.01,0.08 -0.13,0.69 -0.17,0.81 -0.03,0.4 -0.38,1.11 -0.22,1.56 0.13,0.36 1.18,0.17 1.46,0.1 0.36,-0.79 0.29,-1.81 0.54,-2.2 0.06,-0.47 0.12,-0.55 0.12,-1.06l-2.45 0 -0.08 0.16c0.14,0.03 0.02,-0.02 0.18,0.06 0.11,0.05 0.07,0.05 0.13,0.11z"/>
   <path class="fil2" d="M22.99 20.16c-0.39,0.09 -1.35,0.15 -1.77,0.07 -0.17,-0.03 -0.08,-0 -0.17,-0.07l-0.1 0.3c-0.03,0.11 -0.04,0.16 -0.08,0.32 -0.07,0.28 -0.1,0.45 -0.17,0.72 -0.12,0.45 -0.27,0.92 -0.27,1.43l1.86 0 0.7 -2.77z"/>
   <path class="fil2" d="M26.41 20.16c-0.35,0.18 -1.59,0.18 -1.94,0l-0.49 2.01c-0.08,0.28 -0.13,0.43 -0.13,0.76l1.86 0 0.7 -2.77z"/>
   <path class="fil0" d="M34.18 3.69l-0.42 2.9c-0.09,0.21 -0.19,0.21 -0.19,0.21l-0.09 0.06c0.33,0.09 0.62,0.37 1.01,0.41l0 -0.16c-0.41,-0.1 -0.35,-0.17 -0.62,-0.24 0,-0.41 -0.01,-0.36 0.08,-0.65l0.23 -1.79c0.26,0.09 0.1,-0.1 0.1,0.25 0.01,0.87 -0.19,0.59 1.64,1.2 0.6,0.2 0.51,0.15 0.51,-0.96 0,-1 -0.28,-1.07 -1.08,-1.24 -1.13,-0.23 -0.51,-0.16 -0.94,0.02l-0.24 -0.01z"/>
   <path class="fil2" d="M19.17 31.74l0.1 0.24 -1.48 -0.08 0 -0.24 -0.08 0.41 0.23 0 0 0.24c-0.44,0.04 -0.39,0.26 -0.45,0.67 -0.05,0.41 -0.1,0.61 -0.1,1.04 1.84,0.45 1.17,-0.47 1.63,-1.47l2.23 -0.05c0.21,-0.12 0.18,-0.38 0.18,-0.68 -0.64,0 -1.8,0.13 -2.27,-0.08z"/>
   <path class="fil0" d="M5.98 31.8c0.11,0.21 0.1,0.01 -0.06,0.61 -0.47,1.68 0.1,1.29 0.92,1.29 0.36,-0.56 0.15,-0.16 0.37,-1.07 0.07,-0.28 0.18,-0.99 0.15,-1.29 -0.24,-0.2 -0.59,-0.12 -0.99,-0.12 -0.36,0 -0.89,-0.06 -1.13,0.08 0.11,0.26 0.46,0.16 0.74,0.51z"/>
   <path class="fil1" d="M17.87 8.99c0,-0.2 0.11,-0.25 0.22,-0.33 1.12,-0.83 1.89,1.39 0.47,1.39 -0.76,0 -0.7,-0.64 -0.7,-1.06zm-0.62 0c0,0.43 -0.02,0.63 0.28,1.01 1.17,1.49 3.31,-0.55 1.95,-1.72 -0.61,-0.52 -1.59,-0.51 -2.03,0.25 -0.05,0.08 -0.19,0.39 -0.19,0.45z"/>
   <path class="fil1" d="M28.66 9.24c0,-0.94 1.55,-1.05 1.55,0 0,0.99 -1.55,0.98 -1.55,0zm-0.54 -0.16c0,0.76 0.54,1.39 1.09,1.39 0.46,0 0.79,0 1.15,-0.34 0.75,-0.71 0.51,-2.19 -1,-2.19 -0.61,0 -1.24,0.54 -1.24,1.14z"/>
   <path class="fil1" d="M14.29 9.15c0,-0.57 0.92,-0.95 1.37,-0.38 0.86,1.11 -1.37,2.01 -1.37,0.38zm-0.54 0c0,0.4 0.06,0.59 0.26,0.87 0.17,0.23 0.49,0.44 0.67,0.44 0.68,0 1.71,-0 1.66,-1.27 -0.02,-0.44 -0.1,-0.65 -0.32,-0.87 -0.72,-0.74 -2.27,-0.37 -2.27,0.84z"/>
   <path class="fil1" d="M32.47 9.24c0,-1.05 1.55,-0.87 1.55,-0.16 0,1.47 -1.55,1.04 -1.55,0.16zm-0.54 0c0,1.06 1.44,1.65 2.3,0.86 0.57,-0.52 0.58,-2.17 -1.06,-2.17 -0.7,0 -1.24,0.57 -1.24,1.3z"/>
   <path class="fil2" d="M26.26 13.72c-0.12,0.14 -0.11,0.1 -0.16,0.33 -0.38,-0.09 -0.32,0.06 -0.47,-0.16 -0.06,0.1 -0.01,-0.03 -0.06,0.18 -0.06,0.27 0.03,-0.16 -0.02,0.14l-0.15 0.82c-0.04,0.63 -0.05,0.88 -0.39,0.98 -0.11,-0.48 0.08,-1.08 0.08,-1.96l-0.35 -0.06c-0.01,-0 -0.04,-0.01 -0.04,-0.01 -0.01,-0 -0.03,0.01 -0.04,-0.01 -0,-0.01 -0.03,-0 -0.04,-0.01l0 -0.65 -0.29 2.9c-0.12,0.93 0.57,0.21 0.86,-0.01 0.01,-0.01 0.03,-0.02 0.04,-0.03 0.75,0.57 0.1,0.41 1.09,0.33 -0.36,-0.56 -0.48,-0.31 -0.34,-1.25l0.26 -1.52z"/>
   <path class="fil0" d="M22.37 29.86c0.31,-0.03 0.32,-0.04 0.39,-0.32 0.04,-0.15 0.1,-0.51 0.12,-0.69l0.26 -2.82c0.02,-0.97 0.46,-1.7 -0.16,-1.88 -0.2,0.15 -0.19,0.24 -0.23,0.57l-0.25 2.19c-0.06,0.38 -0.12,1.05 -0.14,1.48 -0.03,0.47 -0.16,1 0,1.47z"/>
   <path class="fil0" d="M39.07 28.64l0 0.73c0,0.31 -0.02,0.03 0.08,0.24 0.31,-0.03 0.32,-0.04 0.39,-0.32 0.05,-0.18 0.08,-0.47 0.11,-0.7 0.08,-0.53 0.12,-0.92 0.12,-1.51 -0,-0.63 0.31,-2.14 0.31,-2.85 0,-0.18 -0.06,-0.18 -0.16,-0.33 -0.43,0.12 -0.36,0.41 -0.43,0.93l-0.42 3.8z"/>
   <path class="fil0" d="M7.69 30.03c0.26,-0.02 0.32,-0.04 0.41,-0.3l0.37 -3.28c0.01,-0.69 0.39,-1.51 0,-2.12 -0.48,0.14 -0.34,0.6 -0.43,1.18 -0.12,0.77 -0.49,4.11 -0.35,4.53z"/>
   <path class="fil2" d="M32.94 31.9c-0.3,-0.07 -0.76,0 -1.24,0l0 -0.33c-0.22,0.27 -0.12,0.15 -0.16,0.56l-0.28 1.17c-0.08,0.31 -0.1,0.24 -0.1,0.63l1.4 0c0,-0.53 0.34,-1.42 0.39,-2.04z"/>
   <path class="fil0" d="M27.34 24.32l-0.39 0 -0.53 4.76c-0.11,0.83 0.42,0.56 0.52,0.13l0.39 -3.5c0.01,-0.68 0.14,-0.74 -0,-1.39z"/>
   <path class="fil0" d="M3.26 12.66l0 -0.73c0,-0.31 0.02,-0.03 -0.08,-0.24 -0.34,0.03 -0.44,0.14 -0.47,0.9l-0.29 4c0,0.56 0.37,0.59 0.51,0.14l0.33 -4.06z"/>
   <path class="fil1" d="M21.21 7.52c0.3,0.03 0.63,0.13 0.94,0.16 0.42,0.03 0.71,0.09 1.08,0.09 0.15,-0.33 0.16,-0.72 0.16,-1.22 -0.33,-0.08 -0.6,-0.06 -0.97,-0.13 -0.44,-0.08 -0.55,-0.12 -1.05,-0.12 -0.03,0.39 -0.16,0.8 -0.16,1.22z"/>
   <path class="fil2" d="M19.65 14.05c0,0.52 -0.11,2.6 0.14,2.78 0.32,0.22 1.19,-1.15 1.26,-1.47 -0.57,0.05 -0.46,0.33 -0.71,0.49 -0.33,0.2 -0.24,-0.45 -0.19,-0.78 0.18,-1.23 -0.12,-1.12 0.66,-1.18 0.46,-0.03 0.39,-0.11 0.47,-0.18 -0.33,0.03 -0.85,0.07 -1.08,0.2 -0.24,0.14 -0.02,0.1 -0.55,0.15z"/>
   <path class="fil0" d="M32.47 9.24c0,0.88 1.55,1.31 1.55,-0.16 0,-0.7 -1.55,-0.89 -1.55,0.16z"/>
   <path class="fil0" d="M14.29 9.15c0,1.63 2.23,0.73 1.37,-0.38 -0.44,-0.57 -1.37,-0.2 -1.37,0.38z"/>
   <path class="fil0" d="M17.87 8.99c0,0.42 -0.06,1.06 0.7,1.06 1.42,0 0.65,-2.23 -0.47,-1.39 -0.12,0.09 -0.22,0.14 -0.22,0.33z"/>
   <path class="fil1" d="M24.86 8.18c0.39,0.21 1.19,0.33 1.79,0.33 0.18,-0.81 0.47,-0.95 -0.6,-1.08 -0.27,-0.03 -0.61,-0.14 -0.95,-0.14 -0.1,0.21 -0.21,0.61 -0.23,0.9z"/>
   <path class="fil0" d="M28.66 9.24c0,0.98 1.55,0.99 1.55,0 0,-1.05 -1.55,-0.94 -1.55,0z"/>
   <path class="fil2" d="M22.76 13.88c-0.09,0.1 -0.13,0.22 -0.37,0.16 -0.22,-0.06 -0.13,-0.11 -0.12,-0.32l0.01 -0.88c-0.05,-0.27 0.01,-0.06 -0.06,-0.2 0,1.82 -0.31,2.12 -0.31,3.69 0.42,0.39 0.28,0.22 0.93,0.16 -0.06,-0.09 -0.42,-0.24 -0.33,-1.17 0.05,-0.52 0.22,-0.96 0.25,-1.44z"/>
   <path class="fil1" d="M20.12 8.91c0.41,0.36 2.79,-0.9 3.57,-0.9 0.31,0 0.85,0.29 0.85,-0.16 0,-0.55 -0.82,-0.05 -1.25,0.08 -0.36,0.11 -0.83,0.15 -1.17,0.23 -1.13,0.28 -1.96,0.15 -2,0.75z"/>
   <path class="fil1" d="M24.94 17.55c1.08,0 1.58,0.21 1.45,-0.79 -0.26,0.03 -0.37,0.16 -0.65,0.11 -0.31,-0.06 -0.28,-0.21 -0.65,-0.3 -0.16,0.18 -0.69,0.98 -0.16,0.98z"/>
   <path class="fil0" d="M40.32 31.11c0.13,0.24 0.01,0.22 0.12,0.51l1.09 -0c0.06,-0.29 0.1,-0.4 0.14,-0.77 -0.22,-0.13 -0.1,-0.12 -0.29,-0.11l-1.29 0.11c0.01,0.01 0.03,0.03 0.04,0.04l0.19 0.23z"/>
   <path class="fil0" d="M25.09 14.05c0,0.88 -0.18,1.48 -0.08,1.96 0.34,-0.1 0.35,-0.35 0.39,-0.98l0.15 -0.82c0.05,-0.3 -0.04,0.13 0.02,-0.14 0.05,-0.21 -0,-0.07 0.06,-0.18 0.06,-0.52 0.07,-0.49 -0.35,-0.57 -0.21,0.32 -0.12,0.35 -0.19,0.73z"/>
   <path class="fil0" d="M19.11 26.44c0.37,0 0.37,-0.43 0.4,-0.81 0.03,-0.39 0.07,-0.65 0.07,-1.15 -0.18,-0.04 -0.23,-0.08 -0.47,-0.08 -0.05,0.67 -0.13,0.83 -0.18,1.71 -0.01,0.21 -0.11,0.33 0.18,0.33z"/>
   <path class="fil0" d="M23.46 31.9c0.24,-0.01 0.29,-0.04 0.48,-0.06 0.25,-0.03 0.32,0.03 0.45,-0.1 0.13,-0.13 0.25,-0.74 -0.16,-0.74 -1.88,0 -1.33,0.01 -1.04,0.26 0.33,0.29 0.09,0.25 0.26,0.63z"/>
   <path class="fil0" d="M35.97 31.33l0 0.16 0 0.24 1.09 0c0.16,-0.32 0.14,-0.39 0.1,-0.82l-1.42 0c0.07,0.26 0.16,0.18 0.23,0.41z"/>
   <path class="fil0" d="M30.76 13.23c0.48,0 0.39,-1.22 0.39,-1.79 -0.29,-0.08 -0.1,-0.08 -0.39,-0.16 -0.25,0.39 -0.15,0.47 -0.15,1.06 -0.01,0.43 -0.24,0.89 0.15,0.89z"/>
   <path class="fil0" d="M26.57 14.94c0.33,0.07 0.13,0.01 0.54,0l0 -2.45c0,-0.34 0.01,-0.15 -0.16,-0.24l-0.17 1.37c-0.05,0.37 -0.2,0.86 -0.21,1.32z"/>
   <path class="fil0" d="M40.55 14.45l0 0.33c0.68,0 0.54,0.09 0.54,-1.22 -0,-0.52 0,-1.03 0,-1.55l-0.41 1.77c-0.04,0.25 -0.14,0.31 -0.14,0.67z"/>
   <path class="fil1" d="M12.82 9.56c0.2,-0.3 0.15,-0.53 0.33,-0.88 0.35,-0.7 -0.02,-1.07 -0.02,-2.3l-0.08 0c0,0.35 -0.07,0.33 -0.08,0.73 -0.01,0.68 -0.15,1.38 -0.15,2.45z"/>
   <path class="fil2" d="M35.97 31.33c-0.08,-0.22 -0.17,-0.14 -0.23,-0.41l1.42 0 -0.11 -0.16c-2.15,-0.04 -1.67,-0.07 -1.54,0.48 -0.25,0.1 -0.06,-0.11 -0.23,0.24 0.42,-0.12 0.25,-0.39 0.7,-0.16z"/>
   <path class="fil2" d="M23.3 14.13l0 0.57c0.51,-0.01 0.58,-0.23 0.62,-0.73 -0.31,0.13 -0.15,-0.17 -0.62,0.16z"/>
   <path class="fil2" d="M40.32 31.11l-0.19 -0.23c-0.01,-0.01 -0.03,-0.02 -0.04,-0.04l1.29 -0.11c0.19,-0 0.06,-0.02 0.29,0.11l-0.1 -0.24 -0.86 0.07c-0.57,0.06 -0.66,-0.17 -0.93,0.25 0.16,0.08 0.34,0.11 0.54,0.18z"/>
   <path class="fil1" d="M17.09 8.09c0.12,-0.46 0.16,0.04 0.16,-0.65 -0.21,-0.02 -0.21,-0.04 -0.39,-0.08 -0.19,0.41 -0.21,0.7 0.23,0.73z"/>
   <path class="fil2" d="M28.82 19.18c-0.22,-0.31 -0.31,-0.12 -0.54,-0.49l0.78 0c0.4,-0.05 0.08,0.01 0.23,-0.08 -0.58,0 -0.93,-0.12 -1.32,0.08 0.15,0.22 0.57,0.42 0.85,0.49z"/>
   <path class="fil0" d="M36.51 7.36c0.18,-0.22 0.41,-1.07 0,-1.39l0 1.39z"/>
   <path class="fil2" d="M11.34 20.73l0.47 0c0.01,-0.25 0.04,-0.3 0.08,-0.49 -0.45,0 -0.53,0.02 -0.54,0.49z"/>
   <path class="fil0" d="M35.89 3.45c0.02,0.01 0.04,0.01 0.05,0.03 0.01,0.02 0.04,0.02 0.05,0.03 0.19,0.1 0.3,0.1 0.42,0.29 0.14,0.22 0.1,0.54 0.1,0.87l0.08 0c0,-0.36 0.12,-0.17 0.07,-0.55 -0.02,-0.19 -0.12,-0.3 -0.14,-0.59 -0.27,-0.07 -0.26,-0.08 -0.62,-0.08z"/>
   <path class="fil0" d="M36.12 9.64c0.01,-0.47 0.38,-0.87 0,-1.14 -0.06,0.79 -0.36,0.87 0,1.14z"/>
   <path class="fil2" d="M12.2 22.12c0.18,0.13 0.16,0.16 0.47,0.16 0.02,-0.25 -0,-0.15 0.08,-0.33 -0.15,-0.11 -0.22,-0.15 -0.39,-0.24 -0.08,0.17 -0.11,0.19 -0.16,0.41z"/>
   <path class="fil0" d="M35.81 8.26l0 -0.08c-0.34,0 -0.3,-0.08 -0.7,-0.08 -0.1,-0.38 -0.12,-0.07 -0.16,-0.49l-0.16 0c0.05,0.68 0.33,0.65 1.01,0.65z"/>
   <path class="fil0" d="M20.27 13.23l0.03 0.37c0.46,-0.03 0.42,-0.04 0.3,-0.45l-0.24 -0.08 -0.09 0.16z"/>
   <path class="fil0" d="M35.11 10.3c0.46,0 0.67,0.07 1.01,0.08 -0.18,-0.26 -0.11,-0.13 -0.51,-0.2 -0.36,-0.07 -0.32,-0.13 -0.5,0.12z"/>
   <path class="fil1" d="M30.84 8.18c-0,-0.16 0.02,-0.14 -0.03,-0.29 -0.1,-0.29 -0.28,-0.42 -0.59,-0.44 0.01,0.01 0.04,0.01 0.04,0.04 0.01,0.02 0.03,0.03 0.04,0.04l0.43 0.53c0.15,0.2 -0,-0 0.11,0.13z"/>
   <path class="fil1" d="M28.12 8.09c0.25,-0.17 0.49,-0.57 0.85,-0.57l0 -0.08c-0.45,0 -0.76,0.28 -0.85,0.65z"/>
   <path class="fil0" d="M34.26 3.45c0.25,-0.1 0.08,0.08 0.21,-0.24l0.88 0c-0.14,0 -0.32,0.02 -0.45,-0.02 -0.05,-0.01 -0.59,-0.48 -0.64,0.26z"/>
   <path class="fil2" d="M34.57 18.86c-0.06,-0.05 -0.02,-0.05 -0.13,-0.11 -0.16,-0.08 -0.04,-0.02 -0.18,-0.06l0.08 -0.16c-0.19,-0.08 -0.06,-0.06 -0.31,0l0 0.16c0.29,0.07 0.22,0.13 0.54,0.16z"/>
   <path class="fil2" d="M27.27 31.27c-0.09,-0.09 -0.17,-0.09 -0.23,-0.35l0.16 0c-0.09,-0.06 0.12,-0.12 -0.39,0l0 0.16c0.33,0.09 0.09,0.11 0.47,0.18z"/>
   <path class="fil2" d="M23.25 12.66l-0.33 0.17c-0.02,-0.1 -0.04,-0.2 -0.06,-0.27 -0.09,-0.27 -0.03,-0.11 -0.12,-0.23 0.03,0.31 0.05,0.34 0.1,0.57 0.17,-0.01 0.12,0.04 0.26,-0.05 0.15,-0.09 0.07,-0.03 0.14,-0.2z"/>
   <path class="fil2" d="M12.43 22.85c0.34,-0.03 0.35,-0.06 0.23,-0.33 -0.19,0.13 -0.17,0.05 -0.23,0.33z"/>
   <path class="fil2" d="M20.27 13.23l0.09 -0.16 0.24 0.08c-0.1,-0.27 -0.04,-0.22 -0.33,-0.24l0 0.33z"/>
   <path class="fil3" d="M17.24 30.43l-0.08 0c-0.13,0.29 -0.14,0.24 0.08,0.41l0 -0.41z"/>
   <path class="fil0" d="M35.89 3.45l-0.47 -0.08c0.18,0.04 0.23,0.08 0.47,0.08z"/>
  </g>
 </g>
</svg>
