<?xml version="1.0" encoding="UTF-8"?>
<!DOCTYPE svg PUBLIC "-//W3C//DTD SVG 1.1//EN" "http://www.w3.org/Graphics/SVG/1.1/DTD/svg11.dtd">
<!-- Creator: CorelDRAW -->
<svg xmlns="http://www.w3.org/2000/svg" xml:space="preserve" width="64.2929mm" height="21.745mm" version="1.1" style="shape-rendering:geometricPrecision; text-rendering:geometricPrecision; image-rendering:optimizeQuality; fill-rule:evenodd; clip-rule:evenodd"
viewBox="0 0 156.49 52.93"
 xmlns:xlink="http://www.w3.org/1999/xlink"
 xmlns:xodm="http://www.corel.com/coreldraw/odm/2003">
 <defs>
  <style type="text/css">
   <![CDATA[
    .fil0 {fill:#070909}
    .fil5 {fill:#414F51}
    .fil1 {fill:#F2FE00}
    .fil4 {fill:#FCFDFD}
    .fil2 {fill:#FEFEFE}
    .fil3 {fill:red}
   ]]>
  </style>
 </defs>
 <g id="Camada_x0020_1">
  <metadata id="CorelCorpID_0Corel-Layer"/>
  <g id="_2086936649184">
   <path class="fil0" d="M145.61 10.2c-0.62,0.03 -2.39,-0.79 -3.26,-1.02 -3.72,-1 -8.4,-0.52 -11.98,-0.12 0.19,-1.56 4.1,-8.03 -1.19,-8.96 -4.52,-0.8 -4.51,3.23 -9.37,1.62 -2.74,-0.91 -6.86,-2.02 -9.76,-0.89 -1.44,0.56 -2.75,1.62 -3.6,2.72 -0.94,1.22 -1.28,3.52 -1.77,5.05 -0.88,0.07 -3.84,-1.24 -9.28,-1 -1.78,0.08 -3.09,0.47 -4.71,0.76 -2.2,0.39 -1.86,1.85 -4.03,0.67 -2.02,-1.09 -11.78,-0.74 -14.87,-0.56 -2.73,0.16 -2.61,1.03 -3.64,2.13 -1.51,-0.68 -3.49,-1.73 -5.38,-1.59 -0.61,0.1 -1.53,0.14 -2.07,0.29 -2.44,0.7 -0.38,1.2 -5.64,0.81 -1.38,-0.1 -2.93,-0.01 -4.31,0.08 -2.56,0.16 -1.71,0.63 -2.67,2.31 -0.88,0.04 -1.59,-0.82 -2.67,-1.29 -1.44,-0.62 -1.74,-0.58 -3.26,-0.93 -3.85,-0.9 -9.7,-0.44 -12.55,3.34 -1.53,2.04 -0.78,0.57 -1.57,2.86 -0.23,0.66 -0.42,1.13 -0.82,1.47 -0.42,0.35 -0.96,0.62 -1.5,0.28 -0.35,-0.54 -0.21,-0.14 -0.22,-1.02 -0,-0.39 0.05,-0.86 0.06,-1.32 0.01,-1.19 0.08,-1.33 0.21,-2.45 0.33,-2.61 -1.04,-2.03 -2.43,-2.39 -2.39,-0.62 -6.22,-0.12 -8.84,-0.07 -4.96,0.09 -3.66,0.64 -5.27,4.77 -1.81,4.65 -3.67,10.65 -5.33,15.55l-2.75 7.78c-1.89,4.54 -1.68,4.73 2.72,5 1.34,0.08 3.07,-0.15 4.41,0.01 2.47,0.3 1.84,-0.11 2.85,-1.95 0.45,0.67 0.15,1.64 2.92,1.82 1.39,0.09 2.82,0.13 4.23,0.13 1.3,-0 3.43,0.41 4,-0.79 0.22,-0.46 0.33,-1.48 0.39,-2.13 0.07,-0.74 -0.03,-1.98 0.51,-2.22 0.4,1.08 0.14,1.86 0.84,2.73 0.42,0.52 1.29,1.06 1.86,1.46 1.59,1.13 2.44,1.66 4.75,1.64 2.8,-0.02 5.95,0.13 8.52,-0.97 1,-0.43 1.12,-1.09 2.21,-1.43 1.23,0.56 1.13,1.63 2.27,1.84l7.58 -0.32c1.39,-0.13 2.48,-0.43 3.34,0.86l0.13 -0.15c1.47,-0.22 4.38,-0.31 5.66,0.24 0.02,0.97 0.04,0.1 -0.2,0.49 -0.11,1.13 -0.16,1.53 0.46,2.26 0.34,0.39 1.04,1.08 1.45,1.36 3.62,2.42 5.6,-0.11 8.51,0.44 4.94,0.93 2.23,-1.53 6.19,-0.23 0.95,0.31 1.07,0.26 2.15,0.28 1.7,0.04 3.29,-0.15 4.95,0.03 1.61,0.18 3.78,-0.55 4.55,-0.37 1.85,0.44 2.43,0.31 4.35,0.44 0.5,0.93 0.48,3.61 4.5,3.36 1.8,-0.11 4.26,-1.71 5.17,-2.88 2.16,-2.79 2.08,-1.37 5.4,-2.2 1.33,-0.33 1.82,0.26 3.1,0.11 1.28,-0.15 1.83,-0.83 2.84,-1.32 0.8,0.41 1.51,1.2 2.42,1.32 1.11,0.15 2.15,-0.14 3.4,0.05 1.65,0.25 2.03,-0.32 3.21,-0.48 0.51,-0.07 1.84,0.59 2.84,0.65 2.21,0.14 4.35,-0.58 6.45,-0.23 1.14,0.19 2.26,0.16 3.31,-0.22 1.36,-0.5 1.54,-1.48 2.19,-1.67 0.32,-0.71 0.31,-0.55 1.11,-0.79 1.02,-0.31 1.67,-0.81 2.51,-1.59 0.38,-0.35 0.65,-0.79 0.98,-1.07 0.47,-0.41 2.02,-0.84 2.68,-1.17l4.95 -2.98c1.67,-1.26 4.51,-4.62 5.47,-7.07 2.28,-5.85 1.45,-11.95 -2.67,-15.95 -0.2,-0.19 -0.29,-0.24 -0.48,-0.45 -0.29,-0.32 -0.18,-0.29 -0.5,-0.64l-5.98 -4.14z"/>
   <path class="fil1" d="M134.52 17.79c0.46,2.87 -0.73,2.91 -2.48,3.71 -2.27,1.03 -2.24,0.9 -2.44,4.05l-0.94 12.71c-0.98,0.31 -1.17,-0.12 -1.95,-0.38 -0.73,-0.24 -1.48,-0.06 -1.94,-0.5 -0.83,-1.24 1.4,-10.47 1.03,-13.07 -1.4,0.14 -2.63,1.53 -4.04,1.68 -0.68,-2.47 -0.75,-0.97 -1.05,-2.37 0.24,-0.22 0,-0.05 0.37,-0.26l2.91 -1.47c3.86,-1.88 1.77,-2.16 3.22,-7.26 0.6,-2.11 2.89,-2.05 3.21,-1.59 0.43,1.28 -0.31,4.4 -0.19,6.15 1.18,-0.19 3.38,-1.67 4.3,-1.4zm13.17 19.67c1.09,-0.14 3.43,-2.8 3.99,-3.51 0.54,-0.69 0.96,-1.64 1.41,-2.42 0.52,-0.9 0.79,-1.79 1.06,-2.83 1.28,-4.93 -1.08,-9.78 -3.16,-11.99 -4.75,-5.04 -13.09,-7.75 -21.15,-4.9 -3.4,1.2 -6.46,2.93 -8.99,5.83 -0.72,0.83 -2.25,3.57 -2.72,4.98 -0.63,1.9 -0.99,5.16 -0.18,7.42 0.94,2.64 1.48,3.04 2.83,5.01 0.61,0.88 1,1.11 1.94,1.77 0.87,0.62 0.21,0.52 2.08,1.61 5.27,3.07 5.08,1.47 8.31,1.56 1.88,0.05 1.46,-0.16 2.4,1.37 1.37,0.18 2.19,0.19 2.82,-0.97 0.41,-0.75 1.37,-1.86 1.17,-2.85 -0.82,-0.02 -1.69,0.01 -2.3,-0.42 -0.78,-1.03 -0.75,-3.54 -1.58,-4.5 -1.11,-1.29 -3.43,-0.13 -4.57,-0.65 -0.91,-3.34 5.2,-0.02 6.31,-2.73 -0.84,-1.22 -2.67,-0.3 -2.43,-2.79 1.22,-1.64 2.62,-0.47 4.29,-0.55 2.1,-0.1 2.89,0.14 4.08,1.42 0.61,0.66 1.94,2.53 2.43,3.56 1.33,2.81 0.31,3.07 -0.5,4.8l2.12 -0.27c0.21,0.83 0.36,1.08 0.34,2.05z"/>
   <path class="fil2" d="M55.22 17.61c1.15,-0.38 3.78,-0.11 3.12,2.18 -0.46,1.62 -0.42,3.76 -1.7,4.28 -1.71,0.69 -3.56,1.43 -2.74,-1.74 0.37,-1.44 0.78,-3.44 1.32,-4.72zm-2.97 12.78c3.11,-0.71 2.01,2.03 1.73,4.83 -0.13,1.3 -0.79,5.76 -0.45,6.9 0.66,0.23 6.4,0.14 7.35,-0.06 0.36,-2.42 0.29,-5 0.53,-7.53 0.62,-6.54 -0.58,-5.13 -0.58,-7.25 1.1,-0.93 2.59,0.06 4,-5.63 0.48,-1.94 1.75,-7.18 0.32,-8.68 -1.7,-1.79 -4.65,-1.51 -7.27,-1.5 -1.41,0.01 -7.31,-0.38 -8.09,0.18 -0.62,0.67 -3.02,13 -3.59,15.19l-3.28 15.3c0.87,0.35 5.45,0.37 6.51,0 0.47,-1.06 2.25,-9.6 2.81,-11.76z"/>
   <path class="fil2" d="M38.76 18.51c0.3,1 -0.69,4.38 -0.97,5.41l-1.21 5.51c-0.21,1.02 -1.05,4.61 -1.36,5.35 -0.62,1.47 -3.25,2.28 -3.83,0.42 -0.5,-1.62 1.62,-9.24 2.15,-11.13 0.29,-1.04 0.24,-1.77 0.5,-2.81 0.77,-3.1 0.63,-3.67 2.76,-3.84 1.12,-0.09 1.6,-0.09 1.95,1.09zm-3.17 -7.26c-1.69,0.37 -3.48,0.82 -4.55,2.02 -3.08,3.46 -3.55,7.01 -4.81,12.32 -0.24,1.02 -0.27,1.87 -0.5,2.86 -0.69,2.99 -2.48,8.96 -1.31,11.98 1.24,3.2 9.82,3.67 14.31,0.48 3.56,-2.52 5.58,-16.11 6.6,-21.01 0.39,-1.88 0.85,-4.61 -0.04,-6.32 -1.54,-3 -7.02,-2.92 -9.7,-2.33z"/>
   <path class="fil2" d="M15.57 18.41c0.19,0.31 0.24,0.43 0.16,1.26 -0.13,1.34 -0.48,2.81 -0.53,4.32 -0.05,1.61 -0.27,4.17 -0.75,5.33l-2.64 0c-0.06,-0.75 1.28,-4.67 1.59,-5.64l1.39 -4.07c0.3,-1.11 0.04,-1.01 0.78,-1.2zm-2.41 17.21c0.27,1.7 -0.98,5.8 -0.51,6.91 0.79,0.3 5.75,0.13 6.74,-0.13 0.95,-4.43 1.21,-10.43 1.83,-15.37 0.3,-2.4 0.64,-5.03 0.94,-7.56 0.16,-1.36 1.16,-6.98 0.55,-7.59 -0.53,-0.36 -9.98,-0.17 -11.24,0.01 -0.83,2.44 -1.39,3.43 -1.95,5.86 -0.16,0.71 -0.46,1.17 -0.69,1.83l-2.63 7.72c-0.44,1.26 -1.07,2.58 -1.36,3.92 -0.42,1.95 -3.86,10.25 -3.59,11.47l6.54 -0.12 2.24 -7.02 3.13 0.08z"/>
   <path class="fil2" d="M95.47 30.32c-0.59,1 -0.74,2.44 -1.2,3.59 -0.6,1.52 -1.16,1.47 -2.87,1.49 -0.84,0.01 -0.98,-0.02 -1.06,-1.13 -0.18,-2.63 2.32,-11.17 2.89,-13.75 0.41,-1.86 0.06,-2.29 1.41,-3.23 0.95,-0.66 2.19,-0.55 3.17,0.27 0.13,1.01 -0.36,2.5 -0.53,3.42 -0.37,2.02 0.54,1.39 4.01,1.28 1.72,-0.05 2.33,0.26 2.68,-1.73 0.47,-2.63 1.45,-6.14 -0.18,-8.37 -1.79,-2.45 -11.91,-1.85 -13.8,0.31 -0.69,0.79 -1.42,2.05 -1.94,2.83 -1,1.51 -2.86,8.89 -3.22,10.88 -0.15,0.82 -0.11,1.33 -0.34,2.25 -0.96,3.99 -3.03,11.98 0.73,13.03 0.52,-0.88 1.04,-1.49 2.41,-1.33 0.96,0.11 2.43,-0.25 3.08,0.05 1.54,0.71 0.31,1.3 2.33,0.5 5.28,-2.1 4.64,1.75 7.02,-4.28 0.29,-0.72 2.11,-5.44 1.4,-6.17 -0.5,-0.31 -5.17,-0.13 -6.01,0.09z"/>
   <path class="fil2" d="M75.27 28.5c-0.76,0.3 -1.81,0.32 -2.59,0.12 -0.1,-0.93 0.46,-2.17 0.74,-2.89 0.59,-1.52 1.88,-7.6 3.1,-8.08 0.1,1.97 -0.76,9.34 -1.25,10.85zm-1.37 6.4c1.44,2.37 -0.87,3.07 -0.27,4.77 0.64,1.8 2.83,-0.37 3.94,1.07 0.44,0.57 0.05,1.03 1.88,0.13 0.95,-0.47 1.02,-0.48 1.19,-1.68l1.32 -11.05c0.13,-1.12 0.06,-1.99 0.19,-3.05 0.34,-2.69 1.71,-12.64 1.57,-13.84 -2.2,-0.42 -7.44,-0.08 -9.98,-0.03 -1.47,0.03 -2.07,0.57 -2.66,3.25 -0.37,1.67 -0.91,2.9 -1.46,4.42l-4.47 13.3c-1.64,4.45 -2.66,5.08 3.35,4.39 3.3,-0.38 1.21,-1.56 3.32,-1.65l2.08 -0.01z"/>
   <path class="fil2" d="M115.14 17.31c0.18,0.26 0.08,-0.07 0.18,0.46 0.13,0.69 -0.34,4.06 -0.43,4.89 -0.14,1.28 0.18,4.65 -0.77,5.48 -0.52,0.45 -1.89,0.27 -2.44,0.03 -0.11,-0.86 0.41,-1.93 0.6,-2.86l1.89 -5.29c0.34,-0.81 0.42,-1.98 0.98,-2.71zm-2.57 22.68c1.69,0.57 3.78,-0.12 4.54,0.03 2.28,0.46 2.27,0.03 2.55,-2.45 0.37,-3.28 0.5,-2.36 -0.86,-4.47 -1.58,-2.43 -1.89,-7.29 -1.2,-10.29 0.96,-4.16 3.93,-6.36 4.35,-6.95 0.61,-0.88 0.8,-4.72 0.41,-5.05 -0.6,-0.21 -10.2,-0.08 -11.1,0.16 -0.71,1.52 -4.3,12.33 -5.14,14.95 -0.54,1.68 -2.86,7.64 -2.96,9.13 0.96,-0.03 1.87,-0.6 1.71,0.78 -0.12,0.97 -0.54,1.53 -0.86,2.07 -0.34,0.57 -1.82,3.19 -1.86,3.66 2.11,0.92 3.4,-0.64 4.03,-0.9 2.55,-1.05 1.71,-0.32 2.64,-3.07 0.33,-0.98 0.7,-2.01 0.94,-3.01l3.16 -0.04 -0.34 5.46z"/>
   <path class="fil2" d="M108.92 9.25c1.3,-0.39 2.15,-2.3 5.38,-2.05 3.66,0.28 6.53,3.53 10.93,0.51 1.74,-1.19 2.32,-2.33 2.41,-5.29 -5.91,3.73 -6.28,1.35 -10.55,0.75 -1.97,-0.28 -4.08,-0.44 -5.77,0.57 -1.83,1.09 -2.24,2.54 -2.41,5.51z"/>
   <path class="fil3" d="M134 40.96c-1.21,0.09 -0.66,0.24 -2.29,2.49 -0.61,0.83 -1.61,1.92 -2.72,1.91 -0.25,-2.21 1.3,-3.16 2.53,-3.93 0.18,-0.11 0.2,-0.12 0.34,-0.24 0.25,-0.22 0.13,-0.09 0.3,-0.34 -1.88,-0.04 -2.63,0.42 -3.53,1.88 -0.85,1.37 -0.9,2.32 -1.39,2.7 -0.91,0.71 -1.05,-0.07 -1.06,-0.09 -0.75,-1.33 1.24,-3.11 1.36,-4.5 -1.95,-1.53 -3.36,1.31 -4.56,1.83 0.18,-1.49 0.39,-2.5 -1.31,-1.98 -0.69,0.21 -0.71,0.46 -1.06,0.68 -0.84,0.55 -0.51,-0.07 -1.08,-0.3 -0.92,-0.36 -1.33,0.98 -1.56,1.84 -0.31,1.17 -0.95,1.67 -0.94,3.1 0.97,-0.1 1.05,-0.55 2.3,-2.5 0.51,-0.8 1.24,-2.22 2.62,-1.91 0.73,1.88 -1.39,2.4 -1.12,4.6 0.92,0.03 1.37,-1.38 2.33,-2.5 0.91,-1.06 1.73,-2.36 2.72,-1.91 0.1,1.42 -0.9,1.61 -1.02,2.87 -0.26,2.6 3.09,1.45 3.34,1.47 0.63,0.05 0.77,0.32 1.53,0.13 0.97,-0.24 1.67,-1.34 2.33,-1.52 0.75,0.5 0.7,1.31 1.73,1.45 1.17,0.16 1.78,-0.55 2.04,-1.53 -0.88,0.22 -2.09,1.42 -2.42,-0.06 -0.29,-1.33 0.69,-1.84 0.57,-3.63zm-71.09 -2.9c0.8,0.38 1.76,0.37 2.39,-0.19 -0.39,-0.2 -1.95,-0.7 -2.44,-0.6l0.05 0.8zm52.23 3.95c0.47,0.35 0.86,0.7 1.33,0.76 1.35,-1.64 0.24,-2.38 -0.86,-1.98 -0.59,0.22 -0.77,0.58 -0.92,0.84l0.45 0.38zm-21.74 1.39c-0.27,-0.99 -0.23,-1.56 1.48,-2.11 1.16,-0.37 1.91,1.21 2.35,-0.17 -0.95,-0.78 -4.32,0.01 -5.27,1.29 0.09,1.31 0.39,0.81 1.19,1.27 0.47,0.27 0.6,0.69 1.38,0.25l-1.14 -0.53zm0.92 2.52c-0.81,0.24 -0.58,0.31 -1.22,-0.19 -1.29,-1.01 -1.19,-0.48 -2.63,-0.13 0.44,0.4 1.03,0.35 1.7,0.52 0.58,0.14 1.18,0.39 1.63,0.42 2.15,0.14 4.74,-2.36 1.24,-2.58 0.36,0.93 0.47,0.31 0.47,1.46 -0.41,0.29 -0.67,0.35 -1.2,0.5zm-4.7 0.26c-0.31,-0.64 -0.53,-0.61 -0.48,-1.52 0.1,-1.85 1.65,-1.99 1.38,-3.62 -0.94,-0.34 -2.07,0.17 -2.64,0.9 0.31,0.26 0.84,0.2 1.17,0.21 -0.13,1.33 -2.06,3.96 0.57,4.02zm23.41 -5.19c-0.48,0.94 -2.38,3.52 -2.13,4.93 0.79,0.02 3.07,-3.44 3.17,-3.64 -0.2,-0.56 -0.58,-0.99 -1.04,-1.29zm25.1 2.34c1.26,-0.42 4.2,-5.74 4.53,-8.09 -1.23,0.53 -2,2.45 -2.72,3.56 -0.5,0.76 -1.78,3.59 -1.81,4.53zm-67.54 2.84c1.21,0.41 1.45,-1.29 2.05,-2.05 2.62,-3.31 2.95,-0.74 3.84,-1.43 0.33,-0.26 0.57,-1.12 0.16,-1.42 -0.57,-0.42 -2.33,0.8 -3.08,0.97 -0.38,-0.41 -0.17,-0.61 -0.71,-0.97 -0.59,0.37 -2.33,4.22 -2.27,4.9zm37.55 -4.94c2.64,-0.34 0.14,4.54 -2.05,4.58 -1.66,0.03 -0.89,-1.9 -0.35,-2.66 0.45,-0.63 1.45,-1.8 2.41,-1.92zm-0.19 -0.59c-1.01,0.2 -2.66,1.61 -3.1,2.53 -1.8,3.7 2.45,4.28 4.9,0.59 1.15,-1.72 0.08,-3.48 -1.8,-3.12zm-41.12 4.05c0.59,-1.26 1.13,-2.02 1.76,-3.23 0.29,-0.55 0.53,-1.22 0.82,-1.71 2.49,-4.15 3.58,-1.69 3.79,-3.51 -0.78,-0.6 -3.4,0.8 -4.21,1.17 -0.29,2.42 -0.55,2.38 -2.13,5.07 -2.36,4.04 -2.94,1.97 -2.91,4.11 1.91,0.4 2.28,-0.59 2.89,-1.9zm10.51 1.11c0.9,1.74 3.27,-0.59 3.91,-0.74 0.67,0.59 0.54,1.07 1.6,1.19 2.36,0.28 2.95,-1.53 4.77,-3.88l-0.75 -1.21c-0.66,0.38 -1.2,0.74 -1.57,2 -1.21,4.08 -3.04,3.07 -2.95,1.42 0.06,-1.09 0.7,-2.11 0.65,-3.03 -1.37,0.33 -3.44,5.14 -4.7,4.16 -0.88,-0.74 0.05,-2.21 0.46,-2.63 0.54,-0.55 1.34,-0.7 2.03,-1.47 -0.08,-0.06 -0.06,-0.23 -0.69,-0.04 -0.02,0 -0.59,0.26 -0.61,0.27 -0.43,0.21 -0.95,0.53 -1.32,0.77 -0.71,0.47 -1.35,1.93 -0.8,3.17zm24.52 -1.55c0.22,0.63 0.2,1.62 -0.02,2.29 -0.23,0.7 -0.81,0.89 -1.32,1.33 -1,0.86 -1.47,2.43 -2.71,1.84 -0.32,-1.36 0.31,-1.84 0.7,-2.76 0.32,-0.78 0.64,-1.6 1.05,-2.61 0.73,-0.11 1.61,-0.33 2.29,-0.09zm0.33 -5.01c0.52,-0.97 1.45,-1.7 1.46,-3.1 -0.87,0.07 -0.95,0.05 -1.72,1.8 -0.43,0.96 -0.7,1.35 -1.11,2.15 -1.61,3.15 -0.63,2.33 -2.76,3.67 0.17,0.95 0.53,0.86 0.2,1.88 -0.61,1.87 -2.01,3.09 -1.2,5.09 1.77,0.67 3.87,-2.15 4.69,-3.05 0.52,-0.57 1.19,-1.9 1.11,-2.99 -0.13,-1.77 -1.12,-1.44 -1.92,-2.04 -0.08,-1 0.76,-2.5 1.25,-3.4z"/>
   <path class="fil4" d="M62.84 39.26c-0.37,0.59 -0.97,1.73 -0.93,2.82l4.32 -0.12 1.29 -2.66c-0.75,-0.3 -3.67,-0.18 -4.69,-0.05z"/>
   <path class="fil1" d="M147.69 37.46c-2.33,-0.15 -5.74,-0.71 -6.09,2.99 0.7,-0.03 5.08,-1.77 5.79,-2.55 0.4,-0.43 0.17,-0.19 0.3,-0.44z"/>
   <path class="fil5" d="M54.65 44.62c0.26,0.25 -0.1,0.1 0.55,0.38 0.13,0.06 0.35,0.09 0.54,0.14 1.91,0.45 3.08,-0.18 4.08,-0.14 0.49,0.08 0.14,-0.13 0.29,0.35 0.24,-0.39 0.22,0.48 0.2,-0.49 -1.28,-0.54 -4.19,-0.46 -5.66,-0.24z"/>
  </g>
 </g>
</svg>
