<?xml version="1.0" encoding="UTF-8"?>
<!DOCTYPE svg PUBLIC "-//W3C//DTD SVG 1.1//EN" "http://www.w3.org/Graphics/SVG/1.1/DTD/svg11.dtd">
<!-- Creator: CorelDRAW -->
<svg xmlns="http://www.w3.org/2000/svg" xml:space="preserve" width="33.8498mm" height="16.9533mm" version="1.1" style="shape-rendering:geometricPrecision; text-rendering:geometricPrecision; image-rendering:optimizeQuality; fill-rule:evenodd; clip-rule:evenodd"
viewBox="0 0 191.73 96.03"
 xmlns:xlink="http://www.w3.org/1999/xlink"
 xmlns:xodm="http://www.corel.com/coreldraw/odm/2003">
 <defs>
  <style type="text/css">
   <![CDATA[
    .fil0 {fill:black}
    .fil2 {fill:red}
    .fil1 {fill:white}
   ]]>
  </style>
 </defs>
 <g id="Camada_x0020_1">
  <metadata id="CorelCorpID_0Corel-Layer"/>
  <path class="fil0" d="M166.93 90.44c0.48,-0.57 0.25,-0.73 0.92,-1.15 0.82,0.6 1.03,1.71 2.73,0.67 1.57,-0.96 2.59,0.41 3.55,-2.52 0.24,-0.74 1.03,-1.17 1.03,-2.62 0,-2.12 -1.39,0.18 0.63,-4.13 0.99,-2.11 4.87,-11.15 5.22,-13.68 0.34,-2.49 2.57,-3.68 3.75,-7.37 2.63,-7 11.55,-20.75 2.35,-23.5 -2.89,-0.87 -11.55,-0.82 -15.25,-0.82 -0.15,-0.27 -0.15,-0.11 -0.23,-0.44l8.33 -8.96c0.26,-1.08 2.3,-1.01 3.48,-3.34 0.61,-1.2 -0.17,-1.76 -0.59,-2.48 0.88,-0.7 6.92,-0.28 8.48,-2.56 1.16,-1.68 -0.32,-4.18 -3,-2.92l-3.61 0.52c-2.73,0.6 -2.42,-0.73 -4.37,0.25 -2.91,1.46 -11.27,0.36 -10.95,4.55 0.12,1.57 -2.63,3.4 -4.95,5.54 -0.42,-0.12 -1.31,-1.05 -3.9,-0.27 -0.53,0.17 -1.64,0.99 -2.08,0.99 -0.57,0 -1.28,-1.76 -4.68,-0.34 -0.69,0.29 -0.55,-0.1 -1.11,-0.25 -0.4,-0.11 -1.28,0.1 -1.51,-0.08 -1.12,-0.84 0.82,-0.31 -2.48,-2.12 0.26,-1.17 6.25,-1.11 8.02,-2.29 2.66,-1.78 1.94,-4.56 -0.95,-3.99l-5.94 1.03c-0.87,0 -0.74,-1.35 -3.27,-0.06 -1.14,0.59 -1,2.46 -6.38,0.44 -1.62,-0.75 -3.17,-1.34 -5.37,-0.73 -0.6,-1.07 -0.81,-4.12 -4.7,-0.8 -2.46,2.1 0.91,1.4 -2.69,1.43l-3.5 0.73c-1.18,0.52 -1.78,-0.91 -5.75,0.21 -2.16,0.61 -1.78,-0.32 -5.22,-0.32l-8.48 1.91c-1.76,0.76 -0.84,0.34 -2.54,-0.08 -2.72,-0.64 -1.01,-0.4 -2.35,-2.01 -1.96,-2.35 -1.77,-0.29 -2.1,-2.87 -0.65,-5.16 -7.54,-1.52 -9.92,-0.11 -3.06,1.81 -6.41,4.76 -9.02,7.17 -0.81,0.75 -1.53,-0.9 -3.73,0.82 -0.98,0.77 -1.53,-0.71 -3.59,0 -1.62,0.55 -0.92,0.17 -1.68,-0.11l-3.61 -0.31 -2.62 1.09c-0.5,-1.17 -0.99,-0.65 -1.51,-1.6 3.34,-2.39 -1.21,-0.89 7.7,-2.66 1.99,-0.39 5.16,-0.86 5.16,-3.76 0,-3 -6.85,0.14 -8.65,-0.17l-1.4 -0.94c-0.45,-1.37 1.5,-8.39 -1.91,-9.29l-3.38 -0.46c-1.98,-1.35 -5.99,-1.05 -6.31,2.45 -0.94,10.49 -3.91,4.78 -8.22,8.04 -0.98,0.74 -2.04,-0.14 -3.36,-0.86 -2.12,-1.16 -0.9,-4.9 -4.36,-12.72 -0.89,-2.02 -6.24,-4.02 -10.07,-1.13 -3.5,2.65 -2.77,10.33 -4.68,14.02 -0.8,1.55 -3.85,1.95 -4.36,1.8l-4.89 -3.09c-1.17,-1.22 -0.88,-6.46 -1.99,-7.6 -0.62,-0.64 -2.66,-1.54 -3.86,-1.11 -2.01,0.72 -3.88,-0.57 -5.83,0.73 -1.84,1.23 -1.63,5.78 -0.71,7.2l1.01 4.39 2.6 3.88c0.67,0.52 0.16,5.7 1.97,8.6 1.06,1.7 0.8,1.5 3.73,2.58 1.98,0.73 -0.22,0.6 2.81,2.29 0.8,0.44 1.82,0.12 2.75,0.84l-1.13 16.18c0,0.73 0.69,4.32 1.64,5.45l2.02 6.69c0.24,4.14 1.33,8.39 1.32,12.71 -0.02,11.76 6.28,8.46 8.43,8.48 2.96,0.02 14.85,0.82 17.25,-0.53 1.09,-0.61 0.96,1.59 5.44,1.03l25.12 0.52c3.14,0 1.52,0.79 5.22,0.44l12.57 0.44c3.56,-0.02 3.18,-0.45 6.82,-0.17 6.41,0.49 15.63,0.11 22.47,0.27 0.48,0.02 1.05,0.27 1.49,0.27l6.44 -0.1c3.22,0.03 9.64,0.67 12.23,-0.19 1.64,-0.55 1.38,1.29 3.67,0.27 1.38,-0.61 3.69,-0.46 2.73,1.38 -0.85,1.61 -3.17,4.9 -1.53,6.08 1.34,0.96 2.19,0.04 2.66,-1.26 0.86,-2.45 0.96,-0.71 3.44,-1.78l3.21 -0.54c0.01,0.07 -0.59,3.11 0.82,3.11 2.32,0 1.13,-0.9 2.46,-0.9 0.15,3.03 2.55,3.25 4.32,-1.2 0.8,-1.75 0.65,-1.42 2.26,-2.16z"/>
  <path class="fil1" d="M38.2 72.1c1.25,-1.63 -0.17,0.07 1.47,-0.94l5.29 -1.97c0.04,0.46 -0.83,2.8 -2.96,2.92l-3.8 -0.02zm33.86 -36.68l7.79 -0.27 -0.08 0.04 9.06 0.28c1.21,0.01 3.18,-0.08 2.56,1.89l-3.76 8.85c-0.59,0.73 -0.69,0.55 -1.78,0.55l-19.76 -0.44c-2.91,-0.03 0.2,-5.69 0.78,-7.18 0.4,-1.03 1.64,-3.86 2.62,-4.07l2.57 0.34zm66.41 3l1.21 -0.11 -0.03 0.22c0.29,-0.12 0.57,-0.18 0.7,-0.19 0.44,0.88 -3.28,8.52 -3.69,9.5l-11.23 26.06 -3.75 9.09c0.67,0.23 1.68,0.04 2.43,0.06 1.41,0.03 -0.01,-0.39 0.73,-4.2 0.73,-3.78 5.85,-13.64 7.28,-17.81l7.99 -18.11c3.41,-5.99 5.45,-5.1 5.9,-5.91l-0.64 -1.17 1.02 0.42c0.53,-0.75 0.87,-0.56 0.66,0.27 2.05,0.85 0.52,1.02 2.07,0.79 0.1,-0.01 0.19,-0.01 0.27,-0.01l2.48 -1.29 -0.37 0.89c2.1,-0.65 2.03,1.18 4.45,0.7 1.2,-0.24 0.33,-0.95 4.16,-0.7 0.82,0.06 0.88,0.11 1.55,0.55 0.9,0.59 0.92,0.1 1.68,0.38 3.82,1.4 -0.76,11.39 -2.16,14.35l-7.24 16.68 -4.97 10.99c-0.36,0.55 -2.33,3.04 0.27,1.09 1.43,-1.07 4.33,-8.2 5.03,-10.2l7.95 -18.34c0.93,-1.96 0.7,-2.35 3.04,-2.35 4.98,0 7.17,-0.49 3.82,5.98 -1.14,2.19 -0.6,1.56 1.47,2.14 0.6,0.17 4.31,0.68 5.06,-1.45l2.56 -5.85c0.04,-0.48 -0.13,-1.89 -0.5,-2.08l-12.28 -0.61c-1.34,-0.88 -0.46,-2.18 0.15,-3.51 3.65,-8 1.57,-7.73 8.35,-7.36 5.18,0.28 14.68,-1.27 15.4,2.79 0.52,2.94 0.13,2.62 -0.5,5.35l-7.18 16.43c-1.97,3.32 -2.21,2.22 -2.2,3.86 0.03,3.29 -5.39,13.59 -6.43,16.6l0.7 1.4c-0.98,-0.39 -2.52,-0.78 -2.72,-1.46 -0.65,0.07 -0.79,-0.51 -1.21,-1.32l-2.15 4.13c0.17,0.13 0.4,0.25 0.57,0.44 1.41,-0.92 1.22,-0.04 1.45,0.53 0,0 0.92,-0.86 0.31,-1.97 0.29,-0.23 0.63,-0.23 0.9,-0.44 1.11,-0.85 0.06,-1.07 1.64,-0.08l-0.11 0.75c0.69,-0.06 1.82,-0.98 2.08,-0.04 0.07,0.25 -0.37,1.75 -1.03,1.78 -0.31,-0.38 -0.15,-0.69 -0.55,-0.69 -0.74,0 2.14,2.75 -1.26,2.75l-1.8 0.44c-0.57,0 -0.53,-0.57 -0.76,-0.78l-0.82 -0.8c-1.62,1.36 -1.12,2.77 -2.31,1.83 0.11,-0.25 0.15,-0.27 0.15,-0.63l-0.15 0 -2.56 4.74c-0.36,0.59 -0.54,1.15 -1.22,1.22l0.04 -1.2 2.12 -3.97c0.94,-1.22 -0.98,-1.11 -2.48,0.86 -0.07,0.09 -3.48,4.43 -3.48,2.64l2.64 -3.36c-1.61,-0.43 -9.08,2.76 -9.08,1.09 0,-0.31 0.36,-0.38 0.59,-0.44 -0.64,-1.76 0.25,-0.94 0.06,-2.27 -0.82,0.63 -2.6,6.06 -3.5,6.3 -1.02,-0.84 3.87,-8.28 3.92,-9.5l-1.89 0.52 -5.77 1.34 -0.1 -0.61 3.13 -1.03c1.36,-0.72 5.07,-1.05 5.6,-2.01 0.29,-0.52 0.1,-1.03 0.8,-1.03 0.92,0 -1.13,2.04 2.58,0.44l-1.49 -0.06c-0.49,-0.05 -1.16,-0.54 -1.37,-0.52 -1.48,0.18 -0.02,1.61 -2.81,1.61l-1.33 0.38 -0.16 -0.49c-1.23,0.52 -0.57,-0.2 -1.76,0.27l-4.18 1.59c-2.48,1.25 -10.69,0.48 -13.93,0.48 -4.04,0 -1.56,-0.88 -8.24,-0.82 -0.78,0 -0.97,-0.15 -1.51,0.27l-6.86 0c-0.81,-0.66 -7.82,-0.66 -8.29,-0.4 -1.43,0.8 -6.28,0.55 -7.24,-0.17l-2.45 0.06c-0.61,0.48 -4.18,0.25 -5.33,0.25 -2.3,0 -6.43,-1.64 -9.76,-0.52l-5.12 0.06c-3.08,-0.05 -0.4,-0.39 -3.04,-0.65 -0.78,-0.1 -0.78,0.29 -1.32,0.52 -1.33,0.57 -12.8,-0.33 -15.91,-0.31 -4.26,0.03 -4.37,0.54 -7.41,-0.96 -0.61,-0.31 -0.84,-1.55 -1.66,-0.75 -2.28,2.22 -6.96,1.37 -9.55,1.36 -1.91,-0.01 -11.12,0.14 -12.48,-0.46 -1.44,-0.63 -1.75,-1.66 -2.16,-3.84l-0.76 -10.07 -0.71 -5.67c-0.11,-2.71 0.21,-2.48 -0.65,-3.59l-1.8 -4.45c-2.23,-2.96 -0.21,-14.57 0.08,-18.25 0.35,-4.47 0.9,-3.58 -3.55,-4.47 -2.54,-0.51 0.39,-1.71 -4.83,-2.9 -2.76,-0.63 -2.34,-8.27 -2.62,-8.75l-1.68 -2.27c-2.22,-2.35 -1.81,-6.05 -2.62,-7.26 -0.54,-0.82 -0.64,-1.74 0.13,-2.56 1.57,-1.65 2.47,0.94 3.44,1.26 0.27,-0.76 0.16,-2.02 1.8,-1.89 2.15,0.17 1.27,6.37 2.6,7.78 0.02,0 0.02,0.02 0.04,0.04 0,0.67 3.95,2.51 4.62,3.13 2.26,2.11 4.28,0.37 5.96,0.59 1.04,0.14 3.07,-2.36 3.48,-2.73l1.13 -6.5 1.18 -4.47c0.86,-3.55 5.37,-3.86 6.8,-2.56 2.31,2.11 1.78,3.62 2.56,4.38l0.74 4.3c0.06,0.67 0.5,1.47 0.71,2.1 0.34,0.95 -0.31,2.29 0.71,2.9 0.55,0.34 0.8,0.21 1.28,0.42 0.4,0.17 0.53,0.69 0.9,0.9 0.94,0.53 1.13,0.29 2.01,0.55 3.08,0.93 1.33,1.55 3.99,-0.78 1.83,-1.6 2.43,0.54 3.74,-0.53 0.69,-0.56 3.22,0.72 4.55,-6.34 0.34,-1.81 -0.09,-2.31 0.59,-3.21 0.8,-1.05 2.69,-0.34 2.69,1.8 0.21,0.02 0.21,0.06 0.38,0.1 2.07,-1.76 1.64,-1.71 2.62,-1.43 1.87,0.52 0.34,3.66 0.73,6.08 0.21,1.33 -0.69,3.55 -2.75,2.92 -0.52,-0.16 -1.27,0.85 -1.39,0.17 -0.17,-0.92 1.23,-0.69 1.41,-0.71 0.5,-0.04 0.53,-0.33 0.97,-0.44l-0.97 -0.99c0.02,-0.8 0.29,-0.52 0.75,-0.63 -1.09,-1.09 -0.74,-0.77 -0.74,-1.7 -0.76,0 -0.67,-0.35 -0.67,-0.8 0.84,-0.25 0.88,-0.88 1.34,0.17 -0.21,0.17 -0.54,0.31 -0.67,0.53 1.57,0.94 0.24,0.82 1.11,0.9l0 -1.51c-0.21,-0.17 -0.23,-0.13 -0.46,-0.27 0,-0.48 0,-0.53 0.08,-0.9 0.98,-0.26 0.9,0.63 0.31,-0.97 -0.99,0.32 -1.49,1.87 -2.46,2.14 0.29,0.5 0.44,0.46 0.15,1.17l-1.36 -1.15c0.21,-0.29 0.17,-0.19 0.46,-0.36 -1.11,-1.82 -0.39,-1.87 -0.15,-2.94 -0.29,0 -0.29,0.04 -0.52,0.1 -0.1,1.88 -0.48,4.99 -1.41,6.59 1.25,2.19 -1.23,1.95 -1.81,3.38 -0.36,0 -0.36,-0.02 -0.59,-0.17 -0.15,0.25 -0.11,0.27 -0.23,0.53 -0.65,0 -0.84,0.4 -1.28,0.53 0.02,-0.44 0.13,-0.86 0.52,-0.97l0 -0.27c-2.01,0 -2.91,3.27 -3.52,3.48 -0.13,-1.86 0.55,-1.2 0.59,-2.24 -0.75,0.09 -2.11,0.54 -2.31,1.43l-0.23 0c0.04,-0.5 0.29,-0.71 0.38,-1.17l-0.97 0.73c-1.67,-0.48 -1.31,0.58 -1.55,0.92l-0.82 1.15c-0.16,1.17 -0.76,2.21 -0.19,3.5l0.33 8.06c-0.46,-0.15 -0.31,-0.67 -0.31,-1.34l-0.15 1.6 -1.51 2.22 0.9 1.59c1.98,-1.49 6.08,-1.09 8.52,-1.89 1.32,-0.44 5.3,-0.66 6.31,-1.73 1.19,1.29 1.27,-0.96 2.56,0.53 2.31,0.9 3.32,-0.74 5.57,-0.97l0.66 -0.07 0.62 0.66 0.6 0.68c0.1,0.03 0.2,0.07 0.32,0.14l-3.86 9.11c-0.31,0.34 -0.27,0.52 -0.84,0.52l-13.89 -0.06c-1.66,0.13 -2.15,3.05 -3.13,4.66 -1.81,2.97 -0.28,2.71 2.79,2.69 3.42,-0.02 8.74,-0.92 8.48,4.99 -0.15,3.55 -2.23,7.5 -3.34,10.51l-5.67 11.41c-0.11,0.15 -0.17,0.17 -0.31,0.36 0.11,0.38 0.65,0.86 0.99,0.97l8.69 -20.08 5.37 -12.48c0.65,-1.28 2.25,-0.8 3.52,-0.8 4.88,0 5.12,0.11 3.42,4.28 -0.66,1.63 -1.15,1.45 1.64,1.45 4.24,0 4.85,0.3 2.2,5.73 -2.49,5.1 -1.06,5.75 -5.2,5.75 -5.82,0 -3.67,-0.85 -6.59,5.52l-0.63 1.85 13.34 0.32c1.79,0.85 0.22,3.37 -0.92,6.23l-1.07 2.39c1.12,1.12 1.27,-1.3 1.97,-2.22l14.86 -34.62 3.08 -7.05c0.17,-0.54 0.8,-1.7 1.22,-1.93 0.44,-0.23 6.21,-0.08 6.36,-0.02 1.38,0.52 0.82,2.83 0.67,3.65l-2.14 18.92 0.08 0 4.32 -9.82 5.01 -11.5c1.34,-1.62 1.74,-0.92 4.24,-0.92 0.83,0 2.82,-0.23 3.34,0.4 1,1.21 -1.31,4.94 -2.12,7.36l-7.99 18.38 -7.72 17.9 -0.84 2.31c0.29,0.17 0.59,0 1.05,0l10.43 -24.07 0.67 -1.68 8.22 -19.14c0.5,-0.78 0.57,-1.36 1.6,-1.39 10.57,-0.45 6.32,0.93 0.97,15.23l-1.39 3.23 6.13 0.36c1.05,0.03 2.12,-3.61 2.87,-5.14l3.53 -8.08c0.09,-0.62 -0.15,-0.68 -0.34,-0.92l-0.86 0c4.34,-3.18 1.52,-0.93 5.04,-1.94 1.25,-0.36 2.63,-0.78 3.64,-0.28zm30.89 41.78c-0.12,-0.17 -0.26,-0.43 -0.32,-0.51l-0.42 0.04 0 0.53 -1.66 0.5 -0.73 0.71c-0.05,-0.1 -0.35,-1.89 0.15,-2.98l3.48 -8.75 -6.57 -0.27 -4.64 10.58 0.2 0 -1.05 1.7 6.7 -1.66c0.78,-0.19 0.69,-0.52 0.96,0.42l-1.74 0.99 -2.81 0.44 -6.73 1.6 -1.11 2.62 1.57 -0.48c0.29,0.21 0.31,0.29 0.31,0.82l1.05 -0.92c0.65,0 0.04,0.48 0,1.36 0.67,-0.24 0.79,-2.02 1.76,-1.66 0.16,0.69 -0.53,0.86 -0.53,1.81 0.21,-0.11 0.21,-0.1 0.23,-0.44 0.09,-0.01 2.62,-3.55 2.62,-1.24 0,0.15 -0.76,1.17 -0.23,1.17 0.59,0 1.68,-3.64 2.41,-3.84 0.11,0.11 0.21,0.23 0.31,0.36 -0.13,0.76 -0.8,0.98 -0.44,1.7 0.36,-0.29 0.29,-0.36 0.82,-0.71 0.71,1.22 -1.09,1.84 -1.18,1.89 0.26,1.34 1.32,-0.34 1.36,-0.8 0.25,-0.02 0.44,-0.11 0.67,-0.17 0.04,0.13 0.19,0.69 0.23,0.8l5.37 -5.62zm-127.66 -40.47l-0.62 0 0.47 -0.35 -2.41 -9.87 -1.57 -5.29c-2.31,-6.13 -2.87,-4.99 -0.92,-4.99l0.74 1.87c0.02,-0.48 0.04,-0.61 0.38,-0.71l2.77 5.39c0.08,0.31 0.1,0.71 0.21,0.99l-0.19 -3.52c-0.31,-0.55 -0.1,-0.46 -0.1,-1.13 -0.21,0.1 -0.15,0 -0.23,0.36l-0.38 0c-0.13,-0.57 -0.63,-0.5 -0.82,-1.51 1.89,-1.48 0.09,-1.28 0,-1.43 0.27,-0.08 0.29,-0.08 0.31,-0.44 -1.54,-0.22 -0.95,-0.94 -1.64,-0.53l1.13 1.17c-0.4,0.04 -0.36,0.17 -0.9,0.17 -0.32,-0.57 -0.76,-0.52 -0.9,-1.17l-1.07 -0.34c-0.59,-0.19 -0.82,0.15 -0.88,-0.73l0.52 0c0.1,0.52 0.25,0.44 0.75,0.44l0.23 0.53 0.9 -0.36c-1.22,-2.19 -0.65,-1.75 -1.05,-3.15 -0.17,-0.55 -0.48,-0.15 -0.48,-0.96 0.23,-0.02 0.29,-0.04 0.46,-0.1 -1.06,-2.36 -0.37,-4 -1.34,-5.73l-0.32 -0.69c-0.57,0.46 -0.21,1.11 -0.38,1.97l-0.59 -0.27c0,-0.63 0.02,-1.09 -0.08,-1.6l-1.36 -1.07c0.15,-1.64 -0.04,-1.66 0.69,-1.85 -0,-0 -3.33,-1.95 -4.78,1.95 -1.39,3.75 -0.34,3.77 -0.67,4.7l-0.36 1.87c0.33,-0.29 0.15,-0.36 0.15,-0.97 0.71,0.04 1.23,1.45 0.5,1.85l-1.24 1.91 -0.28 0.07 0.08 2.14c-1.89,0 -1.28,1.6 -2.46,2.31 1.71,0.17 0.85,1.57 1.45,2.54l0.21 1.18c0.4,-0.72 -0.2,-2.07 0.44,-2.58l0.31 6.67 0.38 -6.13c0.46,0.36 0.25,0.4 0.46,0.9l0.61 -0.97c1,0 0.11,0.64 1.78,2.33 1.22,1.24 0.78,5.94 0.78,5.94 0.44,0.11 0.17,0.02 0.59,-0.1 0.92,2.09 -0.62,3.78 0.67,4.72 0,0.65 -0.11,0.5 0,1.07 1.22,-0.32 1.55,-3.63 2.48,-4.36 0,-0.38 0.04,-0.44 -0.08,-0.71 -0.48,0.15 -0.13,0.36 -0.52,0.71 -0.32,-0.82 1.62,-4.2 1.26,-5.06l-1.28 2.41c-0.46,-0.42 1.3,-4.46 -0.76,-1.91l-0.96 2.27c-1.1,-0.11 -0.32,-2.38 -0.8,-3.76 -0.52,-1.49 0.59,-0.22 1.47,-0.86l1.64 -0.9c1.03,-0.42 1.17,-1.95 1.72,-2.39 1.71,1.96 -0.39,5.56 -0.34,6.46 0.02,0.46 0.17,0.76 -0.11,1.01 -0.08,-0.34 -0.1,-0.36 -0.31,-0.53 -0.52,1.18 0.86,0.04 -0.08,1.87l-2.22 6.36 -1.11 2.33c-0.55,1.32 -0.57,-0.23 -1.01,1.99 -0.29,0.04 -0.19,0.1 -0.52,0.1l-1.49 -10.51 -0.44 1.8c-0.11,0.4 -0.06,0.67 -0.23,1.07l-0.46 0 -1.03 -3.84 -0.36 0.44c-0.68,-0.53 -0.43,-2.1 -0.9,-2.31l-0.23 1.87 0 -2.31c-0.71,0 -0.75,-1.06 -0.75,-2.67l-0.08 0c0,1.26 -0.71,0.59 -0.55,1.72 0.31,3.28 -0.51,4.18 0.65,4.51l0.59 9.5 0.13 0.8c-1.1,-0.9 -2.75,-7.92 -3.13,-9.11 -0.36,-1.17 0.29,-2.48 -0.25,-3.8l-1.2 0.36c-2.48,-3.64 -3.66,-4.31 -2.01,-1.2 0.54,0.99 0.29,1.43 0.65,2.35 -0.55,0.57 -1.86,-0.49 -2.43,-0.96 -0.58,-0.48 0.32,-1.38 -0.04,-2.43l-0.52 -2.31c-0.9,-0.6 0.52,2.79 -0.42,4.47 -0.25,0.29 -0.9,0.23 -1.38,0.23 -0.58,-1.03 0.31,-0.28 0.36,-2.67 0.02,-0.75 0.73,-2.45 0.15,-2.94l-0.99 4.97c-0.39,0.79 -0.8,0.38 -1.01,0.75 0.33,0.1 0.44,0.13 0.52,0.53 0.27,-0.21 0.53,-0.29 0.82,-0.44 0.11,0.13 0.13,0.1 0.15,0.36 0.4,0 0.38,0.1 0.46,-0.27 0.98,0.27 0.39,1.5 2.02,1.43 0.62,-0.02 0.41,-0.5 1.22,-0.23 0.61,0.21 0.8,0.21 1.47,0.21 1.22,2.43 0.97,-0.54 1.49,-0.71 0.82,4.4 -1.76,1.33 -3.21,1.78 0.32,0.54 0.75,-0.21 1.13,0.63 0.36,0 0.38,0.02 0.67,0.1 0.27,1.45 -0.66,4.12 -0.25,5.58 0.29,-2.86 0.03,-3.08 0.8,-3.08l0 6.67 0.76 -2.22c0.37,0.49 0.1,4.42 1.07,7.47 1.68,5.26 1.01,1.18 0.31,4.28 -0.17,0.76 -1.14,2.52 -2.41,1.51 -1.28,1.05 -0.66,-0.06 -1.41,0l0.23 1.34c0.21,0 0.67,-0.19 0.82,-0.27l2.25 2.14c0.82,-1.87 1.87,0.18 2.47,-1.34 -1.75,-1.08 -2.03,-0.97 -2.03,-1.95 5.55,-4.36 4.33,-4.27 8.39,-10.34 1.94,-2.9 5.75,-12.12 6.25,-15.65 0.06,-0.4 0.11,-0.84 0.19,-1.2l0.44 0c0.96,1.74 -0.54,7.53 -0.86,9.94l-1.03 5.37 -1.39 6.53c-0.31,1.66 -3.99,14.54 -4.8,15.06l-0.59 1.51 3.04 -11.77c-1.03,0.92 -6.87,13.28 -8.88,13.28l4.93 -7.93 4.07 -8.16c0.08,-0.32 0.06,-0.36 -0.17,-0.55 -0.04,0.38 -5.59,10.89 -7.24,11.33 -2.47,0.66 -3.24,-1.79 -3.84,-1.82 0.96,2.4 0.9,0.4 0.9,2.94l1.18 10.66c0.21,0.11 0.1,0.1 0.38,0.1 0,0.57 -0.13,0.55 -0.15,1.15l0.31 6.15c0.06,0.88 0.34,1.38 0.59,1.97l0.44 -0.1c0,-1 -1.34,-3.15 -0.46,-4.72 1.02,0.7 0.99,1.85 3.02,-1.76 2.35,-4.18 1.49,-2.29 6.29,-2.56 2.76,-0.15 1.34,0.12 4.34,-1.43l5.67 -2.41 2.58 -0.4c0.42,-0.76 1.76,-3.26 0.74,-3.29 -0.84,-0.02 -0.55,0.57 -0.75,1.36 -0.16,-0.13 -0.26,-2.2 -1.66,-1.3 -0.41,0.27 -0.47,1.77 -1.11,2.06l0.06 -1.97c-0.4,-0.25 -1.93,-0.34 -2.33,0 0.06,0.59 0.46,0.27 0.46,1.68 -0.02,1.91 0.34,1.81 -0.99,2.12 -0.8,0.17 -1.57,0.94 -2.08,0.99l-0.67 -4.72c-0.37,-1.89 -2.03,-0.94 -2.52,-4.41 -0.6,-4.26 1.48,-5.2 1.51,-10.64 0.02,-1.66 0.61,-2.86 0.23,-3.11l-1.15 3.53 -1.36 11.27c-0.22,2.59 -0.29,4.09 -2.25,6.59 -3.95,5.03 -1.65,0.02 -0.23,-7.45l2.16 -9.36 1.87 -8.88 0.88 -4.47 1.64 -8.48 1.13 3.23c0.52,0.8 0.02,3.25 -0.11,4.32l0.04 9.4c1.58,-1.29 0.33,-9.23 1.22,-9.88l0.65 5.43c0.21,-0.07 1,-1.01 0.61,-2.04zm2.98 -7.65c0.06,0.31 0.11,0.46 0.23,0.71l0.31 -0.19c-0.06,-0.73 -0.18,-0.86 -0.54,-0.52zm-11.67 -16.2c0,0.15 0.17,0.5 0.23,0.63 0.92,0 0.54,-0.65 0.06,-0.97 -0.08,0.08 -0.31,0.21 -0.31,0.36l0.02 -0.02zm131.26 67.48l0.17 0.15c0.53,-0.11 1.51,-1.41 0.88,-1.41l-1.05 1.26zm-137.62 -67.21c0,0.88 -0.13,0.69 0.23,1.34l0.46 0 0 -1.59c-0.23,0.17 -0.31,0.25 -0.67,0.27l-0.02 -0.02zm-0.67 27.95c0.18,0.85 1.11,0.73 1.72,1.24 0.13,-0.23 0.23,-0.4 0.31,-0.71 -0.82,-0.52 -0.76,0.25 -1.57,-0.46 -0.11,-0.1 -0.31,-0.29 -0.44,-0.08l-0.02 0zm3.21 -31.96c0.19,0.4 0.4,0.59 0.75,0.8 0.21,-0.48 0.11,-0.34 0.15,-0.97 0.02,-0.69 0.19,-0.27 0.31,-0.8 -0.17,-0.1 -0.29,-0.15 -0.52,-0.17 -0.21,1.03 -0.23,0.55 -0.67,1.17l-0.02 -0.02zm0.31 -5.88l1.2 -0.54c-0.04,-0.46 -0.11,-0.59 -0.38,-0.8 -0.45,0.12 -1.51,1.34 -0.82,1.34l0 0zm18.27 24.76c0.42,0.11 0.23,-0.06 0.59,-0.17l-0.46 -2.75 -0.15 2.94 0.02 -0.02zm-16.55 -16.56c0,0.63 0.02,0.61 0.23,0.97 -0.75,1.24 0.78,1.75 0.52,0.44 0.25,-0.15 0.25,-0.19 0.46,-0.36 -0.19,-0.96 -1.06,-1.13 -1.2,-1.07l0 0.02zm-5.54 28.31l0.52 0.8c0.28,-0.67 0.18,-3.03 -0.46,-3.57l-0.08 2.75 0.02 0.02zm30.76 -28.58c-0.23,1.13 -0.17,1.32 0.52,1.87 0.34,-0.36 1.03,-0.31 0.46,-1.51 -0.31,-0.66 -0.97,-0.36 -0.97,-0.36zm-7.03 13.89c0.25,-0.19 0.44,-0.27 0.67,-0.44 0,-2.29 -1.05,-2.82 -1.05,-3.82l0.36 4.26 0.02 -0zm-14.83 -17.1c0,5.38 0.69,1.62 0.9,5.18l0.44 -2.14c-2.39,-0.72 0.56,-2.99 -1.18,-3.57 -0.08,0.17 -0.15,0.27 -0.15,0.53l0 0zm15.49 11.94c0,0.61 0.19,3.95 0.82,4.45 1.46,-0.42 -0.35,-3.19 -0.69,-4.7 -0.13,0.1 -0.15,0.02 -0.15,0.27l0.02 -0.02zm79.92 -4.28c0,1.88 4.97,-2.39 2.41,-2.39 -0.18,0 -2.39,0.99 -2.39,2.41l-0.02 -0.02zm49.18 4.28c0,0.11 0.11,0.44 0.15,0.53 1.23,0.38 3.76,-2.13 2.64,-2.69 -0.75,-0.37 -2.21,0.75 -2.77,2.14l-0.02 0.02zm-152.88 10.51c0,1.52 0.61,9.91 1.89,10.34l-0.61 -4.32c-0.11,-0.94 0.23,-1.3 0.02,-2.16l-0.96 -4.57c-0.17,0.15 -0.31,0.38 -0.31,0.71l-0.04 0zm28.2 -11.14c-0.55,0 -0.11,-0.44 -0.9,-0.44 -0.21,0 -0.88,0.8 -1.49,0.8 -0.36,0 -0.13,-0.32 -0.52,-0.44 -0.6,0.6 0.39,4.48 0.97,4.55 0.22,-1.12 -0.71,-2.62 0.02,-2.29 0.94,0.44 1.13,-0.15 1.76,-0.65 1.1,0.68 0.86,-0.08 1.05,-0.08l1.18 -1.26c-0.42,-0.75 -0.5,-0.61 -0.75,-1.17 -0.44,0.27 -0.82,0.97 -1.34,0.97zm-32.25 18.07c0,1.92 0.47,2.31 0,3.5 -0.25,0.63 -0.06,3.88 1.72,4.99 1.21,-1.25 -0.38,-3.18 -0.38,-6.67 0,-0.36 -0.19,-0.52 -0.29,-0.8 -0.48,-1.32 -0.08,-2.25 -0.46,-3.19l-0.59 2.22 0 -0.04zm9.36 -30c0.77,-1.39 1.95,-0.1 1.95,-0.1 -0.17,0.73 -0.4,0.55 -1.13,0.44 -0.06,0.71 -0.13,0.67 -0.31,0.71 -0.23,-1.15 0.06,-0.73 -0.52,-1.07l0 0.02zm-1.28 -1.43c-0.4,0.88 0.11,0.75 0.46,1.15 0.42,0.52 -0.1,3.67 0.52,3.67 0.65,0 0.23,-0.34 0.46,-0.9 0.89,0.36 0.29,1.24 0.29,1.24 0.31,0.25 0.31,0.11 0.46,0.36 2.48,-2 1.13,-3.93 1.13,-4.64 0,-1.27 -1.48,-4.46 -3.38,-2.31l0.1 1.45 -0.02 -0.02zm16.24 14.79l-0.29 6.69c0,0.44 0,0.61 -0.31,0.71 -0.89,-4.51 0.21,-6.68 0.21,-7.03 0,-0.31 -0.23,-0.21 -0.29,-0.73 -0.06,-0.46 0.08,-0.69 -0.08,-1.07 -0.86,0.07 -1.53,4 -1.03,6.57 0.24,1.24 0.85,1.55 0.61,3.42 -0.08,0.59 -0.04,0.84 0.13,1.22 2.47,-0.25 1.66,-6.96 2.02,-8.45l0.08 -3.48c-1.04,0.31 -0.45,2.12 -1.07,2.14zm-21.7 51.11c2.28,0 4.05,-8.6 4.72,-9.76 0.17,-0.31 0.31,-0.71 0.13,-1.09 -0.83,0.1 -4.38,9.83 -5.75,7.09l-0.76 -3.36c-0.83,0.02 -0.17,-0.03 -0.29,1.18l0.44 4.32c0.34,1.56 1.51,1.62 1.51,1.62zm142.78 -40.33c0.86,1.95 2.98,-1.01 2.98,-1.01l6.29 -6.23c1.43,-1.38 2.03,-2.03 1.53,-2.9 -1.88,0.54 -1.91,0.84 -3.17,2.2 -0.02,0.02 -0.02,0.04 -0.04,0.04l-7.55 7.93 -0.04 -0.02zm-133.49 -16.56c-0.73,0.21 -0.27,0.61 -0.69,0.96 -0.61,0.49 -0.29,-0.57 -0.86,0.75 -0.16,0.37 -1.67,0.31 -2.01,1.18 -0.4,1.04 -2.77,1.27 -0.1,3.5 0.31,0.26 2.16,0.4 3.02,-0.55 1.95,-2.17 2.62,-2.34 1.49,-4.2 -0.44,-0.73 -0.59,-1.34 -0.86,-1.64l-0 0.02zm55.16 12.02c0,-1.91 9.73,-7.87 9.73,-5.16 0,2.29 -9.71,8.34 -9.71,5.16l-0.02 0zm-2.69 1.51c0,2.76 5.13,1.1 6.61,0.23l3.75 -2.29c5.32,-3.84 6.57,-8.22 1.57,-7.2 -4.59,0.93 -11.94,6.2 -11.94,9.32l0.02 -0.06zm40.54 -3.92c0.89,-2.46 5.6,-5.61 8.01,-5.94l1.64 -0.17c0.18,0.98 0.14,1.62 -1.64,3.02 -1.18,0.93 -3.39,2.74 -4.95,3.19l-2.52 0.38c-0.1,-0.04 -0.46,-0.4 -0.55,-0.5l0.02 0.02zm-2.62 0.97c0,3.12 6.69,0.6 7.47,0.09 2.15,-1.39 5.25,-3.49 6.73,-5.69 3.22,-4.8 -2.26,-4.12 -6.34,-2.03 -2.36,1.21 -6.42,4.13 -7.57,6.51 -0.11,0.25 -0.31,0.78 -0.31,1.15l0.02 -0.04zm-62.29 4.18c0.19,-2.02 6.69,-6.65 6.69,-7.83 0,-2.78 -7.78,5.78 -8.75,7.37 -3.28,5.36 5.43,1.22 6.27,0.44 0.23,-0.21 0.42,-0.31 0.76,-0.36 -0.04,0.61 -0.42,0.4 -0.99,1.36 -0.97,1.58 2.3,0.7 3.82,-1.78l5.75 -5.88c2.06,-1.84 2.02,-4.32 -3.88,1.01 -0.93,0.84 -8.32,6.14 -9.67,5.69l0 -0.02zm44.04 -9.17c0.01,-0.11 1.59,-1.87 0.38,-1.87 -1.6,0 -3.81,3.05 -4.91,4.07l-5.73 6c0.77,1.78 3.14,-1.03 4.76,-2.18l6.74 -4.97c0.95,-0.53 2.88,-1.69 3.44,-0.78l-6.1 6.53c-1.51,1.85 0.5,1.52 1.62,0.61 0.57,-0.46 9.53,-8.31 6.55,-9.57 -2.42,-1.03 -6.06,2.18 -6.76,2.18l0 -0.02zm75.2 -7.83c-1.32,0 -0.36,0.78 -2.79,0.97l-4.53 0.55c-1.24,0.32 -2.64,0.13 -3.46,1.05 -0.34,0.38 -0.55,1.26 0.06,1.51l6.88 -1.17 -8.96 9.44 -1.68 1.74 -5.35 5.58c0.81,1.86 2.78,-0.62 3.65,-1.55 0.86,-0.86 1.76,-1.62 2.54,-2.58 0.02,-0.02 0.02,-0.04 0.04,-0.04l6.32 -6.48 5.22 -5.25c1.45,-1.69 1.85,-1.26 5.66,-1.72l3.84 -0.52c0.63,-0.19 2.6,-2.06 0.88,-2.06l-7.45 0.94c-0.34,-0.08 -0.52,-0.38 -0.86,-0.38l0 -0.04zm-107.09 18.88c2.72,0 7.59,-2.69 9.92,-4.28 7.34,-5.02 3.07,-5.06 1.45,-3.06 -0.88,1.08 -12.94,8.85 -10.68,3.34 1.39,-3.38 8.71,-9.47 12.06,-11.9 0.67,-0.48 6.32,-3.79 6.32,-1.72 0,1.92 -1.95,1.93 -0.95,3.55 0.44,-0.25 1.33,0.34 3.15,-2.75 0.26,-0.44 0.91,-2.55 -0.1,-3.32 -1.89,-1.45 -7.7,1.82 -9.55,3.32l-5.27 4.18 -6.42 6.63 -1.95 3.04c-0.78,2.04 0.4,3 2.06,3l-0.04 -0.04zm45.8 -14.06c-0.92,0 -1.66,0.86 -2.16,1.09 -0.5,0.23 -1.66,0.08 -2.67,0.55 -0.67,0.31 -1.7,1.93 -0.4,1.93 0.38,0 0.63,-0.27 0.75,0.27 -0.94,0.25 -3.12,3.66 -4.24,3.84 -0.93,0.15 -2.87,0.79 -1.99,2.2 -0.48,1.24 -9.21,8.35 -4.78,7.03l7.85 -7.6c0.88,-0.58 8.15,-0.39 6.67,-3.1 -1.71,0 -3.67,0.84 -4.18,0.44l3.97 -3.92 6.51 -1.4c1.13,-0.1 0.45,0.34 -0.9,1.72l-6 6.48c-0.11,1.32 1.74,0.29 2.96,-1.03l6.84 -7.05c0.92,-0.76 1.36,-1.2 0.99,-2.12 -1.1,-0.31 -1.87,0.81 -2.1,0.9 -0.11,-0.27 -0.1,-0.57 -0.23,-0.9l-6.23 1.07c-0.19,-0.1 -0.52,-0.46 -0.67,-0.46l0 0.06zm36.97 7.2c-0.02,-0.13 0.25,-1.89 -1.01,-1.82 -1.8,0.1 -2.91,1.28 -3.71,1.28 -0.52,-2.6 -3.84,1.62 -4.76,2.56l-6.17 6.4c-0.73,0.87 0.81,1.62 2.29,-0.11l3.36 -2.96 2.96 -2.29c0.02,-0.02 4.68,-3.53 4.32,-2.29l-5.6 6.08c-2.4,2.43 -0.3,2.62 1.3,0.99 1.19,-1.21 9.49,-7.88 10.34,-7.78l0.38 0.1 -6.67 7.49c0,1.57 1.83,0.16 1.83,0.11l2.01 -1.99c1.1,-1.3 9.12,-8.02 3.67,-8.02l-4.54 2.25zm-93.08 -11.39c-0.78,0 -1.77,1.54 -2.54,1.6l-4.26 1.26c-0.76,0.96 -0.67,0.48 -0.46,1.49 2.1,0 2.21,-0.8 2.62,-0.1 -0.96,0.29 -6.23,7.23 -8.01,7.41 -1.87,0.19 -1.34,0.61 -2.25,1.34 0.13,0.67 0,0.73 0.59,0.9l0 0.17c-0.84,0.27 -3.85,4.57 -4.91,4.76 -2.8,0.51 -2.74,2.25 -1.83,2.29l4.99 -1.2c1.61,-0.47 8.21,-0.91 9.11,-2.16 1.83,-2.53 -3.65,-0.66 -6.57,-0.08 -3.27,0.65 -3.09,1.13 0.48,-2.66 2.69,-2.85 1.48,-1.26 4.8,-2.48 0.73,-0.27 5.8,-0.48 5.52,-2.31 -0.18,-1.16 -2.36,0.09 -3.38,0.17 -2.66,0.2 -1.24,0.73 -2.69,0.36l7.26 -7.3c2.76,-1.3 10.6,-1.41 10.6,-3.4 0,-1.93 -7.74,1.65 -8.41,0.65 -0.19,-0.29 -0.25,-0.75 -0.73,-0.75l0.08 0.02zm84.54 2.94c-0.33,-1.5 -1.29,-0.93 -2.62,0.27 -0.82,0.74 -3.45,0.38 -4.93,1.59 -1.28,1.03 -0.32,1.53 -0.06,1.53 0.54,0 1.88,-0.71 2.25,-0.19l-6.95 7.05c-0.93,0.69 -1.44,-0.21 -2.81,1.18 -0.02,0.02 -0.02,0.04 -0.04,0.04 -0.47,0.54 -0.5,1.17 0.15,1.36l-4.26 4.55c-1.17,0.92 -2.04,0.46 -2.75,1.38 -0.23,0.31 -0.52,1.32 0.34,1.32l12.84 -2.6c1.74,-0.55 2.88,-2.68 -0.63,-1.72 -0.71,0.23 -1.89,0.11 -2.45,0.38l-4.62 1.09 3.92 -4.36c1.2,-1.17 6.95,-1.73 7.99,-2.16 0.53,-0.23 1.15,-0.78 1.2,-1.59 -1.06,-0.85 -5.11,1.11 -5.98,0.63l1.47 -1.7c0.02,-0.02 0.04,-0.02 0.04,-0.04l2.98 -2.94c2.63,-2.99 1.99,-2.57 5.12,-3.15 1.37,-0.26 6.9,-1.11 7.7,-1.99 2.52,-2.75 -4.21,-0.6 -4.76,-0.42l-3.13 0.55 -0.02 -0.06zm-13.53 54.3l10.95 -24.88c0.8,-1.17 8.09,-0.36 8.12,-0.34l-8.73 20.67c-0.43,1.68 -1.7,4.49 -3.36,5.1 -0,0 -7.79,0.66 -6.97,-0.55zm17.5 15.76l1.43 -1.7c1.03,1.31 1.02,1.56 2.25,0.63 0.19,0.15 0.31,0.34 0.38,0.63l-2.62 0.08 -1.45 0.36zm6.95 -1.51c1.82,0 0.6,-0.14 1.49,-1.07l1.13 0.8 -2.64 0.54 0 -0.27 0.02 -0zm-1.13 -0.63l0.38 -0.97c1.21,0.36 0.75,1.24 -0.38,1.24l-0 -0.27zm5.9 -0.1l1.72 -1.76c0.31,0.61 -0.92,2.21 -1.72,1.76zm5.77 0.44l0.82 -1.97c0.73,-1.17 0.42,-1.13 1.43,-1.11l-1.8 3.09 -0.46 0 0 -0.02zm-88.29 -5.6l7.05 -16.03 -1.45 15.9c-0.09,1.21 -1.43,0.38 -4.18,0.38 -0.17,0 -1.34,0.27 -1.34,-0.21l-0.08 -0.04zm24.55 0.71l1.57 -4.18 5.62 -12.42c2.73,1.12 7.35,-0.9 6.25,1.2l-6.21 14.39c-0.52,1.67 -1.26,1.09 -5.67,1.09l-1.57 0 0.02 -0.08zm-78.89 -55.37c0,-0.32 0.08,-0.4 0.23,-0.53l0.44 4.28c-0.79,-0.09 -0.64,-2.74 -0.67,-3.75l0 0zm-4.8 -2.68l0.15 0 0.21 6.5c0,0.63 0.31,1.53 -0.31,1.68l-0.06 -8.2 -0 0.02zm-6.21 -2.33c0.11,0.96 0.1,-0.08 0.08,1.07l-0.15 0c-0.08,-0.43 -0.79,-1.17 -0.44,-1.87 0.42,0.13 0.5,0.46 0.53,0.8l-0.02 -0zm2.69 -0.44c1.24,0 0.9,-1.36 1.64,0.1 0.17,0.34 0.34,0.27 0.36,0.71 -0.42,-0.02 -1.2,-1.34 -1.2,-0.36l0.75 4.01 0.59 1.51 -0.46 0 -1.07 -4.6c-0.25,-0.46 -0.15,-1.01 -0.67,-1.17l0 -0.17 0.06 -0.02zm22.22 0.63c0,-0.63 0.86,-2.09 0.61,-0.61 -0.27,1.61 0.66,5.43 0.71,6.67l0.08 4.45 -0.23 0c-0.17,-2.45 -0.61,-1.97 -0.8,-3.59l-0.11 -4.32c-0.04,-0.63 -0.31,-1.36 -0.31,-2.58l0.06 -0.02zm-18.7 2.14l-0.31 0 -0.23 -2.22c0.29,-0.23 0.1,-0.25 0.52,-0.27 -0.02,-0.69 -0.21,-0.75 -0.31,-1.17 0.37,-0.11 1.02,-0.98 1.43,-0.34 -1.21,0.32 -1.11,3.12 -1.11,3.99zm-12.95 -0.78c-0.15,-0.59 -0.57,0.02 -0.73,-0.82 -0.71,0 -0.59,-0.19 -0.59,-1.6 0,-1.97 -0.29,-0.99 -0.31,-1.97 0.68,0.21 1.5,2.97 2.75,3.99l0.67 -1.78c0.32,0.27 0.13,4.96 -1.18,5.62 -0.46,0.23 -0.38,0.5 -0.76,0.25 0.62,-1.25 0.06,-1.12 0.06,-2.04 0,-0.44 0.13,-1.39 0.06,-1.68l0.04 0.04zm39.45 -3.67l-0.59 -0.63 0.52 0c0.02,0.34 0.08,0.23 0.08,0.63zm-37.2 -1.51c-0.02,0.38 -0.25,0.9 -0.46,1.07 0,-0.4 -0.11,-0.69 -0.15,-1.07l0.61 0zm40.33 0c0.76,0 0.91,-0.75 1.34,-0.54 -0,0 -0.86,1.69 -1.36,0.54l0.02 0zm-47.9 -6.23l-0.08 -1.41 0.67 1.53 0.59 -0.44c0.46,2.19 -0.02,0.22 -0.15,1.68 0.44,-0.04 0.08,-0.17 0.59,-0.17 0,1.49 -1.73,1.34 0.53,3.55 0.48,0.46 0.32,0.55 1.26,0.55 0,0.71 0.13,1.28 0,1.6l-0.8 -1.11 -1.3 -1.66 -0.74 -1.51c0,-0.98 -0.61,-1.03 -0.29,-2.41 -0.17,-0.13 -0.08,-0.11 -0.31,-0.17l0.02 -0.04zm29.56 -6.23c0.37,0.29 1.02,1.75 0,0.9l0 -0.9z"/>
  <path class="fil2" d="M79.85 82.55l8.67 -20.06 2.18 -4.55c0.6,1.04 -1.05,14.04 -1.28,16.66 -0.76,8.74 -1.63,7.94 0.69,8.16 6.23,0.59 4.19,0.33 6.59,-4.2l8.41 -19.56 9.15 -21.32 -5.31 -0.11 -4.79 11.35 -7.28 16.7c-0.27,0.78 -0.11,0.38 -0.59,0.63l3.15 -28.91 -3.92 -0.27c-2,-0.02 -2,1.77 -3.21,4.47l-12.95 29.9 -4.38 10.39c-0.59,1.27 1.02,0.51 3,0.78 0.48,0.06 1.32,-0.04 1.91,-0.04l-0.04 -0.02zm-10.07 -45.91l-3.5 8.04 19.87 0.59c0.84,-0.06 3.35,-6.57 3.8,-7.74 0.38,-0.98 -1.99,-0.43 -3.65,-0.59 -2.6,-0.23 -5.18,-0.27 -7.8,-0.27 -2.86,-0.08 -5.32,-1.17 -8.73,-0.04zm-19.41 44.76c0,0.59 0.31,0.5 0.73,0.55l18.49 0.42c1.8,0.13 1.49,-2.11 2.56,-3.63l1.62 -4.39c-0.47,-0.33 -14.43,0.13 -14.65,-0.76l3.15 -7.76c1.88,-3.23 -1.04,-2.35 6.63,-2.35 1.8,0 1.37,0.25 3.4,-4.66 1.99,-4.82 1.88,-2.94 -3.27,-3.46 -1.49,-0.13 -1.26,0.11 -1.95,-0.44l2.16 -5.16 -5.35 0.04 -13.58 31.58 0.06 0.02zm88.35 -42.19c-0.23,0.02 -0.29,0.06 -0.48,0.32 -0.25,-1.46 -3.36,0.46 -5.14,0.25 -0.17,-0.02 -0.5,-0.19 -0.78,0.02 1.41,0 -0.34,2.12 -1.38,5.12l-4.32 9.99c-0.84,2.12 -0.67,1.55 -2.73,1.55 -10.07,-0.1 -7.59,0.22 -6.53,-3.25l6.48 -15.09c0.01,-0.87 -4.49,-0.54 -5.01,-0.54l-10.49 24.07 -9.09 21.27c6.75,0.67 4.91,0.23 7.09,-4.2l5.79 -13.64c0.72,-1.29 7.54,-0.19 9.13,-0.46 2.3,-0.38 -1.01,4.31 -1.51,6.13l-4.62 10.83c-0.76,2 -1.99,1.87 3.78,1.91 1.33,0.01 1.94,-3.11 2.71,-4.78l11.83 -27.19 5.27 -12.32zm12.11 43.04l0.57 -0.57c0.1,0.17 0.13,0.25 0.23,0.44 2.28,0 0.52,-1.33 2.71,-1.61 0.06,-0.01 2.82,0.89 3.11,0.34l-0.38 0 -0.21 -0.36 5.62 -12.44 8.14 0.1c1.93,0.43 -0.3,4.63 -0.82,5.75l-2.43 5.94c0.13,-0.02 0.15,-0.15 0.42,-0.23l0 -0.63c0.32,-0.19 0.29,0.06 0.38,-0.36l0.15 0c0.15,0.69 1.34,-0.71 2.48,2.66 0.11,0.34 0.04,0.13 0.42,0.02 0.9,0.78 0.21,0.69 0.75,0.9 -0.4,-0.8 1.24,-3.84 1.72,-4.91 0.96,-2.13 4.62,-10.19 4.37,-11.88 -0.1,-0.63 -0.32,-0.5 -0.32,-1.3 2.25,-1.84 2.26,-2.21 4.01,-5.48l5.27 -12.44c0.77,-1.51 1.69,-5.4 0.5,-6.36 -1.93,-1.55 -12.2,-0.87 -16.34,-1.17 -0.48,-0.04 -1.03,-0.13 -1.47,-0.13l-3.17 7.32c-0.53,1.56 -1.35,0.76 7.55,1.17 6.05,0.28 7.46,-0.75 5.62,4.09 -0.62,1.64 -2.94,7.46 -4.55,8.25 -1.9,0.94 -6.35,0.38 -8.81,0.38 -0.78,-1.37 3.29,-7.03 2.71,-7.93l-5.01 0.02 -8.79 19.95 -4.45 10.49zm-95.85 -45.36l-11.42 1.99c0.36,0 0.44,0.04 0.69,0.17l-3.21 6.42c-0.9,3.1 -8.77,16.21 -2.56,17.12 3.51,0.51 9.23,-0.36 9.86,0.99 0.66,1.43 -2.76,7.52 -3.11,8.27 -0.76,1.6 -1.87,1.78 -3.44,1.78l-12.65 -0.27c-4.36,9.37 -4.25,8.1 -0.23,8.1 4.52,0 14.88,1.4 17.25,-1.57 4.42,-5.52 4.56,-9.1 6.17,-11.69l3.15 -8.9c0.76,-5.54 -2.46,-4.15 -5.67,-4.6 -4.91,-0.71 -9.64,3.09 -3.34,-8.94 2.1,-4.01 15.62,-0.09 16.45,-1.91l3.34 -7.8c-0.29,0 -0.17,-0.02 -0.38,0.1l-0.08 -0.36 -0.15 0.36c-5.4,0 -5.08,-0.85 -10.66,0.74zm79.92 33.4l9.97 -22.43c1.26,-1.95 3.89,-1.3 7.89,-1.3 5.44,0 1.95,3.58 0.69,7.41l-8.62 19.7c-1.75,2.51 -1.53,2.21 -7.74,1.97 -4.48,-0.17 -3.98,-0.17 -2.16,-5.31l-0.04 -0.04zm15.46 -32.73c-0,0 -1.32,1.26 -2.46,0.48 -0.25,-0.17 -0.44,-0.46 -0.67,-0.55 0.11,0.21 0.27,0.5 0.38,0.73 -1.93,1.21 -4.32,0 -7.91,8.65l-6.84 15.74c-1.14,3.37 -7.13,15.03 -7.09,18.11 0.03,2.74 1.67,2.87 4.74,2.87 4.09,0 12.73,1.59 15.42,-2.06l0.55 -0.67c0.02,-0.02 0.02,-0.04 0.04,-0.04 2.69,-3.3 10.64,-24.08 11.83,-25.79l4.8 -11.84c1.31,-6.2 -3.86,-4.31 -9.34,-4.78 -3.69,-0.31 -3.95,0.38 -3.44,-0.84z"/>
 </g>
</svg>
