<?xml version="1.0" encoding="UTF-8"?>
<!DOCTYPE svg PUBLIC "-//W3C//DTD SVG 1.1//EN" "http://www.w3.org/Graphics/SVG/1.1/DTD/svg11.dtd">
<!-- Creator: CorelDRAW -->
<svg xmlns="http://www.w3.org/2000/svg" xml:space="preserve" width="63.9206mm" height="28.3959mm" version="1.1" style="shape-rendering:geometricPrecision; text-rendering:geometricPrecision; image-rendering:optimizeQuality; fill-rule:evenodd; clip-rule:evenodd"
viewBox="0 0 154.3 68.55"
 xmlns:xlink="http://www.w3.org/1999/xlink"
 xmlns:xodm="http://www.corel.com/coreldraw/odm/2003">
 <defs>
  <style type="text/css">
   <![CDATA[
    .fil0 {fill:black}
    .fil8 {fill:#0D6790}
    .fil10 {fill:#0D6892}
    .fil18 {fill:#199C96}
    .fil19 {fill:#199D96}
    .fil15 {fill:#1AA7A0}
    .fil11 {fill:#249299}
    .fil6 {fill:#4B8973}
    .fil23 {fill:#4D9177}
    .fil1 {fill:#665B55}
    .fil7 {fill:#8A101B}
    .fil13 {fill:#8C101B}
    .fil3 {fill:#9A8A73}
    .fil26 {fill:#9C262A}
    .fil4 {fill:#ABFBF5}
    .fil5 {fill:#B6794E}
    .fil14 {fill:#C8000E}
    .fil17 {fill:#CC011F}
    .fil22 {fill:#D26419}
    .fil9 {fill:#DC8143}
    .fil25 {fill:#DE8144}
    .fil27 {fill:#E5A789}
    .fil20 {fill:#EAAB8E}
    .fil21 {fill:#ED9243}
    .fil12 {fill:#F17915}
    .fil24 {fill:#F3D0BD}
    .fil16 {fill:#FDFDFD}
    .fil2 {fill:white}
   ]]>
  </style>
 </defs>
 <g id="Camada_x0020_1">
  <metadata id="CorelCorpID_0Corel-Layer"/>
  <g id="_2015385482320">
   <path class="fil0" d="M58.81 65.55c0.21,-0.74 0.55,-0.55 1.31,-0.43 0.81,0.13 0.99,-0.13 1.61,-0.07 0.19,0.22 0.32,0.51 0.48,0.72 0.8,0.2 1.15,0.98 2.5,0.29 1.18,-0.6 1,-0.26 1.57,-1.01 0.24,-0.32 0.16,-0.3 0.48,-0.38 0.28,0.78 0.3,1.09 0.74,1.74 0.52,0.77 0.62,0.76 1.4,1.19 1.14,0.62 3.02,-1.39 3.06,-1.63 0.24,-0.61 0.07,-0.15 0.04,-0.74 0.14,-0.08 0.55,-0.33 0.74,-0.36 0.76,-0.1 0.14,0.2 0.94,0.23 0.58,0.02 1.6,-0.24 2.05,-0.29 0.14,0.63 0.11,0.64 0.09,1.26 0.2,0.35 1.07,1.07 1.77,0.98 0.95,-0.13 1.51,-2.22 2.47,-3.18 0.87,-0.86 0.93,-1.25 1.23,-1.54 0.64,0.76 -0.17,0.34 2.08,0.9 0.01,0.92 -0.04,1.88 0.43,2.51 0.31,0.41 1.24,1.06 1.81,1.23 0.59,0.18 1.49,-0.63 1.82,-0.94 1.08,-1.01 1.01,-0 2.3,-0.47l0.83 -1.17c0.94,-1.53 0.92,-2.26 1.18,-2.72 0.13,-0.23 0.27,-0.31 0.42,-0.56 0.13,-0.23 0.18,-0.48 0.31,-0.71l-0.09 1.68 -0.41 -0.42c-0.12,1.51 1.01,2.8 2.5,2.62 0.69,-0.36 3.08,-6.66 3.84,-8.41 0.22,-0.5 0.43,-0.91 0.62,-1.44 0.14,-0.38 0.33,-1.19 0.58,-1.46 0.28,1.14 0.05,2.38 -0.27,3.39 -0.34,1.08 -0.45,1.98 -0.85,3.05 -0.2,0.52 -0.81,2.64 -0.71,3.17 0.07,0.41 0.51,0.99 0.74,1.22 0.47,0.46 0.9,0.47 1.66,0.41 0.74,-0.37 2.04,-4.37 2.21,-4.59 0.29,-0.37 0.86,-0.74 1.33,-0.62 0.97,0.24 -0.43,2.48 -0.38,3.37 0.05,0.86 1.76,2.88 2.75,1.49 0.75,-1.04 0.53,-0.75 0.98,-2.17 0.31,-0.96 1.02,-2.18 1.19,-2.98l0.38 -0.66c0.67,-1.33 0.04,-1.2 0.95,-2.95 0.13,-0.25 0.21,-0.52 0.35,-0.81 0.18,0.29 0.37,0.58 0.58,0.88 -0.29,-0.02 -0.56,-0.01 -0.74,0.22 -0.22,0.29 -0.38,1.45 -0.29,1.88 0.08,0.34 0.6,1.1 0.83,1.36 0.39,0.43 1.22,0.29 1.84,0.35 -0.03,0.36 -0,0.13 -0.27,0.38 -0.5,0.47 -0.84,0.72 -0.97,1.51 -0.13,0.82 -0.6,2.15 -0.49,2.73 0.75,3.87 6.24,3.67 8.87,1.88 0.79,-0.54 1,-1.03 1.63,-1.74 0.6,-0.68 0.71,-1.15 0.94,-1.52 4.04,1.37 7.54,1.95 11.23,1.85 1.7,-0.04 3.38,-0.22 4.83,-0.53 0.84,0.72 2.82,1.84 3.83,2.26 0.58,0.24 2.02,0.59 2.76,0.64 1.43,0.09 4.24,-0.71 4.8,-1.98 0.47,-1.06 -0.23,-1.91 -0.67,-2.52 -0.68,-0.95 -1,-2.07 -2.07,-2.92 -0.45,-0.36 -0.7,-0.26 -1.13,-0.51 0.55,-0.36 2.05,-2.05 2.36,-2.48 0.8,-0.58 2.55,-3.31 3.18,-4.33 0.3,-0.49 0.46,-1.22 0.73,-1.66 0.24,-0.4 0.27,-0.24 0.47,-0.84 0.72,-2.18 1.56,-4.2 1.9,-6.53 0.33,-2.22 0.48,-7.23 0.19,-9.44 -0.2,-1.5 -0.39,-2.74 -0.62,-4.28 -0.35,-2.44 -0.83,-1.77 -0.9,-4.04 0.8,-2.33 -0.72,-2.68 -1.48,-3.43l1.53 -2.03c0.13,-0.27 0.15,-0.81 0.21,-1.15 -0.49,0.02 -1.17,0.04 -1.64,0.09 -0.89,0.08 -0.28,0.6 -1.23,0.35l-0.62 0.01 0.02 -1.22c-0.21,-1.06 -0.97,-0.77 -1.88,-0.64 -0.05,0.08 -0.08,0.15 -0.11,0.19 -0.29,0.08 -0.62,0.15 -0.96,-0.01 -0.48,-0.22 -0.98,-0.9 -1.32,-1.56 -0.35,-0.66 -0.55,-1.3 -1.17,-2.07 -0.62,-0.76 -1.66,-1.65 -2.73,-2.28 -0.76,-0.44 -1.53,-0.76 -2.89,-0.84l-0.85 -1.89c-1.94,-3.08 -4.52,-4.97 -8.71,-4.91 -1.34,0.02 -2.85,0.02 -4.13,0.38 -1.85,0.53 -4.04,2.59 -4.87,4.25 -0.49,0.98 -0.96,2.06 -1.45,3.09 -0.46,0.12 -0.52,-0.02 -0.92,0.17 -1.79,0.83 -1.59,0.98 -2.07,1.26 -0.82,-0.32 -0.71,-1.14 -1.11,-1.9 -1.1,-2.06 -1.61,-3.86 -3.56,-5.55 -0.14,-0.12 -0.28,-0.22 -0.41,-0.35 -0.36,-0.38 -0.8,-0.67 -1.41,-0.87 -0.93,-0.3 -1.35,-0.71 -2.46,-0.47 -1.17,0.25 -2.33,0.67 -3.3,1.25 -0.5,0.29 -0.51,0.45 -0.84,0.73 -0.09,-0.04 -1.93,-1.79 -2.98,-2.34 -1.06,-0.55 -3,-1.14 -4.21,-1.11 -1.12,0.03 -3.25,0.74 -4.09,1.23 -0.85,0.5 -2.45,1.7 -2.7,2.64 -1.17,-0.69 -0.83,-1.1 -2.75,-1.29 -1.27,-0.13 -2.2,-0.03 -3.07,0.66 -1.81,1.44 -1.47,3.97 -0.93,5.99 0.55,2.07 1.26,4.23 1.23,6.62 -0.02,1.69 -0.45,5.49 -1.47,6.36 -0.84,-0.87 -1.71,-4.02 -1.79,-5.49 -0.21,-4.04 2.06,-9.91 -0.86,-12.75 -0.59,-0.57 -1.36,-1.09 -2.34,-1.35 -0.52,-0.14 -1.1,-0.09 -1.64,-0.03 -1.02,0.11 -0.73,0.34 -1.4,0.63 -0.28,0.02 -3.23,-3.04 -6.03,-2.39 -2.37,0.55 -3.58,1.56 -5.03,3.53 -3,4.07 -3.02,9.01 -3.19,13.96l-2.47 -0.41c0.21,-3.61 3.86,-14.99 1.71,-18.16 -0.42,-0.62 -1.5,-1.68 -2.45,-1.8 -1.02,-0.13 -2.69,0.58 -3.14,1.1 -0.14,0.16 -0.26,0.42 -0.39,0.58 -0.34,0.43 -0.69,0.73 -0.93,1.25 -0.14,0.32 -0.08,0.41 -0.31,0.74 -0.44,-0.07 -1.26,-1.34 -2.41,-1.91 -1.05,-0.52 -2.39,-0.7 -3.65,-0.23 -0.46,0.17 -0.7,0.71 -1.14,1.03 -0.32,0.23 -0.37,0.16 -0.66,0.42 -0.57,0.52 -0.96,1.22 -1.3,1.95 -0.22,0.47 -0.34,1.29 -0.69,1.6 -0.44,-0.12 -0.41,-0.29 -0.68,-0.75 -0.58,-0.97 -1.52,-1.54 -2.25,-2.31 -0.42,-0.44 -0.28,-0.3 -0.81,-0.6 -1.33,-0.75 -1.13,-0.83 -3.02,-1.54 -1.57,-0.59 -3.33,-0.8 -5.17,-0.74 -1.87,0.06 -3.17,0.31 -4.33,1.69 -0.52,-0.1 -1.39,-0.75 -2.14,-1.02 -1.73,-0.62 -3.21,0.16 -4.33,1.37 -1.2,1.29 -0.98,1.48 -1.34,1.91 -1.22,-0.82 -1.43,-1.8 -3.99,-2.83 -1.41,-0.57 -1.29,-0.44 -2.95,-0.47 -1.33,-0.03 -1.78,0.09 -2.89,0.53 -4.77,1.91 -6.95,8.46 -7.22,13.52 -0.28,5.28 0.37,9.5 3.34,13.81 1.6,2.32 2.01,1.18 0.8,2.9 -1.77,2.53 -2.82,6.07 -2.96,9.21 -0.21,4.74 0.83,7.97 3.07,10.84 1.63,2.08 4.63,4.77 8.41,5.47 0.49,0.09 1.12,0.07 1.53,0.2 0.75,0.25 0.38,0.26 1.44,0.25 0.82,-0.01 2.51,-0.04 3.11,-0.32l2.31 -1.14c0.53,-0.32 1.32,-1.5 1.74,-1.76 0.42,0.26 -0.01,0.22 0.63,0.49 2.49,1.06 8.35,-0.21 9.27,-0.87 0.64,-0.46 1.42,-0.73 2.09,-1.16 2.59,-1.67 0.58,0.06 5.39,1.23 1.94,0.47 3.19,-1.15 4.18,-1.46 -0.26,0.35 -0.25,0.04 -0.51,0.62 -0.19,0.42 -0.23,0.5 -0.45,0.85 -0.31,0.49 -0.62,1.16 -0.86,1.74 -0.63,1.5 -1.09,2.68 0.54,3.35 0.05,1.97 -1.45,4.83 -0.84,6.6 0.36,1.03 1.71,1.26 2.64,0.53 0.62,-0.49 1.7,-1.75 1.99,-1.94 1.22,0.72 1.17,1.73 3.73,0.97 1.51,-0.45 2.14,-2.54 2.81,-2.06 0.38,0.46 -0.06,1.88 0.27,2.54 0.32,0.63 0.99,0.94 1.65,1.28 1.42,0.74 2.77,-0.83 3.43,-1.93zm31.59 0.85c0.14,0.99 1.26,2.24 2.26,2.14 1.34,-0.14 3.1,-2.25 1.13,-3.69 -0.41,-0.3 -0.79,-0.63 -1.41,-0.76 -1,-0.21 -2.2,0.8 -1.98,2.3zm5.53 -0.54c0.05,0.69 0.12,1.21 0.54,1.63 0.24,0.24 0.84,0.69 1.22,0.84 0.73,0.29 1.12,0.05 1.61,-0.3 0.56,-0.4 0.69,-0.41 0.74,-1.31 0.13,-2.22 -2.35,-3.3 -3.34,-2.16 -0.38,0.44 -0.82,0.52 -0.76,1.3zm5.59 0.33c0.03,0.15 0.19,0.56 0.25,0.78 0.12,0.39 0.1,0.53 0.36,0.72l1.4 0.69c0.4,0.04 1.41,-0.31 1.59,-0.49 0.34,-0.35 0.47,-0.99 0.49,-1.59 0.1,-2.73 -4.65,-2.92 -4.09,-0.11z"/>
   <path class="fil1" d="M140.39 18.98l0.55 -0.1c0.33,0.37 0.08,0.39 0.55,0.55 0.41,-0.99 -0.46,-0.94 -0.87,-1.4l-0.85 -1.08c-0.29,-0.3 0.04,-0.09 -0.36,-0.26 0.12,1.24 -0.01,1.95 0.99,2.29z"/>
   <path class="fil2" d="M151.45 24.49l0.53 -0.07 -0 -1.08c-1.72,-1.13 -1.69,-0.71 -2.08,-0.46 -0.63,0.41 -1.81,-0.34 -2.54,0.27 -0.24,0.28 -0.2,0.6 -0.28,1.06 0.08,0.31 -0.3,0.32 0.89,0.37 0.93,0.04 2.7,0.11 3.48,-0.08zm-31.38 28.17c0.38,0.01 0.25,0.23 0.42,0.19 -0.38,-0.69 0.17,-1.38 -0.32,-2 -0.31,-0.4 -0.8,-0.85 -1.51,-1.01 -0.04,2.11 0.55,1.46 0.76,2.17 0.27,0.89 -0.34,1.49 -0.85,1.9 -0.2,0.16 -0.7,0.52 -0.53,0.69 0.44,0.43 1.58,-0.05 2.02,-1.94zm-8.5 5.43c0.28,-0.27 0.14,-0.02 0.29,-0.35 -0.31,-0.12 -0.56,-0.11 -0.83,-0.34 0.12,-0.16 0.12,-0.15 0.29,-0.33 0.03,-0.03 0.13,-0.13 0.17,-0.17l0.13 -0.13c0.02,-0.02 0.04,-0.04 0.07,-0.06 0.23,-0.33 0.33,-0.6 0.86,-0.69 0.57,-0.1 0.98,0.13 1.24,-0.35 -0.16,-0.17 0.02,-0.05 -0.21,-0.15l-0.82 -0.09c-2.04,0.02 -1.41,0.17 -1.92,0.49 -0.33,0.21 -0.35,0.11 -0.7,0.4 -0.11,1.1 0.54,1.59 1.45,1.77zm6.8 -0.47c0.53,0.05 0.41,0.28 1.15,0.05 0.3,-0.09 0.76,-0.15 0.94,-0.27 0.51,-0.43 0.14,-2.31 -2.83,-1.94 -0.88,0.11 -1.14,0.05 -1.25,0.41 0.68,0.43 2.28,-0.32 2.66,0.87 -0.59,-0.11 -0.47,-0.27 -1.23,-0.13 -0.74,0.13 -0.81,0.05 -1.41,-0.14l0.07 0.78c0.25,0.11 0.75,0.32 0.93,0.37 0.48,0.15 0.49,-0.05 0.97,-0.01zm-3.02 -0.3c0.77,-0.21 0.21,-0.79 0.39,-1.84l-0.73 0.09c-0.06,0.66 -0.27,1.32 0.34,1.75zm-1.52 -0.34c-0.15,-0.29 -0.44,-0.25 -0.86,-0.24 -0.34,0 -0.77,-0 -1.05,0.08 -0.1,0.53 0.07,0.11 0.57,0.61l0.15 0.18c0.54,-0.13 1.29,-0 1.19,-0.63zm-1.13 6.15l1.15 0.53c1.11,0.15 3.19,-0.4 3.64,-1.23 1.37,-0.59 -0.32,-3.13 -3.23,-3.01 -1.8,0.07 -2.81,1.6 -2.48,2.94 0.13,0.54 0.53,0.63 0.92,0.77zm4.27 2.39c0.28,-0.45 -0.08,-0.25 0.47,-0.5 0.23,-0.1 0.38,-0.12 0.61,-0.26 0.45,-0.25 0.72,-0.49 1.03,-0.81 1.21,-1.22 0.7,-0.73 1.66,-2.03 0.54,-0.73 0.97,-1.28 1.53,-2.16 0.5,-0.78 1.15,-1.47 0.95,-2.67 -0.67,0.01 -0.96,0.6 -1.27,1.16 -0.35,0.63 -0.64,0.95 -1.01,1.49 -0.11,0.15 -0.16,0.23 -0.28,0.37 -1.17,1.31 -1.21,5.01 -7.25,4.52 -1.66,-0.14 -1.08,-0.55 -1.65,-0.8 -0.55,0.64 1.3,1.39 1.8,1.64 0.61,0.3 2.65,0.13 3.41,0.05zm24.42 -7.61c0.75,-0.35 0.84,0.21 1.55,0.08 0.01,-0.43 -0.12,-0.42 -0.54,-0.53l-0.15 -0.83c-0.47,-0 -0.49,-0 -0.59,0.49 -0.13,0.63 -0.05,0.35 -0.27,0.79zm-0.68 -6.25c-0.26,-0.32 -0.1,-0.3 -0.41,-0.55 0.04,0.6 0.1,0.8 0.39,1.23 0.15,0.22 0.16,0.24 0.29,0.47 0.22,0.38 0.1,0.27 0.41,0.37 0.12,-0.47 0.1,-0.45 -0.16,-0.77 0.18,-0.23 0.2,-0.22 0.17,-0.47 -0.5,-0.1 -0.36,0.13 -0.69,-0.28zm-4.16 0.85l-0.04 -1.35c-0.97,0.27 -1.45,1.84 -0.66,3.31 0.3,0.55 0.57,0.93 1,1.27 1.18,0.94 0.66,0.94 1.18,1.1l0.2 -1.04c-0.18,-0.17 -0.56,-0.2 -0.97,-0.47 -1.01,-0.67 -1.12,-1.68 -1.29,-2.6l0.59 -0.22zm-1.14 7.56c0.33,0.23 0.55,0.51 0.86,0.8l1.72 1.32c0.34,0.26 0.6,0.45 0.8,0.78 0.53,0.05 0.58,0.42 1.06,0.73 0.99,0.65 2.56,1.34 3.8,1.4 1.32,0.06 3.16,0.08 4.19,-1.02 0.32,-0.34 0.68,-0.51 0.68,-1.02 -0.44,0.06 -1.04,0.27 -1.27,0.49l-0.07 0.57c-1.02,0.39 -2.03,0.54 -3.32,0.42 -1.1,-0.11 -2.17,-0.26 -2.8,-0.89 -1.46,-0.78 -4.91,-4.2 -5.49,-4.42 -0.18,0.29 -0.27,0.49 -0.17,0.84zm7.67 -4.67l-0.14 0.98 0.6 -0.16c0.24,-0.2 0.65,-0.15 1.02,-0.14 -0.18,0.58 -0.71,1.21 -0.86,1.91 0.61,-0.17 1.26,-0.63 1.44,-1.18l-0.11 -1.12c-0.53,-0.35 -1.2,-0.47 -1.95,-0.29zm-2.9 1.85l0.29 0.86c-1.51,0.13 -0.54,-0.16 -1.49,0.36 -0.16,-0.32 -0.22,-0.57 -0.16,-1.04l1.35 -0.17zm-2.66 0.8c0.92,1.48 3,0.71 3.42,0.33 -0.07,-0.47 -0.23,-1.05 -0.7,-1.26 -0.47,-0.21 -1.02,-0.27 -1.59,-0.28 -0.27,0.04 -1.08,1.1 -1.14,1.21zm3.45 4.11c0.22,0.15 0.55,0.26 0.82,0.45 0.51,0.36 0.05,0.23 0.86,0.34 1.47,0.2 3.03,0.27 4.14,-0.56 1.13,-0.84 -1.07,-2.75 -1.36,-2.88 -0.41,-0.18 -1.85,-0.18 -2.31,-0.06 -0.57,0.15 -1.17,0.68 -1.47,1.04 -0.37,0.44 -0.63,0.86 -0.67,1.67zm-8.95 -35c0.45,-0.51 0.79,0.08 0.6,-1.22 -0.16,-1.24 -1.02,-0.44 -1.16,-0.41 -0.56,0.13 -2.15,0.09 -2.83,0.34 0.23,2.14 1.68,1.41 3.39,1.28zm-7.34 -0.39l0.17 -0.61c-0.05,-1.17 -3.32,-0.86 -3.42,-0.84l-0.03 0.58c-0.04,0.56 -0.18,0.82 -0.05,1.46 0.96,0.77 2.93,0.7 3.33,-0.59zm-1.96 -6.2l-0.44 -0.59c-0.49,-1.03 0.19,-1.58 0.76,-2.47 0.64,0.14 0.09,0.41 1.18,0.5 0.05,0.99 0.08,1.49 -0.45,2.14 0.65,-0 0.71,-0.5 0.83,-1.12 0.14,-0.69 0.06,-0.95 0.29,-1.64 0.5,-1.52 -2.2,-1.42 -3.36,0.22 -0.2,0.28 -0.68,0.94 -0.8,1.27 -0.58,1.58 1.54,1.99 1.87,2l0.11 -0.31zm8.34 0.48c-1.39,0.4 -2,0.27 -2.28,-1.24 -0.15,-0.77 -0.1,-1.13 0.43,-1.47 0.86,-0.55 0.38,-0.66 0.7,-1.35 0.39,-0.04 0.64,0.07 0.97,0.25 0.33,1.23 0.35,2.5 0.17,3.82zm1.64 -1.04c0.58,-1.11 -0.81,-3 -1.36,-3.44 -0.49,-0.39 -2.71,-1.33 -2.93,1.03 -0.12,1.29 -0.16,3.15 1.07,3.87 1.16,0.68 3.14,-1.28 3.23,-1.46zm18.29 6.39c0.32,-0.34 0.28,-0.81 0.12,-1.32 -0.83,-0.11 -1.36,0.06 -2.08,0.15 -0.88,0.11 -1.38,0.05 -2.16,-0.08l-0.39 0.04c-0.13,0.74 -0.06,0.83 0.5,1.09 0.94,0.43 3.41,0.44 4,0.12zm-2.04 2.22c0.87,-0.1 1.64,-0.44 1.76,-1.2 -1.03,-0.12 -2.14,0.15 -3.01,-0.02 -0.36,-0.07 -2.21,-0.54 -1.63,0.41 0.1,0.17 0.25,0.19 0.43,0.27 0.81,0.36 1.37,0.66 2.45,0.53zm-2.32 1.3c0.17,0.74 0.54,0.85 1.35,0.86 0.76,0 1.3,0.01 1.85,-0.26l0.11 -0.51c0.2,-0.17 0.19,-0.1 0.15,-0.47l-3.61 -0.1 0.15 0.48z"/>
   <path class="fil3" d="M116.39 20.88c0.37,0.14 0.83,0.33 1.23,0.28 0.12,-0.35 0.15,-0.87 0.01,-1.23l-1.66 -0.18c-0.08,0.69 -0.13,0.91 0.42,1.13z"/>
   <path class="fil4" d="M120.66 9.48l-0.17 0.64c0.42,-0.12 0.35,-0.08 0.48,-0.58 0.06,-0.25 0.11,-0.48 0.16,-0.74 0.35,-1.06 0.28,-0.7 0.89,-1.25 0.22,-0.2 0.28,-0.44 0.48,-0.6 0.35,-0.26 0.41,-0.04 0.72,-0.37 0.46,-0.47 0.31,-0.77 1.17,-1 1.86,-0.48 3.23,-1.43 5.2,-0.51 0.54,0.25 1.05,0.41 1.39,0.78 0.46,0.5 1.02,0.6 1.28,0.91 0.29,0.45 0.07,0.73 0.57,1.14 0.27,-0.24 0.3,-0.36 0.2,-0.82 -0.07,-0.31 -0.85,-1.02 -1.09,-1.32 -0.63,-0.77 -0.62,-0.53 -1.61,-1 -1.81,-0.85 -2.44,-0.53 -4.59,-0.39 -0.1,0.16 0.21,0.29 -0.56,0.46 -0.42,0.1 -0.63,0.12 -1,0.31 -0.95,0.49 -3.71,3 -3.52,4.31z"/>
   <path class="fil4" d="M135.39 25.73c-0.03,0.44 -0.11,0.43 0.13,0.76 0.34,-0.12 0.1,0.18 0.29,-0.27 0.09,-0.21 0.03,-0.33 0.12,-0.54 0.13,-0.33 0.8,-0.48 0.74,-1.92 -0.03,-0.58 -0.13,-0.69 -0.64,-0.8 0.02,0.58 0.02,1.03 -0.01,1.61 -0.01,0.27 -0,0.58 -0.1,0.76 -0.13,0.23 0.03,0.05 -0.44,0.33 -0.02,0.01 -0.05,0.03 -0.07,0.05z"/>
   <path class="fil5" d="M134.6 45.39c-0.07,-1.73 0.14,-1.57 -0.97,-3.78 -0.33,-0.66 -0.63,-0.96 -1.59,-0.95 -0.35,0.01 -1.89,-0.04 -2.15,-0.07 -0.45,1.25 -0.89,1.9 -0.96,3.53 0.69,-0.06 0.54,-0.1 0.81,-0.63 0.37,-0.72 1.63,-1.76 2.46,-1.22 0.27,0.18 1.45,1.88 1.68,2.33 0.18,0.35 0.24,0.64 0.43,0.93l0.28 -0.14z"/>
   <path class="fil5" d="M119.23 42.93c0.08,0.33 -0.06,0.19 0.24,0.29 0.44,-0.44 0.34,-0.8 0.98,-1.08 0.49,-0.25 0.47,-0.38 0.95,-0.61 0.4,-0.19 0.69,-0.3 0.66,-0.83 -0.55,-0.2 -1.16,-0.36 -1.83,-0.22 -0.33,0.36 -0.94,1.8 -1,2.44z"/>
   <path class="fil6" d="M117.82 43.71c-0.04,-0.48 0.2,-1.2 0.01,-1.56 -1.14,1.09 -2.29,7.56 -2.05,9.63 0.34,0.26 0.67,0.27 1.07,0.54 0.35,0.25 0.56,0.54 1.04,0.68 -0.03,-0.89 -0.21,-1.54 -0.3,-2.43 -0.1,-1.09 -0.28,-3.75 -0.16,-4.78 0.1,-0.81 0.26,-0.24 0.39,-2.09z"/>
   <path class="fil6" d="M132.62 25.95c0.19,1.3 -0.15,0.7 -0.6,1.22l1.06 -0.08c0.18,-0.26 0.25,-0.57 0.29,-0.92 0.07,-0.58 0.11,-0.75 -0.35,-0.84 -0.22,0.42 0.16,0.67 -0.11,1.39 -0.09,-0.11 -0.04,0.04 -0.12,-0.23 -0.07,-0.24 0.03,-0.28 -0.17,-0.53z"/>
   <path class="fil7" d="M119.23 42.93l-0.32 0.34c0.25,0.26 -0.08,0.01 0.26,0.14 0.73,0.27 -0.57,-0.15 0.18,0.05 0.38,0.1 -0.11,-0.18 0.3,0.06 -0.09,0.5 -0.3,0.37 -0.81,0.46 -0.15,0.71 -0.29,4.33 -0.09,4.93l1.4 0.2 0.35 -1.25 -0.35 -0.14c-0.27,-0.16 -0.02,0.16 -0.19,-0.18 -0,-1.36 0.35,-1.69 0.59,-2.84 0.37,-1.81 -0.84,-0.72 -0.1,-2.54 -0.64,0.28 -0.54,0.64 -0.98,1.08 -0.3,-0.1 -0.16,0.03 -0.24,-0.29z"/>
   <path class="fil8" d="M135.24 8.83c0.28,0.33 0.08,0.11 0.12,0.52 0.03,0.32 -0.15,0.15 0.15,0.49l0.09 -1.08c0.09,0.1 0.07,0.06 0.16,0.22 0.01,0.02 0.03,0.05 0.04,0.08l0.16 0.5c0.24,0.9 0.25,1.76 0.38,2.67 0.09,0.59 0.24,1.06 0.32,1.71 0.16,1.3 -0.06,4.3 0.29,5.9 0.43,1.97 0.82,2.05 0.39,3.33l0.27 0.02c0.83,-1.33 2.94,0.86 4.48,0.75 0.3,-1.07 -1.11,-1.35 -1.94,-1.46 -0.47,-0.06 -1,-0.17 -1.35,-0.38l-1.09 -0.61c0.07,-0.66 0.73,-0.61 0.85,-1.73 0.01,-0.06 0.05,-0.57 0.05,-0.59 -0.01,-0.4 -0.01,-0.14 -0.16,-0.4 -0.49,-0.84 -0.27,-4.25 -0.49,-5.78 -0.14,-0.96 -0.95,-2.86 -1.41,-3.7 -1.01,-1.87 -0.67,-1.03 -1.6,-2.19 -0.25,-0.32 -0.26,-0.46 -0.64,-0.55 0.22,0.34 0.15,0.12 0.32,0.55 0.29,0.75 0.62,1.16 0.61,1.74z"/>
   <path class="fil8" d="M135.25 33.41l-0.18 3.97c1.21,-0.63 2.04,-4.41 2.42,-6.11 0.21,-0.91 0.77,-6.45 1.19,-7.06 -0,-0.05 0.01,-0.11 -0,-0.15 -0.12,-0.7 0.11,-0.05 -0.14,-0.28 -0.57,0.25 -0.11,0.4 -0.65,0.63 -0.23,-0.45 0.1,-0.59 -0.33,-0.77 -0.33,0.28 -0.16,1 -0.15,1.44 0.03,0.91 -0.92,5.76 -1.21,6.67 -0.43,1.37 0.5,1.44 -0.57,2.3l-0.04 -0.92c-0.31,0.13 -0.08,0.02 -0.34,0.28z"/>
   <path class="fil8" d="M118.57 22.96c0.02,-0.02 0.06,-0.09 0.07,-0.07l0.24 -0.26c0.08,-0.11 0.15,-0.24 0.24,-0.41 0.19,-0.36 0.22,-0.53 0.57,-0.74 1.29,0.52 1.07,1.37 1.96,1.61 0.49,0.14 0.83,0.22 1.18,-0.07l-0.65 0.04c-0.21,-0.34 -0.09,-0.09 -0.07,-0.43 0.01,-0.26 0.1,-0.1 0.02,-0.56 -1.09,-0.73 -2.87,-0.81 -2.37,-4.51l-0.47 0.02c-0.04,-0.68 0.14,-1.48 0.08,-1.93 -0.06,-0.44 -0.16,-0.26 -0.14,-0.88 0.02,-0.47 0.1,-0.65 0.05,-1.13 -0.16,0.21 -0.16,0.41 -0.17,0.47 -0.25,1.21 -0.19,0.45 -0.43,1.06 -0.13,0.33 0.04,1.3 0.05,1.77 0.01,1.32 -0.16,2.67 -0.12,3.93 0.25,0.23 0.38,0.21 0.59,0.52 -0.34,0.62 -0.49,0.68 -0.62,1.57z"/>
   <path class="fil9" d="M137.45 42.76c0.22,-0.5 -0.09,-0.1 0.23,-0.16 0.24,-0.04 0.37,0.12 0.77,0.36 0.89,0.54 -0.05,0.24 1.33,0.95 2.03,1.04 0.32,1.67 2.84,-0.12 1.73,-1.23 0.43,-1.82 3.08,-0.15 0.6,0.38 1.14,0.85 1.81,1.1 -0.16,-0.56 -0.44,-0.45 -1.09,-1.49 -0.13,-0.22 -0.28,-0.57 -0.44,-0.75 -0.28,-0.33 -0.39,-0.17 -0.68,-0.67 -0.7,-0.16 -1.41,-0.28 -2.25,-0.44 -0.68,-0.12 -1.13,-0.5 -1.94,-0.61 -1.2,-0.17 -4.05,-0.27 -5.15,-0.01 -0.05,0.1 -0.05,0.03 -0.05,0.23 0,0.48 1.18,2.33 1.25,2.4l0.16 -0.39c0.06,-0.15 0.02,-0.16 0.14,-0.25z"/>
   <path class="fil9" d="M108.46 37.12c-0.2,0.56 -0.34,1.07 -0.58,1.53 -0.27,0.53 -0.67,0.7 -0.62,1.37 1.55,0.28 2.63,-2.27 3.47,-0.35 0.39,0.89 1.28,2.88 1.8,3.53 0.38,-0.17 0.36,-0.32 0.39,-0.82 0.84,0.02 1.11,-0.45 1.72,-0.73 0.05,-0.12 -0.01,-0.04 0.15,-0.21 0.06,-0.07 0.11,-0.1 0.17,-0.15 0.15,-0.12 0.24,-0.16 0.36,-0.26 0.86,0.13 1.16,0.61 1.43,0.85 0.31,-0.27 0.62,-1.15 0.55,-1.72 -0.44,-0.19 -0.85,-0.11 -1.26,-0.25 -0.46,-0.16 -0.41,-0.32 -1.06,-0.49 -1.79,-0.44 -2.81,-0.62 -4.54,-1.51 -0.56,-0.29 -1.42,-1.04 -1.98,-0.78z"/>
   <path class="fil9" d="M143.72 19.7c0.12,-0 5.42,1.21 6.21,1.14l0.23 -0.56 -0.2 -0.1 -0.57 0.01c-0.51,-0.77 0.15,-0.25 -0.72,-0.62l-0.23 -1.67c-0.7,0.07 -1.27,0.33 -1.72,0.71 -0.68,0.58 -0.71,0.4 -1.67,0.08 0,-0.41 0.06,-0.79 0.01,-1.2 -0.05,-0.46 -0.19,-0.59 -0.27,-0.87 -0.93,-0.12 -1.27,0.36 -1.75,0.81 -0.39,0.37 -0.88,0.68 -1.19,1.14 0.49,1.09 1.16,0.55 1.87,1.13z"/>
   <path class="fil10" d="M117.83 42.14c0.19,0.36 -0.04,1.08 -0.01,1.56l0.23 -0.83c0.02,-0.01 0.05,-0.03 0.07,-0.05l0.31 -0.54c0.11,-0.32 0.19,-0.53 0.33,-0.88 0.34,-0.83 1.08,-2.64 2.18,-2.5 0.56,0.07 1.02,0.7 1.82,0.32 1.27,-0.6 0,-2.3 2.45,-2.31 0.92,-0 3.76,0.08 4.46,0.28 0.22,0.96 0.09,2.14 0.75,2.62 0.54,0.39 2.06,-0.19 3.13,0.01l0.45 0.98c0.23,-0.09 0.12,-0.07 0.44,-0.07 -0.08,-0.42 -0.1,-0.97 -0.09,-1.47 0.02,-0.58 0.19,-0.64 0.28,-1.1 0.68,-3.44 -1,-2.22 -2.88,-2.33 -3.69,-0.21 -7.57,-0.25 -11.3,-0.1 -0.49,0.02 -0.87,0.13 -1.31,0.16 -0.49,0.04 -0.87,-0.05 -1.37,0.05 -0.16,0.65 0.04,1.49 0.3,2 0.31,0.62 0.68,0.66 1.16,1.11 0.21,0.43 -1.01,1.98 -1.4,3.07z"/>
   <path class="fil10" d="M128.26 12.67c0.26,1.12 -0.03,0.66 -0.3,1.39 -0.22,0.59 0.18,0.77 -0.25,1.7 0.3,-0.2 1.56,-1.65 2.52,-2.26 0.24,-0.15 0.36,-0.15 0.64,-0.34 0.33,-0.22 0.87,-0.72 1.4,-0.34 -0.1,0.86 -0.39,0.02 -0.79,0.87 0.18,0.58 1.7,1.25 2.15,2.11 0.59,1.12 0.6,4.27 -0.32,5.22 -0.24,0.25 -0.33,0.26 -0.54,0.54 -0.66,0.87 -0.7,0.48 -1.22,0.95 -0.59,0.53 -0.39,1 -2.36,0.27l1.04 0.88 -0.53 0.46c-0.02,0.01 -0.04,0.03 -0.06,0.04l-0.85 0.23c1.08,-0.01 1.49,0.07 2.35,-0.33 0.57,-0.26 1.49,-0.28 2.21,-0.3 -0.08,0.37 -0.25,0.67 -0.16,1.05 0.07,0.29 0.08,0.2 0.15,0.3 0.2,-0.48 0.6,-0.45 1.06,-0.6 0.22,-1.48 0.16,-0.99 -0.41,-1.39 0.18,-0.81 0.47,-0.79 0.39,-2.53l0.92 0.38 0.58 -0.27c-0.11,-1.19 0.14,-2.65 0.1,-3.98 -0.03,-1.09 -0.24,-2.75 -0.66,-3.62l-0.02 3.15c-0.62,0.01 -0.77,-0.63 -1,-1.13 -0.64,-1.37 -0.63,-1.2 -1.13,-2.12 -0.63,-1.16 -1.69,-0.4 -2.5,-0.44l0.02 -0.52c-0.27,0.15 -0.31,0.18 -0.58,0.58 -0.18,0.27 -0.21,0.42 -0.52,0.57 -0.7,0.35 -0.91,-0.26 -1.34,-0.53z"/>
   <path class="fil10" d="M120.54 14l0.54 0.16c-1.42,0.43 -0.69,0.67 -1.5,1.25l0.41 0.23 -0.04 0.67c0.02,-0.02 0.06,-0.08 0.07,-0.06l1.51 -1.69c0.11,-0.09 0.26,-0.16 0.31,-0.25 0.35,-0.58 0.07,-0.24 0.01,-0.37 -0.43,-0.16 -0.81,0.03 -1.31,0.05z"/>
   <path class="fil11" d="M120.66 9.48c-0.26,0.24 -0.1,0.05 -0.33,0.48l-0.19 -0.4c-0.15,1.1 -0.97,3.12 -0.86,4.09 0.05,0.49 -0.03,0.67 -0.05,1.13 -0.02,0.62 0.09,0.44 0.14,0.88 0.06,0.45 -0.12,1.25 -0.08,1.93l0.47 -0.02c0.29,-0.32 0.24,-0.8 0.2,-1.26l0.04 -0.67 -0.41 -0.23c0.8,-0.58 0.08,-0.83 1.5,-1.25l-0.54 -0.16 -0.45 -0.07c0.1,-0.44 -0.16,-0.13 0.29,-0.42 0.31,-0.2 1.33,-0.24 1.7,-0.27 0.88,-0.07 1.27,0.26 1.87,0.63 0.53,0.33 1.06,0.66 1.45,1.05 0.35,0.36 0.5,0.28 0.65,0.65 0.95,2.36 -0.33,4.95 -1.77,6.51 -0.7,0.77 -1.02,0.75 -1.45,0.95 -0.35,0.29 -0.69,0.21 -1.18,0.07 -0.9,-0.25 -0.68,-1.1 -1.96,-1.61 -0.35,0.21 -0.38,0.38 -0.57,0.74 -0.09,0.17 -0.16,0.3 -0.24,0.41l-0.24 0.26c-0.01,-0.02 -0.04,0.04 -0.07,0.07 -0.04,1.05 -0.1,2.57 0.1,3.54 0.22,1.06 0.91,1.62 0.91,2.81 0,0.7 -0.65,2.06 -0.84,2.86 -0.12,0.52 -0.03,1.09 -0.34,1.51 -0.43,0.58 -0.48,0.25 -0.5,1.33 0.52,0.02 0.86,-0.06 1.34,-0.08 0.44,-0.02 0.84,0.07 1.3,0.08 0.82,0.02 1.77,0.01 2.58,-0.09 -0.1,-0.59 -0.72,-1.26 -1.21,-1.43 0.3,-1.95 -0.6,-2.41 -1.24,-4.18 -0.54,-1.51 0.19,-3.67 -0.04,-5.21 2.66,-0.28 4.24,0.88 8.15,0.31l0.85 -0.23c0.02,-0.01 0.04,-0.03 0.06,-0.04l0.53 -0.46 -1.04 -0.88c-1.09,-1.18 -1.54,-1.13 -1.6,-3.38 -0.24,0.37 -0,0.42 -0.32,0.54 -0.26,-0.41 -0.54,-2.2 -0.33,-2.74 0.53,0.47 0.17,0.92 0.43,1.51 0.16,-0.23 0.13,-0.22 0.11,-0.78 -0.06,-1.9 0.21,-1.78 0.21,-2.16 0.43,-0.92 0.02,-1.11 0.25,-1.7 0.28,-0.73 0.57,-0.27 0.3,-1.39 -0.49,-0.53 -0.59,-0.1 -0.52,-1.23l-0.24 0.47c-0.06,0.14 0.16,-0.03 -0.12,0.26l-0.45 -0.2c-0.01,0.57 0.01,0.89 -0.32,1.17 -1.19,1.03 -2.28,-0.26 -2.81,-0.73 -1.09,-0.97 -2.74,-2.18 -1.95,-3.31l-0.65 0.17 -0.07 -0.45c-0.05,0.26 -0.1,0.5 -0.16,0.74 -0.12,0.49 -0.05,0.45 -0.48,0.58l0.17 -0.64z"/>
   <path class="fil11" d="M132.82 7.92c0.03,0.3 -0.1,0.23 0.13,0.36 0.91,0.93 -0.31,1.56 -0.73,2.12 -0.38,0.51 -0.23,0.46 -0.79,0.84 -0.34,0.23 -0.64,0.54 -0.75,0.8l-0.02 0.52c0.81,0.04 1.88,-0.72 2.5,0.44 0.5,0.92 0.49,0.76 1.13,2.12 0.23,0.5 0.38,1.14 1,1.13l0.02 -3.15 -0.48 -2.85c-0.06,-0.13 -0.21,-0.71 -0.28,-0.93 -0.28,-0.93 -0.2,-0.35 -0.61,-0.9 -0.06,-0.08 -0.07,-0.12 -0.12,-0.22 -0.21,-0.43 -0.4,-0.83 -0.82,-1.11 0.1,0.46 0.07,0.58 -0.2,0.82z"/>
   <path class="fil12" d="M141.96 26.02c-0.16,0.43 -0.56,0.91 -0.97,1.12 -0.11,1.61 -0.14,1.88 -0.5,3.35 -0.25,1.02 -0.31,2.13 -0.51,3.17 -0.18,0.94 -0.79,1.65 -1.16,2.54 -0.31,0.75 -0.62,2.68 -0.49,3.1 2.46,0.04 4.79,0.85 7.12,1.04 0.11,-0.83 -0.51,-1.83 0.08,-5.36 0.15,-0.91 0.22,-1.65 0.32,-2.61 0.13,-1.21 -0.06,-1.44 -0.1,-2.51 -0.04,-1.37 -0.76,-1.42 -0.6,-2.37 0.06,-0.37 0.27,-0.65 0.32,-1.12 0.15,-1.45 -0.05,-0.86 0.44,-2.5 0.19,-0.64 0.04,-0.52 0.6,-0.81 0.41,-0.21 0.46,-0.42 0.81,-0.59 0.42,-0.19 0.53,-0.07 0.97,-0.13 0.29,-0.04 0.07,0.04 0.26,-0.08 -0.25,-0.53 -0.45,-0.15 -1.59,-0.5 -0.96,-0.29 -2.12,-0.72 -3.09,-0.82 -1.89,-0.19 -0.49,0.01 -1.64,-0.32 0.17,1.25 1.11,0.96 1.09,2.93 -0.02,1.13 -0.82,2.11 -1.35,2.46z"/>
   <path class="fil12" d="M112.86 27.53l-0.95 1.22c0.49,0.24 0.31,0.28 0.22,1.53 -0.02,0.28 -0.13,0.64 -0.12,0.87 0.02,0.34 0.15,0.34 0.28,0.65 -0.19,0.39 -0.53,0.64 -0.64,1.1 -0.1,0.4 -0.12,1.12 -0.16,1.55 -0.14,1.33 -0.27,2.1 0.92,2.53 -0.01,-0.16 -0.07,-0.01 -0.09,-0.37 2.39,-0.27 2.8,0.62 3.62,-0.36 -0.06,-0.52 -0.13,-0.21 -0.27,-0.65 0.22,-0.39 0.44,-0.39 0.7,-0.71 0.34,-0.42 0.23,-0.61 0.36,-1.06 0.2,-0.72 0.76,-1.34 0.6,-2.06 -0.2,-0.96 0.01,-1 -0.24,-2.6 -0.14,-0.91 0.18,-1.33 -0.06,-2.52 -0.85,0.23 -0.49,0.5 -1.61,0.16 -1.48,-0.44 -2.16,0.22 -1.64,1.54 0.2,0.52 0.33,0.43 0.64,0.74 -0.09,0.71 -0.64,1.3 -1.4,1.34l0 -0.8c0.82,-0.32 1.6,0.24 0.51,-0.92 -0.25,-0.26 -0.5,-0.42 -0.75,-0.71l0.06 -0.47z"/>
   <path class="fil13" d="M49.3 63.89c-0.47,-0.87 -0.36,-2.39 0.27,-3.51 0.26,-0.46 0.26,-0.62 0.71,-0.77 0.34,0.29 0.35,0.79 0.38,1.26 0.03,0.47 0.16,0.92 0.08,1.34 -0.08,0.41 -0.26,0.86 -0.5,1.11 -0.25,0.25 -0.48,0.55 -0.94,0.57zm42.61 2.12c-0.15,0.53 0.8,0.94 0.93,0.32 0.1,-0.48 -0.69,-0.7 -0.93,-0.32zm11.91 0.63c0.49,-0.37 -0,-1.03 -0.59,-0.83 -0.53,0.18 0.09,1.05 0.59,0.83zm-5.64 -0.81c-0.31,-0.1 -0.59,-0.09 -0.89,0.04 0.08,0.62 0.87,1.28 1.12,0.49 0.08,-0.26 0.02,-0.42 -0.23,-0.54zm9.42 -15.8c0.05,0.63 -0.4,2.03 -0.55,2.73 -0.21,0.92 -0.27,1.81 -0.5,2.75 -0.2,0.81 -1.24,4.95 -1.06,5.33 0.47,-0.41 1.02,-1.92 1.39,-2.54 0.19,-0.86 0.94,-2.71 1.33,-3.41 0.57,-1.02 0.97,-2.12 1.5,-3.27 0.51,-1.12 1.54,-3.79 -0.63,-3.74 -0.62,0.02 -0.75,0.37 -1.09,1.26 -0.06,0.16 -0.08,0.26 -0.13,0.41 -0.03,0.09 -0.05,0.15 -0.1,0.24 -0.09,0.17 -0.05,0.12 -0.15,0.23zm-8.32 12.74c0.31,-0.35 0.19,-0.44 0.33,-0.94l1.15 -2.77c0.3,-0.56 0.66,-1.04 0.99,-1.61 0.56,-0.98 1.83,-4.28 2.34,-5.47 0.45,-1.05 1.56,-2.45 0.61,-3.58 -0.47,-0.55 -1.39,-0.25 -1.76,0.15 -0.41,0.44 -0.24,0.75 -0.84,1.77 -0.56,0.95 -0.74,3 -0.98,4.23 -0.19,0.97 -1.96,7.9 -1.85,8.22zm-5.79 -0.2c0.48,0.07 0.38,-0.09 0.59,-0.65 0.64,-1.74 2.07,-4.53 2.91,-6.09 0.7,-1.29 1.23,-3.14 1.49,-3.61 0.45,-0.8 1.71,-2.88 0.66,-3.68 -1.56,-1.2 -2.38,0.88 -2.51,2.14 -0.04,0.42 0.08,0.73 0.01,1.13l-0.97 2.81c-0.19,0.74 -0.2,1.48 -0.46,2.14 -0.29,0.72 -0.38,1.14 -0.54,1.94 -0.24,1.19 -0.64,2.9 -1.18,3.86zm-14.24 -3.24c0.11,-0.59 0.27,-0.73 0.44,-1.19 0.14,-0.39 0.23,-0.83 0.36,-1.26 0.32,-1.14 0.71,-1.43 0.97,-2.18 0.32,-0.93 -0.49,-1.84 -1.11,-1.82 -0.57,0.01 -1.06,1.13 -1.38,1.71 -0.37,0.68 -0.9,1.41 -1.19,2.08 -0.33,0.78 -0.42,1.67 -0.7,2.42 -0.24,0.65 -0.65,1.67 -0.92,2.23 -0.45,0.96 -0.79,1.58 -1.62,1.64 0.11,-1.37 0.53,-1.65 0.13,-3.99 -0.11,-0.66 -0.38,-1.06 -1.14,-1.01 -1.26,0.07 -1.51,3.3 -1.92,4.56 -0.45,1.37 -0.69,2.3 -1.95,2.21 -0.04,-0.74 0.29,-0.67 0.53,-1.16 0.19,-0.4 0.15,-0.94 0.22,-1.41 0.29,-2.05 1.79,-4.16 0.86,-5.01 -0.77,-0.71 -1.77,-0.43 -2.22,0.19 -0.41,0.58 -0.02,0.76 -0.16,1.27 -0.03,0.12 -0.46,0.79 -0.59,1.03 -0.36,0.66 -1.45,2.62 -1.92,2.95 -1.32,0.93 -0.82,0.63 -1.81,1.44 -0.32,0.26 -0.72,0.42 -0.7,0.94 0.78,0.53 1.91,-0.96 2.31,-1.28 0.34,-0.28 0.74,-0.59 1.11,-0.84 1.08,-0.7 0.57,-0.6 0.71,-0.88 1.11,0.38 0.67,2.02 0.64,2.36 -0.09,0.9 0.55,1.81 1.38,1.69 1.24,-0.18 1.23,-0.98 2.53,-2.25 0.23,-0.23 0.36,-0.68 0.65,-0.9 0.35,0.35 0.1,0.4 0.34,0.68 0.12,0.15 1.43,0.69 2.1,0.28 0.88,-0.53 1.04,-1.74 1.68,-2.01 0.29,0.65 -0.67,1.77 -0.91,2.02 0.64,0.06 0.4,-0.6 0.89,-0.26 0.39,0.49 -0.17,0.21 -0.14,0.8 0.03,0.53 0.12,-0.3 0.06,1.11 0.73,-0.23 0.27,-0.15 0.76,-0.63 0.2,-0.2 0.34,-0.25 0.6,-0.49 0.51,-0.46 0.57,-0.82 0.98,-1.3 0.36,-0.42 0.68,-0.72 1.08,-1.2 0.33,-0.4 0.64,-0.83 1.03,-1.26 0.49,0.26 0.2,0.75 1.34,0.94 0.5,0.08 1.19,-0.02 1.65,0.09 0.36,0.09 0.19,0.03 0.4,0.17 -0.25,0.48 -0.47,0.29 -0.44,0.96 0.02,0.39 0.16,0.71 0.31,1.01 0.38,0.77 0.34,1.13 0.87,1.84 1.74,-0.26 2.45,-2.37 3.07,-2.01 0.47,0.27 -0.06,0.45 0.47,0.44 0.79,-0.01 1.33,-1.98 1.53,-2.48 0.59,-1.48 2.46,-3.01 0.99,-4.03 -0.77,0.24 -0.89,1.4 -1.94,1.13 -1.16,-0.3 -1.44,-0.72 -2.06,0.54 -1.29,2.62 -0.16,1.13 -0.59,2.45 -0.15,0.46 -0.36,0.49 -0.48,1.14 -0.23,1.22 -0.25,0.95 -0.57,0.98 -0.24,-0.39 0.06,-0.75 0.21,-1.21 0.47,-1.47 -0.23,-0.63 1.23,-3.65 0.66,-1.37 1.26,-0.58 1.97,-1.27 0.39,-0.38 0.82,-1.75 0.68,-2.51 -2.3,-0.55 -3.06,0.84 -3.73,2.27l-1 2.04c-0.41,0.85 -0.44,1.3 -1.66,1.29 0.1,-0.32 0.32,-0.25 0.42,-0.57 0.19,-0.67 -0.47,-0.16 0.3,-2.09 0.38,-0.94 0.41,-1.99 -0.26,-2.63 -0.53,-0.24 -2.06,1.44 -2.45,1.88 -0.44,0.51 -0.72,0.61 -1.15,1.02 -0.35,0.34 -0.48,0.75 -1.06,0.98zm-19.72 -1.62c-0.8,1.02 -1.08,2.44 -1.52,3.92l-1.23 2.79c-0.06,0.11 -0.2,0.29 -0.31,0.34 -0.18,0.1 0.02,0.04 -0.21,0.05 -0.66,0.03 0.02,-1.15 0.1,-1.79 0.04,-0.33 0.05,-0.7 0.11,-1.07l0.49 -1.81c0.24,-0.41 0.16,-0.22 0.34,-0.73 0.33,-0.91 0.52,-0.66 0.21,-1.82 -0.16,-0.4 -0.49,-1.21 -0.81,-1.43 -0.29,0.15 -0.91,0.89 -1.08,1.14 -0.72,1.07 -0.27,1.68 -1.16,3.18 -0.34,0.58 -0.44,0.87 -1.29,0.97 0.12,-0.58 0.38,-0.7 0.42,-1.23 0.03,-0.37 -0.07,-0.99 -0.07,-1.42 -0.02,-1.92 0.19,-1 -0.69,-2.21 -1.22,-1.66 -2.49,-0.21 -3.26,0.94 -0.48,0.72 -0.73,1.02 -1.28,1.65 -0.44,0.5 -0.25,0.38 -0.46,1.08l-1.11 1.8c-0.56,0.88 -0.66,0.13 -1.5,1.43 -0.26,0.41 -0.18,0.61 -0.38,1.03 -0.12,-0.22 0.25,-2.37 0.38,-2.76 0.25,-0.75 0.68,-1.44 0.99,-2.25 0.59,-1.57 0.98,-3.44 1.58,-5.03 1.47,-3.9 4.35,-6.83 3.96,-9.19 -0.39,-0.27 -1.14,-0.66 -1.68,-0.79 -0.31,0.33 -0.3,0.47 -0.65,0.76 -0.35,0.29 -0.44,0.19 -0.68,0.62 -1.16,2.09 -1.57,3.32 -2.53,5.5 -0.77,1.75 -2,3.83 -2.5,5.53 -0.33,1.14 -0.41,1.12 0.46,1.61 0.2,1.78 0.06,3.85 -0.6,5.41 -0.2,0.48 -0.68,1.58 0.12,1.71 0.23,0.04 0.17,0.01 0.34,-0.05l2.63 -2.16c0.33,-0.41 0.25,-0.88 0.71,-1.12 0.44,0.35 0.46,1 0.75,1.52 0.2,0.36 0.73,0.93 1.1,1.1 1.21,-0.46 2.74,-1.66 2.87,-2.89 0.23,0.01 0.64,-0.05 0.79,-0.02 0.34,0.08 0.03,0.08 0.46,0.27 0.61,-0.24 0.36,-0.57 0.93,-0.71 0.08,0.65 -0.04,0.7 0.19,1.32 0.21,0.58 0.13,0.74 0.17,1.35 0.04,0.53 0.62,1.74 0.88,2.09 2.76,-0.56 1.61,-1.76 3.8,-2.87 0.32,0.46 -0.25,0.61 0.49,0.83 0.56,0.17 0.68,0.09 1.13,-0.06 0.98,-0.33 1.23,0.33 2.06,0.31 0.76,-0.78 0.39,-1.83 0.57,-2.76 0.14,-0.75 0.33,-0.77 0.54,-1.2 0.52,-1.06 -0.06,-0.95 2.09,-2.9 0.73,-0.66 1.56,0 2.11,-1.26l-0.96 -1.73c-0.43,0.01 -2.71,0.85 -3.4,2.16 -0.41,0.77 -0.81,1.22 -1.26,2.31 -0.19,0.47 -0.29,0.89 -0.51,1.33 -0.33,0.67 -0.3,0.64 -0.44,1.43 -0.09,0.53 -0.38,0.73 -0.9,0.56 -0.19,-1.06 0.37,-2.26 0.23,-3.02 -0,-0.01 -0.38,-1.09 -0.44,-1.23 -0.21,-0.49 -0.43,-0.48 -1.07,-0.52z"/>
   <path class="fil13" d="M138.97 13c0.02,0.03 0.03,0.04 0.04,0.09 0.01,0.06 0.06,0.15 0.07,0.18 0.04,0.15 0.04,0.26 0.08,0.38 0.13,0.44 0.11,0.18 0.29,0.44 0.07,0.09 -0.01,-0.08 0.12,0.21 0.01,0.03 0.09,0.3 0.1,0.33 0.2,0.69 1.23,2.19 1.49,2.25 0.54,-0.08 0.55,-0.33 0.95,-0.53 0.59,-0.3 0.49,-0.01 1.01,-0.5 0.25,-0.24 0.67,-0.45 0.74,-0.8 0.08,-0.41 0,-0.34 -0.15,-0.57 -0.22,-0.34 -0.31,-0.16 -0.12,-0.38 -0.34,-0.52 -1.48,-1.09 -2.14,-1.47 -0.84,-0.47 -1.76,-0.75 -2.57,-1.17l0.1 1.52z"/>
   <path class="fil14" d="M146.99 42.31c0.43,0.4 1.62,2.4 1.25,3.18 -0.7,0.81 -2.08,-0.12 -2.76,-0.45 -1.47,-0.71 -1.45,-0.55 -2.75,0.15 -0.58,0.31 -2.15,1 -2.79,0.62 -0.93,-0.56 -1.18,-1.31 -1.94,-1.74l-0.15 0.13 2.18 5.43c0.54,1 1.18,1.15 1.79,2 0.31,0.42 0.92,2.15 0.93,2.69 0.02,0.02 0.04,0.04 0.05,0.08 0.01,0.02 0.15,0.3 0.39,0.34 0.35,-0.42 0.04,-0.22 0.01,-0.83 0.77,0.12 1.42,-0.1 1.99,0.08 2.96,0.92 2.62,0.38 3.65,-1.07 0.22,-0.31 0.3,-0.34 0.46,-0.74 0.24,-0.59 0.43,-1 0.68,-1.61 0.36,-0.91 0.05,-0.78 0.73,-1.54l1.57 -3.1c0.91,-1.79 1.08,-10.38 0.71,-12.62 -0.11,-0.67 -0.29,-2.6 -0.46,-3.01 -0.2,-0.49 -0.31,-0.45 -0.88,-0.33 -0.41,0.41 -0.48,0.81 -1.55,1.3 -0.99,0.46 -2.1,0.07 -2.55,0.39 -0.31,0.36 -0.27,2.04 -0.33,2.7l-0.47 5.61c-0.23,1.32 -0.12,1.29 0.26,2.33zm-41.45 -2.38c0.64,-0.23 0.84,-1.26 1.19,-1.78 1.24,-1.8 0.59,-1.03 0.96,-1.65 0.19,-0.31 0.03,-0.11 0.23,-0.25l0.72 -4.83c-1.09,-0 -2.73,0.47 -3.81,0.8 -0.57,0.17 -0.59,0.32 -0.98,0.46 -0.35,-0.54 -0.2,-0.86 -0.9,-1 0.21,0.69 0.64,1.03 0.89,1.89 0.21,0.71 0.33,1.46 0.53,2.17 0.41,1.39 1.16,2.52 1.17,4.2zm5.67 14.02c0.11,0.13 0.13,0.18 0.2,0.41l-0.48 0.17c-0.27,0.09 -0.11,-0.04 -0.36,0.15 0.21,0.15 0.51,0.14 0.74,0.15l-0.01 0.28c0.62,-0.36 -0.48,0.44 0.22,-0.24 0.38,-0.37 1.18,-0.37 1.55,-0.98 0.55,-0.91 0.43,-0.51 0.64,-0.88 0.11,-0.19 0.25,-0.78 0.33,-1.05 0.48,-0.22 0.83,0.01 0.7,-0.79 -0.78,-0.09 -0.94,0.46 -1.07,0.62l-0.2 0.18c-0.01,-1.25 0.52,-1.25 0.92,-2.18 0.3,-0.71 0.57,-3.38 1.04,-4.81 0.21,-0.64 0.7,-1.65 0.7,-2.24l-0.34 -0.07c-2,-0.08 -1.92,1.15 -3.24,1.34 -0.28,-0.14 -0.43,-0.35 -0.79,-0.59 -0.81,-0.56 -0.26,-0.51 -1.2,-1.84 -0.27,-0.37 -0.32,-0.63 -0.52,-0.98 -1.04,-0.04 -2.96,0.79 -3.62,1.29 -0.07,0.63 0.14,2.19 0.31,2.77 0.12,0.41 0.53,2.02 0.93,2.23 0.36,0.19 2.42,-0.65 3.07,0.47 0.14,0.25 0.33,0.68 0.44,0.97 0.14,0.38 0.14,0.61 0.09,1.05 -0.09,0.84 0.09,0.66 0.16,1.19 0.1,0.72 -0.6,1.39 -0.73,2.05 0.56,0.03 0.51,-0.12 0.86,0.19 -0.09,0.31 -0.13,0.16 -0.42,0.43l0.09 0.67zm9.99 -1.94c0.09,1.33 -0.27,1.07 0.42,2.27 1.07,1.88 1.43,0.89 2.34,2.87 0.39,0.84 0.58,1.36 -0.26,1.76 -0.04,1.64 -0.67,0.85 -0.76,1.86 0.62,0.43 0.98,0 1.25,0.82 -0.51,-0.05 -1.5,-0.07 -1.93,0.17 0.41,-0.01 2.14,0.61 2.83,0.77 1.08,0.25 1.83,0.42 3.03,0.55 1.2,0.13 5.85,0.41 6.81,-0.02 -1.12,0.04 -2.26,-0.03 -3.42,0.02 -1.45,0.06 -1.85,-0.23 -2.95,-0.46 0.08,-0.23 -0.14,-0.31 0.78,-0.29l4.67 0.04c0.56,0 1.38,0.15 1.72,0.12 -0.31,-0.33 -0.28,-0.05 -0.59,-0.57 -0.48,-0.8 -1.02,-2.2 -0.45,-2.98 0.03,-0.63 0.34,-1.16 0.42,-1.86 0.12,-0.99 -0.06,-1.33 -0.14,-2.18 -0,0 -0.24,0.2 -0.25,0.2 0.28,-1.11 -1,-2.16 0.38,-4.07 1.59,-2.22 0.37,-2.12 0.36,-3.94l-0.36 -0.54c-0.83,-0.06 -1.4,-0.07 -1.77,-0.73 -1.37,-2.45 -2.15,-1.43 -2.75,-1.15 -2.34,1.1 -2.01,0.55 -3.56,3.7 -0.96,1.95 -1.43,1.63 -2.12,2.75 -2.28,-0 -2.44,-0.28 -3.27,-0.28l-0.22 0.62c-0.08,0.27 -0.12,0.37 -0.22,0.55zm2.34 -20.19l0.34 0.01c0.81,2.04 1.94,0.87 2.08,0.84 -0.16,0.65 -0.41,0.67 -1.13,0.84 -0.82,0.2 -0.92,-0.17 -1.41,-0.49 0.22,0.64 1.1,1.4 2.15,1.12 2.42,-0.64 3.28,-3.04 3.47,-3.27 0.71,-0.82 1.71,-0.74 1.81,-1.45 -1.72,-0.56 -2.11,-0.62 -3.72,-0.49 -0.88,0.08 -2.67,-0.57 -3.66,0.48 -0.32,0.34 -0.74,1.61 -0.65,2.25l0.89 -0.06c-0.21,0.1 -0.11,0.15 -0.17,0.22z"/>
   <path class="fil15" d="M121.12 8.8l0.07 0.45 0.65 -0.17c0.6,-0.09 0.09,-0.32 0.71,-0.23 0.5,0.08 1.32,0.91 1.97,1.29 0.35,0.21 1.15,0.6 1.38,0.78 0.33,0.27 0.65,0.97 1.02,1.02l0.45 0.2c0.29,-0.29 0.06,-0.12 0.12,-0.26l0.24 -0.47c0.4,-0.49 0.4,-0.61 0.92,-1.02 0.42,-0.33 0.76,-0.65 1.19,-0.98 0.83,-0.64 1.64,-1.3 3.11,-1.15 -0.23,-0.13 -0.11,-0.06 -0.13,-0.36 -0.5,-0.41 -0.28,-0.7 -0.57,-1.14 -0.26,-0.32 -0.81,-0.41 -1.28,-0.91 -0.34,-0.37 -0.85,-0.53 -1.39,-0.78 -1.97,-0.91 -3.34,0.03 -5.2,0.51 -0.86,0.22 -0.71,0.52 -1.17,1 -0.31,0.32 -0.37,0.1 -0.72,0.37 -0.21,0.16 -0.26,0.4 -0.48,0.6 -0.6,0.55 -0.54,0.18 -0.89,1.25z"/>
   <path class="fil16" d="M106.37 9.76c1.57,-0.39 2.76,1.27 3.24,2.29 0.85,1.81 0.98,5.75 0.52,7.51 -0.43,1.65 -0.5,1.9 -1.29,2.93 -0.5,0.65 -1.1,1.96 -1.93,2.27 -0.71,0.26 -1.72,0.16 -2.37,-0.17 -2.59,-1.33 -1.31,-3.92 -1.08,-6.44 0.16,-1.82 0.26,-3.19 0.68,-4.93 0.41,-1.69 0.65,-3.07 2.23,-3.46zm-38.77 -0.68c1.59,-0.33 1.69,0.27 2.18,0.62 0.48,0.34 0.92,1.05 1.24,1.7 1.36,2.81 1.21,6.63 -0.18,9.52 -0.34,0.71 -1.71,3.21 -2.37,3.4 -2.08,0.63 -3.3,-0.45 -3.94,-1.67 -0.84,-1.59 0.22,-2.96 0.35,-4.61 0.07,-0.85 -0.15,-2.19 0.05,-2.89 0.52,-1.83 0.68,-5.64 2.67,-6.06zm-16.01 15.21c0.29,1.05 0.09,2.53 0.76,3.59 0.68,1.08 2.18,0.82 3.67,0.81 1.35,-0.01 2.85,-0.15 3.92,-0.53 0.49,-0.17 1.41,-0.2 1.77,-0.52 0.41,-0.37 0.42,-0.85 1.24,-1.01 0.79,1.51 0.92,2.19 2.5,2.04 2.39,-0.23 1.08,0.34 3.68,-0.98 1.07,-0.54 1.91,-1.29 2.62,-2.04 0.33,-0.36 0.82,-0.79 1.07,-1.21 0.31,-0.54 0.38,-1.31 0.76,-1.58 0.38,0.43 -0.04,0.45 0.33,0.76 0.17,-0.37 -0,-0.59 0.22,-1.13 0.63,0.3 -0.06,0.88 0.79,2.91 1.08,2.56 1.5,2.49 1.76,2.9 0.34,0.54 -0.18,0.49 1.49,1.43 1.73,0.97 4.31,1.4 5.82,0.04 1.36,-1.22 2.28,-2.98 2.77,-4.82l0.43 -2.37c0.07,-0.49 -0.03,-0.59 0.16,-0.85 0.49,0.22 0.33,1.08 0.73,1.67 0.62,0.92 0.67,2.53 2.64,4.74 0.39,0.44 2.05,2.13 2.53,2.34 0.32,0.14 0.5,0.11 0.89,0.31 2.11,1.08 1.66,0.3 3.16,0.64l0.66 -0.26c1.59,-0.53 2.39,-2.05 2.2,-3.45 -0.65,-0.44 -0.29,-1.22 -1.43,-1.25 -0.74,-0.02 -1.81,0.27 -2.5,-0.04 -2.1,-0.93 -2.14,-1.32 -3.37,-2.16 -0.63,-0.43 -1.65,-2.52 -1.96,-3.57 -0.36,-1.2 -0.65,-3.53 -0.48,-4.88 0.07,-0.57 0.19,-2.08 0.33,-2.49 0.54,-1.6 0.12,-2.44 1.75,-3.68 0.67,-0.51 1.01,-0.58 2.12,-0.58 1.08,-0 1.31,0.3 2.11,0.7 1.21,0.6 1.71,1.52 3.03,2.4 1,0.66 0.74,0.26 0.92,0.96 0.09,0.26 -0.06,-0.07 0.1,0.18 0.45,0.68 -0.14,-0.48 0.15,0.2 -0.17,0.63 -0.35,0.73 -0.44,1.53 -0.38,3.55 -0.51,4.95 -0.05,8.68 0.14,1.12 0.67,2.08 0.74,2.95 0.26,0.25 0.39,0.73 0.59,1.06 0.2,0.32 0.49,0.69 0.72,0.91 1.81,1.7 5.45,-0.55 6.99,-1.77 2.29,-1.81 4.11,-4.74 3.59,-9.16 -0.33,-2.8 -0.04,-1.65 -0.73,-4.14 -0.44,-1.6 -0.35,-1.8 -1.3,-3.58 -1.17,-2.18 -2.59,-4.63 -5.62,-3.46 -1.91,0.73 -1.98,1.77 -3.32,3.08 -0.26,-0.46 -0.25,-0.71 -0.61,-1.12 -0.82,-0.93 -1.57,-1.54 -2.53,-2.36 -2.9,-2.48 -6.43,-1.69 -8.76,1.35 -1.98,2.57 -1.41,3.32 -2.09,4.4 -0.24,-0.45 0.09,-0.76 -0.33,-0.94 -0.17,0.54 0.04,1.06 -0.43,1.34 -0.34,-0.68 -0.05,-2.31 -0.46,-3.51 -0.29,-0.84 -1.01,-1.8 -2.14,-1.77 -2.14,0.05 -0.48,4.65 -0.09,5.84 0.65,1.97 0.81,4.97 0.53,7.16 -0.33,2.65 -0.34,4.31 -1.73,6.1 -0.48,0.62 -1.45,1.45 -2.76,1.09 -2.33,-0.63 -3.6,-5.8 -3.82,-7.94 -0.22,-2.11 0.18,-5.34 0.58,-7.31 0.15,-0.73 0.38,-0.91 0.12,-1.55 -0.17,-0.4 -0.27,-3.63 -2.63,-3.3 -0.3,0.47 -0.96,1.49 -1.04,1.87 -0.08,0.37 -0.23,2.13 -0.44,2.42 -0.21,-0.97 -0.26,-0.83 -0.67,-1.55 -0.83,-1.44 -1.14,-2.69 -2.97,-3.86 -1.18,-0.75 -2.52,-0.46 -3.63,0.15 -2.9,1.59 -3.97,6 -4.41,9.28 -0.09,0.65 -0.24,5.91 -0.1,6.64 0.12,0.63 0.69,0.47 -0.04,1.51 -0.45,-0.03 -0.9,-0.28 -1.52,-0.33 -0.62,-0.05 -1.07,-0.06 -1.68,-0.13 -1.31,-0.15 -2.08,0.14 -3.13,-0.45 -3.49,-1.95 1.17,-10.85 1.01,-17.93 -0.03,-1.17 -0.67,-2.67 -1.81,-1.92 -0.86,0.57 -0.97,1.62 -1.08,1.96 -0.75,2.43 -1.3,6.77 -1.38,9.5 -0.04,1.19 -0.35,2.03 -0.39,3.14 -0.07,2.33 -0.24,4.61 -0.09,6.91z"/>
   <path class="fil16" d="M32.17 34.15c0.39,0.44 0.91,0.78 1.36,1.28 0.56,0.62 1.68,3.03 1.71,3.63 0.15,3.17 -0.36,4.67 -2.18,7.19 -0.23,0.32 -0.23,0.5 -0.51,0.79 -1.38,1.34 -2.07,1.98 -4.21,1.62 -1.86,-0.31 -4.16,-1.56 -3.16,-3.69 0.58,-1.22 0.64,-1.26 0.79,-2.75 0.38,-3.71 0.66,-9.53 6.19,-8.08zm0.47 17.25c0.47,-0.13 -0.15,0.02 0.6,-0.42 2.34,-1.37 1.22,-0.76 2.95,-2.05 1.09,-0.8 0.52,-0.61 0.98,-0.95 0.81,1.26 0.02,2.43 2.75,3.63 0.91,0.4 1.71,-0.22 2.35,-0.62 0.62,-0.39 0.92,-1.23 1.19,-1.95 0.74,-1.97 0.4,-3.89 0.29,-5.85 -0.11,-1.94 -0.05,-2.76 0.5,-4.31 0.56,-1.5 1.99,-0.49 2.26,0.18 0.67,1.67 0.62,5.06 1.29,5.83 0.2,-0.28 0.11,-0.16 0.06,-0.58 1.13,0.09 1.65,-1.56 3.15,-0.64 1.58,0.97 1.65,-0.61 3.14,-0.53 0.36,0.57 0.24,0.88 0.47,1.37 0.37,0.77 0.34,0.21 0.27,1.4 -0.08,1.33 -0.16,5.51 0.25,6.65 0.23,0.63 1.17,1.51 1.74,1.68 -0.45,-0.61 -1,-0.74 -1.18,-1.57 -0.35,-1.56 0.1,-3.08 1.3,-3.96 0.8,-0.6 1.04,-0.52 2.19,-0.65 0.27,-1.08 0.19,-6.44 -0.04,-7.77 -0.19,-1.05 -0.47,-2.18 -0.93,-3.06 -0.42,-0.82 -1.13,-1.91 -1.85,-2.22 -1.07,0.16 -2.23,1.7 -2.8,2.47 -0.47,0.64 -1.38,1.53 -2.23,1.69 -0.53,0.1 -0.62,-0.11 -0.89,-0.34 -0.63,-0.54 -0.88,-0.4 -1.17,-1.45 -0.95,-3.43 -0.28,-5.02 -2.52,-5.3l0.08 -0.48c-1.45,-0.19 -2.06,-0.28 -3.17,0.51 -1.87,1.32 -2.25,2.02 -3.53,4.28 -0.58,1.03 -0.79,2.13 -1.54,2.29 -0.69,-0.93 -0.32,-2.59 -3.54,-6.27 -1.17,-1.34 -3.08,-2.37 -5.02,-2.22 -0.98,0.08 -0.75,0.49 -1.9,0.46 -0.05,0.64 -0.26,0.88 -0.33,1.28 -0.34,0.21 -1.18,1.59 -1.9,0.93 -1.43,-0.43 -1.17,0.45 -1.84,0.75 -0.34,-0.25 -0.27,-0.46 -0.61,-0.77 -0.72,-0.64 -1.88,-1.24 -2.45,-1.78 -1.38,-1.3 -3.37,-1.67 -3.61,-1.96 -1.15,-0.04 -0.89,1.47 -2.25,1.78 -0.71,0.16 -1,0.09 -1.68,0.41 -1.2,0.56 -1.91,0.94 -3.13,0.58 -1.89,-0.56 -1.77,-1.21 -3.66,1.19 -2.78,3.52 -3.62,8.08 -2.6,12.55 0.88,3.88 3.71,7.01 7.43,8.52 2.97,1.2 6.45,1.98 8.98,-0.75 1.08,-1.16 0.37,-1.88 -0.11,-2.77 -0.79,-0.2 0.25,-0.47 -2.49,-0.41 -4.29,0.09 -2.7,-0.34 -4.78,-1.04 -1.1,-0.37 -2.7,-1.61 -3.41,-2.46 -1.31,-1.54 -1.63,-5.02 -1.34,-7.19 0.15,-1.11 0.81,-3.75 1.36,-4.5 0.76,-1.03 2.65,-1.75 4.24,-1.6 3.92,0.39 4.17,1.49 6.16,2.66 1.2,0.71 1.26,0.52 1.91,0.58 0.87,0.07 -0.18,1.31 -0.4,2.59 -0.31,1.84 -0.66,4.3 -0.49,6.21 0.1,0.85 0.21,2.31 0.52,3.05 0.03,0.06 0.06,0.19 0.08,0.25 0.39,1.34 1.28,3.02 2.45,3.73 0.28,0.17 1.25,0.59 1.54,0.48 0.42,-0.16 -0.1,-0.42 0.81,-0.13 0.99,0.32 3.7,-0.41 4.61,-0.76l1.51 -0.69z"/>
   <path class="fil17" d="M48.78 17.49c-0.31,2.44 -3.77,2.09 -3.87,-0.32 -0.09,-2.05 0.46,-4.77 0.75,-6.81 0.11,-0.74 0.86,-2.3 1.44,-2.15 1.29,0.35 1.84,8.06 1.69,9.28zm-23.71 10.12c-0.27,0.34 -0.29,1.39 -0.29,1.92 -0.01,0.81 0.23,1.21 0.33,1.81 0.53,0.24 0.55,0.46 0.99,0.72 1.13,-0.36 1.29,-1.6 1.61,-2.83 1.52,-0.42 3.26,-0.31 5.01,-0.46 0.31,-0.44 0.15,-0.38 0.74,-0.58 3.54,-1.23 2.87,-1.54 4.25,-2.57l1.52 -1.18c0.21,0.72 -0.06,0.88 -0.34,1.27 -0.38,0.52 -0.1,0.09 -0.22,1.53 -0.36,4.17 1.35,4.14 3.13,0.29 0.18,-0.39 0.83,-3.53 1.25,-4.05 0.28,-0.34 1.66,-0.6 2.04,-0.68 0.7,0.76 2.41,-0.22 3.43,0.48 2.48,1.69 1.5,4.43 1.62,5.24 0.07,0.51 0.16,0.14 0.14,0.88 -0.02,0.63 -0.17,1.5 0.14,1.95 0.15,0.22 0.79,0.84 1.08,0.95 1.47,-1.07 1.15,-2.76 -0,-3.98 -0.52,-0.55 -0.8,-2.07 -0.82,-2.9 -0.1,-0.55 -0.51,-0.68 -0.1,-1.5 0.64,-1.28 0.12,-2.98 0.16,-5.21 0.06,-1.97 0.56,-6.84 0.03,-8.54 -0.27,-0.85 -0.21,0 -0.52,-1.63 -0.12,-0.65 -0.18,-1.29 -0.43,-1.86 -0.24,-0.56 -1.6,-2.21 -2.01,-2.54 -0.63,-0.52 -2.31,-0.51 -2.99,0.8 -2.68,5.13 -2.44,7.88 -3.43,10.11 -0.42,-0.59 -0.24,-4.86 -2.41,-7.4 -1.18,-1.38 -3.28,-3.43 -5.77,-4.11 -0.16,-0.04 -4.15,-0.6 -4.27,-0.61 -1.42,-0.01 -2.88,0.97 -2.82,2.15 0.08,1.66 0.09,2.91 0.32,4.56l0.28 4.14 -0.17 0.55c-0.48,-0.34 -0.3,-1.99 -0.72,-3.42 -0.44,-1.51 -0.96,-4.9 -2.23,-6.01 -0.38,-0.33 -0.82,-0.45 -1.28,-0.78 -0.44,-0.31 -0.7,-0.58 -1.44,-0.26 -1.89,0.79 -3.15,6.62 -3.85,8.53 -0.35,0.95 -0.5,2.43 -0.72,3.51 -0.46,2.19 -1.37,4.47 -1.6,6.66 -0.11,1.07 -0.3,2.56 -1.08,3.01 -0.83,0.47 -2.64,0.2 -3.4,-0.23 -3.06,-1.72 -4.11,-4.45 -4.48,-7.9 -0.16,-1.48 0.25,-2.85 0.16,-4.01 0.42,-0.48 0.18,-2.57 1.57,-4 0.28,-0.29 0.88,-0.66 1.08,-0.92 0.87,-0.05 1.22,-0.5 2.39,-0.17 1.36,0.38 2.09,1.3 3.35,2.29 0.65,0.51 0.89,0.94 1.42,1.37 0.56,-0.32 1.28,-1.86 1.43,-2.79 0.15,-0.92 -0.54,-1.3 -1.54,-2.7 -1.11,-1.55 -3.92,-3.32 -5.54,-2.85 -3.42,1 -2.24,0.52 -4.27,2.14l-1.93 2.29c-0.3,0.59 -0.14,1.09 -0.31,1.64 -0.2,0.64 -0.42,0.76 -0.54,1.63l-0.31 1.86c-0.21,1.27 -0.02,6.55 0.22,8.03 0.57,3.47 2.14,6.15 4.59,8.21 0.91,0.77 1.61,1.05 3.04,1.31 1.87,0.34 2.53,-0.56 3.32,-0.83 2.72,-0.96 1.51,-1.22 2.57,-1.82l1.49 -3.24c0.56,-1.22 0.97,-2.2 2.67,-2.18 5.97,0.07 4.38,2.67 4.5,4.88zm-1.17 -10.99c-0.34,1.19 -0.31,1.87 -1.32,2.32 -1.12,0.5 -2.01,0.25 -2.41,-0.96 -0.89,-2.69 0.07,-3.78 0.36,-6.37 0.06,-0.53 0.61,-2.59 0.82,-2.89 0.84,-1.18 1.51,0.84 1.75,1.46 0.18,0.46 0.37,2.48 0.48,3.2 0.13,0.84 0.51,2.59 0.32,3.24zm13.64 -0.33c-1.07,6.49 -2.62,5.4 -4.79,7.62 -1.1,1.13 -2.45,-0.5 -2.95,-1.01 -1.09,-1.11 -0.32,-0.93 -0.43,-4.01 -0.09,-2.3 0.04,-6.52 0.8,-8.51 0.19,-0.5 0.7,-1.8 0.97,-2.07 1.03,-1.02 4.81,-0.25 5.86,2.5 0.51,1.34 0.8,3.95 0.55,5.48z"/>
   <path class="fil18" d="M96.31 33.89c0.86,-0.32 1,-0.07 1.3,0.57 0.84,1.77 2.68,6.27 2.08,8.05 -0.4,1.2 -0.34,1.39 -2.12,2.01 -0.7,0.24 -1.23,0.1 -1.78,-0.22 -0.47,-0.27 -1.14,-0.31 -1.37,-0.68 -0.91,-1.48 -0.11,-6.9 0.85,-8.68 0.41,-0.76 0.28,-0.77 1.04,-1.05zm-35.13 8.89c0.45,0.46 1.22,3.09 1.33,3.69 0.31,1.73 0.19,2.99 -1.71,2.87 -2.44,-0.15 -3.05,-0.27 -4,1.03 -1.14,1.55 -0.02,2.27 0.64,3.33 0.75,0.08 0.79,-0.12 1.75,0.1 1.48,0.34 0.84,0.39 1.71,0.39 2.31,0.01 3.81,-0.5 5.33,-2.53 1.71,-2.29 0.8,-1.77 0.79,-2.59 -0.02,-1.95 0.38,-0.85 -0.25,-3.6 -0.38,-1.65 -0.97,-3.57 -1.22,-4.92 -0.12,-0.68 -0.34,-0.81 -0.46,-1.46 -0.14,-0.73 -0.19,-3.01 0.59,-3.16 0.29,-0.32 0.37,-0.22 0.75,-0.43 0.99,-0.54 1.27,-1.13 2.14,-0.64 -0.14,1.14 -0.26,-0.04 -0.23,2.48 -0.01,2.12 -0.12,4.21 0.29,6.16 0.87,4.13 0.92,6.26 3.98,8.82 0.69,0.58 2.48,1.65 3.08,1.8 0.34,0.09 0.36,0 0.67,0.08 0.27,0.07 0.17,0.14 0.59,0.22 1.05,-0.92 0.97,-2.84 2.6,-2.83 1.65,0.14 1.89,0.93 2.49,2.13 0.59,-0.02 0.06,-0.13 0.74,-0.08 0.48,0.04 0.97,0.22 1.71,-0.5 0.59,-0.57 1.08,-1.57 1.66,-1.54l0.34 2.58c0.55,-0.13 0.38,-0.28 1.16,-0.4 0.4,-0.06 0.94,-0.07 1.36,-0.16 1.6,-0.35 1.29,-3.78 3.59,-5.16 1,-0.6 1.49,-0.19 2.62,-0.42 2.21,-0.45 2.18,-1.31 3.19,-1.27 1.85,0.08 1.77,1.78 2.6,1.81 0.88,-0.27 0.94,-0.8 1.44,-1.32 0.7,-0.72 1.32,-0.33 2.08,-0.62 -0.02,-0.6 -1.77,-7.41 -1.95,-8.04 -0.81,-2.93 -1.02,-3.92 -2.24,-6.55 -0.21,-0.45 -0.23,-0.59 -0.71,-0.55 -0.59,0.68 -2.09,0.9 -3.3,0.79 -0.63,-0.06 -1.32,-0.11 -1.9,-0.21 -1.21,-0.22 -1.25,-0.92 -1.89,-0.25 -0.82,0.86 -0.77,1.23 -1.22,2.57 -0.36,1.07 -0.79,2.13 -1.12,3.2l-1.53 4.98c-0.34,0.95 -0.15,1.22 -0.68,1.42 -0.23,-0.61 0.19,-5.81 -1.29,-10.02 -0.41,-1.16 -0.16,-1 -1.25,-1.57 -0.65,-0.34 -1.37,-0.61 -2.34,-0.47 -2.72,0.4 0.61,5.24 1.18,8.02 0.54,2.59 0.32,7.28 -1.07,9.54 -0.28,0.45 -1.03,0.98 -1.49,1.33 -0.61,0.46 -1.25,0.59 -2.2,0.55 -0.01,-0.01 0.01,-0.03 -0.23,-0.06 -0.88,-0.14 -0.63,-0.18 -1,-0.26 -0.78,-0.17 -0.81,0.24 -1.43,-0.42 -3.07,-3.2 -4.56,-7.79 -3.26,-12.28 0.4,-1.4 0.23,-3.56 -0.13,-4.93 -0.19,-0.75 -1.31,-1.05 -1.31,-2.37 -0,-0.76 0.24,-0.65 -0.34,-1.18 -0.4,-0.36 -0.64,-0.48 -1.27,-0.59 -1.5,-0.27 -1.73,-0.03 -2.92,0.49 -0.82,0.36 -1.89,0.47 -2.79,0.79 -0.94,0.34 -0.54,0.64 -1.61,1.12l-1.95 1.61c-0.91,1.08 -0.69,2.3 -1.01,3.67 -0.39,1.66 -0.39,1.28 0.16,2.88 0.17,0.51 0.71,2.55 0.72,2.93z"/>
   <path class="fil19" d="M135.39 25.73c0.02,-0.02 0.06,-0.04 0.07,-0.05 0.47,-0.29 0.31,-0.1 0.44,-0.33 0.1,-0.19 0.09,-0.49 0.1,-0.76 0.03,-0.58 0.03,-1.03 0.01,-1.61 0.51,0.11 0.62,0.22 0.64,0.8 0.06,1.44 -0.61,1.59 -0.74,1.92 -0.09,0.21 -0.03,0.33 -0.12,0.54 -0.19,0.45 0.05,0.15 -0.29,0.27 -0.23,-0.33 -0.15,-0.32 -0.13,-0.76zm-2.04 -0.61c0.33,1 1,0.59 -0.13,3.3 -0.2,0.49 -0.37,1.21 -0.62,1.55 -0.52,0.71 -1.74,1.53 -2.24,1.99 -0.31,0.29 -0.72,0.7 -1.02,1.04 -1.25,1.44 -2.05,0.52 -2.4,1.85 2.1,-0.07 5.75,0.54 7.49,0.2 0.35,-0.5 0.14,-1.4 0.42,-1.84 0.14,-1.01 0.48,-2.54 0.55,-3.5 0.09,-1.17 -0.75,0.01 0.57,-2.99 1.65,-3.73 0.48,-3.95 -0.09,-6.03l-0.58 0.27 -0.92 -0.38c0.08,1.74 -0.21,1.73 -0.39,2.53 0.57,0.4 0.64,-0.09 0.41,1.39 -0.46,0.15 -0.86,0.12 -1.06,0.6z"/>
   <path class="fil20" d="M121.87 48.33c0.11,0.18 0.04,0.09 0.2,0.29 3.3,0.29 3.8,-2.93 4.66,-5.23l0.73 -2.08c0.11,-0.26 0.06,-0.13 0.13,-0.23 0.13,-0.95 0.66,-1.31 0.8,-2.16l-0.24 0.4c-0.81,-0.36 -2.67,-0.52 -3.24,0.31 -0.39,0.57 -1.3,1.89 -1.34,2.58 -0.08,1.3 -0.03,0.62 -0.65,1.38l-0.84 1.12c-0.41,0.6 0.21,1.24 0.04,3.52 -0.12,0.09 -0.05,0.05 -0.23,0.1z"/>
   <path class="fil21" d="M112.86 27.53l-0.06 0.47c0.25,0.29 0.5,0.44 0.75,0.71 1.09,1.15 0.3,0.6 -0.51,0.92l-0 0.8c0.77,-0.04 1.32,-0.63 1.4,-1.34 -0.32,-0.31 -0.44,-0.22 -0.64,-0.74 -0.52,-1.33 0.16,-1.99 1.64,-1.54 1.12,0.34 0.76,0.07 1.61,-0.16 0.24,1.18 -0.09,1.61 0.06,2.52 0.25,1.6 0.03,1.65 0.24,2.6 0.15,0.72 -0.4,1.34 -0.6,2.06 -0.13,0.45 -0.02,0.64 -0.36,1.06 -0.26,0.33 -0.47,0.32 -0.7,0.71 0.15,0.44 0.22,0.13 0.27,0.65 -0.82,0.99 -1.23,0.09 -3.62,0.36 0.02,0.36 0.08,0.21 0.09,0.37 -1.19,-0.43 -1.06,-1.2 -0.92,-2.53 0.04,-0.43 0.07,-1.15 0.16,-1.55 0.11,-0.46 0.45,-0.71 0.64,-1.1 -0.13,-0.31 -0.27,-0.31 -0.28,-0.65 -0.01,-0.23 0.1,-0.59 0.12,-0.87 0.09,-1.25 0.26,-1.28 -0.22,-1.53 -0.69,0.18 -0.29,1.02 -0.69,1.75 -0.27,0.48 -1.11,1.04 -1.22,1.16 -0.28,0.29 -0.74,3.71 -0.29,4.16l3.17 1.72c0.62,0.19 3.58,0.82 4.13,0.82 -0.47,-1.66 -1.1,-1.27 -0.19,-3.34 0.84,-1.88 1.82,-6.94 0.56,-8.83 -0.32,-0.48 -0.01,-1.19 -0.06,-1.79 -1.23,-0.16 -0.21,0.02 -1.76,1.17 -0.4,-0.08 -0.34,-0.38 -0.91,-0.1 -0.48,0.23 -1.63,1.69 -1.79,2.07z"/>
   <path class="fil22" d="M138.33 39.3c-0.12,-0.42 0.18,-2.35 0.49,-3.1 0.37,-0.89 0.98,-1.6 1.16,-2.54 0.19,-1.04 0.25,-2.15 0.51,-3.17 0.36,-1.47 0.39,-1.74 0.5,-3.35 0.41,-0.21 0.81,-0.69 0.97,-1.12 -1.01,-0.02 -1.67,-0.35 -2.32,-0.36 -0.18,0.33 -0.51,3.16 -0.61,3.8 -0.35,2.32 -0.97,4.7 -1.87,6.79 -0.22,0.5 -0.4,1.03 -0.61,1.56 -0.28,0.7 -0.5,0.76 -0.65,0.99l-0.09 0.37 2.54 0.13z"/>
   <path class="fil23" d="M134 40.82l1.27 2.07c0.9,1.15 0.5,2.42 1.33,4.2 0.56,1.2 0.64,2.12 0.82,3.6 0.39,3.25 0.69,0.68 0.79,3.66 0.44,-0.27 0.25,-0.34 0.51,-0.79 0.38,-0.66 0.99,0.15 0.45,-2.72 -0.11,-0.58 -0.25,-0.47 -0.38,-0.94 -0.25,-0.92 -0.49,-1.95 -0.9,-2.79 -0.5,-1.01 -1,-2.49 -1.57,-3.43 -0.38,-0.63 -0.73,-0.64 -1.08,-1.41 -0.28,-0.62 -0.4,-1.06 -0.81,-1.51 -0.32,-0 -0.21,-0.02 -0.44,0.07z"/>
   <path class="fil24" d="M121.87 48.33c0.18,-0.06 0.12,-0.01 0.23,-0.1 0.17,-2.28 -0.45,-2.92 -0.04,-3.52l0.84 -1.12c0.62,-0.76 0.57,-0.08 0.65,-1.38 0.04,-0.7 0.96,-2.02 1.34,-2.58 0.57,-0.83 2.43,-0.67 3.24,-0.31l0.24 -0.4c0.07,-0.66 0.09,-0.7 -0.56,-0.78 -0.81,-0.1 -2.9,-0.32 -3.36,0.18l-3.13 6.62c-0.24,0.6 -0.55,1.33 -0.5,2.05 0.04,0.66 0.57,1.26 1.03,1.35z"/>
   <path class="fil25" d="M115.83 14.86c-0.27,0.67 -0.05,1.88 -0.05,2.74 0,0.59 0.2,0.62 0.73,0.76 0.38,0.1 0.73,0.24 1.09,0.1 0.23,-0.62 0.29,-1.94 -0.2,-2.38l-1.57 -1.22z"/>
   <path class="fil26" d="M122.65 49.15c0.32,0.16 0.19,0.06 0.29,0.28 2.05,0.68 3.48,-0.44 3.23,-1.99 -0.48,0.06 -0.88,1.03 -1.33,1.35 -0.83,0.58 -1.46,0.14 -1.61,0.12 -0.98,-0.13 -0.4,-0.15 -0.58,0.25z"/>
   <path class="fil27" d="M123.42 33.01c0.49,0.32 0.59,0.69 1.41,0.49 0.72,-0.17 0.97,-0.2 1.13,-0.84 -0.14,0.03 -1.27,1.2 -2.08,-0.84l-0.34 -0.01c-0.09,0.08 -0.22,0.18 -0.31,0.25 -0.01,0.63 0.1,0.53 0.2,0.95z"/>
  </g>
 </g>
</svg>
