<?xml version="1.0" encoding="UTF-8"?>
<!DOCTYPE svg PUBLIC "-//W3C//DTD SVG 1.1//EN" "http://www.w3.org/Graphics/SVG/1.1/DTD/svg11.dtd">
<!-- Creator: CorelDRAW -->
<svg xmlns="http://www.w3.org/2000/svg" xml:space="preserve" width="25.2479mm" height="18.8143mm" version="1.1" style="shape-rendering:geometricPrecision; text-rendering:geometricPrecision; image-rendering:optimizeQuality; fill-rule:evenodd; clip-rule:evenodd"
viewBox="0 0 47.05 35.06"
 xmlns:xlink="http://www.w3.org/1999/xlink"
 xmlns:xodm="http://www.corel.com/coreldraw/odm/2003">
 <defs>
  <style type="text/css">
   <![CDATA[
    .fil0 {fill:black}
    .fil1 {fill:red}
    .fil2 {fill:white}
   ]]>
  </style>
 </defs>
 <g id="Camada_x0020_1">
  <metadata id="CorelCorpID_0Corel-Layer"/>
  <g id="_2481816976144">
   <path class="fil0" d="M4.88 19.28l-0.72 1.23c-0.63,0 0.02,-0.26 -1.31,0.01 -1.99,0.4 -2.64,1.82 -2.83,3.64 -0.08,0.77 0.32,1.84 1.68,1.5 0.77,-0.2 0.48,0.01 1.25,-0.41 0.7,-0.39 0.66,-0.62 0.55,0.04 -0.15,0.9 -0.39,1.93 0.32,2.61 0.36,0.64 1.59,0.12 1.75,0.2 0.21,0.11 -0.42,1.78 -0.58,2.26l-1.11 3.43c-0.24,0.56 -0.31,1.04 0.33,1.05 0.66,0.02 4.24,0.08 4.83,-0.12 0.24,-0.08 0.11,-0.03 0.36,0.08l3.72 0.08c1.95,0 1.36,-0.16 2.13,-2.25 0.36,-0.97 -0.84,-0.59 -1.24,-0.8 0,-1.6 1.35,-0.21 1.68,-1.31l0.53 -1.51c0.52,-1.67 -1.63,-0.18 -0.81,-1.49 1.04,0 0.66,0.08 1.32,-0.17 0.37,-0.14 -0.01,1 -0.11,1.54l-1.02 5.45c0.03,0.69 0.28,0.54 1.36,0.54 4.62,0 2.96,-0.03 3.75,-0.61 0.65,0.34 0.02,0.76 2.57,0.76 1.15,0 1.52,-0.1 2.49,-0.75 0.43,-0.28 0.14,0.29 1.3,0.67 0.32,0.11 2.51,0.22 3.34,-0.22 0.4,-0.22 0.27,0.12 0.63,0.14l11.79 -0.01c0.49,-0.11 0.69,-1.25 0.95,-1.97 0.26,-0.75 -0.13,-0.11 0.41,-1.57l1.89 -4.95c1.01,-2.41 -0.13,-1.37 -0.8,-1.76l0.86 -2.61c0.22,-0.71 -0.13,-0.79 0.24,-1.07 -0.03,-0.07 -0.03,-0.07 -0.07,-0.13 0.28,-0.12 1.78,-3.21 -0.32,-3.2l-2.36 -0.08c-0.23,-0 -0.5,0.19 -0.9,-0.04l3.01 -2.34c0.36,-0.39 0.38,-2.07 0.4,-2.63l0.24 -4.62 0.03 -0.81 -3.83 -4.85c-1.02,-1.18 -0.29,-0.6 -1.58,-1.04l-2.58 -0.46 -3.11 -0.61c-1.35,-0.29 -0.92,-0.07 -1.46,0.17l-4.6 3.48c-0.23,0.8 -0.07,0.8 -0.22,1.84 -0.01,0.07 -0,0.16 -0,0.23 -0.47,-0.04 -0.28,-1.27 -2.69,-1.39 -0.74,-0.04 -2.11,-0.06 -2.79,0.34 -0.15,0.09 -0.3,0.22 -0.46,0.27 -0.45,0.15 -1.18,0.95 -1.38,1.56 -0.06,0.19 -0.09,0.41 -0.29,0.46l0.1 -2.09c-0.05,-0.54 1.55,-1.4 0.88,-2.14 -1.34,-1.47 -1.34,-0.88 -1.72,-0.94 -0.1,-0.02 -0.4,-0.22 -0.65,0.04 0.02,0.12 0,0.06 0.07,0.15 -0.47,0.24 0.27,0.48 -0.85,0.11l-1.9 -0.3c-0.72,0 -0.76,-0.01 -1.69,0.88l-0.69 1c-0.12,0.5 0.7,0.62 0.73,1.06l-0.74 -0.25c-0.45,-0.07 -1.6,0.02 -1.84,-0.03l-0.3 -0.05c-0.22,0.05 -0.14,-0.05 -0.38,-0.06l-0.24 0.09c-0.51,0 -0.4,0.29 -0.61,0.56 -0.16,-0.74 -0.11,-0.45 -0.63,-0.59l-2.34 -0.02 -1.04 0.04 -0.1 0.07 -0.25 1.34 -1.51 11.61c-0.16,0.67 0.44,0.23 -0.37,1.07l-0.45 0.62z"/>
   <path class="fil1" d="M23.89 32.62c0,-0.17 0.07,-0.28 0.13,-0.4 0.06,-0.13 0.06,-0.25 0.1,-0.4 0.05,-0.19 0.08,-0.21 0.16,-0.37l0.6 -1.89c0.17,-0.43 0.38,-1.3 0.47,-1.53 0.06,-0.15 0.11,-0.21 0.15,-0.38 0.1,-0.43 0.13,-0.36 0.27,-0.71 0.13,-0.32 0.22,-0.27 0.45,-0.21 0.05,0.24 -0.07,0.43 -0.16,0.86 -0.05,0.21 -0.07,0.25 -0.14,0.42 -0.07,0.17 -0.08,0.24 -0.12,0.41 -0.05,0.18 -0.12,0.22 -0.17,0.39 -0.04,0.15 -0.05,0.28 -0.1,0.44 -0.1,0.36 -0.12,0.11 -0.28,0.81 -0.07,0.31 -0.19,0.53 -0.28,0.82l-0.34 1.06c-0.05,0.15 -0.11,0.2 -0.23,0.56 -0.18,0.53 -0.5,0.34 -0.5,0.12zm12.44 -7.52c0.04,-0.17 0.08,-0.14 0.23,-0.37 0.42,-0.61 0.74,0.09 0.81,0.37 -0.43,0.11 -0.61,0.04 -1.04,0zm-1.36 -0.23c0,0.01 0.01,0.01 0.01,0.03l0.04 0.07c0.07,0.09 0.08,0.03 0.06,0.12 -0.02,0.11 -0.13,0.1 -0.21,0.18 -0.06,0.06 -0.09,0.16 -0.12,0.25 -0.04,0.12 -0.07,0.18 -0.11,0.3 -0.29,0.73 -0.46,1.56 -0.8,2.37 -0.11,0.27 -0.29,1.06 -0.37,1.22l-0.4 1.19c-0.03,0.12 -0.04,0.19 -0.08,0.3 -0.04,0.14 -0.09,0.19 -0.11,0.3 -0.13,0.51 -0.13,0.21 -0.22,0.57 -0.14,0.53 -0.04,0.34 -0.27,0.9l-0.48 1.53c0,0.09 0.08,0.19 0.16,0.22 0.13,0.05 2.27,-0.02 2.63,0.02 0.28,0.03 0.35,0.04 0.67,-0.02 0.33,-0.06 0.36,-0.41 0.55,-1.03 0.03,-0.09 0.05,-0.19 0.09,-0.29 0.29,-0.74 -0.23,-0.64 -1.09,-0.64 -0.21,-0.34 -0.07,-0.29 0.1,-0.93 0.25,-0.95 0.28,-0.93 0.86,-0.92 0.95,0.01 0.73,-0.17 1,-0.77 0.05,-0.11 0.07,-0.22 0.11,-0.34 0.14,-0.41 0.29,-0.77 -0.29,-0.78 -0.51,-0.01 -0.87,0.02 -0.5,-0.88 0.28,-0.68 0.26,-0.73 0.75,-0.73 0.51,-0 0.9,0.12 1.03,-0.35l0.2 -0.56c0.09,-0.21 0.12,-0.35 0.17,-0.58 0.02,-0.07 0.07,-0.23 0.05,-0.3 -0.06,-0.24 -0.1,0 -0.13,-0.25 0.3,-0.16 0.62,0.12 0.16,-0.98 -0.32,-0.75 -0.34,-0.79 -1.09,-0.79 -0.14,0 -0.16,0.03 -0.25,0.03 -0.23,0 -0.36,-0.15 -0.8,0.27 -0.14,0.14 -0.31,0.26 -0.47,0.38 -0.18,0.13 -0.26,0.28 -0.43,0.42 -0.17,0.14 -0.31,0.28 -0.41,0.48zm-7.97 7.98c0,0.71 -0.03,0.72 0.34,1.22 0.32,0.44 1.13,0.56 1.7,0.56 0.19,0 0.24,-0.03 0.39,-0.03 0.35,0 0.22,-0.08 0.63,-0.18 0.13,-0.03 0.28,-0.05 0.37,-0.1 0.1,-0.05 0.14,-0.14 0.22,-0.22 0.09,-0.08 0.16,-0.1 0.27,-0.18 0.33,-0.26 0.18,-0.03 0.5,-0.42 0.54,-0.67 0.31,-0.45 0.67,-1.17 0.06,-0.11 0.11,-0.18 0.16,-0.29 0.05,-0.11 0.06,-0.23 0.11,-0.35 0.02,-0.05 0.05,-0.1 0.07,-0.15 0.12,-0.31 0.21,-0.48 0.14,-0.81 -0.5,-0.13 -1.29,-0.08 -1.86,-0.08 -0.35,0 -0.44,0.65 -0.54,0.89 -0.05,0.13 -0.09,0.2 -0.14,0.35 -0.08,0.28 -0.22,0.85 -0.51,0.96 -0.67,0.25 0.22,-1.82 0.31,-2.21l0.81 -2.45c0.14,-0.34 0.23,-0.73 0.32,-0.92 0.17,-0.35 0.1,-0.59 0.46,-0.59 0.4,0 0.14,0.47 0.09,0.71 -0.11,0.55 -0.16,0.5 -0.22,0.73 -0.23,0.92 -0.47,1.01 0.26,1.13 0.31,0.05 0.38,-0.02 0.66,-0.02 0.4,0 0.86,0.21 1.09,-0.29 0.04,-0.1 0.07,-0.17 0.1,-0.28 0.12,-0.46 0.13,-0.36 0.26,-0.88l0.16 -0.59c0.08,-0.37 0.16,-1.16 -0.1,-1.47l-0.34 -0.4c-0.53,-0.44 -1.73,-0.46 -2.37,-0.23 -0.2,0.07 -0.39,0.11 -0.56,0.2 -0.68,0.36 -0.5,0.35 -0.87,0.68l-0.24 0.21c-0.24,0.26 -0.22,0.36 -0.42,0.7 -0.09,0.15 -0.17,0.38 -0.24,0.55l-0.23 0.57c-0.08,0.21 -0.01,0.17 -0.18,0.57 -0.17,0.39 -0.1,0.38 -0.18,0.62 -0.07,0.22 -0.17,0.35 -0.23,0.6 -0,0.01 -0,0.02 -0.01,0.03l-0.27 0.83c-0.04,0.2 -0.02,0.16 -0.1,0.31 -0.09,0.16 -0.49,1.77 -0.49,1.91zm-9.74 -1.26c-0.03,0.11 -0.01,0.23 -0.03,0.35l-0.24 1.13c-0.03,0.11 -0.03,0.14 -0.05,0.29 -0.04,0.26 -0.09,0.46 -0.09,0.71 0,0.43 0.77,0.38 1.07,0.34 0.31,-0.04 0.42,0.01 0.76,0.01l1 0c0.55,0 0.51,-0.16 0.63,-0.44l0.09 -0.18c0.01,-0.02 0.03,-0.1 0.03,-0.12 0.06,-0.24 0.16,-0.37 0.27,-0.6 0.13,-0.28 0.22,-0.56 0.35,-0.82 0.07,-0.15 0.12,-0.23 0.2,-0.4 0.06,-0.15 0.1,-0.27 0.16,-0.41l0.93 -2c0.06,-0.14 0.08,-0.26 0.15,-0.41 0.07,-0.15 0.15,-0.23 0.22,-0.37 0.08,-0.15 0.08,-0.29 0.23,-0.33 0.07,0.15 0.04,0.08 -0.01,0.21 -0.15,0.35 -0.27,0.79 -0.36,1.16l-0.45 1.36c-0.11,0.25 -0.48,1.65 -0.45,1.91 0.03,0.3 0.11,0.76 0.25,0.93 0.49,0.64 1.26,0.7 1.99,0.7 0.52,0 0.84,-0.27 1.12,-0.37 0.75,-0.29 0.4,-0.17 0.84,-0.64 0.25,-0.27 0.48,-0.51 0.64,-0.85 0.06,-0.14 0.1,-0.18 0.17,-0.32 0.07,-0.13 0.09,-0.25 0.14,-0.39 0.06,-0.16 0.11,-0.19 0.16,-0.33 0.08,-0.26 0.14,-0.54 0.25,-0.77 0.08,-0.17 0.11,-0.39 0.18,-0.57 0.1,-0.26 0.1,-0.39 0.17,-0.59 0.04,-0.12 0.11,-0.22 0.15,-0.33 0.05,-0.14 0.06,-0.29 0.1,-0.43 0.08,-0.27 0.22,-0.47 0.26,-0.76 0.02,-0.13 0.13,-0.36 0.22,-0.77 0.13,-0.66 0.34,-0.9 0.06,-1.68 -0.13,-0.37 -0.43,-0.57 -0.75,-0.74 -0.47,-0.24 -1.51,-0.23 -2,-0.02 -0.67,0.28 -0.73,0.24 -1.41,0.87 -0.11,0.11 -0.1,0.17 -0.26,0.18 -0.05,-0.1 -0.04,0.03 -0.04,-0.12 0,-0.07 0.07,-0.31 0.09,-0.4 0.05,-0.16 0.09,-0.21 0.12,-0.37 -0.1,-0.07 -0.12,-0.15 -0.29,-0.15l-1.57 0c-0.23,0 -0.39,0.09 -0.48,0.29 -0.09,0.2 -0.17,0.32 -0.26,0.53l-0.45 1.13c-0.19,0.44 -0.38,1 -0.58,1.41 -0.05,0.1 -0.07,0.17 -0.11,0.26 -0.06,0.13 -0.15,0.43 -0.29,0.49 0.09,-0.21 0,-0.02 0,-0.19l0.09 -0.52c0.05,-0.19 0.1,-0.16 0.13,-0.44 0.03,-0.31 0.12,-0.65 0.19,-0.95 0.15,-0.64 0.34,-1.27 0.34,-1.94l-0.68 -0.11c-0.14,0 -0.15,0.05 -0.35,0.03 -0.12,-0.02 -0.19,-0.03 -0.37,-0.03 -0.94,0 -0.77,-0.04 -1.01,0.69 -0.18,0.55 -0.21,1.23 -0.33,1.8 -0.04,0.2 -0.11,0.35 -0.12,0.56 -0.02,0.23 -0.01,0.15 -0.06,0.33 -0.13,0.49 -0.15,0.98 -0.27,1.48l-0.24 1.17c-0.06,0.53 -0.07,0.28 -0.14,0.55z"/>
   <path class="fil2" d="M6.95 17.51c0,0.34 0.03,0.27 0.72,0.27 0.16,0 0.35,-0.26 0.65,-0.3 0.21,-0.03 0.21,0.06 0.42,-0.04 0.52,-0.24 0.31,-0.07 0.74,-0.09 0.06,-0.17 0.07,-0.39 0.09,-0.59 0.03,-0.25 0.07,-0.42 0.09,-0.64l0.41 -3.11c0.03,-0.2 0.08,-0.43 0.09,-0.63l0.73 5.03c0.04,0.14 0.09,0.12 0.19,0.22 0.08,0.08 0.12,0.14 0.26,0.14l2 0c0.32,0 0.48,-2.09 0.57,-2.63l0.39 -2.9c0.1,-0.65 0.16,-1.27 0.27,-1.91l0.64 -4.78c0.06,-0.62 0.18,-0.52 -0.47,-0.56 -0.34,-0.02 -1.74,-0.1 -1.96,0.02 -0.08,0.17 -0.05,0.42 -0.08,0.65 -0.02,0.17 -0.08,0.43 -0.11,0.65 -0.06,0.45 -0.13,0.86 -0.17,1.32l-0.31 2.32c-0.04,0.16 -0.04,0.14 -0.04,0.34 -0.09,-0.07 -0.09,-0.12 -0.12,-0.26l-0.37 -2.34c-0.04,-0.3 -0.37,-2.6 -0.44,-2.68 -0.1,-0.13 -2.31,-0.08 -2.47,-0.08 -0.08,0.18 -0.4,2.71 -0.45,3.1l-1.15 8.67c-0.03,0.16 -0.03,0.23 -0.05,0.41 -0.01,0.08 -0.06,0.29 -0.06,0.4z"/>
   <path class="fil2" d="M24.29 15.27c0,-0.35 0.21,-1.72 0.27,-2.18l0.21 -1.62c0.01,-0.08 0.04,-0.14 0.06,-0.25l0.31 -2.4c0.06,-0.35 0.17,-1.28 0.32,-1.5 0.2,-0.31 0.71,-0.32 0.69,0.17 -0.03,0.71 -0.09,0.72 -0.13,1.21 -0.09,0.98 -0.27,1.92 -0.39,2.9l-0.24 1.79c-0.02,0.15 -0.07,0.4 -0.09,0.56 -0.05,0.4 -0.19,1.48 -0.37,1.8 -0.05,0.09 -0.15,0.16 -0.28,0.16 -0.41,0 -0.36,-0.15 -0.36,-0.62zm-2.9 -0.35c0,0.95 0,1.6 0.69,2.34 0.19,0.21 0.15,0.25 0.53,0.24l2.25 0.01c0.45,0.06 0.48,-0.12 0.61,-0.12 0.57,0 0.37,0.04 0.51,0.05 0.07,0.01 0.11,-0.03 0.21,-0.04 0.2,-0.03 0.34,0.04 0.49,-0.05 0.15,-0.09 0.47,-0.42 0.58,-0.57 0.41,-0.55 0.55,-0.9 0.73,-1.56 0.18,-0.66 0.71,-4.61 0.84,-5.57 0.11,-0.84 0.25,-1.93 0.1,-2.72 -0.23,-1.22 -1.38,-2.04 -2.51,-2.04 -0.59,0 -1.02,-0.04 -1.58,0.15 -0.29,0.1 -0.63,0.22 -0.89,0.39 -0.08,0.05 -0.17,0.12 -0.26,0.19 -0.13,0.09 -0.13,0.11 -0.23,0.21 -0.1,0.1 -0.15,0.11 -0.23,0.22 -0.64,0.84 -0.86,1.47 -1.02,2.53l-0.33 2.34c-0.03,0.29 -0.08,0.51 -0.11,0.81 -0.02,0.16 -0.03,0.21 -0.06,0.36l-0.25 2.01c-0.02,0.16 -0.03,0.29 -0.05,0.41 -0.03,0.15 -0.04,0.24 -0.04,0.42z"/>
   <path class="fil2" d="M17.42 13.11c0,-0.16 0.86,-3.67 0.94,-3.96 0.09,-0.31 0.06,-0.43 0.17,-0.51 0.05,0.1 0.02,0.97 -0.01,1.19 -0.08,0.72 -0.1,2.41 -0.16,2.91 -0.03,0.2 0.06,0.49 -0.12,0.49 -0.49,0 -0.82,0.08 -0.82,-0.12zm-3.68 3.93c0.23,-0.01 0.19,-0.15 0.65,-0.37 0.22,-0.11 0.56,-0.09 0.86,-0.19 0.9,-0.29 1.29,0.39 1.52,0.49 0.13,-0.35 0.05,-0.14 0.13,-0.48 0.29,-1.19 0.03,-0.94 0.83,-0.95 0.46,-0.01 0.36,-0.09 0.32,0.85 -0.02,0.53 -0.07,0.6 -0.07,1.23 0.22,0.04 0.18,-0.04 0.5,-0.04 0.41,0 0.13,0.41 0.79,0.08 0.11,-0.05 0.15,-0.08 0.28,-0.13 0.14,-0.05 0.46,-0.14 0.65,-0.15 1.11,-0.03 0.75,0.5 0.79,-2.93 0,-0.22 0.05,-0.26 0.04,-0.46 -0.01,-0.18 -0.04,-0.24 -0.04,-0.46 0,-0.33 0.06,-0.62 0.03,-0.92l0.01 -2.09c0,-0.23 -0.05,-0.3 -0.02,-0.48l0.03 -4.72c-0,-0.33 -0.16,-0.24 -0.91,-0.23 -0.24,0 -0.32,-0.04 -0.53,-0.04l-1.68 0c-0.42,0 -0.71,-0.04 -1.11,-0.04 -0.17,0.27 -0.4,1.43 -0.5,1.82 -0.03,0.13 -0.08,0.27 -0.1,0.39l-1.42 5.64c-0.04,0.16 -0.06,0.23 -0.1,0.39 -0.13,0.55 -0.95,3.64 -0.95,3.79z"/>
   <path class="fil2" d="M10.13 26.95c0,0.23 -0.38,1.29 -0.47,1.58l-1.15 3.46c-0.05,0.13 -0.08,0.21 -0.15,0.34 -0.15,0.29 -0.42,0.41 -0.58,0.34 -0.13,-0.05 -0.02,-0.19 0.02,-0.33 0.04,-0.12 0.07,-0.25 0.11,-0.38l0.26 -0.77c0.24,-0.66 0.47,-1.5 0.69,-2.14 0.22,-0.62 0.45,-1.47 0.67,-2.09 0.04,-0.12 0.08,-0.29 0.19,-0.29 0.24,0 0.39,-0.01 0.39,0.27zm2.32 -0.62c0,-1.17 -0.8,-1 -1.05,-1.07 -0.15,-0.04 -0.2,-0.09 -0.33,-0.15 -0.32,-0.14 -2.34,-0.13 -2.95,-0.13 -0.21,0 -0.22,0.26 -0.32,0.54l-0.97 3c-0.04,0.12 -0.07,0.21 -0.11,0.34l-1.08 3.31c-0.04,0.12 -0.08,0.21 -0.12,0.34l-0.32 1.01c-0.36,1.02 -0.49,0.83 1.3,0.83 0.99,0 2.32,0.09 3,-0.35 0.22,-0.14 0.29,-0.19 0.46,-0.39 0.45,-0.53 0.82,-1.73 1.05,-2.49 0.07,-0.21 0.14,-0.42 0.21,-0.66 0.2,-0.63 1.21,-3.46 1.21,-4.13z"/>
   <path class="fil2" d="M40.34 22.05c0.02,-0.2 -0,-0.04 0.04,-0.15 0.07,-0.2 0.71,-1.61 0.82,-1.74 0,0.36 -0.29,1.17 -0.39,1.55 -0.1,0.41 -0.12,0.43 -0.47,0.34zm4.27 -2.06c0.04,-0.12 0.06,-0.18 0.1,-0.31l0.11 -0.31c0.04,-0.13 0.08,-0.17 0.16,-0.25 0.08,0.04 0.18,0.06 0.18,0.19 0,0.15 -0.17,0.6 -0.23,0.72 -0.12,0.25 -0.11,0.44 -0.45,0.44l0 -0.15 0.12 -0.33zm-3.75 -2.02c-0.05,0.1 -0.09,0.16 -0.15,0.29 -0.06,0.12 -0.11,0.21 -0.16,0.33l-0.84 1.79c-0.05,0.12 -0.04,0.09 -0.08,0.18l-1.22 2.62c0,0.12 0.25,0.64 0.31,0.79 0.18,0.44 0.11,0.45 0.66,0.45l0.24 -0.55c0.08,-0.19 0.17,-0.39 0.26,-0.57l0.39 0c0.04,0.19 -0.03,0.28 -0.08,0.49 -0.08,0.28 -0.25,0.63 -0.02,0.63l2.75 0c0.19,0 0.37,-0.77 0.48,-1.03l0.54 -1.5c0.06,-0.2 0.06,-0.33 0.23,-0.33 0.15,0 0.14,0.14 0.14,0.23 0,0.17 0,-0.02 -0.05,0.14 -0.02,0.06 -0.03,0.11 -0.05,0.18l-0.55 1.53c-0.32,0.89 -0.35,0.78 0.4,0.78 0.92,-0 0.61,0.37 1.34,-1.64l0.29 -0.84c0.13,-0.54 -0.12,-0.58 -0.27,-0.83 0.18,-0.13 0.37,-0.13 0.53,-0.32 0.44,-0.54 1.15,-2.27 0.43,-2.64 -0.48,-0.25 -1.85,-0.16 -2.46,-0.16 -0.15,0 -0.15,0.11 -0.2,0.25l-1.62 4.5c-0.03,0.1 -0.03,0.08 -0.06,0.17 -0.04,0.11 -0.08,0.26 -0.16,0.32 0,-0.45 0.58,-2.71 0.7,-3.29 0.02,-0.11 0.04,-0.2 0.07,-0.31 0.02,-0.08 0.03,-0.08 0.04,-0.15 0.02,-0.07 0.02,-0.12 0.03,-0.19 0.07,-0.32 0.29,-1 0.23,-1.3 -0.63,0 -1.53,-0.09 -2.09,0z"/>
   <path class="fil2" d="M45.07 7.95l-0.05 0.96c-0.09,0.93 -0.11,1.91 -0.18,2.81 -0.01,0.14 -0.05,0.28 -0.07,0.43 -0.03,0.32 -0.03,1.14 -0.08,1.41 -0.05,0.26 -1.04,0.87 -1.31,1.1 -0.1,0.09 -0.17,0.11 -0.28,0.2l-2.47 1.85c-0.53,0.43 -0.48,0.41 -1.01,0.33 -0.23,-0.03 -0.54,-0.09 -0.8,-0.15l-4.71 -0.93c-0.23,-0.07 -0.36,-0.28 -0.5,-0.47l-0.52 -0.67c-0.04,-0.05 -0.03,-0.04 -0.05,-0.06l-0.71 -0.89c-0.3,-0.36 -0.55,-0.71 -0.86,-1.08l-1.29 -1.62c-0.19,-0.22 -0.28,-0.32 -0.26,-0.72 0.01,-0.27 0.06,-0.63 0.07,-0.92 0.04,-0.82 0.03,-0.97 0.13,-1.86 0.05,-0.45 0.13,-2.57 0.19,-2.8 0.05,-0.2 1.09,-0.91 1.33,-1.08l2.47 -1.85c0.19,-0.14 0.36,-0.27 0.55,-0.41 0.3,-0.22 0.28,-0.2 0.7,-0.11 0.27,0.06 0.54,0.12 0.78,0.16l4.73 0.91c0.3,0.08 0.77,0.78 0.93,1l1.07 1.35c0.08,0.11 0.13,0.16 0.21,0.27l0.85 1.08c0.08,0.11 0.13,0.15 0.22,0.27 0.07,0.1 0.13,0.18 0.21,0.28 0.09,0.11 0.13,0.15 0.21,0.27 0.27,0.41 0.56,0.49 0.46,0.94zm-6.55 9.6c0.19,0 0.3,0.04 0.5,0.04 0.19,-0 0.38,-0 0.57,-0 0.37,0 0.74,0.02 1.11,0l4.02 -2.98c0.12,-0.09 0.19,-0.12 0.3,-0.22 0.45,-0.38 0.31,0.01 0.39,-1.15l0.14 -1.93c0.01,-0.31 0.06,-0.71 0.07,-1 0.03,-0.67 0.09,-1.3 0.14,-1.98 0.05,-0.74 0.18,-0.82 -0.47,-1.52l-1.32 -1.7c-0.47,-0.59 -1.14,-1.35 -1.58,-1.96 -0.08,-0.11 -0.14,-0.19 -0.23,-0.3l-0.68 -0.85c-0.17,-0.18 -0.4,-0.2 -0.73,-0.25l-5.41 -1.07c-0.74,-0.14 -0.68,-0.05 -1.11,0.24 -0.12,0.08 -0.19,0.11 -0.3,0.22 -0.16,0.16 -0.39,0.3 -0.57,0.43l-3.17 2.37c-0.11,0.08 -0.52,0.36 -0.55,0.45l-0.28 3.94c-0.08,0.74 -0.12,1.66 -0.19,2.46 -0.03,0.32 0.33,0.57 0.55,0.92l2.48 3.1c0.15,0.2 0.3,0.38 0.45,0.59l0.66 0.84c0.08,0.1 0.14,0.21 0.23,0.29 0.16,0.14 0.52,0.15 0.78,0.2l4.17 0.83z"/>
   <path class="fil1" d="M7.41 23.17c0,-0.13 0.08,-0.05 0.15,-0.41 0.11,-0.56 0.23,-0.31 0.33,-0.72 0.05,-0.2 0.02,-0.28 0.19,-0.33 0.05,0.12 -0.01,0.36 -0.06,0.51 -0.09,0.27 -0.1,0.42 -0.13,0.51 -0.07,0.19 -0.03,-0.03 -0.21,0.43 -0.08,0.21 -0.28,0.34 -0.28,0.01zm-4.5 -1.04c0,0.16 -0.02,0.5 0.25,0.5 0.17,0 0.26,-0.06 0.37,-0.14 0.11,-0.09 0.18,-0.14 0.26,-0.26 0.09,-0.13 0.14,-0.35 0.45,-0.27 0.27,0.07 0.2,0.25 0.07,0.49 -0.27,0.51 -0.34,0.51 -0.52,0.83 -0.19,0.34 0.04,0.09 -0.28,0.43 -0.19,0.2 -0.17,0.24 -0.29,0.38 -0.16,0.2 -1.1,0.93 -1.1,-0.3 0,-0.69 0.15,-1.16 0.49,-1.71 0.07,-0.12 0.09,-0.19 0.15,-0.3 0.28,-0.48 1.07,-0.44 0.42,-0.05 -0.1,0.06 -0.1,0.08 -0.17,0.16l-0.03 0.04c-0.07,0.1 -0.07,0.09 -0.07,0.2zm6.36 -0.69c0,-0.21 -0,-0.27 0.09,-0.4l0.05 -0.06c0.03,-0.04 0.03,-0.03 0.05,-0.06 0.12,-0.18 0.03,-0.19 0.15,-0.34 0.21,-0.26 0.19,-0.29 0.37,-0.29 0.05,0.24 -0.08,0.54 -0.22,0.69 -0.3,0.31 -0.23,0.45 -0.49,0.47zm-2.4 0.04c0,-0.03 0.32,-0.73 0.4,-1.03 0.08,-0.29 0.23,-0.82 0.53,-0.9l0.04 0.03c0.27,0.27 -0.03,0.51 -0.12,0.69l-0.38 1.06c-0.06,0.11 -0.17,0.38 -0.29,0.38 -0.13,0 -0.18,-0.06 -0.18,-0.23zm-1.54 -0.58c0.13,-0.14 0.09,-0.02 0.19,-0.26l0.51 -0.88c0.09,-0.09 0.16,-0.1 0.23,-0.22 0.12,-0.22 -0.05,-0.09 0.19,-0.26 -0,0.22 -0.07,0.17 -0.13,0.33 -0.08,0.23 0.07,0.73 -0.11,1.19 -0.05,0.13 -0.09,0.17 -0.13,0.32 -0.05,0.18 -0.02,0.18 -0.09,0.32 -0.17,0.32 -0.46,0.31 -0.75,0.19l-0.18 -0.08 0.28 -0.66zm2.72 -2.16c-0.46,0 -0.33,-0.54 -0.75,-0.54 -0.51,0 -0.69,0.42 -0.9,0.65l-0.34 0.44c-0.1,0.12 -0.08,0.08 -0.15,0.22l-0.84 1.53c-0.13,0.26 -0.24,0.59 -0.59,0.59 -0.71,0 -0.36,-0.93 -1.58,-0.58 -0.26,0.07 -0.58,0.36 -0.79,0.54l-0.39 0.46c-0.28,0.4 -0.65,1.6 -0.55,2.11 0.18,0.89 0.71,1.05 1.45,0.78 0.28,-0.1 0.23,-0.12 0.42,-0.31 0.17,-0.18 0.49,-0.29 0.6,-0.51 0.06,-0.12 0.07,-0.18 0.13,-0.29l0.29 -0.46c0.07,-0.1 0.08,-0.11 0.14,-0.23 0.05,-0.1 0.08,-0.14 0.14,-0.24 0.27,-0.44 0.35,-0.84 0.79,-0.84 0.28,0 0.43,0.04 0.43,0.31 0,0.45 -0.24,0.65 -0.33,1.03 -0.08,0.31 -0,0.11 -0.13,0.32 -0.05,0.08 -0.17,0.57 -0.21,0.7l-0.21 0.7c-0.06,0.18 -0.06,0.11 -0.1,0.36 -0.1,0.65 -0.24,1.26 0.22,1.8 0.08,0.09 0.16,0.14 0.26,0.18 0.27,0.12 0.54,0.14 0.8,0.01 0.12,-0.06 0.24,-0.14 0.27,-0.28 -0.14,-0.1 -0.32,-0.13 -0.46,-0.23 -0.36,-0.25 -0.1,-1.68 -0.04,-1.97 0.05,-0.21 0.11,-0.27 0.16,-0.48 0.12,-0.5 0.32,-0.93 0.49,-1.4 0.11,-0.3 0.15,-0.73 0.53,-0.74 0.06,0.29 -0.02,0.43 -0.09,0.72 -0.28,1.19 0.54,1.28 0.94,0.44 0,-0.01 0.01,-0.02 0.01,-0.03l0.03 -0.05c0.24,-0.3 0.46,0.35 0.88,0.29 0.04,-0.01 0.27,-0.07 0.31,-0.09l0.42 -0.31c0.18,-0.15 0.26,-0.38 0.42,-0.55l0.33 -0.42c0.15,-0.18 0.52,-0.9 0.61,-1.11 0.06,-0.13 0.12,-0.14 0.06,-0.28 -0.15,0.04 -0.15,0.17 -0.22,0.3 -0.08,0.13 -0.11,0.24 -0.18,0.38 -0.09,0.19 -0.25,0.35 -0.33,0.49 -0.04,0.07 -0.05,0.12 -0.1,0.21 -0.18,0.31 -0.32,0.33 -0.52,0.55 -0.16,0.18 -0.45,0.49 -0.62,0.11 -0.1,-0.22 0.04,-0.67 0.21,-0.82l0.68 -0.7c0.06,-0.05 0.08,-0.07 0.13,-0.13 0.14,-0.14 0.12,-0.16 0.22,-0.34 0.23,-0.42 0.34,-0.5 0.34,-1.02 0,-0.33 -0.52,-0.35 -0.92,-0.03 -0.16,0.13 -0.32,0.23 -0.46,0.39 -0.07,0.09 -0.11,0.17 -0.16,0.25l-0.29 0.38c-0.04,0.06 -0.04,0.07 -0.09,0.14l-0.19 0.25c0,-0.43 0.21,-0.51 0.3,-0.84l0.2 -0.55c0.06,-0.14 0.29,-0.69 0.43,-0.69 0.29,0 0.09,0.23 0.43,0.23 0.08,0 0.26,-0.25 0.33,-0.34 0.13,-0.15 0.12,-0.24 0.29,-0.38 0.41,-0.34 0.73,-0.37 0.63,-0.82 -0.11,0 -0.14,0.04 -0.22,0.11 -0.4,0.39 -0.64,-0.51 -0.97,0.11 -0.14,0.25 -0.07,0.17 -0.27,0.17 -0,-0.03 -0.04,-0.42 -0.05,-0.45 -0.07,-0.29 -0.58,-0.36 -0.68,-0.06 -0.07,0.19 -0.17,0.86 -0.6,0.86z"/>
   <path class="fil2" d="M10.48 34.2c0,0.07 0.01,0.08 0.02,0.13 0.18,0.06 3.08,0.03 3.52,0.03 0.25,0 0.19,-0.08 0.34,-0.48 0.07,-0.21 0.16,-0.45 0.22,-0.66 0.22,-0.82 0.44,-0.75 -0.52,-0.75 -1.04,0 -0.88,0.27 -0.38,-1.33 0.05,-0.16 0.17,-0.5 0.24,-0.63 1.58,-0.01 1.24,0.2 1.58,-0.8 0.32,-0.94 0.4,-1.05 -0.04,-1.03l-0.92 -0.03c-0.01,-0.18 0.46,-1.56 0.48,-1.59 0.11,-0.14 0.31,-0.1 0.51,-0.1 1.05,0 0.93,0.13 1.07,-0.35 0.03,-0.11 0.52,-1.4 0.43,-1.5 -0.08,-0.09 -2.3,-0.05 -2.61,-0.05 -0.23,0 -0.46,-0.04 -0.72,-0.03 -0.31,0.02 -0.31,0.25 -0.48,0.76l-0.7 2.17c-0.07,0.21 -0.13,0.4 -0.21,0.63 -0.26,0.78 -0.81,2.39 -1.01,3.11 -0.12,0.42 -0.82,2.37 -0.82,2.51z"/>
   <path class="fil2" d="M34.83 23.15c-0.23,-0.21 -0.34,-0.01 -0.82,-0.13 0,-0.18 0.11,-0.47 0.17,-0.63 0.08,-0.2 0.13,-0.38 0.21,-0.58l0.51 -1.45c0.04,-0.13 0.07,-0.17 0.12,-0.3l0.6 -1.78c0,-0.13 -0.15,-0.14 -0.26,-0.19 -0.25,-0.1 -0.08,-0.01 -0.32,0.06 -0.16,0.04 -0.68,0.01 -0.88,0.01l-0.57 1.55c-0.32,0.93 -0.7,2.07 -1.05,2.96l-0.36 1.01c-0.07,0.17 -0.35,0.73 -0.07,0.73l2 0c0.29,0 0.29,-0.23 0.42,-0.4 0.21,-0.16 -0.04,0.21 0.44,-0.23 0.15,-0.13 0.27,-0.24 0.41,-0.37 0.51,-0.47 0.48,-0.4 1.06,-0.43 0.1,-0.19 0.17,-0.41 0.25,-0.65 0.23,-0.7 0.18,-0.62 0.53,-0.62 0,0.4 -0.46,1.09 -0.32,1.23 0.07,0.07 0.78,0.06 1.04,0.08 0.39,0.03 0.44,0.01 0.62,-0.6 0.06,-0.2 0.14,-0.41 0.21,-0.62l0.8 -2.22c0.01,-0.02 0.02,-0.06 0.03,-0.08l0.48 -1.45c0,-0.2 -0.93,-0.12 -1.29,-0.12 -0.3,0 -0.33,0.5 -0.52,0.94l-0.29 0.81c-0.05,0.13 -0.07,0.17 -0.11,0.31 -0.08,0.26 -0.1,0.25 -0.3,0.25 -0.19,0 -0.06,-0.29 0.02,-0.51 0.07,-0.2 0.13,-0.35 0.2,-0.55 0.1,-0.26 0.42,-1 0.35,-1.22 -0.15,-0.05 -0.97,-0.03 -1.19,-0.03 -0.39,0 -0.58,0.91 -0.79,1.46l-0.61 1.7c-0.17,0.51 -0.59,1.74 -0.75,2.06z"/>
   <path class="fil2" d="M23.93 20.4c-0.13,0 -0.1,-0.08 -0.08,-0.15l0.24 -0.67c0.04,-0.12 0.11,-0.36 0.16,-0.45 0.08,-0.14 0.29,-0.12 0.29,0.04 0,0.21 -0.23,1.23 -0.61,1.23zm-3.04 3.89c0.23,0.14 0.95,0.08 1.36,0.08 0.18,0 0.19,-0.08 0.24,-0.24 0.05,-0.13 0.09,-0.25 0.14,-0.39l0.73 -2.07c0.02,-0.05 0.02,-0.06 0.03,-0.08 0.04,-0.11 0,0.05 0.04,-0.11 0.29,0 0.31,0.1 0.18,0.5l-0.58 1.69c-0.07,0.19 -0.21,0.5 -0.17,0.66 0.14,0.08 1.06,0.04 1.29,0.04 0.15,0 0.3,-0.68 0.44,-0.99 0.04,-0.1 0.04,-0.08 0.08,-0.22l0.29 -0.88c0.06,-0.17 0.11,-0.26 0.15,-0.45 0.06,-0.29 -0.01,-0.69 -0.32,-0.77 0.25,-0.37 0.49,0.3 1.19,-1.65 0.07,-0.2 0.13,-0.59 0.13,-0.86 0,-0.1 -0.17,-0.42 -0.25,-0.42 -0.24,0 -0.44,0.08 -0.65,0 -0.18,-0.07 -0.24,-0.27 -0.46,-0.27l-1.54 0c-0.14,0 -0.31,0.61 -0.35,0.74l-1.97 5.7z"/>
   <path class="fil2" d="M28.68 23.52c0,1.36 2.81,1.52 3.57,-0.78l1.24 -3.48c0.02,-0.07 0.03,-0.09 0.05,-0.14 0.05,-0.13 0.31,-0.76 0.25,-0.89 -0,-0.01 0.05,-0.16 -0.31,-0.11 -0.66,0.08 -1.06,-0.1 -1.19,0.15l-1.73 4.81c-0.06,0.13 -0.11,0.23 -0.28,0.24 -0.12,-0.15 0.1,-0.59 0.15,-0.73l1.33 -3.77c0.06,-0.17 0.2,-0.48 0.17,-0.63 -0.19,-0.1 -0.82,-0.04 -1.18,-0.04 -0.36,0 -0.22,-0.26 -0.56,0.71l-0.79 2.27c-0.04,0.14 -0.03,0.09 -0.07,0.19 -0.05,0.13 -0.07,0.22 -0.11,0.34 -0.18,0.52 -0.54,1.31 -0.54,1.85z"/>
   <path class="fil2" d="M19.21 23.29c-0.26,0 0.12,-0.83 0.23,-1.18l0.62 -1.79c0.13,-0.36 0.4,-1.27 0.62,-1.39 0.44,-0.23 0.03,0.77 -0.05,0.96l-0.88 2.49c-0.04,0.12 -0.05,0.16 -0.09,0.29 -0.03,0.1 -0.07,0.17 -0.11,0.26 -0.09,0.18 -0.11,0.37 -0.33,0.37zm0.04 -4.59c0.03,0.04 -0,-0.01 0.05,0.07 0.01,0.02 0.05,0.09 0.05,0.1 0.14,0.35 -0.28,1.02 -0.49,1.37 -0.35,0.6 -0.66,0.91 -0.83,1.42 -0.13,0.41 -0.49,1.36 -0.48,1.73 0.02,0.4 0.11,0.59 0.33,0.79 0.52,0.48 1.54,0.3 2.09,0.03 0.45,-0.23 0.85,-0.68 1.08,-1.18 0.25,-0.55 1.39,-3.7 1.4,-4.14 0.04,-1.67 -2.44,-1.43 -3.2,-0.19z"/>
   <path class="fil2" d="M28.33 18.16c-0.4,0 -0.41,0.04 -0.66,-0.07 -0.16,-0.07 -0.04,-0.05 -0.16,-0.01 -0.01,0 -0.02,0.01 -0.02,0.01l-0.05 0.02c-0.35,0.11 -0.46,0.08 -0.84,0.6 -0.34,0.45 -0.97,2.32 -1.22,3.05 -0.21,0.6 -0.63,1.55 -0.41,2.15 0.03,0.08 0.14,0.24 0.19,0.29 0.26,0.27 0.53,0.28 0.85,0.28 0.39,0 0.68,-0.27 0.97,-0.42 0,0.33 0.07,0.34 0.39,0.34 0.74,0.01 0.56,0.1 1.03,-1.23l0.71 -2.05c0.03,-0.09 0.05,-0.22 -0.1,-0.22 -1.91,0 -1.53,-0.15 -1.81,0.52l-0.12 0.41c0.08,0.13 0.06,0.09 0.18,0.15 -0.02,0.2 -0.18,0.65 -0.26,0.84 -0.12,0.28 -0.18,0.56 -0.52,0.48 0,-0.33 0.59,-1.89 0.74,-2.29 0.19,-0.51 0.39,-1.17 0.6,-1.67 0.08,-0.19 0.12,-0.4 0.35,-0.4 0.22,0 0.05,0.34 -0.06,0.67 -0.29,0.91 -0.51,0.72 1.2,0.72 0.22,0 0.5,-1.25 0.5,-1.58 0,-0.17 -0.09,-0.38 -0.16,-0.48 -0.05,-0.07 -0.11,-0.09 -0.16,-0.13l-0.07 -0.04c-0.23,-0.14 -0.1,-0.09 -0.3,0.01 -0.29,0.15 -0.37,-0.02 -0.48,-0.09 -0.05,0.03 -0.01,0 -0.07,0.05 -0.01,0 -0.01,0.01 -0.02,0.02 -0.1,0.08 -0.09,0.09 -0.2,0.09z"/>
   <path class="fil2" d="M39.37 32c0,0.09 0.06,0.15 0.14,0.15l1.25 0c0.25,0 0.32,-0.4 0.44,-0.75l1.01 -2.69c0.05,-0.15 0.11,-0.27 0.17,-0.43l1.02 -2.68c0.05,-0.11 0.19,-0.38 -0.04,-0.38l-1.97 0c-0.14,0 -0.17,0.21 -0.21,0.32 -0.02,0.08 -0.04,0.14 -0.06,0.2l-1.77 6.26z"/>
   <path class="fil2" d="M41.84 32.04c0,0.09 0.02,0.12 0.11,0.12 1.6,0 1.37,0.12 1.55,-0.33l2.46 -6.46c0,-0.15 -0.06,-0.13 -0.26,-0.13 -0.22,0 -1.7,-0.06 -1.85,-0.01 -0.17,0.06 -0.29,0.72 -0.37,0.99l-0.46 1.58c-0.14,0.63 -0.45,1.48 -0.59,2.1 -0.09,0.38 -0.22,0.7 -0.31,1.06 -0.06,0.27 -0.29,0.89 -0.29,1.08z"/>
   <path class="fil2" d="M36.91 32c0,0.09 0.06,0.15 0.14,0.15l1.29 0c0.21,0 0.31,-0.54 0.41,-0.76l0.33 -0.84c0.03,-0.11 0.02,-0.1 0.06,-0.2l1.88 -5.14 -1.97 -0.04c-0.25,0 -0.23,0.1 -0.3,0.32l-0.65 2.23c-0.03,0.1 -0.04,0.17 -0.07,0.27l-0.14 0.47c-0.05,0.18 -0.09,0.32 -0.14,0.5l-0.85 3.02z"/>
   <path class="fil1" d="M14.24 18.51c0,1.15 0.31,2.06 0.32,2.74 0.02,0.73 0.07,1.08 -0.2,1.79 -0.4,1.08 -1.58,1.72 -2.26,1.16 -0.34,-0.28 -0.31,-1.1 -0.17,-1.46l0.21 -0.5c0.06,-0.14 0.56,-0.68 0.73,-0.68 0.19,0 0.43,0.18 0.43,0.46 0,0.27 -0.07,0.37 -0.07,0.62 0.18,0.13 0.01,0.12 0.43,0.12 0.18,0 0.28,-0.17 0.33,-0.34 0.16,-0.55 -0.02,-1.24 -0.72,-1.24 -0.21,0 -0.33,0.01 -0.54,0.12 -0.11,0.06 -0.19,0.14 -0.28,0.24 -0.31,0.34 -0.35,0.45 -0.45,0.56 -0.11,0.12 -0.24,0.49 -0.33,0.69 -0.24,0.55 -0.29,1.92 0.84,2.02 0.44,0.04 1.26,-0.13 1.66,-0.33 0.26,-0.13 0.84,-0.64 1.03,-0.98 0.22,-0.39 0.17,-0.17 0.31,-0.7 0.21,-0.81 0.19,-0.45 0.19,-1.34 0,-0.82 -0.29,-1.91 -0.29,-2.66 0,-0.39 -0.19,-1.43 0.29,-1.43 0.32,0 0.42,0.38 0.45,0.71 0.01,0.13 -0.04,0.37 -0.07,0.51 -0.04,0.17 -0.35,0.75 0.19,0.75 0.15,0 0.24,-0.1 0.31,-0.21 0.3,-0.49 0.16,-0.46 0.2,-0.87 0.04,-0.4 -0.13,-0.88 -0.43,-1.12 -0.47,-0.37 -0.4,-0.35 -1.04,-0.35 -0.24,0 -0.68,0.4 -0.79,0.57 -0.09,0.12 -0.14,0.35 -0.2,0.52 -0.06,0.18 -0.08,0.41 -0.08,0.65z"/>
   <path class="fil2" d="M16.1 3.86c0.15,0.25 0.85,0.82 0.97,0.85 0.31,-0.22 0.57,-1.08 1.5,-0.58 0.33,0.17 1.2,0.58 1.54,0.58 0.76,0 1.27,-0.37 1.71,-0.97 0.36,-0.48 0.25,-0.48 -0.4,-1.07 -0.5,-0.45 -0.34,-0.22 -0.61,0.06 -0.56,0.6 -1.03,0.16 -1.78,-0.15 -0.62,-0.25 -1.16,-0.37 -1.77,-0.02 -0.41,0.24 -0.96,0.87 -1.17,1.29z"/>
   <path class="fil1" d="M38.52 17.54l-4.17 -0.83c-0.25,-0.06 -0.62,-0.06 -0.78,-0.2 -0.09,-0.08 -0.15,-0.19 -0.23,-0.29l-0.66 -0.84c-0.16,-0.21 -0.3,-0.39 -0.45,-0.59l-2.48 -3.1c-0.22,-0.34 -0.58,-0.59 -0.55,-0.92 0.06,-0.8 0.1,-1.71 0.18,-2.46l0.28 -3.94c0.03,-0.09 0.43,-0.37 0.55,-0.45l3.17 -2.37c0.18,-0.13 0.41,-0.27 0.57,-0.43 0.11,-0.1 0.17,-0.13 0.3,-0.22 0.43,-0.29 0.37,-0.38 1.11,-0.24l5.41 1.07c0.33,0.05 0.57,0.07 0.73,0.25l0.68 0.85c0.08,0.1 0.15,0.19 0.23,0.3 0.44,0.61 1.11,1.37 1.58,1.96l1.32 1.7c0.65,0.7 0.52,0.78 0.47,1.52 -0.05,0.68 -0.1,1.31 -0.14,1.98 -0.01,0.29 -0.07,0.69 -0.07,1l-0.14 1.93c-0.09,1.17 0.06,0.77 -0.39,1.15 -0.11,0.1 -0.18,0.13 -0.3,0.22l-4.02 2.98c0.19,-0.02 0.56,-0.17 0.72,-0.3 0.17,-0.13 0.37,-0.35 0.57,-0.47 0.12,-0.08 0.21,-0.08 0.33,-0.19 0.1,-0.09 0.15,-0.15 0.27,-0.25 0.15,-0.12 0.27,-0.13 0.38,-0.25 0.14,-0.17 0.34,-0.29 0.53,-0.4l1.2 -0.86c0.1,-0.08 0.18,-0.17 0.28,-0.24 0.18,-0.14 0.45,-0.25 0.54,-0.5 0.08,-0.23 0.1,-0.7 0.13,-0.94 0.03,-0.33 -0.03,-0.75 0.01,-1.06 0.05,-0.34 0.1,-0.6 0.1,-0.97 -0,-0.31 0.05,-0.68 0.09,-0.98 0.05,-0.34 -0.02,-0.71 0.03,-1.05 0.04,-0.3 0.07,-0.71 0.09,-0.99 0.01,-0.23 -0.03,-0.21 0.02,-0.44 0.08,-0.33 -0.2,-0.46 -0.34,-0.67 -0.41,-0.62 -0.4,-0.56 -0.8,-1.03 -0.28,-0.34 -0.5,-0.7 -0.8,-1.02 -0.11,-0.11 -0.14,-0.18 -0.23,-0.29l-0.81 -1.02c-0.06,-0.07 -0.06,-0.07 -0.11,-0.15l-0.11 -0.15c-0.13,-0.14 -0.21,-0.31 -0.35,-0.43 -0.19,-0.15 -0.22,-0.37 -0.45,-0.59 -0.08,-0.07 -0.07,-0.08 -0.12,-0.14 -0.31,-0.33 -0.22,-0.37 -0.33,-0.45 -0.13,-0.09 -0.26,-0.05 -0.37,-0.07 -0.13,-0.02 -0.26,-0.1 -0.38,-0.13 -0.63,-0.12 -0.57,-0.07 -1.26,-0.26 -0.21,-0.06 -0.47,-0.03 -0.67,-0.09l-0.65 -0.11c-0.19,-0.03 -0.25,-0.06 -0.41,-0.1l-0.83 -0.19c-0.48,-0.05 -0.97,-0.24 -1.28,-0.23 -1,0.01 -0.3,-0.7 -2.07,0.55 -0.1,0.07 -0.18,0.15 -0.28,0.24 -0.19,0.17 -0.39,0.28 -0.6,0.43l-0.45 0.33c-0.21,0.13 -0.37,0.34 -0.57,0.46 -0.37,0.21 -0.36,0.3 -0.58,0.45l-0.15 0.11c-0.11,0.08 -0.22,0.09 -0.32,0.19l-0.39 0.31c-0.09,0.06 -0.06,0.08 -0.16,0.17l-0.22 0.15c-0.07,0.04 -0.03,0.01 -0.09,0.06 -0.07,0.05 -0.07,0.07 -0.13,0.13 -0.13,0.14 -0.25,0.31 -0.2,0.54 0.05,0.29 -0.03,0.6 -0.07,0.9l-0.06 1.02c0.01,0.45 0.12,1.04 0.04,1.51 -0.03,0.18 -0.03,0.28 -0.05,0.48 -0.03,0.3 -0.07,0.63 -0.12,0.95 -0.03,0.23 0.01,0.55 -0.05,0.76 -0.26,0.92 0.25,0.98 0.61,1.62l0.69 0.88c0.12,0.18 0.11,0.07 0.36,0.42l1.04 1.31c0.19,0.16 0.49,0.71 0.69,0.91 0.01,0.01 0.01,0.01 0.02,0.02 0.29,0.3 0.11,0.22 0.56,0.66 0.08,0.08 0.05,0.02 0.12,0.14 0.28,0.45 0.42,0.46 0.98,0.56 0.2,0.04 0.22,0.05 0.44,0.06 0.18,0.01 0.26,0.07 0.4,0.11 0.13,0.04 0.3,0.05 0.43,0.07l1.71 0.32c0.44,0.08 0.88,0.15 1.36,0.15zm-4.83 -7.44c0,-0.08 0.66,-1.34 0.76,-1.57 0.08,-0.18 0.12,-0.26 0.19,-0.41 0.16,-0.31 0.49,-1.07 0.65,-1.07 0.2,0 0.55,0.05 0.65,0.14 0.09,0.08 0.6,1.74 0.67,2.01 0.07,0.28 0.46,1.39 0.46,1.54 0,0.31 -0.52,0.12 -0.61,0.08 -0.13,-0.06 -0.14,-0.13 -0.18,-0.27 -0.16,-0.55 -0.07,-0.56 -0.65,-0.68 -0.15,-0.03 -0.57,-0.13 -0.7,-0.13 -0.68,0 -0.13,0.89 -1.07,0.58 -0.17,-0.05 -0.18,-0.05 -0.18,-0.24zm3.86 0.46c0,-0.09 0.04,-0.29 0.05,-0.42 0.03,-0.34 0.02,-0.72 0.07,-1.12 0.06,-0.48 0.01,-1.48 0.24,-1.48 0.26,0 1.57,0.28 1.79,0.34 0.15,0.04 0.23,0.05 0.37,0.14l0.29 0.23c0.17,0.19 0.27,0.44 0.27,0.79 0,0.75 -0.62,0.76 -0.86,0.89 0.08,0.13 0.17,0.24 0.26,0.37 0.18,0.26 0.31,0.55 0.46,0.82 0.06,0.1 0.13,0.27 0.16,0.41 -0.13,0.09 -0.18,0.08 -0.36,0.04 -0.63,-0.12 -0.41,-0.17 -0.78,-0.78 -0.3,-0.48 -0.43,-1.02 -1.02,-1.02 -0.35,0 0.09,1.35 -0.43,1.35 -0.56,0 -0.5,-0.29 -0.5,-0.58zm3.58 0.96c0,-0.22 0.03,-0.23 0.03,-0.44 -0,-0.11 0.01,-0.26 0.02,-0.4l0.13 -1.7c-0,-0.15 0.02,-0.31 0.03,-0.43 0.01,-0.16 -0,-0.3 0.15,-0.3 0.29,0 1.35,0.21 1.66,0.29 0.22,0.05 0.54,0.09 0.7,0.17 0.23,0.12 0.17,0.57 -0.03,0.57 -0.35,0 -0.59,-0.11 -0.9,-0.15 -0.36,-0.05 -0.37,-0.12 -0.86,-0.12 -0.01,0.11 -0.07,0.4 -0.03,0.57l0.02 0.06c0,-0.01 0.01,0.02 0.01,0.03 0.1,0.13 0.32,0.11 0.47,0.15 0.57,0.16 1.25,0.09 1.25,0.51 0,0.46 -0.36,0.32 -0.69,0.24 -0.98,-0.22 -1.14,-0.32 -1.17,0.18 -0.02,0.31 -0.07,0.44 0.08,0.52 0.02,0.01 0.08,0.03 0.11,0.04 0.36,0.11 0.97,0.15 1.36,0.27 0.34,0.1 0.45,0.07 0.34,0.6 -0.14,0.07 -0.15,0.07 -0.32,0.04l-2.17 -0.43c-0.12,-0.03 -0.19,-0.09 -0.19,-0.26zm-9.65 -1.66c-0.6,0 -0.43,-0.37 -0.43,-0.62l0.15 -2.16c0.03,-0.36 -0.05,-0.81 0.28,-0.81l1.64 0.35c0.83,0.25 1.06,1.33 0.52,1.9 -0.55,0.57 -1.56,-0.01 -1.73,0.13 -0.12,0.18 -0.07,0.42 -0.08,0.66 -0.04,0.64 -0.13,0.54 -0.34,0.54zm13.59 -1.93c0.09,-0.45 -0.19,-0.53 -0.46,-0.94 -0.08,-0.12 -0.12,-0.16 -0.21,-0.27 -0.08,-0.1 -0.14,-0.18 -0.21,-0.28 -0.09,-0.12 -0.13,-0.16 -0.22,-0.27l-0.85 -1.08c-0.08,-0.11 -0.13,-0.16 -0.21,-0.27l-1.07 -1.35c-0.16,-0.22 -0.63,-0.92 -0.93,-1l-4.73 -0.91c-0.24,-0.04 -0.51,-0.1 -0.78,-0.16 -0.42,-0.09 -0.4,-0.11 -0.7,0.11 -0.19,0.14 -0.36,0.27 -0.55,0.41l-2.47 1.85c-0.25,0.17 -1.28,0.88 -1.33,1.08 -0.06,0.23 -0.14,2.35 -0.19,2.8 -0.1,0.89 -0.09,1.04 -0.13,1.86 -0.02,0.29 -0.06,0.66 -0.07,0.92 -0.01,0.4 0.07,0.5 0.26,0.72l1.29 1.62c0.31,0.37 0.56,0.72 0.86,1.08l0.71 0.89c0.02,0.03 0.01,0.01 0.05,0.06l0.52 0.67c0.14,0.19 0.26,0.4 0.5,0.47l4.71 0.93c0.25,0.06 0.57,0.11 0.8,0.15 0.53,0.08 0.48,0.1 1.01,-0.33l2.47 -1.85c0.11,-0.09 0.17,-0.11 0.28,-0.2 0.27,-0.23 1.25,-0.83 1.31,-1.1 0.06,-0.27 0.06,-1.1 0.08,-1.41 0.01,-0.15 0.06,-0.29 0.07,-0.43 0.06,-0.9 0.09,-1.88 0.18,-2.81l0.05 -0.96zm-6.59 1.19c0,0 1.36,0.52 1.36,-0.14 0,-0.31 -0.13,-0.42 -0.45,-0.52 -0.97,-0.28 -0.91,-0.12 -0.94,0.21 -0.02,0.18 -0.05,0.3 0.04,0.45zm-3.43 -0.03c0.16,0.09 0.24,0.09 0.45,0.13 0.22,0.04 0.39,0.14 0.34,-0.2 -0.02,-0.17 -0.11,-0.32 -0.14,-0.47 -0.06,-0.25 -0.07,-0.27 -0.18,-0.46 -0.12,0.1 -0.46,0.77 -0.46,1zm-3.15 -1.35l0.04 0.23c0.22,0.06 0.5,0.15 0.72,0.15 0.58,0 0.7,-0.72 0.12,-0.94 -0.13,-0.05 -0.57,-0.14 -0.73,-0.14 -0.1,0 -0.14,0.57 -0.14,0.69z"/>
   <path class="fil0" d="M24.29 15.27c0,0.47 -0.05,0.62 0.36,0.62 0.13,0 0.23,-0.07 0.28,-0.16 0.18,-0.31 0.32,-1.4 0.37,-1.8 0.02,-0.16 0.07,-0.41 0.09,-0.56l0.24 -1.79c0.12,-0.98 0.3,-1.92 0.39,-2.9 0.05,-0.49 0.11,-0.5 0.13,-1.21 0.02,-0.49 -0.49,-0.48 -0.69,-0.17 -0.15,0.23 -0.26,1.16 -0.32,1.5l-0.31 2.4c-0.01,0.11 -0.04,0.16 -0.06,0.25l-0.21 1.62c-0.06,0.46 -0.27,1.83 -0.27,2.18z"/>
   <path class="fil2" d="M38.48 9.13c-0.09,-0.16 -0.06,-0.28 -0.04,-0.45 0.04,-0.33 -0.02,-0.49 0.94,-0.21 0.32,0.09 0.45,0.21 0.45,0.52 0,0.66 -1.36,0.15 -1.36,0.14zm-0.93 1.44c0,0.29 -0.06,0.58 0.5,0.58 0.52,0 0.08,-1.35 0.43,-1.35 0.59,0 0.72,0.54 1.02,1.02 0.38,0.61 0.15,0.66 0.78,0.78 0.18,0.03 0.23,0.05 0.36,-0.04 -0.03,-0.14 -0.1,-0.3 -0.16,-0.41 -0.14,-0.26 -0.28,-0.56 -0.46,-0.82 -0.09,-0.13 -0.18,-0.25 -0.26,-0.37 0.24,-0.12 0.86,-0.14 0.86,-0.89 0,-0.35 -0.1,-0.6 -0.27,-0.79l-0.29 -0.23c-0.15,-0.09 -0.22,-0.1 -0.37,-0.14 -0.22,-0.06 -1.53,-0.34 -1.79,-0.34 -0.23,0 -0.18,1 -0.24,1.48 -0.05,0.39 -0.04,0.77 -0.07,1.12 -0.01,0.12 -0.05,0.33 -0.05,0.42z"/>
   <path class="fil2" d="M41.13 11.53c0,0.17 0.07,0.23 0.19,0.26l2.17 0.43c0.17,0.03 0.18,0.03 0.32,-0.04 0.12,-0.53 0,-0.5 -0.34,-0.6 -0.39,-0.12 -1,-0.16 -1.36,-0.27 -0.03,-0.01 -0.09,-0.02 -0.11,-0.04 -0.15,-0.08 -0.1,-0.21 -0.08,-0.52 0.03,-0.5 0.19,-0.4 1.17,-0.18 0.33,0.07 0.69,0.22 0.69,-0.24 0,-0.42 -0.68,-0.34 -1.25,-0.51 -0.15,-0.04 -0.37,-0.02 -0.47,-0.15 -0.01,-0.01 -0.01,-0.03 -0.01,-0.03l-0.02 -0.06c-0.03,-0.17 0.03,-0.46 0.03,-0.57 0.49,0 0.49,0.07 0.86,0.12 0.3,0.04 0.55,0.15 0.9,0.15 0.2,0 0.26,-0.46 0.03,-0.57 -0.16,-0.08 -0.48,-0.12 -0.7,-0.17 -0.31,-0.08 -1.37,-0.29 -1.66,-0.29 -0.15,0 -0.14,0.14 -0.15,0.3 -0.01,0.12 -0.03,0.28 -0.03,0.43l-0.13 1.7c-0.01,0.14 -0.02,0.29 -0.02,0.4 0,0.21 -0.03,0.23 -0.03,0.44z"/>
   <path class="fil2" d="M35.05 9.1c0.01,-0.23 0.35,-0.9 0.46,-1 0.11,0.18 0.12,0.21 0.18,0.46 0.04,0.15 0.12,0.31 0.14,0.47 0.05,0.34 -0.12,0.25 -0.34,0.2 -0.21,-0.04 -0.29,-0.04 -0.45,-0.13zm-1.36 1c0,0.18 0.01,0.18 0.18,0.24 0.95,0.3 0.4,-0.58 1.07,-0.58 0.13,0 0.55,0.1 0.7,0.13 0.59,0.13 0.49,0.13 0.65,0.68 0.04,0.14 0.06,0.21 0.18,0.27 0.09,0.04 0.61,0.23 0.61,-0.08 0,-0.16 -0.4,-1.26 -0.46,-1.54 -0.07,-0.28 -0.58,-1.93 -0.67,-2.01 -0.1,-0.09 -0.45,-0.14 -0.65,-0.14 -0.16,0 -0.5,0.76 -0.65,1.07 -0.08,0.15 -0.12,0.23 -0.19,0.41 -0.1,0.22 -0.76,1.49 -0.76,1.57z"/>
   <path class="fil2" d="M31.9 7.75c0,-0.12 0.04,-0.69 0.14,-0.69 0.16,0 0.59,0.09 0.73,0.14 0.58,0.22 0.47,0.94 -0.12,0.94 -0.21,0 -0.49,-0.1 -0.72,-0.15l-0.04 -0.23zm-0.43 2.12c0.21,0 0.31,0.1 0.34,-0.54 0.01,-0.25 -0.03,-0.49 0.08,-0.66 0.16,-0.14 1.18,0.44 1.73,-0.13 0.54,-0.57 0.32,-1.65 -0.52,-1.9l-1.64 -0.35c-0.33,0 -0.25,0.45 -0.28,0.81l-0.15 2.16c-0,0.25 -0.17,0.62 0.43,0.62z"/>
   <path class="fil1" d="M17.49 19.66c0.02,-0.28 0.11,-0.18 0.17,-0.36 0.07,-0.22 -0.01,-0.18 0.14,-0.38 0.08,-0.1 0.14,-0.23 0.23,-0.29 0.22,-0.15 0.22,-0.01 0.23,0.01 0.07,0.2 -0.09,0.29 -0.15,0.42 -0.07,0.13 -0.05,0.18 -0.16,0.26 -0.31,0.24 -0.29,0.33 -0.46,0.35zm1.43 -0.35c-0.12,0.04 -0.14,0.13 -0.2,0.24l-0.11 0.19c-0.2,0.37 -0.46,0.88 -0.77,1.17 -0.45,0.43 -0.17,0.43 -0.63,0.43 -0.1,0 -0.21,-0.16 -0.21,-0.27 0,-0.11 0.08,-0.31 0.11,-0.43 0.07,-0.29 0.15,-0.31 0.48,-0.56 0.27,-0.21 1.02,-1.25 1.02,-1.67 0,-0.67 -0.43,-0.5 -0.87,-0.28 -0.12,0.06 -0.36,0.34 -0.57,0.54 -0.29,0.28 -0.3,0.51 -0.49,0.85 -0.03,0.05 -0.03,0.07 -0.06,0.13 -0.05,0.13 -0.05,0.13 -0.1,0.28 -0.1,0.37 -0.33,0.64 -0.28,1.22 0.03,0.3 0.01,0.42 0.18,0.58 0.51,0.5 1.16,-0.18 1.5,-0.6l0.82 -1.24c0.05,-0.14 0.03,-0.14 0.11,-0.27 0.09,-0.15 0.09,-0.1 0.09,-0.33z"/>
   <path class="fil2" d="M40.95 34.31c0.05,0.14 0.06,0.12 0.39,0.11 0.42,-0 1.38,0.1 1.5,-0.12l0.54 -1.73c-0.23,-0.09 -1.39,-0.04 -1.72,-0.04 -0.19,0 -0.21,0.11 -0.29,0.34 -0.05,0.15 -0.09,0.31 -0.15,0.49l-0.24 0.71c-0.02,0.06 -0.07,0.16 -0.03,0.24z"/>
   <path class="fil0" d="M10.13 26.95c0,-0.28 -0.15,-0.27 -0.39,-0.27 -0.12,0 -0.15,0.17 -0.19,0.29 -0.22,0.62 -0.45,1.46 -0.67,2.09 -0.23,0.64 -0.45,1.48 -0.69,2.14l-0.26 0.77c-0.05,0.13 -0.07,0.26 -0.11,0.38 -0.05,0.13 -0.16,0.27 -0.02,0.33 0.17,0.07 0.43,-0.05 0.58,-0.34 0.07,-0.13 0.1,-0.21 0.15,-0.34l1.15 -3.46c0.09,-0.29 0.47,-1.35 0.47,-1.58z"/>
   <path class="fil2" d="M39.55 34.42c0.68,0 0.75,0.08 0.86,-0.26l0.5 -1.5c0,-0.09 -0.02,-0.12 -0.11,-0.12l-1.68 0c-0.13,0 -0.25,0.46 -0.3,0.6 -0.04,0.13 -0.06,0.22 -0.11,0.35 -0.05,0.14 -0.09,0.23 -0.12,0.37 -0.15,0.61 -0.48,0.56 0.96,0.56z"/>
   <path class="fil2" d="M36.37 34.4l1.5 -0.01c0.09,-0.28 0.57,-1.61 0.57,-1.77 0,-0.05 -0.05,-0.08 -0.11,-0.08l-1.68 0c-0.14,0 -0.2,0.28 -0.25,0.46 -0.05,0.17 -0.13,0.36 -0.19,0.57 -0.2,0.72 -0.45,0.83 0.15,0.83z"/>
   <path class="fil0" d="M2.91 22.13c0,-0.11 -0,-0.09 0.07,-0.2l0.03 -0.04c0.07,-0.09 0.07,-0.1 0.17,-0.16 0.65,-0.39 -0.14,-0.43 -0.42,0.05 -0.06,0.1 -0.08,0.18 -0.15,0.3 -0.34,0.55 -0.49,1.01 -0.49,1.71 0,1.22 0.93,0.49 1.1,0.3 0.12,-0.14 0.1,-0.18 0.29,-0.38 0.32,-0.34 0.09,-0.09 0.28,-0.43 0.18,-0.32 0.25,-0.32 0.52,-0.83 0.13,-0.24 0.19,-0.42 -0.07,-0.49 -0.31,-0.08 -0.36,0.13 -0.45,0.27 -0.08,0.12 -0.15,0.17 -0.26,0.26 -0.11,0.09 -0.19,0.14 -0.37,0.14 -0.27,0 -0.25,-0.34 -0.25,-0.5z"/>
   <path class="fil0" d="M23.89 32.62c0,0.22 0.32,0.41 0.5,-0.12 0.12,-0.36 0.18,-0.4 0.23,-0.56l0.34 -1.06c0.09,-0.29 0.21,-0.51 0.28,-0.82 0.16,-0.7 0.19,-0.46 0.28,-0.81 0.04,-0.16 0.05,-0.28 0.1,-0.44 0.05,-0.18 0.13,-0.21 0.17,-0.39 0.05,-0.17 0.05,-0.24 0.12,-0.41 0.07,-0.18 0.09,-0.21 0.14,-0.42 0.1,-0.43 0.22,-0.62 0.16,-0.86 -0.23,-0.06 -0.32,-0.1 -0.45,0.21 -0.14,0.35 -0.18,0.28 -0.27,0.71 -0.04,0.17 -0.09,0.22 -0.15,0.38 -0.09,0.23 -0.31,1.1 -0.47,1.53l-0.6 1.89c-0.07,0.16 -0.11,0.18 -0.16,0.37 -0.04,0.15 -0.04,0.27 -0.1,0.4 -0.06,0.13 -0.13,0.23 -0.13,0.4z"/>
   <path class="fil2" d="M31.01 17.74c0,-0.11 0.2,-0.08 0.32,-0.08 0.4,0 -0.32,0.49 -0.32,0.08zm-0.32 0.19c0,0.19 0.32,0.11 0.61,0.11l0.27 -0.04c0.2,-0.04 0.11,0.05 0.3,0.05 0.82,0 0.49,-0.02 0.79,-0.35 0.04,-0.04 0.02,-0.03 0.07,-0.08 0.01,0.17 0.04,0.08 0,0.24 -0.05,0.21 -0.15,0.18 0.61,0.18 0.17,0 0.06,-0.03 0.19,-0.06l0.4 0.01c0.37,0.06 0.14,0.05 0.63,0.05 0.28,0 -0.12,-0.07 0.37,-0.02 0.17,0.02 0.2,-0.09 0.28,-0.21 0.19,0.14 0.31,0.38 0.55,0.1 0.27,0.17 0.06,0.13 0.7,0.13 0.34,0 0.24,-0.22 0.32,-0.4 0.14,-0.3 -0.74,-0.1 -0.82,-0.1 -0.18,0 -0.18,-0.09 -0.32,0.03l-0.14 0.12c-0.28,-0.2 -0.11,-0.19 -0.86,-0.19l-1.61 0c-0.15,0 -0.14,0.08 -0.25,0.08 -0.12,0 -0.05,-0.08 -0.18,-0.08l-1.64 0c-0.01,0.25 0.01,0.11 -0.12,0.22 -0.06,0.05 -0.13,0.12 -0.13,0.21z"/>
   <path class="fil0" d="M17.42 13.11c0,0.2 0.33,0.12 0.82,0.12 0.17,0 0.09,-0.29 0.12,-0.49 0.06,-0.5 0.09,-2.19 0.16,-2.91 0.02,-0.22 0.05,-1.09 0.01,-1.19 -0.11,0.08 -0.08,0.2 -0.17,0.51 -0.08,0.29 -0.94,3.8 -0.94,3.96z"/>
   <path class="fil0" d="M19.21 23.29c0.23,0 0.25,-0.19 0.33,-0.37 0.04,-0.1 0.08,-0.16 0.11,-0.26 0.04,-0.13 0.05,-0.17 0.09,-0.29l0.88 -2.49c0.08,-0.19 0.49,-1.19 0.05,-0.96 -0.22,0.12 -0.48,1.03 -0.62,1.39l-0.62 1.79c-0.11,0.35 -0.48,1.18 -0.23,1.18z"/>
   <path class="fil2" d="M30.83 16.12c0,0.23 0.05,0.17 0.21,0.27 0.09,0.05 0.2,0.13 0.29,0.19l0 0.66c0.31,0.07 0.27,-0.29 0.49,-0.36 0.18,-0.06 0.36,0.27 0.64,0.23l-0.27 -0.64c0,-0.17 0.36,-0.32 0.32,-0.5 -0.04,-0.2 -0.2,-0 -0.64,-0 -0.03,-0.12 -0.26,-0.53 -0.35,-0.57 -0.2,0.16 0.01,0.44 -0.13,0.6 -0.06,0.06 -0.45,0.11 -0.56,0.12z"/>
   <path class="fil0" d="M5.05 21.55l0.18 0.08c0.3,0.12 0.58,0.13 0.75,-0.19 0.08,-0.15 0.05,-0.15 0.09,-0.32 0.04,-0.15 0.08,-0.19 0.13,-0.32 0.18,-0.46 0.04,-0.96 0.11,-1.19 0.05,-0.16 0.12,-0.1 0.13,-0.33 -0.23,0.17 -0.06,0.04 -0.19,0.26 -0.07,0.12 -0.14,0.13 -0.23,0.22l-0.51 0.88c-0.09,0.25 -0.06,0.12 -0.19,0.26l-0.28 0.66z"/>
   <path class="fil0" d="M6.87 21.48c0,0.18 0.05,0.23 0.18,0.23 0.12,0 0.24,-0.27 0.29,-0.38l0.38 -1.06c0.08,-0.18 0.38,-0.42 0.12,-0.69l-0.04 -0.03c-0.3,0.08 -0.45,0.6 -0.53,0.9 -0.09,0.3 -0.4,1 -0.4,1.03z"/>
   <path class="fil2" d="M29.51 14.88c0.16,0.04 0.32,0.14 0.35,0.32 0.04,0.23 -0.06,0.34 0.08,0.36 0.22,0.04 0.08,-0.44 0.53,-0.17 0.16,0.1 0.08,0.1 0.22,0.06 -0.02,-0.25 -0.14,-0.23 -0.14,-0.5 0,-0.11 0.36,-0.39 0.07,-0.39 -0.21,0 -0.28,0.1 -0.39,-0.04 -0.1,-0.13 -0.05,-0.25 -0.25,-0.31 -0.02,0.15 -0.01,0.39 -0.12,0.44 -0.18,0.09 -0.32,-0.06 -0.34,0.21z"/>
   <path class="fil2" d="M25.07 17.81l0.03 0.04c0.16,0.21 0.18,0.14 0.36,0.14 0.29,-0 0.23,-0.09 0.47,-0.11 0.06,0.24 0.28,0.09 0.36,-0.04 0.06,0.04 0.46,0.35 0.41,0.07 -0.02,-0.12 -0.05,0.02 -0.05,-0.22 0.14,-0.04 0.14,-0.02 0.18,-0.15 -0.16,-0.1 -0.24,-0.01 -0.36,0.08 -0.19,-0.11 -0.23,-0.24 -0.43,0.08l-0.13 -0.09c-0.21,-0.18 -0.1,-0.07 -0.33,-0.08 -0.11,-0 -0.1,-0.02 -0.21,0.04 -0.21,0.1 -0.2,0.09 -0.3,0.25z"/>
   <path class="fil2" d="M29.86 17.66l0.21 0c0.23,0 0.01,0.39 -0.33,0.15l0.11 -0.15zm-1.18 -0.04c0.08,0.02 0.11,0.04 0.21,0.04 -0.02,0.28 -0.15,0.14 0,0.39 0.21,-0.02 0.26,-0.24 0.36,-0.39l0.25 0 -0.08 0.27c0.24,0.17 0.05,0.12 0.68,0.12 0.24,0 0.39,-0.24 0.39,-0.5 -0.38,-0.1 -0.68,-0.01 -0.89,-0.01l-0.79 -0.03c-0.09,0 -0.11,0.05 -0.14,0.12z"/>
   <path class="fil2" d="M28.54 13.34l0 0.08c0.12,0.03 0.05,0.02 0.14,0.08l0.14 0.12c0.03,0.06 0.03,0.1 0.03,0.17l0.01 0.21c0.27,-0.02 0.14,-0.28 0.45,-0.13 0.38,0.18 0.09,-0.19 0.09,-0.33 0,-0.1 0.12,-0.18 0.18,-0.27 -0.29,-0.19 -0.28,0.04 -0.43,-0.12 -0.11,-0.13 -0,-0.17 -0.22,-0.19 -0.12,0.28 0.1,0.34 -0.39,0.39z"/>
   <path class="fil0" d="M40.34 22.05c0.36,0.09 0.37,0.07 0.47,-0.34 0.09,-0.38 0.39,-1.19 0.39,-1.55 -0.11,0.13 -0.74,1.54 -0.82,1.74 -0.04,0.11 -0.02,-0.06 -0.04,0.15z"/>
   <path class="fil0" d="M36.33 25.1c0.42,0.04 0.6,0.11 1.04,0 -0.07,-0.28 -0.39,-0.98 -0.81,-0.37 -0.15,0.22 -0.19,0.2 -0.23,0.37z"/>
   <path class="fil0" d="M23.93 20.4c0.37,0 0.61,-1.03 0.61,-1.23 0,-0.16 -0.2,-0.18 -0.29,-0.04 -0.05,0.08 -0.11,0.32 -0.16,0.45l-0.24 0.67c-0.02,0.07 -0.05,0.15 0.08,0.15z"/>
   <path class="fil2" d="M27.36 17.54c-0.13,0 -0.07,-0.03 -0.21,-0.04 -0.2,0.33 -0.33,0.55 0.11,0.51 0.23,-0.03 0.18,-0.06 0.32,-0.16 0.1,0.17 0.23,0.2 0.43,0.15 -0.08,-0.18 0.02,-0.1 -0.11,-0.15 0.02,-0.29 0.12,-0.07 0.18,-0.31 -0.11,-0.1 -0.26,0.04 -0.36,0.04 -0.13,0 -0.12,-0.11 -0.25,-0.08 -0.13,0.03 0.06,0.04 -0.11,0.04z"/>
   <path class="fil0" d="M44.49 20.32l0 0.15c0.34,0 0.34,-0.19 0.45,-0.44 0.06,-0.12 0.23,-0.57 0.23,-0.72 0,-0.13 -0.1,-0.15 -0.18,-0.19 -0.08,0.07 -0.12,0.12 -0.16,0.25l-0.11 0.31c-0.04,0.13 -0.06,0.19 -0.1,0.31l-0.12 0.33z"/>
   <path class="fil0" d="M7.41 23.17c0,0.32 0.19,0.2 0.28,-0.01 0.18,-0.46 0.14,-0.23 0.21,-0.43 0.03,-0.09 0.04,-0.24 0.13,-0.51 0.05,-0.15 0.12,-0.39 0.06,-0.51 -0.17,0.05 -0.14,0.13 -0.19,0.33 -0.1,0.41 -0.23,0.16 -0.33,0.72 -0.07,0.36 -0.15,0.28 -0.15,0.41z"/>
   <path class="fil0" d="M9.27 21.44c0.26,-0.02 0.19,-0.16 0.49,-0.47 0.14,-0.15 0.27,-0.45 0.22,-0.69 -0.18,0 -0.16,0.03 -0.37,0.29 -0.12,0.15 -0.03,0.16 -0.15,0.34 -0.02,0.03 -0.02,0.02 -0.05,0.06l-0.05 0.06c-0.09,0.13 -0.09,0.19 -0.09,0.4z"/>
   <path class="fil0" d="M17.49 19.66c0.17,-0.02 0.15,-0.1 0.46,-0.35 0.1,-0.08 0.09,-0.12 0.16,-0.26 0.06,-0.13 0.23,-0.22 0.15,-0.42 -0.01,-0.02 -0.01,-0.16 -0.23,-0.01 -0.09,0.06 -0.15,0.19 -0.23,0.29 -0.16,0.2 -0.07,0.16 -0.14,0.38 -0.06,0.18 -0.15,0.08 -0.17,0.36z"/>
   <path class="fil2" d="M28.29 18.01c0.16,0 0.15,-0.03 0.2,-0.14 0.14,-0.3 0.09,-0.25 0.02,-0.37 -0.3,0.08 -0.39,0.5 -0.21,0.5z"/>
   <path class="fil0" d="M31.01 17.74c0,0.41 0.72,-0.08 0.32,-0.08 -0.12,0 -0.32,-0.03 -0.32,0.08z"/>
   <path class="fil0" d="M29.75 17.81c0.33,0.24 0.55,-0.15 0.33,-0.15l-0.21 0 -0.11 0.15z"/>
  </g>
 </g>
</svg>
