<?xml version="1.0" encoding="UTF-8"?>
<!DOCTYPE svg PUBLIC "-//W3C//DTD SVG 1.1//EN" "http://www.w3.org/Graphics/SVG/1.1/DTD/svg11.dtd">
<!-- Creator: CorelDRAW -->
<svg xmlns="http://www.w3.org/2000/svg" xml:space="preserve" width="25.4mm" height="19.05mm" version="1.1" style="shape-rendering:geometricPrecision; text-rendering:geometricPrecision; image-rendering:optimizeQuality; fill-rule:evenodd; clip-rule:evenodd"
viewBox="0 0 47.61 35.71"
 xmlns:xlink="http://www.w3.org/1999/xlink"
 xmlns:xodm="http://www.corel.com/coreldraw/odm/2003">
 <defs>
  <style type="text/css">
   <![CDATA[
    .fil0 {fill:black}
    .fil2 {fill:red}
    .fil1 {fill:white}
   ]]>
  </style>
 </defs>
 <g id="Camada_x0020_1">
  <metadata id="CorelCorpID_0Corel-Layer"/>
  <g id="_2483693335824">
   <path class="fil0" d="M36.5 11.39c0.01,-0.21 0.02,-0.07 0.06,-0.19 0.07,-0.21 0.02,-0.48 0.02,-0.7 0,-0.29 0.08,-0.15 0.08,-0.41 0.03,-0.79 -0.01,-1.6 -0,-2.39 0,-0.27 -0.05,-0.23 -0.08,-0.41 -0.03,-0.2 0.04,-0.49 -0.04,-0.68 -0.1,-0.23 0.03,-0.29 -0.13,-0.61 -0.06,-0.11 -0.02,-0.25 -0.07,-0.38l-0.04 -0.24c-0.02,-0.21 -0.01,-0.07 -0.07,-0.18 -0.08,-0.12 -0.13,-0.66 -0.26,-0.87 -0,-0 -0.03,-0.03 -0.04,-0.07l-0.19 -0.55c-0.04,-0.13 -0.02,-0.05 -0.09,-0.16 -0.02,-0.03 -0.04,-0.07 -0.05,-0.09 -0.01,-0.01 -0.02,-0.04 -0.02,-0.05 -0,-0.01 -0.01,-0.02 -0.01,-0.02l-0.98 -1.44c-0.13,-0.2 -0.38,-0.31 -0.59,-0.45l-0.39 -0.24c-0.31,-0.22 -0.78,-0.32 -1.18,-0.42l-0.21 -0.06c-0.07,-0.01 -0.2,0 -0.28,0 -0.37,0 -0.23,-0.1 -0.39,-0.1l-0.83 0c-0.15,0 -0.04,0.05 -0.17,0.09 -0.08,0.02 -0.18,0.01 -0.26,0.01 -0.16,-0 -0.13,-0 -0.24,0.03l-0.6 0.13c-0.08,0.03 -0.28,0.14 -0.35,0.14 -0.19,0 -0.19,-0.12 -0.33,-0.2l-1.58 -0.65c-0.01,-0 -0.02,-0.01 -0.03,-0.01l-0.79 -0.17c-0.25,-0.09 -1.43,-0.04 -1.84,-0.03 -0.28,0.01 -0.12,0.01 -0.24,0.07 -0.03,0.02 -0.01,0.01 -0.08,0.03l-0.25 0.06c-0.01,0 -0.02,0.01 -0.03,0.01l-0.34 0.08c-0.01,0 -0.02,0 -0.03,0.01l-1.01 0.5c-0.11,0.08 -0.19,0.08 -0.31,0.18 -0.18,0.15 -0.67,0.55 -0.76,0.78 -0.2,-0.01 -0.19,-0.07 -0.48,-0.07 -0.32,0 -0.2,-0.04 -0.41,-0.09 -0.17,-0.04 -0.36,0 -0.54,-0.02 -0.2,-0.02 -0.06,-0.02 -0.21,-0.06 -0.24,-0.05 -0.53,-0.01 -0.78,-0.01 -0.19,-0 -0.27,0.05 -0.44,0.07 -0.45,0.05 -0.1,-0.01 -0.42,0.09 -0.11,0.03 -0.13,0.01 -0.24,0.03 -0.18,0.03 -0.48,0.17 -0.63,0.27l-0.31 0.18c-0.05,0.03 -0.03,0.02 -0.06,0.05 -0.1,0.08 -0.21,0.11 -0.33,0.19 -0.03,0.02 -0.09,0.08 -0.11,0.11 -0.06,0.1 -0.01,0.06 -0.09,0.16 -0.13,0.17 -0.34,0.27 -0.52,0.58 -0,0.01 -0.01,0.02 -0.01,0.02l-0.09 0.13c-0.06,0.1 -0.08,0.08 -0.08,0.24l-1.31 0c-0.14,0 -0.03,0.02 -0.14,0.05 -0.17,0.04 -0.28,0.02 -0.51,0.08l-0.15 0.04c-0.09,0.04 0.02,0 -0.08,0.04l-0.35 0.1c-0.07,0.03 -0.18,0.07 -0.26,0.12 -0.09,0.04 -0.04,0.03 -0.11,0.07l-0.36 0.21c-0.13,0.06 -0.2,0.1 -0.31,0.21 -0.03,0.03 -0.01,0.01 -0.05,0.06 -0.01,0.01 -0.03,0.03 -0.04,0.04 -0.18,0.16 -0.45,0.3 -0.56,0.51l-0.32 0.41c-0.07,0.09 -0.02,0.03 -0.07,0.11 -0,0.01 -0.01,0.02 -0.01,0.02 -0,0.01 -0.01,0.02 -0.01,0.02 -0,0.01 -0.01,0.01 -0.01,0.02l-0.4 0.88c-0.01,0.03 -0.02,0.05 -0.03,0.08l-0.22 0.7c-0.03,0.09 -0.03,0.32 -0.07,0.42 -0.2,0.4 -0,0.14 -0.15,0.55 -0.04,0.12 -0.01,0.2 -0.02,0.32 -0.03,0.28 -0.05,-0.01 -0.08,0.27 -0.01,0.09 0.01,0.22 0,0.31 -0.02,0.22 -0.04,0.08 -0.1,0.25 -0.03,0.1 -0.02,0.22 -0.02,0.33 0,0.52 -0.08,0.52 -0.08,0.58l0 4.26c0,0.05 0.08,0.09 0.08,0.51 -0,0.35 0.1,0.24 0.12,0.44 0.01,0.09 -0.01,0.17 0.01,0.26 0.03,0.11 0,-0.02 0.04,0.1 0.03,0.08 0.01,0.04 0.02,0.12 0.01,0.08 -0,0.04 0.02,0.12 0,0.01 0.02,0.04 0.02,0.05l0.34 0.73c0,0.01 0.04,0.1 0.04,0.1 0,0.01 0.01,0.02 0.01,0.02 0,0.01 0.01,0.02 0.01,0.03 0,0.01 0.02,0.04 0.02,0.05 0.05,0.11 0.14,0.14 0.21,0.23l0.21 0.23 1.01 0.53c0.01,0 0.02,0.01 0.03,0.01l0.16 0.04c0.01,0 0.02,0.01 0.03,0.01 0.01,0 0.02,0.01 0.03,0.01l0.37 0.09c0.36,0.09 0.52,0 0.78,0.08 0.15,0.04 0.35,0.05 0.49,0.01 0.22,-0.06 0.55,-0 0.76,-0.07l0.06 -0.02c0.01,-0 0.02,-0.01 0.03,-0.01 0.01,-0 0.04,-0.02 0.05,-0.02l0.05 -0.03c0.01,-0 0.02,-0.01 0.02,-0.01l0.15 -0.08c0.01,-0 0.02,-0.01 0.03,-0.01 0.13,-0.05 0.09,-0.04 0.28,-0.04 0.03,0.06 0.01,0.03 0.04,0.07 0.06,0.07 0.13,0.08 0.21,0.13l0.29 0.16c0.18,0.09 0.29,0.1 0.46,0.15 0.19,0.07 0.23,0.12 0.43,0.14 0.07,0.01 0.03,-0 0.1,0.01 0.28,0.06 0.15,0.02 0.41,0.05 0.28,0.03 0.02,0.1 0.24,0.1l1.03 0c0.13,0 0.1,-0.1 0.36,-0.1 0,0.35 -0.12,0.25 -0.12,0.38 0,0.1 0.06,0.07 0.1,0.16 0,0.01 0.05,0.59 0.16,0.79l0.11 0.18c0.07,0.11 0,0.05 0.1,0.15 0.05,0.05 0.24,0.23 0.06,0.25 -0.11,0.01 -0.04,-0.04 -0.18,-0.07 -0.11,-0.03 -0.38,-0.01 -0.51,-0.01 -0.33,-0 -0.17,-0.07 -0.47,-0.07 -0.3,-0.01 -0.37,-0.07 -0.44,-0.07 -0.69,0 -0.41,0.03 -0.64,0.06 -0.22,0.03 -0.42,0.04 -0.63,0.14l-0.67 0.31c-0.1,-0.06 -0.14,-0.13 -0.23,-0.17 -0.22,-0.12 -0.47,-0.27 -0.72,-0.35l-0.04 -0.01c-0.15,-0.05 -0.27,-0.13 -0.43,-0.15l-0.25 -0.06c-0.06,-0.01 -0.05,-0.01 -0.11,-0.01 -0.2,-0.02 -0.34,-0.1 -0.48,-0.1 -1.32,0 -0.73,0.06 -1.08,0.09l-0.81 0.22c-0,0 -0.02,0.01 -0.02,0.01l-0.34 0.14c-0.01,0 -0.02,0.01 -0.03,0.01l-0.53 0.4c-0.41,0.35 -0.48,0.45 -0.62,0.63 -0,0.01 -0.01,0.02 -0.01,0.02l-0.13 0.23c-0.01,0.03 -0.01,0.04 -0.02,0.08 -0,0.01 -0.01,0.02 -0.01,0.03 -0,0.01 -0.01,0.02 -0.01,0.02l-0.04 0.07c-0.07,0.13 -0.06,0.2 -0.08,0.34 -0.03,0.19 -0.12,0.12 -0.12,0.38l-0.04 0c0,-0.09 0.01,-0.18 -0.02,-0.26l-0.06 -0.22c-0.04,-0.26 0,-0.02 -0.08,-0.2l-0.2 -0.75c-0.02,-0.08 -0.01,-0.04 -0.04,-0.1l-0.17 -0.64c-0.03,-0.11 -0,0.02 -0.04,-0.1 -0.05,-0.17 -0.01,-0.17 -0.09,-0.3 -0.03,-0.06 -0.03,-0.02 -0.04,-0.1 -0.01,-0.05 -0,-0.08 -0.01,-0.13 -0.04,-0.25 -0.03,0.04 -0.07,-0.21l-0.09 -0.44c-0.02,-0.08 0,-0.04 -0.03,-0.11 -0.1,-0.24 -0.06,-0.3 -0.14,-0.52 -0.17,-0.46 -0.13,-0.19 -0.59,-0.31l-0.49 -0.09c-0.13,-0.03 -0.16,-0.01 -0.29,-0.02 -0.16,-0.02 -0.13,-0.05 -0.22,-0.08 -0.12,-0.04 -0.17,-0.01 -0.29,-0.02 -0.28,-0.03 0.02,-0.02 -0.21,-0.06 -0.15,-0.03 -0.28,0 -0.41,-0.06 -0.11,-0.06 -0.24,-0.04 -0.37,-0.05 -0.21,-0.03 -0.05,-0.06 -0.2,-0.06 -0.52,0 -0.27,-0.05 -0.44,0.17 -0.01,0.01 -0.04,0.03 -0.06,0.05 -0.01,0.01 -0.03,0.03 -0.04,0.03 -0.07,0.07 -0.01,-0 -0.06,0.09 -0.06,0.09 0,0.02 -0.08,0.1 -0.01,0.01 -0.01,0.01 -0.02,0.02l-0.49 0.6c-0.23,0.32 -0.14,0.15 -0.29,0.33l-0.28 0.38c-0.06,0.07 -0.1,0.08 -0.17,0.16 -0.06,0.07 0.02,-0.04 -0.03,0.04l-0.03 0.05c-0.13,0.22 -0.47,0.46 -0.6,0.68 -0,0.01 -0.01,0.02 -0.01,0.02 -0,0.01 -0.01,0.02 -0.01,0.02l-0.34 0.39c-0.1,0.1 -0.15,0.22 -0.27,0.32 -0.23,0.18 -0.18,0.24 -0.35,0.38 -0.14,0.12 -0.18,0.2 -0.3,0.32l-0.25 0.29c-0,0.01 -0.01,0.01 -0.02,0.02 -0.01,0.01 -0.03,0.03 -0.04,0.04 -0.22,0.2 -0.15,0.21 -0.29,0.33 -0.5,0.44 -0.3,0.52 -0.78,0.52 -0.05,-0.15 -0.24,-0.15 -0.24,0l0 12.04c0,0.08 0.07,0.14 0.16,0.14l5.71 0 0 -2.66c0,-0.24 0.49,-0.01 0.56,-0 0.24,0.04 0.55,-0 0.79,0 0.28,0.01 0.18,0.07 0.31,0.07l1.11 0c0.01,0.25 0.06,0.08 0.18,0.29l0.21 0.26c0.07,0.06 0.24,0.29 0.47,0.48l0.94 0.72c0.1,0.05 0.04,-0 0.16,0.07l1 0.47c0.07,0.03 0.08,0.03 0.17,0.06 0.04,0.01 0.05,0.01 0.09,0.02l0.31 0.08c0.07,0.02 -0.02,-0.01 0.08,0.04 0.23,0.1 0.73,0.18 0.95,0.18 0.41,-0 0.14,0.1 0.36,0.1l1.9 0c0.12,0 0.08,-0.05 0.18,-0.08 0.17,-0.05 0.37,0.01 0.55,-0.04l0.33 -0.06c0.13,-0.02 -0.03,0.01 0.09,-0.03 0.2,-0.05 0.28,-0.11 0.4,-0.13 0.1,-0.01 0.1,0.01 0.21,-0.02 0,-0 0.18,-0.08 0.19,-0.08 0.13,-0.05 0.11,-0.02 0.22,-0.05l0.05 -0.02c0.01,-0 0.02,-0.01 0.02,-0.01 0.01,-0 0.02,-0.01 0.02,-0.01l0.13 -0.06c0.01,-0 0.02,-0.01 0.03,-0.01l0.26 -0.12c0.19,-0.1 0.39,-0.13 0.56,-0.23l0 0.75c0.06,0.02 0.1,0.03 0.17,0.06 0.16,0.06 0.34,0.04 0.58,0.04l4.21 0c1.07,0 0.95,0.2 0.95,-0.61 0.04,0.03 0.09,0.07 0.12,0.1 0.03,0.03 0.3,0.46 0.56,0.51 0.23,0.04 2.24,0 2.73,0 0.12,0 0.27,0.01 0.38,-0.01l0.06 -0.02c0.29,-0.09 5.93,-0.03 6.82,-0.03 0.9,0 0.98,0.11 0.99,-0.2 0.01,-0.14 0.08,-0.19 0.08,-0.27l0 -4.78c0.15,-0 0.07,0.01 0.16,-0.03l0.08 5.28 10.79 0c0.16,0 0.2,-0.17 0.2,-0.31l0 -4.64c0,-0.21 -0.27,-0.04 -0.4,-0.03l0 -2.15 0.28 0 0 -5.05c0,-0.09 0.01,-0.07 -0.07,-0.08 -0.13,-0.01 0.04,-0.01 -0.11,0.05 -0.17,0.07 -0.43,0.08 -0.58,0.16 -0.24,0.11 -0.17,0.08 -0.42,0.12l-0.15 0.04c-0.07,0.02 -0.09,0.02 -0.15,0.04l-0.48 0.16c-0.01,0 -0.02,0.01 -0.03,0.01 -0.12,0.04 0.07,0.02 -0.15,0.04 0.02,-0.2 0.22,-0.23 0.32,-0.37l0.59 -1.03c0,-0.01 0.01,-0.02 0.01,-0.02 0.07,-0.14 0.11,-0.07 0.11,-0.25 0,-0.16 -0.23,-0.17 -0.4,-0.17 0,-0.54 -0.03,-0.29 -0.08,-0.55 -0.03,-0.19 -0.09,-0.22 -0.1,-0.39 -0.01,-0.16 0.02,-0.03 -0.07,-0.15 -0.16,-0.21 -0.04,-0.25 -0.24,-0.44 -0.05,-0.05 -0.03,-0.02 -0.07,-0.08 -0.01,-0.01 -0.02,-0.04 -0.02,-0.05l-0.06 -0.12c-0.06,-0.11 -0.12,-0.13 -0.21,-0.23 -0.02,-0.02 -0.03,-0.04 -0.05,-0.06 -0.15,-0.21 -0.11,-0.15 -0.31,-0.25 -0.12,-0.06 -0.18,-0.18 -0.31,-0.25 -0.14,-0.07 -0.26,-0.06 -0.28,-0.24 0.21,-0.05 0.32,-0.25 0.42,-0.39l0.36 -0.41c0.08,-0.07 0.16,-0.11 0.21,-0.19l0.05 -0.09c0,-0.01 0.01,-0.02 0.01,-0.02l0.28 -0.34c0.08,-0.11 0.12,-0.06 0.16,-0.2 -0.34,-0.14 -1.99,0.04 -2.45,-0.04 -0.19,-0.03 -0.01,-0.01 -0.11,-0.04 -0.35,-0.1 -1.11,-0.02 -1.52,-0.02 -0.19,0 -0.55,-0.02 -0.72,-0 -0.18,0.02 -0.12,0.03 -0.17,0.16l-0.2 0.71c-0.08,0.15 -0.1,0.31 -0.14,0.46 -0.02,0.05 0,0.02 -0.03,0.08l-0.16 0.44c-0,0.01 -0.01,0.02 -0.01,0.03 -0.11,0.38 -0.33,0.36 -0.53,0.64 -0.16,0.23 -0.22,0.25 -0.35,0.45l-0.17 0.3c-0.09,0.19 -0.19,0.2 -0.19,0.42 -0.16,-0.07 -0.5,-0.4 -0.65,-0.54l-0.12 -0.1c-0.15,-0.12 0.1,0.09 -0.04,-0.03 -0.12,-0.11 -0.46,-0.28 -0.62,-0.29l0 -0.1c0.18,-0.06 0,0.03 0.1,-0.12l0.68 -1.23c0,-0.01 0.01,-0.02 0.01,-0.03l0.05 -0.23c0.04,-0.16 0.07,-0.25 0.07,-0.45 -0,-0.46 0.02,-0.95 0,-1.4 -0.02,-0.3 -0.06,-0.04 -0.08,-0.3 -0.01,-0.06 0,-0.1 -0.01,-0.16 -0.03,-0.16 -0,0.01 -0.05,-0.13 -0.04,-0.12 -0,-0.19 -0.04,-0.3 -0.05,-0.13 -0.08,-0.04 -0.1,-0.26l-0.42 -1.38c-0.06,-0.12 -0.04,-0.17 -0.09,-0.3l-0.03 -0.07c-0,-0.01 -0.01,-0.02 -0.01,-0.03l-0.06 -0.15c-0.04,-0.14 0,-0.16 -0.06,-0.29 -0.1,-0.2 -0.14,-0.38 -0.21,-0.6l-0.14 -0.32c-0.01,-0.03 -0.01,-0.05 -0.02,-0.08l-0.1 -0.36c-0.02,-0.04 -0.03,-0.04 -0.06,-0.12 -0.07,-0.15 -0.15,-0.25 -0.3,-0.36l-0.16 -0.1z"/>
   <path class="fil1" d="M21.58 3.68c-0.06,-0.22 -0.04,-0.45 0.02,-0.67 0.06,-0.22 0.08,-0.15 -0.06,-0.32l-1.22 -0.11c-0.1,-0.01 -0.11,-0.03 -0.22,-0.05 -0.22,-0.04 -0.55,-0.02 -0.76,-0.03 -0.43,-0.03 -0.93,0.05 -1.3,0.24 -0.4,0.2 -0.74,0.47 -1.02,0.8 -0.03,0.03 -0.01,0.01 -0.05,0.06l-0.06 0.09c-0.05,0.08 -0.05,0.08 -0.1,0.15 -0.22,0.3 -0.54,1.16 -0.66,1.27l-0.04 0.03c-0.14,-0.09 -0.23,-0.3 -0.36,-0.41 -0.36,-0.28 -0.85,-0.2 -1.29,-0.13 -0.42,0.07 -0.73,0.19 -1.08,0.37 -0.09,0.04 -0.14,0.06 -0.23,0.11 -0.68,0.44 -1.12,1.08 -1.4,1.77 -0.03,0.07 -0.06,0.17 -0.09,0.23l-0.22 0.8c-0.03,0.1 -0.02,0.17 -0.04,0.27l-0.17 0.88c-0.03,0.21 -0.08,0.38 -0.09,0.57 -0.01,0.5 -0.16,1.25 -0.16,1.84 0,0.88 -0.07,2.21 0.06,3.05 0.02,0.11 0.01,0.21 0.03,0.32 0.02,0.13 0.07,0.13 0.07,0.31 0.01,0.52 0.15,1 0.41,1.42l0.12 0.17c0.72,0.83 2.75,0.88 3,0.43 0.04,-0.07 0.08,-0.16 0.11,-0.25 0.04,-0.15 0.08,-2.3 0.08,-2.66 0,-0.47 0.08,-0.85 0.08,-1.3 -0.01,-0.89 -0.03,-1.84 -0,-2.73l0.06 -0.63c0.08,-0.47 0.13,-0.96 0.37,-1.39 0.07,-0.12 0.05,-0.15 0.21,-0.16 0.12,0.21 -0.09,0.69 -0.12,0.96 -0.01,0.13 0.01,0.27 -0.01,0.4 -0.14,1.1 -0.08,4.69 -0.07,6.08 0,0.55 -0.16,0.89 0.07,1.34 0.07,0.13 0.25,0.34 0.38,0.43 0.09,0.06 0.15,0.1 0.24,0.17 0.11,0.07 0.17,0.1 0.29,0.16 0.76,0.34 1.55,0.45 2.39,0.3l0.45 -0.12c0.35,-0.13 0.55,-0.42 0.69,-0.7 0.09,-0.18 0.12,-0.45 0.16,-0.65 0.19,-1.15 0.05,-3.78 0.05,-5.11 0,-0.57 -0.07,-2.17 0.07,-2.6 0.05,-0.16 0.03,-0.15 0.05,-0.33 0.02,-0.22 0.11,-0.45 0.17,-0.67 0.05,-0.17 0,-0.2 0.22,-0.2 0.06,0.18 0,2.2 -0,2.64 -0,0.25 0.04,0.38 0.04,0.65l0 3.96c-0,0.66 -0.22,1.74 0.02,2.33 0.08,0.19 0.22,0.26 0.41,0.37 1.06,0.58 2.52,0.57 3.62,0.07 0.45,-0.2 0.84,-0.46 1.1,-0.83 0.14,-0.2 0.2,-0.41 0.27,-0.65l0.15 -0.76c0.05,-0.27 -0.01,-0.59 0.03,-0.86 0.03,-0.23 0.08,-0.56 0.07,-0.82 -0,-0.59 0.07,-1.15 0.12,-1.67 0.03,-0.28 -0.02,-0.63 0.03,-0.86l0.28 -2.86c0.1,-0.31 0.07,-0.61 0.22,-0.9 0.06,-0.12 -0.02,-0.1 0.14,-0.1 0,0.47 -0,0.99 -0.07,1.39 -0.1,0.65 0.08,1.49 -0.03,2.15 -0.16,0.94 0.04,1.94 -0.11,2.88l-0.15 2.13c-0.02,0.43 -0.04,0.76 0.31,1.13 0.12,0.13 0.28,0.29 0.44,0.37l0.69 0.26c0.01,0 0.02,0.01 0.03,0.01l0.54 0.11c0.71,0.1 1.61,0.1 2.34,-0.01 0.1,-0.02 0.2,-0.04 0.31,-0.07l0.31 -0.11c0.48,-0.22 0.8,-0.58 1.02,-1 0.27,-0.51 0.49,-1.13 0.61,-1.69l0.2 -0.95c0.04,-0.2 0.03,-0.45 0.06,-0.66 0.19,-1.18 0.06,-2.3 0.07,-3.39 0,-0.23 -0.04,-0.31 -0.04,-0.55 -0,-0.27 -0.11,-0.46 -0.04,-0.72 0.23,0.14 0.37,1.2 0.4,1.43 0.02,0.11 0.05,0.14 0.07,0.25 0.01,0.1 -0,0.19 0.01,0.29 0.03,0.19 0.06,0.25 0.07,0.52 0,0.16 0.03,0.15 0.04,0.27l0.08 1.43c0,0.31 -0.04,0.49 -0.04,0.79l-0.07 0.79c-0.04,0.27 -0.04,0.49 -0.12,0.75 -0.19,0.67 -0.33,1.28 -0.72,1.9 -0.48,0.77 -1.31,1.29 -2.3,1.4 -0.12,0.01 -0.25,0.05 -0.41,0.06 -0.18,0.01 -0.32,-0.01 -0.5,0.01 -0.71,0.09 -1.9,-0.11 -2.59,-0.3 -0.19,-0.05 -0.18,-0.03 -0.35,-0.1 -0.14,-0.06 -0.24,-0.08 -0.38,-0.12 -0.22,-0.07 -0.58,-0.28 -0.75,-0.28 -0.07,0 -0.46,0.26 -0.56,0.31 -0.83,0.43 -1.93,0.54 -2.93,0.44 -0.13,-0.01 -0.41,-0.03 -0.53,-0.05 -0.16,-0.03 -0.31,-0.08 -0.46,-0.12 -0.58,-0.14 -0.83,-0.19 -1.27,0.31 -0.09,0.1 -0.15,0.18 -0.22,0.32 -0.38,0.73 0.14,1.08 0.23,1.35l0.16 0c0,-0.27 0.06,-0.33 0.1,-0.56 0.02,-0.13 0.02,-0.16 0.06,-0.26 0.09,-0.26 0.11,-0.47 0.33,-0.71 0.3,-0.32 0.64,-0.27 1.05,-0.14 0.17,0.06 0.26,0.08 0.44,0.13l0.87 0.28c0.79,0.26 1.08,0.38 1.08,1.25 0,0.27 -0.04,0.39 -0.04,0.65l0.56 0 -0.04 -0.75c-0.02,-0.34 -0.08,-0.34 0.08,-0.55 0.34,0 0.69,-0 1.03,0 0.45,0 2.87,-0.16 2.98,-0.07 0.04,0.04 0.07,0.69 0.09,0.81 0.09,0.53 -0.1,0.44 0.54,0.39 0.34,-0.02 0.67,-0.01 0.96,-0.07 0.8,-0.16 1.25,-0.23 2.08,0.01 0.3,0.09 0.49,0.21 0.73,0.33 0.32,-0.24 0.62,-0.47 1.03,-0.61 0.22,-0.08 0.4,-0.15 0.64,-0.2 1,-0.2 0.97,0.05 1.37,-0.32 0.34,-0.32 0.84,-1.12 0.84,-1.56l0 -1.3c0,-0.32 -0.2,-0.91 -0.27,-1.24l-0.47 -1.44c-0.04,-0.12 -0.06,-0.2 -0.09,-0.29l-0.14 -0.42c-0.03,-0.08 -0.03,-0.07 -0.06,-0.15 -0.07,-0.2 -0.12,-0.41 -0.19,-0.59 -0.09,-0.24 -0.09,-0.44 -0.25,-0.54 -0.02,0.16 -0.15,0.36 -0.19,0.52 -0.02,0.08 -0.01,0.12 -0.04,0.21 -0.08,0.29 -0.14,0.49 -0.17,0.8l-0.32 1.61 -0.12 0c0,-0.49 0.01,-1.01 0.1,-1.48 0.03,-0.17 0,-0.35 0.02,-0.53 0.01,-0.15 0.07,-0.32 0.08,-0.48l0.12 -0.99c0,-0.09 -0.01,-0.19 0,-0.27 0.01,-0.1 0.04,-0.15 0.06,-0.25 0.04,-0.16 0.01,-0.34 0.04,-0.51 0.03,-0.19 0.05,-0.3 0.06,-0.5 0.01,-0.18 0.04,-0.29 0.04,-0.51 -0,-0.69 0.05,-0.81 -0,-1.57 -0.03,-0.41 0,-0.69 -0.06,-1.07 -0.04,-0.23 -0.05,-0.49 -0.12,-0.72 -0.03,-0.1 -0.01,-0.15 -0.02,-0.25 -0.01,-0.09 -0.04,-0.14 -0.06,-0.22l-0.15 -0.69c-0.02,-0.08 -0.04,-0.1 -0.07,-0.21 -0.02,-0.07 -0.04,-0.13 -0.07,-0.21 -0.24,-0.77 -0.81,-2 -1.55,-2.52l-0.83 -0.44 -0.68 -0.17c-0.39,-0.08 -0.86,-0.04 -1.26,-0.04 -0.21,0 -0.96,0.23 -1.2,0.33 -0.29,0.12 -0.55,0.29 -0.8,0.47l-0.52 0.51c-0.01,0.01 -0.03,0.03 -0.04,0.03 -0.06,0.04 -0.02,0.03 -0.1,0.05 -0.05,-0.09 -0.03,-0.22 0.01,-0.34l0.19 -0.49c0.18,-0.38 0.18,-0.41 -0.21,-0.63 -0.39,-0.22 -1.41,-0.59 -1.85,-0.59l-1.51 0c-0.11,0 -0.12,0.05 -0.27,0.07l-0.56 0.17c-0.12,0.04 -0.15,0.06 -0.26,0.12 -0.39,0.19 -0.45,0.26 -0.75,0.52 -0.28,0.24 -0.52,0.54 -0.67,0.86l-0.33 0.7c-0.04,0.11 -0.04,0.16 -0.17,0.19z"/>
   <path class="fil2" d="M26.15 30.35c0,0.53 -0.5,0.63 -0.73,0.74 -0.21,0.1 -0.81,0.03 -1.13,0.05 -0.54,0.04 -0.07,0.05 -0.68,0 -0.48,-0.03 -0.45,-0.19 -0.43,-0.58 0.01,-0.19 -0.04,-0.51 0.02,-0.67 0.14,-0.37 0.76,-0.26 1.41,-0.26 0.24,0 0.46,0.04 0.63,0.03 0.15,-0.01 0.18,-0.07 0.29,-0.01 0.11,0.06 0.05,0.09 -0.01,0.14 0.35,0 0.29,0.02 0.44,0.2 0.01,0.01 0.01,0.01 0.02,0.02 0.01,0.01 0.01,0.01 0.02,0.02 0.07,0.07 0.15,0.15 0.15,0.31zm19.92 -4.09c0,-0.18 -0.04,-0.28 -0.04,-0.41 0.02,-0.71 0.29,-0.9 -0.68,-0.62l-1.83 0.47c-0.2,0.04 -0.1,0.03 -0.23,0.07 -0.18,0.06 -0.34,0.04 -0.54,0.12 -0.23,0.09 -0.3,0.06 -0.56,0.1 -0.03,0 -0.21,0.06 -0.27,0.08 -0.12,0.05 -0.08,0.05 -0.23,0.08 -0.56,0.1 -1.08,0.23 -1.65,0.32 -0.19,0.03 -0.32,0.1 -0.53,0.13l-1.65 0.32c-0.21,0.05 -1.39,0.17 -1.73,0.25 -0.09,0.02 -0.15,0.05 -0.28,0.06 -0.32,0.04 -0.53,0.03 -0.85,0.12 -0.32,0.09 -0.8,0.08 -1.18,0.14 -0.08,0.01 -0.19,0.05 -0.29,0.05 -0.11,0.01 -0.2,-0 -0.3,0.01 -0.08,0.01 -0.2,0.05 -0.29,0.06 -0.11,0.01 -0.19,0 -0.3,0.02 -0.42,0.05 -0.74,0.13 -1.21,0.12 -0.24,-0 -0.77,0.01 -0.97,0.05 -0.1,0.02 -0.14,0.05 -0.24,0.07 -0.41,0.08 -1,-0.11 -1.05,0.25 -0.04,0.3 0.03,0.75 -0.24,0.95 -0.21,-0.04 -0.41,-0.21 -0.58,-0.32 -0.13,-0.09 -0.09,-0.01 -0.1,-0.19 -0.22,0 -0.26,-0.03 -0.44,-0.03 -0.02,-0.19 -0.32,-0.19 -0.71,-0.28 -0.49,-0.11 -0.43,-0.04 -0.85,-0.09 -0.37,-0.04 -0.51,-0.08 -0.95,-0.07 -0.86,0 -4.85,-0.07 -4.99,-0.03l-0.13 0.1c0,0.41 0.05,1.24 -0.01,1.63 -0.04,0.23 0.01,0.62 0.01,0.9 0,0.5 -0.05,0.42 -0,0.96 0.02,0.25 -0.04,0.57 -0.01,0.8l0.06 0.77c0.02,0.35 -0.06,0.78 0.08,1.02 0.44,0.09 1.99,0.03 2.54,0.03 0.61,0 0.16,-1.26 0.37,-1.63 0.11,-0.19 0.2,-0.22 0.41,-0.2l0.49 0.09c0.21,0.08 0.21,0.03 0.31,0.21 0.06,0.11 0.07,0.09 0.16,0.17l0.27 0.28c0.22,0.31 0.41,0.26 0.41,0.53l0.24 0c0.04,0.15 0.13,0.24 0.24,0.34 0.11,0.09 0.23,0.21 0.39,0.21l2.74 0c0.14,0 0.19,-0.12 0.2,-0.24 -0.26,-0.01 -0.2,-0.06 -0.28,-0.2 -0.05,-0.1 -0.15,-0.11 -0.24,-0.21 -0.09,-0.1 -0.18,-0.15 -0.25,-0.23 -0.14,-0.15 0.02,-0.09 -0.2,-0.23 -0.16,-0.1 -0.22,-0.23 -0.36,-0.34l-0.3 -0.32c-0.12,-0.2 -0.27,-0.32 0.03,-0.5l0.09 -0.06c0.22,-0.16 0.52,-0.24 0.76,-0.41 0.45,-0.32 0.03,-0.24 0.52,-0.44 -0.05,-0.08 -0.07,-0.09 -0.08,-0.2 0.15,-0.04 0.09,-0.01 0.16,-0.11 0.01,-0.01 0.02,-0.04 0.03,-0.04l0.07 -0.11c0.14,-0.3 -0.07,-0.77 0.16,-0.99 0.08,-0.08 0.06,-0.07 0.19,-0.11 0.59,-0.18 1.39,-0.05 2,-0.12 0.83,-0.1 0.55,0.42 0.61,1 0.05,0.55 0.03,2.42 -0.04,3.08 -0.01,0.09 0.03,0.35 0.03,0.51 0.01,0.18 0.07,0.27 0.28,0.27l2.3 0c0.4,0 0.26,-0.32 0.29,-0.53l0.06 -0.77c0.05,-0.79 0,-2.4 -0,-3.28 -0,-0.77 0.29,-0.57 0.85,-0.71 0.15,-0.04 -0.02,-0.04 0.19,-0.04 0.23,0 0.17,0.06 0.39,-0 0.26,-0.07 0.63,-0.05 0.9,-0.11 0.14,-0.03 0.05,-0.06 0.13,-0.06 0.22,0 0.02,0.05 0.22,0.02 0.18,-0.03 0.29,-0.13 0.47,0.1 0.12,0.15 0.12,0.69 0.1,0.87 -0.06,0.6 -0.04,1.3 -0.04,1.91 0,0.61 -0.11,2.12 0,2.52 0.41,0.08 0.82,0.05 1.24,0.01 0.86,-0.08 1.86,0.03 2.73,0.03 0.46,0 0.93,0 1.39,0 0.16,0 0.18,-0.02 0.28,-0.03 0.16,-0 0.07,0.02 0.24,0.03 0.16,0.01 0.33,-0.03 0.55,-0.03l1.36 0.01c0.12,-0.03 0.1,-0.05 0.19,-0.11 -0,-0.13 -0.05,-0.16 -0.04,-0.3 0.05,-0.52 0.01,-1.07 -0,-1.58 -0,-0.19 -0.04,-0.2 -0.12,-0.3l-1.2 0.06c-0.34,0.04 -0.36,0.01 -0.54,0.02 -0.13,0.01 -0.16,0.06 -0.56,0.06 -0.49,-0 -0.74,0.05 -1.15,0.1 -0.36,0.04 -0.74,0.07 -1.15,0.07 -0.12,0 -0.25,-0.11 -0.3,-0.18 -0.13,-0.17 -0.05,-0.17 -0.05,-0.33 0,-0.39 -0.11,-0.55 0.43,-0.62 0.25,-0.03 0.07,-0.05 0.25,-0.09l0.67 -0.07c0.26,-0.03 0.42,-0.04 0.7,-0.04 0.49,0 0.84,-0.12 1.31,-0.17 0.5,-0.05 0.94,-0.01 1.3,-0.18l0.04 -0.78c0,-0.24 -0.04,-0.35 -0.04,-0.55 0,-0.13 0.03,-0.2 0.03,-0.27 0,-0.08 -0.03,-0.1 -0.03,-0.24 -0.24,0 -0.36,0.03 -0.6,0.03 -0.25,0.01 -0.32,0.06 -0.55,0.07 -0.24,0.02 -0.22,0.08 -0.52,0.1 -0.22,0.01 -0.31,0.07 -0.49,0.09 -0.34,0.04 -0.77,0.07 -1.07,0.14 -0.23,0.05 -1.06,0.21 -1.27,0.07l-0.19 -0.28c-0.02,-0.16 0.03,-0.48 0.09,-0.6l0.03 -0.04c0.05,-0.06 0.14,-0.09 0.23,-0.11 0.14,-0.03 0.31,-0.02 0.45,-0.06 0.23,-0.06 0.58,-0.07 0.83,-0.14 0.66,-0.16 1.49,-0.25 2.16,-0.39 0.24,-0.05 0.86,-0.11 1.06,-0.25 0.09,-0.06 0.23,-0.11 0.23,-0.21l0 -0.89z"/>
   <path class="fil2" d="M12.34 30.76c0,-0.17 0.01,-0.25 0.05,-0.4l0.21 -0.47c0.06,-0.1 0.01,-0.02 0.12,-0.1 0.16,-0.12 0.08,-0.17 0.19,-0.24 0.02,-0.01 0.14,-0.05 0.19,-0.07 0.14,-0.07 0.07,-0.08 0.2,-0.13 0.03,-0.01 0.06,-0.02 0.09,-0.03 0.01,-0 0.08,-0.02 0.09,-0.02 0.11,-0.03 -0.01,-0.01 0.09,-0.02 0.07,-0.01 0.38,-0.04 0.43,-0.04l0.4 -0c0.67,0 0.69,0.11 1.09,0.26 0.37,0.14 0.3,0.14 0.47,0.28 0.1,0.08 0.1,0.04 0.18,0.09 0.08,0.05 0.03,0.01 0.08,0.07l0.11 0.14c0.05,0.05 0.01,-0 0.06,0.05 0.04,0.04 0.07,0.09 0.1,0.15 0.24,0.44 0.25,0.61 0.25,1.05 0,0.14 0.01,-0.01 -0.06,0.12l-0.1 0.25c-0.04,0.11 0.01,0.02 -0.06,0.12 -0.13,0.17 -0.17,0.12 -0.27,0.28 -0.11,0.17 -0.09,0.09 -0.4,0.31 -0.2,0.14 -0.18,0.04 -0.42,0.15 -0.29,0.13 -0.29,0.06 -0.42,0.06l-0.73 0.02c-0.16,0 -0.65,-0.17 -0.74,-0.22l-0.15 -0.08c-0.34,-0.11 -0.1,-0.06 -0.31,-0.15 -0.35,-0.14 -0.08,-0.04 -0.35,-0.34 -0.2,-0.22 -0.2,-0.39 -0.29,-0.57 -0.13,-0.24 -0.11,-0.2 -0.11,-0.49zm6.86 1.88c0,-0.24 0,-0.1 0.09,-0.26 0.36,-0.6 0.4,-0.57 0.37,-1.26 -0.02,-0.42 0.01,-0.62 -0.23,-1 -0.05,-0.08 -0.11,-0.13 -0.15,-0.21 -0.04,-0.08 -0.04,-0.17 -0.08,-0.23 -0.07,-0.11 -0.1,-0.06 -0.2,-0.17 -0.1,-0.11 -0.04,-0.14 -0.22,-0.29l-0.26 -0.22c-0.08,-0.07 -0.11,-0.1 -0.21,-0.16 -0.21,-0.14 -0.13,-0.16 -0.27,-0.25 -0.01,-0 -0.11,-0.05 -0.13,-0.06 -0.1,-0.05 -0.15,-0.08 -0.22,-0.11 -0.09,-0.04 -0.17,-0.06 -0.27,-0.11l-1.26 -0.49c-0.49,-0.23 -0.88,-0.21 -1.44,-0.34l-1.02 -0.08 -1.4 0.07c-0.11,0.02 -0.17,0.06 -0.27,0.07 -0.34,0.06 -0.08,-0.06 -0.42,0.11 -0.25,0.12 -0.19,0.13 -0.35,0.18 -0.32,0.08 -0.27,0.03 -0.51,0.21l-0.21 0.16c-0.23,0.19 -0.11,0 -0.36,0.3 -0.1,0.11 -0.07,0.03 -0.17,0.16 -0.06,0.07 -0.1,0.15 -0.15,0.22 -0.06,0.09 -0.1,0.09 -0.17,0.16l-0.35 1c-0.01,0.1 0,0.2 -0.01,0.3 -0.02,0.18 -0.03,0.04 0.02,0.23 0.05,0.18 0.02,0.43 0.05,0.6 0.04,0.16 0.18,0.53 0.3,0.67 0.13,0.15 0.08,0.05 0.12,0.23 0.05,0.19 0.1,0.22 0.15,0.35 0.03,0.06 0.02,-0.01 0.03,0.11 0.27,0.02 0.04,0.11 0.29,0.3 0.01,0 0.02,0.01 0.02,0.01 0.21,0.16 0.23,0.25 0.31,0.31l0.24 0.17c0.01,0 0.02,0.01 0.02,0.01 0.42,0.23 0.08,0.06 0.32,0.24l1.05 0.46c0.4,0.08 0.3,0.15 0.9,0.25 0.14,0.02 0.18,0.04 0.33,0.06l1.43 0.06c0.21,0 1.13,-0.13 1.35,-0.21 0.2,-0.07 0.37,-0.12 0.6,-0.16l0.44 -0.14c0.43,-0.18 0.33,-0.14 0.61,-0.33 0.17,-0.12 0.31,-0.09 0.49,-0.26 0.18,-0.19 0.23,-0.18 0.4,-0.34 0.13,-0.12 0.05,-0.09 0.14,-0.22 0.06,-0.08 0.09,-0.11 0.22,-0.11z"/>
   <path class="fil2" d="M4.64 29.5c-0.35,-0.57 -0.27,-0.23 -0.27,-0.96 0,-0.19 -0.1,-0.4 0.3,-0.48 0.22,-0.04 0.15,-0 0.35,0.05l1.17 0.19c0.2,0.01 0.27,0.01 0.44,0.03 0.56,0.07 0.49,0.11 0.73,0.15l0.85 0.09c0.25,0.01 0.18,0.03 0.39,0.07 0.52,0.09 0.45,-0 0.6,-0.04 -0.08,-0.28 0.03,-0.33 -0.02,-0.63 -0.08,-0.45 0.11,-1.09 -0.17,-1.22l-0.66 -0.11c-0.56,-0.09 -2.12,-0.5 -2.63,-0.5 -0.09,-0.11 -0.07,-0.02 -0.08,-0.17 -0.24,0 -0.35,0.02 -0.54,-0.05 -0.25,-0.08 -0.17,-0.07 -0.49,-0.09 -0.18,-0.01 -0.33,-0.04 -0.47,-0.11l-1.61 -0.43c-0.44,-0.09 -0.5,-0.22 -0.62,-0.22 -0.53,0 -0.44,-0.01 -0.44,0.65l0 8.29c0.03,0.16 0.05,0.17 0.27,0.18l2.19 -0c0.32,0.01 0.47,0.1 0.47,-0.27 0,-0.47 0.03,-1.67 -0.08,-2.05 -0.03,-0.09 -0.03,-0.09 0.04,-0.21 0.12,-0.21 0.31,-0.33 0.6,-0.28 0.25,0.05 0.36,0.02 0.63,0.04 0.16,0.02 0.44,0.05 0.6,0.06l0.83 0.04c0.27,0.03 -0.09,0.03 0.36,0.03 0.54,0 0.9,0.1 1.39,0.1 0.06,-0.2 0.16,-0.04 0.16,-0.2l-0.03 -0.47c0,-0.04 0.04,-0.2 0.04,-0.29 0,-0.2 0.08,-0.69 -0.2,-0.82l-1.75 -0.18c-0.78,-0.02 -1.56,-0.38 -2.34,-0.23z"/>
   <path class="fil1" d="M30.23 23.39c0,-0 0.08,-0.27 0.09,-0.3 0.03,-0.08 0.09,-0.16 0.17,-0.22l0.6 -0.21c0.74,0.02 1.07,0.83 0.56,1.27 -0.55,0.47 -1.42,0.06 -1.42,-0.54zm5.12 -0.78c0,-0.87 1.27,-0.74 1.27,-0.1 0,0.08 -0.24,0.09 -0.32,0.1 -0.22,0.02 -0.95,0.18 -0.95,0.01zm-1.79 0c-0.27,-0.48 -0.09,-0.28 -0.49,-0.7 -0.23,-0.24 -0.57,-0.4 -0.93,-0.46 -0.52,-0.1 -1.09,-0.02 -1.52,0.24 -0.29,0.17 -0.13,0.31 -0.47,0.24 0,-0.53 -0.02,-0.3 -0.75,-0.31 -0.25,-0 -0.91,0.03 -1.11,0.07 0,0.22 0.02,0.39 0.06,0.6l0.18 3.09c0.02,0.24 0.04,0.36 0.04,0.61 -0,0.58 -0.07,0.55 0.28,0.55 0.52,0 1.28,-0.02 1.71,-0.1l-0.11 -1.28c-0.05,-0.39 0.27,-0.09 0.37,-0.04 0.47,0.24 0.75,0.19 1.25,0.19 0.6,0 1.22,-0.5 1.48,-0.98 0.08,-0.14 0.1,-0.37 0.22,-0.56 0.15,0.09 0.09,0.06 0.17,0.2 0.3,0.53 1.16,0.93 1.9,0.93 0.6,0 0.35,0.03 0.84,-0.06l0.65 -0.16c0.18,-0.06 0.16,-0.05 0.3,-0.12 0.17,-0.08 0.27,-0.13 0.42,-0.25l0.04 -0.04c0.01,-0.01 0.01,-0.01 0.02,-0.02 0.25,-0.25 0.29,-0.21 0.36,-0.44l-0.54 -0.25c-0.21,-0.11 -0.32,-0.17 -0.57,-0.22 -0.56,0.72 -1.69,0.56 -1.82,0.07 0.22,-0.13 0.32,-0.11 0.67,-0.14l1.51 -0.2c0.25,-0.03 0.53,-0.1 0.75,-0.11 0,-0.36 -0.17,-0.84 -0.36,-1.12 -0.57,-0.81 -1.82,-1.03 -2.92,-0.72 -0.51,0.15 -0.95,0.47 -1.22,0.86 -0.33,0.49 -0.08,0.47 -0.37,0.63z"/>
   <path class="fil1" d="M17.42 23.53c0,-0.98 1.68,-1.03 1.65,0.03 -0.02,0.93 -1.65,0.91 -1.65,-0.03zm-4.72 -0.82c0.19,-0.69 1.13,-0.67 1.28,-0.04 0.03,0.13 0.02,0.14 -0.05,0.24l-0.99 -0.1c-0.21,-0.03 -0.09,-0.02 -0.24,-0.1zm-1.82 0.34c0,0.39 0,0.69 0.28,1.06 0.37,0.5 0.97,0.85 1.67,0.95 0.49,0.07 0.96,0.12 1.47,0 0.29,-0.07 1.04,-0.32 1.07,-0.61 -0.14,-0.03 -0.53,-0.38 -0.67,-0.48l-0.11 -0.08c-0.06,-0.04 -0.08,-0.06 -0.14,-0.09 -1.13,0.84 -2.25,-0.38 -1.63,-0.38 0.28,0 1.15,0.13 1.48,0.16 0.15,0.02 0.28,0 0.43,0.01 0.14,0.01 0.23,0.03 0.38,0.05 0.46,0.06 0.45,-0.09 0.54,0.32 0.04,0.2 0.1,0.41 0.21,0.57 0.44,0.7 1.01,0.9 1.93,0.9 0.14,0 0.22,-0.01 0.34,-0.05l0.28 -0.1c0.09,-0.04 0.04,-0.01 0.12,-0.07 0.2,-0.14 0.19,-0.19 0.36,-0.2 0.13,0.17 0.06,0.07 0.01,0.28l-0.01 1.25 1.9 0.07 0.05 -1.22c0.11,-0.81 0.03,-2.09 0.09,-2.45 0.07,-0.38 0.06,-0.79 0.06,-1.21 -0.34,-0.07 -1.42,-0.07 -1.83,-0.07 -0.02,0.23 -0,0.27 -0.12,0.34 -0.22,-0.05 -0.15,-0.17 -0.58,-0.35 -0.69,-0.29 -1.53,-0.19 -2.1,0.27l-0.04 0.03c-0.01,0 -0.01,0.01 -0.02,0.02 -0.45,0.37 -0.41,0.64 -0.59,0.75 -0.29,-0.18 -0.04,-0.99 -1.62,-1.44 -0.59,-0.17 -1.32,-0.14 -1.86,0.06 -0.16,0.06 -0.22,0.1 -0.36,0.17 -0.53,0.25 -1,1 -1,1.52z"/>
   <path class="fil1" d="M5.44 22.16c0.02,-0.2 0.06,-0.18 0.16,-0.3 0.14,-0.16 0.43,-0.68 0.63,-0.72 0.08,0.13 0.1,0.13 0.12,0.31 0.04,0.34 0.29,0.89 0.04,0.89 -0.23,0 -0.8,-0.11 -0.95,-0.17zm-3.33 1.19l1.01 0.19c0.17,0.04 0.37,0.08 0.51,0.1l0.54 0.08c0.08,-0.1 0.14,-0.18 0.23,-0.28 0.28,-0.33 0.2,-0.3 0.59,-0.21l1.31 0.21c0.17,0.03 0.37,0.06 0.5,0.12 0.27,1.01 0.02,0.55 1.08,0.81 0.15,0.04 1.08,0.17 1.16,0.13 0.07,-0.03 0.05,-0.06 0.01,-0.17l-1.22 -4.17c-0.05,-0.22 -0.19,-0.56 -0.19,-0.76l-1.36 -0.23c-0.59,-0.1 -0.47,-0.16 -0.71,0.16 -0.56,0.73 -1.24,1.46 -1.82,2.16l-0.71 0.79c-0.18,0.21 -0.88,0.95 -0.92,1.09z"/>
   <path class="fil1" d="M24.16 25.2l0 0.34 1.9 -0.03c0.07,-0.27 -0.02,-2.1 -0.04,-2.7l-0.04 -1.06 -1.39 0.01c-0.12,-0 -0.36,0.01 -0.43,0.03 -0.07,0.25 0.13,2.04 -0.11,2.3 -0.45,0.49 -1.08,0.12 -1.08,-0.32 0,-0.44 -0.02,-1.2 0.03,-1.61 0.08,-0.57 -0.21,-0.37 -0.59,-0.37 -0.13,0 -0.2,-0.03 -0.4,-0.03 -1.11,0 -0.87,-0.24 -0.87,1.23 -0,0.2 -0.04,0.25 -0.04,0.44 -0.01,0.9 -0.16,1.67 0.78,2.06 1.19,0.49 2.15,-0.36 2.15,-0.36 0.07,-0.02 0.13,-0.03 0.13,0.08z"/>
   <path class="fil1" d="M41.74 21.58c0,-0.11 0.13,-0.32 0.19,-0.38 0.35,-0.33 1.04,-0.06 1.04,0.21 0,0.17 0.02,0.17 -0.47,0.25 -0.57,0.09 -0.76,0.2 -0.76,-0.08zm0.71 2.35c0.37,0 0.54,-0.05 0.86,-0.12 0.55,-0.12 1.11,-0.41 1.44,-0.81 0.3,-0.36 0.14,-0.35 -0.05,-0.42l-0.89 -0.33c-0.67,0.87 -1.81,0.62 -1.82,0.14 0.65,-0.13 2.14,-0.43 2.7,-0.51 0.11,-0.01 0.14,-0.01 0.19,-0.07 0.07,-0.09 0.04,-0 -0.01,-0.15l-0.1 -0.26c-0.3,-0.6 -0.21,-0.49 -0.69,-0.94 -0.51,-0.48 -1.64,-0.59 -2.52,-0.3 -0.39,0.13 -0.37,0.14 -0.7,0.35 -0.4,0.25 -0.74,0.77 -0.79,1.24 -0.04,0.42 0.02,0.81 0.23,1.17 0.42,0.73 1.23,1.01 2.16,1.01z"/>
   <path class="fil0" d="M14.99 31.3c-0.08,0.04 -0.11,0.07 -0.23,0.07 -0.56,0 -0.36,0.02 -0.55,-0.11 -0.17,-0.12 -0.17,0 -0.28,-0.21l-0.02 -0.05c-0.13,-0.27 -0.11,-0.07 -0.11,-0.25 0,-0.12 0.09,-0.08 0.16,-0.24l0.71 0c0.05,0.1 -0.01,0 0.16,0.1l0.4 0.31 0 0.27 -0.24 0.1zm-2.66 -0.54c0,0.28 -0.02,0.25 0.11,0.49 0.09,0.18 0.09,0.35 0.29,0.57 0.28,0.3 0,0.2 0.35,0.34 0.2,0.08 -0.04,0.04 0.31,0.15l0.15 0.08c0.09,0.05 0.58,0.22 0.74,0.22l0.73 -0.02c0.13,-0 0.13,0.07 0.42,-0.06 0.24,-0.11 0.22,-0.01 0.42,-0.15 0.3,-0.21 0.28,-0.14 0.4,-0.31 0.11,-0.16 0.15,-0.11 0.27,-0.28 0.07,-0.1 0.02,-0.01 0.06,-0.12l0.1 -0.25c0.06,-0.13 0.06,0.02 0.06,-0.12 0,-0.43 -0.01,-0.61 -0.25,-1.05 -0.03,-0.06 -0.06,-0.11 -0.1,-0.15 -0.05,-0.05 -0.01,-0 -0.06,-0.05l-0.11 -0.14c-0.05,-0.06 0.01,-0.02 -0.08,-0.07 -0.08,-0.04 -0.08,-0.01 -0.18,-0.09 -0.17,-0.14 -0.1,-0.13 -0.47,-0.28 -0.39,-0.15 -0.41,-0.26 -1.09,-0.26l-0.4 0c-0.04,0 -0.35,0.03 -0.43,0.04 -0.11,0.02 0.01,-0 -0.09,0.02 -0.01,0 -0.08,0.02 -0.09,0.02 -0.03,0.01 -0.06,0.01 -0.09,0.03 -0.13,0.05 -0.06,0.07 -0.2,0.13 -0.05,0.02 -0.17,0.06 -0.19,0.07 -0.11,0.08 -0.04,0.13 -0.19,0.24 -0.11,0.08 -0.06,0 -0.12,0.1l-0.21 0.47c-0.04,0.15 -0.05,0.23 -0.05,0.4z"/>
   <path class="fil1" d="M26.22 21.76l0.02 0.94c0.07,0.41 0.06,1.51 0.06,1.92 -0,1.1 0.07,0.91 0.45,0.86 0.22,-0.03 0.51,-0.01 0.74,-0.01 0.31,0 0.48,-0.03 0.75,-0.03 0.09,-0.37 -0.08,-1.51 -0.08,-1.84 0,-0.44 -0.08,-1.16 -0.08,-1.43 0,-0.22 -0.04,-0.3 -0.04,-0.48l-0.91 0.03c-0.15,0.01 -0.32,-0.01 -0.48,-0 -0.18,0.01 -0.22,0.03 -0.44,0.03z"/>
   <path class="fil1" d="M24 19.98c0,-0.22 -0.07,-0.51 -0.32,-0.61l-0.74 -0.29c-0.35,-0.11 -0.66,-0.23 -1.02,-0.31 -0.73,-0.16 -0.79,0.2 -1,0.88 -0.06,0.18 -0.07,0.28 -0.11,0.49 -0.04,0.23 0.01,0.33 0.18,0.43 0.48,0.29 0.56,0.2 1.19,0.2 0.49,0 0.86,0.03 1.35,0.04 0.33,0 0.4,0.02 0.4,-0.27 0,-0.24 0.08,-0.33 0.08,-0.55z"/>
   <path class="fil0" d="M26.15 30.35c0,-0.16 -0.08,-0.24 -0.15,-0.31 -0.01,-0.01 -0.01,-0.01 -0.02,-0.02 -0.01,-0.01 -0.01,-0.01 -0.02,-0.02 -0.16,-0.18 -0.1,-0.2 -0.44,-0.2 0.06,-0.05 0.12,-0.08 0.01,-0.14 -0.11,-0.06 -0.14,-0.01 -0.29,0.01 -0.17,0.01 -0.39,-0.03 -0.63,-0.03 -0.65,0 -1.27,-0.11 -1.41,0.26 -0.06,0.16 -0.01,0.48 -0.02,0.67 -0.02,0.39 -0.05,0.55 0.43,0.58 0.61,0.04 0.14,0.04 0.68,-0 0.33,-0.02 0.92,0.05 1.13,-0.05 0.23,-0.11 0.73,-0.21 0.73,-0.74z"/>
   <path class="fil0" d="M17.42 23.53c0,0.94 1.63,0.96 1.65,0.03 0.03,-1.06 -1.65,-1.01 -1.65,-0.03z"/>
   <path class="fil0" d="M30.23 23.39c0,0.6 0.88,1.01 1.42,0.54 0.51,-0.44 0.18,-1.25 -0.56,-1.27l-0.6 0.21c-0.08,0.07 -0.14,0.14 -0.17,0.22 -0.01,0.03 -0.09,0.29 -0.09,0.3z"/>
   <path class="fil1" d="M43.48 18.55c-0.3,0 -0.61,-0 -0.91,0 -1.1,0.01 -0.69,-0.29 -1.12,0.91l-0.02 0.05c-0.03,0.07 -0.03,0.04 -0.06,0.16 -0.06,0.28 0.08,0.19 0.3,0.15 0.54,-0.11 0.74,-0.06 0.97,-0.29 0.1,-0.11 0.83,-0.84 0.85,-0.98z"/>
   <path class="fil1" d="M26.15 20.6l0.02 0.6c0.02,0.11 -0,0.16 0.08,0.2 0.1,0.05 1.05,-0.03 1.18,-0.04 0.2,-0.02 0.42,-0.01 0.62,-0.01l0 -0.89c-0.24,-0.05 -1.07,0 -1.51,-0 -0.19,-0 -0.4,-0.03 -0.4,0.14z"/>
   <path class="fil0" d="M5.44 22.16c0.16,0.06 0.72,0.17 0.95,0.17 0.25,0 0,-0.55 -0.04,-0.89 -0.02,-0.18 -0.04,-0.18 -0.12,-0.31 -0.2,0.05 -0.49,0.56 -0.63,0.72 -0.1,0.12 -0.14,0.1 -0.16,0.3z"/>
   <path class="fil0" d="M35.35 22.61c0,0.18 0.72,0.02 0.95,-0.01 0.08,-0.01 0.32,-0.02 0.32,-0.1 0,-0.64 -1.27,-0.77 -1.27,0.1z"/>
   <path class="fil0" d="M12.7 22.71c0.15,0.08 0.03,0.07 0.24,0.1l0.99 0.1c0.07,-0.11 0.08,-0.12 0.05,-0.24 -0.15,-0.64 -1.09,-0.65 -1.28,0.04z"/>
   <path class="fil0" d="M41.74 21.58c0,0.27 0.19,0.17 0.76,0.08 0.49,-0.08 0.47,-0.08 0.47,-0.25 0,-0.27 -0.69,-0.54 -1.04,-0.21 -0.06,0.06 -0.19,0.28 -0.19,0.38z"/>
  </g>
 </g>
</svg>
