<?xml version="1.0" encoding="UTF-8"?>
<!DOCTYPE svg PUBLIC "-//W3C//DTD SVG 1.1//EN" "http://www.w3.org/Graphics/SVG/1.1/DTD/svg11.dtd">
<!-- Creator: CorelDRAW -->
<svg xmlns="http://www.w3.org/2000/svg" xml:space="preserve" width="33.8599mm" height="16.9434mm" version="1.1" style="shape-rendering:geometricPrecision; text-rendering:geometricPrecision; image-rendering:optimizeQuality; fill-rule:evenodd; clip-rule:evenodd"
viewBox="0 0 272.1 136.16"
 xmlns:xlink="http://www.w3.org/1999/xlink"
 xmlns:xodm="http://www.corel.com/coreldraw/odm/2003">
 <defs>
  <style type="text/css">
   <![CDATA[
    .fil0 {fill:black}
    .fil2 {fill:#FEFE00}
    .fil3 {fill:red}
    .fil1 {fill:white}
   ]]>
  </style>
 </defs>
 <g id="Camada_x0020_1">
  <metadata id="CorelCorpID_0Corel-Layer"/>
  <path class="fil0" d="M199.39 7.99c-0.05,0.6 -0.03,0.49 -0.27,0.89l-1.08 0 0 -0.89c-7.44,0 -41.04,-0.91 -47.93,0.3 -3.09,0.54 -10.24,-2.11 -16.98,0.08 -3.36,1.11 -3.71,1.16 -5.55,0.24 -3.09,-1.54 -9.07,-1.06 -13.89,-1.06l-22.72 0.05c-1.84,0.22 -5.28,0.38 -7.39,0.38 -0.05,0.6 -0.03,0.49 -0.27,0.89l-0.81 0c-0.24,-0.41 -0.22,-0.27 -0.27,-0.89l-8.4 -0.22c-6.39,-0.16 -4.82,0.68 -7.88,0.68 -0.22,-0.35 -0.27,0.41 0,-0.68 -6.61,-0.46 -18.06,-0.51 -23.86,0.46 -7.75,1.27 -7.85,6.31 -8.15,11.26 -0.05,1 -0.27,1.19 -0.27,2.44l-0.27 0c0,-1.22 -1.98,-8.56 -2.46,-10.59 -0.65,-2.65 0.81,-3.79 -4.85,-3.79 -13.89,0 -13.53,0.56 -15.73,7.53l-10.34 32.52 29.57 0c-0.3,2.87 -0.81,5.77 -0.81,8.85l5.69 0c0,8.48 -1.62,13.16 -1.62,20.12 -14.6,0 -8.66,-0.77 -25.24,1.33l-4.33 36.26c0.14,0.76 0.79,0.89 1.33,1.57 -1.3,0.51 -4.47,0.62 -3.76,2.82 0.43,1.3 2.87,1.84 5.09,1.84 68.78,-0.05 137.78,0.22 206.48,0 7.72,-0.03 5.88,2.65 10.59,3.55l-8.39 12.19c3.71,-0.27 15.11,-5.64 17.9,-6.85 2.16,1.19 9.52,6.34 11.94,6.88l0 -3.09c1,0.41 1.06,0.08 2.11,0.7 0.7,0.41 1.08,0.87 1.95,1.06 0,-4.6 -0.81,-8.69 -0.81,-11.94 2.46,-1.06 15.16,-6.72 16,-7.75 -5.74,0 -10.72,-0.43 -16.55,-0.43l3.25 -0.68 4.06 -37.4 -8.42 0c1.12,-3.93 4.55,-17.65 0.05,-20.42 -0.97,-0.6 -1.84,-0.6 -2.22,-1.73l2.71 0 2.71 -6.88c10.56,0 6.91,0.84 16.3,-1.52 8.71,-2.18 4.88,-13.38 6.17,-24.62 1.6,-13.81 -2.1,-13.92 -13.27,-13.92 -5.42,0 -6.5,-0.54 -10.86,1.33 -1.06,-1.64 -5.69,-8.47 -7.85,-8.64 -0.11,1.16 -0.54,1.41 -0.54,2.87 -6.33,0 -5.39,-2.31 -9.48,-3.11 -0.11,0.95 -0.57,1.54 -0.81,2.44 -1.06,-0.46 -1.76,-1 -3.25,-1.11l-2.44 6.17 -18.2 0c-2.06,0.03 -3.55,0.46 -5.69,0.46l0.03 0.03z"/>
  <path class="fil1" d="M114.25 36.97c-3.2,0 -1.62,-2.48 -1.35,-10.86 0.33,-10.39 -0.41,-8.83 6.23,-8.83 2.36,0 0.71,9.23 0.54,11.08 -0.8,8.58 1.74,8.61 -5.44,8.61l0.03 -0zm2.17 -25.89l-8.69 0c-0.03,1.16 -0.27,0.84 -0.54,1.76 -0.65,-0.35 -0.54,0.16 -0.54,-1.76l-5.69 0c-3.02,27.84 3.22,25.86 -8.15,25.86l0.03 -13.27c0.41,-4.06 0.81,-8.58 0.81,-12.62l-5.69 0c0,1.79 -0.46,2.33 -0.54,3.76l-0.3 16.55c-0.38,3.08 -1.25,9.41 -0.51,11.97l34.45 0.03c6.46,-0.12 4.18,-4.34 4.6,-10.86l0.81 -19.23 -1.52 -2.09c-0.89,-0.32 -7.26,-0.14 -8.53,-0.14l0 0.02z"/>
  <path class="fil1" d="M216.53 70.6c-8.54,1.62 -6.46,-0.86 -5.47,-6.69 2.06,-12.12 -1.3,-12.57 6.58,-12.57 2.64,0 0.92,3.04 0.84,3.55 -0.3,1.98 0.19,3.6 -0.43,5.39 -0.84,2.44 -0.08,4.17 -0.81,6.42l-0.7 3.9zm-13.3 3.55c0,1.62 1.24,3.55 2.98,3.55 14.53,0 15.88,1.37 16.55,-6.63l1.62 -9.75 2.11 2.49c2.25,1.57 9.56,-0.3 10.94,0.81 0.14,0.11 0.16,4.57 -1.35,6.42l-10.05 0 -2.71 6.63 17.06 -0.7c2.98,-1.24 2.52,-8.45 3.28,-12.35 1.95,-7.45 -2.14,-6.61 -5.39,-6.61 -7.47,0 -6.8,0.32 -6.09,-2.3 1.16,-4.39 -1.97,-4.23 6.91,-4.31 1.65,-0.03 2.63,-0.22 4.6,-0.22l2.17 -6.2 -13.84 0c-4.63,0 -2.8,0.82 -5.98,3.55 -1.11,-1.87 0.51,-3.55 -4.33,-3.55 -8.13,0 -14.66,-1.52 -15.19,4.41 -0.22,2.49 0.41,1.06 -0.43,4.31 -0.43,1.68 -0.32,2.46 -0.38,4.33 -0.05,1.6 -0.76,2.52 -0.84,3.98 -0.08,1.54 0.11,3.17 -0.27,4.41 -0.99,3.16 -0.46,4.43 -0.7,5.88 -0.16,1.03 -0.65,0.97 -0.65,1.87l-0 -0.03z"/>
  <path class="fil1" d="M37.48 50.7c0,3.2 5.96,-0.24 5.96,2.22 0,6.51 -0.7,4.23 -0.79,9.75 -0.03,2.09 -0.76,4.41 -0.81,5.09 -0.14,1.41 0.03,3.06 -0.3,5.5 -0.24,1.76 -0.51,0.65 -0.51,4.01 6.59,0 5.16,1.43 5.98,-6.2l1.6 -13.3c1.08,-6.31 -1.14,-5.74 7.07,-5.74 2,0 0.6,2.44 0.54,3.55l-1.68 15.9c-0.14,1.03 -0.22,1.79 -0.22,3.14 0,3.44 -3.6,2.65 14.92,2.65 2.35,0 1.14,-1.38 3.09,-4.79 1.93,-3.38 -8.04,-0.05 -12.05,-1.62 0,-1.81 0.54,-3.6 0.54,-5.52l10.83 -0.65c0,-6.93 3.87,-5.77 -5.96,-5.74 -4.5,0 -4.06,0.46 -4.06,-3.09 0,-0.73 0.22,-0.14 0.51,-1.14 0.75,-2.62 -0.65,-2.26 4.12,-2.19 2.63,0 4.2,-0.22 6.77,-0.22 3.14,-7.6 3.67,-6 -3.25,-5.98l-31.47 -0.22c0,1.9 -0.81,2.68 -0.81,4.66l-0.03 -0.05z"/>
  <path class="fil1" d="M74.09 77.23c7.92,0 3.93,-0.66 5.47,-7.5 1.18,-5.25 -0.06,-4.84 1.08,-8.61 0.24,-0.79 0.03,-3.28 0.89,-6.8 0.62,-2.49 -0.7,-2.33 5.55,-2.33 2.49,0 0.38,7.55 0.3,8.42 -0.19,1.92 -0.03,3.47 -0.3,5.28l-0.51 5.12c-0.11,2.84 -0.81,3.14 -0.81,6.42 4.5,0 6.29,1.72 6.26,-5.96l1.03 -9.99c1.94,-10.17 -0.8,-9.23 6.85,-9.23 2.44,0 0.24,6.28 0.27,9.07l-1.68 14.59c-0.16,1.35 -1.19,2 4.58,1.52 1.49,-0.14 0.38,-0.32 1.22,-4.12l2.41 -21.93c0.11,-0.54 1.57,-5.09 -0.27,-5.09l-29.35 0.41 -3.03 23.4c-0.38,1.38 0.05,3.55 -0.35,5.47 -0.22,1.06 -0.68,1.92 0.46,1.92l-0.05 -0.05z"/>
  <path class="fil1" d="M12.24 108.89c0,0.76 0.24,0.49 0.22,1.06 0,0.22 -0.27,0.19 -0.14,1.08 2.9,-0.23 5.1,0.08 5.28,-1.06l0.87 -9.04 1.62 -12.59c0.03,-2.98 0.68,-2.44 5.71,-2.44 0.73,0 0.76,0.11 1.35,0.22l-1.3 10.67c-0.32,1.9 -0.22,3.44 -0.32,5.47 -0.11,2.1 -0.81,2.39 -0.81,8.85 1.54,0 3.9,-0.03 5.42,-0.43l2.3 -20.69c1.1,-4.14 -1.58,-4.06 5.88,-4.06 0.84,0 1.08,0.22 1.62,0.43l-1.62 12.16c-0.07,4.17 -1.62,10.74 -0.79,12.62 8.8,0 4.03,-0.73 5.82,-7.42l1.81 -15.54 0.6 -6.85c0.16,-0.68 0.87,-1.38 -0.35,-1.38l-29.84 0c0,3.47 -0.84,2.79 -0.81,7.07 0.04,5.38 -0.94,2.32 -0.81,7.31 0.03,3.63 -0.68,4.12 -0.81,5.31l-0.3 7.75c-0.14,1.33 -0.54,0.57 -0.54,1.54l-0.05 -0.03z"/>
  <path class="fil1" d="M125.11 63.32c1.46,-0.46 4.74,-0.3 6.23,0 0,6.51 0.56,9.75 -7.31,8.2 0,-5.59 1.08,-7.97 1.08,-8.2zm0.54 -6.85c0,-1.49 0.41,-5.09 1.9,-5.09 2.84,0 5.42,-0.43 5.42,0.89 0,2.74 0.3,3.95 -1.35,5.98 -6.25,0 -5.96,0.82 -5.96,-1.79zm-4.33 -11.29l-1.71 12.54c-0.24,1.25 0,3.09 -0.3,4.41 -1.2,5.24 -0.25,4.51 -1.3,8.2 -0.38,1.33 -0.03,2.87 -0.27,4.41 -0.56,3.55 -4.12,2.95 14.98,2.95 2.11,0 4.08,-2.87 4.28,-3.6 0.22,-0.84 -0.03,-2.52 0.05,-3.49 0.22,-2.33 0.81,-0.22 0.81,-6.63 0,-3.92 -4.01,0.16 0.22,-4.93 1.3,-1.6 1.44,-4.79 1.41,-6.8 -0.03,-3.95 1.81,-1.87 0.16,-5.44 -1.37,-2.92 -2.51,-1.62 -8.04,-1.62 -2.06,0 -3.14,-0.32 -5.15,-0.22 -1.68,0.08 -3.06,0.22 -5.15,0.22l0 -0z"/>
  <path class="fil1" d="M254.25 32.34l0.76 -12c0.19,-1.16 -0.32,-3.03 1.16,-3.03 2.84,0 5.42,-0.43 5.42,0.89l-0.35 9.88c-1.6,9.8 1.9,8.12 -4.36,8.85 -3.33,0.38 -2.63,-0.68 -2.63,-4.6l-0 0zm-3.52 -21.18c0,0.81 0.11,0.76 0.27,1.49 -3.15,-0.07 -2.17,4.2 -2.17,10.4 0,1.81 -0.43,3.85 -0.54,5.52l-0.27 12.84c0,0.92 0.68,0.16 0.81,1.54 1.6,0.11 0.57,0.43 1.62,0.43 18.03,0 16.67,2.79 16.57,-15.06 -0.03,-2.55 0.81,-7.91 0.81,-10.62 0,-7.04 0.22,-6.85 -8.42,-6.85l-8.69 0.3z"/>
  <path class="fil1" d="M157.39 33.88l0.97 -4.06c0.92,-4.6 -0.73,-12.51 2,-12.51 7.8,0 5.42,-0.03 5.42,6.2l-0.54 9.75c0,3.41 0.43,3.68 -3.79,3.76 -1.92,0.03 -3.34,0.96 -4.06,-3.11l-0 -0.03zm-3.79 -22.8l-0.57 16.33c-0.32,1.46 -0.51,-0.38 -0.51,3.79 0,2.49 -0.27,11.48 0,12.4l17.06 -0.68c3.45,-0.92 1.71,-12.3 2.27,-18.28 0.79,-4.68 0.49,-6.15 0.49,-11.1 0,-2.71 -3.52,-2.46 -5.23,-2.49l-13.51 0.05 0 -0.03z"/>
  <path class="fil1" d="M137.32 76.8c0,1.44 2.44,0.73 3.82,0.68 4.06,-0.16 1.41,-1.65 3.01,-6.39 0.43,-1.27 0.05,-2.68 0.32,-4.14l0.7 -6.07 1.03 -7.99c0.3,-1.33 0.14,-0.6 0.87,-1.49l5.96 0c0.51,1.81 0.35,4.66 -0.57,6.17 -0.57,0.95 -1.52,0.68 -4.87,0.89 -0.05,2.3 -0.6,3.57 -0.27,7.07 0.11,1.06 0.57,1.35 0.73,2.06 0.19,0.78 -0.03,1.41 0.22,2.25l1.76 7.85 6.23 0 -1.92 -6.61 -1.33 -7.07c0,-1.9 2.86,0.95 5.36,-3.82 0.01,-0.01 2.91,-13.83 0.24,-14.89 -1.84,-0.73 -13.03,-0.11 -15.76,-0.22 -2.38,-0.08 -1.22,1.41 -1.57,3.38 -0.38,2.06 -0.7,0.7 -0.73,4.25l-1.49 10.94c-0.73,1.35 -0.3,2.82 -0.41,4.55 -0.11,2 -0.65,0.64 -0.81,6.66 -0.03,1.33 -0.57,1.38 -0.57,1.98l0.05 -0.05z"/>
  <path class="fil1" d="M202.42 36.1l0 7.31c6.77,0 5.17,0 5.79,-3.25l0.84 -19.23c0.89,-4.79 -0.6,-3.85 6.69,-3.85 0.41,1.44 0.54,0.35 0.32,2l-0.05 8.39c0,2.36 -0.81,6.55 -0.81,10.62 0,6.47 -1.3,5.31 5.15,5.31 1.57,0 1.08,-2.09 1.08,-3.33 0,-5.58 -0.14,-6.69 0.6,-12.13 0.65,-4.82 0.22,-11.7 0.22,-16.84l-18.44 0c0,2 -0.54,2.71 -0.54,5.98l-0.27 12.84c0.03,2.3 -0.54,3.82 -0.54,6.2l-0.03 -0.03z"/>
  <path class="fil1" d="M54.3 31.01c0,7.09 1.68,5.98 -10.86,5.98l-2.44 6.39c2.74,0.51 16.28,-0.03 17.49,-0.57 2.89,-1.29 2.06,-12.9 2.06,-16.46 0,-0.43 -0.7,-0.87 -0.81,-2 -2.19,-0.14 0.05,-0.43 -5.69,-0.43 -2.14,0 -4.22,0.11 -5.96,-0.22 0,-4.31 -0.46,-4.51 1.08,-6.42l9.78 -0.22 1.65 -4.41c0.32,-1.68 0.79,-1.38 0.08,-1.65l-16.79 0.43 -1.14 1.3c-0.54,1.14 -1.65,14.41 -0.43,16.14 2.38,3.38 12,0.03 12,2.17l-0.03 -0.02z"/>
  <path class="fil1" d="M164.46 80.13c0,5.8 -1.68,13.47 -1.87,19.69 -0.05,1.3 -0.49,2.55 -0.7,3.85 -0.24,1.33 -0.03,2.76 -0.11,4.12 -0.22,3.44 -2.63,3.47 4.6,3.25 1.68,-5.04 0.41,-4.34 1.16,-7.85 1.01,-4.69 0.2,-5.48 0.92,-8.31 1.49,-5.87 -2.59,-10.64 7.66,-8.77 0,5.12 -0.05,2.79 -1.08,6.42l-3.79 0c-2,3.09 -0.58,8.05 0.16,10.26 3.44,10.25 -0.3,8.34 5.82,8.31 3.2,-0.03 1.46,-0.89 1.11,-2.71l-2.49 -10.59c4.01,-2.18 5.28,0.56 5.69,-7.74 0.1,-2.12 2.8,-10.18 -1.35,-10.18 -2.44,0 -14.3,-0.24 -15.73,0.22l-0 0.05z"/>
  <path class="fil1" d="M172.58 35.21c0,4.3 -0.69,8.2 0.81,8.2 18.97,0 15.65,1.47 17.9,-6.42 -15.07,0 -13.35,1.2 -12.27,-5.58 0.32,-1.98 4.22,-0.9 10.89,-1.3l0 -5.98c-12.2,0 -10.83,1.05 -10.83,-3.76 0,-2.36 0.49,-2.39 1.08,-3.11 11.41,0 10.12,0.88 11.43,-3.52l0.79 -2.68 -18.71 0 -0.81 17.95c-0.22,2.14 -0.3,3.98 -0.3,6.17l0.03 0.03z"/>
  <path class="fil1" d="M193.49 45.17c-4.9,0 -7.02,-1.27 -7.34,8.18l-1.68 13.02c-0.41,2.79 -2.14,6.94 0.32,10.89 3.2,0 3.06,-0.27 5.34,0.95 -0.57,0.43 -0.16,1.44 -3.71,1.49 -0.22,2.98 -0.87,1.71 -0.16,5.01 0.3,1.46 -0.62,1.19 4.5,1.19 1.25,0 1.71,-0.49 2.57,-1 2.43,-1.47 0.49,-6.69 3.25,-7.31 0.95,-0.22 2.33,-0.3 3.41,-0.3l2 -4.79c0.32,-0.92 0.65,-0.35 1,-1.41l-10.32 0c-3.99,0.02 -3,-0.49 -1.68,-10.86 0.38,-3 0.29,-6.83 1.92,-8.83l10.32 0 2.71 -6.2 -12.48 0 0.03 -0.03z"/>
  <path class="fil1" d="M61.34 43.17c1.79,0 3.66,0.22 5.96,-0.22l4.06 -13.27 1.22 -3.87c0.35,-0.95 0.43,-0.24 0.65,-1.25 0.22,-0.97 -0.16,-2.41 1.14,-2.41 1.76,0 0.43,1.73 1.65,4.63l1.33 7.28c0.43,2.74 2.46,2.9 -4.9,2.9 -0.49,1.73 -0.27,4.33 -0.27,6.42l13.03 -0.22 -3.98 -17.52 -2.41 -11.35c-1.27,-2.63 1.14,-3.52 -2.27,-3.47 -6.13,0.08 -4.71,-2.11 -8.8,12.35 -0.16,0.6 -0.19,0.24 -0.49,0.92l-1.16 4.33 -1.49 4.09 -3.28 10.62 0.03 0.03z"/>
  <path class="fil1" d="M127 42.95l5.42 0.22 6.77 -20.15c0.32,-0.84 0.08,-0.65 0.84,-1.08 1.19,1.46 2.11,8.53 2.49,10.37 1,5.04 2.17,4.68 -4.39,4.68 0,2.46 -0.68,4.09 0,6.42l12.21 -0.22c0.79,-0.46 -3.87,-18.49 -4.25,-20.45l-1.33 -6.23c-0.32,-0.97 0.68,-3.03 -0.6,-5.04 -0.6,-0.95 -0.16,0.22 -0.62,-0.84 -3.82,0.73 0.16,0 -6.23,0l-6.64 20.01 -3.03 10.16 -0.65 2.14z"/>
  <path class="fil1" d="M19.82 10.86l-6.36 19.8 -3.14 10.05c-0.41,1.95 -2.41,2.79 1.52,2.55 1.52,-0.11 2.44,-0.05 3.68,-0.3l4.49 -14.49c0.47,-1.42 1.44,-5.83 2.57,-6.53 1.44,1.76 2.18,9.19 2.33,9.61 2.35,6.64 0.39,5.44 -4.25,5.44 0,2.11 -0.38,5.12 0,6.42l12.46 -0.43 -3.76 -18.14 -1.52 -6.09c-0.3,-1.31 -1.18,-7.62 -2.03,-7.83l-5.99 0 0 -0.06z"/>
  <path class="fil1" d="M158.47 77.23c8.01,0 3.26,1.83 12.54,-18.33 0.76,-1.49 0.32,-2.74 2.11,-3.14 1,1.71 0.35,3.33 0.54,5.31 0.08,0.76 0.3,0.97 0.46,1.62l0.35 7.45c0,0.92 -0.97,0.92 -2.14,0.89 -4.09,-0.05 -2.49,-0.16 -3.3,2.84 -0.49,1.87 -0.51,1.22 -0.51,3.33l12.86 -0.08c0.24,-1.22 -0.32,0.11 -0.54,-1.08 -0.16,-0.92 0.7,-0.41 0.7,-1.27 0,-0.89 -0.32,-0.46 -1.08,-1.11 1.35,-3.14 -0.54,-5.04 -0.54,-5.31l-0.54 -4.63 -0.73 -7.58c-0.24,-0.95 -0.35,-5.61 -0.95,-7.64 -1.16,-3.89 2.83,-3.86 -6.44,-4.03 -2.24,3.37 -10.82,26.45 -13.27,32.12 -0.16,0.35 -0.62,0.6 0.51,0.6l-0.03 0.06z"/>
  <path class="fil1" d="M77.64 98.27c4.07,0.25 3.87,-0.47 5.96,0.68 -0.51,1.84 -0.54,3.25 -0.54,5.52 -5.02,0.96 -9.99,-0.56 -10.86,1.11 -0.93,1.77 -2.97,5.63 -1.08,5.74l14.68 -0.65c3.2,-0.3 2.79,-4.95 2.95,-7.09 0.08,-1.06 0.51,-1.38 0.54,-2.65 0.19,-7.88 1.6,-8.64 -4.63,-8.64 -3.38,0 -4.52,0.7 -7.07,-0.68 0.87,-1.46 0.57,-3.76 1.08,-5.52 12.33,-0.34 9.82,0.79 11.94,-4.44 0.22,-0.54 0.46,-1.08 0.54,-1.76 -1.19,0 -15.27,-0.19 -16.14,0.11 -2.65,0.95 -1.84,4.93 -2.46,6.85 -0.84,2.65 -0.22,3.6 -0.7,6.96 -0.93,6.42 3.86,3.82 5.79,4.47z"/>
  <path class="fil1" d="M141.38 111.08l15.54 -0.38 1.79 -2.98c0.84,-2.76 0.87,-0.32 0.87,-3.06l-11.94 0c-0.34,-1.16 -0.55,-5.99 1.38,-6.15l6.74 -0.03c5.12,0.03 2.03,-0.51 3.52,-5.77 -7.96,-1.47 -12.52,2.87 -10.07,-4.9 0.22,-0.65 0.3,-0.97 0.3,-1.76 2.92,-0.54 7.2,-0.22 10.59,-0.22l2.17 -5.96 -17.36 0c-1.76,2.71 -0.16,4.22 -1.22,7.64 -0.96,3.12 -0.93,11.28 -1.92,15.68 -0.41,1.79 -0.76,6.53 -0.38,7.88z"/>
  <path class="fil2" d="M214.63 115.96l-0.54 0.22c0.76,0.54 0.84,0.43 1.08,1.33 6.8,0 6.48,-0.26 13.97,5.42 -0.49,0.68 -5.51,6.65 -4.88,7.96 1.72,0.17 9.54,-4 11.83,-4.52l10.56 5.74c0,-13.79 -4.78,-7.31 11.81,-15.6 -1.12,-0.95 -10.18,-0.38 -13.11,-0.68 -1.84,-0.18 -2.72,-6.85 -3.17,-8.64 -2.27,0.38 -6.39,7.1 -8.72,8.56 -1.27,0.41 -16.19,0.16 -18.82,0.16l-0.03 0.05z"/>
  <path class="fil1" d="M95.81 110.87l5.44 0 1.49 -3.68 4.52 -11.81 2.38 -4.9c1.48,0.89 1.3,6.24 1.46,6.77 0.22,0.73 0.7,1.16 0.7,2.09 0,6.2 0.49,5.01 -1.92,5.52 -1.81,0.41 -0.7,-0.11 -2.44,-0.22 -1.77,7.69 -4.66,6.17 10.29,6.17 0.62,0 0.54,-0.08 1.08,-0.22 -0.08,-1.14 -0.32,-0.62 -0.51,-1.57l-0.95 -5.88c-0.22,-1.03 -0.08,-2.68 -0.16,-4.06 -0.11,-1.3 -0.35,-0.68 -0.51,-1.79l-1.6 -9.53 -1.16 -8.34c-7.63,0 -5.68,-0.72 -7.42,3.44l-10.75 27.97 0.05 0.03z"/>
  <path class="fil1" d="M45.06 110.87c1.38,0.03 4.25,0.08 5.42,-0.22l7.58 -19.25c0.43,-0.92 -0.08,-0.76 1.11,-0.87l1.9 13.49c0,1.06 -2.38,0.68 -4.87,0.68 -0.32,3.2 -0.81,2.19 -0.81,6.2 13.73,0 12.85,1.23 11.91,-3.95l-1.6 -9.75 -2.44 -17.71 -6.23 0 -7.64 19.47 -4.36 11.97 0.03 -0.05z"/>
  <path class="fil1" d="M201.61 110l0 0.89 5.44 -0.14c0.05,-2.3 1.25,-0.16 0.35,-3.55 0.7,-0.32 0.3,0.05 1.27,-0.3l5.96 -15.73c0.43,-0.81 -0.14,-0.57 1.11,-0.65 0.22,2.11 1.06,3.93 1.08,6.17 0.05,4.58 0.81,2.41 0.81,7.31 0,1.76 -4.71,-0.46 -5.15,1.33 -1.44,7.04 -1.43,5.45 5.15,5.55 7.45,0.11 6.77,1.19 6.23,-3.98 -0.14,-1.35 -0.84,-1.06 -0.81,-3.76 0.03,-2.52 -0.22,-2 -0.7,-3.85 -0.27,-1.03 -0.22,-2.98 -0.41,-4.12 -0.19,-1.08 -0.41,-0.76 -0.51,-1.79l-1.22 -10.07 -0.7 -3.87c-8.79,0 -4.87,-0.77 -7.39,3.47l-6.34 16.3 -2.92 7.83 -1.25 2.98 -0 -0.03z"/>
  <path class="fil1" d="M130.53 92.72c-4.31,0 -1.79,-1.76 -1.41,-5.34 0.11,-1.16 -0.24,-1.52 1.41,-1.52 6.77,0 4.9,-0.11 4.98,2.84 0.08,2.76 0.62,4.01 -4.98,4.01l0 0zm-7.61 2.22c0,1.49 -0.35,1.44 -0.27,2.19 0.11,0.87 0.41,0.65 0.43,1.49l-1 0c0,3.15 -1.08,6.97 -1.08,12.46 2.41,0 3.36,0.16 5.42,-0.43 0,-2.64 0.48,-11.05 1.9,-13.27 11.41,0 12.13,0.66 12.75,-6.17 0.15,-1.66 2,-8.72 0.05,-10.89 -0.3,-0.32 -0.11,-0.08 -0.32,-0.41l-15.73 0c-1.72,0 -1.32,4.86 -1.6,7.31l-0.57 7.74 0.03 -0.03z"/>
  <path class="fil1" d="M232.83 15.74l0.27 1.33c-3.07,0.61 -3.05,3.34 -3.85,5.52 -0.3,0.84 -1.62,3.57 -1.62,4.22 0,1.65 0.3,0.38 -0.54,1.76l-4.41 13.7c-0.16,0.54 -0.11,0.54 0.08,1.16 1.84,0 3.03,-0.22 5.15,-0.22l4.5 -13.35 2.9 -8.26c0.89,0.16 0.62,0.08 1.16,0.43 0.08,1.27 -0.19,-0.03 -0.19,1.03l2.3 10.53c0.87,4.31 -0.62,3.41 -5.01,3.41l0 6.42c16.51,-0.94 12.42,1.17 12.21,-2.65l-4.03 -17.95c-0.51,-2.9 0.22,-2.84 -2.09,-4.28 -2.38,-1.49 -4.47,-4.22 -6.09,-4.33 -0.14,1.38 -0.81,0.62 -0.81,1.54l0.08 -0.03z"/>
  <path class="fil2" d="M87.39 117.5c0.22,-0.7 0.32,-0.99 2.17,-1.11 -0.11,0.95 0.03,0.41 -0.54,1.11l124.81 0c-0.19,-0.68 -0.32,-0.68 -0.62,-1.33l-206.13 -0.22c-0.35,2.19 -0.54,1.54 7.88,1.54l72.44 -0z"/>
  <path class="fil1" d="M187.34 110.57c1.83,1.19 5.3,0.11 5.34,0.08 0.43,-0.73 0.84,-4.2 0.81,-5.31 -0.03,-2.33 0.54,-3.47 0.79,-5.34l0.46 -8.31c0.34,-4.87 0.99,-1.39 -0.89,-4.03l-3.36 0 -0.68 2.09c-0.32,0.97 -0.03,2.14 -0.16,3.17 -0.49,3.49 -0.79,1.08 -0.76,6.01 0.03,2.98 -0.84,3.55 -0.84,5.74 0.03,2.65 -0.14,3.66 -0.7,5.9z"/>
  <path class="fil1" d="M235.27 100.47c2.65,0 1.22,-0.54 4.6,0 0.54,-1.11 0.79,-0.24 0.84,-1.98l1.25 -12.92c2.1,-6.82 0.22,-5.66 -4.77,-5.66l-1.62 13.05c-0.49,2.79 -0.05,3.87 -0.27,5.55 -0.27,2.06 -0.57,-0.03 0,1.98l-0.03 -0.03z"/>
  <path class="fil1" d="M227.66 98.27c0,2.66 -0.68,2.38 5.44,1.98l1.87 -18.39c0.08,-2.3 1.46,-1.98 -4.33,-1.98 -1.81,0 -0.95,3.15 -1.46,6.55 -0.89,3.82 -0.3,4.03 -0.73,7.15l-0.79 4.68z"/>
  <path class="fil1" d="M242.04 99.36c0,0.6 0.14,0.62 0.27,1.11l5.15 -0.49 1.08 -10.34c0.03,-1.22 0.38,-1.52 0.51,-2.46l0.3 -5.5c0.24,-1.95 2.25,-1.76 -4.09,-1.76 -1.85,0 -1.42,6.69 -2.06,9.37 -0.41,1.71 -0.35,3.25 -0.38,5.23 -0.03,1.84 -0.81,2.9 -0.81,4.85l0.03 -0z"/>
  <path class="fil1" d="M230.37 14.19c1.44,-0.11 1.78,-1.5 2.17,-2.9 2.14,0 1.68,0.35 2.25,0.81 1.08,0.89 0.84,0.14 2.03,1 1.49,1.06 2.46,2.11 3.85,2.17 0.19,-1.8 1.64,-3.61 2.65,-5.31 -0.76,-1.08 -1.38,-1.22 -1.84,-2.87l-2.44 3.09 -7.07 -4.87 -3.22 5.58c-0.78,1.35 0.35,0.78 1.63,3.31z"/>
  <path class="fil1" d="M227.39 111.08c5.77,0 4.87,0.62 4.87,-5.74 -7.37,0 -4.93,-0.35 -5.5,3.03 -0.16,0.92 -1.08,2.71 0.62,2.71z"/>
  <path class="fil1" d="M197.28 82.32c0,2.59 -0.29,1.53 -0.81,3.09 7.41,0 4.59,1.14 5.88,-2.71l0.35 -2.82 -5.42 0 0 2.44z"/>
  <path class="fil1" d="M233.64 109.32c0,1.06 -0.57,2.46 1.98,1.38 0.38,-0.16 3.96,-3.15 4.2,-5.36l-5.34 0c0,1.62 -0.81,2.36 -0.81,3.98l-0.03 -0z"/>
  <path class="fil1" d="M245.83 110.87c1.92,-1.38 0,-3.71 1.08,-5.52l-3.09 0c0.17,1.09 0.93,5.52 2,5.52z"/>
  <path class="fil3" d="M87.39 117.5l1.62 0c0.57,-0.7 0.43,-0.16 0.54,-1.11 -0.86,0.05 -2.17,0.18 -2.17,1.11z"/>
 </g>
</svg>
