<?xml version="1.0" encoding="UTF-8"?>
<!DOCTYPE svg PUBLIC "-//W3C//DTD SVG 1.1//EN" "http://www.w3.org/Graphics/SVG/1.1/DTD/svg11.dtd">
<!-- Creator: CorelDRAW -->
<svg xmlns="http://www.w3.org/2000/svg" xml:space="preserve" width="66.107mm" height="37.8792mm" version="1.1" style="shape-rendering:geometricPrecision; text-rendering:geometricPrecision; image-rendering:optimizeQuality; fill-rule:evenodd; clip-rule:evenodd"
viewBox="0 0 165.33 94.74"
 xmlns:xlink="http://www.w3.org/1999/xlink"
 xmlns:xodm="http://www.corel.com/coreldraw/odm/2003">
 <defs>
  <style type="text/css">
   <![CDATA[
    .fil0 {fill:black}
    .fil2 {fill:#E13337}
    .fil4 {fill:#F7F5F5}
    .fil6 {fill:#F8CB27}
    .fil5 {fill:#FCD027}
    .fil1 {fill:#FEFDFD}
    .fil3 {fill:#FEFEFE}
   ]]>
  </style>
 </defs>
 <g id="Camada_x0020_1">
  <metadata id="CorelCorpID_0Corel-Layer"/>
  <g id="_2051129843984">
   <path class="fil0" d="M151.73 56.33l-0.13 -0.07c-1.75,-0.04 -7.81,2.93 -16.13,2.07 -0.27,-0.03 -4.89,-0.42 -5.03,-0.73 -0.03,-0.06 -0.09,-0.04 -0.15,-0.07l0.15 -1.16c2.03,-0.41 6.87,2.08 17.09,-0.47 2.58,-0.65 4.97,-1.49 7.14,-2.32 0.77,-0.3 4.35,-1.74 4.85,-2.28 0.19,-0.21 0.43,-0.56 0.42,-0.89 -0.03,-0.89 0.23,-0.78 -0.6,-0.65 -1.14,0.95 -10.38,3.3 -12.62,3.65 -2.26,0.35 -5.39,0.65 -7.7,0.56 -9.51,-0.35 -7.84,-0.06 -7.27,-3.72 0.35,-2.27 -0.14,-1.9 -0.59,-3.4 1.21,0.18 7.55,1.51 8.13,1.22 -0.48,-0.4 -6.89,-1.24 -8.17,-1.74l-0.08 -3.81 9.68 1.3c4.18,0.41 8.94,-0.63 10.21,-0.53 0.21,0.65 0.02,4.86 -0,5.89l2.1 -0.39c0.04,-0.03 0.09,-0.07 0.11,-0.09 0.92,-0.61 4.08,-1.54 5.64,-2.06 0.72,-0.24 1.39,-0.23 1.64,-0.94 -0.6,-0.41 -1.62,0.1 -2.24,0.35 -1.34,0.54 -5.48,1.77 -6.62,1.64l0.07 -5.65c0.81,-0.17 1.73,-0.08 2.51,-0.21 0.83,-0.14 1.38,-0.35 2.18,-0.48 0.86,-0.14 1.56,-0.26 2.35,-0.4 0.7,-0.13 1.69,-0.07 2.13,-0.58 0.81,-0.91 0.25,-5.57 0.15,-6.89 -0.09,-1.26 -0.07,-2.58 -0.18,-3.83 -0.05,-0.59 -0.2,-0.96 -0.25,-1.55 -0.15,-1.86 0.7,-3.63 -2.22,-3.26 -2.43,0.31 -4.94,0.54 -7.35,0.12 -1.46,-0.25 -1.88,-0.36 -3.47,-0.22 2.14,0.85 8.3,0.68 10.96,0.52 1.55,-0.09 2.68,1.36 1.16,1.85 -0.95,0.3 -6.88,-0.02 -8.26,0.12l-0.03 1.11c1.29,0.2 3.73,0.05 5.15,0.04 2.36,-0.01 4.15,-0.61 3.56,1.3l-8.74 0.37 0 1.22 8.84 -0.21 -0.16 1.21c-2.11,0.51 -6.96,-0.25 -8.82,0.48l0.03 1.36 9.04 -0.25 -0.01 0.88c-2.11,0.56 -7.21,0.27 -9.06,0.8l0 1.49 9.34 -0.62c-0.06,1.26 -0.46,0.88 -1.8,1.03 -2.55,0.29 -4.97,0.64 -7.55,0.59l-0.01 1.33c2.76,0.05 5.44,-1.24 9.31,-1.17 -0.01,1.04 0.01,1.02 -0.97,1.21 -1.67,0.32 -3.27,0.23 -4.81,0.73 -1.23,0.4 -5.81,0.77 -6.88,0.4l-0.1 -0.28c-0.27,-1.15 0.09,0.87 -0.06,-0.3 -0.19,-1.48 0.2,-2.98 -0.07,-4.48l-1.73 0.09c-0.55,-4.47 -0.61,-3.93 -7.62,-3.84 -1.52,0.02 -3.77,-0.25 -5.38,-0.43 -1.34,-0.14 -4.59,-0 -5.53,-0.24 -0.81,-2.88 1.48,-4.04 2.67,-5.27 3,-3.09 1.13,-1.36 6.17,-1.84 -0.94,-0.24 -2.38,-0.17 -3.1,-0.38 -0.58,-0.17 -0.46,-0.26 -0.99,-0.2 -0.41,0.05 -0.84,-0.07 -1.44,-0.1 -1.48,-0.07 -3.45,0.36 -4.85,-0.16 -0.75,-0.28 -0.79,-0.45 -1.21,-0.08 0.83,0.52 1.64,0.39 2.62,0.58 0.18,1.13 -0.13,2.91 -0.29,3.97 -0.4,2.69 -1.75,0.78 -1.5,2.7 0.99,0.28 0.64,0.12 1.28,-0.18l-0.11 0.84c-0.81,0.25 -2.97,0.25 -3.78,-0.05 -0.33,-1.38 0.34,-3.33 0.48,-4.67 0.1,-0.92 0.01,-1.65 0.22,-2.59 0.64,-2.88 -0.2,-2.47 -0.28,-4.5l0.14 -7.82c0.31,0.31 0.33,0.72 0.38,1.17l0.51 3.91c0.15,0.99 0.33,4.24 0.9,4.85 0.94,1.02 13.01,1.7 15.65,1.94l10.85 0.8c1.25,0.09 3.88,0.87 5,0.38 -0.62,-0.36 -7.47,-0.94 -8.85,-1.09 0.62,-1.7 9.39,-7.87 11.81,-9.39 0.78,-0.49 1.36,-0.88 2.2,-1.36 0.57,-0.33 1.77,-0.68 1.94,-1.26 -0.95,0.25 -3.75,2.15 -4.72,2.73 -3.22,1.92 -5.91,4.07 -8.85,6.38 -1.66,1.3 -2.38,3.28 -4.88,2.56 -0.58,-1.1 -1.58,-4.74 -2.02,-6.24 -0.38,-1.3 -0.33,-2.14 -1.71,-2.36 -3.61,-0.58 -6.87,-1.37 -10.52,-1.85 -1.16,-0.15 -2.27,-0.45 -3.46,-0.58 -1.12,-0.12 -2.65,0.08 -3.27,-0.97 2.97,0.08 15.93,2.5 19.01,3.36 0.07,0.91 -0.24,0.32 -0.14,0.67 0.68,-0.56 1.03,-0.35 1.61,-0.82 1.62,-1.3 2.57,-1.78 4.5,-2.77 1.43,-0.73 5.57,-2.54 6.58,-3.23 -0.95,-0.66 -10.63,5.35 -11.51,5.5 -2.5,-2.87 -2.27,-2.25 -7.71,-3.56 -2.14,-0.51 -1.15,-0.03 -2.44,-1.23l-0.15 0.3c-0.15,0.27 -0.03,0.1 -0.19,0.31l-8.92 -1.41c-0.83,0.06 -2.07,0.06 -2.98,-0.17 -0.07,-0.21 -0.19,0.17 -0.01,-0.47 0.16,-0.56 0.61,-0.6 1.1,-0.79 1,-0.37 0.9,-0.42 2.18,-0.41 1.46,0.01 3.62,0.1 5.01,0 -0.96,-0.36 -4.25,-0.26 -5.48,-0.18 -2.81,0.19 -3.11,1.52 -4.11,1.77 -3.15,0.8 -5.07,0.22 -9.83,1.83 0.24,0.19 -0.24,0.35 0.75,0.09 0.22,-0.06 0.3,-0.14 0.65,-0.24 0.51,-0.14 0.97,-0.21 1.49,-0.36 2.7,-0.78 7.64,-0.97 10.43,-0.89 -0.32,0.38 -0.79,0.52 -1.25,0.76 -0.37,0.19 -0.72,0.46 -0.98,0.69 0,0.54 -0,1.23 0.3,1.65 0.7,0.96 0.41,5.91 0.91,8.57 0.39,2.08 -0.01,3.48 -0.31,5.44 -0.77,5 0.47,4.82 -2.13,5.83 -0.96,0.37 -2.68,1.86 -3.16,3.16 0.38,-0.23 0.93,-1.04 1.37,-1.42 0.49,-0.43 0.92,-0.73 1.54,-1.17 0.99,-0.72 0.5,-0.6 1.97,-0.52 0.91,0.05 1.84,-0.09 2.69,0.2l-0.53 1.72c-0.98,0.06 -0.27,-0.02 -0.99,-0.5 -1.59,1.48 -3.04,-0.97 -6.77,3.68l-0.6 -0.26c-0.03,-0.07 -0.1,-0.05 -0.15,-0.07 -0.5,0.97 -1.53,0.73 -2.74,0.65 -0.01,-0.45 0.57,-1.66 0.77,-2.28 0.34,-1.05 0.72,-1.51 0.93,-2.3 1.01,-3.82 0.7,-2.31 -0.41,-4.62 2.67,-0.15 3.32,-2.4 4.01,-4.64 1,0.17 1.39,1 2.35,0.5 1.09,-0.57 1.15,-0.96 0.54,-1.79 1.19,-1.33 0.96,-3.38 0.9,-5.42 -0.18,-6.68 -1.58,-6.16 -6.44,-6.05 -5.09,0.12 -2.64,0.69 -5.21,1.03 0.36,0.37 0.26,0.11 0.5,0.64 -0.37,0.16 -1.69,1.36 -1.72,1.8 -0.05,0.05 -0.1,0.05 -0.13,0.14l-0.27 0.23c-0.29,0.17 0.08,-0.02 -0.45,0.17 -0.59,0.26 -0.95,1.27 -1.63,1.55 -0.87,0.35 -2.02,-0.23 -3.07,0.34 -1.42,0.76 -0.72,0.61 -2.73,0.6 -20.8,-0.07 -41.49,-0.38 -62.3,-0.34 -4.35,0.01 -4.13,1.52 -6.59,6.66 -0.71,1.47 -1.44,2.94 -2.15,4.45l-3.21 6.76c-0.6,1.19 -0.7,1.87 -1.25,1.96 -0.4,-0.89 0.82,-1.29 0.89,-3.01 0.1,-2.36 -0.77,-2.3 -0.99,-3.05 0.48,-0.47 1.2,-1.14 1.71,-1.45 0.95,-0.59 1.28,-0.46 1.87,-1.34 0.55,-0.83 0.05,-0.55 1.15,-2.07 0.59,-0.8 0.93,-2.8 1.9,-4.36 0.45,-0.72 0.69,-1.37 0.97,-2.23 0.95,-2.92 -0.17,-3.16 -1.06,-4.63 0.39,-0.81 1.26,-1.87 1.86,-2.38 0.78,-0.67 1.83,-0.87 2.99,-1.25 3.91,-1.3 9.43,0.19 11.32,-1.04 0.73,-0.47 1.52,-1.69 0.89,-2.9 -0.46,-0.88 -3.86,-2.78 -4.94,-3.35 -4.45,-2.34 -7.69,-3.47 -13.76,-2.71 -4.89,0.61 -8.81,2.26 -12.19,4.54 -5.37,3.62 -12.34,11.5 -12.48,21.28 -0.1,7.05 2.65,13.47 7.53,17.76 0.72,0.64 1.57,1.21 2.45,1.78 0.41,0.27 0.79,0.53 1.27,0.77 0.57,0.29 0.93,0.36 1.2,0.83 -1.71,0.27 -2.06,0.41 -2.74,1.68 -0.47,0.87 -2.05,5.6 -2.05,6.46 -0.01,1.55 0.93,1.88 1.62,2.71 -0.3,1.49 -1.32,4.08 -1.85,5.67 -0.42,1.26 -1.38,4.8 -1.96,5.44 -3.38,0.23 -4.36,-0.22 -5.46,2.86l-3.8 12.66c-1.06,3.75 -3.15,7.43 -1.02,9.23 1.08,0.91 6.01,0.66 7.54,0.45 2.48,-0.34 1.18,-0.15 3.22,0.31 1.3,0.29 2.23,-0.21 3.6,-0.26 0.94,-0.03 3.03,-0.17 3.8,-0.04 1.64,0.27 1.6,0.6 3.44,0.2 1.56,-0.34 1.8,-0.68 2.93,-1.12 0.95,0.38 0.63,0.81 2.36,0.9 1.03,0.05 2.18,-0.01 3.22,-0.02l25.05 -0.21c1.47,-0.01 1.74,0.14 2.92,0.29 1,0.13 1.5,-0.33 2.66,-0.32 1.11,0.01 2,-0.04 3.07,-0.1 1.11,-0.06 1.62,0.22 2.64,0.35 1.96,0.25 3.37,-0.66 4.79,-1.21 1.04,0.4 0.45,0.8 2.36,0.85l6.42 -0.01c1.16,0.15 1.53,0.4 2.85,0.25 1.08,-0.12 1.72,-0.54 2.51,-0.68 0.64,-0.12 1.36,0.52 2.44,0.63l6.16 -0.36c2.11,-0.31 2.37,0.95 5.4,-0 1.78,-0.56 0.81,-0.45 2.39,0.07 1.06,0.35 1.74,0.23 2.78,0.03 1.55,-0.29 4.55,-0.15 6.3,-0.17 0.8,-0.01 2.45,-0.29 2.85,-0.25 0.99,0.09 1.04,0.66 2.73,0.46 1.46,-0.17 4.67,-0.52 6.08,-0.35 2.54,0.31 2.89,0.67 5.31,-0.47 2.67,-1.26 4.23,-4.28 5.01,-7.88 0.22,-1.02 0.05,-2.25 0.22,-2.96 0.1,-0.45 0.78,-1.06 1.14,-2.12 0.56,-1.66 1.1,-3.49 0.51,-5.49 -1.54,-5.21 -7.97,-2.44 -8.54,-2.47l1.19 -5.25c0.78,-2.89 1.01,-5.56 1.95,-8.75 1.44,-0.26 6.49,1.01 11.84,0.48 1.68,-0.17 8.81,-1.66 9.66,-2.34z"/>
   <path class="fil1" d="M155.69 44.97c-0.12,-1.74 2.36,-1.77 2.9,-1.58 0.16,1.48 -2.25,1.79 -2.9,1.58zm-18.93 -16.65c0.2,-0.11 0.41,0.09 0.53,-0.58 0.17,-0.96 -0.23,-0.68 -0.28,-0.72 -0.47,0.22 -0.32,-0.34 -0.39,0.54 -0.02,0.19 0.1,0.61 0.14,0.76zm-26.9 10.68l0.06 -0.75c-1.75,0.05 -1.25,0.21 -1.4,0.49 0.17,0.1 0.11,0.1 0.39,0.18l0.94 0.07zm25.38 -10.69c0.34,-0.14 0.7,0.16 0.63,-1.25l-0.56 -0c-0.15,0.22 -0.16,-0.27 -0.22,0.53 -0.04,0.51 0.04,0.46 0.14,0.72zm-14.64 -5.64c0.38,-1.22 -0.12,-1.89 -1.02,-1 -0.99,0.97 0.14,1.22 1.02,1zm0.32 16.93c0.52,0.01 1.27,-0.1 1.72,-0.05 0.79,0.1 0.5,0.35 1.14,0.51 -0.02,-0.52 -0.34,-0.8 -0.59,-1.35 -0.89,-0.08 -1.99,0.02 -2.27,0.88zm21.37 -4.24c0.42,0.59 0.74,0.59 1.69,0.35 1.05,-0.26 1.05,-0.16 1.04,-1.24 -0.98,-0.05 -2.34,0 -2.72,0.89zm-2.17 3c-1.42,-0.06 -2.48,-0.39 -2.56,1.14 -0.03,0.71 0.11,0.69 0.79,0.71 0.48,0.02 1.15,-0.01 1.64,-0.04 0.24,-0.64 0.16,-1.13 0.12,-1.81zm5.7 -2.48c-0.55,1.13 -0.45,3.51 0.04,4.5 1.58,0.18 1.31,-0.2 1.29,-1.63 -0.01,-0.93 -0.1,-2.02 0.02,-2.96l-1.35 0.09zm-18.6 -8.44c0.79,-0.31 0.8,-0.79 1.27,-1.44 1.2,-0.04 1.36,-0.3 2.47,-1.62 0.11,-0.13 0.19,-0.19 0.26,-0.37 0.15,-0.37 0.15,-0.07 0.01,-0.31 -0.76,-0.36 -2.46,-0.16 -3.41,-0.05l-0.6 3.79zm13.87 15.54c0.03,0.03 0.09,0.05 0.12,0.06 0.89,0.32 9.11,-0.11 9.59,-0.4 -0.08,-0.79 0.01,-0.68 -0.89,-0.72 -1.88,-0.08 -7.75,-0.04 -8.82,1.06zm0.22 -2.94c0.71,0.11 2.93,0.08 3.34,-0.27 0.79,-0.67 0.29,-2.1 0.06,-2.98l-3.25 0.13c-0.23,0.68 -0.28,2.26 -0.15,3.12zm-26.43 0.6c0.21,-0.92 0.59,-1.91 0.44,-3.04 -1.14,-0.17 -4.01,0.37 -4.81,0.82 -0.09,0.94 0.8,1.75 1.28,2.01 0.63,0.34 2.32,0.26 3.08,0.22zm-1.23 5.07c0.33,-0.71 0.91,-3.58 0.59,-4.5l-2.28 -0.11c-0.29,0.57 -0.31,1.51 -0.54,2.18 -0.24,0.71 -0.58,1.25 -0.68,2.03l2.92 0.4zm11.6 -0.3c-0.18,-0.93 0.04,-1.54 0.72,-1.71 0.02,0.92 -0.05,1.45 -0.72,1.71zm1.22 0.08c0.75,-2.78 0.23,-6.92 -2.07,-7.16 -0.26,1.39 1.41,0.84 1.6,3.98 -1.93,-0.56 0.29,-2.07 -1.51,-2.49 -0.28,0.62 0.3,2.39 0.25,3.51 -0.06,1.42 -0.81,2.38 -0.74,3.18 1.38,0.14 2.15,0.21 2.48,-1.02zm-3.72 -1.15c0.65,0.6 0.86,0.23 0.61,0.75 -0.28,0.6 -0.21,-0.08 -1,0.02 -1.27,0.16 -0.74,0.93 -2.27,-0.08 -0.09,-1.24 0,-2.61 1.09,-3.02 1.67,-0.62 1.56,1.13 1.57,2.32zm-3.83 -1.02c-0.01,0.1 -0,1.97 0,2 0.12,0.52 0.13,0.27 0.37,0.65 0.17,0.28 0.02,0.16 0.28,0.56 4.1,0.59 4.05,-0.11 4.52,-2.7 -0.29,-0.32 -0.29,-0.21 -0.67,-0.51l0.25 -0.15c0.04,-0.02 0.09,-0.05 0.12,-0.06 0.04,-0.02 0.09,-0.04 0.12,-0.05 0.24,-0.1 0.11,-0.02 0.36,-0.1 -1.07,-4.76 -2.43,-2.15 -2.5,-2.1 -0.54,-0.39 -0.15,-0.48 -0.85,-0.66 -0.54,0.36 -0.53,0.33 -0.44,1.16 -1.63,0.06 -0.61,0.22 -1.11,1.12 -0.34,0.59 -0.37,-0.01 -0.46,0.84zm-9.63 -25.47c3.46,0.09 2.64,0.06 5.82,-2.18 0.73,-0.52 3.07,-2.05 3.45,-2.63 -1.17,-0.14 -2.38,-0.04 -3.55,-0.04 -1.8,-0.01 -1.61,0.05 -2.52,1.07 -0.45,0.5 -3.11,3.22 -3.2,3.79zm34.17 16.41c0.29,-0.02 1.35,-0.11 1.44,-0.33 0.02,-0.06 0.09,-0.05 0.13,-0.08 -0.2,-1.97 -1.78,-1.93 -3.78,-1.93 -2.65,0 -15.31,-0.73 -15.91,-0.31 -0.28,0.2 -0.35,1.46 -0.32,1.9 1.97,0.68 3.66,0.59 4.23,0.92l-1.86 0.17c0.03,0.95 2.35,3.23 2.86,4.17 0.27,0.49 0.38,1.08 0.62,1.52 0.84,0.92 9.13,1.03 11.06,0.99 1.49,-0.03 2.75,0.14 3.16,-0.86 -2.4,-0 -6.2,0.75 -8.25,0.07 -0.08,-1.14 -0.04,-3.51 0.4,-4.44 1.28,-0.35 1.99,0.46 2.2,-1.09l-1.05 -0.26c1.13,-0.07 2.34,-0.19 3.5,-0.29 0.5,-0.04 1.03,-0.11 1.59,-0.15zm-1.58 16.54c0.22,-1.56 1.17,-1.79 2.75,-1.81 1.48,-0.02 2.82,-0.23 4.33,-0.15 0.58,1.69 -1.5,1.59 -2.72,1.7 -1.46,0.13 -2.88,0.3 -4.36,0.26zm17.37 -1.29c-1.63,0.08 -5.96,2.38 -7.67,2.12 -0.59,-2.02 0.53,-2.19 1.79,-2.75l6.68 -2.11c0.07,0.58 0.13,1.31 0.01,1.8 -0.22,0.9 -0.25,0.39 -0.81,0.94zm-6.2 -0.73l-2.1 0.39c0.02,-1.03 0.21,-5.24 0,-5.89 -1.27,-0.1 -6.03,0.94 -10.21,0.53l-9.68 -1.3 0.08 3.81c1.28,0.5 7.69,1.34 8.17,1.74 -0.58,0.29 -6.92,-1.04 -8.13,-1.22 0.45,1.5 0.94,1.13 0.59,3.4 -0.57,3.66 -2.24,3.37 7.27,3.72 2.31,0.09 5.44,-0.22 7.7,-0.56 2.24,-0.34 11.48,-2.7 12.62,-3.65 0.83,-0.13 0.57,-0.24 0.6,0.65 0.01,0.33 -0.22,0.68 -0.42,0.89 -0.5,0.54 -4.08,1.98 -4.85,2.28 -2.17,0.84 -4.56,1.68 -7.14,2.32 -10.22,2.55 -15.05,0.06 -17.09,0.47l-0.15 1.16c0.05,0.03 0.12,0.01 0.15,0.07 0.13,0.31 4.76,0.7 5.03,0.73 8.32,0.86 14.39,-2.1 16.13,-2.07 0.64,-0.58 8.64,-2.83 9.46,-4.78 0.33,-0.79 1.22,-11.17 1.38,-12.88 0.08,-0.9 0.28,-2.33 0.23,-3.2 -0.06,-1.02 -0.38,-1.87 -0.43,-3.08 -0.04,-1.12 -0.12,-2.21 -0.2,-3.38 -0.32,-4.99 0.7,-5.21 -4.73,-5.94 -1.26,-0.17 -5.65,-0.48 -6.44,-0.83 0.31,-1.25 6.8,-5.45 8.05,-6.35 1.21,-0.86 2.93,-2.01 4.39,-2.73 1.03,-0.51 1.55,-0.45 1.93,-1.61 0.34,-1.07 -0.41,-1.82 -1.59,-1.58 -1.44,0.29 -7.94,4.55 -9.02,5.37 -1.43,1.09 -2.83,2.03 -4.14,3.14 -0.8,0.68 -3.25,3.01 -4.02,3.23 -0.48,-0.46 -1.87,-4.84 -2.07,-5.74 0.38,-0.32 0.04,-0.08 0.5,-0.28 0.07,-0.03 0.39,-0.13 0.47,-0.17 1.09,-0.5 -0.13,-0.45 2.24,-1.8l7.2 -3.63c1.28,-0.6 2.84,-1.08 2.42,-2.9 -0.8,-1.63 -4.75,0.71 -6.36,1.53 -9.17,4.68 -4.8,3.26 -7.95,1.64 -0.65,-0.33 -1.76,-0.54 -2.5,-0.71 -0.87,-0.2 -1.75,-0.37 -2.6,-0.61 -1.03,-0.28 -1.99,-0.31 -2.47,-0.94 -1.1,-1.44 -1.54,-2.01 -3.63,-2.79 -3.23,-1.21 -7.79,-1.14 -10.74,0.59 -1.97,1.15 -3.39,0.58 -5.47,1.12 -1.63,0.42 -3.62,0.73 -5.04,1.41 -2.16,1.03 -1,2.88 -1.57,5 0.21,0.33 -0.15,0.07 0.47,0.13 0.03,-0.45 1.35,-1.64 1.72,-1.8 -0.24,-0.52 -0.14,-0.27 -0.5,-0.64 2.57,-0.34 0.13,-0.91 5.21,-1.03 4.87,-0.11 6.26,-0.64 6.44,6.05 0.06,2.04 0.28,4.09 -0.9,5.42 0.61,0.83 0.55,1.22 -0.54,1.79 -0.96,0.5 -1.35,-0.32 -2.35,-0.5 -0.69,2.24 -1.34,4.49 -4.01,4.64 1.11,2.3 1.43,0.8 0.41,4.62 -0.21,0.79 -0.59,1.26 -0.93,2.3 -0.2,0.62 -0.77,1.83 -0.77,2.28 1.21,0.07 2.24,0.32 2.74,-0.65 0.05,0.02 0.12,0.01 0.15,0.07l0.6 0.26c3.73,-4.66 5.19,-2.2 6.77,-3.68 0.72,0.47 0.01,0.55 0.99,0.5l0.53 -1.72c-0.86,-0.28 -1.78,-0.15 -2.69,-0.2 -1.47,-0.08 -0.98,-0.2 -1.97,0.52 -0.62,0.45 -1.05,0.74 -1.54,1.17 -0.43,0.38 -0.99,1.2 -1.37,1.42 0.48,-1.3 2.2,-2.79 3.16,-3.16 2.6,-1 1.37,-0.83 2.13,-5.83 0.3,-1.96 0.7,-3.36 0.31,-5.44 -0.5,-2.66 -0.21,-7.61 -0.91,-8.57 -0.31,-0.42 -0.3,-1.11 -0.3,-1.65 0.26,-0.23 0.61,-0.5 0.98,-0.69 0.46,-0.24 0.93,-0.37 1.25,-0.76 -2.79,-0.09 -7.73,0.11 -10.43,0.89 -0.52,0.15 -0.98,0.22 -1.49,0.36 -0.35,0.09 -0.43,0.18 -0.65,0.24 -0.99,0.26 -0.5,0.1 -0.75,-0.09 4.76,-1.61 6.69,-1.03 9.83,-1.83 1,-0.26 1.3,-1.59 4.11,-1.77 1.23,-0.08 4.52,-0.18 5.48,0.18 -1.39,0.09 -3.54,0.01 -5.01,-0 -1.28,-0.01 -1.17,0.04 -2.18,0.41 -0.49,0.18 -0.94,0.23 -1.1,0.79 -0.18,0.64 -0.06,0.27 0.01,0.47 0.91,0.23 2.15,0.23 2.98,0.17l8.92 1.41c0.16,-0.2 0.04,-0.03 0.19,-0.31l0.15 -0.3c1.29,1.2 0.31,0.71 2.44,1.23 5.44,1.31 5.21,0.69 7.71,3.56 0.89,-0.15 10.56,-6.15 11.51,-5.5 -1.02,0.69 -5.15,2.5 -6.58,3.23 -1.94,0.99 -2.89,1.47 -4.5,2.77 -0.58,0.47 -0.93,0.25 -1.61,0.82 -0.11,-0.34 0.2,0.24 0.14,-0.67 -3.08,-0.86 -16.04,-3.29 -19.01,-3.36 0.62,1.05 2.15,0.85 3.27,0.97 1.19,0.13 2.3,0.43 3.46,0.58 3.65,0.48 6.91,1.27 10.52,1.85 1.38,0.22 1.33,1.07 1.71,2.36 0.44,1.5 1.44,5.14 2.03,6.24 2.5,0.72 3.22,-1.26 4.88,-2.56 2.95,-2.31 5.63,-4.46 8.85,-6.38 0.97,-0.58 3.77,-2.48 4.72,-2.73 -0.17,0.58 -1.37,0.93 -1.94,1.26 -0.83,0.48 -1.42,0.87 -2.2,1.36 -2.42,1.53 -11.19,7.69 -11.81,9.39 1.37,0.15 8.23,0.74 8.85,1.09 -1.11,0.48 -3.75,-0.29 -5,-0.38l-10.85 -0.8c-2.64,-0.25 -14.7,-0.93 -15.65,-1.94 -0.56,-0.61 -0.75,-3.87 -0.9,-4.85l-0.51 -3.91c-0.04,-0.45 -0.07,-0.86 -0.38,-1.17l-0.14 7.82c0.08,2.03 0.91,1.62 0.28,4.5 -0.21,0.94 -0.12,1.67 -0.22,2.59 -0.14,1.33 -0.81,3.29 -0.48,4.67 0.81,0.29 2.97,0.3 3.78,0.05l0.11 -0.84c-0.64,0.3 -0.29,0.46 -1.28,0.18 -0.24,-1.92 1.1,-0.01 1.5,-2.7 0.16,-1.06 0.47,-2.84 0.29,-3.97 -0.97,-0.18 -1.78,-0.05 -2.62,-0.58 0.43,-0.37 0.46,-0.2 1.21,0.08 1.4,0.52 3.37,0.09 4.85,0.16 0.6,0.03 1.03,0.15 1.44,0.1 0.53,-0.06 0.41,0.03 0.99,0.2 0.72,0.21 2.16,0.14 3.1,0.38 -5.04,0.48 -3.17,-1.24 -6.17,1.84 -1.19,1.22 -3.49,2.39 -2.67,5.27 0.94,0.24 4.19,0.1 5.53,0.24 1.62,0.17 3.86,0.45 5.38,0.43 7.01,-0.09 7.08,-0.63 7.62,3.84l1.73 -0.09c0.27,1.5 -0.13,2.99 0.07,4.48 0.15,1.18 -0.21,-0.85 0.06,0.3l0.1 0.28c1.07,0.37 5.65,-0 6.88,-0.4 1.54,-0.5 3.14,-0.4 4.81,-0.73 0.98,-0.19 0.96,-0.18 0.97,-1.21 -3.87,-0.08 -6.56,1.21 -9.31,1.17l0.01 -1.33c2.59,0.05 5.01,-0.29 7.55,-0.59 1.33,-0.15 1.74,0.23 1.8,-1.03l-9.34 0.62 -0 -1.49c1.85,-0.53 6.94,-0.24 9.06,-0.8l0.01 -0.88 -9.04 0.25 -0.03 -1.36c1.86,-0.74 6.72,0.03 8.82,-0.48l0.16 -1.21 -8.84 0.21 -0 -1.22 8.74 -0.37c0.58,-1.9 -1.2,-1.3 -3.56,-1.3 -1.41,0 -3.86,0.15 -5.15,-0.04l0.03 -1.11c1.38,-0.14 7.31,0.19 8.26,-0.12 1.52,-0.49 0.39,-1.94 -1.16,-1.85 -2.65,0.16 -8.82,0.33 -10.96,-0.52 1.59,-0.14 2.01,-0.03 3.47,0.22 2.41,0.41 4.93,0.18 7.35,-0.12 2.92,-0.37 2.07,1.4 2.22,3.26 0.05,0.59 0.2,0.96 0.25,1.55 0.11,1.26 0.09,2.57 0.18,3.83 0.09,1.32 0.65,5.98 -0.15,6.89 -0.44,0.5 -1.43,0.45 -2.13,0.58 -0.79,0.15 -1.49,0.26 -2.35,0.4 -0.8,0.13 -1.35,0.34 -2.18,0.48 -0.78,0.13 -1.7,0.04 -2.51,0.21l-0.07 5.65c1.14,0.13 5.29,-1.1 6.62,-1.64 0.62,-0.25 1.64,-0.77 2.24,-0.35 -0.26,0.71 -0.92,0.71 -1.64,0.94 -1.56,0.52 -4.72,1.44 -5.64,2.06 -0.03,0.02 -0.08,0.06 -0.11,0.09zm-57.27 -1.12c1.55,0.25 9.41,0.13 10.98,-0.08l2.12 -5.65 -4.44 -0.1c0.11,-1.16 1.81,-5.56 2.25,-6.27l3.71 -0.04c0.59,-0.87 1.96,-4.37 1.97,-5.59l-3.62 0.05c0.17,-1.06 0.99,-2.91 1.37,-4.06 0.72,-2.14 0.44,-1.31 4.68,-1.46 0.34,-0.45 1.95,-4.87 2.08,-5.66l-10.42 0.01c-0.34,0.61 -1.14,2.85 -1.39,3.57l-9.28 25.29zm59.26 -5.18l2.63 -0.61c1.64,-0.08 0.02,-0.5 3.22,-0.73 -0.17,0.46 0.35,0.73 -1.28,0.77 -0.76,0.02 -0.92,0.06 -1.6,0.24 -0.79,0.21 -2.35,0.69 -2.97,0.33zm-15.05 -14.85c0.37,-0.02 0.84,-0.02 1.26,-0.07 0.83,-0.1 0.53,-0.26 1,-0.24 0.42,0.02 0.07,0.14 0.86,0.22l3.98 -0.1c0.33,-0.03 0.25,-0.06 0.56,-0.01 0.38,0.06 0.16,0 0.39,0.16l-0.02 0.74 -3.55 -0.31c-1.23,-0.13 -1.93,0.33 -2.76,0.15 -1,-0.22 -1.96,-0.03 -2.79,-0.24 0.22,-0.22 0.09,-0.23 1.09,-0.29zm-8.39 0.85c-0.21,-0.03 -0.87,0.36 -0.55,-1.24 0.13,-0.64 0.22,-0.63 0.89,-0.63 2.39,-0.01 3.45,-0.1 5.81,0.13l-0.17 1.74c-1.29,0.17 -2.64,0 -3.56,-0.45 0.35,-0.72 0.52,0.2 0.56,-0.92l-1 0.1c-0.4,0.84 0.39,1.4 -0.88,1.28l-0.04 -1.14 -0.96 -0c-0.14,0.55 -0.02,0.34 -0.04,0.67 -0,0.04 -0,0.09 -0,0.12 -0,0.03 -0.01,0.09 -0.02,0.11l-0.06 0.21zm-2.91 -21.69c1.39,0.15 3.45,0.43 3.98,1.57 -0.87,-0.07 -1.67,-0.28 -2.43,-0.42 -1.11,-0.22 -1.5,-0.02 -1.55,-1.15z"/>
   <path class="fil2" d="M9.88 28.05c-2.12,-1.81 1.76,-7.47 2.98,-8.18 -0.18,0.5 -0.81,1.26 -1.14,1.76 -2.5,3.69 -1.56,5.78 -1.84,6.42zm14.51 -11.98c0.29,0.35 0.18,-0.16 0.17,0.62 -0,0.28 -0.56,3.31 -0.44,4.3l0.79 0.5c-0.18,0.63 -0.31,0.25 -0.18,0.91 0.1,0.52 0.19,0.21 0.24,0.95 -1.34,0.47 -1.54,0.4 -2.48,-0.59 -0.68,-0.72 -1.06,-1.29 -1.32,-2.37 -0.26,-1.1 -1.3,-5.74 0.72,-5.63 0.43,-1.43 2.09,-2.43 3.57,-1.43 0.1,1.66 -0.84,1.17 -1.08,2.75zm0.73 2.42l0.35 -1.72c0.44,-1.6 2.16,-4.47 0.83,-5.05 -0.76,-0.04 -0.44,0.11 -0.89,0.13l-0.53 -0.11c-0.02,-0.06 -0.09,-0.04 -0.12,-0.08 1.65,-1.48 3.52,-0.13 2.32,2.29 -0.36,0.72 -0.72,1.39 -1.02,2.2 -0.26,0.7 -0.3,1.86 -0.94,2.33zm4.08 -3.6c0.13,-1.11 1.72,-3.27 2.29,-3.96 4.01,-4.84 13.04,-2.83 15,-3.82 -0.17,-0.16 0.03,-0.01 -0.31,-0.23 -0.13,-0.09 -0.18,-0.1 -0.33,-0.19l-3.87 -2.22c-8.75,-4.66 -18.98,-1.52 -25.74,4.59 -4.99,4.51 -9.11,12.31 -8.1,19.63 1.33,9.62 7.18,16.35 16.8,17.86 1.3,0.2 5.55,0.3 6.56,-0.06 -0.09,-0.57 -2.57,-2.02 -2.99,-2.31 -7.47,-5.06 -4.09,-5.58 -5.29,-7.74 -0.58,-1.03 -0.98,-0.63 -1.48,-1.09 0.97,-0.44 2.77,-1.07 2.68,-3.01 -0.34,-0.26 -0.64,-0.54 -1.15,-0.67 -0.92,1.24 -1.21,1.17 -3.22,1.17 -4.26,-0 -4.46,0.17 -7.44,-5.76 -1.64,-3.27 0.19,-4.29 0.64,-4.93 0.73,-1.04 2.11,-3.34 2.69,-3.9 0.42,-0.41 2.08,-1.47 2.76,-1.64 0.24,0.42 0.91,3.58 1.7,5.59 0.82,2.07 1.22,3.01 3.21,4.12 0.62,-0.19 0.98,-0.44 1.72,-0.55 1.21,-0.19 0.94,0.16 1.84,0.19 0.22,-0.27 0.86,-1.73 0.96,-2.02 -0.87,-0.02 -1.93,0.01 -2.6,-0.28 -0.14,-1.22 1.45,-2.13 1.96,-2.51 1.04,-0.77 1.33,-1.76 2.68,-1.37 0.29,-0.63 0.7,-1.03 0.77,-1.83 -0.89,0.06 -1,0.34 -1.77,0.56 0.83,-1.62 1.73,-1.45 2.02,-1.57 -0.28,-1.15 -1.15,-1.21 -1.98,-2.03z"/>
   <path class="fil3" d="M83.96 37.44c0.2,-1.16 4.27,-9.74 4.97,-10.89l0.06 0.72c-0.04,0.18 -0.16,0.49 -0.21,0.65l-2.78 9.56 -2.05 -0.04zm-26.69 17.18c0.36,-1 1.32,-3.72 1.44,-4.78 -1.57,-0 -8.76,-0.2 -9.59,0.18 -0.7,0.55 -1.55,3.48 -1.53,4.82l2.25 -0.07c-0.09,1.38 -1.99,6.45 -2.53,8.16l-2.6 7.99c1.71,0.14 2.34,-0.32 3.56,0.49 0.16,1.18 -0.32,1.55 -0.4,2.08 -0.05,0.34 -0.01,0.17 0.01,0.39 0,0.03 0.03,0.15 0.04,0.13 0,-0.02 0.02,0.09 0.05,0.12 1.01,-1.11 5.24,-16.36 6.69,-19.41l2.61 -0.11zm-29.3 -4.53c-1.21,-0.11 -9.01,-0.14 -9.61,0.14 -0.59,0.33 -0.68,1.16 -1.03,2.2 -0.3,0.9 -0.57,1.75 -0.73,2.61l2.56 0.05 -5.36 16.31c0.64,0.5 1.12,0.42 1.64,1.04 0.58,0.7 0.32,1.22 0.7,2.04l1.17 -0.07 3.29 -9.71c0.59,-1.79 2.6,-8.73 3.32,-9.73l2.53 -0.04 1.51 -4.84zm39.42 -0.35l-7.33 0.1c-0.67,0.78 -3.59,10.34 -4.16,12.06 -0.67,2.03 -3.64,10.86 -3.9,12.25l2.35 -0.1c0.46,-1.01 0.38,-2.61 1.38,-2.99 0.95,-0.36 3.2,-0.18 3.91,0.16 0.13,0.74 0.02,1.07 -0.17,1.72 -0.14,0.46 -0.34,0.83 -0.16,1.19 0.7,-0.32 0.5,-0.27 0.71,-1.04 0.26,-0.94 1.02,-2.32 1.2,-3.77l-3.03 -0.03c-0.12,-0.62 0.5,-2.04 0.73,-2.71 0.23,-0.69 0.5,-2.01 0.73,-2.64l2.88 -0.22c0.47,-0.56 1.33,-3.56 1.44,-4.44l-2.52 -0.01c-0.06,-0.54 1.09,-4.13 1.44,-4.53l2.93 -0.06 1.57 -4.93zm-32.46 5.1c0.54,-0.7 1.52,-3.78 1.62,-4.83 -1.59,-0.02 -6.19,-0.29 -7.3,0.13 -0.41,0.28 -7.3,21.08 -8.11,24.24l7.89 -0.11 1.45 -4.72 -3.09 -0.1c-0.06,-0.49 1.31,-4.72 1.59,-5.33l2.68 -0.09c0.57,-0.62 1.43,-3.34 1.5,-4.58l-2.55 0.01c0.03,-0.4 0.43,-1.59 0.61,-2.1 1.18,-3.38 -0.01,-2.13 3.71,-2.53zm10.53 2.52c0.7,-2.88 2.89,-7.38 -1.71,-7.8 -3.88,-0.36 -5.89,1.97 -7.11,4.58 -4.32,9.27 2,8.45 1.53,13.03 -0.12,1.21 -0.82,3.74 -2.33,3.33 -0.29,-1.33 1.04,-3.38 1.15,-4.89l-4.09 0.09c-0.6,1.12 -1,2.99 -1.28,4.25 -0.17,0.75 -0.51,1.43 -0.33,2.23 0.14,0.61 0.54,1.46 1.1,1.61 1.38,-2.43 -0.39,-2.59 3.39,-2.67 2.94,-0.06 1.76,0.11 2.77,0.26 0.72,0.11 0.38,-0.14 1.14,-0.28 1.58,-0.29 1.26,1.23 3.04,-4.56 2.29,-7.47 -4.35,-6.13 -2.27,-11.4 0.32,-0.82 0.61,-1.43 1.61,-1.52 -0.02,1.86 -0.61,2.33 -0.75,3.81l4.15 -0.03zm74.7 7.69c-0.26,-1.17 2.57,-6.76 3.19,-8.33 0.26,-0.66 -0.03,-0.56 0.45,-1.05 0.11,0.27 -1.6,6.81 -1.91,7.85 -0.38,1.26 -0.11,1.8 -1.73,1.53zm3.37 8.57c0.68,-2.01 2.22,-9.42 2.79,-12.03 0.46,-2.12 2.55,-10.96 2.64,-12.26l-6.33 0.08c-0.98,1.07 -4.2,10 -5.27,12.14 -0.64,1.28 -4.97,11.42 -5.02,12.2l4.46 -0.07c0.5,-0.66 1.23,-3.26 1.76,-4.34l1.54 0.03c-0.03,1.42 -0.89,2.91 -1.02,4.28l4.47 -0.03zm-39.67 0.48c1.91,-0.29 3.83,-2.79 4.61,-4.36 0.57,-1.15 6.66,-19.66 6.68,-20.18l-4.33 0.06c-0.51,0.78 -3.13,8.95 -3.65,10.56l-2.62 8.02c-0.33,0.99 -0.52,2 -1.53,2.04 -0.44,-0.86 0.97,-4.24 1.33,-5.3l3.34 -10.18c0.39,-1.27 1.53,-4 1.55,-5.16l-4.28 0.08c-0.69,1.04 -1.59,4.41 -2.03,5.74 -1.18,3.62 -2.86,8.28 -3.83,11.73 -0.46,1.65 -1.72,4.97 0.02,6.18 0.1,-0.13 0.09,-0.11 0.2,-0.37l0.38 -1.15c0.22,-0.51 0.36,-0.83 0.86,-0.97 0.71,-0.21 3.04,-0.18 3.68,0.06 0.64,1.09 -0.25,2.26 -0.38,3.21zm16.25 -3.36c0.89,-2.87 6.61,-19.32 6.85,-21.27l-3.58 0.17c-0.83,1.28 -2.78,8.98 -3.44,10.07 -0.12,-0.17 -0.07,0.01 -0.13,-0.36 -0.04,-0.27 0.98,-7.9 0.87,-9.79 -5.05,-0.06 -3.36,-0.52 -5.48,5.42 -0.77,2.16 -1.35,4.26 -2.1,6.37l-4.09 12.53c0.99,0.11 3.35,0.42 3.84,-0.43l3.19 -9.71c0.27,0.43 0.15,0.67 0.09,1.26l-0.82 8.86 3.79 -0.11 1.03 -3.01zm10.68 -12.59c-0.18,-1.09 2.45,-6.92 2.6,-8.72l-4.4 0.08c-0.5,0.8 -1.67,4.88 -2.06,6.03 -0.85,2.54 -5.72,16.86 -5.85,18.28l4.41 -0.08 3.3 -10.22 1.24 0.02c0.16,1.06 -2.91,8.26 -3.17,10.23 0.98,0.05 3.57,0.18 4.27,-0.1 0.49,-0.29 8.06,-23.25 8.1,-24.23 -0.77,-0.02 -3.43,-0.11 -4.03,0.04 -1.27,0.32 -1.79,6.17 -3.43,8.72l-1 -0.04zm-35.75 15.8c0.72,-1.82 1.46,-4.23 2.03,-6.13 0.9,-2.97 5.65,-16.51 5.85,-18.16 -1.26,-0.04 -4.85,-0.24 -5.72,0.18 -0.45,0.3 -2.62,5.96 -3.18,7.3 -0.18,0.43 -0.33,0.76 -0.51,1.21 -0.4,1.01 -0.27,0.82 -0.74,1.13 0.21,-2.72 1.91,-6.91 1.97,-9.82l-5.74 0.13 -5.97 18.21c-0.4,1.21 -1.86,5.21 -1.88,6.08l3.75 -0.01c0.29,-0.53 4.05,-11.53 4.33,-12.94 0.29,0.36 0.1,-0.06 0.2,0.45 0.14,0.68 -2.66,10.76 -2.59,12.45l2.46 -0.02c0.42,-0.17 3.83,-8.59 4.5,-10.14l1.6 -3.35c-0.24,1.87 -3.54,10.4 -4.3,13.52l3.94 -0.1zm-20.49 -31.79c0.27,-1.87 8.34,-21.94 8.26,-23.02l-6.03 0.03c-0.6,0.78 -4.69,12.31 -5.44,14.33 -0.79,2.13 -5.11,13.29 -5.27,14.58l9.99 -0.08c0.38,-0.51 2.01,-4.99 2.06,-5.87l-3.57 0.04zm11.6 1.26c-0.6,-0.64 1.31,-5.03 1.66,-5.98 0.77,-2.1 1.49,-3.96 2.26,-6.04 0.74,-2 4.21,-11.01 4.41,-12.36l-6.2 0.03 -5.91 15.98c-1.61,5.01 -6.69,13.41 2.7,13.4 7.52,-0.01 9.54,-7.17 11.36,-12.22 0.52,-1.44 6.16,-16.26 6.28,-17.28 -1.68,-0.05 -3.43,0.01 -5.13,0.01 -1.49,0 -1.11,-0.1 -2.24,2.97 -0.94,2.55 -1.85,5.01 -2.8,7.53 -0.93,2.46 -1.89,5.16 -2.79,7.59 -0.47,1.28 -0.93,2.54 -1.41,3.82 -0.34,0.9 -1.16,3.41 -2.18,2.57zm-29.87 -5.73l-2.1 0.12c0.13,-1.06 2.15,-4.95 2.69,-6.1 0.54,-1.14 2.14,-5.22 2.89,-5.6 -0.6,0.72 -0.58,1.58 -0.9,2.71 -0.31,1.11 -0.65,1.82 -0.96,2.93 -0.36,1.28 -1.16,4.99 -1.63,5.94zm-9.16 2.96c1.15,0.61 3.65,2.75 4.77,3.04l0.43 -0.73 2.05 -0.05c-0.11,1 -0.61,2.05 -0.44,2.78 0.27,1.15 -0.36,1.5 -0.76,2.43l6.16 -0.01c0.4,-0.76 1.47,-5.77 1.81,-7.03 0.76,-2.86 5,-19.94 5.14,-21.79l-8.99 -0.02c-0.79,1.19 -1.82,3.76 -2.56,5.24 -0.93,1.85 -7.54,15.3 -7.62,16.14zm62 7.06c0.5,-1.27 4.54,-18.41 5.33,-21.54l1.75 -7.27 -9.16 0.06c-1.15,1.9 -2.42,4.98 -3.48,7.14 -1.18,2.41 -2.29,4.75 -3.46,7.2 -0.84,1.76 -6.78,13.59 -6.69,14.54l6.13 -0.07c0.96,-1 1.62,-3.99 2.47,-5.12l2.11 -0.08c-0.06,1.59 -1.08,3.39 -1.31,5.19l6.31 -0.06z"/>
   <path class="fil2" d="M37.76 91.14c0.33,-0.59 5.71,-18.66 5.68,-19.09 -1.12,-0.19 -3.65,-0.44 -4.24,0.58l-2.37 5.95c-0.15,0.25 -0.09,0.16 -0.25,0.31 0.17,-2 1.26,-4.67 1.18,-6.81l-3.78 0.1c-0.47,0.86 -2.63,8.02 -3.05,9.44 -0.56,1.93 -2.55,8.24 -2.8,9.64l2.69 -0.1c0.53,-1.23 0.96,-2.77 1.39,-4.17 0.21,-0.68 0.36,-1.36 0.59,-2.14 0.18,-0.62 0.42,-1.53 0.8,-1.97 -0.15,2.71 -1.35,5.47 -1.51,8.4 1.73,-0.05 1.78,0.21 2.34,-1.22 0.34,-0.88 0.62,-1.61 0.93,-2.44l1.9 -4.63c0.01,-0.07 0.06,-0.07 0.1,-0.1 -0.3,2.63 -1.96,5.6 -2.27,8.35l2.66 -0.08zm8.85 -16.72c0.31,-0.42 0.79,-1.81 0.8,-2.43l-3.06 -0.05 -0.7 2.57 2.97 -0.09zm-4.91 16.64c0.38,-0.75 4.68,-14.94 4.66,-15.66 -3.58,-0.63 -3.26,0.56 -3.66,1.89 -0.2,0.68 -0.39,1.35 -0.58,1.98 -0.73,2.35 -3.14,10.23 -3.37,11.86l2.96 -0.07zm37.58 -4.1c-0.08,-1.64 4.29,-13.63 4.22,-15.22l-2.81 0.09c-0.98,1.51 -2.25,7.21 -3.04,9.49l-2.86 9.54 4.99 -0.03 1.22 -3.75 -1.73 -0.12zm47.38 -1.82c-1.77,-0.2 -2.51,-0.3 -2.89,1.29 -0.25,1.07 -0.55,2.45 -0.02,3.45 0.45,0.85 1.87,1.14 2.95,0.85 3.36,-0.92 4.46,-6.54 3.9,-8 -0.43,-1.13 -1.28,-1.6 -1.73,-2.36 -0.47,-0.8 -0.15,-2.6 0.85,-2.88 0.43,0.83 -0.28,1.22 0.06,2.35l1.93 -0.12c1.09,-0.63 1.81,-4.54 -0.35,-5.01 -2.43,-0.54 -4.02,1.04 -4.75,2.53 -2.82,5.75 0.93,6.63 0.96,8.38 0.02,1.11 -0.36,2.31 -1.36,2.32 0.03,-1.24 0.48,-1.42 0.44,-2.79zm-59.89 0.37c-0.89,1.34 -1.69,4.94 0.44,5.58 3.64,1.1 5.26,-2.88 5.83,-5.49 0.34,-1.56 0.45,-1.69 -0.25,-2.96 -0.48,-0.88 -1.53,-1.73 -1.66,-2.29 -0.1,-0.4 0.1,-2.37 1.15,-2.43 0.12,0.96 -0.32,1.31 -0.28,2.38l2.38 -0.21c0.1,-0.12 0.11,-0.11 0.22,-0.34l0.68 -2.75c-0.25,-2.88 -5,-2.74 -6.43,1.09 -2.39,6.4 1.3,5.78 1.23,8.02 -0.03,1.13 -0.51,2 -1.3,2.35 -0.38,-0.92 0.57,-1.66 0.29,-2.96l-2.31 0.01zm32.68 2.62c-0.19,-1.58 0.89,-4.21 1.33,-5.73 0.34,-1.16 1.02,-4.44 1.99,-4.83 0.13,1.19 -0.55,2.18 -0.59,3.27 0.83,0.22 1.81,0.13 2.67,0.02 0.58,-0.82 1.26,-3.86 0.69,-4.89 -0.68,-1.24 -2.84,-1.52 -4.28,-0.53 -2.33,1.6 -2.83,4.71 -3.83,7.86 -0.72,2.27 -2.94,7.97 1.47,7.67 1.65,-0.11 2.7,-1.53 3.37,-2.52 0.41,-0.61 1.43,-2.69 1.47,-3.57 0.04,-0.95 -1.69,-0.64 -2.39,-0.55 -0.8,1.51 -0.83,3.53 -1.88,3.8zm-73.94 -7.67c0.36,0.37 -0.05,0.25 0.71,0.21 1.74,-0.1 1.71,-0.41 1.92,-1.15 0.88,-3 0.09,-4.86 -3.31,-3.97 -2.57,0.67 -4.32,5.69 -3.12,8.06 0.37,0.74 1.48,1.85 1.65,2.43 0.3,1.02 -0.46,2.36 -1.12,2.6 -0.42,-0.86 0.36,-1.53 0.14,-2.71l-2.19 -0.3c-0.82,1.33 -1.83,4.73 -0.02,5.63 1.88,0.93 3.8,0.01 5,-2.03 3.26,-5.52 0.06,-7.07 -0.45,-8.12 -0.33,-0.69 -0.39,-2.51 0.73,-2.8 0.51,0.92 -0.53,1.44 0.06,2.16zm58.57 8.14c-0.15,-1.7 1.12,-4.24 1.48,-5.86 0.22,-0.99 1.02,-4.94 2.11,-4.98 0.28,0.9 -1.21,4.63 -1.53,5.76 -0.39,1.38 -0.99,4.72 -2.06,5.09zm6.4 -9.25c1.32,-5.92 -4.19,-5.34 -5.88,-2.13 -1.25,2.37 -2.53,6.62 -3.21,9.53 -0.44,1.88 -0.78,4.2 1.61,4.29 4.02,0.15 5.11,-3.83 6.02,-6.87 0.45,-1.5 1.14,-3.37 1.46,-4.83zm-28.96 9.11c-0.14,-1.77 1.07,-4.16 2.04,-4.71 -0.1,0.88 -0.52,1.73 -0.77,2.62 -0.12,0.45 -0.18,0.87 -0.37,1.33 -0.25,0.63 -0.32,0.7 -0.91,0.76zm-0.89 -7.24c1.92,0.22 2.76,0.39 3.05,-0.74 0.23,-0.92 0.56,-2.35 1.33,-2.58 0.27,1.83 -0.58,3.13 -1.96,4.01 -1.44,0.92 -2.43,1.09 -3.31,2.62 -0.48,0.83 -1.34,3.56 -1.48,4.65 -0.33,2.57 1.88,2.51 3.04,1.16 0.33,0.32 0.04,0.37 0.48,0.58 0.17,0.08 2.36,0.18 2.61,-0.19 0.02,-0.03 0.06,-0.08 0.09,-0.11 0.7,-1.12 -0.37,0.85 0.14,-0.24l1.81 -5.96c0.55,-1.85 1.5,-4.64 1.78,-6.46 0.71,-4.61 -6.65,-3.97 -7.58,3.26zm-45.9 7.45c0.35,-1.86 0.91,-3.77 2.1,-4.6 -0.08,0.81 -0.48,1.88 -0.72,2.67 -0.35,1.17 -0.17,1.94 -1.38,1.92zm3 2.55c0.94,-2.16 1.81,-5.5 2.48,-7.99 0.52,-1.94 2.66,-6.84 0.11,-7.7 -3.3,-1.1 -5.18,2.07 -5.91,4.28 -0.18,0.54 -0.7,1.63 -0.19,1.94 0.22,0.13 1.83,-0.04 2.17,-0.14 0.78,-0.24 0.66,-0.79 0.9,-1.62 0.09,-0.31 0.24,-0.81 0.33,-1.01 0.31,-0.74 0.07,-0.45 0.64,-0.67 0.29,0.76 -0.13,1.62 -0.42,2.4 -0.71,1.9 -3.8,1.87 -4.91,4.26 -0.48,1.05 -1.17,3.49 -1.35,4.78 -0.15,1.1 0.22,1.69 1.19,1.81 1.1,0.14 1.49,-0.51 2.01,-0.96l0.37 0.79 2.56 -0.15zm31.38 -11.94c0.53,-1.66 0.55,-1.21 0.9,-1.29 0.49,1.12 -3.2,10.95 -3.58,13.11l2.9 -0.07c0.46,-0.65 4.25,-12.99 4.27,-14.39 0.02,-0.97 -0.61,-1.46 -1.57,-1.46 -1,0 -1.33,0.66 -1.86,1.13 -0.63,-0.21 0.27,-0.01 -0.1,-0.94l-2.88 0.02 -4.63 15.69 2.87 -0.06c0.43,-0.63 2.96,-9.53 3.67,-11.73zm57.43 8.87c-0.27,-0.62 2.26,-8.27 2.73,-9.93 0.2,-0.69 0.91,-2.77 0.94,-3.21l-2.95 0.02c-0.66,1.15 -2.23,7.27 -2.77,9.03 -0.47,1.54 -1.1,3.1 -1.33,4.64 -0.34,2.22 1.72,3.02 2.84,1.47 0.63,0.21 0.32,0.47 1.37,0.52 0.57,0.03 1.23,-0.03 1.81,-0.09 0.57,-0.27 4.79,-14.58 4.8,-15.62 -3.74,-0.48 -2.83,-0.07 -4.93,6.87l-1.52 5.08c-0.27,0.83 -0.27,1.13 -0.99,1.21zm-14.96 0.03c0.17,-2.01 3.71,-12.05 3.73,-13.18l-2.97 0.16c-0.74,1.45 -1.73,5.72 -2.33,7.64 -0.59,1.89 -2.31,6.2 -1.31,8.08 1.28,0.33 1.9,0.1 2.61,-0.67 0.92,0.34 -0.61,-0.4 0.26,0.21 0.42,0.29 0.44,0.28 1.07,0.32 0.66,0.04 1.21,0.05 1.86,-0.08 0.36,-0.84 4.59,-14.22 4.76,-15.67l-2.95 0.07c-0.99,1.88 -2.23,7.7 -3.13,10.22 -0.91,2.56 -0.42,2.8 -1.6,2.9zm-33.87 -12.28c0.26,-0.67 1.02,-3.17 0.94,-3.93 -2.5,-0.07 -2.8,-0.34 -3.13,1.23l-1.04 3.53c-0.68,2.3 -4.1,12.87 -4.18,14.36l2.76 -0.08c0.67,-0.92 2.64,-8.21 3.21,-10.14 0.34,-1.14 0.43,-2.59 1.56,-2.91 -0.39,3.28 -3.49,10.48 -3.57,13.07l2.88 -0.02 2.75 -9.25c0.32,-1.14 1.23,-3.76 1.21,-4.96 -0.05,-3.18 -3.38,-0.92 -3.38,-0.91zm-50.39 12.24c0.13,-1.3 2.61,-8.91 3.32,-11.23 0.48,-1.56 0.3,-1.13 0.77,-1.34l0.12 0.28c0.2,0.76 -0.63,2.96 -1.6,6.43 -0.52,1.87 -1.22,5.38 -2.61,5.85zm-4.14 3.34c2.4,-0.19 5.54,0.31 6.88,-1.11 1,-1.06 1.79,-3.71 2.28,-5.5 0.58,-2.1 1.19,-3.95 1.83,-5.96 1.64,-5.2 1.67,-6.74 -2.94,-6.71 -3.18,0.02 -2.11,-0.85 -4.54,7.2 -0.65,2.15 -3.34,10.59 -3.52,12.07zm115.76 -3.37c0.32,-1.04 0.77,-4.22 2.14,-4.82 -0.02,0.86 -0.44,1.84 -0.72,2.75 -0.32,1.05 -0.42,1.91 -1.42,2.07zm-1.04 -13.17c-0.98,-0.08 -2.12,-0.16 -3.07,0.07 -0.45,1.05 -0.71,2.68 -1.14,3.89 -0.54,1.53 -3.45,11.21 -3.35,11.75l2.77 -0.17c0.69,-1.18 1.34,-4.15 1.85,-5.76 0.89,-2.84 0.8,-4.17 3.09,-4.56l0.34 0.8 2.39 -0.18c0.93,-0.72 0.47,-2.86 1.81,-3.39 0.52,4.52 -4,4.01 -5.31,6.78 -0.56,1.18 -1.31,3.21 -1.42,4.68 -0.07,1.03 0.15,1.83 1.18,1.93 1,0.1 1.54,-0.54 2.03,-0.91 0.02,0.03 0.04,0.08 0.05,0.1 0.21,0.44 0.11,0.76 0.22,0.47 0.01,-0.03 0.04,0.09 0.06,0.15l2.49 -0.13c0.58,-0.92 1.39,-4.2 1.78,-5.66 0.59,-2.24 2.52,-6.8 1.97,-8.84 -0.66,-2.43 -5.14,-1.49 -6.55,1.92 -0.44,-0.75 0.44,-1.7 0.66,-3.08 -1.12,0.06 -1.55,0.72 -2.08,1.13l0.23 -1.01z"/>
   <path class="fil4" d="M16.69 25.6c0.57,0.59 0.36,1.1 0.99,1.43 0.5,0.26 0.31,0.01 0.71,0.3 1.02,0.75 -0.83,0.51 1.81,0.6 0.68,0.02 1.68,1.06 2.88,-0.34 0.32,0.07 0.75,1.01 1.83,0.13 0.35,-0.29 1.01,-1.03 1.2,-1.65 -1.52,-0.28 -1.71,0.16 -2.69,0.74l-0.85 -1.09c-0.35,-0.29 -0.65,-0.3 -0.99,-0.38l-0.43 -0.09c-0.33,-0.99 -0.26,-0.61 -0.99,-1.05 0.03,-0.4 0.11,-1.02 -0.11,-1.38 -0.22,-0.36 -0.64,-0.19 -0.82,-0.48 0.37,0.09 0.17,-1.31 0.13,-1.56 -0.7,-0.47 0.03,0 -0.5,-0.14l-0.55 -0.16c0.29,-0.6 0.27,-0.74 0.19,-1.5 -1.77,-0.35 -3.01,2.52 -3.32,3.61 -0.26,0.93 -0.07,0.88 0.61,1.3l0.23 0.15c-0.01,0.57 -0.1,1.1 0.14,1.41 -0.06,0.66 0.23,0.34 -0.36,0.58l-0.23 -0.78c-0.08,-0.34 -0.05,-0.39 -0.17,-0.62 -1.11,-0.02 -1.71,1.95 -1.07,2.74l0.43 0.4 -0.07 1.58c0.71,0.23 0.54,0.16 1.12,-0.05 -0.35,1.13 -0.08,1.61 0.33,2.37 1.26,0.07 0.21,-0.52 1.11,0.12 0,0 -0.16,0.8 1.06,0.55 0.42,-0.09 0.71,-0.34 0.81,-0.67 0.8,0.28 0.2,0.55 0.95,0.66 0.46,0.07 0.57,-0.18 0.99,-0.42 0.04,0.03 0.08,0.08 0.11,0.1 1.13,0.88 1.79,-0.46 1.98,-1.32 0.31,-1.41 0.38,-2.69 -1.24,-1.71l-0.51 -0.36c-0.33,-0.17 -0.01,-0.08 -0.56,-0.21l-0.63 0.73c-0.12,-0.73 0.01,-0.24 -0.33,-0.5l-0.07 -0.24 -1.12 0.04c-1.23,0.19 -0.51,-1.41 -2.05,-0.82 0.11,-1.31 -0.38,-1.26 0.07,-1.98z"/>
   <path class="fil5" d="M21.89 14.75c-0.83,1.57 -1.27,2.44 -0.74,4.75 0.34,1.45 1.09,3.1 2.43,3.27 0.43,-0.39 0.55,-0.44 0.69,-1.2l-1.16 -0.28c-0.35,-1.82 0.41,-1.51 0.73,-2.59 0.28,-0.93 0.11,-1.69 0.54,-2.64 0.24,-1.58 1.17,-1.1 1.08,-2.75 -1.48,-1 -3.14,0.01 -3.57,1.43z"/>
   <path class="fil6" d="M26.01 23c0.23,0.87 1.55,0.62 2.46,0.44 0.58,-0.72 1.04,-2.07 1.09,-3.22 -1.34,0.04 -1.14,0.46 -1.63,1.53 -0.75,1.63 -1.09,0.7 -1.91,1.25z"/>
  </g>
 </g>
</svg>
