<?xml version="1.0" encoding="UTF-8"?>
<!DOCTYPE svg PUBLIC "-//W3C//DTD SVG 1.1//EN" "http://www.w3.org/Graphics/SVG/1.1/DTD/svg11.dtd">
<!-- Creator: CorelDRAW -->
<svg xmlns="http://www.w3.org/2000/svg" xml:space="preserve" width="33.8667mm" height="16.9333mm" version="1.1" style="shape-rendering:geometricPrecision; text-rendering:geometricPrecision; image-rendering:optimizeQuality; fill-rule:evenodd; clip-rule:evenodd"
viewBox="0 0 107.35 53.68"
 xmlns:xlink="http://www.w3.org/1999/xlink"
 xmlns:xodm="http://www.corel.com/coreldraw/odm/2003">
 <defs>
  <style type="text/css">
   <![CDATA[
    .fil0 {fill:black}
    .fil1 {fill:blue}
    .fil3 {fill:yellow}
    .fil2 {fill:white}
   ]]>
  </style>
 </defs>
 <g id="Camada_x0020_1">
  <metadata id="CorelCorpID_0Corel-Layer"/>
  <g id="_2482594592576">
   <path class="fil0" d="M78 36.51c0.2,0.08 0.06,-0.08 0.11,0.18 0.05,0.28 -0.28,1.62 -0.31,1.68 -0.15,0.21 -0.6,0.19 -0.99,0.2 -0.42,0 -0.72,0.16 -1.05,0.03 -0.15,-0.29 0.05,-0.57 0.09,-0.9 0.13,-1.16 0.03,-1.1 1.11,-1.19l1.04 -0zm-41.28 5.88c-0.46,-0.01 -0.09,-0.61 0,-0.86 0.08,-0.2 0.11,-0.37 0.18,-0.53 0.23,-0.54 0.73,-2.34 0.99,-3.02l0.7 -1.96c0.06,-0.2 0.08,-0.31 0.15,-0.5l0.66 -1.99c0.07,-0.28 0.11,-0.28 0.2,-0.51 0.07,-0.19 0.08,-0.32 0.14,-0.51l0.38 -0.98c0.82,-2.14 0.04,-1.96 1.99,-2.06 0.29,-0.02 0.38,-0.07 0.66,-0.09 2.02,-0.1 2.38,-0.52 2.34,0.39l-0.05 1.57c-0.01,0.34 0.04,0.43 0.05,0.73 0,1.01 -0.01,1.99 -0.04,3.03l0.02 1.51c-0.02,0.56 -0.02,1 0.01,1.52 0.03,0.47 -0.03,1.08 -0.05,1.57 -0.01,0.28 0.04,0.5 0.03,0.73 -0.01,0.21 -0.05,0.14 -0.05,0.33 -0,0.15 0.04,0.1 0.04,0.29 -0.01,0.42 -0.05,0.31 -0.08,0.56 -0.35,0.06 -0.69,0.08 -1.1,0.15l-1.19 0.07c-0.68,-0.02 -0.49,-0.07 -0.51,-0.51 -0.04,-0.99 -0.2,-0.69 -0.78,-1.6 -0.17,-0.27 -1.35,-1.54 -1.35,-1.8 0.25,-0.14 0.89,-0.16 1.24,-0.2 1.43,-0.15 0.95,0.06 1,-1.4 0.02,-0.54 0.1,-2.77 -0.03,-3.03 -0.26,0.16 -0.11,0.23 -0.25,0.7 -0.06,0.2 -0.17,0.46 -0.24,0.65l-0.42 1.35c-0.41,1.25 -0.15,1.6 -2.17,1.55 -0.03,0.34 0.01,0.26 0.23,0.47l0.45 0.62c0.09,0.13 0.38,0.48 0.38,0.62 -0.01,0.41 -0.78,2.62 -0.94,2.89l-1.28 0.16c-0.23,0.02 -0.44,0.01 -0.67,0.03 -0.19,0.02 -0.43,0.08 -0.61,0.08zm-20.01 -1.08l-0.16 0.08 -0.16 -0.07c-0.07,-0.07 -0.08,0.02 -0.13,-0.28 -0.38,-2.51 -1.02,-1.61 0.72,-2.92l0.75 -0.53c0.27,-0.21 0.33,-0.75 0.38,-1.15 0.06,-0.43 0.16,-0.82 0.24,-1.28 0.03,-0.19 0.1,-0.45 0.13,-0.64 0.06,-0.33 -0.03,-0.35 -0.41,-0.32 -0.18,0.02 -0.5,0.04 -0.76,0.07 -0.27,0.02 -0.58,0.01 -0.67,0.14l-0.25 1.33c-0.09,0.46 -0.1,0.97 -0.19,1.39 -0.05,0.26 -0.12,0.4 -0.15,0.67 -0.1,0.92 -1.06,0.56 -0.66,1.51 0.13,0.31 0.27,0.89 0.17,1.21l-0.47 2.69c-0.26,1.69 -0.08,1.22 -1.61,1.42 -0.52,0.07 -0.64,0.16 -1.25,0.02l1.13 -6.47c0.02,-0.52 0.23,-1.13 0.3,-1.63 0.05,-0.33 0.03,-0.53 0.1,-0.83 0.06,-0.24 0.13,-0.53 0.15,-0.78 0.03,-0.32 0.1,-0.58 0.14,-0.86 0.05,-0.41 -0.94,-1.41 -0.96,-1.79 0.36,-0.11 2.24,-0.29 2.79,-0.35 0.27,-0.03 0.53,0 0.79,-0.03 0.22,-0.03 0.46,-0.1 0.63,-0.12 0.8,-0.08 2.06,-0.13 2.84,-0.25 0.56,-0.09 0.84,-0.2 1.16,0.19 0.41,0.51 0.01,1.67 -0.12,2.31l-0.43 2.43c-0.05,0.23 -0.05,0.46 -0.09,0.67 -0.38,1.93 0.12,1.25 -1.04,2.11l-1.4 0.98c-0.01,0.01 -0.06,0.04 -0.07,0.05l-0.11 0.07c-0.01,0.01 -0.03,0.02 -0.04,0.02l-1.29 0.93zm6.27 -8.17c0,-0.1 -0.42,-0.64 -0.53,-0.82 -0.07,-0.11 -0.47,-0.76 -0.47,-0.77 0,-0.32 1.02,-0.2 1.67,-0.33 0.49,-0.1 1.3,-0.11 1.9,-0.18 0.43,-0.05 0.82,-0.06 1.27,-0.11 0.33,-0.03 0.81,-0.1 1.24,-0.14 1.91,-0.19 1.47,-0.27 1.3,0.83 -0.04,0.25 -0.11,0.47 -0.14,0.68 -0.04,0.26 -0,0.5 -0.06,0.75 -0.06,0.29 -0.11,0.36 -0.13,0.69 -0.04,0.74 -0.2,0.51 -1.05,0.66 -0.46,0.08 -1.12,0.13 -1.58,0.12 -0.41,-0.01 0.28,-1.06 -0.23,-1.07 -1.03,-0.03 -0.63,0.37 -0.89,1.21 -0.1,0.32 -0.16,0.75 -0.17,1.12 -0.01,0.36 0.29,0.19 0.66,0.13 0.37,-0.05 0.86,-0.03 1.28,-0.1 0.15,-0.03 0.17,-0.05 0.36,-0.08 0.28,-0.05 0.5,-0.06 0.78,0.01 -0.03,0.21 -0.08,0.21 -0.23,0.36l-1.43 1.41c-0.59,0.61 -0.73,0.85 -1.33,0.93 -0.48,0.06 -0.6,0.03 -0.64,0.46 -0.06,0.63 -0.31,1.67 -0.32,1.84 -0.01,0.44 -0.02,0.38 0.32,0.36 0.26,-0.02 0.32,-0.02 0.52,-0.06 0.3,-1 -0.08,-1.14 0.77,-1.26l1.88 -0.13c0.4,0.1 0.13,0.36 0.11,0.73 -0.04,0.67 -0.38,1.62 -0.42,2.79 -0.69,0.3 -1.67,0.21 -2.31,0.32 -0.77,0.13 -2.35,0.23 -3.19,0.27 -0.31,0.02 -0.45,0.12 -0.66,0.04 -0.25,-0.17 -0.02,-0.77 0.04,-1.29 0.08,-0.75 0.34,-1.72 0.48,-2.68l0.66 -4.07c0.06,-0.44 0.19,-0.83 0.27,-1.31l0.26 -1.32zm6.87 -2.46c0.22,-0.08 0.5,-0.11 0.77,-0.16 0.28,-0.05 0.51,-0.01 0.85,-0.04 0.4,-0.03 1.2,-0.18 1.65,-0.17 0.48,0.01 0.65,-0.04 0.65,0.13 -0.02,0.72 -0.39,1.85 -0.41,2.57 -0.03,0.93 -0.37,1.56 -0.41,2.51 -0.02,0.44 -0.2,0.78 -0.24,1.23l-0.45 2.48c-0.38,1.47 -0.17,1.04 0.72,1.06 0.04,-0.27 0.13,-0.94 0.27,-1.17 0.13,-0.04 2.07,-0.23 2.26,-0.22 0.32,0.01 0.41,0.03 0.31,0.39 -0.08,0.3 -0.16,1.13 -0.33,1.78 -0.36,1.36 0.34,1.43 -1.25,1.58 -0.76,0.07 -2.18,0.14 -2.78,0.24 -0.42,0.07 -0.98,0.07 -1.38,0.13 -0.21,0.03 -0.45,0.06 -0.68,0.08 -0.76,0.07 -0.28,-0.62 -0.18,-1.56l0.7 -3.86c0.08,-0.47 0.11,-0.87 0.22,-1.3 0.1,-0.39 0.19,-0.93 0.21,-1.31l0.48 -2.57c0.02,-0.46 -0.67,-1.11 -0.9,-1.56 -0.01,-0.01 -0.01,-0.03 -0.02,-0.04 -0.07,-0.15 -0.05,0.06 -0.07,-0.22zm58.39 3.19c0.01,-0.01 0.02,-0.03 0.02,-0.04 0,-0.01 0.02,-0.03 0.02,-0.04 0.01,-0.01 0.01,-0.03 0.02,-0.04 0.01,-0.02 0.03,-0.06 0.04,-0.08 0.22,-0.45 0.57,-0.57 1.29,-0.55 1.16,0.03 1.14,-0.08 1.52,0.29 0.27,0.27 0.06,0.23 0.29,0.36 0.1,-0.13 0.13,-0.97 1.15,-1.2 1.26,-0.29 1.07,0.58 1.2,0.86l0.02 -0.21c0.05,-0.66 -0.43,-1.41 0.36,-1.98 0.16,-0.11 0.64,-0.35 0.89,-0.35 0.14,0 0.55,0.48 0.6,0.6 0.05,0.1 0.01,0.12 0.06,0.24 0.09,-0.46 -0.04,-0.3 -0.09,-0.66 -0.06,-0.41 0.18,-0.92 0.42,-1.24 0.3,-0.4 1.3,-0.4 1.4,0.37 0.11,0.84 0.27,1.48 -0.09,2.15 -0.41,0.76 -1.04,0.79 -1.19,0.13 -0.31,0.13 -0.12,0.54 -0.11,0.8 0.02,0.39 -0.18,1.27 -0.55,1.67 -0.16,0.17 -0.5,0.36 -0.81,0.34 -0.26,-0.13 -0.48,-0.6 -0.49,-0.95 -0.15,0.06 -0.13,-0.04 -0.14,0.22 -0.04,1.14 0.41,0.61 -0.28,1.99 -0.2,0.4 -0.63,0.85 -1.23,0.77 -0.15,-0.02 -0.33,-0.09 -0.49,-0.15 -0.25,-0.09 -0.24,-0.04 -0.3,-0.25 -0.23,0.1 -0.07,0.05 -0.22,0.26 -0.17,0.24 -0.64,0.56 -0.91,0.55 -0.38,-0.01 -0.81,0.02 -1.08,-0.11 -1.24,-0.61 -0.62,-1.5 -0.95,-1.96 -0.01,0.24 -0.01,0.49 -0.02,0.73 -0.01,0.34 -0.01,0.31 -0.23,0.49 -0.09,0.08 -0.31,0.24 -0.43,0.3 -1.35,0.57 -1.47,-0.73 -1.96,-0.85 -0.06,0.5 -0.8,1.12 -1.53,0.37l-0.14 -0.16c-0.54,-0.71 -0.29,-1.97 -0.16,-2.68 0.06,-0.3 0.07,-0.61 0.16,-0.84 0.15,-0.4 0.89,-0.63 1.47,-0.18 0.12,0.09 0.19,0.18 0.22,0.31 0.06,0.26 0.06,0.64 0.05,0.94 0.14,-0.16 0.12,-0.25 0.15,-0.44 0.02,-0.13 0.05,-0.29 0.11,-0.41 0.2,-0.41 1.09,-0.59 1.68,-0.02 0.16,0.15 0.22,0.27 0.21,0.65zm-37.31 -5.19c0,-0.15 0.28,-0.1 0.45,-0.11l1.48 -0.16c0.3,-0.05 0.67,-0.04 0.99,-0.08 1.25,-0.14 1.09,-0.24 0.79,1.18l-0.18 1.28c-0.08,0.32 -0.16,0.44 -0.17,0.83 -0.02,0.71 -0.41,2.59 -0.59,3.44 -0.05,0.25 -0.06,0.69 -0.12,0.93 -0.22,0.82 -0.19,1.2 -0.3,1.68 -0.06,0.26 -0.25,0.64 0.14,0.65 0.95,0.02 0.57,-0.17 0.89,-1.21 0.33,-0.08 0.79,-0.13 1.18,-0.14 0.9,-0.01 1.38,-0.32 1.37,0.03 -0.03,1.03 -0.48,2.71 -0.5,3.41 -0.56,0.3 -1.62,0.23 -2.29,0.34 -0.25,0.04 -0.48,0.1 -0.79,0.09 -1.08,-0.02 -0.93,0.09 -1.64,0.12 -1.59,0.08 -1.81,0.57 -1.36,-1.24 0.11,-0.43 0.12,-0.88 0.21,-1.3l0.73 -3.95c0.07,-0.41 0.1,-0.9 0.19,-1.33l0.46 -2.82c0.01,-0.23 -0.93,-1.36 -0.93,-1.65zm25.32 6.29c0,-0.13 0.09,-0.35 0.12,-0.47l0.98 -5.45c0.06,-0.55 0.01,-0.47 0.66,-0.55 0.15,-0.02 1.53,-0.35 1.52,0.05l-0.67 4c-0.03,0.14 -0.11,0.35 -0.13,0.52 -0.05,0.42 -0.06,0.79 -0.17,1.18 -0.32,1.15 0.18,1.39 -1.17,1.47 -1.36,0.08 -1.17,0.2 -1.14,-0.75zm-13.6 -7.4c0.1,0.42 -0.92,5.55 -1.12,6.71l-0.26 1.32c-0.03,0.54 -0.18,0.88 -0.26,1.33 -0.15,0.84 0.02,0.62 0.72,0.59 1.28,-0.05 0.84,-0.27 1.27,-2.01 0.1,-0.4 0.1,-0.95 0.2,-1.37 0.24,-1.03 0.42,-2.63 0.63,-3.35 0.14,-0.48 0.13,-1.43 0.29,-2.04 0.34,-1.29 -0.06,-1.4 0.97,-1.49 0.3,-0.03 0.53,-0.04 0.82,-0.06 0.5,-0.02 1.14,-0.37 1.09,0.24l-0.42 2.74c-0.03,0.16 -0.05,0.14 -0.1,0.31l-0.76 4.39c-0.07,0.44 -0.2,0.69 -0.24,1.34 -0.02,0.34 -0.07,0.41 -0.15,0.67 -0.24,0.82 -0.07,1.24 -0.3,2.09 -0.23,0.86 0.02,0.69 -0.83,0.8 -1.08,0.15 -2.71,0.17 -3.85,0.36 -0.18,0.03 -1.67,0.22 -1.83,0.15 -0.52,-0.24 -0.52,-0.66 -0.51,-1l0.64 -3.63c0.19,-0.79 0.11,-0.72 0.2,-1.2 0.08,-0.38 0.19,-0.77 0.25,-1.15 0.07,-0.47 0.05,-0.78 0.18,-1.22l0.41 -2.57c0,-0.12 -0.68,-1.01 -0.79,-1.16 -0.12,-0.15 -0.19,-0.22 -0.2,-0.44 0.45,-0.17 3.14,-0.37 3.93,-0.35zm3.47 11.75c0,-0.14 0.12,-0.3 0.17,-0.48l3.6 -10.69c0.11,-0.26 0.35,-1.26 0.58,-1.37 0.19,-0.09 3.59,-0.38 4.03,-0.37 0.43,0.01 0.13,1.77 0.21,2.4 0.07,0.63 -0.04,1.38 -0.02,1.98l0.02 1.34c-0.01,0.26 -0.02,0.52 -0.03,0.79 -0.05,1.55 0.03,3.01 -0.02,4.54 -0.03,0.95 0.29,1.26 -0.45,1.38l-2.34 0.18c-0.08,-0.31 -0.13,-0.24 -0.11,-0.67 0.01,-0.26 0,-0.47 -0.11,-0.62l-0.34 -0.43c-0.12,-0.16 -0.24,-0.28 -0.36,-0.42 -0.05,-0.06 -0.05,-0.07 -0.1,-0.14 -0.01,-0.01 -0.02,-0.02 -0.03,-0.03 -0.01,-0.01 -0.02,-0.02 -0.03,-0.03l-0.05 -0.07c-0.01,-0.01 -0.02,-0.02 -0.03,-0.03l-0.47 -0.6c-0.39,-0.58 -0.58,-0.47 -0.54,-0.98 0.45,0.01 1.68,-0.14 2.17,-0.23 0.05,-1.71 0.14,-2.55 0.03,-4.18 -0.08,0.32 -0.02,0.02 -0.14,0.15 -0.12,0.13 -0.53,1.45 -0.63,1.75 -0.07,0.2 -0.07,0.36 -0.15,0.56 -0.08,0.22 -0.09,0.24 -0.14,0.5 -0.04,0.19 -0.08,0.3 -0.17,0.48 -0.11,0.23 -0.08,0.28 -0.14,0.51 -0.22,0.04 -0.42,0.05 -0.67,0.08l-1.13 0.17c-0.12,0.1 -0.04,-0.02 -0,0.06 0.01,0.01 0.16,0.16 0.17,0.18 0.27,0.31 0.41,0.67 0.66,1 0.13,0.17 0.25,0.2 0.26,0.43 0,0.08 -0.09,0.4 -0.13,0.5l-0.35 1.01c-0.05,0.19 -0.08,0.38 -0.14,0.57 -0.32,1.06 -0.57,0.81 -1.2,0.87l-1.28 0.16c-0.6,-0.01 -0.65,0.03 -0.64,-0.24zm-56.16 -11.77c-0.3,-0.01 -0.14,-0.39 -0.04,-0.78l2.04 -7.55c0.1,-0.29 0.1,-0.59 0.19,-0.86 0.11,-0.3 0.14,-0.5 0.24,-0.82l0.25 -0.81c0.27,-0.67 0.56,-1.55 1.38,-1.86l2.04 -0.28c0.85,-0.05 0.52,0.34 0.73,1.37l0.55 4.46c0.06,0.35 0.12,0.49 0.13,0.87l0.48 3.54c0.06,0.28 0.12,0.59 0.14,0.86 0.09,1.09 0.46,1.06 -1.12,1.21 -0.17,0.02 -0.48,0.02 -0.72,0.05 -0.34,0.04 -0.4,0.02 -0.46,-0.22 -0.13,-0.53 -0.19,-1.46 -0.25,-1.76 -0.09,-0.4 -0.05,-0.48 -0.28,-0.51l-0.59 0.05c-0.28,0.03 -0.43,0.04 -0.7,0.06 -0.08,0.01 -0.61,0.04 -0.69,0.06 -0.47,0.14 -0.61,1.92 -0.84,2.7 -0.39,0.07 -2.02,0.23 -2.49,0.22zm78.51 3.02c0.01,-0.45 0.11,-1.46 0.33,-1.78 0.4,-0.57 0.99,-0.51 1.37,-0.48 0.11,-0.36 0.05,-0.71 0.2,-1.08 0.13,-0.31 0.11,-0.82 0.51,-0.81 0.82,0.02 0.61,0.36 1.12,0.42 -0.19,-0.46 -0.07,-1.65 0.21,-2.04 0.13,-0.18 0.09,-0.14 0.34,-0.21 0.1,-0.03 0.34,-0.09 0.48,-0.09l1.17 0.69c0.01,0.01 0.02,0.02 0.03,0.03 0.09,0.11 0.18,0.11 0.2,0.44l0.13 0c-0.01,-0.24 -0.04,-0.25 -0.15,-0.42l-0.16 -0.26c-0.01,-0.01 -0.02,-0.02 -0.03,-0.03 -0.33,-0.44 -0.34,-0.64 -0.33,-1.15 0.02,-0.7 0.38,-1.17 1.21,-1.15 0.58,0.01 1.66,2.24 1.84,2.82l0.42 2.17c-0.03,0.87 -0.67,1.19 -1.35,0.87l-0.24 -0.19c-0.04,0.28 -0.03,0.12 -0.02,0.39 0.01,0.16 0,0.33 -0.02,0.49 -0.21,1.24 -0.65,1.46 -1.73,1.48 -0.42,-0.58 -0.22,-0.6 -0.4,-1 -0.12,0.12 -0.08,-0.07 -0.09,0.15 -0.01,0.4 0.07,0.83 -0.02,1.02 -0.18,0.38 -0.7,0.69 -1.04,0.9 -0.97,0.61 -0.8,0.08 -1.16,-0.01 -0.1,0.16 -0.32,1.06 -1.14,1.04 -0.79,-0.02 -1.18,0.09 -1.45,-0.9l-0.24 -1.33zm-9.45 -8.53l0 -0.06 0.17 -0.14c0.29,0.12 0.37,0.15 0.61,0.32 1.31,0.94 0.92,0.72 1.05,1.71 0.06,0.49 0.17,1.04 0.41,1.35 0.5,0.65 0.89,0.44 1.31,0.31l0.3 -0.03 0.06 0.23 -0.18 0.14c-0.06,0.2 -0.38,0.55 -0.57,0.65 -0.33,0.17 -0.49,0.06 -0.92,-0.03 -0.51,-0.1 -1.66,-0.33 -1.85,-0.57 -0.35,-0.43 -0.41,-3.16 -0.38,-3.89zm-77.7 6.09c0.06,-1.91 0.3,-3.36 0.37,-5.37l0.11 -1.34c0.04,-1.14 0.3,-2.9 0.33,-4.03 0.05,-1.62 -0.2,-1.38 1.48,-1.54l2.89 -0.26c1.48,0 2.24,0.91 2.52,2.05 0.35,1.42 0.25,1.17 0.2,2.79 -0.01,0.26 -0.52,2.12 -0.69,2.43 -0.19,0.35 -0.15,0.39 -0.45,0.74 -0.44,0.53 -0.14,0.62 0.08,1.28 0.05,0.16 0.12,0.3 0.17,0.46l0.28 0.92c0.16,0.37 0.45,0.94 0.44,1.33 -0.25,0.11 -0.17,0.09 -0.52,0.1 -0.58,0.02 -1.52,0.18 -1.71,0.18 -0.22,-0.3 -1.06,-2.4 -1.15,-2.78 -0.05,-0.23 -0.02,-0.41 -0.25,-0.51 -0.15,-0.07 -0.46,-0.01 -0.72,-0.01 -0.51,0 -0.6,0.06 -0.66,0.38 -0.01,0.03 -0.01,0.13 -0.01,0.16 -0.02,0.35 0.01,0.84 -0.06,1.16 -0.05,0.23 -0.01,0.49 -0.03,0.67 -0.18,1.6 0.05,1.14 -1.2,1.33 -0.44,0.07 -1.43,0.25 -1.41,-0.13zm49.78 -4.82c0.01,-0.22 0.18,-0.62 0.24,-0.82l2.04 -7.95c0.24,-0.85 0.63,-2.39 1.21,-3.06 0.63,-0.72 0.51,-0.55 1.98,-0.73 0.16,-0.02 0.96,-0.08 1.07,-0.06 0.34,0.06 0.28,0.38 0.33,0.72 0.08,0.6 0.22,1.13 0.25,1.76 0.02,0.5 0.07,0.28 0.11,0.89l0.67 5.29c0.16,0.73 0.05,0.32 0.12,0.89l0.14 0.86c0.03,0.31 0.2,1.52 0.14,1.68 -0.23,0.09 -1.78,0.24 -2.16,0.23 -0.29,-0.01 -0.32,-2.13 -0.51,-2.48 -0.35,-0.01 -2.18,0.15 -2.36,0.22 -0.04,0.07 -0.18,0.5 -0.2,0.57 -0.16,0.65 -0.01,0.33 -0.28,1.13 -0.25,0.75 0.16,0.95 -1.13,1.05 -1.58,0.12 -1.7,0.35 -1.68,-0.2zm9.82 -12.82c0.21,-0.11 0.2,-0.12 0.52,-0.16 0.2,-0.02 0.43,-0.07 0.6,-0.08 0.48,-0.03 0.77,-0.04 1.21,-0.11 0.42,-0.07 0.89,-0.05 1.28,-0.11 0.28,-0.04 0.87,-0.15 1.17,-0.15 1.09,0.03 1.85,0.76 2.2,1.54 0.06,0.14 0.06,0.21 0.12,0.34 0.44,1.12 0.24,3.54 0.2,4.74l-0.41 3.09c-0.17,0.49 -0.27,0.86 -0.51,1.27 -0.21,0.37 -0.59,1.21 -1.31,1.35l-1.72 0.17c-0.73,0.07 -3.72,0.46 -4.1,0.37 -0.15,-0.64 0.03,-0.94 0.05,-1.57 0.02,-0.64 0.03,-1.58 0.13,-2.14 0.14,-0.84 0.08,-1.98 0.17,-2.85 0.03,-0.27 0.08,-0.38 0.09,-0.73l0.29 -4.98zm-33.88 4.32c0.26,-0.39 0.7,-0.85 1.14,-1.1 0.9,-0.51 1.98,-0.38 2.65,-0.48 0.68,-0.1 1.22,-0.1 1.44,-0.13 0.35,-0.05 1.75,-0.39 1.73,0.07 -0.02,0.72 -0.03,2.13 -0.22,2.74 -0.24,0.09 -0.69,0.15 -1.05,0.14 -0.63,-0.01 -0.57,-0.08 -0.99,0.14 -0.03,1.04 -0.13,2 -0.17,3.08 -0.01,0.51 -0.1,0.97 -0.11,1.51 -0.01,0.47 -0.09,0.98 -0.16,1.41 -0.09,0.48 -0,1.05 -0.1,1.52 -0.27,1.33 0.31,1.83 -0.54,1.88 -0.6,0.03 -2.18,0.34 -2.16,-0.06l0.15 -1.76c0.17,-0.91 0.23,-2.46 0.26,-3.33 0.04,-1.13 0.06,-1.16 0.21,-2.19 0.05,-0.3 0.03,-0.74 0.04,-1.06 0.02,-0.68 0.26,-0.79 -0.1,-0.84 -0.24,-0.03 -0.8,0.12 -1.02,0.17 -1.71,0.36 -1.31,1.32 -1.85,1.61 -0.15,-0.21 -0.13,-0.07 -0.11,-0.51l0.95 -2.83zm-8.82 3.81c0.01,-0.24 0.32,-1.61 0.45,-1.89 0.08,-0.18 0.13,-0.38 0.22,-0.55 0.07,-0.14 0.18,-0.37 0.27,-0.51l0.69 -0.87c0.35,-0.37 1.14,-0.61 1.71,-0.69l2.96 -0.31c0.7,-0.04 1.02,-0.14 1.44,-0.08 -0,0.17 0.01,0.22 0.01,0.32l0.01 1.03c-0.02,0.51 -0.03,1.01 -0.05,1.51 -0.42,0.22 -0.58,0.21 -1.28,0.28l-1.35 0.15c-0.67,0.08 -0.81,-0.04 -1.35,0.21 -0.95,0.43 -0.55,1.77 0.12,1.78 0.65,0.02 1.75,-0.42 2.66,0.18 0.78,0.52 0.79,1.05 0.96,1.79 0.24,1.07 -0.04,1.61 -0.17,2.61l-0.29 1.12c-0.24,0.77 -1.19,1.42 -2.04,1.55 -0.3,0.04 -0.36,0.08 -0.62,0.12l-2.76 0.26c-0.47,0.05 -0.93,0.21 -0.92,-0.31 0.09,-2.9 -0.16,-2.61 1.19,-2.66l1.39 -0.17c0.46,-0.03 1.01,-0.05 1.43,-0.2 1.06,-0.4 0.65,-1.4 0.38,-1.5 -0.36,-0.14 -2.94,0.49 -3.47,-0.89 -0.08,-0.21 -0.11,-0.27 -0.17,-0.52 -0.07,-0.28 -0.14,-0.35 -0.2,-0.55l-0.24 -1.22c0,-0.27 0.06,-0.42 -0.04,-0.62 -0.46,0.13 -0.56,0.8 -0.84,0.93 -0.08,-0.14 -0.11,-0.1 -0.1,-0.28zm53.43 3.23c-1.14,-0.03 -1.93,-0.51 -2.43,-1.36 -0.3,-0.51 -0.38,-1.48 -0.45,-2.09 -0.05,-0.51 0.01,-1.61 0.01,-2.04 -0.01,-1.01 0.16,-1.17 0.18,-1.93 0.02,-0.9 0.21,-3.02 0.74,-3.71 0.07,-0.09 0.05,-0.05 0.11,-0.13 0.54,-0.66 0.79,-0.91 1.78,-1.21 0.02,-0 0.03,-0.01 0.05,-0.01 0.57,-0.18 0.43,-0.12 1.08,-0.23 1.13,-0.19 2.32,-0.19 3.22,0.52 0.49,0.39 0.86,1.13 0.9,1.72l0.11 1.97c0,0.18 -0.05,0.12 -0.06,0.33 -0.01,0.36 0.08,0.53 0.04,0.84 -0.03,0.26 -0.08,0.39 -0.09,0.73 -0.02,0.57 -0.07,1.03 -0.11,1.51 -0.09,0.98 -0.16,1.89 -0.45,2.82 -0.11,0.36 -0.41,0.77 -0.63,1.04 -0.17,0.21 -0.21,0.25 -0.44,0.41 -0.82,0.54 -2.59,0.84 -3.54,0.82zm-29.37 -6.39c0.31,-1.03 0.36,-1.36 1.12,-2.32l0.29 -0.37c0.22,-0.23 0.48,-0.41 0.77,-0.57 0.8,-0.42 1.22,-0.51 2.25,-0.55 0.54,-0.02 0.81,-0.14 1.31,-0.14 1.23,0.01 2.4,-0.33 2.53,-0.03 0.06,0.14 -0.13,2.38 -0.15,2.49 -0.1,0.51 -0.31,0.42 -0.88,0.47l-2.57 0.26c-0.62,0.12 -0.45,0.22 -0.6,0.78 -0.12,0.46 -0.14,0.6 -0.12,1.04 0.71,-0.08 2.21,-0.24 2.94,-0.21 0.01,0.37 0.01,0.87 -0.05,1.34 -0.12,0.89 0.01,1 -0.4,1.08 -0.73,0.14 -2.63,0.1 -2.82,0.38 -0.06,0.09 -0.1,1.17 0.04,1.57 0.09,0.25 0.16,0.27 0.27,0.33 0.76,0.34 2.5,0.02 3.19,-0.22 0.96,-0.33 0.61,0.05 0.55,1.66 -0.01,0.4 0.02,1.25 -0.39,1.38 -0.88,0.28 -2.57,0.56 -3.47,0.54 -0.86,-0.02 -1.17,0.08 -1.84,-0.53 -0.34,-0.31 -0.37,-0.4 -0.55,-0.81 -0.11,-0.27 -0.29,-0.67 -0.36,-0.97 -0.23,-1.12 -0.17,-2.51 -0.14,-3.65 0.04,-1.16 0.26,-2.05 0.27,-2.4 0.02,-0.6 -0.01,-0.44 -0.16,-0.4 -0.74,0.23 -1.23,0.98 -1.25,1.65 -0.01,0.48 -0.15,0.85 -0.27,1.37 -0.23,1.04 -1.05,2.07 -1.07,2.19 -0.03,0.16 0.48,1.51 0.58,1.74 0.09,0.2 0.11,0.38 0.2,0.6 0.65,1.56 0.68,1.36 -1.19,1.51 -0.3,0.02 -0.65,0.12 -0.82,-0.1 -0.04,-0.05 -0.78,-2.43 -1.23,-3.2 -0.41,0.05 -0.92,0.12 -1.31,0.14l-0.11 1.46c-0.01,0.46 -0.14,0.89 -0.18,1.34 -0.09,1.19 -0.16,0.61 -1.98,0.92 -0.36,0.06 -0.52,-0.12 -0.51,-0.47l0.61 -7.56c0.04,-0.34 0.06,-1.01 0.13,-1.4l0.17 -2.9c0.99,-0.17 2.01,-0.2 2.48,-0.29 0.47,-0.09 0.77,-0.04 1.3,-0.08 0.86,-0.08 1.48,-0.12 2.1,0.45 0.23,0.21 0.39,0.46 0.58,0.73 0.14,0.19 0.14,0.17 0.24,0.41 0.23,0.56 0.13,1.09 0.46,1.38zm40.8 14.02c0.22,0.07 0.27,0.12 0.51,0.24l1.1 0.69c0.17,0.12 -0.05,0.04 0.19,0.12 0.62,-0.44 0.59,-0.62 1.7,-1.05 0.23,-0.09 0.19,-0.04 0.46,-0.1 0.47,-0.1 0.26,-0.2 0.96,-0.17 0.18,0.29 0.27,0.35 0.31,0.78l0.05 1.41c-0.01,0.27 -0.09,1.03 -0.36,1.21 -0.25,0.17 -0.67,0.16 -0.98,0.11 -0.72,-0.1 -1.99,-0.61 -1.97,-1.35l-0.06 -0c-0.02,0.69 -0.24,0.54 -1.12,0.48 -0.71,-0.05 -1.21,-0.54 -1.6,-0.99 -0.28,-0.33 -0.69,-1.33 -0.59,-1.67 0.03,-0.17 0.01,-0.09 0.06,-0.25 -0.71,-0.31 -0.7,0.04 -1.37,0.02 -0.38,-0.66 0.07,-0.77 -0.11,-1.44 -0.15,-0.54 -0.78,-0.44 -0.59,-1.05 0.74,0.02 0.82,0.17 1.39,0.35 0.43,0.13 1.16,0.1 1.62,0.16 1.29,0.18 0.66,-0.78 1.09,-1.29 0.24,-0.28 0.08,-0.26 0.06,-0.58l-0.34 0.33c-0.07,-0.24 -0.08,-0.1 -0.18,-0.29 -0.17,-0.35 -0.01,-0.34 -0.37,-0.84 -0.38,0.08 -0.04,0.17 -0.59,0.15 -0.09,-0.37 0,-0.38 -0.26,-0.66l-1.07 -1.31c-0.3,-0.45 -0.9,-0.64 -1.3,-1.02 -0.44,-0.41 -0.99,-0.31 -1.01,0.33 -0.01,-0.01 -0.02,-0.03 -0.02,-0.04l-0.13 -0.22c-0.4,-0.64 -0.51,-2.16 -0.35,-2.28 0.41,-0.32 1.81,1.14 2.15,1.36 0.17,0.11 0.07,0.04 0.2,0.16 0.31,0.3 0.25,0.27 0.39,0.61 0.08,0.18 0.18,0.18 0.37,0.3 0.01,-0.26 -0.02,-0.44 -0.21,-0.59 -0.22,-0.17 -0.05,0.12 -0.21,-0.21 -0.06,-0.14 -0.01,-0.07 -0.1,-0.24l-0.62 -0.97c-0.26,-0.34 -0.32,-0.67 -0.72,-0.89 -0.18,-0.1 -0.38,-0.14 -0.58,-0.24 -0.24,-0.13 -0.25,-0.16 -0.58,-0.24 0.2,-0.33 0.12,-0.52 0.49,-0.82 0.52,-0.43 0.74,-0.5 1.46,-0.69 0.72,-0.19 1.68,-0.5 1.2,-1.31 -0.14,-0.23 -0.14,-0.11 -0.2,-0.44 -0.11,-0.56 -0.13,-1.3 -0.31,-1.77 -0.18,-0.48 -0.42,-1.06 -0.69,-1.51l-0.59 -0.83c-0.42,-0.76 -0.82,-0.89 -1.51,-1.61 -0.23,-0.24 -0.42,-0.29 -0.7,-0.47 -0.24,-0.15 -0.4,-0.33 -0.66,-0.45 -0.16,-0.07 -0.3,-0.09 -0.47,-0.17 -0.61,-0.27 -0.89,-0.63 -1.57,-0.8 -0.58,-0.14 -0.49,-0.25 -1.29,-0.48 -0.3,-0.09 -0.55,-0.23 -0.88,-0.32 -0.39,-0.11 -0.55,-0.18 -0.92,-0.29 -1.24,-0.39 -2.7,-0.61 -3.97,-0.87 -1.07,-0.22 -2.17,-0.28 -3.26,-0.41 -0.26,-0.03 -0.31,-0.09 -0.53,-0.12 -0.18,-0.02 -0.38,-0.01 -0.57,-0.03l-1.58 -0.24c-0.35,-0.04 -0.29,0.06 -0.44,-0.13 0.34,-0.06 0.48,-0.25 0.7,-0.4 0.29,-0.19 1.24,-0.5 1.64,-0.59 1.09,-0.26 2.23,-0.99 3.36,-1.1 0.66,-0.06 0.41,-0.07 0.92,-0.2 0.3,-0.08 0.62,-0.16 0.91,-0.21 0.58,-0.11 0.86,-0.28 1.35,-0.33 0.98,-0.1 1.75,-0.33 2.46,-0.36 0.72,-0.03 1.45,-0.22 2.07,-0.15 0.29,0.04 0.66,-0.05 0.98,-0.08 0.37,-0.04 0.75,-0.01 1.14,-0 0.46,0.01 0.73,-0.06 1.11,-0.03 0.33,0.02 0.7,0.19 0.95,0.16 0.28,-0.03 0.03,-0.1 0.45,-0.05 0.21,0.03 0.3,0.04 0.55,0.05 0.27,0 0.84,0.05 1.07,0.11 0.67,0.16 1.48,0.21 2,0.34 0.34,0.08 0.58,0.21 0.89,0.26 1.53,0.28 1.78,0.56 2.67,0.78 0.37,0.09 0.58,0.13 0.92,0.23 0.42,0.13 0.91,0.25 1.23,0.47 0.33,0.23 0.85,0.31 1.17,0.52 0.3,0.2 0.32,0.22 0.7,0.36 0.88,0.32 0.73,0.45 1.45,0.78 0.64,0.29 1.24,0.64 1.77,1.02 0.14,0.1 0.21,0.12 0.35,0.2 0.15,0.09 0.2,0.14 0.34,0.22l0.97 0.69c0.38,0.35 0.9,0.58 1.27,0.94 0.36,0.35 0.8,0.42 1.74,1.53 0.25,0.3 0.59,0.5 0.82,0.81l0.76 0.86c0.28,0.38 0.72,0.76 1.01,1.14l0.61 0.98c0.08,0.11 0.15,0.17 0.25,0.29 0.58,0.67 0.42,0.69 0.82,1.3 0.16,0.24 0.2,0.46 0.34,0.7 0.27,0.45 0.38,1.01 0.66,1.43 0.3,0.44 0.53,0.97 0.61,1.47 0.03,0.2 0.06,0.19 0.15,0.37 0.18,0.4 0.19,0.82 0.32,1.21l0.32 0.72c0.12,0.33 0.12,1.27 0.3,1.72 0.16,0.42 0.2,0.17 0.19,0.77l0.26 1.75c0.25,0.85 -0.06,2.01 -0.09,2.91 -0.05,1.45 0.31,0.27 -0.18,2.72 -0.07,0.36 -0.13,0.53 -0.21,0.84 -0.06,0.22 -0.09,0.67 -0.14,0.91l-0.79 2.4c-0.09,0.36 -0.1,0.53 -0.24,0.82 -0.44,0.93 -0.48,1.21 -1.07,2.14 -0.4,0.63 -0.3,0.52 -0.54,1.06 -0.11,0.25 -0.64,0.87 -0.9,1.26 -0.11,0.16 -0.14,0.17 -0.25,0.29 -0.41,0.51 -0.68,0.93 -1.15,1.43l-0.53 0.67c-0.34,0.46 -0.95,0.93 -1.42,1.31l-2.74 2.18c-0.55,0.49 -0.41,0.28 -0.94,0.64l-1.35 0.85c-0.47,0.28 -0.9,0.6 -1.42,0.78 -0.37,0.13 -0.42,0.23 -0.72,0.38 -0.31,0.16 -0.69,0.26 -1.03,0.39l-0.52 0.28c-0.51,0.31 -1.06,0.42 -1.59,0.63l-1.67 0.56c-0.59,0.21 -0.58,0.34 -1.64,0.58 -0.59,0.13 -1.2,0.2 -1.74,0.44 -0.54,0.23 -1.25,0.29 -1.87,0.38l-0.95 0.17c-0.43,0.06 -0.48,-0.01 -1.01,0.12 -0.25,0.06 -1.85,0.03 -2.24,0.04 -0.37,0.01 -0.64,0.06 -1.11,0.03 -0.32,-0.02 -0.2,-0.02 -0.46,-0.02 -0.98,0.03 -1.84,-0.1 -2.86,-0.12 -0.81,-0.02 -1.42,-0.15 -2.02,-0.32 -0.67,-0.2 -0.33,-0.12 -0.9,-0.15 -0.25,-0.02 -0.6,-0.21 -0.85,-0.28 -0.27,-0.08 -0.68,-0.14 -0.92,-0.24l-0.39 -0.18c-0.24,-0.09 -0.22,0 -0.23,-0.25 0.22,-0.09 0.29,-0.02 0.54,-0.08 0.24,-0.06 0.16,-0.09 0.49,-0.13 0.81,-0.11 1.25,-0.19 2.08,-0.41 0.41,-0.11 0.51,-0.25 0.83,-0.35 0.16,-0.05 0.32,-0.05 0.51,-0.11l0.94 -0.3c0.47,-0.1 0.91,-0.33 1.36,-0.5 1.07,-0.41 1.59,-0.92 2.35,-1.27l1.54 -0.85c0.11,-0.08 0.23,-0.18 0.33,-0.28 0.22,-0.21 0.75,-0.69 1.02,-0.8 0.43,-0.18 0.37,-0.27 0.69,-0.53 1.73,-1.42 1.02,-1.03 0.91,-2.13 -0.04,-0.36 0.13,-0.58 0.3,-0.87 0.08,-0.14 0.15,-0.2 0.28,-0.33 0.14,-0.13 0.13,-0.17 0.24,-0.3 0.26,-0.28 0.75,-0.55 1.09,-0.74 0.6,-0.34 0.53,-0.28 1.18,-0.16l1.24 0.3c0.39,0.11 0.63,0.15 1.06,0.23 0.35,0.06 0.7,0.22 1,0.28 0.46,0.08 6.11,0.78 6.52,-0.1 -0.6,-0.01 -0.77,-0.08 -1.31,-0.04l-2.63 0.02c-0.43,-0.06 -0.84,-0.08 -1.27,-0.11 -0.52,-0.03 -2.66,-0.63 -3.31,-0.86l-1.02 -0.32c-0.49,-0.17 -0.92,-0.46 -1.38,-0.68 -0.92,-0.44 -0.74,-0.41 -0.97,-0.91 -0.16,-0.37 -0.41,-0.45 -0.32,-0.93 0.15,-0.81 0.4,-0.95 1.24,-1.35 1.47,-0.7 1,0.4 0.99,0.79 0.48,0.24 0.6,0.3 1.17,0.41 0.63,0.13 0.57,0.3 1.45,0.34 0.18,0.01 0,-0.02 0.19,0.02 0,0 0.18,0.06 0.19,0.06l1.55 0.25c0.19,-0 0.34,0.02 0.45,0.04 0.89,0.18 1.89,0.03 2.44,0.14 1.09,0.23 1.3,-0.02 2.12,-0.35 0.31,-0.13 0.54,-0.3 0.82,-0.47 0.32,-0.19 0.78,-0.45 1.03,-0.68l0.5 -0.46c0.15,-0.12 0.35,-0.33 0.48,-0.48 0.46,-0.54 1.08,-0.96 1.46,-1.55 0.49,-0.76 0.32,-0.4 0.91,-0.84l0.65 -0.56c0.36,-0.29 0.76,-0.59 0.95,-0.99l0.2 -0.34c0.22,-0.3 0.62,-0.28 0.76,-0.69 0.18,-0.52 0.15,-1 0.09,-1.54 -0.02,-0.23 -0.03,-0.66 -0.08,-0.86l-0.34 -1.47c-0.05,-0.3 -0.11,-0.46 -0.34,-0.6 -0.06,0.19 -0.14,0.33 -0.15,0.56 -0.27,-0.18 -0.5,-1.14 -0.6,-1.42 -0.16,-0.45 -0.22,-1.08 -0.45,-1.49 -0.09,-0.16 -0.11,-0.15 -0.17,-0.35 -0.06,-0.19 -0.03,-0.21 -0.14,-0.38l-1.21 -1.8c-0.11,0.18 -0.08,0.35 -0.09,0.61 -0.42,-0.11 -0.5,-0.44 -0.8,-0.66 -0.29,-0.22 -0.23,-0.48 -0.61,-0.76 -0.43,-0.32 -0.4,-0.48 -0.73,-0.72 -0.16,-0.12 -0.31,-0.17 -0.47,-0.27l-0.17 -0.14c-0.01,-0.01 -0.02,-0.02 -0.03,-0.03 -0.14,-0.09 0.05,-0.06 -0.23,-0.08 0.02,0.03 0.04,0.1 0.05,0.12 0.09,0.17 0.01,0.02 0.07,0.11 0.11,0.16 0.1,0.04 0.12,0.23 0.04,0.34 -0.77,1.15 -0.99,1.45 -0.55,0.77 -0.79,1.32 -1.57,2.26 -0.41,0.49 -0.28,0.44 -0.52,0.85 -0.14,0.23 -0.43,0.32 -0.68,0.71 -0.36,0.56 -1.13,1.43 -1.23,1.59 -0.08,0.13 -0.16,0.35 -0.26,0.45 -0.13,0.13 -0.24,0.11 -0.39,0.28l-0.25 0.29c-0.02,0.02 -0.07,0.08 -0.09,0.1 -0.1,0.13 -0.18,0.25 -0.27,0.39 -0.17,0.29 -0.09,0.17 -0.4,0.33l-3.23 1.04c-0.11,0.02 -0.43,-0.02 -0.6,-0.06 -0.39,-0.08 -0.66,-0.28 -1.18,-0.29l-0 0.11zm-63.93 -15.66c-0.2,-0.36 -0.1,-1.03 -0.37,-1.34l-0.87 0.08c-0.65,0.1 -2.4,0.19 -2.79,0.29l-0.78 0.27c-0.49,0.2 -0.6,0.48 -0.95,0.75 -0.29,0.21 -0.51,0.31 -0.79,0.55 -0.5,0.42 -0.84,1.03 -1.01,1.62 -0.36,-0 -0.18,0.07 -0.33,-0.12 -0.17,-0.23 -0.4,-1 -1.2,-1.59 -0.73,-0.53 -1.5,-0.82 -2.51,-0.76 -1.11,0.06 -1.99,0.19 -3.04,0.3 -2.27,0.24 -2.32,-0.07 -2.35,0.92 -0.38,0.11 -0.82,0.15 -1.12,0.31l-0.2 2.24c-0.02,0.24 -0,0.49 -0.02,0.73l-0.25 3.69c-0.02,0.27 -0.08,0.38 -0.09,0.67 -0.02,0.49 0.01,1.03 -0.08,1.48 -0.16,0.79 -0.21,2.05 -0.23,2.88l-0.17 2.57c0.05,0.28 0.21,0.21 0.45,0.19l1.89 -0.19c1.69,-0.16 3.5,-0.39 5.17,-0.49 1.48,-0.09 1.03,-0.37 1.83,0.66l0.63 0.74c0.55,0.58 1.04,1.21 1.47,1.86l0.83 1.18c0.47,0.7 0.6,0.65 0.36,1.54 -0.09,0.32 -0.07,0.43 -0.12,0.75l-0.76 4.45c-0.14,0.46 -0.16,0.99 -0.24,1.49 -0.04,0.26 -0.12,0.51 -0.16,0.73 -0.05,0.28 -0.06,0.45 -0.12,0.7 -0.05,0.24 -0.12,0.46 -0.15,0.73 -0.18,1.51 -0.77,2.25 0.11,2.19 0.15,-0.01 0.25,-0.03 0.46,-0.05 0.34,-0.03 0.53,-0.07 0.92,-0.09 0.81,-0.04 1.12,-0.11 1.83,-0.18 0.29,-0.03 0.68,-0.01 0.95,-0.06 0.56,-0.08 0.57,0.01 0.66,-0.32 0.15,-0.52 0.15,-1.16 0.28,-1.59 1.03,-0.18 1.09,0.23 1.21,-0.69 0.17,-1.28 0.57,-1.12 1.74,-1.99 0.2,-0.15 0.36,-0.25 0.57,-0.41 0.27,-0.21 0.69,-0.51 0.62,-0.03l-0.2 0.93c-0.09,0.4 -0.15,0.87 -0.23,1.23 -0.1,0.44 -0.13,0.87 -0.22,1.3 -0.28,1.28 -0.43,1.14 0.79,1 0.95,-0.11 2.4,-0.13 3.23,-0.24 0.63,-0.08 1.33,-0.06 1.93,-0.21 0.87,-0.21 2.26,-0.15 3.16,-0.3l2.55 -0.28c0.92,-0.05 1.71,-0.07 2.59,-0.19 1.92,-0.25 4.55,-0.37 6.25,-0.66 0.02,-0.32 0.14,-0.37 0.21,-0.62 0.05,-0.18 0.14,-0.48 0.16,-0.66 0.22,0.06 0.15,0.02 0.23,0.2l0.06 0.93c0.3,0.07 1.71,0 2.1,-0.05 1.54,-0.24 3.62,-0.29 5.15,-0.51 0.28,-0.04 0.67,-0.04 1,-0.08 0.23,-0.02 0.26,-0.06 0.47,-0.09l1.56 -0.14c0.61,-0.09 1.5,-0.07 2.11,-0.16 0.36,-0.06 0.68,-0.08 1.04,-0.09l3.04 -0.3c0.11,-0.22 -0.03,-0.52 0.32,-0.42 0.29,0.08 0.32,0.25 0.64,0.26 0.81,0.02 0.8,0.01 1.6,-0.1l2.32 -0.2c0.54,0 1.01,-0.1 1.55,-0.16 0.26,-0.03 0.53,0.01 0.79,-0.03l0.72 -0.1c1.05,-0.13 2.07,-0.21 3.08,-0.31 0.4,-0.04 1.27,0.01 1.48,-0.21 0.28,-0.28 0.22,-0.71 0.5,-1.05l0.13 0.32c0.12,1 -0.43,0.74 1.4,0.61 0.44,-0.03 1.03,-0.02 1.43,-0.08 0.43,-0.07 0.93,-0.09 1.38,-0.13 0.69,-0.06 3.84,-0.48 4.14,-0.37 0.23,0.09 0.39,0.36 0.58,0.52 1.27,1.06 0.9,0.89 0.42,1.57 -0.25,0.35 -0.32,0.61 -0.41,1.01 -0.16,0.67 0,0.49 -0.02,1.08 -0.01,0.26 -0.54,0.62 -0.74,0.83l-0.65 0.5c-0.23,0.14 -0.41,0.34 -0.63,0.52 -0.7,0.57 -1.57,0.98 -2.35,1.44 -0.67,0.4 -1.36,0.67 -2.07,1 -0.5,0.23 -1.16,0.41 -1.68,0.61 -0.14,0.05 -0.11,0.06 -0.26,0.11 -0.15,0.05 -0.16,0.02 -0.31,0.06 -0.43,0.11 -1.11,0.4 -1.81,0.54 -0.93,0.19 -1.33,0.2 -1.94,0.32 -0.43,0.08 -0.88,0.15 -1.37,0.2l-2.78 0.36c-0.44,0.03 -0.85,0.16 -1.26,0.24l-0 0.11c0.25,0.06 0.56,0.13 0.8,0.23 0.35,0.14 0.75,0.2 1.11,0.35 0.15,0.06 0.17,0.1 0.29,0.14 0.16,0.06 0.25,0.05 0.41,0.11l1.8 0.61c0.49,0.14 1,0.29 1.47,0.45l2.33 0.62c0.89,0.14 1.66,0.32 2.6,0.34 0.37,0.01 0.56,0.08 0.85,0.12 0.56,0.08 1.11,0.07 1.68,0.09 1.03,0.03 2.09,0.09 3.11,-0.04 0.59,-0.07 1.11,-0 1.71,-0.06 0.3,-0.03 0.36,-0.12 0.73,-0.14l2.32 -0.37c0.45,-0.08 0.98,-0.32 1.41,-0.39 0.31,-0.05 0.41,-0.09 0.71,-0.16l3.28 -1.06c0.32,-0.12 0.32,-0.01 0.68,-0.19l0.9 -0.45c0.16,-0.07 0.15,-0.08 0.28,-0.15l0.63 -0.23c0.28,-0.13 0.57,-0.16 0.8,-0.31 0.01,-0.01 0.03,-0.02 0.04,-0.02 0.01,-0.01 0.03,-0.02 0.04,-0.02l0.96 -0.45c0.12,-0.06 0.05,-0.03 0.15,-0.1l3.84 -2.39c0.06,-0.04 0.1,-0.07 0.14,-0.1l1.48 -1.14c0.36,-0.19 1.45,-1.27 1.66,-1.55 0.14,-0.18 0.29,-0.24 0.46,-0.39 0.18,-0.16 0.07,-0.04 0.2,-0.22 0.26,-0.34 0.53,-0.58 0.76,-0.92l1.91 -2.37c0.05,-0.09 0.06,-0.17 0.13,-0.28l0.34 -0.5c0.07,-0.1 0.1,-0.15 0.16,-0.26l0.62 -1.11c0.26,-0.42 0.59,-0.9 0.76,-1.32 0.05,-0.12 0.06,-0.21 0.1,-0.31 0.1,-0.22 0.1,-0.09 0.18,-0.3l0.28 -0.95c0.09,-0.33 0.17,-0.24 0.24,-0.58 0.11,-0.49 0.4,-1.02 0.6,-1.94 0.07,-0.3 0.17,-0.25 0.21,-0.61 0.08,-0.61 0.24,-0.99 0.29,-1.34 0.07,-0.49 0.06,-1 0.16,-1.47 0.03,-0.16 0.12,-0.56 0.12,-0.7l-0.08 -3.64c-0.15,-2.16 -0.35,-1.96 -0.61,-3.59l-0.53 -2.02c-0.29,-0.78 -1.1,-2.86 -1.52,-3.62 -0.22,-0.4 -0.46,-0.7 -0.65,-1.11 -0.2,-0.43 -0.74,-1.23 -1.04,-1.61 -0.38,-0.49 -0.68,-1.08 -1.08,-1.52 -1.06,-1.15 -1.7,-2.04 -3.02,-3.22l-0.98 -0.84c-0.63,-0.58 -1.37,-1.08 -2.08,-1.58l-0.55 -0.37c-0.22,-0.13 -0.39,-0.18 -0.59,-0.34l-0.84 -0.57 -4.65 -2.28c-0.72,-0.31 -3.51,-1.25 -4.28,-1.38 -0.74,-0.13 -1.6,-0.4 -2.39,-0.52 -0.33,-0.05 -0.57,-0.11 -0.83,-0.14 -0.61,-0.08 -1.22,-0.08 -1.79,-0.18l-3.02 -0.17c-0.97,-0.02 -2.27,0.14 -3.27,0.14 -0.5,0 -1.03,0.13 -1.52,0.18 -0.48,0.05 -0.97,0.12 -1.43,0.2l-4.11 0.88 -1.88 0.6c-0.21,0.08 -0.38,0.12 -0.61,0.19 -0.22,0.07 -0.46,0.13 -0.66,0.21 -0.4,0.16 -0.82,0.27 -1.21,0.46 -0.22,0.11 -0.35,0.16 -0.57,0.23l-5.19 2.15c-0.11,0.05 -0.17,0.09 -0.28,0.15 -0.22,0.12 -0.05,-0.04 -0.22,0.15 0.37,0.08 1.65,0.15 2.15,0.17 1.95,0.05 4.38,0.19 6.28,0.47 0.72,0.1 1.3,0.17 1.97,0.26 0.59,0.08 1.29,0.22 1.91,0.31 0.63,0.09 1.19,0.29 1.78,0.41 0.42,0.09 1.5,0.17 1.71,0.47 -0.08,0.24 -0.54,0.4 -0.78,0.56 -0.07,0.05 -0.09,0.06 -0.15,0.09l-0.57 0.47c-0.07,0.06 -0.06,0.05 -0.14,0.11 -0.01,0.01 -0.06,0.04 -0.07,0.05 -0.42,0.28 -0.46,0 -0.84,-0.26 -0.52,-0.36 -1.16,-0.67 -1.91,-0.69 -0.79,-0.02 -0.62,-0.01 -1.34,0.1 -0.27,0.04 -0.46,0.01 -0.75,0.01 -0.23,0.01 -0.46,0.06 -0.65,0.1 -1.13,0.23 -2.35,0.11 -3.47,0.31 -0.11,0.5 0.05,0.79 -0.49,0.88 -0.66,-0.23 -0.01,-0.78 -0.5,-0.8 -0.41,-0.01 -0.94,0.09 -1.3,0.15l-2.3 0.22c-1.18,0.13 -1.4,0.89 -1.92,1.14 -0.96,0.47 -0.97,0.95 -1.33,1.39 -0.09,0.11 -0.03,0.08 -0.18,0.12 -0.08,-0.15 -0.07,0.04 -0.06,-0.17l0.09 -0.67c0.05,-1.61 0.32,-1.53 -0.74,-1.48 -1.52,0.08 -2.99,0.29 -4.48,0.43 -0.58,0.05 -1.18,0.05 -1.72,0.22 -1.89,0.6 -1.33,0.71 -2.4,1.45 -0.64,0.44 -1.01,-0.88 -2.66,-0.92 -1.11,-0.03 -2.51,0.14 -3.62,0.28 -1.49,0.19 -4.82,0.5 -6.26,0.54 -0.42,0.01 -1.05,0.14 -1.45,0.24 -0.4,0.09 -0.8,0.31 -1.12,0.48l-0.12 -0.23c-0.07,-0.12 0.02,-0.16 -0.19,-0.17 -0.93,-0.02 -2.96,0.26 -3.98,0.36 -0.98,0.1 -2.16,0.11 -3.04,0.53 -1.21,0.58 -1.59,1.26 -2.06,1.35z"/>
   <path class="fil1" d="M100.68 23.24c0,-0.08 0.08,-0.08 0.13,-0.11 0.07,0.3 0.26,0.33 0.41,0.59 0.09,0.15 0.07,0.2 0.17,0.35 0.09,0.14 0.13,0.14 0.23,0.31 0.13,0.24 0.15,0.45 0.28,0.7l0.7 1.34c0.23,0.48 -0.06,0.37 0.39,1.1l0.51 1.06c0.31,0.78 0.5,1.55 0.52,2.42 0.01,0.38 0.02,1.51 -0.14,1.78 -0.1,0.16 -0.13,0.14 -0.23,0.31l-0.34 0.73c-0.14,0.17 -0.16,0.08 -0.32,0.23 -0.15,0.14 -0.06,0.14 -0.27,0.28 -0.15,0.1 -0.18,0.11 -0.46,0.1 0.06,-0.45 0.68,-1.07 0.76,-1.56 0.07,-0.4 0.06,-0.56 0.21,-0.9 0.27,-0.62 0.23,-1.26 -0.02,-1.91 -0.3,-0.79 -0.11,-0.88 -0.3,-1.28 -0.19,-0.41 -0.37,-0.87 -0.36,-1.34 -0.53,-0.26 -0.22,-0.24 -0.53,-0.99l-0.45 -1.05c-0.2,-0.32 -0.22,-0.5 -0.32,-0.78l-0.24 -0.51c-0.09,-0.18 -0.36,-0.59 -0.35,-0.86zm-8.97 -6.47c0.18,0.7 0.52,3.09 0.51,3.57 -0.01,0.33 0.02,0.04 -0.09,0.2l-0.7 1.27c-0.17,0.29 -0.13,0.09 -0.3,0.53 -0.07,0.17 -0.07,0.16 -0.14,0.28 -0.32,0.57 -1.27,2.11 -1.73,2.58 -0.26,0.27 -2.08,1.2 -2.62,1.31 -0.75,0.16 -0.38,0.19 -0.91,0.38 -0.52,0.18 -0.84,0.24 -1.17,-0.01 -0.28,-0.21 -0.2,-0.08 -0.44,-0.19 0.02,-0.17 0.07,-0.2 0.08,-0.39 0.02,-0.55 -0.08,-0.81 0.13,-0.97 0.27,-0.21 0.19,0.04 0.37,-0.36l0.21 -0.5c0.07,-0.23 0.07,-0.32 0.08,-0.62l0.07 0c-0.01,0.29 0,0.89 0.1,1.07 0.21,-0.06 0.09,0.02 0.22,-0.21 0.34,-0.6 0.36,-0.52 0.74,-1.35 0.1,-0.22 0.2,-0.33 0.28,-0.56l0.47 -2c0.12,-0.73 0.1,-1.14 0.13,-1.9 0.03,-0.78 -0.18,-0.87 -0.2,-1.85 -0.02,-0.95 -0.58,-0.96 -0.32,-1.56 0.14,-0.31 0.24,-0.46 0.51,-0.63 0.31,-0.2 0.77,-0.44 1.16,-0.51 0.72,-0.12 0.62,0.02 0.76,0.11 0.01,0.01 0.03,0.02 0.04,0.02l0.9 0.36c0.34,0.16 0.82,0.36 1.08,0.6 0.29,0.26 0.71,0.94 0.8,1.31zm-6.48 5.52c0.02,-0.59 -0.06,-0.96 0.03,-1.47 0.22,-1.19 -0.03,-0.77 0.04,-2.12 0.01,-0.18 -0.01,-0.45 -0.07,-0.66 -0.05,-0.19 -0.06,-0.47 -0.1,-0.68 -0.04,-0.25 -0.11,-0.38 -0.16,-0.58 -0.07,-0.28 -0.03,-0.42 -0.07,-0.7 -0.05,-0.35 -0.34,-0.76 -0.34,-1.25 0,-0.31 -0.07,-0.38 -0.05,-0.67 0.05,-0.67 0.39,-0.6 0.73,-0.96 0.2,-0.22 0.23,-0.23 0.5,-0.35 0.17,-0.08 0.36,-0.22 0.59,-0.21 1.42,0.04 0.99,0.07 2.29,0.65 0.24,0.11 0.3,0.12 0.36,0.37 -0.1,0.12 -0.19,0.14 -0.33,0.22 -0.13,-0.23 -0.11,-0.27 -0.44,-0.35 -0.93,-0.22 -0.19,-0.17 -1.44,-0.2l-1.12 0.25c-0.81,0.36 -0.39,1.47 -0.26,2.12 0.08,0.4 0.07,0.83 0.05,1.19l0.35 2.25c-0.05,1.46 -0.04,2.9 -0.47,4.3 -0.33,-0.2 -0.12,-0.39 -0.09,-1.12zm-3.54 6.89c0.18,-0.11 0.03,-0.1 0.3,-0.02 0.11,0.03 0.23,0.08 0.35,0.11 0.29,0.06 0.54,0.17 0.76,0.2l0 -0.11c0.53,0.01 0.8,0.21 1.18,0.29 0.17,0.04 0.49,0.08 0.6,0.06l3.23 -1.04c0.31,-0.16 0.23,-0.04 0.4,-0.33 0.08,-0.14 0.17,-0.27 0.27,-0.39 0.01,-0.01 0.07,-0.08 0.09,-0.1l0.25 -0.29c0.16,-0.17 0.26,-0.15 0.39,-0.28 0.1,-0.1 0.18,-0.32 0.26,-0.45 0.1,-0.16 0.87,-1.03 1.23,-1.59 0.25,-0.39 0.54,-0.48 0.68,-0.71 0.25,-0.41 0.11,-0.36 0.52,-0.85 0.78,-0.94 1.02,-1.49 1.57,-2.26 0.22,-0.31 1.03,-1.11 0.99,-1.45 -0.02,-0.19 -0.02,-0.07 -0.12,-0.23 -0.06,-0.09 0.02,0.06 -0.07,-0.11 -0.01,-0.02 -0.03,-0.09 -0.05,-0.12 0.29,0.03 0.1,-0.01 0.23,0.08 0.01,0.01 0.02,0.02 0.03,0.03l0.17 0.14c0.16,0.1 0.31,0.16 0.47,0.27 0.33,0.24 0.3,0.4 0.73,0.72 0.38,0.28 0.32,0.55 0.61,0.76 0.3,0.22 0.39,0.55 0.8,0.66 0.01,-0.26 -0.02,-0.43 0.09,-0.61l1.21 1.8c0.1,0.17 0.08,0.19 0.14,0.38 0.06,0.2 0.09,0.19 0.17,0.35 0.23,0.41 0.29,1.04 0.45,1.49 0.1,0.28 0.33,1.24 0.6,1.42 0.01,-0.23 0.09,-0.37 0.15,-0.56 0.23,0.14 0.29,0.29 0.34,0.6l0.34 1.47c0.05,0.21 0.06,0.64 0.08,0.86 0.05,0.53 0.08,1.02 -0.09,1.54 -0.14,0.41 -0.54,0.39 -0.76,0.69l-0.2 0.34c-0.19,0.4 -0.58,0.69 -0.95,0.99l-0.65 0.56c-0.59,0.44 -0.42,0.08 -0.91,0.84 -0.38,0.59 -1,1.01 -1.46,1.55 -0.13,0.15 -0.33,0.36 -0.48,0.48l-0.5 0.46c-0.25,0.23 -0.71,0.49 -1.03,0.68 -0.28,0.17 -0.51,0.34 -0.82,0.47 -0.82,0.33 -1.03,0.58 -2.12,0.35 -0.55,-0.12 -1.55,0.04 -2.44,-0.14 -0.11,-0.02 -0.26,-0.04 -0.45,-0.04l-1.55 -0.25c-0.01,-0 -0.19,-0.06 -0.19,-0.06 -0.19,-0.04 -0.01,-0.01 -0.19,-0.02 -0.88,-0.04 -0.83,-0.21 -1.45,-0.34 -0.57,-0.11 -0.69,-0.18 -1.17,-0.41 0.01,-0.39 0.47,-1.49 -0.99,-0.79 -0.84,0.4 -1.09,0.54 -1.24,1.35 -0.09,0.48 0.15,0.56 0.32,0.93 0.22,0.5 0.05,0.46 0.97,0.91 0.46,0.22 0.89,0.51 1.38,0.68l1.02 0.32c0.65,0.23 2.8,0.83 3.31,0.86 0.44,0.03 0.85,0.05 1.27,0.11l2.63 -0.02c0.54,-0.04 0.71,0.03 1.31,0.04 -0.41,0.89 -6.06,0.19 -6.52,0.1 -0.31,-0.06 -0.66,-0.21 -1,-0.28 -0.44,-0.08 -0.67,-0.12 -1.06,-0.23l-1.24 -0.3c-0.65,-0.12 -0.58,-0.18 -1.18,0.16 -0.34,0.19 -0.83,0.46 -1.09,0.74 -0.11,0.13 -0.11,0.16 -0.24,0.3 -0.12,0.12 -0.2,0.18 -0.28,0.33 -0.16,0.3 -0.33,0.51 -0.3,0.87 0.11,1.1 0.83,0.71 -0.91,2.13 -0.31,0.26 -0.26,0.35 -0.69,0.53 -0.28,0.11 -0.81,0.59 -1.02,0.8 -0.1,0.1 -0.22,0.19 -0.33,0.28l-1.54 0.85c-0.76,0.35 -1.27,0.86 -2.35,1.27 -0.44,0.17 -0.89,0.4 -1.36,0.5l-0.94 0.3c-0.19,0.06 -0.35,0.07 -0.51,0.11 -0.31,0.09 -0.41,0.23 -0.83,0.35 -0.84,0.22 -1.27,0.3 -2.08,0.41 -0.33,0.05 -0.25,0.07 -0.49,0.13 -0.25,0.06 -0.32,-0 -0.54,0.08 0.02,0.25 -0,0.16 0.23,0.25l0.39 0.18c0.24,0.1 0.65,0.16 0.92,0.24 0.25,0.08 0.61,0.27 0.85,0.28 0.56,0.04 0.23,-0.04 0.9,0.15 0.6,0.18 1.21,0.31 2.02,0.32 1.02,0.02 1.88,0.14 2.86,0.12 0.26,-0.01 0.14,-0 0.46,0.02 0.47,0.03 0.74,-0.02 1.11,-0.03 0.39,-0.01 1.99,0.02 2.24,-0.04 0.53,-0.12 0.58,-0.06 1.01,-0.12l0.95 -0.17c0.62,-0.09 1.33,-0.15 1.87,-0.38 0.54,-0.24 1.15,-0.3 1.74,-0.44 1.06,-0.24 1.05,-0.38 1.64,-0.58l1.67 -0.56c0.53,-0.21 1.08,-0.33 1.59,-0.63l0.52 -0.28c0.34,-0.13 0.72,-0.22 1.03,-0.39 0.3,-0.16 0.35,-0.26 0.72,-0.38 0.53,-0.18 0.96,-0.51 1.42,-0.78l1.35 -0.85c0.53,-0.36 0.39,-0.15 0.94,-0.64l2.74 -2.18c0.47,-0.38 1.08,-0.85 1.42,-1.31l0.53 -0.67c0.47,-0.51 0.74,-0.92 1.15,-1.43 0.1,-0.13 0.14,-0.13 0.25,-0.29 0.26,-0.39 0.79,-1.01 0.9,-1.26 0.24,-0.55 0.14,-0.44 0.54,-1.06 0.59,-0.93 0.63,-1.21 1.07,-2.14 0.14,-0.29 0.15,-0.46 0.24,-0.82l0.79 -2.4c0.04,-0.25 0.08,-0.7 0.14,-0.91 0.08,-0.32 0.14,-0.49 0.21,-0.84 0.49,-2.44 0.13,-1.27 0.18,-2.72 0.03,-0.89 0.34,-2.06 0.09,-2.91l-0.26 -1.75c0.01,-0.6 -0.03,-0.36 -0.19,-0.77 -0.18,-0.45 -0.18,-1.39 -0.3,-1.72l-0.32 -0.72c-0.13,-0.39 -0.14,-0.81 -0.32,-1.21 -0.08,-0.18 -0.12,-0.17 -0.15,-0.37 -0.08,-0.5 -0.32,-1.03 -0.61,-1.47 -0.28,-0.42 -0.39,-0.98 -0.66,-1.43 -0.15,-0.24 -0.19,-0.46 -0.34,-0.7 -0.4,-0.61 -0.24,-0.63 -0.82,-1.3 -0.1,-0.12 -0.17,-0.17 -0.25,-0.29l-0.61 -0.98c-0.29,-0.39 -0.73,-0.77 -1.01,-1.14l-0.76 -0.86c-0.23,-0.31 -0.57,-0.51 -0.82,-0.81 -0.95,-1.11 -1.38,-1.18 -1.74,-1.53 -0.37,-0.36 -0.88,-0.59 -1.27,-0.94l-0.97 -0.69c-0.13,-0.08 -0.19,-0.13 -0.34,-0.22 -0.14,-0.09 -0.22,-0.11 -0.35,-0.2 -0.53,-0.38 -1.13,-0.73 -1.77,-1.02 -0.72,-0.33 -0.57,-0.46 -1.45,-0.78 -0.38,-0.14 -0.41,-0.16 -0.7,-0.36 -0.32,-0.21 -0.84,-0.29 -1.17,-0.52 -0.32,-0.22 -0.82,-0.34 -1.23,-0.47 -0.34,-0.1 -0.55,-0.15 -0.92,-0.23 -0.89,-0.22 -1.14,-0.5 -2.67,-0.78 -0.31,-0.06 -0.54,-0.18 -0.89,-0.26 -0.53,-0.12 -1.34,-0.18 -2,-0.34 -0.23,-0.05 -0.81,-0.1 -1.07,-0.11 -0.25,-0 -0.34,-0.02 -0.55,-0.05 -0.42,-0.05 -0.17,0.01 -0.45,0.05 -0.25,0.03 -0.62,-0.14 -0.95,-0.16 -0.38,-0.02 -0.65,0.05 -1.11,0.03 -0.39,-0.01 -0.77,-0.03 -1.14,0 -0.32,0.03 -0.69,0.12 -0.98,0.08 -0.62,-0.07 -1.35,0.11 -2.07,0.15 -0.71,0.03 -1.48,0.26 -2.46,0.36 -0.49,0.05 -0.77,0.22 -1.35,0.33 -0.29,0.05 -0.61,0.14 -0.91,0.21 -0.5,0.13 -0.25,0.14 -0.92,0.2 -1.13,0.11 -2.27,0.84 -3.36,1.1 -0.39,0.09 -1.35,0.4 -1.64,0.59 -0.22,0.15 -0.36,0.34 -0.7,0.4 0.15,0.19 0.09,0.09 0.44,0.13l1.58 0.24c0.19,0.02 0.39,0 0.57,0.03 0.22,0.03 0.26,0.08 0.53,0.12 1.08,0.14 2.19,0.2 3.26,0.41 1.27,0.26 2.73,0.48 3.97,0.87 0.36,0.11 0.53,0.19 0.92,0.29 0.33,0.09 0.58,0.24 0.88,0.32 0.8,0.23 0.72,0.34 1.29,0.48 0.68,0.17 0.96,0.53 1.57,0.8 0.17,0.07 0.31,0.09 0.47,0.17 0.25,0.12 0.42,0.3 0.66,0.45 0.28,0.18 0.47,0.23 0.7,0.47 0.69,0.72 1.09,0.85 1.51,1.61l0.59 0.83c0.27,0.45 0.5,1.03 0.69,1.51 0.18,0.47 0.2,1.21 0.31,1.77 0.06,0.33 0.06,0.21 0.2,0.44 0.48,0.81 -0.47,1.13 -1.2,1.31 -0.72,0.19 -0.95,0.26 -1.46,0.69 -0.37,0.3 -0.29,0.5 -0.49,0.82 0.34,0.08 0.34,0.11 0.58,0.24 0.19,0.1 0.4,0.14 0.58,0.24 0.4,0.22 0.45,0.55 0.72,0.89l0.62 0.97c0.1,0.17 0.04,0.1 0.1,0.24 0.16,0.33 -0.02,0.04 0.21,0.21 0.19,0.15 0.22,0.33 0.21,0.59 -0.19,-0.12 -0.29,-0.12 -0.37,-0.3 -0.15,-0.34 -0.08,-0.3 -0.39,-0.61 -0.13,-0.13 -0.03,-0.05 -0.2,-0.16 -0.35,-0.22 -1.74,-1.68 -2.15,-1.36 -0.16,0.12 -0.05,1.64 0.35,2.28l0.13 0.22c0,0.01 0.01,0.03 0.02,0.04 0.02,-0.63 0.57,-0.74 1.01,-0.33 0.4,0.37 1,0.57 1.3,1.02l1.07 1.31c0.26,0.28 0.17,0.29 0.26,0.66 0.55,0.01 0.21,-0.08 0.59,-0.15 0.37,0.5 0.2,0.49 0.37,0.84 0.1,0.2 0.11,0.06 0.18,0.29l0.34 -0.33c0.02,0.31 0.17,0.3 -0.06,0.58 -0.43,0.5 0.21,1.47 -1.09,1.29 -0.46,-0.06 -1.19,-0.04 -1.62,-0.16 -0.57,-0.17 -0.65,-0.33 -1.39,-0.35 -0.19,0.61 0.45,0.51 0.59,1.05 0.18,0.67 -0.27,0.77 0.11,1.44 0.67,0.02 0.66,-0.34 1.37,-0.02 -0.05,0.16 -0.03,0.08 -0.06,0.25z"/>
   <path class="fil2" d="M37.49 14.94c1.01,-0.05 1.73,-0.45 2.04,0.36 0.27,0.7 0.21,0.8 0.19,1.48l-0.41 1.36c-0.03,0.06 -0.05,0.1 -0.08,0.15 -0.17,0.31 -0.26,0.28 -0.64,0.4 -0.15,0.05 -0.76,0.11 -0.96,0.11 -0.69,-0.02 -0.46,-0.14 -0.36,-1.19l0.22 -2.68zm4.81 0.51c-0.33,-0.28 -0.22,-0.82 -0.46,-1.38 -0.1,-0.24 -0.1,-0.22 -0.24,-0.41 -0.19,-0.26 -0.35,-0.52 -0.58,-0.73 -0.62,-0.57 -1.24,-0.52 -2.1,-0.45 -0.53,0.05 -0.83,-0 -1.3,0.08 -0.46,0.08 -1.48,0.11 -2.48,0.29l-0.17 2.9c-0.07,0.4 -0.09,1.07 -0.13,1.4l-0.61 7.56c-0.01,0.35 0.15,0.53 0.51,0.47 1.82,-0.3 1.9,0.27 1.98,-0.92 0.03,-0.45 0.16,-0.88 0.18,-1.34l0.11 -1.46c0.39,-0.02 0.9,-0.09 1.31,-0.14 0.45,0.78 1.19,3.15 1.23,3.2 0.17,0.22 0.52,0.12 0.82,0.1 1.87,-0.14 1.84,0.06 1.19,-1.51 -0.09,-0.22 -0.12,-0.4 -0.2,-0.6 -0.1,-0.23 -0.61,-1.58 -0.58,-1.74 0.02,-0.12 0.85,-1.15 1.07,-2.19 0.11,-0.52 0.26,-0.89 0.27,-1.37 0.01,-0.67 0.51,-1.42 1.25,-1.65 0.15,-0.05 0.18,-0.21 0.16,0.4 -0.01,0.35 -0.24,1.24 -0.27,2.4 -0.04,1.14 -0.09,2.53 0.14,3.65 0.06,0.3 0.24,0.7 0.36,0.97 0.18,0.42 0.21,0.5 0.55,0.81 0.66,0.61 0.98,0.51 1.84,0.53 0.89,0.02 2.58,-0.26 3.47,-0.54 0.41,-0.13 0.37,-0.98 0.39,-1.38 0.05,-1.61 0.41,-1.99 -0.55,-1.66 -0.69,0.23 -2.43,0.56 -3.19,0.22 -0.12,-0.05 -0.18,-0.07 -0.27,-0.33 -0.14,-0.4 -0.1,-1.48 -0.04,-1.57 0.19,-0.28 2.08,-0.24 2.82,-0.38 0.42,-0.08 0.29,-0.18 0.4,-1.08 0.06,-0.47 0.06,-0.97 0.05,-1.34 -0.73,-0.03 -2.24,0.13 -2.94,0.21 -0.01,-0.45 0,-0.59 0.12,-1.04 0.15,-0.56 -0.02,-0.66 0.6,-0.78l2.57 -0.26c0.57,-0.05 0.78,0.04 0.88,-0.47 0.02,-0.11 0.22,-2.35 0.15,-2.49 -0.13,-0.29 -1.31,0.04 -2.53,0.03 -0.49,-0 -0.77,0.12 -1.31,0.14 -1.03,0.04 -1.45,0.13 -2.25,0.55 -0.29,0.15 -0.56,0.33 -0.77,0.57l-0.29 0.37c-0.77,0.96 -0.81,1.29 -1.12,2.32z"/>
   <path class="fil3" d="M62.67 27.57c-0.79,-0.02 -3.48,0.18 -3.93,0.35 0.01,0.22 0.08,0.29 0.2,0.44 0.12,0.14 0.8,1.03 0.79,1.16l-0.41 2.57c-0.13,0.44 -0.11,0.75 -0.18,1.22 -0.06,0.39 -0.18,0.77 -0.25,1.15 -0.1,0.48 -0.02,0.41 -0.2,1.2l-0.64 3.63c-0.01,0.34 -0.01,0.77 0.51,1 0.16,0.07 1.65,-0.12 1.83,-0.15 1.14,-0.19 2.78,-0.21 3.85,-0.36 0.85,-0.12 0.6,0.06 0.83,-0.8 0.23,-0.85 0.07,-1.27 0.3,-2.09 0.08,-0.26 0.13,-0.34 0.15,-0.67 0.04,-0.65 0.17,-0.89 0.24,-1.34l0.76 -4.39c0.05,-0.17 0.07,-0.15 0.1,-0.31l0.42 -2.74c0.05,-0.62 -0.59,-0.27 -1.09,-0.24 -0.3,0.01 -0.53,0.03 -0.82,0.06 -1.02,0.09 -0.62,0.2 -0.97,1.49 -0.16,0.61 -0.16,1.56 -0.29,2.04 -0.2,0.72 -0.39,2.32 -0.63,3.35 -0.1,0.42 -0.1,0.97 -0.2,1.37 -0.43,1.74 0.01,1.96 -1.27,2.01 -0.7,0.03 -0.87,0.24 -0.72,-0.59 0.08,-0.45 0.23,-0.78 0.26,-1.33l0.26 -1.32c0.2,-1.16 1.22,-6.3 1.12,-6.71z"/>
   <path class="fil2" d="M71.51 14.78c0.02,-0.75 0.2,-1.41 0.26,-2.13 0.12,-1.31 2.26,-1.37 2.48,-0.54 0.17,0.62 -0.08,2.92 -0.1,3.74 -0.01,0.53 -0.15,0.75 -0.17,1.17 -0.04,0.62 0.01,1.52 -0.51,1.9l-0.19 0.12c-1.01,0.48 -1.92,0.16 -1.89,-0.57l0.12 -3.7zm0.16 7.07c0.96,0.02 2.72,-0.28 3.54,-0.82 0.23,-0.15 0.27,-0.2 0.44,-0.41 0.22,-0.27 0.52,-0.68 0.63,-1.04 0.28,-0.93 0.35,-1.85 0.45,-2.82 0.05,-0.49 0.1,-0.94 0.11,-1.51 0.01,-0.34 0.05,-0.47 0.09,-0.73 0.04,-0.31 -0.05,-0.48 -0.04,-0.84 0.01,-0.21 0.06,-0.15 0.06,-0.33l-0.11 -1.97c-0.04,-0.59 -0.41,-1.33 -0.9,-1.72 -0.9,-0.71 -2.09,-0.72 -3.22,-0.52 -0.65,0.11 -0.51,0.05 -1.08,0.23 -0.02,0 -0.03,0.01 -0.05,0.01 -0.98,0.3 -1.23,0.55 -1.78,1.21 -0.06,0.08 -0.04,0.04 -0.11,0.13 -0.53,0.7 -0.71,2.81 -0.74,3.71 -0.02,0.76 -0.19,0.92 -0.18,1.93 0.01,0.43 -0.06,1.53 -0.01,2.04 0.06,0.6 0.14,1.58 0.45,2.09 0.5,0.85 1.29,1.33 2.43,1.36z"/>
   <path class="fil2" d="M63.29 12.56c0.39,-0.21 0.15,-0.15 0.91,-0.21 0.67,-0.05 1.04,-0.22 1.36,0.12 0.06,0.07 0.17,0.22 0.2,0.27 0.32,0.65 0.12,2.49 0.1,3.36l-0.38 2.88c-0.18,0.55 -0.32,0.63 -0.92,0.78 -0.12,0.03 -1.48,0.15 -1.56,0.08 -0.15,-0.28 0.27,-6.34 0.3,-7.28zm-2.35 -2.08l-0.29 4.98c-0.01,0.34 -0.06,0.46 -0.09,0.73 -0.08,0.87 -0.03,2.01 -0.17,2.85 -0.09,0.55 -0.11,1.5 -0.13,2.14 -0.02,0.62 -0.2,0.93 -0.05,1.57 0.38,0.09 3.36,-0.3 4.1,-0.37l1.72 -0.17c0.72,-0.14 1.1,-0.98 1.31,-1.35 0.24,-0.41 0.34,-0.78 0.51,-1.27l0.41 -3.09c0.04,-1.2 0.24,-3.62 -0.2,-4.74 -0.05,-0.14 -0.06,-0.2 -0.12,-0.34 -0.35,-0.77 -1.11,-1.51 -2.2,-1.54 -0.3,-0.01 -0.89,0.1 -1.17,0.15 -0.39,0.06 -0.85,0.04 -1.28,0.11 -0.44,0.07 -0.73,0.08 -1.21,0.11 -0.17,0.01 -0.4,0.06 -0.6,0.08 -0.33,0.04 -0.31,0.05 -0.52,0.16z"/>
   <path class="fil3" d="M36.72 42.39c0.17,0 0.41,-0.06 0.61,-0.08 0.23,-0.02 0.44,-0.01 0.67,-0.03l1.28 -0.16c0.17,-0.27 0.93,-2.49 0.94,-2.89 0,-0.14 -0.28,-0.49 -0.38,-0.62l-0.45 -0.62c-0.21,-0.2 -0.26,-0.13 -0.23,-0.47 2.02,0.05 1.76,-0.29 2.17,-1.55l0.42 -1.35c0.07,-0.19 0.18,-0.45 0.24,-0.65 0.13,-0.47 -0.02,-0.54 0.25,-0.7 0.13,0.26 0.05,2.49 0.03,3.03 -0.05,1.46 0.43,1.25 -1,1.4 -0.35,0.04 -0.99,0.06 -1.24,0.2 -0,0.25 1.18,1.53 1.35,1.8 0.59,0.91 0.74,0.61 0.78,1.6 0.02,0.45 -0.17,0.5 0.51,0.51l1.19 -0.07c0.4,-0.07 0.75,-0.09 1.1,-0.15 0.03,-0.25 0.07,-0.14 0.08,-0.56 0.01,-0.18 -0.04,-0.14 -0.04,-0.29 0,-0.19 0.04,-0.12 0.05,-0.33 0.01,-0.22 -0.04,-0.44 -0.03,-0.73 0.02,-0.48 0.07,-1.1 0.05,-1.57 -0.03,-0.51 -0.03,-0.96 -0.01,-1.52l-0.02 -1.51c0.03,-1.04 0.04,-2.02 0.04,-3.03 -0,-0.29 -0.06,-0.38 -0.05,-0.73l0.05 -1.57c0.04,-0.91 -0.32,-0.49 -2.34,-0.39 -0.28,0.01 -0.36,0.07 -0.66,0.09 -1.95,0.1 -1.17,-0.08 -1.99,2.06l-0.38 0.98c-0.07,0.19 -0.07,0.32 -0.14,0.51 -0.09,0.23 -0.13,0.23 -0.2,0.51l-0.66 1.99c-0.07,0.19 -0.09,0.3 -0.15,0.5l-0.7 1.96c-0.26,0.68 -0.76,2.48 -0.99,3.02 -0.07,0.16 -0.1,0.33 -0.18,0.53 -0.09,0.25 -0.46,0.85 -0,0.86z"/>
   <path class="fil3" d="M66.14 39.31c-0.01,0.27 0.04,0.23 0.64,0.24l1.28 -0.16c0.63,-0.07 0.87,0.18 1.2,-0.87 0.06,-0.19 0.08,-0.38 0.14,-0.57l0.35 -1.01c0.04,-0.1 0.13,-0.42 0.13,-0.5 -0.01,-0.22 -0.13,-0.26 -0.26,-0.43 -0.25,-0.32 -0.39,-0.69 -0.66,-1 -0.01,-0.02 -0.16,-0.17 -0.17,-0.18 -0.04,-0.08 -0.11,0.04 0,-0.06l1.13 -0.17c0.25,-0.03 0.45,-0.05 0.67,-0.08 0.06,-0.23 0.03,-0.28 0.14,-0.51 0.09,-0.19 0.13,-0.29 0.17,-0.48 0.05,-0.26 0.06,-0.28 0.14,-0.5 0.07,-0.2 0.08,-0.36 0.15,-0.56 0.1,-0.29 0.51,-1.62 0.63,-1.75 0.13,-0.13 0.07,0.17 0.14,-0.15 0.1,1.62 0.02,2.47 -0.03,4.18 -0.48,0.08 -1.72,0.24 -2.17,0.23 -0.05,0.51 0.15,0.4 0.54,0.98l0.47 0.6c0.01,0.01 0.02,0.02 0.03,0.03l0.05 0.07c0.01,0.01 0.02,0.02 0.03,0.03 0.01,0.01 0.02,0.02 0.03,0.03 0.05,0.07 0.05,0.07 0.1,0.14 0.12,0.14 0.24,0.26 0.36,0.42l0.34 0.43c0.11,0.15 0.12,0.36 0.11,0.62 -0.02,0.44 0.03,0.37 0.11,0.67l2.34 -0.18c0.74,-0.12 0.42,-0.42 0.45,-1.38 0.05,-1.53 -0.03,-2.99 0.02,-4.54 0.01,-0.26 0.02,-0.52 0.03,-0.79l-0.02 -1.34c-0.02,-0.6 0.1,-1.35 0.02,-1.98 -0.07,-0.63 0.22,-2.39 -0.21,-2.4 -0.44,-0.01 -3.84,0.28 -4.03,0.37 -0.24,0.11 -0.47,1.11 -0.58,1.37l-3.6 10.69c-0.06,0.18 -0.17,0.33 -0.17,0.48z"/>
   <path class="fil2" d="M4.3 21.52c0.01,-0.19 0.06,-0.22 0.08,-0.44 0.04,-0.47 -0.01,-0.93 0.09,-1.42 0.05,-0.26 0.05,-0.63 0.05,-0.93 0.02,-0.85 -0.05,-0.65 0.83,-0.75 0.71,-0.08 0.61,-0.25 0.99,0.09 0.62,0.54 0.62,1.9 0.28,2.63 -0.28,0.6 -0.25,1.14 -1.22,1.2 -0.38,0.03 -0.83,0.17 -1.08,0.08 -0.06,-0.16 -0.04,-0.21 -0.03,-0.45zm-2.96 6.6c-0.01,0.38 0.97,0.2 1.41,0.13 1.25,-0.19 1.02,0.28 1.2,-1.33 0.02,-0.18 -0.02,-0.43 0.03,-0.67 0.07,-0.32 0.04,-0.81 0.06,-1.16 0,-0.04 0.01,-0.13 0.01,-0.16 0.06,-0.32 0.15,-0.38 0.66,-0.38 0.26,-0 0.57,-0.05 0.72,0.01 0.23,0.1 0.19,0.28 0.25,0.51 0.09,0.38 0.92,2.48 1.15,2.78 0.19,0 1.12,-0.16 1.71,-0.18 0.35,-0.01 0.27,0 0.52,-0.1 0,-0.39 -0.29,-0.96 -0.44,-1.33l-0.28 -0.92c-0.05,-0.16 -0.11,-0.3 -0.17,-0.46 -0.22,-0.66 -0.52,-0.75 -0.08,-1.28 0.3,-0.36 0.26,-0.39 0.45,-0.74 0.17,-0.31 0.68,-2.17 0.69,-2.43 0.05,-1.62 0.15,-1.36 -0.2,-2.79 -0.28,-1.14 -1.04,-2.05 -2.52,-2.05l-2.89 0.26c-1.68,0.16 -1.43,-0.08 -1.48,1.54 -0.03,1.13 -0.29,2.89 -0.33,4.03l-0.11 1.34c-0.07,2.01 -0.31,3.46 -0.37,5.37z"/>
   <path class="fil3" d="M16.4 41.33c-0.01,-0.29 0.04,-0.21 0.07,-0.45 0.15,0.03 0.19,0.06 0.39,0.07 0.08,-0.22 0.02,-0.16 0.33,-0.16 -0.21,0.24 -0.37,0.1 -0.47,0.53l1.29 -0.93c0.01,-0.01 0.03,-0.02 0.04,-0.02l0.11 -0.07c0.01,-0.01 0.06,-0.04 0.07,-0.05l1.4 -0.98c1.15,-0.87 0.66,-0.18 1.04,-2.11 0.04,-0.21 0.04,-0.45 0.09,-0.67l0.43 -2.43c0.13,-0.64 0.53,-1.8 0.12,-2.31 -0.32,-0.39 -0.61,-0.28 -1.16,-0.19 -0.78,0.12 -2.04,0.17 -2.84,0.25 -0.18,0.02 -0.42,0.09 -0.63,0.12 -0.26,0.03 -0.52,0.01 -0.79,0.03 -0.54,0.06 -2.43,0.24 -2.79,0.35 0.02,0.39 1.01,1.39 0.96,1.79 -0.03,0.28 -0.1,0.54 -0.14,0.86 -0.02,0.25 -0.1,0.55 -0.15,0.78 -0.07,0.3 -0.05,0.5 -0.1,0.83 -0.08,0.49 -0.29,1.11 -0.3,1.63l-1.13 6.47c0.6,0.14 0.73,0.05 1.25,-0.02 1.53,-0.2 1.35,0.27 1.61,-1.42l0.47 -2.69c0.09,-0.33 -0.05,-0.9 -0.17,-1.21 -0.4,-0.95 0.56,-0.59 0.66,-1.51 0.03,-0.27 0.1,-0.41 0.15,-0.67 0.09,-0.41 0.1,-0.93 0.19,-1.39l0.25 -1.33c0.09,-0.13 0.4,-0.12 0.67,-0.14 0.27,-0.02 0.58,-0.05 0.76,-0.07 0.38,-0.04 0.47,-0.01 0.41,0.32 -0.03,0.19 -0.1,0.45 -0.13,0.64 -0.08,0.46 -0.18,0.85 -0.24,1.28 -0.06,0.4 -0.11,0.94 -0.38,1.15l-0.75 0.53c-1.74,1.31 -1.11,0.41 -0.72,2.92 0.05,0.3 0.06,0.22 0.13,0.28z"/>
   <path class="fil3" d="M22.99 33.14l-0.26 1.32c-0.08,0.47 -0.21,0.86 -0.27,1.31l-0.66 4.07c-0.14,0.96 -0.4,1.93 -0.48,2.68 -0.06,0.51 -0.29,1.12 -0.04,1.29 0.2,0.09 0.35,-0.02 0.66,-0.04 0.84,-0.05 2.42,-0.14 3.19,-0.27 0.64,-0.11 1.62,-0.02 2.31,-0.32 0.04,-1.18 0.37,-2.12 0.42,-2.79 0.02,-0.37 0.3,-0.63 -0.11,-0.73l-1.88 0.13c-0.85,0.12 -0.47,0.26 -0.77,1.26 -0.2,0.03 -0.26,0.04 -0.52,0.06 -0.34,0.02 -0.33,0.08 -0.32,-0.36 0.01,-0.17 0.26,-1.21 0.32,-1.84 0.04,-0.42 0.17,-0.4 0.64,-0.46 0.6,-0.07 0.74,-0.32 1.33,-0.93l1.43 -1.41c0.15,-0.16 0.21,-0.16 0.23,-0.36 -0.27,-0.08 -0.5,-0.06 -0.78,-0.01 -0.19,0.03 -0.2,0.05 -0.36,0.08 -0.42,0.07 -0.91,0.05 -1.28,0.1 -0.36,0.05 -0.67,0.23 -0.66,-0.13 0.01,-0.36 0.07,-0.79 0.17,-1.12 0.26,-0.84 -0.14,-1.24 0.89,-1.21 0.51,0.01 -0.18,1.06 0.23,1.07 0.47,0.01 1.12,-0.03 1.58,-0.12 0.85,-0.15 1.01,0.08 1.05,-0.66 0.02,-0.33 0.06,-0.4 0.13,-0.69 0.06,-0.26 0.02,-0.5 0.06,-0.75 0.03,-0.21 0.11,-0.43 0.14,-0.68 0.17,-1.11 0.61,-1.02 -1.3,-0.83 -0.43,0.04 -0.91,0.11 -1.24,0.14 -0.45,0.04 -0.84,0.06 -1.27,0.11 -0.6,0.07 -1.41,0.08 -1.9,0.18 -0.65,0.14 -1.67,0.01 -1.67,0.33 -0,0.01 0.4,0.66 0.47,0.77 0.11,0.18 0.54,0.72 0.53,0.82z"/>
   <path class="fil2" d="M18.24 18.62c-0.01,0.18 0.02,0.15 0.1,0.28 0.28,-0.13 0.37,-0.8 0.84,-0.93 0.1,0.2 0.05,0.35 0.04,0.62l0.24 1.22c0.06,0.2 0.14,0.26 0.2,0.55 0.06,0.25 0.09,0.31 0.17,0.52 0.53,1.38 3.11,0.75 3.47,0.89 0.27,0.1 0.68,1.11 -0.38,1.5 -0.42,0.16 -0.97,0.17 -1.43,0.2l-1.39 0.17c-1.35,0.06 -1.1,-0.24 -1.19,2.66 -0.02,0.52 0.44,0.36 0.92,0.31l2.76 -0.26c0.27,-0.05 0.33,-0.08 0.62,-0.12 0.86,-0.13 1.8,-0.77 2.04,-1.55l0.29 -1.12c0.14,-0.99 0.41,-1.54 0.17,-2.61 -0.16,-0.74 -0.17,-1.27 -0.96,-1.79 -0.92,-0.61 -2.01,-0.17 -2.66,-0.18 -0.67,-0.02 -1.08,-1.35 -0.12,-1.78 0.55,-0.25 0.68,-0.13 1.35,-0.21l1.35 -0.15c0.7,-0.07 0.86,-0.05 1.28,-0.28 0.02,-0.5 0.03,-1.01 0.05,-1.51l-0.01 -1.03c0,-0.1 -0.01,-0.15 -0.01,-0.32 -0.42,-0.07 -0.74,0.04 -1.44,0.08l-2.96 0.31c-0.57,0.08 -1.37,0.32 -1.71,0.69l-0.69 0.87c-0.09,0.13 -0.19,0.37 -0.27,0.51 -0.09,0.17 -0.13,0.38 -0.22,0.55 -0.14,0.28 -0.45,1.66 -0.45,1.89z"/>
   <path class="fil2" d="M13.68 22.26c0.03,-0.46 0.56,-1.79 0.61,-2.56l0.33 -1.49c0.26,0.48 0.26,1.19 0.4,1.87 0.08,0.37 0.03,0.7 0.09,1.07 0.07,0.42 0.16,0.44 0.14,0.98 -0.62,0.03 -0.51,0.16 -1.57,0.13zm-3.7 5.29c0.47,0.01 2.1,-0.15 2.49,-0.22 0.24,-0.78 0.37,-2.56 0.84,-2.7 0.08,-0.02 0.6,-0.06 0.69,-0.06 0.27,-0.02 0.42,-0.03 0.7,-0.06l0.59 -0.05c0.23,0.03 0.2,0.11 0.28,0.51 0.06,0.3 0.13,1.22 0.25,1.76 0.06,0.24 0.12,0.25 0.46,0.22 0.24,-0.03 0.55,-0.03 0.72,-0.05 1.57,-0.16 1.21,-0.12 1.12,-1.21 -0.02,-0.27 -0.09,-0.59 -0.14,-0.86l-0.48 -3.54c-0.02,-0.39 -0.07,-0.52 -0.13,-0.87l-0.55 -4.46c-0.21,-1.03 0.12,-1.42 -0.73,-1.37l-2.04 0.28c-0.82,0.31 -1.11,1.19 -1.38,1.86l-0.25 0.81c-0.1,0.32 -0.13,0.52 -0.24,0.82 -0.1,0.27 -0.1,0.57 -0.19,0.86l-2.04 7.55c-0.11,0.39 -0.27,0.77 0.04,0.78z"/>
   <path class="fil2" d="M55 18.35c-0.05,-0.22 -0.05,-0.23 0.04,-0.48l0.49 -2.04c0.04,-0.28 0.05,-0.23 0.12,-0.47 0.07,-0.23 0.18,-0.81 0.19,-1.03 0.26,0.13 0.21,0.02 0.27,0.33 0.08,0.44 -0.01,0.81 0.13,1.48l0.26 2.08c-0.17,-0 -0.55,0.03 -0.78,0.04 -0.31,0.02 -0.29,0.1 -0.73,0.09zm-3.88 4.95c-0.02,0.55 0.1,0.32 1.68,0.2 1.29,-0.1 0.88,-0.3 1.13,-1.05 0.27,-0.81 0.12,-0.48 0.28,-1.13 0.02,-0.07 0.16,-0.5 0.2,-0.57 0.18,-0.07 2,-0.23 2.36,-0.22 0.18,0.35 0.21,2.47 0.51,2.48 0.38,0.01 1.93,-0.14 2.16,-0.23 0.06,-0.16 -0.11,-1.38 -0.14,-1.68l-0.14 -0.86c-0.07,-0.57 0.04,-0.16 -0.12,-0.89l-0.67 -5.29c-0.04,-0.61 -0.09,-0.4 -0.11,-0.89 -0.02,-0.64 -0.17,-1.16 -0.25,-1.76 -0.04,-0.34 0.01,-0.66 -0.33,-0.72 -0.12,-0.02 -0.92,0.04 -1.07,0.06 -1.48,0.19 -1.36,0.01 -1.98,0.73 -0.58,0.67 -0.97,2.2 -1.21,3.06l-2.04 7.95c-0.06,0.2 -0.23,0.61 -0.24,0.82z"/>
   <path class="fil2" d="M95.74 31.73c-0.05,-0.11 -0.02,-0.13 -0.06,-0.24 -0.06,-0.13 -0.47,-0.6 -0.6,-0.6 -0.25,-0.01 -0.73,0.23 -0.89,0.35 -0.8,0.57 -0.32,1.31 -0.36,1.98l-0.02 0.21c-0.13,-0.28 0.06,-1.14 -1.2,-0.86 -1.01,0.23 -1.05,1.06 -1.15,1.2 -0.23,-0.13 -0.01,-0.09 -0.29,-0.36 -0.38,-0.37 -0.36,-0.27 -1.52,-0.29 -0.72,-0.02 -1.07,0.1 -1.29,0.55 -0.01,0.02 -0.03,0.07 -0.04,0.08 -0.01,0.01 -0.01,0.03 -0.02,0.04 -0.01,0.01 -0.02,0.03 -0.02,0.04 -0,0.01 -0.01,0.03 -0.02,0.04 0.01,-0.37 -0.05,-0.5 -0.21,-0.65 -0.59,-0.57 -1.49,-0.39 -1.68,0.02 -0.06,0.13 -0.09,0.29 -0.11,0.41 -0.03,0.19 -0.01,0.28 -0.15,0.44 0.01,-0.3 0.01,-0.68 -0.05,-0.94 -0.03,-0.13 -0.1,-0.21 -0.22,-0.31 -0.58,-0.45 -1.33,-0.22 -1.47,0.18 -0.08,0.22 -0.1,0.53 -0.16,0.84 -0.13,0.71 -0.38,1.97 0.16,2.68l0.14 0.16c0.73,0.76 1.46,0.13 1.53,-0.37 0.49,0.13 0.61,1.42 1.96,0.85 0.12,-0.05 0.34,-0.22 0.43,-0.3 0.21,-0.18 0.21,-0.15 0.23,-0.49 0.01,-0.24 0.01,-0.49 0.02,-0.73 0.33,0.46 -0.29,1.35 0.95,1.96 0.27,0.13 0.7,0.1 1.08,0.11 0.27,0.01 0.74,-0.31 0.91,-0.55 0.15,-0.22 -0,-0.17 0.22,-0.26 0.06,0.21 0.05,0.16 0.3,0.25 0.16,0.06 0.34,0.13 0.49,0.15 0.59,0.08 1.03,-0.37 1.23,-0.77 0.69,-1.38 0.25,-0.85 0.28,-1.99 0.01,-0.26 -0.01,-0.16 0.14,-0.22 0.01,0.34 0.23,0.81 0.49,0.95 0.31,0.02 0.65,-0.17 0.81,-0.34 0.37,-0.4 0.57,-1.28 0.55,-1.67 -0.02,-0.25 -0.21,-0.67 0.11,-0.8 0.16,0.66 0.78,0.64 1.19,-0.13 0.36,-0.67 0.2,-1.31 0.09,-2.15 -0.1,-0.78 -1.1,-0.77 -1.4,-0.37 -0.24,0.32 -0.48,0.83 -0.42,1.24 0.05,0.36 0.18,0.19 0.09,0.66z"/>
   <path class="fil2" d="M93.93 23.8c-0.02,0.51 -0.01,0.72 0.33,1.15 0.01,0.01 0.02,0.02 0.03,0.03l0.16 0.26c0.11,0.17 0.14,0.18 0.15,0.42l-0.13 -0c-0.02,-0.32 -0.11,-0.32 -0.2,-0.44 -0.01,-0.01 -0.02,-0.02 -0.03,-0.03l-1.17 -0.69c-0.14,-0 -0.38,0.06 -0.48,0.09 -0.25,0.06 -0.21,0.03 -0.34,0.21 -0.29,0.39 -0.4,1.57 -0.21,2.04 -0.51,-0.06 -0.3,-0.4 -1.12,-0.42 -0.4,-0.01 -0.38,0.5 -0.51,0.81 -0.16,0.38 -0.1,0.73 -0.2,1.08 -0.39,-0.03 -0.98,-0.09 -1.37,0.48 -0.22,0.32 -0.32,1.32 -0.33,1.78l0.24 1.33c0.27,0.99 0.65,0.88 1.45,0.9 0.83,0.02 1.05,-0.88 1.14,-1.04 0.35,0.09 0.19,0.62 1.16,0.01 0.34,-0.21 0.86,-0.52 1.04,-0.9 0.09,-0.19 0.01,-0.62 0.02,-1.02 0.01,-0.22 -0.03,-0.03 0.09,-0.15 0.18,0.4 -0.02,0.42 0.4,1 1.09,-0.03 1.52,-0.24 1.73,-1.48 0.03,-0.16 0.03,-0.33 0.02,-0.49 -0.01,-0.28 -0.02,-0.12 0.02,-0.39l0.24 0.19c0.68,0.31 1.32,-0.01 1.35,-0.87l-0.42 -2.17c-0.17,-0.58 -1.25,-2.8 -1.84,-2.82 -0.83,-0.02 -1.19,0.44 -1.21,1.15z"/>
   <path class="fil3" d="M50.95 28.68c-0.01,0.29 0.93,1.41 0.93,1.65l-0.46 2.82c-0.09,0.43 -0.12,0.92 -0.19,1.33l-0.73 3.95c-0.09,0.43 -0.1,0.88 -0.21,1.3 -0.45,1.81 -0.23,1.32 1.36,1.24 0.71,-0.04 0.57,-0.14 1.64,-0.12 0.31,0.01 0.54,-0.05 0.79,-0.09 0.67,-0.11 1.74,-0.04 2.29,-0.34 0.02,-0.7 0.47,-2.37 0.5,-3.41 0.01,-0.36 -0.47,-0.05 -1.37,-0.03 -0.39,0.01 -0.85,0.06 -1.18,0.14 -0.32,1.04 0.06,1.23 -0.89,1.21 -0.39,-0.01 -0.21,-0.39 -0.14,-0.65 0.11,-0.48 0.08,-0.86 0.3,-1.68 0.06,-0.24 0.07,-0.68 0.12,-0.93 0.18,-0.86 0.57,-2.74 0.59,-3.44 0.01,-0.39 0.09,-0.51 0.17,-0.83l0.18 -1.28c0.3,-1.42 0.46,-1.32 -0.79,-1.18 -0.32,0.04 -0.69,0.03 -0.99,0.08l-1.48 0.16c-0.18,0.01 -0.45,-0.04 -0.45,0.11z"/>
   <path class="fil3" d="M29.86 30.68c0.02,0.28 -0,0.07 0.07,0.22 0.01,0.01 0.01,0.03 0.02,0.04 0.23,0.45 0.92,1.1 0.9,1.56l-0.48 2.57c-0.02,0.38 -0.11,0.92 -0.21,1.31 -0.11,0.44 -0.14,0.84 -0.22,1.3l-0.7 3.86c-0.1,0.94 -0.58,1.63 0.18,1.56 0.24,-0.02 0.47,-0.05 0.68,-0.08 0.4,-0.06 0.96,-0.07 1.38,-0.13 0.6,-0.09 2.02,-0.17 2.78,-0.24 1.59,-0.15 0.88,-0.22 1.25,-1.58 0.17,-0.65 0.25,-1.48 0.33,-1.78 0.1,-0.36 0.01,-0.38 -0.31,-0.39 -0.19,-0.01 -2.13,0.19 -2.26,0.22 -0.13,0.23 -0.23,0.9 -0.27,1.17 -0.89,-0.02 -1.1,0.41 -0.72,-1.06l0.45 -2.48c0.04,-0.45 0.22,-0.79 0.24,-1.23 0.04,-0.95 0.38,-1.59 0.41,-2.51 0.02,-0.72 0.39,-1.84 0.41,-2.57 0.01,-0.17 -0.17,-0.12 -0.65,-0.13 -0.45,-0.01 -1.26,0.14 -1.65,0.17 -0.34,0.03 -0.57,-0.01 -0.85,0.04 -0.27,0.05 -0.56,0.08 -0.77,0.16z"/>
   <path class="fil2" d="M26.1 17.63c-0.01,0.44 -0.04,0.3 0.11,0.51 0.53,-0.29 0.14,-1.25 1.85,-1.61 0.23,-0.05 0.79,-0.2 1.02,-0.17 0.35,0.05 0.12,0.16 0.1,0.84 -0.01,0.32 0,0.76 -0.04,1.06 -0.16,1.02 -0.18,1.06 -0.21,2.19 -0.03,0.87 -0.08,2.42 -0.26,3.33l-0.15 1.76c-0.01,0.41 1.56,0.1 2.16,0.06 0.85,-0.05 0.27,-0.54 0.54,-1.88 0.1,-0.48 0.01,-1.04 0.1,-1.52 0.08,-0.43 0.15,-0.94 0.16,-1.41 0.01,-0.54 0.1,-1 0.11,-1.51 0.03,-1.08 0.13,-2.04 0.17,-3.08 0.42,-0.22 0.36,-0.15 0.99,-0.14 0.36,0.01 0.8,-0.05 1.05,-0.14 0.19,-0.61 0.2,-2.02 0.22,-2.74 0.01,-0.46 -1.38,-0.12 -1.73,-0.07 -0.22,0.03 -0.77,0.03 -1.44,0.13 -0.67,0.1 -1.75,-0.03 -2.65,0.48 -0.44,0.25 -0.88,0.71 -1.14,1.1l-0.95 2.83z"/>
   <path class="fil3" d="M86 26.04c0.52,0.36 1.35,-0.05 1.84,-0.32 1.04,-0.59 1.05,-0.51 1.68,-1.42l1.22 -1.84c0.21,-0.51 1.1,-1.77 1.07,-2.44 -0.04,-0.72 -0.02,-0.87 -0.18,-1.54 -0.15,-0.63 -0.07,-1.48 -0.6,-2.24 -0.52,-0.76 -2.18,-1.85 -3.42,-1.23 -1.18,0.58 -0.52,1.03 -0.39,1.38 0.42,1.07 0.35,3.13 0.06,4.1 -0.06,0.21 -0.23,0.73 -0.18,0.96 0,0.02 1.06,1.59 0.59,2.69 -0.39,0.91 -1.42,0.27 -1.74,0.26 -0.21,0.32 -0.36,0.39 -0.36,0.89 -0,0.38 0.16,0.58 0.42,0.76z"/>
   <path class="fil0" d="M63.29 12.56c-0.03,0.94 -0.45,7 -0.3,7.28 0.08,0.07 1.45,-0.05 1.56,-0.08 0.6,-0.15 0.75,-0.23 0.92,-0.78l0.38 -2.88c0.03,-0.87 0.22,-2.7 -0.1,-3.36 -0.03,-0.05 -0.14,-0.21 -0.2,-0.27 -0.31,-0.34 -0.69,-0.17 -1.36,-0.12 -0.76,0.06 -0.52,-0 -0.91,0.21z"/>
   <path class="fil0" d="M71.51 14.78l-0.12 3.7c-0.02,0.73 0.88,1.05 1.89,0.57l0.19 -0.12c0.52,-0.38 0.47,-1.28 0.51,-1.9 0.02,-0.43 0.16,-0.65 0.17,-1.17 0.02,-0.82 0.27,-3.12 0.1,-3.74 -0.22,-0.83 -2.36,-0.77 -2.48,0.54 -0.07,0.71 -0.24,1.37 -0.26,2.13z"/>
   <path class="fil0" d="M85.95 24.39c0.32,0.01 1.35,0.65 1.74,-0.26 0.48,-1.1 -0.59,-2.68 -0.59,-2.69 -0.05,-0.23 0.12,-0.75 0.18,-0.96 0.29,-0.97 0.36,-3.03 -0.06,-4.1 -0.14,-0.35 -0.79,-0.8 0.39,-1.38 1.24,-0.61 2.9,0.48 3.42,1.23 0.53,0.77 0.45,1.62 0.6,2.24 0.16,0.67 0.14,0.82 0.18,1.54 0.04,0.67 -0.85,1.93 -1.07,2.44l-1.22 1.84c-0.63,0.9 -0.64,0.83 -1.68,1.42 -0.49,0.28 -1.32,0.69 -1.84,0.32 -0.26,-0.18 -0.42,-0.38 -0.42,-0.76 0,-0.49 0.15,-0.57 0.36,-0.89zm1.03 -5.47c-0.03,0.76 -0.01,1.17 -0.13,1.9l-0.47 2c-0.08,0.22 -0.18,0.34 -0.28,0.56 -0.38,0.82 -0.4,0.74 -0.74,1.35 -0.13,0.22 -0.01,0.15 -0.22,0.21 -0.09,-0.18 -0.11,-0.77 -0.1,-1.07l-0.07 -0c-0.01,0.29 -0.01,0.39 -0.08,0.62l-0.21 0.5c-0.18,0.39 -0.1,0.15 -0.37,0.36 -0.22,0.17 -0.12,0.42 -0.13,0.97 -0.01,0.19 -0.06,0.22 -0.08,0.39 0.24,0.11 0.17,-0.02 0.44,0.19 0.33,0.26 0.66,0.19 1.17,0.01 0.53,-0.19 0.17,-0.22 0.91,-0.38 0.53,-0.12 2.36,-1.05 2.62,-1.31 0.46,-0.47 1.4,-2.01 1.73,-2.58 0.06,-0.11 0.07,-0.11 0.14,-0.28 0.18,-0.44 0.14,-0.24 0.3,-0.53l0.7 -1.27c0.11,-0.16 0.08,0.13 0.09,-0.2 0.02,-0.48 -0.33,-2.86 -0.51,-3.57 -0.09,-0.37 -0.52,-1.05 -0.8,-1.31 -0.26,-0.23 -0.74,-0.44 -1.08,-0.6l-0.9 -0.36c-0.01,-0.01 -0.03,-0.02 -0.04,-0.02 -0.14,-0.1 -0.04,-0.23 -0.76,-0.11 -0.39,0.07 -0.85,0.31 -1.16,0.51 -0.28,0.17 -0.38,0.32 -0.51,0.63 -0.26,0.6 0.3,0.61 0.32,1.56 0.02,0.98 0.23,1.07 0.2,1.85z"/>
   <path class="fil3" d="M76.27 34.97c-0.03,0.95 -0.22,0.83 1.14,0.75 1.35,-0.08 0.85,-0.32 1.17,-1.47 0.11,-0.39 0.12,-0.75 0.17,-1.18 0.02,-0.17 0.1,-0.38 0.13,-0.52l0.67 -4c0.01,-0.4 -1.37,-0.07 -1.52,-0.05 -0.65,0.09 -0.6,0 -0.66,0.55l-0.98 5.45c-0.03,0.12 -0.12,0.34 -0.12,0.47z"/>
   <path class="fil2" d="M83.11 29.48c-0.22,-0.03 -0.47,-0.14 -0.76,-0.2 -0.12,-0.03 -0.24,-0.08 -0.35,-0.11 -0.28,-0.08 -0.13,-0.09 -0.3,0.02 -0.1,0.34 0.31,1.34 0.59,1.67 0.39,0.45 0.9,0.94 1.6,0.99 0.89,0.06 1.1,0.22 1.12,-0.48l0.06 0c-0.02,0.74 1.25,1.25 1.97,1.35 0.31,0.04 0.73,0.06 0.98,-0.11 0.27,-0.19 0.35,-0.94 0.36,-1.21l-0.05 -1.41c-0.04,-0.44 -0.13,-0.49 -0.31,-0.78 -0.69,-0.02 -0.49,0.07 -0.96,0.17 -0.27,0.06 -0.22,0.01 -0.46,0.1 -1.11,0.43 -1.08,0.61 -1.7,1.05 -0.24,-0.08 -0.02,0 -0.19,-0.12l-1.1 -0.69c-0.23,-0.12 -0.28,-0.17 -0.51,-0.24z"/>
   <path class="fil0" d="M4.3 21.52c-0.01,0.24 -0.03,0.29 0.03,0.45 0.25,0.09 0.7,-0.05 1.08,-0.08 0.96,-0.07 0.93,-0.6 1.22,-1.2 0.34,-0.73 0.34,-2.09 -0.28,-2.63 -0.38,-0.33 -0.28,-0.17 -0.99,-0.09 -0.88,0.1 -0.81,-0.1 -0.83,0.75 -0.01,0.3 -0,0.67 -0.05,0.93 -0.1,0.5 -0.05,0.95 -0.09,1.42 -0.02,0.22 -0.07,0.26 -0.08,0.44z"/>
   <path class="fil0" d="M37.49 14.94l-0.22 2.68c-0.11,1.04 -0.33,1.17 0.36,1.19 0.19,0 0.81,-0.06 0.96,-0.11 0.39,-0.11 0.47,-0.08 0.64,-0.4 0.03,-0.05 0.06,-0.1 0.08,-0.15l0.41 -1.36c0.02,-0.69 0.08,-0.79 -0.19,-1.48 -0.31,-0.81 -1.03,-0.41 -2.04,-0.36z"/>
   <path class="fil3" d="M79.04 21.98c0.14,-0.05 0.06,-0.04 0.26,-0.05l0.38 0.35c-0.21,0.18 -0.35,0.16 -0.56,-0.14l-0.08 -0.1c-0.02,0.73 0.03,3.45 0.38,3.89 0.19,0.24 1.34,0.48 1.85,0.57 0.43,0.08 0.6,0.2 0.92,0.03 0.19,-0.1 0.51,-0.45 0.57,-0.65 -0.35,0.22 -0.4,0.41 -0.6,0.51 -0.17,0.08 -0.12,0.05 -0.27,-0.02 0.1,-0.12 0.15,-0.12 0.23,-0.2 0.04,-0.04 0.09,-0.15 0.14,-0.22 0.1,-0.15 0.2,-0.28 0.32,-0.41 -0.42,0.13 -0.81,0.34 -1.31,-0.31 -0.24,-0.31 -0.35,-0.87 -0.41,-1.35 -0.13,-1 0.26,-0.77 -1.05,-1.71 -0.24,-0.17 -0.32,-0.2 -0.61,-0.32l-0.17 0.14z"/>
   <path class="fil0" d="M85.23 22.3c-0.02,0.74 -0.24,0.92 0.09,1.12 0.43,-1.4 0.42,-2.85 0.47,-4.3l-0.35 -2.25c0.01,-0.36 0.03,-0.79 -0.05,-1.19 -0.13,-0.65 -0.55,-1.75 0.26,-2.12l1.12 -0.25c1.24,0.03 0.51,-0.03 1.44,0.2 0.33,0.08 0.3,0.12 0.44,0.35 0.14,-0.08 0.23,-0.1 0.33,-0.22 -0.06,-0.24 -0.11,-0.26 -0.36,-0.37 -1.29,-0.58 -0.87,-0.62 -2.29,-0.65 -0.23,-0.01 -0.42,0.13 -0.59,0.21 -0.27,0.13 -0.3,0.14 -0.5,0.35 -0.33,0.36 -0.68,0.29 -0.73,0.96 -0.02,0.29 0.05,0.36 0.05,0.67 -0.01,0.49 0.28,0.9 0.34,1.25 0.04,0.29 0,0.42 0.07,0.7 0.05,0.2 0.12,0.33 0.16,0.58 0.04,0.22 0.04,0.49 0.1,0.68 0.06,0.21 0.08,0.48 0.07,0.66 -0.08,1.35 0.18,0.93 -0.04,2.12 -0.09,0.51 -0.01,0.88 -0.03,1.47z"/>
   <path class="fil0" d="M101.22 23.73c-0.16,-0.26 -0.34,-0.3 -0.41,-0.59 -0.05,0.03 -0.13,0.03 -0.13,0.11 -0.01,0.27 0.26,0.68 0.35,0.86l0.24 0.51c0.1,0.28 0.12,0.45 0.32,0.78l0.45 1.05c0.3,0.75 -0.01,0.73 0.53,0.99 -0.02,0.48 0.17,0.94 0.36,1.34 0.19,0.41 -0,0.49 0.3,1.28 0.25,0.65 0.29,1.29 0.02,1.91 -0.15,0.35 -0.14,0.5 -0.21,0.9 -0.08,0.48 -0.7,1.11 -0.76,1.56 0.28,0.01 0.3,0 0.46,-0.1 0.21,-0.14 0.12,-0.14 0.27,-0.28 0.16,-0.15 0.18,-0.06 0.32,-0.23l0.34 -0.73c0.1,-0.18 0.13,-0.15 0.23,-0.31 0.16,-0.26 0.15,-1.4 0.14,-1.78 -0.02,-0.87 -0.2,-1.63 -0.52,-2.42l-0.51 -1.06c-0.45,-0.73 -0.16,-0.62 -0.39,-1.1l-0.7 -1.34c-0.13,-0.25 -0.14,-0.46 -0.28,-0.7 -0.09,-0.16 -0.13,-0.17 -0.23,-0.31 -0.1,-0.15 -0.08,-0.2 -0.17,-0.35z"/>
   <path class="fil3" d="M78 36.51c0.05,0.15 0.02,0.24 -0.03,0.41 -0.28,-0.03 -0.1,0.09 -0.38,-0.29 0.18,-0.03 0.25,-0.05 0.41,-0.12zm0 0l-1.04 0c-1.07,0.09 -0.98,0.02 -1.11,1.19 -0.04,0.33 -0.24,0.6 -0.09,0.9 0.33,0.13 0.63,-0.03 1.05,-0.03 0.39,-0 0.84,0.02 0.99,-0.2 0.04,-0.05 0.36,-1.4 0.31,-1.68 -0.05,-0.26 0.09,-0.1 -0.11,-0.18z"/>
   <path class="fil0" d="M55 18.35c0.44,0.01 0.42,-0.06 0.73,-0.09 0.23,-0.02 0.6,-0.05 0.78,-0.04l-0.26 -2.08c-0.14,-0.67 -0.05,-1.04 -0.13,-1.48 -0.05,-0.31 -0.01,-0.2 -0.27,-0.33 -0.01,0.23 -0.12,0.81 -0.19,1.03 -0.07,0.24 -0.08,0.18 -0.12,0.47l-0.49 2.04c-0.1,0.25 -0.09,0.26 -0.04,0.48z"/>
   <path class="fil0" d="M13.68 22.26c1.06,0.03 0.95,-0.1 1.57,-0.13 0.02,-0.54 -0.06,-0.55 -0.14,-0.98 -0.06,-0.36 -0.02,-0.7 -0.09,-1.07 -0.14,-0.69 -0.14,-1.39 -0.4,-1.87l-0.33 1.49c-0.05,0.77 -0.58,2.1 -0.61,2.56z"/>
   <path class="fil2" d="M82.77 25.87l0.18 -0.14 -0.06 -0.23 -0.3 0.03c-0.12,0.13 -0.22,0.26 -0.32,0.41 -0.05,0.07 -0.1,0.17 -0.14,0.22 -0.07,0.08 -0.12,0.07 -0.23,0.2 0.14,0.06 0.09,0.1 0.27,0.02 0.2,-0.1 0.25,-0.29 0.6,-0.51z"/>
   <path class="fil2" d="M16.4 41.33l0.16 0.07 0.16 -0.08c0.1,-0.43 0.26,-0.29 0.47,-0.53 -0.31,-0 -0.25,-0.06 -0.33,0.16 -0.2,-0.01 -0.24,-0.03 -0.39,-0.07 -0.03,0.23 -0.08,0.16 -0.07,0.45z"/>
   <path class="fil2" d="M79.04 21.98l-0 0.06 0.08 0.1c0.21,0.3 0.36,0.32 0.56,0.14l-0.38 -0.35c-0.2,0.01 -0.12,-0 -0.26,0.05z"/>
   <path class="fil2" d="M78 36.51c-0.16,0.07 -0.23,0.08 -0.41,0.12 0.28,0.38 0.1,0.26 0.38,0.29 0.05,-0.16 0.08,-0.26 0.03,-0.41z"/>
  </g>
 </g>
</svg>
