<?xml version="1.0" encoding="UTF-8"?>
<!DOCTYPE svg PUBLIC "-//W3C//DTD SVG 1.1//EN" "http://www.w3.org/Graphics/SVG/1.1/DTD/svg11.dtd">
<!-- Creator: CorelDRAW -->
<svg xmlns="http://www.w3.org/2000/svg" xml:space="preserve" width="33.8667mm" height="16.9333mm" version="1.1" style="shape-rendering:geometricPrecision; text-rendering:geometricPrecision; image-rendering:optimizeQuality; fill-rule:evenodd; clip-rule:evenodd"
viewBox="0 0 100.48 50.24"
 xmlns:xlink="http://www.w3.org/1999/xlink"
 xmlns:xodm="http://www.corel.com/coreldraw/odm/2003">
 <defs>
  <style type="text/css">
   <![CDATA[
    .fil0 {fill:black}
    .fil2 {fill:red}
    .fil1 {fill:white}
   ]]>
  </style>
 </defs>
 <g id="Camada_x0020_1">
  <metadata id="CorelCorpID_0Corel-Layer"/>
  <g id="_2475191163328">
   <path class="fil0" d="M90.42 49.14c0.06,-0.68 -0.04,-0.31 0.39,-0.71l3.77 -4.44c0.01,-0.02 0.04,-0.07 0.06,-0.1 0,2.11 -1.78,3.7 -3.36,4.84 -0.4,0.29 -0.3,0.29 -0.86,0.41zm-14.28 -6.18c0.1,0.11 0.1,0.07 0.22,0.26 0.53,0.85 0.46,1.27 1.68,2.57 0.86,0.91 1.89,1.65 3.29,1.65 1.65,0 2.01,-0.97 2.92,-1.54 -0.33,1.35 -2.33,2.01 -2.6,2.01 -1.04,0 -1.4,-0.06 -2.33,-0.56 -0.71,-0.38 -1.49,-1.12 -1.98,-1.82 -0.53,-0.76 -1.08,-1.64 -1.2,-2.56zm-65.1 4.02c0.22,0.13 0.17,0.11 0.52,0.15 0.1,0.01 0.51,0.01 0.64,0.01 3.07,-0.04 1.67,0.04 1.63,1.54l-5.36 0c-0.7,0 -0.37,-0.73 0.12,-2.2 0.12,-0.37 0.16,-0.55 0.29,-0.96 1.21,-3.87 0.93,-2.68 3.33,-2.7 2.89,-0.02 3.26,-0.44 3.01,0.67 -0.94,4.23 -0.93,2.59 -3.52,2.87 -0.62,0.07 -0.57,0.05 -0.66,0.63zm-4.35 1.7l-5.35 0c-0.46,0 -0.42,-0.1 -0.41,-0.4 0,-0.03 0.23,-0.63 0.28,-0.8l1.05 -3.32c0.09,-0.28 0.15,-0.61 0.25,-0.85 0.17,-0.41 0.19,-0.28 0.45,-0.66l3.41 0c0.16,-0.44 0.22,-0.63 0.32,-1.08 0.26,-1.11 0.04,-0.93 2.27,-0.93 0.85,0 0.15,1.26 -0.03,1.82l-0.99 3.24c-0.4,1.24 -0.64,2.97 -1.26,2.97zm60.69 -8.65c0.88,0.07 1.03,0.31 2.27,0.31l0 0.15c-1.94,0 -1.46,-0.28 -1.67,1.35 -0.03,0.23 -0.16,0.89 -0.23,1.32 -0.16,1.05 -0.06,4.05 -0.57,5.48 -0.16,0.45 -0.34,0.56 -0.94,0.65 1.04,-1.48 0.75,-4.13 1.03,-5.98 0.12,-0.83 0.5,-2.45 0.11,-3.29zm-20.77 6.18c0.61,0 0.31,0.1 0.97,0.15 0,2.82 -0.34,2.32 -5.84,2.32 -0.82,0 -0.73,-0.14 -1.46,-0.15 0,-1.65 0.79,-4.09 1.23,-5.78 0.73,-2.78 0.46,-2.74 1.7,-3.17 0.53,-0.18 0.72,-0.32 1.45,-0.32 0,1.63 -1.19,4.7 -1.67,6.33 -0.3,1.03 0.93,0.56 2.14,0.63l1.47 -0.01zm16.09 -7.1l0.47 -0.01 0 0.62 -0.65 0 0.18 -0.61zm32.92 7.25c0.11,0.44 0.65,1 -1.32,1.83 -0.77,0.32 -1.38,0.45 -2.24,0.64 0.19,-0.5 0,-0.13 0.52,-0.59 0.57,-0.51 1.53,-1.33 1.87,-1.93 0.88,-1.54 1.35,-6.04 1.69,-7.98 0.25,-1.46 0.74,-0.25 3.23,0.3 0.36,1.47 -1.3,5.17 -2.04,6.24 -0.94,1.35 -0.58,1.48 -1.69,1.48zm-24.34 -9.73c0.74,0.51 0.07,0.57 0.61,2.2 0.17,0.52 0.19,0.12 0.21,0.89 0.45,-0.31 0.32,0.01 0.32,-0.77l0.16 0c0,0.42 -0.03,0.47 0.09,0.85 0,0.01 0.13,0.3 0.14,0.33l0.96 2.94c0.17,0.43 0.17,0.4 0.35,0.75 0.26,0.51 0.52,1.02 0.57,1.62l-1.79 -3.09c0,0.83 0.35,1.74 0.68,2.45l1.76 3.73c-0.97,-0.62 -2.32,-4.17 -2.68,-5.32l-0.55 -2.26c-0.29,-1.18 -0.83,-3.12 -0.83,-4.31zm-42.19 12.05c-1.63,0 -4.2,0.17 -5.68,-0.15 0,-1.46 0.49,-2.44 0.77,-3.59l0.92 -3.6c0.25,-0.82 0.44,-1.46 0.65,-2.32 0.14,-0.59 0.38,-1.96 0.64,-2.33 0.49,-0.7 1.51,-0.39 2.36,-0.69 1.19,-0.41 0.91,-0.63 2.24,-0.09 0.53,0.21 0.66,0.25 1.36,0.26 1.73,0.02 1.21,0.32 0.35,3.9 -0.21,0.87 -1.83,7.11 -2.34,7.81 -0.41,0.55 -0.62,0.81 -1.26,0.81zm6 -2.47c1.94,0 1.97,0.17 2.8,-3.2 0.25,-1.02 0.68,-2.92 1.26,-3.75 0.39,0.18 1.79,0.35 1.79,0.77 0,1.13 -1.23,5.47 -1.8,7.09 -0.76,2.16 -1.72,1.56 -6.8,1.56 -1.16,0 -0.01,-2.55 0.21,-3.66 0.22,-1.1 0.45,-2.04 0.79,-3.11 0.41,-1.33 1.17,-4.97 1.77,-6.04 0.48,0.04 1.05,0.29 1.42,0.51 0.62,0.35 0.53,0.46 0.36,1.17 -0.24,1.06 -0.54,2.08 -0.81,3.11 -0.27,1.03 -0.53,2.07 -0.81,3.09 -0.53,1.91 -1.19,2.47 -0.16,2.47zm31.81 -8.19c-0.7,0.01 -0.89,0.16 -1.78,0.16 -1.43,0 -2.73,-0.28 -3.25,0.61 -1.8,3.06 1.75,1.65 4.06,2.17 0,0.7 -1.38,7.72 -2.76,7.72l-5.52 0c-1,0 -0.32,-1.75 0,-2.32 1.15,0 3.36,0.11 4.16,-0.21 0.78,-0.32 1.37,-2.55 1.2,-2.72l-2.17 -0.24c-0.94,-0.06 0.04,0.08 -0.75,0.08 -0.72,0 -0.64,-0.15 -1.46,-0.15 -0.23,-0.93 0.66,-3.64 0.97,-4.79 0.36,-1.33 0.41,-1.83 1.15,-2 0.52,-0.12 0.82,-0.07 1.34,-0.27 1.02,-0.39 0.29,-0.51 1.73,-0.51 0.35,0 1.04,0.69 2.28,0.76 1.53,0.09 1.1,0.48 0.8,1.71zm-12.5 10.66l-4.87 0c-1.38,0 -0.84,-0.76 -0.44,-2.89l0.96 -3.57c0.17,-0.59 0.33,-0.94 0.5,-1.69 1.11,-5.03 1.25,-3.75 2.88,-3.75 0.96,0 1.56,-0.32 2.33,-0.57 0.92,-0.3 1.3,0.07 2.25,0.23 0.73,0.13 0.97,-0.2 0.41,1.7 -0.72,2.49 -1.66,6.84 -2.48,9.07 -0.27,0.74 -0.59,1.46 -1.55,1.46zm-35.7 -5.41c-0.54,1.07 -1.2,4.42 -1.62,5.25 -0.88,0.2 -1.29,0.29 -2.27,-0.15 0.02,-0.76 0.31,-1.37 0.49,-2.01l2.72 -9.77c0.43,-0.61 1.09,-0.43 1.87,-0.69 2.02,-0.69 1.41,-0.51 4.01,-0.51 1.93,0 1.34,0.78 0.77,3.36 -0.26,1.18 -0.65,2.79 -1.38,3.79 -0.9,1.24 -2.1,0.18 -4.59,0.73zm76.43 -7.1l0.32 0c0.03,1.24 0.71,0.46 0.02,3.42 -0.17,0.72 0.2,0.21 -0.35,0.6 0,-2.42 0.37,-1.29 0,-4.02zm-45.6 1.85c-1.47,0 -2.34,0.12 -3.57,-0.15 0.06,-0.67 0.16,-0.55 1.17,-1.05 0.27,-0.14 0.25,-0.11 0.55,-0.25 0.66,-0.31 1.34,-1.02 2.18,-1.02 1.14,0 0.41,2.47 -0.32,2.47zm34.73 9.42c0.14,-0.56 0.4,-0.91 0.67,-1.37 1.18,-2 -0.08,-1.12 0.73,-2.86l1.31 -4.01c0.07,-0.3 0.12,-0.74 0.16,-0.93 0.1,-0.52 0.11,-0.46 0.23,-0.86l0.63 -2.8 -0.23 2.71c-0.1,0.41 -0.19,0.46 -0.24,0.86 -0.23,1.86 -1.63,8.21 -3.26,9.25zm-16.39 -9.27c0.17,-2.94 1.01,-2.67 3.08,-4.94 0,1.25 -0.05,3.42 -0.3,4.35 -0.54,1.97 0.31,1.22 -1.76,0.86 -0.32,-0.06 -0.7,-0.12 -1.02,-0.26zm14.93 -3.55c-0.62,0 -0.06,0.05 -0.49,-0.15 0.33,-0.47 0.2,-0.45 0.97,-0.46 -0.07,0.26 -0.19,0.62 -0.49,0.62zm12.98 -4.33c0.23,0.05 3.75,1.81 3.96,2.11 0.44,0.6 0,1.58 -0.06,2.38 -0.22,2.81 0.21,3.69 -0.92,3.21 -1.14,-0.47 -0.77,-0.77 -1.75,-1.31 -0.35,-0.19 -0.8,-0.31 -1.01,-0.58 -0.55,-0.68 -0.22,-4.61 -0.22,-5.81zm-15.74 -1.08c1.16,1.59 -1.74,0.88 0,0zm14.12 1.39c0,0.43 -0.13,0.32 -0.41,0.54 -0.24,0.19 -0.35,0.25 -0.57,0.39l-1.62 -0.93c-0.61,-0.39 -1.24,-0.53 -1.62,-1.08 0.2,-0.81 1.59,-2.01 1.62,-2.01 0.47,0 0.44,0.05 0.82,0.3 2.64,1.76 1.37,0.36 2.63,2.29 0.41,0.63 0.28,0.82 0.28,1.74 -0.64,-0.7 -0.27,-2.19 -1.46,-2.32 0.14,0.27 0.32,0.69 0.32,1.08zm-55.34 -1.24c0,1.59 -2.36,-1.26 -5.36,1.23 -1.33,1.11 -2.08,3.94 0.14,2.93 0.86,-0.39 3.14,-3.54 3.27,-3.54 1.91,0 0.32,1.65 0.32,3.09 0,1.39 1.97,0.56 3.04,-0.51 0.72,-0.72 0.99,-1.2 1.55,-1.92 2.58,-3.33 7.26,-2.88 7.26,-1.43 0,0.42 -0.08,0.43 -0.16,0.77 -1.03,-0.02 -0.38,-0.46 -2.76,-0.46 -1.36,0 -2.56,0.95 -3.12,1.97 -0.26,0.47 -0.98,2.21 0.2,2.21 1.97,0 3.27,-3.71 4.22,-3.71 1.87,0 -1.05,3.8 -1.14,4.79 0.74,-0.06 1.61,-0.82 2.15,-1.35 0.55,-0.53 1.41,-1.22 1.81,-1.83 0.9,-1.35 1.27,-3.16 3.99,-3.16 1.59,0 2.11,0.81 2.11,2.16 0,1.02 -0.89,1.51 -1.61,1.86 -1.29,0.63 -1.46,0.3 -2.93,0.3 0.08,0.86 0.87,1.54 1.78,1.54 2.06,0 4.59,-2.52 5.33,-4.2 0.02,-0.03 0.03,-0.07 0.05,-0.11 0.16,-0.38 0.33,-1.1 0.79,-1.1 0.72,0 0.84,0.21 0.97,0.77 0.76,-0.38 3.24,-1.89 3.41,0 0.16,-0.04 3.73,-2.55 3.73,-0.15 0,1.39 -2.26,4.15 -0.85,4.13 1.46,-0.02 2.17,-2.42 3.61,-2.74 0.6,0.85 -0.17,1.73 -0.98,2.47 -0.19,0.17 -0.2,0.2 -0.31,0.32 -0.33,0.36 -0.89,0.79 -1.3,1.08 -2.26,1.57 -3.98,0.21 -3.62,-1.42 0.15,-0.65 0.34,-0.82 0.65,-1.41 0.34,-0.65 0.65,-0.77 0.69,-1.51 -1.06,0.08 -1.87,1.2 -2.39,1.89 -0.63,0.84 -0.91,2.06 -1.5,2.9 -2.77,0.3 -0.91,-2.67 -0.18,-3.73 0.36,-0.53 0.33,-0.25 0.34,-1.06 -2.1,0.31 -2.9,4.36 -4.06,5.1 -0.85,-0.2 -0.57,-0.51 -1.35,-0.93 -1.17,1.1 -3.8,1.75 -5.26,0.58 -0.76,-0.62 -0.53,-0.73 -1.12,-1.51 -1.36,0.71 -2.06,1.79 -3.9,2.51 -1.35,0.53 -0.88,0.57 -1.7,1.47 -1.59,1.73 -5.48,1.27 -5.48,0.03 0,-3.64 4.52,-0.29 5.68,-3.09 -0.92,0.07 -1.06,0.62 -2.6,0.62 -1.08,0 -1.13,-0.71 -1.57,-1.24 -1,0.53 -2.03,1.54 -3.3,1.54 -1.1,0 -1.93,-0.57 -1.95,-1.7 -0.81,0.06 -0.72,0.42 -1.37,0.85 -0.71,0.47 -2.33,0.89 -3.06,0.12 -0.54,-0.58 0.01,-0.39 -0.6,-0.82 -0.97,0.25 -1.14,1.19 -2.82,1.31 -1.67,0.13 -2.54,-0.61 -2.54,-2.09 0,-1.17 1.17,-1.69 1.51,-2.47 -2.43,0 -0.71,1.65 -3.15,2.46 -0.61,0.2 -1.15,0.09 -1.66,0.27 -0.66,0.31 -2.32,2.96 -4.68,1.16 -0.59,-0.44 -0.68,-0.97 -1.1,-1.27 -0.7,0.18 -4,3.58 -6.83,1.41 -2.16,-1.65 -0.56,-6.51 2.94,-6.51 1.67,0 3.13,1.8 1.57,2.75 -0.72,0.44 -0.75,0.03 -1.24,-0.28 0.08,-0.89 0.47,-1.86 -1.13,-0.92 -0.68,0.4 -1.03,1.13 -1.2,1.96 -0.17,0.81 -0.01,1.62 0.79,1.98 0.8,0.36 1.72,0 2.41,-0.34 0.95,-0.47 1.95,-1.19 2.58,-2.02 0.27,-0.36 0.35,-0.66 0.56,-1.01 1.18,-1.95 5.89,-3.35 5.89,-0.58 0,0 -0.95,2.71 0.68,2.22 1.75,-0.52 1.27,-1.96 1.27,-2.84 0,-0.44 0.68,-0.93 1.14,-0.93 0.73,0 0.61,0.69 0.81,1.24 1.67,-0.13 2.58,-1.63 3.73,-0.51 -0.39,0.83 -4.29,3.75 -2.41,4.68 0.43,0.21 0.76,0 1.21,-0.21 1.57,-0.73 2.12,-2.3 3.27,-3.39 3.49,-3.29 6.86,-1.77 6.86,-0.73zm42.03 -0.46c0.06,-2.58 1.36,-1.51 1.79,-1.24l0 1.08 -1.79 0.15zm5.84 -0.46c0.68,0 0.66,0.06 1.14,-0.15 -0.19,-0.66 -0.98,-0.83 0,-1.08 0.21,0.41 0.16,-0.13 0.16,0.46 0,1.28 0.02,1.08 -1.3,1.08l0 -0.31zm-18.8 -0.62c0.15,-0.53 0.37,-1.19 0.95,-1.39 0,1.23 -0.1,1.11 -0.32,2.01 -0.4,-0.26 -0.34,-0.21 -0.62,-0.62zm11.66 -1.39c0.83,-0.07 0.22,-0.12 0.97,-0.31 -0.19,0.77 -0.49,1.85 -0.49,2.78l-0.65 0 0.16 -2.47zm5.68 5.1c-1.25,-0.1 -0.37,-0.91 -0.55,-2.24 -0.17,-1.22 -0.02,-2.34 -0.14,-2.97 -0.07,-0.37 -0.29,-0.65 -0.29,-1.12 0,-0.56 0.93,-0.34 1.3,-0.31 0.15,0.42 0.21,0.94 0.27,1.28 0.16,0.9 1.01,1.64 -0.44,1.96 0.02,-0.9 0.6,-1.15 -0.49,-1.24 -0.11,0.45 -0.2,0.61 -0.18,1.24 0.02,0.8 0.15,0.58 0.34,1.08l0.49 0c-0.16,-0.66 -0.28,-0.75 0.65,-0.77 -0.09,1.07 -0.35,-0.23 -0.32,2.16 0.02,1.66 -0.49,1.85 0.32,1.85 0.59,0 0.66,-0.09 0.81,-0.62l0.65 0c0.22,0.91 0.05,0.35 -0.16,1.24 -0.96,-0.08 -0.34,-0.31 -0.97,-0.31 -0.88,0 -0.39,0.44 -1.62,0.46 0.1,-0.37 0.19,-0.39 0.21,-0.53 0.04,-0.3 -0.01,-0.1 -0.05,-0.35 -0,-0.02 -0.02,-0.06 -0.02,-0.08l0.02 -0.28c0.08,-0.37 0.02,0.14 0.16,-0.46zm-4.22 -4.79c-0.08,-0.17 -0.33,0.02 0.04,-0.4 0.24,-0.28 0.2,-0.22 0.93,-0.22 -0.01,-0.62 -0.07,-0.57 -0.32,-0.93 0.54,-0.77 0.29,-0.64 0.81,-0.77 0.21,0.41 0.16,-0.13 0.16,0.46l0 1.24c-0.54,0.27 -0.38,0.15 -0.97,0.32 -0.93,0.26 -0.05,0.5 -0.65,0.3zm2.16 -2.57c1.01,0.7 0.47,0.88 0.87,2.01 0.34,0.95 0.39,4.78 0.1,5.56 -0.56,1.55 -0.01,1.57 -0.86,2.11 0,-0.98 0.34,-1.31 0.51,-2.3 0.2,-1.22 0.21,-4.07 0,-5.29 -0.16,-0.96 -0.24,-0.75 -0.49,-1.55 -0.06,-0.19 -0.11,-0.49 -0.12,-0.55zm14.88 1.65c0.04,0.4 -0.01,0.65 0.43,0.57 0.44,-0.08 0.33,-0.28 0.4,-0.69 0.1,-0.56 0.23,-1.23 -0.03,-1.73 -1.71,-0.78 -1.95,0.92 -1.95,-2.16 0.63,0.44 0.12,0.36 0.49,1.08 0.79,-0.06 0.26,-0.09 0.65,-0.16 0.39,-0.07 0.04,-0.1 0.37,0.01 0.66,0.23 -0.16,0.39 0.93,0.15 0,1.03 -0.05,1.69 -0.14,2.49 -0.17,1.5 0.35,1.65 -0.35,2.14l0 -0.77c-0.77,0 -0.67,-0.11 -1.3,-0.15 -0.47,0.67 -0.26,0.62 -0.65,0.77l0.65 0.31c-0.3,0.42 -0.26,0.48 -0.65,0.62 -0.46,-0.91 -0.26,-0.88 -0.17,-1.86 0.15,-1.65 -0.36,-1.52 0.34,-2 0.26,0.51 0.16,1.12 0.16,1.85 0.58,-0.05 0.27,-0.02 0.49,-0.15 0.03,-0.02 0.07,-0.05 0.09,-0.07l0.16 -0.16c0.01,-0.05 0.04,-0.06 0.07,-0.09zm-15.9 -2.93c0.07,-0.75 0.25,-0.64 0.81,-0.93 0.18,0.32 0.63,0.93 -0.16,0.93l-0.65 0zm-67.51 4.02c0,-0.18 0.79,-2.57 0.92,-2.99 0.85,-2.85 0.36,-2.42 4.11,-2.42l2.11 0.15c-0.01,0.63 -0.24,0.97 -0.47,1.86 -0.18,0.71 -0.35,1.2 -0.5,1.84 -1.05,0 -2.61,-0.19 -3.25,0l0 0.77 2.6 0c0.84,0 0.22,1.09 0.02,1.25 -0.8,0.6 -3.69,0.14 -4.41,0.15 -0.93,0.01 -1.13,0.21 -1.13,-0.62zm76.31 0.35c-0.09,0.13 -0.14,0.15 -0.29,0.34 -0.16,0.2 -0.08,0.09 -0.2,0.27 -0.31,0.48 -0.39,0.65 -1.01,1.05 0.01,-0.39 -0.07,-0.36 0.1,-0.68 0.25,-0.49 1.39,-0.91 1.47,-1.97 0.21,-2.84 -0.59,-3.87 -0.59,-6.16 0.57,0.4 0.15,0.05 0.54,1.96 0.22,1.08 0.6,4.33 -0.01,5.18zm-78.1 -5.75c0.08,-0.33 0.17,-0.64 0.29,-0.96 0.2,-0.55 0.2,-0.28 0.2,-1.04 2.65,0 2.68,-0.19 2.42,0.73l-2.26 7.31 -6 -0.15c0.01,-0.59 1.4,-5.09 1.95,-5.87l3.41 0zm68.16 -1.7c-0.56,-0.14 -0.5,-0.08 -0.65,-0.62 0.74,0.16 0.58,0.03 0.65,0.62zm-5.68 6.18c0,-0.13 0.27,-1.11 0.32,-1.54 0.22,-1.96 0.14,-1.27 0.59,-3.15 0.13,-0.56 0.24,-1 0.38,-1.49 0.82,-2.73 3.62,-6.21 6.11,-2.25 2.24,3.58 0.47,3.61 1.36,5.01 0.82,-0.15 0.39,-0.13 0.32,-0.9l0.32 0c0.05,0.62 0.07,0.5 0.49,0.77 0.21,-0.41 0.16,0.13 0.16,-0.46 0,-0.54 -0.65,-0.41 -0.16,-1.24 0.37,0.09 0.65,0.15 0.65,0.62 0,1.57 -0.65,0.46 -0.65,2.16 0.75,-0.06 0.67,-0.36 1.95,-0.46 0,1.05 0.21,1.1 -0.49,1.54 0,-0.63 0.05,-0.5 -0.16,-0.93 -0.5,0.13 -1.4,0.57 -1.95,0.62l-0.16 -1.36c-0.65,0.12 -0.47,0.02 -0.49,0.75 -0.94,-0.28 -0.16,-0.41 -0.16,-1.08 0,-0.67 0,0.07 -0.24,-0.56l-0.29 -0.9c0.02,-0.34 -0.23,-0.09 0.21,-0.25l0 -0.46c-0.83,-0.02 -0.48,0.14 -0.89,-0.39 -0.13,-0.17 -1.29,-2.23 -2.8,-1.26 -0.39,0.25 -0.26,0.24 -0.3,0.54 -0.19,1.48 -0.14,0.23 -0.39,1.11 1.47,-0.33 0.27,-0.59 1.66,-0.03l0.54 0.11c0.12,0.01 -0.04,-0.07 0.32,0.03 0.7,0.19 0.03,0.17 0.72,0.35 -0.17,0.68 -0.19,0.83 -0.65,1.24 -0.47,-0.33 -0.31,0.02 -0.32,-0.77 -0.72,0.04 -0.74,0.08 -1.04,0.55 -0.22,0.35 -0.38,0.7 -0.42,1.15 0.33,0.15 0.89,0.22 1.3,0.31 -0.06,0.65 -0.13,0.72 -0.81,0.77l0 0.46c0.18,0.07 0.62,-0.1 0,0.77l-0.49 0c-0.09,-0.8 0.19,-0.28 -0.32,-0.46 -0.1,0.19 -0.29,0.65 -0.34,0.89 -0.14,0.65 0.07,0.06 -0.04,0.77 -0.09,0.56 -0.5,0.94 -0.37,1.83 0.42,2.82 0.05,1.03 0.07,1.94l0.3 0.63c0.07,0.18 0.17,0.7 0.22,0.89 0.38,-0.26 0.55,-0.65 1.01,-0.89 0.63,-0.33 0.27,-0.06 0.76,-0.2 1.14,-0.35 0.18,-0.6 0.3,-1.04 0.11,-0.43 0.63,-0.33 1.18,-0.33 0,1.1 -0.28,0.87 -0.49,1.7l-0.97 0c-0.16,0.96 -0.65,0.94 -0.65,1.39 0,0.99 0.15,0.57 0.73,1 0.29,0.22 0.39,0.44 0.57,0.7 -0.95,0.05 -0.73,0.9 -1.14,-0.77l-0.65 0c-0.09,1.05 -0.28,0.56 -0.81,0.77 0.57,2.31 1.67,1.28 2.27,1.24 -0.19,0.37 -0.95,0.93 -1.3,0.93 -1.1,0 -0.29,-0.09 -1.14,-0.31 0.05,0.6 0.21,0.53 0.59,0.82 0.33,0.26 0.49,0.41 0.7,0.72 0.79,-0.26 1.94,-0.34 2.27,-1.7 -1.05,0.27 -0.68,1.11 -2.27,1.24 0.14,-0.49 0.18,-0.34 0.94,-0.96 2.07,-1.71 2.23,-0.44 2.8,-2.74 1.49,0.12 1.3,0.28 1.3,1.54 0.64,0.01 0.38,-0.04 0.84,0.18l-0.51 0.59c0.3,0.43 0.58,0.41 0.31,0.66 -0.39,0.38 -0.44,-0.14 -0.47,-0.51 -1.12,-0.02 -0.33,-0.23 -1.3,-0.31 0.04,1.51 0.72,0.39 -0.11,2.06 -0.48,0.96 -0.41,1.86 -1.75,3.58 -1.01,1.29 -1.57,1.16 -2.52,1.16 -0.73,0 -2.37,-1.83 -2.43,-2.78 1.23,-0.03 0.84,-0.69 1.95,-1.08 0.11,0.81 -0.11,0.38 -0.32,1.24 0.45,-0.11 0.81,-0.25 0.81,-0.77 0,-1.67 -2.2,-0.53 -2.43,0.31 -0.81,-0.52 -1.44,-2.91 -1.46,-3.86 0.8,0.37 1.57,0.13 1.78,-0.64l-0.97 0.18c0.45,-0.64 0.49,-0.28 0.49,-1.42l0.97 0.18c-0.17,-1.02 0.25,-0.93 -1.46,-0.93 -1.49,0 -1.46,3.04 -1.46,-6.8zm-62.92 -5.98c-0.13,0.47 -0.12,0.22 -0.21,0.73l-1.46 0c0.02,-0.7 0.16,-0.61 0.16,-1.39l0 -3.09c0,-0.49 -0.16,-0.43 -0.16,-1.08 0,-0.43 0.53,-0.75 0.81,-0.93 0.47,0.43 0.98,1.93 1.89,3.29 0.36,0.54 0.55,0.49 0.7,1.03 -1.65,0 -1.42,0.32 -1.74,1.43zm39.55 7.22c0,-0.87 0.3,-1.74 0.51,-2.45l2.59 -9.27c0.81,-2.1 2.43,-1.28 4.69,-1.41 0.72,-0.04 0.62,-0.17 1.27,-0.13 0.46,0.03 0.6,0.13 1.32,0.13 0,2.01 -0.66,3.32 -1.1,5.13 -0.35,1.45 -0.68,2.78 -1.11,4.2 -0.98,3.28 -0.8,4.24 -3.97,4.21 -0.53,-0 -0.4,-0.15 -1.22,-0.05 -0.44,0.06 -3,0.31 -3,-0.37zm-23.86 -6.49c0.65,-0.17 0.5,-0.34 0.77,-0.97 0.34,-0.81 2.57,-5.17 2.94,-5.4 0.5,-0.31 0.65,-0.16 1.33,-0.14 1.9,0.07 1.13,0.31 0.33,3.9l-2.12 8.02c-0.28,1.04 -0.13,0.65 -0.65,1.39l-1.79 0c-0.48,-1.97 0.49,-1.61 0.49,-3.71 -0.78,0.2 -1.36,1.9 -1.71,2.7 -0.24,0.55 -0.48,0.94 -1.13,1.08 -2.12,0.46 -1.21,-2.08 -1.21,-5.16l-1.14 2.78c-0.19,0.69 -0.31,2.32 -1.13,2.32 -1.55,0 -2.33,0.7 -0.87,-3.92l1.15 -4c0.08,-0.41 0.05,-0.55 0.15,-0.94 1.39,-5.42 0.89,-4.42 4.12,-4.42 1.59,0 -0.3,5.15 0.49,6.49zm13.14 6.8c-0.83,0 -0.42,-1.09 -0.31,-1.68l2.4 -8.84c0.6,-1.82 0.43,-2.91 1.64,-2.91 1.79,0 1.51,0.34 0.49,4.02 -0.3,1.08 -0.61,2.15 -0.91,3.31 -0.31,1.17 -0.6,2.13 -0.91,3.31 -0.84,3.22 -0.64,2.81 -2.4,2.81zm20.77 -6.33c0,-1.15 0.75,-3.32 1.07,-4.39 1.03,-3.42 1.1,-2.87 6.72,-2.87 0.56,0 0.63,0.11 1.14,0.15 0,1.05 -0.27,1.79 -0.65,2.47l-4.05 0.16c-1.01,0.17 -1.56,2.21 -1.31,2.46 1.08,0.49 3.3,-0.18 4.38,0.31 0.39,0.37 -1.32,6.08 -1.62,6.65 -1,1.94 -1.12,1.38 -6.82,1.38 -0.37,0 -0.49,-0.11 -0.49,-0.46 0,-1.49 0.33,-1.77 1.07,-1.91 2.26,-0.44 3.58,0.63 4.4,-1.06l0.57 -1.65c0,-0.01 -0.01,-0.04 -0.01,-0.08 0,-0.39 -0.43,-0.51 -0.81,-0.52 -0.77,-0 -3.59,0.62 -3.59,-0.65zm-26.28 -6.92c2.27,-0.32 0.95,-0.12 2.1,-0.03 0.06,0.68 0.13,0.52 -0.06,1.32 -0.12,0.49 -0.22,0.89 -0.37,1.36l-2.33 7.98c0.63,0.29 1.29,0.42 2.03,0.08 0.97,-0.45 1.73,-4.71 2.21,-6.24 1.06,-3.39 0.49,-5.14 3.39,-4.5 0,1.12 -0.2,1.84 -0.47,2.64l-1.98 7.38c-0.79,3.13 -1.25,3.34 -2.9,3.09 -1.04,-0.16 -1.73,-0.01 -2.8,0.14 -3.37,0.48 -2.28,-0.42 -1.01,-5.29l1.23 -4.85c0.13,-0.47 0.3,-1.03 0.45,-1.58 0.16,-0.57 0.35,-0.98 0.49,-1.52zm11.84 -0.18c0.5,0 1.24,-0.04 1.44,-0.05l3.59 -0.11c0.9,0 0.96,0.15 1.78,0.15 0.2,0.81 -0.11,1.45 -0.32,2.32 -1.65,0.37 -1.81,-0.07 -2.28,0.76l-0.65 2.16c-0.21,0.93 -0.52,1.93 -0.76,2.83 -0.47,1.72 -0.79,3.91 -1.82,5.37 -2.93,-0.23 -1.45,-1.76 -1.13,-3.4 0.16,-0.85 0.4,-1.72 0.63,-2.49 0.26,-0.87 0.51,-1.64 0.71,-2.57 0.42,-1.94 0.74,-1.18 0.77,-2.36 -0.64,-0.14 -0.63,-0.15 -1.47,-0.15 -0.71,0.01 -0.95,0.13 -1.09,-0.34 -0.13,-0.42 0.45,-1.85 0.62,-2.14zm23.21 16.06c-0.67,0 -1.02,0.13 -1.47,0.45 -0.47,0.33 0.28,0.06 -0.47,0.32l0.59 -3.91c0.2,-0.72 0.19,-0.57 1.03,-0.57 0.09,-1.03 0.57,-1.19 -0.38,-1.34l-0.92 -0.2 0.64 -2.63c0.15,-0.44 0.17,-0.19 0.17,-0.92l0.16 0c0,0.98 -0.16,1.25 -0.16,2.26 0.85,-0.27 0.31,0.13 0.5,-0.56l0.94 -4.69c0.15,-0.55 0.44,-0.1 -0.02,-0.67 -0.67,0.53 -0.27,0.61 -0.54,1.34 -0.86,-0.49 0.28,-0.64 -2.16,-0.62 -0.84,0.01 -2.02,0.11 -2.6,-0.15 0.15,-0.61 0.04,-0.59 0.79,-0.64 0.76,-0.05 3.77,0.16 4.24,-0.29l0.97 -3.09c0.18,-0.89 0.22,-0.75 0.84,-1.21 0.46,-0.34 0.61,-0.83 1.28,-0.95 -0.03,1.22 -1.23,1.52 -1.08,2.16 0.33,1.48 1.67,-1.81 2.71,-2.47 -0.24,0.98 -1.46,1.94 -1.99,3.98 -0.19,0.72 -0.31,1.54 -0.52,2.44l-1.62 10.35c-0.47,3.2 0.18,1.61 -0.9,1.61zm6.98 -17.3c0.19,-0.68 0.98,-1.23 1.51,-1.65 4.43,-3.59 6.77,4.43 6.77,4.43 0,0.33 -0.06,0.2 -0.16,0.62 -0.15,-0.17 -0.08,-0.04 -0.27,-0.36 -0.69,-1.18 0.24,0.05 -1.35,-2.27 -0.38,-0.55 -1.35,-1.85 -2.27,-1.85 -1.25,0 -2.14,0.02 -3.27,1.36 -0.25,0.29 -0.48,0.67 -0.71,1.02l-0.83 1.01c0.39,-1.41 0.97,-1.52 1.41,-2.63 -0.6,0.15 -0.21,0.16 -0.81,0.31zm-3.57 4.63c0,-1.43 0.66,-2.36 1.53,-3.49l1.04 -1.48c1.21,-1.43 0.35,-0.8 1.17,-1.2l-1.53 2.25c-0.6,0.84 -1.64,2.29 -1.84,3.19 -0.17,0.78 0.2,0.34 -0.36,0.73zm0.32 -5.71c0.04,-0.65 0.44,-1.29 0.81,-1.54 0.41,0.69 -0.38,1.43 -0.81,1.54zm-11.52 -1.08c0.01,-0.43 0.12,-0.37 0.49,-0.46 -0.13,0.47 0,0.34 -0.49,0.46zm13.31 0.31c0,-0.96 0.33,-1.22 0.97,-1.54 -0.04,0.51 -0.13,0.51 -0.39,0.87 -0.25,0.35 -0.27,0.45 -0.59,0.68zm10.06 3.86l-0.16 0c0,-1.92 -2.7,-5.21 -2.76,-5.87 0.91,0.58 1.51,1.57 1.92,2.49 0.24,0.54 0.39,0.99 0.58,1.61 0.26,0.89 0.42,0.61 0.42,1.76zm-14.12 -5.71c0.09,-0.35 0.13,-0.36 0.16,-0.77l0.3 0.01 0.19 0.3c-0.28,0.4 -0.08,0.32 -0.65,0.46zm-57.32 -2.27l0.04 1.65 -1.12 0.49c-0.36,0.17 -0.54,0.33 -0.99,0.44 -0.11,-0.31 -0.16,-0.26 -0.16,-0.62l2.23 -1.96zm67.06 0.26l0 -0.31c0.94,0.07 2.03,0.95 2.76,1.39 1.76,1.05 2.42,1.21 3.58,3.08 0.52,0.84 0.68,1.66 0.97,2.48 0.25,0.73 0.4,2.27 0.86,3.66 0.19,0.57 0.27,1.65 0.27,2.36l-0.16 0c0,-0.79 -0.02,-0.57 -0.22,-1.18l-0.42 -1.61c-0.26,-1.26 0.06,-0.7 -0.43,-2.22l-0.44 -1.44c-0.83,-3.07 -2.19,-3.72 -5.06,-5.37 -0.57,-0.33 -1.07,-0.69 -1.72,-0.84zm-68 4.94l0 -0.46c-2.53,0.64 1.89,5.29 2.11,6.18 -0.97,0.22 -0.75,0.32 -1.43,-0.34 -1.28,-1.25 -1.51,-2.31 -2.11,-3.71 -0.8,-1.85 -2.73,0.71 -2.76,1.58 -0.02,0.61 0.07,0.24 0.06,0.74 -0,0.19 -0.08,0.42 -0.09,0.79 -0.42,-0.29 -0.38,-0.6 -0.65,-1.08 -1.98,0 -0.7,0.93 -3.08,0.93 0.06,-0.64 -0.07,-0.35 0.41,-0.69 0.6,-0.43 2.02,-1.33 2.25,-2.03 0.12,-0.35 0.06,-0.5 -0.05,-0.83 -0.2,-0.58 -0.53,-0.8 -0.83,-1.24 -1.06,0.23 -1.52,0.84 -2.11,0 0.19,-0.67 0.33,-0.45 0.86,-0.89 0.32,-0.26 0.64,-0.58 0.57,-1.08 -0.09,-0.68 -1.05,-1.71 -1.1,-2.36 0.5,0.32 1.42,2.03 1.46,2.16 1.44,0 0.94,0.02 1.79,-0.61 0.4,-0.3 0.95,-0.62 0.92,-1.21 -0,-0.09 -0.77,-1.91 -0.77,-3.73 0.59,0 0.89,-0.28 1.32,1.06 0.22,0.67 0.25,1.84 1.51,1.35 0.7,-0.28 1,-0.94 1.88,-1.01 -0.03,1.19 -0.84,1.42 -1.9,2.37 -1.05,0.94 -0.33,1.87 0.27,2.73 0.3,-0.14 0.5,-0.17 0.8,-0.32 0.81,-0.4 1.18,-0.9 2.28,-0.92l0 -0.46c0.31,-0.87 -0.07,-1.69 0.43,-2.22 0.61,-0.65 2.87,-0.88 1.67,1.89 -0.09,0.21 -0.26,0.62 -0.42,0.84 -0.24,0.32 -0.19,0.36 -0.7,0.42l-0.49 0 0.49 0.46c-0.42,1.12 -0.65,0.6 -0.65,2.16 0.98,0 1.05,0.16 1.6,-0.33 2.15,-1.91 1.16,-2.78 1.35,-3.96 0.13,-0.81 1.09,-1.9 2.13,-1.17 0.47,0.33 0.51,0.68 0.45,1.44 -0.06,0.85 -0.38,0.8 -0.23,1.29 0.34,0.84 1.64,0.62 2.02,-0.18 0.75,-1.57 1.93,-2.59 3.9,-2.79 1.38,-0.14 1.69,0.3 2.41,0.76l-0.14 1.11c-0.26,0.75 -0.3,2.5 1.13,1.69 1.01,-0.58 1.33,-2.09 1.94,-2.95l0.97 0c0.18,0.64 0.29,0.59 0.9,0.27 0.37,-0.2 0.62,-0.42 1.04,-0.58 0.79,-0.31 1.85,-0.47 2.2,0.39 0.56,1.36 -1.68,3.62 -1.23,4.56 0.72,0.68 2.51,-1.48 2.85,-1.92l1.69 -3.18c-1.34,0 -1.23,-0.02 -2.11,-0.46 0,-2.26 0.36,-0.68 2.25,-0.96 0.87,-0.13 0.73,-0.22 1.03,-0.86 0.23,-0.47 0.93,-2.06 1.31,-2.31 0.35,-0.22 1.19,-0.35 1.62,-0.08 0.5,0.31 0.21,0.35 0.16,0.52 -0.13,0.43 0.04,-0.08 -0.1,0.21 -0.27,0.59 -0.7,1.01 -0.76,1.62 0.77,-0.06 1.22,-0.53 2.07,-0.43 1.97,0.21 1.7,2 0.52,2.29 -1.29,-0.1 -0.79,-0.76 -2.75,-0.31 -1.2,0.28 -1.1,0.63 -1.66,1.51 -3.17,5.01 -1.33,5.9 1.51,3.29l0.32 -0.32c0.86,-0.93 1.35,-1.92 2.3,-2.76 2.72,-2.4 7.68,-1.77 6.13,0.43 -0.91,-0.07 -0.57,-0.58 -1.95,-0.63 -3.88,-0.13 -5.81,5.16 -3.17,4.27 1.73,-0.58 2.28,-2.92 3.66,-3.8 0.36,0.18 0.49,0.26 0.81,0.46 -0.1,1.15 -0.65,1.51 -0.61,3.06l0.45 0.5c1.15,-0.02 2.1,-0.82 2.72,-1.42 2.16,-2.09 2.08,-4.29 7.66,-4.29l1.55 -2.85c1,-1.59 0.37,-1.66 2.67,-1.48 -0.02,0.68 -0.16,0.76 -0.46,1.26l-2.95 5.22c-0.3,0.59 -1.92,2.69 -1.31,3.26 0.72,0.68 2.61,-1.33 2.98,-1.68 0.92,-0.86 1,-1.86 2.18,-2.86 1.38,-1.17 5.11,-0.88 4.48,1.3 -0.19,0.65 -0.43,1.1 -0.9,1.48 -1.54,1.23 -2.18,0.85 -3.85,0.81 0.08,0.88 0.68,1.5 1.63,1.55 1.68,0.1 3.16,-1.21 4.17,-2.22 0.27,-0.27 0.5,-0.58 0.76,-0.83 1.03,-1.01 1.93,0.12 -0.24,2.25l-1.16 1.06c-0.8,0.52 -4.82,0.19 -6.13,0.19l-0.28 -0.5c-0.3,-0.47 0.02,-0.37 -0.69,-0.42 -0.12,0.43 -0.2,0.37 -0.5,0.61 -1,0.79 -1.01,0.31 -2.42,0.32 -0.65,0 -1.3,0 -1.95,0 -0.01,-0.61 0.04,-0.36 -0.16,-0.77l-1.29 0.78c-0.09,0.01 -0.53,0 -0.65,0 -1.33,-0.02 -1.46,0.28 -2.44,0.3 -0.08,-0.13 -0.14,-0.25 -0.23,-0.4 -0.02,-0.04 -0.11,-0.16 -0.12,-0.19l-0.13 -0.18c-0.82,0.21 -0.17,0.3 -0.99,0.45 -1.1,0.2 -3.05,0.02 -4.2,0.02 -0.21,-0.41 -0.15,-0.17 -0.16,-0.77 -0.4,0.1 -0.42,0.15 -0.65,0.46l-3.9 0.46c-0.29,-0.52 -0.01,-0.29 -0.49,-0.62 -0.92,0.23 -0.59,0.76 -2.59,0.74 -2.48,-0.03 -1.53,0.26 -2.44,0.49 -0.55,-0.36 -0.52,-0.54 -0.81,-1.08 -0.96,0.52 -0.65,0.66 -1.89,0.55 -1.08,-0.1 -1.29,0.19 -2.49,-0.08 -0.35,-0.99 0.04,-1.8 0.43,-2.53 0.46,-0.85 0.98,-1.12 0.87,-1.95 -1.62,0.13 -2.56,2.02 -3.2,3.14l-0.44 0.82c-0.29,0.58 -0.48,0.57 -0.91,0.98 -0.1,0.09 -0.04,0.11 -0.32,0.31 -1.16,-0.74 -0.47,-0.71 -0.85,-1.67 -0.41,-1.03 -1.19,0.1 -1.46,0.4 -0.91,1.02 -2.07,0.65 -4.51,0.65 -0.31,-0.56 -0.65,-0.87 -0.81,-1.54 -3.14,0 -1.41,-0.08 -2.92,-0.46 -0.37,0.26 -0.38,0.41 -0.65,0.77 -1.4,1.91 -4.98,3.23 -5.52,-0zm83.25 6.49c0,-0.73 -0.64,-0.14 -0.66,-1.53 -0.02,-1.3 -0.03,-2.46 -1,-3.38l-1.71 -1.46c-0.23,-0.21 -0.34,-0.33 -0.57,-0.54l-0.83 -0.75c-0.02,-0.02 -0.06,-0.06 -0.08,-0.08 -0.85,-0.79 -1.5,-1.57 -2.46,-2.3 -1.77,-1.35 -2.73,-2.89 -4.68,-4.05 -0.26,-0.15 -0.46,-0.26 -0.7,-0.41 -0.24,-0.15 -0.08,-0.08 -0.39,-0.25l-1.69 -1.02c-1.28,-0.71 -1.09,-0.88 -1,-2.03l-0.15 -0.77c-0.48,0.24 -0.29,0.31 -0.35,0.94 -0.17,2.1 -0.18,1.4 2.68,3.2 3.31,2.08 1.65,0.84 4.44,3.5 0.43,0.41 6.3,5.57 6.69,6.14 -0.72,-0.16 -1.08,-0.59 -1.79,-0.77l0.62 0.65c2.22,1.45 2.23,0.61 2.29,3.54 0.02,1.16 0.3,0.79 0.82,1.53 -0.16,0.57 -0.21,0.31 -0.51,0.9 -0.51,0.99 -0.29,2.57 -0.42,3.61 -0.18,1.45 -0.36,3.56 -0.36,4.91 0,0.36 0.32,0.69 0.49,0.93 -0.56,-0.12 -1.1,-0.52 -1.59,-0.8 -0.76,-0.44 -2.57,-0.96 -2.56,-2.08 0.01,-0.71 0.25,-1.11 0.25,-2.06 0,-0.85 -0.84,-5.05 -1.12,-6.04l-1.03 -4.43c-0.35,-1.38 -0.96,-2.54 -1.71,-3.61 -0.75,-1.07 -5.83,-4.14 -6.85,-4.14 -2.03,0 -1.78,1.45 -3.06,2.03 -0.95,0.44 -1.78,1.75 -2.78,1.83l-0.65 -1.39c-2.51,0 -1.91,0.1 -2.83,-1.33 -1.24,-1.93 -4.35,-1.35 -5.82,-0.1 -1.4,1.19 -0.9,1.95 -1.9,2.05 -0.27,-0.55 0.29,-1.22 0.62,-1.73 0.66,-1.03 2.63,-4.07 2.63,-5.07 0,-0.14 -0.51,-0.69 -0.65,-0.78 -1.09,-0.73 -1.89,0.05 -2.92,0.31 -0.05,-0.59 0.17,-0.54 -0.4,-0.51 0.15,1.04 -0.25,1.83 -0.79,2.78l-0.92 1.75c-1.74,0 -2.89,0.09 -4.23,0.91l-2.57 2.34c-1.21,1.83 -3.95,3.74 -2.15,0.43 0.4,-0.74 0.11,-0.13 0.61,-0.66 0.18,-0.19 0.4,-0.46 0.4,-0.7 0,-3.58 -4.2,-2.1 -4.9,-2.25 -0.54,-0.12 -0.21,-0.81 -0.45,-1.31 -0.21,-0.44 -0.53,-0.62 -1.09,-0.82 -0.43,-0.15 -0.78,-0.26 -1.51,-0.26 0.1,-1.13 0.45,-1.96 -1.35,-2.1 -1.67,-0.13 -2.22,0.95 -2.81,2.15 -1.39,2.81 -1.76,0.07 -3.42,1.38 -0.47,0.38 -0.23,0.19 -0.37,0.74 -0.35,1.41 -0.8,-0.28 -3.25,0.93 -1.06,0.52 -0.47,-0.01 -1.94,-0.01 -1.91,0 -1.36,2.51 -2.6,2.93 -0.23,-0.54 0.27,-0.59 0.26,-1.38 -0.01,-1.73 -2.02,-2.31 -3.65,-2.01 -1.28,0.24 -2.03,0.58 -2.89,1.27 -1.18,0.94 -1.16,1.95 -1.83,2.12 0.11,-1.3 0.67,-2.09 -0.44,-2.98 -1.36,-1.09 -1.95,-0.03 -2.97,0.05 -0.19,-0.67 -0.77,-1.06 -1.54,-1 -1.15,0.09 -1.19,0.42 -1.87,0.85 0,-0.53 0.07,-0.86 -0.12,-1.28 -0.17,-0.38 -0.29,-0.58 -0.69,-0.58 -1.65,0 -1.47,0.99 -2.6,1.08 -0.5,-0.98 -0.86,-2.78 -2.43,-2.78 -1.7,0 -0.71,2.71 -0.59,3.5 0.05,0.35 0.15,0.76 0.23,1.01 0.17,0.52 0.18,0.14 0.2,0.89 -0.74,0.18 -0.47,0.4 -1.3,0.46 -0.21,-0.76 -0.96,-1.81 -1.41,-2.52 -0.26,-0.41 -0.3,-0.38 -0.55,-0.72 -0.43,-0.57 -0.6,-1 -1.19,-1.35 -0.69,-0.4 -1.39,0.26 -1.39,0.73 0,1.52 2.6,3.97 2.6,5.41 0,0.51 -1.9,0.44 -1.69,1.65 0.1,0.56 1.22,1.44 1.85,1.44 0.61,0 1.46,-0.71 1.46,0.15 0,0.69 -1.14,1.35 -1.71,1.77 -1.4,1.02 -3.28,2.05 0.37,2.46 1.47,0.17 1.13,-0.32 2.16,-0.73 0.1,0.45 0.2,0.58 0.29,1 0.21,0.93 0.27,1.95 0.68,2.75 -0.84,0.42 -0.96,0.33 -1.27,1.26l-1.1 3.59c-0.68,1.99 -0.51,1.15 -0.38,2.57 0.78,0.17 1.25,0.04 1.96,0.17 0.9,0.15 0.2,0.43 -0.2,0.89 -1.11,1.25 -1.77,4.31 -0.45,5.73 2.3,2.45 5.18,1.25 7.61,-0.29 0.45,0.28 1.22,0.8 1.46,1.24 0.22,0.4 -0.45,2.62 -0.57,3.01 -0.32,1.04 -0.65,2.01 -0.89,3.01l-5.52 0c0.02,-0.93 0.32,-0.67 0.32,-1.39 0,-0.15 -0.62,-0.77 -0.97,-0.77 -4.54,0 -2.66,0.04 -3.73,2.16 -3.05,0 -3.61,-0.54 -4.29,1.94 -1.7,6.2 -3.03,5.63 3.15,5.63l13.14 0c0.32,-0.87 0.61,-1.76 0.87,-2.72l0.75 -2.84 4.06 0c0,2.64 -2.87,5.71 0.49,5.71 1.75,0 4.35,0.26 6.01,-0.16 0.45,-0.11 0.48,-0.22 0.87,-0.16 2.53,0.42 4.32,0.33 6.92,0.33 0.71,0 0.89,-0.31 1.3,-0.31 0.42,0 0.69,0.31 1.46,0.31l14.61 0c0.67,0 0.33,-0.28 0.93,-0.23 0.44,0.04 0.18,0.18 1.01,0.23 0.77,0.05 1.8,-0.01 2.6,-0.01 1.81,0 3.17,0.07 4.87,0.15 3.22,0.15 6.69,-0.04 9.9,0.17 6.4,0.42 13.25,0.3 19.96,0.3 -0.14,-0.5 0.01,-0.3 -0.48,-0.47 -0.01,-0 -0.83,-0.13 -0.85,-0.13 -0.67,-0.04 -0.93,0.16 -1.43,-0.17 1.04,-0.08 2.38,-0.6 3.23,-0.94 0.42,-0.17 0.34,-0.11 0.72,-0.39 1.36,-1.03 3.12,-4.37 3.77,-5.99l0.33 -1.08c0.37,-2.29 0.3,-0.3 0.38,-3.65 0.02,-0.83 0.24,-1.07 0.31,-1.71 0.08,-0.66 -0.03,-1.24 0.09,-1.93 0.3,-1.82 -0.18,-1.86 -1.45,-2.46 -1.28,-0.6 -1.86,-0.44 -1.86,-2.24 0,-0.85 2.65,0.55 2.6,-2.16 -0.04,-2.39 1,-5.19 -0.29,-6.07 -0.4,-0.27 -0.56,-0.24 -1.18,-0.26 -1.65,-0.05 -0.97,-0.93 -0.97,-2.01z"/>
   <path class="fil1" d="M41.74 37.56c-1.55,0 -1.61,-0.77 0,-0.77 0.56,0 0.63,0.11 1.14,0.15l0 0.31c-0.4,0.09 -0.75,0.31 -1.14,0.31zm10.87 -6.02c-1.33,0 0.59,-1.85 1.46,-1.85 0.82,0 0.98,0.55 0.68,1.09 -0.45,0.8 -1.36,0.77 -2.14,0.77zm-35.05 0.62c0,-1.24 1.68,-2.94 3.08,-2.47 -0.17,0.4 -0.06,0.17 -0.4,0.4 -1.95,1.33 -0.33,2.04 0.07,3 -1.13,1.61 -2.76,0.33 -2.76,-0.93zm21.58 5.56c0,1.24 3.9,1.7 5.48,-0.03 0.82,-0.9 0.35,-0.94 1.7,-1.47 1.85,-0.73 2.55,-1.8 3.9,-2.51 0.59,0.78 0.36,0.89 1.12,1.51 1.46,1.17 4.09,0.52 5.26,-0.58 0.79,0.41 0.5,0.72 1.35,0.93 1.16,-0.74 1.96,-4.78 4.06,-5.1 -0.01,0.81 0.02,0.54 -0.34,1.06 -0.73,1.05 -2.59,4.03 0.18,3.73 0.59,-0.84 0.87,-2.06 1.5,-2.9 0.53,-0.7 1.33,-1.81 2.39,-1.89 -0.04,0.74 -0.35,0.86 -0.69,1.51 -0.31,0.58 -0.5,0.76 -0.65,1.41 -0.36,1.62 1.35,2.99 3.62,1.42 0.41,-0.29 0.97,-0.72 1.3,-1.08 0.11,-0.12 0.12,-0.15 0.31,-0.32 0.81,-0.74 1.58,-1.61 0.98,-2.47 -1.43,0.32 -2.15,2.72 -3.61,2.74 -1.42,0.02 0.85,-2.74 0.85,-4.13 0,-2.39 -3.57,0.11 -3.73,0.15 -0.16,-1.89 -2.65,-0.38 -3.41,0 -0.14,-0.56 -0.25,-0.77 -0.97,-0.77 -0.46,0 -0.63,0.72 -0.79,1.1 -0.01,0.03 -0.03,0.08 -0.05,0.11 -0.74,1.68 -3.27,4.2 -5.33,4.2 -0.92,0 -1.71,-0.68 -1.78,-1.54 1.47,0 1.64,0.33 2.93,-0.3 0.73,-0.35 1.61,-0.84 1.61,-1.86 0,-1.36 -0.52,-2.16 -2.11,-2.16 -2.71,0 -3.08,1.8 -3.99,3.16 -0.4,0.6 -1.26,1.3 -1.81,1.83 -0.55,0.53 -1.42,1.29 -2.15,1.35 0.09,-0.99 3.01,-4.79 1.14,-4.79 -0.95,0 -2.25,3.71 -4.22,3.71 -1.18,0 -0.46,-1.73 -0.2,-2.21 0.56,-1.01 1.76,-1.97 3.12,-1.97 2.38,0 1.72,0.44 2.76,0.46 0.08,-0.35 0.16,-0.36 0.16,-0.77 0,-1.44 -4.68,-1.9 -7.26,1.43 -0.56,0.72 -0.83,1.21 -1.55,1.92 -1.07,1.06 -3.04,1.89 -3.04,0.51 0,-1.44 1.59,-3.09 -0.32,-3.09 -0.13,0 -2.41,3.15 -3.27,3.54 -2.23,1.02 -1.48,-1.82 -0.14,-2.93 3,-2.49 5.36,0.36 5.36,-1.23 0,-1.04 -3.37,-2.56 -6.86,0.73 -1.15,1.08 -1.7,2.66 -3.27,3.39 -0.45,0.21 -0.78,0.42 -1.21,0.21 -1.88,-0.93 2.02,-3.85 2.41,-4.68 -1.15,-1.11 -2.06,0.38 -3.73,0.51 -0.2,-0.54 -0.08,-1.24 -0.81,-1.24 -0.46,0 -1.14,0.49 -1.14,0.93 0,0.88 0.48,2.32 -1.27,2.84 -1.63,0.49 -0.68,-2.22 -0.68,-2.22 0,-2.78 -4.71,-1.38 -5.89,0.58 -0.21,0.35 -0.29,0.65 -0.56,1.01 -0.63,0.83 -1.63,1.56 -2.58,2.02 -0.69,0.34 -1.61,0.7 -2.41,0.34 -0.8,-0.36 -0.96,-1.17 -0.79,-1.98 0.17,-0.83 0.52,-1.56 1.2,-1.96 1.59,-0.94 1.21,0.03 1.13,0.92 0.49,0.31 0.52,0.72 1.24,0.28 1.56,-0.95 0.1,-2.75 -1.57,-2.75 -3.5,0 -5.1,4.86 -2.94,6.51 2.84,2.17 6.13,-1.23 6.83,-1.41 0.42,0.3 0.52,0.82 1.1,1.27 2.36,1.79 4.02,-0.85 4.68,-1.16 0.51,-0.18 1.05,-0.07 1.66,-0.27 2.44,-0.81 0.72,-2.46 3.15,-2.46 -0.34,0.78 -1.51,1.3 -1.51,2.47 0,1.47 0.86,2.21 2.54,2.09 1.68,-0.13 1.85,-1.07 2.82,-1.31 0.62,0.43 0.06,0.24 0.6,0.82 0.73,0.77 2.34,0.36 3.06,-0.12 0.65,-0.43 0.56,-0.79 1.37,-0.85 0.02,1.13 0.85,1.7 1.95,1.7 1.27,0 2.3,-1.02 3.3,-1.54 0.43,0.53 0.49,1.24 1.57,1.24 1.54,0 1.67,-0.54 2.6,-0.62 -1.16,2.8 -5.68,-0.55 -5.68,3.09z"/>
   <path class="fil1" d="M67.21 9.76c0.02,-1.04 1.39,-1.85 1.62,-1.85 2.12,0 0.82,1.45 0.05,1.75 -0.68,0.27 -1.01,0.14 -1.67,0.1zm-42.52 1.08c0,-0.7 0.63,-1.56 1.05,-1.94 0.69,-0.63 1.02,-0.73 2.2,-0.69 -0.36,0.69 -1.3,0.5 -1.3,1.24 0,1.14 -0.19,1.6 0.81,1.85 -0.04,1.75 -2.76,1.42 -2.76,-0.46zm32.29 1.24c-0.26,-0.74 -0.12,-1.23 0.21,-1.81 0.15,-0.28 0.75,-1.01 0.98,-1.23 1.11,-1.06 2,-1.29 3.35,-1.29 -0.05,0.61 -1.25,2.16 -1.69,2.72 -0.86,1.1 -1.55,1.61 -2.86,1.61zm-40.41 -1.7c-0.5,0.04 -1.68,0.74 -2.11,1.08 -0.45,0.35 -0.34,0.41 -0.49,0.62 0.54,3.23 4.11,1.91 5.52,0 0.26,-0.36 0.28,-0.51 0.65,-0.77 1.51,0.38 -0.22,0.46 2.92,0.46 0.16,0.67 0.5,0.99 0.81,1.54 2.43,0 3.59,0.37 4.51,-0.65 0.26,-0.3 1.05,-1.43 1.46,-0.4 0.38,0.96 -0.31,0.93 0.85,1.67 0.29,-0.2 0.23,-0.22 0.32,-0.31 0.43,-0.41 0.62,-0.41 0.91,-0.98l0.44 -0.82c0.64,-1.11 1.58,-3.01 3.2,-3.14 0.12,0.83 -0.41,1.1 -0.87,1.95 -0.39,0.73 -0.78,1.54 -0.43,2.53 1.21,0.27 1.41,-0.02 2.49,0.08 1.24,0.12 0.93,-0.03 1.89,-0.55 0.29,0.54 0.26,0.72 0.81,1.08 0.91,-0.23 -0.04,-0.52 2.44,-0.49 2,0.02 1.67,-0.51 2.59,-0.74 0.47,0.33 0.2,0.1 0.49,0.62l3.9 -0.46c0.23,-0.31 0.24,-0.36 0.65,-0.46 0.01,0.61 -0.04,0.36 0.16,0.77 1.15,0 3.1,0.18 4.2,-0.02 0.82,-0.15 0.17,-0.24 0.99,-0.45l0.13 0.18c0.02,0.03 0.1,0.15 0.12,0.19 0.1,0.16 0.15,0.27 0.23,0.4 0.98,-0.02 1.11,-0.33 2.44,-0.3 0.12,0 0.56,0.01 0.65,-0l1.29 -0.78c0.21,0.41 0.15,0.17 0.16,0.77 0.65,0 1.3,-0 1.95,-0 1.41,-0.01 1.42,0.47 2.42,-0.32 0.3,-0.23 0.38,-0.18 0.5,-0.61 0.72,0.06 0.39,-0.04 0.69,0.42l0.28 0.5c1.32,0 5.33,0.33 6.13,-0.19l1.16 -1.06c2.16,-2.13 1.27,-3.26 0.24,-2.25 -0.25,0.25 -0.49,0.56 -0.76,0.83 -1.01,1.01 -2.49,2.32 -4.17,2.22 -0.95,-0.06 -1.55,-0.68 -1.63,-1.55 1.67,0.04 2.31,0.42 3.85,-0.81 0.47,-0.38 0.72,-0.83 0.9,-1.48 0.63,-2.19 -3.09,-2.47 -4.48,-1.3 -1.18,1 -1.26,2.01 -2.18,2.86 -0.37,0.35 -2.26,2.36 -2.98,1.68 -0.6,-0.57 1.01,-2.68 1.31,-3.26l2.95 -5.22c0.3,-0.51 0.44,-0.59 0.46,-1.26 -2.29,-0.18 -1.67,-0.11 -2.67,1.48l-1.55 2.85c-5.59,0 -5.5,2.2 -7.66,4.29 -0.62,0.6 -1.57,1.4 -2.72,1.42l-0.45 -0.5c-0.03,-1.54 0.51,-1.9 0.61,-3.06 -0.32,-0.21 -0.45,-0.28 -0.81,-0.46 -1.38,0.88 -1.93,3.22 -3.66,3.8 -2.64,0.88 -0.71,-4.4 3.17,-4.27 1.38,0.05 1.04,0.56 1.95,0.63 1.55,-2.2 -3.41,-2.83 -6.13,-0.43 -0.95,0.84 -1.44,1.83 -2.3,2.76l-0.32 0.32c-2.84,2.61 -4.68,1.72 -1.51,-3.29 0.56,-0.88 0.46,-1.24 1.66,-1.51 1.97,-0.45 1.46,0.2 2.75,0.31 1.18,-0.29 1.45,-2.07 -0.52,-2.29 -0.86,-0.09 -1.31,0.37 -2.07,0.43 0.05,-0.61 0.48,-1.04 0.76,-1.62 0.13,-0.29 -0.03,0.23 0.1,-0.21 0.05,-0.17 0.34,-0.21 -0.16,-0.52 -0.43,-0.27 -1.28,-0.14 -1.62,0.08 -0.38,0.24 -1.09,1.84 -1.31,2.31 -0.31,0.64 -0.17,0.74 -1.03,0.86 -1.89,0.28 -2.25,-1.3 -2.25,0.96 0.88,0.45 0.77,0.46 2.11,0.46l-1.69 3.18c-0.34,0.44 -2.13,2.6 -2.85,1.92 -0.46,-0.94 1.79,-3.2 1.23,-4.56 -0.35,-0.86 -1.41,-0.69 -2.2,-0.39 -0.42,0.16 -0.67,0.38 -1.04,0.58 -0.61,0.32 -0.72,0.37 -0.9,-0.27l-0.97 0c-0.6,0.86 -0.92,2.38 -1.94,2.95 -1.42,0.81 -1.39,-0.94 -1.13,-1.69l0.14 -1.11c-0.72,-0.46 -1.03,-0.9 -2.41,-0.76 -1.97,0.2 -3.15,1.22 -3.9,2.79 -0.38,0.8 -1.68,1.02 -2.02,0.18 -0.15,-0.49 0.17,-0.44 0.23,-1.29 0.06,-0.76 0.02,-1.11 -0.45,-1.44 -1.04,-0.74 -2,0.35 -2.13,1.17 -0.19,1.18 0.8,2.05 -1.35,3.96 -0.55,0.49 -0.62,0.33 -1.6,0.33 0,-1.57 0.23,-1.04 0.65,-2.16z"/>
   <path class="fil1" d="M77.76 27.98c-0.84,0 -0.65,-0.14 -0.65,-2.01 0,-0.57 0.36,-0.46 1.14,-0.46 0.7,0.96 0.23,0.36 0.11,0.99 -0.1,0.54 0.12,1.48 -0.59,1.48zm0.16 -5.87c0,-0.3 0.22,-0.5 0.32,-0.93 0.71,0.02 0.84,0.23 1.3,0.46l-0.18 0.3c-0.2,0.45 -0.04,0.27 0.02,0.93 -0.77,0 -1.46,-0.04 -1.46,-0.77zm-2.6 3.86c0,9.84 -0.03,6.8 1.46,6.8 1.71,0 1.29,-0.09 1.46,0.93l-0.97 -0.18c-0.01,1.14 -0.04,0.78 -0.49,1.42l0.97 -0.18c-0.21,0.77 -0.98,1.01 -1.78,0.64 0.02,0.95 0.65,3.35 1.46,3.86 0.24,-0.84 2.43,-1.98 2.43,-0.31 0,0.52 -0.36,0.66 -0.81,0.77 0.21,-0.86 0.44,-0.42 0.32,-1.24 -1.1,0.4 -0.72,1.06 -1.95,1.08 0.06,0.95 1.7,2.78 2.43,2.78 0.95,0 1.51,0.14 2.52,-1.16 1.35,-1.72 1.28,-2.62 1.75,-3.58 0.83,-1.67 0.14,-0.55 0.11,-2.06 0.97,0.08 0.18,0.29 1.3,0.31 0.03,0.37 0.08,0.88 0.47,0.51 0.27,-0.25 -0.01,-0.24 -0.31,-0.66l0.51 -0.59c-0.46,-0.22 -0.2,-0.16 -0.84,-0.18 0,-1.27 0.19,-1.43 -1.3,-1.54 -0.56,2.31 -0.72,1.04 -2.8,2.74 -0.76,0.63 -0.8,0.47 -0.94,0.96 1.59,-0.13 1.22,-0.97 2.27,-1.24 -0.33,1.36 -1.49,1.44 -2.27,1.7 -0.22,-0.31 -0.37,-0.46 -0.7,-0.72 -0.39,-0.3 -0.54,-0.23 -0.59,-0.82 0.85,0.22 0.04,0.31 1.14,0.31 0.35,0 1.11,-0.55 1.3,-0.93 -0.6,0.05 -1.71,1.08 -2.27,-1.24 0.53,-0.21 0.72,0.28 0.81,-0.77l0.65 0c0.41,1.67 0.18,0.82 1.14,0.77 -0.18,-0.25 -0.27,-0.48 -0.57,-0.7 -0.58,-0.43 -0.73,-0.01 -0.73,-1 0,-0.45 0.49,-0.43 0.65,-1.39l0.97 0c0.2,-0.83 0.49,-0.59 0.49,-1.7 -0.55,0 -1.06,-0.09 -1.18,0.33 -0.12,0.45 0.84,0.7 -0.3,1.04 -0.49,0.15 -0.13,-0.12 -0.76,0.2 -0.46,0.24 -0.63,0.63 -1.01,0.89 -0.04,-0.18 -0.15,-0.7 -0.22,-0.89l-0.3 -0.63c-0.02,-0.91 0.35,0.88 -0.07,-1.94 -0.13,-0.89 0.28,-1.27 0.37,-1.83 0.11,-0.71 -0.1,-0.12 0.04,-0.77 0.05,-0.25 0.24,-0.7 0.34,-0.89 0.51,0.18 0.23,-0.34 0.32,0.46l0.49 0c0.62,-0.88 0.18,-0.7 0,-0.77l0 -0.46c0.68,-0.05 0.76,-0.13 0.81,-0.77 -0.41,-0.09 -0.96,-0.16 -1.3,-0.31 0.04,-0.45 0.2,-0.79 0.42,-1.15 0.3,-0.48 0.32,-0.51 1.04,-0.55 0.02,0.79 -0.15,0.44 0.32,0.77 0.46,-0.41 0.48,-0.56 0.65,-1.24 -0.69,-0.18 -0.02,-0.16 -0.72,-0.35 -0.36,-0.1 -0.2,-0.02 -0.32,-0.03l-0.54 -0.11c-1.4,-0.56 -0.19,-0.3 -1.66,0.03 0.25,-0.88 0.19,0.38 0.39,-1.11 0.04,-0.3 -0.09,-0.29 0.3,-0.54 1.51,-0.97 2.67,1.09 2.8,1.26 0.41,0.52 0.06,0.37 0.89,0.39l0 0.46c-0.43,0.16 -0.19,-0.09 -0.21,0.25l0.29 0.9c0.24,0.62 0.24,-0.12 0.24,0.56 0,0.67 -0.77,0.8 0.16,1.08 0.02,-0.73 -0.17,-0.63 0.49,-0.75l0.16 1.36c0.55,-0.04 1.44,-0.49 1.95,-0.62 0.22,0.43 0.16,0.3 0.16,0.93 0.69,-0.44 0.49,-0.5 0.49,-1.54 -1.28,0.1 -1.19,0.4 -1.95,0.46 0,-1.7 0.65,-0.59 0.65,-2.16 0,-0.47 -0.28,-0.52 -0.65,-0.62 -0.49,0.83 0.16,0.69 0.16,1.24 0,0.59 0.05,0.06 -0.16,0.46 -0.42,-0.27 -0.43,-0.16 -0.49,-0.77l-0.32 0c0.07,0.77 0.5,0.76 -0.32,0.9 -0.89,-1.4 0.88,-1.43 -1.36,-5.01 -2.48,-3.96 -5.29,-0.48 -6.11,2.25 -0.15,0.49 -0.25,0.93 -0.38,1.49 -0.44,1.88 -0.36,1.19 -0.59,3.15 -0.05,0.43 -0.32,1.42 -0.32,1.54z"/>
   <path class="fil2" d="M28.11 20.72c-0.79,-1.34 1.1,-6.49 -0.49,-6.49 -3.22,0 -2.73,-1 -4.12,4.42 -0.1,0.39 -0.07,0.54 -0.15,0.94l-1.15 4c-1.46,4.62 -0.68,3.92 0.87,3.92 0.82,0 0.94,-1.62 1.13,-2.32l1.14 -2.78c0,3.09 -0.91,5.62 1.21,5.16 0.65,-0.14 0.89,-0.53 1.13,-1.08 0.35,-0.79 0.93,-2.5 1.71,-2.7 0,2.09 -0.97,1.74 -0.49,3.71l1.79 0c0.52,-0.74 0.37,-0.35 0.65,-1.39l2.12 -8.02c0.8,-3.58 1.56,-3.82 -0.33,-3.9 -0.68,-0.03 -0.84,-0.18 -1.33,0.14 -0.36,0.23 -2.59,4.59 -2.94,5.4 -0.27,0.63 -0.12,0.8 -0.77,0.97z"/>
   <path class="fil2" d="M55.04 25.05c-0.72,0 -0.4,-0.47 -0.22,-0.8l0.48 -1.12c0.27,-0.92 0.42,-1.52 0.65,-2.47 0.21,-0.88 0.45,-1.63 0.73,-2.39 0.29,-0.77 0.29,-1.56 1.44,-1.56 1.87,0 1.65,0 1.04,1.45l-0.91 3.3c-1.01,3.74 -0.83,3.59 -3.21,3.59zm-3.08 2.16c0,0.68 2.55,0.42 3,0.37 0.82,-0.1 0.69,0.04 1.22,0.05 3.17,0.03 2.99,-0.93 3.97,-4.21 0.42,-1.42 0.76,-2.74 1.11,-4.2 0.44,-1.81 1.1,-3.13 1.1,-5.13 -0.72,0 -0.87,-0.11 -1.32,-0.13 -0.65,-0.04 -0.55,0.09 -1.27,0.13 -2.26,0.12 -3.88,-0.7 -4.69,1.41l-2.59 9.27c-0.21,0.71 -0.51,1.58 -0.51,2.45z"/>
   <path class="fil2" d="M26 46.05c0.06,-0.65 0.22,-0.53 0.49,-1.08l0.94 -3.27c0.55,-1.92 0.49,-3.68 1.98,-3.68 2.39,0 1.33,0.15 0.71,2.53 -1.12,4.29 -0.79,6.24 -4.12,5.5zm3.08 2.63c0.64,0 0.86,-0.25 1.26,-0.81 0.51,-0.7 2.14,-6.94 2.34,-7.81 0.86,-3.59 1.37,-3.88 -0.35,-3.9 -0.7,-0.01 -0.82,-0.04 -1.36,-0.26 -1.33,-0.54 -1.05,-0.32 -2.24,0.09 -0.86,0.3 -1.87,-0.01 -2.36,0.69 -0.26,0.36 -0.5,1.74 -0.64,2.33 -0.21,0.87 -0.4,1.5 -0.65,2.32l-0.92 3.6c-0.28,1.15 -0.77,2.13 -0.77,3.59 1.48,0.33 4.05,0.15 5.68,0.15z"/>
   <path class="fil2" d="M62.02 21.19c0,1.27 2.81,0.64 3.59,0.65 0.39,0 0.82,0.12 0.81,0.52 -0,0.04 0.01,0.07 0.01,0.08l-0.57 1.65c-0.82,1.7 -2.14,0.63 -4.4,1.06 -0.74,0.14 -1.07,0.42 -1.07,1.91 0,0.36 0.11,0.46 0.49,0.46 5.7,0 5.82,0.56 6.82,-1.38 0.3,-0.57 2,-6.28 1.62,-6.65 -1.08,-0.49 -3.3,0.18 -4.38,-0.31 -0.26,-0.25 0.29,-2.3 1.31,-2.46l4.05 -0.16c0.38,-0.68 0.65,-1.42 0.65,-2.47 -0.51,-0.04 -0.58,-0.15 -1.14,-0.15 -5.62,0 -5.69,-0.55 -6.72,2.87 -0.32,1.07 -1.07,3.24 -1.07,4.39z"/>
   <path class="fil2" d="M35.74 14.26c-0.14,0.54 -0.34,0.95 -0.49,1.52 -0.15,0.55 -0.32,1.1 -0.45,1.58l-1.23 4.85c-1.28,4.86 -2.37,5.77 1.01,5.29 1.07,-0.15 1.75,-0.3 2.8,-0.14 1.65,0.25 2.12,0.04 2.9,-3.09l1.98 -7.38c0.27,-0.8 0.47,-1.53 0.47,-2.64 -2.9,-0.64 -2.32,1.11 -3.39,4.5 -0.48,1.53 -1.23,5.79 -2.21,6.24 -0.74,0.34 -1.4,0.21 -2.03,-0.08l2.33 -7.98c0.14,-0.47 0.25,-0.87 0.37,-1.36 0.19,-0.8 0.12,-0.64 0.06,-1.32 -1.16,-0.09 0.17,-0.29 -2.1,0.03z"/>
   <path class="fil2" d="M51.31 45.75c0,-0.28 0.32,-0.58 0.47,-0.94l0.86 -3.2c0.45,-1.56 0.54,-3.58 1.91,-3.58 2.28,0 1.25,1.07 1.05,1.61 -0.42,1.14 -0.81,4.01 -1.38,5.48 -0.74,1.9 -2.91,1.27 -2.91,0.63zm3.08 2.93c0.96,0 1.28,-0.72 1.55,-1.46 0.81,-2.23 1.75,-6.58 2.48,-9.07 0.55,-1.9 0.31,-1.57 -0.41,-1.7 -0.95,-0.17 -1.34,-0.53 -2.25,-0.23 -0.77,0.25 -1.37,0.57 -2.33,0.57 -1.63,0 -1.77,-1.28 -2.88,3.75 -0.17,0.75 -0.33,1.1 -0.5,1.69l-0.96 3.57c-0.4,2.13 -0.94,2.89 0.44,2.89l4.87 0z"/>
   <path class="fil2" d="M66.89 38.02c0.3,-1.23 0.73,-1.62 -0.8,-1.71 -1.25,-0.07 -1.93,-0.76 -2.28,-0.76 -1.44,0 -0.72,0.12 -1.73,0.51 -0.52,0.2 -0.82,0.15 -1.34,0.27 -0.74,0.17 -0.78,0.67 -1.15,2 -0.31,1.15 -1.2,3.86 -0.97,4.79 0.82,0 0.74,0.15 1.46,0.15 0.79,0 -0.19,-0.15 0.75,-0.08l2.17 0.24c0.17,0.17 -0.42,2.4 -1.2,2.72 -0.8,0.33 -3.01,0.21 -4.16,0.21 -0.32,0.57 -1,2.32 0,2.32l5.52 0c1.37,0 2.76,-7.02 2.76,-7.72 -2.31,-0.51 -5.86,0.89 -4.06,-2.17 0.52,-0.89 1.83,-0.61 3.25,-0.61 0.89,-0 1.08,-0.14 1.78,-0.16z"/>
   <path class="fil2" d="M20.48 40.65c-1.24,0 -1.01,-0.75 -0.78,-1.67 0.2,-0.81 0.5,-1.11 1.59,-1.11 1.83,0 1.31,0.3 0.79,1.52 -0.41,0.96 -0.25,1.26 -1.6,1.26zm-1.79 2.63c2.48,-0.55 3.68,0.5 4.59,-0.73 0.73,-0.99 1.11,-2.6 1.38,-3.79 0.57,-2.58 1.16,-3.36 -0.77,-3.36 -2.6,0 -1.99,-0.18 -4.01,0.51 -0.78,0.27 -1.44,0.08 -1.87,0.69l-2.72 9.77c-0.18,0.64 -0.47,1.24 -0.49,2.01 0.98,0.45 1.39,0.35 2.27,0.15 0.42,-0.83 1.08,-4.18 1.62,-5.25z"/>
   <path class="fil2" d="M35.08 46.21c-1.02,0 -0.37,-0.56 0.16,-2.47 0.28,-1.02 0.54,-2.06 0.81,-3.09 0.27,-1.03 0.57,-2.04 0.81,-3.11 0.16,-0.72 0.25,-0.82 -0.36,-1.17 -0.37,-0.21 -0.94,-0.47 -1.42,-0.51 -0.6,1.07 -1.35,4.72 -1.77,6.04 -0.33,1.07 -0.57,2.02 -0.79,3.11 -0.22,1.11 -1.36,3.66 -0.21,3.66 5.08,0 6.04,0.6 6.8,-1.56 0.57,-1.62 1.8,-5.96 1.8,-7.09 0,-0.42 -1.39,-0.59 -1.79,-0.77 -0.58,0.83 -1.01,2.72 -1.26,3.75 -0.83,3.38 -0.86,3.2 -2.8,3.2z"/>
   <path class="fil2" d="M9.61 13.15c-1.68,-1.17 -0.57,-2.55 0.81,-3.24 1.92,1.59 0.58,2.94 -0.81,3.24zm4.38 -1.08c0.15,-0.21 0.04,-0.26 0.49,-0.62 0.42,-0.34 1.61,-1.04 2.11,-1.08l-0.49 -0.46 0.49 0c-0.27,-0.39 -0.65,-0.6 -0.97,-0.93l0 0.46c-1.1,0.02 -1.48,0.52 -2.28,0.92 -0.3,0.15 -0.51,0.18 -0.8,0.32 -0.61,-0.87 -1.32,-1.79 -0.27,-2.73 1.05,-0.95 1.87,-1.18 1.9,-2.37 -0.88,0.07 -1.18,0.74 -1.88,1.01 -1.25,0.5 -1.29,-0.67 -1.51,-1.35 -0.43,-1.34 -0.73,-1.06 -1.32,-1.06 0,1.82 0.76,3.64 0.77,3.73 0.02,0.6 -0.53,0.92 -0.92,1.21 -0.85,0.63 -0.35,0.61 -1.79,0.61 -0.04,-0.13 -0.96,-1.84 -1.46,-2.16 0.06,0.64 1.01,1.67 1.1,2.36 0.06,0.51 -0.25,0.82 -0.57,1.08 -0.53,0.43 -0.67,0.22 -0.86,0.89 0.59,0.84 1.05,0.23 2.11,0 0.3,0.43 0.63,0.65 0.83,1.24 0.11,0.32 0.16,0.47 0.05,0.83 -0.23,0.7 -1.66,1.6 -2.25,2.03 -0.47,0.34 -0.35,0.05 -0.41,0.69 2.39,0 1.11,-0.93 3.08,-0.93 0.27,0.49 0.23,0.79 0.65,1.08 0.01,-0.38 0.09,-0.6 0.09,-0.79 0.01,-0.5 -0.09,-0.13 -0.06,-0.74 0.03,-0.87 1.96,-3.43 2.76,-1.58 0.61,1.4 0.83,2.46 2.11,3.71 0.67,0.66 0.46,0.55 1.43,0.34 -0.22,-0.88 -4.64,-5.54 -2.11,-6.18l0 0.46z"/>
   <path class="fil2" d="M47.58 14.08c-0.16,0.29 -0.75,1.72 -0.62,2.14 0.15,0.47 0.38,0.34 1.09,0.34 0.84,-0.01 0.83,0 1.47,0.15 -0.03,1.17 -0.35,0.42 -0.77,2.36 -0.2,0.93 -0.46,1.7 -0.71,2.57 -0.23,0.78 -0.46,1.65 -0.63,2.49 -0.32,1.64 -1.8,3.16 1.13,3.4 1.03,-1.46 1.35,-3.65 1.82,-5.37 0.24,-0.9 0.56,-1.9 0.76,-2.83l0.65 -2.16c0.47,-0.83 0.63,-0.39 2.28,-0.76 0.21,-0.87 0.52,-1.51 0.32,-2.32 -0.82,0 -0.88,-0.15 -1.78,-0.15l-3.59 0.11c-0.2,0.01 -0.94,0.05 -1.44,0.05z"/>
   <path class="fil1" d="M70.78 30.15c1.08,0 0.43,1.59 0.9,-1.61l1.62 -10.35c0.21,-0.89 0.34,-1.71 0.52,-2.44 0.53,-2.04 1.75,-3 1.99,-3.98 -1.03,0.66 -2.37,3.95 -2.71,2.47 -0.14,-0.64 1.05,-0.94 1.08,-2.16 -0.67,0.11 -0.81,0.6 -1.28,0.95 -0.62,0.46 -0.66,0.32 -0.84,1.21l-0.97 3.09c-0.47,0.45 -3.48,0.24 -4.24,0.29 -0.75,0.05 -0.64,0.03 -0.79,0.64 0.58,0.26 1.76,0.16 2.6,0.15 2.44,-0.02 1.3,0.13 2.16,0.62 0.27,-0.73 -0.13,-0.81 0.54,-1.34 0.47,0.57 0.17,0.12 0.02,0.67l-0.94 4.69c-0.19,0.69 0.36,0.29 -0.5,0.56 0,-1.01 0.16,-1.29 0.16,-2.26l-0.16 0c0,0.73 -0.02,0.47 -0.17,0.92l-0.64 2.63 0.92 0.2c0.95,0.15 0.47,0.31 0.38,1.34 -0.84,0 -0.83,-0.15 -1.03,0.57l-0.59 3.91c0.75,-0.26 0,0 0.47,-0.32 0.46,-0.32 0.8,-0.45 1.47,-0.45z"/>
   <path class="fil1" d="M3.93 47.14c0.02,-1.01 0.57,-1.6 0.65,-2.78l1.46 0 -1.08 2.78 -1.03 0zm2.76 1.54c0.62,0 0.86,-1.74 1.26,-2.97l0.99 -3.24c0.17,-0.57 0.88,-1.82 0.03,-1.82 -2.23,0 -2.01,-0.18 -2.27,0.93 -0.11,0.45 -0.17,0.64 -0.32,1.08l-3.41 0c-0.26,0.37 -0.28,0.25 -0.45,0.66 -0.1,0.23 -0.16,0.57 -0.25,0.85l-1.05 3.32c-0.05,0.17 -0.28,0.77 -0.28,0.8 -0.01,0.3 -0.05,0.4 0.41,0.4l5.35 0z"/>
   <path class="fil1" d="M12.53 23.14c-0.15,0.64 -0.15,0.27 -0.34,0.66l-0.63 2.17 -1.14 0c0.06,-0.68 0.56,-2.33 0.92,-2.89l1.19 0.06zm0.32 -1.65l-3.41 -0c-0.55,0.79 -1.93,5.29 -1.95,5.87l6 0.15 2.26 -7.31c0.26,-0.92 0.23,-0.73 -2.42,-0.73 0,0.77 -0,0.49 -0.2,1.04 -0.12,0.32 -0.21,0.64 -0.29,0.96z"/>
   <path class="fil2" d="M45.13 46.22c-1.22,-0.07 -2.45,0.4 -2.14,-0.63 0.48,-1.62 1.67,-4.7 1.67,-6.33 -0.73,0 -0.92,0.14 -1.45,0.32 -1.24,0.43 -0.97,0.39 -1.7,3.17 -0.44,1.69 -1.23,4.13 -1.23,5.78 0.73,0.02 0.64,0.15 1.46,0.15 5.5,0 5.84,0.5 5.84,-2.32 -0.67,-0.05 -0.36,-0.15 -0.97,-0.15l-1.47 0.01z"/>
   <path class="fil2" d="M41.25 27.52c1.76,0 1.57,0.41 2.4,-2.81 0.31,-1.18 0.6,-2.14 0.91,-3.31 0.3,-1.15 0.61,-2.23 0.91,-3.31 1.02,-3.67 1.3,-4.02 -0.49,-4.02 -1.21,0 -1.04,1.1 -1.64,2.91l-2.4 8.84c-0.11,0.59 -0.52,1.68 0.31,1.68z"/>
   <path class="fil1" d="M18.04 23.97c0.04,-0.46 0.12,-0.77 0.65,-0.77 1.93,0 0.37,1.16 -0.65,0.77zm-3.41 2.93c0,0.83 0.2,0.63 1.13,0.62 0.71,-0 3.6,0.45 4.41,-0.15 0.21,-0.15 0.82,-1.25 -0.02,-1.25l-2.6 0 0 -0.77c0.63,-0.19 2.19,0 3.25,0 0.16,-0.64 0.32,-1.13 0.5,-1.84 0.23,-0.89 0.46,-1.23 0.47,-1.86l-2.11 -0.15c-3.75,0 -3.26,-0.43 -4.11,2.42 -0.12,0.41 -0.92,2.81 -0.92,2.99z"/>
   <path class="fil1" d="M12.04 45.13c-0.64,0 -0.37,-0.27 -0.32,-0.77 0.81,0 1.12,-0.09 1.32,0.12 0.22,0.22 0.14,-0.05 -0.15,0.35l-0.13 0.2c-0.01,-0.02 -0.04,0.07 -0.06,0.1l-0.65 0zm-1 1.85c0.09,-0.58 0.04,-0.57 0.66,-0.63 2.59,-0.28 2.57,1.36 3.52,-2.87 0.25,-1.11 -0.13,-0.69 -3.01,-0.67 -2.4,0.02 -2.12,-1.16 -3.33,2.7 -0.13,0.42 -0.16,0.59 -0.29,0.96 -0.49,1.47 -0.82,2.2 -0.12,2.2l5.36 0c0.04,-1.5 1.44,-1.58 -1.63,-1.54 -0.12,0 -0.53,0 -0.64,-0.01 -0.35,-0.04 -0.3,-0.02 -0.52,-0.15z"/>
   <path class="fil1" d="M95.61 46.36c1.11,0 0.75,-0.13 1.69,-1.48 0.74,-1.07 2.4,-4.77 2.04,-6.24 -2.49,-0.55 -2.98,-1.76 -3.23,-0.3 -0.33,1.94 -0.81,6.44 -1.69,7.98 -0.34,0.59 -1.3,1.42 -1.87,1.93 -0.52,0.46 -0.33,0.09 -0.52,0.59 0.86,-0.19 1.48,-0.32 2.24,-0.64 1.97,-0.83 1.44,-1.39 1.32,-1.83z"/>
   <path class="fil1" d="M95.78 30.3c0,1.2 -0.33,5.13 0.22,5.81 0.21,0.26 0.67,0.39 1.01,0.58 0.98,0.54 0.61,0.83 1.75,1.31 1.13,0.47 0.7,-0.41 0.92,-3.21 0.06,-0.79 0.5,-1.78 0.06,-2.38 -0.21,-0.29 -3.73,-2.06 -3.96,-2.11z"/>
   <path class="fil0" d="M55.04 25.05c2.38,0 2.2,0.15 3.21,-3.59l0.91 -3.3c0.61,-1.45 0.83,-1.45 -1.04,-1.45 -1.16,0 -1.15,0.8 -1.44,1.56 -0.29,0.76 -0.52,1.52 -0.73,2.39 -0.23,0.96 -0.38,1.55 -0.65,2.47l-0.48 1.12c-0.19,0.33 -0.5,0.8 0.22,0.8z"/>
   <path class="fil0" d="M51.31 45.75c0,0.64 2.17,1.27 2.91,-0.63 0.57,-1.47 0.96,-4.34 1.38,-5.48 0.2,-0.54 1.24,-1.61 -1.05,-1.61 -1.38,0 -1.46,2.03 -1.91,3.58l-0.86 3.2c-0.15,0.37 -0.47,0.66 -0.47,0.94z"/>
   <path class="fil0" d="M26 46.05c3.33,0.74 3,-1.21 4.12,-5.5 0.62,-2.38 1.68,-2.53 -0.71,-2.53 -1.49,0 -1.43,1.76 -1.98,3.68l-0.94 3.27c-0.26,0.55 -0.43,0.43 -0.49,1.08z"/>
   <path class="fil1" d="M77.76 12.85c0.6,-0.15 0.21,-0.16 0.81,-0.31 -0.44,1.1 -1.02,1.22 -1.41,2.63l0.83 -1.01c0.23,-0.35 0.46,-0.73 0.71,-1.02 1.13,-1.34 2.03,-1.36 3.27,-1.36 0.93,0 1.9,1.31 2.27,1.85 1.59,2.31 0.66,1.08 1.35,2.27 0.19,0.32 0.12,0.19 0.27,0.36 0.1,-0.41 0.16,-0.29 0.16,-0.62 0,-0.01 -2.34,-8.02 -6.77,-4.43 -0.52,0.42 -1.32,0.98 -1.51,1.65z"/>
   <path class="fil1" d="M10.74 15.16c0,0.65 0.16,0.6 0.16,1.08l0 3.09c0,0.78 -0.15,0.69 -0.16,1.39l1.46 0c0.08,-0.5 0.08,-0.26 0.21,-0.73 0.32,-1.12 0.09,-1.43 1.74,-1.43 -0.15,-0.55 -0.34,-0.49 -0.7,-1.03 -0.91,-1.37 -1.42,-2.86 -1.89,-3.29 -0.28,0.18 -0.81,0.5 -0.81,0.93z"/>
   <path class="fil1" d="M94.15 30.61c0,-0.4 -0.19,-0.81 -0.32,-1.08 1.19,0.12 0.82,1.61 1.46,2.32 0,-0.91 0.13,-1.11 -0.28,-1.74 -1.26,-1.92 0.01,-0.53 -2.63,-2.29 -0.38,-0.25 -0.35,-0.3 -0.82,-0.3 -0.03,0 -1.42,1.2 -1.62,2.01 0.39,0.55 1.01,0.69 1.62,1.08l1.62 0.93c0.22,-0.14 0.33,-0.19 0.57,-0.39 0.28,-0.22 0.41,-0.11 0.41,-0.54z"/>
   <path class="fil1" d="M67.86 38.18c0.32,0.15 0.7,0.21 1.02,0.26 2.07,0.36 1.22,1.11 1.76,-0.86 0.26,-0.92 0.3,-3.09 0.3,-4.35 -2.07,2.27 -2.91,2 -3.08,4.94z"/>
   <path class="fil0" d="M56.99 12.07c1.3,0 1.99,-0.51 2.86,-1.61 0.44,-0.55 1.64,-2.11 1.69,-2.72 -1.36,0 -2.25,0.23 -3.35,1.29 -0.23,0.22 -0.83,0.95 -0.98,1.23 -0.32,0.58 -0.47,1.07 -0.21,1.81z"/>
   <path class="fil1" d="M84.25 25.2c0,0.47 0.22,0.75 0.29,1.12 0.11,0.63 -0.03,1.75 0.14,2.97 0.18,1.33 -0.7,2.15 0.55,2.24 -0.15,0.6 -0.09,0.09 -0.16,0.46l-0.02 0.28c0,0.02 0.02,0.06 0.02,0.08 0.03,0.25 0.09,0.05 0.05,0.35 -0.02,0.14 -0.11,0.16 -0.21,0.53 1.24,-0.03 0.75,-0.46 1.62,-0.46 0.64,0 0.02,0.23 0.97,0.31 0.22,-0.88 0.39,-0.32 0.16,-1.24l-0.65 0c-0.15,0.53 -0.22,0.62 -0.81,0.62 -0.81,0 -0.31,-0.19 -0.32,-1.85 -0.02,-2.39 0.23,-1.09 0.32,-2.16 -0.93,0.02 -0.81,0.12 -0.65,0.77l-0.49 0c-0.19,-0.5 -0.32,-0.28 -0.34,-1.08 -0.02,-0.63 0.07,-0.79 0.18,-1.24 1.08,0.09 0.51,0.33 0.49,1.24 1.44,-0.32 0.59,-1.06 0.44,-1.96 -0.06,-0.34 -0.13,-0.86 -0.27,-1.28 -0.37,-0.03 -1.3,-0.26 -1.3,0.31z"/>
   <path class="fil0" d="M24.7 10.84c0,1.89 2.72,2.21 2.76,0.46 -1,-0.25 -0.81,-0.72 -0.81,-1.85 0,-0.74 0.93,-0.55 1.3,-1.24 -1.18,-0.05 -1.51,0.06 -2.2,0.69 -0.42,0.38 -1.05,1.24 -1.05,1.94z"/>
   <path class="fil0" d="M17.56 32.15c0,1.26 1.62,2.54 2.76,0.93 -0.41,-0.96 -2.03,-1.67 -0.07,-3 0.34,-0.23 0.23,-0 0.4,-0.4 -1.41,-0.47 -3.08,1.24 -3.08,2.47z"/>
   <path class="fil2" d="M49.53 38.02c0.73,0 1.46,-2.47 0.32,-2.47 -0.84,0 -1.51,0.71 -2.18,1.02 -0.3,0.14 -0.28,0.11 -0.55,0.25 -1,0.5 -1.11,0.38 -1.17,1.05 1.23,0.27 2.1,0.15 3.57,0.15z"/>
   <path class="fil1" d="M72.08 39.72c-0.02,-0.77 -0.04,-0.37 -0.21,-0.89 -0.53,-1.64 0.13,-1.69 -0.61,-2.2 0,1.19 0.53,3.14 0.83,4.31l0.55 2.26c0.36,1.15 1.71,4.7 2.68,5.32l-1.76 -3.73c-0.32,-0.7 -0.68,-1.62 -0.68,-2.45l1.79 3.09c-0.05,-0.6 -0.31,-1.11 -0.57,-1.62 -0.18,-0.36 -0.18,-0.32 -0.35,-0.75l-0.96 -2.94c-0.01,-0.03 -0.14,-0.32 -0.14,-0.33 -0.12,-0.37 -0.09,-0.43 -0.09,-0.85l-0.16 0c0,0.78 0.12,0.46 -0.32,0.77z"/>
   <path class="fil0" d="M20.48 40.65c1.35,0 1.19,-0.3 1.6,-1.26 0.52,-1.22 1.04,-1.52 -0.79,-1.52 -1.09,0 -1.39,0.3 -1.59,1.11 -0.23,0.92 -0.46,1.67 0.78,1.67z"/>
   <path class="fil1" d="M98.86 23.97c0.25,0.5 0.13,1.17 0.03,1.73 -0.08,0.42 0.04,0.62 -0.4,0.69 -0.44,0.08 -0.4,-0.17 -0.43,-0.57 -0.03,0.03 -0.06,0.04 -0.07,0.09l-0.16 0.16c-0.02,0.02 -0.06,0.05 -0.09,0.07 -0.22,0.13 0.08,0.1 -0.49,0.15 0,-0.73 0.1,-1.34 -0.16,-1.85 -0.7,0.49 -0.19,0.35 -0.34,2 -0.09,0.98 -0.28,0.95 0.17,1.86 0.39,-0.13 0.35,-0.2 0.65,-0.62l-0.65 -0.31c0.39,-0.15 0.18,-0.1 0.65,-0.77 0.63,0.05 0.52,0.15 1.3,0.15l0 0.77c0.7,-0.49 0.17,-0.64 0.35,-2.14 0.09,-0.8 0.14,-1.47 0.14,-2.49 -1.09,0.24 -0.27,0.08 -0.93,-0.15 -0.33,-0.11 0.03,-0.08 -0.37,-0.01 -0.39,0.07 0.14,0.1 -0.65,0.16 -0.36,-0.72 0.14,-0.64 -0.49,-1.08 0,3.08 0.24,1.38 1.95,2.16z"/>
   <path class="fil1" d="M15.61 8.98c0.33,0.33 0.7,0.54 0.97,0.93 0.51,-0.05 0.46,-0.09 0.7,-0.42 0.16,-0.22 0.33,-0.62 0.42,-0.84 1.21,-2.77 -1.06,-2.55 -1.67,-1.89 -0.5,0.53 -0.12,1.35 -0.43,2.22z"/>
   <path class="fil0" d="M9.61 13.15c1.39,-0.31 2.73,-1.66 0.81,-3.24 -1.38,0.7 -2.49,2.07 -0.81,3.24z"/>
   <path class="fil1" d="M84.25 47.44c1.64,-1.04 3.03,-7.39 3.26,-9.25 0.05,-0.4 0.14,-0.44 0.24,-0.86l0.23 -2.71 -0.63 2.8c-0.12,0.41 -0.13,0.34 -0.23,0.86 -0.04,0.19 -0.09,0.62 -0.16,0.93l-1.31 4.01c-0.81,1.74 0.45,0.85 -0.73,2.86 -0.27,0.46 -0.54,0.81 -0.67,1.37z"/>
   <path class="fil1" d="M81.98 7.13c0.64,0.14 1.14,0.51 1.72,0.84 2.88,1.66 4.23,2.3 5.06,5.37l0.44 1.44c0.48,1.52 0.16,0.96 0.43,2.22l0.42 1.61c0.19,0.62 0.22,0.39 0.22,1.18l0.16 0c0,-0.71 -0.09,-1.8 -0.27,-2.36 -0.46,-1.39 -0.6,-2.93 -0.86,-3.66 -0.29,-0.82 -0.45,-1.63 -0.97,-2.48 -1.16,-1.88 -1.81,-2.03 -3.58,-3.08 -0.74,-0.44 -1.83,-1.31 -2.76,-1.39l0 0.31z"/>
   <path class="fil1" d="M67.38 40.03c0.39,0.84 0.01,2.46 -0.11,3.29 -0.28,1.85 0.01,4.5 -1.03,5.98 0.6,-0.09 0.78,-0.2 0.94,-0.65 0.51,-1.44 0.42,-4.44 0.57,-5.48 0.06,-0.43 0.2,-1.09 0.23,-1.32 0.2,-1.63 -0.27,-1.35 1.67,-1.35l0 -0.15c-1.24,0 -1.39,-0.24 -2.27,-0.31z"/>
   <path class="fil1" d="M90.42 49.14c0.56,-0.12 0.46,-0.12 0.86,-0.41 1.58,-1.13 3.36,-2.73 3.36,-4.84 -0.02,0.03 -0.05,0.08 -0.06,0.1l-3.77 4.44c-0.43,0.4 -0.33,0.04 -0.39,0.71z"/>
   <path class="fil1" d="M76.36 43.22c-0.12,-0.18 -0.12,-0.15 -0.22,-0.26 0.12,0.92 0.67,1.8 1.2,2.56 0.49,0.7 1.28,1.44 1.98,1.82 0.93,0.5 1.29,0.56 2.33,0.56 0.27,0 2.27,-0.66 2.6,-2.01 -0.91,0.58 -1.27,1.54 -2.92,1.54 -1.4,0 -2.43,-0.74 -3.29,-1.65 -1.23,-1.3 -1.15,-1.71 -1.68,-2.57z"/>
   <path class="fil0" d="M67.21 9.76c0.66,0.04 0.99,0.16 1.67,-0.1 0.77,-0.3 2.07,-1.75 -0.05,-1.75 -0.24,0 -1.6,0.81 -1.62,1.85z"/>
   <path class="fil0" d="M52.61 31.53c0.78,0 1.69,0.03 2.14,-0.77 0.3,-0.54 0.14,-1.09 -0.68,-1.09 -0.87,0 -2.79,1.85 -1.46,1.85z"/>
   <path class="fil1" d="M83.17 24.17c0.02,0.05 0.06,0.36 0.12,0.55 0.25,0.8 0.33,0.59 0.49,1.55 0.2,1.22 0.2,4.07 -0,5.29 -0.17,0.99 -0.51,1.32 -0.51,2.3 0.85,-0.54 0.31,-0.56 0.86,-2.11 0.28,-0.78 0.23,-4.62 -0.1,-5.56 -0.4,-1.12 0.14,-1.31 -0.87,-2.01z"/>
   <path class="fil0" d="M11.34 23.08c-0.36,0.56 -0.86,2.21 -0.92,2.89l1.14 0 0.63 -2.17c0.2,-0.38 0.19,-0.02 0.34,-0.66l-1.19 -0.06z"/>
   <path class="fil0" d="M3.93 47.14l1.03 0 1.08 -2.78 -1.46 0c-0.08,1.18 -0.63,1.77 -0.65,2.78z"/>
   <path class="fil0" d="M77.76 27.98c0.71,0 0.49,-0.94 0.59,-1.48 0.12,-0.63 0.59,-0.04 -0.11,-0.99 -0.78,0 -1.14,-0.1 -1.14,0.46 0,1.87 -0.19,2.01 0.65,2.01z"/>
   <path class="fil1" d="M89.45 28.91c0.62,-0.39 0.7,-0.57 1.01,-1.05 0.12,-0.19 0.04,-0.08 0.2,-0.27 0.16,-0.2 0.2,-0.21 0.29,-0.34 0.61,-0.86 0.24,-4.1 0.01,-5.18 -0.4,-1.91 0.03,-1.56 -0.54,-1.96 0,2.29 0.8,3.32 0.59,6.16 -0.08,1.06 -1.21,1.49 -1.47,1.97 -0.17,0.32 -0.09,0.29 -0.1,0.68z"/>
   <path class="fil1" d="M12.69 8.83c0,0.36 0.05,0.3 0.16,0.62 0.45,-0.11 0.63,-0.27 0.99,-0.44l1.12 -0.49 -0.04 -1.65 -2.23 1.96z"/>
   <path class="fil1" d="M80.85 28.91l1.79 -0.15 0 -1.08c-0.42,-0.27 -1.72,-1.34 -1.79,1.24z"/>
   <path class="fil1" d="M86.2 14.85l0.16 0c0,-1.15 -0.16,-0.87 -0.42,-1.76 -0.18,-0.62 -0.34,-1.08 -0.58,-1.61 -0.41,-0.93 -1.01,-1.91 -1.92,-2.49 0.06,0.66 2.76,3.95 2.76,5.87z"/>
   <path class="fil1" d="M74.19 17.48c0.57,-0.39 0.19,0.04 0.36,-0.73 0.2,-0.9 1.24,-2.35 1.84,-3.19l1.53 -2.25c-0.81,0.41 0.05,-0.22 -1.17,1.2l-1.04 1.48c-0.87,1.13 -1.53,2.06 -1.53,3.49z"/>
   <path class="fil0" d="M77.93 22.11c0,0.73 0.69,0.77 1.46,0.77 -0.06,-0.66 -0.21,-0.49 -0.02,-0.93l0.18 -0.3c-0.46,-0.23 -0.59,-0.45 -1.3,-0.46 -0.1,0.42 -0.32,0.63 -0.32,0.93z"/>
   <path class="fil1" d="M79.55 26.44l-0.16 2.47 0.65 0c0,-0.93 0.3,-2.01 0.49,-2.78 -0.75,0.19 -0.14,0.24 -0.97,0.31z"/>
   <path class="fil1" d="M81.66 25.2c0.25,0.35 0.31,0.31 0.32,0.93 -0.74,0 -0.69,-0.07 -0.93,0.22 -0.37,0.43 -0.12,0.23 -0.04,0.4 0.6,0.2 -0.28,-0.04 0.65,-0.3 0.59,-0.16 0.43,-0.04 0.97,-0.32l0 -1.24c0,-0.59 0.05,-0.06 -0.16,-0.46 -0.52,0.13 -0.27,0 -0.81,0.77z"/>
   <path class="fil1" d="M95.45 36.17l-0.32 0c0.37,2.72 0,1.59 0,4.02 0.55,-0.38 0.18,0.12 0.35,-0.6 0.68,-2.96 0.01,-2.18 -0.02,-3.42z"/>
   <path class="fil0" d="M41.74 37.56c0.39,0 0.73,-0.22 1.14,-0.31l0 -0.31c-0.51,-0.04 -0.58,-0.15 -1.14,-0.15 -1.61,0 -1.55,0.77 0,0.77z"/>
   <path class="fil1" d="M67.89 27.83c0.29,0.4 0.22,0.36 0.62,0.62 0.22,-0.9 0.32,-0.78 0.32,-2.01 -0.58,0.2 -0.8,0.86 -0.95,1.39z"/>
   <path class="fil0" d="M18.04 23.97c1.02,0.39 2.58,-0.77 0.65,-0.77 -0.53,0 -0.61,0.31 -0.65,0.77z"/>
   <path class="fil0" d="M12.04 45.13l0.65 0c0.02,-0.04 0.05,-0.13 0.06,-0.1l0.13 -0.2c0.29,-0.4 0.37,-0.13 0.15,-0.35 -0.2,-0.21 -0.51,-0.12 -1.32,-0.12 -0.04,0.51 -0.31,0.77 0.32,0.77z"/>
   <path class="fil1" d="M87.82 28.29c-0.48,0.22 -0.45,0.15 -1.14,0.15l0 0.31c1.31,0 1.3,0.2 1.3,-1.08 0,-0.59 0.05,-0.06 -0.16,-0.46 -0.98,0.25 -0.19,0.42 0,1.08z"/>
   <path class="fil1" d="M82.14 22.89l0.65 0c0.79,0 0.34,-0.61 0.16,-0.93 -0.57,0.28 -0.75,0.18 -0.81,0.93z"/>
   <path class="fil1" d="M74.52 11.76c0.44,-0.11 1.22,-0.86 0.81,-1.54 -0.37,0.26 -0.77,0.89 -0.81,1.54z"/>
   <path class="fil1" d="M76.3 10.99c0.32,-0.22 0.34,-0.33 0.59,-0.68 0.25,-0.36 0.34,-0.36 0.39,-0.87 -0.65,0.33 -0.97,0.59 -0.97,1.54z"/>
   <path class="fil1" d="M80.03 29.22c-1.74,0.88 1.16,1.59 0,0z"/>
   <path class="fil1" d="M82.79 34.62c0.3,0 0.41,-0.35 0.49,-0.62 -0.77,0.02 -0.64,-0.01 -0.97,0.46 0.43,0.2 -0.13,0.15 0.49,0.15z"/>
   <polygon class="fil1" points="62.51,39.72 63.16,39.72 63.16,39.1 62.69,39.11 "/>
   <path class="fil1" d="M72.25 9.14c0.57,-0.14 0.36,-0.06 0.65,-0.46l-0.19 -0.3 -0.3 -0.01c-0.04,0.42 -0.07,0.42 -0.16,0.77z"/>
   <path class="fil1" d="M81.01 19.8c-0.07,-0.59 0.09,-0.45 -0.65,-0.62 0.15,0.53 0.09,0.48 0.65,0.62z"/>
   <path class="fil1" d="M63 10.68c0.49,-0.12 0.36,0 0.49,-0.46 -0.37,0.09 -0.47,0.04 -0.49,0.46z"/>
  </g>
 </g>
</svg>
