<?xml version="1.0" encoding="UTF-8"?>
<!DOCTYPE svg PUBLIC "-//W3C//DTD SVG 1.1//EN" "http://www.w3.org/Graphics/SVG/1.1/DTD/svg11.dtd">
<!-- Creator: CorelDRAW -->
<svg xmlns="http://www.w3.org/2000/svg" xml:space="preserve" width="68.4953mm" height="20.576mm" version="1.1" style="shape-rendering:geometricPrecision; text-rendering:geometricPrecision; image-rendering:optimizeQuality; fill-rule:evenodd; clip-rule:evenodd"
viewBox="0 0 118.64 35.64"
 xmlns:xlink="http://www.w3.org/1999/xlink"
 xmlns:xodm="http://www.corel.com/coreldraw/odm/2003">
 <defs>
  <style type="text/css">
   <![CDATA[
    .fil0 {fill:black}
    .fil8 {fill:#045ED3}
    .fil4 {fill:#0460D6}
    .fil1 {fill:#0579EA}
    .fil3 {fill:#5D6B83}
    .fil2 {fill:#6C788E}
    .fil10 {fill:#6F7C96}
    .fil11 {fill:#7A8395}
    .fil7 {fill:#95A8CB}
    .fil9 {fill:#9AA1AE}
    .fil6 {fill:#FCFDFD}
    .fil5 {fill:#FEF012}
   ]]>
  </style>
 </defs>
 <g id="Camada_x0020_1">
  <metadata id="CorelCorpID_0Corel-Layer"/>
  <g id="_2076229073680">
   <path class="fil0" d="M26.98 32.7l0.88 0 0 0.15 -0.88 0 0 -0.15zm56.95 -31.06l0.54 0 -0.01 -0.02c2.05,0 2.2,-0.21 4.7,-0.01l11.66 0.03 0 0.09c0.88,0.02 1.78,0.03 2.71,0.03 1.81,0 3.07,-0.14 4.84,-0.15 1.03,-0.01 1.46,0.14 2.34,0.15 0.83,0.01 1.67,-0.01 2.5,-0.01 0,1.2 0.15,1.86 0.15,2.93 -0.01,2.65 -0.28,6.47 0.08,8.86 0.15,0.96 -0.02,1.99 0.12,2.96 0.25,1.67 -0.15,5.16 0.08,6.25 0.38,1.81 -0.93,3.52 1.49,4.35 1.14,0.39 1.23,0.68 1.74,1.63 0.67,0 1.76,-0.03 1.76,0.59 0,2.25 -3,2.1 -3.69,2.32 -0.72,0.23 -1.26,0.68 -2,0.93 -1.82,0.61 -4.37,0.76 -6.11,-0.38 -1.61,-1.05 -0.13,0.36 -2.71,0.36 0.14,0.52 0.5,0.83 0.73,1.32 -1.03,0.69 -1.74,1.7 -4.3,1.76 -1.12,0.02 -2.68,-0.05 -3.33,-1.03 0.7,-1.05 1.91,-0.65 1.91,-1.32 0,-1.04 -0.08,-0.54 -0.29,-1.32 -1.01,0 -0.99,0.32 -1.71,0.64 -2.06,0.9 -2.08,-0.05 -3.72,-0.05 -0.24,0 -0.52,0.21 -1.02,0.3 -2.35,0.44 -3.16,-0.59 -3.97,-0.59 -0.59,0 -1.11,0.59 -2.05,0.59 -2.13,0 -2.49,-0.12 -2.49,-2.49 -0.23,0.12 -0.35,0.15 -0.57,0.31 -1.82,1.39 -1.55,0.65 -4.22,1.94 -1.24,0.6 -2.89,0.59 -4.14,-0.07 -1.3,-0.68 -0.46,-1.07 -2.01,-0.21 -0.56,0.31 -0.48,0.07 -0.65,0.82 -0.81,-0.22 -0.12,-0.35 -1.29,-0.13 -0.85,0.16 -2,0.04 -2.66,-0.31 -1.7,-0.92 -0.78,-0.63 -2.88,0.06 -2.7,0.9 -7.68,0.05 -7.68,-2.84 0,-0.74 0.15,-0.8 0.15,-1.61 -2.86,0 -3.51,-0.04 -5.61,1.28 -0.3,0.19 -0.1,0.05 -0.25,0.19 0.8,0 0.71,-0.04 1.24,-0.37 0.74,-0.46 1.47,-0.8 2.37,-0.45 0.59,0.23 0.54,0.36 0.79,0.83 -1.23,2.32 -6.1,3.92 -8.56,2.69 -1.51,-0.75 -1.19,-0.38 -2.71,0.12 -2.45,0.8 -3.31,-0.53 -4.34,-0.39 -0.99,0.14 -1.68,0.66 -2.58,0.66 -2,0 -3.82,-0.88 -3.96,-0.88 -0.27,0 -1.04,0.46 -1.34,0.57 -2.27,0.84 -2.69,-0.26 -3.71,-0.06 -0.73,0.14 -0.94,0.52 -1.55,0.52 -2,0 -1.86,-0.45 -3.23,-1.17 0.18,2.13 0.13,0.92 -0.92,2.89 -0.57,1.08 -3.68,1.13 -4.35,0.47 -0.58,-0.58 -0.16,-1.31 -0.16,-2.33 -3.03,0 -2.33,-1.42 -4.01,-0.64 -1.06,0.49 -2.33,1.06 -3.51,0.83 -2.77,-0.54 -0.94,-1.46 -4.17,-0.3 -3.93,1.41 -7.37,-1.05 -7.37,-2.83 0,-3.19 2.66,-2.81 2.64,-7.63 -0.01,-1.78 0.35,-3.07 0.44,-4.69 0.11,-2 -0.07,-2.89 0.44,-4.55 0.43,-1.39 1.82,-3.74 2.63,-5.14 0.66,-1.13 4.01,-7.91 4.7,-7.91l17.01 0c0.72,0 0.39,0.98 0.34,1.36l-0.32 5.11c-0.63,5.45 -0.94,11.09 -1.47,16.57 -0.11,1.18 -0.16,2.02 -0.16,3.36 1.13,-0.09 3.03,-0.33 3.67,0.88 1.4,-0.94 1.25,-0.88 2.93,-0.88 0.01,-0.65 0.15,-0.91 0.15,-1.76 -0.02,-1.84 0.29,-3.07 0.29,-4.99 0,-1.04 -0.08,-2.51 0.02,-3.5 0.09,-0.89 0.37,-2.09 0.42,-3.1 0.11,-2.17 0.28,-4.42 0.7,-6.49 0.18,-0.89 0.66,-5.49 0.48,-6.27 1.85,-0.43 6.81,-0.08 9.09,0.01 1.31,0.04 2.06,-0.15 3.38,-0.15 1.5,0 2.58,0.17 4.11,0.15 0.85,-0.01 1.11,-0.16 2.04,-0.16 2.99,0.01 12.91,-0.19 14.63,0.04 2.3,0.32 3.66,-0.83 4.4,1.02 0.4,0.98 0.65,1.78 1.11,2.7 0.41,0.81 0.74,1.78 0.83,2.83 1.28,-0.34 2.29,-6.16 4.69,-6.16 5.59,0 4.96,-0.48 4.74,1.05zm-5.92 28.43l0.04 0.04c-0,-0 -0.06,-0.03 -0.04,-0.04zm-39.01 0c0.17,-0.63 1.5,-1.12 2.2,-1.17 0.04,0.45 -0,0.28 0.15,0.59 -0.96,0.08 -0.9,0.59 -2.35,0.59zm64.38 -1.61c0.87,0.2 1.57,0.44 2.64,0.44 -0.05,0.58 -0.22,0.68 -0.68,0.94 -0.4,0.23 -0.75,0.39 -1.31,0.46 -1.69,0.19 -0.82,-1.14 -0.66,-1.83zm-9.97 1.61c-0.32,-0.24 -0.36,-0.2 -0.17,-0.59 0.17,-0.35 0.27,-0.35 0.61,-0.44 -0.13,0.58 -0.04,0.74 -0.44,1.03zm-64.23 -0.44l0 0zm0 0c0.02,-0.72 0.14,-1.02 0.59,-1.32 0,0.84 -0.07,0.98 -0.59,1.32zm35.49 0.44c-1.52,0 -1.68,-1.91 -0.88,-1.91l3.23 0c0,1.58 -0.86,1.91 -2.35,1.91zm-57.34 0c-1.52,0 -1.76,-0.27 -1.76,-1.47 0,-0.76 1.45,-0.44 3.52,-0.44 0,1.33 -0.97,1.91 -1.76,1.91zm64.67 -0.15c0,-2.07 0.28,-1.76 1.91,-1.76 -0.03,1.16 -0.75,1.76 -1.91,1.76zm-25.08 -1.47c-0.16,0.7 -0.31,1.15 -1.17,1.17 0.06,-0.7 0.44,-1.11 1.17,-1.17zm-12.76 0.59c0.05,-0.63 0.08,-0.74 0.59,-0.88 -0.05,0.6 -0.08,0.76 -0.59,0.88zm-20.24 0.59l0 0zm0 0c0,-1.74 0.33,-1.47 1.91,-1.47 0.97,0 -0.29,1.25 -0.33,1.28 -0.32,0.28 -1.58,0.99 -1.58,0.18zm68.19 -1.17c0,-1.62 -0.16,-2.06 1.17,-1.17 -0.16,0.61 -0.56,1.03 -1.17,1.17zm25.52 -1.17l0 -0.29 0.59 0c-0.34,0.47 0.1,0.22 -0.59,0.29zm-9.24 1.91c0.35,-0.73 0.32,-1.42 0.73,-2.2l1.17 0c-0.32,0.6 -1.26,2.03 -1.91,2.2zm-9.53 -0.29c0.05,-0.58 0.43,-1.25 0.59,-1.91 0.69,-0.02 0.89,-0.15 2.49,-0.15 -0.28,0.42 -2.74,1.96 -3.08,2.05zm-46.78 -7.19l-2.93 0c0,-0.93 0.11,-1.33 0.15,-2.05 0.11,-2.28 -0.98,-1.91 3.96,-1.91 0,0.73 0.12,0.81 0.14,1.33 0.02,0.6 -0.13,0.59 -0.14,1.31 -0.05,2.53 0.03,1.32 -1.17,1.32zm22.29 -1.47l0 1.47 -3.81 0 0.15 -3.96 3.67 0c0.02,0.7 0.17,0.5 0.13,1.15 -0.03,0.43 -0.13,0.66 -0.13,1.34zm-20.53 -7.77c-0.36,-0.41 -0.28,-0.63 -0.44,-1.32l-3.37 -0.15c0,-0.62 0.09,-4.11 0.88,-4.11l3.23 0c0,2.21 -0.29,3.71 -0.29,5.57zm-23.76 9.24c0,-3.74 0.69,-8.21 0.73,-11.15 0.02,-1.19 0.29,-2.46 0.29,-3.67l0.44 0 -0.94 13.28c-0.12,0.9 0.15,1.35 -0.53,1.53zm44.73 -9.24c-0.12,-0.52 -0.15,-0.48 -0.15,-1.17 -4.1,-0.95 -3.57,1.63 -3.08,-4.25l3.96 0c0,0.95 -0.18,4.55 -0.73,5.43z"/>
   <path class="fil1" d="M66.38 11.55c-0.1,1.8 -0.27,3.6 -0.42,5.4 -0.16,1.84 -0.41,3.78 -0.21,5.66 1.26,-0.31 2.23,-0.4 3.5,-0.6l0.77 -9.2c0.03,-0.38 0.02,-0.75 0.06,-1.13 0.02,-0.16 0.05,-0.35 0.09,-0.51 0.07,-0.26 0.03,-0.21 0.19,-0.38l0.24 0.33c0.32,0.44 0.46,0.24 0.7,0.7 0.24,0.45 0.34,1.07 0.38,1.63 0.74,0.86 0.43,2.65 0.31,3.81 -0.13,1.23 -0.23,3.32 -0.12,4.54l3.29 0.43 0.25 -0.54c0.16,-2.12 -0.19,-3.78 0.46,-6.36 0.24,-0.95 0.64,-1.63 0.99,-2.42 0.29,-0.64 0.65,-2.06 1.38,-1.96 0.38,0.56 0.13,2.12 0.05,2.85 -0.11,1.03 -0.08,2.09 -0.16,3.13l-0.29 4.52c-0.03,0.64 -0.29,1.16 0.41,1.18 0.2,-0.17 0.99,-0.42 1.33,-0.49 0.57,-0.13 1.1,-0.05 1.7,-0.14l0.21 -0.71c0.01,-1 0.02,-1.95 0.07,-2.93 0.05,-0.96 0.15,-1.93 0.17,-2.86 0.01,-1.01 0.02,-2.02 0.06,-3.03 0.03,-0.67 0.39,-2.32 0.34,-2.68 -0.25,-0.94 -0.32,0.31 -0.41,-1.41 -0.09,-1.84 -2.34,-2.34 -3.16,-1.67 -0.34,0.28 -0.42,0.73 -0.71,1.08 -0.96,1.14 -1.5,0.81 -2.32,1.25 -0.84,0.46 -1.86,0.17 -2.5,-0.64 -0.48,-0.61 -0.33,-0.37 -1.1,-0.68 -1.13,-0.46 -1.5,-1.11 -2.41,-0.1 -0.29,0.32 -0.57,0.59 -1.05,0.73 -1.91,0.53 -1.61,2.09 -2.04,3.12l-0.07 0.13z"/>
   <path class="fil2" d="M10.01 19.66c-0.42,-0.26 -0.7,-1.67 -0.9,-2.29 -0.9,-2.74 -0.82,-2.39 0.41,-4.8 0.21,-0.41 0.83,-1.92 1.11,-2.08 0.28,0.26 0.29,0.62 0.24,1.1 -0.14,1.54 -0.48,4.5 -0.52,5.82 -0.02,0.62 0.2,2.03 -0.34,2.25zm-3.18 -10.31l-1.52 2.91c-0.49,1.09 -0.54,2.44 -0.76,3.75 -0.24,1.42 -0.61,6.95 -0.59,8.4 0.29,-0.03 2.02,-0.9 2.48,-1.09 1.96,-0.82 3.51,-1.21 5.7,-1.44 2.54,-0.26 1.46,0.68 2.03,-5.13 0.11,-1.12 0.1,-2.24 0.21,-3.36 0.12,-1.21 0.26,-2.08 0.21,-3.35 -0.07,-1.64 0.54,-2.52 0.29,-3.31l-0.04 -0.33 -0.24 0.47c-1.06,-0.01 0.04,0.27 -1.35,1.27 -0.27,-0.07 -0.21,-0.21 -0.49,-0.16 -0.31,0.06 -0.15,0.2 -0.46,0.3 -0.21,0.07 -1.01,-0.09 -1.35,-0.09 -0.44,-0 -0.96,0.09 -1.34,0.19 -0.68,0.19 -0.66,0.13 -1.36,0.2 -0.16,0.2 -0.29,0.48 -0.51,0.64 -0.22,0.16 -0.7,0.31 -0.9,0.12z"/>
   <path class="fil1" d="M44.97 11.28c-0.03,1.07 -0.17,2.02 -0.24,3.07 -0.03,0.54 -0.04,1.09 -0.11,1.62 -0.05,0.35 -0.01,1.25 -0.21,1.48 0.03,1.44 -0.45,2.81 -0.34,5.79 0.45,-0.02 2.07,-1.17 3.31,-1.15 0.82,-1.59 0.69,-3.8 0.85,-5.83 0.08,-1.05 0.36,-5.2 0.88,-5.75 0.46,0.45 0.98,2.31 1.27,3.06 0.62,1.61 0.38,1.82 0.18,3.89 -0.19,2.01 -0.27,4.13 -0.35,6.15 -0.02,0.52 -0.28,1.65 -0.13,2.06l0.74 0.02c0.74,-0.06 1.78,-0.42 2.48,-0.35l0.38 -0.35c0.21,-0.39 -0.02,-1.22 0.14,-1.96 0.24,-1.12 0.15,-4.49 0.33,-5.26 0.13,-0.56 0.38,-1.92 0.29,-2.49 -0.06,-0.3 0.06,-0.71 0.04,-1.07 -0.03,-0.45 -0.1,-0.46 -0.17,-0.84 -0.22,-1.23 0.37,-3.23 0.21,-3.79 -0.5,-1.81 -3.12,-1.61 -4.62,-1.34 -0.44,0.08 -0.38,0.19 -0.82,0.03 -0.37,-0.13 -0.42,-0.13 -0.85,-0.07 -1.07,0.13 -0.75,0.35 -1.21,0.79 -0.44,-0.01 -0.45,-0.2 -0.91,-0.18 -0.42,0.18 -0.88,2.18 -1.13,2.45z"/>
   <path class="fil1" d="M56.72 7.71c-0.33,0.96 -0.54,5.94 -0.59,7.47 -0.01,0.37 0.02,0.96 -0.05,1.29 -0.06,0.32 -0.26,0.57 -0.36,0.95 -0.34,1.37 -0.08,3.57 -0.33,5.12 -0.2,1.26 -0.18,3.72 0.15,4.87 0.7,0.07 2.96,0.1 3.52,-0.09 0.04,-0.24 0.75,-1.19 0.96,-1.48 0.35,-0.49 2.23,-1.37 2.96,-1.92 0.53,-0.4 0.44,-1.29 -0.23,-1.48l-3.36 -0.04c-0.14,-0.72 -0.08,-4.75 0.19,-5.23 0.75,-0.41 3.58,0.17 4.26,-0.22 0.43,-0.38 0.07,-3.16 -0.03,-3.93l-0.16 -0.94c-0.08,-0.19 -0.03,-0.09 -0.13,-0.19 -0.35,-0.21 -2.74,-0.11 -3.25,-0.1 -0.22,-0.18 -0.17,-0.43 -0.16,-0.82 0,-0.26 0,-0.52 0,-0.78 -0,-0.56 0.05,-1.01 0.07,-1.55 0.05,-1.39 -0.06,-1.3 -0.07,-2.33 -0.01,-0.76 -0.04,-0.81 -1.25,-0.48 -0.83,0.22 -1.1,0.96 -1.5,1.15 -0.54,0.24 -0.18,-0.15 -0.48,0.51 -0.09,0.2 -0.02,0.1 -0.16,0.23z"/>
   <path class="fil3" d="M16.1 10.45c-0.13,0.45 0,0.23 0.27,0.52 0.18,0.19 0.18,0.29 0.39,0.47 0.53,-0.06 0.79,-0.63 1.08,-0.93 0.68,-0.03 0.41,0.34 0.99,0.5 0.42,-0.92 0.86,-0.81 0.88,-1.72 0,0.47 -0.06,1.02 0.06,1.46 0.14,-0.22 0.1,-0.88 0.1,-1.18 0.01,-0.61 0.22,-2.93 0.46,-3.25 0.23,-0.29 2.34,-0.16 2.46,-0.14 0.11,0.34 -0.56,5.98 -0.67,7.19 -0.07,0.74 -0.07,1.88 -0.19,2.53l-0.05 0.42c0.18,-0.01 0.09,-0.09 0.22,-0.08l0.2 0.07c0.39,0.1 1.48,-0.36 1.81,-0.56 1.45,-0.9 1.32,-1.47 1.5,-1.66l0.05 0.67c0.18,-0.3 0.15,-2.64 0.23,-3.51l0.39 -3.4c0.06,-0.61 0.05,-1.14 0.13,-1.74 0.24,-1.7 0.21,-1.77 0.28,-3.46 0.02,-0.53 0.22,-1.33 0.15,-1.77 -1.03,-0.06 -9.58,-0.17 -9.85,-0.01 -0.17,0.14 -0.51,4.33 -0.53,4.66 -0.13,1.52 -0.02,3.48 -0.37,4.92z"/>
   <path class="fil2" d="M16.1 10.45c0.13,1.04 -1.03,10.96 -0.68,11.48 0.16,0.24 0.47,0.15 1.05,0.28 0.69,0.15 2.83,0.66 2.44,1.68 -0.17,0.46 -0.99,1.01 -1.52,1.22 -1.14,0.46 -1.45,0.15 -2.46,0.34 -0.09,0.31 -0.07,0.65 -0.06,0.97 0.02,1.14 0.12,1.02 1.65,1.05 1.6,0.03 0.74,-0.48 3.58,-1.11 2.38,-0.52 3.35,1.11 4.8,1.23 0.08,-1.06 0.01,-2.18 0.08,-3.27l0.44 -6.39c0.05,-0.58 0.01,-1.12 0.05,-1.68 0.04,-0.52 0.3,-0.93 0.18,-1.48l-0.05 -0.67c-0.18,0.19 -0.05,0.75 -1.5,1.66 -0.33,0.2 -1.42,0.66 -1.81,0.56l-0.2 -0.07c-0.13,-0.01 -0.04,0.07 -0.22,0.08l0.05 -0.42c0.05,0.47 -0.34,3.95 -0.43,4.93 -0.15,1.6 0.3,1.84 -2.48,1.62 -0.1,-0.56 0.13,-2.33 0.17,-3.01 0.06,-1 0.05,-1.99 0.11,-3 0.05,-0.95 0.14,-1.94 0.22,-2.9 0.05,-0.65 0.39,-2.22 0.25,-2.78 -0.12,-0.44 -0.06,-0.99 -0.06,-1.46 -0.03,0.91 -0.46,0.8 -0.88,1.72 -0.58,-0.16 -0.31,-0.53 -0.99,-0.5 -0.29,0.3 -0.54,0.87 -1.08,0.93 -0.21,-0.17 -0.21,-0.28 -0.39,-0.47 -0.27,-0.28 -0.4,-0.07 -0.27,-0.52z"/>
   <path class="fil1" d="M35.88 27.06c1.09,-0.63 1.17,-1.02 2.75,-1.34 3.18,-0.64 2.49,0.06 3.67,-0.07 0.04,-0.8 -0.26,-1.53 -0.32,-2.34 -0.01,-0.13 -0.01,-0.34 -0.03,-0.46 -0.12,-0.83 -1.28,-0.22 -3.01,-0.37 -0.65,-0.05 -0.63,-0.07 -0.76,-0.29 -0.23,-0.43 -0.01,-4.58 0.24,-5.05 0.68,-0.05 4.03,-0.03 4.31,-0.2 0.14,-0.13 0.04,-0.5 0.12,-0.85 -0.2,-0.35 -0.08,-1.21 -0.13,-1.66 -0.06,-0.5 -0.15,-0.96 -0.19,-1.44 -0.42,-0.45 -0.14,-0.6 -1.49,-0.64 -1.42,-0.04 -1.06,-0.31 -1.55,-0.35 -0.46,-0.04 -1.36,0.1 -1.88,-0.02 -0.48,-0.11 -0.14,-0.23 -0.83,-0.16 -0.41,0.04 -0.55,-0.04 -0.93,0.01 -0.81,0.6 -0.01,3.02 -0.39,4.11 -0.4,1.13 -0.28,2.79 -0.45,4.14 -0.09,0.68 -0.07,1.49 -0.4,1.92 -0.24,0.31 -0.3,1.51 -0.29,2.02 0.02,0.92 0.43,1 0.9,1.4 0.58,0.48 0.26,1.55 0.66,1.65z"/>
   <path class="fil4" d="M34.06 26.26c0.08,0.31 0.66,1.56 1.53,1l0.28 -0.2c-0.4,-0.09 -0.09,-1.16 -0.66,-1.65 -0.48,-0.4 -0.88,-0.48 -0.9,-1.4 -0.01,-0.51 0.05,-1.7 0.29,-2.02 0.33,-0.43 0.31,-1.24 0.4,-1.92 0.17,-1.34 0.05,-3 0.45,-4.14 0.38,-1.09 -0.43,-3.51 0.39,-4.11 0.38,-0.05 0.53,0.03 0.93,-0.01 0.7,-0.07 0.36,0.05 0.83,0.16 0.52,0.12 1.42,-0.02 1.88,0.02 0.49,0.04 0.13,0.31 1.55,0.35 1.34,0.04 1.07,0.18 1.49,0.64 -0.02,-1.08 -0.09,-1.13 -1.25,-1.18 -0.65,-0.03 -1.62,0.01 -2.22,-0.09 -0.14,-0.71 -0.01,-5.27 0.44,-5.45l4.63 -0.13c0.04,-0.69 -0.11,-1.9 -0.11,-2.7 -0.01,-1.25 0.05,-1.48 -0.38,-2.49 -0.58,-0.09 -7.38,-0.28 -7.43,0.04 -0,0.03 -0.03,0.03 -0.03,0.05 -0.1,0.24 -0.06,0.28 -0.08,0.62 -0.05,1.13 -0.47,4.11 -0.57,5.43 -0.17,2.1 -0.43,4.18 -0.55,6.29 -0.12,2.1 -0.41,4.16 -0.56,6.24 -0.16,2.16 -0.42,4.43 -0.34,6.64z"/>
   <path class="fil4" d="M66.38 11.55l0.07 -0.13c0.43,-1.02 0.13,-2.59 2.04,-3.12 0.48,-0.13 0.76,-0.4 1.05,-0.73 0.91,-1.01 1.27,-0.36 2.41,0.1 0.77,0.31 0.61,0.07 1.1,0.68 0.64,0.81 1.65,1.1 2.5,0.64 0.82,-0.44 1.36,-0.11 2.32,-1.25 0.29,-0.35 0.37,-0.8 0.71,-1.08 0.82,-0.67 3.06,-0.18 3.16,1.67 0.09,1.72 0.16,0.46 0.41,1.41 0.04,-0.08 0.02,0.04 0.07,-0.19 0.03,-0.13 0.12,-2.84 0.26,-3.88 0.13,-0.95 0.2,-3.26 -0.02,-4.11 -0.67,-0.39 -2.7,-0.53 -3.21,0.04 -0.38,0.43 -2.61,3.99 -3.05,4.71 -0.34,0.58 -1.18,2.13 -1.64,2.33 -0.53,-0.26 -2.2,-4 -2.45,-4.79 -0.16,-0.51 -0.77,-2.35 -1.04,-2.6 -0.32,-0.3 -2.88,-0.15 -3.45,-0.1 -0.22,0.94 -0.33,1.37 -0.39,2.48 -0.18,3.23 -0.52,2.16 -0.59,3.84 -0.03,0.62 -0.19,0.74 -0.25,1.22 -0.1,0.81 0,1.97 -0.01,2.85z"/>
   <path class="fil4" d="M44.97 11.28c0.25,-0.27 0.71,-2.28 1.13,-2.45 0.46,-0.02 0.47,0.17 0.91,0.18 0.46,-0.45 0.14,-0.67 1.21,-0.79 0.43,-0.05 0.47,-0.05 0.85,0.07 0.44,0.15 0.38,0.05 0.82,-0.03 1.5,-0.27 4.12,-0.47 4.62,1.34 0.16,0.56 -0.44,2.56 -0.21,3.79 0.07,0.37 0.14,0.38 0.17,0.84 0.02,0.36 -0.09,0.78 -0.04,1.07 0.27,-0.36 0.23,-2.89 0.31,-3.57 0.15,-1.18 0.31,-2.38 0.41,-3.56 0.1,-1.13 0.61,-6.56 0.5,-7.24 -0.2,-0.07 -2.84,-0.51 -3.3,0.57 -0.34,0.81 -0.36,2.75 -0.77,3.45 -0.66,-0.3 -1.16,-2.59 -1.41,-3.34 -0.28,-0.84 -0.65,-0.72 -1.61,-0.72 -0.58,-0 -1.87,-0.07 -2.37,0.04 -0.4,0.74 -0.59,3.92 -0.69,5.08 -0.08,0.85 -0.23,1.68 -0.3,2.57 -0.07,0.9 -0.2,1.78 -0.23,2.72z"/>
   <path class="fil5" d="M113.79 30.11c-1.31,0.21 -1.37,-1.54 -0.85,-1.77 1.02,-0.45 1.41,0.89 0.85,1.77zm-105.98 -5.65c1.49,-0.52 1.74,-1.09 4.2,-1.36 0.92,-0.1 2.74,-0.06 3.39,0.71 0.29,0.34 0.19,0.64 0.43,0.98 0.69,0.05 1.26,-0.23 1.67,-0.59 0.67,-0.59 0.4,-0.94 -0.29,-1.27 -0.77,-0.37 -3.03,-0.62 -4.02,-0.6 -1.37,0.02 -4.3,0.63 -5.61,1.18 -0.46,0.19 -1.23,0.48 -1.59,0.7l-1.81 1.1c-1.27,0.9 -3.44,3.51 -2.51,5.41 0.5,1.01 2.5,1.72 4.04,1.57 1.92,-0.2 3.31,-1.46 4.15,-1.49 0.24,0.25 0.28,0.51 0.47,0.74 1.09,1.36 3.33,0.49 4.58,-0.23 0.37,-0.22 1.17,-0.79 1.63,-0.83 0.26,0.53 0.04,0.63 0.53,1.08 0.66,0.61 1.86,0.57 2.74,0.55 0.53,-0.01 0.85,-0.15 1.03,-0.16l0.31 0.05c-0.02,0.53 -0.4,0.68 -0.72,0.94 -0.61,0.48 -0.51,0.28 -0.15,0.94 0.05,0.52 -0.13,0.23 -0.24,0.68 0.46,0.31 1.79,0.31 2.28,0.09l0.6 -1.28c1.3,-0.88 0.17,-1.14 0.6,-1.94 0.23,-0.43 1.34,-0.75 1.95,-0.88 0.16,0.6 0.14,0.97 0.49,1.35 1.02,1.09 3.2,-0.45 4.18,-0.79 0.28,0.4 -0.1,0.74 0.96,0.94 1.17,0.22 2.75,-1.33 3.77,-1.61 0.6,0.59 0.43,0.87 1.29,1.35 1.33,0.75 2.75,0.25 4.1,-0.38 0.46,-0.21 1.32,-0.79 1.77,-0.84 0.94,3.4 4.61,-0.08 5.48,-0.18 0.5,0.76 0.41,1.09 1.41,1.53 2.17,0.95 5.87,-1.44 6.04,-2.08 -0.4,0.02 -0.92,0.3 -1.36,0.41 -0.51,0.13 -1.01,0.17 -1.52,0.27 -0.71,0.13 -0.87,0.23 -1.44,-0.17 -1.49,-1.05 0.91,-1.2 2.34,-2.04 4.11,-2.4 -1.34,-3.24 -3.96,-0.86 -1.65,1.5 -0.79,2.64 -3.87,3.21 -0.53,0.06 -0.53,-1 -0.43,-1.41 0.49,-0.55 0.12,-0.47 1.28,-1.42 1.02,-0.83 2.05,-1.79 2.57,-3.03 0.29,-0.7 0.49,-1.66 0.03,-2.27 -1.05,-0.14 -2.24,0.34 -2.95,0.73 -1.51,0.71 -1.85,1.03 -2.34,2.74 -0.19,0.68 -0.3,1.29 -0.53,1.95 -0.18,0.54 -0.46,1.44 -0.7,1.85 -1,0.33 -2.48,1.39 -3.74,0.7 -0.39,-0.22 -0.57,-0.45 -0.54,-1.09 0.67,-0.32 1.37,-0.5 2.51,-1.06 0.91,-0.44 1.62,-0.69 1.47,-2.05 -1.03,-0.43 -1.57,-0.45 -2.79,-0.11 -2.08,0.58 -2.81,1.46 -3.79,3.02 -0.37,0.59 -1.18,1.28 -2.28,1.15 -0,-1.33 0.8,-2.55 0.79,-3.2 -0.44,-0.08 -1.76,-0.15 -2.2,-0 -0.58,0.19 -0.47,2.19 -1.53,3.11 -0.23,0.2 -2.79,1.56 -1.55,-1.48 0.11,-0.27 0.2,-0.52 0.29,-0.79l0.13 -0.59c-0.05,-0.43 -1.56,-0.39 -1.93,-0.27 -0.49,0.16 -0.63,0.74 -0.81,1.29 -0.2,0.65 -0.29,1.04 -0.72,1.38 -0.33,0.26 -1.05,0.51 -1.54,0.48 0.1,-0.51 0.62,-1.4 0.41,-1.89 -0.58,-1.33 -4.5,-0.91 -2.62,2.04 -0.01,0.25 -0.01,0.24 -0.27,0.28 -0.35,0.05 -1.31,0.02 -1.64,-0.14 -0.52,-0.24 -1.48,-1.98 0.76,-2.81 0.88,-0.33 1.56,-0.32 1.62,-0.75 -1.53,-0.61 -3.06,0.12 -4.05,0.89 -1.49,1.16 -0.63,1.59 -2.9,2.53 -0.52,0.22 -1.82,0.51 -2.22,-0.05 -0.41,-0.58 0.03,-1.74 0.21,-2.27 0.25,-0.74 0.41,-1.35 0.62,-2.11 0.14,-0.52 0.58,-1.73 0.61,-2.11 -0.62,-0.13 -2.22,-0.15 -2.8,0.06 -0.36,0.33 -1.17,3.7 -1.39,4.47 -0.31,1.07 -0.16,1.34 -1.15,1.79 -0.68,0.31 -1.5,0.55 -2.43,0.44 -1.48,-0.17 -2.24,-0.89 -2.14,-2.34 0.02,-0.36 0.77,-1.6 1,-1.9 1.09,-1.39 1.73,-1.45 2.34,-1.98zm14.93 5.16l-0.16 0.32 -0.45 -0.03c-0.27,-0.31 -0.2,-0.77 -0.14,-1.23 0.24,-0.19 0.36,-0.23 0.78,-0.19 0.09,0.39 -0,0.76 -0.03,1.14zm27.28 -0.85c0.26,-1.1 1.15,-1.99 2.6,-1.91 0.03,0.81 -0.42,1.01 -0.94,1.35 -0.47,0.31 -0.96,0.53 -1.66,0.57zm-12.33 0.08c-0.22,-0.79 0.68,-2.1 2.53,-1.99 0.05,1.26 -2.39,2 -2.53,1.99zm8.2 -4.54c0.3,-0.47 0.43,-0.83 1.29,-0.7 0.67,0.71 -0.17,1.89 -0.51,2.36 -0.37,0.52 -0.99,1.42 -1.63,1.57 -0.09,-0.63 0.19,-1.13 0.39,-1.65 0.23,-0.58 0.31,-0.94 0.46,-1.59zm32.72 0.14c0.18,-0.28 0.15,-0.41 0.43,-0.54 0.27,-0.12 0.57,-0.12 0.85,-0.04 0.43,1.16 -1.63,2.92 -1.99,3.46 -0.5,0.05 -0.44,-0.26 -0.27,-0.56 0.17,-0.31 0.21,-0.43 0.32,-0.77 0.19,-0.59 0.45,-0.99 0.66,-1.54zm-0.55 3.52c0.27,-0.16 0.69,-0.57 0.97,-0.81 0.91,-0.8 1.07,-0.88 1.68,-1.89 0.37,-0.6 1.31,-1.52 0.53,-2.37 -0.29,-0.32 -1,-0.19 -1.49,-0.11 -1.11,0.17 -1.62,0.58 -2.39,1.03 -0.84,0.44 -1.07,0.86 -1.41,1.89 -0.27,0.84 -0.57,1.63 -0.83,2.43 -0.44,1.35 -0.02,1.34 -1.25,2.02 -0.77,0.42 -1.68,0.68 -2.67,0.52 -0.55,-0.97 -0.28,-2.16 0.06,-3.21 0.3,-0.95 0.56,-1.98 0.88,-2.91 0.13,-0.37 0.31,-0.62 -0.14,-0.68 -0.31,-0.04 -0.77,-0.05 -1.09,-0.04 -1.09,0.03 -1.41,-0.02 -1.57,0.61 -0.38,1.17 -0.69,2.4 -1.04,3.62 -0.48,1.67 -0.44,2 -2.09,2.49 -1.36,0.4 -3.01,0.19 -3.66,-0.68 -0.81,-1.08 0.22,-2.65 0.7,-3.39 0.35,-0.4 0.59,-0.69 0.97,-1.02 0.27,-0.24 0.26,-0.24 0.61,-0.4 0.21,-0.1 0.36,-0.23 0.56,-0.37 0.75,-0.5 1.74,-0.96 2.74,-1.21 0.87,-0.22 2.59,-0.41 3.55,-0.4 1.15,0.02 1.8,0.83 2.22,1.71 0.81,0.08 1.89,-0.75 2,-1.18 -1.43,-1.51 -5.18,-1.35 -7.47,-0.93 -2.3,0.42 -4.75,1.42 -6.31,2.62 -2.03,1.18 -4.94,5.04 -1.19,6.58 2.34,0.96 3.93,0.22 5.87,-0.8 0.45,-0.24 0.89,-0.53 1.25,-0.04 0.27,0.36 0.54,0.71 0.92,0.95 1.69,1.03 4.33,-1.1 5.49,-1.53 0.56,0.52 0.58,1.9 2.99,1.69 1.33,-0.17 1.43,-0.44 2.39,-0.97 1.92,-1.06 1.31,0.64 5,-3.31 0.31,-0.33 0.53,-0.48 1.12,-0.36 -0.06,0.92 -1.13,2.66 -0.93,3.39 0.05,0.17 0.01,0.08 0.09,0.18 -0.03,0.25 0.07,0.62 0.21,0.85 1.65,0.08 3.54,-1.22 3.88,-1.26 0.37,0.33 0.56,1.68 2.24,1.47 0.76,-0.09 2.34,-0.81 2.88,-0.82 0.36,0.31 0.34,0.6 0.78,0.85 0.85,0.02 3.57,-1.21 3.73,-1.62 0.62,0.05 0.54,0.57 0.94,1.04 0.38,0.45 0.77,0.38 1.19,0.72 -0.01,0.51 -0.67,0.6 -0.72,1.3 0.57,0.11 1.04,-0.11 1.45,0.17l0.02 0.44 -2.6 0.24c0,0.74 1.95,0.45 2.5,0.33 0.42,-0.09 0.83,-0.3 1.13,-0.5 0.34,-0.23 0.63,-0.43 0.57,-0.98 -0.21,-0.17 -0.42,-0.31 -0.77,-0.46 -0.41,-0.18 -0.68,-0.11 -0.71,-0.55 0.35,-0.22 0.98,-0.21 1.4,-0.32 1.7,-0.41 2.84,-1.22 3.73,-1.38 0.35,0.73 1,1.43 2.02,1.54 0.99,0.12 2.36,-0 3.19,-0.3 1.45,-0.51 0.78,-0.65 2.61,-0.87 0.38,-0.04 0.97,-0.3 1.36,-0.43 0.49,-0.16 0.9,-0.28 0.89,-0.82 -0.62,-0.25 -1.16,0.8 -2.36,0.59 0.03,-0.53 1.08,-0.92 0.49,-1.97 -0.78,-1.36 -3.59,-1 -3.51,0.44 0.05,0.96 0.73,1.34 0.94,1.79 -0.36,0.48 -1.28,0.42 -1.87,0.2 -0.7,-0.26 -1.15,-0.51 -1.04,-1.44 0.23,-1.99 2.44,-1.44 2.83,-2.18 -0.13,-0.19 -0.06,-0.1 -0.21,-0.22l-0.27 -0.18c-0.28,0.09 -0.71,0.01 -1.05,0.08 -0.29,0.07 -0.61,0.16 -0.93,0.24 -0.74,0.18 -1.01,0.31 -1.56,0.68 -1.7,1.13 -0.7,1.64 -2.16,2.35 -0.79,0.39 -2.66,1.21 -3.7,0.69 -0.6,-0.3 -0.79,-0.66 -0.65,-1.5 0.13,-0.83 0.61,-1.79 1.5,-1.9 0.54,-0.07 0.56,0.1 0.81,0.35 1.33,1.29 2.89,-0.35 1.79,-0.85 -1.8,-0.83 -4.89,-0.15 -6.23,2.08 -0.72,1.2 -0.67,0.74 -1.05,1.25 -0.24,0.03 -0.44,0.19 -0.78,0.28 -0.31,0.08 -0.61,0.08 -0.94,0.1l0.14 -1.37 0.46 -2.41c-1.91,-0.05 -5.18,0.44 -6.36,1.37 -1.01,0.35 -1.26,1.25 -1.98,1.74 -0.76,0.33 -0.87,0.47 -1.79,0.54 -0.28,-0.28 -0.39,-0.32 -0.24,-0.92 0.13,-0.51 0.95,-1.81 0.87,-2.59 -1.86,-0.17 -0.84,0.18 -2.95,-0.47 0.16,-0.67 1.37,-0.97 -0.35,-1.35 -0.02,0.01 -0.04,0.03 -0.05,0.04l-0.34 0.16c-0.14,0.05 -0.2,0.07 -0.33,0.14 -1.21,0.67 0.43,1.74 0.47,1.78 -0.14,0.34 -1.27,1.37 -1.64,1.71 -0.71,0.64 -1.13,1.12 -2.12,1.18 0,-0.85 0.41,-1.61 -0.25,-2.15 -0.26,-0.22 -0.62,-0.31 -0.97,-0.1 -0.96,0.57 -0.01,2.43 -0.3,2.81 -0.34,0.44 -1.3,0.5 -1.95,0.33 -0.44,-0.38 -0.7,-0.86 -0.39,-1.73 0.23,-0.64 0.69,-0.94 1.01,-1.32zm16.57 2.39c-0.55,0.32 -0.94,0.66 -1.84,0.64 -0.77,-0.02 -0.98,-0.96 -0.69,-1.63 0.39,-0.87 1.83,-1.68 3.16,-1.8 0.05,0.65 -0.37,2.24 -0.63,2.79z"/>
   <path class="fil4" d="M56.72 7.71c0.15,-0.13 0.07,-0.04 0.16,-0.23 0.3,-0.66 -0.05,-0.26 0.48,-0.51 0.4,-0.18 0.68,-0.93 1.5,-1.15 1.2,-0.32 1.24,-0.28 1.25,0.48 0.01,1.03 0.13,0.94 0.07,2.33 -0.02,0.54 -0.07,0.99 -0.07,1.55 0,0.26 0,0.52 -0,0.78 -0.01,0.39 -0.06,0.63 0.16,0.82 -0.09,-0.69 0.02,-4.99 0.19,-5.51 0.92,-0.15 3.58,0.11 4.81,-0.07 0.23,-0.58 -0.08,-4.22 -0.15,-5.06 -0.59,-0.09 -7.5,-0.04 -7.81,0.05 -0.08,0.44 -0.05,1.12 -0.1,1.64 -0.13,1.46 -0.44,3.65 -0.51,4.89z"/>
   <path class="fil3" d="M6.83 9.34c0.2,0.2 0.68,0.04 0.9,-0.12 0.22,-0.16 0.35,-0.44 0.51,-0.64 0.7,-0.07 0.68,-0.02 1.36,-0.2 0.38,-0.1 0.9,-0.19 1.34,-0.19 0.34,0 1.14,0.16 1.35,0.09 0.31,-0.1 0.15,-0.24 0.46,-0.3 0.28,-0.05 0.23,0.09 0.49,0.16 1.39,-1 0.28,-1.28 1.35,-1.27l0.24 -0.47 0.04 0.33 0.12 -0.34c0.12,-0.72 -0,-2.26 0.06,-2.64 0.12,-0.66 0.4,-2.23 0.35,-2.84l-3.61 -0.18c-0.41,0.58 -0.9,1.39 -1.25,2.09 -0.46,0.91 -0.77,1.34 -1.25,2.16 -0.37,0.63 -2.14,4.07 -2.47,4.36z"/>
   <path class="fil6" d="M93.39 15.92c-1.66,0.2 -1.54,-1.58 -2.25,1.72 0.02,0.01 0.05,0.01 0.06,0.04l0.57 0.16c0.25,0.04 0.47,0.09 0.72,0.12 0.51,0.06 0.96,0.07 1.47,0.16 0.08,0.87 -0.66,0.64 -1.24,0.57 -0.52,-0.06 -1.37,-0.17 -1.86,-0.1 -0.25,0.27 -0.78,1.63 -0.8,2.03 0.81,0.15 2.7,0.74 3.52,0.52 0.35,-0.67 0.3,-1.75 1.29,-3.36 0.8,-1.29 2.37,-3.03 4.05,-2.9 0.29,0.02 1.52,0.41 1.77,0.53 0.37,0.18 1.02,0.8 1.26,1.07 0.56,0.64 0.1,1.31 0.06,2.01 0.35,0.35 1.04,0.39 0.81,1.75 -0.22,1.3 -1.05,0.72 -1.26,1.44 0.02,0.01 0.03,0.02 0.04,0.04l0.16 0.04c0.03,0 0.07,-0 0.11,0 1.31,-0.38 2.67,-0.56 2.63,-2.33 -0.02,-0.86 -0.11,-0.64 -0.66,-0.93 0.11,-0.46 0.42,-0.18 0.31,-1.17 -0.13,-1.15 -1.11,-1.66 -2.1,-2.15 -1.21,-0.27 -3.46,-1.07 -4.79,-0.75 -1.42,0.34 -2.18,1.43 -2.63,1.57 -0.36,0.11 -0.98,0.06 -1.24,-0.07z"/>
   <path class="fil6" d="M92.2 9.61c-0.32,-0.13 -1.55,-0.55 -1.63,-0.82 0.27,-0.14 1.44,0.45 1.77,0.6 0.37,0.16 1.49,0.54 1.72,0.8 -0.15,0.12 0.26,0.19 -0.32,0.08l-1.54 -0.66zm1.44 -7.28c0.3,0.33 0.74,0.65 1.09,0.95 0.41,0.35 0.71,0.66 1.11,0.99 0.53,0.44 1.81,1.47 2.15,1.91 0.65,0.29 0.49,0.68 0.49,1.46 -0.03,0.67 0.13,1.33 0.03,2.05 -1.03,0.03 -5,-2.73 -5.9,-3.59 -0.76,-0.72 -0.42,-1.34 -0.21,-2.38l-0.07 -0.44c-0.27,0.02 -0.18,-0.04 -0.33,0.29l-0.46 1.24c-0.16,0.47 -0.52,1.36 -0.55,1.84 0.63,0.26 2.39,1.52 3.11,2.07 0.05,0.04 0.2,0.15 0.22,0.17 0.16,0.14 0.04,0.01 0.17,0.17 0.21,0.04 3.16,1.73 3.33,1.94 -1.22,-0.35 -6.92,-3.02 -7.63,-3.01l-0.37 0.93 0.05 0.28c0.6,0.14 1.62,0.57 2.22,0.81 0.35,0.14 1.87,0.87 2.01,0.88 0.61,0.21 0.86,-0.21 1.51,0.01 0.52,0.17 1.45,0.91 2,1.11 0.36,0.13 1.22,-0.08 1.38,0.22 0.3,0.73 -0.34,1.42 0.23,1.85 0.41,-0.07 0.88,-0.92 0.8,-1.69l-0.56 -0.11c0.01,-0.57 0.39,-0.26 0.31,-0.91 -0.54,-0.52 -0.21,-0.57 -0.44,-1.3 -0.28,-0.93 -0.23,-0.16 -0.25,-1.59 -0.02,-2.7 -0.31,-2.14 -1.72,-3.73 -0.32,-0.36 -0.56,-0.63 -0.9,-0.97 -0.32,-0.32 -0.59,-0.55 -0.93,-0.86 -0.3,-0.27 -0.67,-0.74 -0.95,-0.88l-1 0.04 0.05 0.24z"/>
   <path class="fil6" d="M82.6 21.37c0.01,0.32 -0.04,0.56 0.1,0.78 0.14,0.15 0.8,0.11 1.01,-0.24 0.31,-0.52 0.76,-2.41 0.93,-3.03 0.26,-0.93 1.08,-3.45 1.01,-4.33 -0.65,-0.36 -1.04,-0.49 -1.85,-0.59l-0.8 -0.06c-0.21,0.47 -0.14,1.23 -0.14,1.81 0,0.73 -0.13,1.08 -0.21,1.74 -0.14,1.13 -0.07,2.75 -0.06,3.92z"/>
   <path class="fil6" d="M87.39 12.89c0.04,0.39 -0.11,0.95 0.08,1.29 0.14,0.25 0.61,0.45 0.96,0.45 0.17,-1.22 -0.5,-1.22 -0.58,-1.42l-0.04 -1.43c0.4,-0.09 1.81,0.43 2.27,0.58 0.59,0.2 1.63,0.45 2.15,0.69 1.22,0.32 4.69,1.66 5.91,0.96 -0.12,-0.61 -1.75,-0.98 -2.64,-1.32 -1.61,-0.63 -4.1,-1.59 -5.59,-2.33 -1.72,-0.84 -0.74,1.41 -2.29,1.12 -0.02,0.4 -0.04,1.16 -0.23,1.42z"/>
   <path class="fil6" d="M93.72 15.7c0.85,-0.01 0.78,-0.11 1.27,-0.51 0.18,-0.15 0.29,-0.27 0.47,-0.39 0.22,-0.15 0.34,-0.14 0.41,-0.34l-3.88 -1.32c-0.95,-0.07 -2.58,-0.95 -3.56,-1.02 -0.21,1.94 0,1 0.3,1.88 0.06,0.18 0.07,0.43 0.13,0.66 0.88,0.5 3.69,0.82 4.86,1.03z"/>
   <path class="fil7" d="M97.91 17.32c0.44,0.13 0.89,0.23 1.32,0.33 0.52,0.12 0.72,0.19 0.81,0.72 0.23,1.28 -0.95,1.47 -1.59,0.99 0.13,-0.32 0.39,-0.23 0.63,-0.54 -0.18,-0.28 -0.21,-0.1 -0.47,-0.31 0.15,-0.45 0.38,-0.08 0.36,-0.68 -0.36,-0.28 -0.83,-0.2 -1.13,-0.43 -0.58,0.04 -1.11,-0.15 -1.15,0.5 0.33,0.27 0.37,0.02 0.56,0.39 -0.18,0.45 -0.13,0.12 -0.58,0.47 -0.19,0.15 -0.31,0.31 -0.27,0.64 0.39,0.08 0.71,0.03 0.96,0.21 -0.12,0.23 -0.16,0.14 -0.43,0.27 -0.2,0.09 -0.26,0.14 -0.41,0.28 0.16,0.57 0.71,0.44 1.29,0.42 0.15,0.26 0.17,0.4 0.36,0.63 0.53,0.08 1.01,-0.22 1.28,-0.44 0.39,-0.31 0.49,-0.49 1.1,-0.75 -0.06,-0.3 -0.06,-0.14 -0.16,-0.41l0.47 -0.19c-0.25,-0.62 -0.44,-0.22 0.01,-0.88 -0.17,-0.38 -0.16,-0.06 -0.29,-0.65 -0.11,-0.49 -1.25,-1.56 -1.35,-1.61 -0.35,0.32 -0.04,0.56 -0.7,0.58 -0.65,0.02 -0.51,-0.04 -0.62,0.5z"/>
   <path class="fil6" d="M83.26 10.43c0.25,-0.07 1.99,0.45 2.42,0.58l0.79 0.35c0.37,-0.02 0.33,0.15 1.03,0.05 0.45,-0.17 1.1,-0.94 0.98,-1.65 -0.32,-0.19 -4.7,-1.81 -5,-1.82 -0.15,0.46 -0.31,2.04 -0.22,2.48z"/>
   <path class="fil6" d="M90.66 17.61c0.33,-0.52 0.55,-1.2 0.52,-1.94 -1.36,-0.4 -2.55,-0.49 -3.27,-0.7 -0.47,-0.13 -0.55,-0.24 -1.15,-0.25l0.06 2.52c0.09,0.25 0.24,0.2 0.6,0.25 0.79,0.1 2.46,0.32 3.25,0.12z"/>
   <path class="fil4" d="M90.33 6.12c-0.28,-0.19 -0.76,-0.38 -1.07,-0.55 -0.42,-0.22 -0.76,-0.43 -1.13,-0.66 -0.71,-0.44 -1.45,-0.91 -2.17,-1.31 0.05,0.44 -1,-0.26 -1.09,-0.31 -0.42,-0.24 -0.72,-0.39 -1.21,-0.55 -0.08,0.58 0.38,1.64 0.76,1.86 0.52,0.3 0.55,-0.02 1.89,0.82 0.57,0.36 3.06,1.64 3.71,1.52 0.14,-0.25 0.21,-0.53 0.32,-0.82z"/>
   <path class="fil6" d="M88.01 19.93c0.23,-0.09 0.4,-0.11 0.7,-0 0.05,0.5 -0.19,0.46 -0.7,0.39 -0.1,-0.3 -0.09,-0.15 -0.01,-0.39zm-1.28 0.28c-0.2,0.31 -0.33,-0 -0.46,0.38 0.57,0.12 3.05,0.33 3.39,-0.17 0.03,-0.05 0.11,-0.21 0.13,-0.26 0.23,-0.5 0.62,-1.14 0.56,-1.69 -0.78,-0.12 -3.12,-0.26 -3.84,-0.13 -0.82,1.97 -0.03,1.33 0.23,1.86z"/>
   <path class="fil6" d="M84.21 5.75c0.98,0.12 2.26,0.98 3.42,1.45 0.46,0.19 0.87,0.28 1.07,0.59l-0.3 0.05c-0.48,-0.07 -2.77,-1.25 -3.12,-1.39 -0.19,-0.08 -0.44,-0.14 -0.63,-0.23 -0.39,-0.17 -0.27,-0.13 -0.44,-0.47zm5.11 3.06c0.13,-0.28 0.4,-0.83 0.34,-1.23l-5.41 -2.42c-0.43,-0.19 -0.7,-0.29 -0.71,0.29 -0.03,1.14 0,1.12 0.83,1.46 0.92,0.38 4.49,1.93 4.96,1.9z"/>
   <path class="fil1" d="M65.24 27.29c0.36,0.16 1,0.16 1.48,0.16 0.66,0 0.75,-0.13 0.92,-0.66 0.22,-0.7 0.66,-1.77 0.62,-2.55 -0.7,-0.06 -1.78,0.6 -2.19,0.9 -0.78,0.57 -1.09,0.88 -0.83,2.15z"/>
   <path class="fil6" d="M83.38 12.64c0.63,0.11 3.01,0.34 3.57,0.18l0.06 -1.08 -0.66 -0.25c-0.76,-0.17 -2.68,-0.87 -3.26,-0.86 -0.01,0.37 0,0.74 0,1.11 0,0.59 -0.03,0.61 0.29,0.89z"/>
   <path class="fil6" d="M102.4 13.27l-1.58 -1.06 -0.36 -0.01c-0.05,0.36 -0.05,0.81 -0.14,1.2 -0.08,0.33 -0.28,0.6 -0.31,0.91 0.63,0.31 1.47,0.52 2.32,0.45 0.11,-0.46 0.14,-1 0.07,-1.48z"/>
   <path class="fil4" d="M72.58 27.23c0.3,0.26 0.86,0.29 1.36,0.29 0.66,-0.01 0.65,-0.24 0.81,-0.83 0.12,-0.46 0.29,-1.1 -0.2,-1.21 -0.27,-0.06 -1.26,-0.1 -1.54,-0.07 -0.35,0.35 -0.55,1.23 -0.42,1.83z"/>
   <path class="fil7" d="M94.1 10.91l0.16 0.2c0.6,0.22 1.25,0.6 1.92,0.88 0.51,0.21 0.53,0.35 0.86,0.54 0.19,0.1 0.29,0.07 0.48,0.21 0.13,0.09 0.22,0.25 0.38,0.38 0.54,-0.02 0.74,-0.36 0.76,-0.93l0.32 0.05c-0.16,-0.29 -1.02,-0.09 -1.38,-0.22 -0.55,-0.2 -1.48,-0.94 -2,-1.11 -0.66,-0.22 -0.9,0.2 -1.51,-0.01z"/>
   <path class="fil8" d="M94.26 11.11l-0.16 -0.2c-0.14,-0.02 -1.66,-0.74 -2.01,-0.88 -0.6,-0.24 -1.62,-0.67 -2.22,-0.81l-0.05 -0.28c-0.52,1.08 0.45,0.94 1.77,1.52 1.24,0.54 1.65,0.82 2.66,0.66z"/>
   <path class="fil9" d="M9.3 26.64c0.51,-0.21 0.97,-1.64 0.84,-2.47 -0.31,-0.02 -0.45,0.16 -0.75,0.29 -0.34,0.15 -0.62,0.13 -0.62,0.46 -0.01,0.33 0.4,1.47 0.53,1.71z"/>
   <path class="fil10" d="M84.21 5.75c0.17,0.34 0.05,0.3 0.44,0.47 0.19,0.08 0.43,0.15 0.63,0.23 0.35,0.14 2.65,1.32 3.12,1.39l0.3 -0.05c-0.2,-0.31 -0.61,-0.4 -1.07,-0.59 -1.16,-0.47 -2.44,-1.33 -3.42,-1.45z"/>
   <path class="fil9" d="M6.28 27.43l0.91 -0.09 0.32 -1.49c-0.4,0.04 -0.66,0.35 -0.84,0.57 -0.19,0.24 -0.39,0.69 -0.39,1.01z"/>
   <path class="fil11" d="M90.57 8.8c0.08,0.27 1.32,0.68 1.63,0.82l1.54 0.66c0.58,0.11 0.17,0.04 0.32,-0.08 -0.23,-0.26 -1.35,-0.64 -1.72,-0.8 -0.34,-0.14 -1.5,-0.74 -1.77,-0.6z"/>
   <path class="fil3" d="M98.47 7.65c0,-0.79 0.16,-1.17 -0.49,-1.46 0.06,0.27 0.14,0.46 0.24,0.74 0.1,0.29 0.11,0.51 0.25,0.73z"/>
  </g>
 </g>
</svg>
