<?xml version="1.0" encoding="UTF-8"?>
<!DOCTYPE svg PUBLIC "-//W3C//DTD SVG 1.1//EN" "http://www.w3.org/Graphics/SVG/1.1/DTD/svg11.dtd">
<!-- Creator: CorelDRAW -->
<svg xmlns="http://www.w3.org/2000/svg" xml:space="preserve" width="66.1069mm" height="38.0625mm" version="1.1" style="shape-rendering:geometricPrecision; text-rendering:geometricPrecision; image-rendering:optimizeQuality; fill-rule:evenodd; clip-rule:evenodd"
viewBox="0 0 165.33 95.19"
 xmlns:xlink="http://www.w3.org/1999/xlink"
 xmlns:xodm="http://www.corel.com/coreldraw/odm/2003">
 <defs>
  <style type="text/css">
   <![CDATA[
    .fil0 {fill:black}
    .fil13 {fill:#1171C1}
    .fil4 {fill:#17ABF1}
    .fil7 {fill:#18ACF2}
    .fil8 {fill:#1BC4FB}
    .fil15 {fill:#2A454E}
    .fil16 {fill:#34687B}
    .fil11 {fill:#3A3D3D}
    .fil14 {fill:#474643}
    .fil12 {fill:#5DCFF9}
    .fil9 {fill:#5ED1FC}
    .fil5 {fill:#60D2FD}
    .fil2 {fill:#EFAE65}
    .fil6 {fill:#F1AF67}
    .fil3 {fill:#FCFCFC}
    .fil10 {fill:#FDE7B5}
    .fil1 {fill:#FEDA86}
   ]]>
  </style>
 </defs>
 <g id="Camada_x0020_1">
  <metadata id="CorelCorpID_0Corel-Layer"/>
  <g id="_2086936621248">
   <path class="fil0" d="M83.58 84.75zm0 0zm-72.24 -84.75l1.07 0c1.21,0.07 2.38,0.39 3.47,0.92 5.08,2.49 2.21,3.1 4.26,-0.42 3.66,0 6.8,-0.25 10.61,-0.25l37.89 -0c1.94,-0.01 3.12,0.28 5.2,0.24 1.32,-0.03 1.86,-0.36 1.97,0.99 0.16,1.99 -0.77,5.9 -1.13,7.95l-1.62 10.56c-0.59,3.4 -1.39,6.99 -1.39,10.83l6.71 0c0.37,-1.59 1.89,-1.89 2.33,-3.78 0.81,-3.46 0.89,-14.71 1.78,-16.85l-3.46 0c0,-3.48 1.25,-7.4 1.3,-9.69 6.19,0 21.67,-0.92 26.36,-0.18 3.67,0.58 21.29,0.18 26.48,0.18 0,2.03 0.01,3.2 -0.25,4.94 -0.64,4.31 -1.38,8.47 -1.7,12.96 3.17,0.85 2.99,-0.07 5.2,-1.73 0.48,-0.36 1,-0.68 1.5,-1.01 1.9,-1.29 3.87,-3.4 5.47,-5.15 0.92,-1 1.96,-1.42 3.05,-2.22 0.86,-0.63 0.48,-1.04 1.66,-1.09 0.96,-0.04 1.31,0.51 1.95,0.47 1.57,-0.1 7.16,-8.46 8.87,-1.44 0.88,3.61 2.08,0.78 1.67,6.14 -0.08,1.06 1.03,5.52 1.34,6.57l2.34 8.75c1.93,7.66 1.09,6.49 -1.25,13.05 -0.48,1.36 -0.94,2.49 -1.4,4.11 -0.44,1.54 -0.77,2.78 -1.29,4.24 -0.49,1.41 -1.15,2.44 -1.79,3.67 -0.23,0.44 -0.66,1.51 -0.86,2.03 -0.9,2.35 5.37,9.62 4.41,13.97 -0.26,1.19 -1,3.09 -1.91,3.54 -1.2,0.59 -1.95,1.29 -2.91,2.38l-4.15 6.67c-0.62,1.11 -1.07,2.77 -2.17,3.25 -3.7,1.63 0.43,-5.31 -1.57,-4.61 -0.95,0.33 -1.66,2.19 -2.07,3.14 -0.41,0.95 -0.52,0.94 -0.94,1.65 -1.73,0 -2.16,-0.23 -2.16,-2.24 -0.9,0.55 -1.7,1.21 -2.6,1.74 -5.72,3.39 -2.72,1.37 -5.59,1.65 -0.77,0.08 -0.54,0.32 -1.55,0.35 -0.92,0.03 -0.96,-0.19 -1.73,-0.26 -0.4,0.69 -1.4,2.07 -2.2,2.24 -1.86,0.4 -1.7,-1.01 -1.7,-2.74 -3.42,0 -3.24,-2.47 -5.9,0.69 -0.85,1.01 -1.34,1.31 -3.15,1 -4.43,-0.77 -0.99,-2.2 -9.11,1.59 -3.75,1.75 -3.22,-0.78 -1.77,-3.27 -2.88,0.28 -5.17,3.81 -7.58,2.49 0,-3.91 2.6,-2.53 0.22,-7.71 -1.61,0 -2.08,1.42 -3.2,3.53 -1.3,2.44 -3.86,2.64 -6.17,3.36 -1.58,0.5 -2.02,2.62 -4.03,2.3 -0.34,-0.05 -0.84,-0.35 -1.01,-0.6 -0.32,-0.45 -0.3,-0.67 -0.31,-1.38 -1.29,0.71 -2.77,1.49 -4.11,0.75 0,-2.27 0.53,-1.85 0.87,-3.48 -1.29,0.99 -2.36,2.58 -4.03,3.1 -2.27,0.7 -2.92,-1.33 -3.33,-3.35l-1.52 0c-0.15,-0.64 -0.38,-0.9 -0.65,-1.49 -0.69,0.18 -0.95,0.45 -1.57,0.69 -1.69,0.64 -2.38,2.18 -4.49,2.06 -1.75,-0.1 -1.9,-0.52 -3.64,0.31 -1.44,0.69 -1.77,0.1 -2.87,-0.57l-1.22 5.06c-0.58,2.26 -0.57,2.89 -1.59,4.63l-0.04 0c-0.91,-0 -1.29,-0.1 -1.74,-0.69 -1.14,-1.49 -1.78,-3.72 -2.31,-5.55 -0.41,-1.4 -0.72,-2.76 -1.13,-4.17 -0.37,-1.25 -1.01,-2.43 -1.27,-3.76 -2.28,1.92 -2.29,8.28 -4.71,9.79 -0.14,0.09 -0.4,0.23 -0.56,0.3 -1.72,0.79 -0.95,-3.5 -0.34,-5.33 0.64,-1.91 1.23,-3.17 1.7,-5.5l-1.92 -0.01 -0.25 -1.48c-0.86,0.08 -1.45,0.4 -2.26,0.64 -0.79,0.23 -1.55,0.37 -2.37,0.51 -2.7,0.47 -7.95,0.34 -10.74,0.34 -0.94,0 -1.88,0 -2.82,0.01 -1.19,0.01 -1.5,-0.17 -2.38,-0.25 -0.17,-0.4 -0.11,-0.38 -0.23,-0.73l-0.2 -0.51c-0.06,0.84 -0.17,0.91 -0.43,1.49 -1.73,0 -3.46,-0 -5.2,0 -1.2,0 -3.74,0.6 -4.11,-0.99 -1,0.27 -1.7,0.72 -2.61,0.98 -3.76,1.08 -8.02,-0.05 -9.62,-4.35 -1.35,-3.64 -0.59,-6.39 0.1,-9.81l4.33 0c-2.3,-3.94 -3.52,-5.87 -2.73,-11.09 0.56,-3.68 2.93,-6.79 6.16,-7.84 3.17,-1.03 4.64,0.04 7.61,0.04 0.6,-1.31 1.06,-1.94 1.88,-3.06 0.72,-0.97 1.29,-1.96 1.98,-2.94 1.3,-1.85 3.31,-3.56 3.5,-6.18 -6.82,0 -6.84,-2.99 -9.09,-4.72 -0.19,0.82 -0.94,1.3 -1.52,1.74 0.3,0.71 1.28,4.73 1.3,5.72 -1.62,0 -2.93,0.34 -4.35,0.48 -1.44,0.14 -3.07,0.49 -4.31,0.52 -0.48,-1.14 -0.7,-2.37 -1.45,-3.31 -1.84,-2.31 -5.44,-1.25 -6.42,-6.8 -0.07,-0.37 -0.11,-0.78 -0.15,-1.22l0 -3.86c0.24,-4.35 1.09,-9.49 1.57,-12.08 0.95,-5.16 2.5,-9.28 7.14,-10.95 0.88,-0.32 1.76,-0.49 2.63,-0.55z"/>
   <path class="fil1" d="M140.75 20.74c0.21,0.73 -0.07,0.3 0.3,0.78 0.98,-0.01 0.6,-0.38 1.4,-0.04 0.66,0.28 0.12,0.56 1.22,0.6 3.16,0.12 3.27,-4.09 5.97,-4.97 0.22,0.41 0.25,-0.1 0.24,0.91 -0.01,0.89 -3.2,5.72 -3.54,6.15 -0.58,0.73 -1.11,1.11 -1.57,1.75 -0.63,0.88 -4.1,8.13 -5.26,8.31l0.63 -1.58c0.22,-3.75 2.41,-5.17 1.55,-7.79 -1.08,-0.33 -2.5,-0.06 -3.38,0.76 -0.85,0.79 -0.97,2.13 -1.6,3.26 -0.31,0.55 -0.53,1.12 -0.83,1.6 -0.33,0.52 -0.67,0.85 -1.08,1.3 -1.11,1.26 -0.76,1.71 -1.39,3.23 -0.26,-0.63 0.05,-1.25 0.1,-2.21 0.05,-0.97 -0.15,-1.86 0.25,-2.46 0.74,-2.46 4.26,-8.07 5.98,-10.17 1.24,-1.52 7.07,-7.02 7.43,-8.48 -1.2,-0.92 -1.44,-0.21 -2,-2.12l-0.6 0.41 0.38 0.04c-0.75,0.5 -0.74,1.13 -2.46,2.6l-1.29 1.33c-1.23,1.39 -3.08,2.33 -4.37,3.38l-5.8 7.08c-0.52,0.88 -0.65,0.81 -1.1,1.54 -0.55,0.88 -0.67,3.26 -0.86,4.59 -0.49,3.59 0.07,3.83 -0.26,4.79l0.86 0.4c-0.27,0.48 -0.44,0.64 -0.65,1.12 0.55,1.36 0.35,-0.18 0.83,0.99 -0.43,0.64 -0.61,0.73 -0.73,1.55 0.55,0.72 0.42,0.28 0.82,1.02 -1.81,2.69 0.02,1.79 -1.1,4.61 -0.48,1.21 -0.88,3.63 -1.32,4.35 -0.56,0.91 -0.73,0.53 -0.99,1.7 -0.19,0.85 -0.12,1.63 -0.4,2.52 -0.14,0.45 -0.76,1.69 -0.94,2 -0.52,0.84 -0.78,0.71 -1.41,1.27 -1.14,1.24 -0.53,1.6 -1.2,2.84 -0.57,1.05 -1.33,0.71 -2.14,1.31 0.63,1.1 2.59,1.3 3.19,1.92 2.1,0.13 6.87,3.48 9.36,3.6 2.68,-0.59 7.54,-6.41 8.67,-8.58 0.98,-1.89 1.44,-0.72 2.71,-3.77l2.4 -4.37c0.39,-0.86 -0.06,-0.53 1.22,-3.43 1.31,-2.96 1.46,-5.03 3.32,-7.61 0.25,-0.34 0.76,-0.87 0.97,-1.19 0.62,-0.96 0.36,-2.36 1.08,-3.59 0.45,-0.76 1.33,-1.91 1.65,-2.68 0.42,-1.03 0.74,-2.37 1.18,-3.5 0.38,-0.99 0.77,-2.26 1.1,-3.31 0.51,-1.63 0.4,-2.1 1.74,-2.86 -0.12,-1.47 -0.27,-2.47 -1.14,-2.9 -1.36,-0.67 -3.87,1.68 -2.44,2.99l1.2 -0.03c0.91,-0.45 0.67,-0.92 1.4,-1.85 0.18,1.99 -0.26,1.13 -0.66,2.26 -0.73,0.68 -1.18,0.51 -2.19,0.51 -0.22,2.39 -0.38,2.3 -3.09,4.58 -0.26,0.37 -0.83,1.86 -1.16,2.49l-3.96 7.46c-0.52,-0.17 -0.27,0.1 -0.52,-0.56 0.19,-1.45 -0.44,-1.83 0.08,-3.56 1.48,-5.03 3.29,-3.7 4.04,-7.76 -1.24,0.44 -0.69,0.98 -2.51,0.66 0.09,-0.89 1.43,-3.73 1.91,-4.46 0.68,-1.03 0.57,-0.59 1.12,-2.03 0.31,-0.79 0.56,-1.21 1.36,-1.34 -0.23,2.34 -0.5,-0.78 -0.47,4.21l0.8 -0.11c0.58,-1.12 0.41,-1.39 1.26,-2.13 3.08,-3.74 3.08,-0.8 3.83,-4.09 0.63,-2.81 -0.32,-4.7 -2.73,-4.85 0.52,1.26 0.79,0.51 1.42,1.82 -0.29,1.27 -1.03,2.24 -2.26,2.28 -2.31,0.07 -1.47,-1.57 -2.1,-2.35l-2.01 3.76c-0.28,0.45 -0.14,0.24 -0.32,0.49 0.13,-2.02 2.89,-6.18 4.99,-6.67 1.74,-0.41 2.43,-0.46 3.06,-2.52 0.57,-1.88 -0.53,-3.86 -1.84,-3.12 0.49,0.9 0.69,0.47 1.17,1.53 -0.4,0.99 -1.34,2.02 -2.42,2.37 -0.55,0.18 -1.28,0.13 -1.77,-0.16l-0.77 -0.92c-0.02,-0.04 -0.08,-0.07 -0.09,-0.17 -0.02,-0.09 -0.06,-0.12 -0.1,-0.17 -1.43,0.72 -5.39,6.76 -7.03,8.53l-4.33 4.89z"/>
   <path class="fil2" d="M158.11 31.76c1.57,2.52 -0.83,6.46 -0.88,7.67 -0.06,1.48 0.71,1.28 0.86,2.47 -1.27,-0.89 -1.5,-2.53 -0.88,-4.5 0.84,-2.69 0.92,-2.52 0.9,-5.64zm0 0c-0.34,-0.2 -0.18,-0.16 -0.67,-0.18 -0.81,1.52 -1.65,3.86 -2.3,5.71 -0.44,1.26 -1.93,4.6 -2.68,5.4 0.15,1.31 -1.26,3.79 -1.79,5 -0.76,1.72 -1.08,3.24 -1.88,4.97 -0.91,1.97 -2.36,4.9 -3.59,6.58 -0.59,0.81 -0.95,0.92 -1.1,2.36l0.76 0.62c0.31,0.28 0.2,0.18 0.34,0.35 1.79,0.14 2.61,1.05 4.9,1.03 0.87,-0.01 1.76,-0.13 2.56,-0.35 2.38,-0.67 1.95,-0.39 2.54,-3.48 -0.01,-2.86 0.59,-3.6 2.29,-6.26l0.63 -0.83c0.05,-1.37 0.9,-2.69 1.34,-4.04 0.51,-1.58 0.93,-2.53 1.34,-4.31 0.53,-2.32 2.16,-5.99 3.12,-8.11 1.58,-3.53 -0.72,-9.19 -2.12,-13.22 -0.47,-1.36 -1.21,-2.98 -1.92,-3.61 1.57,0.4 0.17,0.7 1.51,1.21 0.09,-1.64 -0.79,-2.21 -0.6,-3.49 0.08,-0.52 0.07,-0.36 0.21,-0.62 0.05,-0.45 0.14,-0.39 -0.22,-0.22 -0.25,-0.19 -0.06,0.04 -0.33,-0.38 -0.53,-0.85 -0.57,-2.4 -1.73,-2.9l-0.56 5.38c0.57,0.39 0.74,0.67 1.53,0.93 -0.18,1.36 0.13,2.26 -0.13,3.75 -0.48,2.78 -2.08,6.08 -1.46,8.75z"/>
   <path class="fil3" d="M118.83 37.17c-0.41,-0.05 -1.22,0.13 -1.69,0.18 0.2,-1.35 0.73,-1.03 1.72,-0.86 0.94,0.16 1.14,0.16 1.31,1.19 -0.84,-0.17 -0.68,-0.44 -1.34,-0.51zm-6.32 41.51l0.5 -0.12c-0.27,-0.33 0.13,-0.14 -0.31,-0.21 -0.69,-0.1 0.04,-0.09 -0.2,0.32zm-20.34 -0.32c0.82,-0.06 1.4,-0.26 2.04,-0.81 -0.2,-0.83 -0.38,-1.03 -1.14,-1.26 -0.24,0.42 -0.75,1.45 -0.9,2.07zm-43.18 -0.09c0.31,-0.65 0.8,-2.47 1.08,-3.29 0.35,-1.03 0.07,-2.69 -0.83,-3.25l-0.53 5.82c0.14,1.41 -0.08,0.26 0.28,0.73zm6.01 0l4.99 0.01 0.79 -5.76 -5.14 -0.05c-1.39,0 -1.47,0.84 -1.33,2.48 0.1,1.14 0.35,2.45 0.69,3.32zm55.73 -0.62c0.25,-1.07 0.66,-4.13 0.57,-5.17l-1.54 -0.02c-1.09,1.86 0.76,2.69 -4.44,2.6 -1.58,-0.03 -4.18,0.38 -5.83,0.64 -0.24,0.74 -0.38,1.65 -0.29,2.51 3.51,0.7 3.85,-1.91 6.09,-0.87 1.34,0.62 0.76,1.47 2.61,0.64 1.64,-0.73 1.57,-0.13 2.84,-0.33zm-17.94 -6.97c0,1.87 0.91,0.57 1.47,2.06 0.12,0.32 0.09,0.57 0.2,0.97 4.36,0.46 3.4,-4.13 4.35,-10.81 0.4,-2.81 1.84,-11.35 1.71,-13.85l-3.01 -0.05c-1.09,1.99 -0.81,0.57 -1.82,1.23 -0.62,0.4 -0.36,0.78 -0.61,2.63 -0.52,3.9 -2.27,15.38 -2.27,17.82zm-4.45 4.58c2.24,-1.72 1.38,0.89 1.57,-5.6 0.12,-4.33 2.59,-16.88 2.33,-19.51l-4.87 -0.02 -2.31 16.96c-0.34,2.83 -1.02,6.11 0.31,8.69 0.47,0.91 1.51,2.11 2.17,2.41 1.92,0.87 0.87,-2.05 0.81,-2.93zm-38.36 -8.39c0.06,0.04 0.16,-0.01 0.19,0.09l1.97 0.7c0.7,0.12 1.5,-0.31 2.62,-0.27l0.46 -1.43c6.52,-0.01 5.4,0.66 5.75,-2.32 0.13,-1.1 0.34,-2.03 0.23,-3.12l-5.22 -0.13 0.56 -5.64 6.14 -0.07 0.64 -4.39 -2.8 -0.08c-0.75,-0.22 -0.05,-0.87 -1.33,-1.15l-7.08 0.05 -1.01 8.75c-0.37,2.86 -0.98,6.17 -1.13,9.02zm50.04 3.81l-0.17 1.78c0.91,0.59 4.32,-0.21 5.15,-0.61 1.05,-7.75 -0.46,-5.66 6.37,-5.93 0.16,-1.97 0.59,-3.38 0.43,-5.46l-5.44 -0.11 0.72 -5.62 4.2 -0.07 -1.86 -1.42c-0.45,-0.22 -0.02,0.13 -0.36,-0.3 -0.57,-0.71 -1.53,-3.51 -1.96,-3.8 -1.13,-0.25 -3.22,-0.25 -4.35,0.02 -1.29,6.13 -1.77,16.37 -2.72,21.52zm-90.25 -2.37l-4.6 -0.1c-1.55,4.14 -0.4,9.93 3.44,10.18 4,0.25 7.03,-0.22 8.83,-5.23 1.43,-4 0.9,-6.1 -0.73,-8.94 -1.23,-2.15 -3.25,-4.03 -4.46,-6.33 -1,-1.9 -0.43,-4.57 1.81,-4.09 1.29,1.5 0.34,2.62 0.51,4.7l4.66 -0c0.16,-1.93 0.51,-3.37 0.28,-5.35 -0.35,-2.96 -0.25,-2.71 -2.91,-2.53 0.32,-1.1 0.42,-0.31 0.45,-1.52 -10.4,-2.67 -11.59,8.77 -9.65,12.87 1.17,2.48 4.68,5.35 5.37,7.32 1.24,3.54 -2.99,5.77 -3.06,2.19 -0.03,-1.3 0.44,-2.12 0.09,-3.14zm15.77 -0.73c-0.06,-1.16 1.06,-5.11 1.36,-6.45 0.47,-2.11 0.57,-4.73 1.47,-6.28l-0.46 11.79c-0.12,1.51 -0.96,1.09 -2.37,0.94zm-7.5 10.64c1.53,0.26 3.39,0.15 4.97,0.08l1.3 -5.39 3.18 0.01 -0.03 5.35 5.3 0.04 -0.14 -28.01 -7.39 0.05 -3.59 13.91c-0.55,2.31 -3.62,12.31 -3.61,13.96zm58.45 -5.03c-2.33,0.44 -2.24,-1.31 -1.94,-3.5l1.52 -10.85c0.22,-1.52 -0.02,-4.38 1.16,-4.9 2.42,-1.09 2.18,1.9 1.94,3.65 -0.23,1.69 -0.31,3.7 -0.57,5.55 -0.4,2.83 -0.6,8.62 -2.12,10.05zm-6.03 3.42c0.67,0.48 1.19,1.16 1.98,1.52 1.11,0.51 2.05,-0.01 3.1,0.5 0.58,1.58 -0.65,1.88 0.95,3.49 1.24,-1.2 0.05,-1.61 3.21,-5.21 1.86,-2.12 2.25,-2.43 2.89,-5.63 0.56,-2.78 2.01,-13.6 2.01,-16.36 0,-1.8 -0.37,-4.72 -2.34,-4.72l-7.54 0c-1.46,0 -2.86,3.06 -3.26,4.57l-2.12 16.95c0.11,1.38 -0,0.47 0.82,1.4 0.85,0.95 0.22,2.15 0.3,3.5zm-30.89 -3.51c-0.1,-1.28 0.7,-6.56 1.11,-7.63 0.86,-0.15 1.66,0.15 2.2,0.82 0.44,0.82 0.35,8.04 -3.3,6.8zm1.53 -12.69c-0.25,-1.43 0.29,-5.31 0.87,-6.44 0.95,-0.17 1.53,0.34 2.12,0.69 0.09,0.81 -0.16,3.64 -0.36,4.42 -0.31,1.19 -1.64,1.71 -2.63,1.33zm-7.18 17.86c10.26,0.38 12.55,0.16 14.04,-9.03 0.51,-3.16 0.06,-5.01 -1.73,-6.31 0.59,-1.39 2.07,-1.92 2.64,-4.82 0.31,-1.59 0.6,-5.53 0.02,-6.9 -1.14,-2.67 -8.5,-2.44 -11.39,-2.13 -0.5,2.26 -0.68,4.65 -1,7.01 -0.35,2.61 -2.68,21.04 -2.57,22.18zm47.59 -70.22c0.81,0.61 2.27,0.36 3.22,0.38l-0.48 4.29c0.48,1.62 -1.95,12.42 -1.93,15.42 0.92,-0.03 3.57,-1.27 4.6,-1.71 1.68,-0.71 1.28,-0.81 1.9,-5.24l1.64 -12.75 3.48 -0.24c0.48,-0.78 0.5,-1.92 0.61,-2.85 0.11,-1.01 0.28,-1.83 0.37,-2.86l-12.95 -0.04 -0.46 5.6zm23.09 22.88c0.54,-0.82 0.72,-3.1 0.74,-4.27l-7.02 -0.06c-0.07,-1.09 0.61,-5.86 0.92,-6.63l5.87 -0.1c0.47,-0.87 0.9,-4.5 0.91,-5.66l-5.91 -0.09c-0.08,-1.01 0.17,-2.03 0.3,-3.02 0.18,-1.3 0.14,-2.59 0.71,-2.81 1.59,0 4.94,0.27 6.21,-0.19 0.49,-0.73 0.94,-4.49 1,-5.64l-12.56 0.01c-0.58,6.92 -1.62,13.64 -2.63,20.39 -0.26,1.74 -0.23,3.5 -0.5,5.23 -0.46,2.92 -0.47,3.08 2.05,3.05 1.74,-0.02 9.05,0.43 9.93,-0.21zm-66.3 -27.63c0,4.61 -3.44,21.26 -3.57,28.31 2,0.01 11.42,0.32 12.42,-0.43 0.54,-0.93 0.67,-3.17 0.69,-4.48l-6.78 -0.1c-0.24,-1.57 0.29,-5.12 0.69,-6.69l6.01 -0.03 0.85 -5.67 -5.97 -0.09c-0.21,-1.04 0.12,-1.97 0.26,-2.98 0.52,-3.76 -0.32,-2.86 7.08,-2.87l0.95 -5.79 -12.63 -0.03 0 0.85zm-13.71 29.55l0.08 -0.64c0.08,-0.45 -0.3,0.14 0.14,-0.59 1.06,0 3.53,0.15 4.44,-0.05 1.03,-0.22 1.86,-1.79 2.42,-2.62 1.3,-1.93 1.58,-5.15 1.97,-8.11 0.82,-6.13 1.84,-12.2 2.34,-18.41l-5.41 0.03 -2.84 20.47c-0.38,2.7 -0.12,4.8 -3.02,4.37 -1.52,-3.2 2.4,-20 2.51,-24.8l-5.55 -0.1c-0.65,5.72 -3.75,21.92 -2.57,26.51 0.45,1.74 0.65,2.2 1.92,2.88 1.4,0.75 1.77,1.07 3.56,1.07zm-13.96 -25.27c1.96,-1.13 2.54,1.11 2.25,3.17l-1.64 11.3c-0.3,1.92 0.06,4.5 -1.24,5.24 -2.07,1.17 -2.61,-1.18 -2.33,-3.23 0.28,-2.02 0.38,-3.93 0.63,-5.86 0.25,-1.91 0.54,-3.79 0.84,-5.68 0.46,-2.91 0.17,-4.18 1.49,-4.94zm-1.35 29.07l4.44 -0.68c0.18,-1.97 -0.66,-2.15 -1.04,-4.19 2.58,-2.27 3.18,-3.32 3.94,-7.6 0.62,-3.47 0.93,-7.18 1.48,-10.79 0.55,-3.61 1.12,-7.49 -1.2,-9.68 -3.56,-3.36 -9.89,-1.57 -11.45,2.06 -0.58,1.34 -1.19,2.47 -1.66,4.2 -0.84,3.09 -0.83,7.67 -1.27,11.03 -0.73,5.56 -1.66,10.77 4.57,11.75 1.41,0.22 0.88,0.09 1.36,1.52 0.25,0.75 0.61,1.48 0.84,2.37zm97.36 -6.15l-0.28 1.75 1.92 -0.26 0.8 -1.36c2.17,0.21 2.11,-0.1 2.96,-2.34l1.15 -7.57c0.43,-3.35 0.94,-6.76 1.34,-9.99l0.15 18.43c6.06,-0.56 4.28,0.74 5.84,-5.13 0.42,-1.59 0.86,-3.15 1.36,-4.78l2.5 -9.68c0.69,1.19 -1.5,10.43 -1.69,13.59 -0.11,1.73 -0.45,3.58 -0.45,5.09l-0.25 1.6c1.08,0.08 1.71,0.03 2.34,0.92 0.71,0.02 1.45,0.96 2.48,1.35 0.44,-0.81 2.47,-18.22 3.03,-22.06 0.32,-2.2 0.93,-5.45 1,-7.59l-8.24 0.01c-0.7,1.28 -1.8,5.79 -2.33,7.55l-1.77 8.16c-0.24,-2.59 0.92,-14.35 -0.04,-15.46 -0.77,-0.91 -4.68,-0.26 -6.29,-0.29 -0.84,-0.01 -1.41,-0.27 -1.86,0.26 -0.7,0.85 -1.63,11.66 -1.91,13.83 -0.29,2.19 -2.06,12.94 -1.76,13.99zm-57.49 0.26c0.41,0.97 -0.08,0.29 0.87,0.45 0.42,0.07 0.66,0.17 1.19,0.23 3.59,0.43 3.19,-0.58 3.29,-1.43l2.82 -21.06 0.01 22.25 3.92 -0.07 4.38 -16.86c0.23,-1.34 1.18,-4.54 1.71,-5.4 -0.2,3.32 -1.26,7.58 -1.71,11.01 -0.26,1.98 -0.27,3.72 -0.57,5.73 -0.24,1.64 -0.65,3.91 -0.71,5.6 0.87,0.16 1.71,0.09 2.6,0.07 0.91,-0.01 2.06,0.16 2.6,-0.35 0.13,-0.23 3.81,-26.46 3.9,-28.43l-8.55 -0.03c-0.52,2.52 -1.63,5.26 -2.13,7.77 -0.47,2.35 -1.1,6 -1.78,8.04l0.39 -15.86 -8.66 0.05c-0.66,4.7 -1.09,9.48 -1.78,14.04 -0.57,3.74 -1.8,10.66 -1.8,14.25zm70.11 12.67c-0.16,-0.62 -0.01,-0.37 -0.42,-0.65 -0.56,0.89 -0.03,0.63 0.42,0.65zm7.26 -1.46c0.07,-0.15 0.22,-0.49 0.36,-0.79 -0.27,-0.35 0,-0.15 -0.57,-0.38 -0.42,0.47 -0.51,0.42 -0.7,1.3l0.9 -0.13zm-10.64 -0.89c0.13,0.17 0.07,0.49 0.65,1 0.38,0.33 0.33,0.34 0.88,0.27 -0.58,-1.41 0.05,-1.36 -1.53,-1.26zm-2.03 3.5c0.8,0.31 0.91,0.29 1.73,0.27 -0.39,-0.51 0.19,-0.4 -1.44,-0.78 -0.67,-0.16 -0.87,-0.29 -1.52,-0.41l1.23 0.92zm7.75 6.63c0.13,0.47 -0.21,0.36 0.34,0.33l0.4 -0.4c0.39,-1.04 0.31,-0.61 0.67,-1.13 0.35,-0.52 -0.03,0.27 0.32,-0.6 -0.99,0.3 -1.59,0.54 -1.73,1.8zm-2.32 -4.7c1.24,0.1 1.23,0.8 2.2,0 -0.48,-0.45 -0.54,-0.25 -1.17,-0.51l0.74 -0.88 2.3 -0c-0.48,1.54 -1.12,1.67 -2.35,2.61 -0.73,0.56 -1.62,1.55 -2.73,1.49 -0.07,-1.83 0.8,-1.85 1,-2.71zm1.51 -1.55c-0.82,0.14 -0.77,-0.03 -1.08,0.64 -1.68,0.6 -1.85,3.45 -2.87,4.57 -1,-0.33 -1.25,-0.8 -1.49,-1.97 -0.65,0.25 -0.23,0.13 -0.65,0.5 -1.33,1.19 0.89,-0.47 -0.41,0.42 -1.24,-1.12 -3.21,-0 -4.64,0.28 0.5,-4.88 -0.4,-3.19 -0.68,-5.26 -0.12,-0.93 0.23,-0.96 -0.11,-1.6l-1.01 0.17c-0.36,0.67 -1.03,0.91 -1.11,2.3 -0.08,1.29 0.28,2.08 0.65,2.96l2.15 5.13c1.4,0.68 3.01,1.43 4.8,0.65 2.38,-1.04 2.04,-2.53 3.19,-2.91 0.84,2.33 -1.67,5.13 -2.1,6.24 -0.55,1.41 0.17,2.65 0.15,4.17 -0.02,1.31 -0.74,2.67 -0.27,3.82 1.13,-0.32 0.44,-0.24 0.89,-1.51 0.04,0.05 0.08,0.07 0.1,0.16 0.02,0.12 0.16,0.26 0.19,0.31 0.4,0.65 -0.29,-0.11 0.38,0.6 0.98,-0.69 0.91,-1.42 0.59,-2.48 -0.56,-0.25 -0.39,-2.58 -0.2,-3.31 0.22,-0.86 0.89,-1.62 1.33,-2.24 1.71,-2.4 0.4,-3.83 0.85,-6.39l1.3 -0.42c-1.64,2.23 -0.53,3.26 -1.01,6.12 -0,0.01 -4.37,4.05 -0.55,4.62 0.08,-1.7 0.9,-5.07 1.86,-6.2 0.27,-0.32 0.59,-0.5 1.02,-0.89 0.67,-0.6 0.3,-0.26 0.81,-1.07 0.49,-0.76 1.11,-1.93 1.87,-1.9 -0.04,1.15 -2.07,3.25 -2.69,4 -0.92,1.1 -2.65,3.29 -2.22,5 0.18,0.7 0.08,0.39 1.34,0.36 0.88,-0.02 1.14,-0.12 1.42,-1.45 0.25,-1.17 0.1,-0.96 0.52,-1.95 2.1,0.53 2.72,-4.33 2.89,-5.33 0.17,-1.04 0.57,-1.18 1.01,-1.88 1.12,-1.76 0.68,-2.51 1.31,-4.36 0.46,-1.36 0.32,-1.07 0.21,-2.66 -0.18,-2.75 0.24,-0.3 0.53,-2.04l-1.09 -0.2c-0.77,1.1 0.03,1.66 -1.24,2.05 -0.72,1.02 -0.99,0.02 -1.86,0.96l-3.1 0.26c-0.46,-0.88 -0.6,-1.12 -1.62,-1.04l-0.53 0.96c0.48,0.04 0.81,-0.03 1.26,0.04 0.66,0.11 0.71,0.34 0.97,0.42 0.64,0.19 1.47,-0.09 2.42,0.13 -0.34,1.08 -0.51,0.82 -1.61,0.91 -0.85,0.07 -1.11,0.23 -1.82,0.3zm-8.04 -6.69c0.49,0.74 -0.86,-0.32 1.51,1.55 0.53,0.42 0.83,0.89 1.5,0.59 -0.3,-0.85 -2.08,-2.01 -3,-2.14zm-1.37 -2.84c0.41,-0.43 0.37,0.17 0.48,-1.36 0.05,-0.63 0.09,-0.92 0.1,-1.55 -1.94,0.07 -0.87,1.61 -0.59,2.92zm2.08 4.74c-0.79,-0.38 -1,-0.65 -1.75,-0.28 0.26,0.43 -0.6,0.06 0.48,0.8 0.29,0.2 0.61,0.23 0.87,0.3 0.75,0.2 0.94,0.19 1.5,0.57 0.07,-1.08 -0.23,-0.98 -1.1,-1.39zm1.71 15.62c0.83,-0.5 0.67,-0.65 1.16,-1.47 0.53,-0.89 0.71,-0.74 0.86,-2.04 -1.21,0.5 -2.01,1.53 -2.03,3.51zm-6.46 1.14c0.79,0.56 1,-0.41 3.26,-0.23 0.72,0.06 1.11,0.21 1.72,0.38 1.02,0.28 0.92,0.32 1.38,-0.4 -0.26,-0.29 0.56,-0.39 -1.56,-0.39 -0.93,0 -1.72,0.12 -2.66,0.07 -0.86,-0.05 -2.01,-0.39 -2.14,0.58zm3.16 -14.49l4.12 1.81c0.06,0.02 0.65,0.22 0.69,0.23 0.63,0.04 0.42,-0.08 0.64,-0.25 -1.03,-0.61 -4.54,-2.77 -5.45,-1.78zm14.44 -1.72c0.41,-0.9 0.47,-0.23 0.74,-1.55l-0.79 0.08c-0.93,1.65 -2.31,1.06 -2.55,2.73 1.64,0.79 0.91,-0.52 2.6,-1.26zm-14.13 -4.12c0.41,0.75 0.66,0.65 1.74,0.9 0.64,0.15 1.63,0.36 1.36,-0.83 -0.2,-0.88 -2.4,-1.78 -3.1,-0.07zm9.11 22.85c-0.25,-0.45 -0.24,-0.11 0.02,-1.47 0.2,-1.1 0.88,-3.78 2.16,-3.34 -0.19,0.74 -0.92,1.55 -1.26,2.05 -0.57,0.85 -0.24,1.6 -0.91,2.75zm-10.44 -9.13c1.33,-1 3,-0.46 5.34,0.25 0.04,1.23 -1.16,2.25 -1.9,2.58 0.2,-1.58 0.31,-1.01 0.69,-2.01l-2.06 -0.26c-0.07,0.84 0.06,1.49 -0.29,2.15 -1.26,-0.29 -1.96,-1.04 -1.79,-2.72zm11.86 0.85c-0.28,0.78 -1.44,2.25 -2.22,2.34l0.55 -1.79c0.35,-2 0.88,-1.54 1.78,-2.99l1.55 0.31c-0.2,0.65 -0.26,0.71 -0.73,1.19 -0.34,0.35 -0.62,0.66 -0.92,0.94zm3.14 -1.98c-0.37,-3.46 0.41,-2.91 0.72,-3.78 0.25,-0.71 0.4,-2.76 1.09,-3.1 0.83,1.12 0.14,2.88 -0.37,3.93 -1.19,2.47 -0.23,2.62 -1.44,2.95zm-3.07 -13.25c0.22,-1.61 -0.17,-1.66 -0.4,-2.91 1.26,0.69 0.83,0.88 1.55,2.07 0.56,0.92 1.53,0.95 0.92,2.1 -1.18,-1.07 0.04,-1.21 -2.06,-1.26zm-15.45 6.76c0.77,-0.85 1.57,-0.28 2.81,-0.55 1.04,-0.22 1.5,-0.51 1.71,-1.56 -1.4,0.16 -1.83,0.69 -3.65,0.4l-0.89 -0.18c-0.28,-0.75 -0.22,-0.46 -0.44,-0.77 -0.99,0.1 -2.83,0.38 -3.22,-0.64 1.19,-1.33 3.81,0.8 5.11,-1.15 0.69,-1.04 -0.21,-1.32 0.99,-1.61 0.74,1.16 -0.71,2.21 -1.52,2.76l0.64 0.76c0.04,0.01 2.16,1.05 2.5,-1.29 0.29,-2.01 -0.88,-2.22 -1.77,-2.82 -0.25,-1.24 -0.44,-2.01 0.25,-2.9 1.66,-2.15 2,-1.36 2.79,-1.33 0.29,0.01 0.5,-0.11 1.12,-0.1 -0.62,0.98 -1.55,0.99 -1.25,2.77 1.06,0.57 2.6,1.4 3.86,1.65 0.03,0.73 -0.41,2.58 2.19,2.88l-0.28 1.34c1.4,0.67 1.82,0.81 3,0.03l0.64 0.57c1.01,0.54 3.44,-0.98 3.66,-1.18 0.73,-0.64 0.27,-0.63 1.18,-1.1 0.23,-0.32 0.72,-1.06 1.14,-1.24l0.07 1.86 1.05 -1.14c-0.67,-1.42 -1.13,0.88 -0.51,-1.96l-0.9 0 0.73 -1.37 -1.28 -0.17c-0.24,-1.93 -1.75,-3.57 -3.29,-3.75l-1.26 -0.22c0.29,1.61 0.42,1.13 0.58,1.38 0.9,0.5 2.15,0.88 2.11,2.14 -0.66,-0.05 -1.66,-1.22 -2.13,-1.73 -0.52,-0.37 -0.37,-0.12 -0.8,-0.83 -0.43,-0.72 -0.19,-0.33 -0.4,-0.94 -1.66,-1.75 -4.97,-1.54 -7.05,-0.82 -1.12,0.39 -1,0.8 -1.9,1.12 0.45,-0.83 0.58,-0.38 0.26,-1.36l-0.97 -0.27c-1.15,2.35 -0.17,1.02 -2.43,2.14 -3.16,1.56 -1.54,3.74 -4.9,4 -1.39,0.11 -0.81,0.34 -1.66,0.73 -1.12,0.52 -1.15,-0.18 -1.76,0.35 1.07,1.02 1.97,0.26 3.2,0.15 2.51,-0.21 1.57,-0.42 3.42,-1.07 -0.29,0.99 -0.7,1.32 -1.62,1.69 -0.84,0.34 -1.74,0.33 -2.69,0.39 -0.22,0.58 -0.1,0.09 -0.06,1.03l-1.64 0.19c0.08,0.23 0.45,1.21 0.58,1.41l0.75 0.7c1.42,1.24 1.19,0.73 2.93,0.27 -1.2,3.17 -3.15,-0.99 -4.96,0.32 0.57,0.33 1.08,0.2 1.62,0.65 0.81,0.69 0.31,1.19 1.07,1.62 2.03,1.17 2.16,-1.36 3.27,-1.26z"/>
   <path class="fil4" d="M116.92 72.86c0.64,0.7 2.79,4.83 3.46,5.21 1.44,0.83 0.26,-0.11 1.79,1.21 0.55,-1.14 0.32,-1.59 1.19,-2.46 -0.4,-0.18 -0.47,-0.2 -0.79,-0.37 -3.6,2.12 -4.22,-3.9 -0.86,-3.64 1.61,0.12 1.86,1.37 1.31,2.68 1.27,-0.01 2.45,0.73 3.73,1.01 0.94,0.21 3.09,0.26 3.77,0.71 0.35,-0.44 0.39,-0.82 0.78,-1.39 0.47,-0.67 0.57,-0.6 0.96,-1.45 0.47,-1.04 1.13,-2.51 1.43,-3.44 -0.83,-0.22 -0.94,-0.7 -1.7,-1.33 -2.12,-1.75 -4.93,-1.25 -6.72,-1.41 -1.94,-0.18 -6.49,-3.87 -6.82,-4.57 -0.8,1.03 -2.14,2.49 -3.8,2.21 -0.71,-2.61 1.11,-3.84 -0.35,-7.96 -1.71,-0.52 -5.06,-1.1 -5.66,0.97l5.42 0.03c-0.29,7.09 -2.32,5.3 1.2,11.08 0.57,0.94 1.49,2 1.65,2.91z"/>
   <path class="fil5" d="M106.82 84.19c-0.08,-1.72 0.4,-3.06 1.8,-3.07 0.11,1.68 -0.53,2.97 -1.8,3.07zm7.59 -5.62c-0.55,0.66 -1.2,0.25 -2.01,1.5 -0.76,1.15 -0.41,1.51 -2.07,1.87 0.29,-1.29 0.64,-2.04 0.14,-3.38 -1.59,-0.83 -2.6,-0.15 -3.27,0.88 -0.8,1.22 -0.91,2.4 -2.1,2.7 -0.48,-0.76 -0.58,-1.26 -0.62,-2.29 0.54,-0.37 0.98,-0.47 1.28,-1.29 -1.16,-1.35 -3.24,-1.11 -3.3,1.01 -0.05,1.85 1.17,2.7 1.37,4.58 -0.23,0.43 -1.31,2.08 -1.56,2.39l-0.13 0.77c0.3,0.11 0.4,0.09 0.54,0.14 0.05,0.02 0.13,0.03 0.19,0.05l0.49 0.24c0.39,0.02 0.32,0.14 0.28,-0.29 0.62,-0.93 0.35,-0 2.12,-2.74 1.01,0.43 1.56,0.76 2.66,-0.04 1.28,-0.93 0.2,-1.15 2,-1.51 2.02,-0.4 2.4,-2.68 3.99,-3.02 -0.03,1.2 -0.74,1.26 -1.47,2.07 -0.63,0.69 -0.99,1.42 -1.55,2.04 -0.84,0.92 -2.18,1.99 -2.68,3.28 -0.86,2.23 3.76,-1.01 4.56,-1.36 3.37,-1.51 3.54,0.12 4.63,-2.34l0.38 0.8c0.13,0.37 -0.04,0.09 0.16,0.56 0.77,1.87 1.57,0.08 1.81,-0.22 0.44,-0.55 0.73,-0.59 0.92,-0.89 0,0.3 -1.45,3.1 0.46,2.3 0.22,-0.09 3.67,-4.52 4.8,-4.84l0.21 2.88c2.03,0.34 1.98,-0.61 3.92,-3.29l1.38 -2.63c1.35,0.38 -0.06,0.57 1.62,0.7 0.24,-0.99 1.11,-3.29 1.62,-4.04 3.58,-5.3 -0.76,-5.17 -1.58,-2.35 -0.77,2.66 -4.41,8.89 -5.53,9.54l-0.25 -3.12c-2.16,-0.61 -1.89,0.82 -3.11,1.31 0.36,-0.99 1.12,-1.49 0.57,-2.42 -0.62,-0.95 -1.46,-0.5 -1.86,0.08 -0.47,0.66 -0.47,1.67 -0.77,2.41 -0.18,0.43 -2.38,3.04 -2.82,3.26 -0,-2.5 1.47,-2.74 1.38,-4.7 -2.08,-1.71 -1.86,0.32 -2.58,1.69 -0.39,0.74 -0.7,0.62 -1.22,1.68 -0.97,1.98 0.22,1.57 -4.68,2.46 1.34,-2.1 5.88,-4.99 5.9,-6.68 -1.03,-0.87 -1.63,-0.42 -4.22,0.26z"/>
   <path class="fil5" d="M79.32 82.5c0.18,-0.87 -0.05,-0.9 0.87,-1.08 -0.26,1.04 -0.12,0.79 -0.87,1.08zm5.35 2.03c-0.27,1.42 -0.82,1.48 -1.22,3.04 4.17,-0.16 2.78,-3.84 4.54,-4.85 0.04,2.29 -0.97,3.12 -0.12,5.66 1.98,0.42 2.84,-2.05 3.9,-3.08 2.04,1.36 1.5,0.55 3.12,-0.82l1.09 0.47c0.93,-0.73 3.16,-4.13 3.12,-5.34 -1.66,-0.23 -0.35,-0.1 -2.01,1.78 -1.08,-0.62 0.07,-1.03 -1.32,-0.86 -1.46,0.18 -0.82,3.18 -2.62,4 0.34,-2.13 0.84,-2.4 1.89,-3.74 2.05,-2.6 1.87,-0.76 2.53,-2.47 -1.11,-2.39 -3.59,0.11 -4.75,3.21 -0.57,1.54 -3.05,5.72 -4.17,5.94 -0.33,-0.88 1.35,-6.06 1.77,-7.1 0.84,-2.06 1.39,-4.93 3.99,-4.71 0.57,0.98 -0.18,0.36 0.67,0.94 1.04,-0.38 2,-0.7 3.07,-1.13 1.93,-0.78 7.62,-0.28 10.74,-1.47l-0.05 -1.3c-1.25,-0.98 -3.37,-0.16 -4.88,0.06 -1.31,0.38 -3.87,0.79 -5.33,0.77 -1.75,-0.02 -3.17,1.2 -5.32,0.97 0.14,-0.97 0.26,-1.21 0.04,-2.1 -2.37,-1.2 -2.06,0.98 -3.03,2.2 -0.63,0.8 -0.53,0.2 -1.24,0.9 0.41,0.94 0.21,0.19 0.67,1.02 -0.41,1.88 -2.13,5.28 -3.31,5.87 -0.44,-0.72 -0.71,-1.32 -0.68,-2.31 0.74,-0.64 0.83,-0.39 1.24,-1.27 -1.01,-1.47 -1.96,-0.72 -3.05,-0.35 -0.48,2.95 -0.31,2.5 -1.72,4.42 -0.83,1.13 -1.99,2.66 -3.37,2.82l-0.02 -1.61c1.27,-0.68 1.92,-0.54 2.63,-1.82 0.57,-1.03 1.05,-2.21 0.98,-3.78 -0.65,-0.63 -1.18,-1.2 -2.4,-0.64 -2.29,1.05 -3.7,7.86 -1.98,9 1.57,0.33 2.76,-0.76 3.49,-1.68 0.56,-0.7 0.84,-0.9 1.34,-1.52 0.5,-0.62 0.74,-1.22 1.54,-1.25 0.3,0.86 0.75,1.76 0.21,2.11z"/>
   <path class="fil5" d="M46.47 90.26l0.56 -0.08 4.35 -10.88c0.11,-0.29 0.12,-0.38 0.27,-0.7 0.61,-1.3 -0.28,0.46 0.17,-0.33 0.19,-0.34 0.11,-0.23 0.31,-0.46 1.11,2.63 1.75,5.42 2.61,8.39l2.02 6.08c0.7,2.49 0.4,1.67 1.09,1.91 0.99,-0.88 2.25,-7.94 2.74,-9.41l2.97 -9.27c0.77,-0.29 -0.11,0.26 0.9,0.45 1.01,-2.77 1.7,-0.35 2.92,0.33 1.83,1.01 2.78,-1.2 2.25,-2.83 -1.67,-0.22 -0.78,0.37 -1.58,1.56 -1.77,-0.47 -1.11,-2.26 -3.66,-1.19 0.29,-1.79 2.05,-5.07 3.18,-6.77 0.58,-0.88 0.84,-1.24 0.46,-2.44 -2.39,-0.86 -3.32,2.33 -4.2,4.27 -2.83,6.25 -5.28,20.05 -6.2,22.08 -0.18,-0.23 -0.07,0 -0.24,-0.5 -0.02,-0.05 -0.18,-0.67 -0.2,-0.75l-1.07 -4.09c-0.5,-1.96 -2.86,-10.07 -2.67,-11.57 0.11,-0.84 1.56,-3.62 1.63,-5.34 -1.29,-1.28 -2.13,-0.9 -2.74,0.97 -0.04,-0.05 -0.09,-0.2 -0.11,-0.16l-0.76 -1.67c-3.17,-0.35 -1.7,2.3 -0.93,4.33 0.86,2.27 -0.03,4.04 -0.73,6.06 -0.73,2.11 -0.93,3.86 -1.65,5.97 -0.49,1.44 -1.61,4.44 -1.69,6.04z"/>
   <path class="fil6" d="M133.01 66.54c2.33,3.39 3.02,0.62 5.18,-0.6 0.85,-0.48 2.23,-1.92 2.75,-2.46 1.36,-1.4 4.54,-5.91 5.57,-7.85l3.39 -7.57c0.32,-1.06 1.71,-3.37 2.5,-5.66 0.5,-1.96 1.09,-3.34 1.87,-5.08 1.74,-3.9 4.69,-11.35 4.78,-15.66 -1.34,0.76 -1.22,1.23 -1.74,2.86 -0.33,1.05 -0.72,2.32 -1.1,3.31 -0.44,1.13 -0.75,2.47 -1.18,3.5 -0.32,0.77 -1.21,1.92 -1.65,2.68 -0.72,1.22 -0.45,2.63 -1.08,3.59 -0.21,0.31 -0.72,0.84 -0.97,1.19 -1.86,2.58 -2.01,4.65 -3.32,7.61 -1.29,2.91 -0.83,2.57 -1.22,3.43l-2.4 4.37c-1.26,3.05 -1.72,1.87 -2.71,3.77 -1.13,2.18 -5.99,7.99 -8.67,8.58z"/>
   <path class="fil7" d="M155.21 59.74l-0.02 2.81c-1.57,1.48 -5.52,2.17 -7.92,1.26 -0.61,-0.23 -1.6,-0.68 -2.06,-1.26 -1.14,-0.01 -0.44,-0.19 -1.53,-0.65 -1.2,0.88 -1.78,1.38 -2.46,2.66 0.94,0.17 0.69,0.41 1.85,0.97l5.78 2.6c6.05,1.44 7.16,-1.38 9.24,1.02 -0.16,1.2 -0.9,1.63 -1.66,2.08 0.4,0.54 0.84,1.14 1.23,1.52 0.95,-0.27 0.8,-0.6 1.78,-0.75 0.06,-0.59 -0.11,-0.24 0.13,-0.63l-2.48 0.22c0.34,-0.88 0.44,-0.78 1.12,-1.3 0.3,-0.23 0.69,-0.41 0.97,-0.91 0.81,-1.43 -0.61,-3.9 -1.14,-8.56l-0.09 -1.07c0,-0.06 0.03,-0.15 0.04,-0.2l0.12 -0.4c-0.29,-1.08 -0.89,-2.42 -1.54,-2.88 -0.88,1.21 -0.72,2.17 -1.37,3.47z"/>
   <path class="fil4" d="M146.98 76.67c-0.75,-0.02 -4.15,-2.35 -4.87,-3.16 -1.95,-2.21 -4.01,-2.48 -4.76,-3.58 0.26,-0.7 0.34,-0.91 1.24,-0.96 0.88,-0.05 0.99,0.15 1.56,0.67l2.33 2.17c1.49,1.12 1.14,0.98 2.25,2.25 1.07,1.23 2.11,0.64 2.29,2.19l1.73 -4.04 -4.19 -2.18c0.69,-0.65 1.66,0.18 2.93,0.86 2.03,1.07 1.61,0.2 3.39,0.37 -0.4,-0.29 -0.85,-0.26 -1.45,-0.55 -0.42,-0.2 -0.78,-0.44 -1.2,-0.68 -0.84,-0.47 -1.52,-0.9 -2.37,-1.34 -0.06,0.08 0.54,0.54 -0.77,0.17 -0.86,-0.25 -3.32,-2.93 -5.07,-3.23 -0.41,0.38 -3.7,2.69 -3.84,3.28 0.13,2.11 1.22,0.86 1.18,4.05 -0.01,0.94 0.12,1.88 0.1,2.82 -0.02,0.9 -0.15,1.48 -0.13,2.47 1.27,0.22 1.2,-0.53 2.36,-0.72 1.74,-0.28 1.68,0.57 2.66,0.81 0.26,0.06 2.54,0.23 2.89,0.23 1.68,0.02 0.95,-0.47 1.73,-1.9z"/>
   <path class="fil8" d="M137.53 84.13c0.05,-0.7 0.25,-1.14 0.46,-1.69 0.32,-0.85 0.26,-1.02 1.27,-1.19 -0.11,1.69 -0.11,3.16 -1.73,2.88zm-3.99 -4.94c-1.68,-0.13 -0.26,-0.32 -1.62,-0.7l-1.38 2.63c0.04,0.05 0.07,0.13 0.08,0.17 0.01,0.04 0.06,0.12 0.07,0.17 0.39,1.61 -0,-1.18 0.07,0.36 0,0 -0.13,0.77 -0.13,0.78 -0.3,1.22 -1.29,3.73 -0.7,4.89 1.37,-0.27 0.25,-0.19 2.22,-2.82 1.69,-2.27 0.8,-2.6 2.24,-2.74l-0.16 2.89c1.74,-0.43 0.43,-0.9 1.54,-1.16 1.05,-0.25 0.41,0.38 1.17,1.13 1.04,1.01 2.3,-0.16 2.99,-0.85 1.05,-1.04 1.83,-0.55 2.99,-1.65 0.74,-0.7 1.7,-1.57 1.46,-3.03 -1.33,0.43 -0.96,1.83 -3.13,2.62 -0.07,-1.1 0.16,-2.57 -0.23,-3.51 -2.28,-0.98 -2.17,2.12 -4.79,2.2l-0.17 -2.13c-1.34,-0.07 -1.24,0.29 -2.18,1.12l-0.34 -0.36z"/>
   <path class="fil5" d="M117.53 61.53c0.47,0.54 0.81,1.18 0.92,2.09 0.33,0.7 4.89,4.39 6.82,4.57 1.79,0.16 4.6,-0.33 6.72,1.41 0.76,0.63 0.87,1.11 1.7,1.33 0.46,-0.23 1.25,-0.6 1.83,-1 -0.34,-1 -0.4,-0.62 -1.22,-1.18 -1.04,-0.71 -2.38,-2.3 -4.62,-2.82 -1.05,-0.24 -5.52,-2.1 -6.62,-2.9 -1.06,-0.42 -1.79,-0.41 -2.8,-1.07 -0.9,-0.59 -1.39,-0.98 -2.52,-1.24 -0.26,0.3 -0.22,-0.47 -0.2,0.8z"/>
   <path class="fil6" d="M140.75 20.74c-0.48,0.41 -0.11,0.06 -0.47,0.54l-3.27 4.4c-0.77,0.94 -0.86,1.74 -1.64,2.69 -0.57,0.7 -1.46,2.62 -1.59,1.99 -0.4,0.6 -0.2,1.49 -0.25,2.46 -0.05,0.96 -0.36,1.58 -0.1,2.21 0.63,-1.53 0.28,-1.98 1.39,-3.23 0.4,-0.45 0.75,-0.79 1.08,-1.3 0.3,-0.48 0.52,-1.05 0.83,-1.6 0.63,-1.13 0.75,-2.48 1.6,-3.26 0.88,-0.82 2.3,-1.09 3.38,-0.76 0.86,2.62 -1.33,4.04 -1.55,7.79l0.33 -0.45c1.39,-2.02 1.13,-2.51 1.82,-3.51l2.51 -3.73c1.28,-1.99 4.34,-5.79 4.83,-7.85 -2.71,0.88 -2.81,5.09 -5.97,4.97 -1.1,-0.04 -0.56,-0.32 -1.22,-0.6 -0.8,-0.33 -0.42,0.03 -1.4,0.04 -0.37,-0.48 -0.1,-0.05 -0.3,-0.78z"/>
   <path class="fil5" d="M68.28 83.96c-0.64,-1.41 0.32,-2.94 1.11,-3.37 0.9,1.47 -0.04,2.72 -1.11,3.37zm-5.51 1.43c0.95,0.05 0.92,-0.14 1.58,-0.66 1.11,-0.87 0.58,-0.49 1.73,-0.31 1.37,0.21 2.89,0.55 3.86,-0.39 0.64,-0.62 0.37,-0.78 1.26,-1.14 1.24,-0.49 3.37,-1.38 3.77,-3.86 -2.47,-0.2 -0.61,2.1 -3.46,2.49l0.26 -3.02c-2.8,-2.11 -3.96,1.76 -4.37,2.29 -0.97,-0.53 0.08,-0.73 -1.55,-0.85 -1.23,1.36 -1.01,3.49 -2.5,4.31 0.71,-4.45 4.2,-5.68 4.57,-6.43 -1.08,-2.65 -3.25,0.18 -3.98,1.37 -0.89,1.44 -1.98,4.1 -1.16,6.21z"/>
   <path class="fil4" d="M112.83 76.03l0.46 -0.82 3 2.21c1.92,-0.51 1.29,-0.43 2.98,0.19 -0.69,-1.91 -1.66,-2.15 -2.42,-4.53 -0.53,-0.33 -1.47,-1.74 -1.89,-2.51l-1.68 -2.91 -5.79 0.04 -0.47 3.29 6.44 0.05c0.13,1.24 -0.46,3.63 -0.62,4.99z"/>
   <path class="fil5" d="M145.86 68.68c0.86,0.44 1.54,0.87 2.37,1.34 0.42,0.24 0.78,0.48 1.2,0.68 0.6,0.29 1.06,0.26 1.45,0.55 1.28,0.3 1.42,0.47 1.84,1.7 1.76,-1.01 0.57,-1.59 3.69,-1.72 0.76,-0.45 1.5,-0.88 1.66,-2.08 -2.08,-2.41 -3.19,0.42 -9.24,-1.02l-5.78 -2.6c-1.16,-0.57 -0.91,-0.8 -1.85,-0.97l-0.17 0.14c0.22,1.19 1.41,1.41 2.44,2.12 0.9,0.62 1.45,1.24 2.36,1.85z"/>
   <path class="fil5" d="M79.62 30.26c0,1.16 0.83,1.45 1.52,2.32 1.32,0.09 3.61,-0.57 4.96,-0.78 1.67,-0.27 3.4,-0.18 5,-0.77 -0.17,-0.56 -1.31,-2.02 -1.93,-2.59 -1.24,-1.16 -0.95,-1.63 -2.92,-0.76 -2.26,0.99 -4.24,1.52 -6.61,2.59zm-38.33 2.07l-15.04 0.1c-0.14,1.06 1.65,3.74 1.97,5.05 -0.6,-0.41 -0.45,-0.43 -1.28,-0.71 -0.53,1.3 -8.34,11.82 -8.48,13.01 1.02,0.15 13.91,0.19 14.87,-0.58 0.48,-0.38 0.75,-1.06 1.24,-1.65 3.03,-3.66 0.47,-4.45 9.09,-4.48 3.17,-0.01 7.19,0.11 10.28,-0.27l2.28 -3.59 -15.59 0.24c0.11,-1.66 1.44,-2.35 2.09,-3.34 2.91,-1.03 19.13,0.04 20.4,-1.21 1.26,-0.36 1.01,-1.69 2.28,-1.99 0.77,1.4 2.05,3.19 2.47,4.48 -1.14,-0.48 -0.87,-0.94 -2.11,-1.1 -0.73,2.04 -6.34,8.98 -6.26,10.24 0.56,1.4 0.99,2.77 2.56,2.84 1.54,0.07 3.33,-0.03 4.9,-0.04l29.14 -0.18c0.53,-0.6 1.62,-2.32 1.73,-3.15 -4.11,-0.08 -25.68,0.48 -27.65,-0.23 1.28,-0.49 4.41,-0.27 5.39,-1.08 1.86,-1.52 -0.74,-2.14 4.48,-2.15 3.68,-0.01 9.42,0.35 12.86,-0.13 0.73,-0.75 1.76,-2.07 1.83,-3.27l-15.22 -0.08c0.1,-0.54 2.38,-3.66 2.57,-3.77 0.59,-0.33 15.36,-0.45 18.15,-0.51 1.34,-0.03 1.8,0.22 2.5,-0.63 0.54,-0.66 1.04,-1.42 1.17,-2.24 -2.76,-0.37 -9.56,-0.21 -12.44,0.04 -2.76,0.25 -8.83,2.02 -10.89,1.75l-1.14 -1.68c-0.52,-0.36 -14.87,0 -16.71,0.01l-21.41 0.3z"/>
   <path class="fil5" d="M149.9 83.64c1.21,-0.03 1.18,-1.08 2.1,-2.38 0.73,-1.02 0.84,-1.81 1.69,-2.9 0.45,-0.58 3.36,-5.3 2.63,-6.15 -1.87,-2.2 -3.56,3.45 -4.01,4.56 -0.54,1.32 -0.81,1.83 -1.27,3.38 -0.35,1.19 -1.18,2.18 -1.14,3.5z"/>
   <path class="fil5" d="M145.15 83.67c1.43,-0.27 1.35,-1.25 2.1,-2.54 0.6,-1.03 1.21,-1.85 1.8,-2.76 0.73,-1.13 0.83,-2.31 1.41,-3.22 0.53,-0.84 1.48,-1.66 1.29,-3.03 -1.79,-0.49 -2.06,-0.1 -2.82,1.28 -1.11,2.02 -3.66,8.83 -3.78,10.28z"/>
   <path class="fil6" d="M152 22.33c-0.18,1.06 -0.84,2.34 -1.41,2.95 -0.75,4.06 -2.56,2.74 -4.04,7.76 -0.51,1.73 0.12,2.11 -0.08,3.56 0.62,-0.65 0.37,-0.76 1.12,-2.11 0.39,-0.7 0.6,-1.36 0.93,-1.98 0.39,-0.71 0.81,-1.07 1.14,-1.74 0.39,-0.8 0.46,-1.18 0.93,-1.99 0.48,-0.84 1.62,-3.35 1.87,-4.21 0.54,-1.84 1.21,-2.89 1.59,-4.49 -0.85,0.74 -0.68,1.01 -1.26,2.13l-0.8 0.11z"/>
   <path class="fil5" d="M159.57 71.38c0.79,-0.56 1.51,-1.57 1.71,-3.08 0.21,-1.6 -0.66,-3.04 -0.33,-3.94l-0.2 -0.3c-0.26,-0.41 -0.38,-0.81 -0.66,-1.25 -0.36,-0.57 -0.4,-0.53 -0.73,-1.19 -0.45,-0.89 -0.99,-1.63 -1.24,-2.46l-0.12 0.4c-0.01,0.05 -0.03,0.14 -0.04,0.2l0.09 1.07c0.53,4.66 1.95,7.13 1.14,8.56 -0.28,0.5 -0.67,0.68 -0.97,0.91 -0.69,0.52 -0.78,0.41 -1.12,1.3l2.48 -0.22z"/>
   <path class="fil9" d="M146.98 76.67l0.04 -0.42c-0.18,-1.55 -1.22,-0.96 -2.29,-2.19 -1.11,-1.27 -0.76,-1.13 -2.25,-2.25l-2.33 -2.17c-0.58,-0.52 -0.68,-0.72 -1.56,-0.67 -0.9,0.05 -0.98,0.26 -1.24,0.96 0.75,1.11 2.81,1.37 4.76,3.58 0.72,0.81 4.12,3.15 4.87,3.16z"/>
   <path class="fil10" d="M150.59 25.29c0.57,-0.61 1.23,-1.89 1.41,-2.95 -0.04,-4.99 0.24,-1.87 0.47,-4.21 -0.8,0.13 -1.06,0.54 -1.36,1.34 -0.55,1.44 -0.45,1 -1.12,2.03 -0.48,0.73 -1.82,3.57 -1.91,4.46 1.82,0.32 1.27,-0.22 2.51,-0.66z"/>
   <path class="fil9" d="M122.57 76.46c0.32,0.17 0.38,0.19 0.79,0.37 1.06,0.1 1.46,0.01 2.29,0.56 0.92,0.61 0.77,0.89 2.19,0.99l2.12 -0.06c0.64,-0.64 0.41,-0.25 0.57,-1.1 -0.68,-0.45 -2.83,-0.5 -3.77,-0.71 -1.27,-0.28 -2.46,-1.02 -3.73,-1.01l-0.45 0.96z"/>
   <path class="fil2" d="M156.85 5.97c-0.65,-0.43 -1.4,-1.28 -2.61,-0.75 -2.63,1.15 -1.53,4.19 0.8,3.01 0.64,-0.33 1.63,-1.3 1.81,-2.26z"/>
   <path class="fil2" d="M152.12 27.21c2.71,-2.28 2.88,-2.19 3.09,-4.58 1.01,0 1.45,0.17 2.19,-0.51 -1.2,0.23 -0.49,0.25 -0.74,-0.41l-1.2 0.03c-0.25,0.44 0.35,0.51 -0.38,0.31 -0.49,-1.19 -0.03,-0.52 -0.83,-0.75 -0.64,1.87 -1.66,3.74 -2.13,5.91z"/>
   <path class="fil2" d="M153.18 14.54c1.65,0.81 2.86,0.07 2.95,-1.96 -0.45,-0.4 -1.44,-1.27 -2.32,-0.74 -0.76,0.45 -0.87,1.82 -0.63,2.7z"/>
   <path class="fil2" d="M157.32 10.69c0.24,0.43 0.4,0.62 0.73,1.07 0.47,0.66 0.24,0.67 1.16,0.66 0.36,-0.54 0.63,-1.5 0.61,-2.23 -0.01,-0.28 -0.15,-0.88 -0.28,-1.14 -0.41,-0.81 -0.14,-0.47 -0.77,-0.74 -0.48,0.38 -0.54,0.7 -0.82,1.18 -0.39,0.69 -0.38,0.3 -0.63,1.19z"/>
   <path class="fil2" d="M130.51 20.6l0.03 2.87c0.79,-0.74 2.37,-2.73 2.67,-3.63 -0.75,-0.71 -2.7,-1.38 -2.7,0.76z"/>
   <path class="fil2" d="M147.04 8.42c-0.38,1.26 -0.64,0.54 -1.13,1.76 0.41,0.44 0.97,0.7 1.54,0.96 0.81,-0.4 0.69,-0.54 1.24,-1.07 0.57,-0.55 1.06,-0.5 0.84,-1.51l-2.48 -0.14z"/>
   <path class="fil9" d="M112.83 76.03c-0.16,1.98 0.21,1.05 0.46,1.98 1.12,0.23 2.33,0.04 3,-0.59l-3 -2.21 -0.46 0.82z"/>
   <path class="fil4" d="M149.57 78.9c1.72,0.01 1.39,-0.5 2.06,-2.16 0.62,-1.51 0.95,-1.56 1.2,-3.36 -0.8,0.49 -1.26,1.61 -1.74,2.49 -0.62,1.13 -1.02,1.82 -1.53,3.03z"/>
   <path class="fil5" d="M120.57 73.71c-0.63,1.52 -0.22,3.43 1.29,2.24 0.34,-0.27 0.86,-1.13 0.74,-1.66 -0.2,-0.86 -1.22,-0.67 -2.03,-0.58z"/>
   <path class="fil11" d="M140.03 65.63c1.75,0.29 4.21,2.98 5.07,3.23 1.3,0.37 0.7,-0.1 0.77,-0.17 -0.91,-0.62 -1.46,-1.23 -2.36,-1.85 -1.03,-0.71 -2.22,-0.93 -2.44,-2.12l-1.03 0.92z"/>
   <path class="fil12" d="M135.11 77.26c0.5,0.31 0.92,0.55 1.57,0.41 0.15,-1.01 0.13,-2.34 -0.2,-3.03 -0.59,0.32 -1.24,1.92 -1.37,2.61z"/>
   <path class="fil13" d="M129.95 78.31l-2.12 0.06 0.99 1.3c0.66,-0.46 0.73,-0.64 1.13,-1.36z"/>
   <path class="fil14" d="M156.66 21.72c0.25,0.67 -0.46,0.65 0.74,0.41 0.4,-1.13 0.84,-0.27 0.66,-2.26 -0.73,0.93 -0.49,1.4 -1.4,1.85z"/>
   <path class="fil15" d="M79.32 82.5c0.75,-0.29 0.61,-0.04 0.87,-1.08 -0.92,0.18 -0.69,0.21 -0.87,1.08z"/>
   <path class="fil16" d="M47.02 90.57l0.01 -0.39 -0.56 0.08 -0.02 0.3c0.11,0.06 -0.3,0.55 0.56,0.01z"/>
  </g>
 </g>
</svg>
