<?xml version="1.0" encoding="UTF-8"?>
<!DOCTYPE svg PUBLIC "-//W3C//DTD SVG 1.1//EN" "http://www.w3.org/Graphics/SVG/1.1/DTD/svg11.dtd">
<!-- Creator: CorelDRAW -->
<svg xmlns="http://www.w3.org/2000/svg" xml:space="preserve" width="66.1069mm" height="27.3098mm" version="1.1" style="shape-rendering:geometricPrecision; text-rendering:geometricPrecision; image-rendering:optimizeQuality; fill-rule:evenodd; clip-rule:evenodd"
viewBox="0 0 165.33 68.3"
 xmlns:xlink="http://www.w3.org/1999/xlink"
 xmlns:xodm="http://www.corel.com/coreldraw/odm/2003">
 <defs>
  <style type="text/css">
   <![CDATA[
    .fil0 {fill:black}
    .fil9 {fill:#584937}
    .fil13 {fill:#624D19}
    .fil15 {fill:#695117}
    .fil20 {fill:#8B8A8C}
    .fil18 {fill:#8E7137}
    .fil10 {fill:#906F1A}
    .fil16 {fill:#936D44}
    .fil14 {fill:#9A7446}
    .fil17 {fill:#9D791C}
    .fil19 {fill:#AC935E}
    .fil8 {fill:#CD9064}
    .fil11 {fill:#E9E2A3}
    .fil7 {fill:#ECAD65}
    .fil4 {fill:#EEAE66}
    .fil12 {fill:#EFC153}
    .fil6 {fill:#F1AF67}
    .fil3 {fill:#F2C354}
    .fil5 {fill:#FCFCFC}
    .fil2 {fill:#FDC121}
    .fil1 {fill:#FDD985}
   ]]>
  </style>
 </defs>
 <g id="Camada_x0020_1">
  <metadata id="CorelCorpID_0Corel-Layer"/>
  <g id="_2087079548864">
   <path class="fil0" d="M154.72 2.96c-2.36,-0.17 -3.6,-0.41 -5.47,1.43l-4.44 4.16c-0.61,0.48 -0.35,0.16 -0.94,0.49 -1.14,0.64 -2.14,2.24 -3.44,2.24 -0.92,0 -0.65,-0.28 -1.75,-0.36 -1.28,-0.1 -1.09,0.12 -1.95,-0.37 -2.27,-1.29 -4.96,-1.81 -6.83,0.25 -0.5,0.56 0.03,0.41 -0.95,0.48 -0.02,0.73 0.06,0.43 -0.22,0.93l-2.65 -1.44c-0.43,-0.32 -1.59,-0.82 -1.71,-1.12 -0.01,-0.03 -0,-0.13 -0.01,-0.16 -0.03,-0.9 0.38,0.44 0.03,-0.24 -1.82,1.04 -2.39,1.68 -3.51,3.3 -0.22,0.31 -0.71,1.33 -1.04,1.33 -1.96,0 -1.91,-1.83 -4.77,-1.68 -1.18,0.06 -1.28,-0.11 -2.16,-0.17 -0.71,0.41 -1.03,1.09 -1.95,1.3 -0.14,-1.4 -2.4,-2.22 -3.72,-1.33l-0.86 0.74c-0.7,0.57 -0.88,1.05 -1.69,1.51 -0.96,-3.52 -8.87,-3.15 -12.34,-3.15 0.66,-2.12 9.68,-4.14 11.85,-4.5 0.65,-0.11 1.86,-0.14 2.5,-0.27 1.13,-0.22 1.28,-0.41 2.11,-0.79 -1.33,-4.89 -10.48,-1.16 -13.35,0.06 -1.89,0.81 -1.25,0.39 -2.75,-0.18 -1.28,-0.49 -5.41,-0.4 -7.19,-0.18 -3.36,0.43 -7.01,0.02 -9.78,0.34 -1.69,0.2 -2.4,-0.11 -3.36,0.06 -1.13,0.2 -2.43,-0.06 -3.54,0.16 -1.25,0.24 -0.38,0.35 -1.56,0.09 -1.66,-0.37 -2.19,-0.05 -3.72,0.02 -2.69,0.12 -7.17,-0.36 -9.39,0.69 -1.87,0.88 -1.4,-0.5 -5.12,-0.5 -2.83,0 -4.59,1.34 -5.9,3.1 -0.42,0.57 -0.74,1.32 -1,1.92 -1.03,2.37 -1.98,6.22 -1.98,9.41l-3.46 0c0,-6.31 4.21,-14.07 -1.3,-14.07 -1.71,0 -4.11,-0.31 -5.65,0.36 -1.21,0.52 -1.72,2.77 -2.21,3.85 -0.47,1.02 -0.81,1.83 -1.27,2.8l-1.27 2.8c-0.9,-0.21 -0.6,-0.29 -1.15,-0.87 -0.92,-0.97 -1.99,-2.15 -3.18,-2.83 -0.14,0.11 -0.1,0.08 -0.35,0.26 -0.21,0.15 -0.29,0.2 -0.48,0.33 -0.31,0.2 -0.56,0.36 -0.87,0.55 -1.62,1.03 -6.61,5.14 -8.2,6.5 -1.21,1.02 -2,1.63 -2,3.66 2.15,0.49 0.49,0.56 3.9,0.56 0,2.35 -2.24,6.39 -3.06,8.49l-6.64 16.72c-0.47,1.45 -1,2.82 -1.63,4.16 -0.7,1.51 -1.69,3.75 -1.24,5.42 1.83,0.37 8.45,0.42 9.75,-0.36 1.65,-1 4.5,-10.53 5.38,-12.99l2.84 -8.68c0.23,-0.74 0.23,-1.07 0.87,-1.48 0.36,1.32 1.46,1.94 2.6,2.59 -0.15,0.55 -0.8,1.71 -1.08,2.22 -0.84,1.47 -1.46,3.29 -2.16,4.82l-2.23 4.57c-0.71,1.73 -2.97,6.39 -2.97,7.83 0,1.49 1.84,1.65 3.31,1.81 1.08,0.12 1.53,-0.11 2.54,-0.14 1.68,-0.05 1.04,-0.05 2.24,-0.52 0.93,-0.36 2.23,0.58 4.09,0.39 0.83,-0.09 2.04,0.03 2.73,-0.09 1.12,-0.2 0.63,-0.55 1.55,-1.08 1.61,0.32 2.42,1.67 4.33,1.67 1.31,0 1.64,-0.3 3.03,-0.37 3.82,-0.18 6.09,-0.37 10.39,-0.37 2.48,0 4.31,-0.2 6.93,-0.18 5.82,0.03 6.46,-1.12 9.32,-0.57 1.15,0.22 1.99,0.27 3.33,0.09 2.36,-0.31 7.31,0.03 10.24,-0.31 4.4,-0.51 9.35,0.39 13.92,-0.14 1.42,-0.16 1.06,-0.23 1.95,-0.74 1.68,1.25 6.12,0.94 7.73,0.31 3.86,-1.51 1.7,-0.87 4.06,-0.21 2.26,0.63 6.78,0.23 9.12,-0.18 0.99,-0.17 1.18,-0.42 2.04,-0.48l3.74 4.21c0.72,0.83 1.19,1.25 2.05,1.95 0.5,0.42 1.87,1.25 2.54,1.53 0.55,0.23 1.04,0.3 1.6,0.48 1.54,0.49 2.82,1.26 4.28,1.89 2.56,1.1 4.4,1.6 7.87,1.6 2.32,0 3.25,-3.64 3.25,-5.37 2.94,0 11.82,1.99 13.68,-0.52 0.66,-0.89 0.82,-1.89 1.69,-2.82 1.06,-1.13 3,-1.88 3.81,-3.22 2.23,-3.7 -2.29,-10.24 -2.29,-12.32 0,-2.04 1,-3.56 2.02,-5.3 0.86,-1.46 1.31,-2.95 1.83,-4.55 1.32,-4.09 3.3,-5.54 3.3,-10.69 0,-4.82 -2.6,-11.39 -2.6,-15.36 0,-1.14 0.16,-1.51 0.23,-2.41 0.09,-1.33 -0.2,-1.39 -0.66,-2.21 -1.09,-1.96 0.2,-3.52 -3.46,-3.52 -0.85,0 -1.97,0.64 -2.45,1.06 -0.61,0.53 -1.2,1.31 -1.67,1.91z"/>
   <g>
    <path class="fil1" d="M144.82 9.13c-0.07,0.62 -1.02,1.01 -2.02,1.71 -0.79,0.55 -1.36,0.99 -1.77,1.97 1.05,-0.22 1.02,-0.7 1.73,-0.57 0.76,0.15 1.13,0.52 1.42,0.94 -0.12,1.06 -2.72,3.49 -3.61,4.26 -2.39,2.04 -2.3,2.49 -5.67,2.6l-0.23 0.53 -0.39 0.52c-0,-0 -0.5,-0.03 0.01,-0.52l0.15 -0.89c-0.37,-0.28 0.07,-0.07 -0.56,-0.3l-0.74 -0.13c-0.25,0.53 -0.59,1.05 -0.93,1.41 -0.66,0.69 -0.73,0.46 -1.03,1.52l-1.95 5.02c0.15,0.21 -0.23,0.21 0.41,0.14 2.12,0.04 4.06,0.48 3.7,2.6 -0.3,1.78 -1.89,2.99 -2.23,3.97 -0.07,1.08 0.39,2.45 0.42,3.66 0.08,3.36 -1.25,6.73 -4.39,8.54l0.21 0.51c0.33,0.58 3.58,2.19 4.66,2.69 1.86,0.85 3.4,1.8 5.23,2.52 1.41,-0.1 2.21,-0.96 3.51,-2.28 4.44,-4.53 6.86,-7.57 9.37,-13.07 0.59,-1.29 0.99,-2.71 1.62,-3.98 1.3,-2.64 2.82,-4.08 3.9,-7.04 -2.33,-1.46 -3.25,0.82 -4.75,1.56l-0.88 0.55 -0.09 -0.65c-0.14,-4.05 3.56,-7.29 0.09,-7.44 -1.63,1.75 -2.13,3.93 -4.54,4.81 -0.43,0.57 -0.06,0.34 -0.87,0.65l0.74 -2.49c0.23,-1.11 1.5,-3.79 1.17,-4.54l-2.03 -0.72c-0.65,0.45 -0.96,1.03 -1.5,1.93l-2.64 4.03c-0.59,0.98 -0.29,1.17 -1.19,2.01 0.24,-1.61 0.41,-1.18 0.55,-3.25l0.37 -1.14c0.7,-0.68 1.73,-3.05 2.45,-4.07 3.45,-4.91 3.18,-3.67 6.24,-7.05 0.81,-0.89 2.54,-2.48 3.06,-3.52 -0.71,-0.47 -0.91,-0.92 -1.49,-1.42 -0.99,1.24 -3.93,3.51 -5.5,4.43z"/>
    <path class="fil2" d="M14.82 23.03c-0.23,1.26 -1.15,2.98 -1.65,4.18 -0.6,1.43 -1.01,3.06 -1.6,4.54l-7.04 17.64c-1.13,2.8 -2.64,6.05 -3.51,8.89l8.42 -0.28c0.69,-1.24 1.45,-4.16 2.03,-5.65 3.02,-7.82 6.97,-21.66 10.01,-28.41 1.14,-2.53 3.72,-4.89 2.33,-6.49 -3.32,-3.81 -1.97,-4.37 -5.82,-1.28 -1.07,0.86 -1.83,1.43 -2.81,2.22 -1.1,0.89 -5.18,3.62 -5.53,4.83l2.44 -0.15 2.73 -0.03z"/>
    <path class="fil3" d="M116.63 45.96c0.32,0.14 0.49,0.21 0.81,0.42 0.05,0.03 0.34,0.24 0.36,0.26 0.3,0.29 0.06,0.02 0.26,0.38 1.04,0.27 1.25,0.75 1.71,1.63 0.38,0.72 0.77,1.21 1.04,2 0.55,0.35 0.51,0.3 0.89,0.96l1.76 3.68c0.76,1.64 1.75,3.29 2.58,4.83 3.73,6.9 6.81,6.13 7.46,7.56 0.78,0.19 1.88,0.33 2.96,0.37l1.42 0c1.82,-0.1 1.6,-0.71 2.25,-1.84 -0.77,-1.14 0.77,-3 -0.47,-4.04 -0.82,-0.69 -2.83,-1.03 -4.08,-1.45 -1.18,-0.16 -3.17,-0.3 -4.11,-0.97 1.36,-0.02 3.56,0.11 4.45,0.78l3.71 0.82c0.47,-2.22 0.23,-5.33 -0.9,-7.05 -1.71,-2.61 -8.07,-4.77 -10.96,-6.55 -1.29,-0.79 -4.4,-3.01 -4.97,-3.94 -1.79,-0.22 -1.85,-0.83 -3.99,-0.24 -2.01,0.55 -1.71,0.58 -2.16,2.39z"/>
    <path class="fil2" d="M82.73 49.4c-0.08,0.7 -0.23,1.39 -0.36,2.1 -0.07,0.39 -0.09,0.77 -0.17,1.15 -0.21,0.93 -0.12,0.51 -0.45,0.78l-0.03 1.45 -0.28 1.55c0.97,0 2.46,-0.13 3.17,0.24 1.35,-0.17 2.77,-0.04 4.15,-0.15 1.64,-0.12 1.98,-0.14 2.27,-1.39 0.03,-0.92 0.07,-0.88 0.49,-1.64l0.37 1.04c0.98,2.29 6.17,2.31 8.76,0.9 2.76,-1.5 3.42,-3.51 3.87,-7.14 -2.81,-0.11 -4.66,-0.46 -5.34,1.09 -0.66,1.5 -0.08,3.83 -2.27,3.65 -0.38,-2.71 1.08,-6.21 1.12,-9.17l-4.18 -2.08 -0.74 2.27c-0.16,1.34 -0.41,2.46 -0.72,3.79 -0.17,0.71 -0.43,1.09 -0.51,1.74 -0.06,0.46 0.08,1.57 -0.34,1.76l0.06 1.02c-0.59,0.26 -1.52,0.28 -2.35,0.3 -2.1,0.04 -1.98,0.36 -0.69,-4.18l2.04 0.06c0.47,-0.26 0.31,-0.17 1.05,-0.22l0.7 -3.51 -0.81 -0.02 -2.18 -0.04c-0.05,-1.01 0.13,-0.94 0.24,-1.7 0.13,-0.95 -0.26,-0.92 -0.32,-1.7l3.06 -0.09c-0.25,-0.82 -1.76,-1.94 -2.88,-2.01 -0.51,-0.03 -1.97,0.45 -4.53,0.54l-2.17 9.61z"/>
    <path class="fil3" d="M147.64 54.22c0.47,0.22 0.19,-0.31 0.43,0.35 -0.5,0.26 -0.32,0.23 -0.66,-0.14 -1.8,-1.11 -2.49,-2.09 -4.03,-3.03 -1.5,0.51 -2.51,1.81 -3.75,2.4 0.06,1.18 0.78,2.49 0.88,3.95 0.1,1.43 -0.16,2.57 0.03,4.21l7.62 0.87c1.79,0.2 4.4,0.6 5.48,-0.42 0.55,-0.52 2.15,-2.63 2.18,-3.48 -2.5,-0.12 -3.53,-0.44 -5.32,-1.37 -1.07,-0.56 -3.39,-1.65 -3.84,-2.45 2.09,0.46 3.77,1.81 5.77,2.65 3.28,1.37 4.32,0.22 6.78,-0.6 0.54,-2.2 1.96,-2.44 0.41,-6.83 -0.36,-1.02 -0.91,-1.97 -1.32,-2.94 -0.45,-1.05 -0.51,-2.23 -1.23,-3.1l-1.25 3.34c-0.33,1.7 -0.24,2.13 -2.11,2.64 -4.04,1.1 -5.42,-0.97 -7.51,-1.92 -1.06,0.66 -1.54,1.64 -2.31,2.57 1.57,1.74 3.14,2.53 3.76,3.32z"/>
    <path class="fil4" d="M159.8 22.15c-0.03,1.09 0.31,1.39 -0.87,1.56l-2.91 6.18c-3,5.6 -3.71,9.09 -7.63,15.1 -0.49,0.75 -1.49,2.24 -1.75,2.92 1.72,1.93 4.89,2.66 8.3,1.51 0.51,-1.31 0.69,-3.35 1.23,-4.81 0.51,-1.38 2.68,-4.58 4.2,-8.61l1.25 -3.37c0.05,-0.11 0.18,-0.45 0.23,-0.54l0.44 -0.6c0.08,-1.83 3.02,-4.26 2.32,-8.51 -0.65,-3.97 -1.26,-5.44 -2.22,-8.97 -0.65,-0.38 0.01,-0.15 -0.94,-0.31 0.49,2.36 -1.22,6.01 -1.66,8.45z"/>
    <path class="fil2" d="M75.94 40.47c1.37,0.18 1.59,-0.03 2.67,0.61 -0,2.66 -0.88,4.62 -1.3,6.84 -0.21,1.13 -0.5,2.11 -0.76,3.23 -0.29,1.26 -0.45,2.02 -2.04,2.15 0.33,-3.38 2.25,-8.54 1.98,-11.71l-1.07 -0.32c-0.55,-0.2 -0.4,0.08 -0.71,-0.63l1.23 -0.17zm5.54 12.25c0.1,-0.57 0.3,-1.3 0.36,-1.85 0.09,-0.81 -0.2,-1.12 0.52,-1.44 -0.19,-2.31 2.17,-8.6 1.42,-9.79 -0.31,-0.49 -1.17,-0.9 -1.66,-1.37 -0.49,-0.46 -0,-0.4 -1.01,-0.58 -0.38,-0.07 -1.21,-0.09 -1.63,-0.11 -8.36,-0.44 -6.51,-1.15 -8.9,9.21l-1.95 9.96c2.58,0.03 6.02,0.14 8.46,-0.32 3.02,-0.57 3.45,-1.42 4.39,-3.71z"/>
    <path class="fil2" d="M50.43 45.69c0.04,-1.01 0.26,-1.71 0.33,-2.59 0.12,-1.61 -0.38,-0.79 -1.32,-1.62 0.61,-0.09 1.26,-0.13 1.88,-0.09 1.87,0.12 1.67,0.69 0.96,2.92 -0.33,1.04 -0.48,1.29 -1.85,1.38zm3.87 1.89c-0.69,-0.33 -0.4,-0.03 -0.6,-0.6l1.13 -0.22c2.73,-0.84 3.26,-5.73 2.6,-7.22 -0.58,-1.31 -2.59,-1.29 -4.39,-1.25 -1.88,0.04 -3.86,0.01 -5.73,0.11 -1.08,1.88 -5.06,16.97 -5.27,19.12l5.21 -0.2 1.67 -6.84c0.29,-0.81 0.45,-1.71 1.52,-1.62 0.91,1.03 -1.38,6.79 -1.54,8.44l4.55 -0.18c0.47,-1.64 1.06,-3.23 1.54,-4.99 0.5,-1.84 1.4,-3.85 -0.69,-4.56z"/>
    <path class="fil2" d="M36.91 41.96c-0.61,-0.17 -0.29,0.16 -0.55,-0.4l0.69 -0.13 2.36 0.26c0.37,0.96 -0.23,2.33 -0.42,3.31l-0.12 0.68 5.13 -0.19c0.63,-1.16 0.89,-3.74 0.36,-5.12 -0.86,-2.24 -10.12,-3.72 -12.38,4 -0.46,1.58 -0.78,3.25 -1.23,4.85 -0.46,1.62 -1.09,3.26 -1.24,5 -0.4,4.61 4.79,4.42 7.72,2.43l0.58 1.03c1.15,-0.01 2.11,0.07 3.09,-0.34l2.63 -9.86 -5.93 0.1 -0.87 2.55c0.96,0.85 1.12,-0.07 0.21,2.72 -0.37,1.13 -0.32,2.15 -2.01,2.02 0.08,-4.8 2.9,-8.12 2.88,-12.47l-0.91 -0.43z"/>
    <path class="fil2" d="M24.92 44.85c-0.25,2.65 -0.34,6.66 -3.42,7.11 0.47,-1.32 0.84,-2.71 1.45,-4.04 0.28,-0.6 0.62,-1.18 0.91,-1.81 0.26,-0.57 0.5,-1.36 0.77,-1.86 0.35,-0.5 0.08,-0.26 0.48,-0.43 0.07,0.15 0.23,-0.22 0.12,0.49 -0.14,0.9 -0.13,0.3 -0.3,0.53zm-2.32 -5.71c-0.62,0.68 -7.98,17.1 -8.31,18.54l5.29 -0.06c0.47,-1.05 1,-2.3 1.39,-3.23l1.61 0.01 -0.27 3.21c1.81,0.01 3.71,0.04 5.27,-0.21 0.64,-2.63 0.76,-6.3 1.15,-9.18 0.39,-2.86 1.33,-6.51 1.13,-9.33l-7.26 0.24z"/>
    <path class="fil2" d="M64.33 44.09c-0.12,1.54 -0.25,2.83 -0.5,4.33 -0.3,1.84 -0.58,2.29 -2.35,2.78 0.17,-1.17 0.82,-2.73 1.21,-3.93 0.36,-1.11 1.16,-2.97 1.33,-3.88 0.31,-0.72 -0.12,-0.2 0.5,-0.52 0.02,0.03 0.41,-0.2 0.17,0.73 -0.11,0.41 -0.36,0.49 -0.37,0.5zm-3.31 9.6c0.34,-0.33 -0.43,-0.1 0.52,-0.37 0.67,-0.19 1.18,0.12 1.51,0.32l-0.26 0.59 -0.24 2.49c1.79,0.13 3.78,0.18 5.25,-0.24 0.36,-2.38 1.24,-10.14 1,-12.31l0.28 -5.73 -2.79 0.08c-4.99,-0.57 -5.04,0.38 -5.66,2.19 -0.65,1.92 -1.29,3.65 -2.02,5.48 -1.18,2.97 -3.57,7.92 -4.1,10.85l5.29 -0.23c0.69,-0.94 0.48,-2.47 1.21,-3.13z"/>
    <path class="fil5" d="M107.76 14.2c0.65,0.82 -0.7,3.03 -1.57,2.72 -0.71,-0.26 0.91,-2.38 1.57,-2.72zm28.87 1.37c-0.42,0.49 -0.01,0.43 -0.83,0.21 0.08,-0.9 -0.04,-0.26 0.35,-0.56 0.21,-0.88 0.92,-1.74 1.79,-2.04 0.47,1.21 -0.22,1.94 -1.32,2.39zm-6.48 -4.26c-0.21,0.4 -0.17,0.73 -0.85,0.86l0.1 0.1c-0.27,0.73 -0.17,0.35 -0.75,0.73 -0.11,0.49 -2.97,3.15 -3.48,3.44 -0.52,0.64 0.07,0.23 -0.71,0.46 0.06,-0.78 -0.05,-0.19 0.28,-0.42 0.74,-1.28 2.17,-2.73 2.22,-4.4 -1.76,0.06 -2.33,0.82 -3.21,1.52 -0.36,0.6 -0.2,0.54 -0.96,0.71 0.18,-0.63 0.14,-0.85 0.7,-1.24l1.04 -2.46 -0.87 -0.2c-0.51,0.76 -0.46,0.77 -1.53,1.19l-0.06 0.12c-0.35,1.14 -0.89,2.05 -1.68,2.77 -0.85,0.77 -1.2,1.41 -2.3,2.06 -0.37,0.45 0.3,0.31 -0.66,0.29 0.33,-0.92 -0.03,-0.15 0.41,-0.5l0.78 -1.44 -0.18 -0.6 -0.97 0c-0.68,0.4 -0.91,0.72 -1.67,1.05 -0.21,0.65 0.17,0.25 -0.39,0.43 -0.13,-0.25 -0.32,0.27 -0.06,-0.28 0.17,-0.36 -0.02,-0.05 0.38,-0.21 0.21,-0.69 0.24,-0.45 0.55,-1 0.45,-0.82 0.27,-1.02 -0.02,-1.27 -0.98,-0.64 -1.77,0.38 -2.58,0.82 -0.01,-0.4 0.04,-0.73 -0.43,-1.09 -1.09,0.2 -0.65,0.21 -1.93,1.76 -1.58,1.92 -3.29,4.23 -6.26,5.12 -0.51,-2.55 1.46,-1.66 2.95,-2.96 0.96,-0.84 2.08,-2.99 1.01,-4.29 -0.99,-0.23 -1.35,0.3 -2.15,0.61 -0.15,0.69 -1.06,1.3 -1.88,2.76 -0.48,0.85 -1.23,2.62 -0.95,3.66 0.75,2.83 4.48,-1.32 5.99,-2.04l-0.63 1.55 -0.1 0.6 0.51 -0.09 3.45 -3.66c0.59,-0.65 0.28,-0.8 1.32,-1.1l-1.46 3.8c0.96,-0.4 2.49,-1.67 3.58,-2.28l0.18 0.95 -0.15 0.72 0.66 -0.11c0.79,-0.46 1.53,-0.97 2.28,-1.37l-3.81 8.06c-0.42,0.86 -0.96,1.75 -1.29,2.77 0.17,0.3 -0.3,0.3 0.46,0.19 2.03,-1.7 5.67,-11.88 9.51,-13.09 -0.43,1.33 -1.43,2.54 -1.61,4.13 2.6,-0.59 4.49,-3.24 6.19,-4.43l0.41 -0.63c0.19,0.27 0.31,-0.52 0.13,0.32 -0.09,0.42 0.1,0.03 -0.35,0.29l-2.24 4.62c1.12,-0.1 3.01,-2.18 4.71,-3.54l0.7 1.25c0.85,-0.04 1.32,-0.28 1.98,-0.47 0.07,1.69 -1.05,1.34 0.03,3.42 2.54,0.02 3.74,-1.61 4.89,-2.67 0.86,-0.8 3.21,-2.67 3.28,-3.9 -0.78,0.03 -0.65,0.15 -1.06,0.62l-2.38 2.41c-0.76,0.83 -2.45,2.55 -4.01,2.62 -0.13,-2.2 1.4,-1.2 2.97,-2.76 1.16,-1.15 1.13,-2.06 1.52,-3.83 -3.85,-1.13 -3.09,2.66 -6.43,3.58 0.4,-1.14 1.75,-2.08 2.37,-3.08 -2.31,-0.16 -2.68,0.75 -4.81,2.41 -0.25,0.2 -0.53,0.48 -0.65,0.57 -1.24,0.85 0.61,-1.25 1.3,-2.24 0.38,-0.54 1.35,-2.28 1.52,-2.94 -2.05,0.09 -1.6,0.89 -2.83,1.24z"/>
    <path class="fil2" d="M104.4 54.15l-0.12 1.55 1.15 -0.05 8.19 -0.18 0.49 -3.6 -3.61 0.07c-0.04,-1.24 0.08,-3.24 0.75,-4.27 2.36,-0.1 3.21,0.3 3.56,-1.67l0.02 -1.78c-0.93,-0.3 -1.9,0.33 -3.05,-0.37 0.01,-1.03 0.03,-0.64 0.32,-0.89 -0.03,-1.62 -0.13,-1.16 -0.65,-2.49l4.59 -0.12 0.79 -3.86 -9.23 0.33c-0.48,3.53 -3.01,14.95 -3.2,17.34z"/>
    <path class="fil2" d="M37.72 24.32l1.61 0.01c0.16,0.79 0.12,1.63 -0.18,2.3 -0.35,0.78 -0.51,0.77 -1.41,1.05 -0.18,-1 0.37,-1.98 0,-2.85l-0.93 -0.38c0.96,-0.75 0.86,-0.16 0.92,-0.13zm-6.96 12.65l3.91 -0.19c0.51,-1.02 0.87,-2.29 1.2,-3.53 0.16,-0.6 0.35,-1.22 0.5,-1.8 0.25,-0.96 0.14,-1.26 1.3,-1.31 0.78,1.19 -1.11,5.04 -1.31,6.66l3.89 -0.16c0.39,-1.41 0.78,-2.46 1.14,-4.05 0.55,-2.42 0.8,-2.06 -0.6,-3.75 1.02,-1.09 1.5,-0.41 2.35,-2.33 1.59,-3.59 0.66,-4.81 -3.72,-4.87 -0.87,-0.01 -1.74,0.03 -2.61,0.05 -2.47,0.06 -1.64,-0.42 -3.07,4.19 -0.83,2.68 -2.89,8.8 -2.96,11.09z"/>
    <path class="fil6" d="M155.18 19.53c-0.33,0.87 0.15,0.26 -0.57,0.57 -0.16,1.01 -1.28,2.66 -1.82,3.51 -0.78,1.21 -1.32,2 -1.9,3.41 1.49,-0.74 2.41,-3.02 4.75,-1.56 -1.08,2.95 -2.6,4.4 -3.9,7.04 -0.63,1.28 -1.04,2.7 -1.62,3.98 -2.5,5.49 -4.92,8.54 -9.37,13.07 -1.3,1.32 -2.1,2.19 -3.51,2.28l1.58 1.29c2.51,-0.68 6.68,-5.37 8.25,-7.42 1.89,-2.48 6.59,-11.61 7.85,-15.1 0.71,-1.97 1.78,-3.49 2.51,-5.24 0.73,-1.75 1.5,-3.63 2.15,-5.37 0.8,-2.16 1.24,-3.77 1.41,-6.28 -1.09,0.41 -0.72,0.83 -1.43,1.47 -0.74,0.67 -1.29,0.59 -1.82,-0.13 0.57,-0.33 0.83,0.44 1.82,-0.6 0.59,-0.63 0.92,-1.01 0.93,-1.98 -1.41,0.11 -1.57,-0.09 -2.3,0.81 -0.4,0.49 -0.9,1.34 -1.23,1.9 -0.58,1 -1.79,3.21 -1.77,4.37z"/>
    <path class="fil5" d="M68.34 11.16c-0.01,0.16 0.01,0.85 -0.07,1.02 -0.33,0.71 0.13,0.33 -0.66,0.22l0.02 -0.87c-0.53,-1.07 -0.28,-3.89 -1.27,-4.71 -0.91,-0.24 -1.88,-0.12 -2.94,-0.08 -0.73,2.87 -2.78,11.06 -2.69,13.75 0.95,0.41 1.89,0.84 3.06,0.77l1.66 -5.56 0.83 5.53 3.68 -0.8c0.52,-3.51 2.59,-11.47 2.7,-13.79l-3.14 0.07c-0.78,1.04 -0.96,3.15 -1.16,4.45z"/>
    <path class="fil5" d="M46.87 20.92l0.26 -0.36 0.47 0.47c2.68,1.09 3.04,-0.55 3.45,-2.33 0.26,-1.15 1.29,-3.84 1.25,-4.7l-4.69 0.03c-1.13,2.16 0.72,2.06 -0.69,4.65 -0.33,0.6 -0.41,0.75 -1.21,0.73 -0.36,-1.85 1.22,-4.93 1.69,-6.97 0.2,-0.86 0.05,-1.94 0.24,-2.64 0.65,-0.63 0.72,-0.5 1.72,-0.3 0.04,0.82 0.22,0.63 -0.32,1.03l-0.42 2.02c4.02,0.53 4.61,0.02 4.88,-1.76 0.34,-2.21 -0.83,-3.68 -3.92,-3.61 -3.73,0.08 -5.11,1.63 -6.13,4.12 -0.79,1.93 -2.02,5.19 -2.29,7.3 -0.43,3.34 3.03,4.03 5.71,2.33z"/>
    <path class="fil5" d="M127.16 33.16c-0.07,-1.7 0.99,-3.29 2.58,-3.56 -0.08,1.73 -0.75,3.45 -2.58,3.56zm-16.56 0.52c0.43,0 0.29,-0.08 0.31,0.33l-0.62 1.57c2.19,-0.51 1.87,-2.33 5.95,-4.24l0.02 2.51c1.47,-0.08 1.32,-0.44 2.15,-0.95 0.16,0.67 0.15,0.51 0.56,0.77 0.19,0.36 0.09,0.23 0.36,0.53 2.89,-1.07 2.77,-1.68 4.34,-3.78l0.17 0.13c-0.04,1.7 -0.77,2.75 -0.69,5 1.12,-0.36 2.21,-1.53 2.66,-2.49 0.77,0.34 1.16,1.01 2.3,0.55 0.75,-0.3 1.32,-1 1.74,-1.49 0.57,-0.67 2.08,-2.58 1.73,-3.54 -0.33,-0.92 -1.32,-0.75 -2.6,-0.45 -0.15,0.75 -1.89,2.11 -2.52,2.95 -0.76,1.01 -1.35,2.31 -2.54,2.78 0.81,-2.38 1.53,-4.09 2.59,-6.25 0.54,-1.1 2.87,-4.92 2.68,-5.84 -1.9,-0.31 -2.36,1.61 -2.96,3.02 -0.5,1.18 -1.21,2.84 -2.14,3.63 -1.57,-0.45 -1.81,-0.52 -3.65,1.41 -0.96,1.01 -1.94,1.85 -3.03,2.54 0.47,-1.11 1.39,-2.47 1.46,-3.81 -1.45,0.2 -1.65,0.62 -2.47,1.34 -0.57,0.5 -1.7,1.25 -2.29,1.52l-0.13 -0.1c0.29,-0.75 0.62,-0.93 1.17,-1.56 0.66,-0.75 0.58,-0.77 0.86,-1.74l-0.82 -0.32c-0.21,0.27 -0.08,0.11 -0.33,0.34 -1.23,1.15 -3.22,4.44 -4.3,4.85 0.27,-1.07 0.62,-1.04 0.55,-2.52 -1.71,0.03 -1.5,0.72 -2.12,1.72 -0.47,0.75 -1.17,1.48 -1.78,1.94 -0.25,0.13 -0.32,0.04 -0.49,0.2l0.15 -0.46c0.45,-1.8 2.31,-3.59 4.01,-4.52 1.12,-0.61 1.55,-0.31 1.82,-1.31 -3.93,-0.91 -5.38,3.69 -7.64,5.19l-0.48 0.01 0.02 -0.4c0.46,-1.01 0.92,-2.01 1.24,-3.16 -1.78,0 -1.89,1.11 -2.64,2.36 -0.59,0.98 -1.51,2.1 -2.24,2.82l-0.58 0.01 0.03 -0.53c0.76,-1.6 2.08,-3.55 2.46,-5.18 -2.54,0.35 -3.82,4.29 -3.26,6.64 1.61,0.06 2.83,-1.23 3.44,-2.28 0.74,0.29 0.59,0.4 1.12,0.8l1.24 -0.51 0.49 1.28c1.89,0.08 2.09,-0.88 3.26,-1.58 0.26,0.25 0.55,0.59 0.87,0.77 0.63,-0.28 0.23,0.06 0.59,-0.52zm12 -4.19c0.91,-0.04 0.35,-0.02 0.55,0.17l-0.12 0.6c-0.44,0.77 -0.79,1.2 -1.45,1.84 -0.59,0.57 -0.89,1.18 -2.04,1.25 0.68,-2.08 1.58,-2.76 3.06,-3.86z"/>
    <path class="fil2" d="M55.48 34.21c-0.22,-1.02 0.21,-1.92 0.37,-2.94l-3.76 -0.03c-0.6,2.29 -1.81,4.69 1.52,5.47 2.64,0.62 5.88,-0.16 6.86,-2.22 3,-6.31 -1.46,-6.53 -2.72,-8.13 -0.82,-1.04 -0.4,-2.65 1.14,-2.63l0.03 2.15 3.61 -0.18c3.5,-5.38 -6.27,-6.17 -8.43,-2.18 -0.72,1.33 -1.5,4.71 0.88,6.14 0.92,0.55 1.9,0.99 2.12,2.07 0.25,1.25 0.02,2.77 -1.62,2.49z"/>
    <path class="fil5" d="M31.94 11.77c0.15,1.06 -0.18,2.74 -0.39,3.78 -0.31,1.47 -0.45,1.81 -2.12,2.19l2.52 -5.97zm3.97 -3.36l-0.13 -0.63 -5.34 0.03c-1.18,0.58 -2.63,5.16 -3.52,7.1 -0.96,2.07 -2.57,5.3 -3.04,7.44l4.39 -0.9 0.62 -1.71 1.52 -0.04 -0.17 1.63c1.12,0.4 1.78,1.16 3.53,0.88 1.55,-1.26 1.12,-4.6 1.3,-6.63 0.22,-2.41 0.94,-4.7 0.84,-7.18z"/>
    <path class="fil2" d="M67.57 33.22c-0.22,0.51 0.34,0.48 -1.1,0.36 -0.16,-0.48 -0.4,-0.55 0.2,-1.22 0.28,-2.43 0.91,-4.47 1.6,-6.73 0.52,-1.71 -0.02,-1.09 -0.21,-2.22 2.46,-0.25 2.1,0.29 2.02,1.06 -0.1,1.07 -0.29,2.08 -0.42,3.14l3.75 -0.18c0.92,-1.16 2.98,-7.45 -4.14,-6.34 -3.98,0.62 -5.03,3.37 -5.78,6.93 -0.99,4.68 -2.69,8.09 2.77,7.94 4.17,-0.12 6.61,-2.4 6.6,-6.04 -6.74,-0.37 -3.05,1.82 -5.3,3.31z"/>
    <path class="fil2" d="M30.59 30.71l-3.88 0.11c-1.73,2.28 -0.31,3.49 -2.54,3.6 0.05,-1.74 0.65,-3.54 1.16,-5.14 0.27,-0.83 0.51,-1.64 0.82,-2.44 0.68,-1.78 0.44,-0.93 -0.06,-2.45l2.35 0 -0.81 4.01 3.84 -0.17c0.66,-1.05 1.36,-3.78 0.88,-4.96 -0.65,-1.58 -3.69,-1.4 -5.51,-1.04 -3.92,0.78 -4.35,3.8 -5.56,7.28 -1,2.88 -3.52,7.84 2.51,7.49 1.8,-0.1 3.86,-0.79 4.74,-1.86 0.93,-1.12 1.82,-2.74 2.06,-4.43z"/>
    <path class="fil2" d="M41.58 36.59l7.96 -0.32 0.73 -2.81 -3 -0.03 0.3 -2.2c0.34,-1.11 0.78,-0.85 3.08,-1.04 0.16,-0.89 0.59,-1.81 0.4,-2.68l-2.33 -0.03c0.19,-1.48 0.29,-1.29 0.03,-2.76 1.18,-0.04 2.73,0.1 3.64,-0.45 0.29,-0.51 0.83,-2.2 0.33,-2.45 -0.48,-0.24 -3.28,-0.13 -4.01,-0.11 -3.69,0.11 -3.55,0.43 -4.13,3.47 -0.74,3.97 -2.6,7.64 -3.01,11.41z"/>
    <path class="fil5" d="M81.72 19.05l-0.08 0.9c1.11,-0.09 1.93,-0.36 2.66,0.26 0.87,0.76 2.38,0.84 3.94,0.45 1.26,-0.31 1.44,-1.54 1.54,-2.88l-3.23 0.04c0.08,-1.48 0.46,-1.92 0.7,-3.17 1.47,-0.03 2.37,0.27 2.91,-0.72 -0.72,-0.98 -1.92,-0.56 -2.22,-1.69 -0.36,-1.41 0.77,-1.29 -0.21,-3.12 1.61,-0.08 3.23,-0.06 3.66,-1.08l0.31 -1.68c-0.05,-0.04 -0.12,-0.09 -0.15,-0.11l-0.28 -0.19c-0.04,-0.02 -0.17,-0.09 -0.23,-0.12 -2.02,0.19 -4.75,-0.3 -6.4,0.39 -1.18,1.49 -2.71,10.3 -2.93,12.73z"/>
    <path class="fil3" d="M128.14 65.11l0.63 0.09c0.02,-0.69 -0.72,-1.08 -1.17,-1.61 -2.71,-3.18 -5.55,-9.14 -7.23,-12.75 -0.48,-0.6 -0.66,-1.28 -1.11,-1.94 -0.49,-0.72 -0.88,-1.18 -1.2,-1.87l-1.53 -0.37c-0.08,1.15 -0.12,1.21 -0.42,2.26l-3.31 0.44c-0.23,0.48 -0.27,1 -0.15,1.64 4.68,0.32 3.11,1.76 3.12,3.82 0,0.59 2.7,3.42 3.28,4.06 2.88,3.2 5.07,4.35 9.1,6.23z"/>
    <path class="fil2" d="M82.02 33.64c-0.4,-1.05 -0.83,-0.8 -1.66,-1.37l-0.76 0.25c-0.25,0.03 -0.72,0.02 -1.03,0.03l0.03 -1.1 0.36 -0.7 -0.01 -1.36 3.01 -0.34 0.32 -2.64 -2.53 0.02c-0.17,-1.4 0.19,-1.4 -0.23,-2.82 0.89,-0.02 1.85,0.09 2.57,-0.25 -0.27,-0.8 -1.64,-0.49 -1.17,-2.12 1.02,-0.5 1.08,-0.26 2.4,-0.37 -1.79,-0.43 -4.87,-0.23 -6.9,-0.11 -0.58,2.15 -2.97,12.95 -3.12,14.82 1.33,0.03 6.54,0.33 7.55,-0.32 0.61,-0.39 0.28,-0.42 0.7,-1.09 0.28,-0.44 0.13,-0.27 0.45,-0.53z"/>
    <path class="fil5" d="M55 7.23l-2.93 13.7c0.56,0.19 0.91,0.14 1.28,0.32 0.68,0.34 0.02,0.25 0.81,0.74 1.65,-0.57 2.38,-1.01 4.45,-1.44 0.7,-0.15 2.09,-0.36 1.47,-1.33 -0.38,-0.6 -1.04,-0.31 -2.98,-0.3 -0.1,-3.35 0.43,-2.98 3.39,-3.48l0.56 -2.47 -2.72 -0.17c0.06,-1.38 0.26,-1.21 -0.08,-2.72l3.46 -0.08c0.59,-0.84 0.66,-1.69 0.81,-2.84l-7.52 0.08z"/>
    <path class="fil5" d="M82.99 34.1c1.57,0.18 2.02,1.09 3.1,1.72 0.9,0.52 2.34,1.2 2.6,2.05 -1.3,0.79 -3.36,0.75 -4.57,-0.01 -1.26,-0.79 -1.5,-2.23 -1.13,-3.76zm0.43 -1.15c0.21,-1.51 1.62,-3.96 2.52,-5.2 0.51,-0.7 1.26,-1.46 1.88,-2.1 1.88,-1.93 4.9,-4.11 8.35,-4.09 6.84,0.03 2.28,9.96 -2.91,13.72 -2.33,1.68 -2.62,2.22 -3.82,1.58 -1.38,-0.74 -5.13,-2.98 -6.01,-3.91zm-3.78 -1.82l-0.61 -0.03 0.19 0.41c0.76,0.28 0.59,0.23 1.15,0.75 0.82,0.57 1.26,0.32 1.66,1.37 0.21,1.95 -0.25,4.1 1.65,4.97 2.24,1.02 5.12,-0.62 7.04,0.28 0.65,0.3 1.44,0.92 2.13,1.32 2.32,1.33 5.5,3.73 7.6,2.69 -0.59,-1.08 -3.17,-1.72 -4.69,-2.41 -1.41,-0.64 -3.27,-1.89 -4.48,-2.66 0.58,-0.78 1.05,-1.08 1.98,-1.63 1.2,-0.71 1.21,-1 2.05,-1.76 1.24,-1.13 2.38,-2.53 3.43,-4.1 0.96,-1.43 2.12,-2.89 2.31,-4.82 0.26,-2.62 0.43,-4.24 -1.85,-5.33 -4.22,-2.01 -9.1,1.83 -10.94,3.42 -3.86,3.35 -5.35,8.23 -5.96,8.76 -1.01,-0.41 -1.41,-0.91 -2.66,-1.26z"/>
    <path class="fil5" d="M73.46 8.09l-0.15 1.41c1.37,-0.01 2.45,-0.2 2.9,0.27 -0.78,1.1 -1.11,3.23 -1.29,4.52 -0.2,1.43 -0.95,3.11 -0.96,4.93l0.01 2.04 1.43 0.05 0.62 -1.05 1.72 -0.11c1.19,-2.58 1.62,-10.11 2.37,-10.54l2.1 -0.38c0.57,-1.1 0.67,-1.37 0.76,-2.73l-9.05 0.07c-0.26,0.76 -0.39,0.9 -0.46,1.52z"/>
    <path class="fil1" d="M154.7 8.93c0.12,-0.43 0.19,-0.66 0.43,-1.03 0.43,-0.65 0.21,-0.42 0.86,-0.66 -0.31,0.72 -0.76,1.32 -1.3,1.69zm5.08 -6.05c-1.12,1.19 -2.61,1.69 -3.6,0.14l-0.77 -0.05c-0.14,0.78 -0,0.29 -0.61,0.94 -0.23,0.25 -0.48,0.61 -0.8,0.98 -0.52,0.62 -1.12,1.13 -1.64,1.75 -0.57,0.69 -0.89,1.24 -1.45,1.9 -0.64,0.76 -1.26,0.91 -1.67,1.86 0.82,0.54 1.14,0.03 2,-0.09 0.99,-0.14 1.43,0.16 2.51,-0.06l0.68 -0.74c-0.02,2.23 -2.17,3.69 -2.3,5.2l2.06 0.44c0.44,0.55 0.28,0.37 0.47,0.93 0.27,0.79 -0.07,0.87 0.6,0.86 1.82,-2.83 1.5,-3.96 3.83,-5.13 1.17,-0.59 1.33,-1.69 1.4,-3.07 0.08,-1.57 -0.09,-2.64 -1.97,-2.57l0.02 0.29c0.94,0.05 0.02,-0.19 0.56,0.14 0.41,0.25 0.04,-0.03 0.29,0.47 -0.03,0.93 -0.02,1.51 -0.76,1.94 -0.9,0.52 -1.64,0.32 -2.43,0l0.1 -1.9c-0.13,-0.29 -0.36,0.46 -0.03,-0.48 0.1,-0.27 0.12,-0.26 0.33,-0.43 1.27,-1.07 2.45,0.01 3.48,-1.67 0.84,-1.37 1.98,-3.48 -0.61,-3.84 0.67,0.47 1.2,1.56 0.29,2.18z"/>
    <path class="fil6" d="M147.79 18.05c-0.03,-0.04 -0.62,-0.04 -0.22,-0.69 0.31,-0.5 0.1,-0.16 0.74,-0.32l-0.52 1.01zm1.46 -7.64c-2.13,1.04 -8.38,9.6 -8.9,11 -0.43,-0.28 -0.37,0.49 -0.3,-0.64l-0.37 1.14c-0.14,2.07 -0.31,1.65 -0.55,3.25 0.9,-0.84 0.6,-1.04 1.19,-2.01l2.64 -4.03c0.53,-0.9 0.84,-1.48 1.5,-1.93l2.03 0.72c0.32,0.75 -0.94,3.42 -1.17,4.54 0.84,-0.52 3.42,-4.73 4.35,-5.91 1.42,-1.8 3.29,-3.85 4.09,-6.27 -1.07,0.21 -1.52,-0.08 -2.51,0.06 -0.86,0.12 -1.18,0.63 -2,0.09z"/>
    <path class="fil2" d="M97.46 40.32l0.67 -0.53 2.72 0.02c0.69,3.03 0,2.94 -0.58,5.37l4.66 -0.17c0.91,-0.98 2.34,-6.44 -0.85,-7.93 -1.43,-0.67 -3.84,-0.7 -5.32,-0.29 -1.33,0.37 -3.24,1.49 -3.76,2.25 0.41,0.73 1.52,1.03 2.47,1.27z"/>
    <path class="fil5" d="M98.76 11.91c-1.48,-0.13 -2.66,-0.21 -4.28,-0.14 -0.77,0.03 -1.44,0.09 -2.23,0.06l-1.73 -0.35c-0.72,-0.11 -0.24,0.16 -0.54,-0.32 1.16,-2.69 8.63,-4.69 12.16,-5.23 1.41,-0.22 3.89,-0.44 5.01,-0.82 -0.25,-2.1 -3.67,-1.3 -5.58,-0.77 -1.76,0.49 -4.01,1.2 -5.59,1.89 -1.47,0.64 -9.72,4.56 -7.33,6.53 0.54,0.43 2.3,0.24 3.6,0.26 1.24,0.03 2.43,0.13 3.67,0.16 2.74,0.07 5.02,-0.17 6.48,1.31 -0.23,1.49 -1.12,2.08 -2.4,2.73 -0.95,0.48 -2.74,1.19 -3.48,1.95 2.77,0.34 5.06,-1.27 6.41,-2.96 1.98,-2.46 -1.66,-4.25 -4.18,-4.29z"/>
    <path class="fil6" d="M123.67 43.48c0.36,1.02 2.67,2.77 3.67,3.14l-0.21 -0.51c3.14,-1.81 4.48,-5.18 4.39,-8.54 -0.03,-1.22 -0.49,-2.59 -0.42,-3.66 -0.96,0.32 -0.57,0.32 -1.3,0.78 -2.01,1.27 -2.23,-0.55 -2.5,4 -0.16,2.65 -1.09,4.13 -3.64,4.8z"/>
    <path class="fil6" d="M145.45 24.28c2.42,-0.88 2.91,-3.06 4.54,-4.81 3.47,0.15 -0.23,3.39 -0.09,7.44 0.66,-0.41 0.42,-0.33 1.03,-1.55 0.91,-1.83 2.61,-4.17 2.71,-5.03l0 -0.28 -2.02 1.65c-0.04,-1.17 0.56,-1.19 1.19,-1.75 0.74,-0.66 0.93,-1.04 1.82,-1.43l0.64 -1.56c-0.67,0.01 -0.33,-0.07 -0.6,-0.86 -0.19,-0.56 -0.03,-0.38 -0.47,-0.93l-2.06 -0.44c-0.53,0.27 -1.41,1.65 -2.01,2.19 -0.98,0.88 -0.93,1.12 -1.61,2.33 -1.03,1.82 -2.19,2.93 -3.07,5.03z"/>
    <path class="fil5" d="M81.38 21.68c0.44,1.47 2.98,1.4 4.79,1.1 0.89,-0.15 1.64,-0.36 2.44,-0.7 1.06,-0.45 1.53,-0.61 1.97,-1.38 -1.49,0.13 -2.96,0.51 -4.38,0.6 -1.63,0.11 -3.56,-0.31 -4.82,0.38z"/>
    <path class="fil4" d="M131.18 22.17c0.3,-1.06 0.37,-0.83 1.03,-1.52 0.34,-0.36 0.69,-0.88 0.93,-1.41l0.74 0.13c-0.36,-2.52 -0.13,-2.32 -1.77,-2.55 -0.8,3.03 -2.28,4.3 -0.93,5.35z"/>
    <path class="fil4" d="M161.55 12.98c0.3,0.16 0.7,0.4 0.97,0.56 0.74,-1.21 -0.37,-5.35 -1.49,-5.66 -0.07,3.87 -1.41,3.71 0.52,5.09z"/>
    <path class="fil4" d="M156.59 2.2l0.03 0.83c1.61,0.88 1.71,0.38 3.11,-0.28 0.07,-1.36 0.21,-1.92 -1.85,-1.92 -0.36,0.32 -1.11,1.13 -1.29,1.37z"/>
    <path class="fil7" d="M156.85 7.09c-0.08,0.87 -0.45,2.06 0.99,1.82 1.06,-0.18 1.06,-1.17 1.11,-1.28 0.25,-0.57 -0.2,-0.3 0.45,-0.55 -0.25,-0.5 0.11,-0.22 -0.29,-0.47 -0.53,-0.33 0.39,-0.09 -0.56,-0.14 -1.3,-0.03 -1.09,-0.37 -1.7,0.61z"/>
    <path class="fil4" d="M151.16 5.06c0.28,0.29 0.46,0.44 0.74,0.67 1.11,-0.44 1.91,-1.02 2.18,-2.33 -2.05,-0.02 -2.8,-0.29 -2.92,1.66z"/>
    <path class="fil4" d="M161.28 7.1c0.95,-0.54 1.51,-2.25 0.29,-3.3 -0.68,0.24 -1.04,0.79 -1.22,1.53 -0.2,0.85 0.44,1.29 0.93,1.77z"/>
    <path class="fil8" d="M153.65 20.33l0.68 -0.38 0.28 0.15c0.72,-0.31 0.25,0.3 0.57,-0.57 -0.69,-0.27 -0.33,0.19 -0.54,-0.44l0.01 -0.58c-0.88,0.4 -1.07,0.77 -1.82,1.43 -0.63,0.56 -1.23,0.57 -1.19,1.75l2.02 -1.65 -0 0.28z"/>
    <path class="fil9" d="M155.41 2.97l0.77 0.05c0.99,1.56 2.48,1.06 3.6,-0.14l-0.04 -0.13c-1.4,0.66 -1.49,1.16 -3.11,0.28l-0.03 -0.83c-0.51,0.16 -0.29,0.03 -0.66,0.26l-0.52 0.51z"/>
    <path class="fil10" d="M66.3 38.53l2.79 -0.08 -0.28 5.73c0.24,-0.35 0.63,-5.33 0.47,-6 -1,-0.02 -2.24,-0.03 -2.98,0.36z"/>
    <path class="fil11" d="M136.42 11.94c-0.16,-0.95 -0.65,-1.37 -1.87,-1.3l-0.24 0.7c0.51,0.4 1.34,0.52 2.12,0.6z"/>
    <path class="fil12" d="M92.49 37.56c0.29,0.69 0.72,1.11 1.79,1l0.13 -1.24 -1.92 0.24z"/>
    <path class="fil13" d="M105.42 55.65l-1.15 0.05 0.12 -1.55c-0.41,0.25 -0.4,0.2 -0.44,0.78 -0.03,0.37 0.04,0.64 0.1,0.98 0.88,0.01 0.78,0.16 1.37,-0.26z"/>
    <path class="fil14" d="M158.93 23.71c1.18,-0.17 0.84,-0.47 0.87,-1.56 -0.13,0.13 -0.17,0.09 -0.29,0.35 -0.1,0.22 -0.06,0.22 -0.14,0.44 -0.12,0.33 -0.23,0.5 -0.44,0.77z"/>
    <path class="fil15" d="M67.57 33.22l-0.97 0.13 0.07 -0.99c-0.6,0.67 -0.36,0.74 -0.2,1.22 1.44,0.12 0.88,0.15 1.1,-0.36z"/>
    <path class="fil16" d="M147.79 18.05l0.52 -1.01c-0.64,0.16 -0.43,-0.17 -0.74,0.32 -0.4,0.65 0.19,0.65 0.22,0.69z"/>
    <polygon class="fil17" points="97.46,40.32 98.35,40.9 98.13,39.79 "/>
    <path class="fil18" d="M147.4 54.42c0.35,0.37 0.17,0.41 0.66,0.14 -0.24,-0.65 0.04,-0.13 -0.43,-0.35 0.05,0.31 0.13,0.24 -0.24,0.2z"/>
    <path class="fil19" d="M134.66 20.58l-0.38 -0c-0.51,0.5 -0.01,0.52 -0.01,0.52l0.39 -0.52z"/>
    <polygon class="fil20" points="46.87,20.92 47.61,21.03 47.14,20.56 "/>
   </g>
  </g>
 </g>
</svg>
