<?xml version="1.0" encoding="UTF-8"?>
<!DOCTYPE svg PUBLIC "-//W3C//DTD SVG 1.1//EN" "http://www.w3.org/Graphics/SVG/1.1/DTD/svg11.dtd">
<!-- Creator: CorelDRAW -->
<svg xmlns="http://www.w3.org/2000/svg" xml:space="preserve" width="51.5319mm" height="25.6829mm" version="1.1" style="shape-rendering:geometricPrecision; text-rendering:geometricPrecision; image-rendering:optimizeQuality; fill-rule:evenodd; clip-rule:evenodd"
viewBox="0 0 100.9 50.29"
 xmlns:xlink="http://www.w3.org/1999/xlink"
 xmlns:xodm="http://www.corel.com/coreldraw/odm/2003">
 <defs>
  <style type="text/css">
   <![CDATA[
    .fil2 {fill:#0368C6}
    .fil0 {fill:#0E0E0E}
    .fil7 {fill:#18BEF2}
    .fil5 {fill:#19C1F5}
    .fil4 {fill:#19C3FA}
    .fil13 {fill:#4A4A4A}
    .fil12 {fill:#4E4E4E}
    .fil15 {fill:#5CCAF2}
    .fil3 {fill:#5FD0FB}
    .fil11 {fill:#D7DCE5}
    .fil16 {fill:#F0F0F0}
    .fil9 {fill:#F3F3F3}
    .fil10 {fill:#F8F8F8}
    .fil8 {fill:#F9FAFA}
    .fil6 {fill:#FBFBFB}
    .fil1 {fill:#FDFDFD}
    .fil14 {fill:white}
   ]]>
  </style>
 </defs>
 <g id="Camada_x0020_1">
  <metadata id="CorelCorpID_0Corel-Layer"/>
  <g id="_2051197510992">
   <path class="fil0" d="M99.54 34.7c-0.46,-0.04 -0.13,-0.05 -0.25,0.14 0.98,0.93 2.15,3.59 -1.1,3.55 -1.06,-1.31 0.13,-1.37 -0.09,-3.15 -0.16,-1.32 -1.36,-1.4 -1.66,-2.21 1.57,0.12 2.08,1.26 2.45,1.39 0.39,0.14 0.05,0.2 0.32,-0.04 -1.63,-1.88 -2.69,-1.4 -2.24,-1.99 0.21,-0.28 1.2,-0.17 1.51,-0.12 0.52,0.08 0.82,0.29 1.19,0.13 -0.27,-0.71 -1.61,-1.11 -2.48,-1.57 -0.65,-0.34 -0.65,-0.43 -0.72,-1.29 -0.15,-1.87 -1.31,-6.93 -1.49,-8.57 1.32,-0.86 1.57,-0.71 1.97,-2.73 0.24,-1.23 -0.43,-11.54 -0.48,-13.53 -0.06,-3.03 -4.02,-1.22 -7.43,-1.55 -2.69,-0.26 -6.32,0.03 -9.15,0.03l-14.25 0.09c-0.8,0.01 -1.55,0.33 -1.87,0.3 -0.65,-0.05 0.01,-0.26 -2.06,-0.23l-13.84 0.21c-4.27,0.06 -2.33,0.81 -3.81,0.9 0.07,-1.12 0.8,-0.93 0.84,-2.18 -0.67,-0.02 -1.75,0.08 -1.84,0.81 -0.52,0.19 -0.44,0.36 -1.01,0.48 0.1,-0.54 1.23,-0.84 0.69,-1.73 -0.76,-0.42 -1.51,0.23 -1.87,0.61 -0.43,0.46 -0.57,0.9 -1.47,1.11 -1.15,0.26 -8.13,0.12 -10.12,0.23 -1.22,0.07 -1,0.3 -1.58,0.97 -0.34,0.4 -0.33,0.26 -0.98,0.34 -0.47,0.06 -0.64,0.15 -1.15,0.18 -0.29,-0.69 -0.41,-1.2 -1.3,-1.3 -1.33,-0.16 -5.59,0.22 -7.7,0.01 0.11,-0.86 1.69,-2.3 2.34,-2.86 0.33,-0.29 0.65,-0.49 0.74,-1.03 -2.43,-0.64 -3.15,1.67 -5.02,3.93l-3.03 0.03c0.21,-0.91 1.02,-1.05 1.16,-2.47 -0.8,-0.1 -0.83,-0.05 -1.53,-0.03 -0.62,0.01 -1.06,-0.28 -1.47,0.12 -0.16,0.21 -0.01,1.66 -0.03,2.42 -0.89,0.29 -0.94,0.16 -1.73,0.64 -1.9,1.15 -2.78,1.89 -3.22,3.98 -0.25,1.2 -0.8,2.55 -1.13,3.76 -1.03,3.79 -0.45,1.91 -0.05,3.66 -1.34,0.57 -1.13,0.61 -1.62,2.13 -0.29,0.91 -0.63,2.05 -0.46,3.09 1.19,0.93 3.2,0.34 4.81,0.62 -0.04,0.52 0.05,0.25 -0.33,0.57 -0.16,0.14 -0.38,0.27 -0.56,0.4 -1.3,0.94 -1.68,2 -2.07,3.48 -0.32,1.19 -0.22,2.14 -0.48,3.32 -0.22,1.02 -0.4,2.01 -0.62,3.04 -0.8,3.82 -0.19,5.05 -0.64,6.56 -0.27,0.9 -0.5,1.94 -0.78,2.88 -0.55,1.82 -1.42,3.01 -0.27,4.34 0.67,0.78 1.82,2.32 2.62,2.95 1.41,1.11 4.56,0.67 6.68,0.65 1.38,-0.01 9.86,-0.04 10.9,-0.23 1.19,-0.22 1.5,-1.03 2.38,-1.26 0.66,1.64 2.06,1.23 4.49,1.21 1.37,-0.01 4.34,0.25 5.17,-0.52 0.36,-0.34 0.28,-0.44 0.76,-0.73l6.71 -3.22c0.11,1.33 -1,3.3 0.06,4 0.77,0.51 12.77,0.25 14.17,0.24 3.13,-0.02 6.39,-0.04 9.5,-0.17 2.79,-0.12 2.6,-1.13 3.55,-1.32 0.7,-0.14 1.31,-0.12 2.11,-0.32 0.55,-0.14 1.1,-0.46 1.72,-0.44 0.19,1.19 0.14,1.67 1.4,1.87 1.29,0.2 4.77,0.03 6.28,-0.01 1.74,-0.05 1.6,-0.48 2.44,-0.8 1.3,0.84 1.29,0.68 3.12,0.68l10.72 -0.14c1.58,-0.04 2,0.1 2.77,-0.97 0.85,-1.18 0.06,0.27 0.48,-2.65 0.33,-2.29 -0.82,-4.72 -0.49,-6.63 0.64,-0.22 1.03,-0.11 1.68,-0.44 2.14,-1.09 0.76,-1.93 -0.23,-3.63z"/>
   <path class="fil1" d="M43.91 34.86c-0.84,-0.46 -0.64,-0.54 -1.21,-1.25 -0.36,-0.45 -0.81,-0.73 -1.13,-1.18 -0.49,-0.69 -0.48,-0.71 -1.05,-1.25l-4.22 -5c-0.92,-1.05 -0.51,-0.28 -0.37,-1.66 -0.48,0.06 -0.86,0.28 -1.38,0.19 -0.62,-0.11 -0.36,-0.34 -1.02,-0.23 -1.17,0.2 -1.11,0.26 -1.37,-0.83l-0.06 -0.22c-0.47,0.18 -0.83,0.57 -1.2,0.86 -1.11,0.88 -1.71,0.87 -1.96,2.13 -0.11,0.56 -0.2,1.1 -0.33,1.7 -0.47,2.31 -0.77,4.6 -1.22,6.92l-2.5 13.74 6.5 -0.12c0.93,-2.28 1.81,-11.19 2.51,-12.95 0.4,0.09 2.29,2.29 2.61,2.76 0.55,0.82 0.95,0.99 1.31,1.41 0.42,0.5 0.11,0.48 1.22,1.49l2.46 2.96c1.24,1.66 0.36,0.38 0.02,4.18l6.54 -0.15c1.01,-3.49 1.48,-8.36 2.27,-11.98 0.36,-1.64 1.01,-4.41 1.12,-6 0.13,-2.02 0.95,-4.07 1.08,-6 -0.45,0.06 -0.81,0.21 -1.28,0.01 -0.64,-0.26 -0.14,-0.43 -1,-0.21 -0.76,0.19 -1.06,0.46 -1.28,-0.46l-0.16 -0.56c-0.6,0.29 -0.78,0.52 -1.28,0.92 -0.43,0.35 -0.74,0.54 -1.18,0.86 -0.94,0.69 -0.85,1.72 -1.11,2.98 -0.26,1.28 -0.88,6.23 -1.32,6.95z"/>
   <path class="fil1" d="M56.68 41.89c0.03,-1.24 0.8,-4.41 1.07,-5.7 0.39,-1.83 0.57,-3.77 0.97,-5.68 0.2,-0.94 0.39,-1.9 0.56,-2.79 0.19,-1.03 0.02,-0.76 2.69,-0.79 2.76,-0.03 3.54,-0.48 4.44,0.63 0.34,0.42 0.53,0.44 0.86,0.75 2.1,1.96 1.11,1.87 0.83,4.89 -0.15,1.56 -0.72,4.05 -1.07,5.6 -0.18,0.83 -0.52,0.75 -1.79,1.6 -0.72,0.48 -1.29,0.99 -2.06,1.31 -0.49,0.21 -5.71,0.24 -6.49,0.16zm0.15 -16.56c-0.19,-0.81 0.29,-1.03 0.76,-1.37 1.04,-0.76 1.03,-0.55 0.95,-1.17 -1.22,-0.18 -2.24,1.76 -2.4,1.88 -0.16,0.12 -1.17,0.72 -1.38,0.8 -0.74,0.27 -1.03,-0 -1.29,-0.4 0.14,-0.68 1.18,-1.28 1.84,-1.76 0.02,-0.51 -0.18,-1.05 -0.55,-1.35 -0.68,1.16 -1.3,1.06 -1.59,2.49 -0.13,0.64 -0.07,1.15 -0.18,1.83 -0.48,2.85 -1.26,5.45 -1.57,8.53 -0.15,1.47 -2.53,12.69 -2.42,13.54 0.93,0.18 10.23,-0.11 12.01,-0.13 2.11,-0.03 4.08,0.31 5.3,-0.88 0.71,-0.69 6.64,-5.05 6.82,-5.41l2.93 -15.36c-0.39,-0.38 -0.68,-0.6 -1.02,-1l-2.86 -2.97c-2.33,-2.47 -1.32,-2.16 -5.74,-2.03 -0.41,0.84 0.2,0.36 -0.67,1.13 -0.81,0.72 -2.25,2.33 -3.14,2.4 -1.48,0.11 -0.52,-0.01 -1.49,0.42 -0.54,0.24 -1.02,0.02 -1.61,0.12 -1,0.17 -1.44,1.32 -2.7,0.7z"/>
   <path class="fil1" d="M21.36 27.61c-0,2.03 -0.91,5.43 -1.32,7.51 -0.25,1.26 -0.36,2.46 -0.6,3.75 -0.09,0.48 -0.49,3.24 -0.84,3.52 -0.39,0.25 -8.63,0.3 -9.69,0.19 -0.1,-1.09 0.28,-2.79 0.48,-3.87 0.56,-3 1.42,-8.42 2.1,-10.99l9.87 -0.12zm4.62 -2.13c-0.54,0.91 -0.76,0.85 -2.13,1 -3.07,0.35 -5.66,0.4 -8.71,0.6 -1.95,0.13 -4.09,0.21 -6.11,0.24 -0.97,0.01 -1.93,0.1 -2.93,0.15 -1.5,0.07 -1.2,0.11 -1.43,1.5l-1.58 7.79c-0.11,0.97 -0.11,1.7 -0.32,2.66 -0.19,0.82 -0.44,1.63 -0.56,2.55 -0.73,5.76 -1.19,2.33 0.97,5.51 0.3,0.44 0.36,0.34 0.77,0.73 0.95,0.9 0.42,0.88 2.24,0.87 1.04,0 2.08,0.03 3.12,0.03l8.95 -0.24c1.21,-0.02 1.92,0.2 2.71,-0.47l3.43 -2.68c0.7,-0.69 1.38,-5.78 1.77,-7.59 0.18,-0.86 0.21,-1.71 0.38,-2.6 0.32,-1.7 0.66,-3.55 1.03,-5.19 0.29,-1.26 0.51,-0.94 0.54,-2.56 0.01,-1.01 0.34,-1.9 0.29,-2.69 -1.08,0.16 0.29,0.31 -2.42,0.38z"/>
   <path class="fil1" d="M74.21 43.91l5.19 -4.23c0.43,-0.33 0.39,-0.45 0.81,-0.82l6.03 -5.23c0.83,-0.82 1.01,-0.59 1.38,-1.9 0.68,0.28 -0.07,0.2 0.51,0.48 1.93,-1.07 3.99,-1.93 6.58,-1.93 -0.06,-1.85 -0.39,-3.36 -0.69,-5.13 -0.26,-1.53 -0.5,-3.53 -0.89,-4.96 -1.4,-0.18 -3.78,-0 -5.28,0.02 -1.69,0.02 -1.22,-0.38 -2.78,2.49l-5.43 10.58c-0.5,1.15 -1.22,2.26 -1.85,3.58 -0.93,1.96 -2.92,5.31 -3.6,7.05z"/>
   <path class="fil2" d="M93.03 46.23c-1.19,0.21 -2.65,-0.85 -3.43,-1.31 -0.68,-0.41 -0.93,-0.31 -1.45,-0.99 -0.8,-1.06 -2.39,-2.03 -1.22,-5.01 0.25,-0.64 0.69,-0.99 1.02,-1.43 0.32,-0.44 0.73,-0.87 1.3,-0.96 0.17,-0.14 -0.01,-0.02 0.26,-0.17 2.54,-1.39 5.08,-0 2.86,1.89 -0.61,0.52 -0.79,0.73 -1.25,1.35 1.18,0.12 2.03,0.05 3.12,-0.16 1.26,-1.04 2.89,-1.67 1.6,-4.16 -0.37,-0.72 -0.36,-0.45 -0.86,-0.91 -0.47,-0.43 -0.29,-0.42 -0.91,-0.71 -0.33,-0.16 -0.89,-0.35 -1.22,-0.41 -0.6,-0.1 -1.14,0.08 -1.45,-0.18 1.21,-0.4 1.57,-0.83 3,-1.06 0.69,-0.11 3.35,-0.17 3.61,-0.3 -0.14,-0.48 0.25,-0.12 -0.46,-0.35l-1.5 -0.51c-1.67,-0.48 -3.28,-0.16 -4.86,0.38 -0.44,0.15 -0.76,0.14 -1.16,0.33l-2.57 1.63c-0.96,0.6 -2.25,1.79 -3.14,2.56 -0.86,0.74 -0.73,0.44 -1.47,1.24 -0.18,0.2 -0.5,0.54 -0.74,0.75l-6.84 5.92c-1.52,1.27 -0.12,0.23 -1.67,1.19 -0.4,0.25 -0.47,0.4 -0.84,0.65 -1,0.69 -2.23,1.04 -2.35,1.65 0.79,0 2.38,-0.58 3.2,-0.77 0.72,-0.17 2.69,-0.34 3.53,-0.4 8.24,-0.58 12.48,2.91 17.56,2.34 0.77,-0.09 2.73,-0.24 3.05,-0.87 -0.83,-0.55 -4.22,-0.44 -4.73,-1.23z"/>
   <path class="fil1" d="M60.56 14.12l8.78 -0.23c0.01,0.72 -0.32,1.89 -0.68,2.42 -2.25,0.59 -6.41,-0.15 -8.88,0.23l-0.99 3.45c1.01,-0 2.01,0.01 3.03,0.01 1.15,0 1.76,-0.42 2.97,-0.23 1.08,0.17 1.82,0.14 3,0.13 1.53,-0.02 1.42,0.12 2.39,-0.69 1.95,-1.62 1.57,-0.88 2.4,-3.85 0.25,-0.9 0.4,-1.53 0.6,-2.53 0.17,-0.83 0.6,-1.67 0.68,-2.37l-8.76 -0.02 0.5 -1.93c0.6,-0.97 7.01,0.03 8.97,-0.53l1.03 -3.51c-2,-0.1 -4.21,0.01 -6.18,0.06 -0.96,0.02 -1.89,0.05 -2.85,0.05 -1.48,0.01 -1.39,0.03 -2.35,0.8 -0.33,0.27 -1.42,1.06 -1.63,1.37l-2.04 7.39z"/>
   <path class="fil1" d="M82.35 19.72c0.71,0.03 1.42,0.01 2.13,0.02 0.92,0.01 1.33,0.17 1.71,-0.54 0.17,-0.33 0.17,-0.49 0.31,-0.78l1.33 -2.06c0.3,-0.52 0.37,-0.9 0.74,-1.43 1.01,-1.46 1.84,-3.66 2.72,-4.14l-0.07 5.15c-1.73,0.33 -1.49,-0.25 -2.28,1.25 -0.49,0.92 -0.94,1.42 -1.2,2.51l7.03 -0.04c0.93,-1.58 0.49,-5.49 0.36,-7.57 -0.17,-2.55 -0.17,-5.44 -0.45,-7.93 -5.14,0.08 -2.76,-0.67 -6.24,4.27 -0.31,0.44 -0.35,0.77 -0.59,1.17l-1.35 2.04c-0.23,0.42 -0.33,0.75 -0.61,1.16l-2.7 4.35c-0.19,0.42 -0.89,2.19 -0.85,2.58z"/>
   <path class="fil1" d="M40.93 8.19c-0.11,0.61 -0.52,2.18 -0.82,2.64l-5.08 0.06 0.51 -1.96c-0.79,0.1 -0.8,0.32 -1.69,0.13l-0.39 -0.83c-1.64,-0.02 -1.27,-0.04 -1.42,0.65l-0.55 1.68c-0.28,1.68 -0.7,2.97 -1.18,4.46l-1.14 4.18c0.64,0.1 2.83,-0.28 3.62,-0.39 0.51,-0.89 0.43,-2.52 1.09,-3.5 0.63,0.27 1.02,1.76 1.39,2.41 0.26,0.46 0.45,0.69 0.71,1.2 0.33,0.64 0.4,1.1 0.74,1.32 1.69,0.87 2.33,-1.58 3.06,-2.3 0.28,-1.1 0.54,-0.67 -0.08,-1.8 -0.26,-0.48 -0.84,-1.23 -0.95,-1.66 1.06,-0.09 3.55,0.23 4.2,-0.27l1.88 -6.11c-1.59,0.36 -2.19,0.19 -3.89,0.1z"/>
   <path class="fil1" d="M48.98 4.86l1.36 0.48c0.35,0.2 0.2,0.09 0.41,0.33 -0.19,0.49 -0.93,1.09 -1.26,1.37 -0.77,0.63 -1.23,0.34 -2.18,0.36 -0.46,0.25 -0.58,0.54 -1,0.79 -1.94,1.2 -0.78,-1.15 -1.65,1.9l-1.23 4.05c-0.29,1 -0.46,1.88 -0.74,2.8 -0.25,0.83 -0.71,2.05 -0.8,2.84 1.11,0.44 2.2,0.56 3.36,0.37 0.63,-1.63 1.45,-5.26 1.79,-5.79 1.12,-0.19 4.24,0.27 4.82,-0.34 0.11,-0.12 0.92,-1.4 1.01,-1.57l0.86 -1.78 -5.64 0.07c-0.02,-0.67 0.35,-2.01 0.62,-2.43l7.72 -0.1c0.58,-0.61 1.96,-3.43 1.96,-3.44 -0.7,-0.16 -8.61,-0.06 -9.4,0.09z"/>
   <path class="fil1" d="M75.11 7.98l4.44 0.03c-0.21,1.75 -1.31,3.79 -1.56,5.8 -0.15,1.21 -1.64,4.06 -1.62,5.92 0.65,0.02 2.72,-0.09 3.17,0.13 0.44,0.21 1.25,1.64 2.01,0.65 0.27,-0.73 -0.58,-0.84 -1.06,-1.53 0.08,-0.65 0.32,-0.74 0.33,-1.36 0.02,-1.61 -0.43,-0.27 0.41,-2.85 0.17,-0.53 0.15,-0.93 0.31,-1.45 0.3,-0.95 1.25,-4.68 1.61,-5.33l4.34 -0.18c0.25,-0.36 0.93,-3.21 0.98,-3.54l-12.31 0.14c-0.32,0.41 -1.06,2.93 -1.06,3.57z"/>
   <path class="fil3" d="M27.61 23.1c0.17,-0.42 0.35,-0.55 0.69,-1.01 0.28,-0.38 0.36,-0.56 0.84,-0.69 0.12,1.07 -0.51,1.73 -1.54,1.71zm12.82 0.01c0.1,-0.69 0.16,-0.69 0.57,-1.08 0.43,-0.42 0.31,-0.55 0.96,-0.66 -0.18,0.85 -0.7,1.53 -1.52,1.74zm-5.52 0.93c-0.32,-0.83 0.57,-1.2 1.04,-1.63 0.47,-0.42 0.83,-1.33 1.73,-0.86 -0.12,0.48 -0.24,0.44 -0.61,0.75l-1.42 1.29c-0.04,0.04 -0.6,0.61 -0.66,0.45 -0.01,-0.02 -0.05,0 -0.08,-0.01zm5.12 -6.06c-0.34,0.66 -0.46,1.12 -0.86,1.67 -0.37,0.51 -0.79,0.87 -1.06,1.4 -1.67,-0.13 -1.4,-0.13 -2.58,0.8 -0.78,0.62 -1.03,1.18 -2.13,1.53l0.43 -0.66c0.14,-0.17 0.19,-0.24 0.35,-0.45 0.28,-0.38 0.61,-0.68 0.46,-1.2 -0.88,0.01 -2.62,1.54 -3.49,2.01 0.94,-1.8 1.73,-1.42 1.96,-2.37 -1.31,-0.05 -1.44,0.81 -3.03,2.21 -0.79,0.69 -2.08,1.86 -3.2,1.83 0.05,-2.02 2.39,-0.41 3.17,-3.39 0.14,-0.55 0.17,-0.4 -0.11,-0.75 -0.99,-0.6 -2.81,1.8 -3.19,2.22 -0.51,0.57 -2.26,2.54 -2.99,2.6 -0.18,-0.6 0.21,-0.87 0.53,-1.4 0.26,-0.44 2.02,-3.49 2.34,-3.65 0.85,-0.24 3.47,-0.46 4.58,-0.59 1.04,-0.12 4.04,0.29 4.11,-0.9 -0.61,-0.17 -3.11,0.34 -3.91,0.48 -1.39,0.25 -2.64,0.27 -4.08,0.45 0.28,-0.57 1.32,-1.2 0.98,-1.93 -0.74,-0.31 -1.57,0.7 -1.84,1.26 -0.27,0.56 -0.18,0.59 -0.77,0.84 -0.56,0.24 -0.79,0.08 -1.16,0.47l0.9 0.15c-0.25,1.09 -2.21,2.35 -3.01,3.03 0,-0.57 1.11,-1.53 1.11,-2.31 -1.38,-0.07 -2.18,1.48 -3.42,1.78 0.33,-0.58 1.66,-1.79 1.81,-2.11 -0.53,-0.21 -0.95,0.06 -1.39,0.49 -0.41,0.39 -0.54,0.75 -0.87,1.3 -0.19,0.32 -0.67,0.78 -0.99,1.18 -0.36,0.45 -0.66,0.71 -0.78,1.27 0.43,-0.14 1.58,-0.97 1.89,-1.25 0.54,-0.49 1.23,-0.94 2.13,-1.14 -1.2,3.27 1.45,0.39 2.14,0.16 -0.16,0.54 -0.38,0.79 -0.6,1.26 -0.2,0.41 -0.29,0.86 -0.45,1.17 -1.52,0.63 -10.7,1.1 -12.82,1 0.12,-0.52 2.56,-4.4 3.05,-5.06 1.36,-0.04 2.47,-0.27 3.8,-0.43 2.46,-0.29 2.64,-0.16 2.86,-1.23l-1.8 0.24c-0.31,0.18 -3.95,0.95 -4.45,0.84 0.01,-0.63 0.8,-1.3 1.09,-1.99 0.36,-0.85 1.01,-1.18 0.77,-2.16 -0.98,0.02 -0.62,0.46 -1.2,1.32 -0.38,0.56 -0.53,0.96 -0.88,1.56 -0.28,0.49 -0.43,1.27 -0.88,1.55 -0.63,0.4 -1.45,0.12 -1.81,0.47 0.38,0.21 0.96,0.01 1.45,0.01 -0.05,0.41 -0.85,1.96 -1.09,2.4l-1.29 2.24c-0.46,0.59 -3.78,0.36 -5.52,0.67 -0.11,0.02 -0.23,0.05 -0.34,0.08 -0.25,0.08 -0.17,0.04 -0.34,0.16 0.22,0.17 -0.03,0.07 0.34,0.15 0.2,0.04 0.19,0.03 0.39,0.02 0.16,-0.01 0.5,-0.07 0.69,-0.08l4.21 -0.22c3.57,-0.17 7.88,-0.53 11.25,-0.6 1.66,-0.04 4.37,0.31 5.14,-0.9 -0.33,-0.61 -0.21,0.02 -0.52,-0.54 0.41,-0.35 0.98,-0.83 1.37,-1l-0.05 1.22c1.8,0.01 2.37,-0.83 3.37,-1.41 -0.08,0.73 -0.69,0.72 -0.84,1.27 1.04,0.04 2.28,-1.94 4.12,-2.31 -0.72,2.55 0.12,1.28 1.26,0.81l0.08 0.37c0,0.03 0.01,0.07 0.01,0.09 0.04,0.22 -0.05,0.08 0.09,0.35 1.37,0.3 2.93,-2.14 3.43,-2.35 -0.06,0.81 -1.15,2.23 -1.17,3.22 1.32,-0.01 1.49,-1.47 2.63,-1.83 -0.09,0.29 -1.26,2.49 1.57,1.26 0.35,-0.15 0.96,-0.72 1.37,-1.05 0.82,-0.66 2.05,-1.58 2.45,-2.34 -1.37,0.25 -1.39,1.23 -2.4,1.84 -0.84,0.5 -1.66,1.49 -2.69,1.55l0.23 -1.15c1.23,-0.21 1.53,-0.23 2.19,-0.94 0.47,-0.51 1.12,-1.27 0.78,-2.11 -0.97,-0.4 -1.2,-0.03 -1.72,0.49l-2.39 2.21c-0.52,0.39 -0.73,0.9 -1.22,1.12 0.13,-0.77 2.28,-4.17 3.03,-5.41 0.47,-0.77 0.84,-0.85 1.01,-1.88 -1.34,0.12 -0.92,0.72 -1.53,0.99z"/>
   <path class="fil1" d="M16.64 17.88c-0.3,0.49 -0.14,0.96 0.15,1.35 0.37,0.5 0.47,0.52 1.21,0.49 0.86,-0.13 1.44,-0.49 2.34,-0.1 0.15,0.59 -0.06,0.33 -0.2,0.98 0.6,0.02 0.96,-0.1 1.53,-0.1 2.11,-0.01 1.13,0.48 2.61,-0.42 0.47,-0.28 0.8,-0.21 1.25,-0.4 0.49,-0.2 1.23,-2.24 2.52,-2.28 0.51,-0.02 0.54,0.1 0.9,0.67 0.01,0.02 0.03,0.06 0.06,0.09 0.77,-2.46 1.36,-5.08 2.22,-7.58 0.15,-0.72 0.26,-1.24 0.5,-1.94l-0.71 -0.27c-1.32,-0.37 -0.85,0.7 -1.74,0.67 -1.09,-0.04 -0.1,-1.02 0.13,-1.35 0.32,-0.47 0.41,-0.9 0.74,-1.3 0.32,-0.39 0.62,-0.96 0.96,-1.09 0.82,-0.33 1.11,0.44 1.57,-0.18l-0.82 -0.2c-3.11,-0.01 -2.58,-0.24 -3.57,3.15l-0.78 3.02c-0.3,0.98 -0.62,1.92 -0.9,2.9 -1.06,3.68 0.64,2.9 -6.14,3.01l0.3 -1.1c-4.03,-0.04 -3.86,0.48 -4.12,1.98z"/>
   <path class="fil1" d="M89.55 36.61c-0.19,0.25 -0.67,0.5 -0.95,0.71 -0.18,1.19 0.49,2.86 0.31,3.99l-1.75 0.13c0.29,2.98 5.47,4.32 5.87,4.79 1.29,0.08 2.51,0.58 3.63,0.53 0.43,-1.67 0.4,-2.45 0.13,-4.14 -0.21,-1.31 -0.28,-2.88 -0.56,-4.07 -0.67,0.28 -0.92,0.98 -2.01,1.13 -1.3,0.52 -2.6,0.32 -4.11,0.21 0.2,-0.34 -0.02,-0.04 0.21,-0.26 0.02,-0.02 0.2,-0.16 0.24,-0.19 0.76,-0.56 2.26,-1.99 2.26,-2.92 -0.97,-0.5 -2.38,-0.22 -3.28,0.09z"/>
   <path class="fil1" d="M8.04 8.38c0.02,0.6 -0.52,1.12 -0.86,1.53 -1.32,1.58 -0.43,0.6 -1.29,1.16 -0.53,0.35 -1.01,2.97 -1.11,3.75l8.74 0.03 -0.22 0.78 0.72 0.11 0.42 -0.2c1.08,-0.36 2.42,-0.05 2.77,-1 0.27,-0.74 0.87,-2.58 0.88,-3.31 -1.35,-0.16 -3.69,-0.03 -5.13,-0.01 -1.62,0.03 -1.2,0.65 -1.8,0.79 -0.94,0.22 -0.02,-0.68 -1.8,-0.71 -0.2,-1.74 1.22,-1.66 0.58,-5.07 -0.6,0.21 -1.15,1.71 -1.91,2.14z"/>
   <path class="fil1" d="M54.7 20.11c0.67,-0.02 1.12,-0.09 1.76,-0.16 0.66,-0.07 0.93,0.08 1.57,0.05 0.41,-0.77 1.85,-6.2 2.23,-7.52 0.56,-1.95 1.91,-6.02 2.19,-7.85 -0.85,-0.02 -2.12,-0.04 -2.94,0.03 -0.94,0.08 -0.6,0.21 -1.13,1.76l-1.22 4.49c-0.43,1.47 -0.79,2.95 -1.24,4.46 -0.4,1.35 -1.22,3.37 -1.21,4.73z"/>
   <path class="fil1" d="M4.07 17.26c-0.34,0.57 -1.04,2.76 -0.96,3.59 2.51,0.06 5.17,-0.06 7.7,-0.07 1.43,-0.01 1.81,-0.27 2.25,-1.45 0.41,-1.11 1.03,-1.7 1.32,-2.71 -1.63,-0.04 -1.02,0.44 -2.34,0.5 -2.58,0.1 -5.42,-0.03 -7.97,0.14z"/>
   <path class="fil1" d="M10.85 26.14c0.63,0.12 6.27,-0.29 6.69,-0.45 -0.01,-0.77 -0.14,0.08 -0.21,-0.76 0.77,-0.55 0.76,-1.11 1.36,-1.74 0.65,-0.68 0.89,-1.01 1.35,-1.92 -1.07,-0.05 -5.92,0.07 -6.6,0.46 -0.15,0.09 -2.51,3.84 -2.6,4.41z"/>
   <path class="fil1" d="M17.53 14.95c1.08,-0.1 2.35,-0.08 3.25,-0.4 0.69,-0.24 0.77,-1.54 1,-2.37 0.48,-1.69 1.26,-3.62 1.5,-5.41 -0.51,0.3 -1.03,0.75 -1.57,1.14 -1.24,0.89 -0.94,0.28 -2.09,0.38 -0.72,0.65 -0.85,2.09 -1.18,3.14l-0.91 3.53z"/>
   <path class="fil4" d="M43.34 7.83c-0,-0.57 0.18,-0.69 0.49,-1.02 0.3,-0.32 0.38,-0.46 0.97,-0.43 -0.06,0.7 -0.71,1.32 -1.45,1.45zm-8.22 -0.7c0.05,-0.55 0.68,-0.9 1.12,-0.99 -0.02,0.38 -0.17,0.45 -0.4,0.69 -0.23,0.24 -0.24,0.36 -0.71,0.3zm5.74 1.01c0.22,-0.57 0.7,-1.1 1.4,-1.12 -0.16,0.28 -0.56,0.6 -0.42,0.88 0.17,0.37 0.7,-0.09 0.99,-0.26 0.03,0.02 0.53,1.3 1.83,-0.13 0.47,-0.51 1.12,-1.25 0.83,-2.05 -0.74,-0.04 -1.01,0.36 -1.48,0.71l-1.33 0.97c0.21,-0.76 0.94,-0.95 0.99,-1.74 -1.22,0.07 -1.24,0.68 -1.9,1.03 0.44,-0.96 2.56,-3.02 2.74,-3.8 -0.88,0.13 -0.85,0.43 -1.44,0.51 -0.27,0.94 -2.69,2.99 -3.5,3.59 -0.35,0.26 -1.07,0.82 -1.44,0.91 0.12,-0.53 0.65,-0.93 1,-1.35 1.09,-1.33 0.18,-0.67 2.18,-2.71 0.54,-0.55 1.03,-0.91 1.18,-1.5 -0.92,0.01 -0.8,0.17 -2.15,1.49l-3.55 3.51c-0.54,0.52 -1.26,1.33 -2.21,1.3 0.21,-1.08 0.74,-0.57 1.52,-1.18 0.43,-0.34 1.23,-1.33 0.58,-1.89 -0.53,-0.46 -1.87,1.34 -2.84,1.78 -0.58,0.27 -0.77,0.24 -0.9,0.9 0.91,-0.05 0.46,-0.49 1.32,-0.64 0.17,0.85 -0.37,0.68 -0.09,1.3 0.65,0.29 1.77,-0.36 2.16,-0.69 0.62,-0.52 1.23,-1.31 1.84,-1.52 -0.3,0.97 -0.7,1.16 -1.03,1.95 1.64,0.02 2.61,-1.62 4.3,-2.57 -0.17,0.91 -1.59,2 -1.6,2.98 0.69,-0.27 0.31,-0.43 1.07,-0.68z"/>
   <path class="fil4" d="M9.86 1.73c0.34,2.1 0.53,2.33 -1.33,4.65 -0.46,0.57 -0.37,0.8 -1.26,2 -0.3,0.4 -1.21,1.68 -0.97,2.12 0.36,-0.5 1.19,-1.95 1.7,-2.17 0.33,-1.19 1.2,-1.74 1.56,-2.26 0.28,-0.41 0.23,-0.47 0.57,-0.82 0.08,0.11 0.07,0.06 0.14,0.32 0.03,0.12 0.05,0.23 0.07,0.35 0.19,1.32 0.2,4.87 0.6,5.64 0.68,-0.03 0.8,-0.69 1.1,-1.24 0.32,-0.58 0.62,-0.9 0.92,-1.52 0.61,-1.28 1.4,-2.17 1.83,-3.06 0.21,-0.45 2.49,-3.54 3.1,-4.1 0.32,-0.3 0.27,-0.29 0.63,-0.59 0.33,-0.26 0.37,-0.24 0.55,-0.65 -1.45,-0.52 -3.84,3.5 -4.36,4.45 -0.61,1.11 -1.18,1.78 -1.65,2.97 -0.21,0.55 -1.34,2.4 -1.69,2.88 -0.25,-0.9 -0.23,-3.69 -0.36,-4.97 -0.27,-2.69 1.2,-2.23 1.25,-3.94 -0.97,-0.08 -0.61,0.39 -1.31,1.02 -0.24,-0.25 -0.08,-0.37 -0.21,-0.71 -0.22,-0.57 -0.41,-0.38 -0.88,-0.34z"/>
   <path class="fil1" d="M5.1 26.37c0.9,0.01 1.83,0.03 2.72,-0.02 1.26,-0.07 1.55,0.15 1.89,-0.87 0.35,-1.06 1.74,-2.62 1.75,-3.52 -0.62,0.02 -0.86,0.16 -1.27,-0.22 -0.26,-0.24 -0.15,-0.71 -0.97,-0.17 -0.54,0.35 -1.01,1.07 -1.55,1.46 -0.42,0.3 -0.49,0.26 -0.86,0.62 -1.65,1.64 -1.57,1.12 -1.7,2.72z"/>
   <path class="fil3" d="M60.47 23.86c0.12,-0.65 0.48,-0.67 0.84,-1.2 1.41,-2.1 3.1,-1.68 3.41,-2.47 -0.5,-0.37 -0.12,-0.13 -0.46,-0.19 -0.42,-0.07 -0.88,0.11 -1.2,0.33 -1.13,0.76 -2.83,2.58 -3.37,2.66 -0.89,-1.67 0.53,-1.88 0.52,-2.67 -1.02,-0.44 -2.42,2.31 -3.93,2.71 0.03,-0.66 -0.19,-1.13 0.08,-1.66 0.32,-0.62 0.69,-0.34 0.67,-1 -0.8,-0.17 -1.39,0.41 -1.55,0.96 -0.26,0.89 0.39,1.18 0.39,2.15 -0.36,0.21 -0.79,0.45 -1.06,0.68 -1.01,0.87 -0.75,0.43 -0.83,0.91 0.96,0.41 1.95,-0.69 2.41,-1.37 0.48,-0.71 0.48,-0.43 1.11,-0.92 0.53,-0.41 0.52,-0.71 1.12,-0.85 0.22,0.39 0.48,0.82 0.5,1.38 -0.92,0.83 -1.72,0.94 -1.81,1.81 0.6,0.01 1.44,-0.39 1.74,-0.66 0.47,-0.44 0.43,-0.99 1.19,-1.23 -0.12,0.46 -0.27,0.52 -0.22,0.93 0.49,0.13 0.95,0.06 1.27,-0.18 0.26,-0.2 0.48,-0.42 0.81,-0.67 0.33,0.09 0.1,0.04 0.34,0.21 0.43,0.3 -0.26,-0.03 0.34,0.25 0.74,-0.36 2.88,-2.32 3,-2.91 -1.14,0.48 -1.98,2.09 -2.64,2.11 0.18,-0.57 0.5,-0.69 0.55,-1.18 0,-0.02 -0.01,-0.08 -0.01,-0.1l-0.04 -0.19c-0.48,-0.48 -1.15,0.91 -1.88,1.58 -0.55,0.5 -0.48,0.74 -1.27,0.78z"/>
   <path class="fil3" d="M51.56 23.66c-0.09,-0.45 -0.05,-0.53 0.64,-1.29 0.31,-0.34 0.71,-0.83 1.31,-0.78 -0,0.92 -0.9,2.06 -1.95,2.07zm-3.86 -0.76c0.41,-1.15 1.83,-1.4 1.99,-2.49 -1.34,0.08 -1.75,1.2 -2.41,2.06 -0.46,0.59 -0.57,0.57 -0.94,1.24 -0.22,0.38 -0.61,0.79 -0.72,1.15 0.79,-0.22 0.46,-0.02 0.99,-0.48 0.72,-0.63 2.15,-1.7 3.09,-1.94 -0.12,0.72 -0.41,0.85 -0.19,1.54 0.71,-0.04 0.99,-0.56 1.61,-0.84 0.02,0.03 0.04,0.08 0.04,0.1 0.01,0.02 0.03,0.07 0.04,0.1 0.12,0.41 -0.03,0.33 0.2,0.78 0.95,0.09 1.34,-0.47 2.1,-1.14 0.46,-0.4 1.22,-1.21 1.16,-2.11 -0.48,-0.32 -0.91,-0.38 -1.42,-0.03 -0.27,0.18 -0.2,0.22 -0.51,0.42 -1.32,0.87 -1.85,1.77 -2.53,1.85 0.17,-0.93 1.34,-1.27 1.16,-2.21 -1.18,0.05 -2.82,1.71 -3.65,2z"/>
   <path class="fil1" d="M79.7 47.96c0.24,-0.41 0.73,-1.17 0.68,-1.67 -1.31,-0.01 -3.16,-0.1 -4.42,0.03 -2.46,0.26 -2.84,0.32 -2.82,1.74l6.56 -0.1z"/>
   <path class="fil5" d="M15.57 7.48c0.15,-0.55 0.39,-0.98 1.02,-0.97 -0.18,0.59 -0.33,0.88 -1.02,0.97zm-0.95 1.56c1.23,0.15 1.85,-0.77 2.65,-1.17 -0.11,0.71 -0.31,0.03 -0.49,0.96 0.88,-0.28 1.93,-2.03 2.94,-2.06 -0.2,0.6 -0.67,0.73 -0.9,1.46 1.15,-0.04 0.46,-0.94 2.07,-0.8 -0.56,0.63 -0.53,0.22 -0.41,0.79 0.62,0.02 2.13,-1.46 2.61,-1.85 -0.76,0.1 -1.05,0.32 -1.58,0.66l-0.07 -0.21c-0.04,-0.16 0.02,-0.08 -0.06,-0.3 -0.56,-0.06 -0.67,0.09 -1.12,0.23 0.22,-0.38 0.41,-0.36 0.25,-0.88 -0.59,-0.12 -0.7,0.13 -1.03,0.37 -0.53,-0.31 0.05,-0.14 -0.54,-0.46 -0.44,0.21 -0.63,0.51 -0.93,0.88 -0.33,0.4 -0.51,0.52 -0.91,0.85 -0.51,0.44 -1.32,1.26 -2.18,1.23 -0.11,-0.9 0.88,-0.64 1.58,-1.29 1.73,-1.6 0.7,-2.93 -1.16,-0.76 -0.45,0.53 -0.76,1.4 -0.72,2.35z"/>
   <path class="fil2" d="M99.54 34.7l-0.35 -0.32c-0.27,0.23 0.07,0.17 -0.32,0.04 -0.36,-0.13 -0.88,-1.27 -2.45,-1.39 0.3,0.81 1.5,0.89 1.66,2.21 0.22,1.77 -0.97,1.84 0.09,3.15 3.26,0.04 2.08,-2.62 1.1,-3.55 0.13,-0.19 -0.21,-0.18 0.25,-0.14z"/>
   <path class="fil3" d="M13.66 15.97c-0.57,0.16 -0.9,0.11 -1.31,0.5l2.99 -0.16c0.58,-0.4 6.2,-0.91 7.74,-1.13 1.25,-0.18 1.84,-0.15 1.99,-0.83 -0.62,-0.33 -2.05,0.19 -2.82,0.31 -0.95,0.16 -1.91,0.2 -2.89,0.37 -1.82,0.32 -3.89,0.78 -5.7,0.93z"/>
   <path class="fil1" d="M13.84 5.24l-2.36 -0.01c-0.05,0.74 -0,1.59 -0.01,2.34 -0.02,2.68 1.1,0.4 1.55,-0.63 0.27,-0.62 0.65,-1.03 0.82,-1.7z"/>
   <path class="fil4" d="M48.43 7.12c0.01,-0.04 0.06,-0.36 0.06,-0.36 0.1,-0.32 0.02,-0.1 0.19,-0.31 0.35,-0.23 0.73,-0.44 0.96,-0.95 -1.54,-0.18 -1.44,0.79 -2.35,0.94 0.2,-0.53 1.26,-1.63 1.31,-1.95 -0.87,-0.19 -1.55,0.85 -2.13,1.15 -0.1,0.87 0.18,0.75 -0.32,1.45 -0.24,0.34 -0.56,0.66 -0.69,1.08 0.6,0 0.83,-0.44 1.33,-0.85 1.14,-0.94 0.8,-0.14 1.65,-0.21z"/>
   <path class="fil6" d="M18.49 25.48c0.43,0.29 1.94,-0 2.48,-0.05 1.09,-0.11 1.7,0.06 1.96,-0.95 -1.22,0.25 -1.96,0.79 -1.72,-0.9 -0.7,0.11 -2.36,1.46 -2.73,1.9z"/>
   <path class="fil6" d="M87.98 47.88c-0.43,-0.4 -2.07,-0.66 -2.82,-0.86 -1.44,-0.38 -1.64,-0.68 -2.09,0.9l4.91 -0.05z"/>
   <path class="fil3" d="M32.13 6.71l0.57 -0.16c0.31,-0.24 0.44,-0.3 0.41,-0.8 -0.54,-0.2 -0.89,0.07 -1.27,0.29l-0.19 -0.2c-0.25,-0.18 0.15,-0.07 -0.37,-0.18 -0.27,0.38 -1.81,2.34 -1.96,2.93 0.23,-0.04 0.13,-0 0.31,-0.13l0.92 -0.83c0.25,-0.22 0.44,-0.31 0.68,-0.54 0.29,-0.28 0.25,-0.32 0.62,-0.6 0.28,0.08 0.15,-0.01 0.3,0.22z"/>
   <path class="fil1" d="M23.73 5.27c-0.73,-0.41 -2.47,-0.21 -3.4,-0.11 0.02,0.04 1.02,1.21 1.58,1.17 0.42,-0.03 0.59,-0.3 0.92,-0.44 0.66,-0.27 0.76,0.12 0.9,-0.62z"/>
   <path class="fil7" d="M24.89 8.15c0.06,-0.77 0.76,-1.6 1.48,-1.64 -0.01,0.82 -0.72,1.5 -1.48,1.64zm1.74 -2.43c-1.42,0.4 -2.88,2.85 -1.4,2.58 0.88,-0.16 0.99,-0.59 1.44,-1.14 0.23,-0.28 1.08,-1.75 -0.04,-1.44z"/>
   <path class="fil8" d="M33.2 4.96c-0.01,0.81 0.59,1.06 1.35,1.21 0.37,-0.25 1.04,-0.88 1.21,-1.28l-2.56 0.07z"/>
   <path class="fil9" d="M68.39 47.54c0.79,-0.13 1.43,-0.7 2.09,-1.04 0.75,-0.39 1.66,-0.6 1.35,-1.7 -0.09,0.05 -3.35,2.59 -3.45,2.74z"/>
   <path class="fil8" d="M16.44 17.79c0.1,-1.01 0.16,-0.48 0.08,-1.36l-0.5 -0.01c-0.06,0.11 -0.06,0.06 -0.07,0.38 -0.08,1.86 -0.77,1.18 -1.21,2.78 1.19,-0.42 1.2,-1.1 1.7,-1.79z"/>
   <path class="fil8" d="M46.35 22.99c0.36,-0.46 1.54,-1.8 1.65,-2.14l-1.49 0.02c-0.11,0.51 -0.3,1.81 -0.16,2.12z"/>
   <path class="fil8" d="M92.91 32.94c0.4,0.14 0.73,0.08 1.28,0.32 0.67,0.29 0.41,0.41 1.22,0.58 -0.17,-2.28 -2.32,-1.08 -2.5,-0.9z"/>
   <path class="fil4" d="M32.13 6.71c-0.4,0.47 -0.67,0.66 -0.78,1.35 0.75,-0.25 0.73,-0.62 1.37,-0.82 0.96,-0.31 0.69,0.12 1.24,-0.73 -0.62,-0.17 -0.79,-0.07 -1.25,0.17l-0.02 -0.13 -0.57 0.16z"/>
   <path class="fil10" d="M24.54 24.51c0.28,-0.23 0.79,-0.77 1.07,-1.05 0.44,-0.44 1,-0.6 0.75,-1.48 -0.79,-0.08 -1.7,1.94 -1.82,2.53z"/>
   <path class="fil8" d="M59.85 22.3c0.54,-0.05 0.69,-0.47 1.03,-0.74 0.41,-0.32 0.68,-0.25 0.8,-0.95 -0.7,0.01 -0.76,-0.03 -1.16,0.32l-0.61 0.48 -0.06 0.89z"/>
   <path class="fil6" d="M56.47 22.3c0.62,-0.09 1.74,-0.92 1.88,-1.62 -0.9,0.02 -0.78,0.07 -1.28,0.46 -0.57,0.45 -0.57,0.19 -0.6,1.16z"/>
   <path class="fil11" d="M18 6.18l1.14 -0.86c0.73,0.34 0.48,0.23 0.56,-0.05 -0.36,-0.21 -1.57,-0.13 -2.08,-0.11 0.01,0.36 0.15,0.72 0.38,1.03z"/>
   <path class="fil10" d="M6.48 8.76c0.21,-0.22 0.18,-0.26 0.32,-0.44 0.39,-0.49 0.75,-0.86 1.03,-1.6 -0.82,0.11 -1.46,0.97 -1.35,2.03z"/>
   <path class="fil12" d="M97.51 36.35c0.33,-0.16 0.14,0.21 0.36,-0.34 0.09,-0.23 0.2,-1.14 -0.49,-1.38 -0.16,0.29 -0.19,0.23 -0.07,0.96 0.06,0.39 0.05,0.47 0.2,0.75z"/>
   <path class="fil13" d="M48.68 6.45c-0.16,0.21 -0.08,-0.01 -0.19,0.31 -0,0 -0.06,0.33 -0.06,0.36 0.78,-0.14 1.45,-0.67 1.69,-1.29 -0.79,-0.01 -0.96,1.02 -1.44,0.62z"/>
   <path class="fil10" d="M37.54 5.86c0.38,-0.24 0.67,-0.6 0.84,-1l-1.21 0c0.03,0.2 0.05,0.33 0.11,0.51 0.19,0.53 -0.06,-0.09 0.08,0.2 0.17,0.35 0.07,0.12 0.18,0.28z"/>
   <path class="fil14" d="M38.48 8.4c0.83,0.24 1.38,-0.04 1.44,-0.94 -0.38,0.08 -1.17,0.66 -1.44,0.94z"/>
   <path class="fil14" d="M39.74 6.14c0.56,-0.37 1.04,-0.62 1.32,-1.29 -0.74,-0.01 -1.35,0.53 -1.32,1.29z"/>
   <path class="fil14" d="M30.63 20.45c0.56,0.03 1.33,0.13 1.81,-0.12 -0.12,-0.48 -0.29,-0.35 -0.88,-0.28 -0.38,0.05 -0.89,0.05 -0.94,0.4z"/>
   <path class="fil14" d="M30.31 21.98c0.37,-0.13 0.3,-0.1 0.58,-0.3 0.5,-0.37 0.28,-0.15 0.47,-0.57 -0.72,-0.04 -0.98,0.18 -1.04,0.87z"/>
   <path class="fil15" d="M63.9 21.28c0.64,0.43 0.82,-0.01 0.96,-0.48 -0.51,0.07 -0.79,0.04 -0.96,0.48z"/>
   <path class="fil14" d="M51.71 21.36c0.57,-0.04 0.68,0.06 0.84,-0.49 -0.46,-0.28 -0.74,0.03 -0.84,0.49z"/>
   <path class="fil16" d="M45.99 5.38c0.49,0.06 0.58,-0.11 0.83,-0.55 -0.67,-0.02 -0.8,-0.14 -0.83,0.55z"/>
   <path class="fil14" d="M35.11 21.52c0.49,-0.08 0.55,-0.1 0.77,-0.38 -0.42,-0.31 -0.79,-0.18 -0.77,0.38z"/>
   <path class="fil14" d="M23.95 21.61c0.61,0 0.51,0.14 0.75,-0.33 -0.46,-0.27 -0.66,-0.04 -0.75,0.33z"/>
   <path class="fil14" d="M27.38 24.12c0.04,0.03 -0.18,0.28 0.36,0.12 0.34,-0.1 0.13,-0.06 0.23,-0.25 -0.25,-0.14 -0.55,-0.09 -0.59,0.14z"/>
  </g>
 </g>
</svg>
