<?xml version="1.0" encoding="UTF-8"?>
<!DOCTYPE svg PUBLIC "-//W3C//DTD SVG 1.1//EN" "http://www.w3.org/Graphics/SVG/1.1/DTD/svg11.dtd">
<!-- Creator: CorelDRAW -->
<svg xmlns="http://www.w3.org/2000/svg" xml:space="preserve" width="33.8667mm" height="16.9333mm" version="1.1" style="shape-rendering:geometricPrecision; text-rendering:geometricPrecision; image-rendering:optimizeQuality; fill-rule:evenodd; clip-rule:evenodd"
viewBox="0 0 107.28 53.64"
 xmlns:xlink="http://www.w3.org/1999/xlink"
 xmlns:xodm="http://www.corel.com/coreldraw/odm/2003">
 <defs>
  <style type="text/css">
   <![CDATA[
    .fil0 {fill:black}
    .fil9 {fill:#260D03}
    .fil3 {fill:#E80B01}
    .fil8 {fill:#F51700}
    .fil4 {fill:#FD0400}
    .fil11 {fill:#FEBB00}
    .fil1 {fill:#FEFEFE}
    .fil2 {fill:#FF0B00}
    .fil5 {fill:#FF1400}
    .fil7 {fill:#FF2300}
    .fil6 {fill:#FF2C00}
    .fil12 {fill:#FFDA00}
    .fil10 {fill:#FFE700}
   ]]>
  </style>
 </defs>
 <g id="Camada_x0020_1">
  <metadata id="CorelCorpID_0Corel-Layer"/>
  <g id="_2475191146768">
   <path class="fil0" d="M100.58 47.75c-0.66,0.46 -2.03,0.71 -3.24,0.27 -0.92,-0.34 -1.57,-1.3 -0.51,-1.97 2.3,-1.44 5.53,0.46 3.75,1.69zm-90.57 -0.75c0.51,-0.68 1,-2.05 1.85,-2.47 0.79,-0.4 2.59,-0.93 4.07,-0.63 -0.32,1.08 -1.33,2.19 -2.19,3.07 -1.84,1.88 -6.72,3.05 -8.57,1.11 -3.33,-3.49 -4.56,-14.7 -0.4,-17.18l1.47 -0.7c5.39,-1.98 7.88,0.48 9.21,3.3 1.65,3.5 0.8,6.77 -4.86,8.66 -2.51,0.84 -3.27,0.22 -2.5,1.98 0.33,0.76 0.95,2.42 1.92,2.86zm38.52 -15.69c0.55,-1.93 1.22,-5.12 5.48,-5.31 0.92,-0.04 1.94,-0.04 2.75,0.18 5.03,1.34 8.9,6.88 7.95,10.83 -1.06,4.4 -4.27,4.96 -4.8,5.74 0.21,0.25 -0.06,-0 0.33,0.28 2.07,1.53 6.87,3.78 6.46,5.23 -0.23,0.83 -2,1.45 -3.48,0.88 -0.73,-0.28 -0.85,-0.53 -1.32,-0.89l-6.74 -4.33c-0.39,0.71 0.67,2.2 0.33,3.38 -0.15,0.53 -1.9,1.08 -3.13,0.83 -1.44,-0.29 -1.44,-1.03 -1.63,-1.89 -0.36,-1.61 -0.8,-3.3 -1.19,-4.8 -0.41,-1.57 -0.81,-3.14 -1,-4.78 -0.18,-1.62 -0.54,-3.48 -0,-5.37zm-10.45 -1.18c1.67,-0.58 1.65,-0.69 3.81,-0.33 4.26,0.7 5.03,3.34 5.48,5.79 0.63,3.43 -0.98,10.37 -8.31,10.59 -2.11,0.06 -2.62,-0.13 -3.94,-0.77 -1.77,-0.85 -2.52,-2.65 -2.52,-4.34 0,-2.94 1,-5.38 3.44,-7.91 0.61,-0.64 1.79,-1.31 2.38,-1.85 -0.45,-0.55 -0.58,-0.31 -0.34,-1.18zm-14.81 8.56c-2.05,-0.94 -2.72,-1.39 -3.13,-3.35 -0.69,-3.31 1.8,-5.97 5.84,-7.92 1.79,-0.86 3.59,-1.34 5.77,-1.93 1.18,-0.32 2.34,-0.53 3.22,0.29 0.57,0.53 0.82,1.48 -0.03,2.06 -1.21,0.83 -8.51,1.68 -9.86,5.22 -0.58,1.52 -0.43,3.96 2.69,2.57 1.35,-0.59 4.22,-1.94 5.38,-0.13 1.11,1.73 -1.74,2.53 -3.3,3.18 -2.52,1.05 -4.32,3.89 -4.34,6.03 -0.02,1.78 2.6,5.64 -0.56,6.28 -3.72,0.75 -3.24,-2.45 -3.44,-3.02 -2.09,-6.02 1.13,-6.96 1.76,-9.29zm-16.33 -11.22c-2.01,-0.73 -0.05,-2.43 0.92,-4.11 0.59,-1.02 0.96,-1.92 2.98,-1.72 2.05,0.2 0.11,2.42 -0.41,3.26 -0.76,1.22 -0.86,2.73 -3.49,2.57zm26.52 -6.13c0.38,0.28 0.8,0.51 1.16,0.74 0.37,0.24 0.74,0.54 1.13,0.77 0.62,0.37 2.33,1.4 0.52,1.73 -1.19,0.22 -2.04,-0.85 -2.68,-1.23l-2.53 -1.51c-0.18,0.64 0.94,2.35 -1.24,2.14 -1.12,-0.11 -1.07,-1.37 -1.35,-2.5 -0.46,-1.9 -2.17,-7.59 1.2,-8.66 3.39,-1.08 8.68,3.79 5.24,7.41 -0.51,0.54 -1.04,0.63 -1.46,1.11zm10.36 -3.51c-0.53,1.88 -2.39,1.89 -4.59,2.08 -0.01,0.93 0.24,1.68 0.62,2.33l0.75 -0.51c0.24,-0.24 0.2,-0.34 0.65,-0.48 0.46,-0.14 1.9,-0.21 1.83,0.26 -0.04,0.22 -1.15,1.63 -3.3,1.62 -4.07,-0.02 -3.22,-5.81 -2.57,-7.76 0.94,-2.83 4.89,-2.58 6.18,-0.46 0.42,0.7 0.7,2.03 0.45,2.93zm-27.23 -3.35c0.45,-1.59 0.27,-0.87 0.95,-1.51 2.01,0.26 1.33,0.5 1.8,2.39 0.1,0.41 0.12,0.68 0.21,1.07 0.24,1.06 0.89,2.71 1.53,3.59l2.74 -1.98c0.26,-0.04 3.07,-0.02 0.07,2.11 -2.88,2.05 -1.7,0.89 -0.63,2.93 0.43,0.81 -0.39,1.39 -1.84,1.07 -0.38,-0.16 -0.39,-1.06 -1.51,-1.73 -0.49,0.42 -1.82,0.89 -2.59,1.21 -1.53,0.63 -0.76,0.86 -2.36,1.52 -2.63,-0.7 -0.45,-0.72 0.73,-5.02 0.62,-2.24 0.62,-4.69 0.89,-5.63zm35.13 -1.39c3.25,1.73 -3.71,7.31 -4.17,8.14 2.47,0.09 7.51,-2.34 6.7,0.15 -0.99,0.38 -6,1.62 -7.75,1.24 -3.52,-0.77 0.34,-3.32 1.31,-4.41 0.6,-0.68 2.05,-2.33 2.1,-3.2 -2.02,0.8 -3.35,2.97 -4.84,2.78 -1.03,-0.13 -1.08,-0.79 -0.53,-1.27 0.74,-0.65 3.46,-2.54 4.77,-3.07 0.66,-0.27 1.54,-0.44 2.4,-0.37zm7.39 2.19c-1.31,-1.62 -4.65,-0.03 -5.45,-1.03 -0.95,-1.19 3.77,-1.28 5,-0.99 5.57,1.31 4.41,8.69 0.83,9.81 -2.9,0.91 -5.15,-1.32 -5.09,-3.19 0.1,-3.07 4.16,-4.2 4.7,-4.61zm8.53 8.4l-0.59 -0.55c0.2,-0.44 0.57,-0.57 0.91,-0.92l-0.59 -0.49c-0.53,-0.57 -0.73,-4.46 -0.68,-5.26 0.06,-0.87 -0.08,-2.52 1.03,-2.93 2.78,-1.04 8.39,2.23 6.15,6.32 -0.54,0.97 -1.21,1.73 -2.33,2.41 -0.99,0.6 -2.46,1.43 -3.89,1.42zm28.81 -6.27l0.45 0.04c-0.15,0.6 -0.87,1.34 -1.47,1.69l-0.15 -0.15c-0.01,-0.02 -0.05,-0.06 -0.07,-0.08 -0.27,-0.41 -0.27,-0.92 -0.27,-1.35 -0.01,-0.6 -0.04,-1.15 -0.02,-1.74 0.01,-0.34 1.43,-1.98 2.02,-3.24l0.96 0.37c-0.28,1.76 -0.98,2.78 -1.45,4.44zm0.82 -6.01l0.01 -0.24c-0.02,-0.47 0.12,-0.75 0.55,-0.99 0.64,0.18 0.69,0.29 0.67,0.82 -0.02,0.64 -0.09,0.86 -0.67,1.1 -0.6,-0.21 -0.47,-0.15 -0.56,-0.69zm-8.73 -0.47l-0.47 5.41c-0,0.66 0.29,1.1 -0.27,1.71 -1.12,-0.37 -1.21,-2.72 -1.06,-3.28 0.19,-0.71 0.57,-1.35 0.79,-2.12 0.21,-0.75 0.24,-1.49 0.48,-2.17l0.95 0.2c-0.26,0.11 -0.04,0.05 -0.41,0.25zm-8.2 -2.25l0.48 4.88c-2.31,-0.59 -0.5,-0.64 -0.84,-3.59 -0.07,-0.59 -0.4,-0.81 0.36,-1.29zm6.69 10.5l-0.26 -0.48c0.78,-0.27 -0.28,0.03 0.75,0.06 0.48,0.01 0.63,-0.1 0.9,-0.33 0.34,-0.28 0.8,-0.95 1.02,-1.32 0.8,-1.31 2.25,-5.1 2.68,-6.57 0.75,-2.57 0.15,-0.95 2.85,-0.84l-0.65 4.79c-0.01,0.44 0.05,1.01 -0.11,1.59 -0.49,-0.99 0.31,-4.69 0.32,-6.05 -0.9,0.21 -0.86,1.66 -1.12,2.71 -0.31,1.28 -0.76,7.16 -0.35,8.21 0.85,0 0.85,-0.01 1.41,-0.25 0.07,-0.51 -0.44,-1.05 0.09,-1.54 -0.01,0.48 0.12,0.68 0.82,0.86 0.85,-0.23 1.4,-1.07 1.79,-1.62 0.54,-0.76 0.92,-1.26 1.42,-2.05 0.66,-1.03 1.89,-3.44 2.69,-4.19 0.97,0.54 0.16,0.47 1.7,1.01l-0.48 1.04c-0.21,-0.7 0.55,-0.43 -0.4,-0.84 -0.51,0.38 -4.41,7.77 -5.59,8.7l-0.09 0.17c-0.79,1.51 -3.43,4.38 -3.41,5.1 1.48,0.24 2.66,0.21 3.48,-0.32 0.18,-1.08 -0.03,-2.18 0.46,-3.48 0.39,-1.03 0.94,-2.2 1.48,-3.2 0.03,1.39 -3.4,5.52 -0.62,8.15l-0.63 1.05c3.55,-0.1 2.99,0.64 3.03,2.32 0.01,0.54 0.15,1.29 0.2,1.91 0.12,1.5 1.32,8.86 0.11,9.5 -0,0 -4.39,1.15 -4.31,-1.07 0.11,-2.84 -0.11,-4.85 -0.47,-7.7 -0.12,-0.92 -0.53,-2.92 -0.3,-3.84 -0.22,0.16 -0.16,0.01 -0.26,0.36 -0.05,0.2 -0.02,0.2 0.02,0.41 -0.92,0.04 -0.33,-0.19 -0.74,0.18 0.53,1.73 1.23,4.29 -0.66,6.26 -2.26,2.35 -6.82,1.92 -8.18,2.27 0.08,1.3 0.68,3.52 1.62,4.33 0.38,-0.27 0.77,-0.63 1.04,-0.96 0.86,-1.08 0.79,-1.18 3.15,-1.21 0.39,-0 0.68,-0.03 1.08,0.02 1.02,0.11 1.02,0.32 1.02,0.32 -0.04,0.67 -2.26,2.86 -4.16,3.39 -0.77,0.22 -1.96,0.29 -2.71,0.27 -2.43,-0.06 -3.18,-0.48 -4.08,-1.5 -2.04,-2.31 -1.95,-6.93 -1.82,-9.56 0.11,-2.25 0.77,-4.24 2.03,-6.27 -1.4,-0.67 -0.45,-0.06 -1.05,-0.87 -0.84,1.02 -5.59,2.84 -7.48,3.48 -1.97,0.67 -1.09,1.23 -1.54,3.76 -0.32,1.81 -0.51,4.17 -0.32,5.91 0.11,0.99 0.69,4.49 1.83,4.92 1.71,-1.84 -0.13,-8.7 0.33,-9.95 1.68,-0.11 2.37,-0.45 4.38,0.14 0.66,0.88 0.77,5.85 0.73,7.27 -0.04,1.19 -0.68,3.02 -1.74,3.73 -1.05,0.71 -4,0.82 -5.67,0.5 -7.02,-1.33 -3.92,-13.18 -4.32,-13.48 -0,-0 -3.08,-0.05 -3.12,-1.17 -0.05,-1.35 3.64,-1.77 3.76,-2.8l0.15 -4.49c0.94,-0.07 3.93,-0.62 4.53,0.27 0.07,0.11 0.13,0.28 0.15,0.36 0.19,0.72 -0.05,1.89 0.15,2.3 1.2,-0.13 3.69,-1.48 4.55,-2.08 -0.17,-0.4 -0.72,-0.61 -1.14,-0.91 -0.31,-0.22 -0.89,-0.77 -1.07,-1.01 -0.41,-0.54 -0.98,-1.87 -0.06,-2.49 -0.59,-0.63 -0.82,-0.61 -1.16,-1.47 -0.26,-0.65 -0.34,-1.14 -0.1,-1.93 0.47,-1.5 1.58,-2.33 3,-3.19 -0.44,-0.55 -0.52,-0.54 -0.35,-1.2 1.23,0.1 0.6,0.13 0.88,-0.16 -2.42,-0.21 -3.49,0.35 -4.21,-0.25 -0.25,-0.23 -0.46,-0.41 -0.04,-0.77 0.62,-0.53 3.58,-0.46 4.23,-0.39 2.25,0.24 2.97,1.2 3.73,2.1 0.45,-0.39 0.64,-5.32 1.13,-6.46l2.26 0.22c-0.16,0.51 -0.82,0.27 -0.68,1.37 0.07,0.61 0.09,1 0.09,1.54 -0,1.08 0.04,1.97 0.07,3.1 0.02,0.67 -0.32,4.12 0.35,4.52 0.25,0.15 0.77,0.28 1.19,0.28 0.82,-0 0.68,-0.04 0.79,-0.5zm1.13 -11.2c0.69,-0.05 0.42,-0.1 1.05,0.06 0.13,0.45 -0.32,2.34 -1.18,1.34 -0.33,-0.39 -0.04,-0.9 0.13,-1.41zm-9.99 4.75l-1 0.05c-0.46,-0.45 -0.47,-1.66 -0.62,-2.58 -0.08,-0.49 -0.53,-2.32 -0.31,-2.76 0.81,-0.11 0.65,0.07 1.49,-0.13 -0.76,0.38 -0.8,0.49 -0.5,1.26 0.3,0.76 1.21,3.61 0.94,4.17zm26.07 -3.07c0.52,0.28 0.51,-0.15 0.68,0.41 -0.02,-0 -0.04,-0.03 -0.04,-0.02 -0.22,0.32 0.14,-0.13 -0.42,-0.03 0.05,0.58 -0.01,0.77 -0.25,1.33 -0.66,1.52 -0.05,-0.12 0.14,0.87 -0.54,0.25 -0.99,0.65 -1.82,0.15 -0.38,-0.23 -0.66,-0.86 -0.72,-1.28 -0.54,-3.7 3.56,-2.58 2.71,-1.64l-0.27 0.21zm-24.11 -1.55c-0.81,-0.61 -1,-1.18 -0.11,-1.93 0.97,0.19 0.77,0.41 0.71,0.87 -0.07,0.52 -0.18,0.83 -0.6,1.06zm5.92 -1.44c-0.29,1.03 -0.5,1.16 -1.47,1.68 -1.59,-0.19 -1.89,-0.9 -2.05,-1.73 -0.58,-3.02 2.66,-4.82 3.63,-1.78l0.14 0.55c0.01,0.19 0,0.47 -0.01,0.66 -0.04,0.63 -0.13,0.24 -0.24,0.62zm8.73 2.01c0.52,-0.33 0.45,-0.18 0.94,-0.71 0.28,0.38 -0.66,1.01 -1.09,1.24 -3.69,-0.39 -2.19,-5.41 0.01,-5.02 1.11,0.2 1.36,1.03 1.55,1.67 -0.04,-0.03 -0.07,-0.1 -0.1,-0.08 -0.05,0.04 -0.05,-0.16 -0.68,-0.41 0.64,1.91 -0.13,2.05 -0.63,3.31zm-17.31 -6.02c0.97,0.44 0.23,0.4 0.82,0.95 -1.01,0.41 0.19,-0.14 -0.66,-0.11 0.28,0.6 0.31,0.83 0.2,1.42 -0.08,0.39 0.01,0.29 -0.25,0.72 -0.03,0.04 -0.22,0.36 -0.22,0.37 -0.05,0.34 -0.09,0.17 0.12,0.41 0.51,-0.56 0.61,-0.93 0.83,-1.71 0.5,2.29 -3.63,3.31 -3.22,-0.21 0.15,-1.33 1.35,-2.62 2.38,-1.84zm29.8 7.4l-0.09 -0.19c-0.01,-0.03 -0.03,-0.06 -0.04,-0.1 -0,-0.01 -0.08,-0.27 -0.09,-0.3 -0.29,-1.04 -0.73,-2.64 -2.33,-3.28 -2.67,-1.06 -3.94,1.15 -4.78,2.35 -0.95,-0.69 -1.36,-0.68 -1.5,-0.94 -0.06,-0.11 0.09,-1.93 -0.37,-3.13 -1.11,-2.9 -4.15,-3.63 -6.06,-1.8 -1.12,1.06 -1.28,1.79 -1.67,3.17 -2.46,-0.69 -1.7,-0.5 -2.08,-1.79 -0.28,-0.97 -0.93,-2.3 -2.35,-2.96 -1.17,-0.53 -2.59,-0.29 -3.45,0.37 -1,0.77 -1.15,1.16 -1.73,2.21 -0.36,-0.31 -0.51,-1.34 -0.93,-1.94 -0.55,-0.79 -1.06,-0.96 -1.68,-1.61 -0.6,-0.05 -2.44,-0.71 -3.93,1.06 -1.44,1.71 -1.7,4.64 -0.52,6.29 0.46,0.64 0.36,0.73 0.5,1.45 0.1,0.49 0.36,1.07 0.19,1.6 -0.46,0.13 -0.74,0.17 -1.17,0.35 -0.57,0.24 -0.47,0.32 -0.96,0.6 -0.61,-0.1 -4.02,-1.5 -6.01,0.04 -1.62,1.26 -1.56,2.54 -1.68,4.3 -0.13,-0.13 -0.09,-0.09 -0.2,-0.28 -0.39,-0.66 -0.18,-0.9 -1.05,-2.07 -1.67,-2.26 -3.7,-3.2 -8.16,-2.82 -1.05,0.09 -1.34,0.24 -1.99,0.35 -1.67,-0.77 -3.25,-0.57 -5.13,0.32l-3.1 1.76c-0.73,-1.03 -1.41,-2.01 -4.01,-2.31 -2.44,-0.28 -3.81,0.78 -4.78,1.78 -0.38,-0.22 -3.5,-3.51 -7.2,-2.16 -2.12,0.78 -3.62,3.48 -3.44,5.29 -0.91,-0.12 -1.23,-0.32 -2.1,-0.1 -0.85,0.21 -0.82,0.47 -1.52,0.63 -0.47,-1.31 -0.36,-2.82 -1.01,-4.09 -0.65,-1.25 -2.85,-2.34 -4.86,-1.06 -2.23,1.41 -1.32,5.96 -2.58,9.12 -0.49,-0.11 -1.65,-1.69 -4.19,-0.99 -1.62,0.45 -2.39,1.24 -3.02,2.44 -0.84,1.6 -2.31,3.16 -2.4,4.97 -0.03,0.68 0.33,1.14 0.34,1.59 0.01,0.33 -0.79,0.69 -1.26,1.1 -2.47,2.15 -2.85,6.3 -2.86,8.89 -0,1.24 0.18,2.3 0.25,3.43 0.15,2.25 1.35,6.89 4.09,8.79 1.17,0.81 2.14,1.46 4.89,1.13 1.19,-0.14 3.49,-0.82 4.25,-1.29 2.91,-1.8 6.92,-7.19 3.19,-8.75 0.3,-0.71 0.76,-1.32 1.11,-2.02 0.44,-0.88 0.29,-1.42 0.59,-2.14 0.07,0.45 0.71,1.13 1.02,1.55 1.38,1.83 -2,2.77 -0.4,8.5 0.16,0.56 0.54,1.47 0.58,1.94 0.11,1.4 -0.07,2.21 1.85,3.58 1.65,1.18 4.33,0.74 5.63,-0.15 1.42,-0.97 1.67,-2.61 1.62,-3.96 -0.07,-1.92 -0.78,-2.73 -0.97,-3.87 -0.22,-1.27 1.57,-3.18 2.71,-3.69 -0.09,2.66 1.5,6.31 6.27,7.34 2.68,0.58 5.39,-0.12 7.08,-0.97 1.95,-0.98 3.05,-2.29 4,-3.74 1.11,1.79 0.2,6.04 4.11,6.76 0.7,0.13 2.05,0.14 2.7,-0.02 1.89,-0.48 2.23,-1.34 2.68,-1.85 0.33,-0.37 0.02,-0.17 0.45,-0.36 1.31,0.75 3.85,2.99 5.41,3.34 2.08,0.47 4.04,-0.24 5.02,-1.43 0.23,-0.29 0.26,-0.34 0.43,-0.64l0.36 -0.5c2,1.18 4.47,1.75 7.66,1.28 1.2,-0.18 2.28,-0.63 2.95,-1.22 0.41,-0.35 0.71,-0.69 0.96,-1.08 0.34,-0.51 0.32,-0.89 1.01,-1.21 1.26,2.31 7.26,2.51 10.18,0.85 0.99,-0.56 1.5,-1.17 2.4,-1.75 0.2,1.09 -0.38,4.25 4.07,4.74 3.92,0.43 5.92,-2.87 4.74,-5.46 -0.51,-1.12 0.23,-1.12 0.31,-2.19 0.22,-2.96 -0.03,-6.55 -0.55,-9.46 -0.33,-1.84 0.12,-4.69 -1.46,-5.84 -1.32,-0.95 -2.54,-0.46 -2.25,-2.26 0.41,-2.48 3.36,-7.22 5.01,-9.44 0.38,-0.51 0.58,-0.98 0.96,-1.38 1.22,-1.3 1.46,-1.01 1.98,-2.89 0.17,-0.61 0.14,-1.31 0.36,-1.78z"/>
   <path class="fil1" d="M54.13 41.06c0.1,-1.02 -2.83,-9.8 0.56,-12.3 2.22,0.39 4.07,3.04 4.76,4.3 0.4,0.74 0.45,1.11 0.57,1.83 0.74,4.25 -3.81,6.54 -5.89,6.18zm-5.59 -9.75c-0.53,1.88 -0.18,3.75 0,5.37 0.18,1.63 0.58,3.21 1,4.78 0.39,1.5 0.84,3.18 1.19,4.8 0.19,0.86 0.19,1.6 1.63,1.89 1.23,0.25 2.98,-0.3 3.13,-0.83 0.33,-1.18 -0.72,-2.67 -0.33,-3.38l6.74 4.33c0.46,0.37 0.59,0.62 1.32,0.89 1.48,0.56 3.25,-0.06 3.48,-0.88 0.41,-1.45 -4.39,-3.7 -6.46,-5.23 -0.39,-0.29 -0.12,-0.04 -0.33,-0.28 0.53,-0.78 3.75,-1.34 4.8,-5.74 0.95,-3.95 -2.93,-9.49 -7.95,-10.83 -0.81,-0.22 -1.83,-0.22 -2.75,-0.18 -4.25,0.19 -4.93,3.38 -5.48,5.31z"/>
   <path class="fil1" d="M81.8 28.12c0.15,-0.66 0.03,-1 -0.92,-1.3 -0.99,-0.32 -1.88,-0.2 -2.72,-0.03 -0.85,0.59 -3.35,1.94 -4.55,2.08 -0.21,-0.41 0.03,-1.58 -0.15,-2.3 -0.02,-0.08 -0.08,-0.25 -0.15,-0.36 -0.6,-0.88 -3.59,-0.34 -4.53,-0.27l-0.15 4.49c-0.12,1.03 -3.81,1.45 -3.76,2.8 0.04,1.12 3.12,1.17 3.12,1.17 0.4,0.3 -2.7,12.15 4.32,13.48 1.67,0.32 4.63,0.2 5.67,-0.5 1.06,-0.72 1.71,-2.54 1.74,-3.73 0.04,-1.42 -0.07,-6.39 -0.73,-7.27 -2.01,-0.59 -2.7,-0.25 -4.38,-0.14 -0.46,1.25 1.38,8.11 -0.33,9.95 -1.15,-0.42 -1.72,-3.93 -1.83,-4.92 -0.19,-1.74 0,-4.1 0.32,-5.91 0.45,-2.53 -0.43,-3.09 1.54,-3.76 1.89,-0.64 6.65,-2.46 7.48,-3.48z"/>
   <path class="fil1" d="M7.99 31.41c2.53,0.8 5.58,7.07 1.48,9.83 -0.81,0.55 -0.81,0.46 -1.95,0.75 -0.55,-1 -0.67,-3.7 -0.71,-5 -0.05,-1.9 0.46,-3.71 1.18,-5.58zm2.02 15.6c-0.96,-0.44 -1.58,-2.11 -1.92,-2.86 -0.77,-1.76 -0,-1.14 2.5,-1.98 5.66,-1.89 6.51,-5.16 4.86,-8.66 -1.33,-2.82 -3.82,-5.28 -9.21,-3.3l-1.47 0.7c-4.16,2.49 -2.93,13.69 0.4,17.18 1.85,1.94 6.73,0.77 8.57,-1.11 0.86,-0.88 1.87,-1.99 2.19,-3.07 -1.48,-0.3 -3.28,0.23 -4.07,0.63 -0.85,0.43 -1.34,1.79 -1.85,2.47z"/>
   <path class="fil1" d="M87.02 29.96c0.13,-0.41 0.3,-0.75 0.76,-1.09 0.73,0.37 1.08,0.93 1.36,1.49 0.34,0.87 0.71,1.38 0.94,2.33 0.51,2.13 0.18,6.79 -4.36,6.36 -0.94,-1.21 0.35,-7.22 1.3,-9.09zm0.65 -2.79l-1.65 0.05c-0.04,0.02 -0.1,0.05 -0.14,0.06 -0.03,0.01 -0.1,0.04 -0.13,0.06 -1.72,0.64 -1.37,0.22 -2.89,1.66 -1.26,2.03 -1.92,4.02 -2.03,6.27 -0.12,2.63 -0.22,7.25 1.82,9.56 0.9,1.02 1.65,1.44 4.08,1.5 0.75,0.02 1.95,-0.05 2.71,-0.27 1.9,-0.53 4.12,-2.72 4.16,-3.39 -0,-0 0.01,-0.21 -1.02,-0.32 -0.41,-0.05 -0.69,-0.02 -1.08,-0.02 -2.36,0.03 -2.29,0.13 -3.15,1.21 -0.27,0.34 -0.65,0.69 -1.04,0.96 -0.94,-0.81 -1.54,-3.04 -1.62,-4.33 1.36,-0.35 5.92,0.08 8.18,-2.27 1.89,-1.96 1.19,-4.53 0.66,-6.26 -0.35,-0.58 -0.4,-1.01 -0.83,-1.62 -0.3,-0.42 -0.74,-1.01 -1.14,-1.39 -1.04,-0.98 -2.62,-1.41 -4.88,-1.45z"/>
   <path class="fil1" d="M23.28 38.7c-0.63,2.33 -3.85,3.27 -1.76,9.29 0.2,0.57 -0.28,3.78 3.44,3.02 3.16,-0.64 0.54,-4.5 0.56,-6.28 0.02,-2.14 1.82,-4.97 4.34,-6.03 1.56,-0.65 4.4,-1.45 3.3,-3.18 -1.16,-1.81 -4.03,-0.47 -5.38,0.13 -3.13,1.38 -3.27,-1.05 -2.69,-2.57 1.35,-3.54 8.65,-4.39 9.86,-5.22 0.85,-0.58 0.61,-1.53 0.03,-2.06 -0.89,-0.82 -2.05,-0.61 -3.22,-0.29 -2.18,0.59 -3.98,1.07 -5.77,1.93 -4.03,1.94 -6.53,4.6 -5.84,7.92 0.41,1.96 1.08,2.41 3.13,3.35z"/>
   <path class="fil1" d="M38.86 44.15c-3.13,-1.64 -1.22,-8.72 2.75,-11.15 1.3,1.04 1.16,4.05 0.99,5.68 -0.19,1.78 -1.65,5.08 -3.73,5.47zm-0.43 -12.84c-0.58,0.54 -1.76,1.21 -2.38,1.85 -2.45,2.53 -3.44,4.97 -3.44,7.91 -0,1.69 0.76,3.49 2.52,4.34 1.32,0.64 1.83,0.84 3.94,0.77 7.33,-0.22 8.94,-7.16 8.31,-10.59 -0.45,-2.45 -1.22,-5.09 -5.48,-5.79 -2.17,-0.36 -2.14,-0.25 -3.81,0.33 -0.25,0.87 -0.12,0.62 0.34,1.18z"/>
   <path class="fil1" d="M97.22 29.56c-0.98,0.15 -1.97,0.28 -1.73,1.12 -0.23,0.92 0.18,2.92 0.3,3.84 0.36,2.85 0.57,4.86 0.47,7.7 -0.08,2.23 4.3,1.07 4.31,1.07 1.21,-0.64 0.01,-8 -0.11,-9.5 -0.05,-0.63 -0.19,-1.38 -0.2,-1.91 -0.04,-1.68 0.52,-2.41 -3.03,-2.32z"/>
   <path class="fil0" d="M54.13 41.06c2.08,0.36 6.63,-1.93 5.89,-6.18 -0.13,-0.72 -0.17,-1.09 -0.57,-1.83 -0.69,-1.26 -2.54,-3.91 -4.76,-4.3 -3.39,2.51 -0.46,11.28 -0.56,12.3z"/>
   <path class="fil1" d="M18.22 19.83c0.31,0.15 1.89,1.55 -0.53,1.89l0.53 -1.89zm5.69 0.33c3,-2.13 0.18,-2.15 -0.07,-2.11l-2.74 1.98c-0.64,-0.88 -1.29,-2.53 -1.53,-3.59 -0.09,-0.39 -0.11,-0.66 -0.21,-1.07 -0.46,-1.89 0.21,-2.13 -1.8,-2.39 -0.68,0.64 -0.5,-0.08 -0.95,1.51 -0.27,0.95 -0.28,3.39 -0.89,5.63 -1.18,4.3 -3.36,4.31 -0.73,5.02 1.61,-0.65 0.84,-0.88 2.36,-1.52 0.77,-0.32 2.1,-0.78 2.59,-1.21 1.12,0.67 1.13,1.57 1.51,1.73 1.45,0.33 2.27,-0.26 1.84,-1.07 -1.07,-2.03 -2.25,-0.88 0.63,-2.93z"/>
   <path class="fil1" d="M30.61 20.45c-0.27,-0.43 -0.59,-2.44 -0.63,-3.14 -0.07,-1.34 -0.15,-2.28 0.92,-3.33 0.2,0.13 0.82,0.42 1.09,0.6 2.12,1.39 2.66,5.88 -1.38,5.88zm2.86 0.9c0.41,-0.48 0.95,-0.57 1.46,-1.11 3.44,-3.63 -1.84,-8.49 -5.24,-7.41 -3.38,1.07 -1.66,6.76 -1.2,8.66 0.27,1.13 0.23,2.39 1.35,2.5 2.18,0.21 1.07,-1.5 1.24,-2.14l2.53 1.51c0.64,0.38 1.48,1.45 2.68,1.23 1.81,-0.34 0.1,-1.36 -0.52,-1.73 -0.39,-0.23 -0.76,-0.53 -1.13,-0.77 -0.36,-0.24 -0.78,-0.46 -1.16,-0.74z"/>
   <path class="fil1" d="M58.45 21.88c-1.76,-0.24 -1.86,-1.85 -1.49,-2.68 0.53,-1.22 1.37,-2.01 2.79,-2.46 1,0.96 0.15,4.39 -1.29,5.14zm0.67 -6.58c-0.54,0.42 -4.6,1.54 -4.7,4.61 -0.06,1.86 2.19,4.09 5.09,3.19 3.59,-1.12 4.75,-8.51 -0.83,-9.81 -1.23,-0.29 -5.95,-0.2 -5,0.99 0.8,1 4.13,-0.6 5.45,1.03z"/>
   <path class="fil1" d="M78.34 17.36c0.49,-0.43 0.62,-0.65 1.59,-0.76 0.2,0.32 0.24,0.93 0.32,1.37 0.14,1.54 -0.56,2.75 -1.7,3.82 -2.84,-0.57 -1.73,-3.6 -0.21,-4.44zm-0.2 -2.93c0.33,0.02 0.32,-0.04 0.18,0.12 0.81,0.22 0.84,0.27 0.83,0.77l-0.68 0.13 -0.86 0.35c-1.42,0.86 -2.53,1.68 -3,3.19 -0.25,0.79 -0.16,1.28 0.1,1.93 0.35,0.86 0.57,0.83 1.16,1.47 0.47,0.37 1.4,0.67 2.47,0.76l0.77 -0.09c2.14,-0.62 2.91,-2.13 3.23,-3.52 0.18,-0.76 0.17,-1.59 0.11,-2.34 -0.06,-0.73 -0.5,-1.35 -0.61,-2.06 -0.76,-0.9 -1.48,-1.86 -3.73,-2.1 -0.66,-0.07 -3.62,-0.13 -4.23,0.39 -0.42,0.36 -0.21,0.53 0.04,0.77 0.71,0.6 1.79,0.04 4.21,0.25z"/>
   <path class="fil1" d="M69.25 14.79c3.7,1.03 3.46,5.27 0.43,6.58 -0.55,-0.57 -0.48,-2.37 -0.52,-3.19l0.09 -3.39zm-1.6 8.9c1.43,0.01 2.9,-0.82 3.89,-1.42 1.12,-0.68 1.8,-1.43 2.33,-2.41 2.24,-4.08 -3.37,-7.36 -6.15,-6.32 -1.1,0.41 -0.96,2.06 -1.03,2.93 -0.06,0.8 0.14,4.69 0.68,5.26l0.59 0.49c-0.34,0.35 -0.71,0.48 -0.91,0.92l0.59 0.55z"/>
   <path class="fil1" d="M51.73 13.11c-0.85,-0.06 -1.74,0.11 -2.4,0.37 -1.31,0.53 -4.03,2.42 -4.77,3.07 -0.55,0.48 -0.51,1.14 0.53,1.27 1.48,0.19 2.82,-1.98 4.84,-2.78 -0.05,0.87 -1.49,2.52 -2.1,3.2 -0.96,1.08 -4.83,3.63 -1.31,4.41 1.75,0.38 6.76,-0.86 7.75,-1.24 0.8,-2.49 -4.24,-0.06 -6.7,-0.15 0.46,-0.83 7.42,-6.41 4.17,-8.14z"/>
   <path class="fil0" d="M38.86 44.15c2.08,-0.39 3.55,-3.69 3.73,-5.47 0.17,-1.63 0.31,-4.64 -0.99,-5.68 -3.96,2.44 -5.88,9.51 -2.75,11.15z"/>
   <path class="fil1" d="M39.01 19.5c0.36,-2.07 -0.38,-3.22 1.24,-5.36 0.96,0.47 2.09,3.26 0.85,4.65 -0.45,0.51 -0.97,0.76 -2.09,0.71zm4.81 -1.65c0.25,-0.9 -0.02,-2.23 -0.45,-2.93 -1.29,-2.12 -5.24,-2.37 -6.18,0.46 -0.65,1.95 -1.5,7.74 2.57,7.76 2.16,0.01 3.27,-1.4 3.3,-1.62 0.07,-0.47 -1.37,-0.4 -1.83,-0.26 -0.45,0.14 -0.41,0.24 -0.65,0.48l-0.75 0.51c-0.38,-0.65 -0.63,-1.4 -0.62,-2.33 2.19,-0.19 4.05,-0.19 4.59,-2.08z"/>
   <path class="fil0" d="M7.99 31.41c-0.71,1.87 -1.23,3.68 -1.18,5.58 0.04,1.3 0.16,3.99 0.71,5 1.14,-0.28 1.14,-0.2 1.95,-0.75 4.09,-2.76 1.05,-9.03 -1.48,-9.83z"/>
   <path class="fil0" d="M89.14 30.36l-0.04 0.8 -2.09 -0.53c0.09,-0.38 0.2,-0.41 0.01,-0.67 -0.95,1.88 -2.24,7.89 -1.3,9.09 4.54,0.43 4.87,-4.23 4.36,-6.36 -0.23,-0.96 -0.6,-1.46 -0.94,-2.33z"/>
   <path class="fil2" d="M84.2 26.3l-0.5 -0.13c-0.86,-0.52 -2.15,-0.88 -3.04,-1.43 -0.44,-0.27 -0.83,-0.45 -1.33,-0.79 -0.73,-0.51 -0.26,-0.47 -1.67,-0.65 0.32,-0.12 -0.23,-0.09 0.7,-0.17 -1.06,-0.08 -2,-0.39 -2.47,-0.76 -0.92,0.63 -0.35,1.95 0.06,2.49 0.19,0.24 0.76,0.79 1.07,1.01 0.42,0.3 0.97,0.52 1.14,0.91 0.84,-0.18 1.73,-0.29 2.72,0.03 0.95,0.3 1.07,0.64 0.92,1.3 0.61,0.81 -0.35,0.2 1.05,0.87 1.52,-1.45 1.17,-1.03 2.89,-1.66 0.04,-0.01 0.1,-0.04 0.13,-0.06 0.03,-0.01 0.09,-0.04 0.14,-0.06 -0.24,-0.49 0.54,-0.16 -0.63,-0.52 -0.54,-0.17 -0.81,-0.23 -1.18,-0.4zm12.25 -4.03l0.09 -0.17c1.18,-0.93 5.08,-8.32 5.59,-8.7 0.95,0.41 0.19,0.14 0.4,0.84l0.48 -1.04c-1.55,-0.53 -0.74,-0.46 -1.7,-1.01 -0.8,0.75 -2.03,3.16 -2.69,4.19 -0.51,0.79 -0.89,1.29 -1.42,2.05 -0.39,0.55 -0.94,1.38 -1.79,1.62 -0.7,-0.19 -0.82,-0.39 -0.82,-0.86 -0.53,0.49 -0.02,1.03 -0.09,1.54 -0.55,0.24 -0.55,0.25 -1.4,0.25 -0.4,-1.05 0.05,-6.94 0.35,-8.21 0.25,-1.05 0.22,-2.5 1.12,-2.71 -0.01,1.36 -0.81,5.06 -0.32,6.05 0.16,-0.58 0.1,-1.15 0.11,-1.59l0.65 -4.79c-2.7,-0.11 -2.1,-1.72 -2.85,0.84 -0.43,1.48 -1.88,5.26 -2.68,6.57 -0.22,0.37 -0.69,1.03 -1.02,1.32 -0.27,0.23 -0.42,0.34 -0.9,0.33 -1.03,-0.03 0.03,-0.33 -0.75,-0.06l0.26 0.48c1.14,-0.37 1.37,-0.21 1.16,0.67 -1.09,-0.45 -0.53,0.27 -1.16,-0.67 -0.11,0.46 0.03,0.5 -0.79,0.5 -0.41,0 -0.93,-0.13 -1.19,-0.28 -0.68,-0.39 -0.33,-3.85 -0.35,-4.52 -0.03,-1.13 -0.08,-2.03 -0.07,-3.1 0,-0.54 -0.01,-0.93 -0.09,-1.54 -0.13,-1.1 0.53,-0.86 0.68,-1.37l-2.26 -0.22c-0.48,1.14 -0.68,6.07 -1.13,6.46 0.11,0.7 0.55,1.33 0.61,2.06 0.06,0.75 0.06,1.58 -0.11,2.34 -0.32,1.39 -1.09,2.9 -3.23,3.52 1.46,0.81 1.19,1.14 3.83,2.28 3.05,1.32 3.41,1.06 4.63,1.43 0.84,0.25 0.32,-0.1 0.58,0.36l-0.49 0.05c2.26,0.04 3.84,0.47 4.88,1.45 0.4,0.38 0.84,0.97 1.14,1.39 0.43,0.61 0.49,1.05 0.83,1.62 0.41,-0.37 -0.19,-0.14 0.74,-0.18 -0.04,-0.21 -0.08,-0.21 -0.02,-0.41 0.09,-0.35 0.03,-0.19 0.26,-0.36 -0.24,-0.84 0.76,-0.97 1.73,-1.12l0.63 -1.05c-2.79,-2.63 0.65,-6.76 0.62,-8.15 -0.54,1.01 -1.1,2.18 -1.48,3.2 -0.49,1.3 -0.28,2.4 -0.46,3.48 -0.83,0.53 -2,0.56 -3.48,0.32 -0.02,-0.72 2.62,-3.59 3.41,-5.1z"/>
   <path class="fil1" d="M6.95 27.48c2.62,0.16 2.73,-1.35 3.49,-2.57 0.52,-0.84 2.46,-3.06 0.41,-3.26 -2.02,-0.19 -2.39,0.7 -2.98,1.72 -0.97,1.68 -2.93,3.38 -0.92,4.11z"/>
   <path class="fil0" d="M30.61 20.45c4.04,0.01 3.49,-4.49 1.38,-5.88 -0.26,-0.17 -0.88,-0.46 -1.09,-0.6 -1.07,1.05 -0.99,1.99 -0.92,3.33 0.04,0.7 0.36,2.71 0.63,3.14z"/>
   <path class="fil3" d="M86.06 6.7c0.11,-0.39 0.19,0 0.24,-0.62 0.01,-0.19 0.02,-0.47 0.01,-0.66l-0.14 -0.55c-0.97,-3.03 -4.21,-1.23 -3.63,1.78 0.16,0.83 0.46,1.54 2.05,1.73 0.96,-0.53 1.17,-0.65 1.47,-1.68z"/>
   <path class="fil0" d="M69.68 21.38c3.03,-1.31 3.26,-5.56 -0.43,-6.58l-0.09 3.39c0.05,0.83 -0.03,2.62 0.52,3.19z"/>
   <path class="fil4" d="M94.18 4.88c-0.22,-0.28 -0.65,-0.62 0.53,-0.51 0.04,0 0.35,0.13 0.49,0.2 -0.51,0.13 -0.6,0.13 -1.02,0.31zm0.61 3.82c0.5,-1.27 1.27,-1.4 0.63,-3.31 0.63,0.24 0.63,0.44 0.68,0.41 0.03,-0.02 0.07,0.06 0.1,0.08 -0.18,-0.64 -0.43,-1.47 -1.55,-1.67 -2.2,-0.39 -3.7,4.63 -0.01,5.02 0.43,-0.23 1.37,-0.86 1.09,-1.24 -0.49,0.53 -0.42,0.38 -0.94,0.71z"/>
   <path class="fil0" d="M58.45 21.88c1.45,-0.75 2.3,-4.18 1.29,-5.14 -1.41,0.44 -2.25,1.24 -2.79,2.46 -0.37,0.83 -0.27,2.44 1.49,2.68z"/>
   <path class="fil2" d="M77.48 2.69c-0.26,0.21 -0.21,0.21 -0.47,0.42l-0.31 -0.36 0.78 -0.07zm0 0c-1.04,-0.79 -2.23,0.5 -2.38,1.84 -0.41,3.53 3.72,2.5 3.22,0.21 -0.22,0.78 -0.32,1.15 -0.83,1.71 -0.21,-0.24 -0.18,-0.07 -0.12,-0.41 0,-0.01 0.19,-0.32 0.22,-0.37 0.26,-0.43 0.17,-0.33 0.25,-0.72 0.12,-0.59 0.08,-0.82 -0.2,-1.42 0.86,-0.03 -0.35,0.52 0.66,0.11 -0.59,-0.55 0.15,-0.52 -0.82,-0.95z"/>
   <path class="fil0" d="M39.01 19.5c1.12,0.05 1.63,-0.2 2.09,-0.71 1.25,-1.39 0.11,-4.18 -0.85,-4.65 -1.62,2.14 -0.88,3.29 -1.24,5.36z"/>
   <path class="fil5" d="M96.46 17.43c0.47,-1.67 1.17,-2.68 1.45,-4.44l-0.96 -0.37c-0.59,1.25 -2.01,2.89 -2.02,3.24 -0.02,0.59 0.01,1.14 0.02,1.74 0.01,0.42 -0,0.93 0.27,1.35 0.01,0.02 0.05,0.06 0.07,0.08l0.15 0.15c0.6,-0.36 1.32,-1.09 1.47,-1.69l-0.45 -0.04z"/>
   <path class="fil1" d="M100.58 47.75c1.78,-1.24 -1.45,-3.14 -3.75,-1.69 -1.06,0.67 -0.41,1.63 0.51,1.97 1.21,0.44 2.57,0.19 3.24,-0.27z"/>
   <path class="fil3" d="M78.34 17.36c-1.51,0.84 -2.63,3.87 0.21,4.44 1.14,-1.07 1.84,-2.28 1.7,-3.82l-0.14 0.63c-0.84,-0.1 -0.9,0.12 -1.12,-0.35 -0.1,-0.21 -0.06,-0.64 -0.07,-0.9l-0.58 0z"/>
   <path class="fil4" d="M103.38 11.32c0.73,0.61 0.02,0.69 0.01,0.71 -0.24,-0.26 -0.5,-0.33 -0.01,-0.71zm1.14 -1.84c0.84,-0.94 -3.25,-2.05 -2.71,1.64 0.06,0.42 0.34,1.05 0.72,1.28 0.83,0.51 1.29,0.1 1.82,-0.15 -0.2,-0.99 -0.8,0.64 -0.14,-0.87 0.24,-0.56 0.31,-0.75 0.25,-1.33 0.57,-0.1 0.2,0.35 0.42,0.03 0.01,-0.01 0.03,0.02 0.04,0.02 -0.17,-0.55 -0.16,-0.13 -0.68,-0.41l0.27 -0.21z"/>
   <path class="fil2" d="M88.56 10.95c0.38,-0.2 0.15,-0.14 0.41,-0.25l-0.95 -0.2c-0.24,0.68 -0.26,1.42 -0.48,2.17 -0.22,0.77 -0.59,1.41 -0.79,2.12 -0.15,0.56 -0.06,2.91 1.06,3.28 0.57,-0.61 0.27,-1.05 0.27,-1.71l0.47 -5.41z"/>
   <path class="fil6" d="M78.18 12.75c0.27,-0.55 -0.64,-3.41 -0.94,-4.17 -0.3,-0.76 -0.26,-0.88 0.5,-1.26 -0.84,0.2 -0.68,0.01 -1.49,0.13 -0.22,0.44 0.22,2.28 0.31,2.76 0.16,0.92 0.16,2.12 0.62,2.58l1 -0.05z"/>
   <path class="fil0" d="M78.35 23.13c-0.93,0.08 -0.37,0.05 -0.7,0.17 1.41,0.18 0.94,0.14 1.67,0.65 0.5,0.35 0.89,0.53 1.33,0.79 0.9,0.55 2.18,0.91 3.04,1.43l0.5 0.13c0.37,0.17 0.64,0.23 1.18,0.4 1.17,0.35 0.39,0.02 0.63,0.52l1.65 -0.05 0.49 -0.05c-0.26,-0.47 0.26,-0.11 -0.58,-0.36 -1.22,-0.37 -1.59,-0.11 -4.63,-1.43 -2.63,-1.14 -2.37,-1.47 -3.83,-2.28l-0.77 0.09z"/>
   <path class="fil6" d="M80.36 8.7c-0.76,0.48 -0.43,0.7 -0.36,1.29 0.34,2.95 -1.46,3.01 0.84,3.59l-0.48 -4.88z"/>
   <path class="fil2" d="M87.02 29.96c0.19,0.26 0.08,0.29 -0.01,0.67l2.09 0.53 0.04 -0.8c-0.27,-0.56 -0.63,-1.11 -1.36,-1.49 -0.46,0.34 -0.64,0.67 -0.76,1.09z"/>
   <path class="fil0" d="M78.34 17.36l0.58 -0c0.01,0.25 -0.03,0.69 0.07,0.9 0.22,0.47 0.29,0.25 1.12,0.35l0.14 -0.63c-0.08,-0.44 -0.11,-1.05 -0.32,-1.37 -0.97,0.11 -1.1,0.33 -1.59,0.76z"/>
   <path class="fil7" d="M88.18 8c-0.17,0.5 -0.46,1.02 -0.13,1.41 0.86,1 1.32,-0.89 1.18,-1.34 -0.64,-0.16 -0.36,-0.12 -1.05,-0.06z"/>
   <path class="fil8" d="M80.14 8.14c0.42,-0.23 0.53,-0.54 0.6,-1.06 0.06,-0.46 0.26,-0.68 -0.71,-0.87 -0.89,0.75 -0.69,1.32 0.11,1.93z"/>
   <path class="fil5" d="M97.3 11.17l0.46 -0.2 0.38 0.63c-0.33,-0.13 0.07,-0.04 -0.46,-0.17 -0.36,-0.09 -0.01,-0.08 -0.39,-0.01 0.09,0.54 -0.03,0.47 0.56,0.69 0.57,-0.24 0.64,-0.46 0.67,-1.1 0.02,-0.53 -0.03,-0.64 -0.67,-0.82 -0.43,0.25 -0.57,0.52 -0.55,0.99z"/>
   <path class="fil0" d="M17.69 21.72c2.42,-0.34 0.84,-1.74 0.53,-1.89l-0.53 1.89z"/>
   <path class="fil2" d="M77.62 15.79l0.86 -0.35c-0.01,-0.02 -0.02,-0.05 -0.02,-0.06 0.1,-1.07 0.06,-0.11 -0.13,-0.84 0.14,-0.16 0.15,-0.1 -0.18,-0.12 -0.28,0.29 0.35,0.27 -0.88,0.16 -0.17,0.66 -0.09,0.65 0.35,1.2z"/>
   <path class="fil9" d="M78.48 15.45l0.68 -0.13c0.01,-0.5 -0.03,-0.55 -0.83,-0.77 0.2,0.73 0.23,-0.23 0.13,0.84 -0,0.01 0.01,0.04 0.02,0.06z"/>
   <path class="fil10" d="M94.18 4.88c0.41,-0.19 0.51,-0.18 1.02,-0.31 -0.14,-0.06 -0.45,-0.19 -0.49,-0.2 -1.17,-0.11 -0.74,0.23 -0.53,0.51z"/>
   <path class="fil10" d="M82.9 10.77c0.03,0.15 -0.4,0.19 0.35,0.35 0.85,0.18 0.52,-0.56 -0.35,-0.35z"/>
   <path class="fil10" d="M103.39 12.02c0.02,-0.01 0.73,-0.09 -0.01,-0.71 -0.5,0.38 -0.23,0.44 0.01,0.71z"/>
   <path class="fil11" d="M97.3 11.17l-0.01 0.24c0.38,-0.07 0.02,-0.08 0.39,0.01 0.53,0.13 0.13,0.04 0.46,0.17l-0.38 -0.63 -0.46 0.2z"/>
   <path class="fil12" d="M77.48 2.69l-0.78 0.07 0.31 0.36c0.25,-0.22 0.21,-0.22 0.47,-0.42z"/>
  </g>
 </g>
</svg>
