<?xml version="1.0" encoding="UTF-8"?>
<!DOCTYPE svg PUBLIC "-//W3C//DTD SVG 1.1//EN" "http://www.w3.org/Graphics/SVG/1.1/DTD/svg11.dtd">
<!-- Creator: CorelDRAW -->
<svg xmlns="http://www.w3.org/2000/svg" xml:space="preserve" width="66.1069mm" height="27.9936mm" version="1.1" style="shape-rendering:geometricPrecision; text-rendering:geometricPrecision; image-rendering:optimizeQuality; fill-rule:evenodd; clip-rule:evenodd"
viewBox="0 0 165.33 70.01"
 xmlns:xlink="http://www.w3.org/1999/xlink"
 xmlns:xodm="http://www.corel.com/coreldraw/odm/2003">
 <defs>
  <style type="text/css">
   <![CDATA[
    .fil0 {fill:#07090A}
    .fil5 {fill:#A31C2A}
    .fil7 {fill:#A80101}
    .fil1 {fill:#E20000}
    .fil3 {fill:#FAC6F2}
    .fil6 {fill:#FDF4FA}
    .fil4 {fill:#FDF6FC}
    .fil2 {fill:#FEFEFE}
   ]]>
  </style>
 </defs>
 <g id="Camada_x0020_1">
  <metadata id="CorelCorpID_0Corel-Layer"/>
  <g id="_2087233724800">
   <path class="fil0" d="M0 64.49l-0 1.73c1.69,1.72 1.47,1.55 5.3,1.59 3.84,0.04 10.6,0.53 13.78,-0.26 2.81,-0.7 4.29,-2.21 5.05,-2.12 1.99,0.74 1.4,2.49 5.68,2.73l13.37 0.09c4.16,-0.05 1.2,-2.56 6.44,-2.09 1.73,0.16 0.9,0.34 2.64,1.7 2.31,1.8 12.64,1.39 16.03,0.6 2.43,-0.56 8.65,1.71 11.46,-0.51 3.09,-2.44 4.54,0.62 5.73,0.94 1.6,0.44 10.85,0.22 13.09,0.27 5.85,0.12 11.65,0.34 17.52,0.45 5.04,0.09 12.61,0.72 17.42,0.21 1.31,-0.14 2.61,-0.44 3.82,-0.51 3.1,-0.16 6.38,0.76 7.86,-1.01 3.06,-3.68 -0.07,-3.26 -0.12,-4.77 1.83,-0.84 1.92,-0.12 3.03,-1.9 0.69,-1.1 1.27,-1.96 2.05,-3 3.49,-4.63 13.36,-8.72 14.15,-11.4 0.36,-1.21 0.43,-2.91 1.06,-3.92l0 -17.82 -3.95 14.82c0.27,2.03 0.3,3.05 -0.8,4.74 -0.36,0.77 -0.76,1.4 -1.25,1.88 -0.43,0.42 -1.08,1.05 -1.81,1.23 0.29,-1.83 1.2,-2.96 2.44,-3.85 0.59,-1.02 1.34,-1.18 1.16,-2.89 -0.09,-0.07 -0.26,-0.22 -0.39,-0.32 -0.93,-0.48 -1.01,-0.73 -0.8,-1.99 -0.16,-0.13 -0.31,-0.1 -0.51,-0.24 -1.41,0.76 -1.04,0.52 -2.89,0.84 -1.03,0.18 -2.09,0.47 -3.09,0.74 -1.01,0.27 -2.13,0.74 -3.21,0.65 -1.4,-0.12 -1.46,-0.95 -2.19,-1.64l-11.86 -0.32c-1.92,0.19 -2.3,0.24 -4.04,-0.29 -1.29,0.26 -1.9,0.84 -3.37,0.91 -1.61,0.07 -2.25,-0.51 -2.9,-1.22 -1.33,0.81 -2.06,0.86 -3.81,0.35 -1.6,0.04 -1.16,-0.39 -2.5,-0.52 -0.1,0.88 -0.54,0.67 -1.7,0.7 -0.82,0.02 -1.7,0.02 -2.5,0.06 -1.59,0.57 -5.56,2.54 -7.01,2.55 -0.43,-0.58 -0.79,-0.86 -1.26,-1.55 -0.91,-1.31 -0.44,-0.61 -1.9,-0.97l-1.54 -0.45 -8.44 -0.22c-0.91,0.33 -2.44,0.82 -3.47,0.14l1.04 -3.29c-1.81,0.71 -1.58,2.47 -2.66,3.11 -0.17,0.1 -1.96,0.56 -2.32,0.67 -1.08,0.33 -1.73,0.22 -2.15,-0.6 0.86,-0.44 2.36,-0.56 2.87,-1.09 0.66,-0.69 0.27,-2.43 0.36,-3.48 0.16,-1.68 2.41,-4.12 0.66,-6.14l-0.75 0.13c-0.82,-1.9 0.6,-3.64 1.3,-5.24 2.03,-4.65 2.2,-3.92 7.55,-7.23 1.57,-0.97 2.98,-1.81 4.51,-2.76l13.77 -8.47c1.52,-0.96 2.73,-2.02 5.2,-2.16 5.71,-0.33 16.67,-0.31 23.2,-0.38 2.88,-0.03 4.75,-0.39 6.32,1.17 1.24,1.23 2.57,2.4 3.72,3.65l10.98 10.77 0 -3.17c-2.01,-1.54 -12.95,-12.78 -14.04,-13.55 -1.22,-0.88 -7.07,-0.45 -9.17,-0.44 -6.5,0.03 -12.98,0.14 -19.49,0.26 -4.44,0.09 -4.46,0.39 -7.34,2.16l-23.04 14.17c-2.99,1.84 -2.67,1.59 -3.97,5 -1.09,2.86 -1.57,5.28 -4.24,4.59 -1.34,-0.35 -1.89,-1.28 -4.07,-0.8 -0.83,0.18 -2.43,1.07 -3.19,1.46 -3.93,1.98 -5.23,2.72 -9.43,4.59 -1.21,0.54 -2.12,1.21 -3.26,1.5 -0.04,-0.77 0.14,-1.69 -0.21,-2.29 -0.51,-0.85 -1.01,-0.45 -0.99,-1.6 1.25,-1.02 1.97,-0.18 3.94,-2.48 1,-1.17 7.85,-2.68 8.55,-4.03 0.72,-1.38 -1.23,-2.89 -3.1,-2.81 -2.24,0.09 -3.21,1.44 -5.31,0.34 -2.08,-1.09 -2.65,-1.06 -5.03,-0.3 -1.61,0.51 -3.04,1.21 -4.24,2.05 -3.01,2.11 -0.59,2.72 -0.32,3.58l-12.62 5.89c-0.06,-1.01 6.56,-14.16 7.91,-16.95 1.95,-4.04 -3.21,-5.66 -7.85,0.99 -1.26,1.8 -1.76,3.45 -2.62,5.58 -0.81,2.01 -4.7,9.95 -6.26,10.38 -0.88,-0.88 -1.72,-6.51 -2.05,-8.1 -0.92,-4.49 -0.8,-4.32 1.84,-7.18 1.15,-1.24 1.36,-2.37 -0.32,-3.2 -2.15,-1.06 -2.93,0.18 -4.72,0.33 -4.55,0.37 -5.54,-0.22 -6.87,3.76 -0.79,2.38 -10.08,17.01 -11.71,19.5 -0.64,0.98 -1.92,2.45 -0.66,3.59 1.2,1.1 2.74,0.45 4.48,0.46 -0.09,1.8 -11.42,17.35 -14.04,21.16 -0.57,0.83 -1.24,1.97 -1.9,2.79z"/>
   <path class="fil1" d="M146.1 30.3c1.86,0.5 5.69,-0.25 7.57,0.43 0.61,2.13 -1,2.17 -3,2.17 -6.28,-0 -5.75,-0.3 -6.38,1.79 -0.08,0.27 -0.65,1.66 -0.16,1.97 1.75,0.49 7.46,-0.22 9.16,0.37 0.38,0.73 -0.14,1.55 -0.51,2.03 -2.24,0.63 -10.6,0.31 -13.32,0.14 0.61,-2.77 1.82,-5.99 2.67,-8.73 2.21,-7.12 0.04,-5.45 12.27,-5.51 0.99,-0 1.99,-0.22 1.84,0.8 -0.33,2.31 -2.56,1.6 -7.55,1.56 -1.26,-0.01 -2,-0.2 -2.42,0.65 -0.35,0.72 -0.54,1.78 -0.18,2.33zm-40.93 8.86c1.46,0.36 0.99,-0.34 1.9,0.97 0.47,0.68 0.84,0.97 1.26,1.55 1.44,-0.02 5.42,-1.99 7.01,-2.55 0.05,-0.62 0.36,-1.48 0.17,-2.28 -0.33,-1.38 0.37,0.98 -0.12,-0.33 -0.02,-0.04 -0.07,-0.07 -0.08,-0.15 -0.08,-0.51 -2.76,-0.3 -3.39,-0.31 -2.78,-0.01 -2.23,-0.35 -4.51,2.2 -0.68,0.76 -0.75,1.03 -2.23,0.91zm9.96 -5.63c0.48,-0.44 0.28,-0.07 0.35,-0.9 0.07,-0.79 0.03,-3.37 -0.28,-3.88 -0.92,0.1 -2,2.04 -2.89,3.25 -0.36,0.5 -1.23,1.35 -0.32,1.62 0.73,0.22 2.64,0.16 3.14,-0.09zm14.57 -6.11c-1.04,0.49 -1.66,3.33 -0.99,3.67 0.74,0.38 4.83,0.08 5.57,-0.2 1.33,-0.51 2.24,-2.59 0.93,-3.36 -0.73,-0.43 -4.78,-0.46 -5.5,-0.12zm-3.84 11.12c0.65,0.71 1.29,1.29 2.9,1.22 1.47,-0.07 2.08,-0.65 3.37,-0.91 -0.24,-1.63 1.86,-3.7 0.8,-5.08 -0.96,-0.5 -4.45,-0.4 -5.39,-0.13 -0.86,0.62 -1.48,3.63 -1.69,4.9zm-27.68 -7.14c5.95,1.07 7.21,-2.8 5.85,-3.77 -0.54,-0.39 -4.21,-0.63 -4.78,0.03 -0.44,0.52 -1.25,3.04 -1.07,3.74zm-8.65 -3.59c1.75,2.02 -0.51,4.46 -0.66,6.14 -0.1,1.05 0.29,2.79 -0.36,3.48 -0.51,0.53 -2.01,0.66 -2.87,1.09 0.42,0.83 1.07,0.94 2.15,0.6 0.36,-0.11 2.15,-0.57 2.32,-0.67 1.07,-0.65 0.85,-2.4 2.66,-3.11 0.69,-1.26 1.28,-3.16 1.81,-4.49 1.65,-4.21 1.44,-5.68 3.75,-5.75 2.68,-0.08 7.94,-0.39 9.19,1.01 1.87,2.09 -0.8,6.42 -4.45,7.38 -6.38,1.67 -5.69,-2.27 -7.87,5l8.44 0.22c0.33,-0.92 7.72,-9.73 9.32,-11.73 0.4,-0.5 1.12,-1.43 1.76,-1.73 0.95,-0.45 2.74,-0.37 3.55,0.06 0.61,1.13 0.9,10.82 1.28,13.04 1.34,0.13 0.91,0.56 2.5,0.52 -0.03,-0.9 2.98,-9.22 3.66,-11.27 0.52,-1.56 0.41,-2.64 2.61,-2.69 4.11,-0.1 13.47,-0.87 10.62,4.7 -0.84,1.66 -2.11,1.86 -2.74,2.6 0.21,0.91 0.5,0.53 0.67,1.37 0.12,0.55 -0.08,1.41 -0.16,1.94 -0.17,1.23 -0.29,2.4 -0.54,3.59l11.86 0.32c0.73,0.7 0.79,1.52 2.19,1.64 1.08,0.09 2.2,-0.37 3.21,-0.65 1,-0.27 2.05,-0.56 3.09,-0.74 1.85,-0.32 1.49,-0.08 2.89,-0.84 0.19,0.14 0.35,0.1 0.51,0.24 0.7,-1.67 1.29,-4.65 1.82,-6.57 0.52,-1.92 3.64,-12.22 3.13,-13.35 -0.31,-0.71 -7.58,-7.67 -8.76,-8.84 -0.78,-0.78 -1.54,-1.55 -2.28,-2.23 -3.2,-2.97 -4.19,-5.33 -7.99,-5.29l-18.54 0.25c-8.99,0.27 -6.48,-0.79 -14.21,4.07l-16.63 10.19c-3.66,2.2 -3.38,1.6 -4.47,4.35 -0.9,2.26 -1.73,4.09 -2.47,6.11z"/>
   <path class="fil2" d="M140.32 47.62c0.38,1.66 -1.8,3.8 -3.33,4.09 -1.11,0.21 -4.31,0.08 -5.83,0.09 -0.88,0 -1.53,0.14 -1.69,-0.39 -0.05,-0.15 1.75,-3.97 3.26,-4.19 1.51,-0.22 6.53,-0.08 7.59,0.41zm-6.54 18.94c1.58,-2.09 1.28,-7.14 3.31,-8.79 0.66,-0.54 1.12,-0.82 1.79,-1.31 0.68,-0.49 1.05,-0.87 1.66,-1.42 2,-1.78 4.62,-4.66 5.05,-7.27 0.31,-1.88 1.99,-1.84 1.61,-4.41 -0.45,-3.08 -6.88,-2.56 -10.12,-2.57 -7.33,-0.03 -5.96,-0.87 -9.1,3.62 -1.8,2.58 -14.69,20.7 -14.84,21.84 6.71,0.39 5.43,0.34 8.35,-3.91 0.56,-0.82 1.82,-2.89 2.4,-3.46 0.68,-0.68 4.05,-0.8 5.32,-0.34 0.31,1.47 -1.73,6.48 -1.65,7.47 0.09,1.2 5.03,0.7 6.21,0.55z"/>
   <path class="fil2" d="M87.27 50.96c-0.13,-0.7 0.75,-1.64 1.24,-2.41 0.53,-0.85 0.8,-1.63 1.82,-1.89 0.99,-0.26 7.09,-0.18 7.67,0.29 0.82,0.66 -0.35,2.06 -0.66,2.43 -0.52,0.63 -1.29,1.3 -2.15,1.54 -1.4,0.39 -6.75,0.39 -7.91,0.03zm4.61 14.96c1.12,-2.5 1.36,-7.52 3.19,-8.91 2.76,-2.09 4.14,-3.13 6.36,-5.95 1.16,-1.47 4.1,-5.95 3.67,-8.22 -0.61,-3.27 -6.43,-2.62 -10.25,-2.62 -1.33,-0 -5.76,-0.29 -6.58,0.24l-7.54 10.68c-1.31,1.89 -9.69,13.41 -9.77,14.51 6.25,0.54 5.74,-0.18 7.31,-2.45 0.69,-1 1.22,-1.7 1.93,-2.74 0.56,-0.83 1.26,-1.95 1.95,-2.65 1.3,-0.1 3.8,-0.32 4.79,0.15 0.48,0.38 -0.01,1.44 -0.15,1.96 -0.2,0.75 -0.36,1.36 -0.54,2.07 -0.24,0.96 -0.96,3.04 -0.92,3.97l6.54 -0.05z"/>
   <path class="fil2" d="M39.74 48.87c0.03,-0.73 0.87,-1.46 1.43,-2.07 0.7,-0.76 1.02,-1.04 2.65,-1.05l11.6 0.16c1,-0.25 4.31,-5.66 4.31,-6.09 -3.48,-0.18 -7.62,-0.34 -11.09,-0.32 -3.8,0.02 -6.01,0.99 -8.45,2.59 -3.17,2.06 -7.33,7.4 -9.84,11.15 -1.41,2.11 -2.83,4.16 -3.77,6.68 -1.64,4.4 -0.18,5.16 4.55,5.2 1.82,0.01 10.24,0.34 11.23,-0.17 0.68,-0.35 4.06,-5.48 4.14,-6.25 -3.52,-0.48 -9.36,0.28 -12.76,-0.35 -0.19,-1.11 0.6,-2.42 1.33,-3.05 2.6,-0.67 10.66,0.2 14.01,-0.08 0.64,-0.6 4.11,-5.41 4.23,-5.98 -2.67,-0.18 -12.02,0.06 -13.57,-0.38z"/>
   <path class="fil2" d="M75.76 48.74c-1.3,2.81 -3.88,6.41 -5.86,8.27 -1.21,1.14 -2.63,2.14 -5.27,2.15 -4.45,0.01 -5.35,0.25 -4.25,-2.61 0.85,-2.2 4.47,-6.83 5.98,-8.2 1.16,-1.06 2.43,-2.39 5.05,-2.38 2.95,0.01 5.86,-0.46 4.36,2.78zm8.13 -4.99c0.7,-2.7 0.08,-3.77 -2.84,-4.05 -8.93,-0.86 -12.13,0.08 -17.19,4.92 -2.18,2.08 -4.62,5.22 -6.47,7.97 -1.48,2.2 -4.32,6.39 -5.08,8.99 -0.83,2.83 -0.46,4.2 2.89,4.19 2.58,-0 4.91,0.12 7.45,0.15 5.34,0.07 7.6,-2.77 9.86,-5.06 2.75,-2.79 10.24,-12.74 11.37,-17.1z"/>
   <path class="fil2" d="M108.07 51.75c-0.27,-1.02 1.22,-2.31 1.83,-3.05 0.77,-0.93 1.33,-2.23 2.89,-2.23 7.68,0 7.56,-0.41 5.79,2.54 -0.55,0.92 -1.15,2.18 -1.85,2.93 -1.36,0.17 -7.71,0.12 -8.66,-0.19zm-1.11 14.33c4.77,0.04 4.66,0.54 5.84,-1.19l10.59 -15.28c0.91,-1.26 1.77,-2.48 2.44,-4 2.52,-5.71 -1.89,-5.15 -6.92,-5.14 -5.06,0.01 -7.58,1.1 -10.17,3.4 -4.25,3.77 -8.16,9.97 -11.25,14.53 -0.74,1.09 -5.03,6.83 -4.97,7.59l5.23 -0.08c0.74,-0.76 1.65,-2.23 2.29,-3.16 3.57,-5.18 2.54,-4.51 6.39,-4.5 1.47,0 4.02,0.04 5.27,0.28 -0.18,1.64 -4.24,5.58 -4.75,7.57z"/>
   <path class="fil2" d="M11.51 58.15c-0.23,-0.95 0.67,-1.67 1.14,-2.38 0.52,-0.77 0.95,-1.36 1.5,-2.14 1.01,-1.42 1.98,-2.84 2.99,-4.29 3.29,-4.79 1.98,-3.93 7.42,-3.9 1.29,0.01 2.69,-0.21 3.53,0.43 0.87,2.06 -2.4,6.4 -3.4,7.61 -2.22,2.68 -3.6,4.9 -6.92,4.92l-6.26 -0.23zm-6.54 6.48c1.57,0.17 3.51,0.16 4.82,-0.13 0.6,0.16 0.34,0.09 0.87,0.19 0.72,0.01 1.22,-0.17 1.97,-0.1 0.75,0.07 1.26,0.2 2.08,0.2 3.51,0 6.59,-2.07 8.59,-4.1 3.12,-3.16 13.64,-15.51 11.77,-20.03 -0.49,-1.19 -1.4,-1.12 -3.06,-1.17 -2.15,-0.07 -12.08,-0.49 -12.89,-0.1 -0.43,0.2 -7.87,11.13 -8.77,12.44l-6.46 9.51c-0.85,0.76 -1.92,1.94 -1.92,3.44l2.34 -0.27 0.66 0.12z"/>
   <path class="fil2" d="M26.53 24.21c1.82,1.4 3.1,13.26 6.34,13.66 1.19,0.15 2.76,-0.18 3.74,-0.66 4.13,-2.01 10.16,-15.25 12.27,-19.74 0.54,-1.16 2.44,-4.46 2.09,-5.55 -1.89,-0.27 -4.48,2.9 -5.38,4.19 -1.31,1.87 -2.04,3.96 -2.96,6.25 -0.87,2.16 -5.51,10.98 -7.13,11.52 -1.86,-1.13 -2.89,-7.9 -3.43,-10.39 -0.3,-1.37 -1.3,-4.7 -0.58,-5.91 0.48,-0.81 3.04,-2.66 3.26,-3.76 -1.98,-1.44 -2.13,0.92 -4.87,0.65 -2.44,-0.23 -3.77,-0.2 -4.62,1.67 -2.46,5.43 -5.63,10.53 -8.92,15.61 -0.83,1.28 -1.61,2.5 -2.43,3.82 -0.57,0.92 -2.2,2.8 -1.5,3.82 2.25,0.24 6.08,-5.58 7.4,-7.29 1.08,-1.39 2.15,-2.71 3.21,-4.1 0.62,-0.81 2.56,-3.64 3.48,-3.81z"/>
   <path class="fil2" d="M74.09 36.03c-0.73,-3.3 8.28,-7.13 9.21,-5.02 0.83,1.88 -6.18,6.53 -9.21,5.02zm-25.06 -1.31c0.07,-0.66 0.11,-0.58 0.76,-0.92l13.77 -7.12c0.93,-0.5 1.55,-0.51 1.41,-1.5 -2.14,-1.2 -8.85,2.03 -11.09,3.01l-9.85 4.55c-0.03,2.02 1.22,1.4 -0.55,2.83 -0.67,0.54 -1.81,1.38 -1.04,2.63 1.05,1.49 6.07,-0.63 7.26,-1.2 1,-0.48 5.55,-2.77 6.52,-2.81 0.56,1.52 -0.19,2.63 1.96,3.06 4.87,0.98 9.05,-3.62 11.93,-3.52 -0.14,0.61 -2.69,3.26 0.22,4.59 0.6,0.27 5.45,-0.21 6.51,-0.35 1.5,-0.2 1.71,-0.56 2.79,-1.05 1.46,-0.66 2.66,1.03 5.83,-0.62 0.95,-0.5 1.72,-0.75 1.49,-2.03 -0.76,-0.42 -0.88,-0.22 -1.6,-0.53 0.36,-1.04 2.8,-2.23 2.62,-4.79 -0.19,-2.58 -3.8,-1.55 -5.67,-1.36 -0.68,-1.56 -0.77,-1.69 -2.77,-0.95 -1.89,0.7 -6.49,3.29 -9.27,4.54 -2.73,1.23 -8.91,5.28 -8.85,2.2 0.02,-0.91 1.2,-1.92 0.58,-3.1 -2.05,-1.19 -11.45,4.86 -12.97,4.4z"/>
   <path class="fil3" d="M89.53 27.8c0.74,-2.02 1.57,-3.86 2.47,-6.11 1.1,-2.75 0.82,-2.15 4.47,-4.35l16.63 -10.19c7.73,-4.86 5.21,-3.8 14.21,-4.07l18.54 -0.25c3.8,-0.04 4.78,2.32 7.99,5.29 0.73,0.68 1.49,1.46 2.28,2.23 1.18,1.17 8.44,8.13 8.76,8.84 0.51,1.14 -2.61,11.43 -3.13,13.35 -0.52,1.92 -1.12,4.9 -1.82,6.57 -0.21,1.26 -0.12,1.51 0.8,1.99l0.41 0.03 0.24 -0.81 3.95 -14.82 0 -8.21 -10.98 -10.77c-1.16,-1.25 -2.49,-2.42 -3.72,-3.65 -1.56,-1.56 -3.43,-1.2 -6.32,-1.17 -6.53,0.06 -17.49,0.05 -23.2,0.38 -2.47,0.14 -3.68,1.2 -5.2,2.16l-13.77 8.47c-1.53,0.95 -2.94,1.79 -4.51,2.76 -5.35,3.31 -5.52,2.58 -7.55,7.23 -0.7,1.6 -2.12,3.34 -1.3,5.24l0.75 -0.13z"/>
   <path class="fil2" d="M140.57 62.59c2.44,-0.06 4.74,-0.92 5.7,-2.14l8.88 -12.95c4.79,-7.17 5.45,-7.39 0.08,-6.33 -6.84,1.35 -5.58,1.58 -7.07,4.23 -0.48,0.84 -1.21,1.43 -1.46,2.19 0.33,0.88 0.99,1.01 0.66,2.04l-3.23 5.28c-1.19,2.28 -3.38,4.69 -3.56,7.68z"/>
   <path class="fil4" d="M129.7 27.42c0.72,-0.34 4.77,-0.31 5.5,0.12 1.31,0.76 0.4,2.85 -0.93,3.36 -0.73,0.28 -4.82,0.58 -5.57,0.2 -0.66,-0.34 -0.05,-3.19 0.99,-3.67zm-7.65 11.46c1.76,0.51 2.48,0.47 3.81,-0.35 0.21,-1.28 0.82,-4.28 1.69,-4.9 0.94,-0.27 4.43,-0.36 5.39,0.13 1.06,1.38 -1.04,3.45 -0.8,5.08 1.74,0.53 2.13,0.47 4.04,0.29 0.24,-1.19 0.37,-2.36 0.54,-3.59 0.07,-0.54 0.27,-1.39 0.16,-1.94 -0.17,-0.83 -0.46,-0.45 -0.67,-1.37 0.64,-0.74 1.9,-0.95 2.74,-2.6 2.84,-5.57 -6.51,-4.81 -10.62,-4.7 -2.2,0.05 -2.09,1.13 -2.61,2.69 -0.68,2.05 -3.68,10.37 -3.66,11.27z"/>
   <path class="fil4" d="M146.1 30.3c-0.37,-0.55 -0.17,-1.61 0.18,-2.33 0.41,-0.85 1.15,-0.66 2.42,-0.65 4.99,0.04 7.22,0.75 7.55,-1.56 0.14,-1.02 -0.85,-0.81 -1.84,-0.8 -12.24,0.06 -10.06,-1.61 -12.27,5.51 -0.85,2.74 -2.06,5.97 -2.67,8.73 2.73,0.16 11.08,0.49 13.32,-0.14 0.37,-0.48 0.9,-1.3 0.51,-2.03 -1.7,-0.6 -7.41,0.11 -9.16,-0.37 -0.5,-0.31 0.07,-1.7 0.16,-1.97 0.63,-2.09 0.1,-1.79 6.38,-1.79 2,0 3.61,-0.04 3,-2.17 -1.88,-0.67 -5.71,0.07 -7.57,-0.43z"/>
   <path class="fil4" d="M115.13 33.53c-0.5,0.25 -2.4,0.31 -3.14,0.09 -0.91,-0.27 -0.05,-1.13 0.32,-1.62 0.89,-1.21 1.97,-3.15 2.89,-3.25 0.3,0.51 0.34,3.08 0.28,3.88 -0.07,0.84 0.13,0.47 -0.35,0.9zm-11.5 5.19l1.54 0.45c1.49,0.13 1.55,-0.14 2.23,-0.91 2.28,-2.56 1.73,-2.21 4.51,-2.2 0.63,0 3.32,-0.21 3.39,0.31 0.01,0.08 0.07,0.11 0.08,0.15 0.49,1.31 -0.21,-1.05 0.12,0.33 0.19,0.8 -0.12,1.66 -0.17,2.28 0.8,-0.04 1.67,-0.04 2.5,-0.06 1.16,-0.03 1.6,0.17 1.7,-0.7 -0.38,-2.22 -0.67,-11.91 -1.28,-13.04 -0.82,-0.43 -2.6,-0.51 -3.55,-0.06 -0.64,0.3 -1.36,1.23 -1.76,1.73 -1.6,2 -8.99,10.81 -9.32,11.73z"/>
   <path class="fil4" d="M98.18 31.39c-0.17,-0.69 0.63,-3.21 1.07,-3.74 0.56,-0.67 4.24,-0.42 4.78,-0.03 1.36,0.98 0.1,4.85 -5.85,3.77zm-5.41 3.95l-1.04 3.29c1.03,0.68 2.56,0.19 3.47,-0.14 2.18,-7.27 1.49,-3.33 7.87,-5 3.65,-0.96 6.32,-5.29 4.45,-7.38 -1.25,-1.4 -6.51,-1.09 -9.19,-1.01 -2.31,0.07 -2.1,1.54 -3.75,5.75 -0.52,1.33 -1.12,3.23 -1.81,4.49z"/>
   <path class="fil2" d="M57.93 24.44c1.13,0.09 2.82,-1.07 4.32,-1.28 2.14,-0.29 2.96,1.19 4.17,1.3 0.1,0.01 7.57,-1.61 6.91,-3.72 -1.35,-0.51 -3.23,0.8 -4.78,0.87 -2.95,0.15 -2.13,-3.28 -8.64,0.11 -2.25,1.17 -2.91,1.62 -1.97,2.71z"/>
   <path class="fil2" d="M144.1 66.03c1.61,-3.06 -6.16,-1.97 -7.41,-0.16 -0.47,0.69 -0.13,1.48 0.56,1.75 0.76,0.31 1.99,0.15 2.91,0.14 2.43,-0.02 3.07,-0.09 3.94,-1.74z"/>
   <path class="fil5" d="M103.98 64.7c0.8,-0.09 1.05,-0.21 1.73,0.23l0.47 -0.47c0.64,-0.76 1.59,-2 1.64,-2.9 -2.84,-0.03 -2.79,1.48 -3.84,3.15z"/>
   <path class="fil4" d="M105.71 64.93c-0.67,-0.44 -0.93,-0.32 -1.73,-0.23 -0.76,0.43 -1.13,0.57 -1.05,1.51 1.59,0.2 2.74,0.04 2.78,-1.28z"/>
   <path class="fil6" d="M126.18 65.27l-1.18 -0.2c-0.69,0.23 -0.88,0.27 -1.37,0.76 0.06,1.5 1.39,1.28 2.53,0.44l0.01 -1z"/>
   <path class="fil7" d="M160.73 41.1c0.13,0.1 0.29,0.25 0.39,0.32 0.18,1.71 -0.57,1.88 -1.16,2.89l0.52 -0.01 0.11 0.76c1.1,-1.69 1.07,-2.71 0.8,-4.74l-0.24 0.81 -0.41 -0.03z"/>
   <path class="fil7" d="M125 65.08l1.18 0.2 0.22 -1.73c-0.06,-0.42 -0.07,-0.22 -0.25,-0.44 -0.24,0.2 -0.13,-0.02 -0.4,0.47l-0.74 1.5z"/>
  </g>
 </g>
</svg>
