<?xml version="1.0" encoding="UTF-8"?>
<!DOCTYPE svg PUBLIC "-//W3C//DTD SVG 1.1//EN" "http://www.w3.org/Graphics/SVG/1.1/DTD/svg11.dtd">
<!-- Creator: CorelDRAW -->
<svg xmlns="http://www.w3.org/2000/svg" xml:space="preserve" width="70.3843mm" height="35.1808mm" version="1.1" style="shape-rendering:geometricPrecision; text-rendering:geometricPrecision; image-rendering:optimizeQuality; fill-rule:evenodd; clip-rule:evenodd"
viewBox="0 0 125.21 62.59"
 xmlns:xlink="http://www.w3.org/1999/xlink"
 xmlns:xodm="http://www.corel.com/coreldraw/odm/2003">
 <defs>
  <style type="text/css">
   <![CDATA[
    .fil0 {fill:#010201}
    .fil14 {fill:#363836}
    .fil11 {fill:#374B56}
    .fil1 {fill:#44B6E2}
    .fil7 {fill:#45B8E4}
    .fil17 {fill:#474847}
    .fil13 {fill:#4CBAE4}
    .fil19 {fill:#878887}
    .fil18 {fill:#8AB5CB}
    .fil15 {fill:#948556}
    .fil16 {fill:#94C5D6}
    .fil9 {fill:#A3D9F4}
    .fil12 {fill:#A3DBF5}
    .fil3 {fill:#A5DDF8}
    .fil2 {fill:#A8C653}
    .fil5 {fill:#C4E8F9}
    .fil8 {fill:#F2D191}
    .fil10 {fill:#FBFCFC}
    .fil4 {fill:#FDFDFD}
    .fil6 {fill:#FEFEF0}
   ]]>
  </style>
 </defs>
 <g id="Camada_x0020_1">
  <metadata id="CorelCorpID_0Corel-Layer"/>
  <g id="_2075649338272">
   <path class="fil0" d="M2.98 48.14c0.27,1.1 0.69,0.24 0.96,1.9 0.4,2.46 0.96,3.52 2.43,5.56 1.93,2.67 3.1,3.07 7.48,3.15 6.92,0.11 13.9,-0.21 20.78,-0.31 3.76,-0.05 5.72,-0.86 8.49,-2.11 1.78,-0.8 2.18,0.08 4.02,0.5 1.48,0.33 3.37,0.29 4.82,-0.09 1.4,-0.37 6.69,-2.68 7.7,-2.39 2.75,0.81 4.51,2.37 8.28,0.81 0,0 0.26,-0.41 0.9,-0.45 0.55,0.07 0.59,0.74 0.77,1.37 1.43,5.01 3.53,6.38 8.91,6.51 11.17,0.27 10.02,-4.68 10.93,-6.68 1.42,-0.19 2.95,0.22 4.55,-0.12 3.39,-0.72 6.61,-2.92 8.21,-5.68 1.12,-1.93 1.99,-4.48 2.54,-6.82 1.03,-4.37 0.71,-6.94 1,-8.25 1.98,0.29 2.34,1.02 5.57,0.6 1.85,-0.24 4.01,-0.47 5.84,-0.69 1.97,-0.23 4.1,-0.29 5.83,-0.8 2.64,-0.79 1.45,-2.64 2.23,-4.22l0 -12.2c-0.67,-3.68 -0.6,-8.97 -4.64,-11.4 -5.43,-3.28 -11.77,-0.57 -13.52,-1.01 -2.54,-0.64 -12.61,-0.33 -14.97,0.43 -1.74,0.56 -1.31,0.85 -3.21,0.11 -4.51,-1.76 -7.71,-0.06 -10.51,-0.47 -0.66,-1.07 -1.06,-3.46 -2.59,-3.95 -1.69,-0.54 -3.89,-0.66 -5.85,-0.63 -8.73,0.11 -6.95,3.08 -8.12,4.95 -1.72,0.04 -3.88,-0.95 -7.65,-0.32 -5.48,0.9 -2.92,1.84 -5.63,-0.78 -4.29,-4.14 -8.98,-5.18 -15.65,-3.18 -2.02,0.6 -1.32,0.19 -2.81,-0.56 -1.52,-0.77 -5.06,-0.96 -7.16,-0.9 -2.33,0.06 -4.95,0.62 -6.41,1.81 -2,1.63 -1.16,3.94 -0.93,6.57 -1.71,0.66 -3.34,1.24 -4.99,1.88 -2.82,1.08 -4.75,3.85 -7.12,6.33 -2.83,2.97 -0.52,5.56 -0.82,8.05 -0.14,1.16 -0.02,2.01 -0.65,2.82 -1.09,1.39 -1.66,2.94 -1.44,5.32 0.32,3.4 1.72,3.74 0.71,5.21 -0.82,1.19 -1.11,2.34 -1.16,3.68l-0.01 0.01c-0.26,3.07 0.17,4.36 2.91,6.45z"/>
   <path class="fil1" d="M90.04 30.62c-0.88,1.24 -1.8,3.32 -2.38,5.27 -0.58,1.95 -0.82,3.76 -0.8,5.76 0.03,2 0.32,4.19 0.84,5.8 0.51,1.61 1.24,2.63 2.19,3.32 0.95,0.69 2.11,1.04 3.32,0.81 1.22,-0.23 2.49,-1.04 3.73,-2.36 1.24,-1.32 2.46,-3.16 3.3,-5.54 0.84,-2.38 1.3,-5.3 1.36,-7.59 0.07,-2.3 -0.26,-3.97 -0.54,-5.15 -0.28,-1.18 -0.53,-1.85 -0.76,-2.3 -0.23,-0.45 -0.45,-0.66 -0.72,-0.77 -0.27,-0.11 -0.59,-0.11 -1.04,0.03 -0.45,0.14 -1.01,0.41 -1.28,0.68 -0.27,0.27 -0.24,0.54 -0.22,0.81 -0.3,-0.51 -0.59,-1.03 -1.11,-1.34 -0.51,-0.31 -1.24,-0.42 -1.84,-0.3 -0.59,0.12 -1.05,0.47 -1.7,0.85 -0.65,0.38 -1.49,0.78 -2.36,2.03zm-14.28 15.09c0.65,0.24 1.69,0.3 2.6,0.28 1.26,-0.03 1.22,-0.34 1.83,-1.04 1.49,-1.68 2.33,-0.22 1.09,1.87 -1.27,2.15 -3.42,4.57 -4.91,6.04 -0.83,0.82 -2.49,1.62 -1.99,3.26 0.21,0.69 0.66,1.48 1.05,1.79 0.85,0.68 6.69,0.48 7.7,0.32 1.35,-0.21 2.1,-2.17 1.72,-3.66 -0.91,-0.4 -2.83,-0.18 -4.2,-0.2 0.17,-0.64 0.62,-0.91 1.05,-1.33 2.32,-2.34 6.38,-7.3 4.56,-10.8 -1.05,-2.01 -4.23,-2.57 -6.7,-1.67 -1.75,0.64 -4.43,2.91 -3.81,5.14zm-6.22 -8.46c-0.02,-0.04 -0.02,-0.1 -0.03,-0.13 -0,-0.03 -0.02,-0.09 -0.02,-0.13 -0.08,-1.05 -0.06,0.81 -0.01,-0.27l0.32 -1.41c0.88,-3.76 2.54,-7.03 -1.77,-7.09 -1.53,-0.02 -1.66,1.15 -1.98,2.47 -0.3,1.26 -0.62,2.43 -0.9,3.58 -0.51,2.09 -0.28,2.84 -1.22,3.16 -0.78,0.26 -0.8,0.25 -1.09,1.11 -0.83,2.5 -1.35,3.82 0.15,4.9 0.19,1.7 -1.24,4.79 -1.02,7.05 0.6,0.54 1.51,1.05 2.79,1.06 1.5,0.01 1.64,-0.52 1.9,-1.86 0.21,-1.11 1,-5.51 1.32,-6.16 0.7,-0.24 1.79,0.09 2.49,-0.49 0.46,-0.38 0.74,-1.13 1.01,-1.77 0.36,0.5 -0.75,4.14 -0.9,4.85 -0.24,1.15 -1.25,4.3 -0.16,4.93 0.62,0.36 1.94,0.46 2.79,0.39 1.18,-0.1 1.2,-0.53 1.44,-1.55 1.36,-5.94 0.21,-2.44 0.21,-4.89 0,-1.7 1.54,-2.74 1.87,-4.26 0.37,-1.73 0.66,-3.36 1.01,-5.16 0.26,-1.35 0.92,-3.91 0.98,-5.12 0.08,-1.77 -2.26,-2.57 -3.96,-2.18 -0.93,0.94 -1.67,7.35 -2.3,9.11l-2.92 -0.12zm21.98 5.24c0,3.33 1.75,3.87 3.18,0.88 0.45,-0.95 0.81,-2.26 1.07,-3.29 0.45,-1.84 0.76,-6 0.22,-7.73 -0.69,0.47 0.11,0.35 -1.55,2.01 -0.62,0.62 -1.09,1.34 -1.52,2.23 -0.76,1.61 -1.4,3.85 -1.4,5.89z"/>
   <path class="fil2" d="M49.76 32.93c1.86,0.37 2.74,1.46 6.17,0.57 1.09,-0.28 5.79,-0.16 7.2,-0.12 -0.1,3.41 -2.66,2.63 -3.02,7.86 -0.13,1.92 0.19,1.79 0.37,2.45 0.23,0.85 0.08,0.48 -0.09,0.68 -1.64,-1.05 1.17,-8.73 -8.81,-5.4 -2.6,0.87 -5.5,3.07 -6.73,5.32 -0.56,1.02 -0.71,1.96 -1.85,2.3 0.21,-1.04 4.86,-7.57 6,-9.54 0.9,-1.55 0.97,-2.25 0.76,-4.12zm42.95 11.45c1.94,-0.34 2.64,-7.58 2.52,-9.4 -1.71,0.94 -3.42,6.57 -2.52,9.4zm20.32 -27.73c0.29,-0.44 0.24,-2.06 0,-2.58 -0.2,0.19 -0.17,-0 -0.23,0.42 -0.02,0.1 0.01,0.64 0.01,0.79 0.01,1.09 -0.12,0.99 0.22,1.36zm0.16 9.6c0.2,-0.58 0.2,-2.41 0,-3 -0.34,0.4 -0.26,1.45 -0.24,2.22 0.02,0.79 0.11,0.64 0.24,0.79zm-29.5 -4.6c-0.17,0.15 -0.24,0.05 -0.3,0.67l0.06 2.04c0.03,1.42 -0.16,2 0.38,2.45 0.49,-0.41 0.35,-0.47 0.33,-1.2l-0.02 -2.82c0.01,-1.36 -0.02,-0.95 -0.3,-1.08l-0.15 -0.07zm-0.18 -5.59c0.12,-0.11 0.22,0.3 0.24,-0.32 0.03,-0.78 -0.11,-0.34 -0.24,-0.48 -0.18,0.39 -0.23,0.32 0,0.79zm-33.98 33.57c0.88,0.09 1.4,-0.18 1.95,-0.56l0.07 -2.91c-0.99,0.4 -2.2,1.97 -2.01,3.47zm11.61 -2.83l0.19 0.61c0.14,-0.16 0.14,0.24 0.28,-0.55 0,-0.53 0.26,-1.42 0.38,-1.99 0.48,-2.21 -1.79,-0.43 -0.16,-5.94 0.17,-0.58 0.38,-1.31 0.75,-1.75 0.49,-0.6 0.99,-0.43 1.27,-1.07 0.15,-0.35 0.82,-3.46 0.85,-3.86l-8.41 -0.13c-2.48,0.84 -4.94,0.72 -6.67,-0.88 -1.66,-1.53 -1.65,-4.62 -1.53,-7.2 0.1,-2.16 0.73,-3.18 2.4,-4.12 0.41,-0.23 0.99,-0.38 1.35,-0.73 -2.98,-0.26 -3.74,0.84 -3.84,-1.87 -0.03,-0.75 0.02,-1.45 0.06,-2.19 0.2,-3.22 2.3,-5.26 5.02,-6.05 2.9,-0.85 6.98,-0.67 9.31,0.92 2.8,1.91 2.68,4.4 2.75,8.57 0.02,1.33 0.07,10.63 0.25,11.03 0.67,-0.85 0.27,-10.36 0.26,-12.28 -0.01,-2.38 -0.36,-11.15 0.07,-12.81 0.84,-0.5 6.44,-0.54 7.79,-0.33 1.26,0.2 0.89,1.83 0.89,3.14l0.21 18.14c0.02,1.63 -0.17,1.57 0.31,1.86 0.54,-0.59 0.03,-2.23 -0.03,-3.11 -0.14,-2.18 -0.11,-8.73 0.28,-10.37 0.91,-3.82 4.31,-5.57 8.81,-5.41 4.4,0.16 7.24,2.36 8.01,6.21 0.25,1.26 0.37,8.48 0.29,10.36 -0.06,1.42 -0.3,1.91 -0.55,3.17 1.42,-0.4 1.01,-1.52 0.98,-4.11 -0.03,-2.26 -0.32,-14.5 0.04,-14.98 0.4,-0.54 5.33,-0.38 6.68,-0.39 1.39,-0 0.99,0.14 1.87,0.54 1.44,-0.58 3.87,-2.26 3.9,0.6 0.01,0.69 -0,1.37 0.02,2.06 0.5,-0.36 0.8,-0.99 1.25,-1.4 0.36,-0.32 0.9,-0.75 1.54,-1.11 3.58,-2.02 10.4,-1.51 12.54,1.69 1.55,2.33 1.18,6.46 1.23,9.57 0.03,1.76 0.37,9.86 -0.14,10.83 -0.46,0.51 -4.95,0.34 -6.29,0.35 -0.98,0.01 -1.46,-0.29 -1.87,-0.3 -0.49,-0.01 -4.09,1.81 -6.98,-0.46 -1.75,-1.37 -1.94,-4.08 -1.83,-6.98 0.1,-2.68 0.74,-3.72 2.9,-4.82 0.51,-0.26 0.45,-0.15 0.74,-0.52 -1.13,-0.09 -2.89,0.26 -3.42,-0.3 -0.53,-0.55 0.08,-0.45 -0.64,-0.81 -3.38,0.01 -2.92,1.45 -2.92,4.42 0,1.78 -0.21,5.72 0.09,7.26 0.62,3.21 0.84,2.33 0.8,6.5 -0.05,5.58 -2.01,12.54 -6.36,15.69 -1.45,1.05 -3.61,1.58 -5.66,0.73 -0.87,-0.36 -1.71,-1.06 -2.16,-1.59 -0.48,-0.57 -1.12,-1.68 -1.6,-2.12 -0.43,0.44 -1.21,1.83 -1.76,2.57 -0.43,0.57 -1.85,2.03 -1.91,2.47 1.79,0.07 3.16,-0.16 3.06,1.95 -0.07,1.44 -0.82,2.84 -1.68,3.33 -1.37,0.79 -7.85,0.73 -9.17,-0.14 -0.69,-0.46 -1.69,-2.13 -1.65,-3.33 0.04,-1.02 1.7,-2.35 2.25,-2.9 0.98,-0.99 3.84,-3.91 4.56,-5.52 0.41,-0.28 0.34,-0.16 0.61,-0.91 -0.38,0.08 -0.4,0.11 -0.94,0.76 -1.36,0.4 -2.16,0.05 -3.41,0.09 -1.18,3.14 -0.16,6.39 -5.31,5.25 -3.93,-0.88 -1.06,-5.01 -1.13,-7.81l-1.12 -0.02c-0.95,1.82 -0.67,6.38 -2.26,7.62 -0.94,0.74 -2.8,0.54 -3.93,0.02 -1.5,-0.68 -1.6,-1.32 -1.58,-3.38 -0.69,0.34 -1.05,0.94 -1.71,1.43 -2.16,1.59 -3.34,0.98 -4.33,1.61 -1.17,0.73 -3.4,3 -6.61,2.09 -2,-0.57 -2.32,-2.11 -3.06,-3.04 -1.36,0.58 -2.57,2.99 -6.41,3.41 -1.33,0.15 -0.87,0.76 -2.28,1.01 -1.43,0.25 -10.34,0.08 -12.93,0.2 -1.71,0.08 -12.04,0.24 -12.89,-0.1 -0.7,-0.28 -1.2,-0.96 -1.61,-1.67 -0.59,-1.03 -1.13,-0.92 -1.53,-1.74 -0.32,-0.66 -0.44,-2.07 -0.24,-2.92 0.25,-1.1 1.01,-1.1 0.9,-2.42 -1.14,0.06 -1.85,0.46 -2.95,-0.19 -0.61,-0.36 -1.37,-1.21 -1.73,-1.88 -1.26,-2.37 0.23,-3.83 1.07,-5.41 1.65,-3.11 -2.03,-5.38 -0.56,-8.52 0.56,-1.19 1.5,-0.8 2.1,-1.51 0.37,-0.66 -0.38,-2.09 -0.42,-2.95 -0.08,-1.59 0.31,-1.71 0.68,-2.97 -0.56,-0.71 -1.16,-1.03 -1.21,-2.35 -0.1,-2.4 1.93,-2.49 2.94,-4.27 2.65,-4.69 10.79,-4.08 11.82,-6.2l-0.46 -0.39c-0.26,-0.25 -0.23,-0.14 -0.33,-0.58l-0.48 -4.94c2.39,-1.41 7.08,-1.1 9.49,-0.07l-0.42 4.79c-0.16,0.85 -0.2,0.63 -0.81,1.03 0.29,0.76 1.13,1.16 2.16,1.12 0.46,-0.95 0.11,-4.67 4.94,-6.51 3.04,-1.16 6.94,-0.84 9.5,0.63 2.66,1.53 3.73,3.52 3.82,7.57 0.07,3.11 0.37,3.05 -2.63,3.11 -1.73,0.03 -4.1,-0.11 -5.73,0.07 0.23,0.88 1.91,0.54 3.85,0.54 1.46,-0 3.11,-0.12 4.38,0.19 0.66,2.21 0.17,12.28 0.23,15.48 0.46,0.63 1.14,1.02 1.01,2.34 -0.18,1.85 -4.63,7.95 -5.89,9.91 -0.87,1.34 -1.7,2.57 -1.66,4.73 0.95,-0.15 2.24,-1.23 2.84,-1.68 1.58,-1.2 0.93,-0.79 1.8,-2.43 2.09,-3.95 8.73,-6.73 11.29,-5.47 1.72,0.85 0.87,1.56 1.31,2.92 0.65,1.99 0.3,1.87 0.11,3.77 0.29,-0.11 2.3,-2.02 2.66,0.52zm10.6 -10.31c0.29,-1.04 0.9,-3.35 0.9,-4.38l-1 0.07c-0.29,0.43 -1.08,3.71 -1.01,4.29l1.12 0.02zm13.32 2.42c-0.85,0.04 -1.84,-0.37 -2.96,-0.39 -1.11,-0.02 -2.26,0.42 -3.06,0.34l1.13 -5.91c1.03,-0.03 2.01,0.28 3.18,0.3 1.26,0.02 2.34,-0.2 3.47,-0.17 -0.17,0.82 -0.73,1.93 -1.01,2.82 -0.31,0.98 -0.5,2 -0.75,3zm0.71 1.33c0.39,-1.9 0.45,-3.08 1.1,-4.83l1.79 -3.98c-1.71,0.5 -2.09,0.95 -4.38,0.98 -2.08,0.03 -2.99,-0.4 -4.76,-0.59l-1.71 8.59c0.59,0 2.24,-1 3.96,-1.03 2.4,-0.04 3.23,0.84 3.99,0.86zm-46.24 -0.16c0.72,0.03 1.65,-2.47 2.57,-3.99 1.17,-1.94 2.88,-3.35 3,-3.74 -0.79,-0.02 -1.6,0.05 -2.37,0.03 -1.33,-0.04 -0.71,-0.38 -1.55,-0.67 -0.63,0.31 -1.16,0.72 -1.74,1.11l0.1 7.27zm-1.01 -17.75c-0.25,0.3 -0.25,0.1 -0.23,1.1 0.01,0.37 0.01,0.73 0.01,1.1 0,0.63 -0.16,1.65 0.22,2.11 0.54,-0.23 0.28,-1.54 0.28,-2.11 -0.01,-1.29 0.19,-1.89 -0.28,-2.19zm17.81 -5.13c0.21,-0.26 0.11,0.32 0.23,-0.49l0 -1.59c-0.07,-0.7 -0,-0.33 -0.23,-0.59 -0.26,0.29 -0.1,-0.4 -0.22,0.44 -0.03,0.26 0.02,1.84 0.22,2.22zm0.16 6.51c-0.08,0.12 -0.11,0.08 -0.19,0.34l-0.1 1.09c-0,0.16 0.01,0.65 0.03,0.79 0.19,0.99 0.03,0.22 0.25,0.58 0.07,-0.12 0.13,-0.14 0.19,-0.42 0.13,-0.57 0.07,-1.97 -0.19,-2.38zm-17.96 -8.6c0.31,-0.55 0.12,-2.69 0.12,-3.73 -0,-0.73 0.12,-0.76 -0.27,-1.06 -0.23,0.32 -0.33,4.35 0.16,4.79zm-36.35 26.48c-0.13,0.97 -0.06,2.17 0.22,2.91l0.08 0.31c0.08,0.13 0.17,0.22 0.27,0.35 0.03,0.04 0.12,0.15 0.14,0.19 0.18,0.25 0.03,-0.02 0.22,0.33 1.85,1.89 1.41,1.41 3.34,2.14 -0.07,1.88 -0.77,3.61 0.68,5.16 0.73,0.78 0.81,0.77 1.47,1.66 0.5,0.68 1,1.26 1.73,1.56 1.49,0.61 10.3,0.18 12.57,0.16 4.32,-0.03 8.65,-0.05 12.97,-0.09 1.19,-0.01 1.6,-0.09 2.52,-0.62 0.85,-0.49 1.59,-0.47 2.5,-0.77 2.54,-0.85 3.37,-2.2 4.19,-2.36 0.83,0.81 1.13,1.69 3.03,2.27 3.76,1.16 6.89,-1.88 7.94,-2.26 0.67,-0.24 1.38,-0.28 2.11,-0.54 0.7,-0.25 1.24,-0.7 1.92,-0.76 1.13,1.19 1.63,1.85 3.83,2.2 3.3,0.51 3.43,-0.88 4.45,-1.43 1.54,0.65 0.76,1.23 4.25,1.45 -0.1,1.26 -0.91,1.24 -0.19,3.16 0.36,0.96 0.87,2.05 1.4,2.65 1.37,1.56 4.6,1.22 6.89,1.2 2.64,-0.02 4.7,-0.14 5.68,-2.41 1.84,-4.3 -0.32,-4.78 -1.06,-5.68 0.16,-0.41 0.85,-1.31 1.16,-1.57 0.65,0.36 4.09,5.33 9.82,1.86 5.77,-3.49 7.89,-14.35 6.97,-20.68 -0.37,-2.53 -0.71,-3.34 -0.71,-6.19 0,-1.37 -0.16,-6.01 0.18,-6.87 1.03,-0.19 1.4,0.35 1.89,0.73 -0.22,1.06 -0.92,1.23 -1.11,3.8 -0.33,4.36 0.05,8.75 5.16,9.79 1.77,0.36 2.71,0.09 4.26,-0.21 1.04,-0.2 3.69,-0.01 4.94,-0.03 4.98,-0.07 5.32,0.41 5.28,-4.71 -0.02,-3.24 -0.08,-6.46 -0.1,-9.69 -0.02,-3.08 0.02,-6.36 -1.6,-8.43 -2.42,-3.1 -7.58,-3.73 -11.38,-2.83 -1.26,0.3 -2.97,1.34 -3.6,1.42 -2,-3.3 -3.4,-0.87 -5.43,-1.11 -1.78,-0.21 -5.66,-0.24 -7.35,-0.09 -1.91,0.16 -2.19,0.82 -2.39,2.57 -1.61,-0.84 -2.5,-2.8 -7.8,-2.85 -5.7,-0.05 -6.92,2.57 -7.88,2.65 -0.06,-1.6 0.29,-4.76 -0.38,-5.9 -0.89,-1.52 -3.05,-1.05 -5.17,-1.03 -7.17,0.04 -5.49,0.43 -5.76,6.86 -0.8,-0.23 -1.33,-1.18 -3.37,-1.84 -1.46,-0.47 -3.11,-0.6 -4.78,-0.55 -5.15,0.14 -6.79,2.59 -7.59,2.91 -0.63,-1.26 -0.14,-2.7 -2.54,-4.93 -1.31,-1.22 -2.96,-2.09 -5.17,-2.49 -7.73,-1.41 -10.32,3.04 -11.48,3.7 0.02,-1.2 0.28,-2.02 0.07,-3.24 -1.58,-1.36 -6.68,-1.56 -9.18,-0.91 -0.46,0.12 -1.63,0.46 -2.02,0.65 -1.63,0.8 0.24,4.42 -0.08,6.93 -2.21,0.52 -4.61,1.11 -6.48,1.98 -2.52,1.17 -3.17,1.78 -4.57,3.86 -0.92,1.35 -3.59,2.24 -2.9,5.41 0.4,1.83 1.04,0.9 0.59,3.05 -0.4,1.89 0.22,2.33 0.26,3.74 -1.3,0.91 -1.53,0.66 -2.2,2.45 -1.15,3.09 1.98,5.57 0.86,7.77 -0.49,0.96 -1.48,1.98 -1.57,3.26z"/>
   <path class="fil3" d="M23.28 34.9c0.66,1.47 2.58,4.59 1.89,6.86 -0.4,1.31 -1.29,1.71 -2.92,1.37 -0.76,-0.16 -3.22,-0.53 -3.71,-0.79 0.19,-0.1 -0.02,-0.05 0.29,-0.08 0.3,-0.03 0.05,-0.01 0.36,0 1.98,0.13 4.76,0.87 5.27,-0.91 0.28,-0.99 -0.07,-2.39 -0.35,-3.34 -0.2,-0.69 -0.95,-2.32 -0.98,-2.67 -0.19,-0.16 -0.11,-0.06 -0.29,-0.27l-0.43 -0.67c-0.27,-0.42 -0.41,-0.58 -0.58,-1 0.62,0.13 0.39,0.12 0.81,0.63 0.29,0.36 0.37,0.45 0.66,0.88zm-17.54 7.47c0.22,-0.18 0.14,0.03 0.42,-0.35l0 0.71c0.04,0.35 0.04,0.24 0.2,0.45l0.72 -0.4c0.07,-0.75 -0.56,-4.65 -0.69,-5.22 -0.04,0.13 -0.07,0.42 -0.07,0.42 -0.22,0.56 0.2,0.23 -0.34,0.53 -0.09,0.16 -0.36,0.92 -0.59,1.3 -0.76,1.25 -2.01,2.61 -0.87,4.34 1.98,3 4.64,0.52 5.41,0.36 -0.33,0.92 -0.97,0.61 -0.7,2.12 0.44,-0.13 0.81,-0.91 1.11,-1.22 0.43,-0.43 0.88,-0.7 1.53,-0.99 2.05,-0.9 1.98,-0.54 3.99,-0.52 0.56,0.16 1.27,0.59 1.5,1.04 -0.57,-0.08 -0.92,-0.31 -1.55,-0.47 -0.96,-0.24 -1.31,-0.16 -2.26,-0.1l-0.97 0.34c-0.04,0.03 -0.08,0.07 -0.12,0.09l-0.71 0.32c0.03,0.74 0.18,1.56 -0.07,2.26 -0.11,0.32 -2.08,2.18 -0.04,4.81l14.51 0.2c-1.24,0.4 -11.26,0.44 -13.49,0.47 -0.13,0.63 0.34,1.11 0.57,1.75 4.7,-0.31 13.34,-0.12 18.71,-0.14 1.74,-0.01 4.37,0.42 5.6,-0.57 -0.13,-0.68 -0.54,-0.74 -0.9,-1.41 -0.27,-0.5 -0.22,-1.22 -0.48,-1.7 -1.17,0.33 -3.19,3.32 -5.54,2.42 -1.45,-0.55 -2.59,-3.39 -2.56,-5.5l-5.17 -0.25c1.21,-0.55 3.62,-0.18 5.13,-0.44 0.98,-0.79 0.26,-3.46 8.8,-6.82 -0.08,-0.69 -0.13,-6.94 -0.04,-7.27 -2.56,-0.17 -4.47,-1.27 -5.88,-3.17 -1.62,-2.18 0.11,-1.75 -3.79,-1.86 -0.16,0.85 -1.06,1.55 -1.69,3.03 -0.11,0.26 -0.3,0.8 -0.56,0.9 -0.54,0.21 -5,-0.1 -5.85,0.09 0.25,0.22 -0.1,0.04 0.32,0.16 0.2,0.06 0.2,0.05 0.42,0.07 0.25,0.02 0.68,0 0.95,0.01 0.57,0.01 1.14,0.02 1.72,0.02 1.15,-0.01 2.27,-0.03 3.43,0.01 -0.92,0.37 -4.64,0.38 -6.04,0.5 0.06,0.43 0.95,1.43 1.51,2.46 0.47,0.88 0.84,1.77 1.08,2.82 1.32,5.8 -3.59,1.66 -11.26,3.73 -1.04,0.28 -1.96,0.55 -2.85,1.01 -0.54,0.28 -1.86,1.5 -2.51,0.96 -0.56,-0.57 0.09,-0.58 -0.04,-1.32z"/>
   <path class="fil4" d="M112.55 27.32l-0.3 -0.56c-0.46,-1.78 -0.23,-5.56 1.87,-5.85 0.33,1.05 0.22,5.57 -0.14,6.41 -0.65,0.19 -0.85,0.11 -1.43,-0zm1.85 2.1l0.02 1.38 6.62 0.04c0.18,-3.5 0.01,-12.94 -0.34,-16.81 -0.55,-6.04 -8.65,-5.57 -11.47,-4.28 -2.98,1.36 -3.95,3.68 -3.48,8.01 1.02,0.1 5.46,0.13 6.19,-0.15 0.48,-1.33 -0.38,-3.68 0.43,-4.47 0.38,-0.37 1.03,-0.39 1.34,0.11 0.35,0.57 0.52,1.78 0.51,2.46 -0.01,0.38 -0.05,0.71 -0.14,1.08 -0.58,2.22 -7.64,2.07 -8.22,5.98 -0.41,2.79 -0.25,6.51 1.55,7.69 2.27,1.49 6.11,0.92 7,-1.04zm-38.25 -2.68c0.08,0.67 0.02,0.53 0.52,0.84 0.67,-0.02 1.79,0.54 2.23,0.92 0.82,0.69 0.57,1.38 0.96,2.32 0.41,0.52 5.8,1.52 8.91,-0.58 2.6,-1.75 2.76,-4.24 2.72,-8.1l-6.35 0.1c-0.3,1.08 0.52,6.54 -1.76,5.38 -0.82,-0.42 -0.63,-2.05 -0.65,-3.11 -0.02,-1.02 -0.15,-2.74 0.07,-3.72l8.61 -0.1c0.29,-2 0.01,-6.58 -0.9,-7.9l-0.3 -0.54c-2.44,-4.05 -10.1,-3.69 -12.63,-1.02 -2.31,2.45 -1.75,7.59 -1.71,11.57 0.01,1.36 0.29,2.75 0.29,3.95zm-4.48 2.61c0.25,0.97 -0.03,1.27 0.15,2.03l0.91 -0c0.43,-0.46 0.43,-0.72 0.51,-1.47 0.64,-3.7 0.33,-8.02 0.29,-11.97 -0.04,-4.17 0.1,-8.61 -0.09,-12.74 -0.9,-0.22 -5.79,-0.12 -6.96,-0.04l0.16 22.36c1.42,-0.05 1.5,-0.38 3.05,0.18 0.83,0.3 1.86,0.84 1.98,1.65zm-26.17 -21.11l-0.32 -0.51c-1.08,-1.29 -2.36,-2.17 -4.74,-2.66 -2.08,-0.43 -4.5,-0.23 -6.29,0.53 -4.28,1.82 -4.06,5.56 -4.03,10.77 0.02,4.04 -0.56,10.47 1.55,13.26 0.85,1.12 2.76,2.35 4.81,2.54 3.76,0.35 4.39,-1.91 5.2,-2.2l0.58 1.53c0.98,0.24 3.3,0.1 4.47,0.06l-0.17 -14.06 -8.16 0.04c-0.16,0.89 -0.06,1.85 -0.08,2.75 -0.03,1.68 -0,1.11 1.39,1.29 0.21,1.02 0.07,2.62 0.02,3.7 -0.04,0.83 0.08,2.32 -1.1,2.44 -1.95,0.2 -1.34,-4.28 -1.35,-5.72 -0.01,-2.4 -0.03,-4.79 -0.04,-7.19 -0.01,-1.49 -0.66,-6.4 1.58,-5.35 0.98,0.53 0.6,3.99 0.68,5.46 0.87,0.24 5.81,0.12 7.01,0.07 0.18,-2.17 0.03,-5.25 -1.03,-6.74zm10.04 14.98c0.27,-0.81 1.01,-1.64 1.9,-1.73l-0.05 6.33c-1.24,0.08 -1.93,0.4 -2.05,-1.28 -0.09,-1.29 0.02,-2.15 0.2,-3.32zm-6.72 -7.32c-0.05,0.8 -0.12,1.66 0.08,2.44 0.63,0.23 4.42,0.13 5.56,0.07 0.81,-0.04 0.48,0.06 0.73,-0.31 0.31,-1.45 -0.35,-3.09 0.37,-4.51 2.1,-0.56 1.81,1.53 1.76,3.11 -0.03,1.02 -0.14,1.24 -0.9,1.66 -2.2,1.24 -6.77,1.9 -7.35,4.7 -0.5,2.38 -0.39,6.66 1.51,7.97 0.97,0.66 2.53,1.01 3.98,0.79 1.78,-0.26 2.18,-1.08 3.08,-1.88l0.03 1.36c0.7,0.33 5.66,0.24 6.57,0.04l-0.02 -10.26c-0.04,-6.28 0.6,-12.49 -9.1,-11.4 -1.5,0.17 -3.11,0.79 -4.26,1.62 -1.53,1.1 -1.93,2.83 -2.04,4.61zm33.87 -2.16c0.22,-0.65 0.62,-0.76 1.43,-0.63 0.23,0.36 0.44,0.62 0.39,1.24l-0.02 2.77 -1.84 0.08 0.03 -3.47zm17.62 -4.08c-1.23,-0.08 -5.64,-0.17 -6.55,0.1 -0.42,1.1 0.07,4.26 -0.08,5.75l0.03 11.55c1.86,0.13 1.99,-0.98 3.54,0.92 0.61,-0.22 0.85,-0.61 1.47,-0.79 1.04,-0.31 0.96,0.15 1.77,0.26 0.19,-2.27 -0.07,-4.97 0.01,-7.32 0.11,-3.34 1.15,-2.93 3.9,-3.48l-0.01 -7.45c-2.31,-0.35 -3.35,2.12 -4.29,2.79l0.23 -2.33z"/>
   <path class="fil5" d="M16.36 29.82c0.59,-0.3 1.21,0.09 1.39,0.59 -0.31,-0.05 -0.45,-0.08 -0.73,-0.18 -0.51,-0.18 -0.42,-0.13 -0.66,-0.41zm2.79 -8.52c1,-0.35 5.55,-0.18 6.96,-0.13 -0.59,0.49 -2.15,0.3 -3.52,0.38l-2.66 0.11c-0.83,-0.01 -0.56,0.09 -0.77,-0.36zm1.35 -6.01c0.2,-0.25 -0,-0.14 0.4,-0.3 0.13,-0.05 0.28,-0.04 0.42,-0.06 0.03,0.02 0.34,0.14 0.43,0.18 0.46,0.22 0.24,0.11 0.5,0.32 0.05,0.91 0.07,0.16 -0.26,0.47 -0.45,0.22 -0.22,0.36 -0.81,0.58 -0.28,-0.2 -0.71,-0.62 -0.98,-0.89 0.13,-0.29 -0.01,-0.2 0.29,-0.3zm-7.52 3.42c1.18,-0.96 0.84,-1.13 1.7,-2.12 0.34,-0.39 0.45,-0.61 0.96,-0.93 1.24,-0.79 1.35,-0.23 1.36,-0.23l-0.75 0.39c-0.98,0.37 -0.89,0.55 -1.44,1.35 -0.37,0.54 -1.16,1.87 -1.82,1.54zm6.91 -7.14l-2.81 0.77 -0.77 0.7c-0.31,0.19 -0.58,0.34 -0.9,0.51 -0.98,0.52 -4.63,2.37 -3.98,4.05 0.2,0.65 0.38,0.39 0.59,1.32 -0.98,-0.24 -1.03,-1.98 -2.69,-1.3 0.37,0.98 1.74,0.42 2.18,2.03 -0.23,0.26 -0.48,0.64 -0.8,0.95 0.25,0.92 -0.26,1.29 0.6,1.83l0.34 -0.06c-0.56,-1.72 -0.26,-2.91 1.88,-2.73 -0.61,0.56 -2.33,0.45 -1.66,2.39 0.21,0.62 0.04,0.19 0.25,0.44l1.09 0c0.42,-0.54 1.68,-1.52 2.24,-2 0.46,-0.4 1.86,-1.76 2.59,-1.61 0.35,-0.42 -0.33,-0.11 0.53,-0.39 0.29,-0.09 1.27,-0.03 1.55,-0.35 0.6,-0.71 -1.14,-2.83 -3.2,-1.34 -0.86,0.63 -1.95,2.37 -2.75,2.63 0.06,-0.2 1.93,-3.53 4.21,-3.51 2.57,0.02 3.32,3.45 1.04,3.71 -0.5,-0.68 -0.16,-0.73 -1.36,-0.63 -0.58,0.6 -0.66,0.25 -1.13,1.35 1.79,0.69 2.32,2.02 2.77,2.35 0.37,0.27 0.69,0.29 1.17,0.66 0.07,1.1 -0.26,0.74 -0.57,1.5 -0.06,0.97 0.41,1.69 -0.09,2.57 -0.34,0.59 -1.09,1.12 -1.84,1.22 -1.03,0.25 -1.56,0.57 -2.97,0.44 -0.38,-0.04 -2.9,-0.45 -3.13,-0.52l-0.07 -1.39c-0.69,0.12 -0.28,0.19 -0.78,0.72 -0.23,2.55 -3.25,0.95 -3.77,1.45 0.4,0.37 2.4,0.88 2.92,0.86l0.58 -0.04 0.34 0.71c0.47,0.02 0.55,-0.03 0.97,-0.02 1.81,0.06 2.66,-1.7 5.87,0.71l0.69 0.36c0.85,-0.19 5.31,0.12 5.85,-0.09 0.26,-0.1 0.44,-0.64 0.56,-0.9 0.63,-1.48 1.53,-2.18 1.69,-3.03l2.44 -0.28c0.48,-0.57 -0.2,-1.45 -0.04,-3.27 -0.29,-0.43 -0.2,-0.92 -0.21,-1.58l-0.09 -4.93 -4.61 -0.12c-0.19,-0 -1.12,-0 -1.19,-0.18 -0.02,-0.05 -0.08,-0.04 -0.12,-0.07l1.33 -0.06c0.85,0.16 3.94,0.1 4.66,-0.15 0.19,-0.58 0.17,-4.81 -0.02,-5.23 -0.36,-0.37 -0.19,-0.22 -0.86,-0.39 -1.93,-0.5 -1.48,-1.1 -2.05,-1.53 -0.75,-0.18 -2.02,-0.09 -2.73,-0.04 -0.69,0.73 -0.39,0.84 -1.54,1.27 -1.12,0.43 -1.08,0.28 -2.21,0.22z"/>
   <path class="fil3" d="M52.66 49.47c-0.83,0.45 -1.47,1.43 -3.04,1.16 -2.79,-0.48 0.38,-5.78 3.96,-6.49 -0.19,0.84 -0.75,1.53 -1.01,2.42 -0.39,1.35 0.01,1.64 0.09,2.91zm-23.64 -0.12c0.16,0.95 0.73,2.09 1.22,2.69 1.36,1.65 3.58,-0.44 4.95,-1.63 0.53,-0.46 1.37,-1.51 2.12,-1.68 -0.05,1.32 -0.51,2.87 0.3,3.91 1.48,1.89 4.77,-0.61 6.08,-1.7 0.57,-0.47 1.77,-1.84 2.34,-2.01 0.39,0.78 0.48,3.05 2.42,3.93 2.85,1.29 6.13,-2.15 6.84,-2.32 1.03,-0.25 1.56,-0.16 2.58,-0.57 1.1,-0.45 3.34,-1.89 2.22,-3.4 -0.83,0.33 -1.36,1.23 -2.45,1.52l-0.78 0.01 0.06 -0.61c0.38,-0.58 0.83,-1.72 0.94,-2.54 0.21,-1.55 -0.1,-1.86 -0.9,-2.62 0.23,-0.54 0.66,-0.62 0.38,-1.29 -0.87,-2.04 -6.59,0.12 -8.99,2.36 -2.9,2.72 -1.42,3.12 -3.02,4.32 -1.02,0.77 -3.27,2.69 -4.77,2.58 -1.26,-2.66 1.2,-5.84 2.25,-7.43 1.34,-2.05 2.71,-4.07 4.08,-6.25 2.29,-3.66 -0.28,-5.17 -3.01,-1.45 -1.27,1.73 -3.25,5.92 -3.77,6.42 -0.78,-0.35 -0.58,-0.71 -1.67,-0.64 -1.37,0.09 -2.13,0.46 -3.37,0.98 -2.1,0.88 -4.24,2.21 -5.42,4.22 -0.59,1.01 -0.8,2.05 -0.62,3.21zm9.77 -5.43c-0.28,1.38 -5.89,6.32 -6.64,5.58 -0.52,-0.51 0.09,-2.01 0.44,-2.48 1.01,-1.4 5,-3.1 6.2,-3.1z"/>
   <path class="fil6" d="M6.94 37.16c1.4,-0.07 2.44,-0.53 4.05,-0.69 0.15,-0.69 -0.11,-1.45 0.19,-1.87l0.3 1.05 0.3 0.53c1.52,-0.08 2.75,-0.47 4.24,-0.31 0.22,-0.25 0.08,0.13 0.17,-0.47l-0 -0.92c0.38,0.17 0.23,-0.07 0.49,0.45 0.07,0.14 0.13,0.38 0.18,0.52 0.77,0.12 -0.16,-0.47 1.4,-0.57 0.79,-0.05 0.91,0.39 1.82,0.42l0.06 -0.44c-0.16,-0.64 -2.38,-3.62 -4.28,-3.65 -0.21,0.31 -0.08,0.2 -0.22,0.43l-0.19 0.27c-0.01,0.02 -0.04,0.06 -0.07,0.08 -0.4,-0.61 -0.19,-0.38 0.12,-0.87 -1.05,-0.07 -1.88,0.05 -2.83,0.37 -1.63,0.54 -1,0.39 -1.66,1.54 -0.54,-0.55 -0.05,-0.4 -0.31,-1.01 -1.1,-0.38 -3.36,-1.49 -3.82,0.07 -0.41,1.41 -0.09,3.6 0.04,5.06z"/>
   <path class="fil1" d="M20.66 8.09c0.47,-0.29 0.95,-0.19 1.62,-0.2 1.02,-0.01 3.99,-0.23 4.42,0.04 -0.42,0.4 -3.56,0.28 -4.58,0.3 -0.18,0 -1.27,0.07 -1.35,-0.09 -0.02,-0.05 -0.08,-0.04 -0.11,-0.06zm0.28 -1.09c0.05,-0.44 5.14,-0.45 5.78,-0.16 -0.41,0.4 -5.09,0.44 -5.78,0.16zm-0.37 -2.03c0.58,-0.35 2.27,0.03 3.12,0.02l3.02 0.02c-1.47,0.29 -4.85,0.74 -6.13,-0.05zm-0.95 -0.45c-0.05,0.85 0.17,4.13 0.76,4.58 0.63,0.25 6.01,0.13 6.72,-0.08 0.23,-0.59 0.5,-3.52 0.45,-4.34 -2.07,-1.25 -5.55,-0.66 -7.93,-0.16z"/>
   <path class="fil6" d="M12.12 24.03c0.27,0.07 0.3,-0.04 0.44,0.23 0.24,0.5 -0.11,0.57 -0.13,0.6 -0.5,-0.16 -0.74,-0.28 -0.31,-0.82zm-0.38 -0.91c-0.46,0.92 -0.38,1.09 -0.15,2.04 0.13,0.78 0.74,1.69 1.21,1.97 0.76,0.44 2.23,-1.2 4,-2.15 0.75,-0.4 1.76,-0.69 2.34,-1.1 0.2,-1.64 -1.75,-3.51 -3.19,-3.04 -0.34,0.11 -1.45,1.11 -1.85,1.42 -1.25,0.97 -1.56,0.4 -2.36,0.85z"/>
   <path class="fil6" d="M11.19 27.79c0.23,-0.48 0.47,-0.59 0.47,-1.08 0,-0.41 -0.24,-0.7 -0.24,-1.25 -0.46,-0.45 -0.28,-0.42 -0.3,-0.47 -0.09,-0.24 0.02,-0.12 -0.1,-0.4l-0.44 0.43c-0.27,-0.12 -0.25,0.02 -0.21,-0.6 0.28,-0.29 -0.06,-0.07 0.43,-0.32 0.17,-0.09 0.13,-0.02 0.31,-0.09l0.07 -1.28c-0.94,-0.29 -1.08,-1.02 -2.51,-0.88 -0.39,0.37 -0.7,0.39 -1.09,0.81 -1.7,1.81 -1.66,5.87 1.11,6.25 1.74,0.24 1.71,-0.88 2.48,-1.09z"/>
   <path class="fil6" d="M11.75 36.97l0.02 0.43c0.37,0.55 0.42,1.54 0.73,2.21 0.38,0.81 1.18,0.79 2.29,0.68 1.96,-0.19 2.7,-2.07 1.74,-3.78 -0.16,-0.16 -1.97,-0.13 -2.37,-0.12 -0.91,0.02 -1.69,0.37 -2.41,0.58z"/>
   <path class="fil7" d="M9.54 52.16l2.11 0.04c-2.04,-2.63 -0.07,-4.49 0.04,-4.81 0.25,-0.71 0.1,-1.52 0.07,-2.26l0.71 -0.32c0.03,-0.02 0.08,-0.06 0.12,-0.09 -0.76,0.23 -1.82,0.87 -2.25,1.31 -0.56,0.57 -0.83,1.56 -1.33,1.94 -0.41,0.31 -0.61,0.25 -0.81,0.89 -0.23,0.75 -0.34,3.14 1.34,3.31z"/>
   <path class="fil8" d="M16.87 35.45c0.01,0.05 0.06,0.29 0.06,0.32 0,0.03 -0.04,0.15 -0.04,0.13 -0,-0.02 -0.06,0.08 -0.08,0.12 -0.73,-0.18 -0.25,0.15 -0.61,-0.62 -0.08,0.6 0.05,0.22 -0.17,0.47 -1.49,-0.16 -2.72,0.23 -4.24,0.31l-0.3 -0.53 0.26 1.31c0.72,-0.21 1.5,-0.56 2.41,-0.58 0.4,-0.01 2.21,-0.04 2.37,0.12 0.96,1.71 0.22,3.59 -1.74,3.78 -1.1,0.1 -1.91,0.13 -2.29,-0.68 -0.31,-0.67 -0.36,-1.66 -0.73,-2.21 -0.11,0.35 0.09,0.16 -0.24,0.17 0.39,1.37 0.19,2.47 -0.72,3.28 -0.76,0.68 -2.32,-0.06 -3.3,-0.4l0.33 1.75 4.47 -1.42c0.02,-0.05 0,-0.36 0,-0.38 0,-0.03 0.01,-0.08 0.02,-0.11 0.01,-0.03 0.03,-0.08 0.03,-0.11 0.01,-0.03 0.04,-0.08 0.05,-0.11 0.01,-0.02 0.03,-0.08 0.05,-0.11 0.67,1.33 2.18,0.27 4.36,0.4 0.05,-0.81 -0.01,-0.9 0.84,-0.94 -0.46,-0.55 -0.7,-2 -0.57,-2.89 0.71,-0.3 2.32,-0.38 2.92,-0.21 0.12,-0.38 -0.1,-0.03 0.28,-0.2 0.33,-0.15 0.33,-0.02 0.56,-0.22 -0.35,-0.74 -0.24,-0.74 -0.71,-1.06l-0.06 0.44c-0.91,-0.03 -1.03,-0.48 -1.82,-0.42 -1.57,0.11 -0.63,0.69 -1.4,0.57z"/>
   <path class="fil6" d="M7.54 37.51c-0.84,0.4 -0.2,2.12 -0.04,2.94 0.98,0.34 2.55,1.08 3.3,0.4 0.91,-0.81 1.11,-1.91 0.72,-3.28l-0.2 -0.52c-1.14,-0.19 -2.85,0.21 -3.79,0.46z"/>
   <path class="fil5" d="M19.62 24.52l-0.39 -0.07c-1.16,0.07 -2.7,1.04 -3.53,1.6 -1.43,0.96 -1.3,1.13 -2.65,1.71 -0.56,0.24 -0.19,-0.24 -0.49,0.34 0.43,0.26 -0.01,0.06 0.52,0.14 2.06,0.31 4.33,1.11 6.08,-1.39 0.61,-0.87 0.53,-1.16 0.47,-2.33z"/>
   <path class="fil5" d="M7.49 17.97c-1.16,1 -2.37,2.8 -0.68,4.44 0.82,-0.11 0.95,-0.76 2.06,-0.96l0.28 -0.35 -0.78 -0.89c0.93,0.01 1.17,1.2 2.03,1.49 0.23,-0.51 -0.09,-1.09 0.29,-1.26 0.78,-1.75 0.1,-1.15 -1.22,-2.05 -0.93,-0.63 -0.46,-0.68 -1.99,-0.43z"/>
   <path class="fil9" d="M5.99 38.51c0.54,-0.3 0.11,0.04 0.34,-0.53 0,-0 0.03,-0.29 0.07,-0.42 -0.11,-1.09 -0.64,-5.67 0.56,-6.52 1.07,-0.75 3.47,0.99 5.19,0.05 0.21,-0.11 0.2,-0.12 0.32,-0.22 -0.42,-0 -0.5,0.04 -0.97,0.02l-0.34 -0.71 -0.58 0.04c-0.38,0.5 -1.39,0.08 -1.79,-0.05 -7.22,-2.2 -2.56,4.44 -2.79,8.34z"/>
   <path class="fil10" d="M36.84 40.21l1.89 -0.38 -0.06 -6.92 -1.86 0.03c-0.1,0.34 -0.05,6.59 0.04,7.27z"/>
   <path class="fil6" d="M17.66 39.44c1.53,0.39 3.05,0.11 3.94,-0.76 0.25,-1.39 -0.48,-1.96 -1.59,-2.34 -0.6,-0.18 -2.21,-0.09 -2.92,0.21 -0.12,0.89 0.11,2.34 0.57,2.89z"/>
   <path class="fil3" d="M8.82 16.73l-0 0.55c1.35,-0.49 1.65,-0.19 2.62,0.33 -0.65,-1.68 3,-3.53 3.98,-4.05 0.32,-0.17 0.59,-0.32 0.9,-0.51l0.77 -0.7c-1.64,0.23 -3.42,0.93 -4.8,1.52 -0.6,0.26 -1.48,0.73 -1.96,1.17 -0.2,0.18 -0.61,0.6 -0.77,0.79 -0.26,0.31 -0.39,0.65 -0.74,0.89z"/>
   <path class="fil11" d="M9.87 52.96l2.81 -0.1c2.23,-0.03 12.25,-0.06 13.49,-0.46l-14.51 -0.2 -2.11 -0.04 0.34 0.17c0.35,0.11 -0.58,-0.06 0.25,0.05 0.13,0.02 0.44,0.01 0.58,0.01 0.52,-0 1.03,-0.01 1.55,-0 -0.93,0.85 -1.65,-0.03 -2.39,0.57z"/>
   <path class="fil12" d="M19.89 11.58c1.13,0.06 1.09,0.2 2.21,-0.22 1.14,-0.43 0.85,-0.55 1.54,-1.27 0.71,-0.05 1.98,-0.14 2.73,0.04 -0.15,-0.28 0.13,-0.38 -1.12,-0.37l-4.2 0.09c-0.13,0.26 -0.25,0.66 -0.45,0.95 -0.12,0.17 -0.18,0.21 -0.29,0.33l-0.33 0.36c-0.02,0.02 -0.06,0.06 -0.09,0.1z"/>
   <path class="fil1" d="M9.87 52.96c0.49,1.61 1.51,1.65 3.38,1.64 -0.23,-0.64 -0.7,-1.11 -0.57,-1.75l-2.81 0.1z"/>
   <path class="fil8" d="M17.66 39.44c0.09,0.36 0.21,0.61 0.43,0.9 0.78,0.15 1.76,0.17 2.63,0.13 0.51,-0.02 0.82,0.01 1.01,-0.4 0.08,-0.17 0.11,-0.52 0.09,-0.71 -0.07,-0.68 -0.22,-0.69 -0.22,-0.69 -0.9,0.87 -2.41,1.15 -3.94,0.76z"/>
   <path class="fil13" d="M18.37 28.66c0.75,-0.1 1.51,-0.63 1.84,-1.22 0.5,-0.88 0.03,-1.6 0.09,-2.57 -0.31,0.43 -0.25,1.37 -0.75,2.07 -0.42,0.58 -0.91,1.09 -1.18,1.72z"/>
   <path class="fil14" d="M12.98 18.72c0.66,0.33 1.46,-1 1.82,-1.54 0.55,-0.8 0.46,-0.98 1.44,-1.35l0.75 -0.39c-0.01,-0.01 -0.12,-0.56 -1.36,0.23 -0.51,0.32 -0.62,0.54 -0.96,0.93 -0.86,0.99 -0.52,1.17 -1.7,2.12z"/>
   <path class="fil15" d="M6.94 37.16l0.59 0.35c0.94,-0.25 2.65,-0.64 3.79,-0.46 -0.31,-0.61 -0.12,-0.24 -0.08,-0.98 0.02,-0.33 -0.02,-0.54 -0.03,-0.89l0.27 0.47 -0.3 -1.05c-0.3,0.42 -0.04,1.18 -0.19,1.87 -1.62,0.16 -2.65,0.61 -4.05,0.69z"/>
   <path class="fil16" d="M33.86 47.01c1.08,0.07 2.2,-0.72 2.28,-1.5 -0.58,0.17 -1.98,0.89 -2.28,1.5z"/>
   <path class="fil15" d="M16.82 40.38l1.28 -0.04c-0.22,-0.29 -0.34,-0.54 -0.43,-0.9 -0.85,0.05 -0.79,0.14 -0.84,0.94z"/>
   <path class="fil17" d="M11.32 37.06l0.2 0.52c0.33,-0.01 0.14,0.18 0.24,-0.17l-0.02 -0.43 -0.26 -1.31 -0.27 -0.47c0.01,0.35 0.05,0.56 0.03,0.89 -0.04,0.74 -0.23,0.37 0.08,0.98z"/>
   <path class="fil15" d="M16.2 35.4c0.37,0.77 -0.11,0.43 0.61,0.62 0.02,-0.04 0.08,-0.14 0.08,-0.12 0,0.02 0.04,-0.1 0.04,-0.13 -0,-0.03 -0.05,-0.27 -0.06,-0.32 -0.05,-0.13 -0.11,-0.37 -0.18,-0.52 -0.26,-0.52 -0.11,-0.29 -0.49,-0.45l0 0.92z"/>
   <path class="fil18" d="M20.84 15.91c0.49,-0.09 0.19,0.02 0.47,-0.18 0.47,-0.33 -0.18,-0.07 0.49,-0.35 0.37,0.29 0.11,-0.07 0.18,0.53 0.34,-0.31 0.31,0.44 0.26,-0.47 -0.26,-0.21 -0.04,-0.1 -0.5,-0.32 -0.08,-0.04 -0.39,-0.16 -0.43,-0.18 -0.13,0.59 0.31,0.14 -0.52,0.5l0.04 0.47z"/>
   <path class="fil18" d="M19.23 24.45l0.39 0.07c0.62,-0.35 1.48,-1.05 0.31,-1.27l0 0.81c-0.41,0.14 -0.41,0.06 -0.7,0.39z"/>
   <path class="fil17" d="M16.36 29.82c0.24,0.27 0.15,0.22 0.66,0.41 0.28,0.1 0.41,0.13 0.73,0.18 -0.18,-0.5 -0.8,-0.89 -1.39,-0.59z"/>
   <path class="fil18" d="M33.05 48.12c0.53,-0.1 0.56,-0.12 0.66,-0.65 -0.48,0.12 -0.61,0.14 -0.66,0.65z"/>
   <path class="fil19" d="M112.55 27.32l-0.2 -0.46c-0.01,-0.08 -0.07,-0.07 -0.1,-0.1l0.3 0.56z"/>
   <polygon class="fil19" points="57.12,27.95 57.41,27.36 "/>
  </g>
 </g>
</svg>
