<?xml version="1.0" encoding="UTF-8"?>
<!DOCTYPE svg PUBLIC "-//W3C//DTD SVG 1.1//EN" "http://www.w3.org/Graphics/SVG/1.1/DTD/svg11.dtd">
<!-- Creator: CorelDRAW -->
<svg xmlns="http://www.w3.org/2000/svg" xml:space="preserve" width="59.6113mm" height="33.5599mm" version="1.1" style="shape-rendering:geometricPrecision; text-rendering:geometricPrecision; image-rendering:optimizeQuality; fill-rule:evenodd; clip-rule:evenodd"
viewBox="0 0 134.42 75.67"
 xmlns:xlink="http://www.w3.org/1999/xlink"
 xmlns:xodm="http://www.corel.com/coreldraw/odm/2003">
 <defs>
  <style type="text/css">
   <![CDATA[
    .str0 {stroke:black;stroke-width:0.17;stroke-miterlimit:22.9256}
    .fil4 {fill:lime}
    .fil0 {fill:#050C04}
    .fil6 {fill:#3E881F}
    .fil5 {fill:#447C27}
    .fil1 {fill:#61F211}
    .fil7 {fill:#6BE734}
    .fil3 {fill:#D7D7D7}
    .fil2 {fill:#F8F8F8}
   ]]>
  </style>
 </defs>
 <g id="Camada_x0020_1">
  <metadata id="CorelCorpID_0Corel-Layer"/>
  <g id="_2076109170032">
   <path class="fil0" d="M66.28 2.43c0,-0.66 -0.13,-0.92 -0.13,-1.72 -14.24,0 -28.4,-0.27 -42.55,-0.27 -0.08,0.97 -0.58,1.85 -0.66,2.78 -0.6,-0.16 -1.52,-1.32 -2.1,-1.74 -2.51,-1.86 -6.81,-1.77 -9.45,-0.8 -6.58,2.44 -7.42,8.59 -9.02,14.44 -0.91,3.3 -2.95,9.88 -1.7,13.16 1.06,2.77 2.74,2.48 4.38,3.57l0 1.06c-0.88,0 -1.44,0.13 -2.12,0.13 -0.09,1.1 -0.62,2.09 -0.87,3.24 -0.23,1.04 -1.6,6.16 -1.44,6.87 0.1,0.44 1.31,0.23 1.78,0.23 0.71,-0 1.41,0 2.12,0 -0.08,3.8 -4.51,15.53 -4.51,19.49l7.95 0c-0.06,2.52 -2.08,5.78 -2,8.35 0.06,1.85 2.12,2.07 2.98,0.98 0.29,-0.36 1.41,-3.09 1.53,-3.63l0.26 0c0.06,0.71 0.75,2.82 0.94,3.7 0.87,4.06 3.28,4.39 4.35,1.45 0.21,-0.58 0.72,-3.63 0.93,-3.84 0.29,-0.28 0.48,0.09 1.98,-0.41 0.65,-0.22 1.33,-0.01 2.1,-0.28l2.91 -1.86c0.4,-0.33 0.24,-0.26 0.49,-0.69 0.48,-0.84 0.46,-0.19 0.96,-1.45 0.93,-2.32 1.57,-2.32 3.64,-2.32 -0.1,1.24 -0.58,2.32 -0.88,3.5 -0.19,0.76 -0.8,2.87 -0.71,3.64 0.21,1.68 2.2,2.52 3.44,0.02 0.12,-0.24 0.23,-0.43 0.34,-0.72 0.14,-0.36 0.18,-0.58 0.32,-0.87 2.49,0 4.89,-0.17 7.03,-1.19 0.11,1.28 0.46,2.39 1.74,2.51 1.52,0.14 1.72,-1.2 2.5,-1.72 0.09,0.41 0.13,0.35 0.28,0.65 0.33,0.65 0.53,1.33 1.36,1.55 1.21,0.32 2.27,-0.38 3.04,-0.69 1.13,-0.46 2.29,-0.05 3.22,0.26 1.07,0.36 1.69,1.21 2.86,0.92 1.13,-0.28 2.58,-0.6 3.53,-1.25 2.29,-1.55 1.44,-0.7 3.16,-3.73 1,-1.77 0.42,-1.24 0.04,-2.88 1,0 2.11,-0.13 3.05,0.13 -0.02,0.03 -0.03,0.04 -0.04,0.1l-0.09 0.31c-0.01,0.06 -0.06,0.4 -0.07,0.46 -0.04,0.27 -0.08,0.64 -0.13,0.93 -0.32,1.93 -1.01,3.56 -1.01,5.62 -0.65,0 -0.98,-0.14 -1.43,-0.1 -1.3,0.1 -2.96,1.04 -1.97,2.58 0.24,0.38 0.54,0.66 0.9,0.82 1.3,0.59 3.21,0.17 4.42,-0.19 2.12,-0.62 4.07,-1.51 5.67,-2.81 0.36,-0.29 0.59,-0.49 0.94,-0.79 0.63,-0.53 1.29,-1.06 1.95,-1.5 0.4,0.6 0.67,1.36 1.36,1.69 1,0.48 1.86,-0.08 2.75,-0.1 0.81,1.4 -0.51,3.96 5.02,2.37 3.22,-0.93 6.38,-1.92 9.29,-3.43 1.68,-0.87 1.25,0.56 3.03,0.39 0.71,-0.07 0.94,-0.44 1.7,-0.09 1.4,0.65 1.67,0.87 2.73,-0.26 0.38,-0.41 0.72,-0.8 1.16,-1.09 0,1.56 0.1,3.7 2.24,3.44 0.85,-0.1 1.26,-0.67 1.91,-0.89 2.27,-0.76 2.3,0.77 5.13,-3.48 1.85,-2.77 1.44,-1.79 0.93,-3.98 4.01,-0.93 6.63,1.58 9.43,-1.97 0.42,-0.54 0.83,-1.14 1.35,-1.57 0.19,-0.16 0.22,-0.16 0.36,-0.3 2.17,-2.17 1.96,-2.58 2.73,-5.63 0.82,-3.27 1.52,-6.35 2.33,-9.6 0.29,-1.16 1.05,-3.58 0.89,-5.05 -0.18,-1.6 -1.67,-2.62 -1.71,-4.26 1.22,-0.33 1.47,-2.46 1.75,-3.55 0.36,-1.41 0.71,-2.85 1.09,-4.35 0.5,-2.02 6.34,-24.69 6.44,-25.9l-9.68 -0.14c-1.32,0.01 -1.68,0.36 -2.51,0.8 -0.5,-0.95 -0.48,-0.81 -1.85,-0.8l-13.39 0c-1.9,0 -3.36,-0.13 -5.3,-0.13 -7.2,0 -14.4,0 -21.61,0 -0.69,1.45 -0.83,1.41 -1.46,0.27l-3.31 -0.13c-1.57,0 -5.85,-0.19 -7.09,0.07 -0.75,0.16 -1.28,0.49 -1.53,1.11 -0.3,0.73 0.3,0.31 -0.39,0.54z"/>
   <path class="fil1" d="M66.53 16.82l0.47 0.11 -0.15 0.86c-0.93,4.39 -3.46,12.12 -3.78,15.27l6.18 -0.05c0.14,-0.93 0.55,-2.22 0.83,-3.31l2.57 -10.29c0.69,-2.66 2.24,-7.78 2.64,-10.22 0.24,-1.45 0.74,-2.18 0.95,-3.5 0.1,-0.95 -0.98,-0.37 -1.13,-0.3l0.53 -1.15c0.1,0.31 0.42,0.55 0.83,0.59 0.28,-0.52 0.65,-1.97 0.64,-2.63l-8.9 0.06c-0.21,0.33 -0.18,-0.08 -0.6,0.98l-1.31 3.52c-0.11,0.62 0.14,1.14 0.45,1.46l-1.1 0.31c-0.3,0.36 -1.03,2.54 -1.27,3.14l-1.11 2.73c-0.16,0.24 -0.18,0.24 -0.32,0.39 0.06,-3.89 0.35,-2.93 0.84,-6.22 0.29,-1.93 0.71,-4.43 0.63,-6.39 -2.11,-0.06 -7.3,-0.46 -8.92,0.22 -0.84,0.76 -4.45,17.57 -5.73,20.77 -0.27,0.67 -0.21,1.37 -0.41,2.11 -0.71,2.63 -1.64,5.06 -1.96,7.91l6.03 0c0.92,-2.08 0.24,-0.2 0.63,-2.27l1.76 -7.01c0.93,-2.41 1.94,-7.76 2.59,-9.15 0.03,0.25 0.14,0.9 0.15,1.1 0.02,0.58 -0.11,0.41 -0.29,0.97 -0.19,0.57 -0.25,1.64 -0.35,2.3 -0.23,1.53 -0.46,3.09 -0.68,4.63 -0.45,3.12 -0.83,6.07 -1.14,9.25l4.24 0.04c0.51,-1.28 1.11,-2.48 1.65,-3.88 1.57,-4.06 3.27,-8.19 4.53,-12.34z"/>
   <path class="fil2" d="M120.24 31.89c0.26,-1.9 2.48,-10.82 3.17,-12.01l3.52 -0.04c-0.31,2.04 -2.46,10.95 -3.26,12.01l-3.44 0.04zm-5.55 -11.67c2.11,-0.52 3.13,-0.22 5.24,-0.16 -0.03,0.14 -0.06,0.39 -0.1,0.52 -0.1,0.32 0.05,0 -0.17,0.38 -1.4,2.46 -2.1,5.12 -3.29,8.11 -0.2,0.51 -0.39,0.96 -0.61,1.52 -0.1,0.25 -0.2,0.56 -0.29,0.77 -0.29,0.68 -0.08,0.53 -2.3,0.53l1.5 -11.66zm-9.9 11.71c-0.28,-1.1 0.92,-4.94 1.24,-6.05l1.38 -5.11c0.24,-0.86 0.02,-0.59 3.79,-0.58 -0.76,3.78 -1.78,8.57 -3.16,11.79l-3.25 -0.05zm-1.59 0.27c0.81,0.16 2.12,0.04 2.99,0.03 1.7,-0.02 1.41,0.38 2.43,0.72 0.4,-0.63 0.69,-0.92 1.05,-1.85 0.5,-1.28 1.44,-5.37 1.89,-6.99 0.45,-1.61 2.04,-8.47 2.58,-9.38 0.01,0.8 -0.18,1.38 -0.28,2.14 -0.13,1.03 0.17,1.59 -0.13,2.37 -0.46,1.2 -1.86,11.73 -1.82,12.97l4.54 0.04c0.37,-1.17 3.67,-10.17 4.3,-11.3 0.47,-0.84 0.43,-1.77 0.8,-2.38 0.8,-1.3 1.15,-3.13 1.83,-4.49 0.05,0.37 -0.22,2.09 -0.34,2.43 -0.92,2.67 -1.1,3.78 -1.85,6.62 -0.49,1.85 -2.27,7.62 -2.28,9.09 1.1,0.03 2.07,0.03 3.17,0.01 1.58,-0.03 1.64,0.3 2.81,0.56 0.93,-4.11 2.82,-10.9 3.98,-15.23 0.8,-3 3.62,-13.11 3.87,-15.4l-9.1 0.02c-0.39,0.81 -0.89,2.42 -1.23,3.35 -0.34,0.9 -3.33,9.3 -3.81,9.81 -0.12,-1.35 0.58,-5.06 0.79,-6.61 0.29,-2.09 0.68,-4.4 0.76,-6.57l-9.04 -0c-0.48,2.46 -1.34,5.08 -2.08,7.35 -0.43,1.31 -0.44,2.62 -0.84,3.93 -0.37,1.21 -0.71,2.46 -1.04,3.73 -0.16,0.63 -0.18,1.48 -0.39,1.97 -1.22,2.79 -2.43,9.73 -3.56,13.06z"/>
   <path class="fil1" d="M20.68 25.89c0.5,-0.33 -0.01,-0.25 0.66,-0.27 -0.22,-0.17 0.05,-0.19 -0.14,0.17 -0.18,0.34 -0.05,0.19 -0.26,0.36 0.04,0.03 0.27,0.36 0.05,0.01l-0.31 -0.28zm0.13 -3.31c0.39,-0.23 0.25,-0.21 0.53,-0.13 -0.1,0.29 -0.01,0.01 -0.09,0.34l-0.04 0.19c-0.2,-0.14 0.23,-0.02 -0.4,-0.13l-0 -0.27zm20.02 -20.52l-6.76 -0.08c-0.02,0.03 -0.05,0.04 -0.05,0.09 -0.01,0.05 -0.04,0.07 -0.05,0.1 -0.01,0.03 -0.07,0.16 -0.09,0.2l-0.87 3.24c-0.37,1.37 -2.44,8.69 -2.5,9.42 -0.11,1.21 -0.25,0.88 -0.54,1.85 -0.44,1.48 -2.61,10.6 -3.18,11.13 -0.4,0.37 -3.46,0.69 -4.16,0.07 0.54,-0.14 1.08,-0.29 1.67,-0.43 0.81,-0.19 0.85,-0.39 1.14,-1.13 0.44,-1.1 4.03,-15 4.62,-17.25 0.53,-2.02 1.49,-5.16 1.64,-7.26l-6.91 -0.05c-0.61,2.22 -0.22,0.52 -0.45,2.44 -0.07,0.6 -0.22,0.25 -0.47,0.93 -0.14,0.38 -0.2,0.76 -0.3,1.16 -1.15,4.59 -2.54,9.2 -3.62,13.75 -0.35,1.48 -0.37,2.58 -0.72,3.52 -0.58,1.53 -1.24,4.77 -0.85,6.33 0.11,0.43 0.81,1.34 1.09,1.67 1.97,2.35 6.17,2.37 8.99,1.34 0.7,-0.25 1.05,-0.25 1.49,-0.6 0.17,-0.14 0.23,-0.23 0.43,-0.38 0.94,-0.75 0.79,-0.47 1.5,-1.41 0.39,-0.52 0.71,-0.36 1.41,-1.51 1.45,-2.4 4.45,-14.23 5.34,-17.73 0.2,-0.8 0.28,-1.61 0.47,-2.45 0.3,-1.34 1.83,-4.7 1.75,-6.97z"/>
   <path class="fil1 str0" d="M1.68 25.47c0.31,0.28 -0.38,0.24 0.4,0.24 0.28,-0.3 0.49,-0.24 0.62,-0.39 0,0.58 -0.19,0.82 -0.44,1.16 -0.13,-0.28 0.11,0.22 -0.07,-0.22 -0.28,-0.69 0.34,0.52 -0.08,-0.19 -0.08,-0.14 -0.31,-0.39 -0.5,-0.36 0.05,1.56 0.65,2.65 1.5,3.44l2.99 1.41c0.14,0 0.5,-0.05 0.67,-0.06l-0.28 2.42c1.06,0.53 1.28,0.71 2.8,0.79 1.28,0.06 2.03,0.14 3.34,0.03 1.32,-0.11 2.11,0.7 2.74,-0.3 0.32,-0.52 0.66,-2.36 0.68,-3.07 -0.7,0.1 -1.41,0.07 -2.11,0.08 -0.98,0.02 -1.28,0.04 -1.64,-0.68 -0.07,-0.11 -0.04,-0.01 -0.14,-0.3 -0.03,-0.07 -0.02,-0.16 -0.03,-0.26 -0.19,0.37 -0.14,0.31 -0.46,0.52 -0.37,-0.27 -0.61,-0.45 -0.78,-0.92 0.42,-0.23 0.69,-0.38 1.41,-0.36l-0.06 0.59c0.66,-0.13 1.25,-0.45 1.87,-0.72 1.1,-0.47 1.14,-0.29 1.64,-0.88 0.85,-1 1.36,-1.77 1.86,-3.18l1.19 -3.84c0.78,-2.77 2.76,-10.01 3.04,-12.21 1.24,-9.55 -11.13,-7 -13.32,-4.03 -0.09,0.12 -0.1,0.17 -0.23,0.29 -0.34,0.32 -0.48,0.14 -1.04,0.96 -1.89,2.77 -2.97,8.1 -3.87,11.51 -0.71,2.7 -1.41,5.55 -1.7,8.53zm9.85 -4.07c-0.05,0.98 -0.01,0.31 0.54,1.17 -0.11,0.44 -0.12,0.39 -0.4,0.65 -0.66,-0.19 0.1,-0.15 -0.66,-0.23 -0.47,0.95 -0.55,1.97 -1.2,2.9 -0.27,0.37 -0.12,0.25 -0.62,0.44 -0.57,0.22 -0.35,-0.08 -0.44,0.31 -0.41,-0.24 -0.63,-0.5 -1.02,-0.76 0.22,-0.31 0.61,-0.9 0.86,-1.18 0.61,-3.14 1.33,-5.81 2.16,-8.75 0.67,-2.4 1.87,-6.17 1.97,-8.77 -0.35,-0.14 -0.59,-0.31 -1.03,-0.42 -0.47,-0.12 -0.76,-0.05 -1.09,-0.22 1.66,-0.58 2.74,-0.22 4.37,-0.01 -0.01,2.63 -1.8,8.26 -2.62,11.16 -0.33,1.18 -0.55,2.55 -0.83,3.71z"/>
   <path class="fil1" d="M33.97 33.27c3.35,0 6.69,0 10.03,0.01 0.68,0 1.79,0.24 2.2,-0.28 0.21,-0.26 0.52,-1.55 0.59,-1.95 0.42,-2.48 0.74,-2.08 0.96,-4.03 -1.27,-0.24 -3.55,-0.02 -4.97,0l1.52 -6.64 4.48 -0.21c0.21,-1 1.6,-5.3 1.5,-5.86l-4.04 -0.12c0,-1.91 0.81,-2.8 0.69,-4.75 -1.05,-0.71 -1.67,-0.61 -2.16,-0.96 1.37,-0.23 1.07,-0.27 2.29,-0.23 1.59,0 3.71,0.5 5.09,-0.09 0.44,-0.92 1.59,-4.88 1.51,-6.11 -2.11,0 -4.23,-0 -6.34,-0l-4.77 -0.01c-0.51,0.08 -0.43,0.27 -0.63,0.93 -2.06,6.75 -5.01,17.98 -6.75,25.07 -0.27,1.1 -1.22,4.28 -1.19,5.22z"/>
   <path class="fil2" d="M68.73 48.2l-0.03 0.58c0.49,0.12 3.52,-0.07 4.34,-0.07 2.83,0.01 11.99,0.51 13.64,-0.15l3.02 -12.11c0.08,-0.82 -0.51,-1.77 -1.06,-1.91 -0.69,-0.18 -5.02,-0.02 -6.07,-0.02 -0.5,1.34 -1.45,5.06 -1.58,6.61 -0.07,0.84 -0.21,0.78 -0.48,1.51 -0.54,1.48 -0.61,3.68 -1.34,4.84 -0.76,-8.14 -0.91,-5.11 0.21,-12.97 -1.19,-0.05 -6.89,-0.18 -7.56,0.1 -0.21,0.42 -0.24,1.05 -0.41,1.59 -0.5,1.63 -0.6,1.43 -0.77,3.46 -0.07,0.91 -0.25,0.52 -0.52,1.6 -0.15,0.58 -0.26,0.97 -0.47,1.51 -0.27,0.7 -0.17,1.11 -0.32,1.8 -0.25,1.13 -0.89,2.35 -0.61,3.61z"/>
   <path class="fil2" d="M78.99 31.83c-0.18,-1.66 1.36,-5.89 1.79,-7.6 0.19,-0.76 0.58,-3.33 1.01,-3.62 0.28,-0.19 3.91,-0.13 4.51,-0.05l-2.91 11.31 -4.41 -0.04zm2.22 -29.68c-0.25,0.82 -1.55,4.92 -1.45,5.88 0,0.02 0.01,0.07 0.02,0.09 0,0.02 0.02,0.07 0.03,0.08 0,0.02 0.02,0.05 0.03,0.08l6.48 0.13c-2.08,1.77 -2.29,-1.43 -3.73,4.62 -0.43,1.8 -0.88,2.53 -1.01,3.09 -0.19,0.78 -0.4,3.08 -0.69,3.55 -0.22,0.35 -0.04,-0.34 -0.37,0.56l-1.54 5.89c-0.58,2.25 -1.29,4.5 -1.6,6.93l6.94 0c0.18,-0.54 0.31,-1.1 0.47,-1.65 0.21,-0.73 0.45,-1.04 0.56,-1.68 0.66,-3.91 3.39,-13.61 4.56,-17.72 0.18,-0.64 0.72,-2.92 1.02,-3.34 0.38,-0.54 1.05,-0.36 1.87,-0.33 0.84,0.03 1.46,-0.04 2.28,-0.07l1.57 -6.17 -15.43 0.07z"/>
   <path class="fil2" d="M90.67 31.85c0.03,-0.03 0.07,-0.12 0.08,-0.09 0.15,0.27 1.09,-2.39 1.1,-2.42 0.3,-0.94 0.56,-1.88 0.82,-2.88 0.48,-1.81 0.86,-4.25 1.47,-5.96 1.68,-0.23 2.92,-0.18 4.62,-0.18 -0.26,1.44 -0.6,2.62 -1,3.93 -0.29,0.96 -0.9,2.94 -0.82,3.98l4.79 0.07c0.18,1.05 -0.56,2.51 -0.74,3.59l0.75 -0.06c0.12,-0.21 0.18,-0.46 0.31,-0.74l0.5 -0.81c0.42,-0.88 0.68,-2.02 0.69,-3.18 -0.84,-0 -4.23,0.17 -4.7,-0.21 -0.26,-0.6 0.81,-4.31 1.08,-5.13 0.37,-1.15 0.29,-1.37 1.67,-1.52 1.05,-0.11 2.21,0.08 3.17,-0.15 0.37,-0.9 1.35,-4.75 1.33,-5.72l-4.01 -0.13c0.32,-3.16 0.92,-2.05 0.92,-4.76 -0.39,-0.17 -0.65,-0.35 -1.06,-0.53 -0.33,-0.15 -0.84,-0.24 -1.16,-0.4 1.23,-0.59 5.64,-0.18 7.36,-0.19l1.6 -6.25 -11.64 0.04c-0.52,0.84 -1.56,5.99 -2.02,7.42 -0.16,0.5 -0.5,1.09 -0.58,1.65 -0.12,0.86 -0.12,1.25 -0.34,2.07 -0.31,1.17 -0.88,2.48 -1.05,3.72 -0.04,0.3 -0.03,0.62 -0.12,0.92 -0.13,0.41 -0.21,0.31 -0.39,0.82l-1.47 5.68c-0.28,1.1 -2.01,6.97 -1.88,7.43 0.22,0.12 0.32,0.15 0.69,-0.01z"/>
   <path class="fil2" d="M17.96 47.28l-0.2 1.4 5.71 0.07c0.9,-0.02 0.9,-0.3 1.33,-0.67l1.77 -6.91 3.3 0.04c0.03,1.98 -1.17,4.02 -1.3,6.47l0.02 1.06c1.68,-0 5.63,0.18 7.06,-0.15 0.25,-2.25 1.15,-5.07 1.72,-7.21 0.74,-2.78 0.2,-2.33 -0.91,-5.04 -0.2,-0.5 -0.43,-1.23 -0.66,-1.64 -1.38,-0.28 -9.45,-0.38 -11.29,-0.1 -0.53,0.08 -0.32,0.01 -0.63,0.3l-3.31 3.47c-0.82,1.01 -0.92,0.95 -1.34,2.5 -0.35,1.29 -1.38,5.16 -1.28,6.4z"/>
   <path class="fil2" d="M105.24 46.25l-0.31 2.59c1.59,-0.02 5.93,0.32 7.04,-0.55l1.72 -6.67c0.05,-0.19 0.08,-0.37 0.15,-0.52 0.15,-0.35 -0.01,-0.49 3.84,-0.46 0.05,1.98 -1.55,5.13 -1.37,6.65 0.04,0.46 -0.07,1.18 0.02,1.47l6.7 -0.19c0.03,-0.06 0.13,-0.25 0.13,-0.25l0.24 -0.3c0.59,-1.24 1.24,-4.65 1.59,-6.25 0.89,-4.06 -0.14,-2.93 -1.1,-6.01l-6.97 0.12c-7.17,-0.21 -6.1,-0.63 -8.85,2.1 -1.99,1.98 -1.06,1.79 -1.92,3.66 -0.3,0.65 -0.3,0.7 -0.4,1.46 -0.14,1.05 -0.27,2.19 -0.51,3.15z"/>
   <path class="fil2" d="M51.33 47.35l-0.22 1.38 13.31 0 0.29 -0.01 0 -0.66 0.37 -0.05 0.74 -2.91 -6.24 -0.06c-0.29,-1.41 0.67,-3.32 0.96,-4.44l8.24 -0.03c0.49,-1.09 1.26,-4.67 1.58,-6.05l-16.12 -0c-0.31,1.14 -0.67,1.89 -0.78,3.11 -0.15,1.62 -1.17,4.58 -1.6,6.32 -0.34,1.35 -0.36,2.09 -0.53,3.39z"/>
   <path class="fil3" d="M123.39 48.03l-0.24 0.3c-0,0.01 -0.11,0.19 -0.13,0.25l-6.7 0.19c-0.09,-0.3 0.02,-1.01 -0.02,-1.47 -0.31,0.36 -0.1,0.54 -0.23,1.09 -0.07,0.3 -0.23,0.52 -0.36,0.84 -0.54,1.42 -0.91,4.73 -1.59,6.03l-3.76 -0.05 1.6 -6.91c-1.11,0.87 -5.45,0.53 -7.04,0.55l0.31 -2.59c-0.57,0.74 -1.29,4.54 -1.62,5.85 -0.5,2.02 -1.43,4.11 -0.36,6 1.79,0.44 2.18,0.02 3.01,1.46 2.12,-0.28 7.37,-1.78 8.53,-0.67 0.89,0.84 -0.04,1.65 -0.12,2.49 3.22,-0.1 2.4,-0.19 3.7,-1.67 0.91,-1.03 1.83,-1.7 2.66,-2.9 0.96,-1.38 1.95,-6.66 2.34,-8.77zm-95.85 13.35l2.57 0.04c0.16,-0.47 0.69,-1.7 0.53,-2.15 -0.57,-0.17 -1.21,0.44 -1.73,0.71 -0.54,0.28 -1.3,0.67 -1.37,1.4zm40.85 0.03c0.99,0.01 2.97,-0.08 3.8,0.19 0.29,-2.07 -0.87,-2.44 -3.27,-2.31 -0.25,0.43 -0.57,1.62 -0.53,2.12zm-34.07 -0.09l5.49 0.1c-0.21,-1.29 -0.09,-1.32 -0.91,-2.06 -0.82,-0.74 -2.25,-1.1 -3.4,-1.05 -0.7,0.03 -0.84,-0 -0.92,0.59 -0.07,0.56 -0.35,2.18 -0.26,2.42zm52.35 -12.75c-1.65,0.66 -10.82,0.16 -13.64,0.15 -0.82,-0 -3.85,0.18 -4.34,0.07l0.03 -0.58c-0.67,0.49 -1.03,2.95 -1.25,3.94 -0.31,1.38 -0.88,2.86 -0.98,4.24 1.39,0.01 2.63,-0.15 4.03,-0.13 1.58,0.02 2.13,0.34 3.46,0.66l1.85 -7.4c0.76,2.01 0.75,9.31 0.78,11.9l5.33 -0.01c0.24,-0.4 0.52,-0.82 0.82,-1.26 0.48,-0.72 0.61,-0.58 1.12,-1.13 1,-1.08 0.69,-1.75 1.04,-3.33 0.55,-2.44 1.26,-4.59 1.74,-7.13zm-21.6 -0.54l-0.37 0.05 -0 0.66 -0.29 0.01 -13.31 -0 0.22 -1.38c-0.74,0.6 -0.89,2.49 -1.07,3.35l-1.71 7.04c-0.25,1.14 -0.63,2.51 -0.76,3.6l2.92 0.03c0.57,-1.2 0.47,-1.98 2.04,-1.99 1.81,-0.01 1.67,0.6 2.13,2.01 2.27,-0.02 7.22,-0.38 9.17,-0.05l0.13 -1.41c-2,0.19 -2.58,0.87 -4.79,0.4 -0.37,-1.99 0.29,-1.84 1.98,-2.38 4.11,-1.31 3.45,-0.43 3.94,-2.65l-8.36 -0.05c0.05,-0.35 0.14,-0.52 0.21,-1 0.17,-1.25 0.29,-2.29 0.9,-3.12 2.06,-0.05 4.27,0.31 6.23,-0.13 0.24,-0.15 0.4,-1.16 0.46,-1.46 0.11,-0.52 0.23,-1.03 0.33,-1.53zm-20.29 -0.34l-0.16 0.3c-0.02,0.03 -0.03,0.06 -0.05,0.09 -0.2,0.38 -0.23,0.6 -0.58,0.68l-6.63 -0.03 0.11 -1.26c-0.72,0.93 -0.85,2.3 -1.07,3.73 -0.24,1.55 -0.85,2.6 -0.81,4.12 2.1,0.09 3.93,0.61 5.19,1.63 1.48,1.19 1.8,2.18 2.31,4.45 0.87,0.02 1.76,0.02 2.63,0.03 1.14,0.01 0.59,0.1 0.98,-1.65 0.38,-1.64 0.75,-2.64 0.97,-4.46l-4.53 -0.08c-0.29,-1.09 0.79,-4.28 1.31,-5.4 0.2,-0.43 0.26,-1.57 0.31,-2.15zm-9.14 0.92c-1.42,0.33 -5.37,0.15 -7.06,0.15l-0.02 -1.06c-0.19,0.4 -0.45,0.91 -0.74,1.43l-3.15 -0.02 0.11 -1.01c-0.43,0.37 -0.43,0.65 -1.33,0.67l-5.71 -0.07 0.2 -1.4c-0.75,0.58 -0.84,2.25 -1.09,3.29 -0.28,1.18 -0.58,2.31 -0.89,3.49 -0.6,2.35 -1.31,4.82 -1.6,7.32l1.13 -0.08c0.3,-1.18 0.94,-2.84 1.37,-4.09 0.43,-1.24 1.05,-2.89 2.03,-3.41 1.48,-0.78 3.4,0.18 2.89,1.95 -0.4,1.39 -1.4,1.94 -1.78,3.81l2.25 -0.31c0.04,-1.63 0.55,-2.57 0.8,-3.97l3.39 0.03 -0.52 2.38c2.99,-0.84 2.36,-1.99 8.05,-2.48 0.16,-0.83 0.31,-0.95 0.49,-1.47 0.14,-0.42 0.2,-1.29 0.32,-1.83 0.24,-1.12 0.7,-2.33 0.86,-3.34zm-23.32 -0.14c-1.31,0.4 -1.95,0.43 -3.46,0.41 -0.91,-0.01 -2.88,0.1 -3.62,-0.18l0.01 -0.99c-0.67,0.99 -3.34,11.88 -3.41,13.72l7.35 -0c0.08,-1.76 -0.56,-2.34 -0.71,-3.73 -0.17,-1.68 1.04,-1.77 2.44,-2.1 -0.32,-1.63 1.14,-5.33 1.4,-7.13zm87.19 0.23c-0.66,0.32 -2.54,0.01 -3.42,0.01 -1.21,-0.01 -2.42,0.02 -3.62,0.04l-0.01 -1.31c-0.61,1 -0.85,2.54 -1.14,3.92 -0.3,1.46 -0.84,2.85 -0.96,4.33 0.87,-0.19 1.84,-0.59 2.6,-0.7 0.91,-0.13 1.88,0.37 2.21,1 0,2.28 -1.15,2.09 -3.09,2.61 -1.88,0.5 -3.06,0.53 -3.01,2.81l7.25 -0.01c0.2,-0.8 0.59,-2.31 0.88,-3 0.52,-1.22 0.3,-1.47 0.71,-3.26 0.48,-2.08 1.29,-4.5 1.6,-6.46z"/>
   <path class="fil2" d="M5.27 47.7l-0.01 0.99c0.75,0.28 2.71,0.17 3.62,0.18 1.5,0.02 2.14,-0.01 3.46,-0.41l1.62 -6.52 3.94 -0.15c0.35,-2.16 1.69,-5.07 1.7,-7.26l-15.51 -0.02c-0.27,0.97 -1.74,6.61 -1.65,7.22l3.93 0.1c-0.02,2.1 -1.27,3.85 -1.09,5.87z"/>
   <path class="fil2" d="M92.48 47.43l0.01 1.31c1.21,-0.02 2.42,-0.04 3.62,-0.04 0.87,0 2.76,0.31 3.42,-0.01 0.58,-2.42 1.01,-4.6 1.76,-6.88l3.97 -0.01 1.15 -5.29c-1.09,-0.97 -5.86,-0.74 -7.51,-0.77 -1.43,-0.02 -6.85,-0.04 -7.82,0.33l-0.3 0.53c-0.5,1.16 -1.09,4.04 -1.19,5.21l3.92 0.07c0.14,0.47 -0.86,4.46 -1.02,5.54z"/>
   <path class="fil2" d="M37.49 47.46l-0.11 1.26 6.63 0.03c0.35,-0.08 0.38,-0.3 0.58,-0.68 0.02,-0.03 0.03,-0.07 0.05,-0.09l0.16 -0.3 3.2 -13.14 -7.43 0 -1.67 6.25c-0.57,2.13 -1.16,4.35 -1.4,6.67z"/>
   <path class="fil3" d="M90.67 31.85c1.69,-0.13 1.29,-0.01 2.66,0.27 0.88,0.18 1.93,0.19 2.86,0.22 2,0.06 3.88,-0.03 5.87,-0.09l0.51 -1.97 -0.5 0.81c-0.13,0.28 -0.19,0.53 -0.31,0.74l-0.75 0.06c0.18,-1.08 0.92,-2.54 0.74,-3.59l-4.79 -0.07c-0.08,-1.03 0.53,-3.02 0.82,-3.98 0.39,-1.31 0.74,-2.49 1,-3.93 -1.71,-0 -2.95,-0.05 -4.62,0.18 -0.61,1.71 -1,4.15 -1.47,5.96 -0.26,1 -0.53,1.94 -0.82,2.88 -0.01,0.03 -0.94,2.69 -1.1,2.42 -0.01,-0.02 -0.06,0.06 -0.08,0.09z"/>
   <path class="fil3" d="M78.99 31.83l4.41 0.04 2.91 -11.31c-0.6,-0.08 -4.23,-0.14 -4.51,0.05 -0.43,0.29 -0.82,2.87 -1.01,3.62 -0.43,1.71 -1.98,5.93 -1.79,7.6z"/>
   <path class="fil3" d="M120.24 31.89l3.44 -0.04c0.79,-1.06 2.94,-9.97 3.26,-12.01l-3.52 0.04c-0.7,1.19 -2.91,10.11 -3.17,12.01z"/>
   <path class="fil3" d="M104.79 31.92l3.25 0.05c1.38,-3.22 2.4,-8.01 3.16,-11.79 -3.77,-0.01 -3.55,-0.29 -3.79,0.58l-1.38 5.11c-0.31,1.11 -1.52,4.95 -1.24,6.05z"/>
   <path class="fil3" d="M114.69 20.22l-1.5 11.66c2.22,0 2.01,0.16 2.3,-0.53 0.09,-0.21 0.19,-0.53 0.29,-0.77 0.22,-0.56 0.4,-1.01 0.61,-1.52 1.19,-2.99 1.89,-5.65 3.29,-8.11 0.22,-0.38 0.07,-0.06 0.17,-0.38 0.04,-0.13 0.07,-0.38 0.1,-0.52 -2.12,-0.05 -3.14,-0.35 -5.24,0.16z"/>
   <path class="fil4" d="M58.74 65.48c0.27,-0.5 0.48,-0.67 0.52,-1.44 -0.87,0.06 -0.71,0.07 -1.05,0.77 -0.57,0.04 -0.74,-0.06 -1.04,-0.47 0.27,-0.32 0.63,-0.43 1.02,-0.63 -0.04,-0.59 -0.12,-1.26 -0.79,-1.21 -0.97,0.08 -1.33,2.83 -2.79,3.08 -0.46,-2.17 0.89,-1.05 0.14,-2.65 -0.7,-0.1 -1.29,0.08 -1.47,0.61l-0.4 1.6c-0.39,0.46 -0.85,1 -1.05,1.48 -0.19,-0.22 -0.2,0.36 -0.15,-0.47 0.32,-0.7 0.84,-1.86 0.32,-2.52 -0.93,-0.43 -1.36,1.14 -1.36,1.78 -1.59,1.05 -0.33,0.76 -2.34,1.79 -0.16,-2.43 2.12,-3.25 2.19,-3.3 1.05,-0.72 -0.33,-2 -1.78,-0.42 -1.17,1.27 -0.95,3.22 -3.48,4.52l-0.03 -0.97 0.27 -0.17c1.07,-0.47 1.15,-0.47 1.61,-1.57 0.5,-1.2 0.52,-1.43 -0.05,-2.52 -1.31,-0.09 -1.42,-0 -1.83,0.94l-0.56 1.56 -0.64 0.28c-0.24,-0.15 -0.22,0.3 -0.17,-0.35 0.46,-0.52 0.87,-1.02 0.59,-1.82 -1.28,-0.42 -1.31,0.55 -2.15,0.96 0.15,-0.86 0.47,-1.51 0.56,-2.57l-0.58 -0.13 -0.66 0.05c-0.29,-0.65 0.08,-0.67 -0.45,-1.02 0.62,-3.71 -7.3,-6.9 -13.97,-2.55 -0.8,0.52 -1.41,0.94 -1.83,1.61 -0.34,0.55 -0.82,2.09 -0.57,2.79 1.21,-0.02 0.13,-0.04 1.42,-1.94 0.84,-1.24 1.95,-1.55 3.04,-1.86 1.02,-0.29 0.58,-0.88 4.02,-1.17 2.01,-0.17 4.19,-0.06 5.66,0.87 0.61,0.38 1.21,1.04 1.52,1.79 0.51,1.2 -0.06,1.78 -0.01,2.92 -1.55,1.02 -0.53,0.82 -1.68,1.67 -2.96,2.18 -6.14,1.43 -7.68,1.59 0.5,0.76 0.61,0.78 2.46,0.7 4.89,-0.2 5.95,-2.93 6.96,-2.68l0.09 1.29 -0.42 2.53c1.19,-0.15 0.78,-0.4 1.45,-1.23 0.56,-0.7 0.42,-0.77 1.31,-1.2 0.24,0.82 0.44,0.59 1.4,0.54 -0.06,1 -0.19,2.41 0.89,2.51 1.1,0.1 1.48,-0.82 1.98,-1.43 0.65,0.23 1.3,0.83 2.14,0.27 0.6,-0.4 0.75,-0.89 1.28,-1.4l0.08 2.01c1.64,0.17 1.46,-1.98 2.91,-2.41 0.14,0.72 0.55,1.24 0.08,1.89 -0.5,0.7 -0.53,0.5 -0.72,1.55 1.09,0.15 1.16,-0.37 1.63,-0.77 0.52,-0.46 2.77,-0.69 3.3,-1.59 0.28,-0.48 0.5,-1.08 0.86,-1.47zm44.99 -3.55c0.23,-0.09 0.14,0.15 0.21,-0.25 1.76,-0.23 3.52,-0.45 5.31,-0.64 2.79,-0.29 4.33,-0.03 4.32,-1.44 -2.12,-0.73 -6.52,0.89 -8.94,1.03l-0.24 -1.4c-1.2,-0.15 -1.45,0.73 -1.7,1.75l-0.75 0.18c0.28,1.26 0.44,1.28 -0.16,2.62 -0.36,0.8 -0.72,1.44 -1.49,1.78l0.05 -0.61c0.37,-0.24 0.89,-0.85 0.7,-1.4 -1.01,-0.84 -1.4,0.27 -2.29,0.68 0.22,-1.14 0.67,-1.21 0.41,-2.58 -1.2,0.14 -1.37,0.83 -1.77,1.86 -0.38,0.99 -0.62,1.7 -1.58,2.07l0.04 -1.57 -0.04 -0.67c-1.48,-0.34 -1.83,0.32 -2.3,1.32 -1.53,3.28 0.58,4.38 1.62,2.03 0.78,-0.09 1.13,-0.41 1.77,-0.62 -0.06,0.78 -0.35,1.53 0.19,2.14 0.65,-0.91 1.78,-1.9 2.33,-2.58l0.16 0.68c1.33,0.08 1.13,-0.2 1.57,-0.37l0.26 -0c-0.13,1.1 -0.78,3.14 -0.02,3.87 0.99,0.39 1.73,-1.48 2.34,-2.1l0.58 1.13c2.27,-0.04 3.55,-2.87 4.34,-4.72 -0.79,-0.14 -0.89,0.13 -1.17,0.7 -0.25,0.51 -0.36,0.76 -0.67,1.19 -0.74,1.04 -1.05,1.79 -2.05,1.98l0.08 -1.12c2.06,-0.32 2.6,-3.57 1.63,-4.03 -1.83,-0.87 -2.72,3.39 -2.74,3.77 -0.9,0.61 -0.91,2.02 -1.99,2.42l0.52 -2.72 1.47 -4.38zm-82.9 3.24l0.15 0.11c0.24,1.07 0.04,1.51 -0.8,1.82 -0.13,-1.05 0.1,-1.45 0.65,-1.93zm31.09 -3.34l0.54 0.1c0.13,-0.02 0.37,-0.18 0.43,-0.24 0.28,-0.28 0.27,-0.63 0.26,-1.09 -1.25,-1.12 -1.67,0.13 -1.23,1.24zm-33.65 4.37l0 0.08 -0.84 1.18c-0.23,-1.16 0.45,-2.07 0.93,-2.66 0.84,-1.03 1.21,-0.41 1.74,-1.84 -1.72,-1.37 -3.48,2.32 -3.24,5.23 0.99,0.07 1.16,-0.31 1.6,-0.76 2.2,0.87 1.91,0.33 3.44,-0.67 0.9,-0.59 1.07,-0.59 1.82,-1.37 0.4,-0.41 0.46,-0.66 0.31,-1.39 -0.88,0.32 -0.88,1.21 -1.76,1.66l-0.13 -2.25c-1.16,-0.73 -1.89,0.43 -2.25,1.46 -1.1,-0.14 -1.13,-0.28 -1.4,0.47 -0.1,0.28 -0.17,0.57 -0.24,0.86zm1.75 -4.91c-0.63,-0.27 -0.89,-0.9 -1.65,-0.53l0.51 0.5c0.2,0.21 0.25,0.36 0.42,0.61 0.36,0.51 0.72,0.56 1.51,0.49 0.15,-0.27 0.21,-0.69 0.29,-1.06 0.13,-0.67 0.24,-0.65 -0.29,-0.92 -0.57,0.24 -0.04,0.21 -0.79,0.91zm74.56 4.71l-0.53 0.93c-0.2,0.2 -0.01,0.09 -0.28,0.14 -0.22,-0.6 0.1,-1.41 0.33,-1.93 0.63,0.03 0.26,0.01 0.49,0.13l-0.02 0.73zm-20.46 1.98l0.3 0.81c0.81,0.23 1.28,-0.11 1.74,-0.53 0.53,-0.47 0.72,-0.61 1.08,-1.18 0.34,-0.53 0.6,-0.9 0.94,-1.44 0.26,-0.4 0.55,-0.66 0.54,-1.15l-0.08 -0.35c-0,-0.06 -0.02,-0.08 -0.04,-0.11 -0.67,-0.02 -1.29,1.4 -1.71,2.05 -0.25,0.39 -0.58,0.83 -0.83,1.16 -0.38,0.49 -0.54,0.6 -1.19,0.78l0.03 -0.81c0.57,-0.22 1.37,-1.12 1.76,-1.76 0.63,-1.03 0.45,-1.76 0.01,-2.7 -2.67,0.02 -2.86,3.56 -2.55,5.22zm-3.54 -9.41c2.34,0.71 2.55,1.01 2.58,3.86 -1.16,0.99 0.4,2.35 -4.95,6.77 -0.91,0.75 -2.41,1.67 -3.74,2.09 -3.73,1.18 -4.55,-0.22 -4.69,1.14 3.98,0.1 5.9,-0.85 8.58,-2.55 1.68,-1.07 4.69,-3.8 5.35,-5.9 0.42,-0.38 0.53,-0.94 0.51,-1.67 0.96,-1.13 0.13,-3.42 -0.65,-4.06 -2.3,-1.91 -6.52,-1.16 -9.22,-0.34 -0.92,0.28 -3.73,1.01 -4.33,1.4 0.4,0.68 1.24,0.24 2.76,-0.05 0.94,-0.18 1.97,-0.38 2.91,-0.56 -0.12,3.34 -2.44,9.99 -2.11,11l0.76 0.05c-0.3,-1.71 2.76,-7.88 2.87,-11.22l3.38 0.05zm16.89 0.32c0.78,-0.06 5.89,-1.54 6.09,-1.97 0.05,-1.1 -0.37,-1.23 -1.49,-0.97 -0.93,0.21 -5.13,1.97 -5.75,2.54 -2.09,0.58 -4.93,3.61 -2.94,4.65 0.13,0.07 0.36,0.12 0.51,0.16 0.36,0.08 0.82,0.13 1.19,0.15 1.66,0.07 3.56,-0.33 5.18,-0.17 0.82,0.08 1.25,0.38 1.71,0.8 0.1,1.85 -1.02,2.46 -2.19,3.11 -2.24,1.23 -5.29,2.12 -7.85,2.6 -3.9,0.74 -3.44,0.03 -3.68,1.6 0.98,-0.04 1.75,-0.13 2.66,-0.34 1.88,-0.44 0.42,0.08 2.13,-0.65 2.16,-0.92 7.97,-1.81 9.28,-4.77 0.2,-0.46 0.23,-0.73 0.22,-1.28 -0.02,-0.58 -0.04,-0.7 -0.31,-1.07 -1.61,-0.6 -7.36,-0.11 -8.52,-0.65 -0.68,-2.08 2.81,-2.55 3.74,-3.73zm-70.48 4.38c0.29,-0.86 0.51,-2.93 1.06,-3.54 0.65,-0.72 0.85,-1.76 1.64,-3.13 0.47,-0.8 0.94,-1.49 0.05,-2.05 -1.55,-0.42 -3.35,6 -3.44,7.78 -0.92,1.53 -1.46,7.42 -2.37,9.45l-0.46 -1.83c-0.13,-0.65 -0.23,-1.26 -0.4,-1.86 -0.35,-1.2 -0.58,-2.43 -0.84,-3.66 -0.23,-1.13 -0.71,-2.75 -0.55,-3.93 0.18,-1.39 1.01,-1.9 0.72,-3.67 -0.87,-0.05 -1.17,0.04 -1.5,0.78 -0.4,-0.43 -0.3,-1.26 -1.55,-0.74 -0.35,1.43 0.56,2.41 0.6,3.75 0.06,1.94 -2.18,7.23 -2.53,10.74 0.81,-0.46 0.77,-0.92 1.06,-1.86 0.31,-0.99 1.97,-5.73 2.25,-6.11 1.06,2.83 0.8,3.25 1.12,4.33 0.12,0.41 0.34,0.6 0.5,1.21 0.38,1.38 0.9,4.71 1.86,5.14l2.77 -10.82zm12.08 6.72c0.92,-0.38 1.03,-2.64 1.73,-3.87 0.33,-0.58 0.33,-0.29 0.44,-1 0.02,-0.12 0.02,-0.21 0.05,-0.36 0.35,-2.03 1.65,-3.2 1.69,-5.75l-1.15 -0.09c-0.33,1.43 -1.05,3.08 -1.36,4.05 -0.15,0.47 -0.11,1.05 -0.21,1.53 -0.25,1.2 -1.58,4.61 -1.17,5.49zm26.61 -2.61c-0.06,-0.96 0.34,-1.95 1.02,-2.28 -0.12,0.92 -0.41,1.91 -1.02,2.28z"/>
   <path class="fil5" d="M12.3 29.77l-0.06 -0.73 0.06 -0.59c-0.72,-0.02 -0.99,0.12 -1.41,0.36 0.17,0.47 0.41,0.65 0.78,0.92 0.32,-0.21 0.27,-0.15 0.46,-0.52 0.01,0.1 0.01,0.19 0.03,0.26 0.1,0.29 0.07,0.19 0.14,0.3z"/>
   <path class="fil5" d="M9.81 25.9l-1.37 0.17 0.15 -1.36c-0.25,0.28 -0.65,0.87 -0.86,1.18 0.38,0.26 0.6,0.52 1.02,0.76 0.09,-0.4 -0.13,-0.09 0.44,-0.31 0.5,-0.19 0.35,-0.07 0.62,-0.44z"/>
   <path class="fil5" d="M10.78 32.12c0.41,0.24 0.63,0.48 0.96,1.01 0.14,-0.56 0.33,-1.09 0.52,-1.61 -0.72,-0 -1.03,0.34 -1.49,0.6z"/>
   <path class="fil5" d="M11.01 23c0.76,0.08 -0,0.03 0.66,0.23 0.28,-0.26 0.29,-0.21 0.4,-0.65 -0.55,-0.86 -0.59,-0.2 -0.54,-1.17 -0.37,0.45 -0.4,0.85 -0.52,1.6z"/>
   <path class="fil5" d="M68.88 8.71c0.42,-0.21 0.87,-0.36 1.29,-0.58 -0.38,-0.19 -0.19,-0.07 -0.5,-0.34l-0.39 -0.37c-0.28,0.46 -0.4,0.52 -0.4,1.29z"/>
   <path class="fil5" d="M70.34 10.17l1.43 -0.53c-0.01,-0 -0.94,-0.47 -1.03,-0.76 -0.22,0.37 -0.21,0.88 -0.4,1.29z"/>
   <path class="fil5" d="M6.08 27.59c0.67,-0.52 0.58,0.38 0.95,0.58 0.17,-0.38 0.27,-0.88 0.44,-1.27 -0.58,0 -1.1,0.17 -1.4,0.69z"/>
   <path class="fil5" d="M76.24 5.69l0.23 -0.86c-0.41,-0.04 -0.73,-0.28 -0.83,-0.59l-0.53 1.15c0.15,-0.07 1.23,-0.65 1.13,0.3z"/>
   <path class="fil5" d="M9.34 27.17c0.33,0.12 0.54,0.58 0.73,0.91 0.29,-0.22 0.43,-0.37 0.49,-1.08 -0.59,-0 -0.72,0.07 -1.22,0.18z"/>
   <path class="fil5" d="M67.29 10.16c0.35,-0.16 0.76,-0.3 1.15,-0.4l-0.71 -0.89c-0.19,0.37 -0.38,0.79 -0.44,1.29z"/>
   <path class="fil5" d="M65.66 8.53l1.1 -0.31c-0.31,-0.32 -0.56,-0.84 -0.45,-1.46l-0.65 1.77z"/>
   <path class="fil5" d="M11.05 25.76c0.24,0.25 0.39,0.45 0.61,0.71 0.21,-0.26 0.4,-0.53 0.44,-0.97 -0.27,-0.11 -0.53,-0.3 -1.05,0.27z"/>
   <path class="fil5" d="M9.4 30.65c0.19,-0.16 0.12,-0.19 0.3,0.15 0.09,0.17 0.07,0.1 0.11,0.28 0.3,-0.03 0.33,-0.01 0.56,-0.26l0.23 -0.4c0.02,-0.03 0.08,-0.14 0.1,-0.17l0.12 -0.16c-1.08,0.24 -0.25,-0.29 -1.42,0.56z"/>
   <path class="fil5" d="M69.01 5.52l1.02 -0.53 -0.8 -0.72c-0.22,0.41 -0.23,0.52 -0.23,1.25z"/>
   <path class="fil5" d="M73.52 10.17c0.35,-0 0.76,-0.1 1.03,-0.18 -0.11,-0.36 -0.35,-0.81 -0.53,-1.11 0.04,0.45 -0.42,0.78 -0.49,1.29z"/>
   <path class="fil5" d="M3.14 27.44c0.56,-0.1 0.4,0.28 0.57,0.65 0.49,-0.13 0.56,-0.65 0.57,-1.18 -0.3,0.04 -0.91,0.39 -1.15,0.53z"/>
   <path class="fil5" d="M71.93 5.39c0.36,-0.17 0.86,-0.29 1.29,-0.4 -0.15,-0.04 -0.71,-0.57 -0.98,-0.76 -0.13,0.38 -0.14,0.8 -0.31,1.15z"/>
   <path class="fil5" d="M73.52 6.98c0.41,-0.06 0.88,-0.29 1.29,-0.4l-0.8 -0.71c-0.08,0.4 -0.3,0.73 -0.49,1.11z"/>
   <path class="fil5" d="M6.32 24.25c0.35,0.08 0.31,0.31 0.58,0.62 0.19,-0.38 0.4,-0.78 0.57,-1.15 -0.65,0.02 -0.77,0.27 -1.15,0.53z"/>
   <path class="fil5" d="M67.16 6.98l1.28 -0.4 -0.72 -0.75c-0.09,0.19 -0.12,0.29 -0.22,0.56 -0.05,0.13 -0.12,0.3 -0.17,0.38 -0.25,0.43 -0.04,0.12 -0.18,0.2z"/>
   <path class="fil5" d="M4.69 28.86l0.8 0.72 0.18 -0.26c0.01,-0.02 0.02,-0.06 0.03,-0.09 0.01,-0.03 0.02,-0.07 0.02,-0.1 0.07,-0.29 -0.15,-0.09 0.11,-0.48 -0.6,-0.01 -0.7,0.11 -1.15,0.21z"/>
   <path class="fil5" d="M4.73 25.72c0.28,0.06 0.61,0.85 0.62,0.88l0.53 -1.15c-0.4,0.01 -0.81,0.17 -1.15,0.27z"/>
   <path class="fil5" d="M71.94 8.57l1.15 -0.44 -0.71 -0.7c-0.09,0.26 -0.24,0.98 -0.44,1.14z"/>
   <path class="fil5" d="M70.47 3.8c0.25,-0.03 0.79,-0.22 1.02,-0.31 -0.18,-0.25 -0.37,-0.47 -0.53,-0.71 -0.07,0.3 -0.39,0.33 -0.49,1.02z"/>
   <path class="fil5" d="M70.48 6.98l1.01 -0.4c-0.3,-0.07 -0.29,-0.41 -0.57,-0.75 -0.16,0.34 -0.39,0.73 -0.44,1.15z"/>
   <path class="fil5" d="M1.68 25.47l-0.07 0.23c0.19,-0.02 0.42,0.23 0.5,0.36 0.42,0.71 -0.21,-0.5 0.08,0.19 0.18,0.45 -0.06,-0.06 0.07,0.22 0.25,-0.34 0.44,-0.58 0.44,-1.16 -0.13,0.15 -0.34,0.1 -0.62,0.39 -0.78,0.01 -0.09,0.05 -0.4,-0.24z"/>
   <path class="fil5" d="M68.89 11.62c0.4,-0.01 0.81,-0.17 1.15,-0.27l-0.74 -0.63c-0.21,0.37 -0.23,0.74 -0.41,0.9z"/>
   <path class="fil5" d="M70.6 13.21c0.37,-0.05 0.35,-0.13 0.89,-0.13 -0.09,-0.14 -0.08,-0.08 -0.21,-0.3 -0.12,-0.21 -0.15,-0.29 -0.23,-0.46 -0.38,0.13 -0.44,0.38 -0.45,0.89z"/>
   <path class="fil5" d="M8.04 28.94l0.57 0.67c0.03,-0.04 0.13,-0.28 0.2,-0.55 0.08,-0.31 0.01,-0.11 0.09,-0.32 0.19,-0.5 0.05,-0.16 0.15,-0.24l-1.01 0.44z"/>
   <path class="fil5" d="M3.27 24.17c0.33,0.28 0.37,0.29 0.57,0.7l0.44 -1.01c-0.25,0.03 -0.78,0.22 -1.02,0.31z"/>
   <path class="fil5" d="M4.89 22.69c0.02,0.02 0.06,0.06 0.07,0.07l0.35 0.53c0.22,-0.26 0.39,-0.6 0.44,-1.02 -0.26,0.13 -0.62,0.26 -0.86,0.42z"/>
   <path class="fil5" d="M8.07 32.12c0.23,0.14 0.41,0.38 0.67,0.59 -0.06,-0.26 0.08,-0.23 0.13,-0.55 0.05,-0.29 -0.04,-0.29 -0.13,-0.44 -0.18,0.15 -0.5,0.27 -0.68,0.4z"/>
   <path class="fil5" d="M12.68 27.35l0.58 0.57c0.11,-0.31 0.17,-0.73 0.3,-1.01l-0.43 0.22c-0.2,0.09 -0.3,0.14 -0.46,0.22z"/>
   <path class="fil5" d="M6.71 21.38c0.68,0.25 0.34,0.02 0.62,-0.58 -0.55,-0 -0.63,0.02 -0.62,0.58z"/>
   <path class="fil5" d="M69.02 14.8c0.35,-0.05 0.52,-0.37 0.75,-0.58 -0.29,-0.14 -0.26,0.01 -0.36,-0.31 -0.18,0.26 -0.34,0.48 -0.39,0.89z"/>
   <path class="fil6" d="M56.6 8.53l0 -0.13c0.44,-0.04 0.11,-0.01 0.37,-0.1 0.36,-0.12 0.13,-0.12 0.29,-0.03 -0.12,-0.44 -0.09,-0.19 -0.27,-0.53 -0.34,0.14 -0.37,0.34 -0.4,0.8z"/>
   <path class="fil5" d="M61.32 13.08c0.44,-0.02 0.48,-0.05 0.49,-0.49l-0.49 -0.01 -0 0.5z"/>
   <path class="fil7" d="M20.81 22.58l0 0.27c0.63,0.11 0.2,-0.01 0.4,0.13l0.04 -0.19c0.08,-0.33 -0,-0.05 0.09,-0.34 -0.28,-0.08 -0.14,-0.1 -0.53,0.13z"/>
   <path class="fil6" d="M58.06 9.99c0.52,-0.09 0.54,-0.38 0.81,-0.27 -0.03,-0.03 -0.43,-0.19 -0.27,-0.53 -0.34,0.27 -0.28,0.56 -0.53,0.8z"/>
   <path class="fil6" d="M5.57 19.66c0.46,0.4 -0.39,0.02 0.13,-0.4 -0.36,0.06 -0.73,0.06 -0.5,0.42 0.25,0.39 0.36,-0.01 0.36,-0.02z"/>
   <path class="fil7" d="M20.68 25.89l0.31 0.28c0.22,0.35 -0.01,0.02 -0.05,-0.01 0.21,-0.17 0.08,-0.02 0.26,-0.36 0.19,-0.36 -0.08,-0.34 0.14,-0.17 -0.67,0.02 -0.16,-0.06 -0.66,0.27z"/>
   <path class="fil6" d="M61.37 6.4l0 0.4c0.47,-0.16 -0.18,-0.01 0.4,-0.13 -0.13,-0.28 -0.18,-0.18 -0.27,-0.4l-0.13 0.13z"/>
  </g>
 </g>
</svg>
