<?xml version="1.0" encoding="UTF-8"?>
<!DOCTYPE svg PUBLIC "-//W3C//DTD SVG 1.1//EN" "http://www.w3.org/Graphics/SVG/1.1/DTD/svg11.dtd">
<!-- Creator: CorelDRAW -->
<svg xmlns="http://www.w3.org/2000/svg" xml:space="preserve" width="25.4mm" height="19.05mm" version="1.1" style="shape-rendering:geometricPrecision; text-rendering:geometricPrecision; image-rendering:optimizeQuality; fill-rule:evenodd; clip-rule:evenodd"
viewBox="0 0 45.54 34.16"
 xmlns:xlink="http://www.w3.org/1999/xlink"
 xmlns:xodm="http://www.corel.com/coreldraw/odm/2003">
 <defs>
  <style type="text/css">
   <![CDATA[
    .fil16 {fill:black}
    .fil14 {fill:#000004}
    .fil23 {fill:#0403F1}
    .fil19 {fill:#050105}
    .fil1 {fill:#050505}
    .fil26 {fill:#060606}
    .fil0 {fill:#090105}
    .fil22 {fill:#090909}
    .fil20 {fill:#0A07D0}
    .fil21 {fill:#0A08B2}
    .fil25 {fill:#0B0404}
    .fil29 {fill:#0C0C0D}
    .fil27 {fill:#0D0101}
    .fil28 {fill:#130102}
    .fil35 {fill:#181717}
    .fil33 {fill:#1C1C1C}
    .fil31 {fill:#292609}
    .fil34 {fill:#473814}
    .fil36 {fill:#DFDFDF}
    .fil37 {fill:#E7EA5F}
    .fil18 {fill:#EA3539}
    .fil32 {fill:#ECECEC}
    .fil10 {fill:#ED3135}
    .fil30 {fill:#F0EA33}
    .fil15 {fill:#F20402}
    .fil8 {fill:#F58635}
    .fil11 {fill:#F60205}
    .fil7 {fill:#FA0202}
    .fil24 {fill:#FAFAFA}
    .fil2 {fill:#FB0102}
    .fil3 {fill:#FBFBFB}
    .fil9 {fill:#FC0002}
    .fil13 {fill:#FCFCFC}
    .fil17 {fill:#FDF214}
    .fil5 {fill:#FDFC0B}
    .fil12 {fill:#FDFDFD}
    .fil4 {fill:#FEF112}
    .fil6 {fill:#FEFEFE}
   ]]>
  </style>
 </defs>
 <g id="Camada_x0020_1">
  <metadata id="CorelCorpID_0Corel-Layer"/>
  <g id="_2481818497136">
   <path class="fil0" d="M42.48 33.44l-2.25 0.01 0.41 -1.66 2.3 -0.02 -0.46 1.67zm-1.15 -5.87c0.03,0.37 -0.11,1.06 -0.25,1.32 -0.2,1.78 -0.67,2.33 -0.87,2.92 -0.68,1.93 -3.53,2.07 -4.68,1.61 -1.72,-0.69 -0.87,-2.56 0,-5.41 0.38,-1.24 0.52,-1.76 1.3,-2.37 0.97,-0.77 2.76,-1.02 3.94,-0.59 0.55,0.21 0.59,0.36 0.95,0.76 0.01,0.49 -0.14,1.37 -0.39,1.76zm-13.28 3.71l-0.43 -0.02c0.12,-0.67 1.53,-5.48 1.73,-5.86l0.41 0.01c-0.01,0.33 -1.44,5.46 -1.71,5.88zm14.84 0.07l-1.88 0.01c0.03,-0.57 1.25,-5.86 1.43,-6.35l2.64 0c-0.09,0.77 -1.82,5.29 -2.19,6.34zm-10.78 -3.33l0.68 -0.01 0.91 -2.99 2.54 -0.01c-0.07,0.73 -0.5,1.11 -0.77,1.84 -0.25,0.69 -0.43,1.34 -0.64,2.06 -0.2,0.72 -0.41,1.38 -0.59,2.11 -0.24,0.96 -0.02,1.61 -0.45,2.4l-2.51 0.02 0.98 -3.49 -0.77 -0.05 -1 3.51 -2.55 0.04c0.06,-0.59 2.12,-7.65 2.41,-8.42l2.53 -0.02c-0.07,0.9 -0.66,2.02 -0.76,3.01zm-5.02 3.75l0.81 0.02 -0.46 1.66 -3.47 -0.01 2.43 -8.42 2.53 -0.01c-0.09,1.04 -1.71,5.52 -1.85,6.75zm12.28 -8.38c0.85,-0.4 2.18,-1.93 2.43,-2.1 0.32,0.33 1.03,2.45 1.01,3.2l-3.08 0 -0.36 -1.1zm-5.42 -0.61c1.11,-0.43 2,-0.94 3.4,-0.59 1.1,0.28 2.04,1.08 2.23,2.38l-3.42 0.02c-0.83,0 -0.86,0.17 -1.33,-0.5 -0.31,-0.43 -0.7,-0.76 -0.87,-1.32zm-0.9 -0.81c0.25,-0.33 1.12,-0.99 1.45,-1.08 0.17,0.57 0.28,0.78 0.29,1.47 -1.93,0.39 -0.05,0.98 -1.47,1.1 -0,-1.09 0.16,-0.89 -0.18,-1.38l-0.09 -0.12zm2.75 -0.22c1.92,-0.73 3.71,-1.56 5.11,-3.26 0.17,-0.2 0.01,-0.03 0.16,-0.18 0.32,0.47 1.05,1.98 0.69,2.64 -0.22,0.41 -1.28,1.39 -1.64,1.69 -1.56,1.31 -0.82,-0.42 -3.05,-0.69 -0.34,-0.04 -1.1,0.14 -1.27,-0.2zm-1.3 -1.29c0.28,-0.15 0.52,-0.42 0.79,-0.33l0.09 1.6c-0.11,0.58 0.04,0.19 -0.22,0.41 -0.39,-0.21 -0.21,-0.56 -0.65,-1.68zm6.08 -2.64c0.36,0.02 0.2,-0.08 0.36,0.29 -0.12,0.38 0,0.16 -0.23,0.37 -0.11,-0.21 -0.19,-0.31 -0.13,-0.66zm-6.7 0.22l1.19 0.13c-0.4,-0.54 -1.61,-0.15 -2.26,-0.33 -1.05,-0.29 -0.43,-1.18 -0.27,-1.98 0.33,-1.6 0.4,-1.82 1.25,-1.73 0.78,0.08 1.64,-0.2 2.39,0.21 2.27,1.23 1.84,5.77 -0.81,5.17 -0.45,-0.1 -1.31,-0.82 -1.48,-1.47zm5.23 -10.91c0.22,-0.29 0.39,-0.16 0.75,-0.09 0.48,0.09 0.53,-0.05 0.55,0.45 -0.21,0.15 -1.08,-0.05 -1.1,-0.06 -0.47,-0.21 -0.1,-0.09 -0.2,-0.3zm-26.88 -0.41l-0.4 1.36c-0.31,0.03 -0.69,0.04 -1,0.03 -0.22,-0.01 -0.21,-0 -0.41,-0.07 -0.34,-0.12 0.11,-0.19 -0.33,-0.09 -0.73,0.17 -0.85,0.49 -1.63,-0.07 -0.09,-2.12 1.42,-2.2 2.69,-2.59 0,-0.02 0.02,-0.06 0.02,-0.07 0.14,-0.48 0.16,-0.42 0.14,-0.86 -0.56,0.03 -0.53,0.45 -0.7,1l-1.46 -0.01c0.38,-2.41 3.59,-2.04 3.78,-1.12 -0.01,0.6 -0.54,2.26 -0.7,2.49zm-3.33 -1.65c-0.86,0.19 -0.94,0.04 -1.29,1.04 -0.19,0.55 -0.46,1.6 -0.69,1.96l-1.52 0.01 1.41 -4.44 1.39 -0.03c0.2,0.4 0.11,0.28 0.27,0.35 0.29,-0.31 0.43,-0.34 0.87,-0.39l-0.43 1.49zm12.52 2.39c0.31,-1.62 -0.43,-0.26 0.32,-2.53 0.23,-0.69 0.47,-1.63 0.75,-2.27l1.57 0c-0.14,1.22 -1.18,3.48 -1.48,4.84 -0.54,-0.2 -0.58,-0.35 -1.16,-0.04zm4.56 -3.69c2.92,-0.73 1.75,0.75 0.69,4.31l-1.56 0.03c0.18,-1.11 1.03,-2.76 1.05,-3.75 -0.59,0.04 -0.5,0.38 -0.94,1.69 -0.24,0.71 -0.45,1.32 -0.65,2.02l-1.55 0.04c0.05,-0.53 1.54,-5.11 1.76,-5.43l1.48 -0.02 -0.27 1.12zm-19.53 -0.06l-1 0.03 -1.42 4.35 -1.64 -0.01 1.38 -4.32 -0.93 -0.05 0.31 -1.06 3.6 -0.01 -0.3 1.06zm31.43 -2.33c0.71,-0.5 3.23,2.33 2.56,5.55l-1.27 -0.15c0.05,-0.83 0.43,-2.41 0.33,-3.11 -0.13,-0.87 -0.69,-1.83 -1.19,-1.95 0.4,0.52 1.1,1.11 1.1,2.37 0,0.57 -0.33,2.6 -0.52,3.13 -1.52,-0.29 -2.87,-1.66 -5.34,-1.26 0.22,-1.72 0.38,-3.21 1.19,-3.97 0.89,-0.83 1.99,-1.13 3.14,-0.61zm-21.94 6.97c0.21,-0.44 0.22,-0.28 0.31,-0.75 -0.49,0.3 -1.1,0.82 -1.83,0.43 -0.79,-0.42 -0.09,0.35 -2,0.03l1.72 -5.37 1.55 -0.04 -0.3 1.19c0.79,-0.28 1.19,-0.52 1.9,0.02 0.05,0.84 -0.63,2.25 -0.81,3.15 0.36,-0.28 0.09,-0.11 0.2,0.02 -0.05,0.87 0.06,0.43 0.13,0.54 0.27,-2.98 2.92,-1.07 2.85,-3.18 -0.51,-0.05 -0.55,0.35 -0.69,0.96l-1.49 0.01c0.23,-1.31 1.11,-1.79 2.29,-1.81 2.6,-0.04 1.09,2.25 1.09,2.26 -0.7,0.66 -0.54,-0.88 -1.84,1.9 -0.19,0.41 -0.26,0.27 -0.39,0.28 -0.21,0.02 0.07,-0.21 -0.13,0.03 -0.04,0.19 -0.32,0.23 0.21,0.35 0.02,0 0.05,-0 0.07,0 0.02,0 0.05,0 0.07,0.01 0.02,0.01 0.05,0.01 0.07,0.02l0.14 0.07c0.66,-0.83 0.62,-2.49 2.03,-2l0.09 0.66c0.05,0.18 0.1,-0.08 -0.11,0.58 0.04,-0.01 0.08,-0.08 0.11,-0.04l0.28 -0.04c0.51,0.11 0.1,0.03 0.23,0.18l0.59 -0.04 0.31 1.08 0.02 -0.12 0.38 -0.18c0.33,0.09 0.8,0.05 1.17,0.04 1.92,-0.06 2.85,0.44 3,-0.86 0.12,-0.44 -0.08,-0.24 0.22,-0.2 0.02,0 0.05,0.02 0.07,0.03 0.02,0.01 0.14,0.08 0.16,0.09 -0.1,-0.98 0.55,-3.07 1.23,-3.62 0.8,-0.64 2.5,-0.81 3.04,0.18 0.08,0.62 -0.11,1.3 -0.35,1.68l-2 0.04c-0.19,0.32 -0.38,0.96 -0.4,1.43 0.72,-0.05 0.49,-0.43 0.85,-1.1l1.43 -0.04c-0.12,0.93 -0.45,1 -0.76,1.56l-0 0.05c0.25,-0.25 0.12,-0.31 0.54,-0.49 0.42,-0.18 0.32,-0.01 0.71,-0.4 1.55,-0.58 1.65,-1.23 3.69,-0.73 1.33,0.33 2.49,1.1 3.61,1.33l0.25 0.15c0.58,0.1 -0.37,-0.33 0.14,0.01 -0.26,0.71 -0.85,1.17 -1.31,1.68l-0.23 0.28c1.95,-1.51 1.03,-2.08 2.32,-1.91 0.15,0.95 -0.33,3.49 -0.71,4.05l-0.63 -1.69c0.19,0.32 0.32,1.05 0.17,1.39 0.3,0.69 0.51,0.3 0.74,1.07 -0.71,-0.11 -1.69,-1.51 -2.38,-1.72l-0.26 0.68c-0.04,0.34 -0.09,0.63 -0.19,0.9 -0.08,0.22 -0.05,0.16 -0.17,0.37 -0.02,0.03 -0.07,0.11 -0.09,0.14 -0.09,0.16 -0.04,0.06 -0.12,0.24 0.71,-0.57 0.55,-1.09 0.83,-2.08 0.34,0.08 0.54,0.29 0.79,0.53l-0.01 0.61c0.05,-0.31 0.06,-0.25 0.23,-0.4l1.69 1.29c0.22,1.07 -0.21,1.34 -0.53,1.84 0.11,1.15 0.74,2.52 0.85,3.78 -0.54,0.56 -1.39,1.19 -2.2,1.64 -0.4,0.22 -0.84,0.45 -1.27,0.61 -0.43,0.16 -1.12,0.16 -1.26,0.75l-0.31 0.25 -0.06 -2.3c1.06,0.06 1.71,-0.33 2.11,-1.2 0.42,-0.92 0.27,-2.32 -0.16,-3.11 -1.49,-2.72 -3.84,-0.41 -4.52,-2.11 -0.69,0.73 -0.16,0.27 -0.39,0.55 -0.11,0.4 -0.22,0.55 -0.33,0.92 -0.1,0.37 -0.11,0.69 -0.21,1.04 -0.13,0.5 -1.21,2.43 1.14,2.87 0.44,0.08 0.65,0.42 1.21,1.05 -0.65,1.15 -0.67,0.79 -1.25,1.28 -0.57,0.49 -0.33,0.79 -0.91,0.96 -1.17,0.34 -3.73,0.41 -4.8,-0.11 0.41,-0.23 0.67,-0.22 1.17,-0.71 0.23,-0.22 0.21,-0.22 0.24,-0.44 -0.2,-0.23 -0.15,0.23 -0.13,-0.31 -0.39,0.16 -0.37,0.63 -1.19,0.9 -0.63,0.2 -1.14,0.08 -1.59,-0.2 -0.14,-0.99 0.22,-1.59 0.5,-2.42 -0.26,0.3 -0.06,0.14 -0.38,0.31 0,-0 -0.34,-0.11 -0.1,-0.71l0.39 -0.34c0.05,-0.03 0.09,0 0.06,-0.16l-1.14 0.08 0.19 -0.81c-0.47,0.05 -0.55,0.24 -0.57,0.85 1.08,1.21 1.32,0.51 0.52,2.67 0.08,0.26 0.11,0.41 0.2,0.54 0.15,0.65 0.34,0.37 0.63,0.76 0.31,0.41 -0.01,0.47 0.66,0.69 3.43,1.13 5.56,-0.08 6.39,-0.02 0.09,1.46 -0.33,1.29 -1.31,1.44 -2.53,0.38 -4.17,0.12 -6.46,-0.99 0.88,0.99 2.77,1.19 4.17,1.23 2.5,0.07 4.03,-0.71 4.69,-0.68 0.22,0.38 0.43,0.58 0.59,1.09l-13.82 -0.01c0.11,0.32 -0.01,0.12 -0.28,0.16 -0.14,0.02 -0.5,-0.01 -0.66,-0.01l0.07 0.53c0.35,-0.37 0.69,-0.27 1.3,-0.27 0.47,0 0.95,-0.03 1.42,0.04l-1.18 4.17c-0.24,0.76 -0.73,2.17 -0.73,2.95 0.81,0.04 0.78,-0.61 1.01,-1.42 0.42,-1.43 1.33,-4.81 1.69,-5.72l2.24 -0.02c-0.07,0.6 -1.03,3.65 -1.25,4.45 -0.68,2.49 -0.69,3.2 -1.88,3.78 -1.06,0.51 -3.04,0.6 -3.95,-0.17 -0.58,-0.5 -0.48,-1.17 -0.2,-2.19 0.17,-0.61 0.4,-1.83 0.7,-2.21 0.02,-0.72 0.43,-1.6 0.58,-2.35 -0.35,0.11 -0.13,-0.01 -0.22,0.32l-0.1 -0.3c-0.18,0.23 -0.14,0.2 -0.25,0.56 -0.13,0.44 -0.32,1.58 -0.65,1.77 -0.23,0.35 -0.48,0.21 -0.78,0.43l0.63 0.36c-0.06,0.63 -0.34,1.3 -0.47,1.92 -0.21,0.93 0.1,1.18 -0.34,2.05l-2.31 0.03c0.11,-1.03 0.99,-2.84 0.82,-3.72l-0.52 -0.09c-0.33,0.67 -0.64,2.25 -0.93,3.05l-0.19 0.4 -0.02 0.36 -2.56 -0.01 1.34 -4.84c-0.45,0.46 -0.1,0.16 -0.24,0.01l-0.01 -0.63 -1.55 5.45 -1.76 0 0.24 -1.51c-1.47,0.04 -0.82,0.17 -1.51,1.47l-2.62 0.04c0.19,-0.77 1.09,-2.56 1.42,-3.29 0.29,-0.63 1.36,-2.9 1.47,-3.44l-0.4 0.31c-0.01,0.02 -0.04,0.06 -0.06,0.08 0.06,-0.58 0.12,-0.63 -0.26,-0.78 -0.23,-0.09 -0.58,-0.02 -0.78,0.03 0.18,0.2 0.48,0.15 0.78,0.18 -0.06,1.58 -0.69,1.98 -1.73,2.33l0.78 0.42c-0.02,0.3 -1.46,3.88 -1.87,4.04 -0.59,0.23 -4,0.12 -4.87,0.11l0.11 -0.41 2.29 -8.01 0.59 -0.01c-0.19,1.15 -1.32,3.26 -1.07,3.95 0.17,0.46 0.74,0.56 1.06,0.2l1.59 -3.58c0.31,-0.76 0.35,-0.6 1.09,-0.56 -0.29,-0.52 -0.49,-0.03 -1.03,-0.44 -0.02,-0.01 -0.05,-0.04 -0.07,-0.07l0.42 0.04 0.03 -0.1c-0.65,-0.23 -0.15,0.06 -0.33,-0.33l-1.61 3.72c-0.19,0.45 -0.33,1.13 -0.67,0.87 -0.27,-0.32 1.98,-6.06 2.07,-6.25 -0.53,0.21 -0.1,0.09 -0.28,-0.14 0.09,-0.55 0.05,-0.15 0.13,-0.61l-1.06 2.81 -1.04 -0.02c-0.36,0.53 -1.08,3.39 -1.34,4.29 -0.29,1.01 -0.98,3.77 -1.34,4.43l0 0.41c0.39,0.48 1.3,0.31 2.1,0.31l3.29 -0.11c0.32,-0.01 3,0.36 3.41,0.02 0.15,-0.13 0.34,-0.85 0.46,-1.08 0.17,-0.36 0.02,-0.14 0.23,-0.33 0.22,0.54 -0.29,0.89 0.11,1.36 0.28,0.34 3.4,0.15 4.27,0.16 0.64,0.01 0.8,0.16 1.17,-0.37 0.25,0.59 0.67,0.36 1.75,0.37 1.43,0 1.17,0.11 1.55,-0.76 0.36,0.19 0.26,0.37 0.96,0.66 0.37,0.15 0.85,0.16 1.19,0.31l0.97 0c0.7,-0.35 1.33,-0.16 2.09,-0.8 0.12,0.25 0.09,0.32 0.23,0.56l6.5 0.04c0.36,-0.03 0.51,-0.18 0.57,-0.19 0.21,-0.03 0.15,0.11 0.51,0.18 0.19,0.03 0.53,0.01 0.74,0.01 1.96,-0.01 1.96,0.29 2.28,-0.87 1.73,1.46 0.88,0.51 2.07,1.08l0.96 0c0.73,-0.35 1.68,-0.15 2.33,-0.96l0.1 0.36c0.1,0.31 -0.14,0.4 1.1,0.39 0.6,-0.01 1.22,0.08 1.81,-0.06 0.21,-0.38 0.58,-1.6 0.62,-2.16 0.07,-0.96 1.91,-6.04 2.21,-6.53l0 -0.4c-0.5,-0.46 -1.32,-0.32 -2.11,-0.29 -0.04,-1.47 -0.77,-2.64 -0.92,-3.35 -0.14,-0.65 0.15,-0.69 -0.25,-1.73 -0.18,-0.47 -0.36,-0.99 -0.56,-1.43 -0.28,-0.61 -0.67,-0.79 -0.82,-0.97 -0.22,-0.27 -0.5,-1.66 -0.49,-1.71 0.02,-0.35 0.45,-0.72 0.49,-1.58 0.03,-0.92 -0.21,-1 -0.42,-1.58 -0.21,-0.57 0.07,-1.06 0.21,-1.74 0.33,-1.59 0.57,-4.53 0.3,-6.04 -0.5,-2.86 -1.98,-3.32 -3.41,-4.38l-0.51 0c-1.03,0.75 -1.8,0.41 -2.88,1.57 -0.95,1.02 -0.64,2.38 -1.19,3.98l-1.01 0.54c0.12,-0.6 1,-2.54 -0.79,-2.98 -1.08,-0.26 -2.24,0.07 -2.86,0.83 -0.32,-0.49 -0.21,-0.95 -1.68,-0.88l0.04 -0.83c-0.64,-0.23 -1.5,-0.06 -2.18,-0.03 -0.52,0.02 -1.61,-0.24 -2.22,0.02l-0.62 1.72c-0.64,-0.79 -0.72,-0.92 -1.88,-0.9 -0.87,0.01 -1.47,0.23 -2.02,0.77 -0.73,-0.78 -0,-0.61 -1.68,-0.79l0.04 -0.79c-0.52,-0.19 -1.58,-0.17 -2.16,-0.05 -0.2,0.43 -0.39,1.22 -0.64,1.7 -0.83,-1.22 -2.39,-0.95 -3.46,-0.44 -0.53,-0.7 -0.38,-0.34 -1.11,-0.29 -0.37,0.03 -1.14,-0.06 -1.65,-0.05 0.18,-1.21 -0.06,-0.99 -1.62,-0.99 -0.7,-0 -1.9,-0.09 -2.54,0.07 -0.09,0.17 -0.39,0.94 -0.45,1.23 -0.17,0.85 0.23,0.79 0.71,0.8 -0.23,1.04 -1.3,3.36 -1.12,4.25 0.44,0.18 1.67,0.2 2.19,0.04 0.57,-1.05 0.92,-3.23 1.48,-4.27l0.44 -0.02c-0.24,1.05 -1.31,3.31 -1.12,4.27 0.44,0.16 1.6,0.19 2.12,0.03 0.23,-0.36 0.42,-1.1 0.59,-1.62 0.27,-0.86 0.22,-1.23 0.98,-1.28 -2.31,4.28 1.69,2.71 3.49,2.92 0.95,0.11 1.94,-0.02 2.02,-0.01 0.25,0.04 1.28,0.37 1.68,-0.19z"/>
   <path class="fil1" d="M18.16 24.5c0.22,-0.42 0.05,-0.24 0.43,-0.33 0.64,-0.15 0.98,-0.34 1.51,-1.06 0.16,1.17 0.23,1.11 -0.24,2.11l-0.34 -0.27c-0.58,-0.46 -0.94,-0.24 -1.36,-0.45zm-1.68 -0.21c-0.28,-2.64 2.96,-4.2 2.04,-1.13 1.04,-0.02 0.73,-1.35 1.61,-1.08 -0.09,0.64 -0.87,1.45 -1.64,1.58 -0.68,0.12 -0.32,0.28 -0.85,0.67 -0.49,0.37 -0.8,0.2 -1.17,-0.05zm-0.33 0.21c-2.79,-0.07 -1.62,-0.04 -2.47,1.72 0.06,-1.5 0.5,-1.77 -0.87,-1.71 0.86,-1.74 1.48,-1.56 1.25,-2.64 1.03,-0.13 1.41,-0.21 1.98,-0.98 0.16,0.18 0.18,0.31 0.33,0.49 0.11,0.13 0.26,0.23 0.43,0.38 -0.41,0.6 -0.85,1.6 -0.66,2.73zm-9.86 -2.24c0.13,-0.55 0.19,-0.92 0.62,-0.66 -0.12,0.38 -0.22,0.58 -0.62,0.66zm12.64 -0.91l0.42 -0.39c0.09,0.37 0.03,0.24 0.24,0.51 -0.01,0.02 -0.04,0.03 -0.05,0.06l-0.42 0.63 -0.2 -0.82zm4.35 -2.35c-0.19,-0.19 -0.1,-0.05 -0.23,-0.32 -0.02,-0.03 -0.11,-0.34 -0.14,-0.41 0.26,0.17 0.19,0.02 0.37,0.73zm-3.59 0.13c-0.29,1.1 -0.7,1.87 -1.56,1.88 -0.44,0.01 -2.04,0.87 -1.6,-1.04 0.13,-0.56 0.39,-1.1 0.58,-1.65 0.96,-2.7 0.69,-1.18 2.15,-1.86 0.33,-0.15 0.4,-0.37 0.71,-0.22 0.78,0.39 0.09,1.99 -0.12,2.55l-1.63 0.04c-0.23,0.39 -0.47,1.08 -0.53,1.57 0.51,0.01 0.68,-0.67 0.79,-1.26l1.21 -0.01zm-13.96 -2.87c0.58,-0.28 0.72,0.73 0.5,1.41 -0.69,2.12 -1.2,3.85 -3.04,3.66 -1.47,-0.15 -0.38,-2.27 -0.02,-3.25 0.85,-2.29 0.89,-1.01 2.56,-1.82zm15.67 3.29c-0.33,-0.43 -0.83,-0.62 -0.91,-1.11 -0.09,-0.54 0.24,-1.24 0.45,-1.56 0.87,-1.32 1.12,-0.16 2.4,-0.31 -0.01,1.6 -0.06,1.21 -1.19,1.24 0.02,-0.41 0.1,-0.34 0.15,-0.78 -0.48,-0 -0.51,0.25 -0.54,0.88 0.71,0.7 1.57,0.97 0.47,2.63 -0.89,1.33 -3.48,1.15 -2.25,-1.04l1.03 -0c-0.03,0.59 -0.25,0.34 -0.12,0.97 0.42,-0.07 0.49,-0.4 0.51,-0.9zm-8.11 1.38c-0.07,-1.09 0.5,-2.3 0.84,-3.17 0.65,-1.68 0.87,-0.92 1.44,-1.24 0.23,-0.13 0.18,-0.21 0.38,-0.42 0.32,0.22 0.11,0.25 0.44,0.43 0.22,0.12 0.44,0.07 0.71,0.14 0.03,0.63 -0.13,0.95 -0.23,1.45l-1.2 -0.01 0.29 -1.1c-0.52,0.13 -0.63,0.93 -0.86,1.57 -0.2,0.55 -0.53,1.21 -0.58,1.78 0.48,0.17 0.59,-0.57 0.78,-1.16l1.13 -0.02c-0.36,1.48 -1.75,2.98 -3.14,1.76zm-4.72 -1.42c-0.99,-0.75 -1.14,-1.39 -0.61,-2.45 0.38,-0.76 0.46,-0.43 1.25,-0.47l1.36 0.11c0.11,0.34 -0.08,0.7 -0.18,1.1l-1.13 0.01 0.18 -0.75c-0.38,-0.06 -0.46,0.2 -0.55,0.68 0.36,0.63 0.65,0.55 0.98,1.21 -0.02,0.94 -0.39,1.57 -0.85,1.95 -1.19,-0.87 -1.44,0.4 -1.92,0.26l0.01 -0.28c0.03,-0.08 0.08,-0.13 0.12,-0.19 0.65,-0.94 0.47,-1.18 0.95,-1.19l-0.22 0.88c0.49,0.11 0.53,-0.27 0.62,-0.87zm2.58 0.87c0.72,0.16 1.28,-3.46 1.86,-4 0.32,-0.31 0.37,-0.13 0.8,0.2 0.02,0.01 0.04,0.03 0.06,0.05 0.02,0.01 0.05,0.04 0.06,0.05l0.12 0.11c-0.17,0.45 -1.27,3.7 -1.45,3.76 -0.02,0 -0.05,0.02 -0.07,0.02l-0.23 0.06c-0.19,0.05 -0.22,0.04 -0.39,0.12 -0.23,0.12 -0.38,0.33 -0.52,0.49 -0.42,-0.22 -0.41,-0.74 -1.6,-0.4 0.02,-0.57 1.23,-3.87 1.5,-4.37l1.16 0.16 -1.3 3.76zm-0.26 -4.1l-0.11 -0.31c0.24,0.17 0.12,-0.08 0.11,0.31zm15.92 0.21c0.14,-0.34 0.04,-0.19 0.24,-0.46 0.29,-0.38 0.16,-0.13 0.2,-0.14 0.01,0.03 0.02,0.06 0.02,0.08l-0.47 0.52zm-12.87 -0.38c-0.24,-0.27 -0.15,-0.63 -0.15,-1.14 0,-0.39 -0,-0.76 0.01,-1.15 0.72,0.46 0.63,-0.46 0.62,2.28l-0.48 0.01zm15.63 -0.42c-0.95,1.12 -2.8,-0.08 -2.14,-1.55 0.53,-1.17 2.59,-1.1 2.35,0.88l-1.71 0.04c0.58,1.13 0.97,-0.38 1.51,0.63zm-2.55 -2.25c0.05,1.51 0.13,2.68 -1.15,2.67 -1.26,-0 -1.16,-1.25 -1.11,-2.74l0.62 0.07c0.02,0.64 -0.03,1.38 0.12,1.89 1.16,0.55 0.87,-0.84 0.91,-1.95l0.61 0.07zm-3.3 2.45c-0.99,0.36 -2.34,0.07 -1.96,-1.54 0.32,-1.37 1.67,-0.85 1.83,-0.86 0.32,-0 -0.02,0.01 0.22,-0.04l0.16 -0.04c0.16,-0.03 0.21,-0.03 0.37,-0.03 0.04,0.82 0.09,3.39 -0.04,4.07 -0.69,0.02 -0.58,0.27 -0.58,-1.57zm-4.16 -0.17c-1.17,1.12 -2.86,-0.27 -2.11,-1.65 0.61,-1.13 2.72,-0.86 2.28,0.97l-1.68 0.03c0.55,1.13 0.93,-0.38 1.52,0.65zm-6.47 -0.02c-0.87,1.05 -2.77,0.06 -2.15,-1.55 0.43,-1.11 2.61,-1.1 2.36,0.89l-1.71 0.05c0.63,1.11 1.01,-0.41 1.5,0.61zm-3.3 -2.63c0.1,-0.36 0.09,-0.31 0.62,-0.69l-0 3.73c-0.25,0 -0.24,-0 -0.47,-0.05 -0.37,-0.08 0.08,-0.1 -0.35,-0.06 -0.18,0.02 -1.47,0.5 -1.78,-0.88 -0.29,-1.3 0.89,-2.02 1.84,-1.55l0.14 -0.49zm-4.17 2.66c-1.11,1.02 -2.8,-0.15 -2.16,-1.58 0.48,-1.06 1.26,-0.54 1.36,-0.52 0.29,0.05 1.17,-0.29 0.99,1.4l-1.72 0.04c0.6,1.14 0.96,-0.43 1.53,0.66zm9.19 -1.47l0.27 0.45c-0.11,0.21 -0.06,0.21 -0.3,0.36l0.03 -0.81zm6.02 -0.78c0.44,-0.14 0.32,0.01 0.76,0.1 -0.2,0.67 -0.4,1.39 -0.04,2.12l-0.88 0.73c-0.22,-0.3 -0.58,-0.61 -0.73,-0.86 0.29,-0.89 0.33,-0.85 0.01,-1.93 0.49,0.02 0.47,-0.03 0.89,-0.16zm-5.61 0.06c0,-0 0.16,-0.13 0.17,-0.14 0.21,0.11 0.48,0.44 0.6,0.66 0.29,-0.51 0.42,-0.75 1.11,-0.65 -0.18,0.59 -0.53,0.77 -0.72,1.36 0.18,0.16 0.71,1.02 0.79,1.3l-0.73 0.01c-0.16,-0.41 -0.23,-0.46 -0.46,-0.82 -0.02,0.03 -0.43,0.64 -0.44,0.65 -0.26,0.29 -0.38,0.22 -0.78,0.15 0.15,-0.48 0.64,-0.92 0.8,-1.47 -0.2,-0.3 -0.37,-0.47 -0.55,-0.83l0.21 -0.22zm13.03 -0.75c-0.08,0.11 -0.02,0.08 -0.16,0.18 -0.12,0.08 -0.12,0.04 -0.26,0.08 0.15,-0.36 0.12,-0.35 0.43,-0.26zm-2.59 0.22c0.44,-0.13 0.48,-0.33 0.83,-0.47 -0.02,0.59 -0.05,0.22 -0.43,0.63l-0.06 1.8c-0.59,-0.28 0.02,-0.55 -0.34,-1.95zm-3.22 -0.06c0.23,-0.43 0.65,-0.72 0.97,-0.95 0.17,0.36 0.26,0.89 0.68,0.84 -0.66,0.13 -1,0.01 -1.64,0.11zm-3.15 -0.03c-0.05,0.04 0.12,0.47 -0.37,-0.14 0.02,-0.02 0.26,-0.21 0.37,0.14zm-13.42 0.42c0.48,-0.18 0.66,0.39 1.1,-0.12 0.05,-0.05 0.45,-0.77 0.56,-0.93l0.09 0.16c0.16,0.31 -0.02,-0.05 0.08,0.16 0.07,0.15 0.04,0.13 0.12,0.29 0.68,0.17 0.74,-0.2 1.12,-0.56l0.47 0.56c-1.37,-0.18 -2.86,1.22 -1.42,3.36 -0.25,0.29 -0.44,0.67 -0.62,1.22 -0.28,0.88 -0.14,0.4 -0.89,0.79 0.25,-1.35 0.64,-1.68 -0.45,-2.56 0.03,-0.67 0.3,-0.43 0.19,-1.35 -0.06,-0.53 -0.28,-0.72 -0.35,-1.03zm11.71 -1.25c-0.11,0.68 -0.09,0.56 0.02,1.2 -0.25,-0.15 -0.16,-0.13 -0.37,-0.3l-0.31 -0.24 0.65 -0.67zm-3.81 0.68c-0.01,-0.38 0.08,-0.4 0.35,-0.49 -0.07,0.14 -0.05,0.12 -0.17,0.31 -0.09,0.13 -0.08,0.1 -0.17,0.19zm-7.29 -0.56c-0.31,0.24 -1.55,1.66 -2.03,0.59 -0.21,-0.46 -0.08,-1.16 0.04,-1.65 0.58,-2.34 2.59,-2.05 1.9,-0.38 -0.87,2.09 -1.51,0.24 -1.45,1.88 0.7,0.12 1.86,-1.57 2.1,-2.1 0.43,-0.93 0.2,-0.13 1.21,-0.69 0.66,-0.37 1.02,0.06 0.83,0.89 0.24,-0.12 0.49,-0.28 0.78,-0.18 0.31,0.11 0.45,0.57 0.48,0.51 0.01,-0.02 0.04,0.05 0.06,0.07 0.17,-0.35 0.48,-1.23 0.92,-0.73 -0.31,0.59 -1.33,1.88 -1.93,1.9l-0.05 -0.8c-0.56,0.42 -1.06,0.92 -1.32,0.93l0.25 -1.45c-0.24,0.14 -0.7,0.65 -0.94,0.91 -0.23,0.24 -0.22,0.22 -0.41,0.55 -0.19,0.34 -0.11,0.4 -0.47,0.47l-0.06 -0.34c0,-0 0.08,-0.36 0.08,-0.38zm23.56 -3.63l-0.31 0.52c-0.41,0.57 -0.1,-0.32 -1.26,1.09l-0.39 -0.6c0.52,-0.15 0.7,-0.37 0.88,-0.9l1.08 -0.11zm-1.41 -0.43c-0.06,1.1 -0.81,1.14 -0.95,0.64 -0.26,-0.95 0.66,-0.8 0.95,-0.64zm-11.6 1.5c0.27,-0.21 0.5,-0.23 0.72,-0.61 0.23,-0.39 0.13,-0.48 0.7,-0.47l-1.06 1.66c-0.13,-0.43 -0.11,-0.37 -0.36,-0.59zm-0.4 -0.67c-0.11,-1.04 0.36,-1.27 0.93,-0.77 -0.01,0.74 -0.42,0.94 -0.93,0.77zm-0.38 -1.39c-0.09,0.47 -0.1,0.31 -0.31,0.75l0.3 -0.11c-0.04,1.24 0.21,0.89 0.16,1.25l-0.37 0.17c-0.05,-0 -1,-1.12 -1.82,-0.24 -0.65,0.7 -0.27,1.56 -0.02,2.29 -0.24,0.15 -0.6,0.17 -0.74,0.57 -0.2,0.58 0.43,1.5 -0.25,1.03 -1.39,-0.97 -1.7,-0.14 -2.39,0.18l-0.07 -1.67c0.29,-0.21 1.54,-1.37 0.69,-1.98 -0.55,-0.26 -0.77,0.17 -1.04,0.47 -0.24,-0.14 -0.25,-0.14 -0.5,-0.22 -0.1,-0.03 -0.12,-0.02 -0.22,-0.07 -0.45,-0.25 -0.24,-0.65 -0.88,-0.77 -0.27,-0.05 -1.66,0.44 -1.92,0.59 -0.48,-2.15 -3.41,-0.19 -2.81,3.08 -0.49,0.6 -0.89,0.4 -1.06,1.47 -0.15,0.99 0.31,1.43 0.64,1.91 -0.32,0.68 -0.37,0.32 -0.9,1.82 -0.19,0.54 -0.59,1.54 -0.67,2.13 -0.3,2.16 1.97,1.63 2.85,1.13l-0.14 0.35c-0.08,0.46 -0.04,0.05 -0.13,0.61 0.18,0.23 -0.26,0.34 0.28,0.14 0.15,-0.5 1.76,-5.08 2.56,-3.65 0.45,0.8 -1.47,2.3 -1.74,3.74 1.09,0.56 1.1,-0.06 1.53,-0.72 0.32,-0.5 1.01,-0.96 1.56,-0.49 -0.06,0.96 -0.34,0.21 -1.18,1.23 -0.35,0.43 -0.69,0.91 -0.83,1.74 0.98,-0.89 0.52,-1.82 1.2,-1.89 0.4,-0.04 0.42,0.08 0.51,0.47 0.48,-0.78 1.8,-2.6 2.43,-1.28 -0.19,0.8 -0.65,0.18 -1.3,0.86 -0.28,0.29 -0.73,0.99 -0.77,1.71 0.5,-0.11 0.78,-0.34 1.13,-0.64l0.93 -0.94c0.37,-0.45 0.27,-0.69 0.78,-1.14 0.49,-0.44 0.74,-0.5 1.21,-0.14 -0.03,0.64 -0.05,0.48 -0.52,0.69 -0.56,0.25 -1.32,1.29 -1.48,2.3 0.37,-0.31 0.56,-0.73 0.75,-1.34 0.11,-0.35 0.09,-0.5 0.43,-0.55 0.26,-0.04 0.31,0.04 0.49,0.23l0.16 0.2c0.17,-0.38 0.42,-0.97 0.95,-0.71 -0.01,0.43 -0.22,0.48 -0.79,1.38 -0.65,1.03 -0.62,1 -1.11,0.66 -0.01,-0.01 -0.04,-0.04 -0.06,-0.05 -0.43,0.56 -1.56,1.37 -1.22,-0.46 -0.45,0.28 -0.77,0.58 -1.38,0.95 0.39,0.28 0.52,0.09 0.65,0.72 -0.06,0.74 -1.7,0.64 -2.21,0.55 -0.38,-0.07 -0.44,-0.12 -0.52,-0.55 0.46,-0.85 1.01,0.13 2.09,-0.15 -0.23,-0.2 -0.31,-0.09 -0.45,-0.2 -0.32,-0.26 -0.04,0.08 -0.13,-0.23 -0.22,-0.76 0.2,0.25 -0.05,-0.28 -0.23,-0.46 -0.19,0.14 -0.82,-0.32 -0.01,-0.01 -0.04,-0.04 -0.06,-0.05 -0.25,0.27 -0.73,0.99 -1.17,0.48 -0.31,-0.48 0.02,-0.91 0.09,-1.51l-1.02 0.06 -0.42 0.96c0.18,0.39 -0.32,0.09 0.33,0.33 0.15,-0.41 0.18,-0.71 0.58,-0.8l-0.08 0.82 -0.53 0.08 -0.42 -0.04c0.02,0.03 0.05,0.06 0.07,0.07 0.54,0.41 0.74,-0.08 1.03,0.44l-0.01 0.14c0.1,0.02 0.18,-0.03 0.37,0.18 0.24,0.25 0.05,0.04 0.21,0.44 0.16,0.41 0.29,0.56 0.66,0.59 0.2,-0.06 0.56,-0.13 0.78,-0.03 0.38,0.15 0.32,0.2 0.26,0.78 0.02,-0.02 0.04,-0.06 0.06,-0.08l0.4 -0.31c0.56,-0.45 1.36,-0.38 1.43,-1.53 1.53,0.57 0.21,-0.41 3.11,-0.16 0.02,1.02 -0.36,2 -0.23,2.97l0.01 0.63c0.14,0.14 -0.21,0.45 0.24,-0.01l1.09 -3.59c0.77,-0.05 3.77,-0.09 4.51,0.17 0.61,0.22 0.63,0.45 0.64,1.14l0.1 0.3c0.09,-0.33 -0.13,-0.2 0.22,-0.32 0.17,-0.26 0.27,-0.75 0.25,-1.04l-0.07 -0.53c0.16,0 0.51,0.03 0.66,0.01 0.27,-0.04 0.39,0.17 0.28,-0.16l-0.27 -0.08c0.03,-0.95 0.53,-1.08 0.96,-1.43 -0.42,0.15 -0.55,0.41 -1.01,0.48 -0.06,-0.68 0.06,-1.3 0.44,-1.65 0.23,-0.21 0.36,-0.18 0.61,-0.27 0.54,-0.19 0.2,0.04 0.49,-0.53 0.34,0.23 0.36,0.51 0.89,0.66 0.46,0.13 0.94,0.03 1.37,-0.04l0.3 0.46c-0.1,-0.25 -0.1,-0.2 -0.19,-0.47 0.24,-0.23 0.58,-0.53 0.86,-0.65 -0.09,-0.13 -0.12,-0.28 -0.2,-0.54 -0.26,0.32 -0.63,0.69 -1.21,0.79 -2.07,0.35 -1.23,-1.5 -1.17,-1.83l1.13 -0.01c-0.08,0.33 -0.24,0.63 -0.12,0.97 0.38,-0.15 0.38,-0.3 0.51,-0.78 -0.34,-0.74 -1.1,-0.65 -0.92,-1.75 1.87,0.19 0.86,-1.07 1.23,-1.61 0.21,-0.15 0.04,-0.06 0.35,0.1 0.7,0.36 0.77,0.11 1.35,0.15 0.06,0.48 -0.08,0.76 -0.17,1.17 0.03,0.16 -0.01,0.13 -0.06,0.16l-0.39 0.34c-0.24,0.6 0.1,0.71 0.1,0.71 0.32,-0.17 0.12,-0.02 0.38,-0.31 1.2,-3.35 1.27,-1.73 2.81,-2.12 1.46,-0.37 -0.32,2.88 -0.52,3.85 -0.02,0.54 -0.07,0.08 0.13,0.31 0.14,-0.14 0.05,-0.03 0.17,-0.2l0.32 -0.67c1.59,-4.05 0.42,-2.74 0.71,-4.12 0.08,-0.39 0.8,-1.76 -0.63,-2.62l0.11 -0.12c0.02,-0.02 0.09,-0.09 0.11,-0.11 1.45,-1.33 0.36,-0.17 1.63,0.53 0.47,0.26 0.86,0.18 1.31,0.46 0.22,-0.28 -0.3,0.18 0.39,-0.55l-0.08 -0.12c0.21,-0.54 0.43,-0.59 0.65,-1.08 0.19,-0.41 0.26,-0.84 0.45,-1.23 0.3,0.13 0.15,0.07 0.37,0.39l-0.03 -0.5 -0.4 -0.07c-0.52,1.06 -0.65,2.78 -2.27,2.06 -0.81,-0.36 -1.33,-3.14 -1.27,-3.49 0.86,-0.32 1.63,0 2.53,0.04 -0.11,-0.27 -0.11,-0.38 0.05,-0.72 0.08,-0.17 0.17,-0.37 0.3,-0.59l0.58 0.39c-0.1,-0.09 -0.25,-0.23 -0.44,-0.35 -0.11,-0.07 -0.08,-0.09 -0.24,-0.12 -0.2,-0.04 -0.08,-0.07 -0.2,0.05 -0.36,0.36 -1.2,1.19 -1.79,0.51l-0.39 -0.03 -0.06 -0.57 0 -0.05c-0.54,0.08 -0.78,0.39 -1.58,0.38 -0.45,-0.66 -0.61,-0.89 -1.46,-0.51 -0.03,-0.01 -0.14,-0.08 -0.16,-0.09 -0.02,-0.01 -0.05,-0.02 -0.07,-0.03 -0.3,-0.03 -0.1,-0.24 -0.22,0.2 0.39,0.23 0.13,0.38 0.16,0.94 0.02,0.44 0.13,0.45 0.27,0.79 -0.48,-0.02 -0.52,-0.81 -1.57,-0.38 -0.54,0.22 -0.9,0.61 -1.1,1.1 -0.34,-0.22 -0.15,-0.23 -0.49,-0.41 -0.22,-0.12 -0.35,-0.07 -0.52,-0.14 -0.45,-0.19 -0.12,-0.43 -0.91,-0.61l0 -0.46 -0.38 0.18 -0.02 0.12c-0.6,0.22 -0.28,-0.31 -1.01,-0.09 -0.4,0.12 -0.62,0.36 -1.03,0.21 0.07,-0.3 0.87,-0.87 1.15,-1.16 -0.13,-0.15 0.27,-0.08 -0.23,-0.18l-0.28 0.04c-0.02,-0.05 -0.07,0.02 -0.11,0.04 0.2,-0.66 0.16,-0.41 0.11,-0.58 -0.39,0.32 -0.38,0.61 -0.8,1.02 -0.39,0.38 -0.38,0.54 -0.65,1.19 -0.36,0.85 -0.79,1.77 -1.07,2.63 1.58,-0.88 1.27,-2.96 2.99,-2.37 0.24,0.75 -0.06,1.97 -1.08,2.28 -0.41,0.12 -0.43,-0.04 -0.39,0.77 0.56,0.1 1.19,-0.73 1.47,-1.13 0.63,-0.89 0.5,-0.64 0.92,-1.89 0.47,-0.13 0.48,-0.14 0.85,0.12 -0.03,0.58 -0.12,0.41 -0.29,0.91 1.05,-0.65 1.48,-1.06 1.27,0.94 0.46,-0.33 0.63,-1.07 1.05,-1.56 0.5,-0.57 1.38,-0.82 1.56,-0.32 0.12,0.85 -0.58,0.29 -1.13,0.9 -0.37,0.41 -0.69,0.89 -0.75,1.6 0.54,-0.1 0.82,-0.41 1.21,-0.75 0.67,-0.58 0.6,-0.61 0.8,-1.12 0.26,-0.66 1.1,-0.5 0.86,0.27 -0.05,0.17 -0.24,0.48 -0.32,0.69 -0.12,0.29 -0.18,0.5 -0.24,0.78 1.38,-1.22 1.34,-2.21 2.36,-2.34 0.28,0.41 0.58,1.6 0.62,1.95 -0.44,0.22 -0.24,-0.16 -0.67,0.29 -0.2,0.21 -0.14,0.31 -0.47,0.48 -0.88,0.46 -1.01,-0.4 -1.16,-0.58 -0.18,0.55 -1.53,2.08 -1.18,-0.39 -0.83,0.64 -1.37,1.53 -2.14,0.91 -0.59,-0.47 -0.05,0.02 -0.83,-0.11 -0.12,-0.31 -0.16,-0.74 -0.2,-1.19 -1.25,0.73 -1.76,2.1 -2.41,1.88 -0.01,-0.31 0.05,-0.33 0.13,-0.55 -0.69,0.68 -2.07,1.52 -1.88,-0.74 -0.37,0.23 -1.27,1.33 -1.63,1.08 -0.26,-0.33 0.43,-1.54 0.49,-2.46 -0.08,0.22 -0.89,1.06 -1.13,1.39 -0.22,0.3 -0.41,0.43 -0.64,0.72 -0.29,0.38 -0.32,0.53 -0.8,0.31 -0.06,-0.18 -0.03,-0.22 -0.08,-0.46l-0.15 -0.48c-0.15,0.72 -0.13,0.89 -0.59,1.27 -0.33,0.27 -0.66,0.47 -1.03,0.31 0.15,-0.73 0.5,-0.83 0.83,-1.33 -0.19,-0.39 -0.71,-1.13 -0.63,-1.78 0.09,-0.78 0.88,-0.88 1.33,-0.39 -0.08,0.52 -0.11,0.25 -0.46,0.6 0.02,0.47 0.07,0.65 0.28,0.94 0.99,-0.96 0.41,-1.79 1.58,-1.33 0.08,0.58 -0.42,1.15 -0.6,1.98 0.5,-0.28 1.08,-1.23 1.46,-1.73l1.22 -1.88 -0.14 -0.07c-0.02,-0.01 -0.05,-0.02 -0.07,-0.02 -0.02,-0.01 -0.05,-0.01 -0.07,-0.01 -0.02,-0 -0.05,0 -0.07,-0 -0.53,-0.12 -0.25,-0.17 -0.21,-0.35l-0.59 0.11c-0.18,-0.53 -0.48,-0.72 -1.1,-0.57 -0.06,-0.11 -0.18,0.32 -0.13,-0.54 -0.11,-0.13 0.17,-0.29 -0.2,-0.02 -0.19,0.22 -0.21,0.36 -0.23,0.59z"/>
   <path class="fil2" d="M32.12 28.02c0.1,-1 0.69,-2.12 0.76,-3.01l-2.53 0.02c-0.29,0.77 -2.34,7.83 -2.41,8.42l2.55 -0.04 1 -3.51 0.77 0.05 -0.98 3.49 2.51 -0.02c0.43,-0.79 0.21,-1.43 0.45,-2.4 0.18,-0.73 0.39,-1.4 0.59,-2.11 0.21,-0.72 0.39,-1.38 0.64,-2.06 0.27,-0.73 0.7,-1.11 0.77,-1.84l-2.54 0.01 -0.91 2.99 -0.68 0.01z"/>
   <path class="fil2" d="M9.63 30.44c0.07,-0.43 0.85,-2.33 1.13,-2.79l0.24 -0.26 -0.52 3.04 -0.84 0.01zm-0.79 -3.72c-0.1,0.54 -1.18,2.81 -1.47,3.44 -0.33,0.72 -1.23,2.52 -1.42,3.29l2.62 -0.04c0.69,-1.3 0.04,-1.43 1.51,-1.47l-0.24 1.51 1.76 -0 1.55 -5.45c-0.13,-0.97 0.24,-1.95 0.23,-2.97 -2.9,-0.25 -1.58,0.73 -3.11,0.16 -0.06,1.16 -0.86,1.09 -1.43,1.53z"/>
   <path class="fil3" d="M28.8 12.16c-0.04,-0.71 0.32,-1.09 0.56,-1.37l0.17 0.54c-0.19,0.45 -0.32,0.74 -0.73,0.83zm-8.36 -0.72c0.08,-0.42 0.19,-0.45 0.35,-0.62 -0.08,0.52 -0.05,0.53 -0.35,0.62zm-1.39 -2.96l-1.22 1.88c-0.38,0.5 -0.96,1.45 -1.46,1.73 0.18,-0.83 0.68,-1.4 0.6,-1.98 -1.17,-0.46 -0.58,0.38 -1.58,1.33 -0.21,-0.29 -0.26,-0.47 -0.28,-0.94 0.34,-0.35 0.37,-0.08 0.46,-0.6 -0.45,-0.48 -1.24,-0.39 -1.33,0.39 -0.08,0.65 0.44,1.39 0.63,1.78 -0.33,0.5 -0.68,0.6 -0.83,1.33 0.37,0.16 0.7,-0.04 1.03,-0.31 0.46,-0.38 0.43,-0.55 0.59,-1.27l0.15 0.48c0.04,0.23 0.02,0.28 0.08,0.46 0.48,0.21 0.5,0.06 0.8,-0.31 0.23,-0.29 0.42,-0.43 0.64,-0.72 0.25,-0.32 1.05,-1.17 1.13,-1.39 -0.06,0.91 -0.75,2.12 -0.49,2.46 0.37,0.25 1.26,-0.85 1.63,-1.08 -0.18,2.26 1.2,1.42 1.88,0.74 -0.08,0.23 -0.14,0.25 -0.13,0.55 0.64,0.22 1.16,-1.14 2.41,-1.88 0.04,0.45 0.07,0.87 0.2,1.19 0.78,0.14 0.24,-0.35 0.83,0.11 0.77,0.61 1.31,-0.27 2.14,-0.91 -0.35,2.47 1,0.94 1.18,0.39 0.15,0.17 0.29,1.03 1.16,0.58 0.32,-0.17 0.27,-0.27 0.47,-0.48 0.43,-0.44 0.23,-0.07 0.67,-0.29 -0.04,-0.35 -0.34,-1.54 -0.62,-1.95 -1.01,0.14 -0.97,1.13 -2.36,2.34 0.06,-0.28 0.12,-0.5 0.24,-0.78 0.08,-0.2 0.27,-0.51 0.32,-0.69 0.24,-0.77 -0.6,-0.93 -0.86,-0.27 -0.2,0.51 -0.13,0.54 -0.8,1.12 -0.39,0.34 -0.67,0.65 -1.21,0.75 0.06,-0.71 0.37,-1.19 0.75,-1.6 0.55,-0.61 1.25,-0.05 1.13,-0.9 -0.19,-0.5 -1.06,-0.25 -1.56,0.32 -0.42,0.49 -0.6,1.23 -1.05,1.56 0.2,-2 -0.23,-1.58 -1.27,-0.94 0.17,-0.5 0.26,-0.33 0.29,-0.91 -0.37,-0.27 -0.38,-0.25 -0.85,-0.12 -0.43,1.25 -0.29,1 -0.92,1.89 -0.28,0.4 -0.91,1.23 -1.47,1.13 -0.04,-0.81 -0.02,-0.64 0.39,-0.77 1.02,-0.31 1.32,-1.53 1.08,-2.28 -1.71,-0.59 -1.4,1.49 -2.99,2.37 0.28,-0.86 0.7,-1.78 1.07,-2.63 0.27,-0.65 0.26,-0.81 0.65,-1.19 0.42,-0.4 0.41,-0.69 0.8,-1.02l-0.09 -0.66c-1.41,-0.49 -1.37,1.16 -2.03,2z"/>
   <path class="fil4" d="M39.3 13.84c0.06,-1.25 1.29,-0.4 0.37,0.43 0.12,-0.49 0.2,-0.44 0.11,-0.96 -0.19,0.14 -0.31,0.32 -0.48,0.53zm-6.42 -0.56c0.68,1.7 3.03,-0.61 4.52,2.11 0.43,0.79 0.58,2.18 0.16,3.11 -0.4,0.87 -1.05,1.26 -2.11,1.2l0.06 2.3 0.31 -0.25c0.14,-0.58 0.83,-0.59 1.26,-0.75 0.44,-0.16 0.87,-0.39 1.27,-0.61 0.81,-0.45 1.66,-1.08 2.2,-1.64 -0.11,-1.26 -0.74,-2.64 -0.85,-3.78 0.32,-0.5 0.75,-0.76 0.53,-1.84l-1.69 -1.29c-0.17,0.15 -0.18,0.09 -0.23,0.4l0.01 -0.61c-0.25,-0.23 -0.45,-0.45 -0.79,-0.53 -0.28,0.99 -0.12,1.52 -0.83,2.08 -1.09,1 -2.28,-0.48 -2.44,-1.95 -0.22,-0.31 -0.07,-0.25 -0.37,-0.39 -0.19,0.38 -0.26,0.82 -0.45,1.23 -0.22,0.49 -0.44,0.53 -0.65,1.08l0.08 0.12z"/>
   <path class="fil2" d="M41.09 28.89c-0.03,-0.02 -0.13,-0.11 -0.14,-0.11l-0.23 0.07c-0.13,0.42 -0.05,0.63 -0.13,0.97l-0.25 0.63c-0.01,0.01 -0.03,0.03 -0.03,0.04l-0.32 0.43c-0.16,0.33 -0.09,0.38 -0.09,0.83 -0.21,0.15 0.02,0.08 -0.29,0.1 -0.03,0 -0.23,-0.09 -0.26,-0.1 0.02,0.06 0.04,0.12 0.06,0.18 0.21,0.61 0.26,0.41 0.12,0.31 -0.62,0.23 -0.3,0.34 -0.71,0.55 -0.17,0.08 -0.32,0.08 -0.48,0.1 -0.03,0 -0.25,0.03 -0.26,0.03 -0.23,0.01 -0,0.37 -0.16,-0.01 -0.01,-0.03 -0.05,0 -0.08,-0.01 -0.05,-0.24 -0.05,-0.25 0.09,-0.48 0.13,-0.22 0.29,-0.05 0.26,-0.58 -0.02,-0.47 0.04,-0.21 0.18,-0.69 0.36,-1.2 0.36,-0.86 0.19,-1.67 -0.6,0.81 -0.36,2.81 -1.47,2.71 -0.14,-0.67 0.59,-2.68 0.78,-3.34 0.5,-1.78 0.55,-2.64 1.41,-2.51l-0.07 0.76c0.34,-0.04 0.37,-0.11 0.77,-0.17 -0.15,-0.18 -0.09,-0.54 -0.06,-0.7 0.12,-0.57 -0.27,-0.57 1.01,-0.45 0.66,0.06 -0.56,0.12 0.51,0.18l-0.07 -0.05c-0,0 -0.03,-0 -0.03,0 -0.24,0.16 -0.05,1.45 -0.01,1.67 0.25,-0.39 0.4,-1.28 0.39,-1.76 -0.37,-0.4 -0.4,-0.56 -0.95,-0.76 -1.17,-0.44 -2.96,-0.18 -3.94,0.59 -0.78,0.62 -0.92,1.13 -1.3,2.37 -0.88,2.85 -1.73,4.72 -0,5.41 1.15,0.46 4.01,0.32 4.68,-1.61 0.21,-0.59 0.67,-1.14 0.87,-2.92z"/>
   <path class="fil2" d="M5.56 26.47c0.31,0.59 -0.05,1.32 -0.36,1.79 -0.11,0.33 0.15,0.17 -0.36,0.32 -0.46,0.14 -0.5,-0.29 -0.73,-0.34l-0.06 0.73c0.45,0.37 0.08,0.02 0.53,0.26 0.51,0.28 0.31,0.04 0.45,0.83 -0.18,0.29 0.24,0.24 -0.25,0.24 -0.46,1.02 -0.11,1.67 -1.33,1.7l0.26 -1.24c-0.07,-0.53 0.01,-0.75 0.13,-1.18 -1.05,0.32 -1.18,-0.16 -1.36,0.25 0.21,0.27 0.33,-0.66 -0.42,-0.25l-0.14 0.08c-0.01,0 -0.04,0.01 -0.05,0.01 -0.01,0 -0.05,0.04 -0.06,0.02 -0.01,-0.03 -0.04,0.01 -0.06,0.02 -0.02,0.6 -0.16,0.69 -0.36,1.08 -0.32,0.62 -0.16,0.7 -0.07,1.34 0.15,-0.26 -0.03,-0.14 -0.28,-0.24l0.05 1.13c0,0.02 0.01,0.1 0.01,0.09 0,-0.02 0,0.06 0.01,0.1l1.74 0c-0.21,-0.26 -1.86,-0.07 -2.29,-0.14l-0.11 0.41c0.87,0.01 4.28,0.13 4.87,-0.11 0.4,-0.16 1.84,-3.74 1.87,-4.04l-0.78 -0.42c1.03,-0.36 1.67,-0.76 1.73,-2.33 -0.3,-0.03 -0.6,0.02 -0.78,-0.18 -0.37,-0.03 -0.49,-0.18 -0.66,-0.59 -0.16,-0.4 0.03,-0.19 -0.21,-0.44 -0.2,-0.21 -0.28,-0.16 -0.37,-0.18 -0.6,0.17 -0.43,-0.19 -0.8,0.46 -0.01,0.02 -0.03,0.05 -0.04,0.07l-0.32 0.48c0.52,0.05 0.46,0.1 0.62,0.3z"/>
   <path class="fil2" d="M13.39 28.61l-1.34 4.84 2.56 0.01 0.02 -0.36 0 -2.07c0.2,-0 0.19,0.02 0.3,0.12l0.28 -0.7c0.04,-0.11 0.04,-0.08 0.06,-0.25l-0.06 -1.1 0.29 -0.03c0.43,-0.14 0.34,-0.5 0.35,-0.68 0.01,-0.14 -0,-0.33 0,-0.48 0.03,-0.61 0.11,-0.89 0.43,-0.98l-0.04 -0.36c0,-0.03 0.01,-0.06 0.02,-0.09l0.14 -0.39c0,-0.01 -0.01,-0.02 -0.01,-0.01 0.66,-0.13 0.75,0 1.37,0 -0.16,-0.4 -0.21,0.94 -0.28,1.35 -0.01,0.04 -0.03,0.14 -0.04,0.18 -0.04,0.3 -0.03,0.03 -0.03,0.38 0,0.03 0.01,0.06 0.01,0.09l-0.03 0.78c0.4,-0.07 0.41,-0.13 0.76,-0.24l0.57 0.05c0.33,-0.19 0.52,-1.32 0.65,-1.77 0.11,-0.36 0.07,-0.32 0.25,-0.56 -0.01,-0.7 -0.02,-0.92 -0.64,-1.14 -0.74,-0.26 -3.73,-0.22 -4.51,-0.17l-1.09 3.59z"/>
   <path class="fil5" d="M4.92 22.46c-0.09,0.19 -2.34,5.93 -2.07,6.25 0.34,0.25 0.47,-0.42 0.67,-0.87l1.61 -3.72 0.42 -0.96 1.02 -0.06c-0.06,0.6 -0.4,1.03 -0.09,1.51 0.45,0.51 0.93,-0.21 1.17,-0.48 0.02,0.01 0.05,0.04 0.06,0.05 0.63,0.46 0.59,-0.14 0.82,0.32 0.26,0.52 -0.17,-0.48 0.05,0.28 0.09,0.31 -0.2,-0.03 0.13,0.23 0.13,0.1 0.21,0 0.45,0.2 -1.08,0.28 -1.64,-0.7 -2.09,0.15 0.08,0.44 0.14,0.49 0.52,0.55 0.51,0.09 2.15,0.18 2.21,-0.55 -0.13,-0.63 -0.25,-0.45 -0.65,-0.72 0.61,-0.37 0.93,-0.67 1.38,-0.95 -0.34,1.82 0.78,1.02 1.22,0.46 0.02,0.01 0.05,0.04 0.06,0.05 0.49,0.34 0.46,0.37 1.11,-0.66 0.57,-0.9 0.79,-0.96 0.79,-1.38 -0.53,-0.26 -0.78,0.33 -0.95,0.71l-0.16 -0.2c-0.18,-0.19 -0.24,-0.27 -0.49,-0.23 -0.34,0.05 -0.32,0.2 -0.43,0.55 -0.19,0.61 -0.38,1.03 -0.75,1.34 0.16,-1 0.92,-2.05 1.48,-2.3 0.48,-0.21 0.49,-0.05 0.52,-0.69 -0.47,-0.36 -0.72,-0.3 -1.21,0.14 -0.51,0.46 -0.4,0.69 -0.78,1.14l-0.93 0.94c-0.35,0.3 -0.63,0.53 -1.13,0.64 0.04,-0.72 0.5,-1.42 0.77,-1.71 0.65,-0.68 1.1,-0.06 1.3,-0.86 -0.63,-1.32 -1.96,0.49 -2.43,1.28 -0.09,-0.38 -0.11,-0.51 -0.51,-0.47 -0.68,0.07 -0.21,1 -1.2,1.89 0.13,-0.83 0.48,-1.31 0.83,-1.74 0.84,-1.02 1.12,-0.27 1.18,-1.23 -0.54,-0.48 -1.23,-0.01 -1.56,0.49 -0.43,0.67 -0.44,1.29 -1.53,0.72 0.27,-1.44 2.19,-2.93 1.74,-3.74 -0.8,-1.43 -2.41,3.14 -2.56,3.65z"/>
   <path class="fil6" d="M38.31 1.72c-0.3,-0.11 -0.34,-0.24 -0.38,-0.29 -0.01,-0.01 -0.03,-0.04 -0.04,-0.06 -1.15,-0.52 -2.25,-0.22 -3.14,0.61 -0.81,0.75 -0.97,2.24 -1.19,3.97 2.47,-0.4 3.82,0.97 5.34,1.26 0.19,-0.53 0.52,-2.56 0.52,-3.13 -0.01,-1.26 -0.7,-1.85 -1.1,-2.37z"/>
   <path class="fil7" d="M21.74 29.21c-0.39,-0.67 -0.33,-0.85 -0.42,-1 -0.07,0.2 -0.05,0.39 -0.1,0.8l-0.04 0.66c-0.11,1.56 -0.46,0.38 -0.5,1.83 -0.01,-0.01 -0.02,-0.06 -0.02,-0.04 -0.09,0.6 -0.03,-0.07 -0.04,-0.09 -0.21,-0.29 0.11,-0.21 -0.12,-0.11 0.12,0.55 0.19,0.56 -0,1.33 0.02,-0.05 -0.01,-0.14 0.18,0.01 0.27,0.21 -0,-0.11 0.1,0.13 0,0.01 0.01,0.04 0.01,0.04l0.89 0.06c0.22,0.34 -0.04,0.49 0.48,0.36 -0.41,0.18 -1.48,0.27 -1.99,-0.18 -0.02,-0.02 -0.05,-0.05 -0.06,-0.06 -0.02,-0.01 -0.04,-0.05 -0.06,-0.06 -0.18,0.27 -0.04,0.2 -0.23,0.27 -0.1,0.04 0.01,0.03 -0.11,0 -0.02,-0 -0.04,-0.03 -0.06,-0.03 -0.02,-0.01 -0.04,-0.03 -0.06,-0.05 -0.02,-0.01 -0.04,-0.04 -0.06,-0.05 -0.02,-0.01 -0.04,-0.03 -0.07,-0.05 -0.47,-0.27 -0.03,0.15 -0.42,-0.19l-0.15 -0.26c-0.08,-0.28 -0.01,-0.11 -0.01,-0.3 0.05,-1.16 -0.19,-0.73 0.43,-2.2 0.17,-0.41 0.18,-0.5 0.04,-1.37 -0.3,0.38 -0.54,1.6 -0.7,2.21 -0.28,1.02 -0.38,1.69 0.2,2.19 0.91,0.78 2.9,0.68 3.95,0.17 1.2,-0.58 1.2,-1.29 1.88,-3.78 0.22,-0.8 1.18,-3.85 1.25,-4.45l-2.24 0.02c-0.36,0.91 -1.27,4.29 -1.69,5.72 -0.24,0.8 -0.2,1.45 -1.01,1.42 0,-0.78 0.49,-2.19 0.73,-2.95z"/>
   <path class="fil2" d="M27.1 31.77c0.15,-1.24 1.77,-5.72 1.85,-6.75l-2.53 0.01 -2.43 8.42 3.47 0.01 0.46 -1.66 -0.81 -0.02z"/>
   <path class="fil8" d="M33.89 18.03c0.17,0.65 1.03,1.37 1.48,1.47 2.65,0.59 3.08,-3.94 0.81,-5.17 -0.75,-0.41 -1.61,-0.12 -2.39,-0.21 -0.84,-0.09 -0.92,0.14 -1.25,1.73 -0.16,0.8 -0.79,1.68 0.27,1.98 0.65,0.18 1.87,-0.21 2.26,0.33l-1.19 -0.13z"/>
   <path class="fil4" d="M21.06 24.59l13.82 0.01c-0.16,-0.51 -0.37,-0.72 -0.59,-1.09 -0.66,-0.03 -2.19,0.75 -4.69,0.68 -1.4,-0.04 -3.29,-0.24 -4.17,-1.23 -0.3,-0.19 -0.43,-0.37 -0.58,-0.76l-0.3 -0.46c-0.42,0.07 -0.91,0.18 -1.37,0.04 -0.53,-0.15 -0.55,-0.43 -0.89,-0.66 -0.29,0.56 0.05,0.33 -0.49,0.53 -0.26,0.09 -0.39,0.07 -0.61,0.27 -0.38,0.35 -0.49,0.97 -0.44,1.65 0.47,-0.08 0.6,-0.34 1.01,-0.48 -0.43,0.35 -0.94,0.48 -0.96,1.43l0.27 0.08z"/>
   <path class="fil9" d="M20.2 25.27c0.01,0.29 -0.08,0.78 -0.25,1.04 -0.15,0.75 -0.56,1.63 -0.58,2.35 0.13,0.87 0.13,0.96 -0.04,1.37 -0.62,1.47 -0.38,1.04 -0.43,2.2 -0.01,0.19 -0.07,0.02 0.01,0.3l0.15 0.26c0.38,0.34 -0.05,-0.08 0.42,0.19 0.02,0.01 0.04,0.03 0.07,0.05 0.02,0.01 0.04,0.04 0.06,0.05 0.02,0.01 0.04,0.04 0.06,0.05 0.02,0.01 0.04,0.03 0.06,0.03 0.12,0.03 0.01,0.04 0.11,-0 0.18,-0.07 0.04,0 0.23,-0.27 0.02,0.02 0.05,0.05 0.06,0.06 0.01,0.01 0.04,0.04 0.06,0.06 0.52,0.45 1.58,0.36 1.99,0.18 -0.52,0.13 -0.26,-0.02 -0.48,-0.36l-0.89 -0.06c-0,-0 -0,-0.03 -0.01,-0.04 -0.1,-0.24 0.16,0.07 -0.1,-0.13 -0.19,-0.15 -0.16,-0.06 -0.18,-0.01 0.19,-0.77 0.12,-0.78 0,-1.33 0.23,-0.1 -0.09,-0.18 0.12,0.11 0.01,0.02 -0.05,0.69 0.04,0.09 0,-0.01 0.01,0.04 0.02,0.04 0.04,-1.45 0.39,-0.26 0.5,-1.83l0.04 -0.66c0.04,-0.41 0.02,-0.6 0.1,-0.8 0.09,0.15 0.03,0.33 0.42,1l1.18 -4.17c-0.47,-0.07 -0.95,-0.03 -1.42,-0.04 -0.6,-0 -0.95,-0.11 -1.3,0.27z"/>
   <path class="fil7" d="M14.32 7.34c0.03,-0.57 0.3,-1.18 0.48,-1.73 0.21,-0.67 0.2,-1.21 0.8,-1.25 -0.01,0.64 -0.29,1.24 -0.47,1.8 -0.21,0.66 -0.23,1.25 -0.8,1.18zm1.94 0.26c0.02,-0.23 0.04,-0.38 0.23,-0.59 0.18,-0.9 0.86,-2.31 0.81,-3.15 -0.71,-0.54 -1.11,-0.3 -1.9,-0.02l0.3 -1.19 -1.55 0.04 -1.72 5.37c1.91,0.32 1.21,-0.45 2,-0.03 0.73,0.39 1.34,-0.13 1.83,-0.43z"/>
   <path class="fil7" d="M26.26 2.64l-1.48 0.02c-0.22,0.33 -1.7,4.9 -1.76,5.43l1.55 -0.04c0.21,-0.7 0.41,-1.32 0.65,-2.02 0.44,-1.31 0.35,-1.65 0.94,-1.69 -0.02,0.99 -0.87,2.65 -1.05,3.75l1.56 -0.03c1.06,-3.56 2.23,-5.03 -0.69,-4.31l0.27 -1.12z"/>
   <path class="fil7" d="M16.67 26.45l0.53 0.11c0.16,0.38 0,0.77 -0.17,1.22 -0.22,0.58 -0.37,0.5 -0.92,0.53l0.56 -1.86zm-2.03 6.64l0.19 -0.4c0.29,-0.8 0.6,-2.38 0.93,-3.05l0.52 0.09c0.16,0.87 -0.71,2.68 -0.82,3.72l2.31 -0.03c0.44,-0.87 0.13,-1.12 0.34,-2.05 0.14,-0.62 0.42,-1.29 0.47,-1.92l-0.63 -0.36c0.3,-0.22 0.55,-0.08 0.78,-0.43l-0.57 -0.05c-0.35,0.11 -0.36,0.17 -0.76,0.24l0.03 -0.78c-0,-0.03 -0.01,-0.06 -0.01,-0.09 -0.01,-0.35 -0.02,-0.08 0.03,-0.38 0.01,-0.04 0.03,-0.14 0.04,-0.18 0.07,-0.41 0.12,-1.75 0.28,-1.35 -0.62,0 -0.71,-0.13 -1.37,0 0,-0 0.01,0.01 0.01,0.01l-0.14 0.39c-0.01,0.02 -0.02,0.06 -0.02,0.09l0.04 0.36c-0.31,0.09 -0.4,0.37 -0.43,0.98 -0.01,0.15 0.01,0.35 -0,0.48 -0.01,0.18 0.08,0.55 -0.35,0.68l-0.29 0.03 0.06 1.1c-0.02,0.17 -0.03,0.14 -0.06,0.25l-0.28 0.7c-0.11,-0.1 -0.1,-0.12 -0.3,-0.12l-0 2.07z"/>
   <path class="fil2" d="M42.9 31.35c0.37,-1.05 2.1,-5.57 2.19,-6.34l-2.64 -0c-0.18,0.49 -1.4,5.78 -1.43,6.35l1.88 -0.01z"/>
   <path class="fil10" d="M31.88 6.96c0.16,0.19 -0.08,0.04 0.25,0.19l0.9 0.24c1.84,0.92 3.25,3.18 4.72,1.94 0.42,-0.36 1.24,-1.15 1.42,-1.77 -1.11,-0.23 -2.28,-1 -3.61,-1.33 -2.03,-0.5 -2.14,0.14 -3.69,0.73z"/>
   <path class="fil11" d="M29.75 5.22c0.13,-0.67 0.12,-0.85 0.61,-0.88 -0,0.8 -0.09,0.85 -0.61,0.88zm-2.15 2.44c0.85,-0.38 1.01,-0.15 1.46,0.51 0.79,0.01 1.04,-0.3 1.58,-0.38 0.31,-0.56 0.64,-0.63 0.76,-1.56l-1.43 0.04c-0.36,0.66 -0.14,1.05 -0.85,1.1 0.02,-0.47 0.21,-1.1 0.4,-1.43l2 -0.04c0.25,-0.38 0.43,-1.06 0.35,-1.68 -0.54,-0.99 -2.24,-0.81 -3.04,-0.18 -0.68,0.54 -1.33,2.64 -1.23,3.62z"/>
   <path class="fil9" d="M39.22 27.08c-0.17,0.3 -0.65,1.87 -0.65,2.38 0.18,0.8 0.17,0.47 -0.19,1.67 -0.15,0.48 -0.2,0.22 -0.18,0.69 0.02,0.53 -0.13,0.36 -0.26,0.58 -0.14,0.22 -0.15,0.24 -0.09,0.48 0.02,0.01 0.06,-0.02 0.08,0.01 0.16,0.38 -0.06,0.02 0.16,0.01 0.01,-0 0.23,-0.03 0.26,-0.03 0.17,-0.02 0.32,-0.02 0.48,-0.1 0.41,-0.2 0.09,-0.31 0.71,-0.55 0.13,0.1 0.09,0.3 -0.12,-0.31 -0.02,-0.06 -0.04,-0.12 -0.06,-0.18 0.03,0.01 0.23,0.11 0.26,0.1 0.3,-0.02 0.08,0.04 0.29,-0.1 0,-0.45 -0.07,-0.5 0.09,-0.83l0.32 -0.43c0.01,-0.01 0.03,-0.03 0.03,-0.04l0.25 -0.63c0.08,-0.35 0.01,-0.56 0.13,-0.97l0.23 -0.07c0.02,0 0.12,0.09 0.14,0.11 0.14,-0.26 0.28,-0.95 0.25,-1.32 -0.04,-0.22 -0.23,-1.51 0.01,-1.67 0,-0 0.03,-0 0.03,-0l0.07 0.05c-1.06,-0.06 0.15,-0.11 -0.51,-0.18 -1.27,-0.12 -0.89,-0.13 -1.01,0.45 -0.03,0.16 -0.09,0.51 0.06,0.7 -0.4,0.05 -0.43,0.13 -0.77,0.17z"/>
   <path class="fil3" d="M5.23 11.44c0.07,-0.3 -0,-0.14 0.12,-0.36 0.15,-0.26 0.14,-0.17 0.23,-0.26 -0.07,0.52 -0.04,0.55 -0.35,0.62zm1.26 0.77c-0,0.02 -0.08,0.37 -0.08,0.38l0.06 0.34c0.36,-0.07 0.28,-0.13 0.47,-0.47 0.18,-0.33 0.17,-0.3 0.41,-0.55 0.25,-0.26 0.7,-0.76 0.94,-0.91l-0.25 1.45c0.27,-0.01 0.76,-0.51 1.32,-0.93l0.05 0.8c0.6,-0.02 1.62,-1.31 1.93,-1.9 -0.44,-0.5 -0.76,0.38 -0.92,0.73 -0.02,-0.02 -0.05,-0.09 -0.06,-0.07 -0.03,0.07 -0.17,-0.39 -0.48,-0.51 -0.29,-0.11 -0.54,0.06 -0.78,0.18 0.19,-0.83 -0.17,-1.26 -0.83,-0.89 -1.01,0.56 -0.78,-0.24 -1.21,0.69 -0.25,0.54 -1.4,2.22 -2.1,2.1 -0.06,-1.64 0.59,0.21 1.45,-1.88 0.69,-1.67 -1.32,-1.96 -1.9,0.38 -0.12,0.49 -0.25,1.19 -0.04,1.65 0.48,1.07 1.72,-0.35 2.03,-0.59z"/>
   <path class="fil12" d="M35.81 21.75c0.17,0.33 0.93,0.15 1.27,0.2 2.24,0.28 1.5,2.01 3.05,0.69 0.36,-0.31 1.42,-1.29 1.64,-1.69 0.36,-0.66 -0.37,-2.17 -0.69,-2.64 -0.15,0.15 0.01,-0.02 -0.16,0.18 -1.4,1.7 -3.19,2.53 -5.11,3.26z"/>
   <path class="fil12" d="M3.67 20.38l0.92 -2.7c0.16,-0.44 0.11,-0.56 0.54,-0.69 -0.09,0.59 -0.42,1.37 -0.61,1.92 -0.18,0.51 -0.34,1.55 -0.85,1.46zm2.06 -4.11c-1.66,0.81 -1.71,-0.46 -2.56,1.82 -0.36,0.97 -1.46,3.09 0.02,3.25 1.85,0.19 2.35,-1.54 3.04,-3.66 0.22,-0.68 0.08,-1.69 -0.5,-1.41z"/>
   <path class="fil12" d="M27.03 20.46c0.09,-0.59 0.42,-1.41 0.62,-1.93 0.41,-1.06 0.39,-1.48 0.85,-1.5 -0.06,0.49 -0.42,1.34 -0.59,1.84 -0.42,1.18 -0.37,1.47 -0.87,1.59zm-0.69 -1.82c-0.29,0.83 -0.64,1.43 -0.5,2.42 0.46,0.28 0.97,0.4 1.59,0.2 0.83,-0.26 0.8,-0.74 1.19,-0.9 0.2,-0.98 1.98,-4.23 0.52,-3.85 -1.54,0.39 -1.61,-1.23 -2.81,2.12z"/>
   <path class="fil12" d="M18.51 17.98c0.14,-0.54 0.19,-0.88 0.64,-0.98 -0.03,0.23 -0.11,0.63 -0.18,0.78 -0.18,0.36 -0.01,0.24 -0.46,0.2zm1.18 1.16l-1.21 0.01c-0.11,0.59 -0.28,1.28 -0.79,1.26 0.07,-0.49 0.3,-1.18 0.53,-1.57l1.63 -0.04c0.21,-0.56 0.91,-2.17 0.12,-2.55 -0.31,-0.15 -0.38,0.06 -0.71,0.22 -1.46,0.68 -1.19,-0.84 -2.15,1.86 -0.19,0.54 -0.46,1.09 -0.58,1.65 -0.43,1.91 1.16,1.05 1.6,1.04 0.86,-0.01 1.27,-0.78 1.56,-1.88z"/>
   <path class="fil13" d="M11.15 20.38l1.3 -3.76 -1.16 -0.16c-0.27,0.51 -1.49,3.8 -1.5,4.37 1.19,-0.34 1.18,0.18 1.6,0.4 0.14,-0.17 0.29,-0.37 0.52,-0.49 0.17,-0.09 0.19,-0.08 0.39,-0.12l0.23 -0.06c0.02,-0.01 0.05,-0.02 0.07,-0.02 0.18,-0.05 1.28,-3.3 1.45,-3.76l-0.12 -0.11c-0.01,-0.01 -0.04,-0.04 -0.06,-0.05 -0.02,-0.01 -0.04,-0.03 -0.06,-0.05 -0.43,-0.33 -0.48,-0.51 -0.8,-0.2 -0.57,0.55 -1.13,4.16 -1.86,4z"/>
   <polygon class="fil7" points="6.75,2.64 3.15,2.65 2.84,3.71 3.77,3.76 2.4,8.08 4.04,8.09 5.46,3.73 6.45,3.7 "/>
   <path class="fil11" d="M18.4 7.35c0.01,-0.74 0.3,-1.15 0.79,-1.3 -0.05,0.29 -0.13,0.54 -0.23,0.84 -0.14,0.43 -0.15,0.47 -0.56,0.46zm-1.59 0.21c0.61,-0.15 0.91,0.03 1.1,0.57l0.59 -0.11c0.2,-0.24 -0.08,-0.02 0.13,-0.03 0.12,-0.01 0.2,0.12 0.39,-0.28 1.3,-2.78 1.14,-1.24 1.84,-1.9 0.01,-0 1.51,-2.3 -1.09,-2.26 -1.18,0.02 -2.06,0.5 -2.29,1.81l1.49 -0.01c0.14,-0.61 0.19,-1.02 0.69,-0.96 0.07,2.11 -2.57,0.2 -2.85,3.18z"/>
   <path class="fil12" d="M33.96 22.78c0.17,0.56 0.56,0.89 0.87,1.32 0.47,0.66 0.5,0.5 1.33,0.5l3.42 -0.02c-0.19,-1.3 -1.12,-2.1 -2.23,-2.38 -1.4,-0.36 -2.29,0.15 -3.4,0.59z"/>
   <path class="fil13" d="M21.41 19.55c-0.02,0.5 -0.09,0.83 -0.51,0.9 -0.13,-0.63 0.09,-0.38 0.12,-0.97l-1.03 0c-1.23,2.19 1.36,2.38 2.25,1.04 1.1,-1.65 0.23,-1.93 -0.47,-2.63 0.03,-0.63 0.06,-0.88 0.54,-0.88 -0.05,0.45 -0.13,0.37 -0.15,0.78 1.14,-0.03 1.19,0.36 1.19,-1.24 -1.28,0.16 -1.54,-1.01 -2.4,0.31 -0.21,0.32 -0.54,1.02 -0.45,1.56 0.08,0.49 0.59,0.68 0.91,1.11z"/>
   <path class="fil13" d="M13.29 20.93c1.39,1.22 2.78,-0.27 3.14,-1.76l-1.13 0.02c-0.19,0.58 -0.29,1.33 -0.78,1.16 0.05,-0.57 0.38,-1.23 0.58,-1.78 0.23,-0.64 0.34,-1.44 0.86,-1.57l-0.29 1.1 1.2 0.01c0.1,-0.49 0.26,-0.82 0.23,-1.45 -0.27,-0.07 -0.49,-0.02 -0.71,-0.14 -0.33,-0.18 -0.12,-0.21 -0.44,-0.43 -0.2,0.21 -0.15,0.29 -0.38,0.42 -0.57,0.33 -0.79,-0.44 -1.44,1.24 -0.34,0.87 -0.91,2.08 -0.84,3.17z"/>
   <path class="fil4" d="M24.85 22.2c0.24,0.15 0.46,0.46 0.58,0.76 2.28,1.11 3.92,1.36 6.46,0.99 0.98,-0.15 1.4,0.02 1.31,-1.44 -0.83,-0.06 -2.96,1.15 -6.39,0.02 -0.67,-0.22 -0.35,-0.28 -0.66,-0.69 -0.3,-0.39 -0.48,-0.12 -0.63,-0.76 -0.27,0.12 -0.61,0.42 -0.86,0.65 0.09,0.27 0.08,0.22 0.19,0.47z"/>
   <path class="fil13" d="M25.32 20.54c0.8,-2.16 0.56,-1.47 -0.52,-2.67 0.02,-0.61 0.1,-0.8 0.57,-0.85l-0.19 0.81 1.14 -0.08c0.09,-0.42 0.23,-0.69 0.17,-1.17 -0.58,-0.04 -0.65,0.21 -1.35,-0.15 -0.31,-0.16 -0.14,-0.25 -0.35,-0.1 -0.37,0.54 0.64,1.8 -1.23,1.61 -0.18,1.09 0.58,1.01 0.92,1.75 -0.13,0.48 -0.13,0.63 -0.51,0.78 -0.12,-0.34 0.04,-0.64 0.12,-0.97l-1.13 0.01c-0.06,0.32 -0.9,2.18 1.17,1.83 0.58,-0.1 0.94,-0.46 1.21,-0.79z"/>
   <path class="fil7" d="M9.34 3.57c-0.44,0.05 -0.58,0.08 -0.87,0.39 -0.16,-0.06 -0.06,0.06 -0.27,-0.35l-1.39 0.03 -1.41 4.44 1.52 -0.01c0.23,-0.36 0.5,-1.41 0.69,-1.96 0.35,-1 0.43,-0.85 1.29,-1.04l0.43 -1.49z"/>
   <path class="fil7" d="M11.15 5.28l0.14 0.26c-0.2,0.18 -0.26,0.42 -0.36,0.64l-0.11 0.21c-0.15,0.18 -0.2,0.44 -0.21,0.75l-0.02 0.33c0.36,0.01 0.09,-0.25 0.53,0.18 0.02,0.02 0.05,0.06 0.08,0.08 0.3,-0.46 0.33,-0.31 0.7,-0.24 -0.12,-0.83 0.14,-0.74 0.33,-0.77 0.16,-0.22 0.69,-1.88 0.7,-2.49 -0.19,-0.92 -3.4,-1.29 -3.78,1.12l1.46 0.01c0.17,-0.56 0.14,-0.98 0.7,-1 0.02,0.44 -0,0.37 -0.14,0.86 -0,0.01 -0.02,0.05 -0.02,0.07z"/>
   <path class="fil13" d="M8.57 19.51c-0.09,0.59 -0.13,0.98 -0.62,0.87l0.22 -0.88c-0.48,0.01 -0.3,0.26 -0.95,1.19 -0.04,0.05 -0.09,0.1 -0.12,0.19l-0.01 0.28c0.48,0.13 0.74,-1.14 1.92,-0.26 0.45,-0.38 0.83,-1.01 0.85,-1.95 -0.33,-0.66 -0.62,-0.58 -0.98,-1.21 0.09,-0.48 0.17,-0.74 0.55,-0.68l-0.18 0.75 1.13 -0.01c0.1,-0.4 0.29,-0.76 0.18,-1.1l-1.36 -0.11c-0.78,0.04 -0.87,-0.29 -1.25,0.47 -0.53,1.06 -0.37,1.69 0.61,2.45z"/>
   <path class="fil7" d="M21.43 7.45c0.58,-0.31 0.62,-0.16 1.16,0.04 0.3,-1.36 1.34,-3.62 1.48,-4.84l-1.57 -0c-0.28,0.64 -0.52,1.58 -0.75,2.27 -0.75,2.27 -0.02,0.91 -0.32,2.53z"/>
   <path class="fil14" d="M33.1 9.33c0.64,0.61 1.54,0.23 2.36,0.31 -0.29,0.3 -0.41,0.08 -1.03,0.65 -0.23,2.67 2.94,4.54 2.64,0.08 0.06,-0.23 -0.14,-0.06 0.15,-0.19 0.27,-0.12 0.16,-0.06 0.41,-0.01 -0.06,-0.3 0.07,-0.15 -0.09,-0.22 -0.47,0.33 -1.07,0.29 -1.57,0 -0.3,-0.17 -1.03,-0.62 -1.07,-0.81l0.26 0.36c-1.03,0.19 -1.15,0.04 -2.05,-0.18z"/>
   <path class="fil15" d="M0.55 33.04c0.43,0.07 2.08,-0.12 2.29,0.14l-1.74 -0c-0.01,-0.04 -0.01,-0.12 -0.01,-0.1 -0,0.02 -0.01,-0.07 -0.01,-0.09l-0.05 -1.13c0.24,0.1 0.42,-0.01 0.28,0.24 -0.09,-0.63 -0.24,-0.71 0.07,-1.34 0.2,-0.39 0.34,-0.48 0.36,-1.08 0.02,-0.01 0.06,-0.04 0.06,-0.02 0.01,0.02 0.05,-0.01 0.06,-0.02 0.01,-0 0.04,-0.01 0.05,-0.01l0.14 -0.08c0.75,-0.41 0.62,0.53 0.42,0.25 0.19,-0.41 0.31,0.07 1.36,-0.25 -0.12,0.44 -0.2,0.66 -0.13,1.18l0.25 -0.56c0.05,-0.17 0.09,-0.32 0.16,-0.54l0.65 0.07 0.01 0.57c0.5,0 0.07,0.05 0.25,-0.24 -0.14,-0.78 0.06,-0.55 -0.45,-0.83 -0.45,-0.24 -0.08,0.11 -0.53,-0.26l0.06 -0.73c0.23,0.05 0.27,0.48 0.73,0.34 0.51,-0.15 0.25,0.01 0.36,-0.32l-0.55 0.06c-0.06,-0.15 -0.05,-0.01 -0.06,-0.28 -0,-0.21 0.32,-1.31 0.51,-1.57l0.45 0.01c-0.16,-0.2 -0.1,-0.24 -0.62,-0.3l0.32 -0.48c0.01,-0.02 0.03,-0.05 0.04,-0.07 0.37,-0.66 0.2,-0.29 0.8,-0.46l0.01 -0.14c-0.74,-0.03 -0.78,-0.19 -1.09,0.56l-1.59 3.58c-0.32,0.36 -0.89,0.26 -1.06,-0.2 -0.25,-0.68 0.88,-2.8 1.07,-3.95l-0.59 0.01 -2.29 8.01z"/>
   <path class="fil14" d="M33.44 10.1c-0.58,-0.58 -1.09,-0.79 -1.98,-0.61 -1,0.21 -0.79,0.99 -0.51,2 0.51,1.87 2.76,1.35 2.5,-1.39z"/>
   <path class="fil12" d="M39.74 24.49l3.08 -0c0.02,-0.75 -0.69,-2.87 -1.01,-3.2 -0.25,0.17 -1.58,1.7 -2.43,2.1l0.36 1.1z"/>
   <path class="fil5" d="M23.67 14.46c0.05,1.42 -1.15,1.14 -1.28,0.49 -0.1,-0.54 0.18,-0.83 0.5,-0.9 0.43,-0.09 0.54,0.11 0.78,0.41zm0.05 1.43c0,1.83 -0.11,1.59 0.58,1.57 0.13,-0.68 0.08,-3.26 0.04,-4.07 -0.16,-0 -0.21,-0 -0.37,0.03l-0.16 0.04c-0.24,0.05 0.1,0.04 -0.22,0.04 -0.16,0 -1.51,-0.52 -1.83,0.86 -0.38,1.61 0.97,1.9 1.96,1.54z"/>
   <path class="fil11" d="M12.24 6.71c-0.19,0.03 -0.46,-0.05 -0.33,0.77 -0.37,-0.07 -0.4,-0.22 -0.7,0.24 -0.03,-0.02 -0.06,-0.06 -0.08,-0.08 -0.44,-0.42 -0.17,-0.17 -0.53,-0.18l0.02 -0.33c-0.19,0.15 -0.28,0.23 -0.56,0.19 0.02,-0.81 0.29,-0.99 0.7,-1.27 0.18,0.14 0.05,-0.08 0.07,0.34l0.11 -0.21c0.1,-0.22 0.16,-0.46 0.36,-0.64l-0.14 -0.26c-1.27,0.4 -2.78,0.47 -2.69,2.59 0.78,0.56 0.89,0.24 1.63,0.07 0.44,-0.11 -0,-0.03 0.33,0.09 0.2,0.07 0.19,0.06 0.41,0.07 0.31,0.01 0.69,-0 1,-0.03l0.4 -1.36z"/>
   <path class="fil5" d="M9.74 15.01c-0.21,0.26 -0.34,0.49 -0.72,0.45 -1.17,-0.1 -0.4,-2.36 0.72,-0.99l0 0.54zm-0.08 -1.46c-0.94,-0.47 -2.13,0.25 -1.84,1.55 0.31,1.38 1.6,0.9 1.78,0.88 0.44,-0.04 -0.01,-0.01 0.35,0.06 0.22,0.05 0.22,0.05 0.47,0.05l0 -3.73c-0.53,0.38 -0.52,0.33 -0.62,0.69l-0.14 0.49z"/>
   <path class="fil16" d="M30.63 7.85l0.06 0.57 0.39 0.03c-0.04,-0.45 0.08,-0.51 0.32,-0.8 0.48,-0.05 1.1,-0.03 1.47,0.3 0.12,-0.12 0,-0.09 0.2,-0.05 0.16,0.04 0.13,0.05 0.24,0.12 0.19,0.12 0.34,0.26 0.44,0.35 0.02,0.02 0.05,0.02 0.06,0.06 0.02,0.07 0.72,0.6 1.08,0.73 0.05,0.19 0.78,0.64 1.07,0.81 0.5,0.29 1.1,0.33 1.57,-0 0.16,0.07 0.03,-0.08 0.09,0.22 0.3,0.32 1.11,1.13 1.53,1.3 -0.14,-0.33 0.02,-0.06 -0.14,-0.27 -0.01,-0.02 -0.17,-0.18 -0.22,-0.22l0.21 -0.85 -0.35 0.53c-0.07,0.11 -0.08,0.12 -0.12,0.16 -0.24,-0.25 -0.57,-0.6 -0.81,-0.8 0.06,-0.07 0.07,-0.08 0.14,-0.16l0.15 -0.18 0.23 -0.28c0.46,-0.51 1.05,-0.97 1.31,-1.68 -0.51,-0.34 0.44,0.09 -0.14,-0.01l-0.25 -0.15c-0.18,0.62 -0.99,1.41 -1.42,1.77 -1.47,1.24 -2.88,-1.03 -4.72,-1.94l-0.9 -0.24c-0.33,-0.15 -0.1,0.01 -0.25,-0.19 -0.39,0.39 -0.29,0.21 -0.71,0.4 -0.41,0.18 -0.29,0.24 -0.54,0.49z"/>
   <path class="fil5" d="M17 24.07c-0.07,-0.67 0.4,-1.2 0.61,-1.44 0.31,0.72 -0.07,1.46 -0.61,1.44zm-0.52 0.23c0.37,0.25 0.68,0.41 1.17,0.05 0.53,-0.39 0.17,-0.55 0.85,-0.67 0.77,-0.13 1.55,-0.94 1.64,-1.58 -0.88,-0.28 -0.57,1.06 -1.61,1.08 0.92,-3.07 -2.32,-1.52 -2.04,1.13z"/>
   <path class="fil17" d="M38.01 9.69l-0.15 0.18c-0.07,0.08 -0.08,0.09 -0.14,0.16 0.24,0.2 0.57,0.55 0.81,0.8 0.04,-0.04 0.04,-0.05 0.12,-0.16l0.35 -0.53 0.63 1.69c0.37,-0.56 0.85,-3.1 0.71,-4.05 -1.29,-0.16 -0.36,0.4 -2.32,1.91z"/>
   <path class="fil18" d="M38.31 1.72c0.5,0.12 1.06,1.08 1.19,1.95 0.1,0.7 -0.28,2.27 -0.33,3.11l1.27 0.15c0.67,-3.22 -1.84,-6.06 -2.56,-5.55 0.01,0.02 0.04,0.05 0.04,0.06 0.05,0.05 0.09,0.18 0.38,0.29z"/>
   <path class="fil5" d="M18.05 14.45c0.17,-0.57 0.87,-0.65 1.05,-0.01l-1.05 0.01zm1.52 1.27c-0.59,-1.03 -0.97,0.48 -1.52,-0.65l1.68 -0.03c0.45,-1.83 -1.67,-2.1 -2.28,-0.97 -0.74,1.38 0.95,2.77 2.11,1.65z"/>
   <path class="fil5" d="M12.64 14.44l-1.05 0c0.22,-0.6 0.82,-0.6 1.05,-0zm0.46 1.25c-0.5,-1.02 -0.88,0.49 -1.5,-0.61l1.71 -0.05c0.25,-1.98 -1.93,-1.99 -2.36,-0.89 -0.62,1.61 1.28,2.6 2.15,1.55z"/>
   <path class="fil5" d="M28.07 14.45c0.2,-0.58 0.89,-0.63 1.05,-0.01l-1.05 0.01zm1.5 1.25c-0.53,-1.01 -0.92,0.5 -1.51,-0.63l1.71 -0.04c0.25,-1.98 -1.82,-2.05 -2.35,-0.88 -0.66,1.47 1.19,2.67 2.14,1.55z"/>
   <path class="fil19" d="M38.57 29.47c0,-0.52 0.48,-2.08 0.65,-2.38l0.07 -0.76c-0.86,-0.13 -0.91,0.73 -1.41,2.51 -0.18,0.66 -0.92,2.68 -0.78,3.34 1.1,0.1 0.86,-1.9 1.47,-2.71z"/>
   <path class="fil5" d="M4.11 14.44c0.19,-0.58 0.89,-0.62 1.05,-0l-1.05 0zm1.52 1.28c-0.56,-1.09 -0.93,0.48 -1.53,-0.66l1.72 -0.04c0.18,-1.69 -0.7,-1.35 -0.99,-1.4 -0.1,-0.02 -0.88,-0.54 -1.36,0.52 -0.64,1.43 1.04,2.6 2.16,1.58z"/>
   <path class="fil20" d="M33.44 10.1c0.26,2.74 -1.99,3.26 -2.5,1.39 -0.28,-1 -0.49,-1.79 0.51,-2 0.89,-0.18 1.4,0.03 1.98,0.61zm0.79 0.64c0.07,-0 -0.03,0.01 0.05,-0.17 0.08,-0.17 0.11,-0.23 0.15,-0.28 0.63,-0.57 0.74,-0.35 1.03,-0.65 -0.82,-0.09 -1.72,0.3 -2.36,-0.31l-0.28 -0.05c-0.9,-0.04 -1.67,-0.36 -2.53,-0.04 -0.07,0.36 0.45,3.14 1.27,3.49 1.62,0.71 1.75,-1 2.27,-2.06l0.4 0.07z"/>
   <polygon class="fil11" points="42.94,31.77 40.64,31.79 40.23,33.45 42.48,33.44 "/>
   <path class="fil5" d="M27.02 13.44l-0.61 -0.07c-0.04,1.11 0.25,2.5 -0.91,1.95 -0.15,-0.51 -0.1,-1.25 -0.12,-1.89l-0.62 -0.07c-0.06,1.49 -0.16,2.74 1.11,2.74 1.28,0 1.2,-1.17 1.15,-2.67z"/>
   <path class="fil5" d="M15.02 13.76c0.18,0.36 0.35,0.53 0.55,0.83 -0.16,0.55 -0.65,0.99 -0.8,1.47 0.4,0.08 0.53,0.14 0.78,-0.15 0.01,-0.01 0.42,-0.62 0.44,-0.65 0.23,0.36 0.3,0.41 0.46,0.82l0.73 -0.01c-0.08,-0.28 -0.61,-1.14 -0.79,-1.3 0.19,-0.59 0.53,-0.76 0.72,-1.36 -0.69,-0.1 -0.82,0.14 -1.11,0.65 -0.13,-0.22 -0.4,-0.55 -0.6,-0.66 -0.01,0.01 -0.17,0.13 -0.17,0.14l-0.21 0.22z"/>
   <path class="fil13" d="M33.15 22.09c0.33,0.49 0.18,0.29 0.18,1.38 1.42,-0.12 -0.47,-0.71 1.47,-1.1 -0.01,-0.7 -0.12,-0.9 -0.29,-1.47 -0.33,0.09 -1.2,0.75 -1.45,1.08l0.09 0.12z"/>
   <path class="fil17" d="M32.82 9.28l0.28 0.05c0.89,0.22 1.02,0.38 2.05,0.18l-0.26 -0.36c-0.36,-0.12 -1.06,-0.66 -1.08,-0.73 -0.01,-0.04 -0.04,-0.04 -0.06,-0.06l-0.58 -0.39c-0.13,0.22 -0.22,0.42 -0.3,0.59 -0.16,0.34 -0.16,0.45 -0.05,0.72z"/>
   <path class="fil21" d="M34.23 10.74l0.03 0.5c0.16,1.47 1.35,2.95 2.44,1.95 0.08,-0.18 0.04,-0.09 0.12,-0.24 0.02,-0.03 0.07,-0.11 0.09,-0.14 0.12,-0.21 0.1,-0.15 0.17,-0.37 0.1,-0.28 0.15,-0.56 0.19,-0.9l-0.02 -0.68c-0.08,-0.93 0.02,-0.16 -0.19,-0.48 0.31,4.46 -2.86,2.59 -2.64,-0.08 -0.04,0.05 -0.07,0.11 -0.15,0.28 -0.08,0.18 0.02,0.16 -0.05,0.17z"/>
   <path class="fil22" d="M3.69 30.75l-0.26 1.24c1.21,-0.02 0.86,-0.67 1.33,-1.7l-0.01 -0.57 -0.65 -0.07c-0.07,0.22 -0.11,0.38 -0.16,0.54l-0.25 0.56z"/>
   <path class="fil23" d="M37.07 10.38c0.21,0.33 0.11,-0.44 0.19,0.48l0.02 0.68 0.26 -0.68c0.69,0.21 1.68,1.62 2.38,1.72 -0.23,-0.77 -0.44,-0.38 -0.74,-1.07l-0.02 -0.04c-0.42,-0.17 -1.23,-0.98 -1.53,-1.3 -0.25,-0.04 -0.14,-0.11 -0.41,0.01 -0.29,0.13 -0.09,-0.04 -0.15,0.19z"/>
   <path class="fil0" d="M9.63 30.44l0.84 -0.01 0.52 -3.04 -0.24 0.26c-0.27,0.47 -1.06,2.36 -1.13,2.79z"/>
   <path class="fil0" d="M14.32 7.34c0.58,0.06 0.6,-0.53 0.8,-1.18 0.18,-0.56 0.46,-1.16 0.47,-1.8 -0.6,0.04 -0.58,0.58 -0.8,1.25 -0.17,0.56 -0.45,1.16 -0.48,1.73z"/>
   <path class="fil24" d="M21.68 7.83c-0.27,0.3 -1.07,0.86 -1.15,1.16 0.41,0.15 0.63,-0.09 1.03,-0.21 0.73,-0.22 0.41,0.31 1.01,0.09l-0.31 -1.08 -0.59 0.04z"/>
   <path class="fil25" d="M5.19 28.25c0.31,-0.47 0.67,-1.19 0.36,-1.79l-0.45 -0.01c-0.2,0.26 -0.51,1.36 -0.51,1.57 0,0.27 -0,0.13 0.06,0.28l0.55 -0.06z"/>
   <path class="fil18" d="M31.08 8.44c0.58,0.68 1.43,-0.14 1.79,-0.51 -0.37,-0.33 -0.99,-0.35 -1.47,-0.3 -0.24,0.29 -0.36,0.35 -0.32,0.8z"/>
   <path class="fil5" d="M13.94 16.11l0.48 -0.01c0.01,-2.74 0.1,-1.82 -0.62,-2.28 -0.01,0.39 -0.01,0.76 -0.01,1.15 -0,0.51 -0.1,0.86 0.15,1.14z"/>
   <path class="fil26" d="M23.04 14.52c0.25,0.01 0.23,0.2 0.27,0.39l-0.57 -0.01c0.02,-0.31 0.07,-0.38 0.3,-0.38zm0.63 -0.06c-0.24,-0.3 -0.35,-0.49 -0.78,-0.41 -0.32,0.06 -0.6,0.36 -0.5,0.9 0.12,0.65 1.33,0.93 1.28,-0.49z"/>
   <path class="fil1" d="M9.37 14.85l-0.55 0.1c0.07,-0.28 -0.04,-0.44 0.29,-0.42 0.24,0.01 0.23,0.22 0.26,0.33zm0.37 0.16l-0 -0.54c-1.11,-1.37 -1.88,0.89 -0.72,0.99 0.38,0.03 0.5,-0.2 0.72,-0.45z"/>
   <path class="fil0" d="M16.11 28.3c0.55,-0.03 0.7,0.05 0.92,-0.53 0.17,-0.45 0.33,-0.84 0.17,-1.22l-0.53 -0.11 -0.56 1.86z"/>
   <path class="fil26" d="M27.03 20.46c0.51,-0.13 0.45,-0.41 0.87,-1.59 0.17,-0.49 0.54,-1.34 0.59,-1.84 -0.46,0.02 -0.44,0.44 -0.85,1.5 -0.2,0.52 -0.52,1.34 -0.62,1.93z"/>
   <path class="fil26" d="M3.67 20.38c0.52,0.08 0.67,-0.95 0.85,-1.46 0.19,-0.55 0.52,-1.33 0.61,-1.92 -0.43,0.12 -0.38,0.25 -0.54,0.69l-0.92 2.7z"/>
   <path class="fil3" d="M34.51 20.46c0.44,1.12 0.26,1.48 0.65,1.68 0.26,-0.22 0.11,0.17 0.22,-0.41l-0.09 -1.6c-0.26,-0.09 -0.51,0.18 -0.79,0.33z"/>
   <path class="fil3" d="M28.63 8.15c-0.29,-0.16 -1.21,-0.31 -0.95,0.64 0.14,0.5 0.89,0.46 0.95,-0.64z"/>
   <path class="fil3" d="M16.63 8.98c0.52,0.17 0.92,-0.03 0.93,-0.77 -0.57,-0.5 -1.05,-0.27 -0.93,0.77z"/>
   <path class="fil26" d="M17 24.07c0.54,0.03 0.92,-0.71 0.61,-1.44 -0.21,0.24 -0.68,0.77 -0.61,1.44z"/>
   <path class="fil18" d="M39.86 7.03c-0.36,-0.07 -0.53,-0.2 -0.75,0.09 0.1,0.21 -0.27,0.09 0.2,0.3 0.02,0.01 0.89,0.21 1.1,0.06 -0.02,-0.51 -0.07,-0.36 -0.55,-0.45z"/>
   <path class="fil27" d="M10.61 7.14c0.02,-0.31 0.06,-0.57 0.21,-0.75 -0.03,-0.41 0.1,-0.2 -0.07,-0.34 -0.41,0.28 -0.68,0.47 -0.7,1.27 0.28,0.04 0.37,-0.04 0.56,-0.19z"/>
   <path class="fil25" d="M18.4 7.35c0.41,0.01 0.41,-0.03 0.56,-0.46 0.1,-0.3 0.18,-0.55 0.23,-0.84 -0.49,0.15 -0.78,0.56 -0.79,1.3z"/>
   <path class="fil1" d="M28.8 12.16c0.41,-0.08 0.54,-0.38 0.73,-0.83l-0.17 -0.54c-0.24,0.28 -0.6,0.66 -0.56,1.37z"/>
   <path class="fil28" d="M29.75 5.22c0.52,-0.03 0.6,-0.07 0.61,-0.88 -0.48,0.02 -0.48,0.21 -0.61,0.88z"/>
   <path class="fil26" d="M18.51 17.98c0.45,0.04 0.28,0.15 0.46,-0.2 0.07,-0.15 0.15,-0.55 0.18,-0.78 -0.44,0.1 -0.49,0.44 -0.64,0.98z"/>
   <path class="fil22" d="M18.05 14.45l1.05 -0.01c-0.17,-0.65 -0.87,-0.56 -1.05,0.01z"/>
   <path class="fil29" d="M28.07 14.45l1.05 -0.01c-0.16,-0.63 -0.85,-0.57 -1.05,0.01z"/>
   <path class="fil29" d="M4.11 14.44l1.05 -0c-0.16,-0.62 -0.85,-0.57 -1.05,0z"/>
   <path class="fil29" d="M12.64 14.44c-0.22,-0.6 -0.83,-0.59 -1.05,0l1.05 -0z"/>
   <path class="fil30" d="M39.15 11.48l0.02 0.04c0.14,-0.33 0.01,-1.07 -0.17,-1.39l-0.21 0.85c0.04,0.05 0.2,0.21 0.22,0.22 0.16,0.22 0,-0.05 0.14,0.27z"/>
   <path class="fil31" d="M39.3 13.84c0.16,-0.21 0.28,-0.39 0.48,-0.53 0.09,0.52 0.02,0.47 -0.11,0.96 0.92,-0.83 -0.31,-1.68 -0.37,-0.43z"/>
   <path class="fil32" d="M40.95 18.1c-0.16,-0.37 0,-0.27 -0.36,-0.29 -0.06,0.35 0.01,0.45 0.13,0.66 0.23,-0.21 0.12,0.01 0.23,-0.37z"/>
   <path class="fil33" d="M5.23 11.44c0.31,-0.07 0.28,-0.1 0.35,-0.62 -0.09,0.09 -0.08,0.01 -0.23,0.26 -0.13,0.21 -0.06,0.06 -0.12,0.36z"/>
   <path class="fil34" d="M25.43 22.96c-0.13,-0.3 -0.35,-0.62 -0.58,-0.76 0.15,0.39 0.28,0.57 0.58,0.76z"/>
   <path class="fil35" d="M20.44 11.44c0.3,-0.09 0.27,-0.1 0.35,-0.62 -0.15,0.16 -0.26,0.2 -0.35,0.62z"/>
   <path class="fil36" d="M23.28 19.01c-0.18,-0.71 -0.1,-0.55 -0.37,-0.73 0.03,0.07 0.12,0.38 0.14,0.41 0.13,0.27 0.04,0.13 0.23,0.32z"/>
   <path class="fil37" d="M13.78 12.77c0.09,-0.08 0.08,-0.06 0.17,-0.19 0.13,-0.18 0.1,-0.16 0.17,-0.31 -0.27,0.1 -0.36,0.11 -0.35,0.49z"/>
  </g>
 </g>
</svg>
