<?xml version="1.0" encoding="UTF-8"?>
<!DOCTYPE svg PUBLIC "-//W3C//DTD SVG 1.1//EN" "http://www.w3.org/Graphics/SVG/1.1/DTD/svg11.dtd">
<!-- Creator: CorelDRAW -->
<svg xmlns="http://www.w3.org/2000/svg" xml:space="preserve" width="33.8667mm" height="16.9333mm" version="1.1" style="shape-rendering:geometricPrecision; text-rendering:geometricPrecision; image-rendering:optimizeQuality; fill-rule:evenodd; clip-rule:evenodd"
viewBox="0 0 107.48 53.74"
 xmlns:xlink="http://www.w3.org/1999/xlink"
 xmlns:xodm="http://www.corel.com/coreldraw/odm/2003">
 <defs>
  <style type="text/css">
   <![CDATA[
    .fil0 {fill:black}
    .fil3 {fill:#223D99}
    .fil6 {fill:#461F13}
    .fil5 {fill:#66E2F5}
    .fil1 {fill:#FEFEFE}
    .fil4 {fill:red}
    .fil2 {fill:#FFB71F}
   ]]>
  </style>
 </defs>
 <g id="Camada_x0020_1">
  <metadata id="CorelCorpID_0Corel-Layer"/>
  <g id="_2484036128384">
   <path class="fil0" d="M70.29 14.3l-1.17 0.81c-1.27,-0.27 -5.61,-0.05 -7.04,-0 -3.53,0.12 -7.18,0.34 -10.69,0.35 -1.18,0 -2.35,-0.12 -3.55,-0.15 -5.3,-0.11 -10.72,-0.09 -16.03,-0.03 -3.77,0.03 -7.52,0.04 -11.29,0.04 -1.17,-0.01 -1.77,-0.2 -3.14,-0.2 0,-4.33 -1.29,-2.51 -2.88,-3.41 -1.68,-0.95 -3.74,-0.73 -4.2,-0.32l-0.39 0.59c-1.71,0 -6.13,-2.49 -8.46,1.37 -0.72,1.19 -1.15,1.72 -1.37,4.52 -0.5,6.39 1.55,9.71 8.25,9.8 3.94,0.06 4.41,-0.41 7.37,-1.69 2.35,-1.02 0.33,-1.46 3.06,-1.46 0.22,2.69 4.13,2.74 2.82,3.57l-4 1.73c-0.44,0.6 0.13,0.32 -0.79,0.39l0 -0.39c-1.68,-1.12 -0.56,-1.17 -3.74,-1.18 -6,-0.02 -4.72,0.55 -5.08,3.17l-2.99 20.75c0.6,0.25 0.05,0.08 0.98,0 0,0.8 0.07,0.63 -0.2,1.18 3.6,0 2.34,-0.15 5.31,-0.39l1.28 -8.72 2.65 -0.89c0,2.61 -1.18,5.53 -1.18,8.83l0.79 0 0 1.18c2.47,0 6.6,-0.95 8.08,-0.99 2.13,-0.06 1.68,1.6 4.65,0.13l8.53 -0.31c0.02,-0.93 -0.01,-0.78 0.59,-1.18l0 1.18c7.72,-0.3 5.26,1.01 5.9,-6.67 0.8,0.42 1.77,0.96 2.95,0.39 -0.03,1.39 -0.67,2.94 -0.79,4.31l1.18 0 0 1.37c2.02,-0.17 3.94,-0.4 5.97,-0.39 1.73,0.01 3.64,-0.03 4.93,-1.35 0.33,-0.34 0.5,-0.52 0.9,-0.81 0.39,0.28 0.86,0.92 1.35,1.31 2.06,1.66 4.94,1.24 7.18,0.19 0.53,-0.25 0.92,-0.44 1.51,-0.51l0 0.78 6.1 0c0.24,-0.46 0.34,-0.51 0.39,-1.18l0.2 0.98c3.13,0 5.73,1.08 5.9,-0.98 2.18,0.51 2.69,1.65 7.37,0.66 0.44,-0.09 7,0.12 8.37,0.12 0.24,-0.46 0.34,-0.51 0.39,-1.18l0.79 0c-0.1,0.45 -0.15,0.45 -0.2,0.98l5.9 0c0.76,-0.04 0.96,-0.2 1.77,-0.2 0,-7.44 0.79,-14.1 0.79,-21.57l-1.38 0 0 -0.78c-1.16,0.03 -9.05,-0.08 -9.58,0.45 -1.03,1.04 0.13,-0.28 -0.85,2.49 -0.63,-0.15 -1.07,-0.35 -1.38,-0.98l-1.97 -1.18c1.35,-2 1.87,-0.8 2.63,-3.85 0.48,-1.93 4.16,-0.47 8.7,-6.43 2.09,-2.74 0.13,-2.66 4.21,-4.43 1.4,-0.6 1.77,-0.81 1.77,-2.74l-1.77 -1.18c-2.04,-0.17 -0.71,-0.32 -4.14,-0.2 -0.77,0.03 -2.69,0.9 -2.94,-2.15 2.56,-0.29 4.16,-1.37 2.79,-4.1 -0.54,-1.07 -2.38,-3.2 -3.55,-3.52 -0.51,-0.14 -0.91,-0.06 -1.4,0.11 -0.7,0.28 -0.93,0.89 -1.7,0.95l-1.71 -0.25c-1.98,-0.27 -0.78,-0.25 -1.87,-0.68 -3.2,-0.84 -10.6,-0.12 -13.75,1.11 -3.64,1.51 -6.36,4.74 -7.38,8.54 -0.43,1.62 0.22,2.14 0.23,3.7l0.01 0.59zm-46.66 2.2c-0.96,-0.11 -1.19,0.1 -1.95,0.17l-4.12 -0.19c-1.09,0 -0.86,2.06 0.17,2.13l3.76 -0.36c1.1,0 1.64,0.46 2.48,0.73 0.89,0.28 3.46,-0.72 5.61,-1.25 1.17,-0.29 1.97,-0.68 3.19,-0.92 -0.81,-0.45 -7.55,-0.25 -9.15,-0.31z"/>
   <path class="fil1" d="M40.59 24.72c1.22,-0.03 2.18,-1.13 3.17,-1.94 0.57,-0.47 0.31,-0.54 1.16,-0.61 -0.22,0.81 -3.13,3.39 -3.89,4.16 -1.15,1.16 -5.55,6.57 -5.55,8 0,0.47 -0.15,1.96 0.59,1.96 1.6,0 3.55,-3.43 4.25,-4.59 0.34,-0.58 3.21,-6.61 3.5,-4.68 0.09,0.6 -2.22,2.98 -3.25,5.52 -0.47,1.15 -0.83,1.87 -1.21,3.31 -0.63,2.42 -0.93,5.27 0.25,7.5 2.55,0.18 2.19,-2.34 2.41,-4.07l1.01 -5.46c0.69,-2.76 0.61,-2.8 1.69,-2.82 -0.03,1.24 -1.06,3.42 -1.38,4.7 -0.49,1.92 -1.75,8.25 0.6,9.81 1.59,-0.37 2.05,-2.78 2.58,-4.09 0.98,-2.41 3.2,-6.31 4.71,-8.63 1.86,-2.85 3.49,-5.19 5.93,-7.62 1.23,-1.23 2.15,-2.08 3.52,-3.16 0.99,-0.78 2.61,-2.28 4.16,-2.51 2.43,-0.38 1.02,0.76 3.13,-1.99 0.32,-0.42 0.5,-0.56 0.55,-1.21 -1.93,0 -3.1,0.21 -4.93,0.2l-5.11 -0.2c-3.18,0 -4.48,-0.07 -7.65,0.81 -2.86,0.79 -0.67,-0.25 -3.37,1.16 -0.35,0.18 -0.65,0.3 -1.05,0.52 -1.59,0.88 -6.33,3.66 -5.84,5.95z"/>
   <path class="fil1" d="M95.68 41.78c0.2,-0.84 1.84,-6.93 2.56,-7.45 -0.04,1.69 -0.79,5.68 -0.79,7.45l-1.77 0zm-0.79 -12.75c-0.09,1.02 -1.2,3.89 -1.55,4.93 -0.58,1.74 -1.13,3.19 -1.72,4.95 -0.55,1.65 -1.09,3.33 -1.67,5 -0.34,0.97 -1.53,4.12 -1.55,5.13l4.6 -0.12c1.08,-0.16 0.8,0.17 1.13,-0.64 0.13,-0.33 0.73,-2.56 0.76,-2.96l1.97 0c0,2.37 -0.91,3.31 0.19,3.53l5.13 -0.19c0,-5.82 0.79,-13.83 0.79,-19.81l-5.12 0c-1.31,0 -1.7,0.2 -2.95,0.2z"/>
   <path class="fil1" d="M74.24 38.05c0,-1.52 0.48,-2.75 0.59,-4.12 1.69,0 1.4,0.67 1.13,2.1 -0.22,1.17 -0.19,1.98 -1.72,2.01zm-4.13 -6.67l-2.35 13.74c-0.23,1.26 -0.77,3.49 -0.8,4.7l5.11 -0.24c0.11,-1.27 0.52,-2.96 0.75,-4.31 0.13,-0.79 0.29,-1.6 0.38,-2.17 0.18,-1.2 0.02,-1.9 1.04,-1.9 1.26,0 0.31,2.88 0.05,4.37 -0.14,0.79 -0.19,1.22 -0.33,2.02 -0.14,0.78 -0.31,1.2 -0.31,2.05l4.72 -0.2c0.03,-1.19 0.3,-0.51 -0.12,-1.44 -1.15,-2.55 0.06,-3.79 0.12,-6.21l1.18 0c-0.03,-1.22 -0.62,-1.87 -1.77,-1.96 0.52,-0.71 0.44,-0.16 1.97,-1.18 0,-1.63 -0.56,-2.5 0.17,-4.93 0.23,-0.77 0.65,-1.39 0.42,-1.94 -0.7,-0.29 -1.94,0.39 -2.95,0.39 -1.68,0 -2,-0.74 -2.95,-1.37 -1.19,0.27 -2.85,0.58 -4.33,0.59z"/>
   <path class="fil1" d="M95.28 9.62c0.4,0.6 0.25,0.57 1.18,0.59l0 0.98c-1.56,0.36 -2.79,1.86 -3.29,2.05 -0.55,0.2 -1.03,-0.12 -1.03,-0.48 0,-1.44 1.45,-1.55 1.77,-2.75l-1.97 0c-0.48,1 -0.03,1.8 -1.38,2.16 0.81,-1.52 0.73,-1.09 0.39,-1.76 -2.56,1.7 -5.76,5.76 -8.99,7.32 -2.54,1.23 -0.78,2.03 0.86,2.94 2.66,1.48 6.65,2.49 9.7,2.49 1.65,0 6.48,-3.21 7.08,-4.12 -0.56,-0.37 -0.58,-0.46 -1.31,-0.85 -5.97,-3.17 -2.26,-4.83 -1.84,-4.83 0.69,0 0.65,0.16 1.38,0.2 1.11,-2.08 1.57,-0.85 1.57,-1.96 0,-0.73 -0.77,-0.58 -1.33,-1.23 -0.38,-0.43 -0.61,-1.52 -1.23,-1.52 -0.81,0 -1.25,0.29 -1.57,0.79z"/>
   <path class="fil1" d="M21.51 21.77c0.1,-1.24 0.7,-0.52 0.12,-1.11 -0.14,-0.14 -3.15,-1.64 -4.06,-1.64 -0.75,0 -0.07,-0.06 -0.59,0.2 0.82,1.23 1.62,0.91 2.84,1.68 0.69,0.43 0.48,0.12 0.5,1.06 -1.06,-0.56 -1.82,-1.54 -3.34,-1.57 0.02,0.92 0.16,0.78 0.33,1.43 0.2,0.73 0.16,0.91 0.45,1.51l5.31 0.2c0.91,0.03 1.86,-0.04 2.77,-0.01l10.62 0.59c1.04,0.03 1.49,0.2 2.75,0.2 0.56,-0.83 1,-1.64 1.65,-2.47 2.03,-2.6 6.44,-4.3 7.06,-4.73 0.51,-0.29 0.98,-0.35 1.52,-0.54 -1.28,0 -3.54,0.09 -4.58,0.23 -1.22,0.16 -2.81,0.05 -4.08,0.05 -6.72,0 -7.79,0.5 -13.8,2.33 -0.88,0.27 -2.16,0.62 -2.89,1.04 -0.49,0.29 -0.7,0.47 -1.22,0.75 -0.52,0.28 -0.86,0.51 -1.38,0.78z"/>
   <path class="fil2" d="M12.26 33.34c0.34,-0.64 0.98,-0.48 1.07,0.55 0.06,0.62 -0.36,4.22 -0.94,4.72 -1.42,1.23 -0.72,-1.46 -0.64,-2.02 0.08,-0.52 0.38,-3 0.51,-3.25zm87.85 -15.2c0.59,-0.39 1.56,-2.31 1.67,-3.04 -3.31,0.21 -2.15,0.19 -5.12,-0.59 -0.63,1.17 0.17,1.47 1.01,2.14 0.73,0.58 1.4,1.24 2.43,1.49zm-2.07 -4.31c0.69,1.34 2.86,0.72 4.33,0.3 0.93,-0.26 3.12,-0.92 3.63,-1.77 -0.74,-1.51 -2.83,-1.13 -4.63,-0.97 -1.17,0.1 -1.13,0.6 -1.72,1.21 -0.46,0.47 -1.14,0.82 -1.62,1.23zm-46.03 25.4l0.97 0.19c0.29,1.31 -0.18,2.73 -0.48,4.24 -0.23,1.16 -0.42,2.12 -1.84,2.13l1.34 -6.56zm1.76 -9.32c0.68,1.21 0.98,-0.28 0.98,1.86 0,1.19 -0.44,3.78 -1.67,3.63 -0.6,-0.89 0.32,-3.37 0.39,-4.71l-0.42 0.33c-0.03,0.03 -0.08,0.07 -0.12,0.11l-5.8 10.3 -1.63 8.59c1.43,0.16 4.9,-0.08 6.44,-0.24 4.64,-0.48 4.31,-3.63 5.15,-8.22 0.17,-0.95 0.49,-2 0.32,-2.81 -0.23,-1.11 -1.05,-1.29 -1.68,-1.87 1.31,-0.4 2.03,-1.12 2.48,-2.42 0.7,-2.02 1.96,-7.85 -1.59,-7.98 -0.58,0.58 -0.83,0.96 -1.42,1.62 -0.56,0.62 -0.8,1.22 -1.43,1.81zm-26.17 3.82c0.6,0.03 1.17,-0.03 1.77,0.01 0.58,0.05 1.32,0.38 1.57,0.38 0.98,0 2.75,-1.3 3.05,-1.86 -0.14,0.55 -0.5,0.8 -0.79,1.57 0.91,-0.07 0.38,-0.02 0.91,-0.26l0.37 -0.21c0.94,-0.45 1.05,-0.15 1.23,-1.2 -0.6,-0.6 -4.47,-1.37 -5.36,-1.37 -0.93,0 -0.42,0.15 -1.52,1.23 -0.62,0.61 -1.01,0.78 -1.23,1.71zm-2.26 -0.59c1.87,-0.2 3.9,-1.7 4.14,-2.44 0.01,-0.03 0.02,-0.1 0.02,-0.13l-0.03 -0.28c-0.93,-0.29 -0.72,-0.08 -2.23,1.12 -0.77,0.61 -1.41,0.73 -1.9,1.73zm-7.97 -1.47c0.19,0.96 0.35,1.31 1.5,1.25 0.86,-0.04 1.75,-0.18 2.45,-0.55 1.25,-0.67 2.21,-1.95 3.63,-2.47 -0.35,0.89 -1.65,1.77 -2.56,2.36 -0.76,0.49 -0.7,0.11 -0.68,1.07 1.61,-0.16 2.47,-0.15 3.5,-1.22 0.71,-0.73 1.94,-1.43 2.36,-2.31 -0.56,-0.37 -3.43,-1.73 -3.98,-1.76 -2.37,2.51 -4.75,2.2 -6.2,3.63zm-6.49 11.08c2.62,-0.17 3.99,-1.02 4.66,-3.2 0.38,-1.24 1.04,-5.18 1.04,-6.6 0,-3.81 -0.92,-4.1 -5.29,-3.66 -1.25,0.13 -1.63,-0.01 -2.09,0.42 -0.44,0.41 -0.9,4.64 -1,5.44 -0.36,2.88 -2.5,16.06 -2.34,16.91 0.96,0.06 2.92,-0.09 3.7,-0.4l1.31 -8.92z"/>
   <path class="fil1" d="M25.64 48.25c0,-1.24 1.05,-7.35 1.32,-9.08 0.19,-1.22 0.05,-2 1.24,-2.1 0.29,1.23 -0.2,2.24 -0.2,3.73 1.19,-0.03 2.65,-0.39 3.94,-0.39 0.24,-1.01 0.39,-2.08 0.39,-3.33 0,-3.63 -5.79,-3.75 -8.08,-0.79 -1.63,2.11 -2.08,7.77 -2.47,10.48 -0.95,6.65 4.11,5.89 5.69,3.52 0.37,0.86 -0.46,0.92 1.9,0.92l1.78 -6.65c0.6,-2.13 0.93,-2.6 -0.28,-2.49 -1.38,0.13 -2.54,0.31 -3.86,0.31 -0.02,0.87 -0.32,1.72 -0.39,2.55l0.79 0c-0.05,0.65 -0.29,2.13 -0.47,2.87 -0.2,0.84 -1.3,1.98 -1.3,0.47z"/>
   <path class="fil3" d="M22.69 38.25c0.06,-0.7 0.2,-0.94 0.46,-1.5 0.26,-0.58 0.3,-0.98 0.52,-1.44 -2.43,0 -4.27,0.39 -6.49,0.39 -0.05,2.24 -2.36,13.2 -2.36,16.08l4.92 -0.39c0.88,-0.04 0.71,-0.18 1.58,-0.19 -0.12,-0.53 -0.19,-2.33 -0.35,-2.6 -0.39,-0.62 -1.11,-0.11 -1.81,0.05 -0.3,-1.3 0.26,-3.79 0.39,-3.92 0.78,-0.38 1.18,-0.02 1.97,-0.39 0.11,-0.24 0.45,-1.8 0.39,-2.16 -0.16,-1.04 -0.56,-0.38 -1.57,-0.38 -0.77,0 -0.14,-1.4 -0.09,-1.66 0.3,-1.53 -0.49,-1.87 2.45,-1.87zm48.79 -26.28c0,1.13 3.45,-0.44 3.62,-0.51 2.77,-1.04 2.56,-1.85 3.56,-0.18 1.31,2.19 -0.02,2.19 -1.7,2.81 -2.62,0.98 -4.74,0.87 -5.93,1.34 -1.43,0.56 -1.67,2.19 -2.79,3.49 -1.62,1.88 -2.72,0.04 -6.79,3.43l-0.99 0.98c0.93,0 1.26,-0.17 2.36,-0.2 0.78,-0.02 1.57,-0.14 2.09,-0.47 0.87,-0.55 0.38,-0.83 2.96,-2.15 2.05,-1.05 2.23,-0.64 4.09,-1.02 2.44,-0.5 1.77,-0.52 4.64,-0.67 3.54,-0.18 7.03,-2.43 9.26,-5.09l2.67 -2.44c0.4,-0.35 0.39,-0.31 0.66,-0.72 -0.37,-0.09 -0.67,-0.16 -1.07,-0.31 -1.61,-0.6 -0.38,-1 -3.39,0.78 -1.01,0.6 -2.8,1.59 -4.01,1.69 -0.55,-0.82 -0.98,-1.56 -0.98,-2.94 0.86,-0.07 3.92,-1.52 4.99,-2.1 1.61,-0.86 -0.76,-1.99 2.34,-4.52 1.32,-1.07 2.72,-0.84 3.29,-1.62 -1.26,0 -1.62,-0.2 -2.75,-0.2 -6.43,0 -11.37,0.9 -14.44,5.61 -0.92,1.42 -1.69,2.74 -1.69,4.98zm8.66 24.32c0,3.98 5.51,4.81 5.51,6.67 0,1.89 -0.07,1.97 -0.98,3.33l-1.38 0c-0.3,-1.29 0.1,-2.66 0.39,-3.92l-4.53 0c-0.67,1.39 -0.59,2.82 -0.59,4.31 0,2.18 3.17,2.75 4.92,2.75 1.88,0 2.59,-0.67 3.93,-0.78 0.06,-0.76 0.51,-1.55 0.86,-2.68l0.25 -0.73c1.95,-6.23 2.56,-5.15 -0.22,-7.29l-1.38 -0.98c-0.35,-0.23 -0.53,-0.3 -0.87,-0.51 -1.76,-1.09 -0.74,-3.15 -0.35,-3.63 0.61,-0.73 1.69,-0.34 1.69,0.13 0,1.12 -0.31,1.4 -0.39,2.35 0.69,0.15 2.69,0.14 3.95,0.01 1.15,-0.12 1.17,-1.52 1.17,-3.35 0,-1.77 -2.24,-2.55 -3.74,-2.55 -0.59,0 -1.45,0.6 -2.7,1.04 -3.7,1.3 -3.71,-0.09 -4.88,2.59 -0.26,0.6 -0.68,2.46 -0.68,3.24zm-17.9 10.79c-0.93,0 -0.54,-1.15 -0.46,-1.62l1.64 -9.17c0.26,-1.61 0.3,-2.35 1.97,-1.96 0,1.5 -0.82,5.11 -1.1,6.75 -0.21,1.24 -0.35,2.14 -0.59,3.33 -0.37,1.84 -0.15,2.66 -1.46,2.66zm-1.38 2.94c2.23,0 3.39,-0.5 4.85,-1.44 1.43,-0.92 1.16,-2.12 1.59,-4.69 0.25,-1.52 1.83,-9.79 1.83,-10.93 0,-1.74 -5.04,-2.45 -8.18,0.08 -1.78,1.43 -2.35,4.07 -2.66,6.37 -0.15,1.11 -0.45,2.15 -0.56,3.17 -0.14,1.32 -0.74,4.07 -0.42,5.09 0.51,1.6 1.98,2.35 3.55,2.35zm-24.61 -9.04c0.24,-0.85 0.26,-2.38 1,-2.92 0.24,1.01 -0.36,5.56 -0.39,6.86l-1.57 0 0 -0.78 0.96 -3.16zm-6.08 10.02l3.93 -0.2c0.18,-0.77 0.57,-2.15 0.59,-2.94 0.07,-0.02 0.44,-0.09 0.44,-0.09 2.32,-0.39 0.88,1.11 1.33,3.04 4.51,0 3.74,1.2 3.74,-6.67 -3.3,-0.07 -1.6,-7.44 -1.57,-8.43 -0.44,0.12 -0.2,0.05 -0.5,0.28 -0.89,0.69 -0.53,0.89 -2.25,0.89 -1.05,0 -1.18,-1.16 -1.18,-1.96l-3.99 13.87c-0.15,0.45 -0.5,1.79 -0.54,2.21z"/>
   <path class="fil4" d="M76.79 31.58c2.77,0 10.45,-1.73 12.65,-3.87 0.47,-0.45 0.83,-0.81 1.28,-1.28 0.53,-0.56 0.83,-0.86 0.83,-1.92 -1.32,0.11 -1.88,1.28 -2.7,2.01 -0.7,0.61 -2.5,1.49 -3.4,1.12 0.7,-0.96 4.92,-0.75 4.92,-4.31l-4.13 -0.2c-0.88,1.65 -1.63,2.96 -3.59,3.28l-9.44 0.79c-0.32,0.03 -2.41,-0.19 -0.43,1.31 1.04,0.79 2.65,3.05 4.02,3.05z"/>
   <path class="fil1" d="M36.07 31.38c3.18,-4.74 6.24,-5.28 -0.59,-5.3 -2.1,-0.01 -3.89,-0.6 -5.9,-0.59 -2.79,0.01 -11.02,-1.35 -8.94,0.04l10.27 4.52c1.18,0.49 3.8,1.3 5.16,1.33z"/>
   <path class="fil4" d="M73.84 25.5c-3.92,0 -5.94,-0.59 -8.66,-0.59 0.08,0.99 2.23,3.84 2.92,4.74 1.08,1.41 1.37,1.32 4.41,0.99 1.03,-0.11 1.69,0.06 0.92,-0.77 -0.72,-0.78 -2.05,-1.57 -2.15,-2.8 2.38,0 4.67,-0.51 7.08,-0.59 1.92,-0.06 5.11,-0.01 6.34,-1.53 2.17,-2.7 -1.26,-0.52 -3.79,-0.25 -1.17,0.13 -2.44,0.22 -3.53,0.41 -1.16,0.2 -2.18,0.39 -3.54,0.39z"/>
   <path class="fil1" d="M61.84 23.93c-1.62,0 -1.3,-0.5 -2.23,0.11 -0.07,0.05 -0.3,0.23 -0.34,0.26 -0.56,0.44 -0.7,0.58 -0.77,1.39 0.57,-0.05 1.05,-0.22 1.65,-0.32 0.76,-0.13 1.34,-0.02 2.09,-0.08 3.32,-0.24 -0.46,-1.79 7,-0.69 1.75,0.26 6.73,0.76 8.35,-0.09 -0.62,-1.68 -1.85,-1.23 -4.16,-3.11 -0.25,-0.2 -1.15,-1.21 -1.35,-1.21 -4,0 -5.54,3.73 -10.23,3.73z"/>
   <path class="fil1" d="M87.81 6.48c0,-3.17 7.87,-4.5 7.87,-0.39 0,2.61 -7.87,3.87 -7.87,0.39zm1.57 3.33c2.24,0 3.74,-0.08 5.68,-0.81 0.65,-0.24 1.24,-0.52 1.76,-0.99 2.2,-2.04 0.88,-5.65 -4.68,-5.65 -2.17,0 -4.98,1.45 -5.78,2.87 -1.32,2.33 0.64,4.58 3.02,4.58z"/>
   <path class="fil4" d="M73.64 20.21c0.31,0.85 2.7,2.41 3.49,3 2.68,2.01 2.73,1.11 4.97,0.93 -0.6,-0.89 -0.83,-0.43 -1.38,-1.18 1.74,0.04 1.46,1.57 4.33,0.2 -0.22,-0.61 0.04,-0.24 -0.58,-0.6l-2.31 -1.22c-4.51,-2.67 -1.28,-1.96 -5.57,-1.51 -0.95,0.1 -2.06,0.32 -2.95,0.39z"/>
   <path class="fil1" d="M58.89 26.48c0.26,1.11 0.73,1.24 1.18,1.76 0.88,1.01 0.78,2.09 0.78,3.35 1.51,0 2.58,-0.8 4.16,-0.96 2.41,-0.23 3.05,0.48 1.34,-1.97 -2.71,-3.89 -1.25,-2.17 -7.46,-2.17z"/>
   <path class="fil5" d="M93.12 4.32c-5.19,0 -5.45,3.62 -2.17,3.61 5.06,-0.01 4.51,-3.61 2.17,-3.61z"/>
   <path class="fil1" d="M71.68 13.93l0 0.59c1.94,0 4.61,-0.8 6.3,-1.37 0,-0.94 -0.13,-0.82 -0.2,-1.57 -1.13,0 -3.39,1.03 -4.86,1.43 -0.63,0.17 -1.24,0.18 -1.24,0.92z"/>
   <path class="fil1" d="M96.46 1.77c0.09,1.12 1.05,1.59 1.58,2.35 0.97,1.36 0.19,2.56 1.37,2.56 1.15,0 1.31,-1.74 0.06,-3.4 -0.59,-0.79 -1.99,-2.51 -3.01,-1.51z"/>
   <path class="fil1" d="M80.73 10.4c0.19,0.82 0.38,0.97 0.98,1.37 0.9,-0.34 3.4,-2.09 4.53,-2.35 -0.08,-1.01 -0.15,-0.27 -0.39,-1.18 -0.77,0.02 -4.45,1.71 -5.12,2.16z"/>
   <path class="fil1" d="M22.89 20.6l0.39 0c0.75,-1.42 0.15,-1.01 -1.77,-1.57 -0.58,-0.17 -0.61,-0.26 -1.18,-0.39 0.07,0.82 0.28,0.86 0.9,1.26 0.47,0.31 0.99,0.7 1.66,0.7z"/>
   <path class="fil1" d="M92.92 12.56c0.67,-0.44 1.96,-1.16 2.36,-1.77 -0.82,-0.46 -1.22,-0.13 -1.83,0.53 -0.38,0.42 -0.48,0.55 -0.53,1.23z"/>
   <path class="fil6" d="M1.51 18.27c0,2.98 -0.48,5.69 1.63,6.81 4.16,2.2 7.07,0.84 10.37,0.84l0 -0.59c-1.41,0 -2.17,0.2 -3.34,0.2l0 -0.59c2.78,-0.73 4.82,1.03 5.31,-0.79 -0.68,-0.92 -5.32,-1.37 -6.3,-1.37 -1.66,0 -3.1,0.39 -5.51,0.39 -0.75,0 -0.07,0.06 -0.59,-0.2 0.18,-0.68 0.13,-0.53 0.85,-0.72 4.95,-1.31 6.04,1.1 5.02,-2.59 -0.75,-2.73 -0.13,-4.44 0.03,-6.31 -1.95,-0.45 -7.48,-2.97 -7.48,4.9zm4.79 -1.58l1.41 -0.4c-0.88,3.05 -2.35,4.02 -4.98,5.6l1.05 -2.44 -0.89 0.06c0.05,-1.63 1.21,-3.98 1.79,-5.83l3.36 -0.19c-0.46,1.82 -0.88,1.74 -1.75,3.19zm3.27 -1.95l0.28 4.62c0.24,1.11 0.31,0.27 0.31,2.04 4.77,-0.25 3.71,-0.57 5,0.9 0.47,0.53 0.6,0.87 1.3,1.06 0,-3.82 -0.2,-2 -0.49,-3.22 -0.22,-0.92 0.1,-0.03 0.1,-1.1 0,-0.53 -0.32,0.25 -0.25,-0.85 0.4,-6.05 -0.54,-4.6 -1.74,-5.01 -1.77,-0.6 -2.3,-1.87 -4.04,0.63 -0.21,0.31 -0.46,0.5 -0.46,0.92z"/>
   <path class="fil2" d="M4.98 14.08c-0.26,0.82 -1.66,4.48 -1.67,5.02 0.7,-0.01 0.54,-0.23 1.28,-0.46 -0.22,0.88 -0.91,1.44 -1.18,2.37 1.72,-1.04 3.23,-2.43 3.74,-4.2 -0.75,0.16 -0.82,0.39 -1.57,0.55 0.29,-1.11 1.7,-2.41 1.97,-3.47 -0.98,0 -1.46,0.18 -2.56,0.18z"/>
  </g>
 </g>
</svg>
