<?xml version="1.0" encoding="UTF-8"?>
<!DOCTYPE svg PUBLIC "-//W3C//DTD SVG 1.1//EN" "http://www.w3.org/Graphics/SVG/1.1/DTD/svg11.dtd">
<!-- Creator: CorelDRAW -->
<svg xmlns="http://www.w3.org/2000/svg" xml:space="preserve" width="25.4mm" height="19.05mm" version="1.1" style="shape-rendering:geometricPrecision; text-rendering:geometricPrecision; image-rendering:optimizeQuality; fill-rule:evenodd; clip-rule:evenodd"
viewBox="0 0 47.53 35.65"
 xmlns:xlink="http://www.w3.org/1999/xlink"
 xmlns:xodm="http://www.corel.com/coreldraw/odm/2003">
 <defs>
  <style type="text/css">
   <![CDATA[
    .fil0 {fill:black}
    .fil3 {fill:#FEFEFE}
    .fil1 {fill:red}
    .fil2 {fill:yellow}
   ]]>
  </style>
 </defs>
 <g id="Camada_x0020_1">
  <metadata id="CorelCorpID_0Corel-Layer"/>
  <g id="_2485664857808">
   <path class="fil0" d="M0.54 13.55c0.82,1.75 0.07,1.76 0.86,3.27 0.53,1 0.15,1.88 0.11,2.24 -0.1,0.76 0.05,0.58 -0.2,1.22 -0.73,1.89 -1.37,4.75 0.31,6.36 0.75,0.72 0.25,0.47 0.66,1.05 1.15,1.5 1.21,1.16 0.31,1.49 -1.81,0.67 -1.26,2.76 0.43,2.79 -0.05,0.66 -0.59,0.72 -0.37,1.61 0.31,1.24 0.93,1.01 1.76,1.3 0.32,0.11 0.24,0.21 0.54,0.41 0.97,0.62 2.28,0.29 3.3,0.15 0.38,-0.05 0.37,0.05 0.71,0.13 0.78,0.19 2.02,-0.13 2.68,-0.04 0.79,0.11 1,0 1.67,-0.02 0.68,-0.02 1.76,0.27 3.59,0.02 0.58,-0.08 0.98,0.17 1.77,0.04 1.1,-0.18 2.27,0.24 3.44,-0.15 0.74,-0.24 0.54,0.18 1.38,0.2l3.57 -0c1.35,0 2.09,-0.5 3.43,-0.29 0.85,0.13 1.09,0.03 1.77,-0.03 1.49,-0.13 7.55,-0.01 9.36,-0.01 2.56,0 3.81,0.79 4.61,-1.97 0.7,-2.44 2.77,-5.88 -0.43,-5.88 0.08,-0.37 1.35,-2.55 0.69,-4.62 -0.7,-2.21 -2.12,-1.89 -3.24,-1.79 0.7,-2.13 1.67,-4.45 2.18,-6.59 0.42,-1.77 0,-1.25 -0.25,-2.26 0.5,-0.13 1.37,-0.78 1.31,-1.42 -0.08,-0.79 -1.08,-0.68 -1.92,-0.68 0.28,-0.45 0.88,-0.83 0.64,-1.45 -0.17,-0.44 -0.08,0.08 -0.23,-0.43 0.52,-0.3 1.59,-0.82 1.19,-1.73 -0.44,-1.01 -4.57,-0.09 -5.66,-0.16 -0.3,-0.02 -0.34,-0.14 -0.68,-0.25 -0.83,-0.26 -0.96,0.11 -1.51,0.22l-1.55 -0.21c-0.44,-0.12 -0.63,-0.61 -1.38,-0.11 -0.32,0.22 -0.72,0.59 -1.09,0.69 -0.41,-0.3 -0.29,-0.43 -0.97,-0.6 -0.6,-0.15 -0.81,0.06 -1.23,0 -0.7,-0.09 -0.4,-0.23 -1.15,-0.06 -0.57,0.12 -0.68,0.16 -1.25,0.02 -1.06,-0.27 -1.69,0.24 -2.38,-0.06 -1.23,-0.54 -1.06,0.3 -1.78,0.82 -0.48,-0.14 -0.8,-0.55 -1.48,-0.72 -1.12,-0.27 -2.16,0.59 -3.61,0.16 -0.88,-0.26 -1.12,0.14 -1.66,0.05 -0.84,-0.15 -0.98,-0.25 -1.88,-0.02 -2.71,0.71 -2.99,2.68 -3.49,2.96 -0.24,-1.11 -0.82,-1.37 -0.49,-2.74 0.09,-0.61 0.11,-1.1 -0.54,-1.34 -1.15,-0.43 -1.91,0.15 -2.13,0.22 -0.57,-0.93 -1.56,-1.65 -2.31,-2.47 -2.24,-2.46 -1.81,-1.27 -2.84,-1.9 -0.47,-0.29 -0.53,-1.17 -2.08,-0.93 -0.81,0.13 -0.85,0.78 -1.31,1.9 -0.2,0.47 -0.01,0.81 -0.33,2.08l-0.41 1.98c-0.03,0.7 0.03,0.9 -0.18,1.47 -0.71,1.96 -1.27,4.15 -0.27,6.08z"/>
   <path class="fil1" d="M14.73 10.42c0,-0.55 0.48,-1.18 0.79,-1.47 1.41,-1.33 2.28,-0.38 2.98,-0.74 -0.39,1.82 -0.58,1.8 -0.2,3.54 -0.73,-0.53 -0.49,0 -1.63,0 -0.78,0 -1.94,-0.16 -1.94,-1.33zm10.69 0.22c-0.08,-0.39 -0.21,-0.52 -0.35,-0.95 -0.13,-0.4 -0.2,-0.68 -0.33,-1.08 -0.12,-0.39 -0.18,-0.72 -0.31,-1.1 -0.29,-0.86 -1.38,-0.87 -1.77,-0.07 -0.35,-0.2 -0.58,-0.33 -1.12,-0.33 0.11,0.5 0.91,1.87 0.31,3.32 -0.24,0.56 -0.67,1.88 -1.53,1.88 -1.36,0 -1.33,-3.09 -0.18,-4.28 0.29,-0.29 0.37,-0.25 0.38,-0.8 -0.53,-0.15 -0.02,-0.22 -0.71,-0.22 -0.32,0 -0.6,0.53 -1.12,0.66 -0.13,-1.66 -2.89,0.09 -3.28,0.42 -1.79,1.57 -1.6,4.77 0.63,4.77 0.65,0 2.04,-0.07 2.24,-0.88 0.32,0.09 0.54,0.38 0.82,0.55 1.5,0.94 2.72,-0.26 2.95,-0.33l0 0.55c0.65,-0.16 0.9,-0.64 1.09,-1.36l0.54 -2.06 0.41 0 1.25 2.95c0.47,1.08 1.37,0.79 1.4,-0.07 0.06,-1.6 0.4,-2.28 0.4,-3.99 1.56,-0.04 1.53,-0.81 0.92,3.09 -0.04,0.26 -0.2,1.26 -0.14,1.41 0.2,0.42 0.67,-0.3 0.77,-0.5 0.52,-1.06 0.89,-3.51 1.05,-3.84 0.19,-0.41 0.64,-0.38 1.07,-0.49 0.23,0.62 -0.41,3.37 -0.41,4.64 0.4,-0.04 0.27,-0.1 0.71,-0.11 0.04,0.51 -0.11,0.19 0.2,0.44 0.88,-0.5 1.06,-1.35 1.31,-2.66 0.1,-0.54 0.06,-0.74 0.52,-0.87 0.83,0.66 1.46,4.81 2.7,3.37 0.17,-0.2 0.15,-0.37 0.26,-0.6 0.65,0.16 0.94,0.99 2.14,0.99 0.62,0 0.92,-0.33 1.32,-0.33 0.35,0 0.19,0.26 0.61,0.28l2.23 -0.74c1.04,-0.33 2.55,-0.45 2.76,-1.31 -2.1,0 -3.87,0.92 -3.87,0.33 0,-1.73 1.98,-0.8 2.85,-2.21 -0.85,-0.22 -2.24,0.38 -2.24,-0.33 0,-0.93 0.78,-0.86 1.46,-0.96 0.92,-0.14 1.18,-0.12 1.6,-0.81 -0.49,-0.12 -2.91,-0.06 -3.51,0.05 -0.64,0.12 -0.52,0.1 -0.76,0.61l-0.68 -0.25c-0.03,-0 -0.11,0 -0.13,0l-0.12 0.13c-0,0.02 -0,0.11 -0,0.14 0.01,1.19 0.15,1.67 -0.28,2.85 -1.01,2.76 -3.26,2.67 -1.95,-1.57 0.22,-0.7 0.42,-0.93 0.42,-1.86 -1.08,-0.27 -1.02,-0.01 -1.37,0.05 -0.26,0.05 -0.27,-0.03 -0.57,-0.05 -0.07,0.32 -0.2,0.58 -0.29,0.91 -0.1,0.4 -0.15,0.55 -0.26,0.93 -0.28,1.01 -0.11,1.64 -0.78,1.7l-0.65 -1.84c-0.23,-0.77 -0.3,-1.32 -0.67,-1.92 -0.44,0 -1,0.03 -1.42,-0.01 -0.49,-0.05 -0.87,-0.29 -1.02,0.34 -0.53,-0.38 -1.56,-0.48 -2.02,-0.43 -0.36,0.04 -2.02,0.09 -2.23,0.24 -0.55,0.4 -0.07,0.86 -0.2,1.33 -0.01,0.02 -0.02,0.05 -0.03,0.07 -0.58,1.58 -0.36,2.15 -1.02,2.21z"/>
   <path class="fil2" d="M3.77 2.64l0.1 0.1c0.32,0.24 0.37,0.47 0.58,0.83 0.01,0.01 0.08,0.12 0.13,0.2l1.47 2.38c0.41,0.61 0.5,0.51 0.92,0.99 0.48,0.54 0.4,0.57 0.45,1.38 0.03,0.47 0.22,0.4 0.43,1.2 0.09,0.34 0.1,0.48 0.16,0.82 0.08,0.44 0.08,0.34 0.24,0.74 0.32,0.77 -0.26,1.62 -0.26,0.88 0,-0.19 0.05,-0.31 0.05,-0.52 0,-0.5 -0.03,-0.47 -0.26,-0.74 -0.32,-0.38 -0.47,-0.86 -0.49,-1.46 -0.58,-0.02 -0.56,-0.37 -0.97,-0.66 0.29,-0.34 0.25,-0.25 0.36,-0.72 -0.72,0.19 0.07,0.28 -0.56,0.22 -0.12,-0.23 -0.24,-0.18 -0.48,-0.28 -0.02,-0.01 -0.11,-0.03 -0.13,-0.06 0.84,-1.17 0.11,-1.82 -0.61,-2.77 -0.21,-0.27 -0.37,-0.83 -0.61,-1.04 -0.02,0.52 -0.02,0.37 -0.31,0.61 -0.23,-0.23 -0.63,-0.84 -0.66,-1.16 0.46,0.27 0.03,0.26 0.61,0.11l-0.1 -0.66c-0.44,0.32 -0.21,0.18 -0.36,0.14l-0.12 -0.07c-0.26,-0.19 -0.1,-0.35 -0.44,-0.73 -0.33,0.29 -0.15,0.26 -0.08,0.6l0.28 1.66c-0.29,-0.2 -0.16,-0.35 -0.61,-0.39 -0.17,0.38 -0.31,1.62 -0.31,2.21 0.19,-0.1 0.3,-0.13 0.56,-0.28l0.46 -1.41c0.5,0.45 0.7,0.06 1.27,0.19 -0.21,0.5 -0.22,-0.28 -0.25,0.5 0.04,1.1 0.74,2.41 1.25,3.06l1.09 2.14c0.07,0.42 0.37,1.09 0.1,1.49 -0.21,-0.32 -0,-0.03 -0.09,-0.29l-0.06 -0.15c-0.01,-0.02 -0.18,-0.07 -0.24,-0.61 -0,-0.04 -0.01,-0.46 -0.01,-0.56l-0.2 0c0.02,0.2 0.09,0.38 0,0.55 -0.29,-0.12 -0.33,-0.32 -0.71,-0.44 0.81,-1.32 -0.08,-1.18 -0.09,-1.18 -0.24,-0.08 -0.09,-0.2 -0.16,-0.54 -0.05,-0.26 -0.45,-0.97 -0.56,-1.27 -0.5,-1.42 -0.78,-1.54 -0.84,-1.72 -0.1,-0.35 0.2,-0.32 -0.4,-0.47l0.12 0.66c-0.04,-0.01 -0.07,-0.06 -0.08,-0.04l-0.39 -0.07c0.11,0.62 0.26,1.62 0.42,2.14l1.61 5.92c0,2.65 0.04,1.87 1.08,3.75 0.48,0.86 1.23,2.65 2.03,2.88 0.05,-0.63 -0,-0.18 0.22,-0.53l1.03 -2.51c0.01,-0.02 0.01,-0.05 0.02,-0.07l0.22 -0.56c0.32,-0.64 -0.08,0.05 0.11,-0.58 0.1,-0.32 0.41,-0.48 0.12,-1.13 -0.26,-0.6 -0.4,-0.12 -0.39,-1.25 0.01,-0.75 -0.16,-0.98 0.09,-1.57 0.19,-0.46 0.04,-0.37 0.42,-0.64l-0.41 -0.77c-0.19,-0.23 -0.23,-0.52 -0.31,-0.89 -0.14,0.16 -0.17,0.5 -0.31,0.64 -0.35,-0.45 -0.23,-0.94 0,-1.41 -0.41,-0.3 -0.57,-1.03 -0.71,-1.66l-0.51 0.02c0.08,-0.36 -0,-0.27 0.3,-0.36l-0.51 -0.11c0.25,-1.14 -0.24,0.26 -0.2,-0.88 -0.39,0.12 -0.27,0.18 -0.61,0 0.08,-0.4 0.27,-0.42 0.51,-0.55 0.22,0.12 0.34,0.22 0.51,0.39 -0.08,-0.41 -0.38,-0.8 -0.71,-1.05 0.1,0.45 0.15,0.69 -0.36,0.72 0.11,-0.65 -0.01,-1.82 -0.77,-1.97 -0.73,-0.15 -0.14,0.18 -0.78,-0.45 -0.35,-0.34 0.14,0.16 -0.3,-0.18 -0.24,-0.19 0.01,0.11 -0.12,-0.22l-0.42 -0.88 -0.41 0 -0.06 0.4zm6.17 4.23l0 0.35c0.44,0.04 0.18,-0.02 0.51,0.22l0.08 -0.56 -0.59 -0.01zm0.71 0.79c0.37,0.21 0.48,0.4 0.92,0.44 -0.18,-0.8 -0.24,-0.1 -0.06,-1.04 0.12,-0.59 -0.11,-0.2 0.02,-0.77l0.09 -0.23c-0.78,-0.09 -0.82,0.86 -0.97,1.6zm-1.12 2.65l0.14 -0.52c0.01,-0.03 0.02,-0.07 0.03,-0.09 0.01,-0.02 0.02,-0.06 0.03,-0.09l0.32 0.44c-0.04,-0.45 0.23,-0.8 0.15,-1.36 -0.05,-0.35 -0.36,-0.87 -0.52,-1.32 -0.19,0.1 -0.42,0.09 -0.55,-0 -0.22,-0.15 0.01,-0.19 -0.42,-0.38 0.02,0.7 0.2,1.18 0.45,1.62 0.55,0.95 0.09,0.4 0.37,1.7zm0.59 0.22c0.23,0.61 0.18,0.85 0.53,1.27 0,-0.27 0.05,-0.4 0.06,-0.55 0.06,-0.63 -0.06,-0.87 -0.16,-1.28l-0.36 0.51c-0.01,0.01 -0.05,0.03 -0.07,0.05zm-0.01 2.37c-0.2,-0.08 -0.22,-0.02 -0.37,0.06 -0.07,0.64 0.01,1.29 0.31,1.77 0.54,-0.39 0.11,-0.19 0.05,-1.27 0.3,0.08 0.07,0.13 0.46,0.28l0 -1.11 -0.42 -0.23c-0.02,-0.01 -0.05,-0.04 -0.07,-0.05 -0.02,-0.01 -0.05,-0.04 -0.07,-0.05l0.11 0.61zm1.31 0.94c0.09,-0.02 0.07,-0.4 0.29,0.04 0.18,0.35 -0.2,1.25 0.49,2.25 0.44,0.64 0.44,0.17 0.6,1.23 0.09,0.57 0.28,1.11 0.6,1.34 -0.02,-1 -0.52,-1.83 -0.81,-2.43 0.16,-0.44 0.05,-0.01 0.28,-0.44 -0.11,-0.24 -0.31,-0.68 -0.39,-0.88 -0.15,-0.42 -0.04,-0.61 -0.18,-1.13 -0.12,-0.48 -0.26,-0.52 -0.34,-0.98 -0.07,-0.41 0,-0.86 -0.19,-1.16 -0.22,0.33 -0.05,0.31 -0.05,0.53 0,0.61 0.04,-0.01 -0.13,0.52 -0.14,0.44 0.15,0.69 -0.18,1.1zm0.97 -1.88c0.02,0.5 -0.09,0.6 0.04,0.95 0.17,0.46 0.16,0.46 0.27,0.93 0.17,0.71 0.33,0.34 0.59,1.13 0.12,0.36 -0.17,0.17 0.22,0.43 0,-0.59 -0.07,-0.65 -0.15,-1.15l-0.25 -1.22c0.32,-0.06 0.18,0.14 0.27,-0.19 0,-0.01 0.01,-0.05 0.01,-0.06l0.05 -0.21c0.1,-0.65 -0.64,-1.07 -0.95,-1.15 0.06,0.23 0.11,0.26 0.08,0.4l-0.09 0.11c-0.01,0.01 -0.04,0.02 -0.05,0.02 -0.01,0 -0.04,0.01 -0.05,0.02zm0.2 -1.44c-0.1,-0.31 -0.28,-0.25 -0.1,-0.66 -0.93,-0.08 -0.43,-0.38 -1.02,-0.55 0.16,0.64 0.45,1.05 1.12,1.22zm-1.32 5.42l-0.11 0.04c-0.49,0.33 -0.03,0.57 -0.15,1.17 -0.2,0.11 -0.4,-0.09 -0.46,-0.11 -0.03,0.65 -0.13,0.44 -0.27,0.93l-0.04 0.18c-0.11,0.44 -0.01,0.14 -0.17,0.47l-0.44 0.9c-0.12,0.3 0.13,0.08 -0.24,0.67 -0.33,0.53 -0.08,0.35 -0.37,0.82l0.45 0.12c-0.01,0.01 -0.04,0.04 -0.06,0.05l-0.2 0.14c-0.19,0.13 0.04,-0.08 -0.19,0.13l1.28 -0.13c-0.02,-0.01 -0.06,-0.01 -0.07,0.04 -0.01,0.05 -0.05,0.06 -0.06,0.07l-0.28 0.3c0.17,0.03 0.29,0.11 0.13,0.32l-0.33 0.16c-0.01,0 -0.04,0 -0.05,0.01 0.23,0.37 0.31,0.45 0.69,0.68 0.5,0.32 0.32,0.38 0.63,0.75l1.45 -1.85c0.79,-0.85 -0.18,-0.43 1.23,-1.31 0.25,-0.15 0.25,-0.19 0.45,-0.38l-1.02 -0.86c-0.31,-0.11 -0.54,-0.03 -0.66,-0.08 -0.17,-0.07 -0.34,-0.36 -0.53,-0.5l-0.51 0.33c0.04,0.5 0.25,0.82 0.15,1.22 -0.35,-0.13 -0.07,0.12 -0.76,-1 0.42,-0.69 0.17,-0.45 0.41,-1.27 0.66,-0.36 0.51,0.02 1.02,0.17 0,-1.31 -0.7,-1.59 -0.81,-3.1l-0.2 0c-0.13,0.59 -0.06,0.28 0.1,0.88zm0.1 -1.11l0.05 -0.5c-0.28,0.25 -0.43,0.19 -0.05,0.5zm-3.36 -8.18c-0.08,-0.36 0.01,-0.17 -0.25,-0.33 0.14,0.37 -0,0.2 0.25,0.33zm1.02 -0.66c-0.04,-0.46 -0.03,-0.41 -0.46,-0.44 0.01,0.01 0.17,0.19 0.23,0.24 0.13,0.13 0.1,0.1 0.23,0.2zm-5.53 -4.2c0.26,0.31 0.02,0.21 0.53,0.22 -0.03,-0.09 0,-0.22 -0.15,-0.3 -0.18,-0.1 0.11,-0.04 -0.15,-0.04 -0.52,0.01 -0.06,-0.01 -0.23,0.12zm1.2 12.21c-0.12,-0.34 -0.14,-0.24 -0.15,-0.72 -0.16,0.11 -0.26,0.01 -0.18,0.4 0.07,0.37 0.13,0.3 0.33,0.32zm1.17 -11.22c-0.16,-0.31 -0.26,-0.44 -0.61,-0.44 0.11,0.43 0.14,0.43 0.61,0.44zm-1.83 10.17l0.37 -0.14c0.03,-0.39 -0.01,-0.44 -0.26,-0.63 -0.03,0.43 -0.09,0.29 -0.1,0.77zm4.33 -7.02c-0.16,0.12 -0.22,-0.07 0.01,0.42 0.19,0.39 0.15,0.32 0.5,0.4 -0.14,-0.3 -0.14,-0.22 -0.25,-0.45 -0.24,-0.47 -0.01,-0.33 -0.26,-0.38zm-4.69 -3.26c-0.19,-0.4 -0.46,-0.78 -0.46,-1.38l-0.1 0c0,1.15 -0.07,1.33 0.56,1.38zm1.99 0.44c0.42,0.85 0.81,0.76 0.81,0.44 0,-0.26 -0.1,-0.39 -0.31,-0.69 -0.23,0.15 -0.24,0.13 -0.51,0.25zm2.29 2.71l0.61 -0.39c-0.6,-0.06 -0.16,0.07 -0.42,-0.16 -0.47,-0.42 -0.3,-1.35 -1.67,-1.39l1.48 1.93zm-4.43 7.35c0.43,-0.28 0.1,-0.25 0.1,-0.44 0,-0.1 0.04,-0.41 0.04,-0.43 -0.06,-0.29 -0.04,-0.04 -0.24,-0.34 0.16,-0.26 0.12,-0.12 0.2,-0.44 -0.02,-0.02 -0.05,-0.06 -0.06,-0.04 -0.04,0.1 -0.44,-0.57 -0.35,-1.3 0.14,-1.16 0.11,-0.47 -0.09,-1.41 -0.33,0.1 -0.11,-0.3 -0.27,1.02 -0.31,2.55 0.68,1.4 0.68,3.4zm2.8 7.79c-0.4,-0.28 -0.3,0.16 -1.12,0.17 0.02,-0.02 0.06,-0.08 0.07,-0.06 0.01,0.02 0.05,-0.04 0.06,-0.05 0.25,-0.23 0.25,-0.14 0.33,-0.44 -0.82,-0.09 0.21,-0.27 -0.87,-0.06 0.18,-0.4 0.09,-0.1 0.36,-0.5 -0.53,-0.05 -0.18,0.11 -0.31,-0.22 0.3,-0.09 0.25,-0.02 0.41,-0.33 -0.14,0.08 -0.05,0.1 -0.23,0.09 -0.02,-0 -0.06,-0 -0.08,-0.01l-0.16 -0.08c-0.02,-0.01 -0.06,-0.03 -0.08,-0.06 0.8,-0.31 0.77,-0.9 0.76,-1.82 -0.45,0.37 0.04,0.3 -0.51,0.61 -0.16,-0.45 -0.04,-0.17 -0.02,-0.31 0.03,-0.13 0.06,-0.16 0.12,-0.3l-0.51 -0.66 -0.66 0.14c0.21,-0.6 0.33,-0.16 0.66,-0.69 -1.28,0.33 -0.24,-0.17 -0.68,-0.68l-0.25 -0.36c-0.01,-0.02 -0.03,-0.09 -0.03,-0.11 -0.02,-0.21 -0.03,-0.06 0.05,-0.39l-0.46 -0.06c-0.02,-0 -0.05,-0.01 -0.07,-0.01l-0.13 -0.03c0.13,-0.15 0.34,-0.35 0.46,-0.55 -0.4,0.12 -0.11,0.12 -0.56,0.22 0.28,-0.6 -0.01,-1.03 -0.1,-1.4 -0.05,-0.21 -0.05,-0.38 -0.11,-0.64 -0.14,0.39 -0.08,0.24 -0.31,0.39 -0.1,-0.22 -0.22,-0.42 -0.29,-0.62l-0.14 -0.78c0.28,-0.3 0.1,-0.17 0.38,-0.26 -0.12,-0.1 0.11,-0.07 -0.31,-0.11 0.04,-0.51 0.16,-0.59 0.16,-1.17 0,-0.24 -0.01,-0.4 -0.03,-0.58 -0.03,-0.27 -0.03,-0.16 -0.04,-0.26l0.01 -0.25c0.77,-0.4 1.06,-1.37 0.61,-2.27 -0.19,0.12 -0.19,0.13 -0.31,0.33 -0.68,1.11 -1.08,2.67 -1.27,4.03 -0.15,1.06 -0.06,0.95 0.24,1.63 0.19,0.43 0.56,1.22 0.61,1.65 0.13,0.92 0.16,0.37 0.23,1.3 0.11,1.39 0.55,0.38 0.61,2.33 0.02,0.72 0.43,1.81 0.79,2.24 0.24,0.29 0.49,0.44 0.71,0.78 0.22,0.34 0.35,0.64 0.64,0.86 0.22,0.16 0.7,0.39 1.07,0.28 0.58,-0.17 0.1,-0.39 0.3,-0.89z"/>
   <path class="fil3" d="M21.05 33.74c-0.71,0 -0.09,-1.29 0.25,-2.27 0.29,-0.85 0.45,-2.26 1.18,-2.26 0.6,0 -0.04,1.64 -0.28,2.35 -0.41,1.24 -0.49,2.18 -1.15,2.18zm3.87 -0.18c0.15,-0.4 0.33,-0.94 0.47,-1.41l1.27 -3.94 -1.33 0c-0.04,0.47 -0.32,1.18 -0.47,1.7l-1.03 3.2c-0.16,0.45 -0.43,1.09 -0.44,1.63l2.24 0c0,-1.56 -0.03,-0.92 -0.71,-1.18zm8.35 -4.35c0.08,-0.38 0.21,-0.57 0.29,-1l-2.74 0c-0.12,0.26 -0.24,0.68 -0.31,1 0.35,0 0.61,-0.07 0.61,0.33 0,0.64 -1.45,4.13 -1.53,5.2l1.12 0 0.88 -2.69c0.18,-0.53 0.28,-0.95 0.44,-1.4 0.14,-0.37 0.27,-1.01 0.41,-1.33 0.36,-0.09 0.33,-0.11 0.81,-0.11zm-23.93 1.11c0.36,0 0.4,-0.49 0.55,-0.85 0.56,-1.35 0.32,-1.37 -1.16,-1.37 -1.47,0 -2.14,1.17 -2.14,2.32 0,1.12 0.74,1.11 1.06,1.73 0.21,0.4 0.2,1.58 -0.65,1.58 -0.57,0 -0.05,-1.09 0,-1.33l-1.12 0c-0.2,0.66 -0.45,1.25 -0.51,1.99 0.55,0.4 0.43,0.34 1.32,0.34 2.06,-0 1.51,-0.1 1.95,-1.43 0.72,-2.18 0.39,-1.29 -0.6,-2.7 -0.68,-0.96 0.79,-1.96 0.79,-1.07 0,0.66 -0.46,0.77 0.51,0.77zm23.63 2.54c-0,-0.41 0.13,-0.74 0.26,-1.05 0.08,-0.19 0.13,-0.25 0.2,-0.43 0.08,-0.2 0.09,-0.28 0.18,-0.47l0.53 -1.31c0.01,-0.02 0.02,-0.05 0.03,-0.07 0.17,-0.31 0,-0.21 0.33,-0.3l-0.45 1.94c-0.42,1.83 -0.27,1.7 -1.08,1.7zm1.02 1.88c0.56,0 1.01,-2.48 1.09,-3.01 0.19,-1.22 0.43,-2.22 0.57,-3.51l-1.77 0c-0.52,1.06 -0.98,2.11 -1.48,3.26 -0.24,0.55 -0.49,1.08 -0.73,1.63 -0.2,0.45 -0.61,1.15 -0.64,1.64l1.02 0c0.07,-0.33 0.25,-0.88 0.61,-0.88 1.68,0 -0.31,0.88 1.32,0.88zm-5.91 0c0.66,0 0.93,-0.65 1.16,-1.18l1.16 -3.62c0.28,-0.94 -0.38,-0.34 0.23,-1.72l-0.92 0c-0.01,0.5 -0.65,2.25 -0.85,2.94 -0.14,0.49 -0.63,2.59 -1.18,2.59 -0.68,0 -0.42,-0.62 -0.03,-1.69 0.24,-0.65 1.11,-3.25 1.15,-3.84l-1.12 0c-0.16,0.33 -1.83,5.45 -1.83,5.75 0,0.98 0.26,0.77 2.24,0.77zm-18.03 -1.11c0.04,-0.56 0.53,-1.92 0.71,-2.43 0.2,-0.55 0.43,-1.99 1.02,-1.99 0.6,0 0.39,0.5 0.19,1.09 -0.13,0.39 -0.27,0.76 -0.41,1.22 -0.11,0.38 -0.28,0.89 -0.38,1.25 -0.33,1.19 -0.49,1.03 -1.14,0.86zm0.92 1.11c0.69,0 0.9,-0.5 1.08,-1.15 0.19,-0.69 0.36,-1.13 0.54,-1.74 0.35,-1.15 0.77,-2.21 1.03,-3.41 -0.67,-0.48 -2.17,-0.51 -2.87,-0.02 -0.5,0.35 -0.66,1.14 -0.87,1.71 -0.14,0.36 -0.22,0.64 -0.32,0.98 -1.11,3.81 -1.72,3.64 1.41,3.64zm29.03 -1.11c-0.48,0 -0.14,-0.49 0.23,-1.63 0.06,-0.19 0.12,-0.45 0.16,-0.6 0.59,-2.1 0.61,-2.3 1.44,-2.09 0,0.7 -0.37,1.78 -0.58,2.35 -0.5,1.38 -0.34,1.96 -1.25,1.96zm-1.83 1.11c1.28,0 3.06,0.36 3.44,-0.69l0.98 -3.25c0.85,-2.62 1.14,-2.6 -0.65,-2.59 -0.58,0 -1.16,0 -1.73,0l-1.59 4.9c-0.17,0.58 -0.32,1.05 -0.44,1.62zm5.09 -1.11c0,-0.76 0.46,-1.76 0.68,-2.47 0.37,-1.18 0.37,-1.95 1.16,-1.95 0.45,0 0,1.24 -0.09,1.56 -0.08,0.28 -0.12,0.32 -0.21,0.55 -0.08,0.22 -0.1,0.32 -0.17,0.59 -0.39,1.41 -0.5,2.11 -1.36,1.73zm-1.43 0.89c0.5,0.26 1.74,0.38 2.53,0.2 0.99,-0.22 1.67,-3.52 2.23,-5.1 0.19,-0.54 0.13,-0.61 0.13,-1.29 -0.73,-0.18 -1.46,-0.4 -2.43,-0.09 -0.42,0.13 -0.55,0.25 -0.79,0.69 -0.15,0.27 -0.35,0.7 -0.44,0.97l-0.36 1.16c-0.28,0.99 -0.88,2.47 -0.88,3.47zm-24.44 -6.3l-1.02 0 -0.85 2.84c-0.05,0.17 -0.1,0.37 -0.17,0.48 -0.55,0.88 0.11,-1.95 0.11,-3.32l-1.53 0 -1.54 4.96c-0.14,0.46 -0.39,1.04 -0.5,1.56l1.02 0 1.08 -3.47c0.13,-0.28 -0.01,-0.17 0.25,-0.28 0.09,0.35 -0.31,2.83 -0.31,3.76l1.43 0 2.04 -6.52zm20.27 6.52c0.44,0 1.12,-2.63 1.28,-3.15l1.07 -3.38 -1.02 0 -1.22 3.43c0,-1.12 0.31,-2.33 0.31,-3.43l-1.53 0c-0.16,0.75 -0.88,2.65 -1.16,3.71 -0.82,3.08 -1.36,2.81 0.15,2.81l0.76 -2.38c0.04,-0.14 0.08,-0.29 0.12,-0.42 0.11,-0.37 0.21,-0.56 0.24,-0.95l0.24 0c-0.14,1.25 -0.34,2.5 -0.34,3.75l1.12 0zm-17.21 -4.64c0.02,-0.78 0.46,-1.18 0.51,-1.88l-1.22 0c-0.1,0.46 -0.31,0.93 -0.45,1.4 -0.51,1.72 -0.42,1.21 -1.18,1.15 0.02,-0.99 0.61,-1.53 0.61,-2.54 -1.3,0 -1.11,-0.13 -1.39,0.81l-0.9 2.89c-0.99,3.24 -1.35,2.82 0.35,2.82 0.11,-0.52 0.3,-1.06 0.48,-1.58 0.15,-0.47 0.22,-1.29 0.64,-1.29 1.36,0 -0.07,1.38 -0.21,2.87l1.23 0c0.03,-0.4 0.95,-3.42 1.22,-3.76l-0.64 2.29c-0.65,1.83 0.48,1.51 1.97,1.48 1.32,-0.03 1.48,-1.73 2.12,-3.67 0.56,-1.68 1.2,-2.97 -0.29,-2.97 -2.02,0 -2.14,0.19 -2.71,1.7l-0.1 0.22c-0,-0.02 -0.02,0.05 -0.04,0.07z"/>
   <path class="fil3" d="M30.93 13.63c-0.21,0 -0.25,-0.09 -0.37,-0.18 -0.08,0.37 -0.19,0.66 -0.31,0.99 -0.13,0.35 -0.17,0.61 -0.3,1 -0.22,0.73 -0.44,1.33 -0.66,2.04 -0.24,0.8 -1.2,3.43 -1.21,4.1 1.18,-0.3 0.53,-0.11 1.53,-0.11l1.15 -3.72c0.27,-0.92 0.2,-1.03 0.58,-1.14l-0.27 2.14c-0.22,1.85 -0.24,1.59 -0.24,3.28 1.68,0 1.61,0.15 2.18,-1.73l1.4 -4.45c0.12,-0.36 0.21,-0.75 0.36,-1.16 0.15,-0.43 0.3,-0.71 0.34,-1.17 -0.69,-0.01 -0.57,-0.2 -1.02,-0.33 -0.13,0.61 -0.43,1.46 -0.64,2.07 -0.2,0.57 -0.57,1.65 -0.58,2.24l-0.2 0c0,-2.3 1.2,-6.1 -0.38,-4.73 -0.39,0.34 -0.66,0.86 -1.35,0.86zm-4.79 5.64c0.05,-0.71 1.13,-3.09 1.5,-4.01 0.33,-0.82 0.25,-1.03 0.64,-1.18 -0.01,0.55 -0.18,0.88 -0.29,1.33 -0.13,0.5 -0.22,0.87 -0.31,1.33 -0.17,0.89 -0.44,1.72 -0.62,2.53l-0.92 0zm1.53 -5.53c-0.32,0 -0.42,-0.05 -0.51,-0.33 -0.27,0.22 -0.7,1.39 -0.88,1.81l-2.58 5.71c0.92,0 0.78,0.14 1.43,0.35 0.38,-0.57 0.22,-0.57 1.22,-0.57 0.53,0 0.3,0.37 0.41,0.66 0.53,-0.15 0.19,-0.13 1.12,0.02 0.08,-0.4 0.2,-0.63 0.28,-0.93l0.85 -2.72c0.28,-0.91 0.9,-3.15 0.9,-4.1 0,-0.51 0.01,0.06 -0.09,-0.23 -0.18,-0.56 -0.05,-0.87 -0.32,-0.87 -0.72,0 -1.05,1.22 -1.83,1.22zm7.44 6.63c0.05,-0.65 0.54,-1.82 0.75,-2.5 0.09,-0.3 0.11,-0.47 0.21,-0.77 0.18,-0.52 0.33,-1 0.51,-1.55 0.14,-0.43 0.28,-1.37 0.67,-1.37 1.04,0 0.98,0.2 0.38,1.85 -0.44,1.2 -1,3.53 -1.49,4.34l-1.02 0zm0.2 -6.85c-0.03,0.44 -0.42,1.59 -0.58,2.02 -0.14,0.38 -0.18,0.61 -0.31,0.99 -0.11,0.35 -0.22,0.66 -0.32,0.98l-0.93 2.97c-0.12,0.33 -0.24,0.67 -0.31,1.11 0.97,-0.09 1.33,-0.55 3.36,-0.55 0.74,0 0.1,0.33 1.22,0.33 0,-0.5 0.05,-0.84 0.18,-1.25l1.47 -4.6c0.39,-1.34 0.95,-1.95 0.2,-2.01 -0.73,-0.07 -0.77,0.33 -2.1,-0.04 -0.99,-0.28 -0.45,-0.42 -1.32,-0.11 -0.22,0.08 -0.37,0.12 -0.56,0.16zm-18.54 6.85c0,-1.01 1.04,-3.7 1.44,-5.07 0.15,-0.53 0.25,-1.12 0.9,-1.12 0.81,0 0.43,0.58 0.16,1.61 -0.17,0.62 -0.37,1.15 -0.56,1.71 -0.86,2.55 -0.6,3.21 -1.94,2.87zm-2.14 0.77c0.53,-0 0.54,-0.07 0.94,-0.03 0.39,0.04 0.71,0.02 1.1,0.03 2.56,0.03 1.77,1.49 2.73,-1.67 0.2,-0.65 0.44,-1.35 0.68,-2.02l0.96 -3.05c0.1,-0.37 0.22,-0.73 0.3,-1.11 -0.69,0.06 -0.84,0.26 -1.54,0.13 -0.63,-0.11 -0.91,-0.42 -1.5,-0.35 -1.64,0.2 -1.57,0.9 -2.35,3.44l-0.95 2.95c-0.15,0.45 -0.38,1.02 -0.39,1.68zm8.15 -4.64c-0.37,0 -0.27,-0.19 -0.18,-0.5 0.07,-0.24 0.14,-0.42 0.22,-0.67 0.14,-0.4 0.24,-1.58 1.31,-1.04 0.16,0.48 -0.3,2.21 -0.85,2.21l-0.51 0zm-1.32 -2.8l-0.6 1.93c-0.19,0.63 -0.35,1.3 -0.59,1.9 -0.22,0.57 -0.39,1.29 -0.58,1.91 -0.18,0.61 -0.48,1.26 -0.57,1.92 0.49,0 1.09,0.03 1.48,-0.06 0.49,-0.11 0.27,0.19 0.68,-1.02 0.14,-0.42 0.26,-0.85 0.39,-1.24 0.14,-0.43 0.17,-0.99 0.71,-0.99 1.23,0 -0.13,2.24 -0.2,3.21 1.45,0 1.29,-0.31 2.42,-2.8 0.34,-0.75 0.17,-0.63 -0.17,-1.18 1.38,-0.79 1.23,-1.28 1.64,-2.53 0.11,-0.34 0.27,-0.77 0.29,-1.23 -1.34,0 -1.09,-0.12 -1.63,-0.99 -0.51,0.03 -1.72,0.67 -2.39,0.94 -0.37,0.15 -0.58,0.12 -0.87,0.24zm18.84 6.78c-0.31,0 -0.41,-0.11 -0.61,-0.22 0.22,-1.03 0.7,-2.26 1,-3.22 0.63,-2.04 0.59,-2.85 1.65,-2.85 0.68,0 0.08,1.11 -0.14,1.84 -0.19,0.6 -0.32,1.03 -0.51,1.65 -0.42,1.33 -0.66,2.81 -1.38,2.81zm-2.65 0.89c0.93,0 1.03,-0.1 1.52,-0.11l3.06 0c0.84,-1.72 1.39,-3.84 2.02,-5.76 0.07,-0.22 0.07,-0.28 0.14,-0.51 0.13,-0.43 1.03,-2.46 -0.53,-2.46 -0.68,0 -2.12,0.57 -2.81,0.81 -1.3,0.46 -1.11,0.13 -1.71,2.02l-0.89 2.9c-0.28,0.81 -0.8,2.3 -0.8,3.11z"/>
   <path class="fil2" d="M20.13 23.02c1.01,-0.44 2.64,-0.04 3.11,-1.16 -0.4,-0.29 -3.19,-0.12 -3.81,-0.05 -0.61,0.07 -0.5,0.43 -0.82,0.6 -0.04,-0.6 -0.43,-0.67 -1.22,-0.72 -0.33,-0.02 -0.6,-0.03 -0.93,-0.02 -0.91,0.01 -1.48,-0.22 -2.36,0.35 -0.43,0.27 -0.24,0.6 -0.08,1.01 0.46,-0.01 0.32,-0.09 0.68,0.05 0.05,0.57 0.05,1.16 -0.22,1.67l-0.66 -0.23c0.1,1.04 0.45,0.78 0.58,1.32 0.09,0.37 -0.17,1.01 -0.17,1.83 0.7,0 0.86,0.05 1.12,-1.1 0.16,-0.73 0.36,-0.52 1.12,-0.56 0.39,-0.02 1.1,-0.17 1.44,-0.31 0.49,-0.19 0.51,-0.66 0.44,-1.18 -0.51,-0.01 -0.72,0.5 -2.6,0.5 0,-0.13 0.22,-2.21 0.71,-2.21 0.65,0 1.36,0.04 1.94,0.33 0.38,-0.19 -0.04,0.08 0.18,-0.14l0.17 -0.24c-0.02,1.02 -0.17,1.86 -0.3,2.77 -0.05,0.32 -0.1,0.96 -0.18,1.24 -0.24,0.86 -0.45,-0.05 -0.48,0.91 0.64,0 1.5,0.11 2.07,-0.07 1.81,-0.57 2.61,-0.53 2.56,-1.55 -1.44,-0.16 -2.82,0.83 -3.05,0.37 -0.05,-0.11 0.07,-0.69 0.18,-0.91 0.36,-0.69 1.96,-0.28 2.86,-1.56 -0.75,-0.08 -1.67,0.02 -2.43,0.06l0.14 -0.99zm3.67 3.21c0.07,-0.86 1.02,-2.48 1.02,-3.87 0,-0.71 -0.06,-0.49 -0.31,-0.88 -1.68,-0.03 -0.68,-0.04 -1.46,3.05 -0.15,0.58 -0.34,1.26 -0.46,1.83 -0.18,0.86 -1.06,1.31 -0.22,1.31 1.7,0 1.59,0.17 3.06,-0.66 -0.03,-0.37 -0.14,-0.76 -0.25,-1.05 -0.71,0.09 -0.61,0.28 -1.37,0.28zm5.02 -4.12c0.01,0.02 0.04,0.04 0.05,0.05 0.63,0.62 0.28,0.16 0.34,0.47 0.23,1.12 0.53,1.47 -0.17,3.2 -0.99,2.47 -2.4,1.33 -2.4,0.06 0,-2.38 0.59,-2.34 1.32,-3.54 -0.42,-0.85 -1,-0.65 -1.56,-0.03 -1.04,1.15 -1.78,4.11 -0.15,5.2 0.55,0.37 1.44,0.19 2.22,0.15 0.72,-0.04 1.12,-0.71 1.43,-1.21 0.7,-1.11 1.18,-3.21 0.08,-4.2 -0.41,-0.37 -0.61,-0.34 -1.32,-0.34l0.13 0.19zm4.71 1.19c0.78,-0.93 3.11,0.04 3.11,-1.27 0,-1.07 -2.34,-0.29 -3.04,-0.08 -0.69,0.2 -1.44,0.64 -1.44,1.52 0,0.86 0.85,1.17 1.85,1.53 1.08,0.39 1.81,0.42 2,1.13 -0.24,0.38 -0.29,0.39 -0.75,0.5 -1.4,0.34 -2.63,0.41 -3.05,-1.16 -0.23,0.14 -0.28,0.14 -0.39,0.52 -0.22,0.77 0.33,1.36 0.55,1.7l3.21 0c0.05,-0.95 0.32,-0.14 0.53,-1.03 0.04,-0.17 0.23,-1.3 0.23,-1.4 0,-1.2 -1.69,-1.27 -2.8,-1.93zm10.95 -1.27c0.43,2.15 -0.19,5.25 -2.04,5.42 -0.75,-0.89 -0.36,-2.63 -0.02,-3.66 0.26,-0.77 0.92,-1.97 -0.19,-1.97 -0.74,0 -0.66,-0.04 -0.85,0.62 -0.29,0.98 -1.43,3.77 0,5.06 0.22,0.2 2.31,0.62 3.14,0.13 0.73,-0.43 1.93,-3.41 0.84,-5.24 -0.4,-0.67 -0.32,-0.21 -0.9,-0.34zm-6.47 1.93c-0.26,-2.12 2.33,-0.29 3.41,-2.27 -1.01,0 -3.96,-0.03 -4.53,0.39l-0.61 4.64c-0.2,0.68 -0.66,0.24 -0.44,0.95 0.35,0.47 4.26,-0.73 4.86,-0.88 -0.1,-0.42 -0.01,-0.58 -0.31,-0.77 -1.05,-0.32 -3.76,1.61 -2.84,-0.43 0.3,-0.67 2.59,-0.59 2.84,-1.7 -0.71,0.06 -1.69,0.2 -2.39,0.08z"/>
   <path class="fil1" d="M4.75 29.88c0,-0.32 0.55,-1 -0.2,-1.22 -0.19,0.15 -0.25,0.22 -0.33,0.53 -0.12,0.47 0.02,0.19 0.02,0.69 0,0.96 -1.12,-0.08 -1.58,0.38 -0.36,0.35 0.03,-0.09 -0.02,0.31 -0.1,0.74 1.4,-0.11 1.4,0.64 0,2 -0.55,1.64 -0.1,2.65 0.79,-0.23 0.51,-1.02 0.51,-1.22 0,-2.66 0.87,-1.25 1.53,-1.55 -0.06,-0.26 -0.1,-0.33 -0.1,-0.66 -0.5,-0.12 -0.22,0.07 -0.71,-0.01 -0.37,-0.06 -0.41,-0.2 -0.41,-0.55zm-1.53 -4.2c0.3,0.71 -0.7,0.58 0.81,0.44 -0.1,-0.31 -0.21,-0.16 -0.08,-0.44 0.2,-0.39 0.04,-0.12 -0.02,-0.22 -1.07,0 -1.22,-0.03 -1.93,-0.44l0.01 -0.65c0.04,-0.2 0.04,-0.13 0.09,-0.23l0.44 -1.73c0.05,-0.46 -0.1,-0.26 -0.14,-0.82 -0.4,0.21 -0.38,0.52 -0.46,1.05 -0.27,1.82 -0.51,1.82 0.38,2.91 0.16,0.2 0.2,0.32 0.38,0.49 0.26,-0.16 0.12,-0.27 0.51,-0.35zm7.54 0.77c0.44,-0.19 0.15,-0.54 0.61,-0.33l0 -0.77 0.31 0c0.2,0.92 0.98,1.35 1.94,1.44 0.03,-0.45 0.1,-0.25 0.1,-0.66 0,-0.15 -1.01,-1.33 -0.44,-2.14 0.28,-0.4 0.03,-0.17 0.34,-0.29 -0.18,-0.74 -0.41,-0.2 -0.41,-1.33 0,-1.04 0.69,-0.4 0.71,-1.44 -0.87,0.25 -2.48,2.72 -2.81,3.58 -0.3,0.78 -0.35,0.88 -0.35,1.94zm-4.07 -1.33c0.52,0 0.91,-0.1 1.12,-0.44 0.15,-0.24 0.38,-0.83 0.4,-1.22 -0.55,0.16 -1.18,0.86 -1.43,1.32l-0.1 0.34zm-1.22 2.54c0,0.4 0.71,0.12 0.96,0.05 0.49,-0.14 0.53,-0.22 0.77,-0.66l-0.51 0.06c0,-0.67 0.09,-0.6 -0.31,-0.88 -0.09,0.37 -0.24,0.43 -0.49,0.69 -0.17,0.18 -0.43,0.43 -0.43,0.75z"/>
   <path class="fil3" d="M6.18 24.35c0.08,0.06 0.25,0.22 0.31,0.22 0.59,0 0.31,-0.66 0.1,-0.66 -0.31,0 -0.3,0.2 -0.41,0.44zm-3.46 -4.86l-0.11 -0.44 -0.19 -0c0.01,0.61 -0.12,0.41 0.31,0.44zm8.22 -8.11c0,0.38 -0.12,0.15 0.13,0.47 0.3,-0.15 0.17,-0.11 0.31,-0.54l-0.43 0.07zm0.23 1.37c0.05,-0.23 0.08,-0.34 0.17,-0.52 -0.15,-0.09 -0.27,-0.22 -0.42,0.03 -0.21,0.36 0.03,0.39 0.25,0.48zm-6.42 14.68c0.22,-0.09 0.2,0.15 0.26,-0.25 0.02,-0.1 -0.02,-0.29 -0.16,-0.29 -0.56,0 -0.29,0.33 -0.1,0.54zm5.6 -19.32c0.13,0.38 0.1,0.41 0.51,0.44 -0.01,-0.33 0.07,-0.29 -0.1,-0.46 -0.16,-0.16 -0.35,-0.05 -0.41,0.02zm0.41 6.28l0.38 -0.11c-0.03,-0.42 -0.03,-0.33 -0.28,-0.49 -0.3,0.2 -0.39,0.28 -0.1,0.61zm-6.42 11.29l0.51 0.01 -0 -0.45c-0.41,-0.14 -0.5,-0.11 -0.51,0.44zm0.31 0.55c0,0.54 0.51,0.39 0.51,0.11 0,-0.46 -0.51,-0.42 -0.51,-0.11zm-1.73 -3.76c0,0.18 0.06,0.33 0.2,0.33 0.34,0 0.31,-0.2 0.31,-0.55 -0.23,0.01 -0.51,-0.03 -0.51,0.22zm0.51 1.11c0.36,0 0.31,-0.22 0.31,-0.44 -0.27,-0.14 -0.11,-0.1 -0.51,-0.11 0.01,0.24 -0.03,0.55 0.2,0.55zm-1.02 -3.21l0.48 -0.02c0.02,-0.25 0.07,-0.53 -0.17,-0.53l-0.2 0c-0.12,0.27 -0.1,0.14 -0.1,0.55zm6.96 -2.17c0.23,0.4 0.43,0.51 0.59,-0.04 -0.06,-0.1 -0.1,-0.22 -0.22,-0.22 -0.27,0 -0.29,0.07 -0.37,0.26zm-0.2 0.55c-0.18,1.41 1.21,-0.15 0,0zm-5.94 3.17c-0.01,-0.4 0.08,-0.27 -0.11,-0.45 -0.06,-0.06 -0.28,-0.05 -0.35,0.06 -0.3,0.5 0.15,0.49 0.46,0.38zm0.71 3.09c0.52,-0.01 0.51,-0 0.51,-0.44 -0.42,-0.38 -0.53,0 -0.51,0.44zm5.74 -7.63c0.16,0.32 -0.01,0.23 0.37,0.31 0.53,-0.58 -0.16,-0.89 -0.37,-0.31zm0.98 -8.4l0 0.22c0.75,0.39 0.68,-0.4 0.3,-0.43 -0.17,-0.01 -0.3,0.06 -0.3,0.21zm0.27 6.15c0.14,-1.37 -1.29,0.26 0,0zm0.24 -5.6l-0.2 0c-0.34,0.76 0.38,0.79 0.41,0.34 0.01,-0.19 -0.06,-0.34 -0.2,-0.34zm-8.65 11.18l-0 0.43c0.44,0.1 0.71,0.07 0.41,-0.55l-0.4 0.12zm8.38 -9.96c0.14,0.18 0.04,0.2 0.28,0.21 0.8,0.03 -0.12,-1.14 -0.28,-0.21zm-6.45 17.46c0.4,0.09 0.11,0.09 0.51,0 -0.01,-0.58 -0.06,-0.61 -0.51,-0.44l0 0.44zm3.97 -7.85c0.01,0.43 -0.1,0.35 0.16,0.48 0.26,0.13 0.54,-0.35 0.29,-0.52 -0.13,-0.09 -0.4,-0.02 -0.45,0.04zm2.9 -7.07c-0.42,-1.07 -0.9,0.52 -0.22,0.25 0.2,-0.08 0.12,-0.08 0.22,-0.25zm-1.38 3.43c0.39,0.24 0.61,0.16 0.61,-0.33 -0.39,-0.24 -0.57,-0.15 -0.61,0.33zm-4.28 8.18c0.58,0.88 0.77,-0.33 0.41,-0.33 -0.25,0 -0.32,0.16 -0.41,0.33zm4.52 -8.99c0.11,0.1 0.15,0.15 0.27,0.15 0.48,0 0.27,-0.45 0.1,-0.66 -0.33,0.14 -0.35,0.11 -0.37,0.52zm-1.43 3.79c0,0.31 0.1,0.29 0.27,0.41 0.17,-0.08 0.31,-0.04 0.31,-0.3 0,-0.59 -0.58,-0.28 -0.58,-0.11zm-5.23 4.09l0 0.44c0.44,0.16 0.38,0.15 0.61,-0.22 -0.18,-0.29 -0.25,-0.37 -0.61,-0.22zm1.63 1.99c0.1,0 0.2,0.03 0.3,-0 0.48,-0.12 0.24,-0.46 0.21,-0.55 -0.55,0.01 -0.51,-0.05 -0.51,0.55zm1.61 -2.43c-0.28,0.31 0.21,0.66 0.46,0.38 0.25,-0.28 -0.15,-0.73 -0.46,-0.38zm0.42 -0.77c0.01,0.24 -0.03,0.55 0.2,0.55 0.27,0 0.3,-0.16 0.41,-0.33 -0.18,-0.29 -0.25,-0.37 -0.61,-0.22zm0.41 -0.55l0 0.22c0.21,0.12 -0.01,0.15 0.31,0.12 0.35,-0.03 0.3,-0.22 0.3,-0.46 -0.35,-0.22 -0.61,-0.09 -0.61,0.11zm0.41 -0.88l0 0.44c0.9,0.23 0.57,-0.55 0.41,-0.55 -0.03,0 -0.37,0.1 -0.41,0.11z"/>
  </g>
 </g>
</svg>
