<?xml version="1.0" encoding="UTF-8"?>
<!DOCTYPE svg PUBLIC "-//W3C//DTD SVG 1.1//EN" "http://www.w3.org/Graphics/SVG/1.1/DTD/svg11.dtd">
<!-- Creator: CorelDRAW -->
<svg xmlns="http://www.w3.org/2000/svg" xml:space="preserve" width="21.1667mm" height="25.4mm" version="1.1" style="shape-rendering:geometricPrecision; text-rendering:geometricPrecision; image-rendering:optimizeQuality; fill-rule:evenodd; clip-rule:evenodd"
viewBox="0 0 27.58 33.1"
 xmlns:xlink="http://www.w3.org/1999/xlink"
 xmlns:xodm="http://www.corel.com/coreldraw/odm/2003">
 <defs>
  <style type="text/css">
   <![CDATA[
    .fil1 {fill:black}
    .fil2 {fill:red}
    .fil0 {fill:white}
   ]]>
  </style>
 </defs>
 <g id="Camada_x0020_1">
  <metadata id="CorelCorpID_0Corel-Layer"/>
  <g id="_2482283227088">
   <rect class="fil0" x="-0" width="27.58" height="33.1"/>
   <path class="fil1" d="M1.11 16.44l0 6.09c0.26,0.04 0.28,0.07 0.57,0 0.2,-0.54 -0.1,-4.66 0.07,-5.76 0.49,0 2.01,0.09 2.34,-0.06 0.32,-0.44 -0.18,-10.7 0.14,-12.29 8.63,0 5.37,0.42 6.77,-1.41 0.58,-0.75 0.86,-0.7 1.17,-0.25 1.15,-0.6 2.38,-1.38 4.25,-1.38l-15.23 0 0 13.17c0,0.7 -0.07,1.22 -0.07,1.88zm18.99 13.39l0.57 -5.15c1.81,0 1.72,-0.56 1.91,1.94l0.43 3.21 -0.99 0c-0.67,0 0.4,-0.95 -0.69,-0.94l-0.09 0.94 -1.13 0zm-7.94 -5.15l0.28 0 0 -0.28 -0.14 0c-0.07,0.21 -0.07,0.07 -0.14,0.28zm5.03 0c0.49,-0.01 0.35,-0.1 0.35,-0.5l-0.35 0.5zm-4.16 2.16l0.27 -1.16c-0.12,-0.05 -0.23,-0.06 -0.35,-0.11l0.09 1.27zm0.48 -2.27c0,0.21 0.8,0.2 0.99,-0.39l-0.85 0c-0.06,0.1 -0.14,0.25 -0.14,0.39zm-4.25 -1.33l-0.59 0.39c0.69,0.16 1.33,0.11 1.2,-0.59 -0.59,0.21 -0.26,0.18 -0.61,0.2 0.03,-0.04 0.73,-0.59 0.76,-0.23 0.07,0.73 -1.56,2.26 -0.27,2.39 0.27,-0 0.61,-0.79 0.87,-1.2 0.31,-0.51 0.57,-0.72 0.95,-1.16 0.43,0.43 -1.37,1.92 -0.45,2.34 0.52,0.24 0.85,-1.2 1.81,-1.7 -0,0 -0.89,1.52 0.18,1.8 0.5,0.13 1.76,-0.5 1.64,-1.18 -0.55,0.22 -0.54,0.69 -1.25,0.7 -0.5,-0.78 0.69,-1.76 0.77,-2.06 0,-0 -0.07,-1.05 -0.89,-0.31l-1.22 1.04c0.04,-0.15 0.72,-1.28 -0.22,-1.33 -0.49,-0.02 -1.04,0.73 -1.34,0.98 0,-1.35 -0.75,-1.25 -1.91,-0.65l-0.07 -0.22c-0.67,0.27 -0.72,0.62 -0.42,1.11 0.66,-0.01 0.57,-0.27 1.06,-0.33zm0 2.32c0,0.37 -0.07,0.86 0.09,1.14 0.45,-0.04 0.33,-0.16 0.33,-0.98 0,-0.21 -0.25,-0.21 -0.42,-0.17zm12.04 2.05l0 0.39 0.43 0c0,-0.87 -0.14,-1.26 -0.14,-1.94l-0.28 1.55zm-17.93 0.77l0 -2.38c0,-0.37 -0.44,-0.89 -0.43,-0 0.01,0.65 -0.21,3.14 0.21,2.94 0.19,-0.09 0.22,-0.37 0.22,-0.56zm14.88 -2.71l0.07 3.32c0.24,-0.05 0.35,-0.15 0.35,-0.39l0 -2.82c0,-0.17 -0.17,-0.24 -0.35,-0.28 -0.05,0.07 -0.07,0.06 -0.07,0.17zm-12.19 0.94l0.07 2.44 0.28 0c0.13,-0.21 0.17,-2.78 0.08,-3.33 -0.04,-0.26 0,-0.21 -0.23,-0.33l-0.21 1.22zm-0.99 4.43l17.43 -0.01 0 -0.37c-0.46,0.04 -0.03,0.11 -0.43,0.11l-16.58 0c-0.28,0 -0.01,-0.08 -0.42,-0.11l0 0.39zm10.42 -6.48l0.99 -0.39c-0.03,0.27 -0.11,0.19 -0.28,0.39 -0.67,-0.11 -0.56,0.3 -0.14,0.02 -0.07,0.22 -0.19,0.31 -0.57,0.33l0 -0.35zm2.83 -0.72c0.01,-0.24 0.11,-0.4 0.28,-0.55l-0.28 0.55zm-2.91 1.49c0.79,-0.01 0.31,-0.1 1.06,-0.5 0,1.19 1.34,0.06 1.35,0.06 0.65,0.96 1.69,0.18 1.7,-0.22 -0.36,0.02 -1.12,0.64 -1.24,-0.08 -0.05,-0.27 1.26,-1.18 0.6,-2.02 -1.34,0.24 -0.96,2.07 -1.52,2.3 -1.06,0.43 0.38,-0.97 -0.56,-1.18 -0.53,-0.12 -1.78,0.43 -1.88,0.83 -0.11,0.44 0.39,0.53 0.49,0.82 -0.36,-0.07 -0.14,-0.15 -0.5,-0.22l0 4.1c0.01,0.78 0.01,0.61 -0.99,0.61l0 -3.04c-0.29,0.17 -0.22,0.86 -0.29,1.49l-0.21 1.55c-1.03,0 -0.54,0.17 -0.82,-1.3l-0.31 -1.69c0,3.53 0.3,2.99 -0.99,2.99l0 -4.21c-1.13,-0.59 -0.41,-1.02 -0.28,-1.44 -0.36,0.02 -0.25,0.05 -0.46,0.36 -0.43,0.65 0.23,0.07 0.18,1.85 -0.01,0.36 -0.06,0.63 -0.5,0.66l0 0.17c0.74,0.15 0.5,1.65 0.5,2.6 -1.31,0 -1.09,0.33 -1.06,-1.72 0.01,-0.38 0.1,-0.58 -0.36,-0.61 -0.21,0.33 -0.07,1.81 -0.07,2.32l-1.06 0 0 -5.15 0.92 0c0.11,-0.17 0.26,-0.29 0.28,-0.5l-8.08 0 0 5.42c0.08,0.27 0.07,0.38 0.07,0.72l24.52 0.01c0.38,0 0.37,0.05 0.42,-0.17l-0.06 -5.94c-0.14,-0.11 -7.07,-0.04 -7.6,-0.04 -0.3,0.44 -0.37,0.42 -0.02,0.52 0.55,0.15 0.4,-0.18 0.94,-0.18l0.13 0.84c0.14,0.45 0.08,2.14 0.08,2.65 0,2.05 -0.11,1.83 -2.69,1.83l0 -4.26c-0.77,0 -0.57,0.07 -0.57,0.72l0 3.54c-1.42,0 -1.13,0.32 -1.13,-1.77 0,-0.9 -0.01,-1.81 0,-2.71zm-10.91 6.25c0.06,0.09 0.06,0.1 0.14,0.17l18.27 -0.07c0.54,-0.09 0.18,-1.51 -0.23,-0.96 -0.13,0.17 0.07,0.28 -0.11,0.42 -0.17,0.14 -16.91,0.19 -17.64,-0l0 -0.5 -0.43 0 0 0.94zm7.16 -14.06c0,1.4 -0.1,2.83 0.06,4.21 0.02,0.14 0.01,0.3 0.01,0.44 0.49,0.18 0.85,-0.06 0.85,0.89 0,-0 0.94,-0.46 0.9,-0.92l0.02 -4.34c0,-0.56 0.13,-0.44 -1.63,-0.44 -0.16,0 -0.21,0.04 -0.21,0.17zm2.2 1.11l0.99 0 0 4.7c0,0.31 1.45,0.22 1.77,0.22 0.17,-0.57 0.07,-4.07 0.07,-4.93 1.25,0 0.99,0.24 0.99,-1.27l-3.83 0 0 1.27zm4.18 4.32c0.33,-0.17 0.46,-0.57 0.87,-0.46 0.68,0.22 -0.02,1.07 0.47,1.07 2.1,0 1.7,0.31 1.7,-1.27 -1.58,0 -1.28,0.25 -1.28,-1.16 0,-0.24 0.17,-0.17 1.06,-0.17l0 -1.22c-1.32,0 -1.06,0.22 -1.06,-1.11l1.13 0c0.5,-1.67 -0.18,-1.27 -2.91,-1.27l0 5.59zm-11.05 -3.76c0,1.16 -0.3,3.51 0.69,4.12 0.66,0.4 -0.37,-0.96 1.15,-0.96l0 -3.71c0,-0.23 0.07,-0.31 0.35,-0.33 0.23,0.37 -0.01,3.16 0.07,3.71 0.1,0.69 0.54,-0.49 1.42,0.61 0.15,0.2 -0.02,0.12 0.22,0.22 0.35,-0.56 0.26,-4.14 0.09,-4.55 -0.63,-1.53 -3.99,-1.62 -3.99,0.9zm14.38 -0.17c0,1.23 0.88,1.5 1.75,2.06 0.81,0.53 0.8,1.48 0.23,1.48 -0.57,0 0.14,-1.27 -0.42,-1.27 -1.79,0 -1.49,-0.21 -1.49,0.89 0,1.52 2.25,1.89 3.46,1.1 0.7,-0.45 0.53,-1.5 0.42,-2.14 -0.13,-0.75 -0.97,-1.13 -1.73,-1.58 -0.8,-0.48 -0.51,-0.84 -0.38,-1.25l0.28 0c0.32,1.08 -0.64,0.94 1.77,0.94 0,-1.08 0.1,-2.1 -2.26,-2 -1.26,0.06 -1.63,0.75 -1.63,1.78zm-18.85 4.5c0.24,0.08 0.97,0.04 1.28,0.04 0.39,0 0.21,-2.11 0.21,-2.49 0.17,0.19 0.56,1.64 0.68,1.96 0.22,0.63 -0.06,0.53 1.52,0.53 0.16,0 0.21,-0.04 0.21,-0.17l0 -6.03 -1.49 0c-0.01,0.8 0.03,1.61 -0.04,2.41 -0.11,-0.08 -0.79,-2.13 -0.88,-2.41l-1.49 0c-0.06,0.37 -0.08,5.98 0,6.16zm2.41 2.64c0,-2.27 2.69,-1.8 2.69,-0.44 0,1.17 0.27,3.36 -0.44,3.92 -0.56,0.44 -2.25,0.58 -2.25,-1.37l0 -2.1zm-3.19 -1.33c0,-0.37 2.14,-0.22 2.5,0.21 0.45,0.52 0.34,4.02 0.09,4.41 -0.31,0.5 -1.48,0.36 -2.37,0.36 -0.36,0 -0.21,-0.83 -0.21,-1.44l0 -3.54zm21.4 1.05c0,-1.8 2.05,-1.32 2.38,-0.92 0.1,0.12 0.54,1.25 0.03,1.25 -0.91,0 -0.86,0.18 -0.92,-0.77 -0.44,0.01 -0.42,0.15 -0.42,0.44 0,0.8 1.63,1.02 1.63,2.16 0,0.49 0.16,1.88 -1.2,1.88 -1.58,0 -1.42,-1.23 -1.42,-1.94 1.31,0 0.99,-0.14 1.05,0.73 0.03,0.5 0.51,0.56 0.51,-0.34 0,-0.56 -1.16,-0.92 -1.48,-1.61l-0.15 -0.88zm3.33 -24.52l-5.6 -0.06c0.03,0.33 0.49,0.31 1.18,1.29 0.76,1.09 0.39,1.12 0.59,1.81l0.78 0c0,0.5 0.07,0.91 0.07,1.44 -0,1.51 -0.07,10.4 0,10.46l1.65 0.04c0.35,0.09 0.09,0.62 0.25,0.86 0.1,0.15 0.32,0.18 0.5,0.66 0.22,0.6 0.15,1.26 0.15,1.98 -1.49,0 0.16,-0.28 0.14,2.27 -0,0.25 -0.04,0.28 0.1,0.42 0.15,-0.06 0.13,-0.01 0.18,-0.15l-0.06 -10.45 0.07 -5.37 0 -5.2zm-9.49 0l1.84 0.33c0.11,-0.13 0.19,-0.18 0.21,-0.39l-2.05 0.06zm0.92 11.12c1.49,0.25 3.09,-1.76 3.12,-2.77l-0.14 0c-0.04,0.4 -1.26,1.87 -1.96,2.29 -0.51,0.3 -0.8,0.23 -1.01,0.48zm-2.34 4.26l4.39 0c0.34,0 0.42,-0.85 0.07,-1.05 0,1.1 -0.73,0.87 -1.62,0.6 -0.76,-0.23 -0.25,-0.53 -0.98,-1.22 -1.15,-1.08 -0.12,0.57 -0.68,1.06 -0.07,-1.19 0.08,-1.58 -0.76,-2.71 -0.16,-0.21 -0.39,-0.54 -0.71,-0.61 0.26,0.88 0.62,1.7 0.49,2.6 -0.09,0.61 -0.69,1.33 -0.2,1.33zm-8.93 0l0.57 0 0 0.28c0.5,-0.06 0.49,-0.39 1.84,-0.39 1.35,0 1.18,0.27 1.84,0.39l0 -0.28c4.1,0 3.9,0.48 3.9,-1.38 0.52,0.59 -0.51,1.51 0.5,1.33 0,-0.86 0.61,-1.38 -0.16,-2.92 -0.35,-0.71 -0.6,-1.62 -2.02,-1.85 -1.15,-0.19 -2.19,-0.01 -3.16,0.54 -1.48,0.84 -4.19,4.29 -3.3,4.29zm8.15 -7.42c-0.3,-0.22 -0.26,-0.78 -0.16,-1.09 0.01,0.73 -0.08,0.58 0.23,0.85 -0.05,0.1 -0.06,0.1 -0.07,0.24zm-2.34 -0.61c0,-0.26 0.01,-0.25 0.07,-0.44l0.07 0.22 0.21 -0.13 0.14 0.46c-0.3,-0.02 -0.23,-0.06 -0.5,-0.11zm2.76 1.27c0,-0.9 -0.28,-1.71 0.07,-2.49 1.34,0.7 1.04,0.78 0.26,2.14l-0.33 0.35zm3.12 -2.32c0.91,0.95 -0.84,1.16 -1.13,0.31 -0.09,-0.27 -0.03,-0.21 0.14,-0.26l0 0.28c0.1,-0.05 0.12,-0.06 0.23,-0.11l-0.02 0.28c0.38,-0.04 0.1,0.03 0.5,0.06 0,-0.19 -0.02,-0.22 0.07,-0.33 0.07,0.23 0.01,0.33 0.22,0.44l-0.01 -0.66zm0.71 0.66c-0.37,0 -0.27,0.22 -0.4,-0.92 0.17,0.19 0.4,0.63 0.4,0.92zm-7.86 0.72c-0.15,-0.18 -0.35,-1.62 -0.35,-1.79l0.07 0.3 0.26 -0.04c0.15,1.05 -0.18,1.09 1.33,2.06 0.01,-0.01 0.03,0.02 0.04,0.03 -0.92,0 -0.75,-0.61 -1.28,-0.72 -0.06,0.08 -0.03,0.06 -0.07,0.17zm8.08 -0.95c-0.19,-0.23 -0.35,-0.61 -0.43,-0.88 0.08,0.04 0.97,0.64 0.43,0.88zm-6.59 -0.6c-0.77,0.14 -0.36,0.86 -0.14,0.22l-0.02 0.37c-0.09,0.17 -0.1,0.21 -0.26,0.3 -0.19,-0.1 -0.25,-0.21 -0.36,-0.38 -0.41,-0.62 0.13,-0.66 0.2,-0.69 0.46,-0.2 0.16,-0.22 0.16,-0.22 -0.23,-0 -0.32,0.19 -0.61,0.09 0.25,-0.28 0.57,-0.03 0.61,-0.46l0.14 0c0.02,0.99 -0.38,0.46 -0.57,1 0.45,-0.03 0.42,-0.25 0.85,-0.33l0.07 -0.94c1.24,0 1.42,0.71 1.01,1.07l-1.08 -0.01zm3.97 -0.77c0,-0.73 1.35,-1.05 1.98,-1.05 0.24,0.81 -0.2,1.6 -0.71,1.6 -0.33,0 -1.28,-0.17 -1.28,-0.55zm-2.57 -0.3l-0.64 -0.48c0.26,0.11 0.47,0.3 0.64,0.48zm8.24 -0.37l0 0zm-9.21 -0.44c0.18,0.1 0.12,0.02 0.21,0.22 -0.19,-0.1 -0.15,-0.03 -0.21,-0.22zm9.42 -0.06c-0.28,-0.05 -0.32,-0.01 -0.43,-0.17 0.13,-0.14 0.21,-0.11 0.57,-0.11 -0.02,0.72 0.02,0.37 0.07,0.83l-0.07 7.19 -0.07 -6.86c0,-0.39 -0.07,-0.53 -0.07,-0.89zm-1.7 -0.16c0.45,0.87 0.29,3.43 -1.04,4.16 -1.77,0.97 -1.81,-0.2 -1.51,-0.62 0.29,-0.41 1.03,-0.29 2.04,-1.34 0.61,-0.63 -0.12,-1.74 -0.12,-2.75 0.35,0.07 0.51,0.31 0.63,0.56zm-0.85 0.11c-0.2,-0.07 -0.4,0.05 -0.71,0.11 0.12,-0.13 0.31,-0.19 0.5,-0.28 -0.02,-0.14 -0.33,-0.35 0.17,-0.44 0.22,0.44 0.88,2.67 -0.24,2.88 -0.23,-0.12 -0.63,-0.69 -0.71,-0.94 0.64,0.34 0.42,0.47 0.85,0.5 -0.1,-0.32 -0.29,-0.32 -0.5,-0.55 0.36,0.05 0.41,0.26 0.78,0.33 -0.05,-0.44 -0.64,-0.38 -0.85,-0.72 0.34,0 0.62,0.03 0.85,-0.06 -0.18,-0.2 -0.4,-0.18 -1.06,-0.22 0.16,-0.54 0.77,-0.17 0.92,-0.61zm-7.72 -0.28c-0.44,-0.03 0,-0.02 -0.57,-0.2l-0.45 0.42 -0.12 -1.37c0.07,0.09 0.11,0.7 0.14,0.88 0.76,0 0.6,-0.19 0.99,0.28zm7.01 -0.22c0.03,-0.26 0.16,-0.42 0.5,-0.44 -0.14,0.21 -0.25,0.31 -0.5,0.44zm-6.16 0.61c-0.36,-0.21 -0.88,-1.76 -1.91,-1.83 0.12,-0.26 0.15,-0.42 0.5,-0.5 0.12,0.2 -0.03,0.3 0.58,0.87 0.3,0.27 0.79,1.3 0.83,1.45zm2.9 0.79c0.07,-0.28 0.43,-0.66 0.65,-0.84 1.13,-0.88 0.99,-1.85 2.04,-2.39 -0.08,0.22 -0.48,0.53 -0.68,0.8 -0.64,0.83 -0.45,1.08 -1.28,1.66 -0.41,0.29 -0.4,0.55 -0.73,0.77zm-3.76 -2.73c0.11,-1.03 5.25,-2.32 6.66,-1.16 -0.17,0.57 -0.7,0.42 -1.53,1.79l-1.58 1.75c0.02,-0.21 0.06,-0.14 0.07,-0.39l-0.35 0.44c0,-0.23 0.03,-0.22 -0.07,-0.39 -0.39,0.12 -0.41,0.67 -0.64,-0.22l-0.21 0 0 0.39c-0.32,-0.18 -0.21,-2.09 -0.21,-2.66 0,-0.17 0.59,-0.55 0.14,-0.55 -1.05,0 -1.76,0.73 -2.27,1zm-1.06 5.37c0.23,0.13 0.11,0.23 0.23,0.49 0.47,1.02 1.99,1.39 3.03,1.95 0.25,0.14 0.24,0.22 0.64,0.22 0,-0.57 -0.5,-0.69 -0.5,-1.44 0.35,0.18 0.34,0.47 0.78,0.5 0.19,-0.31 0.55,-1.83 1.13,-2.16 0.55,0.11 1.1,1.24 1.86,1.54 1.49,0.57 4.01,-2.05 2.34,-5.53 -0.15,-0.31 -0.05,-0.36 -0.02,-0.65 -0.63,-0.33 -0.43,-0.44 -1.28,-0.28 0,-0.49 0.24,-1.03 0.14,-1.38l-0.28 0.28c0.03,-0.29 0.21,-0.37 0.21,-0.77 2.22,0 3.1,2.68 2.27,2.93l-0.57 -0.66 0.68 1.68 0.24 2.08 -0.64 2.16c-0.37,0.57 -0.27,1.5 -1.08,2.59 -0.19,0.26 -0.81,0.63 -0.84,0.9 0.53,-0.01 0.48,-0.25 0.92,-0.33 0,0.71 0.08,2.16 -0.01,2.81 -0.05,0.33 -0.21,0.62 0.08,0.78 0.35,-0.2 0.03,-2.6 0.17,-3.24l0.71 -2.44c0.33,-0.51 0.33,0.18 0.64,-1.88 0.05,-0.33 -0.06,-0.39 0.26,-0.41l0.02 4.05 -0.02 3.48c-0,0.31 -0.07,0.32 0.22,0.38 0,-0.74 0.07,-1.34 0.07,-2.12l0.07 0c0,0.57 -0.04,1.24 -0.01,1.8 0.02,0.37 0.46,0.4 0.51,0.05 0.08,-0.53 -0.1,-2.46 -0.07,-2.71l0.06 -8.92 -0.99 0c0,-0.82 0.59,-0.92 -0.88,-2.58 -0.36,-0.41 -1.72,-1.2 -2.01,-0.4 -0.36,0.97 -1.71,-0.58 -4.49,0.2 -2.14,0.59 -2.23,1.22 -2.81,1.34 -0.02,-0.23 -0.08,-0.18 -0.14,-0.39 -1.25,0.08 -0.79,1.7 -1.09,1.79 -1.08,0.32 -4.6,-0.19 -6.13,0.09 0,0.8 -0.17,2.06 -0.09,2.84 0.11,0.99 -0.15,8.83 0.09,9.02 0.31,0.25 0.36,-0.14 0.36,-0.34l-0.03 -8.14 0.02 -2.94c0.58,-0.04 5.72,-0.27 6.02,0.06 -0.24,0.35 -4.55,0.07 -5.6,0.16 -0.54,0.04 -0.2,0.6 -0.29,1.27l0 9.53c-0.01,0.34 -0.09,0.36 0.22,0.38l0.07 -10.9 5.53 0c0,0.9 -0.54,0.66 -0.16,2.45 0.25,1.2 0.32,1.1 -0.45,2.33 -1.44,2.29 -2.52,2.68 -4.33,5.48 -0.14,0.22 -0.38,0.47 -0.24,0.7 0.37,-0.08 0.64,-0.92 1.03,-1.46 0.33,-0.46 2.33,-2.79 2.65,-2.96 -0.05,0.18 -0.07,0.09 0,0.22 0.9,-0.28 1.51,-1.8 4.7,-0.52 0.28,0.11 0.36,0.22 0.68,0.24 -0.02,-0.86 -1.45,-0.82 -2.57,-1.7 -0.25,-0.2 -0.49,-0.55 -0.83,-0.62l0 0.55c-0.17,-0.07 -0.24,-0.13 -0.42,-0.17 -0.32,0.48 -0.6,1.27 -1.13,1.55 0.26,-0.88 1.35,-1.3 1.35,-2.82z"/>
   <path class="fil2" d="M12.66 7.42l0 0.11c0.08,0.19 -0.02,0.05 0.25,0.09 0.44,0.05 0.59,0.13 0.83,-0.07 0.4,-0.35 0.18,-0.64 -0.13,-0.87 -0.27,-0.2 -0.39,-0.2 -0.88,-0.2 -0.08,0.26 -0.14,0.13 -0.1,0.41 0.02,0.2 0.03,0.32 0.03,0.53zm3.97 -0.66c0,0.26 0.18,0.29 0.49,0.39 0.29,0.1 0.37,0.16 0.78,0.16 0.48,0 0.36,-0.22 0.55,-0.46 0.27,-0.34 0.23,-0.01 0.23,-0.87 0,-0.15 -0.03,-0.15 -0.07,-0.28 -0.75,0 -0.32,0 -1.27,0.28 -0.37,0.11 -0.72,0.4 -0.72,0.77z"/>
  </g>
 </g>
</svg>
