<?xml version="1.0" encoding="UTF-8"?>
<!DOCTYPE svg PUBLIC "-//W3C//DTD SVG 1.1//EN" "http://www.w3.org/Graphics/SVG/1.1/DTD/svg11.dtd">
<!-- Creator: CorelDRAW -->
<svg xmlns="http://www.w3.org/2000/svg" xml:space="preserve" width="66.1069mm" height="27.7982mm" version="1.1" style="shape-rendering:geometricPrecision; text-rendering:geometricPrecision; image-rendering:optimizeQuality; fill-rule:evenodd; clip-rule:evenodd"
viewBox="0 0 165.33 69.52"
 xmlns:xlink="http://www.w3.org/1999/xlink"
 xmlns:xodm="http://www.corel.com/coreldraw/odm/2003">
 <defs>
  <style type="text/css">
   <![CDATA[
    .fil0 {fill:#0F0F0F}
    .fil1 {fill:#62D2FE}
    .fil3 {fill:#FCFEFE}
    .fil2 {fill:white}
   ]]>
  </style>
 </defs>
 <g id="Camada_x0020_1">
  <metadata id="CorelCorpID_0Corel-Layer"/>
  <g id="_2086796042608">
   <path class="fil0" d="M95.99 57.69c0.36,0.22 0.7,0.43 1.02,0.6 0.83,0.47 1.47,0.76 1.93,0.88 0.17,0.05 0.32,0.07 0.44,0.07 0,0.08 0.01,0.15 0.01,0.24 0,1.02 -1.21,1.55 -1.34,2.49 -0.19,1.33 1.29,0.67 0.52,2.49 -2.28,5.4 3.82,1.79 4.19,1.82 0.71,0.07 0.8,0.56 2.17,0.53 1.18,-0.03 1.47,-0.48 2.58,-0.46 4.11,3.83 2.83,-1.27 8.96,0.37 1.58,0.42 2.22,-0.25 3.65,-0.32 0.86,0.79 1.39,1.92 3.45,1.15 1.42,-0.53 1.29,-1.45 4.02,-1.18 1.33,0.13 1.87,1.81 3.77,0.22 0.82,-0.69 1.57,-2.2 2.77,-2.5 1.07,1.35 0.58,3.33 3.02,3.24 1.15,-0.04 1.47,-0.65 2.6,-0.75 1.42,-0.13 1.81,0.02 2.66,-0.74 0.78,-0.69 2.1,-2.9 3.12,-3.14 2.13,-0.5 3.93,0.06 4.89,-1.82 -0.91,-2.03 -3,0.12 -2.39,-5.22 0.18,-1.62 0.58,-5.25 1.12,-6.66 4.72,-0.15 2.72,0.43 3.43,6.42 0.26,2.21 0.87,3.88 3.87,2.77 1.12,-0.41 3.44,-2.49 4.11,-3.14 1.1,-1.06 3.23,-2.66 3.24,-4.13 -2.35,-1.28 -3.39,0.1 -5.54,0.19l0.23 -4.14c0.7,-1.91 11.62,1.68 4.4,-6.6 -0.84,-0.97 -1.28,-0.88 -1.23,-2.59 0.2,-6.53 -2.56,-5.08 -4.21,-7.51 2.11,-2.73 3.85,-3.62 4.37,-9.18 0.37,-3.95 -1.1,-7.51 -2.97,-10.27 -3.31,-4.88 -7.52,-3.41 -9.95,-4.34 -4.88,-1.86 -7.88,1.1 -9.39,3.93 -0.83,-0.21 -2.36,-1.36 -3.24,-1.88 -1.14,-0.67 -2.16,-1.18 -3.4,-1.72 -3.89,-1.69 -8.86,-2.49 -13.47,-2.31 -4.96,0.19 -2.56,1.26 -5.9,-0.93 -1.29,-0.85 -3.58,-2.63 -5.22,-2.67 -0.31,1.98 -1.94,13.91 -2.42,14.73 -0.59,-0.56 -3.12,-6.94 -3.7,-8.28 -1.41,-3.26 -3.59,-5.12 -7.96,-4.84 -2.39,0.15 -3.38,0.85 -5.19,1.18 -1.5,0.28 -4.82,-0.11 -6.5,-0.19 -4.32,-0.21 -10.86,-0.01 -13.37,-0.17 -1.47,-2.32 -1.76,-3.42 -6.06,-3.24 -1.86,1.73 -4.39,5.86 -5.79,8.3 -0.81,1.4 -4.32,8.71 -4.9,9.26 -1.21,-1.61 -2.37,-11.31 -5.7,-14.26 -0.74,-0.65 -2.37,-1.39 -3.89,-1.5 -1.74,-0.13 -3.97,0.38 -5.32,0.19 -0.7,-0.1 -1.34,-0.41 -2.21,-0.52 -0.87,-0.11 -1.76,-0.06 -2.57,-0.25 -1.54,-0.37 -2.33,-1.23 -4.23,-1.33 -1.14,2.54 -3.37,5.93 -4.9,8.51 -0.89,1.51 -4.21,7.68 -5.07,8.41 -1.9,-5.65 -2.47,-16.09 -11.97,-14.3 -2.3,0.43 -5.41,1.69 -6.51,2.92 0.81,2.33 3.44,3.56 5.93,13.55 0.64,2.57 1.22,5.12 1.85,7.72 0.78,3.22 -1.85,6.02 -1.05,7.97 0.86,1.02 1.57,0.64 3.11,0.74l0.79 2.85c-2.65,0.03 -7.24,0.14 -7.71,2.25 0.62,1.21 1.41,0.84 2.65,1.27 0.12,5.26 -4.14,14.05 0.57,15.36 2.81,0.78 4.02,-0.67 6.06,-0.9 1.02,0.59 1.02,1.14 2.68,1.43 1.34,0.24 2.69,-0.11 4.1,-0.21l0.38 1.1c0.73,0.03 1.46,0.06 2.03,0.4 -0.29,0.67 -0.81,1.3 -1.21,2.07 -0.66,1.29 -3.5,5.43 -2.6,6.42 1.67,1.78 3.82,-1.62 4.66,-2.12 0.94,0.2 0.92,0.65 1.83,0.99 1.35,0.51 1.55,-0.17 2.73,0.05 1.89,0.36 2.81,0.81 4.51,-0.95 0.93,-0.96 1.4,-2.67 2.76,-3.07 2.03,-0.6 3.71,-1.79 4.28,-1.88 2.8,2.98 0.05,4.33 0.33,5.75 0.16,0.79 0.07,0.41 0.57,0.73 2.19,0.82 3.46,-2.16 4.94,-3.03 1.61,0.92 0.53,1.97 1.52,3.06 0.99,1.09 2.83,0.26 4.15,0.08 0.25,0.66 0.41,1.63 1.11,2.05 1.85,1.09 3.25,-0.95 4.9,-1.41 1.61,-0.44 1.03,-0.61 2.1,-1.38 1.23,0.04 1.37,0.65 2.61,0.2 1.16,-0.42 0.73,-0.92 2.19,-0.56 1.62,0.4 1.7,-0.2 3.07,0.37 0.99,0.42 1.6,0.69 2.8,0.09 1.32,-0.66 2.44,-1.98 3.1,-3.38 1.18,-2.48 -0.35,-2.89 -0.86,-4.42 1.12,-0.44 2.65,-0.68 3.92,-1.04 1.28,-0.36 2.67,-1.15 3.71,-1.37 0.75,0.68 0.5,0.8 1.36,1.37 0.73,0.49 1.26,0.57 1.97,0.97 -0.68,1.08 -3.16,0.91 -4.87,4.14 -0.51,0.96 -1.06,2.39 -0.35,3.38 0.78,1.08 2.58,0.53 3.98,0.45 0.39,0.75 0.49,0.99 1.11,1.78 0.98,0.07 1.54,-0.1 2.12,-0.47 0.96,-0.6 0.62,-0.49 2.09,-0.63 1.16,-0.11 1.2,-0.38 2.07,-0.61 0.93,-0.24 1.47,0.04 2.41,-0.34 1.11,-0.44 4.99,-4.68 4.15,-5.79 -0.65,-0.53 -1.54,-0.53 -2.54,-1.26 -0.65,-0.48 -2.02,-0.98 -2.34,-1.66 0.62,-0.26 3.15,-1.13 3.63,-1.02 0.78,0.18 1.56,1.05 2.66,1.06z"/>
   <path class="fil1" d="M119 30.03c-4.79,-0.26 -4.91,-4.27 -4.79,-8.26 0.13,-4.37 -1.26,-8.25 4.79,-7.9l0 16.16zm38.84 6.07c-0.13,0.05 -5.05,0.68 -5.32,-1.14 -0.44,-2.94 0.97,-3 3.79,-1.66 0.69,0.33 1.82,1.78 1.54,2.8zm0.98 1.29c0.47,-4.25 -2.55,-5.8 -7.24,-5.58 -0.13,5.04 -0.74,4.73 1.18,4.77 2.74,0.06 3.79,0.54 6.06,0.81zm-16.87 -4.07c0.5,0.52 1.03,0.72 1.52,1.18 0.27,0.26 0.4,0.47 0.58,0.72 0.47,0.64 0.21,0.42 0.79,0.78l0 -3.33c-0.94,0.01 -2.23,0.17 -2.89,0.65zm-74.96 32.07c-0.23,-1.69 0.88,-3.25 1.77,-3.39 1.15,-0.17 0.67,1.31 0.16,2.11 -0.49,0.77 -0.67,1.18 -1.93,1.28zm-16.29 -7.11c1.41,0.06 1.87,-0.62 1.42,-1.63l-1.18 -0.06c-0.28,0.59 -0.32,0.92 -0.23,1.69zm-20.17 3.7c0.34,1.32 -1.21,4.14 -2.26,3.21 -0.63,-0.57 0.6,-3.33 2.26,-3.21zm-12.1 5.23c1.6,-0.23 3.71,-3.6 5.84,-4.05 0.05,0.94 -0.08,1.88 0.26,2.62 1.77,0.07 1.35,-0.81 2.79,-1.44 0.11,3.17 2.42,1.34 3.35,0.41 0.93,-0.94 1.92,-2.61 1.45,-4.13 -2.74,-0.89 -3.64,1.58 -6.54,4.04 -0.17,-1.47 1.3,-2.68 1.21,-3.88 -2.07,-0.4 -4.35,2.8 -5.73,3.36 0.4,-1.17 2.67,-3.1 2.43,-4.14 -2,-0.17 -2.3,1.53 -3.08,2.95 -0.52,0.94 -1.92,3.29 -1.98,4.25zm86.15 -1.96c-0.26,-1.52 0.85,-3.43 2.38,-3.3 0.34,1.51 -0.89,3.55 -2.38,3.3zm-5.4 -3.02c1.11,0.08 0.73,-0.4 2,-1.64 0.23,0.57 -2.16,4.61 -2.12,5.97 1.94,0 3.15,-1.59 4.22,-2.32 0.32,0.38 0.47,3.48 3.62,0.59 2.93,-2.7 2.15,-7.17 -2.63,-2.48 -0.79,0.77 -2.55,2.39 -3.66,2.84 0.39,-1.55 2.3,-4.74 3.13,-6.36 0.77,-1.5 0.9,-1.6 1.98,-2.73 0.61,-0.64 1.87,-1.88 1.5,-3.09 -1.9,-0.25 -2.77,1.9 -4.5,4.15 -0.67,0.88 -3.44,4.38 -3.54,5.07zm-21.05 3.23c0.18,-1.68 2.24,-3.97 3.58,-4.06 0.17,1.47 -2.2,3.72 -3.58,4.06zm6.4 -9.57c-0.02,1 -1.28,3.6 -1.81,4.58 -1.28,0.2 -2.27,-0.89 -3.97,1.44 -0.72,0.98 -1.85,2.65 -1.13,4.02 2.43,0.61 3.9,-2.34 4.87,-3.78 0.66,0.68 -0.93,3.24 -0.23,5.37 1.12,0.03 1.52,-1.1 2.34,-1.82 0.53,0.43 0.14,0.49 0.86,0.78 1.26,0.5 2.36,-1.14 3.11,-1.62l0.39 0.94c2.02,-0.24 4.58,-4.04 4.77,-4.71 -1.08,0.04 -0.38,-0.35 -1.89,1.45 -0.54,0.64 -0.96,1.21 -1.63,1.88 -0.41,-0.6 0.22,-1.05 0.17,-1.66 -0.07,-0.9 0.1,-0.25 -0.26,-0.56 -1.66,-1.22 -1.65,3.21 -4.42,3.83 0.91,-4.49 5.38,-5.34 5.89,-5.92 -1.76,-1.7 -4.15,0.85 -4.95,1.76 -0.64,0.74 -1.1,1.35 -1.74,2.14l-1.32 1.68c-0.47,0.49 -0.17,0.25 -0.67,0.52 0.04,-1.87 2.6,-8.13 3.52,-10.08 0.27,-0.84 0.63,-1.08 0.32,-1.74 -1.39,-0.33 -1.48,0.89 -2.2,1.53zm42.05 8.9c0.25,-1.31 1.16,-2.42 1.04,-3.71 -2.88,0 -2.09,4.51 -4.96,5.13 -0.88,-1.35 1.68,-4.32 1.98,-5.64 -1.96,0.05 -1.67,0.52 -3.61,2.55 -0.65,0.68 -2.37,2.43 -3.91,2.2 0.06,-1.17 0.96,-2.34 1.58,-3 1.14,-1.21 1.43,-1.17 3.23,-1.63 -0.42,-1.73 -3.44,-0.44 -4.43,0.79 -0.87,1.08 -2.21,3.01 -3.33,3.35 -0.31,-1.5 0.98,-2.39 0.96,-3.67 -3.19,-0.55 -1.97,4.74 -5.41,5.08 0.12,-1.11 0.53,-2.08 0.96,-2.99 0.43,-0.9 1.35,-1.75 1.15,-2.66 -2.58,0 -3.85,4.76 -2.45,6.34 1.77,0.14 2.36,-1.12 3.24,-1.99 1,0.41 0.25,0.96 1.78,0.6 0.75,-0.17 0.99,-0.72 1.72,-0.99 0.57,1.1 0.44,2.24 2.55,1.21 1.23,-0.6 1.8,-1.38 2.87,-1.9 0.01,1.01 -0.16,2.09 0.15,2.93 2.36,0.55 2.58,-1.27 3.77,-1.96 0.57,0.71 0.41,1.22 1.91,0.59 1.43,-0.6 2.72,-3.16 4.19,-4.34l-2.15 5.23c1.52,0.03 1.72,-1.43 4.69,-3.34 0.04,0.04 0.06,0.06 0.07,0.13l0.54 0.92c0.46,0.29 1.02,0.16 1.7,0.13 -0.14,0.94 -0.66,1.37 0.01,2.24 1.38,0.65 2.35,-0.83 3.05,-1.45 0.97,0.4 0.56,2.05 3.1,-0.76 0.52,-0.58 0.68,-0.88 1.15,-1.43 0.74,-0.87 1.15,-0.71 1.04,-1.59 -1.07,0.05 -1.88,1.54 -2.73,2.55 -0.5,0.61 -0.48,0.68 -1.12,0.9 0.28,-0.99 0.87,-1.5 0.35,-2.62 -2.34,-0.44 -1.42,3.43 -4.4,4 0.23,-2.33 2.73,-4.89 5.81,-5.56 -0.82,-2.1 -3.21,-0.2 -3.94,0.43 -0.98,0.86 -1.76,2.4 -3.18,2.63 0.02,-0.75 0.35,-1.18 0.81,-1.65 0.66,-0.68 1.06,-0.55 1.25,-1.35 -2.22,-0.98 -4.22,2.37 -5.71,2.78 0.53,-0.71 2.89,-4.25 2.86,-4.98 -1.81,-0.59 -2.83,1.12 -4.21,2.76l-2.57 3.04c-0.58,0.69 -0.27,0.68 -1.41,0.7zm-75.12 -5.32c0.65,0.37 0.97,0.18 1.89,0.18 -0.26,2.09 -3.8,5.39 -5.29,5.95 0.3,-2.31 2.4,-3.64 2.65,-4.92 -2.97,-0.38 -2.37,2.42 -5.01,2.73 0.52,-1.75 2.1,-2.19 2.13,-3.02 -2.55,-0.36 -4.4,2.06 -5.66,3.08 0.46,-1.43 3.01,-4.13 2.82,-5.3 -1.92,-0.48 -4.36,2.49 -4.79,3.8 1.45,-0.14 0.87,-0.24 1.67,-0.86 -0.33,1.55 -1.97,3.54 -2.07,5.23 1.49,-0.02 2.91,-2.86 4.63,-3.34 0.89,1.67 0.13,1.28 2.51,1 -0.11,1.05 -0.67,1.48 -0.32,2.7 2.31,0.41 3.76,-2.23 5.34,-2.99 -0.24,1.57 -1.05,3.17 -0.46,4.84 2.4,0.52 3.18,-2.41 4.51,-3.15 -0.11,0.67 -0.35,0.93 0.09,1.48 0.84,-0.72 1.49,-1.86 2.23,-2.62 0.79,-0.81 1.54,-1.82 2.68,-2.14 -0.04,1.22 -1.03,2.26 -1.24,3.76 1.78,-0.47 1.7,-2.08 3.88,-2.44 -0.14,0.86 -0.37,1.09 -0.24,1.86 1.21,0.2 1.53,-0.48 2.5,-1l0.15 0.5c0.09,0.39 -0.05,0.28 0.16,0.7 0.21,0.42 0.36,0.54 1.08,0.53 1.91,-0.03 5.01,-4.33 3.21,-5.48 -1.97,-1.26 -3.64,2.55 -6.05,3.66 0.27,-1 0.96,-1.48 0.69,-2.41 -1.43,-0.07 -2.3,0.73 -3.14,1.25 0.22,-0.76 1.27,-1.63 0.59,-2.51 -1.13,-0.87 -2.33,0.54 -2.97,0.92 -0.01,-0.89 0.25,-0.7 -0.26,-1.41 -1.34,0.04 -1.12,0.75 -1.86,1.88 -1.02,1.56 -3.65,5.4 -5.27,5.96 0.03,-0.85 1.86,-7.73 2.99,-8.39 0.95,-0.44 5.95,-0.65 7.43,-0.77l5.71 -0.56c0.18,-0.04 0.52,-0.12 0.69,-0.2 0.73,-0.35 0.29,-0 0.59,-0.51 -1.12,-0.77 -5.06,0.18 -6.52,0.38 -2.19,0.3 -4.87,0.67 -7.14,0.74 0.45,-1.2 1.27,-1.54 1.77,-2.6 -0.59,-0.47 -0.34,-0.52 -0.96,-0.9 -1.76,0.28 -2.18,2.04 -2.68,3.1 -0.74,1.6 -1.92,0.34 -2.67,1.31zm40.23 -22.8c-0.4,-0.52 -0.39,-13.64 -0.32,-13.89 0.33,-1.18 3.14,-0.63 4.36,-0.34 0.78,2.29 -0.52,10.08 -2.78,13.65 -0.93,1.48 -1.25,0.59 -1.26,0.58zm63.51 -8.77c-1.71,1.25 -1.37,1.49 -2.87,1.64l-0.44 -0.51c-0.16,-0.22 -0.2,-0.34 -0.32,-0.55 -2.26,-3.91 -8.26,-0.11 -8.28,-3.5l13.35 0.12c0.37,0.96 -0.85,2.36 -1.44,2.79zm-42.14 3.13c0.29,2.39 1.26,4.45 0.35,6.75l-4.46 0.15c-0.68,-1.12 -1.25,-2.54 -1.92,-3.79 -0.72,-1.35 -1.34,-2.45 -2,-3.75 -0.65,-1.29 -3.78,-6.51 -3.55,-7.54 5.6,-0.96 4.1,4.39 6.24,6.13 0.78,-1.49 -0.15,-4.4 1.08,-5.49 1.19,-0.37 3.58,-0.08 4.46,0.34 0.23,2.24 0.12,3.55 1.47,5.03 1.04,1.14 2.73,1.94 5.07,1.77 0.28,-2.77 -0.87,-6.11 0.8,-6.49 0.58,-0.13 3.21,-0.36 3.5,0.69 0.32,1.16 -0.51,5.03 -0.17,6.79 4.6,-0 10.11,-2.14 13.24,-5.19 1.52,-1.48 1.33,-1.81 4.68,-1.48 0.1,2.31 -1.45,3.34 -1.74,4.21 -0.55,1.67 -0.22,1.56 -2.19,3.6 -4.13,4.3 -13.71,6.02 -18.92,4.15 -3.94,-1.42 -4.12,-4.8 -5.94,-5.88zm11.82 -0.22c-0.35,-1.49 0.37,-13.71 0.45,-16.32 4.83,-1.03 20.43,7.2 7.79,13.91 -1.62,0.86 -6.06,2.54 -8.24,2.41zm-91.65 -11.13l4.65 -0.02 -0.86 7.22c-0.98,0.16 -3.29,-0.41 -4.12,-0.87l0.32 -6.33zm32.88 18.12c-1.23,-3.2 -1.61,-3.28 0.76,-5.5 1.43,-1.33 0.79,-4.91 0.77,-7.11 -0.05,-5.44 -0.61,-4.78 3.2,-4.54 2.06,0.13 6.23,-0.09 7.67,0.9 -0.44,0.32 -2.6,0.78 -3.11,0.89 -0.91,0.2 -2.65,0.23 -3.2,0.73 -0.44,0.86 -0.59,6.07 -0.5,7.34 0.78,-0.2 1.28,-0.48 2.11,-0.72l6.15 -1.57c2.81,-0.6 6.27,-1.21 9.33,-1.21 2.23,0 1.8,0.77 0.56,2.33 -3.15,3.99 -9.84,3.53 -16.99,5.96l-6.75 2.51zm-17.39 -17.92c0.8,1.54 1.26,5.55 2.26,6.96 0.7,-0.34 3.85,-5.97 4.39,-6.73 1.12,-0.14 4.79,-0.56 4.89,0.64 0.03,0.3 0.03,0.16 -0.03,0.49l-1.02 3.15c-0.66,2.14 -3.15,11.84 -4.07,12.28 -0.85,0.11 -7,-0.62 -7.63,-0.92 -1.2,-0.58 -2.81,-11.24 -3.24,-13.03 -0.24,-1 -1.07,-2.63 -0.02,-2.99 0.78,-0.27 3.73,-0 4.49,0.15zm-38.52 0.71l4.85 -0.1c0.31,1.21 0.86,4.68 1.34,5.95l0.55 0.79c1.39,-2.33 2.71,-4.96 4.15,-7.28l3.96 0.2c0.39,0.06 0.21,-0.01 0.55,0.14 0.95,0.41 0.27,0.5 -0.34,2.47l-4.2 13.18c-0.52,1.07 -1.59,0.84 -3.01,0.82 -1.2,-0.02 -2.69,0.11 -3.74,-0.15 -2.47,-2.21 1.49,-6.04 1.04,-8.94 -0.37,-2.36 -2.85,-1.75 -3.86,-2.45 -0.6,-0.41 -1.05,-3.78 -1.29,-4.64zm139.33 -9.82c4.13,-2.5 5.23,10.67 1.76,12.91 -3.99,2.58 -5.57,-10.6 -1.76,-12.91zm-98.32 13.81c-0.64,-1.05 -1.74,-6.41 -2.12,-7.92 -0.9,-3.52 -1.92,-8.05 -3.93,-11.15 -2.02,-3.11 -5.77,-0.8 -8.54,-1.51 -2.73,-0.7 -2.25,-0.49 -5.03,-0.33 -0.5,-0.61 -0.43,-0.82 -1.39,-0.99 -1.82,1.27 -11.16,20.09 -13.08,21.96l-0.92 -3.35c-0.7,-3.5 -1.13,-7.24 -2.28,-10.57 -1.81,-5.25 -3.81,-8.28 -10.34,-4.85 0.19,1.01 1.76,3.27 2.33,4.51 0.74,1.59 1.35,3.34 1.86,5.08 0.5,1.69 2.33,10.02 2.81,10.78 1.5,0.15 2.94,-0.2 3.56,0.91 1.5,2.69 -3.59,6.38 -0.72,10.14 1.3,0.18 4.46,0.33 5.82,0.33 2.31,-0 2.73,-0.81 3.2,-2.52 1.27,-4.57 6.72,-21.96 9.16,-23.89 1.07,1.73 0.51,13.15 0.44,15.85 5.53,-0 4.25,1.76 5.71,2.08 0.21,-2.2 1.7,-15.75 2.25,-16.72l0.37 0.47c0.08,0.15 0.22,0.55 0.3,0.75 1.52,4.18 1.82,5.86 2.83,10.29 0.52,2.29 2.04,11.13 2.83,12.4 0.87,0.31 8.79,1.32 9.79,1.23 1.49,-4.65 2.98,-9.39 4.43,-14.25 0.69,-2.32 1.44,-4.67 2.36,-6.8 0.45,-1.06 1.02,-2.21 1.54,-3.13 0.4,-0.71 1.33,-2.54 2.09,-2.76 0.15,5.02 0.09,10.13 0.14,15.17 0.04,3.93 0.62,4.71 -1.22,6.69 -0.73,0.78 -1.59,1.25 -1.26,2.47 0.72,2.7 0.87,4.81 4.03,2.97 4.91,-2.87 12.15,-3.54 16.7,-4.8 4.41,-1.23 4.17,-2.32 5.61,-2.9l0.03 7.27c0.38,0.26 0.87,0.54 1.52,0.61 2.45,-1.71 3.7,-5.19 4.16,-8.5 0.3,-2.12 0.64,-9.59 1.44,-10.86 1.04,0.75 4.54,8.35 5.44,10.05 6.91,13.08 4.47,9.97 7.88,9.69 1.4,-0.11 1.48,0.35 2.56,0.55 1.22,-1.11 1.2,-2.28 1.25,-4.09 0.82,0.32 1.85,1.67 3.05,2.32 1.98,1.07 4.04,0.99 6.45,0.99 6.61,0 12.71,-2.3 15.98,-6.91 0.74,-1.05 0.6,-1.57 1.12,-2.48l1.35 -2.35c0.69,0.36 0.59,0.52 0.94,1.07 1.81,-0.17 3.02,-1.06 5.18,-0.21 2.35,0.93 1.44,1.88 2.75,3.32 7.16,-1.28 10.04,-12.44 4.49,-19.35 -0.64,-0.8 -1.73,-1.74 -2.87,-2.19 -2.34,-0.93 -2.68,0.1 -4.46,0.19 -1.28,-1.17 -3.14,-2.93 -5.36,-0.01 -0.64,0.84 -1.16,1.49 -1.6,2.45 -0.43,0.93 -0.46,2.48 -0.94,3.29 -1.49,-0.61 -7.67,-9.93 -23.06,-8.49 -1.31,0.12 -3.38,0.83 -4.29,0.16 -0.96,-0.72 -1.65,-2.06 -3.02,-2.22l-3.17 20.75c-0.46,-0.14 -0.47,-0.2 -0.92,-1.22 -0.21,-0.49 -0.46,-1.06 -0.7,-1.63l-4.32 -10.05c-0.7,-1.65 -2.04,-5.39 -3.01,-6.49 -1.44,-1.63 -5.63,-1.96 -7.9,-0.39 0.01,5.39 0.33,16.05 -0.04,20.88 -3.75,0.26 -6.02,0.23 -9.61,0.81 -2.9,0.46 -5.52,1.65 -8.26,2.12 -0.02,-1.06 0.12,-2.07 0.18,-3.13 0.2,-3.53 -0.23,-2.39 4.38,-3.62 1.47,-0.39 2.47,-0.76 3.78,-1.38 2.02,-0.96 4.63,-2.83 5.17,-5.07l-12.59 0.29c0.02,-5.83 -0.13,-4.35 5.27,-5.04 3.3,-0.42 6.3,-0.58 8.39,-2.4 0.71,-0.62 1.94,-1.96 1.99,-2.97 -4.7,-1.11 -16.86,-0.67 -22.32,-0.51 -0.52,-1.52 -0.47,-2.77 -2.1,-3.36 -2.82,1.56 -8.99,15.33 -11.56,19.72 -0.31,0.53 -0.58,0.98 -0.86,1.48 -0.94,1.66 -0.51,1.08 -1.12,1.24z"/>
   <path class="fil2" d="M108.95 37.94l4.46 -0.15c0.91,-2.3 -0.06,-4.36 -0.35,-6.75 1.82,1.08 2,4.47 5.94,5.88 5.2,1.87 14.78,0.15 18.92,-4.15 1.96,-2.04 1.63,-1.93 2.19,-3.6 0.29,-0.87 1.84,-1.9 1.74,-4.21 -3.35,-0.33 -3.16,-0 -4.68,1.48 -3.13,3.05 -8.64,5.18 -13.24,5.19 -0.34,-1.76 0.5,-5.63 0.17,-6.79 -0.29,-1.05 -2.92,-0.82 -3.5,-0.69 -1.67,0.39 -0.52,3.73 -0.8,6.49 -2.34,0.17 -4.03,-0.63 -5.07,-1.77 -1.35,-1.48 -1.23,-2.79 -1.47,-5.03 -0.88,-0.42 -3.27,-0.71 -4.46,-0.34 -1.23,1.09 -0.3,4 -1.08,5.49 -2.13,-1.74 -0.63,-7.09 -6.24,-6.13 -0.23,1.03 2.9,6.25 3.55,7.54 0.66,1.31 1.27,2.4 2,3.75 0.67,1.25 1.24,2.67 1.92,3.79zm48.9 -1.84c0.28,-1.02 -0.85,-2.47 -1.54,-2.8 -2.81,-1.34 -4.22,-1.28 -3.79,1.66 0.27,1.82 5.19,1.19 5.32,1.14zm-146.62 -8.73c-1.93,0.68 -2.21,1.59 -2.9,3.61 -0.5,1.48 -2.04,4.59 1.09,3.62 1.83,-0.57 2.28,-1.75 2.93,-3.58 0.47,-1.33 1.88,-4.7 -1.12,-3.64zm141.1 2.19c1.5,-0.15 1.16,-0.39 2.87,-1.64 0.59,-0.43 1.81,-1.83 1.44,-2.79l-13.35 -0.12c0.02,3.39 6.02,-0.41 8.28,3.5 0.12,0.21 0.16,0.33 0.32,0.55l0.44 0.51zm-60.64 7.12c0.01,0.01 0.33,0.9 1.26,-0.58 2.26,-3.57 3.56,-11.36 2.78,-13.65 -1.22,-0.3 -4.03,-0.84 -4.36,0.34 -0.07,0.25 -0.08,13.37 0.32,13.89zm-87.72 3.99l2.16 0.08c0.99,1.87 -0.55,7.96 -0.86,10.27 -0.2,1.57 -0.95,4.06 0.3,5.08 1.34,1.09 3.86,0.54 5.26,-0.28 -0.6,-1.74 -2.51,0.49 -1.56,-4.79 0.35,-1.94 0.72,-3.98 1.01,-6 0.25,-1.78 0.88,-4.72 -0.68,-5.62 -1.34,-0.78 -5.44,0.3 -5.64,1.26zm115.31 1.72c0.94,0.32 0.47,0 1.06,0.87 0.39,0.57 0.49,0.43 0.37,1.11l-1.76 -0.02 0.33 -1.96zm4.62 8.7c-3.59,0.01 -4.35,2.25 -5.52,2.19 -0.08,-1.32 0.07,-6.3 0.55,-7.25 1.94,-0.71 4.38,0.22 6.78,-1.12 0.12,-3.68 -10,-12.64 -10.96,2.8 -0.13,2.13 -0.11,3.97 -0.01,6.09 0.07,1.65 -0.11,4.56 2.43,3.77 1.34,-0.42 2,-1.47 2.92,-1.97 2.22,-1.21 0.16,-0.07 1.65,-1.61 0.87,-0.91 2,-1.74 2.18,-2.9zm-79.79 -6.74c-0.01,-0.8 0.09,-1.38 0.56,-1.93 0.65,0.4 2.62,2.61 -0.56,1.93zm-3.43 13.29c2.3,0.34 3.93,-1.52 4.9,-2.45 0.85,-0.82 3.2,-2.76 3.42,-4.11 -3.1,0.05 -4.01,1.42 -5.46,2.46 -0.2,-1.37 0.26,-4.1 0.32,-5.63 0.13,-3.35 -0.13,-1.51 4.87,-2.24 3.17,-0.46 2.17,-1.79 0.87,-3.46 -0.96,-1.23 -1.86,-2.65 -3.69,-3.11 -7.65,-1.91 -6.78,15.82 -5.23,18.54zm117.07 -13.2c-0.11,-1.01 -0.07,-1.53 0.42,-2.04 0.48,0.3 1.39,1.19 1.25,1.95l-1.67 0.09zm4.89 6.7c-3.13,-0.16 -4.08,1.53 -5.59,2.42l0.48 -7.6c2.6,-0.33 5.06,0.12 6.92,-1.04 -0.04,-1.37 -1.58,-3.14 -2.37,-4.06 -0.94,-1.09 -2.43,-2.33 -4.72,-1.71 -3.24,0.89 -3.7,5.26 -3.99,8.67 -0.15,1.79 -0.16,4.02 -0,5.79 0.16,1.71 -0.18,4.64 2.36,4 1.32,-0.33 6.75,-5.02 6.89,-6.47zm-78.15 2.55c0.1,-1.86 0.49,-3.93 0.73,-5.79 0.62,-4.89 0.09,-3.98 2.58,-3.94 0.17,0.98 -0.8,3.98 -1.08,5.14 -0.86,3.5 -0.46,4.15 -2.23,4.58zm13.45 0.92c0.56,0.51 1.2,1.08 2.07,1.25 0.45,-0.78 1.47,-11.13 1.46,-12.67 -2.38,0.48 -2.13,2.06 -2.56,4.94 -0.31,2.05 -0.95,4.57 -0.97,6.48zm-0.98 2.88c0.52,0.14 1.04,0.3 1.49,0.52 0.27,0.14 0.52,0.3 0.77,0.47 -0.28,-0.7 -0.89,-0.72 -1.5,-1.23 0.36,-0.63 1.5,-0.81 2.43,-0.95 -0.05,1.14 -0.28,1.84 0.33,2.64 0.83,-0.18 0.37,0.09 0.97,-0.66 3,-3.72 2.78,-3.4 3.23,-6.97 0.21,-1.7 0.31,-3.42 0.5,-5.05 0.21,-1.86 0.47,-2.39 2.42,-3.08 0.22,0.93 -0.27,4.32 -0.41,5.51 -0.56,4.96 -0.49,2.81 0.79,4.7 -0.54,1.76 -1.97,2.19 -1.53,4.56 0.95,0.22 6.08,-0.79 6.43,-1.92 -0.75,-0.25 -1.38,0.06 -2.41,0.06 0.15,-3.18 1.98,-14.66 1.46,-16.66 -2.64,-0.08 -4.3,2 -6.14,2.62 -0.05,-0.91 0.33,-1.82 -0.25,-2.35 -1.21,-1.01 -4.58,1.94 -5.6,2.03 -0.24,-1.57 -0.41,-3.14 -2.44,-3.06 -0.61,0.02 -1.8,0.31 -2.44,0.5 -0.19,0.06 -0.8,0.27 -0.95,0.35 -0.99,0.57 -0.37,0 -0.72,0.78l1.85 -0.01c1.42,2.24 -0.07,7.18 -0.56,9.67 -0.8,4.12 -1.69,6.2 1.42,6.96 1.2,0.29 0.59,-0.29 0.96,0.52l-0.09 0.04zm-12.64 -1.79c0.31,-0.8 0.48,-1.23 1.13,-1.57 0.17,-0.09 0.71,-0.29 1.01,-0.27 1.63,0.08 0.48,1.85 0.42,2.31 1.55,0.38 4.1,0.97 5.75,-0.55 -1.36,-1.76 -3.42,0.47 -2.14,-5.05 0.48,-2.08 1.03,-4.22 1.4,-6.29 1.01,-5.76 -1.48,-6.91 -6.68,-5.18 -1.61,0.53 -1.24,0.64 -1.42,1.04l3.12 -0.15c0.47,0.59 0.93,1.18 0.98,2.08 -1.54,0.11 -4.4,-0.44 -5.54,0.47 -0.73,0.58 -1.47,8.17 -1.66,9.5 -0.48,3.37 -2.21,7.2 3.64,3.67zm-55.6 -25.96c1.34,0.04 1.84,-0.25 2.9,-0.32 0.46,1.38 1.02,2.73 1.05,4.51 0.01,0.78 0.06,4.25 -0.71,4.81 -1.32,0.75 -4.02,-0.02 -4.74,1.45 1.42,0.53 3.07,0.07 4.71,0.12 0.12,3.35 -3.69,17.66 -2.45,19.72 0.28,0.29 0.39,0.18 1.02,0.15 2.39,-0.13 1.37,0.25 2.26,1.71 1.09,-0.05 2.21,-0.3 3.01,-0.79 -0.31,-0.99 -0.94,-0.55 -1.8,-1.47 -1.32,-1.41 -0.1,-6.7 0.18,-8.47 0.26,-1.68 1.29,-10.18 1.93,-10.89 1.45,-0.89 4.2,-0.16 5.19,-1.68l-0.4 -0.15c-1.35,-0.3 -2.3,0.23 -4.46,0.02 -0.5,-2.37 1.07,-5.67 -0.19,-8.75 -1.12,-2.72 -6.54,-1.52 -7.49,0.03zm113.67 -0.07c0.7,0.29 2.01,-0.04 2.81,-0.09 0.86,2.62 1.6,6.32 0.42,9.27 -1.77,0.18 -2,-0.22 -3.94,0.67 -0.9,0.41 -0.55,0.05 -0.77,0.72l4.42 0.23c0.35,2.03 -0.8,5.89 -1.43,7.8 -0.28,0.85 -0.09,1.98 -0.16,2.9 -0.2,2.77 -1.25,5.74 -0.86,8.22 0.24,1.58 0.31,1.64 1.97,1.37 0.37,0.46 0.25,0.7 0.47,1.13 1.51,0.07 3.38,-0.19 4.13,-1 -0.85,-0.69 -1.29,-0.48 -1.82,-1.24 -1.1,-2.21 1.19,-16.73 1.98,-19.59 1.25,-0.19 4.73,-0.23 5.25,-1.47 -0.93,-0.61 -3.53,-0.1 -4.98,-0.11 0.29,-4.67 2.32,-12.82 -5.93,-9.83 -0.83,0.3 -1.35,0.38 -1.54,1.01zm-16.55 10.54c0.06,0.04 0.15,0.01 0.19,0.09 0.26,0.47 2.1,-0.41 2.46,0.94 0.51,1.89 -0.72,7.25 -1.12,9.14 -0.3,1.39 -1,4.56 -0.32,5.69 0.97,1.6 4.75,1.22 5.85,0.16 -1.33,-2.18 -2.69,1.7 -1.34,-6.89 0.12,-0.79 0.82,-5.23 1.28,-5.78 0.54,-0.64 1.72,-0.54 1.98,-0.32 0.92,1.31 -1.43,11.95 -0.93,14.38 2,0.56 7.94,-1.01 8.31,-1.8 -0.98,-0.46 -2.79,0.26 -4.16,0.29 0.06,-0.85 1.99,-17.79 1.1,-16.42l-0.58 -0.1c-1.26,0.05 -4.16,2.04 -5.53,1.94 -0.94,-1.15 -0.25,-2.46 -2.66,-2.62 -1.45,-0.1 -3.83,0.37 -4.54,1.3zm-113.66 0c0.4,0.28 0.29,0.22 1.19,0.27 0.98,0.06 1.75,-0.59 1.62,2.78 -0.04,0.92 -0.17,1.83 -0.34,2.76 -0.97,5.24 -3.61,11.42 1.75,11.13 1.03,-0.06 2.25,-0.29 2.91,-0.92 -1.44,-1.91 -2.74,1.06 -1.21,-7.43 0.72,-4 0.15,-5.42 3.53,-6.25 0.14,1.07 -0.89,9.43 -1.13,11.62l-0.3 3.24c0.25,1.36 3.6,0.17 4.64,-0.1 1.1,-0.28 3.43,-0.62 3.64,-1.65l-3.92 0.53c-0.19,-1.81 0.48,-6.19 0.68,-8.27 0.2,-2.08 0.89,-6.42 0.66,-8.3 -2.27,-0.39 -4.78,1.72 -6.48,2.24 -0.83,-1.27 -0.19,-2.78 -2.56,-2.95 -1.29,-0.09 -4.04,0.5 -4.7,1.3zm53.92 -2.4l6.75 -2.51c7.15,-2.43 13.84,-1.97 16.99,-5.96 1.23,-1.56 1.67,-2.33 -0.56,-2.33 -3.06,0 -6.52,0.62 -9.33,1.21l-6.15 1.57c-0.83,0.24 -1.33,0.53 -2.11,0.72 -0.09,-1.28 0.07,-6.48 0.5,-7.34 0.55,-0.5 2.29,-0.53 3.2,-0.73 0.51,-0.11 2.68,-0.57 3.11,-0.89 -1.45,-0.99 -5.61,-0.77 -7.67,-0.9 -3.8,-0.24 -3.25,-0.89 -3.2,4.54 0.02,2.2 0.66,5.77 -0.77,7.11 -2.37,2.22 -1.99,2.3 -0.76,5.5zm3.32 16.04c0.93,0.32 0.95,1.28 2.18,1.52 1.21,0.23 2.41,-0.44 2.9,-0.96 0.1,-1.09 -0.61,-2.16 -1.3,-2.68 -1.64,-1.23 -8.13,1.12 -8.13,3.83l2.13 0.22c-0.42,0.7 -0.84,0.97 -1.76,0.53 -0.98,-0.46 1.16,-0.42 -2.23,-0.16l1.55 -16.48c-1.75,-0.45 -4.98,1.55 -6.56,2.17 -0.71,-0.74 -0.18,-2.78 -2.8,-2.94 -0.94,-0.05 -2.94,0.39 -3.69,0.73 -1,0.44 -0.59,0.14 -0.9,0.91 3.12,-0.11 3.03,-0.09 2.88,2.93 -0.07,1.58 -0.51,3.36 -0.82,4.95 -0.49,2.52 -2.59,8.52 1.12,8.63 0.72,-0.54 0.65,-0.82 1.22,-1.38 0.7,-0.69 0.89,-0.43 0.86,-1.65 -0.03,-1.74 0.29,-2.95 0.61,-4.63 0.86,-4.61 0.45,-6.14 3.7,-6.79l-1.61 15.29c2.76,0.06 3.94,-0.6 6.05,-0.96l4.54 -0.06c0.59,0.13 0.24,-0 0.59,0.31l0.39 0.51c7.56,-0.33 12.18,-5.11 9.07,-7.7 -1.37,-1.14 -4.51,-1.65 -6.5,-2.67 -2.73,-1.39 -0.16,-4.66 1.16,-5.04 0.68,1.66 -0.32,2.85 1.22,3.95 2.61,0.33 3.37,-1.01 3.34,-3.15 -0.02,-1.73 -0.15,-4.03 -1.07,-5.24 -2.77,-0.31 -6.02,3.2 -7.2,4.46 -9.11,9.7 7.67,5.5 5.68,11.44 -1.19,3.56 -7.99,2.68 -6.64,0.16z"/>
   <path class="fil2" d="M55.36 20.13c-0.54,0.76 -3.68,6.38 -4.39,6.73 -1,-1.41 -1.46,-5.41 -2.26,-6.96 -0.75,-0.16 -3.71,-0.42 -4.49,-0.15 -1.05,0.36 -0.22,1.99 0.02,2.99 0.43,1.79 2.04,12.45 3.24,13.03 0.63,0.31 6.78,1.04 7.63,0.92 0.92,-0.44 3.41,-10.14 4.07,-12.28l1.02 -3.15c0.06,-0.33 0.06,-0.19 0.03,-0.49 -0.1,-1.2 -3.77,-0.79 -4.89,-0.64z"/>
   <path class="fil2" d="M10.19 20.61c0.24,0.86 0.69,4.23 1.29,4.64 1.01,0.7 3.5,0.09 3.86,2.45 0.45,2.89 -3.51,6.72 -1.04,8.94 1.05,0.26 2.54,0.14 3.74,0.15 1.42,0.02 2.5,0.25 3.01,-0.82l4.2 -13.18c0.61,-1.97 1.29,-2.06 0.34,-2.47 -0.34,-0.15 -0.16,-0.08 -0.55,-0.14l-3.96 -0.2c-1.44,2.33 -2.76,4.95 -4.15,7.28l-0.55 -0.79c-0.48,-1.27 -1.03,-4.74 -1.34,-5.95l-4.85 0.1z"/>
   <path class="fil3" d="M32.9 26.02c0.83,0.46 3.14,1.03 4.12,0.87l0.86 -7.22 -4.65 0.02 -0.32 6.33z"/>
  </g>
 </g>
</svg>
