<?xml version="1.0" encoding="UTF-8"?>
<!DOCTYPE svg PUBLIC "-//W3C//DTD SVG 1.1//EN" "http://www.w3.org/Graphics/SVG/1.1/DTD/svg11.dtd">
<!-- Creator: CorelDRAW -->
<svg xmlns="http://www.w3.org/2000/svg" xml:space="preserve" width="56.5762mm" height="66.643mm" version="1.1" style="shape-rendering:geometricPrecision; text-rendering:geometricPrecision; image-rendering:optimizeQuality; fill-rule:evenodd; clip-rule:evenodd"
viewBox="0 0 121.22 142.78"
 xmlns:xlink="http://www.w3.org/1999/xlink"
 xmlns:xodm="http://www.corel.com/coreldraw/odm/2003">
 <defs>
  <style type="text/css">
   <![CDATA[
    .fil2 {fill:aqua}
    .fil0 {fill:#110F10}
    .fil3 {fill:#FDFDFD}
    .fil1 {fill:#FF00BA}
    .fil4 {fill:#FFCC00}
   ]]>
  </style>
 </defs>
 <g id="Camada_x0020_1">
  <metadata id="CorelCorpID_0Corel-Layer"/>
  <g id="_2076156619968">
   <path class="fil0" d="M21.83 22.41c-3.04,-0.43 -7.96,-1.57 -10.86,3.22 -1.64,2.71 -2.16,6.99 -0.78,10.27 0.5,1.19 1.12,1.83 1.52,2.81 -1.3,0.63 -2.3,0.11 -2.93,1.62 -0.47,1.12 -0.57,6.58 0.41,8.25 0.27,0.46 0.68,0.93 1.06,1.39 -0.59,1.78 -0.71,4.03 -0.77,5.55 -0.08,2.36 -0.03,4.94 0.24,7.29 0.25,2.13 0.23,4.76 0.9,6.77 0.58,1.76 2.33,2.76 4.12,2.81 1.49,0.05 2.92,-0.55 3.87,-1.66l-0 0.12c-0.16,5.94 -0.98,4.8 2.96,5.81 0.25,2.21 -1.08,10.77 -1.35,13.71 -0.16,1.76 -0.34,3.34 -0.11,4.92 -0.08,0.07 -0.15,0.14 -0.23,0.21 -0.11,0.11 -0.2,0.22 -0.29,0.34 -0.69,-0.97 -1.52,-1.81 -2.42,-2.37 -3.25,-2.02 -7.15,-1.25 -10.37,0.38 -1.41,0.71 -2.94,1.54 -4.01,2.71 -1.68,1.83 -1.79,4.12 -0.25,6.1 0.17,0.22 0.37,0.4 0.6,0.54 -0.11,0.33 -0.22,0.66 -0.33,0.99 -0.47,1.41 -0.99,2.84 -1.42,4.26 -0.42,1.42 -1.2,2.94 -1.36,4.39 -0.25,2.27 0.99,3.87 2.71,5.19 4.07,3.12 9.55,-0.01 12.73,-2.95 -0,0.16 0,0.32 0.01,0.47 0.04,0.5 0.22,0.94 0.55,1.29 -0.19,1.19 -0.39,2.72 -0.58,4.72 -1.66,17.35 -2.02,10.18 -3.53,13.83 -0.37,0.89 -0.47,2.04 -0.49,3.07 -0.05,3.11 0.23,3.84 3.33,3.75 1.21,-0.03 5.82,-0.79 6.06,-0.73 2,0.47 1.53,1.07 6.24,0.67 0.86,-0.07 2.13,-0.38 2.94,-0.38 1,0 2.01,0.36 3.34,0.37 2.38,0.02 4.77,-0 7.15,-0l27.64 -0.1c2.67,0.31 11.63,0.3 14.25,-0.07 0.84,-0.95 0.61,-1.45 1.22,-2.33 1.21,0.57 1.18,1.75 4.89,2.7 2.38,0.67 2.67,0.37 4.87,0.02 4.05,-1.66 1.25,-0.49 4.29,-2.08 1.03,0.73 0.69,1.79 3.32,1.87 6.17,0.19 6.44,0.72 6.48,-8.69 0.01,-2.17 1.53,-11.41 2.2,-16.09 1.58,1.23 3.48,2.06 5.5,1.32 2.12,-0.78 3.54,-2.54 3.45,-4.87 -0.03,-0.65 -0.3,-1.19 -0.81,-1.6 -0.71,-0.57 -2.17,-1.43 -3.31,-2.32 0.57,-0.31 1.14,-0.68 1.65,-1.05 2.48,-1.79 4.45,-4.42 4.96,-7.48 0.47,-2.82 -0.41,-5.66 -2.76,-7.39 -2.9,-2.15 -8.51,-1.69 -11.74,-0.45 -0.72,0.27 -1.51,0.61 -2.28,1.04 -0.34,-0.56 -0.8,-1.04 -1.38,-1.38 -0.01,-0.21 -0.02,-0.44 -0.01,-0.68 0.05,-1.4 0.58,-3.03 -0.44,-3.87 -1.37,-1.13 -6.75,0.26 -8.54,-0.27 -0.42,-2.49 5.64,-12.31 5.25,-18.59 0.74,0.67 1.54,1.3 2.42,1.77 1.22,0.65 2.58,0.94 3.93,0.52 2.32,-0.72 3.73,-2.54 3.6,-5 -0.04,-0.68 -0.35,-1.25 -0.9,-1.64 -0.6,-0.43 -2.09,-1.43 -3.23,-2.36 0.6,-0.29 1.2,-0.6 1.73,-0.98 1.38,-0.98 2.49,-2 3.43,-3.43 1.88,-2.9 2.19,-7.42 -0.02,-10.2 0.1,-6.34 1.64,-15.8 2.54,-21.43 0.66,-4.09 0.44,-4.71 -3.83,-4.74 -3.03,-0.02 -6.01,0.07 -9.06,0.02 -1.23,-0.02 -2.44,0.08 -3.51,0.06 -0.45,-0.33 -0.9,-0.64 -1.31,-0.92 -0.13,-0.09 -0.37,-0.27 -0.64,-0.47 0.27,-0.13 0.53,-0.26 0.78,-0.4 1.74,-0.96 3.01,-2.25 4.17,-3.85 2.3,-3.17 2.52,-8.9 -0.84,-11.43 -4.07,-3.05 -12.16,-1.51 -15.88,1.58 -0.19,0.16 -0.37,0.33 -0.53,0.51 -0.85,-2.19 -3.04,-3.14 -5.5,-3.52 -0.05,-0.01 -0.11,-0.01 -0.16,-0.02 -0.25,-1.12 -0.73,-2.18 -1.36,-2.94 -0.17,-0.2 -0.34,-0.35 -0.57,-0.49 -1.06,-0.63 -2.6,-0.47 -3.77,-0.31 -1.43,0.19 -2.86,0.51 -4.27,0.84 -2.45,0.58 -4.98,1.25 -7.38,2.02 -0.82,0.26 -1.58,0.59 -2.36,0.95 -0.22,0.1 -0.45,0.21 -0.68,0.31 -0.34,-0.25 -0.69,-0.49 -1.1,-0.68 -1.34,-0.63 -2.69,-0.48 -3.99,0.21 -0.61,0.32 -0.99,0.85 -1.12,1.52 -0.69,3.77 -1.46,7.6 -2.62,11.26 -0.49,1.56 -1.11,3.26 -1.92,4.7 0.05,-1.37 0.4,-2.82 0.67,-3.8 0.38,-1.37 0.86,-2.72 1.36,-4.05 0.38,-1.01 0.84,-2.12 1.11,-3.16 1.07,-4.23 -5.55,-7.78 -8.01,-3.44 -0.2,0.35 -0.33,0.73 -0.48,1.1 -0.23,0.58 -0.48,1.15 -0.7,1.72 -0.48,1.25 -0.88,2.55 -1.22,3.85 -0.59,2.26 -1.02,4.4 -1.14,6.63 -0.29,-0.1 -0.6,-0.17 -0.93,-0.22 -1.25,-0.19 -2.68,-0.03 -4.1,0.16 0.02,-0.07 0.05,-0.13 0.07,-0.19 0.53,-1.43 1.14,-2.85 1.76,-4.25 0.58,-1.31 1.18,-2.62 1.76,-3.93 0.34,-0.78 0.96,-2.07 0.99,-2.92 0.1,-2.83 -2.75,-5.42 -5.54,-5.2 -0.24,0.02 -0.44,0.07 -0.66,0.16 -1.2,0.5 -1.97,2.05 -2.52,3.16 -0.73,1.46 -1.37,2.99 -1.99,4.51 -1.09,2.68 -2.19,5.5 -3.07,8.26 -0.14,0.44 -0.47,1.78 -0.8,2.77zm1.17 45.13c-0.87,-0.02 -1.85,-0.06 -2.56,-0.02 1.22,-2.19 2.52,-4.22 3.98,-6.36 0.52,-0.75 1.03,-1.51 1.55,-2.26l-2.02 5.54c-0,0.01 -0.01,0.02 -0.01,0.04 -0.3,0.88 -0.73,1.67 -0.89,2.59 -0.03,0.16 -0.05,0.32 -0.06,0.48zm58.93 -54.21c-0,0.02 -0.01,0.04 -0.01,0.06 0.01,-0.02 0.01,-0.04 0.02,-0.05 -0,-0 -0,-0 -0.01,-0.01z"/>
   <path class="fil1" d="M21.82 24.81c0.01,-0.17 0.01,-0.34 0.01,-0.54 -1.17,-2.21 -6.67,-0.64 -8.19,0.45 -2.01,1.45 -2.92,4.72 -2.71,8.28 0.33,5.63 6.43,5.78 6.85,9.57 0.18,1.6 -0.1,3.46 -1.72,3.38 -0.74,-1.75 0.33,-3.62 -0.21,-5.26 -1.4,-0.35 -4.37,-0.21 -5.67,0.1 -0.63,2.62 -0.78,7.05 1.24,8.39 1.23,-0.47 1.48,-1.51 3.77,-0.92 1.5,0.39 2.12,1.26 2.56,2.45 2.63,-0.28 4.84,-1.94 5.56,-3.92 0.62,-1.71 1.06,-6.38 0.37,-8.22 -0.74,-1.98 -2.84,-3.72 -4.48,-4.8 -1.05,-0.69 -1.92,-1.11 -2.18,-2.54 -0.32,-1.74 0.11,-2.87 1.6,-3.05l0.17 3.78c1.21,0.28 4.74,0.33 5.84,-0.01 0.06,-0.92 0.18,-1.76 -0.07,-2.44l-0.13 0.02c-0.06,0.01 -0.1,0.01 -0.16,0.01 -2.43,-0.11 -3.09,-2.54 -2.54,-4.54 0.02,-0.07 0.04,-0.13 0.07,-0.19zm86.77 22.95l0.28 -3.07 -5.66 0c-0.51,2.24 -0.05,1.87 1.82,2.3 1.1,0.26 2.37,0.63 3.55,0.77zm-4.81 -3.98c5.96,0.53 4.76,0.24 5.45,-4.45 0.28,-1.9 0.56,-3.74 0.83,-5.61 0.27,-1.85 0.55,-3.72 0.83,-5.61 0.67,-4.52 1.02,-4.23 -1.31,-4.22 -6.18,0.02 -4.77,-1.67 -5.3,7.67 -0.15,2.66 -0.85,10.09 -0.49,12.21zm-13.51 2.77c0.85,0.66 1.34,0.35 1.97,1.38 0.41,0.67 0.49,1.57 0.88,2.38 1.07,-0.14 3.46,-2.46 6.03,-2.98 1.16,-0.23 2.77,-0.47 2.2,-2.11 -0.33,-0.93 -3.15,-0.49 -4.28,-0.5 -0.09,-1.09 0.15,-4.4 0.43,-5.2l3.46 -0.21c0.65,-1.11 0.78,-3.91 0.78,-5.15l-3.68 -0.11 0.38 -4.6c2.85,-0.33 4.86,2.07 4.5,-5.54l-5.65 -0.02c0.01,0.41 -0.03,0.81 -0.11,1.18 0.04,0.06 0.07,0.12 0.1,0.19 0.09,0.19 0.1,0.37 0.05,0.57 -0.36,1.49 -1.69,2.63 -3.16,2.94 -0.75,0.16 -1.49,0.03 -2.2,-0.26 -0.07,0.14 -0.13,0.36 -0.17,0.7l-1.55 17.35zm-8.24 -12.48c-0.35,-1.12 0.11,-4.09 0.39,-5.09 1.79,-0.05 1.3,1.1 1.19,2.85 -0.08,1.32 -0.41,2.31 -1.58,2.25zm-2.13 -7.76c-0.01,0.05 -0.01,0.09 -0.02,0.14 -0.01,0.67 -0.05,1.34 -0.17,1.87 -0.1,0.44 -0.49,0.73 -0.94,0.7l-1.69 -0.14c-0.09,-0.01 -0.16,-0.02 -0.24,-0.06 -0.36,-0.14 -0.68,-0.28 -0.96,-0.44 -0.43,6.04 -1.14,11.06 -1.69,16.81 -0.22,2.31 1.01,2.83 2.27,3.92 0.61,-0.09 2.17,-0.71 2.8,-0.96 1.33,-0.52 1.24,-0.84 1.47,-2.39 0.32,-2.2 0.33,-5.08 0.67,-7.1 1.07,0 1.18,0.12 1.25,1.22 0.05,0.74 -0.06,1.81 -0.15,2.56 -0.15,1.3 -0.49,3.14 -0.24,4.55 1.42,0.38 4.57,0.35 5.6,-0.45 0.8,-0.76 1.07,-7.18 0.54,-8.32 -0.46,-0.98 -0.93,-0.95 -1.6,-1.66 1.44,-0.99 1.58,-0.34 2.3,-2.38 0.4,-1.14 0.68,-2.7 0.74,-4.05 0.06,-1.23 -0.13,-2.52 -0.59,-3.57 -0.18,-0.17 -0.35,-0.34 -0.51,-0.5 -0.22,-0.22 -0.78,-0.84 -1.36,-1.47 -0.39,-0.15 -0.82,-0.23 -1.31,-0.2 -0.27,0.93 -0.48,1.87 -0.7,2.84 -0.06,0.27 -0.23,0.48 -0.48,0.6 -1.13,0.55 -2.26,0.42 -3.32,-0.2 -0.64,-0.38 -1.13,-0.85 -1.66,-1.33zm-12 8.26c-0.01,0.01 0.53,0.42 -0.97,0.39 -0.21,-0.36 -0.25,0.32 -0.23,-0.56 0.02,-1.03 0.19,-0.61 0.28,-0.75l0.24 -4.81c-1.63,-0.05 -2.43,-0.29 -3.52,-1.47 -1,-0.73 -0.98,-1.97 -0.68,-3.08 -0.02,-0.05 -0.04,-0.1 -0.06,-0.15 -0.12,0.05 -0.21,0.06 -0.28,0.06l-0.07 0.24c-0.35,1.14 -0.74,2.63 -1.23,3.7 -0.08,0.19 -0.22,0.33 -0.39,0.42 -0.01,0.05 -0.03,0.11 -0.04,0.16 -0.37,1.52 -0.5,4.13 -0.68,5.75 -0.43,3.75 -0.94,8.23 -1.03,11.96 1.74,-0.16 2.48,0.02 3.61,0.88 1.71,1.31 0.87,2.03 1.94,2.67 1.4,-1.58 0.83,-7.6 1.57,-10.18 2.19,-0.28 4.22,0.11 5.74,-1.17 1.3,-1.09 1.67,-2.94 1.9,-5.16 0.43,-4.22 1.15,-9.27 -3.86,-9.32 -0.28,0.46 -0.52,0.98 -0.75,1.46 -0.43,0.91 -0.87,1.82 -1.33,2.72 -0.05,0.11 -0.13,0.2 -0.21,0.27 0.18,0.47 1.13,0.14 0.88,2.93 -0.11,1.19 -0.18,2.42 -0.82,3.01zm-28.06 -8.12c-0.14,1.37 -0.47,2.99 -0.63,4.09l-1.55 16.25 5.69 0.01 1.22 -10.93c0.19,3.06 -0.31,12.23 0.81,14.37 0.55,0.09 0.9,-0.04 1.17,-0.27 0.32,-0.77 0.69,-1.42 1.26,-1.84 0.1,-0.11 0.22,-0.22 0.34,-0.32 2.01,-1.55 1.57,-0.21 2.17,-3.29 0.52,-2.69 1.68,-6.34 1.95,-8.75 0.09,3.37 -1.31,8.29 -0.97,11.53 1.35,1.22 1.55,1.31 2.53,2.82 1.01,0.16 1.62,0.22 2.61,0 0.54,-1.58 2.04,-17.3 2.25,-20.69 0.03,-0.45 0.02,-0.79 -0.03,-1.06 -1.4,-0.59 -2.51,-1.9 -2.5,-3.45 0,-0.16 0.02,-0.34 0.06,-0.55 -0.07,-0.09 -0.15,-0.16 -0.25,-0.24 -0.86,-0.36 -2.86,-0.44 -3.99,-0.11 -0.42,0.72 -0.89,1.38 -1.45,1.98 -0.12,0.43 -0.21,0.88 -0.31,1.3 -0.24,0.99 -1.47,7.09 -1.65,7.45l-0.14 -6.74 -0.24 -0.09c-0.2,0.13 -0.41,0.25 -0.62,0.37 -0.09,0.05 -0.16,0.08 -0.26,0.1 -2.66,0.55 -5.6,0.05 -7.5,-1.93zm-12.72 2.67l-1.87 17.36c1.46,0.3 1.72,-0.2 3.02,0.64 3.09,2 1.23,1.3 4.54,0.14 0.66,-0.23 0.81,-0.18 1.48,-0.16 0.31,0.01 0.67,0.06 0.97,0.04l0.86 -0.19c0.28,-0.78 0.29,-1.27 0.09,-2.23l-4.01 -0.05 0.45 -5.03 3.58 -0.31c0.61,-1.15 0.57,-3.82 0.51,-5.17l-3.52 -0.09c-0.22,-0.94 0.1,-3.56 0.38,-4.55 1.81,-0.36 3.16,0.3 3.8,-0.35 0.46,-0.67 0.42,-1.02 0.25,-1.45 -0.72,0.27 -2.22,0.32 -2.98,0.36 -1.01,0.05 -2.1,0.06 -3.1,0.18 -1.48,0.18 -2.99,0.53 -4.45,0.89z"/>
   <path class="fil2" d="M17.2 116.21c-0.71,5.43 -0.94,12.32 -1.81,18.89 -0.82,0.21 -1.7,0.19 -2.21,0.63 -0.75,0.77 -0.8,3.61 -0.37,4.68 1.19,0.57 2.89,-0.13 4.1,-0.29 1.66,-0.21 2.61,0.24 3.49,-0.98 1.8,-2.51 1.68,-3.32 1.98,-7.09l1.1 -14.45 -1.63 0.17c-0.74,0.14 -1.91,0.51 -2.95,-0.27l-1.71 -1.29zm84.44 0.4c-0.09,1.12 -0.28,2.7 -0.33,3.67l-0.17 9.87c-0.09,1.88 -0.73,2.19 0.11,3.78 1.35,0.27 3.09,0.11 4.26,-0.2l1.55 -9.4c0.3,-2.22 1.53,-7.03 1,-9.64l-2.03 -0.15c-0.57,0.57 0.06,1.51 -0.75,1.94 -1.3,0.69 -2.39,0.67 -3.64,0.13zm4 18.67c-1.01,-0.55 -5.95,-1.64 -6,2.01 -0.04,2.37 -0.56,2.72 1.72,2.98 1.36,0.15 3.01,0.27 4.28,-0.03l0 -4.96zm-18.57 -18.74c-2.29,-1.04 -1.9,7.05 -1.61,8.18 1.07,4.24 6.86,4.35 6.81,9.51 -0.02,1.9 -2.12,2.77 -2.11,-0.54l0.01 -2.48 -1.16 -0.39c-3.45,0.77 -4.79,-1.69 -4.89,3.15 -0.02,1.06 0.05,2.16 0.29,3.06 1.51,5.86 11.1,5.05 12.87,0.84 0.9,-2.14 1.13,-3.19 1.14,-5.8 0.01,-2.78 -0.31,-3.6 -1.44,-5.05 -1.38,-1.76 -1.64,-2.67 -3.74,-3.39 -1.73,-0.6 -2.14,-3.02 -1.27,-5.03l1.3 0.25c0,1.21 -0.92,1.83 -0.14,2.97 0.81,1.06 5.35,0.64 5.6,0.12l0.48 -2.49c0.03,-0.92 0.06,-2.13 -0.28,-2.86 -0.49,-0.18 -0.75,-0.17 -1.09,-0.11 -0.07,0.66 -1.27,1.21 -1.54,1.23 -1.83,0.12 -3.7,0.03 -5.53,0.24 -1.85,0.21 -3.17,-0.18 -3.69,-1.4zm-9.27 -0.92l-0.12 -0.01c-0.26,4.18 -0.67,8.34 -1.34,12.33 -0.28,1.65 -1.21,11.13 -0.51,12.12 0.51,0.51 0.35,0.33 1.32,0.37 1.14,0.05 3.66,0.18 4.5,-0.07 0.91,-3.51 1.49,-15.18 1.81,-19.97 0.04,-0.65 1.09,-3.06 0.83,-6.15 -1.33,0.06 -0.92,0.54 -1.4,1.94 -0.66,1.9 -2.61,1.59 -3.75,0.73 -0.77,-0.58 -0.39,0.31 -1.34,-1.29zm-9.44 6.73c0.54,1.32 -0.11,3.48 -0.12,4.95 -0.01,0.9 0.34,4.49 -1.15,3.69 -1.05,-0.56 0.08,-3.33 0.25,-4.44l1.02 -4.21zm-2.81 17.61c0.98,-2.06 -1.08,-4.33 2.46,-4.17 -0.09,1.73 -0.43,1.46 0.34,4.12 0.21,0.62 0,0.19 0.25,0.6l5.95 -0.14c0.12,-1.58 -0.83,-24.46 -0.96,-24.95 -0.2,-0.06 -0.39,-0.08 -0.58,-0.06 -1.88,2.57 -6.32,3.41 -9.26,2.15l-4.34 22.8c1.72,0.41 4.82,0.47 6.14,-0.35zm-14.27 -21.91c-0.77,1.13 0.03,3.96 -1.52,6.14 -0.05,-1.98 0.16,-4.28 -0.49,-6.17 -0.39,-0.01 -0.72,0.01 -1,-0.37 -0.46,-0.62 -0.88,-1.31 -1.06,-1.98l-2.35 1.68c-1.39,0.4 -2.51,0.65 -3.56,0.67 -0.38,0.33 -0.68,0.9 -0.81,1.92l-1.71 20.63 5.62 -0.14c0.86,-3.25 0.09,-10.4 1.57,-12.47 -0.02,2.47 -0,10.38 0.27,12.41 1.04,0.05 1.04,-0.26 2.31,-0.15 2.01,0.18 2.12,0.93 2.63,-3.86 0.16,-1.49 2.08,-9.63 2.45,-10.66l-1.03 14.52c1.05,0.35 4.44,0.48 5.69,0.12 0.15,-0.85 -0.17,-2.19 -0.06,-3.48l1.19 -9.93c0.32,-2.26 0.37,-4.45 0.53,-6.77 0.18,-2.59 1.38,-3.34 -0.17,-6.19 -0.79,0.21 -1.34,1.25 -1.4,1.5 -0.01,0.05 0.09,2.09 -1,2.28 -1.59,0.27 -4.37,0.3 -6.12,0.3zm-20.55 12.68c-0.85,-1.4 0.74,-7.85 0.95,-8.13 0.14,1.52 -0.12,3.03 0.06,4.68 0.17,1.61 1.03,3.25 -1.01,3.45zm-3.59 -13.5l-4.77 22.95c1.31,0.36 4.24,0.42 5.67,0.12 1.7,-0.36 1.03,-2.78 1.5,-4.48l1.42 0.13c1.46,2.38 -0.08,3.18 0.19,4 0.63,1.02 6.17,0.45 6.33,0.29 0.35,-0.35 0.45,-19.09 -0.54,-23.41 -1.07,-0.57 -0.27,-0.57 -1.76,-1.58 -0.07,-0.05 -0.13,-0.1 -0.18,-0.16 -0.13,0.46 -0.23,0.88 -0.66,1.07 -2.22,0.99 -5.03,0.55 -6.69,1l-0.52 0.07z"/>
   <g>
    <path class="fil3" d="M26.05 69.12c0.81,0.39 1.56,1.19 2.44,1.11 0.82,-0.07 2.17,-0.42 3.22,-0.53 2.25,-0.22 4.72,-0.56 6.98,-0.62 1.09,0.01 2.15,-0.13 2.86,-0.68 0.67,-3.19 -0.84,-4.24 -3.89,-3.97 -2.18,0.19 -4.51,0.87 -6.68,1.15 -0.03,-1.06 0.45,-1.95 0.77,-2.95 0.37,-1.12 0.28,-1.74 1.48,-2.06 2.05,-0.55 4.56,-0.18 6.07,-1.38 0.25,-1.35 -0.15,-2.27 -0.96,-3.07 -1.88,-0.46 -2.45,0.18 -3.96,0.13 0.09,-1.05 1.25,-3.22 1.82,-3.95 3.29,-0.46 4.77,0.72 7.62,-0.92 0.01,-5.96 -5.91,-2.69 -8.8,-2.93 -1.14,-0.1 -0.96,-0.52 -1.98,-0.07 -0.87,0.38 -2.09,1.26 -3.75,1.31 -3.33,-3.48 -4.13,-1.79 -8.61,4.95 -1.26,1.9 -3.76,7.07 -4.46,7.44 -0.22,-2.77 -0.29,-5.78 0.07,-8.42 0.17,-1.28 0.63,-2.66 -0.15,-3.48 -0.73,-0.76 -2,-0.94 -3.27,-0.71 -1.62,1.85 -1.36,10.11 -1.01,13.08 0.21,1.79 0.3,4.82 0.8,6.34 0.55,1.64 3.62,1.92 4.61,-0.04 1.87,-3.7 3.28,-5.89 5.36,-8.94 0.99,-1.45 5.17,-7.65 6.18,-8.21 0.47,0.46 0.84,0.88 1.59,1.29l-4.43 12.16c-0.59,1.72 -1.57,2.99 0.07,3.96zm72.96 -11.3c0.1,-1.15 0.71,-2.75 1.25,-3.66 1.09,-1.82 5.11,-1.36 6.08,-0.69 -0.53,1.93 -5.59,4.18 -7.33,4.35zm2.64 4.7c0.83,-0.76 2.84,-1.46 3.84,-2.17 1.16,-0.83 2.08,-1.63 2.87,-2.85 1.73,-2.66 1.63,-6.87 -0.78,-8.49 -3.01,-2.02 -10.27,-1.09 -13.39,2.18 -1.45,1.52 -0.14,2.65 0.79,3.71 -0.5,2.68 -4.24,10.02 -4.05,12.62 0.63,1.12 2.47,2.4 3.95,1.77 0.31,-0.21 1.22,-3.66 1.76,-5.13 1.23,0.59 5.21,6.81 8.26,5.87 1.34,-0.42 2.16,-1.3 2.08,-2.83 -1.55,-1.11 -4.61,-3.06 -5.34,-4.68zm-26.69 7.19c1.3,0.59 0.96,1.13 2.28,0.46 0.9,-0.4 5.06,-0.68 6.35,-0.79 2.22,-0.18 4.27,-0.04 6.17,-0.91 1.71,-5.59 -4.52,-3.52 -7.27,-3.62 -0.71,0.45 -0.95,0.33 -1.77,0.5 -0.7,0.14 -0.98,0.26 -1.76,0.34 0.05,-1.06 -0,-1.02 0.62,-1.83 0.39,-2.05 0.68,-3.15 2.75,-3.52 3.6,-0.63 6.94,0.09 4.34,-4.22 -2.09,-0.44 -2.7,0.22 -4.13,0.1 0.16,-1.15 1.23,-3.1 1.75,-3.94 2.91,-0.37 5.6,0.61 7.65,-0.96 0.17,-1.83 -0.27,-3.11 -1.9,-3.33 -3,-0.4 -5.29,0.58 -7.33,0.34 -1.44,-0.18 -0.75,-0.42 -2.02,0.31 -0.83,0.48 -2.71,1.11 -3.54,1.46 -0.29,2.21 0.13,1.9 1.47,2.89 -0.25,1.97 -5.55,12.85 -5.26,15.53l1.6 1.18zm-11.35 -0.61c0.63,0.37 1.25,0.71 1.72,0.99 2.84,0.81 3.99,0.24 5.25,-1.55 0.66,-0.94 2.45,-3.44 2.62,-4.83 -0.56,-1.07 -1.56,-1.84 -3.21,-1.67 -0.7,0.87 -1.38,1.81 -2.16,2.8 -1.17,1.47 -1.48,2.37 -2.65,2.55 -2.12,-6.16 3.48,-14.58 7.1,-15.95 -0.2,1.16 -2.63,6.98 1.9,6.95 0.67,-3.68 3.3,-7.03 0.06,-9.82 -3.37,-2.91 -6.94,0.21 -8.69,2.32 -1.8,2.18 -3.8,5.34 -4.48,8.67 -0.85,4.13 -0.28,7.65 2.56,9.55zm-20.45 0.04c1.01,0.52 1.38,0.69 2.7,0.67 1.16,-0.3 0.99,-1.11 1.32,-2.56 0.37,-1.67 1.57,-7.77 2.37,-8.3 0.53,1.18 1.59,8.58 4.08,10.15 0.84,0.39 1.55,0.64 2.73,0.49l0.98 -0.23c0.27,-1.39 -0.19,-0.44 -0.22,-1.85 -0.05,-2.23 4.73,-13.72 5.75,-15.98 0.58,-1.29 0.78,-2.08 -0.16,-2.89 -0.66,-0.57 -1.73,-1.07 -2.69,-1.11 -1.24,1.63 -2.32,4.5 -3.18,6.58 -0.5,1.21 -0.88,2.35 -1.25,3.54 -0.28,0.93 -0.68,2.89 -1.05,3.55 -1.07,-1.39 -1.59,-7.6 -1.81,-9.85 -0.16,-1.61 -1.07,-2.67 -2.78,-2.84 -1.99,-0.2 -2.39,1.14 -2.93,2.7 -1.81,5.22 -2.55,8.12 -3.81,13.38 -0.34,1.41 -1.27,3.61 -0.06,4.55z"/>
    <path class="fil3" d="M11.64 98.74c13.03,-1.19 -1.01,12.57 -4.24,13.35l4.24 -13.35zm96.83 5.67c0.03,-0.92 1.4,-4.03 1.86,-4.62 1.79,-0.03 3.64,-0.2 5.41,0.13 0.11,1.16 -0.46,1.12 -1.27,1.8 -1.38,1.16 -4.1,3.14 -6,2.68zm-6.77 11.25c1.11,0.55 1.99,0.67 3.18,0.04 0.04,-1.59 0.51,-3.79 1.36,-4.77 1.86,1.43 5.23,6.85 8.18,5.77 1.17,-0.43 2.09,-1.3 2.03,-2.76 -1.28,-1.03 -4.53,-2.67 -5.44,-4.73 0.67,-0.58 1.27,-0.6 2.08,-0.98 0.58,-0.27 1.31,-0.74 1.78,-1.08 4.77,-3.43 5.41,-9 2.18,-11.39 -2.2,-1.62 -7.1,-1.16 -9.68,-0.17 -7.66,2.93 -2.92,5.68 -2.89,6.01 -0.76,2.52 -1.82,4.63 -2.68,7.26 -0.89,2.74 -2.49,5.24 -0.12,6.81zm-22.74 0.19c0.64,0.26 0.14,0.03 0.59,0.27 0.37,0.2 0.04,0.12 0.62,0.36 2.49,1.02 1.69,-1.7 2.64,-2.6 -0.01,-1.99 3.58,-12.57 4.79,-15.22 0.72,-1.59 2.86,-1.71 4.81,-1.83 -0.35,1.35 -0.22,1.82 0.31,2.87l1.81 0.05c-0.21,1.44 -2.19,6.05 -2.83,8.02 -0.43,1.32 -0.76,2.96 -1.16,4.3 -0.55,1.82 -1.62,1.19 -2.76,2.43 -0.29,2.34 0.84,2.82 2.91,2.58 1.76,-0.2 3.73,-0.12 5.57,-0.24l0.71 -0.44 -0.09 -2.04c-0.33,-1.22 -0.64,-1.17 -1.57,-1.77 0.14,-2.47 3.1,-9.47 4.33,-12.14 0.96,-2.09 1.76,-0.53 3.18,-2.01 0.38,-1.97 -0.28,-3.69 -2.28,-3.64 -1.56,0.04 -3.49,0.88 -5.09,0.95 0.06,-2.04 0.06,-3.04 -0.98,-4.51 -3.4,-0.55 -11.08,1.82 -14.59,3.07 -3.28,1.17 -2.12,1 -3.65,2.22 -0.99,-0.81 -1.29,-1.85 -2.95,-2.24 -5.17,-1.21 -14.63,7.91 -10.73,12.9 1.48,1.89 3.46,3.1 6.37,3.66 -0.15,1.57 -1.85,2.61 -3.52,2.83 -1.56,0.21 -2.2,-2.13 -4.32,-1.5 -0.97,2.11 1.72,4.11 3.47,4.7 4.56,1.52 11.63,-2.23 6.66,-7.15 -1.97,-1.95 -3.41,-1.68 -5.92,-2.88 0.01,-3.36 4.68,-7.64 7.22,-8.38 -0.14,1.78 -1.21,2.74 -1.18,4.81 0.02,1.69 0.74,2.98 2.52,3.04 1.71,-1.44 2.29,-5.67 3.33,-6.78 0.98,0.91 0.88,1.49 2.44,0.74 1.04,-0.49 1.62,-0.97 2.84,-1.13l-3.89 12.71c-0.83,2.81 -0.58,2.13 0.38,4.01zm-21.71 1.02c0.37,-0.85 0.29,-1.28 0.16,-2.38 -0.34,-1.57 -0.55,-1.14 -1.66,-1.94 0.09,-1.43 0.71,-2.51 1.13,-3.85 0.35,-1.11 0.83,-2.44 1.23,-3.54 0.41,-1.14 0.9,-2.36 1.37,-3.4 1.28,-2.86 0.73,-2.38 2.21,-2.56 2.67,-0.32 2.42,-4.95 -1.73,-4.18 -2.25,0.42 -5.95,0.91 -7.28,2.27 -0.19,2.12 0.33,2.46 2.32,2.46 -0.14,1.03 -1.08,2.9 -1.47,3.92 -1.23,3.19 -1.65,5.34 -2.56,8.41 -0.7,2.36 -4.77,1.28 -1.98,5.05 2.02,0.08 6.49,0.05 8.26,-0.25zm-21.24 -13.29c-0.16,2.54 1.15,3.84 2.6,5.14 1.63,1.47 3.89,1.55 4.98,2.39 -0.49,1 -2.37,2.7 -4.02,2.54 -1.09,-0.11 -2.9,-2.65 -4,-1.25 -0.59,0.72 -0.16,1.41 0.14,2.1 0.59,0.41 1.02,0.76 1.4,1.39 2.77,1.52 4.26,1.53 7.51,0.59 1.45,-1.03 1.44,-0.7 2.49,-2.09 0.76,-2.36 -0.41,-4.01 -1.87,-5.16 -1.93,-1.51 -3.45,-1.33 -5.24,-2.41 -0.44,-3.26 4.9,-7.84 7.03,-8.41 0.18,1.17 -1.09,2.57 -1.18,4.36 -0.1,1.82 0.85,3.44 2.52,3.44 0.98,-0.32 3.08,-6.13 3.18,-7.02 0.26,-2.26 -3.25,-9.07 -11.67,-1.57 -2.95,2.63 -2.96,4.65 -3.87,5.96zm-16.55 13.22c0.93,0.43 1.23,0.39 2.24,0.1l5.74 -0.6c1.62,-0.45 4.59,-0.08 6.56,-0.96 2.38,-6.39 -7.51,-3.32 -10.66,-3.04 0.04,-1.07 0.48,-1.89 0.86,-2.95 0.44,-1.23 0.33,-1.87 1.62,-2.13 2.26,-0.44 4.31,-0.24 6.02,-1.39 0.16,-3.49 -1.55,-3.22 -4.43,-2.9 -0.24,0.19 0.33,0.22 -0.75,0.32 -0.03,-0.25 -0.24,-0.22 0.24,-0.89l1.77 -3.58 7.19 -0.1c0.3,-0.77 0.39,-2.29 -0.07,-3.11 -0.58,-1.04 -1.62,-0.83 -3.15,-0.82 -1.28,0.01 -2.64,-0.04 -3.82,0.19 -2.22,0.42 -1.49,0.05 -3.41,-0.1 -1.07,1.81 -2.54,0.75 -4.01,2.2 -0.73,1.47 1.52,2.86 1.52,2.86 -0.93,3.18 -5.48,12.51 -5.27,15.51l1.81 1.37zm-13.46 -15.91c-0.09,1.26 -2.01,6.48 -2.52,8.21 -1.03,3.48 -2.58,4.82 0.6,7.25 5.09,3.9 16.27,-6.68 15.66,-14.29 -0.22,-2.73 -2,-5.68 -3.69,-6.73 -2.6,-1.62 -5.82,-0.76 -8.26,0.47 -2.34,1.18 -5.55,2.95 -3.53,5.57 1.15,0.03 0.89,-0.12 1.75,-0.48z"/>
    <path class="fil3" d="M22.6 25.23c-0.4,1.44 -0.09,3.33 1.73,3.42l2.14 -0.29c1.52,-0.38 3.41,-0.83 5,-1.02 1.36,-0.16 5.09,-0.16 5.88,-0.49 1.56,-6.85 -3.4,-4.58 -8.41,-4.29 0.27,-3.38 5.28,-12.87 5.32,-13.88 0.05,-1.47 -1.64,-3.09 -3.21,-2.97 -1.3,0.54 -5.49,11.89 -6.35,14.58 -0.56,1.74 -0.9,4.05 -2.09,4.94zm66.03 -9.62c-0.41,-0.54 -0.19,-0.87 -0.19,-0.87 0,-0.01 0.27,-0.69 0.27,-0.7 1.37,-3.06 0.91,-3.19 2.75,-3.2 2.09,-0.01 2.13,-0.15 4.11,0.17 -0.16,2.39 -6.1,4.93 -6.95,4.6zm-8.45 9.76c0.99,0.87 2.44,2.58 4.31,1.67 0.44,-1.92 0.75,-3.34 1.44,-5 1.38,0.6 5.04,6.5 8.06,5.85 1.16,-0.25 2.22,-1.15 2.49,-2.28 -0.68,-1.5 -4.86,-3.13 -5.54,-5.24 2.18,-1.53 3.97,-1.26 6.6,-4.88 1.75,-2.4 1.84,-6.76 -0.39,-8.43 -3.03,-2.27 -10,-1.15 -13.2,1.51 -1.47,1.23 -1.24,3.29 0.47,3.8 -0.39,2.05 -1.59,4.43 -2.24,6.33 -0.61,1.79 -1.64,4.78 -2,6.67zm-7.78 -6.69c0.36,-0.82 0.69,-1.18 1.2,-1.88 0.55,-0.75 0.74,-1.34 1.5,-1.66l-0.37 3.1 -2.33 0.44zm-8.12 8.02c0.88,0.97 1.4,1.21 2.98,1.25 2.27,-4.41 2.05,-5.28 4.64,-5.93 0.75,-0.19 2,-0.61 2.71,-0.53 0.33,3.56 -0.7,5.27 2.53,6.5l1.69 0.14c0.28,-1.28 0.07,-5.21 0.09,-6.81 0.03,-1.93 0.3,-4.38 0.54,-6.36 0.56,-4.64 2.55,-8.03 -3.26,-8.93 -1.7,0.34 -8.73,11.43 -10.46,14.62 -0.66,1.22 -3.14,4.96 -1.47,6.05zm-12.35 -20.99c-1.02,5.59 -3.51,18.61 -7.87,19.59 -2.9,-4.25 1.59,-12.96 2.25,-15.56 0.46,-1.81 -2.83,-3.98 -4.04,-1.85 -0.1,0.18 -0.27,0.63 -0.35,0.84 -0.24,0.61 -0.43,1.04 -0.69,1.7 -0.43,1.12 -0.82,2.39 -1.14,3.62 -0.77,2.93 -1.3,5.71 -1.05,8.96l0.85 2.11c1.27,1.89 3.91,3.1 7.26,2.41 2.73,-1.55 4.09,-3.38 5.38,-6.77 0.72,-1.91 2.5,-7.66 2.64,-9.64l0.32 -1.26c0.74,0.27 0.16,-0.28 0.63,0.56 0.49,2.73 3.09,0.32 5.22,-0.08 -0.45,2.66 -2.13,6.8 -2.97,9.64 -0.26,0.88 -1.32,4.21 -1.32,4.94 -0,1.53 1.68,3.07 3.51,2.88 0.95,-2.09 5.06,-17.89 6.53,-18.92 1.26,-0.88 6.36,-0.86 6.98,-1.63 0.88,-1.43 0.01,-4.04 -0.71,-4.92 -1.39,-0.82 -11.24,1.97 -13.65,2.74 -1.6,0.52 -2.72,1.23 -3.98,1.63 -1.33,-0.81 -2.03,-1.92 -3.8,-0.99z"/>
   </g>
   <path class="fil4" d="M96.62 94.02c0.64,-0.01 3.35,-0.35 3.87,-0.53 1.01,-0.35 0.92,-2.15 0.72,-3.3 -4.21,-0.05 -4.47,-0.92 -4.6,3.83zm-12.42 -2.59c1.59,-0.13 6.31,-1.09 6.95,-2.06 0.58,-0.89 1.94,-4.89 2.44,-6.14 1.84,-4.68 3.6,-7.74 3.83,-13.62 -0.86,-0.13 -1.25,-0.08 -1.69,0 -0.11,0.19 -0.23,0.34 -0.36,0.42 -0.05,0.03 -0.09,0.06 -0.15,0.08 -1.14,0.49 -2.47,0.16 -3.53,-0.54 -0.68,-0.04 -1.41,-0.07 -2.09,-0.08 -0.93,0.35 -1.88,0.5 -2.85,0.59 -0.54,1.04 -0.49,3.63 -0.37,4.42 1.1,0.39 2.51,0.14 3.69,0.14 0.02,2.65 -5.34,13.53 -5.88,16.78zm-9.36 -20.77c-0.48,4 -2.35,19.48 -2.23,21.93 0.56,0.22 1.49,0.43 2.1,0.75 0.75,0.39 1.01,0.74 1.74,1.09 1.35,-0.49 2.08,-1.18 3.71,-1.73 2.99,-1.01 3.23,-0.41 3,-2.3 -1.06,-0.47 -2.97,-0.12 -4.24,-0.11 0.22,-7.18 0.24,-5.64 4.23,-5.81 0.16,-1.38 0.65,-3.42 0.38,-4.77l-3.67 -0.15 0.64 -4.64c1.14,-0.5 2.72,-0.11 3.99,-0.31 0.19,-0.68 0.51,-3.18 0.39,-4.4 -0.41,0.02 -0.81,0.04 -1.22,0.08 -1.1,0.09 -2.2,0.17 -3.3,0.28 -0.58,0.06 -2.22,0.2 -2.74,0.42 -0.62,0.31 -1.26,0.57 -1.93,0.22 -0.31,-0.16 -0.54,-0.37 -0.84,-0.55zm-12.28 -1.22l-1.83 -0.01c-1.37,-0.03 -2.14,-0.15 -2.55,0.2 -0.05,0.16 -0.14,0.29 -0.25,0.4 -0.04,0.1 -0.07,0.22 -0.09,0.36l0.35 11.42c0.14,3.98 0.45,7.87 0.55,11.78 1.94,-0.04 3.58,-0.49 4.74,0.71 1.28,1.33 1.72,1.55 3.54,0.47 1.72,-1.02 1.46,-1.37 1.92,-3.58 0.31,-1.46 0.64,-2.9 0.94,-4.32l2.91 -13.05c0.16,-0.71 0.3,-1.4 0.48,-2.14 0.38,-1.56 0.46,-1.7 0.02,-2.03 -0.79,-0.33 -1.62,-0.32 -2.38,-0.11 -1.16,1.43 -2.37,1.9 -3.95,1.77 -0.56,2.11 -1.37,7.31 -1.82,9.7 -0.23,1.21 -0.24,2.33 -0.99,3.1l0.09 -13.63c-0.37,-0.21 -0.74,-0.42 -1.1,-0.63 -0.02,-0.01 -0.03,-0.02 -0.05,-0.03 -0.19,-0.13 -0.37,-0.26 -0.54,-0.4zm-9.84 0.09c-0.29,-0 -0.7,-0.02 -1.28,-0.03 -0.75,-0.02 -1.51,0.02 -2.25,0.08 -0.56,1.66 -2.5,22.51 -2.29,22.96 0.53,0.32 0.04,0.07 0.74,0.24 0.17,0.04 0.39,0.06 0.6,0.11 1.52,0.35 1.97,1.23 2.96,2.03 1.29,1.05 3.69,-0.17 5.11,-0.62 0.21,-1.04 0.58,-2.71 0.27,-4.03l-3.29 -0.05c-0.25,-4.21 1.9,-16.09 1.68,-19.75 -0.57,-0.09 -1.11,-0.28 -1.72,-0.57 -0.04,-0.02 -0.06,-0.03 -0.1,-0.05 -0.15,-0.09 -0.29,-0.2 -0.43,-0.32zm-15.05 16.52c-0.17,-1.01 1.07,-7.43 1.58,-9.04 0.24,-0.76 0.07,-0.47 0.55,-0.94l-0.36 9.89c-0.65,0.3 -0.66,0.28 -1.78,0.09zm4.56 -16.57l-0.87 0.05c-0.83,0.36 -1.79,0.44 -2.67,0.44 -1.04,0.03 -2.09,0.11 -3.14,0.22 -0.35,0.59 -0.32,0.92 -0.57,2.11 -0.78,3.67 -4.69,19.94 -4.38,21.07 0.98,0.05 1.87,-0.19 2.99,-0.13 1.27,0.08 1.76,0.53 2.85,0.48 0.39,-1.13 0.21,-2 0.79,-3.01l1.94 0.03c0.17,1.5 -0.25,3.14 0.17,4.59 1.39,0.17 2.15,-0.56 3.08,-1.09 0.86,-0.49 2.18,-0.93 2.83,-1.46l-0.83 -22.17c-0.53,-0.11 -0.99,-0.32 -1.67,-0.67 -0.05,-0.03 -0.09,-0.05 -0.14,-0.09 -0.14,-0.11 -0.27,-0.23 -0.37,-0.36zm-17.19 0c-1.2,0.14 -3,-0.22 -4.67,0.08 -1.64,6.34 0.26,4.89 2.87,5.19 0.23,2.01 -0.62,7.82 -0.88,10.15 -0.36,3.19 -0.84,7.05 -0.89,10.27 2.93,-0.19 2.33,-1.55 5.92,-1.64 1.03,-2.3 1.31,-15.99 2.26,-18.79l3.28 -0.04c0.46,-1.35 0.66,-2.84 0.42,-4.27 -0.52,0.06 -1.03,0.11 -1.55,0.16 -1.08,0.11 -2.15,0.44 -3.23,0.53 -1.25,0.11 -1.92,-0.72 -2.91,-1.2 -0.02,-0.01 -0.04,-0.02 -0.06,-0.03 -0.21,-0.13 -0.4,-0.26 -0.55,-0.39z"/>
  </g>
 </g>
</svg>
