<?xml version="1.0" encoding="UTF-8"?>
<!DOCTYPE svg PUBLIC "-//W3C//DTD SVG 1.1//EN" "http://www.w3.org/Graphics/SVG/1.1/DTD/svg11.dtd">
<!-- Creator: CorelDRAW -->
<svg xmlns="http://www.w3.org/2000/svg" xml:space="preserve" width="25.4mm" height="25.4mm" version="1.1" style="shape-rendering:geometricPrecision; text-rendering:geometricPrecision; image-rendering:optimizeQuality; fill-rule:evenodd; clip-rule:evenodd"
viewBox="0 0 43.13 43.13"
 xmlns:xlink="http://www.w3.org/1999/xlink"
 xmlns:xodm="http://www.corel.com/coreldraw/odm/2003">
 <defs>
  <style type="text/css">
   <![CDATA[
    .fil0 {fill:black}
    .fil1 {fill:#FE0000}
    .fil3 {fill:#FEFEFE}
    .fil2 {fill:yellow}
    .fil4 {fill:black;fill-rule:nonzero}
   ]]>
  </style>
 </defs>
 <g id="Camada_x0020_1">
  <metadata id="CorelCorpID_0Corel-Layer"/>
  <g id="_2482567447712">
   <path class="fil0" d="M42.15 7.61c-0.04,-0.43 -0.18,-0.51 -0.43,-0.77l-2.3 -1.01 -0.16 -0.03c-2.46,-0.31 -1.78,2.2 -6.04,2.44 -1.27,0.07 -0.69,-0.62 -1.56,-0.23 -1.14,0.52 -2.21,-0.14 -4.35,2.33 -0.2,0.23 -0.52,0.6 -0.69,0.86 -0.22,0.34 -0.39,0.74 -0.63,1.07 -0.18,0.54 -0.43,0.39 -0.83,0.53l-2.79 0.89 0.04 0.11c-0.19,0.57 -0.07,0.63 -0.16,1.19 -1.09,-0.42 -0.25,-0.82 -3.13,-0.57 -0.36,-0.04 -0.76,0.13 -0.98,0.38 -0.18,0.28 -0.4,0.36 -0.63,0.51 -0.25,0.07 -0.18,-0.03 -0.32,0.3l-0.12 0.33 -0.34 -0.31c-0.4,-0.06 -0.48,-0.06 -0.83,0.04 -2.47,0.66 -1.63,0.86 -2.05,1.33 -0.18,-0.21 -0.2,-0.41 -0.57,-0.47 -0.19,-0.03 -0.48,0.07 -0.67,0.12 -0.45,0.13 -0.91,0.29 -1.36,0.44l-2.09 0.64c-0.13,0.04 -0.2,0.05 -0.33,0.1 -0.54,0.23 -0.02,0.24 -0.66,0.31 -0.89,0.11 -1.42,0.33 -2.4,0.66 -1.3,0.43 -1.53,0.29 -2.55,1 -0.06,0.12 -0.02,0.07 -0.1,0.2 -0.11,0.18 -0.06,0.07 -0.14,0.15 -0.32,-0.3 -0.11,0.02 -0.28,-0.35l-0.03 0.03c-0.48,0.02 -0.84,0.22 -1.33,0.25 -0.48,-0.05 -0.84,0.28 -1.34,0.32 -0.08,0.53 0.19,3.99 0.28,4.6l0.24 1.48 0.24 2.15c-0.08,0.38 0.18,2.34 0.28,2.71 0.05,0.1 0.01,0 0.07,0.2 0.01,0.04 0.03,0.16 0.05,0.22l0.15 0.22c0.59,0.19 0.92,-0.27 1.59,-0.2 0.05,0.15 0.03,0.11 0.04,0.3 0.05,0.77 0.59,0.17 1.26,0.72 -0.24,1.32 -2.01,1.97 -1.75,2.94 0.49,0.37 0.77,-0.03 1.3,-0.06 0.03,0.44 0.06,1.12 0.03,1.58 0.24,0.18 0.23,0.14 0.61,0.21 0.1,-0.13 0.22,-0.31 0.32,-0.47l0.4 -0.59 0.01 -0.1c0.07,-0.41 0.14,-0.5 0.39,-0.72 0.41,-0.16 0.19,-0.54 0.25,-0.95 0.06,-0.41 0.32,-0.63 0.5,-0.89 0.12,-0.19 0.08,-0.08 0.15,-0.37 0.26,0.13 0.2,0.03 0.22,0.34l-0.08 0.48 0.39 0.46c1,1.05 1.56,-0.84 2.77,-1.27l0.18 0.62c1,-0.06 0.47,-0.49 1.25,-0.36 0.02,0.28 0.01,0.22 0.12,0.42 0.51,0.46 1.17,0.31 1.77,0.78 -0.48,0.4 -1.19,0.27 -1.92,0.53 -0.01,0 -0.04,0.02 -0.05,0.02l-0.09 0.03c-0.69,0.18 -1.05,0.45 -1.72,0.35 -0.61,0.29 -0.55,0.93 -0.12,1.36l0.41 0.11c0.07,0.29 0.04,0.09 0.06,0.37 0.03,0.33 0,0.31 0.3,0.45 0.92,0.17 1.45,-0.1 1.06,0.52l-0.17 0.23 -1.51 3.77c-0,0.03 0,0.06 0,0.08 0,0.03 0.01,0.06 0.01,0.08 0,0.02 0.01,0.06 0.01,0.07 0,0.02 0.01,0.05 0.02,0.07 0.02,0.01 0.05,0.01 0.06,0.04 0,0.03 0.04,0.03 0.05,0.04 0.14,0.15 0.05,0.05 0.13,0.16 0.13,-0.01 0.24,-0.01 0.36,-0.04 0.19,-0.05 0.16,-0.03 0.31,-0.13l0.1 -0.28c0.33,-0.07 0.36,-0.03 0.77,0.04 0.31,0.06 0.11,0.05 0.16,-0.07 0.21,-0.39 0.57,-0.98 0.85,-1.13l0.21 -0.16 0.38 -0.37c0.01,-0.01 0.03,-0.03 0.05,-0.04 0.2,-0.28 0.3,-0.37 0.53,-0.62 0.21,-0.22 0.33,-0.43 0.5,-0.67 0.27,-0.4 0.69,-1.02 0.88,-1.52 0.2,-0.5 0.36,-0.54 0.88,-0.57 0.4,-0.03 0.69,-0.09 1.07,-0.16l0.08 0.28c0.24,0.09 0.29,0.13 0.49,0.22 -0.04,0.57 0.05,0.18 -0.16,0.7 -0.06,0.16 -0.07,0.22 -0.15,0.38 -0.12,0.23 -0.08,0.13 -0.17,0.22 -0.22,0.3 -0.48,0.77 -0.38,1.21 0.09,0.43 0.27,0.73 0.59,0.99 0.61,0.17 0.4,0.48 1.29,0.29 0.47,-0.1 0.83,-0.23 1.29,-0.32 0.94,-0.18 2.01,-0.58 2.56,-0.52 0.45,0.04 0.54,-0.12 0.99,0.17 0.71,0.48 1.42,1.21 3.02,1.01 0.64,-0.08 1.27,-0.43 1.56,-0.97 0.44,-0.81 -0.07,-1.3 -0.75,-1.61l-0.18 -0.03c0.01,-1.16 0.51,-1.4 0.96,-0.81 0.18,0.17 0.55,0.2 0.79,0.24 0.11,0.25 0.09,0.12 0.12,0.42 0.99,0.18 0.52,0.22 2,0.4 0.57,0.07 -0.17,-0.06 0.3,0.21 0.45,-0.23 1.04,-0.13 1.47,0.06l1.53 0.61c0.72,0.32 0.67,0.64 1.06,0.88 0.62,0.38 0.95,0.26 1.61,0.37 0.17,-0.08 -0.16,-0.07 0.28,-0.06 0.53,0.02 1.8,0.44 2.4,0.55 0.35,-0.39 0.44,-0.24 0.96,-0.33 0.32,-0.06 0.71,-0.23 0.98,-0.42 0.6,-0.43 1.67,-1.7 1.89,-2.58l0.09 -0.59c0.03,-0.32 0.03,-0.62 -0,-0.93 -0.11,-1.06 -1.02,-1.74 -1.84,-2.56l-3.73 -3.9c-0.52,-0.44 -1.45,-0.81 -2.09,-1.1 -0.42,-0.15 -0.42,-0.19 -0.59,-0.5 -0.09,-0.32 -0.23,-0.13 -0.24,-0.54 -0.02,-0.54 0.29,-1.44 -0.06,-1.89 -0.01,-0.02 -0.03,-0.03 -0.05,-0.05 -0.55,-0.65 -0.45,-0.27 -0.71,-0.56 -0.41,-0.47 0.41,-0.67 -1.24,-1.41 0.04,-0.48 -0.2,-0.95 0.12,-1.48 0.16,-0.25 0.66,-0.59 0.9,-0.78 0.34,-0.26 0.6,-0.46 0.94,-0.72 1.14,-0.86 1.56,-0.94 2.79,-2.19 0.33,-0.34 0.49,-0.53 0.93,-0.73 0.37,-0.16 0.84,-0.19 1.1,-0.47 0.19,-0.2 0.42,-0.29 0.76,-0.26l0.21 -0.65c0.14,-0.37 0.31,-0.45 0.42,-0.91 -0.26,-0.26 -0.08,-0.27 -0.49,-0.38 0.13,-0.53 0.15,-0.18 0.12,-0.77 -0.32,-0.14 -0.32,-0.16 -0.76,-0.24 -0.1,0.04 0.13,0.12 -0.31,0.04l0.05 -0.29c-0.11,-0.26 -0.25,-0.5 -0.45,-0.64l-0.26 -0.08c-0.2,0.22 -0.08,0.19 -0.4,0.22 -0.1,-0.38 -0,-0.31 0.06,-0.38 0.26,-0.14 0.23,-0.24 0.5,-0.43 0.33,-0.24 0.32,-0.13 0.76,-0.16 0.37,-0.02 1.05,-0.24 1.3,-0.52 0.13,-0.3 0.18,-0.29 0.43,-0.42 -0.12,0.33 -0.11,0.2 0.01,0.5 0.26,-0.02 0.21,-0.01 0.39,-0.13 0.18,-0.21 0.34,-0.24 0.47,-0.48 0.22,-0.41 -0.03,-0.3 0.27,-0.71 0.13,-0.81 0.37,-1.48 0.26,-2.28 -0.07,-0.51 -0.22,-1.66 -0.51,-1.97zm-8.5 9.7c0.01,-0.04 0.63,-0.48 0.84,-1.82 0.41,-2.61 -0.36,-2.66 -0.41,-3.23 0.13,-0.1 0.19,-0.11 0.39,-0.13 0.28,0.31 0.12,0.7 0.25,1.16 0.11,0.41 0.37,0.61 0.63,0.87 0.17,-0.11 0.32,-0.27 0.49,-0.37 0.49,0.4 0.09,0.39 0.87,0.41 0.5,0.01 0.69,0.02 1.07,0.3 -0.27,0.62 -0.14,-0.09 -0.53,0.38 -0.14,0.18 -0.24,0.48 -0.46,0.76 -0.35,0.44 -0.1,0.28 -0.17,0.73 -0.02,0.15 -0.48,0.98 -0.99,1.19l-1.89 0.97c-0.11,0.01 -0.12,-0.17 -0.12,-0.26l0.05 -0.95z"/>
   <path class="fil1" d="M25.09 18.45c0.26,1.14 0.45,0.84 0.26,1.99 -0.44,-0.09 -0.58,-0.18 -0.6,-0.64l-0.03 -2.02c0.05,-0.5 -0.07,-0.39 0,-0.91l0.37 1.57zm-21.36 1.73l0.09 1.45c0.08,0.7 0.19,2 0.09,2.63 -0.29,-0.51 0.02,-0.4 -0.37,-0.9 -0.68,-0.88 -0.67,-2.64 -1.08,-2.72 -0.35,-0.06 -1.26,0.35 -1.71,0.38 -0.19,1.19 0.43,4.92 0.51,6.36l0.23 2.53c0.03,0.45 0.13,0.79 0.16,1.23 0.36,0.06 1.68,-0.18 1.71,-0.38 0.18,-1.12 -0.42,-3.15 -0.31,-3.9 0.21,0.21 0.3,0.46 0.4,0.79l0.3 0.87c0.01,0.02 0.02,0.05 0.02,0.07 0.09,0.25 0.01,0.12 0.16,0.38 0.1,0.17 0.17,0.21 0.24,0.4 0.16,0.4 0.05,0.58 0.36,0.91 0.39,-0.26 0.65,-0.69 0.75,-1.25 0.7,0.06 0.62,-0.19 1.22,0.42 0.19,-0.5 0.01,-0.61 -0.1,-1.1 -0.19,-0.84 -0.44,-5 -0.58,-6.31l-0.34 -2.44 -1.74 0.57zm5.76 7.16c-0.45,-0.19 -0.11,-0.02 -0.37,0.01 -0.02,0 -0.08,0.3 -0.19,-0.34 -0.08,-0.46 0.06,-0.41 -0.06,-1.05l-0.72 -7.05c-0.45,-0.07 -0.76,0.08 -1.26,0.23l-1.06 0.53 0.18 1.13c0.04,0.42 0.03,0.89 0.08,1.29 0.05,0.38 0.08,0.77 0.13,1.17 0.06,0.46 0.03,0.82 0.08,1.29 0.02,0.22 0.04,0.34 0.06,0.55l0.2 1.87c0.12,1.16 0.16,1.29 0.58,1.92 0.03,0.05 0.01,0.2 0.15,0.22 0.45,0.08 1.19,-0.43 1.7,-0.64l2.19 -0.97c0.25,-0.14 0.31,-0.24 0.55,-0.35 -0.12,-0.46 -0.11,-1.73 -0.13,-2.35 -0.02,-0.81 -0.15,-3.61 -0.29,-4.5 -0.06,-0.39 -0.14,-0.75 -0.18,-1.13 -0.04,-0.39 0.03,-0.83 -0.07,-1.21 -0.26,-0.02 -0.91,0.21 -1.21,0.31 -1.69,0.56 -0.93,-0.27 -0.72,4.71 0.03,0.83 0.42,3.94 0.36,4.36zm5.04 -10.43l0.28 4.09c-0.18,-0.2 -0.26,-0.58 -0.4,-0.88l-1.13 -2.85c-0.48,-0.04 -1.19,0.35 -1.71,0.38 -0.17,1.1 0.1,2.44 0.16,3.59 0.11,2.09 0.45,4.22 0.55,5.91 0.26,0.12 0.15,0.06 0.38,0.12 0.91,0.22 0.79,0.33 1.08,-0.17 0.53,-0.92 0.24,-0.89 0.25,-2.16l0.07 -0.92c0.5,0.51 0.33,1.69 0.87,1.74l0.16 0c0.85,0.05 0.77,0.4 1.35,0.66 0.24,-0.27 0.39,-0.63 0.57,-1.04 0.25,-0.56 0.18,-0.46 0.13,-1.1l-0.66 -7.26c-0.04,-0.34 -0.09,-0.37 -0.11,-0.67 -0.3,-0.03 -0.66,0.11 -0.98,0.19 -0.45,0.11 -0.52,0.2 -0.86,0.37zm8.33 -2.73c-0.04,0.56 0.13,0.13 0.06,0.8 -0.2,2.01 -0.06,1.27 -0.12,2.63l-0.1 3.45c-0.52,-0.45 -1.53,0.35 -2.25,0.28 -0.08,0.54 0.1,1.11 -0.14,2.64l-0.55 0.01 -0.55 -4.74c-0.03,-0.77 -0.3,-2.43 0.28,-2.32 0.62,0.11 0.41,0.59 0.6,1.91 0.05,0.31 0.08,0.42 0.1,0.68 0.58,0.09 1.38,-0.39 2,-0.43 0.24,-1.54 0.05,-1.57 -0.19,-2.47 -0.13,-0.49 -0.04,-0.58 -0.42,-0.94 -0.44,-0.42 -0.5,-0.53 -1.05,-0.63 -1.14,-0.21 -1.43,-0.01 -1.96,0.36l-1.37 1.37c-0.27,0.55 -0.25,0.96 -0.31,1.56 -0.07,0.69 0.09,1.49 0.15,2.25l0.25 2.26c0.03,0.52 0.1,0.98 0.13,1.5 0.94,0.19 1.4,-0.08 1.59,0.98 0.11,0.62 -0.06,0.93 1.53,0.41l0.69 -0.39c1.67,-1.43 0.84,-0.82 1.27,-1.42 0.19,-0.27 0.08,-0.02 0.1,0 0.31,0.39 -0.29,-0.01 0.17,0.29l0.57 -0.44c0.72,-0.46 0.6,-0.26 1.14,-0.53 0.35,0.29 0.17,0 0.22,0.34l0.27 0.05c-0.01,-0.22 0,-0.27 0,-0.41 0,-0.52 -0.11,-0.1 -0.05,-0.48 0.04,-0.23 0.51,-0.6 0.73,-0.56 0.26,0.05 0.22,0.15 0.27,0.8 0.09,1.08 -0.06,0.66 0.2,0.86 0.16,0.12 2.03,-0.53 2.21,-0.59 0.04,-0.52 -0.12,-0.8 -0.22,-1.27 -0.42,-1.94 -1.06,-4.02 -1.51,-6.11l-0.58 -2.51c-0.68,-0.11 -2.48,0.76 -3.16,0.81z"/>
   <path class="fil2" d="M10.46 41.61l0.18 -0.2c0.19,-0.24 0.33,-0.48 0.66,-0.45l0.15 0.11c0.25,0.16 0.8,-0.6 0.93,-0.83l0.51 -0.64c0.69,-0.55 1.35,-2.52 2.08,-2.68 0.37,-0.08 0.83,-0.07 1.25,-0.14 1.08,-0.18 0.6,-0.29 1.11,-0.34l-0.21 -0.18c-0.13,-0.12 -0.05,0 -0.19,-0.19 0.3,-0.32 0.34,-0.03 0.54,-0.49 -0.25,-0.11 -0.64,-0.31 -0.95,-0.35 -0.08,-0.01 -0.77,-0.02 -0.78,-0.02 -0.01,-0.29 0.1,-0.53 0.23,-0.72 0.18,-0.28 0.27,-0.27 0.58,-0.31 0.58,-0.08 0.77,-0.29 1.35,-0.32 0.46,-0.02 1,0.04 1.51,-0.1 0.55,-0.15 0.63,-0.29 1.05,0.3 -0.12,0.28 -0.39,0.46 -0.6,0.87 -0.31,0.6 -0.24,0.45 -0.74,0.67 -0.7,0.32 -0.59,0.54 -0.66,0.71 -0.14,0.33 -0.34,0.1 -0.57,0.64 0.23,-0.02 0.31,-0.06 0.59,0.06 0.01,0.61 -0.52,0.92 -0.76,1.46 -0.41,0.89 -0.12,0.83 -0.77,1.57 0.06,0.18 0.08,0.37 0.17,0.54 0.3,0.57 0.9,0.53 1.41,0.35l0.4 -0.16c0.99,-0.32 0.88,-0.18 1.59,-0.34 0.43,-0.1 0.67,-0.21 1.05,-0.3 0.4,-0.09 0.65,-0.1 1.05,-0.2 1.33,-0.33 1.41,0.24 1.96,-0.59 -0.35,-0.03 -0.26,0.08 -0.53,-0.03 -0.4,-0.17 -0.25,-0.07 -0.23,-0.41 -0.21,-0.04 -0.52,-0.07 -0.7,-0.14 -0.29,-0.11 -0.22,-0.18 -0.52,-0.25 -1.08,-0.27 -2.77,0.53 -3.18,0.09 0.06,-0.12 0.08,-0.21 0.18,-0.37 0.9,-1.35 1.73,-1.05 2.2,-1.08 2.34,-0.16 1,-0.45 2.1,-0.98l0.34 -0.15c-0.51,-0.19 -0.42,-0.08 -1.12,-0.2 -0.07,-0.27 -0.07,-0.12 -0.01,-0.5 -0.52,-0.09 -0.95,0.07 -1.44,0.09 0.04,-0.4 0.15,-0.36 0.33,-0.68 0.24,-0.44 0.04,-0.34 0.51,-0.43l3.05 -0.25c0.67,0.01 0.99,0.05 1.43,-0.28 -1.46,-0.27 -0.77,0.02 -0.79,-0.48l-0.04 -0.66c-0.7,-0.13 -1.17,-0.21 -1.84,-0.24 -0.85,-0.04 -4.05,0.69 -4.36,0.55 0.47,-0.4 0.7,0.04 0.87,-0.58 -0.53,-0.07 -1.63,-0.11 -2.32,-0.06 -0.54,0.04 -0.7,-0.05 -1.23,-0.07 -0.69,-0.03 -0.42,0.19 -0.88,-0.28 -0.23,0.11 -0.24,0.16 -0.53,0.27 -0.19,0.07 -0.42,0.14 -0.59,0.18 -1.21,0.27 -1.76,0.16 -2.55,0.3 -0.47,0.08 -0.79,0.1 -1.25,0.13l-0.03 0.19c0.38,0.1 0.54,0.2 1.06,0.29 -0.1,0.41 -0.01,0.18 -0.25,0.45 0.43,0.08 0.62,0.28 0.96,0.32 0.18,0.02 0.6,-0.09 0.88,-0.04 -0.01,0.27 -0.36,0.77 -0.51,1.01 -0.32,0.51 -0.28,0.54 -0.82,0.67 -0.45,0.1 -0.64,0.2 -1.08,0.26 -0.38,0.05 -0.74,0.16 -0.94,0.37 0.18,0.13 0.62,0.26 0.95,0.37 -0.22,0.51 -0.38,0.19 -0.69,0.27 -0.05,0.63 -0.02,0.33 1.34,0.24l-0.48 1.05c-0.13,0.3 -0.44,0.74 -0.55,0.95 -0.38,0.67 -0.66,1.36 -1,2.07 -0.15,0.37 -0.15,0.46 -0.28,0.74 0.22,-0.15 0.27,-0.12 0.43,-0.42zm17.61 -12.44c-0.21,-0.16 -0.15,-0.54 -1.33,0.14 -0.67,0.38 -1.74,1.17 -2.52,1.41l-1.08 0.27c-0.41,0.16 -0.15,-0.05 -0.33,0.24 0.6,0.92 2.38,0.21 2.5,0.19 0.21,-0.04 0.19,0.01 0.43,-0.06 0.21,-0.06 0.14,-0.09 0.44,-0.16 0.72,-0.17 0.28,-0.09 0.72,-0.33 0.36,-0.19 0.47,-0.02 0.86,-0.24 0.67,-0.39 0.5,-0.98 1.33,-1.02l-0.12 -0.71c-0.46,-0.13 -0.58,0.12 -0.92,0.28z"/>
   <path class="fil3" d="M5.59 31.66c0.19,-0.07 1.1,-0.32 0.67,0.16 -0.34,0.38 -0.46,0.57 -0.7,0.62l0.03 -0.78zm11.72 -3.89c0.03,-0.54 0.02,-0.65 0.46,-0.61l-0.06 0.38c-0.05,0.29 -0.15,0.25 -0.4,0.22zm-3.95 3.61c0.44,0.09 0.51,0.09 0.82,-0.03 0.47,-0.19 1.44,-1.18 1.64,-1.68 0.37,0.43 0.02,0.02 0.05,0.48 0.02,0.31 -0,0.12 0.38,0.29 0.27,-0.69 0.75,-1.6 1.4,-1.92 0.33,0.79 -0.08,0.74 0.74,1.32 0.03,-0.6 0.04,-0.01 0.08,-0.45 0.03,-0.37 -0.07,-0.81 0.03,-1.6 0.45,-0.22 0.58,-0.09 0.67,-0.77 -0.16,-0.02 -0.59,0 -0.71,0.04 -0.12,-0.78 0.47,-1.9 -0.38,-2.06 -0.38,-0.07 -0.68,0.6 -0.82,0.92 -0.64,1.45 -0.64,2.48 -1.2,2.82 -0.87,0.52 -1.34,1.68 -2,1.61 -0.27,-1.01 0.07,-0.72 0.11,-1.12 0.02,-0.14 -0.08,-0.06 -0.05,-0.44 0.18,-0.2 0.22,-0.18 0.41,-0.45l1.29 -1.61c-0.4,-0.35 -0.55,-0.54 -1.23,0.04 -0.75,0.64 -0.88,1.14 -1.23,2.06 -0.17,0.44 -0.03,0.3 -0.14,0.85 -0.16,0.77 -0.09,1.04 0.14,1.71 -0.27,-0.04 -0.54,-0.35 -0.9,-0.66 -0.48,-0.42 -0.33,-0.16 0.37,-1.4 0.39,-0.7 0.49,-0.7 0.22,-1.33 -1.67,-0.3 -2.05,0.24 -3.94,1.05 -0.61,0.26 -1.2,0.65 -1.75,1.03 -1.09,0.75 -0.67,0.58 -0.97,0.53 -0.01,-0 -0.04,-0.01 -0.05,-0.01l-0.69 0.1c0.08,-0.5 0.08,-0.38 0,-0.79 -0.3,0.4 -0.41,0.9 -0.8,1.12l-0.82 0.55c-0.24,0.14 -0.1,0.11 -0.38,0.14 0.15,0.15 0.14,0.09 0.51,0.14l0.65 0.07c-0.07,0.56 -0.12,1.27 -0.33,1.76 -0.14,0.34 -0.18,0.33 -0.39,0.49l-0.11 0.08c-0.21,0.19 -0.4,0.43 -0.01,0.48 0.74,0.1 0.37,-0.18 0.36,0.84 -0,0.23 0.02,0.33 -0,0.6 0.72,-0.25 0.12,-0.27 0.7,-1.09 0.62,-0.88 -0.43,-0.54 0.98,-1.84 0.59,-0.55 1.57,-2.06 1.18,-0.12 -0.07,0.37 -0.14,0.56 -0.24,0.95 0.35,0.27 0.6,0.36 0.92,0.08l1.5 -1.29c0.34,-0.24 0.61,-0.23 0.74,-0.78 -1.34,-0.12 -0.93,0.08 -1.65,0.59 -0.19,0.13 -0.28,0.21 -0.59,0.18 0.22,-1.4 0.48,-0.8 1.18,-1.42 0.27,-0.23 0.38,-0.22 0.52,-0.49 0.2,-0.39 -0.13,0.1 0.12,-0.33 -0.53,0.03 -0.59,-0.08 -0.76,-0.04 -0.16,0.04 -0.19,0.2 -0.66,0.28 0.14,-0.9 0.61,-0.76 1.77,-1.48 0.33,-0.21 0.28,-0.37 0.72,-0.33 -0.08,0.53 -0.15,1.35 -0.37,1.81 -0.16,0.33 -0.12,0.12 -0.26,0.44 0.12,0.65 -0.22,-0.52 0.09,0.18 0.08,0.18 0.07,0.04 0.09,0.27 0.02,0.18 -0.07,0.55 -0.1,0.75l0.45 0.08c0.06,-0.35 0.55,-1.26 0.79,-1.53 0.53,0.14 0.47,0.44 0.83,0.53 0.14,0.03 0.32,-0.02 0.51,-0.04 0.59,-0.06 0.34,0.14 0.55,-0.16zm10.94 -5.41c-0.08,-0.25 -0.32,-0.29 0.1,-0.66 0.14,0.4 0.38,0.86 0.34,1.34 -0.45,-0.12 -0.31,-0.26 -0.44,-0.68zm-0.97 -1.45c-0.09,0.56 0.49,1.56 0.34,2.53l-0.67 -2.19c-0.34,-0.03 -0.52,0.13 -0.77,0.25 0.12,0.65 0.33,1.14 0.5,1.73 0.1,0.35 0.09,0.62 0.23,0.92 0.18,0.37 0.38,0.43 0.1,0.85 -0.33,-0.16 -0.25,-0.32 -0.39,-0.72 -0.12,-0.35 -0.2,-0.55 -0.27,-0.89 -0.08,-0.37 -0.08,-0.44 -0.26,-0.81 -0.16,-0.33 -0.19,-0.54 -0.55,-0.7 -0.18,0.24 -0.3,0.19 -0.33,0.52 -0.04,0.34 0.65,1.43 0.59,2.12l-1.45 -0.53c-0.1,-0.11 -0.27,-0.43 -0.02,-0.49 0.31,-0.08 0.02,0.19 0.56,0.34 0.15,-0.35 0.22,-0.25 0.45,-0.51 -0.41,-0.99 -1.11,-0.92 -1.62,-0.19 -0.45,0.65 -0.27,1.82 0.6,1.98 0.36,0.06 0.01,-0.21 0.92,0.17 0.06,0.28 0.12,0.54 0.08,0.87 -0.24,-0.03 -0.24,-0.01 -0.48,-0.42 -0.1,-0.17 -0.07,-0.02 -0.12,-0.25 -0.28,0.04 -0.15,-0.06 -0.63,0.48 0.32,1.49 1.64,0.98 1.87,0.22 0.44,-1.42 -0.04,-0.01 1.28,-0.57 0.34,-0.14 0.28,-0.14 0.48,-0.47 0.31,-0.52 0.08,-0.22 0.45,-0.3 0.29,-0.06 0.26,-0.18 0.63,-0.21 0.09,-0.66 -0.26,-0.68 -0.07,-0.96 0.24,-0.34 0.51,0.33 0.61,0.47l0.64 -0.46c-0.05,-0.44 -0.37,-0.8 -0.57,-1.29l-1.03 -2.09c-0.57,-0.02 -1.1,0.57 -1.11,0.61zm-15.73 6.03c-0.11,0.7 0.2,0.76 -0.34,1.02 -0.15,-0.57 0.18,0.01 -0.22,-0.93 0.19,-0.06 0.34,-0.08 0.56,-0.09zm3.8 -0.79c-0.09,-0.43 0.12,-1.04 0.88,-0.93 -0.06,0.16 -0.26,0.53 -0.36,0.64 -0.15,0.18 -0.28,0.26 -0.52,0.28z"/>
   <path class="fil4" d="M4.31 10.54c0.02,-0.04 0.04,-0.08 0.05,-0.12 0.01,-0.04 0.03,-0.08 0.06,-0.11 0.01,-0.03 0.03,-0.06 0.06,-0.07 0.01,-0.01 0.03,-0 0.04,0 0.01,0.01 0.02,0.01 0.02,0.02 0.04,0.03 0.07,0.06 0.06,0.11 -0,0.05 -0.01,0.09 -0.02,0.14 0,0.02 0.01,0.03 0.02,0.03 0.03,-0.01 0.05,-0.02 0.05,-0.03 0.02,-0.02 0.04,-0.05 0.06,-0.1 0.03,-0.04 0.05,-0.07 0.08,-0.09 0.02,-0.02 0.06,-0.02 0.1,0.01 0.04,0.02 0.08,0.02 0.12,-0 0.04,-0.02 0.07,-0.04 0.11,-0.06 0.16,-0.09 0.31,-0.17 0.47,-0.24 0.16,-0.07 0.32,-0.13 0.48,-0.18 0.12,-0.03 0.25,-0.06 0.36,-0.09 0.12,-0.02 0.23,-0.04 0.34,-0.05 0.2,-0.02 0.36,-0 0.48,0.06 0.13,0.06 0.23,0.16 0.29,0.29 0.08,0.15 0.11,0.3 0.09,0.48 -0.02,0.17 -0.07,0.35 -0.15,0.53 -0.21,0.42 -0.5,0.8 -0.85,1.16 -0.11,0.12 -0.23,0.23 -0.35,0.34 -0.12,0.11 -0.24,0.22 -0.36,0.33 -0.04,0.05 -0.07,0.08 -0.07,0.1 0.01,-0.01 0.04,-0.01 0.08,-0 0.04,-0 0.08,-0 0.12,-0.01 0.04,-0.01 0.08,-0 0.12,0.01 0.32,-0.01 0.55,0.07 0.72,0.25 0.14,0.12 0.21,0.28 0.2,0.5 -0.02,0.22 -0.09,0.44 -0.19,0.65 -0.1,0.21 -0.23,0.43 -0.39,0.65 -0.15,0.2 -0.31,0.4 -0.49,0.61 -0.12,0.14 -0.24,0.29 -0.37,0.43 -0.12,0.14 -0.25,0.29 -0.37,0.44 -0.04,0.05 -0.08,0.09 -0.12,0.14 -0.04,0.04 -0.07,0.08 -0.11,0.12 -0.04,0.03 -0.07,0.07 -0.1,0.1 -0.03,0.03 -0.07,0.06 -0.13,0.07 0.03,-0.04 0.05,-0.08 0.06,-0.1 0.01,-0.03 0.03,-0.06 0.04,-0.09 -0.01,0 -0,-0.01 0.01,-0.03 -0.01,0.01 -0.03,0.01 -0.03,0.01 -0.01,-0 -0.02,0.01 -0.03,0.02 -0.25,0.14 -0.51,0.28 -0.76,0.43 -0.25,0.15 -0.5,0.3 -0.74,0.47 -0.1,0.07 -0.18,0.13 -0.24,0.2 -0.06,0.07 -0.09,0.15 -0.08,0.24 0,0.02 0,0.03 -0,0.04 -0.01,0.01 -0.01,0.02 -0.03,0.04 -0.01,-0.01 -0.02,-0.02 -0.02,-0.03 -0,-0.01 -0.01,-0.02 -0.02,-0.03 0,-0.01 0,-0.03 0,-0.05l-0.01 -0.05c-0.02,-0.04 -0.06,-0.04 -0.12,-0.02 -0.05,0.03 -0.09,0.06 -0.13,0.08 -0.04,0.02 -0.07,0.04 -0.11,0.06 -0.2,0.12 -0.4,0.23 -0.6,0.33 -0.2,0.1 -0.41,0.19 -0.63,0.27 -0.04,0.01 -0.07,0.03 -0.1,0.04 -0.03,0.01 -0.07,0.02 -0.11,0.02 -0.06,0.01 -0.11,0.02 -0.16,0.03 -0.05,0.01 -0.1,0.01 -0.14,0.02 0.04,-0.03 0.08,-0.06 0.13,-0.09 0.05,-0.03 0.1,-0.06 0.14,-0.08 0.22,-0.12 0.43,-0.25 0.63,-0.39 0.2,-0.13 0.4,-0.27 0.59,-0.42 0.07,-0.05 0.1,-0.08 0.1,-0.1 0,-0.02 -0.02,-0.05 -0.05,-0.08 -0.04,-0.04 -0.06,-0.08 -0.08,-0.12 -0.01,-0.05 -0.01,-0.1 -0.01,-0.15 0.01,-0.24 0.03,-0.47 0.04,-0.7 0.01,-0.23 0.03,-0.47 0.06,-0.71 0.05,-0.44 0.11,-0.89 0.19,-1.33 0.07,-0.44 0.17,-0.89 0.29,-1.34 -0,-0.01 -0,-0.03 0.01,-0.05 0.01,-0.02 0.01,-0.04 0.02,-0.05 -0.01,-0.03 -0.01,-0.04 -0.02,-0.05 -0.02,0.01 -0.04,0.02 -0.05,0.03 -0.03,0.04 -0.06,0.07 -0.09,0.09 -0.03,0.03 -0.05,0.06 -0.08,0.09 -0.01,0.01 -0.02,0.02 -0.03,0.02 -0.01,-0 -0.01,0 -0.02,0.01 -0,-0.01 -0,-0.01 -0.01,-0.03 -0,-0.01 -0,-0.02 0,-0.03 0.02,-0.03 0.05,-0.07 0.07,-0.1 0.03,-0.03 0.05,-0.07 0.08,-0.12 0.03,-0.04 0.06,-0.07 0.09,-0.11 0.03,-0.03 0.05,-0.07 0.07,-0.11 0.01,-0.01 0.03,-0.03 0.04,-0.06 -0.04,0.01 -0.06,0.02 -0.07,0.04 -0.05,0.04 -0.1,0.08 -0.13,0.12 -0.03,0.04 -0.08,0.08 -0.16,0.1 -0.01,0.01 -0.03,0.02 -0.05,0.06 -0.02,0.03 -0.03,0.06 -0.04,0.09 -0.02,0.05 -0.04,0.08 -0.06,0.11 -0.02,0.03 -0.05,0.05 -0.1,0.05 -0.06,0.01 -0.09,0.01 -0.11,-0.01 -0.01,-0.02 -0.03,-0.05 -0.05,-0.08 -0.06,-0.1 -0.08,-0.2 -0.06,-0.3 0.02,-0.11 0.07,-0.22 0.15,-0.34 0.13,-0.2 0.27,-0.39 0.42,-0.58 0.15,-0.19 0.32,-0.37 0.5,-0.55 0.06,-0.06 0.1,-0.11 0.12,-0.16 0.03,-0.05 0.05,-0.1 0.08,-0.17 0.02,-0.08 0.04,-0.15 0.07,-0.21 0.02,-0.07 0.05,-0.13 0.07,-0.2 0.04,-0.12 0.12,-0.14 0.22,-0.08 0.08,0.04 0.14,0.02 0.18,-0.07 0.03,-0.05 0.05,-0.09 0.06,-0.13 0.01,-0.04 0.03,-0.08 0.06,-0.13 0,-0.01 0.02,-0.03 0.04,-0.05 0.02,-0.02 0.04,-0.03 0.06,-0.04 0.02,0.01 0.03,0.01 0.05,0.02 0.02,0.01 0.03,0.02 0.03,0.04 0.01,0.02 0.01,0.04 0.02,0.07 0,0.02 0.01,0.05 0.01,0.08 -0.02,0.01 -0.04,0.03 -0.05,0.05 -0.01,0.02 -0.03,0.04 -0.04,0.05 -0.01,0.02 0,0.03 0.04,0.05 0.01,-0.02 0.03,-0.03 0.04,-0.03 0.02,-0.01 0.03,-0.01 0.02,-0.02l-0.02 -0.1zm28.06 -5.47c-0.13,0.06 -0.26,0.12 -0.4,0.17 -0.13,0.05 -0.27,0.11 -0.41,0.16 -0.06,0.02 -0.1,0.05 -0.13,0.08 -0.03,0.03 -0.06,0.07 -0.09,0.11 -0.14,0.21 -0.27,0.43 -0.42,0.65 -0.14,0.22 -0.28,0.43 -0.42,0.65 -0.07,0.11 -0.14,0.21 -0.21,0.31 -0.07,0.1 -0.15,0.21 -0.22,0.32l-0.2 0.22c-0,0.01 -0.01,0.02 -0.02,0.02 -0.01,0 -0.02,-0 -0.03,-0.01 -0.02,-0 -0.03,-0.01 -0.03,-0.04l0.05 -0.17 0.33 -0.91c0,0 -0,-0.02 -0.01,-0.05l-0.05 0.05c-0.1,0.17 -0.21,0.34 -0.33,0.52l-0.15 0.21 -0.05 0.05c-0,-0.01 -0.01,-0.02 -0.01,-0.03 -0.01,-0.01 -0.01,-0.02 -0,-0.03l0.12 -0.32 0.16 -0.36c0.01,-0.02 0.01,-0.03 0.01,-0.03 -0,-0 -0.01,-0.02 -0,-0.04 -0.04,0.04 -0.06,0.06 -0.07,0.06 -0.02,0.01 -0.03,0.01 -0.03,0 -0.01,-0.03 0,-0.07 0.03,-0.11 0.03,-0.08 0.07,-0.16 0.11,-0.24 0.04,-0.08 0.07,-0.16 0.11,-0.25 0.01,-0.02 0.02,-0.03 0.01,-0.04 -0,-0.01 -0.02,-0.01 -0.06,-0.01 -0.02,0 -0.04,0.01 -0.07,0.02 -0.02,0.01 -0.04,0.01 -0.07,0.01 -0.04,0 -0.08,0.01 -0.13,0.03 -0.05,0.02 -0.08,0.01 -0.1,-0.04 -0.03,-0.06 -0.06,-0.11 -0.1,-0.17 -0.04,-0.05 -0.03,-0.12 0.02,-0.21 -0.01,-0.02 0,-0.04 0.02,-0.05 0.11,-0.06 0.16,-0.13 0.14,-0.21 -0,-0.01 0.01,-0.02 0.03,-0.03 0.02,-0.01 0.04,-0.02 0.05,-0.03 0.05,-0.02 0.09,-0.03 0.13,-0.04 0.04,-0.01 0.08,-0.02 0.12,-0.03 0.04,-0.01 0.09,-0.02 0.14,-0.04 0.05,-0.02 0.09,-0.05 0.12,-0.09 0.01,-0.02 0.03,-0.03 0.06,-0.05 0.03,-0.01 0.06,-0.02 0.08,-0.04 0.06,-0.01 0.11,-0.03 0.14,-0.07 0.03,-0.04 0.06,-0.08 0.09,-0.13 0.14,-0.24 0.27,-0.48 0.4,-0.72 0.13,-0.24 0.26,-0.48 0.39,-0.73 0.19,-0.35 0.38,-0.7 0.58,-1.05 0.2,-0.35 0.42,-0.7 0.65,-1.05 0.05,-0.09 0.09,-0.17 0.14,-0.25 0.04,-0.08 0.09,-0.17 0.15,-0.26 0.03,-0.06 0.06,-0.1 0.09,-0.11 0.03,-0.01 0.08,-0.02 0.14,-0.01 0.06,-0 0.09,0.02 0.09,0.07 -0,0.01 -0,0.03 0.01,0.04 0.01,0.01 0.02,0.02 0.04,0.01 0.01,-0.01 0.03,-0.01 0.05,-0.02 0.02,-0.01 0.03,-0.02 0.04,-0.03 0.02,-0.04 0.04,-0.09 0.06,-0.14 0.02,-0.06 0.05,-0.11 0.06,-0.15 0.02,-0.04 0.04,-0.1 0.06,-0.15 0.05,-0.1 0.11,-0.17 0.16,-0.21 0.05,-0.04 0.13,-0.06 0.24,-0.07 0.06,-0.01 0.11,-0 0.14,0.02 0.03,0.03 0.06,0.05 0.1,0.09 0.01,0.04 0.02,0.06 0.03,0.07 0.14,0.06 0.22,0.14 0.26,0.24 0.04,0.11 0.05,0.22 0.03,0.36 -0.02,0.23 -0.05,0.45 -0.08,0.68 -0.03,0.22 -0.07,0.45 -0.11,0.67 -0.04,0.17 -0.08,0.34 -0.12,0.51 -0.05,0.17 -0.09,0.34 -0.12,0.52 -0.02,0.1 -0.04,0.19 -0.04,0.29 -0,0.1 -0.02,0.19 -0.03,0.28 -0.01,0.06 0.02,0.08 0.08,0.05l0.49 -0.18c0.01,-0.01 0.02,-0 0.03,0 0.01,0.01 0.02,0.01 0.03,0 -0.01,0.02 -0.02,0.03 -0.04,0.03l-0.35 0.24 -0.04 0.03c0.01,-0.01 0.02,-0.01 0.03,-0 0,0 0.01,0.01 0.02,0l0.12 -0.04c0.01,-0 0.02,-0 0.03,-0 0.01,0 0.03,0 0.04,0l-0.06 0.04c-0.03,0.02 -0.07,0.03 -0.09,0.05 -0.03,0.01 -0.05,0.03 -0.08,0.05l-0.16 0.12c0.02,-0.01 0.05,-0.02 0.08,-0.02 0.03,-0.01 0.07,-0.02 0.1,-0.04 0.09,-0.03 0.17,-0.06 0.26,-0.09 0.09,-0.03 0.17,-0.07 0.25,-0.1 0.01,-0 0.01,-0 0.02,-0 0,0 0.01,0 0.02,-0l0.01 -0c0.01,0.02 -0.01,0.04 -0.03,0.06 -0.11,0.06 -0.22,0.12 -0.32,0.18 -0.1,0.06 -0.21,0.12 -0.32,0.17 -0.08,0.04 -0.13,0.08 -0.15,0.12 -0.03,0.04 -0.04,0.09 -0.05,0.15l-0.14 1.83 -0.01 0.06c0,0.01 -0,0.02 -0.02,0.03 0,0 -0,-0 -0.01,-0.01l-0 -0.01c-0.01,-0.1 -0.02,-0.2 -0.04,-0.3 -0.01,-0.09 -0.02,-0.2 -0.02,-0.3 -0.01,-0.1 -0.01,-0.2 -0.01,-0.29 0,-0.09 0,-0.18 -0.01,-0.27 -0,-0.01 -0.01,-0.02 -0.03,-0.04 -0.01,0.03 -0.01,0.04 -0.02,0.03 -0.01,0.03 -0.01,0.07 -0.02,0.12 -0.04,0.24 -0.08,0.49 -0.12,0.73 -0.04,0.25 -0.08,0.49 -0.11,0.75l-0.02 0.12c0,0 -0.01,0.01 -0.02,0.02 -0.03,0.01 -0.04,0.01 -0.05,-0 -0.03,-0.04 -0.05,-0.09 -0.08,-0.13 -0.03,-0.05 -0.04,-0.09 -0.06,-0.14 -0.02,-0.16 -0.05,-0.31 -0.07,-0.45 -0.03,-0.15 -0.05,-0.3 -0.07,-0.44l-0.04 -0.48c-0,-0.01 -0.01,-0.02 -0.01,-0.02 -0,-0 -0.01,-0.01 -0.01,-0.02 0,0.01 -0,0.03 -0.01,0.06 -0.02,0.25 -0.04,0.48 -0.05,0.72 -0.02,0.23 -0.03,0.46 -0.03,0.7 -0.01,0.1 -0.01,0.2 -0.01,0.3 0,0.1 -0,0.2 -0.01,0.3l0.01 0.04c-0.02,-0.02 -0.03,-0.03 -0.03,-0.04 -0.02,-0.17 -0.03,-0.34 -0.05,-0.51 -0.02,-0.17 -0.03,-0.34 -0.03,-0.52l0 -1.32c-0,-0.01 -0,-0.01 0,-0.02 0,-0.01 0,-0.02 -0,-0.03 0,-0.05 -0.02,-0.06 -0.08,-0.04l-0.31 0.11zm0.03 -0.67l0.01 -0c0.04,-0.02 0.08,-0.03 0.12,-0.04 0.04,-0.01 0.08,-0.02 0.11,-0.04 0.06,-0.02 0.1,-0.04 0.11,-0.06 0.01,-0.01 0.02,-0.05 0.02,-0.11l0.02 -0.22c0.02,-0.19 0.04,-0.38 0.05,-0.57 0.02,-0.19 0.04,-0.38 0.05,-0.56 0,-0.01 0,-0.02 -0.01,-0.03 -0.01,-0.01 -0.01,-0.01 -0.02,-0.03 -0.01,0.01 -0.01,0.02 -0.02,0.02 -0.01,0.01 -0.02,0.02 -0.02,0.03 -0.08,0.23 -0.18,0.46 -0.3,0.68 -0.11,0.22 -0.23,0.45 -0.35,0.67 -0.03,0.06 -0.07,0.11 -0.1,0.16 -0.03,0.05 -0.05,0.11 -0.05,0.17l0.36 -0.08zm0.18 0.17c-0.03,0.01 -0.06,0.02 -0.08,0.04 -0.03,0.01 -0.06,0.02 -0.08,0.04 -0.03,0.02 -0.04,0.03 -0.05,0.04 0.03,0.01 0.04,0.01 0.05,0.01 0.05,-0.01 0.1,-0.03 0.14,-0.04 0.04,-0.02 0.09,-0.03 0.14,-0.05 0.01,-0.01 0.02,-0.01 0.03,-0.02 0.01,-0.01 0.01,-0.02 0.03,-0.03 -0.02,-0 -0.03,-0 -0.03,-0.01 -0,-0 -0.01,-0 -0.03,0l-0.11 0.04zm-15.51 7.73c-0.04,-0.26 -0.06,-0.51 -0.07,-0.77 -0.01,-0.26 -0.01,-0.52 -0.01,-0.78 -0,-0.17 -0,-0.35 0,-0.51 0,-0.17 0.01,-0.34 0.01,-0.52 0.01,-0 0.01,-0.01 0,-0.02 -0.01,-0.01 -0.02,-0.01 -0.03,-0.01 -0.03,0.01 -0.04,0.02 -0.04,0.02l-0.1 0.18c-0.18,0.27 -0.37,0.53 -0.56,0.8 -0.19,0.26 -0.36,0.52 -0.54,0.78 -0.06,0.09 -0.12,0.17 -0.18,0.23 -0.06,0.07 -0.12,0.14 -0.18,0.21 -0.1,0.09 -0.2,0.13 -0.3,0.14 -0.02,-0 -0.05,-0.01 -0.08,-0.01 -0.03,-0.01 -0.05,-0.02 -0.05,-0.05 -0.03,-0.04 -0.05,-0.09 -0.08,-0.14 -0.03,-0.05 -0.06,-0.1 -0.09,-0.15 -0.01,-0.03 -0.02,-0.06 -0.03,-0.09 -0.01,-0.03 -0.02,-0.06 -0.04,-0.09 -0.09,-0.13 -0.19,-0.26 -0.29,-0.39 -0.1,-0.13 -0.21,-0.26 -0.31,-0.39 -0.01,0 -0.01,0 -0.01,-0 -0,-0.01 -0,-0.01 -0.01,-0.01 -0,0 -0.01,-0 -0.01,-0.01 -0.03,0.02 -0.04,0.04 -0.05,0.05 -0.01,0.04 -0.01,0.08 -0.01,0.11 -0,0.04 -0.01,0.07 -0.02,0.1 -0.04,0.27 -0.08,0.54 -0.12,0.81 -0.03,0.27 -0.07,0.53 -0.12,0.8 -0,0.05 -0.01,0.1 -0.02,0.16 -0.01,0.05 -0.02,0.11 -0.02,0.16 -0,0.01 -0.01,0.03 -0.02,0.04 -0.01,0.01 -0.02,0.02 -0.02,0.03 -0,-0.01 -0.01,-0.02 -0.02,-0.03 -0.01,-0.01 -0.01,-0.02 -0.01,-0.03 0,-0.13 0,-0.25 -0,-0.38 -0,-0.13 -0,-0.26 0.01,-0.39 -0.01,-0.1 -0.01,-0.19 0,-0.29 0.01,-0.1 0.01,-0.2 0.01,-0.3l-0.01 -0.06c-0,0.01 -0.02,0.04 -0.05,0.08 -0.01,0.05 -0.02,0.1 -0.02,0.15 -0,0.05 -0.01,0.1 -0.02,0.15 -0.08,0.39 -0.16,0.77 -0.23,1.15 -0.07,0.38 -0.15,0.76 -0.24,1.14 -0.01,0.03 -0.02,0.05 -0.02,0.08 -0.01,0.02 -0.02,0.05 -0.03,0.09 0,0.01 -0,0.02 -0.01,0.03 -0.01,0.01 -0.02,0.02 -0.02,0.04 -0,-0.01 -0.01,-0.02 -0.01,-0.03 -0.01,-0.01 -0.01,-0.02 -0,-0.03 0,-0.03 0,-0.06 0,-0.09 0,-0.03 0,-0.05 0,-0.09 0.04,-0.19 0.07,-0.37 0.09,-0.55 0.02,-0.17 0.05,-0.36 0.09,-0.55 0,-0.03 0,-0.06 0.01,-0.1 0,-0.03 0,-0.06 0,-0.08 0,-0.03 -0,-0.04 -0.01,-0.05 -0.01,-0.01 -0.01,-0.02 -0.01,-0.03 0,0 -0,0.01 -0.01,0.04 -0.01,0.03 -0.02,0.07 -0.03,0.11 -0.01,0.04 -0.02,0.07 -0.03,0.11 -0.04,0.18 -0.08,0.36 -0.12,0.54 -0.04,0.18 -0.08,0.36 -0.13,0.54 -0,0.03 -0.01,0.05 -0.01,0.08 -0.01,0.03 -0.01,0.04 -0.03,0.05 -0.04,0 -0.06,-0.01 -0.07,-0.03 -0.01,-0.02 -0.01,-0.05 -0.01,-0.08 -0.01,-0.02 -0.01,-0.05 -0.01,-0.08 -0,-0.03 -0.01,-0.06 -0.02,-0.09 0,-0.03 0,-0.05 0,-0.07 -0,-0.02 -0.03,-0.04 -0.07,-0.04 -0.04,-0.02 -0.07,-0.05 -0.07,-0.09 -0.01,-0.04 -0.01,-0.09 -0,-0.14 0,-0.13 0,-0.25 -0,-0.38 -0,-0.13 -0,-0.25 -0,-0.38 0.03,-0.66 0.08,-1.31 0.13,-1.96 0.06,-0.65 0.13,-1.31 0.23,-1.97 0.01,-0.12 0.02,-0.23 0.02,-0.33 0,-0.1 -0.01,-0.21 -0.05,-0.33 -0.04,-0.09 -0.05,-0.18 -0.05,-0.27 0.01,-0.09 0.02,-0.19 0.03,-0.28 0,-0.06 0.04,-0.11 0.13,-0.14 0.08,-0.02 0.15,-0.03 0.21,-0.03 0.06,0 0.12,0.03 0.18,0.08 0.08,0.06 0.18,0.11 0.3,0.15 0.03,0.02 0.05,0.02 0.06,0.01 0.01,-0.01 0.02,-0.03 0.03,-0.06 0.03,-0.06 0.06,-0.09 0.09,-0.09 0.03,-0.01 0.06,0 0.12,0.03 0.14,0.09 0.24,0.21 0.29,0.36 0.13,0.3 0.26,0.61 0.4,0.91 0.13,0.31 0.26,0.61 0.4,0.92 0.01,0.03 0.02,0.05 0.03,0.07 0.03,0.05 0.05,0.04 0.07,-0.01 0.01,-0 0.02,0.02 0.05,0.06 0.03,0.04 0.05,0.09 0.08,0.14 0.03,0.05 0.05,0.09 0.07,0.13 0.02,0.04 0.03,0.05 0.04,0.05 0.15,-0.29 0.31,-0.6 0.45,-0.9 0.15,-0.31 0.3,-0.62 0.45,-0.93 0.15,-0.31 0.31,-0.62 0.48,-0.92 0.16,-0.3 0.34,-0.59 0.52,-0.87 0.05,-0.07 0.1,-0.15 0.15,-0.26 0.05,-0.11 0.1,-0.19 0.15,-0.26 0.04,-0.04 0.07,-0.08 0.11,-0.12 0.03,-0.03 0.07,-0.06 0.12,-0.08 0.09,-0.03 0.16,-0.05 0.21,-0.08 0.05,-0.03 0.11,-0.02 0.18,0.02 0.04,0.04 0.08,0.05 0.13,0.05 0.03,0.02 0.04,0.03 0.04,0.04 -0,0.05 0,0.09 0.02,0.1 0.03,0.04 0.07,0.08 0.11,0.1 0.04,0.02 0.07,0.05 0.1,0.06 0.03,0.02 0.05,0.04 0.08,0.07 0.03,0.03 0.05,0.07 0.07,0.12 0,0.01 0,0.03 0,0.07 0,0.03 -0,0.07 -0,0.11 -0,0.04 -0,0.08 -0,0.11 0,0.04 0.01,0.06 0.02,0.08 0.06,0.08 0.07,0.17 0.04,0.26 -0.16,0.46 -0.29,0.92 -0.37,1.39 -0.09,0.46 -0.18,0.93 -0.27,1.4 -0.08,0.41 -0.15,0.82 -0.19,1.22 -0.05,0.4 -0.08,0.8 -0.1,1.19 -0,0.03 -0,0.05 -0,0.06 0,0.02 -0,0.03 -0,0.05 0,0.02 -0,0.03 -0.03,0.04 -0,-0.01 -0,-0.01 -0.01,-0.02 -0,-0 -0.01,-0.01 -0.01,-0.02 -0.01,-0.05 -0.01,-0.11 -0.02,-0.15 -0.01,-0.05 -0.01,-0.1 -0.02,-0.15 -0,-0.01 -0.01,-0.02 -0.01,-0.02 -0,-0 -0.01,-0.01 -0.01,-0.02 -0.01,0.01 -0.01,0.03 -0.02,0.05 -0.01,0.07 -0.01,0.14 -0.02,0.2 -0,0.06 -0.01,0.13 -0.01,0.19 0,0.01 0,0.03 -0,0.06 -0.01,0.03 -0.01,0.05 -0.02,0.07 -0.01,-0.02 -0.02,-0.04 -0.04,-0.06 -0.02,-0.01 -0.03,-0.03 -0.02,-0.04 -0.01,-0.09 -0.01,-0.18 -0.02,-0.27 -0.01,-0.09 -0.01,-0.18 -0.02,-0.26 -0,-0.18 -0,-0.36 0,-0.53 0.01,-0.17 0.01,-0.35 0,-0.53 0.01,-0 0.01,-0.01 0,-0.02 -0.01,-0.01 -0.01,-0.02 -0.01,-0.03 -0,0.01 -0.01,0.02 -0.01,0.03 -0,0.01 -0.01,0.02 -0.02,0.04 -0.01,0.02 -0.02,0.04 -0.02,0.07 -0.01,0.03 -0.01,0.05 -0.02,0.08 -0.04,0.24 -0.08,0.48 -0.12,0.73 -0.04,0.25 -0.08,0.49 -0.11,0.73 0,0.02 0.01,0.04 0.01,0.05 0,0.02 -0.01,0.04 -0.02,0.05 -0,0.01 -0.02,0.04 -0.05,0.08 -0.02,-0.02 -0.03,-0.04 -0.04,-0.05 -0.03,-0.06 -0.05,-0.13 -0.07,-0.19 -0.01,-0.06 -0.03,-0.13 -0.06,-0.19zm-2.54 -2.55c0,0.01 0,0.02 0,0.04 -0,0.01 0,0.02 0,0.04 0.04,0.1 0.08,0.21 0.11,0.3 0.03,0.1 0.07,0.19 0.1,0.29 0.02,0.04 0.03,0.07 0.04,0.11 0.01,0.03 0.02,0.07 0.03,0.11 0,0.02 0.02,0.02 0.04,0.01 0.01,-0.01 0.03,-0.02 0.04,-0.03 0.01,-0.03 0.02,-0.07 0.03,-0.1 0.01,-0.04 0.01,-0.06 -0,-0.08 -0.06,-0.11 -0.12,-0.22 -0.18,-0.33 -0.06,-0.11 -0.12,-0.22 -0.18,-0.33 -0.01,-0.01 -0.02,-0.01 -0.02,-0.02 -0,-0 -0.01,-0.01 -0.02,-0.02zm0.54 0.36c-0.06,-0.11 -0.12,-0.22 -0.18,-0.33 -0.06,-0.11 -0.12,-0.22 -0.18,-0.32 -0,-0.01 -0.01,-0.02 -0.03,-0.03 -0.01,0.02 -0.01,0.03 -0,0.04 0.03,0.08 0.07,0.16 0.1,0.24 0.03,0.08 0.07,0.16 0.1,0.23 0.02,0.04 0.04,0.09 0.06,0.14 0.02,0.05 0.04,0.09 0.06,0.14 0,0.02 0.01,0.02 0.03,0.02 0.01,-0.01 0.01,-0.01 0.02,-0.02 0.01,-0 0.01,-0.01 0.01,-0.02 0.02,-0.03 0.03,-0.05 0.03,-0.08zm12.9 -6.17c0.03,0.13 0.05,0.25 0.05,0.36 -0,0.11 -0.01,0.22 -0.03,0.34 -0.07,0.47 -0.21,0.93 -0.43,1.37 -0.22,0.44 -0.53,0.87 -0.91,1.29 -0.24,0.26 -0.48,0.52 -0.73,0.78 -0.25,0.26 -0.49,0.51 -0.74,0.77 -0.14,0.15 -0.29,0.29 -0.43,0.43 -0.14,0.14 -0.28,0.28 -0.43,0.42 -0.04,0.04 -0.08,0.08 -0.12,0.11 -0.04,0.03 -0.08,0.06 -0.12,0.09 -0.01,0.01 -0.02,0.02 -0.03,0.02 -0.01,-0 -0.02,0 -0.03,0.01 0.01,-0 0.02,-0.02 0.03,-0.06 0.04,-0.04 0.07,-0.07 0.1,-0.11 0.03,-0.03 0.06,-0.07 0.1,-0.12 0.09,-0.11 0.18,-0.22 0.27,-0.32 0.09,-0.1 0.18,-0.21 0.26,-0.31 0,-0.01 0.02,-0.03 0.04,-0.05 0.02,-0.03 0.04,-0.06 0.05,-0.08 0.01,-0.02 0.02,-0.04 0.03,-0.05 -0.02,0.01 -0.04,0.03 -0.07,0.04 -0.02,0.01 -0.05,0.02 -0.07,0.04 -0.03,0.02 -0.05,0.05 -0.09,0.08 -0.03,0.03 -0.06,0.06 -0.1,0.09 -0.07,0.06 -0.14,0.12 -0.21,0.18 -0.07,0.06 -0.15,0.12 -0.23,0.17 -0.01,0.02 -0.03,0.03 -0.05,0.04 -0.02,0.01 -0.05,0.02 -0.09,0.04 0.04,-0.05 0.07,-0.09 0.07,-0.13 0.06,-0.07 0.11,-0.13 0.15,-0.19 0.02,-0.01 0.03,-0.02 0.02,-0.05 -0,-0.01 -0.01,-0.02 -0.03,-0.01 -0.01,0.01 -0.03,0.01 -0.04,0.02 -0.09,0.03 -0.16,0.07 -0.19,0.11 -0.03,0.04 -0.06,0.1 -0.07,0.17 -0.01,0.13 -0.02,0.26 -0.04,0.38 -0.02,0.13 -0.03,0.25 -0.05,0.38 -0,0.02 -0.01,0.04 -0.01,0.05 -0,0.01 -0.01,0.03 -0.01,0.04 -0,-0.01 -0.01,-0.02 -0.02,-0.04 -0.01,-0.01 -0.01,-0.03 -0.01,-0.05 -0,-0.12 -0.01,-0.24 -0.01,-0.36 -0,-0.12 -0,-0.25 -0,-0.37 0,-0.02 0.01,-0.04 0.01,-0.06 0,-0.02 -0.02,-0.03 -0.05,-0.03 -0.04,0.01 -0.09,0.02 -0.12,0.04 -0.04,0.01 -0.07,0.05 -0.1,0.09 -0.01,0.04 -0.01,0.07 -0.02,0.08 -0.01,0.05 -0.02,0.09 -0.02,0.12 0,0.03 -0.03,0.07 -0.1,0.1 -0.01,0.01 -0.03,0.03 -0.04,0.07 -0.01,0.04 -0.02,0.07 -0.03,0.1 -0.03,0.13 -0.06,0.26 -0.09,0.39 -0.03,0.13 -0.06,0.26 -0.1,0.4 -0.01,0.03 -0.02,0.06 -0.03,0.09 -0.01,0.03 -0.02,0.06 -0.02,0.1 -0.01,0.01 -0.03,0.02 -0.05,0.03 -0.01,0 -0.01,0 -0.02,-0 -0.01,-0 -0.01,-0.01 -0.02,-0.02 -0.01,-0.02 -0.01,-0.05 -0.02,-0.08 -0.01,-0.03 -0.01,-0.06 0,-0.09 -0.01,-0.19 -0.01,-0.38 -0.02,-0.57 -0.01,-0.19 0,-0.38 0.02,-0.57 0.03,-0.58 0.07,-1.16 0.11,-1.73 0.04,-0.57 0.09,-1.15 0.13,-1.73 0,-0.05 0,-0.1 -0,-0.14 -0.01,-0.04 -0.03,-0.08 -0.08,-0.11 -0.17,-0.13 -0.2,-0.33 -0.09,-0.59 0.03,-0.07 0.07,-0.14 0.11,-0.2 0.04,-0.07 0.09,-0.14 0.13,-0.2 0.07,-0.11 0.12,-0.21 0.12,-0.32 0.03,-0.19 0.06,-0.38 0.09,-0.57 0.03,-0.19 0.05,-0.38 0.07,-0.57 0.02,-0.03 0.03,-0.06 0.03,-0.08 0.01,-0.04 0.02,-0.08 0.02,-0.12 0,-0.04 0.03,-0.07 0.09,-0.09 0.06,-0.01 0.12,-0.03 0.18,-0.05 0.06,-0.02 0.12,-0 0.17,0.04 0.02,0.01 0.03,0.02 0.05,0.04 0.01,0.01 0.03,0.03 0.04,0.04 0.01,0.01 0.02,0.02 0.03,0.04 0.01,0.02 0.02,0.02 0.04,0.02 0.07,0.01 0.11,0.04 0.13,0.09 0.02,0.05 0.05,0.09 0.07,0.14 0.01,0 0.01,0.01 0.01,0.02 -0,0.01 0,0.02 0.01,0.03 0.01,0.02 0.02,0.05 0.01,0.08 -0,0.03 0.03,0.05 0.09,0.05 0.01,-0.03 0.02,-0.06 0.03,-0.09 0.01,-0.03 0.02,-0.05 0.03,-0.08 0.04,-0.1 0.1,-0.13 0.17,-0.08 0.04,0.03 0.07,0.05 0.09,0.05 0.02,0 0.06,-0.01 0.12,-0.05 0.36,-0.19 0.73,-0.34 1.13,-0.44 0.42,-0.08 0.77,-0.08 1.05,0.02 0.28,0.1 0.51,0.3 0.7,0.61 0.03,0.05 0.05,0.11 0.07,0.16 0.02,0.06 0.04,0.1 0.06,0.14zm-1.93 0.21c-0.21,0.08 -0.42,0.18 -0.61,0.3 -0.2,0.12 -0.39,0.25 -0.57,0.39 -0.05,0.05 -0.09,0.1 -0.13,0.15 -0.03,0.05 -0.05,0.11 -0.05,0.17 -0.09,0.48 -0.17,0.96 -0.26,1.43 -0.09,0.47 -0.17,0.94 -0.25,1.42 -0.02,0.11 -0.04,0.21 -0.05,0.31 -0.01,0.1 -0.02,0.2 -0.04,0.3 0.13,-0.06 0.24,-0.14 0.32,-0.23 0.08,-0.09 0.18,-0.18 0.28,-0.27 0.03,-0.03 0.06,-0.07 0.1,-0.11 0.03,-0.04 0.06,-0.08 0.09,-0.12 0.29,-0.43 0.58,-0.86 0.86,-1.29 0.28,-0.43 0.55,-0.87 0.81,-1.32 0.12,-0.2 0.2,-0.4 0.24,-0.59 0.04,-0.19 0.06,-0.39 0.05,-0.59 0,-0.08 -0.04,-0.12 -0.14,-0.11 -0.11,0.02 -0.22,0.05 -0.33,0.07 -0.11,0.03 -0.21,0.05 -0.32,0.08zm-0.01 -0.42c-0.03,0.02 -0.05,0.04 -0.07,0.04 0.02,0.01 0.04,0.02 0.05,0.04 0.03,0.01 0.07,0.01 0.11,0.02 0.04,0.01 0.08,0.02 0.1,0.04 0.06,0.05 0.13,0.08 0.21,0.07 0.08,-0 0.16,-0.01 0.25,-0.01 0.05,-0 0.07,-0.01 0.08,-0.03 0.01,-0.02 0.02,-0.04 0.03,-0.06 0,-0.05 -0.02,-0.09 -0.07,-0.11 -0.05,-0.02 -0.11,-0.02 -0.17,-0.01 -0.04,0.01 -0.07,0.02 -0.09,0.03 -0.02,0.01 -0.04,0.01 -0.06,-0.02 -0.04,-0.05 -0.09,-0.06 -0.16,-0.05 -0.06,0.01 -0.12,0.02 -0.16,0.03l-0.05 0.02zm-0.48 3.47c0.01,-0 0.01,-0.01 0.02,-0.02 0.11,-0.12 0.22,-0.25 0.32,-0.37 0.11,-0.13 0.18,-0.26 0.24,-0.41 0.01,-0.01 0.01,-0.02 0,-0.03l-0.03 0.01c-0.1,0.14 -0.19,0.27 -0.28,0.4 -0.09,0.13 -0.19,0.25 -0.29,0.38 -0.01,0.01 -0.01,0.02 -0,0.04l0.02 0zm1.81 -2.81c-0.03,-0.01 -0.05,-0.03 -0.07,-0.06 -0.01,0.02 -0.02,0.03 -0.03,0.04 -0.01,0.01 -0.01,0.02 -0.01,0.03 -0.03,0.09 -0.06,0.18 -0.09,0.25 -0.02,0.07 -0.05,0.16 -0.07,0.25 -0,0.02 -0,0.04 0,0.06 0.01,0.02 0.01,0.04 0.01,0.06 0.01,-0.02 0.02,-0.04 0.03,-0.06 0.01,-0.02 0.02,-0.04 0.04,-0.06 0.03,-0.05 0.05,-0.11 0.07,-0.16 0.02,-0.06 0.04,-0.11 0.07,-0.17 0.01,-0.02 0.02,-0.05 0.03,-0.08 0.01,-0.03 0.02,-0.06 0.02,-0.1zm-1.61 -0.37c-0.01,0.01 -0.04,0.01 -0.07,0.03 -0.04,0.01 -0.07,0.03 -0.09,0.04 -0.03,0.02 -0.06,0.05 -0.1,0.06 -0.03,0.02 -0.06,0.04 -0.1,0.06 0.04,-0.01 0.07,-0.02 0.1,-0.03 0.03,-0.01 0.07,-0.01 0.09,-0.02 0.09,-0.03 0.19,-0.06 0.28,-0.09 0.09,-0.03 0.19,-0.06 0.3,-0.1 0.01,-0 0.01,-0.01 0.01,-0.01 0,-0 0.01,-0.01 0.03,-0.01 -0.02,-0.01 -0.03,-0.01 -0.03,-0.02 -0,-0.01 -0.01,-0.01 -0.01,-0.01 -0.06,-0.01 -0.13,-0 -0.2,0.01 -0.07,0.02 -0.14,0.04 -0.22,0.08zm1.61 -0.01c-0.01,0.01 -0.02,0.02 -0.02,0.03 -0,0.01 -0.01,0.01 -0.01,0.02 -0,0.03 0,0.05 0,0.07 0,0.02 0.01,0.04 0.01,0.05 0,0 0.01,0.01 0.03,0.03 -0,-0.01 0,-0.02 0.02,-0.03 0.01,-0.02 0.01,-0.04 0.01,-0.06 -0,-0.02 -0,-0.04 0.01,-0.06l-0.04 -0.04zm-3.72 5.01c0.01,-0.01 0.01,-0.02 0,-0.03 0.01,-0.03 0.01,-0.07 0.01,-0.1 -0,-0.03 -0,-0.07 -0,-0.1 0,0 -0,-0 -0.01,-0 -0.01,0.04 -0.02,0.07 -0.02,0.1 -0,0.03 -0,0.06 -0.01,0.1 -0.01,0 0,0.01 0.03,0.04zm4.49 -0.21c-0.01,-0.09 -0.01,-0.19 -0.01,-0.3 -0,-0.11 0,-0.22 0.02,-0.33 0.03,-1.35 0.16,-2.7 0.38,-4.06 0.06,-0.35 0.13,-0.69 0.21,-1.04 0.08,-0.35 0.18,-0.69 0.3,-1.04 0.01,-0.04 0.03,-0.08 0.04,-0.11 0.02,-0.03 0.03,-0.07 0.04,-0.11 0.03,-0.08 0.09,-0.14 0.2,-0.18 0.11,-0.04 0.19,-0.03 0.25,0.02 0.05,0.03 0.09,0.06 0.12,0.09 0.03,0.03 0.06,0.07 0.09,0.1 0.02,0.04 0.04,0.05 0.06,0.05 0.02,-0 0.05,-0.03 0.09,-0.07 0.05,-0.06 0.1,-0.06 0.16,-0.02 0.01,0.01 0.03,0.03 0.04,0.03 0.02,0.01 0.03,0.01 0.05,0.02 0.05,0.03 0.07,0.02 0.07,-0.03 -0.01,0 0,-0.01 0.03,-0.03 0.02,-0.04 0.04,-0.08 0.06,-0.12 0.02,-0.04 0.06,-0.07 0.12,-0.09 0.06,-0.02 0.11,0.01 0.17,0.07 0.05,0.06 0.07,0.12 0.07,0.18 -0.01,0.05 -0.03,0.1 -0.04,0.15 -0.02,0.05 -0.04,0.11 -0.07,0.16 -0.16,0.47 -0.32,0.94 -0.49,1.4 -0.17,0.46 -0.32,0.93 -0.44,1.4 -0.17,0.61 -0.32,1.21 -0.45,1.8 -0.13,0.59 -0.21,1.19 -0.25,1.78 -0.01,0.02 -0.02,0.04 -0.02,0.06 -0,0.02 -0.01,0.04 -0.02,0.06 0,0.01 0,0.01 -0,0.01 -0,0 -0,0.01 -0,0.01l0 0.01c-0.01,-0.01 -0.02,-0.01 -0.03,-0.01 -0.01,-0 -0.01,-0 -0.01,-0.01 -0.01,-0.04 -0.01,-0.08 -0.02,-0.12 -0,-0.04 -0,-0.08 -0.01,-0.13 -0,-0.4 0.02,-0.8 0.08,-1.2 0.05,-0.4 0.12,-0.8 0.19,-1.21 0.01,-0.07 0.02,-0.13 0.03,-0.18 0.01,-0.06 0.02,-0.11 0.02,-0.16 -0,-0.01 -0,-0.01 -0.01,-0.03 -0,-0.01 -0,-0.02 0,-0.04 -0.02,0.03 -0.04,0.06 -0.05,0.08 -0.02,0.07 -0.04,0.14 -0.06,0.2 -0.02,0.06 -0.03,0.12 -0.03,0.18 -0.07,0.26 -0.13,0.53 -0.17,0.79 -0.04,0.26 -0.1,0.52 -0.16,0.78 -0.01,0.03 -0.02,0.06 -0.03,0.09 -0.01,0.03 -0.01,0.06 -0.01,0.09l-0.02 0.01c-0.01,0 -0.01,0 -0.02,-0 -0.01,-0 -0.01,-0.01 -0.01,-0.01 0,-0.03 0,-0.06 0,-0.09 0,-0.03 -0,-0.06 -0.01,-0.07 0.03,-0.19 0.06,-0.39 0.08,-0.58 0.02,-0.2 0.04,-0.39 0.06,-0.58 0,-0.01 0,-0.03 -0,-0.04 -0.01,-0.01 -0.01,-0.03 -0.02,-0.05 -0.02,0.04 -0.03,0.07 -0.02,0.1 -0.05,0.24 -0.1,0.47 -0.14,0.7 -0.04,0.23 -0.09,0.46 -0.13,0.71 -0.03,0.15 -0.05,0.31 -0.07,0.48 -0.02,0.16 -0.04,0.33 -0.07,0.5 -0.01,0.03 -0.03,0.06 -0.06,0.09 -0,-0.01 -0.01,-0.01 -0.02,-0.02 -0.01,-0.01 -0.02,-0.02 -0.03,-0.03l-0.02 -0.1zm-24.41 6.41c-0.03,0.02 -0.05,0.04 -0.07,0.06 -0.06,0.29 -0.13,0.58 -0.2,0.87 -0.07,0.29 -0.13,0.58 -0.2,0.87 -0.01,0.02 -0.01,0.03 -0.01,0.05 0.01,0.02 0.01,0.03 0.02,0.04 0.01,-0.01 0.03,-0.02 0.05,-0.02 0.02,-0 0.04,-0.02 0.05,-0.03 0.2,-0.2 0.4,-0.39 0.61,-0.58 0.21,-0.19 0.41,-0.39 0.6,-0.58 0.16,-0.17 0.31,-0.33 0.44,-0.5 0.13,-0.17 0.25,-0.35 0.37,-0.54 0.04,-0.08 0.08,-0.16 0.12,-0.23 0.04,-0.08 0.08,-0.16 0.12,-0.24 0.03,-0.07 0.04,-0.13 0.02,-0.19 -0.01,-0.06 -0.06,-0.1 -0.12,-0.13 -0.03,-0.03 -0.06,-0.05 -0.1,-0.07 -0.04,-0.02 -0.07,-0.03 -0.1,-0.05 -0.05,-0.01 -0.1,-0.02 -0.15,-0.01 -0.05,0.01 -0.1,0.03 -0.15,0.08 -0.09,0.08 -0.17,0.15 -0.25,0.21 -0.08,0.07 -0.16,0.14 -0.24,0.22 -0.12,0.13 -0.24,0.27 -0.35,0.4 -0.11,0.13 -0.21,0.27 -0.28,0.41 -0.05,0.1 -0.11,0.12 -0.16,0.05 -0.01,-0.02 -0.02,-0.04 -0.03,-0.05 -0.01,-0.01 -0.01,-0.03 -0.01,-0.04 0.01,-0.03 0.02,-0.07 0.02,-0.1 0.01,-0.03 0.02,-0.06 0.04,-0.08 0.26,-0.33 0.57,-0.63 0.92,-0.89 0.03,-0.02 0.07,-0.05 0.1,-0.06 0.03,-0.02 0.07,-0.04 0.1,-0.07 0.02,-0.01 0.04,-0.03 0.06,-0.06 -0.01,0.01 -0.03,0.01 -0.03,0.01 -0.01,-0 -0.02,0 -0.03,0.01 -0.03,0.01 -0.06,0.02 -0.09,0.03 -0.03,0.01 -0.06,0.03 -0.09,0.04 -0.14,0.08 -0.27,0.17 -0.39,0.27 -0.12,0.1 -0.24,0.22 -0.34,0.35 -0.01,0.02 -0.02,0.05 -0.04,0.08 -0.02,0.03 -0.04,0.05 -0.06,0.08 -0.09,0.06 -0.15,0.12 -0.16,0.19 -0.02,0.07 -0.01,0.14 0,0.21zm2.04 -4.39c-0.15,0.09 -0.3,0.18 -0.45,0.27 -0.15,0.09 -0.3,0.17 -0.46,0.25 -0.16,0.09 -0.26,0.22 -0.31,0.39 -0.06,0.26 -0.13,0.51 -0.21,0.77 -0.07,0.26 -0.15,0.52 -0.22,0.78 0,0.01 0.01,0.02 0.01,0.02 0,0 0.01,0.02 0.01,0.03 0.05,-0.02 0.08,-0.04 0.1,-0.06 0.36,-0.29 0.7,-0.59 1.04,-0.9 0.34,-0.31 0.66,-0.63 0.98,-0.97 0.05,-0.06 0.09,-0.11 0.14,-0.18 0.04,-0.06 0.09,-0.12 0.14,-0.18 0.04,-0.05 0.06,-0.09 0.06,-0.12 -0,-0.03 -0.02,-0.06 -0.05,-0.1 -0.08,-0.07 -0.17,-0.11 -0.27,-0.12 -0.1,-0.01 -0.22,0.02 -0.36,0.08l-0.15 0.05zm-3.13 6.73c0.01,0.04 0.03,0.06 0.05,0.06l0.06 -0.02c0.05,-0.04 0.09,-0.08 0.12,-0.12 0.03,-0.04 0.04,-0.09 0.03,-0.14 0,-0.05 0.01,-0.1 0.01,-0.15 0,-0.05 0.01,-0.09 0.01,-0.15 -0,-0.07 0,-0.15 0.01,-0.22 0.01,-0.08 0.01,-0.15 0.01,-0.23 -0.07,0.08 -0.11,0.16 -0.14,0.24 -0.02,0.08 -0.05,0.16 -0.07,0.23 -0.03,0.09 -0.05,0.17 -0.06,0.25 -0.01,0.08 -0.03,0.17 -0.05,0.25zm3.12 -4.12c0,0.02 0,0.03 -0,0.04 -0.01,0.01 -0,0.02 0,0.02 0.04,0.04 0.07,0.07 0.1,0.1 0.03,0.03 0.06,0.06 0.09,0.1 0.04,0.05 0.1,0.04 0.17,-0.02 0.06,-0.06 0.07,-0.11 0.02,-0.14 -0.05,-0.02 -0.11,-0.04 -0.16,-0.05 -0.06,-0.01 -0.11,-0.03 -0.16,-0.05 0,0.01 -0.02,0.01 -0.06,0zm0.99 0.38c-0,-0.01 -0.01,-0.03 -0.02,-0.05 -0.01,-0.02 -0.02,-0.04 -0.04,-0.06 -0.04,0.03 -0.05,0.05 -0.04,0.07 0.02,0.02 0.02,0.04 0.01,0.07 -0,0.02 -0,0.04 0,0.06 0,0.02 0.01,0.04 0,0.06 0.01,0.03 0.01,0.06 0.01,0.08 0,0.03 0,0.06 0,0.09 0.05,-0.03 0.08,-0.07 0.07,-0.1 -0.01,-0.03 -0.01,-0.07 -0,-0.1 0.01,-0.03 0.01,-0.07 -0.01,-0.12zm-1.62 -2.85c-0.03,0.02 -0.08,0.04 -0.14,0.07 -0.06,0.03 -0.11,0.06 -0.17,0.11 -0.03,0.01 -0.06,0.03 -0.08,0.06 -0.02,0.03 -0.04,0.05 -0.03,0.06 0.02,0.04 0.05,0.05 0.08,0.02 0.03,-0.02 0.04,-0.04 0.06,-0.05 0.07,-0.05 0.15,-0.09 0.21,-0.13 0.07,-0.04 0.13,-0.09 0.2,-0.14 0.01,-0 0.01,-0.01 0,-0.03 0,0 -0.01,-0 -0.02,-0 0,0 -0.04,0.01 -0.11,0.04zm1.19 3.24c0,0 -0,-0 -0.01,-0.01l-0.01 -0c-0.02,0.01 -0.03,0.01 -0.03,0.02 -0.01,0.03 -0.02,0.07 -0.03,0.1 -0.02,0.03 -0.03,0.06 -0.03,0.1 0,0.01 0.01,0 0.03,-0l0.01 -0c0.02,-0.04 0.04,-0.07 0.05,-0.1 0.01,-0.03 0.02,-0.06 0.03,-0.09zm-2.24 -0.55c-0.01,0.02 -0.02,0.04 -0.04,0.06 -0.02,0.02 -0.03,0.04 -0.04,0.05 -0.01,0.02 -0.01,0.03 -0.01,0.04 0.01,0.01 0.01,0.02 0.01,0.03 0.01,-0.01 0.02,-0.02 0.02,-0.02 0,-0 0.01,-0.01 0.02,-0.02 0.01,-0.02 0.02,-0.03 0.03,-0.05 0.01,-0.02 0.02,-0.03 0.03,-0.05 -0,-0.01 -0.01,-0.03 -0.03,-0.04zm3.42 0.33c-0.07,-0.28 -0.09,-0.56 -0.09,-0.86 0.01,-0.29 0.05,-0.6 0.11,-0.9 0.19,-0.77 0.49,-1.52 0.89,-2.27 0.04,-0.07 0.09,-0.15 0.15,-0.22 0.05,-0.07 0.11,-0.14 0.16,-0.21 0.08,-0.1 0.18,-0.17 0.3,-0.21 0.08,-0.02 0.14,-0.03 0.19,-0.01 0.05,0.02 0.09,0.04 0.13,0.08 0.04,0.04 0.07,0.07 0.09,0.11 0.02,0.04 0.04,0.08 0.07,0.12 0.03,0.04 0.05,0.06 0.07,0.06 0.02,-0 0.05,-0.03 0.1,-0.08 0.22,-0.2 0.47,-0.36 0.73,-0.47 0.26,-0.12 0.53,-0.18 0.83,-0.18 0.17,0.01 0.33,0.07 0.48,0.18 0.16,0.12 0.29,0.27 0.4,0.43 0.1,0.16 0.16,0.34 0.16,0.54 0.03,0.67 -0.07,1.34 -0.31,2 -0.23,0.66 -0.56,1.32 -0.98,1.99 -0.09,0.15 -0.19,0.29 -0.29,0.42 -0.11,0.14 -0.23,0.27 -0.37,0.39 -0.16,0.16 -0.34,0.28 -0.54,0.37 -0.2,0.09 -0.39,0.14 -0.59,0.16 -0.2,0.02 -0.38,0.01 -0.56,-0.03 -0.18,-0.04 -0.33,-0.12 -0.46,-0.22 -0.11,-0.09 -0.19,-0.19 -0.26,-0.3 -0.07,-0.11 -0.14,-0.23 -0.2,-0.35 -0.04,-0.08 -0.08,-0.17 -0.1,-0.27 -0.03,-0.09 -0.06,-0.19 -0.1,-0.28zm1.13 -0.72c-0.04,0.05 -0.06,0.09 -0.04,0.12 0.02,0.03 0.03,0.06 0.06,0.09 -0.01,0.02 -0.02,0.03 -0.03,0.05 -0.01,0.02 -0.02,0.03 -0.01,0.04 0.01,0.03 0.02,0.06 0.03,0.08 0.01,0.03 0.02,0.05 0.04,0.08 -0.01,0.01 -0.02,0.02 -0.04,0.02 -0.01,0 -0.01,0.01 -0.01,0.02l0.02 0.1c-0,-0.01 -0,-0.04 0,-0.09l0.02 -0.06c0.01,-0.08 -0,-0.16 -0.02,-0.25 -0,-0.04 -0,-0.07 -0.01,-0.11 -0,-0.04 -0,-0.07 0,-0.11 -0,-0.01 -0,-0.03 0,-0.04 0,-0.02 0.01,-0.03 0.01,-0.05 -0,-0.01 -0.01,-0.01 -0.04,-0.02l0.01 0.03 0.02 0.1zm-0.18 0.1c-0.03,0.09 -0.04,0.18 -0.03,0.25 0.01,0.08 0.04,0.15 0.08,0.22 0,0.01 0.01,0.02 0.01,0.02 0,0 0.01,0.01 0.01,0.02 0,-0.01 0.01,-0.02 0.01,-0.03 -0,-0 0,-0.01 0.01,-0.03 -0.01,-0.08 -0.02,-0.15 -0.04,-0.23 -0.02,-0.07 -0.04,-0.15 -0.05,-0.23 0.02,-0.01 0.03,-0.03 0.02,-0.06l-0.01 -0.04c-0.01,0.03 -0.01,0.05 -0.01,0.05l0.01 0.05zm0.27 0.61c0.01,0.05 0.03,0.1 0.05,0.15 0.02,0.05 0.05,0.09 0.11,0.12 0.08,0.03 0.17,0.04 0.25,0.04 0.09,0 0.17,-0.02 0.26,-0.06 0.18,-0.09 0.35,-0.19 0.51,-0.31 0.16,-0.12 0.27,-0.27 0.33,-0.47 0,-0.01 0.01,-0.02 0.01,-0.02 0,-0 0.01,-0.01 0.01,-0.01 0.2,-0.38 0.37,-0.77 0.51,-1.14 0.15,-0.38 0.29,-0.76 0.44,-1.15 0.04,-0.1 0.08,-0.21 0.12,-0.32 0.03,-0.11 0.06,-0.22 0.09,-0.33 0.01,-0.07 0.02,-0.15 0.02,-0.23 0,-0.08 0,-0.16 0.01,-0.24 -0.01,-0.05 -0.03,-0.11 -0.06,-0.17 -0.02,-0.02 -0.06,-0.03 -0.11,-0.03 -0.05,0 -0.08,0.02 -0.09,0.06 -0.01,0.03 -0.02,0.06 -0.04,0.06 -0.02,0.01 -0.04,0.02 -0.06,0.03 -0.14,0.08 -0.29,0.18 -0.45,0.3 -0.15,0.12 -0.29,0.24 -0.41,0.36 -0.12,0.12 -0.21,0.25 -0.27,0.37 -0.06,0.12 -0.08,0.23 -0.06,0.33 0.01,0.03 -0.01,0.05 -0.04,0.07 -0.03,0.01 -0.06,0.01 -0.09,-0.01 -0.01,-0.01 -0.02,-0.02 -0.04,-0.03 -0.01,-0.01 -0.02,-0.02 -0.03,-0.03 -0.03,-0.06 -0.04,-0.12 -0.02,-0.17 0.01,-0.06 0.03,-0.11 0.06,-0.17 0.09,-0.16 0.19,-0.3 0.32,-0.43 0.13,-0.13 0.27,-0.25 0.43,-0.37 0.03,-0.02 0.05,-0.04 0.09,-0.06 0.03,-0.01 0.06,-0.03 0.1,-0.06 0.01,-0.01 0.02,-0.02 0.02,-0.04 0,-0.01 0.01,-0.03 0.02,-0.04 -0.01,0.01 -0.03,0.01 -0.04,0 -0.01,-0 -0.02,0 -0.04,0.01 -0.31,0.17 -0.57,0.39 -0.78,0.63 -0.04,0.04 -0.07,0.09 -0.1,0.13 -0.03,0.04 -0.06,0.09 -0.08,0.14 -0.15,0.29 -0.28,0.59 -0.39,0.89 -0.12,0.3 -0.21,0.6 -0.28,0.91 -0.01,0.05 -0.02,0.1 -0.03,0.15 -0.01,0.05 -0.02,0.09 -0.04,0.14 -0.01,0.01 -0.01,0.02 -0.01,0.02 -0,0.01 -0.01,0.01 -0.01,0.02 -0.01,-0.01 -0.02,-0.02 -0.02,-0.05 0.02,-0.19 0.04,-0.38 0.08,-0.57 0.04,-0.19 0.09,-0.38 0.15,-0.58 0.01,-0.07 0.02,-0.14 0.03,-0.21 -0.05,0.03 -0.07,0.06 -0.08,0.1 -0.01,0.04 -0.01,0.07 -0.02,0.11 -0.1,0.29 -0.18,0.57 -0.22,0.85 -0.04,0.28 -0.07,0.55 -0.09,0.83 -0,0.08 -0.01,0.17 -0.01,0.25 -0,0.08 0,0.16 0,0.24zm1.65 -0.58c0.02,-0.02 0.03,-0.04 0.04,-0.04 0.1,-0.14 0.19,-0.28 0.28,-0.42 0.09,-0.14 0.17,-0.28 0.25,-0.42 0.14,-0.24 0.26,-0.48 0.36,-0.72 0.11,-0.24 0.19,-0.49 0.26,-0.75 0.01,-0.02 0.01,-0.04 0.01,-0.06 -0,-0.01 -0,-0.04 0.01,-0.06 -0,-0.01 -0.01,-0.01 -0.01,-0.01 -0.01,-0 -0.01,-0.01 -0.02,-0.02l0.01 0.03c-0.02,0.02 -0.03,0.04 -0.02,0.06 -0.15,0.41 -0.33,0.8 -0.52,1.18 -0.2,0.38 -0.41,0.76 -0.65,1.15 -0,0.01 -0.01,0.02 -0,0.03 0,0.01 -0,0.02 -0.02,0.03 0.01,-0 0.01,0 0.02,0.02z"/>
  </g>
 </g>
</svg>
