<?xml version="1.0" encoding="UTF-8"?>
<!DOCTYPE svg PUBLIC "-//W3C//DTD SVG 1.1//EN" "http://www.w3.org/Graphics/SVG/1.1/DTD/svg11.dtd">
<!-- Creator: CorelDRAW -->
<svg xmlns="http://www.w3.org/2000/svg" xml:space="preserve" width="33.8301mm" height="16.894mm" version="1.1" style="shape-rendering:geometricPrecision; text-rendering:geometricPrecision; image-rendering:optimizeQuality; fill-rule:evenodd; clip-rule:evenodd"
viewBox="0 0 355.14 177.35"
 xmlns:xlink="http://www.w3.org/1999/xlink"
 xmlns:xodm="http://www.corel.com/coreldraw/odm/2003">
 <defs>
  <style type="text/css">
   <![CDATA[
    .fil0 {fill:black}
    .fil2 {fill:red}
    .fil1 {fill:white}
   ]]>
  </style>
 </defs>
 <g id="Camada_x0020_1">
  <metadata id="CorelCorpID_0Corel-Layer"/>
  <g id="_1859908083600">
   <path class="fil0" d="M355.14 49.52c0,9.73 -11.17,4.84 -11.17,4.84 -0.22,7.02 -6.54,12.08 -6.44,13.68 0.28,4.14 4.44,6.23 1.52,16.05 -0.64,2.12 -2.65,2.72 -1.94,4.42 3.66,8.81 -2.73,20.09 -7.18,27.36 -2.6,4.26 -9.89,6.01 -11.35,-2.76 -0.14,-0.85 -0.04,-2.23 -0.25,-2.86l-4.77 -0.42c-0.74,4.44 2.55,7.56 0.85,13.51 -0.99,3.54 -1.45,3.01 -3.08,4.77 -1.06,1.13 -0.28,1.52 -0.18,2.97 0.21,2.4 -0.39,1.7 -0.39,3.46 2.66,0.93 8.35,0.58 8.94,12.27 0.41,7.99 -2.71,1.49 0.85,11.35 1.7,4.72 -3.99,7.02 -1.56,8.06 0,1.27 1.31,4.84 -0.21,7.18 -3.82,5.83 -9.21,0.07 -11.42,2.93 -0.94,1.22 -20.52,0.07 -25.63,0.35 -3.46,0.21 -5.16,-2.12 -6.22,-2.4 -2.95,4.81 -8.66,1.24 -8.8,1.27 -1.17,0.64 0.04,0.64 -1.91,1.02 -5.78,1.16 -0.79,-1.25 -7.18,-0.32 -2.79,0.4 -6.36,-0.98 -6.36,-5.48 -1.17,-0.04 -3.04,-0.35 -3.85,0.11 -1.94,1.06 0.57,4.6 -5.52,5.3 -9.55,1.13 -5.55,-5.69 -9.62,-4.98 -2.38,4.27 1.37,5.3 -13.33,5.23 -7.12,-0.04 -15.59,1.77 -18.91,-2.4 -0.64,-0.81 -0.49,-1.13 -0.88,-1.66 -1.03,2.92 -2.3,4.21 -7.07,3.75 -9.72,-0.95 -1.26,-10.76 -5.41,-10.92 -5.02,-0.18 -2.9,-1.1 -4.74,-1.31 -1.9,2.43 3.94,13.13 -10.82,12.87l-34.05 -0.11c-3.49,-0.56 -5.87,1.92 -10.54,-2.44 -0.92,-0.88 -1.45,-1.8 -2.3,-2.02 -0.42,1.63 -0.74,3.39 -2.26,4.1 -2.26,1.06 -11.46,0.71 -12.55,-0.14 -1.31,-0.99 -1.56,-3.15 -1.59,-4.67 -2.26,-0.07 -3.25,-0.14 -5.09,0.18 0,6.17 -7.14,5.53 -13.33,5.41 -6.78,-0.13 -10.28,0.97 -12.73,-2.3 -0.71,0.39 -0.81,0.95 -1.66,1.41 -2.21,1.23 -16.54,1.34 -21,0.95 -8.25,-0.71 -3.03,-16.63 -2.86,-18.14 0.27,-2.34 -5.12,2.05 -10.93,-3.89 -1.52,-1.59 -2.4,-4.91 -3.32,-5.87 -1.19,0.67 0.1,8.8 -4.21,9.16l-14.6 0.11c-5.84,0 -9.65,-0.45 -7.88,-8.87l4.88 -57.63c-0.81,-3.77 -19.41,6.76 -14.18,-26.87 0.25,-1.59 -0.07,-3.39 0.21,-4.95 1.64,-9.18 1.08,-24.55 3.75,-31.32 1.45,-3.68 4.24,-4.88 2.12,-6.72 -2.51,-2.16 -0.64,-5.34 -0.6,-7.81 0.33,-16.87 6.1,-12.02 23.79,-12.69l21.53 -0.14c2.92,0.18 2.65,3.52 4.81,1.38 2.51,-2.47 8.7,-1.27 12.76,-1.48l106.56 -0.92c4.65,0.87 4.01,2.05 5.2,3.15 2.58,-0.62 -0.52,-3.7 14.71,-3.29 3.11,0.11 6.33,0.04 9.19,0.32 4.66,0.46 22.73,-3.17 23.16,2.86l-1.2 11.31c-0.91,6.74 0.87,2.25 8.1,4.7 3.36,1.14 5.1,6.98 6.01,2.97 0.85,-3.78 3.39,-4.21 8.45,-4.03 4.95,0.18 5.06,0.99 7.07,-3.01 6.24,-12.43 6.01,-9.81 22.56,-12.16 15.87,-2.25 57.37,4.07 63.21,25.17 2.3,8.29 -0.53,7.77 -1.31,10.89 2.29,2.92 13.51,2.92 14.04,10.11l0.11 0.03z"/>
   <path class="fil1" d="M27.23 83.04c0.18,-0.95 0.49,-1.13 1.38,-1.27 0.11,0.95 0.6,0.49 0.39,1.91 1.96,0.95 0.73,3.68 5.8,4.31 4.86,0.61 10.94,-0.28 15.59,-2.05 1.48,2.76 1.17,2.05 4.7,2.09 13.96,0.18 8.17,-0.73 10.75,-7.85 0.57,-1.56 1.8,-0.57 1.91,0.78 0.54,6.82 -2.79,7.15 7.39,6.79 4.32,-0.15 12.32,1.09 17.96,-0.14 1.27,-0.28 2.47,0.57 4.24,0.42 6.63,-0.53 23.24,0.7 27.75,-0.57 1.63,-0.46 1.38,-1.38 3.08,-1.48 0.42,0.95 0.49,0.99 1.1,1.77 8.02,0.29 12.96,1.64 13.75,-2.51 0.18,-0.85 0.39,-5.87 1.48,-6.01 2.41,-0.31 -2.09,8.85 3.89,8.66 14.91,-0.47 11.21,5.79 11.21,-33.02 0,-3.43 -0.53,-6.19 -0.25,-9.44 0.39,-4.35 -0.25,-13.75 -0.39,-18.77 -0.19,-6.61 -3.23,-4.46 -16.47,-4.84 -3.47,-0.1 -4.29,10.76 -4.88,15.13l-1.34 7.04c-0.35,0.53 0.18,0.39 -0.81,0.49 0,-7.16 3.85,-22.59 -9.58,-22.59l-13.29 0.32c-3.82,-0.18 -2.09,1.8 -3.39,3.08 -0.88,0.42 -1.87,-2.47 -5.73,-2.86l-16.51 0c-2.47,0.42 -2.05,4.1 -2.23,6.08l-2.08 26.16c-0.07,1.98 -0.71,1.03 -0.71,3.11 -1.27,-1.69 -0.22,-27.99 -0.71,-32.31 -0.39,-4 -4.31,-3.08 -8.31,-2.93 -12.31,0.46 -9.7,-3.9 -13.96,19.59l-2.09 9.19 1.66 -27.43c-1,-1.79 -7.08,-1.26 -10.29,-1.17 -3.49,0.1 -14.49,-0.56 -15.77,0.78 -0.71,0.74 -0.75,3.53 -1.87,2.4 -3.55,-3.55 -4.49,-3.39 -12.73,-2.97 -5.78,0.3 -9.04,1.87 -11.03,9.19l-4.1 45.64c1.04,9.61 4.1,10.86 13.54,10.64 5.55,-0.14 7.64,-0.32 10.29,-4.03l0.67 -1.31z"/>
   <path class="fil2" d="M42.11 72.72c0,2.13 -0.21,4.33 -1.95,4.42 -0.93,-1.74 3.44,-48.19 4.17,-49.75 1.78,-3.79 -4.33,-3 -8.17,-2.76 -4.5,0.28 -1.92,3.65 -3.46,10.11 -0.71,2.96 -0.42,14.25 -1.59,17.54l-0.96 14.07c-0.22,4.71 -3.21,17.32 3.89,19.76 0.05,0.02 11.51,0.75 13.58,-0.92 3.74,-3.02 4.75,-6.75 4.95,-11.6l3.57 -41.79c1.1,-8.98 1.24,-6.93 -4.53,-7.21 -0.88,-0.04 -4.42,0.04 -5.09,0.25l-4.38 47.94 -0.03 -0.07z"/>
   <path class="fil2" d="M117.91 76.93c-1.12,-0.03 -0.08,-7.02 0.11,-9.37l2.12 -24.01c0.81,-3.42 -0.51,-10.45 1.7,-10.71 2.3,-0.28 1.19,6.06 0.95,8.17l-2.76 30.9c-0.2,3.05 -0.09,4.99 -2.12,5.02zm13.82 -23.05c0,-7.07 3.16,-23 0.14,-27.05 -2.56,-3.43 -7.82,-2.37 -15.1,-2.79 -6.79,-0.39 -4.97,-0.15 -5.76,7.78l-3.15 38.08 -1.45 15.63c3,0.63 17.05,0.25 18.6,-0.85 5.6,-3.98 5.41,-12.24 5.41,-18.35l1.34 -12.48 -0.04 0.04z"/>
   <path class="fil2" d="M93.73 58.36l2.02 -19.91c-0.11,-7.07 4.83,-12.17 1.2,13.4 -0.28,1.87 0.25,6.79 -1.56,7.5 -0.67,0.25 -1.59,-0.32 -1.59,-0.99l-0.07 0zm2.26 -33.9c-11.02,-0.45 -8.43,-2.18 -9.97,13.19l-4.06 48.05c1.48,0.53 5.16,0.14 6.97,0.14 4.17,0 3.5,-2.02 3.64,-11.17 0,-1.1 0.53,-3.46 0.53,-4.03 1.34,0.19 1.62,9.56 1.73,11.06 0.28,3.85 -1.78,4.55 9.05,3.89 0.83,-1.75 -1.24,-12.98 -1.38,-15.13 -0.34,-5.19 3.72,-0.61 4.14,-10.71 0.31,-7.47 3.57,-28.37 0.64,-32.74 -2.45,-3.65 -5.27,-2.69 -11.28,-2.58l-0 0.03z"/>
   <path class="fil2" d="M17.83 65.75l-0.56 7.21c0,2.55 0.6,4.91 -2.33,4.24 -0.8,-3.58 1.93,-18.31 1.98,-21.28l0.35 -2.86 0.6 0.04 -0.21 6.36c0.42,1.74 1.37,1.73 0.21,6.36l-0.04 -0.07zm7.46 16.97c0.24,-1.2 2.02,-3.01 2.09,-6.5l2.01 -24.22 -9.19 -0.85c-0.69,0.02 -1.8,-0.09 -1.8,0.99l-0.39 0c-0.72,-1.71 -1.13,-0.47 -0.78,-4.31l1.17 -13.72c4.79,-2.63 0.28,10.32 1.38,12.48 0.66,1.29 4.84,0.68 5.94,0.57 4.9,-0.49 4.32,0.94 4.84,-8.48 0.3,-5.47 0.92,-8.44 -2.12,-12.48 -1.97,-2.62 -13.25,-1.49 -14.53,-0.99 -7.7,3.05 -6.14,19.95 -7.25,27.05l-1.13 13.82c-0.05,5.25 -2.77,13.17 0.42,17.39 2.9,3.85 4.24,2.9 9.4,2.97 6.83,0.14 6.85,-0.22 10.01,-3.71l-0.07 -0z"/>
   <path class="fil2" d="M69.73 62.54c0,2.03 1.37,8.14 -3.04,6.04 -2.03,-0.97 1.96,-18.11 2.05,-22.03 0.04,-1.59 -0.04,-3.46 1.38,-3.75 0.46,0.88 0.64,3.96 0.14,4.49l-0.53 15.24zm-6.65 22.2c0.53,-1.98 0.64,-5.34 0.95,-6.33 0.78,-2.47 4.42,-1.52 4.91,-0.81 1.08,1.5 0.09,4.75 1.06,8.34 13.34,1.61 9.32,-2.26 9.86,-6.58l-1.17 -48.05c0.04,-5.71 1.89,-7.43 -5.76,-6.75 -1.2,0.11 -7.28,-0.21 -8.8,0.32l-3.57 18.99 -7.11 36.17c-0.42,1.31 -1.06,4.77 -0.67,5.87 1.7,0.78 8.13,0.35 9.9,-0.04l0.39 -1.13z"/>
   <path class="fil2" d="M214.11 40.3l-0.99 8.87 -2.33 27.33c0.35,10.12 7.91,8.23 12.94,8.42 10.95,0.4 9.49,-13.2 10.08,-14.92l1.66 -18.14c0,-2.09 -0.92,-1.73 -2.93,-1.8 -12.04,-0.35 -6.43,1.4 -8.87,6.58 -0.64,1.34 1.24,2.02 1.24,3.5l-1.34 14.96c-0.42,1.31 -1.06,1.2 -2.3,1.03l1.24 -17.96 0.64 -7.07 1.24 -16.69c1.26,-3.51 2.76,-1.24 2.76,-0.39 0,11.31 -3.28,11.93 1.48,12.06 2.51,0.07 5.02,0 7.04,-0.28 0.73,-7.07 4.46,-21.93 -5.87,-22.1 -8.6,-0.14 -10.32,-1.11 -14.07,5.83l-1.59 10.78z"/>
   <path class="fil2" d="M148.11 47.33l-0.95 20.33c-1.16,1.23 -3.84,0.96 -3.61,-0.92l3.75 -25.42 0.99 0.04 -0.14 5.9c0,-0.04 -0.04,0.07 -0.07,0.11l0.03 -0.04zm-16.76 33.34c0,1.94 -3.71,5.84 5.34,4.81 5.16,-0.59 3.45,-0.12 4.91,-6.65 0.51,-2.3 2.35,-2.84 4.63,-2.12 2.47,0.81 0.39,6.68 1.34,8.17 0.6,0.92 7.14,0.53 7.92,0.49 2.13,-0.11 1.95,-2.34 1.7,-6.29l-0.88 -53.17c0,-0.49 -0.39,-1.17 -0.49,-1.66l-13.33 -0.03c-1.31,0.7 -4.88,26.7 -6.36,31.36l-4.84 25.07 0.07 0.03z"/>
   <path class="fil2" d="M249.19 67.8c-1.56,-0.04 -2.44,-1.06 -2.19,-2.47 0.67,-4.19 2.49,-23.76 4.14,-24.39 2.15,-0.83 0.81,3.64 0.85,6.61 0.04,6.01 -0.49,11.81 -0.57,17.32 -0.07,3.53 -2.22,2.95 -2.23,2.93zm-14.71 15.63l0.07 0.95 7 0.46c5.78,-0.12 0.58,-9.18 6.26,-8.98 4.6,0.14 3.08,2.58 3.32,5.87 0.21,2.83 -1.27,3.36 6.26,2.97 1.7,-0.11 2.37,0.11 3.22,-0.32l-0.88 -60.21 -13.19 -0.39c-1.71,0.92 -4.91,22.74 -6.12,27.61l-5.98 32.1 0.03 -0.07z"/>
   <path class="fil2" d="M183.71 35.21c-1.9,5.25 -0.05,25.57 -4.21,23.69 -1.53,-0.69 -0.01,-7.73 0.07,-9.65l1.49 -16.12c0.95,-1.59 3.36,0.04 2.62,2.09l0.04 0zm-16.79 47.09c0,1.1 -0.11,1.66 0.21,2.58 1.33,0.59 8.29,0.83 9.19,-0.28 1.12,-1.38 0.86,-15.44 2.12,-16.65 2.47,-2.37 11.06,4.01 13.12,-11.42 0.79,-5.89 3.28,-25.64 0.74,-29.7 -2.53,-4.03 -6.92,-2.62 -15.06,-2.79 -6.62,-0.14 -4.56,-0.88 -5.9,11.21l-4.24 47.02 -0.18 0.03z"/>
   <path class="fil2" d="M200.4 23.79c-5.07,0 -3.28,0.58 -4.67,12.66l-3.82 42.81c-0.79,5.99 -1.61,6.23 8.1,5.62 4.99,-0.32 7.64,1.87 8.31,-3.18 0.28,-2.19 0.92,-3.61 -0.18,-5.06 -1.59,0.14 -4.21,0 -5.69,-0.42l1.1 -16.62c0.35,-1.48 1.56,-1.03 3.71,-1.13 2.83,-0.14 1.84,0.35 2.62,-4.24 1.01,-6.29 -1.05,-3.08 -5.3,-4.35l0.71 -10.64c0.64,-3.11 -0.99,-6.75 2.79,-7.32 4.74,-0.71 4.74,1.2 4.74,-2.16 0,-6.62 3.02,-5.98 -12.41,-5.98z"/>
   <path class="fil2" d="M282.7 110.3c0.42,0.39 0.32,0.25 0.74,0.46l1.52 -1.06 -2.3 0.6 0.03 -0z"/>
   <path class="fil1" d="M270.93 172.28c-2.98,-0.12 -0.52,-4.16 1.31,-3.75 1.71,0.39 0.68,3.75 -1.31,3.75zm-8.8 -0.39c-0.81,-2.37 2.55,-4.07 3.43,-2.79 0.81,1.13 -0.46,3.96 -3.43,2.79zm5.62 -3.78c-0.74,-1.48 0.51,-1.09 1.77,-2.86 0.49,1.78 1.47,3.13 -1.77,2.86zm13.86 2.9c0.21,-0.71 0.35,-0.21 0.78,-1.06 -3.4,-3.4 -7.95,-0.39 -7.6,-2.3l0.99 -0.35c0,-3.09 0.43,-2.19 5.55,-2.12 1.41,0.04 1.56,0.92 1.84,-0.07l14.53 1.02 0.21 0.99 3.11 0c3.25,3.4 2.65,0.41 3.78,2.62 0.99,1.91 0,1.59 -1.56,1.48l-21.63 -0.21zm-75.62 -12.76l17.78 0.32c1.55,2.62 0.11,4.74 -0.18,10.32 -0.19,3.75 -2.61,2.89 -10.18,2.97 -10.81,0.12 -10.55,1.84 -8.95,-8.8 0.99,-6.58 1.52,-2.08 1.52,-4.81zm84.96 4.35c0.33,-1.23 2.37,-1.29 4.28,-4 1.03,-1.45 0.71,-1.13 1.59,-1.13 0.72,2.87 3.37,4.76 4.31,7l-10.18 -1.84 0 -0.04zm-30.37 -2.51l-1.24 10.93c-5.96,2.84 -0.8,-4.24 -3.82,-4.95 -2.86,-0.64 -9.3,0.88 -9.3,-0.74 0,-3.72 9.04,-0.67 10.43,-1.91 0.07,-0.07 1.34,-2.72 -0.85,-2.79 -4,-0.13 -9,0.57 -11.14,-0.5 0.28,-1.48 0.95,-1.87 2.93,-1.8 6.01,0.21 12.94,-1.26 12.94,1.8l0.04 -0.03zm-26.23 2.97c1.3,0.05 5.83,-5.46 7.81,-5.06 3.07,0.62 0.4,9.56 0.39,9.62 -0.6,3.25 0.64,3.46 -1.38,3.89 -4.1,0.84 -0.41,-5.58 -1.2,-8.91 -0.27,-1.13 -4.05,2.61 -5.87,4.03l-5.45 -4.07c-0.49,1.27 -0.78,6.79 -0.78,8.63 -3.69,1.58 -3.58,1.14 -2.62,-8.17l1.45 -4.28c3.08,-2 6.15,4.27 7.64,4.31zm-31.75 -1.87c-7.34,-0.23 -6.02,-2.58 -7.6,10.64 -5.77,-0.07 -2.37,0.79 -2.37,-10.36 -4.62,-0.16 -8.14,0.28 -6.86,-1.8 1.76,-2.88 10.62,0.53 17.89,-1.45 0.14,0.74 0.28,3.11 -0.99,3.08l-0.07 -0.1zm61.91 5.73c-1.01,-1.28 -0.46,-2.87 0.21,-4.95 0.35,-1.13 0.49,-4.28 0.81,-5.27 0.25,-0.81 1.56,-1.87 1.59,-2.3 0.95,1.52 2.33,0.99 2.3,2.86 -0.04,1.63 -2.12,5.27 -2.72,7 -0.71,1.94 -0.46,2.62 -2.19,2.65zm7.25 -0.11l1.91 -11.31c1.45,-1.7 3.36,0.85 3.36,1.17 0,1.38 -2.3,6.54 -3.01,8.63 -0.39,1.13 -0.88,1.56 -2.26,1.52l0 0zm28.6 -15.1l13.08 15.56c0.71,0.74 0.88,2.93 0.81,3.04 -1.45,2.44 -5.83,-2.76 -6.43,-3.25 -7.44,-6.15 -5.75,-6.78 -7.53,-8.06 -2.65,-1.91 -1.45,-5.12 0.11,-7.35l-0.03 0.07zm-18.03 10.43c-0.88,-0.04 -0.53,-0.57 -2.19,-1.59 -1.24,-0.78 -1.73,-0.99 -1.27,-3.82 0.33,-1.92 -2.36,-1.85 7.07,-5.73l10.85 -2.97c2.9,3.87 -4.63,10.49 -7.64,12.23 -1.48,0.57 -5.34,1.87 -6.89,1.84l0.07 0.03zm26.3 -7.99c-2.06,-1.54 -10.37,-9.6 -9.37,-11.84 1.03,-2.3 1.84,-1.56 2.09,-2.62l13.44 17.32c0.67,1.06 0.85,1.7 0.49,2.79 -3.05,-0.12 -3.85,-3.55 -6.58,-5.73l-0.07 0.07zm2.86 -14.25c1.9,0.06 4.05,7.56 2.65,9.62 -2.89,-0.96 -4.87,-9.68 -2.65,-9.62zm-41.15 14.28c9.27,-7.16 11.84,-7.18 20.97,-12.8 1.87,-1.25 2.74,-3.67 7.85,-3.32 0.41,7.66 -19.09,11.5 -22.1,13.75 -0.85,0.64 -1.66,1.73 -3.39,1.52l-0.42 -0.99c-0.14,1.66 -1.24,0.88 -1.63,3.01l-0.71 2.58 -0.57 -3.75zm24.29 -20.72c-1.56,-2.62 -1.91,-7.46 1.59,-9.9 1.45,-1.03 1.45,0.32 3.71,0.57l0 -0.71c3.75,1.19 6.47,6.63 5.94,8.1 -2.88,0.4 -1.54,-2.49 -8.52,-2.76l0.04 1.38c-0.67,-0.11 -0.21,-0.11 -1.06,-0.21l0.53 0.56 0.28 2.9c-0.64,0.18 -1.7,0.18 -2.55,0.11l0.03 -0.03zm7.28 -13.51l7 -4.31 0 7.88c-3.16,0.55 -7.05,-1.37 -7.42,-3.18l0.42 -0.46 0 0.07zm-7.46 -9.93c-0.78,-1.17 -0.42,-3.29 -0.07,-4.49 0.58,0.24 13.17,1.68 13.65,4.88 0.5,3.41 -0.15,3.09 -2.79,4.6 -1.4,0.79 -9.94,5.92 -11.6,4.56 -0.46,-0.6 -0.25,-3.96 0,-4.77 0.86,-2.73 8.6,-1.67 11.52,-4.59 -2.96,-1.47 -7.72,-0.82 -10.71,-0.21l0 0.03zm-12.34 -2.58c-0.18,-1.66 0.14,-5.66 1.17,-6.51l0.57 6.4c-1.03,0.14 -0.64,0.32 -1.77,0.11l0.04 0zm0.64 2.86l2.3 -0.6c0.18,-0.81 1.77,-2.05 1.52,-4.45 -0.25,-2.54 -1.25,-8.07 3.57,-2.97 1.35,1.43 1.7,12.2 1.13,11.07l-0.28 0.95c-1.52,-0.04 -3.57,-0.57 -3.54,0.92 0.04,1.41 2.12,1.31 3.15,1.17l0.14 14.25c-2.04,0.75 -5.31,-1.17 -5.2,2.19l5.87 0.64c2.04,5.72 -1.81,6.46 -3.25,6.79 -4.19,0.81 -8.25,-17.31 -5.41,-23.09 1.13,-2.3 0.71,-1.56 -0.64,-3.22 -1.1,-1.41 -0.67,-3.39 0.32,-4.38l0.28 0.74 0.04 0zm41.29 3.78c-0.77,-3.47 2.25,-24.23 7.99,-23.94 1.95,2.39 1.29,5.01 0.35,9.51l-4.77 10.39 -3.57 4.03zm-75.16 -19.52c2.15,-1.79 7.26,-6.89 9.58,-6.86 0.34,1.26 -8.46,6.49 -9.58,6.86l0 0zm22.27 -13.12c0,0 1.29,-5.15 2.62,-5.69 6.76,-2.79 5.22,7.03 11.07,4.53 2.37,-1.01 5.68,-0.2 6.33,0.96 2.68,-0.24 9.79,4.6 11.88,6.05 2.23,1.54 9.66,2.39 13.22,11 0.53,1.27 1.48,5.62 -0.39,5.9 -1.93,0.3 -3.31,-4.68 -9.79,-4.84 -0.33,4.44 1.14,2.92 0.14,5.45 -2.31,0.23 -7.68,-3.36 -10.89,-3.47 -4.45,-0.15 -3.32,-1.08 -5.8,-2.44 -4,-2.2 2.2,-0.7 3.5,-2.33 1.87,-2.34 -3.69,-6.04 -10.47,0.81 -2.41,2.44 -8.46,1.28 -10.01,-2.65 -2.02,-5.16 -1.34,-8.03 -1.34,-13.33l-0.07 0.07zm29.38 0.42c0.26,-0.07 9.13,0.02 14.18,-1.66 12.72,-4.24 15.33,-10.36 17.78,-10.68 3.08,7.34 5.65,14.25 -4.95,16.26 -5.83,1.11 -26.1,-3.12 -26.94,-3.96l-0.07 0.03zm-95.46 -7.6l0.42 -8.45c0.39,-3.85 -0.88,-4.88 2.37,-4.84 2.47,0.03 1.66,-0.43 1.27,7.25 -0.42,7.04 0.21,6.17 -4.06,6.05zm58.51 -7.85c0,-2.09 -0.99,-3.36 1.34,-2.72 9.3,2.55 9.93,-0.39 18.67,-8.2l8.52 -4.14c4.73,-2.29 18.35,-1.96 22.52,-2.12 3.08,-0.11 7.11,1.2 8.59,1.24 7.37,0.13 19.56,0.38 13.57,8.66l-10.71 11.56c-2.44,0.61 -2.41,2.92 -12.09,6.4 -10.71,2.97 -22.19,2.93 -31.75,-1.98 -12.16,-6.24 -15.46,6.33 -18.21,7.25 -1.48,-2.61 2.68,-7 0.35,-12.02 -1.03,-2.23 -0.88,-1.27 -0.88,-3.85l0.07 -0.07zm21.88 -24.36c5.31,0.16 28.08,2.92 31.61,5.16 -10.01,-0.13 -14.13,-1.64 -25.77,1.95 -6.4,1.97 -8.93,2.55 -13.75,8.28 -8.28,9.83 -10.75,2.58 -13.01,-1.95 -0.21,-0.39 -0.78,-1.17 -0.95,-1.63 -0.28,-0.78 -0.49,-8.95 0.21,-9.79 1.36,-1.64 19.69,-2.09 21.71,-1.98l-0.03 -0.04zm-77.57 -4.74c0,-0.6 0.39,-2.4 0.6,-2.9 4.59,0.47 3.36,-1.56 2.83,8.03 -0.22,3.91 0.87,6.28 -4.14,5.13l0.71 -10.25zm31.82 17.92l5.9 -30.05c1.67,-3.03 3.25,-1.63 13.19,-1.52 0.39,0 0.64,0.21 0.99,0.39l0.88 60.21c-0.85,0.42 -1.52,0.25 -3.22,0.32 -7.53,0.42 -6.05,-0.14 -6.26,-2.97 -0.25,-3.29 1.24,-5.73 -3.32,-5.87 -5.65,-0.19 -0.49,8.86 -6.26,8.98l-7 -0.46 5.13 -29.1 -0.03 0.07zm-25.56 -14.99c0,-5.85 1.22,-16.45 8.63,-16.65 15.58,-0.43 15.39,2.41 12.9,22.13 -2.02,0.32 -4.56,0.39 -7.04,0.28 -4.77,-0.18 -1.48,-0.69 -1.48,-12.06 0,-0.91 -1.52,-3.09 -2.76,0.39l-1.24 16.69c0.6,1.93 -1.18,8.19 -1.27,12.41l-0.6 12.62c3.17,0.45 2.53,-1.93 2.79,-7.53l0.85 -8.45c0,-1.48 -1.87,-2.19 -1.24,-3.5 2.48,-5.13 -3.21,-6.92 8.87,-6.58 3.27,0.09 3.43,-0.76 2.3,8.84l-2.09 19.23c-1.2,4.08 -4.21,6.96 -9.02,6.79 -5,-0.18 -12.59,1.75 -12.94,-8.42l3.32 -36.2zm-47.2 42.04l5.16 -57.17c0.36,-2.09 9.13,-0.99 10.64,-0.99 9.81,-0.03 10.46,0.93 10.46,10.82l-2.51 25.6c-1.93,9.19 -10.73,5.83 -12.41,7.42 -2.03,1.93 0.06,16.63 -2.97,17.08 -1.34,0.21 -7.07,0.42 -8.34,-0.14 -0.32,-0.92 -0.21,-1.48 -0.21,-2.58l0.18 -0.03zm33.48 -58.55c14.55,0.7 12.41,-2.22 12.41,5.98 0,3.36 0,1.45 -4.74,2.16 -4.05,0.6 -2.19,6.67 -3.32,13.33 -0.42,2.65 -0.53,2.44 -0.18,4.63 4.25,1.26 6.32,-1.93 5.3,4.35 -0.78,4.6 0.25,4.07 -2.62,4.24 -4.08,0.22 -3.85,-1.21 -4.31,7.96 -0.18,3.5 -1.13,6.54 -0.49,9.79 1.48,0.46 4.07,0.57 5.69,0.42 1.1,1.45 0.46,2.86 0.18,5.06 -0.67,5.06 -3.32,2.86 -8.31,3.18 -11.86,0.74 -8.05,0.52 -7.42,-12.76l4.1 -45.96c0.19,-2.19 0.41,-2.37 3.71,-2.37zm59.82 -3.25c6.26,-13 3.57,-8.46 12.13,-10.68 10.52,-2.73 42.66,0.32 50.27,6.08 3.24,2.45 4.71,0.05 12.76,9.86 2.32,2.82 5.78,10.23 -2.51,11.6 -7.42,1.2 -10.39,-2.19 -9.97,1.41l22.95 8.63c1.24,0.64 3.61,0.99 4,2.72 -1.42,0.76 -9.66,-3.94 -14,-5.52 -17.96,-6.51 -30.05,-10.82 -49.6,-11.38 -8.16,-0.24 -15.15,1.29 -23.19,2.69 0.33,-20.66 -1.47,-12.93 -2.83,-15.41zm2.51 143.04c-1.04,1.67 1.37,4.61 -1.59,4.95 0,-3.44 2.93,-11.5 -2.12,-11.84l-17.04 -0.14c-2.55,-0.52 -5.41,3.81 -7.67,4.63 -2.23,-1.38 -2.97,-4.56 -6.43,-4.45 -1.48,0.07 -1.59,0.6 -2.58,0.92 -1.41,-0.53 -0.74,-0.88 -2.93,-0.95l-36.95 0.39c-0.6,0.46 -1.41,1.13 -1.56,2.05 -0.95,5.69 4.74,3.39 6.22,3.43 1.8,2.4 -0.76,7.1 -0.04,9.65 0.45,1.58 5.62,1.84 6.29,0.21 1.42,-3.43 -0.07,-9.44 2.55,-9.72 1.34,-0.14 2.69,-0.04 3.89,-0.07 0.53,2.05 -1.59,8.38 0.07,9.9 1.94,1.77 19.7,0.57 23.83,0.64 4.85,0.07 1.3,-5.14 4.17,-7.35 0.67,0.35 1.7,2.83 3.25,2.62 0.39,-0.04 4.21,-4.1 4.07,-1.84 -0.09,2.83 -3.54,6.78 3.15,6.65 4.47,-0.09 1.77,-5.37 3.57,-5.8 0.32,-0.07 3.78,0.49 4.77,0.39 10.9,-1.04 -0.81,5.08 8.52,5.3 1.56,0.04 1.52,-0.39 2.55,-0.42 0.21,0.02 3.31,3.25 5.69,-0.64 0.35,-0.57 0.53,-1.34 1.34,-1.52 1.31,1.13 0,3.29 3.15,3.36 2.45,0.05 3.36,-4.02 6.47,-2.9 2.13,0.77 -0.99,3.17 6.79,2.76l19.66 0.18c3.01,-0.14 3.25,0.35 3.89,-2.3 1.37,0 4.88,3.37 7.96,1.24 4.56,-3.15 -2.38,-8.67 -2.44,-10.11 0.99,-0.5 8.86,1.92 2.9,-8.41 -0.99,-1.73 1.8,-3.04 1.27,-6.89 -0.42,-3.01 -1.41,-10.46 -6.08,-9.79 -3.46,0.49 -3.29,2.58 -4.17,4.99 -2.31,-1.08 0.33,-2.37 -8.06,-6.82l0.71 -4.07c0.26,-0.14 10.17,6.13 8.84,-0.99 -0.18,-0.99 -0.14,-2.97 -1.56,-3.36 0.13,-1.68 1.95,-0.05 4.07,-2.65 1.38,-1.73 2.33,-7.32 0,-10.25 -1.48,-1.84 0.83,-2.35 -0.6,-4.98 -1.81,-3.32 -2.63,-0.97 -0.46,-5.55 1.12,0.75 10.62,9.78 9.55,-4.03 -0.53,-6.85 -7.86,-10.83 -8.91,-11.95l16.62 1.34 -3.32 6.68 -3.15 16.65c0.5,3.19 2.32,5.34 5.48,3.22 3.28,-2.2 11.7,-17.15 9.05,-25.28 -0.57,-1.73 -1.31,-1.8 -2.3,-2.9 0.35,-0.99 2.23,-1.87 3.39,-4 3.78,-6.97 -2.26,-15.73 -2.33,-16.62 0.16,-1.1 8.12,-7.3 7.07,-12.9 -1.36,-7.25 -14.64,-4.13 -18.03,-7.67 -2.68,-2.79 -22,-5.79 -27.05,-6.54 -8.74,-1.3 -19.64,-1.3 -27.82,-0.04 -1.23,0.19 -7.36,2.52 -5.48,-0.67 0.72,-1.21 16.66,-2.83 18.28,-2.97l20.97 1.48c25.55,4.58 44.17,14.93 46.03,15.31 4.56,0.92 7.53,-5.98 -3.78,-9.19l-9.26 -3.71c0.26,-0.79 10.24,-3.99 3.5,-13.97 -8.72,-12.91 -24.09,-17.51 -39,-19.45 -6.93,-0.9 -22.47,-1.56 -29.8,0.35 -8.34,2.17 -6.07,0 -10,6.72 -0.57,0.99 -3.29,6.75 -3.82,7 -1.52,0.71 -10.64,-0.88 -12.45,1.06 -1.49,1.6 -3.34,20.41 -4.74,21.57 -0.55,-10.85 6.19,-24.98 -18.14,-22.06 -3.49,0.42 -4.25,2.32 -4.92,2.65 -1.21,-1.24 0.81,-3.91 -11.42,-2.72 -6.87,0.67 -8.68,-1.94 -10.92,2.79 -4.39,-2 1.07,-2.73 -15.24,-2.76 -11.29,-0.02 -8.11,-1.89 -10.78,22.31 -0.25,2.33 -0.07,5.52 -0.53,7.6l-2.16 26.52c-0.14,2.65 -2.51,8.77 0.95,9.86 1.06,0.35 10.71,0.28 11.74,-0.21 2.4,-1.13 1.56,-8.2 1.98,-10.29 2.23,-11.21 -1.43,-5.69 6.43,-7.35 1.84,-0.39 2.83,-1.77 4,-1.91 0.57,3.04 -0.64,7.04 -0.64,10.29 -0.05,11.87 -3.59,8.79 12.8,9.44 10.56,0.42 6.7,-2.07 8.63,-3.25 3.22,1.29 -0.97,2.84 10.01,3.08 9.62,0.25 7.32,-1.2 10.89,-1.98 0.7,2.07 2.16,1.83 5.02,1.8 9.35,-0.09 9.42,1.57 10.57,-5.9 0.11,-0.74 0.67,-2.02 0.64,-2.26 1.5,2.25 -1.65,7.94 4.07,8.27 -0.23,1.27 -10.54,6.38 -5.44,9.97 5.93,4.18 20.34,-14.15 21.74,-15.56 0.99,2.09 -2.4,13.29 5.66,18.49 1.91,1.24 5.37,0.95 5.66,1.24l-0.32 7.67c-1.56,3.32 -0.11,4.49 1.27,6.82 -4.56,7.06 0.34,19.28 4.21,25.99 -1.06,1.34 -3.04,1.94 -4.6,2.79 -12.8,6.86 -9.58,6.86 -12.94,9.26 -0.18,-0.67 -0.04,-0.42 -0.6,-0.78 -4.24,2.15 -2.17,7.3 -3.89,10.39l0.25 -0.11z"/>
   <path class="fil1" d="M66.08 133.88c0.53,-3.45 0.51,-8.55 -1.94,-11.35l-7.14 -4.74c-2.53,-1.46 -2.01,-1.45 -1.73,-5.94l0.85 -8.45c0.14,-1.31 -0.39,-1.98 1.13,-1.94l-0.6 13.54c1.1,0.32 9.48,0.67 11.1,-0.07l0.07 -1.45c1.51,0.59 -1.38,19.33 -1.38,23.69 0,0.92 0.99,1.17 -0.67,1.27l0.32 -4.56zm2.79 -33.59c-1.06,-4.44 -1.44,-9.54 -10.32,-8.87 -8.46,0.63 -12.16,-0.11 -13.79,11.84 -0.61,4.49 -2.1,14.63 -0.43,18.42 1.45,3.18 5.48,4.88 8.56,6.82 2.83,1.8 1.77,3.54 1.56,7.28l-0.99 8.91c-0.85,-0.07 -0.95,-0.07 -0.99,-0.88 0.35,-16.22 4.84,-12.99 -6.01,-13.29 -5.48,-0.15 -3.82,-0.39 -4.99,8.24 -2.05,15.22 5.01,14.38 5.66,15.38 0.46,0.74 0.18,0 0,0.25 6.27,-1.99 11.43,3.07 16.26,-5.34l2.26 -10.39 0.21 0.21 -0.49 14.78c0.99,0.04 1.77,0.25 2.55,0.6 0.07,-0.04 0.04,-0.21 0.67,-0.42l8.59 0.04c1.72,-0.02 4.84,0.67 5.69,-1.41 0.71,-1.77 1.45,-6.08 0.67,-7.85l-5.98 -0.25 1.24 -16.12c0.18,-1.38 2.72,-0.85 4.07,-0.81 3.72,0.09 1.22,-5.31 2.83,-8.87 -1.2,-0.78 -3.57,-0.42 -5.09,-0.28 -2.26,0.2 -0.73,-2.51 -0.28,-8.59l1.1 -8.73c7.18,-1.68 6.22,3.15 7,-4.95 0.53,-5.41 -0.25,-4.7 -11.46,-4.56 -11.92,0.15 -4.42,1.94 -7.21,8.17 -0.28,0.6 -0.32,0.49 -0.92,0.71l0.04 -0.01z"/>
   <path class="fil1" d="M159.07 112.53l-1.06 12.51c0,0.95 -0.25,1.2 -1.52,1.1l1.06 -11.03 1.52 -13.93c1.45,-0.79 0.14,9.53 0,11.38l0 -0.03zm-4.31 33.73l0.88 -6.4 0.53 4.91c1.03,7.29 -1.1,9.02 4.35,8.45 5.76,-0.6 6.05,0.99 6.05,-1.94l-1.73 -15.98c2.92,-1.53 4,-1.64 4.38,-9.26l1.45 -17.96c-0.35,-3.67 4.04,-16.97 -6.86,-16.97 -19.98,0 -13.66,-1.12 -15.66,7.11l-4.31 54.87c1.13,0.28 8.77,0.46 10.25,-0.14 0.28,-0.78 0.74,-5.76 0.71,-6.75l-0.04 0.07z"/>
   <path class="fil1" d="M210.19 124.44l1.94 -21.74c0.07,-0.78 0.18,-2.05 0.78,-2.58 1.79,0.92 -0.21,11.24 -0.18,13.43 0,2.23 -0.32,4.88 -0.57,7.04 -0.21,2.16 0.46,5.52 -1.8,5.76 -0.28,-0.71 -0.21,-1.1 -0.21,-1.91l0.04 0zm3.75 28.46c1.2,0.07 1.77,-0.07 3.01,-0.14 4.55,-0.24 3.77,1.08 2.76,-8.1 -2.6,-23.56 2.52,5.75 4.17,-30.83 0.17,-3.73 4.95,-23.44 -5.41,-23.12l-15.77 0.28 -5.09 61.73 10 0.14c0.71,-2.66 0.79,-14.41 2.16,-16.69l1.17 16.58 2.97 0.07 0.04 0.07z"/>
   <path class="fil1" d="M128.63 133.67c-0.01,-0.29 1.94,-19.98 3.32,-20.51l-0.88 22.06c-2.6,1.46 -3.46,-0.81 -2.4,-1.52l-0.04 -0.03zm-13.86 15.98c0,4.25 -3.67,4.19 8.56,3.78 2.27,-0.08 1.95,-0.53 2.44,-3.82 0.28,-2.12 0.81,-0.95 0.78,-2.33 -0.07,-1.87 -0.35,-2.55 1.77,-2.65 1.2,-0.07 1.73,-0.04 2.69,0.42 0.29,7.71 -2.71,8.6 5.94,8.24 1.66,-0.07 3.61,0 5.3,-0.18l-0.81 -53.49c0,-10.61 1.83,-8.12 -10.75,-8.48 -8.22,-0.24 -4.45,2.82 -7.88,15.8l-7.99 42.74 -0.04 -0.03z"/>
   <path class="fil1" d="M181.83 135.19l3.32 -25.24c1.12,1.71 -0.28,15.46 -0.28,20.75 0,4.03 1.08,5.22 -3.08,4.49l0.04 0zm13.86 2.72c0,-12.27 -0.46,-25.03 -0.39,-37.33 0.07,-11.98 1.09,-9.38 -9.62,-9.48 -7.17,-0.06 -5.94,-2.39 -8.38,11.7l-5.94 31.61c-4.48,22.04 -4.75,19.12 3.01,18.7 1.45,-0.11 3.82,0.46 4.35,-0.32 0.32,-0.42 1.24,-7.6 1.59,-7.92 0.92,-0.39 2.83,-0.6 4.17,-0.32 1.63,1.1 -1.81,8.37 2.23,8.66 2.33,0.18 6.4,-0.18 8.77,-0.35l0.25 -14.92 -0.04 -0.04z"/>
   <path class="fil1" d="M105.12 126.74l1.84 -23.09c0.49,-2.12 -0.11,-2.3 0.81,-2.86 1.23,0.89 0.03,11.92 -0.49,14.49 -0.99,4.49 0.25,6.51 -1.45,11.38l-0.71 0.07zm9.33 6.58c3.88,-3.36 3.51,-18.38 4.42,-24.18 0.41,-2.61 1.66,-12.91 -0.85,-14.74 -0.57,-0.92 -2.05,-2.72 -3.57,-2.86 -3.04,-0.28 -16.51,-0.81 -17.68,0.42l-4.98 56.57c-0.11,1.03 -0.71,4.14 -0.57,4.74 1.63,0.64 3.89,0.28 5.62,0.42 8.25,0.63 5.84,-1.23 7.04,-15.7 0.29,-3.47 1.29,-1.5 4.74,-1.87 5.37,-0.53 4.14,-1.94 5.8,-2.83l0.03 0.03z"/>
   <path class="fil1" d="M140.65 10.39c5.42,0.25 13.53,-1.02 13.08,1.31 -0.52,2.69 -12.5,-0.96 -10.64,3.15 0.94,2.08 13.27,-0.09 14.11,1.49 1.36,2.57 -12.15,1.92 -13.43,1.87 -1.34,-0.04 -4.31,0.35 -4.31,-0.88 0,-1.52 0.42,-5.76 1.17,-6.93l0.04 0zm-81.28 8.34c-2.47,0 -1.86,-3.42 -1.41,-5.09 2.5,-9.44 -3.62,-7.73 13.33,-8.17l28.67 0.07c0.03,0.03 1.52,13.34 -3.32,13.19 -19.36,-0.62 -17.09,2.22 -16.23,-6.33 0.69,-6.89 0.44,-4.09 -12.2,-4.38 -5.93,-0.14 -6.8,-0.69 -6.89,3.61 -0.12,5.69 -3.19,4.91 11.17,4.88 1.38,0 3.39,-0.25 4.45,0.32l-0.04 1.48 -17.54 0.46 0 -0.04zm45.43 -10.96c-4.74,-0.22 -2.31,-2.47 -2.3,-2.47 0.42,-0.21 9.65,0 11.07,-0.07 1.7,-0.04 3.89,-0.35 5.13,-0.32 2.69,3.53 -0.07,2.48 -0.07,10.82 0,1.34 -0.07,1.34 -0.25,2.44 -0.81,0.07 -1.84,0.32 -2.62,0.39 -1.17,-1.8 1.07,-5.53 -0.78,-5.55 -10.05,-0.09 -11.56,-1.39 -11.56,4.99 -0.81,0.32 -1.2,0.57 -2.55,0.42 -0.42,-1.24 -0.21,-2.55 0,-3.75 0.82,-4.69 -1.47,-4 8.59,-4.21 4.28,-0.07 6.86,0.6 6.86,-1.56 0,-2.52 -4.91,-1.06 -11.56,-1.24l0.04 0.11zm16.26 -1.73c0,-1.6 13,-1.08 15.7,-0.92 1.93,0.11 2.78,-0.71 1.98,4.46 -0.46,3.04 -0.35,1.24 -0.81,2.58 -0.57,1.7 0.78,3.18 -0.57,5.8 -0.92,0.11 -1.38,0.18 -2.4,0.21 -0.78,-2.9 2.33,-5.27 -2.33,-5.41 -11.49,-0.36 -8.64,-0.73 -9.97,5.48 -4.1,0.3 -2.7,-0.09 -2.4,-3.5 0.45,-5.19 -2.27,-4.18 13.97,-4.38 1.45,-0.04 1.94,-1.24 1.56,-2.51l-12.34 -0.35c-1.73,0.04 -2.33,0.6 -2.33,-1.45l-0.03 0zm38.92 1.24c-1.4,-3.19 6.83,-2.58 8.77,-2.37 5.32,0.57 10.66,-2.81 8.2,5.9l-0.85 6.44c-0.18,1.03 -1.84,1.34 -2.4,0.35 -1.6,-2.82 5.07,-6.37 -10.22,-4.95 -3.22,0.53 -0.46,5.09 -3.61,5.34 -2.94,0.24 -0.43,-6.92 0.25,-7.46 0.53,-0.32 11.63,-0.25 13.44,-0.25 2.88,-5.27 -4.01,-1.99 -13.58,-3.01l-0 0zm-18.95 -2.16c1.63,-0.04 14.99,-0.49 17.36,0.28 0.5,3.4 -6.22,1.94 -13.12,1.98 -1.56,0.04 -3.54,0.35 -4.6,-0.25 -0.14,-0.85 0.18,-1.41 0.32,-2.02l0.04 0zm-23.69 -1.77l-18.81 0.21 -32.74 0.21c-9.5,0.43 -7.96,-0.39 -9.51,9.26 -1.28,7.94 -0.66,7.99 11.28,7.6l8.59 0c1.34,-0.11 1.1,-0.81 2.76,-0.74 2.33,0.07 -1.56,0.85 6.4,0.46l18.07 -0.04c4.07,-0.39 0.35,-4.7 3.32,-5.23 1.06,-0.18 5.69,-0.21 7.28,-0.28 0,1.87 -0.6,3.54 0.14,5.23 1.34,0.39 6.68,0.32 8.31,0.28 3.43,-0.11 1.34,-4.17 2.65,-5.13l7.32 -0.39c1.63,0.04 -0.25,3.64 0.95,4.84 1.09,1.09 22.75,0.42 26.62,0.53 6.82,0.19 -0.44,-5.66 7.42,-5.62 0.57,0 3.18,0 3.54,0.11 2.16,0.49 -2.51,6.12 5.16,5.44 2.59,-0.3 1.87,-4.22 2.83,-10.22 1.38,-8.65 -2.25,-6.26 -11.31,-6.58l-47.06 0.46c-1.45,0.32 -2.26,-0.21 -3.29,-0.25l0.07 -0.17z"/>
   <path class="fil1" d="M29.78 103.3c0,-4.75 6.73,0.58 7.5,-3.75 0.14,-0.78 0.39,-6.22 0.04,-6.93 -0.74,-1.56 -6.19,-0.71 -8.7,-0.71 -13.51,0 -7.94,-4.25 -11.53,24.75l-2.69 37.12 14.81 0.39c3.19,-0.05 3.14,-1.33 3.82,-6.75 0.68,-5.41 -5.72,-1.6 -6.33,-3.15l0.67 -9.23c0.35,-2.3 0.11,-4.88 0.25,-6.26 0.34,-3.52 5.75,1.78 6.54,-3.57l-0.07 -6.89c-2.4,-0.21 -3.61,0.67 -5.59,-0.11 0.04,-0.6 0.32,-0.95 0.42,-1.56l0.85 -13.47 -0 0.1z"/>
   <path class="fil1" d="M141.81 168.03c-0.25,-0.46 0.25,-3.04 0.46,-3.89 0.52,-2.13 1.79,-0.93 7.96,-1.03 2.52,-0.04 5.04,-0.62 6.4,0.57 -1.49,5.01 1.89,4.49 -7.57,4.21 -1.66,-0.04 -6.47,0.46 -7.25,0.11l0 0.04zm-60.85 4.38c0.04,-1.13 0.53,-6.79 0.85,-7.71l14.25 -0.35c1.66,-3.75 -1.41,-2.62 -2.62,-2.65 -7.06,-0.21 -12.71,1.5 -11.21,-1.77l5.73 -0.81c7.96,0.28 14.6,-1.78 11.35,5.2 -0.71,1.53 0.26,6.61 -0.92,7.6l-17.43 0.53 0 -0.04zm20.51 -11c0,-3.1 0.24,-2.87 11.95,-2.37 4.92,0.21 3.55,-0.22 1.84,13.61 -2.09,0.07 -1.2,-0.18 -2.86,-0.21 0,-3.22 0.49,-3.08 0.21,-5.48 -2.72,-0.39 -6.54,-0.04 -9.79,-0.14 -0.7,-4.02 0.19,-1.62 10.11,-2.51 0.39,-0.95 0.42,-1.59 -0.14,-2.51l-11.38 -0.35 0.07 -0.04zm30.44 7.14c0.82,-1.89 0.15,-10.48 3.22,-10.04 2.91,0.42 0.21,3.67 0.21,11.7l-1.27 2.05c-3.71,2.19 -10.93,-8.9 -12.59,-9.33 -2.06,2.62 0.43,10.84 -3.85,9.62 -1.83,-0.52 -0.4,-5.53 0.07,-8.38 0.18,-1.24 0.25,-4.49 1.41,-5.09 4.1,-2.16 9.26,9.14 12.83,9.51l-0.04 -0.04zm25.6 0.46l0.99 -6.36c0.25,-3.01 -0.07,-4.1 3.54,-4l11.49 0c4.7,-0.5 5.08,-0.33 4.06,5.9 -1.14,6.99 1.5,7.57 -7.53,7.57 -12.04,0 -12.55,1.4 -12.55,-3.15l0 0.04zm-16.26 0.71c3.97,0.22 17.56,-1.27 14.6,1.91l-17.61 0.67c-3.18,0.07 -1.38,-3.64 -1.17,-6.22 0.58,-8.08 -0.3,-7.97 10.43,-7.25 2.19,0.14 7.32,-0.28 8.59,-0.21 1.77,0.07 2.05,3.01 -1.56,2.72 -16.48,-0.9 -13.43,-0.92 -14.53,5.66 -0.39,2.23 -0.21,2.62 1.24,2.69l0 0.03zm-15.34 -0.42c7.63,8.08 7.46,3.68 9.93,4.07 0.67,0.11 1.2,0.46 1.84,0.53l19.94 -0.53 17.82 0.14c3.64,-0.49 2.69,-3.82 3.11,-5.41 0.42,-1.52 1.31,-8.45 0.71,-9.58 -1.34,-2.58 -11.6,-1.46 -14.56,-1.56l-8.24 0 -18.92 0.49c-0.53,0.06 -4.47,-1.44 -5.94,0.78 -0.64,0.95 -0.78,5.98 -0.78,7.53 -2.84,-0.77 -7.41,-10.42 -11.88,-8.38 -0.74,0.35 -0.57,0.85 -1.66,1.06 -1.1,-0.64 -0.85,-1.13 -2.72,-1.17l-29.17 0.18c-4.88,-0.13 -5.31,0.38 -4.53,5.41 0.07,1.13 -0.46,0.18 -0.95,2.51 -0.43,2.02 -1.53,6.67 0,8.77 3.63,0.11 17.28,0.26 19.09,-0.92 3.41,-2.22 -0.22,-4.97 3.08,-4.77 9.25,0.56 9.07,-1.68 9.05,1.84 -0.04,3.71 -1.24,3.64 6.26,3.46 1.06,-0.04 2.3,0.14 3.25,0.04 1.7,-0.67 0.57,-6.61 1.84,-7.96l3.46 3.43 -0.03 0.04z"/>
   <path class="fil1" d="M31.93 17.35c0,-0.67 0.28,-1.73 0.42,-2.37 0.98,-4.41 -2.45,-4.26 10.75,-3.96 2.83,0.11 3.89,-0.71 3.15,2.16 -3.19,0.83 -10.72,-0.83 -10.92,1.38 -0.27,2.98 6.67,1.53 11.53,1.7 1.27,0.11 4.63,-0.85 2.37,2.69l-14.74 -0.25c-2.62,-0.04 -2.55,0.71 -2.55,-1.34l-0 -0zm7.25 -11.53c5.55,0.16 14.67,-1.76 11.7,1.91 -0.63,0.78 -33.67,-0.29 -36.56,0.99 -0.49,4.09 3.42,2.27 9.01,2.51 4,0.14 3.85,-0.32 4.63,-0.32 1.13,1.66 0.07,5.09 -0.46,6.68 -0.75,2.27 -5.22,1.46 -9.3,1.38 -1.84,-0.04 -6.54,0.32 -8.24,-0.39 -0.2,-2.63 2.62,-1.91 6.89,-1.91 1.59,0 6.54,0.21 7.5,-0.39 0.99,-0.6 0.78,-2.44 -0.46,-2.86l-12.73 -0.03c-0.26,-0.48 -1.55,-7.22 2.62,-7.43l25.42 -0.18 -0.03 0.03zm-13.89 -1.77c-18.53,-0.64 -15.5,0.33 -16.44,11.03 -0.36,4.12 -3.88,5.74 5.45,5.8 9.66,0.06 13.8,1.25 15.06,-3.43 1.2,2 -0.36,3.57 5.87,3.22 7.21,-0.41 15.38,1.48 16.33,-1.66 1.37,-4.51 -1.45,-4.54 -3.43,-4.74 0.21,-1.66 -0.25,-3.32 0.46,-4.53 0,0 5.74,0.9 4.38,-4.35 -0.6,-2.26 -2.72,-1.31 -8.1,-1.41l-19.59 0.07z"/>
   <path class="fil1" d="M279.8 65.93c0,-4.53 11.68,-9.65 17.89,-10.85 8.12,-1.57 34.15,1.19 34.15,3.89 0,3.52 -14.72,12.92 -24.61,14.57 -8.93,1.49 -16.91,1.07 -24.5,-4.14 -1.94,-1.34 -2.93,-1.77 -2.93,-3.46l-0 0zm55.12 -7.21c0,-5.38 -17.72,-5.75 -20.36,-6.61 -5.35,-1.74 -22.43,-0.37 -28.92,4.21 -1.47,1.04 -12.65,7.47 -7.64,12.66 13.75,14.23 41.42,7.8 52.89,-4.14 1.21,-1.26 4,-4.33 4,-6.12l0.03 0z"/>
   <path class="fil1" d="M183.96 16.47l1.34 -9.65c0.42,-1.06 0.35,-1.63 1.7,-1.87l17.61 0.07c0.86,2.52 -0.59,10.08 -1.66,12.83l-17.01 0.11c-1.66,-0.11 -1.94,-0.57 -1.94,-1.48l-0.04 0zm21.81 -4.17c-0.21,-0.99 0.14,-4.1 0.35,-5.06 0.75,-3.28 1.53,-2.98 12.13,-2.72 2.44,0.04 4.17,-0.53 5.76,0.67l0.18 -0.53c0.46,1.94 0,2.23 -2.02,2.23 -1.8,0.01 -12.9,-0.23 -12.9,0.95 0,4.6 9.17,0.51 14.25,2.4 0.11,0.73 0.2,6.74 -1.98,7.35l-16.23 0.28c-0.81,-0.53 -0.21,-1.94 0.14,-2.4 3.01,-0.25 13.36,0.74 14.57,-0.67 0.81,-0.99 0.32,-2.16 -1.06,-2.47l-13.19 -0.04zm12.73 -9.48c-1.94,0.18 -10.47,-0.04 -11.53,0.35l-18.81 -0.07c-5.88,0.29 -4.67,3.86 -5.52,9.44 -0.92,6.08 -0.64,7.81 7.28,7.25 5.65,-0.41 31.58,0.66 33.45,-1.03 1.91,-1.73 2.17,-7.46 1.91,-9.02 -0.42,-2.49 3.64,-6.89 -2.69,-6.86l-4.1 -0.07z"/>
   <path class="fil1" d="M187.28 13.85c0,2.19 1.17,1.77 3.92,1.84 1.34,0.04 7.96,0.6 9.12,-0.28 0.74,-0.57 1.31,-7.32 0.99,-8.1 -2.62,-0.46 -7.88,-0.18 -10.54,-0.11 -2.55,0.07 -2.44,0.35 -2.83,2.26 -0.25,1.2 -0.67,3.01 -0.67,4.38z"/>
   <path class="fil1" d="M83.27 14.17c0,1.77 -0.11,2.12 1.94,2.19 11.44,0.32 10.86,0.6 11.6,-2.94 1.31,-6.47 -0.04,-5.73 -3.36,-5.66 -8.56,0.25 -10.18,-2.21 -10.18,6.44l0 -0.04z"/>
   <path class="fil1" d="M54.45 172.84c-1.12,-1.85 0.37,-8.62 0.6,-10.99 0.11,-1.13 0.42,-2.37 1.94,-2.4 4.11,-0.05 14.3,-0.67 17.64,0.64l-0.85 7.14c-1.06,6.59 2.59,5.31 -17.32,5.55l-2.02 0.07zm21.57 -9.79c1.05,-4.51 -0.96,-5.37 -4.38,-5.37 -17.85,0 -17.82,-2.67 -19.2,11.35 -0.68,6.93 2.17,5.08 15.1,5.13 5.3,0.02 8.86,1.23 8.48,-11.1z"/>
   <path class="fil1" d="M249.19 67.8c1.91,0.07 2.19,-1.45 2.19,-2.97l0.81 -23.58c-1.39,-2.28 -2.23,1.86 -2.33,3.75l-2.9 20.29c-0.39,2.47 2.14,2.42 2.23,2.51z"/>
   <path class="fil1" d="M183.71 35.21c0.74,-2.09 -1.66,-3.68 -2.62,-2.09l-2.16 22.56c0,0.01 -0.68,4.9 2.05,2.97 1.8,-1.27 1.29,-19.58 2.76,-23.44l-0.04 -0z"/>
   <path class="fil1" d="M162.78 167.68c1.14,-8.55 1.92,-2.95 9.79,-5.02 0.74,1.38 0.14,4.53 -0.04,4.81l-9.76 0.25 0 -0.04zm-1.94 1.66l7.04 0.21c6.36,0.11 5.73,0.88 6.15,-1.45 0.39,-2.12 1.41,-5.27 0.49,-6.93l-11.31 0c-2.52,0.43 -2.37,4.63 -2.37,8.17z"/>
   <path class="fil1" d="M59.16 168.18c0,-6.81 0.89,-4.27 6.93,-4.7 3.3,-0.24 3.69,-0.77 3.18,4.07 -0.19,1.78 -4.28,1.02 -9.05,1.27 -0.49,0.04 -1.03,0.04 -1.03,-0.64l-0.04 0zm-1.77 -1.1c0,4.09 -1.46,2.87 10.01,3.08 4.6,0.14 2.76,-0.14 3.78,-4.14 0.35,-1.31 0.49,-2.86 0.14,-4.17 -2.05,-0.07 -10.47,-0.32 -12.27,0 -1.31,0.24 -1.63,4.28 -1.63,5.23l-0.04 -0z"/>
   <path class="fil1" d="M209.8 162.45c10.61,0.77 9.65,-2.17 8.98,4.92 -0.05,0.01 -10.01,1.15 -10.01,-0.18 0,-1.24 0.28,-3.89 0.99,-4.77l0.04 0.04zm-2.16 7c16.77,0 11.62,0.24 13.22,-4.7 1.96,-6.03 -2.84,-3.04 -11.6,-3.78 -2.02,-0.17 -1.16,0.75 -1.91,4.74 -0.73,3.9 0.28,2.72 0.28,3.75z"/>
   <path class="fil1" d="M285 93.44c14.31,-5.72 9.02,2 12.8,2.23 2.13,-9.26 -8.8,-8.56 -13.97,-4.63 -1.98,1.94 0.46,2.19 1.2,2.44l-0.03 -0.04z"/>
   <path class="fil1" d="M84.43 169.17c0,1.85 11.18,0.6 11.35,0.53 1.53,-3.72 -2.24,-2.58 -10.22,-2.58 -0.74,0 -1.13,-0.2 -1.13,2.05l-0 0z"/>
  </g>
 </g>
</svg>
