<?xml version="1.0" encoding="UTF-8"?>
<!DOCTYPE svg PUBLIC "-//W3C//DTD SVG 1.1//EN" "http://www.w3.org/Graphics/SVG/1.1/DTD/svg11.dtd">
<!-- Creator: CorelDRAW -->
<svg xmlns="http://www.w3.org/2000/svg" xml:space="preserve" width="25.325mm" height="18.9662mm" version="1.1" style="shape-rendering:geometricPrecision; text-rendering:geometricPrecision; image-rendering:optimizeQuality; fill-rule:evenodd; clip-rule:evenodd"
viewBox="0 0 47.42 35.51"
 xmlns:xlink="http://www.w3.org/1999/xlink"
 xmlns:xodm="http://www.corel.com/coreldraw/odm/2003">
 <defs>
  <style type="text/css">
   <![CDATA[
    .fil0 {fill:black}
    .fil2 {fill:yellow}
    .fil3 {fill:yellow}
    .fil1 {fill:white}
   ]]>
  </style>
 </defs>
 <g id="Camada_x0020_1">
  <metadata id="CorelCorpID_0Corel-Layer"/>
  <g id="_2483308616272">
   <path class="fil0" d="M41.18 33.6c-0.32,0 -0.16,-0.39 -0.09,-0.61 0.09,-0.28 0.14,-0.35 0.52,-0.35 1,0 0.35,0.11 0.35,0.96l-0.78 0zm-8.79 -0.74c0,-0.71 0.37,-1.7 0.54,-2.32 0.26,-0.97 0.65,-1.37 1.66,-1.37 1.58,0 0.69,2.09 0.6,2.18 -0.17,0.16 -0.86,0.04 -1.45,0.04 -0.09,0.4 -0.28,0.96 -0.28,1.41 0.32,0.07 0.33,0.06 0.48,-0.32 0.09,-0.24 0.16,-0.46 0.16,-0.72 0.25,-0.06 0.6,-0.06 0.99,-0.07 -0,0.47 -0.19,1.03 -0.4,1.29 -0.73,0.94 -2.3,0.6 -2.3,-0.1zm-17.58 0.07c0,-0.32 0.31,-1.33 0.41,-1.64 0.32,-1.01 0.62,-2.09 1.93,-2.12 0.41,-0.01 1.27,0.04 1.27,0.58 0,0.9 -0.55,2.9 -1.26,3.49 -0.62,0.51 -2.35,0.7 -2.35,-0.31zm10.14 -0.22c0,-0.3 0.59,-2.88 1.19,-3.34 0.43,-0.33 1.32,-0.51 1.76,-0.11 0.45,0.41 0.12,1.35 -0.01,1.87 -0.08,0.35 -0.22,0.82 -0.33,1.13 -0.59,1.64 -2.61,1.43 -2.61,0.45zm10.42 0c0,-0.62 0.36,-1.64 0.51,-2.2 0.29,-1.11 0.82,-1.27 1.76,-1.27 1.05,0 0.64,1.63 0.64,1.63l-0.92 0c-0.02,-0.26 -0.06,-0.17 -0.02,-0.34 0,-0.02 0.21,-0.27 0.02,-0.62 -0.44,0.11 -0.35,0.38 -0.61,1.29 -0.09,0.29 -0.11,0.5 -0.18,0.77 -0.17,0.64 -0.38,0.63 0.01,0.9 0.57,-0.16 0.21,-1.04 0.64,-1.04 0.84,0 0.84,-0.02 0.66,0.45 -0.59,1.5 -1.12,1.13 -1.42,1.32 0.06,0.35 0.33,0.33 0.11,0.71 -0.28,0.49 -0.99,0.59 -1.04,-0.05 0.36,0 0.39,0.07 0.78,0.07 -0.1,-1.25 -0.92,-0.46 -0.92,-1.63zm3.26 -1.77c0.01,-0.88 0.6,-1.7 1.49,-1.7 0.98,0 0.67,0.24 1.13,0.37 -0.09,0.29 -0.1,0.8 -0.17,1.15l-0.62 2.53c-0.05,0.14 -0.06,0.31 -0.27,0.31 -0.71,0 -0.68,0.06 -0.71,-0.3 -0.26,0.07 -0.44,0.3 -0.78,0.3 -1.05,0 -0.55,-0.93 -0.37,-1.57 0.34,-1.21 1.86,-0.21 1.86,-2.05 -0.67,0 -0.4,0.32 -0.61,0.96l-0.94 0zm-15.87 -0.8c0.39,-0.97 0.99,-1.12 1.83,-1.12 0.22,0 0.64,0.39 0.64,0.59 0,1.28 -0.22,1.03 -0.42,1.04 -1.64,0.14 0.11,-0.46 -0.74,-0.97 -0.24,0.27 -0.45,1.08 -0.54,1.49 -0.14,0.65 -0.6,1.47 -0.15,1.47 0.39,0 0.26,-0.82 0.64,-1.04l0.69 0.02c0.15,0.87 -0.8,1.75 -1.32,1.75 -1.19,0 -1.2,-0.03 -1.2,-1.26l0.58 -1.99zm-1.13 0.99c0.15,-0.71 0.26,-0.63 0.39,-1.02 0.18,-0.52 0.19,-0.74 0.52,-0.8 -0.02,0.27 -0.12,0.32 -0.21,0.52l-0.68 2.4c-0.17,1.13 0.33,1.39 -0.52,1.38 -0.29,-0 -0.61,0.02 -0.89,-0.04 0.12,-0.63 0.31,-1.22 0.35,-1.96l-0.37 0.47c-0.81,1.76 -0.19,1.53 -1.94,1.53 0,-0.37 0.59,-3.11 0.68,-3.87 0.07,-0.57 0,-0.52 0.67,-0.5 0.58,0.02 0.41,0.11 0.32,0.55 -0.12,0.6 -0.32,1.31 -0.33,1.87 0.33,-0.18 0.56,-1.02 0.76,-1.54 0.35,-0.91 0.16,-0.91 1.3,-0.79l-0.21 1.11c-0.09,0.38 -0.21,0.62 -0.21,1.07 0.55,-0.06 0.09,-0.03 0.37,-0.37zm6.98 -1.1c0.1,-0.36 0.08,-0.94 0.45,-0.94 1.03,0 0.81,0.12 0.85,0.22 0.36,-0.03 0.3,-0.15 0.61,-0.2 0.7,-0.11 0.33,0.33 0.95,0.35 0.16,-0.46 0.88,-0.44 1.12,-0.16 0.25,0.3 -0.25,1.8 -0.39,2.32 -0.09,0.33 -0.15,0.63 -0.23,0.95 -0.09,0.35 -0.21,0.54 -0.28,0.89 -1.33,0 -1.11,0.38 -0.38,-2.32 0.05,-0.18 0.52,-1.68 -0.07,-1.2 -0.22,0.18 -0.82,3.1 -1.03,3.52 -0.34,-0.03 -0.54,-0.07 -0.99,-0.07l0.92 -3.47 -0.28 -0.08c-0.3,0.23 -0.93,3.01 -1.06,3.55l-1.06 0 0.9 -3.35zm12.36 -1.08l0 -0.15 0.5 0c-0.05,0.3 0.01,0.27 -0.5,0.15zm-31.89 3.77c0,0.66 0.92,-0.22 0.72,-0.96 -0.11,-0.42 -0.79,-0.78 -1,-1.19 -0.37,-0.76 0.43,-2.43 1.62,-2.43 1.93,0 1.36,0.51 1.28,1.55l-1.2 0.07c0.03,-0.37 0.1,-0.18 0.18,-0.5 0.17,-0.68 -0.83,-0.22 -0.71,0.47 0.15,0.9 1.79,0.44 0.92,2.72 -0.13,0.35 -0.15,0.46 -0.41,0.68 -0.34,0.28 -0.93,0.58 -1.46,0.58l-0.35 -0.11c-0.92,-0.14 -0.77,-0.85 -0.57,-1.47 0.16,-0.49 0.41,-0.55 1.17,-0.41 0.09,0.45 -0.18,0.47 -0.18,1zm33.37 -1.35c-0.08,0.28 -0.25,0.69 -0.27,0.98 -0.31,-0.02 -0.44,-0.07 -0.83,-0.07l0.75 -3.61c0.13,-0.35 0.7,-0.26 1.12,-0.21 0.1,0.41 -0.59,2.25 -0.77,2.92zm-27.48 -2.05c0.26,0.24 0.26,0.25 0.14,0.58 -0.14,0.68 -0.49,1.68 -0.76,2.46 -0.54,1.53 0.08,1.11 -1.54,1.21 0.13,-0.73 1.09,-3.12 1.1,-3.73 -0.45,0 -0.33,-0.09 -0.51,0.21 -0.23,0.39 -0.61,1.84 -0.81,2.48 -0.1,0.33 -0.28,0.73 -0.31,1.02l-1.13 -0.01c0.2,-1.05 0.87,-2.98 1.21,-4.06 0.58,-1.82 0.34,-1.19 1.55,-1.19 -0.09,0.41 -0.28,0.65 -0.28,1.11 0.48,-0.12 0.97,-0.41 1.35,-0.07zm25.02 -0.59c-0.3,0.05 -0.45,0.19 -0.69,0.2 0.05,-0.15 0.22,-0.31 0.33,-0.48 0.06,-0.21 0.58,-0.98 0.73,-1.17 0.87,-1.07 -0.05,-0.65 -0.24,-0.84 -0.07,-0.1 -0.11,0.15 -0.04,-0.18 0.08,-0.38 0.63,-0.34 1.1,-0.34 0.39,0 0.58,0 0.99,0 -0.01,0.8 -0.46,1.03 -0.63,1.34l-0.8 1.16c-0.15,0.33 0.15,0.32 -0.26,0.37 -0.1,0.01 -0.27,-0.06 -0.51,-0.06zm-19.92 0c-0.07,-0.35 -0,-0.51 0.08,-0.81 0.65,-2.33 0.66,-4.08 3.11,-4.08 2.02,0 0.76,2.72 0.71,2.96 -0.4,0 -0.49,-0.07 -0.92,-0.07 -1.05,0 -1,-0.1 -1.15,0.35 -0.09,0.26 -0.49,1.34 -0.34,1.5 0.44,0.22 0.53,-0.19 0.63,-0.53 0.14,-0.48 0.12,-0.5 0.36,-0.88 0.47,0.12 0.76,0.11 1.26,0.02 0.02,0.38 -0.04,0.58 -0.26,1.09 -0.32,0.75 -0.68,0.46 -1.53,0.56 -0.41,0.05 -0.26,-0.07 -0.47,-0.08 -0.65,-0.02 -1.02,0.19 -1.48,-0.04zm15.73 -2.14c0,0.06 -0.25,0.66 -0.29,0.74 -0.58,1.17 -2.75,1.38 -3.04,0.36 -0.15,-0.54 0.49,-2.43 0.75,-2.97 0.32,-0.68 0.78,-0.86 1.39,-0.9 0.43,-0.03 0.24,-0.25 0.85,-0.01 0.15,0.05 0.06,-0.06 0.33,0.06 0.81,0.34 0.36,1.4 0.3,1.64 -0.21,0.74 0.28,0.58 -1.99,0.58 -0.25,0.74 -0.57,1.48 -0.14,1.48 0.35,0 0.33,-0.21 0.43,-0.58 0.24,-0.82 0.22,-0.6 0.71,-0.56 0.38,0.03 0.7,-0.23 0.7,0.18zm-24.38 1.11c0.18,-0.56 0.24,-0.5 0.33,-1.05l0.56 -1.65c0.71,-1.51 3.13,-1.59 3.4,-0.44 0.17,0.75 -0.56,2.91 -0.9,3.71 -0.12,0.28 -0.13,0.36 -0.48,0.39 0.05,-0.34 0.16,-0.32 0.19,-0.57 -0.35,-0.4 -0.35,-0.32 -1.04,-0.32 0.18,-0.82 0.78,-2.28 0.78,-3.03 -0.5,0 -0.45,0.14 -0.57,0.52l-0.49 1.63c-0.49,1.51 0.07,0.53 -0.72,0.95 -0.2,0.11 -0.08,0.13 -0.35,0.25l-0.71 -0.39zm31.67 -1.55l-0.06 0.06c-0.08,0.34 -0.29,0.27 -0.07,0.55l0.64 -0.02c0.04,0.34 -0.03,0.34 -0.14,0.59l-1.13 0c-0.06,-0.07 -0.15,0.1 -0.02,-0.09 0.29,-0.48 0.35,-0.86 0.52,-1.46 -0.24,-0.17 -0.27,-0.16 -0.28,-0.55 0.18,-0.18 0.51,-0.39 0.46,-0.74 -0.29,-0.09 -0.4,-0.07 -0.57,0.07 -0.11,-0.09 -0.05,-0.03 -0.11,-0.18 0.02,-0.41 0.11,-0.42 0.5,-0.44 1.83,-0.05 1.79,-0.12 1.38,0.71 -0.17,0.35 -0.34,0.41 -0.54,0.77 -0.16,0.28 -0.31,0.56 -0.57,0.74zm-6.44 -2.14c0.7,-0.49 0.89,-1.04 2.41,-1.04 0.86,0 1.27,0.06 1.72,0.65 0.4,0.53 0.14,1.09 -0.02,1.79 -0.86,0.07 -0.91,-0.18 -1.14,0.73 -0.17,0.65 -0.07,0.44 0.22,0.89 -0.12,0.54 -0.98,1.36 -1.06,1.71l-0.08 0.51c-0.34,-0.1 -0.21,-0.27 -0.92,-0.44 0.03,-0.34 1.28,-3.83 1.28,-4.73 -0.7,0 -0.61,0.32 -0.81,0.85l-1.05 3.78c-1.51,0.39 -0.89,0.98 -1.64,0.36 -0.63,-0.52 0.03,-0.91 0.33,-1.42 0.23,-0.38 0.7,-1.91 0.79,-2.36 0.21,-1.03 -0.01,-0.67 -0.02,-1.28zm-20.49 1.77c0.08,-0.28 0.16,-0.49 0.25,-0.78 0.42,-1.31 -0.34,-1.07 1.89,-1.06l-1.35 4.81c-0.83,0 -0.96,0.52 -1.2,0.52 -0.29,-0.08 -0.23,-0.19 -0.5,-0.35l0.91 -3.14zm12.48 2.23c0,-0.6 -0.04,-0.48 0.1,-1l0.38 -1.15c0.74,-2.29 0.23,-2.15 1.92,-2.06 0,0.74 -0.98,2.94 -0.99,3.7 0.39,0 0.3,0.08 0.45,-0.2l1.11 -3.5 1.35 0c-0.18,0.79 -0.92,2.97 -1.21,3.91 -0.05,0.16 -0.07,0.33 -0.13,0.53 -0.31,0 -1.15,0.02 -1.37,-0.13 -0.49,-0.33 0.38,0.1 -0.12,-0.1 -0.73,0.4 -0.84,0.45 -1.49,0zm-3.69 -0.52c0,-0.4 0.21,-0.76 0.31,-1.15 0.12,-0.46 0.52,-1.89 0.74,-2.19 0.19,-0.26 0.53,-0.5 0.94,-0.5 0.7,0 0.52,0.33 0.91,0.37l0.08 -0.29 0.64 0.01c0.9,-0.07 0.64,0.13 0.48,0.65l-1.34 4.3c-0.38,0 -0.44,-0.09 -0.75,-0.05 -0.26,0.04 -0.4,0.12 -0.67,0.12 0.08,-0.32 0.25,-0.35 0.28,-0.81 -0.15,0.04 -1.63,0.97 -1.63,-0.44zm-5.95 -3.55c0.13,-0.58 -0.16,-0.92 1.68,-0.72 0.01,0.22 -0.12,0.55 -0.19,0.74 0.18,0.06 0.18,0.08 0.35,0.12 0.02,0.51 -0.14,0.43 -0.21,0.89 -0.56,-0.01 -0.35,-0.16 -0.56,0.53l-0.79 2.8c0,0.43 -0.09,0.25 0.35,0.44 -1.32,0 -0.7,0.3 -1.13,0.3 -0.39,0 0.1,-0.3 -0.87,-0.3l1.01 -3.76 -0.28 -0.06c0.2,-1.05 0.5,-0.93 0.64,-0.99zm-12.26 5.4c0.03,-0.38 0.39,-1.29 0.51,-1.69l1.41 -4.98 1.35 0.02 0 2.37c0,0.37 0.06,0.33 0.07,0.67l0.85 -3.03 1.35 0c0,0.44 -1.23,4.13 -1.42,4.95 -1.13,0.18 -0.9,0.03 -1.89,0.57 -0.06,-0.48 0,-0.79 -0.09,-1.23 0.14,-0.04 -0.03,0.1 0.14,0l0 -0.52c-0.3,0.21 -0.28,0.24 -0.34,0.68 -0.1,0.72 -0.29,0.95 -0.42,1.56 -0.14,0.66 -0.15,0.42 -0.23,0.72 -0.46,-0.03 -0.67,-0.07 -1.28,-0.07zm10.06 -5.77c0.08,-0.18 0.07,-0.43 0.28,-0.89 0.58,0.01 0.72,0.1 1.26,0.05 0.59,-0.05 0.11,0.42 0.01,0.84 -0.6,0 -1.04,0 -1.56,0zm28.63 1.33c-0.27,0.02 -0.28,0.07 -0.64,0.07 0,-0.95 0.45,-1.01 -0.11,-1.63 0.32,-0.72 0.76,-0.9 0.57,-1.2l-0.53 0.02c-0.15,-0.66 0.32,-0.53 0.85,-0.52l1.05 0.03c0.01,-0.02 0.03,0 0.05,0.01 0.14,0.6 -0.34,0.89 -0.68,1.44 -0.44,0.71 -0.84,0.98 -0.67,1.3 0.61,-0.27 0.89,0.27 0.47,0.5 -0.14,0.08 -0.22,0.08 -0.37,-0.02zm-40.61 -2.29c-0.03,-0.4 0.13,-1.14 0.21,-1.48 0.15,-0.63 0.05,-0.54 0.58,-0.73 0.2,-0.07 -0.1,-0.05 0.28,-0.08 -0,0.34 -0.42,1.65 -0.57,2 -0.14,0.32 -0.12,0.29 -0.5,0.29zm27.75 -2.48c-0.06,-0.33 0.27,-0.85 0.39,-1 0.33,-0.43 0.76,-0.41 0.81,-0.43 0,-0 0.16,-0.1 0.21,-0.13 0.31,-0.17 0.38,-0.06 0.97,-0.1 1.08,-0.06 1.3,0.5 1.03,1.44 -0.22,0.75 -0.9,2.6 -1.03,3.21 -0.46,-0.04 -0.67,-0.07 -1.28,0l-0.21 -0.3c-0.39,0.14 -2.17,0.93 -1.67,-0.78 0.3,-1.02 0.48,-1.11 1.33,-1.35 0.78,-0.22 1.35,-0.17 1.53,-1.17 0.08,-0.45 0.03,-0.4 -0.41,-0.4 -0.25,0.39 -0.34,0.92 -0.49,1.03 -0.02,0.02 -0.97,-0.04 -1.18,-0.03zm-8.26 -0.04c0.01,-0.42 0.31,-0.96 0.61,-1.21 0.63,-0.52 1.48,-0.49 2.22,-0.49 0.29,0 0.78,0.41 0.78,0.67 0,0.8 -1.05,3.21 -1.2,3.92 -0.43,0 -0.96,0.03 -1.28,0.04 -0.13,-0.14 -0.1,-0.07 -0.11,-0.33 -0.57,0.25 -0.84,0.53 -1.43,0.35 -0.64,-0.2 -0.56,-0.6 -0.09,-1.67 0.22,-0.48 0.52,-0.55 1.06,-0.74 0.83,-0.3 1.41,-0.14 1.54,-1.21 0.04,-0.31 -0.01,-0.37 -0.38,-0.35 -0.26,0.31 -0.26,0.64 -0.46,1.04l-1.28 0zm-6.8 2.06c-0.16,-0.03 -0.08,0.01 -0.14,-0.06 0.15,-0.21 0.09,-0.28 0.14,-0.44 0.22,-0.49 0.12,-0.51 0.62,-0.84 0.84,-0.56 1.96,-0.12 2.11,-1.37 0.04,-0.35 -0.05,-0.39 -0.11,-0.46 -0.59,0.05 -0.57,0.87 -0.71,1.07 -0.76,-0.23 -1.43,0.27 -1.28,-0.24 0.28,-0.93 0.64,-1.08 1.43,-1.31 0.21,-0.06 0.39,-0.11 0.77,-0.11 0.91,0 0.83,-0.01 1.35,0.52 -0,0.72 -0.55,2.12 -0.75,2.77 -0.28,0.92 -0.22,1.04 -0.67,1.05 -0.35,0.01 -0.99,-0.01 -1.21,-0.12 0.05,-0.24 0.71,-1.25 0.71,-1.85 -0.74,0.18 -0.88,0.82 -1.06,1.48l-1.21 -0.09zm-1.56 -3.76l0.11 0c0.44,-0.2 1.15,0.01 1.43,0.24 0.32,0.27 0.34,1.13 -0.05,1.38 -0.33,-0.03 -0.24,-0.06 -0.58,-0.03 -0.2,0.02 -0.41,0.03 -0.62,0.03 0.05,-0.6 0.23,-0.38 0.07,-1.11 -0.45,0.12 -0.52,0.53 -0.68,1.06 -0.09,0.3 -0.17,0.31 -0.27,0.63 -0.13,0.42 -0.1,0.58 -0.28,0.95 -0.49,1 0.34,1.02 0.59,0.17l0.21 -0.59 1.28 0c-0.17,0.76 -0.72,1.56 -1.48,1.78 -0.5,0.14 -0.79,0.09 -1.35,0.07 -0.48,-0.02 -0.78,-0.24 -0.86,-0.72 -0.06,-0.37 0.59,-1.98 0.76,-2.42 0.36,-0.95 0.72,-1.24 1.74,-1.45zm26.68 -0.11c0.48,-0.98 1.83,-1.22 2.79,-1.06 0.5,0.08 1.07,0.43 1.07,0.74 0,0.68 -0.18,1.17 -0.36,1.7 -0.08,0.24 -0.13,0.52 -0.22,0.8 -0.1,0.31 -0.06,0.51 -0.28,0.68 -0.41,0.24 -1.11,-0.53 -1.44,0.57 -0.06,0.2 -0.12,0.38 -0.12,0.69 0.33,0.09 0.36,0.24 0.31,0.47 -0.31,0.17 -0.37,0.12 -0.83,0.12l-0.12 -0.43c-0.68,0.76 -2.06,0.46 -2.06,-0.09 0,-0.64 0.12,-1.11 0.41,-1.71 0.15,-0.32 0.12,-0.3 0.4,-0.47 0.45,-0.27 1.3,-0.51 1.87,-0.71 0.63,-0.22 0.9,-1.48 0.38,-1.45 -0.34,0.02 -0.5,0.9 -0.51,1.17 -0.5,0.13 -1.39,0.23 -1.77,0l0.46 -1zm-32.85 0.85c0.04,-0.45 0.44,-1.31 0.78,-1.56 0.3,-0.22 0.97,-0.66 1.56,-0.66 0.74,0 1.93,-0.11 2.01,0.9 0.05,0.63 -0.07,0.7 -0.22,1.12 -0.05,0.15 -0.06,0.25 -0.11,0.41 -0.29,1.05 -0.6,1.45 -0.98,3.12 -0.09,-0.06 -0.33,-0.22 -0.5,-0.22 -2.29,0 -1.24,0.04 -1.91,0.3 -0.53,-0.83 -1.76,0.32 -1.5,-0.82 0.48,-2.1 1.15,-1.82 2.5,-2.36 0.85,-0.34 0.72,-0.36 0.84,-0.82 0.09,-0.33 0.4,-0.59 -0.35,-0.66 -0.69,1.37 0.22,1.26 -2.13,1.26zm22.68 -1.12c-0.01,0.39 -0.36,1.36 -0.5,1.78 -1.41,3.97 -0.72,3.22 -2.09,3.28 -0.66,0.03 -0.28,-0.22 -0.6,-0.23 0,0 -1.73,0.83 -1.72,-0.31 0,-0.42 1.01,-3.49 1.45,-3.82 0.38,-0.28 1.03,-0.49 1.49,-0.18 0.71,0.47 0.25,-0.01 0.76,-1.02l1.42 0c0,0.36 -0.02,0.2 -0.08,0.3 -0.06,0.16 -0.01,0.08 -0.13,0.21zm-8.87 2.22c-0.15,0.5 -0.88,2.3 -0.91,2.75l-1.49 0c0.09,-0.6 1.42,-4.21 1.68,-4.98 0.22,-0.71 -0.13,-0.56 1.66,-0.56 -0.01,0.25 -0.76,2.24 -0.93,2.8zm12.7 -2.73c-1.29,0 -4.58,0.25 -2.27,-0.81 0.41,-0.19 0.36,-0.02 0.61,-0.06 0.21,-0.03 0.29,-0.17 0.6,-0.17 0.58,0 1.06,0.36 1.06,1.04zm-6.24 -0.07c-0.27,0 -0.26,0.16 0,-0.81 0.34,0.16 0.08,0.12 0.45,0.27 0.24,0.1 0.33,0.05 0.33,0.4 0,0.22 -0.49,0.15 -0.78,0.15zm-4.8 -0.32c0.2,-0.23 0.04,-0.17 0.33,-0.2 0.02,0.29 0.06,0.19 0.07,0.52 -0.27,0 -0.35,0.03 -0.54,-0.1l0.14 -0.22zm-5.77 0.04c0.12,-0.47 0.21,-0.46 0.7,-0.54 0.62,-0.11 0.38,0.19 0.85,0.25 0.23,-0.21 0.01,-0.08 0.18,-0.39 0.3,0.07 0.16,0.06 0.4,0.22 0.55,0.38 0.91,0.28 0.88,0.72 -0.75,-0 -2.45,-0.06 -3.1,0.02l0.08 -0.28zm18.5 -0.16c0.34,-0.75 1.01,-0.44 1.39,-0.39 -0.85,-0.06 -1.02,0.36 -1.39,0.39zm-31.75 -0.67c0.01,-0.3 0.04,-0.47 0.28,-0.59l0.95 0.05c0.12,0.45 -0.04,0.55 0.05,0.84 -0.52,-0.15 0.07,-0.3 -1.28,-0.3zm34.59 -0.37c2.08,0 1.94,-0.27 1.55,0.81l-1.03 3.37c-0.17,0.6 -0.74,2.02 -0.74,2.55 -1.16,0 -1.27,-0.48 -2.92,0.06 -1.03,0.34 -0.37,0.03 -1.05,-0.13 0,-1.45 0.43,-1.84 0.77,-3.26 0.08,-0.36 0.15,-0.39 0.25,-0.77 0.17,-0.61 0.37,-0.92 0.83,-1.2 1.04,-0.61 1.59,0.07 1.83,0.13l0.5 -1.55zm-33.31 2.74c0.24,-0.07 0.22,-0.13 0.38,-0.71l0.37 -1.25c0.07,-0.18 0.11,-0.21 0.17,-0.34 0.31,-0.77 -0.28,-0.66 1.71,-0.66 -0.01,0.54 -0.37,1.35 -0.54,1.87l-1.5 4.57c-0.18,0.61 0.11,0.43 -1.78,0.43 0,-0.33 -0.04,-0.32 -0.06,-0.6 -0.03,-0.76 0.04,-1.17 0.06,-1.87 0.33,-0.19 1.11,-0.41 0.78,-1.08 -0.08,-0.17 -0.41,-0.3 -0.66,-0.36 -0.32,-0.07 -0.51,0.03 -0.78,0.08 -0.02,-0.2 0.08,-0.58 0.16,-0.69 0.2,-0.28 0.65,-0.12 1.5,-0.73 0.18,-0.13 0.06,-0.12 0.22,-0.1 0.03,0.24 -0.02,0.99 -0.02,1.43zm-1.48 -1.77c0.23,-0.16 0.62,-0.21 0.89,0 -0.19,0.3 -0.91,0.54 -1.3,0.7 -0.28,0.11 -0.31,0.11 -0.39,0.41 -0.08,0.31 -0.28,1.12 -0.28,1.41 0.51,-0.02 0.88,-0.28 1.59,-0.11 -0.18,0.36 -0.12,0.19 -0.63,0.45 -1.05,0.53 -1.12,0.02 -1.31,0.71 -0.24,0.91 -0.12,1.08 -0.38,1.84 -0.08,0.23 -0.05,0.19 -0.33,0.2l0.06 -2.05c-0.41,0 -1.21,0.29 -1.67,0.41l-0.31 1.31c-0.14,0.75 0.07,-0.05 -0.25,0.86l-0.19 -0c-0.14,-0.25 0,-1.53 0,-1.94 -0.45,0 -1.12,0.03 -1.38,-0.15 -0.03,-0.4 0.21,-0.42 0.55,-0.53 0.25,-0.08 0.67,-0.16 0.93,-0.18 0.06,-0.34 0.21,-1.01 0.22,-1.38 0.02,-0.6 -0.59,0.05 -1.03,-0.25l-0.28 -0.37c0.28,-0.07 0.35,-0.2 0.73,-0.26 1.04,-0.18 0.64,0.08 1.19,-1.65 0.06,-0.19 0.12,-0.5 0.33,-0.62 0.05,-0.03 0.57,-0.25 0.64,0.17 0.05,0.31 -0.27,1.2 -0.27,1.62 0.61,0 0.8,-0.18 1.28,-0.22 0.09,-0.5 0.39,-1.86 0.78,-2.08 0.48,-0.27 0.71,0.07 0.59,0.53 -0.11,0.38 -0.23,0.68 -0.23,1.18l0.44 0zm39.01 -2.43c0.34,0.22 0.35,0.03 0.74,0.59 0.48,0.7 0.43,0.27 0.57,1.47 0.03,0.14 0.02,0.22 0.07,0.44 -0.3,-0.02 -0.2,0.03 -0.35,-0.15 -0.47,-0.19 -1.3,-0.12 -1.48,-0.16 -0.34,-0.06 -0.06,-0.07 -0.43,-0.18l-0.65 0.33c-0.5,0.19 -0.78,0.35 -0.54,-0.34 0.38,-1.08 -0.31,-0.95 -0.62,-1.03 0.01,-0.23 1.21,-1.55 1.99,-1.34 0.08,0.02 0.65,0.3 0.71,0.35zm-5.03 -0.16c0,-0.9 1.08,-1.18 1.85,-1.36 0.72,-0.17 0.71,-0.14 1.14,0.06 0.41,0.19 0.78,0.39 0.74,0.85 -1.1,0.28 -1.68,1.52 -2.13,1.59 -0.4,0.06 -0.61,-0.19 -0.61,-0.2 -0.34,-0.22 0.17,0.17 -0.41,-0.02 -0.3,-0.1 -0.57,-0.51 -0.57,-0.93zm-8.52 -3.18c1.02,-0.23 1.78,0.06 2.5,0.48 0.66,0.38 0.93,0.94 1.21,1.55 0.25,0.54 0.1,0.78 -0.02,1.33 -0.07,0.29 0.02,0.76 -0.61,1.36 -0.56,0.53 -1.36,0.92 -2.11,0.93 -0.49,0 -2.24,-0.03 -2.5,-0.57 -0.26,-0.53 -0.18,-0.6 -0.63,-0.97 -0.41,-0.33 -0.74,-0.2 -0.71,-0.78 0.07,-1.27 0.03,-1.05 0.43,-1.86l0.34 -0.46c0.33,-0.33 0.5,-0.48 0.91,-0.68 0.85,-0.43 0.8,-0.22 1.21,-0.31zm10.61 1.41c-0.29,0.12 -0.61,0.15 -0.91,0.23 -0.38,0.11 -0.44,0.25 -0.79,0.36 -0.38,-0.61 -0.57,-1.03 -0.57,-1.85 0,-0.37 0.36,-0.44 0.71,-0.4 0.6,0.07 1.37,1.06 1.56,1.65zm-18.43 4.36c-0.8,0 -1.8,-0.41 -2.29,-0.87 -0.34,-0.32 -0.91,-1 -0.87,-1.55 0.06,-0.76 -0.06,-0.07 -0.1,-0.63 -0.06,-0.72 0.59,-1.57 1.08,-2.04 0.81,-0.77 2.14,-0.88 3.33,-0.63l1.13 0.45c0.15,0.09 0.33,0.21 0.48,0.38 0.63,0.69 1,1.32 0.97,2.64 -0.48,0.27 -1.82,0.32 -1.82,2.02 -1.14,0.1 -0.52,0.22 -1.91,0.22zm-12.1 -6.27c-0.18,0.45 -0.71,1.23 -0.77,1.5 0.1,0.16 0.06,0.12 0.21,0.22 0.27,-0.21 0.46,-0.35 0.77,-0.45 2.76,-0.88 2.32,2.71 0.61,2.66 -0.88,-0.02 -0.88,-0.67 -0.95,-1.54 -0.23,0.22 -0.27,0.14 -0.31,0.56 -0.04,0.45 -0.01,0.63 0.2,0.89 0.58,0.71 1.96,0.94 2.61,-0.54 0.43,-0.98 0.14,-1.38 0.09,-1.86 0.41,-0.42 1.48,-1.42 2.13,-1.08 1,0.52 -0.49,1.78 -0.69,2.03l-1.18 1.43c-0.12,0.15 -0.2,0.31 -0.14,0.56 0.26,1.09 1.94,0.15 2.5,0.86l0.15 0.22 -0.03 0.41 -0.18 0.18c-0.24,0.37 -0.37,0.39 -0.85,0.53 -1.61,0.46 -0.93,0 -1.88,-0.57 -0.57,-0.34 -1.73,-0.28 -2.42,-0.08 -0.82,0.24 -0.69,0.34 -1.02,0.42 0,-0.53 0.19,-0.83 0.28,-1.33 -0.34,-0.53 -0.47,-0.41 -1.21,-0.41 -0.81,0 -1.03,-0.11 -1.46,0.38l-0.11 -0.16c-0.29,-0.19 -0.13,-0.55 -0.13,-1.44 0,-2.52 2.82,-5.59 3.81,-4.49 0.31,0.35 0.16,0.89 -0.03,1.11zm19.23 -7.51c-0.16,-0.13 -0.05,-0.12 -0.22,-0.23 -0.21,-0.13 -0.07,0.04 -0.28,-0.16 -0.17,-0.16 -0.33,-0.3 -0.47,-0.47 0.27,0.07 0.85,0.73 0.96,0.34 0.01,-0.02 0.02,-0.03 0.04,-0.04l-0.03 0.57zm-3.11 10.82l-0.03 -0.53c-0.34,-1.38 -1.51,-2.42 -2.89,-2.69 -0.76,-0.12 -0.57,-0.08 -1.25,-0.04 -1.85,0.11 -2.19,0.93 -2.84,1.34 -0.12,0.21 -0.09,0.15 -0.25,0.27 -0.11,-0.19 -0.35,-0.63 -0.26,-0.88 0.12,-0.34 0.4,-0.23 0.47,-0.77 0.11,-0.83 -0.29,-2.65 0.37,-4.36 0.43,-1.12 1.24,-2.01 2.22,-2.55 0.25,-0.13 0.33,-0.1 0.55,-0.26 0.26,-0.19 0.02,-0.31 0.35,0.01 0.21,-0.62 0.23,-0.03 0.37,-0.5 0.03,-0.09 0.02,-0.18 0.02,-0.27l0.14 0.48c0.52,-0.15 0.45,0.05 1.29,-0.47 0.32,-0.22 0.11,-0.38 0.91,-0.82 -0.08,0.33 -0.03,0.07 -0.51,0.57 -0.54,0.56 -0.19,0.39 -0.44,0.57 0,0 1.47,-0.21 2.12,-0.16 0.27,0.02 0.48,0.05 0.75,0.05 1.31,0.01 2.39,0.43 2.84,0.44l0 -0.3c0.29,0.22 0.18,0.32 0.21,0.67 0.32,-0.24 0.11,-0.38 0.28,-0.57 0.07,0.15 0.01,0.14 0,0.43l1.08 0.51c0.93,0.74 1.52,1.71 1.82,2.91 0.12,0.48 0.23,2.12 0.14,2.93 -0.11,1.02 0.03,0.43 0.26,1.23 0.15,0.51 0.1,0.78 -0.1,1.22 -0.11,-0.08 -0.47,-0.53 -0.62,-0.68 -1.05,-1.11 -3.26,-1.48 -4.69,-0.57l-0.74 0.56c-0.88,1.01 -1.02,1.41 -0.88,2.76 0.08,0.75 0.39,0.51 0.99,1.41 0.23,0.35 0.24,0.74 0.14,1.19 -0.11,0.51 -0.28,0.37 -0.85,0.37 -0.83,-0.01 -1.65,-0 -2.48,-0 -0.13,-0.28 -0.21,-0.81 -0.13,-1.24 0.05,-0.28 0.35,-0.62 0.52,-0.79 0.28,-0.28 0.62,-0.24 0.95,-0.71 0.2,-0.29 0.11,-0.41 0.21,-0.74zm-1.91 -11.5c-0.08,0.26 0.01,0.25 -0.27,0.33 0.02,-0.25 0.02,-0.21 0.12,-0.37 0.11,-0.3 0.35,-0.62 0.66,-0.72 -0.24,0.42 -0.45,0.44 -0.51,0.75zm-0.06 -2.08l-0.05 0.05 0.05 0.15c-0.26,0.07 -0.15,0.08 -0.35,0.22l-0.28 0c-1.27,0.7 -1.04,1.63 -1.54,2.09 -0.22,0.2 -0.87,0.49 -1.16,0.64 -1.05,0.57 -2.45,2.65 -2.48,3.92 -0.01,0.53 -0.07,0.49 -0.12,0.83l-0.09 1.83 0.21 0c-0.08,0.96 -0.31,0.74 -0.36,1.18 -0.13,1.14 0.52,0.95 0.09,2.76 -0.12,0.48 -0.36,0.67 -0.58,1.02 0.33,0.72 0.03,0.28 0.99,0.52 0,0.85 -0.54,0.43 -0.98,0.9 -0.26,0.28 -0.5,0.94 -0.51,1.47 -0.16,0.26 -0.18,0.14 -0.33,0.35 -0.24,-0.13 -0.33,-0.09 -0.58,-0.28l-0.79 -0.51c0.16,-0.7 0.84,-1.12 0.13,-1.91 -0.18,-0.2 -0.33,-0.35 -0.55,-0.34 -0.98,-0.21 -1.26,-0.04 -1.7,-0.2 -0.08,-0.25 -0.06,-0.39 0.07,-0.59 0.17,-0.27 0.93,-1.17 1.14,-1.26 1.75,-1.23 0.98,-3.38 -0.84,-2.65 -0.32,0.13 -0.41,0.29 -0.68,0.48 -1.03,0.74 -0.47,0.37 -1.74,0.25 -0.14,0.09 0.17,0.04 -0.21,0.07 -0.19,0.01 -0.36,-0.08 -0.49,-0.15 0,-0.7 0.2,-0.51 0.22,-1.03 0.02,-0.66 -0.13,-0.53 -0.29,-0.96 -0.47,-0.73 -1.62,-0.38 -1.99,-0.08 -0.25,0.2 -0.47,0.42 -0.73,0.65 -0.73,0.64 -1.39,1.6 -1.74,2.55l-0.35 1.85c-0.02,0.22 -0.01,0.5 -0.01,0.73 -1.07,0 -0.92,-0.69 -2.18,-0.35 -0.49,0.13 -0.22,0.42 -0.93,0.43 -0.46,0.01 -0.96,-0.04 -1.22,-0.02 -1.53,0.13 -1.01,1.78 -1.82,2.32 -0.38,0.25 -0.83,0.04 -0.93,0.5l0 1.41c0.77,0.49 0.07,0.63 -0,0.81l0.02 1.68c0.31,0.25 0.47,-0.17 0.55,0.91 0.06,0.84 0.64,1.52 1.44,1.06 0.35,-0.21 0.37,-0.46 0.69,-0.66 0.67,0.23 0.45,0.2 1.13,0.2l2.7 0c0.3,0 0.94,0.04 0.95,0.5l-0.36 1.22 -0.1 0.33c-0.24,1.16 -0.72,2.43 -1.07,3.62 -0.22,0.76 0.11,0.82 0.23,1.34 0.26,0 0.52,-0 0.78,-0 0.39,-0 0.49,0.05 0.78,0.08 0,1.04 -0.38,1.02 -0.59,1.82 -0.2,0.77 -0.15,1.43 0.33,1.86 0.9,0.8 2.5,0.31 4.16,0.31 0.38,0 0.76,0 1.14,-0 0.48,-0 0.65,0.08 1.13,0.08 0.4,-0 0.81,-0 1.21,0 0.61,0 0.5,-0.15 1.06,-0.16 0.81,-0.01 3.92,0.26 4.33,0.09 0.1,-0.04 0.08,-0.04 0.13,-0.08 0.46,0.16 -0.25,-0.01 0.21,0.15 0.45,-0.32 2.7,-0.3 3.26,-0.3 0.65,0 1.07,-0.12 1.63,-0.15 0.56,-0.03 1.21,0 1.77,0l3.54 0.08c0.58,0.02 1.2,0 1.77,-0 1.09,-0.01 0.44,0.17 1.56,0.07 0.17,0.32 0.27,0.19 0.28,0.67 0.05,0.65 1.55,1.36 2.31,0.12 0.67,-1.09 0.46,-0.4 1.66,-0.41l2.55 -0c0.51,0 0.71,-0.08 1.2,-0.08 0.07,-0.15 0.27,-0.7 0.28,-0.89 0,-0.33 0.35,-1.68 0.47,-2.03 0.11,-0.34 0.15,-0.71 0.23,-1.02l0.89 -3.44c0.28,-0.75 -0.27,-0.22 -0,-1.34l1.82 -0.01c1.18,-1.07 0.3,-1.67 0.49,-2.14 0.24,-0.58 0.86,-0.68 0.86,-2.15l-0.85 -0.64c0,-0.37 0.16,-0.91 0.27,-1.23 0.45,-1.41 0.17,-2.26 0.07,-3.6 0.07,-1.3 -2.05,-2.12 -2.5,-2.47 -0.89,-0.7 0.08,-0.29 -1.47,-1.05 -0.63,-0.31 -0.61,-0.97 -1.14,-1.4 -0.82,-0.67 -1.49,-1.2 -2.4,-0.35 -0.39,0.36 -0.53,1.34 -0.18,1.93 0.63,1.06 -0.12,0.89 0.07,2.07l0.41 0.9c0.23,0.18 0.08,0.08 0.21,0.37 -0.25,0.14 -0.43,0.25 -0.57,0.07 -0.82,-0.02 -0.45,-0.4 -1.31,-0.03 -0.5,0.21 -0.62,0.43 -0.89,0.85 -0.4,0 -0.5,-0.01 -0.72,-0.21 -1.04,-0.91 -0.11,-0.55 -0.06,-1.27 0.03,-0.43 -0.25,-0.54 -0.42,-0.66 0,-0.72 -0.09,-1.06 -0.21,-1.63 -0.19,-0.93 0.3,-0.44 0.21,-1.54 -0.04,-0.53 -0.26,-1.11 -0.18,-1.67 0.24,-1.66 -0.02,-3.17 -0.84,-4.59 -0.47,-0.82 -0.79,-0.99 -1.38,-1.45 -0.18,-0.14 -0.36,-0.3 -0.58,-0.36 -0.7,-0.14 -0.89,-0.41 -1.12,-1.05 -0.32,-0.87 -0.61,-0.92 -0.86,-1.31 -0.13,-0.18 -0.72,-0.57 -0.92,-0.64 -0.48,0.03 -0.33,-0.25 -1.01,-0.29l-1.18 -0.06c-1.43,0.07 -1.23,0.24 -1.63,0.35 -0.19,0.05 -0.26,-0.01 -0.51,0z"/>
   <path class="fil1" d="M23.25 13.49c-0.48,0 -0.71,-0.08 -0.92,0.22 0.3,0.07 0.47,0.24 0.71,0.37 -0.07,0.32 -0.37,0.91 0.19,0.73 0.38,-0.13 0.3,-0.05 0.45,-0.36l0.49 0.09c-0.01,-0.01 -0.04,-0.01 -0.04,0.01 -0.03,0.12 -0.08,-0.05 -0.14,0.17 0.65,-0.02 0.69,0.25 0.69,-0.2 0,-0.31 -0.28,-0.12 -0.08,-0.52 0.12,-0.25 0.23,-0.15 0.37,-0.36 0.12,-0.18 0.02,-0.08 0.11,-0.26 0.11,-0.21 0.21,-0.23 0.34,-0.2 0.01,0 0.03,0.01 0.04,0.01l0.19 0.08c-0.17,0.54 -0.52,0.46 -0.68,0.75 -0.14,0.24 0.08,0.77 0.09,0.85 0.04,0.32 0.03,0.14 -0.05,0.23 -0.26,0.26 -0.31,0.02 -0.51,-0.08 -1.08,-0.5 -1.14,0.25 -1.66,0.25 -0.29,0 -0.27,-0.2 -0.2,-0.43 0.08,-0.3 0.19,-0.35 0.01,-0.62 -0.32,-0.47 -0.76,-0.23 -0.8,-0.88 1.34,0 1.27,-0.31 1.48,-0.67 0.1,-0.17 0.21,-0.33 0.36,-0.44 0.46,0.32 0.43,0.89 0.99,0.89l0.5 0.07c-0.94,0.08 -0.92,0.46 -1.42,-0.52 -0.25,0.17 -0.42,0.46 -0.5,0.81zm0.43 3.4c1.39,0 0.78,-0.12 1.91,-0.22 0,-1.7 1.34,-1.75 1.82,-2.02 0.03,-1.32 -0.34,-1.94 -0.97,-2.64 -0.16,-0.17 -0.33,-0.29 -0.48,-0.38l-1.13 -0.45c-1.18,-0.25 -2.51,-0.13 -3.33,0.63 -0.5,0.47 -1.14,1.31 -1.08,2.04 0.04,0.55 0.16,-0.14 0.1,0.63 -0.04,0.54 0.53,1.22 0.87,1.55 0.48,0.46 1.49,0.87 2.29,0.87z"/>
   <path class="fil1" d="M30.62 13.23c0.01,-0 0.03,-0 0.05,-0 0.23,-0.03 -0.12,-0.06 0.31,-0.09 0.3,-0.02 0.23,0.16 0.51,-0.07 0.22,-0.18 0.41,-0.6 0.55,-0.84 0.23,0.16 0.61,0.7 0.64,1.04 0.38,0 1.16,0.01 1.28,0.44 -0.21,0.05 -0.4,0.18 -0.57,0.3 -0.19,0.13 -0.24,0.24 -0.43,0.37 0.22,0.34 0.14,0.44 0.14,1.04 -0.35,-0.1 -0.83,-0.52 -1.28,-0.52 -0.49,0 -1.16,0.7 -1.14,0.09 0.02,-0.44 0.01,-0.08 0.09,-0.28 0.25,-0.59 0.13,-0.64 -0.31,-0.97 -0.2,-0.15 -0.28,-0.17 -0.34,-0.46 0.16,-0.04 0.16,-0.07 0.35,-0.07 0.22,0 -0.13,0.04 0.14,0.04zm0.88 -2.11c-0.41,0.09 -0.36,-0.11 -1.21,0.31 -0.41,0.2 -0.57,0.35 -0.91,0.68l-0.18 0.18c-0.16,0.19 -0.05,0.05 -0.16,0.27 -0.4,0.81 -0.36,0.59 -0.43,1.86 -0.03,0.58 0.31,0.45 0.71,0.78 0.45,0.37 0.37,0.45 0.63,0.97 0.27,0.54 2.01,0.58 2.5,0.57 0.76,-0.01 1.55,-0.4 2.11,-0.93 0.63,-0.6 0.55,-1.06 0.61,-1.36 0.12,-0.55 0.27,-0.78 0.02,-1.33 -0.01,-0.02 -0.02,-0.03 -0.02,-0.05 -0.26,-0.59 -0.54,-1.13 -1.18,-1.5 -0.72,-0.41 -1.48,-0.7 -2.5,-0.48z"/>
   <path class="fil1" d="M38.56 21.99c-0.11,-0.72 0.26,-1.41 0.45,-2.12 0.18,-0.67 0.35,-1.67 0.83,-1.8 0.5,0.35 0.11,0.69 -0.3,2.06 -0.3,1.02 -0.38,1.85 -0.98,1.86zm1.77 -4.51c-0.24,-0.06 -0.79,-0.75 -1.83,-0.13 -0.47,0.28 -0.67,0.58 -0.83,1.2 -0.1,0.38 -0.17,0.41 -0.25,0.77 -0.34,1.42 -0.77,1.82 -0.77,3.26 0.68,0.17 0.02,0.47 1.05,0.13 0.1,-0.03 0.1,-0.03 0.23,-0.06 1.81,-0.45 1.37,0 2.69,0 0,-0.54 0.57,-1.95 0.74,-2.55l0.76 -2.54c0.08,-0.24 0.18,-0.58 0.27,-0.83 0.38,-1.08 0.52,-0.81 -1.55,-0.81l-0.5 1.55z"/>
   <path class="fil1" d="M6.73 29.31c0.61,0 0.82,0.04 1.28,0.07 0.08,-0.3 0.09,-0.06 0.23,-0.72 0.13,-0.61 0.33,-0.83 0.42,-1.56 0.06,-0.44 0.04,-0.47 0.34,-0.68l0 0.52c-0.17,0.1 -0,-0.04 -0.14,0 0.1,0.44 0.03,0.75 0.09,1.23 0.99,-0.54 0.77,-0.38 1.89,-0.57 0.18,-0.83 1.42,-4.51 1.42,-4.95l-1.35 0 -0.62 2.24c-0.14,0.38 -0.1,0.58 -0.23,0.79 -0.01,-0.33 -0.07,-0.29 -0.07,-0.67l0 -2.37 -1.35 -0.02 -1.41 4.98c-0.12,0.4 -0.47,1.31 -0.51,1.69z"/>
   <path class="fil1" d="M36.64 23.99c0.01,0.61 0.23,0.25 0.02,1.28 -0.09,0.44 -0.56,1.98 -0.79,2.36 -0.31,0.51 -0.96,0.91 -0.33,1.42 0.62,0.51 0.35,0.18 0.95,-0.11 0.16,-0.08 0.47,-0.19 0.69,-0.24l1.05 -3.78c0.21,-0.54 0.11,-0.85 0.81,-0.85 0,0.91 -1.25,4.39 -1.28,4.73 0.71,0.17 0.58,0.35 0.92,0.44l0.08 -0.51c0.05,-0.17 0.02,-0.08 0.06,-0.16l0.7 -0.97c0.13,-0.19 0.24,-0.33 0.3,-0.58 -0.29,-0.45 -0.39,-0.24 -0.22,-0.89 0.22,-0.88 0.36,-0.71 0.87,-0.7 0.09,0 0.1,-0.02 0.28,-0.03 0.16,-0.7 0.42,-1.26 0.02,-1.79 -0.45,-0.59 -0.86,-0.65 -1.72,-0.65 -0.6,0 -1.17,0.11 -1.61,0.39l-0.33 0.24c-0.19,0.17 -0.3,0.28 -0.47,0.4z"/>
   <path class="fil1" d="M10.7 21.7c0,-0.34 0.17,-0.92 0.31,-1.15 0.27,-0.46 0.34,-0.36 0.75,-0.62 -0,0.24 0.02,0.19 -0.05,0.39 -0.01,0.02 -0.04,0.08 -0.05,0.1l-0.09 0.2c-0.33,0.89 -0.12,1.21 -0.88,1.08zm-0.92 -2.59c0.3,0 0.62,0.01 0.92,0 0.98,-0.03 0.76,-0.07 0.96,-0.7 0.08,-0.25 0.14,-0.37 0.24,-0.56 0.74,0.06 0.43,0.33 0.35,0.66 -0.12,0.47 0.01,0.48 -0.84,0.82 -1.35,0.54 -2.02,0.26 -2.5,2.36 -0.26,1.14 0.97,-0.01 1.5,0.82 0.67,-0.25 -0.38,-0.3 1.91,-0.3 0.17,0 0.4,0.16 0.5,0.22 0.37,-1.67 0.69,-2.07 0.98,-3.12 0.04,-0.16 0.05,-0.26 0.11,-0.41 0.14,-0.42 0.26,-0.49 0.22,-1.12 -0.02,-0.33 -0.09,-0.46 -0.34,-0.64 -0.5,-0.34 -1.04,-0.26 -1.66,-0.26 -0.59,0 -1.26,0.44 -1.56,0.66 -0.26,0.19 -0.33,0.38 -0.48,0.68 -0.1,0.19 -0.28,0.64 -0.3,0.87z"/>
   <path class="fil1" d="M43.16 21.99c0,-0.5 0.07,-0.79 0.26,-1.14 0.06,-0.11 0.22,-0.33 0.31,-0.41 0.23,-0.21 0.16,-0.09 0.4,-0.2 0.04,0.34 0.01,0.19 -0.06,0.47 -0.12,0.44 -0.24,0.9 -0.48,1.28l-0.43 -0zm-0.99 -2.74c0.28,0.17 0.79,0.12 1.26,0.1 0.2,-0.01 0.35,-0.06 0.51,-0.1 0,-0.26 0.16,-1.15 0.51,-1.17 0.52,-0.03 0.25,1.23 -0.38,1.45 -0.57,0.2 -1.41,0.44 -1.87,0.71 -0.28,0.17 -0.24,0.15 -0.4,0.47 -0.29,0.61 -0.41,1.08 -0.41,1.71 0,0.27 0.48,0.58 0.94,0.54 0.08,-0.01 0.28,-0.02 0.34,-0.03 0.26,-0.04 0.62,-0.25 0.78,-0.43 0.01,0.01 0.02,0.02 0.02,0.05l0.1 0.38c0.45,-0.01 0.51,0.05 0.83,-0.12 0.06,-0.22 0.02,-0.38 -0.31,-0.47 0,-0.3 0.06,-0.49 0.12,-0.69 0.32,-1.1 1.03,-0.33 1.44,-0.57 0.22,-0.17 0.17,-0.36 0.28,-0.68 0.09,-0.29 0.14,-0.57 0.22,-0.8 0.17,-0.53 0.36,-1.02 0.36,-1.7 0,-0.3 -0.57,-0.66 -1.07,-0.74 -0.96,-0.15 -2.32,0.09 -2.79,1.06l-0.46 1z"/>
   <path class="fil2" d="M0.65 18.43l0.2 0.16c0.44,0.29 1.05,-0.36 1.03,0.25 -0.01,0.37 -0.16,1.04 -0.22,1.38 -0.27,0.02 -0.69,0.1 -0.93,0.18 -0.34,0.11 -0.58,0.13 -0.55,0.53 0.26,0.18 0.94,0.15 1.38,0.15 0,0.42 -0.14,1.69 0,1.94l0.19 0 0.15 -0.43c0.09,-0.12 0.02,0.03 0.06,-0.17 0.02,-0.1 0.02,-0.16 0.03,-0.27l0.3 -1.31c0.45,-0.11 1.25,-0.4 1.67,-0.41l-0.07 1.63 0.01 0.42c0.28,-0.01 0.25,0.03 0.33,-0.2l0.13 -0.4c0.1,-0.56 0.08,-0.76 0.25,-1.44 0.17,-0.64 0.13,-0.2 1.25,-0.68 0.02,-0.01 0.04,-0.02 0.05,-0.02l0.1 -0.05 0.13 -0.06c0.29,-0.07 0.28,-0.09 0.4,-0.33 -0.72,-0.16 -1.08,0.09 -1.59,0.11 0,-0.29 0.2,-1.1 0.28,-1.41 0.08,-0.29 0.1,-0.29 0.39,-0.41 0.2,-0.08 0.41,-0.15 0.62,-0.25 0.4,-0.23 0.51,-0.16 0.68,-0.44 -0.07,-0.05 -0.04,-0.07 -0.19,-0.11 -0.21,-0.06 -0.51,-0.03 -0.7,0.11l-0.44 0c0,-0.5 0.13,-0.79 0.23,-1.18 0.13,-0.46 -0.11,-0.8 -0.59,-0.53 -0.39,0.22 -0.68,1.58 -0.78,2.08 -0.47,0.04 -0.66,0.22 -1.28,0.22 0,-0.42 0.31,-1.31 0.27,-1.62 -0.06,-0.42 -0.59,-0.2 -0.64,-0.17 -0.21,0.12 -0.27,0.43 -0.33,0.62 -0.55,1.73 -0.15,1.48 -1.19,1.65 -0.37,0.06 -0.44,0.19 -0.73,0.26l0.08 0.21zm2.33 -0.1c0.19,-0.06 0.48,-0.08 0.68,-0.14 0.36,-0.1 0.25,-0.24 0.67,-0.19 -0.03,0.21 -0.22,1.4 -0.26,1.51 -0.1,0.26 -0.27,0.24 -0.56,0.3 -1,0.19 -1.06,0.49 -0.69,-1.06 0.04,-0.17 0.09,-0.25 0.16,-0.41z"/>
   <path class="fil2" d="M29.49 22.66c0,-0.14 0.02,-0.13 0.07,-0.22 0.14,0.04 0.28,0.07 0.25,0.31 -0.02,0.19 -0.09,0.13 -0.33,0.13l0 -0.22zm-0.35 -0.59c0,-0.3 0.48,-1.46 0.58,-1.77 0.31,-0.99 0.34,-1.33 0.91,-1.19 0,0.63 -0.63,1.98 -0.85,2.67 -0.11,0.34 -0.17,0.62 -0.57,0.58 -0.1,-0.2 -0.07,0.09 -0.07,-0.3zm3.33 -4.08c-0.09,-0.06 -0.3,-0.23 -0.15,-0.38 0.21,-0.22 0.25,0.08 0.28,0.17 0.07,-0.09 0.08,0.06 0.08,-0.3l-1.42 0c-0.51,1.01 -0.04,1.49 -0.76,1.02 -0.46,-0.31 -1.11,-0.1 -1.49,0.18 -0.45,0.33 -1.45,3.4 -1.45,3.82 -0.01,1.14 1.72,0.31 1.72,0.31 0.32,0.02 -0.06,0.26 0.6,0.23 1.37,-0.06 0.68,0.7 2.09,-3.28 0.15,-0.41 0.49,-1.39 0.5,-1.78z"/>
   <path class="fil1" d="M7.51 18.67c0,-0.44 0.05,-1.19 0.02,-1.43 -0.16,-0.02 -0.05,-0.02 -0.22,0.1 -0.85,0.61 -1.3,0.45 -1.5,0.73 -0.08,0.11 -0.18,0.5 -0.16,0.69 0.27,-0.05 0.46,-0.15 0.78,-0.08 0.25,0.05 0.57,0.19 0.66,0.36 0.34,0.67 -0.44,0.89 -0.78,1.08 -0.02,0.7 -0.09,1.11 -0.06,1.87 0.01,0.28 0.06,0.26 0.06,0.6 1.89,0 1.6,0.17 1.78,-0.43l1.5 -4.57c0.17,-0.52 0.54,-1.34 0.54,-1.87 -1.99,0 -1.4,-0.11 -1.71,0.66 -0.05,0.13 -0.1,0.16 -0.17,0.34l-0.37 1.25c-0.16,0.58 -0.14,0.64 -0.38,0.71z"/>
   <path class="fil1" d="M22.42 25.96c-0.2,-0.19 -0.16,-0.04 -0.14,-0.31 0.03,-0.36 0.2,-0.71 0.45,-0.89 0.41,0.32 0.16,1.16 -0.31,1.21zm-2.36 2.76c0.2,0.1 0.25,0.13 0.46,0.1l1.03 -0.05c0.01,0 0.03,0.01 0.05,0.01 0.01,0 0.03,0.01 0.05,0.02 0.16,0.05 -0,0.1 0.37,0.05 0.84,-0.1 1.2,0.18 1.53,-0.56 0.22,-0.51 0.29,-0.71 0.26,-1.09 -0.49,0.09 -0.78,0.09 -1.26,-0.02 -0.24,0.38 -0.22,0.4 -0.36,0.88 -0.1,0.33 -0.19,0.74 -0.63,0.53 -0.15,-0.16 0.25,-1.24 0.34,-1.5 0.16,-0.45 0.1,-0.35 1.15,-0.35 0.43,0 0.52,0.07 0.92,0.07 0.05,-0.24 1.31,-2.96 -0.71,-2.96 -2.45,0 -2.46,1.74 -3.11,4.08 -0.08,0.3 -0.15,0.46 -0.08,0.81z"/>
   <path class="fil1" d="M27.71 33.38l1.06 0 0.46 -1.82c0.1,-0.36 0.38,-1.55 0.61,-1.73l0.28 0.08 -0.92 3.47c0.45,0 0.65,0.04 0.99,0.07 0.18,-0.35 0.16,-0.59 0.28,-0.96 0.13,-0.38 0.57,-2.42 0.75,-2.56 0.59,-0.48 0.12,1.02 0.07,1.2l-0.58 2.06c-0.03,0.38 0.24,0.26 0.97,0.26 0.08,-0.35 0.2,-0.53 0.28,-0.89 0.08,-0.32 0.13,-0.62 0.23,-0.95 0.14,-0.52 0.65,-2.01 0.39,-2.32 -0.24,-0.28 -0.96,-0.3 -1.12,0.16 -0.62,-0.01 -0.25,-0.45 -0.95,-0.35 -0.12,0.02 -0.07,0.01 -0.18,0.05 -0.2,0.08 -0.14,0.12 -0.43,0.15 -0.04,-0.11 0.18,-0.22 -0.85,-0.22 -0.37,0 -0.35,0.58 -0.45,0.94l-0.9 3.35z"/>
   <path class="fil1" d="M26.37 27.39c0,-0.53 0.29,-1.24 0.43,-1.69 0.09,-0.27 0.16,-0.55 0.25,-0.85 0.18,-0.6 0.32,-0.49 0.52,-0.49 0,0.58 -0.24,1.17 -0.4,1.66 -0.15,0.44 -0.32,1.14 -0.52,1.45 -0.15,-0.07 -0.06,-0.05 -0.28,-0.07zm-1.42 0.07c0,1.41 1.48,0.48 1.63,0.44 -0.04,0.47 -0.2,0.5 -0.28,0.81 0.27,-0.01 0.41,-0.09 0.67,-0.12 0.31,-0.04 0.37,0.05 0.75,0.05l1.34 -4.3c0.05,-0.16 0.06,-0.16 0.11,-0.34 0.03,-0.1 0.28,-0.38 -0.6,-0.31 -0.18,0.01 -0.2,0.03 -0.29,0.03 -0.09,0 -0.16,-0.03 -0.35,-0.03l-0.08 0.29c-0.39,-0.04 -0.22,-0.37 -0.91,-0.37 -0.41,0 -0.75,0.24 -0.94,0.5 -0.18,0.26 -0.3,0.74 -0.4,1.06 -0.12,0.39 -0.21,0.68 -0.33,1.13 -0.1,0.39 -0.31,0.75 -0.31,1.15z"/>
   <path class="fil2" d="M24.95 22.29c0.01,-0.63 0.32,-1.46 0.99,-1.48 -0.01,0.27 -0.06,0.34 -0.14,0.52 -0.31,0.71 -0.19,1.09 -0.85,0.96zm-0.64 -2.22l1.28 0c0.2,-0.4 0.2,-0.72 0.46,-1.04 0.36,-0.02 0.41,0.04 0.38,0.35 -0.13,1.07 -0.7,0.9 -1.54,1.21 -0.54,0.2 -0.85,0.26 -1.06,0.74 -0.48,1.07 -0.55,1.47 0.09,1.67 0.39,0.12 0.53,0.07 0.96,-0.12 0.14,-0.06 0.32,-0.16 0.46,-0.22 0.01,0.27 -0.02,0.2 0.11,0.33 0.32,-0 0.85,-0.04 1.28,-0.04 0.16,-0.71 1.2,-3.11 1.2,-3.92 0,-0.26 -0.49,-0.67 -0.78,-0.67 -0.74,0 -1.59,-0.03 -2.22,0.49 -0.3,0.25 -0.6,0.79 -0.61,1.21z"/>
   <path class="fil2" d="M33.67 21.03c0.28,-0.08 0.34,-0.34 0.42,-0 0.06,0.24 -0.33,1.16 -0.53,1.41 -0.57,-0.04 -0.4,-0.2 -0.26,-0.68 0.13,-0.47 0.17,-0.4 0.37,-0.72zm0 0l-0.43 0 0 -0.15c0.17,-0.04 0.21,-0.07 0.43,-0.07l0 0.22zm-1.1 -0.92c0.21,-0.01 1.15,0.05 1.18,0.03 0.15,-0.1 0.24,-0.64 0.49,-1.03 0.43,0 0.49,-0.06 0.41,0.4 -0.18,1 -0.74,0.94 -1.53,1.17 -0.85,0.24 -1.03,0.33 -1.33,1.35 -0.1,0.35 -0.08,0.65 -0.07,0.67 0,0.02 0.02,0.04 0.02,0.05 0.23,0.77 1.6,0.1 1.72,0.05l0.09 0.13c0.08,0.11 0.04,0.07 0.12,0.17 0.6,-0.07 0.82,-0.04 1.28,0 0.1,-0.43 0.21,-0.69 0.33,-1.06l0.7 -2.15c0.05,-0.19 0.1,-0.45 0.11,-0.64 0.02,-0.69 -0.57,-0.83 -1.14,-0.8 -0.59,0.03 -0.66,-0.08 -0.97,0.1 -0.05,0.03 -0.2,0.13 -0.21,0.13 -0.05,0.02 -0.48,-0 -0.81,0.43 -0.12,0.15 -0.45,0.67 -0.39,1z"/>
   <path class="fil1" d="M28.64 27.98c0.65,0.45 0.76,0.4 1.49,0 0.5,0.2 -0.37,-0.24 0.12,0.1 0.22,0.15 1.05,0.13 1.37,0.13 0.06,-0.2 0.08,-0.37 0.13,-0.53 0.29,-0.94 1.04,-3.12 1.21,-3.91l-1.35 0 -1.11 3.5c-0.15,0.27 -0.05,0.2 -0.45,0.2 0.01,-0.53 0.36,-1.38 0.5,-1.84 0.12,-0.38 0.49,-1.51 0.49,-1.86 -0.81,-0.04 -1.17,-0.13 -1.33,0.16 -0.2,0.37 -0.45,1.43 -0.6,1.9l-0.38 1.15c-0.15,0.52 -0.1,0.4 -0.1,1z"/>
   <path class="fil1" d="M11.41 27.69l0.71 0.39c0.27,-0.12 0.16,-0.14 0.35,-0.25 0.78,-0.42 0.23,0.56 0.72,-0.95l0.49 -1.63c0.11,-0.38 0.07,-0.52 0.57,-0.52 0,0.76 -0.6,2.21 -0.78,3.03 0.68,0 0.69,-0.08 1.04,0.32 -0.03,0.25 -0.14,0.23 -0.19,0.57 0.35,-0.03 0.35,-0.11 0.48,-0.39 0.11,-0.25 0.16,-0.43 0.26,-0.69 0.24,-0.61 0.79,-2.38 0.64,-3.02 -0.26,-1.15 -2.68,-1.07 -3.4,0.44l-0.53 1.51c-0.04,0.14 -0.01,0.03 -0.03,0.14 -0.09,0.55 -0.15,0.49 -0.33,1.05z"/>
   <path class="fil2" d="M13.4 28.35c0.24,0.13 0.13,0.01 0.28,0.21l-0.28 0.08 0 -0.3zm1.7 1.54c-0.26,-0.05 -0.17,-0.53 -0.14,-0.58 -0.37,-0.34 -0.87,-0.04 -1.35,0.07 0,-0.45 0.19,-0.7 0.28,-1.11 -0.34,0 -0.66,-0.1 -0.88,-0.1 -0.36,-0 -0.43,0.54 -0.67,1.29l-1 3.17c-0.09,0.26 -0.15,0.55 -0.21,0.89l1.13 0.01c0.03,-0.29 0.21,-0.68 0.31,-1.02 0.2,-0.64 0.58,-2.1 0.81,-2.48 0.18,-0.3 0.06,-0.21 0.51,-0.21 -0.01,0.62 -0.97,3.01 -1.1,3.73 1.61,-0.1 1,0.32 1.54,-1.21 0.27,-0.78 0.62,-1.78 0.76,-2.46z"/>
   <path class="fil1" d="M34.38 25.32c0,-0.51 0.16,-0.79 0.57,-0.89 0,1.31 -0.57,1.05 -0.57,0.89zm1.42 1.26c0,-0.41 -0.32,-0.14 -0.7,-0.18 -0.49,-0.04 -0.47,-0.26 -0.71,0.56 -0.11,0.37 -0.09,0.58 -0.43,0.58 -0.42,0 -0.11,-0.74 0.14,-1.48 2.27,0 1.78,0.16 1.99,-0.58 0.07,-0.24 0.51,-1.29 -0.3,-1.64 -0.27,-0.12 -0.18,-0.01 -0.33,-0.06l-0.07 -0.03c-0.4,-0.19 -0.48,0.03 -0.78,0.05 -0.61,0.05 -1.07,0.22 -1.39,0.9 -0.25,0.54 -0.9,2.44 -0.75,2.97 0.29,1.02 2.46,0.81 3.04,-0.36 0.04,-0.07 0.29,-0.68 0.29,-0.74z"/>
   <path class="fil2" d="M8.29 31.83l0.28 0c-0.07,0.27 -0.01,0.2 -0.28,0.22l0 -0.22zm0.78 0.89c0,-0.52 0.27,-0.55 0.18,-1 -0.76,-0.14 -1.01,-0.08 -1.17,0.41 -0.2,0.62 -0.35,1.33 0.57,1.47l0.35 0.11c0.53,0 1.12,-0.3 1.46,-0.58 0.26,-0.22 0.28,-0.33 0.41,-0.68 0.87,-2.28 -0.77,-1.82 -0.92,-2.72 -0.12,-0.7 0.88,-1.15 0.71,-0.47 -0.08,0.32 -0.15,0.13 -0.18,0.5l1.2 -0.07c0.08,-1.04 0.66,-1.55 -1.28,-1.55 -0.29,0 -0.56,0.12 -0.8,0.26 -0.57,0.34 -1.14,1.52 -0.82,2.16 0.2,0.42 0.88,0.78 1,1.19 0.2,0.74 -0.72,1.63 -0.72,0.96z"/>
   <path class="fil2" d="M21.83 31.46l-0.21 0 0.01 -0.33c-0.28,0.34 0.18,0.31 -0.37,0.37 0,-0.45 0.13,-0.69 0.21,-1.07l0.21 -1.11c-1.14,-0.12 -0.95,-0.12 -1.3,0.79 -0.2,0.52 -0.42,1.36 -0.76,1.54 0.01,-0.56 0.21,-1.26 0.33,-1.87 0.09,-0.44 0.26,-0.53 -0.32,-0.55 -0.67,-0.02 -0.61,-0.07 -0.67,0.5 -0.09,0.77 -0.68,3.5 -0.68,3.87 1.75,0 1.12,0.23 1.94,-1.53 0.07,-0.15 0.05,-0.11 0.13,-0.23l0.23 -0.24c-0.05,0.74 -0.24,1.33 -0.35,1.96 0.28,0.06 0.6,0.04 0.89,0.04 0.84,0.01 0.34,-0.25 0.52,-1.38 0.05,-0.33 0.13,-0.5 0.19,-0.77z"/>
   <path class="fil2" d="M15.95 18.37c-1.02,0.21 -1.38,0.5 -1.74,1.45 -0.17,0.44 -0.82,2.05 -0.76,2.42 0.08,0.48 0.38,0.7 0.86,0.72 0.56,0.02 0.86,0.07 1.35,-0.07 0.76,-0.22 1.31,-1.02 1.48,-1.78l-1.28 0 -0.21 0.59c-0.25,0.85 -1.08,0.83 -0.59,-0.17 0.18,-0.37 0.15,-0.53 0.28,-0.95 0.1,-0.32 0.18,-0.33 0.27,-0.63 0.16,-0.53 0.23,-0.94 0.68,-1.06 0.16,0.73 -0.02,0.51 -0.07,1.11 0.21,0 0.42,-0.01 0.62,-0.03 0.34,-0.03 0.25,0 0.58,0.03 0.39,-0.25 0.37,-1.11 0.05,-1.38 -0.28,-0.24 -0.99,-0.44 -1.43,-0.24 0.16,0 0.15,-0.03 0.27,0.04 0.14,0.08 0.06,0.02 0.12,0.18 -0.21,0.11 -0.2,0.07 -0.5,0.07l0 -0.3z"/>
   <path class="fil2" d="M17.51 21.62l0.14 0c0.02,0.23 0.07,0.36 0.14,0.52l-0.28 -0.01 1.21 0.09c0.19,-0.66 0.32,-1.3 1.06,-1.48 0,0.6 -0.66,1.61 -0.71,1.85 0.22,0.11 0.86,0.13 1.21,0.12 0.45,-0.01 0.38,-0.13 0.67,-1.05 0.2,-0.65 0.75,-2.05 0.75,-2.77 -0.51,-0.53 -0.44,-0.52 -1.35,-0.52 -0.39,-0 -0.56,0.05 -0.77,0.11 -0.21,0.06 -0.42,0.13 -0.62,0.21 -0.46,0.21 -0.66,0.61 -0.81,1.1 -0.16,0.52 0.51,0.02 1.28,0.24 0.15,-0.21 -0.01,-0.18 0.21,-0.63 0.12,-0.25 0.18,-0.41 0.5,-0.44 0.06,0.08 0.15,0.12 0.11,0.46 -0.03,0.23 -0.07,0.4 -0.19,0.57 -0.35,0.49 -1.36,0.42 -1.92,0.8 -0.5,0.33 -0.4,0.35 -0.62,0.84z"/>
   <path class="fil2" d="M16.02 32.72c0,-0.23 0.58,-1.94 0.73,-2.43 0.19,-0.64 0.27,-0.53 0.48,-0.53 0.09,0.2 0.07,-0.06 0.07,0.22 0,0.45 -0.35,1.23 -0.47,1.73 -0.1,0.42 -0.32,1.31 -0.74,1.37 -0.1,-0.21 -0.07,0.12 -0.07,-0.37zm-1.2 0.22c0,1.01 1.74,0.83 2.35,0.31 0.71,-0.59 1.26,-2.59 1.26,-3.49 0,-0.54 -0.87,-0.59 -1.27,-0.58 -1.31,0.04 -1.61,1.11 -1.93,2.12 -0.1,0.31 -0.41,1.32 -0.41,1.64z"/>
   <path class="fil1" d="M19 23.92c-0.13,0.06 -0.44,-0.06 -0.64,0.99l0.28 0.06 -0.5 1.83c-0.14,0.51 -0.47,1.48 -0.51,1.93 0.97,0 0.48,0.3 0.87,0.3 0.43,0 -0.19,-0.3 1.13,-0.3l-0.2 -0.09c-0.14,-0.1 -0.16,0.16 -0.16,-0.36 0,-0.17 0.18,-0.68 0.24,-0.93l0.55 -1.87c0.21,-0.68 0,-0.54 0.56,-0.53 0.07,-0.45 0.23,-0.38 0.21,-0.89 -0.18,-0.04 -0.18,-0.06 -0.35,-0.12 0.07,-0.19 0.2,-0.52 0.19,-0.74 -1.83,-0.21 -1.55,0.13 -1.68,0.72z"/>
   <path class="fil1" d="M26.08 32.79c0,-0.44 0.5,-2.76 0.85,-3.03 0.32,0.49 0.04,0.58 -0.25,1.81 -0.05,0.22 -0.2,0.87 -0.34,1.05 -0.17,0.23 -0.07,0.13 -0.26,0.17zm-1.13 -0.07c0,0.98 2.02,1.18 2.61,-0.45 0.11,-0.31 0.25,-0.79 0.33,-1.13 0.12,-0.51 0.46,-1.46 0.01,-1.87 -0.44,-0.4 -1.33,-0.22 -1.76,0.11 -0.6,0.46 -1.19,3.04 -1.19,3.34z"/>
   <path class="fil1" d="M33.95 30.72c0.09,-1.12 0.57,-0.82 0.57,-0.67 0,0.44 -0.13,0.77 -0.57,0.67zm-1.56 2.14c0,0.3 0.36,0.67 0.92,0.67 0.55,0 0.96,-0.02 1.38,-0.56 0.2,-0.26 0.39,-0.82 0.4,-1.29 -0.39,0.02 -0.74,0.01 -0.99,0.07 -0.01,0.26 -0.07,0.48 -0.16,0.72 -0.14,0.37 -0.15,0.39 -0.48,0.32 0,-0.45 0.19,-1 0.28,-1.41 0.59,0 1.27,0.12 1.45,-0.04 0.1,-0.09 0.98,-2.18 -0.6,-2.18 -0.44,0 -0.92,0.08 -1.22,0.43 -0.24,0.28 -0.33,0.52 -0.44,0.94 -0.17,0.62 -0.54,1.62 -0.54,2.32z"/>
   <path class="fil1" d="M39.12 32.79c0,-0.2 0.09,-0.59 0.15,-0.73 0.08,-0.19 0.25,-0.34 0.42,-0.45 0.16,0.34 0.07,0.27 -0.02,0.57 -0.05,0.15 -0.04,0.2 -0.08,0.36 -0.17,0.62 -0.47,0.39 -0.47,0.25zm-0.5 -1.85l0.94 0c0.22,-0.64 -0.06,-0.96 0.61,-0.96 0,1.84 -1.52,0.84 -1.86,2.05 -0.18,0.64 -0.67,1.57 0.37,1.57 0.33,0 0.52,-0.22 0.78,-0.3 0.03,0.35 -0,0.3 0.71,0.3 0.21,0 0.23,-0.16 0.27,-0.31l0.62 -2.53c0.07,-0.35 0.08,-0.87 0.17,-1.15 -0.46,-0.13 -0.16,-0.37 -1.13,-0.37 -0.88,0 -1.47,0.82 -1.49,1.7z"/>
   <path class="fil2" d="M21.19 22.95l1.49 0c0.04,-0.45 0.76,-2.24 0.91,-2.75 0.17,-0.56 0.92,-2.55 0.93,-2.8 -1.79,0 -1.43,-0.15 -1.66,0.56l-1.23 3.53c-0.15,0.47 -0.38,0.94 -0.45,1.45z"/>
   <path class="fil1" d="M15.24 28.9c0.27,0.15 0.21,0.27 0.5,0.35 0.25,0 0.38,-0.52 1.2,-0.52l1.35 -4.81 -1.42 -0.01c-0.27,0.04 -0.2,-0.02 -0.27,0.23 -0.06,0.23 -0.02,0.32 -0.19,0.84 -0.09,0.29 -0.17,0.5 -0.25,0.78l-0.91 3.14z"/>
   <path class="fil1" d="M35.37 32.72c0,0.13 0.05,0.42 0.08,0.5 0.19,0.43 0.76,0.09 0.84,1.12 -0.39,0 -0.42,-0.07 -0.78,-0.07 0.05,0.64 0.76,0.53 1.04,0.05 0.22,-0.38 -0.05,-0.36 -0.11,-0.71 0.22,-0.14 0.36,-0.02 0.66,-0.19 0.34,-0.2 0.63,-0.78 0.77,-1.13 0.18,-0.47 0.18,-0.45 -0.66,-0.45 -0.28,0 -0.2,0.27 -0.27,0.53 -0.12,0.44 -0.19,0.46 -0.36,0.51 -0.39,-0.27 -0.18,-0.26 -0.01,-0.9 0.07,-0.27 0.1,-0.48 0.18,-0.77 0.08,-0.28 0.13,-0.46 0.2,-0.75 0.09,-0.36 0.05,-0.45 0.41,-0.54 0.19,0.35 -0.02,0.6 -0.02,0.62 -0.03,0.17 0,0.08 0.02,0.34l0.92 0c0,-0 0.42,-1.63 -0.64,-1.63 -0.5,0 -0.96,-0.01 -1.32,0.39 -0.22,0.24 -0.35,0.57 -0.43,0.88 -0.15,0.56 -0.51,1.58 -0.51,2.2z"/>
   <path class="fil1" d="M22.19 32.12c0,1.23 0.01,1.26 1.2,1.26 0.52,0 1.47,-0.88 1.32,-1.75l-0.69 -0.02c-0.38,0.21 -0.25,1.04 -0.64,1.04 -0.45,0 0.01,-0.82 0.15,-1.47 0.09,-0.41 0.3,-1.21 0.54,-1.49 0.85,0.51 -0.9,1.1 0.74,0.97 0.2,-0.02 0.42,0.23 0.42,-1.04 0,-0.2 -0.42,-0.59 -0.64,-0.59 -0.84,0 -1.44,0.15 -1.83,1.12l-0.58 1.99z"/>
   <path class="fil1" d="M41.35 32.27c0.39,0 0.51,0.05 0.83,0.07 0.02,-0.29 0.19,-0.69 0.27,-0.98 0.18,-0.67 0.87,-2.51 0.77,-2.92 -0.42,-0.05 -0.99,-0.13 -1.12,0.21l-0.75 3.61z"/>
   <path class="fil2" d="M40.19 26.06l0.43 0c0.06,0.22 0.03,0.12 0.14,0.3 -0.32,0.01 -0.28,0.07 -0.64,0.07 0.02,0.01 0.04,-0 0.05,0.02 0.08,0.2 1.08,-0.29 0.18,0.82 -0.16,0.19 -0.67,0.97 -0.73,1.17l0.21 -0.01c0.02,0.15 -0.03,0.05 0.04,0.18 0.01,0.01 0.02,0.03 0.03,0.04l0.07 0.07c0.24,0 0.41,0.07 0.51,0.06 0.41,-0.05 0.11,-0.04 0.26,-0.37 0.07,-0.15 0.04,-0.08 0.12,-0.17l0.68 -0.99c0.17,-0.31 0.62,-0.55 0.63,-1.34 -0.41,0 -0.6,-0 -0.99,-0 -0.19,-0 -0.4,0.01 -0.53,0.02 -0.4,0.03 -0.34,0.02 -0.46,0.13z"/>
   <path class="fil2" d="M45.43 24.88c-0.05,-0.05 -0.02,-0.05 -0.12,-0.1l-0.38 -0.05c0.18,-0.35 0.06,-0.19 0.56,-0.24 0.24,-0.03 0.28,-0.1 0.37,0.24 -0.17,0.07 -0.09,-0.04 -0.14,0.15l-0.28 0zm0 0c0.14,0.1 0.23,0.1 0.37,0.02 0.09,-0.05 0.2,-0.19 0.2,-0.32 -0.01,-0.31 -0.48,-0.26 -0.67,-0.18 -0.17,-0.32 0.22,-0.59 0.67,-1.3 0.34,-0.55 0.82,-0.84 0.68,-1.44 -0.02,-0 -0.04,-0.02 -0.05,-0.01l-1.05 -0.03c-0.54,-0.01 -1,-0.14 -0.85,0.52l0.53 -0.02c0.19,0.3 -0.25,0.48 -0.57,1.2 0.2,0.22 0.31,0.3 0.26,0.68 -0.05,0.37 -0.15,0.47 -0.15,0.95 0.36,0 0.36,-0.05 0.64,-0.07z"/>
   <path class="fil2" d="M42.31 24.36c0.06,0.15 -0,0.09 0.11,0.18 0.17,-0.14 0.27,-0.16 0.57,-0.07 0.04,0.35 -0.28,0.55 -0.46,0.74 0.01,0.4 0.04,0.38 0.28,0.55l-0.32 1.11 0.96 0c-0.06,0.25 -0.13,0.28 -0.42,0.3 -0.31,0.02 -0.49,0.07 -0.73,0.05 -0.12,0.19 -0.03,0.02 0.02,0.09l1.13 0c0.11,-0.25 0.18,-0.25 0.14,-0.59l-0.64 0.02c-0.22,-0.27 -0.01,-0.2 0.07,-0.55l-0.21 0.01c0.06,-0.25 0.11,-0.39 0.28,-0.52 -0.06,0.32 -0.02,0.09 -0.01,0.44 0.26,-0.19 0.41,-0.47 0.57,-0.74 0.2,-0.36 0.37,-0.42 0.54,-0.77 0.37,-0.75 0.24,-0.7 -0.09,-0.71 -0.42,-0.01 -0.87,0.01 -1.29,0.01 0.16,0.16 0.14,0.16 0.14,0.44l-0.64 0z"/>
   <path class="fil0" d="M23.25 13.49c0.08,-0.36 0.25,-0.64 0.5,-0.81 0.49,0.97 0.48,0.6 1.42,0.52l-0.5 -0.07c-0.56,0 -0.53,-0.57 -0.99,-0.89 -0.15,0.11 -0.26,0.26 -0.36,0.44 -0.21,0.36 -0.14,0.67 -1.48,0.67 0.04,0.65 0.48,0.41 0.8,0.88 0.18,0.27 0.08,0.32 -0.01,0.62 -0.06,0.23 -0.09,0.43 0.2,0.43 0.51,0 0.58,-0.75 1.66,-0.25 0.21,0.1 0.25,0.34 0.51,0.08 0.08,-0.09 0.1,0.09 0.05,-0.23 -0.01,-0.08 -0.23,-0.61 -0.09,-0.85 0.16,-0.29 0.51,-0.21 0.68,-0.75l-0.19 -0.08c-0.01,-0 -0.03,-0.01 -0.04,-0.01 -0.13,-0.03 -0.23,-0.01 -0.34,0.2 -0.09,0.18 0.01,0.08 -0.11,0.26 -0.14,0.22 -0.25,0.12 -0.37,0.36 -0.2,0.4 0.08,0.21 0.08,0.52 0,0.45 -0.04,0.18 -0.69,0.2 0.06,-0.22 0.12,-0.05 0.14,-0.17 0.01,-0.02 0.03,-0.02 0.04,-0.01l-0.49 -0.09c-0.15,0.31 -0.07,0.23 -0.45,0.36 -0.56,0.19 -0.25,-0.41 -0.19,-0.73 -0.24,-0.13 -0.41,-0.3 -0.71,-0.37 0.21,-0.31 0.44,-0.22 0.92,-0.22z"/>
   <path class="fil0" d="M30.69 13.61c0.23,-0.25 0.48,-0.01 0.89,-0.3 0.3,-0.22 0.22,-0.39 0.53,-0.57l0.25 0.42c0.14,0.26 0.04,0.2 0.28,0.31 0.66,0.31 0.48,-0.13 0.8,0.13 -0.15,0.14 -0.57,0.47 -0.63,0.56 -0.27,0.41 0.03,0.63 0.08,0.82 -0.65,-0.02 -0.13,-0.27 -1.11,-0.25 0.07,-0.14 0.14,-0.08 0.12,-0.2 -0.29,0.05 -1.28,0.82 -0.64,-0.44l-0.57 -0.47zm-0.21 -0.42c-0.19,0 -0.2,0.04 -0.35,0.07 0.06,0.29 0.14,0.3 0.34,0.46 0.44,0.33 0.56,0.38 0.31,0.97 -0.09,0.2 -0.07,-0.15 -0.09,0.28 -0.03,0.61 0.65,-0.09 1.14,-0.09 0.45,0 0.93,0.42 1.28,0.52 0,-0.59 0.08,-0.69 -0.14,-1.04 0.19,-0.13 0.24,-0.24 0.43,-0.37 0.17,-0.11 0.36,-0.25 0.57,-0.3 -0.11,-0.44 -0.89,-0.44 -1.28,-0.44 -0.03,-0.33 -0.41,-0.88 -0.64,-1.04 -0.14,0.24 -0.33,0.66 -0.55,0.84 -0.28,0.23 -0.22,0.05 -0.51,0.07 -0.43,0.03 -0.08,0.06 -0.31,0.09 -0.01,0 -0.03,0 -0.05,0 -0.27,0 0.08,-0.04 -0.14,-0.04z"/>
   <path class="fil1" d="M30.69 13.61l0.57 0.47c-0.64,1.26 0.35,0.49 0.64,0.44 0.02,0.12 -0.05,0.06 -0.12,0.2 0.98,-0.03 0.46,0.23 1.11,0.25 -0.05,-0.19 -0.35,-0.41 -0.08,-0.82 0.06,-0.08 0.48,-0.41 0.63,-0.56 -0.32,-0.26 -0.14,0.18 -0.8,-0.13 -0.24,-0.11 -0.13,-0.04 -0.28,-0.31l-0.25 -0.42c-0.31,0.19 -0.22,0.36 -0.53,0.57 -0.41,0.29 -0.66,0.05 -0.89,0.3z"/>
   <path class="fil2" d="M36.29 17.48c0,-0.68 -0.48,-1.04 -1.06,-1.04 -0.31,0 -0.39,0.14 -0.6,0.17 -0.25,0.03 -0.2,-0.13 -0.61,0.06 -2.31,1.07 0.98,0.81 2.27,0.81z"/>
   <path class="fil0" d="M38.56 21.99c0.6,-0.01 0.68,-0.84 0.98,-1.86 0.4,-1.37 0.79,-1.71 0.3,-2.06 -0.47,0.13 -0.64,1.13 -0.83,1.8 -0.19,0.71 -0.56,1.4 -0.45,2.12z"/>
   <path class="fil0" d="M2.98 18.33c-0.07,0.17 -0.12,0.25 -0.16,0.41 -0.37,1.55 -0.31,1.24 0.69,1.06 0.29,-0.05 0.46,-0.04 0.56,-0.3 0.04,-0.1 0.23,-1.3 0.26,-1.51 -0.42,-0.04 -0.3,0.09 -0.67,0.19 -0.2,0.06 -0.49,0.08 -0.68,0.14z"/>
   <path class="fil2" d="M19.49 17.12l0.21 -0.01 0 0.26 2.8 0.02c0.03,-0.44 -0.33,-0.34 -0.88,-0.72 -0.23,-0.16 -0.1,-0.15 -0.4,-0.22 -0.17,0.31 0.05,0.18 -0.18,0.39 -0.47,-0.06 -0.23,-0.36 -0.85,-0.25 -0.49,0.09 -0.58,0.07 -0.7,0.54z"/>
   <path class="fil0" d="M29.13 22.07c0,0.39 -0.02,0.09 0.07,0.3 0.41,0.04 0.47,-0.24 0.57,-0.58 0.22,-0.69 0.85,-2.05 0.85,-2.67 -0.58,-0.14 -0.6,0.21 -0.91,1.19 -0.1,0.3 -0.58,1.47 -0.58,1.77z"/>
   <path class="fil0" d="M16.02 32.72c0,0.49 -0.03,0.16 0.07,0.37 0.42,-0.06 0.63,-0.95 0.74,-1.37 0.12,-0.5 0.47,-1.28 0.47,-1.73 0,-0.28 0.02,-0.03 -0.07,-0.22 -0.21,0.01 -0.29,-0.11 -0.48,0.53 -0.14,0.48 -0.73,2.19 -0.73,2.43z"/>
   <path class="fil0" d="M26.37 27.39c0.22,0.02 0.13,-0 0.28,0.07 0.2,-0.32 0.37,-1.01 0.52,-1.45 0.16,-0.48 0.4,-1.07 0.4,-1.66 -0.2,0 -0.34,-0.11 -0.52,0.49 -0.09,0.3 -0.17,0.58 -0.25,0.85 -0.14,0.45 -0.43,1.17 -0.43,1.69z"/>
   <path class="fil1" d="M16.8 23.55c0.51,0 0.96,0 1.56,0 0.09,-0.42 0.58,-0.89 -0.01,-0.84 -0.54,0.05 -0.68,-0.04 -1.26,-0.05 -0.21,0.45 -0.2,0.7 -0.28,0.89z"/>
   <path class="fil1" d="M4.82 22.58c0.38,0 0.36,0.03 0.5,-0.29 0.15,-0.35 0.57,-1.66 0.57,-2 -0.37,0.03 -0.08,0.01 -0.28,0.08 -0.02,0.01 -0.03,0.01 -0.05,0.02 -0.46,0.17 -0.38,0.08 -0.53,0.71 -0.08,0.34 -0.23,1.08 -0.21,1.48z"/>
   <path class="fil0" d="M26.08 32.79c0.19,-0.04 0.09,0.06 0.26,-0.17 0.14,-0.18 0.29,-0.83 0.34,-1.05 0.29,-1.23 0.57,-1.32 0.25,-1.81 -0.35,0.27 -0.85,2.59 -0.85,3.03z"/>
   <path class="fil0" d="M10.7 21.7c0.75,0.12 0.54,-0.19 0.88,-1.08l0.09 -0.2c0.01,-0.02 0.04,-0.08 0.05,-0.1 0.07,-0.2 0.05,-0.15 0.05,-0.39 -0.41,0.26 -0.48,0.16 -0.75,0.62 -0.14,0.24 -0.31,0.81 -0.31,1.15z"/>
   <path class="fil0" d="M43.16 21.99l0.43 0c0.24,-0.38 0.36,-0.84 0.48,-1.28 0.08,-0.28 0.1,-0.13 0.06,-0.47 -0.24,0.11 -0.17,-0.01 -0.4,0.2 -0.09,0.08 -0.25,0.31 -0.31,0.41 -0.19,0.34 -0.26,0.64 -0.26,1.14z"/>
   <path class="fil1" d="M41.18 33.6l0.78 0c0,-0.41 0,-0.25 0.12,-0.56 0.18,-0.46 0.07,-0.41 -0.47,-0.41 -0.38,0 -0.43,0.07 -0.52,0.35 -0.07,0.23 -0.22,0.61 0.09,0.61z"/>
   <path class="fil0" d="M24.95 22.29c0.66,0.13 0.55,-0.25 0.85,-0.96 0.08,-0.19 0.13,-0.25 0.14,-0.52 -0.67,0.02 -0.98,0.85 -0.99,1.48z"/>
   <path class="fil0" d="M33.67 21.03c-0.21,0.32 -0.24,0.25 -0.37,0.72 -0.13,0.48 -0.3,0.64 0.26,0.68 0.2,-0.24 0.59,-1.17 0.53,-1.41 -0.08,-0.34 -0.15,-0.08 -0.42,0z"/>
   <path class="fil1" d="M6.24 16.3c1.34,0 0.76,0.15 1.28,0.3 -0.09,-0.28 0.07,-0.39 -0.05,-0.84l-0.95 -0.05c-0.24,0.12 -0.28,0.29 -0.28,0.59z"/>
   <path class="fil1" d="M21.63 31.13l-0.01 0.33 0.21 0 0.5 -1.63c0.09,-0.2 0.19,-0.24 0.21,-0.52 -0.33,0.06 -0.34,0.28 -0.52,0.8 -0.13,0.39 -0.24,0.3 -0.39,1.02z"/>
   <path class="fil2" d="M30.05 17.41c0.29,0 0.78,0.07 0.78,-0.15 0,-0.35 -0.09,-0.3 -0.33,-0.4 -0.37,-0.15 -0.12,-0.11 -0.45,-0.27l-0.18 0.69c0.02,0.13 -0.14,0.12 0.18,0.12z"/>
   <path class="fil0" d="M22.42 25.96c0.47,-0.05 0.72,-0.89 0.31,-1.21 -0.25,0.19 -0.42,0.53 -0.45,0.89 -0.02,0.27 -0.05,0.13 0.14,0.31z"/>
   <path class="fil0" d="M39.12 32.79c0,0.14 0.3,0.37 0.47,-0.25 0.04,-0.16 0.03,-0.21 0.08,-0.36 0.09,-0.3 0.18,-0.23 0.02,-0.57 -0.16,0.11 -0.34,0.26 -0.42,0.45 -0.06,0.14 -0.15,0.53 -0.15,0.73z"/>
   <path class="fil0" d="M34.38 25.32c0,0.17 0.57,0.42 0.57,-0.89 -0.41,0.1 -0.57,0.37 -0.57,0.89z"/>
   <path class="fil0" d="M33.95 30.72c0.44,0.11 0.57,-0.23 0.57,-0.67 0,-0.15 -0.48,-0.46 -0.57,0.67z"/>
   <path class="fil1" d="M42.29 27.23c0.25,0.02 0.43,-0.03 0.73,-0.05 0.3,-0.02 0.36,-0.05 0.42,-0.3l-0.96 0 -0.19 0.35z"/>
   <path class="fil1" d="M45.43 24.88l0.28 0c0.05,-0.19 -0.03,-0.08 0.14,-0.15 -0.09,-0.34 -0.13,-0.27 -0.37,-0.24 -0.5,0.06 -0.38,-0.11 -0.56,0.24l0.38 0.05c0.1,0.05 0.06,0.05 0.12,0.1z"/>
   <path class="fil1" d="M42.31 24.36l0.64 0c0,-0.28 0.02,-0.28 -0.14,-0.44 -0.39,0.02 -0.47,0.03 -0.5,0.44z"/>
   <g>
    <path class="fil3" d="M25.11 17.31c0.2,0.12 0.27,0.1 0.54,0.1 -0.01,-0.33 -0.05,-0.23 -0.07,-0.52 -0.24,0.02 -0.17,-0.06 -0.47,0.42zm-17.19 -1.86l0.11 0.16c0.43,-0.48 0.65,-0.38 1.46,-0.38 0.74,-0 0.87,-0.12 1.2,0.41 -0.1,0.5 -0.28,0.8 -0.28,1.33 0.06,-0.01 2.15,-1.1 3.44,-0.33 0.95,0.57 0.27,1.03 1.88,0.57 0.66,-0.19 1.37,-0.72 0.92,-1.34 -0.56,-0.71 -2.24,0.22 -2.5,-0.86 -0.25,-1.02 3.47,-3.26 2.01,-4.02 -0.65,-0.34 -1.72,0.65 -2.13,1.08 0.05,0.48 0.35,0.88 -0.09,1.86 -1.05,2.38 -3.85,0.37 -2.5,-0.9 0.08,0.88 0.07,1.52 0.95,1.54 1.71,0.04 2.15,-3.54 -0.61,-2.66l-0.77 0.45c-0.15,-0.1 -0.11,-0.06 -0.21,-0.22 0.16,-0.67 1.41,-1.92 0.8,-2.6 -0.99,-1.1 -3.81,1.97 -3.81,4.49 -0,0.9 -0.16,1.26 0.13,1.44zm37.21 -0.92l-0.27 -0.08c0.05,0.22 -0.01,0.11 0.14,0.22l0.13 -0.15zm-5.8 1.4c0.14,0.17 0.32,0.06 0.57,-0.07 -0.13,-0.29 0.02,-0.19 -0.21,-0.37 0.03,0.35 0.14,0.43 -0.35,0.44zm6.64 -0.64c-0.29,-0.36 -0.41,-0.66 -0.84,-0.77l0.84 0.77zm-0.94 -0.83c-1.19,-1.06 -2.68,0.69 -2.69,0.99 0.31,0.07 1.01,-0.05 0.62,1.03 -0.41,1.14 0.88,0.04 1.18,0.01 0.38,0.11 0.09,0.12 0.43,0.18 0.18,0.03 1.01,-0.04 1.48,0.15 0.16,0.17 0.06,0.13 0.35,0.15 -0.12,-0.57 -0.04,-1.33 -0.44,-1.66l-0.95 -0.84zm-7.05 2.5c0.38,-0.03 0.54,-0.45 1.39,-0.39 -0.38,-0.05 -1.05,-0.35 -1.39,0.39zm1.84 -5.69c0,0.82 0.18,1.24 0.57,1.85 0.35,-0.11 0.41,-0.25 0.79,-0.36 0.29,-0.08 0.62,-0.11 0.91,-0.23 -0.52,-1.63 -2.27,-2.1 -2.27,-1.26zm0.78 3.7c-0.23,-0.06 -0.29,-0.13 -0.35,-0.37 0.27,0.15 0.32,0.05 0.35,0.37zm-0.6 -0.67c0,0.42 0.27,0.83 0.57,0.93 0.58,0.19 0.07,-0.2 0.41,0.02 0,0 0.21,0.26 0.61,0.2 0.45,-0.07 1.03,-1.31 2.13,-1.59 0.04,-0.46 -0.33,-0.66 -0.74,-0.85 -0.43,-0.2 -0.42,-0.23 -1.14,-0.06 -0.76,0.18 -1.85,0.46 -1.85,1.36zm-14.37 -11.91c-0.11,0.16 -0.1,0.12 -0.12,0.37 0.45,-0.13 -0.01,-0.12 0.51,-0.72 0.11,-0.13 0.17,-0.2 0.27,-0.36 -0.31,0.09 -0.54,0.41 -0.66,0.72zm5.17 0.72l0.03 -0.57c-0.02,0.01 -0.03,0.02 -0.04,0.04 -0.11,0.39 -0.69,-0.27 -0.96,-0.34l0.75 0.63c0.17,0.11 0.06,0.1 0.22,0.23zm-10.12 8.9c0.65,-0.41 0.99,-1.23 2.84,-1.34 3.67,-0.22 4.68,3 3.97,4 -0.32,0.45 -1.31,0.7 -1.47,1.5 -0.08,0.43 -0.01,0.96 0.13,1.24 0.83,0 1.65,-0.01 2.48,0 0.57,0.01 0.73,0.14 0.85,-0.37 0.36,-1.59 -1.02,-1.57 -1.12,-2.6 -0.17,-1.67 0.3,-2.4 1.62,-3.32 1.44,-0.91 3.65,-0.54 4.69,0.57 0.15,0.16 0.51,0.6 0.62,0.68 0.2,-0.44 0.25,-0.71 0.11,-1.22 -0.23,-0.8 -0.37,-0.22 -0.26,-1.23 0.29,-2.54 -0.55,-5.65 -3.04,-6.35 0.01,-0.29 0.07,-0.28 0,-0.43 -0.18,0.19 0.03,0.33 -0.28,0.57 -0.03,-0.35 0.08,-0.45 -0.21,-0.67l0 0.3c-0.45,-0.01 -1.53,-0.44 -2.84,-0.44 -0.27,-0 -0.49,-0.03 -0.75,-0.05 -0.65,-0.05 -2.12,0.16 -2.12,0.16l0.44 -0.57c0.49,-0.5 0.43,-0.24 0.51,-0.57 -1.08,0.6 -0.2,0.48 -1.47,1.13 -0.22,0.1 -0.51,0.1 -0.73,0.16l-0.14 -0.48c-0.06,0.89 -0.16,0.08 -0.39,0.78 -0.33,-0.32 -0.09,-0.2 -0.35,-0.01 -0.42,0.31 -1.95,0.68 -2.77,2.81 -0.66,1.71 -0.26,3.53 -0.37,4.36 -0.09,0.74 -0.92,0.45 -0.21,1.65 0.15,-0.13 0.13,-0.07 0.25,-0.27z"/>
   </g>
   <path class="fil1" d="M40.12 26.43c0.36,0 0.32,-0.07 0.64,-0.07 -0.11,-0.18 -0.09,-0.08 -0.14,-0.3l-0.43 0c-0.01,0.02 -0.11,0.19 -0.11,0.19 -0.07,0.33 -0.03,0.08 0.04,0.18z"/>
   <path class="fil1" d="M39.98 28.72l-0.07 -0.07c-0.01,-0.01 -0.02,-0.03 -0.03,-0.04 -0.07,-0.13 -0.03,-0.03 -0.04,-0.18l-0.21 0.01c-0.11,0.17 -0.28,0.33 -0.33,0.48 0.24,-0.01 0.39,-0.15 0.69,-0.2z"/>
   <path class="fil1" d="M16.05 18.37l-0.11 0 0 0.3c0.3,0 0.29,0.03 0.5,-0.07 -0.05,-0.16 0.03,-0.09 -0.12,-0.18 -0.13,-0.07 -0.12,-0.04 -0.27,-0.04z"/>
   <path class="fil1" d="M17.51 22.13l0.28 0.01c-0.07,-0.16 -0.12,-0.29 -0.14,-0.52l-0.14 0c-0.01,0.04 -0.04,0.23 -0.04,0.24 -0.04,0.15 -0.02,0.1 -0.1,0.2 0.06,0.07 -0.02,0.03 0.14,0.06z"/>
   <path class="fil1" d="M29.49 22.66l0 0.22c0.23,-0.01 0.3,0.06 0.33,-0.13 0.03,-0.24 -0.11,-0.27 -0.25,-0.31 -0.05,0.09 -0.07,0.08 -0.07,0.22z"/>
   <path class="fil1" d="M32.46 17.99c0.12,-0.13 0.07,-0.04 0.13,-0.21 -0.04,-0.09 -0.08,-0.38 -0.28,-0.17 -0.15,0.15 0.07,0.32 0.15,0.38z"/>
   <path class="fil1" d="M15.1 29.89c0.1,-0.2 0.07,-0.16 0.05,-0.41l-0.19 -0.17c-0.03,0.05 -0.11,0.53 0.14,0.58z"/>
   <path class="fil1" d="M40.97 28.94c0.19,0.05 0.13,0.07 0.28,0.07 0.27,0 0.18,-0.02 0.21,-0.22l-0.5 0 0 0.15z"/>
   <path class="fil1" d="M33.67 21.03l0 -0.22c-0.22,0.01 -0.26,0.03 -0.43,0.07l0 0.15 0.43 0z"/>
   <path class="fil1" d="M43.02 26.2l0.06 -0.06c-0,-0.35 -0.05,-0.12 0.01,-0.44 -0.17,0.13 -0.23,0.27 -0.28,0.52l0.21 -0.01z"/>
   <polygon class="fil1" points="19.7,17.37 19.7,17.11 19.49,17.12 19.41,17.41 "/>
   <path class="fil1" d="M8.29 32.05c0.28,-0.02 0.22,0.04 0.28,-0.22l-0.28 0 0 0.22z"/>
   <path class="fil1" d="M13.4 28.65l0.28 -0.08c-0.15,-0.21 -0.04,-0.08 -0.28,-0.21l0 0.3z"/>
  </g>
 </g>
</svg>
