<?xml version="1.0" encoding="UTF-8"?>
<!DOCTYPE svg PUBLIC "-//W3C//DTD SVG 1.1//EN" "http://www.w3.org/Graphics/SVG/1.1/DTD/svg11.dtd">
<!-- Creator: CorelDRAW -->
<svg xmlns="http://www.w3.org/2000/svg" xml:space="preserve" width="64.8649mm" height="32.3324mm" version="1.1" style="shape-rendering:geometricPrecision; text-rendering:geometricPrecision; image-rendering:optimizeQuality; fill-rule:evenodd; clip-rule:evenodd"
viewBox="0 0 106.49 53.08"
 xmlns:xlink="http://www.w3.org/1999/xlink"
 xmlns:xodm="http://www.corel.com/coreldraw/odm/2003">
 <defs>
  <style type="text/css">
   <![CDATA[
    .fil0 {fill:#070909}
    .fil12 {fill:#2D322C}
    .fil9 {fill:#3B4748}
    .fil5 {fill:#68FA01}
    .fil10 {fill:#B80202}
    .fil13 {fill:#EDEEEE}
    .fil4 {fill:#F05400}
    .fil11 {fill:#F1F2F2}
    .fil2 {fill:#F2FE00}
    .fil8 {fill:#FA0000}
    .fil7 {fill:#FBFDFB}
    .fil1 {fill:#FD0000}
    .fil6 {fill:#FDFDFD}
    .fil3 {fill:#FEFEFE}
   ]]>
  </style>
 </defs>
 <g id="Camada_x0020_1">
  <metadata id="CorelCorpID_0Corel-Layer"/>
  <g id="_2077944176208">
   <path class="fil0" d="M60.97 0.02c0.06,0.44 0.09,0.46 0.15,0.75 -0.67,0.09 -1.34,0.02 -2.03,-0.01 -0.72,-0.04 -1.22,0.16 -2,0.14 -1.63,-0.04 -2.66,-0.43 -4.17,-0.17 -2.45,0.41 -5.5,0.26 -8.08,0.23 -1.84,2.16 -2.79,11.2 -3.89,12.53 -0.55,-0.48 0.17,-2.16 0.25,-2.87 0.11,-0.94 0.09,-1.73 0.27,-2.77 -0.01,-0.07 -0.84,-1.22 -0.35,-0.83l0.27 -5.66c-0.69,-0.57 -4.31,-0.57 -5.36,-0.51 -2.25,0.13 -2.51,-0.28 -4.78,0.44 -0.51,1.61 -3.81,9.38 -4.38,10.17 0.31,-1.39 0.69,-2.62 1.05,-3.96 1.21,-4.52 -0.28,-1.48 0.44,-3.85 0.18,-0.55 0.63,-1.95 0.45,-2.42 -0.52,-0.75 -4.85,-0.35 -5.8,-0.39 -0.77,-0.03 -1.2,-0.22 -1.72,0.22 -0.99,0.84 -3.16,5.16 -3.98,5.64 -0.64,-0.54 -1.46,-5.05 -1.5,-5.54 -1.4,-0.47 -2.81,-0.59 -4.24,-0.62 -4.53,-0.08 -3.16,-0.3 -5.77,8.89 -0.67,2.37 -0.57,2.54 -0.96,4.47 -0.22,1.09 -0.51,1.24 -0.76,2.08l-1.67 6.47c-0.64,2.38 -1,2.46 -0.11,3.67l4.94 0.19 2.39 -0.05c-0.09,1.06 -1.26,2.76 -1.38,3.99 1.33,1.85 2.75,0.25 3.41,-1.41 0.38,-0.97 0.71,-1.56 1.01,-2.69 0.23,-0.89 0.41,-2.14 0.78,-2.94 0.96,0.46 1.18,3.56 1.75,4.63 0.23,0.43 0.25,0.15 0.21,0.74 -1.08,-0.14 -1.1,-0.41 -1.68,0.45 -1.56,2.3 -0.85,1.41 -4.16,3.21l-6.21 3.27c-2.82,1.57 -4.07,3.05 -2.95,6.18 0.92,2.58 4.26,4.16 4.72,5.36 3.98,1.41 1.2,1.39 3.33,2.91 1.21,0.86 2.16,2.36 3.82,1.87 0.7,-0.21 1.39,-0.61 2.11,-0.61 2.54,0.01 0.94,1.43 4.57,-0.63 1.34,-0.76 1.27,-2.08 2.62,-0.43 1.57,1.58 2.67,1.65 4.84,2.04 1.65,0.3 7.53,0.15 9.59,0.05 0.85,-0.04 2.47,0.04 3.31,0.11l16.35 0.3c3.65,0 3.9,-1.92 5.45,-7.01 0.47,-1.56 0.49,-1.91 1.99,-1.96 0.51,-0.02 2.84,0.05 3.3,0.21 -0.04,1.63 -0.91,3.93 -0.94,5.43 -0.08,4.53 3.57,3.18 7.13,3.51l8.37 0.02c1.29,-0.14 2.22,-0.23 3.57,-0.12 1.45,0.12 6.54,0.37 7.28,-0.07 1.04,-0.62 1.44,-3.93 2.4,-4.32 0.7,1.15 -1.47,4.37 2.32,4.55l4.67 0.19c0.54,-0.04 0.95,-0.17 1.45,-0.12l2.11 -8.75c-0.29,-1.07 0.16,-2.72 0.2,-3.93 0.12,-3.74 1.32,-10.28 1.16,-13.88 -0.11,-2.46 -0.87,-0.42 -0.2,-3.66 0.3,-1.44 0.04,-4.28 -0.09,-5.68 -0.42,-4.32 2.73,-2.93 -1.81,-10.25 -1.33,-2.02 -2.02,-3.28 -4.91,-4.58 -3.85,-1.73 -8.15,-3.73 -12.49,-0.62 -0.4,0.28 -0.93,0.84 -1.37,0.87 -0.84,-1.32 1.13,-2.68 -6.31,-2.34 -0.94,0.04 -2.94,-0.17 -4.86,-0.05l-6.43 -0.07c-1.1,0.03 -1.95,-0.01 -2.6,0.85 -0.59,0.76 -0.64,2.64 -1.5,2.87 -0.06,-0.99 1.14,-3.08 -1.06,-3.66 -0.61,-0.16 -0.96,-0.04 -1.5,-0.07z"/>
   <path class="fil1" d="M63.84 34.88c0.09,-0.75 1.65,-4.52 2.04,-5.44 0.4,-0.94 0.68,-2 1.03,-2.83 0.35,-0.83 0.77,-1.66 1.09,-2.48 0.64,-1.64 3.52,-9.87 4.31,-10.48 0.57,0.55 0.08,1.82 -0.08,2.59 -0.54,2.54 -2.06,18.14 -2.77,18.78 -0.51,0.36 -4.85,0.21 -5.62,-0.15zm18.3 -18.06c0.09,-0.39 -0.19,0.01 -0.22,-1.2l0.11 -3.36c-0.84,-1.89 0.86,-3.99 1.07,-4.88 0.16,-0.68 0.48,-4.73 0.35,-5.2 -0.71,-0.37 -8.12,-0.21 -9.56,-0.23 -8.42,-0.13 -6.3,-0.75 -7.97,2.61 -1.08,2.17 -2.85,6.82 -3.96,9.06 -0.6,1.22 -3.72,8.29 -3.68,9.03 1.22,0.77 3.61,-0.21 4.19,2.01 0.53,2.03 -1.45,3.67 -1.72,4.53 0.22,0.34 2.41,2.35 -1,2.31 -0.5,-0.01 -1.48,0.14 -2.01,0.22 -3.37,0.47 -2.05,-0.23 -2.56,-1.46 -1.16,0.24 -1.76,2.75 -2.2,3.73 -0.59,1.3 0.15,1.15 0.03,2.23 -0.06,0.6 -0.44,1.82 -0.61,2.45 -0.95,3.63 -1.65,1.42 -2.65,2.76 -0.33,0.44 -1.62,3.68 -1.69,4.27 0.68,0.23 1.77,0.09 2.24,0.58 0.48,0.59 -0.72,2.77 -1.24,4.92l6.46 0.17c1.52,-0.1 1.79,0.3 2.44,-1.17 0.46,-1.04 0.7,-2.08 1.12,-3.07 1.97,-4.68 0.91,-4.63 3.4,-4.64 1.04,-0.01 5.51,-0.04 6.23,0.11 -0.16,1.48 -0.29,2.81 -0.45,4.34 -0.09,0.84 -0.31,1.53 -0.4,2.34 -0.3,2.45 -0.25,1.98 1.8,2.22 2.35,0.27 1.51,-1.45 2.74,-4.59 0.48,-1.21 1.9,-0.67 3.16,-0.73l2.76 0.02c1.25,-0.26 1.52,-2.86 1.7,-4.38 -1.5,-0.82 -4.59,0.29 -5.88,-1.6 -0.93,-1.37 0.32,-4.57 0.83,-6.43 0.35,-1.29 1.39,-5.87 1.84,-6.71 1.15,-2.13 2.99,-1.82 4.56,-2.11 0.75,-2.08 0.4,-6.88 0.75,-8.13z"/>
   <path class="fil2" d="M101.62 21.67c-1.39,-0.34 -1.69,-0.63 -3.04,-0.44 -0.85,0.12 -1.62,0.1 -2.39,0.36l-5.22 2.34c-3.03,1.6 -2.11,1.75 -4.87,-0.97 -2.71,-2.67 0.45,-2.64 2.99,-2.55 1.17,0.04 2.78,-0.16 4.04,-0.18 1.94,-0.03 7.24,-0.16 9.08,0.29 1.98,0.48 0.55,1.43 -0.6,1.15zm-17.03 -12.62c0.24,0.06 0.34,0.21 0.24,0.51 -0.19,0.62 -0.13,0.22 -0.44,0.33 -0.34,-0.44 -0.37,-0.98 0.2,-0.83zm17.27 7.44c0.55,0.48 0.6,0.24 0.71,0.76 -0.54,0.49 -0.73,0.08 -2.21,0.25 -1.3,0.15 -6.01,0.07 -6.6,0.7 0.35,0.62 0.95,0.4 1.04,1.36 -0.35,0.08 -3.55,0.29 -3.87,0.19l0.16 -1.26 -7.81 -2.54c-0.14,-1.4 0.08,-2.06 0.53,-3.37 0.01,-0.5 -0.67,-0.39 -0.4,-1.04 0.47,-1.1 3.2,0.79 3.76,1.14l2.37 1.4c0.76,0.42 1.52,1.1 2.42,1.51 -0.1,-0.64 -0.13,-0.45 -0.69,-1.12 -0.22,-0.26 -0.52,-0.64 -0.57,-1.03 1.19,0.42 1.11,1.52 2.03,1.84 0.31,-0.92 -0.03,-2.71 0.04,-3.01 0.19,-0.88 -0.31,0.66 0.08,-0.22l0.14 -0.2c0.25,0.16 0.46,0.09 0.43,1.46 -0.02,0.79 -0.22,0.93 0.13,1.58 0.85,-0.45 1.11,-0.98 1.58,-1.43 0.5,-0.48 -0.09,-0.39 0.8,-0.27 -0.33,0.83 -1.86,1.62 -2.15,2.36 0.64,0.2 1.39,-0.65 2.71,-1.34 1.57,-0.82 4.29,-2.38 5.89,-2.76 1.46,-0.35 2.29,1 1.55,2.32l-1.23 -0.52c-0.07,2.45 -0.28,1.43 -0.85,3.25zm-14.43 -7.15c-0.6,-0.16 -0.82,-0.38 -0.83,-0.87 -0.02,-0.68 0.35,-0.8 0.9,-0.69 0.46,0.56 0.28,0.88 -0.07,1.56zm-2.18 -1.63c0.51,-0.11 0.36,-0.07 0.81,0.24l-0.25 0.92c-0.84,0.02 -1.03,-0.62 -0.56,-1.16zm-3.21 4.55c0.43,0.79 0.09,1.38 0.1,2.19 0.01,0.91 0.23,1.16 0.03,2.25l-0.03 0.12c0.56,1.61 -0.13,4.78 3.02,8.04 1.02,1.06 2.26,2.16 3.9,2.55 1.76,0.43 6.17,0.59 7.77,0.35 0.67,-0.1 1.61,-0.12 2.32,-0.21l1.59 -0.38c0.19,-0.06 0.4,-0.17 0.53,-0.24 4.29,-2.08 3.24,-6.43 3.16,-10.96 -0.06,-3.23 2.31,-3.03 -1.97,-8.72 -1.81,-2.4 -4.26,-4.62 -7.36,-5.54 -2.09,-0.62 -3.21,-0.22 -4.77,0.27 -0.8,0.25 -0.83,0.33 -1.42,0.66 -2.34,1.33 -3.55,2.66 -5.17,4.96 -0.42,0.6 -1.23,1.29 -1.4,1.85 -0.31,1.01 0.1,1.73 -0.31,2.8z"/>
   <path class="fil3" d="M13.06 18.44c1.12,0.38 0.82,0.26 1.45,-0.53 0.41,-0.52 0.73,-1 1.11,-1.45l0.16 -0.1c0.22,-0.57 1.08,-1.56 1.47,-2.06 0.36,-0.47 1.08,-1.66 1.59,-1.83 0.33,0.65 -0.65,2.27 -0.74,4.56 0.12,0.57 0.09,0.88 0.15,1.5 0.08,0.77 0.31,0.7 0.23,1.57 0.25,0.5 0.39,0.65 0.32,1.39 0.38,0.5 0.18,0.86 0.72,1.58 1.32,-0.61 0.27,-1.84 2.74,-2.26l5.37 -19.18c-0.63,-0.28 -3.39,-0.22 -4.16,-0.22 -2,-0.01 -1.18,-0.54 -2.93,1.86l-3.27 4.69c-0.24,0.38 -0.73,1.25 -1.23,1.35 -0.35,-0.33 -1.28,-6.52 -1.54,-7.77 -0.41,-0.19 -5.36,-0.49 -5.49,-0.1 -0.07,0.2 -0.1,-0.14 -0.46,1.24 -1.47,5.76 -5.45,18.32 -5.99,22.35 0.48,0.13 4.9,0.26 5.23,0.1 0.63,-0.3 1.72,-5.17 1.97,-6.12 0.59,-2.26 1.24,-4.49 1.82,-6.75 0.38,0.41 1.5,5.78 1.46,6.2z"/>
   <path class="fil3" d="M94.5 43.16c0.44,-2.33 1.38,-3.53 2,-5.52l2.13 -5.09c0.02,-0.05 0.06,-0.05 0.1,-0.07l-0.59 5.31c-0.07,0.73 -0.6,4.94 -0.78,5.37l-2.86 -0.01zm-9.6 8.37c0.37,0.14 3.38,0.17 3.83,0.15 1.62,-0.08 2.39,0.6 2.91,-1.28 0.22,-0.79 0.35,-1.18 0.64,-1.93 0.27,-0.7 0.37,-1.24 0.95,-1.4 0.3,-0.08 3.24,-0.03 3.66,0.1 0.12,1.33 -0.64,3.07 -0.42,4.42 1.04,0.31 4.81,0.25 5.96,0.14l1.21 -13.11c0.09,-2.09 0.34,-4.37 0.63,-6.51 0.14,-1.04 0.05,-2.17 0.2,-3.25 0.17,-1.21 0.45,-2.08 0.05,-3.07 -1.17,-0.31 -1.02,0.17 -1.81,0.72 -3.06,2.11 -7.02,1.07 -7.77,1.8l-6.47 14.78c-0.57,1.16 -1.44,3.03 -1.87,4.21 -0.57,1.56 -1.31,2.64 -1.7,4.24z"/>
   <path class="fil3" d="M34.05 8.52c0.12,-0.3 0.33,-0.96 0.6,-1.15 0.12,0.7 -1.04,8.83 -1.29,10.02 -0.63,0.22 -2.09,0.27 -2.83,0.03l3.52 -8.89zm-10.6 13.11c1.43,1.33 1.49,1.3 1.3,3.62 0.51,0.12 0.76,0.06 1.3,0.05 0.45,-0.01 1.24,0.15 1.54,-0.12 0.51,-0.64 0.99,-3.33 1.78,-4.06 0.77,-0.16 2.57,-0.09 3.38,0.11 0.18,0.97 -0.21,2.29 -0.08,3.23 0.45,0.19 1.96,0.24 2.53,0.23 1.43,-0.03 1.67,0.17 2.61,0.01 0.53,-1.08 1.14,-9.86 1.23,-11.6 0.11,-2.18 1.28,-10.11 0.86,-11.58l-7.12 -0.05c-0.28,0.01 -0.58,-0.29 -1.13,0.98l-5.29 12.05c-0.31,0.65 -0.41,1.16 -0.72,1.8 -0.64,1.32 -2.07,4.12 -2.21,5.33z"/>
   <path class="fil3" d="M81.08 36.22c0.13,-1.07 0.57,-2.32 0.86,-3.39 0.25,-0.95 0.42,-2.44 1.25,-2.6 0,-0 2.68,-0 2.92,0.02 0.97,0.09 1.84,0.17 2.81,-0.1l0.59 -2.48c-1.84,-0.31 -2.34,-0.85 -3.63,-1.7 -0.92,-0.6 -2.72,-0.37 -3.93,-0.4 -3.62,-0.08 -4.4,0.26 -5.34,4.03 -0.64,2.59 -1.92,6.48 -2.23,8.92 -0.21,1.71 0.73,2.09 2.53,2.41 1.06,0.19 2.22,-0.12 2.91,0.01l0.7 0.18c0.03,0.01 0.08,0.1 0.11,0.07 0.44,-0.46 -0.51,3.08 -0.53,3.18 -0.28,1.19 -0.35,1.98 -1.36,2.23 -0.97,0.23 -1.74,0.03 -2.77,0.02 -3.52,-0.06 -2.83,-0.62 -4.25,4.71 1.04,0.25 3.21,0.35 4.2,0.3 7.64,-0.35 8.01,1.25 9.22,-3.77 0.6,-2.47 2.04,-6.54 2.23,-8.81 0.3,-3.67 -4.19,-2.28 -6.29,-2.82z"/>
   <path class="fil4" d="M15.66 45.76c0.08,0.42 0.21,0.24 -0.15,0.62 -0.04,-0.08 -0.23,0.12 -0.09,-0.32 0.11,-0.33 0.07,-0.17 0.24,-0.3zm-4.73 -6.76c0.1,-0.52 0.16,-0.57 0.4,-0.88 0.16,0.24 0.15,-0.21 0.17,0.41 0.02,0.4 -0.23,1.02 -0.74,1.28l0.17 -0.82zm8.59 0.81c0.57,0.44 -0,3.66 -0.12,3.84 -0.47,-0.34 -0.27,-0.04 -0.24,-1.83 0.01,-0.44 0.04,-1.73 0.36,-2.01zm-15.61 -2.49c0.3,-0.61 0.8,-0.82 1.45,-0.75 -0.32,0.42 -0.87,0.67 -1.45,0.75zm18.39 9.79c-0.7,0.36 -0.4,0.43 -1.26,0.37 0.37,-0.55 0.61,-0.5 1.16,-0.75 0.39,-0.17 0.74,-0.34 1.08,-0.58 2.05,-1.44 2.79,-2.33 2.15,-4.26 -0.4,-1.18 -1.04,-1.62 -0.81,-2.29 0.57,0.35 1.05,1.63 1.26,2.28 0.29,0.89 0.1,1.92 -0.41,2.74 -0.77,1.25 -2,1.87 -3.17,2.48zm-3.69 -10.93c0.59,0.29 0.73,0.54 0.71,1.34 -0.43,-0.24 -0.22,-0.1 -0.47,-0.45 -0.15,-0.22 -0.1,-0.2 -0.34,-0.43l0.1 -0.45zm-1.46 3.87c-0.06,0.65 -0.08,1.74 -0.48,2.19 -0.36,-0.38 -0.23,0.15 -0.19,-0.59 0.02,-0.38 0.3,-1.87 0.27,-2.93 -0.01,-0.35 -0.1,-0.66 -0.12,-0.96 -0.1,-1.44 -0.31,-1.96 -0.49,-2.96 -0.19,-1.04 0.28,-0.95 0.28,-0.95 0.36,0.45 0.22,0.36 0.26,1.02 0.05,0.66 0.35,1.39 0.36,3.04 0,0.68 0.16,1.54 0.1,2.15zm-2.69 -5.9c0.04,-0.64 0.19,-1.05 0.38,-1.66 0.44,-1.47 0.39,-0.92 0.75,-0.93l-0.08 0.61c-0.32,1.77 -0.35,2.1 -1.06,1.98zm4.16 2.02c-0.65,-0.27 -0.16,0.02 -0.53,-0.46 -0.79,-1.04 -1.91,-2.54 -1.42,-3.82 0.62,0.18 0.44,0.38 0.45,1 0.03,1.51 1.47,2.32 1.51,3.28zm2.32 0.16c-1.09,-0.65 -2.04,-1.88 -2.79,-2.9 -0.45,-0.6 -0.45,-0.64 -0.5,-1.3 0.7,0.36 0.07,-0.23 0.82,1.13 1.34,2.42 2.59,2.1 2.47,3.07zm-12.22 -1.59c0.27,-0.66 0.77,-1.01 1.23,-1.25 0.92,-0.48 0.89,-0.23 1.76,-0.28 0.91,-0.05 1.62,-1.88 2.64,-2.13 0.18,0.67 -0.92,1.33 -1.44,1.72 -0.5,0.38 -0.33,0.1 -0.54,0.56 1.55,0.97 3.41,2.81 2.95,4.91 -2.78,0.87 -3.69,-0.89 -5.37,-2.14 -0.87,-0.65 -0.86,-0.35 -1.23,-1.39zm11.15 10.42l-0.33 -0.03c-0.44,0.45 -1.34,0.55 -1.99,2.01l2.05 0.47 0.31 0.67c1.91,0.06 4.19,-0.93 5.55,-1.78 3.5,-2.18 2.68,-4.12 2.69,-5.18 -0.19,-0.25 -0.39,-0.68 -0.51,-0.89 -0.75,-1.33 -1.41,-1.42 -1.87,-2.22 -1.33,0.05 0.08,0.87 -2.99,1.11 -0.63,0.05 -1.24,-0.09 -1.88,-0.11 -0.3,-0.01 -0.76,-0.02 -1.05,-0.08 -3.09,-0.66 2.79,-3.3 2.94,-3.42 -0.24,-0.75 -3.33,-3.69 -4.15,-4.34 0.32,-1.36 0.47,-0.6 0.92,-1.3 -0.81,-0.59 -1.07,0.5 -1.9,0.73l-0.05 -0.56c-0.01,-0.62 0.2,0.01 0,-0.59 -0.78,0.3 -0.51,1.28 -1.46,1.36 -0.34,-0.3 0.02,-0.4 -0.61,-0.84 -1.24,-0.86 -0.26,-0.74 -1.34,-1.02 -1.77,1.49 1.89,0.04 -5.35,4l-5.88 3.18c-5.97,3.41 -0.21,8.6 4.18,10.23l-0.1 -0.27c-1,-2.67 2.18,0.33 3.02,0.37 0.03,0 0.1,0.02 0.13,-0.02 0.03,-0.04 0.09,-0.01 0.13,-0.03 0.23,-0.23 -0.19,-0.56 -0.24,-1.17 0.73,0.5 0.52,0.83 0.75,1.61l0.91 0.25c0.4,-0.52 0.09,-0.58 0.56,-0.99 1.5,0.29 0.08,0.93 1.67,0.82 0.56,-0.04 0.42,-0.23 0.95,-0.15 0.55,0.09 0.34,0.2 0.74,0.35 0.61,0.22 1.19,-0.22 1.53,-0.54 0.32,-0.3 0.94,-0.89 1.06,-1.27 -0.6,-0.23 -1.17,-0.35 -1.75,-0.29 -4.19,0.48 -3.83,0.09 -8.52,-0.5 -1.4,-0.18 -2.21,0.03 -3.54,-0.32 -0.37,-1.97 -0.98,-3.3 0.01,-5.85 0.4,-1.03 0.31,-1.08 1.43,-0.87 0.41,-0.69 1.34,-1.74 2.12,-1.68 -0.28,0.54 -0.38,0.33 -0.95,0.81 -0.38,0.33 -0.51,0.51 -0.63,1.07l3.7 2.12c1.27,0.61 2.47,1.53 3.84,2.04 1.47,0.54 2.67,1.13 4.32,1.62 0.86,0.25 1.72,0.48 2.59,0.69 0.35,0.08 0.85,0.18 1.18,0.29 0.66,0.22 0.6,0.14 0.67,0.6 -0.13,0.03 -2.58,-0.03 -2.83,-0.1z"/>
   <path class="fil3" d="M26.17 38.28c0.7,0.59 1.79,1.81 2.09,2.78 0.15,0.59 0.21,0.33 0.31,1.15 0.06,0.5 0.09,0.97 -0.08,1.52 -0.32,1.05 -0.99,1.54 -1.59,2.13 -0.44,0.43 -1.31,1.08 -2.01,1.41 -0.55,0.26 -1.73,0.62 -2.11,1.07 -0.16,1.01 0.84,1.98 1.9,2.31 2.42,0.75 4.56,0.52 7.01,0.5 0.65,-0.01 2.69,0.3 3.21,-0.09 0.52,-0.45 1.74,-3.76 1.88,-4.6 -0.88,-0.28 -1.26,-0.2 -2.08,-0.15 -0.67,0.03 -1.32,-0.07 -1.97,-0.05 -2.22,0.07 -2.8,0.18 -3.76,-0.61l3.96 -14.77c0.27,-0.99 0.25,-1.55 1.29,-1.57 0.61,-0.02 1.39,-0.13 2.02,0.08l-1.13 4.73c0.83,0 2.23,-0.33 3.06,-0.5 0.79,-0.16 2.44,-0.31 2.77,-0.78 0.26,-0.36 1.8,-6.57 1.95,-7.44 -0.86,-0.39 -5.67,-0.22 -6.93,-0.27 -0.55,-0.02 -1.07,0.08 -1.59,0.09 -0.47,0.01 -1.17,-0.09 -1.77,-0.08 -4.4,0.11 -4.18,-0.02 -5.84,6.71 -0.3,1.23 -0.71,2.54 -1.08,3.78 -0.73,2.44 -0.32,1.79 0.49,2.68z"/>
   <path class="fil3" d="M36.94 51.06c0.78,0.37 8.21,0.09 9.82,0.22 0.79,0.07 1.33,0.18 1.7,-0.41 0.22,-0.34 1.32,-3.69 1.45,-4.22 -1.23,-0.56 -3.92,-0.01 -5.42,-0.34 0.12,-1.13 1,-5.14 1.55,-5.84 0.8,-0.5 4.46,0.08 5.07,-0.25 0.54,-0.34 1.31,-3.35 1.35,-4.26 -0.84,-0.47 -3.75,-0.09 -5.1,-0.41 0.21,-0.95 1.28,-3.9 0.95,-4.61 -0.24,-0.51 -1.97,-1.9 -0.54,-3.23 0.72,0.26 0.17,0.44 1.3,0.84l0.54 -3.09c-1.44,-0.44 -2.29,-0.12 -3.7,-0.25 -2.08,-0.2 -1.99,-0.07 -2.5,1.88 -0.69,2.65 -1.4,5.36 -2.08,8.08 -0.57,2.3 -4.38,14.86 -4.37,15.89z"/>
   <path class="fil3" d="M45.09 1.59l-6.32 22.99c1.02,0.33 1.78,0.11 2.81,0.22 0.87,0.09 1.71,-0.01 2.69,-0.03l2.61 -9.21c1.48,-0.44 3.79,0.25 5.08,-0.21 0.5,-0.52 0.96,-3.01 1.16,-3.91 -1.19,-0.39 -3.32,-0.04 -4.87,-0.38l1.3 -5.16c0.84,0.03 4.75,0.11 5.24,-0.06l1.07 -4.03c-0.64,-0.29 -4.35,-0.08 -5.32,-0.13 -0.98,-0.05 -1.75,-0.01 -2.66,-0.09 -0.96,-0.08 -1.81,0.11 -2.77,-0z"/>
   <path class="fil3" d="M51.3 22.59c1.28,0.34 1.82,0.35 2.94,0.92 0.44,0.22 0.7,0.29 1.09,0.66 0.35,0.33 0.35,0.61 1.06,0.6 2.16,-6.46 3.83,-14.92 5.86,-21.79 0.64,-2.15 -0.24,-0.95 -4.28,-1.27 -1.46,-0.11 -1.19,0.28 -1.58,1.8 -0.52,2.07 -1.15,4.15 -1.74,6.22 -1.17,4.08 -2.55,8.7 -3.36,12.86z"/>
   <path class="fil2" d="M51 29.16c-0.12,-0.63 0.63,-4 1.13,-4.16 0.63,-0.2 2.8,1.53 3.1,1.85 -0.29,1.12 -0.96,1.39 -1.83,1.76 -0.84,0.36 -1.73,0.82 -2.41,0.55zm-1.05 -4.16c0.13,0.77 -0.22,3.18 -0.76,3.99 -0.87,-0.12 -0.79,-0.42 -1.43,-0.63 -0.51,1 0.43,2.23 1.21,2.73 0.45,0.29 2.61,-0.25 3.17,-0.32 1.35,-0.16 1.94,-0.6 2.75,-1.21 0.47,-0.36 0.83,-0.64 1.06,-1.35 0.21,-0.64 0.43,-1.43 0.27,-2.07 -0.48,-1.96 -3.34,-3.28 -6.01,-3.18 -1.06,0.04 -2.76,-0.19 -3.09,0.85 -0.56,1.81 1.55,0.6 2.83,1.21z"/>
   <path class="fil5" d="M13.06 18.44c-0.98,-0.31 -0.83,-0.66 -1.76,-0.95 0.09,1.12 1.48,1.85 2.77,3.2 0.49,0.51 2.42,2.64 2.03,3.44 -0.94,-0.15 -0.73,-1.5 -2.05,-2.66 -0.55,-0.48 -1.02,-0.76 -1.85,-0.97 -0.97,-0.24 -1.38,-0.15 -1.74,0.62 -1.13,2.45 0.91,2.76 -1.72,8.71 0.74,-0.15 0.74,-0.3 1.24,-1.38 0.31,-0.68 0.62,-1.16 0.9,-1.93 0.54,-1.47 0.76,-3.41 1.35,-4.69 2.63,0.17 2.61,4.75 3.35,5.49 0.67,-0.63 -0.13,-1.53 0.71,-2.27 0.51,0.22 0.53,0.36 0.57,0.98 0.12,2.09 -1.4,2.78 -0.85,4.23 1.04,-0.28 1.41,-2.72 1.43,-3.55 0.03,-1.06 -1.08,-4.59 -2.16,-5.96 -1.19,-1.5 -1.91,-1.58 -2.22,-2.31z"/>
   <path class="fil5" d="M15.78 16.36l-0.16 0.1c0.23,1.08 -0.83,1.36 0.07,3.64 0.82,2.08 1.68,3.77 1.99,6.08l0.43 3.42c1.01,-0.26 1.39,-3.27 1.45,-4.18 0.03,-0.54 -0.2,-1.42 -0.37,-1.98 -0.12,-0.41 -0.46,-1.5 -0.39,-1.96l-0.47 -0.88 0.16 -0.51c0.08,-0.87 -0.15,-0.8 -0.23,-1.57 -0.06,-0.62 -0.03,-0.93 -0.15,-1.5 -0.2,-0.35 -0.17,-0.38 -0.28,-0.85 -0.14,-0.63 0.03,-0.4 -0.34,-0.77 -1,-0.09 -1.05,0.5 -1.71,0.95z"/>
   <path class="fil5" d="M8.12 46.25c0.21,0.68 -0.46,-0.05 0.41,0.66 0.85,0.7 0.77,0.51 0.82,1.95 1.09,-0.07 0.77,-0.41 1.49,-0.24 -0.06,1.01 -0.23,1.75 0.96,2.01 0.01,-0.88 -0.44,-0.38 -0.4,-1.31 0.39,-0.27 0.47,-0.22 1.01,-0.18 0.99,1.45 0.12,0.97 1.07,1.17l0.33 -0.91c1.37,0.37 0.96,0.03 1.89,0.18 0.46,0.46 0.1,0.62 0.9,0.97 0.57,-0.35 0.25,-0.51 0.93,-0.79 0.4,-0.16 0.8,-0.15 1.21,-0.33 0.75,-2.24 -1.83,-1.43 -2.94,-1.61 -0.69,-0.11 -0.86,-0.29 -1.54,-0.2 -0.75,0.1 -3.58,0.13 -4.06,-0.03 -0.52,-0.18 -1.49,-1.05 -2.09,-1.34z"/>
   <path class="fil2" d="M60.1 23.58c0.26,1.92 1.59,1.13 -0.68,3.74l-0.83 -0.19c-0.6,-2.41 0.42,-2.24 1.3,-3.43 -0.73,-0.61 -0.9,-0.91 -1.77,-0.41 -1.54,0.89 -2.25,3.88 -0.18,5.3 1.56,1.06 2.87,-0.13 3.52,-1.31 0.9,-1.63 0.56,-2.98 -1.37,-3.71z"/>
   <path class="fil5" d="M20.12 23.95c0.7,-0.31 1.21,-1.28 2,-1.59 0.71,0.29 1.09,1.21 1.13,1.84 0.12,2.06 -3,6.68 -0.4,7.2 0.42,-1.25 0.11,-1.96 0.37,-3.18 0.56,-2.66 2.3,-3.78 0.74,-5.74 -0.56,-0.7 -1.35,-1.33 -2.64,-1.36 -0.38,0.47 -0.77,1 -1.03,1.43 -0.35,0.59 -0.63,0.92 -0.17,1.41z"/>
   <path class="fil6" d="M91.23 16.46c-0.49,-0.54 -1.15,0.21 -1.73,0.48 -2.7,-1.13 -1.37,-2.47 -2.05,-3.12 -0.29,-0.28 -1.59,-0.77 -2,-0.83 -1.31,-0.19 -1.98,2.26 -0.22,2.79 0.83,0.25 1.61,0.5 2.42,0.73 1.17,0.33 2.96,1.78 3.55,0.53 0.27,-0.57 0.14,-0.27 0.03,-0.58z"/>
   <path class="fil6" d="M98.68 14.74c-0.01,0.6 0.36,1.75 -1.69,1.76 -1.02,0.01 -2.83,-0.79 -2.77,0.73 0.32,0.25 0.74,0.09 1.13,0 0.43,-0.1 0.77,-0.21 1.15,-0.26 1.88,-0.24 2.89,-0.12 3.77,-0.24 1.09,-0.15 1.8,-2.28 1.55,-3.2 -0.95,-0.24 -2.4,0.78 -3.15,1.21z"/>
   <path class="fil3" d="M7.53 43.18c-1.22,-1.32 -1.58,-2.62 -2.28,-4.34 -0.8,1.47 -0.88,3.95 -0.03,5.25l2.75 -0.13 -0.44 -0.78 0.57 0.12c0.33,-0.9 0.32,-2.75 0.24,-3.71 -0.87,-0.31 -3.09,-2.41 -2.13,0.13 0.39,1.03 1.18,2.66 1.33,3.46zm12.01 1.97c1.08,0.09 0.94,-0.08 1.11,-0.23l-1.54 -0.63 -0.23 0.74 0.66 0.12zm-2.95 -0.55c2.24,0.87 2.65,-0.72 0.17,-0.8l-0.17 0.8zm-0.6 0.33c0.39,-1.51 -0.15,-1.99 -1.78,-2.1 -0.14,0.34 0.18,1.81 0.24,2.04l1.53 0.06zm-5.85 -4.17c0.22,0.93 2.44,4.24 2.46,4.29l1.47 -0.07c-0.03,-0.41 -0.23,-1.15 -0.35,-1.65 -0.15,-0.62 -0.09,-0.77 -0.77,-1.23 -0.38,-0.26 -2.37,-1.43 -2.81,-1.35zm0.18 1.65c-0.25,-0.47 -0.87,-1.81 -1.3,-2.02 -0.41,0.3 -0.25,2.45 -0.31,3.13 -0.08,0.86 -0.07,0.94 2.59,1.2 0.14,-0.49 0.23,-0.26 -0.21,-0.95l-0.78 -1.36z"/>
   <path class="fil2" d="M55.66 31.44c0.27,0.06 4.69,-0.17 5.44,-0.55 -0.09,-1.48 -1.6,-1.57 -3.03,-1.45 -1.3,0.11 -2.37,0.33 -2.42,2.01z"/>
   <path class="fil7" d="M86.47 21.63c0.23,1.86 2.49,0.13 3.8,0.35 -0.27,0.9 -0.38,0.65 -1.15,0.85 -0.41,0.1 -0.91,0.18 -1.12,0.6l0.95 0.41c2.2,-1.81 4.81,-1.9 5.78,-2.62 -0.64,-0.25 -2.81,0.09 -4.19,0.05 -0.64,-0.02 -3.66,0.13 -4.06,0.37z"/>
   <path class="fil5" d="M14.21 37.53c0.38,-1.4 -0.14,-2.21 -1.32,-2.96 -1.25,-0.79 -2.68,-0.56 -3.33,0.4 0.55,0.44 3.91,2.29 4.65,2.56z"/>
   <path class="fil5" d="M24.42 36.66c-1.42,-0.6 -4.55,0.98 -3.97,1.9 0.18,0.28 2.94,0.52 3.61,-0.52 0.31,-0.49 0.4,-0.8 0.36,-1.39z"/>
   <path class="fil3" d="M51.5 28.73c0.54,0.14 2.94,-0.66 3.25,-1.81 -0.44,-0.57 -1.74,-1.35 -2.44,-1.37 -0.42,0.6 -0.9,2.44 -0.81,3.19z"/>
   <path class="fil6" d="M19.71 25.07c1.4,0.67 1.67,-0.42 1.96,-1.64 -0.54,0.02 -0.76,0.36 -1.06,0.61 -0.62,0.52 -0.73,0.2 -0.9,1.03z"/>
   <path class="fil8" d="M58.82 26.59c1.1,0.32 1.27,-0.86 1.22,-1.77 -0.96,-0.21 -1.42,0.86 -1.22,1.77z"/>
   <path class="fil9" d="M7.94 47.71c0.08,0.3 0.17,0.69 0.25,0.96 0.18,0.58 0.18,0.52 0.6,0.63l-0.14 -1.41 -0.71 -0.18z"/>
   <path class="fil10" d="M55.99 29.37c0.21,-0.01 0.55,-0.01 0.7,-0.14 0.48,-0.41 0.11,-0.62 0.05,-0.74 -0.36,0.03 -0.32,-0.29 -0.76,0.88z"/>
   <path class="fil11" d="M96.66 15.75c0.67,0.19 0.52,0.15 0.71,-0.44 -0.61,-0.11 -0.67,-0.25 -0.71,0.44z"/>
   <path class="fil12" d="M18.8 21.48c0.07,-0.73 -0.07,-0.89 -0.32,-1.39l-0.16 0.51 0.47 0.88z"/>
   <path class="fil13" d="M89.88 15.93l0.21 -0.6 -0.62 -0.1c-0.03,0.58 -0.12,0.49 0.41,0.7z"/>
  </g>
 </g>
</svg>
