<?xml version="1.0" encoding="UTF-8"?>
<!DOCTYPE svg PUBLIC "-//W3C//DTD SVG 1.1//EN" "http://www.w3.org/Graphics/SVG/1.1/DTD/svg11.dtd">
<!-- Creator: CorelDRAW -->
<svg xmlns="http://www.w3.org/2000/svg" xml:space="preserve" width="33.8667mm" height="16.9333mm" version="1.1" style="shape-rendering:geometricPrecision; text-rendering:geometricPrecision; image-rendering:optimizeQuality; fill-rule:evenodd; clip-rule:evenodd"
viewBox="0 0 93.1 46.55"
 xmlns:xlink="http://www.w3.org/1999/xlink"
 xmlns:xodm="http://www.corel.com/coreldraw/odm/2003">
 <defs>
  <style type="text/css">
   <![CDATA[
    .fil5 {fill:#282829}
    .fil7 {fill:black}
    .fil0 {fill:black}
    .fil4 {fill:lime}
    .fil3 {fill:#EC760E}
    .fil1 {fill:red}
    .fil6 {fill:yellow}
    .fil2 {fill:white}
   ]]>
  </style>
 </defs>
 <g id="Camada_x0020_1">
  <metadata id="CorelCorpID_0Corel-Layer"/>
  <g id="_2486168825488">
   <path class="fil0" d="M73.7 20.5c0.03,-0 0.05,-0 0.08,-0 0.67,-0.01 1.36,0.13 1.93,0.44 0.1,0.06 0.19,0.11 0.28,0.18l0.87 0.66c0.19,0.14 0.51,0.38 0.75,0.5 0.46,0.11 0.79,0.22 1.21,0.45 0.76,0.41 1.15,1.13 1.08,1.87l0.42 -0.8c0.15,-0.28 0.33,-0.49 0.6,-0.68 0.74,-0.55 1.63,-0.57 2.54,-0.6 0.66,-0.03 1.32,-0.05 1.97,-0.12 0.32,-0.04 0.64,-0.08 0.95,-0.16 0.94,-0.23 1,-0.44 1.74,-0.96 0.95,-0.66 1.54,-0.62 2.61,-0.57 1.24,0.02 2.24,0.91 2.24,2 0,0.55 -0.09,1.21 -0.19,1.7l-0.91 5.35c-0.05,0.47 -0.13,0.94 -0.2,1.41 -0.07,0.45 -0.17,0.9 -0.24,1.36 -0,0.01 -0,0.01 -0,0.02l-1.61 9.55c-0.01,0.03 -0.01,0.06 -0.02,0.09 -0.04,0.16 -0.04,0.34 -0.06,0.5 -0.01,0.04 -0.01,0.08 -0.02,0.12l-0.41 2.09c-0.19,0.97 -1.13,1.66 -2.26,1.66l-3.81 -0c-0.01,0 -0.01,0 -0.02,-0 -1.12,-0.01 -2.07,0.13 -2.93,-0.77 -0.3,-0.31 -0.45,-0.61 -0.52,-0.91 -0.14,0.3 -0.27,0.55 -0.63,0.88 -0.7,0.62 -1.56,0.76 -2.51,0.77 -0.91,0.01 -1.84,-0.04 -2.75,-0.07l-0.86 0c-0.28,0.01 -0.51,-0.01 -0.79,-0.04 -0,-0 -0.01,-0 -0.01,-0 -0.35,-0 -0.67,-0.07 -0.96,-0.19 -0.08,0.02 -0.15,0.04 -0.23,0.06 -0.94,0.2 -1.6,0.1 -2.49,0.15 -0.07,0 -0.13,0.01 -0.2,0l-1.97 -0.02c-0.02,-0 -0.04,-0 -0.06,-0 -0.59,-0.02 -1.18,-0 -1.77,-0 -0.88,0 -2.71,0.03 -3.76,-0.15 -0.82,0.15 -1.7,0.05 -2.54,0.04 -0.85,-0.01 -1.65,-0.25 -2.21,-0.84 -1.16,-1.19 -0.42,-2.76 -0.15,-4.12 0,-0.01 0,-0.02 0.01,-0.03l0.52 -2.43c0.01,-0.03 0.01,-0.06 0.02,-0.1l-2.32 -0.05 -2.69 5.69c-0.36,0.77 -0.94,1.39 -1.85,1.68 -1.1,0.35 -1.62,-0 -2.54,0.1 -0.12,0.01 -0.23,0.02 -0.35,0.02l-2.83 -0.05c-0.76,-0.01 -1.54,0.06 -2.25,-0.08 -0.25,0.06 -0.51,0.08 -0.78,0.08 -0.03,0 -0.05,-0 -0.08,-0l-2.1 -0.07c-0.17,0.03 -0.36,0.04 -0.55,0.04 -0.17,-0 -0.34,-0.02 -0.5,-0.05 -0.9,0 -1.8,0.02 -2.7,0.03 -1.02,0.01 -2.69,0.07 -3.66,-0.11 -0.18,-0.04 -0.36,-0.09 -0.52,-0.16 -0.98,0.37 -2.06,0.19 -3.09,0.16 -2.6,-0.08 -5.88,0.4 -8.15,-0.95 -0.87,-0.52 -1.55,-1.28 -1.89,-2.14l-0 0c-0.08,0.09 -0.16,0.18 -0.25,0.25 -0.1,0.24 -0.29,0.43 -0.55,0.57 -0.29,0.16 -0.62,0.21 -0.93,0.16 -0.01,0 -0.02,0 -0.04,0.01 -0.05,0.08 -0.11,0.15 -0.18,0.22 -0.48,0.46 -1.15,0.71 -1.85,0.47 -0.39,-0.14 -0.63,-0.35 -0.79,-0.61 -0.03,0 -0.06,0.01 -0.09,0.01 -0.1,0.12 -0.23,0.22 -0.42,0.32 -0.38,0.2 -0.79,0.21 -1.17,0.1 -0.11,0.11 -0.24,0.19 -0.39,0.26 -0.37,0.21 -0.84,0.24 -1.26,0.07 -0.47,-0.19 -0.67,-0.45 -0.83,-0.8 -0.21,-0.24 -0.38,-0.3 -0.55,-0.63 -0.17,-0.02 -0.33,-0.08 -0.49,-0.16 -0.41,-0.22 -0.64,-0.58 -0.64,-0.99l0 -0.68c-0.04,-0.03 -0.08,-0.06 -0.12,-0.09 -0.15,0.01 -0.31,0.01 -0.46,-0.03 -0.73,-0.15 -1.15,-0.41 -1.77,-0.7 -0.07,-0.03 -0.13,-0.07 -0.19,-0.11l-2.36 -1.64c-0.05,-0.04 -0.09,-0.07 -0.14,-0.11 -1.92,-1.78 -3,-4.73 -1.06,-6.82 0.72,-0.78 1.82,-1.29 2.78,-1.81 0.24,-0.13 0.44,-0.26 0.69,-0.38 0.23,-0.11 0.45,-0.22 0.67,-0.33 0.89,-0.45 1.77,-0.91 2.65,-1.36l2.62 -1.36c0.28,-0.16 1.24,-0.6 1.52,-0.8 0,-0.02 0,-0.05 0,-0.06 0,-0.5 0.35,-0.93 0.89,-1.09 0.12,-0.14 0.24,-0.25 0.42,-0.36 0.13,-0.08 0.26,-0.14 0.41,-0.18 -0,-0.01 -0,-0.03 -0.01,-0.04l-0.2 -1.44c-0.11,-0.46 -0.26,-0.98 -0.46,-1.46l-1.31 3.54c-0.03,0.07 -0.06,0.13 -0.1,0.2 -0.16,0.26 -0.31,0.53 -0.47,0.79 -0.37,0.58 -0.68,0.98 -1.47,1.17 -0.51,0.12 -1.01,-0.02 -1.35,-0.37 -0.34,-0.35 -0.42,-0.81 -0.2,-1.22l0.47 -0.92c0.01,-0.03 0.03,-0.05 0.04,-0.07 0.05,-0.09 0.11,-0.17 0.17,-0.25 0,-0.01 0.01,-0.02 0.01,-0.03l0 -0.01c-0.25,0.03 -0.52,0.06 -0.67,0.06 -0.21,0 -0.4,-0.01 -0.6,-0.04 -0.55,0.01 -1.1,-0 -1.65,-0.01 -1.11,-0.02 -2.52,0.07 -3.37,-0.68 -0.9,-0.79 -0.74,-1.74 -0.47,-2.67 0.16,-0.53 0.34,-1.07 0.53,-1.59 0.25,-0.71 0.52,-1.41 0.77,-2.08l5 -14.37c0,-0.01 0.01,-0.02 0.01,-0.02 0.29,-0.8 0.29,-1.46 1.1,-2.09 1.06,-0.83 2.54,-0.59 3.84,-0.59 0.02,0 0.03,0 0.05,0 1.46,0.03 3.25,-0.23 4.22,0.96 0.37,0.45 0.48,0.91 0.47,1.45 -0,0.07 -0,0.14 0.01,0.21 0.01,0.04 0.01,0.07 0.02,0.11l0.08 0.74 0.77 -0.98c0.02,-0.02 0.03,-0.04 0.05,-0.06 1.29,-1.53 1.36,-2.32 3.91,-2.31l1.82 0.01c0.05,0 0.1,0 0.15,0 1.36,0.08 2.79,-0.28 3.77,0.87 0.06,0.07 0.11,0.14 0.16,0.21 0.28,-0.34 0.63,-0.62 1.13,-0.82 0.82,-0.33 1.39,-0.2 2.19,-0.2l2.15 -0c0.01,0 0.02,0 0.03,0l3.18 0.04c0.98,0.01 1.81,0.57 2.13,1.33 0.44,-0.73 1.14,-1.27 2.26,-1.26l5.09 0.04 3.81 0.04c0.22,0 0.43,0.03 0.62,0.08 0.49,-0.12 1.01,-0.14 1.56,-0.14 1.18,0.01 2.39,0.09 3.57,0.14 0.82,0.03 1.52,0.43 1.9,1.01 0.23,-0.26 0.5,-0.48 0.84,-0.66 0.75,-0.39 1.48,-0.4 2.32,-0.37 0.76,0.03 1.49,0.05 2.25,0.03 0.04,-0 0.07,-0 0.1,-0l7.8 0.1c0.1,0 0.18,0.01 0.29,0.02 0.4,-0.05 0.7,-0.08 1.12,-0.04 0.39,0.03 0.75,0.06 1.14,0.06 1.08,0 1.99,0.63 2.23,1.55 0.28,1.05 -0.27,3.27 -0.48,4.41 -0.29,1.58 -0.13,1.67 -1.34,2.87 0.06,0.19 0.1,0.38 0.1,0.59 0,2.27 -0.25,4.51 -0.25,6.78 0,0.4 -0.13,0.77 -0.35,1.08 -0,0.02 -0,0.04 -0.01,0.06 -0,0.03 -0.01,0.05 -0.01,0.08l-0.43 2.46z"/>
   <path class="fil1" d="M55.45 30.25l7.98 -16.94c0.21,-0.43 0.24,-0.74 0.65,-0.98 0,1.77 -3.7,17.9 -3.78,18.03 -0.23,0.39 -0.85,0.19 -1.47,0.19 -0.62,0 -1.24,0 -1.86,0 -0.5,0 -1.52,0.14 -1.52,-0.3zm-9.23 -0.56l6.71 -12.98 6.43 -12.44c1.23,-2.47 0.46,-1.67 4.5,-1.77l7.8 0.1c0.61,0.08 0.71,-0.08 1.22,-0.03 0.44,0.04 0.8,0.07 1.37,0.07 0.14,0.51 -0.38,2.94 -0.51,3.63 -0.26,1.4 0.06,1.03 -0.93,2 -0.67,0.65 -0.76,3.16 -0.51,3.59l0.17 -1.81c0,2.52 -0.25,4.27 -0.25,6.78 -0.14,-0.17 -0.08,-0.25 -0.08,-0.48 -0.26,0.17 -0.16,0.58 -0.26,1.4l-0.76 4.3c-1.37,0.1 -3.24,0.05 -4.03,1.58l-3.13 8.74c-1.44,4.48 3.05,3.22 4.54,3.53 0.49,0.1 0.23,0.41 -0.07,1.42l-0.64 1.95c-0.16,0.47 -0.17,0.61 -0.81,0.63 -5.31,0.17 -4.47,-1.12 -5.73,2.47 -0.82,2.34 -0.13,1.97 -3.01,1.94 -0.99,-0.01 -0.52,-0.61 -0.13,-2.61l0.52 -2.43c0.14,-0.67 0.53,-1.83 0.37,-2.41l-5.8 -0.12c-0.37,-0.05 -0.57,-0.01 -0.74,0.18l-3.19 6.76c-0.49,1.04 -0.98,0.38 -2.57,0.56l-2.86 -0.05c-2.64,-0.02 -2.3,0.43 -0.94,-2.82 0.19,-0.51 0.43,-0.81 0.43,-1.47 -0.78,-0.46 -0.91,-0.07 -2.03,-0.3 0,-0.5 1.51,-3.38 1.91,-4.03 0.33,-0.54 1.48,0.09 1.81,-0.72 0.26,-0.64 1.31,-3.61 1.19,-3.92 -0.13,-0.36 -0.69,0.07 -0.01,-1.23z"/>
   <path class="fil2" d="M8.12 22.18c0.05,0 0.58,-0.07 0.59,-0.07 0.54,-0.96 2.99,-8.58 3.7,-10.54 0.13,-0.34 -0.11,-0.08 0.19,-0.28 0.46,0.3 0.43,3.17 0.84,4.66l0.71 0.61c0.16,-0.15 0.36,-0.36 0.59,-0.61 0.25,-1.13 0.95,-2.3 2.21,-2.57 0.55,-0.67 1.01,-1.22 1.17,-1.41 0.43,-0.5 0.34,-0.57 0.75,-0.6 -0.02,0.68 -0.44,1.26 -0.76,2.22 0.08,0.1 0.13,0.22 0.13,0.34l0.05 1.1c0,0.01 0,0.03 0,0.04 -0,0.11 -0.02,0.2 -0.05,0.29 0,0 0,0.01 0,0.01 0.05,0.12 0.06,0.23 0.05,0.36 -0,0.09 -0.02,0.17 -0.04,0.24 0.03,0.11 0.05,0.23 0.04,0.35l-0.02 0.53c0.05,0.92 0.28,1.86 0.48,2.79 0.08,-0.09 0.16,-0.19 0.24,-0.3 0.45,-0.57 0.98,-1.46 1.95,-1.24 0.07,0.02 0.15,0.04 0.23,0.07 0.17,-0.3 0.38,-0.85 0.7,-1.81l3.19 -9.13 1.59 -4.54c0.32,-0.82 0.09,-0.43 -2.01,-0.55l-1.82 -0.01c-1.26,-0.01 -0.76,-0.04 -2.06,1.5l-3.88 4.97c-0.59,0.8 -0.44,0.22 -0.65,-1.19l-0.49 -4.48c-0.19,-1.09 0.59,-0.85 -2.49,-0.91 -2.9,0 -2.18,-0.32 -2.76,1.29l-5 14.37c-0.25,0.68 -1.6,4.17 -1.4,4.35 0.1,0.09 2.96,0.11 3.5,0.1 0.38,-0.01 0.12,0.04 0.49,0.04zm68.41 4.3c0.36,0 0.44,-0.08 0.55,-0.34l0.53 -1.71c-0.79,-0.43 -0.57,0.08 -2.21,-1.11l-0.91 -0.68c-0.17,-0.09 -0.41,-0.14 -0.66,-0.14 -1.48,0.03 -3.91,-0.23 -5.13,0.24 -0.43,0.16 -0.57,0.29 -0.81,0.55 -0.49,0.51 -0.7,1.1 -0.92,1.78 -0.87,2.64 -1.86,5.16 -2.75,7.97 -0.73,2.3 1.19,2.41 2.84,2.41 2.78,0 2.55,-0.26 2.02,1.47 -0.14,0.47 -0.32,1 -0.52,1.55 -0.37,1.01 -0.41,1.72 -1.42,1.81 -0.83,0.07 -2.29,-0.07 -3.34,-0.03 -1.52,0.05 -1.26,-0.15 -1.54,0.71 -0.16,0.5 -1.22,3.03 -1.15,3.34 0.34,0.11 2.91,0.12 3.41,0.12 0.61,0 1.26,-0.02 1.87,0l1.97 0.02c1.07,-0.07 2.37,0.21 3.26,-0.71 0.43,-0.45 0.51,-0.9 0.75,-1.56 0.21,-0.58 0.35,-1.08 0.57,-1.65 0.44,-1.13 0.86,-2.25 1.22,-3.38l0.85 -2.59c0.22,-0.71 0.38,-1.77 -0.26,-2.33 -0.31,-0.27 -0.66,-0.38 -1.06,-0.48 -1.15,-0.3 -1.94,-0.14 -2.81,-0.14 -1.26,0 -0.89,-0.24 -0.52,-1.27 0.17,-0.48 0.34,-1.02 0.51,-1.48 0.55,-1.51 0.48,-2.44 1.7,-2.44l3.98 0.07zm4.32 10.81c0,-0.33 0.04,-0.4 0.19,-0.65l2.43 -5.06c0.2,-0.46 1.32,-3.02 1.62,-3.32 0.1,0.41 -0.51,3.01 -0.63,3.6 -0.09,0.44 -0.13,0.8 -0.22,1.21l-0.73 3.58c-0.05,0.34 0.07,0.41 -0.17,0.6 -0.22,0.18 -0.26,0.05 -0.53,0.05 -0.36,0 -0.13,0.05 -0.41,0.05 -0.16,-0 -0.06,-0.05 -0.35,-0.05 -0.42,0 0.09,0.06 -0.33,0.05 -0.32,-0.01 0.14,-0.05 -0.26,-0.05 -0.32,0 -0.06,0.11 -0.59,0zm6.59 5.17c0.04,-0.28 0.03,-0.4 0.09,-0.66l1.61 -9.55c0.07,-0.42 0.18,-0.98 0.24,-1.35 0.08,-0.52 0.15,-0.9 0.2,-1.38l0.92 -5.41c0.07,-0.35 0.17,-1.02 0.17,-1.41 -0.47,-0.01 -0.72,-0.16 -1.12,0.13 -0.79,0.56 -1.07,0.96 -2.55,1.33 -1.8,0.45 -4.33,0.28 -4.61,0.49l-4.35 8.19c-0.12,0.26 -0.27,0.52 -0.42,0.82 -0.13,0.26 -0.27,0.56 -0.41,0.82 -1.14,2.05 -2.02,4.16 -3.19,6.17 -0.2,0.35 -0.05,0.26 -0.41,0.82 -0.11,0.18 -0.13,0.25 -0.2,0.42 -0.21,0.51 -1.18,1.95 -1.19,2.51 0.37,0 0.37,0.06 0.73,0.04l0.94 -0c4.16,0.11 3.4,0.22 4,-0.85l0.96 -2.13c0.51,-1.15 0.07,-0.91 3.11,-0.91 0.43,0 0.38,0.07 0.76,0.07l-0.56 2.92c-0.25,1.22 -0.44,0.99 1.06,1l3.81 0 0.41 -2.09zm-56.29 -12.88c0,0.27 0.59,0.04 0.85,-0l2.86 -0.54c1.25,-0.22 1.15,-0.13 1.39,-0.79l1.63 -4.65c0.62,-1.86 0.64,-1.43 -1.98,-1.43l-7.45 -0.07c-0.74,0 -1.32,0.17 -1.8,0.43 -0.28,0.15 -0.68,0.54 -0.81,0.77 -0.54,0.91 -1.84,4.96 -2.29,6.14 -0.18,0.48 -0.37,1 -0.52,1.47 -0.28,0.88 -0.43,1.23 -0.43,1.43 0.15,-0 0.29,0.03 0.42,0.11 0.78,0.46 2.11,2.13 2.37,2.93 0.63,1.95 -0.65,3.9 -2.43,5.02 -0.01,0.01 -0.02,0.01 -0.04,0.02l-1.55 0.86c-0.02,0.01 -0.03,0.02 -0.05,0.02 -0.53,0.25 -1.09,0.45 -1.66,0.61 0.09,0.68 0.63,1.22 1.1,1.5 1.54,0.92 5.05,0.55 6.93,0.6 0.43,0.01 1.81,0.16 2.16,-0.02 0.3,-0.15 1.21,-2.33 1.44,-2.82 0.56,-1.16 0.64,-1.2 0.04,-1.23l-1.37 -0.03c-0.29,0 0.13,0.04 -0.25,0.04 -0.36,0 -0.13,-0.05 -0.41,-0.05 -0.16,0 -0.06,0.05 -0.35,0.05l-1.88 -0.02c-0.39,0.02 -0.19,-0.05 -0.49,-0.05 -0.38,0 0.07,0.09 -0.45,0.03 -0.49,-0.05 -0.9,-0.14 -0.9,-0.62 0,-0.41 1.02,-3.04 1.24,-3.66 0.83,-2.37 1.74,-4.78 2.47,-7.1 0.2,-0.63 0.42,-1.11 0.63,-1.75 0.07,-0.21 0.22,-0.65 0.38,-0.85 0.38,-0.49 1.5,-0.36 2.12,-0.31 0.18,0.01 0.28,-0.05 0.28,0.19 0,0.3 -0.47,1.53 -0.6,1.92 -0.1,0.29 -0.58,1.65 -0.58,1.86zm0.55 14.48c0.73,0.14 4.82,0.04 6.05,0.04 0.3,0 0.19,0.04 0.35,0.05 0.42,0 -0.09,-0.05 0.33,-0.05l2.37 0.07c0.53,0 0.52,-0.26 0.74,-0.83 0.22,-0.58 1.39,-2.98 1.32,-3.27l-4.6 -0.05c0,-0.73 1.51,-4.74 1.78,-5.18 1.03,0.08 1.31,0.03 1.65,0.05 0.61,0.04 2.34,0.1 2.84,-0.05 0.14,-0.53 0.37,-1.09 0.57,-1.65 0.21,-0.58 0.37,-1.11 0.56,-1.67 0.2,-0.58 0.31,-0.46 -1.64,-0.46 -0.85,0 -1.69,0 -2.54,0 -0.13,-0.3 0.7,-2.51 0.86,-2.95 0.1,-0.29 0.27,-0.73 0.31,-1.05 -0.45,-0.34 -0.88,-0.7 -0.92,-1.33 -0.05,-0.77 -0.07,-1.42 0.76,-1.48 0.05,0.08 0.6,1.56 0.91,0.42 0.85,-3.06 0.63,-2.42 -1,-2.42l-1.04 -0.04c-0.4,-0.01 0.09,0.04 -0.32,0.04 -0.33,0 -0.14,-0.04 -0.42,-0.04 -1.6,0 -1.42,-0.3 -1.94,1.32 -0.9,2.85 -2.17,6.05 -3.05,8.81 -0.31,0.99 -0.68,1.94 -1.02,2.88 -0.36,0.99 -0.7,2.01 -1.02,2.96 -0.28,0.85 -2.05,5.36 -1.92,5.88zm11.89 -18.4c1.18,0.36 4.05,0.57 5.17,-0.99l5.16 -14.81c0.28,-0.8 2.47,-6.79 2.47,-7.4 -5.79,-0.22 -4.58,-0.47 -5.45,1.97l-2.33 6.63c-0.77,2.2 -4.48,12.6 -5.01,14.59zm-4.91 -3.71c1.16,0 1.07,-0.73 1.36,-1.55l2.28 -6.45 4.32 0 1.19 -3.48 -4.15 -0.07c0,-0.33 1.24,-4.07 1.44,-4.44l4.4 0c0.2,-0.37 1.19,-3.12 1.19,-3.56l-3.81 -0.04 -5.08 -0.04c-0.3,-0 -0.46,0.85 -0.6,1.25l-6.3 18.12c0.11,0.17 2.48,0.11 2.84,0.1 0.92,-0.01 0.79,0.15 0.93,0.15zm-10.25 -6.22c0,-0.81 3.4,-7.56 3.89,-8.59 0.27,0.17 0.08,0.36 -0.05,0.99l-1.4 6.71c-0.17,1.09 0.2,0.89 -2.45,0.89zm-5.21 6.53l1.91 0.08c0.73,-1 1.32,-2.51 1.87,-3.64l3.05 0.01c0,0.93 -0.35,1.82 -0.43,2.51 -0.09,0.76 -0.01,0.52 2.38,0.52 0.21,0 0.33,0.04 0.43,0.04l1.68 -0.04 2.8 -16.36c0.05,-0.61 0.5,-2.37 0.5,-3.12l-3.18 -0.04 -2.15 0c-1.94,-0.01 -0.98,-0.58 -3.36,3.77l-5.28 10.2c-0.79,1.45 -1.17,2.18 -1.3,2.6 0.51,0.4 0.98,0.89 1.17,1.23 0.04,0.07 0.09,0.16 0.12,0.24 0,0.01 0.01,0.02 0.01,0.03 0.23,0.58 0.07,1.31 -0.22,2z"/>
   <path class="fil3" d="M13.54 39.96c0.02,-0.24 0.11,-0.44 0.17,-0.67 0.21,0.1 0.37,0.07 0.21,0.4 -0.09,0.19 -0.21,0.19 -0.38,0.27zm-4.23 -0.96c0.02,0.69 0.41,0.6 0.42,1.18 -0.37,-0.01 -0.42,-0 -0.68,-0.96l0.12 -0.12c0.13,-0.12 0.02,-0.03 0.14,-0.1zm7.7 -1.41c-0.15,-0.3 0.18,-1.29 0.23,-1.65 0.05,-0.31 0,-0.63 0.02,-0.95 0.03,-0.75 0.33,-0.58 0.43,-0.59 0,0.53 -0.02,1.35 -0.13,1.81 -0.23,0.94 -0.13,1.28 -0.54,1.38zm4.74 -3.11c0.5,0.04 0.58,0.44 0.75,0.9 0.32,0.84 0.57,1.75 0.12,2.68 -0.41,0.84 -1.39,1.5 -2.13,1.99 -0.51,0.34 -1.58,1.03 -2.21,1.03 0.03,-0.29 0.04,-0.25 0.33,-0.37 2.37,-1.05 4.92,-2.46 3.59,-5.2 -0.19,-0.39 -0.38,-0.53 -0.45,-1.01zm-11.6 -0.07c0,-0.49 0.35,-1.14 0.68,-1.33 0,0.6 -0.16,0.38 -0.29,0.78 -0.16,0.49 0.15,0.56 -0.3,0.7 -0.09,-0.14 -0.08,-0.01 -0.08,-0.15zm-5.76 -2.22c0.54,-0.11 0.86,-0.48 1.44,-0.52 -0.12,0.21 -0.06,0.19 -0.55,0.41 -0.78,0.33 -0.76,0.32 -0.89,0.11zm1.97 0.54l-0.11 -0.17c0.24,-0.39 0.31,-0.51 0.7,-0.8 0.32,-0.24 0.6,-0.44 0.99,-0.46 -0.04,0.44 -0.44,0.33 -0.81,0.7 -0.42,0.41 -0.38,0.59 -0.78,0.73zm6.5 0.57c-1.03,0 -1.44,-0.24 -1.91,-0.77 -0.87,-0.99 -1.93,-1.43 -2.11,-1.79 -0.53,-1.01 1.33,-1.81 1.73,-1.81 1.45,0 1.09,-0.06 2.11,0.68 0.65,0.47 1.24,1.58 1.39,2.35 0.3,1.56 0.13,1.35 -1.21,1.35zm2.37 -3.93c0.43,0.57 0.39,4.79 0.2,5.8 -0.19,0.96 -0.11,1.42 -0.62,1.46 0,-0.34 0.5,-2.12 0.51,-2.74l-0.17 -2.82c-0.05,-0.84 -0.32,-1.45 0.08,-1.7zm3.05 1.56c-0.93,-1.07 -0.41,-0.1 -1.67,-2.16 -0.15,-0.25 -0.19,-0.29 -0.19,-0.58 0,-0.14 0.03,-0.13 0.08,-0.22 0.25,0.09 0.09,-0.11 0.32,0.53 0.13,0.37 0.57,1.24 0.81,1.52l0.36 0.42c0.22,0.24 0.54,0.4 0.86,0.73 0.19,0.19 0.27,0.18 0.35,0.44 -0.42,-0.03 -0.5,-0.17 -0.93,-0.67zm-0.68 1.63c-0.51,-0.01 -0.4,-0.06 -0.49,-0.46 -0.15,-0.6 -0.45,-1.06 -0.76,-1.55 -0.29,-0.46 -0.69,-0.78 -0.78,-1.54 -0.06,-0.55 -0.43,-1.14 0.26,-1.19 0.16,0.29 0.08,0.37 0.04,0.7 -0.1,0.83 0.4,1.37 0.64,1.82l0.32 0.53c0.3,0.41 0.77,1.17 0.78,1.69zm-2.96 -4.67c0,0.58 -0.98,2.69 -1.09,1.78 -0.02,-0.18 0.14,-0.28 0.28,-0.57l0.41 -1.19c0.1,-0.36 0,-0.29 0.31,-0.47 0.03,0.3 0.08,0.17 0.08,0.44zm-2.71 0.89c0.03,-0.34 0.38,-0.52 0.83,-0.91 0.54,-0.47 0.62,-0.72 0.95,-0.8 0.23,0.36 -0.23,0.68 -0.7,1.09 -0.44,0.39 -0.68,0.6 -1.08,0.61zm-5.57 3.94c0.06,0.26 0.02,0.13 0.29,0.3l4.74 2.74c0.96,0.51 1.91,1.02 2.98,1.4 1.55,0.54 2.64,0.74 3.92,1.16 0.56,0.18 1.51,0.35 1.76,0.68 -0.68,0.29 -2.51,-0.14 -3.25,0.12l-1.58 1.51c0.88,-0.37 0.46,0.1 0.51,0.2 0.29,0.16 0.44,0.08 0.85,0.09 0.36,0.01 0.38,0.07 0.76,0.07 -0.05,0.54 -0.26,0.04 -0.42,0.67 1.58,0 2.98,-0.42 4.04,-0.91l1.55 -0.86c1.48,-0.93 2.71,-2.6 2.15,-4.32 -0.2,-0.61 -1.42,-2.19 -2.07,-2.57 -0.21,0.35 -0.36,0.75 -0.83,0.9 -0.93,0.3 -3.77,0.29 -4.67,-0.24 0,-0.82 0.36,-0.62 0.51,-1.11 0.35,-0.03 0.54,-0.22 0.76,-0.37 0.22,-0.15 0.46,-0.3 0.69,-0.43 0.51,-0.29 1.06,-0.37 1.59,-0.68 -0.12,-0.46 -2.09,-2.43 -2.65,-3.09 -0.31,-0.36 -1.04,-0.89 -0.33,-1.29 0.45,-0.25 0.42,0.02 0.69,-0.43 -0.46,-0.15 -0.54,-0.39 -1.55,0.5 -0.23,0.2 -0.39,0.49 -0.49,0.02 -0.01,-0.04 0.01,-0.23 0.02,-0.27 0.02,-0.13 0.11,-0.38 0.16,-0.54l-0.25 0c-0.14,0.52 -0.48,1.19 -1.19,1.19 -0.03,-0.28 -0.14,-0.61 -0.17,-0.89 -0.42,0 -0.53,0.04 -0.68,-0.22 -0.09,-0.14 -0.16,-0.49 -0.17,-0.67 -0.3,0.19 -0.11,0.33 -0.76,0.52 0,0.98 -0.66,1.01 -2.13,1.84l-2.66 1.38c-0.92,0.48 -1.77,0.92 -2.66,1.37 -0.24,0.12 -0.44,0.23 -0.7,0.35 -0.32,0.15 -0.34,0.19 -0.62,0.35 -0.78,0.43 -1.88,0.95 -2.45,1.56 -1.51,1.63 -0.44,3.97 0.99,5.3l2.36 1.64c0.47,0.22 0.85,0.47 1.44,0.59 -0.08,-0.27 -0.32,-0.46 -0.43,-0.67 -0.14,-0.27 -0.07,-0.58 0.39,-0.49 0.54,0.1 1.82,1.14 2.1,1.21 0.45,0.11 0.17,-0.09 0.91,0.25 1.39,0.63 0.64,0.16 1.02,-0.52 0.72,-0.3 0.75,0.44 1.27,0.74 0.34,-0.07 0.54,-0.22 0.93,-0.31 0.67,-0.15 0.43,0 0.42,0.45 0.53,0 0.76,-0.07 1.19,-0.07 -0.09,-0.36 0.03,-0.37 0.76,-0.81 0.32,-0.2 0.72,-0.45 0.76,-0.89 -0.44,-0.01 -0.67,-0.1 -1.26,-0.06 -0.32,0.02 -0.73,0.06 -1.08,0.04 -0.84,-0.04 -0.63,0.09 -1.05,0.16 -1.22,0.19 -1.84,-0.16 -2.36,-0.29 -0.29,-0.07 -0.79,-0.14 -1.14,-0.19 -0.74,-0.11 -1.6,-0.25 -2.42,-0.26 -0.78,-0 -2.09,0.11 -2.37,-0.3 -0.41,-0.6 -0.38,-2.24 -0.21,-3.14 0.23,-1.21 0.43,-1.64 1.14,-2.56 0.51,0 0.51,0.1 0.95,0.17z"/>
   <path class="fil4" d="M17.01 25.88c0.62,-0.14 1.35,-2.48 1.36,-3.03l-0.1 -1.92c-0.17,-1.16 -0.64,-2.82 -0.71,-4.06l0.02 -0.56c0.01,-0.37 -0.05,0.07 -0.05,-0.29 0,-0.25 0.05,-0.16 0.05,-0.3 0.01,-0.25 -0.05,-0.05 -0.05,-0.36 0,-0.25 0.05,-0.12 0.05,-0.3l-0.05 -1.1c-1.44,0 -2.13,1.66 -2.15,2.9 -0.01,0.43 0.56,1.81 0.69,2.22 0.1,0.3 0.19,0.46 0.27,0.73 0.16,0.57 0.3,1 0.34,1.62 0.03,0.36 0.1,0.56 0.15,0.84 0.21,1.2 0.19,2.2 0.19,3.61z"/>
   <path class="fil4" d="M7.27 39.88c0.2,0.32 0.2,0.35 0.52,0.58 0.31,0.22 0.29,0.28 0.67,0.45l0 1.26c0.2,-0.09 1.35,-0.74 1.35,-0.22 0,0.29 -0.11,0.09 -0.31,0.48 -0.25,0.47 0.17,0.53 0.43,0.9 0.13,0.19 0.1,0.3 0.26,0.36 0.17,-0.15 0.11,0.08 0.1,-0.23 -0.02,-0.27 -0.37,-0.48 -0.36,-0.77 0.01,-0.39 0.75,-0.52 1.02,-0.48 0.36,0.25 0.14,0.7 0.62,1.04 0.57,0.4 -0.06,-0.78 0.61,-0.78 0.41,0 0.45,0.14 0.59,0.37 0.06,-0.04 0.12,-0.05 0.2,-0.12 0.14,-0.11 0.07,-0 0.14,-0.17l0.59 0c0.08,0.25 0.16,0.21 0.26,0.51 0.09,0.25 0.21,0.75 0.67,0.3l0.23 -0.39c0.14,-0.3 -0.04,-0.28 0.27,-0.28 0.4,0 -0.05,0.07 0.28,0.09 0.26,0.02 -0.04,-0.07 0.39,-0.08 0.19,-0 0.13,0 0.26,0.06 0.02,-0.61 0.13,-0.17 0.42,-0.52 -0.15,-0.51 -0.35,-0.1 -0.17,-0.89l-3.3 -0.07c-0.06,-0.25 -0.01,-0.2 -0.08,-0.37 -0.49,0.1 -0.47,0.34 -0.93,0.44l-0.23 -0.18c-0.18,-0.16 -0.15,-0.07 -0.2,-0.26 -0.2,0.14 -0.08,0.04 -0.21,0.26 -0.06,0.1 -0.07,0.16 -0.13,0.26 -0.65,-0.05 -0.74,-0.37 -1.19,-0.37 -0.34,0 -0.25,0.07 -0.51,0.22 -0.37,-0.09 -0.85,-0.53 -1.11,-0.73l-0.52 -0.36c-0.65,-0.38 -0.25,-0.28 -0.66,-0.31z"/>
   <path class="fil4" d="M9.31 25.88c0.35,-0.08 0.44,-0.28 0.65,-0.61 0.18,-0.28 0.29,-0.5 0.47,-0.78l1.7 -4.59c0.47,-0.82 0.84,-1.06 1.65,0.14 0.49,0.73 0.81,1.7 1,2.54l0.2 1.48c0.21,-0.18 0.24,-0.33 0.28,-0.68 0.13,-1.09 0.07,-2.2 -0.44,-3.22 -0.23,-0.46 -0.6,-0.82 -0.96,-1.16 -0.06,-0.06 -0.05,-0.06 -0.12,-0.12 -0.55,-0.51 -0.93,-0.71 -1.64,-0.71 -1.7,0 -1.33,2.65 -1.45,3.84 -0.12,1.13 -0.14,1.35 -0.61,2.5 -0.14,0.34 -0.12,0.19 -0.27,0.44l-0.47 0.92z"/>
   <path class="fil4" d="M18.87 21.22c0.58,-0.14 1.47,-1.42 2.03,-1.56 0.33,0.19 0.44,0.34 0.58,0.68 0.73,1.72 -0.13,2.39 -0.68,3.68 -0.27,0.64 -0.95,2.3 -0.5,3.05 0.18,0.3 0.19,0.23 0.51,0.37 0.37,-0.49 0.35,-0.48 0.34,-1.63 -0.01,-0.71 0.18,-1.17 0.39,-1.73 0.11,-0.28 0.16,-0.48 0.32,-0.75 0.42,-0.71 1.19,-2.08 0.88,-2.84 -0,-0 -0.09,-0.18 -0.1,-0.2 -0.28,-0.51 -1.4,-1.44 -1.88,-1.55 -0.43,-0.1 -0.81,0.55 -1.16,0.99 -0.41,0.51 -0.74,0.68 -0.74,1.49z"/>
   <path class="fil2" d="M5.5 33.59c-0.21,0.13 -0.26,0.4 -0.35,0.66 -0.32,0.91 -0.44,2.45 -0.27,3.36 0.08,0.41 0.03,0.4 0.5,0.46 0.67,0.09 1.38,0.04 2.07,0.04 -0.04,-0.37 -0.39,-0.74 -0.57,-1.05 -0.57,-0.93 -1.28,-2.43 -1.37,-3.47z"/>
   <path class="fil4" d="M16.17 22.18l-0.04 0.85c-0,0.19 -0,0.19 -0.05,0.41 -0.44,2.23 -1.23,1.34 -0.76,3.11l0.88 -1.45c0.04,-0.07 0.11,-0.29 0.12,-0.34 0.31,-0.94 0.15,-1.35 0.09,-2.36l-0.56 -2.55c-0.19,-0.66 -0.78,-1.57 -1.29,-2.05 -0.01,-0.01 -0.03,-0.03 -0.04,-0.04l-2.06 -1.75c-0.21,-0.19 -0.21,-0.29 -0.61,-0.28 0.05,0.35 0.45,0.8 0.82,1.14 0.01,0.01 0.03,0.03 0.04,0.04 0.6,0.54 1.18,1.07 1.71,1.69 0.3,0.35 0.63,0.7 0.85,1.11 0.03,0.06 0.07,0.14 0.11,0.2 0.35,0.56 0.8,1.62 0.8,2.26z"/>
   <path class="fil2" d="M9.48 35.22l1.77 3.57c0.2,0.18 1.08,0.11 1.28,0.06 0,-0.63 -0.06,-1.02 -0.14,-1.5 -0.11,-0.66 -0.18,-0.66 -0.69,-0.96l-1.38 -0.79c-0.1,-0.06 -0.16,-0.08 -0.26,-0.14 -0.23,-0.14 -0.21,-0.18 -0.58,-0.23z"/>
   <path class="fil4" d="M9.77 29.99c-0.11,0.49 0.37,0.35 0.38,0.93 0.34,0.02 0.19,0.01 0.77,0.36 0.23,0.14 0.05,0.1 0.38,0.19 0.27,0.07 0.38,-0 0.56,0.11 0.26,0.16 0.07,0.14 0.2,0.33 0.2,0.28 -0.07,-0.02 0.29,0.13 0.38,0.16 0.21,0.35 0.85,0.36 0.08,-0.85 0.12,-1.03 -0.37,-1.75 -0.75,-1.09 -2.59,-0.93 -3.06,-0.66z"/>
   <path class="fil2" d="M8.12 37.88c0,0.15 0.03,0.17 0.08,0.32 0.55,0.18 1.58,0.35 2.2,0.35 -0.01,-0.45 -0.6,-1.4 -0.83,-1.87 -0.15,-0.31 -0.3,-0.61 -0.44,-0.87 -0.11,-0.2 -0.37,-0.68 -0.42,-0.89 -0.51,0.21 -0.59,2.42 -0.59,2.96z"/>
   <path class="fil2" d="M6.17 33.74c0,0.79 0.9,3.48 1.52,3.85 0,-3.21 1.3,-2.66 -0.55,-3.82 -1.06,-0.66 -0.98,-0.51 -0.98,-0.03z"/>
   <path class="fil4" d="M18.28 33.51c0.44,0 0.56,0.11 1.01,0.07 0.41,-0.04 0.21,-0.09 0.43,-0.09 0.27,-0 -0.01,0.07 0.42,0.1 0.1,-0.34 0.06,-0.19 0.27,-0.18 0.49,0.03 0.24,-0.19 0.74,0.1 0,-1.29 0.68,-0.39 0.68,-0.96 0,-0.79 0.07,-0.81 -0.68,-0.81 -0.93,0 -2.8,0.91 -2.88,1.78z"/>
   <path class="fil2" d="M13.45 38.76c0.85,0.02 0.97,0.18 0.85,-1.25 -0.45,-0.21 -0.9,-0.44 -1.53,-0.44l0.12 1.6c0.16,0.09 0.25,0.08 0.56,0.09z"/>
   <path class="fil2" d="M18.68 21.71c-0.04,0.6 -0.11,0.54 0.88,0.54 0.38,0 0.43,-0.45 0.52,-0.73 0.08,-0.24 0.27,-0.71 0.3,-0.95 -0.52,0.06 -0.76,0.91 -1.69,1.14z"/>
   <path class="fil2" d="M16.1 38.08l-1.12 -0.28c-0.3,0 -0.21,0.11 -0.19,0.37 0.02,0.29 -0.18,0.68 1.22,0.58 0.45,-0.03 0.46,-0.49 0.1,-0.67z"/>
   <path class="fil2" d="M18.16 38.66c-0.06,-0.04 -0.11,-0.05 -0.18,-0.08 -0.26,-0.1 -0.77,-0.26 -1.05,-0.26 -0.25,0 -0.27,0.36 0,0.45l1.38 0.02c-0.09,-0.1 -0.01,-0.05 -0.15,-0.13z"/>
   <path class="fil2" d="M15.77 22.21c0.06,-0.31 0.03,-0.6 -0.11,-0.84 -0.08,0.06 -0.24,-0.17 -0.11,0.45 0.04,0.17 0.01,0.21 0.13,0.34 0.01,0.01 0.03,0.02 0.03,0.02l0.06 0.03z"/>
   <path class="fil5" d="M71.24 9.71c0.05,-0.14 0.05,-0.42 0.07,-0.58 0.09,-0.52 0.28,-1 0.68,-1.4 0.01,-0.01 0.03,-0.03 0.04,-0.04l0.17 -0.16c0.37,-0.34 0.76,-0.67 1.07,-1.05 0.45,-0.55 0.8,-1.12 1.31,-1.65 0.04,-0.04 0.08,-0.08 0.12,-0.11l2.5 -1.96c0.03,-0.02 0.06,-0.04 0.09,-0.06 1.87,-1.22 4.77,-2.05 7.05,-1.4 1.19,0.34 2.61,1.19 3.61,1.85 0.62,0.41 1.06,0.86 1.53,1.39 0.85,0.96 1.51,1.85 2.14,2.94 1.4,2.45 1.98,3.09 0.93,5.86 -0.46,1.22 -0.19,2.68 -0.28,3.95 -0.2,2.78 -0.57,5.87 -3.77,7.28 -2.16,0.95 -7.34,1.14 -9.75,0.85 -1.78,-0.21 -3.01,-0.55 -4.33,-1.66 -0.03,-0.03 -0.06,-0.05 -0.09,-0.08l-1.79 -1.84c-0.04,-0.04 -0.07,-0.08 -0.1,-0.12 -0.9,-1.21 -1.58,-3.48 -1.53,-4.9 0,-2.26 0.25,-4.52 0.25,-6.78 0,-0.11 0.02,-0.22 0.06,-0.33zm3.79 2.33c-0.16,0.25 -0.38,0.46 -0.49,0.7 -0.12,0.25 -0.01,0.51 0.11,0.73 0.05,0.09 0.08,0.18 0.1,0.27 0.81,0.18 1.62,0.46 2.4,0.72 0.79,0.26 1.58,0.51 2.34,0.82 0.34,0.14 0.64,0.22 0.96,0.41 0.06,0.03 0.11,0.07 0.16,0.1 0.11,-0.22 0.31,-0.41 0.57,-0.53 0.06,-0.03 0.13,-0.06 0.2,-0.08 -0.01,-0.01 -0.03,-0.02 -0.04,-0.03 -0.39,0.2 -0.86,0.21 -1.26,0.03 -1.12,-0.52 -2.03,-1.31 -3.07,-1.93 -0.66,-0.39 -1.31,-0.82 -1.98,-1.21zm8.62 2.71c0.64,-0.05 1.29,-0.06 1.87,-0.11 0.01,-0 0.03,-0 0.06,-0l2.09 -0.09c0.19,-0.83 0.85,-1.19 0.88,-1.45 0,-0.01 -0,-0.02 -0,-0.03 -0.01,-0.1 -0.04,-0.22 -0.06,-0.32 -0.03,-0.16 -0.05,-0.32 -0.05,-0.47 -0.81,0.35 -1.67,0.78 -2.03,0.96l-2.75 1.52zm-6.36 6.12c0.67,-0.3 1.76,-1.07 2.36,-1.3 0.38,-0.14 0.76,-0.27 1.15,-0.41 -0.07,0 -0.15,0 -0.22,0.01 -0.21,0.01 -0.4,0.06 -0.64,0.06 -0.11,0 -0.22,-0.01 -0.33,-0.03l-2.74 0.1c-0.28,0.01 -0.55,0.01 -0.83,0.01 -0.06,0 -0.16,-0 -0.26,-0 0.16,0.19 0.41,0.41 0.51,0.49 0.35,0.3 0.66,0.63 0.94,0.98 0.02,0.03 0.04,0.06 0.07,0.08z"/>
   <path class="fil5" d="M71.93 9.89c0.06,-0.18 0.07,-0.48 0.1,-0.67 0.07,-0.4 0.2,-0.77 0.51,-1.08 0.01,-0.01 0.01,-0.01 0.02,-0.02l0.17 -0.16c0.39,-0.36 0.8,-0.72 1.14,-1.12 0.46,-0.57 0.73,-1.05 1.28,-1.61 0.02,-0.02 0.03,-0.03 0.05,-0.05l2.5 -1.96c0.01,-0.01 0.03,-0.02 0.04,-0.03 1.67,-1.09 4.34,-1.89 6.4,-1.31 1.06,0.3 2.5,1.16 3.41,1.76 0.58,0.38 0.95,0.77 1.39,1.27 0.88,0.99 1.42,1.71 2.06,2.84 1.33,2.32 1.88,2.78 0.89,5.38 -0.51,1.33 -0.22,2.74 -0.31,4.11 -0.18,2.52 -0.46,5.47 -3.37,6.75 -2.01,0.89 -7.08,1.05 -9.33,0.78 -1.64,-0.2 -2.73,-0.48 -3.93,-1.49 -0.01,-0.01 -0.03,-0.02 -0.04,-0.04l-1.79 -1.84c-0.02,-0.02 -0.03,-0.03 -0.04,-0.05 -0.82,-1.11 -1.46,-3.26 -1.41,-4.56 0,-2.26 0.25,-4.51 0.25,-6.78 0,-0.05 0.01,-0.09 0.02,-0.14zm2.14 1.01c0.02,0.01 0.03,0.02 0.05,0.03 0.02,0.01 0.04,0.03 0.06,0.04 0.02,0.01 0.03,0.02 0.04,0.03 0.05,0.03 0.11,0.08 0.15,0.13 0.13,0.14 0.16,0.32 0.09,0.49 -0.14,0.31 -0.44,0.56 -0.59,0.88 -0.2,0.43 -0.09,0.84 0.13,1.25 0.09,0.16 0.08,0.33 -0.03,0.48 -0,0 -0.01,0.01 -0.01,0.01 0.22,0.05 0.47,0.09 0.54,0.1 0.76,0.16 1.66,0.47 2.4,0.71 0.75,0.25 1.56,0.5 2.29,0.8 0.31,0.13 0.58,0.19 0.88,0.36 0.13,0.08 0.22,0.19 0.25,0.32 0.03,0.14 -0,0.27 -0.1,0.38l-0.18 0.21c-0,0 -0,0 -0,0 0.31,-0.04 0.59,-0.1 0.94,-0.15 0.24,-0.03 0.47,-0.02 0.69,-0.01 -0.2,-0.16 -0.35,-0.36 -0.42,-0.61 -0.06,-0.22 0.05,-0.45 0.28,-0.55 1.06,-0.49 2.85,-0.45 4.06,-0.55 0.01,-0 0.02,-0 0.03,-0l2.75 -0.12c-0.02,-0.05 -0.03,-0.1 -0.03,-0.15 0,-1.04 0.86,-1.22 0.93,-1.84 0.01,-0.05 0,-0.1 -0,-0.14 -0.04,-0.39 -0.3,-0.87 0.11,-1.19 0.36,-0.28 0.81,-0.1 1.16,0.09 0,-0.01 0,-0.01 0,-0.02 0.05,-0.45 -0.03,-0.87 -0.65,-0.8 -0.8,0.08 -3.13,1.21 -3.87,1.59l-3.58 1.98c-0.18,0.1 -0.39,0.1 -0.58,0.01 -0.18,-0.09 -0.28,-0.24 -0.29,-0.42 -0.1,0.08 -0.23,0.12 -0.35,0.12 -0.04,0.09 -0.12,0.17 -0.22,0.22 -0.18,0.1 -0.38,0.1 -0.56,0.02 -1.03,-0.48 -2.02,-1.31 -3,-1.89 -0.97,-0.58 -1.86,-1.2 -2.9,-1.69 -0.07,-0.03 -0.3,-0.13 -0.45,-0.13zm2.91 10.71c0.55,0.03 2.36,-1.24 2.94,-1.46 0.65,-0.25 1.32,-0.45 1.96,-0.71 0.59,-0.24 1.37,-0.75 1.97,-0.86 0.1,-0.02 0.19,-0.03 0.29,-0.05l-2.95 0c-0.22,0 -0.44,0 -0.66,0.01 -0.22,0.01 -0.38,0.06 -0.61,0.06 -0.09,0 -0.17,-0.01 -0.25,-0.03 -0.01,0 -0.01,0 -0.02,0l-2.84 0.11c-0.27,0.01 -0.53,0.01 -0.8,0.01 -0.37,0 -1.12,-0.06 -1.12,0.38 0,0.43 0.55,0.91 0.87,1.19 0.32,0.27 0.6,0.58 0.86,0.9 0.12,0.14 0.23,0.32 0.35,0.46zm11.01 -3.02c0.16,0.07 0.36,0.13 0.48,0.13 0.04,0 0.12,0 0.22,0 -0.2,-0.06 -0.44,-0.1 -0.7,-0.13z"/>
   <path class="fil6" d="M72.47 10.03c0,2.52 -0.25,4.27 -0.25,6.78 -0.04,1.1 0.51,3.19 1.32,4.29l1.79 1.84c1,0.84 1.88,1.15 3.61,1.36 1.91,0.23 7.02,0.14 9,-0.74 2.63,-1.16 2.89,-3.91 3.06,-6.34 0.12,-1.64 -0.22,-2.76 0.34,-4.23 0.91,-2.39 0.47,-2.68 -0.86,-5.01 -0.73,-1.28 -1.07,-1.7 -2,-2.76 -0.42,-0.47 -0.72,-0.81 -1.28,-1.18 -0.84,-0.55 -2.31,-1.42 -3.24,-1.68 -1.89,-0.54 -4.39,0.26 -5.89,1.23l-2.5 1.96c-0.74,0.76 -0.69,0.9 -1.25,1.58 -0.35,0.43 -0.8,0.83 -1.19,1.18l-0.16 0.15c-0.48,0.49 -0.36,1.18 -0.49,1.57z"/>
   <path class="fil7" d="M81.74 10.89c-0.48,0.02 -0.38,1.03 -0.38,1.37 0,0.3 0,0.6 0,0.89 0,0.28 0.03,0.51 -0.17,0.74 -0.51,-0.3 -1.01,-1.56 -1.67,-1.54 -0.01,0.55 1.15,1.33 1.16,1.83 -0.76,-0.35 -2.19,-1.41 -2.95,-1.86 -1,-0.59 -1.81,-1.18 -2.95,-1.72 -0.36,-0.17 -0.91,-0.33 -1.24,0.01 -0.14,0.14 -0.18,0.36 -0.05,0.52 0.12,0.16 0.03,0.03 0.3,0.2 0.01,0.01 0.04,0.03 0.05,0.03 0.01,0.01 0.04,0.05 0.05,0.04 0.01,-0.01 0.03,0.02 0.05,0.04 -0.18,0.41 -1.24,1.08 -0.44,2.52l-0.51 0c-0.07,0.62 0.72,0.72 1.39,0.86 0.76,0.16 3.8,1.16 4.58,1.48 0.32,0.13 0.53,0.17 0.81,0.33l-0.18 0.22c-0.3,0.3 -0.39,0.41 -0.07,0.82 0.72,0 0.92,-0.1 1.56,-0.19 0.65,-0.09 1,0.12 1.62,0.01 0.29,-0.66 -0.72,-0.6 -0.89,-1.22 0.9,-0.42 2.51,-0.39 3.85,-0.5l3.94 -0.17c-0.04,-0.4 -0.31,-0.52 -0.68,-0.59 0,-0.85 0.83,-0.97 0.93,-1.79 0.07,-0.62 -0.53,-1.4 0.47,-0.84 0.49,0.27 0.75,0.04 0.8,-0.42 0.08,-0.67 -0.18,-1.46 -1.28,-1.34 -0.87,0.09 -3.27,1.23 -4.11,1.67l-3.58 1.98c0.01,-0.39 -0.04,-0.17 0.14,-0.4 0.07,-0.09 0.18,-0.21 0.26,-0.29 0.28,-0.27 1.31,-1.09 1.44,-1.34 0.21,-0.39 0.05,-0.19 -0.03,-0.27 -0.22,-0.17 -1.27,1.02 -1.5,1.24 -0.18,0.17 -0.29,0.32 -0.57,0.39 -0.2,-0.36 0.14,-1.84 -0,-2.44 -0.07,-0.28 0.09,-0.08 -0.13,-0.26zm-7.49 -2.04c0,0.45 0.9,0.85 0.59,-0.3l-0.51 -0.01c-0.05,0.21 -0.08,0.15 -0.08,0.31zm0.85 -0.89c0,0.27 0.13,0.36 0.25,0.52l0.42 0c0.36,-0.47 0.36,-0.57 0,-1.04l-0.51 0c-0.07,0.13 -0.17,0.33 -0.17,0.52zm1.69 0.81c0.93,0 0.81,-1.26 0.25,-1.26 -0.89,0 -0.78,1.26 -0.25,1.26zm-2.46 10.3c0,0.63 0.64,1.2 1.04,1.54 0.68,0.59 1.13,1.29 1.23,1.38 0.66,0.57 2.89,-1.13 3.55,-1.38 0.68,-0.26 1.32,-0.45 1.97,-0.72 0.5,-0.21 1.44,-0.75 1.85,-0.83 0.67,-0.12 1.74,-0.22 2.47,-0.29 0.61,-0.06 0.55,-0.12 1.03,0.14 0.22,0.12 0.67,0.31 1,0.31 0.79,0 1,0.08 1.27,-0.44 -0.64,-0.84 -3.02,-0.77 -4.48,-0.74l-4.07 0c-0.22,0 -0.47,0 -0.68,0.01 -0.37,0.01 -0.32,0.06 -0.59,0.06 -0.26,0 0.17,-0.05 -0.29,-0.03l-2.84 0.11c-1,0.05 -2.46,-0.17 -2.46,0.89z"/>
   <path class="fil2" d="M77.04 12.77c-0.37,-0.17 -0.45,-0.31 -0.78,-0.5 -1.28,-0.73 -2.04,-0.6 -2.24,0.89 -0.15,1.11 0.56,1.01 1.46,1.21 1.09,0.24 2.03,0.86 2.89,1.17 0.35,0.13 0.63,0.38 1.02,0.17 0.91,-0.49 0.54,-1.59 -0.34,-0.9 -0.25,0.2 -0.53,0.49 -0.92,0.36 -0.26,-0.09 -0.59,-0.41 -0.77,-0.59 -1.02,-1.06 -0.31,-0.77 -0.31,-1.81z"/>
   <path class="fil2" d="M86.27 13.37c0,1.04 -0.02,1.44 -1.56,1.52 -0.49,0.03 0.02,-0.04 -0.39,-0.04 -0.33,0 -0.2,0.2 -0.63,-0.04 -0.21,-0.12 -0.24,-0.25 -0.49,-0.2 -0.76,0.14 -1.62,1.4 -0.05,0.92 0.34,-0.11 0.65,-0.21 1.03,-0.29 3.42,-0.65 3.29,0.78 4.59,-1.54 0.5,-0.9 0.54,-1.98 -1.02,-1.12 -0.53,0.29 -1,0.5 -1.48,0.78z"/>
   <path class="fil2" d="M75.43 19.37c0,0.15 0.29,0.4 0.39,0.47 0.18,0.13 0.38,0.19 0.71,0.19 0.03,-0.13 0.03,-0.14 0.05,-0.22l0.04 -0.15c0.87,0.02 0.81,0.53 1.35,-0.37 0.32,0.19 0.3,0.22 0.85,0.22 -0.03,0.37 -0.25,0.47 -0.65,0.54 -0.72,0.13 -0.39,0.14 -0.87,0.42 -0.25,-0.12 -0.28,-0.2 -0.59,-0.22 -0.25,0.91 0.33,1 1.19,0.44 0.97,-0.64 1.89,-0.96 3.14,-1.32l1.32 -0.4c0.24,-0.12 0.21,-0.1 0.25,-0.25l-5.82 0.27c-0.45,0.01 -1.35,0.01 -1.35,0.37z"/>
   <path class="fil2" d="M78.31 13.96c0,0.13 0.11,0.28 0.17,0.37l0.42 0c0.06,-0.24 0.14,-0.46 -0.51,-0.59 -0.03,0.09 -0.08,0.2 -0.08,0.22z"/>
   <path class="fil2" d="M84.79 13.89c-0.09,0.05 -0.32,0.08 -0.28,0.29 0.02,0.15 0.2,0.15 0.4,0.07 0.3,-0.13 0.37,-0.62 -0.11,-0.37z"/>
   <path class="fil5" d="M49.77 24.48c-0.12,0.32 -0.3,0.62 -0.53,0.91 -0.83,1.04 -1.89,1.58 -3.29,1.83 -0.75,0.13 -2.01,0.18 -2.65,0.48 -0.14,0.06 -0.29,0.06 -0.43,-0.01 -0.13,-0.07 -0.21,-0.19 -0.21,-0.32 0,-0.06 0,-0.19 -0.01,-0.27 -0.17,-0.1 -0.27,-0.14 -0.45,-0.29 -0.67,-0.59 -0.62,-1.42 -0.47,-2.17 0.03,-0.13 0.12,-0.23 0.26,-0.28 0.14,-0.05 0.28,-0.04 0.41,0.03 0.36,0.21 0.48,0.56 0.82,0.66 0.23,-0.65 0.6,-2.19 0.69,-2.85 -0.39,0.01 -0.77,0.03 -1.16,0.07 -0.3,0.03 -0.65,0.07 -0.91,-0.12 -0.33,-0.24 -0.29,-0.73 -0.29,-1.07 0,-0.13 0.03,-0.27 0.1,-0.39 0.53,-1 2.9,-0.8 3.9,-0.66 0.88,0.12 2.02,0.38 2.77,0.81 0.6,0.34 1.03,0.79 1.3,1.28 0.12,-0.37 0.31,-0.71 0.59,-1.03 0.32,-0.36 0.69,-0.59 1.02,-0.91 0.08,-0.07 0.17,-0.11 0.28,-0.12 0.47,-0.04 0.63,0.04 1.03,0.17 0.09,0.03 0.16,0.08 0.21,0.15 0.05,0.06 0.1,0.13 0.14,0.2 0.86,0.05 1.17,0.2 1.64,0.94 0.4,0.64 0.37,1.3 0.11,1.97 -0.32,0.84 -0.98,1.72 -1.89,2.09 1.53,0.44 1.18,1.97 0.06,1.97 -0.84,0 -1.73,0.04 -2.56,0.19 -0.31,0.06 -0.79,0.21 -1.08,0.21 -1.38,0 -1.38,-2.5 1.44,-2.5l0.08 0c-0.42,-0.23 -0.73,-0.56 -0.94,-0.95zm2.15 -0.92c0.59,-0.3 1.25,-1.36 0.81,-1.94 -0.34,0.24 -0.48,0.28 -0.78,0.86 -0.17,0.34 -0.2,0.75 -0.03,1.09zm-6.63 1.61c0.44,-0.06 0.91,-0.19 1.27,-0.32 0.45,-0.16 1.43,-0.57 1.51,-1.05 0.07,-0.36 -0.48,-0.73 -0.77,-0.9 -0.16,-0.09 -0.85,-0.48 -1.08,-0.48 -0.07,0.09 -0.17,0.49 -0.2,0.58 -0.15,0.45 -0.57,1.51 -0.74,2.17z"/>
   <path class="fil6" d="M44.78 25.59c0,-0.43 0.63,-2.08 0.82,-2.69 0.23,-0.71 0.19,-1.33 1.93,-0.31 2.82,1.65 -1.27,3 -2.75,3zm4.4 1.96c0.4,0 1.02,-0.41 3.64,-0.41 0.74,0 0.96,-1.33 -1.02,-1.33l-1.19 0c-2.23,0 -2.21,1.74 -1.44,1.74zm2.54 -3.54c-0.39,-0.44 -0.48,-1.1 -0.17,-1.69 0.43,-0.84 0.64,-0.75 1.19,-1.21 1.36,0.8 -0.02,2.8 -1.02,2.91zm0.68 -3.44c-0.29,-0.09 -0.43,-0.18 -0.85,-0.15 -0.56,0.54 -1.55,0.95 -1.66,2.6 -0.17,2.59 3.14,3.43 4.34,0.32 0.24,-0.63 0.24,-1.16 -0.08,-1.67 -0.39,-0.62 -0.54,-0.71 -1.51,-0.75 -0.07,-0.1 -0.16,-0.23 -0.25,-0.35zm-10.41 0.5c0,1.23 0.03,0.74 2.12,0.74 0.14,0 0.25,0.04 0.25,0.15 0,0.51 -0.65,3.11 -0.85,3.48 -0.84,0.07 -0.92,-0.49 -1.35,-0.74 -0.12,0.61 -0.2,1.35 0.35,1.84 0.45,0.4 0.58,0.1 0.58,0.82 1.43,-0.66 4.02,0.02 5.79,-2.19 1.03,-1.28 0.9,-3.07 -0.79,-4.04 -1.56,-0.89 -6.1,-1.35 -6.1,-0.07z"/>
  </g>
 </g>
</svg>
