<?xml version="1.0" encoding="UTF-8"?>
<!DOCTYPE svg PUBLIC "-//W3C//DTD SVG 1.1//EN" "http://www.w3.org/Graphics/SVG/1.1/DTD/svg11.dtd">
<!-- Creator: CorelDRAW -->
<svg xmlns="http://www.w3.org/2000/svg" xml:space="preserve" width="54.5276mm" height="27.0553mm" version="1.1" style="shape-rendering:geometricPrecision; text-rendering:geometricPrecision; image-rendering:optimizeQuality; fill-rule:evenodd; clip-rule:evenodd"
viewBox="0 0 112.78 55.96"
 xmlns:xlink="http://www.w3.org/1999/xlink"
 xmlns:xodm="http://www.corel.com/coreldraw/odm/2003">
 <defs>
  <style type="text/css">
   <![CDATA[
    .fil16 {fill:#0F0F0F}
    .fil18 {fill:#0F100F}
    .fil25 {fill:#0F1512}
    .fil15 {fill:#101B16}
    .fil1 {fill:#111111}
    .fil27 {fill:#11231A}
    .fil9 {fill:#13120F}
    .fil6 {fill:#141512}
    .fil4 {fill:#161515}
    .fil24 {fill:#167646}
    .fil10 {fill:#167647}
    .fil3 {fill:#167A49}
    .fil7 {fill:#177D4A}
    .fil12 {fill:#182821}
    .fil8 {fill:#1B4A34}
    .fil29 {fill:#5FC3EA}
    .fil26 {fill:#9B9B9B}
    .fil28 {fill:#A89C5A}
    .fil20 {fill:#B2AA5D}
    .fil5 {fill:#B4AC5D}
    .fil21 {fill:#F4232D}
    .fil13 {fill:#FAFAFC}
    .fil23 {fill:#FBD885}
    .fil19 {fill:#FBE217}
    .fil22 {fill:#FDDA89}
    .fil14 {fill:#FDE416}
    .fil2 {fill:#FDE8B8}
    .fil0 {fill:#FDFDFD}
    .fil11 {fill:#FFB01D}
    .fil17 {fill:#FFDB87}
   ]]>
  </style>
 </defs>
 <g id="Camada_x0020_1">
  <metadata id="CorelCorpID_0Corel-Layer"/>
  <g id="_2066947728224">
   <path class="fil0" d="M16.62 51.68c1.39,1.87 -1.41,1.99 5.38,1.99 2.42,-0 4.71,0.07 7.07,0.13 2.32,0.06 2.8,-0.42 3.37,-0.36 0.61,0.06 0.92,0.49 3.24,0.47 2.24,-0.02 0.74,-0.4 3.4,0.01 1.94,0.3 4.33,-0.11 5.18,-0.07 0.55,0.02 0.99,0.19 1.57,0.21 2.26,0.08 13.03,0.04 14.06,0.28 0.92,0.21 1.05,0.95 2.37,1.16 2.5,0.39 4.44,0.12 6.81,0.37 2.33,0.25 4.66,-0.02 6.93,-0.33 3.58,-0.47 7.09,1.86 19.65,-1.26 1.11,-0.28 1.73,-0.51 2.94,-0.75 1.11,-0.22 2.2,-0.19 3.3,-0.37 0.87,-0.14 2.19,-0.56 3.09,-0.61 1.83,-0.12 3.86,0.81 6.35,-0.56 3.45,-1.9 -0.27,-5.83 -0.9,-6.89 -0.25,-0.42 -0.38,-0.69 -0.69,-1.15 -0.75,-1.1 -0.95,-6.41 -2.3,-10.45 -0.5,-1.5 -1.54,-4.41 -1.16,-6.09 0.74,-3.27 -0.97,-5 -1.73,-6.85 -0.6,-1.45 -2.28,-2.26 -1.22,-3.32 1.95,-1.96 2.31,-1.28 0.59,-4.2 -1.7,-2.87 -1.26,-3.54 -3.28,-3.95 -2.83,-0.57 -1.73,-0.15 -1.81,-1.57 -0.02,-0.38 -0.96,-1.78 -1.26,-2.26 -1.15,-1.86 -0.96,-3.42 -3.69,-3.7 -2.15,-0.22 -4.83,-0.28 -7.01,-0.15 -1.34,0.08 -2.18,0.43 -3.28,-0.16 -0.49,-0.26 -0.81,-0.3 -1.25,-0.59 -0.39,-0.25 -0.56,-0.53 -1.06,-0.64 -0.78,-0.17 -4.26,1.64 -5.02,2.11 -1.15,0.71 -1.29,0.6 -2.34,1.35 -3.22,2.29 -2.39,1.1 -3.57,3.8 -1.76,4.01 -1.05,2.85 -4.07,3.18 -0.94,0.1 -2.31,0.49 -3.11,0.16 -0.98,-0.4 -1.4,-1 -2.84,-0.45 -0.97,0.37 -1.88,0.67 -2.85,0.12 -0.07,-1.13 0.68,-1.78 -0.27,-2.77 -0.59,-0.61 -1.63,-0.84 -2.5,-0.51 -1.54,0.58 -2.44,3.78 -3.59,2.61 -0.65,-0.67 0.6,-1.3 -0.1,-2.51 -0.29,-0.5 -1.41,-0.98 -2.23,-0.92 -0.91,0.07 -1.6,0.54 -1.91,1.32 -0.92,2.35 -2.52,-0.49 -2.1,4.32 0.14,1.61 -0.19,1.57 -0.5,2.78 -0.26,1.02 -0.22,1.69 -1.37,1.79 -0.86,0.08 -1.99,0.1 -2.73,-0.31 -0.08,-1.13 1.39,-2.28 -0.14,-3.23 -0.97,-0.6 -2.26,-0.82 -3.26,-1.34 -0.21,-0.98 0.05,-1.56 -0.57,-2.2 -0.48,-0.48 -1.13,-0.62 -2.01,-0.78 -0.92,-0.17 -0.86,-0.53 -2.18,-0.6 -0.98,-0.05 -1.5,-0.33 -2.45,-0.34 -1.82,-0.02 -9.48,0.67 -10.45,0.24 -0.55,-0.56 -0.3,-1.17 -0.83,-1.8 -0.37,-0.43 -1.03,-0.75 -1.93,-0.71 -1.91,0.07 -1.98,1.67 -2.28,2.37 -0.77,1.84 -7.13,-0.4 -7.67,1.72 -0.87,3.37 5.67,1.34 6.45,2.21 0.25,0.49 -0.56,3.86 -0.82,4.34 -0.68,0.59 -7.91,-0.58 -9.06,0.6 -0.43,0.44 -0.49,0.76 -1.09,1.36 -0.98,0.96 -0.96,4.27 -1.16,6.06 -0.17,1.52 -0.14,3.01 -0.33,4.61 -0.39,3.14 0.81,2.68 4.28,2.6 0.79,-0.02 1.53,0.12 2.3,0.16 1.26,0.06 3.63,-0.47 4.47,0.28 0.36,0.69 -0.34,2.53 -0.35,3.51 -3.58,-0.14 -1.56,2.59 -1.83,3.07 -0.55,0.77 -2.09,0.35 -3.05,0.3 -1.05,-0.05 -2.17,-0.03 -3.23,-0.05 -0.96,-0.02 -2.23,-0.14 -2.65,0.68 -0.31,0.6 -0.39,2.22 -0.2,2.9 0.44,0.41 0.91,0.47 1.42,0.97 0.37,2.08 -1.03,6.82 -0.68,9.82 1.21,1.01 2.35,0.56 3.95,0.47 0.69,-0.04 1.38,0.26 2.3,0.26 0.8,-0 1.48,-0.14 2.27,-0.04 1.69,0.21 3.03,0.43 3.65,-0.9 0.35,-0.75 0.39,-0.84 1.33,-0.93 0.64,-0.07 1.68,-0.14 2.28,-0.01z"/>
   <path class="fil1" d="M63.01 52.97c0.26,-0.71 0.5,-0.73 0.75,-1.36l0.14 -1.22c0.08,-0.31 0.07,-0.2 0.21,-0.39 0.49,0.62 -0.02,0.42 0.15,1.68 0.24,0.34 0.73,1.14 0.68,1.73 0.7,0.15 1.44,0.09 1.94,0.35 -1.26,0.6 -3.38,0.75 -4.56,-0.16 0.22,-0.25 0.48,-0.45 0.7,-0.64zm7.27 -8.58c-0.2,1.88 -0.39,6.64 -1.23,7.86 -0.38,0.56 -0.42,0.81 -1.26,0.89 -0.56,0.05 -1.71,0.11 -2.18,-0.12 -0.49,-0.24 -0.62,-0.89 -0.77,-1.54 -0.25,-1.16 -0.21,-0.96 0.04,-1.98 0.56,-2.31 -0.02,-8.62 2.44,-8.89 0.5,-0.05 1.81,-0.04 2.22,0.17 1.14,0.59 0.88,2.26 0.74,3.6zm17.95 -3.23c0.88,-0.3 2.34,-0.97 3.34,-1.04 0.28,0.9 0.92,3.24 0.93,4.11 -0.94,0.57 -2.37,0.98 -3.65,0.92 -0.51,-0.82 -0.67,-2.84 -0.62,-3.99zm-47.74 0.22c1.31,-0.17 2.93,-0.61 3.95,-0.69 1.03,1.07 0.58,2.18 0.39,3.72 -0.18,1.47 -0.34,2.78 -0.45,4.25 -0.14,1.76 0.07,2.62 -0.93,3.64 -0.57,0.58 -0.94,0.45 -1.93,0.43 -0.72,-0.01 -1.54,0.1 -2.21,-0.14 -0.08,-0.47 0.99,-10.48 1.18,-11.21zm17.56 11.51c-0.26,-0.91 1.1,-10.53 1.22,-12.42 1,-0.01 2,0.03 2.99,0.05 2.9,0.06 1.79,2.89 1.43,6.66 -0.66,6.81 -0.49,6.51 -5.64,5.71zm12.81 -10.62l0.16 -1.54c1.73,-0.49 1.45,1.28 1.45,2.57 -0.01,3.93 0.01,5.4 -1.28,8.92 -0.29,0.79 -0.29,1.02 -1.28,0.93 -0.14,-2.74 1,-0.27 1.52,-4.88 0.26,-2.33 0.52,-3.23 0.16,-5.71l-0.71 -0.3zm-63.01 9.8c-0.61,0.13 -1.37,0.42 -1.45,-0.27l0.93 -9.78c0.17,-1.06 0.94,-2.16 1.91,-2.21 4.54,-0.24 3.35,2.39 3.08,4.72 -0.23,1.95 -0.24,6.07 -0.82,7.67l-1.35 0.06c-0.21,-3.72 1.03,-5.21 -0.45,-5.21 -2.66,0 -0.68,1.21 -1.86,5.01zm29.71 -11.62c1.64,-0.43 1.26,1.39 1.13,2.49 -0.16,1.29 -0.11,2.5 -0.24,3.75 -0.25,2.29 -0,5.73 -2.3,5.92 -1.72,0.14 -2.46,0.08 -2.86,-1.4 -0.23,-0.85 0.1,-2.7 0.21,-3.63 0.25,-2.27 0.39,-5.12 0.79,-7.26l1.44 0.01c0.01,1.62 -0.38,4.05 -0.57,5.68 -0.11,0.89 -0.21,1.85 -0.31,2.71 -0.12,1.14 -0.58,2.23 0.83,2.17 1.15,-0.04 1.02,-1.08 1.03,-2.07 0.01,-1.08 0.08,-1.89 0.19,-2.93 0.13,-1.21 0.36,-4.64 0.67,-5.47zm49.91 -0.22l-0.01 0.79c-0.85,0.14 -1.51,0.34 -2.27,0.52 -1.02,0.23 -1.41,-0.01 -1.27,-1.14 0.55,-0.32 2.34,-1.14 3.09,-1.1l0.46 0.93zm-85.78 1.13c-0.22,-0.52 -0.07,-1.04 0.01,-1.64 0.87,-0.09 1.76,-0.02 2.63,-0.01 0.46,0.01 0.93,0.01 1.39,0.01l0.97 0.14c0.11,-0.2 0.26,0.44 0.03,1.56 -0.69,0.14 -1.33,-0.05 -1.75,0.23 -0.56,0.73 -0.48,9.06 -1.26,10.45l-1.31 -0.09c-0.24,-1.88 1.05,-9.38 0.81,-10.51 -0.6,-0.05 -1.08,0.04 -1.52,-0.15zm72.1 -0.66c-1.66,-0.18 -2.09,-0.77 -1.99,-2.31l0.14 -0.52c0.37,0.11 1.05,0.71 1.3,1.07 0.32,0.46 0.53,1.24 0.54,1.76zm13.69 -0.47l-0.17 -1.41c0.66,-0.38 2.53,-1.63 2.96,-1.69 0.36,0.8 1.05,1.6 1.06,2.55 -0.98,0.34 -2.39,0.99 -3.48,1.06l-0.38 -0.52zm4.89 1.58c-0.17,-0.57 -0.51,-1.54 -0.53,-1.99 0.49,-0.36 1.07,-0.69 1.58,-1.02 0.49,-0.31 1.16,-0.75 1.61,-0.99l0.51 0.8c0.03,-0.85 -0.74,-1.28 0.59,-1.96 0.32,1.52 0.26,3.37 -0.39,4.77 -0.41,0.9 -1.95,2.59 -2.89,2.63 -0.14,-0.38 -0.27,-1.59 -0.47,-2.26zm-0.75 -2.6c-0.37,-0.42 -0.53,-0.92 -0.8,-1.41 -0.33,-0.6 -0.61,-0.83 -0.08,-1.35 1.04,-1 1.42,-1.68 2.48,-1.8 0.32,0.62 1.36,2 1.51,2.51 -0.35,0.62 -2.49,1.99 -3.12,2.04zm-36.22 -2.25c-0.55,0.16 -1.64,2.26 -2.81,1.45 -0.78,-0.54 -0.39,-2.83 0.13,-3.55 0.86,-1.18 2.62,-1.32 2.17,0.57 -0.43,1.83 -2.37,1.2 -1.85,2.5 0.77,0.03 1.28,-0.76 1.72,-1.18 0.94,-0.89 0.42,-0.93 1.04,-1.94l1.16 0.04 -0.62 2.55c0.57,-0.12 2.29,-1.19 2.59,-1.55 0.41,-0.48 0.22,-0.81 0.72,-1.28 1.45,-1.37 2.48,0.95 1.19,2.11 -0.78,0.7 -1.52,0.24 -1.37,1.44 1.69,0.09 2.25,-2.54 3.63,-2.89 -0.22,1.01 -0.85,1.47 -1.47,2.09 -0.79,0.79 -0.52,1.31 -2.15,1.31 -0.72,-0.45 -0.61,-1.02 -0.62,-1.94 -1.3,0.08 -2.16,1.72 -3.43,2.18l-0.06 -1.91zm37.9 -2.56c0.26,-0.54 2.73,-2.11 3.11,-1.07 0,0 0.01,3 -1.41,3.38l-1.7 -2.31zm-66.99 -2.46c0.47,0.19 0.57,0.15 0.85,0.62 -0.42,0.38 -0.77,0.36 -1.35,0.38 0.15,-0.56 0.14,-0.66 0.51,-1zm-10.91 -1.34c0.69,0.27 0.38,0.37 1.37,0.39 5.24,0.12 3.66,0.02 4.39,-1.12l2.71 -0.06c0.94,1.27 -0.1,1.57 -0.65,3.05 -1.19,-0.28 -1.34,-0.61 -2.39,0.06 -0.77,0.49 -0.91,1.48 -1.34,1.74 -0,0 -5.23,0.7 -5.46,0.69 0.01,-0.65 1.04,-4.32 1.37,-4.75zm7.22 4.1c0.64,-0.69 0.5,-0.92 0.94,-1.65 0.32,-0.53 0.71,-1.01 1.03,-1.58 0.68,-1.22 0.84,-3.25 2.56,-1.92 -0.05,1.28 -1.29,1.8 -1.76,3.04 -0.46,1.22 -1.01,2.37 -1.41,3.45 1.07,-0.22 1.22,-0.74 1.67,-1.66 1.12,-2.3 3.18,-1.14 1.68,1.22 -0.73,1.15 -1.65,0.14 -1.27,1.53 0.88,0.1 1.87,-1.25 2.3,-1.89 0.24,-0.35 0.47,-1.73 2.69,-1.57 0.18,0.33 0.23,0.66 0.39,1.12 1.8,0.03 0.92,0.2 1.8,0.38 0.3,-0.4 0.31,-0.66 1.06,-0.62 -0.25,0.48 -0.62,0.72 -1,1.18 -0.52,0.64 -0.29,0.89 -1.16,1.03 -0.44,-0.33 -0.2,-0.43 -0.46,-0.82 -0.79,0.38 -0.55,0.58 -1.4,0.82l0.01 -1.76c-0.98,0.54 -1.42,1.97 -2.15,2.41 -0.38,-0.2 -0.33,-0.35 -0.61,-0.5 -0.56,0.52 -0.8,1.04 -1.95,0.67 -0.24,-0.38 -0.22,-0.9 -0.4,-1.42 -0.74,0.15 -1.13,0.9 -1.99,1.03l0.41 -2.54c-0.34,0.18 -0.3,0.1 -0.66,0.71 -0.92,1.58 -0.66,1.22 -2.28,1.29l0.81 -2.2 1.14 0.25zm-15.04 -4.9c0.82,-0.49 8.06,-0.77 9.51,-0.82 1.52,-0.06 3.16,-0.27 4.63,-0.43 3.22,-0.34 3.96,-0.76 4.09,0.58 -3.18,0.56 -7.51,0.15 -11.01,0.66 -0.14,1.81 -1.12,4.58 -1.62,6.24 1.93,-0.27 3.55,-0.6 5.41,-0.87 1.5,-0.21 1.38,0.07 1.97,-1.11 0.38,-0.76 0.87,-1.31 1.99,-0.99 0.01,0.73 -0.05,0.5 -0.59,0.84 -0.88,0.56 -1.32,1.71 -1.96,2.38 -0.81,-0.01 -6.53,0.15 -6.8,0.53l-0.33 0.62c-0.78,1.97 0.02,1.93 -0.86,2.39 -0.63,-0.92 0.52,-0.92 0.06,-3.01 -0.18,-0.02 -1.12,0.02 -1.22,-0.21 -0.03,-0.06 -0.09,-0.05 -0.13,-0.1l1.61 -0.34 1.14 -6.27 -5.44 0.14c-0.47,-0.09 -0.22,0.03 -0.45,-0.22zm94.18 -5c1.14,0.29 1.3,1.28 1.88,2.36 0.56,1.06 0.87,1.95 0.91,3.25 0.1,2.9 1.51,3.84 1.9,6.39 1.06,6.21 0.01,6.26 -0.07,8.88 0.72,-0.49 0.64,-1.21 1.17,-2.01 0.17,0.43 0.11,0.27 0.16,0.57 0.69,0.54 0.48,1.1 1.05,1.78 0.53,0.64 0.77,0.91 1.21,1.54 0.82,1.18 1.73,2.79 -0.21,3.41 -0.55,0.09 -1.14,0.12 -1.7,0.13 -0.26,0 -0.68,0.01 -0.93,-0.02 -0.58,-0.08 -0.41,-0 -0.73,-0.28 -1.75,0.16 -2.71,-1.63 -2.46,-3.39l-0.25 -0.52c-1.05,3.12 2.63,4.88 -4.85,4.79 0.85,-1.65 1.84,-1.33 2.15,-4.4 -0.13,-0.51 -0.04,-0.01 -0.2,0.39 -0.12,0.3 -0.21,0.44 -0.36,0.76 -1.67,3.51 -6.04,4.96 -9.82,5.29 -3.96,0.92 -10.16,1.04 -13.83,-0.91 -0.55,-0.29 -1.12,-0.72 -1.73,-1.03 -1.43,-0.71 -0.69,-0.86 -1.72,-1.13 0.6,1.57 2.53,2.21 2.98,3.02 -2.56,0.51 -4.92,1.52 -7.65,0.51 0.13,-0.46 0.24,-0.55 0.41,-0.83 0.69,0.11 0.27,0.53 2.13,0.26 0.59,-0.84 1.16,-2.49 1.33,-3.75 0.12,-0.89 0.35,-3.99 0.66,-4.53l1.89 0.38c-0.31,-0.83 -1.58,-0.59 -1.88,-1.14l-0.24 -2.23c0.66,0.17 0.81,0.41 1.08,0.2 -0.66,-0.45 -1.27,-0.82 -1.35,-1.69 1.08,0.16 0.92,0.46 1.61,0.63 0.26,0.06 1.5,0.22 1.71,0.22l0.47 -0.04c-1.78,-0.35 -2.47,-0.28 -2.66,-2.17 0.2,0.02 2.91,1 3.33,1.18 0.22,0.09 0.24,0.06 0.44,0.16 0.69,-0.45 2.19,0.15 2.67,0.4 0.03,-0.03 0.07,-0.07 0.09,-0.08l0.27 -0.22c0.37,-0.23 0.64,-0.18 1.13,-0.24 0.74,-0.09 1.07,-0.31 1.86,-0.09 0.52,1.36 0.05,1.13 -0.18,1.23 0.39,0.29 0.47,-0 0.63,0.78 0.1,0.45 -0.02,0.58 0.19,1 0.49,-0.5 0.09,-0.93 0.06,-1.59 1.04,-0.29 2.18,-0.63 3.32,-0.56 0.54,0.92 0.53,2.57 0.55,3.8 -4.54,-0.11 -3.57,-0.92 -7.57,-2.57 0,-0.32 0.04,-0.18 0.13,-0.38l0.16 -0.32c-0.43,-0.17 -0.15,0.07 -0.49,-0.31 -0.03,0.02 -0.07,0.06 -0.08,0.07 -0.02,0.01 -0.06,0.05 -0.08,0.07l-0.49 0.27c-0.41,0.09 -1.81,0.15 -2.18,-0.69 -0.33,0.42 -0.27,0.43 -0.09,0.8l0.1 0.19 -2.67 0.68 -0.79 0.39c0.63,0.26 3.36,-0.53 4.58,-0.51 1.03,0.02 1.52,0.24 2.24,0.62 0.6,0.32 1.44,0.69 1.82,0.95 1.12,0.78 2.22,1.32 4,1.5 1.61,0.17 3.64,0.07 4.88,-0.47 7.5,-3.27 4.74,-7.74 5.39,-10.93 0.43,-2.14 1.81,-1.71 2.88,-1.53l0.42 -0.02c-2.38,-1.86 -3.13,-1.9 -5.47,-0.45 -2.56,1.59 -1.46,1.32 -2.96,2.25 -0.48,0.3 -0.29,0.19 -0.64,0.59 -0.59,0.67 -3.12,2.51 -3.82,2.94 -2.15,1.31 -5.83,2.21 -8.57,2.1 -4.22,-0.17 -6.33,-3.19 -7.06,-3.6l0.12 -0.22c0.01,-0.03 0.08,-0.17 0.09,-0.2 0.17,-0.86 -2.45,-0.87 -3.12,0.16 0.81,0 1.08,-0.22 1.92,0.05 0.26,0.73 -0.05,1.29 0.44,3.44 -0.03,0.03 -0.09,0.02 -0.11,0.07 -0.02,0.05 -0.08,0.06 -0.11,0.07l-0.62 0.47c-0.85,-0.38 -3.71,-1.01 -4.71,0.37 -1.48,2.04 -0.28,4.39 -1.13,4.98 -0.32,-0.67 0.08,-2.25 0.17,-3.04 0.28,-2.36 -1.55,-1.68 -0.07,-6.21 0.54,-1.65 0.15,-1.3 1.14,-2.54 2.26,-2.82 6.78,-4.13 8.12,-6.48 -0.42,0.17 -0.92,0.55 -1.21,0.79 -0.66,0.55 -0.66,0.42 -1.35,0.8 -1.03,0.56 -1.67,1.14 -2.88,1.56 0.29,-0.71 0.63,-0.84 0.81,-1.61 0.48,-2.07 -1.12,-1.92 6.02,-4 1.41,-0.41 0.69,-0.46 3,-0.85 1.15,-0.2 2.5,-0.2 3.76,-0.22 4.11,-0.07 4.85,0.17 8.34,1.34 0.52,0.18 0.87,0.4 1.43,0.61 2.16,0.82 2.65,0.33 2.97,1.05 0.03,-0.03 0.06,-0.14 0.07,-0.11 0.15,0.32 -0.34,-0.31 1.26,-0.95 0.68,-0.27 1.08,-0.56 1.79,-0.7 1.06,-0.21 2.72,-1.02 3.82,-0.68zm-41.2 1.44c1.52,-0.75 1.62,0.88 1.9,-2.09 0.48,0.2 0.63,0.7 0.79,1.28 -0.95,0.36 -0.7,0.28 -1.09,2.72 -0.41,0.09 -1.6,0.17 -1.75,-0.17l-0.1 -0.21c-0.01,-0.03 -0.02,-0.08 -0.03,-0.12 -0.01,-0.03 0.01,-0.48 0.02,-0.52 0.06,-0.53 0.03,-0.54 0.25,-0.89zm-46.54 2.53c-0.72,-0.2 -0.49,-0.13 -0.25,-2.19l0.37 -4.81c0.22,-1.98 0.05,-1.71 0.96,-1.64 0.2,0.83 -0.43,5.38 -0.59,6.77 -0.04,0.35 -0.06,0.8 -0.11,1.13 -0.11,0.7 0.03,0.49 -0.38,0.74zm47.11 -7.93c0.04,-0.02 0.09,-0.04 0.13,-0.05 0.32,-0.09 0.45,-0.21 1.82,-0.05l-0.36 2.86c-0.46,-0.08 -0.64,-0.38 -1.9,-0.81l0.31 -1.96zm-10.94 -0.25l2.07 0.04c0.1,0.35 -0.51,7.11 -0.6,7.3 -0.26,0.3 -1.65,0.12 -1.97,0.03l0.02 -1.51c0.19,-0.89 1.01,-0.19 1.65,-0.63 0.52,-0.46 0.47,-1.66 0.31,-2.48 -0.6,-0.45 -0.81,-0.42 -1.68,-0.65l0.21 -2.09zm-40.93 8.48c-0.46,-0.74 0.15,-3.65 0.26,-4.69 0.09,-0.8 0.17,-1.56 0.25,-2.36 0.25,-2.27 0.04,-1.88 0.71,-1.91 0.4,0.68 -0.19,3.66 -0.27,4.63 -0.08,0.86 -0.02,1.65 -0.12,2.52 -0.24,2.03 0.02,1.83 -0.83,1.81zm57.36 -3.47c-1.5,-0.56 -3.72,0.96 -3.33,-2.89 0.53,-5.25 0.61,-2.66 1.66,-4.8 0.83,-0.01 1.74,-0.04 2.56,-0.02 1.04,0.03 1.03,0.16 1.45,0.9 0.57,1.02 0.33,2.92 0.03,4.04 -0.63,0.16 -1.53,0.15 -2.03,-0.03 -0.02,-0.04 -0.03,-0.1 -0.04,-0.13l-0.07 -0.4c-0.01,-0.16 0.02,-0.26 0.03,-0.4 0.21,-1.63 0.54,-1.97 -1.08,-1.75 -0.21,0.74 -0.44,2.43 -0.28,3.21 0.72,0.14 1.72,-0.06 2.31,0.26 1.65,0.89 0.77,5.23 0.52,5.68 -0.54,0.98 -1.12,1.62 -2.09,1.62 -2.13,0 -2.76,0.26 -3.32,-1.32 -0.28,-0.8 -0.07,-2.95 0.25,-3.71l1.82 0.11c0.33,1.64 -0.77,2.68 0.64,2.68 0.9,0 0.72,-0.34 0.82,-1.22 0.07,-0.64 0.2,-1.2 0.14,-1.83zm-64.77 4.41c-0.13,-1.54 0.57,-5.86 0.76,-7.65 0.12,-1.15 -0.14,-2.76 0.44,-3.69 0.19,-0.3 0.81,-0.94 1.05,-1.1 0.54,-0.36 1.01,-0.26 1.78,-0.26 3.42,-0 3.37,0.96 2.93,4.5l-0.66 7.21c-0.64,0.25 -0.66,-0.08 -1.16,0.51 -0.43,0.51 -0.09,0.67 -1.1,0.46l0.42 -5.01 -1.71 -0.02c-0.15,1.08 -0.44,4.34 -0.79,5.15l-1.97 -0.1zm56.74 -11.42c0.97,0.23 1.08,0.83 2.17,-0.15 0.88,-0.8 1.13,-0.54 2.57,-0.52l-0.21 1.98c-1.04,0.4 -2.52,-0.19 -2.94,0.27 -0.29,0.43 -0.39,2.45 -0.3,3.12l1.55 0.14c0.21,0.52 0.06,1.39 -0.11,1.97l-1.86 0.12 -0.15 2.96c1.68,0.44 4.05,-0.59 2.77,2.31 -0.85,0.11 -3.95,0.17 -4.41,-0.25 -0.94,-0.87 -0.48,-2.48 -0.34,-3.83 0.15,-1.5 0.17,-2.94 0.32,-4.45 0.14,-1.37 0.08,-2.86 0.94,-3.68zm32.71 2.39l1.41 -0.18 0.87 -0.19 1.49 -0.54c0.17,-0.14 0.04,-0.11 0.43,-0.24 0.23,-0.08 0.29,-0.06 0.52,-0.1 2.14,-0.41 4.09,-2 5.88,0.1l1.59 2.86c0.35,0.84 1.09,2.44 0.98,3.38 -2.68,-3.51 -3.66,-2.58 -7.79,-1.02 -2.04,0.77 -2.74,0.78 -4.97,0.31 -0.55,-0.12 -3.8,-1.17 -4.18,-1.66 -1.53,-0.13 -3.14,-1.24 -4.6,-1.82l-0.48 0c0.61,0.36 1.89,1.03 2.31,1.67l-3.37 -0.01c-2.65,0.01 -4.06,0.21 -6.31,0.97l-5.35 1.79c-0.1,-0.65 0.05,-1.01 -0.29,-1.54 -0.34,-0.52 -0.48,-0.4 -0.66,-1.18 0.74,-0 0.87,0.1 1.24,-0.42l0.04 -0.71 0.35 -2.44c1.27,-0.26 3.33,-0.33 4.65,-0.22l-0.55 0.44c-0.38,0.25 -0.19,0.18 -0.58,0.29 -0.15,0.25 -0.17,0.25 -0.37,0.57l0.32 0.04c0.9,-0.29 1.8,-0.89 3.12,-1.18 1.34,-0.29 2.75,-0.21 4.16,-0.19 2.82,0.03 5.65,-0 8.47,-0.01l5.06 -0.15c0.02,-0.03 0.07,0.03 0.1,0.06 -0.24,0.1 -3.89,0.82 -3.51,1.32zm-34.78 9.59c-0.52,0.36 -4.09,0.33 -4.4,-0.11 -0.42,-0.6 1.07,-10.6 1.16,-12.57l2.15 0.03 -1.04 10.55 2.28 0.1 -0.16 1.98zm-32.61 -2.83c-0.16,-1 0.55,-5.49 0.68,-6.85 0.11,-1.18 0.33,-2.17 1,-2.89 0.82,-0.87 5.15,-0.96 4.94,1.6l-0.97 8.69c-0.12,0.88 -0.2,0.68 -0.61,1.2 0.07,0.17 0.83,0.54 0.14,2.31 -0.84,0.31 -1.64,0.14 -2.3,-0.15 0.07,-0.7 0.8,-1.08 0.77,-2.36 -0.46,-0.32 -1.05,-0.46 -1.18,-1.08l0.97 -0.12 0.92 -8.35 -1.35 0.09 -0.93 7.95 -2.07 -0.05zm22.48 1.34c-0.24,-0.73 0.59,-6.98 0.73,-8.25 0.1,-0.98 0.4,-2.93 1.63,-3.04 2.48,-0.22 2.54,0.44 2.85,0.58l0.67 0.15 0.13 1.23c-0.76,0.3 -1.9,-0.02 -2.92,0.16 -0.18,0.61 -0.36,2.68 -0.26,3.26 0.45,0.02 2.55,-0.48 1.39,2.18 -1.9,0.26 -1.73,-0.45 -1.93,1.64 -0.05,0.52 -0.12,0.86 -0.06,1.46l3.11 0.13 -0.26 1.14c-0.8,-0.09 -1.34,-0.51 -2.24,-0.59 -0.91,-0.08 -1.9,0.02 -2.83,-0.05zm-3.9 -0.56c0.64,1.07 -0.85,1.18 -1.7,1.42 -3.63,1 -3.67,0.87 -3.01,-4.96 0.2,-1.73 0.29,-4.38 0.71,-5.88 0.3,-1.09 0.68,-1.37 1.96,-1.37 0.94,0.01 2.38,-0.07 3.31,0.09l-0.22 1.88 -3.13 0.05 -0.13 3.29c0.56,0.03 1.24,0.04 1.63,0.22 0.35,2.35 -0.77,1.99 -1.13,2.03 -0.22,0.02 -0.22,0.01 -0.44,0.06 -0.82,0.2 -0.76,2.31 -0.63,3.02 0.86,0.01 2.23,-0.09 2.79,0.15zm-10.98 1.9c-0.6,-1.08 -0.94,-1.69 -0.75,-3.24l0.71 -7.58c0.23,-2 -0.03,-1.92 2.27,-1.96 0.34,2.86 -1.3,7.79 -0.79,10.58 1.62,0.04 1.31,0.06 1.46,-1.65 0.09,-0.97 0.26,-1.98 0.3,-2.93 0.08,-1.97 0.2,-3.89 0.53,-5.82 0.68,-0.12 1.43,-0.17 2.09,0.01l-0.7 8.52c-0.32,2.77 0.03,2.23 -1.13,3.43 -0.56,0.58 -0.51,0.71 -1.66,0.7 -0.77,-0.01 -1.58,-0.02 -2.35,-0.05zm-16.56 -1.81c-0.04,-2.42 0.63,-5.52 0.8,-8.03 0.1,-1.39 0.03,-2.55 1.26,-3.01 0.77,-0.29 3.49,-0.21 4.15,0.01 0.18,0.47 0.09,1.46 -0.16,1.99 -0.9,0.18 -1.84,-0.02 -2.38,0.03l-0.54 0.15c-0.02,-0.04 -0.08,0.04 -0.19,0.06l-0.01 3.02c0.71,0.01 1.43,-0.17 1.61,0.39 0.14,0.43 -0.09,1.37 -0.26,1.64 -0.47,0.35 -0.27,0.14 -0.91,0.18 -0.22,0.01 -0.19,-0.01 -0.43,0.03 -0.8,0.15 -0.72,2.17 -0.66,2.94l1.83 0.2 -4.11 0.4zm29.61 -6.87c1.14,-1.34 1.48,-3.4 1.96,-4 0.67,0.02 0.8,0.28 0.91,0.38 -0.7,1.11 -0.67,0.83 -0.84,2.45 -0.93,9.25 0.21,8.48 -2.76,8.7 -0.54,-0.61 -0.02,-0.84 -1.2,-1.19 -1.37,-0.41 -1.94,0.31 -2.04,-0.75l0.15 -1.41c1.59,-0.14 2.12,0.28 2,-2.61 -0.76,-0.65 -0.43,-0.34 -1.5,-0.75 -0.15,-0.62 -0.14,-1.48 0.13,-2.05l1.68 -0.06c0.45,0.83 0.19,1.3 1.5,1.26zm-29.03 -2.23c-2.42,0.76 -1.48,-1.07 -1.06,-2.16 0.81,-0.01 1.33,-0.17 1.36,0.59 0.02,0.49 -0.1,1.21 -0.3,1.57zm39.96 8.6c-0.51,-2.76 1.31,-8.53 0.48,-10.46 0.77,0 1.66,0.21 2.14,0.63 -1.32,2.02 -0.71,7.6 -1.52,9.84l-1.1 -0.01zm-46.03 -8.66c-0.22,-0.67 -0.06,-1.47 0.13,-2.08 0.91,-0.17 2.37,-0.18 3.14,0.06 0.11,0.91 -0.92,1.57 0.12,2.16l0.66 0.39c-0.21,1.76 -0.64,7.56 -1.11,8.88l-2.05 0.07c-0.03,-2.41 1.19,-7.46 0.9,-9.36l-1.79 -0.12zm20.73 -1.93c0.25,-0.39 0.68,-0.61 1.14,-0.78l-0.42 1.56 -0.72 -0.78zm47.89 -4.12c0.36,-0.39 0.39,-0.29 0.97,-0.09 0.5,0.17 2.75,1.82 3.22,2.19 0.46,0.36 0.96,0.47 1.35,0.8l-0.21 2.71c-0.68,0.24 -6.93,0.09 -8.39,-0.01 -1,-0.07 -1.85,0.05 -2.84,0.05 -2.88,0.13 -1.61,0.47 -3.01,-0.91 -0.22,-0.21 -0.55,-0.43 -0.75,-0.6 0.01,-1.87 1.21,-1.74 4.24,-2.69 1.01,-0.31 1.84,-0.47 2.83,-0.71 0.86,-0.21 1.64,-0.59 2.59,-0.74zm-14.42 4.42c0.1,-0.79 0.46,-0.54 1.09,-0.88 0.46,-0.25 0.54,-0.51 1.04,-0.75 0.33,0.27 0.69,0.88 0.81,1.38 -0.98,0.03 -2.32,0.39 -2.95,0.25zm-34.64 -0.77c-0.4,0.22 -0.9,0.26 -1.16,-0.15 0.26,-0.16 0.34,-0.24 0.75,-0.18 0.63,0.09 0.28,0.02 0.4,0.33zm-7.49 -0.15c1.38,-1.03 1.48,0.69 2.48,0.69 0.71,0 1.46,-1.35 2.55,-0.69 -0.34,0.37 -0.63,0.23 -1.09,0.69 -1.46,1.45 -1.25,1.9 -1.47,3.91 -0.21,1.93 -0.33,4.54 -0.7,6.36 -0.76,0.07 -1.84,0.31 -2.58,0.13 -1.06,-0.26 -1.37,-0.22 -2.49,-0.41 -0.14,-0.41 -0.19,-1.63 0.2,-1.8 0.03,-0.01 0.08,-0.05 0.11,-0.06 0.04,-0.01 0.08,-0.04 0.12,-0.05 0.05,-0.01 0.08,-0.02 0.13,-0.03 0.15,-0.03 0.28,-0.02 0.43,-0.04 0.98,-0.11 1.15,-0.51 1.09,-2.61 -0.7,-0.49 -0.73,-0.35 -1.65,-0.72 -0.05,-0.63 0.02,-1.54 0.26,-2.04 1.28,-0.13 2.64,0.37 3.01,-0.63 0.71,-1.92 -0.36,-1.98 -0.41,-2.71zm-3.6 0.07c0.1,-0.41 0.38,-0.58 0.68,-0.86 0.42,-0.39 0.35,-0.49 0.94,-0.59 0.24,0.5 0.05,0.55 0.46,0.92 0.41,0.37 0.41,0 0.59,0.59l-2.67 -0.06zm74.14 1.85l-4.92 0.24c0.22,-0.93 1.39,-1.93 2.01,-2.61 1.17,-1.27 5.15,-6.46 6.7,-6.62l0.52 -0.17c0.32,1.03 1.1,2.2 1.59,3.03 1.09,1.85 1.28,1.9 -0.37,4.82 -0.99,1.74 -2.63,0.92 -5.53,1.31zm-42.45 -1.42c0.33,-0.76 0.63,-0.92 1.25,-1.46 0.42,-0.36 0.76,-0.96 1.32,-1.18l-0.84 2.62 -1.74 0.02zm8.98 -3.42c0.15,-0.13 -0.06,-0.13 0.3,-0.17 0.41,-0.04 0.2,0.05 0.38,0.17 -0.02,0.01 0.15,0.65 -0.68,0zm7.84 1.23c0.16,-0.74 2.17,-1.79 2.52,-1.93 -0.16,0.99 -0.48,1.57 -0.85,2.43l-1.66 -0.5zm-3.25 -1.54c0.22,-0.17 -0.05,-0.1 0.46,-0.2 0.03,-0.01 0.41,-0.02 0.46,-0.03l3.14 -0.15 -0.74 0.77c-0.96,0.59 -2.61,0.02 -3.33,-0.4zm-4.2 -1.49c0.14,0.74 -0.13,0.83 -0.83,0.8 -0.22,-0.26 -0.16,-0.14 -0.31,-0.54 0.33,-0.47 0.5,-0.65 1.14,-0.26zm25.28 3.33c0.04,-0.42 0.1,-1.7 0.17,-1.94 0.2,-0.71 0.68,-0.48 0.89,-1.26 -0.58,0.24 -0.15,0.19 -0.87,0.37l0.16 -1.05 1.05 0.14c0.33,1.21 0.05,0.96 -0.43,1.68 0.78,-0.46 0.03,-0.54 1.02,-0.69l1.41 3.03c0.21,0.42 0.33,0.35 0.52,0.81 -0.52,0.87 -1.09,1.65 -1.8,2.46 -0.77,0.16 -1.75,0.11 -2.51,-0.08 0.01,-0.44 0.1,-0.31 0.16,-0.73 0.07,-0.54 -0.05,-0.28 -0,-0.83 0.04,-0.42 0.18,-1.27 0.24,-1.9zm-24.5 -2.92c1.34,-0.92 0.61,-0.74 1.1,-1.13 0.93,-0.74 0.88,0.32 1.09,0.74 1.54,0.08 4.28,-0.32 6.1,-0.48 1.7,-0.15 1.45,-0.06 1.64,0.52l-8.31 0.71c-0.25,0.38 -1.78,4.08 -1.67,4.92 1.94,0.02 1.35,-4 3.48,-3.67 0.96,0.15 0.54,0.9 0.42,1.64 1.39,-0.2 0.81,-1 1.67,-1.02 0.16,1.01 -1.16,1.36 -1.55,1.51 -1.45,0.57 -0.05,0.82 -2.37,0.86 -0.36,0.32 -0.57,0.62 -0.93,0.92 -1.57,1.3 -1.14,-0.85 -1.14,-2.04 -1.03,0.35 -0.84,1.09 -1.77,1.4 -0.4,-0.32 -0.23,-0.1 -0.46,-0.7 -0.62,-0.03 -0.67,0.11 -1.38,-0.15 -0.36,0.33 -1.04,1.27 -1.8,0.69 -0.38,-0.4 -0.24,-0.17 -0.15,-0.78 0.03,-0.23 0.12,-0.55 0.15,-0.78 0.1,-0.64 0.08,-1.04 0.42,-1.54l0.91 0.07c0,1.22 -0.78,1.25 -0.83,2.5 1.19,-0.51 0.81,-1.62 1.31,-2.04 0.37,-0.32 0.78,-0.07 0.86,0.31 0.06,0.32 -0.14,0.73 -0.15,1.12 0.92,0.1 0.86,-1.04 1.13,-1.88 0.67,-0.11 0.51,-0.1 1.07,0.13 -0.24,0.82 -0.48,0.81 -0.66,1.78 0.92,-0.24 1.07,-0.74 1.51,-1.53 0.55,-0.99 0.63,-0.99 0.35,-2.09zm-44.51 4.29c-0.02,-0.56 1.47,-5.42 1.78,-5.88 0.44,-0.65 2.46,-0.39 3.43,-0.4 1.2,-0.01 2.52,-0.08 3.71,-0.01 -0.05,0.64 -0.51,1.19 -0.81,1.62 -0.7,-0.02 -0.83,-0.32 -1.63,-0.09 -0.71,0.21 -0.47,0.53 -1.24,0.27 -1.17,-0.4 -0.79,-1.35 -2.49,-1.12 -0.28,0.27 -0.66,0.8 -0.9,1.18 -0.34,0.55 -0.73,3.36 -0.71,3.46 0.15,0.7 0.54,0.49 0.92,0.97 -0.8,0.57 -1.31,0.2 -2.06,-0.01zm85.04 -6.12c0.17,0.22 0.01,-0 0.15,0.32 0.75,1.77 1.78,2.44 2.26,4.27 -0.38,0.63 -0.49,0.52 -0.98,0.89 -0.34,0.26 -0.56,0.52 -0.82,0.88 -0.85,1.18 -1,0.64 -2.51,0.94 0.2,-1.58 0.2,-1.99 1.23,-2.66 -0.36,-1.48 -0.21,-0.49 0.29,-1.43 -0.28,-0.52 -0.47,-0.48 -1.24,-1.84 -0.09,-0.39 -0.57,-1 -0.76,-1.59l2.37 0.22zm-73.88 2.19c0.02,-0.26 0.63,-2.06 0.8,-2.39l3.16 0.07c-0.13,0.66 -0.55,1.24 -1.01,1.64 -0.54,0.02 -1.26,-0.17 -1.79,0.04 -0.7,0.28 -0.21,0.53 -1.16,0.64zm4.19 -1.43c0.6,-1.08 0.54,-2.43 2.14,-2.17 0.35,0.81 -0.01,1.13 -0.4,1.6 -0.91,1.09 -1.97,3.73 -2.04,4.56 2.05,-0.57 3.33,-6.97 4.6,-5.25 0.44,0.9 -1.49,2.46 -1.34,3.72l1.02 -0.63c0.62,0.64 0.5,0.51 0.19,1.37 1.27,-0.24 0.79,-2.18 2.68,-1.63 0.43,0.58 0.28,1.31 -0.2,1.99 -0.55,0.79 -1.29,0.38 -1.34,1.54 0.69,-0.13 1.45,-0.77 1.81,-1.22 1.02,-1.29 0.44,-1.5 1.41,-1.27 -0.43,0.94 -0.96,1.58 -1.8,2.26 -2.03,1.64 -1.99,-0.01 -2.29,-0.6 -0.77,0.29 -0.08,0.37 -0.88,0.54 -0.34,-0.46 -0.12,-0.63 -0.01,-1.32 -1.2,0.54 -1.29,2.14 -2.26,2.24 -0.15,-1.03 0.63,-2.32 0.39,-2.96 -0.73,0.35 -1.46,2.1 -2.9,2.26 -0.1,-1.11 0.12,-1.38 0.34,-2.33 -0.74,0.35 -0.73,1.14 -1.33,1.8l-2.01 0.23 -0.1 -0.96c-0.94,0.22 -0.25,0.53 -1.39,0.79 -1.04,0.24 -0.93,0.57 -1.48,0.58 -0.19,-1.07 0.47,-1.99 0.4,-3 -0.35,0.29 -1.16,1.74 -1.31,2.2 -2.12,0.07 -1.05,0.55 -2.31,0.25l0.07 -1.09c-0.91,-0.3 -1.1,-0.71 -1.89,-0.08 -0.89,0.7 -0.25,1.09 -1.46,1.11 -0.04,-0.42 0.29,-1.87 0.38,-2.53 0.1,-0.75 0.47,-1.44 0.81,-1.96l0.89 0.29c0.06,0.85 -0.76,1.23 -0.81,2.05 0.81,-0.37 1.33,-1.71 2.41,-0.87 -0.12,0.77 -0.42,0.55 -0.79,1.29 0.78,-0.08 0.82,-0.19 1.13,-0.79 0.95,-1.85 2.06,-1.1 1.87,-0.6 -0.11,0.27 -0.78,0.54 -1.09,0.72 0.29,0.27 0.57,0.4 1.04,0.46l2.26 -3.75 1.09 0.06c-0.09,1.04 -0.67,1.5 -0.81,2.46l0.84 0.47c0.26,0.26 0.15,0.33 0.47,0.7 0.78,-0.32 0.86,-2.18 2.41,-1.17 -0.23,0.74 -0.67,0.47 -1.19,1.07 0.39,0.27 0.52,0.28 1.11,0.26l1.67 -2.71zm16.58 -0.47c0.25,-0.61 0.51,-0.87 0.67,-1.61 0.64,-3.07 1.98,-1.96 1.74,-1.1 -0.05,0.18 -0.52,1.09 -0.7,1.48 -0.45,1.02 -0.9,1.97 -1.36,3.11 -0.38,0.96 -0.32,2.37 -0.15,3.47l0.06 0.25c0,-0.02 0.02,0.08 0.03,0.12 0.5,0.16 0.61,-0.27 1.22,-0.71 0.56,-0.41 0.69,-0.61 1.04,-1.1l2.23 -2.7c0.09,-0.11 0.13,-0.13 0.22,-0.24 0.25,-0.28 0.29,-0.35 0.49,-0.59 0.39,-0.48 0.56,-0.66 0.95,-1.2 1.13,-1.57 1.28,-2.06 2.5,-1.78 0.11,0.89 -1.6,4.04 -2.01,4.9 -0.39,0.82 -1.55,4.25 -2.14,4.55 -0.27,-0.33 -0.18,-0.53 0.23,-1.55l1.53 -4.65c-0.53,0.35 -1.07,1.01 -1.49,1.45l-1.58 1.5c-0.02,0.01 -2.71,2.95 -3.23,2.76 -0.71,-0.64 -0.35,-1.48 -0.68,-2.35 -0.51,0.23 -0.32,0.11 -0.77,1.39 -0.19,0.54 -0.41,1.05 -0.62,1.5 -0.25,0.53 -0.45,0.94 -0.7,1.46 -0.53,1.1 -0.32,1.12 -0.52,1.54 -0.55,-0.18 -0.17,-0.63 -0.01,-1.13 0.54,-1.72 0.61,-2.09 1.42,-3.96 0.3,-0.69 0.72,-1.98 0.8,-2.7 0.12,-1.06 -0.37,-2.28 0.01,-3.26 0.62,-0.01 0.54,0.22 0.76,0.92 0.01,0.03 0.04,0.14 0.04,0.11 0.01,-0.02 0.02,0.08 0.04,0.11zm25.2 3.19l-3.31 0.88c0.26,-1.83 1.31,-2.18 1.46,-2.57 0.51,-1.41 -0.85,-1.49 1.66,-2.17 0.98,-0.27 3.18,-1.56 5.44,-2.28 0.52,-0.31 1.31,-0.68 1.99,-0.74 -0.03,0.91 -0.39,1.52 -0.5,2.61 -0.07,0.78 -0.14,1.81 -0.35,2.54 -1.69,0.53 -5.01,1.65 -6.4,1.73zm-57.2 -4.89c1.1,-1.05 -0.08,-2.78 1.42,-2.68 1.44,0.1 0.08,1.76 -0.03,2.71 2.51,0 4.82,-0.06 7.31,-0.24 1.18,-0.09 2.35,-0.14 3.52,-0.17 1.34,-0.04 2.76,-0.32 3,0.55 -0.33,0.5 -0.55,0.4 -1.34,0.4 -2.06,0.01 -12.25,0.11 -12.61,0.28 -0.68,0.32 -2.53,8.27 -3.23,8.92 -0.7,-0.52 0.48,-2.17 0.75,-4.38 0.16,-1.33 1.04,-3.35 1.01,-4.55l-5.45 0.02c-0.57,0.01 -1.18,0.1 -1.54,-0.24 1.31,-0.64 6.08,0.05 7.19,-0.63zm65.38 -7.31c0.54,0.2 0.02,-0.01 0.35,0.17l0.88 0.51c0.9,0.44 1.64,1.08 2.83,1.78l0.54 0.4c-0.01,0.35 -0.1,0.78 -0.07,1.08l0.23 0.68c0.01,-0.02 0.05,0.08 0.08,0.12 0.67,-0.11 3.45,0.17 4.03,0.41 0.77,0.3 0.62,0.26 1.02,1.01 0.23,0.43 0.45,0.72 0.66,1.18 0.48,1.03 1.27,2.11 1.11,2.59l-1.8 2.05c-0.51,0.42 -0.55,0.39 -0.9,0.95 -0.33,0.52 -0.41,0.71 -0.85,0.99l-1.55 -1.98c-0.28,-0.46 -0.76,-2.06 -0.48,-2.66 0.26,-0.55 1.83,-2.26 2.41,-2.82 0.18,-0.17 0.31,-0.24 0.41,-0.51 0.25,-0.66 0.04,-0.36 -0.01,-0.46 -0.26,0.65 -0.77,0.86 -1.27,1.34 -0.28,0.26 -0.41,0.42 -0.65,0.74 -0.3,0.4 -0.12,0.43 -0.56,0.51 -0.29,0.48 -0.5,0.76 -0.81,1.17 -0.52,-0 -0.99,-0.16 -1.45,-0.41l-0.1 -1.05c-0.25,-0.34 -0.79,-0.52 -1.23,-0.76 -0.41,-0.23 -0.87,-0.67 -1.25,-0.36 0.08,0.14 0,0.05 0.18,0.23 0.07,0.07 0.15,0.13 0.24,0.2 0.2,0.15 0.3,0.19 0.47,0.3 0.34,0.22 0.54,0.38 0.9,0.62l-0.33 5.47c-0.5,-0.14 -3.92,-2.45 -4.35,-2.96l0.64 -5.08c0.8,0.21 1,0.75 1.68,0.87l0.3 -0.07c-0.75,-0.41 -1.38,-1.51 -2.31,-1.57 -1.15,0.09 -3.04,1.29 -4.12,1.67 -0.49,0.17 -0.64,0.13 -1.17,0.38 -0.29,0.14 -0.58,0.28 -0.95,0.43 -0.83,0.34 -1.32,0.71 -2.25,0.84 0.2,-0.72 0.52,-1.08 0.8,-1.69 0.22,-0.48 0.37,-1.13 0.61,-1.53 0.41,-0.7 4.36,-3.1 5.19,-3.55 0.53,-0.29 2.39,-1.21 2.88,-1.25zm5.09 4.25c-0.16,-0.7 0.07,-1.16 0.04,-1.86 -0.04,-0.84 -0.15,-0.62 -0.65,-1.06 0.74,-0.71 8.08,-0.4 9.05,0.15l-3.13 3.05c-0.53,0.31 -4.65,-0.06 -5.32,-0.28zm-43.54 24.91l-0.15 -0.02c-1.19,-0 -0.21,0.07 -0.61,-0.34l-2.42 0.29c0.55,-0.79 16.06,-4.66 13.23,3.01 -0.65,1.77 -1.28,1.73 -2.25,2.84 -1.41,1.62 -4.27,3.22 -6.49,3.53 -1.1,0.15 -3.3,0.91 -4.12,0.05 1.16,-0.51 4.01,0.35 4.81,-0.77l-0.07 -0.13 -0.57 -0.09c-0.79,0.6 -4.03,0.33 -5.05,0.29 -1.4,-0.06 -1.27,0.59 -2.12,0.23 -0.89,-0.38 -1.56,-0.47 -2.48,-0.14 -0.35,0.96 -0.61,5.34 -0.77,6.77 -0.23,2.02 -0.73,5.04 0.57,6.33 1.39,0.12 3.02,0.36 3.86,-0.36 1.15,-0.98 0.91,-1.48 1.1,-3.32 0.12,-1.12 0.5,-7.65 1.07,-8.05 0.52,0.32 0.06,2.02 -0.01,2.62l-0.71 6.05c-0.07,0.59 -0.6,2.63 -0.08,3.08 0.65,0.28 4.06,0.34 4.64,-0.05 1.69,-1.15 1.62,-6.22 1.89,-8.21 0.3,-2.21 0.54,-2.58 -0.27,-4.24 0.57,-0.32 1.23,-0.6 1.8,-0.88 0.78,-0.38 0.98,-0.65 1.75,-1.04 1.15,-0.57 2.18,-2.1 3.05,-2.35l0.05 2.24c1.51,0.63 1.6,0.28 2.95,-0.05 0.19,0.43 0.04,0.6 0.52,0.81 0.55,0.24 0.85,-0.09 1.12,-0.32 0.44,-0.38 1.19,-1.11 1.74,-1.19 0.38,0.76 0.64,1.48 1.67,1.42 0.84,-0.05 1.67,-0.79 2.06,-1.21 2.18,-2.36 2.69,-3.18 0.26,-3.19 -0.31,-0.49 -0.33,-0.82 -0.96,-1 -0.63,-0.19 -1.34,-0.01 -1.73,0.38 -0.76,0.77 -0.86,1.72 -2.06,2.07l0.05 -1.55c-0.74,-0.34 -0.94,-0.45 -1.95,-0.27 -0.67,-1.14 -1.03,-1.07 -2.51,-0.72 0.12,-1.16 0.09,-1.26 0.06,-2.37 1.08,-0.01 2.36,0.06 3.41,-0.01 0.76,-0.06 0.71,-0.24 1.47,-0.11 1.51,0.27 3.54,0.45 5.01,-0 0.75,-0.23 0.43,-0.03 1.14,0.16 0.56,0.15 1.22,0.11 1.81,0.12 0.06,0.76 -0.08,0.95 -0.46,1.45 -0.81,1.04 -2.06,4.38 -2.23,5.81 -0.23,1.89 0.24,1.47 -2.43,1.45l-1.38 0.02c-0.05,0.01 -0.09,0.02 -0.13,0.03l-0.36 0.15c-0.37,0.54 -1.55,11.81 -1.37,13.08 0.81,0.1 2.64,-0.06 3.18,0.08 0.57,0.15 0.78,0.92 2.14,1.23 2.06,0.48 4.18,0.11 6.26,0.32 4.18,0.42 7.39,-0.8 9.09,-0.44 4.52,0.97 10.64,0.5 14.88,-0.68 0.92,-0.26 1.77,-0.29 2.69,-0.54 0.96,-0.26 1.69,-0.66 2.53,-0.85 0.92,-0.21 2.1,-0.13 3.16,-0.28 0.97,-0.14 1.76,-0.42 2.73,-0.58 1.9,-0.32 7.41,1.2 7.66,-1.96 0.18,-2.22 -3.2,-4.46 -3.5,-6.59 -0.39,-2.83 -0.62,-5.57 -1.54,-8.26l-1.79 -6.54c-0.21,-1.09 -0.01,-0.63 0.32,-1.32 0.54,-1.13 -0.63,-4.4 -1.14,-5.21 -0.44,-0.71 -0.86,-1.37 -1.31,-2.06 -0.27,-0.41 -0.38,-0.74 -0.66,-1.04 -0.29,-0.31 -0.62,-0.47 -0.9,-0.78 0.88,-1.02 1.89,-1.63 2.69,-2.61 -0.12,-0.82 -0.73,-1.21 -1.13,-2.03l-1.09 -2.14c-0.49,-1.04 -0.61,-1.12 -1.94,-1.3 -1.74,-0.23 -4.13,-0.09 -2.1,-2.21 -0.17,-0.75 -1.59,-2.88 -1.95,-3.57 -0.98,-1.87 -1.2,-1.72 -3.88,-1.81 -1.86,-0.06 -3.72,0.01 -5.58,0.11 -3.11,0.16 -2.37,0.19 -4.47,-1.13 -1.24,-0.78 -2.99,0.36 -3.88,0.92 -1.27,0.8 -2.52,1.19 -3.64,2.05 -1.51,1.17 -1.85,0.86 -2.87,2.8 -0.64,1.22 -1.24,2.82 -1.66,4.02 -2.28,0.08 -4.71,0.65 -6.79,0.64 -0.5,-0.33 -0.84,-0.92 -1.71,-0.97 -0.98,-0.06 -1.06,0.72 -1.52,1.24 -0.98,-0.21 -0.67,-0.87 -2.21,-0.36 -0.46,1.12 -0.22,1.31 0.54,2.04 -1.14,0.54 -1.65,0.61 -2.8,0.31 -0.09,-1.48 2.15,-4.41 1.85,-5.23 -1.03,-1.15 -1.72,-1.36 -2.86,-0.26 -0.54,0.52 -0.48,0.58 -0.92,1.23 -0.31,0.45 -0.71,0.74 -1.09,1.21 -0.26,0.33 -0.61,0.97 -0.89,1.26 -0.44,0.45 -2.78,3.27 -3.21,3.36 -0.54,-1.74 1.01,-3.66 1.57,-5.14 0.2,-0.54 0.91,-2.08 0.66,-2.6 -0.33,-0.68 -1.47,-1.16 -2.32,-0.6 -0.24,0.37 -0.27,0.78 -0.45,1.24 -0.41,1.04 -0.15,0.7 -1.06,0.81 -1.27,0.16 -0.83,1.61 -0.71,2.77 0.15,1.41 -1.01,4.12 -1.62,5.41 -1.1,-0.03 -4.08,-0.51 -5.13,-0.01 -0.56,0.26 -0.57,0.75 -1.06,0.26 -0.74,-1.07 4.2,-3.01 0.96,-4.19 -0.68,-0.25 -0.66,-0.43 -1.22,-0.76 -1.48,-0.87 -1.62,0.36 -2.73,0.42 -0.21,-1.11 0.62,-0.98 0.92,-2.08 0.44,-1.58 -1.75,-1.37 -2.56,-1.81 -0.5,-0.27 -0.42,-0.46 -1.02,-0.53 -0.63,-0.07 -0.83,0.19 -1.31,0.1 -0.43,-0.08 -0.39,-0.27 -1.28,-0.31 -3.83,-0.17 -8.15,0.2 -11.97,0.33 -0.08,-0.93 0.34,-0.79 0.13,-1.81 -0.37,-0.88 -2.31,-1.51 -2.8,0.58 -0.04,0.17 -0.08,0.46 -0.13,0.63 -0.41,1.35 -2.96,0.87 -4.28,0.91 -1.13,0.04 -3.16,-0.22 -3.52,0.79 0.57,1.33 5.33,0.76 7.03,0.79 -0.01,1.2 -1,4.94 -1.43,6.06 -2.55,0.31 -2.35,-0.58 -4.08,0.59 -1.14,-0.71 -0.98,-0.55 -2.61,-0.56 -1.64,-0.02 -1.7,-0.26 -2.63,0.64 -0.77,0.75 -0.95,0.49 -1.15,1.89l-0.92 8.6c-0.3,2.94 -0.17,2.96 3.08,2.8 0.74,-1.1 0.13,-4.51 1.01,-5.21 0.8,1.43 -1.66,4.72 0.92,5.2 0.39,0.07 1.15,0.15 1.53,0.11 0.62,-0.07 0.94,-0.4 1.55,-0.39 0.58,0.01 0.88,0.31 1.41,0.38 0.56,0.08 1.14,-0.01 1.74,0.07 -0.01,0.42 -0.66,4.56 -0.72,4.66 -0.52,0.36 -1.36,0.18 -1.99,0.46 -0.29,0.99 0.42,1.33 1.49,1.33 0.11,0.6 0,1.45 -0.24,1.93l-2.93 0.11 -0.56 0.9c-0.07,-0.06 -0.09,-0.17 -0.1,-0.15 -0.01,0.02 -0.05,-0.09 -0.06,-0.12 -0.54,-1.17 -1.36,-0.79 -2.65,-0.81 -1.23,-0.02 -2.49,-0.1 -3.71,0.06 -0.26,0.59 -0.55,1.73 -0.17,2.37 0.49,0.35 0.8,0.3 1.53,0.3 0.37,2.12 -1.34,9.83 -0.56,10.43 0.48,0.28 1.68,0.28 2.14,-0.01 0.51,-0.41 0.44,-1.79 0.46,-2.47 0.04,-1.79 0.35,-6.61 0.87,-7.91 1.63,-0.18 1.3,0.16 1.14,1.59 -0.12,1.06 -0.1,2.02 -0.19,3.08 -0.33,4.12 -1.87,6.73 1.81,5.94 0.39,-1.12 0.18,-5.06 1.17,-5.11 0.9,-0.05 0.44,1.52 0.36,2.19 -0.1,0.83 -0.42,2.21 -0.13,2.89 0.39,0.16 0.6,0.14 1.13,0.15 2.04,0.04 1.31,-0.54 1.95,-6.53 0.12,-1.1 0.23,-2.12 0.33,-3.21 0.17,-1.78 0.49,-1.5 -0.45,-2.77 0.74,-3.72 0.28,-3.06 5.15,-3.57 1.49,-0.16 1.34,-0.14 1.92,0.82 1.5,0.13 1.33,-0.49 2.77,-0.42 0.87,1.25 1.3,0.47 2.15,0.05 0.35,0.25 0.53,0.84 0.92,1.04 1.3,0.23 1.25,-0.28 2.22,-0.23 1.26,0.06 0.95,-0.41 1.5,-1.16 0.55,0.44 0.66,0.96 1.44,0.51l0.43 -0.34c0.02,-0.01 0.05,-0.05 0.08,-0.07 1.56,0.89 2.24,-0.45 3.14,-1.47 0.35,-0.39 0.61,-0.73 0.22,-1.29 -1.26,-0.97 -1.41,1.37 -2.8,-0.43 -0.95,-1.23 -1.9,-0.34 -3.18,-0.16l-0.89 -0.79c3.06,-0.09 2.61,-0.35 2.51,-3.36 0.51,0.25 0.27,-0.06 0.62,0.64 0.62,1.26 0.99,1.09 2.53,1.09 3.18,-0.01 1.86,0.18 3.54,-1.32 0.41,0.27 1.35,1.36 1.84,1.87l3.38 -0.47z"/>
   <path class="fil2" d="M87.22 48.32c-4.4,-1.16 -4.29,-2.23 -6.3,-3.22 -1.19,-0.58 -1.65,-0.06 -2.34,-0.71 1.63,-0.73 3.05,0.69 4.13,1.38 1.4,0.88 2.65,1.45 4.29,1.73 4.7,0.81 7.56,-2.56 9.02,-2.88 -0.62,3.25 -5.25,4.63 -8.79,3.7zm-15.73 -13.68c-0.84,-0.03 -0.03,0.05 -0.37,-0.24 0.33,-0.28 0.37,-0.72 0.89,0 -0.34,0.3 0.53,0.28 -0.51,0.24zm8.57 2.99c1.31,0.15 1.36,-0.22 2.24,-0.73 0.43,-0.25 0.71,-0.24 1.08,-0.45l2.36 -1.93c1.36,-1.46 3.08,-2.89 4.8,-3.97 1.18,-0.74 3.55,-1.74 4.15,-0.1 -1.56,0.63 -4.07,0.17 -5.63,3.54 -0.93,2.01 -2.27,4.12 -5.28,3.97 -1.14,-0.06 -1.16,-0.37 -2.08,0.19 -1.62,0.99 -2.08,0.14 -3.91,0.12 -0.94,-0.01 -1.18,-0.03 -1.95,-0.41 -1.01,-0.49 -1.98,-1.15 -1.83,-2.69 0.09,-0.95 0.2,-1.07 -1.14,-2l-0.64 -0.52c1.69,0.19 1.65,1.1 2.49,1.89 0.38,0.36 0.8,0.65 1.17,0.98 0.43,0.37 0.62,0.73 1.38,0.9l-0.96 -2.49c0.03,-0.03 0.08,-0.07 0.1,-0.09l0.37 -0.31c0.22,-0.16 0.09,-0.11 0.34,-0.2 0.01,1.07 0.07,2.16 0.57,3 0.38,0.64 1.03,1.38 1.87,1.39 -0.3,-1.04 -0.81,-0.94 -0.78,-2.56 0.04,-1.75 0.05,-2.33 0.85,-2.49 -0.75,2.15 -0.66,3.21 0.42,4.95zm8.24 -7.88c-0.07,-0.32 0.43,-0.78 1.04,-0.11 -0.38,0.86 -1.01,0.27 -1.04,0.11zm-6.71 5.6c0.3,-0.56 0.76,-0.72 1.25,-1.27 0.89,-1 2.37,-3.28 2.84,-4.56 0.41,-1.12 1.3,-2.07 2.15,-2.75 1.17,-0.93 2.8,-0.74 3.31,0.44 -1.51,-0.02 -2.62,-0.34 -3.52,0.74 -0.43,0.52 -0.57,0.81 -1,1.31 -0.34,0.4 -0.61,0.86 -0.83,1.32 -0.59,1.21 -1.18,1.7 -1.83,2.64 -0.67,0.96 -1.17,1.74 -2.38,2.14zm-6.68 7.67l-0.51 0c-0.28,-0.84 -0.01,-0.19 -0.38,-0.52 -0.26,0.21 -0.42,-0.03 -1.08,-0.2l0.24 2.23c0.3,0.55 1.56,0.32 1.88,1.14l-1.89 -0.38c-0.31,0.54 -0.54,3.64 -0.66,4.53 -0.17,1.26 -0.74,2.91 -1.33,3.75 -1.86,0.27 -1.44,-0.15 -2.13,-0.26 -0.17,0.28 -0.29,0.37 -0.41,0.83 2.72,1 5.08,-0 7.65,-0.51 -0.45,-0.82 -2.39,-1.45 -2.98,-3.02 1.03,0.28 0.29,0.42 1.72,1.13 0.6,0.3 1.17,0.73 1.73,1.03 3.67,1.95 9.87,1.83 13.83,0.91 0.71,-0.76 2.97,-1.02 5.48,-2.87 2.63,-1.94 2.12,-1.89 3.76,-4.39 1.28,-1.94 0.94,-2.47 1.38,-3.38l0.24 -0.35c0.23,0.63 0.06,1.61 -0,2.29 -0.03,0.36 -0.27,1.95 -0.48,2.27 -0.31,3.07 -1.29,2.75 -2.15,4.4 7.49,0.09 3.81,-1.67 4.85,-4.79l0.25 0.52c0.13,-0.51 0.09,-0.48 0.3,-0.8 0.7,0.06 1.37,1.57 1.69,2.1 1.33,2.21 1.55,1.11 1.62,2.11 -0.44,0.12 -0.75,0.03 -1.15,-0.01 0.32,0.28 0.16,0.2 0.73,0.28 0.25,0.04 0.67,0.03 0.93,0.02 0.57,-0.01 1.16,-0.04 1.7,-0.13 -0.03,-0.04 -0.05,-0.1 -0.06,-0.14 -0.01,-0.04 -0.04,-0.09 -0.05,-0.14 -0.01,-0.05 -0.03,-0.09 -0.04,-0.14 -0.38,-1.7 0.49,-0.66 -0.91,-2.94 -0.25,-0.41 -0.44,-0.99 -0.68,-1.47 -0.34,-0.68 -0.13,-1.06 -0.31,-1.91 -0.06,-0.29 0.01,-0.13 -0.16,-0.57 -0.53,0.81 -0.45,1.52 -1.17,2.01 0.08,-2.62 1.13,-2.67 0.07,-8.88 -0.59,-0.64 0.39,0.11 -0.98,-1.01 -0.36,-0.29 -0.63,-0.69 -0.97,-1.03 -0.57,-0.56 -1.65,-1.23 -1.78,-2.19 0.25,-0.22 -0.03,-0.01 0.29,-0.17l0.74 -0.29c0.23,-1.93 -0.56,-2.51 -1.28,-3.46 -0.76,-1 -1.06,-2.47 -0.7,-3.84 -1.1,-0.34 -2.75,0.47 -3.82,0.68 -0.7,0.14 -1.1,0.43 -1.79,0.7 -1.59,0.64 -1.1,1.27 -1.26,0.95 -0.01,-0.03 -0.04,0.08 -0.07,0.11 -0.32,-0.72 -0.81,-0.23 -2.97,-1.05 -0.56,-0.21 -0.9,-0.43 -1.43,-0.61 -3.49,-1.17 -4.23,-1.41 -8.34,-1.34 -1.26,0.02 -2.61,0.02 -3.76,0.22 -2.31,0.4 -1.58,0.44 -3,0.85 -7.14,2.09 -5.54,1.93 -6.02,4 -0.18,0.77 -0.52,0.9 -0.81,1.61 1.21,-0.42 1.85,-0.99 2.88,-1.56 0.68,-0.37 0.69,-0.25 1.35,-0.8 0.28,-0.24 0.79,-0.62 1.21,-0.79 -1.34,2.34 -5.86,3.66 -8.12,6.48 -0.99,1.24 -0.6,0.89 -1.14,2.54 -1.48,4.52 0.35,3.85 0.07,6.21 -0.09,0.8 -0.49,2.37 -0.17,3.04 0.85,-0.59 -0.34,-2.94 1.13,-4.98 1,-1.38 3.86,-0.75 4.71,-0.37l0.62 -0.47c0.02,-0.02 0.09,-0.02 0.11,-0.07 0.02,-0.06 0.07,-0.05 0.11,-0.07 -0.49,-2.15 -0.19,-2.71 -0.44,-3.44 -0.84,-0.27 -1.11,-0.05 -1.92,-0.05 0.67,-1.03 3.29,-1.02 3.12,-0.16 -0.01,0.04 -0.07,0.17 -0.09,0.2l-0.12 0.22c0.73,0.41 2.84,3.44 7.06,3.6 2.74,0.11 6.42,-0.79 8.57,-2.1 0.7,-0.43 3.23,-2.27 3.82,-2.94 0.35,-0.4 0.17,-0.3 0.64,-0.59 1.5,-0.93 0.4,-0.67 2.96,-2.25 2.34,-1.45 3.1,-1.41 5.47,0.45l-0.42 0.02c-1.06,-0.18 -2.44,-0.61 -2.88,1.53 -0.64,3.19 2.11,7.66 -5.39,10.93 -1.24,0.54 -3.26,0.64 -4.88,0.47 -1.78,-0.19 -2.87,-0.73 -4,-1.5 -0.38,-0.26 -1.22,-0.63 -1.82,-0.95 -0.72,-0.38 -1.21,-0.6 -2.24,-0.62 -1.22,-0.02 -3.96,0.77 -4.58,0.51l0.79 -0.39z"/>
   <path class="fil0" d="M73.88 21.12c-0.48,0.45 -1.32,0.66 -1.93,0.99 -0.69,0.37 -1.31,0.83 -1.94,1.05 -0.37,0.52 -0.5,0.42 -1.24,0.42 0.18,0.77 0.32,0.65 0.66,1.18 0.34,0.53 0.19,0.88 0.29,1.54l5.35 -1.79c2.25,-0.76 3.66,-0.96 6.31,-0.97l0.38 -0.36c0.75,-0.83 0.24,-2.08 1.16,-1.3 1.47,0.57 3.08,1.69 4.6,1.82 2.55,0.33 4.72,1.84 6.16,0.03 0.42,-0.53 0.4,-1.49 0.93,-1.84 2.19,-1.47 4.13,2.67 5.33,0.26 0.37,-0.75 0.12,-1.32 -0.16,-2.05 -0.85,-0.04 -1.54,0.13 -2.34,0.12 -0.75,-0.01 -1.58,-0.12 -2.39,-0.14l-1.49 0.54 -0.87 0.19 -1.41 0.18c-0.53,0.37 -1.89,0.33 -2.45,0.06 0.02,-0.03 0.05,-0.07 0.07,-0.09l0.48 -0.45c0.26,-0.34 0.23,-0.27 0.25,-0.75 -2.82,0.01 -5.65,0.05 -8.47,0.01 -1.41,-0.02 -2.82,-0.1 -4.16,0.19 -1.32,0.29 -2.22,0.88 -3.12,1.18z"/>
   <path class="fil3" d="M20.86 15.55c-0.09,-0.64 0.18,-1 0.49,-1.28 0.16,0.22 0.15,-0.35 0.18,0.46 0.01,0.38 -0.19,0.79 -0.66,0.82zm15.4 -0.48c0.11,-0.7 -0.12,-0.28 0.34,-0.55 0.17,0.49 0.19,0.38 -0.34,0.55zm-9.34 0.81c-0.21,-0.32 0.06,-0.95 0.26,-1.32 0.19,-0.37 -0,-0.14 0.36,-0.34 0.06,0.13 0.21,-0.06 0.05,0.55 -0.13,0.52 -0.28,1.02 -0.67,1.11zm2.02 -1.66c-0.59,0.02 -0.72,0.01 -1.11,-0.26 0.52,-0.6 0.95,-0.34 1.19,-1.07 -1.55,-1.01 -1.63,0.85 -2.41,1.17 -0.32,-0.37 -0.21,-0.44 -0.47,-0.7l-0.84 -0.47c0.14,-0.96 0.72,-1.42 0.81,-2.46l-1.09 -0.06 -2.26 3.75c-0.47,-0.06 -0.75,-0.18 -1.04,-0.46 0.32,-0.18 0.99,-0.45 1.09,-0.72 0.2,-0.5 -0.91,-1.25 -1.87,0.6 -0.31,0.6 -0.35,0.71 -1.13,0.79 0.37,-0.74 0.67,-0.52 0.79,-1.29 -1.08,-0.83 -1.61,0.5 -2.41,0.87 0.05,-0.83 0.87,-1.2 0.81,-2.05l-0.89 -0.29c-0.34,0.52 -0.71,1.21 -0.81,1.96 -0.09,0.66 -0.42,2.11 -0.38,2.53 1.21,-0.02 0.57,-0.41 1.46,-1.11 0.79,-0.63 0.98,-0.22 1.89,0.08l-0.07 1.09c1.27,0.3 0.19,-0.18 2.31,-0.25 0.15,-0.46 0.97,-1.92 1.31,-2.2 0.07,1.01 -0.59,1.93 -0.4,3 0.54,-0.01 0.44,-0.34 1.48,-0.58 1.14,-0.26 0.45,-0.57 1.39,-0.79l0.1 0.96 2.01 -0.23c0.6,-0.66 0.58,-1.45 1.33,-1.8 -0.22,0.96 -0.44,1.22 -0.34,2.33 1.43,-0.16 2.16,-1.91 2.9,-2.26 0.24,0.64 -0.54,1.93 -0.39,2.96 0.98,-0.1 1.06,-1.7 2.26,-2.24 -0.11,0.7 -0.33,0.86 0.01,1.32 0.81,-0.17 0.12,-0.26 0.88,-0.54 0.3,0.59 0.26,2.24 2.29,0.6 0.84,-0.68 1.37,-1.32 1.8,-2.26 -0.97,-0.23 -0.39,-0.02 -1.41,1.27 -0.36,0.45 -1.12,1.09 -1.81,1.22 0.04,-1.16 0.79,-0.76 1.34,-1.54 0.48,-0.68 0.63,-1.41 0.2,-1.99 -1.89,-0.55 -1.41,1.39 -2.68,1.63 0.31,-0.86 0.43,-0.73 -0.19,-1.37l-1.02 0.63c-0.15,-1.27 1.78,-2.82 1.34,-3.72 -1.28,-1.72 -2.55,4.68 -4.6,5.25 0.07,-0.83 1.13,-3.47 2.04,-4.56 0.39,-0.47 0.75,-0.79 0.4,-1.6 -1.6,-0.26 -1.55,1.09 -2.14,2.17l-1.67 2.71z"/>
   <path class="fil0" d="M4.66 22.73c-0.05,-0.69 0.08,-1.33 0.14,-1.98 0.12,-1.21 -0.18,-1.43 2.02,-1.24l-0.32 3.28 -1.83 -0.06zm-2.82 7.27l1.97 0.1c0.35,-0.8 0.64,-4.07 0.79,-5.15l1.71 0.02 -0.42 5.01c1.01,0.2 0.67,0.04 1.1,-0.46 0.5,-0.59 0.52,-0.26 1.16,-0.51l0.66 -7.21c0.44,-3.55 0.49,-4.51 -2.93,-4.5 -0.77,0 -1.24,-0.1 -1.78,0.26 -0.24,0.16 -0.86,0.8 -1.05,1.1 -0.59,0.93 -0.32,2.54 -0.44,3.69 -0.19,1.79 -0.88,6.12 -0.76,7.65z"/>
   <path class="fil0" d="M66.61 25.59c0.06,0.63 -0.07,1.19 -0.14,1.83 -0.1,0.88 0.07,1.22 -0.82,1.22 -1.41,0 -0.31,-1.04 -0.64,-2.68l-1.82 -0.11c-0.32,0.76 -0.53,2.91 -0.25,3.71 0.56,1.59 1.19,1.32 3.32,1.32 0.97,0 1.55,-0.63 2.09,-1.62 0.25,-0.45 1.12,-4.79 -0.52,-5.68 -0.59,-0.32 -1.59,-0.12 -2.31,-0.26 -0.15,-0.79 0.07,-2.48 0.28,-3.21 1.62,-0.22 1.29,0.12 1.08,1.75 -0.02,0.14 -0.04,0.24 -0.03,0.4l0.07 0.4c0.01,0.03 0.02,0.09 0.04,0.13 0.5,0.18 1.4,0.19 2.03,0.03 0.3,-1.12 0.54,-3.02 -0.03,-4.04 -0.42,-0.74 -0.41,-0.88 -1.45,-0.9 -0.83,-0.02 -1.73,0 -2.56,0.02 -1.05,2.14 -1.13,-0.45 -1.66,4.8 -0.39,3.85 1.83,2.33 3.33,2.89z"/>
   <path class="fil0" d="M31.49 30.42c0.77,0.03 1.57,0.04 2.35,0.05 1.15,0.01 1.1,-0.12 1.66,-0.7 1.15,-1.19 0.81,-0.65 1.13,-3.43l0.7 -8.52c-0.66,-0.17 -1.42,-0.12 -2.09,-0.01 -0.33,1.93 -0.45,3.85 -0.53,5.82 -0.04,0.95 -0.21,1.95 -0.3,2.93 -0.15,1.71 0.16,1.7 -1.46,1.65 -0.51,-2.79 1.12,-7.71 0.79,-10.58 -2.31,0.05 -2.04,-0.04 -2.27,1.96l-0.71 7.58c-0.19,1.55 0.14,2.16 0.75,3.24z"/>
   <path class="fil0" d="M23.9 27.73l2.07 0.05 0.93 -7.95 1.35 -0.09 -0.92 8.35 -0.97 0.12c0.14,0.62 0.73,0.76 1.18,1.08 0.03,1.27 -0.7,1.66 -0.77,2.36 0.66,0.3 1.46,0.46 2.3,0.15 0.68,-1.77 -0.07,-2.14 -0.14,-2.31 0.41,-0.52 0.49,-0.32 0.61,-1.2l0.97 -8.69c0.21,-2.56 -4.12,-2.47 -4.94,-1.6 -0.68,0.71 -0.89,1.7 -1,2.89 -0.13,1.36 -0.84,5.85 -0.68,6.85z"/>
   <path class="fil4" d="M48.43 47.61c-1.32,0 -1,0.6 -1.11,1.91 -0.21,2.36 0.15,3.47 -1.19,3.33 -1.07,-0.11 -0.55,-1.27 -0.3,-3.52 0.43,-3.87 -0.2,-9.02 2.91,-8.92l2.15 0.08c0.5,0.44 0.85,0.99 0.85,1.75 -0,1.31 -0.87,9.71 -1.18,10.6l-1.36 0.01c-0.11,-1.51 0.65,-3.84 0.42,-5.19l-1.17 -0.05zm3.44 5.23c-0.26,-0.94 0.4,-5.4 0.52,-6.61 0.11,-1.12 0.22,-2.11 0.33,-3.22 0.22,-2.34 0.01,-2.54 0.94,-2.54 1.08,0 0.79,0.11 0.9,1.14l0.99 4.85 0.72 -5.97 1.41 0.08 -1.24 12.43c-0.96,0.09 -1.22,0.21 -1.42,-0.75 -0.32,-1.51 -0.68,-3.96 -1.06,-5.25 -0.54,0.68 -0.35,2.91 -0.41,3.75 -0.1,1.43 0.08,2.67 -1.69,2.09zm-4.58 0.27c0.48,-0.41 0.37,-1.16 0.5,-2.41 0.05,-0.45 0.1,-0.76 0.11,-1.23 0.01,-0.69 -0.08,-0.99 0.22,-1.43l0.82 0.01c0.11,1.57 -0.58,3.57 -0.38,5.14 0.55,0.16 4.53,0.31 4.87,0.09 0.4,-0.35 0.27,-0.17 0.35,-0.87 0.05,-0.5 0.1,-0.81 0.16,-1.31 0.23,0.24 0.14,-0.01 0.34,0.52 0.25,0.66 -0.3,2.51 2.6,1.84 0.27,-0.56 1.37,-12.48 1.21,-13.2 -0.55,-0.18 -1.76,-0.23 -2.3,0 -0.36,0.59 -0.17,1.4 -0.46,2.01 -0.77,-1.29 0.86,-2.55 -2.77,-2.15 -0.14,0.27 -0.1,0.24 -0.18,0.51l-0.28 0.75c-1.29,-1.17 0.52,-1.37 -3.84,-1.37 -2.84,0 -2.45,4.28 -2.72,6.88 -0.15,1.46 -0.35,2.86 -0.53,4.26 -0.09,0.72 -0.43,1.73 0.13,2.06 0.47,0.28 1.78,0.2 2.14,-0.09z"/>
   <path class="fil5" d="M51.87 52.84c1.77,0.58 1.58,-0.66 1.69,-2.09 0.06,-0.84 -0.13,-3.07 0.41,-3.75 0.39,1.29 0.75,3.74 1.06,5.25 0.2,0.96 0.45,0.83 1.42,0.75l1.24 -12.43 -1.41 -0.08 -0.72 5.97 -0.99 -4.85c-0.12,-1.03 0.18,-1.14 -0.9,-1.14 -0.93,0 -0.72,0.2 -0.94,2.54 -0.1,1.11 -0.21,2.11 -0.33,3.22 -0.12,1.21 -0.78,5.68 -0.52,6.61z"/>
   <path class="fil0" d="M8.65 45.3c-0.17,-0.8 0.08,-2.01 0.21,-2.83 0.11,-0.71 -0.05,-0.98 2.04,-0.79 0.23,0.81 -0.06,2.9 -0.27,3.66l-1.98 -0.05zm-0.8 6.78c1.18,-3.8 -0.8,-5.01 1.86,-5.01 1.48,0 0.24,1.49 0.45,5.21l1.35 -0.06c0.58,-1.59 0.58,-5.71 0.82,-7.67 0.28,-2.33 1.47,-4.95 -3.08,-4.72 -0.98,0.05 -1.74,1.15 -1.91,2.21l-0.93 9.78c0.08,0.68 0.85,0.4 1.45,0.27z"/>
   <path class="fil5" d="M50.08 42.3c0.08,0.74 -0.12,1.49 -0.16,2.25 -0.07,1.23 0.29,1.39 -1.03,1.42 -1.36,0.02 -1.2,-0.1 -1.04,-1.32 0.1,-0.83 -0,-1.53 0.16,-2.36 0.66,-0.16 1.4,-0.13 2.07,0.02zm-1.65 5.31l1.17 0.05c0.23,1.35 -0.53,3.68 -0.42,5.19l1.36 -0.01c0.31,-0.9 1.18,-9.29 1.18,-10.6 0,-0.76 -0.34,-1.31 -0.85,-1.75l-2.15 -0.08c-3.11,-0.1 -2.48,5.05 -2.91,8.92 -0.25,2.26 -0.77,3.41 0.3,3.52 1.34,0.14 0.98,-0.97 1.19,-3.33 0.12,-1.32 -0.21,-1.91 1.11,-1.91z"/>
   <path class="fil5" d="M59.71 51.25c-0.09,-0.6 0.71,-8.32 0.93,-8.95l1.96 0.09c0.12,0.73 -0.5,6.27 -0.7,7.74 -0.16,1.15 -0.94,1.42 -2.19,1.12zm-1.65 1.64c5.15,0.8 4.99,1.1 5.64,-5.71 0.36,-3.77 1.47,-6.6 -1.43,-6.66 -1,-0.02 -1.99,-0.06 -2.99,-0.05 -0.12,1.89 -1.49,11.51 -1.22,12.42z"/>
   <path class="fil5" d="M22.99 45.41c-0.14,-0.71 0.2,-3.01 0.44,-3.62l1.47 0.15c0.12,0.85 -0.07,1.81 -0.16,2.62 -0.12,1.08 -0.66,1.18 -1.76,0.86zm-2.28 6.89c0.58,0.23 0.72,0.18 1.33,0.1 0.47,-1.35 0.27,-4.17 0.71,-5.25l1.53 0.01c0.24,0.95 -0.12,2.32 -0.23,3.25 -0.2,1.64 -0.69,2.25 1.18,2.09 0.2,-0.38 0.6,-4.45 0.6,-5.34 -0,-0.88 0.16,-1 0.25,-1.71 0.12,-0.92 0.4,-2.81 0.36,-3.66 -0.08,-1.51 -0.83,-1.62 -2.28,-1.66 -2.42,-0.06 -2.32,-0.64 -2.48,1.5l-0.23 3.39c-0.11,1.71 -0.89,6.03 -0.74,7.28z"/>
   <path class="fil5" d="M42.53 50.93c-2,0.31 -1.62,-0.22 -1.44,-1.76 0.16,-1.41 0.03,-2.21 1.84,-1.56 0.09,0.77 -0.09,2.67 -0.4,3.31zm-0.96 -5.2c-0.13,-0.78 0.08,-1.82 0.17,-2.66 0.12,-1.21 0.51,-1.1 1.81,-0.86 0.07,0.66 -0.15,1.78 -0.21,2.5 -0.11,1.27 -0.26,1.38 -1.77,1.02zm-1.08 -4.34c-0.19,0.74 -1.26,10.74 -1.18,11.21 0.67,0.23 1.49,0.13 2.21,0.14 0.99,0.01 1.35,0.15 1.93,-0.43 1,-1.02 0.79,-1.88 0.93,-3.64 0.12,-1.47 0.28,-2.77 0.45,-4.25 0.18,-1.54 0.63,-2.65 -0.39,-3.72 -1.01,0.08 -2.64,0.51 -3.95,0.69z"/>
   <path class="fil5" d="M66.45 51.26c-0.17,-0.62 0.56,-8.41 0.89,-8.94l1.38 0.09c0.25,1.45 -0.16,3.95 -0.35,5.47 -0.41,3.22 -0.03,4.03 -1.92,3.39zm3.83 -6.87c0.14,-1.34 0.4,-3 -0.74,-3.6 -0.4,-0.21 -1.72,-0.22 -2.22,-0.17 -2.47,0.27 -1.88,6.57 -2.44,8.89 -0.25,1.01 -0.29,0.82 -0.04,1.98 0.14,0.65 0.28,1.31 0.77,1.54 0.47,0.23 1.62,0.17 2.18,0.12 0.84,-0.08 0.87,-0.33 1.26,-0.89 0.84,-1.22 1.03,-5.98 1.23,-7.86z"/>
   <path class="fil0" d="M58.58 18.58c-0.86,0.82 -0.8,2.32 -0.94,3.68 -0.15,1.51 -0.18,2.95 -0.32,4.45 -0.13,1.35 -0.6,2.96 0.34,3.83 0.45,0.42 3.55,0.35 4.41,0.25 1.28,-2.91 -1.09,-1.88 -2.77,-2.31l0.15 -2.96 1.86 -0.12c0.18,-0.58 0.32,-1.44 0.11,-1.97l-1.55 -0.14c-0.08,-0.68 0.02,-2.69 0.3,-3.12 0.42,-0.46 1.89,0.13 2.94,-0.27l0.21 -1.98c-1.43,-0.02 -1.69,-0.27 -2.57,0.52 -1.09,0.99 -1.2,0.38 -2.17,0.15z"/>
   <path class="fil0" d="M42.48 28.51c-0.56,-0.24 -1.93,-0.14 -2.79,-0.15 -0.13,-0.71 -0.19,-2.82 0.63,-3.02 0.22,-0.05 0.22,-0.04 0.44,-0.06 0.36,-0.04 1.48,0.33 1.13,-2.03 -0.39,-0.18 -1.06,-0.19 -1.63,-0.22l0.13 -3.29 3.13 -0.05 0.22 -1.88c-0.93,-0.16 -2.38,-0.09 -3.31,-0.09 -1.28,-0.01 -1.66,0.27 -1.96,1.37 -0.42,1.5 -0.52,4.16 -0.71,5.88 -0.66,5.84 -0.61,5.97 3.01,4.96 0.85,-0.23 2.34,-0.35 1.7,-1.42z"/>
   <path class="fil5" d="M31.02 41.93c0.13,1.71 -0.14,3.39 -0.31,5.04 -0.3,2.98 -0.03,3.95 -1.33,3.88 -1.13,-0.07 -0.74,-0.74 -0.63,-1.7 0.2,-1.87 0.43,-6.25 0.71,-7.17l1.56 -0.04zm1.56 1.53c0.17,-1.43 0.42,-2.93 -1.06,-3.23 -1.4,-0.28 -2.66,-0.24 -3.34,1.1 -0.46,0.9 -0.95,6.55 -0.98,7.97 -0.03,1.3 -0.3,2.98 1.12,3.21 4.31,0.7 3.51,-2.73 4.26,-9.06z"/>
   <path class="fil6" d="M20.31 50.42c-0.78,-0.19 -0.94,-0.95 -1.01,-1.9 -0.06,-0.76 0.1,-1.72 0.19,-2.49 0.21,-1.8 -0.08,-3.67 1.78,-3.83 -0.15,1.58 -0.52,7.24 -0.95,8.23zm0.4 1.88c-0.15,-1.26 0.63,-5.57 0.74,-7.28l0.23 -3.39c0.16,-2.14 0.06,-1.56 2.48,-1.5 1.46,0.04 2.21,0.15 2.28,1.66 0.04,0.85 -0.24,2.74 -0.36,3.66 -0.09,0.72 -0.25,0.83 -0.25,1.71 0,0.9 -0.4,4.96 -0.6,5.34 -1.87,0.16 -1.38,-0.45 -1.18,-2.09 0.11,-0.93 0.47,-2.3 0.23,-3.25l-1.53 -0.01c-0.43,1.08 -0.23,3.9 -0.71,5.25 -0.61,0.08 -0.76,0.13 -1.33,-0.1zm-2.09 0.07c-1.17,-1.67 -0.28,-7.85 0.24,-9.57 0.16,-0.52 0.76,-2.42 0.99,-2.76l1.07 0.07c0.17,2.63 -0.91,0.8 -1.29,2.55 -2.09,9.52 0.36,6.68 -0.05,9.62l-0.96 0.09zm3.96 0.44c0.58,-1.06 0.26,-4.41 0.96,-5.11 0.46,0.31 0.19,0.96 0.03,2.25 -0.11,0.89 -0.33,1.97 -0.13,2.85 0.5,0.2 1.75,0.26 2.38,0.05 0.36,-0.29 0.92,-7.96 1.15,-9.49 0.11,-0.73 0.34,-1.66 0.03,-2.41 -0.2,-0.47 -0.83,-1.19 -1.5,-1.28 -1.35,-0.19 -3.88,-0.03 -5.36,-0.03 -0.94,-0 -1.06,0.61 -1.33,1.27 -1.54,3.9 -0.68,3.36 -1.21,6.96 -0.13,0.86 -0.25,1.38 -0.09,2.25 0.66,3.7 0.16,2.72 2.5,2.63 0.89,-0.04 1.34,0.35 2.56,0.07z"/>
   <path class="fil2" d="M95.06 20.06c0.81,0.02 1.63,0.13 2.39,0.14 0.81,0.01 1.49,-0.16 2.34,-0.12 0.28,0.74 0.53,1.3 0.16,2.05 -1.2,2.41 -3.14,-1.73 -5.33,-0.26 -0.53,0.36 -0.51,1.31 -0.93,1.84 -1.44,1.81 -3.61,0.31 -6.16,-0.03 0.39,0.49 3.63,1.55 4.18,1.66 2.23,0.47 2.93,0.46 4.97,-0.31 4.13,-1.56 5.1,-2.5 7.79,1.02 0.11,-0.94 -0.63,-2.55 -0.98,-3.38l-1.59 -2.86c-1.79,-2.1 -3.74,-0.52 -5.88,-0.1 -0.23,0.04 -0.29,0.02 -0.52,0.1 -0.39,0.14 -0.26,0.1 -0.43,0.24z"/>
   <path class="fil7" d="M72.18 19.03c1.63,-0.73 3.94,0.05 5.79,-0.14l0.54 -5.38c-0.28,-0.21 -0,-0.1 -0.44,-0.13 -0.95,0.15 -1.72,0.53 -2.59,0.74 -0.98,0.24 -1.82,0.4 -2.83,0.71 -3.03,0.94 -4.23,0.82 -4.24,2.69 0.2,0.17 0.53,0.39 0.75,0.6 1.39,1.38 0.12,1.03 3.01,0.91z"/>
   <path class="fil5" d="M37.57 40.45c-0.32,0.83 -0.55,4.26 -0.67,5.47 -0.11,1.04 -0.17,1.85 -0.19,2.93 -0.01,0.98 0.12,2.02 -1.03,2.07 -1.41,0.05 -0.95,-1.03 -0.83,-2.17 0.09,-0.87 0.2,-1.82 0.31,-2.71 0.2,-1.63 0.58,-4.06 0.57,-5.68l-1.44 -0.01c-0.4,2.14 -0.54,4.99 -0.79,7.26 -0.1,0.93 -0.44,2.77 -0.21,3.63 0.4,1.48 1.14,1.54 2.86,1.4 2.3,-0.19 2.05,-3.63 2.3,-5.92 0.13,-1.25 0.08,-2.46 0.24,-3.75 0.13,-1.1 0.51,-2.93 -1.13,-2.49z"/>
   <path class="fil0" d="M46.37 29.07c0.93,0.07 1.93,-0.03 2.83,0.05 0.9,0.08 1.44,0.5 2.24,0.59l0.26 -1.14 -3.11 -0.13c-0.05,-0.6 0.01,-0.95 0.06,-1.46 0.2,-2.08 0.03,-1.37 1.93,-1.64 1.16,-2.66 -0.94,-2.15 -1.39,-2.18 -0.1,-0.58 0.09,-2.65 0.26,-3.26 1.01,-0.18 2.16,0.13 2.92,-0.16l-0.13 -1.23 -0.67 -0.15c-0.31,-0.14 -0.37,-0.8 -2.85,-0.58 -1.23,0.11 -1.53,2.06 -1.63,3.04 -0.13,1.27 -0.97,7.52 -0.73,8.25z"/>
   <path class="fil0" d="M14.94 28.6l4.11 -0.4 -1.83 -0.2c-0.06,-0.77 -0.14,-2.79 0.66,-2.94 0.23,-0.04 0.21,-0.02 0.43,-0.03 0.63,-0.04 0.44,0.17 0.91,-0.18 0.17,-0.28 0.4,-1.21 0.26,-1.64 -0.19,-0.56 -0.9,-0.39 -1.61,-0.39l0.01 -3.02c0.11,-0.02 0.17,-0.1 0.19,-0.06l0.54 -0.15c0.54,-0.05 1.48,0.15 2.38,-0.03 0.25,-0.54 0.34,-1.52 0.16,-1.99 -0.66,-0.22 -3.39,-0.3 -4.15,-0.01 -1.23,0.47 -1.16,1.62 -1.26,3.01 -0.18,2.51 -0.84,5.61 -0.8,8.03z"/>
   <path class="fil3" d="M22.62 34.69l-1.14 -0.25 -0.81 2.2c1.62,-0.07 1.36,0.29 2.28,-1.29 0.35,-0.61 0.32,-0.53 0.66,-0.71l-0.41 2.54c0.86,-0.13 1.26,-0.88 1.99,-1.03 0.18,0.52 0.16,1.04 0.4,1.42 1.15,0.37 1.39,-0.15 1.95,-0.67 0.28,0.16 0.23,0.31 0.61,0.5 0.73,-0.44 1.16,-1.87 2.15,-2.41l-0.01 1.76c0.85,-0.24 0.61,-0.44 1.4,-0.82 0.26,0.39 0.02,0.5 0.46,0.82 0.87,-0.14 0.64,-0.39 1.16,-1.03 0.38,-0.46 0.75,-0.71 1,-1.18 -0.74,-0.03 -0.76,0.22 -1.06,0.62 -0.88,-0.18 -0,-0.35 -1.8,-0.38 -0.16,-0.46 -0.22,-0.79 -0.39,-1.12 -2.22,-0.16 -2.46,1.22 -2.69,1.57 -0.43,0.64 -1.41,1.99 -2.3,1.89 -0.38,-1.39 0.54,-0.38 1.27,-1.53 1.5,-2.36 -0.57,-3.53 -1.68,-1.22 -0.45,0.92 -0.6,1.44 -1.67,1.66 0.41,-1.08 0.95,-2.22 1.41,-3.45 0.47,-1.24 1.71,-1.75 1.76,-3.04 -1.72,-1.33 -1.88,0.69 -2.56,1.92 -0.32,0.58 -0.71,1.05 -1.03,1.58 -0.44,0.73 -0.3,0.96 -0.94,1.65z"/>
   <path class="fil0" d="M56.5 30.56l0.16 -1.98 -2.28 -0.1 1.04 -10.55 -2.15 -0.03c-0.09,1.96 -1.58,11.96 -1.16,12.57 0.31,0.44 3.88,0.47 4.4,0.11z"/>
   <path class="fil8" d="M92.07 18.8c2.91,-0.39 4.55,0.44 5.53,-1.31 1.65,-2.92 1.47,-2.97 0.37,-4.82 -0.5,-0.84 -1.27,-2 -1.59,-3.03l-0.52 0.17c0.48,0.1 0.27,-0.1 0.39,0.31 -0.32,0.48 -0.33,0.21 -0.67,0.9 -0.67,1.34 -0.41,1.13 -1.59,3.17 -0.75,1.3 -1.34,3.1 -1.93,4.61z"/>
   <path class="fil3" d="M7.57 29.79c0.23,0.25 -0.02,0.13 0.45,0.22l5.44 -0.14 -1.14 6.27 -1.61 0.34c0.04,0.05 0.1,0.04 0.13,0.1 0.1,0.23 1.04,0.19 1.22,0.21 0.46,2.1 -0.69,2.09 -0.06,3.01 0.88,-0.45 0.08,-0.42 0.86,-2.39l0.33 -0.62c0.27,-0.38 5.98,-0.54 6.8,-0.53 0.64,-0.67 1.09,-1.82 1.96,-2.38 0.54,-0.34 0.6,-0.11 0.59,-0.84 -1.12,-0.32 -1.62,0.23 -1.99,0.99 -0.59,1.18 -0.47,0.9 -1.97,1.11 -1.86,0.26 -3.48,0.59 -5.41,0.87 0.5,-1.66 1.48,-4.43 1.62,-6.24 3.5,-0.51 7.82,-0.1 11.01,-0.66 -0.13,-1.34 -0.87,-0.92 -4.09,-0.58 -1.47,0.16 -3.1,0.38 -4.63,0.43 -1.45,0.05 -8.69,0.33 -9.51,0.82z"/>
   <path class="fil7" d="M79.59 6.74c0.42,-0.69 0.51,-1.28 0.68,-2.3 0.13,-0.81 0.54,-1.59 0.31,-2.41 -0.49,0.04 -2.35,0.96 -2.88,1.25 -0.84,0.46 -4.79,2.86 -5.19,3.55 -0.23,0.4 -0.39,1.06 -0.61,1.53 -0.28,0.61 -0.6,0.97 -0.8,1.69 0.93,-0.14 1.42,-0.51 2.25,-0.84 0.37,-0.15 0.66,-0.29 0.95,-0.43 0.53,-0.25 0.68,-0.21 1.17,-0.38 1.08,-0.37 2.97,-1.57 4.12,-1.67z"/>
   <path class="fil9" d="M74.66 35.41c0.54,-0 1.64,0.92 1.93,1.09 0.46,0.27 2.1,0.86 1.51,1.41 -0.67,0.63 -3.63,-0.7 -3.44,-2.51zm8.31 1.95c0.26,-0.79 1.68,-1.52 2.32,-2.07l2.4 -1.73c0.03,0.38 -0.15,1.27 -0.21,1.75 -0.12,0.89 -0.26,0.96 -0.94,1.25 -1.33,0.56 -0.51,0.99 -3.57,0.79zm-2.9 0.27c-1.08,-1.74 -1.18,-2.8 -0.42,-4.95 -0.8,0.17 -0.81,0.75 -0.85,2.49 -0.04,1.63 0.48,1.52 0.78,2.56 -0.84,-0.01 -1.49,-0.75 -1.87,-1.39 -0.5,-0.84 -0.56,-1.92 -0.57,-3 -0.26,0.08 -0.12,0.04 -0.34,0.2l-0.37 0.31c-0.02,0.02 -0.07,0.06 -0.1,0.09l0.96 2.49c-0.76,-0.16 -0.96,-0.53 -1.38,-0.9 -0.37,-0.32 -0.79,-0.62 -1.17,-0.98 -0.85,-0.8 -0.8,-1.7 -2.49,-1.89l0.64 0.52c1.34,0.94 1.24,1.05 1.14,2 -0.15,1.54 0.82,2.2 1.83,2.69 0.77,0.38 1.01,0.4 1.95,0.41 1.83,0.02 2.29,0.86 3.91,-0.12 0.92,-0.56 0.94,-0.25 2.08,-0.19 3.01,0.15 4.35,-1.96 5.28,-3.97 1.56,-3.38 4.07,-2.92 5.63,-3.54 -0.6,-1.64 -2.96,-0.63 -4.15,0.1 -1.72,1.07 -3.44,2.5 -4.8,3.97l-2.36 1.93c-0.38,0.2 -0.65,0.2 -1.08,0.45 -0.87,0.51 -0.93,0.88 -2.24,0.73z"/>
   <path class="fil3" d="M47.2 11.04c-0.02,-0.03 -0.04,-0.13 -0.04,-0.11 -0.01,0.02 -0.03,-0.09 -0.04,-0.11 -0.22,-0.7 -0.14,-0.93 -0.76,-0.92 -0.37,0.98 0.11,2.2 -0.01,3.26 -0.08,0.71 -0.5,2.01 -0.8,2.7 -0.81,1.87 -0.88,2.25 -1.42,3.96 -0.16,0.5 -0.54,0.94 0.01,1.13 0.19,-0.42 -0.02,-0.45 0.52,-1.54 0.25,-0.52 0.45,-0.93 0.7,-1.46 0.22,-0.45 0.43,-0.97 0.62,-1.5 0.45,-1.28 0.26,-1.16 0.77,-1.39 0.33,0.88 -0.03,1.72 0.68,2.35 0.53,0.19 3.22,-2.75 3.23,-2.76l1.58 -1.5c0.42,-0.44 0.96,-1.11 1.49,-1.45l-1.53 4.65c-0.41,1.02 -0.5,1.21 -0.23,1.55 0.59,-0.29 1.76,-3.73 2.14,-4.55 0.4,-0.86 2.11,-4.01 2.01,-4.9 -1.22,-0.27 -1.37,0.22 -2.5,1.78 -0.39,0.54 -0.56,0.73 -0.95,1.2 -0.2,0.24 -0.23,0.31 -0.49,0.59 -0.1,0.11 -0.13,0.13 -0.22,0.24l-2.23 2.7c-0.35,0.49 -0.48,0.69 -1.04,1.1 -0.61,0.44 -0.72,0.87 -1.22,0.71 -0.02,-0.04 -0.03,-0.14 -0.03,-0.12l-0.06 -0.25c-0.17,-1.09 -0.23,-2.51 0.15,-3.47 0.46,-1.15 0.91,-2.1 1.36,-3.11 0.18,-0.4 0.65,-1.31 0.7,-1.48 0.25,-0.87 -1.1,-1.97 -1.74,1.1 -0.15,0.74 -0.42,1 -0.67,1.61z"/>
   <path class="fil3" d="M41.37 30.84c1.06,-0.12 1.91,-0.44 3.02,-0.24 -0.21,1.74 -1.94,7.43 -1.95,7.68 -0.01,0.29 -0.04,-0.07 0.01,0.26 0.07,0.45 -0.09,0.06 0.15,0.38 0.44,-0.23 0.38,-0.24 0.6,-0.81 0.8,-2.09 1.12,-3.67 1.86,-5.39 0.87,-2.02 0.38,-1.49 0.34,-2.26 1.34,-0.18 3.77,0.17 4.84,0.58 2.37,0.91 0.34,4.68 -0.64,5.6 -2.41,2.24 -1.37,1.29 -3.34,2.17 -0.66,0.3 -1.22,0.68 -2.11,0.97 -0.81,1.11 -3.65,0.26 -4.81,0.77 0.81,0.86 3.01,0.11 4.12,-0.05 2.23,-0.31 5.09,-1.91 6.49,-3.53 0.97,-1.11 1.59,-1.07 2.25,-2.84 2.83,-7.67 -12.67,-3.8 -13.23,-3.01l2.42 -0.29z"/>
   <path class="fil10" d="M61.89 16.8c0.02,-0.79 0.35,-1.41 1.05,-1.37 0.17,0.77 -0.37,1.21 -1.05,1.37zm-2.12 -4.22c0.28,1.09 0.2,1.1 -0.35,2.09 -0.44,0.79 -0.58,1.29 -1.51,1.53 0.18,-0.97 0.42,-0.96 0.66,-1.78 -0.56,-0.23 -0.41,-0.24 -1.07,-0.13 -0.27,0.84 -0.21,1.98 -1.13,1.88 0.01,-0.39 0.22,-0.8 0.15,-1.12 -0.08,-0.38 -0.49,-0.63 -0.86,-0.31 -0.5,0.43 -0.12,1.53 -1.31,2.04 0.05,-1.26 0.83,-1.29 0.83,-2.5l-0.91 -0.07c-0.34,0.5 -0.32,0.9 -0.42,1.54 -0.03,0.22 -0.12,0.55 -0.15,0.78 -0.09,0.61 -0.23,0.38 0.15,0.78 0.76,0.58 1.44,-0.36 1.8,-0.69 0.72,0.25 0.77,0.11 1.38,0.15 0.23,0.61 0.06,0.38 0.46,0.7 0.92,-0.31 0.74,-1.05 1.77,-1.4 0,1.19 -0.43,3.35 1.14,2.04 0.36,-0.3 0.58,-0.6 0.93,-0.92 2.33,-0.04 0.92,-0.29 2.37,-0.86 0.4,-0.16 1.71,-0.5 1.55,-1.51 -0.86,0.02 -0.27,0.83 -1.67,1.02 0.12,-0.74 0.55,-1.5 -0.42,-1.64 -2.13,-0.32 -1.54,3.7 -3.48,3.67 -0.11,-0.84 1.43,-4.54 1.67,-4.92l8.31 -0.71c-0.19,-0.59 0.06,-0.68 -1.64,-0.52 -1.82,0.16 -4.55,0.56 -6.1,0.48 -0.2,-0.42 -0.15,-1.48 -1.09,-0.74 -0.49,0.39 0.25,0.21 -1.1,1.13z"/>
   <path class="fil7" d="M92.07 18.8c0.59,-1.51 1.18,-3.31 1.93,-4.61 1.18,-2.05 0.92,-1.83 1.59,-3.17 0.34,-0.68 0.35,-0.42 0.67,-0.9 -0.12,-0.42 0.09,-0.22 -0.39,-0.31 -1.55,0.16 -5.53,5.35 -6.7,6.62 -0.62,0.67 -1.79,1.68 -2.01,2.61l4.92 -0.24z"/>
   <path class="fil0" d="M9.45 19.43l1.79 0.12c0.3,1.9 -0.93,6.95 -0.9,9.36l2.05 -0.07c0.47,-1.32 0.9,-7.12 1.11,-8.88l-0.66 -0.39c-1.04,-0.59 -0.01,-1.25 -0.12,-2.16 -0.76,-0.25 -2.22,-0.23 -3.14,-0.06 -0.19,0.61 -0.36,1.42 -0.13,2.08z"/>
   <path class="fil11" d="M89.48 7.53c0.05,0.1 0.26,-0.19 0.01,0.46 -0.1,0.28 -0.23,0.34 -0.41,0.51 -0.58,0.57 -2.15,2.27 -2.41,2.82 -0.28,0.59 0.2,2.19 0.48,2.66l1.55 1.98c0.44,-0.28 0.53,-0.47 0.85,-0.99 0.35,-0.55 0.39,-0.52 0.9,-0.95l1.8 -2.05c0.16,-0.48 -0.63,-1.56 -1.11,-2.59 -0.22,-0.46 -0.44,-0.75 -0.66,-1.18 -0.4,-0.75 -0.25,-0.71 -1.02,-1.01l0.03 0.34z"/>
   <path class="fil10" d="M15.2 9.34c-1.11,0.68 -5.88,-0.01 -7.19,0.63 0.36,0.34 0.97,0.25 1.54,0.24l5.45 -0.02c0.03,1.2 -0.85,3.22 -1.01,4.55 -0.27,2.21 -1.45,3.86 -0.75,4.38 0.7,-0.65 2.55,-8.6 3.23,-8.92 0.36,-0.17 10.55,-0.26 12.61,-0.28 0.79,-0.01 1.02,0.1 1.34,-0.4 -0.24,-0.87 -1.66,-0.59 -3,-0.55 -1.17,0.04 -2.34,0.09 -3.52,0.17 -2.49,0.18 -4.8,0.24 -7.31,0.24 0.11,-0.94 1.47,-2.6 0.03,-2.71 -1.5,-0.11 -0.33,1.63 -1.42,2.68z"/>
   <path class="fil12" d="M79.59 6.74c0.93,0.06 1.56,1.15 2.31,1.57l-0.3 0.07c0.03,0.03 0.08,0.03 0.09,0.09 0.02,0.06 0.08,0.07 0.1,0.08 0.3,0.18 0.08,0.06 0.37,0.18 0.38,-0.31 0.84,0.13 1.25,0.36 0.43,0.24 0.98,0.42 1.23,0.76l0.24 0c0.02,-0.58 0.19,-0.98 0.29,-1.43 0.13,-0.56 0.14,-1.06 0.24,-1.64 -0.03,-0.04 -0.07,-0.14 -0.08,-0.12l-0.23 -0.68c-0.03,-0.3 0.06,-0.73 0.07,-1.08l-0.54 -0.4c-1.2,-0.7 -1.93,-1.34 -2.83,-1.78l-0.88 -0.51c-0.33,-0.19 0.19,0.02 -0.35,-0.17 0.23,0.82 -0.17,1.6 -0.31,2.41 -0.17,1.02 -0.26,1.61 -0.68,2.3z"/>
   <path class="fil0" d="M1.69 41.36c0.45,0.19 0.92,0.1 1.52,0.15 0.24,1.13 -1.05,8.63 -0.81,10.51l1.31 0.09c0.79,-1.39 0.71,-9.72 1.26,-10.45 0.41,-0.28 1.06,-0.09 1.75,-0.23 0.23,-1.12 0.08,-1.76 -0.03,-1.56l-0.97 -0.14c-0.46,-0.01 -0.93,-0.01 -1.39,-0.01 -0.87,-0.01 -1.76,-0.08 -2.63,0.01 -0.07,0.6 -0.22,1.12 -0.01,1.64z"/>
   <path class="fil13" d="M77.57 40.81l-0.01 0.54c0.37,0.83 1.77,0.78 2.18,0.69l0.49 -0.27c0.02,-0.02 0.07,-0.06 0.08,-0.07 0.02,-0.01 0.05,-0.05 0.08,-0.07 0.34,0.38 0.06,0.14 0.49,0.31l-0.16 0.32c-0.09,0.2 -0.13,0.07 -0.13,0.38 3.99,1.65 3.02,2.46 7.57,2.57 -0.02,-1.23 -0.01,-2.87 -0.55,-3.8 -1.14,-0.07 -2.29,0.27 -3.32,0.56 0.04,0.66 0.43,1.09 -0.06,1.59 -0.21,-0.42 -0.09,-0.55 -0.19,-1 -0.17,-0.78 -0.25,-0.48 -0.63,-0.78 0.23,-0.09 0.69,0.13 0.18,-1.23 -0.79,-0.22 -1.12,-0 -1.86,0.09 -0.49,0.06 -0.76,0.02 -1.13,0.24l-0.27 0.22c-0.02,0.02 -0.06,0.06 -0.09,0.08 -0.48,-0.26 -1.98,-0.85 -2.67,-0.4z"/>
   <path class="fil8" d="M72.18 19.03c0.99,0 1.84,-0.12 2.84,-0.05 1.46,0.1 7.71,0.25 8.39,0.01l0.21 -2.71c-0.39,-0.33 -0.89,-0.44 -1.35,-0.8 -0.47,-0.36 -2.72,-2.02 -3.22,-2.19 -0.58,-0.19 -0.6,-0.3 -0.97,0.09 0.43,0.03 0.16,-0.08 0.44,0.13l-0.54 5.38c-1.85,0.2 -4.17,-0.58 -5.79,0.14z"/>
   <path class="fil7" d="M85.07 3.36c0.5,0.44 0.61,0.22 0.65,1.06 0.03,0.7 -0.2,1.16 -0.04,1.86 0.66,0.23 4.78,0.59 5.32,0.28l3.13 -3.05c-0.97,-0.56 -8.31,-0.86 -9.05,-0.15z"/>
   <path class="fil11" d="M82.17 8.72c-0.29,-0.12 -0.07,-0 -0.37,-0.18 -0.03,-0.02 -0.08,-0.03 -0.1,-0.08 -0.02,-0.05 -0.06,-0.06 -0.09,-0.09 -0.68,-0.12 -0.89,-0.67 -1.68,-0.87l-0.64 5.08c0.43,0.51 3.86,2.82 4.35,2.96l0.33 -5.47c-0.35,-0.23 -0.56,-0.4 -0.9,-0.62 -0.17,-0.11 -0.27,-0.16 -0.47,-0.3 -0.09,-0.07 -0.17,-0.13 -0.24,-0.2 -0.17,-0.17 -0.1,-0.08 -0.18,-0.23z"/>
   <path class="fil14" d="M77.65 8.08c0.26,0.2 0.25,-0.36 0.19,0.41 -1.01,0.21 -1.97,1.29 -3.2,2.34 -0.6,0.51 -1.1,0.68 -1.65,1.12 -0.87,0.7 -0.38,1.03 -0.6,2.29 1.39,-0.09 4.7,-1.21 6.4,-1.73 0.21,-0.73 0.28,-1.76 0.35,-2.54 0.1,-1.09 0.47,-1.7 0.5,-2.61 -0.69,0.06 -1.48,0.42 -1.99,0.74z"/>
   <path class="fil3" d="M55.39 36.96l0.06 1.91c1.27,-0.47 2.13,-2.11 3.43,-2.18 0.01,0.92 -0.11,1.49 0.62,1.94 1.63,-0.01 1.37,-0.52 2.15,-1.31 0.62,-0.63 1.25,-1.08 1.47,-2.09 -1.38,0.35 -1.94,2.98 -3.63,2.89 -0.15,-1.2 0.59,-0.74 1.37,-1.44 1.3,-1.16 0.26,-3.47 -1.19,-2.11 -0.5,0.47 -0.31,0.8 -0.72,1.28 -0.3,0.36 -2.02,1.43 -2.59,1.55l0.62 -2.55 -1.16 -0.04c-0.62,1.01 -0.1,1.04 -1.04,1.94 -0.45,0.42 -0.96,1.21 -1.72,1.18 -0.52,-1.3 1.41,-0.67 1.85,-2.5 0.45,-1.89 -1.31,-1.75 -2.17,-0.57 -0.53,0.72 -0.91,3.01 -0.13,3.55 1.17,0.82 2.26,-1.29 2.81,-1.45z"/>
   <path class="fil8" d="M84.46 12.67c0.73,-0.18 0.3,-0.13 0.87,-0.37 -0.21,0.78 -0.69,0.55 -0.89,1.26 -0.07,0.24 -0.13,1.52 -0.17,1.94 -0.06,0.63 -0.2,1.47 -0.24,1.9 -0.05,0.55 0.07,0.29 0,0.83 -0.05,0.42 -0.15,0.29 -0.16,0.73 0.76,0.19 1.75,0.24 2.51,0.08 0.71,-0.81 1.27,-1.59 1.8,-2.46 -0.19,-0.45 -0.31,-0.38 -0.52,-0.81l-1.41 -3.03c-0.99,0.15 -0.24,0.24 -1.02,0.69 0.48,-0.72 0.76,-0.46 0.43,-1.68l-1.05 -0.14 -0.16 1.05z"/>
   <path class="fil15" d="M41.37 30.84c0.4,0.41 -0.57,0.33 0.61,0.34l0.15 0.02 1.49 -0.11c-0.24,2.09 -1.14,4.09 -1.42,6.36 -0.13,1.09 -0.55,1.2 0.1,1.99l0.9 -0.04c0.01,-0.07 0.65,-1.39 0.8,-1.86 0.26,-0.79 0.38,-1.5 0.67,-2.26l1.53 -4.33c0.46,-0.05 1.28,0.26 2.07,0.27 2.54,0.05 3.36,0.55 1.56,4.15 -0.34,0.68 -1.73,1.93 -2.45,2.45 -0.75,0.54 -2.96,1.38 -3.33,1.84l0.07 0.13c0.89,-0.3 1.45,-0.68 2.11,-0.97 1.97,-0.88 0.93,0.08 3.34,-2.17 0.99,-0.92 3.02,-4.69 0.64,-5.6 -1.07,-0.41 -3.49,-0.76 -4.84,-0.58 0.03,0.77 0.52,0.24 -0.34,2.26 -0.74,1.72 -1.06,3.31 -1.86,5.39 -0.22,0.57 -0.16,0.58 -0.6,0.81 -0.24,-0.32 -0.08,0.07 -0.15,-0.38 -0.05,-0.33 -0.02,0.03 -0.01,-0.26 0.01,-0.25 1.74,-5.94 1.95,-7.68 -1.1,-0.2 -1.96,0.12 -3.02,0.24z"/>
   <path class="fil16" d="M59.71 51.25c1.25,0.3 2.04,0.03 2.19,-1.12 0.2,-1.47 0.82,-7.02 0.7,-7.74l-1.96 -0.09c-0.22,0.63 -1.02,8.35 -0.93,8.95z"/>
   <path class="fil0" d="M95.53 38.62l-0.51 -0.8c-0.45,0.24 -1.12,0.67 -1.61,0.99 -0.51,0.32 -1.09,0.65 -1.58,1.02 0.02,0.45 0.36,1.42 0.53,1.99 0.2,0.66 0.34,1.88 0.47,2.26 0.94,-0.04 2.48,-1.73 2.89,-2.63 0.64,-1.4 0.7,-3.25 0.39,-4.77 -1.33,0.68 -0.55,1.11 -0.59,1.96z"/>
   <path class="fil17" d="M90.59 53.7c3.78,-0.33 8.15,-1.77 9.82,-5.29 0.15,-0.32 0.24,-0.47 0.36,-0.76 0.16,-0.4 0.07,-0.9 0.2,-0.39 0.21,-0.32 0.44,-1.91 0.48,-2.27 0.06,-0.68 0.23,-1.65 0,-2.29l-0.24 0.35c-0.44,0.92 -0.11,1.44 -1.38,3.38 -1.64,2.5 -1.13,2.46 -3.76,4.39 -2.51,1.84 -4.77,2.11 -5.48,2.87z"/>
   <path class="fil6" d="M32.58 43.47c-0.76,6.32 0.05,9.76 -4.26,9.06 -1.43,-0.23 -1.15,-1.91 -1.12,-3.21 0.03,-1.42 0.53,-7.07 0.98,-7.97 0.68,-1.34 1.94,-1.38 3.34,-1.1 1.48,0.29 1.23,1.8 1.06,3.23zm-4.12 9.59c2.52,0 2.21,0.2 3.17,-0.88 0.42,-0.47 0.7,-0.67 0.79,-1.49 0.16,-1.51 0.28,-2.89 0.42,-4.38 0.07,-0.74 0.01,-1.43 0.1,-2.2 0.16,-1.37 0.55,-2.71 -0.33,-3.87 -0.63,-0.82 -3.56,-0.67 -4.07,-0.22 -0.23,0.2 -0.96,1.07 -1.08,1.38l-0.92 8.67c-0.1,1.16 0.03,1.15 0.43,1.95 0.44,0.88 0.2,1.04 1.49,1.04z"/>
   <path class="fil0" d="M88.23 41.16c-0.05,1.15 0.11,3.17 0.62,3.99 1.28,0.07 2.71,-0.34 3.65,-0.92 -0.01,-0.87 -0.64,-3.21 -0.93,-4.11 -1,0.07 -2.46,0.74 -3.34,1.04z"/>
   <path class="fil17" d="M106.44 36.79c-0.39,-2.55 -1.8,-3.48 -1.9,-6.39 -0.05,-1.3 -0.35,-2.19 -0.91,-3.25 -0.57,-1.08 -0.74,-2.07 -1.88,-2.36 -0.36,1.37 -0.06,2.85 0.7,3.84 0.72,0.95 1.51,1.53 1.28,3.46l-0.74 0.29c-0.33,0.16 -0.05,-0.05 -0.29,0.17 0.13,0.96 1.21,1.63 1.78,2.19 0.35,0.34 0.61,0.74 0.97,1.03 1.38,1.12 0.4,0.37 0.98,1.01z"/>
   <path class="fil12" d="M98.68 12.12c0.77,1.36 0.96,1.32 1.24,1.84 -0.51,0.94 -0.65,-0.05 -0.29,1.43 -1.03,0.68 -1.03,1.09 -1.23,2.66 1.52,-0.29 1.66,0.25 2.51,-0.94 0.26,-0.36 0.48,-0.63 0.82,-0.88 0.48,-0.37 0.59,-0.26 0.98,-0.89 -0.48,-1.83 -1.51,-2.5 -2.26,-4.27 -0.14,-0.33 0.02,-0.1 -0.15,-0.32 -0.15,0.65 -0.14,0.36 -0.66,0.78 -0.47,0.38 -0.23,0.4 -0.95,0.59z"/>
   <path class="fil2" d="M72.4 14.23c0.22,-1.26 -0.27,-1.59 0.6,-2.29 0.54,-0.44 1.05,-0.61 1.65,-1.12 1.23,-1.05 2.19,-2.13 3.2,-2.34 0.06,-0.77 0.07,-0.21 -0.19,-0.41 -2.27,0.72 -4.47,2.01 -5.44,2.28 -2.51,0.69 -1.15,0.76 -1.66,2.17 -0.14,0.4 -1.2,0.74 -1.46,2.57l3.31 -0.88z"/>
   <path class="fil1" d="M78.57 44.39c0.7,0.65 1.16,0.13 2.34,0.71 2.02,0.99 1.9,2.05 6.3,3.22 3.54,0.94 8.17,-0.44 8.79,-3.7 -1.45,0.32 -4.32,3.69 -9.02,2.88 -1.64,-0.28 -2.89,-0.85 -4.29,-1.73 -1.09,-0.69 -2.51,-2.11 -4.13,-1.38z"/>
   <path class="fil18" d="M31.02 41.93l-1.56 0.04c-0.29,0.93 -0.51,5.3 -0.71,7.17 -0.11,0.96 -0.5,1.63 0.63,1.7 1.3,0.08 1.03,-0.89 1.33,-3.88 0.17,-1.65 0.44,-3.33 0.31,-5.04z"/>
   <path class="fil18" d="M66.45 51.26c1.89,0.64 1.51,-0.16 1.92,-3.39 0.19,-1.52 0.6,-4.02 0.35,-5.47l-1.38 -0.09c-0.33,0.53 -1.06,8.32 -0.89,8.94z"/>
   <path class="fil19" d="M84.89 9.84l0.13 0.87c0.48,0.27 0.4,-0.01 0.82,-0.22 0.22,-0.11 0.83,-0.25 1.16,-0.37 0.44,-0.08 0.26,-0.11 0.56,-0.51 0.24,-0.32 0.37,-0.48 0.65,-0.74 0.51,-0.48 1.02,-0.69 1.27,-1.34l-0.03 -0.34c-0.58,-0.24 -3.36,-0.52 -4.03,-0.41 -0.1,0.58 -0.11,1.07 -0.24,1.64 -0.1,0.45 -0.26,0.85 -0.29,1.43z"/>
   <path class="fil0" d="M91.61 39.21c0.63,-0.05 2.76,-1.42 3.12,-2.04 -0.15,-0.51 -1.19,-1.89 -1.51,-2.51 -1.06,0.12 -1.44,0.8 -2.48,1.8 -0.54,0.52 -0.26,0.74 0.08,1.35 0.27,0.49 0.43,0.99 0.8,1.41z"/>
   <path class="fil20" d="M69.91 53.17c0.98,0.09 0.99,-0.14 1.28,-0.93 1.29,-3.53 1.28,-5 1.28,-8.92 0,-1.29 0.29,-3.07 -1.45,-2.57l-0.16 1.54 0.71 0.3c0.36,2.48 0.1,3.38 -0.16,5.71 -0.51,4.62 -1.66,2.15 -1.52,4.88z"/>
   <path class="fil20" d="M18.62 52.36l0.96 -0.09c0.41,-2.93 -2.04,-0.09 0.05,-9.62 0.38,-1.75 1.47,0.08 1.29,-2.55l-1.07 -0.07c-0.23,0.34 -0.83,2.24 -0.99,2.76 -0.52,1.72 -1.41,7.9 -0.24,9.57z"/>
   <path class="fil0" d="M87.47 40.23l0.38 0.52c1.09,-0.08 2.5,-0.72 3.48,-1.06 -0.01,-0.95 -0.7,-1.74 -1.06,-2.55 -0.44,0.06 -2.31,1.31 -2.96,1.69l0.17 1.41z"/>
   <path class="fil6" d="M81.59 35.35c1.21,-0.4 1.71,-1.18 2.38,-2.14 0.65,-0.93 1.24,-1.43 1.83,-2.64 0.22,-0.45 0.48,-0.91 0.83,-1.32 0.43,-0.5 0.57,-0.79 1,-1.31 0.89,-1.08 2,-0.76 3.52,-0.74 -0.52,-1.19 -2.15,-1.37 -3.31,-0.44 -0.85,0.68 -1.74,1.64 -2.15,2.75 -0.47,1.27 -1.95,3.56 -2.84,4.56 -0.48,0.55 -0.95,0.71 -1.25,1.27z"/>
   <path class="fil16" d="M8.65 45.3l1.98 0.05c0.21,-0.76 0.5,-2.86 0.27,-3.66 -2.09,-0.19 -1.93,0.08 -2.04,0.79 -0.12,0.82 -0.38,2.02 -0.21,2.83z"/>
   <path class="fil18" d="M50.08 42.3c-0.67,-0.15 -1.41,-0.18 -2.07,-0.02 -0.16,0.83 -0.05,1.53 -0.16,2.36 -0.15,1.23 -0.32,1.35 1.04,1.32 1.31,-0.02 0.96,-0.19 1.03,-1.42 0.04,-0.76 0.23,-1.5 0.16,-2.25z"/>
   <path class="fil21" d="M82.97 37.36c3.06,0.2 2.23,-0.24 3.57,-0.79 0.68,-0.29 0.82,-0.36 0.94,-1.25 0.07,-0.48 0.24,-1.37 0.21,-1.75l-2.4 1.73c-0.64,0.55 -2.06,1.27 -2.32,2.07z"/>
   <path class="fil0" d="M103.92 47.39c-0.25,1.77 0.71,3.55 2.46,3.39 0.4,0.05 0.71,0.14 1.15,0.01 -0.07,-1 -0.29,0.1 -1.62,-2.11 -0.32,-0.53 -0.99,-2.03 -1.69,-2.1 -0.21,0.32 -0.17,0.29 -0.3,0.8z"/>
   <path class="fil0" d="M93.3 34.4l1.7 2.31c1.42,-0.38 1.41,-3.38 1.41,-3.38 -0.38,-1.04 -2.85,0.53 -3.11,1.07z"/>
   <path class="fil22" d="M109.76 50.96c1.93,-0.62 1.03,-2.22 0.21,-3.41 -0.44,-0.64 -0.68,-0.9 -1.21,-1.54 -0.57,-0.68 -0.36,-1.24 -1.05,-1.78 0.18,0.85 -0.03,1.22 0.31,1.91 0.24,0.48 0.42,1.06 0.68,1.47 1.4,2.27 0.54,1.24 0.91,2.94 0.01,0.06 0.03,0.09 0.04,0.14 0.01,0.05 0.04,0.1 0.05,0.14 0.01,0.04 0.03,0.1 0.06,0.14z"/>
   <path class="fil1" d="M41.57 45.73c1.51,0.36 1.67,0.25 1.77,-1.02 0.06,-0.72 0.28,-1.85 0.21,-2.5 -1.31,-0.24 -1.69,-0.35 -1.81,0.86 -0.08,0.84 -0.3,1.88 -0.17,2.66z"/>
   <path class="fil18" d="M22.99 45.41c1.1,0.32 1.64,0.22 1.76,-0.86 0.09,-0.81 0.27,-1.76 0.16,-2.62l-1.47 -0.15c-0.25,0.61 -0.59,2.91 -0.44,3.62z"/>
   <path class="fil16" d="M4.66 22.73l1.83 0.06 0.32 -3.28c-2.2,-0.19 -1.9,0.02 -2.02,1.24 -0.06,0.66 -0.19,1.29 -0.14,1.98z"/>
   <path class="fil1" d="M42.53 50.93c0.31,-0.64 0.49,-2.54 0.4,-3.31 -1.81,-0.65 -1.68,0.15 -1.84,1.56 -0.18,1.53 -0.56,2.07 1.44,1.76z"/>
   <path class="fil0" d="M70.06 22.45l0.47 0.07c0.42,-0.57 0.88,-0.69 1.41,-1.18 0.74,-0.68 0.8,-0.65 1.98,-0.83 0.39,-0.11 0.2,-0.04 0.58,-0.29l0.55 -0.44c-1.32,-0.11 -3.38,-0.03 -4.65,0.22l-0.35 2.44z"/>
   <path class="fil0" d="M87.47 40.23l-0.46 -0.93c-0.75,-0.04 -2.54,0.77 -3.09,1.1 -0.14,1.13 0.25,1.37 1.27,1.14 0.77,-0.17 1.43,-0.37 2.27,-0.52l0.01 -0.79z"/>
   <path class="fil13" d="M74.02 42.51c0.37,0.33 0.1,-0.32 0.38,0.52l0.51 -0 2.67 -0.68 -0.1 -0.19c-0.35,-0.09 -0.49,-0.1 -0.8,-0.16 -0.55,-0.11 -0.42,0.02 -0.68,-0.31 -0.21,-0 -1.45,-0.16 -1.71,-0.22 -0.69,-0.17 -0.53,-0.48 -1.61,-0.63 0.08,0.86 0.69,1.24 1.35,1.69z"/>
   <path class="fil22" d="M89.64 19.74c-0.02,0.48 0.02,0.41 -0.25,0.75l-0.48 0.45c-0.02,0.02 -0.05,0.05 -0.07,0.09 0.55,0.27 1.92,0.31 2.45,-0.06 -0.38,-0.5 3.27,-1.23 3.51,-1.32 -0.03,-0.03 -0.08,-0.09 -0.1,-0.06l-5.06 0.15z"/>
   <path class="fil0" d="M76.47 41.64l0.74 0.13 -0.07 -1.12c-0.42,-0.18 -3.13,-1.16 -3.33,-1.18 0.18,1.89 0.88,1.82 2.66,2.17z"/>
   <path class="fil21" d="M78.1 37.91c0.59,-0.56 -1.04,-1.14 -1.51,-1.41 -0.3,-0.17 -1.4,-1.09 -1.93,-1.09 -0.2,1.81 2.77,3.14 3.44,2.51z"/>
   <path class="fil13" d="M15.52 19.5c0.2,-0.35 0.32,-1.08 0.3,-1.57 -0.03,-0.76 -0.55,-0.6 -1.36,-0.59 -0.42,1.1 -1.36,2.93 1.06,2.16z"/>
   <path class="fil13" d="M73.79 40.7c-0.01,-0.51 -0.23,-1.3 -0.54,-1.76 -0.25,-0.36 -0.93,-0.96 -1.3,-1.07l-0.14 0.52c-0.11,1.53 0.33,2.12 1.99,2.31z"/>
   <path class="fil22" d="M81.39 23.54l3.37 0.01c-0.42,-0.65 -1.7,-1.32 -2.31,-1.67l0.48 -0c-0.91,-0.78 -0.4,0.47 -1.16,1.3l-0.38 0.36z"/>
   <path class="fil3" d="M66.43 15.19l1.66 0.5c0.37,-0.85 0.7,-1.44 0.85,-2.43 -0.35,0.14 -2.35,1.19 -2.52,1.93z"/>
   <path class="fil22" d="M70.06 22.45l-0.04 0.71c0.62,-0.22 1.24,-0.68 1.94,-1.05 0.61,-0.33 1.45,-0.53 1.93,-0.99l-0.32 -0.04c0.2,-0.32 0.22,-0.32 0.37,-0.57 -1.19,0.19 -1.25,0.15 -1.98,0.83 -0.53,0.49 -0.99,0.61 -1.41,1.18l-0.47 -0.07z"/>
   <path class="fil23" d="M64.93 53.42c-0.28,0.49 -1.35,0.11 -1.87,-0.04l-0.05 -0.41c-0.22,0.19 -0.49,0.39 -0.7,0.64 1.19,0.9 3.3,0.76 4.56,0.16 -0.5,-0.25 -1.24,-0.2 -1.94,-0.35z"/>
   <path class="fil3" d="M98.68 12.12c0.72,-0.19 0.49,-0.21 0.95,-0.59 0.52,-0.42 0.51,-0.13 0.66,-0.78l-2.37 -0.22c0.19,0.6 0.66,1.2 0.76,1.59z"/>
   <path class="fil20" d="M87.01 10.12c-0.33,0.12 -0.93,0.27 -1.16,0.37 -0.42,0.21 -0.34,0.48 -0.82,0.22l-0.13 -0.87 -0.24 0 0.1 1.05c0.46,0.25 0.93,0.41 1.45,0.41 0.31,-0.41 0.52,-0.69 0.81,-1.17z"/>
   <path class="fil24" d="M57.84 12.43c0.15,0.4 0.1,0.28 0.31,0.54 0.7,0.03 0.97,-0.06 0.83,-0.8 -0.64,-0.39 -0.82,-0.21 -1.14,0.26z"/>
   <path class="fil25" d="M61.89 16.8c0.68,-0.16 1.21,-0.59 1.05,-1.37 -0.7,-0.05 -1.03,0.58 -1.05,1.37z"/>
   <path class="fil26" d="M76.47 41.64l-0.47 0.04c0.26,0.33 0.13,0.21 0.68,0.31 0.31,0.06 0.45,0.07 0.8,0.16 -0.17,-0.37 -0.24,-0.39 0.09,-0.8l0.01 -0.54c-0.2,-0.1 -0.21,-0.07 -0.44,-0.16l0.07 1.12 -0.74 -0.13z"/>
   <path class="fil27" d="M26.92 15.88c0.39,-0.1 0.53,-0.6 0.67,-1.11 0.16,-0.61 0.01,-0.42 -0.05,-0.55 -0.36,0.2 -0.16,-0.03 -0.36,0.34 -0.19,0.37 -0.47,1 -0.26,1.32z"/>
   <path class="fil4" d="M89.34 29.64c-0.61,-0.67 -1.11,-0.21 -1.04,0.11 0.03,0.16 0.66,0.75 1.04,-0.11z"/>
   <path class="fil28" d="M63.76 51.61c0.24,0 0.17,0.05 0.17,-0.21 0.02,0.04 0.08,0.04 0.1,0.09 0.13,0.51 -0.09,-0.11 0.23,0.19 -0.17,-1.26 0.35,-1.06 -0.15,-1.68 -0.13,0.19 -0.13,0.08 -0.21,0.39l-0.14 1.22z"/>
   <path class="fil15" d="M20.86 15.55c0.48,-0.03 0.68,-0.44 0.66,-0.82 -0.03,-0.8 -0.02,-0.23 -0.18,-0.46 -0.31,0.28 -0.57,0.64 -0.49,1.28z"/>
   <path class="fil4" d="M71.12 34.4c0.34,0.29 -0.46,0.21 0.37,0.24 1.04,0.03 0.17,0.06 0.51,-0.24 -0.52,-0.72 -0.56,-0.28 -0.89,0z"/>
   <path class="fil29" d="M58.6 13.96c0.83,0.65 0.66,0.01 0.68,0 -0.18,-0.12 0.04,-0.2 -0.38,-0.17 -0.36,0.03 -0.15,0.04 -0.3,0.17z"/>
   <path class="fil27" d="M36.26 15.07c0.53,-0.17 0.51,-0.07 0.34,-0.55 -0.46,0.28 -0.23,-0.14 -0.34,0.55z"/>
  </g>
 </g>
</svg>
