<?xml version="1.0" encoding="UTF-8"?>
<!DOCTYPE svg PUBLIC "-//W3C//DTD SVG 1.1//EN" "http://www.w3.org/Graphics/SVG/1.1/DTD/svg11.dtd">
<!-- Creator: CorelDRAW -->
<svg xmlns="http://www.w3.org/2000/svg" xml:space="preserve" width="21.1667mm" height="25.4mm" version="1.1" style="shape-rendering:geometricPrecision; text-rendering:geometricPrecision; image-rendering:optimizeQuality; fill-rule:evenodd; clip-rule:evenodd"
viewBox="0 0 26.04 31.24"
 xmlns:xlink="http://www.w3.org/1999/xlink"
 xmlns:xodm="http://www.corel.com/coreldraw/odm/2003">
 <defs>
  <style type="text/css">
   <![CDATA[
    .fil0 {fill:#282829}
    .fil1 {fill:#CC9933}
    .fil2 {fill:red}
    .fil3 {fill:white}
   ]]>
  </style>
 </defs>
 <g id="Camada_x0020_1">
  <metadata id="CorelCorpID_0Corel-Layer"/>
  <g id="_2482631272288">
   <path class="fil0" d="M20.47 0l0.34 0c0.1,0.02 0.2,0.07 0.31,0.15 1.35,0.94 1.29,0.53 1.59,1.47 0.29,0.93 1.14,4.17 1.14,5.03 -0.34,0.19 -0.88,0.34 -1.28,0.49 -0.41,0.15 -0.91,0.29 -1.37,0.4 0.04,0.46 0.04,-0.01 0.76,0.77 0.16,0.17 0.2,0.27 0.36,0.45 0.71,0.83 0.55,1.96 -0.02,2.83l-0.19 0.21c-0.26,0 -0.26,-0.02 -0.45,-0.07 -0.24,-0.22 -0.2,-0.18 -0.55,-0.24 -0.13,-0.02 -0.39,-0.08 -0.53,-0 -0.23,0.13 -0.02,0.11 -0.02,0.11 0.77,1.22 2.54,2.02 2.52,4.8 -0,0.18 -0.01,0.38 -0.01,0.55 0.01,0.6 0.19,0.56 0.22,0.59 0.37,0.38 0.23,1.17 0.29,1.62 0.09,0.69 -0.21,1.35 -0.52,1.68 -0.55,0.59 -0.61,0.5 -1.36,0.82 -0.42,0.18 -1.36,0.29 -1.79,0.29 -0.18,0.02 -0.14,0.01 -0.26,0.07 0,0.35 -0,0.11 0.06,0.21l0.32 1.23c0.67,0 0.9,0.38 0.9,1.1l1.23 0c0.07,0.14 0.05,0.06 0.06,0.27 0.33,0 0.11,0 0.19,-0.07 0.43,-0.31 0.68,-0.21 1.42,-0.21 0.4,0 0.77,-0.05 1.15,0.08l0.27 0.13c0.12,0.2 0.33,0.28 0.52,0.41 0.16,0.12 0.23,0.36 0.26,0.65l0 1.27 0 0.03 0 1.03c-0.01,0.36 -0.04,0.71 -0.13,0.99 -0.39,1.19 -2.19,0.73 -3.16,0.49l0 1.51 -2.67 0.02c-1.13,-0.23 -0.9,-1.25 -1.4,-1.39l-3.49 0 -0.39 0 -0.15 -0.12c-0.01,-0.01 -0.03,-0.02 -0.04,-0.03 -0.07,-0.05 -0.05,-0.04 -0.12,-0.1 -0.04,0.15 -0.04,0.15 -0.09,0.25l-3.23 0.07c0,0.98 0.15,1.33 -0.27,1.44l-3.16 0 -0.03 0 -0.7 0c-0.29,-0.02 -0.54,-0.08 -0.74,-0.29 -0.24,-0.24 -0.49,-0.78 -0.53,-1.22 -0.49,0.12 -0.67,0.14 -1.29,0.14 -0.16,-0.25 -0.36,-0.73 -0.39,-1.1 -0.08,-1.15 0,-0.57 -0,-1.37 -0,-1.01 -0,-2.01 -0,-3.02l3.43 0 0 0.34c0.27,-0.07 0.31,-0.15 0.65,-0.2 0.55,-0.08 1.82,-0.09 2.26,0.14 0,-0.91 0.1,-1.23 0.97,-1.23 0,-0.42 0.01,-0.59 0.13,-0.89 0.13,-0.33 0.19,-0.33 0.19,-0.82 -0.32,0 -1.03,0.06 -1.25,0.18 -0.63,0.34 -0.61,0.05 -1.16,0.21 -1,0.28 -0.57,-0.16 -1.07,-0.18 -0.11,-0 -0.68,0.14 -1.23,0.14 -0.18,-0.35 -0.6,-0.9 -0.32,-1.51 -0.33,0.08 -0.55,0.15 -0.87,0.25 -1.5,0.46 -1.73,0.6 -2.1,-0.66 -0.17,-0.6 -0.33,-1.19 -0.44,-1.87 -0.16,-1 0.6,-0.93 1.01,-1.14 0,-0.39 -0.06,-0.47 -0.06,-0.89 0.45,-0.04 0.87,-0.31 1.29,-0.34 0.13,0.3 0.18,0.61 0.26,0.96 0.28,-0.02 0.3,-0.21 0.98,-0.47 0.36,-0.14 1.41,-0.48 1.7,0.03 0.08,0.15 0.16,0.35 0.21,0.53 0.11,0.42 0.14,0.86 0.41,1.07 0.07,-0.31 0.12,-0.19 0.13,-0.61 0.03,-1.21 -0.09,-2.03 0.29,-3.18 0.08,-0.23 0.11,-0.27 0.18,-0.49 0.06,-0.2 0.1,-0.35 0.17,-0.51 -0.35,0.03 -2.84,0.92 -3.42,1.11 -0.83,0.26 -0.76,0.03 -1.17,-0.01l-0.3 -0.3c-0.21,-0.25 0.01,-0.12 -0.34,-0.26 -0.16,-0.06 -0.03,0.01 -0.19,-0.08 -0.07,-0.04 -0.13,-0.09 -0.19,-0.14 -0.18,-0.16 -0.17,-0.19 -0.27,-0.39 -0.39,0.1 -1.01,0.38 -1.36,0.41 -0.06,-0.13 -0.19,-0.56 -0.19,-0.75 -0.27,0 -0.41,0.05 -0.58,0.14 -0.17,-0.12 -0.13,-0.03 -0.19,-0.27 -0.16,-0.75 -0.82,-2.82 -1.02,-4.07 -0.04,-0.06 -0.08,-0.13 -0.12,-0.21 -0.17,-0.34 -0.35,-0.87 -0.42,-1.17 -0.07,-0.3 -0.04,-0.38 0.02,-0.43 0.05,-0.05 0.12,-0.08 0.19,-0.1 0.02,-0 0.03,-0.01 0.05,-0.01 0.05,-0.06 0.12,-0.09 0.28,-0.1 0.42,-0.1 0.61,-0.01 0.97,-0.2 0.42,-0.22 1.72,-0.75 2.19,-0.61 0.31,0.09 0.08,0.12 0.46,0.13 0.05,-0.2 0.03,-0.11 0.13,-0.27 0.33,-0.24 0.2,-0.28 0.79,-0.53 0.31,-0.13 0.6,-0.2 0.93,-0.32 1.73,-0.62 0.9,-0.18 2.03,-0.18 0.22,-0.43 0.25,-0.48 0.69,-0.71 0.47,-0.24 1.31,-0.38 1.96,-0.66 0.4,-0.17 0.54,-0.21 1.1,-0.21 0.04,0.2 -0.01,0.1 0.13,0.21 0.05,-0.18 -0.01,-0.06 0.06,-0.21l0.39 -0.27c-0.01,-0.26 -0.08,-0.53 -0.13,-0.75 0.54,-0.3 1.94,-1.32 2.52,-1.37 0.08,0.17 0.07,0.4 0.26,0.82 0.25,-0.06 0.27,-0.14 0.52,-0.21 0.1,0.16 0.13,0.21 0.26,0.34l2.29 -0.72c0.34,-0.12 0.48,-0.07 0.85,-0.12 0.61,-0.1 1.03,-0.62 1.5,-0.73z"/>
   <path class="fil1" d="M13.11 19.77c-0.16,0.26 -0.04,0.84 0.04,1.06 -0.01,-0.42 -0.04,-0.13 0.12,-0.24 0.04,0.5 0.41,0.28 0.81,0.23l3.26 -0.23c0,-0.4 -0.03,-0.75 0.2,-0.95 0.27,-0.23 0.64,-0.17 0.87,0.02 0.06,-0.25 0.19,-0.52 0.48,-0.59 0.32,-0.08 0.44,0.17 0.62,0.35 0.2,-0.21 0.44,-0.46 0.91,-0.25 0.37,0.16 0.44,0.42 0.64,0.76 0.39,0.65 0.68,0.62 1.34,0.39 0.3,-0.1 0.29,-0.01 0.48,-0.25 -0.13,-0.03 -0.11,-0.01 -0.2,-0.07l0.06 -1.36 -0.07 -0.07c-0.06,-0.05 -0.03,-0.04 -0.12,-0.09 -0.47,-0.26 -8.01,0.93 -8.3,0.97 -0.24,0.04 -0.41,0.05 -0.63,0.08 -0.12,0.02 -0.18,0.02 -0.27,0.06l-0.25 0.17z"/>
   <path class="fil2" d="M14.92 24.39c0.43,0 0.62,-0.06 0.97,-0.07 0.85,-0.03 0.87,-0.12 0.71,-0.82 -0.36,0.01 -0.58,0.18 -0.9,0.27 -0.84,0.24 -0.78,0.18 -0.78,0.62zm-7.88 0.21c-1.3,0 -1.11,-0.15 -1.1,0.96 0.01,0.61 0.14,0.75 -0.39,0.75l0 -1.3c0,-0.59 -0.43,-0.38 -0.97,-0.42 -0.24,-0.02 -0.3,-0.11 -0.36,0.17l-0.03 3.68c0,0.34 0.06,0.31 0.06,0.62l1.23 0 0.06 -1.64c0.48,0 0.39,0.06 0.39,0.75l0.01 1.91c0.05,0.25 0.3,0.42 0.44,0.42l3.94 0c0.15,0 0.19,-0.05 0.19,-0.21 0,-0.67 0.09,-0.96 -0.19,-0.96l-2.18 0.03c-0.7,-0.03 -0.87,0.06 -0.92,-0.24l0 -3.15c0,-0.67 0.12,-1.37 -0.19,-1.37zm8.34 3.08c0,-0.29 0.39,-0.52 0.39,-0.14l0 0.27c0,0.39 -0.39,0.15 -0.39,-0.14zm0 -1.64c0.05,-0.24 0.07,-0.25 0.32,-0.27 0.08,0.18 0.06,-0.08 0.06,0.55 -0.58,0 -1.55,-0.16 -1.62,0.55 -0.04,0.49 -0.13,1.67 0.16,1.96 0.38,0.38 2.03,0.24 2.75,0.24 0,-0.29 0.03,-0.47 0.05,-0.64 0.02,-0.26 -0.04,-0.28 -0.05,-0.6 -0.07,-2.13 0.43,-3.15 -0.9,-3.15 -0.57,0 -1.38,-0.09 -1.78,0.17 -0.31,0.2 -0.22,0.64 -0.22,1.2l1.23 0zm8.32 1.73c-0.12,-0.29 -0.01,-1.25 -0.01,-1.47 0.01,-0.22 -0.04,-0.05 -0.04,-0.33 0,-0.14 0.17,-0.19 0.32,-0.21 0.08,0.18 0.06,-0.06 0.06,0.21 0,0.39 0.08,1.72 -0.06,1.99 -0.22,-0.02 -0.2,0.01 -0.28,-0.19zm-1.34 0.32c0,0.55 0.25,0.96 0.58,0.96 0.78,0 1.89,0.15 2.24,-0.23 0.29,-0.31 0.15,-2.75 0.15,-3.54 0,-0.52 -0.6,-0.62 -1.1,-0.62 -0.48,0 -1.87,-0.08 -1.87,0.55l0 2.88zm-13.38 -0.14c-0.23,0 -0.12,-0.9 -0.14,-1.16 -0.02,-0.22 -0.05,-0.77 0.08,-1.03l0.13 0c0.26,0 0.14,2.05 0.06,2.19l-0.13 0zm-1.49 -0.34c0,1.72 0.37,1.44 2.46,1.44 0.23,0 0.52,-0.34 0.52,-0.62l0 -3.22c0,-0.17 -0.19,-0.39 -0.35,-0.45 -0.12,-0.05 -2.62,-0.49 -2.62,0.59l0 2.26zm4.72 -1.85c0.41,0 0.26,0.43 0.19,0.55 -0.24,0 -0.26,0.01 -0.26,-0.34 0,-0.13 0.02,-0.12 0.06,-0.21zm1.49 1.1c0,-0.77 0.32,-1.85 -0.3,-2.09 -0.44,-0.17 -1.31,-0.08 -1.76,-0.08l-0.72 -0.02c-0.19,0.41 -0.06,0.25 -0.06,0.62l-0.02 2.11c-0.05,1.2 0.02,0.75 0.02,1.65 1.51,0 1.3,0.15 1.29,-0.82 -0.01,-0.8 -0.07,-0.67 0.13,-0.82 0.27,0.08 0.2,0 0.19,0.82 -0.01,0.98 -0.21,0.82 1.29,0.82l0 -1.51c0,-0.33 -0.06,-0.47 -0.06,-0.69zm6.5 -14.53c0.01,-0 0.07,-0.26 0.42,0.19 0.15,0.19 0.18,0.29 0.18,0.63 -0.22,-0.06 -0.23,-0.13 -0.39,-0.34 -0.29,-0.41 -0.22,-0.22 -0.21,-0.48zm-0.44 -0.83c0.04,0.07 0.48,0.59 0.04,0.54 -0.06,-0.01 -0.5,-0.35 -0.59,-0.42 -2.59,-1.85 -4.33,-0.94 -3.61,-1.75 -0.15,-0.17 -0.1,-0.16 -0.1,-0.48 0.22,-0.11 0.51,-0.1 0.71,-0.21 0.07,-0.31 0.07,-0.17 0,-0.48 -0.13,-0.07 -0.43,-0.17 -0.58,-0.07 0.14,0.11 0.08,0.01 0.13,0.21 -0.14,0.07 -0.3,0.1 -0.52,0.07 -0.27,-0.03 -0.28,-0.08 -0.19,-0.28 -0.3,-0.01 -0.3,-0.12 -0.44,0.09 -0.35,0.56 0.45,0.54 0.56,0.61 0.21,0.13 0.08,0.22 0.07,0.54 -1.1,0 -2.36,0.56 -3.27,1.19l-0.88 0.71 -1.07 1.47c-0.06,0.11 -0.12,0.24 -0.17,0.37 -0.37,0.84 -0.55,1.6 -0.55,2.64 0,0.72 0.02,1.26 0.2,1.92 0.03,0.1 0.19,0.75 0.22,0.79 0.18,0.22 0.11,0.02 0.37,0.15l0.31 0.22c0.09,-0.36 0.23,-0.18 0.03,-0.64 -0.28,-0.62 -0.42,-1.49 -0.42,-2.24 0,-0.5 0.06,-1.19 0.17,-1.6 0.36,-1.38 1.07,-2.29 2.1,-3.12l1.07 -0.64c0.18,-0.08 0.43,-0.14 0.64,-0.21 0.25,-0.09 0.45,-0.11 0.68,-0.17 1.01,-0.29 1.99,0 2.93,0.3l0.6 0.25c1.93,1.01 3.29,3.46 2.96,5.72 -0.05,0.31 -0.1,0.51 -0.1,0.85 0.17,-0.13 0.24,-0.35 0.38,-0.49 0.1,-0.1 0.38,-0.24 0.52,-0.34 0,-2.23 -0.3,-3.02 -1.24,-4.51 -0.16,-0.26 -0.68,-0.88 -0.96,-0.98zm-0.97 14.26c0.29,0 0.26,0.02 0.26,0.55 -0.32,-0.01 -0.32,0 -0.32,-0.34 0,-0.13 0.02,-0.12 0.06,-0.21zm3.23 3.77c0,-0.29 -0.29,-0.21 -0.58,-0.21 -0.97,0.02 -1.1,0.12 -1.11,-0.47l0.01 -3.84c-0.18,-0.13 -0.42,-0.3 -0.66,-0.32l-0.76 -0.02c-0.89,0 -1.49,-0.14 -1.49,0.21l0 4.18c1.52,0 1.3,0.16 1.29,-0.89 -0.01,-0.54 -0.14,-0.74 0.32,-0.75l0 2.33c0,0.37 0.26,0.58 0.56,0.63l2.29 0c0.01,-0 0.03,-0.01 0.03,-0.01 0.01,-0 0.02,-0.02 0.03,-0.02 0.1,-0.11 0.06,-0.57 0.06,-0.81zm-13.12 -19.8c0.03,-0.4 0.34,-0.67 0.56,-0.91l0.58 -0.48c0.62,-0.45 1.55,-0.8 2.28,-0.8 0.39,0 0.39,0.13 0.65,0.21l-0 0.29c-0.7,-0.09 -1.03,-0.15 -1.73,0.13 -0.3,0.12 -0.6,0.25 -0.88,0.44 -0.28,0.2 -0.52,0.33 -0.77,0.55 -0.23,0.2 -0.46,0.41 -0.69,0.57zm-4.14 8.43c0.11,0.51 0.51,1.48 0.32,1.71 -0.25,-0.07 -0.21,-0.11 -0.27,-0.4 -0.17,-0.89 -0.56,-1.27 -0.06,-1.31zm-0.26 -0.89c-0.32,0.08 -1.16,0.26 -1.16,0.69l0.61 2.44c0.19,0.71 0.61,0.59 1.5,0.28l0.93 -0.25c0,-0.68 -0.01,-0.36 -0.06,-0.55l-0.19 -0.75c-0.08,-0.29 -0.69,-2.95 -0.84,-2.95 -0,0 -0.9,0.09 -0.9,0.41 0,0.28 0.12,0.32 0.13,0.69zm14.74 5.07c0.12,0.53 0.26,0.45 0.26,1.23 -0.24,-0.15 -0.04,-0.1 -0.29,-0.86 -0,-0 -0.05,-0.12 -0.06,-0.15 -0.05,-0.22 -0.06,-0.11 0.09,-0.22zm-7.37 1.22c-0.21,-0.12 -0.1,0.05 -0.08,-0.26 0.03,-0.31 0.12,-0.71 0.34,-0.94 0.09,0.17 0.05,0.12 0.01,0.25l-0.26 0.94zm6.2 -2.04c-0.21,0 -2.15,0.99 -4.03,0.37 -0.2,-0.06 -0.01,-0.03 -0.3,-0.1 -0.31,-0.07 -0.37,-0.09 -0.63,-0.22 -1.09,-0.54 -0.48,-0.12 -1.5,-0.12 0.17,0.34 0.26,0.3 0.52,0.48 -0.06,0.28 -0.19,0.35 -0.31,0.77 -0.1,0.36 -0.09,0.54 -0.17,0.92 -0.13,0.64 -0.62,-0.2 -0.84,0.47 -0.06,0.18 -0.04,0.24 -0.04,0.44l0.44 0.05c0.03,0 0.1,0 0.15,0 0.95,-0.04 0.76,0.19 0.89,-0.54 0.22,-1.22 0.75,-1.21 0.52,-1.71 0.37,0 0.54,0.15 1.16,0.28 0.36,0.07 0.75,0.2 1.17,0.2 2.7,0 2.62,-0.52 3.55,-0.75 -0.08,0.32 -0.05,0.13 -0.32,0.27 0.08,0.34 0.57,0.82 0.7,1.65 0.05,0.34 0.02,0.34 0.14,0.61 0.49,-0.12 0.78,-0.07 1.36,-0.07 0,-1.14 -0.68,-0.53 -0.84,-0.69 -0.09,-0.2 -0.13,-0.86 -0.24,-1.19 -0.25,-0.76 -0.34,-0.68 -0.67,-0.6 0.06,-0.24 0.04,-0.21 0.26,-0.27 -0.12,-0.18 -0.13,-0.06 -0.46,-0.13 -0.27,-0.06 -0.28,-0.15 -0.51,-0.15zm3.06 -12.63c-0.32,-0.22 -0.38,-0.34 -0.74,-0.52l-0.88 -0.43c-0.95,-0.38 -1.36,-0.04 -1.64,-0.18 0.02,-0.24 -0.02,-0.15 0.14,-0.26 0.52,-0.35 1.96,0.15 2.66,0.58 0.19,0.11 0.59,0.43 0.74,0.59 0.17,0.17 0.44,0.52 0.47,0.81 -0.23,-0.07 -0.2,-0.12 -0.37,-0.29 -0.12,-0.12 -0.23,-0.18 -0.38,-0.29zm-3.97 -1.34c-0.06,0.25 -0.2,0.28 -0.34,0.54 -0.13,0.24 -0.18,0.4 -0.18,0.77 0.39,0 1.31,0.17 1.59,0.3 1.11,0.49 1.44,0.58 2.53,1.36l0.67 0.53c0.36,0.28 0.13,0.26 0.44,0.35 0.51,-0.36 0.71,-1.34 0.24,-2.17 -0.06,-0.11 -0.05,-0.09 -0.11,-0.16 -0.01,-0.01 -0.02,-0.03 -0.03,-0.04 -0.01,-0.01 -0.02,-0.03 -0.03,-0.04 -0.56,-0.7 -0.81,-0.99 -1.71,-1.41 -0.94,-0.44 -1.49,-0.39 -2.5,-0.3l0 -0.14c-0.19,0.14 -0.39,0.27 -0.58,0.41zm-8.79 2.88c0,0.37 0.31,1.01 0.52,1.16 0.18,-0.05 0.72,-0.58 1.05,-0.81 0.75,-0.54 0.99,-0.64 1.73,-1.04l1.34 -0.5c0.77,-0.17 0.29,-0.19 1.24,-0.19 -0.02,-1 -0.87,-1.64 -1.62,-1.64 -0.93,0 -1.03,-0.02 -1.91,0.31l-0.53 0.26c-0.47,0.25 -1.04,0.74 -1.35,1.17 -0.22,0.3 -0.48,0.78 -0.48,1.28zm-0.58 8.63c-0.12,0.03 -0.11,0.02 -0.19,0.07 -0.2,-0.2 -0.45,-1.53 -0.45,-1.71 0.27,0.02 0.25,0.04 0.31,0.29l0.34 1.36zm-1.87 -1.99l0.78 2.94c0.34,0.34 1.45,-0.09 1.56,-0.26 0.08,-0.12 0.13,-0.48 0.18,-0.63 0.22,-0.63 0.37,-0.49 0.18,-1.21 -0.35,-1.34 -0.31,-1.76 -1.15,-1.47 -0.2,0.07 -0.38,0.08 -0.58,0.14 -0.29,0.1 -0.54,0.13 -0.75,0.3 -0.24,0.2 0.09,0.06 -0.22,0.18zm15.9 11.99c0.15,0 0.19,-0.05 0.19,-0.21 0,-0.88 0.08,-3.5 -0.06,-4.18 -0.26,0 -0.5,-0 -0.76,0.02 -0.39,0.03 -0.47,-0.06 -0.47,0.19l0 4.18 1.1 0z"/>
   <path class="fil3" d="M15.7 21.45c-0.39,0.27 -0.45,0.27 -0.45,-0.41 -0.44,0 -1.87,0.09 -2.11,0.27 0.56,0.58 3.46,0.95 4.74,0.02 -0.25,-0.51 -0.34,-0.44 -1.01,-0.44 -0.45,0 -0.89,0.07 -1.29,0.14l0.06 0.21c0.06,0.2 0.01,-0.07 0.07,0.21zm-7.5 -16.51c0,0.47 0.68,2.68 0.84,3.43 0.36,-0.2 0.48,-0.45 1.18,-0.8 0.86,-0.43 -0.5,-0.24 1.12,-0.73 0.33,-0.1 0.79,-0.31 1.06,-0.31 0,-0.43 -0.18,-1.12 -0.32,-1.44 -0.42,0.04 -1.55,0.55 -1.87,0.55 -0.25,0 -0.02,0.02 -0.19,-0.07l0 -0.27 1.75 -0.54c0.36,-0.17 0.18,-0.19 0.04,-0.81 -0.03,-0.14 -0.12,-0.5 -0.18,-0.64 -0.28,0.01 -1.53,0.43 -1.92,0.57 -0.49,0.17 -1.5,0.29 -1.5,1.08zm5.62 -0.89c0.48,-0.2 0.45,0.03 0.58,0.62 -0.13,0.07 -0.23,0.1 -0.39,0.14l-0.19 -0.75zm-0.9 -1.3c-0.16,0.22 -0.2,0.09 -0.48,0.25 -0.17,0.09 -0.25,0.22 -0.34,0.4 -0.19,0.41 0.02,0.83 0.12,1.25 0.08,0.36 0.21,0.8 0.31,1.18 0.42,1.58 0.23,1.11 0.88,1.4 0.57,0.25 0.91,0.62 1.13,1.27 0.23,-0.01 0.72,-0.21 0.96,-0.29 0.42,-0.13 1.45,-0.37 1.28,-1.19 -0.03,-0.15 -0.09,-0.37 -0.14,-0.55 -0.12,-0.46 -0.14,-0.53 -0.51,-0.41l-1.21 0.37c0,0.29 0.03,0.28 -0.06,0.48l-0.32 0c-0.01,-0.42 -0.12,-0.26 -0.13,-0.69 0.27,-0.14 0.6,-0.2 0.93,-0.32 0.27,-0.09 0.76,-0.29 1.01,-0.3 0,-0.34 -0.32,-1.45 -0.44,-1.87 -0.05,-0.18 -0.05,-0.15 -0.1,-0.38 -0.03,-0.13 -0.14,-0.61 -0.21,-0.74 -0.49,-0.97 -1.85,0.11 -2.69,0.11 0.11,-0.16 0.21,-0.16 0.41,-0.25 0.22,-0.09 0.32,-0.15 0.5,-0.23l0.69 -0.3c0.16,-0.08 0.07,-0.07 0.27,-0.12 0,-0.36 -0.06,-1 -0.47,-0.78l-1.73 1.13c0.03,0.36 0.01,0.52 0.32,0.55zm-6.72 3.77c0.18,-0.02 0.5,-0.29 0.52,0.69 -0.15,0.04 -0.19,0.06 -0.39,0.07 -0.06,-0.26 -0.13,-0.43 -0.13,-0.75zm-0.06 4.66c0.44,0 0.63,-0.11 1.06,-0.24 0.2,-0.06 0.3,-0.1 0.44,-0.15 0.2,-0.07 0.27,-0.11 0.44,-0.15 0,-0.53 0.05,-0.84 0.23,-1.2l0.55 -0.92c-0.31,0.01 -0.55,0.13 -0.77,0.21l-0.78 0.21c-0.08,0.4 0.11,0.48 -0.26,0.48 -0.23,0 -0.26,-0.37 -0.26,-0.62 0,-0.13 0.48,-0.22 0.6,-0.26 0.26,-0.08 0.43,-0.15 0.69,-0.23 0.85,-0.27 0.68,-0.14 0.46,-1.02 -0.15,-0.61 -0.45,-2.19 -0.82,-2.42 -0.45,-0.29 -1.11,0.02 -1.56,0.18 -0.31,0.11 -0.69,0.21 -1.04,0.33 -0.34,0.11 -0.62,0.29 -0.72,0.68 -0.08,0.3 0.46,2.24 0.61,2.72 0.33,1.08 0.37,2.42 1.14,2.42zm11.05 -3.63c0.19,-0.14 0.39,-0.27 0.58,-0.41 0.27,-0.05 0.47,-0.26 0.9,-0.27 -0.01,-0.28 -0.17,-0.67 -0.27,-1.08l-0.58 -2.26c-0.13,-0.47 -0.37,-0.77 0.27,-0.77 0.01,0.39 0.99,3.6 1.03,4.11 0.29,0.01 0.2,0.06 0.42,0.03 0.29,-0.04 0.93,-0.35 1.2,-0.37 -0.01,-0.7 -1.03,-3.68 -1.03,-4.39 0.17,-0.02 0.18,-0.03 0.32,-0.07 0.07,0.16 0.14,0.35 0.18,0.5l0.99 3.75c0.28,-0.01 1.31,-0.36 1.55,-0.48 -0.01,-0.4 -0.82,-3.31 -0.98,-3.96 -0.26,-1 -0.33,-2 -1.76,-1.35 -0.56,0.25 -0.56,0.54 -0.68,0.58 -0.22,0.07 -0.29,-0.33 -1.11,-0.01 -0.45,0.18 -0.51,0.33 -0.83,0.56 -0.14,-0.11 -0.08,-0.01 -0.13,-0.21 -0.26,0.02 -0.55,0.13 -0.78,0.21 -0.18,0.06 -0.21,0.08 -0.39,0.14 -0.16,0.05 -0.25,0.07 -0.39,0.14 0.01,0.28 0.08,0.49 0.15,0.73 0.3,0.95 1.08,4.38 1.33,4.89zm-14.8 0.34c0,-0.13 0.21,-0.15 0.32,-0.21 0.41,0.91 0.1,0.82 -0.19,0.82 -0.05,-0.25 -0.13,-0.32 -0.13,-0.62zm-2.2 -1.03c0.28,0.06 1.01,-0.23 1.57,-0.39 0.33,-0.09 1.32,-0.5 1.6,-0.5 0.78,-0.03 0.81,0.53 0.97,1.16 0.5,1.89 0.25,0.91 0.19,1.65 0.24,0.02 0.2,-0.01 0.3,0.23l0.3 1.12c0.51,1.95 0.34,1.8 0.98,1.56 0.49,-0.18 1.65,-0.65 2.1,-0.65 0.12,0.56 0.63,0.91 0.71,1.23l-1.28 0.42c-0.41,0.15 -0.83,0.28 -1.27,0.44l-1.28 0.43c-0.55,0.1 -0.83,-0.18 -0.96,-0.66 -0.06,-0.23 -0.13,-0.43 -0.19,-0.69 -0.09,-0.41 -0.48,-2.26 -0.73,-2.33 -0.35,-0.09 -0.24,0.4 -0.2,0.56 0.11,0.38 0.4,1.38 0.41,1.69l-0.78 0.27c-0.24,0.08 -0.49,0.2 -0.77,0.21l-0.98 -3.69c-0.09,-0.33 -0.17,-0.8 -0.35,-1.09l-0.34 -0.98zm13.18 11.17l0 -0.14c0.33,0 0.35,0.07 0.71,0.07 -0.25,0.39 -0.37,0.15 -0.71,0.07zm-2.59 -1.37c0.06,-0.32 -0.2,-0.75 0.19,-0.75 0.13,0 0.46,0.74 -0.19,0.75zm9.37 -0.75c0.19,0.14 0.53,0.74 -0.13,0.75 0.02,-0.3 -0.09,-0.2 0.19,-0.14 -0.01,-0.17 0.02,-0.08 -0.04,-0.24 -0.13,-0.4 -0.22,0.22 -0.15,-0.23 0.02,-0.13 0.03,-0.08 0.12,-0.15zm-3.49 0.48c0.94,0 1.76,-0.75 2.07,-0.82 -0.46,0.92 -2.43,1.3 -2.91,0.62 0.36,0.03 0.24,0.21 0.84,0.21zm-4.72 -2.54c0,0.54 0.05,0.51 -0.19,0.69 -0.08,-0.05 -0.07,-0.04 -0.14,-0.12l-0.09 -0.11c-0,-0.02 -0.02,-0.03 -0.03,-0.04 0.05,-0.22 0.11,-0.3 0.13,-0.55 0.11,0.06 0.21,0.08 0.32,0.14zm-0.58 0.62l-0.13 0c0,-0.49 -0.04,-0.21 -0.12,-0.54l0.19 -0.15c0.1,0.22 0.06,0.37 0.06,0.69zm8.01 -0.07c0.14,-0.22 0.19,-0.21 0.32,-0.48l-0.26 -0.14c0.19,-0.08 0.2,-0.05 0.39,0 -0.01,0.52 -0.22,0.27 0,0.62l-0.45 -0.01zm-5.24 1.23c-0.27,0.19 -0.22,0.48 -0.65,0.48 -0.4,0 -0.57,-0.27 -0.58,-0.69 0.4,0.1 0.29,0.22 0.58,-0.14 -0.07,-0.32 -0.12,-0.26 -0.26,-0.47l0.26 -0.08c-0.05,-0.21 -0.34,-0.63 -0.47,-0.8 -0.42,-0.53 -0.74,-0.67 -1.27,-0.29 0.07,-0.26 0.27,-0.48 0.58,-0.48 0.7,0 1.26,1.33 1.5,1.69 0.28,0.41 0.26,0.66 0.82,0.98l-0.09 0.18c-0.3,0.58 -0.99,0.71 -1.54,0.51 -0.84,-0.3 -0.87,-0.96 -1.09,-1.45 0.37,0.14 0.34,0.87 0.99,1.21 0.74,0.38 1.21,-0.16 1.53,-0.25l0 -0.21c-0.24,-0.07 -0.14,-0.07 -0.32,-0.21zm2.65 -1.1c0.09,-0.13 0.17,-0.28 0.26,-0.41 0.29,-0.43 0.82,-1.3 1.49,-1.3 0.33,0 0.56,0.14 0.58,0.48 -0.11,-0.12 -0.06,-0.08 -0.22,-0.17 -0.2,-0.12 0,-0.1 -0.23,-0.1 -0.22,0 -0.28,-0.01 -0.55,0.17 -0.25,0.16 -0.61,0.57 -0.68,0.86 0.31,0.01 0.5,0.13 0.61,0.38 0.31,0.69 -0.01,1.92 -0.81,1.47 0.1,-0.15 0.26,-0.24 0.26,-0.41 0,-0.55 -0,-0.32 -0.19,-0.62 -0.2,0.05 -0.19,0.09 -0.39,0.14 -0.04,-0.35 0.08,-0.12 -0.13,-0.21 -0.21,0.33 -0.51,0.92 -0.97,0.96l0.97 -1.23zm-1.16 2.26l-0.26 0.27c-0.39,-0.1 -0.55,-0.22 -0.46,-0.63 0.05,-0.25 0.15,-0.11 -0.2,-0.8l-0.76 -1.59c0.34,0.13 0.36,0.76 0.71,1.03 -0.02,-0.3 -0.14,-0.37 -0.18,-0.63 -0.11,-0.74 -0.05,-1.18 -0.1,-1.54 -0.03,-0.22 -0.05,-0.38 -0.05,-0.7 0.41,0.5 0.41,1.32 0.78,1.58 0.03,-0.36 0.23,-0.53 0.26,-0.89l0.13 0c0,0.52 0.29,1.27 0.21,1.66 -0.05,0.27 -0.14,0.53 -0.19,0.76 -0.08,0.33 -0.15,0.42 -0.15,0.8 0.15,0.08 0.25,0.1 0.33,0.27 0.13,0.28 -0.07,0.41 -0.07,0.41zm-2.33 -4.8c0.18,0.19 0.15,0.46 0.06,0.69 -0.17,-0.13 -0.12,-0.06 -0.16,-0.39 -0.03,-0.22 -0.04,-0.17 0.1,-0.3zm-0.37 0.41c0.02,0.27 0.08,0.16 -0.14,0.22 0,-0.44 -0.17,-0.47 0.06,-0.63 0.09,0.16 0.07,0.19 0.08,0.4zm4.83 -0.35c0,0.53 0.02,0.37 -0.13,0.48 0,-0.53 -0.1,-0.21 -0.13,-0.62 0.16,-0.06 0.26,-0.09 0.26,0.14zm-2.39 -0.21l-0.13 0c0,-0.49 -0.04,-0.21 -0.13,-0.55 0.08,-0.08 0.12,-0.1 0.26,-0.14l0 0.69zm0.13 0c0.12,-0.18 0.16,-0.28 0.32,-0.34 -0.03,-0.32 0.1,-0.17 -0.26,-0.14 0.08,-0.12 0,-0.2 0.2,-0.21 0.36,-0.02 0.12,0.41 0.12,0.42l-0 0.16c0.03,0.18 0.18,0.26 -0.38,0.12zm-5.17 4.45c0,0.79 0.06,1.73 0.41,2.44 0.13,0.25 0.16,0.23 0.49,0.23l0 -0.55c0.25,-0.06 0.13,-0.06 0.39,0 0,0.87 -0.09,0.37 -0.13,0.82 0.15,0.06 0.14,0.09 0.26,0.27l1.46 -0.23c0.55,-0.1 1,-0.04 1.42,-0.27 1.41,-0.76 2.53,0.17 2.8,-0.46 -0.86,-0.08 -0.42,-0.57 -1.97,-0.3 -1.23,0.21 -0.98,0.51 -2.3,0.51 -1.33,0 -1.38,-1.51 -0.58,-1.51 0.2,0 0.28,0.09 0.32,0.27 -0.25,-0.01 -0.3,-0.08 -0.47,-0.02 -0.49,0.18 -0.14,0.86 0.32,1 1.18,0.35 1.96,-0.5 2.99,-0.5 0.69,0 0.72,-0.06 1.42,0.27 1.19,0.56 0.51,0.31 1.68,0.21 0.5,-0.04 0.53,0.01 0.71,-0.35 0.21,0.16 0.05,0.11 0.26,0.27l0.3 -0.09c0.5,-0.09 0.47,-0.07 0.62,-0.71 0.08,-0.32 0.2,-1.23 0.15,-1.57 -0.26,-1.87 -0.81,-3.41 -2.52,-4.47 -1.6,-0.99 -3.38,-1.16 -5.07,-0.27 -1.88,0.99 -2.99,2.68 -2.99,4.98zm1.03 3.63c0,-0.24 0.11,-0.1 0.19,-0.41 -0.21,-0.32 -0.74,-0.53 -1,-0.17 -0.1,0.14 0.04,0.04 -0.16,0.24 -0.22,-0.14 -0.9,-0.99 -1.16,0.21 -0.13,-0.11 -0.17,-0.59 -0.7,0.01 -0.33,0.38 -0.34,0.8 -0.34,1.29 0,0.76 1.16,1.45 1.16,0.41 0.16,0.11 0.61,0.73 1.02,0.19 0.13,-0.17 0.08,-0.19 0.08,-0.46 0.32,0.18 0.25,0.35 0.57,0.34 0.73,-0.04 0.33,-0.74 0.33,-0.88l0 -0.75zm1.03 0.75c0.19,0.08 0.01,0.05 0.17,0.23 0.15,0.16 0.63,0.28 0.57,-0.09 -0.08,-0.23 -0.2,-0.8 -0.04,-1.06 -0.1,-0.2 -0.02,-0.21 -0.35,-0.15 -0.14,0.03 -0.25,0.06 -0.31,0.17 -0.12,0.18 -0.05,0.65 -0.05,0.91 -0.25,-0.41 0.33,-1.41 -0.71,-0.82l-0.06 0.82c0,-0.38 0.05,-0.47 -0.13,-0.69 0,1.16 0.07,0.48 0.15,1.14 0.36,-0.02 0.6,-0.01 0.82,-0.09 -0.01,-0.2 -0.03,-0.2 -0.06,-0.37zm9.95 -3.43c0.08,-0.84 0.08,-0.47 0.01,-1.18 -0.06,-0.56 0.06,-0.56 -0.2,-1.43 -0.15,-0.47 -0.37,-1.2 -0.71,-1.44 0.04,0.49 0.65,1.31 0.65,3.01 -0,0.93 -0.11,1 0.26,1.03zm-14.86 3.29l0 0.68 -0.13 0 0 -0.63 0.13 -0.05zm0 0l-0.13 -0.21c-0.24,0.09 -0.25,0.02 -0.4,0.19 -0.46,0.51 0.06,1.18 0.08,1.25 0.3,0 0.29,-0.01 0.52,-0.07 -0.04,-0.16 -0.06,-0.2 -0.04,-0.42l0.17 0.36 0.45 0c-0.02,-0.27 -0.11,-0.42 -0.13,-0.69 -0.02,-0.33 0.05,-0.4 0.06,-0.68 -0.45,0 -0.36,-0.04 -0.58,0.27zm12.73 0.82c-0.02,-0.29 -0.16,-0.39 -0.3,-0.57 -0.38,-0.48 -0.3,-0.76 -0.56,-1.19 -0.13,-0.22 -0.21,-0.33 -0.56,-0.3 -0.09,0.15 -0.19,0.29 -0.19,0.55 0,0.5 0.79,1.58 1.16,1.58l0.45 -0.07zm-2.71 -1.16c0,1.11 1.77,1.74 1.67,1.05 -0.04,-0.26 -0.4,-0.3 -0.64,-0.97 -0.39,-1.07 -1.02,-0.49 -1.02,-0.08zm2.26 -8.71c-0.36,-0.38 -1.26,-0.91 -1.79,-1.11 -0.71,-0.27 -1.44,-0.52 -2.38,-0.52 -0.72,0.81 1.02,-0.1 3.61,1.75 0.1,0.07 0.53,0.41 0.59,0.42 0.44,0.05 0,-0.47 -0.04,-0.54zm1.96 9.42c0.4,-0.11 0.72,0.04 0.82,-0.36 -0.54,0.04 0.13,0.14 -0.97,0.14 -0.58,0 -0.76,-1.37 -1.49,-1.37 -0.25,0 -0.45,0.21 -0.45,0.48 0,0.27 0.33,0.83 0.47,1.01 0.33,0.44 0.78,0.78 1.29,0.37 0.16,-0.13 0.14,-0.22 0.33,-0.27zm-2.21 2.65c0,-0.79 -0.14,-0.7 -0.26,-1.23 -0.15,0.12 -0.14,0 -0.09,0.22 0.01,0.02 0.06,0.15 0.06,0.15 0.25,0.76 0.05,0.71 0.29,0.86zm-7.63 -0.02l0.26 -0.94c0.04,-0.13 0.09,-0.08 -0.01,-0.25 -0.22,0.23 -0.31,0.63 -0.34,0.94 -0.03,0.31 -0.13,0.14 0.08,0.26zm3.75 -14.92l-0.58 0c-0.09,0.2 -0.09,0.25 0.19,0.28 0.23,0.02 0.38,-0 0.52,-0.07 -0.05,-0.2 0.01,-0.1 -0.13,-0.21zm4.99 3.89c-0.35,-0.45 -0.41,-0.19 -0.42,-0.19 -0.01,0.27 -0.08,0.07 0.21,0.48 0.15,0.21 0.17,0.28 0.39,0.34 0,-0.34 -0.03,-0.44 -0.18,-0.63zm2.26 7.55c0.1,-0.18 0.16,-0.52 0.14,-0.71 -0.04,-0.45 -0.03,-0.47 -0.28,-0.71l-0.06 1.36c0.09,0.05 0.07,0.04 0.2,0.07zm-0.72 -1.92c0.14,-0 0.45,-0.03 0.57,0.01 0.23,0.07 0.09,0.18 0.4,0.26 0.36,-0.67 -0.7,-1.02 -0.97,-0.27zm-3.49 -7.74c0.3,0.33 0.71,0.38 0.71,-0.27l0 -0.07 0 -0.14c-0.34,-0.18 -0.72,-0.01 -0.71,0.48zm-6.98 0.41c0.17,0 0.8,-0.11 0.31,-0.67 -0.17,-0.2 -0.19,-0.15 -0.5,-0.15 -0.05,0.22 -0.07,0.82 0.19,0.82zm9.5 7.33c0.35,0.09 0.55,0.17 0.81,-0.17 0.13,-0.17 0.23,-0.23 0.29,-0.45 -0.21,-0.23 -0.42,-0.39 -0.71,-0.14 -0.16,0.14 -0.38,0.45 -0.39,0.75z"/>
  </g>
 </g>
</svg>
