<?xml version="1.0" encoding="UTF-8"?>
<!DOCTYPE svg PUBLIC "-//W3C//DTD SVG 1.1//EN" "http://www.w3.org/Graphics/SVG/1.1/DTD/svg11.dtd">
<!-- Creator: CorelDRAW -->
<svg xmlns="http://www.w3.org/2000/svg" xml:space="preserve" width="64.4672mm" height="63.9838mm" version="1.1" style="shape-rendering:geometricPrecision; text-rendering:geometricPrecision; image-rendering:optimizeQuality; fill-rule:evenodd; clip-rule:evenodd"
viewBox="0 0 113.17 112.33"
 xmlns:xlink="http://www.w3.org/1999/xlink"
 xmlns:xodm="http://www.corel.com/coreldraw/odm/2003">
 <defs>
  <style type="text/css">
   <![CDATA[
    .fil0 {fill:#010100}
    .fil21 {fill:#040301}
    .fil17 {fill:#11404F}
    .fil7 {fill:#310B06}
    .fil29 {fill:#434443}
    .fil1 {fill:#514F4E}
    .fil23 {fill:#76510A}
    .fil15 {fill:#989897}
    .fil20 {fill:#9A9A9A}
    .fil19 {fill:#9C5D02}
    .fil14 {fill:#A46203}
    .fil6 {fill:#A86503}
    .fil26 {fill:#B47A0C}
    .fil8 {fill:#BA7E0C}
    .fil27 {fill:#BEBDBD}
    .fil16 {fill:#CC0201}
    .fil22 {fill:#CCCBCB}
    .fil11 {fill:#CECDCD}
    .fil10 {fill:#D0CFCF}
    .fil25 {fill:#DC951C}
    .fil5 {fill:#E2991C}
    .fil3 {fill:#EA0201}
    .fil28 {fill:#EBCC82}
    .fil2 {fill:#ED0201}
    .fil9 {fill:#F0F0F0}
    .fil4 {fill:#F2F2F1}
    .fil12 {fill:#F4D385}
    .fil24 {fill:#FAFAFA}
    .fil18 {fill:#FCFBFB}
    .fil13 {fill:white}
   ]]>
  </style>
 </defs>
 <g id="Camada_x0020_1">
  <metadata id="CorelCorpID_0Corel-Layer"/>
  <g id="_2077934763200">
   <path class="fil0" d="M48.46 46.99c-0.18,0.36 -1.88,0.77 -2.78,0.54 -0.15,-0.88 1.58,-4.73 3.1,-4.54l-0.32 4zm60.11 23.32l-0.74 -3.75c-1.13,-6.96 -0.32,-6.46 -6.34,-5.25 -4.63,0.93 -2.16,1.19 -3.8,4.94 -0.74,1.69 -1.79,4.62 -2.59,5.99 -0.54,-1.01 1.37,-7.24 -1.58,-8.52l-1.04 -0.39c0.03,-0.01 -0.09,-0.05 -0.13,-0.08l0 0.11 -1.32 -0.06c-0.44,-0.6 -3.5,-7.35 -3.59,-8.3 1.6,-0.4 4.64,-1.55 6.17,-1.65 0.71,1.74 0.98,6.49 1.82,7.67 1.12,0.1 4.62,-0.91 5.21,-1.41 0.22,-1.17 -0.2,-2.07 -0.49,-3.1l-1.65 0.18c-0.48,-1.05 -1.11,-4.44 -1.46,-5.91 -1.83,-7.79 -0.07,-1.09 2.16,-10.83 0.38,-1.67 0.41,-5.1 -0.73,-6.28 -0.92,-0.01 -1.06,0.39 -1.95,0.27 -2.88,-8.44 -5.98,-17.78 -9.47,-25.89l-3.56 -8.04c-0.76,0.12 -1.91,0.94 -2.54,1.34 -0.75,0.47 -1.84,0.85 -1.43,2.07 0.46,1.39 2.29,3.79 2.28,5.33l-8.18 4.12c-4.7,2.22 -12.72,5.24 -17.76,6.82l-9.42 2.72c-0.08,0.76 1.17,4.54 1.52,5.2 0.5,0.53 0.23,0.62 0.73,1.39 0.14,0.21 2.01,6.63 2.36,8.52 0.27,1.48 0.6,2.96 0.95,4.42 0.29,1.24 0.59,3.68 0.92,4.61 -0.19,0.13 -1.29,0.46 -1.66,0.13 -0.41,-0.66 -0.39,-2.1 -0.65,-2.9l-0.13 0.47 0.35 2.55c-0.54,0.45 -0.32,0.31 -1.6,0.42 -0.18,-1.89 0.28,-3.14 -0.07,-5.18 -1.09,0.06 -0.64,0.38 -1.65,0.6 -3.83,-4.7 -3.48,-2.77 -6.63,-3.75 0.43,-0.91 4.16,-2.48 4.35,-2.68 0.3,-0.59 0.58,-1.79 0.44,-2.5 -1.07,-1.09 -1.91,-0.13 -2.86,0.56 -0.58,0.42 -2.54,1.49 -3.31,1.39 -0.28,-0.48 -0.37,-1.12 -0.84,-1.49 -1.62,-1.31 -3.43,0.75 -4.25,1.13 -0.3,0.14 -0.65,0.25 -0.84,0.55 0.03,0.03 0.12,0.06 0.1,0.07l2.48 0.59c0.29,0.11 0.26,0.11 0.41,0.23 2.13,-0.11 0.13,0.97 1.61,1.41l0.46 -0.11c-0.53,-0.54 -0.53,-0.04 -0.47,-1 3.88,-0.97 1.21,-0.27 3.61,-1.62 1.64,-0.92 3.39,-2.71 3.46,-1.1 0.05,1.16 -1.19,2.02 -2.05,2.5 -0.87,0.48 -2.56,1.55 -3.5,1.63l-0.03 0.5 0.51 0.26c-0,0.7 -0.03,0.57 -0.33,1.03l-1.37 0.1c0.87,0.7 0.46,-0.07 0.88,1.18 0.98,0.24 1.73,0.28 1.47,1.7 -0.09,0.46 -0.68,1.89 -0.96,2.3l-2.97 -0.03c0.72,0.18 0.88,-0.04 1.5,0.31l1.3 0.02c0.25,0.49 0.2,0.9 0.67,1.15 0.27,-0.74 -0.41,-0.66 0.08,-1.92 0.23,-0.6 0.54,-1.14 0.73,-1.74 -0.05,-0.54 -0.01,-0.24 -0.15,-0.83 -0.01,-1.47 -0.44,-0.87 -1.36,-1.24 0.01,-1.17 0.35,-0.27 1.15,-1.9l1.37 0.22c-0.22,0.83 -0.9,0.77 -1.12,1.64 1.09,-0.82 1.23,-2.53 3.62,-1.24 0.78,0.42 2.32,2.31 2.68,2.97 -0.65,0.99 -1.1,1.16 -1.71,2.59 -0.56,1.3 -0.13,2.39 -1.74,2.61 0.01,0.01 0.02,0.02 0.03,0.03l-1.87 -0.01c-0.4,0.08 -0.19,0.09 -0.48,0.22 -0.88,0.37 -7.06,1.03 -8.12,1.09 -1.12,0.05 -1.72,0.41 -2.92,0.41 0.07,-0.96 0.88,-1.42 1.36,-2.09 0.59,-0.82 0.8,-1.95 1.87,-1.3 -0.11,0.39 -0.04,0.2 -0.35,0.47 -0,0 -1.57,1.07 -0.8,1.72 1.13,0.42 1.02,-1.17 1.51,-1.86 1.33,0.55 1.55,1.92 3.37,0.85 1.26,-0.74 2.59,0.58 4.44,-0.12 0.21,-0.97 1.47,-2.99 2.01,-3.53 0.5,-0.49 0.63,-0.24 1.31,-0.56 -0.36,-0.29 -1.19,-0.05 -1.52,0.34l-1.45 2.41c-1.4,2.16 -1.99,1.09 -4.53,0.84l-0.02 -0.55c-0.85,0.05 0.2,1.13 -1.11,1.33 -1.53,0.23 -3.41,-3.11 -4.86,-1.56l-0.67 0.73c-0.41,0.6 0.03,0.37 -0.53,0.83l-0.43 0.61c-0.54,-0.29 -0.4,-0.34 -0.94,-0.51 -0.66,-0.2 -0.39,0.07 -0.92,-0.34 -1.65,-1.02 -1.34,-4.33 -1.6,-6.45 -0.09,-0.7 -0.79,-3.24 -1.05,-5.01 -0.15,-1.06 0.04,-0.84 0.47,-1.43l-1.23 -0.01c-0.12,1.46 0.73,3.95 0.76,5.66 -0.71,-0.52 -1.71,-5.72 -1.79,-6.82 -0.09,-1.27 -0.02,-2.78 0.23,-4 0.19,-0.93 0.89,-2.25 0.3,-3.02 -0.84,0.11 -0.87,0.42 -1.12,1.37 -1.28,4.99 -0.2,9.28 1.34,14.02 2.57,7.89 -0.19,7.13 2.05,11.92 0.85,1.81 1.71,1.88 1.94,2.76 -2.48,0.18 -2.21,-0.95 -4.6,-0.59l-0.28 0.02c-0.23,1.25 -0.41,2.28 -0.12,3.6 0.35,0.31 0.39,0.23 0.79,0.53 0.3,0.23 0.4,0.43 0.67,0.68l2.6 -0.18c-0.16,1.22 -3,1.95 -3.82,4.19 -0.4,1.09 0,1.38 -0.05,2.32l-4.54 -0.01c-0.09,-1.38 1.17,-2.38 1.19,-3.8 0.04,-1.78 -1.67,-2.21 -3.08,-1.28 -2.22,1.47 -3.38,4.52 -5.97,4.75 -1.8,0.52 -1.18,2.28 -1.7,4.27 -0.5,1.9 -0.67,2.89 -1.38,4.68 -0.59,1.49 -1.09,2.93 -1.64,4.43 -0.98,2.68 -0.52,2.63 -0.35,5.25 -2.05,0.99 -2.74,3.22 -3.32,5.91 -0.38,1.8 -1.27,4.54 -0.41,6.09 0.45,0.8 0.62,0.51 1.14,1.13 -0.37,0.95 -1.18,0.85 -3,5.68 -1.2,3.18 -1.16,4.23 2.41,4.8 1.93,0.07 4.29,0.05 6.23,-0.06 2.09,-0.12 3.18,-0.72 5.61,-0.37 2.62,0.38 3.05,0.3 5.68,0.21 1.82,-0.06 4.01,0.22 5.84,0.41 -0.21,1.87 -0.73,2.61 1.55,3 1.32,0.23 3.76,0.15 4.97,-0.16 0.37,-0.81 0.5,-1.92 0.83,-2.65 1.15,-0.13 2.14,0.04 3.39,-0.18 1.7,-0.31 1.53,-0.16 3.09,0.15 1.63,0.32 12.98,0.81 13.8,0.24 1.03,-0.71 0.49,-4.92 1.98,-5.52 0.04,2.4 -1.96,5.5 3.14,5.91 5.87,0.47 12.62,0.29 18.53,0.58 2.55,0.12 27.28,0.51 28.41,0.21 1.49,-0.39 1.52,-5.05 1.98,-7.61l1.02 -6.04c0.09,-0.87 -0.07,-1.48 -0,-2.22 0.08,-0.15 2.16,-0.67 3.66,-4.75 0.99,-2.68 -0.26,-2.99 -1.21,-4.43 -0.84,-1.27 -0.52,-0.66 -1.02,-1.16 -0.82,-0.82 0.05,-2.22 -0.09,-3.48 -0.14,-1.32 -2.16,-8.91 -1.92,-10.76zm-57.09 -23.25c0.06,-0.01 0.13,-0.03 0.2,-0.04 -0.07,0.01 -0.13,0.02 -0.2,0.04zm0.64 -0.07c0.08,0 0.17,0 0.26,0.01 -0.09,-0.01 -0.18,-0.01 -0.26,-0.01zm0.26 0.01c0.03,0 0.06,0.01 0.09,0.01 -0.03,-0 -0.06,-0.01 -0.09,-0.01zm0.09 0.01c0.08,0.01 0.16,0.03 0.25,0.04 2.62,0.24 8.82,-2.61 14.76,-0.6 -0.54,0.43 -3.44,0.91 -4.32,1.06l-14.07 2.27c-3.28,0.45 -17.44,2.5 -19.81,2.02 -0.23,-0.34 -0.35,-0.61 -0.38,-1.14 0.37,-0.18 11.74,-1.82 14.99,-2.17l0.8 -0.06c1.37,-0.34 7.46,-0.88 8.04,-1.37 -0.09,-0.02 -0.17,-0.03 -0.25,-0.04zm-8.52 1.25c-0,-0.01 -0,-0.02 -0,-0.02 0,0.01 0,0.02 0,0.02zm-0 -0.02c-0,-0.01 -0.01,-0.02 -0.01,-0.04 0.01,0.01 0.01,0.03 0.01,0.04zm-0.02 -0.05c-0.01,-0.01 -0.01,-0.02 -0.02,-0.03 0.01,0.01 0.01,0.02 0.02,0.03zm21.69 7.56c-0.65,-0.1 -2.69,0.14 -3.31,0.32 -0.28,1.95 1.04,4.55 -0.6,5.53 -1.06,0.63 -4.35,0.51 -5.76,0.83 0.47,0.46 0.74,0.39 1.58,0.4 2.39,0.02 9.15,-0.1 10.42,1.67 -0.92,2.25 -3.19,0.49 -4.32,0.67 -1.24,-0.72 -3.21,-0.16 -4.51,-0.16 -0.36,-0.13 -10.05,0.16 -11.22,0.6 -4.96,1.87 -2.76,-0.79 -2.88,-2.44 -0.55,-0.37 -1.09,-0.34 -1.86,-0.49l-0.08 -1.09c-1.8,-0.26 -0.22,-0.75 -1.53,-0.8 -0.48,0.65 -0.09,0.74 0.17,1.35 -0.37,0.32 -0.84,0.85 -0.82,1.48 1.25,0.47 0.74,0.02 1.69,-0.1 0.71,-0.09 1.01,0.26 1.64,0.53l-0.32 1.75c-1.68,0.14 -4.92,0.16 -5.85,-0.66 -0.11,-1.46 0.69,-0.74 0.75,-1.83 -0.59,-0.2 -1.26,-0.23 -1.76,0 -0.72,0.44 1,2.69 0.46,4.2 -2.04,-0.31 -0.38,-5.4 -3.75,-5.43 0.11,1.19 1.06,1.49 0.86,3.05 -0.17,1.36 -1.17,1.74 -1.36,2.56 1.43,-0 2.53,0.08 3.9,0.21 2.67,0.25 1.43,0.48 2.88,1.08 0.66,-1.36 -0.53,-1.32 3.21,-1.44 1.49,-0.05 3.01,-0.11 4.55,-0.17 9.44,-0.35 6.29,0.51 8.27,0.82l0.31 -1.21c2.3,-0.46 6.34,-0.19 9.01,-0.47 6.85,-0.73 5.6,0.75 6.83,1.94 0.68,-1.39 0.16,-2.64 -0.91,-3.58 -0.98,-0.86 -1.96,-0.24 -2.08,-2.59 -0.2,-3.84 2.84,-5.37 3.12,-6.19 -0.82,-0.19 -4.48,-0.77 -5.12,-0.69 0,1.11 0.34,2.5 0.11,3.5l-1.38 0.04 -0.3 -3.22zm18.45 7.13c-0.61,1.79 -1.97,0.46 -2.28,2.13 1.22,0.05 7.88,-0.57 8.43,-1.02 -0.39,-1.21 -0.31,0.7 -1.7,-2.5l-2.3 -5.28c-0.42,-0.67 -0.18,-0.19 -0.63,-0.56 -0.68,-0.56 -0.51,-2.09 -1.03,-3.31 -1.32,0.07 -3.17,1.39 -4.29,2.2 -0.53,0.41 -0.21,-0.03 -0.45,0.52 2.05,1.09 3.59,1.75 4.33,4.06 0.37,1.16 0.3,2.68 -0.07,3.76z"/>
   <path class="fil1" d="M50.47 44.26l-1.55 -6.87c-0.53,-2.23 -1.02,-4.61 -1.81,-6.6l-9.85 2.5c-1.44,0.36 -9.55,2.07 -10.06,2.41 -0.24,0.55 0.73,7.08 0.83,8.35 0.54,0.39 1.68,0.18 2.32,0.12 0.7,-0.06 0.61,0.04 0.74,0.14 1.41,-0.11 4,0.99 5.77,1.19l2.97 0.03c0.29,-0.41 0.88,-1.84 0.96,-2.3 0.26,-1.42 -0.48,-1.45 -1.47,-1.7 -0.42,-1.25 -0.01,-0.49 -0.88,-1.18l1.37 -0.1c-0.59,-0.01 -1.21,0.07 -1.5,-0.39l-0.17 -0.62c-0.84,0.45 -0.25,0.33 -1.32,1.36 -1.41,1.34 -3.89,2.57 -5.24,1.37 0.25,-2.66 4.23,-1.56 5.26,-3.77 -0.85,0.05 -0.24,-0.04 -1.74,1.16 -0.32,-0.39 -0.2,-0.15 -0.22,-0.8 -1.51,-0.17 -3.02,1.03 -3.82,0.5 0.01,-2.08 4.72,0.21 4.9,-1.85 -0.82,0.16 -0.14,0.2 -1.02,0.35 -0.03,-1.31 0.39,-0.79 1.62,-0.81 -0.16,-0.12 -0.13,-0.11 -0.41,-0.23l-2.48 -0.59c0.02,-0.01 -0.07,-0.04 -0.1,-0.07 0.2,-0.31 0.55,-0.41 0.84,-0.55 0.82,-0.38 2.63,-2.44 4.25,-1.13 0.47,0.38 0.56,1.01 0.84,1.49 0.77,0.09 2.72,-0.97 3.31,-1.39 0.95,-0.69 1.79,-1.65 2.86,-0.56 0.14,0.71 -0.14,1.91 -0.44,2.5 -0.19,0.2 -3.92,1.77 -4.35,2.68 3.15,0.98 2.8,-0.95 6.63,3.75 1.01,-0.22 0.56,-0.54 1.65,-0.6 0.35,2.03 -0.11,3.28 0.07,5.18l1.22 -0.11 0.38 -0.31 -0.35 -2.55z"/>
   <path class="fil2" d="M90.61 46.89c1.86,-0.7 4.88,-2.25 5.16,-4.5 -1.36,0.06 -5.74,1.69 -7.32,2.16 -6.99,2.07 -15.94,4.09 -23.11,5.16 -2.78,0.41 -5.34,0.94 -8.08,1.35l-16.6 2.25c-1.49,0.17 -7.43,0.63 -8.27,1.25 0.57,1.82 7.35,0.84 8.47,0.72 14.14,-1.54 28.12,-3.24 41.98,-6.4 2.59,-0.59 5.41,-1.1 7.76,-1.99z"/>
   <path class="fil3" d="M97.06 35.58c1.38,2.95 0.08,2.21 -0.26,4.34 -0.26,1.61 0.4,1.1 -0.34,2.18 -0.39,0.57 -0.59,1.2 -1.02,1.85 -1.44,2.2 -4.23,3.17 -7.38,4.07 -11.23,3.21 -36.94,6.77 -49.47,7.79 -6.55,0.53 -7.63,-2.5 -9.75,-0.91 0.92,3.01 7.14,2.57 9.51,2.38 14.16,-1.14 39.3,-3.18 51.68,-8.12 6.4,-2.56 6.98,-4.13 8.44,-9.59 0.49,-1.83 0.35,-3.34 -0.32,-4.89 -0.83,0.02 -1.78,0.34 -2.21,0.85 0.64,0.52 0.42,0.18 1.12,0.05z"/>
   <path class="fil4" d="M96.22 41.03c0.18,-0.68 0.32,-1.42 0.2,-2.1 -0.92,0.13 -2.69,0.97 -3.66,1.34 -4.1,1.55 -6.97,2.36 -11.28,3.54 -5.27,1.43 -10.68,2.64 -16.18,3.69 -11.27,2.15 -23.2,3.86 -35.08,4.7 0.04,0.83 0.62,1.43 1,1.87 2.42,0.2 14.64,-1.73 18.04,-2.17 16.12,-2.08 30.29,-4.69 45.58,-9.74 0.77,-0.25 1.16,-0.25 1.39,-1.12z"/>
   <path class="fil5" d="M86.66 94.49c-0.13,-0.58 -0.13,-1.69 0.55,-1.97l0.23 0.02c0.14,0.6 0.17,1.76 -0.78,1.95zm1.52 -2.09c-0.24,-0.53 0.05,-1.33 0.27,-1.86 0.55,-1.33 0.56,-1.2 1.17,-1.4 -0.04,1.15 -0.53,2.93 -1.44,3.26zm8.53 -1.01c-0.5,0.89 -1.07,2.16 -1.96,2.42 0.02,-1.44 2.15,-5.36 3.14,-5.5 -0.02,0.88 -0.77,2.36 -1.18,3.08zm10 -0.16c0.98,0.87 0.16,1.8 -0.65,1.95 0.06,-0.58 0.21,-1.51 0.65,-1.95zm1.01 -0.15c-0.31,-0.63 -0.03,-1.38 0.17,-1.99 0.26,-0.76 0.35,-1.23 1.04,-1.55 0.09,1.13 -0.27,3.13 -1.21,3.53zm3.2 -2.97c-0.72,0.29 -0.76,1.73 -1.8,2.95 -0.08,-1.34 2.03,-4.73 -0.39,-5.34 -1.15,0.31 -2.14,2.25 -2.68,3.39 -0.32,0.67 -0.64,1.33 -0.96,2.07l-0.74 1.46c-0.24,0.3 -0.1,0.24 -0.51,0.37 -0.33,-0.78 0.73,-2.51 1.12,-3.3 0.44,-0.87 1.64,-2.41 1.53,-3.29l-0.61 -0.34c-1.4,0.87 -3.1,6.63 -4.29,7.28 -0.02,-1.99 2.02,-4.49 2.59,-5.62 0.65,-1.28 -0.11,-1.26 -1.14,-1.21 0,-1.23 1.49,-1.47 0.29,-2.65 -1.25,0.38 -2.17,3.49 -2.89,4.85l-2.28 4.46c-0.42,0.65 -0.01,0.29 -0.59,0.48 -0.28,-1.19 2.68,-5.64 2.77,-5.89 0.28,-0.78 -0.32,-1.39 -0.94,-0.76l-0.63 0.8c-0.6,-0.29 -1.35,-2.45 -3.66,1.66 -0.44,0.79 -0.74,1.52 -1.17,2.36 -0.24,0.48 -0.92,1.96 -1.31,2.05 -0.48,-1.49 1.78,-4.35 2.52,-5.58 0.83,-1.38 -0.33,-0.96 -1.16,-1.16 0.03,-0.87 0.95,-1.05 0.68,-2.36 -1.57,-0.34 -1.86,1.76 -2.41,3 -0.3,0.68 -1.76,3.29 -2.27,3.52 0.24,-1.16 1.14,-2.95 -0.05,-3.66 -1.64,-0.97 -3.85,3.48 -4.24,4.69 -0.53,1.62 -0.68,2.54 0.61,3.27 0.44,-0.14 0.77,-0.34 1.15,-0.64 0.81,-0.66 0.31,-0.72 1.04,-1.02 0.49,0.91 0.1,1.21 1.01,1.42 0.6,-1.1 -0.27,-0.76 1.54,-3.73 0.91,-1.49 1.27,-3.14 2,-3.34 1.01,1.2 -4.15,5.81 -1.01,7.03 0.83,-0.34 0.51,-0.66 1.18,-0.98 0.54,0.4 0.88,1.49 2.19,0.14l0.58 -0.63c0.02,-0.02 0.06,-0.06 0.09,-0.09l0.72 1.35c0.75,0.04 0.44,-0.11 1.02,-0.17 1.93,-0.2 0.03,0.56 2.36,-3.78 0.74,-1.38 1.1,-3.12 1.8,-3.45 0.78,1.06 -2.48,4.41 -1.6,6.53 0.16,0.38 0.5,0.61 1.05,0.43 0.56,-0.18 0.29,-0.3 0.72,-0.82 0.78,0.26 0.39,0.52 1.18,0.81 1.38,-0.41 0.58,-0.88 1.35,-1.38 0.87,0.58 1.06,2.2 2.96,-0.06 0.93,-1.1 0.68,0.64 2.61,-2.6 0.33,-0.56 1.2,-1.81 0.66,-2.52z"/>
   <path class="fil6" d="M62.81 18.42c0.05,0.99 1.44,4.87 1.82,6.11 0.64,2.09 1.2,4.09 1.75,6.16 0.56,2.14 1.07,4.16 1.6,6.31 0.31,1.24 1.06,5.82 1.44,6.5 0.75,0.09 2.71,-0.28 3.55,-0.46 1.23,-2.35 0.67,-4.61 0.06,-7 -0.94,-3.65 -4.71,-17.38 -5.97,-19.19l-4.25 1.57z"/>
   <path class="fil6" d="M61.31 32.78c0.26,0.87 6.03,8.89 6.82,9.14 -0.09,-2.37 -5.27,-21.78 -6.25,-23.13l-3.92 1.2 3.35 12.78z"/>
   <path class="fil7" d="M48.76 29.11c-0.03,-0.04 -0.07,-0.09 -0.09,-0.12 -0.5,-0.77 -0.23,-0.85 -0.73,-1.39l0.14 1.01c-0.6,0.39 -3.44,1.35 -4.2,1.23 -1,-0.16 -0.53,-0.95 -1.93,-0.65l-6.49 1.63c-3.01,0.77 -2.97,0.51 -3.33,2.04 -1.03,0.28 -2.3,0.56 -3.41,0.81 -0.56,0.13 -1.05,0.24 -1.64,0.37 -0.84,0.19 -1.12,0.14 -1.56,0.52l0.52 0.11c-0.43,0.59 -0.62,0.37 -0.47,1.43 0.25,1.77 0.96,4.31 1.05,5.01 0.26,2.11 -0.05,5.43 1.6,6.45l-0.03 -2.37c-0.33,-0.08 -0.27,-0.06 -0.55,-0.22l-0.02 -0.86c0.23,-0.21 -0.28,-0.39 0.38,-0.07 -0.1,-1.28 -1.07,-7.81 -0.83,-8.35 0.5,-0.35 8.61,-2.05 10.06,-2.41l9.85 -2.5c0.79,1.99 1.27,4.38 1.81,6.6l1.55 6.87 0.13 -0.47c0.26,0.8 0.24,2.24 0.65,2.9 0.37,0.34 1.47,-0 1.66,-0.13 -0.63,-0.18 -0.26,0 -0.52,-0.54l-4.09 -15.97c-0.19,-0.77 -0.32,-1 0.46,-0.94z"/>
   <path class="fil8" d="M68.03 16.55c0.02,0.63 4.03,12.74 4.85,15.72 0.23,0.85 0.93,4.6 1.72,4.82 0.16,-0.72 0.21,-2.25 0.36,-3.18 0.16,-1 0.34,-1.86 0.51,-2.86 0.51,-2.95 0.46,-3.27 -0.4,-5.82 -0.55,-1.64 -2.94,-9.25 -3.6,-10.17l-3.45 1.49z"/>
   <path class="fil9" d="M52.72 47.06c-0.57,0.49 -6.66,1.02 -8.04,1.37 -1.1,-0.01 -15.38,2.03 -15.79,2.24 0.03,0.54 0.15,0.8 0.38,1.14 2.36,0.48 16.53,-1.57 19.81,-2.02l14.07 -2.27c0.76,-0.15 1.45,-0.28 2.25,-0.45 0.87,-0.19 1.6,-0.24 2.08,-0.61 -5.93,-2 -12.14,0.84 -14.76,0.6z"/>
   <path class="fil2" d="M21.65 96.34c2.86,1.81 2.06,-4.96 3.7,-6.41 0.45,-0.4 1.58,-0.46 1.89,0.14 0.22,0.42 -0.2,1.42 -0.35,1.91 -0.25,0.81 -1.15,3.28 -0.86,4.07l1.86 0.06c0.72,-0.97 2.24,-6.41 1.58,-7.59 -0.39,-0.69 -0.69,-0.71 -1.74,-0.71 -1.46,0.01 -5.93,0.31 -6.93,0.09l-0.32 -1.32c-2.43,-0.16 -2.45,2.08 -2.92,4.15 -0.23,1.03 -2.01,5.65 -0.59,5.96 0.56,0.12 1.18,0.01 1.51,-0.47l1.27 -3.95c0.49,-1.56 0.73,-3.06 2.92,-2.35 0.36,1.4 -1.25,5.17 -1.15,6.05 0.04,0.38 -0.01,0.15 0.14,0.37z"/>
   <path class="fil2" d="M36.13 92.8c0.24,0.72 0.11,2.19 -0.49,2.53 -0.15,0.09 -5,1.26 -2.32,-2.62 0.94,-0.16 2.04,-0.2 2.81,0.09zm-6.33 3.49c0.98,0.85 3.25,0.9 4.85,1.01 3.68,0.25 3.71,-2.81 4.31,-7.04 0.27,-1.9 0.95,-3.9 -1.28,-4.13 -1.12,-0.11 -4.47,-0.28 -5.48,0.07 -0.86,0.3 -1.21,0.67 -1.47,1.38 -1.35,3.68 1.16,3.19 1.61,1.96 0.38,-1.05 0.17,-1.34 1.42,-1.42 0.69,-0.04 2.27,-0.34 2.62,0.23 0.42,0.67 -0.05,2.05 -0.23,2.45 -1.57,0.44 -3.94,0.08 -5.18,0.89 -0.87,0.57 -1.53,3.15 -1.17,4.6z"/>
   <path class="fil2" d="M66.08 95.48c-0.59,0.46 -2.37,0.29 -2.96,-0.01 -0.18,-0.64 -0.08,-1.52 0.16,-2.12 0.31,-0.76 0.83,-0.66 1.83,-0.69 1.42,-0.05 1.74,0.19 1.43,1.88 -0.14,0.76 -0.02,0.6 -0.46,0.95zm-2.67 -7.52c0.94,-0.06 2.08,-0.21 2.98,0.03 0.21,0.61 0.23,1.73 0.01,2.38 -0.65,1.93 -3.64,-0.44 -5.15,1.61 -0.59,0.8 -1.21,3.78 -0.54,4.89 0.46,0.76 4.08,0.78 5.24,0.68 2.07,-0.18 2,-1.37 2.55,-3.21 0.34,-1.14 0.6,-3.88 0.7,-5.24 0.18,-2.41 -0.07,-3.37 -2.58,-3.25 -4.15,0.21 -5.34,-0.55 -5.92,2.75 -0.25,1.42 -0.14,1.79 1.25,1.67 0.66,-0.86 0.76,-1.52 1.46,-2.32z"/>
   <path class="fil4" d="M75.72 57.09c-2,0.34 -4.31,2.22 -4.23,4.55 0.04,1.2 0.72,2.53 1.71,2.66 1.43,0.19 6.95,0.15 7.76,-0.97 0.59,-0.82 1,-2.14 0.64,-3.36 -0.61,-2.05 -3.12,-3.35 -5.87,-2.88z"/>
   <path class="fil2" d="M6.7 90.73c-0.23,-0.78 0.12,-2.23 0.75,-2.49 0.57,-0.23 2.53,-0.38 2.89,0.01 0.46,0.5 -0.23,2.11 -0.72,2.32 -0.64,0.27 -2.27,0.38 -2.92,0.16zm2.81 -5.53c1.05,-0.11 1.02,-1.52 0.84,-1.95 -0.24,0.12 -0.05,-0.32 -0.54,0.25 -0.39,0.46 -0.52,1.17 -0.31,1.7zm2.14 7.81c-1.71,-0.65 -2.02,1.13 -2.65,2.12 -0.9,0.08 -2.04,-0 -2.66,-0.33 -0.14,-0.86 -0,-1.67 0.33,-2.29 2.99,-0.94 4.55,0.63 5.76,-2.67 1.34,-3.64 -0.52,-3.75 -3.61,-3.43 -2.42,0.26 -3.21,-0.12 -4.33,3.9 -1.15,4.12 -2.44,7.6 2.47,6.85 1.27,-0.19 1.33,-0.34 2.08,-0.96 0.67,-0.55 3.5,-0.9 2.6,-3.2z"/>
   <path class="fil2" d="M59.22 96.7c0.3,-2.43 -1,-5.72 -0.9,-6.09 0.45,-0.74 2.48,-2.94 2.2,-4.16 -3.39,-0.6 -2.42,4.72 -5.67,4.63 -0.05,-1.72 1.56,-7.1 0.71,-7.46 -0,-0 -0.11,-0.27 -1.08,-0.17 -0.65,0.07 -0.69,0.1 -0.97,0.47 -0.5,0.59 -0.89,6.01 -1.03,7.22 -0.46,3.9 -1.5,6.21 0.98,6 0.71,-1 0.48,-2.97 1.21,-4.01 0.55,-0.24 1.37,-0.41 1.78,-0.13 0.76,0.59 0.64,2.95 0.9,4 0.72,0.08 1.37,-0.09 1.87,-0.3z"/>
   <path class="fil2" d="M43.93 88.48c-1.38,5.91 -2.45,7.74 1.8,8.06 3.11,0.23 4.66,0.58 5.36,-2.61 0.28,-1.27 1.05,-6.02 0.84,-7.15 -2.54,-0.67 -2.37,1.35 -2.75,3.25 -0.31,1.56 -0.52,4.21 -1.45,4.4 -5.56,1.15 -0.95,-5.23 -1.83,-7.47 -1.36,-1 -1.68,0.27 -1.98,1.53z"/>
   <path class="fil5" d="M84.14 89.93c-0.7,-1.34 3.44,-4.08 0.33,-6.12 -0.97,-0.28 -6.71,2.91 -5.24,5.95 0.61,-0.15 0.77,-0.58 1.19,-1.18 0.81,-1.14 2.46,-3.16 3.86,-3.32 0.18,1.38 -1.73,4.39 -2.36,5.14 -1.41,0.2 -2.54,-0.86 -2.18,1.1l1.06 0.41c0.02,1.39 -2.64,3.23 -1.05,4.76 0.65,-0.19 0.4,-0.19 0.95,-1.41 0.65,-1.45 1.89,-4.16 3.35,-3.88 0.03,1.24 -2.01,3.63 -1.82,5.03 1.31,0.46 1.56,-0.78 1.93,-1.73 0.82,-2.11 2.96,-6.06 4.04,-7.92 0.73,-1.26 1.52,-1.88 1.29,-2.49 -0.72,-1.89 -3.89,5.24 -4.7,5.67 -0.57,0.3 -0.41,0.13 -0.64,-0.01z"/>
   <path class="fil5" d="M41 42.49c0.49,-0.1 0.52,-0.46 0.74,-0.84 0.86,-1.5 1.94,-1.05 2.43,-0.52 0.36,0.39 0.33,1.13 0.37,1.83 -0.31,-0.56 0.13,-0.69 -0.58,-1.43 -1.53,-1.62 -1.95,0.83 -2.59,1.61l-0.22 0.19c-0.19,0.6 -0.5,1.14 -0.73,1.74 -0.5,1.26 0.19,1.18 -0.08,1.92 -0.46,-0.25 -0.42,-0.66 -0.67,-1.15l-1.3 -0.02 -0.72 0.02 0.07 0.66 0.02 0.55c2.54,0.25 3.13,1.33 4.53,-0.84l1.45 -2.41c0.32,-0.39 1.16,-0.63 1.52,-0.34 -0.67,0.32 -0.81,0.07 -1.31,0.56 -0.54,0.54 -1.81,2.56 -2.01,3.53l0.12 0.63 1.84 -0.02c1.61,-0.22 1.18,-1.31 1.74,-2.61 0.61,-1.43 1.06,-1.59 1.71,-2.59 -0.36,-0.66 -1.9,-2.55 -2.68,-2.97 -2.38,-1.29 -2.53,0.42 -3.62,1.24 0.22,-0.87 0.91,-0.81 1.12,-1.64l-1.37 -0.22c-0.8,1.64 -1.14,0.73 -1.15,1.9 0.92,0.36 1.36,-0.23 1.36,1.24z"/>
   <path class="fil9" d="M97.01 36.15l-11.26 3.86c-2.07,0.68 -3.76,0.91 -5.51,1.89 -0.91,0.51 -4.34,2.28 -4.79,2.96 1.75,-0.2 9.15,-2.38 11.31,-3.02 1.8,-0.53 3.52,-1.12 5.29,-1.78 1.61,-0.6 3.8,-1.3 5.22,-1.98 0.1,-0.72 -0.09,-1.38 -0.26,-1.92z"/>
   <path class="fil2" d="M42.27 91.21c0.22,-1.07 1.71,-7.13 1.13,-7.69 -0.39,-0.37 -1.64,-0.25 -1.98,0.09 -0.29,0.28 -0.39,1.22 -0.48,1.73 -0.37,2.12 -2.14,10.6 -1.8,11.52 2.55,0.7 2.22,-1.1 3.13,-5.65z"/>
   <path class="fil10" d="M44.55 58.1c-0.05,0.04 -0.07,0.08 -0.16,0.11 -0.08,0.02 -0.24,0.17 -0.27,0.2 -0.81,0.71 0.32,-0.75 -0.25,0.27 0.11,0.52 0.03,0.97 -0.05,1.32 -0.27,0.34 0.12,0.17 -0.45,0.2 -0.02,0 -0.59,-0.09 -0.64,-0.1 -0.49,0.33 -0.47,0.24 -0.34,1 1.2,0.34 0.78,-0.46 2.16,-0.83 0.33,0.57 0.15,0.78 0.32,1.51 0.13,0.53 0.44,0.96 0.64,1.23 1.14,0.12 3.39,0.06 4.19,-0.45 0.29,-0.79 -0.13,-4.47 -0.33,-5.59 -0.76,-0.16 -2.11,0.04 -2.97,0.08 -1.39,0.07 -1.27,0.02 -1.85,1.05z"/>
   <path class="fil6" d="M53.04 21.71c0.07,1.52 2.48,4.06 3.3,5.06 0.42,0.51 3.36,4.34 3.67,4.49 0.03,-0.91 -2.41,-10 -2.86,-10.83 -0.67,0.04 -3.63,0.92 -4.11,1.28z"/>
   <path class="fil4" d="M28.89 62.71c-4.37,0.73 -4.26,5.73 0.64,5.08 4.55,-0.6 4.18,-5.88 -0.64,-5.08z"/>
   <path class="fil8" d="M75.54 13.33l-3.22 1.45c0.23,1.19 2.17,6.16 2.83,8.01 0.29,0.82 0.56,2.07 1.08,2.61 0.34,-0.66 0.46,-5.44 0.53,-6.55 0.19,-2.84 -0.39,-3.18 -1.22,-5.52z"/>
   <path class="fil11" d="M59.1 65.02c1.3,-0.01 3.27,-0.56 4.51,0.16 0.27,-0.54 -0.54,-0.31 0.81,-0.42 0.43,-0.04 1.39,0.18 2.37,-0.08 -0.22,-0.48 -0.17,-0.34 -0.81,-0.55 -0.29,-0.09 -0.73,-0.21 -1.09,-0.3 -2.9,-0.69 -15.29,-0.89 -17.25,-0.47l0.01 0.4c0.12,0.44 0.46,0.54 0.85,1.13 3.53,0.23 7.59,-0 11,-0.18 -0.84,0.25 0.06,-0.07 -0.4,0.32z"/>
   <path class="fil10" d="M56.26 61.9c0.39,-0.35 0.26,-0.15 0.23,-0.86 -0.01,-0.21 -0.08,-0.67 -0.1,-0.91 -0.47,-4.02 0.22,-4.39 -2.42,-3.74l-0.25 1.32 -1.53 -0.03c-0.54,-0.87 -0.17,-0.77 -0.86,-1.03l0.38 5.74c0.92,-0.03 4.06,-0.06 4.55,-0.49z"/>
   <path class="fil6" d="M48.04 23.92c0.06,0.92 0.67,2.52 0.95,3.46 0.61,2.01 0.38,2.07 1.47,2.92 0.88,0.68 4.13,3.46 4.9,3.73 -0.07,-0.71 -0.6,-2.9 -0.84,-3.57 -0.26,-0.71 -1.56,-1.88 -2.04,-2.35 -0.86,-0.85 -3.59,-3.83 -4.44,-4.18z"/>
   <path class="fil12" d="M39.65 38.97c-1.23,-1.15 -0.82,-0.2 -1.47,-0.8 -1.48,-0.44 0.51,-1.53 -1.61,-1.41 -1.23,0.02 -1.65,-0.5 -1.62,0.81 0.88,-0.14 0.21,-0.19 1.02,-0.35 -0.18,2.06 -4.89,-0.23 -4.9,1.85 0.8,0.53 2.32,-0.66 3.82,-0.5 0.02,0.65 -0.1,0.4 0.22,0.8 1.49,-1.2 0.88,-1.11 1.74,-1.16 -1.03,2.21 -5.01,1.11 -5.26,3.77 1.35,1.2 3.83,-0.03 5.24,-1.37 1.08,-1.02 0.48,-0.9 1.32,-1.36l0.17 0.62c0.29,0.46 0.91,0.38 1.5,0.39 0.29,-0.46 0.33,-0.33 0.33,-1.03l-0.51 -0.26z"/>
   <path class="fil10" d="M61.4 55.61c-0.9,-0.19 -2.53,0.12 -3.4,0.28 -0.1,0.76 0.15,5.2 0.5,5.61 0.37,0.2 0.04,0.1 0.55,0.16l1.68 -0.18c0.69,-0.21 1.17,-0.55 1.25,-1.34 0.09,-0.9 -0.22,-3.86 -0.58,-4.53z"/>
   <path class="fil4" d="M95.32 47.16c-0.64,0.14 -1.34,0.6 -1.76,1 0.05,1.05 1.83,9.14 2.2,9.82 0.62,-0.04 1.26,-0.24 1.74,-0.55l-2.18 -10.27z"/>
   <path class="fil8" d="M84.31 12.61c-0.36,0.67 -1.06,4.47 -1.25,5.5 -0.24,1.28 1.34,4.79 1.55,5.05 0.32,-0.52 1.91,-4.67 1.82,-5.24l-1.5 -4.06c-0.08,-0.21 -0.13,-0.4 -0.22,-0.62l-0.41 -0.63z"/>
   <path class="fil13" d="M16.62 72.03c1.56,-0.49 1.62,-0.34 3.34,-0.36 2.84,-0.03 2.73,0.24 3.39,0.24l0.53 -3.13 -6.07 0.25 -0.53 0.71c-0.34,0.66 -0.73,1.56 -0.65,2.29zm53.3 23.55c0.24,-0.49 0.3,-0.78 0.16,-1.34 -0.89,0.05 -1.26,1.1 -1.09,2.07 0.55,-0.05 0.66,-0.18 0.93,-0.73zm2.99 -2.84c0.12,0.74 0.07,1.84 -0.78,1.8 -0.15,-0.89 -0.02,-1.82 0.78,-1.8zm2.43 -3.07l-0.9 2.35c-0.31,0.7 -0.1,0.47 -0.58,0.62 -0.68,-1.35 0.51,-2.85 1.48,-2.97zm-0.18 3c0.28,-1.03 1.33,-2.58 1,-3.67 -0.15,-0.5 -0.72,-1.02 -1.28,-1.01 -1.36,0.02 -5.48,5.15 -3.56,7.65 1.16,0.03 1.43,-0.23 2.05,-0.81 0,-0 4.32,-2.5 4.09,-4.44 -1.21,-0.14 -1,1.63 -2.3,2.28zm-65.73 4.1c-0.88,0.84 -1.56,1.22 -1.6,1.92 1.78,0.07 1.89,0.06 2.93,-0.76 1.09,-0.85 1.67,-0.99 1.79,-1.77 -1.12,-0.06 -2.48,0.01 -3.11,0.61zm14.8 2.87l0.03 3.17 -2.43 -0.02c0.05,-0.75 0.71,-1.28 1.09,-1.79 0.43,-0.58 0.73,-1.15 1.31,-1.36zm78.34 6.23c-0.35,0.52 -0.68,2.31 -0.45,2.96 0.4,0.18 1.67,0.13 2.25,0.05 0.21,-0.03 0.24,-0.02 0.44,-0.09 0.65,-0.23 0.57,-1.23 0.89,-3.02 -0.96,-0.2 -2.18,0.01 -3.13,0.1zm-9.08 -0.02c-0.43,0.58 -0.79,2.17 -0.77,3.11l3.23 0.09 0.5 -3.2 -2.95 0zm4.37 0l-0.59 3.06c1.66,0.29 3.58,-0.02 3.27,-0.19l0.53 -2.89c-0.78,-0.26 -2.41,-0.2 -3.21,0.02zm-2.96 -8.83c-0.35,0.88 -1.37,7.26 -1.1,8l2.58 0.07c0.4,-0.78 1.83,-7.26 1.64,-7.98 -0.82,-0.23 -2.27,-0.21 -3.12,-0.09zm4.66 -0.08c-0.42,0.92 -1.52,7.32 -1.1,7.98 0.56,0.39 1.94,0.17 2.65,-0.02 0.31,-0.98 1.62,-7.19 1.49,-8 -0.83,-0.26 -2.2,-0.18 -3.05,0.05zm4.42 -0.31c-0.29,1.2 -1.24,7.66 -0.84,8.34 0.45,0.19 1.22,0.14 1.82,0.04 0.84,-0.15 0.75,-0.19 0.91,-1.09 0.22,-1.18 0.45,-2.33 0.68,-3.53 0.79,-4.01 1.23,-4.18 -0.67,-4.02 -0.63,0.05 -1.36,0.13 -1.9,0.26zm-95.05 4.5c0.12,0.66 -0.12,1.09 -0.38,1.5 -0,0 -3.47,1.27 -1.66,-1.51l2.04 0.01zm-3.61 4.65c-0,-1.83 0.76,-1.49 2.34,-1.45 1.23,0.03 2.55,0.08 3.73,0.08 0.42,-0.78 1.52,-3.16 1.24,-4.36 -0.97,-0.84 -7.7,-0.64 -8.6,0.08 -0.88,0.71 -3.05,6.23 -2.56,6.96 0.47,0.69 7.98,0.4 8.51,0.3l0.68 -1.8c-1.54,-0.01 -3.58,0.46 -5.34,0.19zm38.76 -4.31c1.17,-0.05 2.29,-0.41 1.82,1.13 -0.27,0.9 -0.95,0.81 -2.43,0.53 -0.03,-0.89 0.17,-1.21 0.6,-1.66zm3.96 4.71c-1.42,-0.07 -3.87,0.55 -5.28,0.05 -0.64,-2.76 2.31,-0.86 5.78,-1.37 0.54,-0.98 1.3,-3.17 0.8,-4.56 -1.03,-0.66 -2.97,-0.41 -4.28,-0.44 -1.68,-0.04 -3.18,-0.36 -4.08,0.65 -0.88,0.99 -2.37,5.47 -2.01,6.98 0.72,0.37 7.64,0.77 8.22,0.45 0.26,-0.2 0.06,0.05 0.34,-0.38l0.51 -1.39zm19.75 -1.57c2.6,-0.63 2.05,0.55 1.35,2.32 -2.57,0.46 -2.02,-0.88 -1.35,-2.32zm-2.4 -2.54c1.43,-0.17 3.32,-0.5 4.84,-0.08 0.46,2.25 -3.61,-0.06 -5.21,1.34 -0.72,0.63 -2.13,4.18 -0.91,4.99 0.65,0.3 3.45,0.38 4.27,0.19 0.77,-0.18 2.83,0.21 4.18,0.18 0.05,-1.95 1.52,-6.25 1.07,-7.56 -0.39,-1.14 -2.17,-0.85 -3.47,-0.86 -1.22,-0.02 -3.1,-0.26 -4.28,-0.03l-0.48 1.83zm23.1 5.05c-0.45,0.26 -1.35,0.24 -1.83,0.01 -0.4,-0.67 0.17,-2.32 0.33,-3.08 0.3,-1.41 0.07,-2.07 1.53,-2.15 1.92,-0.1 1.16,0.84 0.55,3.73 -0.05,0.22 -0.13,0.69 -0.18,0.84 -0.19,0.61 0.02,0.31 -0.4,0.65zm4.5 -5.97c-0.4,-1.56 -2.07,-0.97 -3.63,-0.92 -4.41,0.14 -4.65,-0.59 -5.67,3.71 -1.34,5.68 -0.49,4.93 3.14,4.94 4.07,0.01 4.84,0.97 5.69,-3.66 0.2,-1.09 0.72,-3.1 0.47,-4.07zm-14.87 0.98c2.17,-0.53 2.12,-0.1 1.73,1.69 -0.23,1.04 -0.42,2.37 -0.76,3.28 -0.85,0.08 -1.34,0.19 -2.09,-0.09 -0.16,-0.9 0.66,-4.18 1.12,-4.89zm3.08 -4.86c-0.44,0.94 -0.2,2.47 -0.76,3.46 -0.98,-0.3 0.17,-0.56 -2.7,-0.38 -2.75,0.17 -3.42,1.4 -4.1,5.54 -0.5,3.03 0.49,2.72 3.1,2.84 2.55,0.12 0.91,-0.56 2.6,-0.03 0.53,0.17 0.83,0.15 1.38,0.19l1.03 0.02c0.36,-0.06 0.19,-0.01 0.39,-0.13 0.31,-0.55 2.3,-10.86 2.14,-11.55l-3.08 0.04zm-16.86 4.52c0.29,-0.7 0.31,-0.77 0.22,-1.57 -0.93,-0.3 -1.34,0.05 -2.3,-0.07l0.11 -1.75 -3.14 0.02 -0.59 1.68c-5.91,0.06 -2.87,0.17 -4.52,0.9l-0.31 -0.93 -2.99 0c-0.65,3.14 -2.16,7.18 -2.32,8.03l3.9 0.12c0.19,-1.32 0.6,-2.95 1.03,-4.23 0.73,-2.2 1.31,-1.48 3.42,-1.38 0.4,-0.43 0.24,-0.49 0.49,-0.77 0.37,-0.41 0.33,-0.3 0.65,-0.08 0.54,0.57 -1.61,4.63 -0.71,6.09 0.52,0.83 4.43,0.71 5.43,0.55 0.33,-0.61 0.42,-0.97 0.45,-1.72 -0.77,-0.01 -2.07,0.28 -2.58,-0.12 -0.29,-0.48 0.86,-4.03 1.2,-4.84l2.55 0.07zm-29.59 4.25c-0.7,0.1 -1.26,0.18 -1.95,-0 -0.09,-0.74 0.36,-1.76 0.6,-2.51 0.39,-1.24 0.35,-1.79 0.95,-2.13 0.44,-0.23 1.33,-0.16 1.77,0.04 0.19,0.54 -1.05,4.01 -1.38,4.61zm-3.79 -6.45c-0.14,0.56 -1.82,6.96 -2.41,7.37 -0.03,-0.04 -0.05,-0.09 -0.07,-0.12 -0.01,-0.03 -0.05,-0.09 -0.06,-0.13 -0.4,-1.2 0.06,-8.67 -0.55,-9.83l-3.94 -0.09c-0.47,1.61 -0.87,1.82 -1.79,2.91 -0.92,1.09 -5.99,6.92 -6.06,7.77l2.26 0.02c0.23,-0.81 1.11,-2.35 1.65,-2.69 0.56,-0.35 3.25,-0.17 4.1,-0.12 0.43,1.29 -0.05,1.8 -0.08,2.93l4.3 0.09 -0.75 2.93 3.58 0.17 0.91 -3.35c5.93,1.08 5.95,-0.24 7.41,-4.71 0.92,-2.82 0.07,-2.92 -2.67,-2.98 -0.98,-0.02 -2.04,0.33 -2.7,0.13 -1.1,-0.32 -1.97,-0.26 -3.14,-0.28zm-15.55 -32.07c-0.39,-0.8 0.97,-1.64 1.24,-2.09 0.07,0.75 -0.64,1.84 -1.24,2.09zm0.29 3.66c0.78,-2.07 3.57,-7.53 3.08,-8.55 -1.1,-0.21 -4.33,3.49 -5.1,4.5 -1.1,1.44 -2.31,0.1 -2.62,1.11 -0.2,0.67 0.34,0.58 0.65,1.13 -0.26,0.68 -2.14,2.46 -0.68,3.41 0.8,-0.36 1.2,-1.83 1.7,-2.56 0.46,-0.67 1.1,-1.69 2.23,-1.58 0.23,1.44 -3.01,5.68 -0.13,5.65 0.33,-1.01 0.5,-2.09 0.88,-3.11zm-4.37 13.84l7.35 -0.1c0.29,-0.42 1.31,-2.68 1.34,-3.16 -0.37,-0.07 -4.91,0.8 -6.94,0.38 -0.21,-1.47 1.9,-5.35 2,-7.05 -0.93,-0.48 -2.51,0.17 -1.82,-2.63 0.65,-2.64 0.5,-1.19 0.01,-1.67 -1.39,3.96 -1.78,2.61 -2.75,2.42 -0.48,0.61 -1.86,4.74 -2.27,5.84 -0.65,1.75 -1.9,4.58 -0.08,5.8 0.68,-0.51 0.86,-1.95 1.9,-2.1 0.53,-0.08 1.13,0.32 1.3,0.6 0.34,0.57 -0,1 -0.04,1.68zm61.89 -18.35l-1.68 9.1c-0.3,1.44 -0.63,2.87 -1.01,4.42 -0.31,1.27 -0.93,3.14 -1.05,4.32 0.71,-0.04 5.64,-0.25 5.77,-0.29 0.24,-3.02 1.72,-10.08 2.42,-13.61 0.25,-1.25 0.94,-3.28 1.03,-4.24l-5.47 0.3zm27.43 1.21c0.3,0.5 1.03,5.44 0.97,6.16l-3.76 0.43c0.21,-0.86 2.33,-6.16 2.79,-6.59zm4.54 -5.78c-0.92,-0.07 -4.64,0.9 -5.39,1.25l-0.19 0.77c-0.03,0.3 0,0.41 -0.07,0.74l-1.56 3.84c-1.49,3.41 -2.75,6.41 -4.44,9.72 -0.43,0.84 -2.29,4.15 -2.34,4.9l3.23 -0.18c0.46,-2.37 0.52,-3.45 1.91,-5.28l5.77 -0.74c0.14,0.78 0.28,1.78 0.36,2.54 0.12,1.16 -0.21,1.68 -0.18,2.68l6.09 -0.83 -3.21 -19.42zm-78.67 19.74c-0.55,-0.6 0.12,-1.84 0.6,-3.3 0.39,-1.17 0.75,-2.27 1.12,-3.42 0.18,-0.56 0.91,-3.02 1.17,-3.38 0.4,-0.54 3.4,-0.68 3.86,-0.36 0.67,0.46 -0.3,2.59 -0.55,3.35l-2.25 6.83c-0.57,0.66 -3.36,0.67 -3.96,0.28zm6.41 -13.26c-7.02,0.37 -7.56,-0.87 -10.17,6.93 -0.59,1.75 -1.89,4.83 -2.09,6.51 -0.43,3.59 2.98,2.72 5.86,2.71 1.46,-0 2.92,-0.01 4.38,-0.02 1.82,-0.01 2.29,-0.05 3.35,-0.9 1.58,-1.27 2.19,-3.42 2.89,-5.69 3.08,-9.98 2.47,-9.9 -4.22,-9.55zm12.15 6.29c-0.17,-0.67 0.37,-2.88 0.64,-3.49 0.35,-0.8 2.77,-0.55 3.67,-0.44 0.2,0.8 -0.48,3.12 -0.85,3.76l-3.45 0.17zm9.1 -1.48c0.43,-1.51 1.45,-4.38 -0.29,-5.14 -0.86,-0.38 -11.25,-0.08 -12.86,0.11 -0.23,0.63 -0.25,1.54 -0.42,2.3l-1.75 6.16c-0.4,1.34 -0.78,2.8 -1.24,4.14 -0.29,0.86 -1.32,3.2 -1.34,3.86l3.9 0.03c0.11,-0.41 0.33,-1.33 0.62,-1.72 0.66,-0.89 1.33,-0 1.87,-1.02 0.22,-0.41 1.01,-3.83 1.46,-4.57 3.01,-0.31 0.95,2.67 1.99,7.13l5.87 0.05c-0.11,-1.61 -0.98,-6.24 -0.78,-7.36 1.46,-0.24 1.49,-0.12 2.12,-1.42 0.44,-0.9 0.57,-1.58 0.85,-2.55zm11.21 -3.12c0.06,0.26 -0.09,3.51 -1.12,3.82l-3.15 0.25c-0.14,-0.63 0.33,-2.83 0.56,-3.5 0.27,-0.79 0.63,-0.57 1.57,-0.58 0.73,-0 1.43,-0.07 2.14,0zm-3.99 -2.68c-4.3,0.07 -4.52,-0.34 -4.63,1.23 -0.17,2.4 -1.51,6.77 -2.13,9.3 -0.32,1.29 -0.94,3.26 -1.05,4.61 1.06,-0.05 2.04,-0.43 3.09,-0.04 1.02,0.37 0.41,1.21 1.19,1.98 1.17,0.48 1.06,-2.25 1.57,-4.19 0.87,-3.32 0.66,-3.41 2.34,-3.24 0.28,1.5 0.46,6.31 0.81,7.27 0.67,0.16 4.88,0.07 5.69,-0.02 0.28,-1.59 -0.98,-5.57 -0.92,-7.54 1,-0.48 1.23,-0.06 1.83,-0.99 0.35,-0.54 0.62,-1.41 0.8,-2.06 1.62,-6.01 0.91,-7 -3.23,-6.56 -1.68,0.18 -3.65,0.23 -5.35,0.26zm22.53 6.97c0.3,-1.65 0.64,-4.71 1.1,-6.01 0.76,-0.16 2.69,-0.31 3.24,-0.12 0.25,1.5 -0.73,6.01 -1.03,7.73 -0.76,4.46 0.18,4.88 -4.35,4.72 0.08,-1.78 0.72,-4.59 1.03,-6.32zm-7.13 9.74c0.84,0.13 2.53,-0.17 3.47,-0.27 1.77,-0.18 1.77,-0.59 3.1,-0.96 2.38,-0.67 2.77,1.52 4.94,0.22 1.01,-0.6 0.58,-0.23 1.65,-0.38 2.13,-2.88 2.43,-7.17 3.02,-11.34 1.14,-8.13 -0.2,-6.66 -6.28,-6.07 -8.09,0.78 -6.46,-0.44 -6.88,3.69 -0.11,1.04 -0.33,2.15 -0.52,3.18 -0.37,2.04 -0.8,4.05 -1.21,6.11l-1.27 5.82z"/>
   <path class="fil8" d="M86.84 19.34c-0.68,0.78 -1.2,2.96 -1.62,4.11 -0.38,1.06 -0.2,1.23 0.13,2.27 0.24,0.76 0.43,1.76 0.82,2.18 0.33,-0.3 2.25,-3.48 2.34,-3.88 0.15,-0.73 -1.23,-4.14 -1.66,-4.68z"/>
   <path class="fil14" d="M54.1 25.35c0.17,1.11 0.6,2.34 0.89,3.43 0.45,1.66 0.73,1.6 1.68,2.56 0.88,0.9 3.42,3.76 4.28,4.22 -0.07,-1.38 -0.46,-2.32 -1.12,-3.16 -0.63,-0.79 -1.19,-1.53 -1.84,-2.37 -0.6,-0.77 -1.21,-1.54 -1.86,-2.36 -0.58,-0.73 -1.22,-1.92 -2.02,-2.32z"/>
   <path class="fil8" d="M80.43 14.62c-0.51,0.91 -0.65,4.13 -0.8,5.41 -0.15,1.26 -0.34,1.54 0.09,2.73 0.23,0.65 0.55,1.82 0.88,2.26 0.5,-0.56 1.21,-4.23 1.44,-5.27 0.22,-1.01 -0.76,-3.39 -1.21,-4.5 -0.08,-0.2 -0.07,-0.19 -0.16,-0.35 -0.14,-0.23 -0.09,-0.16 -0.23,-0.3z"/>
   <path class="fil1" d="M41.92 47.53c-1.85,0.7 -3.18,-0.62 -4.44,0.12 -1.82,1.07 -2.04,-0.3 -3.37,-0.85 -0.49,0.69 -0.38,2.28 -1.51,1.86 -0.77,-0.65 0.8,-1.72 0.8,-1.72 0.31,-0.26 0.24,-0.08 0.35,-0.47 -1.07,-0.65 -1.29,0.48 -1.87,1.3 -0.49,0.68 -1.29,1.14 -1.36,2.09 1.2,0 1.8,-0.36 2.92,-0.41 1.06,-0.05 7.24,-0.71 8.12,-1.09 0.29,-0.12 0.09,-0.14 0.48,-0.22l-0.12 -0.63z"/>
   <path class="fil8" d="M83.19 9.51c-1.38,0.14 -3.34,1.15 -2.52,3.4 0.3,0.82 0.6,1.56 0.89,2.3 0.26,0.66 0.51,1.83 1.09,2.14 0.3,-1.15 0.5,-2.59 0.74,-3.8 0.46,-2.29 0.39,-2.08 -0.19,-4.03z"/>
   <path class="fil6" d="M50.07 31.11c0.14,0.87 0.46,1.76 0.69,2.59 0.37,1.38 0.23,1.2 1.36,1.84 1.15,0.66 3.01,1.99 4.1,2.36 -0.02,-0.57 -0.35,-2.23 -0.63,-2.64 -0.12,-0.18 -4.82,-3.99 -5.52,-4.15z"/>
   <path class="fil8" d="M88.86 24.79c-0.43,0.4 -1.55,2.52 -1.96,3.21 -0.51,0.86 -0.46,1.01 -0.11,2.02 0.24,0.71 0.38,1.44 0.73,1.98 0.45,-0.27 2.54,-2.78 2.61,-2.98 0.21,-0.6 -0.88,-3.81 -1.26,-4.24z"/>
   <path class="fil6" d="M48.26 22.89c0.24,0.52 5.17,5.32 5.78,5.62 -0.2,-1.19 -0.62,-2.31 -0.98,-3.5 -0.83,-2.78 -0.55,-1.42 -1.44,-2.93 -0.77,0.02 -2.68,0.58 -3.36,0.82z"/>
   <path class="fil6" d="M51.42 36.01c0.08,0.82 0.3,1.69 0.44,2.45 0.23,1.22 0.12,1.13 1.19,1.53 0.9,0.33 3.18,1.34 3.91,1.37 -0.13,-2.36 -0.48,-2.42 -2.06,-3.37 -0.85,-0.51 -2.57,-1.79 -3.47,-1.98z"/>
   <path class="fil8" d="M82.62 20.52l-0.38 0.95c-0.35,1.51 -1.34,4.55 -1,5.86 0.15,0.59 0.38,1.66 0.69,2.06 0.44,-0.56 1.59,-3.32 1.98,-4.22 0.39,-0.91 -0.01,-1.43 -0.36,-2.36 -0.3,-0.81 -0.5,-1.65 -0.93,-2.29z"/>
   <path class="fil8" d="M38.18 38.16c0.65,0.61 0.25,-0.35 1.47,0.8l0.03 -0.5c0.94,-0.09 2.63,-1.15 3.5,-1.63 0.86,-0.48 2.1,-1.34 2.05,-2.5 -0.07,-1.61 -1.83,0.18 -3.46,1.1 -2.4,1.35 0.28,0.65 -3.61,1.62 -0.05,0.96 -0.05,0.46 0.47,1l-0.46 0.11z"/>
   <path class="fil9" d="M28.34 50.35c0.5,-0.27 0.71,-0.1 0.89,-0.7 0.56,-1.93 -1.39,-1.44 -2.55,-1.18 -0.38,2.28 0.56,4.71 1.52,5.98l2.45 -0.3c-0.43,-1.56 -2.2,-1.55 -2.31,-3.8z"/>
   <path class="fil15" d="M42.74 60.1c0.05,0.01 0.61,0.1 0.64,0.1 0.57,-0.02 0.18,0.14 0.45,-0.2 -0.43,-0.14 -0.58,-0.09 -0.47,-0.9 0.07,-0.48 0.04,-0.57 0.51,-0.43 0.57,-1.02 -0.57,0.44 0.25,-0.27 0.04,-0.03 0.19,-0.18 0.27,-0.2 0.09,-0.02 0.11,-0.07 0.16,-0.11l-0.67 -0.01c-0.22,-0.4 -0.28,-0.64 -0.85,-0.78 -0.65,0.81 0.54,1.13 -0.67,1.61 -0.22,-0.38 -0.11,-1.6 -1.14,-1.16 0.48,0.79 0.59,0.5 0.42,1.91l-1.15 -0.18c0.4,-0.37 0.57,-0.06 0.87,-0.54 -0.43,-0.51 -0.25,-0.31 -1.02,-0.12 -0.02,-0.04 -0.02,-0.1 -0.02,-0.13 -0.01,-0.03 -0.02,-0.1 -0.03,-0.14l-0.28 -0.71c-4.2,-0.04 -3.6,0.48 -4.23,0.53 -0.61,0.05 -0.35,-0.19 -0.82,-0.18 -0.41,0.01 -0.33,0.2 -0.69,0.37 -0.89,0.43 -1.12,-0.63 -1.19,0.78 1.11,0.47 2.37,-0.09 3.47,-0.35 0.63,-0.15 1.22,-0.13 1.76,-0.25 0.03,-0.01 1.54,-0.76 1.46,0.05 -0,0.02 -0,0.09 -0.01,0.11l-0.11 0.54c-0.1,0.69 -0.15,0.31 0.04,1 0.93,0.37 2.42,-0.21 3.06,-0.59l-0 0.23z"/>
   <path class="fil8" d="M79.21 11.51c-2.03,0.38 -1.63,1.82 -1.65,3.98 -0.01,1.42 0.41,2.82 1.03,4.05l0.33 0.47c0.21,-0.54 0.57,-3.51 0.65,-4.23 0.21,-1.68 0.39,-2.92 -0.36,-4.27z"/>
   <path class="fil14" d="M55.78 31.75c0.46,3.25 0.67,3.21 2.14,4.39 0.82,0.66 2.9,2.5 3.73,2.83 -0.05,-1.44 -0.16,-1.72 -0.9,-2.46 -0.92,-0.92 -4.02,-4.51 -4.97,-4.75z"/>
   <path class="fil14" d="M36.87 45.5c-1.77,-0.2 -4.36,-1.31 -5.77,-1.19l-0.52 0.15c-0.25,1.04 0.35,1.65 1.16,1.8 1.02,-1.07 2.26,0.24 3.12,0.82 0.43,0.29 1.07,0.84 1.74,0.74 1.32,-0.2 0.26,-1.28 1.11,-1.33l-0.07 -0.66 0.72 -0.02c-0.62,-0.35 -0.78,-0.12 -1.5,-0.31z"/>
   <path class="fil8" d="M90.57 29.78c-0.75,0.3 -1.66,1.78 -2.21,2.38 -0.77,0.86 -0.5,1.83 0.18,3.47 0.62,-0.18 2.54,-1.82 3.17,-2.27l-1.14 -3.58z"/>
   <path class="fil16" d="M36.82 60.99l-0.51 -0.19c-0.71,-0.12 -3.62,-1.07 -4.13,-1.43 -0.07,-0.74 0.27,-0.76 0.41,-1.61 -1.01,0.03 -0.76,0.47 -1.42,1.11 -0.49,0.48 -0.97,0.44 -1.62,0.71 0.21,0.99 0.13,-0.01 0.64,0.89l1.55 0.04c0.04,-0.03 0.09,-0.05 0.12,-0.07 0.03,-0.01 0.09,-0.05 0.12,-0.06 0.88,-0.27 -0.81,0.05 0.26,-0.07 1.71,-0.18 3.8,3.91 5.7,2.16 -0.15,-1.15 -0.83,-0.57 -1.13,-1.49z"/>
   <path class="fil8" d="M84.48 25.76c-0.42,0.31 -0.56,0.91 -0.82,1.52 -0.35,0.81 -1.42,2.8 -1.26,3.61 0.11,0.55 0.39,1.44 0.74,1.74 0.41,-0.34 1.68,-2.38 2.05,-2.97 0.51,-0.8 0.3,-0.98 0,-1.9 -0.22,-0.68 -0.34,-1.43 -0.7,-1.99z"/>
   <path class="fil6" d="M57.43 44.21c-0.12,-2.19 -0.14,-1.84 -1.86,-2.53 -0.96,-0.38 -2.2,-0.98 -3.26,-1.13l0.76 2.99 4.36 0.66z"/>
   <path class="fil8" d="M77.59 19.23c-0.41,0.59 -0.5,3.91 -0.59,4.95 -0.11,1.19 -0.72,4.25 0.24,4.88 0.26,-0.31 0.97,-4.11 1.15,-4.86 0.41,-1.77 0.05,-3.73 -0.79,-4.96z"/>
   <path class="fil8" d="M91.89 34.21c-0.86,0.25 -2.16,1.65 -3.05,2.13l0.34 1.91c0.9,-0.01 2.93,-0.71 3.59,-1.21 -0.06,-0.69 -0.55,-2.35 -0.89,-2.84z"/>
   <path class="fil8" d="M85.82 30.13c-0.59,0.29 -1.39,1.97 -1.8,2.58 -0.74,1.13 -0.88,1.61 -0.13,3.05 0.42,-0.08 1.93,-1.77 2.32,-2.21 0.58,-0.65 0.53,-0.69 0.23,-1.68 -0.18,-0.59 -0.31,-1.28 -0.62,-1.74z"/>
   <path class="fil8" d="M79.12 23.96c-0.16,0.38 -1.44,6.33 -1.3,7.49 0.11,0.9 0.37,0.85 0.43,0.89 0.68,-0.86 1.07,-2.82 1.41,-4 0.39,-1.37 0.39,-3.59 -0.54,-4.39z"/>
   <path class="fil17" d="M45.68 47.53c0.91,0.23 2.6,-0.17 2.78,-0.54l0.32 -4c-1.52,-0.19 -3.24,3.66 -3.1,4.54z"/>
   <path class="fil6" d="M38.4 64.46c0.64,-0.01 0.55,0.29 0.55,0.94 1.24,0.25 1.66,-0.09 2.65,0.07 0.63,0.1 0.79,0.31 1.28,0.32 0.8,0.02 0.6,-0.21 1.1,-0.28l0.15 -1.04c-1.28,-0.62 -1.03,-1 -2.44,-0.19 -0.86,-0.37 -1.16,-1.09 -2.41,-0.97 -0.42,0.49 -0.13,0.28 -0.36,0.63l-0.42 0.45c0.03,0.01 -0.07,0.05 -0.11,0.07z"/>
   <path class="fil8" d="M80.6 28.09c-0.57,0.44 -0.98,2.57 -1.22,3.36 -0.32,1.06 -1.12,2.45 -0.46,3.58 0.68,-0.27 1.51,-2.42 1.83,-3.06 0.33,-0.65 0.68,-1.01 0.49,-1.93 -0.13,-0.65 -0.33,-1.48 -0.64,-1.95z"/>
   <path class="fil14" d="M56.97 36.5c0.17,2.4 0.38,2.09 2.01,3.12 0.71,0.45 2.48,1.72 3.24,1.78 -0.11,-1.04 -0.15,-1.09 -0.86,-1.63 -0.91,-0.69 -3.48,-3.12 -4.38,-3.28z"/>
   <path class="fil8" d="M87 33.85c-0.66,0.3 -2.51,2.4 -2.93,3.03l0.38 1.4c0.75,-0.18 2.81,-1.56 3.26,-2.07 -0.1,-0.78 -0.33,-1.78 -0.72,-2.36z"/>
   <path class="fil14" d="M57.61 39.82c-0.09,0.54 0.11,1.17 0.33,1.69 0.3,0.7 0.54,0.64 1.28,0.91 0.96,0.36 2.24,1 3.29,1.13 -0.03,-1.1 -0.08,-1.08 -0.87,-1.52 -1.01,-0.56 -3.38,-2.2 -4.02,-2.21z"/>
   <path class="fil14" d="M53.35 44.32c-0.18,0.8 0.09,1.45 0.26,2.22 0.89,0.09 1.64,-0.18 2.39,-0.37 1.64,-0.4 1.65,-0.17 1.82,-0.88 -0.51,-0.63 -3.83,-1.09 -4.48,-0.97z"/>
   <path class="fil8" d="M84.65 9.27c-0.49,1.75 0.78,3.82 1.47,5.6 0.26,0.68 0.31,1.33 0.95,1.68 0.54,-1.74 -0.01,-2.29 -0.68,-3.81 -0.5,-1.15 -0.97,-3.19 -1.74,-3.46z"/>
   <path class="fil8" d="M81.78 31.88c-0.48,0.18 -1.18,1.99 -1.45,2.53 -0.6,1.22 -1.06,1.44 -0.81,3.05 0.68,-0.33 1.67,-1.91 2.15,-2.54 0.88,-1.14 0.94,-1.31 0.11,-3.03z"/>
   <path class="fil18" d="M95.67 58.64l0.27 1.48 3.75 -0.95 -0.09 -1.52c-0.71,-0.1 -3.31,0.64 -3.93,0.99z"/>
   <path class="fil8" d="M87.68 16.66c-0.96,0.65 -0.09,2.29 0.19,3.02 0.32,0.82 0.68,2.58 1.46,2.8 0.69,-0.85 0.02,-2.23 -0.31,-3.1 -0.44,-1.17 -0.69,-2.47 -1.34,-2.72z"/>
   <path class="fil6" d="M48.03 65.01c-0.41,-1.01 -1.04,-1.59 -2.56,-1.59 -0.07,0.34 -1.78,3.41 1.38,2.41 0.58,-0.18 0.9,-0.44 1.18,-0.82z"/>
   <path class="fil8" d="M89.87 22.68c-0.27,0.22 -0.58,0.37 -0.39,1.29 0.1,0.47 1.11,3.53 1.57,3.93 1.33,-0.42 0.23,-2.2 -0.37,-3.95 -0.51,-1.5 -0.3,-1.11 -0.81,-1.26z"/>
   <path class="fil9" d="M69.67 44.12c0.01,0.63 0.57,1.24 1,1.71 1.82,0.18 2.14,-0.63 2.23,-2.35l-3.23 0.64z"/>
   <path class="fil8" d="M82.62 34.97l-0.8 0.93c-1.08,1.49 -1.86,2.01 -1.92,3.53 0.69,-0.31 2.58,-2.1 3.23,-2.73 -0.01,-0.34 -0.04,-0.59 -0.11,-0.88l-0.39 -0.86z"/>
   <path class="fil14" d="M58.04 42.79c0.28,2.02 0.76,1.65 3.12,2.06 1.4,0.25 1.04,0.03 1.35,0 0.08,-0.01 0.1,-0.03 0.14,-0.06 -0.2,-0.62 -0.23,-0.48 -1,-0.76 -0.98,-0.36 -2.89,-1.19 -3.6,-1.25z"/>
   <path class="fil8" d="M92.13 28.26c-1.48,0.02 -0.95,0.78 -0.59,1.88 0.21,0.64 0.48,2.03 0.98,2.23 0.45,0.18 0.69,-0.12 0.74,-0.54 0.06,-0.49 -0.96,-3.21 -1.13,-3.57z"/>
   <path class="fil1" d="M29.35 45.3l-1.13 -0.11 0.03 2.37c0.53,0.42 0.27,0.14 0.92,0.34 0.54,0.17 0.4,0.22 0.94,0.51l0.43 -0.61c0.01,-0.84 -0.34,-0.28 -0.65,-1.19 -0.27,-0.79 -0.07,-0.82 -0.55,-1.31z"/>
   <path class="fil8" d="M93.4 32.82c-1.48,0.75 0.33,3.92 0.34,3.92 1.44,-0.05 1.03,-0.73 0.69,-1.72 -0.23,-0.67 -0.36,-1.84 -1.02,-2.2z"/>
   <path class="fil8" d="M88.06 37.02c-0.65,0.19 -1.26,0.7 -1.83,1.09 -1.39,0.95 -1.49,0.7 -1.37,1.62 0.68,-0.06 2.95,-0.89 3.48,-1.17l-0.28 -1.54z"/>
   <path class="fil14" d="M62.59 38.58c-0.09,1.58 1.05,2.2 1.83,2.85 0.59,0.5 2.01,1.74 2.7,1.87 -0.16,-0.44 -1.77,-2.06 -2.21,-2.54 -0.44,-0.48 -1.79,-2 -2.32,-2.19z"/>
   <path class="fil18" d="M28.05 57.4c-0.99,-0.36 -2.98,-0.67 -2.19,1.51 0.77,0.18 1.8,-0.03 2.32,-0.31 0.06,-0.63 0.14,-0.67 -0.13,-1.2z"/>
   <path class="fil8" d="M83.54 37.64c-0.91,0.22 -3.16,2.38 -3.2,3.06 0.14,0.01 4.24,-1.25 3.2,-3.06z"/>
   <path class="fil19" d="M76.56 30.11c-0.55,0.32 -0.56,1.61 -0.75,2.79 -0.11,0.71 -0.57,2.54 -0.26,3.04 0.39,-0.39 1.13,-3.32 1.28,-4.19 0.21,-1.13 0.17,-0.85 -0.27,-1.64z"/>
   <path class="fil19" d="M61.89 35.53c0.12,1.47 0.89,2.01 1.62,2.77 0.63,0.67 1.48,1.81 2.37,2.23 -0.2,-0.73 -0.29,-0.69 -0.94,-1.46 -0.81,-0.95 -2.25,-3.22 -3.04,-3.53z"/>
   <path class="fil20" d="M36.31 60.8l0.51 0.19c0.47,-0.27 0.03,-0.01 0.38,-0.3 0.1,-0.09 -0.11,-0.1 0.19,-0.16 0.06,-0.01 0.06,-0.06 0.1,-0.08 0.9,0.53 2.04,0.3 1.8,-0.97 -0.59,-0.17 -1.59,-0.28 -2.02,-0.11 -0.5,0.2 -1.05,0.62 -0.94,1.42z"/>
   <path class="fil19" d="M77.37 33.06c-0.48,0.47 -1.02,2.94 -1.32,3.95 -0.35,1.19 -0.39,0.96 -0.16,1.3 0.51,-0.47 2.28,-4.69 1.48,-5.24z"/>
   <path class="fil7" d="M30.58 44.46l-0.69 0.79 -0.55 0.06c0.48,0.49 0.28,0.52 0.55,1.31 0.31,0.91 0.66,0.35 0.65,1.19 0.56,-0.46 0.12,-0.22 0.53,-0.83l0.67 -0.73c-0.81,-0.14 -1.41,-0.76 -1.16,-1.8z"/>
   <path class="fil21" d="M28.03 44.05c-0.66,-0.32 -0.15,-0.14 -0.38,0.07l0.02 0.86c0.27,0.15 0.22,0.14 0.55,0.22l1.13 0.11 0.55 -0.06 0.69 -0.79 0.52 -0.15c-0.14,-0.1 -0.05,-0.2 -0.74,-0.14 -0.64,0.06 -1.78,0.27 -2.32,-0.12z"/>
   <path class="fil19" d="M78.6 37.73c-0.38,0.2 -2.33,3.45 -2.45,4.09 0.43,-0.21 3.35,-3.27 2.45,-4.09z"/>
   <path class="fil5" d="M107.84 82.76c-0.8,0.06 -1.3,1.41 -1.26,1.92 0.05,0.7 0.13,0.56 0.47,0.74 0.5,-0.27 1.3,-1.86 0.79,-2.66z"/>
   <path class="fil22" d="M31.74 60.51l-1.55 -0.04c-0.34,0.34 -0.24,0.06 -0.27,0.63l2.99 0.49c0.36,-0.03 0.18,-0.02 0.39,-0.13 -0.31,-0.63 -0.51,-0.48 -1.57,-0.96z"/>
   <path class="fil19" d="M78.08 35.68c-0.61,0.24 -0.45,0.44 -0.95,1.74 -0.23,0.58 -0.58,1.35 -0.65,1.9 0.58,-0.09 0.58,-0.56 1.15,-1.56 0.39,-0.68 1.03,-1.35 0.45,-2.08z"/>
   <path class="fil23" d="M41 42.49c0.15,0.59 0.1,0.28 0.15,0.83l0.22 -0.19c0.64,-0.77 1.06,-3.23 2.59,-1.61 0.71,0.75 0.27,0.87 0.58,1.43 -0.04,-0.69 -0.01,-1.44 -0.37,-1.83 -0.49,-0.54 -1.57,-0.98 -2.43,0.52 -0.22,0.38 -0.25,0.74 -0.74,0.84z"/>
   <path class="fil24" d="M29.47 58.68c0.05,0.01 0.11,0.03 0.14,0.04l0.43 0.02c0.16,-0.03 0.36,-0.14 0.46,-0.22 0.25,-0.21 0.32,-0.47 0.41,-0.76 -0.37,-0.32 -1.01,-0.73 -1.65,-0.76l0.21 1.68z"/>
   <path class="fil19" d="M62.99 41.49c0.14,0.75 1.47,1.75 2.5,2 -0.2,-0.85 -0.5,-0.88 -1.13,-1.33 -0.39,-0.28 -0.85,-0.6 -1.38,-0.67z"/>
   <path class="fil24" d="M24.54 56.79c-0.2,0.74 -0.15,1.77 0.02,2.39 0.89,-0.2 0.64,-0.37 0.58,-1.43 -0.04,-0.72 0.09,-0.89 -0.6,-0.96z"/>
   <path class="fil19" d="M78.24 42.23c-0.14,-0.58 -0.12,-0.18 -0.16,-0.81 0.55,-0.61 1.34,-0.87 1.14,-1.82 -0.34,0.1 -2.82,2.26 -0.98,2.63z"/>
   <path class="fil11" d="M40.13 62.48c0.09,0.31 0.1,0.23 0.22,0.4 1.12,-0.36 1.01,-1.74 -0.36,-1.79l0.15 1.39z"/>
   <path class="fil11" d="M39.45 62.07c0.16,-0.5 0.24,-0.5 0.05,-0.96 -1.27,-0.2 -1.09,1.08 -0.67,1.73 0.51,-0.14 0.38,0 0.62,-0.77z"/>
   <path class="fil25" d="M98.12 83.88c-0.87,0.4 -0.65,1.81 -0.34,2.21 0.2,-0.18 0.05,0.11 0.32,-0.38 0.27,-0.5 0.49,-1.44 0.01,-1.82z"/>
   <path class="fil19" d="M65.13 44.45c-0.17,-0.29 0,-0.07 -0.23,-0.31l-0.53 -0.48c-0.21,-0.21 -0.62,-0.7 -0.92,-0.16 -0.29,0.53 0.19,0.65 0.59,0.83 1.24,0.57 1.01,0.16 1.09,0.12z"/>
   <path class="fil26" d="M77 14.37l-0.09 -1.73c-0.63,0.06 -0.75,0.06 -0.61,0.74 0.21,1.09 0.58,0.91 0.7,0.98z"/>
   <path class="fil27" d="M27.67 61.7c0.41,0 0.79,0.01 1.18,-0.12 0.69,-0.22 0.33,-0.07 0.57,-0.49 -0.79,-0.07 -1.4,-0.08 -1.76,0.61z"/>
   <path class="fil19" d="M58.53 45.51c0.18,0.1 0.16,0.18 0.51,0.18 0.8,0.01 0.41,-0.11 0.58,-0.23 -0.08,-0.29 0.1,-0.56 -0.57,-0.53 -0.53,0.02 -0.43,0.19 -0.52,0.58z"/>
   <path class="fil28" d="M38.4 64.46c-0.21,0.73 -0.1,0.77 0.55,0.94 -0,-0.65 0.09,-0.94 -0.55,-0.94z"/>
   <path class="fil29" d="M26.02 55.59c0.5,-0.38 0.45,-0.4 0,-0.84 -0.09,0.1 -0.22,-0.3 -0.2,0.47 0.02,0.81 -0.03,0.06 0.2,0.37z"/>
  </g>
 </g>
</svg>
