<?xml version="1.0" encoding="UTF-8"?>
<!DOCTYPE svg PUBLIC "-//W3C//DTD SVG 1.1//EN" "http://www.w3.org/Graphics/SVG/1.1/DTD/svg11.dtd">
<!-- Creator: CorelDRAW -->
<svg xmlns="http://www.w3.org/2000/svg" xml:space="preserve" width="58.8824mm" height="69.2977mm" version="1.1" style="shape-rendering:geometricPrecision; text-rendering:geometricPrecision; image-rendering:optimizeQuality; fill-rule:evenodd; clip-rule:evenodd"
viewBox="0 0 87.89 103.43"
 xmlns:xlink="http://www.w3.org/1999/xlink"
 xmlns:xodm="http://www.corel.com/coreldraw/odm/2003">
 <defs>
  <style type="text/css">
   <![CDATA[
    .fil3 {fill:blue}
    .fil0 {fill:#060808}
    .fil7 {fill:#062256}
    .fil12 {fill:#08265B}
    .fil9 {fill:#2D75D2}
    .fil6 {fill:#2E78D8}
    .fil11 {fill:#86A3A9}
    .fil8 {fill:#CDE0DE}
    .fil10 {fill:#CDE2E1}
    .fil2 {fill:#F0E100}
    .fil5 {fill:#FEFEFE}
    .fil4 {fill:red}
    .fil1 {fill:white}
   ]]>
  </style>
 </defs>
 <g id="Camada_x0020_1">
  <metadata id="CorelCorpID_0Corel-Layer"/>
  <g id="_2076227037568">
   <path class="fil0" d="M17.08 11.89c-0.29,0.49 -2.04,1.89 -2.55,2.24l-4.84 5.56c-4.58,5.9 -8.02,14.02 -9.12,21.91 -1.52,10.79 0.01,20.82 4.84,30.31 0.58,1.14 1.56,2.57 1.94,3.49l3.32 4.88c0.03,0.03 0.08,0.05 0.09,0.11 0.02,0.06 0.07,0.09 0.1,0.11 1.57,1.35 1.62,-2.37 3.7,-3.39l0.63 0.87c1.19,-0.6 2.97,-2.78 4.07,-2.69l0.34 0.91c0.01,0.03 0.02,0.1 0.04,0.14l0.75 -0.02c0.48,-0.32 0.56,-0.37 0.77,-0.92 -0.86,-1.53 -5.12,-7.1 -5.23,-8.4 0.38,-0.64 3.45,-3.2 4.24,-3.4l3.37 3.89c0.85,1 3.38,3.24 3.6,3.72 -0.4,0.56 -4.13,3.79 -4.78,4.21 -0.65,1.77 0.71,1.27 0.72,2.74l-0.67 -0.26c-0.44,0.91 0.3,1.91 -0.74,3.06 -0.95,1.05 -2.25,0.68 -3,-0.16 0.03,-1.08 1.04,-1.71 1.24,-2.72 -1.35,-1 -1.87,0.8 -3.49,3.24 -0.49,0.74 -1.02,1.48 -1.32,2.36 -0.14,0.41 -0.23,1.2 -0.5,1.45 -0.65,0.62 -0.87,-0.23 -1.12,0.8 0.66,0.18 1.39,0.57 2.05,0.38 0.06,-1.14 0.2,-3.07 1.21,-3.41 0.8,-0.27 3.94,-0.16 4.65,0.09 0.17,0.45 -0.28,1.94 -0.49,2.48 -0.42,1.1 -1.41,0.72 -2.54,0.97 -0.38,0.88 -1.09,3.24 -1.08,4.32l1.3 0.38c0.04,0.99 -0.59,2.61 -0.94,3.15l-1.39 0.2c-0.36,0.9 -1.13,3.03 -1.01,4.09 0.81,0.24 3,-0.74 1.44,2.84 -0.31,0.73 -0.04,0.39 -0.59,0.69 -0.56,0.27 -1.61,0.2 -2.29,0.09 -0.61,0.37 -2.09,0.19 -2.81,0.34l-0.17 0.76c0.82,0.32 6.64,0.11 7.93,0.1 2.03,-0.01 2.67,0.5 3.84,-2.2 0.38,-0.88 0.26,-0.99 1.12,-1.05 0.35,0.68 0.41,1.06 0.22,2.04 -0.83,0.4 -1.33,0.23 -1.43,1.21 1.2,0.22 1.17,-0.41 2.06,-0.57l8.94 -0.07 1.52 -0.51c1.2,-0.27 0.42,-2.02 1.62,-1.6l0.27 1.25 1.19 0.87c1.06,0.02 2.09,-0.05 2.85,-0.57 1.04,-0.7 0.71,-1.37 1.45,-2.03 1.16,0.14 1.95,2.95 5.09,2.69 1.86,-0.15 3.86,-2.95 5,-2.56 0.04,0.03 0.1,0.03 0.12,0.09l0.85 0.97c0.27,0.3 0.65,0.71 0.98,0.95 0.91,0.67 1.73,1.08 3.17,1.02 1.62,-0.08 3.01,-0.75 4.06,-1.45 0.7,-0.46 0.96,-0.8 1.53,-1.28 1.1,-0.92 1.03,-0.23 1.68,0.33 0.75,-1.79 1.5,-5.39 2.05,-7.43 0.98,-3.58 5.72,-21.99 6.41,-22.88 1.26,-0.14 6.17,-0.33 7.18,0.01 3.95,1.32 1.19,8.55 0.51,11.17 -1.04,4.02 -3.5,14.61 -5.27,17 -1.02,1.38 -2.21,2.41 -4.39,2.98 -2.67,0.7 -4.28,-0.01 -6.75,-0.28 -0.19,0.03 -0.38,0.07 -0.56,0.12 0.03,0.05 0.06,0.12 0.09,0.18 0.1,0.2 0.26,0.44 0.5,0.62 0.08,0.06 0.18,0.12 0.31,0.18 0.33,0.14 0.73,0.18 1.14,0.22l0.09 0.12c0.73,0.11 1.77,0.15 3.24,0.03 7.81,-0.6 8.49,-4.54 10.59,-12.03 1.11,-3.95 2.17,-7.85 3.19,-11.89 0.76,-3 1.76,-6 -1.4,-8.33 -1.19,-0.88 -2.06,-0.61 -2.79,-1.06l-0.11 -0.39c-0.01,-0.5 0.48,-1.41 0.69,-1.9 1.33,-3.15 3.99,0.28 7.52,-0.03l-0.58 -0.52c-0.73,-0.15 -1.6,-0.55 -2.31,-0.76 -4.9,-1.42 -4.87,-0.66 -7.72,0.13 -1.96,0.54 -3.92,-0.08 -5.14,-0.98 -2.27,-1.67 -1.17,-2.88 -2.13,-4 -0.63,-0.73 -1.04,-0.69 -1.34,-1.8 -0.27,-1 -0.06,-1.94 0.06,-2.92 0.28,-2.32 1,-2.95 1.8,-4.54 2.39,-4.73 -0.43,-8.83 0.5,-10.54 1.62,-0.23 3.21,2.04 3.36,3.53 0.11,1.08 -0.36,1.96 -0.09,3.05 0.14,0.56 0.32,0.76 0.39,1.35 0.3,2.6 0.24,0.96 3.67,1.64 0.86,0.17 1.73,0.5 2.59,0.86 5.05,2.15 -7.88,6.04 -6.64,2.13 0.47,-1.49 4.3,-0.25 4.8,-2.21 -0.7,-0.22 -2.48,0.25 -3.3,0.43 -4.19,0.93 -2.1,3.47 -1.79,4.14 0.74,1.56 -0.82,1.22 0.09,3.06 0.46,0.94 -0.09,3.82 3.76,4.18 1.12,0.1 2.56,-0.19 3.68,-0.28 1.67,-0.13 2.21,0.14 3.51,0.32 0.18,-0.19 0.15,0.21 0.17,-0.49 -0.79,-0.66 -2.41,-0.81 -1.37,-2.22 0.77,-1.04 1.21,-1.38 -0.68,-2.49 0.08,-1.15 0.88,-1.56 0.69,-2.77 -0.22,-1.43 -0.33,-1.36 -0.14,-3.02 1.53,-13.18 -4.4,-27.66 -12.76,-36.57 -2.2,-2.35 -4.66,-4.4 -7.74,-6.47 -3.01,-2.02 -0.75,-2.57 -2.12,-4.89 -0.99,-1.68 -3.64,-1.27 -5.24,-0.37 -1.72,0.96 -1.09,1.03 -5.3,-0.14 -1.98,-0.55 -3.69,-1 -5.4,-1.79 -1.24,-0.57 -3.58,-2.2 -4.69,-2.33 -2.96,-0.33 -3.04,3.17 -3.61,3.5 -0.53,0.31 -2.7,-1.28 -4.7,-2.03 -2.79,-1.05 -9.86,-2.34 -10.73,1.34 -0.62,2.63 2.6,3.77 2.6,4.51 -0.3,0.75 -2.16,1.77 -2.94,2.31 -1.02,0.7 -2.4,1.76 -3.28,2.23z"/>
   <path class="fil1" d="M28.72 18.39c0,1.71 1.03,4.85 0.98,5.33 -4.24,1.25 -7.41,-0.92 -8.73,-5.06 -0.69,0.37 -0.58,0.54 -1.01,2.18 -0.18,0.68 -0.37,1.77 -0.45,2.5 -0.19,1.67 -0.11,4.26 0.27,5.78 1.43,5.62 0.98,4.56 7.57,4.57 11.35,0.02 18.54,-0.77 29.32,-2.14 1.25,-0.16 1.72,-0.14 1.91,-1.41 0.29,-1.94 0.35,-4.27 0.26,-6.31 -0.1,-2.17 -1.07,-3.01 -1.92,-4.65 -0.5,-0.97 -1.54,-3.99 -2.21,-4.65l-0.37 0.89c-0.19,1.36 -0.45,6.52 -1.91,7 -0.28,-0.71 -0.32,-2.63 -0.95,-4.65 -0.44,-1.42 -1.14,-2.74 -1.87,-3.92 -0.91,-1.47 -4.38,-5.15 -6.03,-5.64 0.08,1.94 1.04,3.64 0.52,7.4 -0.25,1.81 -1.43,5.2 -2.85,5.33 -1.03,-0.88 -1.61,-7.19 -10.3,-12.99 -1.93,-1.28 -1.2,0.19 -1.18,2.02 0.03,3.08 -1.05,5.33 -1.04,8.42zm10.69 -13.72c-0.18,-0.87 -0.28,-1.14 0.56,-1.15 3.17,1.17 7.87,3.51 9.88,6.05 1.01,1.28 1.78,2.81 2.5,3.11 0.89,-2.42 2,-4.68 3.54,-5.97 0.66,-0.01 0.67,0.04 1.04,0.31l0.02 0.85c-0.7,8.22 4.25,9.59 4.87,15.8 0.24,2.37 -0.69,5.14 -0.48,6.65 0.25,0.43 1.1,0.17 1.59,0.95 0.38,0.67 0.85,6.03 1.03,7.28 0.86,6 0.86,4.87 -0.6,6.74 -0.6,0.76 -0.29,2.6 -0.4,3.79 -0.12,1.32 -0.26,2.44 -0.48,3.7 -1.11,6.58 -4.81,11.95 -9.75,15.55 -1.48,1.08 -3.6,2.17 -5.61,2.8 -3.17,0.98 -6.23,1.14 -7,1.39 -0.12,1.59 0.69,1.6 2.13,1.52 1.26,-0.07 2.18,-0.16 3.39,-0.38 9.57,-1.68 15.93,-8.2 18.7,-17.22 0.9,-2.94 1.88,-9.32 1.86,-12.63 -0.02,-3.71 -1.13,-9.07 -1.67,-12.81 -0.8,-5.55 1.14,-7.05 -1.65,-12.36 -2.07,-3.93 -4.09,-4.65 -3.2,-10.75 0.2,-1.37 0.44,-1.9 -0.49,-2.75 -2.57,-2.33 -6.13,3.32 -6.59,3.67 -0.69,-0.16 -1.36,-1.08 -1.84,-1.56 -1.59,-1.6 -10.99,-6.07 -11.47,-6.03 -2.29,0.21 -0.86,4.05 -1.18,5.48 -1.5,0.21 -4.5,-4.94 -13.04,-4.98 -1.45,-0.01 -2.88,0.05 -3.24,1.34 -0.7,2.52 2.7,1.84 3.74,5.17 0.2,0.63 0.7,3.56 -0.5,3.81 -0.11,-0.16 -0.77,-3.78 -3.57,-1.97 -1.12,0.72 -2.29,2.32 -3.05,3.62 -1.75,2.99 -2.82,5.97 -3.25,10.09 -0.23,2.22 -0,4.01 0.18,6.18 0.29,3.48 -1.35,17.73 -0.12,19.11 0.7,0.45 1.32,0.28 1.82,0.97 0.41,0.56 0.46,1.57 0.57,2.39 1.03,7.15 5.23,13.9 11.11,17.85 1.49,1 6.01,3.5 8.18,3.31l0.98 -0.42 0.11 -0.66c-1.26,-1.23 -8.32,-1.32 -14.13,-9.12 -2.84,-3.82 -4.45,-7.52 -5.2,-12.38 -0.68,-4.36 -1.63,-2.31 -2.42,-3.53 -0.35,-0.54 -0.08,-11.54 0.13,-12.91 0.19,-1.22 0.79,-0.92 0.88,-1.83 0.06,-0.59 -0.59,-3.67 -0.67,-4.71 -0.27,-3.47 0.12,-6.74 1.08,-9.82 0.35,-1.12 1.06,-2.82 1.7,-3.73 0.42,-0.6 0.73,-0.91 1.18,-1.45 0.49,-0.61 0.55,-1.19 1.67,-1.12 0.54,1.42 0.42,3.07 1.15,4.8 0.37,0.88 1.52,3.4 2.5,3.62 0.2,-2.7 -0.02,-4.37 0.53,-7.02 0.68,-3.29 0.3,-3.65 -0.22,-6.54 -0.67,-0.39 -0.83,-0.92 -1.32,-1.55 -0.4,-0.53 -0.76,-1.02 -1.09,-1.59 -0.01,-1.06 1.13,-0.79 2.84,-0.52 1.09,0.17 1.94,0.37 2.97,0.73 4.02,1.41 8.3,4.78 10.5,8.26 0.4,0.63 0.87,1.97 1.53,2.18 0.47,-3.63 -1.4,-6.76 -2.23,-9.62zm-32.86 26.63c-1.38,-0.35 -1.65,1 -1.13,1.5 0.74,0.72 1.31,-0.5 1.13,-1.5zm7.17 -12.25c0.26,0.28 0.36,0.4 0.82,0.53 0.36,-0.49 0.81,-2.1 0.87,-2.76 -0.99,0.25 -1.81,0.96 -1.69,2.23zm45.59 51.01c0.64,-0.06 0.73,-0.39 1.2,-0.6 0.52,-0.24 0.93,-0.12 1.46,-0.29 0.05,-0.13 0.08,-0.12 0.05,-0.41 -0.05,-0.5 -0.97,-1.66 -1.34,-1.92 -1.15,0.38 -2.41,1.85 -1.36,3.22zm-45.64 -36.16c0.51,-0.29 0.12,0.17 0.46,-0.48 0.04,-0.09 0.16,-0.55 0.18,-0.68 0.19,-1.31 -0.15,-4.04 -0.64,-5.04 -1.14,0.03 -2.55,0.71 -1.66,2.69 0.49,1.1 0.96,2.69 1.66,3.5zm54.62 30.88c0.59,0.84 0.66,1.39 2.09,1.37 -0.22,-1.65 -2.03,-1.91 -3.31,-8.39 -0.15,-0.79 -0.05,-0.78 -0.63,-0.94 -0.85,0.65 -0.24,1.8 0.05,2.72 0.96,3 -0.87,1.45 1.79,5.23zm-14.74 10.47c-0,0.75 0.07,0.76 -0.73,0.7 0.3,0.28 -0.02,-0 0.32,0.24l0.36 0.25c-0.08,1.14 -0.46,1.39 -1.12,1.69l-0.7 0.43c1.01,-0.1 1.39,0.9 1.1,1.72 -0.59,0.32 -0.42,0.07 -1.18,0.17l0 0.24c0.97,-0.2 0.59,0.34 1.34,-0.23 0.28,-0.21 0.33,-0.51 0.63,-0.79 0.52,-0.5 1.36,-0.69 2.34,-0.51 0.84,0.07 0.97,0.45 1.42,1.14 0.18,0.29 0.37,0.61 0.54,0.86 0.39,0.54 0.12,0.38 0.7,0.59 0.31,-0.22 3.48,-3.86 3.39,-4.68 -0.9,-0.18 -1.29,0.06 -2.01,0.06 -1.03,-0 -0.81,-0.48 -1.56,-0.48 -0.65,-0.01 -1.51,1.24 -2.38,1.71l-0.75 -0.01c-0.28,-1.31 0.07,-0.92 0.65,-1.61 0.44,-0.52 0.53,-1.21 0.16,-1.67 -0.72,-0.44 -1.4,0.43 -2.06,0.66l-0.45 -0.49zm13.42 -9.75c-0.69,0.19 -1.8,1.12 -2.38,1.54 -1.18,0.87 -1.77,1.03 -1.8,1.88 0.67,0.44 5.26,0.53 6.19,0.06 0.15,-0.84 -1.37,-3.09 -2,-3.48zm-15.35 -15.19c-0.02,0.42 -0.01,0.72 0.02,0.95 0.58,0.68 1.13,1.32 1.56,1.83 0.3,0.2 0.65,0.31 1.25,0.26 0.17,-1.23 0.02,-3.31 -0.73,-4.28 -0.89,0.64 -1.99,0.19 -2.11,1.25zm3.69 2.32c0.63,-1 -0.02,-1.28 0.09,-2.67 0.36,-0.49 1.32,-0.9 0.48,-1.7 -0.67,-0.72 -1.19,-0.26 -1.6,0.22 0.81,0.97 1.08,2.86 1.03,4.16zm-9.38 0.67c-0.16,0.89 0.61,1.1 1.72,2.66 0.41,0.57 1.43,2.49 1.96,2.73 0.11,-0.1 0.2,-0.22 0.27,-0.34 0.14,-1.61 0.27,-3.2 0.32,-4.44 0.04,-0.94 0.04,-1.71 0.02,-2.43 -1.82,-0.31 -4.04,0.66 -4.3,1.83zm5.08 0.29c0.51,1.71 0.03,3.46 -0.21,4.77 -0.17,0.95 -0.2,0.31 0.11,0.7 1,-0.06 2.46,-1.5 2.21,-2.6 0,-1.4 -0.01,-1.69 -0.66,-2.86 -0.3,-0.54 -0.96,-1.45 -1.44,-1.78 0.01,0.54 0.01,1.11 -0.02,1.77zm24.23 7.24c0.44,1.64 2.72,2 4.6,1.44 1.68,-0.5 2.91,-1.46 2.84,-3.45 -1.04,0.18 -6.83,1.56 -7.44,2.01zm1.91 -13.81c-0.68,-0.33 -1.11,-1 -1.66,-1.54 -0.47,-0.46 -0.14,-0.36 -0.79,-0.43 -0.38,0.55 -0.84,2.26 -0.81,2.9 4.09,-0.3 2.6,-0.63 4.66,1.3 0.47,0.44 0.97,1.33 1.68,1.31 0.27,-0.86 0.19,-4.68 0.02,-5.65 -1.09,-0.07 -2,1.71 -3.1,2.1zm-7.72 3.64c0.97,-1.22 0.67,-2.81 0.42,-4.24 -0.22,-1.28 -0.34,-3.67 -0.95,-4.58 -1.85,0.3 -0.67,1.53 -1.57,4.83 -0.31,1.14 -0.33,1.56 0.28,2.46 0.43,0.64 1.01,1.49 1.81,1.53zm4.4 6.65c0.02,0.85 0.86,1.46 1.38,1.95 0.8,0.74 1.57,0.25 2.6,-0.02 1.15,-0.3 1.68,-0.26 2.35,-1 0.53,-0.58 3.8,-3.49 1.24,-3.2 -0.58,0.07 -7.03,1.91 -7.57,2.26zm-38.9 4.77c0.47,1.75 4.26,2.23 6.41,1.65 -0.3,-0.86 -0.79,-1.09 -1.2,-2.04 -0.31,-0.73 -0.54,-1.39 -0.84,-2.15 -0.33,-0.85 -1.32,-3.58 -1.79,-4.15 -1.24,0.51 -2.97,4.81 -2.58,6.69zm8.98 1.6c1.93,0.04 4.7,-1.46 5.35,-2.55 0.08,-1.57 -1.62,-3.94 -2.49,-5.17 -0.47,-0.66 -0.53,-1.16 -1.55,-1.09 -0.7,1.62 -1.45,6.37 -1.9,8.42 0.64,0.21 0.46,0.26 0.61,0.39zm-5.63 -8.84c0.29,1.2 1.29,3.16 1.79,4.3 0.55,1.25 1.37,3.77 2.17,3.91 0.89,-1.11 1.47,-6.76 1.99,-8.7 -0.36,-0.41 -0.11,-0.03 -0.42,-0.3 -0.37,-0.32 -0.26,-0.18 -0.28,-0.32 -1.02,0.19 -2.02,-0.44 -4.22,0.5l-1.03 0.61zm31.31 -32.93c-0.56,0.35 -1.18,0.36 -1.77,0.52 0.12,0.86 3.12,5.3 3.65,5.99 1.03,0.1 2.79,-0.16 3.77,-0.36 0.16,-1.89 -5.11,-8.51 -5.89,-9.41l-3.78 -3.76c-0.59,-0.57 -1.37,-1.15 -2.13,-1.73 -1.02,-0.77 -1.6,-1.44 -2.38,-1.37 -0.36,1.29 0.47,2.71 1.05,3.41 1.41,1.68 1.77,0.45 3.37,1.36 0.73,0.41 4.14,4.44 4.13,5.35zm-37.79 27.83c0.46,1.04 3,1.55 4.02,1.77 1.57,0.35 3.5,0.47 5.3,0.26 2.9,-0.35 5.16,-1.23 7.77,-2.18 0.68,-0.25 0.71,-0.13 0.87,-0.68 -1.54,-0.98 -4.74,1.38 -6.27,-0.92 -0.5,-0.76 -2.05,-4.36 -2.93,-4.64 -1.44,-0.46 -1.96,2.3 -2.96,4.46 -1.22,2.63 -2.79,1.8 -5.81,1.92zm2.28 11.86c0.04,-0.4 0.08,-0.78 0.13,-1.15 -0.06,-0.29 -3.1,-4.32 -3.56,-6.86 -0.47,0.69 -0.9,1.35 -1.2,1.88 -0.37,0.66 -0.55,1.13 -0.7,1.58 1.08,2.25 2.4,3.95 5.33,4.55zm0.35 -2.27c0.66,-2.61 2.42,-3.7 1.9,-5.36 -2.43,-1.11 -3.78,-0.78 -4.94,-0.68 0.29,1.85 1.92,4.29 3.03,6.04zm-4.08 -6.7c-0.6,-0.99 -1.07,-1.47 -2.34,-1.71 -0.53,2.06 -0.55,3.04 0.29,5.09 0.45,-1.06 1.27,-2.23 2.05,-3.38zm-3.08 -1.98c-0.83,-0.57 -0.23,-0.76 -1.62,-0.94 0.06,0.49 0.95,4 1.08,4.18 0.06,0.09 0.13,0.18 0.19,0.26 -0.19,-1.2 0.05,-2.34 0.35,-3.5zm43.49 -21.29c-0.71,0.24 -2.31,1.32 -3.18,1.76 -3.5,1.78 0.56,5.34 1.24,6.12 0.75,0.87 1.42,2.53 2.75,1.73 1,-0.6 1.77,-1.33 2.96,-1.97 2.56,-1.37 2.6,-0.8 -1.12,-5.41 -0.42,-0.52 -0.68,-0.83 -1.09,-1.36 -0.36,-0.46 -0.69,-1.17 -1.56,-0.88zm-49.62 46.03l1.19 0.02c0.65,-0.43 4.38,-3.65 4.78,-4.21 -0.22,-0.48 -2.75,-2.72 -3.6,-3.72l-3.37 -3.89c-0.78,0.21 -3.85,2.76 -4.24,3.4 0.11,1.3 4.37,6.87 5.23,8.4zm0.97 -25.73c-0.45,1.79 1.38,6.34 2.05,7.7 6.05,12.3 21.35,15.79 30.61,4.27 1.33,-1.66 2.59,-3.94 3.49,-6.32 0.48,-1.28 2.08,-6.59 1.41,-8.02 -2.99,-0.68 -1.73,1.61 -3.05,5.68 -4.75,14.64 -19.17,16.17 -26.83,8.41 -2.5,-2.53 -3.86,-4.8 -4.93,-8.4 -0.36,-1.22 -0.48,-2.57 -1.01,-3.41l-1.74 0.09zm64.44 17.14c1.97,0.33 1.77,-1.14 -0.79,-2.48 -0.28,-0.15 -0.5,-0.24 -0.71,-0.34l-0.73 -0.4c-1.3,-0.18 -1.84,-0.45 -3.51,-0.32 -1.12,0.09 -2.56,0.38 -3.68,0.28 -3.84,-0.36 -3.29,-3.23 -3.76,-4.18 -0.91,-1.85 0.66,-1.5 -0.09,-3.06 -0.32,-0.67 -2.4,-3.2 1.79,-4.14 0.82,-0.18 2.6,-0.66 3.3,-0.43 -0.5,1.96 -4.33,0.71 -4.8,2.21 -1.24,3.9 11.69,0.01 6.64,-2.13 -0.85,-0.36 -1.72,-0.69 -2.59,-0.86 -3.43,-0.68 -3.37,0.97 -3.67,-1.64 -0.07,-0.59 -0.26,-0.79 -0.39,-1.35 -0.27,-1.09 0.2,-1.96 0.09,-3.05 -0.16,-1.49 -1.75,-3.76 -3.36,-3.53 -0.93,1.7 1.89,5.81 -0.5,10.54 -0.81,1.59 -1.53,2.22 -1.8,4.54 -0.12,0.99 -0.33,1.92 -0.06,2.92 0.3,1.11 0.71,1.07 1.34,1.8 0.96,1.12 -0.14,2.33 2.13,4 1.22,0.9 3.18,1.53 5.14,0.98 2.85,-0.79 2.81,-1.55 7.72,-0.13 0.71,0.21 1.58,0.61 2.31,0.76zm-78.5 -33.48c-0.11,0.92 1.64,3.38 2.2,4.28 0.46,0.75 2.26,3.39 2.24,4.04 -0.5,0.36 -4.3,0.95 -5.42,1.4 -0.9,0.36 -1.5,0.72 -2.37,1.16 -0.79,0.4 -1.65,0.59 -2.4,1.05 -0.1,0.97 3.98,6.64 4.77,7.81 1.21,1.79 1.97,2.44 0.16,4.17 -1.74,1.66 -2.12,1.6 -3.54,2.74 -0.18,2.46 3.14,9.61 4.2,11.37 0.59,-0.25 2.53,-2.78 4.42,-4.12 0.63,-0.45 1.17,-0.69 1.66,-1.28 0.01,-1.58 -4.12,-7.74 -4.16,-8.96 -0.03,-0.99 2.49,-2.55 3.4,-3.07 1.04,-0.61 4.52,-1.63 2.44,-2.93 -1.5,-0.94 -2.13,-1.19 -2.14,-4.31 -0.01,-2.04 0.11,-4.37 0.22,-6.38 0.12,-2.22 0.61,-4.35 -0.76,-5.56 -0.71,-0.63 -3.75,-2.07 -4.91,-1.39zm16.32 2.58c1.41,-0.35 5.11,-0.17 6.82,-0.18 5.87,-0.03 5.5,3.33 5.35,8.31 -0.15,5.02 -6.12,3.96 -9.74,4 -2.45,0.03 -3.91,-0.28 -4.89,-1.92 -0.9,-1.5 -0.64,-4.34 -0.59,-6.3 0.05,-2.12 1.23,-3.45 3.05,-3.9zm29.27 -1.95c2.4,-0.3 3.86,0.63 4.58,2.35 0.36,0.86 0.7,5.51 0.53,6.48 -0.35,2 -1.94,2.82 -4.04,3.08 -1.96,0.25 -4.04,0.56 -6.1,0.82 -2.35,0.3 -3.97,-0.52 -4.72,-2.22 -0.42,-0.94 -0.66,-5.37 -0.47,-6.57 0.62,-3.83 5.47,-3.35 10.21,-3.94zm8.44 -2.03c-1.37,-0.13 -13.06,1.33 -15.63,1.57 -8.17,0.76 -16.51,0.83 -24.71,1.11 -5.21,0.18 -4.43,-1.08 -4.66,3.87 -0.51,11.1 -0.01,7.62 1.21,9.32 1.12,1.55 1.14,1 5.35,1.1 2.89,0.07 5.7,0.05 8.59,-0.02 3.77,-0.09 4.4,0.39 5.63,-2.91 0.33,-0.89 0.81,-2.26 1.49,-2.72 1.22,-0.83 2.36,0.38 2.76,1.08 2.39,4.23 0.27,4.57 12.52,2.85 1.53,-0.22 6.47,-0.6 7.2,-1.44 0.36,-0.42 0.47,-0.81 0.88,-1.22 0.4,-0.41 0.81,-0.52 0.95,-1.2 0.15,-0.72 -1.22,-10.66 -1.59,-11.39z"/>
   <path class="fil2" d="M71.73 95.86c-0.52,-0.8 1.96,-8.68 2.32,-10.04 0.47,-1.75 0.89,-3.28 1.35,-4.99 0.24,-0.9 0.42,-1.56 0.67,-2.51 0.24,-0.92 0.19,-2 1.22,-2 0.48,0.82 -1.95,8.66 -2.32,10.04l-2.33 8.71c-0.22,0.8 -0.1,0.84 -0.92,0.79zm-12.39 -5.83c-0.63,-0.22 -3.74,-0.11 -4.15,0.22 -0.19,0.15 -3.46,7.9 -1.24,10.79 1.48,1.93 4.53,1.39 6.51,0.08 1.61,-1.07 2.85,-2.89 3.67,-5.24 0.61,-1.76 2.63,-9.22 2.6,-11.21 -0.03,-2.04 -1.32,-2.22 -1.81,-2.86 -0.58,-0.76 2.47,-3.61 3.57,-5.09 0.97,-1.31 2.51,-4.62 2.18,-6.78 -1.54,-0.26 -6.96,-0.03 -8.75,0.09 -1.56,0.1 -1.7,0.82 -2.07,2.28 -0.19,0.75 -0.73,2.45 -0.62,3.05 0.24,1.32 2.91,0.38 4.69,0.65 -0.09,0.58 -3.09,3.99 -3.75,4.83 -0.57,0.72 -1.19,1.77 -1.56,2.84 -1.81,5.31 0.46,2.82 2.62,3.43 0.13,1.1 -1.84,8.54 -2.26,9.32 -1.32,-0.03 -0.94,-0.42 -0.3,-2.89 0.2,-0.79 0.82,-2.77 0.69,-3.5zm5.57 10.86l-0.26 0.57c2.47,0.27 4.08,0.97 6.75,0.28 2.18,-0.57 3.37,-1.6 4.39,-2.98 1.77,-2.39 4.23,-12.98 5.27,-17 0.68,-2.61 3.43,-9.85 -0.51,-11.17 -1.02,-0.34 -5.92,-0.15 -7.18,-0.01 -0.69,0.88 -5.44,19.29 -6.41,22.88 -0.56,2.04 -1.3,5.64 -2.05,7.43z"/>
   <path class="fil3" d="M22.33 44.17c0.23,3.99 4.39,2.91 9.23,2.88 5.07,-0.03 4.68,-1.84 4.48,-7.44 -0.06,-1.81 -1.23,-2.96 -3.07,-3.01 -1.96,-0.06 -4.16,0.06 -6.15,0.11 -4.82,0.1 -4.84,1.34 -4.49,7.47z"/>
   <path class="fil4" d="M53.16 35.35c-1.78,0.21 -3.48,0.41 -5.25,0.63 -1.89,0.23 -3.35,0.52 -3.45,2.57 -0.04,0.85 0.26,4.6 0.44,5.41 0.4,1.77 2.02,1.93 3.96,1.61 1.67,-0.28 3.34,-0.54 4.99,-0.78 1.93,-0.29 3.32,-0.49 3.59,-2.43 0.14,-0.99 0.21,-4.85 -0.02,-5.63 -0.55,-1.88 -2.25,-1.63 -4.27,-1.39z"/>
   <path class="fil5" d="M47.34 97.93c-0.5,-0.59 0.31,-2.64 0.52,-3.43l1.83 -6.94c0.54,-2.04 0.41,-2.83 1.33,-2.91 0.5,0.79 -1.87,8.45 -2.39,10.43 -0.49,1.89 -0.41,2.81 -1.3,2.85zm-0.58 -16c-1.76,-0.52 -1.15,0.9 -3.56,3.69 -0.64,0.74 -1.16,1.27 -1.8,1.88 -0.84,0.8 -0.77,1 -1.14,2.38 -0.52,1.94 -1.03,3.75 -1.54,5.65 -0.26,0.98 -1.75,5.05 -0.95,5.73 0.8,0.68 2.22,0.03 2.58,-0.6 0.32,-0.55 0.64,-2.09 0.84,-2.85l2.99 -11.4c0.55,-1.46 1.26,-0.71 1.93,-1.74 0.43,-0.66 0.89,-1.87 0.64,-2.74zm-15.21 19.59c0.43,0.26 1.12,0.21 1.78,0.16 1.32,-0.1 0.99,-0.54 1.89,-3.85 0.56,-2.06 1.09,-4.04 1.66,-6.11 0.55,-1.98 1.11,-4.08 1.63,-6.03 0.89,-3.35 1.99,-3.85 -2,-3.57 -0.48,0.7 -3.85,14.1 -4.63,17.08 -0.32,1.21 -0.67,1.72 -0.34,2.31zm-7.59 -10.64c-0.13,-0.42 0.67,-4.35 1.5,-4.76 0.99,-0.49 1.97,0.25 2.42,-0.74 0.27,-0.61 0.5,-2.12 0.33,-2.81 -0.6,-0.23 -4.34,-0.02 -5.02,0.18 -0.6,0.36 -5.33,18.53 -5.29,19.28 3.26,0.79 3.16,-0.94 3.77,-3.2 1.32,-4.88 0.73,-3.84 2.83,-4.21 0.34,-0.61 1.09,-2.32 1.03,-3.23l-1.57 -0.51zm-8.42 -4.61l-4.09 15.95 2.36 -0.06c0.68,0.11 1.73,0.18 2.29,-0.09 0.55,-0.3 0.28,0.04 0.59,-0.69 1.55,-3.58 -0.63,-2.6 -1.44,-2.84 -0.11,-1.06 0.65,-3.19 1.01,-4.09l1.39 -0.2c0.35,-0.54 0.98,-2.16 0.94,-3.15l-1.3 -0.38c-0.01,-1.09 0.7,-3.44 1.08,-4.32 1.13,-0.25 2.12,0.13 2.54,-0.97 0.21,-0.54 0.66,-2.03 0.49,-2.48 -0.71,-0.25 -3.85,-0.36 -4.65,-0.09 -1.01,0.34 -1.15,2.27 -1.21,3.41zm16.37 -0.35c1.15,-0.22 2.1,0.02 2.51,-1.01 0.24,-0.59 0.68,-2.09 0.48,-2.63 -0.98,-0.38 -2.41,-0.06 -3.5,-0.02 -1.74,0.06 -1.72,-0.09 -2.13,1.52l-3.15 11.93c-0.15,0.58 -1.73,5.5 -1.21,5.98 0.55,0.32 3.86,0.3 4.6,0.03 0.89,-0.32 1.29,-2.29 1.17,-3.59l-2 0.1c0.01,-1.02 0.47,-3.78 1.39,-4.19 0.98,-0.43 1.24,-0.08 1.6,-1.23 0.17,-0.57 0.44,-1.45 0.42,-2.17 -1.29,-0.41 -1.4,-0.61 -0.99,-2.05 0.25,-0.9 0.45,-1.9 0.82,-2.69zm22.3 -1.42c0.64,-2.89 -1.36,-4.04 -3.89,-2.98 -2.27,0.96 -2.46,1.94 -3.19,4.53 -1.12,4 -2.25,8.04 -3.2,12.25 -0.33,1.45 -0.32,2.46 0.78,3.05 2.6,1.4 5.38,-0.95 6.43,-4.48 1.22,-4.07 2.14,-8.22 3.06,-12.37z"/>
   <path class="fil6" d="M12.61 82.23c0.39,-0.98 1.99,-2.46 2.68,-3.29 0.53,-0.64 2.14,-2.46 3.05,-2.6 -0.02,1.38 -3.69,6.07 -4.5,6.8 -0.6,-0.16 -0.92,-0.49 -1.23,-0.92zm-1.96 -1.96l-0.14 0.51 -0.35 2.33c0.18,0.29 -0.35,0.24 0.41,0.23 1.03,-0.15 2.14,-0.49 2.6,0.42l0.3 2.14c0.25,-1.03 0.47,-0.18 1.12,-0.8 0.26,-0.25 0.35,-1.03 0.5,-1.45 0.3,-0.88 0.83,-1.62 1.32,-2.36 1.62,-2.43 2.15,-4.24 3.49,-3.24 -0.21,1.01 -1.21,1.64 -1.24,2.72 0.75,0.84 2.05,1.21 3,0.16 1.03,-1.15 0.3,-2.15 0.74,-3.06 -0.71,-0.68 -1.19,-0.52 -2.14,-0.84l0.12 -0.73 -0.75 0.02c-0.02,-0.04 -0.03,-0.11 -0.04,-0.14l-0.34 -0.91c-1.1,-0.1 -2.88,2.09 -4.07,2.69l-0.63 -0.87c-2.08,1.02 -2.13,4.75 -3.7,3.39 -0.02,-0.02 -0.08,-0.04 -0.1,-0.11 -0.02,-0.06 -0.06,-0.08 -0.09,-0.11z"/>
   <path class="fil6" d="M40.33 77.86c-0.2,0.45 -0.28,0.51 -0.44,1.04 0.25,0.39 0.09,0.15 0.35,0.43l0.3 0.3c1.63,0.13 1.77,0.76 2.71,-0.74 0.57,-0.03 1.01,0.06 1.39,0.24 0.16,1.34 -0.66,0.66 -0.84,2.05 -0.14,1.06 -0.12,1.46 -0.84,1.87 -0.45,-0.83 0.29,-1.57 0.47,-2.16 -1.26,0 -3.85,3.23 -3.81,5.21 0.01,0.66 0.04,0.61 0.31,0.93 1.31,0.48 3.43,-2.45 4.01,-3.48 0.74,-1.33 2.26,-4.16 3.07,-4.47l0.23 -2.99 -1.46 0.06c-1.52,0.43 -1.7,1.75 -2.91,2.22l0.34 -1.27c-0.81,0.01 -1.28,-0.34 -1.79,-0.09 -0.48,0.23 -0.66,0.68 -1.08,0.86z"/>
   <path class="fil6" d="M32.36 80.15c0.09,-0.85 0.42,-1.95 0.3,-2.62 -0.48,-0.59 -1.35,-0.36 -1.89,0.05 -0.58,0.45 -0.76,1 -1.57,1.09l-0.18 -1.27c-2.91,0.02 -5.38,1.14 -5.53,3.95 1.44,-0.01 0.92,-0.97 2.02,-1.3 1.05,-0.32 1.44,0.61 2.18,0.95 1.19,-0.14 0.97,-0.93 2.42,-0.48 1.13,0.35 1.54,0.44 2.25,-0.36z"/>
   <path class="fil6" d="M36.94 73.6c0.32,-0.08 0.49,-0.17 0.76,-0.16l0.44 0.12c0.03,-0.05 0.1,0.04 0.14,0.07 -0.27,0.81 -1.38,1.4 -2.22,1.55 -0.09,0.82 -0.57,0.95 -1.37,0.87l0.48 0.38c-0.33,0.57 -1.11,1.21 -1.66,1.5l-0.55 1.63c0.24,0.27 0.36,0.43 0.49,0.64 1.11,0.26 1.38,0.81 2.42,-0.03 0.4,-1.49 0.48,-2.51 1.26,-3.75 0.34,-0.54 0.61,-0.97 1.04,-1.42 0.45,-0.47 1.01,-0.73 0.99,-1.55 -0.21,-0.18 -0.27,-0.2 -0.53,-0.42l-0.62 -0.52 -0.11 0.66 -0.98 0.42z"/>
   <path class="fil7" d="M47.55 75.21c-0.65,0.6 -0.05,0.35 -0.87,0.55 -0.31,0.08 -0.07,-0.07 -0.55,0.13 -0.36,0.15 -0.16,0.03 -0.38,0.25l1.46 -0.06 -0.23 2.99 0.36 -0.31c0.42,-0.25 -0.11,-0 0.25,-0.12 0.27,-0.09 0.29,-0.05 0.62,-0.03 -0.58,-0.51 -0.35,0.01 -0.62,-0.76 0.38,-0.63 0.27,-0.27 0.81,-0.67 0.87,-0.64 0.65,-1.74 2.72,-1.19 0.08,0.5 -0.38,2.08 -0.67,2.55 -0.53,0.85 -1.46,0.3 -2.21,0.01 0.26,0.74 0.18,0.43 -0.01,1.16 1.31,-0.1 0.73,0.72 2.68,-0.11 0.25,-0.56 0.31,-0.61 0.75,-1.03l0.7 -0.43c0.66,-0.3 1.04,-0.55 1.12,-1.69l-0.36 -0.25c-0.34,-0.24 -0.02,0.04 -0.32,-0.24 -0.8,-0.31 -1.08,-1.09 -2.51,-0.98 -1.29,0.1 -1.19,0.86 -2.71,0.79l-0.05 -0.56z"/>
   <path class="fil8" d="M47.55 75.21l0.05 0.56c1.53,0.07 1.42,-0.69 2.71,-0.79 1.43,-0.11 1.7,0.67 2.51,0.98 0.8,0.06 0.73,0.04 0.73,-0.7 -0.28,-0.8 -0.79,-1.38 -1.48,-1.81 -1.13,0 -4.06,1.16 -4.52,1.77z"/>
   <path class="fil9" d="M37.54 80.03c0.64,0.72 0.87,0.18 1.6,0.09 0.08,-1.16 -0.46,-0.97 -0.15,-1.85 0.15,-0.43 0.6,-0.81 0.99,-1.15 -0.07,-0.31 0.08,-1.82 0,-2.44l-0.85 0.05c-0.51,1.02 -0.2,1.45 -1.05,2.61 -0.4,0.54 -0.43,0.52 -0.35,1.33 0.13,1.25 -0.02,0.3 -0.18,1.36z"/>
   <path class="fil7" d="M35.88 80.17l1.28 -0.78 0.37 0.63c0.16,-1.07 0.31,-0.11 0.18,-1.36 -0.08,-0.81 -0.05,-0.79 0.35,-1.33 0.85,-1.16 0.54,-1.59 1.05,-2.61l0.85 -0.05 -0.26 -0.22c-0.03,-0.04 -0.07,-0.07 -0.11,-0.12l-0.42 -0.89c0.02,0.82 -0.54,1.08 -0.99,1.55 -0.43,0.45 -0.7,0.87 -1.04,1.42 -0.78,1.24 -0.87,2.26 -1.26,3.75z"/>
   <path class="fil9" d="M48.22 78.61l0.03 -0.06c0.75,0.29 1.68,0.84 2.21,-0.01 0.29,-0.47 0.75,-2.05 0.67,-2.55 -2.07,-0.55 -1.85,0.55 -2.72,1.19 -0.54,0.4 -0.43,0.04 -0.81,0.67 0.27,0.78 0.04,0.25 0.62,0.76z"/>
   <path class="fil10" d="M20.38 76.3l-0.12 0.73c0.94,0.31 1.43,0.16 2.14,0.84l0.67 0.26c-0.01,-1.46 -1.38,-0.97 -0.72,-2.74l-1.19 -0.02c-0.21,0.55 -0.29,0.6 -0.77,0.92z"/>
   <path class="fil11" d="M51.59 80.71l0 -0.24 -0.8 -0.05 0.13 -0.82c-1.95,0.83 -1.37,0.01 -2.68,0.11 0.17,0.73 0.47,1.07 0.85,1.53l2.5 -0.52z"/>
   <path class="fil8" d="M50.93 79.6l-0.13 0.82 0.8 0.05c0.76,-0.11 0.59,0.15 1.18,-0.17 0.29,-0.83 -0.09,-1.82 -1.1,-1.72 -0.43,0.42 -0.5,0.47 -0.75,1.03z"/>
   <path class="fil8" d="M34.7 76.06c0.8,0.08 1.27,-0.05 1.37,-0.87 -0.72,-0.45 -1.12,-0.7 -2.24,-0.67 -0.03,0.87 0.27,1.04 0.87,1.54z"/>
   <path class="fil7" d="M39.13 80.12c0.61,-0.51 0.47,-0.57 1.41,-0.49l-0.3 -0.3c-0.25,-0.28 -0.1,-0.04 -0.35,-0.43 0.15,-0.53 0.24,-0.59 0.44,-1.04 -0.24,0.07 -0.08,0.22 -0.61,-0.03l0.25 -0.71c-0.38,0.34 -0.84,0.73 -0.99,1.15 -0.3,0.87 0.23,0.69 0.15,1.85z"/>
   <path class="fil12" d="M32.36 80.15l1.1 0.06c-0.13,-0.2 -0.25,-0.37 -0.49,-0.64l0.55 -1.63 -0.44 0.02 -0.42 -0.43c0.12,0.67 -0.21,1.77 -0.3,2.62z"/>
  </g>
 </g>
</svg>
