<?xml version="1.0" encoding="UTF-8"?>
<!DOCTYPE svg PUBLIC "-//W3C//DTD SVG 1.1//EN" "http://www.w3.org/Graphics/SVG/1.1/DTD/svg11.dtd">
<!-- Creator: CorelDRAW -->
<svg xmlns="http://www.w3.org/2000/svg" xml:space="preserve" width="68.6948mm" height="34.3416mm" version="1.1" style="shape-rendering:geometricPrecision; text-rendering:geometricPrecision; image-rendering:optimizeQuality; fill-rule:evenodd; clip-rule:evenodd"
viewBox="0 0 177.89 88.93"
 xmlns:xlink="http://www.w3.org/1999/xlink"
 xmlns:xodm="http://www.corel.com/coreldraw/odm/2003">
 <defs>
  <style type="text/css">
   <![CDATA[
    .fil0 {fill:black}
    .fil5 {fill:#0388C7}
    .fil6 {fill:#075282}
    .fil8 {fill:#075384}
    .fil4 {fill:#4A1418}
    .fil10 {fill:#B33727}
    .fil9 {fill:#BCF0F0}
    .fil1 {fill:#CCF2FD}
    .fil14 {fill:#D8CDC6}
    .fil15 {fill:#E0D6CF}
    .fil11 {fill:#E3DAD2}
    .fil3 {fill:#E5DDD5}
    .fil12 {fill:#E6DDD5}
    .fil7 {fill:#FB9CA8}
    .fil13 {fill:#FDFBED}
    .fil2 {fill:#FDFDFD}
   ]]>
  </style>
 </defs>
 <g id="Camada_x0020_1">
  <metadata id="CorelCorpID_0Corel-Layer"/>
  <g id="_2076109142048">
   <path class="fil0" d="M38.2 86.75c0.12,-0.33 0.38,-0.9 0.82,-0.82 0.65,0.12 0.13,0.02 0.36,0.26 0.22,1.84 0.81,2.35 2.72,2.54 1.8,0.18 3.2,-0.19 4.9,-0.39 3.02,-0.36 7.5,0.9 9.96,-0.41 0.11,-0.69 0.31,-1.37 0.98,-1.49 0.26,0.2 0.16,0.17 0.29,0.36 0.7,0.62 1.57,1.26 2.56,1.48 2.01,0.45 5.24,0.52 7.18,-0.07 3,-0.91 3.77,1.28 10.89,0.14 3.27,-0.52 5.06,-1.69 6.08,-1.88 -0.01,2.04 1.44,1.73 4.02,1.73 0.63,-0 3.65,-0.03 4.19,-0.2 0.53,-0.16 0.36,-0.29 0.91,-0.44 0.36,0.18 0.55,0.42 1.13,0.47 1.18,0.1 6.9,0.2 7.51,-0.25 0.71,-0.53 0.42,-1.59 0.87,-2.31 0.24,0.32 0.26,0.58 0.58,0.95 0.56,0.65 1.94,1.46 2.81,1.75 1.87,0.62 3.72,-0.03 5.45,-0.17 1.75,-0.15 4,0.16 5.92,0.05 3.79,-0.21 2.71,-0.16 3.73,-2.25 1.53,0.13 2.88,2.7 9.23,2.59 6.96,-0.12 7.46,-2.77 8.46,-3.09 0.3,2.78 -0.3,2.45 5.74,2.5 1.06,0.01 3.19,-0.56 3.53,-0.49 0.61,0.14 0.68,0.42 1.58,0.49 2.54,0.18 6.54,-0.35 10.05,-0.21 3.01,0.12 5.77,0.79 6.33,-1.61 0.17,-0.95 0.74,-4.72 1.48,-5.11l0.62 -2.88c0,-2.15 0.87,-4.87 1.35,-7 0.22,-0.98 0.72,-2.42 0.83,-3.31 0.14,-1.21 -0.88,-2.16 -1.18,-3.14l-1 -0.52c0.11,-0.59 0.44,-0.66 0.86,-1.09 2.66,-2.7 2.61,-5.18 3.51,-9.58 0.62,-3.04 0.06,-3.88 -1.09,-6.02 -0.36,-0.68 -2.59,-4.31 -2.55,-4.77 2.02,-0.07 5.31,0.3 6.09,-1.11l0.74 -2.84c0.22,-0.53 -0.01,-0.11 0.23,-0.34 -0.08,-2.35 1.63,-5.2 0.87,-8.03 -0.63,-2.32 -2.49,-3.73 -4.96,-4.28 -8.9,-1.95 -12.34,3.36 -13.95,3.59 -0.3,-1.29 -0.35,-1.31 -1.16,-2.13 -0.42,-0.43 -1.15,-0.98 -1.9,-1.28 -2.49,-1.03 -8.61,-0.74 -10.89,0.57 -0.92,0.53 -3.24,2.05 -4.07,2.3 -0.8,-0.74 -1.16,-2.05 -3.39,-2.86 -1.42,-0.51 -3.66,-0.78 -5.3,-0.73 -4.93,0.17 -7.31,2.66 -9.06,3.19l-0.03 -1.99c-1.25,-0.47 -6.66,-0.62 -8.12,-0.27 -1.18,0.29 -1.06,1.71 -1.37,2.92 -0.27,1.05 -0.6,2.44 -1.62,2.52 -0.32,-1.76 2.46,-5.09 -0.83,-5.49 -2,-0.24 -5.5,-0.07 -7.38,0.31 -0.39,1.06 -0.61,2.28 -1.64,2.49 -0.61,-3.5 3.88,-9.96 0.64,-10.83 -2.15,-0.58 -4.07,-0.06 -6.29,0 -1.81,0.05 -5.21,-0.41 -6.82,0.03 -3.39,0.92 -2.62,6.5 -4.29,9.48 -0.47,0.83 -0.84,1.34 -1.36,2.08 -0.54,0.76 -0.73,1.91 -1.06,2.38 -0.48,0.68 -5.44,0.48 -6.18,0.18 -0.58,-1.85 1.98,-0.74 2.88,-2.55 0.28,-1.78 1.01,-4.1 1.52,-5.89 0.26,-0.9 0.59,-1.89 0.71,-2.87 0.25,-2.02 0.34,-1.64 -0.59,-2.86l-0.24 -0.16c0.22,-0.39 0.31,-0.37 0.61,-0.68 0.38,-0.81 0.42,-1.23 0.35,-2.2 -0.97,-0.94 -1.69,-1.05 -3.22,-0.32 -0.69,0.33 -2.31,1.33 -2.87,1.38 -1.34,-1.67 -1.61,-1.82 -4.55,-1.78 -2.42,0.03 -3.54,0.24 -4.38,1.97 -0.48,1 -1.33,3.65 -1.5,4.81 -0.62,4.2 1.74,2.52 2.59,3.71 -0.17,0.1 0.06,0.04 -0.32,0.1l-11.6 -0.59 -0.07 -0.33c0.21,-0.77 1.18,-1.98 1.63,-2.77 0.99,-1.73 2.41,-7.04 4.69,-7.97l0.5 -0.98c0.02,-0.92 -0.4,-1.33 -0.64,-1.86 -6.36,0.28 -11.79,4.24 -14.51,4.12 -0.61,0.63 -1.63,0.46 -1.57,-1.13 0.03,-1.18 -0.32,-3.74 -0.49,-5.01 -0.21,-1.49 -0.93,-7.93 -2.28,-8.44 -1.68,-0.64 -2.79,0.93 -3.57,1.61l-5.64 5.11c-3.35,3.25 -2.79,3.78 -4.51,6.22 -1.4,-0.04 -2.89,-0.9 -3.98,-1.44l-7.3 -3.45c-2.67,-1.23 -6.45,-3.81 -5.92,1.37 0.57,5.61 4.11,9.71 4,12.08 -1.56,-0.02 -2.89,-0.31 -4.67,-0.24 -1.54,0.06 -3.1,0.12 -4.66,0.19 -1.57,0.06 -8.77,-0.29 -6.72,2.38 1.64,2.13 10.38,6.62 11.28,8.18l-4.72 3.01c-1.11,0.66 -4.26,2.23 -3.78,3.81 0.23,0.75 1.41,1.31 2.36,1.53l10.16 1.25c0.02,1.82 -4.45,4.03 -3.99,6.04 0.45,1.95 5.8,1.88 7.45,2.74 0.29,1.82 -1.07,5.05 0.41,6.08 1.07,0.74 4.74,-0.33 6.3,-0.4 -0.29,4.2 1,3.5 5.35,2.51 2.11,-0.48 1.68,-0.42 3.56,0.33 0.91,0.37 2.58,0.79 3.27,1.2 -0.29,0.92 -4.08,2.14 -5.22,2.7 -7.94,3.93 -7.51,6.03 -9.56,14.26 -0.96,3.83 -3.16,9.78 1.85,11.2 2.25,0.64 8.06,0.77 10.71,-0.3 1.06,-0.43 1.63,-0.96 2.42,-1.38z"/>
   <path class="fil1" d="M39.95 3.53c-0.37,0.38 -0.83,0.72 -1.26,1.13 -0.45,0.43 -0.69,0.71 -1.23,1.11 -0.77,0.57 -2.16,1.39 -2.41,2.16 -0.83,1.26 -1.17,1.54 -2.18,2.46l-0.51 0.81c-0.26,0.64 -0.53,1.18 -0.88,1.83 -0.34,0.62 -0.68,1.26 -1.18,1.52 -0.46,0.94 -0.62,1.17 -1.85,0.64 -1.38,-0.6 -3.11,-1.99 -6.08,-3.29 -1.49,-0.65 -2.94,-1.21 -4.5,-1.84 -1.55,-0.62 -3.69,-2 -4.15,-1.98 -0.9,3.73 5.51,13.83 4.93,15.14 -1.17,0.45 -2.87,-0.1 -4.12,-0.19 -1.46,-0.12 -2.72,-0.06 -4.17,0 -1.37,0.06 -7.64,0.18 -8.39,0.59 0.2,0.37 2.57,1.73 3.14,2.08l7.77 5.19c2.01,1.41 1.57,1.2 -1.19,2.85 -0.89,0.54 -1.59,0.95 -2.47,1.53 -0.89,0.59 -4.26,2.72 -4.51,3.36 1.02,0.63 12.48,1.49 13.63,2.19 -0.01,0.97 -1.56,2.29 -1.93,3.03l-3.14 3.18 -0.15 0.41c0.96,0.48 7.13,1.42 8.14,2.03 0.04,0.87 -0.49,2.03 -0.65,2.98 -0.13,0.8 -0.56,2.27 -0.53,2.79 1.92,0.49 6.34,-1.72 7.49,-1.03 0.21,0.38 -0.22,1 -0.29,1.63 -0.06,0.58 0,1.46 0.08,2.04 0.94,0.14 3.56,-0.98 4.43,-1.37 -0.24,-1.52 -3.25,-3.36 -4.35,-3.69 -2.33,-0.7 -3.8,-1.3 -4.63,-3.37 -0.41,-1.01 -0.53,-2.34 -0.06,-3.41 0.57,-1.32 1.49,-1.05 0.84,-2.59 -0.81,-1.9 -1.52,-3.77 -2.21,-5.78 -1.58,-4.58 -2.51,-8.46 -0.16,-12.87 1.46,-2.74 5.54,-5.43 9.49,-6.51 5.72,-1.56 11.62,-0.91 16.05,2.55 3.42,2.67 5.32,9.5 6.53,13.45 0.59,1.95 0.49,1.18 2.04,1.94 1.89,0.92 3.35,2.35 3.41,4.58 0.04,1.62 -0.32,1.86 -0.9,3.08 -0.45,0.94 -0.44,2.11 -0.85,3.14l-1.05 3.02c0.18,1.58 -0.55,1.01 -0.6,1.93 0.55,0.6 3.02,0.51 3.95,0.41 -0.07,-1.45 -1.74,-3.13 -1.62,-3.99 1.23,-0.46 5.13,-0.32 6.62,-0.52 -0.14,-1.6 -4.48,-3.64 -4.9,-5.13 0.85,-1.01 4.95,-3.77 5.4,-4.55 -0.93,-0.82 -6.88,-2.68 -8.53,-3.44l2.21 -1.93c1.23,-0.9 4.91,-2.94 5.1,-3.17 0.35,-0.43 0.82,-2.55 0.79,-2.89 -0.03,-0.32 0.02,-0.12 -0.1,-0.31 -0.82,-0.7 -13.92,0.04 -10.55,-2.38 1.96,-1.41 2.4,-2.89 3.41,-5.4 0.55,-1.37 0.93,-2.35 1.59,-3.52 0.72,-1.28 1.91,-2.46 2.08,-2.95 -1.22,-0.13 -6.34,1.95 -7.7,2.43 -1.48,0.53 -6.44,2.65 -8.05,1.8 -0.53,-0.53 -1.08,-8.65 -1.48,-10.06 -0.5,-0.76 -0.65,-4.18 -1.5,-4.31 -0.51,-0.08 -0.89,0.97 -2.12,1.44z"/>
   <path class="fil2" d="M150.96 31.48c0.63,2.02 -0.73,5.97 -1.21,7.99 -0.32,1.34 -0.62,2.6 -0.95,3.88 -0.34,1.29 -0.51,2.69 -0.81,4.01 -0.31,1.35 -2.37,10.74 -2.86,11.61 -0.29,0.51 -0.73,0.86 -1.31,1.04 -0.54,0.17 -1.63,0.19 -2,-0.25 -0.75,-0.88 0.85,-6.59 1.16,-7.87 0.64,-2.61 1.2,-5.25 1.83,-7.82 0.37,-1.5 2.2,-10.81 2.74,-11.75 0.61,-1.06 1.89,-1.52 3.41,-0.85zm6.66 1.51c0.48,-2.93 -0.29,-4.03 -2.21,-5.13 -2.65,-1.51 -9.3,-1.34 -12.23,1.33 -1.68,1.54 -2.06,1.8 -2.8,4.78 -0.5,2.02 -0.89,4.18 -1.36,6.2 -0.48,2.08 -1.01,4.08 -1.55,6.02 -0.59,2.12 -0.89,4.1 -1.36,6.25 -0.79,3.62 -2.85,9.37 1.03,11.43 1.47,0.78 4.95,1.01 6.73,0.76 4.57,-0.66 7.17,-2.85 8.4,-6.8 0.62,-2 1.95,-9.45 2.69,-12.47 1,-4.03 1.97,-8.23 2.65,-12.4z"/>
   <path class="fil2" d="M104.48 27.6c-0.56,1.35 -1.99,8.87 -2.38,10.83 -0.36,1.83 -0.92,3.42 -1.3,5.31 -0.36,1.78 -0.72,3.58 -1.09,5.38 -1.68,8.14 -6.17,16.11 6.32,15.46 4.28,-0.22 6.68,-2.11 8.13,-4.99 0.77,-1.54 0.95,-3.51 1.37,-5.22 1.02,-4.1 6.05,-25.96 5.88,-26.69 -1.67,-0.14 -4.63,-0.22 -6.26,-0.01 -0.66,0.98 -3.44,14.66 -4.18,17.58l-3.03 13.23c-0.27,0.72 -0.55,1.24 -1.26,1.51 -0.79,0.3 -2.43,0.56 -2.49,-1.09l3.23 -15.11c0.46,-2.13 3.53,-15.17 3.43,-16.16l-6.38 -0.02z"/>
   <path class="fil3" d="M49.39 39.55c6.27,-1.29 7.23,4.91 4.34,9.63 -0.64,1.04 -1.86,1.99 -2.84,2.81 -2.3,1.93 -3.1,1.04 -3.23,2.5 -0.12,1.27 -0.32,1.16 -1.31,1.65 -1.25,0.61 -1.07,2.95 -3.35,1.02 -0.98,-0.83 -1.42,-0.07 -2.27,-0.62 -0.85,-0.56 -0.2,-1.14 -1.61,-1.28 -1.92,-0.2 -5.15,-1.01 -6.75,-1.81 -2.54,-1.27 -5.71,-3.43 -4.37,-6.68 1.5,-3.65 6.24,-0.41 13.81,-3.29 3.11,-1.19 4.22,-3.22 7.59,-3.91zm-13.01 -19c2.09,-0.31 6.75,-0.03 8.12,1.44 0.6,0.64 0.29,1.34 -0.44,1.68 -1.54,0.7 -9.29,-1.08 -15.11,2.08 -1.05,0.57 -3.65,2.39 -4.64,2.5 -1.76,0.2 -1.75,-1.87 -0.94,-2.85 1.26,-1.53 5.72,-3.39 7.51,-3.87 1.78,-0.48 3.68,-0.7 5.5,-0.97zm18.5 30.95c0.63,-0.77 0.75,-0.58 0.54,-1.39 -0.7,-0.12 -0.62,-0.01 -0.72,0.66 -0.4,0.01 -0.34,-0.09 -0.43,-0.28 0.19,-0.51 1.26,-1.89 1.56,-2.14 0.41,-1.4 0.89,-1.98 1.07,-3.72 0.43,-4.07 -1.9,-7.29 -6.24,-6.49 -1.06,0.2 -0.79,0.05 -0.94,-0.05 0.59,-0.86 2.62,-0.46 3.63,-0.58 0.23,-2.42 -3.74,-12.88 -5.97,-15.32 -3.3,-3.61 -9.94,-5.41 -16.26,-3.48 -3.34,1.02 -4.87,1.98 -7.01,3.75 -0.98,0.81 -1.93,1.75 -2.48,2.9 -2.22,4.59 -1.01,8.3 0.69,12.79 0.59,1.55 2.43,6.61 3.12,7.47 0.4,-0.17 2.84,-2.91 5.74,-2.39 -0.17,0.43 -0.93,0.59 -1.89,0.9 -0.95,0.31 -1.39,0.32 -2.03,0.89 -1.09,0.99 -1.46,2.41 -1,4.21 0.77,2.98 3.36,4.22 6.01,5.42 0.04,0.78 0.09,0.85 0.29,1.44 0.44,0.2 0.79,0.87 2.41,1.66 4.86,2.36 14.98,1.22 18.62,-3.63 0.3,-0.4 0.57,-0.86 0.86,-1.21 0.42,-0.51 0.48,-0.55 0.45,-1.41zm-30.05 -10.99c0.61,-0.26 1.27,0.28 2.08,0.47 3.09,0.71 4.72,-1.16 6.34,-1.37 -0.31,2.22 -7.79,2.89 -8.42,0.9zm17.5 -2.15c0.32,-0.28 0.68,-0.26 1.13,-0.31 1.2,-0.12 3.9,-0.91 4.82,-1.35 0.73,-0.35 0.94,-0.78 1.71,-0.89 -0.44,1.98 -6.89,3.54 -7.66,2.55zm-7.72 -1.53c-0.36,0.15 -3.23,4.38 -8.67,2.75 -2.63,-0.79 -4.99,-4.72 -3.8,-7.5 1.63,-3.82 8.29,-4.72 11.05,-2.34 2.36,2.04 1.11,4.83 1.86,6.13 0.84,1.45 0.59,1.3 0.65,3.32 0.15,4.74 2.95,4.4 3.36,3.06 0.72,-2.35 0.01,-2.69 0.39,-3.37 1.28,0.04 0.78,1.9 0.49,3.45 -0.26,1.39 -2.3,1.51 -3.05,1.22 -2.57,-0.99 -2.2,-4.99 -2.29,-6.71zm7.2 -11.34c1.87,-0.36 3.88,0.06 5.3,0.81 1.46,0.77 2.29,1.99 2.88,3.48 2.07,5.27 -6.69,8.7 -10.89,6.46 -2.77,-1.47 -5.49,-9.18 2.71,-10.75z"/>
   <path class="fil2" d="M161.11 53.33c0.06,-1.05 0.26,-2.52 -0.77,-2.96 -1.73,-0.74 -2,-0.29 -3.65,-0.4 -0.5,-0.14 -0.85,0 -1.43,-0.01 -0.42,1.35 -0.68,3.2 -1.06,4.75 -0.79,3.25 -1.84,6.24 0.82,8.68 0.94,0.86 2.97,1.11 4.49,1.17 8.57,0.37 10.76,-3.19 12.03,-10.75 0.77,-4.57 -0.52,-5.6 -2.4,-8.54 -0.76,-1.19 -1.51,-2.24 -2.26,-3.39 -0.98,-1.48 -1.89,-2.44 -1.85,-3.79 0.05,-1.72 0.33,-3.35 0.78,-4.88 0.78,-2.66 3.1,-1.99 3.49,-1.61 1.01,0.98 -1.73,8.69 -1.28,9.27 0.27,0.35 6.18,0.04 6.41,0.01 0.75,-2.29 1.51,-5.65 1.8,-8.26 0.38,-3.35 -1.53,-5.01 -4.34,-5.53 -6.58,-1.21 -11.43,1.36 -12.91,6.45 -0.37,1.26 -0.64,2.83 -0.91,4.17 -0.72,3.58 0.4,4.87 2.23,7.45 0.69,0.97 1.34,2 1.99,2.97 1.82,2.73 3.34,4.24 2.39,6.95 -0.48,1.39 -0.46,4.64 -2.42,5.07 -4.25,0.92 -0.97,-4.44 -1.15,-6.82z"/>
   <path class="fil2" d="M94.36 33.68c-0.88,5.01 -2.51,10.77 -3.52,15.67 -0.54,2.63 -1.14,5.18 -1.75,7.77 -0.35,1.51 -0.53,2.61 -1.87,2.93 -2.12,0.51 -2.35,-0.66 -2.06,-2.44 0.54,-3.37 2.62,-12.01 3.49,-15.68 0.62,-2.58 1.15,-5.17 1.75,-7.77 0.34,-1.47 0.44,-2.57 1.9,-2.9 2.13,-0.47 2.36,0.61 2.05,2.41zm-8.56 -3.15c-0.08,-0.07 0.14,-0.19 -0.45,-0.21 -0.95,-0.03 -1.79,4.23 -1.99,5.05l-2.09 9.53c-0.76,3.15 -1.5,6.2 -2.19,9.37 -0.68,3.1 -2,7.26 0.69,9.12 3.25,2.26 13.25,2.82 15.6,-4.95 0.86,-2.82 1.5,-6.42 2.14,-9.42 0.86,-4.08 2.68,-10.3 3.34,-14.02 0.4,-2.26 0.64,-2.94 -0.03,-5.04 -0.63,0.2 -0.58,0.58 -1.46,0.73 -1.51,0.26 -4.67,0.15 -5.94,-0.26 -0.87,-0.28 -1.02,0.15 -1.81,0.33 -1.36,0.3 -4.48,0 -5.8,-0.22z"/>
   <path class="fil2" d="M123.18 59.66c0.25,-3.04 1.48,-7.23 2.14,-10.14 0.38,-1.68 0.89,-3.41 1,-5.24 0.12,-2.1 0.72,-3 1.14,-4.92 0.37,-1.69 0.75,-3.28 1.13,-5.06 0.37,-1.76 0.84,-3.36 3.07,-3.02 1.19,0.18 1.1,0.94 0.93,2.09 -0.3,1.93 -1,4.18 -1.3,6.22 -0.17,1.19 -0.25,0.98 0.01,1.2 0.43,0.28 5.68,0.26 6.42,0.05 0.14,-0.26 1.56,-6.56 1.68,-7.31 0.22,-1.35 0.25,-2.74 -0.35,-3.94 -1.47,-2.95 -7.73,-3.04 -10.38,-2.35 -5.76,1.49 -6.34,5.42 -7.42,10.39 -0.51,2.37 -1.1,4.79 -1.59,7.22 -0.86,4.26 -4.19,14.02 -2.67,17.12 0.35,0.71 0.69,1.35 1.43,1.3 0.56,-0.97 0.32,-2.55 1.05,-3.19 0.66,-0.58 2.65,-0.19 3.69,-0.42z"/>
   <path class="fil4" d="M40.92 56.19l-0.13 -0.92c1.21,-0.53 2.59,-0.13 3.99,-0.58 0.47,-0.15 1.2,-0.47 1.66,-0.56 1,-0.21 0.94,0.76 0.45,1.15 -0.3,0.23 -1.06,0.42 -1.47,0.74 -0.59,0.47 -0.42,1.24 -1.01,1.33 -0.75,0.12 -0.75,-0.66 -1.4,-0.9 -0.63,-0.23 -1.41,-0.05 -2.09,-0.27zm-1.07 -2.17c0.7,-0.3 1.23,-0.34 1.3,0.46 -0.49,0.48 -1.32,0.53 -1.3,-0.46zm2.45 0.67c-0.05,-0.57 0.15,-0.69 0.4,-0.95 0.76,-0.09 0.96,-0.01 1.13,0.61 -0.38,0.28 -1.04,0.38 -1.53,0.34zm-4.65 -0.34l-0.02 -0.41c0.61,-0.41 0.99,-0.29 1.02,0.41 -0.45,0.33 -0.57,0.32 -1.01,0zm7.11 -0.32l-0.07 -0.64c0.4,-0.16 0.88,-0.24 1.39,-0.14 0.09,0.52 0.18,0.61 -0.29,0.79 -0.35,0.13 -0.69,0.09 -1.02,-0.01zm2.24 -0.43c-0.21,-1.28 0.85,-1.68 1.57,-0.91 -0.25,0.38 -1.17,0.94 -1.57,0.91zm2.21 -1.15c0.02,-1.02 0.44,-1.38 1.42,-0.99 -0.09,0.39 -0.12,0.4 -0.57,0.66 -0.26,0.15 -0.53,0.25 -0.86,0.33zm-8.65 -1.27c0.58,-0.99 2.37,-1.14 3.53,-0.73 0.82,0.29 2.6,1.2 2.51,1.95 -0.08,0.63 -1.05,0.27 -1.74,0.59 -0.55,0.25 -0.93,0.7 -1.67,0.12 -0.52,-0.41 -0.46,-0.91 -1.2,-1.14 -0.81,-0.26 -1.1,0.01 -1.43,-0.8zm-5 -5.61c0.52,0.19 0.21,0.1 0.38,0.24 -0.25,0.38 -0.62,0.57 -1.22,0.47 -0.59,-0.11 -0.85,-0.19 -0.85,-0.7 0.5,-0.17 1.17,-0.2 1.68,-0.01zm-3.52 0.57c-0.68,-0.01 -0.9,-0.2 -0.95,-0.9l1.94 0.01c-0.03,0.65 -0.29,0.9 -0.99,0.89zm4.91 -0.47c0.34,-0.59 1.02,-0.56 1.69,-0.41 -0.02,0.6 -0.21,0.65 -0.51,0.96 -0.25,-0.01 -0.51,-0.02 -0.73,-0.1 -0.63,-0.25 -0.28,-0.09 -0.45,-0.45zm2.54 -0.69c0.44,-0.31 1.09,-0.48 1.65,-0.45 0.01,0.68 -0.1,0.8 -0.4,1.16l-0.88 -0.02c-0.28,-0.36 -0.28,-0.22 -0.37,-0.7zm2.65 -0.71c0.17,-0.49 1,-0.84 1.63,-0.77l-0.02 0.78c-0.48,0.21 -1.13,0.21 -1.61,-0.01zm2.59 -1.64c0.24,-0.37 1.31,-1.11 1.58,-0.34 0.22,0.62 -0.8,1.05 -1.4,0.96l-0.18 -0.62zm2.08 -1.23c0.11,-0.78 1.32,-0.88 1.74,-0.76l-0.13 0.86c-0.72,0.15 -1.06,0.22 -1.61,-0.1zm2.61 -1.85c-3.37,0.69 -4.47,2.72 -7.59,3.91 -7.57,2.89 -12.31,-0.36 -13.8,3.29 -1.33,3.25 1.83,5.42 4.37,6.68 1.59,0.8 4.82,1.61 6.75,1.81 1.4,0.15 0.75,0.73 1.61,1.28 0.85,0.55 1.29,-0.21 2.27,0.62 2.28,1.94 2.1,-0.4 3.35,-1.02 1,-0.49 1.19,-0.37 1.31,-1.65 0.14,-1.46 0.94,-0.57 3.23,-2.5 0.98,-0.82 2.21,-1.77 2.84,-2.81 2.89,-4.72 1.93,-10.92 -4.34,-9.63z"/>
   <path class="fil2" d="M69.36 58.88c-0.14,-1.66 2.37,-11.61 2.9,-14.04 0.43,-1.97 3.15,-12.87 3,-13.88 -1.92,-0.29 -3.9,-0.82 -5.45,-0.44 -1.67,0.41 -1.16,1.15 -1.9,4.34l-2.37 9.99c-0.45,2.23 0.73,1.59 0.95,2.9 0.24,1.45 -1.32,1.34 -2,2.02 -0.22,0.45 -1.52,6.98 -1.42,7.7 1.26,0.82 2.96,1.3 4.14,2.18 0.58,0.44 1.18,1 1.86,1.31 1.41,0.63 2.37,0.1 2.6,0.85 0.24,0.78 -0.2,1.8 -0.25,2.15 4.85,0.47 4.64,-0.12 4.89,-1.44l0.59 -2.99c-0,-0.65 -0.01,-0.3 -0.16,-0.47 -0.61,-0.41 -6.15,-0.13 -7.41,-0.19z"/>
   <path class="fil5" d="M144.16 73.26l-0.1 0.87c1.01,0.35 5.01,0.11 6.24,-0.05 0.4,-1.2 1.11,-5.31 1.66,-5.66 0.48,-0.31 1.67,-0.25 2.18,-0.03 0.54,1.2 -0.75,3.68 -0.78,4.96l-0.09 0.61c1.05,-0.18 2.22,-0.23 3.33,-0.32 2.57,-0.2 2.25,0.12 2.18,1.24l0.37 -0.11 1.29 -5.02c0.27,-1.04 0.15,-1.15 0.64,-1.46 0.43,-0.28 1.67,-0.16 2.11,-0 0.23,1.27 -0.57,3.08 -0.61,4.24 -0.18,1.31 0.12,0.78 3.26,0.79 2.18,0.01 2.11,0 2.7,-0.85 0.23,-0.33 -0,-0.1 0.27,-0.32 0.21,-1.65 1.51,-4.6 0.4,-6.02 -0.6,-0.77 -1.81,-0.77 -2.96,-0.81 -4.53,-0.13 -4.31,2.14 -5.89,0.84 -0.72,-0.6 -1.51,-0.82 -2.79,-0.93 -4.1,-0.36 -4.73,1.49 -5.62,1.85l-0.06 -1.54c-1.03,-0.18 -5.14,-0.27 -5.88,0.13 -0.34,0.32 -0.22,0.28 -0.32,0.92 -0.25,1.73 -1.58,5.28 -1.56,6.68z"/>
   <path class="fil5" d="M106.89 75.95c0.14,0.51 -0.06,0.15 0.25,0.36l0.28 -0.35c0.73,-0.74 0.76,0.43 3.2,-0.09 2.71,-0.58 2.09,0.09 2.99,-1.32l0.15 -0.22c0.39,-1.2 0.69,-2.69 1,-3.97 0.19,-0.75 0.26,-1.36 0.79,-1.7 0.57,-0.37 1.67,-0.38 2.12,0 0.37,0.75 -1.07,5.09 -1.13,6.32l-0.01 0.78c0.88,0.13 2.13,-0.05 2.93,-0.11 1.15,-0.09 2.03,-0.01 3.1,0.02 0.4,-2.28 1.22,-5.07 1.81,-7.46l1.65 -7.35c-0.01,-0.03 -0.04,-0.05 -0.04,-0.11 -0.05,-0.58 -3,-0.27 -3.52,-0.26 -1.23,0.03 -2.39,-0.24 -2.7,0.79 -0.39,1.29 -0.88,4.68 -1.36,5.52 -0.52,0.03 -1.15,-0.67 -1.96,-0.94 -1.7,-0.57 -5.56,-0.52 -6.72,1.23 -1.22,1.84 -1.61,4.31 -2.18,6.64 -0.19,0.79 -0.61,1.5 -0.62,2.22z"/>
   <path class="fil5" d="M42.32 78.91c0.02,0.58 0.01,0.33 0.17,0.55 1.21,0.04 5.43,-0.05 6.25,-0.36 0.03,-0.76 1.97,-8.74 2.28,-9.35 0.41,-0.81 1.85,-1.32 2.55,-0.53 0.49,1.03 -2.1,8.14 -1.84,9.24l0.03 0.49c3.75,0.14 6.04,0.99 6.49,-2.97 0.22,-1.88 -1.3,-2.62 -0.95,-3.8 0.31,-1.04 1.58,-0.38 2.42,-1.7l0.36 -0.43c0.15,-0.57 0.34,-2.33 0.18,-3.03 -0.55,-0.96 -4.46,-1.35 -6.78,-0.44 -0.7,0.28 -1.15,0.74 -1.77,0.84 -0.26,-0.43 -0.17,-0.72 -0.57,-1.07 -0.58,-0.31 -4.55,-0.34 -5.26,-0.04 -0.61,0.25 -1.17,3.13 -1.4,3.97 -0.4,1.47 -0.76,2.87 -1.14,4.38 -0.31,1.25 -0.83,3.09 -1.03,4.26z"/>
   <path class="fil6" d="M126.14 72.44c-0.1,0.15 -0.04,0.01 -0.17,0.34l-1.09 4c-1.44,6.56 -3.46,9.44 2.81,10.03 4.42,0.41 10.32,0.72 11.69,-4.25 1.37,-4.97 1.15,-4.61 -1.09,-4.62 -0.68,-0 -1.37,-0.01 -2.05,0.04 -1.97,0.12 -2.51,0.08 -2.81,1.28 -0.27,1.09 -0.58,2.2 -0.83,3.31 -0.53,2.26 -1.98,1.7 -2.22,1.48 -0.08,-0.07 -0.29,0.1 -0.2,-1.05 0.03,-0.35 0.09,-0.66 0.15,-0.98 1.31,-6.61 0.62,-5.02 6.32,-5.29 1.2,-0.06 3.23,0.04 4.19,-0.32l0.49 -2.5c-0.66,0.33 -2.28,0.35 -3.22,0.5 -0.89,0.14 -2.45,0.4 -3.17,0.07l0.06 -0.93c-0.31,0.2 -2.84,1.05 -2.69,-0.39 0.02,-0.2 0.12,-0.51 0.15,-0.74 -0.33,0.33 -0.29,0.51 -0.32,1.21 -0.03,0.58 0.04,0.76 -0.37,1.06 -0.43,0.29 -5.06,0.28 -5.47,0.04 -0.38,-0.33 -0.18,-1.59 -0.14,-2.31z"/>
   <path class="fil5" d="M35.45 70.32c-0.16,0.61 -0.91,4 -1.06,4.18 -0.34,0.43 -1.49,0.47 -2.19,0.31 -1.06,-0.25 -0.58,-1.1 -0.34,-1.88 0.44,-1.45 0.41,-2.9 1.25,-3.98 0.96,-1.23 2.93,-0.82 2.34,1.38zm-3.3 -4.09c-0.49,0.27 -1.04,0.08 -2.15,0.56 -2.49,1.06 -2.97,2.08 -3.66,4.48 -0.43,1.49 -0.63,2.86 -1.11,4.27 -0.32,0.94 -1.02,3.61 -0.78,4.67 0.76,0.22 1.71,0.23 2.6,0.15 1.06,-0.09 1.92,0.18 2.73,0.11 0.59,-1.13 0.53,-0.86 0.8,-2.07 0.12,-0.52 0.13,-0.74 0.37,-0.91 0.68,-0.35 6.56,-0.23 7.83,-0.26 1.57,-0.03 1.45,-0.84 1.84,-2.3 0.27,-1.04 0.54,-2.15 0.81,-3.21 0.73,-2.93 1.2,-4.33 -1.82,-5.26 -3.08,-0.96 -4.56,-0.19 -7.45,-0.23z"/>
   <path class="fil5" d="M79.96 74.42c-3.46,0.18 -2.9,0.09 -2.33,-1.91 0.28,-0.99 0.61,-3.22 1.22,-3.88 0.33,-0.36 1.54,-0.72 2.14,-0.27 0.8,0.6 -0.99,5.99 -1.02,6.06zm-9.55 2.14l-0.06 1.61c1.11,0.2 4.59,-0.51 5.15,-0.09 0.58,0.44 -0.2,1.19 0.69,1.2 0.14,-0.69 0.25,-1.51 0.61,-2.08 1.37,-0.52 7.06,0.01 8.96,-0.25 0.33,-0.49 1.9,-7.83 1.86,-8.7 -0.13,-2.72 -5.62,-2.84 -7.65,-2.76 -3.06,0.12 -6.34,0.91 -7.48,2.87 -0.51,0.87 -2.11,7.04 -2.09,8.2z"/>
   <path class="fil6" d="M106.89 75.95l-0.16 0.31 -0.2 0.77c-0.43,1.85 -1.79,6.73 -1.65,8.03 0.08,0.7 0.71,1.33 1.19,1.62 0.87,0.53 4.3,0.37 5.1,0.19 0.82,-0.19 1.36,-0.61 2.03,-0.72 0.94,0.5 0.5,0.66 2.06,0.7 5.06,0.14 4.59,0.13 5.32,-2.55 0.81,-2.94 1.3,-5.57 1.96,-8.62 -1.07,-0.03 -1.95,-0.12 -3.1,-0.02 -0.79,0.07 -2.05,0.24 -2.93,0.11l0.01 -0.78c-0.62,0.86 -1.18,3.88 -1.5,5.16 -0.37,1.48 -0.61,4.38 -2.65,3.61 -0.74,-0.41 -0.34,-1.5 -0.17,-2.27 0.18,-0.79 0.35,-1.53 0.53,-2.38 0.33,-1.48 0.83,-3.3 1.01,-4.76 -1.19,1.71 -0.15,0.9 -3.14,1.53 -2.44,0.52 -2.48,-0.65 -3.2,0.09l-0.28 0.35c-0.3,-0.21 -0.11,0.15 -0.25,-0.36z"/>
   <path class="fil5" d="M88.45 77.25l0.01 0.4c0.98,-0.09 0.05,-0.26 2.68,-0.33 1.02,-0.03 2.06,-0.1 3.08,-0.03l-0.05 1.34 0.32 0.09c0.28,-1.11 1.97,-8.75 2.3,-9.38 0.27,-0.53 0.47,-0.67 1.16,-0.75 3.07,-0.33 0.32,3.68 0.26,6.54 0.08,1.01 -0.24,1.39 2.45,1.45 0.72,0.02 1.18,0.09 1.82,-0.17 1.06,-0.43 0.62,-0.05 1.66,-0.05 1.45,-7.47 4.69,-11 -2.52,-10.86 -2.69,0.05 -3.58,1.44 -4.21,1.46 -0.16,-0.78 0.03,-0.45 0.25,-1.07 -1.61,-0.27 -3.42,-0.38 -5.13,-0.22 -1.75,0.16 -1.52,0.89 -2.09,3.1 -0.36,1.41 -0.69,2.86 -0.93,4.29 -0.2,1.18 -1.04,3.17 -1.04,4.19z"/>
   <path class="fil6" d="M76.2 79.28c-0.89,-0.01 -0.11,-0.76 -0.69,-1.2 -0.56,-0.42 -4.04,0.28 -5.15,0.09l0.06 -1.61c-0.21,0.22 -0,-0.08 -0.17,0.28 -0.02,0.04 -0.07,0.17 -0.08,0.22 -0.64,1.87 -1.64,5.52 -1.37,7.23 0.24,1.53 0.76,2.03 2.14,2.52 2.27,0.8 9.48,0.9 11.98,-1.15 1.96,-1.61 2.52,-6.67 2.19,-6.97 -0.9,-0.33 -2.29,-0.22 -3.33,-0.21 -1.23,0.01 -2.38,-0.18 -2.83,0.72 -0.72,1.44 -0.79,4.09 -1.85,5.15 -0.62,0.12 -1.05,0.21 -1.53,-0.1l-0.12 -0.69c0.01,-1.06 0.56,-2.47 0.76,-4.28z"/>
   <path class="fil5" d="M126.14 72.44c-0.04,0.71 -0.23,1.98 0.14,2.31 0.4,0.24 5.04,0.26 5.47,-0.04 0.4,-0.31 0.34,-0.49 0.37,-1.06 0.03,-0.7 -0.01,-0.88 0.32,-1.21 0,-1.25 0.5,-5.11 2.92,-4.67 1.59,0.29 0.17,3.06 -0.38,5.79l-0.06 0.93c0.72,0.33 2.28,0.07 3.17,-0.07 0.94,-0.15 2.56,-0.17 3.22,-0.5 0.2,-3.33 4.6,-8.92 -5.79,-8.75 -3.61,0.06 -7.51,0.36 -8.61,4 -0.27,0.87 -0.73,2.35 -0.77,3.27z"/>
   <path class="fil5" d="M60.82 78.16l-0.03 0.37c1.17,0.04 2.35,0.11 3.48,0.1 1.32,-0.02 1.83,-0.49 2.95,-0.76 0.61,-1.73 1.16,-4.86 1.63,-6.83 0.58,-2.46 0.82,-1.98 1.95,-2.31 0.93,-0.28 1.45,-1.77 1.33,-2.83l-1.65 0c-0.29,-1.4 0.41,-2.56 0.27,-3.56 -1.45,-0.58 -4.33,-0.34 -5.92,-0.12 -0.41,1.04 -0.61,2.97 -1.4,3.55 -0.81,0.6 -1.24,0.07 -1.61,0.88 -0.24,0.53 -0.41,1.5 -0.27,2.18l1.12 0.07c0.53,1.7 -2.1,8.28 -1.85,9.27z"/>
   <path class="fil6" d="M30.33 79.43l-0.55 1.06c-0.81,0.06 -1.66,-0.2 -2.73,-0.11 -0.89,0.07 -1.84,0.07 -2.6,-0.15 -0.24,-1.06 0.47,-3.72 0.78,-4.67 0.48,-1.41 0.68,-2.79 1.11,-4.27 0.69,-2.41 1.17,-3.42 3.66,-4.48 1.11,-0.47 1.66,-0.29 2.15,-0.56 -1.27,0.04 -1.88,-0.18 -3.05,0.36 -2.99,1.38 -2.84,2.85 -3.81,6.78 -0.57,2.3 -2.69,9.69 -2.5,11.54 0.34,3.29 7.94,2.97 11.12,2.45 2.23,-0.36 3.39,-1.18 4.3,-2.73 0.49,-0.84 1.53,-4.45 1.41,-5.63 -1.21,-0.21 -5.48,-0.53 -6.34,0.16 -1.15,1.12 -0.28,6.74 -3.64,5.53 -0.33,-1.17 0.55,-3.9 0.7,-5.27z"/>
   <path class="fil2" d="M44.67 32.03c-0.97,0.91 -2.38,0.3 -2.03,-0.65 0.22,-0.59 2.04,-0.92 2.03,0.65zm-2.69 -5.97c-3.13,0.7 -5.67,2.52 -4.68,6.59 0.35,1.43 1.56,2.72 2.49,3.17 1.52,0.74 3.15,0.73 4.82,0.23 9.75,-2.89 3.52,-11.36 -2.63,-9.99z"/>
   <path class="fil2" d="M27.87 34.19c1.39,-1.05 2.12,-0.02 2.01,0.54 -0.12,0.6 -0.85,1.07 -2.03,0.23l0.02 -0.78zm-0.83 -4.98c-2.58,0.48 -5.36,2.92 -4.25,6.1 1.04,3 3.03,4.35 6.88,3.73 7.01,-1.13 5.98,-11.43 -2.63,-9.84z"/>
   <path class="fil2" d="M50.28 57.85c-0.36,-0.12 -0.68,-0.01 -1.04,0.09l-2.9 0.8c-4.44,1.02 -6.13,0.03 -5.51,1.67 0.75,1.98 4.19,1.11 5.61,0.79 3.59,-0.83 4.56,-2.45 5.35,-1.15 3.2,5.3 2.2,5.78 6.66,5 -0.12,-1.1 -3.78,-3.74 -4.08,-5.03 1.05,0.59 3.85,3.73 4.79,4.79 0.56,0.64 0.73,0.71 1.88,0.49 0.39,-0.07 1.66,-0.26 1.94,-0.4 0.78,-0.4 0.75,-2.7 1.33,-3.5l2.11 -0.02c-0.43,-1.43 -1.99,-2.1 -3.53,-2.19 -1.91,-0.11 -3.6,-0.22 -5.52,-0.22 -1.65,-0 -5.46,0.44 -6.76,0.15l-0.33 -1.28z"/>
   <path class="fil2" d="M126.35 64.49c3.37,-0.36 6.08,-2.51 6.98,-5.06 0.54,-1.54 0.89,-2.97 1.22,-4.74 0.22,-1.16 1.11,-3.9 0.96,-4.85 -1.22,-0.12 -4.9,-0.22 -6.02,-0.02 -0.81,0.15 -0.81,1.15 -1.02,2.03l-1.73 7.23c-0.15,0.76 0.22,1.57 0.05,2.73 -0.15,1.02 -0.38,1.62 -0.44,2.69z"/>
   <path class="fil6" d="M162.59 72.52l-0.59 1.65c-0.15,0.54 -0.27,1.1 -0.41,1.67l-1.63 6.91c-0.32,1.15 -0.69,2.46 -0.31,3.68 0.78,0.23 4.84,0.24 5.49,-0.14 0.99,-0.57 1.16,-3.12 1.49,-4.44 0.79,-3.13 1.72,-6.47 2.18,-9.72 -0.27,0.23 -0.05,-0.01 -0.27,0.32 -0.59,0.86 -0.52,0.86 -2.7,0.85 -3.14,-0.01 -3.44,0.52 -3.26,-0.79z"/>
   <path class="fil6" d="M150.3 74.09c-1.23,0.16 -5.23,0.39 -6.24,0.05l0.1 -0.87c-0.24,0.24 -0.04,-0.08 -0.22,0.36l-1.58 6.14c-0.32,1.39 -1.84,5.78 -1.22,6.85 0.62,0.35 4.38,0.12 5.41,0.05 1.55,-0.1 1.05,-0.85 1.74,-3.61 0.64,-2.58 1.76,-6.38 2.01,-8.97z"/>
   <path class="fil6" d="M159.16 74.77l-0.37 0.11c0.07,-1.11 0.39,-1.44 -2.18,-1.24 -1.12,0.09 -2.29,0.14 -3.33,0.32l0.09 -0.61c-0.02,0.03 -0.05,0.07 -0.06,0.09l-0.9 3.11c-0.44,1.8 -2.32,8.98 -1.99,9.86 0.88,0.31 3.99,0.23 5.04,0.08 0.99,-0.13 1.05,-0.41 1.3,-1.31 0.93,-3.29 1.44,-7.18 2.4,-10.43z"/>
   <path class="fil7" d="M69.92 23.63c0.06,0.45 -0.53,2.42 -0.68,3.08 -0.26,1.15 -0.56,1.93 -1.84,1.37l-0.06 -1.23c-0.73,-0.16 -2.08,-0.21 -2.43,0.48 -0.23,0.46 -0.6,2.05 -0.45,2.64 0.69,0.66 2.57,0.35 3.67,0.35 1.3,0 2.6,-0.23 2.99,-1.22 0.38,-0.99 1.53,-6.25 1.59,-7.03 -0.51,-0.14 -1.24,-0.28 -1.83,-0.38 -2.44,-0.4 -2.06,-0.06 -1.32,-2.72 0.3,-1.07 0.33,-1.3 1.73,-1.25 0.05,0.59 0.01,1.23 -0.12,1.77 -0.13,0.56 -0.51,1.26 0.02,1.51 0.3,0.14 1.51,0.06 1.82,-0.07 0.51,-0.22 0.57,-0.71 0.7,-1.35 0.83,-3.89 1.45,-3.93 -2.97,-3.94 -3.52,-0.01 -3.16,1.27 -3.95,4.21 -1.19,4.41 -0.95,3.49 3.12,3.8z"/>
   <path class="fil6" d="M104.14 76.37c-1.04,-0 -0.6,-0.38 -1.66,0.05 -0.65,0.26 -1.1,0.19 -1.82,0.17 -2.68,-0.06 -2.36,-0.44 -2.45,-1.45 -0.02,0.03 -0.04,0.07 -0.05,0.1l-0.75 2.71c-0.58,2.24 -1.8,6.74 -1.86,8.69 0.97,0.28 5.08,0.37 6.08,0.06 0.41,-0.54 2.16,-8.86 2.52,-10.33z"/>
   <path class="fil8" d="M51.72 78.46c-0.33,0.34 -0.1,-0.02 -0.27,0.54l-1.83 8.04c1.03,0.34 5.56,0.66 6.23,-0.04 0.53,-0.55 1.36,-4.39 1.61,-5.44 0.83,-3.51 2.19,-7.94 2.62,-11.5l-0.36 0.43c-0.84,1.32 -2.11,0.66 -2.42,1.7 -0.35,1.18 1.16,1.92 0.95,3.8 -0.45,3.97 -2.75,3.11 -6.49,2.97l-0.03 -0.49z"/>
   <path class="fil6" d="M60.82 78.16l-0.76 2.3c-0.69,2.53 -1.92,5.52 -0.17,6.36 0.87,0.42 6.74,0.75 7.44,-0.36 0.18,-0.29 0.43,-2 0.39,-2.39 -1.42,-0.63 -1.75,-0.62 -1.18,-2.68 0.33,-1.18 0.6,-2.23 0.69,-3.52 -1.12,0.27 -1.63,0.74 -2.95,0.76 -1.13,0.02 -2.32,-0.06 -3.48,-0.1l0.03 -0.37z"/>
   <path class="fil6" d="M94.49 78.73l-0.32 -0.09 0.05 -1.34c-1.02,-0.07 -2.06,0 -3.08,0.03 -2.62,0.07 -1.7,0.24 -2.68,0.33l-0.01 -0.4c-0.31,0.34 -1.2,4.32 -1.31,4.76 -0.23,0.91 -1.18,3.96 -1.04,4.79 0.83,0.33 5.69,0.35 6.43,-0.09 0.48,-0.83 1.74,-6.62 1.96,-7.98z"/>
   <path class="fil7" d="M76.59 21.34c0.41,-0.45 1.61,-0.66 1.44,0.44 -0.08,0.53 -0.41,1.5 -0.56,2.09 -0.17,0.69 -0.88,3.84 -1.23,4.14 -0.3,0.27 -1.63,0.69 -1.45,-0.47 0.09,-0.56 0.39,-1.45 0.56,-2.08 0.23,-0.86 0.8,-3.7 1.24,-4.12zm-4.7 8.59c1.13,0.62 3.14,0.51 4.66,0.48 1.84,-0.04 2.15,-0.98 2.52,-2.61 0.52,-2.31 1.93,-6.29 1.72,-8.55 -1.05,-0.18 -3.75,-0.34 -4.79,-0.2 -1.65,0.22 -1.87,1.18 -2.2,2.75 -0.38,1.77 -2.04,7.25 -1.9,8.13z"/>
   <path class="fil7" d="M91.46 21.13c1.59,-0.62 0.29,2.7 0.07,3.56 -0.57,2.18 -0.51,3.49 -1.64,3.59 -1.27,0.12 -0.95,-0.7 -0.7,-1.53 0.21,-0.71 0.36,-1.29 0.57,-2.05 0.77,-2.71 0.48,-3.09 1.69,-3.57zm-5.4 8.56c1.56,0.74 2.69,0.64 4.68,0.61 1.89,-0.03 2.04,-1.13 2.52,-2.78 0.4,-1.38 2.14,-7.19 1.91,-8.19 -1.21,-0.32 -3.46,-0.34 -4.85,-0.27 -1.66,0.08 -2.05,1.03 -2.39,2.58 -0.29,1.34 -1.87,7.3 -1.87,8.06z"/>
   <path class="fil7" d="M99.56 21.01c0.33,0.56 0.2,1.27 0.52,1.53 0.28,0.22 1.24,0.27 1.61,0.05 0.55,-0.35 1.03,-2.34 0.93,-3.25 -1,-0.34 -5.31,-0.53 -6.13,0.1 -0.66,0.51 -1.52,3.86 -1.55,4.98 0.94,0.66 2.67,0.42 3.85,0.65 0.01,1 -0.25,0.36 -0.39,1.43 -0.11,0.79 -0.28,2.21 -1.54,1.64 -0.47,-0.21 -0.27,-0.72 -0.37,-1.36l-2.03 0.01c-0.34,0.48 -1.56,2.7 -0.22,3.38 0.65,0.33 3.88,0.25 4.73,0.11 1.37,-0.24 1.54,-1.53 1.92,-2.99 0.21,-0.81 0.99,-3.34 0.75,-3.96 -0.99,-0.42 -2.53,-0.42 -3.73,-0.55 -0.08,-0.55 0.05,-1.04 0.14,-1.52 0.46,-0.15 0.94,-0.34 1.52,-0.24z"/>
   <path class="fil9" d="M42.18 61.93l-0.97 -0.05c-0.31,1.59 -0.13,2.64 0.11,4.21 0.47,0.66 1.2,1.41 1.42,2.18l0.3 0.98c1.04,-0.31 1.16,-1.29 1.47,-2.43 0.43,-1.62 0.53,-1.38 2.39,-1.4 1.27,-0.01 2.6,-0.06 3.87,-0.04 1.34,0.03 1.87,0.51 3.19,-0 -0.11,-1.54 -2.04,-4.42 -2.78,-5.23 -0.41,-0.2 -6.04,2.62 -8.99,1.78z"/>
   <path class="fil6" d="M48.74 79.1c-0.82,0.31 -5.04,0.4 -6.25,0.36 -0.16,-0.22 -0.15,0.03 -0.17,-0.55l-0.59 1.97c-1.56,5.52 -2.1,6.41 0.47,6.52 2.11,0.08 4.56,0.32 4.99,-1.37 0.6,-2.37 1.16,-4.45 1.54,-6.92z"/>
   <path class="fil1" d="M36.46 21.1c-4.64,0.69 -6.31,0.8 -10.66,3.19 -0.71,0.39 -1.61,0.97 -2,1.45 -0.41,0.49 -0.82,2.08 0.44,1.93 0.75,-0.08 3.66,-2.01 4.44,-2.43 5.87,-3.18 13.9,-1.52 15.15,-2.09 1.93,-0.88 -3.09,-2.69 -7.37,-2.05z"/>
   <path class="fil2" d="M40.01 65.84c0.54,-0.1 0.23,0.13 0.49,-0.2 -0.23,-1.52 -0.14,-2.51 -0.06,-4.01l-0.56 0.04c-1.34,0.37 -8.04,2.82 -8.64,3.63l6.28 -0.11c0.32,-0.6 0.27,-1.7 0.84,-2.04 0.26,0.52 -0.11,1.49 -0.02,2.21 0.44,0.31 1.1,0.36 1.68,0.47z"/>
   <path class="fil10" d="M40.54 51.17c0.34,0.81 0.62,0.54 1.43,0.8 0.74,0.23 0.68,0.73 1.2,1.14 0.74,0.58 1.12,0.13 1.67,-0.12 0.69,-0.32 1.66,0.04 1.74,-0.59 0.09,-0.75 -1.69,-1.67 -2.51,-1.95 -1.17,-0.41 -2.95,-0.26 -3.53,0.73z"/>
   <path class="fil11" d="M24.16 45.49c-1.28,0.69 -1.16,2.72 -0.54,4.01 0.56,1.17 1.48,2.19 3.06,2.39 -0.28,-1.02 -0.99,-1.91 -1.28,-3.24 -0.34,-1.59 -0.26,-2.13 -1.24,-3.16z"/>
   <path class="fil11" d="M40.92 56.19c0.68,0.22 1.46,0.03 2.09,0.27 0.65,0.24 0.65,1.02 1.4,0.9 0.58,-0.1 0.42,-0.86 1.01,-1.33 0.4,-0.32 1.17,-0.51 1.47,-0.74 0.49,-0.38 0.55,-1.35 -0.45,-1.15 -0.45,0.09 -1.19,0.41 -1.66,0.56 -1.39,0.45 -2.77,0.04 -3.99,0.58l0.13 0.92z"/>
   <path class="fil11" d="M54.79 38.19c1.94,1.51 2.49,3.71 2.86,4.13 1.3,-1.42 -0.39,-5.51 -3.51,-5.81 -0.16,0.98 0.15,1.29 0.65,1.68z"/>
   <path class="fil7" d="M77.64 18.76c0.48,-0.03 3.68,-1.66 3.07,-3.3 -1.23,-0.44 -4.17,1.18 -3.99,2.04 0.08,0.37 0.69,1.07 0.92,1.26z"/>
   <path class="fil12" d="M156.69 49.96c1.64,0.12 1.92,-0.34 3.65,0.4 1.04,0.44 0.83,1.91 0.77,2.96 0.19,-0.2 0.95,-2.64 0.83,-3.21 -0.01,-0.02 -0.04,-0.05 -0.04,-0.1 -0.04,-0.43 -3.66,-0.51 -4.61,-0.29l-0.59 0.24z"/>
   <path class="fil13" d="M33.99 69.24c-0.3,0.16 -0.68,0.34 -0.67,0.96 0.01,0.62 0.38,0.71 0.93,0.45 0.68,-0.33 0.94,-2.03 -0.26,-1.41z"/>
   <path class="fil13" d="M44.7 42.63l0.18 0.62c0.6,0.1 1.62,-0.34 1.4,-0.96 -0.27,-0.76 -1.34,-0.03 -1.58,0.34z"/>
   <path class="fil13" d="M39.46 44.97c0.09,0.48 0.1,0.34 0.37,0.7l0.88 0.02c0.3,-0.36 0.41,-0.49 0.4,-1.16 -0.56,-0.03 -1.22,0.13 -1.65,0.45z"/>
   <path class="fil11" d="M33.01 45.24l-1.94 -0.01c0.05,0.69 0.27,0.88 0.95,0.9 0.7,0.01 0.96,-0.23 0.99,-0.89z"/>
   <path class="fil11" d="M46.78 41.4c0.55,0.32 0.89,0.25 1.61,0.1l0.13 -0.86c-0.42,-0.11 -1.64,-0.01 -1.74,0.76z"/>
   <path class="fil13" d="M36.92 45.66c0.17,0.36 -0.18,0.2 0.45,0.45 0.22,0.09 0.48,0.09 0.73,0.1 0.29,-0.31 0.49,-0.37 0.51,-0.96 -0.67,-0.14 -1.35,-0.18 -1.69,0.41z"/>
   <path class="fil14" d="M35.92 45.8c-0.18,-0.14 0.13,-0.04 -0.38,-0.24 -0.52,-0.19 -1.18,-0.16 -1.68,0.01 -0,0.5 0.26,0.59 0.85,0.7 0.59,0.11 0.96,-0.08 1.22,-0.47z"/>
   <path class="fil11" d="M46.98 53.59c0.4,0.03 1.32,-0.53 1.57,-0.91 -0.72,-0.77 -1.78,-0.38 -1.57,0.91z"/>
   <path class="fil15" d="M42.29 54.68c0.49,0.03 1.16,-0.07 1.53,-0.34 -0.17,-0.62 -0.37,-0.69 -1.13,-0.61 -0.25,0.26 -0.45,0.38 -0.4,0.95z"/>
   <path class="fil11" d="M42.11 44.27c0.48,0.22 1.13,0.22 1.61,0.01l0.02 -0.78c-0.63,-0.08 -1.45,0.28 -1.63,0.77z"/>
   <path class="fil11" d="M44.75 54.02c0.33,0.1 0.67,0.14 1.02,0.01 0.47,-0.18 0.38,-0.27 0.29,-0.79 -0.51,-0.1 -0.98,-0.02 -1.39,0.14l0.07 0.64z"/>
   <path class="fil11" d="M49.19 52.44c0.33,-0.08 0.6,-0.18 0.86,-0.33 0.44,-0.26 0.48,-0.28 0.57,-0.66 -0.98,-0.38 -1.4,-0.02 -1.42,0.99z"/>
   <path class="fil11" d="M39.84 54.02c-0.02,0.99 0.81,0.94 1.3,0.46 -0.07,-0.8 -0.61,-0.76 -1.3,-0.46z"/>
   <path class="fil11" d="M38.65 54.34c-0.03,-0.71 -0.41,-0.82 -1.02,-0.41l0.02 0.41c0.44,0.32 0.56,0.33 1.01,0z"/>
  </g>
 </g>
</svg>
