<?xml version="1.0" encoding="UTF-8"?>
<!DOCTYPE svg PUBLIC "-//W3C//DTD SVG 1.1//EN" "http://www.w3.org/Graphics/SVG/1.1/DTD/svg11.dtd">
<!-- Creator: CorelDRAW -->
<svg xmlns="http://www.w3.org/2000/svg" xml:space="preserve" width="68.5662mm" height="24.3074mm" version="1.1" style="shape-rendering:geometricPrecision; text-rendering:geometricPrecision; image-rendering:optimizeQuality; fill-rule:evenodd; clip-rule:evenodd"
viewBox="0 0 177.64 62.98"
 xmlns:xlink="http://www.w3.org/1999/xlink"
 xmlns:xodm="http://www.corel.com/coreldraw/odm/2003">
 <defs>
  <style type="text/css">
   <![CDATA[
    .fil0 {fill:#030304}
    .fil13 {fill:#2A2A2C}
    .fil8 {fill:#2D4439}
    .fil11 {fill:#87B944}
    .fil9 {fill:#89BB45}
    .fil7 {fill:#8DC147}
    .fil1 {fill:#90C548}
    .fil4 {fill:#918D8A}
    .fil10 {fill:#E1DEDB}
    .fil12 {fill:#E8E5DC}
    .fil6 {fill:#F1EBE3}
    .fil5 {fill:#FCFAEE}
    .fil3 {fill:#FDFDFD}
    .fil2 {fill:#FEFEFE}
   ]]>
  </style>
 </defs>
 <g id="Camada_x0020_1">
  <metadata id="CorelCorpID_0Corel-Layer"/>
  <g id="_2051269646336">
   <path class="fil0" d="M146.46 62.07c1.56,0.35 3.08,1.2 4.93,0.8 1.66,-0.21 4.27,-2.58 5.39,-3.57 2.15,-1.91 1.52,-4.23 1.62,-7.32 -0.37,-0.36 -0.28,0.03 -0.43,-0.47 -0.24,-0.84 0.36,-1.25 1.14,-1.49 3.58,-1.08 3.32,-3.7 4.51,-6.2 1.6,-3.34 2.18,-2.6 3.76,-3.35 1.67,-0.79 2.59,-2.47 2.81,-4.26l0 0c0.07,-0.79 0.16,-1.29 0.43,-1.88 0.81,-0.5 1.79,-1.58 2.36,-2.53 0.89,-1.49 0.79,-1.99 0.4,-3.71l0.14 -1.07c0.14,-1.25 0.4,-0.39 0.99,-1.85 0.3,-0.75 0.69,-0.95 1.04,-1.72 1.09,-2.41 2.22,-6.28 2.07,-8.97 -0.12,-2.19 -1.02,-3.57 -0.89,-4.54l-0.28 -0.49c-0.79,-1.68 -2.87,-4.4 -4.17,-5.6 -1.42,-1.3 -2.99,-2.29 -4.86,-3.08l-1.81 -0.78 -13.14 0c-0.51,0.34 -1.65,0.7 -2.32,0.93 -1.08,0.37 -1.7,0.22 -2.88,0.22l-43.58 0.01c-16.63,-0.05 -33.1,-0.19 -49.68,-0.2 -8.28,-0.01 -16.56,-0.04 -24.84,-0.15 -4.12,-0.06 -8.19,-0.11 -12.3,-0.01 -2.02,0.05 -4.05,0.15 -6.1,0.14 -1.86,-0.01 -4.35,-0.17 -6.11,0.05 -1.67,0.21 -3.31,1.44 -3.6,2.75 -0.17,0.77 -0.08,2.1 0.3,2.67 0.37,0.55 0.4,0.35 0.41,1.29 0.02,2.18 0,19.18 -0.13,20.23 -0.1,0.8 -1.79,2.68 -0.07,4.73 1.77,2.11 4.36,1.58 7.71,1.54 1.1,-0.01 1.78,-0.26 2.84,-0.34l-0.2 5.72c-2.11,0.24 -3.37,0.23 -4.55,2.67l-4.78 9.48c-1.43,2.77 -4.74,7.45 -0.51,9.52 1.46,0.71 4.77,0.48 6.62,0.48 1.46,0 9.56,0.07 10.63,-0.05 1.11,-0.13 2.06,-0.32 3.19,-0.2 2.11,0.24 4.8,0.09 7,0.12l21.16 0.07c2.2,0.01 4.87,0.17 7,0.04 1.3,-0.08 1.55,-0.51 3.1,-0.17 1.63,0.35 5.07,0.17 6.92,0.19 1.54,0.02 5.58,0.37 6.74,-0.14 0.54,-0.24 0.86,-0.17 1.26,-0.58 0.34,-0.35 0.36,-0.69 0.74,-0.94 0.58,0.49 -0.01,0.42 1.04,0.87 0.44,0.19 0.81,0.39 1.29,0.55 2.64,0.9 8.4,0.83 9.75,-0.16l0.07 0.14c0.41,0.63 2.24,0.48 2.92,0.48l7.24 0.02c0.56,0 1.32,0.08 1.84,0.03 0.57,-0.06 0.95,-0.2 1.61,-0.19 0.62,0.01 1.11,0.14 1.72,0.19 0.65,0.05 1.21,-0 1.84,0 1.46,0.01 2.03,-0.12 3.33,-0.26 1.17,-0.13 2.27,0.21 3.45,0.25 1.31,0.05 2.3,-0.11 3.45,-0.11 4.79,0.03 9.57,0.1 14.38,0.1 4.23,0 6.4,0.28 10.49,-0.44 3.01,-0.53 1.86,-1.63 3.32,-0.6 0.75,0.53 0.86,0.74 2.28,1.12z"/>
   <path class="fil1" d="M152.83 36.84c-1.38,-0.06 -1.77,-0 -1.72,-1.4 0.81,-0.65 0.97,-0.94 1.69,-0.83 0.4,0.89 0.25,1.27 0.03,2.23zm4.1 -4.92c0.24,-0.18 0.35,-0.72 0.34,-1.13 -0.01,-0.48 -0.04,-0.21 -0.11,-0.35 -0.06,0.07 -0.08,0.07 -0.15,0.22 -0.11,0.23 -0.25,0.91 -0.08,1.25zm-3.29 3.97l0.01 -0.23c-0.1,-0.14 -0.05,-0.01 -0.13,-0.24 -0.13,-0.35 -0.14,-0.6 -0.03,-0.89 0.5,-0.11 2.89,-0.07 2.2,2.19 -0.55,0.25 -1.31,0.34 -2.04,0.09l0 -0.92zm4.31 -5.41c-0.55,1.44 -0.82,2.17 0.73,2.61 0.77,0.22 0.12,0.03 0.58,0.34 0.49,0.34 0.89,0.08 0.99,0.73 -1.09,0.32 -2.13,-0.22 -3.1,-0.44 -0.85,-0.19 -2.08,-0.09 -1.27,-2.23 0.78,-2.06 1.94,-3.09 3.56,-4.14 2.13,-1.37 3.12,-1.68 6.24,-1.49 1.01,0.06 2.01,0.83 2.46,1.35 0.52,0.59 1.09,2.41 0.06,2.72 -0.29,-0.59 0.1,-0.66 -0.46,-1.01 -0.34,0.54 1.2,2.44 -3.97,3.36 -0.91,0.16 -2.78,0.18 -3.6,-0.08 -2.35,-0.73 -1.29,-1.33 -2.23,-1.72zm-5.75 2.39c-1.19,0.07 -4.28,0.52 -4.58,-0.66 0.79,-0.25 2.19,0.04 2.89,-0.22 0.62,-0.23 0.93,-1.4 0.87,-2.18 -0.7,-0.14 -1.25,0.44 -1.63,0.73 -0.68,0.53 -1.13,0.47 -2.13,0.44 -2.87,-0.07 -4.26,-2.14 -5.03,-2.47 -0.82,-0.35 -0.9,-0.57 -0.9,-1.59 -0.01,-1.17 -0.19,-1.38 0.55,-1.94 0.48,-0.36 0.87,-0.76 1.4,-1.13 3.65,-2.48 11.66,3.96 8.56,9.02zm-2.86 -13.67c2.06,0.62 3.38,3.16 4,5.1 0.15,0.49 0.26,0.83 -0.02,1.14 -1.1,-2.26 -1.4,-3.39 -3.44,-4.82 -0.86,-0.6 -0.96,-0.74 -2.27,-0.52 -1.77,-0.08 -2.69,1.42 -3.45,2.22 -1.02,1.06 -1.97,1.94 -2.88,2.99 -1.16,1.35 0.12,3.03 0.54,4.44 1.24,4.11 -3.4,3.14 0.65,5.66 2.02,1.25 3.14,0.29 4.11,1.87 0.29,0.47 0.96,1.6 0.68,2.19 -0.31,-0.49 0.01,-0.73 -0.68,-1.17 -1.19,-0.76 -1.41,-2.23 -2.05,-1.32 -0.25,0.35 -0.03,1.34 0.04,1.76 0.51,3.05 -0.71,5.97 0.62,6.56l0.92 0.14c0.4,-0.58 0.04,-0.23 0.7,-0.53 0.56,-2.36 -0.14,-1.89 1.27,-3.58 0.96,-1.16 1.49,-1.3 3.55,-1.24 2.14,0.06 3.49,0.18 5.02,2.19 0.4,0.53 0.82,0.89 0.76,1.79l-0.45 0.14c0.04,0.38 -0.16,0.84 -0.27,1.24 -0.12,0.45 -0.28,0.73 -0.19,1.12 0.1,0.48 1.83,0.47 2.26,-0.78 0.49,-1.42 1.27,-3.43 1.99,-4.68 0.35,-0.6 1.27,-1.71 1.3,-2.06 -1.84,-1.41 -3.68,1.42 -4.23,1.62 0.04,-0.97 0.51,-1.35 1.07,-1.88 1.35,-1.28 3.19,-0.5 4.81,-0.92 4.45,-1.15 0.57,-2.66 3.01,-5.3 0.89,-0.97 2.64,-2.24 2.88,-2.99 0.38,-1.19 -1.27,-2.9 -1.66,-3.88 -0.31,-0.78 -0.03,-1.56 -0.57,-2.31 -0.26,-0.36 -1.14,-1.11 -1.7,-1.3 -1.92,-0.65 -3.28,0.32 -4.45,1.06 -2.48,1.57 -2.57,2.41 -3.15,2.75 0.27,-1.46 3.62,-4.7 6.22,-4.89 1.23,-0.09 2.36,0.33 3.42,0.25 0.11,-1.97 0.06,-2.14 0.93,-3.68 0.47,-0.83 1.59,-2.21 2.47,-2.33 -0.42,1.17 -0.71,0.23 -1.55,1.88 -0.35,0.68 -0.93,1.6 -1.02,2.43 -0.16,1.47 -0.13,5.13 0.91,5.77 1.2,-0.27 3.04,-4.99 3.59,-6.55 0.53,-1.5 0.64,-2.77 0.6,-4.51 -0.11,-4.08 -2.45,-7.36 -5.66,-9.57 -4.49,-3.09 -11.13,-3.55 -16.23,-1.47 -4.97,2.02 -8.27,4.74 -9.98,10.26 -0.62,2.02 -0.14,7.45 -0.02,9.71 0.44,-0.28 1.45,-1.46 1.88,-1.99 0.61,-0.75 1.04,-1.32 1.55,-2.37 0.79,-1.61 1.13,-2.95 0.79,-5.01 -0.15,-0.9 -0.21,-0.82 -0.58,-1.43 2.24,0.51 1.13,6.52 1.13,6.52 0.81,0.29 1.78,-0.27 2.82,0.26z"/>
   <path class="fil1" d="M11.56 18.49c0.39,0.43 1.08,3.42 1.25,4.09 0.45,1.8 -0.24,-0.13 0.61,2.04 0.34,0.87 0.58,4.96 1.49,6.11l5.07 -0.03c0.45,-0.39 0.62,-1.82 0.77,-2.44l3.43 -12.45c0.33,-1.34 0.81,-2.41 1.12,-3.59 0.11,-0.4 0.05,-1.03 0.19,-1.37 0.82,0.61 0.28,7.82 0.24,8.61l0.04 6.89c0.03,0.83 -0.25,1.61 -0.18,2.3 1.57,-0.65 1.47,-1.91 5.19,-2.43 0.68,-0.09 1.77,-0.12 2.37,-0.27 0.54,-1.73 0.24,-16.32 0.49,-18.82 0.09,-0.96 0.51,-1.47 0.47,-2.38 -0.57,-0.02 -1.68,0.11 -2.41,0.12l-5.17 0.07c-2.51,0.03 -2.22,-1.12 -3.38,2.41l-1.67 5.47c-0.24,1.07 -0.15,1.46 -0.86,2.72 -0.07,0.96 -0.16,1.14 -0.49,1.9 -0.3,0.69 -0.26,1.25 -0.47,1.79 -0.64,-0.24 -0.38,-1.02 -0.79,-2.48l-1.08 -2.8 -0.66 -4.04 -1.3 -4.96c-0.47,-0.3 -7.85,-0.16 -9.37,-0.02 -0.78,0.07 -0.49,-0.17 -1.07,-0.15 -0.14,1.26 0.67,0.21 0.64,2.61l-0.16 19.9c0,0.49 0.17,1.19 -0.08,1.59 -0.31,0.51 -0.64,0.26 -0.25,1.05 -0.32,0.35 -0.42,0.27 -0.57,0.86 1.23,-0.02 4.04,0.16 5.06,-0.07 -0.06,-0.58 -0.49,-1.29 -0.67,-1.91 -0.28,-0.95 -0.07,-6.67 -0.05,-7.85 0.02,-1.19 -0.32,-10.05 -0.15,-10.34 0.68,0.78 2.11,6.44 2.4,7.89zm74.46 -9.75c-0,0.89 -0.22,16.57 0.05,17.38l4.17 0.04c3.2,-0.06 2.19,1.07 3.08,1.28 0.48,-0.53 0.26,-1.93 0.27,-2.83l0.06 -14.95c0,-0.83 0.37,-4.31 0.33,-4.54 -10.05,-0.05 -8.25,-0.5 -8.06,1.54 0.06,0.63 0.11,1.42 0.1,2.08zm-22.98 7.97c0.73,0.73 1.83,6.83 2.28,8.2l1.68 5.9c0.87,0.05 1.72,0.04 2.54,0.09 1.21,0.08 0.83,0.4 1.71,-0.54 3.68,-3.96 5.18,-2.52 5.81,-3.62 0.09,-0.15 0.38,-0.69 0.43,-0.92 0.6,-2.71 4.95,-17.46 5.67,-18.87 0.4,-0.8 1.19,-1.39 0.7,-1.76 -0.42,-0.27 -4.35,-0.29 -4.93,-0.06 -0.15,0.92 -0.12,0.69 0.17,1.3 0.22,0.47 -0.03,0.76 -0.13,1.26 -0.39,1.97 -3.62,12.51 -4.55,15.14 -0.55,1.58 -0.53,0.91 -0.82,1.59 -0.24,0.57 0.05,0.4 -0.42,0.56 -0.16,-1.36 -0.35,-3.07 -0.98,-4.38 -0.55,-0.84 -1.22,-4.44 -1.56,-5.72 -0.31,-1.16 -1.43,-2.61 -1.4,-5.51 -0.02,-0.56 -0.36,-1.48 -0.52,-2.12 -0.34,-1.32 0.32,-1.46 0.19,-2.26l-9.24 -0.07c-0.08,0.87 0.55,0.93 0.96,2.74 0.44,1.98 2.44,8.24 2.41,9.06zm75.2 14.05l-1.71 -0.1c0.12,-0.21 1.41,-1.01 1.71,0.1zm-9.29 -17.54c-0.02,-3.68 -0.21,-4.12 1.99,-4.11 1.83,0.01 4.31,-0.3 4.64,1.4 0.12,0.63 0.03,10.9 -0.06,11.99 -0.33,4.25 0.22,4.1 -1.82,4.27 -0.96,0.08 -2.02,0.12 -2.94,0.01 -1.18,-0.14 -1.76,-0.06 -1.84,-1.36 -0.11,-1.87 0.02,-4.18 0.04,-6.1 0.01,-2.02 -0,-4.08 -0.01,-6.1zm-6.94 -5.46c-0.46,1.8 -0.2,7.88 -0.2,10.18 0,3.08 -0.23,7.14 0.15,10.05 0.45,1.29 1.43,2.31 2.87,2.75 1.36,0.41 3.73,0.25 5.3,0.26l8.43 0.01c1.36,-0.13 0.92,-0.19 2.24,-0.64 -0.2,-2.57 -1.2,-0.79 -1.22,-3.45 -0.01,-2.16 1.33,-2.41 1.42,-3.44l-0.05 -9.59c-0.95,0.46 -0.26,7.89 -0.7,8.47 -0.31,-0.79 -0.23,-4.15 -0.2,-5.21 0.06,-1.99 0.8,-4.75 1.72,-6.41 1.17,-2.09 1.45,-1.8 0.19,-3.7 -1.46,-2.21 -3.65,-1.95 -6.2,-1.94 -1.84,0.01 -3.68,0.01 -5.52,0.02 -4.81,0.01 -6.08,-0.67 -8.24,2.66zm-75.66 18.4c-2.93,0.18 -2.38,-0.35 -2.24,-3.97 0.07,-1.71 -0.21,-11.89 0.26,-12.64 0.63,-1 4.5,-0.39 5.68,-0.24 1.15,0.27 0.85,3.48 0.8,4.79 -0.09,2.56 0.14,9.09 -0.24,11 -0.26,1.27 -0.21,1.14 -1.54,1.17 -0.72,0.01 -2.21,0.23 -2.72,-0.12zm-9.54 -17.42c-0.11,2.77 -0.43,5.3 -0.19,8.22 0.11,1.34 -0.02,2.73 -0.05,4.08 -0.04,1.53 0.16,2.71 0.14,4.21 2.46,-0.29 7.81,0.38 9.09,2.41 1.38,2.19 0.73,0 0.93,2.99 1.06,0.36 2.89,0.1 4.19,0.15 2.52,0.09 4.9,0.22 6.3,-2.42 0.35,-0.65 0.95,-2.61 0.87,-3.46 0.19,-1.13 0.03,-10.46 -0.01,-12.28 -0.03,-1.35 -0.28,-2.63 -0.28,-4.08 -0.5,-1.79 -1.57,-3.29 -3.47,-3.58 -1.55,-0.24 -12.73,-0.3 -14.12,-0.06 -1.56,0.27 -3.23,2.2 -3.39,3.81zm68.44 0.92c0.15,-0.26 -0.27,-0.22 1.09,-0.34 1.06,-0.1 3.29,-0.11 4.16,0.21 0.41,1.64 0.19,11.79 0.15,14.75 -0.04,2.84 -0.01,2.29 -2.58,2.4 -3.4,0.15 -2.86,0.38 -2.86,-2.06l0.04 -14.95zm-8.38 21.03c0.21,0.38 0.32,0.26 0.84,0.24 4.19,-0.13 13.02,0.45 16.14,0 2.41,-0.34 3.26,-1.35 4.15,-3.29 0.15,-0.33 0.35,-0.5 0.43,-0.71 0.31,-0.77 0.16,-10.51 0.24,-12.79 0.04,-1.2 0.16,-3.03 0.02,-4.23 -0.22,-1.84 -1.75,-4.89 -3.87,-4.71 -1.07,0.09 -3.01,-0.03 -4.22,-0.03 -2.51,0 -11.76,0.12 -12.97,-0.17 -0.25,0.53 0.02,2.08 0.02,2.91 -0.01,6.9 0.19,16.05 -0.09,22.43 -0.28,0.09 0.09,0 -0.41,-0.11l-0.27 0.45z"/>
   <path class="fil1" d="M117.52 57.72c0.02,0.34 -0.13,0.17 0.2,0.27 4.39,0 8.97,-0.06 13.34,0.05 1.1,0.03 2.17,-0.07 3.34,-0.06l5.05 -0.15c0.06,-0.01 2.61,-0.86 3.06,-1.2 0.3,-0.24 0.24,-0.24 0.59,-0.41 0.17,-0.43 0.54,-1.15 0.8,-1.78 0.76,-1.88 1.07,-2.82 1.59,-4.74 0.14,-0.54 0.37,-0.74 0.34,-0.95 -0.09,-0.65 -2.75,-3.85 -3.05,-5.46 -0.21,-1.12 0.3,-1.51 0.16,-2.48 -0.9,-0.06 -1.69,0.07 -2.54,0.05 -1.03,-0.03 -1.57,-0.33 -2.04,0.46 -0.56,0.95 -0.59,3.45 -0.09,4.38 0.96,1.78 3.44,5.4 2.26,7.1 -0.22,0.57 -0.48,0.59 -1.03,0.91 -0.46,0.27 -0.83,0.44 -1.42,0.52 -1.21,0.16 -2.58,-0.16 -3.9,-0.1 -1.09,1.11 -0.38,2.07 -0.92,2.46 -0.35,-0.11 -0.16,0.06 -0.29,-0.32l-0.14 -3.27c-0.1,-1.76 0.05,-11.76 -0.14,-11.96 -0.46,-0.21 -4.23,-0.29 -4.95,-0.22 -0.09,0.44 0.13,8.27 0.34,9.98 0.07,0.58 0.38,2.76 0.31,3.09 -0.64,0.15 -0.22,-0.04 -0.55,-0.03 -0.34,0.02 -0.1,0 -0.38,0.11 -0.95,0.36 -2.21,-0.1 -3.2,0.18 0.02,-0.63 1.26,-2.53 1.64,-3.21 0.31,-0.56 0.53,-1.03 0.87,-1.55 0.57,-0.87 0.65,-0.25 0.75,-1.7 -0.68,-0.17 -1.05,-0.15 -1.85,-0.15 -0.72,-0 -1.21,-0.27 -1.95,-0.19 -0.27,0.13 -6,10 -6.18,10.36z"/>
   <path class="fil1" d="M19.22 58.01c0.4,-0.72 0.5,-4.81 0.56,-6.03 0.16,-3.45 0.59,-5.51 0.65,-9.2 0.03,-1.74 0.79,-7.62 0.78,-8.83 -0.71,-0.13 -1.76,-0.15 -2.51,-0.15 -0.87,-0 -2.06,-0.15 -2.38,0.31 -0.28,0.39 -0.37,11.65 -0.56,13.56 -0.15,1.48 -0.03,3.16 -0.17,4.51l-3.98 -0.1c0.01,-0.55 1.74,-3.67 2.08,-4.41 0.37,-0.82 0.57,-1.48 1.01,-2.22 0.36,-0.59 0.88,-1.53 0.81,-2.43 -0.45,-0.06 -2.94,-0.07 -3.33,0.01 -0.72,0.15 -1.08,1.1 -1.44,1.79 -0.76,1.45 -1.47,2.89 -2.2,4.36 -0.72,1.46 -1.41,2.94 -2.15,4.41 -0.39,0.79 -2.11,3.68 -2.06,4.37 2.58,0.05 5.02,0.05 7.6,-0.02 2,-0.05 5.58,0.38 7.3,0.09z"/>
   <path class="fil1" d="M62.78 54.7l-0.7 2.56 0 0.42 4.25 0.15c0.25,-0.23 1.83,-6.05 1.95,-6.51 0.3,-1.1 0.58,-2.23 0.95,-3.31 0.27,-0.79 0.79,-2.74 1.16,-2.92 0.06,-0.56 0.05,-1.24 -0.04,-1.71 -0.29,-0.07 -0.2,0 -0.37,-0.15l-0.1 0.6 -1.1 -0.96c-0.17,-0.03 -0.16,-0.01 -0.3,-0.11 -0.21,-0.14 -0.13,-0.09 -0.26,-0.28 -0.07,-0.05 -0.04,0.02 -0.15,-0.14l-0.17 -0.5c-0.05,-0.35 -0.02,-0.6 0.04,-0.93 -0.37,-0.15 -0.73,-0.15 -1.21,-0.17 -1.4,-0.03 -7.6,-0.23 -8.49,0.04 -0.2,0.15 -3.08,11.03 -3.7,12.89 -0.23,0.7 -0.46,1.37 -0.67,2.08l-0.39 2.03c0,-0.02 0.01,0.06 0.03,0.09 0.83,0.38 3.04,0.36 4.06,0.2 0.4,-0.21 0.99,-2.63 1.17,-3.3 0.33,-1.24 0.7,-2.21 1,-3.37 0.47,-1.78 1.2,-5.64 2.19,-6.64 1.07,-0.09 2.7,-0.01 3.3,0.54 0.3,0.59 -2.33,8.53 -2.47,9.39z"/>
   <path class="fil1" d="M103.37 58.06c0.97,0.11 2.18,0.02 3.19,0.04 1.55,0.03 1.29,-0.15 1.72,-1.53 0.26,-0.84 0.52,-1.57 0.74,-2.47l2.08 -7.47c0.34,-1.2 0.2,-1.63 1.55,-1.65 0.51,-0.01 2.5,0.18 2.66,0.22 0.18,0.46 -0.1,1.79 -0.24,2.09 -0.18,0.4 -0.05,0.08 -0.18,0.09l-3.11 10.77c1.38,0.04 2.84,-0.22 3.63,-0.23 0.45,-0.01 0.76,0.06 1.22,-0.01l3.04 -10.63c0.31,-1.09 0.38,-1.83 0.47,-3.01 0.12,-1.58 0.03,-1.77 -0.83,-2.52 -1.32,-1.16 -3.9,-0.82 -5.97,-0.8 -0.58,0.01 -1.15,0.03 -1.73,0.03 -0.82,0.01 -0.71,0.01 -1.02,0.65 -0.92,1.83 -3.21,1.78 -3.56,3.23 -0.56,2.31 -3.64,12.63 -3.65,13.2z"/>
   <path class="fil1" d="M91.61 44.92c0.42,-0.25 0.1,0.16 0.29,-0.49l0.85 -3.5c-1.62,-0.09 -5.77,-0.14 -7.13,0.21 -3.42,0.89 -6.53,3.7 -7.9,6.84 -2.69,6.19 0.22,12.25 9.01,9.93 1.63,-0.43 1.3,-0.27 1.8,-1.89 0.27,-0.89 0.63,-1.93 0.83,-2.84 0.12,-0.53 0.13,-1.06 0.29,-1.56 0.14,-0.44 0.37,-0.85 0.54,-1.3 0.36,-0.93 0.67,-1.87 0.62,-2.98 -0.99,0.13 -1.27,-0.15 -2.28,0.06 -0.76,0.16 -1.61,-0.03 -2.39,0.15 -0.4,0.43 -1.64,3.46 -1.3,4.05 0.3,0.3 3.11,-0.01 3.88,0.1l0.2 0.05c0.02,0.01 0.08,0.06 0.09,0.04 0.02,-0.03 0.06,0.02 0.09,0.04 0.7,0.78 -2.21,2.99 -4.72,2.53 -4.43,-0.81 -3.08,-6.7 0.58,-8.78 1.66,-0.94 4.5,-0.68 6.62,-0.67z"/>
   <path class="fil1" d="M46.41 51.69c0.13,-0.17 0.01,-0.07 0.19,-0.2 0.78,-0.54 4.63,0.03 6.28,-0.09 0.59,-0.89 1.25,-2.89 1.2,-4.2l-5.36 0.04c-1.25,0.03 -4.63,-0.43 -5.53,0.01 -0.43,0.25 -0.78,2.07 -0.93,2.66 -0.22,0.92 -0.39,1.83 -0.72,2.72 -0.26,0.69 -1.58,4.84 -1.5,5.3l11.09 -0.02c0.31,-0.4 1.18,-3.51 1.06,-3.87 -1.05,-0.58 -5.03,-0.09 -6.45,-0.09 0.18,-0.82 0.17,-1.84 0.67,-2.25z"/>
   <path class="fil1" d="M104.04 48.33l-0.01 -0.63c-0.87,-0.05 -1.75,-0.03 -2.65,-0.09 -0.43,-0.03 -0.83,-0.05 -1.26,-0.07 -0.39,-0.02 -0.95,0.01 -1.29,-0.19 -1.22,0.29 -4.23,-0.1 -5.75,0.03 -0.26,0.55 -3.09,10.31 -3.09,10.68 2.75,0.2 5.41,0.08 8.17,0.09 1.97,0.01 2.98,0.45 3.29,-0.8 0.16,-0.64 0.76,-2.73 0.68,-3.24l-6.26 -0.06c0.08,-2.3 -0.22,-2.83 5.8,-2.24 1.3,0.13 1.34,-0.08 1.64,-1.23 0.21,-0.79 0.58,-1.55 0.72,-2.25z"/>
   <path class="fil1" d="M28.19 53.76c-0.18,-0.66 1.98,-7.13 2.31,-8.38 0.2,-0.75 0.35,-1.47 0.57,-2.18 0.51,-1.62 1.34,-2.41 0.06,-2.57 -0.42,-0.05 -0.85,-0.08 -1.27,-0.06 -0.92,0.03 -1.81,-0.04 -2.7,0 -0.27,0.67 -0.33,1.43 -0.56,2.18l-1.9 6.4c-0.42,1.44 -0.77,2.9 -1.19,4.33 -0.32,1.09 -1.19,3.19 -1.18,4.33 1.67,0.04 9.44,0.22 10.26,0.02 0.16,-0.61 0.95,-3.59 0.9,-3.99 -1.77,0.02 -3.56,0.12 -5.32,-0.08z"/>
   <path class="fil2" d="M22.72 40.48c0.09,-0.18 -0.2,-0.11 0.16,-0.21 0.46,-0.13 0.25,0.05 0.32,0.1 -0.13,0.15 0.14,0.08 -0.18,0.17 -0.36,0.1 -0.22,-0.01 -0.3,-0.05zm15.5 -6.74c-0.4,0.37 -1.18,0.26 -1.69,0.43 -0.72,0.25 -0.68,0.4 -1.71,0.49 -0.91,0.08 -3.21,0.39 -4.03,0.07 -0.15,-0.98 1.24,-1.31 2.46,-2.48 0.72,-0.69 1.96,-1.79 2.94,-2.22 0.06,-0.1 0.96,-1 1.12,-1.08 0.8,-0.41 5.56,-0 6.18,0.9 0.53,0.76 -0.22,1.04 -0.58,1.37 -0.46,0.43 -0.67,0.75 -1.29,1.13 -0.65,0.4 -2.77,1.37 -3.4,1.39zm-9.98 -3.67l0.33 -0.32c0.35,-0.22 1.04,-0.33 1.44,-0.37 1.16,-0.19 3.42,-0.15 4.45,-0.55l0.23 -0.31c0.43,0 1.19,-0.16 1.12,1.01l-0.6 0.25c-0.54,-0.04 -1.68,1.13 -2.14,1.49 -0.69,0.54 -1.68,0.95 -2.25,1.44l-0.02 0.66c-1.38,0.66 -3.98,0.17 -4.55,1.34 -0.13,0.27 -0.11,0.4 -0.25,0.66 -0.27,0.5 -0.35,0.1 -0.3,0.81l0.25 0.24c-0.79,0.74 -1.43,1.3 -2.14,1.93 -0.56,0.5 -1.62,1.31 -1.57,2.47 2.83,0.01 4.15,-3.85 5.78,-4.09 1.48,-0.22 3.44,0.2 4.89,-0.1 4,-0.84 7.53,-1.08 10.78,-4.16 2.5,-2.37 1.55,-5.88 -1.75,-5.53 -0.75,0.01 -1.71,-0.1 -2.55,-0.1 -0.84,0.01 -1.69,0.01 -2.53,0.02 -1.41,0.01 -3.69,0.18 -4.96,0.08 -0.65,-0.03 -2.89,0.25 -3.26,0.58 -0.38,0.34 0.07,0.3 -0.67,0.72 -1.77,1.02 -1.53,0.53 -2.31,1.73 -0.22,0.34 -0.46,0.37 -0.49,0.81 1.13,0.21 2.18,-0.65 3.05,-0.71z"/>
   <path class="fil2" d="M89.23 37.72c0.08,-1.48 2.43,-2.64 3.68,-3.2 0.58,-0.26 1.36,-0.51 1.86,-0.14 -0.14,0.46 0.05,0.13 -0.31,0.43 -0.91,0.76 -1.25,1.62 -1.76,2.38 -0.67,1 -2.37,1.24 -3.48,0.52zm7.79 -4.49c-1.08,-0.29 -0.75,-0.48 -2.02,-0.18 -0.68,0.16 -1.58,0.21 -2.25,0.1 -1.62,0.01 -7.46,3.74 -4.38,5.73 0.95,0.62 2.2,0.27 3.25,-0 1.47,-0.38 0.81,-0.75 3.1,-0.93 3.89,-0.31 4.57,-3.25 8.33,-3.53 -0.25,0.55 -0.28,0.14 -0.48,0.67 -0.18,0.48 0.09,0.27 -0.31,0.61 -0.56,0.48 -2.73,1.76 -2.52,3.2 1.48,0.42 2.7,0.3 3.92,-0.31 0.64,-0.32 1,-0.5 1.57,-0.72 0.31,-0.11 0.53,-0.12 0.72,-0.45 0.25,-0.43 -0.03,-0.42 0.39,-0.6 0.26,0.63 -0.17,1.49 0.7,2.15 0.77,0.58 1.72,0.37 1.91,0.92 -0.71,0.41 -1.71,-0.24 -1.88,0.57 0.42,0.41 1.92,-0.15 2.33,-0.38 1.99,-1.08 1.62,-0.96 3.94,-1.93 0.73,-0.31 1.62,-0.35 1.94,-0.9l0.04 -0.42 -0.39 0.07c-1.49,0.47 -5.37,2.02 -6.64,0.68 -0.08,-0.85 0.15,-1.06 0.7,-1.38 3.74,-2.13 3.93,-0.86 4.36,-0.86 0.72,-0.27 2.54,-1.52 2.92,-2.03l-0.28 -1.15c-1.5,-0.23 -5.91,1.74 -6.99,2.44 -1.01,0.65 -3.33,2.45 -4.49,2.67 -0.51,0.1 -1.47,0.43 -1.8,0.4 -0.14,-1.72 0.76,-1.78 1.83,-2.47 0.68,-0.44 2.16,-1.16 2.36,-1.87 -0.77,-0.87 -3.08,-0.15 -4.08,-0.41 -0.49,-0.13 -0.3,-0.19 -0.32,-0.28l-0.06 -0.49c-1.26,0.02 -1.38,0.32 -2.15,0.87 -0.71,0.5 -1.12,0.68 -1.5,1.48 -0.57,1.21 0.01,1.1 -1.14,1.86 -0.58,0.39 -1.02,1.2 -1.99,0.83 -0.31,-0.28 0.07,-0.8 0.29,-1.03 0.65,-0.7 1.4,-1.83 1.09,-2.94z"/>
   <path class="fil2" d="M79.16 27.86c-1.72,0.05 -3.36,0.5 -4.74,1.19 -0.96,0.48 -2.79,1.99 -2.75,3.21l4.02 -0.56c0.7,-0.14 0.79,-0.31 0.92,-0.53 -0.16,-0.1 -0.05,-0.07 -0.31,-0.12 -0.34,-0.06 0.12,-0.03 -0.21,-0.01 -0.12,0.01 -0.27,0.07 -0.38,0.1 -0.23,0.07 -0.53,0.18 -0.77,0.03 0.36,-0.24 0.89,-0.44 1.3,-0.63 0.91,-0.41 0.64,-0.27 1.67,-0.28 0.86,-0.01 2.25,-0.32 3.35,-0.37 0.04,-0.02 0.08,-0.04 0.11,-0.05 0.03,-0.01 0.07,-0.03 0.11,-0.05l0.44 -0.16c0.63,-0.29 1.19,-0.28 2.06,-0.31 1.13,0.05 3.51,-0.34 4.61,0 0.24,1.26 -1.4,2.07 -2.18,2.64 -0.87,0.64 -1.77,1.46 -2.7,2.05l-0.87 0.83c-0.47,0.31 -0.73,0.2 -1.34,0.11 -0.97,-0.16 -1.99,-0.04 -2.96,-0.07 -0.63,-0.03 -3.32,0.21 -3.72,0.49 -0.01,1.2 1.68,1.01 3.09,0.9 0.6,-0.05 0.84,-0.08 1.11,0.14l0.25 0.05c-0.07,0.16 0.15,0.15 -0.11,0.13 -0.02,0.03 -0.06,0.05 -0.08,0.07l-0.28 0.37c-0.08,0.2 0.2,0.31 -0.36,0.43 -0.37,0.16 -0.73,0.43 -1.31,0.64 -0.33,0.12 -0.47,0.16 -0.74,0.29 -0.35,0.17 -0.36,0.25 -0.69,0.31 -0.15,0.22 -0.11,0.26 -0.47,0.39 -0.17,0.06 -0.5,0.09 -0.7,0.12 -0.51,0.09 -0.82,0.22 -1.28,0.29 -0.32,0.19 -1.49,0.48 -1.99,0.79 -0.38,0.23 -0.43,0.39 -0.81,0.55 -0.31,0.13 -0.75,0.31 -0.94,0.39l-0.12 0.44c0.01,0.01 0.17,0.14 0.17,0.15 0.21,0.2 0.06,0.05 0.2,0.2 0.41,0.01 0.42,0.15 0.99,0.15 0.18,-0.12 2.27,-0.88 2.55,-0.88 0.35,-0.61 0.54,-0.67 1.32,-0.99 1.08,-0.02 4.87,-2.11 5.84,-2.76 0.99,-0.67 1.38,-1.38 3.07,-1.3 0.73,0.03 1.29,-0.03 1.91,-0.27 0.64,-0.25 0.86,-0.44 0.98,-1.16l0.06 -0.72c-1.08,0.37 0.08,0.65 -0.68,1.24 -0.39,0.15 -0.29,-0.48 -0.24,-0.89l0.16 -0.26c0.17,-0.39 0.01,-0.45 0.04,-0.98l0.99 -0.12c0.98,-0.19 3.51,-3.14 4.56,-4.02 0.27,-0.22 0.55,-0.29 0.61,-0.77 0.01,-0.08 -0.02,-0.56 -0.04,-0.64 -0.12,-0.59 -0,-0.28 -0.2,-0.39 -0.83,-0.13 -5.67,-0.09 -6.51,0.04 -1.15,0.17 -1.96,0.15 -3.13,0.22 -0.93,0.05 -1.89,0.27 -2.91,0.35z"/>
   <path class="fil3" d="M124.38 34.56l-0.17 0.21c-0.02,0.02 -0.04,0.05 -0.06,0.07 -0.02,0.02 -0.04,0.05 -0.05,0.07l-0.31 0.32c-0.81,0.83 -4.16,2.01 -4.45,2.17 -0.68,0.38 -0.7,0.64 -1.71,0.41 -0.48,-2.2 5.82,-3.77 6.91,-3.87l0.58 0.11c-0.14,0.36 0.17,0.11 -0.34,0.4 -0.4,0.23 -0.16,0.08 -0.4,0.12zm-8.5 1.82c-0.38,0.46 -0.18,0.92 -0.12,1.51 0.13,0.58 0.73,1.17 1.25,1.38 0.74,0.31 2.82,-1.01 3.68,-1.44 0.7,-0.35 1,-1.06 1.64,-0.79 -0,0.69 -0.43,0.7 -0.51,1.38 -0.06,0.52 0.11,0.4 -0.1,0.8 -0.15,0.28 -0.14,-0.11 -0.29,0.44 1.25,0.53 4.24,-1.13 5.55,-1.74 0.27,-0.13 0.74,-0.23 0.93,-0.33 0.51,-0.27 0.07,-0.36 0.67,-0.71 -0.22,0.94 -0.35,0.77 0.3,1.43 0.26,0.26 0.61,0.65 1.02,0.73 0.58,0.2 4.15,0.37 4.31,-1.35l-2.17 -0.42c-0.63,-0.13 -1.25,-0.4 -1.24,-1.14 0,-0 3.49,-2.72 4.24,-1.9 0.33,0.34 -0.05,0.32 -0.17,0.77 -0.11,0.39 0.06,0.61 -0.15,0.96l-0.79 0.49c-0.07,0.05 -0.28,0.22 -0.32,0.25 -0.29,0.3 -0.12,0.05 -0.28,0.4 1.86,-0 1.5,0.04 2.11,-0.52 0.87,-0.79 3.3,-1.52 2.31,-4.96 -1.52,-0.14 -2.32,1 -3.36,1.61 -1.17,0.69 -2.1,1.17 -3.15,1.79 -0.46,0.27 -1.12,0.65 -1.62,0.9 -0.75,0.38 -0.98,0.28 -1.66,0.76 -0.79,0.57 -1.06,0.35 -1.87,0.67 -0.81,0.32 -0.81,0.73 -1.8,0.14 0.16,-1.68 1.89,-1.9 2.62,-2.89 0.41,-0.55 0.24,-0.89 0.26,-1.59 0.57,-0.2 0.83,0 0.87,-0.89 -3.26,-0.3 -4.02,0.35 -6.77,1.35 -1.54,0.56 -4.39,1.56 -5.4,2.91z"/>
   <path class="fil2" d="M54.6 32.83c-0.17,0.39 -0.23,0.4 -0.53,0.69 -1.23,1.21 -0.79,1.75 -1.19,2.27 -0.14,0.18 -0.48,0.33 -0.67,0.47 -0.38,0.28 -0.78,1.04 -2.42,0.98 0.07,-0.57 0.93,-1.47 1.27,-1.9 0.59,-0.74 0.93,-1.13 0.85,-2.41 -0.23,-0.34 -0.47,-0.62 -0.92,-0.67 -0.57,0.07 -1.15,-0.45 -1.41,0.57 -0,0.02 -0.15,1.91 -0.33,1.56 -0.01,-0.02 -0.05,0.05 -0.08,0.06l-0.11 0.08c-0.79,0.65 -1,1.46 -1.54,1.82 -0.06,0.29 -0.02,0.21 -0.27,0.47 -0.33,0.36 -0.91,0.82 -1.4,0.99 -1.14,0.39 -1.95,0.14 -1.83,-1.12 0.36,-0.41 1.51,-1.47 2.08,-1.55 0.52,-0.62 1.61,-0.62 2.39,-1l0.6 -0.33c-0.29,-0.3 -0.66,-0.54 -1.17,-0.63 -0.65,-0.11 -1.15,0.15 -1.69,0.12 -1.36,0.21 -3.9,2.51 -4.23,3.46 -0.33,0.96 0.86,2.01 1.54,2.25 0.89,0.32 2.52,0.01 3.22,-0.37 1.24,-0.67 1.61,-0.64 3.11,-0.77 2.76,-0.24 5.64,-3.97 7.9,-3.42 -0.24,0.45 -0.18,-0.23 -0.48,0.44 -0.18,0.4 0.1,0.27 -0.3,0.65 -0.26,0.25 -0.79,0.39 -1.14,0.69 -0.61,0.52 -1.31,1.22 -1.32,2.3 0.88,0.94 3.12,0.49 4.02,-0.05 0.61,-0.37 1.11,-0.56 1.62,-0.91 0.52,-0.35 0.95,-0.82 1.44,-1.03 -0.13,-0.21 0.24,-0.36 -0.56,-0.21 -0.3,0.06 -1.61,1.25 -3.25,1.08 -0.29,-0.42 -0.43,-0.6 -0.45,-0.95 0.22,-0.16 0.17,-0.11 0.41,-0.23 0.29,-0.52 3.15,-2.16 3.95,-2.59l-0.04 -0.49c-3.47,-1.51 -1.68,0.23 -4.6,-0.46 -0.21,-0.55 -0.04,-0.83 -0.9,-0.69 -0.6,0.17 -1.12,0.7 -1.58,0.83z"/>
   <path class="fil1" d="M146.93 58.29c-0.32,-0.75 0.1,-3.96 0.21,-4.83 0.14,-1.12 0.69,-3.7 0.36,-4.56 -0.62,0.15 -1.05,1.82 -1.41,2.81 -0.34,0.94 -1.05,2.15 -1.25,2.99 -0.34,1.42 1.5,3.66 2.34,3.98 1.01,0.38 0.25,0.46 1.05,1 0.56,0.38 0.88,0.43 1.54,0.08 0.42,-0.23 0.96,-0.52 1.29,-0.79 0.43,-0.36 0.85,-0.56 1.31,-0.88 0.39,-0.27 0.81,-0.64 1.14,-0.93 1.13,-0.97 1.21,-1.14 1.15,-3.11 -0.03,-0.97 0.02,-3.3 -0.14,-4.1 -0.98,-0.31 -2.76,-0.04 -3.48,0.37 -1.76,1 -2.32,3.41 -2.75,5.28 -0.11,0.47 -0.47,2 -0.71,2.43 -0.18,0.33 -0.16,0.35 -0.63,0.27z"/>
   <path class="fil1" d="M33.29 57.97c0.58,0.01 4.33,-0.01 4.57,-0.16 0.29,-0.19 0.97,-2.93 1.13,-3.48 0.31,-1.07 1.96,-6.5 1.98,-7.11 -0.73,-0.06 -4.08,-0.2 -4.52,0.09 -0.46,0.38 -0.65,1.95 -0.84,2.63 -0.88,3.18 -1.08,4.97 -2.32,8.03z"/>
   <path class="fil1" d="M149.66 41.47c-1.02,0.67 -1.95,-0.11 -2.12,1.59 -0.04,0.38 -0.13,1.28 -0.23,1.59 -0.19,0.58 -0.59,0.62 -0.49,1.41 0.12,0.49 0.18,1.19 0.48,1.53 1.01,0.62 6.17,0.47 7.68,0.32 0.93,-0.47 0.67,-3.32 2.06,-4.15 0.15,-0.18 0.17,-0.19 0.26,-0.41 -0.74,-0.83 -1.67,-1.09 -2.72,-1.49 -0.24,-0.02 -0.43,-0.03 -0.59,-0.01 -0.39,-0.17 -0.8,-0.31 -1.15,-0.38 -0.5,-0.1 -0.87,-0.06 -1.3,0.01 0.16,-0.11 0.29,-0.25 0.33,-0.44 -1.09,0.05 -1.32,0.23 -2.22,0.43zm4.09 1.26c0.16,0.19 0.35,0.37 0.47,0.45 0.48,0.36 0.31,0.03 0.47,0.57 -1.21,0.01 -1.72,-0.05 -2.81,-0.26 -1.89,-0.37 -1.11,-0.08 -1.73,-0.73 -0.02,-0.02 -0.04,-0.04 -0.06,-0.06 -0.22,-0.23 -0.25,-0.39 -0.17,-0.51 0.04,0.01 0.08,0.02 0.13,0.03 0.47,0.07 1.5,-0.02 2.44,0.14 0.46,0.08 0.89,0.22 1.26,0.36zm-4.08 5.68c0.54,0.33 1.97,0.28 2.66,0.34 0.73,0.06 2.03,0.41 2.26,-0.3l-4.45 -0.22c-0.75,0.06 -0.27,-0 -0.47,0.17z"/>
   <path class="fil1" d="M72.85 58.04c0.73,-1.15 1.87,-6.41 2.4,-7.94 0.29,-0.84 0.73,-1.71 0.57,-2.71l-4.12 0.1c-0.77,1 -2.1,6.21 -2.57,7.77 -0.24,0.79 -0.64,1.86 -0.78,2.63 2.38,-0.01 2.18,-0.07 4.5,0.16z"/>
   <path class="fil1" d="M54.88 44.68c0.28,-0.46 0.44,-1.42 0.7,-2.05 0.39,-0.95 0.81,-1.54 0.09,-1.78 -0.74,-0.25 -4.16,-0.13 -5.24,-0.14 -0.86,-0.01 -4.8,-0.14 -5.3,0.09 -0.46,0.21 -1.37,3.24 -1.32,3.88 1.48,0.11 9.78,0.17 11.07,-0z"/>
   <path class="fil1" d="M108.2 42.28c-1,0.26 -1.37,-0.07 -1.05,-1.01 -0.78,0.65 -0.64,1.42 -1.31,1.61l-0.2 -0.79c-0.98,0.01 -0.45,0.57 -0.5,1.14 -0.04,0.47 -0.41,0.88 -0.65,1.09 -0.62,-0.01 -0.82,-0.21 -1.05,-0.61 -0.06,-1.84 1.72,-1.27 1.77,-2.42 -0.63,-0.66 -3.93,-0.38 -5.08,-0.39 -1.63,-0.01 -3.72,-0.14 -5.3,0.04l-1.05 4.04c1.75,0.07 3.66,-0.02 5.42,-0.03 1.38,-0.01 4.18,0.27 5.28,0.11 0.62,-0.85 -0.41,-0.41 1.77,-1.42 2.06,-0.95 1.5,-0.38 1.94,-1.36z"/>
   <path class="fil1" d="M41.59 44.73c0.26,-0.35 1.18,-3.47 1.14,-3.9 -0.77,-0.22 -3.45,-0.22 -4.37,-0.1 -0.37,0.74 -0.69,2.36 -0.73,3.4 -0.28,0.19 -0.54,0.24 -0.58,0.68 0.42,-0.02 0.53,-0.14 1.09,-0.12l3.45 0.04z"/>
   <path class="fil1" d="M72.36 44.89c0.88,0.05 4.12,0.31 4.49,-0.2 0.3,-0.41 1.21,-3.23 0.85,-3.64 -0.66,-0.75 -3.12,0.69 -3.68,0.92 -0.98,0.4 -0.98,0.17 -1.29,1.14 -0.14,0.44 -0.58,1.19 -0.36,1.77z"/>
   <path class="fil1" d="M162.57 27.38c-0.15,0.47 0.32,0.56 -0.56,0.81 -0.52,0.14 -0.9,0.08 -1.18,0.48 1.25,0.26 3.63,0.39 3.63,0.38 1.36,0.29 1.31,1.02 1.32,2.36 0.62,-0.18 0.79,-0.58 1.06,-1.15 0.19,-0.39 0.53,-1.29 0.66,-1.62 -0.81,-1.07 -3.1,-2 -4.92,-1.25z"/>
   <path class="fil1" d="M142.59 28.16c1.06,0.68 1.01,-0.64 2.66,-1.1 1.28,-0.35 2.81,0.02 4.12,0.03 -0.14,-0.33 -0.12,-0.4 -0.73,-0.75 -0.33,-0.18 -0.74,-0.29 -0.99,-0.49 -0.26,-0.2 -0.07,-0.14 -0.36,-0.33 -0.12,-0.08 -0.41,-0.18 -0.58,-0.23 -1.09,-0.32 -2.76,-0.44 -3.44,0.61 -0.36,0.55 -0.82,1.49 -0.68,2.27z"/>
   <path class="fil4" d="M136 37.15l-0.46 0.08 0 -0.2c-0.55,0.35 -0.79,0.6 -1.69,0.44 -0.34,-0.06 -0.59,-0.17 -0.86,-0.2 -0.3,-0.03 -0.63,0.01 -0.97,-0.02l2.17 0.42c-0.16,1.72 -3.73,1.55 -4.31,1.35 0.22,0.25 0.09,0.3 1.05,0.37 1.99,0.14 1.74,0.06 3.7,-0.37 0.75,-0.17 1.18,-0.55 1.88,-0.88l1.74 -0.84c0.01,-0.04 0.05,-0.04 0.07,-0.06l-0.22 -0.09c0.34,-0.06 -0.01,0.01 0.14,-0.23 -0.51,0.06 -0.78,0.08 -1.21,0.24 -0.07,0.03 -0.46,0.18 -0.51,0.18 -0.69,0.08 -0.41,0.11 -0.53,-0.19z"/>
   <path class="fil5" d="M46.23 33.3c0.54,0.03 1.04,-0.22 1.69,-0.12 0.51,0.08 0.87,0.33 1.17,0.63l-0.6 0.33 0.57 -0.06c0.15,0.18 0.07,0.02 0.1,0.37 0.03,-0.01 0.07,-0.08 0.08,-0.06 0.18,0.35 0.32,-1.54 0.33,-1.56 0.26,-1.02 0.84,-0.49 1.41,-0.57 -0.2,-0.19 -0.13,-0.16 -0.53,-0.23 -1.08,-0.18 -3.61,0.58 -4.22,1.27z"/>
   <path class="fil2" d="M107.15 41.27c-0.32,0.94 0.05,1.27 1.05,1.01 0.62,-0.18 1.34,-0.44 1.37,-1.1 -0.63,-0.52 -1.89,-0.53 -2.42,0.09z"/>
   <path class="fil6" d="M92.75 33.16c0.66,0.1 1.57,0.06 2.25,-0.1 1.27,-0.3 0.94,-0.11 2.02,0.18l-0.15 -0.68c-0.6,-0.36 -1.41,-0.31 -2.17,-0.17 -0.47,0.09 -1.33,0.3 -1.75,0.6 -0.15,0.1 -0.11,0.08 -0.2,0.17z"/>
   <path class="fil7" d="M92.63 29.9l0.11 0.12c0.01,0.01 0.04,0.04 0.06,0.06 0.02,0.02 0.05,0.04 0.06,0.06l0.28 0.27c-0.71,0.04 -1.32,-0.23 -1.41,0.42 0.51,0.14 1.54,0.24 2.03,-0.01 0.18,-0.15 0.1,-1.6 -0.43,-1.97 -0.38,0.19 -0.51,0.64 -0.7,1.06z"/>
   <path class="fil8" d="M98.84 47.35c0.34,0.2 0.89,0.17 1.29,0.19 0.43,0.02 0.83,0.03 1.26,0.07 0.9,0.07 1.78,0.04 2.65,0.09l0.01 0.63c0.28,-0.33 0.2,-0.53 0.05,-1.03l-5.25 0.05z"/>
   <path class="fil9" d="M147.5 57.02c0.33,-0.43 0.82,-2.97 0.46,-3.49 -0.11,0.15 -0.49,1.42 -0.52,1.67 -0.04,0.35 -0.08,0.59 -0.11,0.92 -0.02,0.16 -0.04,0.43 -0.01,0.58 0.1,0.53 0.07,0.2 0.18,0.32z"/>
   <path class="fil5" d="M148.46 28.09c-0.11,0.6 0.33,0.88 0.88,0.86 0.83,-0.03 0.46,-0.68 0.27,-1.04 -0.47,-0.05 -0.78,-0.08 -1.14,0.18z"/>
   <path class="fil10" d="M135.54 37.04l-0 0.2 0.46 -0.08c0.27,0.02 0.68,-0.18 0.98,-0.3 0.4,-0.16 0.54,-0.2 0.75,-0.63 -0.65,0.08 -1.9,0.37 -2.19,0.83z"/>
   <path class="fil11" d="M146.04 50.99c0.18,-0.67 0.28,-1.26 0,-1.9 -0.11,0.13 -0.13,0.03 -0.19,0.47 -0.01,0.09 -0.01,0.35 -0.01,0.47 -0,0.06 -0.03,0.56 -0.03,0.58 0.06,0.37 0.02,0.18 0.23,0.38z"/>
   <path class="fil12" d="M138.25 36.92c-0.15,0.24 0.2,0.17 -0.14,0.23l0.22 0.09c0.38,-0.39 0.55,-0.95 -0.32,-1.06 0.06,0.5 0.04,0.32 0.24,0.74z"/>
   <path class="fil13" d="M23.19 40.37c-0.07,-0.05 0.15,-0.23 -0.32,-0.1 -0.36,0.1 -0.07,0.03 -0.16,0.21 0.08,0.04 -0.06,0.15 0.3,0.05 0.32,-0.09 0.05,-0.01 0.18,-0.17z"/>
   <path class="fil5" d="M163.32 29.86c-0.11,0.6 0.33,0.88 0.88,0.86 0.83,-0.03 0.46,-0.68 0.27,-1.04 -0.47,-0.05 -0.78,-0.08 -1.14,0.18z"/>
  </g>
 </g>
</svg>
