<?xml version="1.0" encoding="UTF-8"?>
<!DOCTYPE svg PUBLIC "-//W3C//DTD SVG 1.1//EN" "http://www.w3.org/Graphics/SVG/1.1/DTD/svg11.dtd">
<!-- Creator: CorelDRAW -->
<svg xmlns="http://www.w3.org/2000/svg" xml:space="preserve" width="25.4mm" height="19.05mm" version="1.1" style="shape-rendering:geometricPrecision; text-rendering:geometricPrecision; image-rendering:optimizeQuality; fill-rule:evenodd; clip-rule:evenodd"
viewBox="0 0 47.64 35.73"
 xmlns:xlink="http://www.w3.org/1999/xlink"
 xmlns:xodm="http://www.corel.com/coreldraw/odm/2003">
 <defs>
  <style type="text/css">
   <![CDATA[
    .fil0 {fill:black}
    .fil3 {fill:red}
    .fil1 {fill:yellow}
    .fil2 {fill:white}
    .fil4 {fill:black;fill-rule:nonzero}
   ]]>
  </style>
 </defs>
 <g id="Camada_x0020_1">
  <metadata id="CorelCorpID_0Corel-Layer"/>
  <g id="_2480903730272">
   <path class="fil0" d="M44.74 11.21c1.37,-0.08 1.63,-2.63 0.92,-3.85 -0.14,-0.24 -0.32,-0.42 -0.52,-0.63 -0.35,-0.36 -0.91,-0.66 -1.42,-0.85 -1.7,-0.65 -3.01,-0.2 -4.35,0.75 -2.22,1.59 -3.26,0.85 -5.28,1.24 -0.45,0.09 -0.78,0.14 -1.23,0.22 -1.1,0.21 -1.05,0.4 -1.62,0.55 -0.98,0.25 -2.02,0.39 -3,0.59 -0.48,0.1 -0.83,0.08 -0.95,0.45 -0.1,0.3 -0.1,0.78 -0.22,1.06 -0.19,-0.1 -0.21,-0.13 -0.34,-0.31 -0.65,-0.87 -1.78,-0.56 -2.7,-0.36 -0.42,0.09 -0.83,0.17 -1.21,0.24 -0.99,0.19 -1.32,0.24 -2.14,0.71 -0.05,-0.11 -0.03,-0.08 -0.13,-0.14 -0.34,-0.2 -1.65,0.2 -2.05,0.27 -0.58,0.11 -1.27,0.09 -1.24,0.81 -0.01,-0.01 -0.02,-0.03 -0.02,-0.04 -0,-0.01 -0.01,-0.03 -0.02,-0.04 -0.01,-0.01 -0.01,-0.03 -0.02,-0.04 -0.08,-0.15 -0.21,-0.35 -0.42,-0.34l-5.74 1.1c-0.17,0.04 -0.23,0.14 -0.37,0.17 -0.15,0.03 -0.11,-0.02 -0.22,-0.03 -0.16,-0.01 -5.47,1.02 -5.68,1.13 -0.21,0.11 -0.25,0.3 -0.28,0.56 -0.11,-0.2 -0.01,-0.15 -0.21,-0.3 -0.36,-0.28 -0.98,0.01 -1.38,0.08 -1.89,0.37 -2.13,0.16 -2.19,1.11 -0.08,1.26 -0.17,2.44 -0.22,3.68l-0.23 3.68c-0.03,0.34 -0.04,0.66 -0.06,0.94 -0.02,0.27 -0.06,0.69 -0.05,0.89 0.01,0.24 0.15,0.35 0.35,0.44 0.36,0.17 0.14,0.5 0.71,0.59 -0.08,0.17 -0.11,1.19 -0.11,1.44 -0,0.18 0.1,0.48 0.18,0.62 0.11,0.21 0.21,0.31 0.38,0.43 -0.23,0.06 -0.43,0.21 -0.61,0.34 -0.71,0.49 -1.13,1.95 -0.53,2.68 -0.17,0.27 -0.29,0.61 -0.38,0.92 -0.08,0.3 -0.18,0.71 -0.16,1.06 0.06,0.96 0.82,1.48 1.08,1.78 0.45,0.52 1.05,0.94 1.86,0.89 2.53,-0.15 2.59,-1.02 3.11,-1.4 0.65,1 2.43,1.47 3.51,0.86l0.19 -0.14c0.83,0.45 0.97,0.46 1.52,-0.33 0.13,-0.19 0.38,-0.62 0.56,-0.67 0.06,-0.02 0.5,-0.08 0.55,-0.09 0.27,-0.04 0.32,-0.03 0.55,-0.09 0.19,0.29 0.44,0.44 0.65,0.72 0.72,0.96 2.05,0.2 1.98,-0.82 -0.06,-0.89 -0.41,-1.74 -0.58,-2.64 -0.23,-1.2 -0.14,-1.45 -0.22,-2.58 -0.03,-0.49 -0.55,-0.55 -0.68,-0.96 0.96,0.4 1.07,0.31 2.04,0.25l0.02 0.31c0.03,0.37 0.37,0.83 0.68,0.96 -0.08,0.79 -0.13,1.53 -0.2,2.31 -0.06,0.65 -0.21,1.63 -0.16,2.34 0.02,0.23 0.06,0.41 0.25,0.52 0.25,0.15 0.16,-0.01 0.3,0.24 0.1,0.17 0.05,0.19 0.24,0.31 0.48,0.31 0.79,-0.02 1.09,-0.31l0.55 -0.49c0.68,-0.68 0.7,-1.44 0.86,-2.36 0.52,-0.04 0.91,-0.45 1.26,-0.5 0.04,0.84 -0.57,0.74 -0.52,1.45 0.1,1.41 0.42,1.03 0.78,1.59 0.31,0.47 0.74,0.58 1.31,0.29 1.02,-0.51 2.71,-1.08 2.9,-1.17 0.06,0.2 0.11,0.4 0.2,0.57 0.18,0.32 0.2,0.16 0.39,0.31 0.13,0.11 0.13,0.3 0.29,0.42 0.64,0.46 1.73,-0.26 1.93,-0.31 0.22,0.62 1.41,0.23 1.77,0.03 0.39,-0.21 1.9,-0.49 1.83,-1.51 -0.03,-0.51 -1.05,-0.62 -1.08,-0.99 -0.06,-0.87 1.59,-0.07 1.88,0.02 0.48,0.16 0.92,0.26 1.5,0.32 0.51,0.05 1.18,0.02 1.75,0.05 2.44,0.13 2.58,0.87 4.35,1.11 1.22,0.16 2.51,0.27 3.78,0.19 1.78,-0.11 3.68,-2 3.57,-3.69 -0.05,-0.74 -0.3,-0.91 -0.72,-1.26l-3.95 -2.76c-0.22,-0.15 -0.36,-0.25 -0.59,-0.39 -0.22,-0.13 -0.37,-0.25 -0.58,-0.39 -0.91,-0.62 -2.14,-0.65 -3.07,-1.23 -0.49,-0.3 -0.04,-0.7 -0.14,-1.43 -0.04,-0.26 -0.03,-0.36 -0.26,-0.46 -0.18,-0.08 -0.34,-0.12 -0.5,-0.19 -0.48,-0.22 -0.34,-0.46 -0.64,-0.79 -0.17,-0.2 -0.7,-0.34 -0.96,-0.38 -0.03,-0.41 -0.2,-0.7 0.03,-0.97 0.36,-0.42 0.98,-0.69 1.44,-0.99 0.79,-0.51 2.01,-1.03 2.68,-1.6 0.32,-0.28 0.63,-0.57 1.01,-0.8 1.91,-1.2 2.49,-0.37 2.88,-1.99 0.07,-0.28 0.05,-0.19 -0.09,-0.36 -0.33,-0.39 -0.22,-0.85 -0.79,-1.02 -0.68,-0.2 -0.34,-0.02 -0.8,-0.39 -0.5,-0.4 -0.39,-0.17 -0.8,-0.33 0.05,-0.21 0.25,-0.37 0.53,-0.4 1.14,-0.12 1.26,-0.36 1.97,-0.5 0.22,-0.04 0.24,0 0.46,-0.01zm-7.68 4.3c-0.07,-0.98 0.39,-0.96 0.59,-1.49 0.18,-0.49 0.24,-1.11 0.2,-1.77 0.31,-0.02 0.36,0.03 0.67,0.01 1.02,-0.05 0.88,0.1 2.03,0.04 -0.01,0.32 -0.46,0.77 -0.65,1 -0.25,0.32 -0.16,1.16 -1.03,1.48l-1.19 0.51c-0.22,0.1 -0.33,0.2 -0.63,0.23zm-15.38 5.97c0.47,-0.03 3.46,-0.62 3.86,-0.78 0.12,-0.05 0.17,-0.06 0.28,-0.12 0.73,-0.36 0.17,0.14 1.02,-0.1 0.02,0.28 0.01,0.51 0.13,0.71 0.35,0.57 0.31,0.02 0.38,1.05 0.01,0.2 -0.05,0.07 -0.04,0.27 0.04,0.56 0.09,1.07 0.17,1.62 0.03,0.21 0.11,0.5 0.16,0.72 0.06,0.22 0.17,0.42 0.2,0.63 -0.23,-0 -0.13,-0.05 -0.34,-0.03 -0.36,0.02 -0.63,0.19 -0.94,0.21 -0.03,-0.19 -0.19,-0.35 -0.3,-0.47 -0.09,-0.09 -0.12,-0.09 -0.21,-0.17 -0.08,-0.07 -0.12,-0.12 -0.18,-0.2 -1.19,-1.52 -3.11,0.53 -3.06,1.69l-0.56 0.05c-0.18,-0.13 -0.25,-0.26 -0.58,-0.25l-0.12 -4.31c-0.03,-0.38 0,-0.31 -0.21,-0.57l0.34 0.03zm2.32 -6.41c0.48,-0.03 0.79,-0.1 1.21,-0.19 0.3,-0.06 0.79,-0.19 1.12,-0.22 0.02,0.56 -0.16,0.49 -0.27,0.52 -0.51,0.13 -1.42,0.23 -2.08,0.41 -0.01,-0.23 0.04,-0.25 0.02,-0.53z"/>
   <path class="fil1" d="M26.1 32.03l0.02 1.11c0.02,0.26 0.07,0.23 0.09,0.47 0.27,0.04 0.34,0.08 0.8,-0.13 0.22,-0.1 0.28,-0.15 0.36,-0.35 0.11,-0.28 0.33,-0.79 0.31,-1.13 -0.02,-0.23 -0.49,-0.34 -0.73,-0.3 -0.34,0.05 -0.61,0.21 -0.84,0.34zm-14.57 -0.34c0.03,-0.15 0.11,-0.27 0.17,-0.4l0.54 -1.09c0.15,0.12 0.03,-0.01 0.1,0.17l0.36 1.3c-0.45,0.03 -0.7,-0.01 -1.18,0.02zm-2.53 -2.59l0.05 0.73c0.09,1.33 -0.57,3.35 -1.72,3.63 -0.99,-1.52 0.37,-4.43 0.34,-4.87 -0.04,-0.62 -1.15,-0.59 -1.38,-0.44 -0.17,0.11 -0.04,0.08 -0.3,0.84 -0.55,1.6 -1.03,4.84 1.38,5.26 0.47,0.08 0.93,0.06 1.32,-0.15 0.28,-0.15 0.7,-0.48 0.84,-0.75 0.07,0.33 -0.03,-0.08 -0.01,0.29l0.17 0.38c0.11,0.15 0.03,-0.04 0.26,0.18 0.04,-0.17 0.51,-0.79 0.65,-1 0.1,-0.16 0.11,-0.21 0.35,-0.26 0.36,-0.08 1.94,-0.26 2.1,-0.35l0.51 1.09c0.26,0.37 0.81,0.16 0.76,-0.58 -0.02,-0.23 -0.02,0.02 -0.04,-0.16 -0.08,-0.85 -0.5,-1.74 -0.62,-2.91 -0.25,-2.52 0.23,-2.04 -0.97,-2.29 -0.49,-0.1 -0.71,-0.02 -1.2,0.06 -0.19,1.02 -0.46,1.69 -0.79,2.61l-0.32 0.73c-0.06,0.1 -0.02,0.04 -0.07,0.09 -0.04,-1.01 0.21,-1.74 -0.42,-2.7 -0.22,-0.34 -0.54,-0.63 -0.98,-0.7 0.19,0.24 0.19,0.11 0.43,0.55 -0.14,-0.09 -0.52,-0.62 -0.74,-0.51 -0.24,0.12 0.32,0.19 0.39,1.22zm-8.06 1.22c0.09,1.33 3.52,1.35 3.57,2.11 0.02,0.35 -1.17,0.65 -1.36,0.66l-0.62 0.04c-0.67,0.04 -1.21,-0.41 -1.26,-1.14 -0.02,-0.32 0.03,-0.39 0.01,-0.69 -0.22,0.16 -0.28,0.37 -0.29,0.7 -0.3,0.11 0.25,-0.18 -0.12,-0.05 -0.58,1.69 0.59,2.65 1.47,2.6 0.93,-0.06 1.68,-0.12 2.32,-0.81 0.89,-0.95 1.03,-2.44 -0.46,-3.2 -0.49,-0.25 -1.33,-0.54 -1.89,-0.63l-0.01 -0.1c0.88,-0.25 1.54,-0.57 2.65,-0.63 0.19,-0.4 0.2,-0.36 0.17,-0.75 -0.06,-0.84 -1.22,-0.39 -1.9,-0.23 -0.68,0.16 -1.7,0.42 -2.02,1.01 -0.16,0.29 -0.3,0.7 -0.28,1.11zm16.58 -3.04c0.02,0.26 -0.03,0.33 -0.01,0.63 -0.62,0.04 -0.7,0.08 -0.71,0.31l0.34 -0.02c-0.14,0.23 -0.06,0.05 -0.03,0.37l0.34 0.04c-0.06,0.14 0.04,0.25 0.02,0.55 -0.07,0.8 -0.37,4.1 -0.34,4.57 0.17,-0.12 0.12,-0.14 0.26,-0.28 0.46,-0.44 0.35,-0.16 0.6,-0.6l0.24 -0.34c0.13,-0.22 0.16,-0.58 0.2,-0.87 0.05,-0.29 0.16,-0.67 0.17,-0.95 1.28,-0.36 0.81,-0.3 1.39,-0.58 0.23,-0.11 0.67,-0.41 0.79,-0.64l0.13 -0.34c-0.7,0.04 -1.35,0.19 -2.06,0.23 0,-0.13 0.04,-0.43 0.06,-0.54 0.06,-0.31 0.12,-0.19 0.5,-0.23 0.34,-0.04 0.91,-0.13 1.28,-0.18 1.2,-0.13 1.25,-0.33 1.03,-1.43l-2.82 0.62c-0.19,-0.71 -0.98,-0.42 -1.37,-0.31zm4.5 0.05c-0.03,1.7 -0.22,2.64 -0.39,4.14 -0.04,0.38 0.01,0.59 -0.19,0.73 -0.14,0.1 -0.37,0.18 -0.33,0.6 0.03,0.33 0.15,0.52 0.32,0.73 0.24,-0.03 0.38,-0.16 0.59,-0.26l1.89 -0.77c0.45,-0.17 0.84,-0.29 1.33,-0.44 0.93,-0.27 0.53,-0.45 1.16,-0.63l-0.23 -0.04c0.28,-0.66 -0.21,-0.57 -0.65,-0.54 -0.99,0.06 -2.53,0.79 -2.78,0.77 0.08,-0.23 0.19,-0.8 0.24,-1.04 0.9,-0.12 1.48,-0.56 1.72,-0.66 0.17,-0.06 0.15,-0.03 0.29,-0.16 0.01,-0.01 0.04,-0.04 0.05,-0.05 0.3,-0.28 0.5,-0.37 0.58,-0.76 -0.83,0.05 -1.55,0.19 -2.34,0.3 0.05,-0.29 0.11,-0.61 0.16,-0.91 0.36,-0.03 1.7,-0.34 1.99,-0.44 0.28,-0.1 0.17,-0.09 0.49,-0.34 0.22,-0.17 -0.16,0.01 0.33,-0.33 0.26,-0.18 0.13,-0.08 0.25,-0.34 -1.27,-0.02 -3.21,0.07 -4.46,0.42zm1.46 -0.77c0.04,0.57 0.87,-0.01 1.3,-0.21 0.35,-0.16 0.75,-0.15 0.71,-0.8 -0.02,-0.27 -0.31,-0.61 -0.71,-0.59 -0.39,0.02 -1.35,0.87 -1.3,1.61zm3.25 -0.14c0.06,0.88 -0.1,1.6 -0.18,2.37l-0.11 2.44c0.68,0.11 1.05,-0.1 1.21,-0.74 0.1,-0.43 0.22,-0.81 0.3,-1.24 0.09,-0.46 0.51,-2.28 0.48,-2.62 -0.03,-0.4 -0.82,-0.85 -1.7,-0.22zm2.02 -0.07c0.23,0.39 -0.31,2.83 -0.23,4.02l0.05 0.79c0.9,-0.05 1,-0.28 1.21,-1.08 0.26,-0.96 0.45,-2.05 0.65,-3.08 0.11,-0.54 0.03,-1.07 -0.81,-1.02 -0.5,0.03 -0.6,0.17 -0.87,0.37zm-0.58 5.57c0.02,0.27 -0.04,1.12 0.06,1.39 0.05,0.14 -0.03,0.2 0.27,0.2 0.32,0 0.77,-0.2 0.89,-0.44 1.01,-1.94 -0.55,-1.63 -1.22,-1.16z"/>
   <path class="fil2" d="M19.53 23.62c-0.01,-0.15 -0.01,-0.13 0.11,-0.31l0.14 -0.23c0.02,0.27 -0.04,0.29 -0.02,0.58l0.07 1.05 -0.74 0.03c-0.22,0.04 -0.43,0.04 -0.66,0.06l0.5 -0.08c0.05,-0.24 0.19,-0.26 0.24,-0.54 -0.15,-0.05 -0.11,-0.03 -0.28,0.02l-0.01 -0.1c0.23,-0.01 0.35,-0.04 0.46,-0.18 0.14,-0.18 0.02,-0.14 -0.1,-0.27l0.28 -0.02zm-16.37 0.4c0.27,-0.04 0.24,-0.12 0.44,-0.77 0.08,-0.27 -0.03,-0.36 0.65,-0.38 1.79,-0.05 1.13,0.07 1.87,0.19 -0.08,0.78 -2.37,1.77 -2.97,1.81 0.01,-0.3 0.16,-0.5 0.17,-0.8 -0.23,-0 -0.1,0 -0.17,-0.04zm7.71 -1.41c0.53,-0.28 1.63,-0.39 2.18,-0.18 -0.11,0.59 -1.13,1.1 -1.63,1.42 -0.22,0.15 -0.42,0.23 -0.66,0.34 0.08,-0.17 0.46,-1.08 0.38,-1.27 -0,-0.01 -0.24,-0.29 -0.27,-0.32zm-2.87 -0.09c0.27,-0.02 0.54,-0.04 0.79,-0.07 0.22,-0.02 0.43,-0.03 0.43,0.23 -0.01,0.56 0.37,0.61 0.83,0.34 -0.05,0.28 -0.21,0.4 -0.3,0.7 -0.15,0.51 -0.33,0.87 -0.41,1.49 -0.03,0.2 -0.09,0.6 -0.1,0.81 -0.53,0.02 -0.15,-0.2 -0.58,-0.09 -0.21,0.05 -0.27,0.13 -0.39,0.17l-1.24 0.47c-0.02,-0.25 -0,-0.48 0.02,-0.73 0.06,-0.55 0.2,-0.46 -0.05,-0.54 0.12,-0.18 0.09,-0.04 0.18,-0.2 0.06,-0.11 0.01,-0.09 0.09,-0.23 0.1,-0.17 0.21,-0.19 0.38,-0.22 0.3,-0.06 0.73,-0.17 1.15,-0.2 -0.09,-0.59 -0.91,-0.47 -1.27,-0.45 0.09,-0.52 0.4,-0.95 0.46,-1.5zm1.51 -0.14c-0.13,-0.35 -0.52,-0.64 -0.94,-0.63 -0.77,0.01 -1.51,0.1 -2.13,0.38 -0.91,0.41 -0.5,-0.12 -1.9,-0.08 -0.28,0.01 -0.32,-0.02 -0.57,0.02 -0.3,0.04 -0.49,0.07 -0.75,0.12 -0.43,0.09 -2.17,0.66 -1.91,1.22 0.23,0.48 0.76,-0.03 1.07,-0.13 -0.28,0.57 -0.37,0.93 -0.52,1.65 -0.11,0.53 -0.23,1.36 -0.19,1.92 0.05,0.71 0.36,0.96 0.98,0.79 0,-0 0.02,-0 0.02,-0.01 -0.02,-0.32 -0.04,-0.65 0.02,-0.93 0.04,-0.2 0.11,-0.16 0.07,-0.38 -0.03,-0.2 0.03,-0.07 0.08,-0.29 -0.16,-0.02 -0.13,-0.02 -0.23,-0.09l0.28 -0.02c-0.01,-0.22 0.02,-0.23 0.09,-0.37 0.63,-0.04 0.82,-0.12 1.32,-0.2 0.36,-0.06 0.51,-0.15 0.83,-0.26 0.15,-0.05 0.45,-0.22 0.62,-0.28 0.09,-0.03 0.15,-0.13 0.16,0.09 0,0.07 -0.39,1.12 0.22,1.85 0.16,0.19 0.5,0.41 0.76,0.48 0.48,0.12 0.77,-0.08 1.13,-0.29 0.03,-0.02 0.17,-0.12 0.18,-0.12 0.15,-0.07 0.21,-0 0.35,-0.23l-0.34 0.02c0.18,-0.28 0.4,0.02 0.74,-0.17l0.3 -0.1c0.05,0.66 0.72,0.65 0.79,0.5 0.08,-0.15 0.02,-0.29 0.06,-0.44 0.04,-0.18 0.09,-0.4 0.12,-0.59 0.32,0.19 0.55,0.61 0.86,0.83l0.13 0.09c0.61,0.37 0.66,0.29 1.16,0.22 -0.08,-0.23 -0.4,-0.28 -0.59,-0.44l-0.33 -0.32c-0.19,-0.2 -0.63,-0.75 -0.71,-0.98l1.69 -0.73c0.14,-0.07 0.19,-0.15 0.28,-0.21l0.42 -0.3c0.15,-0.14 -0.08,-0.03 0.15,-0.12 -0,0.13 -0.7,2.03 0.4,2.73 0.61,0.39 1.7,0.46 2.23,-0.06l0.45 -0.52c0.3,-0.39 0.53,-0.71 0.75,-1.16 -0.16,-0.06 -0.34,-0.06 -0.51,-0.13 -0.06,0.1 -0.09,0.15 -0.18,0.25 -0.46,0.58 -1.01,1.39 -1.78,1.6 -0.62,-0.37 -0.47,-1.48 -0.34,-2.07 0.1,-0.45 0.31,-0.81 0.52,-1.21l0.54 -0.79c0.03,-0.04 0.05,-0.05 0.09,-0.08 0.14,-0.12 0.01,-0.07 0.2,-0.13 -0.01,0.3 -0.13,0.64 -0.1,1.01l0.34 0.03c-0.23,0.01 -0.18,-0.01 -0.33,0.07 0.2,0.63 0.51,0.71 1.22,0.66l-0.07 -0.38 0.49 -1.85c0.02,-0.22 -0.16,-0.24 -0.34,-0.33 -0.58,-0.29 -0.35,-0.05 -0.7,-0.15 -0.63,-0.18 -0.98,-0.02 -1.52,0.48 -0.24,0.22 -0.79,0.8 -0.85,1.09 -0.16,-0.1 -0.2,-0.4 -0.3,-0.58 -0.11,-0.2 -0.17,-0.39 -0.36,-0.51l-0.14 -0.08c-0.73,-0.42 -1.78,-0.17 -2.48,0.1 -0.41,0.15 -0.68,0.35 -1.02,0.54zm7.36 4.25c0.09,0.01 0.13,0.02 0.22,0.05 0.03,0.01 0.27,0.2 0.66,-0.01 0.21,-0.11 0.34,-0.54 0.48,-0.74 0.08,-0.11 0.04,-0.03 0.11,-0.16 0.16,-0.29 0.11,-0.28 0.57,-0.52 0.26,-0.13 0.56,-0.2 0.93,-0.22 0.05,0.67 0.07,0.86 0.27,1.46l0.58 -0.03c-0,-0.31 -0.06,-0.1 -0.06,-0.48l-0.08 -1.36c-0.02,-0.51 0.03,-1.27 -0.02,-1.95l-0.03 -1.37c-0.46,-0.09 -0.58,-0.6 -1.18,0.27 -0.37,0.53 -1.07,1.49 -1.27,2.08l-0.03 0.08 -0.45 0.85c-0.22,0.51 -0.69,1.54 -0.7,2.05z"/>
   <path class="fil3" d="M8.36 22.97c0.16,-0.01 0.54,-0 0.58,-0.16 0.03,-0.14 -0.14,-0.14 -0.31,-0.13 -0.63,0.02 -0.45,0.3 -0.27,0.28zm11.64 -3.96c0.03,0.5 0.03,1.14 0.61,1.38 0.5,0.2 1.98,-0.17 2.66,-0.32 0.43,-0.09 0.93,-0.17 1.34,-0.28l0.77 -0.36c0.04,-0.03 0.05,-0.04 0.09,-0.07 0.01,-0.01 0.04,-0.04 0.06,-0.05 0.01,-0.01 0.02,-0.02 0.03,-0.03 0.76,-0.82 0.62,-1.78 0.71,-2.93 0.02,-0.19 0.04,-0.51 0.04,-0.66l-2.52 0.45c-0.4,0.1 -0.17,-0.01 -0.27,0.96 -0.06,0.56 -0.04,0.87 -0.48,0.89 -0.38,0.02 -0.22,-0.97 -0.19,-1.25l0.13 -2.12c-0.01,-0.28 0.03,-0.49 0.05,-0.7 0.04,-0.59 -0.02,-0.87 0.39,-1.17 0.21,0.04 0.08,0.05 0.29,0.09 0.02,0.33 0.09,0.32 0.06,0.59 -0.03,0.27 -0.05,0.32 -0.03,0.62 0.19,-0.02 2.55,-0.47 2.77,-0.59 -0.06,-0.87 0.02,-0.48 0.04,-1.01 0.02,-0.43 0.03,-1.26 -0.17,-1.66l-0.21 -0.28c-0.23,-0.19 -0.56,-0.24 -0.95,-0.16l-1.04 0.19c-0.4,0.06 -2.29,0.44 -2.61,0.57 -0.69,0.27 -1.04,1.01 -1.15,1.73 -0.08,0.55 -0.04,0.66 -0.08,1.03l-0.21 3.05c-0.01,0.2 -0,0.38 -0.02,0.53 -0.02,0.21 -0.04,0.29 -0.04,0.51 0,0.39 -0.07,0.63 -0.04,1.06zm9.37 -4.25c-0.02,-0.27 0.12,-1.17 0.18,-1.49l0.24 -1.44c0.04,0.57 0.16,2.37 0.08,2.84 -0.28,0.02 -0.25,0.06 -0.5,0.08zm-1.57 -4.96l-0.46 2.4c-0.04,0.16 -0.09,0.46 -0.11,0.6l-0.78 4.26c-0.04,0.22 -0.1,0.41 -0.13,0.59 -0.04,0.24 -0.06,0.37 -0.1,0.61l-0.24 1.24c0.42,-0.03 1.09,-0.15 1.45,-0.24 1.64,-0.42 1.33,0.1 1.47,-1.01l0.16 -1.06c0.04,-0.28 -0.07,-0.19 0.12,-0.3 0,-0 0.37,-0.09 0.38,-0.09 0.34,-0.07 0.27,-0.14 0.33,0.83 0.03,0.44 -0.01,0.67 0.02,1.11l2.83 -0.54c-0.1,-1.53 -0.31,-5.67 -0.53,-7.03 -0.04,-0.22 -0.01,-1.67 -0.15,-2.15 -0.41,0.02 -1.16,0.19 -1.58,0.28 -0.2,0.04 -0.39,0.06 -0.54,0.1l-2.15 0.4zm-9.98 1.96l-0.2 3.65c-0.22,-0.13 -0.23,-0.45 -0.29,-0.76l-0.62 -2.61 -2.37 0.42c-0.41,0.09 -0.35,0.06 -0.37,0.48 -0.02,0.51 -0.04,1.01 -0.08,1.52 -0.04,0.48 -0.04,0.99 -0.09,1.51 -0.03,0.3 -0.03,0.45 -0.04,0.76l-0.28 4.53c-0.01,0.09 -0.05,0.34 -0.05,0.36 -0,0.32 0.03,0.08 0.12,0.35 0.34,-0.03 0.68,-0.08 0.91,-0.29 0.58,-0.53 0.69,-0.6 1.44,-0.64 0.09,-0.22 0.08,-0.6 0.1,-0.86l0.27 -2.85c0.02,0.33 0.12,0.64 0.19,0.98l0.44 1.96c0.1,0.45 0.18,0.63 0.21,1.02 0.19,-0.05 0.45,-0.09 0.63,-0.13l1.35 -0.27c0.14,-0.03 0.52,-0.11 0.68,-0.13 -0.01,-0.19 -0.04,-0.44 -0.04,-0.62 0.01,-0.17 0.06,-0.35 0.06,-0.54l0.14 -2.37c0.03,-0.35 0.06,-0.81 0.07,-1.18 0.01,-0.26 0.01,-0.32 0.04,-0.56l0.12 -1.78c0.02,-0.21 -0.03,-0.4 -0.01,-0.6l0.1 -1.15c0.03,-0.22 0,-0.42 -0.01,-0.66l-1.8 0.35c-0.29,0.08 -0.28,0.09 -0.64,0.11zm-6.65 1.34c-0.13,0.3 -0.26,3.96 -0.32,4.74 -0.03,0.4 -0.12,2.2 -0.2,2.36 -0.06,0.13 -0.2,0.27 -0.38,0.28 -0.35,0.02 -0.24,-0.87 -0.21,-1.12 0.02,-0.18 0.04,-0.3 0.05,-0.46 0.01,-0.76 0.28,-4.04 0.26,-4.49 -0.02,-0.39 0.08,-0.49 0.03,-1.16l-2.66 0.52c-0.06,0.07 -0.06,0.52 -0.06,0.64l-0.41 7.24c0.11,-0.06 1.97,-0.46 2.27,0.39 0.25,-0.04 0.99,-0.69 2.31,-0.77 0.41,-0.02 0.81,0.13 1.19,0.14 0.15,-0.25 0.26,-0.62 0.32,-0.93l0.18 -2.23c0.03,-0.41 0.04,-0.75 0.06,-1.14 0.01,-0.17 0.05,-0.4 0.06,-0.55l0.15 -2.85c0.02,-0.41 0.07,-0.72 0.04,-1.16l-2.66 0.53zm-6.41 4.91c-0.03,-0.41 -0.19,-0.85 -0.29,-1.27 -0.04,-0.16 -0.07,-0.35 -0.09,-0.46 -0.05,-0.18 -0.07,-0.24 -0.1,-0.4 -0.05,-0.28 -0.06,-0.21 -0.12,-0.43 -0.05,-0.18 -0.03,-0.32 -0.06,-0.5 -0.04,-0.18 -0.1,-0.22 -0.13,-0.42l-2.72 0.53 -0.54 9.41c1.02,-0.06 1.17,-0.13 1.14,-0.65 -0.29,0.02 -0.29,0.04 -0.5,-0.09 -0.02,-0.01 -0.13,-0.08 -0.13,-0.08 -0.53,-0.42 0.16,-0.9 0.48,-1.14 0.01,-0.01 0.05,-0.04 0.06,-0.05 0.01,-0.01 0.02,-0.02 0.03,-0.02l0.56 -0.23c1.23,-0.47 0.95,-0.06 1,-0.81 0.04,-0.53 0.11,-1.1 0.08,-1.62l0.31 1.02c0.06,0.26 0.17,0.69 0.22,1 1.23,-0.07 1.91,0.29 2.16,0.21 0.13,-0.04 0.27,-0.13 0.44,-0.18 0.79,-0.26 0.43,0.25 0.65,-2.34 0.14,-1.7 0.2,-3.65 0.34,-5.43 0.03,-0.34 0,-0.31 -0.79,-0.1 -1.62,0.42 -1.7,-0.04 -1.75,0.83 -0.01,0.19 0.02,0.35 0,0.55l-0.11 1.64c-0.04,0.53 0.02,0.91 -0.13,1.03zm1.02 5.16c-0.93,-0.15 -0.55,-0.13 -1.52,-0.07 0.06,0.85 0.14,0.67 0.64,0.58 0.09,-0.02 0.46,-0.09 0.56,-0.14l0.16 -0.12c0.01,-0.01 0.02,-0.02 0.03,-0.03 0.12,-0.13 0.1,-0.05 0.14,-0.23z"/>
   <path class="fil4" d="M5.88 5.99c0.03,-0.03 0.05,-0.07 0.07,-0.1 0.02,-0.03 0.04,-0.07 0.07,-0.09 0.01,-0.03 0.04,-0.05 0.08,-0.06 0.02,-0 0.03,-0 0.04,0.01 0.01,0.01 0.02,0.02 0.02,0.02 0.04,0.03 0.06,0.07 0.05,0.11 -0.01,0.04 -0.02,0.08 -0.04,0.12 0,0.02 0.01,0.03 0.02,0.03 0.03,-0.01 0.05,-0.01 0.06,-0.02 0.02,-0.02 0.05,-0.04 0.07,-0.08 0.04,-0.03 0.07,-0.06 0.09,-0.08 0.03,-0.02 0.06,-0.01 0.1,0.02 0.04,0.02 0.08,0.02 0.13,0.01 0.04,-0.01 0.08,-0.03 0.12,-0.04 0.17,-0.06 0.35,-0.12 0.52,-0.16 0.17,-0.05 0.35,-0.08 0.53,-0.11 0.13,-0.01 0.26,-0.03 0.39,-0.03 0.13,-0.01 0.24,-0.01 0.36,-0 0.21,0 0.37,0.04 0.5,0.12 0.12,0.07 0.21,0.17 0.27,0.3 0.07,0.14 0.08,0.29 0.04,0.44 -0.04,0.15 -0.12,0.31 -0.22,0.46 -0.27,0.35 -0.61,0.67 -1.02,0.95 -0.13,0.09 -0.27,0.18 -0.41,0.27 -0.14,0.09 -0.28,0.17 -0.41,0.26 -0.05,0.04 -0.08,0.07 -0.08,0.08 0.02,-0 0.04,0 0.08,0.01 0.04,0 0.08,0 0.13,0 0.04,-0 0.09,0.01 0.13,0.02 0.33,0.03 0.57,0.13 0.72,0.31 0.13,0.12 0.18,0.28 0.15,0.48 -0.05,0.2 -0.15,0.39 -0.28,0.57 -0.13,0.18 -0.3,0.36 -0.48,0.54 -0.18,0.16 -0.37,0.33 -0.59,0.5 -0.14,0.12 -0.29,0.23 -0.43,0.35 -0.15,0.11 -0.29,0.23 -0.43,0.35 -0.05,0.04 -0.1,0.07 -0.14,0.11 -0.04,0.04 -0.09,0.07 -0.13,0.09 -0.04,0.03 -0.08,0.05 -0.11,0.08 -0.03,0.03 -0.08,0.05 -0.14,0.05 0.04,-0.03 0.06,-0.06 0.08,-0.09 0.02,-0.02 0.03,-0.05 0.05,-0.08 -0.01,0 -0,-0.01 0.02,-0.03 -0.02,0 -0.03,0 -0.04,0 -0.01,-0 -0.02,0 -0.03,0.01 -0.28,0.09 -0.56,0.19 -0.84,0.3 -0.28,0.1 -0.55,0.22 -0.82,0.33 -0.11,0.05 -0.2,0.1 -0.28,0.15 -0.07,0.05 -0.11,0.12 -0.11,0.21 0,0.02 -0,0.03 -0.01,0.03 -0.01,0.01 -0.02,0.02 -0.03,0.03 -0.01,-0.01 -0.01,-0.02 -0.02,-0.03 -0,-0.01 -0.01,-0.02 -0.02,-0.03 0.01,-0.01 0.01,-0.03 0.01,-0.04l-0.01 -0.05c-0.02,-0.04 -0.06,-0.05 -0.12,-0.03 -0.05,0.02 -0.1,0.04 -0.14,0.06 -0.04,0.02 -0.08,0.03 -0.12,0.04 -0.22,0.09 -0.44,0.16 -0.66,0.23 -0.22,0.07 -0.45,0.12 -0.68,0.17 -0.04,0.01 -0.08,0.01 -0.11,0.02 -0.03,0.01 -0.07,0.01 -0.11,0.01 -0.06,0 -0.12,0 -0.17,0 -0.05,0 -0.1,0 -0.15,-0 0.04,-0.02 0.09,-0.04 0.15,-0.06 0.05,-0.02 0.11,-0.04 0.16,-0.06 0.24,-0.09 0.48,-0.18 0.7,-0.27 0.23,-0.1 0.45,-0.2 0.66,-0.31 0.07,-0.04 0.11,-0.06 0.12,-0.08 0.01,-0.02 -0.01,-0.05 -0.05,-0.08 -0.04,-0.04 -0.06,-0.08 -0.06,-0.12 -0.01,-0.04 -0,-0.09 0.01,-0.13 0.04,-0.21 0.08,-0.43 0.12,-0.64 0.04,-0.21 0.09,-0.42 0.15,-0.64 0.1,-0.4 0.22,-0.79 0.35,-1.18 0.13,-0.39 0.28,-0.78 0.46,-1.18 -0,-0.01 0,-0.03 0.01,-0.04 0.01,-0.02 0.02,-0.03 0.02,-0.05 -0,-0.03 -0.01,-0.04 -0.02,-0.05 -0.02,0 -0.04,0.01 -0.06,0.02 -0.04,0.03 -0.07,0.05 -0.1,0.07 -0.03,0.02 -0.06,0.04 -0.09,0.07 -0.01,0.01 -0.03,0.01 -0.03,0.01 -0.01,-0 -0.02,0 -0.02,0.01 -0,-0.01 -0,-0.01 -0,-0.02 -0,-0.01 0,-0.02 0.01,-0.03 0.03,-0.03 0.06,-0.06 0.09,-0.08 0.03,-0.03 0.07,-0.06 0.1,-0.09 0.04,-0.03 0.07,-0.06 0.1,-0.09 0.03,-0.03 0.06,-0.06 0.09,-0.09 0.02,-0 0.03,-0.02 0.05,-0.05 -0.04,0.01 -0.07,0.02 -0.08,0.02 -0.06,0.03 -0.11,0.06 -0.15,0.1 -0.04,0.04 -0.1,0.06 -0.17,0.08 -0.02,0 -0.04,0.02 -0.06,0.05 -0.02,0.03 -0.04,0.05 -0.05,0.08 -0.03,0.04 -0.05,0.07 -0.07,0.09 -0.02,0.02 -0.06,0.03 -0.11,0.03 -0.06,0.01 -0.1,-0 -0.11,-0.02 -0.01,-0.02 -0.03,-0.04 -0.05,-0.07 -0.05,-0.1 -0.06,-0.19 -0.03,-0.28 0.03,-0.09 0.1,-0.19 0.2,-0.29 0.16,-0.16 0.33,-0.32 0.51,-0.47 0.18,-0.15 0.37,-0.3 0.58,-0.44 0.06,-0.05 0.11,-0.09 0.15,-0.13 0.03,-0.04 0.07,-0.09 0.1,-0.14 0.03,-0.07 0.06,-0.13 0.09,-0.18 0.03,-0.06 0.06,-0.12 0.09,-0.18 0.06,-0.1 0.14,-0.12 0.24,-0.05 0.08,0.05 0.14,0.03 0.2,-0.04 0.03,-0.04 0.06,-0.08 0.08,-0.11 0.02,-0.03 0.05,-0.07 0.08,-0.11 0.01,-0.01 0.02,-0.02 0.04,-0.04 0.02,-0.01 0.04,-0.02 0.07,-0.03 0.02,0.01 0.03,0.02 0.05,0.03 0.02,0.01 0.03,0.02 0.03,0.04 0,0.02 0.01,0.04 0.01,0.06 0,0.02 0,0.04 -0,0.07 -0.02,0.01 -0.04,0.02 -0.06,0.04 -0.02,0.01 -0.03,0.03 -0.05,0.04 -0.01,0.01 -0,0.03 0.03,0.05 0.01,-0.01 0.03,-0.02 0.05,-0.03 0.02,-0 0.03,-0.01 0.03,-0.01l-0.01 -0.09zm29.78 -1.59c-0.14,0.04 -0.29,0.07 -0.43,0.1 -0.14,0.03 -0.29,0.06 -0.44,0.1 -0.06,0.01 -0.11,0.03 -0.15,0.06 -0.04,0.03 -0.07,0.06 -0.11,0.09 -0.17,0.18 -0.34,0.36 -0.51,0.54 -0.17,0.18 -0.34,0.36 -0.51,0.54 -0.08,0.09 -0.17,0.17 -0.26,0.26 -0.09,0.08 -0.18,0.17 -0.27,0.26l-0.24 0.17c-0.01,0.01 -0.02,0.02 -0.03,0.02 -0.01,-0 -0.02,-0.01 -0.03,-0.01 -0.02,-0 -0.03,-0.01 -0.03,-0.04l0.08 -0.15 0.45 -0.79c0,0 -0,-0.02 -0.01,-0.05l-0.05 0.04c-0.12,0.14 -0.26,0.28 -0.41,0.43l-0.18 0.18 -0.05 0.04c-0,-0.01 -0,-0.02 -0.01,-0.03 -0,-0.01 -0,-0.02 0,-0.03l0.17 -0.27 0.21 -0.31c0.01,-0.01 0.02,-0.02 0.01,-0.03 -0,-0 -0,-0.02 0,-0.03 -0.04,0.03 -0.07,0.05 -0.08,0.05 -0.02,0 -0.04,0 -0.04,-0 -0,-0.03 0.01,-0.07 0.05,-0.1 0.05,-0.07 0.09,-0.14 0.14,-0.21 0.05,-0.07 0.1,-0.14 0.15,-0.22 0.01,-0.01 0.02,-0.03 0.02,-0.04 -0,-0.01 -0.02,-0.02 -0.06,-0.01 -0.02,-0 -0.05,0 -0.07,0.01 -0.02,0.01 -0.05,0.01 -0.07,0 -0.04,-0 -0.09,0 -0.14,0.01 -0.05,0.01 -0.09,-0.01 -0.1,-0.05 -0.02,-0.06 -0.05,-0.11 -0.08,-0.16 -0.03,-0.05 -0.02,-0.11 0.05,-0.19 -0,-0.02 0.01,-0.03 0.03,-0.04 0.12,-0.04 0.18,-0.1 0.17,-0.17 -0,-0.01 0.01,-0.01 0.03,-0.02 0.02,-0.01 0.04,-0.02 0.06,-0.02 0.05,-0.01 0.1,-0.02 0.14,-0.02 0.04,-0 0.08,-0.01 0.13,-0.01 0.05,-0 0.1,-0.01 0.15,-0.02 0.05,-0.01 0.1,-0.03 0.14,-0.07 0.01,-0.01 0.04,-0.02 0.07,-0.03 0.03,-0.01 0.06,-0.02 0.09,-0.02 0.06,-0 0.11,-0.02 0.15,-0.05 0.04,-0.03 0.08,-0.06 0.11,-0.1 0.17,-0.2 0.34,-0.41 0.51,-0.61 0.17,-0.2 0.33,-0.4 0.49,-0.61 0.24,-0.3 0.48,-0.59 0.73,-0.88 0.25,-0.29 0.52,-0.58 0.8,-0.87 0.06,-0.07 0.12,-0.14 0.17,-0.21 0.05,-0.07 0.12,-0.14 0.18,-0.22 0.04,-0.05 0.08,-0.08 0.11,-0.09 0.03,-0.01 0.08,-0.01 0.15,0.01 0.06,0 0.09,0.03 0.08,0.08 -0.01,0.01 -0,0.02 0,0.04 0.01,0.01 0.02,0.02 0.04,0.01 0.02,-0 0.03,-0.01 0.05,-0.01 0.02,-0 0.04,-0.01 0.05,-0.03 0.03,-0.04 0.05,-0.08 0.08,-0.12 0.03,-0.05 0.06,-0.1 0.08,-0.13 0.02,-0.04 0.05,-0.08 0.08,-0.13 0.07,-0.09 0.13,-0.14 0.19,-0.17 0.06,-0.03 0.15,-0.04 0.26,-0.03 0.06,-0 0.11,0.01 0.14,0.04 0.03,0.03 0.06,0.06 0.09,0.09 0.01,0.04 0.01,0.06 0.02,0.06 0.14,0.07 0.22,0.15 0.24,0.25 0.03,0.1 0.02,0.21 -0.01,0.33 -0.05,0.2 -0.11,0.41 -0.17,0.61 -0.06,0.2 -0.12,0.4 -0.19,0.6 -0.06,0.15 -0.12,0.3 -0.19,0.44 -0.07,0.15 -0.13,0.3 -0.19,0.45 -0.04,0.08 -0.06,0.17 -0.08,0.26 -0.02,0.09 -0.04,0.17 -0.07,0.25 -0.02,0.05 0.01,0.07 0.08,0.06l0.53 -0.1c0.02,-0 0.03,-0 0.03,0.01 0.01,0.01 0.02,0.01 0.03,0.01 -0.01,0.01 -0.03,0.02 -0.04,0.03l-0.39 0.18 -0.04 0.03c0.02,-0 0.03,-0 0.03,0 0,0 0.01,0.01 0.02,0l0.13 -0.02c0.01,-0 0.02,-0 0.03,0 0.01,0 0.03,0.01 0.04,0.01l-0.07 0.03c-0.04,0.01 -0.07,0.02 -0.1,0.03 -0.03,0.01 -0.06,0.02 -0.09,0.04l-0.18 0.09c0.02,-0 0.05,-0.01 0.09,-0.01 0.03,-0 0.07,-0.01 0.11,-0.03 0.09,-0.02 0.18,-0.04 0.28,-0.05 0.09,-0.02 0.18,-0.04 0.28,-0.06 0.01,-0 0.01,-0 0.02,0 0,0 0.01,0 0.02,0l0.01 -0c0,0.02 -0.01,0.04 -0.04,0.05 -0.12,0.04 -0.24,0.08 -0.36,0.13 -0.12,0.04 -0.24,0.08 -0.36,0.12 -0.08,0.03 -0.14,0.06 -0.17,0.09 -0.03,0.03 -0.05,0.08 -0.07,0.13l-0.36 1.64 -0.02 0.05c0,0.01 -0.01,0.02 -0.02,0.03 0,0 -0,-0 -0.01,-0.01l-0 -0.01c0,-0.09 0,-0.19 -0,-0.27 -0,-0.09 -0,-0.18 0.01,-0.28 0,-0.1 0.01,-0.18 0.02,-0.26 0.01,-0.08 0.02,-0.16 0.03,-0.25 -0,-0.01 -0.01,-0.02 -0.03,-0.04 -0.01,0.02 -0.02,0.03 -0.02,0.03 -0.01,0.02 -0.02,0.06 -0.03,0.11 -0.07,0.21 -0.15,0.43 -0.22,0.65 -0.07,0.22 -0.14,0.44 -0.2,0.66l-0.03 0.11c0,0 -0.01,0 -0.02,0.01 -0.03,0.01 -0.05,0 -0.05,-0.01 -0.02,-0.04 -0.04,-0.08 -0.06,-0.13 -0.02,-0.05 -0.04,-0.09 -0.04,-0.13 -0,-0.14 -0.01,-0.28 -0.02,-0.42 -0.01,-0.14 -0.02,-0.27 -0.02,-0.41l0.01 -0.44c-0,-0.01 -0,-0.02 -0.01,-0.02 -0,-0 -0.01,-0.01 -0.01,-0.02 0,0.01 -0,0.03 -0.02,0.05 -0.05,0.22 -0.1,0.43 -0.14,0.64 -0.04,0.21 -0.08,0.42 -0.12,0.63 -0.02,0.09 -0.04,0.18 -0.05,0.27 -0.01,0.09 -0.03,0.18 -0.05,0.28l0.01 0.04c-0.02,-0.02 -0.03,-0.03 -0.03,-0.04 0,-0.16 0.01,-0.31 0.01,-0.47 0,-0.16 0.01,-0.31 0.03,-0.47l0.16 -1.2c-0,-0.01 0,-0.01 0,-0.02 0,-0.01 0,-0.02 0,-0.03 0.01,-0.04 -0.02,-0.06 -0.08,-0.04l-0.34 0.07zm0.11 -0.6l0.01 -0c0.05,-0.01 0.09,-0.02 0.13,-0.02 0.04,-0.01 0.08,-0.01 0.12,-0.02 0.07,-0.01 0.11,-0.03 0.13,-0.04 0.01,-0.01 0.03,-0.04 0.03,-0.09l0.04 -0.2c0.04,-0.17 0.08,-0.34 0.12,-0.51 0.04,-0.17 0.08,-0.34 0.12,-0.51 0.01,-0.01 0,-0.02 -0,-0.03 -0.01,-0.01 -0.01,-0.02 -0.02,-0.03 -0.01,0.01 -0.02,0.01 -0.03,0.02 -0.01,0 -0.02,0.01 -0.03,0.03 -0.12,0.2 -0.25,0.39 -0.39,0.58 -0.14,0.19 -0.29,0.38 -0.44,0.57 -0.04,0.05 -0.08,0.09 -0.12,0.14 -0.04,0.04 -0.07,0.09 -0.08,0.14l0.39 -0.03zm0.17 0.18c-0.03,0.01 -0.06,0.01 -0.09,0.02 -0.03,0.01 -0.06,0.02 -0.09,0.02 -0.03,0.02 -0.05,0.03 -0.06,0.03 0.03,0.01 0.04,0.02 0.05,0.02 0.05,-0.01 0.11,-0.01 0.15,-0.02 0.05,-0.01 0.1,-0.02 0.15,-0.03 0.02,-0 0.03,-0.01 0.03,-0.02 0.01,-0.01 0.02,-0.02 0.03,-0.03 -0.02,-0 -0.03,-0.01 -0.03,-0.01 -0,-0 -0.01,-0.01 -0.03,-0l-0.12 0.02zm-17.02 5.16c-0.01,-0.24 0,-0.47 0.02,-0.71 0.02,-0.24 0.05,-0.47 0.08,-0.71 0.02,-0.16 0.04,-0.31 0.06,-0.47 0.02,-0.15 0.05,-0.31 0.07,-0.47 0.01,-0 0.01,-0.01 0,-0.01 -0.01,-0.01 -0.02,-0.01 -0.03,-0.01 -0.03,0.01 -0.05,0.01 -0.05,0.02l-0.12 0.15c-0.22,0.22 -0.45,0.44 -0.67,0.66 -0.22,0.22 -0.44,0.43 -0.65,0.64 -0.07,0.07 -0.14,0.14 -0.21,0.19 -0.07,0.05 -0.14,0.11 -0.21,0.17 -0.11,0.07 -0.22,0.1 -0.33,0.09 -0.02,-0.01 -0.05,-0.01 -0.08,-0.02 -0.03,-0.01 -0.04,-0.03 -0.05,-0.05 -0.02,-0.04 -0.04,-0.08 -0.07,-0.13 -0.02,-0.05 -0.05,-0.1 -0.08,-0.15 -0.01,-0.03 -0.02,-0.05 -0.02,-0.09 -0,-0.03 -0.02,-0.06 -0.04,-0.08 -0.08,-0.13 -0.17,-0.26 -0.26,-0.39 -0.09,-0.13 -0.18,-0.26 -0.27,-0.39 -0.01,0 -0.01,-0 -0.01,-0.01 -0,-0.01 -0,-0.01 -0.01,-0.01 -0,0 -0.01,-0 -0.01,-0.01 -0.03,0.02 -0.05,0.03 -0.05,0.04 -0.01,0.04 -0.02,0.07 -0.03,0.1 -0.01,0.03 -0.02,0.06 -0.03,0.09 -0.08,0.24 -0.15,0.48 -0.22,0.72 -0.07,0.24 -0.14,0.48 -0.22,0.71 -0.01,0.05 -0.02,0.09 -0.04,0.14 -0.02,0.05 -0.03,0.09 -0.04,0.14 -0.01,0.01 -0.01,0.02 -0.03,0.03 -0.01,0.01 -0.02,0.01 -0.03,0.02 -0,-0.01 -0.01,-0.02 -0.02,-0.03 -0.01,-0.01 -0.01,-0.02 -0,-0.03 0.02,-0.11 0.03,-0.23 0.04,-0.35 0.01,-0.12 0.03,-0.24 0.05,-0.35 0,-0.09 0.02,-0.18 0.04,-0.27 0.02,-0.09 0.04,-0.18 0.05,-0.28l-0.01 -0.06c-0.01,0.01 -0.03,0.04 -0.06,0.07 -0.02,0.04 -0.03,0.09 -0.04,0.13 -0.01,0.05 -0.02,0.09 -0.04,0.13 -0.13,0.34 -0.25,0.68 -0.37,1.01 -0.12,0.33 -0.25,0.67 -0.39,1.01 -0.01,0.02 -0.02,0.05 -0.03,0.07 -0.01,0.02 -0.02,0.05 -0.04,0.08 0,0.01 -0,0.02 -0.01,0.03 -0.01,0.01 -0.02,0.02 -0.03,0.03 -0,-0.01 -0,-0.02 -0.01,-0.03 -0,-0.01 -0,-0.02 0,-0.03 0,-0.03 0.01,-0.05 0.01,-0.08 0,-0.02 0.01,-0.05 0.01,-0.08 0.06,-0.17 0.12,-0.33 0.16,-0.48 0.04,-0.16 0.1,-0.32 0.16,-0.49 0,-0.03 0.01,-0.06 0.02,-0.09 0.01,-0.03 0.01,-0.05 0.01,-0.07 0.01,-0.02 0,-0.04 -0,-0.05 -0.01,-0.01 -0.01,-0.02 -0.01,-0.03 0,0 -0.01,0.01 -0.02,0.04 -0.01,0.03 -0.03,0.06 -0.04,0.1 -0.02,0.03 -0.03,0.07 -0.04,0.1 -0.07,0.16 -0.13,0.32 -0.19,0.47 -0.06,0.16 -0.13,0.32 -0.2,0.48 -0,0.02 -0.01,0.05 -0.02,0.07 -0.01,0.02 -0.02,0.04 -0.04,0.04 -0.04,-0 -0.06,-0.02 -0.07,-0.04 -0.01,-0.02 -0.01,-0.05 -0,-0.08 -0,-0.02 -0,-0.04 -0,-0.07 0,-0.02 -0,-0.05 -0.01,-0.09 0,-0.02 0.01,-0.04 0.01,-0.06 0,-0.02 -0.02,-0.04 -0.07,-0.05 -0.04,-0.02 -0.06,-0.05 -0.07,-0.09 -0,-0.04 0,-0.08 0.01,-0.12 0.02,-0.11 0.03,-0.23 0.04,-0.35 0.01,-0.12 0.03,-0.23 0.04,-0.35 0.11,-0.59 0.24,-1.18 0.37,-1.77 0.14,-0.58 0.3,-1.17 0.47,-1.76 0.03,-0.1 0.05,-0.2 0.06,-0.3 0.02,-0.09 0.01,-0.2 -0.01,-0.3 -0.03,-0.08 -0.03,-0.17 -0.02,-0.25 0.02,-0.08 0.04,-0.17 0.07,-0.25 0.01,-0.06 0.06,-0.09 0.15,-0.11 0.09,-0.01 0.16,-0.01 0.22,-0 0.06,0.01 0.12,0.04 0.18,0.09 0.07,0.06 0.17,0.12 0.3,0.18 0.03,0.02 0.05,0.03 0.06,0.02 0.01,-0.01 0.03,-0.03 0.04,-0.05 0.04,-0.05 0.08,-0.07 0.1,-0.07 0.03,-0 0.07,0.01 0.12,0.04 0.13,0.1 0.22,0.22 0.26,0.36 0.1,0.29 0.2,0.58 0.3,0.88 0.1,0.29 0.2,0.59 0.3,0.89 0,0.03 0.01,0.05 0.02,0.06 0.02,0.05 0.05,0.04 0.07,-0.01 0.01,-0 0.02,0.02 0.04,0.06 0.02,0.04 0.04,0.08 0.07,0.13 0.02,0.05 0.04,0.09 0.06,0.13 0.02,0.04 0.03,0.05 0.04,0.05 0.2,-0.25 0.39,-0.5 0.58,-0.77 0.19,-0.26 0.38,-0.52 0.58,-0.79 0.2,-0.26 0.4,-0.52 0.61,-0.78 0.21,-0.25 0.42,-0.5 0.64,-0.73 0.06,-0.06 0.12,-0.13 0.18,-0.22 0.07,-0.09 0.13,-0.16 0.18,-0.22 0.04,-0.04 0.08,-0.07 0.12,-0.09 0.04,-0.03 0.08,-0.05 0.13,-0.05 0.09,-0.01 0.17,-0.03 0.23,-0.05 0.06,-0.02 0.12,-0.01 0.18,0.04 0.04,0.04 0.08,0.06 0.13,0.06 0.03,0.02 0.04,0.04 0.04,0.04 -0.01,0.05 -0.01,0.08 0.01,0.1 0.03,0.04 0.06,0.08 0.1,0.11 0.04,0.03 0.07,0.05 0.09,0.07 0.03,0.02 0.05,0.04 0.07,0.07 0.02,0.03 0.04,0.07 0.06,0.11 0,0.01 0,0.03 -0,0.06 -0,0.03 -0.01,0.06 -0.02,0.1 -0.01,0.03 -0.01,0.07 -0.02,0.1 -0,0.03 0,0.06 0.01,0.07 0.05,0.08 0.05,0.16 0.01,0.24 -0.22,0.4 -0.41,0.8 -0.55,1.21 -0.15,0.41 -0.3,0.82 -0.45,1.24 -0.13,0.36 -0.25,0.73 -0.35,1.08 -0.1,0.36 -0.18,0.71 -0.24,1.07 -0,0.02 -0.01,0.04 -0.01,0.06 -0,0.01 -0.01,0.03 -0.01,0.05 0,0.02 -0.01,0.03 -0.03,0.03 -0,-0.01 -0,-0.01 -0.01,-0.02 -0,-0 -0.01,-0.01 -0.01,-0.02 0,-0.05 0,-0.1 -0,-0.14 -0,-0.04 -0,-0.09 -0,-0.14 -0,-0.01 -0,-0.02 -0.01,-0.02 -0,-0 -0.01,-0.01 -0.01,-0.02 -0.01,0.01 -0.02,0.02 -0.03,0.05 -0.02,0.06 -0.03,0.12 -0.04,0.18 -0.01,0.06 -0.02,0.12 -0.03,0.17 0,0.01 -0,0.03 -0.01,0.05 -0.01,0.02 -0.02,0.04 -0.03,0.06 -0,-0.02 -0.01,-0.04 -0.03,-0.06 -0.02,-0.02 -0.02,-0.03 -0.02,-0.04 0,-0.08 0.01,-0.17 0.01,-0.25 0.01,-0.08 0.01,-0.16 0.02,-0.24 0.02,-0.16 0.04,-0.33 0.07,-0.48 0.03,-0.16 0.05,-0.32 0.07,-0.48 0.01,-0 0.01,-0.01 0,-0.02 -0.01,-0.01 -0.01,-0.02 -0.01,-0.03 -0.01,0.01 -0.01,0.02 -0.01,0.03 -0,0.01 -0.01,0.02 -0.03,0.03 -0.01,0.01 -0.03,0.03 -0.03,0.06 -0.01,0.02 -0.02,0.05 -0.03,0.07 -0.07,0.21 -0.14,0.43 -0.21,0.65 -0.07,0.22 -0.14,0.44 -0.2,0.65 0,0.02 0,0.03 0,0.05 -0,0.02 -0.01,0.03 -0.02,0.05 -0.01,0.01 -0.03,0.04 -0.06,0.07 -0.02,-0.02 -0.03,-0.04 -0.03,-0.05 -0.02,-0.06 -0.04,-0.12 -0.05,-0.18 -0.01,-0.06 -0.02,-0.12 -0.04,-0.18zm-2.33 -2.62c0,0.01 0,0.02 -0,0.03 -0,0.01 -0,0.02 -0,0.03 0.03,0.1 0.05,0.2 0.07,0.29 0.02,0.09 0.04,0.18 0.07,0.27 0.01,0.04 0.02,0.07 0.03,0.1 0.01,0.03 0.01,0.07 0.02,0.1 0,0.02 0.01,0.02 0.04,0.02 0.02,-0 0.03,-0.01 0.04,-0.03 0.01,-0.03 0.03,-0.06 0.04,-0.09 0.02,-0.03 0.02,-0.05 0.01,-0.07 -0.05,-0.11 -0.09,-0.21 -0.14,-0.32 -0.05,-0.1 -0.1,-0.21 -0.14,-0.32 -0.01,-0.01 -0.02,-0.02 -0.02,-0.02 -0,-0 -0.01,-0.01 -0.02,-0.02zm0.51 0.39c-0.05,-0.11 -0.1,-0.21 -0.15,-0.32 -0.05,-0.11 -0.1,-0.22 -0.15,-0.32 -0,-0.01 -0.01,-0.02 -0.03,-0.03 -0.01,0.01 -0.02,0.03 -0.01,0.03 0.03,0.08 0.05,0.16 0.08,0.23 0.03,0.08 0.05,0.15 0.08,0.22 0.01,0.04 0.03,0.08 0.04,0.13 0.01,0.04 0.03,0.09 0.04,0.13 0,0.02 0.01,0.02 0.03,0.02 0.01,-0.01 0.01,-0.01 0.02,-0.01 0.01,-0 0.01,-0.01 0.01,-0.02 0.03,-0.02 0.04,-0.04 0.04,-0.07zm14.12 -4.05c0.02,0.12 0.02,0.24 0,0.34 -0.01,0.1 -0.04,0.2 -0.07,0.3 -0.13,0.42 -0.33,0.81 -0.61,1.19 -0.28,0.37 -0.65,0.73 -1.1,1.06 -0.28,0.21 -0.56,0.42 -0.85,0.62 -0.29,0.2 -0.57,0.41 -0.86,0.61 -0.17,0.12 -0.33,0.23 -0.49,0.34 -0.16,0.11 -0.33,0.22 -0.5,0.33 -0.05,0.03 -0.1,0.06 -0.14,0.08 -0.04,0.02 -0.09,0.05 -0.14,0.07 -0.01,0.01 -0.03,0.01 -0.03,0.01 -0.01,-0 -0.02,-0 -0.03,0 0.01,-0 0.02,-0.02 0.04,-0.05 0.04,-0.03 0.08,-0.06 0.12,-0.09 0.04,-0.03 0.08,-0.06 0.12,-0.09 0.11,-0.09 0.21,-0.18 0.32,-0.26 0.11,-0.08 0.21,-0.17 0.31,-0.25 0.01,-0.01 0.02,-0.03 0.05,-0.04 0.03,-0.03 0.05,-0.05 0.06,-0.07 0.01,-0.02 0.03,-0.03 0.04,-0.05 -0.02,0.01 -0.05,0.02 -0.07,0.03 -0.03,0.01 -0.05,0.02 -0.07,0.03 -0.03,0.02 -0.06,0.04 -0.1,0.07 -0.04,0.03 -0.07,0.05 -0.11,0.07 -0.08,0.04 -0.16,0.09 -0.24,0.13 -0.08,0.05 -0.17,0.09 -0.26,0.13 -0.01,0.01 -0.03,0.02 -0.06,0.03 -0.03,0.01 -0.06,0.01 -0.1,0.03 0.05,-0.04 0.08,-0.07 0.09,-0.11 0.07,-0.05 0.13,-0.1 0.18,-0.15 0.02,-0 0.03,-0.02 0.03,-0.04 -0,-0.01 -0.01,-0.01 -0.03,-0.01 -0.02,0 -0.03,0.01 -0.05,0.01 -0.1,0.02 -0.17,0.05 -0.21,0.08 -0.04,0.03 -0.07,0.08 -0.09,0.15 -0.02,0.12 -0.05,0.23 -0.08,0.34 -0.03,0.11 -0.07,0.22 -0.1,0.34 -0.01,0.02 -0.01,0.03 -0.02,0.05 -0.01,0.01 -0.01,0.02 -0.02,0.04 -0,-0.01 -0.01,-0.02 -0.02,-0.03 -0.01,-0.01 -0.01,-0.03 -0.01,-0.04 0.01,-0.11 0.02,-0.22 0.03,-0.33 0.01,-0.11 0.03,-0.22 0.04,-0.34 0.01,-0.02 0.01,-0.04 0.02,-0.06 0.01,-0.02 -0.01,-0.03 -0.05,-0.04 -0.05,0 -0.09,0.01 -0.13,0.02 -0.04,0.01 -0.08,0.03 -0.11,0.07 -0.01,0.04 -0.02,0.06 -0.03,0.07 -0.02,0.04 -0.03,0.08 -0.03,0.11 -0,0.03 -0.04,0.06 -0.12,0.08 -0.02,0 -0.03,0.02 -0.05,0.05 -0.02,0.03 -0.03,0.06 -0.04,0.09 -0.05,0.11 -0.09,0.23 -0.14,0.35 -0.04,0.12 -0.09,0.23 -0.15,0.35 -0.01,0.02 -0.02,0.05 -0.04,0.08 -0.01,0.03 -0.02,0.06 -0.04,0.09 -0.01,0.01 -0.03,0.01 -0.06,0.02 -0.01,0 -0.02,0 -0.02,-0 -0.01,-0 -0.01,-0.01 -0.01,-0.02 -0,-0.02 -0.01,-0.05 -0.01,-0.07 -0,-0.03 0,-0.06 0.01,-0.09 0.02,-0.17 0.03,-0.35 0.05,-0.52 0.02,-0.17 0.05,-0.34 0.09,-0.51 0.1,-0.53 0.21,-1.04 0.33,-1.56 0.11,-0.51 0.23,-1.03 0.34,-1.55 0.01,-0.05 0.01,-0.09 0.01,-0.13 -0,-0.04 -0.02,-0.08 -0.07,-0.11 -0.16,-0.14 -0.17,-0.32 -0.03,-0.54 0.04,-0.06 0.09,-0.12 0.14,-0.17 0.05,-0.06 0.11,-0.11 0.16,-0.17 0.09,-0.09 0.15,-0.18 0.16,-0.27 0.06,-0.17 0.11,-0.34 0.16,-0.51 0.05,-0.17 0.1,-0.34 0.14,-0.51 0.03,-0.03 0.04,-0.05 0.04,-0.07 0.02,-0.03 0.03,-0.07 0.04,-0.1 0.01,-0.04 0.04,-0.06 0.1,-0.07 0.06,-0.01 0.13,-0.01 0.19,-0.02 0.07,-0.01 0.12,0.01 0.17,0.06 0.02,0.01 0.03,0.03 0.05,0.04 0.01,0.01 0.03,0.03 0.04,0.04 0.01,0.01 0.02,0.02 0.02,0.04 0.01,0.02 0.02,0.03 0.04,0.02 0.07,0.02 0.11,0.05 0.13,0.1 0.02,0.04 0.04,0.09 0.06,0.13 0.01,0 0.01,0.01 0.01,0.02 -0,0.01 0,0.02 0.01,0.03 0.01,0.02 0.01,0.04 0,0.07 -0.01,0.03 0.02,0.05 0.08,0.06 0.01,-0.03 0.03,-0.06 0.04,-0.08 0.02,-0.02 0.03,-0.05 0.04,-0.07 0.06,-0.09 0.12,-0.11 0.18,-0.05 0.04,0.03 0.07,0.05 0.09,0.05 0.02,0 0.07,-0.01 0.13,-0.03 0.39,-0.13 0.8,-0.22 1.22,-0.26 0.45,-0.03 0.81,0.02 1.09,0.14 0.28,0.12 0.49,0.33 0.65,0.63 0.02,0.05 0.04,0.1 0.05,0.16 0.01,0.05 0.03,0.1 0.05,0.13zm-2.03 -0.04c-0.23,0.05 -0.45,0.12 -0.67,0.2 -0.22,0.08 -0.43,0.18 -0.64,0.29 -0.06,0.04 -0.11,0.08 -0.15,0.12 -0.04,0.04 -0.07,0.09 -0.07,0.15 -0.15,0.43 -0.3,0.85 -0.44,1.27 -0.15,0.42 -0.29,0.84 -0.43,1.26 -0.03,0.1 -0.06,0.19 -0.09,0.28 -0.02,0.09 -0.05,0.18 -0.08,0.27 0.14,-0.04 0.27,-0.1 0.36,-0.17 0.1,-0.07 0.2,-0.14 0.32,-0.21 0.04,-0.02 0.07,-0.05 0.11,-0.08 0.04,-0.03 0.08,-0.07 0.11,-0.1 0.36,-0.35 0.7,-0.71 1.04,-1.07 0.34,-0.36 0.67,-0.73 1,-1.1 0.15,-0.17 0.26,-0.34 0.32,-0.51 0.06,-0.17 0.1,-0.35 0.12,-0.53 0.01,-0.07 -0.03,-0.11 -0.13,-0.12 -0.12,0.01 -0.23,0.01 -0.35,0.03 -0.11,0.01 -0.23,0.02 -0.35,0.03zm0.04 -0.38c-0.03,0.02 -0.06,0.03 -0.08,0.03 0.02,0.01 0.03,0.02 0.05,0.04 0.03,0.01 0.07,0.02 0.12,0.03 0.04,0.01 0.08,0.03 0.09,0.04 0.06,0.06 0.12,0.09 0.21,0.09 0.08,0.01 0.17,0.01 0.26,0.02 0.05,0 0.08,-0.01 0.09,-0.02 0.01,-0.02 0.02,-0.03 0.03,-0.05 0.01,-0.05 -0.01,-0.08 -0.06,-0.1 -0.05,-0.02 -0.11,-0.03 -0.17,-0.03 -0.04,0 -0.07,0.01 -0.09,0.02 -0.02,0.01 -0.04,0 -0.06,-0.02 -0.04,-0.05 -0.09,-0.07 -0.16,-0.07 -0.07,0 -0.12,0.01 -0.17,0l-0.06 0.01zm-0.91 3.09c0.01,-0 0.02,-0.01 0.02,-0.01 0.13,-0.1 0.26,-0.2 0.38,-0.3 0.12,-0.1 0.22,-0.22 0.29,-0.34 0.01,-0.01 0.01,-0.02 0.01,-0.03l-0.03 0.01c-0.12,0.11 -0.23,0.22 -0.34,0.32 -0.11,0.1 -0.22,0.21 -0.34,0.31 -0.01,0.01 -0.01,0.02 -0.01,0.03l0.02 0zm2.21 -2.34c-0.03,-0.01 -0.05,-0.03 -0.07,-0.06 -0.01,0.01 -0.03,0.02 -0.04,0.03 -0.01,0.01 -0.02,0.01 -0.01,0.02 -0.04,0.08 -0.08,0.15 -0.12,0.22 -0.03,0.07 -0.07,0.14 -0.11,0.22 -0.01,0.02 -0.01,0.04 -0,0.06 0,0.02 0.01,0.04 0.01,0.06 0.01,-0.01 0.03,-0.03 0.04,-0.05 0.01,-0.02 0.02,-0.04 0.05,-0.05 0.03,-0.05 0.06,-0.09 0.09,-0.14 0.03,-0.05 0.06,-0.1 0.09,-0.15 0.01,-0.02 0.03,-0.04 0.04,-0.07 0.01,-0.03 0.02,-0.06 0.04,-0.09zm-1.62 -0.52c-0.02,0 -0.04,0.01 -0.08,0.02 -0.04,0.01 -0.07,0.02 -0.1,0.03 -0.04,0.02 -0.07,0.03 -0.11,0.05 -0.03,0.01 -0.07,0.03 -0.11,0.05 0.04,-0.01 0.08,-0.01 0.11,-0.01 0.04,-0 0.07,-0 0.1,-0 0.1,-0.01 0.2,-0.03 0.3,-0.05 0.1,-0.02 0.21,-0.03 0.33,-0.05 0.01,-0 0.01,-0 0.02,-0.01 0,-0 0.01,-0.01 0.03,-0.01 -0.02,-0.01 -0.03,-0.01 -0.03,-0.02 -0,-0.01 -0.01,-0.01 -0.01,-0.01 -0.07,-0.02 -0.14,-0.02 -0.21,-0.01 -0.07,0.01 -0.15,0.02 -0.24,0.04zm1.67 0.18c-0.01,0.01 -0.02,0.02 -0.03,0.02 -0,0.01 -0.01,0.01 -0.02,0.02 -0,0.02 -0.01,0.04 -0,0.06 0,0.02 0,0.03 0.01,0.04 0,0 0.01,0.01 0.03,0.03 -0,-0.01 0.01,-0.02 0.02,-0.03 0.01,-0.02 0.02,-0.04 0.02,-0.05 -0,-0.02 0,-0.03 0.02,-0.05l-0.04 -0.04zm-4.46 4.1c0.01,-0.01 0.01,-0.02 0.01,-0.03 0.01,-0.03 0.02,-0.06 0.02,-0.09 0,-0.03 0.01,-0.06 0.01,-0.09 0,0 -0,-0 -0.01,-0.01 -0.02,0.03 -0.03,0.06 -0.04,0.09 -0,0.03 -0.01,0.06 -0.02,0.09 -0.01,0 0,0.01 0.03,0.04zm4.68 0.34c0,-0.08 0.01,-0.18 0.02,-0.27 0.01,-0.1 0.03,-0.2 0.06,-0.3 0.19,-1.22 0.48,-2.43 0.88,-3.64 0.1,-0.31 0.21,-0.61 0.34,-0.92 0.13,-0.3 0.27,-0.61 0.44,-0.9 0.02,-0.04 0.04,-0.07 0.06,-0.1 0.02,-0.03 0.04,-0.06 0.06,-0.09 0.04,-0.07 0.11,-0.12 0.23,-0.14 0.12,-0.02 0.2,-0.01 0.26,0.05 0.04,0.03 0.08,0.06 0.11,0.1 0.03,0.04 0.06,0.07 0.08,0.1 0.02,0.03 0.04,0.05 0.06,0.05 0.02,-0 0.06,-0.02 0.11,-0.05 0.06,-0.04 0.11,-0.04 0.17,0 0.01,0.02 0.02,0.03 0.04,0.03 0.02,0.01 0.03,0.02 0.05,0.02 0.04,0.03 0.07,0.02 0.08,-0.02 -0.01,0 0,-0.01 0.03,-0.02 0.03,-0.03 0.05,-0.07 0.08,-0.1 0.03,-0.03 0.07,-0.06 0.13,-0.07 0.06,-0.01 0.12,0.02 0.17,0.08 0.05,0.06 0.06,0.12 0.05,0.17 -0.02,0.04 -0.04,0.09 -0.07,0.13 -0.03,0.05 -0.05,0.09 -0.09,0.14 -0.22,0.41 -0.45,0.81 -0.68,1.21 -0.23,0.4 -0.44,0.8 -0.62,1.22 -0.25,0.53 -0.48,1.06 -0.68,1.58 -0.2,0.52 -0.36,1.05 -0.47,1.59 -0.01,0.01 -0.02,0.03 -0.03,0.05 -0.01,0.02 -0.01,0.04 -0.03,0.05 0,0.01 -0,0.01 -0,0.01 -0,0 -0.01,0 -0,0.01l0 0.01c-0.01,-0.01 -0.02,-0.01 -0.03,-0.02 -0.01,-0 -0.01,-0 -0.01,-0.01 -0,-0.04 -0.01,-0.07 -0,-0.11 0,-0.03 0.01,-0.07 0.01,-0.12 0.05,-0.36 0.12,-0.73 0.22,-1.08 0.1,-0.36 0.22,-0.72 0.34,-1.07 0.02,-0.06 0.03,-0.11 0.05,-0.16 0.02,-0.05 0.03,-0.1 0.04,-0.14 -0,-0.01 -0,-0.01 -0,-0.02 -0,-0.01 0,-0.02 0.01,-0.03 -0.03,0.03 -0.05,0.05 -0.06,0.07 -0.03,0.06 -0.06,0.12 -0.08,0.17 -0.02,0.05 -0.04,0.11 -0.05,0.16 -0.1,0.23 -0.19,0.46 -0.27,0.69 -0.08,0.23 -0.16,0.46 -0.26,0.69 -0.01,0.02 -0.03,0.05 -0.04,0.07 -0.01,0.02 -0.02,0.05 -0.02,0.08l-0.02 0c-0.01,0 -0.02,0 -0.02,-0 -0.01,-0 -0.01,-0.01 -0.01,-0.01 0,-0.03 0.01,-0.06 0.01,-0.09 0,-0.03 0,-0.05 0,-0.07 0.06,-0.17 0.11,-0.35 0.15,-0.52 0.04,-0.17 0.09,-0.35 0.13,-0.52 0.01,-0.01 0.01,-0.02 0,-0.04 -0.01,-0.01 -0.01,-0.03 -0.01,-0.04 -0.03,0.03 -0.04,0.06 -0.04,0.09 -0.08,0.21 -0.16,0.42 -0.23,0.62 -0.07,0.2 -0.14,0.41 -0.22,0.63 -0.05,0.14 -0.09,0.28 -0.13,0.43 -0.04,0.15 -0.09,0.3 -0.13,0.45 -0.01,0.03 -0.04,0.05 -0.07,0.07 -0,-0.01 -0.01,-0.01 -0.01,-0.02 -0.01,-0.01 -0.02,-0.02 -0.03,-0.03l-0.01 -0.1zm-26.11 2.89c-0.03,0.01 -0.06,0.03 -0.08,0.05 -0.1,0.26 -0.2,0.51 -0.31,0.77 -0.1,0.25 -0.21,0.51 -0.31,0.77 -0.01,0.01 -0.02,0.03 -0.01,0.04 0.01,0.02 0.01,0.03 0.01,0.04 0.02,-0.01 0.03,-0.01 0.06,-0.02 0.02,-0 0.04,-0.01 0.06,-0.02 0.23,-0.16 0.47,-0.31 0.7,-0.46 0.24,-0.15 0.47,-0.3 0.69,-0.46 0.19,-0.13 0.36,-0.27 0.52,-0.4 0.16,-0.14 0.31,-0.29 0.45,-0.44 0.05,-0.07 0.11,-0.13 0.16,-0.2 0.05,-0.07 0.1,-0.13 0.16,-0.21 0.04,-0.06 0.06,-0.11 0.05,-0.17 -0.01,-0.06 -0.05,-0.1 -0.11,-0.13 -0.03,-0.03 -0.06,-0.05 -0.1,-0.07 -0.04,-0.02 -0.07,-0.04 -0.1,-0.06 -0.05,-0.02 -0.1,-0.03 -0.15,-0.03 -0.05,-0 -0.11,0.02 -0.16,0.06 -0.1,0.06 -0.2,0.11 -0.29,0.16 -0.09,0.05 -0.18,0.11 -0.27,0.17 -0.14,0.11 -0.28,0.21 -0.41,0.32 -0.13,0.11 -0.25,0.22 -0.34,0.34 -0.07,0.09 -0.13,0.09 -0.17,0.03 -0.01,-0.02 -0.02,-0.04 -0.02,-0.05 -0.01,-0.01 -0.01,-0.02 -0.01,-0.04 0.01,-0.03 0.02,-0.06 0.04,-0.09 0.01,-0.03 0.03,-0.05 0.05,-0.06 0.31,-0.27 0.66,-0.5 1.06,-0.7 0.04,-0.02 0.07,-0.03 0.11,-0.05 0.04,-0.01 0.08,-0.03 0.11,-0.05 0.02,-0.01 0.04,-0.02 0.06,-0.05 -0.02,0 -0.03,0 -0.04,0 -0.01,-0 -0.02,-0 -0.04,0 -0.03,0.01 -0.06,0.01 -0.09,0.02 -0.03,0.01 -0.07,0.02 -0.1,0.03 -0.15,0.06 -0.3,0.12 -0.44,0.2 -0.14,0.08 -0.27,0.17 -0.39,0.28 -0.01,0.02 -0.03,0.04 -0.05,0.06 -0.02,0.02 -0.05,0.04 -0.08,0.06 -0.1,0.04 -0.17,0.09 -0.19,0.15 -0.02,0.06 -0.03,0.12 -0.02,0.19zm2.64 -3.74c-0.17,0.07 -0.33,0.13 -0.5,0.19 -0.17,0.06 -0.34,0.12 -0.51,0.17 -0.17,0.06 -0.3,0.17 -0.37,0.31 -0.1,0.22 -0.2,0.45 -0.31,0.68 -0.11,0.23 -0.21,0.45 -0.32,0.68 0,0.01 0,0.02 0.01,0.02 0,0 0.01,0.02 0.01,0.03 0.05,-0.01 0.09,-0.03 0.11,-0.05 0.4,-0.22 0.8,-0.45 1.19,-0.69 0.39,-0.24 0.76,-0.49 1.13,-0.77 0.06,-0.04 0.11,-0.09 0.16,-0.14 0.05,-0.05 0.11,-0.1 0.16,-0.14 0.05,-0.04 0.07,-0.08 0.07,-0.11 0,-0.03 -0.01,-0.06 -0.04,-0.1 -0.07,-0.07 -0.16,-0.12 -0.26,-0.14 -0.1,-0.02 -0.23,-0.01 -0.38,0.03l-0.16 0.03zm-4.05 5.73c0.01,0.04 0.02,0.06 0.04,0.06l0.07 -0.01c0.06,-0.03 0.11,-0.06 0.14,-0.1 0.03,-0.04 0.05,-0.08 0.04,-0.12 0.01,-0.05 0.02,-0.09 0.03,-0.13 0.01,-0.04 0.02,-0.08 0.03,-0.13 0.01,-0.07 0.02,-0.14 0.04,-0.2 0.02,-0.07 0.03,-0.14 0.04,-0.2 -0.08,0.07 -0.13,0.13 -0.17,0.2 -0.03,0.07 -0.07,0.14 -0.1,0.2 -0.04,0.07 -0.07,0.15 -0.09,0.22 -0.02,0.07 -0.05,0.15 -0.08,0.22zm3.74 -3.37c0,0.02 0,0.03 -0.01,0.04 -0.01,0.01 -0.01,0.02 0,0.02 0.04,0.04 0.07,0.07 0.09,0.1 0.02,0.03 0.05,0.06 0.08,0.1 0.04,0.05 0.1,0.05 0.18,-0 0.07,-0.05 0.09,-0.09 0.04,-0.12 -0.05,-0.02 -0.1,-0.04 -0.16,-0.06 -0.06,-0.02 -0.11,-0.04 -0.16,-0.06 0,0.01 -0.02,0 -0.06,-0.01zm0.99 0.47c-0,-0.01 -0.01,-0.03 -0.01,-0.05 -0.01,-0.02 -0.02,-0.04 -0.04,-0.06 -0.04,0.02 -0.06,0.04 -0.05,0.06 0.01,0.02 0.02,0.04 0,0.07 -0.01,0.02 -0.01,0.03 -0.01,0.05 0,0.02 0,0.04 -0,0.06 0,0.03 0,0.05 0,0.08 -0,0.03 -0,0.05 -0.01,0.08 0.06,-0.02 0.09,-0.05 0.08,-0.08 -0,-0.03 -0,-0.06 0.01,-0.09 0.01,-0.02 0.02,-0.06 0.01,-0.11zm-1.34 -2.78c-0.04,0.01 -0.09,0.03 -0.15,0.05 -0.06,0.02 -0.13,0.04 -0.19,0.08 -0.03,0.01 -0.06,0.02 -0.09,0.04 -0.03,0.02 -0.04,0.04 -0.04,0.05 0.02,0.04 0.05,0.05 0.08,0.03 0.03,-0.02 0.05,-0.03 0.07,-0.04 0.08,-0.03 0.16,-0.06 0.24,-0.09 0.08,-0.03 0.15,-0.06 0.22,-0.11 0.01,-0 0.01,-0.01 0.01,-0.03 0,0 -0.01,-0 -0.02,-0 0,0 -0.04,0.01 -0.12,0.02zm0.85 3.08c0,0 -0,-0 -0.01,-0.01l-0.01 -0.01c-0.02,0 -0.03,0.01 -0.03,0.02 -0.01,0.03 -0.03,0.06 -0.05,0.08 -0.02,0.03 -0.04,0.05 -0.05,0.08 0,0.01 0.01,0.01 0.04,0l0.01 -0c0.03,-0.03 0.05,-0.06 0.07,-0.08 0.02,-0.02 0.03,-0.05 0.04,-0.08zm-2.26 -0.77c-0.01,0.02 -0.03,0.04 -0.05,0.05 -0.02,0.01 -0.03,0.03 -0.05,0.04 -0.01,0.01 -0.02,0.03 -0.01,0.04 0.01,0.01 0.01,0.02 0.01,0.03 0.01,-0.01 0.02,-0.01 0.03,-0.02 0,-0 0.01,-0.01 0.03,-0.02 0.01,-0.01 0.03,-0.03 0.04,-0.04 0.01,-0.01 0.02,-0.03 0.04,-0.04 -0,-0.01 -0.01,-0.03 -0.03,-0.04zm3.51 0.71c-0.03,-0.26 -0.03,-0.52 0.01,-0.79 0.04,-0.27 0.12,-0.53 0.22,-0.8 0.29,-0.67 0.69,-1.32 1.2,-1.96 0.05,-0.06 0.11,-0.12 0.18,-0.18 0.06,-0.06 0.13,-0.12 0.19,-0.17 0.09,-0.08 0.2,-0.13 0.33,-0.16 0.09,-0.01 0.15,-0.01 0.2,0.02 0.05,0.02 0.09,0.05 0.12,0.09 0.04,0.04 0.06,0.08 0.08,0.11 0.02,0.04 0.04,0.08 0.06,0.12 0.02,0.04 0.04,0.06 0.06,0.06 0.02,0 0.06,-0.02 0.12,-0.06 0.26,-0.16 0.53,-0.27 0.82,-0.34 0.28,-0.08 0.58,-0.1 0.88,-0.06 0.18,0.03 0.34,0.1 0.48,0.22 0.15,0.13 0.27,0.28 0.36,0.44 0.09,0.16 0.12,0.33 0.1,0.51 -0.05,0.61 -0.24,1.21 -0.56,1.78 -0.32,0.57 -0.74,1.13 -1.26,1.68 -0.11,0.12 -0.23,0.24 -0.36,0.35 -0.13,0.11 -0.27,0.22 -0.43,0.31 -0.19,0.13 -0.39,0.22 -0.6,0.27 -0.21,0.06 -0.42,0.08 -0.63,0.08 -0.21,-0 -0.4,-0.04 -0.58,-0.1 -0.18,-0.06 -0.33,-0.15 -0.45,-0.26 -0.1,-0.09 -0.18,-0.19 -0.24,-0.3 -0.06,-0.11 -0.11,-0.22 -0.17,-0.34 -0.03,-0.08 -0.06,-0.17 -0.08,-0.26 -0.02,-0.09 -0.04,-0.18 -0.07,-0.27zm1.26 -0.52c-0.05,0.04 -0.07,0.07 -0.06,0.1 0.01,0.03 0.03,0.06 0.05,0.09 -0.01,0.01 -0.03,0.03 -0.04,0.04 -0.01,0.01 -0.02,0.03 -0.02,0.04 0,0.03 0.01,0.05 0.02,0.08 0.01,0.03 0.02,0.05 0.03,0.08 -0.01,0.01 -0.03,0.01 -0.04,0.02 -0.01,0 -0.02,0.01 -0.02,0.02l0.01 0.1c-0,-0.01 0,-0.04 0.01,-0.09l0.03 -0.06c0.01,-0.07 0.02,-0.14 0.01,-0.23 0,-0.03 0.01,-0.07 0,-0.1 -0,-0.03 0,-0.07 0.02,-0.1 -0,-0.01 0,-0.02 0.01,-0.04 0.01,-0.02 0.01,-0.03 0.02,-0.04 -0,-0.01 -0.01,-0.01 -0.04,-0.03l0 0.02 0.01 0.09zm-0.2 0.07c-0.04,0.08 -0.06,0.16 -0.06,0.23 0.01,0.07 0.02,0.14 0.06,0.21 0,0.01 0,0.02 0.01,0.02 0,0 0.01,0.01 0.01,0.02 0.01,-0.01 0.01,-0.02 0.01,-0.02 -0,-0 0,-0.01 0.01,-0.02 -0,-0.07 -0.01,-0.14 -0.02,-0.21 -0.01,-0.07 -0.02,-0.14 -0.03,-0.21 0.02,-0.01 0.03,-0.03 0.03,-0.06l-0.01 -0.04c-0.01,0.02 -0.02,0.04 -0.02,0.05l0.01 0.05zm0.21 0.58c0.01,0.05 0.02,0.1 0.03,0.14 0.01,0.04 0.05,0.08 0.1,0.12 0.08,0.03 0.17,0.06 0.26,0.07 0.09,0.01 0.18,0 0.28,-0.03 0.2,-0.06 0.39,-0.13 0.56,-0.22 0.18,-0.09 0.31,-0.22 0.4,-0.39 0.01,-0.01 0.01,-0.02 0.01,-0.02 0,-0 0.01,-0 0.02,-0.01 0.25,-0.33 0.47,-0.65 0.67,-0.98 0.2,-0.32 0.4,-0.66 0.6,-0.99 0.06,-0.09 0.11,-0.18 0.16,-0.28 0.05,-0.09 0.09,-0.19 0.13,-0.29 0.02,-0.07 0.04,-0.13 0.05,-0.2 0.01,-0.07 0.02,-0.14 0.04,-0.22 0,-0.05 -0.01,-0.11 -0.05,-0.17 -0.02,-0.02 -0.06,-0.04 -0.11,-0.04 -0.06,-0 -0.09,0.01 -0.1,0.04 -0.01,0.03 -0.03,0.05 -0.05,0.05 -0.02,0 -0.05,0.01 -0.07,0.02 -0.16,0.06 -0.32,0.13 -0.5,0.22 -0.17,0.09 -0.33,0.18 -0.47,0.28 -0.14,0.1 -0.25,0.2 -0.33,0.31 -0.08,0.1 -0.12,0.2 -0.1,0.29 0,0.03 -0.01,0.05 -0.05,0.05 -0.03,0.01 -0.07,0 -0.09,-0.02 -0.01,-0.01 -0.02,-0.02 -0.03,-0.03 -0.01,-0.01 -0.02,-0.02 -0.02,-0.03 -0.02,-0.06 -0.02,-0.11 -0,-0.16 0.02,-0.05 0.05,-0.1 0.08,-0.15 0.11,-0.13 0.24,-0.25 0.39,-0.35 0.15,-0.1 0.31,-0.2 0.49,-0.29 0.03,-0.02 0.06,-0.03 0.1,-0.04 0.03,-0.01 0.07,-0.02 0.11,-0.04 0.01,-0.01 0.02,-0.02 0.03,-0.03 0,-0.01 0.01,-0.02 0.02,-0.04 -0.02,0 -0.03,0 -0.04,-0 -0.01,-0 -0.03,-0 -0.04,0.01 -0.34,0.12 -0.63,0.28 -0.88,0.48 -0.04,0.04 -0.08,0.07 -0.12,0.11 -0.03,0.03 -0.07,0.07 -0.1,0.12 -0.19,0.25 -0.36,0.5 -0.51,0.76 -0.16,0.26 -0.29,0.52 -0.4,0.79 -0.02,0.05 -0.04,0.09 -0.05,0.13 -0.02,0.04 -0.04,0.08 -0.05,0.12 -0.01,0.01 -0.01,0.01 -0.02,0.02 -0,0.01 -0.01,0.01 -0.02,0.02 -0.01,-0.01 -0.02,-0.02 -0.02,-0.05 0.04,-0.17 0.09,-0.34 0.15,-0.51 0.06,-0.17 0.13,-0.34 0.22,-0.51 0.02,-0.06 0.04,-0.12 0.06,-0.19 -0.05,0.02 -0.08,0.05 -0.1,0.08 -0.01,0.03 -0.02,0.06 -0.03,0.09 -0.14,0.25 -0.25,0.5 -0.33,0.74 -0.08,0.25 -0.14,0.49 -0.2,0.74 -0.01,0.07 -0.03,0.15 -0.04,0.22 -0.01,0.07 -0.02,0.15 -0.02,0.22zm1.78 -0.33c0.02,-0.02 0.04,-0.03 0.04,-0.03 0.12,-0.12 0.23,-0.23 0.35,-0.35 0.11,-0.11 0.21,-0.23 0.31,-0.35 0.17,-0.2 0.33,-0.4 0.46,-0.61 0.14,-0.21 0.26,-0.42 0.36,-0.65 0.01,-0.02 0.02,-0.04 0.02,-0.05 -0,-0.01 0,-0.03 0.02,-0.06 -0,-0.01 -0.01,-0.01 -0.01,-0.01 -0.01,-0 -0.01,-0.01 -0.01,-0.02l0 0.02c-0.02,0.02 -0.03,0.03 -0.03,0.05 -0.21,0.35 -0.43,0.69 -0.68,1.01 -0.25,0.32 -0.52,0.64 -0.81,0.96 -0.01,0.01 -0.01,0.02 -0.01,0.03 0,0.01 -0.01,0.02 -0.02,0.03 0.01,-0 0.01,0.01 0.01,0.02z"/>
  </g>
 </g>
</svg>
