<?xml version="1.0" encoding="UTF-8"?>
<!DOCTYPE svg PUBLIC "-//W3C//DTD SVG 1.1//EN" "http://www.w3.org/Graphics/SVG/1.1/DTD/svg11.dtd">
<!-- Creator: CorelDRAW -->
<svg xmlns="http://www.w3.org/2000/svg" xml:space="preserve" width="65.3343mm" height="32.6845mm" version="1.1" style="shape-rendering:geometricPrecision; text-rendering:geometricPrecision; image-rendering:optimizeQuality; fill-rule:evenodd; clip-rule:evenodd"
viewBox="0 0 108.03 54.04"
 xmlns:xlink="http://www.w3.org/1999/xlink"
 xmlns:xodm="http://www.corel.com/coreldraw/odm/2003">
 <defs>
  <style type="text/css">
   <![CDATA[
    .fil0 {fill:#070505}
    .fil17 {fill:#4E1A13}
    .fil22 {fill:#52462E}
    .fil16 {fill:#564837}
    .fil19 {fill:#9B9B9B}
    .fil11 {fill:#B63828}
    .fil23 {fill:#B7681C}
    .fil15 {fill:#C78B67}
    .fil12 {fill:#C8711F}
    .fil5 {fill:#CB7320}
    .fil20 {fill:#D9231C}
    .fil13 {fill:#E4DAD2}
    .fil7 {fill:#E6DDD5}
    .fil4 {fill:#F34826}
    .fil24 {fill:#F3918C}
    .fil18 {fill:#F61999}
    .fil3 {fill:#F91A9A}
    .fil10 {fill:#F9A484}
    .fil6 {fill:#FB6462}
    .fil21 {fill:#FBFBFB}
    .fil1 {fill:#FDAE22}
    .fil2 {fill:#FDFDFD}
    .fil8 {fill:#FED985}
    .fil14 {fill:#FFD882}
    .fil9 {fill:#FFDA86}
    .fil25 {fill:#FFDB87}
   ]]>
  </style>
 </defs>
 <g id="Camada_x0020_1">
  <metadata id="CorelCorpID_0Corel-Layer"/>
  <g id="_2015425835312">
   <path class="fil0" d="M0.04 17.37c0.17,2.79 0.62,1.24 0.22,3.42 -0.23,1.27 -0.22,2.6 -0.25,3.92 -0.07,2.58 0.42,4.94 1.22,7.08 3.2,8.49 10.84,14.01 20.19,12.36 2.14,-0.38 4.29,-1.46 5.84,-2.43 0.99,-0.62 1.55,-1.15 2.36,-1.77 0.77,-0.6 1.33,-1.4 2.04,-2.13 0.28,0.05 0.55,0.27 0.89,0.43 0.31,0.15 0.75,0.23 1.02,0.4 0.01,0.26 -1.74,5.39 0.75,6 2.72,0.67 5.99,-6.53 6.36,-6.88l1.19 0.59c-0.04,1.57 -2.01,3.35 -1.46,5.44 0.2,0.78 1.54,1.27 2.96,-1.07 0.22,-0.37 0.39,-0.81 0.77,-0.99 0.42,0.35 0.4,0.89 1.17,1.1 0.46,0.13 0.52,-0 0.92,0.26 1.93,1.27 2,-0.42 3.39,-0.36 0.42,0.02 0.68,-0.08 1.04,-0.02 3.61,0.6 3.97,-3.75 4.63,-4.49l2.69 -0.05c-0.02,1.58 -4.17,12.64 -4.32,14.67 -0.06,0.81 0.38,1.25 1.18,1.18 0.73,-0.07 0.95,-0.54 1.25,-1.11 0.99,-1.84 3.15,-9.15 3.89,-10.42 0.44,0.06 0.58,0.27 1.09,0.24 0.5,-0.03 0.59,-0.28 1.02,-0.34 0.18,0.05 0.82,1.36 2.3,0.45 0.42,-0.26 0.56,-0.54 1.15,-0.53 0.92,0.02 0.69,-0.27 1.31,0.21 1.38,1.06 2.18,-0.54 2.77,-1.52 0.19,-0.32 0.39,-0.92 0.9,-0.73 0.52,0.37 0.07,2.68 1.59,2.64 1.29,-0.03 1.37,-0.84 2.27,-0.84 0.43,-0 0.66,-0.1 1.01,-0.08 1.71,2.46 3.19,-1.82 3.63,-1.97 0.53,0.02 0.81,0.3 1.44,0.23 1.37,-0.14 2.37,-2.1 2.62,-2.22 0.61,-0.31 5.4,0.01 6.07,-0.32 0.19,-0.15 0.5,-2.22 0.77,-2.95 0.82,0.07 1.43,0.52 2.6,0.47 0.82,-0.04 1.85,-0.3 2.39,-0.71 1.9,-1.45 0.3,-3.26 1.25,-4.83 1.09,-1.81 2.85,-1.54 5.47,-3.89l1.66 -1.49 2.53 -3.25 2.21 -3.47 0 -3.38c-0.93,-0.57 -1.36,0.24 -1.8,0.94 -0.51,0.82 -3.21,5.32 -3.77,5.56 -0.26,-0.52 0.51,-2.08 -0.7,-4.16 -1.07,-1.83 0.11,-2.18 -1.7,-3.28 -5.28,-3.2 -3.33,-1.27 -7.1,-2.91 0.14,-2.55 2.11,-6.83 0.52,-8.88 -1.54,-1.97 -5.13,-1.85 -6.86,-0.46 -0.31,0.25 -0.32,0.39 -0.68,0.6 -1.03,-0.28 -0.5,-1.34 -4.89,-1.37 -1,-0.01 -8.11,0.17 -9.01,0.35 -0.83,0.17 -0.41,0.16 -1.24,-0.03 -1.58,-0.37 -5.67,-0.13 -7.28,-0.03 -0.15,0.19 -0.11,0.24 -0.25,0.46 -0.87,-0.33 0.3,-0.38 -2.43,-0.69 -1.91,-0.21 -1.18,-0.21 -2.74,0.08 -0.49,0.09 -2.3,-0.05 -3,-0.05l-5.25 0.23c-0.45,0.09 -0.21,0.17 -0.54,0.15 -0.08,-0.01 -1.54,-0.54 -2.44,-0.66 -3.37,-0.44 -4.95,3 -6.61,2.39 -0.7,-0.26 -0.63,-0.84 -1.54,-1.58 -1.16,-0.94 -3.53,-0.89 -5.05,-0.32 -4.02,1.53 -3.67,7.15 -4.36,8.03 -0.31,-0.14 -0.43,-0.53 -0.7,-0.9l-2 -2.55c-1.55,-1.76 -4.83,-2.35 -6.92,-1.71 -0.79,0.24 -1.33,0.73 -2.1,0.94 -0.76,0.21 -1.79,0.24 -2.6,0.43 -2.14,0.5 -4.56,1.77 -6.16,3.03 -1.27,1 -1.74,1.84 -3.88,2.19 -3.91,0.64 -5.03,3.74 -4.89,7.34z"/>
   <path class="fil1" d="M21.66 38.05l0.35 -0.03c-0.15,1.14 -8.02,2.53 -9.02,1.11 0.12,-0.08 -0.15,-0.12 0.36,-0.08 -0.28,-0.12 -2.05,-0.31 -2.83,-1.38 -0.65,-0.89 -0.3,-0.81 -0.79,-1.31 -0.42,-0.43 -0.59,-0.64 -0.83,-1.32 -0.08,-0.09 -0.02,0.02 -0.12,-0.2 -0.59,-1.33 -0.33,-3.27 -1.35,-4.52 -0.3,-0.36 -0.72,-0.73 -0.86,-1.29 -0.39,-0.39 -0.61,-0.59 -0.77,-1.3 0.21,0.11 0.02,-0.04 0.21,0.14 0.12,-0.14 0.05,-0.08 0.23,-0.18 0.83,-0.46 0.6,-0.09 1.49,-1.29 0.24,-0.33 0.44,-0.56 0.71,-0.89 0.16,-0.2 0.34,-0.56 0.64,-0.58 0.41,-0.03 0.21,-0.01 0.32,0.12 0.48,-0.31 0.69,-0.73 1.53,-0.87 1.05,-0.17 1.41,0.23 2.1,0.25 0.35,-0.53 0.66,-1.13 1.08,-1.59 0.17,-0.18 0.31,-0.23 0.5,-0.41 -0.04,-0.07 -0.25,0.13 0.14,-0.45 1.18,-1.78 1.28,-1.47 1.49,-3.24 0.59,-0.08 1.29,0.79 1.53,1.14 0.53,0.77 0.14,0.56 1.02,1.71 -0.12,0.12 0.22,0.1 -0.21,0.1 2.29,0.87 2.24,0.94 4.4,2.16 0.57,0.32 1.67,0.88 2.43,0.89 0.65,0.01 1.38,-0.32 1.94,-0.61 0.29,-0.15 0.35,-0.16 0.47,-0.43 -0.3,-0.54 -1.4,-0.98 -1.5,-1.29 1.04,-0.28 2.48,0.91 3.11,2.09 0.64,1.19 0.94,2.53 0.38,3.83 -0.15,0.34 -0.11,0.28 -0.38,0.37 -0.15,-0.54 0.19,-2.63 -0.99,-3.15 -0.72,2.45 -0.01,3.66 -1.99,7.62 -0.74,1.48 -1.99,3.06 -3.28,3.96 -0.35,0.25 -1.25,0.7 -1.51,0.92zm-1.51 -21.06c-0.11,-0.25 -0.17,-0.77 -0.03,-1.03 0.3,-0.54 1.58,-0.25 2.26,-0.23 1.04,0.04 1.24,0.21 2.16,0.42 1.09,0.26 1.07,0.16 2,0.7 0.64,0.37 1.5,0.71 1.56,1.04 -0.34,0.2 -1.99,-0.04 -2.45,-0.09 -0.95,-0.11 -1.48,-0.03 -2.4,0.05 -0.82,0.08 -2.73,0.01 -3.1,-0.85zm-3.82 -10.13c-0.3,0.23 -1.66,1.81 -1.84,2.12 -0.46,-0.32 0.16,-0.23 -0.5,-0.31l-0.64 1.34c-0.19,0.44 -0.4,0.22 -0.71,0.01 -0.06,-0.5 0.15,-1.05 0.28,-1.51 0.34,-1.19 0.23,-0.54 0.77,-1.01 0.16,-0.22 0.18,-0.58 0.18,-0.91 -0.42,0.01 -0.97,0.21 -1.28,0.43l0.06 0.25c-0.41,0.38 -2.33,1.78 -2.8,1.74l-0.02 -0.82c0.38,-0.15 1.03,-0.54 1.28,-0.87l-0.29 0.05c-0.65,0.14 -2.7,1.94 -2.75,2.39 0.49,-0.14 0.84,-0.57 1.23,-0.66 -0.13,0.45 -0.5,0.47 -0.65,0.78 -0.23,0.47 0.03,0.48 0.25,0.91 0.21,0.26 0.57,0.24 0.63,0.56 0.14,0.07 0.3,-0.03 0.18,0.33 -0.03,0.1 -0.18,0.17 -0.3,0.22 -1.59,0.69 -2.43,-0.49 -4.52,-0.15 -0.77,0.13 -1.27,0.21 -1.3,0.67 0.37,0.16 0.93,-0.07 1.56,0.11 1.23,0.35 2.26,1.55 3.35,1.59 0.46,-0.02 0.98,0.11 1.41,0.01 0.6,-0.14 0.45,-0.45 0.88,-0.62l0.03 0.2 0.18 -0.28 0.27 0.06 -0.04 -0.69c0.81,0.49 0.29,1.4 0.39,1.94 1.1,0.06 2.09,0.89 2.29,1.42 -0.5,-0.35 -1.08,-0.44 -1.65,-0.69 -0.54,-0.02 -0.27,0.06 -1.03,0.63 -0.46,0.35 -0.4,0.48 -0.74,0.88l-0.06 -0.21c-0.12,-0.51 0.09,-0.43 -0.23,-0.48 -0.03,0.42 -0.26,0.94 -0.29,1.52 -0.03,0.54 0.05,1.16 0.22,1.65 0.34,-0.23 0.19,-0.5 0.3,-0.95 0.22,-0.86 1.21,-1.77 2.15,-1.62 1.68,0.26 1.98,2.61 1.9,2.94 -0.1,0.4 -0,0.08 -0.12,0.24l-0.04 0.33c0.01,1.4 -0.99,2.25 -1.99,2.6 -0.6,0.21 -1.78,0.12 -2.01,0.28 -0.65,0.46 -0.14,1.12 -2.52,2.04 -1.91,0.74 -2.97,0.15 -3.55,3.28l0.33 -0.02c0.32,1.1 0.47,2.18 0.92,3.16 0.32,0.71 1.38,2.11 1.48,2.59l-0.28 0.09 0.05 0.11c1.68,1.09 0.66,2.63 -1.25,0.76 -1.58,-1.55 -2.46,-4.69 -2.4,-7.2 0.03,-1.26 0.33,-1.53 0.6,-2.59 0.33,-1.29 1.8,-2.82 2.77,-3.64 1.31,-1.11 1.83,-0.63 2.25,-0.94 0.44,-0.43 0.39,-1.17 0.48,-1.8l-0.05 -0.77c-0.03,0.98 -0.08,0.75 -0.85,1.21 -0.88,0.52 -2.37,1.43 -3,2.22 -0.16,0.19 -0.28,0.39 -0.51,0.51 0.17,-0.56 1.85,-2.06 1.89,-2.25 -0.37,-0.11 -0.67,0.35 -0.94,0.57 -3.15,2.61 -3.43,6.6 -3.81,7.17 -0.01,0.7 -0.19,1.29 -0.05,2.02 -0.02,0.91 0.72,3.13 1.07,3.75 0.1,0.19 0.23,0.3 0.36,0.49l0.23 0.36c0.01,0.02 0.03,0.04 0.04,0.05 0.01,0.02 0.03,0.04 0.04,0.06 0.01,0.01 0.03,0.04 0.04,0.06 0.24,0.66 2.9,3.77 3.41,4.21 0.25,0.15 0.43,0.32 0.7,0.51 0.24,0.17 0.52,0.4 0.91,0.38 0.37,-0.02 1.3,-0.71 1.6,-0.96l0.43 -0.11 -0.05 0.63c-0.14,1.69 1.53,3.14 2.07,3.13 0.25,-0 -0.08,-0.01 0.23,-0.06l0.12 -0.01c0.19,0.01 0.07,-0.02 0.19,0.05 0.37,0.09 0.81,0.29 1.17,0.28l0.38 0.06c-0.18,-0.56 -1.3,-0.47 -2.15,-2.58 -0.52,-1.28 1.08,0.03 1.08,0.03 0.4,0.24 0.82,0.46 1.35,0.6 1.76,0.46 4.95,0.16 6.44,-0.82 1,-0.65 1.14,-1.02 1.6,-1.68 0.24,-0.34 -0.01,-0.14 0.3,-0.22 0.43,1 -0.49,3.08 -1.65,4l-1.14 0.9c0.44,0.23 1.82,-0.52 2.4,-0.63 1.01,-0.32 1.3,-2.11 1.33,-3.5 0.62,0.27 0.23,1.49 0.49,2.11 0.24,0.1 0.53,0.13 0.86,0.1 0.09,-0.45 0.81,-0.66 1.49,-1.14 0.56,-0.39 0.99,-0.73 1.48,-1.14l1.96 -1.92c0.25,-0.27 0.32,-0.58 0.57,-0.79 -0.07,-0.5 -0.13,-0.92 -0.13,-1.45 0,-0.49 0.13,-0.98 0.1,-1.42 -0.21,0.24 -1.29,3.33 -2.41,3.42l0.97 -2.12c-0.31,0.17 -0.25,0.23 -0.63,0.67l-1.25 1.45c-0.28,0.39 -0.19,0.51 -0.86,0.58 0.26,-1.1 2.72,-3.7 3.41,-6.54 0.11,-0.47 0.23,-0.85 0.37,-1.31 0.14,-0.47 0.1,-1.05 0.48,-1.17l0.12 2.09c0.24,-0.58 0.23,-1.51 0.26,-2.23 -0.19,-0.27 -0.28,-1.26 -0.41,-1.62 -0.19,-0.52 -0.4,-1.05 -0.54,-1.44 -0.39,-0.97 -1.57,-2.57 -2.29,-2.85 -1.1,-0.09 -2.17,-0.19 -3.32,-0.28 -2.09,-0.16 -4.32,-0.04 -5.7,-1.21 -0.29,-0.24 -1.48,-1.5 -1.64,-1.87 -0.31,-0.37 -1.28,-0.72 -1.66,-1.17 1.43,0.19 2.13,0.99 2.54,1.06 0.28,-0.3 -0.05,-0.53 -0.22,-0.66 -0.22,-0.17 -0.35,-0.27 -0.57,-0.44 -0.17,-0.13 -0.37,-0.3 -0.58,-0.44 -0.09,-0.06 -0.2,-0.11 -0.32,-0.19l-0.28 -0.26c0.12,-0.08 0.01,-0.04 0.21,-0.08 1.13,-0.21 2.91,1.91 3.79,2.27 1.67,0.68 3.71,-0.24 5.56,-0.17 2.73,0.11 4.82,1.18 6.11,3.34 0.62,1.04 0.64,1.45 0.88,1.91 0.01,0.02 0.05,0.09 0.06,0.1 0.01,0.01 0.03,0.06 0.03,0.05 0,-0.01 0.02,0.03 0.03,0.04 0.46,-0.88 1.02,-1.27 1.57,-1.91 -0.15,-0.28 -0.14,-1.06 -0.22,-1.46 -0.1,-0.48 -0.25,-0.87 -0.34,-1.32 -0.16,-0.79 -0.46,-1.94 -0.88,-2.51 0.06,0.49 0.02,0.14 -0.08,0.23 -0.19,-0.34 -0.36,-0.81 -0.52,-1.05 -2.71,-0.46 -3.81,-0.89 -3.59,-4.27 -0.28,-0.18 -1.03,-1.53 -1.28,-1.91 -0.26,-0.4 -1.07,-1.63 -1.38,-1.83 0.7,2.09 -1.11,-0.36 -2.52,-1.18 -0.54,-0.32 -1.36,-0.64 -2.08,-0.71 -0.47,-0.04 -1.89,0.05 -2.28,0.43 0.22,0.11 2.6,-0.08 3.66,0.3 0.75,0.27 2.23,1.33 2.12,1.84 1.31,0.61 2.49,3.97 3.06,5.36 0.46,1.12 -0.08,1.99 -0.07,2.36 1.32,0.76 5.03,2.96 5.21,4.37 -0.58,-0.17 -4.05,-3.73 -7.4,-4.9 -2.32,-0.81 -5.58,-1.1 -8.19,-1.07 -0.97,0.01 -1.81,0.21 -2.71,0.3 -0.14,0.13 0.04,0.09 -0.32,0.13 -0.21,0.03 -0.15,0.01 -0.35,-0.02 -0.5,-0.84 -0.3,-1.14 -0.35,-1.94 -0.02,-0.28 -0.06,-0.53 0.09,-0.76 0.21,-0.73 0.42,-1.45 0.76,-2.04 0.18,-0.3 0.37,-0.62 0.56,-0.87 0.21,-0.27 0.5,-0.53 0.6,-0.8 0.15,-0.65 0.07,-0.64 0.44,-1.12 0.63,-0.8 1.71,-1.45 2.63,-1.84 0.83,-0.36 1.26,-0.56 2.31,-0.63 1.13,-0.07 1.47,0.24 2.42,0.52 -0.13,-0.21 0.01,-0.03 -0.14,-0.17l-0.32 -0.2c-0.17,-0.11 -0.13,-0.13 -0.41,-0.26 -1.07,-0.51 -2.19,-0.47 -3.36,-0.19 -2.4,0.58 -2.74,1.83 -3.61,1.87z"/>
   <path class="fil2" d="M59.88 14.75c0.06,-0.04 -0.08,-0.02 0.22,-0.12 0.3,-0.1 0.64,-0.06 0.95,-0.07 0.29,-0.54 0.25,-0.55 0.1,-1.06 -0.77,-0.28 -0.65,-0.8 -0.91,-1.53 -0.8,0.02 -0.69,1.3 -1.62,1.02 -0.12,-0.75 0.71,-1.8 1.17,-2.03 1.22,-0.63 1.47,0.75 1.68,1.2l0.25 -0.04c-0.04,-1.02 0.92,-3.35 0.83,-4.33 -0.53,-0.05 -3.47,-0.09 -3.76,0.06 -0.25,0.18 -0.57,1.91 -0.58,2l0.61 0.1c-0.06,0.73 -0.6,3.76 -1.55,3.02 -0.26,-0.24 -0.07,-0.76 0.03,-1.19l1.33 -6.08c0.34,-1.47 0.3,-1.17 -0.26,-2.22 0.37,-0.08 1.38,-0.09 1.59,0.24 0.25,0.52 -0.45,2.05 -0.41,2.75 0.51,0.11 2.92,0.14 3.28,-0.03 0.04,-0.04 1.5,-3.64 -0.76,-4.83 -1.86,-0.98 -3.86,-0.27 -5.13,0.71 -1.24,0.95 -1.54,2.72 -1.98,4.59 -0.21,0.91 -0.41,1.76 -0.6,2.68 -0.18,0.86 -0.33,2.05 -0.57,2.8 -0.54,0.03 -1.77,0.1 -2.24,-0 -0.07,-0.4 0.4,-2.57 0.59,-2.9l2.01 -0.08c0.13,-0.36 0.59,-2.2 0.51,-2.48 -0.12,-0.18 -0.76,-0.12 -0.95,-0.11 -0.33,0.01 -0.66,0.02 -0.98,-0 -0.03,-0.44 0.18,-0.91 0.2,-1.41 0.02,-0.7 -0.3,-0.83 -0.48,-1.28 0.98,-0.05 2.04,0.2 3.06,0.04 0.15,-0.46 0.65,-2.27 0.5,-2.66 -0.4,-0.16 -4.93,-0.11 -5.51,0.02 -0.45,0.88 -1.72,8.3 -2.08,8.95 -0.01,-1.8 -0.26,-2.27 -1.81,-3.51 -2.13,-1.71 -1.29,-0.87 -1.48,-2.56 -0.05,-0.46 -0.29,-0.56 -0.44,-0.96 2.71,-0.24 1.4,1.04 1.4,2.19 0.5,0.11 2.45,0.04 3.07,0.01 0.25,-0.53 0.55,-2.42 0.31,-3.05 -0.64,-1.73 -5.62,-2.36 -7.16,1.02 -0.34,0.74 -0.65,2.12 -0.58,3.07 0.1,1.21 0.83,1.69 1.48,2.24 0.46,0.38 1.65,1.28 1.75,1.89 0.08,0.51 -0.07,1.22 -0.23,1.62 -0.2,0.5 -0.47,0.83 -1.17,0.6 -0.26,-0.79 0.52,-2.19 0.29,-2.64l-3.03 -0.09c-0.7,2.39 -1.06,4.75 2.04,5.16 1.21,0.16 2.45,-0.2 3.32,-0.65 1.07,-0.56 1.21,-1.1 1.78,-2.23 -0.07,0.72 -0.56,1.84 -0.5,2.59 1.33,0.05 2.72,0.01 4.06,0.01 2.54,0 1.67,-0.48 2.2,-1.84 0.3,0.15 0.27,1.74 2.03,2.06 1.85,0.33 2.53,-0.86 3.01,-1.06l0.12 0.79c0.4,0.01 0.5,-0.3 0.98,-0.39z"/>
   <path class="fil2" d="M80.15 3.67c0.49,0.01 1.21,-0.01 1.54,0.17 0.36,0.41 -1.1,6.03 -1.37,7.31 -0.16,0.75 -0.4,1.79 -1.35,1.56 -0.05,-0.42 0.78,-3.76 0.94,-4.47 0.16,-0.75 0.32,-1.46 0.49,-2.23 0.08,-0.36 0.21,-0.83 0.19,-1.2 -0.04,-0.66 -0.36,-0.58 -0.44,-1.14zm-10.94 11.47l1.89 0c0.55,0 0.86,-0.13 1.35,-0.16 0.5,-0.03 0.88,0.14 1.43,0.14l5.56 0c4.42,0 3.84,-2.76 5.04,-7.47 0.3,-1.19 1.18,-4.11 0.54,-5.21 -0.79,-1.35 -4.47,-1.06 -6.51,-1.06 -0.65,0 -0.53,0.31 -0.68,0.91l-2.01 9.19c0.2,0.07 0.47,0.06 0.61,0.31 0.42,0.78 -0.72,1.28 -1.35,1.48 -0.52,0.16 -2.66,0.93 -3.05,0.74 -0.32,-0.51 0.24,-0.69 0.62,-0.9l0.84 -0.42c0.35,-0.23 0.15,-0.02 0.23,-0.28l-0.52 -0.14 0.59 -2.88c0.7,-0.12 1.51,0.08 2.15,-0.08 0.19,-0.43 0.52,-2.03 0.5,-2.49 -0.57,-0.17 -1.25,-0.05 -1.9,-0.06 -0.01,-0.56 0.16,-0.99 0.15,-1.52 -0.02,-0.67 -0.31,-0.7 -0.44,-1.15 0.56,-0.15 1.97,0.21 2.91,0.03 0.17,-0.3 0.7,-2.35 0.65,-2.71 -0.43,-0.04 -5.36,-0.03 -5.48,0.03 -0.21,0.09 -0.18,0.15 -0.24,0.43 -0.04,0.18 -0.07,0.35 -0.12,0.56l-0.76 3.45c-0.34,1.54 -0.67,3.03 -1.01,4.55 -0.19,0.87 -0.96,4.12 -1,4.72z"/>
   <path class="fil3" d="M90.41 26.98c0.35,0.16 0.51,0.69 0.47,1.15 -0.27,0.13 -0.49,0.17 -0.7,0.31 -0.31,0.2 -0.24,0.27 -0.65,0.37l0.88 -1.83zm-7.37 -1.39c0.43,-0.06 1.45,-0.68 1.58,-0.93 0.37,-0.68 -0.11,-0.14 0.88,-1.56l6.22 -8.61c0.35,-0.48 0.68,-0.96 1.03,-1.42 0.41,-0.54 0.81,-0.86 1.69,-0.42 1.04,0.51 2.24,1.25 3.09,1.89 0.25,0.19 0.38,0.33 0.63,0.55 0.83,0.69 1.11,0.83 1.82,1.89 0.73,1.09 1.18,2.38 0.68,3.92 -0.52,-0.04 -0.87,-0.27 -1.48,-0.2 -0.25,0.33 -0.62,1.55 -0.8,2.05 -1.93,5.16 -4.14,6.18 -4.36,7.12 -0.24,0.98 1.49,3.67 -1.51,3.69 -0.88,0.01 -1.61,-0.45 -2.02,-0.81 0.06,-0.84 1.7,-2.23 1.26,-4.56 -0.29,-1.53 -1.46,-2.72 -2.98,-2.98 -3.92,-0.66 -6.88,4.36 -6.85,4.97 0.33,-0.05 0.27,-0.17 0.66,-0.65 0.78,-0.94 1.16,-1.31 2.09,-2.12 0.49,-0.42 2.93,-2.25 3.94,-1.34 -0.12,0.09 -3.68,0.61 -6.08,4.35 -0.25,0.39 -1.23,2.01 -0.7,2.62 0.24,0.26 2.11,0.16 2.54,0.15 -0.16,-1.06 -0.39,-1.08 0.05,-2.25 0.72,-1.91 2.97,-3.87 4.31,-3.36 0.38,1.03 -1.21,1.76 -0.5,2.44 0.22,0.21 0.09,-0.09 0.26,0.27l-2.95 2.64c-0.3,0.2 -0.36,0.13 -0.51,0.44 1.03,-0.23 2.77,-0.07 3.37,-0.27 0.45,-0.15 0.44,-0.35 0.82,-0.48 0.49,0.4 0.55,0.78 1.24,1.24 1.25,0.83 4.81,0.94 4.57,-1.96 -0.16,-1.86 -0.44,-1.74 1.11,-3.54 1.07,-1.25 1.78,-1.03 3.18,-1.87 1.02,-0.61 2.01,-1.48 2.75,-2.22 1.83,-1.84 2.95,-3.42 4.32,-5.71 0.44,-0.74 1.68,-2.62 1.12,-3.62 -0.25,0.07 -0.15,-0.02 -0.33,0.28 -0.06,0.09 -0.13,0.26 -0.21,0.38 -0.16,0.29 -0.28,0.5 -0.46,0.8 -1.28,2.16 -3.41,5.46 -5.14,7.08 -0.34,0.32 -2.2,2.01 -3.02,1.81 0.05,-0.36 0.53,-1.31 0.69,-1.78 0.18,-0.52 0.36,-1.53 0.64,-1.87 0.67,-0.04 1.08,0.93 1.75,0.97 0.19,-0.1 0.59,-0.46 0.5,-0.81 -0.09,-0.38 -0.59,-0.32 -0.58,-0.86 0.01,-0.48 0.91,-2.7 -0.77,-4.48 -0.3,-0.32 -0.51,-0.39 -0.31,-0.9 0.17,-0.45 0.24,-0.73 -0.08,-1.06 -0.34,-0.35 -2.93,-1.87 -3.54,-2.11 -0.79,-0.32 -0.66,0.29 -2.33,-0.53 -1.91,-0.93 -1.63,-0.34 -4.31,3.46 -0.79,1.12 -6.87,9.85 -6.99,10.28z"/>
   <path class="fil2" d="M43.88 34.82c-0.21,-0.6 0.8,-4.73 0.99,-5.68l0.77 -4.29c0.12,-0.82 0.28,-0.63 0.8,-0.27 0.54,0.37 0.32,0.68 0.19,1.36l-0.89 4.17c-0.21,0.93 -0.38,1.87 -0.59,2.79 -0.19,0.88 -0.25,2.35 -1.28,1.92zm0.88 2.49c1.02,-0.04 1.03,-1.07 2,-1.21 0.61,-0.09 0.6,-0.22 0.91,-0.7 1.04,-1.64 1.25,-3.94 1.73,-6.03 0.29,-1.29 1.03,-4.06 0.89,-5.33 -0.18,-1.72 -1.75,-2.75 -3.64,-2.49 -0.59,0.08 -2.12,0.36 -2.51,0.61 -0.19,0.12 -1.12,1.47 -1.32,1.81 -0.77,1.31 -1.02,3.17 -1.37,4.86 -0.47,2.24 -1.82,6.2 -0.37,7.71 0.39,0.41 1.27,0.98 2.15,0.89 0.29,-0.35 0.56,-2.35 1.9,-1.99 0.38,0.66 -0.2,1.29 -0.36,1.87z"/>
   <path class="fil3" d="M74.75 36.71l-0.01 -0.2c-0.05,-0.06 -0.25,0.12 0.03,-0.28l0.72 -0.56c0.47,-0.24 0.76,-0.2 1,-0.68 -0.09,-0.85 -1.1,-0.74 -1.6,-0.34 -1.34,1.06 -1.28,1.64 -2.04,2.76 -0.39,0.58 -0.7,1.15 -1.25,1.14 0.3,-2.19 1.9,-2.31 1.39,-3.34 -1.06,-0.26 -2.5,1.77 -3.07,2.56 -0.25,0.35 -0.41,0.74 -0.68,1.13 -0.34,-0.54 2.5,-5.09 2.2,-5.95 -0.97,-0.33 -1.39,0.63 -1.75,1.22 -0.42,0.67 -0.76,1.27 -1.16,1.96 -0.35,0.6 -2.02,3.66 -2.32,3.88 -0.26,-0.53 1.47,-2.99 -0.25,-2.94 -0.42,0.18 -1.22,4.1 -2.56,4.44 0.05,-1.49 1.74,-4.58 2.91,-5.41 0.43,-0.3 1.73,-0.59 1.15,-1.34 -1.1,-1.4 -3.34,2.62 -4.18,3.7 -0.38,0.49 -0.75,1.06 -1.17,1.46 -0.04,-0.81 1.84,-3.91 1.52,-4.7 -0.47,-0.58 -1.38,0.39 -1.67,0.65 -0.8,0.75 -0.85,1.45 -1.21,1.54 0.14,-1.05 1.4,-3.28 1.13,-4.18 -1.32,-0.31 -2.16,3.07 -2.53,4.24 -0.53,1.71 -1.06,3.47 -1.61,5.21l-2.45 7.83c-0.17,0.52 -0.82,2.17 -0.61,2.55 0.62,-0.16 1.52,-3.2 1.82,-4.03 0.69,-1.96 2.42,-6.94 3.16,-8.55 0.3,-0.66 1.78,-3.28 2.39,-3.37 0.04,0.84 -1.5,3.43 -1.12,4.58 0.68,-0.09 1.76,-1.75 2.13,-1.87 0.11,0.81 -0.54,1.62 0.2,2.22 0.86,0.41 1.83,-1.75 2.02,-1.92 0.2,0.25 0.03,0.48 0.32,1.09 1.38,-0.1 2.68,-4.66 3.68,-5.04 -0.31,0.74 -1.92,5.02 -1.66,5.63 0.38,-0.04 0.34,-0.12 0.52,-0.42 0.1,-0.17 0.19,-0.31 0.33,-0.52 0.34,-0.53 1.91,-2.78 2.31,-2.8 0.14,0.67 -0.2,0.84 0.39,1.35 0.49,-0 0.5,-0.24 0.88,-0.19 0.01,0.77 -0.78,1.96 0.05,2.64 1.22,0.07 1.72,-1.87 2.1,-2.07 0.19,0.54 -0.17,0.94 0.42,1.22 0.6,-0.11 1.4,-1.73 1.83,-2.44 0.42,-0.7 1.1,-2.22 1.63,-2.65 -0.11,0.93 -1.91,4.85 -1.65,5.67 0.4,0.02 0.64,-0.63 0.85,-0.93 0.38,-0.57 1.96,-2.75 2.36,-2.86 0.06,0.62 -0.1,1.4 0.63,1.38 0.48,-0.01 0.97,-0.53 1.17,-0.77 0.42,-0.51 1.51,-1.87 1.35,-2.59 -0.52,-0.01 -0.43,0.18 -0.63,0.61 -0.17,0.38 -1.14,1.88 -1.71,1.89 -0.07,-1.51 1.71,-2.38 1.39,-3.23l-0.48 -0.09c-0.59,0.05 -1.43,1.06 -1.78,1.47 -0.58,0.67 -1.39,1.97 -1.62,2.13 0.12,-0.56 0.99,-2.4 1.25,-2.93 0.24,-0.5 1.34,-2.38 1,-2.92 -0.6,-0.58 -1.46,0.74 -1.7,1.14l-2.87 4.97c-0.1,0.18 -0.15,0.27 -0.27,0.49 -0.05,0.08 -0.09,0.18 -0.15,0.26 -0.14,0.18 -0,0.06 -0.18,0.16 -0.25,-0.61 1.5,-3.06 -0.29,-2.91 -0.21,0.25 -1.52,4.32 -2.37,4.39 -0.3,-0.84 0.9,-3.02 1.42,-3.81 0.73,-1.11 0.42,-0.57 0.92,-0.75z"/>
   <path class="fil2" d="M63.97 26.52c-0.16,0.66 -0.38,1.27 -1.2,1.14 -0.07,-0.58 0.16,-1.25 0.28,-1.82 0.23,-1.06 -0.32,-1.12 -0.25,-1.6 0.51,-0.05 1.14,0.03 1.46,0.22 0.05,0.68 -0.14,1.43 -0.29,2.06zm1.07 2.49c0.02,-0.01 0.04,-0.03 0.06,-0.03l0.36 -0.14c0.13,-0.04 0.25,-0.08 0.37,-0.13 1.46,-0.66 2.01,-4.28 1.63,-5.58 -0.61,-2.12 -4.34,-1.31 -5.96,-1.32 -0.37,-0 -0.57,-0.09 -0.93,-0.12 -0.48,0.84 -2.09,9.32 -2.54,11.43 -0.17,0.77 -0.8,3.31 -0.76,3.93l2.04 -0.04c0.24,-0.3 0.48,-1.34 0.68,-1.83 1.16,-2.95 1.3,-1.04 1.76,-3.11 0.11,-0.49 0.3,-1.58 0.53,-1.91 1.68,-0.1 0,2.88 -0.14,5.29 0.6,-0.28 1.01,-0.97 1.7,-0.27 0.12,0.87 -0.46,1.33 -0.28,1.82 0.55,0.11 0.73,-0.15 0.94,-0.49 0.25,-0.41 0.32,-0.53 0.62,-0.9 0.33,-0.42 1.64,-4.93 0.79,-6 -0.27,-0.34 -0.54,-0.32 -0.86,-0.57z"/>
   <path class="fil2" d="M88.2 3.38c0.34,-0.17 1.18,-0.03 1.56,0.06 0.21,0.83 -1.06,6.04 -1.41,7.48 -0.18,0.76 -0.39,2.07 -0.98,2.08 -0.71,0.02 -0.26,-1.13 -0.04,-2.23l1.12 -4.99c0.24,-1.02 0.42,-1.4 -0.13,-2.18 -0.01,-0.02 -0.03,-0.04 -0.04,-0.05 -0.01,-0.02 -0.09,-0.17 -0.1,-0.17zm0.98 -2.21c-3.73,0.71 -3.87,3.54 -4.71,7.15 -0.29,1.26 -0.97,3.7 -0.7,5.17 0.29,1.54 2.22,2.13 4.02,1.82 3.55,-0.62 3.95,-4.02 4.58,-7.2 0.24,-1.2 1,-3.94 0.72,-5.12 -0.33,-1.44 -2.09,-2.16 -3.91,-1.81z"/>
   <path class="fil2" d="M34.16 3.45c0.47,-0.03 1.18,-0.01 1.54,0.2 0.3,0.35 -1.14,6.4 -1.39,7.52 -0.14,0.65 -0.37,2.01 -1.05,1.97 -0.55,-0.03 -0.31,-0.61 -0.22,-1.05l0.81 -3.73c0.19,-0.83 0.39,-1.62 0.56,-2.46 0.44,-2.1 0.19,-1.33 -0.26,-2.45zm1.26 -2.14c-1.69,0.22 -2.82,0.75 -3.65,2.28 -0.6,1.1 -0.94,3.28 -1.28,4.71 -0.81,3.47 -2.23,7.53 2.93,7.18 3.87,-0.26 4.23,-4.31 4.85,-7.01 0.23,-1.01 0.96,-4.03 0.84,-4.94 -0.24,-1.77 -1.74,-2.47 -3.7,-2.21z"/>
   <path class="fil2" d="M79.15 26.36c-0.22,0.74 -0.24,1.28 -1.2,1.2 -0.03,-0.46 0.2,-1.3 0.29,-1.78 0.19,-1 -0.16,-0.93 -0.33,-1.7 1.4,0.02 1.95,-0.06 1.25,2.27zm2.18 3.47c-0.26,-0.61 -0.68,-0.6 -0.93,-0.99 0.26,-0.14 0.57,-0.21 0.83,-0.34 0.44,-0.22 0.31,-0.15 0.57,-0.5 0.56,-1.44 1.71,-4.46 0.4,-5.79 -0.72,-0.73 -1.78,-0.63 -3,-0.65 -1.02,-0.02 -2.57,-0.09 -3.54,0.03 -0.3,0.49 -2.54,11.75 -2.88,13.35l0.5 0.3c0.08,0.78 -0.32,0.89 -0.55,1.23 -0.27,0.38 -0.08,0.44 -0.08,0.44 0.6,0.08 0.52,-0.7 1.51,-1.8 1.11,-1.24 1.54,-0.93 2.31,-0.83 0.19,-0.86 0.63,-3.84 0.97,-4.31 0.72,-0.04 0.84,0.38 0.73,0.99 -0.22,1.25 -0.91,3.91 -0.95,4.65 0.24,-0.12 0.09,0 0.28,-0.21l1.02 -1.68c0.35,-0.56 0.83,-1.39 1.75,-1.23 0.91,0.91 -1.31,3.23 -1.32,4.35 0.31,-0.06 0.19,-0.03 0.39,-0.27 0.43,-0.51 1.13,-1.04 1.28,-1.69 0.3,-1.37 1.01,-4 0.71,-5.04z"/>
   <path class="fil2" d="M66.66 6.81c-0.09,-0.45 0.18,-1.16 0.21,-1.66 0.06,-0.88 -0.3,-0.87 -0.48,-1.32 0.42,-0.08 1.25,-0.05 1.61,0.05 0.17,0.55 -0.01,1.38 -0.19,1.96 -0.2,0.64 -0.35,1.02 -1.15,0.97zm-4.54 5.06c0.53,-0.18 0.52,-1.03 1.31,-0.87 0.49,0.62 -0.45,1.76 -0.79,2.04 -0.19,0.16 -0.84,0.49 -0.97,0.64 -0.19,0.24 -0.3,1.06 -0.23,1.4 1.05,0.17 2.15,0.08 3.21,0.07 0.19,-0.34 0.91,-3.77 1.11,-4.62 0.08,-0.34 0.17,-1.31 0.48,-1.5 0.27,-0.12 0.44,0.04 0.64,0.18 0.21,0.97 -1.06,4.6 -1.07,5.9 0.8,0.13 2.01,0.43 2.79,0.08 0.5,-0.22 0.87,-2.65 0.99,-3.22 0.14,-0.69 0.42,-1.63 0.44,-2.35 0.05,-1.45 -0.91,-1.2 -1.11,-1.69 0.63,-0.24 0.83,-0.11 1.31,-0.62 0.87,-0.94 1.36,-3.65 0.91,-4.7 -0.45,-1.04 -1.47,-1.09 -2.81,-1.15 -1.09,-0.05 -2.9,-0.13 -3.95,0.01 -0.3,0.93 -2.28,9.81 -2.26,10.4z"/>
   <path class="fil2" d="M55.33 26.63c-0.23,0.74 -0.27,1.28 -1.23,1.1 -0.02,-0.54 0.19,-1.26 0.29,-1.79 0.22,-1.24 -0.35,-1.1 -0.35,-1.62 1.76,-0.22 1.89,0.32 1.29,2.3zm1.14 2.37c0.57,-0.27 0.76,-0.06 1.24,-0.58 0.79,-0.85 1.2,-3.06 1.23,-4.23 0.03,-0.99 -0.46,-2.23 -1.4,-2.18 -0.27,0.01 -0.52,0.14 -0.78,0.15 -0.44,0.02 -0.35,-0.11 -0.63,-0.29 -0.37,-0.25 -1.14,-0.13 -1.64,-0.13 -3.11,0 -2.66,-0.25 -2.88,0.83 -0.27,1.31 -1.81,8.27 -1.8,9.02 0.33,-0.15 0.38,-0.36 0.53,-0.59 1.27,0.08 0.88,0.72 1.36,1.36 0.45,-0.01 0.39,-0.09 0.61,-0.41 0.11,-0.16 0.29,-0.44 0.42,-0.59 0.23,-0.27 0.42,-0.25 0.58,-0.43 0.19,-0.22 0.1,-0.41 0.29,-0.72 1.76,-0.27 -0.02,3 -0.12,5.28 0.4,0.16 0.67,0.05 0.89,0.44 0.17,0.31 0.13,0.76 0.18,1.11l1.78 -0.05c0.26,-0.77 1.37,-5.77 1.27,-6.56 -0.13,-1 -0.84,-0.98 -1.14,-1.44z"/>
   <path class="fil2" d="M37.89 36.5c0.83,-0.26 1.82,-2.21 1.97,-3.41 -1.4,0.34 -3.11,1.77 -3.58,0.9 -0.25,0.41 -0.28,1.01 -0.92,0.96 -0.66,-0.04 -0.36,-0.93 -0.27,-1.43 0.27,-1.49 1.54,-7.01 1.63,-7.98 0.09,-0.94 -0.4,-0.86 -0.52,-1.44 0.65,-0.06 1.55,0.02 1.91,0.31 0.12,1.09 -0.77,3.28 -0.64,4.18l3.37 -0.01c0.33,-0.76 0.84,-3.73 0.7,-4.7 -0.39,-2.66 -4.73,-3.18 -7.05,-0.64 -1.01,1.1 -1.14,2.08 -1.56,3.93 -0.35,1.55 -0.65,3 -0.98,4.51 -0.5,2.3 -1.15,4.95 1.51,5.74 0.28,0.08 0.94,0.21 1.24,0.15 0.59,-0.13 0.56,-1.57 1.91,-2.26 1.11,-0.57 1.23,1.06 1.3,1.2z"/>
   <path class="fil2" d="M69.08 21.94c-0.28,0.14 -0.64,2.53 -0.73,2.97 -0.22,1.07 -0.42,2.07 -0.64,3.15 -0.22,1.04 -0.45,2.07 -0.67,3.12 -0.21,0.99 -0.53,2.15 -0.67,3.15 0.48,0.03 0.86,-0.01 1.15,0.27 0.28,0.27 0.36,0.69 0.05,0.98 -0.45,0.41 -1.6,0.58 -1.67,1.31 0.42,0.09 0.89,0.05 1.32,0.05 0.64,0 0.68,-0.03 0.94,-0.51 0.41,-0.73 1.88,-2.99 2.03,-3.6 0.14,-0.55 0.35,-1.97 0.56,-2.31l2.05 -0.06c0.22,-0.3 0.68,-2.42 0.56,-2.88l-1.94 -0.01c-0.07,-0.51 0.13,-1.05 0.19,-1.54 0.11,-0.86 -0.21,-0.84 -0.41,-1.47 0.9,0.02 2.16,0.25 2.96,0.02 0.27,-0.32 0.7,-2.51 0.71,-2.99 -2.72,-0.23 -1.89,0.18 -3.33,1.2 -2.3,1.62 -2.25,-0.3 -2.48,-0.85z"/>
   <path class="fil3" d="M61.39 21.01c-0.43,-1.15 0.84,-3.71 1.87,-3.72 0.33,0.64 -0.05,1.62 -0.38,2.23 -0.33,0.63 -0.72,1.43 -1.5,1.48zm-1.51 -6.26c-1.05,1 -0.48,-0.06 -2.42,2.47l-2.24 2.67 0.06 -0.38c0.06,-0.18 0.12,-0.34 0.17,-0.51 0.3,-0.88 1.18,-2.8 0.91,-3.15 -0.4,-0.51 -1.22,0.36 -1.37,0.49 -0.78,0.72 -1.37,1.22 -2.07,2.06l-1.05 1.09c0.14,-0.5 0.9,-1.75 1.19,-2.21 0.35,-0.55 1.33,-1.86 0.93,-2.28 -0.39,-0.26 -0.77,0.1 -1.04,0.32 -0.5,0.41 -1.22,2.38 -1.51,3.04l-1.43 3.13c-0.2,0.43 -0.4,0.77 0.09,1.04 0.27,-0.09 1.58,-1.84 1.97,-2.27 0.31,-0.35 1.87,-1.83 2.34,-1.98 0.07,0.82 -0.53,2.19 0.16,2.91 0.86,0.11 1.19,-1.03 1.68,-1.37 0.01,0.37 -0.64,2.71 1.02,2.01 0.81,-0.34 1.21,-1.44 1.65,-1.76 0.03,0.52 -0.03,0.78 0.18,1.18 0.97,0.14 0.94,-0.83 1.72,-1.05 -0.23,1.95 1.11,1.83 2.37,0.14 1.78,-2.39 2,-5.5 0.03,-4.61 -1.32,0.59 -2.61,3.86 -3.42,4.47 -0.15,-0.29 0.27,-1.01 0.49,-1.74 0.22,-0.73 0.03,-1.45 -0.81,-1.31 -0.22,0.12 -1.35,3.98 -2.74,4.35 -0.31,-0.99 1.8,-4.34 2.82,-5.04 0.46,-0.31 1.48,-0.67 1.73,-0.95 0.1,-0.98 -0.69,-0.82 -1.43,-0.77z"/>
   <path class="fil2" d="M15.36 26.42c-0.15,0.04 -0.04,-0.02 -0.17,0.11 -0.02,0.02 -0.12,0.17 -0.14,0.19 -0.13,0.19 -0.17,0.23 -0.22,0.42 -0.14,0.59 -0.09,1.14 -0.16,1.74 -0.05,0.41 -0.1,0.42 -0.26,0.66 -0.26,0.4 -0.14,0.28 -0.1,0.82 0.01,0.53 0.08,0.59 0.57,0.69 0.38,0.08 0.76,0.15 1.13,0.22 0.56,0.1 1.85,0.34 2.37,0.3 1.53,-0.34 0.67,0.81 3.99,-0.64 0.62,-0.27 1.07,-0.58 1.37,-1.07 0.5,-0.82 -0.08,-1.34 -0.44,-1.77 -0.7,-0.86 -1.92,-1.3 -3.34,-1.66 -1.46,-0.36 -3.09,-0.25 -4.6,-0.01z"/>
   <path class="fil3" d="M53.13 37.39c0.6,0.83 -0.89,3.89 -1.48,3.74 -0.6,-0.15 0.11,-1.91 0.25,-2.25 0.25,-0.6 0.65,-1.45 1.22,-1.49zm-5.81 4.52c0.09,-1.59 1.77,-4.5 2.97,-5.39 0.38,-0.28 1.67,-0.64 1,-1.35 -0.97,-1.02 -2.63,1.59 -3,2.13l-1.66 2.47c-0.2,0.3 -0.32,0.63 -0.58,0.77 -0.17,-0.35 0.54,-1.98 0.72,-2.49 0.13,-0.38 0.34,-0.88 0.38,-1.32 0.21,-2.25 -3.72,3.24 -4,3.36 0.08,-1.05 2.31,-3.65 1.84,-4.46 -0.59,-0.51 -1.19,0.78 -1.38,1.29 -0.25,0.7 -0.52,1.38 -0.83,2.12 -0.34,0.85 -1.7,3.6 -1.36,4.36 0.45,-0.13 0.71,-0.84 0.97,-1.21 0.65,-0.94 2.11,-2.78 2.98,-3.29 0.12,0.85 -0.51,1.91 0.03,2.82 0.84,0.18 1.04,-0.92 1.5,-1.3 0.32,0.44 -0.38,1.55 0.23,2.04 0.54,0.17 1.09,-0.4 1.3,-0.71 0.14,-0.2 0.26,-0.38 0.39,-0.62 0.16,-0.32 0.15,-0.43 0.38,-0.65 0.15,0.57 0.04,0.98 0.57,1.21 0.44,-0.15 0.61,-0.77 1.01,-1.03 0.21,0.37 0.23,1.75 1.24,1.07 0.23,-0.16 0.88,-0.99 1.11,-1.34 1.74,-2.74 1.58,-5.51 -0.07,-4.44 -0.45,0.3 -0.75,0.89 -1.06,1.38 -0.33,0.52 -0.6,1.01 -0.9,1.54 -0.22,0.39 -0.67,1.39 -0.91,1.56 -0.1,-0.24 0.27,-1.38 0.36,-1.69 0.18,-0.67 0.22,-1.38 -0.69,-1.18 -0.27,0.23 -0.78,1.92 -1.01,2.42 -0.32,0.68 -0.86,1.81 -1.53,1.95z"/>
   <path class="fil4" d="M25.83 30.11c0.41,0.51 -0.94,2.26 -1.19,2.58 -0.97,1.29 -3,2.88 -4.72,3.2 -0.73,0.14 -3.2,0.37 -3.6,-0.05 0.4,-0.42 1.81,0.23 2.07,-0.35 -0.32,-0.18 -1.33,-0.13 -1.78,-0.2 -0.59,-0.09 -1.07,-0.24 -1.62,-0.4 -0.56,-0.16 -1.05,-0.3 -1.62,-0.41 -0.37,-0.07 -1.51,-0.11 -1.72,-0.27 -0.65,0.13 -1.11,0.39 -1.17,1.11 -0.05,0.61 0.25,1.46 0.61,1.6 0.48,0.14 0.51,0.11 0.83,0.35 0.23,0.18 0.37,0.31 0.78,0.34l-0.09 -0.33c-0.45,-0.52 -1.09,-0.36 -1.31,-1.32 0.33,0.08 0.26,0.09 0.46,0.17 1.51,0.35 2.7,1.04 4.48,1.04l4.02 -0.08c0.44,0.19 0.05,0.59 1.1,0.29 1.56,-0.21 3.64,-2.79 4.4,-4.08 0.99,-1.67 1.95,-4.84 1.94,-6.67 -0.3,0.17 -0.72,1.34 -0.91,1.72 -0.27,0.54 -0.76,1.27 -0.95,1.76z"/>
   <path class="fil5" d="M14.4 42.61c0.76,0.81 4.85,0.26 5.44,0.46 0.01,0.25 0.27,0.25 -0.62,0.37 -1.15,0.16 -1.79,0.25 -2.99,-0.03 -0.84,-0.2 -2.93,-0.4 -3.26,-1.01l0.26 -0.07c-0.12,-0.07 -0,-0.04 -0.19,-0.05l-0.12 0.01c-0.3,0.04 0.02,0.05 -0.23,0.06 -0.53,0.01 -2.21,-1.44 -2.07,-3.13 -0.18,0.19 -0.12,0.18 -0.2,0.5 -0.03,0.13 -0.09,0.36 -0.11,0.5 -0.07,0.74 0.84,1.9 1.32,2.23 0.62,0.42 2.64,0.99 3.56,1.16 1.68,0.32 4.72,0.36 6.39,-0.31 0.28,-0.11 0.55,-0.26 0.77,-0.41 0.1,-0.07 0.25,-0.17 0.34,-0.24 0.25,-0.21 0.16,-0.09 0.3,-0.36 -0.58,0.1 -1.96,0.85 -2.4,0.63l1.14 -0.9c1.16,-0.92 2.09,-3 1.65,-4 -0.31,0.08 -0.05,-0.12 -0.3,0.22 -0.47,0.66 -0.61,1.03 -1.6,1.68 -1.49,0.98 -4.68,1.28 -6.44,0.82 -0.53,-0.14 -0.95,-0.36 -1.35,-0.6 -0,-0 -1.6,-1.31 -1.08,-0.03 0.85,2.11 1.97,2.02 2.15,2.58l-0.38 -0.06z"/>
   <path class="fil5" d="M18.59 18.6c0.01,0.02 0.04,0.02 0.04,0.06l0.09 0.11c2.78,3.1 6.48,1.11 8.97,1.51 2.77,0.45 4.34,3.34 4.64,5.95 0.01,0.06 0.03,0.25 0.04,0.3 0.02,0.07 0,0.04 0.04,0.12 0.07,0.18 0.01,0.06 0.09,0.16 0.34,-0.77 0.36,-1.86 0.79,-2.73 -0.01,-0.01 -0.03,-0.06 -0.03,-0.04 -0,0.01 -0.03,-0.04 -0.03,-0.05 -0.01,-0.01 -0.05,-0.08 -0.06,-0.1 -0.24,-0.46 -0.26,-0.87 -0.88,-1.91 -1.29,-2.16 -3.37,-3.23 -6.11,-3.34 -1.85,-0.07 -3.9,0.85 -5.56,0.17 -0.88,-0.36 -2.65,-2.48 -3.79,-2.27 -0.2,0.04 -0.09,-0 -0.21,0.08l0.28 0.26c0.12,0.08 0.23,0.13 0.32,0.19 0.2,0.14 0.41,0.31 0.58,0.44 0.22,0.17 0.35,0.27 0.57,0.44 0.17,0.13 0.5,0.35 0.22,0.66z"/>
   <path class="fil6" d="M16.65 14.68l-0.31 -0.03c-0.14,-1.15 1.15,-3.56 1.88,-3.65 -0.02,0.39 -0.36,0.9 -0.47,1.51 -0.13,0.77 0.13,1.19 0.08,1.9 0.22,-0.46 0.07,-0.56 0.47,-1.12 0.67,-0.94 1.97,-1.84 3.07,-1.76 0.5,0.04 0.72,0.37 1.04,0.59 0.29,0.19 0.74,0.39 1,0.6 0.77,0.61 0.6,1.71 1.02,2.17 -0.04,-0.4 0.1,-0.78 0.1,-1.22 0.03,-2.01 -0.88,-2.41 -0.99,-3.03 0.53,0.13 1.52,1.34 1.88,1.84 0.68,0.94 0.83,1.67 0.72,2.99 0.31,0.17 0.59,0.3 1.02,0.3 0.02,-1.6 -0.85,-3.32 -1.65,-4.31 -0.79,-0.98 -1.85,-2.02 -3.62,-2.29 -1.72,-0.26 -3.61,0.64 -4.42,1.46 -0.6,0.6 -1.94,2.76 -1.57,4.14 0.33,0.06 0.48,0.05 0.74,-0.07z"/>
   <path class="fil4" d="M15.64 23.13c-0.15,0.26 -0.66,0.47 -0.93,0.65 -0.34,0.23 -0.55,0.51 -0.93,0.62 -0.33,0.32 -0.33,0.88 -0.67,1.03 -0.47,-0.12 -0.31,-0.56 -1.34,-0.65 -0.68,-0.06 -1.24,0.09 -1.63,0.4 -0.4,0.32 -1.42,1.79 -1.45,2.56 0.06,0.27 0.01,0.09 0.13,0.16 1.27,-0.53 1.66,-1.43 3.54,-1.53 1.07,-0.06 0.64,0.29 1.26,0.47 0.5,-0.7 0.71,-1.31 1.7,-2.04 0.79,-0.59 1.44,-0.18 2.36,-0.18 0.13,0 0.29,-0.01 0.42,0.01l0.5 0.17c1.4,0.05 3.04,0.7 4.42,0.98 1.24,0.25 3.77,0.3 4.25,-0.96 -1.29,0.7 -1.1,0.97 -2.92,0.29 -0.61,-0.23 -2.34,-0.99 -2.73,-1.39 -0.66,0.2 -1.08,-0.12 -1.77,-0.37 -0.33,-0.12 -0.56,-0.17 -0.91,-0.26 -0.45,-0.13 -0.48,-0.32 -0.84,-0.37 -0.49,0.07 -0.88,0.07 -1.37,0.12 -0.47,0.05 -0.66,0.23 -1.09,0.29z"/>
   <path class="fil2" d="M88.39 36.75c0.16,-0.36 0.65,-2.66 0.62,-3.15 -0.84,-0.06 -7.24,-0.03 -7.61,0.11 -0.15,0.14 -0.08,0.04 -0.17,0.26l-0.2 0.88 0.77 -0.02c0.76,0.95 -0.27,1.14 -0.46,1.97 1.06,-0.05 0.63,-1.18 1.48,-1.3 0.38,0.48 0.09,0.77 0.04,1.26l5.53 -0.02z"/>
   <path class="fil7" d="M15.36 26.42c1.51,-0.25 3.14,-0.36 4.6,0.01 1.42,0.35 2.64,0.8 3.34,1.66 0.35,0.43 0.94,0.95 0.44,1.77 -0.3,0.49 -0.75,0.8 -1.37,1.07 -3.32,1.45 -2.46,0.3 -3.99,0.64 0.39,0.28 2.7,0.26 3.29,0.19 1.06,-0.13 1.78,-0.48 2.69,-0.87 0.98,-0.42 1.12,-0.91 1.66,-1.88 0.38,-0.69 1.01,-1.78 1.19,-2.48 -0.66,0.19 -0.77,0.92 -1.29,1.21 0.13,-0.56 0.81,-1.14 1.03,-1.71 -0.75,0.12 -0.96,0.65 -2.96,0.49 -2.06,-0.16 -6.27,-2.15 -8.36,-0.4l-0.26 0.3z"/>
   <path class="fil5" d="M6.75 34.51c-0.04,0.21 0.08,0.08 -0.15,0.15 -0.32,-0.49 -0.82,-0.64 -1.25,-1.27 -0.97,-1.4 -1.72,-3.71 -1.71,-5.65 0.01,-2.08 0.19,-2.44 1.78,-3.13 1.14,-0.5 1.34,-0.21 1.69,-0.76 0.16,-0.26 1.07,-0.89 1.36,-1.06 0.21,-0.34 0.25,-0.52 0.82,-0.55 -0.03,-0.53 0.17,-2.85 -0.1,-3.13 -0.1,0.63 -0.04,1.37 -0.48,1.8 -0.42,0.32 -0.94,-0.16 -2.25,0.94 -0.97,0.82 -2.44,2.35 -2.77,3.64 -0.27,1.06 -0.57,1.33 -0.6,2.59 -0.05,2.51 0.82,5.65 2.4,7.2 1.91,1.87 2.94,0.33 1.25,-0.76z"/>
   <path class="fil3" d="M70.73 19.68c-0.1,-0.55 0.61,-1.75 0.95,-2.24 0.36,-0.53 0.27,-0.43 0.52,-0.51 0.45,0.85 -0.54,2.91 -1.47,2.75zm5.13 -3.02c-0.54,-0.09 -0.83,0.68 -1.36,1.48 -0.9,1.35 -1.68,2.21 -2.7,3.37 -0.25,0.28 -0.47,0.48 -0.82,0.69 -1.52,0.93 -0.85,-1.15 -0.62,-1.8 0.88,-0.07 0.86,0.33 1.59,-0.36 0.34,-0.33 0.64,-0.72 0.9,-1.2 0.42,-0.79 0.94,-2.55 0.36,-3.4 -0.71,-1.05 -1.91,0.38 -2.4,1.2 -0.53,0.9 -0.92,1.93 -1.2,3.11 -0.21,0.89 -0.7,2.98 0.14,3.46 0.94,0.54 2.33,-1.04 2.73,-1.45 0.72,-0.73 1.26,-1.48 1.92,-2.38 0.41,-0.56 1.55,-2.08 1.47,-2.72z"/>
   <path class="fil5" d="M16.37 8.87c0.17,-0.11 0.04,-0.01 0.21,-0.16 0.63,-0.56 1.76,-1.73 2.61,-1.7 -0.42,0.78 -2.28,0.77 -3.85,4.34 -0.13,0.29 -0.61,1.76 -0.77,1.85 -0.12,-0.18 -0.14,-0.34 -0.13,-0.63 -0.15,0.23 -0.11,0.47 -0.09,0.76 0.05,0.8 -0.15,1.09 0.35,1.94 0.19,0.03 0.14,0.05 0.35,0.02 0.36,-0.04 0.18,-0.01 0.32,-0.13 -1.17,-0.05 -0.02,-3.28 0.2,-3.73 0.62,-1.29 1.29,-2.09 2.28,-2.78 2.58,-1.81 4.97,-1.49 7.61,0.09 0.11,-0.5 -1.38,-1.57 -2.12,-1.84 -1.05,-0.38 -3.43,-0.19 -3.66,-0.3 0.39,-0.38 1.81,-0.47 2.28,-0.43 0.72,0.06 1.54,0.39 2.08,0.71 1.41,0.82 3.21,3.26 2.52,1.18 -0.16,-0.48 -1.79,-1.99 -2.4,-2.23 -0.95,-0.28 -1.29,-0.59 -2.42,-0.52 -1.05,0.07 -1.47,0.27 -2.31,0.63 -0.92,0.4 -2,1.04 -2.63,1.84 -0.37,0.47 -0.29,0.47 -0.44,1.12z"/>
   <path class="fil3" d="M75.7 17.67c-0.12,0.64 0.6,0.82 1.59,1.36 0.69,0.38 1.33,0.7 2.05,1.06 0.7,0.36 3.6,2.04 4.03,2.15 1.14,0.28 1.5,-0.42 1.93,-1.04 0.55,-0.78 3.68,-5.12 3.78,-5.63 -0.43,0.09 -0.56,0.27 -1.02,0.38 -1.04,0.24 -1.05,0.63 -2.08,2.06 -2.46,3.41 -2.39,3.52 -4.66,2.3l-3.62 -1.94c-0.5,-0.27 -1.34,-0.94 -1.99,-0.69z"/>
   <path class="fil3" d="M35.21 40.03c-0.02,-0.45 0.36,-1.28 0.54,-1.62 0.25,-0.49 0.44,-1.07 0.91,-1.26 0.02,0.78 -0.07,1.32 -0.35,1.91 -0.22,0.46 -0.5,1.08 -1.1,0.98zm-0.85 3.54c1.33,0.17 2.63,-1.8 3.36,-2.85 0.43,-0.62 2.21,-3.22 2.09,-4.01 -0.51,0.09 -0.9,1.02 -1.22,1.59 -0.34,0.6 -0.72,1.15 -1.09,1.7 -0.46,0.67 -1.96,2.91 -2.79,2.81 -0.12,-0.55 0.04,-1.63 0.24,-2.05 0.97,0.09 1.19,-0.16 1.66,-0.81 1.61,-2.21 1.36,-6.09 -0.55,-4.09 -0.98,1.02 -2.84,6.01 -1.7,7.71z"/>
   <path class="fil8" d="M2.07 12.24c-0.07,0.25 -0.53,0.55 -1.06,2.23 -0.29,0.91 -0.54,1.98 -0.32,3.02 0.25,1.21 1.37,4.14 2.05,4.76 0.65,-0.51 -0.29,-1.75 -0.51,-2.34 -0.33,-0.27 -0.25,-0.49 -0.35,-0.99 -0.1,-0.48 -0.17,-0.79 -0.19,-1.29 -0.02,-0.42 0.07,-1.02 0.05,-1.36 -0.05,-0.6 -0.71,-0.2 -0.27,-1.02 0.09,-1.25 0.71,-2.05 1.68,-2.37 1.09,-0.36 2.32,0.13 3.19,0.57 1.63,0.83 4.13,2.96 4.94,0.02l-0.27 -0.06 -0.18 0.28c-0.37,1.11 -1.45,1.1 -2.32,0.41 -1.08,-0.03 -2.12,-1.24 -3.35,-1.59 -0.63,-0.18 -1.19,0.06 -1.56,-0.11 0.04,-0.46 0.53,-0.54 1.3,-0.67 2.09,-0.34 2.93,0.84 4.52,0.15 0.12,-0.05 0.26,-0.12 0.3,-0.22 0.13,-0.36 -0.03,-0.25 -0.18,-0.33 -1.39,0.04 -1.84,-0.22 -3,-0.54 -0.33,0 -1.19,-0.05 -1.44,0.06 -0.31,0.15 -0.14,0.32 -0.85,0.58 -0.38,0.14 -0.69,0.23 -1,0.44 -0.53,0.35 -0.53,0.14 -1.16,0.35z"/>
   <path class="fil3" d="M95.97 23.53c-1.04,0.03 -3.84,-3.84 -4.97,-3.63 -0.31,0.85 1.1,1.68 2.1,2.61 0.36,0.34 2.3,2.14 2.74,2.23 1.07,0.22 1.44,-1.79 1.82,-2.99 0.59,-1.9 0.21,-2.39 -0.95,-3.36 -0.88,-0.74 -1.65,-1.62 -2.57,-2.32 -0.63,-0.48 -1.65,-0.48 -0.92,0.33 0.82,0.9 3.47,2.88 3.85,3.57 0.33,0.61 -0.07,1.27 -0.3,1.83 -0.2,0.51 -0.48,1.4 -0.81,1.73z"/>
   <path class="fil8" d="M17.59 5.15c-0.35,1.15 -0.86,0.95 -1.26,1.7 0.87,-0.04 1.21,-1.3 3.61,-1.87 1.16,-0.28 2.28,-0.31 3.36,0.19 0.28,0.13 0.24,0.15 0.41,0.26l0.32 0.2c0.15,0.14 0.01,-0.04 0.14,0.17 0.61,0.24 2.24,1.75 2.4,2.23 0.32,0.2 1.12,1.44 1.38,1.83 0.25,0.38 1,1.74 1.28,1.91 0.38,-1.7 -3.3,-9.41 -9.87,-7.38 -0.3,0.09 -0.66,0.22 -0.92,0.34 -0.27,0.13 -0.6,0.38 -0.85,0.41z"/>
   <path class="fil5" d="M10.14 19.45c0.23,0.83 1.02,1.52 2.05,1.53 1.18,0.01 1.52,-1.07 2.21,-1.45l-0.03 0.52c0.12,-0.15 0.02,0.17 0.12,-0.24 0.08,-0.33 -0.21,-2.68 -1.9,-2.94 -0.94,-0.15 -1.93,0.76 -2.15,1.62 -0.11,0.45 0.04,0.72 -0.3,0.95z"/>
   <path class="fil9" d="M28.1 17.88c-0.06,-0.33 -0.92,-0.66 -1.56,-1.04 -0.93,-0.54 -0.91,-0.44 -2,-0.7 -0.92,-0.22 -1.12,-0.39 -2.16,-0.42 -0.68,-0.02 -1.96,-0.31 -2.26,0.23 -0.14,0.26 -0.08,0.79 0.03,1.03 0.38,0.87 2.28,0.93 3.1,0.85 0.92,-0.08 1.45,-0.16 2.4,-0.05 0.45,0.05 2.11,0.29 2.45,0.09z"/>
   <path class="fil5" d="M10.24 38.7c-0.31,0.25 -1.23,0.95 -1.6,0.96 -0.39,0.02 -0.68,-0.21 -0.91,-0.38 -0.27,-0.2 -0.45,-0.36 -0.7,-0.51 0.03,0.32 0.05,0.12 -0.07,0.28 -0.52,-0.19 -1.64,-1.51 -2.04,-2.01 -0.32,-0.4 -0.6,-0.74 -0.91,-1.11l-0.58 -0.97c-0.1,-0.43 -0.02,-0.32 0.2,-0.4 -0.01,-0.02 -0.03,-0.04 -0.04,-0.06 -0.01,-0.01 -0.03,-0.04 -0.04,-0.06 -0.01,-0.01 -0.03,-0.04 -0.04,-0.05l-0.23 -0.36c-0.12,-0.19 -0.25,-0.3 -0.36,-0.49 -0.35,-0.62 -1.09,-2.84 -1.07,-3.75l-0.24 0.44c-0.27,-0.43 -0.3,-3.29 -0.3,-4.01 -0.01,-0.74 0.16,-1.21 0.34,-1.85 0.18,-0.64 0.23,-1.23 -0.26,-1.62 -0.59,0.03 -0.6,0.48 -0.7,1.07 -0.09,0.53 -0.12,1.07 -0.1,1.63 0.12,3.23 0.64,5.6 1.96,8.36 1,2.09 2.81,4.43 4.48,5.81 2.85,2.35 2.56,0.48 3.21,-0.93z"/>
   <path class="fil8" d="M6.79 18.64c-0.14,0.2 -0.65,0.5 -0.9,0.7 -2.51,2.01 -3.98,5 -3.99,8.43 0.38,-0.57 0.67,-4.56 3.81,-7.17 0.27,-0.22 0.57,-0.68 0.94,-0.57 -0.04,0.18 -1.71,1.68 -1.89,2.25 0.22,-0.12 0.35,-0.32 0.51,-0.51 0.64,-0.79 2.12,-1.7 3,-2.22 0.77,-0.46 0.82,-0.22 0.85,-1.21l0.05 -0.29c-0.43,0.04 -1.44,0.51 -1.79,0.75 -0.22,-0.04 -0.15,0.04 -0.27,-0.18l-0.33 0.03z"/>
   <path class="fil5" d="M28.37 22.06c-0.14,-0.4 -0.17,-0.22 -0.37,-0.58 0.82,0.17 1.43,0.91 1.84,1.41 0.01,0.02 1.58,1.99 0.81,2.02 0.14,0.39 0.35,0.92 0.54,1.44 0.13,0.36 0.22,1.35 0.41,1.62 0.06,-1.73 -0.27,-3.54 -1.14,-4.78 -2.89,-4.07 -5.3,-1.17 -9.05,-2.25 -0.72,-0.21 -1.42,-0.57 -1.95,-0.99 -0.48,-0.38 -1.12,-1.01 -1.75,-1.25 0.16,0.37 1.35,1.62 1.64,1.87 1.38,1.17 3.61,1.05 5.7,1.21 1.15,0.09 2.23,0.19 3.32,0.28z"/>
   <path class="fil10" d="M11.64 34.22c0.21,0.16 1.35,0.2 1.72,0.27 0.57,0.11 1.06,0.25 1.62,0.41 0.55,0.16 1.04,0.31 1.62,0.4 0.45,0.07 1.46,0.02 1.78,0.2 -0.26,0.58 -1.67,-0.07 -2.07,0.35 0.4,0.43 2.88,0.19 3.6,0.05 1.72,-0.32 3.75,-1.91 4.72,-3.2 0.25,-0.33 1.59,-2.07 1.19,-2.58 -0.33,0.38 -0.81,1.18 -1.11,1.65 -0.48,0.73 -0.74,1.02 -1.32,1.55 -0.32,0.29 -2.59,2.5 -3.56,2.02 0.14,-0.25 0.02,-0.11 0.35,-0.25 0.27,-0.11 0.21,-0.04 0.42,-0.26l-0.46 -0.04c-1.55,0.23 -2.51,0.31 -4.18,-0.14 -1.19,-0.32 -3.04,-0.9 -4.33,-0.43z"/>
   <path class="fil5" d="M4.25 29.18l-0 -0.59c0.58,-3.13 1.65,-2.55 3.55,-3.28 2.37,-0.92 1.87,-1.58 2.52,-2.04 0.22,-0.16 1.41,-0.07 2.01,-0.28 1.01,-0.35 2.01,-1.2 1.99,-2.6l-0.38 0.44c-0.1,0.12 -0.26,0.28 -0.37,0.38 -1.39,1.22 -2.79,0.02 -3.31,-0.11 -0.04,0.96 1.92,0.92 2.14,1.08 -0.41,0.54 -1.7,0.01 -2.23,-0.08 -0.64,2.17 -1.38,2.34 -3.61,2.96 -0.82,0.23 -1.85,0.57 -2.12,1.17 -0.23,0.5 -0.39,2.45 -0.18,2.95z"/>
   <path class="fil2" d="M50.04 37.09c2.16,0.14 2.05,-0.09 2.27,-1.18 0.18,-0.87 0.46,-1.99 0.55,-2.84 -0.39,0.17 -0.78,0.84 -1.54,0.65 -0.73,-0.18 -0.49,-1.03 -0.86,-1.42 -0.15,0.05 -1.13,1.17 -1.22,1.54 -0.15,0.62 -0.42,1.71 -0.46,2.32 0.4,-0.19 0.85,-0.94 1.52,-1.24 0.9,-0.4 1.65,0.21 1.29,1.08 -0.35,0.38 -1.4,0.35 -1.55,1.09z"/>
   <path class="fil11" d="M12.61 37.29l0.09 0.33c-0.41,-0.03 -0.54,-0.16 -0.78,-0.34 -0.32,-0.24 -0.36,-0.21 -0.83,-0.35 0.31,0.8 1.11,0.98 2.06,1.24 3.01,0.81 4.72,0.43 7.62,-0.49 0.59,-0.19 0.44,-0.11 0.59,-0.29 -1.05,0.3 -0.66,-0.1 -1.1,-0.29l-4.02 0.08c-1.78,0 -2.96,-0.69 -4.48,-1.04l0.28 0.27c1.44,1.11 3.07,0.97 4.62,0.94 0.68,-0.01 1.31,0.13 1.91,0.1 -0.26,0.67 -2.22,0.56 -3.01,0.53 -1.56,-0.05 -1.75,-0.38 -2.95,-0.69z"/>
   <path class="fil2" d="M10.3 28.28l-0.94 0.61c0.2,0.37 0.57,0.53 0.82,0.85 1.27,1.64 0.51,1.7 3.12,1.3l-0.12 -0.55c-0.22,-0.21 -0.27,-0.77 -0.38,-1.01 -0.16,-0.36 -0.26,-0.53 -0.47,-0.8 -0.6,-0.75 -1.01,-0.52 -2.04,-0.41z"/>
   <path class="fil8" d="M29.71 34.45c0.39,-0.5 1.46,-3.42 1.64,-4.24l-0.12 -2.09c-0.38,0.12 -0.34,0.69 -0.48,1.17 -0.14,0.46 -0.26,0.85 -0.37,1.31 -0.68,2.84 -3.15,5.44 -3.41,6.54 0.67,-0.06 0.58,-0.19 0.86,-0.58l1.25 -1.45c0.38,-0.44 0.32,-0.5 0.63,-0.67z"/>
   <path class="fil8" d="M14.62 22.43c0.62,-0.25 0.98,-0.62 1.7,-0.75 0.91,-0.17 1.38,-0.09 2.27,0.01 0.42,0.01 0.08,0.02 0.21,-0.1 -0.89,-1.15 -0.49,-0.94 -1.02,-1.71 -0.24,-0.35 -0.94,-1.22 -1.53,-1.14 -0.21,1.78 -0.3,1.47 -1.49,3.24 -0.39,0.59 -0.18,0.38 -0.14,0.45z"/>
   <path class="fil6" d="M4.63 19.75c-0.81,-0.61 -0.08,-2.85 0.22,-3.38l0.31 1.32c0.31,-0.39 0.45,-1.2 0.6,-1.76 0.31,-1.14 1.06,-0.26 1.38,-1 -0.15,-0.31 -0.83,-0.67 -1.2,-0.76 -0.76,0.34 -1.59,1.4 -1.94,2.36 -0.33,0.89 -0.47,3.04 0.09,3.8 0.18,-0.15 0.41,-0.39 0.54,-0.57z"/>
   <path class="fil5" d="M10.81 7.37l0.29 -0.05c0.45,-0.14 0.96,-0.29 1.49,-0.3 0.3,-0.22 0.86,-0.42 1.28,-0.43 0,0.33 -0.01,0.69 -0.18,0.91 -0.54,0.47 -0.43,-0.18 -0.77,1.01 -0.13,0.46 -0.34,1.01 -0.28,1.51 0.31,0.21 0.52,0.43 0.71,-0.01 -0.2,-0.01 -0.12,0.12 -0.12,-0.18 0,-0.11 0.07,-0.23 0.1,-0.31 0.88,-2.13 2.32,-3.03 2.35,-3.48 -0.71,-0.15 -1.48,0.31 -1.9,0.29 -0.23,-0.01 -0.17,-0.02 -0.25,-0.07 0.75,-0.37 1.88,-0.45 2.29,-1.01 -0.63,-0.07 -2.25,0.55 -2.76,0.79l-2.11 1.19c-0.11,0.09 -0.06,0.05 -0.15,0.14z"/>
   <path class="fil12" d="M1.47 15.25c-0.44,0.83 0.22,0.43 0.27,1.02 0.03,0.33 -0.06,0.93 -0.05,1.36 0.02,0.49 0.1,0.81 0.19,1.29 0.1,0.5 0.02,0.71 0.35,0.99 -0.08,-0.41 -0.05,-0.09 0.09,-0.18 0.2,0.31 0.17,0.37 0.42,0.6 0.22,-0.48 -0.97,-2.48 0.61,-5.21 0.29,-0.51 0.63,-0.78 0.88,-1.19 -0.83,0.01 -1.32,1.13 -1.83,1.51 0.19,-0.92 1.25,-1.58 1.35,-1.95 -1.69,0.31 -1.87,1.95 -2.25,2.26l-0.03 -0.5z"/>
   <path class="fil4" d="M8.4 29.34c-0.04,0.73 1.14,1.14 1.01,4.38 -0.03,0.82 -0.15,1.44 0.33,1.52 0.27,-0.55 -0.33,-1.2 -0.18,-1.7 0.38,0.18 0.24,0.32 0.51,0.53l0.74 -0.6c0.45,-0.8 -1.38,-5.05 -2.42,-4.13z"/>
   <path class="fil8" d="M25.68 41c1.38,-0.25 2.55,-0.92 3.47,-1.6 0.67,-0.5 2.06,-1.81 2.46,-2.56l-0.43 -0.82c-0.25,0.21 -0.32,0.52 -0.57,0.79l-1.96 1.92c-0.48,0.4 -0.92,0.75 -1.48,1.14 -0.69,0.48 -1.41,0.69 -1.49,1.14z"/>
   <path class="fil11" d="M8.68 27.74l-0.17 0.3c-0.05,0.13 -0.02,0.13 -0.12,0.29 -0.23,0.37 -0.24,0.06 -0.36,0.53 0.74,0.02 0.98,-0.37 1.42,-0.74 0.36,-0.3 0.83,-0.66 1.26,-0.93 0.43,-0.27 1,-0.49 1.64,-0.47 1.26,0.04 0.86,0.42 1.43,0.76 0.15,-0.17 0.22,-0.35 0.36,-0.57 0.13,-0.21 0.27,-0.35 0.41,-0.52 1.12,-1.29 2.26,-1.67 4.03,-1.61l-0.5 -0.17c-0.13,-0.02 -0.29,-0.01 -0.42,-0.01 -0.91,-0 -1.56,-0.41 -2.36,0.18 -0.98,0.73 -1.19,1.34 -1.7,2.04 -0.62,-0.18 -0.19,-0.52 -1.26,-0.47 -1.88,0.1 -2.28,1 -3.54,1.53 -0.12,-0.07 -0.07,0.1 -0.13,-0.16z"/>
   <path class="fil13" d="M24.44 14.89c0.21,0.32 1.26,0.49 1.72,0.57 0.11,-1.32 -0.05,-2.05 -0.72,-2.99 -0.35,-0.49 -1.35,-1.7 -1.88,-1.84 0.1,0.63 1.01,1.03 0.99,3.03 -0.01,0.45 -0.14,0.83 -0.1,1.22z"/>
   <path class="fil2" d="M36.26 33.83c0.37,-0.16 0.69,-0.44 1,-0.65 0.55,-0.38 1.48,-1.04 2.05,-1.31 0.6,-0.29 0.93,-0.09 0.99,-0.79l-3.44 0.03 -0.6 2.73z"/>
   <path class="fil3" d="M61.21 13.46c1.36,-0.1 2.22,-1.58 2.2,-2 -0.03,-1.04 -1.15,0.74 -1.59,0.81 -0.03,0.03 0.09,0.17 -0.26,0.06 -0.24,-0.08 -0.39,-0.47 -0.46,-0.64 -0.59,-1.46 -1.68,-0.28 -2.02,0.32 -0.22,0.4 -0.11,0.45 -0.11,0.45l0.06 0.13c0.41,0.09 0.62,-0.59 0.84,-0.88 0.64,-0.02 0.61,0.3 0.71,0.83 0.1,0.53 0.38,0.55 0.63,0.91z"/>
   <path class="fil3" d="M81.8 28c-0.26,0.35 -0.13,0.28 -0.57,0.5 -0.27,0.13 -0.58,0.2 -0.83,0.34 0.25,0.4 0.67,0.39 0.93,0.99 0.51,-0.27 0.44,-0.54 1.12,-1.46 0.36,-0.49 0.75,-0.98 1.14,-1.39 0.74,-0.79 1.21,-1.18 2.02,-1.78 1.01,-0.74 0.25,-0.79 0.11,-0.76 -0.1,0.02 -0.26,0.13 -0.35,0.19 -0.23,0.16 -0.4,0.28 -0.58,0.43 -1.19,0.93 -1.86,1.91 -2.78,3.11 -0.31,-0.05 -0.13,0.09 -0.2,-0.17z"/>
   <path class="fil3" d="M75.4 19.33c1,0.39 2.44,1.29 3.36,1.69 0.45,0.2 1.18,0.09 1.72,0.08 -0.11,-0.32 -0.62,-0.5 -1.13,-0.76 -0.88,-0.46 -3.16,-1.77 -3.7,-1.95 -0.17,0.22 -0.24,0.61 -0.26,0.94z"/>
   <path class="fil3" d="M50.62 31.24c-0.26,0.09 -0.78,0.55 -0.91,0.73 -0.21,0.28 -0.43,0.72 -0.41,1.15 0.61,-0.14 0.68,-0.92 1.15,-1.04 0.49,0.42 0.36,2.18 1.69,1.32 0.42,-0.27 1.44,-1.27 1.24,-2.18 -0.77,0.08 -0.8,0.99 -1.41,1.25 -0.71,0.3 -0.38,-0.99 -1.35,-1.23z"/>
   <path class="fil14" d="M13.35 39.04c-0.5,-0.03 -0.24,0 -0.36,0.08 1,1.42 8.87,0.04 9.02,-1.11l-0.35 0.03c-0.52,0.09 -1.31,0.45 -1.87,0.6 -0.66,0.17 -1.28,0.3 -1.96,0.4 -1.75,0.27 -2.79,0.05 -4.48,-0.01z"/>
   <path class="fil8" d="M6 27.86c0.74,1.29 1.46,1 2.06,-0.2 0.22,-0.45 0.33,-0.89 0.57,-1.37 0.23,-0.46 0.64,-0.93 0.77,-1.24 -0.12,-0.13 0.09,-0.15 -0.32,-0.12 -0.29,0.02 -0.47,0.38 -0.64,0.58 -0.27,0.33 -0.47,0.56 -0.71,0.89 -0.89,1.2 -0.66,0.83 -1.49,1.29 -0.18,0.1 -0.11,0.04 -0.23,0.18z"/>
   <path class="fil13" d="M10.3 28.28c1.03,-0.12 1.44,-0.34 2.04,0.41 0.21,0.27 0.31,0.44 0.47,0.8 0.1,0.24 0.16,0.81 0.38,1.01 -0.04,-0.18 -0.11,-0.72 -0.03,-0.87 0.11,-0.21 0,-0.07 0.21,-0.13 0.09,0.23 0.07,0.48 0.19,0.75 0.27,0.62 0.03,0.45 0.23,0.72l0.04 -0.12c0,-0 0.01,-0.23 0.01,-0.24 0.03,-0.34 -0.11,-1.25 -0.14,-1.69 -0.08,-0.95 -0.97,-1.79 -2.18,-1.42 -0.21,0.06 -0.47,0.18 -0.65,0.28 -0.05,0.03 -0.27,0.16 -0.31,0.19 -0.24,0.19 -0.12,0.05 -0.25,0.32z"/>
   <path class="fil5" d="M8.9 35.03c-0.14,-1.42 0.16,-2.55 -0.27,-3.91 -0.42,-1.32 -0.61,-1.89 -2.07,-2.1 0.14,0.56 0.56,0.92 0.86,1.29 1.03,1.26 0.76,3.2 1.35,4.52 0.1,0.22 0.04,0.1 0.12,0.2z"/>
   <path class="fil13" d="M16.65 14.68c0.32,-0.02 1.06,0.03 1.18,-0.27 0.05,-0.71 -0.21,-1.13 -0.08,-1.9 0.1,-0.62 0.45,-1.12 0.47,-1.51 -0.73,0.09 -2.02,2.5 -1.88,3.65l0.31 0.03z"/>
   <path class="fil8" d="M4.25 29.18c-0.09,1.87 1.56,4.52 2.44,5.22l0.28 -0.09c-0.1,-0.48 -1.16,-1.88 -1.48,-2.59 -0.45,-0.98 -0.59,-2.06 -0.92,-3.16l-0.33 0.02 0 0.59z"/>
   <path class="fil3" d="M72.14 13.83c0.39,0.21 0.72,-0.09 1.17,-0.23 1.13,-0.33 3.38,-0.69 2.97,-1.82 -0.91,-0.29 -4.02,1.67 -4.14,2.05z"/>
   <path class="fil15" d="M13.79 24.4c0.38,-0.11 0.59,-0.39 0.93,-0.62 0.27,-0.18 0.77,-0.39 0.93,-0.65 -0.02,-0.37 -0.05,-0.28 0.43,-0.44 0.23,-0.08 0.42,-0.13 0.69,-0.16 0.46,-0.06 1.06,-0.03 1.34,0.19 0.36,0.05 0.38,0.24 0.84,0.37 0.35,0.1 0.58,0.15 0.91,0.26 0.69,0.25 1.11,0.57 1.77,0.37 -0.21,-0.02 -1.5,-0.76 -1.89,-0.92 -0.68,-0.28 -1.51,-0.53 -2.32,-0.56 -1.75,-0.07 -3.19,0.88 -3.63,2.16z"/>
   <path class="fil14" d="M33.42 16.88c0.42,0.57 0.72,1.72 0.88,2.51 0.09,0.45 0.24,0.84 0.34,1.32 0.08,0.39 0.08,1.17 0.22,1.46 0.67,-0.21 0.4,-0.87 0.26,-1.61 -0.13,-0.73 -1.12,-4.59 -1.93,-4.58 -0.04,0.37 0.13,0.59 0.23,0.91z"/>
   <path class="fil2" d="M70.13 36.95c0.48,-0.09 0.54,-0.36 0.82,-0.68 0.5,-0.57 1.3,-1.17 1.38,-1.32 0.09,-0.19 0.24,-0.83 0.19,-1.1 -0.55,-0.04 -0.87,-0.17 -1.11,0.26 -0.28,0.5 -1.24,2.5 -1.27,2.84z"/>
   <path class="fil3" d="M36.57 33.97c0.5,0.26 1.68,-0.43 2.18,-0.65 0.88,-0.37 1.66,-0.35 1.41,-1.61 -0.43,0 -1.45,0.78 -1.89,1.05 -0.52,0.32 -1.64,0.85 -1.71,1.21z"/>
   <path class="fil16" d="M13.99 8.67c0.66,0.08 0.04,-0.01 0.5,0.31 0.18,-0.31 1.54,-1.89 1.84,-2.12 0.39,-0.75 0.9,-0.55 1.26,-1.7 -0.4,0.29 -0.71,0.43 -1.08,0.7 -0.82,0.61 -1.5,1.41 -2.13,2.25 -0.17,0.22 -0.18,0.33 -0.39,0.56z"/>
   <path class="fil13" d="M4.63 19.75c0.13,-0.1 0.67,-0.6 0.73,-0.76 0.07,-0.17 -0.15,-1 -0.2,-1.3l-0.31 -1.32c-0.3,0.54 -1.03,2.77 -0.22,3.38z"/>
   <path class="fil8" d="M11.1 7.32c-0.24,0.33 -0.89,0.72 -1.28,0.87l0.02 0.82c0.47,0.04 2.39,-1.37 2.8,-1.74l-0.06 -0.25c-0.53,0.01 -1.03,0.17 -1.49,0.3z"/>
   <path class="fil11" d="M6.96 16.33c0.47,-0.09 -0.04,-0.12 0.56,-0.27 0.23,-0.06 0.55,-0.07 0.82,-0.05 0.1,0.16 0.24,0.37 0.34,0.57 0.15,0.32 0.1,0.44 0.39,0.59 0.48,-0.36 0.07,-0.52 -0.03,-0.8l0.11 -0.03c0.01,-0 0.04,-0.01 0.05,-0.02 0.08,-0.05 0.08,0.15 0.11,-0.14 0.04,-0.37 -0.81,-0.77 -1.11,-0.89 -0.86,-0.35 -1.48,0.52 -1.24,1.05z"/>
   <path class="fil17" d="M61.16 13.5l0.05 -0.04c-0.25,-0.35 -0.53,-0.37 -0.63,-0.91 -0.1,-0.53 -0.07,-0.85 -0.71,-0.83 -0.23,0.29 -0.44,0.96 -0.84,0.88l-0.06 -0.13c0,-0 -0.11,-0.06 0.11,-0.45 0.34,-0.6 1.42,-1.78 2.02,-0.32 0.07,0.17 0.22,0.56 0.46,0.64 0.35,0.11 0.23,-0.03 0.26,-0.06 -0.33,-0.07 -0.08,-0.06 -0.18,0.04 0.28,-0.11 0.01,0.03 0.1,-0.2l-0.25 0.04c-0.21,-0.45 -0.46,-1.82 -1.68,-1.2 -0.46,0.24 -1.29,1.28 -1.17,2.03 0.92,0.28 0.82,-1.01 1.62,-1.02 0.25,0.74 0.14,1.25 0.91,1.53z"/>
   <path class="fil2" d="M21 11.79c-0.21,0.29 -0.49,0.46 -0.34,0.99 0.08,0.3 0.43,0.63 0.91,0.49 0.63,-0.19 0.93,-1.65 -0.57,-1.47z"/>
   <path class="fil16" d="M2.07 12.24c0.63,-0.21 0.63,-0.01 1.16,-0.35 0.31,-0.2 0.61,-0.3 1,-0.44 0.71,-0.26 0.54,-0.43 0.85,-0.58 0.25,-0.12 1.11,-0.06 1.44,-0.06l-0.24 -0.11c-0.66,-0.19 -1.78,0.15 -2.38,0.35 -0.33,0.11 -0.77,0.21 -1.03,0.4l-0.8 0.8z"/>
   <path class="fil18" d="M75.6 20.32l0.04 0.75c0.47,0.1 1.42,0.13 1.8,-0.08 -0.07,-0.13 -1.14,-1.1 -1.83,-0.67z"/>
   <path class="fil11" d="M22.37 13.43c0.26,0.37 1.08,1.19 1.5,1.14 0.02,-0.49 -0.88,-1.56 -1.15,-1.76 -0.28,0.07 -0.34,0.19 -0.49,0.36 0,0 0.06,0.17 0.14,0.27z"/>
   <path class="fil19" d="M14.3 30.36c-0.03,-0.54 -0.16,-0.41 0.1,-0.82 0.15,-0.24 0.21,-0.25 0.26,-0.66 0.07,-0.6 0.02,-1.15 0.16,-1.74l-0.28 0.26c-0.11,0.12 -0.12,0.13 -0.21,0.29 -0.37,0.66 -0.22,2.4 -0.03,2.67z"/>
   <path class="fil2" d="M74.74 36.51l0.01 0.2c0.67,-0.03 0.59,0.15 1.06,0.19 0.21,-0.32 0.31,-0.88 0.32,-1.36 -0.64,0.18 -1,0.65 -1.39,0.96z"/>
   <path class="fil11" d="M6.13 16.57l-0.02 0.2c0.34,-0.05 0.37,-0.14 0.39,0.27l-0.41 -0.02 -0.07 0.09c-0.09,0.17 -0.01,-0 -0.08,0.16 -0.12,0.28 -0.24,0.71 -0.08,1 0.41,-0.04 0.09,-0.01 0.4,-0.26 0.1,-0.08 0.3,-0.18 0.39,-0.27 0.09,-0.51 0.1,-0.95 -0.13,-1.37 -0.13,0.1 -0.21,0.16 -0.4,0.19z"/>
   <path class="fil16" d="M6.79 18.64l0.33 -0.03c0.12,0.22 0.05,0.14 0.27,0.18 0.35,-0.24 1.36,-0.71 1.79,-0.75l-0.05 -0.39c-0.6,-0.05 -2.03,0.72 -2.34,0.99z"/>
   <path class="fil20" d="M20.51 13.36c-0.38,-0.01 -0.47,-0.26 -0.64,-0.47 -0.21,0.11 -0.43,0.28 -0.61,0.43 -0.23,0.19 -0.33,0.24 -0.35,0.61 0.56,-0.04 1.27,-0.24 1.6,-0.58z"/>
   <path class="fil19" d="M13.19 30.49l0.12 0.55 0.63 -0c0.01,-0.15 0.04,-0.1 -0,-0.26 -0.05,-0.17 -0.02,-0.07 -0.1,-0.17 0,0.01 -0.01,0.23 -0.01,0.24l-0.04 0.12c-0.2,-0.27 0.04,-0.1 -0.23,-0.72 -0.12,-0.27 -0.11,-0.52 -0.19,-0.75 -0.21,0.06 -0.1,-0.07 -0.21,0.13 -0.08,0.15 -0.01,0.68 0.03,0.87z"/>
   <path class="fil21" d="M70.24 21.61c-0.14,0.29 -0.13,0.37 -0.03,0.7 0.4,0.04 0.39,0.06 0.86,-0.33 0.25,-0.2 0.13,-0.04 0.23,-0.31l-1.06 -0.06z"/>
   <path class="fil22" d="M8.47 22.79c0.26,0.12 0.06,0.41 -0,0.69 0.33,-0.08 0.37,-0.17 0.53,-0.44 0.16,-0.28 0.22,-0.45 0.3,-0.79 -0.57,0.02 -0.61,0.21 -0.82,0.55z"/>
   <path class="fil23" d="M8.9 10.79c-0.22,-0.43 -0.48,-0.44 -0.25,-0.91 -0.34,0.11 -0.95,0.17 -1.16,0.42l1.41 0.5z"/>
   <path class="fil24" d="M19.87 12.89c0.17,0.21 0.26,0.46 0.64,0.47l0.1 -0.12c-0.05,-0.37 -0.09,-0.47 -0.33,-0.68 -0.29,0.06 -0.29,0.07 -0.4,0.33z"/>
   <path class="fil21" d="M6.13 16.57c0.18,-0.02 0.27,-0.09 0.4,-0.19 0.01,-0.25 -0.01,-0.43 -0.09,-0.6 -0.45,0.03 -0.52,0.41 -0.3,0.78z"/>
   <path class="fil25" d="M6.09 17.03l0.41 0.02c-0.02,-0.41 -0.05,-0.32 -0.39,-0.27l-0.02 0.25z"/>
  </g>
 </g>
</svg>
