<?xml version="1.0" encoding="UTF-8"?>
<!DOCTYPE svg PUBLIC "-//W3C//DTD SVG 1.1//EN" "http://www.w3.org/Graphics/SVG/1.1/DTD/svg11.dtd">
<!-- Creator: CorelDRAW -->
<svg xmlns="http://www.w3.org/2000/svg" xml:space="preserve" width="65.7319mm" height="35.662mm" version="1.1" style="shape-rendering:geometricPrecision; text-rendering:geometricPrecision; image-rendering:optimizeQuality; fill-rule:evenodd; clip-rule:evenodd"
viewBox="0 0 163.39 88.64"
 xmlns:xlink="http://www.w3.org/1999/xlink"
 xmlns:xodm="http://www.corel.com/coreldraw/odm/2003">
 <defs>
  <style type="text/css">
   <![CDATA[
    .fil13 {fill:#005CA2}
    .fil24 {fill:#015798}
    .fil8 {fill:#050304}
    .fil0 {fill:#060405}
    .fil18 {fill:#093759}
    .fil15 {fill:#0A0909}
    .fil28 {fill:#121112}
    .fil29 {fill:#141314}
    .fil21 {fill:#3B3738}
    .fil19 {fill:#413C3A}
    .fil20 {fill:#444344}
    .fil16 {fill:#595A5E}
    .fil5 {fill:#616569}
    .fil6 {fill:#64666A}
    .fil3 {fill:#64676B}
    .fil1 {fill:#65686C}
    .fil11 {fill:#66686D}
    .fil31 {fill:#676A6E}
    .fil22 {fill:#7C7B7C}
    .fil2 {fill:#892D5B}
    .fil32 {fill:#A2B4CD}
    .fil17 {fill:darkgray}
    .fil25 {fill:#C4C4BC}
    .fil33 {fill:#E9E9E5}
    .fil23 {fill:#EAEAEA}
    .fil10 {fill:#ECECEB}
    .fil7 {fill:#EDEDED}
    .fil4 {fill:#EEEEEE}
    .fil30 {fill:#F1F1EE}
    .fil26 {fill:#F6F6F6}
    .fil27 {fill:#F7F7F8}
    .fil14 {fill:#FCFCFA}
    .fil9 {fill:#FEFEFE}
    .fil12 {fill:#FFFFF7}
   ]]>
  </style>
 </defs>
 <g id="Camada_x0020_1">
  <metadata id="CorelCorpID_0Corel-Layer"/>
  <g id="_2070817543376">
   <path class="fil0" d="M15.61 9.53c-1.11,2.81 -0.52,4.15 -2.17,4.28l-2.4 3.59c-2.69,1.92 -2.59,3.44 -3.88,8.17 -1.33,4.9 -1.35,1.61 -2.12,3.67 -0.62,1.64 -3.94,13.58 -4.05,13.73 0.06,1.14 -0.6,2.01 -0.9,2.96 -0.47,1.44 0.95,10.51 1.75,13.34 0.93,3.31 0.45,2.35 2.11,5.44 1.18,2.2 -0.08,0.53 0.84,2.65 2.78,6.38 10.37,10.7 15.84,14.68 2.26,1.65 9.56,6.14 12.65,6.44 10.3,1.01 18.56,-2.69 27.29,-6.56 4.03,-1.78 2.81,-1.92 3.74,-3.83 1.04,0.05 1.57,0.69 2.84,0.28l3.46 0.35c0.17,0.21 -0.31,1.13 2.14,0.91 0.86,-1.12 1.97,-0.21 2.35,-0.11 2.16,0.52 3.35,-1.58 3.49,-1.7 0.98,2.8 4.3,1 4.34,1.01 0.61,0.21 0.45,0.22 1.29,0.27 0.49,1.14 1.28,0.66 3.77,0.36 3.16,-0.38 2.17,-0.91 3.34,-1.2 1.22,3.7 4.38,0.38 5.46,0.72 0.7,0.22 0.54,1.13 2.27,0.8 1.5,-0.29 3.19,1.67 4.19,-0.14 0.64,0.04 0.26,0.19 0.72,0.1 3.58,-0.54 2.61,0.02 3.89,0.12 0.97,0.08 1.05,-0.15 1.67,-0.18 0.21,0.43 -0.59,0.43 0.55,0.66 2.26,0.45 -0.23,-0.83 3.65,0.03 0.64,-1.19 1.39,-0.31 3.26,-0.37l-0.59 -0.33c3.53,0.03 3.7,1.54 6.71,-0.85 0.37,0.16 0.66,0.36 1.26,0.36l0.14 -0.36c2.52,1.22 2.76,-2.58 3.32,-4.08 2.01,-0.03 1.81,0.31 3.04,-0.11 0.85,-0.29 2.1,0.11 3.01,0.16 2.15,0.13 5.63,-0.05 6.38,0 1.16,-1.1 12.72,1.03 14.36,-0.9 1.14,-1.35 2.6,-12.87 2.97,-13.72 2.35,-5.47 1.55,-7.65 2.25,-10.34 0.58,-2.22 3.89,-15.48 3.52,-16.96 -0.43,-1.75 -2.98,-1.14 -3.58,-1.1 -4.57,0.24 -7.97,-0.21 -12.32,-0.08 -2.12,0.06 -0.93,0.26 -1.92,0.34 0.02,-0.82 4.27,-19.16 4.12,-19.4l-0.92 3.07c-0.52,-0.71 1.85,-6.65 2.09,-10.24 -0.84,-0.82 -0.69,-1.1 -1.64,-1.32 -0.86,-0.2 -7.23,-0.01 -8.11,0.07 -2.37,0.22 -5.69,-0.6 -10.71,-0.16 -2.98,0.26 -16.51,-0.61 -17.93,0.53 -0.51,0.41 -0.87,2.23 -1.23,2.98 -0.39,-0.48 0.02,-2.66 -1.25,-5.19 -0.96,-1.91 -3.05,-1.47 -4.03,-0.31l-0.71 2.3c-1.09,0.07 -4.39,-0.71 -8.51,-0.34 -3.69,0.33 -15.65,0.08 -18.81,-0.04 -2.14,-0.08 -4.25,0.16 -6.3,0.19 -3.26,0.03 -9.85,-0.29 -12.32,-0.21 -3.79,0.12 -2.51,0.71 -4.77,-1.27 -1.21,-1.07 -1.88,-1.97 -4.06,-2.36 -4.75,-0.83 -7.41,0.21 -11.74,0.49 -2.79,0.18 -7.46,2.28 -10.23,2.54 -4.03,0.37 -12.58,4.79 -12.87,6.18z"/>
   <path class="fil1" d="M30.27 47.94c-0.34,-1 -1.75,-2.51 -2.33,-3.44 -1.41,-2.25 -3.77,-8.07 -4.56,-9.15 -0.78,-1.06 -1.04,-0.65 -1.33,-1.34 1.47,-1.86 2.99,0.37 3.47,1.99 0.51,1.7 1.01,3.43 1.82,4.9 1.17,2.11 0.98,2.17 2.51,4.35 0.5,0.72 0.85,1.22 1.36,1.99 1.1,1.64 0.82,1.65 1.86,1.67 -0.11,-1.5 -1.34,-2.19 -1.55,-3.67 1.28,0.28 1.68,1.75 2.29,2.9 0.59,1.11 1.49,2.05 1.88,3.22 -1.34,1.9 -4.63,1.99 -6.93,1.99 -3.02,0 -7.91,-2.44 -10.07,-4.52 -0.69,-0.66 -0.73,-0.72 -1.29,-1.66 -2.65,-4.43 -1.49,-4.43 -0.57,-7.32 0.43,-1.36 0.36,-1.61 1.57,-2.35 0.8,-0.49 2.12,-1.04 3.19,-0.84 1.32,0.25 1.08,1.37 1.78,2.17 1.1,1.27 1.52,1.28 1.84,2.21 0.52,1.5 0.89,1.38 1.46,2.46 1.22,2.33 0.01,0.34 1.48,2.44 0.54,0.77 1.08,1.84 2.1,1.99zm30.78 29.27c-0.77,0.66 -0.72,0.52 -1.9,0.87 -0.64,0.12 -1.16,0.64 -2.1,0.73 -1.73,0.17 -1.11,-0.28 -2.24,0.69 -0.59,0.51 -3.26,1.51 -4.16,1.87 -0.89,0.35 -3.83,0.89 -4.93,0.96 -2.78,0.15 -4.1,0.24 -6.96,-0.07 0.24,-0.24 -0.11,-0.18 0.95,-0.38 0.36,-0.06 0.65,-0.16 1.02,-0.22l6.79 -0.63c2.4,-0.3 5.6,-1.58 7.18,-2.78 0.06,-1.03 -0.58,-4.34 -1.12,-4.92 -0.68,-0.25 -0.69,0.34 -1.42,-0.11 -0.54,-0.33 -0.22,-0.51 -1.26,-0.64 -0.55,0.65 -0.19,0.92 -0.68,1.36 -0.92,0.83 -5.28,0.38 -5.61,0.25 -1.07,-0.39 -1.47,-1.7 -2.68,-0.85 -0.4,0.28 -0.69,0.6 -1.17,0.93 -1.75,1.21 -4.82,2.66 -7.07,3.3 -1.96,0.55 -4.25,0.45 -6.27,-0.04 -0.69,-0.17 -0.63,-0.2 -0.76,-0.4 0.59,-0.36 3.68,-0.23 6.38,-0.93 3.05,-0.79 5.08,-2.03 7.54,-3.38 3.22,-1.76 2.45,-0.81 3.17,-4.12 0.22,-1.01 0.55,-2.27 0.64,-3.27 -1.49,0.12 -2.84,0.99 -3.42,1.02 -0.77,0.04 -0.53,-0.16 -1.2,0.21 -0.16,1.35 0.15,0.27 0.4,1.23 -0.56,0.85 -3.09,2.38 -4.15,3.04 -1.03,0.64 -3.53,2.33 -4.85,2.43 -1.64,0.12 -5.28,-0.35 -6.54,-0.77 -2.23,-0.81 -8.37,-3.17 -9.8,-4.73 -1.73,-1.89 -2.21,-1 -3.52,-3.77 -0.44,-0.93 -0.09,-1.74 -0.33,-3.01 -0.96,-5.11 0.05,-6.12 -0.36,-8.49 -0.13,-0.75 -0.3,-1.2 0.4,-1.36 0.29,0.43 -0.01,0.59 0.16,1.39 1.65,-0.78 1.79,-5.76 3.06,-5.59 0.41,0.05 1.19,1.23 0.17,1.71 -1.05,0.5 0.41,-0.47 -0.3,0.12 0.83,0.81 5.9,2.36 7.45,3.16 1.29,0.67 8.04,3.51 9.62,3.86 1.12,0.24 1.11,-0.03 2.17,-0.25 1.23,-0.25 3.94,0.15 4.55,-0.76 0.59,-0.88 0.21,-0.78 1.13,-1.53 4.12,-3.34 1.57,-1.64 5.27,-2.84l-0.11 -1.08c-1.12,-2.55 -2.42,-1.35 -3.27,-0.76 -0.78,0.55 -2.72,2.29 -4,2.08 -0.38,-0.32 -0.92,-1.07 -0.98,-1.6l0.71 0.04 -0.28 -0.32 0.11 -0.42c-0.47,0.12 -0.38,0.12 -0.51,-0.6 -0.26,-1.38 -0.08,-1.88 0.28,-3.01 0.42,-1.31 0.28,-2.4 1.11,-3.41 0.3,-0.47 0.8,-1.63 1.13,-1.96 -0.02,-0.68 -0.29,-0.61 -0.67,-1.17 -1.9,-2.8 0.38,-2.35 0.17,-3.66 -1.47,-0.41 -4.88,0.71 -5.68,0.37 0.14,-0.85 2.28,-1.13 2.66,-1.4 -0.7,-0.64 -1.66,-0.25 -2.11,-1.54 -0.43,-1.24 0.37,-2.21 0.11,-3.31 -0.31,-1.29 -1.06,-2.71 0.69,-4.16 0.59,-0.49 0.45,-0.36 0.57,-1.32 0.23,-1.73 1.42,-4.55 1.64,-5.94 0.27,-1.72 -0.82,0.73 0.19,-3.08 0.26,-0.98 0.56,-2.08 0.79,-2.9 -0.6,-0.33 -0.29,0.1 -0.67,-0.42 0.48,-0.94 0.43,0.49 1.11,-1.3 0.23,-0.61 0.45,-1.45 0.55,-2.14 -2.11,0.3 -7.22,3.49 -8.46,4.56 -2.78,2.4 -1.52,1.42 -3.04,3.4 -2.03,2.64 -1.12,2.75 -3.46,3.04 0.22,-0.6 1.5,-1.89 2.03,-2.25 1.65,-1.13 0.69,-1.34 1.61,-2.7 0.8,-1.2 3.27,-3.16 4.53,-4.16 2.41,-1.92 4.14,-2.66 6.76,-3.89 1.03,-0.48 1.65,-1.49 2.9,-1.51 0.81,-0.01 1.52,0.3 1.5,-0.58 -1.65,-0.63 -8.46,1.52 -10.57,2.21 -2.99,0.98 -2.91,-0.58 -10.12,3.18 -0.52,0.27 -6.01,2.97 -4.12,4.21 1.04,0.68 4.29,-3.29 6.66,-3.22 -0.25,1.28 -0.96,1.1 -1.42,1.57 0.25,0.51 0.34,0.41 0.92,0.63 -0.48,0.87 -3.67,2.6 -4.83,2.73 -0.89,0.1 -1.22,-0.43 -2.04,0.18 -0.95,0.7 -1.46,1.75 -2.22,2.83 -0.89,1.27 -1.45,1.65 -2.45,2.58 -0.89,0.82 -1.05,2.01 -1.45,3.46 -0.35,1.29 -0.72,2.69 -1.03,4 -0.62,2.56 -0.81,0.88 -1.94,3.08 -0.46,0.89 -2.99,10.27 -3.36,11.63 -0.37,1.35 -0.62,2.73 -1,4.04 -0.55,1.87 1.17,11.08 1.79,12.98 0.44,1.36 0.82,2.41 1.49,3.55 0.78,1.31 0.8,2.23 1.39,3.65 0.47,1.13 2.22,3.42 3.13,4.29 0.48,0.46 0.8,0.65 1.34,1.18 1.68,1.66 3.81,2.96 5.67,4.41 2.35,1.84 9.31,6.25 12.3,7.86 2.36,1.27 5.16,1.81 8.33,1.41 7.1,-0.91 13.06,-2.72 19.34,-5.84l3.39 -1.65c0.17,-0.73 0.26,-0.92 -0.29,-1.14z"/>
   <path class="fil2" d="M103.27 51.03c0.09,-1.48 2.8,-13.59 3.24,-17.08 -2.99,-0.04 -3,0.03 -3.78,2.79 -1.14,4.03 -4.66,23.28 -5.58,25.06 -1.91,0.2 -3.22,-0.65 -5.32,0 0.39,-2.61 5.34,-23.47 5.18,-24.15 -0.2,-0.85 -3.13,-1.91 -3.67,0.34l-7.3 34.07c1.17,0.58 11.84,0.85 12.77,-1.18 0.21,-0.45 4.19,-17.91 4.46,-19.84zm42.16 21.39c3.85,0.38 2.87,1.14 4.35,-4.74 0.22,-0.83 1.34,-5.33 1.25,-5.75 -4.64,-0.14 -3.64,-0.66 -4.36,3.63 -0.22,1.28 -1.38,6.05 -1.24,6.86zm-4.95 0.05l3.34 -0.09c0.39,-1.39 2.52,-9.44 2.32,-10.45l-3.55 -0.12c-0.3,2.51 -2.25,9.78 -2.1,10.66zm9.03 0.08c0.63,0.28 2.93,0.12 3.59,-0.13 0.48,-0.31 1.24,-5.45 1.34,-5.96 1,-5.23 1.24,-4.59 -1.39,-4.67 -1.69,-0.05 -1.37,0.42 -1.73,1.95 -0.38,1.61 -2.27,8.21 -1.81,8.8zm-6.08 -13.81l3.46 -0.38 5.09 -24.15c-0.12,-0.5 -2.74,-0.29 -3.26,-0.23l-5.29 24.76zm4.92 -0.27l3.34 0.06c0.59,-2.81 5.05,-23.42 5,-24.4l-3.36 -0.04c-0.24,0.5 -5.01,23.62 -4.99,24.38zm4.2 0.11l3.43 0.05c0.54,-0.66 5.49,-23.35 5.24,-24.3l-3.26 -0.4c-0.27,1.01 -0.35,2.1 -0.62,3.09l-2.35 8.98 -2.44 12.59zm-11.51 -10.56l-5.41 0.11 0.61 -3.12c0.19,-0.5 4.81,-0.42 5.47,-0.36 0.1,0.73 -0.46,2.62 -0.67,3.37zm-6.08 -13.9c0.22,2.35 -3.44,14.7 -4.14,19.05 -0.94,5.88 -2.78,13.28 -4.01,19.34 2.64,0.13 3.48,0.84 3.9,-1.81 0.3,-1.99 0.69,-2.2 0.93,-3.13 0.41,-1.59 0.69,-4.3 1.35,-6.91 0.29,-1.14 0.01,-1.02 0.08,-1.73 0.8,-0.24 5.01,-0.61 5.57,-0.29 0.32,0.6 -2.65,12.1 -2.84,14.14l3.56 -0.25c0,-0 8.19,-37.32 8.12,-38.56 -0.93,-0.01 -1.94,0.18 -2.95,0.18 -3,0 -6.7,-0.16 -9.56,-0.05zm-20.38 10.41l-0.49 3.3 -5.44 -0.1c-0.04,-0.64 0.21,-2.58 0.47,-3.12l5.46 -0.08zm6.93 -11.21c-1.31,9.62 -4.04,18.49 -5.98,27.93 -0.1,0.48 -1.69,9.08 -1.94,9.31l-0.69 -12.03c0.43,-0.57 1.94,0.1 2.28,-0.13 0.57,-0.53 4.28,-22.98 5.2,-23.98l-0.12 -0.4 -12.12 -0.06c-1.17,4.96 -8.39,35.2 -8.34,37.41 0.02,0.68 0.32,0.74 0.64,1.14 1.18,-0.15 1.46,-0.16 2.71,-0.16 0.95,-2.96 2.11,-12.06 3.14,-13.87l1.41 -0.12c0.87,1.45 0.91,13.13 1.26,13.67 0.36,0.55 7.3,0.51 7.74,0.45 0.77,-1.44 3.84,-18.82 4.03,-19.1 0.34,0.26 3.11,16.7 3.38,19.12 0.11,1 -0.11,2.13 0.12,3.08 1.58,0.04 2.71,-8.7 2.94,-9.83 0.69,-3.56 1.64,-6.96 2.42,-10.46l4.35 -21.33 -3.48 0.15c-0.46,0.66 -1.53,8.02 -1.87,9.54l-2.11 9.31c-0.7,-0.81 -3.06,-18.08 -3.53,-21.74 -0.17,-1.36 -0.24,-1.15 -0.63,-1.36l-0.8 3.45zm-67.69 2.56c0.67,-0.57 -0.1,-0.76 0.74,-0.98 0.83,-0.21 0.99,0.18 0.77,-0.96 -0.15,-0.8 -0.2,-2.67 -0.53,-3.15 -0.43,0.3 -2.31,4.7 -0.98,5.08zm4.53 17.56c-0.13,-2.05 -2.09,-14.37 -2.47,-15.04 -0.27,0.05 -3.16,1.69 -3.4,1.97 -0.45,0.51 -7.19,30.27 -7.01,31.93 3,0.51 3.29,0.09 3.89,-2.59l3.38 -15.76c0.3,-0.72 -0.03,-0.29 0.45,-0.54 0.36,1.14 2.98,22.5 3.71,23.09 0,-0 8.5,-37.23 8.39,-39.28 -1.14,-0.19 -1.97,-0.07 -3.08,0.22 -0.47,0.12 -0.37,-0.29 -0.72,1.58 -0.44,2.33 -2.59,13.74 -3.14,14.42zm6.4 8.44l3.63 -17.39 5.37 0.11c0.47,1.11 -3.39,15.29 -3.42,17.13l-5.57 0.15zm10.97 -25.83c1.41,0.35 4.69,-4.48 0.31,-0.83 -0.32,0.27 -0.44,0.27 -0.31,0.83zm-8.83 36.39l4.79 -0.09c1.74,-8.4 3.94,-17.17 5.57,-25.53 0.57,-2.94 0.92,-5.83 1.72,-8.6 -1,0.2 -7.25,4.39 -7.25,-0.99 -0,-1.21 0.63,-2.24 0.5,-3.28 -2.37,-0.71 -3.87,1.68 -4.88,2.51 -1,0.82 -4.34,16.35 -4.62,18.05 -0.61,3.77 -2.4,9.97 -2.68,12.43 -0.21,1.85 -1.23,4.26 0.42,3.23 1.1,-0.69 2.44,0.06 4.57,0.23 1.36,0.11 1.33,1.1 1.87,2.03zm11.61 -27.97c1.26,0.36 2.85,-0.18 4.1,-0.2 0.1,2.42 -5.7,26.46 -5.65,27.78 1.59,0.2 0.74,0.24 1.56,0.5 0.5,-2.13 1.59,-1.58 2.33,-1.71 0.51,-1 5.16,-23.42 5.5,-26.16l4.4 -0.17c0.38,-0.56 1.87,-7.09 1.9,-7.58 -0.98,0.03 -1.63,0.03 -2.56,-0.14 -2.59,-0.47 -2.61,1.77 -4.63,-2.46 -0.68,0.07 -1.91,1.17 -2.56,1.6 -3.61,2.35 -2.88,0.92 -3.82,4.85 -0.25,1.07 -0.7,2.57 -0.56,3.71z"/>
   <path class="fil1" d="M142 24.51c-1.16,0.28 -0.56,0.19 -1.68,0.19l-5.04 0.06c-0.29,0.97 -0.48,2.17 -0.69,3.23 -0.17,0.9 -0.79,2.69 -0.49,3.52 3.07,-0.09 6.04,0.19 9.01,0.09 0.27,-0.61 3.36,-15.32 3.32,-15.88 -1.25,-0.54 -5.37,-0.15 -6.9,-0.1 -0.07,-0.74 0.17,-1.7 0.44,-2.27 1.4,-0.39 5.32,0.1 6.88,0.02 0.2,-0.42 1.79,-7.71 1.35,-6.96l-4.66 -0.03c-6.05,0.15 -4.39,-1.1 -5.59,3.95 -0.31,1.28 -0.7,2.64 -0.91,3.85 -0.26,1.5 0.16,1.22 -0.51,4.27 -0.26,1.18 -0.85,2.86 -0.94,4.04 2.17,-0.09 4.59,-0.23 6.74,-0.1 0.05,0.85 -0.27,1.36 -0.32,2.12z"/>
   <path class="fil1" d="M73.24 16.76c-0.04,1.11 -1.29,4.29 -1.56,7.21 -0.34,3.61 -1.34,5.9 -1.49,7.44 3.95,-0.09 3.84,0.31 5.48,-1.74 0.61,-0.76 0.87,-1.37 1.63,-1.88 1.27,-0.86 1.31,-0.57 2.9,-0.73 0.62,-0.28 3.07,-10.72 3.13,-11.65l-6.02 -0.04c-0.26,1.03 -1.51,6.28 -1.39,6.91 1.16,0.14 2.06,-0.22 3.04,-0.13 0.03,0.19 -0.13,1.6 -0.21,1.77 -0.43,0.76 -3.61,0.53 -4.3,0.48 -0.25,-0.8 1.75,-6.27 2.22,-7.99 0.28,-1.01 -0.06,-2.57 0.27,-2.95 0.6,-0.61 6,0.07 6.69,-0.46 0.18,-0.26 1.59,-6.04 1.73,-6.75l-8.51 -0.02c-0.5,0.34 -0.89,-0.14 -1.18,0.51 -0.09,0.2 -0.09,1.32 -0.14,1.68 -0.19,1.24 -1.94,7.83 -2.3,8.32z"/>
   <path class="fil1" d="M86.88 15.36c-0,-0.36 0.14,-1.03 0.25,-1.37 0.2,-0.61 0.34,-0.56 1.12,-0.59 0.99,-0.04 2.42,-0.09 3.38,0.01 -0.24,0.94 -0.3,0.86 -0.35,2.1 -1.03,0.2 -3.4,0.14 -4.4,-0.15zm-5.85 15.52l0.01 0.54c0.71,0.04 2.06,0.47 2.47,-0.39 0.18,-0.54 0.11,-1.57 0.23,-2.22l1.66 -6.34c1.92,-0.21 1.69,0.5 1.86,2.17 0.21,2.02 -0.17,3.48 0.75,3.63 0.8,0.13 2.2,-1.38 2.44,-1.86 0.66,-1.27 -0.03,-2.84 0.38,-3.98 0.7,-0.25 1.09,-0.02 1.83,-0.11 -0.14,-1.29 -0.94,1.1 0.28,-3.76 0.63,-2.5 2.88,-10.52 2.8,-11.91 -1.42,-0.51 -3.13,-0.14 -4.68,-0.15 -1.44,-0.01 -3.67,-0.34 -4.9,-0.21 -0.37,0.72 -2.23,8.15 -2.22,8.97 0.01,0.68 0.29,0.44 0.01,1.59 -0.97,4.03 -1.5,7.04 -2.18,11.07 -0.07,0.43 -0.62,2.75 -0.74,2.97z"/>
   <path class="fil3" d="M107.1 5.77l-0.66 4.62 -0.1 0.24c-1.16,4.01 -1.62,6.69 -2.19,10.76 -0.2,1.41 -0.78,0.87 -0.04,2.49 0.67,1.48 -1.23,3.78 -1.59,4.38 -0.32,0.53 -0.54,2.12 -0.59,2.84l2.42 0.42 1.52 -6.19c0.13,-1.01 0.85,-6.12 1.13,-6.55 0.79,0.57 2.82,12.61 2.9,12.75 0.36,0.29 0.75,0.51 1.32,0.28 0.44,-0.39 1.31,-5.29 1.52,-6.21 0.29,-1.31 0.2,-2.32 0.41,-3.53 0.16,-0.94 0.55,-2.1 0.8,-3.1 1.05,-4.19 1.3,-7.22 2.55,-12.01 0.05,-0.21 0.11,-0.48 0.04,-0.69 -0.54,-0.17 -1.9,-0.21 -2.44,-0.01 -0.33,0.27 -0.18,-0.01 -0.34,0.54 -0.08,0.27 -0.08,0.55 -0.14,0.82 -0.21,0.88 -1.12,3.24 -1.25,4.14 0.19,0.03 0.27,0.04 0.45,0.14 -0.01,0.24 -1.35,6.36 -1.35,6.37 -0.61,-0.14 -0.57,-0.69 -0.73,-1.41 -0.16,-0.71 -0.27,-1.26 -0.4,-1.99l-2.65 -11.52c-0.41,0.53 -0.62,1.67 -0.61,2.42z"/>
   <path class="fil1" d="M39.22 26.64c-0.09,1.44 -0.55,3.05 -0.3,4.61l2.42 -0.26c-0.11,-0.63 -0.41,-0.22 -0.22,-1.28 0.07,-0.36 0.25,-0.99 0.35,-1.34l0.92 -2.67 1.22 -6.79c1.15,0.55 1.1,5.92 2.1,7.26 0.85,-0.13 1.11,-0.5 1.84,-0.83 0.73,-0.33 1.38,-0.39 2.08,-0.56 0.45,-1.47 0.66,-3.07 0.97,-4.66 0.32,-1.61 0.64,-3.13 0.97,-4.74 0.28,-1.38 2.19,-8.48 2.16,-8.99 -0.81,-0.11 -2.03,-0.17 -2.85,-0.05l-2.29 9.01c-0.15,0.55 -0.27,0.97 -0.16,1.67 0.1,0.6 0.19,0.97 -0.22,1.54 -0.68,-0.33 -1.72,-6.23 -1.97,-7.36 -0.27,-1.24 -0.73,-2.36 -0.97,-3.66 -0.29,-1.57 -0.25,-2.44 -0.85,-3.87 -0.65,0.33 -0.63,1.89 -0.73,2.75 -0.12,1.05 -0.35,1.93 -0.57,2.92 -0.44,1.93 -0.57,4.14 -1.03,6.1 -0.46,1.93 -0.8,3.78 -1.35,5.65 -0.24,0.82 -1.53,5.11 -1.53,5.54z"/>
   <path class="fil1" d="M101.48 15.45l-4.33 0.05 0.48 -2.33 4.35 0.16 -0.49 2.12zm2.45 0.49c0.33,-3.4 0.34,-2.55 0.87,-5.11 0.01,-0.05 0.06,-0.3 0.07,-0.35l0.17 -0.48c0.19,-1.02 0.81,-2.77 0.73,-3.7l-9.46 0.19c-0.12,0.71 -0.17,1.48 -0.27,2.17 -0.13,0.75 -0.35,1.5 -0.54,2.25 -0.37,1.48 -0.77,3.02 -1.13,4.48 -0.26,1.03 -0.28,1.39 -0.25,2.54 0.04,1.65 -1.5,6.22 -1.25,6.82 0.49,-0.09 0.46,-0.23 0.73,-0.78l1.05 0.07c1.5,-1.82 0.27,-1.41 3.2,-1.75 0.93,-0.11 1.39,-0.24 2.25,0.15 0.6,0.27 1.13,0.63 1.99,0.48 0.44,-0.61 1.89,-6.1 1.84,-6.98z"/>
   <path class="fil4" d="M14.73 57.52l2.1 4.07 1.13 0.22 0.4 -0.48c0.06,-1.54 0.07,-2.86 0.35,-4.21 0.21,-0.98 -0.14,-0.19 -0.11,-0.95l0.43 0.04c0.24,0.66 -0,2.41 0.06,3.28 0.04,0.61 0.47,2.36 0.4,2.56 -0.42,0.32 -0.15,-0.03 -0.38,0.37 0.53,0.65 2.39,0.86 3.36,0.97 0.33,-0.42 0.15,-0.45 0.61,-0.85 -0.21,-2.33 -0.86,-3.97 0.79,-5.67 0.06,0.13 -0.23,2.12 -0.18,2.92 0.05,0.68 -0.08,1.1 0.1,1.73 0.28,0.97 0.14,0.38 -0.15,1.09 0.99,0.54 2.24,1.18 3.6,0.98 0.82,-0.13 0.54,-0.32 0.55,-1 0.57,0.2 1.87,0.79 2.65,0.76 0.69,-0.03 1.75,-0.93 2.07,-1.34 -0.31,-1.21 -1.24,-2.02 -1.31,-3.46 1.55,0.76 1.55,2.84 2.9,2.94 1.29,0.09 2.03,-1.85 3.25,-2.37l-0.02 -0.61c-0.36,-0.3 -0.42,-0.58 -0.45,-1.15 0.17,-0.12 0.09,-0.02 0.26,-0.04 -0.08,-1.19 -1.6,-0.92 -3.33,-0.94 -1.33,-0.01 -2.52,0.33 -3.01,1.2l-1.28 -0.3c-0.9,-0.02 -2.02,-0.15 -2.75,0.13 -0.19,-0.37 -1.02,-1.61 -1.49,-1.82 -0.97,0.18 -0.33,0.74 -2.1,0.56 -0.53,-0.51 -1.09,-1.61 -1.66,-1.89 -0.81,-0.39 -1.46,0.35 -2.77,0.39l-0.21 0.96c0.02,-1.68 -0.94,-3.02 -2.71,-2.77 -0.45,0.25 -1.28,3.09 -1.09,4.68z"/>
   <path class="fil4" d="M22.89 64.16c-0.9,0.14 -0.86,-0.07 -1.18,1.24 -0.07,0.3 -0.07,0.28 -0.21,0.54 -0.56,-0.31 -0.63,-0.58 -0.82,-1.1 -0.54,-0.81 -0.1,-1.4 -1.42,-1.49 -0.88,-0.06 -1.5,0.4 -1.94,0.87 0.03,0.75 0.81,1.84 1.17,2.46 0.6,1.05 1.15,1.35 2.29,0.74 1.35,-0.73 0.9,2.42 4.67,2.13l0.5 -0.87c0.15,-0.24 -0,-0.07 0.21,-0.27 1.25,1.86 1.62,3.21 4.64,2.05 1.03,-0.4 2.17,-0.06 3.33,-0.59 1.48,-0.67 1.38,-1.03 1.71,-2.08 0.88,0.01 0.84,0.26 1.48,0.41 0.44,-0.26 0.28,-0.29 0.68,-0.48 1.04,-0.5 1.34,0.02 1.27,-1.8 -0.34,-0.62 -0.01,-0.6 0.01,-0.64 2.19,0.32 1.56,0.32 3.35,-0.35 -0.01,-1.44 -1.71,-4.41 -3.13,-5.26 -1.26,-0.76 -1.15,0.06 -1.93,0.39l0.07 -0.7c-1.26,0.41 0.47,2.51 0.83,3.82 -0.85,-0.56 -1.11,-1.6 -2.28,-2.12 -0.18,0.12 -1.39,1.15 -1.54,1.36 -0.05,0.44 0.53,3.37 0.64,4.05 -0.68,-0.58 -1.05,-2.75 -2.01,-3.09 -1.15,-0.41 -3.19,0.73 -3.64,1.29 0.3,1.34 1.01,2.32 1.27,3.84 -0.89,-0.56 -1.89,-2.85 -2.7,-3.78 -0.93,-0.12 -1.81,0.12 -2.55,0.33l-0.25 2.05c-0.63,-0.94 -0.43,-0.9 -0.42,-2.04 -0.63,-0.33 -1.23,-0.92 -2.1,-0.9z"/>
   <path class="fil5" d="M117.51 6.46c-0.53,1.26 -1.3,5.31 -0.96,6.67 0.83,0.26 1.94,-0.07 2.89,0.06 0.07,0.69 -0.78,3.74 -1,4.37 -0.45,1.25 -0.84,5.98 -1.86,9.31 -0.24,0.8 -0.26,1.52 -0.48,2.34l-0.38 1.73c0.03,0.77 -0.02,0.3 0.17,0.49 0.16,0.13 2.32,0.5 2.66,-0.45 0.06,-0.18 0.08,-0.42 0.1,-0.62l0.74 -3.47c0.48,-1.5 0.57,-2.99 0.84,-4.6l1.51 -6.63c0.17,-0.63 0.35,-1.68 0.53,-2.22 1.24,-0.3 2.98,0.31 3.42,-0.53 0.07,-0.14 0.1,-0.23 0.15,-0.41l1.35 -6.05c-2.08,-0 -7.94,-0.43 -9.68,-0z"/>
   <path class="fil6" d="M51.95 24.94c1.53,-0.15 2.62,-0.55 4.22,-0.41 1.56,0.14 2.7,0.55 4.09,0.77 -0.08,-0.56 -0.09,-0.05 0.12,-0.31 0.01,-0.01 0.44,-0.18 0.1,-0.01 -0.51,-0.53 -2.34,-0.7 -3.28,-0.9 -0.54,-0.11 -0.77,-0.11 -1.1,-0.44l0.93 -0.3c0.49,-1.66 0.75,-3.26 1.16,-4.99 0.71,-3 0.63,-2.03 1.06,-5.26 1.05,-0.23 2.36,0.03 3.51,-0.01 0.62,-0.79 1.56,-4.44 1.96,-5.85l0.01 -0.85c-0.75,0.37 -1.03,2.65 -1.52,3.57 -0.19,0.36 -0.04,0.1 -0.18,0.28 0.1,-1.21 0.87,-3.03 0.81,-4.05l-9.28 0.13 -1.57 6.87 3.43 -0.12c-0.01,0.28 -0.03,0.82 -0.09,1.07 -0.23,1.02 -0.35,-0.12 -0.73,2.15 -0.17,1.05 -1.51,7.61 -2.08,8.06 -0.35,0.28 -0.77,0.19 -1.16,0.34l-0.43 0.25z"/>
   <path class="fil7" d="M31.1 49.55c-1,-0.55 -0.89,0.25 -1.49,0.82 -0.58,-0.02 -1.03,-0.19 -1.47,-0.56 -1.75,-1.32 -1.26,-3 -1.57,-3.97 -0.19,-0.58 -0.75,-1.15 -1.09,-1.7 -0.38,-0.61 -0.68,-1.25 -1.05,-1.89 -0.83,-1.39 -3.18,-5.73 -4.83,-4.55 -0.22,0.16 -0.52,0.44 -0.85,0.68 -2.9,2.15 -1.55,6.82 -0.46,8.33 1.01,1.4 1.88,1.77 3.28,2.46 1.41,0.69 2.06,1.52 3.93,1.83 -0.12,0.34 0.18,-0.05 -0.17,0.17l-0.37 0.16c1.16,0.14 3.63,0.99 4.39,0.77l0.79 -0.22c0.58,-0.08 1.21,-0.19 1.6,-0.47 0.13,-1.03 -0.51,-1 -0.65,-1.87z"/>
   <path class="fil0" d="M28.14 49.82c0.53,0.17 0.46,0.23 1.05,0.14 0.53,-0.55 0.35,-0.85 0.84,-1.29 0.78,-0.04 0.81,0.24 1.07,0.88 0.15,0.88 0.78,0.85 0.65,1.87 -0.4,0.28 -1.02,0.39 -1.6,0.47l-0.79 0.22c-0.76,0.22 -3.23,-0.62 -4.39,-0.77l0.37 -0.16c0.35,-0.21 0.04,0.17 0.17,-0.17 -1.87,-0.31 -2.52,-1.13 -3.93,-1.83 -1.4,-0.69 -2.27,-1.06 -3.28,-2.46 -1.09,-1.51 -2.45,-6.18 0.46,-8.33 0.33,-0.25 0.62,-0.52 0.85,-0.68 1.65,-1.18 4.01,3.17 4.83,4.55 0.38,0.63 0.68,1.28 1.05,1.89 0.34,0.54 0.89,1.11 1.09,1.7 0.32,0.97 -0.17,2.65 1.57,3.97zm-6.09 -15.81c0.29,0.69 0.56,0.27 1.33,1.34 0.95,1.3 2.37,5.29 3.58,7.33 0.33,0.56 0.61,1.24 0.98,1.82 0.58,0.93 1.99,2.44 2.33,3.44 -1.02,-0.15 -1.56,-1.22 -2.1,-1.99 -1.47,-2.1 -0.26,-0.11 -1.48,-2.44 -0.57,-1.08 -0.94,-0.97 -1.46,-2.46 -0.32,-0.93 -0.74,-0.94 -1.84,-2.21 -0.69,-0.8 -0.46,-1.92 -1.78,-2.17 -1.07,-0.2 -2.39,0.35 -3.19,0.84 -1.21,0.74 -1.13,1 -1.57,2.35 -0.92,2.89 -2.08,2.89 0.57,7.32 0.56,0.94 0.6,1 1.29,1.66 2.17,2.08 7.06,4.52 10.07,4.52 2.3,0 5.58,-0.09 6.93,-1.99 -0.4,-1.17 -1.3,-2.12 -1.88,-3.22 -0.61,-1.15 -1.02,-2.62 -2.29,-2.9 0.21,1.49 1.44,2.17 1.55,3.67 -1.04,-0.02 -0.76,-0.03 -1.86,-1.67 -0.52,-0.78 -0.86,-1.27 -1.36,-1.99 -1.52,-2.18 -1.34,-2.24 -2.51,-4.35 -0.81,-1.47 -1.32,-3.2 -1.82,-4.9 -0.48,-1.62 -2,-3.85 -3.47,-1.99z"/>
   <path class="fil8" d="M64.75 61.89c0.96,0.09 1.57,-0.21 2.65,-0.17 0.94,0.04 1.99,0.07 2.92,0.02 0.02,-1.85 3.89,-16.02 3.42,-17.13l-5.37 -0.11c-0.6,2.8 -1.09,5.89 -1.74,8.76 -0.57,2.52 -1.73,6.21 -1.89,8.63z"/>
   <path class="fil9" d="M51.95 24.94c-1.55,0.27 -2.97,0.93 -4.21,1.58 -1.46,0.77 -2.5,1.44 -2.64,3.5l3.65 -2.08c1.16,-0.56 2.69,-1.24 4.1,-1.62 2.69,-0.74 7.9,-1.57 8.65,1.41 0.83,0.74 0.74,2.23 -0.02,2.29 -0.07,-0.63 0.15,-0.78 -0.27,-1.23 -0.09,1.84 -1.12,2.93 -1.98,3.89 -1.11,1.25 -1.64,1.79 -3.11,2.77 -1.47,0.98 -5.91,3.79 -8.06,3.95 0.31,-1.23 2.88,-6.13 3.38,-6.67 1.02,-1.1 0.8,-1.35 1.9,-2.16 0.49,-0.36 0.67,-0.71 0.62,-1.42 -2.21,-0.33 -3.97,2.83 -5.09,4.64 -0.89,1.43 -1.83,3.35 -2.42,5.02 -0.29,0.83 -0.34,1.14 -1.18,1.27 -0.19,0.17 -0.03,0.1 -0.4,0.17l-1.94 0.08c0.52,1.42 4.32,0.62 5.61,0.36 3.36,-0.18 8.69,-3.88 10.48,-5.54l1.95 -2.11c1.77,-2.27 2.71,-4.53 0.44,-6.86 -0.34,-0.35 -0.84,-0.53 -1.13,-0.85 -1.39,-0.22 -2.53,-0.63 -4.09,-0.77 -1.6,-0.15 -2.7,0.26 -4.22,0.41z"/>
   <path class="fil3" d="M40.33 6.29l-2.53 9.06c-0.2,1.56 0.6,-0.51 -0.25,3.12 -0.51,2.16 -1.04,4.14 -1.5,6.33 -0.25,1.21 -0.18,2.35 -0.45,3.46 -0.24,0.98 -0.65,2.19 -0.67,3.25 0.52,0.02 2.52,-0.15 2.93,-0.3 0.5,-1.77 0.5,-4.44 0.97,-6.43 0.44,-1.85 1.19,-4.19 1.4,-6.17 0.35,-3.31 2.08,-9.03 2.72,-12.47 -0.7,0.09 -0.49,0.28 -1.13,0.26 -0.45,-0.02 -0.9,-0.11 -1.5,-0.1z"/>
   <path class="fil1" d="M128.09 6.37c-0.12,2.05 -1.19,4.77 -1.52,6.82 1.7,0.08 3.38,-0.04 5.07,-0.07 1.26,-0.03 3.9,0.38 4.75,-0.1 0.14,-0.34 1.54,-6.25 1.56,-6.58 -1.54,-0.19 -8.67,-0.42 -9.86,-0.07z"/>
   <path class="fil1" d="M62.93 15.5l-1.08 4.98c-0.08,0.31 -0.14,0.48 -0.22,0.77 -0.48,1.7 0.48,1.12 4.65,1.09 1.22,-0.01 4,0.12 4.95,-0.17 0.24,-0.6 1.6,-6.38 1.53,-6.67l-9.84 0z"/>
   <path class="fil1" d="M124.89 22.3c1.64,0.05 3.21,-0.12 4.85,-0.01 1.01,0.06 3.96,0.26 4.68,-0.04 0.24,-0.19 0.28,-1.32 0.32,-1.67 0.07,-0.65 1.12,-5.76 0.72,-5.06l-1.99 -0.06c-2.07,-0.01 -5,-0.35 -7,-0.06 -0.39,0.62 -1.47,5.87 -1.58,6.9z"/>
   <path class="fil9" d="M78.3 30.7c0.23,-0.57 0.4,-0.69 0.95,-1 0.53,-1.28 1.09,-1.18 1.31,-1.29 -1.99,-2.03 -4.58,2.71 -5.88,4.2 -2.8,3.22 -2.95,7.11 0.52,6.43 3.04,-0.6 11.19,-6.63 14.03,-8.41 0.87,0.22 0.57,0.66 1.82,0.41 0.13,-0.18 0.16,-0.34 0.31,-0.51 0.24,-0.28 0.26,-0.17 0.53,-0.44 -0.21,-0.69 -0.21,-0.18 -0.49,-0.84l2.07 -1.49c1.22,-0.87 3.17,-1.91 4.53,-2.75 0.67,-0.41 1.76,-0.91 2.04,-1.68 -2.5,-0.92 -4.63,1.45 -7.12,2.89 -2.78,1.61 -6.75,4.79 -9.32,6.36 -2.97,1.81 -7.43,5.63 -10.39,5.56 0.19,-1.18 0.66,-2.46 1.5,-3.24 0.25,-0.23 2.49,-3.36 3.58,-4.21z"/>
   <path class="fil1" d="M73.4 13.2l0.22 -0.14c-0.56,-0.34 -0.8,-0.43 -0.34,-1.04 0.17,-1.5 1.26,-4.43 1.2,-5.68l-9.13 0.1c-0.3,0.62 -1.72,6.5 -1.59,6.85 0.57,0.21 8.37,-0.05 9.63,-0.09z"/>
   <path class="fil10" d="M98.26 34.76c0.8,0.01 0.72,-0.91 0.84,-1.72l0.7 0.04c-0.03,1.1 -0.81,2.28 -2.11,1.99 -0.06,-0.52 0.36,-1.2 0.79,-1.5 0.44,0.7 -0.24,0.3 -0.21,1.18zm-0.24 -4.5c0.22,-1.03 0.53,-1.6 1.09,-2.2 0.61,-0.65 1.09,-1.42 1.47,-1.68 0.26,0.58 -1.08,1.72 -1.41,2.36 0.77,-0.26 0.96,-1.1 1.81,-1.43 0.02,0.83 -2.29,2.72 -2.95,2.95zm3.39 -3.72c-0.47,-0.55 -0.07,-0.93 0.28,-1.23 0.38,0.15 0.48,0.29 0.75,0.73 -0.17,0.51 -0.19,0.53 -0.66,0.71l-0.01 -0.95 -0.36 0.74zm-4.81 9.23c1,0.01 2.77,-0.4 3.65,-0.07l-0.14 0.69c0.64,-0.05 0.79,-0.07 1,-0.58 0.37,-0.89 -0.16,-0.91 -0.32,-1.24l0.25 -0.6c-0.11,-0.48 -0.27,-0.78 -0.43,-1.35 -0.24,-0.33 -1,-0.64 -1.58,-0.58 -0.5,0.05 -1.04,0.58 -1.4,0.86 -0.32,0.25 -2.38,1.73 -2.71,1.71 -0.32,-1.2 0.3,-1.52 1.8,-2.76 0.73,-0.6 0.89,-0.44 2.65,-2.11 0.68,-0.64 3.17,-2.92 3.58,-3.56 1.3,-1.98 -0.07,-3.41 -2.59,-1.33 -0.46,0.38 -0.71,0.77 -1.12,1.12 -0.78,0.67 -0.64,0.18 -1.26,1.12l-2.89 3.96c-0.39,0.51 -0.57,0.88 -1.39,1.09 -0.03,-0.03 -0.06,-0.12 -0.08,-0.1 -0,0.01 -0.34,-0.4 -0.37,-0.73 -0.06,-0.61 0.87,-1.15 0.45,-2.59 -0.38,0.31 -0.9,2.87 -0.64,3.31l-2.28 1.56c-0.46,0.32 -2.1,1.76 -2.73,0.68 0.61,-0.21 0.46,-0.05 1,-0.04 -0.24,-1.46 0.86,-1.24 -0.11,-2.17 -0.8,0.17 -0.53,0.45 -0.93,0.84 -0.45,0.45 -0.24,-0.71 -0.82,0.6 -0.67,1.52 -0.36,1.67 0.46,2.58 0.95,-0 1.46,-0.69 2.4,-0.85 0.19,0.21 0.5,1.26 2.14,0.9 0.12,-0.67 -0.14,-0.73 -0.57,-1.03 0.3,-0.73 0.48,-1.32 1.26,-1.55 -0.17,0.79 -0.35,1.03 -0.39,1.91 0.84,0.15 1.93,0.74 2.65,0.13 0.77,-0.65 0.22,-1.05 1.43,0.15z"/>
   <path class="fil11" d="M125.5 31.28c1.8,-0.18 4.89,0.29 6.44,-0.06 0.91,-1.21 1.08,-5.16 1.74,-6.13 0.11,-1.09 -0.39,-0.64 -1.46,-0.58 -1.71,0.09 -7.07,-0.41 -7.62,0.07 -0.06,0.1 -0.03,-0.02 -0.15,0.3 -0.31,0.87 -0.59,2.6 -0.22,3.4 0.26,0.56 0.45,0.82 0.64,1.47 0.13,0.46 0.17,1.39 0.64,1.53z"/>
   <path class="fil1" d="M63.39 31.17l5.88 0.23c0.3,-0.73 1.38,-6.3 1.28,-6.85 -1.52,-0.16 -3.13,0.03 -4.7,-0.02l-4.66 -0.36c1.71,2.65 1.96,1.28 2.29,4.79 0.09,0.92 -0.18,1.52 -0.11,2.21z"/>
   <path class="fil2" d="M17.96 61.81l-1.13 -0.22c-0.41,0.55 -1.82,-3 -2.62,-3.37 -0.24,0.43 -0.07,0.46 -0.24,0.88 -0.07,0.18 -0.32,0.49 -0.42,0.65 0.2,0.45 0.69,0.66 0.38,1.39 -0.67,-0.18 -0.25,-0.14 -0.64,-0.61 -0.34,-0.41 -0.3,-0.18 -0.74,-0.49l0.23 -1.02c-0.35,0.33 -0.89,0.46 -0.82,1.42 0.04,0.66 0.29,1.29 0.27,2.12 -0.48,0.39 -0.27,-0.03 -0.5,0.42 0.95,2.81 1.17,1.95 1.89,3.12 0.34,0.56 0.18,0.71 0.74,0.93 0.56,-0.26 0.88,-1.76 1.09,-2.39 0.4,-1.19 0.84,-1.34 1.06,-2.59l1.25 0.12 0.2 -0.37zm-3.23 -4.29c-0.2,-1.59 0.64,-4.43 1.09,-4.68 1.77,-0.25 2.73,1.09 2.71,2.77l0.21 -0.96c1.31,-0.04 1.96,-0.78 2.77,-0.39 0.57,0.28 1.13,1.37 1.66,1.89 1.77,0.18 1.13,-0.38 2.1,-0.56 0.47,0.22 1.31,1.45 1.49,1.82 0.73,-0.28 1.85,-0.15 2.75,-0.13 -0.43,-0.29 -0.98,-0.26 -1.59,-0.2 0.54,-0.3 1.1,-0.08 1.79,-0.26 -0.02,-0.31 0.28,-0.24 -0.87,-0.91 -1.49,-0.88 -1.82,-0.63 -2.88,-1.04 -0.54,-0.21 -0.71,-0.45 -1.28,-0.67 -0.89,-0.34 -2.02,-0.55 -2.93,-0.87 -1.11,-0.39 -1.68,-0.97 -2.58,-1.32 -1.42,-0.56 -2.02,0.18 -3.06,-0.73 -0.68,-0.6 -2.42,-0.79 -2.81,0.18 -0.3,0.77 0.83,2.01 0.96,2.77 0.22,1.21 -0.63,2.35 0.46,3.3zm27.35 -3.5c0.73,-0.08 0.61,-0.16 1.02,-0.78 0.43,-0.64 0.53,-1.38 0.67,-2.13 -1.44,-0.36 -1.34,0.54 -1.66,1.26 -0.03,0.01 -0.08,-0.03 -0.09,-0 -0.22,0.55 0,-0.04 -0.29,0.02l-0.32 0.1c0.18,0.94 0.4,0.85 0.66,1.54zm-13.01 17.46c-0.79,-0.18 -1.27,-0.19 -2.03,-0.47 -0.74,-0.27 -1.06,-0.37 -1.88,-0.52 -4.18,-0.77 -4.35,-2.06 -7.51,-2.42 0.12,-0.45 0.24,-0.54 0.07,-1.06 -0.28,-0.89 -0.9,-1.78 -1.84,-1.78 -0.15,0.37 -0.2,1.38 -0.36,1.91 3.5,2.91 2.93,1.28 4.72,2.13 0.72,0.34 0.18,0.26 1.59,0.68 -0.61,0.44 -1,-0.21 -1.64,0.17 0.89,0.77 2.18,0.62 3.41,0.85 1.2,0.23 2,0.56 3.35,0.69 2.85,0.27 2.11,0.59 3.28,0.79 0.95,0.17 2.76,-0.4 2.66,-1.14 -0.69,-0.25 -0.96,0.37 -1.81,0.55 -1.34,0.29 -1.05,-0.17 -2.01,-0.39z"/>
   <path class="fil4" d="M37.94 43.66c0.09,0.87 0.63,2.11 0.36,3.06 -0.15,0.52 -0.5,0.72 -0.91,0.95 -0.71,0.39 -0.45,0.33 -0.93,0.76l-0.11 0.42 0.28 0.32c1.54,0.27 1.78,0.01 2.77,-0.75 0.57,-0.44 1.6,-1.28 1.88,-1.9 0.65,-1.47 -1.93,-4.18 -2.01,-5.23 -0.58,0.08 -0.26,-0.17 -0.72,0.42 -0.09,0.12 -0.23,0.38 -0.3,0.53 -0.26,0.52 -0.37,0.74 -0.31,1.43z"/>
   <path class="fil8" d="M109.13 44.61c-0.26,0.54 -0.51,2.48 -0.47,3.12l5.44 0.1 0.49 -3.3 -5.46 0.08z"/>
   <path class="fil12" d="M63.92 35.29c-0.82,-0.05 -1.1,-0.13 -0.61,-0.88 0.23,-0.35 0.42,-0.76 0.87,-0.93 0.71,0.47 0.08,1.06 -0.26,1.82zm4.52 -0.75l-0.06 -0.39c-0.99,0.05 -0.87,0.41 -1.4,0.99 -0.49,-0.03 -0.49,-0.15 -1.07,-0.37 -0.53,-0.2 -0.61,-0.13 -0.74,-0.65l1.09 0.29c0.33,-0.62 0.6,-1.04 0.28,-1.72 -1.66,-0.07 -1.89,-1.36 -3.62,0.19 -0.64,0.58 -2.39,1.72 -1.34,2.88 0.53,0.58 1.3,1.06 2.11,0.39 0.11,-0.09 -0.32,-0.22 0.48,-0.25 0.48,-0.02 0.56,0.23 1.02,0.32 1.39,0.27 2.58,-1.15 3.25,-1.69z"/>
   <path class="fil13" d="M94.51 77.19c-0.06,0.52 -0.15,0.72 -0.7,0.71l0.13 0.47 1.58 -1.13 1.13 -1.5c0.18,0.21 0.11,0.33 0.42,0.54l0.62 -0.54c0.87,1.57 -0.59,2.41 1.55,2.12 -0.06,-1.5 0.19,-4.37 -0.2,-5.61 -0.9,-0.16 -1.35,0.22 -1.8,0.55 -0.09,0.64 0.09,0.55 -0.03,1 -0.03,0.13 -0.08,0.16 -0.16,0.53 -0.1,0.41 0.08,0.13 -0.11,0.56l-0.75 -0.12c0.2,-0.65 0.44,-0.57 0.51,-1.05 -0.96,0.11 -1.02,1.43 -1.57,2.02 -0.42,0.45 -0.39,0.13 -0.57,0.69l0.77 0.22c-0.15,0.53 -0.33,0.57 -0.82,0.55z"/>
   <path class="fil14" d="M78.79 74.17c0.51,-0.7 0.19,-1.33 1.55,-0.9 0.17,1.03 -0.24,1.48 -1.06,1.74 -0.2,-0.48 -0.22,-0.48 -0.49,-0.84zm1.27 1.72l0.44 0.1c0.42,-0.73 0.39,-1.23 0.53,-2.23 0.23,-1.59 0.02,-0.15 -0.25,-1.84 -0.05,-0.31 0.07,-0.07 -0.08,-0.32 -0.75,-0.01 -0.56,0.13 -0.97,0.76 -0.38,0.58 -0.46,0.43 -0.86,0.82 -0.39,0.39 -0.47,1.29 -1.4,2.14l-0.1 -0.23c-0.2,-0.8 0.12,-0.22 -0.04,-0.6 -0.36,0.18 -0.31,0.48 -0.45,1.04 -0.22,0.83 -0.46,1.7 -2.12,0.92 -0.7,-0.33 -0.15,-1.17 0.17,-1.33 0.58,-0.3 1.03,0.21 1,-0.78 -0.78,0.61 -0.67,0.12 -1.48,0.32 -0.6,0.15 -1.93,2.29 1.9,2.32 0.31,0.47 -0.01,0.4 0.56,0.53 0.54,-0.9 0.29,-1.16 1.23,-1.7 0.64,-0.37 1.06,-0.73 1.74,-0.14 0.23,0.2 0.06,-0.02 0.17,0.21z"/>
   <path class="fil7" d="M37.59 57.24c0.37,0.19 0.21,0.51 0.42,0.98 1.14,-0.07 1.64,-0.89 2.22,-1.32 0.19,-1.04 0.88,-2.53 0.84,-3.48l-0.37 -0.38 -3.34 2.86c-0.57,0.55 -0.1,0.84 0.24,1.35z"/>
   <path class="fil15" d="M36.45 48.43c0.49,-0.43 0.22,-0.37 0.93,-0.76 0.41,-0.22 0.77,-0.42 0.91,-0.95 0.27,-0.95 -0.27,-2.19 -0.36,-3.06 -0.28,-0.16 -0.3,-0.13 -0.53,-0.22l-0.48 -0.21 0.41 -1.83c-0.83,1.01 -0.69,2.1 -1.11,3.41 -0.37,1.13 -0.54,1.63 -0.28,3.01 0.13,0.71 0.04,0.72 0.51,0.6z"/>
   <path class="fil16" d="M46.55 2.83c0.14,0.59 0.35,1.26 0.51,1.86 0.3,0.09 0.7,0.12 1.04,0.21 0.42,0.12 0.46,0.24 0.83,0.36 0.38,-0.39 0.2,-0.66 1.39,-1.05 0.52,-0.17 1.93,-0.46 0.67,-1.06 -0.74,-0.35 -2.76,-0.59 -3.22,-0.47 -0.58,0.15 -0.14,0.17 -1.22,0.16z"/>
   <path class="fil13" d="M103.77 77.39c1.18,0.81 0.52,0.66 1.17,0.83l0.13 -0.9 0.8 0.05c0.05,-0.37 0.02,-0.75 0.3,-0.94 0.29,-0.2 0.17,-0.01 0.68,-0.07l0.3 -0.88c-0.62,-0.12 -1.24,-0.13 -1.83,-0.07 -1.3,0.14 -0.36,0.4 -1.27,0.62 -0.08,-0.84 0.34,-2.07 0.72,-2.69 0.21,0.23 0.09,0.52 0.42,0.69l0.15 -1.04 -0.98 -0.27c-0.89,1.18 -0.74,3.2 -0.59,4.68z"/>
   <path class="fil17" d="M48.53 40.68c-1.29,0.26 -5.09,1.06 -5.61,-0.36l1.94 -0.08c0.36,-0.07 0.2,0.01 0.4,-0.17 -1.25,-0.09 -1.97,0.04 -3.19,-0.21 -0.86,-0.18 -1.95,-0.73 -2.77,-0.64 -0.07,0.5 0.05,0.47 0.03,0.67 -0.05,0.39 -0.12,0.17 -0.21,0.57 3.47,0.77 4.92,1.39 8.5,0.74 0.55,-0.1 0.48,-0.12 0.91,-0.52z"/>
   <path class="fil18" d="M119.61 75.86c0.23,1.67 1.36,1.67 0.14,2.09 -0.61,-0.44 -0.54,-1.64 -1.53,-1.77 -0.09,0.46 -0.27,1.51 -0.15,1.88 0.78,-0.06 0.05,-0.21 0.67,-0.49 0.18,0.3 0.31,0.74 0.49,1.02 0.87,-0.07 1.66,-0.38 2.36,-0.62 0.04,-0.95 -0.18,-0.91 -0.39,-1.56 0.21,-0.06 0.48,-0.09 0.59,-0.13 0.96,-0.32 0.34,0.03 0.62,-0.43 -0,-0 -0.1,-0.88 -1.3,-0.46 -0.3,0.1 -0.34,0.21 -0.66,0.3 -0.3,0.09 -0.49,0.05 -0.83,0.15z"/>
   <path class="fil6" d="M80.49 75.99l-0.44 -0.1c-0.19,0.7 -0.32,1.12 0.46,1.41 0.53,0.2 1.57,0.3 1.97,0.06l-0.22 -0.09c0.76,-0.71 0.81,-2.02 1.18,-2.35 -0.36,-0.23 -1.41,-0.36 -1.82,-0.24 -0.2,0.26 -0.43,0.71 -0.54,1.16 -0.18,0.75 0.11,0.93 -0.63,0.95l0.04 -0.8z"/>
   <path class="fil19" d="M59.15 78.07c1.18,-0.35 1.13,-0.21 1.9,-0.87 -0.33,-0.91 -0.13,-0.23 -0.63,-0.79 0.33,-0.42 0.48,-0.46 0.67,-1.13 0.15,-0.53 0.25,-1 0.34,-1.58 -0.21,0.08 -0.25,0.07 -0.51,0.17l-0.09 -0.29c-0.03,0.02 -0.07,0.02 -0.08,0.07 -0.05,0.2 -0.92,0.46 -1.33,1.92 -0.29,1.01 -0.06,0.56 0.18,1.21 0.18,0.5 -0.21,0.74 -0.46,1.28z"/>
   <path class="fil18" d="M117.51 78.34c0.26,-0.79 0.07,-2 0.12,-2.88 -0.6,0.07 -0.69,0.32 -1.2,0.58 -0.5,0.25 -0.87,0.33 -0.95,0.94 -0.14,1.14 1,1.88 2.03,1.37z"/>
   <path class="fil20" d="M48.07 30.05c-0.36,-0.15 -0.36,-0.69 -0.88,-0.14 -0.84,0.9 0.16,3.93 0.2,4.01 0.59,-0.38 1.22,-3.52 1.29,-4.44 -0.54,0.18 -0.37,0.19 -0.61,0.58z"/>
   <path class="fil21" d="M39.22 26.64c-0.21,0.22 -0.24,0.57 -0.3,0.97 -0.06,0.42 -0.12,0.79 -0.15,1.22 -0.04,0.72 -0.08,1.9 -0.01,2.58l2.76 0.26c0.4,-1.87 0.88,-3.97 0.87,-5.96 -0.35,1.01 -1.08,3 -1.27,4.01 -0.19,1.05 0.1,0.64 0.22,1.28l-2.42 0.26c-0.26,-1.56 0.21,-3.17 0.3,-4.61z"/>
   <path class="fil10" d="M84.49 77.11c0.22,0.19 0.36,0.18 0.77,0.21 0.02,0.59 -0.18,0.33 0.06,0.76 0.38,-0.11 0.18,0.32 0.64,-1.02 0.11,-0.32 0.31,-0.97 0.44,-1.24 0.21,-0.43 1.57,-1.09 1.16,-1.9 -0.71,0.12 -0.17,0.24 -0.7,0.9 -0.17,-0.28 -0.05,-0.6 -0.07,-1.09 -0.56,0.21 -0.48,0.27 -0.74,0.76 -0.59,1.08 -0.54,1.56 -0.79,2.01 -0.29,0.52 -0.25,0.26 -0.76,0.62z"/>
   <path class="fil22" d="M64 74.96l0.33 -0.44 0.94 0.26c-0.03,0.48 -0.27,1 0.02,1.49 0.12,0.2 1.02,1.08 1.7,0.02 0.12,-0.19 0.18,-0.33 0.32,-0.58 -0.27,-0.81 -0.3,0.01 -0.37,-0.88 0.52,0.04 1.08,0.34 1.55,0.09l-4.61 -0.56 0.24 0.24 -0.12 0.37z"/>
   <path class="fil23" d="M60.84 73.6l0.09 0.29c0.25,-0.11 0.29,-0.09 0.51,-0.17 0.75,-2.46 1.46,-1.6 3.85,-1.66 -0.66,-0.55 -2.06,-0.7 -2.97,-0.46 -1.38,0.37 -2.68,-0.68 -2.89,0.48l1.77 0.27 -0.36 1.25z"/>
   <path class="fil24" d="M99.94 77.74c1.07,-0.33 0.75,-0.8 1.11,-1.67 1.31,-0.17 0.55,0.77 0.93,1.55 1.28,-0.3 -0.44,-1.24 0.7,-1.32 0.21,0.59 -0.15,0.68 0.28,1.09 0.18,-0.26 0.44,-1.26 0.21,-1.59 -0.21,-0.31 -3.68,-0.98 -3.23,1.94z"/>
   <path class="fil25" d="M101.05 33.97c0.69,0.46 0.32,0.66 0.43,1.29 0.08,0.45 -0.01,0.23 0.21,0.5 0.6,-0.32 0.22,-0.18 0.53,-0.68 0.4,-0.64 1.24,-0.27 1.64,-1.85 -1.45,0.01 -0.8,0.98 -1.85,1.03 -0.15,-0.95 0.1,-1.01 -0.43,-1.65l-0.96 0c0.16,0.57 0.32,0.87 0.43,1.35z"/>
   <path class="fil13" d="M107.7 76.41c0.42,0.22 0.53,0.12 0.89,0.27 0.55,0.23 0.06,0.24 0.66,0.38 0.14,-0.29 0.2,-0.68 0.33,-0.88 0.52,-0.75 0.24,0.09 0.88,-0.47l-0.57 -0.42c0.34,-0.34 1.02,-0.32 0.18,-0.5 -0.52,-0.11 -0.57,0.2 -0.89,0.41 -0.89,0.59 -1.45,-0.29 -1.47,1.2z"/>
   <path class="fil26" d="M70.09 74.87c-0.06,0.52 -0.01,0.91 -0.02,1.41 -0.02,0.79 -0.17,0.51 -0.28,1.1 0.79,-0.07 0.64,-0.72 0.66,-1.96l1.95 -0.04c-0.06,-0.45 -0.1,-0.31 -0.35,-0.65 0.2,-0.34 0.14,-0.15 0.3,-0.59 -0.13,0.01 -2.11,0.66 -2.25,0.73z"/>
   <path class="fil27" d="M87.59 75.2c0.49,0.6 0.79,-0.07 1.22,1.09 0.2,0.54 -0.1,0.21 0.29,0.52 0.42,-0.39 0.24,-0.84 0.61,-1.45 0.25,-0.06 0.52,-0.05 0.64,-0.08 0.73,-0.18 0.32,0.01 0.47,-0.46 -0.62,-0.22 -1.03,-0.14 -1.62,0.16 -1.31,0.67 -0.59,0.16 -1.61,0.22z"/>
   <path class="fil28" d="M78.79 74.17c0.27,0.37 0.28,0.36 0.49,0.84 0.82,-0.25 1.23,-0.71 1.06,-1.74 -1.36,-0.43 -1.04,0.19 -1.55,0.9z"/>
   <path class="fil29" d="M98.26 34.76c-0.03,-0.88 0.66,-0.48 0.21,-1.18 -0.43,0.3 -0.85,0.98 -0.79,1.5 1.3,0.29 2.08,-0.88 2.11,-1.99l-0.7 -0.04c-0.11,0.81 -0.04,1.72 -0.84,1.72z"/>
   <path class="fil14" d="M74.46 74.27c0.65,-0.21 0.31,0.09 0.57,-0.43 0.26,-0.52 -0.1,-0.11 0.35,-0.64 0.42,-0.49 0.47,-0.63 0.32,-1.43 -1.08,0.16 -1.14,1.37 -1.25,2.5z"/>
   <path class="fil26" d="M73.42 76.1c0.16,-0.37 0.03,-0.5 0.16,-0.91 0.28,-0.91 0.29,0.35 0.62,-1.81 0.09,-0.6 0.13,-0.06 0.06,-0.93 -0.67,0.48 -0.26,1.17 -0.77,1.94 -0.33,0.49 -1.05,1.36 -0.07,1.71z"/>
   <path class="fil29" d="M63.92 35.29c0.34,-0.76 0.97,-1.35 0.26,-1.82 -0.45,0.18 -0.65,0.58 -0.87,0.93 -0.49,0.75 -0.21,0.84 0.61,0.88z"/>
   <path class="fil30" d="M82.49 77.36c1.1,-0.64 1.26,-3.48 2.2,-1.44 0.01,0.02 0.03,0.07 0.05,0.1l0.19 -0.94 -1.48 -0.15c-0.37,0.32 -0.42,1.64 -1.18,2.35l0.22 0.09z"/>
   <path class="fil24" d="M113.87 78.06c0.71,-0.27 1.02,-1.97 0.7,-2.49 -0.29,0.15 -0.34,-0 -0.62,1.05 -0.13,0.47 -0.28,1 -0.08,1.44z"/>
   <path class="fil14" d="M64 74.96l0.12 -0.37 -0.24 -0.24c-0.59,0.48 -0.97,1.16 -1.01,2.35 0.6,-0.19 0.31,-0.13 0.69,-0.77 0.25,-0.41 0.34,-0.47 0.44,-0.97z"/>
   <path class="fil31" d="M61.19 28.79c0.42,0.45 0.2,0.6 0.27,1.23 0.77,-0.07 0.86,-1.56 0.02,-2.29l-0.29 1.07z"/>
   <path class="fil24" d="M111.62 74.83c0.69,-0.07 0.13,-0.07 0.71,-0.62 0.58,0.09 0.53,0.29 1.16,0.45l-0.28 -0.91 -1.28 0 -0.3 1.09z"/>
   <path class="fil32" d="M93.81 77.9c0.55,0.01 0.63,-0.2 0.7,-0.71l-0.46 -0.06c-0.23,0.44 -0.18,0.23 -0.24,0.77z"/>
   <path class="fil33" d="M87.38 77.54c0.44,-0.18 0.63,-0.5 0.69,-0.95 -0.54,-0.01 -0.66,0.42 -0.69,0.95z"/>
  </g>
 </g>
</svg>
