<?xml version="1.0" encoding="UTF-8"?>
<!DOCTYPE svg PUBLIC "-//W3C//DTD SVG 1.1//EN" "http://www.w3.org/Graphics/SVG/1.1/DTD/svg11.dtd">
<!-- Creator: CorelDRAW -->
<svg xmlns="http://www.w3.org/2000/svg" xml:space="preserve" width="25.4028mm" height="19.0504mm" version="1.1" style="shape-rendering:geometricPrecision; text-rendering:geometricPrecision; image-rendering:optimizeQuality; fill-rule:evenodd; clip-rule:evenodd"
viewBox="0 0 136.33 102.24"
 xmlns:xlink="http://www.w3.org/1999/xlink"
 xmlns:xodm="http://www.corel.com/coreldraw/odm/2003">
 <defs>
  <style type="text/css">
   <![CDATA[
    .fil0 {fill:black}
    .fil1 {fill:#FF7E89}
    .fil2 {fill:white}
   ]]>
  </style>
 </defs>
 <g id="Camada_x0020_1">
  <metadata id="CorelCorpID_0Corel-Layer"/>
  <path class="fil0" d="M13.85 29.95l0 6.71c0,0.95 0.12,1.52 0.12,2.41l-0.12 7.34c0,0.39 0.03,0.89 0.03,1.28 -0.03,0.62 -0.15,0.54 -0.86,0.51 -1.72,-0.03 -3.57,0.3 -5.44,0.3 -0.51,0.65 -1.07,2.14 -1.28,2.97 -0.18,0.71 -0.33,0.95 -0.59,1.57l-3.24 9.03c-0.15,0.45 -0.77,1.69 -0.56,2.05 0.39,0.65 0.98,0 0.98,0.71 0,0.62 -0.59,2.32 -0.74,3.12 -0.42,2.2 -0.33,4.34 1.99,5.56 1.57,0.83 4.22,0.92 5.41,0.45 2.02,-0.8 1.4,-0.24 1.1,1.37 -0.06,0.33 -0.06,0.45 -0.15,0.8 -0.06,0.27 -0.18,0.54 -0.27,0.83 -0.3,1.1 -0.36,2.23 -0.68,3.3l-0.39 1.55c-0.59,2.76 -0.86,2.08 2.79,2.11 1.28,0 5.82,-0.27 6.77,-0.62 1.72,-0.65 1.49,0.21 2.91,0.21 1.52,0 1.99,0 3.48,-0.24 0.42,-0.06 1.13,-0.09 1.72,-0.06l3.62 -0.12c0.74,-0.09 0.62,-0.33 1.34,0 0.54,0.24 0.59,0.48 1.04,0.8 0.92,0.65 2.05,1.57 2.82,2.38l2.23 1.75c0.06,0.06 0.18,0.18 0.24,0.21l0.51 0.51c0.74,0.71 0.98,0.51 1.49,1.04 0.62,0.65 1.72,1.34 2.44,1.96 0.33,0.3 0.56,0.51 0.92,0.77l1.72 1.34c0.92,0.86 1.99,1.6 3,2.44 1.22,1.01 0.83,0.95 3.03,0.95 2.38,0 4.93,-0.15 7.25,-0.21 0.62,0 0.92,-0.12 1.69,-0.12l6.89 -0.09c0.83,0 -0.06,2.17 0.68,2.64 0.15,0.09 2.61,0.8 2.82,0.8 0.15,0 0.98,-0.27 1.25,-0.3 1.4,-0.18 1.04,0 1.46,-0.95 0.12,-0.3 0.09,-0.18 0.36,-0.42 0.48,-0.42 0.3,-0.45 0.45,-1.07 1.07,0.03 1.16,1.43 1.66,2.02l0.51 0.8c0.59,0 0.77,-0.3 1.34,-0.42 0.39,0.24 0.62,0.59 1.01,0.8 1.37,0.65 3.12,0.42 4.28,-0.39 0.36,-0.27 0.45,-0.45 0.74,-0.74 0.36,-0.36 0.42,-0.48 0.71,-0.83 0.62,-0.77 1.22,-2.29 2.44,-1.84 0.36,0.12 0.09,0.12 0.59,0.24 0.92,0.21 2.29,0.12 3.12,-0.18l1.1 -0.39c0.39,-0.18 0.68,-0.36 1.01,-0.48 0.74,-0.24 1.16,-0.48 1.69,-0.95l5.79 -4.96c0.3,-0.3 0.45,-0.42 0.77,-0.68l2.02 -1.72c0.21,-0.18 0.18,-0.18 0.42,-0.39l1.22 -1.04c0.03,-0.03 0.03,-0.03 0.06,-0.06 1.9,-1.57 3.68,-3.24 5.62,-4.78 1.66,-1.34 2.08,-2.35 3.83,-2.76 1.69,-0.42 2.26,-1.66 3.15,-1.66 0.18,0 0.71,0.36 1.25,0.39 0.62,0.06 0.62,-0.15 1.22,0.18 1.46,0.8 1.78,1.52 3.83,0.89 0.95,-0.27 1.66,-1.07 2.76,-1.07 3.06,0 3.36,0 5.62,-1.52 1.07,-0.74 2.17,-1.4 2.82,-2.47 0.45,-0.71 0.62,-1.46 0.3,-2.2 -0.54,-1.16 -1.22,-1.01 -1.49,-1.84 -0.06,-0.21 -0.09,-0.27 -0.15,-0.51 -0.15,-0.48 -0.09,-1.04 -0.56,-1.31l-0.51 -0.21c-0.48,-0.21 -0.51,-0.21 -1.1,-0.33 -0.59,-0.09 -0.65,-0.09 -1.07,-0.33 0.15,-0.45 0.59,-0.65 0.95,-0.98 0.36,-0.33 0.62,-0.62 0.89,-1.01 0.95,-1.37 1.66,-3.15 0.42,-4.58 -0.54,-0.59 -0.95,-1.1 -1.84,-1.34 -0.33,-0.09 -0.45,-0.12 -0.8,-0.27 -0.74,-0.3 -1.6,-0.59 -2.44,-0.3 -1.22,0.39 -1.75,0.68 -1.75,-0.27 0,-0.62 2.05,0.09 3.3,-0.39 0.39,-0.15 0.21,-0.06 0.65,-0.18 0.42,-0.09 0.83,-0.3 1.22,-0.51 1.72,-0.89 1.6,-1.25 2.76,-2.2 0.33,-0.24 0.24,-0.09 0.42,-0.39l0.3 -0.56c0.74,-1.04 1.22,-2.7 0.42,-3.86 -0.27,-0.39 -0.62,-0.92 -1.01,-1.13 -3.77,-2.17 -5.41,-0.62 -6.15,-0.68 -0.21,-0.03 -0.12,-0.03 -0.39,-0.12 -0.24,-0.09 -0.27,-0.09 -0.54,-0.18 -0.42,-0.12 -0.65,-0.12 -1.01,-0.27 0,-1.22 0.12,-4.19 -0.03,-5.11 -0.21,-1.55 -0.09,-3.71 0,-4.93l-0.12 -5.02c0,-1.78 0.33,-1.84 -1.13,-3 -0.03,0 -0.06,-0.03 -0.06,-0.06l-9.75 -8.32c-0.21,-0.21 -0.21,-0.15 -0.45,-0.33l-1.13 -1.01c-0.03,-0.03 -0.03,-0.03 -0.06,-0.06l-5.05 -4.34c-0.92,-0.86 -2.76,-2.26 -3.54,-3.03l-5.91 -5.05c-0.27,-0.24 -0.45,-0.39 -0.71,-0.62l-2.32 -1.99c-0.03,-0.03 -0.03,-0.03 -0.06,-0.06 -0.33,-0.33 -0.51,-0.42 -0.8,-0.65l-0.54 -0.48c-0.21,-0.15 -0.06,0 -0.27,-0.21 -0.21,-0.18 -0.12,-0.15 -0.33,-0.36l-1.25 -1.01c-0.65,-0.48 -1.66,-0.21 -2.7,-0.27l-3.03 -0.12c-2.11,0 -4.19,0 -6.3,0 -6,0 -12.21,-0.33 -18.27,-0.33l-9.33 0c-1.57,0 -3.03,-0.24 -4.58,-0.09 -1.07,0.09 -2.5,1.84 -3.3,2.5 -0.33,0.27 -0.54,0.33 -0.86,0.62 -1.04,1.07 -2.41,1.99 -3.51,3.03l-2.67 2.41c-0.3,0.27 -0.48,0.42 -0.77,0.68l-0.12 0.12c-0.03,0.03 -0.03,0.03 -0.06,0.06l-3.71 3.06c-1.4,1.07 -2.58,2.38 -4.04,3.42l-2.79 2.29c-0.15,0.12 -0.09,0.06 -0.18,0.15 -1.04,1.1 -4.55,3.95 -5.67,4.93 -0.33,0.3 -0.45,0.33 -0.77,0.59 -0.51,0.36 -1.04,1.04 -1.55,1.4 -1.1,0.8 -1.49,1.31 -2.35,2.05 -0.36,0.3 -1.55,0.98 -1.55,1.4l-0.03 0.09z"/>
  <path class="fil1" d="M13.82 30.01l29.74 -25.58 4.16 -3.12 41.51 0.53c3.03,0.15 2,-0.43 5.08,2.32l29.83 25.52c1.46,1.16 1.13,1.22 1.13,3l0.15 15.06c3.81,1.59 3.17,-1.5 8.08,1.25 2.17,1.21 1.46,4.66 -0.12,5.94 -2.97,2.41 -0.85,1.49 -4.64,2.88 -1.28,0.45 -3.3,-0.27 -3.3,0.39 0,1.67 1.27,-0.63 4.19,0.56 1.37,0.56 1.36,0.16 2.64,1.6 2.46,2.78 -2.11,6.13 -2.26,6.57 1.61,0.92 2.58,-0.24 3.24,2.17 0.59,2.15 4.61,2.89 -1.49,7.01 -2.26,1.55 -2.56,1.52 -5.62,1.52 -1.1,0 -1.81,0.77 -2.76,1.07 -2.92,0.88 -2.2,-0.92 -5.05,-1.07 -0.54,-0.03 -1.07,-0.39 -1.25,-0.39 -0.89,0 -1.46,1.28 -3.15,1.66 -2.14,0.5 -8.35,7.15 -9.45,7.55 -0.8,0.29 -9.55,8.96 -11.97,9.81 -1.6,0.55 -3.17,1.84 -5.82,0.8 -2.04,-0.8 -3.15,6.08 -8.17,3.8 -0.42,-0.18 -0.62,-0.56 -1.01,-0.8 -0.56,0.12 -0.71,0.42 -1.34,0.42 -0.93,-1.48 -1.27,-2.8 -2.17,-2.82l-0.8 1.49c-0.42,0.92 -0.03,0.77 -1.46,0.95 -0.27,0.03 -1.1,0.3 -1.25,0.3 -0.21,0 -2.67,-0.71 -2.82,-0.8 -0.74,-0.48 0.15,-2.64 -0.68,-2.64l-15.84 0.42c-2.59,0 -2.71,-0.56 -6.03,-3.39l-9.54 -7.58c-4.9,-4.35 -2.97,-3.16 -8.82,-3.06l-5.2 0.3c-1.43,0 -1.19,-0.86 -2.91,-0.21 -0.95,0.36 -5.5,0.62 -6.77,0.62 -4.56,-0.02 -3.31,1.34 -1.31,-8.59 0.33,-1.6 0.92,-2.17 -1.1,-1.37 -1.35,0.54 -8.74,1.15 -7.4,-6 0.15,-0.8 0.74,-2.5 0.74,-3.12 0,-1.3 -1.78,1.18 -0.42,-2.76l5.11 -13.58c1.9,0 3.71,-0.33 5.44,-0.3 1.16,0.01 0.82,-0.01 0.83,-1.78l0.03 -16.55zm61.2 64.68c-0.48,0 -0.45,0.36 -0.59,0.62 0.68,0.06 0.27,0.15 0.98,0l0 -0.62 -0.39 0zm47.78 -35.86c0,0.24 0.03,0.12 0.12,0.42 0.24,-0.09 0.65,-0.15 0.98,-0.21l0 -1.37 -1.1 1.16zm-25.52 11.65c0.59,0 1.69,-0.77 1.69,-1.99 -1.34,0.29 -2.95,1.99 -1.69,1.99zm15 -16.04c0.45,0.15 0.54,-0.21 0.77,0.15 0.36,0.51 -0.42,0.77 0.8,0.77 0.54,0 1.52,-0.77 1.81,-1.25 -0.65,0 -0.71,0 -1.22,0.12 0.13,-1.26 4.19,-2.99 4.96,-4.4 -1.16,-0.23 -4.31,2.23 -4.66,2.56 -1.88,1.72 -2.42,1.44 -2.5,2.08l0.03 -0.03zm-20.56 0.95c0.8,-0.15 1.19,-0.8 1.81,-0.95 0.54,0.68 -0.06,1.99 1.1,1.99 0.8,0 1.93,-1.6 2.67,-1.78 1.19,0.17 -0.54,2.23 3.65,-0.48 0.54,-0.36 0.56,-0.03 0.56,-0.65l-1.57 0.95c-1.24,0 -1.1,-0.56 -0.95,-1.57 -0.24,-0.09 -0.24,-0.09 -0.39,-0.21 -0.58,0.13 -5.31,5.46 -3.18,0.8l1.01 -1.96c-1.05,-0.18 -2.23,1.42 -3.42,2.59 -0.03,0.03 -0.06,0.03 -0.06,0.06l-1.22 1.25 -0.03 -0.03zm14.53 -2.32c0.82,0.99 0.49,0.02 -0.12,4.19 -0.09,0.65 -0.15,0.89 0.48,0.92 0.22,-2.35 0.82,-3.1 0.98,-3.98 0.3,-1.49 0.71,-1.46 2.35,-1.75 2.52,-0.48 2.85,0.53 2.85,-0.98 0,-1.42 -4.94,1.37 -3.98,-0.62l1.04 -2.44c1.44,-2.1 3.76,0.93 3.54,-2.2 -6.45,0 -4.92,4.04 -6.86,6.45l-0.27 0.42zm-21.3 3.98c0,2.13 5.44,0.27 6.3,-1.13 -0.84,0 -1.74,0.83 -5.08,0.83 0.63,-3.91 0.29,-3.51 4.04,-4.07 0.77,-0.12 1.66,0.09 1.66,-0.86 0,-0.71 -2.47,-0.15 -2.73,-0.06 -0.12,0.06 -2.26,1.31 -1.6,0.09 1.76,-3.26 0.99,-3.89 4.46,-3.89 0.56,0 0.36,0.21 1.1,0.21 0.42,-1.55 0.27,-1.57 -0.71,-1.57 -1.76,0 -3.83,1.17 -4.66,2.26l-2.7 8.23 -0.06 -0.03zm42.81 -2.41c0,-1.43 1.39,-3.01 2.76,-2.73 0.38,1.53 -1.66,2.96 -2.79,2.76l0.03 -0.03zm-8.71 -0.83c-0.83,0 -0.48,-1.22 -0.48,-1.78l-2.73 1.72c-0.45,0.74 0.54,-0.03 1.43,-0.03 0,1.19 0.39,0.71 0.59,1.25 1.57,0 1.9,-1.1 2.32,-0.74 0.3,0.27 -0.09,0.71 0.33,1.19 0.36,0.42 0.62,0.24 1.01,0.71 -0.27,0.86 -1.22,1.49 -1.22,2.53 0.93,-0.22 1.42,-2.4 2.61,-2.88 1.99,-0.8 3.77,-2.85 3.54,-1.55 -0.78,4.25 8.48,-2.68 4.69,-3.39 -3.02,-0.57 -1.69,-0.14 -6.03,3.03 -3.62,2.65 -4.04,0.26 -2.67,-0.68l3.03 -2.11c1.43,-2.31 -5.51,2.76 -6.39,2.76l-0.03 -0.03zm-23.59 38.48l16.46 -14.05c-2.37,-1.35 -0.56,-1.82 -6.24,2.97l-9.66 8.29c-0.45,0.54 0.03,1.25 -0.33,2.11l-0.24 0.68zm30.25 -27.57c0,-0.95 1.73,-2.74 3.03,-1.99 -0.11,1.31 -3.03,3.56 -3.03,1.99l0 0zm-12.95 0c-0.26,-1 2.17,-1.71 2.17,-2.23l2.26 -1.99c-0.28,-0.92 -5.11,2.81 -5.11,2.88 -2.84,2.11 -2.19,1.28 -3.06,-0.15 -0.15,-0.24 -0.15,-0.03 -0.27,-0.42 -1.22,0 -2.79,3.01 -2.79,4.1 0.78,-0.26 0.27,-0.58 1.69,-2.41 1.3,0.6 1.04,1.4 1.84,1.16 0.39,-0.12 0.59,-0.48 1.04,-0.56 0.74,-0.15 0.27,0.36 0.51,1.07 2.05,0 2.7,-1.9 3.98,-1.99 0.3,0.56 0.3,1.78 1.75,1.22 0.95,-0.39 1.4,-1.52 1.4,0.18 0,0.42 0.95,0.89 1.22,1.16l-1.46 2.64c0.77,-0.03 1.88,-1.95 2.26,-2.67l3.09 -1.81c2.42,-2.04 0.04,1.6 1.9,1.34 3.38,-0.47 6.43,-4.87 3.36,-4.87 -0.8,0 -0.45,-0.24 -1.04,-0.36l-3.92 3.09c-0.63,0.41 -3.92,2.76 -3.92,0.77 0,-1.55 3.86,-2.28 3.86,-3.77 -1.59,0 -4.51,2.59 -6.15,3.33 -0.89,0.3 -1.1,-0.62 -0.59,-1.57 -1.36,-0.53 -2.58,1.77 -3.98,1.9l-0.03 -0.03zm-68.22 25.05l-4.31 -3.71c-1.43,-0.98 -1.72,-1.6 -3.06,-2.58 -2.64,-1.93 -0.77,-1.25 -4.25,-1.25l16.67 13.82 17.89 -0.45c0.36,-0.03 1.75,0.21 1.75,-1.4 0,-0.64 -4.19,-0.09 -5.17,-0.09l-7.75 0.24c-8.71,0.3 -4.93,-0.07 -9.69,-3.15l-2.08 -1.43zm44.51 3.6c0,-0.9 1.99,-2.62 2.67,-2.62 2.08,0 -0.67,3.4 -2.53,3.06 -0.09,-0.3 -0.12,-0.18 -0.12,-0.42l-0.03 -0.03zm-14.77 -1.9l3.15 -4.4c1.59,0 1.55,3.81 0,4.16l-3.15 0.24zm4.49 -6.3c0.24,-0.39 0.48,-0.54 0.48,-1.16 -1.57,0 -1.43,1.17 -2.91,1.49l-3.15 5.73c-0.84,1.25 -2.67,1.36 -1.43,2.94l-1.22 3.15c1,-0.57 2.4,-3.8 2.53,-3.89 0,-0 4.99,-2.21 4.99,-1.16 0,1.01 -0.71,2.47 -0.71,4.19 0.83,0 0.35,0.15 1.25,-1.96l2.14 -0.86c0,2.85 2.08,0.88 0.86,2.85 -0.62,1.01 -0.98,1.34 -0.98,2.08l2.17 -2.64c0.8,-1.23 1.82,-0.98 2.94,-1.84 0.59,-0.45 1.07,-1.13 1.9,-1.28 0.17,0.73 -1.21,3.52 3.36,1.13 0.91,-0.47 3.88,-3.12 2.56,-4.13 -0.83,-0.65 -1.22,-0.15 -1.63,-0.27 -0.64,-0.17 0.02,-1.53 -3.65,1.81l-1.6 1.34c-0.17,0 -1.72,1.72 -3.57,1.72 -0.2,0 -2.06,-0.67 0.92,-2.59 2.27,-1.45 2.08,-1.01 2.85,-2.35 -1.38,-0.28 -6.1,3.03 -6.89,3.68 -0.48,0.51 0.09,0.51 -0.86,0.51 0,-1.77 0.65,-1.61 0.62,-3.09l0.45 -3.3c0,-2.11 -0.65,-0.98 -1.34,-2.11l-0.06 0zm20.92 -4.1c-2.33,-0.48 1.52,-2.94 1.52,-3.21l0.3 -0.15c1.89,0.88 -0.7,2.61 -1.81,3.36l0 -0zm27.96 -9.12l1.34 -0.92c-0.21,0.68 -0.62,1.09 -1.34,0.95l0 -0.03zm-28.67 -13.43c0,-0 1.8,-2.59 -2.44,-1.28 -5.04,1.56 -5.3,10.11 -5.5,10.64 -0.19,0.49 -5.85,3.48 -5.85,8.79 0,4.1 5,0.03 5.79,0 0.28,1.12 -1.49,3.65 -0.59,3.65 1.28,0 1.15,-3.1 3.21,-4.46 2.17,-1.43 1.76,-1.31 2.35,-0.06 0.94,2 2.86,-0.77 4.01,-0.86 0.61,2.37 2.17,1.07 -0.18,3.42 -0.9,0.9 -1.51,1.49 -1.54,2.88 0.71,0.42 0.68,0.59 1.66,0.21 1.57,-0.62 4.05,-2.25 3.15,-4.16l-0.36 -0.83c0.62,-0.36 0.42,-0.65 1.31,-1.01 1.08,-0.43 -0.45,2.61 3.42,-0.59 0.36,-0.3 0.83,-0.59 1.37,-0.71 0.07,0.12 0.23,3.12 3.83,-0.33 0.36,-0.33 0.65,-0.42 1.1,-0.62 0.14,1.42 -1.31,2.1 -0.95,3.27l3.21 -2.23c2.37,-2.14 1.47,2.76 4.4,-0.09 0.54,-0.51 1.19,-1.1 1.81,-1.46l-0.24 1.52c-0.59,2.2 -0.42,1.19 -0.15,2.08 1.92,0 2.68,-2.05 4.13,-2.2 0.15,0.27 0.24,0.62 0.39,0.8 1.35,1.53 5.4,-2.07 5.53,-2.41 -1.36,0 -2.95,2.4 -4.28,1.4 -1.28,-0.96 2.73,-2.22 2.73,-3.42 0,-2.46 -2.88,0.47 -3.51,1.28 -1.26,1.64 0.44,0.34 -1.9,2.05 -1.42,1.04 -2.36,1.82 -1.22,-1.04 0.39,-0.98 0.86,-2.23 1.46,-3.12 0.45,-0.68 1.13,-0.21 1.13,-1.1l0.12 -1.46c-0.33,-0.03 -0.27,0 -0.48,-0.12 -1.41,0.82 0.16,1.13 -2.67,1.34 -0.77,0.06 -2.38,-0.12 -2.35,0.74 0.03,0.89 1.93,0.06 2.97,0.54l-4.22 4.31c-1.1,0 -0.21,-3.62 -3.65,-0.42 -0.33,0.3 -0.71,0.62 -1.19,0.74 0.18,-1.41 1.13,-1.48 1.1,-3.15 -1.84,0 -3.93,3.24 -4.81,3.24 -1.81,0 -0.03,-1.66 -1.1,-1.66l-3.63 2.17c-0.34,-1.17 6.49,-4.58 4.1,-4.58 -2.13,0 -8.97,8.31 -8.97,4.28 0,-1.53 0.78,-1.57 2.53,-3.15 1.84,-1.72 0.27,-1.19 1.16,-2.56l0.56 -1.72 -0.36 0 0 0.54c-0.84,-0.52 2.79,-6.64 2.94,-7.1 0.06,-0.18 0.18,-0.54 -0.03,-0.77 -0.75,0.14 -1.36,1.84 -1.96,2.38 -1,0.89 -2.5,3.25 -3.83,3.3 0,-1.02 3.61,-6.28 -0.77,-3.09l-4.19 3.48c1.77,-0.13 3.08,-2.74 4.34,-2.41 0,2.85 -2.79,1.37 -1.34,3.98l3.51 -2.23c1.9,-1.43 0.3,1.28 0.27,1.4 -0.84,3.52 -0.31,3.26 -2.44,5.23 -0.36,0.34 -2.65,3.13 -3.65,3.45 -2.37,0.75 0.88,-4.64 -3.48,-0.83 -3.31,2.89 0.78,-3.18 -4.52,1.75 -2.97,2.77 -4.8,0.14 -2.35,-3.89 0.83,-1.36 3.01,-4.88 4.96,-3.42 0.95,0.71 0,2.14 0.8,2.14 0.83,0 1.87,-1.07 0.59,-2.73 0.65,-1.11 2.98,-0.77 3.03,-2.2 -0.64,0.38 -5.49,1.97 -5.05,0.27 0.51,-1.99 0.02,-2.83 3.33,-3.33 0.71,-0.03 2.08,0.12 2.08,-0.59 0,-1.45 -2.53,0.21 -4.22,0.21l1.96 -3.95 3.62 -0.12zm-83.73 -11.65c0,2.47 0.21,1.4 0.45,2.35 0.12,0.45 -0.24,1.93 0.03,2.91 0.03,-0.03 0.03,-0.09 0.03,-0.06 1.11,-3.46 0.15,-2.5 1.31,-3.3 0.27,-0.21 0.27,-0.39 0.18,-0.77l-0.06 -16.73 23.44 -20.29 7.37 -6.3c1.09,-1 4.45,-0.39 6.54,-0.39l32.8 0.36c4.67,0 3.3,1.03 6.42,3.12l26.35 22.52c2.45,2.43 1.72,1.54 1.72,4.78 0,0.74 -0.35,13.74 0.21,14.68l1.81 -0.95 -0.03 -15.6c-0.49,-3.04 0.93,-1.26 -2.2,-3.98l-10.99 -9.33c-0.77,-0.42 -0.33,-0.42 -0.71,-0.86l-2.7 -2.08 -6.57 -5.82 -9.33 -7.93c-0.83,-0.7 -2.47,-0.39 -4.63,-0.39 -6.04,0 -37.59,-0.9 -39.13,-0.36l-9.24 7.9 -22.88 19.49c-0.64,0.54 -0.52,4.47 -0.36,5.53l0.18 11.5zm36.34 -46.85l30.57 0.56c2.02,0 4.22,-0.03 6.06,0.09 5.38,0.36 3.36,-0.93 10.01,4.75l21.6 18.72c1.49,1.28 3,2.82 4.61,3.98 2.97,2.17 2.26,1.49 2.26,3.18 0,2.11 0.42,2.67 0.48,3.98l0 11.94c0.27,-0.12 2.64,-0.42 3.15,-0.42 4.57,0 9.79,6.17 1.07,11.23 0.56,0.89 4.21,2.18 2.08,6.45 -0.33,0.65 -0.8,1.37 -0.89,2.17 2.09,0.86 0.29,-0.83 2.23,2.5 1.6,2.74 3.18,4 -2.14,7.84 -4.1,2.96 -5.18,0.75 -8.56,2.64 -2.81,1.58 -4.82,-1.01 -6.66,-1.01 -2.67,0 -19.45,15.16 -22.13,17.53 -1.6,1.4 -4.43,2.38 -6.92,2.38 -0.95,0 -1.55,-0.27 -2.29,-0.42 -2.79,4.92 -5.71,4.41 -9.39,3.65 -3.55,-0.73 -0.58,-1.72 -4.01,-0.59 -2.61,0.86 -3.68,-0.15 -5.65,-0.48 -1.28,-0.21 -0.89,-0.03 -0.89,-2.26l-13.07 0.33c-4.86,0 -3.33,0.9 -8.08,-2.97l-10.4 -8.29c-3.86,-3.3 -1.84,-3.5 -11.26,-2.79 -2.05,0.21 -2.7,-0.27 -5.23,-0.03l-10.99 0.74c0.06,-2.85 2.05,-6.45 2.05,-10.07 -10.81,0 -7.99,-4.59 -7.99,-9.75 -1.82,0 -1.43,-0.28 0.36,-5.11l4.69 -12.89c2.17,0 4.43,-0.33 5.94,-0.33l0.15 -17.29c0.58,-2.1 7.45,-7.13 8.88,-8.35l23.38 -19.88c3.1,-2.05 1.39,-1.66 6.95,-1.66l0.03 -0.09z"/>
  <path class="fil2" d="M66.91 43.23c0.71,-0.15 6.3,-0.54 6.66,-0.33 0.3,0.15 0.45,1.31 0.48,1.69 -1.04,0.62 -5.4,0.65 -6.54,0.42 -0.27,-0.48 -0.59,-1.25 -0.59,-1.78l-0 0zm4.84 -1.46c-1.28,0 -3.83,0.12 -4.96,-0.12 -0.93,-3.56 1.3,-2.79 1.99,-2.88 2.57,-0.36 4.46,-0.91 4.66,2.58 -0.45,0.24 -0.98,0.42 -1.69,0.42zm-7.64 -8.5c0.65,-0.3 0.8,-0.3 1.46,0 -0.24,0.45 0.03,0.39 -0.36,0.54 0,0.36 -0.74,-0.09 -1.1,-0.54l-0 0zm-3.27 -0.74c-0.6,-0.36 -0.37,-2.57 0.27,-2.35 0.73,0.26 0.54,2.33 -0.27,2.35zm8.23 -3.45c1.31,-0.24 1.43,2.2 1.93,3.21 0.23,0.46 0.91,1.62 -0.42,1.34 -1.37,-0.3 -0.95,-0.27 -1.19,-1.6 -0.09,-0.51 -0.65,-1.96 -0.36,-2.94l0.03 0zm5.79 5.76c-1.16,0 -2.49,-5.88 -2.47,-5.94 0.2,-0.64 5.03,-0.93 6.3,-1.16l10.1 -1.22c3.89,-0.48 4.49,-1.19 3.48,1.84 -1.29,3.93 0.02,4.49 -7.31,5.2l-10.07 1.22 -0.03 0.06zm-17.17 -21.6c0.48,0.03 0.51,0.06 0.71,0.33 -0.33,0.15 -0.24,0.12 -0.71,0.12l0 -0.45zm-13.55 23.47c-2.17,0 -1.81,0.39 -3.24,-0.36 -0.96,-0.5 -0.27,-0.73 -1.28,-1.43 -0.56,-0.3 -0.71,-0.06 -0.62,-0.86 0.09,-0.77 -0.06,-1.28 0.42,-1.87 -0.55,-0.66 -0.12,-1.08 -0.12,-2.2l0.12 0c0,0.51 0.15,0.62 0.71,0.74 -0.24,0.45 -0.12,0.62 0,1.04 0.36,-0.21 0.3,-0.39 0.36,-0.95l0.24 0c0.09,0.33 0.12,0.8 0.24,1.04 0.77,-0.48 -0.18,-1.22 0.71,-0.83 0.06,0.03 -0.09,0.48 0.12,0.83 0.36,-0.21 0.15,-0.21 0.59,-0.33l0.36 0.62c0,-0.51 0,-0.42 0.36,-0.62 0.45,0.24 0.36,0.15 0.36,0.74 0.21,-0.3 0.12,-0.48 0.86,-0.62 -0.19,-0.6 -0.67,-0.37 -2.17,-0.33 -0.12,-0.12 -0.09,-0.12 -0.12,-0.3l2.67 0c-0.15,0.54 -0.24,0.12 -0.24,0.95 1.1,-0.03 0.51,-0.51 0.36,-0.95 0.59,-0.03 0.21,-0.09 0.71,0 -0.15,0.54 -0.48,0.89 0.24,1.04 0.18,-0.71 0.06,-0.42 0,-1.04 0.77,0.03 0.48,-0.09 0.59,1.37 0.56,-0.56 -0.06,-1.01 0.48,-1.37 0.36,0.24 0.3,0.8 0.36,1.57 0.65,-0.42 -0.09,-1.62 0.62,-1.37 0.48,0.18 0.03,0.48 0.24,1.25l0.24 0c0.21,-2.02 -0.09,-0.98 1.93,-1.1 0.62,-0.03 0.09,-0.27 0.83,0.06 -0.21,0.36 -0.51,0.95 0,1.25 1.35,-0.87 -2.11,-1.44 2.79,-1.25l0 0.33c0.59,-0.15 0.15,-0.18 0.71,-0.33 0.65,0.8 -1.15,2.27 0.48,1.46 0,-0.62 -0.12,-0.98 0,-1.37 1.13,0.09 0.15,1.16 0.59,1.99 0.7,-0.44 0.07,-1.4 0.45,-2.23 0.08,-0.19 0.91,-10 1.78,-12.92l0.89 -4.99c0.27,-0.15 0.48,-0.33 0.86,-0.42l-1.78 8.91 -1.01 10.76c0.03,0.89 -0.83,1.46 -0.83,2.56 0,2.46 -1.61,0.08 -1.63,2.47 -0.03,1.34 -0.39,2.67 -0.42,4.01 0.59,0.11 0.83,0.95 1.81,1.16 1.74,-8.21 1.5,-3.76 2.17,-5.76 -0.24,-0.09 -0.65,-0.15 -0.98,-0.21l0 -0.21c0.36,0.06 0.36,0.12 0.86,0.12 1.69,-2.53 2.87,1.46 3.06,1.99 0.18,0.51 -0.03,1.04 0.15,1.46 0.31,0.79 0.72,0.79 -0.03,0.77l-0.06 0.36c1.19,0.28 0.23,0.05 0.65,0.77 0.36,0.62 0.56,0.06 0.48,0.95 0.62,0.12 1.72,-0.3 1.93,0.42 -1.34,0.09 -1.66,-0.03 -1.81,0.42 -1.01,-0.56 -0.83,-0.48 -0.86,1.37 -0.02,2.56 0.56,1.76 2.11,1.31 1.04,-0.3 1.22,-1.16 1.16,0.56 -0.06,1.31 -1.31,1.22 2.2,0.86 1.28,-0.15 0.4,0.48 2.05,0.21 1.75,-0.27 2.85,0 5.08,-0.45 0.39,-1.43 1.26,-1.03 1.81,-1.87 0,-0 -1.9,-9 -2.67,-9 -2.73,-2.73 -3.99,-1.57 -6.15,-1.57 -0.06,-0.27 -0.12,-0.42 -0.24,-0.62 1.45,-0.04 4.78,-0.44 5.35,0.27 1.78,2.2 1.52,1.01 4.19,0.98 0.81,-0 13.68,-1.41 14.92,-2.64l1.22 -1.04 2.05 -7.67 -0.12 -2.64 0.36 0 -0.59 -3.15c-0.15,1.69 0.36,3.06 -0.12,4.81l-24.1 2.56c-1.4,-0.35 -0.55,-8.7 -1.52,-9.21 -1.23,-0.66 -0.86,1.46 -1.16,3.71 -0.32,2.49 0.34,3.86 -1.19,4.1l0 0.21c0.58,0.13 2.17,0.16 2.32,0.83 0.33,1.56 -2.2,1.14 -3.12,0.95 -0.76,-2.54 0.82,-0.91 -1.81,-1.66l-2.76 -1.16 1.22 -5.53c0.42,-0.33 0.39,-0.12 0.45,-0.54l-3 1.04c0.25,-0.91 1.17,-0.97 2.91,-1.81 -0.21,-0.7 0.1,-2.15 0.86,-2.56 5.63,-3.02 4.63,-2.23 4.49,-0.39 -0.06,1.01 -0.39,0.45 -0.62,1.16 0.98,0.21 1.13,-0.09 2.05,0.12 0.39,-1.4 -0.36,-5.08 0.54,-5.5l20.26 -1.13c-0.52,-1.22 -18.69,-0.42 -21.06,0.27 -3.94,1.14 -0.81,0.94 -6.54,1.69 -4.51,0.59 -3.89,2.16 -4.52,2.38 -2.38,0.82 -4.17,2.7 -4.96,2.7l0 0.21c1.07,-0.03 0.24,-0.59 1.22,-0.21 -0.41,0.51 -13.02,7.02 -13.22,7.75l-0.36 0c-0.37,-1.48 1.8,-2.05 4.87,-4.04l12.75 -8.05c1.92,-1.73 4.88,-0.67 9.77,-2.79 2.2,-0.95 15.63,-1.34 17.8,-1.04 1.96,0.27 3.48,-0.42 4.96,0.54 1.8,1.14 1.62,-0.87 3.24,3.06 0.36,0.86 0.56,0.68 -0.51,1.16 0,2.88 2.27,1.14 2.85,3.54l0.18 5.41c-0.27,0.33 -0.62,0.33 -0.83,0.74 -0.75,1.44 0.36,2.9 0.36,3.98 0,1.13 0.15,3.48 0,4.52 -0.15,0.98 -1.37,0.36 -0.48,1.49 1.06,1.34 0.12,3.75 0.15,6.48 0.07,5.96 0.3,4.86 -2.41,6.21 3.11,0 2.42,-1.16 2.85,-1.16l0.21 -11.35c-0.36,-0.86 -0.06,-0.56 0.21,-1.25 0.21,-0.54 0.33,-4.99 0.21,-6 -0.07,-0.58 -1.66,-2.27 0.48,-3.27 0,-1.06 -0.02,-6.25 -0.65,-6.98 -0.62,-0.71 -2.08,-0.56 -2.35,-1.52 0.27,-0.27 0.36,-0.33 0.86,-0.42 0,-0.68 -1.22,-4.07 -2.23,-4.46 -3.86,-1.48 -4.51,-1.19 -9.15,-1.19 -4.19,0 -12.41,-0.26 -16.46,1.34 -4.37,1.72 -6.79,0.79 -9.18,2.44l-17.26 10.96c-1.84,1.25 -0.54,0.71 -1.13,2.7l-0.8 5.91 -0.36 4.37c-0.01,0.34 2.43,2.39 3.77,2.38 3.18,-0.03 2.64,0.97 4.96,1.04 3.03,0.09 1.22,1.55 2.32,3.24 1.09,1.68 1.78,-1 5.29,2.14 0.62,0.55 -0.37,1.48 0.54,2.05 0.59,0.39 0.83,0.03 0.98,0.83 0.45,2.44 2.08,2.63 1.31,1.57l-0.86 -2.73c-0.59,-0.12 -0.98,0.03 -1.1,-0.42 -0.39,-1.44 1.13,-0.52 -1.96,-2.97 -1.57,-1.25 -1.88,0.17 -3.24,-0.45 -1.13,-0.51 -0.71,-2.5 -0.71,-3.48 -2.27,-0.13 -2.12,-0.71 -2.82,-0.65 -0.64,0.05 -2.45,-0.18 -2.61,-0.8l0.06 0.03z"/>
  <path class="fil2" d="M22.17 53.81l-0.36 -2.61c0.09,-0.89 0.65,-0.74 -2.79,-0.74 -1.14,0 -1.34,2.78 -1.78,4.96 -1.12,5.55 -2.38,5.82 0.3,5.82 1.33,0 0.56,-1.4 1.6,-4.07 0.15,-0.39 0.24,-1.16 0.33,-1.6 0.71,0.43 -0.03,3.55 -0.03,5.53l1.46 0 1.75 -4.64c0.09,-0.51 -0.06,-0.48 0.42,-0.56 0.56,0.77 -0.98,3.98 -0.71,5.02 1.19,0 1.37,-0.03 2.29,-0.21l2.14 -9.42c0.39,-1.55 0.24,-1.22 -1.99,-1.22 -1.7,0 -1.42,0.7 -2.64,3.68l0.03 0.06z"/>
  <path class="fil2" d="M74.43 68.28l1.99 -8.97c0.55,-2.12 0.93,-1.63 -2.94,-1.63 -0.83,1.06 -1.08,3.8 -2.05,4.4 -0.28,-1.02 0.82,-4.33 -0.12,-4.28l-3.27 0.33 -2.05 9.12c0.83,0.39 0.36,0.12 1.22,0.12 0.62,0 0.12,0.92 0.36,1.37 0.7,-0.08 0.55,-0.34 0.74,-1.25l1.07 -4.52c0.76,0.93 -0.32,4.47 0,5.67 2.58,0 1.43,-1.26 3.83,-6.06 0.27,1.01 -1.74,5.88 -0.71,5.88 1.04,0 1.07,0.06 1.93,-0.12l0 -0.06z"/>
  <path class="fil2" d="M100.07 30.01l4.72 2.94 -1.46 4.81c1.28,-0.08 4.07,-3.14 5.05,-2.67l4.49 2.7c0.45,-0.45 -1.5,-3.49 -1.6,-4.58 -0.1,-1.11 4.82,-2.77 4.4,-3.54 -1.29,-0.35 -5.51,0.75 -6,-0.3l-1.96 -4.4c-1.97,5.81 -1.08,4.93 -4.34,4.93 -0.89,0 -2.64,-0.15 -3.27,0.12l-0.03 -0.03z"/>
  <path class="fil2" d="M21.19 32.86c0.21,0.74 3.06,1.88 3.8,2.29 1.41,0.76 1.49,0.17 0.03,4.69 -0.53,1.65 0.75,0.36 2.82,-1.13 1.9,-1.37 0.68,-1.83 5.76,0.92 0.48,0.27 0.36,0.33 0.92,0.36l-2.05 -4.46 2.91 -2.32c0.03,0 0.06,-0.03 0.06,-0.06 0.03,0 0.06,-0.03 0.06,-0.06l1.19 -0.77 0 -0.42c-4.68,0 -5.52,1.19 -6.39,-0.86 -0.25,-0.6 -1.25,-3.14 -1.96,-3.33l-0.86 3.45c-0.55,2.19 -1.86,1.47 -6.3,1.7z"/>
  <path class="fil2" d="M33.16 80.55c0.15,-0.51 0.3,-0.18 0.45,-0.89l1.1 -5.02c0.18,-0.54 0.15,-1.66 0.86,-1.66 1.24,0 -0.98,5.42 -0.98,7.01 0,0.52 2.27,0.51 2.47,-0.09l1.52 -6.27c0.3,-0.88 0.4,-2.04 -0.74,-2.29 -1.25,-0.27 -1.75,0.71 -2.56,0.86 -0.84,-0.14 0.31,-1.4 -3.51,0 0,-0.68 -0.39,-0.57 -2.05,-0.36 -0.8,0.1 -0.82,2.16 -1.16,3.24l-1.19 5.08c-0.11,0.8 1.93,0.4 2.44,0.3l1.34 -5.88c0.15,-1.81 1.34,-1.87 1.34,-1.16l-1.57 7.01 2.29 0 -0.03 0.12z"/>
  <path class="fil2" d="M15.51 78.88l0.95 -4.4c0.54,-1.75 0.09,-1.99 1.1,-2.2 0.76,0.95 -0.5,3.74 -0.68,5.08 -0.06,0.51 -0.33,2.17 -1.04,2.23 -0.57,0.05 -0.15,-0.53 -0.33,-0.71zm-1.69 2.53c2.46,0 4.61,0.17 5.38,-2.23l1.37 -5.73c0.42,-3.6 -0.33,-2.7 -5.79,-2.7l-2.47 10.7 1.55 0.03 -0.03 -0.06z"/>
  <path class="fil2" d="M92.43 32.33c0,0.89 -0.8,1.57 -1.04,2.05l-1.43 4.72c-0.21,0.56 0.09,0.39 -0.06,0.8 -0.14,0.42 -1.44,2.91 -0.65,3.65 0.27,0.24 0.51,0.36 0.62,0.71 -1.78,0 1.05,-1.52 -6.74,0.33 -1.2,0.29 -7.7,1.18 -7.22,2.05l6.8 -0.39 6.89 -1.37c0.12,-0.21 0.18,-0.24 0.24,-0.54l4.13 -0.62c0.81,-0.31 0.71,-2.41 0.71,-3.68 -0.7,0 -3.74,1.81 -4.1,1.34 -0.12,-0.24 -0.03,-1.34 0.18,-1.63 1.41,-1.1 4.45,-0.58 3.95,-2.47 -3.52,0.78 -3.79,1.91 -2.76,-1.43 0.26,-0.86 1.14,-0.73 2.85,-1.52 0,-1.84 0.18,-1.58 -1.34,-2.94 0.98,-0.56 1.87,-0.68 1.34,-1.66l-1.43 1.07c-0.42,0.56 0.32,0.96 -1.01,1.46l0.06 0.06z"/>
  <path class="fil2" d="M7.64 70.06c-0.52,-0.88 0.95,-5.12 1.1,-6.09 0.06,-0.42 0.21,-1.66 0.86,-1.66 1.55,0 -1.01,3.22 0.65,3.12 1.98,-0.12 2.5,0.23 2.5,-3.3 0,-1.9 -4.55,-2.35 -6.24,0.45 -0,0 -2.22,7.25 -1.52,8.32 1.13,1.72 4.5,0.85 5.62,-0.48 0.56,-0.68 1.28,-2.38 1.04,-3.18 -0.71,0 -1.96,0.09 -2.56,0.21l-0.74 2.5 -0.71 0.12z"/>
  <path class="fil2" d="M37.17 60.22c3.79,0.14 2.16,-0.03 3.95,-6.15 0.39,-1.1 -0.12,-1.04 0.92,-1.52 0.51,0.82 -0.3,3.31 -0.71,5.05 -0.56,2.56 -1.13,2.5 0.8,2.5 0.84,0 -0.09,-1.07 1.69,-1.87 0,-2.45 3.36,-8.74 -1.52,-6.77 -0.8,0.33 -0.62,-0.3 -0.59,-0.42 0.24,-1.66 1.55,-1.63 -1.63,-1.63 -0.73,0 -1.62,4.58 -1.69,5.14l-1.22 5.67z"/>
  <path class="fil2" d="M29.42 68.9c0,-0 1.04,-5.88 1.69,-5.88 1.08,0 0.07,2.21 -0.24,3.59l-0.62 2.5c-0.18,0 -0.86,0.15 -0.86,-0.21l0.03 0zm0.59 2.32c2.63,0 2.64,-0.04 3.18,-3.24 0.32,-1.88 0.62,0.21 1.22,-5.76 0.12,-0.95 0.15,-0.54 -2.2,-0.54 -0.15,0.24 -0.21,0.33 -0.36,0.54 -1.37,-0.62 -0.48,-0.51 -1.28,-0.51 -2.76,0 -2.3,2.03 -2.97,3.74 -0.16,0.41 -1.86,5.35 0.62,5.35 0.77,0 1.16,-0.59 1.69,-0.62 0.21,0.36 0.12,0.21 0.12,1.04l-0.03 0z"/>
  <path class="fil2" d="M9.57 57.37l1.19 -3.15c0.33,1.19 0.03,1.63 -0.18,2.79 -0.12,0.74 0.03,0.89 -0.92,0.89 -0.06,-0.24 -0.12,-0.24 -0.12,-0.54l0.03 0zm-3.74 4.4c0.58,-0.15 2.86,-3.33 6.33,-1.55 0.36,0.18 -0.06,0.15 0.54,0.18l0.62 -6.89c0,-3.54 1.04,-2.55 -2.53,-2.64 -1.96,-0.03 -1.22,0.54 -2.17,2.53l-2.79 8.38z"/>
  <path class="fil2" d="M38.36 70.18c0.93,0 1.21,-0.01 1.87,-1.52l1.57 -6.83c0.27,-0.76 0.3,-0.59 -2.5,-0.45l-1.81 7.34 -0.48 0.12 1.19 -7.43c-0.95,0 -1.43,0.12 -2.29,0.12 -0.09,0.3 -0.27,0.48 -0.39,0.8l-0.92 4.69c-1.63,5.4 1.43,2.91 2.76,2.91 0.12,0.36 0,0.33 0.98,0.33l0 -0.09z"/>
  <path class="fil2" d="M86.28 67.44c0.52,0.3 2.48,0.59 2.82,-0.3l1.72 -7.55c0.33,-0.89 0.39,-0.8 -1.13,-0.8 -2.45,0 -1.04,1.35 -2.5,5.47 -0.62,1.28 0.12,2.02 -1.01,2.17 -0.81,-0.81 1.1,-5.36 1.1,-7.46l-2.41 0.12 -1.28 5.7c-0.21,0.89 -0.89,2.29 0.09,2.91 1.13,0.71 1.75,-0.12 2.64,-0.3l-0.06 0.03z"/>
  <path class="fil2" d="M34.5 52.02c-0.62,0 0.09,-0.36 -1.22,-0.24 -2.2,0.24 -1.22,-1.09 -2.64,5.02 -0.44,1.87 -2.36,4.35 1.6,3.51 0.83,-2.36 1.46,-7.37 2.26,-7.37 1.09,0 -0.17,2.42 -0.36,3.89l-0.74 3.57c3.69,0 2.17,0.28 3.36,-3.71 2.3,-7.79 -1.39,-4.66 -2.26,-4.66l-0 -0z"/>
  <path class="fil2" d="M44.3 79.92c1.12,0 1.46,-7.36 2.56,-7.49 1.38,-0.16 -0.68,3.19 -0.92,3.6 -0.42,0.77 0.39,0.77 0.18,1.81 -0.18,0.92 -0.33,1.04 -0.03,1.46 4.23,-2.35 1.64,0.62 2.94,-2.58l0.68 -3.15c0.04,-0.25 1.37,-4.37 -2.79,-1.99 -0.45,-0.36 -0.01,-0.59 -2.17,-0.33 -0.48,0.09 -0.45,0.15 -0.83,0.24l-1.4 6.65c-0.51,2.11 -1.07,1.84 1.75,1.84l0.03 -0.06z"/>
  <path class="fil2" d="M57.49 58c-1.02,0 0.34,-3.78 0.56,-4.96 0.15,-0.68 0,-1.19 0.86,-1.25 0.45,0.62 -0.47,3.55 -0.71,4.93 -0.06,0.39 -0.27,1.25 -0.71,1.25l0 0.03zm1.22 -7.01c-0.09,-0.27 -0.12,-0.3 -0.24,-0.54l-2.2 0.12 -1.84 7.19c-0.31,1.84 0.47,0.34 3.06,0.86 0.39,0.68 -0.39,0.74 1.22,0.74 1.8,0 2.48,-4.1 2.76,-5.68 0.07,-0.38 1.53,-4.6 -1.87,-3.21 -0.36,0.15 -0.45,0.36 -0.92,0.48l0.03 0.03z"/>
  <path class="fil2" d="M21.81 70.89c0,-0.01 1.32,-7.55 2.2,-7.55 1.01,0 -0.36,3.29 -0.71,5.47 -0.42,2.61 -0.85,1.99 0.98,1.99 2.08,0 1.34,-2.24 2.38,-5.5 1.69,-5.3 -2.02,-2.88 -2.85,-2.88 -0.16,-0.64 -1.93,-0.33 -2.35,-0.15 -0.7,0.3 -1.45,6.47 -1.99,7.55 0.77,0.33 1.63,0.51 1.81,1.16l0.59 0 -0.06 -0.09z"/>
  <path class="fil2" d="M23 79.3c0,-0.85 0.78,-5.66 1.69,-5.85 0.68,0.45 -0.83,5.67 -0.83,5.67 -0.46,0.9 -0.86,0.44 -0.86,0.18zm-0.47 1.78c4.03,0 3.95,-2.48 4.58,-4.69 1.26,-4.44 -0.54,-3.69 -0.54,-4.16 -1.15,-0.57 -4.45,-0.13 -5.05,1.93 -1.21,4.15 -2.34,6.92 1.01,6.92z"/>
  <path class="fil2" d="M58.95 67.03c0,-0.08 0.75,-4.93 1.55,-5.44 0.27,0.12 0.03,0.03 0.36,0.12l-0.98 5.26c-0.09,0.48 -0.98,1.66 -0.98,0.12l0.06 -0.06zm2.17 0.74c1.58,-0.33 0.9,0.01 1.93,-3.27 1.92,-6.12 -3.44,-4.38 -4.46,-3.54 -1.3,1.08 -3.38,7.69 -1.22,8.2 0.94,0.22 3.71,0.47 3.74,-1.4z"/>
  <path class="fil2" d="M64.03 57.28l1.22 -2.32c0.95,1.21 -1.19,3.82 -1.19,2.32l-0.03 0zm-1.57 -3.89c0,0.39 1.84,0.21 2.29,0.12 0.54,-0.98 0.24,-1.99 1.1,-1.99 0.51,0 0.98,1.77 -1.46,2.61 -2.64,0.91 -2.76,2 -2.76,4.22 0,1.66 2.8,0.3 2.91,0.3 0.72,0 2.27,1.74 3.33,-2.08 1.69,-6.12 1.45,-7.12 -3.15,-6.18 -1,0.21 -2.2,1.97 -2.2,3l-0.06 -0z"/>
  <path class="fil2" d="M79.63 62.1c0,-0.83 0.09,-1.28 0.86,-1.46 0.86,1.43 -0.86,2.47 -0.86,1.46zm3.03 1.57c0.52,-1.98 0.85,-3.7 -0.56,-4.31 -0.95,-0.42 -2.53,-0.15 -3.39,0.36 -1.77,1.06 -1.97,3.54 -2.38,5.47 -0.23,1.11 -0.51,1.22 0,2.11 1.25,2.16 5.24,0.76 5.88,-1.31l0.36 -1.46 -2.29 0c-0.82,1.64 -0.06,1.77 -1.22,2.32l-0.48 -0.33 0.83 -2.73c1.19,0 1.99,-0.12 3.27,-0.12l-0.03 0z"/>
  <path class="fil2" d="M81.8 51.94l0.62 -1.25c0.3,0.06 0.48,0.12 0.71,0.21 -0.15,1.99 -1.34,2.05 -1.34,1.04l-0 -0zm-1.46 6.39c4.55,0 4.41,-3.89 3.74,-3.89 -2.56,0 -1.43,0.18 -1.99,1.52 -1.15,2.68 -1.43,-0.78 -0.68,-1.87 0.61,-0.9 3.25,0.36 3.65,-1.25 0.27,-1.04 0.95,-2.41 -0.21,-3.3 -1.18,-0.9 -3.54,-0.37 -4.61,0.68 -0.16,0.16 -4.06,8.08 0.12,8.08l-0.03 0.03z"/>
  <path class="fil2" d="M52.77 78.26c-0.49,-0.64 0.76,-6.18 1.49,-6.18 0.93,0 -0.45,3.7 -0.59,4.93 -0.05,0.46 -0.27,1.25 -0.89,1.25zm-0.71 0.33c3.03,-0.62 3.62,1.01 4.43,-2.88 0.15,-0.68 0.77,-2.67 0.77,-3.3 0,-2.51 -5.82,-2.99 -6.6,1.9 -0.46,2.92 -1.49,3.63 0.03,4.72 0.51,0.36 0.27,0.54 1.01,0.59 0.18,-0.3 0.15,-0.68 0.36,-1.04z"/>
  <path class="fil2" d="M45.64 54.02l0 0.33 2.29 0 0.74 -1.99 0.59 0c0.95,3.56 -4.46,1.44 -4.46,5.97 3.77,0 1.69,0.12 2.85,-1.93 0.06,-0.12 0.42,-0.45 0.54,-0.51 1.01,-0.42 0,1.99 -0.12,2.44 -0.3,0.12 -0.45,0.09 -0.71,0.21 -0.07,0.65 -0.79,1.26 2.2,1.16 1.18,-0.04 1.14,-0.57 1.81,-4.07 0.48,-2.53 1.76,-5.56 -2.76,-4.69 -2.16,0.41 -2.51,1.8 -2.91,3.12l-0.06 -0.03z"/>
  <path class="fil2" d="M15.04 69.76c0,-0.79 0.87,-6.34 1.75,-5.91 0.57,0.27 -0.51,4.09 -0.71,4.9 -0.18,1.1 -0.68,1.13 -0.03,1.13 2.97,0 2.18,0.11 3.18,-3.33 1.57,-5.42 -2.66,-4.52 -4.1,-3.74 -1.74,0.94 -2.14,3.6 -2.5,5.7 -0.09,0.54 -0.8,2.73 1.1,2.73 0.15,-1.4 0.27,-1.01 1.34,-1.46l-0.03 -0.03z"/>
  <path class="fil2" d="M82.66 84.74c0,-1.01 0.36,-1.9 0.36,-2.94 0,-3.53 1.1,-3.38 0.95,-0.95l-0.48 3.98c-0.12,0.18 -0.86,0.65 -0.86,-0.12l0.03 0.03zm-1.57 1.99c2.58,0 4.21,0.37 4.55,-1.9 1,-6.79 0.51,-5.32 -0.62,-6.21 -0.63,-0.49 -0.23,-1.5 -3.71,-0.77l-0.71 7.04 0.48 1.9 0.03 -0.06z"/>
  <path class="fil2" d="M48.91 66.91c0,1.67 -1.34,1.51 -1.34,1.04 0,-1.34 1.01,-1.25 -1.57,-1.25 -0.59,0 -1.26,2.21 -0.03,2.76 2.77,1.26 5.47,-0.64 5.47,-3.39 0,-1.46 -2.53,-1.66 -2.73,-2.64 -0.06,-0.3 -0.03,-1.22 0.68,-1.22 0.92,0 -0.06,1.25 0.59,1.25 3.95,0 1.79,-2.82 0.59,-2.82 -5.16,0 -4.94,3.99 -3.51,4.93l1.81 1.37 0.03 -0.03z"/>
  <path class="fil2" d="M60.26 87.89c0.21,0 0.51,-0.09 0.62,-0.21l1.81 -9c-2.49,0 -2.16,0.29 -2.35,1.87 -0.15,1.16 -0.56,1.9 -0.56,3.27l-0.24 0 -0.12 -1.78c0,-1.76 0.68,-4.33 -2.29,-2.73l0.18 6.66 0.18 1.93 2.76 0z"/>
  <path class="fil2" d="M47.93 82.66c0,-0.83 -0.39,-1.37 0.24,-1.99 0.83,0.18 0.59,1.1 0.59,2.41 1.82,0.41 2.17,0.3 2.17,-2.7 0,-1.16 -2.61,-1.28 -3.54,-0.86 -1.66,0.74 -2.14,0.45 -2.14,2.85 0,0.54 0.24,0.65 0.24,1.16 0,1.86 -1.25,5.26 1.69,5.26 2.85,0 3.65,-2.47 3.27,-3.89 -0.65,0.06 -1.19,0.21 -1.93,0.21 0,0.68 -0.15,1.6 -0.59,2.2 -1.4,-0.27 0.08,-0.17 -0,-4.64z"/>
  <path class="fil2" d="M53.48 84.11c0,-0.77 0.42,-0.83 0.59,-1.46l0.24 2.32c-0.89,0.18 -0.86,0.24 -0.86,-0.83l0.03 -0.03zm-2.67 4.1c3.6,0.76 1.23,-1.55 3.12,-1.66 0.36,0.56 0.24,0.74 0.24,1.57 3.67,0.8 1.74,-1.7 1.81,-6.63 0.05,-3.57 0.03,-2.48 -3.27,-2.2l-1.93 8.88 0.03 0.03z"/>
  <path class="fil2" d="M65.1 84.44c-0.73,0 -0.45,-1.07 0,-2.73 0.53,0.32 0.64,2.73 0,2.73zm-1.69 3.36c1.34,0 0.54,-1.78 1.46,-1.78 1.4,0 -0.24,1.55 1.07,1.57 0.3,0 1.37,-0.03 1.55,-0.27 0.15,-0.21 -0.21,-6.57 -0.3,-7.49 -0.06,-0.54 0.21,-1.25 -0.36,-1.25 -1.1,0 -1.87,-0.09 -2.79,0.12l-1.93 9.12 1.34 0 -0.03 -0.03z"/>
  <path class="fil2" d="M64.15 70.39c3.05,-0.65 1.47,0.42 2.26,-1.52 0.44,-1.07 -0.45,-0.67 -3.83,-0.47 -0.51,0.03 -0.39,0.12 -0.86,0.21l-1.81 8.29c-0.09,0.57 -1.13,1.51 2.44,1.07 0.74,-0.09 1.25,-0.15 2.02,-0.15 0.27,-0.48 0.27,-0.51 0,-0.95l-1.34 0.12c-0.83,0 -0.03,-2.02 0.36,-2.53l1.34 0c1.83,-2.44 -0.64,-2.01 -1.1,-2.11l0.48 -1.99 0.06 0.03z"/>
  <path class="fil2" d="M74.55 84.44c0,-0.8 0.24,-1.96 0.33,-2.64 0.21,-1.37 -0.06,-2.38 0.62,-2.38 1.64,0 -2.23,8.12 1.75,4.58 0.74,-0.66 2.18,-8.11 -3,-5.76 -1.86,0.84 -1.54,4.64 -1.69,5.56 -0.66,3.95 2.24,4.46 2.56,2.11 -0.65,-0.36 -0.59,0.24 -0.59,-1.46l0.03 -0z"/>
  <path class="fil2" d="M71.99 72.58c0,-0.03 1.25,-2.35 -0.89,-2.7 -4.69,-0.78 -5.77,3.66 -3.89,4.69 3.45,1.9 1.17,2.85 1.16,2.85 -1.46,0 0.71,-1.83 -1.34,-1.57 -0.36,0.03 -0.71,0.03 -1.07,0.03 -2.11,2.47 2.01,1.73 3.39,1.66 2.17,-0.09 1.69,-0.36 2.11,-1.22 0.65,-1.49 0.03,-2.11 -1.22,-2.67 -2.08,-0.95 -1.19,-1.72 -1.01,-2.38 2.01,0 -0.17,1.29 1.22,1.4 0.39,0.03 0.95,-0.12 1.57,-0.12l-0.03 0.03z"/>
  <path class="fil2" d="M82.54 72.38c0,-1.99 1.1,-2.06 1.1,-1.46 0,1.87 -0.26,1.46 -1.1,1.46zm-0.77 4.58c-0.21,-0.54 -0.24,-0.39 -0.12,-1.04 0.39,-1.84 -0.03,-2.14 1.84,-2.17 1.84,-0.03 1.25,0.09 1.84,-1.04 0.36,-0.71 1.46,-1.87 0.42,-2.91 -1.41,-1.41 -5.66,-0.63 -5.97,3l-0.71 3.06c0,2.29 0.36,1.31 0.71,2.2l0.48 0c0.36,-1.28 -0.12,-0.89 1.55,-1.07l-0.03 -0.03z"/>
  <path class="fil2" d="M75.5 72.17c0,-0.45 0.24,-1.25 0.71,-1.25 0.83,0 0.39,0.51 0.36,1.37 0.86,0.18 1.16,0 2.17,0 0.09,-0.92 0.89,-1.4 -0.21,-2.32 -0.36,-0.3 -5.44,-1.82 -5.44,3.51 0,0.68 2.17,1.69 2.5,2.02 0.59,0.62 -0.27,1.1 -0.03,1.49l1.87 0.48c2.96,-3.82 -1.95,-4.16 -1.93,-5.29z"/>
  <path class="fil2" d="M55.56 68.19c-1.33,-0.6 -0.51,-1.73 0.09,-4.46 0.61,-2.75 0.73,-1.26 1.19,-1.99 0.09,-0.15 0.27,-0.68 -0.09,-1.07 -1.15,-1.22 1.34,-1.26 -1.9,-1.19 -1.43,0.06 -0.54,0.15 -0.95,0.95 -0.27,0.54 -0.59,0.33 -0.86,1.07 -0.33,0.92 0.36,0.56 0.3,1.19 -0.27,2.91 -2.55,6.68 -0.18,6.68 0.97,0 2.38,0.34 2.41,-1.19z"/>
  <path class="fil2" d="M26.5 54.76c0,0.74 0.12,0.54 0.12,1.04 0,0.51 -0.3,0.48 -0.36,1.04l-0.36 3.86c0.1,0.05 1.94,1.73 2.88,-0.86l1.63 -7.55c0.15,-0.59 -0.15,-0.45 -1.87,-0.45 -1.22,0 -0.65,1.6 -1.43,2.23l-0.62 0.68z"/>
  <path class="fil2" d="M86.64 16.28c-0.59,1.01 -0.36,1.13 -0.36,3.03 0,0.62 0.24,0.12 1.69,0.12 1.01,0 -0.3,0.3 2.26,0.39l1.99 0.74c0.86,-0.39 0.18,-0.27 0.12,-2.41 -0.06,-1.34 -0.06,-1.84 -0.36,-2.94l-5.32 1.04 -0.03 0.03z"/>
  <path class="fil2" d="M40.8 80.01l1.81 -7.25c0.15,-0.24 0.48,-0.39 0.48,-0.74 0,-1.19 -1.4,-0.65 -2.91,-0.62l-1.81 7.96c-0.12,0.71 -0.45,1.22 2.44,0.62l-0 0.03z"/>
  <path class="fil2" d="M75.38 51.61l-1.07 5.23c2.38,0 2.57,0.93 3.27,-3.65 0.56,-3.67 1.31,-0.99 1.54,-3.36 -1.43,-0.3 -0.36,-0.56 -0.59,-1.46 -4.01,0 -1.63,0.62 -3,1.49 -1.07,0.68 -0.15,1.43 -0.15,1.75l0 0z"/>
  <path class="fil2" d="M73.09 50.45c-0.15,-0.24 -0.21,-0.27 -0.24,-0.62 -2.73,0 -2.42,-0.92 -3.65,5.62 -0.21,1.1 -0.33,0.21 -0.33,1.72l2.29 0 1.07 -3.68c0.83,-1.31 1.84,-0.42 1.96,-1.66 0.06,-0.8 1.07,-3.03 -0.48,-1.78l-0.62 0.42z"/>
  <path class="fil2" d="M68.49 87.47c2.36,0 3.04,0.06 3.15,-0.71 0.34,-2.38 -1.53,-0.11 -1.16,-2.05 0.24,-1.22 0.27,-1.84 0.3,-3.21 0.06,-1.84 0.86,-3.24 0,-3.24 -1.81,0 -1.87,-0.06 -1.93,1.9 -0.02,0.96 -0.93,7.31 -0.36,7.31z"/>
  <path class="fil2" d="M89.05 81.38l0.59 -3.03 -2.41 1.04 -0.62 6.39c-0.06,0.54 -0.24,0.62 0.62,0.65 0.98,0 2.23,0.06 3.03,-0.12 0.12,-0.24 0.54,-1.37 0.06,-1.63 -0.77,-0.39 -1.43,0.59 -1.4,-0.77 0.03,-2.71 1.93,-0.55 1.69,-2.08 -0.06,-0.39 -0.24,-0.45 -1.57,-0.45l-0 -0z"/>
  <path class="fil2" d="M41.51 68.6c3.74,0.72 2.57,-1.05 4.07,-6.54 0.18,-0.68 0.27,-0.15 0.18,-0.98 -0.95,-0.06 -1.72,0.03 -2.67,0.21l-1.57 7.34 0 -0.03z"/>
  <path class="fil2" d="M62.57 24.04c0.65,0.12 0.92,0 1.81,0l0.95 -5.76c0,-1.01 0.12,-1.13 -0.8,-0.92 -1.79,0.42 -1.24,2.08 -1.69,4.55l-0.33 2.14 0.06 0z"/>
  <path class="fil2" d="M67.15 41.33l4.25 -0.21c1.13,0.65 1.57,0.06 1.57,-0.42l-0.86 -1.78c-2.17,0 -1.1,0.77 -2.41,0l-2.64 0.42 0.12 1.99 -0.03 0z"/>
  <path class="fil2" d="M44.18 36.72c1.16,0.04 3.27,1.83 3.27,-1.99l-3.89 -0.83c0,0.65 -0.24,1.63 -0.24,2.32l0.86 0.53 -0 -0.03z"/>
  <path class="fil2" d="M52.03 38.62c0,1.06 -0.07,2.44 1.31,2.29 0.44,-6.4 0.5,-3.63 1.69,-5.14l-1.93 0.09c-1,0 -0.39,-1.06 -0.86,1.78 -0.09,0.39 -0.24,0.51 -0.24,0.95l0.03 0.03z"/>
  <path class="fil2" d="M74.55 77.31c0,-0.71 0.12,-1.31 0,-1.78 -0.71,0 -1.1,0.12 -1.93,0.12 -0.48,0.63 -1.07,3.43 1.04,2.05 0.42,-0.27 0.33,-0.27 0.89,-0.39l0 0z"/>
  <path class="fil2" d="M91.96 37.26c0,0.3 0.06,0.3 0.12,0.54 2.76,-0.65 2.79,-0.96 2.79,-2.53 0,-0.78 -1.84,0.05 -2.2,0.89 -0.24,0.54 -0.68,0.86 -0.68,1.07l-0.03 0.03z"/>
  <path class="fil2" d="M94.87 21.01c1.42,0.6 0.82,-0.62 0.39,-4.1 -0.09,-0.77 0.3,-1.28 -0.62,-1.34l0.15 2.59c0.27,0.77 0.09,1.96 0.09,2.85l0 -0z"/>
  <path class="fil2" d="M82.93 76.92c1.84,-0.12 1.19,-0.09 1.4,-1.4 0.09,-0.51 0.21,-0.54 0.24,-0.95 -0.8,-0.27 -0.51,-0.03 -1.46,0l-0.71 2.29 0.54 0.03 -0 0.03z"/>
  <path class="fil2" d="M81.08 47.63c1.08,-0.07 6.47,-0.7 6.92,-1.75l-6.24 1.28c-0.54,0.15 -0.59,-0.09 -0.65,0.48l-0.03 -0z"/>
  <path class="fil2" d="M43.68 59.16c-0.3,0.51 -0.24,0.68 -0.24,1.25 1.9,0 2.79,0.39 2.79,-1.25l-2.56 0z"/>
  <path class="fil2" d="M40.62 69.73c0,0.3 -1.06,1.46 2.5,0.71 0.09,-0.36 0.24,-0.62 0.24,-1.04 -0.68,-0.33 -1.75,-0.09 -2.67,0.12l-0.06 0.21z"/>
  <path class="fil2" d="M28.2 50.66c0,0.98 0.42,0.59 1.57,0.54 0.3,0 0.95,0.18 1.13,-0.8 0.12,-0.67 -2.73,-0.66 -2.73,0.27l0.03 -0z"/>
  <path class="fil2" d="M69.23 17.23c1.54,0 2.66,-1.34 2.76,-1.66 -1.13,-0.47 -2.71,1.23 -2.76,1.66l0 -0z"/>
  <path class="fil2" d="M49.74 32c-1.1,-1.47 -0.71,1.15 -0.71,1.16 0.54,-0.35 -0.07,-0.99 0.74,-1.13l-0.03 -0.03z"/>
  <path class="fil2" d="M53.6 32.12c0,1.04 -0.12,0.92 0.24,1.16 0.12,-0.45 0.36,-0.92 0.36,-1.37 -0.21,0.09 -0.39,0.12 -0.59,0.21z"/>
  <path class="fil2" d="M49.74 32c0.03,0.3 0.06,0.3 0.12,0.54 0.98,-0.06 0.68,-0.68 0.59,-0.95l-0.24 0c-0.12,0.36 -0.06,0.33 -0.48,0.42l0 0z"/>
  <path class="fil2" d="M52.17 32.86c0.04,-0.06 0.47,-1.04 -0.24,-1.28 0,0.68 -0.42,1.09 0.24,1.25l0 0.03z"/>
  <path class="fil2" d="M86.16 20.59c0,0.69 1.13,-0.05 1.31,-0.3 -0.45,0 -1.34,-0.03 -1.34,0.33l0.03 -0.03z"/>
  <path class="fil2" d="M58.33 46.38l0.59 0 0 -0.54c-0.97,-0.18 -0.59,-0.19 -0.59,0.54z"/>
  <path class="fil2" d="M58.56 40.62c0.56,0 0.71,-0.12 0.86,-0.54l-0.71 0c0,0.36 0.03,0.27 -0.12,0.54l-0.03 0z"/>
  <path class="fil2" d="M58.68 41.66c0.86,0.06 0.68,0.24 0.59,-0.54 -0.51,0.09 -0.56,0.06 -0.59,0.54z"/>
  <path class="fil2" d="M58.44 44.8l0.45 0.45c0.15,-0.24 0.21,-0.27 0.27,-0.54 -0.33,0 -0.48,0.03 -0.71,0.12l0 -0.03z"/>
  <path class="fil0" d="M57.73 13.25l0 0.42c0.51,0 0.39,0.03 0.71,-0.12 -0.21,-0.24 -0.24,-0.27 -0.71,-0.33l0 0.03z"/>
 </g>
</svg>
