<?xml version="1.0" encoding="UTF-8"?>
<!DOCTYPE svg PUBLIC "-//W3C//DTD SVG 1.1//EN" "http://www.w3.org/Graphics/SVG/1.1/DTD/svg11.dtd">
<!-- Creator: CorelDRAW -->
<svg xmlns="http://www.w3.org/2000/svg" xml:space="preserve" width="25.4mm" height="19.05mm" version="1.1" style="shape-rendering:geometricPrecision; text-rendering:geometricPrecision; image-rendering:optimizeQuality; fill-rule:evenodd; clip-rule:evenodd"
viewBox="0 0 45.74 34.31"
 xmlns:xlink="http://www.w3.org/1999/xlink"
 xmlns:xodm="http://www.corel.com/coreldraw/odm/2003">
 <defs>
  <style type="text/css">
   <![CDATA[
    .fil7 {fill:#070B10}
    .fil9 {fill:#070B13}
    .fil6 {fill:#080A0D}
    .fil0 {fill:#080B0E}
    .fil10 {fill:#090B15}
    .fil12 {fill:#0A0A0D}
    .fil14 {fill:#0D0B0C}
    .fil20 {fill:#150609}
    .fil2 {fill:#16188B}
    .fil3 {fill:#16188E}
    .fil15 {fill:#16197C}
    .fil4 {fill:#EE0D11}
    .fil8 {fill:#EF0D11}
    .fil18 {fill:#F9D423}
    .fil19 {fill:#FAD31B}
    .fil16 {fill:#FAD516}
    .fil17 {fill:#FBD413}
    .fil5 {fill:#FDFDFE}
    .fil13 {fill:#FED20D}
    .fil1 {fill:#FED408}
    .fil11 {fill:#FED50D}
   ]]>
  </style>
 </defs>
 <g id="Camada_x0020_1">
  <metadata id="CorelCorpID_0Corel-Layer"/>
  <g id="_2482724653712">
   <path class="fil0" d="M20.39 32.06c-0.04,-0.14 -0.05,-0.13 -0.05,-0.31 0.56,-0.13 0.39,-0.44 1.44,-0.45l-1.38 0.76zm2.71 -0.98c-0.36,0 -0.48,-0.04 -0.8,-0.05 -0.37,-0.01 -0.51,0.05 -0.85,0.05 0.04,-0.12 0.23,-0.3 0.32,-0.44 0.36,0.19 0.45,0.16 0.82,-0.03 0.4,-0.21 0.38,-0.13 0.72,0.07 -0.04,0.15 -0.13,0.28 -0.21,0.4zm18.05 -0.44c0.06,-0.2 0.04,-0.18 0.32,-0.18l-0.32 0.18zm-4.42 1.11c-0.22,-0.09 -0.58,-0.17 -0.85,-0.22l1.53 -0.9c0.28,-0.23 0.19,-0.17 0.71,-0.17 -0.14,0.16 -0.61,0.34 -0.81,0.52 -0.13,0.12 -0.52,0.62 -0.57,0.77zm-6.28 1.47c0.06,-0.18 0.18,-0.15 0.46,-0.33 0.14,-0.09 0.35,-0.27 0.46,-0.38l0.58 -0.63c0.06,-0.04 0.21,-0.11 0.3,-0.15 0.33,-0.17 1.05,-0.82 1.39,-1.11 0.26,-0.22 0.22,-0.17 0.7,-0.16 -0.23,0.3 -0.39,0.63 -0.62,0.95 -0.53,0.77 -1.45,1.11 -1.63,1.27 -0.14,0.12 -0.06,0.11 -0.22,0.22 -0.28,0.17 -0.96,0.33 -1.41,0.33zm-18.64 -2.58l0 -0.18 0.27 0c-0.08,0.09 -0.15,0.12 -0.27,0.18zm16.56 0.13c0.06,-0.1 0.1,-0.21 0.16,-0.31 0.25,-0 0.28,-0.03 0.48,-0.04 -0.09,0.1 -0.47,0.32 -0.63,0.35zm-13.74 -0.09l-0.05 -0.22 0.47 -0.27 0.15 0.14c-0.18,0.13 -0.36,0.23 -0.57,0.35zm28.98 -0.36c0.42,0.68 -0.33,0.72 -0.33,1.47 0,0.62 0.92,-0.2 0.99,-0.25 0.06,0.39 -0.58,0.93 -0.9,1.18 -0.17,0.13 -0.25,0.2 -0.57,0.18 -0.32,-0.41 -0.03,-0.75 -0.03,-1.13 -0.27,0.27 -0.71,0.97 -1.15,1 -0.38,-0.21 -0.31,-0.5 -0.52,-0.83 -0.57,0.47 -0.75,0.88 -1.29,0.87 -0.42,-0.42 -0.08,-0.69 -0.01,-1.19 -0.17,0.24 -0.78,1.12 -1.11,1.06 -0.54,-0.27 -0.56,-1.08 -0.28,-1.62 0.12,-0.23 0.35,-0.48 0.51,-0.69 0.18,-0.24 0.35,-0.52 0.84,-0.32 0.29,0.23 -0.85,1.21 -0.89,1.26 -0.12,0.14 -0.15,0.4 -0.06,0.56 0.26,-0.06 0.46,-0.35 0.65,-0.52 0.6,-0.54 0.56,-0.66 1.1,-1.27 0.26,-0.3 0.59,-0.6 0.59,0.01 0,0.45 -1.05,1.41 -0.8,1.87 0.28,0.07 0.72,-0.29 0.8,-0.49 0.17,-0.41 0.27,-0.52 0.57,-0.81 0.33,-0.31 1.17,-1.01 1.92,-0.96 0.35,0.46 0.08,0.49 -0.03,0.62zm-12.78 1.69c0.49,0.03 0.64,-0.31 0.93,-0.47 0.04,0.28 -0.02,0.28 -0.17,0.45 -0.34,0.39 -0.76,0.93 -1.3,0.91 -0.36,-0.36 -0,-0.77 -0.03,-1.14 -0.56,0.41 -1,1.65 -1.5,0.59 -0.45,-0.97 0.18,-1.46 0.71,-1.91 1.33,-1.12 1.98,-0.72 1.79,-0.33 -0.13,0.27 -0.21,-0 -0.08,0.43 0.15,0.49 -0.73,0.9 -0.36,1.46zm-11.14 -1.64c0.09,-0.14 0.18,-0.26 0.26,-0.4l0.42 0c-0.09,0.1 -0.19,0.14 -0.33,0.22 -0.13,0.07 -0.21,0.15 -0.36,0.18zm0.64 -0.62l-0.27 -0c0.1,-0.16 0.07,-0.16 0.23,-0.3l0.06 -0.04c0.18,-0.15 0.24,-0.26 0.3,-0.46 0.09,-0.29 -0.08,-0.4 0.69,-0.4l0 1.11c-0.17,0.01 -0.31,0.06 -0.44,0.08 -0.19,0.02 -0.38,0.01 -0.57,0.01zm22.2 -6.78l1.28 0 0 4.86 1.65 0 0 1.7 -0.59 -0 -0.75 0 -0.8 0 -0.8 0 0 -6.56zm-31.58 0l1.28 0 0 6.56 -1.28 0 -0 -6.56zm14.22 6.56l-0.53 -0.04c0.27,-0.15 0.82,-0.17 0.37,-0.49 0.21,-0.01 0.31,-0.09 0.53,-0.13 -0.06,0.21 -0.29,0.38 -0.37,0.67zm-5.52 -0.1l0.33 0.08 -0.51 0.86 -0.52 0.01c-0.23,0.48 -0.76,1.25 -0.49,1.77 0.3,-0.01 0.69,-0.31 0.85,-0.48 0.26,-0.28 0.26,-0.52 0.49,-0.83 0.16,-0.21 0.46,-0.55 0.67,-0.69 1.25,-0.86 1.56,0.19 0.79,0.84 -0.08,0.07 -0.17,0.1 -0.26,0.18 -0.36,0.28 -0.46,0.29 -0.88,0.51 -0.03,0.45 0.23,0.71 0.73,0.48 0.32,-0.15 0.56,-0.41 0.84,-0.61 0.03,0.26 0.02,0.25 -0.12,0.4 -0.31,0.36 -1.14,1.4 -1.83,0.77 -0.24,-0.22 -0.25,-0.45 -0.29,-0.82 -0.23,0.2 -0.41,0.43 -0.64,0.64 -0.12,0.11 -0.22,0.19 -0.36,0.28 -0.2,0.12 -0.25,0.14 -0.59,0.13 -0.49,-0.59 -0.03,-0.8 -0.07,-1.27 -0.3,0.17 -1.03,1.23 -1.46,1.17 -0.73,-0.11 0.16,-1.46 0.24,-1.75 -0.8,0.64 -1.04,1.41 -1.42,1.58 -0.34,-0.23 -0.2,-0.42 -0.36,-0.73 -0.31,0.3 -0.75,0.98 -1.34,0.96 -0.34,-0.35 -0.07,-0.72 -0.03,-1.13 -0.27,0.25 -0.83,1.01 -1.09,1 -0.32,-0.07 -0.5,-0.53 -0.55,-0.87 -0.21,0.18 -1.02,1.1 -1.4,0.9 -0.51,-0.26 0.2,-1.15 0.34,-1.62 -0.93,0.7 -1.17,1.7 -1.74,1.5 -0.26,-0.55 0.52,-1.23 0.46,-1.63 -0.37,0.16 -0.84,0.89 -1.07,1.21 -0.08,0.12 -0.4,0.77 -0.66,0.14 -0.18,-0.46 -0.16,-0.82 0.06,-1.22 0.14,-0.25 0.66,-1.31 1.09,-0.9 0.01,0.01 0.17,0.01 -0.04,0.35 -0.21,0.33 -0.79,0.75 -0.59,1.01 0.48,-0.21 0.95,-1.32 1.86,-1.63 0.36,0.19 0.35,0.34 0.05,0.84 -0.13,0.22 -0.41,0.62 -0.47,0.83 0.15,-0.11 0.3,-0.25 0.42,-0.38 0.15,-0.16 0.25,-0.25 0.41,-0.41 0.57,-0.58 0.83,-0.99 1.04,-0.59 0.36,0.71 -0.83,0.88 -0.54,1.7 0.34,0.01 0.34,-0.1 0.53,-0.25 0.61,-0.49 -0.25,-0.17 1.12,-1.34 0.22,-0.19 1.3,-1.01 1.68,-0.63 0.22,0.21 0.09,0.34 -0.09,0.48 0.1,0.5 0.23,0.37 -0.1,0.86 -0.19,0.29 -0.42,0.52 -0.17,0.87 0.32,0.01 0.57,-0.17 0.73,-0.31 0.16,-0.15 0.09,-0.15 0.17,-0.35 0.05,-0.11 0.11,-0.23 0.18,-0.34 0.11,-0.17 0.29,-0.45 0.42,-0.58 0.24,-0.24 0.42,-0.32 0.67,-0.05 -0.1,0.4 -0.76,0.84 -0.79,1.33 0.23,-0.05 0.33,-0.28 0.46,-0.45l0.9 -0.94c0.23,-0.18 0.4,-0.33 0.64,-0.34 0.33,0.49 0.11,0.65 -0.16,1.01 -0.2,0.27 -0.51,0.61 -0.45,1.03 0.37,0.01 0.81,-0.47 1.01,-0.7 0.14,-0.16 0.63,-0.79 0.67,-0.98l-0.61 0.02c-0.03,-0.28 0.22,-0.6 0.4,-0.76 0.4,-0.34 0.69,-0.01 0.92,-0.34 0.14,-0.2 0.29,-0.59 0.69,-0.54 0.32,0.05 0.01,0.4 -0.19,0.7zm4.58 -0.18c0.26,-0.04 0.43,-0.08 0.76,-0.06 -0.39,0.09 -0.89,0.47 -1.31,0.47 -0.27,-0.41 -0.08,-1.08 0.48,-1.42 1.53,-0.95 4.07,-1.25 4.36,0.86 0.26,1.87 -1.71,3.63 -3.73,3.86 -0.51,0.06 -0.79,0.08 -0.79,-0.35 0,-0.79 0.4,-1.42 0.78,-2.11 0.35,-0.63 0.75,-1.26 1.12,-1.85 -0.37,-0.01 -1.6,0.4 -1.67,0.6zm-21 -0.48c0,0.01 -0.07,0.31 -0.08,0.38 -0.03,0.15 -0.06,0.26 -0.08,0.38l-1.38 0c0.01,-0.22 0.11,-0.6 0.15,-0.81 0.14,-0.68 1.13,-5.43 1.13,-5.75l1.6 0 1.21 6c0.05,0.29 -0.34,0.55 -0.52,0.56 -1.07,0.04 -0.7,0.03 -0.96,-0.89l-1.06 0 0 0.13zm16.72 0.58c0.06,-0.23 0.38,-0.45 0.2,-0.65 -0.21,-0.23 -0.73,-0.19 -1.05,0.3 -0.11,0.17 -0.06,0.21 -0.27,0.26 -0.15,0.03 -0.35,0.03 -0.49,0.08 -0.15,0.05 -0.19,0.33 -1.2,0.14 -0.51,-0.1 -0.71,-0.7 -0.71,-1.15l-0 -4.15c0,-0.34 0.11,-0.68 0.27,-0.89 0.35,-0.43 1.43,-0.32 2.02,-0.32 1.58,-0 1.81,0.08 1.81,2.1 -0,0.69 0.04,2.72 -0.02,3.06 -0.08,0.46 -0.03,1.19 -0.56,1.22zm12.25 -0.58l0 1.69 1.17 0c-0.16,0.2 -0.41,0.42 -0.62,0.59 -0.2,0.16 -0.52,0.41 -0.81,0.43 -0.04,-0.09 -0.03,-0.13 -0.2,-0.12 -0.16,0.01 -0.38,0.21 -0.52,0.28 -0.2,0.1 -0,0.04 -0.29,0.02 0.14,-0.5 0.72,-0.75 0.37,-1.34 0.15,-0.05 0.21,-0.12 0.21,-0.27 0,-0.08 -0.1,-0.26 -0.15,-0.32 -0.09,-0.11 -0.15,-0.16 -0.33,-0.17 0.04,-0.12 0.1,-0.13 0.21,-0.23 0.26,-0.26 0.29,-0.68 0.33,-1.02 0.03,-0.29 0.59,-0.79 0.69,-1.16 0.01,0.01 0.01,0.01 0.02,0.03 0.04,0.27 0.49,0.85 1.21,0.86l-1.28 0.71zm-24.9 1.37c0.21,0.02 0.41,0.03 0.56,0.1 -0.01,0.18 -0.4,0.66 -0.52,0.84 -0.55,0.01 -0.55,0.03 -0.71,0.39 -0.04,0.1 -0.4,0.74 -0.14,0.74 0.22,0 0.39,-0.2 0.67,-0.31 0.02,0.22 -0.07,0.26 -0.21,0.38 -0.13,0.11 -0.22,0.18 -0.35,0.29 -0.16,0.13 -0.51,0.52 -0.85,0.33 -0.56,-0.31 0.2,-1.32 0.29,-1.71l-1.43 -0.01 -1.54 1.66c-0.86,0.91 -0.97,-0 0,-0.8 0.33,-0.27 0.29,-0 0.61,-0.38 0.14,-0.16 0.29,-0.37 0.42,-0.5 -0.45,-0.06 -0.87,-0.03 -0.52,-0.52 0.25,-0.35 0.66,-0.73 1.21,-0.59 -0.27,0.12 -0.31,0.01 -0.49,0.23l0.62 0.02c0.22,-0.28 0.48,-0.51 0.73,-0.77 0.49,-0.51 1.92,-1.78 2.56,-2.02 0.33,0.39 -0.09,1.04 -0.28,1.38 -0.25,0.43 -0.42,0.84 -0.64,1.27zm30.47 -1.89c-0.64,0.46 -1.64,2.09 -2.13,2.87 -0.11,0.17 -0.19,0.27 -0.29,0.46 0,0 2.3,0.53 2.53,0.67 -0.08,0.2 -0.5,0.64 -0.68,0.8 -0.38,0.14 -2.1,-0.67 -2.94,-0.45 -0.37,0.1 -0.68,0.37 -0.85,0.23 -0.18,-0.15 0.29,-0.97 0.69,-1.12 0.89,-0.32 0.42,0.55 1.7,-1.61 0.16,-0.28 0.33,-0.49 0.52,-0.77 0.16,-0.25 0.37,-0.52 0.55,-0.75 0.34,-0.44 0.88,-1.17 1.49,-1.15 0.48,0.6 -0.51,1.77 -0.59,2.25 -0.05,0.28 0.28,-0.02 -0.29,0.62 -0.82,0.91 -0.65,-0.04 -0.4,-0.61 0.14,-0.31 0.71,-1.17 0.68,-1.45zm-10.53 -0.91l0 -3.34c-0,-0.4 0.32,-1.03 1.01,-1.03l1.92 -0c1.19,-0 1.17,0.99 1.17,1.96l-0.07 3.73c-0.04,0.16 -0.11,0.4 -0.19,0.51 -0.34,0.48 -1.49,0.36 -2.34,0.36 0,-0.8 -0.34,-1.69 -1.19,-1.99 -0.17,-0.06 -0.3,-0.05 -0.3,-0.19zm-21.25 1.56l0 -5.93c1.72,0 1.26,-0.19 1.56,0.79 0.11,0.36 0.68,2.4 0.68,2.64 0.17,-0.1 0.45,-1.42 0.5,-1.63 0.1,-0.37 0.46,-1.53 0.46,-1.8l1.39 0 0 6.56 -1.28 0 -0.05 -1.83c0,0.38 -0.37,1.41 -0.37,1.83l-1.07 0c0.04,-0.12 0.17,-0.38 0.25,-0.51 0.37,-0.65 0.7,-1.15 0.28,-1.68 -0.23,0 -0.27,0.02 -0.41,0.11l-0.61 0.37c-0,0 -0.02,0.01 -0.02,0.01 -0.04,0.03 -0.01,0.01 -0.06,0.06l-1.25 1.01zm32.06 -1.61c0,-0.89 0,-1.79 -0,-2.68 -0.01,-1.95 0.78,-1.65 2.88,-1.65 0.43,-0 0.73,0.07 0.93,0.29 0.15,0.18 0.3,0.58 0.3,0.87l0 4.24c0,0.36 -0.14,0.79 -0.43,0.97 -0.51,0.32 -2.77,0.2 -3.07,0.08 -0.22,-0.09 -0.41,-0.24 -0.35,-0.44 0.03,-0.1 0.09,-0.2 0.14,-0.29 0.12,-0.26 0.25,-0.69 0.25,-0.99 -0.01,-0.32 -0.31,-0.51 -0.64,-0.4zm-17.31 -1.07l0 -0.62 0.16 0 -0.07 0.48c-0,0.01 -0.02,0.05 -0.03,0.07 -0.03,0.06 -0.04,0.05 -0.06,0.08zm14.59 -0.85l1.28 0c1.24,0 1.17,1.29 1.17,1.96l-0.96 1.03c-0.08,0.1 -0.12,0.17 -0.2,0.28l-0.65 0.88 -2.08 -0 -0 -1.7 2.45 0c0.26,0 0.26,-0.49 0.11,-0.76 -0.91,-0 -2.56,0.31 -2.56,-1.25 0,-0.59 -0.11,-2.1 0.23,-2.53 0.16,-0.19 0.42,-0.33 0.78,-0.33l2.5 0 0 1.7 -2.24 0c0,0.14 -0,0.27 -0,0.41 -0,0.17 -0.04,0.31 0.16,0.31zm-11.08 2.45l0.27 0.04c-0.14,0.03 -0.39,0.16 -0.51,0.24 -0.57,0.36 -0.66,0.86 -0.61,1.41l-0.43 0 0 -6.56 2.61 0c1.2,0 1.28,0.67 1.28,1.65 -0,0.92 -0,1.84 -0,2.77 -0.27,-0.11 -0.98,0.03 -1.28,0.09l0 -1.56c0,-1.42 0.24,-1.25 -1.33,-1.25l0 3.17zm-10.6 -2.77l0 2.45c0,0.06 0.08,0.22 0.11,0.27 0.33,0.07 0.81,0.05 1.22,0.04l0 -0.76 -1.01 0 -0 -1.7 2.29 -0 0 4.15 -2.34 0c-1.39,-0 -1.54,-0.4 -1.54,-1.87 0,-0.77 -0.09,-3.53 0.16,-4.14 0.3,-0.72 1.44,-0.54 2.66,-0.54l1.07 -0 0 1.7 -2.34 0c-0.21,-0 -0.27,0.22 -0.27,0.4zm30.41 0.76l-0.01 -1.25c0,-0.27 -0.03,-0.2 0.12,-0.35 0.21,-0.22 0.66,-0.87 0.84,-0.98 0.02,0.77 -0.16,1.75 -0.68,2.37 -0.08,0.1 -0.12,0.18 -0.27,0.21zm-22.74 -1.87l-0 4.37 -0.58 -0 -0 -1.43c0,-0.33 0.48,-0.38 0.48,-1.07l-0 -0.04c-0,-0.36 -0.34,-0.39 -0.48,-0.49l-0 -1.25c0,-0.15 -0.04,-0.17 -0.05,-0.31l1 0c-0.12,0.08 -0.24,0.15 -0.37,0.22zm-0.77 -0.67c0.22,0.03 0.44,0.07 0.69,0.1 0.55,0.07 0.17,-0.03 0.64,0.14 -0.54,0.04 -0.36,0.1 -1.24,0.05l-0.09 -0.3zm6.41 0.22c-0.05,-0.19 -0.16,-0.24 -0.21,-0.4 0.19,-0.04 0.47,-0.09 0.69,-0.09 -0.09,0.12 -0.14,0.11 -0.23,0.25 -0.11,0.18 -0.03,0.19 -0.25,0.24zm3.99 -1.2c0.39,0.26 0.71,0.53 0.94,0.9 0.21,0.33 0.63,0.85 0.47,1.21 -0.23,0.5 -0.18,1.26 -0.19,1.81 -0,0.34 -0.09,0.42 -0.23,0.65 -0.1,0.16 -0.27,0.46 -0.41,0.55 -0.02,-0.86 0.13,-3.56 -0.2,-4.11 -0.24,-0.4 -0.63,-0.51 -1.13,-0.53l0.74 -0.48zm-16.03 0.39c-0.08,0.06 0.13,0.05 -0.15,0.05l-1.01 0c-0,-0.21 0.03,-0.18 0.05,-0.36l1.11 0.3zm21.47 -0.88c1.53,-0 1.79,-0.25 2.86,-0.73 0.38,-0.17 0.61,0.32 2.04,0.6l-0.25 0.95c-0.08,0.22 0.11,0.12 -1.13,0.12 -0.51,0 -1.18,-0.02 -1.6,0.27 -0.49,0.33 0.08,0.19 -0.69,0.63l0 -0.89c-0.84,0 -2.79,-0.1 -3.33,0.15 -0.47,0.22 -0.28,0.39 -0.61,0.6 -0.17,0.11 -0.74,0.42 -0.9,0.45 -0.04,-0.38 -0.64,-1.09 -0.95,-1.35 -0.4,-0.34 -0,-0.09 -0.67,-0.51 -0.16,-0.1 -0.63,-0.42 -0.78,-0.46l1.59 -1.48c0.42,-0.35 0.55,-0.68 1.23,-0.25 0.9,0.57 1.77,1.91 3.2,1.91zm-29.29 -0.76c0.67,-0 1.13,0.38 1.95,0.73 0.8,0.34 2.34,0.56 3.27,0.56 0.85,-0 1.17,-0.32 1.17,0.45 -0.59,0 -0.67,0.12 -1.01,0.31l-0 -0.36c-0.53,0 -1.36,-0.04 -1.86,0.01 -0.59,0.06 -0.8,0.03 -1.34,0.03 -0.28,0 -0.26,-0.04 -0.31,0.14 -0.73,-0.33 -1.38,-0.51 -2.01,-0.77 -0.31,-0.13 -0.77,-0.25 -0.75,-0.61 0.02,-0.32 0.45,-0.49 0.89,-0.5zm7.82 1.64c-0.22,-0.12 -0.95,-0.31 -1.48,-0.57 -0.73,-0.36 -0.66,-0.31 -1.31,-0.73 0.55,-0.29 2.92,-0.21 3.73,0.08 0.76,0.27 1.36,0.65 2.05,0.96 0.17,0.08 0.52,0.24 0.67,0.29 -0.39,0.03 -0.77,0.03 -1.15,0.06 -0.59,0.04 -0.54,0.09 -0.88,0.3l-0.04 -0.33c-0.54,-0.03 -1.12,0.04 -1.59,-0.06zm7.14 -2.09c0.42,0.01 1.24,0.49 1.9,0.73 0.95,0.34 2.15,0.39 3.21,0.39 0.6,0 2.66,-0.56 2.66,0.27 -0,0.7 -1.73,0.58 -2.34,0.58l-1.8 -0.19c-0.52,-0.07 -1.11,-0.21 -1.61,-0.35 -0.56,-0.16 -1.75,-0.42 -2.05,-0.83 -0.18,-0.25 -0.14,-0.41 0.02,-0.59zm-13.26 2.59c-0.14,0.15 -0.73,0.45 -0.96,0.58 -0.04,-0.05 0,0.03 -0.06,-0.09l-0.12 -0.39c-0.04,-0.15 -0.1,-0.34 -0.15,-0.5 -0.78,-0 -1.01,0.02 -1.8,-0.06l-0 0.41c-0.14,0.08 -0.26,0.15 -0.42,0.22 -0.4,-0.26 -0.49,-0.25 -0.54,-0.62 -0.18,-0 -0.2,0.02 -0.32,-0.04 -0.53,-0.29 -1.21,-1.94 -0.06,-3.13 0.65,-0.68 1.81,-0.62 2.78,-0.62 0.21,-0 0.62,0.05 0.8,0.09 0.27,0.48 0.21,0.76 0.65,1.19 0.93,0.92 1.89,0.73 3.54,1.41 0.14,0.06 0.6,0.3 0.44,0.43l-0.91 0.09c-1.98,-0.01 -3.45,-1.34 -4.74,-1.34 -0.75,0 -1.32,0.55 -0.91,1.12 0.15,0.2 0.74,0.48 1.01,0.58l1.75 0.67zm35.04 -2.19c-0,-0.22 0.05,-0.39 0.05,-0.67l0.01 -1.51c0.03,-0.2 0.11,-0.4 0.16,-0.63 0.13,-0.65 0.12,-2.16 0.63,-2.46 0.01,0.3 0,0.59 0,0.89 -0,0.32 0.05,0.5 0.05,0.85 -0,1.03 0.59,2.44 -0.44,3.29 -0.23,0.19 -0.18,0.12 -0.46,0.23zm-4.85 -0.26c-0.68,0.5 -1.55,0.62 -2.45,0.62 -0.78,0 -1.25,-0.33 -1.69,-0.64 -0.47,-0.33 -0.78,-0.68 -1.29,-1.01 -1.19,-0.77 -0.8,-0.2 -0.23,-1.97 0.07,-0.22 0.2,-0.63 0.42,-0.72 0.61,-0.24 1.35,0.43 1.57,0.67 1.09,1.24 0.04,2.21 2.16,2.39 0.88,0.07 0.64,-0.28 1.28,0.31 0.12,0.12 0.18,0.18 0.22,0.35zm2.08 -1.83c-0,-0.54 0.18,-1.28 0.48,-1.56 0.57,0.22 0.88,0.39 1.32,0.81 1.08,1.07 0.68,2.57 0.26,3.8 -0.07,0.2 -0.17,0.64 -0.24,0.77l-0.63 0c-0,0.2 0.03,0.3 -0.06,0.44 -0.32,-0.07 -0.34,-0.38 -0.95,-0.4 0.24,-0.44 0.5,-1.44 0.4,-1.99 -0.07,-0.42 -0.04,-1.17 -0.24,-1.54 -0.11,-0.2 -0.16,-0.17 -0.28,-0.3 -0.01,-0.01 -0.03,-0.04 -0.04,-0.06zm-12.52 1.87l0.38 0c0.07,0.25 0.37,0.91 -0.85,0.67 -0.06,-0.1 -0.02,-0.06 -0.05,-0.14l-0.06 -0.13c-0.01,0.5 -0.37,0.4 -1.12,0.4 -0.01,-0.21 -0.05,-0.23 -0.05,-0.71 0.3,-0 0.31,-0.05 0.58,-0.05 -0.14,-0.07 -0.86,-0.09 -1.06,-0.09l0.16 0.09c0.19,0.16 0.16,0.39 0.16,0.67 -0.23,0.13 -0.27,0.17 -0.67,0.12 -0.27,-0.04 -0.48,-0.04 -0.62,-0.19 -0.12,-0.13 -0.14,-0.43 -0.03,-0.58 0.12,-0.17 0.28,-0.14 0.68,-0.14l-0.9 -0.18c0.17,0.22 0.15,0.54 0.04,0.7 -0.17,0.24 -0.41,0.23 -0.76,0.13 -0.45,-0.14 -0.72,-0.28 -0.72,-0.69 -0,-0.57 0.28,-0.31 0.75,-0.31 -0.05,-0.03 0.03,0 -0.11,-0.05 -0.06,-0.02 -0.08,-0.03 -0.15,-0.05l-0.86 -0.31c0.09,0.11 0.22,0.28 0.25,0.41 0.04,0.16 0.01,0.33 -0.06,0.46l-0.04 0.06c-1.34,-0.27 -1.17,-1.07 -1.07,-1.16 0.31,-0.12 0.36,0.04 0.65,0.09 -0.17,-0.18 -0.76,-0.4 -0.48,-1.2 0.18,-0.52 0.34,-0.81 1.2,-0.7 0.95,0.12 2.01,0.13 2.05,0.83 0.02,0.33 -0.17,0.41 -0.51,0.46 0.42,0.12 0.46,0.24 0.76,0.45 -0.02,-0.1 -0.08,-0.42 -0.08,-0.53 -0.01,-0.11 0.01,-0.17 0.04,-0.26 0.18,-0.56 0.75,-0.09 1.08,-0 0.67,0.17 1.22,-0.02 1.66,0.84 0.14,0.28 0.26,0.54 0.24,0.91 -0.09,0.05 -0.08,0.05 -0.2,0.09l-0.22 0.08zm-0.74 -3.21c-0.16,-0.03 -1.12,-0.24 -1.12,-0.4 0,-0.18 0.12,-0.65 0.3,-0.78 0.2,-0.15 0.51,-0.1 0.72,-0.07 0.4,0.05 0.28,0.04 0.53,0.18 0,0.35 -0.23,0.77 -0.43,1.07zm-1.38 -0.4c-0.59,0 -1.1,-0.14 -1.49,-0.31 0.22,-0.81 0.39,-0.67 0.48,-0.94l1.39 0.49c-0.04,0.07 -0.2,0.76 -0.37,0.76zm-2.98 -0.31c0.3,-0.51 0.69,-1.23 1.54,-1.07 0.06,0.21 0.1,0.29 0.05,0.49 -0.21,0.87 -0.74,0.58 -1.6,0.58zm14.75 2.59l-0.8 0.05c-1.35,-0 -0.63,-1.6 -2.44,-2.55 -0.14,-0.07 -0.19,-0.09 -0.36,-0.14 -0.8,-0.26 -0.69,-0.02 -0.66,-0.78 0.05,-1.32 0.53,-0.78 2.11,-1 0.36,-0.05 0.6,-0.12 0.88,-0.2 1.7,-0.48 2.99,-1.48 3.67,-1.61 0.23,0.84 -0.61,1.71 -1.19,2.35 -0.18,0.2 -0.3,0.39 -0.45,0.6 -0.73,0.99 -0.76,2.16 -0.76,3.29zm-4.2 -4.68c-0.01,-0.38 -0.11,-0.88 -0.11,-1.25l0 -0.71c2.07,-0.01 2.84,-0.64 4.55,-1.5 1.15,-0.58 2.66,-0.73 3.77,0.02 0.67,0.46 0.9,1.25 0.9,2.06 -0,0.74 -0.51,1.53 -0.78,2.07 -0.41,0.84 -2.02,3.13 -1.47,3.96l0.42 0.54c0.1,0.26 0.07,1.08 0.07,1.37 -0.88,-0.16 -1.63,-0.31 -2.23,-1.02 -0.61,-0.72 -0.63,-1.71 -0.39,-2.56l0.55 -1.23c0.11,-0.19 0.21,-0.37 0.34,-0.56 0.25,-0.38 1.33,-2.02 1.69,-2.02 0.2,0 0.04,0.07 0.48,0.31 0.33,-0.51 0.17,-1.24 -0.33,-1.37 -0.26,-0.07 -1.04,-0.16 -1.24,-0.07 -0.13,0.06 -0.3,0.18 -0.44,0.26 -1.11,0.67 -1.76,1.2 -3.29,1.57l-1.21 0.23c-0.86,0.08 -0.63,0.05 -1.27,-0.08zm-33.01 -2.05c0.35,-0.08 0.7,-0.1 1.02,-0.21 0.14,-0.05 0.32,-0.11 0.44,-0.16 0.13,-0.06 0.22,-0.12 0.36,-0.19 0.5,-0.26 0.9,-0.63 1.3,-0.96l0.98 -0.78c0.11,-0.09 0.18,-0.16 0.29,-0.25 0.62,-0.46 0.88,-0.58 1.77,-0.57 -0.03,0.39 -0.19,0.77 -0.29,1.14l-0.23 1.15c0,0 0.11,0.04 -0.42,0.14 -0.15,0.03 -0.29,0.07 -0.4,0.11 -0.84,0.32 -1.13,0.7 -1.84,1 -1.02,0.43 -2.19,0.16 -3,-0.42zm38.65 -7.94c0,-0.53 -0.3,-1.02 -0.65,-1.38 -0.12,-0.12 -0.21,-0.24 -0.31,-0.36 0.47,0.11 1.25,0.85 1.48,1.16 0.84,1.14 0.98,2.71 -0.33,3.64 -1.22,0.87 -2.97,0.64 -4.3,-0.03 -0.64,-0.33 -1.14,-0.56 -1.48,-1.12 0.17,-0.08 0.15,-0.04 0.26,-0.18 -0.57,-0.24 -1.85,-0.52 -2.32,0.11 -0.18,0.24 -0.29,0.46 -0.55,0.6l-0.79 -0.85c-0.27,-0.28 -0.59,-0.5 -0.81,-0.84 0.19,-0.23 0.68,-0.43 1.05,-0.55 0.3,-0.1 1.2,-0.21 1.45,-0.21 1.36,-0 2.5,0.8 3.46,1.25 0.14,0.06 0.29,0.15 0.43,0.22 0.76,0.36 2.46,0.73 3.1,-0.12 0.31,-0.41 0.31,-0.87 0.31,-1.35zm-34.56 1.25c0.68,0 1.2,-0.33 1.53,-0.63 1.03,-0.93 1.3,-2.56 2.22,-3.85 1.53,-2.14 5,-1.4 4.98,1.19l-2.45 1.25c-0.01,-0.19 -0.05,-0.15 -0.05,-0.31 0,-0.12 0.04,-0.13 0.04,-0.32 -0,-0.58 -0.27,-0.66 -0.42,-0.85 -0.06,-0.07 -0.1,-0.14 -0.16,-0.22 0.22,-0.13 0.24,-0.09 0.32,-0.36 0.3,0.06 0.46,0 0.69,0.13 -0.02,-0.26 -0.25,-0.27 -0.58,-0.26 -1.03,-0 -1.62,1.22 -1.94,1.9 -0.15,0.32 -0.19,0.57 -0.3,0.91 -0.33,0.98 -1.22,2.41 -2.66,2.41 -1.4,-0 -2.49,-0.54 -3.84,-0.93 -0.23,-0.07 -0.39,-0.09 -0.63,-0.14 -0.21,-0.04 -0.38,-0.09 -0.58,-0.14 0.51,-0.35 1.38,-0.35 2.07,-0.35 1.58,0 1.44,0.03 1.76,0.58zm8.84 -0.43c0.89,-0.25 1.77,-0.57 2.56,-0.9 0.67,-0.28 1.03,-0.47 1.24,-1.07 0.02,-0.05 0.02,-0.07 0.04,-0.14 0.44,-1.47 1,-1.45 2.75,-1.23 0.73,0.09 2.47,0.47 3.05,0.44 -0.01,-0.01 -0.03,-0.01 -0.04,-0.02 -0.34,-0.14 -0.83,-0.13 -1.13,-0.26 0.14,-0.1 0.4,-0.23 0.57,-0.32 0.58,-0.31 1.32,-0.52 2.09,-0.53 1.08,-0 1.06,0.48 1.12,1.34 0.02,0.29 0.06,0.39 0.27,0.53 0.28,-0.27 0.15,-1.04 0.16,-1.51 0.4,0.15 0.78,0.04 1.16,0.63 0.18,0.28 0.28,0.95 0.28,1.37 0,1.95 0.46,2.06 0.48,2.81 -0.87,-0.05 -2.23,-1 -2.74,-1.63 -0.38,-0.48 -0.51,-0.78 -0.61,-1.45 -0.1,-0.61 -0.32,-1.01 -1.12,-1.02 -0.13,0.03 -0.09,-0.02 -0.06,0.06 0.97,0.15 0.79,0.73 0.97,1.49 0.21,0.86 1.03,1.49 1.73,2.03 0.5,0.38 2.35,1.03 2.78,1.09 -0.28,-0.45 -0.58,-0.7 -0.86,-1.18 -0.44,-0.78 -0.31,-0.96 -0.45,-1.51 0.41,0.07 0.9,0.57 1.17,0.78 0.99,0.81 2.09,1.92 2.74,2.92 0.48,0.74 0.9,1.57 1.18,2.49 0.2,0.65 0.65,2.28 0.52,3 -0.2,-0.34 -0.36,-0.94 -0.47,-1.35 -0.4,-1.42 -1.17,-2.27 -2.33,-3.4 -1.47,-1.44 -2.75,-1.24 -4.21,-1.82 -0.81,-0.33 -0.37,-0.94 -0.72,-1.15 -0.03,0.18 0.02,0.98 0.07,1.09 -0.68,0.36 -1.53,-0.23 -1.76,-0.59 -0.44,-0.72 -0.03,-1.53 -0.49,-1.83 -0.17,0.71 0.22,1.85 0.25,2.3 -0.23,0.12 -0.51,0.15 -0.86,0.14 -1.79,-0.06 -1.28,-2.98 -2.43,-3.57 -0.03,0.31 0.42,1.04 0.54,1.4 0.19,0.55 0.24,0.98 0.5,1.45 0.11,0.19 0.75,0.77 0.02,1.26 -0.27,0.18 -0.58,0.08 -0.97,0.12 -0.6,0.06 -0.39,0.07 -0.85,-0.13 -0.06,0.45 0.03,0.45 -0.2,0.82 -0.31,0.5 -1.03,1.35 -1.26,1.85 0.18,-0.09 0.68,-0.89 0.83,-1.1l0.19 -0.24c0.01,-0.01 0.01,-0.02 0.02,-0.03 0.65,-0.94 0.39,-0.72 1.75,-1.03 1.06,-0.25 0.8,-0.72 1.3,-0.67 0.13,0.01 0.37,0.11 0.56,0.12 0.78,0.07 0.58,-0.36 1.66,-0.01 0.85,0.27 2.89,-0.08 4.93,1.18 0.18,0.11 0.26,0.14 0.42,0.27 0.15,0.13 0.22,0.16 0.37,0.27 0.12,0.09 0.19,0.2 0.32,0.31 0.12,0.11 0.2,0.2 0.32,0.31 1.12,1.17 1.95,2.54 2.18,4.06 0.09,0.59 0.15,1.57 0.04,2.19 -0.16,0.94 -0.44,1.88 -0.98,2.66 -0.09,0.14 -0.15,0.27 -0.26,0.41 -0.52,0.7 -1.48,1.71 -2.21,2.21 -0.29,0.2 -0.69,0.2 -0.82,-0.23 -0.13,-0.45 -0.09,-1.7 0.01,-2.19 0.05,-0.24 0.23,-0.82 0.21,-0.96l-0.03 -0.31c-0.1,0.15 -0.26,0.4 -0.43,0.49 -0.28,-0.06 -0.63,-0.25 -0.8,-0.4l0.22 -0.88c0,-0.01 0.04,-0.12 0.05,-0.14 0.11,-0.17 0,-0.06 0.16,-0.14 0.05,-0.13 -0.12,0.04 0.11,-0.07l0.15 -0.07c-0.15,-0.17 -0.32,0.17 -0.24,-0.18 -0.13,-0.1 -0.51,-0.08 -0.67,-0.09 -0.96,-0.04 -1.21,-0.05 -2.14,-0.31 -0.68,-0.19 -1.28,-0.47 -1.82,-0.02 -0.13,0.11 -0.31,0.28 -0.55,0.14 -0.01,0.01 0.14,0.24 -0.19,0 -0.09,-0.07 -0.05,-0.04 -0.05,-0.16 0.05,0.18 0.09,0.13 0.11,0.38 0.04,0.53 -0.07,0.4 -0.17,0.38 -0.05,0.03 -0.01,-0.02 -0.09,0.08l-0.47 0.86c-0.54,1.11 -0.3,1.49 -0.46,2.47 -0.1,0.6 -1.91,1.79 2.98,2.46 0.28,0.04 1.11,0.11 1.23,0.35 -0.18,0.07 -0.61,-0.01 -0.81,-0.03l-2.81 -0.01c-0.01,0.4 0.11,0.47 -0.43,0.45 -0.55,-0.02 -1.86,-0.22 -2.33,-0.33 -1.05,-0.25 -1.76,-0.48 -2.58,-0.91 -0.17,-0.09 -0.42,-0.22 -0.54,-0.35 -0.16,-0.17 0,-0.49 -0.27,-1.29 -0.07,-0.21 -0.18,-0.35 -0.25,-0.55 -0.26,-0.67 -0.01,-1.23 -2.12,-1.26 0.05,-0.5 0.72,-0.22 0.64,-1.02 -0.02,-0.18 -0.36,-0.93 -0.56,-1.07 -0.06,0.46 0.71,0.92 0.32,1.51l-0.1 0.14c-0.16,-0.01 -0.09,0.05 -0.23,0.1 -0.17,0.06 -0.91,0.03 -1.2,0.04 0.04,0.45 0.32,0.51 -0.17,0.78 -0.03,0.02 -0.06,0.05 -0.07,0.04 -0.01,-0.01 -0.02,0.01 -0.03,0.02 0.72,-0.01 2.1,-0.53 2.83,-0.13 0.52,0.28 0.33,0.65 0.68,1.53 0.07,0.17 0.11,0.45 0.18,0.56 -1.05,-0.2 -0.08,-0.54 -2.39,-0.04 -1.43,0.31 -4.05,0.23 -5.05,-0.68 -0.49,-0.45 -1.02,-1.19 -0.81,-1.86 0.47,0.09 0.99,1.04 3.68,0.76l0.58 -0.11c-0.39,-0.01 -0.63,0.06 -1.01,0.06 -0.78,0.01 -1.98,-0.17 -2.51,-0.57 -0.6,-0.45 -1.28,-1.39 -1.59,-2.19 -0.77,-1.94 -0.85,-4.1 -0.27,-6.21 0.51,-1.83 1.35,-3.4 2.76,-4.77 1.16,-1.13 2.71,-1.93 4.29,-2.6 0.27,-0.11 0.45,-0.13 0.7,-0.22 0.04,0.39 -0.38,1.42 -0.57,1.72 -0.17,0.27 -0.31,0.44 -0.52,0.68 -0.19,0.21 -0.42,0.41 -0.51,0.63l-0 0.04 0.95 -1.01c1.02,-1.27 0.35,-1.76 1.21,-2.64 0.37,-0.38 0.87,-0.54 1.48,-0.54 -0.24,0.37 -0.84,0.9 -0.85,1.38 0.62,-0.04 0.58,-1.1 1.56,-1.45 0.34,-0.12 1.05,-0.18 1.45,-0.05 0.39,0.13 0.65,0.39 0.87,0.65 -0.18,0.01 -0.18,0.03 -0.31,0.03 -0.56,-0.01 -1.24,-0.18 -1.72,0.41 -0.68,0.84 -0.2,1.13 -0.72,1.58 -0.45,0.39 -1.86,0.98 -2.51,1.2 -0.27,0.09 -0.66,0.21 -0.81,0.41zm-8.31 4.14l-1.1 0.86c-0.65,0.55 -1.49,1.38 -2.38,1.67 -0.58,0.19 -1.32,0.06 -2,0.06 0.15,0.46 2.27,1.32 3.34,1.19 0.57,-0.07 1.13,-0.47 1.52,-0.73 0.22,-0.15 0.44,-0.27 0.71,-0.39 0.15,-0.07 0.23,-0.1 0.42,-0.14 0.31,-0.07 0.25,-0.04 0.51,-0.02 -0.01,1.33 0.09,2.48 0.33,3.61 0.17,0.8 0.55,1.43 0.9,2.14 0.15,0.3 0.1,0.48 0.1,0.89 -0.29,-0.12 -1.94,-0.09 -2.35,-0.05 -1.79,0.21 -2.57,1.95 -1.95,3.24 0.13,0.27 0.29,0.47 0.46,0.69l-1.38 -0c-0,0.13 0.01,0.17 -0.03,0.29 -0.07,0.25 -0.34,0.3 -0.59,0.44 -1.12,0.63 -0.83,0.48 -1.06,1.61 -0.11,0.55 -0.98,5.17 -1.1,5.37 1.72,-0 1.18,0.13 2.66,-0.71 0.05,0.2 0.14,0.5 0.16,0.71l0.32 0c-0.25,0.28 -0.87,0.4 -1.35,1.01 -0.15,0.19 -0.19,0.26 -0.19,0.55 0.2,0.11 0.18,0.18 0.53,0.18 -0.16,0.25 -0.16,0.26 -0.46,0.42 -0.49,0.26 -0.91,0.71 -1.1,1.18 -0.11,0.28 0.03,0.63 0.47,0.48 0.33,-0.11 1.1,-0.61 1.41,-0.79 0.54,-0.32 0.76,-0.53 1.15,-0.95 0.18,-0.19 0.12,-0.25 0.5,-0.25 -0.04,0.39 -0.86,1.36 -0.08,1.72 0.59,0.28 1.3,-0.59 1.84,-0.7 0.04,0.4 0.33,0.63 0.83,0.34 0.15,-0.09 0.24,-0.14 0.39,-0.21 0.01,0.24 0.1,0.26 0.21,0.4 0.5,-0 0.67,-0.23 1.07,-0.4 -0,0.42 0.37,0.61 0.78,0.43 0.3,-0.13 0.65,-0.46 0.98,-0.48 0.26,0.92 1.03,0.27 1.33,0.13 0.01,0.39 0.32,0.62 0.77,0.42 0.25,-0.12 0.65,-0.41 0.89,-0.46 0.01,0.01 0.02,0.01 0.02,0.03l0.18 0.21c0.11,0.07 0.2,0.07 0.32,0.03 0.15,-0.05 0.41,-0.23 0.59,-0.31 0.01,0.34 0.29,0.64 0.73,0.48 0.15,-0.06 0.28,-0.15 0.42,-0.23 0.17,-0.09 0.3,-0.16 0.45,-0.25 -0,0.44 0.34,0.8 0.89,0.57 0.16,-0.07 0.35,-0.19 0.51,-0.28 0.2,-0.11 0.32,-0.2 0.51,-0.29 0.05,0.52 0.75,0.65 1.23,0.49 0.4,-0.14 1.42,-0.79 1.85,-1.03 0.21,-0.12 0.36,-0.24 0.53,-0.41 0.17,-0.17 0.28,-0.31 0.43,-0.49 0.18,-0.22 0.23,-0.46 0.06,-0.66l1.12 -0c-0.31,0.49 -0.58,1.07 -0.75,1.6 -0.08,0.24 -0.11,0.81 0.07,0.98 0.23,0.22 0.73,0.15 1.1,0.09 1.16,-0.17 2.43,-1.05 3.41,-1.6 -0.11,0.4 0.07,0.94 0.3,1.22 0.38,0.48 0.75,0.14 1.2,-0.11 0.03,0.27 0.17,0.54 0.57,0.48 0.24,-0.04 0.54,-0.25 0.74,-0.37 0.48,-0.29 0.33,-0.14 0.84,-0.04 0.37,0.07 0.87,0.02 1.1,-0.07 -0.18,0.65 0.56,0.4 0.92,0.24 0.95,-0.42 2.21,0.47 3.01,0.39 0.46,-0.05 0.77,-0.49 1.18,-0.58 0.17,0.1 0.26,0.27 0.56,0.21 0.27,-0.06 0.32,-0.23 0.61,-0.25 0.03,0.34 0.37,0.5 0.77,0.33 0.18,-0.08 0.26,-0.14 0.41,-0.23 0.15,-0.08 0.28,-0.15 0.42,-0.23 0.36,0.25 0.29,0.77 1,0.35 0.14,-0.08 0.25,-0.14 0.38,-0.21 0.11,1.11 1.6,-0.05 2.17,-0.37 0.45,-0.25 0.69,-0.41 1.02,-0.76 0.32,-0.34 0.72,-0.62 0.43,-1.06 -0.26,0 -0.33,0.09 -0.51,0.2 -0.17,0.09 -0.3,0.16 -0.45,0.25 0.02,-0.64 0.64,-0.66 0.43,-1.43 0.18,-0.04 0.61,-0.31 0.79,-0.41 0.48,-0.27 0.3,-0.26 1.08,-0.26l-0.02 -2.1 -1.63 -0c-0,-0.28 0,-0.57 -0,-0.85 -0.01,-0.44 -0.07,-0.38 0.26,-0.59 0.58,-0.37 0.85,-1.09 0.95,-1.7 0.04,-0.25 0.05,-0.48 0.1,-0.72 0.07,-0.3 0.08,-0.38 0.08,-0.74 0,-0.42 -0.08,-0.41 -0.11,-0.71 -0.26,0.16 -0.74,1.41 -1.28,1.74l-0 -1.29 -0.59 -0c0.01,-0.25 0.2,-0.76 0.28,-1.01 0.09,-0.27 0.03,-0.26 0.3,-0.37 0.85,-0.37 1.3,-0.9 1.28,-1.92 -0.01,-0.34 -0.1,-0.77 -0.15,-1.08 -0.06,-0.35 -0.13,-0.73 -0.16,-1.07 -0.08,-0.84 -0.03,-1.47 0.05,-2.27 -0.38,0.21 -0.48,0.31 -0.7,0.66 -0.17,0.28 -0.26,0.56 -0.34,0.92 -0.06,0.26 -0.14,1.92 -0.4,2.08 -0.06,-0.2 -0.56,-0.79 -0.73,-0.95 -0.31,-0.29 -0.62,-0.53 -1.13,-0.57 0.05,-0.18 0.17,-0.32 0.29,-0.47l0.88 -1.36c1.66,-2.79 -0.26,-5.07 -2.93,-4.68 -1.44,0.21 -2.24,0.8 -3.36,1.37 -0.57,0.29 -1.89,0.77 -2.58,0.48 -0.37,-0.15 -0.34,-0.66 -0.44,-1.01 -0.32,-1.12 -0.79,-2.06 -1.35,-3.06 -0.12,-0.22 -0.45,-0.74 -0.4,-1.03 0.06,-0.35 0.6,-0.47 1.15,-0.4 0.87,0.11 1.51,0.54 2.2,0.93 1.49,0.84 2.97,1.43 4.84,0.26 1.06,-0.66 1.58,-1.77 1.17,-2.98 -0.41,-1.2 -1.94,-2.4 -3.4,-2.68 0.32,0.4 0.75,0.7 1.1,1.08 0.57,0.6 0.72,1.66 0.17,2.35 -0.14,0.17 -0.44,0.34 -0.69,0.41 -0.95,0.26 -1.93,-0.3 -2.7,-0.68 -0.26,-0.13 -0.47,-0.26 -0.73,-0.37 -0.57,-0.26 -0.98,-0.47 -1.69,-0.59 -1.87,-0.32 -2.23,0.04 -3.67,0.67 -0.09,-0.12 -0.21,-0.19 -0.33,-0.3 -0.15,-0.13 -0.22,-0.16 -0.37,-0.27l-0.73 -0.5c0.01,-2.15 -0.04,-2.27 -2.24,-2.77 -2.32,-0.52 -2.96,0.86 -4.28,0.69 -1.26,-0.16 -1.02,-0.05 -1.76,-0.85 -0.7,-0.76 -2.19,-0.27 -3.21,-0.1 -0.92,0.15 -1.15,0.36 -1.68,0.91 -0.38,0.4 -0.39,0.23 -0.84,0.41 -0.05,-0.19 -0.12,-0.31 -0.18,-0.52 -0.26,-0.85 -0.5,-1.58 -1.57,-1.9 -0.92,-0.28 -1.47,-0.31 -2.4,0.14 -1.02,0.5 -1.58,1.24 -1.99,2.21l-0.67 1.41c-1.06,2.17 -1.98,1.31 -3.26,1.16 -1.04,-0.12 -2.96,-0.02 -3.51,0.84 1.81,0 4.02,1.07 5.06,1.2 3.05,0.4 3.23,-1.98 4.13,-3.67 0.25,-0.47 0.42,-0.83 1.14,-0.83 0.14,0.18 0.19,0.17 0.25,0.46 0.04,0.19 0.02,0.41 0.02,0.61 0,0.76 -0.71,0.89 -1.28,1.52l-0.69 0.71c-0.54,0.6 -1.84,2.52 -2.08,3.39 -0.72,0 -0.98,0.12 -1.55,0.36z"/>
   <path class="fil1" d="M18.62 10.38c-0.03,0.16 -0.34,0.59 -0.46,0.66 -0.04,0.17 -0.36,0.57 -0.49,0.67 -0.4,0.3 -0.87,-0.07 -1.15,0.2 -0.43,0.43 -0.46,0.17 -1.18,0.13 -0.37,0.36 -0.51,1 -0.69,1.43 -0.17,0.42 -0.19,0.51 0.03,0.68 1.18,0.95 -0.19,1.18 -0.41,1.5 -0.19,0.27 0.08,0.56 0.08,0.76 0.2,0.14 0.54,0.89 0.56,1.07 0.08,0.8 -0.59,0.52 -0.64,1.02 2.11,0.03 1.86,0.58 2.12,1.26 0.07,0.19 0.18,0.33 0.25,0.55 0.27,0.8 0.11,1.12 0.27,1.29 0.12,0.13 0.37,0.26 0.54,0.35 0.82,0.43 1.54,0.66 2.58,0.91 0.47,0.11 1.77,0.31 2.33,0.33 0.54,0.02 0.42,-0.05 0.43,-0.45l2.81 0.01c0.2,0.02 0.63,0.1 0.81,0.03 -0.12,-0.24 -0.95,-0.31 -1.23,-0.35 -4.89,-0.67 -3.08,-1.86 -2.98,-2.46 0.16,-0.98 -0.07,-1.36 0.46,-2.47l0.47 -0.86c0.08,-0.1 0.04,-0.05 0.09,-0.08 0.08,-0.8 0.01,-0.3 -0.14,-0.93 -0.27,-1.17 2.08,-0.43 2.64,-0.29 0.8,0.2 1.29,0.24 2.3,0.26 1.02,0.03 1.17,0.12 1.91,0.53 0.01,-0.32 -0.2,-0.52 -0.38,-0.7 -0.4,-0.42 -0.27,-0.22 -0.78,-0.24 -0.41,-0.02 -0.47,-0.16 -1.01,-0.03 -1.62,0.4 -1.57,-0.86 -2.4,-0.77 -0.31,0.04 -0.47,0.35 -0.86,0.18 -0.21,-0.09 -0.42,-0.36 -0.53,-0.54 -1.6,0.88 -3.23,1.78 -5.04,2.38 -0.11,0.04 -1.19,0.44 -1.26,0.31 -0.01,-0.01 -0.03,-0.01 -0.04,-0.01 0.02,-0.22 0.19,-0.21 0.45,-0.29l1.62 -0.52c0.34,-0.11 0.7,-0.27 1.04,-0.42l0.96 -0.44c0.46,-0.25 2.34,-1.48 2.75,-1.54 0.85,-0.11 1.26,0 1.27,-0.36 0,-0.14 -0.12,-0.25 -0.21,-0.36 -0.13,0.05 -0.53,0.09 -0.7,0.13 -0.23,0.05 -0.42,0.11 -0.65,0.17l-4.07 0.73c-0,-0.27 -0.08,-0.22 0.19,-0.28 0.89,-0.21 3.49,-0.27 3.9,-0.75l-3.08 0.05c-0,-0.21 -0.01,-0.24 0.21,-0.26 0.43,-0.05 1.16,0.02 1.43,-0.13 -0.82,-0.01 -1.51,-0.08 -2.29,-0.01 -0.33,0.03 -0.82,0.01 -1.16,0.01 -0.58,0 -0.65,0.1 -0.85,-0.26 0.54,-0.02 0.96,-0.07 1.54,-0.05 0.28,0.01 0.4,0.05 0.74,0.05l3.46 0c0.08,-0 0.12,0 0.2,-0.01 0.22,-0.03 0.13,-0.07 -0.01,-0.14 -0.24,-0.13 -0.5,-0.19 -0.78,-0.25 -0.71,-0.16 -0.74,-0.08 -0.75,-0.58 -0.23,-0.06 -1.98,-1.02 -2.08,-1.33 -0.15,-0.49 1.18,0.47 1.19,0.47 1.07,0.73 2.62,1.21 3.92,1.53 0.7,0.17 2.43,0.45 3.4,0.34 0.58,-0.07 1.11,-0.08 1.69,-0.19 0.3,-0.06 1.11,-0.28 1.38,-0.21 0.19,0.05 0.09,0.03 0.14,0.06 -0.08,0.26 -0.42,0.26 -0.74,0.32 -0.29,0.05 -0.57,0.1 -0.89,0.15 -0.52,0.08 -1,0.1 -1.52,0.11 -0.37,0.01 -0.59,0.21 -0.09,0.31 0.6,0.12 1.49,0.15 2.11,0.09 0.29,-0.03 0.46,-0.12 0.65,0.1 -0.39,0.45 -1.9,-0.05 -2.44,0.22 0.21,0.02 0.51,0.1 0.73,0.15 0.63,0.13 1.52,0.21 2.08,0.48 -0.52,0.37 -2.17,-0.3 -2.87,-0.31 0.34,0.42 1.64,0.84 2.26,1.19 0.3,0.17 0.48,0.23 0.56,0.55 -0.91,-0.01 -2.59,-1.5 -3.51,-1.56 -0.11,0.1 -0.19,0.23 -0.27,0.36 0.11,0.08 0.21,0.15 0.32,0.22 0.53,0.33 0.28,0.43 0.61,0.83 0.53,0.65 0.72,0.23 1.19,1.68 0.26,0.8 0.45,1.42 0.44,2.31 -0.54,-0.03 -0.39,-0.73 -0.43,-1.07 -0.05,-0.48 -0.06,-0.8 -0.32,-1.12 -0.56,0.11 -0.57,0.66 -0.82,1.01l-0.05 0.06c0.02,0.14 -0.17,0.72 -0.21,0.96 -0.09,0.48 -0.14,1.74 -0.01,2.19 0.13,0.43 0.53,0.43 0.82,0.23 0.72,-0.5 1.69,-1.51 2.21,-2.21 0.1,-0.14 0.16,-0.27 0.26,-0.41 0.54,-0.78 0.82,-1.72 0.98,-2.66 0.11,-0.62 0.05,-1.6 -0.04,-2.19 -0.24,-1.52 -1.06,-2.89 -2.18,-4.06 -0.11,-0.12 -0.19,-0.21 -0.32,-0.31 -0.13,-0.11 -0.2,-0.22 -0.32,-0.31 -0.15,-0.11 -0.22,-0.14 -0.37,-0.27 -0.16,-0.13 -0.24,-0.16 -0.42,-0.27 -2.04,-1.26 -4.08,-0.9 -4.93,-1.18 -1.08,-0.35 -0.87,0.08 -1.66,0.01 -0.19,-0.02 -0.42,-0.11 -0.56,-0.12 -0.51,-0.05 -0.25,0.43 -1.3,0.67 -1.36,0.32 -1.1,0.09 -1.75,1.03 -0.01,0.01 -0.01,0.02 -0.02,0.03l-0.19 0.24c-0.15,0.21 -0.66,1 -0.83,1.1z"/>
   <path class="fil2" d="M17.53 4.98c-0.02,-0.25 0.09,-0.43 0.19,-0.59 0.14,-0.21 0.25,-0.28 0.57,-0.15 0.39,0.17 0.48,0.63 0.62,1.01l0.94 2.21c-1.27,-0.45 -1.76,0.15 -2.29,-0.78 -0.18,-0.32 -0.31,-0.78 -0.07,-1.11 0.24,-0.33 0.62,-0.31 1.18,-0.35 0,-0.45 -0.65,-0.23 -1.14,-0.25zm-3.57 0.59c-0.13,0.01 -0.24,0.06 -0.34,0.12 0.09,0.04 0.67,-0.11 0.86,-0.12 -0.02,0.36 -0.95,1.37 0.62,2.02 0.71,0.29 0.89,0.05 1.57,0.06 0.56,0.01 0.92,0.35 0.84,0.85 -0.2,-0.1 -0.36,-1.16 -1.3,-0.51 -0.83,0.58 -0.86,2.28 0.2,2.3 0.38,-0.39 -0.04,-0.83 0.16,-1.1 0.65,0.03 0.03,1.08 -0.08,1.26 -0.23,0.4 -0.1,0.29 -0.18,0.45 -0.08,-0.66 0.08,-0.35 -0.43,-0.71 -0.23,-0.16 -0.4,-0.35 -0.53,-0.63 -0.3,-0.62 -0.26,-1.04 -0.72,-1.58 -0.68,-0.79 -1.57,-0.91 -2.6,-0.42l-0.8 0.47c0.27,0.03 0.2,-0.07 0.44,-0.11 -0.03,0.14 -0.03,0.13 -0.18,0.23 -0.01,0.01 -0.07,0.03 -0.08,0.04l0.17 0.13c0.31,-0.13 0.43,-0.32 0.79,-0.48 2.13,-0.94 2,0.9 2.66,2.8 0.18,0.53 0.42,1.25 1.15,1.28 0.07,-0.3 0.09,-0.43 0.14,-0.77 0.13,0.33 0.35,0.66 0.91,0.58 0.55,-0.08 0.68,-0.57 0.94,-0.7 0.13,-0.07 0.44,-0.49 0.46,-0.66 0.23,-0.5 0.95,-1.35 1.26,-1.85 0.23,-0.37 0.14,-0.37 0.2,-0.82 0.46,0.2 0.25,0.18 0.85,0.13 0.39,-0.04 0.7,0.06 0.97,-0.12 0.73,-0.5 0.08,-1.07 -0.02,-1.26 -0.26,-0.47 -0.32,-0.9 -0.5,-1.45 -0.12,-0.36 -0.57,-1.08 -0.54,-1.4 1.15,0.59 0.64,3.51 2.43,3.57 0.35,0.01 0.63,-0.02 0.86,-0.14 -0.03,-0.46 -0.42,-1.59 -0.25,-2.3 0.47,0.29 0.05,1.1 0.49,1.83 0.22,0.37 1.07,0.95 1.76,0.59 -0.05,-0.11 -0.1,-0.91 -0.07,-1.09 0.34,0.22 -0.1,0.83 0.72,1.15 1.46,0.59 2.74,0.39 4.21,1.82 1.16,1.13 1.93,1.98 2.33,3.4 0.12,0.41 0.27,1.01 0.47,1.35 0.13,-0.72 -0.33,-2.35 -0.52,-3 -0.28,-0.92 -0.7,-1.75 -1.18,-2.49 -0.65,-1.01 -1.75,-2.12 -2.74,-2.92 -0.27,-0.22 -0.76,-0.71 -1.17,-0.78 0.14,0.56 0.01,0.74 0.45,1.51 0.28,0.49 0.58,0.73 0.86,1.18 -0.43,-0.06 -2.28,-0.71 -2.78,-1.09 -0.7,-0.54 -1.52,-1.17 -1.73,-2.03 -0.19,-0.76 -0.01,-1.34 -0.97,-1.49 -0.14,0.05 -0.29,0.01 -0.42,-0.01 -0.59,0.03 -2.32,-0.35 -3.05,-0.44 -1.74,-0.21 -2.31,-0.24 -2.75,1.23 -0.02,0.07 -0.02,0.08 -0.04,0.14 -0.21,0.6 -0.57,0.78 -1.24,1.07 -0.79,0.33 -1.67,0.65 -2.56,0.9z"/>
   <path class="fil3" d="M12.57 19.06c0.08,0.01 0.04,0.02 0.15,0.01 0.01,-0 0.03,-0 0.04,-0 0.01,-0 0.03,-0.01 0.04,-0.01l0.06 -0.03c0.01,-0.01 0.03,-0.03 0.03,-0.02 0.01,0.01 0.04,-0.02 0.07,-0.04 0.49,-0.28 0.21,-0.33 0.17,-0.78 0.3,-0.01 1.04,0.02 1.2,-0.04 0.14,-0.05 0.07,-0.11 0.23,-0.1 0.17,-0.63 0.05,-0.8 -0.26,-1.29 -0.57,-0.9 -0.91,-1.21 -2.05,-1.58 -0.37,-0.12 -1.18,-0.31 -1.35,-0.51 0.37,0.07 0.64,0.14 1.09,0.19 0.47,0.05 1.26,0.07 1.66,0.22 0.43,0.16 1.08,0.35 1.28,-0.2 0.32,-0.89 -2.48,-0.93 -3.67,-1.14 -0.76,-0.13 -1.39,-0.29 -1.64,-0.82 -0.44,-0.95 0.31,-2.55 0.88,-3.36 0.16,-0.23 0.32,-0.46 0.5,-0.65l0.56 -0.58 -0.17 -0.13c0.01,-0.01 0.07,-0.03 0.08,-0.04 0.15,-0.1 0.15,-0.09 0.18,-0.23 -0.24,0.04 -0.17,0.14 -0.44,0.11 -0.1,-0.3 0.95,-1.31 1.16,-1.46 -0.49,-0.18 0.61,-1.01 0.78,-1.09l-0.19 0.39 0.34 -0.05c-0.09,-0.26 -0.08,-0.16 0.03,-0.25 0.08,-0.22 0.32,-0.42 0.51,-0.63 0.22,-0.24 0.35,-0.4 0.52,-0.68 0.19,-0.29 0.61,-1.33 0.57,-1.72 -0.25,0.09 -0.43,0.11 -0.7,0.22 -1.58,0.67 -3.13,1.47 -4.29,2.6 -1.41,1.38 -2.26,2.95 -2.76,4.77 -0.58,2.11 -0.5,4.27 0.27,6.21 0.31,0.79 0.99,1.74 1.59,2.19 0.53,0.4 1.73,0.58 2.51,0.57 0.38,-0 0.63,-0.07 1.01,-0.06z"/>
   <path class="fil1" d="M34.03 14.75c0.64,0.14 0.41,0.16 1.27,0.08l1.21 -0.23c1.53,-0.37 2.18,-0.9 3.29,-1.57 0.14,-0.08 0.3,-0.2 0.44,-0.26 0.2,-0.1 0.98,0 1.24,0.07 0.5,0.14 0.65,0.87 0.33,1.37 -0.43,-0.24 -0.28,-0.31 -0.48,-0.31 -0.36,-0 -1.44,1.64 -1.69,2.02 -0.13,0.2 -0.22,0.38 -0.34,0.56l-0.55 1.23c-0.24,0.85 -0.22,1.84 0.39,2.56 0.61,0.71 1.35,0.86 2.23,1.02 0,-0.29 0.04,-1.1 -0.07,-1.37l-0.42 -0.54c-0.56,-0.83 1.05,-3.12 1.47,-3.96 0.26,-0.54 0.78,-1.33 0.78,-2.07 0,-0.81 -0.22,-1.6 -0.9,-2.06 -1.11,-0.75 -2.61,-0.6 -3.77,-0.02 -1.71,0.86 -2.48,1.48 -4.55,1.5l-0 0.71c0,0.36 0.1,0.87 0.11,1.25z"/>
   <path class="fil4" d="M20.2 31.33c0.07,-0.39 0.48,-0.99 0.93,-1.01 0.03,0.42 -0.58,0.87 -0.93,1.01zm-7.83 0.76c-0.41,-0.85 1.51,-1.61 1.56,-1.62 -0.21,0.22 -0.95,1.62 -1.56,1.62zm7.3 -2.68c0.2,-0.3 0.51,-0.65 0.19,-0.7 -0.39,-0.06 -0.55,0.34 -0.69,0.54 -0.23,0.33 -0.52,0 -0.92,0.34 -0.18,0.15 -0.43,0.48 -0.4,0.76l0.61 -0.02c-0.04,0.18 -0.53,0.82 -0.67,0.98 -0.2,0.23 -0.64,0.71 -1.01,0.7 -0.05,-0.42 0.25,-0.75 0.45,-1.03 0.27,-0.36 0.49,-0.52 0.16,-1.01 -0.25,0.01 -0.41,0.15 -0.64,0.34l-0.9 0.94c-0.13,0.16 -0.23,0.4 -0.46,0.45 0.02,-0.49 0.68,-0.93 0.79,-1.33 -0.25,-0.27 -0.43,-0.19 -0.67,0.05 -0.13,0.13 -0.31,0.41 -0.42,0.58 -0.07,0.11 -0.13,0.23 -0.18,0.34 -0.08,0.2 -0.01,0.2 -0.17,0.35 -0.16,0.14 -0.41,0.32 -0.73,0.31 -0.25,-0.35 -0.03,-0.58 0.17,-0.87 0.33,-0.49 0.2,-0.36 0.1,-0.86 0.17,-0.14 0.3,-0.27 0.09,-0.48 -0.38,-0.38 -1.45,0.44 -1.68,0.63 -1.37,1.17 -0.51,0.85 -1.12,1.34 -0.19,0.15 -0.19,0.26 -0.53,0.25 -0.29,-0.82 0.9,-1 0.54,-1.7 -0.2,-0.4 -0.47,0.01 -1.04,0.59 -0.16,0.16 -0.26,0.25 -0.41,0.41 -0.13,0.13 -0.27,0.27 -0.42,0.38 0.06,-0.22 0.34,-0.61 0.47,-0.83 0.29,-0.5 0.31,-0.65 -0.05,-0.84 -0.92,0.31 -1.39,1.42 -1.86,1.63 -0.2,-0.26 0.38,-0.68 0.59,-1.01 0.21,-0.34 0.05,-0.34 0.04,-0.35 -0.43,-0.41 -0.96,0.65 -1.09,0.9 -0.22,0.4 -0.24,0.77 -0.06,1.22 0.25,0.63 0.58,-0.02 0.66,-0.14 0.23,-0.33 0.7,-1.05 1.07,-1.21 0.06,0.41 -0.72,1.08 -0.46,1.63 0.57,0.2 0.81,-0.81 1.74,-1.5 -0.14,0.47 -0.85,1.36 -0.34,1.62 0.38,0.2 1.19,-0.72 1.4,-0.9 0.05,0.34 0.23,0.8 0.55,0.87 0.27,0 0.82,-0.76 1.09,-1 -0.04,0.41 -0.3,0.78 0.03,1.13 0.59,0.02 1.03,-0.66 1.34,-0.96 0.16,0.32 0.02,0.5 0.36,0.73 0.38,-0.17 0.62,-0.94 1.42,-1.58 -0.08,0.29 -0.97,1.64 -0.24,1.75 0.43,0.06 1.16,-1 1.46,-1.17 0.04,0.47 -0.42,0.68 0.07,1.27 0.33,0.02 0.39,-0 0.59,-0.13 0.14,-0.09 0.24,-0.17 0.36,-0.28 0.23,-0.21 0.41,-0.44 0.64,-0.64 0.05,0.37 0.05,0.6 0.29,0.82 0.69,0.63 1.52,-0.42 1.83,-0.77 0.14,-0.16 0.15,-0.14 0.12,-0.4 -0.27,0.2 -0.52,0.46 -0.84,0.61 -0.5,0.23 -0.76,-0.03 -0.73,-0.48 0.42,-0.22 0.52,-0.23 0.88,-0.51 0.1,-0.08 0.18,-0.11 0.26,-0.18 0.77,-0.65 0.46,-1.7 -0.79,-0.84 -0.21,0.14 -0.51,0.48 -0.67,0.69 -0.23,0.31 -0.23,0.56 -0.49,0.83 -0.17,0.18 -0.56,0.47 -0.85,0.48 -0.27,-0.52 0.26,-1.29 0.49,-1.77l0.52 -0.01 0.51 -0.86 -0.33 -0.08z"/>
   <path class="fil5" d="M7.27 27.88c0.05,-0.05 0.02,-0.03 0.06,-0.06 0,-0 0.02,-0.01 0.02,-0.01l0.61 -0.37c0.14,-0.09 0.18,-0.11 0.41,-0.11 0.42,0.53 0.09,1.03 -0.28,1.68 -0.07,0.13 -0.21,0.38 -0.25,0.51l1.07 0c0,-0.42 0.37,-1.45 0.37,-1.83l0.05 1.83 1.28 0 0 -6.56 -1.39 0c0,0.27 -0.36,1.43 -0.46,1.8 -0.05,0.21 -0.33,1.53 -0.5,1.63 -0,-0.24 -0.57,-2.28 -0.68,-2.64 -0.29,-0.98 0.16,-0.79 -1.56,-0.79l0 5.93 1.25 -1.01z"/>
   <path class="fil1" d="M5.11 6.01c-0.31,-0.55 -0.18,-0.58 -1.76,-0.58 -0.69,-0 -1.57,0.01 -2.07,0.35 0.2,0.04 0.37,0.1 0.58,0.14 0.24,0.05 0.41,0.07 0.63,0.14 1.35,0.39 2.44,0.93 3.84,0.93 1.44,0 2.33,-1.44 2.66,-2.41 0.11,-0.34 0.15,-0.58 0.3,-0.91 0.32,-0.68 0.91,-1.9 1.94,-1.9 0.33,-0 0.56,0.01 0.58,0.26 -0.23,-0.13 -0.39,-0.07 -0.69,-0.13 -0.08,0.27 -0.09,0.23 -0.32,0.36 0.06,0.07 0.1,0.14 0.16,0.22 0.15,0.19 0.42,0.27 0.42,0.85 0,0.18 -0.04,0.2 -0.04,0.32 -0.01,0.16 0.04,0.12 0.05,0.31l2.45 -1.25c0.02,-2.59 -3.45,-3.33 -4.98,-1.19 -0.92,1.29 -1.19,2.92 -2.22,3.85 -0.33,0.3 -0.85,0.64 -1.53,0.63z"/>
   <path class="fil6" d="M26.22 14.42c-0.16,-0.2 -0.42,-0.37 -0.86,-0.28 -0.29,0.05 -0.47,0.4 -0.85,0.2 -0.34,-0.18 -0.24,-0.45 -0.07,-0.65 0.32,-0 0.74,0.03 0.95,0.03 0.97,-0.01 0.58,-0.82 0.42,-0.95 -0.31,-0.26 -0.26,-0.14 -0.25,-0.65l2.02 0.33c0.08,0.64 0.47,0.99 0.48,1.65 0.01,0.75 -0.23,1.16 -1.19,0.82 -0.37,-0.13 -0.45,-0.22 -0.65,-0.48zm-3.01 2.14c0.09,0.02 0.21,0.15 0.17,-0.38 -0.02,-0.25 -0.06,-0.2 -0.11,-0.38 0.01,0.12 -0.04,0.09 0.05,0.16 0.32,0.23 0.18,0 0.19,-0 -0.22,-0.18 -0.19,-0.21 -0.18,-0.53 0.28,-0.16 0.39,-0.14 0.85,-0.14 0.4,0.01 1.34,0.2 1.72,0.3 0.29,0.07 0.55,0.13 0.86,0.17 0.76,0.11 1.97,0.1 2.65,0.37 0.34,0.13 0.32,0.24 0.46,0.5 -0.64,-0.12 -0.68,-0.39 -1.19,-0.4 -0.08,0.35 0.09,0.01 0.24,0.18l-0.15 0.07c-0.24,0.1 -0.07,-0.06 -0.11,0.07 0.42,0 0.66,0.1 0.87,0.3 0.27,0.25 0.08,0.54 -0.07,0.77l0.03 0.31 0.05 -0.06c0.25,-0.35 0.26,-0.9 0.82,-1.01 0.26,0.32 0.27,0.64 0.32,1.12 0.03,0.34 -0.11,1.03 0.43,1.07 0.01,-0.89 -0.17,-1.51 -0.44,-2.31 -0.47,-1.45 -0.67,-1.02 -1.19,-1.68 -0.33,-0.4 -0.08,-0.5 -0.61,-0.83 -0.11,-0.07 -0.21,-0.15 -0.32,-0.22 0.08,-0.12 0.16,-0.25 0.27,-0.36 0.92,0.06 2.6,1.55 3.51,1.56 -0.08,-0.32 -0.26,-0.39 -0.56,-0.55 -0.62,-0.34 -1.92,-0.77 -2.26,-1.19 0.7,0.01 2.35,0.68 2.87,0.31 -0.56,-0.27 -1.46,-0.35 -2.08,-0.48 -0.22,-0.05 -0.52,-0.13 -0.73,-0.15 0.54,-0.27 2.05,0.23 2.44,-0.22 -0.18,-0.21 -0.36,-0.12 -0.65,-0.1 -0.62,0.06 -1.51,0.03 -2.11,-0.09 -0.49,-0.09 -0.27,-0.3 0.09,-0.31 0.51,-0.01 1,-0.03 1.52,-0.11 0.32,-0.05 0.6,-0.1 0.89,-0.15 0.32,-0.05 0.66,-0.06 0.74,-0.32 -0.05,-0.03 0.05,-0.01 -0.14,-0.06 -0.27,-0.07 -1.08,0.15 -1.38,0.21 -0.58,0.11 -1.11,0.13 -1.69,0.19 -0.97,0.11 -2.7,-0.17 -3.4,-0.34 -1.31,-0.32 -2.85,-0.8 -3.92,-1.53 -0.01,-0 -1.34,-0.96 -1.19,-0.47 0.1,0.31 1.85,1.27 2.08,1.33 0.01,0.5 0.04,0.42 0.75,0.58 0.28,0.06 0.53,0.12 0.78,0.25 0.14,0.07 0.23,0.11 0.01,0.14 -0.08,0.01 -0.12,0.01 -0.2,0.01l-3.46 -0c-0.34,0 -0.46,-0.04 -0.74,-0.05 -0.58,-0.02 -1,0.03 -1.54,0.05 0.2,0.36 0.26,0.26 0.85,0.26 0.35,-0 0.83,0.02 1.16,-0.01 0.78,-0.07 1.47,-0 2.29,0.01 -0.28,0.15 -1,0.08 -1.43,0.13 -0.23,0.03 -0.22,0.05 -0.21,0.26l3.08 -0.05c-0.41,0.47 -3.01,0.53 -3.9,0.75 -0.27,0.07 -0.2,0.01 -0.19,0.28l4.07 -0.73c0.23,-0.06 0.42,-0.11 0.65,-0.17 0.17,-0.04 0.56,-0.08 0.7,-0.13 0.09,0.11 0.21,0.21 0.21,0.36 -0.01,0.36 -0.42,0.25 -1.27,0.36 -0.4,0.05 -2.29,1.28 -2.75,1.54l-0.96 0.44c-0.34,0.15 -0.7,0.32 -1.04,0.42l-1.62 0.52c-0.26,0.08 -0.43,0.07 -0.45,0.29 0.01,0.01 0.03,0 0.04,0.01 0.07,0.14 1.15,-0.27 1.26,-0.31 1.8,-0.6 3.43,-1.5 5.04,-2.38 0.11,0.18 0.32,0.45 0.53,0.54 0.39,0.17 0.55,-0.14 0.86,-0.18 0.83,-0.1 0.77,1.16 2.4,0.77 0.54,-0.13 0.6,0.02 1.01,0.03 0.51,0.02 0.38,-0.18 0.78,0.24 0.18,0.18 0.39,0.38 0.38,0.7 -0.74,-0.42 -0.89,-0.51 -1.91,-0.53 -1.01,-0.02 -1.5,-0.06 -2.3,-0.26 -0.56,-0.14 -2.9,-0.89 -2.64,0.29 0.14,0.63 0.22,0.13 0.14,0.93z"/>
   <path class="fil5" d="M13.69 25.05c0,-0.18 0.06,-0.4 0.27,-0.4l2.34 0 0 -1.7 -1.07 0c-1.22,0 -2.36,-0.18 -2.66,0.54 -0.25,0.61 -0.16,3.37 -0.16,4.14 0,1.47 0.15,1.87 1.54,1.87l2.34 0 0 -4.15 -2.29 0 0 1.7 1.01 -0 -0 0.76c-0.41,0 -0.89,0.02 -1.22,-0.04 -0.03,-0.05 -0.11,-0.21 -0.11,-0.27l0 -2.45z"/>
   <path class="fil1" d="M39.67 4.76c-0,0.48 0,0.93 -0.31,1.35 -0.64,0.85 -2.34,0.48 -3.1,0.12 -0.14,-0.06 -0.29,-0.16 -0.43,-0.22 -0.96,-0.45 -2.1,-1.25 -3.46,-1.25 -0.25,0 -1.16,0.11 -1.45,0.21 -0.37,0.12 -0.86,0.32 -1.05,0.55 0.22,0.34 0.53,0.56 0.81,0.84l0.79 0.85c0.26,-0.15 0.37,-0.36 0.55,-0.6 0.47,-0.63 1.75,-0.34 2.32,-0.11 -0.11,0.14 -0.09,0.1 -0.26,0.18 0.34,0.55 0.84,0.79 1.48,1.12 1.33,0.67 3.08,0.89 4.3,0.03 1.31,-0.93 1.18,-2.51 0.33,-3.64 -0.23,-0.31 -1.01,-1.05 -1.48,-1.16 0.1,0.12 0.19,0.24 0.31,0.36 0.35,0.36 0.65,0.85 0.65,1.38z"/>
   <path class="fil5" d="M39.46 27.77c-0.22,-0.39 -0.11,-1.6 -0.11,-2.19 -0,-0.34 -0.09,-0.86 0.22,-0.93 0.31,-0.07 1.03,-0.01 1.27,0.04 0.12,0.44 0.05,2.23 0.05,2.81 0,0.21 -0.12,0.31 -0.37,0.31 -0.5,0 -0.66,0.04 -1.07,-0.04zm-1.38 -0.49c0.33,-0.1 0.63,0.08 0.64,0.4 0,0.3 -0.13,0.74 -0.25,0.99 -0.04,0.09 -0.11,0.2 -0.14,0.29 -0.06,0.2 0.12,0.35 0.35,0.44 0.29,0.12 2.56,0.23 3.07,-0.08 0.29,-0.18 0.43,-0.62 0.43,-0.97l0 -4.24c0,-0.28 -0.14,-0.69 -0.3,-0.87 -0.19,-0.22 -0.5,-0.29 -0.93,-0.29 -2.1,0 -2.89,-0.3 -2.88,1.65 0,0.89 0,1.79 0,2.68z"/>
   <path class="fil5" d="M17.79 24.7c0.06,-0.02 0.18,-0.04 0.27,-0.04 1.06,0 1.22,-0.12 1.22,0.49l0 2.23c0,0.63 -0.63,0.46 -1.49,0.4 -0.17,-0.61 -0.17,-2.47 0,-3.08zm2.18 4.64c0.54,-0.04 0.48,-0.76 0.56,-1.22 0.06,-0.34 0.02,-2.36 0.02,-3.06 0,-2.01 -0.23,-2.1 -1.81,-2.1 -0.59,0 -1.67,-0.11 -2.02,0.32 -0.17,0.21 -0.27,0.55 -0.27,0.89l0 4.15c0,0.45 0.2,1.05 0.71,1.15 1,0.19 1.05,-0.08 1.2,-0.14 0.14,-0.05 0.34,-0.04 0.49,-0.08 0.21,-0.05 0.16,-0.09 0.27,-0.26 0.32,-0.49 0.84,-0.53 1.05,-0.3 0.18,0.2 -0.13,0.42 -0.2,0.65z"/>
   <path class="fil5" d="M28.59 24.7c0.02,-0.01 0.2,-0.04 0.21,-0.04 0.78,0 1.1,-0.09 1.22,0.14 0.13,0.25 0.06,2.17 0.06,2.58 0,0.43 -0.18,0.4 -0.25,0.41l-0.08 0.02c-0.29,0.05 -0.92,-0.02 -1.16,-0.04 -0.06,-0.21 -0.11,-0.4 -0.11,-0.67 0,-0.75 -0.09,-1.69 0.11,-2.41zm-1.33 2.63c0,0.15 0.13,0.13 0.3,0.19 0.85,0.31 1.19,1.19 1.19,1.99 0.85,0 2,0.12 2.34,-0.36 0.08,-0.11 0.16,-0.34 0.19,-0.51l0.07 -3.73c0,-0.97 0.01,-1.96 -1.17,-1.96l-1.92 0c-0.69,0 -1.01,0.63 -1.01,1.03l0 3.34z"/>
   <path class="fil7" d="M13.37 12.43l0.21 -0.31c0.57,0.25 0.7,0.26 1.06,0.71 -0.17,0.27 -0.49,0.81 -0.95,0.75 -0.72,-0.09 -0.34,-1.04 -0.33,-1.15zm0 0c-0.16,0.1 -0.11,0.14 -0.25,0.28 -0.92,0.91 -1.96,-0 -1.19,-1.35 0.13,0.05 0.29,0.08 0.43,0.13 0.12,0.05 0.26,0.1 0.39,0.16 0.27,0.13 0.48,0.28 0.73,0.42 -0.05,0.09 -0.09,0.24 -0.11,0.36zm0.32 -0.45c0.32,-0.57 0.93,-0.76 1.2,-0.42 0.24,0.29 0.15,0.76 -0.08,1.05 -0.43,-0.19 -0.73,-0.41 -1.12,-0.62zm-3.35 0.4c-0.9,0 -0.37,-1.65 -0.16,-1.65 0.5,0 1.39,0.46 1.54,0.49 -0,0.56 -0.73,1.16 -1.38,1.16zm1.65 -1.2c0.85,-1.47 2.35,-1.36 2.12,-0.19 -0.07,0.37 -0.31,0.6 -0.52,0.86 -0.27,-0.12 -0.53,-0.22 -0.82,-0.34l-0.78 -0.33zm-1.76 -0.62c0.11,-0.2 0.13,-0.55 0.6,-1.01 1.45,-1.43 2.32,-0.1 1.17,1.29l-0.17 0.21c-0.25,-0.05 -0.91,-0.36 -1.6,-0.49zm1.35 -2.23l-0.56 0.58c-0.18,0.19 -0.34,0.42 -0.5,0.65 -0.56,0.81 -1.32,2.42 -0.88,3.36 0.25,0.53 0.88,0.68 1.64,0.82 1.19,0.21 3.99,0.25 3.67,1.14 -0.19,0.54 -0.85,0.35 -1.28,0.2 -0.4,-0.15 -1.19,-0.17 -1.66,-0.22 -0.45,-0.05 -0.73,-0.12 -1.09,-0.19 0.17,0.21 0.98,0.39 1.35,0.51 1.14,0.37 1.48,0.68 2.05,1.58 0.31,0.49 0.43,0.66 0.26,1.29l0.1 -0.14c0.39,-0.59 -0.38,-1.05 -0.32,-1.51 -0,-0.2 -0.27,-0.49 -0.08,-0.76 0.22,-0.32 1.59,-0.56 0.41,-1.5 -0.22,-0.17 -0.2,-0.25 -0.03,-0.68 0.18,-0.43 0.32,-1.07 0.69,-1.43 0.72,0.05 0.75,0.3 1.18,-0.13 0.27,-0.27 0.75,0.1 1.15,-0.2 0.13,-0.1 0.45,-0.5 0.49,-0.67 -0.26,0.13 -0.39,0.62 -0.94,0.7 -0.56,0.08 -0.78,-0.25 -0.91,-0.58 -0.05,0.34 -0.07,0.47 -0.14,0.77 -0.73,-0.03 -0.97,-0.75 -1.15,-1.28 -0.65,-1.9 -0.53,-3.74 -2.66,-2.8 -0.36,0.16 -0.48,0.35 -0.79,0.48z"/>
   <path class="fil5" d="M35.36 25.36c-0.2,0 -0.17,-0.14 -0.16,-0.31 0,-0.14 0,-0.27 0,-0.41l2.24 0 -0 -1.7 -2.5 0c-0.36,0 -0.62,0.14 -0.78,0.33 -0.35,0.43 -0.23,1.93 -0.23,2.53 0,1.56 1.65,1.25 2.56,1.25 0.15,0.27 0.16,0.76 -0.11,0.76l-2.45 0 0 1.7 2.08 0 0.65 -0.88c0.08,-0.11 0.12,-0.18 0.2,-0.28l0.96 -1.03c0,-0.67 0.07,-1.96 -1.17,-1.96l-1.28 0z"/>
   <path class="fil5" d="M3.62 26.93c0.07,-0.11 0.11,-0.51 0.16,-0.67 0.03,0.04 0.02,0.02 0.05,0.09 0,0.01 0.02,0.06 0.02,0.07l0.09 0.5 -0.32 0zm-0.37 1.7l1.06 -0c0.26,0.92 -0.11,0.93 0.96,0.89 0.18,-0.01 0.56,-0.27 0.52,-0.56l-1.21 -6 -1.6 0c-0,0.31 -0.99,5.06 -1.13,5.75 -0.04,0.21 -0.15,0.59 -0.15,0.81l1.38 0c0.01,-0.12 0.05,-0.24 0.08,-0.38 0.01,-0.06 0.08,-0.37 0.08,-0.38l-0 -0.13z"/>
   <path class="fil1" d="M7.08 22.51c-0.27,-0.1 -0.87,-0.38 -1.01,-0.58 -0.42,-0.56 0.15,-1.11 0.91,-1.12 1.29,-0 2.76,1.33 4.74,1.34l0.91 -0.09c0.16,-0.14 -0.31,-0.37 -0.44,-0.43 -1.64,-0.68 -2.61,-0.49 -3.54,-1.41 -0.44,-0.43 -0.38,-0.71 -0.65,-1.19 -0.18,-0.04 -0.59,-0.09 -0.8,-0.09 -0.97,0 -2.12,-0.06 -2.78,0.62 -1.15,1.19 -0.47,2.84 0.06,3.13 0.12,0.07 0.14,0.04 0.32,0.04 0.05,0.37 0.14,0.36 0.54,0.62 0.16,-0.07 0.28,-0.14 0.42,-0.22l0 -0.41c0.8,0.07 1.02,0.05 1.8,0.06 0.05,0.16 0.11,0.35 0.15,0.5l0.12 0.39c0.06,0.11 0.01,0.03 0.06,0.09 0.22,-0.12 0.82,-0.43 0.96,-0.58l-1.75 -0.67z"/>
   <path class="fil5" d="M24.28 24.65c1.57,-0 1.33,-0.17 1.33,1.25l-0 1.56c0.29,-0.06 1.01,-0.2 1.28,-0.09 -0,-0.92 -0,-1.84 0,-2.77 0,-0.98 -0.07,-1.65 -1.28,-1.65l-2.61 0 0 6.56 0.43 0c-0.06,-0.55 0.04,-1.05 0.61,-1.41 0.12,-0.08 0.37,-0.21 0.51,-0.24l-0.27 -0.04 0 -3.17z"/>
   <path class="fil1" d="M12.87 19.03l-0.06 0.03c-0.01,0 -0.03,0.01 -0.04,0.01 -0.01,0 -0.03,0 -0.04,0 -0.12,0.01 -0.07,-0 -0.15,-0.01l-0.58 0.11c-2.69,0.27 -3.21,-0.68 -3.68,-0.76 -0.21,0.67 0.32,1.41 0.81,1.86 1,0.91 3.62,0.99 5.05,0.68 2.31,-0.5 1.34,-0.16 2.39,0.04 -0.06,-0.12 -0.11,-0.39 -0.18,-0.56 -0.35,-0.88 -0.16,-1.25 -0.68,-1.53 -0.73,-0.4 -2.12,0.12 -2.83,0.13z"/>
   <path class="fil1" d="M23.59 2.67c0.13,0.02 0.27,0.05 0.42,0.01 -0.03,-0.08 -0.07,-0.03 0.06,-0.06 0.8,0.02 1.03,0.41 1.12,1.02 0.1,0.67 0.24,0.97 0.61,1.45 0.5,0.63 1.86,1.58 2.74,1.63 -0.01,-0.75 -0.47,-0.86 -0.48,-2.81 -0,-0.43 -0.09,-1.09 -0.28,-1.37 -0.38,-0.59 -0.76,-0.48 -1.16,-0.63 -0.01,0.47 0.12,1.24 -0.16,1.51 -0.21,-0.14 -0.25,-0.24 -0.27,-0.53 -0.06,-0.85 -0.04,-1.34 -1.12,-1.34 -0.77,0 -1.51,0.22 -2.09,0.53 -0.17,0.09 -0.43,0.22 -0.57,0.32 0.3,0.13 0.79,0.12 1.13,0.26 0.01,0 0.03,0.01 0.04,0.02z"/>
   <path class="fil8" d="M23.06 19.79c0.09,0.05 0.17,0.09 0.26,0.14l0.86 0.31c0.07,0.02 0.09,0.03 0.15,0.05 0.14,0.05 0.06,0.02 0.11,0.05 0.07,0.05 -0,0.02 0.14,0.06 0.09,0.03 0.07,0.02 0.16,0.04 0.12,0.03 0.21,0.07 0.39,0.07l0.9 0.18c0.07,0.04 -0.01,0.02 0.12,0.04 0.09,0.01 0.12,0.01 0.2,0 0.2,0 0.92,0.02 1.06,0.09l0.27 0 0.37 -0c0.3,0.02 0.3,0.01 0.53,-0.04l0.22 -0.08c0.12,-0.05 0.11,-0.04 0.2,-0.09 0.01,-0.36 -0.1,-0.62 -0.24,-0.91 -0.44,-0.87 -0.99,-0.67 -1.66,-0.84 -0.33,-0.09 -0.9,-0.56 -1.08,0 -0.03,0.09 -0.05,0.16 -0.04,0.26 0.01,0.1 0.06,0.43 0.08,0.53 -0.3,-0.21 -0.34,-0.33 -0.76,-0.45 0.34,-0.05 0.53,-0.14 0.51,-0.46 -0.04,-0.71 -1.1,-0.72 -2.05,-0.83 -0.86,-0.11 -1.02,0.18 -1.2,0.7 -0.28,0.79 0.31,1.02 0.48,1.2z"/>
   <path class="fil1" d="M39.03 20.73c-0.04,-0.17 -0.1,-0.23 -0.22,-0.35 -0.64,-0.59 -0.39,-0.23 -1.28,-0.31 -2.12,-0.18 -1.07,-1.14 -2.16,-2.39 -0.21,-0.24 -0.96,-0.91 -1.57,-0.67 -0.22,0.09 -0.35,0.49 -0.42,0.72 -0.58,1.77 -0.97,1.2 0.23,1.97 0.52,0.33 0.83,0.69 1.29,1.01 0.44,0.31 0.91,0.64 1.69,0.64 0.9,-0 1.77,-0.13 2.45,-0.62z"/>
   <polygon class="fil5" points="42.55,29.51 43.34,29.51 44.14,29.51 44.89,29.51 45.47,29.51 45.47,27.82 43.82,27.82 43.82,22.96 42.55,22.96 "/>
   <path class="fil4" d="M25.72 29.69c0.11,-0.19 0.21,-0.39 0.32,-0.58 0.29,-0.5 -0.08,-0.41 0.22,-0.54 0.44,-0.2 1.34,0.11 1.54,0.32 0.83,0.84 -0.05,2.36 -1.69,3 -0.21,0.08 -1.42,0.46 -1.53,0.11 -0.07,-0.23 0.96,-2.01 1.14,-2.31zm-1.47 -0.46c0.07,-0.2 1.3,-0.61 1.67,-0.6 -0.37,0.59 -0.77,1.22 -1.12,1.85 -0.38,0.69 -0.78,1.32 -0.78,2.11 -0,0.42 0.28,0.4 0.79,0.35 2.02,-0.23 3.99,-1.99 3.73,-3.86 -0.29,-2.1 -2.83,-1.8 -4.36,-0.86 -0.56,0.34 -0.74,1.01 -0.48,1.42 0.42,0.01 0.92,-0.38 1.31,-0.47 -0.33,-0.03 -0.5,0.02 -0.76,0.06z"/>
   <path class="fil1" d="M13.34 5.61l0.02 0.13 0.26 -0.05c0.09,-0.06 0.2,-0.11 0.34,-0.12 0.15,-0.2 0.54,-0.32 0.81,-0.41 0.65,-0.22 2.06,-0.81 2.51,-1.2 0.53,-0.45 0.04,-0.74 0.72,-1.58 0.48,-0.59 1.16,-0.43 1.72,-0.41 0.13,0 0.12,-0.02 0.31,-0.03 -0.21,-0.26 -0.48,-0.52 -0.87,-0.65 -0.4,-0.13 -1.11,-0.08 -1.45,0.05 -0.98,0.36 -0.95,1.42 -1.56,1.45 0.01,-0.48 0.61,-1.01 0.85,-1.38 -0.61,0 -1.11,0.17 -1.48,0.54 -0.86,0.88 -0.19,1.37 -1.21,2.64l-0.95 1.01z"/>
   <path class="fil4" d="M41.75 32.1c-0.53,-0.69 1.32,-1.58 1.53,-1.63 -0.2,0.31 -1.01,1.6 -1.53,1.63zm1.88 -1.78c0.11,-0.12 0.38,-0.16 0.03,-0.62 -0.76,-0.05 -1.59,0.65 -1.92,0.96 -0.3,0.29 -0.41,0.4 -0.57,0.81 -0.08,0.2 -0.52,0.56 -0.8,0.49 -0.25,-0.46 0.8,-1.42 0.8,-1.87 -0,-0.6 -0.33,-0.3 -0.59,-0.01 -0.53,0.6 -0.49,0.72 -1.1,1.27 -0.19,0.17 -0.39,0.46 -0.65,0.52 -0.09,-0.17 -0.06,-0.42 0.06,-0.56 0.04,-0.05 1.19,-1.03 0.89,-1.26 -0.49,-0.2 -0.67,0.08 -0.84,0.32 -0.16,0.21 -0.39,0.46 -0.51,0.69 -0.28,0.53 -0.25,1.34 0.28,1.62 0.32,0.06 0.94,-0.82 1.11,-1.06 -0.07,0.51 -0.41,0.77 0.01,1.19 0.54,0.01 0.72,-0.4 1.29,-0.87 0.21,0.33 0.14,0.62 0.52,0.83 0.44,-0.03 0.88,-0.73 1.15,-1 0,0.38 -0.3,0.72 0.03,1.13 0.31,0.02 0.4,-0.05 0.57,-0.18 0.32,-0.25 0.96,-0.79 0.9,-1.18 -0.07,0.05 -0.99,0.87 -0.99,0.25 -0,-0.75 0.75,-0.8 0.33,-1.47z"/>
   <path class="fil1" d="M41.11 18.9c0.01,0.01 0.03,0.05 0.04,0.06 0.12,0.13 0.17,0.1 0.28,0.3 0.2,0.36 0.17,1.11 0.24,1.54 0.1,0.55 -0.16,1.54 -0.4,1.99 0.61,0.02 0.64,0.33 0.95,0.4 0.08,-0.15 0.05,-0.24 0.06,-0.44l0.63 -0c0.08,-0.13 0.18,-0.57 0.24,-0.77 0.42,-1.24 0.82,-2.74 -0.26,-3.8 -0.43,-0.43 -0.74,-0.6 -1.32,-0.81 -0.3,0.28 -0.48,1.02 -0.48,1.56z"/>
   <path class="fil4" d="M5.55 30.17c0.06,-0.19 0.79,-0.85 0.99,-1.02 0.22,-0.19 0.48,-0.49 0.83,-0.74 0.11,-0.08 0.19,-0.11 0.29,-0.18l-0.68 1.28c-0.33,0.61 -0.19,0.76 -1.43,0.66zm1.77 -0.05c0.21,-0.43 0.39,-0.84 0.64,-1.27 0.2,-0.34 0.62,-0.99 0.28,-1.38 -0.64,0.24 -2.06,1.52 -2.56,2.02 -0.25,0.26 -0.51,0.5 -0.73,0.77l-0.62 -0.02c0.18,-0.22 0.22,-0.11 0.49,-0.23 -0.55,-0.14 -0.96,0.24 -1.21,0.59 -0.35,0.49 0.07,0.46 0.52,0.52 -0.13,0.14 -0.28,0.35 -0.42,0.5 -0.32,0.38 -0.29,0.11 -0.61,0.38 -0.98,0.8 -0.86,1.71 -0,0.8l1.54 -1.66 1.43 0.01c-0.09,0.4 -0.85,1.4 -0.29,1.71 0.34,0.19 0.69,-0.2 0.85,-0.33 0.13,-0.11 0.22,-0.18 0.35,-0.29 0.14,-0.11 0.23,-0.16 0.21,-0.38 -0.28,0.11 -0.44,0.31 -0.67,0.31 -0.26,-0 0.09,-0.64 0.14,-0.74 0.16,-0.36 0.16,-0.38 0.71,-0.39 0.12,-0.18 0.51,-0.66 0.52,-0.84 -0.15,-0.08 -0.35,-0.08 -0.56,-0.1z"/>
   <path class="fil1" d="M1.02 12.7c0.82,0.58 1.99,0.85 3,0.42 0.71,-0.3 1,-0.69 1.84,-1 0.11,-0.04 0.25,-0.08 0.4,-0.11 0.53,-0.1 0.42,-0.14 0.42,-0.14l0.23 -1.15c0.09,-0.37 0.25,-0.75 0.29,-1.14 -0.89,-0.01 -1.15,0.11 -1.77,0.57 -0.11,0.08 -0.19,0.16 -0.29,0.25l-0.98 0.78c-0.4,0.34 -0.8,0.7 -1.3,0.96 -0.14,0.07 -0.23,0.13 -0.36,0.19 -0.12,0.06 -0.3,0.12 -0.44,0.16 -0.32,0.11 -0.68,0.14 -1.02,0.21z"/>
   <polygon class="fil5" points="10.97,29.51 12.25,29.51 12.25,22.96 10.97,22.96 "/>
   <path class="fil4" d="M37.79 28.24c0.02,0.28 -0.55,1.14 -0.68,1.45 -0.25,0.57 -0.41,1.52 0.4,0.61 0.57,-0.64 0.24,-0.34 0.29,-0.62 0.08,-0.49 1.07,-1.65 0.59,-2.25 -0.61,-0.01 -1.15,0.72 -1.49,1.15 -0.18,0.23 -0.39,0.5 -0.55,0.75 -0.18,0.28 -0.35,0.5 -0.52,0.77 -1.29,2.16 -0.82,1.28 -1.7,1.61 -0.41,0.15 -0.88,0.97 -0.69,1.12 0.16,0.13 0.48,-0.13 0.85,-0.23 0.83,-0.22 2.56,0.59 2.94,0.45 0.18,-0.16 0.6,-0.6 0.68,-0.8 -0.23,-0.14 -2.53,-0.67 -2.53,-0.67 0.1,-0.19 0.18,-0.29 0.29,-0.46 0.5,-0.77 1.49,-2.4 2.13,-2.87z"/>
   <path class="fil9" d="M11.23 8.03l0.8 -0.47c1.03,-0.49 1.93,-0.37 2.6,0.42 0.46,0.53 0.42,0.96 0.72,1.58 0.13,0.27 0.3,0.47 0.53,0.63 0.51,0.36 0.35,0.05 0.43,0.71 0.07,-0.16 -0.05,-0.05 0.18,-0.45 0.1,-0.18 0.72,-1.23 0.08,-1.26 -0.2,0.27 0.22,0.71 -0.16,1.1 -1.06,-0.02 -1.03,-1.72 -0.2,-2.3 0.94,-0.65 1.1,0.42 1.3,0.51 0.08,-0.5 -0.28,-0.84 -0.84,-0.85 -0.69,-0.01 -0.86,0.24 -1.57,-0.06 -1.56,-0.65 -0.63,-1.66 -0.62,-2.02 -0.2,0.01 -0.77,0.15 -0.86,0.12l-0.26 0.05 -0.02 -0.13 0 -0.04c-0.11,0.08 -0.12,-0.02 -0.03,0.25l-0.34 0.05 0.19 -0.39c-0.17,0.08 -1.27,0.9 -0.78,1.09 -0.2,0.15 -1.26,1.17 -1.16,1.46z"/>
   <path class="fil1" d="M27.21 21.71c-1.06,0 -2.26,-0.05 -3.21,-0.39 -0.66,-0.24 -1.48,-0.72 -1.9,-0.73 -0.16,0.19 -0.2,0.34 -0.02,0.59 0.29,0.41 1.49,0.67 2.05,0.83 0.49,0.14 1.09,0.28 1.61,0.35l1.8 0.19c0.62,-0 2.34,0.12 2.34,-0.58 0,-0.83 -2.06,-0.27 -2.66,-0.27z"/>
   <path class="fil1" d="M24.44 13.68c-0.17,0.2 -0.27,0.48 0.07,0.65 0.37,0.2 0.56,-0.15 0.85,-0.2 0.44,-0.08 0.7,0.08 0.86,0.28 0.21,0.26 0.28,0.35 0.65,0.48 0.96,0.34 1.2,-0.07 1.19,-0.82 -0.01,-0.66 -0.4,-1.01 -0.48,-1.65l-2.02 -0.33c-0.01,0.51 -0.06,0.38 0.25,0.65 0.16,0.13 0.55,0.94 -0.42,0.95 -0.21,0 -0.64,-0.03 -0.95,-0.03z"/>
   <path class="fil0" d="M24.76 31.97c0.03,-0.3 0.92,-1.83 0.96,-1.96 0.06,0.05 -0.01,-0.02 0.07,0.07 0.01,0.01 0.02,0.02 0.02,0.03 0.01,0.01 0.02,0.02 0.02,0.03 0.06,0.07 0.03,0.05 0.09,0.1 0.07,0.06 0.16,0.1 0.27,0.13 0,0.63 -0.01,0.76 -0.28,1.19 -0.27,0.43 -0.43,0.41 -1.16,0.42zm2.61 -3.17c0.25,0.14 0.47,0.28 0.48,0.63 -0.27,-0.15 -0.47,-0.32 -0.48,-0.63zm-0.85 -0.09c0.24,0 -0.04,-0.05 0.27,0 -0.01,0.42 -0.28,0.68 -0.69,0.76 0.03,-0.31 0.27,-0.34 0.27,-0.76l0.16 0zm-0.26 -0.14c-0.3,0.13 0.08,0.04 -0.22,0.54 -0.11,0.19 -0.21,0.39 -0.32,0.58 -0.18,0.3 -1.22,2.08 -1.14,2.31 0.11,0.35 1.32,-0.02 1.53,-0.11 1.63,-0.64 2.52,-2.16 1.69,-3 -0.2,-0.2 -1.1,-0.51 -1.54,-0.32z"/>
   <path class="fil2" d="M14.96 22.68c0.47,0.1 1.05,0.03 1.59,0.06l0.04 0.33c0.34,-0.2 0.29,-0.26 0.88,-0.3 0.37,-0.02 0.75,-0.03 1.15,-0.06 -0.15,-0.05 -0.5,-0.22 -0.67,-0.29 -0.69,-0.31 -1.28,-0.69 -2.05,-0.96 -0.81,-0.29 -3.18,-0.38 -3.73,-0.08 0.65,0.41 0.58,0.37 1.31,0.73 0.54,0.26 1.27,0.45 1.48,0.57z"/>
   <path class="fil7" d="M28.59 24.7c-0.2,0.72 -0.11,1.66 -0.11,2.41 0,0.26 0.05,0.46 0.11,0.67 0.25,0.02 0.87,0.09 1.16,0.04l0.08 -0.02c0.07,-0.02 0.25,0.01 0.25,-0.41 0,-0.4 0.06,-2.33 -0.06,-2.58 -0.12,-0.23 -0.44,-0.14 -1.22,-0.14 -0.01,-0 -0.2,0.04 -0.21,0.04z"/>
   <path class="fil7" d="M17.79 24.7c-0.17,0.61 -0.17,2.47 -0,3.08 0.86,0.06 1.49,0.22 1.49,-0.4l-0 -2.23c0,-0.61 -0.17,-0.49 -1.22,-0.49 -0.08,0 -0.2,0.02 -0.27,0.04z"/>
   <path class="fil4" d="M29.23 32.09c-0.57,-0.69 1.38,-1.61 1.52,-1.62 -0.19,0.3 -1.01,1.6 -1.52,1.62zm1.61 -0.09c-0.37,-0.57 0.51,-0.98 0.36,-1.46 -0.13,-0.43 -0.05,-0.16 0.08,-0.43 0.19,-0.4 -0.47,-0.79 -1.79,0.33 -0.54,0.45 -1.16,0.94 -0.71,1.91 0.5,1.06 0.94,-0.18 1.5,-0.59 0.03,0.36 -0.33,0.77 0.03,1.14 0.54,0.02 0.95,-0.52 1.3,-0.91 0.15,-0.17 0.21,-0.17 0.17,-0.45 -0.29,0.15 -0.44,0.49 -0.93,0.47z"/>
   <path class="fil7" d="M39.46 27.77c0.41,0.08 0.57,0.04 1.07,0.04 0.25,-0 0.37,-0.1 0.37,-0.31 0,-0.58 0.07,-2.37 -0.05,-2.81 -0.24,-0.05 -0.96,-0.11 -1.27,-0.04 -0.31,0.07 -0.22,0.59 -0.22,0.93 0,0.58 -0.12,1.79 0.11,2.19z"/>
   <path class="fil1" d="M43.88 20.99c0.28,-0.11 0.23,-0.03 0.46,-0.23 1.02,-0.85 0.43,-2.26 0.44,-3.29 0,-0.35 -0.05,-0.53 -0.05,-0.85 0,-0.3 0.01,-0.59 -0,-0.89 -0.51,0.3 -0.5,1.8 -0.63,2.46 -0.05,0.23 -0.12,0.43 -0.16,0.63l-0.01 1.51c0,0.28 -0.05,0.45 -0.05,0.67z"/>
   <path class="fil1" d="M30.25 22.77c0.5,0.01 0.89,0.12 1.13,0.53 0.33,0.56 0.18,3.25 0.2,4.11 0.14,-0.09 0.31,-0.39 0.41,-0.55 0.14,-0.24 0.23,-0.31 0.23,-0.65 0,-0.56 -0.04,-1.31 0.19,-1.81 0.16,-0.36 -0.26,-0.88 -0.47,-1.21 -0.23,-0.37 -0.55,-0.64 -0.94,-0.9l-0.74 0.48z"/>
   <path class="fil5" d="M10.22 10.56c0.69,0.13 1.35,0.44 1.6,0.49l0.17 -0.21c1.15,-1.39 0.28,-2.72 -1.17,-1.29 -0.47,0.46 -0.49,0.81 -0.6,1.01z"/>
   <path class="fil1" d="M30.46 33.21c0.45,-0 1.14,-0.15 1.41,-0.33 0.16,-0.1 0.09,-0.1 0.22,-0.22 0.18,-0.15 1.1,-0.5 1.63,-1.27 0.22,-0.32 0.38,-0.65 0.62,-0.95 -0.48,-0.01 -0.45,-0.06 -0.7,0.16 -0.34,0.29 -1.05,0.95 -1.39,1.11 -0.09,0.04 -0.23,0.11 -0.3,0.15l-0.58 0.63c-0.1,0.11 -0.32,0.29 -0.46,0.38 -0.28,0.17 -0.4,0.15 -0.46,0.33z"/>
   <path class="fil5" d="M11.98 11.18l0.78 0.33c0.29,0.12 0.55,0.22 0.82,0.34 0.21,-0.26 0.45,-0.49 0.52,-0.86 0.23,-1.17 -1.27,-1.28 -2.12,0.19z"/>
   <path class="fil5" d="M10.33 12.39c0.66,0 1.38,-0.6 1.38,-1.16 -0.15,-0.03 -1.04,-0.49 -1.54,-0.49 -0.21,-0 -0.74,1.65 0.16,1.65z"/>
   <path class="fil10" d="M19.32 7.07c-2.01,0.55 -2.23,-1.94 -0.92,-1.67 0.3,0.06 0.33,0.22 0.43,0.44 0.14,0.3 0.48,0.9 0.48,1.23zm-1.79 -2.09c0.49,0.02 1.14,-0.2 1.14,0.25 -0.57,0.04 -0.94,0.02 -1.18,0.35 -0.24,0.33 -0.11,0.8 0.07,1.11 0.54,0.93 1.02,0.33 2.29,0.78l-0.94 -2.21c-0.13,-0.38 -0.22,-0.84 -0.62,-1.01 -0.32,-0.14 -0.43,-0.06 -0.57,0.15 -0.1,0.16 -0.21,0.34 -0.19,0.59z"/>
   <path class="fil1" d="M21.35 23.94c0.12,-0.07 0.25,-0.14 0.37,-0.22l-1 -0c0.01,0.14 0.05,0.16 0.05,0.31l0 1.25c0.14,0.1 0.47,0.13 0.48,0.49l0 0.04c0.01,0.69 -0.48,0.74 -0.48,1.07l0 1.43 0.58 0 0 -4.37z"/>
   <path class="fil4" d="M19.32 7.07c-0.01,-0.33 -0.34,-0.93 -0.48,-1.23 -0.1,-0.22 -0.14,-0.38 -0.43,-0.44 -1.31,-0.27 -1.1,2.22 0.92,1.67z"/>
   <path class="fil5" d="M13.37 12.43c0.01,-0.12 0.06,-0.27 0.11,-0.36 -0.24,-0.14 -0.46,-0.29 -0.73,-0.42 -0.13,-0.06 -0.27,-0.12 -0.39,-0.16 -0.14,-0.05 -0.29,-0.08 -0.43,-0.13 -0.77,1.35 0.26,2.26 1.19,1.35 0.14,-0.14 0.1,-0.18 0.25,-0.28z"/>
   <path class="fil11" d="M23.51 15.95c0.24,0.13 0.41,-0.03 0.55,-0.14 0.53,-0.45 1.14,-0.17 1.82,0.02 0.93,0.26 1.18,0.27 2.14,0.31 0.16,0.01 0.54,-0.01 0.67,0.09 0.51,0.01 0.55,0.28 1.19,0.4 -0.14,-0.26 -0.12,-0.37 -0.46,-0.5 -0.68,-0.26 -1.89,-0.26 -2.65,-0.37 -0.3,-0.04 -0.57,-0.1 -0.86,-0.17 -0.39,-0.09 -1.32,-0.29 -1.72,-0.3 -0.46,-0.01 -0.57,-0.02 -0.85,0.14 -0,0.33 -0.03,0.35 0.18,0.53z"/>
   <path class="fil5" d="M29.45 17.6c0.15,-0.23 0.34,-0.52 0.07,-0.77 -0.21,-0.2 -0.45,-0.3 -0.87,-0.3 -0.16,0.08 -0.05,-0.03 -0.16,0.14 -0.01,0.02 -0.05,0.13 -0.05,0.14l-0.22 0.88c0.17,0.15 0.51,0.35 0.8,0.4 0.16,-0.09 0.33,-0.34 0.43,-0.49z"/>
   <path class="fil5" d="M26.46 17.16c0.17,0 0.33,-0.68 0.37,-0.76l-1.39 -0.49c-0.08,0.27 -0.25,0.12 -0.48,0.94 0.39,0.17 0.9,0.31 1.49,0.31z"/>
   <path class="fil5" d="M27.85 17.56c0.19,-0.3 0.43,-0.72 0.43,-1.07 -0.25,-0.14 -0.13,-0.14 -0.53,-0.18 -0.21,-0.02 -0.52,-0.07 -0.72,0.07 -0.17,0.12 -0.3,0.59 -0.3,0.78 -0,0.17 0.96,0.37 1.12,0.4z"/>
   <path class="fil5" d="M28.06 20.81l-0 0.27c-0.18,-0.11 -0.01,0 -0.1,-0.1l-0.28 -0.17 -0.27 0c-0.27,0 -0.28,0.05 -0.58,0.05 -0,0.49 0.05,0.5 0.05,0.71 0.75,-0 1.11,0.1 1.12,-0.4l0.06 0.13c0.03,0.07 -0.01,0.04 0.05,0.14 1.23,0.24 0.92,-0.41 0.85,-0.67l-0.38 -0c-0.23,0.05 -0.23,0.06 -0.53,0.04z"/>
   <path class="fil5" d="M13.37 12.43c-0,0.11 -0.38,1.07 0.33,1.15 0.45,0.06 0.77,-0.48 0.95,-0.75 -0.36,-0.45 -0.49,-0.46 -1.06,-0.71l-0.21 0.31z"/>
   <path class="fil5" d="M25.13 20.5c-0.18,-0 -0.26,-0.04 -0.39,-0.07 -0.1,-0.02 -0.07,-0.01 -0.16,-0.04 -0.14,-0.05 -0.07,-0.02 -0.14,-0.06 -0.48,0 -0.75,-0.25 -0.75,0.31 0,0.41 0.27,0.56 0.72,0.69 0.35,0.1 0.59,0.11 0.76,-0.13 0.11,-0.16 0.13,-0.49 -0.04,-0.7z"/>
   <path class="fil1" d="M44.09 25.81c0.16,-0.03 0.19,-0.12 0.27,-0.21 0.52,-0.61 0.7,-1.6 0.68,-2.37 -0.18,0.12 -0.63,0.77 -0.84,0.98 -0.15,0.15 -0.12,0.08 -0.12,0.35l0.01 1.25z"/>
   <path class="fil5" d="M23.48 16.85c0.86,-0 1.39,0.29 1.6,-0.58 0.05,-0.2 0.01,-0.28 -0.05,-0.49 -0.85,-0.16 -1.25,0.56 -1.54,1.07z"/>
   <path class="fil12" d="M7.08 28.89l-0.32 0.62 -0.37 0 0.69 -0.62zm-1.53 1.28c1.23,0.1 1.1,-0.05 1.43,-0.66l0.68 -1.28c-0.1,0.07 -0.18,0.1 -0.29,0.18 -0.35,0.24 -0.61,0.55 -0.83,0.74 -0.19,0.17 -0.93,0.83 -0.99,1.02z"/>
   <path class="fil5" d="M26.36 20.73c-0.09,0 -0.11,0.01 -0.2,-0 -0.13,-0.02 -0.05,0 -0.12,-0.04 -0.4,0 -0.56,-0.02 -0.68,0.14 -0.11,0.15 -0.09,0.45 0.03,0.58 0.14,0.15 0.35,0.16 0.62,0.19 0.4,0.05 0.44,0.01 0.67,-0.12 0,-0.28 0.02,-0.51 -0.16,-0.67l-0.16 -0.09z"/>
   <path class="fil5" d="M13.69 11.99c0.39,0.22 0.68,0.43 1.12,0.62 0.23,-0.29 0.31,-0.76 0.08,-1.05 -0.27,-0.33 -0.88,-0.15 -1.2,0.42z"/>
   <path class="fil5" d="M23.32 19.92c-0.09,-0.04 -0.17,-0.09 -0.26,-0.14 -0.29,-0.05 -0.34,-0.21 -0.65,-0.09 -0.1,0.09 -0.27,0.9 1.07,1.16l0.04 -0.06c0.07,-0.14 0.1,-0.31 0.06,-0.46 -0.03,-0.14 -0.17,-0.3 -0.25,-0.41z"/>
   <path class="fil12" d="M41.75 32.1c0.52,-0.03 1.33,-1.32 1.53,-1.63 -0.21,0.05 -2.06,0.94 -1.53,1.63z"/>
   <path class="fil12" d="M29.23 32.09c0.52,-0.02 1.33,-1.33 1.52,-1.62 -0.14,0.02 -2.09,0.94 -1.52,1.62z"/>
   <path class="fil12" d="M12.37 32.09c0.61,0 1.35,-1.4 1.56,-1.62 -0.05,0 -1.97,0.76 -1.56,1.62z"/>
   <path class="fil13" d="M23.11 31.07c0.08,-0.12 0.17,-0.25 0.21,-0.4 -0.34,-0.2 -0.32,-0.28 -0.72,-0.07 -0.37,0.19 -0.46,0.22 -0.82,0.03 -0.09,0.14 -0.28,0.32 -0.32,0.44 0.34,0 0.48,-0.05 0.85,-0.05 0.32,0 0.43,0.05 0.8,0.05z"/>
   <path class="fil14" d="M20.2 31.33c0.35,-0.14 0.96,-0.59 0.93,-1.01 -0.45,0.02 -0.86,0.62 -0.93,1.01z"/>
   <path class="fil5" d="M26.52 28.71l-0.16 -0c0,0.42 -0.24,0.45 -0.27,0.76 0.41,-0.08 0.68,-0.34 0.69,-0.76 -0.31,-0.05 -0.02,-0 -0.27,-0z"/>
   <path class="fil15" d="M21.27 23.38c-0.25,-0.03 -0.47,-0.07 -0.69,-0.1l0.09 0.3c0.88,0.05 0.7,-0.01 1.24,-0.05 -0.47,-0.18 -0.1,-0.07 -0.64,-0.14z"/>
   <path class="fil16" d="M14.96 22.68l-1.11 -0.3c-0.02,0.17 -0.06,0.14 -0.05,0.36l1.01 -0c0.28,-0 0.08,0.01 0.15,-0.05z"/>
   <path class="fil5" d="M25.19 29.51c0.08,-0.29 0.31,-0.46 0.37,-0.67 -0.22,0.04 -0.32,0.12 -0.53,0.13 0.45,0.33 -0.1,0.35 -0.37,0.49l0.53 0.04z"/>
   <path class="fil5" d="M27 23.49c0.22,-0.05 0.13,-0.06 0.25,-0.24 0.09,-0.14 0.14,-0.13 0.23,-0.25 -0.23,0 -0.5,0.05 -0.69,0.09 0.05,0.16 0.16,0.21 0.21,0.4z"/>
   <path class="fil17" d="M14.64 30.67c0.22,-0.12 0.39,-0.21 0.57,-0.35l-0.15 -0.14 -0.47 0.27 0.05 0.22z"/>
   <path class="fil5" d="M27.85 29.42c-0.01,-0.34 -0.23,-0.49 -0.48,-0.63 0.01,0.3 0.21,0.48 0.48,0.63z"/>
   <polygon class="fil5" points="6.39,29.51 6.76,29.51 7.08,28.89 "/>
   <path class="fil0" d="M3.62 26.93l0.32 0 -0.09 -0.5c-0,-0.01 -0.01,-0.06 -0.02,-0.07 -0.03,-0.08 -0.02,-0.05 -0.05,-0.09 -0.05,0.16 -0.09,0.55 -0.16,0.67z"/>
   <path class="fil18" d="M19.7 30.36c0.15,-0.03 0.23,-0.11 0.36,-0.18 0.14,-0.08 0.24,-0.12 0.33,-0.22l-0.42 -0c-0.09,0.14 -0.17,0.25 -0.26,0.4z"/>
   <path class="fil19" d="M28.38 30.76c0.16,-0.04 0.55,-0.26 0.63,-0.35 -0.19,0.01 -0.22,0.04 -0.48,0.04 -0.06,0.1 -0.09,0.21 -0.16,0.31z"/>
   <path class="fil20" d="M28.06 20.81l-0.37 0 0.28 0.17c0.09,0.1 -0.09,-0.02 0.1,0.1l0 -0.27z"/>
  </g>
 </g>
</svg>
